<?xml version="1.0" standalone="no"?>
<!DOCTYPE svg PUBLIC "-//W3C//DTD SVG 1.1//EN" "http://www.w3.org/Graphics/SVG/1.1/DTD/svg11.dtd" >
<svg xmlns="http://www.w3.org/2000/svg" xmlns:xlink="http://www.w3.org/1999/xlink" version="1.1">
<metadata>
Created by FontForge 20170731 at Tue Dec 24 04:00:26 2013
 By Aleksey,,,
Copyright (c) 2000 by Viet hoa by chipquay@gmail.com. All rights reserved.
</metadata>
<defs>
<font id="HLTElisa" horiz-adv-x="1141" >
  <font-face 
    font-family="HLT Elisa"
    font-weight="400"
    font-stretch="normal"
    units-per-em="1000"
    panose-1="2 0 4 0 0 0 0 0 0 0"
    ascent="800"
    descent="-200"
    x-height="497"
    cap-height="800"
    bbox="-322 -840 1786 1255.94"
    underline-thickness="20"
    underline-position="-163"
    unicode-range="U+0020-2122"
  />
<missing-glyph horiz-adv-x="500" 
d="M63 0h375v800h-375v-800zM125 63v675h250v-675h-250z" />
    <glyph glyph-name=".notdef" horiz-adv-x="500" 
d="M63 0h375v800h-375v-800zM125 63v675h250v-675h-250z" />
    <glyph glyph-name=".null" horiz-adv-x="0" 
 />
    <glyph glyph-name="nonmarkingreturn" horiz-adv-x="409" 
 />
    <glyph glyph-name="space" unicode=" " horiz-adv-x="409" 
 />
    <glyph glyph-name="exclam" unicode="!" horiz-adv-x="372" 
d="M345 778q7 16 -3 17q-32 3 -94 -98q-25 -40 -50 -95q-13 -27 -44 -100l-57 -133q-38 -89 -45 -132q-4 -24 5 -24q26 0 61 95q48 132 65 179q21 57 64 131l52 79q32 48 46 81zM68 20q0 19 -26 28q-37 -4 -37 -21q0 -5 3 -10q19 -33 32 -33q10 0 22 19q6 10 6 17z" />
    <glyph glyph-name="quotedbl" unicode="&#x22;" horiz-adv-x="233" 
d="M172 761q2 13 -20 32q-104 -147 -132 -219q-16 -41 0 -45q4 -1 10 -1q24 0 48 58q13 31 31 79q35 55 63 96zM240 793q0 15 -10 28q-62 -107 -80 -170q-12 -37 -18 -55q-14 -45 -13 -53q0 -8 9 -6q22 5 44 49q18 37 23 65q11 71 39 121q6 11 6 21z" />
    <glyph glyph-name="numbersign" unicode="#" horiz-adv-x="518" 
d="M501 732q-1 2 -6 2q-15 0 -130 -43q22 67 22 89q0 12 -5 13q-15 3 -50 -114q-73 -26 -109 -38q34 95 34 121q0 12 -6 13q-13 4 -28 -44l-32 -103q-199 -81 -185 -107q0 -2 4 -2q10 0 170 74l-2 -5q-30 -89 -38 -124q-218 -80 -212 -92q1 -1 4 -1q24 0 199 59
q-7 -28 -9 -43q0 -8 1 -16q7 1 30 67l86 30q21 8 31 12q-19 -67 -19 -86q0 -6 2 -5q8 0 42 102q125 57 125 71q0 3 -6 3q-12 0 -108 -41q22 64 30 86l18 51q152 58 147 71zM322 649q-10 -32 -14 -43q-21 -67 -29 -93q-29 -12 -43 -16q-31 -10 -71 -24q30 91 40 119l5 15
q75 29 112 42z" />
    <glyph glyph-name="dollar" unicode="$" horiz-adv-x="496" 
d="M565 814q0 5 -8 5q-18 0 -123 -175q-35 -3 -71 -11q30 53 74 120l27 41q22 34 25 40q7 16 -5 16q-17 0 -54 -61l-100 -165q-135 -43 -185 -143q-14 -28 -14 -47q0 -42 66 -54q-9 -17 -22 -45l-82 -176q-51 32 -45 119l-10 1q-9 -35 -9 -65q0 -66 45 -94
q-52 -109 -64 -135q-53 -114 -53 -150q0 -12 8 -12q22 0 41 17t14 38q-9 37 75 233q24 -8 52 -8q23 0 47 4q-63 -187 -61 -257q0 -16 9 -16q15 0 34 82q28 121 56 200q123 38 192 191q10 22 10 39q0 48 -88 58l15 33q41 90 90 186q54 3 97 5q8 5 0 10q-16 11 -85 8
q59 101 93 149q9 13 9 19zM298 373q-52 -121 -88 -221q-29 -7 -58 -7q-21 0 -39 5q46 100 112 227q48 -3 73 -4zM420 620q-58 -101 -108 -213q-46 3 -69 4q55 104 104 193q33 10 73 16zM390 331q0 -15 -12 -37q-48 -88 -128 -127q40 109 81 203q59 -8 59 -39zM309 589
q-52 -88 -95 -174q-43 9 -43 33q0 14 14 36q44 68 124 105z" />
    <glyph glyph-name="percent" unicode="%" horiz-adv-x="590" 
d="M578 790q0 7 -8 11q-23 3 -116 -91q-245 -247 -399 -556q-56 -112 -56 -145q0 -8 4 -9q14 -6 38 32q17 27 54 100q99 197 163 285q94 130 288 329q32 33 32 44zM451 102q50 43 50 92q0 39 -39 60q-33 18 -74 18q-95 0 -131 -89q-8 -20 -8 -34q0 -52 88 -79q13 -4 27 -4
q45 0 87 36zM292 666q0 24 -24 55q-18 24 -55 24q-62 0 -105 -28q-51 -33 -51 -92q0 -68 51 -68q39 0 128 45q56 28 56 64zM463 211q0 -30 -25 -69q-32 -49 -75 -45q-74 8 -74 53q0 15 14 28q8 9 11 16q7 16 10.5 24.5t32.5 20.5q14 6 34 6t43 -8q29 -10 29 -26zM262 677
q0 -8 -12 -20q-63 -63 -101 -63l-20 -2q-10 -1 -20 0q-24 2 -24 55q0 16 17 28q53 38 90 38q20 0 40 -10q30 -15 30 -26z" />
    <glyph glyph-name="ampersand" unicode="&#x26;" horiz-adv-x="541" 
d="M518 797q0 3 -3 3q-32 4 -62.5 -60t-66.5 -144l-19 -26q-20 6 -45 6q-39 0 -122 -20q-63 -15 -124 -58q-79 -55 -74 -114q4 -47 80 -47q53 0 125 21l-98 -64q-68 -48 -68 -86q0 -42 55 -47q24 -2 68 9q-26 -29 -52 -76q-31 -56 -31 -85q0 -8 2 -9q44 87 76 128l43 54
q39 13 78 37q54 33 54 59q0 10 -8.5 17.5t-18.5 7.5q-21 0 -56 -35q-10 -10 -59 -68q-42 -9 -85 -9q-40 0 -40 17q0 28 113 109q109 78 105 82q-3 2 -9 2q-24 0 -78.5 -12.5t-81.5 -12.5q-40 0 -68 16q-16 9 -16 22q0 28 80 73q109 61 173 61q46 0 77 -4q-53 -123 -53 -147
q0 -2 2 -2q24 11 75 143q32 -9 32 -27q0 -3 -11 -23.5t-10 -21.5q1 -5 5 -5q13 0 24 19t12 34q2 25 -7 34t-35 15q15 39 19 48q12 27 60 106q43 70 43 80zM299 270q0 -33 -73 -60q56 68 69 68q4 0 4 -8z" />
    <glyph glyph-name="quotesingle" unicode="'" horiz-adv-x="149" 
d="M142 760q0 30 -23 34q-11 -18 -14 -51q-2 -23 -24 -61q-52 -94 -77 -142q-13 -22 -13 -25q0 -4 5 -4q4 0 10 2q28 5 74 89q62 113 62 158z" />
    <glyph glyph-name="parenleft" unicode="(" horiz-adv-x="389" 
d="M371 797q0 1 -7 3q-43 7 -135 -86q-108 -109 -160 -256q-69 -194 -69 -356q0 -102 17 -102q13 0 13 42v55q-1 7 -1 6q0 160 57 306q97 251 239 356q37 28 46 32z" />
    <glyph glyph-name="parenright" unicode=")" horiz-adv-x="234" 
d="M222 544q0 60 -15 137q-20 103 -55 117q-3 2 -5 2q-3 0 6 -22q38 -91 38 -204q0 -221 -92 -401q-26 -52 -68 -111q-31 -44 -31 -54q0 -5 4 -8q7 -5 41 37q42 53 78 126q99 203 99 381z" />
    <glyph glyph-name="asterisk" unicode="*" horiz-adv-x="345" 
d="M345 631q-2 5 -17 5q-25 0 -121 -20q90 112 90 140q0 3 -1 4q-13 8 -115 -133q4 49 4 104q-1 67 -10 67q-16 0 -20 -164q-98 90 -120 90q-5 0 -5 -4q0 -16 116 -115q-83 -10 -87 -11q-40 -7 -40 -21q0 -9 27 -9q29 0 95 11q-80 -95 -80 -113q0 -10 7 -10q16 0 79 86
q-7 -63 -7 -84q0 -34 12 -39q19 -9 25 162q114 -114 133 -114q9 0 9 7q0 17 -112 115q40 6 86 20q56 17 52 26z" />
    <glyph glyph-name="plus" unicode="+" horiz-adv-x="420" 
d="M422 492q0 13 -36 13q-21 0 -199 -26q61 129 61 141q0 6 -4 7q-18 2 -90 -152q-97 -14 -113 -18q-31 -8 -39 -27q-2 -5 6 -5q22 0 65 9q47 10 67 11l-11 -23q-67 -140 -67 -208q0 -13 5 -13q2 0 4 1q13 8 51 111q49 133 52 138l12 3q72 8 143 16q95 11 93 22z" />
    <glyph glyph-name="comma" unicode="," horiz-adv-x="101" 
d="M56 53q0 30 -23 35q-11 -17 -14 -52q-2 -19 -25 -60q-34 -60 -47 -87q-11 -23 -30 -55q-13 -22 -13 -26q0 -3 6 -3q5 0 10 1q23 5 66 76q35 57 60 127q10 27 10 44z" />
    <glyph glyph-name="hyphenminus" unicode="-" horiz-adv-x="454" 
d="M452 422q-2 6 -21 6q-36 0 -102 -10q-69 -11 -101 -12q-116 -3 -142 -4q-72 -4 -74 -26q-2 -15 58 -15q30 0 89 6t89 6q37 0 118 17q90 19 86 32z" />
    <glyph glyph-name="period" unicode="." horiz-adv-x="151" 
d="M133 49q0 8 -12 8q-8 0 -32 -6q-41 -10 -41 -26q0 -24 25 -24q35 0 55 33q5 8 5 15z" />
    <glyph glyph-name="slash" unicode="/" horiz-adv-x="354" 
d="M347 771q-9 -66 -54 -184q-60 -158 -68 -184q-29 -94 -92 -227q-86 -181 -129 -176q-5 1 1 17q18 47 55 112q20 34 62 110q47 90 77 183q20 65 79 248q41 128 68 128q5 0 1 -27z" />
    <glyph glyph-name="zero" unicode="0" horiz-adv-x="729" 
d="M701 615q0 44 -12 90q-13 50 -39 70t-77 20q-111 0 -244 -115q-85 -73 -105 -150q-17 -63 -3 -64q2 0 7 20q40 150 199 245q65 39 113 39q47 0 89 -38q32 -29 32 -112q0 -100 -42 -163q-117 -175 -236 -287q-139 -131 -234 -131q-60 0 -88 72q-20 51 -20 123
q0 204 163 366q84 79 116.5 107t30.5 30q-48 -25 -115 -84q-126 -111 -189 -240q-42 -86 -42 -178q0 -72 31 -143q38 -87 103 -87q121 0 285 162q86 85 217 259q60 80 60 189z" />
    <glyph glyph-name="one" unicode="1" horiz-adv-x="585" 
d="M546 771q0 24 -28 24q-67 0 -275 -142q-88 -60 -162 -115q-87 -65 -83 -70q5 -5 15 -5q22 0 61 23q26 15 66 57.5t63 57.5q67 44 168 101q109 62 131 62q5 0 5 -5q0 -19 -70 -138q-106 -181 -139 -243q-65 -124 -84 -162q-61 -125 -61 -172q0 -39 35 -39q13 2 31.5 15.5
t14.5 24.5q0 1 -2 2l-3 1q-14 5 -10 29q17 96 52 176q27 62 90 165q130 214 159 274q26 54 26 79z" />
    <glyph glyph-name="two" unicode="2" horiz-adv-x="642" 
d="M610 105q0 3 -2 4q-3 2 -11 -5q-62 -66 -65 -68q-43 -39 -81 -39q-24 0 -29 22q-9 76 -9 79q-6 61 -15 88q-19 60 -79 60q-18 0 -45 -7q69 70 155 168q121 138 126 220q3 47 -30.5 88.5t-79.5 41.5q-144 0 -218 -38q-44 -23 -44 -48q0 -21 18 -21q21 0 62 19q34 21 68 41
q41 23 74 23q79 0 107 -61q8 -18 8 -34q0 -33 -34 -93q-28 -43 -56 -87q-42 -68 -126 -139q-107 -89 -149 -122q-32 -26 -55 -22q-13 2 -21 5q-15 1 -28 -2q-38 -9 -38 -44q0 -30 33 -50q7 -4 17 -4q28 0 83 40q13 9 55 44q66 54 98 54q33 0 57 -31q20 -25 27 -61
q3 -16 2 -51q-2 -55 3 -71q11 -37 54 -37q59 0 124 69q44 46 44 69z" />
    <glyph glyph-name="three" unicode="3" horiz-adv-x="623" 
d="M585 726q0 39 -57 62q-43 17 -89 17q-71 0 -211 -47q-104 -35 -97 -56q2 -7 22 -2q25 6 96 33q104 40 173 40q115 0 115 -57q0 -69 -115 -142q-43 -27 -85 -47l-88 -41q-46 -21 -64.5 -23t-53.5 -3q-40 -5 -43 -21q-1 -6 1 -17q4 -23 9.5 -28t27.5 -5q41 0 112 22
q38 12 93 12q58 0 106 -16q68 -23 68 -70q0 -107 -139 -206q-130 -92 -242 -92q-79 0 -116 61q-7 11 -8 13q-1 0 -6 -13q-8 -19 -3 -38q15 -57 133 -57q96 0 191 50q88 47 155 125q73 85 73 159q0 89 -137 110q-28 4 -38 5q-50 -2 -86 -6q-19 0 -18 7q1 15 87 50
q81 33 146 85q88 71 88 136z" />
    <glyph glyph-name="four" unicode="4" horiz-adv-x="605" 
d="M578 381q0 11 -34 11q-41 1 -134 -18q114 205 114 228q0 12 -24 12q-17 0 -44 -61q-44 -100 -54 -120l-37 -68q-231 -46 -269 -43q-48 3 -48 38q0 13 7 35q43 137 123 242q40 49 60 73q50 62 50 75q0 8 -14 10q-35 4 -128 -129q-142 -204 -142 -318q0 -56 44 -60
q11 -1 31 -1q56 0 269 47l-102 -164q-81 -131 -85 -153q-2 -10 3 -12q4 -3 17 0q25 5 210 335q13 2 71 6q44 3 71 9q45 10 45 26z" />
    <glyph glyph-name="five" unicode="5" horiz-adv-x="844" 
d="M382 319q9 119 -145 127q-20 1 -89 -15q-55 -13 -84 2q-11 4 0 26q18 37 59 93l65 90q95 132 95 143q0 10 -9 10q-18 0 -63 -58q-52 -67 -100 -133q-106 -147 -106 -210q0 -13 14 -13q11 0 87 24q54 17 106 17q138 0 138 -94q0 -117 -119 -198q-84 -43 -118 -60l-4 -2
q-10 -5 -13 -6q-9 -4 -12 -4q-9 0 -5 20q4 25 1 29q-17 -13 -40 -36q-22 -29 -22 -49q0 -19 13 -19q20 0 90 34q249 120 261 282zM822 776q5 10 -6 11q-25 3 -97 -18q-183 -53 -274 -53q-21 0 -102 4q-43 2 -46 -4q-2 -3 1 -7q15 -23 90 -23q39 0 100 7q117 13 229 44
q99 27 105 39z" />
    <glyph glyph-name="six" unicode="6" horiz-adv-x="610" 
d="M599 777q-1 17 -34 28q-26 8 -47 8q-36 0 -72 -20q-341 -191 -414 -491q-13 -53 -13 -97q0 -52 23 -103q21 -46 50 -59l3 -3q25 -32 43 -32q14 0 39 21l36 30q-11 -3 -20 -5q38 13 89 38q126 62 172 134q33 51 43 67q29 46 29 71q0 20 -22 35q-57 40 -121 40
q-97 0 -178 -98q-46 -55 -80 -120q-43 -82 -43 -135q-12 9 -17 25q-18 49 -18 103q0 103 72 233q65 116 151 195q58 53 152 108q73 43 116 43q32 0 38 -26q4 -16 -12 -69v-1q9 3 23 35q13 32 12 45zM116 110q0 65 37 123q45 70 64 88l37 34q65 60 130 60q52 0 103 -39
q10 -8 10 -22q0 -46 -54 -113q-49 -62 -95 -87q-150 -81 -219 -81h-9q-4 14 -4 37zM562 697q1 -2 2 -2v2h-2z" />
    <glyph glyph-name="seven" unicode="7" horiz-adv-x="440" 
d="M432 728q2 30 -18 45q-33 25 -184 25q-86 0 -92 -19q-1 -14 26 -17q16 -2 76 1q67 3 92 -2q47 -10 47 -47q0 -53 -81 -211l-104 -12q-67 -7 -100 -11q-84 -11 -89 -32q-1 -4 8 -4q19 -3 79 7q73 12 82 13q91 6 107 7q-107 -201 -133 -252q-76 -146 -80 -153l-11 -18
q-22 -36 -22 -48q0 -7 10 2q23 20 64 81q52 78 207 390q110 8 108 31q-1 10 -91 2q98 202 99 222z" />
    <glyph glyph-name="eight" unicode="8" horiz-adv-x="524" 
d="M515 726q0 29 -36 50q-31 19 -62 19q-108 0 -110 -30q12 -4 62 7q36 8 55 8q57 0 57 -59q0 -78 -162 -209q-69 -56 -109 -88q0 3 -1 6q-14 47 -47.5 103t-46.5 77q-28 47 -28 83q0 11 1 18q4 28 41 46q21 10 68 22q33 9 40 14q-6 2 -11 2q-40 2 -92 -16q-81 -27 -81 -75
q0 -31 49 -134q66 -138 67 -141l10 -30l-22 -18q-83 -72 -127 -168q-19 -42 -19 -88q0 -39 14 -71q18 -40 51 -44q86 0 125 95q28 69 28 169q0 69 -13 126q14 10 29 20q119 80 202 185q68 86 68 121zM185 375q11 -49 11 -104q0 -75 -21 -139q-30 -91 -90 -91q-35 0 -35 61
q0 27 8 71q20 110 127 202zM238 793v1l-1 -1h1zM239 795l-1 -1z" />
    <glyph glyph-name="nine" unicode="9" horiz-adv-x="593" 
d="M581 671q1 8 -6 46q-15 80 -123 76q-86 -4 -190 -62q-179 -100 -179 -269q0 -76 81 -87q29 -4 54 -4q43 0 95 10q61 12 87 31q14 10 37 38q4 6 7 8q13 8 13 -9q0 -35 -35 -141q-47 -142 -115 -201q-86 -74 -160 -74q-35 0 -63 18q-31 20 -40 52q-7 25 5 29q16 5 17 6
q1 0 -1 4q-5 11 -32 11q-33 0 -33 -37q0 -53 48 -82q39 -24 97 -26q107 -4 195 99q75 87 108 207q28 103 38 143q9 34 52 112q39 72 43 102zM545 695q0 -30 -33 -103q-25 -55 -59 -89l-35 -35q-34 -34 -90.5 -54.5t-107.5 -20.5q-45 0 -73 23q-31 25 -31 70q0 65 78 155
q106 123 230 123q40 0 74 -13q47 -18 47 -56z" />
    <glyph glyph-name="colon" unicode=":" horiz-adv-x="192" 
d="M91 65q-1 3 -3 5q-26 46 -37 50q-32 -18 -32 -51q0 -11 4 -23q10 -31 23 -31q8 0 20 15q26 32 25 35zM182 423q0 10 -14 19q-12 6 -22 6q-15 0 -18 -57l-1 -17l12 9q43 32 43 40z" />
    <glyph glyph-name="semicolon" unicode=";" horiz-adv-x="241" 
d="M81 31q3 23 0 38q-4 25 -22 23q-15 -2 -20 -19q-3 -10 -6 -43q-8 -89 -34 -139q-40 -77 -160 -207q99 84 139 130q90 105 103 217zM233 413q0 29 -76 49q-11 -20 -11 -34q0 -22 26 -24q61 -5 61 9zM-203 -351q-18 -14 -42 -39q2 -5 5 -5q2 0 4.5 1.5t24.5 24.5
q27 28 50 53q-20 -17 -42 -35z" />
    <glyph glyph-name="less" unicode="&#x3c;" horiz-adv-x="394" 
d="M391 563q0 9 -8 9q-40 0 -205 -92.5t-168 -119.5q-3 -28 126 -87q122 -56 164 -56q16 0 16 11q0 13 -63 35q-87 30 -123 52q-63 38 -63 45q0 3 8 8l213 127q38 21 58 31q45 26 45 37z" />
    <glyph glyph-name="equal" unicode="=" horiz-adv-x="501" 
d="M423 318q-4 13 -69 13q-19 0 -132 -5q-29 -1 -76 1q-58 2 -77 2q-65 0 -68 -18q-3 -19 97 -21q82 -2 127 -1q70 1 113 6q88 11 85 23zM501 487q-2 7 -27 7q-33 0 -120 -13q-94 -14 -121 -16q-194 -14 -197 -34q-1 -11 60 -11q74 0 145 12q108 17 150 23q113 17 110 32z
" />
    <glyph glyph-name="greater" unicode="&#x3e;" horiz-adv-x="403" 
d="M396 374q4 -17 -52 -36q17 -30 17 -42q0 -11 -9 -11q-15 0 -47 40q-39 -8 -52 -12q-26 -8 -50 -23q-31 -19 -110 -69q-67 -42 -91 -40q-2 4 -2 7q0 23 58 58q33 20 145 88q13 8 73 31q-33 50 -81 118q-91 102 -91 132q0 3 2 4q7 4 74 -68q76 -81 138 -171q33 11 51 11
q23 0 27 -17z" />
    <glyph glyph-name="question" unicode="?" horiz-adv-x="491" 
d="M463 394q-3 4 -23 -5q-111 -53 -117 -55q-62 -26 -127 -26q-158 0 -158 95q0 58 79 100q90 46 125 63q66 33 97 55q64 45 64 84q0 90 -117 90q-37 0 -84 -15q-54 -17 -72 -41q-7 -9 0 -14q9 -6 25 0l57 30q36 19 62 19q42 0 69 -16q23 -14 23 -48q0 -59 -226 -164
q-138 -64 -138 -144q0 -10 3 -19q37 -110 148 -110q100 0 227 63q92 46 83 58zM179 40q0 12 -11 19.5t-23 4.5q-15 -3 -35.5 -23t-20.5 -34q0 -10 17 -10q22 0 45 11q28 13 28 32z" />
    <glyph glyph-name="at" unicode="@" horiz-adv-x="745" 
d="M744 599q0 81 -32 135q-39 66 -115 66q-115 0 -254 -79q-149 -84 -241 -211q-105 -143 -105 -299q0 -118 90 -174q59 -37 127 -37q63 0 141 27q83 28 126 68q16 15 16 26q0 4 -3 8q-9 9 -27 -5q-68 -52 -119 -71q-56 -20 -138 -20q-102 0 -146 60q-38 52 -38 158
q0 74 46 163q61 118 188 217q164 128 282 135q6 1 43 1q63 0 96 -50q28 -42 28 -109q0 -53 -17 -115q-44 -160 -94 -210q-33 -33 -102 -33q-33 0 -33 61q0 42 20 88q48 111 67 140h-43l-5 -12q-9 61 -58 64q-61 4 -113 -49q-43 -43 -67 -109q-35 -96 -35 -128q0 -47 62 -44
q68 3 157 116q-11 -47 -11 -81q0 -83 68 -83q131 0 205 224q34 103 34 162zM482 489q-26 -53 -68 -95q-11 -11 -27 -35q-23 -35 -38 -47q-21 -18 -59 -18q-31 0 -31 16l18 90q13 63 74 115q50 43 85 47q33 4 46 -73z" />
    <glyph glyph-name="A" unicode="A" 
d="M1143 325q-2 2 -73 -72q-176 -185 -371 -185q-103 0 -103 139q0 50 11 106q86 93 160 203q78 116 78 172q0 33 -31 33q-72 0 -146 -139q-70 -131 -93 -251q-89 -93 -178 -162q-167 -129 -290 -129q-75 0 -75 83q0 121 129 320q74 114 159 199q121 121 211 121
q28 0 51 -13q39 -22 39 -63q0 -58 -70 -144q-43 -51 -65 -76q-54 -64 -54 -75q0 -6 6 -6q25 0 85 65q45 49 71 88q61 92 61 158q0 48 -36 75q-32 25 -81 25q-108 0 -239 -127q-96 -93 -175 -220q-122 -196 -122 -330q0 -118 111 -118q122 0 293 129q85 64 161 140
q-2 -26 -2 -51q0 -182 134 -186q140 -4 310 138q37 31 87 86q54 60 47 67zM693 555q61 127 104 128q10 0 13 -9q2 -7 -2 -21q-24 -87 -181 -265l-2 -2q25 79 68 169z" />
    <glyph glyph-name="B" unicode="B" horiz-adv-x="556" 
d="M556 659q0 141 -168 141q-30 0 -57 -3q-118 -13 -196 -53q-61 -31 -61 -56q0 -6 4 -8q4 -4 41 16q122 65 214 69q95 4 133 -13q52 -23 48 -91q-7 -128 -179 -231q-60 -36 -60 -43q0 -9 27 -25q36 -21 49 -34q27 -27 27 -63q0 -31 -38 -83q-108 -148 -276 -143
q-40 1 -40 44q0 50 53 159q26 53 99 181q53 93 53 104q0 2 -1 3q-21 9 -85 -102q-51 -88 -86 -165q-57 -126 -57 -185q0 -78 81 -78q121 0 269 145q76 74 76 118q0 30 -24 58q-14 17 -44 41q-23 18 -21 24q2 7 60 46q159 107 159 227z" />
    <glyph glyph-name="C" unicode="C" horiz-adv-x="896" 
d="M897 335q0 6 -6 6q-13 0 -117 -78q-127 -95 -225 -145q-154 -78 -282 -78q-221 0 -221 148q0 103 103 244q86 118 210 215q152 119 267 119q41 0 75 -21q40 -24 40 -63q0 -35 -42 -82q-24 -26 -75 -68q-38 -31 -33 -36q2 -1 5 -1q32 0 96 59q73 68 73 132q0 38 -28 70
q-39 44 -106 44q-112 0 -266 -110q-132 -94 -236 -226q-129 -163 -129 -290q0 -174 269 -174q121 0 287 82q132 66 247 157q94 75 94 96z" />
    <glyph glyph-name="D" unicode="D" horiz-adv-x="576" 
d="M577 542q0 195 -131 243q-43 16 -93 16q-66 0 -147 -27q-133 -44 -123 -67q1 -1 3 -1l96 31q93 30 164 30q189 0 189 -220q0 -124 -67 -243q-63 -111 -167 -190q-112 -85 -219 -85q-57 0 -57 57q0 53 61.5 182.5t61.5 138.5q0 4 -2 5q-11 6 -48 -55t-65 -135
q-33 -86 -33 -143q0 -79 66 -79q141 0 266 98q99 78 169 197q76 131 76 247z" />
    <glyph glyph-name="E" unicode="E" horiz-adv-x="795" 
d="M796 365q-3 2 -55 -45q-148 -134 -246 -194q-157 -95 -293 -86q-141 10 -141 87q0 64 100 174q86 29 195 132q61 58 61 86q0 12 -15 12q-48 0 -156 -94q-69 -61 -112 -109q-20 -6 -37 -6q-27 0 -46.5 18t-19.5 44q0 74 107 176q81 78 171 131q127 74 231 74q71 0 118 -39
q9 -8 -7 -25q-10 -10 -15 -14l-17 -16q-34 -32 -34 -40q0 -2 2 -3q11 -7 59.5 38t48.5 68q0 5 -3 9q-36 53 -122 53q-102 0 -240 -69q-112 -56 -204 -138q-122 -109 -122 -201q0 -42 27 -69.5t69 -27.5h3q-72 -95 -72 -165q0 -106 179 -121q159 -14 393 167q82 63 144 129
q55 58 49 64zM322 454v-1l-1 -1h-1z" />
    <glyph glyph-name="F" unicode="F" horiz-adv-x="1135" 
d="M890 417q-8 28 -233 28q-28 0 -73 1q16 26 24 35q32 35 71 86q53 68 53 88q0 7 -6 7q-17 0 -72 -61q-49 -54 -81 -98q-13 -17 -36 -54q-143 4 -203 -1q-31 -3 -109 -34q-85 -34 -79 -56q1 -3 4 -3q-2 2 70 34q79 34 121 34q79 0 179 -3q-71 -122 -112 -210
q-28 -61 -87 -108q-30 -24 -93 -59q-42 -23 -42 -33q2 -10 16 -10q51 0 133 69q76 64 104 114l130 235l98 -2q53 -2 73 -3q37 -1 100 -1q51 0 50 5zM1137 747q0 13 -143 22q-112 7 -235 7q-66 0 -196.5 12t-196.5 12q-134 0 -299 -141q-57 -49 -49 -56q4 -5 65 37
q84 59 132 84q87 46 141 46q66 0 200 -10q144 -8 199 -10l132 -5q158 -6 177 -6q73 0 73 8z" />
    <glyph glyph-name="G" unicode="G" horiz-adv-x="838" 
d="M833 502q1 3 -25 4t-64 -1q-90 -5 -85 -5h-6q-2 1 -3 2v2q11 26 16 49q7 32 -3 32q-16 0 -57 -75l-6 -11q-4 -7 -8 -3h-8q-30 0 -115 -2q-124 -3 -124 -14q-1 -7 117 -10q39 -1 83 -1h35q5 0 5 -4q-4 -12 -7 -17q-12 -28 -21 -46q-71 -142 -167 -229q-119 -108 -254 -108
q-110 0 -110 147q0 114 63 247q60 126 146 210q111 108 233 108q33 0 33 -13q0 -10 -21 -29q-44 -40 -36 -45q2 -1 5 -1q12 0 43 26q37 31 37 51q0 31 -85 31q-113 0 -221 -102q-93 -88 -155 -222q-65 -139 -65 -262q0 -174 136 -174q148 0 302 146q-19 -78 -19 -127
q0 -53 23 -53q13 0 26 75q19 110 31 141q50 133 133 252q1 2 3 2q49 3 98 8q97 10 97 21z" />
    <glyph glyph-name="H" unicode="H" horiz-adv-x="1156" 
d="M1149 317q0 2 -1 3q-7 6 -82 -63q-96 -88 -154 -132q-97 -73 -148 -73q-65 0 -65 119q0 138 75 265q38 64 136 195q72 96 72 120q0 19 -24 19q-15 0 -53 -30q-34 -27 -51 -41q-158 -120 -379 -247q-75 -44 -163 -106q20 45 33 73l3 7q21 35 121 191q77 120 77 137
q0 5 -17 5q-27 0 -93 -25.5t-101 -25.5q-20 0 -55 24q-53 36 -68 44q-46 24 -92 24q-29 0 -73 -31q-47 -32 -47 -59q0 -4 2 -5q5 -4 20 13q50 55 99 55q12 0 32 -5q29 -8 83.5 -44t82.5 -45q8 -1 18 -1q23 0 67.5 14.5t62.5 14.5q6 0 8 -3q5 -6 -62 -111
q-104 -163 -114 -185q-27 -60 -48 -107q-227 -172 -227 -276q0 -25 19 -25q105 0 188 172q30 65 54 115q68 54 123 85q59 33 303 193q105 68 206 133q-44 -58 -64 -87q-173 -242 -180 -398q-3 -71 10 -123q20 -81 75 -81t154 72q78 57 162 142q75 76 75 94zM223 237
q-15 -35 -25 -57q-66 -144 -125 -141q-17 1 -17 13q0 39 137 159z" />
    <glyph glyph-name="I" unicode="I" horiz-adv-x="731" 
d="M736 486q-1 3 -8 3q-49 0 -200 -61q16 45 30 93q52 176 52 233q0 8 -2 9q-10 2 -71 -19q-72 -25 -114 -25q-26 0 -86.5 40.5t-108.5 40.5q-39 0 -133.5 -93t-94.5 -132q0 -3 2 -4q5 -5 45 46q57 72 86 100q58 55 101 55q52 0 93 -35q59 -50 126 -50q24 0 76 16
q40 13 45 20q-3 -29 -44 -175q-21 -73 -41 -136l-12 -5q-147 -62 -226 -117q-139 -96 -139 -199q0 -91 116 -91q94 0 192 176q51 92 95 214q47 20 102 43q121 50 119 53zM475 372q-119 -335 -251 -342q-83 -5 -83 66q0 52 51 112q50 59 283 164z" />
    <glyph glyph-name="J" unicode="J" horiz-adv-x="492" 
d="M493 757q-1 5 -16 4l-43 -3q-29 -2 -42 2q-3 1 -33 23q-23 17 -62 17q-54 0 -120 -49q-35 -26 -82 -77q-58 -63 -58 -89q0 -2 1 -3q5 -4 46 46q54 67 93 100q65 56 122 56q23 0 70 -37q18 -14 83 -14q-131 -238 -189 -394l-10 -6q-165 -104 -259 -190q-57 -52 -93 -130.5
t-36 -154.5q0 -131 100 -131q102 0 158 108q54 105 115 327q27 98 51 173q22 15 47 30q98 60 97 62q-1 1 -3 1q-23 0 -133 -67q28 84 52 134q8 17 82 144q64 110 62 118zM254 313v-1q-65 -190 -79 -239q-25 -95 -33 -132q-48 -188 -175 -188q-73 0 -73 112q0 117 69 208
q75 99 291 240z" />
    <glyph glyph-name="K" unicode="K" horiz-adv-x="1017" 
d="M1017 679q0 22 -24 52q-29 37 -69 37q-87 0 -169 -56q-108 -91 -159 -134q-149 -121 -267 -210q24 86 74 175q27 48 78 119q35 49 33 55q-6 15 -27 15q-19 0 -67.5 -15.5t-69.5 -13.5t-85 13q-53 9 -86 9q-77 0 -136 -55q-42 -39 -42 -60q0 -3 2 -5q6 -3 47 40
q47 49 87 55q19 3 208 -25q17 0 122 18q-126 -173 -149 -245q-11 -32 -21 -61l-57 -8q-42 -6 -71 -33t-29 -68q0 -36 25 -36q18 0 54 12q47 16 49 16q-19 -46 -26 -63q-30 -68 -44 -104q-37 -69 -84 -69q-32 0 -48 23q-7 10 -16 42q-6 21 -12 18q-5 -2 -5 -18q0 -38 22 -65
t59 -27q70 0 127 115q23 47 64 172q49 42 80 65q26 3 46 3q45 0 65 -15q29 -22 40 -64q8 -32 10 -95q2 -66 8 -95q13 -61 35 -89q30 -36 86 -36t122 63q57 55 57 79q0 2 -2 3q-5 3 -33 -25q-38 -38 -62 -56q-41 -31 -75 -31q-39 0 -51 5q-30 13 -47 86q-7 32 -16 101
q-15 122 -15 119q-17 80 -135 80q94 77 191 164q119 108 171 139q61 37 136 37q34 0 55 -16q11 -8 23 -28q9 -15 16 -15t7 6zM295 347q-58 -65 -102 -65q-16 0 -12 17q11 55 114 48z" />
    <glyph glyph-name="L" unicode="L" horiz-adv-x="1157" 
d="M1155 156q0 3 -1 5t-3 2q-4 0 -53 -35q-137 -97 -287 -97q-117 0 -270 71q-138 64 -201 131q-16 16 -32 30q120 217 168 306q107 189 198 189q21 0 29 -37t15 -34q11 4 11 30q0 28 -11 52q-14 31 -39 31q-114 0 -222 -191q-121 -221 -176 -324q-58 42 -114 42
q-72 0 -119.5 -60.5t-47.5 -133.5q0 -48 24 -75q25 -30 72 -30q82 0 187 189l8 14q24 -29 40 -40q109 -79 177 -113q155 -78 305 -78q81 0 172 38q40 17 102 56q68 43 68 62zM268 259l-2 -4q-103 -191 -181 -191q-57 0 -57 53t49 120q52 72 102 68q40 -3 64 -22
q10 -8 25 -24z" />
    <glyph glyph-name="M" unicode="M" horiz-adv-x="1779" 
d="M6 279q1 -1 3 -1q13 0 110 68q233 163 261 183q338 232 350 222q3 -3 3 -9q0 -33 -83 -193q-142 -275 -155 -300q-82 -163 -83 -223q-1 -26 19 -26q46 0 239 163q112 95 335 300q173 159 177 155q8 -6 -62 -108q-100 -146 -137 -211q-76 -133 -76 -196q0 -65 75 -65
q72 0 222 125q81 67 249 234q127 126 144 127q-36 -67 -45 -82q-75 -127 -100 -179q-55 -114 -55 -178q0 -77 82 -77q57 0 139 54q67 44 123 102q45 46 45 60q0 4 -4 4q-10 0 -56 -47q-58 -59 -102 -88q-73 -48 -141 -48q-51 0 -51 52q0 64 55 169l103 196q56 107 56 129
q0 13 -11 13q-19 0 -153 -137q-172 -175 -263 -253q-161 -137 -244 -137q-35 0 -35 36q0 63 78 190l145 236q77 125 77 147q0 8 -6 8q-13 0 -207 -173q-294 -262 -357 -316q-196 -167 -221 -157q-4 1 -4 10q0 38 166 349t166 372q0 19 -12 21q-25 4 -401 -250
q-372 -251 -358 -271z" />
    <glyph glyph-name="N" unicode="N" horiz-adv-x="1322" 
d="M1321 82q-1 1 -4 1q-11 0 -72 -41q-86 -58 -119 -76q-73 -40 -119 -40q-81 0 -81 82q0 84 64 220l119 252q64 136 64 176q0 27 -23 27q-69 0 -219 -164l-276 -302q-146 -160 -174 -155q-13 2 -13 18q0 40 90 193q120 203 167 281q89 152 89 214q0 33 -31 33
q-54 0 -258 -171q-137 -115 -312 -280q-206 -195 -206 -224q0 -3 1 -4q7 -7 184 157q251 233 339 309q193 168 238 165q3 -1 3 -5q0 -21 -92 -180q-121 -209 -170 -304q-92 -177 -92 -235q0 -32 27 -32q37 0 192 162q208 219 288 303q157 164 196 167q8 1 8 -9
q0 -23 -62 -144q-86 -167 -116 -239q-62 -146 -62 -228q0 -113 115 -113q68 0 243 120q83 57 74 66z" />
    <glyph glyph-name="O" unicode="O" horiz-adv-x="757" 
d="M755 584q0 132 -180 132q-109 0 -246 -48q198 118 195 132q-4 5 -81 -31q-229 -106 -334 -248q-49 -67 -79 -156.5t-30 -172.5q0 -192 157 -192q128 0 275 107q115 84 210 210q113 150 113 267zM714 576q0 -123 -153 -310q-193 -236 -404 -236q-67 0 -100 55
q-27 45 -27 116q0 141 91 290q53 86 193 143q126 51 247 51q50 0 65 -3q27 -5 52 -24q36 -27 36 -82z" />
    <glyph glyph-name="P" unicode="P" horiz-adv-x="668" 
d="M668 499q0 99 -100 192q-118 109 -296 109q-72 0 -136 -34t-105 -93q-31 -44 -31 -72q0 -10 5 -12q8 -4 34 43q80 144 234 144q113 0 225 -68q136 -82 136 -210q0 -97 -129 -167q-87 -47 -215 -75q31 102 45 150q21 53 60 99q21 25 57 57q26 23 26 31q0 6 -8 6
q-27 0 -77.5 -57t-81.5 -139q-25 -77 -50 -153q-107 -19 -161 -9q-44 8 -54 62q-4 19 -9 20q-8 0 -8 -22q0 -38 25.5 -61.5t64.5 -23.5t131 11q-35 -104 -40 -113q-24 -47 -82 -81q-43 -25 -43 -30t13 -5q42 0 84 41q34 33 56 79q18 38 41 111q134 22 242 81q147 80 147 189
z" />
    <glyph glyph-name="Q" unicode="Q" horiz-adv-x="858" 
d="M859 655q0 62 -35 96q-57 56 -170 56q-139 0 -318 -74q266 150 262 166q-1 1 -3 1q-13 0 -88 -35q-100 -47 -192 -110q-120 -83 -185 -170q-55 -75 -89 -176.5t-34 -194.5q0 -217 178 -217q122 0 262 88q32 -66 37 -77q31 -61 110 -185q87 -137 98 -133q3 1 3 5
q0 18 -72 132q-88 139 -117 197q-14 28 -35 77q136 92 252 242q136 176 136 312zM822 654q0 -139 -174 -352q-92 -113 -186 -179q-46 118 -64 163q-30 75 -45 73q-4 0 -4 -8q0 -46 88 -244q-126 -80 -255 -80q-75 0 -111 70q-29 55 -29 137q0 179 110 324q72 95 231 159
q147 59 278 59q161 0 161 -122z" />
    <glyph glyph-name="R" unicode="R" horiz-adv-x="844" 
d="M846 20q0 1 -1 2q-3 3 -28 -19q-35 -31 -59 -45q-43 -25 -84 -25q-162 0 -436 277l26 44q72 13 108 22q90 22 170 75q116 77 119 173q3 116 -125 200q-114 75 -236 75q-64 0 -174 -61q-103 -57 -103 -77q0 -2 2 -3q4 -3 48 25q58 36 102 56q70 31 128 31q109 0 217 -69
q117 -75 117 -169q0 -84 -104 -156q-92 -64 -177 -78q-40 -7 -76 -10q21 64 50 115l69 123q26 46 22 53q-1 3 -3 3q-15 0 -51 -61q-45 -80 -60 -111q-40 -74 -69 -122q-14 -4 -26 -4q-27 0 -72 35q-6 4 -31 27q-21 20 -32 20q-14 0 -22 -23q-6 -17 -6 -34q0 -37 35 -53
q6 -2 67 -17q21 -8 47 -29q-47 -92 -62 -119q-37 -69 -76 -69q-17 0 -31 30t-18 28q-5 -2 -5 -12q0 -22 16.5 -47t37.5 -25q42 0 99 79q39 54 68 116q142 -135 203 -181q142 -107 247 -107q54 0 115 51q54 45 54 66zM151 282q-1 -3 -1 -6q-46 5 -55 8q-20 4 -20 17
q0 28 11 28q2 0 4 -2q39 -32 61 -45z" />
    <glyph glyph-name="S" unicode="S" horiz-adv-x="659" 
d="M660 791q0 9 -8 9q-30 0 -93 -55t-78 -87q-8 -17 -11 -48q-128 -115 -292 -251q-182 -151 -175 -159q6 -7 175 130q164 133 289 247v-32q0 -60 4 -127q7 -113 7 -120q4 -102 -29 -180q-41 -96 -127 -96q-48 0 -69 23q-11 12 -18 44q-5 24 -14 24q-11 2 -11 -32
q0 -83 103 -81q197 3 188 310l-3 101q-2 67 -2 114q0 51 3 81q161 151 161 185zM600 730q-42 -40 -88 -82q20 26 88 82z" />
    <glyph glyph-name="T" unicode="T" horiz-adv-x="1343" 
d="M1346 737q-6 15 -134 15h-75q-45 -1 -77 -1q-70 0 -99 2q-70 5 -206 23.5t-203 23.5q-27 2 -61 2q-185 0 -311 -87q-75 -52 -129 -175q-44 -101 -44 -160q0 -14 5 -15q7 -2 19 48q18 73 42 122q41 84 111 144q107 93 361 93q47 0 197 -18q170 -20 220 -25
q110 -10 237 -10q154 0 147 18zM703 484q0 6 -3 6q-10 0 -64 -118q-69 -151 -119 -221q-84 -118 -170 -118q-56 0 -59 65q-1 21 -7 19q-12 -4 -12 -38q0 -79 73 -79q84 0 177 113q72 87 132 220q52 115 52 151z" />
    <glyph glyph-name="U" unicode="U" horiz-adv-x="1265" 
d="M1257 235q0 6 -6 6q-11 0 -37 -18q-98 -70 -135 -97q-92 -65 -142 -65q-49 0 -49 59q0 111 149 356q27 45 63 88q50 60 69 83q50 62 50 87q0 16 -16 16q-33 0 -124 -123l-87 -117q-50 -68 -80 -100q-105 -114 -251 -222q-197 -145 -309 -145q-60 0 -60 42q0 65 146 247
q104 129 144 179q128 163 128 229q0 58 -96 58q-137 0 -356 -178q-143 -117 -238 -230l-5 -6q-10 -12 -12 -15q13 -2 82 64q163 156 239 213q162 123 276 123q34 0 65 -11q9 -3 9 -15q0 -15 -14 -45q-68 -145 -318 -442q-94 -111 -94 -182q0 -72 98 -72q126 0 317 146
q132 101 272 252q53 57 64 72h2l1 -1l-1 -2q-46 -46 -93 -165.5t-47 -185.5q0 -85 71 -86q66 0 205 94q35 24 71 54q49 41 49 55z" />
    <glyph glyph-name="V" unicode="V" horiz-adv-x="1046" 
d="M1042 738q-2 3 -6 3l-90 -29q-137 -44 -235 -44q-26 0 -82 17l-10 2q-8 113 -55 113q-20 0 -35.5 -11.5t-15.5 -30.5q0 -21 18 -46q19 -26 49 -42q4 -23 4 -38q0 -99 -51 -185q-245 -412 -442 -412q-54 0 -54 56q0 100 141 308q70 101 105 152q69 101 69 156
q0 30 -24.5 48t-55.5 18q-40 0 -92 -30q-24 -14 -61 -46q-46 -40 -39 -50q1 -2 4 -2q-1 0 71.5 52t109.5 52q25 0 42.5 -14t17.5 -38q0 -44 -54 -118q-71 -97 -99 -134q-172 -242 -172 -364q0 -81 90 -81q94 0 223 118q99 91 185 214q61 88 87 144q38 83 37 163v14
q37 -9 85 -9q124 0 248 47q94 36 87 47zM571 711q-5 5 -5 11q0 3 1 5q0 1 4 -16z" />
    <glyph glyph-name="W" unicode="W" horiz-adv-x="1758" 
d="M1762 743q0 2 -5 2q-18 0 -141 -46q-184 -69 -241 -87q-67 -22 -117 -33q26 75 26 133q0 88 -72 88q-136 0 -195 -68q-31 -35 -31 -72q0 -28 16 -54q41 -67 153 -67q29 0 68 6q-25 -61 -67 -132q-87 -148 -184 -247q-128 -130 -226 -130q-71 0 -71 70q0 58 56 184t56 166
q0 22 -19 22q-20 0 -130 -109q-190 -188 -206 -203q-117 -109 -153 -109q-9 0 -9 12q0 47 175 360t175 350q0 11 -12 11q-46 0 -341 -190q-142 -91 -197 -125q-70 -45 -70 -67q0 -4 3 -7q0 7 272 176q277 173 302 162q5 -2 -84 -154q-120 -206 -171 -305q-93 -183 -93 -246
q0 -34 27 -34q47 0 169 110q70 63 206 203q104 107 111 103q4 -2 -19 -57q-33 -78 -48 -123q-28 -83 -28 -133q0 -103 102 -103q100 0 233 139q105 110 195 267q44 78 70 143q134 26 365 117q158 62 150 77zM1165 566q-141 0 -141 86q0 57 59 92q50 29 112 29q63 0 63 -76
q0 -54 -25 -124q-40 -7 -68 -7z" />
    <glyph glyph-name="X" unicode="X" horiz-adv-x="689" 
d="M689 691q-1 1 -3 1q-31 0 -344 -319q-25 55 -32 71q-40 84 -102 237q-50 123 -61 119q-3 -1 -3 -7q0 -31 59 -177q40 -99 81 -182q28 -59 37 -82l-29 -32q-164 -181 -281 -336q-147 -195 -147 -233q0 -7 5 -7q7 -2 81 101q107 150 169 231q120 158 204 242l10 10
q141 -327 152 -323q1 0 1 4q0 25 -132 339l242 235q101 98 93 108z" />
    <glyph glyph-name="Y" unicode="Y" horiz-adv-x="1119" 
d="M1116 569q0 10 -6 10q-2 0 -108 -140q-303 -401 -490 -401q-72 0 -72 68q0 78 71 206l133 240q71 128 71 165q0 22 -28 22q-53 0 -160 -53q-241 -119 -434 -343q-84 -97 -84 -126q0 -5 3 -6q5 -3 103 112q116 136 191 190q85 61 179 112q127 69 193 69q3 0 3 -4
q0 -12 -72 -129q-92 -148 -134 -233q-72 -144 -72 -223q0 -97 110 -97q181 0 447 337q89 113 91 111q9 -6 -86 -200q-64 -130 -126 -238q-164 -84 -238 -139q-121 -89 -121 -160q0 -56 96 -56q71 0 209 213q37 57 73 121q9 4 18 9q222 118 218 125q-1 1 -3 1q-24 0 -200 -88
l-8 -4q63 114 127 250q106 227 106 279zM813 -27q-25 -41 -48 -78q-125 -194 -187 -194q-65 0 -65 35q0 27 39 71q33 38 64 58q15 11 197 108z" />
    <glyph glyph-name="Z" unicode="Z" horiz-adv-x="1083" 
d="M1077 187q-6 4 -78 -53q-103 -82 -154 -114q-98 -62 -159 -62q-73 0 -156 54q-109 73 -151 101q-43 28 -83 43l1 1q165 154 253 244q200 205 200 247q0 6 -5 8q-18 11 -32 11q-6 0 -46 -24.5t-73 -24.5q-39 0 -74 31q-29 26 -62 57q-41 30 -88 30q-66 0 -113 -78
q-36 -60 -36 -100q0 -4 1 -5q6 -1 27 41q27 53 47 78q35 43 74 43q38 0 115 -61.5t85 -62.5q19 -3 51 5q36 8 51 8q5 0 6 -2q0 -27 -209 -239q-105 -107 -201 -199q-24 6 -46 7q-64 3 -136 -29q-86 -38 -86 -97q0 -25 26 -39q21 -12 48 -12q56 0 119 60q49 47 78 76
q63 -16 121 -57q53 -38 112 -83q71 -44 174 -53q62 -6 168 56q88 51 166 120q66 58 66 71q0 2 -1 3zM239 137l-30 -28q-35 -35 -48 -49q-37 -37 -73 -37q-16 0 -35 10.5t-19 25.5q0 23 46 50q36 21 65 28q16 4 43 4q26 0 51 -4z" />
    <glyph glyph-name="bracketleft" unicode="[" horiz-adv-x="633" 
d="M627 800q0 14 -166 -1q-125 -11 -193 -23q-18 -3 -97 -178q-59 -132 -87 -205q-82 -216 -82 -317q0 -68 40 -72q20 -2 40 -2q92 0 178 41q71 34 76 57q0 1 -5 1q-9 0 -22 -4q-77 -24 -106 -34q-67 -22 -103 -22q-9 0 -16 2q-51 15 -51 54q0 32 33 116l120 308
q83 212 124 227q32 12 89 17q47 4 93 8q135 13 135 27z" />
    <glyph glyph-name="backslash" unicode="\" horiz-adv-x="354" 
d="M353 -6q6 1 0 17q-8 21 -44 85q-111 196 -151 320q-58 183 -78 248q-41 128 -69 128q-2 0 -3 -3q-1 -4 2 -24q10 -67 54 -184q63 -167 68 -184q29 -93 92 -227q86 -181 129 -176z" />
    <glyph glyph-name="bracketright" unicode="]" horiz-adv-x="476" 
d="M456 723q0 70 -15 72q-47 6 -131 8q-60 2 -69 1q-30 -2 -30 -11q1 -9 21 -11q84 -5 127 -5q40 -2 55 -27q12 -19 12 -64q0 -87 -34 -242q-62 -284 -132 -360q-48 -52 -139 -52q-68 0 -110 11q16 -48 107 -48q45 0 105 10q68 11 129 177q36 97 64 227q40 186 40 314z" />
    <glyph glyph-name="asciicircum" unicode="^" horiz-adv-x="394" 
d="M387 624q0 9 -4 9l-25 -15q-26 -16 -42 -16q-66 0 -66 78q0 16 2 36q12 38 22 50q1 12 -5.5 18t-17.5 4q-246 -191 -246 -200q0 -15 15 -15q10 0 21 7l131 116l64 56q-11 -39 -11 -76q0 -96 80 -96q82 0 82 44z" />
    <glyph glyph-name="underscore" unicode="_" horiz-adv-x="454" 
d="M443 -3q-3 10 -37 8l-87 -4q-64 -3 -100 -1q-161 8 -154 9q-61 0 -64 -20q-4 -21 102 -23q96 -1 133 -1q51 -1 119 7q92 11 88 25z" />
    <glyph glyph-name="grave" unicode="`" horiz-adv-x="273" 
d="M266 600q0 4 -20 18q-98 68 -135 94.5t-48 44.5q-19 32 -35 40q-11 -8 -11 -22q0 -42 130 -134q69 -49 98 -49q21 0 21 8z" />
    <glyph glyph-name="a" unicode="a" horiz-adv-x="828" 
d="M806 166q-4 3 -54 -37q-71 -57 -108 -80q-70 -43 -120 -43q-26 0 -45 11q-50 29 -50 96q0 47 30 123q19 47 54 114q29 55 29 65q0 3 -1 4q-9 6 -105 -93q-128 -131 -196 -190q-121 -104 -184 -104q-52 0 -52 49q0 54 72 153q51 70 125 142q100 97 152 97q10 0 17 -6
q22 -20 22 -49q0 -36 -36 -92q-17 -26 -65 -82q-33 -38 -29 -43q3 -3 60 59t65 74q43 67 43 109q0 26 -17.5 41.5t-43.5 15.5q-63 0 -160 -82q-78 -66 -146 -160q-84 -116 -84 -192q0 -32 19 -51t51 -19q136 0 417 328q-68 -130 -68 -224q0 -83 58 -114q28 -15 60 -15
q108 0 238 127q53 52 53 65q0 2 -1 3z" />
    <glyph glyph-name="b" unicode="b" horiz-adv-x="885" 
d="M896 422q-1 4 -10 4q-48 0 -148 -27q-54 -15 -95 -21q4 20 4 39q0 67 -52 66q-35 -1 -60 -16q-30 -18 -30 -51q0 -35 32 -57q29 -20 65 -18q9 0 22 2q-14 -43 -48 -96q-49 -78 -107 -132q-85 -80 -155 -77q-36 2 -36 66q0 75 52 250l17 15q91 82 162 161q133 149 133 218
q0 24 -16.5 38t-40.5 14q-70 0 -154 -155q-38 -71 -119 -268q-1 -3 -3 -6q-55 -54 -174 -157q-138 -120 -134 -126q1 -1 3 -1q28 0 162 120l123 110q-42 -120 -42 -206q0 -110 75 -111q76 -1 158 83q61 62 109 151q32 60 47 110q45 7 127 27q135 32 133 51zM435 590
q95 175 150 175q23 0 23 -31q0 -52 -95 -153l-162 -168q29 76 84 177zM585 374q-53 2 -53 32q0 19 19 32q16 11 36 12q48 1 48 -49q0 -12 -3 -25q-27 -3 -47 -2z" />
    <glyph glyph-name="c" unicode="c" horiz-adv-x="573" 
d="M567 289q-3 1 -77 -63q-223 -194 -367 -194q-85 0 -85 120q0 88 40 171q26 54 80 100q61 51 114 51q30 0 30 -13q0 -8 -21 -39.5t-21 -35.5t5 -4q17 0 41 39.5t24 58.5q0 15 -16 16q-141 4 -233 -111q-81 -102 -81 -226q0 -67 29 -110q33 -49 97 -49q98 0 209 68
q92 55 173 142q60 64 60 77q0 1 -1 2z" />
    <glyph glyph-name="d" unicode="d" horiz-adv-x="790" 
d="M792 244q0 3 -1 4q-7 5 -65 -52q-81 -80 -122 -112q-79 -62 -130 -62q-58 0 -58 92q0 50 34 169q1 5 3 10q80 87 158 201q69 101 69 138q0 21 -22 21q-55 0 -134 -130q-53 -89 -88 -180q-9 -22 -16 -43q-185 -188 -188 -191q-80 -71 -146 -71q-52 0 -52 70q0 95 74 214
q78 126 155 126q19 0 19 -11q0 -24 -108 -120q-103 -91 -95 -97q1 -1 4 -1q17 0 89 60q59 50 86 80q58 63 58 93q0 25 -40 25q-94 0 -188 -146q-86 -134 -86 -236q0 -90 80 -90q72 0 196 111q32 28 125 125q-18 -71 -18 -129q0 -124 93 -124q45 0 124 58q43 32 108 94
q82 79 82 104zM532 504q54 110 100 110q4 0 4 -8q0 -30 -41 -96q-46 -73 -124 -158q29 87 61 152z" />
    <glyph glyph-name="e" unicode="e" horiz-adv-x="615" 
d="M612 283q-6 3 -39 -31q-100 -104 -170 -149q-102 -66 -213 -66q-76 0 -117 41.5t-41 117.5q0 18 2 37q15 9 37 25q79 58 185 158q57 54 57 78q0 26 -64 26q-103 0 -177 -118q-51 -82 -63 -166q-9 -11 -7 -14q1 -2 3 -2h2q-1 -16 -1 -32q0 -87 46 -136.5t133 -49.5
q101 0 220 75q103 64 179 159q29 36 29 44q0 2 -1 3zM92 389q67 110 156 110q30 0 30 -16q0 -32 -113 -121q-66 -51 -99 -76q-15 -12 -26 -21q13 61 52 124z" />
    <glyph glyph-name="f" unicode="f" horiz-adv-x="543" 
d="M539 709q0 81 -85 91q-92 11 -191 -137q-64 -95 -115 -226q-150 2 -151 -23q0 -9 38 -9q18 0 53 3t53 3q-75 -199 -179 -510q-122 -364 -122 -411q0 -6 2 -6q22 -3 84 186l144 440q48 146 111 304q13 1 75 1q46 0 74 4q62 9 90 62q-36 -16 -56 -29q-14 -9 -83 -12l-93 -3
q139 335 254 335q72 0 72 -58q0 -11 -5 -32t-5 -32q0 -5 3 -5q16 0 25 25q7 19 7 39z" />
    <glyph glyph-name="g" unicode="g" horiz-adv-x="615" 
d="M616 268q-6 5 -261 -232q18 46 30 79q56 135 78 182q31 70 31 97q0 6 -3 8q-5 2 -38 -53q-85 -141 -144 -207q-104 -117 -204 -117q-43 0 -64 44q-16 33 -16 82q0 113 71 207q83 110 216 110q45 0 44 -56q0 -18 -3 -37q1 -11 2 -14q28 2 28 62q0 67 -53 67
q-184 0 -274 -129q-61 -87 -61 -190q0 -23 4 -51q18 -130 98 -130q173 0 279 194l5 -2q-32 -94 -65 -183q-13 -12 -26 -25q-326 -305 -350 -352q-39 -74 -39 -171q0 -50 13 -86q19 -52 60 -52q99 0 210 277q106 272 162 420l2 2q152 135 197 173q81 73 71 83zM307 -24
q-50 -135 -105 -262q-153 -353 -228 -353q-42 0 -42 93q0 81 37 155q56 111 338 366v1z" />
    <glyph glyph-name="h" unicode="h" horiz-adv-x="854" 
d="M858 273q-2 2 -38 -35q-93 -97 -136 -132q-96 -77 -160 -74q-38 2 -38 44q0 45 52 167q63 147 63 178q0 23 -19 23q-62 2 -226 -190q-82 -95 -162 -204q159 419 212 534q26 20 61 49q41 33 117 110q120 121 120 178q0 21 -15.5 34t-37.5 13q-103 0 -272 -380l-6 -12
l-14 -12q-79 -66 -209 -187q-143 -134 -137 -145q4 -6 47 32q140 124 296 275l2 2q-94 -218 -124 -290q-80 -193 -80 -233q0 -8 3 -9q26 -14 35 -14q11 0 23 15q7 8 17 23l34 49q229 330 295 330q5 0 3 -7q-2 -8 -4 -12q-48 -114 -67 -157q-38 -90 -38 -161q0 -77 69 -77
q74 0 185 97q100 87 144 167q5 9 5 11zM426 623q166 333 228 322q19 -3 19 -21q0 -41 -100 -152q-75 -83 -148 -151z" />
    <glyph glyph-name="i" unicode="i" horiz-adv-x="526" 
d="M524 321q5 -3 -29 -52q-70 -101 -163 -176q-115 -93 -210 -93q-62 0 -62 74q0 114 129 351q-160 -173 -183 -173q-1 0 -2 1q-6 13 95 115q105 106 143 106l-1 -2q-1 -8 -101 -226q-51 -109 -51 -164q0 -45 37 -45q88 0 197 86q65 52 161 158q38 42 40 40zM307 608
q-1 -17 -7 -35q-6 -10 -13 -10q-28 6 -28 38q0 21 14 31t22.5 0t11.5 -24z" />
    <glyph glyph-name="j" unicode="j" horiz-adv-x="467" 
d="M468 388q-1 1 -27 -16q-75 -48 -197 -152q66 168 91 226q22 52 23 67v2q-22 -2 -109 -87q-85 -83 -89 -101q49 39 68 57q41 40 87 87q-61 -144 -115 -289q-149 -130 -262 -255q-260 -287 -260 -480q0 -125 117 -129q109 -4 260 388q117 314 169 458q108 98 151 136
q95 84 93 88zM178 123q-34 -94 -65 -187q-42 -125 -95 -253q-137 -331 -226 -331q-80 0 -80 97q0 51 24 121q74 215 439 550q2 1 3 3zM437 650q1 12 -5.5 20.5t-17.5 0.5q-5 -4 -5 -27q0 -32 17 -32q5 0 6 8q3 21 5 30z" />
    <glyph glyph-name="k" unicode="k" horiz-adv-x="819" 
d="M820 313q0 2 -1 3q-5 3 -35 -39q-86 -121 -127 -163q-89 -92 -172 -92q-59 0 -122 115q-46 84 -69 166q73 44 174 109q163 105 155 113q-10 5 -137 -72l-213 -131q9 62 54 222q111 102 191 211q57 78 57 120q0 45 -47 45q-58 0 -132 -132q-58 -103 -101 -238
q-103 -84 -169 -140q-149 -126 -141 -134q5 -6 143 105l98 79q45 36 53 39q-30 -121 -49 -203q-217 -134 -209 -150q1 -2 3 -2q17 0 193 111l-7 -19q-30 -75 -42 -104q-21 -52 -34 -106q-6 -25 0 -26q20 -2 124 286q16 -61 77 -157q82 -129 152 -129q107 0 235 154
q28 33 57 77q41 61 41 82zM543 870q0 -29 -38 -89q-61 -97 -169 -196q36 104 61 154q20 41 58 90q52 69 76 61q12 -4 12 -20z" />
    <glyph glyph-name="l" unicode="l" horiz-adv-x="402" 
d="M393 761q0 37 -41 37q-57 0 -123 -124q-60 -111 -103 -273q-6 -21 -11 -41l-93 -110q-21 -25 -23 -33q9 -6 105 101l1 1q-25 -116 -25 -206q0 -111 46 -111q52 0 153 137q84 115 84 140q0 1 -1 2q-3 2 -29 -33q-83 -110 -92 -123q-70 -85 -106 -85q-30 0 -30 87
q0 31 4 71q8 78 24 153q194 222 247 356q13 33 13 54zM257 672q58 103 88 103q22 0 19 -28q-6 -52 -112 -212q-39 -58 -104 -136l-4 -5q39 147 113 278z" />
    <glyph glyph-name="m" unicode="m" horiz-adv-x="1131" 
d="M1151 287q-4 3 -40 -38q-113 -128 -134 -148q-98 -96 -155 -96q-80 0 -80 70q0 47 38 132q30 66 42 91q32 68 32 90q0 13 -13 13q-47 0 -197 -175q-61 -72 -85 -99q-69 -78 -94 -78q-28 0 -28 31q0 16 6 33q25 71 55 134q58 123 58 161q0 29 -27 29q-64 0 -240 -194
q-78 -87 -101 -112q-80 -84 -113 -84q-19 0 -19 25q0 42 63 185q30 67 42 93q28 62 33 95q2 15 -3 15q-35 0 -115 -103q-69 -89 -69 -112q0 -2 4 -6q6 0 58 75q59 86 80 78q1 -1 1 -4q0 -18 -36 -99q-33 -74 -46 -102q-45 -105 -45 -155q0 -36 27 -36q64 0 168 119
q110 128 151 178q83 98 124 98q14 0 24 -10q3 -4 -26 -66q-88 -187 -88 -255q0 -54 46 -54q49 0 161 125q49 57 99 113q89 102 97 105q6 3 6 -4t-9 -28l-21 -48q-65 -149 -65 -212q0 -91 97 -91q67 0 213 157q126 135 126 160q0 3 -2 4z" />
    <glyph glyph-name="n" unicode="n" horiz-adv-x="836" 
d="M830 269q-2 2 -37 -32q-104 -104 -132 -127q-96 -81 -147 -81q-48 0 -48 73q0 64 41 196q15 50 18 59v12q0 2 -1 3l-3 1q-9 3 -11 4q-8 4 -62 -57q-75 -85 -97 -110q-34 -38 -46 -54q-56 -71 -61 -77q-46 -53 -69 -53q-20 0 -20 31q0 68 59 204q53 121 73 167q7 16 7 23
q0 8 -13 21q-7 7 -149 -135q-131 -131 -131 -155q0 -3 1 -4q2 -1 61 56q44 43 63 63q122 129 125 121q2 -3 -7 -24l-21 -52q-36 -89 -58 -153q-39 -113 -39 -170q0 -47 29 -47q34 0 73 42q55 61 73 83l175 207q-45 -162 -45 -205q0 -55 4 -63q15 -31 83 -34q69 -3 199 129
q114 115 114 135q0 2 -1 3z" />
    <glyph glyph-name="o" unicode="o" horiz-adv-x="507" 
d="M501 359q9 106 -101 106q-130 0 -205 -125q-37 -62 -43 -113q-1 -9 0 -10q2 0 5 9l11 25q82 187 233 187q65 0 65 -62q0 -74 -73 -180q-50 -73 -123 -115q-76 -44 -161 -44q-77 0 -77 78q0 97 71 204q68 105 157 150q11 6 53 23q34 14 32 17q-4 7 -44 -2
q-127 -27 -229 -194q-71 -115 -71 -209q0 -104 107 -104q159 0 290 151q94 109 103 208z" />
    <glyph glyph-name="p" unicode="p" horiz-adv-x="652" 
d="M656 464q0 53 -49 53q-133 0 -317 -173q42 127 42 163q0 11 -4 13q-2 1 -20 -46q-28 -71 -49 -131l-16 -45l-19 -20q-161 -169 -291 -373q-79 -124 -139 -249q-83 -174 -83 -272q0 -88 73 -88q69 0 201 271q66 137 144 337q91 234 141 379q185 193 311 193q44 0 44 -48
q0 -78 -110 -241q-100 -148 -154 -148q-34 0 -34 26q0 21 35 83q18 33 14 36q-3 4 -22 -17q-54 -61 -54 -121q0 -17 10.5 -34t26.5 -17q43 0 128 104q58 71 102 143q89 146 89 222zM218 228v-1q-310 -878 -440 -878q-36 0 -36 48q0 83 95 268q64 125 144 248
q114 177 237 315z" />
    <glyph glyph-name="q" unicode="q" horiz-adv-x="475" 
d="M473 391q0 21 -7 23q-3 1 -41 -56q-84 -125 -148 -195q-110 -120 -191 -120q-66 0 -66 80q0 107 92 238q97 139 197 139q38 0 38 -63q0 -61 -34 -138q-41 -92 -92 -92q-31 0 -45 24q-1 -6 -1 -12q0 -42 48 -42q65 0 112 103q40 86 40 160q0 90 -57 90q-126 0 -228 -150
q-93 -136 -93 -267q0 -114 85 -114q146 0 352 329l2 -1q-225 -568 -320 -856q-39 -119 -40 -147q0 -10 3 -10q23 0 121 113q71 83 121 150q36 49 31 51q-15 7 -229 -238q307 846 327 890q23 51 23 111z" />
    <glyph glyph-name="r" unicode="r" horiz-adv-x="711" 
d="M709 444q-1 1 -6 -1q-36 -20 -75 -44q-100 -61 -138 -77q-61 -25 -149 -25q-48 0 -65 7q-13 5 -4 36q15 45 22 67q12 39 12 68q0 37 -19 37q-38 0 -154 -119q-56 -58 -94 -105q-29 -37 -35 -47q9 -6 98 92l68 75q31 34 43 44q41 33 57 29q19 -5 7 -39q-32 -91 -53 -145
q-18 -45 -46 -91q-39 -64 -54 -88q-54 -89 -54 -110q0 -4 2 -5q14 -9 91 128l55 98q28 50 34 47q17 -4 86 -4q92 0 150 21q42 15 132 70.5t90 76.5q0 2 -1 4z" />
    <glyph glyph-name="s" unicode="s" horiz-adv-x="322" 
d="M280 176q0 39 -12 99q-15 75 -17 96q-3 25 7 57q15 51 16 55q4 23 -10 23q-53 0 -216 -229q-49 -69 -44 -76q5 -4 40 36q47 56 95 112q87 102 94 104q5 -2 5 -5q-8 -34 0 -123q11 -117 11 -131q5 -172 -102 -172q-60 0 -60 34q0 12 7 27q24 37 38 54q-22 -2 -41 -29.5
t-22 -52.5q-6 -55 56 -55q23 0 50 7q105 27 105 169z" />
    <glyph glyph-name="t" unicode="t" horiz-adv-x="470" 
d="M469 776q0 24 -24 24q-49 0 -119 -130q-42 -80 -78 -175l-23 -2q-48 -4 -177 -31q128 3 174 9q-120 -107 -151 -135q-71 -65 -66 -70q2 -2 110 88q103 86 119 100q-88 -265 -88 -410q0 -44 13 -44q66 0 250 232q33 42 32 43q-6 -4 -37 -33l-84 -80q-125 -119 -143 -117
q-9 1 -4 44q19 152 97 389q104 16 119 23q-4 1 -17 1q-27 0 -93 -5q56 55 113 130q77 101 77 149zM440 740q-17 -39 -70 -108q-51 -63 -82 -100q21 56 63 135q56 106 85 104q17 -1 4 -31z" />
    <glyph glyph-name="u" unicode="u" horiz-adv-x="804" 
d="M793 260q-11 -6 -38 -32l-85 -80q-128 -119 -164 -119q-23 0 -23 25q0 34 68 170q65 130 65 165q0 22 -19 23q-55 3 -204 -182q-73 -90 -108 -128q-78 -84 -117 -85q-23 -1 -23 27q0 45 82 220q87 186 90 221q1 16 -8 16q-54 0 -152 -88q-75 -67 -130 -139
q-15 -20 -20 -27q82 80 111 108q122 120 152 120q18 0 13 -27q-7 -38 -44 -115q-28 -57 -57 -114q-67 -140 -67 -201q0 -44 39 -44q60 0 222 197q99 120 114 137q57 63 83 63q14 0 9 -21q-8 -33 -38 -87q-24 -43 -48 -85q-44 -84 -44 -132q0 -50 56 -50q34 0 132 93
q82 78 124 132q18 24 29 39zM794 261v1l-1 -2z" />
    <glyph glyph-name="v" unicode="v" horiz-adv-x="819" 
d="M834 484q0 3 -165 -2q-80 -3 -115 -4q7 21 7 36q0 32 -35 36q-29 3 -52 -11q-26 -16 -26 -44q0 -45 70 -42q-31 -64 -156 -217q-164 -200 -211 -200q-15 0 -15 23q0 37 65 192q72 172 72 211q0 21 -15 21q-58 0 -210 -162q-44 -46 -37 -50q5 -4 31 21q66 64 92 89
q66 63 93 64q7 0 9 -6.5t1 -14.5q-5 -35 -32 -102q-21 -51 -43 -102q-59 -144 -59 -193q0 -27 18 -27q95 0 289 251q101 131 134 204q290 18 290 29zM527 478q-32 0 -35 4q-8 9 -8 18q0 17 18 22q17 5 23 -8.5t4 -30.5l-1 -5h-1z" />
    <glyph glyph-name="w" unicode="w" horiz-adv-x="1023" 
d="M1021 437q0 1 -2 2q-3 0 -62 -30q-66 -34 -72 -37q-124 -57 -227 -64q46 110 46 167q0 37 -21 37q-49 0 -104.5 -60t-55.5 -110q0 -61 102 -63q-31 -67 -71 -131q-69 -110 -110 -110q-20 0 -24 35q-3 21 0 76q5 109 -20 114q-21 4 -57 -36q-83 -94 -115 -131
q-83 -94 -116 -94q-17 0 -16 24q2 49 87 228q57 121 78.5 172.5t21.5 70.5q0 8 -4 9q-32 9 -169 -134q-105 -110 -113 -135q13 6 70 61q50 48 61 58q61 59 79 76q38 35 43 31q3 -3 -9 -27q-81 -167 -110 -226q-62 -132 -62 -198q0 -42 32 -42q59 0 163 126q43 53 59 73
q46 56 66 56q9 0 6 -37l-6 -76q-1 -13 -1 -25q0 -82 47 -82q49 0 124 114q47 72 86 160q101 3 229 60q39 17 88 46q66 39 59 52zM627 307q-24 0 -37 1q-41 3 -41 37t43 88t76 54q17 0 17 -26q0 -46 -47 -154h-11zM-5 237l1 -1l1 1h-2z" />
    <glyph glyph-name="x" unicode="x" horiz-adv-x="475" 
d="M486 471q-2 2 -5 2q-28 0 -119 -67q-68 -50 -113 -89q-35 62 -92 131.5t-69 61.5q-1 -1 -2 -3q0 -8 53 -79q61 -81 88 -131q-24 -23 -32 -31q-53 -54 -143 -197q-99 -158 -99 -211q0 -11 7 -11q6 0 111 176q116 195 169 248q25 -56 51 -179q21 -99 31 -96q7 2 7 29
q0 46 -17 120q-22 95 -45 137l-5 9q45 40 157 120q74 53 67 60z" />
    <glyph glyph-name="y" unicode="y" horiz-adv-x="816" 
d="M819 330q-2 2 -20 -13q-56 -47 -110 -101l-234 -241l1 1q123 318 159 462q14 58 7 59q-16 3 -90 -66q-169 -158 -233 -219q-177 -165 -217 -165q-15 0 -15 20q0 44 80 205q37 73 52 101q31 61 41 105q4 19 -3 19q-11 1 -111 -81q-167 -137 -159 -145q2 -2 5 -2
q21 0 108 73q106 89 110 89q8 0 5 -8q-1 -6 -11 -25q-143 -269 -143 -359q0 -39 29 -37q46 2 285 222q124 114 234 223q-96 -280 -200 -540l-215 -223q-86 -89 -156 -201q-88 -141 -88 -237q0 -86 75 -86q79 0 248 347q89 184 176 402q135 132 196 188q195 189 195 229
q0 2 -1 4zM326 -250q-232 -558 -323 -558q-43 0 -43 52q0 83 83 223q69 116 142 192l180 186q-20 -48 -39 -95z" />
    <glyph glyph-name="z" unicode="z" horiz-adv-x="790" 
d="M797 165q-1 2 -2 2q-3 4 -33 -22q-91 -78 -144 -110q-87 -53 -170 -53q-86 0 -161 37q-41 22 -60 32q-21 11 -38 19l6 7l119 155q81 106 126 143q31 25 43 35q25 22 25 36q0 12 -13 11q-5 0 -12 -2q-57 -17 -78 -17q-32 0 -83 28q-55 29 -81 32q-72 7 -168 -100
q-32 -36 -31 -42l1 -1q15 11 24 20q77 78 109 86q43 11 67 11q10 0 17 -2q34 -18 51 -31q54 -34 74 -34q5 0 15.5 2.5t15.5 2.5q7 0 7 -4q0 -5 -8 -13l-36 -36q-76 -97 -143 -173q-55 -62 -93 -98q-12 3 -22 3q-35 0 -72 -22q-40 -24 -46 -56q-2 -10 17 -12q20 -2 53 6
q61 15 98 47q11 -6 28 -18q119 -85 250 -85q117 0 247 105q21 17 56 52q45 45 45 59zM118 64q-32 -26 -47 -27q-9 -2 -9 5q0 6 22 14q18 6 34 8z" />
    <glyph glyph-name="braceleft" unicode="{" horiz-adv-x="354" 
d="M344 782q0 11 -7 18q-18 18 -50 18q-46 0 -76 -48q-211 -341 -211 -391q0 -6 4 -6q13 -2 27 8.5t23 10.5t21 -3q40 -10 40 -24q0 -10 -17 -60q-32 -91 -44 -125q-32 -91 -32 -139q0 -41 27 -41q8 0 89 39.5t77 44.5q-2 2 -5 2q-9 0 -65 -29.5t-75 -29.5q-24 0 -24 45
q0 50 69 233q19 50 19 75q0 42 -91 38q6 22 20 56q34 79 115 206q39 61 48 72q38 47 69 44q24 -2 28 -9q2 -2 2 -17q0 -5 -7.5 -14.5t-7.5 -11.5q0 -3 5 -3q11 0 20 14.5t9 26.5z" />
    <glyph glyph-name="bar" unicode="|" horiz-adv-x="135" 
d="M89 480q0 111 -6 201q-8 118 -19 114t-9 -131q2 -175 -2 -266q-10 -216 -14 -291q-2 -87 17 -94q21 -8 26 178l6 235q1 38 1 54z" />
    <glyph glyph-name="braceright" unicode="}" horiz-adv-x="432" 
d="M432 763q0 -76 -82 -205q-50 -79 -50 -92q0 -6 20 -9q8 -1 36 15.5t34 16.5q7 0 8 -9q1 -5 -34 -43q-36 -42 -41 -54q-14 -38 -51 -135q-94 -245 -175 -248q-33 -1 -60 5q-43 10 -43 34q0 15 11 15l24 -15q24 -15 45 -15q18 0 35 7q38 15 85 113q31 64 55 138
q32 100 62 143q-40 -3 -40 26q0 21 33 79q22 38 45 77t41 83l15 36q7 17 7 26q0 35 -52 35q-5 0 -15 -1h-15q-19 0 -19 10q0 20 46 20q75 0 75 -53z" />
    <glyph glyph-name="asciitilde" unicode="~" horiz-adv-x="357" 
d="M350 397q0 4 -4 4q1 0 -34 -30.5t-52 -30.5q-14 0 -38 20q-40 33 -52 40q-36 21 -81 23q-79 4 -79 -64q0 -28 8 -28q11 0 13 18q3 24 9 32q13 18 51 18q46 0 76 -21q40 -37 43 -40q26 -20 54 -20q17 0 51.5 31t34.5 48z" />
    <glyph glyph-name="DEL" horiz-adv-x="440" 
 />
    <glyph glyph-name="Euro" horiz-adv-x="796" 
d="M653 513q10 0 28 12t42 37q23 24 34 52t11 63q0 27 -10.5 48t-33.5 39q-21 15 -52 24.5t-68 9.5q-57 0 -116 -25.5t-126 -76.5q-58 -45 -112.5 -103t-83.5 -109l-34 -60q-42 -4 -65.5 -10.5t-23.5 -12.5t16 -9t57 -2q-8 -17 -14 -35t-11 -36q-47 0 -66.5 -5t-19.5 -13
q0 -6 5.5 -10t18.5 -5q24 -3 33 -4t20 -1q-4 -20 -6 -41t-2 -38q0 -54 18.5 -96t57.5 -68q28 -20 72 -30t100 -10q48 0 91 8t99 28q36 12 63.5 25t67.5 38q34 21 53.5 39t19.5 31q0 2 -2 3.5t-3 2.5q-4 -1 -32 -20.5t-69 -39.5q-27 -13 -54.5 -24.5t-54.5 -19.5
q-51 -17 -95.5 -24t-84.5 -7q-38 0 -69 6t-52 17q-40 19 -61.5 55.5t-21.5 88.5q0 16 2 35.5t7 39.5q75 -2 141 -1t109 6q47 4 69.5 10t23.5 13q0 6 -21 9.5t-55 3.5q-13 0 -25.5 -0.5t-59.5 -2.5q-45 -3 -89 -3q-43 0 -85 3q5 19 11.5 37t14.5 36q31 4 40.5 3t68.5 9
q41 6 127 16t117 19q32 9 37 12t5 7q0 3 -6 5t-24 2q-20 0 -63.5 -5t-95.5 -12q-30 -5 -56.5 -8t-49.5 -4q-12 -1 -35 -3t-34 -2q-3 -1 -6 -1h-7l7 13q28 53 76.5 109.5t102.5 101.5q63 53 122 82t116 29q24 0 46 -5t39 -14q21 -13 32.5 -30.5t11.5 -39.5q0 -20 -3 -34
t-10 -29q-8 -16 -17.5 -30t-24.5 -31q-31 -35 -31 -34q0 -2 1.5 -3t6.5 -1z" />
    <glyph glyph-name="Euro" unicode="&#x20ac;" horiz-adv-x="796" 
d="M653 513q10 0 28 12t42 37q23 24 34 52t11 63q0 27 -10.5 48t-33.5 39q-21 15 -52 24.5t-68 9.5q-57 0 -116 -25.5t-126 -76.5q-58 -45 -112.5 -103t-83.5 -109l-34 -60q-42 -4 -65.5 -10.5t-23.5 -12.5t16 -9t57 -2q-8 -17 -14 -35t-11 -36q-47 0 -66.5 -5t-19.5 -13
q0 -6 5.5 -10t18.5 -5q24 -3 33 -4t20 -1q-4 -20 -6 -41t-2 -38q0 -54 18.5 -96t57.5 -68q28 -20 72 -30t100 -10q48 0 91 8t99 28q36 12 63.5 25t67.5 38q34 21 53.5 39t19.5 31q0 2 -2 3.5t-3 2.5q-4 -1 -32 -20.5t-69 -39.5q-27 -13 -54.5 -24.5t-54.5 -19.5
q-51 -17 -95.5 -24t-84.5 -7q-38 0 -69 6t-52 17q-40 19 -61.5 55.5t-21.5 88.5q0 16 2 35.5t7 39.5q75 -2 141 -1t109 6q47 4 69.5 10t23.5 13q0 6 -21 9.5t-55 3.5q-13 0 -25.5 -0.5t-59.5 -2.5q-45 -3 -89 -3q-43 0 -85 3q5 19 11.5 37t14.5 36q31 4 40.5 3t68.5 9
q41 6 127 16t117 19q32 9 37 12t5 7q0 3 -6 5t-24 2q-20 0 -63.5 -5t-95.5 -12q-30 -5 -56.5 -8t-49.5 -4q-12 -1 -35 -3t-34 -2q-3 -1 -6 -1h-7l7 13q28 53 76.5 109.5t102.5 101.5q63 53 122 82t116 29q24 0 46 -5t39 -14q21 -13 32.5 -30.5t11.5 -39.5q0 -20 -3 -34
t-10 -29q-8 -16 -17.5 -30t-24.5 -31q-31 -35 -31 -34q0 -2 1.5 -3t6.5 -1z" />
    <glyph glyph-name="Zcaron" horiz-adv-x="1084" 
d="M222 553q5 3 7.5 6t5 7.5t5.5 11t9 16.5q8 14 19.5 35.5t27.5 42.5q15 20 35 31.5t37 11.5q14 0 30 -6t31.5 -15.5t29.5 -20.5t26 -20l51 -40q11 -8 21.5 -15.5t22.5 -7.5q6 0 15 1t26 5q15 3 26 5.5t25 2.5q6 0 6 -4q0 -8 -14 -27t-35 -43.5t-46.5 -51.5t-48.5 -50.5
t-41 -41t-24 -23.5q-48 -48 -79 -79.5t-53 -53t-37.5 -36t-32.5 -29.5q-59 12 -104 1.5t-77 -24.5q-30 -13 -47.5 -27.5t-26 -27.5t-10.5 -24t-2 -18q0 -18 9 -26.5t17 -12.5q15 -8 26 -10t22 -2q21 0 50.5 11t68.5 49l78 77q37 -11 66 -25.5t63 -37.5q25 -17 36.5 -26.5
t20 -16.5t17.5 -14.5t30 -20.5q18 -11 41.5 -21t48.5 -17t49 -11t42 -4q38 0 76 14.5t85 41.5q18 10 36 21.5t38 25.5t42.5 32t49.5 41q4 3 15 13.5t22.5 22t20.5 21.5t9 14q0 3 -4 3q-6 0 -21.5 -11.5t-54.5 -41.5q-22 -17 -40 -31t-35 -27.5t-36 -27t-43 -28.5
q-14 -9 -32.5 -20t-39 -20t-43 -15.5t-44.5 -6.5q-24 0 -47.5 6t-44.5 14.5t-37.5 18t-26.5 15.5q-44 27 -74 48t-53.5 37t-42 28t-38.5 20l-26 11q101 94 161.5 153t92.5 92q8 8 26.5 27t40.5 43.5t45.5 51.5t43 51.5t32 44t12.5 29.5q0 6 -13.5 12.5t-23.5 6.5
q-5 0 -14 -5.5t-32 -19.5q-12 -7 -31 -15.5t-42 -8.5q-26 0 -44.5 10.5t-29.5 20.5q-27 23 -41.5 37.5t-31.5 26.5q-19 13 -36 18t-34 5q-44 0 -71 -21.5t-49 -56.5q-6 -9 -13 -22.5t-12.5 -28t-8.5 -28.5t-1 -26zM400 1049q0 -6 5 -8l28 18q18 12 32 16t24 4q14 0 30 -5
t27 -15q16 -14 20 -33.5t4 -40.5q0 -8 -1 -22t-3 -23q-2 -14 -8.5 -30t-14.5 -30q-1 -10 4 -20t16 -5l148 115q40 31 73 59t69 59l3 3q2 2 2 7q0 4 -3 9.5t-15 5.5q-13 0 -16.5 -4t-8.5 -9l-234 -207q10 43 12 67.5t2 29.5q0 29 -8.5 53.5t-33.5 41.5q-17 12 -30 13.5
t-30 1.5q-20 0 -43 -3.5t-42 -26.5q-5 -7 -6.5 -11t-1.5 -10zM238 137l-29 -28l-48 -49q-10 -10 -29 -23.5t-44 -13.5q-26 0 -40 12.5t-14 23.5q0 17 16.5 29.5t29.5 20.5t22 12.5t25 9.5q14 4 39.5 8.5t71.5 -2.5z" />
    <glyph glyph-name="Zcaron" unicode="&#x17d;" horiz-adv-x="1084" 
d="M222 553q5 3 7.5 6t5 7.5t5.5 11t9 16.5q8 14 19.5 35.5t27.5 42.5q15 20 35 31.5t37 11.5q14 0 30 -6t31.5 -15.5t29.5 -20.5t26 -20l51 -40q11 -8 21.5 -15.5t22.5 -7.5q6 0 15 1t26 5q15 3 26 5.5t25 2.5q6 0 6 -4q0 -8 -14 -27t-35 -43.5t-46.5 -51.5t-48.5 -50.5
t-41 -41t-24 -23.5q-48 -48 -79 -79.5t-53 -53t-37.5 -36t-32.5 -29.5q-59 12 -104 1.5t-77 -24.5q-30 -13 -47.5 -27.5t-26 -27.5t-10.5 -24t-2 -18q0 -18 9 -26.5t17 -12.5q15 -8 26 -10t22 -2q21 0 50.5 11t68.5 49l78 77q37 -11 66 -25.5t63 -37.5q25 -17 36.5 -26.5
t20 -16.5t17.5 -14.5t30 -20.5q18 -11 41.5 -21t48.5 -17t49 -11t42 -4q38 0 76 14.5t85 41.5q18 10 36 21.5t38 25.5t42.5 32t49.5 41q4 3 15 13.5t22.5 22t20.5 21.5t9 14q0 3 -4 3q-6 0 -21.5 -11.5t-54.5 -41.5q-22 -17 -40 -31t-35 -27.5t-36 -27t-43 -28.5
q-14 -9 -32.5 -20t-39 -20t-43 -15.5t-44.5 -6.5q-24 0 -47.5 6t-44.5 14.5t-37.5 18t-26.5 15.5q-44 27 -74 48t-53.5 37t-42 28t-38.5 20l-26 11q101 94 161.5 153t92.5 92q8 8 26.5 27t40.5 43.5t45.5 51.5t43 51.5t32 44t12.5 29.5q0 6 -13.5 12.5t-23.5 6.5
q-5 0 -14 -5.5t-32 -19.5q-12 -7 -31 -15.5t-42 -8.5q-26 0 -44.5 10.5t-29.5 20.5q-27 23 -41.5 37.5t-31.5 26.5q-19 13 -36 18t-34 5q-44 0 -71 -21.5t-49 -56.5q-6 -9 -13 -22.5t-12.5 -28t-8.5 -28.5t-1 -26zM400 1049q0 -6 5 -8l28 18q18 12 32 16t24 4q14 0 30 -5
t27 -15q16 -14 20 -33.5t4 -40.5q0 -8 -1 -22t-3 -23q-2 -14 -8.5 -30t-14.5 -30q-1 -10 4 -20t16 -5l148 115q40 31 73 59t69 59l3 3q2 2 2 7q0 4 -3 9.5t-15 5.5q-13 0 -16.5 -4t-8.5 -9l-234 -207q10 43 12 67.5t2 29.5q0 29 -8.5 53.5t-33.5 41.5q-17 12 -30 13.5
t-30 1.5q-20 0 -43 -3.5t-42 -26.5q-5 -7 -6.5 -11t-1.5 -10zM238 137l-29 -28l-48 -49q-10 -10 -29 -23.5t-44 -13.5q-26 0 -40 12.5t-14 23.5q0 17 16.5 29.5t29.5 20.5t22 12.5t25 9.5q14 4 39.5 8.5t71.5 -2.5z" />
    <glyph glyph-name="zcaron" horiz-adv-x="789" 
d="M41 355q10 6 15 11l9 9q28 28 47 44.5t32 25.5t20 12t10 4q5 1 13.5 3t18 4t19 3t16.5 1q8 0 13.5 -1t12.5 -4.5t16.5 -10t25.5 -16.5q7 -5 16.5 -11t19.5 -11t20 -9t18 -4q4 0 8 1l8 2q4 1 7.5 1.5t8.5 0.5q2 0 4 -1t2 -4q0 -4 -8 -12q-15 -14 -27 -26t-21.5 -24
t-19 -24.5t-20.5 -26.5q-14 -18 -25.5 -32.5t-22.5 -26.5l-21 -24q-10 -12 -22 -25q-35 -39 -56 -60.5t-37 -37.5q-8 2 -32.5 2.5t-61.5 -21.5q-16 -9 -31 -26t-15 -31q0 -11 21 -11q23 0 49 6q38 8 61.5 22t37.5 25q31 -21 55.5 -36.5t56.5 -30.5q38 -17 76.5 -26.5
t83.5 -9.5q48 0 85 11.5t76 32.5q51 28 85 57t62 56q1 1 8 8.5t15.5 16.5t15 18t6.5 14q0 4 -4 4q-2 0 -8 -4t-23 -18q-23 -20 -60 -51t-84 -59q-54 -32 -97.5 -42.5t-75.5 -10.5q-26 0 -67.5 7t-90.5 30l-60 32q-19 10 -38 19l6 7l119 155q22 28 44.5 56.5t51.5 58.5
q19 20 34 32.5t25.5 20.5t17.5 13.5t12 11.5q3 4 6 10t3 11q0 8 -4.5 9.5t-6.5 1.5q-10 0 -22 -4t-32 -9q-14 -4 -24 -5t-16 -1q-20 0 -37 7t-44 21q-32 16 -52.5 24.5t-37.5 8.5q-33 0 -76.5 -28t-82.5 -73q-20 -23 -25.5 -29t-4.5 -14zM203 735q0 -5 4 -6l25 15
q14 8 23 12t21 4t24 -4t20 -12q14 -13 17 -31t3 -31q0 -7 -0.5 -19t-1.5 -17q-2 -11 -9.5 -26.5t-12.5 -23.5q-2 -11 5.5 -18.5t17.5 -3.5l123 96q11 9 27 22t33 27t33 27t26 22q4 4 4 8q0 5 -3.5 9t-11.5 4q-5 0 -11 -2t-10 -5l-195 -172q8 28 9.5 45.5t1.5 30.5
q0 19 -5 43.5t-29 40.5q-13 9 -26 10.5t-24 1.5q-13 0 -35.5 -3.5t-35.5 -20.5q-7 -9 -7 -23zM116 64q-8 -7 -22.5 -17t-28.5 -10q-5 0 -5 5q0 6 12 11.5t44 10.5z" />
    <glyph glyph-name="zcaron" unicode="&#x17e;" horiz-adv-x="789" 
d="M41 355q10 6 15 11l9 9q28 28 47 44.5t32 25.5t20 12t10 4q5 1 13.5 3t18 4t19 3t16.5 1q8 0 13.5 -1t12.5 -4.5t16.5 -10t25.5 -16.5q7 -5 16.5 -11t19.5 -11t20 -9t18 -4q4 0 8 1l8 2q4 1 7.5 1.5t8.5 0.5q2 0 4 -1t2 -4q0 -4 -8 -12q-15 -14 -27 -26t-21.5 -24
t-19 -24.5t-20.5 -26.5q-14 -18 -25.5 -32.5t-22.5 -26.5l-21 -24q-10 -12 -22 -25q-35 -39 -56 -60.5t-37 -37.5q-8 2 -32.5 2.5t-61.5 -21.5q-16 -9 -31 -26t-15 -31q0 -11 21 -11q23 0 49 6q38 8 61.5 22t37.5 25q31 -21 55.5 -36.5t56.5 -30.5q38 -17 76.5 -26.5
t83.5 -9.5q48 0 85 11.5t76 32.5q51 28 85 57t62 56q1 1 8 8.5t15.5 16.5t15 18t6.5 14q0 4 -4 4q-2 0 -8 -4t-23 -18q-23 -20 -60 -51t-84 -59q-54 -32 -97.5 -42.5t-75.5 -10.5q-26 0 -67.5 7t-90.5 30l-60 32q-19 10 -38 19l6 7l119 155q22 28 44.5 56.5t51.5 58.5
q19 20 34 32.5t25.5 20.5t17.5 13.5t12 11.5q3 4 6 10t3 11q0 8 -4.5 9.5t-6.5 1.5q-10 0 -22 -4t-32 -9q-14 -4 -24 -5t-16 -1q-20 0 -37 7t-44 21q-32 16 -52.5 24.5t-37.5 8.5q-33 0 -76.5 -28t-82.5 -73q-20 -23 -25.5 -29t-4.5 -14zM203 735q0 -5 4 -6l25 15
q14 8 23 12t21 4t24 -4t20 -12q14 -13 17 -31t3 -31q0 -7 -0.5 -19t-1.5 -17q-2 -11 -9.5 -26.5t-12.5 -23.5q-2 -11 5.5 -18.5t17.5 -3.5l123 96q11 9 27 22t33 27t33 27t26 22q4 4 4 8q0 5 -3.5 9t-11.5 4q-5 0 -11 -2t-10 -5l-195 -172q8 28 9.5 45.5t1.5 30.5
q0 19 -5 43.5t-29 40.5q-13 9 -26 10.5t-24 1.5q-13 0 -35.5 -3.5t-35.5 -20.5q-7 -9 -7 -23zM116 64q-8 -7 -22.5 -17t-28.5 -10q-5 0 -5 5q0 6 12 11.5t44 10.5z" />
    <glyph glyph-name="nonbreakingspace" unicode="&#xa0;" horiz-adv-x="409" 
 />
    <glyph glyph-name="exclamdown" unicode="&#xa1;" horiz-adv-x="354" 
d="M294 560q4 23 -5 23q-25 0 -61 -94q-49 -132 -66 -179q-21 -60 -64 -131q-11 -18 -51 -79q-34 -52 -47 -81q-7 -16 3 -17q31 -4 94 98q42 67 95 194l56 133q38 91 46 133zM341 769q0 5 -3 10q-19 34 -33 34q-10 0 -22 -19q-6 -9 -6 -18q0 -19 27 -28q37 4 37 21z" />
    <glyph glyph-name="cent" unicode="&#xa2;" horiz-adv-x="573" 
d="M217 481q0 68 -2 128q32 16 62 16t30 -13q0 -8 -21 -39.5t-21 -35.5t5 -4q17 0 41 39.5t24 58.5q0 16 -16 16q-57 1 -105 -16q-2 26 -3 51q-8 118 -19 114t-9 -131v-47q-54 -28 -97 -82q-81 -102 -81 -226q0 -66 29 -109q34 -50 97 -50q19 0 38 2q-1 -27 -2 -45
q-2 -86 17 -94t25 147q63 16 131 58q92 55 173 142q60 64 60 77q0 1 -1 2q-3 1 -77 -63q-164 -143 -285 -181l6 231q1 38 1 54zM183 590q1 -121 -2 -190q-6 -134 -10 -213q-23 -4 -43 -4q-85 0 -85 120q0 88 40 171q26 54 80 100z" />
    <glyph glyph-name="sterling" unicode="&#xa3;" horiz-adv-x="1153" 
d="M47 246q-6 -6 -14 -17t-15.5 -25.5t-12.5 -32t-5 -38.5q0 -19 5 -38.5t19 -36.5q17 -20 38 -25t29 -5q18 0 34.5 6.5t30.5 16.5t26 22t21 23q23 27 44 59.5t38 64.5q13 -8 21 -13.5t21 -14.5q31 -23 66 -46.5t67 -41.5q84 -48 170 -75.5t179 -27.5q30 0 72 7t100 31
q31 13 54.5 26.5t46.5 29.5q35 24 50.5 36t18.5 26v4q-2 4 -6 4t-13 -8t-38 -28q-22 -15 -50.5 -32t-64.5 -31.5t-79 -24t-93 -9.5q-42 0 -89 9.5t-93.5 25.5t-90.5 37t-80 44q-21 13 -34 22t-24 17.5t-24.5 18.5t-35.5 24l-34 22l107 195q33 3 56 4t42 2t36.5 1.5t39.5 1.5
q17 1 40.5 2t45 3.5t36.5 5t15 6.5q0 3 -4.5 6t-16.5 5t-33 3.5t-54 1.5q-26 0 -54.5 -2.5t-70.5 -5.5l-61 -4l50 92q12 22 31.5 54t45.5 62t57.5 51.5t66.5 21.5q30 0 39.5 -12.5t12.5 -24.5q2 -7 5 -20.5t10 -13.5q4 0 7.5 8t3.5 22q0 21 -4.5 34.5t-6.5 17.5q-2 3 -5.5 8
t-11 10t-18.5 9t-27 4q-23 0 -49 -8t-54.5 -29.5t-59.5 -58.5t-62 -95l-73 -134q-50 -3 -104 -6.5t-95 -11.5q-36 -7 -59 -17t-46 -23q-9 -5 -22 -12.5t-25 -16t-20.5 -17t-8.5 -15.5q0 -4 2 -5.5t4 -1.5q4 0 8 6t15 12q3 2 9 5.5t12.5 7.5t12.5 7t9 5q8 4 20 9.5t24.5 11
t25 10t21.5 6.5q6 1 16 3t31.5 4t57.5 4t93 4q-6 -14 -12.5 -27t-16.5 -32t-25 -47t-38 -70q-26 15 -53 22.5t-50 7.5q-45 0 -76 -17.5t-47 -34.5zM256 238q-17 -28 -35.5 -59t-40 -56.5t-46 -42t-52.5 -16.5q-20 0 -37 12t-17 41q0 26 14 53t31 47q6 7 15.5 16t22 17.5
t27.5 14.5t31 6q23 0 43.5 -9.5t43.5 -23.5z" />
    <glyph glyph-name="currency" unicode="&#xa4;" horiz-adv-x="241" 
d="M237 727q0 24 -24 46q-32 29 -66 29q-54 0 -95 -42.5t-46 -96.5q-4 -42 -4 -38q0 -29 29 -29q35 0 112 37q94 45 94 94zM215 717q0 -11 -33 -40q-22 -19 -65 -39q-47 -22 -72 -22q-21 0 -18 18l4 62q8 33 56 61q39 23 69 23q24 0 41.5 -19.5t17.5 -43.5z" />
    <glyph glyph-name="yen" unicode="&#xa5;" horiz-adv-x="950" 
d="M937 669q0 3 -1.5 8t-10.5 5q-12 0 -20.5 -13t-13.5 -23q-1 -2 -15.5 -25.5t-52.5 -71.5t-79 -89l-73 -73q-52 -52 -90.5 -87.5t-66 -57.5t-47 -32t-32.5 -10q-11 0 -23 8t-12 38q0 9 2 21t7.5 31t15 46.5t24.5 67.5q16 42 28.5 73t23.5 57t21.5 49t21.5 49
q15 35 19.5 51.5t4.5 25.5q0 7 -4 14.5t-22 7.5q-15 0 -33.5 -5t-38 -13t-38.5 -17t-34 -18q-32 -17 -70.5 -42t-76 -51t-70 -51.5t-52.5 -44.5q-15 -14 -36 -36t-39.5 -45.5t-31.5 -45t-13 -34.5q0 -5 3 -9t6 -4q9 0 17 13.5t26 39t50 60.5t88 79q16 12 37.5 27.5t44 31
t43.5 29t36 22.5q7 4 27.5 15.5t44.5 23.5t46.5 21t34.5 9t13.5 -4.5t1.5 -10.5q0 -8 -3 -15.5t-9.5 -20t-16.5 -32t-25 -50.5q-8 -17 -13 -27.5t-8.5 -18.5t-6 -15t-6.5 -16q-5 -14 -8 -21t-5 -11.5t-4 -9.5t-6 -14q-8 -18 -16.5 -42t-16 -49.5t-12.5 -49.5t-5 -42
q0 -14 2.5 -27.5t8.5 -24t16.5 -17t27.5 -6.5q18 0 39.5 8.5t50.5 27.5t65.5 50.5t84.5 76.5q42 40 68 66t43 44t28.5 31.5t23.5 27.5q14 16 26 28t30 28q-4 -16 -8.5 -28.5t-12.5 -30.5t-22 -44.5t-36 -70.5q-29 -61 -65 -130t-80 -140q-43 -8 -75.5 -11.5t-64.5 -5.5
q-24 -2 -52 -5t-52 -6.5t-40 -8.5t-16 -11q0 -4 7 -6t16.5 -3t20 -1.5t18.5 -0.5q48 0 81 3.5t62 8.5l74 11l-75 -116q-30 -2 -48.5 -1.5t-35.5 1t-36.5 1.5t-50.5 1q-8 0 -19.5 -0.5t-22.5 -2.5t-18.5 -5t-7.5 -9q0 -8 13 -12.5t33.5 -7t45.5 -3.5t49 -1t44 0.5t30 0.5
l-78 -122q-23 -35 -36 -56.5t-19.5 -34t-8 -19.5t0.5 -13q7 3 20.5 19t30 39t35.5 50t36 53.5t31 48.5t22 35q5 0 17.5 1t26.5 2t26.5 2t17.5 1q4 0 18 2t29 5t26.5 6.5t11.5 8.5t-14 9.5t-58 4.5q-9 0 -25.5 -0.5t-51.5 -2.5q18 28 36.5 58t37.5 63l42 6q7 1 25.5 4t37.5 7
t33.5 9.5t14.5 11.5q0 5 -10 6t-15 1q-10 0 -23.5 -1t-28.5 -2.5t-29.5 -3.5t-26.5 -4q23 40 49.5 88t52.5 98t50 99t42 91q7 16 16.5 39.5t17.5 48t14 48t6 39.5z" />
    <glyph glyph-name="brokenbar" unicode="&#xa6;" horiz-adv-x="115" 
d="M72 225q3 27 -7 89q-11 69 -24 67q-9 -2 -9 -29q0 -6 4 -64q3 -44 1 -75q-8 -119 -8 -115q0 -45 19 -48q21 -3 23 76q1 48 1 99zM76 637q3 29 -7.5 93.5t-23.5 62.5q-9 -2 -9 -29q0 -18 4 -69q4 -44 2 -70l-9 -115q0 -45 19 -48q21 -3 23 76q1 37 1 99z" />
    <glyph glyph-name="section" unicode="&#xa7;" horiz-adv-x="499" 
d="M31 139q-2 2 -6.5 2.5t-6.5 0.5q-8 0 -14 -5t-6 -10q0 -2 2 -6.5t8 -10t18 -12.5t32 -14q28 -11 48.5 -13t30.5 -2q40 0 68.5 10.5t46.5 27t26.5 35t8.5 35.5q0 22 -10.5 37.5t-25.5 28.5q-4 3 -11 8.5t-14.5 11.5t-14.5 11t-10 7q7 -3 15.5 -5t24.5 -2q33 0 61 7.5
t48.5 17.5t33 18.5t15.5 10.5q60 48 60 103q0 24 -8 42.5t-21 32.5t-28 24.5t-30 19.5q-29 17 -60 35t-57 40q-17 14 -30.5 31.5t-13.5 42.5q0 22 11 35.5t28 23.5q13 7 35 11.5t38 4.5q19 0 32.5 -6.5t23.5 -12.5l47 -30q4 -3 14 -3t13.5 5t3.5 8q0 1 -1 5.5t-6.5 10.5
t-17.5 13.5t-33 15.5q-14 5 -36.5 10t-43.5 5q-34 0 -62 -9t-47.5 -23t-30.5 -33t-11 -38q0 -17 9 -36t27 -35q7 -6 24 -18t28 -20q-8 2 -18 4t-27 2q-42 0 -79 -10.5t-64 -29.5q-36 -25 -52 -51t-19.5 -49t1.5 -41.5t10 -28.5q16 -32 43.5 -49.5t56.5 -33.5
q7 -4 18.5 -10.5t25 -15t27 -17.5t24.5 -18q26 -22 35 -39.5t9 -29.5q0 -16 -10 -32.5t-30 -27.5q-13 -7 -37 -11.5t-38 -4.5q-21 0 -35 7t-21 12zM382 504q21 -15 31.5 -33.5t10.5 -35.5q0 -10 -3.5 -23t-12.5 -27t-25.5 -28t-43.5 -26q-24 -11 -50 -17t-57 -6
q-32 0 -75 11t-75 31q-16 10 -26 21t-15.5 22t-7.5 21.5t-2 18.5q0 29 24 59.5t68 46.5q23 8 53 12.5t51 4.5q34 0 69 -11q20 -6 45.5 -18t40.5 -23z" />
    <glyph glyph-name="dieresis" unicode="&#xa8;" horiz-adv-x="247" 
d="M234 740q0 5 -3 9q0 1 -1 2q-3 4 -7 6q-9 5 -17 5l-4 -1h-1q-2 -1 -5 -2l-10 -5q-6 -5 -13 -12l-5 -5l-3 -3q0 -1 -1 -2l-1 -1q-4 -5 -5 -10q-1 -4 -1 -7v-2v-2q1 -2 3 -4l1 -1l2 -1q2 0 3 -1h8q8 0 17 2q2 1 3 1q2 0 3.5 1t3.5 1.5t5 1.5l1 1h1q8 4 13 8q3 3 6 5
q1 2 2 3q2 2 3 4q0 1 1 2l1 4v3zM86 739q0 10 -10.5 16.5t-20.5 4.5q-12 -3 -28.5 -19t-16.5 -28t17 -12q14 0 32 8q27 12 27 30z" />
    <glyph glyph-name="copyright" unicode="&#xa9;" horiz-adv-x="769" 
d="M755 584q0 136 -192 136q-99 0 -221 -39q-81 -26 -144 -78q-1 2 1.5 12t2.5 12q0 3 -2 3q-10 0 -91 -109q-49 -66 -79 -156.5t-30 -172.5q0 -192 157 -192q128 0 275 107q115 84 210 210q113 150 113 267zM714 576q0 -123 -153 -310q-193 -236 -404 -236q-67 0 -100 55
q-27 45 -27 116q0 141 91 290q53 86 193 143q126 51 247 51q50 0 65 -3q27 -5 52 -24q36 -27 36 -82zM527 391q-3 -1 -55 -46q-162 -141 -266 -141q-61 0 -61 88q0 63 29 123q19 39 58 72q44 38 82 38q22 0 22 -9q0 -8 -16.5 -31t-13.5 -26q1 -1 3 -1q9 0 26 24q21 29 21 47
q0 12 -11 12q-97 3 -162.5 -71.5t-65.5 -172.5q0 -48 21 -79q24 -36 70 -36q136 0 277 151q49 52 42 58z" />
    <glyph glyph-name="ordfeminine" unicode="&#xaa;" horiz-adv-x="437" 
d="M425 465q-36 -26 -53 -39q-57 -43 -92 -43q-49 0 -49 55q0 37 31 100q28 56 26 58q-4 3 -54 -48q-69 -70 -101 -98q-62 -54 -95 -54q-27 0 -27 25q0 42 70 122.5t110 80.5q20 0 20 -28q0 -36 -36 -75q-32 -35 -31 -38q4 -3 45.5 54t41.5 71q0 31 -34 31q-41 0 -110 -72
q-89 -92 -89 -154q0 -35 36 -35q71 0 216 169q-36 -67 -36 -116q0 -29 17 -47.5t45 -18.5q46 0 102 47q48 40 48 51q0 1 -1 2zM402 325q-2 3 -18 3q-30 0 -89 -5.5t-88 -5.5q-185 -2 -188 -15q-2 -8 51 -8q26 0 77.5 3t78.5 3t176 25z" />
    <glyph glyph-name="guillemotleft" unicode="&#xab;" horiz-adv-x="610" 
d="M601 563q0 7 -6 7q-25 0 -183 -86q-179 -97 -182 -123q-3 -25 124 -83q122 -56 161 -56q11 0 11 8q0 7 -51 26q-43 15 -64 23q-34 13 -97 49q-38 22 -38 33q0 6 10 12q156 92 214 127l54 30q47 26 47 33zM386 562q0 7 -6 7q-25 0 -183 -86q-179 -97 -182 -123
q-3 -25 124 -83q122 -56 161 -56q11 0 11 8q0 7 -51 26q-43 15 -64 23q-37 14 -97 49q-37 22 -37 33q0 6 10 12l213 127l54 30q47 26 47 33z" />
    <glyph glyph-name="hyphen" unicode="&#xad;" horiz-adv-x="454" 
d="M452 422q-2 6 -21 6q-36 0 -102 -10q-69 -11 -101 -12q-116 -3 -142 -4q-72 -4 -74 -26q-2 -15 58 -15q30 0 89 6t89 6q37 0 118 17q90 19 86 32z" />
    <glyph glyph-name="registered" unicode="&#xae;" horiz-adv-x="487" 
d="M468 709q0 84 -119 84q-61 0 -137 -24q-49 -16 -88 -47q1 4 1 14q0 1 -1 2q-5 0 -56 -68q-68 -91 -68 -204q0 -119 98 -119q80 0 169 65q73 53 131 132q70 94 70 165zM442 704q0 -76 -94 -192q-119 -146 -251 -146q-78 0 -78 106q0 88 56 180q33 54 122 89q78 31 151 31
q94 0 94 -68zM318 493q-3 3 -9 -2q-23 -20 -38 -20q-41 0 -110 69l4 8q21 4 27 5q78 20 79 66q1 32 -34 54q-30 20 -64 20q-16 0 -49 -18q-27 -15 -27 -21q0 -2 2 -3q3 -2 11 3q42 25 64 25q26 0 53 -16q31 -18 31 -42t-32 -41q-27 -15 -54 -17q36 70 35 72t-3 2
q-12 -1 -32 -46q-11 -19 -17 -29q-12 -3 -28 12l-3 2q-11 11 -17 1q-8 -14 1 -25q21 -10 34 -14q-24 -47 -33 -44l-5 10q-3 6 -8 5q-3 -1 -3 -6q0 -22 17 -22q21 0 45 48q76 -71 117 -71q16 0 34 15q13 11 13 17q0 2 -1 3zM135 557h-2v-1q-19 2 -19 6t1 6h2l1 1q6 -4 17 -12
z" />
    <glyph glyph-name="macron" unicode="&#xaf;" horiz-adv-x="454" 
d="M449 682q-2 6 -21 6q-35 0 -102.5 -11t-100.5 -12q-103 -2 -142 -3q-72 -3 -74 -26q-2 -16 58 -16q30 0 89 6.5t89 6.5q37 0 118 17q90 19 86 32z" />
    <glyph glyph-name="degree" unicode="&#xb0;" horiz-adv-x="313" 
d="M310 704q0 32 -31 60q-43 39 -86 39q-19 0 -44 -12q-62 -29 -66 -32q-31 -19 -50 -53q-18 -71 -26 -125l-3 -14q-1 -4 -1 -2l-1 1q3 -33 38 -33q45 0 147 49q123 59 123 122zM280 692q0 -15 -43 -53q-29 -26 -85 -52q-59 -28 -93 -28q-27 0 -25 24l6 81q10 42 73 79
q53 31 91 31q31 0 53.5 -25.5t22.5 -56.5z" />
    <glyph glyph-name="plusminus" unicode="&#xb1;" horiz-adv-x="420" 
d="M431 561q-1 13 -36 13q-21 0 -200 -26q61 129 61 141q0 6 -4 7q-17 2 -90 -152q-96 -14 -112 -18q-31 -8 -40 -27q-2 -5 7 -5q23 0 67 9.5t64 10.5l-11 -23q-67 -140 -67 -208q0 -13 6 -13q1 0 4 1q12 8 50 111q45 121 52 138l13 3l142 14q95 11 94 24zM421 241
q-2 6 -21 6q-35 0 -101 -11q-69 -11 -101 -12q-103 -2 -143 -3q-70 -2 -73 -26q-2 -16 58 -16q30 0 89 6t89 6q26 0 112 17q96 20 91 33z" />
    <glyph glyph-name="acute" unicode="&#xb4;" horiz-adv-x="149" 
d="M142 760q0 30 -23 34q-11 -18 -14 -51q-2 -23 -24 -61q-52 -94 -77 -142q-13 -22 -13 -25q0 -4 5 -4q4 0 10 2q28 5 74 89q62 113 62 158z" />
    <glyph glyph-name="periodcentered" unicode="&#xb7;" horiz-adv-x="151" 
d="M127 399q0 15 -13.5 23.5t-27.5 4.5q-19 -5 -41 -27q-25 -23 -25 -40q0 -13 21 -13q25 0 53 14q33 16 33 38z" />
    <glyph glyph-name="periodcentered" unicode="&#x2219;" horiz-adv-x="151" 
d="M127 399q0 15 -13.5 23.5t-27.5 4.5q-19 -5 -41 -27q-25 -23 -25 -40q0 -13 21 -13q25 0 53 14q33 16 33 38z" />
    <glyph glyph-name="cedilla" unicode="&#xb8;" horiz-adv-x="273" 
d="M254 -160q0 14 -4.5 24t-16.5 18q-11 7 -29.5 10t-29.5 3q-5 0 -15 -1t-15 -2q-10 -2 -16.5 -3.5t-19.5 -1.5q-2 0 -5 0.5t-3 5.5q0 2 3.5 6.5t16.5 23.5l17 24q16 23 30 41.5t14 23.5t-5 5q-3 0 -8 -3t-11 -7.5t-11 -9t-7 -7.5l-32 -42q-23 -29 -31.5 -46.5t-8.5 -34.5
q0 -5 1.5 -7t9.5 -2q9 0 17.5 3t25.5 8q8 3 15.5 5t23.5 2q37 0 49 -13t12 -30q0 -27 -19.5 -49t-37.5 -34q-23 -15 -47.5 -22.5t-44.5 -7.5q-17 0 -27 3.5t-17 8.5q-12 9 -18 22q-2 -3 -3 -7l-2 -8v-6q1 -7 5 -12t8 -8q24 -18 57 -18q26 0 55 10t49 23q75 49 75 112z" />
    <glyph glyph-name="ordmasculine" unicode="&#xba;" horiz-adv-x="328" 
d="M309 527q5 62 -60 62q-77 0 -121 -73q-22 -36 -25 -67v-6l3 6l6 14q48 111 138 111q38 0 38 -37q0 -44 -43 -106q-65 -93 -167 -93q-46 0 -46 45q0 56 41.5 119t93.5 90q46 19 50 23q-4 8 -13 8q-21 0 -68 -40q-60 -51 -80 -83q-42 -68 -42 -123q0 -61 63 -61
q94 0 171 89q56 65 61 122zM328 283q-2 3 -18 3q-30 0 -89 -5.5t-88 -5.5q-130 -1 -133 -18q-1 -7 28 -7q20 0 61 4t61 4q30 0 178 25z" />
    <glyph glyph-name="guillemotright" unicode="&#xbb;" horiz-adv-x="645" 
d="M393 373q-3 13 -21 13t-54 -12q-51 73 -129 162q-72 82 -78 79q-2 -1 -2 -3q0 -9 41 -63q29 -38 51 -63q12 -14 35 -48q37 -56 50 -75q-30 -11 -41 -15q-18 -7 -37 -18q-148 -90 -153 -94q-52 -36 -47 -50q22 1 85 40q81 50 109 67q42 25 108 38q33 -42 42 -42q7 0 7 8
q0 10 -20 44q57 20 54 32zM638 360q-3 12 -21 12t-54 -11q-46 67 -129 161q-72 82 -78 80q-2 -1 -2 -3q0 -10 41 -63q29 -38 51 -63q9 -10 35 -49l50 -75l-78 -32l-8 -5q-111 -69 -145 -90q-52 -34 -47 -49q22 0 85 39q82 51 110 69q21 13 52 22q6 2 55 15q33 -42 42 -42
q7 0 7 8q0 10 -19 44q57 19 53 32z" />
    <glyph glyph-name="questiondown" unicode="&#xbf;" horiz-adv-x="491" 
d="M485 404q0 10 -4 19q-36 111 -147 111q-98 0 -228 -64q-92 -45 -82 -58q3 -4 23 6q78 38 116 54q63 27 127 27q159 0 159 -95q0 -53 -79 -101q-80 -39 -125 -63q-73 -39 -97 -55q-65 -45 -65 -83q0 -46 37 -70q32 -21 80 -21q37 0 84 15q55 17 72 41q7 10 0 15t-24 -1
q-10 -4 -58 -30q-35 -19 -62 -19q-41 0 -68 16q-23 14 -23 48q0 60 225 164q139 65 139 144zM397 804q-3 6 -16 6q-21 0 -45 -12q-29 -14 -29 -32q0 -12 11.5 -19.5t23.5 -4.5q17 5 39 28t16 34z" />
    <glyph glyph-name="Agrave" unicode="&#xc0;" 
d="M1146 324q0 4 -4 4q-5 0 -67 -67q-178 -191 -376 -191q-107 0 -99 158q2 38 14 91q33 36 67 76q167 196 167 294q0 35 -33 35q-76 0 -145 -127q-44 -82 -75 -194q-10 -35 -17 -66q-80 -84 -165 -152q-180 -143 -306 -143q-72 0 -72 81q0 108 102 276q84 138 183 238
q123 124 212 124q27 0 49 -13q38 -22 38 -61q0 -44 -49 -114q-23 -33 -91 -112q-49 -57 -49 -71q0 -7 9 -7q18 0 66 46q58 55 100 122q53 84 53 146q0 56 -48 84q-32 19 -71 19q-106 0 -239 -127q-108 -103 -197 -254q-103 -175 -103 -299q0 -120 113 -120q191 0 453 269
q-3 -27 -3 -49q0 -184 137 -188q94 -2 208 65q91 54 169 133q69 70 69 94zM665 483q71 196 132 197q12 0 12 -12q0 -49 -120 -202q-25 -32 -51 -62q12 37 27 79zM758 815q0 2 -21 17q-98 69 -135.5 95.5t-47.5 44.5q-19 32 -35 40q-11 -8 -11 -22q0 -42 130 -134
q78 -55 106 -48q14 4 14 7z" />
    <glyph glyph-name="Aacute" unicode="&#xc1;" 
d="M1146 324q0 -24 -69 -94q-78 -79 -169 -133q-114 -67 -208 -65q-137 4 -137 188q0 22 3 49q-262 -269 -453 -269q-113 0 -113 120q0 124 103 299q89 151 197 254q133 127 239 127q39 0 71 -19q48 -28 48 -84q0 -62 -53 -146q-42 -67 -100 -122q-48 -46 -66 -46q-9 0 -9 7
q0 14 49 71q68 79 91 112q49 70 49 114q0 39 -38 61q-22 13 -49 13q-89 0 -212 -124q-99 -100 -183 -238q-102 -168 -102 -276q0 -81 72 -81q126 0 306 143q85 68 165 152q7 31 17 66q31 112 75 194q69 127 145 127q33 0 33 -35q0 -98 -167 -294q-34 -40 -67 -76
q-12 -53 -14 -91q-8 -158 99 -158q198 0 376 191q62 67 67 67q4 0 4 -4zM665 483q-15 -42 -27 -79q26 30 51 62q120 153 120 202q0 12 -12 12q-61 -1 -132 -197zM903 1014q0 -45 -149 -122q-67 -35 -97 -35q-23 0 -23 10q0 4 22 15q34 17 59 32q18 11 86 46q41 21 54 38
q23 30 39 35q9 -7 9 -19z" />
    <glyph glyph-name="Acircumflex" unicode="&#xc2;" 
d="M1146 324q0 -24 -69 -94q-78 -79 -169 -133q-114 -67 -208 -65q-137 4 -137 188q0 22 3 49q-262 -269 -453 -269q-113 0 -113 120q0 124 103 299q89 151 197 254q133 127 239 127q39 0 71 -19q48 -28 48 -84q0 -62 -53 -146q-42 -67 -100 -122q-48 -46 -66 -46q-9 0 -9 7
q0 14 49 71q68 79 91 112q49 70 49 114q0 39 -38 61q-22 13 -49 13q-89 0 -212 -124q-99 -100 -183 -238q-102 -168 -102 -276q0 -81 72 -81q126 0 306 143q85 68 165 152q7 31 17 66q31 112 75 194q69 127 145 127q33 0 33 -35q0 -98 -167 -294q-34 -40 -67 -76
q-12 -53 -14 -91q-8 -158 99 -158q198 0 376 191q62 67 67 67q4 0 4 -4zM833 881q28 -22 -28 -18q-56 18 -73 92q-3 37 -12 76l-196 -172q-9 -8 -20 -8q-16 0 -16 16q0 9 246 200q25 0 24 -23q-10 -12 -3 -49q1 -20 5 -36q14 -55 57 -71zM665 483q-15 -42 -27 -79
q26 30 51 62q120 153 120 202q0 12 -12 12q-61 -1 -132 -197z" />
    <glyph glyph-name="Atilde" unicode="&#xc3;" 
d="M1146 324q0 4 -4 4q-5 0 -67 -67q-178 -191 -376 -191q-107 0 -99 158q2 38 14 91q33 36 67 76q167 196 167 294q0 35 -33 35q-76 0 -145 -127q-44 -82 -75 -194q-10 -35 -17 -66q-80 -84 -165 -152q-180 -143 -306 -143q-72 0 -72 81q0 108 102 276q84 138 183 238
q123 124 212 124q27 0 49 -13q38 -22 38 -61q0 -44 -49 -114q-23 -33 -91 -112q-49 -57 -49 -71q0 -7 9 -7q18 0 66 46q58 55 100 122q53 84 53 146q0 56 -48 84q-32 19 -71 19q-106 0 -239 -127q-108 -103 -197 -254q-103 -175 -103 -299q0 -120 113 -120q191 0 453 269
q-3 -27 -3 -49q0 -184 137 -188q94 -2 208 65q91 54 169 133q69 70 69 94zM665 483q71 196 132 197q12 0 12 -12q0 -49 -120 -202q-25 -32 -51 -62q12 37 27 79zM831 913q0 4 -3 4q1 0 -34 -30.5t-52 -30.5q-12 0 -38 21q-35 28 -53 39q-36 21 -81 23q-78 3 -78 -64
q0 -28 7 -28q12 0 14 18q2 25 8 33q12 17 51 17q46 0 77 -21l44 -39q24 -21 53 -21q17 0 51 31t34 48z" />
    <glyph glyph-name="Adieresis" unicode="&#xc4;" 
d="M1146 324q0 4 -4 4q-5 0 -67 -67q-178 -191 -376 -191q-107 0 -99 158q2 38 14 91q33 36 67 76q167 196 167 294q0 35 -33 35q-76 0 -145 -127q-44 -82 -75 -194q-10 -35 -17 -66q-80 -84 -165 -152q-180 -143 -306 -143q-72 0 -72 81q0 108 102 276q84 138 183 238
q123 124 212 124q27 0 49 -13q38 -22 38 -61q0 -44 -49 -114q-23 -33 -91 -112q-49 -57 -49 -71q0 -7 9 -7q18 0 66 46q58 55 100 122q53 84 53 146q0 56 -48 84q-32 19 -71 19q-106 0 -239 -127q-108 -103 -197 -254q-103 -175 -103 -299q0 -120 113 -120q191 0 453 269
q-3 -27 -3 -49q0 -184 137 -188q94 -2 208 65q91 54 169 133q69 70 69 94zM665 483q71 196 132 197q12 0 12 -12q0 -49 -120 -202q-25 -32 -51 -62q12 37 27 79zM858 929v2q-1 9 -11 15q-4 3 -9 4q-1 1 -3 1q-4 1 -9 0h-1q-2 -1 -3.5 -1.5t-3.5 -1.5l-2 -1l-2 -1
q-3 -2 -7 -6q-1 -1 -2 -1l-3 -3l-5 -5q-4 -3 -7 -6.5t-5 -6.5q-2 -4 -4 -7l-1 -3v-3v-2v-4l1 -2q1 -2 3 -4h2q1 -1 2 -1.5t2 -0.5h7q6 0 12 1q2 0 5 1h2q2 1 3.5 1.5t3.5 0.5l7 3l1 1h1q3 1 5 3l8 4l1 2q3 2 5 4l1 2l2 3l1 1l1 2l1 2v1q1 3 1 6zM651 931q0 11 -10.5 17.5
t-21.5 4.5q-13 -4 -29.5 -20t-16.5 -28t17 -12q15 0 33 8t24 19q4 5 4 11z" />
    <glyph glyph-name="Aring" unicode="&#xc5;" 
d="M1146 324q0 4 -4 4q-5 0 -67 -67q-178 -191 -376 -191q-107 0 -99 158q2 38 14 91q33 36 67 76q167 196 167 294q0 35 -33 35q-76 0 -145 -127q-44 -82 -75 -194q-10 -35 -17 -66q-80 -84 -165 -152q-180 -143 -306 -143q-72 0 -72 81q0 108 102 276q84 138 183 238
q123 124 212 124q27 0 49 -13q38 -22 38 -61q0 -44 -49 -114q-23 -33 -91 -112q-49 -57 -49 -71q0 -7 9 -7q18 0 66 46q58 55 100 122q53 84 53 146q0 56 -48 84q-32 19 -71 19q-106 0 -239 -127q-108 -103 -197 -254q-103 -175 -103 -299q0 -120 113 -120q191 0 453 269
q-3 -27 -3 -49q0 -184 137 -188q94 -2 208 65q91 54 169 133q69 70 69 94zM819 1023q0 32 -31 60q-43 39 -87 39q-15 0 -94.5 -36t-90.5 -146q-4 -42 -5 -49q0 -40 38 -40q43 0 146 50q124 60 124 122zM789 1010q0 -14 -43 -52q-30 -26 -85 -52q-59 -28 -94 -28
q-26 0 -24 23l6 82q10 42 73 79q53 31 91 31q31 0 53.5 -25.5t22.5 -57.5zM665 483q71 196 132 197q12 0 12 -12q0 -49 -120 -202q-25 -32 -51 -62q12 37 27 79z" />
    <glyph glyph-name="AE" unicode="&#xc6;" horiz-adv-x="1404" 
d="M745 325q-18 -5 -36 -3.5t-32.5 8.5t-23.5 20.5t-9 33.5q0 28 12 51q5 11 12 23.5t16 26.5q9 13 23 29.5t44 45.5q26 25 68.5 60.5t102.5 70.5q22 13 49 26t57 23.5t61.5 17.5t63.5 7q28 0 46 -4.5t35 -11.5q25 -10 32.5 -18t7.5 -13q0 -7 -9 -16.5t-32 -30.5
q-20 -18 -27.5 -25.5t-7.5 -14.5q0 -4 6 -4q10 0 25.5 13t29.5 26q7 6 15.5 14.5t16 18t12.5 18.5t5 15q0 10 -9.5 21.5t-26.5 21t-39.5 15.5t-49.5 6q-38 0 -96 -13t-144 -56q-44 -22 -88 -50t-99 -73q7 12 19 34t23.5 46.5t20 46.5t8.5 34q0 8 -4.5 15t-23.5 7
q-2 0 -12.5 -1t-29.5 -6.5t-46 -16t-62 -29.5q-49 -27 -95 -67.5t-86.5 -85.5t-73.5 -89.5t-57 -78.5q-20 -29 -60 -90.5t-87 -144.5q-5 -1 -12 -2.5t-19 -6t-30 -12t-45 -19.5q-10 -5 -24 -12.5t-26.5 -16t-21 -17t-8.5 -15.5q0 -4 2 -5.5t4 -1.5q5 0 10 4.5t16 11.5
q7 5 20 11.5t24 11.5q22 11 43.5 19t46.5 15l-25 -46q-11 -19 -24.5 -47.5t-27.5 -62.5t-27 -72.5t-21 -78.5q26 38 36.5 59t19.5 40l82 163l30 55q20 3 37 5t47 5q38 4 66.5 6.5t53 5t47.5 3.5t51 2q-1 -36 8.5 -69.5t34.5 -59.5t67 -42t107 -16q23 0 53.5 2t63.5 6
t65.5 11t61.5 18q68 26 127.5 63.5t112.5 78.5q33 26 66.5 54.5t77.5 74.5q18 19 28.5 30.5t15 18.5t5 10t-0.5 5q-5 -3 -9.5 -6.5t-10 -8t-13.5 -12t-21 -18.5q-21 -18 -49 -43t-60.5 -51t-67.5 -52.5t-69 -47.5q-57 -35 -99.5 -51t-61.5 -21q-29 -8 -54.5 -11t-54.5 -3
q-81 0 -122.5 23t-41.5 64q0 16 4.5 30.5t10.5 25.5q4 0 12 1t15 2.5t12.5 3.5t5.5 4t-5.5 7t-28.5 3q16 26 34 50t39 47q20 7 45.5 21.5t52 32.5t52 38.5t46.5 39.5q6 6 16.5 17t21 23.5t18 24.5t7.5 20q0 3 -3 8t-14 5q-6 0 -17 -2.5t-29.5 -12t-45.5 -28t-64 -51.5
q-55 -48 -81 -76t-33 -36zM233 187q33 56 53 88.5t35.5 55.5t30 43t37.5 52q14 20 25 35.5t22 30.5t24.5 31t33.5 38q35 38 61.5 64t51.5 44q15 11 37.5 23.5t48 23.5t51 18.5t47.5 7.5q-5 -13 -10 -25t-13 -26.5t-19.5 -34t-27.5 -47.5q-26 -44 -43 -72.5t-28.5 -47
t-18 -30.5t-13 -23t-13.5 -24.5t-18 -35.5q-19 -36 -31 -61t-19.5 -43.5t-11 -32t-6.5 -27.5h-18q-27 0 -61.5 -2t-70.5 -6t-71.5 -8.5t-64.5 -8.5zM620 366q8 -32 34 -53t62 -22q-14 -19 -27.5 -39.5t-24.5 -43.5q-41 3 -106 3q1 9 4 20.5t9.5 29t17.5 41.5t28 58zM653 179
q-4 -11 -6.5 -24.5t-2.5 -28.5q0 -38 18.5 -60t54.5 -39q-39 0 -71 12.5t-54 33.5t-32.5 48.5t-6.5 57.5q48 -1 100 0z" />
    <glyph glyph-name="Ccedilla" unicode="&#xc7;" horiz-adv-x="896" 
d="M897 335q0 2 -1 4t-5 2q-3 0 -7.5 -2t-16.5 -9.5t-34 -23.5t-59 -43q-60 -44 -115.5 -81t-109.5 -64q-48 -24 -89 -39.5t-76.5 -24t-65.5 -11.5t-55 -3q-66 0 -108 13t-66.5 34.5t-33.5 48.5t-9 54q0 34 10.5 69t26.5 67t34 59.5t32 46.5q30 42 80.5 97t129.5 118
q53 42 96.5 66t77.5 35.5t57 14.5t36 3q15 0 35 -4t40 -17q26 -16 33 -34t7 -29q0 -18 -11.5 -39.5t-30.5 -42.5q-18 -20 -38 -36t-37 -32q-17 -17 -25 -22t-8 -10t9 -5q15 0 42 18t50 41q10 10 22.5 23.5t24 30t19 36t7.5 42.5q0 9 -4 28t-24 42q-14 16 -29 24.5t-29.5 13
t-26 5.5t-18.5 1q-16 0 -40 -3t-57.5 -14.5t-76.5 -33.5t-95 -59q-47 -33 -85 -67t-67.5 -64t-50.5 -55t-33 -40q-44 -56 -69.5 -102t-39 -82t-17 -62t-3.5 -42q0 -34 8.5 -58.5t22 -42t31 -28.5t35.5 -19q38 -17 79 -23.5t82 -4.5l-13 -14l-45 -59q-34 -44 -44.5 -68
t-10.5 -40q0 -5 1.5 -11t15.5 -6q13 0 24.5 4.5t33.5 11.5q14 5 26 7.5t35 2.5q14 0 29 -1.5t27.5 -7.5t20.5 -18t8 -32q0 -35 -24 -67.5t-56 -53.5t-66 -31.5t-64 -10.5q-9 0 -29 2t-35 14q-7 5 -13.5 14t-11.5 17q-5 -9 -6.5 -14t-1.5 -10q0 -10 3 -18.5t16 -16.5
q15 -10 33.5 -14t36.5 -4q35 0 76 12t76 34q39 25 60.5 50t31.5 46.5t12 37t2 21.5q0 23 -8 37t-23 22q-17 10 -40 14t-41 4q-9 0 -20 -1t-21 -3q-11 -2 -23.5 -5t-24.5 -3q-3 0 -9.5 0.5t-6.5 8.5q0 3 4.5 10t23.5 33l23 32q16 22 31 43t22 32q18 1 43 4.5t57.5 12.5
t72.5 24t90 40q94 47 156.5 91t90.5 66q31 25 49.5 41.5t28.5 27.5t13 17.5t3 9.5z" />
    <glyph glyph-name="Egrave" unicode="&#xc8;" horiz-adv-x="795" 
d="M799 367q-5 5 -98 -78q-124 -111 -217 -165q-152 -88 -282 -80q-137 9 -137 83q0 62 99 171q80 28 182 120q75 68 75 102q0 14 -18 14q-52 0 -160 -94q-65 -56 -110 -107q-20 -7 -36 -7q-25 0 -43.5 17t-18.5 41q0 72 106 174q81 78 169 129q127 74 229 74q70 0 116 -38
q2 -1 2 -4q0 -6 -38 -42.5t-38 -45.5q0 -4 4 -7q13 -8 63.5 38.5t50.5 71.5q0 6 -4 12q-38 54 -125 54q-105 0 -242 -69q-111 -56 -205 -140q-123 -110 -123 -203q0 -43 28 -72q27 -28 67 -29q-68 -90 -68 -161q0 -110 182 -125q112 -10 268 81q122 71 233 177q90 86 90 105
q0 2 -1 3zM577 876q0 4 -21 16q-103 62 -142 86t-51 40q-22 31 -38 37q-9 -7 -9 -20q0 -40 134 -123q72 -45 106 -45q21 0 21 9z" />
    <glyph glyph-name="Eacute" unicode="&#xc9;" horiz-adv-x="795" 
d="M799 367q1 -1 1 -3q0 -19 -90 -105q-111 -106 -233 -177q-156 -91 -268 -81q-182 15 -182 125q0 71 68 161q-40 1 -67 29q-28 29 -28 72q0 93 123 203q94 84 205 140q137 69 242 69q87 0 125 -54q4 -6 4 -12q0 -25 -50.5 -71.5t-63.5 -38.5q-4 3 -4 7q0 9 38 45.5
t38 42.5q0 3 -2 4q-46 38 -116 38q-102 0 -229 -74q-88 -51 -169 -129q-106 -102 -106 -174q0 -24 18.5 -41t43.5 -17q16 0 36 7q45 51 110 107q108 94 160 94q18 0 18 -14q0 -34 -75 -102q-102 -92 -182 -120q-99 -109 -99 -171q0 -74 137 -83q130 -8 282 80q93 54 217 165
q93 83 98 78zM701 1012q0 -41 -136 -122q-72 -43 -106 -43q-22 0 -22 9q0 4 22 16q31 17 57 34q16 11 85 49q40 22 53 40q22 30 38 36q9 -7 9 -19z" />
    <glyph glyph-name="Ecircumflex" unicode="&#xca;" horiz-adv-x="795" 
d="M799 367q1 -1 1 -3q0 -19 -90 -105q-111 -106 -233 -177q-156 -91 -268 -81q-182 15 -182 125q0 71 68 161q-40 1 -67 29q-28 29 -28 72q0 93 123 203q94 84 205 140q137 69 242 69q87 0 125 -54q4 -6 4 -12q0 -25 -50.5 -71.5t-63.5 -38.5q-4 3 -4 7q0 9 38 45.5
t38 42.5q0 3 -2 4q-46 38 -116 38q-102 0 -229 -74q-88 -51 -169 -129q-106 -102 -106 -174q0 -24 18.5 -41t43.5 -17q16 0 36 7q45 51 110 107q108 94 160 94q18 0 18 -14q0 -34 -75 -102q-102 -92 -182 -120q-99 -109 -99 -171q0 -74 137 -83q130 -8 282 80q93 54 217 165
q93 83 98 78zM678 853q28 -22 -28 -18q-56 18 -73 92q-3 37 -12 76l-196 -172q-9 -8 -20 -8q-16 0 -16 16q0 9 246 200q25 0 24 -23q-10 -12 -3 -49q1 -20 5 -36q14 -55 57 -71z" />
    <glyph glyph-name="Edieresis" unicode="&#xcb;" horiz-adv-x="795" 
d="M799 367q-5 5 -98 -78q-124 -111 -217 -165q-152 -88 -282 -80q-137 9 -137 83q0 62 99 171q80 28 182 120q75 68 75 102q0 14 -18 14q-52 0 -160 -94q-65 -56 -110 -107q-20 -7 -36 -7q-25 0 -43.5 17t-18.5 41q0 72 106 174q81 78 169 129q127 74 229 74q70 0 116 -38
q2 -1 2 -4q0 -6 -38 -42.5t-38 -45.5q0 -4 4 -7q13 -8 63.5 38.5t50.5 71.5q0 6 -4 12q-38 54 -125 54q-105 0 -242 -69q-111 -56 -205 -140q-123 -110 -123 -203q0 -43 28 -72q27 -28 67 -29q-68 -90 -68 -161q0 -110 182 -125q112 -10 268 81q122 71 233 177q90 86 90 105
q0 2 -1 3zM549 874v3q0 1 -1 2q-1 5 -6 10l-4 3q-1 0 -2 1l-1 1q-1 0 -2 1q-3 1 -5 1q-1 0 -3 1q-4 0 -8 -1q-1 -1 -3 -1q-1 0 -2 -1q-7 -3 -16 -9l-6 -5l-3 -3q-4 -4 -7 -8q-5 -7 -8 -13q0 -2 -0.5 -3.5t-0.5 -2.5v-2v-2v-2l1 -2l1 -1q1 -2 2 -3h2q1 -1 2 -1l5 -1h4h5h6
q2 0 4 1l5 1q6 1 12 4q4 1 7 3l2 1q2 2 5 4q4 3 7 6q2 3 5 7q3 6 3 11zM339 842q0 11 -10.5 17.5t-21.5 4.5q-12 -3 -29 -19.5t-17 -28.5t17 -12q16 0 34 8q27 12 27 30z" />
    <glyph glyph-name="Igrave" unicode="&#xcc;" horiz-adv-x="731" 
d="M736 486q-1 3 -8 3q-49 0 -200 -61q16 45 30 93q52 176 52 233q0 8 -2 9q-10 2 -71 -19q-72 -25 -114 -25q-26 0 -86.5 40.5t-108.5 40.5q-39 0 -133.5 -93t-94.5 -132q0 -3 2 -4q5 -5 45 46q57 72 86 100q58 55 101 55q52 0 93 -35q59 -50 126 -50q24 0 76 16
q40 13 45 20q-3 -29 -44 -175q-21 -73 -41 -136l-12 -5q-147 -62 -226 -117q-139 -96 -139 -199q0 -91 116 -91q94 0 192 176q51 92 95 214q47 20 102 43q121 50 119 53zM475 372q-119 -335 -251 -342q-83 -5 -83 66q0 52 51 112q50 59 283 164zM535 807q0 2 -21 17
q-98 69 -135.5 95.5t-47.5 44.5q-19 32 -35 40q-11 -8 -11 -22q0 -42 130 -134q78 -55 106 -48q14 4 14 7z" />
    <glyph glyph-name="Iacute" unicode="&#xcd;" horiz-adv-x="731" 
d="M736 486q2 -3 -119 -53q-55 -23 -102 -43q-44 -122 -95 -214q-98 -176 -192 -176q-116 0 -116 91q0 103 139 199q79 55 226 117l12 5q20 63 41 136q41 146 44 175q-5 -7 -45 -20q-52 -16 -76 -16q-67 0 -126 50q-41 35 -93 35q-43 0 -101 -55q-29 -28 -86 -100
q-40 -51 -45 -46q-2 1 -2 4q0 39 94.5 132t133.5 93q48 0 108.5 -40.5t86.5 -40.5q42 0 114 25q61 21 71 19q2 -1 2 -9q0 -57 -52 -233q-14 -48 -30 -93q151 61 200 61q7 0 8 -3zM475 372q-233 -105 -283 -164q-51 -60 -51 -112q0 -71 83 -66q132 7 251 342zM719 986
q0 -41 -136 -122q-72 -43 -106 -43q-22 0 -22 9q0 4 22 16q41 22 57 33q24 16 85 50q41 23 53 39q23 31 38 37q9 -7 9 -19z" />
    <glyph glyph-name="Icircumflex" unicode="&#xce;" horiz-adv-x="731" 
d="M736 486q-1 3 -8 3q-49 0 -200 -61q16 45 30 93q52 176 52 233q0 8 -2 9q-10 2 -71 -19q-72 -25 -114 -25q-26 0 -86.5 40.5t-108.5 40.5q-39 0 -133.5 -93t-94.5 -132q0 -3 2 -4q5 -5 45 46q57 72 86 100q58 55 101 55q52 0 93 -35q59 -50 126 -50q24 0 76 16
q40 13 45 20q-3 -29 -44 -175q-21 -73 -41 -136l-12 -5q-147 -62 -226 -117q-139 -96 -139 -199q0 -91 116 -91q94 0 192 176q51 92 95 214q47 20 102 43q121 50 119 53zM475 372q-119 -335 -251 -342q-83 -5 -83 66q0 52 51 112q50 59 283 164zM568 883q0 10 -4 10
q-42 -31 -67 -31q-66 0 -66 78q0 16 2 36q13 37 23 49q1 23 -24 23q-246 -191 -246 -200q0 -16 16 -16q11 0 20 8l196 172q-11 -39 -11 -76q0 -96 79 -96q82 0 82 43z" />
    <glyph glyph-name="Idieresis" unicode="&#xcf;" horiz-adv-x="731" 
d="M736 486q-1 3 -8 3q-49 0 -200 -61q16 45 30 93q52 176 52 233q0 8 -2 9q-10 2 -71 -19q-72 -25 -114 -25q-26 0 -86.5 40.5t-108.5 40.5q-39 0 -133.5 -93t-94.5 -132q0 -3 2 -4q5 -5 45 46q57 72 86 100q58 55 101 55q52 0 93 -35q59 -50 126 -50q24 0 76 16
q40 13 45 20q-3 -29 -44 -175q-21 -73 -41 -136l-12 -5q-147 -62 -226 -117q-139 -96 -139 -199q0 -91 116 -91q94 0 192 176q51 92 95 214q47 20 102 43q121 50 119 53zM475 372q-119 -335 -251 -342q-83 -5 -83 66q0 52 51 112q50 59 283 164zM387 862q0 11 -10.5 18
t-21.5 4q-13 -3 -29.5 -19t-16.5 -29q0 -12 17 -12q39 0 58 27q3 6 3 11zM537 864v2q0 2 -0.5 3.5t-1.5 2.5q-2 4 -6 7l-3 2q-1 1 -3 2l-4 2q-1 0 -2 0.5t-3 0.5h-4h-2h-3q-4 -1 -8 -3l-4 -2q-4 -3 -9 -7l-8 -8q-7 -7 -12 -13q-1 -2 -2 -3l-2 -6t-1 -6v-2q0 -2 1 -4l1 -1
q3 -4 11 -5h4h5q6 0 12 1.5t12 4.5q2 1 5 2h1q3 1 5 3h1q5 3 8 6q1 0 2 1l2 2q1 1 2 3l1 1l2 3l1 2l1 2v1q0 2 1 3v3z" />
    <glyph glyph-name="Ntilde" unicode="&#xd1;" horiz-adv-x="1322" 
d="M1327 82q-1 1 -4 1q-11 0 -72 -41q-86 -58 -119 -76q-73 -40 -119 -40q-81 0 -81 82q0 84 64 220l119 252q64 136 64 176q0 27 -23 27q-69 0 -219 -164l-276 -302q-146 -160 -174 -155q-13 2 -13 18q0 40 90 193q120 203 167 281q89 152 89 214q0 33 -31 33
q-54 0 -258 -171q-131 -110 -314 -283q-221 -209 -204 -225q8 -7 185 157q256 237 339 309q194 168 238 165q3 -1 3 -5q0 -20 -92 -180q-122 -213 -170 -304q-92 -176 -92 -235q0 -32 27 -32q37 0 192 162q208 219 288 303q157 164 196 167q8 1 8 -9q0 -23 -62 -144
q-86 -167 -116 -239q-62 -146 -62 -228q0 -113 115 -113q68 0 243 120q83 57 74 66zM1232 885q0 3 -3 4q1 0 -34 -31t-52 -31q-12 0 -38 21q-35 29 -53 39q-38 22 -81 24q-78 3 -78 -64q0 -28 7 -28q12 0 14 17q2 25 8 33q13 18 51 18q46 0 77 -21q36 -35 43 -40
q27 -20 54 -20q17 0 51 31t34 48z" />
    <glyph glyph-name="Ograve" unicode="&#xd2;" horiz-adv-x="757" 
d="M755 584q0 132 -180 132q-109 0 -246 -48q198 118 195 132q-4 5 -81 -31q-229 -106 -334 -248q-49 -67 -79 -156.5t-30 -172.5q0 -192 157 -192q128 0 275 107q115 84 210 210q113 150 113 267zM714 576q0 -123 -153 -310q-193 -236 -404 -236q-67 0 -100 55
q-27 45 -27 116q0 141 91 290q53 86 193 143q126 51 247 51q50 0 65 -3q27 -5 52 -24q36 -27 36 -82zM698 783q0 2 -21 17q-98 69 -135.5 95.5t-47.5 44.5q-19 32 -35 40q-11 -8 -11 -22q0 -42 130 -134q78 -55 106 -48q14 4 14 7z" />
    <glyph glyph-name="Oacute" unicode="&#xd3;" horiz-adv-x="757" 
d="M755 584q0 -117 -113 -267q-95 -126 -210 -210q-147 -107 -275 -107q-157 0 -157 192q0 83 30 172.5t79 156.5q105 142 334 248q77 36 81 31q3 -14 -195 -132q137 48 246 48q180 0 180 -132zM714 576q0 55 -36 82q-25 19 -52 24q-15 3 -65 3q-121 0 -247 -51
q-140 -57 -193 -143q-91 -149 -91 -290q0 -71 27 -116q33 -55 100 -55q211 0 404 236q153 187 153 310zM666 1019q0 -42 -125 -137q-76 -58 -104 -52q-14 3 -14 7t20 18q35 24 53 40q26 23 78 60q37 26 47 45q17 32 33 41q12 -7 12 -22z" />
    <glyph glyph-name="Ocircumflex" unicode="&#xd4;" horiz-adv-x="757" 
d="M755 584q0 -117 -113 -267q-95 -126 -210 -210q-147 -107 -275 -107q-157 0 -157 192q0 83 30 172.5t79 156.5q105 142 334 248q77 36 81 31q3 -14 -195 -132q137 48 246 48q180 0 180 -132zM714 576q0 55 -36 82q-25 19 -52 24q-15 3 -65 3q-121 0 -247 -51
q-140 -57 -193 -143q-91 -149 -91 -290q0 -71 27 -116q33 -55 100 -55q211 0 404 236q153 187 153 310zM709 851q28 -22 -28 -18q-56 18 -73 92q-3 37 -12 76l-196 -172q-9 -8 -20 -8q-16 0 -16 16q0 9 246 200q25 0 24 -23q-10 -12 -3 -49q1 -20 5 -36q14 -55 57 -71z" />
    <glyph glyph-name="Otilde" unicode="&#xd5;" horiz-adv-x="757" 
d="M755 584q0 132 -180 132q-109 0 -246 -48q198 118 195 132q-4 5 -81 -31q-229 -106 -334 -248q-49 -67 -79 -156.5t-30 -172.5q0 -192 157 -192q128 0 275 107q115 84 210 210q113 150 113 267zM714 576q0 -123 -153 -310q-193 -236 -404 -236q-67 0 -100 55
q-27 45 -27 116q0 141 91 290q53 86 193 143q126 51 247 51q50 0 65 -3q27 -5 52 -24q36 -27 36 -82zM706 888q0 4 -3 4q1 0 -34 -30.5t-53 -30.5q-14 0 -38 20q-40 33 -52 40q-36 21 -81 23q-79 4 -79 -64q0 -28 8 -28q11 0 13 18q2 23 9 32q13 18 51 18q46 0 76 -21
q42 -39 44 -40q27 -20 54 -20q17 0 51 31t34 48z" />
    <glyph glyph-name="Odieresis" unicode="&#xd6;" horiz-adv-x="757" 
d="M755 584q0 132 -180 132q-109 0 -246 -48q198 118 195 132q-4 5 -81 -31q-229 -106 -334 -248q-49 -67 -79 -156.5t-30 -172.5q0 -192 157 -192q128 0 275 107q115 84 210 210q113 150 113 267zM714 576q0 -123 -153 -310q-193 -236 -404 -236q-67 0 -100 55
q-27 45 -27 116q0 141 91 290q53 86 193 143q126 51 247 51q50 0 65 -3q27 -5 52 -24q36 -27 36 -82zM667 845v2q-1 6 -4 10l-4 3l-3 2l-2 1q-3 2 -5 3q-5 1 -9 1l-4 -1h-1q-7 -2 -15 -7l-2 -2l-2 -2l-6 -5l-3 -3q-5 -5 -9 -10l-3 -3q0 -2 -2 -4q0 -1 -1 -3q-1 -4 -1 -8
t2 -7q1 -2 2 -3h2q1 -1 2 -1.5t2 -0.5h7h3q7 0 14 3q2 0 3 0.5l3 1.5l4 2l5 2q3 1 5 2l4 2q4 3 7 5l2 2q5 5 7 10q1 3 2 5v3zM425 846q0 11 -10.5 17.5t-20.5 4.5q-12 -3 -28.5 -19.5t-16.5 -27.5q0 -12 16 -12q15 0 33 8q27 12 27 29z" />
    <glyph glyph-name="multiply" unicode="&#xd7;" horiz-adv-x="362" 
d="M378 668q0 2 -1.5 4t-5.5 2q-6 0 -18 -6.5t-25.5 -16t-27 -20t-23.5 -18.5q-17 -15 -35.5 -32.5t-42.5 -41.5q-22 39 -38.5 62t-34.5 46q-4 4 -11.5 13.5t-16 19t-16.5 16.5t-14 7t-6 -4q0 -1 0.5 -2.5t5 -8.5t14.5 -20.5t28 -38.5q12 -17 32 -47t37 -61l-14 -14
q-2 -2 -5 -5.5t-11 -11.5q-6 -6 -18.5 -19t-27.5 -30t-31.5 -36.5t-29.5 -38.5q-9 -12 -24 -34.5t-29.5 -47t-25 -47.5t-10.5 -38q0 -13 5 -13q1 0 3 2t8.5 11t19 27.5t35.5 52.5q10 15 27 40t39 55.5t48 62.5t53 61q17 -37 28.5 -70.5t22.5 -70.5q4 -14 9 -29.5t9.5 -28
t9.5 -21t9 -8.5q6 0 7 8t1 13q0 11 -3 27t-7.5 32.5t-9 31t-7.5 22.5q-15 42 -25 65t-24 47q14 15 26.5 26.5t26 23t29 24t35.5 28.5q4 3 12 10t16.5 14.5t15 15t6.5 10.5z" />
    <glyph glyph-name="Oslash" unicode="&#xd8;" horiz-adv-x="757" 
d="M681 960q1 4 -1 5q-28 7 -122 -176l-39 -76q-86 -10 -188 -45q198 118 195 132q-4 5 -81 -31q-229 -106 -334 -248q-49 -67 -79 -156.5t-30 -172.5q0 -154 100 -185q-55 -76 -89 -137q-14 -24 -8 -26q3 -1 6 -1q39 0 147 157h1q128 0 275 107q115 84 210 210
q113 150 113 267q0 132 -180 132h-7q74 138 100 208q11 29 11 36zM716 576q0 -123 -153 -310q-184 -225 -384 -236q18 28 39 61q126 213 177 306l144 262l14 26h10q50 0 65 -3q27 -5 52 -24q36 -27 36 -82zM503 682l-127 -249q-67 -131 -153 -258q-66 -94 -101 -141
q-40 12 -63 51q-27 45 -27 116q0 141 91 290q53 86 193 143q95 38 187 48z" />
    <glyph glyph-name="Ugrave" unicode="&#xd9;" horiz-adv-x="1265" 
d="M1261 237q0 6 -7 6q-14 0 -78 -47q-84 -62 -122 -86q-75 -47 -114 -47q-47 0 -47 57q0 110 149 355q22 36 112 147q70 86 70 112q0 18 -18 18q-22 0 -72 -57q-33 -38 -112 -145q-74 -100 -109 -138q-109 -118 -251 -223q-194 -144 -307 -144q-59 0 -59 40q0 55 109 195
q145 184 201 255q108 139 108 205q0 60 -98 60q-107 0 -266 -111q-119 -83 -244 -207q-111 -110 -103 -114q13 -7 118 94q138 132 227 197q149 108 255 108q35 0 64 -11q7 -3 7 -13q0 -44 -107 -197q-93 -133 -224 -289q-94 -112 -94 -183q0 -74 100 -74q115 0 285 122
q122 88 258 227q61 63 89 93q-32 -46 -67 -128q-52 -122 -52 -196q0 -87 73 -88q63 0 198 89q128 85 128 118zM1045 763q0 4 -21 18q-25 17 -47 33q-33 25 -87 62q-38 26 -49 44q-20 32 -35 40q-10 -8 -10 -22q0 -44 129 -134q79 -55 106 -48q14 4 14 7z" />
    <glyph glyph-name="Uacute" unicode="&#xda;" horiz-adv-x="1265" 
d="M1261 237q0 -33 -128 -118q-135 -89 -198 -89q-73 1 -73 88q0 75 52 196q36 83 67 129q-28 -31 -89 -94q-136 -139 -258 -227q-170 -122 -285 -122q-100 0 -100 74q0 71 94 183q131 156 224 289q107 153 107 197q0 10 -7 13q-28 11 -64 11q-106 0 -255 -108
q-89 -65 -227 -197q-105 -101 -118 -94q-8 4 103 114q126 125 244 207q160 111 266 111q98 0 98 -60q0 -66 -108 -205q-56 -71 -201 -255q-109 -140 -109 -195q0 -40 59 -40q113 0 307 144q144 107 251 223q36 39 109 138q81 109 112 145q50 57 72 57q18 0 18 -18
q0 -26 -70 -112q-90 -111 -112 -147q-149 -245 -149 -355q0 -57 47 -57q39 0 114 47q38 24 122 86q64 47 78 47q7 0 7 -6zM1176 961q0 -41 -136 -122q-72 -43 -106 -43q-22 0 -22 9q0 4 22 16q33 17 57 34q11 8 86 49q38 21 52 40q22 30 38 36q9 -7 9 -19z" />
    <glyph glyph-name="Ucircumflex" unicode="&#xdb;" horiz-adv-x="1265" 
d="M1261 237q0 6 -7 6q-14 0 -78 -47q-84 -62 -122 -86q-75 -47 -114 -47q-47 0 -47 57q0 110 149 355q22 36 112 147q70 86 70 112q0 18 -18 18q-22 0 -72 -57q-33 -38 -112 -145q-74 -100 -109 -138q-109 -118 -251 -223q-194 -144 -307 -144q-59 0 -59 40q0 55 109 195
q145 184 201 255q108 139 108 205q0 60 -98 60q-107 0 -266 -111q-119 -83 -244 -207q-111 -110 -103 -114q13 -7 118 94q138 132 227 197q149 108 255 108q35 0 64 -11q7 -3 7 -13q0 -44 -107 -197q-93 -133 -224 -289q-94 -112 -94 -183q0 -74 100 -74q115 0 285 122
q122 88 258 227q61 63 89 93q-32 -46 -67 -128q-52 -122 -52 -196q0 -87 73 -88q63 0 198 89q128 85 128 118zM1144 874q0 10 -4 10l-25 -16q-26 -16 -42 -16q-66 0 -66 79q0 15 2 36q12 38 23 49q0 26 -24 22q-246 -191 -246 -200q0 -15 16 -15q10 0 20 7l132 117l64 55
q-11 -39 -11 -75q0 -97 79 -97q82 0 82 44z" />
    <glyph glyph-name="Udieresis" unicode="&#xdc;" horiz-adv-x="1265" 
d="M1261 237q0 6 -7 6q-14 0 -78 -47q-84 -62 -122 -86q-75 -47 -114 -47q-47 0 -47 57q0 110 149 355q22 36 112 147q70 86 70 112q0 18 -18 18q-22 0 -72 -57q-33 -38 -112 -145q-74 -100 -109 -138q-109 -118 -251 -223q-194 -144 -307 -144q-59 0 -59 40q0 55 109 195
q145 184 201 255q108 139 108 205q0 60 -98 60q-107 0 -266 -111q-119 -83 -244 -207q-111 -110 -103 -114q13 -7 118 94q138 132 227 197q149 108 255 108q35 0 64 -11q7 -3 7 -13q0 -44 -107 -197q-93 -133 -224 -289q-94 -112 -94 -183q0 -74 100 -74q115 0 285 122
q122 88 258 227q61 63 89 93q-32 -46 -67 -128q-52 -122 -52 -196q0 -87 73 -88q63 0 198 89q128 85 128 118zM1142 847v2q-1 8 -8 13l-3 2l-2 1q-7 4 -14 4l-4 -1q-2 -1 -3 -1l-3 -1q-5 -2 -12 -7l-2 -2q-2 -1 -3 -2l-6 -6l-5 -5q-3 -3 -5 -6q-3 -5 -5 -9q-1 -4 -1 -8v-2
v-2l1 -2l1 -1q1 -2 2 -3q4 -2 9 -2h4q5 0 10 1q3 0 5 1q8 3 17 7h1l4 2q5 3 9 6q1 1 2 1l4 4q1 2 2 3q3 4 4 8q1 2 1 5zM900 848q0 11 -10.5 17.5t-20.5 4.5q-12 -3 -28.5 -19.5t-16.5 -27.5q0 -12 16 -12q15 0 33 8q27 12 27 29z" />
    <glyph glyph-name="Yacute" unicode="&#xdd;" horiz-adv-x="1119" 
d="M1116 571q0 -14 -4.5 -33.5t-16 -51.5t-32 -79.5t-53.5 -116.5q-32 -68 -63 -128.5t-64 -121.5q55 29 92 46.5t60.5 27.5t37 13.5t22.5 5.5q-4 -5 -11 -11t-30.5 -20t-69 -38.5t-125.5 -66.5l-41 -67q-16 -28 -33 -54q-50 -77 -85.5 -120t-61 -63.5t-42 -25t-29.5 -4.5
q-34 0 -60.5 13t-26.5 44q0 33 30.5 76t91.5 85q25 17 56.5 36.5t64.5 38t63.5 35t53.5 27.5q38 66 66.5 121.5t58.5 116.5q22 45 36.5 75t24.5 51.5t16 38.5t11 37q-16 -17 -27.5 -30.5t-21.5 -26t-20.5 -26t-23.5 -30.5q-59 -75 -116.5 -137t-113.5 -106.5t-110.5 -69
t-106.5 -24.5q-9 0 -27.5 2t-37 11t-32 28.5t-13.5 55.5q0 14 2.5 33.5t10.5 46.5t22 62.5t37 80.5q16 32 31.5 60t31.5 55.5t33.5 56t37.5 61.5q13 21 25.5 43t23 40t17 31t6.5 17q0 3 -4 2.5t-6 -0.5q-23 0 -50.5 -9t-53.5 -20q-34 -14 -69.5 -33.5t-76.5 -43.5
q-28 -17 -57 -35t-58 -40q-24 -18 -46 -37t-44.5 -42t-47 -50.5t-53.5 -60.5q-52 -60 -74.5 -86t-28.5 -26q-2 0 -2.5 2t-0.5 4q0 5 3 13.5t12 23t25.5 36t43.5 53.5q39 45 85.5 91.5t100.5 91t116 85.5t132 75q65 31 101.5 42t58.5 11q19 0 23.5 -7t4.5 -15
q0 -12 -8.5 -34.5t-20 -47.5t-23.5 -47.5t-19 -35.5l-133 -240q-22 -39 -35.5 -70.5t-21.5 -56.5t-11 -44.5t-3 -34.5q0 -9 2 -20.5t9 -22t21 -18t38 -7.5q58 0 121.5 35.5t127.5 92.5t126 129t117 144q39 51 60 79t31.5 41.5t13 16.5t4.5 3q4 0 4.5 -3t0.5 -5zM813 -28
q-18 -9 -47 -24t-58.5 -31t-54.5 -30.5t-37 -22.5q-14 -9 -29.5 -22.5t-34.5 -34.5q-2 -3 -8.5 -10.5t-13.5 -18t-12 -21.5t-5 -21q0 -11 6.5 -18t16 -11t19.5 -5t17 -1q9 0 25 5.5t39.5 25.5t55.5 58.5t73 104.5zM1161 885q-10 -15 -31 -31t-43.5 -30t-41 -24t-23.5 -13
l-16 -8q-10 -5 -21.5 -10t-23.5 -9.5t-21 -6.5q-18 -4 -29 -1t-11 8q0 6 14.5 13t25.5 12q15 8 29 16l28 16q17 10 35 19.5t36 18.5q13 7 27 15t26 22q9 11 16.5 20.5t22.5 14.5q3 -2 6 -7t3 -13q0 -6 -2.5 -11.5t-5.5 -10.5z" />
    <glyph glyph-name="germandbls" unicode="&#xdf;" horiz-adv-x="936" 
d="M934 312q3 83 -146 119q-88 21 -219 22q174 97 260 146q47 33 47 84q0 14 -2 25q-18 97 -128 97q-44 0 -89 -15q3 12 3 24q0 36 -18 36q-17 0 -71 -97q-67 -120 -76 -131l-313 -396q-62 -78 -129 -140q-47 -43 -47 -50q0 -11 13 -11q26 0 106 80q25 25 127 136
q125 168 213 296l-166 -372q-51 -115 -118 -309q-63 -183 -70 -238h45q-3 10 -3 24q0 75 75 259q100 244 139 337q185 458 248 506q34 26 112 26q116 0 115 -81q0 -39 -122 -110q-90 -53 -170 -83q-44 -17 -52 -29q-3 -6 -3 -39q0 -12 101 -14q131 -3 188 -15
q102 -22 105 -84q4 -97 -94 -175q-86 -68 -195 -89q-5 -1 -13 -1q-18 0 -18 16q0 9 6 26.5t6 24.5q0 6 -6 5q-17 -3 -32 -32t-15 -49q0 -36 41 -39q54 -4 150 52q81 47 131 96q81 80 84 162z" />
    <glyph glyph-name="agrave" unicode="&#xe0;" horiz-adv-x="828" 
d="M827 166q1 -1 1 -3q0 -13 -53 -65q-130 -127 -238 -127q-32 0 -60 15q-58 31 -58 114q0 94 68 224q-281 -328 -417 -328q-32 0 -51 19t-19 51q0 76 84 192q68 94 146 160q97 82 160 82q26 0 43.5 -15.5t17.5 -41.5q0 -42 -43 -109q-8 -12 -65 -74t-60 -59q-4 5 29 43
q48 56 65 82q36 56 36 92q0 29 -22 49q-7 6 -17 6q-52 0 -152 -97q-74 -72 -125 -142q-72 -99 -72 -153q0 -49 52 -49q63 0 184 104q68 59 196 190q96 99 105 93q1 -1 1 -4q0 -10 -29 -65q-35 -67 -54 -114q-30 -76 -30 -123q0 -67 50 -96q19 -11 45 -11q50 0 120 43
q37 23 108 80q50 40 54 37zM579 571q0 -3 -14 -7q-28 -7 -106 48q-130 92 -130 134q0 14 11 22q16 -8 35 -40q10 -18 47.5 -44.5t135.5 -95.5q21 -15 21 -17z" />
    <glyph glyph-name="aacute" unicode="&#xe1;" horiz-adv-x="828" 
d="M827 166q1 -1 1 -3q0 -13 -53 -65q-130 -127 -238 -127q-32 0 -60 15q-58 31 -58 114q0 94 68 224q-281 -328 -417 -328q-32 0 -51 19t-19 51q0 76 84 192q68 94 146 160q97 82 160 82q26 0 43.5 -15.5t17.5 -41.5q0 -42 -43 -109q-8 -12 -65 -74t-60 -59q-4 5 29 43
q48 56 65 82q36 56 36 92q0 29 -22 49q-7 6 -17 6q-52 0 -152 -97q-74 -72 -125 -142q-72 -99 -72 -153q0 -49 52 -49q63 0 184 104q68 59 196 190q96 99 105 93q1 -1 1 -4q0 -10 -29 -65q-35 -67 -54 -114q-30 -76 -30 -123q0 -67 50 -96q19 -11 45 -11q50 0 120 43
q37 23 108 80q50 40 54 37zM722 723q-2 -27 -82 -82q-59 -41 -107 -65q-28 -14 -49 -14q-25 0 -30 19q14 12 49 19q21 4 58 31q45 30 134 92q20 15 24 15t3 -15z" />
    <glyph glyph-name="acircumflex" unicode="&#xe2;" horiz-adv-x="828" 
d="M827 166q1 -1 1 -3q0 -13 -53 -65q-130 -127 -238 -127q-32 0 -60 15q-58 31 -58 114q0 94 68 224q-281 -328 -417 -328q-32 0 -51 19t-19 51q0 76 84 192q68 94 146 160q97 82 160 82q26 0 43.5 -15.5t17.5 -41.5q0 -42 -43 -109q-8 -12 -65 -74t-60 -59q-4 5 29 43
q48 56 65 82q36 56 36 92q0 29 -22 49q-7 6 -17 6q-52 0 -152 -97q-74 -72 -125 -142q-72 -99 -72 -153q0 -49 52 -49q63 0 184 104q68 59 196 190q96 99 105 93q1 -1 1 -4q0 -10 -29 -65q-35 -67 -54 -114q-30 -76 -30 -123q0 -67 50 -96q19 -11 45 -11q50 0 120 43
q37 23 108 80q50 40 54 37zM599 572q28 -22 -28 -18q-56 18 -73 92q-3 37 -12 76l-196 -172q-9 -8 -20 -8q-16 0 -16 16q0 9 246 200q25 0 24 -23q-10 -12 -3 -49q1 -20 5 -36q14 -55 57 -71z" />
    <glyph glyph-name="atilde" unicode="&#xe3;" horiz-adv-x="828" 
d="M827 166q-4 3 -54 -37q-71 -57 -108 -80q-70 -43 -120 -43q-26 0 -45 11q-50 29 -50 96q0 47 30 123q19 47 54 114q29 55 29 65q0 3 -1 4q-9 6 -105 -93q-128 -131 -196 -190q-121 -104 -184 -104q-52 0 -52 49q0 54 72 153q51 70 125 142q100 97 152 97q10 0 17 -6
q22 -20 22 -49q0 -36 -36 -92q-17 -26 -65 -82q-33 -38 -29 -43q3 -3 60 59t65 74q43 67 43 109q0 26 -17.5 41.5t-43.5 15.5q-63 0 -160 -82q-78 -66 -146 -160q-84 -116 -84 -192q0 -32 19 -51t51 -19q136 0 417 328q-68 -130 -68 -224q0 -83 58 -114q28 -15 60 -15
q108 0 238 127q53 52 53 65q0 2 -1 3zM627 651q0 4 -3 4q1 0 -34 -30.5t-52 -30.5q-12 0 -38 21q-35 28 -53 39q-36 21 -81 23q-78 3 -78 -64q0 -28 7 -28q12 0 14 18q2 25 8 33q12 17 51 17q46 0 77 -21l44 -39q24 -21 53 -21q17 0 51 31t34 48z" />
    <glyph glyph-name="adieresis" unicode="&#xe4;" horiz-adv-x="828" 
d="M827 166q-4 3 -54 -37q-71 -57 -108 -80q-70 -43 -120 -43q-26 0 -45 11q-50 29 -50 96q0 47 30 123q19 47 54 114q29 55 29 65q0 3 -1 4q-9 6 -105 -93q-128 -131 -196 -190q-121 -104 -184 -104q-52 0 -52 49q0 54 72 153q51 70 125 142q100 97 152 97q10 0 17 -6
q22 -20 22 -49q0 -36 -36 -92q-17 -26 -65 -82q-33 -38 -29 -43q3 -3 60 59t65 74q43 67 43 109q0 26 -17.5 41.5t-43.5 15.5q-63 0 -160 -82q-78 -66 -146 -160q-84 -116 -84 -192q0 -32 19 -51t51 -19q136 0 417 328q-68 -130 -68 -224q0 -83 58 -114q28 -15 60 -15
q108 0 238 127q53 52 53 65q0 2 -1 3zM408 594q0 11 -11 17.5t-21 3.5q-13 -3 -29.5 -19t-16.5 -29q0 -12 17 -12q43 0 57 28q4 5 4 11zM558 595v2q0 2 -0.5 3.5t-1.5 3t-2 3.5l-4 3l-3 2q-3 3 -7 4q-2 1 -5 1q-4 1 -9 0h-1q-4 -1 -7 -3l-2 -1l-2 -1q-3 -2 -7 -6l-5 -4
l-5 -5q-10 -9 -14 -16l-2 -4v-2l-1 -4v-2q0 -7 4 -10h2q1 -1 2 -1.5t2 -0.5h7h6q5 0 9 1h4q5 1 10 3q4 2 7 3l4 2q7 4 12 10q2 2 3 4l2 2l1 2q2 5 3 9v2z" />
    <glyph glyph-name="aring" unicode="&#xe5;" horiz-adv-x="828" 
d="M827 166q-4 3 -54 -37q-71 -57 -108 -80q-70 -43 -120 -43q-26 0 -45 11q-50 29 -50 96q0 47 30 123q19 47 54 114q29 55 29 65q0 3 -1 4q-9 6 -105 -93q-128 -131 -196 -190q-121 -104 -184 -104q-52 0 -52 49q0 54 72 153q51 70 125 142q100 97 152 97q10 0 17 -6
q22 -20 22 -49q0 -36 -36 -92q-17 -26 -65 -82q-33 -38 -29 -43q3 -3 60 59t65 74q43 67 43 109q0 26 -17.5 41.5t-43.5 15.5q-63 0 -160 -82q-78 -66 -146 -160q-84 -116 -84 -192q0 -32 19 -51t51 -19q136 0 417 328q-68 -130 -68 -224q0 -83 58 -114q28 -15 60 -15
q108 0 238 127q53 52 53 65q0 2 -1 3zM549 716q0 24 -24 45q-34 30 -66 30q-16 0 -37 -10l-36 -18q-60 -27 -69 -111q-4 -37 -4 -38q0 -30 29 -30q34 0 112 38q95 46 95 94zM526 706q0 -11 -33 -40q-21 -19 -65 -39q-48 -23 -72 -23q-21 0 -18 18l4 62q8 33 56 61
q41 24 69 24q24 0 41.5 -19.5t17.5 -43.5z" />
    <glyph glyph-name="ae" unicode="&#xe6;" horiz-adv-x="1084" 
d="M505 233q17 12 22 15.5t14 9.5t24.5 18.5t33 26.5t33 27t23.5 21l71 65q5 4 14.5 14t19 22t16.5 23t7 19q0 10 -11.5 18t-43.5 8q-57 0 -107 -33t-80 -87q3 24 8 39t9 26t7 19.5t3 18.5q0 5 -2 10t-4 5q-4 0 -16 -14t-25 -31.5t-25 -34t-16 -22.5q-19 -27 -49 -65
t-63.5 -77.5t-67 -76.5t-60.5 -61q-9 -8 -30 -25t-47.5 -34.5t-55 -31t-53.5 -13.5q-18 0 -28 6t-15 14t-6 16t-1 13q0 7 2 19.5t9.5 31t21.5 44t39 58.5q39 53 74 90t51 52q15 14 34 31t39 31.5t40 24.5t37 10q10 0 19 -6q12 -9 17 -24t5 -26q0 -20 -11 -45.5t-25 -45.5
q-5 -8 -13.5 -19t-17.5 -22.5t-18.5 -22.5t-15.5 -18q-17 -19 -22.5 -26.5t-6.5 -16.5q19 14 32.5 28.5t27.5 30.5q19 20 35.5 38t29.5 36q8 11 15.5 25t13.5 29t10 29t4 26q0 23 -15.5 40t-45.5 17q-8 0 -22 -2t-33.5 -10.5t-45.5 -25t-59 -44.5q-57 -49 -90.5 -89.5
t-55.5 -70.5q-11 -15 -25.5 -37t-27.5 -47.5t-22 -53.5t-9 -54q0 -33 18.5 -51.5t50.5 -18.5q27 0 57.5 12t60 30t55.5 38.5t44 37.5q30 27 62.5 63t64.5 75.5t62.5 81t55.5 80.5q-8 -24 -15 -52.5t-12.5 -56t-9 -53.5t-3.5 -45q0 -36 12.5 -78.5t35.5 -69.5q16 -19 34 -30
t36.5 -17t35.5 -8t31 -2q61 0 118 23t102 52q63 40 105.5 82t73.5 77q22 25 25.5 34.5t0.5 12.5q-8 -4 -15 -10t-22 -21l-30 -30q-17 -17 -38 -36.5t-44 -39.5t-47 -36q-56 -38 -115.5 -55.5t-109.5 -17.5q-26 0 -55 7t-55 30q-20 17 -30 39t-14 44t-3 42t3 34zM509 264
q8 36 20.5 65t32.5 60q10 15 24.5 34t34 36t44.5 28.5t55 11.5q17 0 22.5 -5.5t5.5 -10.5t-3.5 -12t-9 -14t-11 -13.5t-9.5 -10.5q-8 -8 -20.5 -19t-25.5 -22.5t-24.5 -21t-16.5 -13.5l-92 -71z" />
    <glyph glyph-name="ccedilla" unicode="&#xe7;" horiz-adv-x="579" 
d="M573 289q-1 0 -3.5 -2t-11 -8.5t-23 -19t-39.5 -33.5q-27 -23 -58 -47.5t-65.5 -48.5t-72.5 -45t-77 -35q-23 -8 -45 -13t-45 -5q-19 0 -37 5.5t-32 25.5q-6 9 -13 29t-7 60q0 59 13.5 102t26.5 69q7 14 24.5 41t55.5 59q23 19 52.5 35t61.5 16q17 0 23.5 -3.5t6.5 -9.5
q0 -4 -4.5 -12.5t-16.5 -27.5q-15 -23 -18 -28.5t-3 -6.5q0 -4 7 -4q6 0 12 4.5t11 11t9.5 13t6.5 10.5q17 29 20.5 41.5t3.5 17.5q0 7 -4.5 11.5t-21.5 4.5q-23 0 -44.5 -3t-40.5 -9q-48 -14 -81.5 -42.5t-56.5 -56.5q-27 -33 -43 -65.5t-24.5 -62t-11 -54t-2.5 -42.5
q0 -49 10.5 -75t18.5 -37q20 -29 47 -40t62 -9q-13 -12 -20 -21.5t-22 -30.5q-19 -26 -29.5 -43.5t-10.5 -37.5q0 -5 1.5 -7t9.5 -2q9 0 17.5 3t25.5 8q8 2 16.5 4.5t26.5 2.5q20 0 38.5 -8t18.5 -35t-19.5 -49t-37.5 -34q-23 -15 -47.5 -22.5t-44.5 -7.5q-17 0 -27 3.5
t-17 8.5q-12 9 -18 22q-2 -3 -3 -7l-2 -8v-6q1 -7 5 -12t8 -8q24 -18 57 -18q26 0 55 10t49 23q75 49 75 112q0 14 -4.5 24t-16.5 18q-11 7 -29.5 10t-29.5 3q-5 0 -15 -1t-15 -2q-10 -2 -16.5 -3.5t-19.5 -1.5q-2 0 -5 0.5t-3 5.5q0 2 3.5 6.5t16.5 23.5l17 24
q9 13 17.5 24t20.5 31q17 2 40.5 8t54.5 19q40 17 74.5 38t64.5 44q19 14 33.5 26t27 23.5t24 23.5t25.5 26q5 5 15 15.5t20 22.5t17.5 22t7.5 15q0 4 -1 4z" />
    <glyph glyph-name="egrave" unicode="&#xe8;" horiz-adv-x="615" 
d="M614 281q0 3 -1 4q-7 4 -66 -57q-76 -80 -143 -122q-106 -67 -214 -67q-75 0 -116 41t-41 116q0 17 2 34q52 28 166 133q65 59 74 69q40 42 40 62q0 28 -66 28q-105 0 -179 -118q-53 -85 -64 -174q-6 -8 -5 -10q1 -1 4 -1q-1 -16 -1 -31q0 -88 46.5 -138t134.5 -50
q93 0 199 62q87 50 165 131q65 67 65 88zM93 387q67 110 155 110q28 0 28 -14q0 -29 -143 -143q-59 -47 -92 -76q13 60 52 123zM367 596q0 4 -20.5 17.5t-46.5 33.5q-57 40 -88 62q-38 26 -49 44q-20 33 -35 40q-10 -8 -10 -22q0 -43 130 -134q78 -55 105 -48q14 4 14 7z
" />
    <glyph glyph-name="eacute" unicode="&#xe9;" horiz-adv-x="615" 
d="M614 281q0 -21 -65 -88q-78 -81 -165 -131q-106 -62 -199 -62q-88 0 -134.5 50t-46.5 138q0 15 1 31q-3 0 -4 1q-1 2 5 10q11 89 64 174q74 118 179 118q66 0 66 -28q0 -20 -40 -62q-9 -10 -74 -69q-114 -105 -166 -133q-2 -17 -2 -34q0 -75 41 -116t116 -41
q108 0 214 67q67 42 143 122q59 61 66 57q1 -1 1 -4zM93 387q-39 -63 -52 -123q33 29 92 76q143 114 143 143q0 14 -28 14q-88 0 -155 -110zM474 769q-1 -23 -69 -73q-61 -45 -120 -74q-28 -14 -49 -14q-25 0 -30 19q14 12 49 19q20 4 58 31q45 30 134 92q20 15 24 15t3 -15
z" />
    <glyph glyph-name="ecircumflex" unicode="&#xea;" horiz-adv-x="615" 
d="M614 281q0 -21 -65 -88q-78 -81 -165 -131q-106 -62 -199 -62q-88 0 -134.5 50t-46.5 138q0 15 1 31q-3 0 -4 1q-1 2 5 10q11 89 64 174q74 118 179 118q66 0 66 -28q0 -20 -40 -62q-9 -10 -74 -69q-114 -105 -166 -133q-2 -17 -2 -34q0 -75 41 -116t116 -41
q108 0 214 67q67 42 143 122q59 61 66 57q1 -1 1 -4zM93 387q-39 -63 -52 -123q33 29 92 76q143 114 143 143q0 14 -28 14q-88 0 -155 -110zM431 616q28 -22 -28 -18q-56 18 -73 92q-3 37 -12 76l-196 -172q-9 -8 -20 -8q-16 0 -16 16q0 9 246 200q25 0 24 -23
q-10 -12 -3 -49q1 -20 5 -36q14 -55 57 -71z" />
    <glyph glyph-name="edieresis" unicode="&#xeb;" horiz-adv-x="615" 
d="M614 281q0 3 -1 4q-7 4 -66 -57q-76 -80 -143 -122q-106 -67 -214 -67q-75 0 -116 41t-41 116q0 17 2 34q52 28 166 133q65 59 74 69q40 42 40 62q0 28 -66 28q-105 0 -179 -118q-53 -85 -64 -174q-6 -8 -5 -10q1 -1 4 -1q-1 -16 -1 -31q0 -88 46.5 -138t134.5 -50
q93 0 199 62q87 50 165 131q65 67 65 88zM93 387q67 110 155 110q28 0 28 -14q0 -29 -143 -143q-59 -47 -92 -76q13 60 52 123zM223 608q0 11 -10.5 17.5t-21.5 4.5q-12 -3 -29 -19.5t-17 -28.5t17 -12q16 0 34 8q27 12 27 30zM374 609v3q0 1 -1 2q-1 5 -6 10l-4 3l-3 2
q-2 1 -5 2h-2t-3 1q-3 0 -7 -1h-1q-6 -1 -12 -5q-3 -2 -8 -6q-1 -1 -2 -1l-8 -8l-6 -6l-3 -4q-4 -5 -6 -10v-2l-1 -1v-5v-2v-2q1 -2 2 -3.5t2 -2.5h2l4 -2h3h4h7l9 2q7 2 13 5l4 2h1l8 4q2 2 3.5 3t2.5 1q1 2 3 2l1 2l3 3h1q1 2 2 3q1 3 2 4v2q1 2 1 5z" />
    <glyph glyph-name="igrave" unicode="&#xec;" horiz-adv-x="526" 
d="M524 321q-2 2 -40 -40q-96 -106 -161 -158q-109 -86 -197 -86q-37 0 -37 45q0 55 51 164q100 218 101 226l1 2q-38 0 -143 -106q-101 -102 -95 -115q1 -1 2 -1q23 0 183 173q-129 -237 -129 -351q0 -74 62 -74q95 0 210 93q93 75 163 176q34 49 29 52zM374 538
q0 3 -20 17q-98 69 -135.5 95.5t-47.5 44.5q-19 32 -35 40q-11 -8 -11 -22q0 -41 130 -134q68 -49 98 -49q21 0 21 8z" />
    <glyph glyph-name="iacute" unicode="&#xed;" horiz-adv-x="526" 
d="M524 321q5 -3 -29 -52q-70 -101 -163 -176q-115 -93 -210 -93q-62 0 -62 74q0 114 129 351q-160 -173 -183 -173q-1 0 -2 1q-6 13 95 115q105 106 143 106l-1 -2q-1 -8 -101 -226q-51 -109 -51 -164q0 -45 37 -45q88 0 197 86q65 52 161 158q38 42 40 40zM439 710
q-3 -27 -82 -82q-113 -79 -156 -79q-25 0 -31 19q15 12 50 19q18 4 57 30t135 93q21 15 23 15q5 0 4 -15z" />
    <glyph glyph-name="icircumflex" unicode="&#xee;" horiz-adv-x="526" 
d="M524 321q-2 2 -40 -40q-96 -106 -161 -158q-109 -86 -197 -86q-37 0 -37 45q0 55 51 164q100 218 101 226l1 2q-38 0 -143 -106q-101 -102 -95 -115q1 -1 2 -1q23 0 183 173q-129 -237 -129 -351q0 -74 62 -74q95 0 210 93q93 75 163 176q34 49 29 52zM507 617
q0 10 -4 10q-42 -31 -67 -31q-66 0 -66 78q0 16 2 36q13 37 22 49q2 23 -23 23q-246 -191 -246 -200q0 -16 15 -16q10 0 21 8l131 116l64 56q-10 -39 -10 -76q0 -96 79 -96q82 0 82 43z" />
    <glyph glyph-name="idieresis" unicode="&#xef;" horiz-adv-x="526" 
d="M524 321q-2 2 -40 -40q-96 -106 -161 -158q-109 -86 -197 -86q-37 0 -37 45q0 55 51 164q100 218 101 226l1 2q-38 0 -143 -106q-101 -102 -95 -115q1 -1 2 -1q23 0 183 173q-129 -237 -129 -351q0 -74 62 -74q95 0 210 93q93 75 163 176q34 49 29 52zM220 567
q0 10 -11 17t-21 4q-13 -3 -29.5 -19.5t-16.5 -28.5t17 -12q43 0 57 28q4 5 4 11zM370 568v2q0 2 -0.5 3.5t-1.5 3t-2 3.5q-3 3 -7 5q-1 1 -3 2q-3 2 -6.5 2.5t-6.5 0.5h-5q-1 -1 -3 -1q-4 -1 -9 -4q-6 -4 -12 -10l-5 -5q-6 -5 -10 -10l-6 -10l-1 -3v-3v-2q0 -8 6 -10
q4 -2 11 -2h6q20 1 34 9q3 2 5 4q1 1 3 2l5 5q1 1 2 3t3 4v1l2 4q1 3 1 6z" />
    <glyph glyph-name="ntilde" unicode="&#xf1;" horiz-adv-x="836" 
d="M830 269q-2 2 -37 -32q-109 -107 -132 -127q-95 -81 -147 -81q-48 0 -48 73q0 64 41 196q15 50 18 59v12q0 2 -1 3l-3 1q-8 3 -11 4q-8 4 -62 -57q-75 -85 -97 -110q-40 -47 -46 -54q-56 -71 -61 -77q-46 -53 -69 -53q-20 0 -20 31q0 68 59 204q45 104 73 167q7 16 7 23
q0 8 -13 21q-7 7 -149 -135q-131 -131 -131 -155q0 -3 1 -4t60 56q55 54 64 63q122 129 125 121q1 -4 -7 -24l-21 -52q-36 -89 -58 -153q-39 -113 -39 -170q0 -47 29 -47q34 0 73 42q55 61 73 83l175 207q-45 -162 -45 -205q0 -54 4 -63q14 -31 83 -34q68 -3 199 129
q114 115 114 135q0 2 -1 3zM661 578q0 4 -4 4q1 0 -34 -30.5t-52 -30.5q-13 0 -38 21q-35 29 -52 39q-36 21 -81 23q-79 3 -79 -64q0 -28 8 -28q11 0 13 18q3 24 9 33q12 17 51 17q46 0 76 -21q33 -30 44 -39q26 -21 54 -21q17 0 51 31t34 48z" />
    <glyph glyph-name="ograve" unicode="&#xf2;" horiz-adv-x="507" 
d="M501 359q9 106 -101 106q-130 0 -205 -125q-37 -62 -43 -113q-1 -9 0 -10q2 0 5 9l11 25q82 187 233 187q65 0 65 -62q0 -74 -73 -180q-50 -73 -123 -115q-76 -44 -161 -44q-77 0 -77 78q0 97 71 204q68 105 157 150q11 6 53 23q34 14 32 17q-4 7 -44 -2
q-127 -27 -229 -194q-71 -115 -71 -209q0 -104 107 -104q159 0 290 151q94 109 103 208zM428 587q0 2 -21 17q-98 69 -135.5 95.5t-47.5 44.5q-19 32 -35 40q-11 -8 -11 -22q0 -42 130 -134q78 -55 106 -48q14 4 14 7z" />
    <glyph glyph-name="oacute" unicode="&#xf3;" horiz-adv-x="507" 
d="M501 359q-9 -99 -103 -208q-131 -151 -290 -151q-107 0 -107 104q0 94 71 209q102 167 229 194q40 9 44 2q2 -3 -32 -17q-42 -17 -53 -23q-89 -45 -157 -150q-71 -107 -71 -204q0 -78 77 -78q85 0 161 44q73 42 123 115q73 106 73 180q0 62 -65 62q-151 0 -233 -187
l-11 -25q-3 -9 -5 -9q-1 1 0 10q6 51 43 113q75 125 205 125q110 0 101 -106zM577 753q-2 -27 -82 -82q-59 -41 -107 -65q-28 -14 -49 -14q-25 0 -30 19q17 12 49 19q22 4 58 31q45 30 134 92q20 15 24 15t3 -15z" />
    <glyph glyph-name="ocircumflex" unicode="&#xf4;" horiz-adv-x="507" 
d="M501 359q-9 -99 -103 -208q-131 -151 -290 -151q-107 0 -107 104q0 94 71 209q102 167 229 194q40 9 44 2q2 -3 -32 -17q-42 -17 -53 -23q-89 -45 -157 -150q-71 -107 -71 -204q0 -78 77 -78q85 0 161 44q73 42 123 115q73 106 73 180q0 62 -65 62q-151 0 -233 -187
l-11 -25q-3 -9 -5 -9q-1 1 0 10q6 51 43 113q75 125 205 125q110 0 101 -106zM541 582q28 -22 -28 -18q-56 18 -73 92q-3 37 -12 76l-196 -172q-9 -8 -20 -8q-16 0 -16 16q0 9 246 200q25 0 24 -23q-10 -12 -3 -49q1 -20 5 -36q14 -55 57 -71z" />
    <glyph glyph-name="otilde" unicode="&#xf5;" horiz-adv-x="507" 
d="M501 359q-9 -99 -103 -208q-131 -151 -290 -151q-107 0 -107 104q0 94 71 209q102 167 229 194q40 9 44 2q2 -3 -32 -17q-42 -17 -53 -23q-89 -45 -157 -150q-71 -107 -71 -204q0 -78 77 -78q85 0 161 44q73 42 123 115q73 106 73 180q0 62 -65 62q-151 0 -233 -187
l-11 -25q-3 -9 -5 -9q-1 1 0 10q6 51 43 113q75 125 205 125q110 0 101 -106zM545 670q0 -17 -34 -48t-51 -31q-29 0 -53 21l-44 39q-31 21 -77 21q-39 0 -51 -17q-6 -8 -8 -33q-2 -18 -14 -18q-7 0 -7 28q0 67 78 64q45 -2 81 -23q18 -11 53 -39q26 -21 38 -21
q17 0 52 30.5t34 30.5q3 0 3 -4z" />
    <glyph glyph-name="odieresis" unicode="&#xf6;" horiz-adv-x="507" 
d="M501 359q9 106 -101 106q-130 0 -205 -125q-37 -62 -43 -113q-1 -9 0 -10q2 0 5 9l11 25q82 187 233 187q65 0 65 -62q0 -74 -73 -180q-50 -73 -123 -115q-76 -44 -161 -44q-77 0 -77 78q0 97 71 204q68 105 157 150q11 6 53 23q34 14 32 17q-4 7 -44 -2
q-127 -27 -229 -194q-71 -115 -71 -209q0 -104 107 -104q159 0 290 151q94 109 103 208zM481 614q0 3 -1 5q0 2 -1 3.5t-2 3.5q-3 3 -7 5q-6 4 -12 5h-4h-2h-3q-3 -1 -5 -2t-5 -2q-3 -2 -7 -5l-2 -2t-2 -1q-4 -4 -8 -7.5t-7 -7t-5 -6.5q-1 -2 -2 -3l-2 -4v-2q-1 -3 -1 -6v-2
q0 -3 2 -5q2 -3 6 -4q1 -1 2 -1h3h4h5q4 0 7.5 0.5t6.5 1.5l7 2q1 1 3 2t5 2h1q7 4 13 7l1 2q4 3 6 6l2 3q1 1 2 3l1 3q0 2 1 3v3zM331 613q0 11 -11 17.5t-21 3.5q-13 -3 -29.5 -19t-16.5 -29q0 -12 17 -12q14 0 33 9q28 13 28 30z" />
    <glyph glyph-name="divide" unicode="&#xf7;" horiz-adv-x="454" 
d="M451 422q-2 6 -21 6q-36 0 -102 -10q-69 -11 -101 -12l-36 -1q-86 -2 -106 -3q-72 -4 -74 -26q-1 -15 59 -15q30 0 88.5 6t88.5 6q37 0 118 17q90 19 86 32zM249 213q0 19 -26 28q-37 -4 -37 -21q0 -5 3 -10q19 -33 32 -33q10 0 22 19q6 10 6 17zM265 563q0 19 -26 28
q-37 -4 -37 -21q0 -5 3 -10q19 -33 32 -33q10 0 22 19q6 10 6 17z" />
    <glyph glyph-name="oslash" unicode="&#xf8;" horiz-adv-x="507" 
d="M482 592q0 3 -2 4q-26 6 -95 -109q-8 -13 -14 -24q-108 -14 -174 -123q-37 -62 -43 -113q-1 -9 0 -10q2 0 5 9l11 25q68 155 183 181q-73 -121 -101 -169q-49 -83 -116 -161q-3 -4 -56 -61q-46 13 -46 74q0 97 71 204q68 105 157 150q11 6 53 23q34 14 32 17q-4 7 -44 -2
q-127 -27 -229 -194q-71 -115 -71 -209q0 -71 49 -94l-1 -1q-51 -56 -79 -97q-10 -15 -5 -17q3 -1 7 -1q39 0 128 106h8q159 0 290 151q94 109 103 208q8 96 -82 105q38 63 54 105q7 18 7 23zM137 43q86 110 136 195l108 164q12 19 23 36q64 -1 64 -62q0 -74 -73 -180
q-50 -73 -123 -115q-67 -39 -140 -44q2 3 5 6z" />
    <glyph glyph-name="ugrave" unicode="&#xf9;" horiz-adv-x="804" 
d="M798 264q5 -3 -29 -45q-50 -62 -125 -133q-98 -93 -134 -93q-58 0 -58 52q0 50 43 133q19 36 69 130q15 28 18 42q4 18 -7 18q-29 0 -103 -87q-10 -11 -92 -112q-162 -198 -223 -198q-42 0 -42 47q0 62 67 202q29 57 57 114q37 76 43 115q4 23 -9 23q-24 0 -115 -85
q-27 -27 -118 -116q-34 -33 -41 -36q2 8 28 41q58 73 132 140q98 88 153 88q12 0 11 -19q-3 -35 -91 -222q-82 -174 -82 -218q0 -26 21 -25q37 1 115 85q30 32 107 127q151 186 207 183q21 -1 21 -26q0 -38 -64 -167q-68 -137 -68 -168q0 -22 20 -22q30 0 122 83
q4 4 125 116q38 35 42 33zM585 563q0 -3 -14 -7q-25 -7 -104 47q-53 36 -98 80q-33 32 -33 55q0 14 11 22q14 -8 34 -40q12 -19 49 -44q57 -38 80 -57q18 -14 55 -39q20 -13 20 -17z" />
    <glyph glyph-name="uacute" unicode="&#xfa;" horiz-adv-x="804" 
d="M798 264q5 -3 -29 -45q-50 -62 -125 -133q-98 -93 -134 -93q-58 0 -58 52q0 50 43 133q19 36 69 130q15 28 18 42q4 18 -7 18q-29 0 -103 -87q-10 -11 -92 -112q-162 -198 -223 -198q-42 0 -42 47q0 62 67 202q29 57 57 114q37 76 43 115q4 23 -9 23q-24 0 -115 -85
q-27 -27 -118 -116q-34 -33 -41 -36q2 8 28 41q58 73 132 140q98 88 153 88q12 0 11 -19q-3 -35 -91 -222q-82 -174 -82 -218q0 -26 21 -25q37 1 115 85q30 32 107 127q151 186 207 183q21 -1 21 -26q0 -38 -64 -167q-68 -137 -68 -168q0 -22 20 -22q30 0 122 83
q4 4 125 116q38 35 42 33zM727 729q-3 -28 -81 -83q-60 -42 -107 -64q-29 -14 -49 -14q-25 0 -31 19q14 12 50 19q19 4 57 31q45 30 134 92q20 15 24 15q5 0 3 -15z" />
    <glyph glyph-name="ucircumflex" unicode="&#xfb;" horiz-adv-x="804" 
d="M798 264q-4 2 -42 -33q-121 -112 -125 -116q-92 -83 -122 -83q-20 0 -20 22q0 31 68 168q64 129 64 167q0 25 -21 26q-56 3 -207 -183q-77 -95 -107 -127q-78 -84 -115 -85q-21 -1 -21 25q0 44 82 218q88 187 91 222q1 19 -11 19q-55 0 -153 -88q-74 -67 -132 -140
q-26 -33 -28 -41q7 3 41 36q91 89 118 116q91 85 115 85q13 0 9 -23q-6 -39 -43 -115q-28 -57 -57 -114q-67 -140 -67 -202q0 -47 42 -47q61 0 223 198q82 101 92 112q74 87 103 87q11 0 7 -18q-3 -14 -18 -42q-50 -94 -69 -130q-43 -83 -43 -133q0 -52 58 -52q36 0 134 93
q75 71 125 133q34 42 29 45zM707 612q0 10 -4 10q-43 -31 -68 -31q-65 0 -65 78q0 16 2 36q12 37 22 49q1 23 -24 23q-245 -191 -245 -200q0 -16 15 -16q10 0 21 8l131 116l64 56q-11 -39 -11 -76q0 -96 79 -96q83 0 83 43z" />
    <glyph glyph-name="udieresis" unicode="&#xfc;" horiz-adv-x="804" 
d="M798 264q-4 2 -42 -33q-121 -112 -125 -116q-92 -83 -122 -83q-20 0 -20 22q0 31 68 168q64 129 64 167q0 25 -21 26q-56 3 -207 -183q-77 -95 -107 -127q-78 -84 -115 -85q-21 -1 -21 25q0 44 82 218q88 187 91 222q1 19 -11 19q-55 0 -153 -88q-74 -67 -132 -140
q-26 -33 -28 -41q7 3 41 36q91 89 118 116q91 85 115 85q13 0 9 -23q-6 -39 -43 -115q-28 -57 -57 -114q-67 -140 -67 -202q0 -47 42 -47q61 0 223 198q82 101 92 112q74 87 103 87q11 0 7 -18q-3 -14 -18 -42q-50 -94 -69 -130q-43 -83 -43 -133q0 -52 58 -52q36 0 134 93
q75 71 125 133q34 42 29 45zM611 596v3q-1 2 -2 5l-1 2l-2 2q-2 3 -6 6q-1 0 -2 1q-3 2 -6 3q-6 2 -12 0h-1q-12 -3 -27 -16l-3 -3l-6 -6q-1 -1 -1 -2l-2 -2q-3 -4 -4 -8l-2 -4q-1 -1 -1 -2v-5q0 -4 2 -7q1 -2 2 -3h2l4 -2h3h4q8 0 15 1l5 1q2 0 5 1l10 4l4 2q3 2 5 4l2 1
q4 3 7 6q2 3 5 7q2 5 3 9v2zM461 595q0 11 -11 17.5t-21 4.5q-12 -3 -29 -19.5t-17 -28.5t17 -12q15 0 33 8t24 19q4 6 4 11z" />
    <glyph glyph-name="yacute" unicode="&#xfd;" horiz-adv-x="818" 
d="M689 216q31 32 54.5 53.5t39.5 34.5t25.5 19.5t13.5 8.5q-8 -17 -19 -36.5t-32 -46t-56 -63.5t-90 -89q-8 -8 -16 -15t-18 -16.5t-22.5 -21.5t-30.5 -29q-11 -11 -21 -20.5t-21 -20.5q-17 -17 -34 -33t-34 -33q-48 -126 -91.5 -221.5t-83.5 -179.5
q-88 -180 -147.5 -263.5t-104.5 -83.5q-8 0 -20 2.5t-23.5 11.5t-19.5 26t-8 46q0 63 26.5 122t61.5 115q20 32 57.5 85t98.5 116l216 223q28 71 53 136.5t49 131t48 132t49 140.5q-26 -26 -82 -80.5t-152 -142.5q-74 -68 -123.5 -111t-82 -68t-50.5 -34t-29 -9t-16.5 4.5
t-8.5 10.5t-3.5 12t-0.5 10q0 24 9.5 59t24.5 73t32.5 75.5t33.5 66.5t26 48.5t16 31.5t8.5 18.5t2.5 10.5q0 3 -1 6t-3 3q-4 0 -15.5 -8.5t-25.5 -20.5t-27.5 -24t-21.5 -19q-34 -28 -55.5 -44.5t-35.5 -26t-22.5 -13t-17.5 -4.5q7 14 17 25t27.5 26t44 37t68.5 57
q4 3 20.5 16.5t35 27.5t34.5 25.5t19 11.5q5 0 5.5 -3.5t0.5 -6.5t-1.5 -11.5t-7.5 -25.5q-14 -41 -36.5 -83.5t-48.5 -94.5q-10 -20 -24 -49.5t-26.5 -60t-21 -57.5t-8.5 -42q0 -5 2.5 -10.5t12.5 -5.5q3 0 12.5 2.5t33 18.5t64.5 49t107 95l233 219q20 19 32.5 30.5
t22 18.5t17 10.5t18.5 6.5q2 -17 0 -29t-7 -30q-9 -31 -16.5 -57.5t-16.5 -56t-21 -64.5t-30 -83q-17 -45 -34 -89t-34 -89q-2 -7 -5 -13.5t-5 -13.5zM185 -341q-18 -18 -58 -67t-93 -140q-3 -6 -15 -28.5t-25 -53.5t-23.5 -65t-10.5 -63q0 -17 4.5 -27t11 -15t14 -6.5
t13.5 -1.5q21 0 44.5 23.5t46 56t40.5 66.5t29 55q33 64 62.5 128.5t55.5 123.5t47.5 110.5t36.5 89.5zM691 732q-2 -27 -82 -82q-59 -41 -107 -65q-28 -14 -49 -14q-25 0 -30 19q14 12 49 19q21 4 58 31q45 30 134 92q20 15 24 15t3 -15z" />
    <glyph glyph-name="ydieresis" unicode="&#xff;" horiz-adv-x="816" 
d="M819 330q-2 2 -20 -13q-56 -47 -110 -101l-234 -241l1 1q123 318 159 462q14 58 7 59q-16 3 -90 -66q-169 -158 -233 -219q-177 -165 -217 -165q-15 0 -15 20q0 44 80 205q37 73 52 101q31 61 41 105q4 19 -3 19q-11 1 -111 -81q-167 -137 -159 -145q2 -2 5 -2
q21 0 108 73q106 89 110 89q8 0 5 -8q-1 -6 -11 -25q-143 -269 -143 -359q0 -39 29 -37q46 2 285 222q124 114 234 223q-96 -280 -200 -540l-215 -223q-86 -89 -156 -201q-88 -141 -88 -237q0 -86 75 -86q79 0 248 347q89 184 176 402q135 132 196 188q195 189 195 229
q0 2 -1 4zM326 -250q-232 -558 -323 -558q-43 0 -43 52q0 83 83 223q69 116 142 192l180 186q-20 -48 -39 -95zM583 650v2q-1 6 -4 10l-4 3l-3 2q-1 1 -3 2l-4 2q-1 0 -2 0.5t-3 0.5q-4 1 -9 0t-10 -4l-2 -1l-3 -2q-6 -5 -14 -13q-6 -5 -10 -10q0 -1 -2 -3q-2 -4 -4 -7
l-1 -3v-3v-2q0 -3 1 -6l1 -1q1 -2 2 -3h2q3 -2 7 -2h4h5q4 0 7 1h3q3 1 7 2q2 1 4 1l7 3l1 1h1q3 1 5.5 2.5t4.5 3t4 3.5q2 1 4 3l1 1l1 2l1 1l2 3l1 2l1 3q0 2 1 3v3zM433 649q0 11 -11 17.5t-21 3.5q-13 -3 -29.5 -19t-16.5 -29q0 -12 17 -12q14 0 33 9q28 13 28 30z" />
    <glyph glyph-name="Abreve" unicode="&#x102;" 
d="M531 984q0 11 6 11q4 0 16 -29q40 -84 116 -89q139 -4 215 104q-36 -131 -212 -133q-78 0 -112 54q-29 44 -29 82zM1143 325q-2 2 -73 -72q-176 -185 -371 -185q-103 0 -103 139q0 50 11 106q86 93 160 203q78 116 78 172q0 33 -31 33q-72 0 -146 -139q-70 -131 -93 -251
q-89 -93 -178 -162q-167 -129 -290 -129q-75 0 -75 83q0 121 129 320q74 114 159 199q121 121 211 121q28 0 51 -13q39 -22 39 -63q0 -58 -70 -144q-43 -51 -65 -76q-54 -64 -54 -75q0 -6 6 -6q25 0 85 65q45 49 71 88q61 92 61 158q0 48 -36 75q-32 25 -81 25
q-108 0 -239 -127q-96 -93 -175 -220q-122 -196 -122 -330q0 -118 111 -118q122 0 293 129q85 64 161 140q-2 -26 -2 -51q0 -182 134 -186q140 -4 310 138q37 31 87 86q54 60 47 67zM693 555q61 127 104 128q10 0 13 -9q2 -7 -2 -21q-24 -87 -181 -265l-2 -2q25 79 68 169z
" />
    <glyph glyph-name="abreve" unicode="&#x103;" horiz-adv-x="828" 
d="M330 692q0 11 6 11q4 0 16 -29q40 -84 116 -89q139 -4 215 104q-36 -131 -212 -133q-78 0 -112 54q-29 44 -29 82zM806 166q-4 3 -54 -37q-71 -57 -108 -80q-70 -43 -120 -43q-26 0 -45 11q-50 29 -50 96q0 47 30 123q19 47 54 114q29 55 29 65q0 3 -1 4q-9 6 -105 -93
q-128 -131 -196 -190q-121 -104 -184 -104q-52 0 -52 49q0 54 72 153q51 70 125 142q100 97 152 97q10 0 17 -6q22 -20 22 -49q0 -36 -36 -92q-17 -26 -65 -82q-33 -38 -29 -43q3 -3 60 59t65 74q43 67 43 109q0 26 -17.5 41.5t-43.5 15.5q-63 0 -160 -82q-78 -66 -146 -160
q-84 -116 -84 -192q0 -32 19 -51t51 -19q136 0 417 328q-68 -130 -68 -224q0 -83 58 -114q28 -15 60 -15q108 0 238 127q53 52 53 65q0 2 -1 3z" />
    <glyph glyph-name="Dcroat" unicode="&#x110;" horiz-adv-x="576" 
d="M408 361q4 -13 -86 -32q-81 -17 -118 -17q-30 0 -89 -6t-89 -6q-60 0 -58 15q2 22 74 26q26 1 142 4q32 1 101 12q66 10 102 10q19 0 21 -6zM577 542q0 -116 -76 -247q-70 -119 -169 -197q-125 -98 -266 -98q-66 0 -66 79q0 57 33 143q28 74 65 135t48 55q2 -1 2 -5
q0 -9 -61.5 -138.5t-61.5 -182.5q0 -57 57 -57q107 0 219 85q104 79 167 190q67 119 67 243q0 220 -189 220q-71 0 -164 -30l-96 -31q-2 0 -3 1q-10 23 123 67q81 27 147 27q50 0 93 -16q131 -48 131 -243z" />
    <glyph glyph-name="dcroat" unicode="&#x111;" horiz-adv-x="790" 
d="M781 520q4 -13 -86 -32q-81 -17 -118 -17q-30 0 -89 -6t-89 -6q-60 0 -58 15q2 22 74 26q26 1 142 4q32 1 101 12q66 10 102 10q19 0 21 -6zM792 244q0 -25 -82 -104q-65 -62 -108 -94q-79 -58 -124 -58q-93 0 -93 124q0 58 18 129q-93 -97 -125 -125
q-124 -111 -196 -111q-80 0 -80 90q0 102 86 236q94 146 188 146q40 0 40 -25q0 -30 -58 -93q-27 -30 -86 -80q-72 -60 -89 -60q-3 0 -4 1q-8 6 95 97q108 96 108 120q0 11 -19 11q-77 0 -155 -126q-74 -119 -74 -214q0 -70 52 -70q66 0 146 71q3 3 188 191q7 21 16 43
q35 91 88 180q79 130 134 130q22 0 22 -21q0 -37 -69 -138q-78 -114 -158 -201q-2 -5 -3 -10q-34 -119 -34 -169q0 -92 58 -92q51 0 130 62q41 32 122 112q58 57 65 52q1 -1 1 -4zM532 504q-32 -65 -61 -152q78 85 124 158q41 66 41 96q0 8 -4 8q-46 0 -100 -110z" />
    <glyph glyph-name="Itilde" unicode="&#x128;" horiz-adv-x="731" 
d="M736 486q-1 3 -8 3q-49 0 -200 -61q16 45 30 93q52 176 52 233q0 8 -2 9q-10 2 -71 -19q-72 -25 -114 -25q-26 0 -86.5 40.5t-108.5 40.5q-39 0 -133.5 -93t-94.5 -132q0 -3 2 -4q5 -5 45 46q57 72 86 100q58 55 101 55q52 0 93 -35q59 -50 126 -50q24 0 76 16
q40 13 45 20q-3 -29 -44 -175q-21 -73 -41 -136l-12 -5q-147 -62 -226 -117q-139 -96 -139 -199q0 -91 116 -91q94 0 192 176q51 92 95 214q47 20 102 43q121 50 119 53zM475 372q-119 -335 -251 -342q-83 -5 -83 66q0 52 51 112q50 59 283 164zM686 904q0 3 -3 4
q1 0 -34 -31t-53 -31q-12 0 -37 21q-32 27 -53 39q-39 22 -81 24q-79 3 -79 -64q0 -28 8 -28q12 0 14 17q2 25 8 33q13 18 51 18q46 0 76 -21l45 -40q24 -21 53 -21q17 0 51 31.5t34 48.5z" />
    <glyph glyph-name="itilde" unicode="&#x129;" horiz-adv-x="526" 
d="M524 321q5 -3 -29 -52q-70 -101 -163 -176q-115 -93 -210 -93q-62 0 -62 74q0 114 129 351q-160 -173 -183 -173q-1 0 -2 1q-6 13 95 115q105 106 143 106l-1 -2q-1 -8 -101 -226q-51 -109 -51 -164q0 -45 37 -45q88 0 197 86q65 52 161 158q38 42 40 40zM466 631
q0 -17 -34 -48.5t-51 -31.5q-29 0 -53 21l-45 40q-30 21 -76 21q-38 0 -51 -18q-6 -8 -8 -33q-2 -17 -14 -17q-8 0 -8 28q0 67 79 64q42 -2 81 -24q21 -12 53 -39q25 -21 37 -21q18 0 53 31t34 31q3 -1 3 -4z" />
    <glyph glyph-name="OE" unicode="&#x152;" horiz-adv-x="1458" 
d="M755 584q0 44 -17.5 70t-44.5 40t-58.5 18t-59.5 4q-13 0 -35.5 -1t-53.5 -6t-70.5 -14.5t-86.5 -26.5q63 40 100 62t56.5 35t26.5 20t11 16q-10 -2 -17.5 -4.5t-16 -6t-19.5 -9t-27 -12.5q-103 -48 -190.5 -109.5t-143.5 -138.5q-32 -44 -50 -84.5t-29 -72.5
q-12 -38 -21 -80t-9 -92q0 -30 5 -63.5t21.5 -62t47.5 -47.5t83 -19q54 0 125 24t150 83q23 17 52 42t57.5 53t54.5 58t44 57l34 51q8 -35 34.5 -55.5t61.5 -21.5q-9 -11 -21.5 -29t-23.5 -40.5t-19 -47t-8 -48.5q0 -35 18.5 -58.5t47 -37.5t63 -19.5t67.5 -5.5
q34 0 71.5 6.5t82 24.5t99 50.5t123.5 85.5q33 25 66.5 54t77.5 75q18 19 28.5 30.5t15 18.5t5 10t-0.5 5q-5 -3 -9.5 -6.5t-10 -8t-13.5 -12t-21 -18.5q-21 -18 -49 -43t-60.5 -51t-67.5 -52.5t-69 -47.5q-46 -29 -86 -46t-74 -26t-61.5 -11.5t-48.5 -2.5q-47 0 -78.5 7.5
t-50.5 20t-27 28t-8 31.5q0 24 13 51.5t30.5 52.5t33.5 44.5t22 25.5q20 7 45.5 21.5t52 32.5t52 38.5t46.5 39.5q6 6 16.5 17t21 23.5t18 24.5t7.5 20q0 3 -3 8t-14 5q-6 0 -17 -2.5t-29.5 -12t-45.5 -28t-64 -51.5q-55 -48 -81 -76t-33 -36q-17 -4 -35 -3t-32.5 8
t-24 20.5t-9.5 33.5q0 14 4 28t9 26t9.5 20t6.5 11q16 25 37 48t41 43q25 24 68 60t103 71q22 13 49 26t57 23.5t61.5 17.5t63.5 7q28 0 46 -4.5t35 -11.5q25 -10 32.5 -18t7.5 -13q0 -7 -9 -16.5t-32 -30.5q-20 -18 -27.5 -25.5t-7.5 -14.5q0 -4 6 -4q10 0 25.5 13t29.5 26
q7 6 15.5 14.5t16 18t12.5 18.5t5 15q0 10 -9.5 21.5t-26.5 21t-39.5 15.5t-49.5 6q-48 0 -106.5 -16t-133.5 -53q-28 -14 -57 -31t-56 -35.5t-50.5 -37t-40.5 -34.5l-41 -40q3 18 3 35zM714 576q0 -16 -4.5 -42.5t-20 -65t-46 -89t-82.5 -113.5q-61 -74 -118 -120t-108 -72
t-95 -35t-79 -9q-33 0 -58.5 11.5t-45.5 43.5q-9 16 -18 42t-9 75q0 37 7.5 77.5t20.5 79t29.5 72.5t33.5 60q22 32 46 54.5t60 44.5q43 26 85 43t90 30q46 13 83 17.5t84 4.5q20 0 35.5 -1t28 -3.5t23.5 -8t22 -14.5q16 -13 26 -31t10 -51z" />
    <glyph glyph-name="oe" unicode="&#x153;" horiz-adv-x="1042" 
d="M499 401q-5 22 -17 34.5t-26 19t-29 8.5t-27 2q-20 0 -45.5 -4t-53 -17t-55 -38t-51.5 -66q-8 -14 -20 -38t-17 -43t-6.5 -26.5t0.5 -15.5q7 13 11.5 23.5t9 20.5t10.5 21t15 27q25 43 53 68.5t55 39t51 17.5t42 4q10 0 22 -2t22 -8.5t16.5 -19t6.5 -32.5
q0 -35 -19.5 -83.5t-53.5 -96.5q-33 -46 -62.5 -72t-60.5 -43q-25 -14 -66.5 -29t-88.5 -15q-28 0 -44.5 7.5t-25 19.5t-11 25.5t-2.5 25.5q0 33 7.5 63.5t18.5 56.5t23 47.5t22 36.5q27 42 64.5 82t92.5 68q17 8 29.5 13t23.5 10q21 9 25.5 11t6.5 6q-2 3 -8 3
q-7 0 -15.5 -1t-20.5 -4q-44 -10 -80 -33t-64.5 -51t-49.5 -57.5t-35 -52.5q-10 -16 -22.5 -39t-23 -50t-18 -57.5t-7.5 -62.5q0 -15 3.5 -33.5t15 -34t33 -26t58.5 -10.5q54 0 102.5 17.5t90.5 46.5q27 18 48.5 38.5t37.5 39t27 34t17 24.5q-5 -49 8.5 -84t33.5 -57
q25 -29 58 -43t79 -14q61 0 118 23t102 52q63 40 105.5 82t73.5 77q22 25 25.5 34.5t0.5 12.5q-8 -4 -15 -10t-22 -21l-30 -30q-17 -17 -38 -36.5t-44 -39.5t-47 -36q-56 -38 -115.5 -55.5t-109.5 -17.5q-26 0 -55 7t-55 30q-19 17 -29 38t-14.5 43t-4 42t2.5 35
q21 14 37 26q10 7 24 18t30 24t31.5 26t28.5 25l71 65q5 4 14.5 14t19 22t16.5 23t7 19q0 10 -11.5 18t-43.5 8q-60 0 -108.5 -34t-78.5 -85zM467 264q8 32 20.5 63t32.5 62q21 34 43 55.5t43 33.5t40 16.5t34 4.5q17 0 21.5 -5.5t4.5 -10.5t-3.5 -12t-9 -14t-11 -13.5
t-9.5 -10.5q-8 -8 -20.5 -19t-25.5 -22.5t-24.5 -21t-16.5 -13.5l-92 -71z" />
    <glyph glyph-name="Scaron" unicode="&#x160;" horiz-adv-x="658" 
d="M657 791q0 5 -3 7t-5 2q-10 0 -24 -7t-27.5 -16t-25 -17.5t-15.5 -12.5q-9 -8 -20.5 -19t-23.5 -23.5t-21.5 -25t-13.5 -21.5t-7 -23t-4 -25q-49 -44 -87.5 -77.5t-72 -62t-65 -55t-67.5 -56.5q-52 -44 -82.5 -69.5t-48 -41t-26.5 -26t-18 -22.5q7 3 16 8t28 18.5t50 38
t81 65.5q56 45 98.5 80.5t76.5 65t61 54t53 48.5q-1 -15 -1 -29q0 -13 0.5 -30.5t1.5 -41t3 -59.5q1 -20 2 -33t2 -26.5t1.5 -31t0.5 -46.5q0 -35 -3.5 -74.5t-24.5 -88.5q-6 -14 -15.5 -31t-25 -31.5t-37.5 -24t-52 -9.5q-18 0 -37 5.5t-29 17.5q-5 7 -10.5 20.5t-7.5 23.5
q-1 3 -3.5 13.5t-10.5 10.5q-9 0 -10 -9.5t-1 -15.5q0 -12 2.5 -27.5t12 -29t29 -22.5t52.5 -9q42 0 78.5 14t62.5 48t41 91t15 143q0 30 -1.5 59.5t-3.5 59.5q-2 28 -2 55v55q0 23 0.5 41t3.5 41q6 5 20 18t32 30.5t37 37.5t35 38.5t26 34.5t10 25zM446 1049q0 -6 5 -8
l28 18q18 12 32 16t24 4q14 0 30 -5t27 -15q16 -14 20 -33.5t4 -40.5q0 -8 -1 -22t-3 -23q-2 -14 -8.5 -30t-14.5 -30q-1 -10 4 -20t16 -5l148 115q40 31 73 59t69 59l3 3q2 2 2 7q0 4 -3 9.5t-15 5.5q-13 0 -16.5 -4t-8.5 -9l-234 -207q10 43 12 67.5t2 29.5
q0 29 -8.5 53.5t-33.5 41.5q-17 12 -30 13.5t-30 1.5q-20 0 -43 -3.5t-42 -26.5q-5 -7 -6.5 -11t-1.5 -10zM562 712q15 12 35 18l-92 -86q8 17 25.5 37t31.5 31z" />
    <glyph glyph-name="scaron" unicode="&#x161;" horiz-adv-x="321" 
d="M276 176q0 26 -3.5 50t-8.5 49q-8 44 -13 70.5t-5 40.5q0 11 3.5 26.5t12.5 44.5q5 17 7 24t2 12q0 13 -11 13q-9 0 -20 -6t-21 -14.5t-19 -17t-13 -12.5q-24 -26 -43 -48t-35.5 -43.5t-32 -42.5t-32.5 -45q-15 -21 -24 -34.5t-13.5 -22t-5.5 -13t-1 -6.5q9 2 16 8.5
t24 27.5l95 112q33 39 51.5 60t28 30.5l11.5 11.5l3 2q4 0 4 -3v-2q-2 -14 -2.5 -26.5t-0.5 -26.5q0 -21 2 -46t5 -60q4 -53 6 -80.5t2 -46.5q0 -22 -3 -42t-11 -38q-12 -29 -33.5 -44.5t-56.5 -15.5q-32 0 -45 10.5t-13 21.5q0 5 1.5 13t5.5 16q2 4 8.5 14.5t29.5 39.5
q-9 -1 -19.5 -7t-21.5 -23q-14 -22 -18 -35t-4 -28t6 -24t15 -13.5t18.5 -5.5t16.5 -1q20 0 36.5 3.5t33.5 10.5q11 4 25.5 13.5t28 27.5t22.5 47.5t9 73.5zM91 735q0 -5 4 -6l26 15q11 7 20.5 11.5t23.5 4.5q12 0 24 -4t20 -12q14 -13 17 -31t3 -31q0 -7 -0.5 -19t-1.5 -17
q-2 -11 -9.5 -26.5t-12.5 -23.5q-2 -11 5.5 -18.5t17.5 -3.5l123 96q11 9 27 22t33 27t33 27t26 22q4 4 4 8q0 5 -3.5 9t-11.5 4q-5 0 -11 -2t-10 -5l-195 -172q8 28 9.5 45.5t1.5 30.5q0 19 -5 43.5t-29 40.5q-13 9 -26 10.5t-24 1.5q-17 0 -39 -4t-33 -20q-7 -9 -7 -23z
" />
    <glyph glyph-name="Utilde" unicode="&#x168;" horiz-adv-x="1265" 
d="M1257 235q0 6 -6 6q-11 0 -37 -18q-98 -70 -135 -97q-92 -65 -142 -65q-49 0 -49 59q0 111 149 356q27 45 63 88q50 60 69 83q50 62 50 87q0 16 -16 16q-33 0 -124 -123l-87 -117q-50 -68 -80 -100q-105 -114 -251 -222q-197 -145 -309 -145q-60 0 -60 42q0 65 146 247
q104 129 144 179q128 163 128 229q0 58 -96 58q-137 0 -356 -178q-143 -117 -238 -230l-5 -6q-10 -12 -12 -15q13 -2 82 64q163 156 239 213q162 123 276 123q34 0 65 -11q9 -3 9 -15q0 -15 -14 -45q-68 -145 -318 -442q-94 -111 -94 -182q0 -72 98 -72q126 0 317 146
q132 101 272 252q53 57 64 72h2l1 -1l-1 -2q-46 -46 -93 -165.5t-47 -185.5q0 -85 71 -86q66 0 205 94q35 24 71 54q49 41 49 55zM1131 892q0 3 -3 4q1 0 -34 -31t-53 -31q-12 0 -37 21q-32 27 -53 39q-39 22 -81 24q-79 3 -79 -64q0 -28 8 -28q12 0 14 17q2 25 8 33
q13 18 51 18q46 0 76 -21l45 -40q24 -21 53 -21q17 0 51 31.5t34 48.5z" />
    <glyph glyph-name="utilde" unicode="&#x169;" horiz-adv-x="804" 
d="M793 260q-11 -6 -38 -32l-85 -80q-128 -119 -164 -119q-23 0 -23 25q0 34 68 170q65 130 65 165q0 22 -19 23q-55 3 -204 -182q-73 -90 -108 -128q-78 -84 -117 -85q-23 -1 -23 27q0 45 82 220q87 186 90 221q1 16 -8 16q-54 0 -152 -88q-75 -67 -130 -139
q-15 -20 -20 -27q82 80 111 108q122 120 152 120q18 0 13 -27q-7 -38 -44 -115q-28 -57 -57 -114q-67 -140 -67 -201q0 -44 39 -44q60 0 222 197q99 120 114 137q57 63 83 63q14 0 9 -21q-8 -33 -38 -87q-24 -43 -48 -85q-44 -84 -44 -132q0 -50 56 -50q34 0 132 93
q82 78 124 132q18 24 29 39zM794 261v1l-1 -2zM686 587q0 3 -3 4q1 0 -34 -31t-53 -31q-12 0 -37 21q-32 27 -53 39q-39 22 -81 24q-79 3 -79 -64q0 -28 8 -28q12 0 14 17q2 25 8 33q13 18 51 18q46 0 76 -21l45 -40q24 -21 53 -21q17 0 51 31.5t34 48.5z" />
    <glyph glyph-name="Ydieresis" unicode="&#x178;" horiz-adv-x="1119" 
d="M1116 569q0 10 -6 10q-2 0 -108 -140q-303 -401 -490 -401q-72 0 -72 68q0 78 71 206l133 240q71 128 71 165q0 22 -28 22q-53 0 -160 -53q-241 -119 -434 -343q-84 -97 -84 -126q0 -5 3 -6q5 -3 103 112q116 136 191 190q85 61 179 112q127 69 193 69q3 0 3 -4
q0 -12 -72 -129q-92 -148 -134 -233q-72 -144 -72 -223q0 -97 110 -97q181 0 447 337q89 113 91 111q9 -6 -86 -200q-64 -130 -126 -238q-164 -84 -238 -139q-121 -89 -121 -160q0 -56 96 -56q71 0 209 213q37 57 73 121q9 4 18 9q222 118 218 125q-1 1 -3 1q-24 0 -200 -88
l-8 -4q63 114 127 250q106 227 106 279zM813 -27q-25 -41 -48 -78q-125 -194 -187 -194q-65 0 -65 35q0 27 39 71q33 38 64 58q15 11 197 108zM1069 773v2q0 2 -1 3q-1 4 -3 7q-2 2 -6 5h-1q-1 1 -3 2l-4 2q-1 0 -2 0.5t-3 0.5h-6h-3q-4 -1 -8 -3l-2 -1l-2 -1q-2 -2 -5 -4
q-6 -5 -12 -11q-7 -7 -12 -13q-1 -2 -2 -3l-2 -4l-1 -3v-3v-2v-2v-2q2 -6 10 -8h3h4h5q2 0 4.5 0.5t5.5 0.5l4 1l10 4q2 0 4 1l1 1q3 1 6 3h1q4 2 7 4l1 2q5 3 7 7l1 2q1 1 2 3l1 3q0 2 1 3v3zM919 772q0 11 -11 17.5t-21 3.5q-13 -3 -29.5 -19t-16.5 -29q0 -12 17 -12
q14 0 33 9q28 13 28 30z" />
    <glyph glyph-name="florin" unicode="&#x192;" horiz-adv-x="758" 
d="M754 709q0 48 -28.5 69.5t-66.5 21.5q-18 0 -37.5 -5.5t-42 -20.5t-48 -41.5t-53.5 -69.5q-33 -50 -62.5 -107t-52.5 -119q-81 2 -116 -5t-35 -17q0 -8 9.5 -9t14.5 -1q4 0 32 1t88 5q-6 -17 -17 -47.5t-23 -63t-22.5 -62t-15.5 -45.5q-8 -22 -15.5 -44t-15.5 -44
q-17 -51 -33.5 -102t-34.5 -102q-21 -57 -37 -97.5t-28 -68.5t-21.5 -46t-16.5 -30q-24 -41 -47 -66t-43 -39t-37.5 -18.5t-30.5 -4.5q-20 0 -31 7t-17 17.5t-8 21.5t-3 19q-2 7 -2 13t-5 6q-4 0 -8 -8t-4 -30q0 -7 1.5 -20t8.5 -26t21.5 -23t41.5 -10q28 0 54.5 12.5
t48.5 30.5t39 37.5t27 32.5q24 33 54 91.5t56 128.5q8 20 14.5 40.5t14.5 40.5q2 6 4.5 12.5t4.5 12.5l57 173q6 18 9 29.5t6.5 23t8.5 27t15.5 43t27 71t42.5 110.5h34q22 0 44 1t41.5 1.5t29.5 2.5q22 4 47.5 17t42.5 45q-6 -3 -11.5 -5.5t-11.5 -5.5q-2 -2 -5 -2.5
t-5 -2.5q-11 -5 -13 -7t-10 -6q-9 -5 -22.5 -7.5t-34.5 -4t-50 -2t-69 -1.5q21 53 49 109t58 104q23 36 43 60t38 37.5t35.5 19t34.5 5.5q29 0 48.5 -13t19.5 -45q0 -11 -1.5 -17.5t-3.5 -14.5q-1 -4 -3 -16t-2 -16q0 -5 5 -5q4 0 10.5 4t12.5 21q3 10 5 19t2 20z" />
    <glyph glyph-name="Ohorn" unicode="&#x1a0;" horiz-adv-x="757" 
d="M755 584q0 -117 -113 -267q-95 -126 -210 -210q-147 -107 -275 -107q-157 0 -157 192q0 83 30 172.5t79 156.5q105 142 334 248q77 36 81 31q3 -14 -195 -132q137 48 246 48q147 0 174 -88q26 15 31 24q20 22 25 51q3 35 -24 57q-12 21 5 36q15 1 27 -13q10 -13 15 -29
q15 -54 -17 -100q-24 -33 -50 -42q-4 -2 -8 -3q2 -12 2 -25zM714 576q0 55 -36 82q-25 19 -52 24q-15 3 -65 3q-121 0 -247 -51q-140 -57 -193 -143q-91 -149 -91 -290q0 -71 27 -116q33 -55 100 -55q211 0 404 236q153 187 153 310z" />
    <glyph glyph-name="ohorn" unicode="&#x1a1;" horiz-adv-x="507" 
d="M501 359q-9 -99 -103 -208q-131 -151 -290 -151q-107 0 -107 104q0 94 71 209q102 167 229 194q40 9 44 2q2 -3 -32 -17q-42 -17 -53 -23q-89 -45 -157 -150q-71 -107 -71 -204q0 -78 77 -78q85 0 161 44q73 42 123 115q73 106 73 180q0 62 -65 62q-151 0 -233 -187
l-11 -25q-3 -9 -5 -9q-1 1 0 10q6 51 43 113q75 125 205 125q90 0 100 -72q1 2 1 4q28 13 33 22q21 21 28 50q6 34 -20 58q-11 21 7 35q15 0 26 -14q9 -14 14 -30q11 -55 -24 -99q-26 -31 -53 -38l-8 -4h-3q1 -8 0 -18z" />
    <glyph glyph-name="Uhorn" unicode="&#x1af;" horiz-adv-x="1265" 
d="M1257 235q0 -14 -49 -55q-36 -30 -71 -54q-139 -94 -205 -94q-71 1 -71 86q0 66 47 185.5t93 165.5l1 2l-1 1h-2q-11 -15 -64 -72q-140 -151 -272 -252q-191 -146 -317 -146q-98 0 -98 72q0 71 94 182q250 297 318 442q14 30 14 45q0 12 -9 15q-31 11 -65 11
q-114 0 -276 -123q-76 -57 -239 -213q-69 -66 -82 -64q2 3 12 15l5 6q95 113 238 230q219 178 356 178q96 0 96 -58q0 -66 -128 -229q-40 -50 -144 -179q-146 -182 -146 -247q0 -42 60 -42q112 0 309 145q146 108 251 222q30 32 80 100l87 117q91 123 124 123q16 0 16 -16
t-19 -46q27 9 33 17q24 17 35 45q11 33 -11 60q-8 23 12 34q15 -2 24 -18q7 -15 9 -31q3 -56 -38 -95q-30 -27 -66 -30l-8 -2q-3 0 -4 1q-8 -10 -17 -22q-19 -23 -69 -83q-36 -43 -63 -88q-149 -245 -149 -356q0 -59 49 -59q50 0 142 65q37 27 135 97q26 18 37 18q6 0 6 -6z
" />
    <glyph glyph-name="uhorn" unicode="&#x1b0;" horiz-adv-x="804" 
d="M793 260q-11 -15 -29 -39q-42 -54 -124 -132q-98 -93 -132 -93q-56 0 -56 50q0 48 44 132q24 42 48 85q30 54 38 87q5 21 -9 21q-26 0 -83 -63q-15 -17 -114 -137q-162 -197 -222 -197q-39 0 -39 44q0 61 67 201q29 57 57 114q37 77 44 115q5 27 -13 27q-30 0 -152 -120
q-29 -28 -111 -108q5 7 20 27q55 72 130 139q98 88 152 88q9 0 8 -16q-3 -35 -90 -221q-82 -175 -82 -220q0 -28 23 -27q39 1 117 85q35 38 108 128q149 185 204 182q19 -1 19 -23q0 -14 -10 -41q28 9 34 17q24 17 35 45q11 33 -11 60q-8 23 12 34q15 -2 24 -18q7 -15 9 -31
q3 -56 -38 -95q-30 -27 -58 -30q-8 -1 -12 -2h-2q-16 -40 -48 -104q-68 -136 -68 -170q0 -25 23 -25q36 0 164 119l85 80q27 26 38 32zM793 260l1 2v-1z" />
    <glyph glyph-name="circumflex" unicode="&#x2c6;" horiz-adv-x="394" 
d="M387 624q0 9 -4 9l-25 -15q-26 -16 -42 -16q-66 0 -66 78q0 16 2 36q12 38 22 50q1 12 -5.5 18t-17.5 4q-246 -191 -246 -200q0 -15 15 -15q10 0 21 7l131 116l64 56q-11 -39 -11 -76q0 -96 80 -96q82 0 82 44z" />
    <glyph glyph-name="tilde" unicode="&#x2dc;" horiz-adv-x="354" 
d="M347 407q0 3 -3 4q1 0 -34 -31t-53 -31q-12 0 -37 21q-32 27 -53 39q-39 22 -81 24q-79 3 -79 -64q0 -28 8 -28q12 0 14 17q2 25 8 33q13 18 51 18q46 0 76 -21l45 -40q24 -21 53 -21q17 0 51 31.5t34 48.5z" />
    <glyph glyph-name="uni1EA0" unicode="&#x1ea0;" 
d="M345 -53q6 -5 1 -13q-20 -33 -55 -33q-25 0 -25 24q0 16 30 31q34 9 43 1q6 -2 6 -10zM1143 325q7 -7 -47 -67q-50 -55 -87 -86q-170 -142 -310 -138q-134 4 -134 186q0 25 2 51q-76 -76 -161 -140q-171 -129 -293 -129q-111 0 -111 118q0 134 122 330q79 127 175 220
q131 127 239 127q49 0 81 -25q36 -27 36 -75q0 -66 -61 -158q-26 -39 -71 -88q-60 -65 -85 -65q-6 0 -6 6q0 11 54 75q22 25 65 76q70 86 70 144q0 41 -39 63q-23 13 -51 13q-90 0 -211 -121q-85 -85 -159 -199q-129 -199 -129 -320q0 -83 75 -83q123 0 290 129
q89 69 178 162q23 120 93 251q74 139 146 139q31 0 31 -33q0 -56 -78 -172q-74 -110 -160 -203q-11 -56 -11 -106q0 -139 103 -139q195 0 371 185q71 74 73 72zM693 555q-43 -90 -68 -169l2 2q157 178 181 265q4 14 2 21q-3 9 -13 9q-43 -1 -104 -128z" />
    <glyph glyph-name="uni1EA1" unicode="&#x1ea1;" horiz-adv-x="828" 
d="M207 -54q6 -5 1 -13q-20 -33 -55 -33q-25 0 -25 24q0 16 30 31q34 9 43 1q6 -2 6 -10zM806 166q1 -1 1 -3q0 -13 -53 -65q-130 -127 -238 -127q-32 0 -60 15q-58 31 -58 114q0 94 68 224q-281 -328 -417 -328q-32 0 -51 19t-19 51q0 76 84 192q68 94 146 160
q97 82 160 82q26 0 43.5 -15.5t17.5 -41.5q0 -42 -43 -109q-8 -12 -65 -74t-60 -59q-4 5 29 43q48 56 65 82q36 56 36 92q0 29 -22 49q-7 6 -17 6q-52 0 -152 -97q-74 -72 -125 -142q-72 -99 -72 -153q0 -49 52 -49q63 0 184 104q68 59 196 190q96 99 105 93q1 -1 1 -4
q0 -10 -29 -65q-35 -67 -54 -114q-30 -76 -30 -123q0 -67 50 -96q19 -11 45 -11q50 0 120 43q37 23 108 80q50 40 54 37z" />
    <glyph glyph-name="uni1EA2" unicode="&#x1ea2;" 
d="M715 879q29 -19 -16 -19q-30 -1 -39 34q3 32 62 61q67 29 80 73q12 31 -17 45q-13 3 -21 3q-13 0 -37 -9l-25 -14q-8 -3 -12 0q-3 2 0 6q9 29 34 37q42 13 59 9q51 -7 55 -49q3 -27 -10 -55q-11 -20 -34 -37q-29 -23 -76 -42l-24 -20q-6 -22 21 -23zM1143 325
q7 -7 -47 -67q-50 -55 -87 -86q-170 -142 -310 -138q-134 4 -134 186q0 25 2 51q-76 -76 -161 -140q-171 -129 -293 -129q-111 0 -111 118q0 134 122 330q79 127 175 220q131 127 239 127q49 0 81 -25q36 -27 36 -75q0 -66 -61 -158q-26 -39 -71 -88q-60 -65 -85 -65
q-6 0 -6 6q0 11 54 75q22 25 65 76q70 86 70 144q0 41 -39 63q-23 13 -51 13q-90 0 -211 -121q-85 -85 -159 -199q-129 -199 -129 -320q0 -83 75 -83q123 0 290 129q89 69 178 162q23 120 93 251q74 139 146 139q31 0 31 -33q0 -56 -78 -172q-74 -110 -160 -203
q-11 -56 -11 -106q0 -139 103 -139q195 0 371 185q71 74 73 72zM693 555q-43 -90 -68 -169l2 2q157 178 181 265q4 14 2 21q-3 9 -13 9q-43 -1 -104 -128z" />
    <glyph glyph-name="uni1EA3" unicode="&#x1ea3;" horiz-adv-x="828" 
d="M492 591q29 -19 -16 -19q-30 -1 -39 34q3 32 62 61q67 29 80 73q12 31 -17 45q-13 3 -21 3q-13 0 -37 -9l-25 -14q-8 -3 -12 0q-3 2 0 6q9 29 34 37q42 13 59 9q51 -7 55 -49q3 -27 -10 -55q-11 -20 -34 -37q-29 -23 -76 -42l-24 -20q-6 -22 21 -23zM806 166q1 -1 1 -3
q0 -13 -53 -65q-130 -127 -238 -127q-32 0 -60 15q-58 31 -58 114q0 94 68 224q-281 -328 -417 -328q-32 0 -51 19t-19 51q0 76 84 192q68 94 146 160q97 82 160 82q26 0 43.5 -15.5t17.5 -41.5q0 -42 -43 -109q-8 -12 -65 -74t-60 -59q-4 5 29 43q48 56 65 82q36 56 36 92
q0 29 -22 49q-7 6 -17 6q-52 0 -152 -97q-74 -72 -125 -142q-72 -99 -72 -153q0 -49 52 -49q63 0 184 104q68 59 196 190q96 99 105 93q1 -1 1 -4q0 -10 -29 -65q-35 -67 -54 -114q-30 -76 -30 -123q0 -67 50 -96q19 -11 45 -11q50 0 120 43q37 23 108 80q50 40 54 37z" />
    <glyph glyph-name="uni1EA4" unicode="&#x1ea4;" 
d="M1092 1155q-2 -27 -82 -82q-59 -41 -107 -65q-28 -14 -49 -14q-25 0 -30 19q14 12 49 19q21 4 58 31q45 30 134 92q20 15 24 15t3 -15zM1146 324q0 -24 -69 -94q-78 -79 -169 -133q-114 -67 -208 -65q-137 4 -137 188q0 22 3 49q-262 -269 -453 -269q-113 0 -113 120
q0 124 103 299q89 151 197 254q133 127 239 127q39 0 71 -19q48 -28 48 -84q0 -62 -53 -146q-42 -67 -100 -122q-48 -46 -66 -46q-9 0 -9 7q0 14 49 71q68 79 91 112q49 70 49 114q0 39 -38 61q-22 13 -49 13q-89 0 -212 -124q-99 -100 -183 -238q-102 -168 -102 -276
q0 -81 72 -81q126 0 306 143q85 68 165 152q7 31 17 66q31 112 75 194q69 127 145 127q33 0 33 -35q0 -98 -167 -294q-34 -40 -67 -76q-12 -53 -14 -91q-8 -158 99 -158q198 0 376 191q62 67 67 67q4 0 4 -4zM833 881q28 -22 -28 -18q-56 18 -73 92q-3 37 -12 76l-196 -172
q-9 -8 -20 -8q-16 0 -16 16q0 9 246 200q25 0 24 -23q-10 -12 -3 -49q1 -20 5 -36q14 -55 57 -71zM665 483q-15 -42 -27 -79q26 30 51 62q120 153 120 202q0 12 -12 12q-61 -1 -132 -197z" />
    <glyph glyph-name="uni1EA5" unicode="&#x1ea5;" horiz-adv-x="828" 
d="M859 859q-2 -27 -82 -82q-59 -41 -107 -65q-28 -14 -49 -14q-25 0 -30 19q14 12 49 19q21 4 58 31q45 30 134 92q20 15 24 15t3 -15zM827 166q1 -1 1 -3q0 -13 -53 -65q-130 -127 -238 -127q-32 0 -60 15q-58 31 -58 114q0 94 68 224q-281 -328 -417 -328q-32 0 -51 19
t-19 51q0 76 84 192q68 94 146 160q97 82 160 82q26 0 43.5 -15.5t17.5 -41.5q0 -42 -43 -109q-8 -12 -65 -74t-60 -59q-4 5 29 43q48 56 65 82q36 56 36 92q0 29 -22 49q-7 6 -17 6q-52 0 -152 -97q-74 -72 -125 -142q-72 -99 -72 -153q0 -49 52 -49q63 0 184 104
q68 59 196 190q96 99 105 93q1 -1 1 -4q0 -10 -29 -65q-35 -67 -54 -114q-30 -76 -30 -123q0 -67 50 -96q19 -11 45 -11q50 0 120 43q37 23 108 80q50 40 54 37zM599 572q28 -22 -28 -18q-56 18 -73 92q-3 37 -12 76l-196 -172q-9 -8 -20 -8q-16 0 -16 16q0 9 246 200
q25 0 24 -23q-10 -12 -3 -49q1 -20 5 -36q14 -55 57 -71z" />
    <glyph glyph-name="uni1EA6" unicode="&#x1ea6;" 
d="M1146 324q0 -24 -69 -94q-78 -79 -169 -133q-114 -67 -208 -65q-137 4 -137 188q0 22 3 49q-262 -269 -453 -269q-113 0 -113 120q0 124 103 299q89 151 197 254q133 127 239 127q39 0 71 -19q48 -28 48 -84q0 -62 -53 -146q-42 -67 -100 -122q-48 -46 -66 -46q-9 0 -9 7
q0 14 49 71q68 79 91 112q49 70 49 114q0 39 -38 61q-22 13 -49 13q-89 0 -212 -124q-99 -100 -183 -238q-102 -168 -102 -276q0 -81 72 -81q126 0 306 143q85 68 165 152q7 31 17 66q31 112 75 194q69 127 145 127q33 0 33 -35q0 -98 -167 -294q-34 -40 -67 -76
q-12 -53 -14 -91q-8 -158 99 -158q198 0 376 191q62 67 67 67q4 0 4 -4zM833 881q28 -22 -28 -18q-56 18 -73 92q-3 37 -12 76l-196 -172q-9 -8 -20 -8q-16 0 -16 16q0 9 246 200q25 0 24 -23q-10 -12 -3 -49q1 -20 5 -36q14 -55 57 -71zM665 483q-15 -42 -27 -79
q26 30 51 62q120 153 120 202q0 12 -12 12q-61 -1 -132 -197zM904 1057q0 4 -20 18q-98 68 -135 94.5t-48 44.5q-19 32 -35 40q-11 -8 -11 -22q0 -42 130 -134q69 -49 98 -49q21 0 21 8z" />
    <glyph glyph-name="uni1EA7" unicode="&#x1ea7;" horiz-adv-x="828" 
d="M827 166q1 -1 1 -3q0 -13 -53 -65q-130 -127 -238 -127q-32 0 -60 15q-58 31 -58 114q0 94 68 224q-281 -328 -417 -328q-32 0 -51 19t-19 51q0 76 84 192q68 94 146 160q97 82 160 82q26 0 43.5 -15.5t17.5 -41.5q0 -42 -43 -109q-8 -12 -65 -74t-60 -59q-4 5 29 43
q48 56 65 82q36 56 36 92q0 29 -22 49q-7 6 -17 6q-52 0 -152 -97q-74 -72 -125 -142q-72 -99 -72 -153q0 -49 52 -49q63 0 184 104q68 59 196 190q96 99 105 93q1 -1 1 -4q0 -10 -29 -65q-35 -67 -54 -114q-30 -76 -30 -123q0 -67 50 -96q19 -11 45 -11q50 0 120 43
q37 23 108 80q50 40 54 37zM599 572q28 -22 -28 -18q-56 18 -73 92q-3 37 -12 76l-196 -172q-9 -8 -20 -8q-16 0 -16 16q0 9 246 200q25 0 24 -23q-10 -12 -3 -49q1 -20 5 -36q14 -55 57 -71zM678 749q0 4 -20 18q-98 68 -135 94.5t-48 44.5q-19 32 -35 40q-11 -8 -11 -22
q0 -42 130 -134q69 -49 98 -49q21 0 21 8z" />
    <glyph glyph-name="uni1EA8" unicode="&#x1ea8;" 
d="M874 1029q29 -19 -16 -19q-30 -1 -39 34q3 32 62 61q67 29 80 73q12 31 -17 45q-13 3 -21 3q-13 0 -37 -9l-25 -14q-8 -3 -12 0q-3 2 0 6q9 29 34 37q42 13 59 9q51 -7 55 -49q3 -27 -10 -55q-11 -20 -34 -37q-29 -23 -76 -42l-24 -20q-6 -22 21 -23zM1146 324
q0 -24 -69 -94q-78 -79 -169 -133q-114 -67 -208 -65q-137 4 -137 188q0 22 3 49q-262 -269 -453 -269q-113 0 -113 120q0 124 103 299q89 151 197 254q133 127 239 127q39 0 71 -19q48 -28 48 -84q0 -62 -53 -146q-42 -67 -100 -122q-48 -46 -66 -46q-9 0 -9 7q0 14 49 71
q68 79 91 112q49 70 49 114q0 39 -38 61q-22 13 -49 13q-89 0 -212 -124q-99 -100 -183 -238q-102 -168 -102 -276q0 -81 72 -81q126 0 306 143q85 68 165 152q7 31 17 66q31 112 75 194q69 127 145 127q33 0 33 -35q0 -98 -167 -294q-34 -40 -67 -76q-12 -53 -14 -91
q-8 -158 99 -158q198 0 376 191q62 67 67 67q4 0 4 -4zM833 881q28 -22 -28 -18q-56 18 -73 92q-3 37 -12 76l-196 -172q-9 -8 -20 -8q-16 0 -16 16q0 9 246 200q25 0 24 -23q-10 -12 -3 -49q1 -20 5 -36q14 -55 57 -71zM665 483q-15 -42 -27 -79q26 30 51 62
q120 153 120 202q0 12 -12 12q-61 -1 -132 -197z" />
    <glyph glyph-name="uni1EA9" unicode="&#x1ea9;" horiz-adv-x="828" 
d="M638 740q29 -19 -16 -19q-30 -1 -39 34q3 32 62 61q67 29 80 73q12 31 -17 45q-13 3 -21 3q-13 0 -37 -9l-25 -14q-8 -3 -12 0q-3 2 0 6q9 29 34 37q42 13 59 9q51 -7 55 -49q3 -27 -10 -55q-11 -20 -34 -37q-29 -23 -76 -42l-24 -20q-6 -22 21 -23zM827 166q1 -1 1 -3
q0 -13 -53 -65q-130 -127 -238 -127q-32 0 -60 15q-58 31 -58 114q0 94 68 224q-281 -328 -417 -328q-32 0 -51 19t-19 51q0 76 84 192q68 94 146 160q97 82 160 82q26 0 43.5 -15.5t17.5 -41.5q0 -42 -43 -109q-8 -12 -65 -74t-60 -59q-4 5 29 43q48 56 65 82q36 56 36 92
q0 29 -22 49q-7 6 -17 6q-52 0 -152 -97q-74 -72 -125 -142q-72 -99 -72 -153q0 -49 52 -49q63 0 184 104q68 59 196 190q96 99 105 93q1 -1 1 -4q0 -10 -29 -65q-35 -67 -54 -114q-30 -76 -30 -123q0 -67 50 -96q19 -11 45 -11q50 0 120 43q37 23 108 80q50 40 54 37z
M599 572q28 -22 -28 -18q-56 18 -73 92q-3 37 -12 76l-196 -172q-9 -8 -20 -8q-16 0 -16 16q0 9 246 200q25 0 24 -23q-10 -12 -3 -49q1 -20 5 -36q14 -55 57 -71z" />
    <glyph glyph-name="uni1EAA" unicode="&#x1eaa;" 
d="M1146 324q0 -24 -69 -94q-78 -79 -169 -133q-114 -67 -208 -65q-137 4 -137 188q0 22 3 49q-262 -269 -453 -269q-113 0 -113 120q0 124 103 299q89 151 197 254q133 127 239 127q39 0 71 -19q48 -28 48 -84q0 -62 -53 -146q-42 -67 -100 -122q-48 -46 -66 -46q-9 0 -9 7
q0 14 49 71q68 79 91 112q49 70 49 114q0 39 -38 61q-22 13 -49 13q-89 0 -212 -124q-99 -100 -183 -238q-102 -168 -102 -276q0 -81 72 -81q126 0 306 143q85 68 165 152q7 31 17 66q31 112 75 194q69 127 145 127q33 0 33 -35q0 -98 -167 -294q-34 -40 -67 -76
q-12 -53 -14 -91q-8 -158 99 -158q198 0 376 191q62 67 67 67q4 0 4 -4zM833 881q28 -22 -28 -18q-56 18 -73 92q-3 37 -12 76l-196 -172q-9 -8 -20 -8q-16 0 -16 16q0 9 246 200q25 0 24 -23q-10 -12 -3 -49q1 -20 5 -36q14 -55 57 -71zM665 483q-15 -42 -27 -79
q26 30 51 62q120 153 120 202q0 12 -12 12q-61 -1 -132 -197zM955 1163q0 3 -3 4q1 0 -34 -31t-53 -31q-12 0 -37 21q-32 27 -53 39q-39 22 -81 24q-79 3 -79 -64q0 -28 8 -28q12 0 14 17q2 25 8 33q13 18 51 18q46 0 76 -21l45 -40q24 -21 53 -21q17 0 51 31.5t34 48.5z
" />
    <glyph glyph-name="uni1EAB" unicode="&#x1eab;" horiz-adv-x="828" 
d="M827 166q1 -1 1 -3q0 -13 -53 -65q-130 -127 -238 -127q-32 0 -60 15q-58 31 -58 114q0 94 68 224q-281 -328 -417 -328q-32 0 -51 19t-19 51q0 76 84 192q68 94 146 160q97 82 160 82q26 0 43.5 -15.5t17.5 -41.5q0 -42 -43 -109q-8 -12 -65 -74t-60 -59q-4 5 29 43
q48 56 65 82q36 56 36 92q0 29 -22 49q-7 6 -17 6q-52 0 -152 -97q-74 -72 -125 -142q-72 -99 -72 -153q0 -49 52 -49q63 0 184 104q68 59 196 190q96 99 105 93q1 -1 1 -4q0 -10 -29 -65q-35 -67 -54 -114q-30 -76 -30 -123q0 -67 50 -96q19 -11 45 -11q50 0 120 43
q37 23 108 80q50 40 54 37zM599 572q28 -22 -28 -18q-56 18 -73 92q-3 37 -12 76l-196 -172q-9 -8 -20 -8q-16 0 -16 16q0 9 246 200q25 0 24 -23q-10 -12 -3 -49q1 -20 5 -36q14 -55 57 -71zM722 846q0 3 -3 4q1 0 -34 -31t-53 -31q-12 0 -37 21q-32 27 -53 39
q-39 22 -81 24q-79 3 -79 -64q0 -28 8 -28q12 0 14 17q2 25 8 33q13 18 51 18q46 0 76 -21l45 -40q24 -21 53 -21q17 0 51 31.5t34 48.5z" />
    <glyph glyph-name="uni1EAC" unicode="&#x1eac;" 
d="M345 -53q6 -5 1 -13q-20 -33 -55 -33q-25 0 -25 24q0 16 30 31q34 9 43 1q6 -2 6 -10zM1146 324q0 -24 -69 -94q-78 -79 -169 -133q-114 -67 -208 -65q-137 4 -137 188q0 22 3 49q-262 -269 -453 -269q-113 0 -113 120q0 124 103 299q89 151 197 254q133 127 239 127
q39 0 71 -19q48 -28 48 -84q0 -62 -53 -146q-42 -67 -100 -122q-48 -46 -66 -46q-9 0 -9 7q0 14 49 71q68 79 91 112q49 70 49 114q0 39 -38 61q-22 13 -49 13q-89 0 -212 -124q-99 -100 -183 -238q-102 -168 -102 -276q0 -81 72 -81q126 0 306 143q85 68 165 152
q7 31 17 66q31 112 75 194q69 127 145 127q33 0 33 -35q0 -98 -167 -294q-34 -40 -67 -76q-12 -53 -14 -91q-8 -158 99 -158q198 0 376 191q62 67 67 67q4 0 4 -4zM833 881q28 -22 -28 -18q-56 18 -73 92q-3 37 -12 76l-196 -172q-9 -8 -20 -8q-16 0 -16 16q0 9 246 200
q25 0 24 -23q-10 -12 -3 -49q1 -20 5 -36q14 -55 57 -71zM665 483q-15 -42 -27 -79q26 30 51 62q120 153 120 202q0 12 -12 12q-61 -1 -132 -197z" />
    <glyph glyph-name="uni1EAD" unicode="&#x1ead;" horiz-adv-x="828" 
d="M207 -54q6 -5 1 -13q-20 -33 -55 -33q-25 0 -25 24q0 16 30 31q34 9 43 1q6 -2 6 -10zM827 166q1 -1 1 -3q0 -13 -53 -65q-130 -127 -238 -127q-32 0 -60 15q-58 31 -58 114q0 94 68 224q-281 -328 -417 -328q-32 0 -51 19t-19 51q0 76 84 192q68 94 146 160
q97 82 160 82q26 0 43.5 -15.5t17.5 -41.5q0 -42 -43 -109q-8 -12 -65 -74t-60 -59q-4 5 29 43q48 56 65 82q36 56 36 92q0 29 -22 49q-7 6 -17 6q-52 0 -152 -97q-74 -72 -125 -142q-72 -99 -72 -153q0 -49 52 -49q63 0 184 104q68 59 196 190q96 99 105 93q1 -1 1 -4
q0 -10 -29 -65q-35 -67 -54 -114q-30 -76 -30 -123q0 -67 50 -96q19 -11 45 -11q50 0 120 43q37 23 108 80q50 40 54 37zM599 572q28 -22 -28 -18q-56 18 -73 92q-3 37 -12 76l-196 -172q-9 -8 -20 -8q-16 0 -16 16q0 9 246 200q25 0 24 -23q-10 -12 -3 -49q1 -20 5 -36
q14 -55 57 -71z" />
    <glyph glyph-name="uni1EAE" unicode="&#x1eae;" 
d="M984 1168q-2 -27 -82 -82q-59 -41 -107 -65q-28 -14 -49 -14q-25 0 -30 19q14 12 49 19q21 4 58 31q45 30 134 92q20 15 24 15t3 -15zM531 984q0 11 6 11q4 0 16 -29q40 -84 116 -89q139 -4 215 104q-36 -131 -212 -133q-78 0 -112 54q-29 44 -29 82zM1143 325
q7 -7 -47 -67q-50 -55 -87 -86q-170 -142 -310 -138q-134 4 -134 186q0 25 2 51q-76 -76 -161 -140q-171 -129 -293 -129q-111 0 -111 118q0 134 122 330q79 127 175 220q131 127 239 127q49 0 81 -25q36 -27 36 -75q0 -66 -61 -158q-26 -39 -71 -88q-60 -65 -85 -65
q-6 0 -6 6q0 11 54 75q22 25 65 76q70 86 70 144q0 41 -39 63q-23 13 -51 13q-90 0 -211 -121q-85 -85 -159 -199q-129 -199 -129 -320q0 -83 75 -83q123 0 290 129q89 69 178 162q23 120 93 251q74 139 146 139q31 0 31 -33q0 -56 -78 -172q-74 -110 -160 -203
q-11 -56 -11 -106q0 -139 103 -139q195 0 371 185q71 74 73 72zM693 555q-43 -90 -68 -169l2 2q157 178 181 265q4 14 2 21q-3 9 -13 9q-43 -1 -104 -128z" />
    <glyph glyph-name="uni1EAF" unicode="&#x1eaf;" horiz-adv-x="828" 
d="M781 869q-2 -27 -82 -82q-59 -41 -107 -65q-28 -14 -49 -14q-25 0 -30 19q14 12 49 19q21 4 58 31q45 30 134 92q20 15 24 15t3 -15zM330 692q0 11 6 11q4 0 16 -29q40 -84 116 -89q139 -4 215 104q-36 -131 -212 -133q-78 0 -112 54q-29 44 -29 82zM806 166q1 -1 1 -3
q0 -13 -53 -65q-130 -127 -238 -127q-32 0 -60 15q-58 31 -58 114q0 94 68 224q-281 -328 -417 -328q-32 0 -51 19t-19 51q0 76 84 192q68 94 146 160q97 82 160 82q26 0 43.5 -15.5t17.5 -41.5q0 -42 -43 -109q-8 -12 -65 -74t-60 -59q-4 5 29 43q48 56 65 82q36 56 36 92
q0 29 -22 49q-7 6 -17 6q-52 0 -152 -97q-74 -72 -125 -142q-72 -99 -72 -153q0 -49 52 -49q63 0 184 104q68 59 196 190q96 99 105 93q1 -1 1 -4q0 -10 -29 -65q-35 -67 -54 -114q-30 -76 -30 -123q0 -67 50 -96q19 -11 45 -11q50 0 120 43q37 23 108 80q50 40 54 37z" />
    <glyph glyph-name="uni1EB0" unicode="&#x1eb0;" 
d="M531 984q0 11 6 11q4 0 16 -29q40 -84 116 -89q139 -4 215 104q-36 -131 -212 -133q-78 0 -112 54q-29 44 -29 82zM1143 325q-2 2 -73 -72q-176 -185 -371 -185q-103 0 -103 139q0 50 11 106q86 93 160 203q78 116 78 172q0 33 -31 33q-72 0 -146 -139q-70 -131 -93 -251
q-89 -93 -178 -162q-167 -129 -290 -129q-75 0 -75 83q0 121 129 320q74 114 159 199q121 121 211 121q28 0 51 -13q39 -22 39 -63q0 -58 -70 -144q-43 -51 -65 -76q-54 -64 -54 -75q0 -6 6 -6q25 0 85 65q45 49 71 88q61 92 61 158q0 48 -36 75q-32 25 -81 25
q-108 0 -239 -127q-96 -93 -175 -220q-122 -196 -122 -330q0 -118 111 -118q122 0 293 129q85 64 161 140q-2 -26 -2 -51q0 -182 134 -186q140 -4 310 138q37 31 87 86q54 60 47 67zM693 555q61 127 104 128q10 0 13 -9q2 -7 -2 -21q-24 -87 -181 -265l-2 -2q25 79 68 169z
M784 997q0 4 -20 18q-98 68 -135 94.5t-48 44.5q-19 32 -35 40q-11 -8 -11 -22q0 -42 130 -134q69 -49 98 -49q21 0 21 8z" />
    <glyph glyph-name="uni1EB1" unicode="&#x1eb1;" horiz-adv-x="828" 
d="M330 692q0 11 6 11q4 0 16 -29q40 -84 116 -89q139 -4 215 104q-36 -131 -212 -133q-78 0 -112 54q-29 44 -29 82zM806 166q-4 3 -54 -37q-71 -57 -108 -80q-70 -43 -120 -43q-26 0 -45 11q-50 29 -50 96q0 47 30 123q19 47 54 114q29 55 29 65q0 3 -1 4q-9 6 -105 -93
q-128 -131 -196 -190q-121 -104 -184 -104q-52 0 -52 49q0 54 72 153q51 70 125 142q100 97 152 97q10 0 17 -6q22 -20 22 -49q0 -36 -36 -92q-17 -26 -65 -82q-33 -38 -29 -43q3 -3 60 59t65 74q43 67 43 109q0 26 -17.5 41.5t-43.5 15.5q-63 0 -160 -82q-78 -66 -146 -160
q-84 -116 -84 -192q0 -32 19 -51t51 -19q136 0 417 328q-68 -130 -68 -224q0 -83 58 -114q28 -15 60 -15q108 0 238 127q53 52 53 65q0 2 -1 3zM574 719q0 4 -20 18q-98 68 -135 94.5t-48 44.5q-19 32 -35 40q-11 -8 -11 -22q0 -42 130 -134q69 -49 98 -49q21 0 21 8z" />
    <glyph glyph-name="uni1EB2" unicode="&#x1eb2;" 
d="M741 1009q29 -19 -16 -19q-30 -1 -39 34q3 32 62 61q67 29 80 73q12 31 -17 45q-13 3 -21 3q-13 0 -37 -9l-25 -14q-8 -3 -12 0q-3 2 0 6q9 29 34 37q42 13 59 9q51 -7 55 -49q3 -27 -10 -55q-11 -20 -34 -37q-29 -23 -76 -42l-24 -20q-6 -22 21 -23zM531 984q0 11 6 11
q4 0 16 -29q40 -84 116 -89q139 -4 215 104q-36 -131 -212 -133q-78 0 -112 54q-29 44 -29 82zM1143 325q7 -7 -47 -67q-50 -55 -87 -86q-170 -142 -310 -138q-134 4 -134 186q0 25 2 51q-76 -76 -161 -140q-171 -129 -293 -129q-111 0 -111 118q0 134 122 330
q79 127 175 220q131 127 239 127q49 0 81 -25q36 -27 36 -75q0 -66 -61 -158q-26 -39 -71 -88q-60 -65 -85 -65q-6 0 -6 6q0 11 54 75q22 25 65 76q70 86 70 144q0 41 -39 63q-23 13 -51 13q-90 0 -211 -121q-85 -85 -159 -199q-129 -199 -129 -320q0 -83 75 -83
q123 0 290 129q89 69 178 162q23 120 93 251q74 139 146 139q31 0 31 -33q0 -56 -78 -172q-74 -110 -160 -203q-11 -56 -11 -106q0 -139 103 -139q195 0 371 185q71 74 73 72zM693 555q-43 -90 -68 -169l2 2q157 178 181 265q4 14 2 21q-3 9 -13 9q-43 -1 -104 -128z" />
    <glyph glyph-name="uni1EB3" unicode="&#x1eb3;" horiz-adv-x="828" 
d="M538 705q29 -19 -16 -19q-30 -1 -39 34q3 32 62 61q67 29 80 73q12 31 -17 45q-13 3 -21 3q-13 0 -37 -9l-25 -14q-8 -3 -12 0q-3 2 0 6q9 29 34 37q42 13 59 9q51 -7 55 -49q3 -27 -10 -55q-11 -20 -34 -37q-29 -23 -76 -42l-24 -20q-6 -22 21 -23zM330 692q0 11 6 11
q4 0 16 -29q40 -84 116 -89q139 -4 215 104q-36 -131 -212 -133q-78 0 -112 54q-29 44 -29 82zM806 166q1 -1 1 -3q0 -13 -53 -65q-130 -127 -238 -127q-32 0 -60 15q-58 31 -58 114q0 94 68 224q-281 -328 -417 -328q-32 0 -51 19t-19 51q0 76 84 192q68 94 146 160
q97 82 160 82q26 0 43.5 -15.5t17.5 -41.5q0 -42 -43 -109q-8 -12 -65 -74t-60 -59q-4 5 29 43q48 56 65 82q36 56 36 92q0 29 -22 49q-7 6 -17 6q-52 0 -152 -97q-74 -72 -125 -142q-72 -99 -72 -153q0 -49 52 -49q63 0 184 104q68 59 196 190q96 99 105 93q1 -1 1 -4
q0 -10 -29 -65q-35 -67 -54 -114q-30 -76 -30 -123q0 -67 50 -96q19 -11 45 -11q50 0 120 43q37 23 108 80q50 40 54 37z" />
    <glyph glyph-name="uni1EB4" unicode="&#x1eb4;" 
d="M531 984q0 11 6 11q4 0 16 -29q40 -84 116 -89q139 -4 215 104q-36 -131 -212 -133q-78 0 -112 54q-29 44 -29 82zM1143 325q-2 2 -73 -72q-176 -185 -371 -185q-103 0 -103 139q0 50 11 106q86 93 160 203q78 116 78 172q0 33 -31 33q-72 0 -146 -139q-70 -131 -93 -251
q-89 -93 -178 -162q-167 -129 -290 -129q-75 0 -75 83q0 121 129 320q74 114 159 199q121 121 211 121q28 0 51 -13q39 -22 39 -63q0 -58 -70 -144q-43 -51 -65 -76q-54 -64 -54 -75q0 -6 6 -6q25 0 85 65q45 49 71 88q61 92 61 158q0 48 -36 75q-32 25 -81 25
q-108 0 -239 -127q-96 -93 -175 -220q-122 -196 -122 -330q0 -118 111 -118q122 0 293 129q85 64 161 140q-2 -26 -2 -51q0 -182 134 -186q140 -4 310 138q37 31 87 86q54 60 47 67zM693 555q61 127 104 128q10 0 13 -9q2 -7 -2 -21q-24 -87 -181 -265l-2 -2q25 79 68 169z
M927 1106q0 3 -3 4q1 0 -34 -31t-53 -31q-12 0 -37 21q-32 27 -53 39q-39 22 -81 24q-79 3 -79 -64q0 -28 8 -28q12 0 14 17q2 25 8 33q13 18 51 18q46 0 76 -21l45 -40q24 -21 53 -21q17 0 51 31.5t34 48.5z" />
    <glyph glyph-name="uni1EB5" unicode="&#x1eb5;" horiz-adv-x="828" 
d="M330 692q0 11 6 11q4 0 16 -29q40 -84 116 -89q139 -4 215 104q-36 -131 -212 -133q-78 0 -112 54q-29 44 -29 82zM806 166q-4 3 -54 -37q-71 -57 -108 -80q-70 -43 -120 -43q-26 0 -45 11q-50 29 -50 96q0 47 30 123q19 47 54 114q29 55 29 65q0 3 -1 4q-9 6 -105 -93
q-128 -131 -196 -190q-121 -104 -184 -104q-52 0 -52 49q0 54 72 153q51 70 125 142q100 97 152 97q10 0 17 -6q22 -20 22 -49q0 -36 -36 -92q-17 -26 -65 -82q-33 -38 -29 -43q3 -3 60 59t65 74q43 67 43 109q0 26 -17.5 41.5t-43.5 15.5q-63 0 -160 -82q-78 -66 -146 -160
q-84 -116 -84 -192q0 -32 19 -51t51 -19q136 0 417 328q-68 -130 -68 -224q0 -83 58 -114q28 -15 60 -15q108 0 238 127q53 52 53 65q0 2 -1 3zM739 810q0 3 -3 4q1 0 -34 -31t-53 -31q-12 0 -37 21q-32 27 -53 39q-39 22 -81 24q-79 3 -79 -64q0 -28 8 -28q12 0 14 17
q2 25 8 33q13 18 51 18q46 0 76 -21l45 -40q24 -21 53 -21q17 0 51 31.5t34 48.5z" />
    <glyph glyph-name="uni1EB6" unicode="&#x1eb6;" 
d="M345 -53q0 8 -6 10q-9 8 -43 -1q-30 -15 -30 -31q0 -24 25 -24q35 0 55 33q5 8 -1 13zM531 984q0 11 6 11q4 0 16 -29q40 -84 116 -89q139 -4 215 104q-36 -131 -212 -133q-78 0 -112 54q-29 44 -29 82zM1143 325q-2 2 -73 -72q-176 -185 -371 -185q-103 0 -103 139
q0 50 11 106q86 93 160 203q78 116 78 172q0 33 -31 33q-72 0 -146 -139q-70 -131 -93 -251q-89 -93 -178 -162q-167 -129 -290 -129q-75 0 -75 83q0 121 129 320q74 114 159 199q121 121 211 121q28 0 51 -13q39 -22 39 -63q0 -58 -70 -144q-43 -51 -65 -76
q-54 -64 -54 -75q0 -6 6 -6q25 0 85 65q45 49 71 88q61 92 61 158q0 48 -36 75q-32 25 -81 25q-108 0 -239 -127q-96 -93 -175 -220q-122 -196 -122 -330q0 -118 111 -118q122 0 293 129q85 64 161 140q-2 -26 -2 -51q0 -182 134 -186q140 -4 310 138q37 31 87 86
q54 60 47 67zM693 555q61 127 104 128q10 0 13 -9q2 -7 -2 -21q-24 -87 -181 -265l-2 -2q25 79 68 169z" />
    <glyph glyph-name="uni1EB7" unicode="&#x1eb7;" horiz-adv-x="828" 
d="M207 -54q0 8 -6 10q-9 8 -43 -1q-30 -15 -30 -31q0 -24 25 -24q35 0 55 33q5 8 -1 13zM330 692q0 11 6 11q4 0 16 -29q40 -84 116 -89q139 -4 215 104q-36 -131 -212 -133q-78 0 -112 54q-29 44 -29 82zM806 166q-4 3 -54 -37q-71 -57 -108 -80q-70 -43 -120 -43
q-26 0 -45 11q-50 29 -50 96q0 47 30 123q19 47 54 114q29 55 29 65q0 3 -1 4q-9 6 -105 -93q-128 -131 -196 -190q-121 -104 -184 -104q-52 0 -52 49q0 54 72 153q51 70 125 142q100 97 152 97q10 0 17 -6q22 -20 22 -49q0 -36 -36 -92q-17 -26 -65 -82q-33 -38 -29 -43
q3 -3 60 59t65 74q43 67 43 109q0 26 -17.5 41.5t-43.5 15.5q-63 0 -160 -82q-78 -66 -146 -160q-84 -116 -84 -192q0 -32 19 -51t51 -19q136 0 417 328q-68 -130 -68 -224q0 -83 58 -114q28 -15 60 -15q108 0 238 127q53 52 53 65q0 2 -1 3z" />
    <glyph glyph-name="uni1EB8" unicode="&#x1eb8;" horiz-adv-x="795" 
d="M278 -54q6 -5 1 -13q-20 -33 -55 -33q-25 0 -25 24q0 16 30 31q34 9 43 1q6 -2 6 -10zM796 365q6 -6 -49 -64q-62 -66 -144 -129q-234 -181 -393 -167q-179 15 -179 121q0 70 72 165h-3q-42 0 -69 27.5t-27 69.5q0 92 122 201q92 82 204 138q138 69 240 69q86 0 122 -53
q3 -4 3 -9q0 -23 -48.5 -68t-59.5 -38q-2 1 -2 3q0 8 34 40l17 16q5 4 15 14q16 17 7 25q-47 39 -118 39q-104 0 -231 -74q-90 -53 -171 -131q-107 -102 -107 -176q0 -26 19.5 -44t46.5 -18q17 0 37 6q43 48 112 109q108 94 156 94q15 0 15 -12q0 -28 -61 -86
q-109 -103 -195 -132q-100 -110 -100 -174q0 -77 141 -87q136 -9 293 86q98 60 246 194q52 47 55 45zM320 452h1l1 1v1z" />
    <glyph glyph-name="uni1EB9" unicode="&#x1eb9;" horiz-adv-x="615" 
d="M207 -54q6 -5 1 -13q-20 -33 -55 -33q-25 0 -25 24q0 16 30 31q34 9 43 1q6 -2 6 -10zM612 283q1 -1 1 -3q0 -8 -29 -44q-76 -95 -179 -159q-119 -75 -220 -75q-87 0 -133 49.5t-46 136.5q0 16 1 32h-2q-2 0 -3 2q-2 3 7 14q12 84 63 166q74 118 177 118q64 0 64 -26
q0 -24 -57 -78q-106 -100 -185 -158q-22 -16 -37 -25q-2 -19 -2 -37q0 -76 41 -117.5t117 -41.5q111 0 213 66q70 45 170 149q33 34 39 31zM92 389q-39 -63 -52 -124q11 9 26 21q33 25 99 76q113 89 113 121q0 16 -30 16q-89 0 -156 -110z" />
    <glyph glyph-name="uni1EBA" unicode="&#x1eba;" horiz-adv-x="795" 
d="M574 858q29 -19 -16 -19q-30 -1 -39 34q3 32 62 61q67 29 80 73q12 31 -17 45q-13 3 -21 3q-13 0 -37 -9l-25 -14q-8 -3 -12 0q-3 2 0 6q9 29 34 37q42 13 59 9q51 -7 55 -49q3 -27 -10 -55q-11 -20 -34 -37q-29 -23 -76 -42l-24 -20q-6 -22 21 -23zM796 365
q6 -6 -49 -64q-62 -66 -144 -129q-234 -181 -393 -167q-179 15 -179 121q0 70 72 165h-3q-42 0 -69 27.5t-27 69.5q0 92 122 201q92 82 204 138q138 69 240 69q86 0 122 -53q3 -4 3 -9q0 -23 -48.5 -68t-59.5 -38q-2 1 -2 3q0 8 34 40l17 16q5 4 15 14q16 17 7 25
q-47 39 -118 39q-104 0 -231 -74q-90 -53 -171 -131q-107 -102 -107 -176q0 -26 19.5 -44t46.5 -18q17 0 37 6q43 48 112 109q108 94 156 94q15 0 15 -12q0 -28 -61 -86q-109 -103 -195 -132q-100 -110 -100 -174q0 -77 141 -87q136 -9 293 86q98 60 246 194q52 47 55 45z
M320 452h1l1 1v1z" />
    <glyph glyph-name="uni1EBB" unicode="&#x1ebb;" horiz-adv-x="615" 
d="M305 587q29 -19 -16 -19q-30 -1 -39 34q3 32 62 61q67 29 80 73q12 31 -17 45q-13 3 -21 3q-13 0 -37 -9l-25 -14q-8 -3 -12 0q-3 2 0 6q9 29 34 37q42 13 59 9q51 -7 55 -49q3 -27 -10 -55q-11 -20 -34 -37q-29 -23 -76 -42l-24 -20q-6 -22 21 -23zM612 283q1 -1 1 -3
q0 -8 -29 -44q-76 -95 -179 -159q-119 -75 -220 -75q-87 0 -133 49.5t-46 136.5q0 16 1 32h-2q-2 0 -3 2q-2 3 7 14q12 84 63 166q74 118 177 118q64 0 64 -26q0 -24 -57 -78q-106 -100 -185 -158q-22 -16 -37 -25q-2 -19 -2 -37q0 -76 41 -117.5t117 -41.5q111 0 213 66
q70 45 170 149q33 34 39 31zM92 389q-39 -63 -52 -124q11 9 26 21q33 25 99 76q113 89 113 121q0 16 -30 16q-89 0 -156 -110z" />
    <glyph glyph-name="uni1EBC" unicode="&#x1ebc;" horiz-adv-x="795" 
d="M796 365q-3 2 -55 -45q-148 -134 -246 -194q-157 -95 -293 -86q-141 10 -141 87q0 64 100 174q86 29 195 132q61 58 61 86q0 12 -15 12q-48 0 -156 -94q-69 -61 -112 -109q-20 -6 -37 -6q-27 0 -46.5 18t-19.5 44q0 74 107 176q81 78 171 131q127 74 231 74q71 0 118 -39
q9 -8 -7 -25q-10 -10 -15 -14l-17 -16q-34 -32 -34 -40q0 -2 2 -3q11 -7 59.5 38t48.5 68q0 5 -3 9q-36 53 -122 53q-102 0 -240 -69q-112 -56 -204 -138q-122 -109 -122 -201q0 -42 27 -69.5t69 -27.5h3q-72 -95 -72 -165q0 -106 179 -121q159 -14 393 167q82 63 144 129
q55 58 49 64zM322 454v-1l-1 -1h-1zM692 900q0 3 -3 4q1 0 -34 -31t-53 -31q-12 0 -37 21q-32 27 -53 39q-39 22 -81 24q-79 3 -79 -64q0 -28 8 -28q12 0 14 17q2 25 8 33q13 18 51 18q46 0 76 -21l45 -40q24 -21 53 -21q17 0 51 31.5t34 48.5z" />
    <glyph glyph-name="uni1EBD" unicode="&#x1ebd;" horiz-adv-x="615" 
d="M612 283q-6 3 -39 -31q-100 -104 -170 -149q-102 -66 -213 -66q-76 0 -117 41.5t-41 117.5q0 18 2 37q15 9 37 25q79 58 185 158q57 54 57 78q0 26 -64 26q-103 0 -177 -118q-51 -82 -63 -166q-9 -11 -7 -14q1 -2 3 -2h2q-1 -16 -1 -32q0 -87 46 -136.5t133 -49.5
q101 0 220 75q103 64 179 159q29 36 29 44q0 2 -1 3zM92 389q67 110 156 110q30 0 30 -16q0 -32 -113 -121q-66 -51 -99 -76q-15 -12 -26 -21q13 61 52 124zM460 644q0 3 -3 4q1 0 -34 -31t-53 -31q-12 0 -37 21q-32 27 -53 39q-39 22 -81 24q-79 3 -79 -64q0 -28 8 -28
q12 0 14 17q2 25 8 33q13 18 51 18q46 0 76 -21l45 -40q24 -21 53 -21q17 0 51 31.5t34 48.5z" />
    <glyph glyph-name="uni1EBE" unicode="&#x1ebe;" horiz-adv-x="795" 
d="M925 1138q-2 -27 -82 -82q-59 -41 -107 -65q-28 -14 -49 -14q-25 0 -30 19q14 12 49 19q21 4 58 31q45 30 134 92q20 15 24 15t3 -15zM799 367q1 -1 1 -3q0 -19 -90 -105q-111 -106 -233 -177q-156 -91 -268 -81q-182 15 -182 125q0 71 68 161q-40 1 -67 29
q-28 29 -28 72q0 93 123 203q94 84 205 140q137 69 242 69q87 0 125 -54q4 -6 4 -12q0 -25 -50.5 -71.5t-63.5 -38.5q-4 3 -4 7q0 9 38 45.5t38 42.5q0 3 -2 4q-46 38 -116 38q-102 0 -229 -74q-88 -51 -169 -129q-106 -102 -106 -174q0 -24 18.5 -41t43.5 -17q16 0 36 7
q45 51 110 107q108 94 160 94q18 0 18 -14q0 -34 -75 -102q-102 -92 -182 -120q-99 -109 -99 -171q0 -74 137 -83q130 -8 282 80q93 54 217 165q93 83 98 78zM678 853q28 -22 -28 -18q-56 18 -73 92q-3 37 -12 76l-196 -172q-9 -8 -20 -8q-16 0 -16 16q0 9 246 200
q25 0 24 -23q-10 -12 -3 -49q1 -20 5 -36q14 -55 57 -71z" />
    <glyph glyph-name="uni1EBF" unicode="&#x1ebf;" horiz-adv-x="615" 
d="M695 914q-2 -27 -82 -82q-59 -41 -107 -65q-28 -14 -49 -14q-25 0 -30 19q14 12 49 19q21 4 58 31q45 30 134 92q20 15 24 15t3 -15zM614 281q0 -21 -65 -88q-78 -81 -165 -131q-106 -62 -199 -62q-88 0 -134.5 50t-46.5 138q0 15 1 31q-3 0 -4 1q-1 2 5 10q11 89 64 174
q74 118 179 118q66 0 66 -28q0 -20 -40 -62q-9 -10 -74 -69q-114 -105 -166 -133q-2 -17 -2 -34q0 -75 41 -116t116 -41q108 0 214 67q67 42 143 122q59 61 66 57q1 -1 1 -4zM93 387q-39 -63 -52 -123q33 29 92 76q143 114 143 143q0 14 -28 14q-88 0 -155 -110zM431 616
q28 -22 -28 -18q-56 18 -73 92q-3 37 -12 76l-196 -172q-9 -8 -20 -8q-16 0 -16 16q0 9 246 200q25 0 24 -23q-10 -12 -3 -49q1 -20 5 -36q14 -55 57 -71z" />
    <glyph glyph-name="uni1EC0" unicode="&#x1ec0;" horiz-adv-x="795" 
d="M799 367q1 -1 1 -3q0 -19 -90 -105q-111 -106 -233 -177q-156 -91 -268 -81q-182 15 -182 125q0 71 68 161q-40 1 -67 29q-28 29 -28 72q0 93 123 203q94 84 205 140q137 69 242 69q87 0 125 -54q4 -6 4 -12q0 -25 -50.5 -71.5t-63.5 -38.5q-4 3 -4 7q0 9 38 45.5
t38 42.5q0 3 -2 4q-46 38 -116 38q-102 0 -229 -74q-88 -51 -169 -129q-106 -102 -106 -174q0 -24 18.5 -41t43.5 -17q16 0 36 7q45 51 110 107q108 94 160 94q18 0 18 -14q0 -34 -75 -102q-102 -92 -182 -120q-99 -109 -99 -171q0 -74 137 -83q130 -8 282 80q93 54 217 165
q93 83 98 78zM678 853q28 -22 -28 -18q-56 18 -73 92q-3 37 -12 76l-196 -172q-9 -8 -20 -8q-16 0 -16 16q0 9 246 200q25 0 24 -23q-10 -12 -3 -49q1 -20 5 -36q14 -55 57 -71zM717 1051q0 4 -20 18q-98 68 -135 94.5t-48 44.5q-19 32 -35 40q-11 -8 -11 -22
q0 -42 130 -134q69 -49 98 -49q21 0 21 8z" />
    <glyph glyph-name="uni1EC1" unicode="&#x1ec1;" horiz-adv-x="615" 
d="M614 281q0 -21 -65 -88q-78 -81 -165 -131q-106 -62 -199 -62q-88 0 -134.5 50t-46.5 138q0 15 1 31q-3 0 -4 1q-1 2 5 10q11 89 64 174q74 118 179 118q66 0 66 -28q0 -20 -40 -62q-9 -10 -74 -69q-114 -105 -166 -133q-2 -17 -2 -34q0 -75 41 -116t116 -41
q108 0 214 67q67 42 143 122q59 61 66 57q1 -1 1 -4zM93 387q-39 -63 -52 -123q33 29 92 76q143 114 143 143q0 14 -28 14q-88 0 -155 -110zM431 616q28 -22 -28 -18q-56 18 -73 92q-3 37 -12 76l-196 -172q-9 -8 -20 -8q-16 0 -16 16q0 9 246 200q25 0 24 -23
q-10 -12 -3 -49q1 -20 5 -36q14 -55 57 -71zM486 803q0 4 -20 18q-98 68 -135 94.5t-48 44.5q-19 32 -35 40q-11 -8 -11 -22q0 -42 130 -134q69 -49 98 -49q21 0 21 8z" />
    <glyph glyph-name="uni1EC2" unicode="&#x1ec2;" horiz-adv-x="795" 
d="M706 1014q29 -19 -16 -19q-30 -1 -39 34q3 32 62 61q67 29 80 73q12 31 -17 45q-13 3 -21 3q-13 0 -37 -9l-25 -14q-8 -3 -12 0q-3 2 0 6q9 29 34 37q42 13 59 9q51 -7 55 -49q3 -27 -10 -55q-11 -20 -34 -37q-29 -23 -76 -42l-24 -20q-6 -22 21 -23zM799 367q1 -1 1 -3
q0 -19 -90 -105q-111 -106 -233 -177q-156 -91 -268 -81q-182 15 -182 125q0 71 68 161q-40 1 -67 29q-28 29 -28 72q0 93 123 203q94 84 205 140q137 69 242 69q87 0 125 -54q4 -6 4 -12q0 -25 -50.5 -71.5t-63.5 -38.5q-4 3 -4 7q0 9 38 45.5t38 42.5q0 3 -2 4
q-46 38 -116 38q-102 0 -229 -74q-88 -51 -169 -129q-106 -102 -106 -174q0 -24 18.5 -41t43.5 -17q16 0 36 7q45 51 110 107q108 94 160 94q18 0 18 -14q0 -34 -75 -102q-102 -92 -182 -120q-99 -109 -99 -171q0 -74 137 -83q130 -8 282 80q93 54 217 165q93 83 98 78z
M678 853q28 -22 -28 -18q-56 18 -73 92q-3 37 -12 76l-196 -172q-9 -8 -20 -8q-16 0 -16 16q0 9 246 200q25 0 24 -23q-10 -12 -3 -49q1 -20 5 -36q14 -55 57 -71z" />
    <glyph glyph-name="uni1EC3" unicode="&#x1ec3;" horiz-adv-x="615" 
d="M469 773q29 -19 -16 -19q-30 -1 -39 34q3 32 62 61q67 29 80 73q12 31 -17 45q-13 3 -21 3q-13 0 -37 -9l-25 -14q-8 -3 -12 0q-3 2 0 6q9 29 34 37q42 13 59 9q51 -7 55 -49q3 -27 -10 -55q-11 -20 -34 -37q-29 -23 -76 -42l-24 -20q-6 -22 21 -23zM614 281
q0 -21 -65 -88q-78 -81 -165 -131q-106 -62 -199 -62q-88 0 -134.5 50t-46.5 138q0 15 1 31q-3 0 -4 1q-1 2 5 10q11 89 64 174q74 118 179 118q66 0 66 -28q0 -20 -40 -62q-9 -10 -74 -69q-114 -105 -166 -133q-2 -17 -2 -34q0 -75 41 -116t116 -41q108 0 214 67
q67 42 143 122q59 61 66 57q1 -1 1 -4zM93 387q-39 -63 -52 -123q33 29 92 76q143 114 143 143q0 14 -28 14q-88 0 -155 -110zM431 616q28 -22 -28 -18q-56 18 -73 92q-3 37 -12 76l-196 -172q-9 -8 -20 -8q-16 0 -16 16q0 9 246 200q25 0 24 -23q-10 -12 -3 -49
q1 -20 5 -36q14 -55 57 -71z" />
    <glyph glyph-name="uni1EC4" unicode="&#x1ec4;" horiz-adv-x="795" 
d="M799 367q1 -1 1 -3q0 -19 -90 -105q-111 -106 -233 -177q-156 -91 -268 -81q-182 15 -182 125q0 71 68 161q-40 1 -67 29q-28 29 -28 72q0 93 123 203q94 84 205 140q137 69 242 69q87 0 125 -54q4 -6 4 -12q0 -25 -50.5 -71.5t-63.5 -38.5q-4 3 -4 7q0 9 38 45.5
t38 42.5q0 3 -2 4q-46 38 -116 38q-102 0 -229 -74q-88 -51 -169 -129q-106 -102 -106 -174q0 -24 18.5 -41t43.5 -17q16 0 36 7q45 51 110 107q108 94 160 94q18 0 18 -14q0 -34 -75 -102q-102 -92 -182 -120q-99 -109 -99 -171q0 -74 137 -83q130 -8 282 80q93 54 217 165
q93 83 98 78zM678 853q28 -22 -28 -18q-56 18 -73 92q-3 37 -12 76l-196 -172q-9 -8 -20 -8q-16 0 -16 16q0 9 246 200q25 0 24 -23q-10 -12 -3 -49q1 -20 5 -36q14 -55 57 -71zM788 1136q0 3 -3 4q1 0 -34 -31t-53 -31q-12 0 -37 21q-32 27 -53 39q-39 22 -81 24
q-79 3 -79 -64q0 -28 8 -28q12 0 14 17q2 25 8 33q13 18 51 18q46 0 76 -21l45 -40q24 -21 53 -21q17 0 51 31.5t34 48.5z" />
    <glyph glyph-name="uni1EC5" unicode="&#x1ec5;" horiz-adv-x="615" 
d="M614 281q0 -21 -65 -88q-78 -81 -165 -131q-106 -62 -199 -62q-88 0 -134.5 50t-46.5 138q0 15 1 31q-3 0 -4 1q-1 2 5 10q11 89 64 174q74 118 179 118q66 0 66 -28q0 -20 -40 -62q-9 -10 -74 -69q-114 -105 -166 -133q-2 -17 -2 -34q0 -75 41 -116t116 -41
q108 0 214 67q67 42 143 122q59 61 66 57q1 -1 1 -4zM93 387q-39 -63 -52 -123q33 29 92 76q143 114 143 143q0 14 -28 14q-88 0 -155 -110zM431 616q28 -22 -28 -18q-56 18 -73 92q-3 37 -12 76l-196 -172q-9 -8 -20 -8q-16 0 -16 16q0 9 246 200q25 0 24 -23
q-10 -12 -3 -49q1 -20 5 -36q14 -55 57 -71zM554 918q0 3 -3 4q1 0 -34 -31t-53 -31q-12 0 -37 21q-32 27 -53 39q-39 22 -81 24q-79 3 -79 -64q0 -28 8 -28q12 0 14 17q2 25 8 33q13 18 51 18q46 0 76 -21l45 -40q24 -21 53 -21q17 0 51 31.5t34 48.5z" />
    <glyph glyph-name="uni1EC6" unicode="&#x1ec6;" horiz-adv-x="795" 
d="M278 -54q6 -5 1 -13q-20 -33 -55 -33q-25 0 -25 24q0 16 30 31q34 9 43 1q6 -2 6 -10zM799 367q1 -1 1 -3q0 -19 -90 -105q-111 -106 -233 -177q-156 -91 -268 -81q-182 15 -182 125q0 71 68 161q-40 1 -67 29q-28 29 -28 72q0 93 123 203q94 84 205 140q137 69 242 69
q87 0 125 -54q4 -6 4 -12q0 -25 -50.5 -71.5t-63.5 -38.5q-4 3 -4 7q0 9 38 45.5t38 42.5q0 3 -2 4q-46 38 -116 38q-102 0 -229 -74q-88 -51 -169 -129q-106 -102 -106 -174q0 -24 18.5 -41t43.5 -17q16 0 36 7q45 51 110 107q108 94 160 94q18 0 18 -14q0 -34 -75 -102
q-102 -92 -182 -120q-99 -109 -99 -171q0 -74 137 -83q130 -8 282 80q93 54 217 165q93 83 98 78zM678 853q28 -22 -28 -18q-56 18 -73 92q-3 37 -12 76l-196 -172q-9 -8 -20 -8q-16 0 -16 16q0 9 246 200q25 0 24 -23q-10 -12 -3 -49q1 -20 5 -36q14 -55 57 -71z" />
    <glyph glyph-name="uni1EC7" unicode="&#x1ec7;" horiz-adv-x="615" 
d="M207 -54q6 -5 1 -13q-20 -33 -55 -33q-25 0 -25 24q0 16 30 31q34 9 43 1q6 -2 6 -10zM614 281q0 -21 -65 -88q-78 -81 -165 -131q-106 -62 -199 -62q-88 0 -134.5 50t-46.5 138q0 15 1 31q-3 0 -4 1q-1 2 5 10q11 89 64 174q74 118 179 118q66 0 66 -28q0 -20 -40 -62
q-9 -10 -74 -69q-114 -105 -166 -133q-2 -17 -2 -34q0 -75 41 -116t116 -41q108 0 214 67q67 42 143 122q59 61 66 57q1 -1 1 -4zM93 387q-39 -63 -52 -123q33 29 92 76q143 114 143 143q0 14 -28 14q-88 0 -155 -110zM431 616q28 -22 -28 -18q-56 18 -73 92q-3 37 -12 76
l-196 -172q-9 -8 -20 -8q-16 0 -16 16q0 9 246 200q25 0 24 -23q-10 -12 -3 -49q1 -20 5 -36q14 -55 57 -71z" />
    <glyph glyph-name="uni1EC8" unicode="&#x1ec8;" horiz-adv-x="731" 
d="M578 821q29 -19 -16 -19q-30 -1 -39 34q3 32 62 61q67 29 80 73q12 31 -17 45q-13 3 -21 3q-13 0 -37 -9l-25 -14q-8 -3 -12 0q-3 2 0 6q9 29 34 37q42 13 59 9q51 -7 55 -49q3 -27 -10 -55q-11 -20 -34 -37q-29 -23 -76 -42l-24 -20q-6 -22 21 -23zM736 486
q2 -3 -119 -53q-55 -23 -102 -43q-44 -122 -95 -214q-98 -176 -192 -176q-116 0 -116 91q0 103 139 199q79 55 226 117l12 5q20 63 41 136q41 146 44 175q-5 -7 -45 -20q-52 -16 -76 -16q-67 0 -126 50q-41 35 -93 35q-43 0 -101 -55q-29 -28 -86 -100q-40 -51 -45 -46
q-2 1 -2 4q0 39 94.5 132t133.5 93q48 0 108.5 -40.5t86.5 -40.5q42 0 114 25q61 21 71 19q2 -1 2 -9q0 -57 -52 -233q-14 -48 -30 -93q151 61 200 61q7 0 8 -3zM475 372q-233 -105 -283 -164q-51 -60 -51 -112q0 -71 83 -66q132 7 251 342z" />
    <glyph glyph-name="uni1EC9" unicode="&#x1ec9;" horiz-adv-x="526" 
d="M524 321q5 -3 -29 -52q-70 -101 -163 -176q-115 -93 -210 -93q-62 0 -62 74q0 114 129 351q-160 -173 -183 -173q-1 0 -2 1q-6 13 95 115q105 106 143 106l-1 -2q-1 -8 -101 -226q-51 -109 -51 -164q0 -45 37 -45q88 0 197 86q65 52 161 158q38 42 40 40zM296 571
q29 -19 -16 -19q-30 -1 -39 34q3 32 62 61q67 29 80 73q12 31 -17 45q-13 3 -21 3q-13 0 -37 -9l-25 -14q-8 -3 -12 0q-3 2 0 6q9 29 34 37q42 13 59 9q51 -7 55 -49q3 -27 -10 -55q-11 -20 -34 -37q-29 -23 -76 -42l-24 -20q-6 -22 21 -23z" />
    <glyph glyph-name="uni1ECA" unicode="&#x1eca;" horiz-adv-x="731" 
d="M251 -54q6 -5 1 -13q-20 -33 -55 -33q-25 0 -25 24q0 16 30 31q34 9 43 1q6 -2 6 -10zM736 486q2 -3 -119 -53q-55 -23 -102 -43q-44 -122 -95 -214q-98 -176 -192 -176q-116 0 -116 91q0 103 139 199q79 55 226 117l12 5q20 63 41 136q41 146 44 175q-5 -7 -45 -20
q-52 -16 -76 -16q-67 0 -126 50q-41 35 -93 35q-43 0 -101 -55q-29 -28 -86 -100q-40 -51 -45 -46q-2 1 -2 4q0 39 94.5 132t133.5 93q48 0 108.5 -40.5t86.5 -40.5q42 0 114 25q61 21 71 19q2 -1 2 -9q0 -57 -52 -233q-14 -48 -30 -93q151 61 200 61q7 0 8 -3zM475 372
q-233 -105 -283 -164q-51 -60 -51 -112q0 -71 83 -66q132 7 251 342z" />
    <glyph glyph-name="uni1ECB" unicode="&#x1ecb;" horiz-adv-x="526" 
d="M195 -54q6 -5 1 -13q-20 -33 -55 -33q-25 0 -25 24q0 16 30 31q34 9 43 1q6 -2 6 -10zM524 321q5 -3 -29 -52q-70 -101 -163 -176q-115 -93 -210 -93q-62 0 -62 74q0 114 129 351q-160 -173 -183 -173q-1 0 -2 1q-6 13 95 115q105 106 143 106l-1 -2q-1 -8 -101 -226
q-51 -109 -51 -164q0 -45 37 -45q88 0 197 86q65 52 161 158q38 42 40 40zM307 608q-1 -17 -7 -35q-6 -10 -13 -10q-28 6 -28 38q0 21 14 31t22.5 0t11.5 -24z" />
    <glyph glyph-name="uni1ECC" unicode="&#x1ecc;" horiz-adv-x="757" 
d="M207 -54q6 -5 1 -13q-20 -33 -55 -33q-25 0 -25 24q0 16 30 31q34 9 43 1q6 -2 6 -10zM755 584q0 -117 -113 -267q-95 -126 -210 -210q-147 -107 -275 -107q-157 0 -157 192q0 83 30 172.5t79 156.5q105 142 334 248q77 36 81 31q3 -14 -195 -132q137 48 246 48
q180 0 180 -132zM714 576q0 55 -36 82q-25 19 -52 24q-15 3 -65 3q-121 0 -247 -51q-140 -57 -193 -143q-91 -149 -91 -290q0 -71 27 -116q33 -55 100 -55q211 0 404 236q153 187 153 310z" />
    <glyph glyph-name="uni1ECD" unicode="&#x1ecd;" horiz-adv-x="507" 
d="M207 -54q6 -5 1 -13q-20 -33 -55 -33q-25 0 -25 24q0 16 30 31q34 9 43 1q6 -2 6 -10zM501 359q-9 -99 -103 -208q-131 -151 -290 -151q-107 0 -107 104q0 94 71 209q102 167 229 194q40 9 44 2q2 -3 -32 -17q-42 -17 -53 -23q-89 -45 -157 -150q-71 -107 -71 -204
q0 -78 77 -78q85 0 161 44q73 42 123 115q73 106 73 180q0 62 -65 62q-151 0 -233 -187l-11 -25q-3 -9 -5 -9q-1 1 0 10q6 51 43 113q75 125 205 125q110 0 101 -106z" />
    <glyph glyph-name="uni1ECE" unicode="&#x1ece;" horiz-adv-x="757" 
d="M632 830q29 -19 -16 -19q-30 -1 -39 34q3 32 62 61q67 29 80 73q12 31 -17 45q-13 3 -21 3q-13 0 -37 -9l-25 -14q-8 -3 -12 0q-3 2 0 6q9 29 34 37q42 13 59 9q51 -7 55 -49q3 -27 -10 -55q-11 -20 -34 -37q-29 -23 -76 -42l-24 -20q-6 -22 21 -23zM755 584
q0 -117 -113 -267q-95 -126 -210 -210q-147 -107 -275 -107q-157 0 -157 192q0 83 30 172.5t79 156.5q105 142 334 248q77 36 81 31q3 -14 -195 -132q137 48 246 48q180 0 180 -132zM714 576q0 55 -36 82q-25 19 -52 24q-15 3 -65 3q-121 0 -247 -51q-140 -57 -193 -143
q-91 -149 -91 -290q0 -71 27 -116q33 -55 100 -55q211 0 404 236q153 187 153 310z" />
    <glyph glyph-name="uni1ECF" unicode="&#x1ecf;" horiz-adv-x="507" 
d="M443 591q29 -19 -16 -19q-30 -1 -39 34q3 32 62 61q67 29 80 73q12 31 -17 45q-13 3 -21 3q-13 0 -37 -9l-25 -14q-8 -3 -12 0q-3 2 0 6q9 29 34 37q42 13 59 9q51 -7 55 -49q3 -27 -10 -55q-11 -20 -34 -37q-29 -23 -76 -42l-24 -20q-6 -22 21 -23zM501 359
q-9 -99 -103 -208q-131 -151 -290 -151q-107 0 -107 104q0 94 71 209q102 167 229 194q40 9 44 2q2 -3 -32 -17q-42 -17 -53 -23q-89 -45 -157 -150q-71 -107 -71 -204q0 -78 77 -78q85 0 161 44q73 42 123 115q73 106 73 180q0 62 -65 62q-151 0 -233 -187l-11 -25
q-3 -9 -5 -9q-1 1 0 10q6 51 43 113q75 125 205 125q110 0 101 -106z" />
    <glyph glyph-name="uni1ED0" unicode="&#x1ed0;" horiz-adv-x="757" 
d="M963 1132q-2 -27 -82 -82q-59 -41 -107 -65q-28 -14 -49 -14q-25 0 -30 19q14 12 49 19q21 4 58 31q45 30 134 92q20 15 24 15t3 -15zM755 584q0 -117 -113 -267q-95 -126 -210 -210q-147 -107 -275 -107q-157 0 -157 192q0 83 30 172.5t79 156.5q105 142 334 248
q77 36 81 31q3 -14 -195 -132q137 48 246 48q180 0 180 -132zM714 576q0 55 -36 82q-25 19 -52 24q-15 3 -65 3q-121 0 -247 -51q-140 -57 -193 -143q-91 -149 -91 -290q0 -71 27 -116q33 -55 100 -55q211 0 404 236q153 187 153 310zM709 851q28 -22 -28 -18q-56 18 -73 92
q-3 37 -12 76l-196 -172q-9 -8 -20 -8q-16 0 -16 16q0 9 246 200q25 0 24 -23q-10 -12 -3 -49q1 -20 5 -36q14 -55 57 -71z" />
    <glyph glyph-name="uni1ED1" unicode="&#x1ed1;" horiz-adv-x="507" 
d="M788 863q-2 -27 -82 -82q-59 -41 -107 -65q-28 -14 -49 -14q-25 0 -30 19q14 12 49 19q21 4 58 31q45 30 134 92q20 15 24 15t3 -15zM501 359q-9 -99 -103 -208q-131 -151 -290 -151q-107 0 -107 104q0 94 71 209q102 167 229 194q40 9 44 2q2 -3 -32 -17
q-42 -17 -53 -23q-89 -45 -157 -150q-71 -107 -71 -204q0 -78 77 -78q85 0 161 44q73 42 123 115q73 106 73 180q0 62 -65 62q-151 0 -233 -187l-11 -25q-3 -9 -5 -9q-1 1 0 10q6 51 43 113q75 125 205 125q110 0 101 -106zM541 582q28 -22 -28 -18q-56 18 -73 92
q-3 37 -12 76l-196 -172q-9 -8 -20 -8q-16 0 -16 16q0 9 246 200q25 0 24 -23q-10 -12 -3 -49q1 -20 5 -36q14 -55 57 -71z" />
    <glyph glyph-name="uni1ED2" unicode="&#x1ed2;" horiz-adv-x="757" 
d="M755 584q0 -117 -113 -267q-95 -126 -210 -210q-147 -107 -275 -107q-157 0 -157 192q0 83 30 172.5t79 156.5q105 142 334 248q77 36 81 31q3 -14 -195 -132q137 48 246 48q180 0 180 -132zM714 576q0 55 -36 82q-25 19 -52 24q-15 3 -65 3q-121 0 -247 -51
q-140 -57 -193 -143q-91 -149 -91 -290q0 -71 27 -116q33 -55 100 -55q211 0 404 236q153 187 153 310zM709 851q28 -22 -28 -18q-56 18 -73 92q-3 37 -12 76l-196 -172q-9 -8 -20 -8q-16 0 -16 16q0 9 246 200q25 0 24 -23q-10 -12 -3 -49q1 -20 5 -36q14 -55 57 -71z
M758 1042q0 4 -20 18q-98 68 -135 94.5t-48 44.5q-19 32 -35 40q-11 -8 -11 -22q0 -42 130 -134q69 -49 98 -49q21 0 21 8z" />
    <glyph glyph-name="uni1ED3" unicode="&#x1ed3;" horiz-adv-x="507" 
d="M501 359q-9 -99 -103 -208q-131 -151 -290 -151q-107 0 -107 104q0 94 71 209q102 167 229 194q40 9 44 2q2 -3 -32 -17q-42 -17 -53 -23q-89 -45 -157 -150q-71 -107 -71 -204q0 -78 77 -78q85 0 161 44q73 42 123 115q73 106 73 180q0 62 -65 62q-151 0 -233 -187
l-11 -25q-3 -9 -5 -9q-1 1 0 10q6 51 43 113q75 125 205 125q110 0 101 -106zM541 582q28 -22 -28 -18q-56 18 -73 92q-3 37 -12 76l-196 -172q-9 -8 -20 -8q-16 0 -16 16q0 9 246 200q25 0 24 -23q-10 -12 -3 -49q1 -20 5 -36q14 -55 57 -71zM603 764q0 4 -20 18
q-98 68 -135 94.5t-48 44.5q-19 32 -35 40q-11 -8 -11 -22q0 -42 130 -134q69 -49 98 -49q21 0 21 8z" />
    <glyph glyph-name="uni1ED4" unicode="&#x1ed4;" horiz-adv-x="757" 
d="M727 1006q29 -19 -16 -19q-30 -1 -39 34q3 32 62 61q67 29 80 73q12 31 -17 45q-13 3 -21 3q-13 0 -37 -9l-25 -14q-8 -3 -12 0q-3 2 0 6q9 29 34 37q42 13 59 9q51 -7 55 -49q3 -27 -10 -55q-11 -20 -34 -37q-29 -23 -76 -42l-24 -20q-6 -22 21 -23zM755 584
q0 -117 -113 -267q-95 -126 -210 -210q-147 -107 -275 -107q-157 0 -157 192q0 83 30 172.5t79 156.5q105 142 334 248q77 36 81 31q3 -14 -195 -132q137 48 246 48q180 0 180 -132zM714 576q0 55 -36 82q-25 19 -52 24q-15 3 -65 3q-121 0 -247 -51q-140 -57 -193 -143
q-91 -149 -91 -290q0 -71 27 -116q33 -55 100 -55q211 0 404 236q153 187 153 310zM709 851q28 -22 -28 -18q-56 18 -73 92q-3 37 -12 76l-196 -172q-9 -8 -20 -8q-16 0 -16 16q0 9 246 200q25 0 24 -23q-10 -12 -3 -49q1 -20 5 -36q14 -55 57 -71z" />
    <glyph glyph-name="uni1ED5" unicode="&#x1ed5;" horiz-adv-x="507" 
d="M563 729q29 -19 -16 -19q-30 -1 -39 34q3 32 62 61q67 29 80 73q12 31 -17 45q-13 3 -21 3q-13 0 -37 -9l-25 -14q-8 -3 -12 0q-3 2 0 6q9 29 34 37q42 13 59 9q51 -7 55 -49q3 -27 -10 -55q-11 -20 -34 -37q-29 -23 -76 -42l-24 -20q-6 -22 21 -23zM501 359
q-9 -99 -103 -208q-131 -151 -290 -151q-107 0 -107 104q0 94 71 209q102 167 229 194q40 9 44 2q2 -3 -32 -17q-42 -17 -53 -23q-89 -45 -157 -150q-71 -107 -71 -204q0 -78 77 -78q85 0 161 44q73 42 123 115q73 106 73 180q0 62 -65 62q-151 0 -233 -187l-11 -25
q-3 -9 -5 -9q-1 1 0 10q6 51 43 113q75 125 205 125q110 0 101 -106zM541 582q28 -22 -28 -18q-56 18 -73 92q-3 37 -12 76l-196 -172q-9 -8 -20 -8q-16 0 -16 16q0 9 246 200q25 0 24 -23q-10 -12 -3 -49q1 -20 5 -36q14 -55 57 -71z" />
    <glyph glyph-name="uni1ED6" unicode="&#x1ed6;" horiz-adv-x="757" 
d="M755 584q0 -117 -113 -267q-95 -126 -210 -210q-147 -107 -275 -107q-157 0 -157 192q0 83 30 172.5t79 156.5q105 142 334 248q77 36 81 31q3 -14 -195 -132q137 48 246 48q180 0 180 -132zM714 576q0 55 -36 82q-25 19 -52 24q-15 3 -65 3q-121 0 -247 -51
q-140 -57 -193 -143q-91 -149 -91 -290q0 -71 27 -116q33 -55 100 -55q211 0 404 236q153 187 153 310zM709 851q28 -22 -28 -18q-56 18 -73 92q-3 37 -12 76l-196 -172q-9 -8 -20 -8q-16 0 -16 16q0 9 246 200q25 0 24 -23q-10 -12 -3 -49q1 -20 5 -36q14 -55 57 -71z
M825 1135q0 3 -3 4q1 0 -34 -31t-53 -31q-12 0 -37 21q-32 27 -53 39q-39 22 -81 24q-79 3 -79 -64q0 -28 8 -28q12 0 14 17q2 25 8 33q13 18 51 18q46 0 76 -21l45 -40q24 -21 53 -21q17 0 51 31.5t34 48.5z" />
    <glyph glyph-name="uni1ED7" unicode="&#x1ed7;" horiz-adv-x="507" 
d="M501 359q-9 -99 -103 -208q-131 -151 -290 -151q-107 0 -107 104q0 94 71 209q102 167 229 194q40 9 44 2q2 -3 -32 -17q-42 -17 -53 -23q-89 -45 -157 -150q-71 -107 -71 -204q0 -78 77 -78q85 0 161 44q73 42 123 115q73 106 73 180q0 62 -65 62q-151 0 -233 -187
l-11 -25q-3 -9 -5 -9q-1 1 0 10q6 51 43 113q75 125 205 125q110 0 101 -106zM541 582q28 -22 -28 -18q-56 18 -73 92q-3 37 -12 76l-196 -172q-9 -8 -20 -8q-16 0 -16 16q0 9 246 200q25 0 24 -23q-10 -12 -3 -49q1 -20 5 -36q14 -55 57 -71zM666 873q0 3 -3 4q1 0 -34 -31
t-53 -31q-12 0 -37 21q-32 27 -53 39q-39 22 -81 24q-79 3 -79 -64q0 -28 8 -28q12 0 14 17q2 25 8 33q13 18 51 18q46 0 76 -21l45 -40q24 -21 53 -21q17 0 51 31.5t34 48.5z" />
    <glyph glyph-name="uni1ED8" unicode="&#x1ed8;" horiz-adv-x="757" 
d="M207 -54q6 -5 1 -13q-20 -33 -55 -33q-25 0 -25 24q0 16 30 31q34 9 43 1q6 -2 6 -10zM755 584q0 -117 -113 -267q-95 -126 -210 -210q-147 -107 -275 -107q-157 0 -157 192q0 83 30 172.5t79 156.5q105 142 334 248q77 36 81 31q3 -14 -195 -132q137 48 246 48
q180 0 180 -132zM714 576q0 55 -36 82q-25 19 -52 24q-15 3 -65 3q-121 0 -247 -51q-140 -57 -193 -143q-91 -149 -91 -290q0 -71 27 -116q33 -55 100 -55q211 0 404 236q153 187 153 310zM709 851q28 -22 -28 -18q-56 18 -73 92q-3 37 -12 76l-196 -172q-9 -8 -20 -8
q-16 0 -16 16q0 9 246 200q25 0 24 -23q-10 -12 -3 -49q1 -20 5 -36q14 -55 57 -71z" />
    <glyph glyph-name="uni1ED9" unicode="&#x1ed9;" horiz-adv-x="507" 
d="M207 -54q6 -5 1 -13q-20 -33 -55 -33q-25 0 -25 24q0 16 30 31q34 9 43 1q6 -2 6 -10zM501 359q-9 -99 -103 -208q-131 -151 -290 -151q-107 0 -107 104q0 94 71 209q102 167 229 194q40 9 44 2q2 -3 -32 -17q-42 -17 -53 -23q-89 -45 -157 -150q-71 -107 -71 -204
q0 -78 77 -78q85 0 161 44q73 42 123 115q73 106 73 180q0 62 -65 62q-151 0 -233 -187l-11 -25q-3 -9 -5 -9q-1 1 0 10q6 51 43 113q75 125 205 125q110 0 101 -106zM541 582q28 -22 -28 -18q-56 18 -73 92q-3 37 -12 76l-196 -172q-9 -8 -20 -8q-16 0 -16 16q0 9 246 200
q25 0 24 -23q-10 -12 -3 -49q1 -20 5 -36q14 -55 57 -71z" />
    <glyph glyph-name="uni1EDA" unicode="&#x1eda;" horiz-adv-x="757" 
d="M866 1000q-2 -27 -82 -82q-59 -41 -107 -65q-28 -14 -49 -14q-25 0 -30 19q14 12 49 19q21 4 58 31q45 30 134 92q20 15 24 15t3 -15zM813 783q10 -13 15 -29q15 -54 -17 -100q-24 -33 -50 -42q-4 -2 -8 -3q-3 -1 -4 1t0 18q26 15 31 24q20 22 25 51q3 35 -24 57
q-12 21 5 36q15 1 27 -13zM755 584q0 -117 -113 -267q-95 -126 -210 -210q-147 -107 -275 -107q-157 0 -157 192q0 83 30 172.5t79 156.5q105 142 334 248q77 36 81 31q3 -14 -195 -132q137 48 246 48q180 0 180 -132zM714 576q0 55 -36 82q-25 19 -52 24q-15 3 -65 3
q-121 0 -247 -51q-140 -57 -193 -143q-91 -149 -91 -290q0 -71 27 -116q33 -55 100 -55q211 0 404 236q153 187 153 310z" />
    <glyph glyph-name="uni1EDB" unicode="&#x1edb;" horiz-adv-x="507" 
d="M651 742q-2 -27 -82 -82q-59 -41 -107 -65q-28 -14 -49 -14q-25 0 -30 19q14 12 49 19q21 4 58 31q45 30 134 92q20 15 24 15t3 -15zM575 548q9 -14 14 -30q11 -55 -24 -99q-26 -31 -53 -38l-8 -4q-3 0 -4 2q0 2 1 18q28 13 33 22q21 21 28 50q6 34 -20 58q-11 21 7 35
q15 0 26 -14zM501 359q-9 -99 -103 -208q-131 -151 -290 -151q-107 0 -107 104q0 94 71 209q102 167 229 194q40 9 44 2q2 -3 -32 -17q-42 -17 -53 -23q-89 -45 -157 -150q-71 -107 -71 -204q0 -78 77 -78q85 0 161 44q73 42 123 115q73 106 73 180q0 62 -65 62
q-151 0 -233 -187l-11 -25q-3 -9 -5 -9q-1 1 0 10q6 51 43 113q75 125 205 125q110 0 101 -106z" />
    <glyph glyph-name="uni1EDC" unicode="&#x1edc;" horiz-adv-x="757" 
d="M755 584q0 -117 -113 -267q-95 -126 -210 -210q-147 -107 -275 -107q-157 0 -157 192q0 83 30 172.5t79 156.5q105 142 334 248q77 36 81 31q3 -14 -195 -132q137 48 246 48q147 0 174 -88q26 15 31 24q20 22 25 51q3 35 -24 57q-12 21 5 36q15 1 27 -13q10 -13 15 -29
q15 -54 -17 -100q-24 -33 -50 -42q-4 -2 -8 -3q2 -12 2 -25zM714 576q0 55 -36 82q-25 19 -52 24q-15 3 -65 3q-121 0 -247 -51q-140 -57 -193 -143q-91 -149 -91 -290q0 -71 27 -116q33 -55 100 -55q211 0 404 236q153 187 153 310zM658 824q0 4 -20 18q-98 68 -135 94.5
t-48 44.5q-19 32 -35 40q-11 -8 -11 -22q0 -42 130 -134q69 -49 98 -49q21 0 21 8z" />
    <glyph glyph-name="uni1EDD" unicode="&#x1edd;" horiz-adv-x="507" 
d="M501 359q-9 -99 -103 -208q-131 -151 -290 -151q-107 0 -107 104q0 94 71 209q102 167 229 194q40 9 44 2q2 -3 -32 -17q-42 -17 -53 -23q-89 -45 -157 -150q-71 -107 -71 -204q0 -78 77 -78q85 0 161 44q73 42 123 115q73 106 73 180q0 62 -65 62q-151 0 -233 -187
l-11 -25q-3 -9 -5 -9q-1 1 0 10q6 51 43 113q75 125 205 125q90 0 100 -72q1 2 1 4q28 13 33 22q21 21 28 50q6 34 -20 58q-11 21 7 35q15 0 26 -14q9 -14 14 -30q11 -55 -24 -99q-26 -31 -53 -38l-8 -4h-3q1 -8 0 -18zM468 577q0 4 -20 18q-98 68 -135 94.5t-48 44.5
q-19 32 -35 40q-11 -8 -11 -22q0 -42 130 -134q69 -49 98 -49q21 0 21 8z" />
    <glyph glyph-name="uni1EDE" unicode="&#x1ede;" horiz-adv-x="757" 
d="M755 584q0 -117 -113 -267q-95 -126 -210 -210q-147 -107 -275 -107q-157 0 -157 192q0 83 30 172.5t79 156.5q105 142 334 248q77 36 81 31q3 -14 -195 -132q137 48 246 48q147 0 174 -88q26 15 31 24q20 22 25 51q3 35 -24 57q-12 21 5 36q15 1 27 -13q10 -13 15 -29
q15 -54 -17 -100q-24 -33 -50 -42q-4 -2 -8 -3q2 -12 2 -25zM714 576q0 55 -36 82q-25 19 -52 24q-15 3 -65 3q-121 0 -247 -51q-140 -57 -193 -143q-91 -149 -91 -290q0 -71 27 -116q33 -55 100 -55q211 0 404 236q153 187 153 310zM654 830q29 -19 -16 -19q-30 -1 -39 34
q3 32 62 61q67 29 80 73q12 31 -17 45q-13 3 -21 3q-13 0 -37 -9l-25 -14q-8 -3 -12 0q-3 2 0 6q9 29 34 37q42 13 59 9q51 -7 55 -49q3 -27 -10 -55q-11 -20 -34 -37q-29 -23 -76 -42l-24 -20q-6 -22 21 -23z" />
    <glyph glyph-name="uni1EDF" unicode="&#x1edf;" horiz-adv-x="507" 
d="M501 359q-9 -99 -103 -208q-131 -151 -290 -151q-107 0 -107 104q0 94 71 209q102 167 229 194q40 9 44 2q2 -3 -32 -17q-42 -17 -53 -23q-89 -45 -157 -150q-71 -107 -71 -204q0 -78 77 -78q85 0 161 44q73 42 123 115q73 106 73 180q0 62 -65 62q-151 0 -233 -187
l-11 -25q-3 -9 -5 -9q-1 1 0 10q6 51 43 113q75 125 205 125q90 0 100 -72q1 2 1 4q28 13 33 22q21 21 28 50q6 34 -20 58q-11 21 7 35q15 0 26 -14q9 -14 14 -30q11 -55 -24 -99q-26 -31 -53 -38l-8 -4h-3q1 -8 0 -18zM466 591q29 -19 -16 -19q-30 -1 -39 34q3 32 62 61
q67 29 80 73q12 31 -17 45q-13 3 -21 3q-13 0 -37 -9l-25 -14q-8 -3 -12 0q-3 2 0 6q9 29 34 37q42 13 59 9q51 -7 55 -49q3 -27 -10 -55q-11 -20 -34 -37q-29 -23 -76 -42l-24 -20q-6 -22 21 -23z" />
    <glyph glyph-name="uni1EE0" unicode="&#x1ee0;" horiz-adv-x="757" 
d="M755 584q0 -117 -113 -267q-95 -126 -210 -210q-147 -107 -275 -107q-157 0 -157 192q0 83 30 172.5t79 156.5q105 142 334 248q77 36 81 31q3 -14 -195 -132q137 48 246 48q147 0 174 -88q26 15 31 24q20 22 25 51q3 35 -24 57q-12 21 5 36q15 1 27 -13q10 -13 15 -29
q15 -54 -17 -100q-24 -33 -50 -42q-4 -2 -8 -3q2 -12 2 -25zM714 576q0 55 -36 82q-25 19 -52 24q-15 3 -65 3q-121 0 -247 -51q-140 -57 -193 -143q-91 -149 -91 -290q0 -71 27 -116q33 -55 100 -55q211 0 404 236q153 187 153 310zM788 926q0 3 -3 4q1 0 -34 -31t-53 -31
q-12 0 -37 21q-32 27 -53 39q-39 22 -81 24q-79 3 -79 -64q0 -28 8 -28q12 0 14 17q2 25 8 33q13 18 51 18q46 0 76 -21l45 -40q24 -21 53 -21q17 0 51 31.5t34 48.5z" />
    <glyph glyph-name="uni1EE1" unicode="&#x1ee1;" horiz-adv-x="507" 
d="M501 359q-9 -99 -103 -208q-131 -151 -290 -151q-107 0 -107 104q0 94 71 209q102 167 229 194q40 9 44 2q2 -3 -32 -17q-42 -17 -53 -23q-89 -45 -157 -150q-71 -107 -71 -204q0 -78 77 -78q85 0 161 44q73 42 123 115q73 106 73 180q0 62 -65 62q-151 0 -233 -187
l-11 -25q-3 -9 -5 -9q-1 1 0 10q6 51 43 113q75 125 205 125q90 0 100 -72q1 2 1 4q28 13 33 22q21 21 28 50q6 34 -20 58q-11 21 7 35q15 0 26 -14q9 -14 14 -30q11 -55 -24 -99q-26 -31 -53 -38l-8 -4h-3q1 -8 0 -18zM648 680q0 3 -3 4q1 0 -34 -31t-53 -31q-12 0 -37 21
q-32 27 -53 39q-39 22 -81 24q-79 3 -79 -64q0 -28 8 -28q12 0 14 17q2 25 8 33q13 18 51 18q46 0 76 -21l45 -40q24 -21 53 -21q17 0 51 31.5t34 48.5z" />
    <glyph glyph-name="uni1EE2" unicode="&#x1ee2;" horiz-adv-x="757" 
d="M755 584q0 -117 -113 -267q-95 -126 -210 -210q-147 -107 -275 -107q-157 0 -157 192q0 83 30 172.5t79 156.5q105 142 334 248q77 36 81 31q3 -14 -195 -132q137 48 246 48q147 0 174 -88q26 15 31 24q20 22 25 51q3 35 -24 57q-12 21 5 36q15 1 27 -13q10 -13 15 -29
q15 -54 -17 -100q-24 -33 -50 -42q-4 -2 -8 -3q2 -12 2 -25zM714 576q0 55 -36 82q-25 19 -52 24q-15 3 -65 3q-121 0 -247 -51q-140 -57 -193 -143q-91 -149 -91 -290q0 -71 27 -116q33 -55 100 -55q211 0 404 236q153 187 153 310zM207 -54q6 -5 1 -13q-20 -33 -55 -33
q-25 0 -25 24q0 16 30 31q34 9 43 1q6 -2 6 -10z" />
    <glyph glyph-name="uni1EE3" unicode="&#x1ee3;" horiz-adv-x="507" 
d="M501 359q-9 -99 -103 -208q-131 -151 -290 -151q-107 0 -107 104q0 94 71 209q102 167 229 194q40 9 44 2q2 -3 -32 -17q-42 -17 -53 -23q-89 -45 -157 -150q-71 -107 -71 -204q0 -78 77 -78q85 0 161 44q73 42 123 115q73 106 73 180q0 62 -65 62q-151 0 -233 -187
l-11 -25q-3 -9 -5 -9q-1 1 0 10q6 51 43 113q75 125 205 125q90 0 100 -72q1 2 1 4q28 13 33 22q21 21 28 50q6 34 -20 58q-11 21 7 35q15 0 26 -14q9 -14 14 -30q11 -55 -24 -99q-26 -31 -53 -38l-8 -4h-3q1 -8 0 -18zM207 -54q6 -5 1 -13q-20 -33 -55 -33q-25 0 -25 24
q0 16 30 31q34 9 43 1q6 -2 6 -10z" />
    <glyph glyph-name="uni1EE4" unicode="&#x1ee4;" horiz-adv-x="1265" 
d="M590 -54q6 -5 1 -13q-20 -33 -55 -33q-25 0 -25 24q0 16 30 31q34 9 43 1q6 -2 6 -10zM1257 235q0 -14 -49 -55q-36 -30 -71 -54q-139 -94 -205 -94q-71 1 -71 86q0 66 47 185.5t93 165.5l1 2l-1 1h-2q-11 -15 -64 -72q-140 -151 -272 -252q-191 -146 -317 -146
q-98 0 -98 72q0 71 94 182q250 297 318 442q14 30 14 45q0 12 -9 15q-31 11 -65 11q-114 0 -276 -123q-76 -57 -239 -213q-69 -66 -82 -64q2 3 12 15l5 6q95 113 238 230q219 178 356 178q96 0 96 -58q0 -66 -128 -229q-40 -50 -144 -179q-146 -182 -146 -247q0 -42 60 -42
q112 0 309 145q146 108 251 222q30 32 80 100l87 117q91 123 124 123q16 0 16 -16q0 -25 -50 -87q-19 -23 -69 -83q-36 -43 -63 -88q-149 -245 -149 -356q0 -59 49 -59q50 0 142 65q37 27 135 97q26 18 37 18q6 0 6 -6z" />
    <glyph glyph-name="uni1EE5" unicode="&#x1ee5;" horiz-adv-x="804" 
d="M355 -54q6 -5 1 -13q-20 -33 -55 -33q-25 0 -25 24q0 16 30 31q34 9 43 1q6 -2 6 -10zM793 260q-11 -15 -29 -39q-42 -54 -124 -132q-98 -93 -132 -93q-56 0 -56 50q0 48 44 132q24 42 48 85q30 54 38 87q5 21 -9 21q-26 0 -83 -63q-15 -17 -114 -137
q-162 -197 -222 -197q-39 0 -39 44q0 61 67 201q29 57 57 114q37 77 44 115q5 27 -13 27q-30 0 -152 -120q-29 -28 -111 -108q5 7 20 27q55 72 130 139q98 88 152 88q9 0 8 -16q-3 -35 -90 -221q-82 -175 -82 -220q0 -28 23 -27q39 1 117 85q35 38 108 128q149 185 204 182
q19 -1 19 -23q0 -35 -65 -165q-68 -136 -68 -170q0 -25 23 -25q36 0 164 119l85 80q27 26 38 32zM793 260l1 2v-1z" />
    <glyph glyph-name="uni1EE6" unicode="&#x1ee6;" horiz-adv-x="1265" 
d="M969 795q29 -19 -16 -19q-30 -1 -39 34q3 32 62 61q67 29 80 73q12 31 -17 45q-13 3 -21 3q-13 0 -37 -9l-25 -14q-8 -3 -12 0q-3 2 0 6q9 29 34 37q42 13 59 9q51 -7 55 -49q3 -27 -10 -55q-11 -20 -34 -37q-29 -23 -76 -42l-24 -20q-6 -22 21 -23zM1257 235
q0 -14 -49 -55q-36 -30 -71 -54q-139 -94 -205 -94q-71 1 -71 86q0 66 47 185.5t93 165.5l1 2l-1 1h-2q-11 -15 -64 -72q-140 -151 -272 -252q-191 -146 -317 -146q-98 0 -98 72q0 71 94 182q250 297 318 442q14 30 14 45q0 12 -9 15q-31 11 -65 11q-114 0 -276 -123
q-76 -57 -239 -213q-69 -66 -82 -64q2 3 12 15l5 6q95 113 238 230q219 178 356 178q96 0 96 -58q0 -66 -128 -229q-40 -50 -144 -179q-146 -182 -146 -247q0 -42 60 -42q112 0 309 145q146 108 251 222q30 32 80 100l87 117q91 123 124 123q16 0 16 -16q0 -25 -50 -87
q-19 -23 -69 -83q-36 -43 -63 -88q-149 -245 -149 -356q0 -59 49 -59q50 0 142 65q37 27 135 97q26 18 37 18q6 0 6 -6z" />
    <glyph glyph-name="uni1EE7" unicode="&#x1ee7;" horiz-adv-x="804" 
d="M516 556q29 -19 -16 -19q-30 -1 -39 34q3 32 62 61q67 29 80 73q12 31 -17 45q-13 3 -21 3q-13 0 -37 -9l-25 -14q-8 -3 -12 0q-3 2 0 6q9 29 34 37q42 13 59 9q51 -7 55 -49q3 -27 -10 -55q-11 -20 -34 -37q-29 -23 -76 -42l-24 -20q-6 -22 21 -23zM793 260
q-11 -15 -29 -39q-42 -54 -124 -132q-98 -93 -132 -93q-56 0 -56 50q0 48 44 132q24 42 48 85q30 54 38 87q5 21 -9 21q-26 0 -83 -63q-15 -17 -114 -137q-162 -197 -222 -197q-39 0 -39 44q0 61 67 201q29 57 57 114q37 77 44 115q5 27 -13 27q-30 0 -152 -120
q-29 -28 -111 -108q5 7 20 27q55 72 130 139q98 88 152 88q9 0 8 -16q-3 -35 -90 -221q-82 -175 -82 -220q0 -28 23 -27q39 1 117 85q35 38 108 128q149 185 204 182q19 -1 19 -23q0 -35 -65 -165q-68 -136 -68 -170q0 -25 23 -25q36 0 164 119l85 80q27 26 38 32zM793 260
l1 2v-1z" />
    <glyph glyph-name="uni1EE8" unicode="&#x1ee8;" horiz-adv-x="1265" 
d="M1204 1021q-2 -27 -82 -82q-59 -41 -107 -65q-28 -14 -49 -14q-25 0 -30 19q14 12 49 19q21 4 58 31q45 30 134 92q20 15 24 15t3 -15zM1293 826q7 -15 9 -31q3 -56 -38 -95q-30 -27 -66 -30l-8 -2q-3 0 -4 2q0 2 12 18q29 9 35 17q24 17 35 45q11 33 -11 60q-8 23 12 34
q15 -2 24 -18zM1257 235q0 -14 -49 -55q-36 -30 -71 -54q-139 -94 -205 -94q-71 1 -71 86q0 66 47 185.5t93 165.5l1 2l-1 1h-2q-11 -15 -64 -72q-140 -151 -272 -252q-191 -146 -317 -146q-98 0 -98 72q0 71 94 182q250 297 318 442q14 30 14 45q0 12 -9 15q-31 11 -65 11
q-114 0 -276 -123q-76 -57 -239 -213q-69 -66 -82 -64q2 3 12 15l5 6q95 113 238 230q219 178 356 178q96 0 96 -58q0 -66 -128 -229q-40 -50 -144 -179q-146 -182 -146 -247q0 -42 60 -42q112 0 309 145q146 108 251 222q30 32 80 100l87 117q91 123 124 123q16 0 16 -16
q0 -25 -50 -87q-19 -23 -69 -83q-36 -43 -63 -88q-149 -245 -149 -356q0 -59 49 -59q50 0 142 65q37 27 135 97q26 18 37 18q6 0 6 -6z" />
    <glyph glyph-name="uni1EE9" unicode="&#x1ee9;" horiz-adv-x="804" 
d="M722 723q-2 -27 -82 -82q-59 -41 -107 -65q-28 -14 -49 -14q-25 0 -30 19q14 12 49 19q21 4 58 31q45 30 134 92q20 15 24 15t3 -15zM700 486q7 -15 9 -31q3 -56 -38 -95q-30 -27 -58 -30l-8 -2q-3 0 -4 2q0 2 4 18q29 9 35 17q24 17 35 45q11 33 -11 60q-8 23 12 34
q15 -2 24 -18zM793 260q-11 -15 -29 -39q-42 -54 -124 -132q-98 -93 -132 -93q-56 0 -56 50q0 48 44 132q24 42 48 85q30 54 38 87q5 21 -9 21q-26 0 -83 -63q-15 -17 -114 -137q-162 -197 -222 -197q-39 0 -39 44q0 61 67 201q29 57 57 114q37 77 44 115q5 27 -13 27
q-30 0 -152 -120q-29 -28 -111 -108q5 7 20 27q55 72 130 139q98 88 152 88q9 0 8 -16q-3 -35 -90 -221q-82 -175 -82 -220q0 -28 23 -27q39 1 117 85q35 38 108 128q149 185 204 182q19 -1 19 -23q0 -35 -65 -165q-68 -136 -68 -170q0 -25 23 -25q36 0 164 119l85 80
q27 26 38 32zM793 260l1 2v-1z" />
    <glyph glyph-name="uni1EEA" unicode="&#x1eea;" horiz-adv-x="1265" 
d="M1257 235q0 -14 -49 -55q-36 -30 -71 -54q-139 -94 -205 -94q-71 1 -71 86q0 66 47 185.5t93 165.5l1 2l-1 1h-2q-11 -15 -64 -72q-140 -151 -272 -252q-191 -146 -317 -146q-98 0 -98 72q0 71 94 182q250 297 318 442q14 30 14 45q0 12 -9 15q-31 11 -65 11
q-114 0 -276 -123q-76 -57 -239 -213q-69 -66 -82 -64q2 3 12 15l5 6q95 113 238 230q219 178 356 178q96 0 96 -58q0 -66 -128 -229q-40 -50 -144 -179q-146 -182 -146 -247q0 -42 60 -42q112 0 309 145q146 108 251 222q30 32 80 100l87 117q91 123 124 123q16 0 16 -16
t-19 -46q27 9 33 17q24 17 35 45q11 33 -11 60q-8 23 12 34q15 -2 24 -18q7 -15 9 -31q3 -56 -38 -95q-30 -27 -66 -30l-8 -2q-3 0 -4 1q-8 -10 -17 -22q-19 -23 -69 -83q-36 -43 -63 -88q-149 -245 -149 -356q0 -59 49 -59q50 0 142 65q37 27 135 97q26 18 37 18q6 0 6 -6z
M1015 812q0 4 -20 18q-98 68 -135 94.5t-48 44.5q-19 32 -35 40q-11 -8 -11 -22q0 -42 130 -134q69 -49 98 -49q21 0 21 8z" />
    <glyph glyph-name="uni1EEB" unicode="&#x1eeb;" horiz-adv-x="804" 
d="M793 260q-11 -15 -29 -39q-42 -54 -124 -132q-98 -93 -132 -93q-56 0 -56 50q0 48 44 132q24 42 48 85q30 54 38 87q5 21 -9 21q-26 0 -83 -63q-15 -17 -114 -137q-162 -197 -222 -197q-39 0 -39 44q0 61 67 201q29 57 57 114q37 77 44 115q5 27 -13 27q-30 0 -152 -120
q-29 -28 -111 -108q5 7 20 27q55 72 130 139q98 88 152 88q9 0 8 -16q-3 -35 -90 -221q-82 -175 -82 -220q0 -28 23 -27q39 1 117 85q35 38 108 128q149 185 204 182q19 -1 19 -23q0 -14 -10 -41q28 9 34 17q24 17 35 45q11 33 -11 60q-8 23 12 34q15 -2 24 -18q7 -15 9 -31
q3 -56 -38 -95q-30 -27 -58 -30q-8 -1 -12 -2h-2q-16 -40 -48 -104q-68 -136 -68 -170q0 -25 23 -25q36 0 164 119l85 80q27 26 38 32zM793 260l1 2v-1zM556 564q0 4 -20 18q-98 68 -135 94.5t-48 44.5q-19 32 -35 40q-11 -8 -11 -22q0 -42 130 -134q69 -49 98 -49
q21 0 21 8z" />
    <glyph glyph-name="uni1EEC" unicode="&#x1eec;" horiz-adv-x="1265" 
d="M1257 235q0 -14 -49 -55q-36 -30 -71 -54q-139 -94 -205 -94q-71 1 -71 86q0 66 47 185.5t93 165.5l1 2l-1 1h-2q-11 -15 -64 -72q-140 -151 -272 -252q-191 -146 -317 -146q-98 0 -98 72q0 71 94 182q250 297 318 442q14 30 14 45q0 12 -9 15q-31 11 -65 11
q-114 0 -276 -123q-76 -57 -239 -213q-69 -66 -82 -64q2 3 12 15l5 6q95 113 238 230q219 178 356 178q96 0 96 -58q0 -66 -128 -229q-40 -50 -144 -179q-146 -182 -146 -247q0 -42 60 -42q112 0 309 145q146 108 251 222q30 32 80 100l87 117q91 123 124 123q16 0 16 -16
t-19 -46q27 9 33 17q24 17 35 45q11 33 -11 60q-8 23 12 34q15 -2 24 -18q7 -15 9 -31q3 -56 -38 -95q-30 -27 -66 -30l-8 -2q-3 0 -4 1q-8 -10 -17 -22q-19 -23 -69 -83q-36 -43 -63 -88q-149 -245 -149 -356q0 -59 49 -59q50 0 142 65q37 27 135 97q26 18 37 18q6 0 6 -6z
M967 839q29 -19 -16 -19q-30 -1 -39 34q3 32 62 61q67 29 80 73q12 31 -17 45q-13 3 -21 3q-13 0 -37 -9l-25 -14q-8 -3 -12 0q-3 2 0 6q9 29 34 37q42 13 59 9q51 -7 55 -49q3 -27 -10 -55q-11 -20 -34 -37q-29 -23 -76 -42l-24 -20q-6 -22 21 -23z" />
    <glyph glyph-name="uni1EED" unicode="&#x1eed;" horiz-adv-x="804" 
d="M793 260q-11 -15 -29 -39q-42 -54 -124 -132q-98 -93 -132 -93q-56 0 -56 50q0 48 44 132q24 42 48 85q30 54 38 87q5 21 -9 21q-26 0 -83 -63q-15 -17 -114 -137q-162 -197 -222 -197q-39 0 -39 44q0 61 67 201q29 57 57 114q37 77 44 115q5 27 -13 27q-30 0 -152 -120
q-29 -28 -111 -108q5 7 20 27q55 72 130 139q98 88 152 88q9 0 8 -16q-3 -35 -90 -221q-82 -175 -82 -220q0 -28 23 -27q39 1 117 85q35 38 108 128q149 185 204 182q19 -1 19 -23q0 -14 -10 -41q28 9 34 17q24 17 35 45q11 33 -11 60q-8 23 12 34q15 -2 24 -18q7 -15 9 -31
q3 -56 -38 -95q-30 -27 -58 -30q-4 -1 -12 -2h-2q-16 -40 -48 -104q-68 -136 -68 -170q0 -25 23 -25q36 0 164 119l85 80q27 26 38 32zM492 582q29 -19 -16 -19q-30 -1 -39 34q3 32 62 61q67 29 80 73q12 31 -17 45q-13 3 -21 3q-13 0 -37 -9l-25 -14q-8 -3 -12 0q-3 2 0 6
q9 29 34 37q42 13 59 9q51 -7 55 -49q3 -27 -10 -55q-11 -20 -34 -37q-29 -23 -76 -42l-24 -20q-6 -22 21 -23zM793 260l1 2v-1z" />
    <glyph glyph-name="uni1EEE" unicode="&#x1eee;" horiz-adv-x="1265" 
d="M1257 235q0 -14 -49 -55q-36 -30 -71 -54q-139 -94 -205 -94q-71 1 -71 86q0 66 47 185.5t93 165.5l1 2l-1 1h-2q-11 -15 -64 -72q-140 -151 -272 -252q-191 -146 -317 -146q-98 0 -98 72q0 71 94 182q250 297 318 442q14 30 14 45q0 12 -9 15q-31 11 -65 11
q-114 0 -276 -123q-76 -57 -239 -213q-69 -66 -82 -64q2 3 12 15l5 6q95 113 238 230q219 178 356 178q96 0 96 -58q0 -66 -128 -229q-40 -50 -144 -179q-146 -182 -146 -247q0 -42 60 -42q112 0 309 145q146 108 251 222q30 32 80 100l87 117q91 123 124 123q16 0 16 -16
t-19 -46q27 9 33 17q24 17 35 45q11 33 -11 60q-8 23 12 34q15 -2 24 -18q7 -15 9 -31q3 -56 -38 -95q-30 -27 -66 -30l-8 -2q-3 0 -4 1q-8 -10 -17 -22q-19 -23 -69 -83q-36 -43 -63 -88q-149 -245 -149 -356q0 -59 49 -59q50 0 142 65q37 27 135 97q26 18 37 18q6 0 6 -6z
M1138 917q0 3 -3 4q1 0 -34 -31t-53 -31q-12 0 -37 21q-32 27 -53 39q-39 22 -81 24q-79 3 -79 -64q0 -28 8 -28q12 0 14 17q2 25 8 33q13 18 51 18q46 0 76 -21l45 -40q24 -21 53 -21q17 0 51 31.5t34 48.5z" />
    <glyph glyph-name="uni1EEF" unicode="&#x1eef;" horiz-adv-x="804" 
d="M793 260q-11 -15 -29 -39q-42 -54 -124 -132q-98 -93 -132 -93q-56 0 -56 50q0 48 44 132q24 42 48 85q30 54 38 87q5 21 -9 21q-26 0 -83 -63q-15 -17 -114 -137q-162 -197 -222 -197q-39 0 -39 44q0 61 67 201q29 57 57 114q37 77 44 115q5 27 -13 27q-30 0 -152 -120
q-29 -28 -111 -108q5 7 20 27q55 72 130 139q98 88 152 88q9 0 8 -16q-3 -35 -90 -221q-82 -175 -82 -220q0 -28 23 -27q39 1 117 85q35 38 108 128q149 185 204 182q19 -1 19 -23q0 -14 -10 -41q28 9 34 17q24 17 35 45q11 33 -11 60q-8 23 12 34q15 -2 24 -18q7 -15 9 -31
q3 -56 -38 -95q-30 -27 -58 -30q-8 -1 -12 -2h-2q-16 -40 -48 -104q-68 -136 -68 -170q0 -25 23 -25q36 0 164 119l85 80q27 26 38 32zM793 260l1 2v-1zM704 620q0 3 -3 4q1 0 -34 -31t-53 -31q-12 0 -37 21q-32 27 -53 39q-39 22 -81 24q-79 3 -79 -64q0 -28 8 -28
q12 0 14 17q2 25 8 33q13 18 51 18q46 0 76 -21l45 -40q24 -21 53 -21q17 0 51 31.5t34 48.5z" />
    </font>
</defs>
</svg>
