<?xml version="1.0" standalone="no"?>
<!DOCTYPE svg PUBLIC "-//W3C//DTD SVG 1.1//EN" "http://www.w3.org/Graphics/SVG/1.1/DTD/svg11.dtd" >
<svg xmlns="http://www.w3.org/2000/svg" xmlns:xlink="http://www.w3.org/1999/xlink" version="1.1">
<metadata>
Created by FontForge 20170731 at Tue Dec 24 05:09:27 2013
 By Aleksey,,,
Copyright (c) 2004 by Viet hoa by UhThilahuvo - chipquay@gmail.com. All rights reserved.
</metadata>
<defs>
<font id="HLTSudestada" horiz-adv-x="343" >
  <font-face 
    font-family="HLT  Sudestada"
    font-weight="400"
    font-stretch="normal"
    units-per-em="1000"
    panose-1="2 0 5 6 3 0 0 2 0 2"
    ascent="800"
    descent="-200"
    x-height="135"
    cap-height="543"
    bbox="-1148 -1007 1137 898"
    underline-thickness="50"
    underline-position="-150"
    unicode-range="U+0020-FB02"
  />
<missing-glyph horiz-adv-x="250" 
 />
    <glyph glyph-name=".notdef" horiz-adv-x="250" 
 />
    <glyph glyph-name=".null" horiz-adv-x="0" 
 />
    <glyph glyph-name="nonmarkingreturn" horiz-adv-x="250" 
 />
    <glyph glyph-name="space" unicode=" " horiz-adv-x="250" 
 />
    <glyph glyph-name="space" unicode="&#xa0;" horiz-adv-x="250" 
 />
    <glyph glyph-name="exclam" unicode="!" horiz-adv-x="291" 
d="M398 460q0 -8 -4.5 -13t-10.5 -9t-11.5 -8.5t-7.5 -10.5q-33 -58 -72 -114t-72 -116q-23 -36 -44.5 -73t-37.5 -74q-1 -1 -3 -1q-3 0 -6 2.5t-5 4.5q0 12 7 19.5t7 18.5q51 85 106 169.5t109 169.5q-1 1 -1 4q0 6 6.5 11.5t6.5 10.5q0 4 -10 7q5 3 12.5 9t15.5 6
q6 0 13 -5q2 -6 2 -8zM108 -27q0 -3 -1 -4q-2 -4 -6.5 -9t-9.5 -5l-3 2q-5 3 -9.5 7t-4.5 10q0 4 3 9q5 5 11 5q7 0 13.5 -4.5t6.5 -10.5z" />
    <glyph glyph-name="quotedbl" unicode="&#x22;" horiz-adv-x="287" 
d="M190 266v-7q-3 -3 -7 -3l-10 1q-5 20 -5 37q0 18 4 35.5t11 32.5q1 1 4 1q4 0 6 -5t3 -10q1 -6 1 -14zM123 266v-7q-3 -3 -7 -3l-10 1q-5 20 -5 37q0 18 4 35.5t11 32.5q1 1 4 1q4 0 6 -5t3 -10q1 -6 1 -14z" />
    <glyph glyph-name="numbersign" unicode="#" horiz-adv-x="336" 
d="M315 67q-12 3 -27 4t-30 1h-46q-2 -3 -4.5 -5.5t-2.5 -5.5v-3q-11 -10 -18.5 -21t-13.5 -23t-12 -23.5t-14 -22.5q2 -4 2 -8q0 -11 -10 -15q-2 -1 -6 -1q-7 0 -10.5 5t-6.5 13q6 15 15.5 28t19 25.5t19 25.5t15.5 29q-8 2 -17.5 4t-18.5 3q-8 -14 -15 -28t-17 -27
q2 -4 2 -8q0 -11 -10 -15q-2 -1 -6 -1q-7 0 -10.5 5t-6.5 13q8 18 19 32.5t23 29.5h-15.5t-14.5 -2q-3 2 -2.5 5.5t-0.5 6.5q10 5 21.5 6t23.5 1l8 14t7 15q-26 9 -56 9q-16 0 -31 -3q-3 2 -2.5 5.5t-0.5 6.5q17 7 38 7h8h37h10t10 1q14 23 30 46t27 48q2 5 5.5 7.5t6.5 2.5
q6 0 6 -8v-3q-10 -24 -25.5 -46.5t-26.5 -45.5q10 -5 27 -5h13q13 21 24 45q4 9 12 9q6 0 6 -8v-3q-5 -11 -10.5 -21t-11.5 -21q10 0 21 -3q3 -2 7 -3.5t6 -5.5v-14q-11 3 -22.5 4t-25.5 1q-9 -15 -16 -29q10 -5 19 -5h8t32 1q11 0 22 -3q3 -2 7 -3t6 -6v-14v0zM182 126
q-2 -3 -4.5 -5.5t-2.5 -5.5q0 -2 1 -3q-5 -4 -8.5 -8t-7.5 -9h19.5t18.5 1l19 30h-35z" />
    <glyph glyph-name="dollar" unicode="$" horiz-adv-x="402" 
d="M430 488q0 -9 -6 -17t-9 -17q-16 -29 -36 -60t-41 -60q14 -9 29 -23.5t21 -32.5v-4q0 -9 -3 -16t-8 -15q-8 -7 -20.5 -8t-23.5 -1q-5 6 -5 10t13 4t15 4q8 0 12 7t4 14q0 12 -10.5 20.5t-19.5 13.5q-3 1 -5.5 2.5t-9.5 1.5q-3 -8 -10 -8q-5 0 -11 4q-2 5 -6 7.5t-9 4.5
q-17 -5 -32 -6.5t-26 -17.5q1 -17 10 -29t20.5 -22.5t24.5 -21t22 -23.5q11 -12 23.5 -23.5t20.5 -25.5q3 -12 3 -22q0 -19 -8 -35.5t-20.5 -31t-27.5 -26.5t-29 -23l-9 -7q-12 -8 -24 -10.5t-26 -2.5h-9h-35l-18 -1q-14 -17 -25 -38t-22 -41l-73 -134q0 -5 -4.5 -17
t-4.5 -18q-3 -11 -14 -11q-9 0 -14 5v5q0 16 7.5 30t18.5 24q25 48 52.5 95t47.5 97q-14 10 -32.5 19t-36 20.5t-29.5 27t-12 36.5q0 9 3 20q8 12 15 24.5t20 23.5q12 2 24 3.5t24 1.5q15 0 29.5 -3t28.5 -11q14 -13 24.5 -26.5t10.5 -35.5q-5 -1 -9 -5t-9 -4q-3 0 -6 3
q-2 7 -3.5 15.5t-4.5 16.5t-8 15t-15 11q-13 7 -26 7q-14 0 -29 -4t-29 -5q-8 -11 -16 -23t-8 -26q0 -9 3 -16q14 -20 40 -39t57 -23q12 -2 24 -2h24q37 0 70 10t59 45q15 16 24 34t9 39v6q-26 25 -49 49t-50 45q-10 10 -20.5 23t-10.5 30q0 10 6 21q14 15 34.5 22t45.5 5
l20 -1q32 36 56.5 77t51.5 80h9q1 -2 1 -6z" />
    <glyph glyph-name="percent" unicode="%" horiz-adv-x="367" 
d="M164 219q-6 -5 -9.5 -14.5t-7 -18.5t-8 -16t-13.5 -7q-7 0 -14 4q-4 8 -6.5 17t-2.5 17q0 19 14 30l8 1q19 0 39 -13zM339 229q-5 -10 -16 -16.5t-19 -13.5q-24 -24 -50 -47.5l-52 -47t-50 -48t-43 -50.5q-6 0 -11.5 -4t-10.5 -8.5t-10 -8t-10 -3.5q-7 0 -12 8v7
q28 22 55.5 45.5t50.5 51.5q39 31 77.5 68t83.5 73l11 1q6 0 6 -7zM297 21q0 -19 -14 -30h-8q-10 0 -17.5 2t-12.5 4q-6 3 -10 6q6 5 9.5 14.5t7.5 18.5t8.5 16t13.5 7q6 0 13 -4q10 -18 10 -34zM148 210q-12 7 -26 7q-5 -3 -6.5 -7.5t-1.5 -9.5q0 -8 5 -18q3 -2 8 -2
q9 0 11.5 12t9.5 18zM286 22q0 10 -5 18q-3 2 -8 2q-10 0 -12.5 -12t-8.5 -18q12 -7 23 -7h3q8 7 8 17z" />
    <glyph glyph-name="ampersand" unicode="&#x26;" horiz-adv-x="718" 
d="M842 -77q0 -5 -3 -8q-10 -5 -20 -6t-21 -3q-72 1 -136 28t-119 69l-5 1q-11 0 -19 -10.5t-19 -13.5q-16 -5 -30.5 -13.5t-28.5 -17.5t-28.5 -16.5t-30.5 -11.5q-44 -22 -96 -34.5t-104 -12.5q-46 0 -86 12q-38 24 -61 58.5t-20 79.5l1 14q10 46 37.5 83t64.5 64.5
t79.5 47.5t82.5 33q10 8 24.5 11t28 6.5t23.5 9.5t10 21q0 7 -1 10q0 23 10.5 44.5t33.5 31.5q4 2 7.5 3t8.5 1q18 0 31 -10q9 -7 15.5 -16.5t6.5 -21.5q0 -7 -3 -14q-6 -15 -20 -26.5t-28 -21.5t-25 -20.5t-11 -24.5q0 -16 15 -35q2 -19 9.5 -35.5t17.5 -31t22 -28
t24 -26.5q10 -20 27.5 -35.5t39.5 -23.5q21 16 43.5 33.5t43.5 36.5t37.5 41.5t24.5 49.5q16 25 22.5 54.5t6.5 60.5q0 55 -17 103q-11 15 -20.5 30.5t-20.5 30t-24 27.5t-29 22q-29 40 -75.5 56t-95.5 16q-10 0 -19.5 -0.5t-19.5 -1.5l-19 1q-23 2 -44 -3t-40 -15
q-8 3 -8 8q0 2 2.5 8.5t2.5 9.5q14 7 31 5t32 3q37 3 75 3q29 0 57 -3.5t53.5 -12.5t48 -25t40.5 -42q50 -42 77 -96.5t27 -114.5q0 -16 -1.5 -32t-6.5 -33q-6 -36 -20 -68t-34 -63q-25 -29 -55.5 -52t-56.5 -48q1 -11 8 -18t15.5 -12t18 -9.5t16.5 -10.5q33 -20 72 -32
t79 -12q16 0 31.5 2t30.5 7q7 -7 7 -15zM458 366q-5 14 -19 14q-9 0 -18.5 -4.5t-15.5 -9.5q-14 -19 -14 -43v-8.5t2 -8.5h10q7 4 16.5 9t18.5 11t15 14t6 19zM517 23q-20 17 -37.5 34.5t-37.5 39.5q-14 27 -33 54t-27 59q-5 6 -4 15t-8 12l4 8l-7 21q-26 -5 -51.5 -11
t-46.5 -22q-18 -2 -33 -10t-32 -9l-18 -12q-24 -16 -47 -32.5t-42.5 -36t-34.5 -42.5t-22 -53q3 -14 4 -29.5t3 -30t8 -27.5t20 -22q30 -17 60 -24t61 -7q34 0 68.5 8t68 20t66 27.5t62.5 30.5l26 13q9 2 18.5 9.5t11.5 16.5z" />
    <glyph glyph-name="quotesingle" unicode="'" horiz-adv-x="287" 
d="M150 266v-7q-3 -3 -7 -3l-10 1q-5 20 -5 37q0 18 4 35.5t11 32.5q1 1 4 1q4 0 6 -5t3 -10q1 -6 1 -14z" />
    <glyph glyph-name="parenleft" unicode="(" horiz-adv-x="280" 
d="M390 418q-2 -9 -8 -15t-13.5 -10t-16 -8t-14.5 -9q-42 -36 -80 -74.5t-69.5 -80t-55 -87.5t-35.5 -97q0 -8 -2.5 -15t-5 -14.5t-3 -14.5t5.5 -15q-4 -5 -4 -12q0 -9 4.5 -17.5t4.5 -16.5q0 -9 -9 -15q-4 1 -7.5 0.5t-7.5 -0.5q-8 -2 -14 0q0 11 5 21t5 21q0 10 -7 17
q5 11 7.5 23.5t4.5 25.5t6 25t12 22q3 30 15 56.5t28.5 51t35.5 48t34 47.5q22 19 41.5 40t40 41t43.5 37.5t50 29.5q6 -2 9 -5z" />
    <glyph glyph-name="parenright" unicode=")" horiz-adv-x="224" 
d="M241 340q0 -24 -5 -48t-12 -47.5t-14.5 -46t-11.5 -44.5q-20 -36 -42 -72t-45 -71q-14 -8 -21.5 -21.5t-17.5 -25.5q-10 0 -11 -7t-6 -11q-12 -12 -21.5 -24.5t-19 -24.5t-21 -23t-26.5 -18q-2 5 -4 8.5t-2 8.5q0 1 0.5 2t0.5 3q7 2 10.5 7t6 11t6 10.5t9.5 6.5
q27 32 56 63t54.5 63t46 67t30.5 76q14 33 26.5 73.5t12.5 82.5q0 26 -6.5 50.5t-22.5 46.5q4 6 9 6q8 0 13 -13t13 -19q8 -17 11.5 -34.5t3.5 -34.5z" />
    <glyph glyph-name="asterisk" unicode="*" horiz-adv-x="455" 
d="M452 200q0 -4 -1 -6q-4 -6 -15 -7t-25 -3l-22 -2q-9 0 -17 -1t-16 -1q-14 0 -26.5 1t-24.5 2q-8 1 -14 1h-11.5t-7.5 1q11 -23 22 -39t22 -34l40 -62l-1 -1q-4 -8 -11 -8q-8 0 -15.5 10t-15.5 21l-13 18q-16 22 -22.5 36t-11.5 26l-14 28q-11 -12 -20.5 -24.5
t-19.5 -26.5q-14 -7 -25 -17.5t-19 -23.5l-2 -3q-9 -14 -20 -23.5t-25 -11.5h-4l2 3q9 24 22.5 40.5t30.5 33.5l34 35l9 9q4 4 8 7.5t6 5.5q-6 -1 -12.5 -1.5t-7.5 -0.5q-12 6 -29 6q-7 0 -14 -0.5t-14 -1.5t-13.5 -1h-12.5q-11 0 -19.5 2t-14.5 8l-2 2l3 1q31 15 68 12
l28 -2h38q2 -1 4 -1h4q-2 3 -5 6t-3 4q-1 14 -9 27.5t-18 27.5q-9 13 -16.5 25.5t-7.5 24.5q0 5 1 8l1 3l2 -2q18 -13 31.5 -32t24.5 -42l4 -8q5 -9 9 -16q3 -6 6 -11.5t4 -6.5q14 15 25.5 30.5t24.5 30.5l54 65v1l1 -1q14 -3 17 -8v-2q0 -4 -3 -8t-8 -10l-13 -17
q-19 -24 -35.5 -42.5t-33.5 -35.5l-14 -14h55q11 0 21.5 0.5t21.5 1.5l78 4v-1q2 -3 2 -9z" />
    <glyph glyph-name="plus" unicode="+" horiz-adv-x="248" 
d="M249 121q-12 3 -26 4t-29 1h-48q-2 -3 -4.5 -5.5t-2.5 -5.5v-3q-11 -10 -18.5 -21t-13.5 -23t-12 -23.5t-14 -22.5q2 -4 2 -7q0 -5 -2.5 -9.5t-7.5 -6.5q-2 -1 -6 -1q-7 0 -11 5.5t-6 12.5q6 15 15.5 28t19 25.5t19 25.5t15.5 29q-26 9 -56 9q-17 0 -32 -3q-1 2 -1.5 3.5
t-0.5 6.5v2q11 5 23.5 6.5t26.5 1.5h53q14 23 30 46t27 48q2 5 5.5 7.5t6.5 2.5q6 0 6 -8v-3q-10 -24 -25.5 -46.5t-26.5 -45.5q10 -5 27 -5l30 1q12 0 24 -3q3 -2 7 -3.5t6 -5.5v-14v0z" />
    <glyph glyph-name="comma" unicode="," horiz-adv-x="252" 
d="M158 -8q-6 -26 -20 -48.5t-26 -45.5q-7 -6 -10 -13t-5 -15t-5.5 -15t-9.5 -13q-5 0 -10.5 4.5t-7.5 9.5q26 32 43.5 67.5t36.5 70.5l14 -2v0z" />
    <glyph glyph-name="hyphen" unicode="-" horiz-adv-x="424" 
d="M335 143q0 -7 -3.5 -10t-8.5 -4t-11 -1.5t-11 -1.5t-8.5 -1h-7.5q-16 0 -28.5 3t-26.5 3q-13 0 -26 -4q-7 7 -19 7l-27 -3q-13 0 -18 11q15 12 34 10l39 -2q11 -3 20.5 -4t19.5 -1q20 0 39.5 2.5t41.5 2.5q1 -3 1 -7z" />
    <glyph glyph-name="period" unicode="." horiz-adv-x="286" 
d="M163 27q-3 -3 -5 -8t-4 -10.5t-5 -9t-7 -3.5q-1 0 -7 2q-6 9 -6 19t8 17q12 0 20 -4l6 -3v0z" />
    <glyph glyph-name="slash" unicode="/" horiz-adv-x="277" 
d="M440 416q-13 -20 -28.5 -37l-31 -34t-30 -34.5t-24.5 -38.5q-34 -31 -63 -66.5t-55.5 -73t-51 -75.5t-50.5 -73l3 -10q-9 -1 -15 -6.5t-9.5 -13t-6 -16.5t-4.5 -16q-6 -5 -12.5 -6t-11.5 -5q-5 4 -5 9l2 12q0 4 -5 7q6 7 11 14.5t15 9.5q30 44 59.5 85.5t60.5 82t63 81.5
t68 84q26 35 56 67.5t56 67.5q0 -2 4.5 -2.5t4.5 -4.5v-8v0z" />
    <glyph glyph-name="zero" unicode="0" horiz-adv-x="267" 
d="M275 201q-4 -18 -7.5 -37.5t-9 -37.5t-13.5 -35t-22 -30q-6 -1 -10 -4.5t-7.5 -7t-8 -6.5t-10.5 -3q-5 -12 -13.5 -18t-18.5 -9l-20 -6t-18 -10q-4 -1 -12 -1q-15 0 -28 4t-27 6q-15 16 -21.5 36.5t-6.5 42.5q0 9 1 18.5t3 18.5q8 9 14 19.5l12 21t13.5 20t19.5 15.5
q18 23 43.5 37t54.5 14l34 -4q10 0 18.5 -5t15 -12t12.5 -14.5t12 -12.5zM247 165q0 23 -8 45q-10 11 -23 15t-27 4h-10t-10 -1q-21 -2 -38.5 -13.5t-32 -28t-26.5 -34.5l-22 -33l-1 -8q-1 -7 -1.5 -13.5t-0.5 -13.5q0 -18 6 -33.5t23 -24.5q12 -3 24 -3q36 0 65 22.5
t54 49.5l9 10q11 11 15 27t4 33z" />
    <glyph glyph-name="one" unicode="1" horiz-adv-x="168" 
d="M185 268q0 -20 -12 -33.5t-26 -26t-26 -26t-12 -33.5v-6l-8 -12q-6 -9 -10.5 -18.5t-4.5 -20.5q0 -4 2 -12q-9 -2 -9.5 -9t-7.5 -14q0 -7 2.5 -16.5t2.5 -17.5t-3.5 -14t-13.5 -9l-1 -19q-8 0 -16 3t-8 12q2 7 2 14.5t0.5 15t3 14t10.5 12.5q9 22 14 46t19 45q-1 2 -1 4
q0 5 3 8t3 7q0 3 -5 7q-7 -2 -13 -4t-14 -2h-3q-2 3 -2 7q0 6 6.5 9t12.5 6q27 1 36.5 18t15.5 36.5t14.5 35.5t33.5 16h6l8 -15l1 -8v0zM159 258q0 1 -4 4q0 -3 -2.5 -5.5t-2.5 -4.5q0 -3 3 -4l2 2l3 4.5t1 3.5z" />
    <glyph glyph-name="two" unicode="2" horiz-adv-x="361" 
d="M357 281q-2 -24 -7 -48t-8 -45q-20 -24 -36 -53.5t-40 -49.5q-38 -33 -76.5 -64t-76.5 -62v-2q0 -9 8 -11t13 -7q22 -2 47 -8t49 -6q17 0 31.5 4.5t27.5 15.5q2 0 2.5 0.5t1.5 0.5q8 0 13 -5t10 -8q-2 -10 -7 -13t-12 -3.5t-14 -2t-11 -7.5l-9 -1q-8 -1 -14.5 -1h-13.5
q-82 0 -153 37q-14 -8 -31.5 -11t-35.5 -3q-29 0 -50 7q-8 4 -9.5 11t-1.5 15v10q7 7 11 14.5t15 8.5q12 5 21 5q12 0 22.5 -4.5t20 -9.5t19.5 -9.5t20 -4.5t21 6q32 26 64.5 52t62.5 54.5t55 60.5t41 70l6 50q0 10 -3 18.5t-14 15.5q-12 14 -28.5 18.5t-34.5 4.5
q-8 0 -16 -0.5t-16 -1.5q-34 -10 -62.5 -38.5t-38.5 -62.5q-1 -5 -1.5 -9.5t-0.5 -9.5q0 -25 16 -40q6 -9 15.5 -10.5t19 -2t17 -2.5t9.5 -12q-11 -3 -22 -3q-26 0 -48 17q-14 13 -19 29t-4 33q1 19 8.5 36.5t19.5 33t27 28.5t31 22q15 7 33 11.5t36 4.5q21 0 40.5 -7.5
t33.5 -25.5q7 0 10 -4t4.5 -9t3.5 -9.5t8 -7.5zM52 -41q-12 5 -24 11t-26 6q-3 0 -6 -0.5t-7 -1.5q-2 -3 -8 -5t-6 -7q0 -2 1 -3q1 -13 14 -13q5 0 11.5 1.5t12.5 1.5q7 0 10 -2q8 3 17 3t11 9z" />
    <glyph glyph-name="three" unicode="3" horiz-adv-x="248" 
d="M233 210q-14 -12 -29.5 -17t-29.5 -17q-4 -5 -4 -11t6.5 -8.5t15 -4.5t16.5 -5t12 -10q8 -8 7.5 -18.5t3.5 -21.5q-5 -5 -12 -10t-7 -14q-35 -34 -71 -65.5t-70 -65.5q-18 -8 -33 -19.5t-29 -24.5t-27.5 -26.5t-27.5 -24.5q-6 -3 -13 -3q-8 0 -14 7v9q19 8 34.5 21
t30.5 26.5t31 26t34 20.5q18 22 40.5 40.5t44 37t38.5 40t25 48.5q-17 13 -37.5 16.5t-37.5 14.5q-2 2 -2 6q0 8 -1 10q6 8 14 13t16 9t15 8.5t13 12.5q-11 5 -22.5 9t-23.5 9q-3 6 -8 6.5t-10 2.5q-11 -12 -25 -28.5t-33 -16.5l-6 1q-2 3 -2 8t4.5 7.5t10 5t10.5 6t6 11.5
q6 5 14 9t9 14q-3 17 -13.5 31.5t-10.5 31.5q0 7 1 10q9 13 25 13q7 0 15 -3.5t15 -8.5t12 -11.5t6 -12.5q0 -6 -3.5 -12t-7.5 -12t-7.5 -11.5t-3.5 -9.5q0 -8 19 -13q14 -10 34 -15.5t41 -5.5q3 -3 3 -7z" />
    <glyph glyph-name="four" unicode="4" horiz-adv-x="291" 
d="M278 118q0 -9 -6 -10l-85 -4q-10 -12 -16 -25t-10.5 -26.5l-9 -27t-11.5 -26.5v-8q0 -8 -1.5 -15.5t-11.5 -7.5q-9 2 -16 5t-7 11q0 4 1 7q6 14 14 24t18 23q2 14 9.5 27t7.5 27q0 4 -2 10q-14 -2 -29 -4t-31 -2q-18 0 -33.5 5t-25.5 19q-2 2 -2 14q19 18 36 38t35 40
t37 38.5t42 33.5q10 7 20.5 17t23.5 10l5 -1q-2 -10 -11 -18t-17 -12q-21 -15 -40 -33t-36 -37.5l-34 -39t-33 -36.5v-3q0 -5 2.5 -7t6.5 -3t8 -1.5t6 -3.5q23 5 47 5.5t44 6.5q6 7 11 16t9.5 18t11 15.5t15.5 8.5q1 -2 1 -6q0 -12 -8.5 -22t-8.5 -21q0 -5 3 -9q12 0 24.5 2
t23.5 2q16 0 23 -7v-7v0z" />
    <glyph glyph-name="five" unicode="5" horiz-adv-x="259" 
d="M260 211q0 -3 -1 -4q-4 -5 -8.5 -8.5t-9.5 -3.5q-4 0 -8 3l-9 9q-14 0 -36 2.5t-34 2.5q-19 0 -33 -5q-13 -13 -16 -28.5t-10 -29.5q6 -2 10 -2q11 0 21 5t21 5q9 0 16 -4h3q10 0 16 -4.5t10.5 -11.5l9 -14t13.5 -12q-5 -20 -16.5 -36.5t-19.5 -36.5q-42 -50 -89.5 -93
t-90.5 -89q-11 -9 -23.5 -18t-26.5 -14q-4 2 -5 6.5t-1 10.5v6q38 25 76 59.5t67 69.5q23 14 40 36t27 46q2 2 7 2q6 0 8 2q4 14 8.5 27.5t4.5 26.5q-10 5 -20 11t-21 6q-8 0 -15 -4q-12 -11 -28 -12t-31 -6q-5 2 -7 6.5t-2 9.5t3 10q11 19 22 37t16 40q-5 5 -10.5 7.5
t-11.5 5t-10.5 6.5t-5.5 12q-2 6 -2 7q0 9 7 15t13 10q7 3 16 3t17 -4t10 -13q-1 -3 -1 -9q0 -10 5.5 -16.5t16.5 -6.5h12q11 0 22 -0.5t22 -0.5q22 0 41 4q5 -6 13 -11t8 -12z" />
    <glyph glyph-name="six" unicode="6" horiz-adv-x="249" 
d="M333 352q0 -8 -10 -8t-16 -6q-36 -20 -69.5 -39.5t-68.5 -42.5q-12 -15 -26.5 -28.5t-27.5 -28t-22.5 -30.5t-11.5 -36q-10 -6 -12 -16t-2 -19v-12q12 8 25 17.5t26.5 17.5t28 13.5t29.5 5.5t28 -5q22 -16 35 -43l1 -2q-2 -24 -17.5 -41.5t-36.5 -35.5l-43 -23
q-3 2 -6.5 2h-6.5l-20 -1q-14 0 -23 10q-1 -2 -4 -2q-8 0 -10 7q-1 8 -8.5 13t-9.5 12q-11 0 -17 -6.5t-9 -11.5q1 -2 1 -5q0 -8 -9.5 -14t-9.5 -16q0 -1 0.5 -2t0.5 -3q-3 -2 -6 -4.5t-8 -2.5q-4 0 -7 3q-4 5 -4 11t3.5 11.5t7.5 11.5l8 12t5 12q12 8 17.5 18t8.5 21.5
t4.5 23t5.5 22.5q7 38 32.5 71.5t54.5 66.5q23 16 45.5 33.5t46.5 32.5t49 26t53 15l5 -5v0zM216 88q0 4 -2 12q-6 13 -18.5 14t-23.5 7q-27 -13 -55.5 -25.5t-47.5 -35.5q0 -16 11 -24.5t22 -17.5q10 -3 21 -3q15 0 29 5.5t24 13.5q11 10 25.5 23t14.5 31z" />
    <glyph glyph-name="seven" unicode="7" horiz-adv-x="245" 
d="M296 246q0 -7 -6 -11q-11 -1 -19.5 -5.5t-16 -10.5t-14.5 -12.5t-15 -12.5q-10 -14 -22.5 -25.5l-25 -23t-24.5 -23t-21 -25.5l-1 -2q0 -2 2 -3.5t4 -3.5q3 -1 8 -1q7 0 13.5 2t12.5 2q11 0 19 -13q-8 -11 -22 -9l-37 3q-11 1 -18.5 -4.5t-9.5 -19.5q-17 -14 -28 -33
t-19 -39t-16 -41t-20 -39q-2 -14 -10.5 -25.5t-8.5 -25.5q0 -2 2 -10q-5 -3 -7 -8.5t-4 -11.5t-5 -10t-10 -4l-4 1q-5 5 -5 12q0 6 2.5 12t2.5 11q9 9 13 20.5t7.5 23.5t8 23.5t13.5 20.5q-2 4 -2 6q0 7 6 11.5t7 11.5q9 31 26 58.5t30 56.5q-6 5 -15 6t-18 1.5t-16.5 3.5
t-8.5 12q8 4 22 4l32 -2q15 -1 26.5 4.5t15.5 22.5q29 23 54 52.5t56 52.5l-5 7h-27q-17 0 -33.5 1.5t-32.5 9.5q-11 0 -20 -5.5t-17 -12.5t-15.5 -14.5t-15.5 -13.5q-6 0 -10 -2t-8 -2t-5 4q4 11 13 17t19 13l3 2q8 9 16 17t10 18q-9 9 -15.5 20t-6.5 23q0 10 5 18
q7 10 23 10q10 0 19 -3.5t16 -8.5q5 -6 10 -13t5 -15q0 -5 -3 -9q-2 -6 -7 -10.5t-5 -11.5q32 -14 70 -12l76 3q7 -4 7 -10z" />
    <glyph glyph-name="eight" unicode="8" horiz-adv-x="301" 
d="M303 247q0 -6 -0.5 -12t-1.5 -11q-4 -12 -12.5 -18.5t-17.5 -11.5t-15.5 -12t-6.5 -20v-2q7 -21 7 -45q0 -35 -13 -69t-27 -64q-2 -5 -4 -8.5t-4 -7.5q-11 -11 -20.5 -21t-20 -19t-22.5 -15.5t-28 -8.5q-6 -8 -15 -11t-19 -3q-11 0 -21 1.5t-18 1.5q-10 5 -21.5 9t-22 9
t-19 13t-12.5 21q-1 5 -1 15q0 18 7 32.5t18 27t23 24t23 24.5q13 9 35 21t43.5 24t39 22t22.5 15q4 5 12 8.5t15 6.5t12.5 7t5.5 12q0 6 -2 10q-5 15 -9.5 31.5t-4.5 33.5t6 32q11 18 31 18q13 0 25.5 -6.5t21.5 -14.5q6 -8 8.5 -18t2.5 -21zM287 251q0 17 -10 26.5
t-22 9.5q-10 0 -17 -8q-7 -14 -7 -27q0 -8 3 -15q3 -10 4 -22.5t11 -14.5q14 11 26 22t12 29zM233 118q0 14 -4 25q-29 -4 -52.5 -21.5t-48.5 -31.5q-15 -6 -28.5 -15t-29.5 -14q-14 -11 -28.5 -22.5t-26.5 -25.5t-19.5 -30t-7.5 -34v-5q11 -23 32.5 -29.5t44.5 -6.5h13.5
t12.5 1q25 7 44.5 21.5t35 33.5t27 40t22.5 42l3 6q2 15 6 32t4 34z" />
    <glyph glyph-name="nine" unicode="9" horiz-adv-x="277" 
d="M315 232q0 -5 -1 -7q-22 -29 -53.5 -50t-67.5 -29q-38 -35 -74.5 -76t-62.5 -83q-16 -19 -28 -37t-22 -41q-7 -9 -16 -9q-2 0 -6 2q-3 4 -3 9q0 8 6 16.5t7 16.5q38 49 75.5 98t77.5 97q-6 5 -13.5 7.5t-15 5.5t-14 7t-10.5 13q-9 18 -9 40q0 11 3 23q19 29 48.5 43
t63.5 14h8t8 -1q12 -11 22.5 -16t21.5 -19q9 0 13.5 1.5t7.5 3.5t5 3.5t7 1.5q3 0 5 -2q1 -1 2 -1q5 -6 10 -14t5 -17zM291 233q0 3 -1 4q-4 0 -4 2q-9 -2 -9 -13q0 -4 2 -8q2 5 7 7.5t5 7.5zM258 206q0 2 -2 2h-2q-8 0 -13.5 -8.5t-11.5 -11.5l3 -2q3 3 7.5 4.5t8.5 2.5
t7 4t3 9zM249 247q-10 15 -24.5 21.5t-31.5 6.5q-24 0 -43 -10q-3 -8 -9.5 -11.5t-13 -6t-12.5 -7t-7 -13.5q-2 -4 -2 -13q0 -20 14 -36q8 -10 22.5 -10t28.5 -2q16 9 27 21.5t22 24.5q17 17 29 35z" />
    <glyph glyph-name="colon" unicode=":" horiz-adv-x="217" 
d="M153 129q0 -7 -4 -13.5t-9 -12.5q-7 1 -13 3t-7 9q2 6 8.5 14t14.5 8q4 0 9 -3l1 -5v0zM125 27q-3 -3 -5 -8t-4 -10.5t-4.5 -9t-7.5 -3.5q-2 0 -8 2q-5 10 -5 19q0 10 8 17q12 0 20 -4l6 -3v0z" />
    <glyph glyph-name="semicolon" unicode=";" horiz-adv-x="252" 
d="M195 102q-3 -3 -5 -8t-4 -10.5t-4.5 -9t-7.5 -3.5q-2 0 -8 2q-5 10 -5 19q0 10 8 17h3q11 0 23 -7zM136 -8q-6 -26 -19.5 -48.5t-25.5 -45.5q-5 -5 -8 -12.5t-6 -15.5t-7 -16t-9 -12q-6 0 -11 4.5t-7 9.5q25 32 42.5 67.5t36.5 70.5l14 -2v0z" />
    <glyph glyph-name="less" unicode="&#x3c;" horiz-adv-x="263" 
d="M204 221q0 -8 -8 -13t-13 -11q-11 -11 -21 -16.5t-20 -10.5t-19.5 -11t-19.5 -18h-3q-11 0 -18.5 -8.5t-15.5 -14.5q11 -6 19.5 -16.5t18.5 -19.5q17 -28 41.5 -44t48.5 -38q-5 -10 -13 -10q-7 0 -13.5 5.5t-13.5 9.5q-12 8 -20 16.5t-14.5 17.5t-15 17.5t-21.5 15.5
q0 8 -5.5 13t-12 9.5t-12.5 9.5t-8 11h-2q1 1 1 3q0 4 1 7h2q8 14 22.5 21.5t28.5 17.5q15 6 27.5 14t23.5 17.5t22.5 20t24.5 19.5q8 -7 8 -14z" />
    <glyph glyph-name="equal" unicode="=" horiz-adv-x="301" 
d="M268 117q0 -7 -3.5 -10t-8.5 -4t-11 -1.5t-11 -1.5t-8.5 -1h-7.5q-17 0 -31.5 3t-23.5 3q-13 0 -26 -4q-7 7 -18 7l-28 -3q-13 0 -18 11q15 12 34 10l39 -2q11 -3 20.5 -4t19.5 -1q20 0 39.5 2.5t41.5 2.5q1 -3 1 -7zM246 26q0 -6 -3.5 -9t-8.5 -4.5t-11 -2t-11 -1.5
t-8.5 -1h-7.5q-17 0 -30 3t-25 3q-13 0 -26 -4q-7 7 -18 7l-27 -3q-14 0 -19 11q15 12 34 10l39 -2q11 -3 20.5 -4t19.5 -1q20 0 39.5 2.5t41.5 2.5q1 -3 1 -7z" />
    <glyph glyph-name="greater" unicode="&#x3e;" horiz-adv-x="305" 
d="M247 115q-2 -6 -7.5 -11t-12 -9.5t-12 -9.5t-5.5 -13q-14 -7 -22 -15.5t-15 -17.5t-14.5 -17.5t-20.5 -16.5q-7 -4 -13 -9.5t-13 -5.5q-8 0 -13 10q23 22 47.5 38t41.5 44q11 9 19.5 19.5t19.5 16.5q-8 6 -16 14.5t-19 8.5h-3q-10 12 -19.5 18t-19.5 11t-20.5 10.5
t-20.5 16.5q-5 6 -13 11.5t-8 13.5q0 6 8 13q26 -19 47 -39.5t51 -31.5q14 -10 28.5 -17.5t22.5 -21.5h2q1 -3 1 -7l1 -3h-2z" />
    <glyph glyph-name="question" unicode="?" horiz-adv-x="493" 
d="M571 382q0 -43 -13 -78v-17q-18 -50 -51.5 -93t-81.5 -66q-31 -15 -62.5 -32.5t-66.5 -17.5q-25 0 -50 13q-2 4 -5 8t-8 4q-3 0 -6 -3q-18 -17 -29.5 -38t-24.5 -41q-7 -1 -9.5 -6.5t-3.5 -11.5t-3 -11t-7 -5q-4 0 -10 3q2 22 14.5 40.5t27.5 35.5l5 6q6 14 17 26t16 28
q2 5 7 5q4 0 8.5 -2.5t7.5 -2.5q8 -17 24 -21t33 -5q22 1 41.5 7.5t38 16t36.5 20t36 20.5q54 42 79.5 102.5t25.5 129.5v12t-1 13q0 2 -0.5 3.5t-0.5 5.5q-6 27 -21 52t-35 46t-43.5 37t-48.5 27q-14 6 -28 8t-28 2q-43 0 -83 -17.5t-76 -37.5q-17 -15 -33 -33t-29 -38.5
t-21 -42.5t-8 -45q0 -20 7 -40q16 -33 43 -57t62 -34q10 -3 20 -3q13 0 25 4t23.5 9t23.5 9.5t25 4.5l1 -6q0 -16 -13 -23q-6 2 -7 2q-8 0 -14 -6t-15 -6q-1 0 -2 0.5t-3 0.5q-14 -5 -31 -5q-22 0 -43 6t-42 11q-15 15 -29.5 30t-25.5 32t-17.5 35.5t-6.5 40.5v8t1 9
q3 21 11.5 39.5t21 36t26.5 34t27 31.5q27 14 53 30t56 22q14 7 31 10t34 3q22 0 43.5 -5t39.5 -13q34 -12 63 -38.5t49 -55.5q17 -25 25 -57t8 -65zM126 -61q-7 -20 -31 -20h-4q-4 3 -4 11v4q2 8 9 12.5t15 4.5q13 0 15 -12z" />
    <glyph glyph-name="at" unicode="@" horiz-adv-x="812" 
d="M898 293q0 -12 -7 -23q0 -47 -24 -87.5t-58 -74.5q-32 -33 -72 -57t-79 -50q-28 -7 -56.5 -17.5t-57.5 -10.5q-15 0 -30 4t-29 15q-3 11 -3.5 21t-0.5 21v17q-20 -10 -39 -21t-39.5 -20t-41.5 -14.5t-44 -5.5h-5q1 17 9 31t19 26t24.5 22t26.5 20l8 6l9 4q30 14 62.5 26
t66.5 12h9q1 -4 1 -11q0 -13 -6.5 -23.5t-14.5 -21t-14.5 -22t-6.5 -25.5v-7q-2 -6 -2 -8q0 -8 6 -13.5t14 -6.5q12 -3 24 -3q28 0 53.5 12t53.5 17q34 19 70.5 42t68 51t54 62.5t29.5 78.5q4 12 4 28q0 22 -8.5 42t-22 37.5t-29.5 33t-32 28.5l-5 4q-33 18 -69.5 25.5
t-74.5 7.5q-65 0 -129.5 -16t-120.5 -33q-23 -13 -44 -27.5t-47 -19.5q-21 -17 -44 -32t-44 -32t-40 -36.5t-33 -44.5q-23 -24 -39 -54t-38 -54q-16 -35 -26 -77t-10 -84q0 -29 6 -57t20 -54q1 -10 6 -19t11 -17t11.5 -16.5t8.5 -18.5q43 -51 104.5 -73t128.5 -22
q55 0 109 14q16 8 32.5 13.5t33.5 11.5t33 13t30 19q17 5 31.5 15t33.5 12q15 7 29 17.5t27.5 21.5t26.5 21t27 16q4 -4 4 -9q0 -8 -8 -14.5t-12 -11.5q-12 -5 -23.5 -12.5t-22 -16t-22 -16t-23.5 -11.5q-14 -3 -25.5 -9t-23 -13t-22.5 -14t-23 -11l-9 -3
q-54 -18 -110 -34.5t-117 -16.5q-20 0 -29 2t-22 4q-44 12 -86.5 28.5t-74.5 53.5q-31 34 -47 75t-29 83l-5 16q-1 8 -1 16v16q0 70 25.5 133.5t67.5 118t96 100.5t111 82q65 41 137.5 62.5t150.5 30.5q12 2 24.5 2h24.5q36 0 70 -6t64 -19.5t55 -36.5t43 -57q1 -9 5.5 -18
t9 -17.5t8.5 -17.5t4 -18zM509 112q-23 0 -45 -11t-44 -18q-20 -11 -40 -26.5t-26 -36.5q5 5 14 5h9q8 0 11 2l6 3q17 9 36.5 19.5t39.5 19.5q10 12 23.5 19.5t17.5 23.5h-2z" />
    <glyph glyph-name="A" unicode="A" horiz-adv-x="526" 
d="M771 510q0 -13 -7.5 -23.5t-18.5 -16.5q-36 -20 -68 -49t-66 -53q-21 -20 -44.5 -37.5t-46 -37t-41 -41.5t-29.5 -50q-12 -9 -19 -21.5t-13 -25l-12 -25t-15 -22.5q-6 -15 -16.5 -28.5t-12.5 -30.5q9 -2 18.5 -3t18.5 -1q42 0 82.5 13t79.5 23q6 -9 6 -20
q-10 -8 -20.5 -11.5t-21 -5t-21.5 -3t-22 -5.5q-33 -7 -68 -10t-67 -4q-23 -45 -37.5 -93.5t-28.5 -96.5q-5 -1 -9.5 -3t-9.5 -2h-2q-1 5 -1.5 9.5t-0.5 9.5q0 20 11 31q22 47 22 101q0 14 -1.5 28t-3.5 28q-18 13 -40 14.5t-42 6.5q-35 -23 -77.5 -36t-87.5 -13
q-32 0 -63.5 7t-57.5 27q-11 3 -20.5 9.5t-17.5 15t-16.5 16.5t-18.5 14q-18 29 -33 61.5t-15 69.5q0 55 31.5 97.5t79 71t104 43t107.5 14.5q40 0 76 -13t65 -45q3 -6 3 -12q0 -8 -4.5 -14t-10.5 -12t-11.5 -12.5t-6.5 -13.5q-17 -5 -37.5 -10.5t-40.5 -5.5q-28 0 -47 15
l-5 -1q-11 0 -19.5 8t-14.5 16q4 9 10 9q7 0 15.5 -8t17.5 -8q10 -5 20 -7t21 -2q14 0 30 3t29 9t21.5 14.5t8.5 18.5q0 8 -8 13q-25 21 -52.5 29.5t-56.5 8.5q-49 0 -95 -16t-90 -29q-23 -11 -43.5 -30.5t-40.5 -32.5q-16 -22 -24.5 -48.5t-8.5 -54.5q0 -24 11.5 -51
t30 -51.5t41.5 -44t47 -28.5q41 -22 91 -22q35 0 68.5 9.5t61.5 26.5q-12 8 -31.5 15t-38 17t-32.5 24t-14 36q0 11 6.5 17t16 9t20 4t18.5 1q40 0 74 -20.5t63 -49.5q35 13 66 40t60 47q33 22 60 49t52 56.5t47.5 60t46.5 60.5q29 36 69 71t85 49q12 0 17.5 -6.5
t11.5 -14.5q3 -8 3 -15zM750 514q0 4 -1 6h-16q-39 -23 -74 -50.5t-65 -63.5q-4 -13 -14 -23t-16 -22q29 23 60.5 47t61.5 47q4 7 10 11.5t13 8t13.5 6.5t11.5 9q8 3 12 10t4 14zM414 198q-2 -2 -4 -4.5t-5 -4.5l-124 -90v-12q8 -17 22 -24.5t30 -7.5h6v6q14 16 22.5 34
t16.5 36l5 12q17 26 23 38t8 17zM324 25q0 3 -3 6h-12q-1 -2 -1 -8q0 -4 1 -8.5t4 -6.5q2 5 6.5 8.5t4.5 8.5zM266 73q-2 8 -12 8q-9 0 -9 -7v-2q5 -1 8 -3.5t7 -2.5q3 0 6 3v4zM234 108q-14 9 -27 19.5t-27 19t-29.5 14t-33.5 5.5l-6.5 -0.5t-14 -2.5t-13.5 -5.5t-6 -9.5
q0 -3 1 -5q11 -17 26 -27t31.5 -17t34.5 -11t36 -7q7 6 17.5 9.5t10.5 13.5v4z" />
    <glyph glyph-name="B" unicode="B" horiz-adv-x="599" 
d="M669 349q0 -19 -6.5 -34.5t-10.5 -32.5q-12 -10 -20 -23.5t-15.5 -27.5t-17.5 -26t-26 -19q0 -14 7 -27t7 -27q0 -8 -5 -22t-13.5 -29t-18.5 -28t-19 -19q-31 -35 -73.5 -47t-87.5 -14q-64 12 -120 40q-20 -11 -35 -31.5t-32 -34.5q-23 -16 -45.5 -31t-46.5 -29
q-6 -2 -8 -2q-9 0 -13.5 7.5t-6.5 15.5q1 27 14 50.5t31.5 43.5t39 39t36.5 37q26 23 49.5 47l47 48t48 47t53.5 43q16 31 28.5 63t19.5 68q13 34 13 67q0 40 -17.5 69t-45.5 47.5t-63 27t-69 8.5q-33 0 -74 -11t-82.5 -30.5t-80 -45.5t-66.5 -56q-25 -26 -50 -53.5
t-45 -58.5t-32.5 -64.5t-12.5 -70.5q0 -29 9.5 -53.5t27 -42.5t43 -28.5t57.5 -10.5q36 0 73.5 12.5t70.5 34.5t59 52.5t39 66.5q1 1 1 4q0 4 -3.5 6.5t-6.5 3.5q-18 -9 -37.5 -16t-38 -15.5t-34.5 -22t-25 -35.5h-3q-6 0 -9 4q5 23 18 39.5t30.5 28.5t38 19.5t39.5 13.5
l7 2q9 3 18 3q13 0 23 -7t10 -22q0 -9 -4 -18t-9.5 -18t-10.5 -17.5t-8 -17.5q-19 -24 -46.5 -46.5t-58 -39t-60.5 -26.5t-54 -10q-69 0 -117 36t-58 101v12q0 47 15.5 87.5t41 76.5t56.5 68t63 64l8 8q53 53 120 78t140 38q37 -1 78 -8.5t75.5 -26t57 -51t22.5 -83.5
q0 -28 -4.5 -55t-9.5 -53q-13 -16 -16 -34l-4 -22q19 9 36 21q33 23 68 36.5t72 21.5q19 -2 35 -8.5t29 -24.5zM522 172q-11 3 -21 3q-34 0 -52 -24q18 2 39 3.5t34 17.5zM643 345q-8 3 -14.5 9t-16.5 6q-4 0 -7 -1q-9 -6 -20 -8t-22.5 -4.5t-22 -7t-18.5 -15.5
q-34 -9 -62.5 -31.5t-56.5 -42.5q-21 -41 -43 -79.5t-48 -75.5q-12 -17 -26 -32t-17 -34q20 -19 48 -26t57 -7q27 0 55 5q7 11 19 12t22 7q16 10 31.5 21.5t28 26t20 31.5t7.5 38v5q-3 4 -4.5 7t-6.5 4q-22 -14 -47.5 -21.5t-51.5 -7.5q-8 0 -18.5 1.5t-10.5 11.5v8
q0 14 11 25t24.5 18.5t26.5 11.5t16 4q12 0 25 -4t24 -4q9 0 16 4t14 16q9 15 20.5 30t22 30.5t18 32.5t7.5 36zM347 204q-5 0 -9 -3.5t-8 -5.5q-11 -18 -25.5 -31t-29.5 -25.5t-29 -26t-24 -31.5q-16 -6 -26.5 -17.5t-20.5 -24l-20 -25t-24 -20.5q-13 -17 -27.5 -35
t-14.5 -39v-6q29 17 58.5 36t53.5 44q1 10 11.5 16t10.5 14q0 4 -3.5 8.5t-3.5 11.5t3 14t8 7q6 0 9 -6t9 -7q18 15 33.5 34.5t28.5 40.5t22.5 41t17.5 36z" />
    <glyph glyph-name="C" unicode="C" horiz-adv-x="394" 
d="M533 460q0 -32 -8 -63t-18 -59q-7 -10 -14.5 -18t-7.5 -20v-2q-35 -33 -69.5 -69.5t-77.5 -59.5q-22 -18 -49.5 -29t-56.5 -11q-27 0 -51 10q-9 9 -9 25q0 10 2 14q3 19 13.5 33.5t19.5 30.5q27 20 57.5 37.5t65.5 17.5q12 0 26 -3q1 -3 1 -7q0 -7 -4 -8.5t-11 -1.5
l-18 1q-11 0 -16 -4q-19 -2 -36 -10.5t-31 -22t-24.5 -30t-16.5 -33.5v-3q0 -11 7 -20h8q36 0 68 11.5t61 30.5t55.5 43t50.5 49q25 37 45 76.5t20 85.5q0 20 -4 37q-6 11 -16 21t-22 16q-6 1 -12.5 1.5t-12.5 0.5q-31 0 -59 -10.5t-56 -22.5q-41 -18 -82 -39t-70 -58
q-32 -20 -58 -47.5t-48.5 -59t-42 -65t-36.5 -65.5q-8 -29 -11 -57t-4 -60q5 -13 8.5 -27.5t7 -28.5t9 -27.5t14.5 -24.5q19 -23 45 -34t55 -11q20 0 40 6q58 19 110.5 49t102.5 68v12q3 -3 9 -3q5 0 10 1.5t9 1.5q8 0 8 -9l-1 -6q-27 -14 -46 -31.5t-47 -26.5
q-11 -12 -24.5 -19.5t-28 -13.5t-28.5 -12.5t-27 -15.5q-21 -9 -45 -15.5t-49 -6.5q-9 0 -18.5 1.5t-18.5 3.5q-23 5 -40 18t-29.5 30t-22 37t-16.5 39l-2 5l-2 13q-3 17 -4 33.5t-1 33.5v17t2 18q5 25 16 48.5t24.5 46t28 44t27.5 43.5q33 45 73.5 84.5t86.5 71.5t96 55
t102 35q6 1 12.5 1.5t13.5 0.5q26 0 50 -10t37 -36q3 -11 4 -21t1 -21z" />
    <glyph glyph-name="D" unicode="D" horiz-adv-x="543" 
d="M635 328q0 -15 -3.5 -29.5t-13.5 -25.5q-3 -18 -13 -33t-12 -34q-21 -31 -42 -63.5t-47 -58.5q-51 -51 -115 -78t-136 -27h-14t-14 1q-40 -33 -86 -57t-101 -24h-6q-15 2 -27 10.5t-20 21.5q-5 7 -5 11q0 8 6 15t8 15q25 18 55 23.5t62 4.5l65 -1q14 0 27.5 1t27.5 3
q46 34 80.5 75.5t75.5 83.5q20 29 45 54t51 42q14 5 21 15l-3 9h3q12 0 20 -8q2 -3 2 -9q0 -11 -13 -18t-21 -15q-31 -17 -56 -41.5t-47.5 -52.5t-45.5 -56t-50 -51l-23 -26q7 -3 16 -3l47 5q43 15 85 36.5t74 57.5q27 31 50 61t34 68q5 12 13 22.5t8 24.5v5q17 24 17 53
q0 26 -9.5 51t-19.5 48l-6 14q-21 18 -44 37.5t-48 37t-52.5 29.5t-57.5 14q-5 -1 -15.5 -1h-15.5l-93 11q-16 0 -35.5 -3.5t-33.5 -12.5h-9q-18 0 -33 -6t-29.5 -13.5t-28.5 -15.5t-29 -12q-16 -8 -25.5 -19.5t-26.5 -15.5q-32 -27 -64 -58.5t-48 -70.5q-10 -27 -10 -59
q0 -40 14 -79q27 -43 70.5 -68.5t96.5 -25.5h10t13 1q18 0 34 4.5t30.5 11.5t28.5 16t29 17q22 16 46.5 38t32.5 48q-16 15 -38 15q-17 0 -33.5 -5.5t-33.5 -10.5q-35 -9 -61.5 -32t-43.5 -55q-1 -1 -4 -1q-5 0 -8 5l3 16q15 29 37.5 49t50 32t58 17t61.5 5h5q11 -3 21 -12
t12 -20v-4q0 -14 -6 -25.5t-10 -22.5q-9 0 -15 -4t-11.5 -9.5t-11 -11.5t-12.5 -10q-20 -18 -44 -31t-49 -23q-14 -11 -31 -15t-35 -4q-24 0 -49 4t-47 6q-26 11 -49.5 29t-41.5 41t-29 50.5t-11 57.5v7q4 23 7.5 45.5t14.5 42.5q21 35 49.5 64t61.5 53t69 42.5t72 33.5
q34 6 69 14.5t70 8.5q28 0 52 -7q7 2 13 2h12q22 0 43 -5t36 -11q12 -5 23.5 -8t23.5 -9q25 -17 52 -37t50 -44t38 -52.5t16 -62.5q0 -8 1.5 -16.5t1.5 -16.5zM176 -25q-9 5 -21 5q-3 0 -10.5 -0.5t-35.5 -0.5h-9t-9 1q-12 -2 -25 -3.5t-25 -5t-21.5 -10.5t-13.5 -21
q5 -8 12 -11t15 -6q19 4 39 7t39 8.5t35.5 14t29.5 22.5z" />
    <glyph glyph-name="E" unicode="E" horiz-adv-x="389" 
d="M463 363q0 -9 -8 -14q-10 -8 -21.5 -11.5t-23.5 -3.5q-20 0 -41 7.5t-37 18.5q-22 18 -41.5 41t-19.5 52v7q-8 9 -17 12t-19 3l-46 -5h-12q-23 -8 -46.5 -15.5t-41.5 -26.5q-33 -13 -50.5 -42.5t-25.5 -60.5q-1 -4 -1 -8v-8q0 -32 15.5 -60t35.5 -51q17 4 29 15t27 19
q31 12 64.5 22t68.5 10q37 0 68 -14q7 -6 7 -12q0 -7 -5 -14t-7 -14q-33 -26 -74.5 -46t-85.5 -20q-41 0 -75 21h-2q-15 0 -25 -7.5t-18 -19t-15 -24t-16 -21.5q-6 -9 -6 -19q0 -9 3 -18t3 -19v-4q19 -25 49.5 -37t63.5 -12q6 0 12.5 0.5t12.5 1.5q19 18 38.5 38.5
t40.5 37.5t45 28.5t53 11.5q5 0 10.5 -0.5t11.5 -1.5q15 -7 15 -21q0 -6 -3 -10q-9 -15 -22 -25.5t-27.5 -18.5t-30 -15.5t-28.5 -17.5q-16 -6 -34 -9.5t-34 -10t-27 -18.5t-12 -34q-6 -6 -7.5 -13.5l-3 -15t-3.5 -14.5t-8 -13v-2q0 -5 4 -9.5t4 -9.5q0 -4 -5 -8h-5
q-13 0 -22 9l-3 3q6 11 5.5 24t8.5 23q2 11 7.5 21t10.5 22q5 4 6 8.5t3 9.5q-11 8 -25 8.5t-28 2.5q-12 6 -24.5 9.5t-24.5 8.5t-23 12t-18 20q-5 12 -9 26.5t-4 28.5v10t2 10q1 2 1.5 4t2.5 4q13 21 27.5 42.5t34.5 38.5q-8 14 -17 27.5t-17 28t-13.5 30t-5.5 33.5
q0 10 1 15q4 49 36.5 90.5t77.5 61.5q32 14 64.5 22t70.5 8h14l9 6v120l11 -3v-13q0 -26 3 -53.5t4 -54.5q6 -12 22 -10l17 1q9 0 15 -3q41 -10 75 -33.5t49 -64.5l5 -25v0zM432 392v5q-23 37 -60.5 53.5t-77.5 21.5l-2 -2q-1 -4 -1 -12q0 -22 13.5 -42.5t33.5 -34.5
q18 -7 36 -16.5t37 -9.5q13 0 26 7q3 4 3 9zM299 233q-12 2 -23 6.5t-23 4.5q-7 0 -10 -1q-41 -4 -78.5 -17.5t-66.5 -40.5l44 -17h16q21 0 40 3t35 14q20 5 39.5 16.5t26.5 31.5zM334 80q-5 3 -8 3q-7 0 -15 -4t-17 -4q-3 0 -9 2q-26 -17 -48.5 -33.5t-42.5 -39.5
q20 5 43.5 11.5t42.5 21.5q7 5 15.5 9t16.5 8.5t14 10.5t8 15z" />
    <glyph glyph-name="F" unicode="F" horiz-adv-x="442" 
d="M1118 726q0 -10 -4.5 -19.5t-11 -18.5l-13 -18t-10.5 -18q-11 -9 -19 -20t-15.5 -21.5t-15.5 -21t-20 -17.5q-6 -12 -16 -20.5t-20.5 -16.5l-21 -16t-19.5 -17q-11 -11 -23.5 -19t-25.5 -14.5t-25.5 -12.5t-24.5 -15q-49 -11 -96.5 -24.5t-99.5 -19.5l-131 -3
q-45 -53 -87.5 -101.5t-76.5 -106.5q1 -1 1 -3t-6 -8q-5 -5 -5 -8t5 -7q16 -4 36 -4q23 0 45 4.5t43 10.5q5 -2 8.5 -6t3.5 -9q0 -4 -3 -8q-47 -11 -91 -11q-17 0 -33.5 1.5t-33.5 3.5q-15 -25 -34.5 -46.5t-31.5 -47.5l5 -5q22 3 45 3q20 0 38.5 -2.5t35.5 -9.5v-16
q-17 3 -35 5t-36 2q-26 0 -51 -6.5t-44 -23.5q-36 -44 -80 -83t-96 -57q-5 -3 -11.5 -5.5t-13.5 -2.5q-4 0 -10 2q-8 8 -15.5 13t-15.5 11q-1 4 -1 10q0 12 6 21.5t15 18.5t19 17t18 17q45 19 88.5 38.5t91.5 29.5q21 30 47.5 61t41.5 62q-10 8 -19.5 10.5t-19.5 2.5
q-25 0 -50.5 -11t-51.5 -11h-2q0 7 3 10t7.5 5t9.5 3t8 3q19 8 39.5 14t40.5 6q25 0 48 -12q12 8 19.5 20t13.5 24.5t13.5 25t20.5 21.5l112 138v8q-32 7 -65 16.5t-66.5 18t-67.5 14.5t-68 6q-20 0 -41 -2.5t-41 -8.5q-6 -4 -13 -5.5t-14 -2.5t-14 -3.5t-11 -8.5
q-18 -5 -35 -16.5t-30 -27.5t-21.5 -35t-10.5 -38q5 -22 18.5 -37t31 -25.5t37.5 -17t39 -11.5q51 0 94.5 21.5t74.5 60.5v4q0 17 -15 20q-11 0 -22 2.5t-15 11.5q8 7 21 7q9 0 18 -3.5t17 -6.5q16 -10 16 -29q0 -4 -2 -12q0 -12 -6 -20t-14 -14t-17 -12t-16 -13
q-29 -10 -55 -21.5t-56 -16.5q-26 4 -51.5 11.5t-47.5 19.5t-39.5 30.5t-27.5 46.5v4q0 29 14 52.5t35.5 41.5t47 31.5t48.5 22.5q23 10 47.5 13t48.5 3q38 0 76 -7t76.5 -16.5t76.5 -18t76 -11.5q36 34 78 60t87 45l5 -1q8 2 18 2q5 0 8.5 -2t3.5 -8q-4 -5 -9 -6t-11 -1h-6
q-5 0 -9.5 -1t-8.5 -4q-29 -16 -55.5 -36t-56.5 -31q-4 -5 -8 -8.5t-4 -8.5q2 -5 11 -5h5q7 0 10 -2q61 1 120.5 9.5t115 28.5t105 52.5t90.5 82.5q28 34 57 68t43 75h2q3 0 5.5 1t4.5 1q3 0 5 -1l1 -7v0zM166 -8q-5 -2 -8.5 -2.5t-8.5 -2.5q-23 -7 -45.5 -14.5t-44 -17.5
t-40.5 -24.5t-35 -34.5v-14q5 -9 13 -10.5t17 -1.5h3q44 23 82 52t70 68z" />
    <glyph glyph-name="G" unicode="G" horiz-adv-x="379" 
d="M605 573q-3 -9 -9.5 -13t-14.5 -6.5t-16.5 -5t-14.5 -7.5q-6 -6 -13.5 -9.5t-14.5 -7t-13.5 -7.5t-9.5 -11q-17 -20 -39.5 -32.5t-39.5 -31.5v-3q0 -8 8 -11t10 -12q10 -14 10 -30q0 -15 -6.5 -29.5t-14.5 -28.5q-6 -3 -6.5 -7t-1 -7.5t-2.5 -6t-9 -3.5q-6 -8 -14 -13
t-16 -9.5t-16 -9.5t-15 -12q-13 -14 -36 -14q-5 0 -9 0.5t-9 1.5q-8 6 -10.5 15t-2.5 20t2 22.5t4 19.5q12 23 29.5 43t29.5 44q-6 5 -16 5l-34 -5q-15 -8 -30.5 -12l-31 -8t-30.5 -10t-27 -19l-42 -22t-38 -30q-15 -6 -25 -21t-24 -23q-12 -15 -25.5 -31.5t-25 -34.5
t-19.5 -36.5t-8 -38.5q0 -10 2 -20t8 -21t22 -21t41 -10l8 -2q17 2 37.5 3t40.5 9q18 16 36 34.5t35 35.5q17 5 31 16t27.5 22.5t28 20.5t33.5 11l3 2q14 9 28.5 16.5t31.5 7.5q14 0 28 -8l2 -3q4 -5 7 -11.5t3 -14.5q0 -7 -2 -11q-52 -53 -116.5 -82.5t-129.5 -52.5h-6
q-17 0 -29 -10t-23 -24l-5 -6q-5 -11 -13 -21t-16.5 -20t-15 -20.5t-9.5 -22.5q-14 -20 -28 -33.5t-24 -34.5q29 4 58 16.5t59 20.5q27 2 53 8t52.5 12.5t52.5 11.5t53 5q17 0 34 -2.5t34 -8.5q10 -7 24 -11t26 -10t20.5 -15.5t8.5 -26.5l1 -7q0 -15 -11.5 -25t-22.5 -17
q-17 -2 -36 -8t-36 -14q-11 -3 -21 -4t-21 -1q-26 0 -51 5t-48 8q-4 1 -12 9v3q0 6 4.5 8.5t9.5 2.5q4 0 10 -2q5 -5 11 -5.5t12.5 -0.5t12.5 -1.5t11 -6.5q42 0 76 9t71 21q8 5 14 11t6 14q0 6 -4 11q-38 36 -93 44q-15 3 -30 3q-20 0 -39.5 -4t-39 -8.5t-39 -8t-40.5 -3.5
h-6q-44 -17 -90 -31.5t-88 -37.5q-11 -3 -17 -10t-10.5 -15t-9.5 -16t-14 -14q-6 -16 -15.5 -29.5t-20 -26t-20 -26t-16.5 -28.5l-99 -115q-10 -5 -18.5 -14t-17.5 -17.5t-18.5 -14.5t-21.5 -6q-8 0 -15 3q-9 9 -17.5 20t-15.5 22q10 61 47 107.5t88 82.5q42 31 85 52.5
t87 47.5q36 53 75 103.5t72 104.5q-16 3 -35 2.5t-37.5 1t-34.5 8t-27 22.5q-8 16 -14.5 34t-6.5 37q0 17 7 32q23 51 64.5 95t83.5 83q48 29 94 53t102 32q23 8 47 10.5t47 6.5q23 17 45.5 35.5t46 35.5t47.5 32t51 26q7 -1 13.5 -0.5t12.5 -2.5zM421 393q0 9 -8.5 15
t-16.5 6q-7 0 -11 -4q-10 -12 -23 -24.5t-25 -26t-20 -28t-8 -31.5q0 -9 3 -19q14 3 27 8t23 18q23 11 41 32.5t18 48.5v5zM377 204q-27 -12 -54.5 -24.5t-54 -28t-50.5 -34t-42 -41.5l2 -3q95 31 181 84q13 8 25.5 21t12.5 26h-20zM-88 -227q-11 -5 -21 -11t-20 -14
q-42 -20 -80 -51.5t-73 -61.5q-4 -11 -12 -22t-15.5 -22.5t-13.5 -23t-6 -23.5q0 -14 12 -30q6 -2 8 -2q10 0 18.5 8t17.5 12q38 42 75 82t66 85q12 19 27 35.5t17 38.5z" />
    <glyph glyph-name="H" unicode="H" horiz-adv-x="589" 
d="M693 340q-10 -11 -12 -24t-7 -26q-31 -38 -73.5 -67.5t-87.5 -47.5q-14 0 -25 -6t-25 -8q-29 -46 -58.5 -91t-49.5 -94q-5 -20 -5 -33q0 -31 22 -56q22 -6 44 -6q38 0 73.5 15.5t64.5 39.5q7 4 11.5 10.5t11.5 6.5q3 0 8 -3l2 1q2 0 3.5 -2t3.5 -4q-4 -7 -6.5 -15
t-12.5 -8h-4q-13 -4 -24 -11.5t-23 -14.5q-25 -14 -54.5 -23t-59.5 -9q-26 0 -47 7q-16 11 -23.5 28t-7.5 37v10.5t2 10.5q6 27 16.5 52t24 49t28.5 47t28 47h-108q-51 -53 -99.5 -101.5t-108.5 -80.5q-21 -11 -41.5 -24.5t-40.5 -27.5q-4 -2 -5 -3q-5 -1 -9.5 -1.5
t-9.5 -0.5q-2 4 -4.5 6.5t-2.5 7.5q0 3 1 4q18 4 33.5 11.5t31 17t30.5 19.5t31 19q26 14 48 32t42 38t39.5 41.5t40.5 42.5q-11 8 -25 8t-28 4q-12 4 -27 5.5t-30 1.5t-28.5 -3t-22.5 -12q5 -9 13.5 -10.5t17.5 -2t16 -2.5t9 -12q-12 -5 -21 -5q-20 0 -37.5 13t-35.5 21
q-2 6 -2 9q0 6 3 10.5t9 4.5q15 5 29 7t28 2q17 0 35.5 -2.5t37 -5.5t35 -5.5t28.5 -1.5l16 1q39 40 64.5 90.5t25.5 107.5q0 22 -4 41q-5 23 -18.5 45t-37.5 32q-26 11 -54.5 19.5t-58.5 8.5q-6 0 -12.5 -0.5t-12.5 -1.5q-13 5 -32 5q-16 0 -32 -3q-25 -9 -52.5 -13.5
t-54.5 -11t-52 -17t-46 -31.5q-28 -14 -50.5 -40.5t-31.5 -55.5l-1 -9q0 -17 8 -30.5t19 -25.5q9 0 14.5 -8t12.5 -13l55 -11q25 21 50.5 44.5t53 43t58.5 32.5t66 13h14t15 -2q8 -5 16.5 -10.5t11.5 -15.5q-2 -11 -9 -19.5t-15 -16t-17 -14.5t-15 -16q-42 -29 -89 -47
t-99 -15l-32 2q-13 -17 -27 -31.5t-16 -34.5q-5 -3 -12 -3q-3 7 -3 13q0 15 12 28t15 29q-9 6 -19 9.5t-19.5 7.5t-19 9t-16.5 14q-12 16 -24 33t-12 37q0 11 4 19q10 31 29 54.5t43 41.5t52 31t55 24q45 6 88 18t89 12q18 0 36 -3q44 0 81.5 -14t72.5 -37l19 -26
q14 -18 19 -39t5 -43q0 -39 -13.5 -78t-29.5 -71l-42 -52q0 -8 5 -12h32q23 0 45 3.5t37 20.5q15 22 30 46t32 46t37 41t44 30q13 15 29.5 22.5t34.5 7.5h6.5t6.5 -1q8 -9 9 -22t1 -24zM672 354q0 8 -1 12q-31 -8 -55.5 -27t-50.5 -38q-14 -21 -33.5 -42t-30.5 -45
q-1 -8 -8 -12.5t-7 -10.5q0 -2 1 -4q32 9 60.5 24.5t56.5 34.5q24 22 46 48.5t22 59.5zM227 351q0 11 -5 14t-13 3q-10 0 -21.5 -2.5t-19.5 -2.5q-50 -8 -88 -37t-76 -67h13q37 0 61.5 4.5t42.5 17.5q16 1 30 9t26.5 19t24.5 22.5t25 19.5z" />
    <glyph glyph-name="I" unicode="I" horiz-adv-x="296" 
d="M586 491q-1 -15 -8.5 -24.5t-17.5 -18t-19.5 -17.5t-15.5 -22q-40 -31 -75 -69t-62 -83q-38 -37 -74 -77.5t-74 -79t-80 -71t-92 -53.5q-42 -29 -91 -41t-97 -24l-46 16q-7 12 -15.5 26.5t-8.5 29.5q0 14 9 23q51 66 119 102t145 47q4 -2 7.5 -5t3.5 -7q0 -2 -3 -5
q-17 -9 -36.5 -9t-36.5 -6q-55 -19 -104.5 -50t-82.5 -80q-3 -8 -3 -16q0 -13 6.5 -24t17.5 -18q15 -6 30 -6q25 0 49 11.5t50 15.5q92 37 177.5 99.5t149.5 148.5q20 27 46.5 51t40.5 54q-17 -2 -34 -10.5t-32 -8.5q-8 0 -15 3.5t-12 13.5q8 39 27.5 73.5t42.5 69.5
q-4 20 -9 39.5t-26 30.5q-32 8 -60 8q-48 0 -92 -16t-82 -39q-52 -17 -95 -57.5t-63 -90.5q1 -8 2 -17.5t4 -17.5t8.5 -14.5t15.5 -9.5q29 1 57.5 5.5t54.5 15t48 27.5t39 43q0 8 -6 11t-9 9q-4 2 -8 3t-10 1q-2 0 -4 -0.5t-4 -0.5l-29 -11q-3 -2 -6.5 -2t-6.5 -1
q-4 -1 -8 -1v3q0 10 12 16.5t21 10.5q5 2 9 3t9 1q17 0 31.5 -9.5t25.5 -20.5l1 -8q0 -19 -13.5 -34.5t-28.5 -27.5q-32 -17 -70.5 -32.5t-77.5 -15.5q-14 0 -27.5 2.5t-26.5 8.5q-19 30 -19 61q0 8 1 17t6 17q13 26 33.5 47t44 38.5t49.5 31.5t51 26q37 17 79 30t86 13
q37 0 70 -10l20 -13q10 -14 16 -30t6 -33v-6.5t-1 -6.5q-20 -31 -37.5 -63t-26.5 -68q31 2 54.5 17.5t49.5 32.5q39 25 77.5 63t69.5 74q2 -2 6 -2t4 -4z" />
    <glyph glyph-name="J" unicode="J" horiz-adv-x="295" 
d="M658 592q-14 -38 -40 -68.5t-60 -53.5q-35 -24 -74 -45t-81 -34q-21 -14 -36.5 -32t-28.5 -38t-25 -40.5t-27 -39.5q-28 -35 -50.5 -74.5t-44 -80.5t-45 -81t-52.5 -74l5 -4q33 1 69 3.5t73 2.5q34 0 66.5 -4t61 -16t51 -33t37.5 -55v-2q0 -23 -15.5 -41t-35.5 -27
q-25 -19 -58 -29.5t-65 -10.5q-17 0 -32 3v3q0 11 5 14t13 3l32 -3q12 0 18 5q35 4 68.5 20t50.5 54q0 20 -10.5 34.5t-25.5 25t-32 18t-32 13.5q-31 5 -63 7.5t-65 2.5t-65 -2.5t-63 -7.5q-23 -12 -35 -32.5t-25 -39.5q-29 -35 -69 -66.5t-74 -67.5q-31 -18 -61 -39.5
t-61.5 -40t-65.5 -31.5t-72 -15q-9 -1 -18.5 -5t-19.5 -4q-7 0 -14 4q-28 18 -28 55q1 36 19 62.5t44.5 47t57 36.5t56.5 33q60 29 123 51t126 43q15 10 34 12t37 5t33 11.5t21 29.5q32 35 56.5 82t45.5 88q15 30 34.5 58.5l39 57t38 57t33.5 59.5q-26 -2 -50 -9t-47 -16
t-46 -19t-47 -17q-32 -14 -60.5 -31.5t-46.5 -48.5q-1 -3 -1 -8q0 -9 7 -16t15 -11q5 -1 9 -1h8q32 0 59.5 12t54.5 24h10q5 0 9.5 -1t8.5 -4q-1 -5 -5 -7.5t-9.5 -4t-11.5 -2.5t-10 -4l-9 -4q-24 -11 -48.5 -18.5t-53.5 -7.5h-10.5t-10.5 1q-13 8 -20 19t-11 24q6 27 22 45
t37.5 31.5t45.5 24t44 20.5q52 20 104 36t103 34q28 34 55.5 68.5t57.5 66t63.5 59t72.5 46.5q8 -2 12.5 -7t7.5 -11.5t5.5 -13.5t6.5 -13zM626 608q-24 -5 -43.5 -19t-37 -32t-35 -37t-36.5 -33q-2 -10 -9 -17.5t-15 -14.5t-14.5 -14.5t-7.5 -17.5q30 13 61.5 29t59.5 37
t50.5 47t34.5 59zM38 -108q-16 -2 -32.5 -5.5t-32.5 -6.5q-21 -11 -43 -18.5t-44.5 -13.5t-44.5 -13t-43 -16q-22 -17 -46 -27.5t-48 -20t-47.5 -22t-42.5 -31.5l-4 -4q-19 -19 -35.5 -42t-16.5 -49q0 -13 6 -26q11 -12 27 -12q13 0 26.5 5t25.5 7q28 1 50.5 11t43.5 24
t42.5 28t45.5 22l22 18q54 44 103.5 89t87.5 103z" />
    <glyph glyph-name="K" unicode="K" horiz-adv-x="685" 
d="M779 484q0 -16 -7 -27q-7 -23 -8.5 -45t-17.5 -42q-3 -23 -15.5 -43t-30 -37.5t-36.5 -33t-36 -28.5q-55 -43 -118 -76t-130 -53l-16 -12q23 -30 51 -54t58 -45q36 -12 75 -12q38 0 74 12.5t62 40.5q1 -1 3 -1q3 0 5.5 1.5t4.5 1.5t4 -5q-1 -1 -1 -4q0 -4 1.5 -7.5
t1.5 -6.5q0 -4 -7 -5q-2 1 -5 1q-6 0 -10 -5.5t-6 -10.5q-29 -14 -62.5 -24.5t-68.5 -10.5q-29 0 -56 9q-13 1 -23 6.5t-19 12t-18 13.5t-20 11q-11 18 -29.5 33.5t-35.5 29.5q-31 -35 -63.5 -62t-61.5 -64q-27 -29 -62 -56.5t-73 -40.5q-10 1 -12 6t-2 13v8q0 5 -0.5 9
t-2.5 7q7 27 25.5 48.5t42 39.5t49 33.5t47.5 30.5q23 13 45 26.5t45 24.5q-3 9 -10 15.5t-15.5 11t-17.5 8.5t-16 9q-11 2 -23.5 5t-23.5 3q-10 0 -14 -2q-2 -2 -2 -7v-8q4 -8 10 -12t12.5 -7t12.5 -6.5t9 -9.5l-7 -1q-16 0 -29 11.5t-27 20.5l-1 5q0 7 4.5 12.5t6.5 12.5
q12 12 32 12q16 0 31.5 -5.5t29.5 -8.5q9 -3 16.5 -10l15 -14t15 -13t16.5 -8q12 14 21.5 29.5t18 32t18 32t23.5 29.5q9 18 20 38t21 41t17 42t7 42q0 15 -4 30t-15 30q-9 23 -30.5 39t-38.5 30q-30 9 -63 16t-66 7q-36 0 -67 -10l-10 1q-14 0 -27 -4t-26 -9l-26 -10
t-26 -8q-38 -13 -76 -30.5t-73 -40t-64.5 -51.5t-50.5 -65q-10 -19 -10 -38q0 -15 3 -30t5 -31q8 -11 14.5 -24.5t20.5 -22.5q48 -29 104 -29q51 0 101 19t90 46q4 9 12 16.5t15 14.5t12.5 14.5t5.5 17.5q0 6 -1 9l-3 4q-10 11 -21 20t-25 9q-9 0 -17 -4q-19 -9 -39 -13.5
t-40 -9.5q-7 0 -7 10v4q10 5 20.5 7.5t21.5 4.5t21 6t19 12q5 1 10 1.5t10 0.5q12 0 24 -3t21 -11q11 -10 19.5 -22.5t8.5 -27.5q0 -9 -2 -14q-10 -12 -19.5 -25t-20 -25t-23 -21t-28.5 -12q-33 -24 -73.5 -35t-83.5 -11q-22 0 -44 3q-14 5 -28 9t-27 10t-24.5 14.5
t-19.5 21.5q-14 19 -22 44t-8 51q0 31 12 58q23 36 53 64t64.5 50t71.5 39.5t73 33.5q50 14 105 27.5t111 13.5q33 0 65 -6.5t62 -22.5q32 -11 52.5 -38.5t34.5 -56.5q8 -17 8 -39q0 -11 -1 -21t-3 -20l-10 -28l-10 -28q-8 -24 -20.5 -45t-26.5 -42t-27.5 -41.5t-23.5 -42.5
v-1q0 -2 1.5 -3t2.5 -3q57 18 118 48.5t113.5 73.5t89 97.5t42.5 122.5q3 9 3 18q0 14 -3.5 26.5t-3.5 24.5v6h21l-1 -8q0 -11 3 -23.5t3 -25.5zM298 56q-53 -32 -103.5 -62.5t-96.5 -77.5q-4 -8 -8.5 -16.5t-4.5 -16.5q0 -9 5 -14q18 6 34 19t33 21q38 35 73.5 73.5
t69.5 70.5z" />
    <glyph glyph-name="L" unicode="L" horiz-adv-x="574" 
d="M665 439q0 -24 -6 -47t-20 -40q-38 -46 -82.5 -77.5t-92.5 -60.5q-33 -9 -65 -22t-70 -13h-8t-9 1q-11 8 -15 18.5t-4 21.5q0 10 3 21q4 11 12 18.5t17.5 13.5t19.5 11t19 12h14q-3 -12 -12 -18t-19 -11t-19.5 -11.5t-13.5 -18.5q1 -2 1 -6l-1 -14q0 -10 7 -13
q86 4 158.5 42.5t132.5 100.5q20 17 28.5 40t8.5 49q0 12 -2 24t-5 23q-16 32 -41.5 44t-56.5 12l-10 1l-103 -6q-23 -9 -46.5 -17.5t-45.5 -19.5t-42 -25.5t-36 -35.5q-24 -17 -40.5 -38.5t-30.5 -44.5t-27 -46.5t-31 -45.5q-11 -30 -27.5 -57t-30.5 -54
q-28 -52 -55 -104.5t-56 -103.5l6 -5q26 0 50.5 4.5t49.5 9.5t49.5 9t50.5 4q19 0 40 -3q43 4 89 4t90.5 3.5t85.5 15.5t74 40q6 0 8.5 -3t3.5 -7t2 -8.5t3 -7.5q-9 0 -15.5 -4t-12 -9.5t-11.5 -9.5t-14 -4q-5 0 -8 1q-38 -17 -77 -21t-81 -4h-68q-25 0 -49 -1t-48 -6
q-7 1 -14 1.5t-14 0.5q-41 0 -79.5 -8.5t-77.5 -10.5q-13 -6 -27.5 -9t-28.5 -7q-34 -46 -77.5 -81t-95.5 -55q-6 -1 -12.5 -2t-13.5 -1q-18 0 -28 11q-2 5 -5.5 10.5t-3.5 11.5t5 10q16 31 42 48.5t55.5 29t61 19.5t60.5 20q22 31 40 63t35 65t34 65.5t37 63.5q22 46 48 94
t58 92.5t71 82t88 62.5q38 20 83.5 31t93.5 11q58 0 108 -19q14 -9 17.5 -21.5t14.5 -22.5q9 -27 9 -56zM-100 -104q-23 -2 -46 -14t-48 -19q-8 -4 -16 -9.5t-16 -7.5q-5 -5 -12 -9.5t-14 -9.5t-11.5 -10.5t-4.5 -12.5q0 -5 3 -11h5q24 0 46 10t41.5 25t37.5 33z" />
    <glyph glyph-name="M" unicode="M" horiz-adv-x="580" 
d="M830 359q0 -11 -9 -17t-19 -12q-25 -10 -48 -25t-44.5 -32.5t-42.5 -36.5t-43 -37q-35 -28 -64.5 -61.5t-64.5 -67.5q-16 -27 -36 -54.5t-38 -57t-30.5 -60t-12.5 -63.5q0 -20 5.5 -40.5t18.5 -42.5q14 -25 39 -38t51 -22q0 -8 -6 -11.5t-11 -5.5q-14 8 -29 11t-27 15
l-4 4q-14 14 -27 31.5t-19 37.5q-14 34 -14 68q0 36 14.5 68.5t35.5 63t45 60t44 60.5q19 25 40.5 46t43.5 41.5t44.5 40.5t44.5 43h-14q-42 -17 -80.5 -42t-75.5 -53l-74 -56t-76 -51q-20 -12 -37 -28.5t-32 -33.5t-30.5 -33.5t-32.5 -29.5q-6 7 -6 14q0 12 12 23.5
t17 22.5l163 171q-3 5 -8 5t-9.5 -3t-8.5 -4q-42 -29 -84.5 -55t-84.5 -53.5t-83 -58t-79 -67.5l-96 -94q-2 -2 -8 -2q-11 0 -13 -1l-1 6q0 9 5.5 14.5t12.5 10t14.5 9.5t12.5 12q54 55 109 103t105 107q33 40 67 79.5t59 82.5q30 38 48.5 79t18.5 90v11q0 32 -14.5 62
t-40.5 51q-54 28 -121 28q-32 0 -67 -8q-49 -17 -96 -37t-94 -44q-14 -17 -32 -32.5t-36 -32.5t-32 -36.5t-18 -43.5q-3 -14 -5.5 -29t-2.5 -31q0 -28 7 -55t26 -47q17 -18 39.5 -28t47.5 -10q14 0 32 5q57 9 104 46t75 88q1 3 1 7q0 10 -4 17.5t-6 17.5q-3 4 -7 6.5t-8.5 5
t-7.5 5.5t-3 8v3q4 7 10 7t11.5 -8t13.5 -8q6 -11 13.5 -23t7.5 -25q0 -7 -3 -13q1 -2 1 -7q0 -13 -10.5 -23.5t-14.5 -23.5q-17 -17 -35 -34t-38 -30.5t-42.5 -21.5t-47.5 -8q-13 -3 -26 -5t-27 -2q-17 0 -33.5 4t-30.5 15q-19 14 -30 34t-24 38q-6 17 -8.5 35.5t-2.5 36.5
q0 40 13 76.5t40 65.5q14 9 27 19.5t20 24.5q51 37 105 63.5t113 44.5q23 8 47.5 10.5t50.5 2.5q48 0 92.5 -17t70.5 -60q12 -20 17 -43.5t5 -47.5q0 -13 -1.5 -26t-3.5 -25q-11 -24 -17.5 -50t-23.5 -46q-6 -11 -13.5 -22.5t-17.5 -21.5q-20 -36 -48.5 -68.5t-54.5 -65.5
v-9h12q34 25 70.5 46.5t74 41t75.5 38.5t75 40q9 0 11 -7q-6 -12 -16 -20t-21.5 -14.5l-23 -13t-21.5 -15.5q-12 -6 -21 -15.5t-17.5 -20t-17 -20.5t-19.5 -17l5 -5q82 59 166 110.5t174 93.5q24 14 49.5 26.5t52.5 20.5q2 -6 2 -9z" />
    <glyph glyph-name="N" unicode="N" horiz-adv-x="619" 
d="M1013 546q0 -10 -9 -11t-15 -7q-47 -19 -90.5 -46t-84.5 -59q-51 -41 -106.5 -90.5t-95.5 -106.5q-14 -14 -24.5 -30.5t-20 -33.5t-20.5 -33.5t-26 -30.5q-11 -26 -27.5 -51t-25.5 -52q-6 -28 -14 -58.5t-8 -61.5v-4q-5 -2 -8 -5t-7 -3l-3 1q-5 10 -5 24l5 51
q5 56 10 113t7 113q1 4 2.5 7.5t1.5 7.5q0 3 -1 5l-3 4q-45 -42 -97 -88t-102 -80q-69 -57 -146 -93.5t-165 -36.5h-13.5t-13.5 1q-15 6 -31 14.5t-30 19.5t-24.5 25t-14.5 32v6q0 17 -2.5 32.5t-2.5 30.5q0 11 2 21t9 21q5 40 21.5 75t40 67.5t50 62.5t52.5 59
q13 8 25.5 18t23.5 22q18 9 36 20t36.5 20.5t38 15.5t40.5 6h7l2 -2q7 10 16 10q7 0 14 -2.5t15 -2.5h2q32 -12 53.5 -37t34.5 -54q-5 -16 -4.5 -34t-0.5 -34.5t-7.5 -30t-24.5 -21.5q-4 5 -4 11q0 11 9.5 20.5t9.5 22.5l-1 5q1 9 2 18.5t1 19.5q0 14 -3 26.5t-12 22.5
q-2 9 -8 15t-13.5 10t-16 7.5t-15.5 9.5q-18 6 -35 6q-32 0 -62.5 -13.5t-59.5 -25.5q-58 -34 -104.5 -84t-88.5 -99v-4q0 -10 -9.5 -15.5t-11.5 -15.5q-5 -19 -12 -37t-13.5 -37t-11.5 -38t-5 -39q0 -22 7 -43q1 -13 8 -23t16.5 -19t19 -17t17.5 -16q14 -8 27.5 -11
t27.5 -3q32 0 63 10t61 15q13 11 28.5 18.5t31.5 14t31 15t28 21.5q67 45 128 97t118 109q5 9 12.5 17.5t14 17.5t11.5 19t5 22q0 5 -2 15q3 11 7.5 20t4.5 20q12 29 21 58t23 56q7 18 19 33.5t33 20.5q10 -2 17 -9t9 -16q-3 -36 -17.5 -66.5t-28.5 -62.5q-9 -20 -24 -39
t-29.5 -38t-25 -40t-11.5 -45q-6 -19 -8 -38t-2.5 -38.5t-1.5 -39t-6 -38.5l4 -5q38 72 88.5 142.5t110.5 134.5t128 119.5t141 97.5q19 11 39 19t39 20h1q6 0 7 -5t1 -11v-1v0zM577 477q-17 -14 -24.5 -33.5t-19.5 -36.5q-2 -23 -12.5 -44t-10.5 -42v-5q26 36 47.5 75
t28.5 84z" />
    <glyph glyph-name="O" unicode="O" horiz-adv-x="371" 
d="M400 322q0 -42 -11.5 -82.5t-31.5 -77.5t-46.5 -70.5t-55.5 -63.5q-30 -23 -61.5 -48t-64 -46.5t-67.5 -35.5t-73 -14q-16 0 -31.5 2.5t-32.5 8.5q-12 4 -18.5 15t-16.5 17q-6 28 -6 56q0 53 20.5 101.5t54.5 90.5q-17 12 -33.5 25.5t-30 29.5t-22 35t-8.5 40v8
q0 37 14.5 68.5t37.5 57.5t53 46t60 32q29 12 58.5 23t61.5 11q17 0 32 -4q33 -3 64.5 -15t58.5 -31t49 -44.5t35 -56.5q11 -41 11 -78zM377 286q-2 20 -2 40t-2.5 39.5t-9 37t-21.5 32.5q-17 26 -44.5 46t-56.5 28q-39 18 -79 18q-46 0 -90.5 -17.5t-82.5 -39.5
q-18 -14 -36.5 -29.5t-33.5 -34t-24 -40t-9 -45.5q0 -13 3 -26q5 -20 15.5 -34.5t20.5 -31.5q10 -5 21 -17t26 -13q38 48 84 83t99 60q3 3 7 3q5 0 10.5 -4t8.5 -8q-26 -14 -53 -29.5t-51.5 -34t-45.5 -40t-36 -48.5q17 -8 34.5 -12.5t34.5 -7.5q20 5 40 6.5t39.5 3.5t38 7
t35.5 18v3q0 6 3 9t7.5 5.5t8 4.5t5.5 7q9 -6 19 -13t15 -16q-28 -10 -52 -26t-52 -23q-22 -5 -45 -7.5t-46 -2.5q-28 0 -55 5t-51 16q-30 -38 -48.5 -82t-18.5 -94q0 -7 0.5 -14t1.5 -15q0 -17 12.5 -24t22.5 -18q16 -3 34 -3q34 0 66 10t61.5 26t57 36.5t53.5 42.5l20 22
q24 26 48 53.5t43.5 57t33 62t16.5 68.5z" />
    <glyph glyph-name="P" unicode="P" horiz-adv-x="411" 
d="M653 525q0 -5 -0.5 -9t-1.5 -9v-4q0 -17 -5 -32t-11.5 -29.5l-13 -29t-9.5 -30.5q-2 -10 -8 -17t-13 -14t-12.5 -14.5t-5.5 -17.5q-32 -42 -71.5 -76t-88.5 -55q-11 -3 -21 -9l-20 -12t-20.5 -10.5t-22.5 -4.5q-9 0 -18 3q-5 -1 -9 -1.5t-8 -0.5q-20 0 -38 12
q-8 10 -17 20t-9 23q0 4 1 7q17 60 58.5 108.5t95.5 73.5q16 16 37.5 22t43.5 4l18 -1h1q8 0 10 -5.5t4 -10.5q-5 -7 -9.5 -9t-9.5 -2l-19 2q-9 0 -18 -5q-8 3 -15 3q-12 0 -22 -6t-19 -14.5t-18.5 -16t-21.5 -10.5q-23 -20 -43.5 -42t-32.5 -51q-18 -21 -18 -45l1 -9
q1 -10 7 -18.5t17 -10.5q15 -4 31 -4q23 0 43 8.5t39.5 19.5t38.5 23t40 19q7 12 17 18.5t19 14.5q25 28 47.5 59.5t39.5 66t27 70.5t10 74q0 24 -4 44q-6 6 -10 16t-15 10q-16 8 -29 11.5t-26 3.5q-14 0 -28.5 -2.5t-34.5 -7.5l-16 -6q-25 -9 -47.5 -19t-44.5 -23.5
t-45 -32t-48 -46.5q-17 -15 -35.5 -37.5t-36 -47t-33.5 -49t-28 -44.5q-6 -14 -5 -26l3 -49q2 -23 -1 -46t-8 -44q0 -27 -3.5 -54t-17.5 -50q-8 -26 -14.5 -52.5t-14.5 -53.5q-11 -17 -20 -35.5t-20 -34.5t-26 -27.5t-38 -13.5h-2q-9 0 -12.5 6t-6 14t-4.5 16.5t-7 13.5v4
q0 112 36 208.5t102 187.5q11 7 15.5 17.5t4.5 22.5q0 13 -3 25.5t-7 22.5q-21 39 -40.5 80t-48.5 75q-2 11 -8.5 17t-13.5 11.5t-13 11.5t-7 17q-15 5 -28 14.5t-26.5 19t-28.5 16.5t-32 7q-28 10 -55 10q-19 0 -39 -5q-1 -5 -6 -10t-5 -10q0 -3 4 -6q14 -8 28 -12.5
t28 -4.5q9 0 14 1q2 -6 2 -8q0 -9 -7 -13q-9 -3 -17 -3q-17 0 -30.5 7.5t-27.5 12.5q-7 11 -16 18t-9 22v2q17 20 38 27.5t45 7.5h9q28 -9 56 -16.5t55 -20.5q34 -12 57 -37.5t46 -48.5q1 -7 5.5 -11.5t9.5 -8t9.5 -8.5t4.5 -12v-2q10 -11 16.5 -24.5t12.5 -27.5t13 -27.5
t18 -24.5q8 -14 11 -30t14 -28q33 51 70.5 103t76.5 90q28 26 54 44t53.5 31t57.5 23t67 21q5 1 10 1h10q45 0 72.5 -19.5t38.5 -39.5v-10q0 -17 2.5 -31t2.5 -29zM116 265q-16 -18 -27.5 -34.5t-21.5 -34.5t-19 -38.5t-21 -44.5q-15 -45 -30 -89t-22 -95v-37
q0 -13 1.5 -24.5t8.5 -17.5q15 1 26 12.5t20 27.5t17 34t17 34q28 70 39.5 137.5t11.5 140.5v29z" />
    <glyph glyph-name="Q" unicode="Q" horiz-adv-x="390" 
d="M537 466q0 -14 -5 -29q-11 -19 -27.5 -37.5t-37.5 -21.5q-8 -10 -21 -10q-4 0 -10 2q-6 8 -6 12q0 3 2 5q32 0 54 24t32 52q-3 25 -12.5 50t-35.5 39q-20 11 -42 15.5t-45 4.5q-37 0 -71.5 -11t-63.5 -28q-35 -11 -66 -32.5t-62 -40.5q-25 -27 -50 -56.5t-46.5 -61
t-37.5 -66t-22 -71.5q-3 -15 -3 -28q0 -20 5.5 -36.5t13.5 -34.5q20 -22 43.5 -40.5t53.5 -18.5q13 0 25 4q13 4 21.5 12.5t15 19.5t12 22.5t12.5 21.5q18 21 36.5 44t39.5 44t45 36t52 19q11 -2 23 -3.5t17 -14.5q6 -11 6 -21q0 -18 -12 -33t-20 -30q-46 -39 -95 -73.5
t-106 -51.5q-15 -11 -24.5 -25t-16 -29.5t-11 -32t-9.5 -32.5l7 -5l189 -2q13 -7 27 -12.5t25 -15.5q-1 -13 -8 -21.5t-16 -16.5q-1 -1 -1.5 -2t-3.5 -1q-5 0 -8.5 5t-3.5 10q-2 4 -2 5q0 5 4.5 7.5t4.5 7.5q0 3 -1 4q-6 3 -17.5 6t-25 4.5t-28.5 2.5t-28 1q-10 0 -18 -1
t-14 -1l-50 -2h-15t-15 1q-12 -6 -17.5 -16t-9 -22t-6 -25t-7.5 -24v-7q0 -15 -5.5 -28.5t-5.5 -27.5q0 -3 0.5 -5.5t1.5 -5.5q-2 -17 -3 -33t-1 -32q0 -37 8 -71t28 -65q11 5 14 17t9 22q6 19 6 41t-6.5 42.5t-19.5 35.5v4q0 12 8 17h21q-1 -4 -1 -11q0 -24 11 -46t11 -45
q0 -20 -12 -36q-4 -20 -9.5 -39.5t-16.5 -36.5h-3q-7 0 -12 4t-8.5 9.5t-7 11.5t-8.5 10q-18 36 -26 75t-8 80q0 45 8.5 89.5t22.5 86.5q-1 2 -1 4q0 5 2 8t2 6t-5 6q-6 2 -13 2h-14l-75 -4q-26 -2 -46 8.5t-28 42.5q7 1 13.5 6t12.5 5q4 0 7 -3l1 -2q0 -3 -2 -5t-3 -4
q-2 -4 -2 -5q0 -7 9 -9.5t13 -8.5q5 0 17 -0.5t25 -1.5t25.5 -2t18.5 -1h3q16 0 30.5 2.5t27.5 10.5q9 26 18.5 51t14.5 52l-12 -1q-40 -3 -71.5 21.5t-54.5 54.5q-11 17 -15 34.5t-4 35.5q0 33 10 67t18 63q18 29 40 56.5t41 56.5q50 56 111.5 96t128.5 63q30 15 66 15h8
t8 -1q6 1 12 1.5t12 0.5q29 0 56.5 -11t51.5 -29l14 -23q9 -11 14.5 -26.5t5.5 -32.5zM357 240l-4 4q-28 0 -50.5 -11.5t-41 -28.5t-35.5 -37.5t-33 -39.5q-10 -14 -21 -29t-14 -29q38 11 70.5 33.5t66.5 45.5q8 10 18.5 20t20.5 20t16.5 21.5t6.5 25.5v5z" />
    <glyph glyph-name="R" unicode="R" horiz-adv-x="653" 
d="M774 -129q0 -4 -5 -6t-9 -6q-25 -7 -55 -7q-35 0 -69 8.5t-64 22.5q-28 18 -51.5 43t-45 53t-43 56.5t-46.5 51.5q-11 8 -22 8q-8 0 -20 -5q-6 -2 -7 -5.5t-1.5 -8t-2 -7.5t-7.5 -3q-30 -59 -74 -104.5t-90 -92.5q-20 -11 -35 -25t-33 -24q-8 -10 -18 -17t-21 -13
t-22 -12.5t-21 -14.5q-16 -3 -31 -9t-30.5 -12t-31.5 -10t-33 -4q-6 4 -13.5 4.5t-14 1.5t-12.5 3.5t-10 10.5q5 33 29.5 59t48.5 46l3 9q7 -6 17.5 -6.5t14.5 -10.5q-3 -8 -13 -9.5t-18 -8.5q-14 -16 -32 -32t-24 -36l8 -7q57 0 108 20t95 55q52 42 99.5 82.5t84.5 92.5
q17 17 30.5 39.5t27.5 42.5l-6 6q-27 2 -56 1.5t-56 3.5t-50 15.5t-37 37.5q0 12 6 19.5t15 12t18.5 9t16.5 10.5h16q51 0 95 -15q8 -7 17.5 -11l19 -8t18 -9t15.5 -13q13 15 23.5 33t19 36.5t16.5 38t18 37.5q7 14 10 30t3.5 32.5t1 33.5t2.5 33q2 3 5 4t6 3l4 -6v-3l1 -3
q1 -7 1 -13v-13q0 -65 -25 -124.5t-55 -116.5l-10 -19q7 -5 17 -5q5 0 10.5 1t10.5 3q60 13 116 39.5t98 78.5l6 6q16 16 28.5 34t14.5 41q7 4 9.5 8.5t3 10t1.5 10.5t6 10q-3 20 -9 39t-11 39q-9 8 -15 19t-13 21.5t-15.5 19.5t-21.5 14q-35 29 -72 52q-38 18 -77 30.5
t-81 22.5q-35 5 -68.5 8.5t-68.5 3.5q-16 0 -31.5 -1t-31.5 -3q-16 -8 -33 -13t-34 -10.5t-33.5 -12.5t-30.5 -19q-18 -5 -33 -14.5t-28.5 -22.5t-25.5 -27t-24 -27q-11 -19 -18 -43.5t-7 -50.5q0 -28 10 -51q9 -22 24 -39t34.5 -29t41.5 -19.5t44 -10.5q35 1 67.5 12.5
t61.5 30t54.5 42t46.5 48.5q3 12 7 24.5t4 25.5q0 11 -4 19h-3q-30 0 -53 -13.5t-43 -32.5q-1 -2 -5 -2q-9 0 -11 10q8 14 22.5 25t28.5 22q14 8 30.5 11t32.5 3h7q13 -4 18 -14.5t8 -20.5v-3q0 -28 -12.5 -55t-34.5 -44q-4 -5 -5.5 -11.5t-9.5 -6.5q-48 -39 -98.5 -65
t-110.5 -23l-19 1q-41 7 -78.5 34t-59.5 62q-5 20 -9 43t-4 46q0 26 7 50.5t25 41.5q24 39 56 63.5t68.5 41t75.5 27t77 21.5q14 1 27.5 1h27.5q60 0 117 -8.5t108 -33.5q18 -3 33 -12t32 -12q20 -12 41.5 -25.5t40.5 -29t34.5 -34.5t24.5 -42q8 -16 15 -31.5t11 -35.5
q3 -8 3 -15q0 -17 -8 -32t-12 -30q-26 -45 -59 -86.5t-82 -64.5q-11 -11 -23 -17.5t-25.5 -11l-27 -9t-26.5 -10.5q-5 -3 -12.5 -3t-14.5 -0.5t-11.5 -2.5t-4.5 -9l1 -5q25 -24 42.5 -48.5t43.5 -44.5q3 -14 11.5 -25.5t19 -22t22 -19.5t20.5 -19q30 -14 62.5 -28t67.5 -14
q20 0 40 7q4 9 10 9q5 0 11.5 -5t12.5 -7q3 -3 3 -5zM333 125q-31 18 -63.5 34t-70.5 16q-11 0 -21 -1t-21 -5q-2 -4 -6 -6l-8 -4t-7 -4.5t-3 -7.5l1 -4q26 -20 58 -26t67 -6q17 0 34.5 0.5t34.5 1.5q4 2 4.5 4.5t0.5 7.5z" />
    <glyph glyph-name="S" unicode="S" horiz-adv-x="470" 
d="M594 669q0 -13 -4.5 -24.5t-10.5 -23t-11 -23.5t-6 -25q-15 -27 -30 -56t-31.5 -56.5t-37 -52.5t-46.5 -45q-23 -35 -52.5 -60t-55.5 -54q3 -27 8.5 -53.5t10.5 -52.5q8 -16 12 -32.5t6.5 -33l5 -33t7.5 -32.5v-50v-9t-1 -9q26 -12 52 -26t50 -35q0 -9 6 -15t13.5 -11.5
t13.5 -10t6 -10.5q0 -8 -12 -17q-6 0 -10.5 6.5t-9.5 6.5q-4 0 -7 -4v1q0 14 -6.5 25t-16.5 20t-22 17t-22 15l-6 4q-9 2 -16.5 4.5t-16.5 3.5q-11 -14 -16 -29.5t-15 -29.5q-32 -50 -75.5 -84.5t-92.5 -60.5q-29 -5 -59.5 -14t-60.5 -9q-15 0 -29.5 3.5t-28.5 12.5
q-16 0 -26 12t-20 21q-3 9 -3 19q0 13 4 25t10 23q34 34 72.5 56.5t80 38t85 26t87.5 20.5l44 -3q10 -1 18 2.5t11 12.5l1 14q1 18 -1.5 35t-6.5 33.5t-7.5 33t-4.5 33.5q-14 29 -19.5 61.5t-10.5 65.5q-13 0 -24.5 -9t-22.5 -17q-12 -17 -26.5 -27t-29 -18.5l-29 -17
t-27.5 -21.5q-89 -57 -172 -119t-170 -124l-15 -13q-23 -20 -47.5 -41.5t-44.5 -46t-32.5 -51t-9.5 -56.5l1 -12q6 -14 14.5 -27t20.5 -20q10 -3 21 -3q17 0 31 6t28 14l7 4q6 8 12 15.5t6 18.5v4q-1 4 -6 4h-6q-5 0 -6 2v17q6 3 12 3q9 0 15.5 -6t13.5 -13l1 -1q1 -4 1 -11
q0 -10 -4.5 -18.5t-11.5 -15.5t-14 -13.5t-13 -13.5q-11 -11 -24.5 -13.5t-28.5 -3.5l-40 2q-23 16 -35.5 39.5t-12.5 49.5v9.5t1 9.5q7 34 26 63t44.5 55t54.5 50t55 48q100 69 199.5 141.5t200.5 139.5q9 13 20 21.5t22.5 16t22 15.5t19.5 20v46q0 37 3.5 73t19.5 68
q6 15 11 30t12 29t17 27t24 23q6 14 17 26.5t23 23.5t24.5 22.5t21.5 23.5q14 19 37.5 32t46.5 13q14 0 26 -5.5t21 -18.5q2 -5 2 -8.5v-7.5zM572 665q0 7 -1 11l-5 5q-10 2 -15 2q-21 0 -39.5 -11.5t-31.5 -25.5q-44 -36 -81.5 -80t-61.5 -94q-4 -26 -15 -49.5t-11 -49.5
v-4q0 -11 -1 -22t-1 -22t1.5 -20.5t6.5 -17.5q70 67 128.5 136.5t96.5 152.5v3q0 12 4.5 22t10.5 20t10.5 20.5t4.5 23.5zM323 -76q-36 -2 -75.5 -3.5t-71.5 -16.5q-14 0 -26 -4t-24 -9.5t-24 -10.5t-25 -6q-20 -11 -41.5 -21.5t-40.5 -24t-33 -31.5t-17 -43q7 -14 17.5 -21
t23 -11.5t26 -6.5t26.5 -5q24 6 49 10.5t49 11.5t46.5 19t40.5 33q37 22 65.5 60.5t34.5 79.5z" />
    <glyph glyph-name="T" unicode="T" horiz-adv-x="409" 
d="M1030 561q-3 -18 -13 -25.5t-23 -11t-26.5 -6.5t-23.5 -12l-8 -1q-38 -5 -77.5 -11.5t-78.5 -6.5q-25 0 -49 3q-18 7 -38 13t-41 6q-16 0 -29 -4q-26 -17 -51.5 -37.5t-48.5 -40.5q-12 -23 -26.5 -45t-29.5 -43.5t-28.5 -43.5t-23.5 -46q-28 -45 -52.5 -92t-55.5 -90
q-7 -23 -19 -42t-25.5 -37.5t-26.5 -38t-22 -41.5q-35 -54 -76.5 -96.5t-99.5 -72.5q-29 -11 -61 -19t-64 -8h-12t-12 1q-3 -1 -9 -1q-8 0 -15 3.5t-13.5 7.5t-13.5 7.5t-14 3.5l-5 -1q-5 5 -9 10.5t-4 12.5q0 4 1 6q14 8 28 14t28 16l5 1q9 0 16 -10q0 -5 -3 -8.5t-7 -6.5
h-4q-8 0 -13.5 -4t-11.5 -8q2 -9 8 -14t14 -7.5t16.5 -3t16.5 -1.5q5 -1 9 -1h9q34 0 65 12t62 21q31 17 57 41.5t48.5 52.5t41.5 58t36 59q17 16 25.5 36.5t23.5 36.5q42 75 84.5 150t81.5 151q7 5 9.5 13t9.5 13q23 42 55 78.5t76 59.5v12q-28 16 -58.5 27t-61.5 21
t-60.5 22t-55.5 30q-23 7 -47 11.5t-44 14.5q-23 1 -45 2t-44 1q-20 0 -39 -2t-39 -7q-37 -3 -72 -17.5t-65 -37.5q-11 -5 -19 -13.5t-15 -18.5t-12.5 -20.5t-12.5 -19.5q-1 -5 -1.5 -9t-0.5 -9q0 -26 15 -48q26 -26 58 -46t70 -20q15 0 35 5q31 7 64.5 11t65.5 11t61 20.5
t52 39.5q3 0 7.5 -0.5t4.5 -3.5l-1 -3q-4 -12 -11.5 -19.5t-17 -14t-19 -12.5t-18.5 -15l-15 -4q-51 -14 -105 -23.5t-113 -9.5h-13q-43 4 -76 32t-56 64q-5 11 -5 28q0 11 1.5 22.5t3.5 22.5q26 49 72.5 79t97.5 47q27 8 52.5 13t54.5 5h33q26 0 51 -4.5t48 -11.5
q24 -1 45 -9.5t41 -19t41 -20.5t44 -14q15 -2 28 -11.5t30 -9.5q20 -13 42 -19.5t43 -19.5q8 -4 18 -4q17 0 31.5 9t31.5 10q28 16 58 23t59 18q6 -1 12 -1h12q30 0 59.5 5t58.5 5q18 0 35 -3.5t34 -13.5q4 -5 6.5 -11t2.5 -13v-3v0zM996 564q0 4 -1 6q-6 1 -11.5 1t-9.5 5
l-22 -1q-66 -3 -133.5 -9.5t-125.5 -33.5v-4q23 -8 47.5 -11t48.5 -3q40 0 79.5 6.5t77.5 14.5q5 5 13.5 7.5t16.5 4.5t14 5.5t6 11.5z" />
    <glyph glyph-name="U" unicode="U" horiz-adv-x="441" 
d="M514 -302q-3 -5 -7.5 -6t-9.5 -1q-1 -1 -3 -1h-4l-72 19q-20 8 -37 15t-31.5 16t-26.5 20t-22 28q-17 28 -24 58.5t-7 62.5q0 38 7.5 75.5t18.5 75.5q-14 -7 -25.5 -17.5t-24.5 -20.5l-5 -4q-12 -10 -23 -20.5t-24 -18.5q-19 -15 -35.5 -26.5t-33.5 -19.5l-18 -1
q-5 -1 -8.5 -1h-8.5q-14 0 -23 5q-15 15 -15 38q0 9 1.5 18.5t3.5 17.5l2 12q1 5 1.5 8.5t0.5 4.5q9 49 25 96.5t34 94.5l16 42q16 25 25 48.5t19 49.5l21 55q8 20 14 42.5t14 44.5l5 13q-1 3 -1 9q0 9 1 18t3 17l1 3q3 16 3 30q0 11 -3 22.5t-12 22.5q-56 71 -112 71
q-6 0 -16 -2h-14q-42 0 -79 -15.5t-60 -44.5l-4 -6q-11 -16 -19.5 -34.5t-8.5 -36.5q0 -17 10 -31q11 -11 25.5 -15.5t28.5 -3.5l13 1l3 -6q-2 -6 -9 -12q-10 -2 -16 -2q-19 0 -37 9t-30 24q-5 9 -6.5 18.5t-1.5 18.5q0 16 5 31.5t11.5 28.5t14.5 23.5t14 16.5
q28 29 68 43.5t82 14.5q31 0 61 -8t54 -25q23 -17 41 -46t18 -63v-8.5t-1 -8.5q3 -6 3 -11t-4 -13l-1 -3l-4 -14q-3 -49 -24 -86q-18 -63 -42 -120l-38 -92q-12 -30 -25.5 -63t-25 -66t-18.5 -65.5t-7 -60.5q2 -10 4.5 -18t10.5 -13q24 1 43.5 12.5t36.5 25.5l14 10
q2 2 5 3.5t5 3.5q3 2 4 4q13 15 28.5 28t31.5 25t25 18.5t13.5 10.5t6 6t2.5 4q20 53 37.5 87t22.5 45q10 21 22.5 37t30.5 31q11 23 32 23q9 -3 12 -7t3 -9q0 -8 -3 -15l-2 -8t-1 -9q-12 -27 -30.5 -51.5t-37.5 -49.5l-39 -51l-4 -9q-10 -22 -20.5 -44t-19 -44.5t-14 -46
t-3.5 -47.5l1 -16q-1 -5 -1 -10v-10q0 -34 13 -67q11 -39 46 -63t80 -41q8 -3 20 -5.5t24.5 -5.5t23 -7t16.5 -9v-1v0zM428 272q-13 -9 -25.5 -24t-19.5 -29q-8 -17 -15 -31q-6 -12 -11 -23t-6 -13q5 6 16.5 22t24 34.5t23 36t13.5 27.5z" />
    <glyph glyph-name="V" unicode="V" horiz-adv-x="613" 
d="M844 300q-2 -5 -7.5 -13.5t-13.5 -8.5q-21 0 -38.5 -9t-34.5 -20q-8 -6 -17.5 -11.5t-18.5 -9.5l-20 -12q-50 -30 -98.5 -62t-93.5 -70q-25 -11 -43.5 -26.5t-33.5 -34.5t-27.5 -40t-24.5 -43q-16 -28 -33.5 -55t-40.5 -51q-18 -26 -40.5 -50t-48.5 -47l-18 -10
q-8 -5 -16.5 -9t-19.5 -4q-7 8 -9.5 18t-2.5 20q0 13 3 22q38 71 98 126.5t126 103.5l23 17q32 67 61.5 145.5t40.5 165.5v33q0 11 1 22.5t1 22.5q0 18 -2.5 35.5t-10.5 34.5q-3 50 -34 93.5t-85 75.5l-15 3q-20 4 -42 6t-44 2q-27 0 -53 -6t-46 -22q-22 -1 -39.5 -11.5
t-34.5 -23.5q-9 -7 -17.5 -13t-17.5 -11q-20 -18 -42.5 -39t-41.5 -45t-31 -50.5t-12 -56.5q0 -5 0.5 -11t1.5 -11l5 -21q4 -18 9.5 -35.5t13.5 -32.5t21 -27t32 -19q14 -3 29.5 -5.5t31.5 -2.5q25 0 46.5 8t35.5 31q0 10 9 16l7 -1q1 -3 1 -8q0 -10 -7 -22q0 -1 -4 -7.5
t-4 -8.5q-18 -14 -41 -21t-47 -7q-20 0 -39.5 4.5t-36.5 14.5q-26 15 -42 37t-25 46t-12 48t-2 42l1 21q6 9 6 21q2 9 4.5 17.5t12.5 11.5q20 53 65.5 93.5t97.5 76.5q44 20 92 36.5t99 16.5q18 0 36 -2.5t36 -8.5q17 -5 28 -15t25 -21l10 -8q53 -28 82 -131l6 -35
q2 -12 5 -24.5t3 -24.5t-3 -22v-27q0 -13 -5 -20q0 -62 -17 -116.5t-37 -106.5l-8 -22l-6 -16t-4 -10q7 3 13 6.5t14 8.5q2 2 4.5 3t4.5 3l29 18l54 40q29 21 59 41t62 34q32 21 66.5 42t72.5 41h10q4 0 7.5 -1t5.5 -9zM368 -25q-23 -16 -47.5 -38t-48.5 -44l-30 -28
q-15 -14 -29 -27.5t-25 -28.5t-18 -31.5t-7 -35.5v-3q5 -4 10 -4t8 3.5t7 8.5l6 6q72 56 141 160q25 35 33 62z" />
    <glyph glyph-name="W" unicode="W" horiz-adv-x="915" 
d="M1137 542q0 -41 -16.5 -79.5t-35.5 -74.5l-23 -45q-24 -37 -52 -72.5t-62 -59.5q-31 -35 -70.5 -59t-78.5 -47l-10 -6q-17 -11 -34.5 -22t-34.5 -22q-29 -17 -57.5 -36t-54.5 -42q-17 -7 -32.5 -19.5t-30.5 -26.5q-12 -11 -24 -21t-24 -17q-29 -20 -46.5 -50.5
t-33.5 -60.5q-2 -6 -5 -10q-2 -3 -4 -7l-2 -4h-15v1q0 24 9.5 44t21.5 39q5 9 10.5 18.5t10.5 19.5q32 57 66.5 115.5t76.5 112.5q9 4 15.5 11t11.5 15q5 5 9.5 11.5t9.5 10.5q0 6 -4 10q-8 0 -15 -7q-52 -24 -102.5 -52t-91.5 -51q-17 -14 -30.5 -30t-25.5 -32l-10 -13
q-13 -17 -27.5 -35t-33.5 -33q-10 -6 -18.5 -14.5l-18.5 -18.5l-10 -10q-10 -10 -19.5 -18t-21.5 -13l-31 -24q-16 -12 -32 -22t-35 -10q-16 0 -32 9q-8 8 -8 17q0 7 3 13.5t7 12.5q5 8 9 19q50 45 105 80t109 69l102 64q69 90 117 181.5t71 185.5q5 17 5.5 32.5t0.5 29.5
q0 33 -7 55q-1 16 -6.5 33.5t-16 34t-25 30t-33.5 21.5q-29 8 -66.5 14t-80.5 6q-20 0 -40 -1.5t-40 -5.5l-56 -18q-35 -11 -68.5 -23t-62.5 -34q-42 -14 -79 -41.5t-67.5 -62t-53.5 -72.5t-36 -73v-6q-2 -11 -3 -21t-1 -21q0 -18 6 -34t24 -29q36 -16 77 -16q48 0 92.5 19
t77.5 48l11 12q16 17 31 34t15 40q0 4 -2 14q-3 6 -12 17.5t-23 13.5l1 9q4 4 13 4l8 -1h9q27 -30 27 -60q0 -9 -3 -18v-4q0 -13 -7 -21t-16 -15q-7 -5 -13.5 -11.5t-10.5 -15.5q-4 -2 -7.5 -5.5l-7.5 -7.5q-7 -8 -17 -15q-85 -58 -174 -58q-25 0 -44 4q-23 8 -39 24.5
t-30 34.5q-8 15 -8 35q0 11 2.5 22.5t4.5 22.5l2 12q1 5 2 8.5t1 4.5q16 36 41 75t58 74.5t73.5 64t88.5 44.5q60 29 127 52.5t141 23.5q14 0 28.5 -1.5t29.5 -3.5q14 -2 26.5 -5t25.5 -7q11 -3 23 -6t24 -5q45 -32 67.5 -76t22.5 -94q0 -12 -1 -24t-4 -25q-7 -50 -23 -96.5
t-37.5 -91.5t-48 -89t-54.5 -87q0 -1 2 -3q14 10 30.5 17t32.5 15l21 10q25 12 49 24.5t45 30.5q16 5 31 12.5t30 14.5q11 4 19 8q7 3 12.5 6t6.5 3q10 -2 10 -13v-4q-82 -62 -145.5 -139t-108.5 -169q0 -1 2 -1q1 0 1 -1q2 0 6 4q2 2 4 4.5t5 2.5l3 -1q21 25 46 42t53 34
q20 12 39 24.5t37 28.5q10 7 20 12.5t20 10.5l9 4q13 7 25.5 15t23.5 20q55 24 107.5 64t97 91t79 111t55.5 124q-1 21 -2.5 44t-7 45t-15 43t-25.5 38l-18 19q-8 8 -14.5 15.5t-8.5 18.5q4 6 12 6q4 0 7.5 -1t5.5 -2l26 -37q14 -20 25.5 -41t16.5 -45q16 -33 16 -68z
M352 16q-1 -1 -1.5 -1t-1.5 -1t-2 -1q-59 -35 -115.5 -75.5t-109.5 -79.5l-4 -3q-8 -8 -17.5 -19t-9.5 -22v-4q4 -3 10 -3q4 0 7.5 1t8.5 3q10 2 16 2q8 0 11 -2q11 13 25.5 26.5t28.5 24.5q2 1 4 3q4 4 5 4q19 11 34 25.5t29 30.5q11 12 23 24.5t26 23.5q1 7 5.5 11.5
l9.5 9.5l4 4q5 4 9.5 8t4.5 10z" />
    <glyph glyph-name="X" unicode="X" horiz-adv-x="729" 
d="M798 -169q0 -4 -6 -10l-1 -1q-1 0 -1 -0.5t-1 -0.5q-42 4 -78.5 34t-71.5 79l-23 32q-11 15 -21 31t-15 33q-11 17 -18.5 35t-15.5 35q-4 9 -7 17q-3 7 -5 12t-3 7q-46 -36 -86 -78t-78 -87l-6 -7q-13 -16 -24 -27q-9 -10 -16 -18.5t-7 -7.5q-29 -42 -71 -75.5t-93 -56.5
q-2 -7 -4 -9q-5 -3 -12 -3q-6 0 -14 2q-5 1 -6 6q-1 1 -1 3q0 7 5 12q62 23 119 70t100 111l187 201q1 5 1 15q0 9 -1.5 18t-3.5 19q-5 20 -5 39v7q-10 69 -17.5 115t-23.5 84q-4 19 -10 42t-25 40q-2 14 -13.5 24.5t-22.5 20.5l-19 16q-42 29 -91 41t-99 12q-42 0 -80.5 -7
t-71.5 -20q-7 -8 -14 -12t-15 -8q-9 -5 -17 -10.5t-16 -16.5q-13 -8 -23.5 -18.5t-19.5 -22.5q-14 -17 -20.5 -38.5t-6.5 -44.5q0 -20 4 -39t11 -36q23 -29 50 -52t66 -24q10 0 19 -0.5t19 -0.5q22 0 44 2.5t42 9.5t37 20t30 33q4 7 4 18q1 8 3 14.5t12 6.5h1l1 -1
q2 -5 3 -10t1 -10q0 -21 -13 -38t-30 -31q-31 -19 -67 -28.5t-72 -9.5q-27 0 -52.5 5.5t-47.5 16.5q-17 11 -28.5 25.5t-22.5 29.5q-6 8 -11 15q-5 6 -8.5 10.5t-3.5 5.5q-5 16 -7.5 34t-2.5 37q0 29 8.5 56.5t30.5 50.5q100 111 222 111h15q8 1 17 1h17q138 0 238 -90h1
q18 -28 34 -58.5t22 -61.5q7 -14 11.5 -30t8 -36t7 -46t8.5 -60q0 -17 2.5 -31.5t4.5 -30.5q2 -12 4 -24.5t3 -24.5q1 -2 6 -2h4q14 20 32 32.5t38 23.5q6 6 14 10t16 8.5t16 10t13 14.5h2q9 0 19 4t19 9q11 5 20 9t17 4q3 0 9 -2q11 -4 17 -23v-1q-9 -9 -20 -9q-8 4 -12 5
t-7 1q-9 0 -21 -7l-13 -5l-48 -30q-22 -14 -44 -27.5t-42 -31.5l-11 -10q-7 -5 -12.5 -10t-5.5 -12q0 -5 3 -11q17 -61 48.5 -112t69.5 -104l21 -29l16 -14q8 -7 16 -13t19 -8q8 -10 19.5 -15t23.5 -9l4 -2q2 -1 5 -1l2 -6v0z" />
    <glyph glyph-name="Y" unicode="Y" horiz-adv-x="591" 
d="M826 -65q0 -5 -1 -10t-9 -6q-9 2 -17.5 5t-14.5 9h-7q-11 0 -21.5 1t-21.5 3l-14 2q-14 2 -25 3.5t-22 2.5l-25 1q-20 1 -39 2.5t-39 1.5q-28 0 -54.5 -4t-50.5 -17q-14 0 -24.5 -4.5t-20.5 -10.5l-15 -7.5t-15 -4.5q-8 -21 -11 -43.5t-6 -45.5l-3 -23q-7 -53 -27 -100.5
t-39 -95.5l-4 -10l-4 -8l-4 -8q-8 -4 -14.5 -10t-11.5 -13l-2 -3q-8 -10 -16.5 -17.5t-20.5 -7.5q-8 0 -17 4q-16 2 -27 10.5t-18.5 19.5t-11.5 22t-6 18l-1 22q-2 33 8 61.5t26.5 54.5t36.5 51t39 50l6 8l33 22l2 2q18 12 37 24.5t33 27.5q3 12 4 25l2 26l2 26t4 25
q-107 55 -138 244v32q-1 5 -1 9.5v9.5q0 19 5 30q-1 6 -1 12v12q0 20 1 38.5t3 36.5l1 12q3 33 3 58q0 47 -14 88q-7 19 -20.5 36t-31.5 21h-3q-35 0 -64.5 -12.5t-58.5 -26.5l-47 -22q-5 -10 -12 -14.5t-14 -10.5l-9 -6q-75 -99 -75 -199q0 -13 1.5 -25.5t3.5 -26.5
q5 -13 13 -29.5t19 -32t26 -27t35 -13.5q28 -7 62 -7t63 7l5 -6l-1 -1q-8 -12 -20.5 -16t-26.5 -4q-7 0 -13.5 0.5t-13.5 1.5l-32 2q-32 7 -60.5 17.5t-45.5 42.5q-19 24 -23.5 54t-8.5 62l-4 33q14 67 40.5 119.5t70.5 87.5q34 27 76.5 44.5t93.5 28.5q4 1 11 1
q26 0 44 -14.5t28 -25.5q19 -34 25.5 -70.5t6.5 -68.5q0 -23 -2 -43.5t-5 -35.5v-35q0 -18 -2 -36t-10 -34l6 -38q2 -16 4.5 -31.5t9.5 -31.5q5 -23 11.5 -48.5t18 -49t29 -41.5t44.5 -27q2 5 3 11t2 13t2 13t4 11q-1 5 -1.5 10t-0.5 10q0 13 2.5 25t6.5 24q3 11 5.5 22.5
t3.5 22.5l10 32q8 27 18 53.5t31 46.5q5 2 10.5 3t10.5 1q15 0 26 -9q10 -15 14 -31t4 -32q0 -25 -7.5 -50t-15.5 -48l-9 -25q-17 -35 -43 -66.5t-52 -60.5l-1 -2l-7 -46q-2 -13 -4 -23q-1 -5 -1.5 -9t-1.5 -7q-1 -4 -1 -7l5 -5q46 28 100 37t109 9q16 0 31.5 -0.5
t30.5 -1.5q8 -4 19.5 -4.5t33.5 -3.5l8 -1q26 -3 51 -7.5t48 -16.5zM511 278v12t-1 12q-4 8 -9 14t-13 6h-2q-25 -19 -33.5 -47t-15.5 -58l-9 -40l-6 -26q-3 -13 -5.5 -27t-2.5 -28q0 -6 0.5 -11.5t1.5 -10.5q1 -1 3 -1h2q46 57 68 106.5t22 98.5zM351 -125l-30 -23
q-24 -18 -48.5 -37t-40.5 -45l-7 -11q-15 -23 -27 -47t-18 -50q-12 -26 -12 -52q0 -15 5 -35l11 -14q5 -7 10 -12.5t14 -5.5h4q6 -3 12 -3q11 0 18.5 8t14.5 18q5 6 9.5 11.5t9.5 9.5q33 72 52.5 144t26.5 144h-4z" />
    <glyph glyph-name="Z" unicode="Z" horiz-adv-x="715" 
d="M912 477q0 -7 -2 -17q-1 -3 -1 -5q0 -1 -0.5 -1.5t-0.5 -1.5v-2q-29 -29 -68 -43t-85 -14q-40 0 -79 10h-6q-14 -13 -26 -27l-24 -28q-13 -16 -26.5 -31t-28.5 -28q-23 -33 -41 -59q-16 -23 -29 -41t-14 -19q66 -48 138 -48h25q51 0 107 32q9 0 17 5q4 2 7.5 4t8.5 2
l6 -1q3 -6 3 -10v-3q-2 -6 -7.5 -10t-10.5 -7l-5 -3q-13 -2 -24.5 -5t-22.5 -8l-5 -2q-13 -5 -26.5 -9t-27.5 -4l-11 1q-9 -2 -18 -2h-18q-41 0 -79 12t-70 38l-6 -1q-20 -29 -44.5 -56.5t-50.5 -53.5q-34 -34 -64 -67q13 -16 29.5 -25t33.5 -17q14 -6 28 -14t25 -19
q20 -5 39.5 -12.5t38.5 -15.5q29 -12 59.5 -22t64.5 -10h10t10 1q33 4 64 13t61 20q7 -5 7 -10l-2 -4q-1 -1 -1 -3v-1l-27 -12l-2 -1q-11 -5 -21.5 -10.5t-23.5 -5.5l-8 1l-36 -6q-14 -2 -27 -4t-27 -2q-13 0 -25.5 2.5t-23.5 9.5l-50 20l-7 3q-43 18 -86.5 36t-83.5 46
l-16 9q-8 5 -15 8.5t-15 3.5h-4q-18 -15 -39.5 -22t-44.5 -13l-15 -4l-21 1q-23 1 -47 4t-42 16q-5 7 -5.5 13.5t-0.5 12.5v10.5t-2 12.5q8 8 19 10.5t22 4.5q8 2 15.5 3t14.5 5q7 2 14 3t13 1q11 0 20 -2l18 -4t18.5 -4t20.5 -1l13 1l16 -8l1 -1q10 -7 17 -7t12 5l39 40
q32 32 62.5 65t49.5 69q-23 10 -47 14.5t-48 4.5q-20 0 -40 -3t-39 -11l-8 3l1 1q17 17 39 23.5t46 6.5q28 0 55.5 -6t50.5 -14q44 29 55 64q14 22 31 40.5t34 35.5l5 5q20 20 37.5 40.5t29.5 43.5q-31 18 -63 37t-63 41t-59 47.5t-51 55.5l-35 32q-22 20 -42.5 39t-48.5 26
q-38 26 -84 33t-93 10q-37 -3 -73.5 -16t-75.5 -39q-9 -20 -22 -38l-3 -4q-10 -14 -17.5 -29t-10.5 -33q-1 -6 -1.5 -12t-0.5 -12q0 -46 22.5 -84t49.5 -73q12 -6 30.5 -13.5t41 -14.5t48 -11.5t51.5 -4.5t51.5 6t48.5 20q5 3 8.5 7t7.5 9q7 8 13.5 14.5t16.5 6.5q1 -2 1 -7
q0 -12 -9.5 -22.5t-20.5 -18.5l-2 -1q-4 -4 -8 -7q-2 -2 -3.5 -3t-2.5 -2q-2 -1 -2 -2q-23 -11 -49 -15.5t-53 -4.5q-51 0 -101.5 16.5t-94.5 48.5q-66 92 -66 165q0 41 22 77l6 8q20 26 43 50.5t54 32.5q28 17 57 23t57 6t52.5 -4.5t42.5 -9.5l10 -2q4 -1 7 -1h4
q15 -2 28 -9.5t26 -15.5q11 -7 22.5 -13.5t25.5 -9.5l28 -26q23 -21 44.5 -42.5t41.5 -47.5l10 -8q12 -10 23.5 -20t19.5 -20q34 -26 70.5 -49t77.5 -43q6 -3 10 -3q6 0 10 4.5t8 9.5t8 9t10 6q31 26 69 36.5t75 10.5q31 0 60 -9q8 -3 10.5 -9t2.5 -13zM891 475q-27 7 -57 7
q-46 0 -94 -18q-7 -8 -19 -15q-8 -5 -14 -10t-10 -14q14 -5 28 -6.5t28 -1.5q32 0 61 7t51 19l7 4q7 4 13 10t6 14v4zM241 -30q-20 5 -41 9.5t-42 4.5q-10 0 -19.5 -1t-18.5 -4q-3 -2 -7 -3t-9 -2h-1q-13 0 -17 -5q-3 -3 -3 -9v-3q3 -4 6.5 -6.5t7.5 -5.5l1 -1l2 -1l2 -1
l2 -1l2 -1l4 -2q2 -1 5 -1q6 -1 11.5 -1.5t11.5 -0.5q29 0 57.5 8.5t53.5 24.5z" />
    <glyph glyph-name="bracketleft" unicode="[" horiz-adv-x="273" 
d="M405 495q-2 -10 -9.5 -12.5t-17.5 -2.5h-11q-5 0 -10.5 -0.5t-9.5 -2.5q-23 -29 -41 -62.5t-36 -65.5q-8 -14 -14.5 -29.5t-8.5 -32.5q-29 -45 -47 -73t-26 -44q-5 -11 -14.5 -19.5t-9.5 -22.5q0 -5 1 -8q-19 -26 -30 -54.5t-22 -56.5q-15 -29 -32 -55.5t-29 -55.5l-1 -5
q0 -9 6 -16t13.5 -12.5t14 -11.5t6.5 -14q0 -9 -8 -18q-11 3 -18 10.5t-12.5 17l-11 19t-14.5 16.5v6q0 11 7.5 22.5t15.5 25.5q20 34 38.5 67t26.5 71q13 25 23.5 49.5t18.5 50.5q14 28 23 43t14.5 22t9 9t7 5.5t8.5 10t13 23.5q14 21 23 44t21 45q12 21 25.5 41.5
t15.5 46.5q15 15 35 24.5t40 9.5q12 0 27 -5z" />
    <glyph glyph-name="backslash" unicode="\" horiz-adv-x="357" 
d="M261 -61q-5 -3 -5 -7l2 -12q0 -5 -5 -9q-5 4 -11.5 5t-12.5 6q-2 7 -4.5 16t-6.5 16.5t-9.5 13t-14.5 6.5l3 10q-26 35 -51 73t-51 75.5t-55 73t-63 66.5q-10 21 -24.5 38.5t-30 34.5l-31 34t-28.5 37v8q0 4 4.5 4.5t4.5 2.5q26 -35 56 -67.5t56 -67.5q36 -43 68 -84
t63 -81.5t60.5 -82t59.5 -85.5q10 -2 15 -9.5t11 -14.5z" />
    <glyph glyph-name="bracketright" unicode="]" horiz-adv-x="273" 
d="M362 440q0 -11 -6.5 -21.5t-13.5 -21.5l-3 -5q-20 -33 -38.5 -66.5t-26.5 -71.5q-13 -25 -23.5 -49.5t-18.5 -50.5q-14 -28 -23 -43t-14.5 -22t-9 -9t-7 -5.5t-8.5 -10.5t-13 -23q-14 -21 -23 -44t-21 -45q-12 -21 -25.5 -41.5t-15.5 -46.5q-15 -15 -35 -24.5t-40 -9.5
q-12 0 -27 5q2 10 9.5 12.5t17.5 2.5h11q5 0 10.5 0.5t9.5 2.5q23 29 41 62.5t36 65.5q8 14 14.5 29.5t8.5 32.5q29 45 47 73t26 44q5 11 14.5 19.5t9.5 22.5q0 5 -1 8q19 26 30 54.5t22 56.5q15 29 32 55.5t29 55.5l1 5q0 9 -6.5 16t-14 12.5t-13.5 11.5t-6 14q0 9 8 18
q11 -3 18 -10.5t12.5 -17l11 -19t14.5 -16.5v-6v0z" />
    <glyph glyph-name="underscore" unicode="_" horiz-adv-x="305" 
d="M267 -44q0 -6 -4.5 -9t-11 -4t-14.5 -1.5t-14 -1.5q-5 -1 -10.5 -1h-10.5t-16.5 0.5t-23.5 2.5q-14 1 -31 3q-8 1 -16.5 -0.5t-17.5 -3.5q-12 8 -23 7l-35 -3q-17 -2 -24 11q19 12 43 10l51 -2q14 -3 26.5 -4t25.5 -1q26 0 51 2.5t53 2.5q2 -6 2 -8z" />
    <glyph glyph-name="grave" unicode="`" horiz-adv-x="500" 
d="M145 274q-3 -3 -6 -6.5t-8 -3.5q-17 20 -35 32.5t-33 35.5q-2 4 -2 6q0 6 6 8q23 -10 44.5 -29t33.5 -43z" />
    <glyph glyph-name="a" unicode="a" 
d="M347 4q-1 -2 -1 -3v-1q-11 -7 -20.5 -14t-20 -13t-24 -10.5t-32.5 -7.5q-11 -3 -21 -3q-19 0 -31 8q-6 4 -7 10.5t-1 13.5v3q0 5 -0.5 9t-2.5 8q-26 -17 -52.5 -35t-60.5 -19q-11 5 -15.5 14.5t-4.5 20.5q0 5 2 15q2 3 4.5 10t5.5 14t6.5 13.5t7.5 8.5q-7 -1 -18 -6.5
t-22 -12.5t-21.5 -14.5t-16.5 -12.5l-4 -2q-2 0 -3.5 2t-5.5 2q-1 1 -1 3q0 4 6 8.5t8 9.5q18 15 35 25t31 21q21 11 40.5 26t39.5 28.5t41.5 22t46.5 6.5l12 -1q5 -4 10 -6.5t10 -7.5v-7q0 -14 -5.5 -27t-12 -25t-12.5 -22.5t-7 -19.5q-3 -10 -8 -21t-5 -22q0 -8 5 -16
q7 -3 18 -3q20 0 45 11.5t45 27.5q4 0 8 4t8 6l1 -1v-12v-6v0zM235 129q-2 0 -5.5 0.5t-6.5 0.5h-6.5t-5.5 -1q-3 -1 -15.5 -8t-29 -18.5t-33.5 -27t-29 -33.5q-7 -11 -14.5 -25.5t-7.5 -26.5q0 -7 2 -10q6 -2 10 -2q15 0 32 10t21 16q17 10 32.5 25.5t21.5 20.5
q13 17 24.5 38t14.5 41h-5z" />
    <glyph glyph-name="b" unicode="b" horiz-adv-x="344" 
d="M502 554q-5 -23 -16.5 -45.5t-22.5 -45.5q-39 -60 -87 -117.5t-101 -107.5q-8 -11 -17.5 -23.5t-20.5 -22.5q-6 -9 -14.5 -16t-16.5 -14.5t-14.5 -16.5t-8.5 -20q-7 -2 -10 -6.5t-4.5 -10t-2.5 -10.5t-5 -7q-12 -17 -17 -39t-18 -41q-1 -17 -8 -31t-7 -31l-4 -39
q0 -8 3 -14q14 5 25 15t20 22l18 24t19 23l13 19q-8 9 -14.5 22.5t-6.5 28.5q0 10 3.5 19.5t12.5 17.5q10 5 18 10t20 5h5q18 -12 18 -35q0 -17 -7 -33.5t-14 -30.5q8 -6 18.5 -9t21.5 -3q12 0 24 5q9 5 20 13t22 15q4 -4 4 -9q0 -2 -0.5 -4.5t-0.5 -6.5q-20 -19 -41.5 -27
t-39.5 -8q-28 0 -45 14q-8 -5 -11.5 -13t-13.5 -22q-11 -9 -20.5 -23t-20 -26.5t-23 -21.5t-27.5 -9q-10 0 -15 2q-12 16 -12 37q0 19 6 37.5t8 36.5q6 28 16.5 53.5t19.5 52.5h-2q-4 0 -10 -2.5t-9 -6.5l-2 -6q-26 -16 -52.5 -36t-52.5 -37q-5 0 -5 8q0 9 4 15
q47 31 87 66.5t82 70.5l7 6q35 89 89 172.5t117 158.5q9 9 18 22t19.5 24.5t23 20t28.5 8.5q4 0 7.5 -0.5t8.5 -1.5q3 -2 7 -4l4.5 -4.5t2.5 -6.5zM476 548q-1 0 -1.5 0.5t-2.5 0.5q-4 0 -8 -1q-11 -2 -28.5 -20t-37.5 -44t-41 -55t-38 -54l-7 -10q-26 -36 -48 -71t-36 -76
h6q32 39 68.5 77.5t71 78.5t62 83t41.5 91h-1zM234 59q0 6 -2 14h-3q-11 0 -14.5 -9t-3.5 -18q1 -6 3 -12t7 -6q8 4 10.5 13t2.5 18z" />
    <glyph glyph-name="c" unicode="c" horiz-adv-x="349" 
d="M352 3q-26 -21 -52.5 -43t-56 -40t-63 -30t-74.5 -13q-29 5 -56 23.5t-33 48.5q-14 26 -14 53q0 26 10.5 52t27.5 47q23 36 61 57t77 35q4 1 7.5 1h6.5q18 0 33 -8t26 -20q1 -8 3 -14.5t2 -14.5q0 -7 -2 -10q-10 -15 -23.5 -30t-28.5 -23q-5 -1 -10.5 -2t-10.5 -1
q-15 0 -20 11v4q0 28 19 40l6 1q3 -3 3 -7l-4 -14q0 -5 5 -9q14 3 25 16.5t20 24.5v6q0 15 -15 27q-5 1 -8.5 1h-8.5q-25 0 -47.5 -9t-42.5 -23t-37 -32t-31 -36l-1 -3q-8 -17 -15.5 -35t-7.5 -37q0 -18 9 -34q5 -11 12 -22.5t16 -21.5t20.5 -16t25.5 -5q31 1 60 10.5
t55 23.5t50.5 32t48.5 36q4 4 16.5 14t17.5 10h1z" />
    <glyph glyph-name="d" unicode="d" horiz-adv-x="319" 
d="M462 635q-5 -14 -17 -27.5t-17 -29.5q-46 -63 -105.5 -109t-127.5 -74q-9 -5 -9 -12q0 -8 5 -16t5 -15v-1q12 -47 12 -95q0 -43 -7.5 -85.5t-20.5 -82.5v-2q0 -7 5.5 -11.5t5.5 -9.5q0 -2 -5 -7h-2q-5 0 -9 -1t-5 -7q-1 -14 -4 -29.5t-3 -31.5q0 -6 0.5 -12.5t2.5 -12.5
q13 -10 27 -10q16 0 31.5 9t29.5 16q17 9 33 20.5t35 24.5q5 -5 5 -15v-3q-15 -13 -32.5 -25.5t-35.5 -22.5t-36 -16.5t-36 -6.5q-11 0 -21 3q-18 11 -22.5 25.5t-4.5 34.5v2q0 5 2 11t2 11t-5 9q-12 -13 -24 -22t-23.5 -16.5t-23.5 -14t-25 -14.5q-8 -3 -17 -3
q-10 0 -18.5 4t-11.5 15v2q0 31 13 57.5t33.5 49t46 39.5t51.5 29q11 6 24.5 6t21.5 12q4 21 7 42.5t3 43.5q0 18 -2.5 35t-9.5 34q0 31 -18 55q-23 -8 -47 -10.5t-48 -2.5q-45 0 -88.5 6t-88.5 11q-57 26 -101.5 65t-78.5 94q-3 6 -3 10q0 11 8 20t10 21q23 15 49.5 20
t55.5 5q17 0 33.5 -1t33.5 -2l33 -16q45 -22 91.5 -42t84.5 -56q21 -20 35 -45.5t32 -48.5q75 25 139 74t107 119q3 4 3 9t0.5 10t2.5 8.5t8 5.5h4q4 0 4.5 0.5t7.5 0.5q6 0 10 -5zM121 466q-15 16 -30.5 34t-35.5 29q-17 6 -32.5 14.5l-31 17t-32 15t-34.5 8.5
q-13 8 -27.5 11t-29.5 4t-30.5 1.5t-30.5 3.5q-9 -5 -19 -7t-20 -4.5t-18.5 -8.5t-13.5 -18v-4q0 -11 8 -19q5 -15 16.5 -28.5t21.5 -26.5q46 -43 104 -68t124 -25h14q8 0 15 1t17 1h27q19 0 37 2t32 12zM169 144q-38 -14 -71.5 -34t-57.5 -59q-1 -14 -11.5 -25.5
t-10.5 -24.5q0 -7 4 -14q26 6 47.5 23t44.5 29q18 23 36.5 47t18.5 54v4z" />
    <glyph glyph-name="e" unicode="e" horiz-adv-x="195" 
d="M216 19q-13 -17 -36 -30.5t-40 -28.5q-18 -5 -37 -15.5t-39 -10.5q-8 0 -15.5 2t-15.5 8q-18 17 -21.5 38.5t-9.5 42.5q13 18 24 39t23 41q20 23 41.5 39.5t50.5 16.5h7l15 -14q-1 -23 -12.5 -44t-28.5 -38t-38 -30t-41 -21h-1q-4 0 -7 -3l-6 -6q1 -14 6 -26.5t19 -19.5
q4 -1 13 -1q17 0 35 7t35.5 17.5t34 22.5t30.5 22l4 1q6 0 10 -9zM138 133q0 3 -2 7q-20 -4 -35 -19t-30 -25q-4 -14 -14.5 -26t-10.5 -24v-2q23 6 41.5 21t37.5 34q3 8 8 17t5 17z" />
    <glyph glyph-name="f" unicode="f" horiz-adv-x="180" 
d="M477 -83q0 -6 -4 -8t-9.5 -3t-10.5 -2.5t-8 -5.5q-43 -20 -89 -33.5t-92 -27.5q-37 0 -75 2.5t-74 7.5q-6 -6 -6 -16l2 -22q0 -8 -3 -14q-4 -34 -18.5 -63.5t-24.5 -61.5q-22 -46 -52 -84t-64 -74q-5 -1 -10.5 -2t-10.5 -1q-8 0 -13.5 3t-6.5 13q2 56 18.5 106.5
t39.5 99.5q4 30 17.5 57.5t20.5 57.5q1 4 1 11q0 15 -9.5 24.5t-21.5 18.5t-23 19t-14 26v9q0 11 3.5 20.5t15.5 13.5q12 3 24 3q17 0 33 -5.5t29 -17.5h4q6 0 8 3t3 7t2.5 8t5.5 6q17 26 24.5 55t18.5 57q-16 0 -32.5 -10t-33.5 -10q-7 0 -10 1q-1 2 -1 5q0 9 13.5 11.5
t22.5 4.5q12 10 27 18.5t29 18t23.5 22.5t10.5 32q5 8 11.5 16.5t6.5 17.5q0 6 -2 9q11 13 20.5 29.5t19.5 33.5t20.5 33t24.5 30q17 35 40 70t55 59q2 1 6 1q8 0 15 -12q9 -17 9 -31q0 -23 -13 -45t-21 -44q-36 -58 -75.5 -109t-96.5 -95q-23 -14 -35 -39.5t-25 -48.5
q-13 -29 -23.5 -59t-29.5 -57q1 -12 7.5 -21.5t13.5 -18.5t13 -18t8 -21q15 -10 32.5 -11t34.5 -6q15 -2 30.5 -3t31.5 -1q23 0 44 3.5t40 14.5q35 3 65 16.5t56 33.5q6 1 11.5 3t11.5 2q7 0 12 -4q2 -6 2 -8zM363 452q0 11 -8 16q-8 -4 -12.5 -10.5t-8.5 -13.5t-8 -13.5
t-11 -10.5q-10 -9 -16 -20.5t-11.5 -23.5t-12.5 -23t-19 -19q-5 -14 -12 -27t-16 -24q-12 -20 -23 -42.5t-18 -42.5q26 24 52 49.5t48.5 53.5t40 59t28.5 65q2 6 4.5 13t2.5 14zM84 -119q-6 12 -12.5 24t-17.5 17q-4 -6 -7 -14t-3 -17v-4q6 -5 14.5 -7t16.5 -2l10 1zM24 -39
q-10 1 -20 4.5t-20 3.5q-11 0 -19 -7l-1 -6q0 -17 15 -29.5t29 -26.5h3q8 0 11.5 5.5t5.5 13t4 16t7 13.5zM91 -154q-15 6 -30.5 8.5t-30.5 4.5q-5 -20 -12 -38.5t-15 -36.5q-2 -3 -4 -8t-4 -9q-5 -29 -14.5 -56t-19.5 -53.5t-17.5 -54t-7.5 -56.5v-5q48 32 79 79t45 98
q17 25 24 56.5t7 64.5v6z" />
    <glyph glyph-name="g" unicode="g" horiz-adv-x="259" 
d="M520 -278q0 -9 -10 -20h-18q1 2 1 5q0 7 -4.5 12.5t-6.5 12.5q-4 4 -10 6.5t-6 9.5q0 2 1 4q-17 21 -39 29.5t-39 22.5q-2 -1 -5 -1q-8 0 -11.5 8t-12.5 8q-25 10 -52.5 14t-56.5 4q-57 0 -108 -15q-13 -8 -28 -12t-29.5 -9.5t-25 -14.5t-14.5 -27q-14 -24 -25 -48.5
t-26 -47.5q0 -8 -6.5 -11t-6.5 -10q0 -1 2 -7q-11 -15 -19 -32t-16.5 -33.5t-18.5 -31.5t-24 -28q-27 -46 -62 -86.5t-72 -78.5q-18 -11 -34 -24t-38 -13h-4q-15 16 -15 41q0 20 7 40.5t14 37.5q24 57 59.5 112t79.5 103.5t95 89t106 68.5q13 23 24.5 45.5t19.5 47.5
q34 60 60 121q-4 5 -8 5q-5 0 -9.5 -3t-8.5 -5q-11 -11 -26 -16.5t-29 -8.5q-6 4 -9 10.5t-5 13.5t-5.5 12t-10.5 6q-8 -9 -19 -18t-23 -14q-3 4 -3 9q0 10 12 17t18 17q20 14 37.5 32.5t35.5 36.5t37.5 34t43.5 25l6 1q5 0 9 -2t9 -5q0 -9 -5.5 -12.5t-12.5 -6t-13.5 -6
t-9.5 -10.5l-19 -7q-20 -15 -37.5 -37t-30.5 -40q-2 -6 -2 -10q0 -5 1.5 -9.5t6.5 -7.5q18 7 36 17.5t35 23t30.5 28t22.5 32.5q8 16 14.5 32.5t14.5 32.5t18 30.5t25 26.5q2 1 6 1q7 0 11.5 -4.5t6.5 -10.5v-5q0 -35 -18 -60.5t-40.5 -49t-42.5 -48t-25 -55.5
q-9 -7 -13 -16.5t-7.5 -19.5t-8 -19.5t-12.5 -16.5q-15 -26 -25 -52t-23 -54l4 -5l13 4q33 11 67 20.5t69 9.5h11t11 -1q5 1 9 1h9q28 0 54 -8t50.5 -20t47.5 -26.5t46 -27.5q2 -11 9.5 -18t16 -12t15.5 -10.5t7 -12.5zM20 -238q-16 -3 -28.5 -11t-20.5 -23
q-29 -14 -50.5 -37.5t-47.5 -40.5q-15 -14 -28.5 -32t-27.5 -28q-8 -21 -23 -35.5t-27 -34.5q-20 -42 -39.5 -83t-27.5 -86q4 -2 4.5 -5.5t0.5 -7.5q0 -10 5 -10q4 0 6 1q85 69 148 153t108 181q6 12 13.5 24l15 24t13 24.5t6.5 26.5z" />
    <glyph glyph-name="h" unicode="h" horiz-adv-x="419" 
d="M514 505q0 -9 -4 -16t-9 -14t-9.5 -14t-4.5 -15q-38 -47 -76.5 -92.5t-79 -88.5t-84 -84t-92.5 -80q-20 -29 -37 -55.5t-34 -56.5q0 -3 2 -3l5 1q42 41 93 79t104 67h3q8 1 15.5 3t15.5 2q10 0 16 -6q-3 -3 -3 -9l1 -14q0 -5 -2 -7.5t-10 -2.5q-11 -17 -21.5 -34
t-13.5 -37q-8 -4 -11.5 -10.5t-5 -14t-4 -15t-8.5 -13.5v-6q0 -7 -1.5 -12.5t-2.5 -11.5q7 -5 17 -5q8 0 15 3.5t13.5 8t13 8t13.5 3.5q9 9 21.5 13.5t15.5 13.5q6 1 14.5 6t16.5 10.5t14 10t9 6.5q5 -1 6 -20q-16 -8 -26 -17.5t-21 -12.5q-22 -17 -46.5 -31.5t-51.5 -24.5
h-16q-9 0 -16.5 2t-11.5 11q-7 11 -7 22q0 14 6 27.5t7 27.5q8 24 25 45t26 44q3 0 3 3l-1 6q-21 -1 -40 -15.5t-40 -22.5q-14 -15 -31.5 -29t-35 -27.5t-33 -27.5t-26.5 -31q-11 -12 -25.5 -26.5t-21.5 -31.5h-13q-4 7 -4 17q0 9 4 16q17 31 34.5 60.5t30.5 61.5q-3 3 -5 3
q-3 0 -6.5 -1.5t-5.5 -2.5q-22 -6 -43 -22.5t-36 -25.5q-2 -1 -5 -1q-5 0 -9 2v2q0 5 4.5 10.5t9.5 9.5q4 2 8.5 5t7.5 3q18 15 38 26t39 22.5t36.5 26.5t31.5 38q66 91 132.5 170t135.5 167q14 9 30 23.5t33 14.5q14 0 24 -14zM483 499q-20 -16 -38 -34.5t-34.5 -38
t-32.5 -39.5t-34 -39q-5 -8 -12 -15.5t-14.5 -15.5t-13.5 -15.5t-9 -15.5q-25 -26 -44.5 -53.5t-41.5 -54.5l5 -3q53 45 102.5 97.5t95.5 107.5q11 13 23.5 27.5t24 29t20 30t11.5 32.5h-8z" />
    <glyph glyph-name="i" unicode="i" horiz-adv-x="135" 
d="M145 234q0 -7 -4.5 -12t-6.5 -12q-6 -3 -10 -3q-11 0 -18 14q-3 4 -3 7q0 6 9 8t10 11q2 1 5 1q13 0 18 -12v-2zM163 24q0 -6 -8.5 -11t-15.5 -10q-12 -12 -25 -18t-29 -11l-7 -2q-16 -1 -29.5 -9t-29.5 -8q-7 0 -14 3q-10 16 -10 32q0 13 5 26t12.5 25.5t15.5 25
t14 24.5q13 15 20 31.5t19 31.5h2q10 0 10 -11q0 -5 -2 -7q-8 -18 -19 -34.5t-21.5 -33t-19.5 -34t-13 -37.5q-2 -2 -2 -8v-6q6 -3 13 -3q11 0 22.5 6t22.5 9h1q6 0 14.5 3t17 7.5t16 9l12.5 7.5q10 8 11.5 7.5t4.5 4.5h3q3 0 3.5 -1t2.5 -2q3 -3 3 -7z" />
    <glyph glyph-name="j" unicode="j" horiz-adv-x="279" 
d="M323 329q-7 0 -12 -5l-10 -10l1 -8q-7 0 -12.5 4.5t-11.5 9.5q-3 6 -3 10q0 5 4 7t8.5 4t8.5 4.5t4 8.5v4q23 -6 23 -29zM286 18q0 -2 -2 -10v-5q-58 -42 -111.5 -72t-112.5 -61q-11 -12 -25.5 -21.5l-29 -19t-27.5 -21t-20 -26.5q-24 -48 -53.5 -93.5t-52.5 -94.5
q-13 -15 -19.5 -32.5t-21.5 -27.5q-22 -45 -53.5 -82t-60.5 -76q-28 -25 -50.5 -50t-54.5 -40q-6 -8 -15 -14t-20 -6q-5 0 -8 1q-7 8 -7 18q0 14 8.5 27.5t10.5 27.5q6 4 8 9.5t4 11.5q29 41 57.5 84t59 86t64.5 83.5t74 76.5q15 23 34 40.5t38.5 34t36.5 34.5t28 41
q27 46 50.5 94t52.5 91q0 10 11 20.5t11 21.5q0 3 -3 8q-19 -16 -39.5 -36.5t-49.5 -39.5q-7 0 -7 9q0 1 0.5 2t0.5 3l6 9q23 17 39.5 33t33.5 30q17 19 35.5 34t37 29t35.5 30t32 38q8 1 15.5 11t15.5 10q6 0 12 -10q-1 -8 -6 -13t-11 -9.5t-12.5 -9t-9.5 -11.5
q-14 -12 -25.5 -26t-22.5 -28.5l-22 -29t-24 -27.5q-11 -19 -22.5 -35.5t-22.5 -33.5q-23 -32 -38.5 -67t-32.5 -70q-3 -6 -3 -8t2 -2q4 0 11 5t11 6q34 25 71 42.5t72 40.5q25 14 55.5 33.5t54.5 37.5q1 0 3 -1q4 -2 4 -4zM-85 -250q-54 -49 -108.5 -106t-93.5 -118
q-45 -51 -79 -108t-64 -116q13 1 24 8t21.5 16t20.5 19t21 18q33 42 67.5 83.5t62.5 87.5q37 49 66 105.5t64 108.5z" />
    <glyph glyph-name="k" unicode="k" horiz-adv-x="465" 
d="M626 596q-3 -26 -14 -49.5t-27 -45t-34 -41t-36 -37.5l-11 -11q-42 -42 -82 -83t-83 -78q-44 -38 -86.5 -78.5t-70.5 -90.5q-3 -9 -8 -16.5t-10 -14.5t-8.5 -14.5t-3.5 -16.5q42 37 86 74t92 67q12 8 25.5 13t29.5 5q15 -4 15 -14q0 -8 -5.5 -17.5t-5.5 -17.5
q-10 -11 -18 -19t-11 -22q11 -5 22.5 -13.5t11.5 -22.5v-2q0 -11 -4 -21.5t-9 -21t-10 -21.5t-6 -21q1 -4 6 -4q6 0 14.5 7.5t15.5 7.5h1q10 11 23 17.5t21 15.5q8 3 14 8.5t12 5.5q3 0 7 -4q0 -9 -7.5 -15.5t-17.5 -12.5t-20.5 -12.5t-16.5 -15.5q-14 -7 -26 -16t-26 -13
q-3 -2 -8 -2t-8.5 2t-7.5 4q-3 10 -3 19q0 23 11.5 43t16.5 41q0 1 -0.5 2t-0.5 3v4q0 1 1 2q0 5 -5 8h-4q-17 0 -28.5 -8t-22 -17t-22 -17t-26.5 -8h-6q-1 2 -1 7q0 7 4.5 11.5t11 8t13.5 7.5t11 9q23 21 43 46.5t37 52.5l-4 5q-83 -48 -160 -117t-127 -157q-5 -4 -7 -10.5
l-4 -13t-5 -11.5t-11 -5q-5 0 -9 1q5 33 17 63t28 59t34.5 57t35.5 58q2 8 9 14.5t7 13.5q0 3 -1 4q-20 -11 -42.5 -26t-45 -30.5t-44.5 -30.5t-41 -27q-5 1 -7.5 1t-4.5 4q0 8 12 17q5 6 11 10.5t11 6.5q57 33 113.5 75.5t110.5 84.5q35 54 75 103.5t82 98t83.5 97
t80.5 100.5h3q10 0 20.5 7t19.5 7q10 0 15 -16zM592 586q-21 -25 -46.5 -52.5t-43.5 -54.5q-48 -49 -92 -101t-81 -104q51 37 95.5 85t89.5 93q10 15 24.5 30.5t27.5 32t23 34t12 37.5h-9z" />
    <glyph glyph-name="l" unicode="l" horiz-adv-x="397" 
d="M592 577q-5 -11 -7.5 -23l-5 -24t-7 -23.5t-13.5 -20.5q-47 -77 -110 -148t-130 -131q-17 -22 -32 -47t-21 -54q-8 -8 -13 -15.5t-5 -17.5q-15 -23 -25 -50.5t-10 -55.5q0 -25 9 -47q25 4 47 14.5t41.5 23t37 26t33.5 24.5l26 17q2 -2 2 -6q0 -5 -3.5 -9t-3.5 -11
q-22 -14 -43 -30.5t-43 -31.5t-45.5 -26t-50.5 -15q-13 2 -17.5 11.5t-9.5 20.5q-2 6 -2 12.5v12.5q0 26 7 51.5t14 50.5q16 22 27 53t24 57q-32 -19 -68 -39.5t-68 -45.5q-15 -6 -32.5 -17t-34.5 -23.5t-33 -23.5t-28 -16q-5 0 -6 3t-3 5q0 5 3 8t7 5q5 2 8.5 5t7.5 6
q37 27 73 49t71 43.5t69 44t69 48.5q32 59 66.5 112t76.5 107q24 38 55.5 75.5t59.5 73.5q10 5 20 5q12 0 16 -13zM560 550q-5 0 -5 -7q0 -6 -5 -7q-32 -29 -57 -64t-54 -71q-5 -11 -15.5 -19.5t-12.5 -20.5q-18 -19 -31 -42t-30 -44v-8q11 7 20.5 20t22.5 19q22 32 49 60.5
t51 57t42.5 59.5t24.5 67z" />
    <glyph glyph-name="m" unicode="m" horiz-adv-x="650" 
d="M662 17q0 -7 -2 -9.5t-10 -7.5t-17 -9.5t-14 -12.5q-11 -5 -20.5 -13.5t-19 -16t-19.5 -13t-22 -5.5l-8 1q-4 5 -8 11t-4 14q11 36 20.5 71t24.5 69q-7 4 -14 4t-12.5 -3.5t-11 -8.5l-11 -10t-12.5 -7q-13 -11 -25.5 -23.5t-26 -24.5t-28 -21.5t-29.5 -15.5q-9 0 -12 5
t-3 11q0 4 1 8.5t2 7.5q8 11 10 24.5t9 25.5q-3 4 -8 4t-9.5 -2t-8.5 -3q-2 -8 -6 -10.5t-9.5 -3.5t-10.5 -2t-9 -4q-8 -3 -13 -8.5t-9.5 -11t-10.5 -9.5t-15 -5q-7 -8 -16.5 -12.5t-15.5 -14.5h-2q-7 0 -21 -5t-22 -5q-14 0 -19 16q0 23 7.5 43t19 39t24.5 37.5t25 37.5
q0 13 -11 15q-77 -23 -138 -74q-20 -8 -37 -25t-38 -24q-29 -36 -69 -52q-3 6 -3 9q0 5 4 9t9 7.5t10.5 7t8.5 8.5q23 23 51 41t54 39l4 2q30 15 56 38q18 11 40.5 22t44.5 11q21 0 37 -13q0 -23 -10 -42.5t-22 -38.5t-23.5 -38t-15.5 -40l-2 -3q3 -6 6 -6q4 0 8 4t9 5
q21 9 39.5 21.5t37.5 26t38 26.5t40 22q4 8 10.5 10t12.5 2h6q11 0 11 -13q0 -4 -1 -8t-1 -6q-7 -14 -14 -28.5t-10 -30.5l4 -5q20 13 37 29.5t34.5 31.5t36.5 25t43 10q4 0 7.5 -0.5t8.5 -3.5q5 -20 5 -33q0 -10 -3.5 -18.5t-14.5 -16.5q-1 -12 -5 -23.5t-8.5 -22t-8 -21.5
t-3.5 -23q5 -5 8 -5q5 0 9.5 4.5t9.5 6.5q15 18 37 28.5t42 26.5q3 0 5 -2t5 -4z" />
    <glyph glyph-name="n" unicode="n" horiz-adv-x="444" 
d="M455 16q-5 -13 -15 -21.5t-21.5 -15t-23 -11.5t-18.5 -12q-14 -4 -27 -12.5t-27 -8.5q-4 0 -10 2q-7 18 -7 41q0 30 11 60t21 57l-4 5q-13 -13 -31.5 -21.5t-27.5 -25.5q-23 -14 -44.5 -29.5t-42.5 -32.5q-3 -1 -7 -1q-6 0 -8.5 4.5t-2.5 9.5q0 4 1 7.5t2 6.5q6 16 15 31
t18.5 30.5t17.5 31t13 33.5h-1q-14 0 -27.5 -6t-26.5 -14.5t-24 -16.5t-20 -12q-7 -11 -23 -17t-26 -17q-25 -13 -44 -28.5t-45 -33.5q-1 2 -6 6t-5 7v2l17 12q57 40 112 77t112 65h6q10 0 18.5 -3t10.5 -13q-8 -29 -22.5 -54t-28.5 -51l-10 -18q11 13 27 25t33 24t33.5 23
t28.5 23q3 1 9 1q16 0 29 -11q4 -7 4 -14q0 -14 -11.5 -26.5t-14.5 -29.5q0 -17 -8 -33.5t-8 -34.5v-7.5t2 -8.5q16 1 31 7.5t29 15.5t28.5 19.5t29.5 20.5q5 0 5 -1t4 -6z" />
    <glyph glyph-name="o" unicode="o" horiz-adv-x="245" 
d="M262 10q-20 -14 -38.5 -21.5t-38.5 -7.5q-28 0 -62 15q-15 -32 -42 -55.5t-52 -46.5q-8 -2 -15 -5.5t-15 -3.5q-6 0 -13 5q-11 18 -11 41q0 25 9.5 50.5t17.5 47.5l27 48q-3 12 -7 25t-4 27q0 23 16 38q16 9 36 9q14 -7 28 -15t25 -19t18 -25.5t7 -32.5l1 -11
q0 -13 -3 -27.5t-11 -28.5q28 -15 53 -15q23 0 40.5 9.5t31.5 20.5q4 -2 5 -3t4 -5zM127 69q0 14 -3 26t-7 24q-12 9 -24 21t-28 12q-8 0 -12 -2q-2 -7 -7.5 -12.5t-5.5 -13.5q0 -5 2 -8q1 -16 16 -16q5 0 11 2t11 4q5 -7 5 -9q0 -4 -3.5 -6.5t-7.5 -4.5t-8 -4.5t-5 -5.5
q5 -17 20.5 -27t31.5 -17q14 15 14 37zM95 9q-15 6 -29.5 18t-22.5 22q-16 -23 -29.5 -51t-13.5 -58q0 -14 3 -27q9 0 16 5t15 11q8 9 17.5 18t18.5 18.5t15.5 20.5t9.5 23z" />
    <glyph glyph-name="p" unicode="p" horiz-adv-x="357" 
d="M369 17q-1 -10 -4.5 -12.5t-13.5 -8.5q-8 -5 -18 -13.5t-21 -17t-22.5 -15t-23.5 -6.5q-14 0 -25 11q7 32 16.5 63.5t23.5 60.5l3 23q-33 -8 -63 -33.5t-57 -48.5q-51 -51 -93 -108t-77.5 -118.5t-64.5 -126.5t-54 -130q-10 -15 -18 -31t-15 -33q0 -6 -3.5 -12.5
t-10.5 -6.5q-4 0 -8 3l-4 9q30 73 63.5 144t68 142t67.5 142.5t62 145.5h-2q-7 0 -14.5 -5t-15.5 -9q-5 -1 -11.5 -5t-13 -9t-12.5 -9.5t-10 -6.5h-4q-10 0 -16 9q29 20 60 44.5t58 53t47 60.5t28 67q6 17 15.5 33.5t18.5 33.5q3 8 11 12t16 4t14 -5t7 -16q1 -4 1 -10
q0 -20 -10 -37.5t-21 -34.5q-12 -20 -29 -38.5t-33.5 -37.5t-30.5 -39t-19 -43q-17 -25 -26 -53.5t-21 -54.5l2 -3q9 16 21.5 30t26 27.5l26.5 26.5t24 27q29 23 62 46t62 47q4 3 8 3q6 0 12 -4t9 -8l1 -9q0 -13 -4.5 -25.5t-9.5 -24.5l-10 -24t-6 -25q-5 -11 -10.5 -22.5
t-5.5 -22.5q0 -7 3 -13q22 10 39 22.5t38 26.5q8 2 10 2q4 0 7 -4zM235 278q0 4 -3 10q-11 -6 -13 -17t-13 -18l1 -5q0 -10 -6.5 -17.5t-6.5 -15.5v-2q6 5 12.5 12.5t11.5 15.5q2 11 9.5 19t7.5 18z" />
    <glyph glyph-name="q" unicode="q" horiz-adv-x="272" 
d="M317 221q0 -5 -5 -13q-2 0 -4.5 -2.5t-5.5 -2.5q-2 0 -4 2v6q0 9 -4 16t-13 9q-4 1 -8 1h-7q-20 0 -33.5 -8.5t-34.5 -11.5q-38 -21 -74.5 -53.5t-59.5 -68.5q-8 -10 -14.5 -24.5t-6.5 -28.5q0 -5 1 -10.5t4 -10.5q6 2 13 1.5t14 0.5t12 4t8 12l12 3q12 16 22.5 34
t22 34.5t25 30.5t32.5 23q6 -4 12.5 -5.5t11.5 -8.5q-1 -20 -9.5 -36t-21.5 -30t-28 -26.5t-28 -24.5q-13 -2 -23.5 -13t-15.5 -22q-2 -8 -5 -17t-3 -18q0 -5 2 -10.5t7 -9.5q11 1 20 2t20 3q29 16 63 33.5t65 40.5q3 1 6.5 2.5t5.5 1.5q3 0 3 -7q0 -5 -1 -7.5t-3 -4
t-4.5 -3.5t-6.5 -6q-17 -12 -38.5 -26t-45 -26.5t-48 -20.5t-47.5 -8h-6.5t-6.5 1q-5 5 -4.5 12t-6.5 12q-38 -48 -67 -101t-52 -109q7 -15 9.5 -31.5t3.5 -34t1.5 -35.5t4.5 -34q-5 -32 -7.5 -64t-13.5 -58q-7 -40 -24 -74.5t-37 -67.5l1 -6q0 -17 -12.5 -28.5t-18.5 -23.5
q-2 -12 -12 -15t-14 -9q-5 -3 -9 -3q-8 0 -13.5 6t-10.5 10q0 60 5.5 116t27.5 109v6q0 20 11.5 38t14.5 38q17 42 36.5 82.5t33.5 84.5q-9 14 -20.5 28.5t-26.5 23.5q-2 2 -2 6q0 5 3.5 8.5t8.5 3.5q10 0 16 -5.5t10.5 -12.5t9.5 -13.5t14 -9.5q32 57 64 112.5t61 112.5
q-8 1 -16.5 2t-16 3t-13.5 6.5t-9 12.5v6q0 27 11 51.5t28 45.5t37.5 39t39.5 33q24 39 57 50.5t72 11.5h16t16 -1l16 -9q10 -13 10 -22zM-160 -181q0 -5 -8 -9q-5 -1 -13 -1q-15 0 -28.5 4t-30.5 4h-3q-2 2 -2 6l1 11q11 4 26 4q30 0 57 -16l1 -3v0zM204 135
q-7 -10 -18.5 -22t-19.5 -24q17 4 25 18t16 26zM-50 -392q0 20 -1.5 40t-5.5 40h-5q-11 -24 -21 -49t-24 -48l-30 -90t-22 -94q-6 -21 -10 -43t-2 -42l1 -15q-1 -1 -1 -4t1.5 -6t5.5 -3l3 1q8 23 24 42t23 43q29 51 46.5 109t17.5 119z" />
    <glyph glyph-name="r" unicode="r" horiz-adv-x="312" 
d="M320 13q0 -4 -2 -7.5t-4 -6.5q-23 -18 -43 -29.5t-44 -19.5q-8 -3 -17 -4t-17 -1q-11 0 -21 3q-9 7 -14.5 16.5t-10.5 20.5q13 45 38.5 85.5t56.5 78.5q-10 5 -21.5 6t-22.5 3q-26 -20 -51.5 -44.5t-51.5 -44.5q-25 -22 -45.5 -36.5t-47.5 -33.5q-6 -3 -11 -3q-6 0 -6 4
v3q0 8 5.5 10.5t10.5 7.5q45 32 88 67t82 73q9 8 11 18q-11 8 -14.5 18.5t-3.5 22.5t2.5 23.5t5.5 22.5q8 11 21 17.5t27 6.5q20 0 34 -15q7 -11 7 -24q0 -9 -2.5 -18.5t-5.5 -18.5q-7 -8 -14.5 -14t-11.5 -16q5 -6 11 -8t14 -2l32 3q9 0 15 -4t7 -17q-17 -5 -30.5 -16
t-26 -24.5t-23.5 -28.5t-23 -28q-5 -16 -17 -32t-12 -33q0 -12 8 -23q9 -4 20 -4q14 0 26 5.5t24 9.5q14 10 30.5 19t31.5 21q6 -5 6 -9zM238 252q-3 12 -14 12q-8 0 -16 -5.5t-13 -11.5q-6 -6 -6 -13q0 -8 4 -17t5 -17q34 14 40 52z" />
    <glyph glyph-name="s" unicode="s" horiz-adv-x="315" 
d="M322 11q0 -7 -9 -13q-19 -13 -40.5 -22.5t-43.5 -9.5q-7 1 -11 1h-7q-14 0 -21 -3t-15 -5q-13 -26 -40.5 -44.5t-52.5 -18.5q-4 0 -12 2q-11 4 -22 8.5t-20 13.5q-3 3 -3 8t2.5 9.5t4.5 9.5q13 13 29.5 18.5t34 7.5t35.5 4.5t33 9.5q12 16 18 35.5t10 39t9 39t16 36.5
q-21 -5 -38 -20t-37 -28q-18 -12 -34.5 -21t-33 -18.5t-34.5 -21.5t-39 -29q-3 0 -3 10q0 8 2 12q33 25 65 47t63.5 43.5t63 45.5t62.5 54q10 7 16.5 20t17.5 13q4 0 10 -3q-6 -19 -15 -36.5t-19.5 -34t-21 -33.5t-17.5 -36q-1 -24 -10 -54t-22 -58q5 -1 9.5 -1.5t9.5 -0.5
q28 0 54 10.5t50 25.5q2 -2 4 -5t2 -7zM135 -49q-4 0 -5 3q-21 -9 -43 -9h-7q-7 -3 -14.5 -8.5t-9.5 -12.5q1 1 2 -0.5t2 -2.5l11 -1q18 0 36 7.5t28 23.5z" />
    <glyph glyph-name="t" unicode="t" horiz-adv-x="367" 
d="M904 341l-11 -11h-40l-331 -7q-21 -1 -41.5 0t-41.5 3q-7 -4 -15 -4q-10 0 -20 3t-18 3t-14 -4.5t-9 -17.5q-14 -12 -23.5 -28t-24.5 -27q-13 -17 -27 -33.5t-25 -34.5q-25 -51 -46 -104.5t-29 -112.5q5 -8 3 -17t5 -16q32 1 55.5 14.5t46.5 28.5q18 8 37.5 21.5
t34.5 24.5q1 -6 4.5 -6.5t3.5 -3.5t-9 -13q-32 -24 -62 -43t-55 -30q-14 -6 -27.5 -11.5t-29.5 -5.5q-9 0 -19 3q-6 8 -8 18.5t-2 21.5v12t1 11q7 41 20.5 78t22.5 77q-2 2 -5 2q-5 0 -8.5 -5.5t-8.5 -6.5q-20 -15 -43.5 -30.5t-48.5 -30.5t-49 -30t-45 -30q-5 2 -7.5 4.5
t-2.5 4.5q1 9 3 9t7 5q25 22 51 33t36 21q32 20 63 42.5t58 48.5t49.5 56.5t36.5 65.5q5 8 11 16t6 16q0 4 -3 9q-71 6 -145.5 8t-148 8t-144.5 18.5t-135 38.5q-11 8 -16 19t-5 24q0 10 3 21q1 16 9 27t19.5 19t24 16t21.5 20q13 3 24.5 9t23.5 12t24.5 10.5t27.5 4.5
l10 -1l3 -9v-8q-43 -12 -84.5 -31.5t-70.5 -54.5l-10 -16t-5 -18q0 -6 1 -9l26 -21q66 -22 136 -35t145 -17l280 -15q12 7 18 18.5t10.5 23.5t11 24t19.5 20q10 11 16.5 26t22.5 20q6 3 12 3q8 0 14 -6q1 -5 1 -15q0 -16 -6 -30t-14 -27.5t-16.5 -27t-13.5 -27.5l5 -5
q42 3 80 3h18l253 -5q67 -1 143 11q7 -5 7 -11zM421 441l-24 -29q-8 -14 -18.5 -27.5t-15.5 -30.5h11l47 73v14z" />
    <glyph glyph-name="u" unicode="u" horiz-adv-x="336" 
d="M347 20q0 -11 -10 -21q-10 -5 -20 -13t-18 -15q-25 -4 -46.5 -16t-47.5 -15q-9 -6 -21 -9t-24 -3q-15 0 -27 5q-2 -1 -6 -1q-7 0 -10 6t-5 11q-1 5 -1 8.5v7.5q0 21 5.5 39t10.5 36l-5 1q-10 0 -20 -7t-21 -12q-17 -7 -34 -21t-36 -14q-4 0 -7 1l-12 16q6 16 15.5 34.5
t19 38t19 38.5t16.5 35h14q0 -14 -7.5 -31.5t-17 -35.5t-18.5 -35.5t-12 -31.5l4 -1q6 0 14 5t16.5 11t16.5 11.5t14 7.5q14 10 29 20.5t29.5 22t28 24.5t23.5 29q4 5 10 5q11 0 11 -13q0 -6 -3 -10q-22 -27 -39.5 -54.5t-30.5 -59.5v-4q0 -11 -6 -21.5t-6 -19.5
q0 -10 15 -17q45 1 96.5 21t92.5 49q4 3 7 3q4 0 4 -5z" />
    <glyph glyph-name="v" unicode="v" horiz-adv-x="389" 
d="M422 72q0 -7 -3.5 -13.5t-11.5 -6.5l-27 -6t-19 -2q-13 0 -36 4q-9 -17 -23.5 -39.5t-35 -43t-46 -35t-55.5 -14.5h-3q-5 3 -6 8.5t-1 11.5l1 19q0 6 -1 8q5 17 10.5 35t7.5 38q8 9 12 19t7.5 20.5t7 20.5t11.5 19l4 16q0 6 -4 10q-14 -1 -25.5 -6.5t-22 -12.5t-21 -14.5
t-22.5 -13.5q-11 -12 -26 -25t-31.5 -25t-33 -23.5t-29.5 -20.5q-8 0 -8 8q0 9 8 15q24 15 48 35t48.5 40t49.5 38.5t51 31.5h3q34 0 40 -30q-5 -24 -16 -45t-16 -44q-14 -23 -17.5 -49t-12.5 -51q2 -5 7 -5q4 0 7.5 2.5t6.5 2.5q18 7 35.5 21t33 32t27 38.5t16.5 39.5
q18 -5 25 -8t18 -3q5 0 10 0.5t13 1.5q8 2 16 6t17 4q5 0 11 -3l1 -6v0z" />
    <glyph glyph-name="w" unicode="w" horiz-adv-x="471" 
d="M481 12q0 -6 -8 -12q-8 -5 -15.5 -9.5t-11.5 -10.5q-13 -8 -25.5 -15.5t-17.5 -17.5q-17 -4 -26 -15t-27 -15q-11 -14 -34 -22t-41 -8q-6 9 -6 19q0 14 6.5 28t6.5 27q-15 -4 -27.5 -13.5t-25 -19.5t-25.5 -17.5t-29 -7.5h-3q-3 9 -3 16q0 20 12.5 37.5t19.5 35.5
q7 12 13.5 24.5t13.5 25.5q23 25 35 55.5t31 58.5q-1 2 -1 6l3 16q0 7 -10 8q-9 -5 -19.5 -7.5t-20.5 -5t-19.5 -6.5t-16.5 -13q-28 -17 -51 -36.5t-50 -36.5q-9 -11 -23 -22t-28.5 -22t-28.5 -20.5t-24 -16.5l-4 -1q-4 0 -7.5 1.5t-3.5 5.5q1 3 8.5 9t5.5 8q16 11 36.5 26
t42.5 32.5t43.5 36t40.5 36.5q17 13 36.5 21t36.5 23q11 5 23.5 9t24.5 4q11 0 19.5 -4.5t13.5 -15.5q-3 -32 -14 -58.5t-26 -51.5t-31.5 -50t-28.5 -53q-5 -2 -7 -6t-3 -8.5t-3 -9.5t-6 -8q4 -3 8 -3q5 0 10 3.5t10 8.5t9.5 10t9.5 7l9 8q25 23 50 44.5t46 47.5q2 -1 5 -1
h4q7 0 8 -4q0 -9 -5 -17t-11 -16t-11.5 -15.5t-7.5 -16.5q-14 -18 -23.5 -40t-11.5 -45q10 0 17.5 4.5t14.5 10.5t13 11t13 7q16 11 34 18.5t27 19.5q13 5 29 17.5t24 17.5q8 -5 8 -11z" />
    <glyph glyph-name="x" unicode="x" horiz-adv-x="415" 
d="M424 15q0 -7 -6 -15q-20 -12 -34 -24t-33 -17q-17 -10 -34.5 -20.5t-37.5 -10.5h-7.5t-8.5 2q-14 11 -21.5 27t-15.5 32q-4 6 -14 6h-4q-7 -9 -16 -14.5t-18 -10.5t-18 -11t-16 -15h-11q-9 0 -9 7v2q2 6 8 11t13 9.5t13.5 9.5t11.5 11q14 6 24.5 15.5t22.5 20.5l-8 70
q-5 5 -14 5q-8 0 -17.5 -3.5t-18.5 -5.5q-39 -18 -77.5 -45t-73.5 -51l-5 3l5 20q26 18 50.5 36t49.5 33.5t52 26.5t58 16q8 -6 10 -15t3 -19.5t2 -20.5t8 -16h3q8 0 14 5t11.5 11t10.5 11t11 5t14 -9q-11 -17 -28.5 -30.5t-32.5 -27.5l-1 -8q0 -19 11 -34t19 -31
q7 -3 14 -3q14 0 28 8t28 13l6 3q17 8 36.5 20.5t36.5 25.5q6 0 6 -8z" />
    <glyph glyph-name="y" unicode="y" horiz-adv-x="319" 
d="M325 136q-6 -21 -20 -34t-29.5 -24.5t-29.5 -24t-20 -30.5q-10 -3 -19 -11.5t-14 -16.5q-35 -37 -68.5 -76.5t-65.5 -72.5q-17 -26 -37.5 -51.5t-32.5 -53.5q-26 -34 -46.5 -70.5t-37.5 -75.5q-13 -15 -13 -32q40 -21 77.5 -50t69 -64.5t56 -75t40.5 -80.5q6 -15 8 -30
t1 -30l-5 -94q-6 -6 -7 -13.5t-1.5 -15t-3.5 -14t-12 -9.5q-23 -42 -64.5 -68t-87.5 -26q-15 11 -31 22.5t-30.5 24.5t-25.5 28.5t-16 35.5q-24 36 -30.5 75t-15.5 82q-3 15 -4 30.5t-1 30.5q0 43 8 84.5t20 83.5q5 15 13 29.5t8 28.5q0 6 -1 9q-19 8 -38.5 13.5t-39.5 10.5
q-39 4 -79.5 7t-81.5 3q-29 0 -56.5 -3t-54.5 -7l-16 -2q-26 -3 -52.5 -6t-52 -8t-50 -13t-46.5 -21q-15 -7 -31.5 -13t-31.5 -14t-27.5 -18t-21.5 -25q-2 -1 -4 -3t-5 -2l-3 1q0 6 -4.5 12.5t-4.5 10.5q0 3 1 5q16 12 35 19t33 21q39 22 81.5 36.5t87 23t90.5 13.5t92 8
l14 1q148 11 277 -33q49 113 125.5 216t164.5 196q0 4 2.5 7t2.5 6t-5 6q-2 -1 -6 -1q-13 0 -20 12q3 9 4 19t1 20t1 20t6 18q-5 3 -9 3q-10 0 -18 -11t-17 -15q-8 -6 -21 -15.5t-27.5 -20t-27.5 -20t-21 -14.5q-6 -2 -7 -2q-6 0 -6 5q0 4 3.5 9.5t9.5 9.5q5 5 16.5 13
t25 17.5t26.5 19t21 17.5q9 3 17 10t15.5 14.5t15 13t16.5 5.5q8 0 16 -5q1 -3 1 -10l-11 -58q0 -5 3 -11.5t5 -11.5q14 4 24.5 16t24.5 14q23 17 47 39t44 45q15 0 15 -14zM126 -794q0 40 -11 77t-30 70t-44 63t-52 57q-14 6 -27 15.5t-25.5 19t-26 17.5t-29.5 12
q-18 -35 -26 -73t-21 -74q-1 -14 -1.5 -27t-0.5 -26q0 -42 5.5 -82t19.5 -79q10 -17 16 -37t19 -35q2 -17 10.5 -28.5t20.5 -20.5t25.5 -16.5t25.5 -16.5q7 -3 15 -3q12 0 22.5 6t20.5 14q23 10 40.5 28t29.5 40.5t18 48t6 50.5z" />
    <glyph glyph-name="z" unicode="z" horiz-adv-x="543" 
d="M550 12q0 -2 -0.5 -4t-0.5 -4q-45 -31 -92 -60.5t-93.5 -60.5t-90 -64.5t-82.5 -72.5q-15 -42 -38 -81.5t-51 -77t-58 -73.5t-58 -71q-42 -37 -87.5 -68.5t-93.5 -54.5l-4 -1q-8 0 -10 8t-4 14q2 37 18.5 68.5t41 59t52.5 52t52 47.5q57 54 115.5 104.5t115.5 101.5
q6 20 13 37.5t11 37.5q11 34 17.5 69t11.5 71l-6 80q-9 6 -19 6h-4q-10 0 -17.5 -6t-14.5 -13.5t-14 -13.5t-15 -6q-6 0 -12 3v11q23 22 42.5 47t36.5 51q-4 2 -7 2q-5 0 -9 -3.5t-8.5 -8t-10 -8t-12.5 -3.5q-20 -11 -39.5 -27t-40 -33.5t-41.5 -35.5t-43 -31h-9q1 12 10 23
q21 14 46 36.5t41 37.5q28 26 60 42.5t60 40.5h15q8 0 14.5 -2.5t6.5 -12.5q-6 -17 -15 -32.5t-18 -31.5l22 -4t16 -14q3 -20 6 -40.5t3 -40.5q0 -14 -2 -27t-7 -26q-3 -37 -12.5 -71.5t-20.5 -68.5h4q11 0 20 10.5t20 15.5q30 23 59.5 42.5t58.5 37.5l58 36t59 38
q9 7 22.5 16.5t24.5 16.5q5 -1 6 -4t1 -6zM147 -288q-39 -34 -78.5 -67t-78 -67t-74.5 -69.5t-67 -74.5q-17 -14 -28 -36t-11 -45v-3q5 0 6.5 1.5t3.5 1.5l3 -1q43 19 79 48t67.5 62.5t60.5 69.5t59 71q14 28 33 54.5t25 54.5z" />
    <glyph glyph-name="braceleft" unicode="{" horiz-adv-x="273" 
d="M405 495q-2 -10 -9.5 -12.5t-17.5 -2.5h-11q-5 0 -10.5 -0.5t-9.5 -2.5q-23 -29 -41 -62.5t-36 -65.5q-8 -14 -14.5 -29.5t-8.5 -32.5q-12 -4 -18 -15t-11.5 -23t-12.5 -21t-21 -9h-6.5t-8.5 2q-4 -2 -8.5 -3.5t-7.5 -6.5q-1 -2 -1 -6q0 -6 3.5 -9t8 -5.5t8.5 -5t4 -7.5
t-2 -8q-5 -11 -14.5 -19.5t-9.5 -22.5q0 -5 1 -8q-19 -26 -30 -54.5t-22 -56.5q-15 -29 -32 -55.5t-29 -55.5l-1 -5q0 -9 6 -16t13.5 -12.5t14 -11.5t6.5 -14q0 -9 -8 -18q-11 3 -18 10.5t-12.5 17l-11 19t-14.5 16.5v6q0 11 6.5 21.5t13.5 21.5l3 5q20 33 38.5 66.5
t26.5 71.5q13 25 23.5 49.5t18.5 50.5q-6 1 -8 4.5t-3.5 8t-3.5 8t-8 3.5h-2q-4 4 -4.5 8.5t-0.5 10.5q13 9 30 13.5t32.5 10t27.5 15.5t15 31q13 22 22.5 44.5t21.5 44.5q12 21 25.5 41.5t15.5 46.5q15 15 35 24.5t40 9.5q12 0 27 -5z" />
    <glyph glyph-name="bar" unicode="|" horiz-adv-x="137" 
d="M239 389q-6 -18 -15.5 -33.5t-19.5 -31t-18 -31.5t-11 -34q-23 -28 -39.5 -60t-29.5 -66t-24.5 -68t-24.5 -65l6 -9q-11 -2 -14 -10t-3 -18v-18q-5 -5 -10.5 -6t-8.5 -5q-6 3 -7.5 6.5t-2 7t-1.5 6.5t-7 6q3 6 5.5 13t12.5 8q14 39 27.5 77.5t28.5 75.5t33.5 73.5
t43.5 72.5q10 33 30.5 61t34.5 60q2 -2 6 -2t5 -3l3 -7v0z" />
    <glyph glyph-name="braceright" unicode="}" horiz-adv-x="354" 
d="M365 449q0 -4 -1 -7q-20 -24 -33 -51t-23 -55t-17.5 -56.5t-17.5 -56.5q3 -7 8.5 -9.5t11.5 -4.5t10.5 -5.5t6.5 -12.5q-5 -13 -14 -19.5t-19.5 -11t-21.5 -9.5t-19 -14q-15 -17 -24.5 -35t-18 -37t-17.5 -37.5t-22 -35.5v-2q0 -10 -7.5 -17t-7.5 -19q-7 -7 -11 -15.5
t-8 -17.5t-8.5 -18.5t-12.5 -16.5q-3 -14 -8.5 -29t-18.5 -23q-6 -2 -13 -3t-13.5 -2.5t-12 -5.5t-8.5 -12l-5 -1q-7 0 -11.5 4t-9.5 7q1 9 7 13.5t13.5 7t15.5 5.5t13 10q19 1 26 16t16 28q3 4 3 9.5t0.5 11t3 9.5t10.5 5q8 21 18.5 41.5t23.5 40.5l10 28t13 25
q2 16 13 32.5t19 33.5q13 9 26.5 20.5t31.5 16.5l13 10q-1 5 -5 9t-8.5 7.5t-9 8t-5.5 10.5q14 42 28.5 83t30.5 82q9 18 21 33t17 36q-14 5 -23.5 13.5t-19.5 19.5l2 9q7 -5 18 -9t20.5 -9t16.5 -11.5t7 -16.5z" />
    <glyph glyph-name="asciitilde" unicode="~" horiz-adv-x="441" 
d="M538 299q0 -1 -2 -5l-6 1q-14 0 -25 -8t-23 -8q-6 0 -9 1l-7 -4q-4 -1 -11 -1t-16 2.5t-19 6.5l-28 10t-22 5q-17 0 -32 -11q-7 3 -16 3t-11 8q19 10 33 13.5t25 3.5q12 0 21.5 -3t18.5 -6.5t19 -6.5t22 -3h5q13 2 25.5 4.5t23.5 10.5q6 3 12 3l11 -1q2 -4 6.5 -7t4.5 -8
z" />
    <glyph glyph-name="exclamdown" unicode="&#xa1;" horiz-adv-x="500" 
d="M280 93q0 -4 -4 -7.5t-4 -8.5q-5 -3 -11 -2.5t-12 -0.5q-8 5 -8 11q0 8 9.5 14.5t10.5 14.5q7 0 10.5 -4.5t6.5 -9.5l2 -7v0zM231 33q-7 -18 -20.5 -36t-25.5 -32q-26 -53 -62 -102t-66 -100q-34 -40 -65 -82.5t-50 -90.5q-6 0 -7.5 -5t-2 -10t-1.5 -9.5t-6 -4.5
q-4 0 -6 1q-12 4 -12 15t8 17q44 66 91.5 134.5t92.5 136.5l10 15q32 38 55.5 81t54.5 81h2q5 0 6.5 -3.5t3.5 -5.5z" />
    <glyph glyph-name="cent" unicode="&#xa2;" horiz-adv-x="349" 
d="M316 80q-21 -17 -42 -34.5t-44.5 -32t-50.5 -24t-60 -10.5q-9 2 -18 5t-17 8l-55 -100q0 -3 -1 -7t-3 -9t-3 -9t-1 -7q-3 -10 -13 -10q-7 0 -12 5v5q0 14 6.5 26.5t16.5 21.5q12 23 25 46.5t27 46.5q-20 15 -23 36q-11 20 -11 42q0 21 8.5 41.5t21.5 37.5q19 29 49 46
t62 28q4 1 11 1q12 0 21 -4q26 31 47 66t44 67h8q1 -2 1 -5q0 -8 -5.5 -15.5t-8.5 -15.5q-14 -26 -32 -53.5t-37 -54.5q3 -2 9 -8q1 -5 2.5 -11t1.5 -11q0 -3 -2 -9q-8 -12 -18.5 -23.5t-22.5 -18.5l-8 -2t-9 -1q-12 0 -16 9v4q0 22 15 31l5 1q2 -4 2 -5l-3 -12q0 -4 4 -7
q11 2 20 13.5t16 19.5l1 5q0 11 -13 21q-5 1 -14 1q-20 0 -38 -7t-34 -18.5t-29.5 -25.5t-24.5 -29q-7 -14 -13 -28.5t-6 -30.5q0 -15 7 -28q8 -17 22.5 -35t36.5 -17q51 2 92.5 27.5t79.5 54.5q3 3 13 11t15 8z" />
    <glyph glyph-name="sterling" unicode="&#xa3;" horiz-adv-x="521" 
d="M545 -78q0 -2 -2 -8h-5q-14 0 -23 -8t-19 -13h-12q-3 0 -21 -1t-32 -1q-24 0 -47 3t-45 11q-26 4 -48.5 14t-45 21.5t-45.5 22t-48 15.5q-14 -20 -32.5 -33t-35.5 -26q-20 -1 -41 -6.5t-41 -5.5q-13 0 -24.5 4t-22.5 15q-10 10 -18.5 20.5t-8.5 24.5q0 2 0.5 3.5t0.5 3.5
q19 26 49 36t63 10q13 0 25.5 -1t24.5 -3q14 -2 26.5 -10.5t26.5 -8.5q4 0 10 2q7 15 18.5 29t23 27.5t22 28t16.5 30.5q-19 9 -42 8.5t-43 4.5v1q0 2 -1 3.5t-1 3.5q0 1 0.5 2t4.5 5l98 -7q11 8 17.5 17.5t11.5 20t9.5 21t11.5 20.5l-5 6q-23 -5 -47 -6.5t-48 -1.5
t-47.5 1.5t-47.5 3.5q-2 3 -3.5 5.5t-1.5 5.5t1 5q22 -2 44 -3.5t45 -1.5q32 0 64.5 3.5t63.5 12.5q19 27 36.5 55.5t35.5 56t38.5 52.5t46.5 46q5 2 11.5 3.5t13.5 1.5q10 0 18 -4t11 -13q8 -11 8 -23q0 -13 -6 -25.5t-8 -26.5q-38 -41 -80.5 -74.5t-91.5 -52.5
q-16 -8 -25.5 -20.5t-17 -27t-14.5 -28.5t-18 -26q9 -7 19.5 -10.5t21.5 -5t22 -2.5t21 -2q5 0 8 3t6 3q2 0 3 -1q8 -4 8 -13q0 -4 -1 -7.5t-1 -8.5v-2q-4 -1 -11 -1q-11 0 -23.5 4t-25 9.5t-24.5 9.5t-22 4q-12 0 -22 -8t-16 -29q-18 -21 -32.5 -43.5t-31.5 -42.5l26 -14
q27 -14 54.5 -28.5t56 -25.5t58.5 -18t60 -7q17 0 34.5 2.5t35.5 8.5q6 10 15.5 15t18.5 11q4 -3 7.5 -8.5t3.5 -12.5zM522 426q-2 11 -9.5 13t-15.5 2h-10q-14 -9 -24.5 -21t-19.5 -25t-18 -25.5t-20 -22.5q-11 -19 -25.5 -38.5t-19.5 -38.5q25 12 50 27.5t47.5 34.5
t39.5 42.5t25 51.5zM126 -16q-20 8 -44 14t-49 6q-24 0 -45.5 -8t-37.5 -28q0 -8 1 -14t7 -11q11 -10 23.5 -14t26.5 -4q17 0 33.5 4.5t30.5 10.5q14 9 31.5 17.5t22.5 26.5z" />
    <glyph glyph-name="yen" unicode="&#xa5;" horiz-adv-x="364" 
d="M331 365q0 -14 -5 -27t-19 -21q-3 -17 -20 -29t-33 -18q-7 -15 -17 -29t-20 -28.5t-18.5 -29.5t-11.5 -32q-8 -7 -10.5 -17t-7.5 -18q14 1 28 3t30 2q1 -3 1 -7q0 -13 -10 -13.5t-18 -3.5q-5 -1 -13 -1q-7 0 -13.5 1t-12.5 2q-2 -6 -5 -12t-5 -13q7 -7 17 -8.5t20.5 -2
t19 -3t11.5 -12.5q-11 -6 -19 -6q-12 0 -24.5 5t-26.5 5l-8 -1q-11 -12 -17 -25.5t-10.5 -28.5t-8 -30t-9.5 -28l4 -8t6 -4q3 0 5 2q12 9 24.5 15t25.5 11t26 11.5t24 16.5q26 7 50.5 14.5t50.5 11.5q2 -3 4.5 -5.5t2.5 -6.5v-2q-20 -8 -41 -13.5t-41.5 -12t-40 -15.5
t-36.5 -23h-2q-13 0 -23 -5.5t-18.5 -14t-17 -17.5t-18.5 -16q-16 -32 -28 -64.5t-22 -66.5q-17 -32 -33.5 -60t-33.5 -60q-8 -5 -16 -14.5t-16.5 -18.5t-17.5 -15.5t-19 -6.5q-8 0 -18 6q-13 5 -16.5 16.5t-4.5 23.5q6 32 20.5 61t34 55t43.5 49.5t48 45.5q10 9 22 19.5
t22.5 22t17 25t6.5 29.5q8 30 19.5 59.5t21.5 59.5q-4 5 -9 6.5t-11 1.5h-9q-6 0 -12 1.5t-11 6.5q5 12 19 12q8 0 16.5 -2t17.5 -2q7 0 10 1q7 8 11 16t7 17q-8 0 -20 -3q-5 6 -13 6q-6 0 -12.5 -1.5t-11.5 -1.5q-11 0 -15 11q12 12 28 10l32 -2q5 -2 9 -2.5t8 -1.5
q2 7 4.5 14t5.5 13q14 25 24.5 50.5t30.5 48.5q5 6 5 13q0 6 -4 11t-8.5 10t-8.5 10.5t-4 13.5q0 4 3 12l-4.5 4.5t-5.5 2.5q-2 0 -5 -3q-20 -16 -29 -33t-17 -37h-2q-8 0 -10 8q0 13 5.5 24t13.5 20.5t16.5 19t16.5 19.5q6 3 11 3q8 0 13.5 -6.5t13.5 -12.5q1 -10 3 -19
t10 -16h11q15 29 33.5 54.5t42.5 48.5h4q6 0 11 -2.5t5 -9.5q1 -3 1 -6.5v-6.5zM32 -187q0 5 -3 10q-26 -20 -51.5 -44t-47 -51.5t-37 -58t-19.5 -63.5q5 -12 21 -12q11 9 23 18t22.5 19t18 22t9.5 26q14 22 28 46t24 50q1 10 6.5 19.5t5.5 18.5z" />
    <glyph glyph-name="dieresis" unicode="&#xa8;" horiz-adv-x="500" 
d="M421 313q-3 -3 -5 -8t-4 -10.5t-4.5 -9t-7.5 -3.5q-2 0 -8 2q-5 10 -5 19q0 10 8 17q12 0 20 -4l6 -3v0zM336 313q-3 -3 -5 -8t-4 -10.5t-5 -9t-7 -3.5q-1 0 -7 2q-6 9 -6 19t8 17q13 0 21 -4q4 -2 5 -3z" />
    <glyph glyph-name="copyright" unicode="&#xa9;" horiz-adv-x="763" 
d="M723 294q0 -13 -8 -24q0 -47 -23.5 -87.5t-57.5 -74.5q-16 -16 -28.5 -29.5t-25 -26t-26.5 -24t-33 -24.5q-23 -18 -46.5 -36t-50 -32.5t-56.5 -24.5t-66 -11q-14 3 -29 9t-27.5 15t-21 21t-11.5 27q-14 26 -14 53t11 52.5t27 47.5q24 35 61.5 56t76.5 35q4 1 7.5 1h6.5
q18 0 33 -8t26 -20q1 -8 3 -14t2 -14q0 -7 -2 -11q-10 -14 -23.5 -29.5t-28.5 -23.5q-5 -1 -10.5 -2t-10.5 -1q-15 0 -20 11v7q0 24 18 38h7q2 -2 2 -6l-3 -16q0 -4 4 -8q15 3 25.5 17t20.5 25v5q0 15 -15 27q-5 1 -8.5 1h-8.5q-25 0 -47.5 -9t-42.5 -23t-37 -32t-31 -36
l-2 -5q-7 -17 -14.5 -34t-7.5 -35q0 -17 9 -35q5 -11 12 -22.5t16 -21.5t20.5 -16t25.5 -5q31 1 59 10t54.5 23.5t50.5 32t48 35.5q46 38 84 78q16 17 32 36t29.5 38.5t23 39.5t12.5 39q4 13 4 30q0 22 -8.5 43t-22 40t-29.5 35.5t-31 30.5q-33 18 -66 25.5t-66 7.5
q-51 0 -101.5 -13.5t-101.5 -28.5l-24 -7q-23 -13 -44.5 -27.5t-46.5 -19.5q-22 -17 -44.5 -32t-44 -32t-40.5 -36.5t-33 -44.5q-23 -24 -39 -54t-37 -54q-16 -36 -26.5 -77.5t-10.5 -84.5q0 -29 6 -57t20 -53q1 -10 6 -19t11 -17t12 -16.5t9 -18.5q42 -51 104 -73t129 -22
q55 0 109 14q31 16 65.5 25t63.5 32q17 5 31.5 15t33.5 12q15 7 28.5 17.5t27 21.5t27 21t27.5 16q4 -6 4 -9q0 -8 -8 -14.5t-13 -11.5q-12 -5 -23 -12.5t-22 -16t-22 -16t-24 -11.5q-13 -3 -24.5 -9t-23 -13t-22.5 -14t-23 -11l-9 -3q-54 -18 -110 -34.5t-117 -16.5
q-8 0 -18 0.5t-19 1.5l-14 4q-45 13 -87 29t-75 52q-33 38 -49.5 83.5t-31.5 91.5q-1 8 -1 16v16q0 70 25.5 133t67.5 118t96 101t111 82q65 41 138 62.5t151 30.5q12 2 24 2h23q66 0 115 -25.5t85 -93.5q1 -9 5.5 -18t9 -17t8.5 -17t4 -18z" />
    <glyph glyph-name="ordfeminine" unicode="&#xaa;" 
d="M389 196q-1 -1 -1 -2v-1l-16.5 -11t-15.5 -10t-19 -8.5t-26 -6.5q-5 -1 -9 -1.5t-8 -0.5q-7 0 -13.5 1t-11.5 5q-5 3 -5.5 8.5t-0.5 10.5v3q0 9 -3 13q-21 -13 -42 -27.5t-48 -15.5q-8 4 -12 11.5t-4 16.5q0 3 0.5 6t0.5 6q2 3 4 8t4.5 11t5.5 11t6 7q-6 -1 -14.5 -5
t-17.5 -10t-17.5 -12t-13.5 -10q-1 -1 -3 -1t-3 1.5t-4 1.5q-1 1 -1 2q0 3 4.5 7t6.5 8q14 12 28 19.5t25 16.5q16 9 32 20.5t32 22t33 17.5t37 7l10 -1q5 -3 8.5 -5t7.5 -6v-6q0 -11 -4.5 -21.5t-9.5 -20t-10 -18t-6 -15.5q-2 -8 -6 -17t-4 -17q0 -5 4 -13q6 -3 14 -3
q17 0 36.5 9.5t35.5 22.5q3 0 6.5 3t6.5 5l1 -1v-10v-5v0zM335 115q0 -6 -4 -8.5t-10 -3.5t-12.5 -1.5t-12.5 -1.5q-5 -1 -9.5 -1h-9.5t-15 0.5t-21 2.5q-13 1 -28 3q-16 0 -31 -4q-7 6 -20 6l-32 -2q-15 -2 -21 10q17 11 38 9l46 -2q12 -3 24 -4t23 -1q23 0 45.5 2.5
t48.5 2.5q1 -3 1 -7zM299 296q-2 0 -4.5 0.5t-4.5 0.5q-7 0 -10 -1q-2 -1 -12.5 -6t-23.5 -14t-26.5 -21.5t-22.5 -27.5q-6 -8 -12 -20t-6 -22q0 -5 2 -8q2 -1 8 -1q12 0 25.5 7.5t16.5 12.5q14 8 26 20.5t17 16.5q11 14 20 31t11 32h-4z" />
    <glyph glyph-name="guillemotleft" unicode="&#xab;" horiz-adv-x="315" 
d="M293 202q0 -7 -7 -12t-12 -11q-10 -9 -19.5 -14t-18.5 -9.5t-18 -10.5t-18 -16q-5 0 -11 -3t-11 -7q-6 -4 -12 -10q10 -6 18 -15.5t17 -17.5q16 -26 38 -40t44 -34q-6 -10 -12 -10t-12 5.5t-12 8.5q-12 7 -19 15.5t-13.5 16t-14 15t-19.5 13.5q0 5 -5.5 10.5t-12 11
t-12 10.5t-5.5 10q0 4 1 7l2 -1q7 13 20 20t26 16q29 10 47.5 28.5t43.5 35.5q7 -6 7 -12zM187 202q0 -7 -7.5 -12t-12.5 -11q-9 -9 -18.5 -14t-18.5 -9.5t-18 -10.5t-18 -16q-11 0 -19 -7t-16 -13q10 -6 18 -15.5t18 -17.5q16 -26 38 -40t44 -34q-6 -10 -12 -10t-12.5 5.5
t-12.5 8.5q-11 7 -18 15.5t-13.5 16t-14 15t-19.5 13.5q0 7 -5 12t-11 9t-11.5 8t-7.5 10q0 1 -1 1q0 2 1 2v7q1 0 2 -1q8 13 21 20t26 16q28 10 47 28.5t43 35.5q8 -8 8 -12z" />
    <glyph glyph-name="threesuperior" unicode="&#xb3;" horiz-adv-x="0" 
d="M748 -231q-6 -8 -13.5 -14t-16 -10.5t-16.5 -9.5t-14 -12q-27 -7 -51 -20t-54 -17q-26 -9 -52.5 -10.5t-53.5 -1.5q-37 0 -74 3.5t-74 8.5q-32 10 -65.5 13.5t-63.5 17.5h-4q-19 0 -37 6t-35.5 13t-35.5 13t-36 6q-23 0 -44 -11q-45 -7 -92 -13.5t-94 -6.5q-30 0 -59 4
t-56 14q-12 8 -25 15t-20 19q-3 6 -3 11q0 8 3 15t5 14q9 9 19.5 13.5t22 7t23.5 4t24 5.5h36q62 0 119.5 -17.5t113.5 -37.5l28 -10l28 1q55 19 108 41.5t102 55.5q3 -2 7.5 -3t4.5 -6q-3 -10 -9.5 -15.5t-15 -9.5t-18 -6.5t-17.5 -5.5q-31 -24 -66 -36.5t-70 -28.5
q8 -14 23.5 -16.5t29.5 -7.5q69 -15 137.5 -31t142.5 -20q9 -1 17.5 -1h17.5q43 0 86 7.5t79 25.5q29 6 52.5 21t49.5 29l6 -6v0zM18 -227q-51 19 -107 34.5t-114 15.5q-21 0 -42 -2.5t-41 -8.5q-10 -5 -19 -10.5t-10 -17.5q33 -21 70.5 -29.5t77.5 -8.5q33 0 66 4t65 10
q14 2 29.5 3t24.5 10z" />
    <glyph glyph-name="acute" unicode="&#xb4;" horiz-adv-x="500" 
d="M545 332q-14 -23 -32.5 -35.5t-34.5 -32.5q-5 0 -8 3.5t-6 6.5q11 24 33 43t45 29q6 -2 6 -7z" />
    <glyph glyph-name="periodcentered" unicode="&#xb7;" horiz-adv-x="286" 
d="M187 106q-3 -3 -5 -8t-4 -10.5t-5 -9t-7 -3.5q-1 0 -7 2q-6 9 -6 19t8 17q12 0 20 -4l6 -3v0z" />
    <glyph glyph-name="cedilla" unicode="&#xb8;" horiz-adv-x="442" 
d="M172 -128q-8 -20 -19.5 -38.5t-20.5 -37.5q-6 -6 -9.5 -13.5t-5.5 -15t-5.5 -14.5t-9.5 -13q-14 0 -19 14q22 28 38 57.5t31 60.5q5 0 6.5 1.5t2 2.5t3 0.5t8.5 -4.5z" />
    <glyph glyph-name="onesuperior" unicode="&#xb9;" horiz-adv-x="0" 
d="M954 -200q0 -6 -0.5 -11.5t-1.5 -10.5q-11 -21 -27.5 -32t-36.5 -16.5t-41.5 -7.5t-41.5 -5q-41 -11 -83 -14.5t-87 -3.5q-51 0 -102.5 3.5t-102.5 6.5q-17 2 -39 2t-42 5q-5 -6 -14 -6l-18 2q-8 0 -12 -3q-41 -13 -83.5 -22.5t-82.5 -23.5q-26 -1 -47.5 -8.5
t-44.5 -15.5q30 -16 67 -19q45 -11 89 -21.5t89 -10.5h5q34 4 67.5 12t66.5 15.5t66.5 13.5t69.5 6h18q10 -4 21.5 -5.5t22.5 -4t20.5 -7.5t15.5 -17q3 -8 3 -15q0 -9 -4 -17.5t-12 -13.5q-24 -10 -50.5 -13.5t-54.5 -3.5q-32 0 -64 2.5t-62 3.5q-34 2 -68 11.5t-68 9.5
q-31 0 -59 -14q-54 -6 -102 -23t-100 -28l-5 -5q28 -11 56.5 -18.5t55.5 -22.5q6 -1 12 -1.5t12 -0.5q22 0 45 4t46 9.5t45.5 9.5t44.5 4q20 0 40 -5t40 -17q8 -6 9.5 -16t1.5 -18q-13 -16 -30.5 -21.5t-37.5 -5.5q-22 0 -44 4t-40 6h-3q-24 0 -45 7t-44 10q-10 5 -17 5
q-8 0 -23 -6.5t-22 -6.5l-10 1q-11 -9 -24.5 -7.5t-24.5 -5.5q-9 0 -17 -4.5l-16 -9t-16 -8.5t-17 -4h-3q-3 -4 -7 -4.5t-8 -0.5h-5q-8 0 -11 -2q-9 -7 -19 -10.5t-20 -7.5t-18.5 -10t-12.5 -17q8 -9 19.5 -11.5t23.5 -3.5t23 -4.5t18 -13.5q-3 -3 -2 -7.5t-4 -6.5
q-8 2 -15.5 3.5t-13.5 7.5q-20 4 -40 10t-38 20q0 15 8.5 24t21.5 15t27 10.5t26 10.5q22 4 42 12t40 17t40.5 16.5t42.5 12.5q-4 6 -10.5 9t-13.5 5.5l-14 5t-13 7.5q-20 9 -39 12.5t-39 3.5q-29 0 -57 -6.5t-56 -15t-56 -17.5t-56 -13q-15 -2 -31 -4t-32 -2q-19 0 -37 4
t-34 13l-1 6q0 14 13 25.5t24 19.5q35 15 77 22.5t86 7.5q73 0 138 -20q11 2 20.5 3.5t17.5 9.5q30 5 58.5 13t56.5 17t56.5 17t58.5 14q-11 6 -24.5 8.5l-27 5l-27 5t-25.5 8.5q-37 5 -74 13.5t-75 8.5q-30 0 -57 -7q-93 -16 -184 -33t-189 -20q-8 3 -17 3.5t-17.5 2.5
t-15 6.5t-8.5 15.5q1 17 10.5 26.5t22.5 15.5t28 10t27 9q37 5 73.5 6.5t74.5 1.5q53 0 105.5 -3.5t104.5 -9.5q5 -1 10.5 -1h10.5q31 0 60.5 5.5t58.5 14t57.5 17t58.5 14.5q18 6 37 9.5t38 11.5q-1 9 -8 9.5t-12 3.5q-40 7 -78.5 15t-79.5 8q-21 0 -42 -3
q-23 -9 -47.5 -12t-50 -4.5t-50.5 -3t-50 -7.5h-23q-20 0 -41 -0.5t-41 -0.5q-58 0 -114 5.5t-110 23.5q-7 8 -17.5 13t-10.5 18q5 23 22.5 33t37.5 16q14 1 26.5 1h26.5q84 0 163 -11t163 -19q39 -4 78 -13.5t77 -9.5q31 0 59 11q18 8 38 12.5t39.5 9.5t38 11.5t34.5 18.5
q-3 4 -7 6.5t-4 6.5q0 3 4 7q16 -2 31.5 -8t30.5 -6q6 0 9 1q2 -6 2 -9q0 -11 -9 -14h-5q-14 0 -22 -7q-23 -3 -43.5 -9.5l-41 -13l-41 -13t-42.5 -9.5l-5 -4q48 -14 96.5 -23.5t99.5 -13.5q40 7 79 19t81 12h10q25 10 52.5 16.5t55 11.5t55 9.5t54.5 12.5h4q38 0 74.5 8.5
t73.5 8.5q16 0 31.5 -2.5t30.5 -9.5q5 -4 6.5 -9t1.5 -11zM938 -206q-2 12 -13.5 13.5t-19.5 3.5q-61 0 -121.5 -8t-120.5 -19.5t-120 -25t-119 -23.5l1 -6q53 -5 106 -8.5t107 -3.5q51 0 100.5 4t98.5 14q13 5 28.5 9t29.5 9.5t25.5 15t17.5 25.5zM649 -412q0 7 -3 10
l-37 15h-18q-63 0 -122.5 -9t-116.5 -26v-5l80 -12h15q26 0 53.5 -2.5t54.5 -2.5q25 0 49 4.5t45 18.5v9zM410 -567q0 13 -10 15q-20 5 -38.5 8.5t-38.5 3.5q-24 0 -45 -7q-6 -5 -13 -5.5l-14 -1t-14 -2t-12 -7.5q4 -4 10 -5t11 -3q24 -4 49.5 -9.5t51.5 -5.5q17 0 33 3.5
t30 13.5v2zM7 -227l-81 9q-29 7 -64 12t-68 8t-61.5 5t-45.5 3l-89 5q-24 2 -46 -4.5t-40 -23.5l-1 -4q0 -5 4.5 -6.5t6.5 -6.5q32 -8 64.5 -14t67.5 -9q45 -3 92 -3q70 0 138.5 6t135.5 17zM-109 -366q-24 3 -48 4t-49 1h-33h-14.5t-14.5 1h-40q-10 0 -17 1t-14 1
q-35 0 -65.5 -7.5t-62.5 -18.5q-6 -3 -15.5 -6.5t-9.5 -12.5q0 -4 1 -6q22 -11 50 -11t56.5 6.5t55.5 6.5h3q44 10 89.5 15t87.5 16q11 3 21.5 4t18.5 6zM-97 -511q0 2 -1 3l-14 6q-22 1 -43.5 1.5t-42.5 0.5q-41 0 -78.5 -6.5t-70.5 -29.5q-2 -3 -4 -6.5t-2 -7.5q0 -3 4 -6
q19 -3 38 -3q53 0 104.5 15t102.5 26q2 2 4.5 3t2.5 4z" />
    <glyph glyph-name="ordmasculine" unicode="&#xba;" horiz-adv-x="294" 
d="M316 236q-17 -9 -27 -12t-19 -3q-6 0 -12.5 1t-14.5 2q-12 -25 -32.5 -44t-40.5 -38q-6 -2 -12 -4.5t-13 -2.5q-2 0 -4.5 1t-4.5 3q-6 8 -7.5 16t-1.5 17q0 21 7.5 42t14.5 38l21 39q-2 10 -5.5 20.5t-3.5 21.5q0 8 2.5 16t10.5 14q12 8 29 8q24 -11 44 -27.5t20 -45.5
v-11q0 -10 -2 -20.5t-6 -18.5q2 -3 5.5 -4.5t6.5 -1.5q5 0 13 3t16 8q2 -1 4.5 -1h3.5q5 0 7 -0.5t2 -5.5zM286 115q0 -6 -4 -8.5t-10 -3.5t-12.5 -1.5t-12.5 -1.5q-5 -1 -9.5 -1h-9.5t-15 0.5t-21 2.5q-13 1 -28 3q-16 0 -31 -4q-7 6 -20 6l-32 -2q-15 -2 -21 10
q17 11 38 9l46 -2q12 -3 24 -4t23 -1q23 0 45.5 2.5t48.5 2.5q1 -3 1 -7zM250 284q0 11 -3 21t-5 19q-11 8 -20 18t-23 10q-6 0 -9 -2q-2 -6 -6.5 -10t-4.5 -10q0 -5 2 -8q0 -13 12 -13q5 0 10 1.5t8 3.5q5 -3 5 -7q0 -6 -9 -8.5t-11 -8.5q4 -13 14.5 -19.5t23.5 -12.5l6 -1
q10 11 10 27zM223 235q-14 3 -24.5 14t-17.5 19q-14 -19 -24.5 -41.5t-10.5 -48.5q0 -10 1 -14t2 -6q4 0 10.5 2t14.5 10q13 15 28.5 30t20.5 35z" />
    <glyph glyph-name="guillemotright" unicode="&#xbb;" horiz-adv-x="357" 
d="M313 106l-1 -1q-2 -6 -7.5 -10t-11.5 -8t-11 -9t-5 -12q-12 -6 -19.5 -13.5t-14 -15t-13.5 -16t-18 -15.5q-6 -3 -12.5 -8.5t-12.5 -5.5t-12 10q22 20 44 34t38 40q10 8 18 17.5t18 15.5q-8 6 -16 13t-19 7q-9 10 -18 16t-18 10.5t-18.5 9.5t-18.5 14q-5 6 -12.5 11
t-7.5 12q0 4 8 12q24 -17 43 -35.5t47 -28.5q13 -9 26 -16t21 -20l2 1v-7q1 0 1 -2zM206 108q0 -5 -5.5 -10t-12 -10.5t-12 -11t-5.5 -10.5q-12 -6 -19.5 -13.5t-14 -15t-13.5 -16t-19 -15.5q-6 -3 -12 -8.5t-12 -5.5t-12 10q22 20 44 34t38 40q9 8 17 17.5t18 15.5
q-6 6 -12 10q-5 4 -11 7t-11 3q-9 10 -18 16t-18 10.5t-18.5 9.5t-19.5 14q-5 6 -12 11t-7 12q0 6 7 12q25 -17 43.5 -35.5t47.5 -28.5q13 -9 26 -16t20 -20q1 0 2 1q1 -3 1 -7z" />
    <glyph glyph-name="onequarter" unicode="&#xbc;" horiz-adv-x="0" 
d="M952 -118q-6 -14 -11.5 -18.5t-19.5 -10.5q-17 -15 -33.5 -33t-29.5 -34q-18 -11 -35 -23.5t-34 -24.5t-35 -23t-37 -18q-11 -14 -26 -19t-30.5 -8t-31.5 -5.5t-30 -10.5q-33 -6 -66.5 -4t-64.5 -9q-57 4 -118 4.5t-118 8.5q-46 7 -93 10t-93.5 7.5t-91 12t-86.5 23.5
q-42 6 -81.5 16t-77.5 21q-6 2 -9 2q-11 0 -17 -9.5t-15 -11.5q-25 -13 -51 -22t-52 -19q-8 -8 -18 -8.5t-20 -4.5q-91 -32 -183.5 -48.5t-197.5 -18.5q-20 3 -41.5 4.5t-43.5 4t-42.5 8.5t-38.5 19q-12 5 -15.5 13.5t-3.5 19.5v9.5t1 9.5v3q29 34 66 53.5t78 27.5
q44 17 92 23.5t98 6.5q68 0 128 -9h20q65 0 123.5 -12t120.5 -19q27 7 49.5 24.5t46.5 31.5q10 2 16 8.5t17 6.5v-14q-21 -17 -43 -32t-39 -32q30 -13 62 -22t64.5 -15.5t65.5 -12.5t65 -14q23 -6 49.5 -8t49.5 -6q84 -6 169.5 -14.5t173.5 -8.5q37 0 73 2.5t73 6.5
q42 4 78 17.5t69 33.5t64 43.5t63 47.5q15 18 33 34t29 38q5 2 11.5 7t12.5 5q8 0 12 -11zM-347 -252q-72 17 -150 23.5t-158 11.5q-12 1 -24 1.5t-24 0.5q-68 0 -130 -15t-122 -35q-8 -1 -9.5 -8t-8.5 -7q-17 -6 -28 -19.5t-16 -30.5q15 -20 37 -26l44 -12q48 -3 97 -3
q70 0 140 7t135 24q22 10 45 17.5l46 15t45.5 16.5t43.5 21l3 1l20 6t14 11z" />
    <glyph glyph-name="threequarters" unicode="&#xbe;" horiz-adv-x="0" 
d="M1078 -268q-2 -18 -12 -29t-23.5 -19t-28.5 -14.5t-27 -16.5q-39 -14 -79 -23t-79 -20h-61q-71 0 -142.5 4.5t-140.5 15.5q-75 5 -152.5 19t-152.5 28q-85 -25 -167 -54t-158 -74q-20 -11 -38.5 -27t-36.5 -30q-2 -1 -5 -1q-8 0 -12.5 6.5t-10.5 8.5q35 17 70.5 37.5
t70.5 43.5q60 30 122.5 52.5t126.5 45.5q-17 8 -35.5 13.5t-38.5 5.5h-8t-8 -1q-30 -12 -61 -17t-63.5 -7.5t-66 -3.5t-66.5 -5q-16 3 -33 4t-33 4.5t-29.5 11t-22.5 21.5q3 13 12 20.5t21 13t25 9t24 7.5q33 6 66 6q62 0 122.5 -14.5t119.5 -28.5q68 14 131 37t132 37
q40 17 82.5 29t84.5 31l1 -9q0 -6 -3.5 -8t-8.5 -3.5l-10 -3t-8 -5.5q-25 -15 -53.5 -21.5t-54.5 -18.5q-60 -13 -117 -34t-115 -38q11 -11 28.5 -14t34.5 -4q70 15 140.5 31t142.5 29.5t145.5 22.5t149.5 9q39 0 78 -3q29 -3 61.5 -2.5t63.5 -3t58.5 -14.5t47.5 -36z
M1059 -271q-12 8 -24 16.5t-28 8.5q-2 0 -3.5 -0.5t-3.5 -0.5q-39 8 -82 12t-85 4h-24l-19 -4q-19 2 -38 4.5t-39 2.5q-11 0 -21 -1t-20 -4q-58 -2 -113.5 -9.5t-110 -18.5t-108 -24t-107.5 -24q139 -35 281 -49t294 -14q54 11 106.5 20.5t99.5 36.5q5 5 13 8.5t15 7.5
t12 10t5 15v3zM8 -285q-42 13 -88.5 21.5t-94.5 8.5q-17 0 -32.5 -1t-32.5 -4q-6 -4 -15 -6t-17 -4.5t-13.5 -7.5t-5.5 -14v-2l56 -12q58 2 122 2.5t121 16.5v2z" />
    <glyph glyph-name="questiondown" unicode="&#xbf;" horiz-adv-x="424" 
d="M378 223q0 -7 -4.5 -11.5t-4.5 -10.5q-3 -4 -7 -4q-8 0 -13.5 9t-12.5 14q0 7 5 8.5t8 5.5h16q11 0 13 -11zM303 117q0 -11 -6 -19.5t-12.5 -16.5t-12.5 -17t-6 -20q-16 -20 -28 -42t-19 -45l-6 -1q-8 0 -11.5 4.5t-6.5 10.5t-6.5 11.5t-12.5 7.5q-32 13 -65 13
q-49 0 -95.5 -20.5t-84.5 -46.5q-28 -19 -51 -44.5t-39 -55.5t-25 -64t-9 -68q0 -33 9 -66q14 -15 26.5 -34t27 -36t32 -28.5t42.5 -11.5h7q37 0 71 13t63.5 34.5t54.5 49.5t44 59q2 8 3 9t1 2q3 11 5.5 23.5t2.5 23.5t-3.5 21.5t-13.5 18.5q-18 15 -39 26.5t-44 11.5h-6.5
t-6.5 -1q-9 -3 -16.5 -8.5t-14.5 -11.5t-14.5 -10.5t-17.5 -4.5h-5v18q10 4 19.5 10l19 12t19.5 10.5t21 4.5q8 0 17 -3l8 -3q13 -5 27 -11t26.5 -14.5t22 -19.5t14.5 -27q4 -8 4 -18l-11 -52v-7q-7 -18 -18.5 -33t-24 -28.5t-26 -27t-24.5 -27.5q-19 -8 -36.5 -18.5
t-35 -19.5t-36.5 -15t-41 -6h-8t-10 1q-28 0 -49 13t-37.5 32.5t-31 41.5t-29.5 40q-3 20 -6.5 38.5t-3.5 37.5q0 25 10 48q7 33 21 64t34 58t46 48t58 35q33 26 73.5 40.5t82.5 14.5q32 0 62 -9q8 -7 18 -12t21 -5q13 15 22.5 31.5t19 33.5t19.5 33.5t24 30.5h6q1 -2 1 -7z
" />
    <glyph glyph-name="Agrave" unicode="&#xc0;" horiz-adv-x="514" 
d="M798 597q-3 -3 -6 -6.5t-8 -3.5q-17 20 -35 32.5t-33 35.5q-2 4 -2 6q0 6 6 8q23 -10 44.5 -29t33.5 -43zM771 510q0 -13 -7.5 -23.5t-18.5 -16.5q-36 -20 -68 -49t-66 -53q-21 -20 -44.5 -37.5t-46 -37t-41 -41.5t-29.5 -50q-12 -9 -19 -21.5t-13 -25l-12 -25t-15 -22.5
q-6 -15 -16.5 -28.5t-12.5 -30.5q9 -2 18.5 -3t18.5 -1q42 0 82.5 13t79.5 23q6 -9 6 -20q-10 -8 -20.5 -11.5t-21 -5t-21.5 -3t-22 -5.5q-33 -7 -68 -10t-67 -4q-23 -45 -37.5 -93.5t-28.5 -96.5q-5 -1 -9.5 -3t-9.5 -2h-2q-1 5 -1.5 9.5t-0.5 9.5q0 20 11 31q22 47 22 101
q0 14 -1.5 28t-3.5 28q-18 13 -40 14.5t-42 6.5q-35 -23 -77.5 -36t-87.5 -13q-32 0 -63.5 7t-57.5 27q-11 3 -20.5 9.5t-17.5 15t-16.5 16.5t-18.5 14q-18 29 -33 61.5t-15 69.5q0 55 31.5 97.5t79 71t104 43t107.5 14.5q40 0 76 -13t65 -45q3 -6 3 -12q0 -8 -4.5 -14
t-10.5 -12t-11.5 -12.5t-6.5 -13.5q-17 -5 -37.5 -10.5t-40.5 -5.5q-28 0 -47 15l-5 -1q-11 0 -19.5 8t-14.5 16q4 9 10 9q7 0 15.5 -8t17.5 -8q10 -5 20 -7t21 -2q14 0 30 3t29 9t21.5 14.5t8.5 18.5q0 8 -8 13q-25 21 -52.5 29.5t-56.5 8.5q-49 0 -95 -16t-90 -29
q-23 -11 -43.5 -30.5t-40.5 -32.5q-16 -22 -24.5 -48.5t-8.5 -54.5q0 -24 11.5 -51t30 -51.5t41.5 -44t47 -28.5q41 -22 91 -22q35 0 68.5 9.5t61.5 26.5q-12 8 -31.5 15t-38 17t-32.5 24t-14 36q0 11 6.5 17t16 9t20 4t18.5 1q40 0 74 -20.5t63 -49.5q35 13 66 40t60 47
q33 22 60 49t52 56.5t47.5 60t46.5 60.5q29 36 69 71t85 49q12 0 17.5 -6.5t11.5 -14.5q3 -8 3 -15zM750 514q0 4 -1 6h-16q-39 -23 -74 -50.5t-65 -63.5q-4 -13 -14 -23t-16 -22q29 23 60.5 47t61.5 47q4 7 10 11.5t13 8t13.5 6.5t11.5 9q8 3 12 10t4 14zM414 198
q-2 -2 -4 -4.5t-5 -4.5l-124 -90v-12q8 -17 22 -24.5t30 -7.5h6v6q14 16 22.5 34t16.5 36l5 12q17 26 23 38t8 17zM324 25q0 3 -3 6h-12q-1 -2 -1 -8q0 -4 1 -8.5t4 -6.5q2 5 6.5 8.5t4.5 8.5zM266 73q-2 8 -12 8q-9 0 -9 -7v-2q5 -1 8 -3.5t7 -2.5q3 0 6 3v4zM234 108
q-14 9 -27 19.5t-27 19t-29.5 14t-33.5 5.5l-6.5 -0.5t-14 -2.5t-13.5 -5.5t-6 -9.5q0 -3 1 -5q11 -17 26 -27t31.5 -17t34.5 -11t36 -7q7 6 17.5 9.5t10.5 13.5v4z" />
    <glyph glyph-name="Aacute" unicode="&#xc1;" horiz-adv-x="514" 
d="M862 666q-14 -23 -32.5 -35.5t-34.5 -32.5q-5 0 -8 3.5t-6 6.5q11 24 33 43t45 29q6 -2 6 -7zM771 510q0 -13 -7.5 -23.5t-18.5 -16.5q-36 -20 -68 -49t-66 -53q-21 -20 -44.5 -37.5t-46 -37t-41 -41.5t-29.5 -50q-12 -9 -19 -21.5t-13 -25l-12 -25t-15 -22.5
q-6 -15 -16.5 -28.5t-12.5 -30.5q9 -2 18.5 -3t18.5 -1q42 0 82.5 13t79.5 23q6 -9 6 -20q-10 -8 -20.5 -11.5t-21 -5t-21.5 -3t-22 -5.5q-33 -7 -68 -10t-67 -4q-23 -45 -37.5 -93.5t-28.5 -96.5q-5 -1 -9.5 -3t-9.5 -2h-2q-1 5 -1.5 9.5t-0.5 9.5q0 20 11 31q22 47 22 101
q0 14 -1.5 28t-3.5 28q-18 13 -40 14.5t-42 6.5q-35 -23 -77.5 -36t-87.5 -13q-32 0 -63.5 7t-57.5 27q-11 3 -20.5 9.5t-17.5 15t-16.5 16.5t-18.5 14q-18 29 -33 61.5t-15 69.5q0 55 31.5 97.5t79 71t104 43t107.5 14.5q40 0 76 -13t65 -45q3 -6 3 -12q0 -8 -4.5 -14
t-10.5 -12t-11.5 -12.5t-6.5 -13.5q-17 -5 -37.5 -10.5t-40.5 -5.5q-28 0 -47 15l-5 -1q-11 0 -19.5 8t-14.5 16q4 9 10 9q7 0 15.5 -8t17.5 -8q10 -5 20 -7t21 -2q14 0 30 3t29 9t21.5 14.5t8.5 18.5q0 8 -8 13q-25 21 -52.5 29.5t-56.5 8.5q-49 0 -95 -16t-90 -29
q-23 -11 -43.5 -30.5t-40.5 -32.5q-16 -22 -24.5 -48.5t-8.5 -54.5q0 -24 11.5 -51t30 -51.5t41.5 -44t47 -28.5q41 -22 91 -22q35 0 68.5 9.5t61.5 26.5q-12 8 -31.5 15t-38 17t-32.5 24t-14 36q0 11 6.5 17t16 9t20 4t18.5 1q40 0 74 -20.5t63 -49.5q35 13 66 40t60 47
q33 22 60 49t52 56.5t47.5 60t46.5 60.5q29 36 69 71t85 49q12 0 17.5 -6.5t11.5 -14.5q3 -8 3 -15zM750 514q0 4 -1 6h-16q-39 -23 -74 -50.5t-65 -63.5q-4 -13 -14 -23t-16 -22q29 23 60.5 47t61.5 47q4 7 10 11.5t13 8t13.5 6.5t11.5 9q8 3 12 10t4 14zM414 198
q-2 -2 -4 -4.5t-5 -4.5l-124 -90v-12q8 -17 22 -24.5t30 -7.5h6v6q14 16 22.5 34t16.5 36l5 12q17 26 23 38t8 17zM324 25q0 3 -3 6h-12q-1 -2 -1 -8q0 -4 1 -8.5t4 -6.5q2 5 6.5 8.5t4.5 8.5zM266 73q-2 8 -12 8q-9 0 -9 -7v-2q5 -1 8 -3.5t7 -2.5q3 0 6 3v4zM234 108
q-14 9 -27 19.5t-27 19t-29.5 14t-33.5 5.5l-6.5 -0.5t-14 -2.5t-13.5 -5.5t-6 -9.5q0 -3 1 -5q11 -17 26 -27t31.5 -17t34.5 -11t36 -7q7 6 17.5 9.5t10.5 13.5v4z" />
    <glyph glyph-name="Acircumflex" unicode="&#xc2;" horiz-adv-x="514" 
d="M849 560l-5 -5t-7 -3q-2 0 -3 1q-12 21 -26.5 35.5t-25.5 37.5q-18 -18 -37 -26.5t-37 -24.5q-5 0 -7.5 4t-4.5 8q15 22 39.5 37t49.5 20q20 -14 38 -36t26 -48zM771 510q0 -13 -7.5 -23.5t-18.5 -16.5q-36 -20 -68 -49t-66 -53q-21 -20 -44.5 -37.5t-46 -37t-41 -41.5
t-29.5 -50q-12 -9 -19 -21.5t-13 -25l-12 -25t-15 -22.5q-6 -15 -16.5 -28.5t-12.5 -30.5q9 -2 18.5 -3t18.5 -1q42 0 82.5 13t79.5 23q6 -9 6 -20q-10 -8 -20.5 -11.5t-21 -5t-21.5 -3t-22 -5.5q-33 -7 -68 -10t-67 -4q-23 -45 -37.5 -93.5t-28.5 -96.5q-5 -1 -9.5 -3
t-9.5 -2h-2q-1 5 -1.5 9.5t-0.5 9.5q0 20 11 31q22 47 22 101q0 14 -1.5 28t-3.5 28q-18 13 -40 14.5t-42 6.5q-35 -23 -77.5 -36t-87.5 -13q-32 0 -63.5 7t-57.5 27q-11 3 -20.5 9.5t-17.5 15t-16.5 16.5t-18.5 14q-18 29 -33 61.5t-15 69.5q0 55 31.5 97.5t79 71t104 43
t107.5 14.5q40 0 76 -13t65 -45q3 -6 3 -12q0 -8 -4.5 -14t-10.5 -12t-11.5 -12.5t-6.5 -13.5q-17 -5 -37.5 -10.5t-40.5 -5.5q-28 0 -47 15l-5 -1q-11 0 -19.5 8t-14.5 16q4 9 10 9q7 0 15.5 -8t17.5 -8q10 -5 20 -7t21 -2q14 0 30 3t29 9t21.5 14.5t8.5 18.5q0 8 -8 13
q-25 21 -52.5 29.5t-56.5 8.5q-49 0 -95 -16t-90 -29q-23 -11 -43.5 -30.5t-40.5 -32.5q-16 -22 -24.5 -48.5t-8.5 -54.5q0 -24 11.5 -51t30 -51.5t41.5 -44t47 -28.5q41 -22 91 -22q35 0 68.5 9.5t61.5 26.5q-12 8 -31.5 15t-38 17t-32.5 24t-14 36q0 11 6.5 17t16 9t20 4
t18.5 1q40 0 74 -20.5t63 -49.5q35 13 66 40t60 47q33 22 60 49t52 56.5t47.5 60t46.5 60.5q29 36 69 71t85 49q12 0 17.5 -6.5t11.5 -14.5q3 -8 3 -15zM750 514q0 4 -1 6h-16q-39 -23 -74 -50.5t-65 -63.5q-4 -13 -14 -23t-16 -22q29 23 60.5 47t61.5 47q4 7 10 11.5t13 8
t13.5 6.5t11.5 9q8 3 12 10t4 14zM414 198q-2 -2 -4 -4.5t-5 -4.5l-124 -90v-12q8 -17 22 -24.5t30 -7.5h6v6q14 16 22.5 34t16.5 36l5 12q17 26 23 38t8 17zM324 25q0 3 -3 6h-12q-1 -2 -1 -8q0 -4 1 -8.5t4 -6.5q2 5 6.5 8.5t4.5 8.5zM266 73q-2 8 -12 8q-9 0 -9 -7v-2
q5 -1 8 -3.5t7 -2.5q3 0 6 3v4zM234 108q-14 9 -27 19.5t-27 19t-29.5 14t-33.5 5.5l-6.5 -0.5t-14 -2.5t-13.5 -5.5t-6 -9.5q0 -3 1 -5q11 -17 26 -27t31.5 -17t34.5 -11t36 -7q7 6 17.5 9.5t10.5 13.5v4z" />
    <glyph glyph-name="Atilde" unicode="&#xc3;" horiz-adv-x="514" 
d="M900 605q0 -1 -2 -5l-6 1q-14 0 -25 -8t-23 -8q-6 0 -9 1l-7 -4q-4 -1 -11 -1t-16 2.5t-19 6.5l-28 10t-22 5q-17 0 -32 -11q-7 3 -16 3t-11 8q19 10 33 13.5t25 3.5q12 0 21.5 -3t18.5 -6.5t19 -6.5t22 -3h5q13 2 25.5 4.5t23.5 10.5q6 3 12 3l11 -1q2 -4 6.5 -7t4.5 -8
zM771 510q0 -13 -7.5 -23.5t-18.5 -16.5q-36 -20 -68 -49t-66 -53q-21 -20 -44.5 -37.5t-46 -37t-41 -41.5t-29.5 -50q-12 -9 -19 -21.5t-13 -25l-12 -25t-15 -22.5q-6 -15 -16.5 -28.5t-12.5 -30.5q9 -2 18.5 -3t18.5 -1q42 0 82.5 13t79.5 23q6 -9 6 -20
q-10 -8 -20.5 -11.5t-21 -5t-21.5 -3t-22 -5.5q-33 -7 -68 -10t-67 -4q-23 -45 -37.5 -93.5t-28.5 -96.5q-5 -1 -9.5 -3t-9.5 -2h-2q-1 5 -1.5 9.5t-0.5 9.5q0 20 11 31q22 47 22 101q0 14 -1.5 28t-3.5 28q-18 13 -40 14.5t-42 6.5q-35 -23 -77.5 -36t-87.5 -13
q-32 0 -63.5 7t-57.5 27q-11 3 -20.5 9.5t-17.5 15t-16.5 16.5t-18.5 14q-18 29 -33 61.5t-15 69.5q0 55 31.5 97.5t79 71t104 43t107.5 14.5q40 0 76 -13t65 -45q3 -6 3 -12q0 -8 -4.5 -14t-10.5 -12t-11.5 -12.5t-6.5 -13.5q-17 -5 -37.5 -10.5t-40.5 -5.5q-28 0 -47 15
l-5 -1q-11 0 -19.5 8t-14.5 16q4 9 10 9q7 0 15.5 -8t17.5 -8q10 -5 20 -7t21 -2q14 0 30 3t29 9t21.5 14.5t8.5 18.5q0 8 -8 13q-25 21 -52.5 29.5t-56.5 8.5q-49 0 -95 -16t-90 -29q-23 -11 -43.5 -30.5t-40.5 -32.5q-16 -22 -24.5 -48.5t-8.5 -54.5q0 -24 11.5 -51
t30 -51.5t41.5 -44t47 -28.5q41 -22 91 -22q35 0 68.5 9.5t61.5 26.5q-12 8 -31.5 15t-38 17t-32.5 24t-14 36q0 11 6.5 17t16 9t20 4t18.5 1q40 0 74 -20.5t63 -49.5q35 13 66 40t60 47q33 22 60 49t52 56.5t47.5 60t46.5 60.5q29 36 69 71t85 49q12 0 17.5 -6.5
t11.5 -14.5q3 -8 3 -15zM750 514q0 4 -1 6h-16q-39 -23 -74 -50.5t-65 -63.5q-4 -13 -14 -23t-16 -22q29 23 60.5 47t61.5 47q4 7 10 11.5t13 8t13.5 6.5t11.5 9q8 3 12 10t4 14zM414 198q-2 -2 -4 -4.5t-5 -4.5l-124 -90v-12q8 -17 22 -24.5t30 -7.5h6v6q14 16 22.5 34
t16.5 36l5 12q17 26 23 38t8 17zM324 25q0 3 -3 6h-12q-1 -2 -1 -8q0 -4 1 -8.5t4 -6.5q2 5 6.5 8.5t4.5 8.5zM266 73q-2 8 -12 8q-9 0 -9 -7v-2q5 -1 8 -3.5t7 -2.5q3 0 6 3v4zM234 108q-14 9 -27 19.5t-27 19t-29.5 14t-33.5 5.5l-6.5 -0.5t-14 -2.5t-13.5 -5.5t-6 -9.5
q0 -3 1 -5q11 -17 26 -27t31.5 -17t34.5 -11t36 -7q7 6 17.5 9.5t10.5 13.5v4z" />
    <glyph glyph-name="Adieresis" unicode="&#xc4;" horiz-adv-x="514" 
d="M841 652q-3 -3 -5 -8t-4 -10.5t-4.5 -9t-7.5 -3.5q-2 0 -8 2q-5 10 -5 19q0 10 8 17q12 0 20 -4l6 -3v0zM756 652q-3 -3 -5 -8t-4 -10.5t-5 -9t-7 -3.5q-1 0 -7 2q-6 9 -6 19t8 17q13 0 21 -4q4 -2 5 -3zM771 510q0 -13 -7.5 -23.5t-18.5 -16.5q-36 -20 -68 -49t-66 -53
q-21 -20 -44.5 -37.5t-46 -37t-41 -41.5t-29.5 -50q-12 -9 -19 -21.5t-13 -25l-12 -25t-15 -22.5q-6 -15 -16.5 -28.5t-12.5 -30.5q9 -2 18.5 -3t18.5 -1q42 0 82.5 13t79.5 23q6 -9 6 -20q-10 -8 -20.5 -11.5t-21 -5t-21.5 -3t-22 -5.5q-33 -7 -68 -10t-67 -4
q-23 -45 -37.5 -93.5t-28.5 -96.5q-5 -1 -9.5 -3t-9.5 -2h-2q-1 5 -1.5 9.5t-0.5 9.5q0 20 11 31q22 47 22 101q0 14 -1.5 28t-3.5 28q-18 13 -40 14.5t-42 6.5q-35 -23 -77.5 -36t-87.5 -13q-32 0 -63.5 7t-57.5 27q-11 3 -20.5 9.5t-17.5 15t-16.5 16.5t-18.5 14
q-18 29 -33 61.5t-15 69.5q0 55 31.5 97.5t79 71t104 43t107.5 14.5q40 0 76 -13t65 -45q3 -6 3 -12q0 -8 -4.5 -14t-10.5 -12t-11.5 -12.5t-6.5 -13.5q-17 -5 -37.5 -10.5t-40.5 -5.5q-28 0 -47 15l-5 -1q-11 0 -19.5 8t-14.5 16q4 9 10 9q7 0 15.5 -8t17.5 -8q10 -5 20 -7
t21 -2q14 0 30 3t29 9t21.5 14.5t8.5 18.5q0 8 -8 13q-25 21 -52.5 29.5t-56.5 8.5q-49 0 -95 -16t-90 -29q-23 -11 -43.5 -30.5t-40.5 -32.5q-16 -22 -24.5 -48.5t-8.5 -54.5q0 -24 11.5 -51t30 -51.5t41.5 -44t47 -28.5q41 -22 91 -22q35 0 68.5 9.5t61.5 26.5
q-12 8 -31.5 15t-38 17t-32.5 24t-14 36q0 11 6.5 17t16 9t20 4t18.5 1q40 0 74 -20.5t63 -49.5q35 13 66 40t60 47q33 22 60 49t52 56.5t47.5 60t46.5 60.5q29 36 69 71t85 49q12 0 17.5 -6.5t11.5 -14.5q3 -8 3 -15zM750 514q0 4 -1 6h-16q-39 -23 -74 -50.5t-65 -63.5
q-4 -13 -14 -23t-16 -22q29 23 60.5 47t61.5 47q4 7 10 11.5t13 8t13.5 6.5t11.5 9q8 3 12 10t4 14zM414 198q-2 -2 -4 -4.5t-5 -4.5l-124 -90v-12q8 -17 22 -24.5t30 -7.5h6v6q14 16 22.5 34t16.5 36l5 12q17 26 23 38t8 17zM324 25q0 3 -3 6h-12q-1 -2 -1 -8q0 -4 1 -8.5
t4 -6.5q2 5 6.5 8.5t4.5 8.5zM266 73q-2 8 -12 8q-9 0 -9 -7v-2q5 -1 8 -3.5t7 -2.5q3 0 6 3v4zM234 108q-14 9 -27 19.5t-27 19t-29.5 14t-33.5 5.5l-6.5 -0.5t-14 -2.5t-13.5 -5.5t-6 -9.5q0 -3 1 -5q11 -17 26 -27t31.5 -17t34.5 -11t36 -7q7 6 17.5 9.5t10.5 13.5v4z
" />
    <glyph glyph-name="Aring" unicode="&#xc5;" horiz-adv-x="514" 
d="M861 648q-6 -5 -9.5 -14.5t-7 -18.5t-8 -16t-13.5 -7q-7 0 -14 4q-10 18 -10 34q0 8 5 19.5t13 11.5q11 0 23 -3.5t21 -9.5zM771 510q0 -13 -7.5 -23.5t-18.5 -16.5q-36 -20 -68 -49t-66 -53q-21 -20 -44.5 -37.5t-46 -37t-41 -41.5t-29.5 -50q-12 -9 -19 -21.5t-13 -25
l-12 -25t-15 -22.5q-6 -15 -16.5 -28.5t-12.5 -30.5q9 -2 18.5 -3t18.5 -1q42 0 82.5 13t79.5 23q6 -9 6 -20q-10 -8 -20.5 -11.5t-21 -5t-21.5 -3t-22 -5.5q-33 -7 -68 -10t-67 -4q-23 -45 -37.5 -93.5t-28.5 -96.5q-5 -1 -9.5 -3t-9.5 -2h-2q-1 5 -1.5 9.5t-0.5 9.5
q0 20 11 31q22 47 22 101q0 14 -1.5 28t-3.5 28q-18 13 -40 14.5t-42 6.5q-35 -23 -77.5 -36t-87.5 -13q-32 0 -63.5 7t-57.5 27q-11 3 -20.5 9.5t-17.5 15t-16.5 16.5t-18.5 14q-18 29 -33 61.5t-15 69.5q0 55 31.5 97.5t79 71t104 43t107.5 14.5q40 0 76 -13t65 -45
q3 -6 3 -12q0 -8 -4.5 -14t-10.5 -12t-11.5 -12.5t-6.5 -13.5q-17 -5 -37.5 -10.5t-40.5 -5.5q-28 0 -47 15l-5 -1q-11 0 -19.5 8t-14.5 16q4 9 10 9q7 0 15.5 -8t17.5 -8q10 -5 20 -7t21 -2q14 0 30 3t29 9t21.5 14.5t8.5 18.5q0 8 -8 13q-25 21 -52.5 29.5t-56.5 8.5
q-49 0 -95 -16t-90 -29q-23 -11 -43.5 -30.5t-40.5 -32.5q-16 -22 -24.5 -48.5t-8.5 -54.5q0 -24 11.5 -51t30 -51.5t41.5 -44t47 -28.5q41 -22 91 -22q35 0 68.5 9.5t61.5 26.5q-12 8 -31.5 15t-38 17t-32.5 24t-14 36q0 11 6.5 17t16 9t20 4t18.5 1q40 0 74 -20.5
t63 -49.5q35 13 66 40t60 47q33 22 60 49t52 56.5t47.5 60t46.5 60.5q29 36 69 71t85 49q12 0 17.5 -6.5t11.5 -14.5q3 -8 3 -15zM844 639q-12 7 -23 7h-3q-8 -7 -8 -17q0 -7 3 -13q1 -4 3 -6q6 -2 7 -2q4 0 7 3.5t5 9t4 10.5t5 8zM750 514q0 4 -1 6h-16q-39 -23 -74 -50.5
t-65 -63.5q-4 -13 -14 -23t-16 -22q29 23 60.5 47t61.5 47q4 7 10 11.5t13 8t13.5 6.5t11.5 9q8 3 12 10t4 14zM414 198q-2 -2 -4 -4.5t-5 -4.5l-124 -90v-12q8 -17 22 -24.5t30 -7.5h6v6q14 16 22.5 34t16.5 36l5 12q17 26 23 38t8 17zM324 25q0 3 -3 6h-12q-1 -2 -1 -8
q0 -4 1 -8.5t4 -6.5q2 5 6.5 8.5t4.5 8.5zM266 73q-2 8 -12 8q-9 0 -9 -7v-2q5 -1 8 -3.5t7 -2.5q3 0 6 3v4zM234 108q-14 9 -27 19.5t-27 19t-29.5 14t-33.5 5.5l-6.5 -0.5t-14 -2.5t-13.5 -5.5t-6 -9.5q0 -3 1 -5q11 -17 26 -27t31.5 -17t34.5 -11t36 -7q7 6 17.5 9.5
t10.5 13.5v4z" />
    <glyph glyph-name="AE" unicode="&#xc6;" horiz-adv-x="973" 
d="M1047 363q0 -9 -8 -14q-10 -8 -21.5 -11.5t-23.5 -3.5q-20 0 -41 7.5t-37 18.5q-22 18 -41.5 41t-19.5 52v7q-8 9 -17 12t-19 3l-46 -5h-12l-27 -9l-120 -91q-6 -11 -10 -22.5t-7 -22.5q-1 -4 -1 -8v-8q0 -32 15.5 -60t35.5 -51q17 4 29 15t27 19q31 12 64.5 22t68.5 10
q37 0 68 -14q7 -6 7 -12q0 -7 -5 -14t-7 -14q-33 -26 -74.5 -46t-85.5 -20q-41 0 -75 21h-2q-15 0 -25 -7.5t-18 -19t-15 -24t-16 -21.5q-6 -9 -6 -19q0 -9 3 -18t3 -19v-4q19 -25 49.5 -37t63.5 -12q6 0 12.5 0.5t12.5 1.5q19 18 38.5 38.5t40.5 37.5t45 28.5t53 11.5
q5 0 10.5 -0.5t11.5 -1.5q15 -7 15 -21q0 -6 -3 -10q-9 -15 -22 -25.5t-27.5 -18.5t-30 -15.5t-28.5 -17.5q-16 -6 -34 -9.5t-34 -10t-27 -18.5t-12 -34q-6 -6 -7.5 -13.5l-3 -15t-3.5 -14.5t-8 -13v-2q0 -5 4 -9.5t4 -9.5q0 -4 -5 -8h-5q-13 0 -22 9l-3 3q6 11 5.5 24
t8.5 23q2 11 7.5 21t10.5 22q5 4 6 8.5t3 9.5q-11 8 -25 8.5t-28 2.5q-12 6 -24.5 9.5t-24.5 8.5t-23 12t-18 20q-4 8 -7 18t-5 21q-18 -11 -37.5 -11t-39.5 -8q-33 -7 -68 -10t-67 -4q-23 -45 -37.5 -93.5t-28.5 -96.5q-5 -1 -9.5 -3t-9.5 -2h-2q-1 5 -1.5 9.5t-0.5 9.5
q0 20 11 31q22 47 22 101q0 14 -1.5 28t-3.5 28q-18 13 -40 14.5t-42 6.5q-35 -23 -77.5 -36t-87.5 -13q-32 0 -63.5 7t-57.5 27q-11 3 -20.5 9.5t-17.5 15t-16.5 16.5t-18.5 14q-18 29 -33 61.5t-15 69.5q0 55 31.5 97.5t79 71t104 43t107.5 14.5q40 0 76 -13t65 -45
q3 -6 3 -12q0 -8 -4.5 -14t-10.5 -12t-11.5 -12.5t-6.5 -13.5q-17 -5 -37.5 -10.5t-40.5 -5.5q-28 0 -47 15l-5 -1q-11 0 -19.5 8t-14.5 16q4 9 10 9q7 0 15.5 -8t17.5 -8q10 -5 20 -7t21 -2q14 0 30 3t29 9t21.5 14.5t8.5 18.5q0 8 -8 13q-25 21 -52.5 29.5t-56.5 8.5
q-49 0 -95 -16t-90 -29q-23 -11 -43.5 -30.5t-40.5 -32.5q-16 -22 -24.5 -48.5t-8.5 -54.5q0 -24 11.5 -51t30 -51.5t41.5 -44t47 -28.5q41 -22 91 -22q35 0 68.5 9.5t61.5 26.5q-12 8 -31.5 15t-38 17t-32.5 24t-14 36q0 11 6.5 17t16 9t20 4t18.5 1q40 0 74 -20.5
t63 -49.5q35 13 66 40t60 47q33 22 60 49t52 56.5t47.5 60t46.5 60.5q29 36 69 71t85 49q12 0 17.5 -6.5t11.5 -14.5q3 -8 3 -15q0 -11 -6 -21q14 3 28 5t30 2h14l9 6v120l11 -3v-13q0 -26 3 -53.5t4 -54.5q6 -12 22 -10l17 1q9 0 15 -3q41 -10 75 -33.5t49 -64.5l5 -25v0z
M1016 392v5q-23 37 -60.5 53.5t-77.5 21.5l-2 -2q-1 -4 -1 -12q0 -22 13.5 -42.5t33.5 -34.5q18 -7 36 -16.5t37 -9.5q13 0 26 7q3 4 3 9zM750 514q0 4 -1 6h-16q-39 -23 -74 -50.5t-65 -63.5q-4 -13 -14 -23t-16 -22q29 23 60.5 47t61.5 47q4 7 10 11.5t13 8t13.5 6.5
t11.5 9q8 3 12 10t4 14zM883 233q-12 2 -23 6.5t-23 4.5q-7 0 -10 -1q-41 -4 -78.5 -17.5t-66.5 -40.5l44 -17h16q21 0 40 3t35 14q20 5 39.5 16.5t26.5 31.5zM918 80q-5 3 -8 3q-7 0 -15 -4t-17 -4q-3 0 -9 2q-26 -17 -48.5 -33.5t-42.5 -39.5q20 5 43.5 11.5t42.5 21.5
q7 5 15.5 9t16.5 8.5t14 10.5t8 15zM626 180q-8 14 -17 27.5t-17 28t-13.5 30t-5.5 33.5q0 10 1 15q1 6 1.5 12.5t2.5 12.5q-18 -15 -37.5 -30t-36.5 -31t-31 -35t-23 -41q-12 -9 -19 -21.5t-13 -25l-12 -25t-15 -22.5q-6 -15 -16.5 -28.5t-12.5 -30.5q9 -2 18.5 -3t18.5 -1
q42 0 81.5 12.5t77.5 22.5q0 3 0.5 5.5t1.5 5.5q1 2 1.5 4t2.5 4q13 21 27.5 42.5t34.5 38.5zM414 198q-2 -2 -4 -4.5t-5 -4.5l-124 -90v-12q8 -17 22 -24.5t30 -7.5h6v6q14 16 22.5 34t16.5 36l5 12q17 26 23 38t8 17zM324 25q0 3 -3 6h-12q-1 -2 -1 -8q0 -4 1 -8.5t4 -6.5
q2 5 6.5 8.5t4.5 8.5zM266 73q-2 8 -12 8q-9 0 -9 -7v-2q5 -1 8 -3.5t7 -2.5q3 0 6 3v4zM234 108q-14 9 -27 19.5t-27 19t-29.5 14t-33.5 5.5l-6.5 -0.5t-14 -2.5t-13.5 -5.5t-6 -9.5q0 -3 1 -5q11 -17 26 -27t31.5 -17t34.5 -11t36 -7q7 6 17.5 9.5t10.5 13.5v4z" />
    <glyph glyph-name="Ccedilla" unicode="&#xc7;" horiz-adv-x="394" 
d="M534 460q0 -32 -8 -62.5t-18 -57.5q-6 -9 -14 -18t-8 -23q-35 -33 -69.5 -69t-77.5 -59q-22 -18 -50 -29t-57 -11q-27 0 -51 10q-9 9 -9 24q0 7 3 15q2 19 13 33.5t19 30.5q27 20 58 37.5t66 17.5q12 0 26 -3q1 -3 1 -7q0 -7 -4.5 -9.5t-10.5 -2.5l-21 2q-9 0 -13 -3
q-19 -2 -36.5 -10.5t-31.5 -22t-24.5 -30t-15.5 -33.5v-4q0 -11 6 -20h6q36 0 68.5 11.5t61.5 30t56 42.5t51 50q26 38 45.5 77t19.5 86q0 18 -3 36q-13 25 -38 38q-6 1 -12.5 1.5t-12.5 0.5q-31 0 -59.5 -10.5t-56.5 -22.5q-40 -18 -81.5 -39.5t-70.5 -58.5
q-32 -20 -58 -47.5t-48.5 -59t-41.5 -64.5t-36 -65q-9 -29 -12 -57t-4 -60q10 -26 16 -55.5t23 -52.5q20 -22 45.5 -33.5t54.5 -11.5q21 0 41 6q57 18 109.5 48.5t103.5 68.5v11q3 -3 8 -3t10 1.5t9 1.5q8 0 8 -9v-5q-14 -7 -25 -15t-21.5 -16.5t-22 -15.5t-25.5 -11
q-11 -12 -24.5 -19.5t-28 -14t-28.5 -12.5t-27 -15q-19 -8 -40 -14t-43 -7q-8 -20 -19.5 -38.5t-20.5 -37.5q-6 -6 -9.5 -13.5t-5.5 -15t-5.5 -14.5t-9.5 -13q-14 0 -19 14q22 28 38 57.5t31 60.5q-16 0 -28 4q-23 4 -39 16t-28 29t-21 36.5t-17 37.5l-4 9q-3 22 -5.5 41
t-2.5 39q0 8 0.5 17t2.5 19q10 51 38.5 95.5t57.5 86.5q31 46 71.5 85.5t86.5 71t96.5 54.5t102.5 35q6 1 12.5 1.5t13.5 0.5q27 0 51 -10t36 -36q6 -21 6 -44z" />
    <glyph glyph-name="Egrave" unicode="&#xc8;" horiz-adv-x="389" 
d="M463 363q0 -9 -8 -14q-10 -8 -21.5 -11.5t-23.5 -3.5q-20 0 -41 7.5t-37 18.5q-22 18 -41.5 41t-19.5 52v7q-8 9 -17 12t-19 3l-46 -5h-12q-23 -8 -46.5 -15.5t-41.5 -26.5q-33 -13 -50.5 -42.5t-25.5 -60.5q-1 -4 -1 -8v-8q0 -32 15.5 -60t35.5 -51q17 4 29 15t27 19
q31 12 64.5 22t68.5 10q37 0 68 -14q7 -6 7 -12q0 -7 -5 -14t-7 -14q-33 -26 -74.5 -46t-85.5 -20q-41 0 -75 21h-2q-15 0 -25 -7.5t-18 -19t-15 -24t-16 -21.5q-6 -9 -6 -19q0 -9 3 -18t3 -19v-4q19 -25 49.5 -37t63.5 -12q6 0 12.5 0.5t12.5 1.5q19 18 38.5 38.5
t40.5 37.5t45 28.5t53 11.5q5 0 10.5 -0.5t11.5 -1.5q15 -7 15 -21q0 -6 -3 -10q-9 -15 -22 -25.5t-27.5 -18.5t-30 -15.5t-28.5 -17.5q-16 -6 -34 -9.5t-34 -10t-27 -18.5t-12 -34q-6 -6 -7.5 -13.5l-3 -15t-3.5 -14.5t-8 -13v-2q0 -5 4 -9.5t4 -9.5q0 -4 -5 -8h-5
q-13 0 -22 9l-3 3q6 11 5.5 24t8.5 23q2 11 7.5 21t10.5 22q5 4 6 8.5t3 9.5q-11 8 -25 8.5t-28 2.5q-12 6 -24.5 9.5t-24.5 8.5t-23 12t-18 20q-5 12 -9 26.5t-4 28.5v10t2 10q1 2 1.5 4t2.5 4q13 21 27.5 42.5t34.5 38.5q-8 14 -17 27.5t-17 28t-13.5 30t-5.5 33.5
q0 10 1 15q4 49 36.5 90.5t77.5 61.5q32 14 64.5 22t70.5 8h14l9 6v120l11 -3v-13q0 -26 3 -53.5t4 -54.5q6 -12 22 -10l17 1q9 0 15 -3q41 -10 75 -33.5t49 -64.5l5 -25v0zM432 392v5q-23 37 -60.5 53.5t-77.5 21.5l-2 -2q-1 -4 -1 -12q0 -22 13.5 -42.5t33.5 -34.5
q18 -7 36 -16.5t37 -9.5q13 0 26 7q3 4 3 9zM299 233q-12 2 -23 6.5t-23 4.5q-7 0 -10 -1q-41 -4 -78.5 -17.5t-66.5 -40.5l44 -17h16q21 0 40 3t35 14q20 5 39.5 16.5t26.5 31.5zM334 80q-5 3 -8 3q-7 0 -15 -4t-17 -4q-3 0 -9 2q-26 -17 -48.5 -33.5t-42.5 -39.5
q20 5 43.5 11.5t42.5 21.5q7 5 15.5 9t16.5 8.5t14 10.5t8 15zM412 552q-3 -3 -6 -6.5t-8 -3.5q-17 20 -35 32.5t-33 35.5q-2 4 -2 6q0 6 6 8q23 -10 44.5 -29t33.5 -43z" />
    <glyph glyph-name="Eacute" unicode="&#xc9;" horiz-adv-x="389" 
d="M463 363q0 -9 -8 -14q-10 -8 -21.5 -11.5t-23.5 -3.5q-20 0 -41 7.5t-37 18.5q-22 18 -41.5 41t-19.5 52v7q-8 9 -17 12t-19 3l-46 -5h-12q-23 -8 -46.5 -15.5t-41.5 -26.5q-33 -13 -50.5 -42.5t-25.5 -60.5q-1 -4 -1 -8v-8q0 -32 15.5 -60t35.5 -51q17 4 29 15t27 19
q31 12 64.5 22t68.5 10q37 0 68 -14q7 -6 7 -12q0 -7 -5 -14t-7 -14q-33 -26 -74.5 -46t-85.5 -20q-41 0 -75 21h-2q-15 0 -25 -7.5t-18 -19t-15 -24t-16 -21.5q-6 -9 -6 -19q0 -9 3 -18t3 -19v-4q19 -25 49.5 -37t63.5 -12q6 0 12.5 0.5t12.5 1.5q19 18 38.5 38.5
t40.5 37.5t45 28.5t53 11.5q5 0 10.5 -0.5t11.5 -1.5q15 -7 15 -21q0 -6 -3 -10q-9 -15 -22 -25.5t-27.5 -18.5t-30 -15.5t-28.5 -17.5q-16 -6 -34 -9.5t-34 -10t-27 -18.5t-12 -34q-6 -6 -7.5 -13.5l-3 -15t-3.5 -14.5t-8 -13v-2q0 -5 4 -9.5t4 -9.5q0 -4 -5 -8h-5
q-13 0 -22 9l-3 3q6 11 5.5 24t8.5 23q2 11 7.5 21t10.5 22q5 4 6 8.5t3 9.5q-11 8 -25 8.5t-28 2.5q-12 6 -24.5 9.5t-24.5 8.5t-23 12t-18 20q-5 12 -9 26.5t-4 28.5v10t2 10q1 2 1.5 4t2.5 4q13 21 27.5 42.5t34.5 38.5q-8 14 -17 27.5t-17 28t-13.5 30t-5.5 33.5
q0 10 1 15q4 49 36.5 90.5t77.5 61.5q32 14 64.5 22t70.5 8h14l9 6v120l11 -3v-13q0 -26 3 -53.5t4 -54.5q6 -12 22 -10l17 1q9 0 15 -3q41 -10 75 -33.5t49 -64.5l5 -25v0zM432 392v5q-23 37 -60.5 53.5t-77.5 21.5l-2 -2q-1 -4 -1 -12q0 -22 13.5 -42.5t33.5 -34.5
q18 -7 36 -16.5t37 -9.5q13 0 26 7q3 4 3 9zM299 233q-12 2 -23 6.5t-23 4.5q-7 0 -10 -1q-41 -4 -78.5 -17.5t-66.5 -40.5l44 -17h16q21 0 40 3t35 14q20 5 39.5 16.5t26.5 31.5zM334 80q-5 3 -8 3q-7 0 -15 -4t-17 -4q-3 0 -9 2q-26 -17 -48.5 -33.5t-42.5 -39.5
q20 5 43.5 11.5t42.5 21.5q7 5 15.5 9t16.5 8.5t14 10.5t8 15zM430 630q-14 -23 -32.5 -35.5t-34.5 -32.5q-5 0 -8 3.5t-6 6.5q11 24 33 43t45 29q6 -2 6 -7z" />
    <glyph glyph-name="Ecircumflex" unicode="&#xca;" horiz-adv-x="389" 
d="M455 521l-5 -5t-7 -3q-2 0 -3 1q-12 21 -26.5 35.5t-25.5 37.5q-18 -18 -37 -26.5t-37 -24.5q-5 0 -7.5 4t-4.5 8q15 22 39.5 37t49.5 20q20 -14 38 -36t26 -48zM463 363q0 -9 -8 -14q-10 -8 -21.5 -11.5t-23.5 -3.5q-20 0 -41 7.5t-37 18.5q-22 18 -41.5 41t-19.5 52v7
q-8 9 -17 12t-19 3l-46 -5h-12q-23 -8 -46.5 -15.5t-41.5 -26.5q-33 -13 -50.5 -42.5t-25.5 -60.5q-1 -4 -1 -8v-8q0 -32 15.5 -60t35.5 -51q17 4 29 15t27 19q31 12 64.5 22t68.5 10q37 0 68 -14q7 -6 7 -12q0 -7 -5 -14t-7 -14q-33 -26 -74.5 -46t-85.5 -20q-41 0 -75 21
h-2q-15 0 -25 -7.5t-18 -19t-15 -24t-16 -21.5q-6 -9 -6 -19q0 -9 3 -18t3 -19v-4q19 -25 49.5 -37t63.5 -12q6 0 12.5 0.5t12.5 1.5q19 18 38.5 38.5t40.5 37.5t45 28.5t53 11.5q5 0 10.5 -0.5t11.5 -1.5q15 -7 15 -21q0 -6 -3 -10q-9 -15 -22 -25.5t-27.5 -18.5t-30 -15.5
t-28.5 -17.5q-16 -6 -34 -9.5t-34 -10t-27 -18.5t-12 -34q-6 -6 -7.5 -13.5l-3 -15t-3.5 -14.5t-8 -13v-2q0 -5 4 -9.5t4 -9.5q0 -4 -5 -8h-5q-13 0 -22 9l-3 3q6 11 5.5 24t8.5 23q2 11 7.5 21t10.5 22q5 4 6 8.5t3 9.5q-11 8 -25 8.5t-28 2.5q-12 6 -24.5 9.5t-24.5 8.5
t-23 12t-18 20q-5 12 -9 26.5t-4 28.5v10t2 10q1 2 1.5 4t2.5 4q13 21 27.5 42.5t34.5 38.5q-8 14 -17 27.5t-17 28t-13.5 30t-5.5 33.5q0 10 1 15q4 49 36.5 90.5t77.5 61.5q32 14 64.5 22t70.5 8h14l9 6v120l11 -3v-13q0 -26 3 -53.5t4 -54.5q6 -12 22 -10l17 1q9 0 15 -3
q41 -10 75 -33.5t49 -64.5zM432 392v5q-23 37 -60.5 53.5t-77.5 21.5l-2 -2q-1 -4 -1 -12q0 -22 13.5 -42.5t33.5 -34.5q18 -7 36 -16.5t37 -9.5q13 0 26 7q3 4 3 9zM299 233q-12 2 -23 6.5t-23 4.5q-7 0 -10 -1q-41 -4 -78.5 -17.5t-66.5 -40.5l44 -17h16q21 0 40 3t35 14
q20 5 39.5 16.5t26.5 31.5zM334 80q-5 3 -8 3q-7 0 -15 -4t-17 -4q-3 0 -9 2q-26 -17 -48.5 -33.5t-42.5 -39.5q20 5 43.5 11.5t42.5 21.5q7 5 15.5 9t16.5 8.5t14 10.5t8 15z" />
    <glyph glyph-name="Edieresis" unicode="&#xcb;" horiz-adv-x="389" 
d="M463 363q0 -9 -8 -14q-10 -8 -21.5 -11.5t-23.5 -3.5q-20 0 -41 7.5t-37 18.5q-22 18 -41.5 41t-19.5 52v7q-8 9 -17 12t-19 3l-46 -5h-12q-23 -8 -46.5 -15.5t-41.5 -26.5q-33 -13 -50.5 -42.5t-25.5 -60.5q-1 -4 -1 -8v-8q0 -32 15.5 -60t35.5 -51q17 4 29 15t27 19
q31 12 64.5 22t68.5 10q37 0 68 -14q7 -6 7 -12q0 -7 -5 -14t-7 -14q-33 -26 -74.5 -46t-85.5 -20q-41 0 -75 21h-2q-15 0 -25 -7.5t-18 -19t-15 -24t-16 -21.5q-6 -9 -6 -19q0 -9 3 -18t3 -19v-4q19 -25 49.5 -37t63.5 -12q6 0 12.5 0.5t12.5 1.5q19 18 38.5 38.5
t40.5 37.5t45 28.5t53 11.5q5 0 10.5 -0.5t11.5 -1.5q15 -7 15 -21q0 -6 -3 -10q-9 -15 -22 -25.5t-27.5 -18.5t-30 -15.5t-28.5 -17.5q-16 -6 -34 -9.5t-34 -10t-27 -18.5t-12 -34q-6 -6 -7.5 -13.5l-3 -15t-3.5 -14.5t-8 -13v-2q0 -5 4 -9.5t4 -9.5q0 -4 -5 -8h-5
q-13 0 -22 9l-3 3q6 11 5.5 24t8.5 23q2 11 7.5 21t10.5 22q5 4 6 8.5t3 9.5q-11 8 -25 8.5t-28 2.5q-12 6 -24.5 9.5t-24.5 8.5t-23 12t-18 20q-5 12 -9 26.5t-4 28.5v10t2 10q1 2 1.5 4t2.5 4q13 21 27.5 42.5t34.5 38.5q-8 14 -17 27.5t-17 28t-13.5 30t-5.5 33.5
q0 10 1 15q4 49 36.5 90.5t77.5 61.5q32 14 64.5 22t70.5 8h14l9 6v120l11 -3v-13q0 -26 3 -53.5t4 -54.5q6 -12 22 -10l17 1q9 0 15 -3q41 -10 75 -33.5t49 -64.5l5 -25v0zM432 392v5q-23 37 -60.5 53.5t-77.5 21.5l-2 -2q-1 -4 -1 -12q0 -22 13.5 -42.5t33.5 -34.5
q18 -7 36 -16.5t37 -9.5q13 0 26 7q3 4 3 9zM299 233q-12 2 -23 6.5t-23 4.5q-7 0 -10 -1q-41 -4 -78.5 -17.5t-66.5 -40.5l44 -17h16q21 0 40 3t35 14q20 5 39.5 16.5t26.5 31.5zM334 80q-5 3 -8 3q-7 0 -15 -4t-17 -4q-3 0 -9 2q-26 -17 -48.5 -33.5t-42.5 -39.5
q20 5 43.5 11.5t42.5 21.5q7 5 15.5 9t16.5 8.5t14 10.5t8 15z" />
    <glyph glyph-name="Igrave" unicode="&#xcc;" horiz-adv-x="404" 
d="M521 573q-3 -3 -6 -6.5t-8 -3.5q-17 20 -35 32.5t-33 35.5q-2 4 -2 6q0 6 6 8q23 -10 44.5 -29t33.5 -43zM586 491q-1 -15 -8.5 -24.5t-17.5 -18t-19.5 -17.5t-15.5 -22q-40 -31 -75 -69t-62 -83q-38 -37 -74 -77.5t-74 -79t-80 -71t-92 -53.5q-42 -29 -91 -41t-97 -24
l-46 16q-7 12 -15.5 26.5t-8.5 29.5q0 14 9 23q51 66 119 102t145 47q4 -2 7.5 -5t3.5 -7q0 -2 -3 -5q-17 -9 -36.5 -9t-36.5 -6q-55 -19 -104.5 -50t-82.5 -80q-3 -8 -3 -16q0 -13 6.5 -24t17.5 -18q15 -6 30 -6q25 0 49 11.5t50 15.5q92 37 177.5 99.5t149.5 148.5
q20 27 46.5 51t40.5 54q-17 -2 -34 -10.5t-32 -8.5q-8 0 -15 3.5t-12 13.5q8 39 27.5 73.5t42.5 69.5q-4 20 -9 39.5t-26 30.5q-32 8 -60 8q-48 0 -92 -16t-82 -39q-52 -17 -95 -57.5t-63 -90.5q1 -8 2 -17.5t4 -17.5t8.5 -14.5t15.5 -9.5q29 1 57.5 5.5t54.5 15t48 27.5
t39 43q0 8 -6 11t-9 9q-4 2 -8 3t-10 1q-2 0 -4 -0.5t-4 -0.5l-29 -11q-3 -2 -6.5 -2t-6.5 -1q-4 -1 -8 -1v3q0 10 12 16.5t21 10.5q5 2 9 3t9 1q17 0 31.5 -9.5t25.5 -20.5l1 -8q0 -19 -13.5 -34.5t-28.5 -27.5q-32 -17 -70.5 -32.5t-77.5 -15.5q-14 0 -27.5 2.5t-26.5 8.5
q-19 30 -19 61q0 8 1 17t6 17q13 26 33.5 47t44 38.5t49.5 31.5t51 26q37 17 79 30t86 13q37 0 70 -10l20 -13q10 -14 16 -30t6 -33v-6.5t-1 -6.5q-20 -31 -37.5 -63t-26.5 -68q31 2 54.5 17.5t49.5 32.5q39 25 77.5 63t69.5 74q2 -2 6 -2t4 -4z" />
    <glyph glyph-name="Iacute" unicode="&#xcd;" horiz-adv-x="404" 
d="M570 647q-14 -23 -32.5 -35.5t-34.5 -32.5q-5 0 -8 3.5t-6 6.5q11 24 33 43t45 29q6 -2 6 -7zM586 491q-1 -15 -8.5 -24.5t-17.5 -18t-19.5 -17.5t-15.5 -22q-40 -31 -75 -69t-62 -83q-38 -37 -74 -77.5t-74 -79t-80 -71t-92 -53.5q-42 -29 -91 -41t-97 -24l-46 16
q-7 12 -15.5 26.5t-8.5 29.5q0 14 9 23q51 66 119 102t145 47q4 -2 7.5 -5t3.5 -7q0 -2 -3 -5q-17 -9 -36.5 -9t-36.5 -6q-55 -19 -104.5 -50t-82.5 -80q-3 -8 -3 -16q0 -13 6.5 -24t17.5 -18q15 -6 30 -6q25 0 49 11.5t50 15.5q92 37 177.5 99.5t149.5 148.5q20 27 46.5 51
t40.5 54q-17 -2 -34 -10.5t-32 -8.5q-8 0 -15 3.5t-12 13.5q8 39 27.5 73.5t42.5 69.5q-4 20 -9 39.5t-26 30.5q-32 8 -60 8q-48 0 -92 -16t-82 -39q-52 -17 -95 -57.5t-63 -90.5q1 -8 2 -17.5t4 -17.5t8.5 -14.5t15.5 -9.5q29 1 57.5 5.5t54.5 15t48 27.5t39 43q0 8 -6 11
t-9 9q-4 2 -8 3t-10 1q-2 0 -4 -0.5t-4 -0.5l-29 -11q-3 -2 -6.5 -2t-6.5 -1q-4 -1 -8 -1v3q0 10 12 16.5t21 10.5q5 2 9 3t9 1q17 0 31.5 -9.5t25.5 -20.5l1 -8q0 -19 -13.5 -34.5t-28.5 -27.5q-32 -17 -70.5 -32.5t-77.5 -15.5q-14 0 -27.5 2.5t-26.5 8.5q-19 30 -19 61
q0 8 1 17t6 17q13 26 33.5 47t44 38.5t49.5 31.5t51 26q37 17 79 30t86 13q37 0 70 -10l20 -13q10 -14 16 -30t6 -33v-6.5t-1 -6.5q-20 -31 -37.5 -63t-26.5 -68q31 2 54.5 17.5t49.5 32.5q39 25 77.5 63t69.5 74q2 -2 6 -2t4 -4z" />
    <glyph glyph-name="Icircumflex" unicode="&#xce;" horiz-adv-x="404" 
d="M600 606l-5 -5t-7 -3q-2 0 -3 1q-12 21 -26.5 35.5t-25.5 37.5q-18 -18 -37 -26.5t-37 -24.5q-5 0 -7.5 4t-4.5 8q15 22 39.5 37t49.5 20q20 -14 38 -36t26 -48zM586 491q-1 -15 -8.5 -24.5t-17.5 -18t-19.5 -17.5t-15.5 -22q-40 -31 -75 -69t-62 -83q-38 -37 -74 -77.5
t-74 -79t-80 -71t-92 -53.5q-42 -29 -91 -41t-97 -24l-46 16q-7 12 -15.5 26.5t-8.5 29.5q0 14 9 23q51 66 119 102t145 47q4 -2 7.5 -5t3.5 -7q0 -2 -3 -5q-17 -9 -36.5 -9t-36.5 -6q-55 -19 -104.5 -50t-82.5 -80q-3 -8 -3 -16q0 -13 6.5 -24t17.5 -18q15 -6 30 -6
q25 0 49 11.5t50 15.5q92 37 177.5 99.5t149.5 148.5q20 27 46.5 51t40.5 54q-17 -2 -34 -10.5t-32 -8.5q-8 0 -15 3.5t-12 13.5q8 39 27.5 73.5t42.5 69.5q-4 20 -9 39.5t-26 30.5q-32 8 -60 8q-48 0 -92 -16t-82 -39q-52 -17 -95 -57.5t-63 -90.5q1 -8 2 -17.5t4 -17.5
t8.5 -14.5t15.5 -9.5q29 1 57.5 5.5t54.5 15t48 27.5t39 43q0 8 -6 11t-9 9q-4 2 -8 3t-10 1q-2 0 -4 -0.5t-4 -0.5l-29 -11q-3 -2 -6.5 -2t-6.5 -1q-4 -1 -8 -1v3q0 10 12 16.5t21 10.5q5 2 9 3t9 1q17 0 31.5 -9.5t25.5 -20.5l1 -8q0 -19 -13.5 -34.5t-28.5 -27.5
q-32 -17 -70.5 -32.5t-77.5 -15.5q-14 0 -27.5 2.5t-26.5 8.5q-19 30 -19 61q0 8 1 17t6 17q13 26 33.5 47t44 38.5t49.5 31.5t51 26q37 17 79 30t86 13q37 0 70 -10l20 -13q10 -14 16 -30t6 -33v-6.5t-1 -6.5q-20 -31 -37.5 -63t-26.5 -68q31 2 54.5 17.5t49.5 32.5
q39 25 77.5 63t69.5 74q2 -2 6 -2t4 -4z" />
    <glyph glyph-name="Idieresis" unicode="&#xcf;" horiz-adv-x="404" 
d="M597 647q-3 -3 -5 -8t-4 -10.5t-4.5 -9t-7.5 -3.5q-2 0 -8 2q-5 10 -5 19q0 10 8 17q12 0 20 -4l6 -3v0zM512 647q-3 -3 -5 -8t-4 -10.5t-5 -9t-7 -3.5q-1 0 -7 2q-6 9 -6 19t8 17q13 0 21 -4q4 -2 5 -3zM586 491q-1 -15 -8.5 -24.5t-17.5 -18t-19.5 -17.5t-15.5 -22
q-40 -31 -75 -69t-62 -83q-38 -37 -74 -77.5t-74 -79t-80 -71t-92 -53.5q-42 -29 -91 -41t-97 -24l-46 16q-7 12 -15.5 26.5t-8.5 29.5q0 14 9 23q51 66 119 102t145 47q4 -2 7.5 -5t3.5 -7q0 -2 -3 -5q-17 -9 -36.5 -9t-36.5 -6q-55 -19 -104.5 -50t-82.5 -80q-3 -8 -3 -16
q0 -13 6.5 -24t17.5 -18q15 -6 30 -6q25 0 49 11.5t50 15.5q92 37 177.5 99.5t149.5 148.5q20 27 46.5 51t40.5 54q-17 -2 -34 -10.5t-32 -8.5q-8 0 -15 3.5t-12 13.5q8 39 27.5 73.5t42.5 69.5q-4 20 -9 39.5t-26 30.5q-32 8 -60 8q-48 0 -92 -16t-82 -39
q-52 -17 -95 -57.5t-63 -90.5q1 -8 2 -17.5t4 -17.5t8.5 -14.5t15.5 -9.5q29 1 57.5 5.5t54.5 15t48 27.5t39 43q0 8 -6 11t-9 9q-4 2 -8 3t-10 1q-2 0 -4 -0.5t-4 -0.5l-29 -11q-3 -2 -6.5 -2t-6.5 -1q-4 -1 -8 -1v3q0 10 12 16.5t21 10.5q5 2 9 3t9 1q17 0 31.5 -9.5
t25.5 -20.5l1 -8q0 -19 -13.5 -34.5t-28.5 -27.5q-32 -17 -70.5 -32.5t-77.5 -15.5q-14 0 -27.5 2.5t-26.5 8.5q-19 30 -19 61q0 8 1 17t6 17q13 26 33.5 47t44 38.5t49.5 31.5t51 26q37 17 79 30t86 13q37 0 70 -10l20 -13q10 -14 16 -30t6 -33v-6.5t-1 -6.5
q-20 -31 -37.5 -63t-26.5 -68q31 2 54.5 17.5t49.5 32.5q39 25 77.5 63t69.5 74q2 -2 6 -2t4 -4z" />
    <glyph glyph-name="Eth" unicode="&#xd0;" horiz-adv-x="543" 
d="M635 328q0 -15 -3.5 -29.5t-13.5 -25.5q-3 -18 -13 -33t-12 -34q-21 -31 -42 -63.5t-47 -58.5q-51 -51 -115 -78t-136 -27h-14t-14 1q-40 -33 -86 -57t-101 -24h-6q-15 2 -27 10.5t-20 21.5q-5 7 -5 11q0 8 6 15t8 15q23 17 50 22t56 5h11h65q14 0 27.5 1t27.5 3
q22 16 41 34.5t37 38t35.5 40t37.5 41.5l-16 1q-14 1 -27.5 2.5t-27.5 1.5q1 6 3 10t5 7.5t10 3.5l6 -1q11 0 22 -0.5t22 -1.5q6 -5 17 -6q39 51 87 84q14 5 21 15l-3 9h3q12 0 20 -8q2 -3 2 -9q0 -11 -13 -18t-21 -15q-22 -11 -40 -27t-35 -34h4q18 -3 36 -7.5t34 -16.5
q0 -5 -1 -10t-6 -6q-7 2 -12.5 5t-10.5 9h-5q-17 0 -30 4l-24 6q-26 -32 -51.5 -65t-57.5 -59l-23 -26q7 -3 16 -3l47 5q43 15 85 36.5t74 57.5q27 31 50 61t34 68q5 12 13 22.5t8 24.5v5q17 24 17 53q0 26 -9.5 51t-19.5 48l-6 14q-21 18 -44 37.5t-48 37t-52.5 29.5
t-57.5 14q-5 -1 -15.5 -1h-15.5l-93 11q-16 0 -35.5 -3.5t-33.5 -12.5h-9q-18 0 -33 -6t-29.5 -13.5t-28.5 -15.5t-29 -12q-16 -8 -25.5 -19.5t-26.5 -15.5q-32 -27 -64 -58.5t-48 -70.5q-10 -27 -10 -59q0 -40 14 -79q27 -43 70.5 -68.5t96.5 -25.5h10t13 1q18 0 34 4.5
t30.5 11.5t28.5 16t29 17q22 16 46.5 38t32.5 48q-16 15 -38 15q-17 0 -33.5 -5.5t-33.5 -10.5q-35 -9 -61.5 -32t-43.5 -55q-1 -1 -4 -1q-5 0 -8 5l3 16q15 29 37.5 49t50 32t58 17t61.5 5h5q11 -3 21 -12t12 -20v-4q0 -14 -6 -25.5t-10 -22.5q-9 0 -15 -4t-11.5 -9.5
t-11 -11.5t-12.5 -10q-20 -18 -44 -31t-49 -23q-14 -11 -31 -15t-35 -4q-24 0 -49 4t-47 6q-26 11 -49.5 29t-41.5 41t-29 50.5t-11 57.5v7q4 23 7.5 45.5t14.5 42.5q21 35 49.5 64t61.5 53t69 42.5t72 33.5q34 6 69 14.5t70 8.5q28 0 52 -7q7 2 13 2h12q22 0 43 -5t36 -11
q12 -5 23.5 -8t23.5 -9q25 -17 52 -37t50 -44t38 -52.5t16 -62.5q0 -8 1.5 -16.5t1.5 -16.5zM176 -25q-9 5 -21 5q-3 0 -10.5 -0.5t-35.5 -0.5h-9t-9 1q-12 -2 -25 -3.5t-25 -5t-21.5 -10.5t-13.5 -21q5 -8 12 -11t15 -6q19 4 39 7t39 8.5t35.5 14t29.5 22.5z" />
    <glyph glyph-name="Ntilde" unicode="&#xd1;" horiz-adv-x="626" 
d="M928 630q0 -1 -2 -5l-6 1q-14 0 -25 -8t-23 -8q-6 0 -9 1l-7 -4q-4 -1 -11 -1t-16 2.5t-19 6.5l-28 10t-22 5q-17 0 -32 -11q-7 3 -16 3t-11 8q19 10 33 13.5t25 3.5q12 0 21.5 -3t18.5 -6.5t19 -6.5t22 -3h5q13 2 25.5 4.5t23.5 10.5q6 3 12 3l11 -1q2 -4 6.5 -7t4.5 -8
zM1013 546q0 -10 -9 -11t-15 -7q-47 -19 -90.5 -46t-84.5 -59q-51 -41 -106.5 -90.5t-95.5 -106.5q-14 -14 -24.5 -30.5t-20 -33.5t-20.5 -33.5t-26 -30.5q-11 -26 -27.5 -51t-25.5 -52q-6 -28 -14 -58.5t-8 -61.5v-4q-5 -2 -8 -5t-7 -3l-3 1q-5 10 -5 24l5 51q5 56 10 113
t7 113q1 4 2.5 7.5t1.5 7.5q0 3 -1 5l-3 4q-45 -42 -97 -88t-102 -80q-69 -57 -146 -93.5t-165 -36.5h-13.5t-13.5 1q-15 6 -31 14.5t-30 19.5t-24.5 25t-14.5 32v6q0 17 -2.5 32.5t-2.5 30.5q0 11 2 21t9 21q5 40 21.5 75t40 67.5t50 62.5t52.5 59q13 8 25.5 18t23.5 22
q18 9 36 20t36.5 20.5t38 15.5t40.5 6h7l2 -2q7 10 16 10q7 0 14 -2.5t15 -2.5h2q32 -12 53.5 -37t34.5 -54q-5 -16 -4.5 -34t-0.5 -34.5t-7.5 -30t-24.5 -21.5q-4 5 -4 11q0 11 9.5 20.5t9.5 22.5l-1 5q1 9 2 18.5t1 19.5q0 14 -3 26.5t-12 22.5q-2 9 -8 15t-13.5 10
t-16 7.5t-15.5 9.5q-18 6 -35 6q-32 0 -62.5 -13.5t-59.5 -25.5q-58 -34 -104.5 -84t-88.5 -99v-4q0 -10 -9.5 -15.5t-11.5 -15.5q-5 -19 -12 -37t-13.5 -37t-11.5 -38t-5 -39q0 -22 7 -43q1 -13 8 -23t16.5 -19t19 -17t17.5 -16q14 -8 27.5 -11t27.5 -3q32 0 63 10t61 15
q13 11 28.5 18.5t31.5 14t31 15t28 21.5q67 45 128 97t118 109q5 9 12.5 17.5t14 17.5t11.5 19t5 22q0 5 -2 15q3 11 7.5 20t4.5 20q12 29 21 58t23 56q7 18 19 33.5t33 20.5q10 -2 17 -9t9 -16q-3 -36 -17.5 -66.5t-28.5 -62.5q-9 -20 -24 -39t-29.5 -38t-25 -40t-11.5 -45
q-6 -19 -8 -38t-2.5 -38.5t-1.5 -39t-6 -38.5l4 -5q38 72 88.5 142.5t110.5 134.5t128 119.5t141 97.5q19 11 39 19t39 20h1q6 0 7 -5t1 -11v-1v0zM577 477q-17 -14 -24.5 -33.5t-19.5 -36.5q-2 -23 -12.5 -44t-10.5 -42v-5q26 36 47.5 75t28.5 84z" />
    <glyph glyph-name="Ograve" unicode="&#xd2;" horiz-adv-x="401" 
d="M317 595q-3 -3 -6 -6.5t-8 -3.5q-17 20 -35 32.5t-33 35.5q-2 4 -2 6q0 6 6 8q23 -10 44.5 -29t33.5 -43zM400 322q0 -42 -11.5 -82.5t-31.5 -77.5t-46.5 -70.5t-55.5 -63.5q-30 -23 -61.5 -48t-64 -46.5t-67.5 -35.5t-73 -14q-16 0 -31.5 2.5t-32.5 8.5q-12 4 -18.5 15
t-16.5 17q-6 28 -6 56q0 53 20.5 101.5t54.5 90.5q-17 12 -33.5 25.5t-30 29.5t-22 35t-8.5 40v8q0 37 14.5 68.5t37.5 57.5t53 46t60 32q29 12 58.5 23t61.5 11q17 0 32 -4q33 -3 64.5 -15t58.5 -31t49 -44.5t35 -56.5q11 -41 11 -78zM377 286q-2 20 -2 40t-2.5 39.5t-9 37
t-21.5 32.5q-17 26 -44.5 46t-56.5 28q-39 18 -79 18q-46 0 -90.5 -17.5t-82.5 -39.5q-18 -14 -36.5 -29.5t-33.5 -34t-24 -40t-9 -45.5q0 -13 3 -26q5 -20 15.5 -34.5t20.5 -31.5q10 -5 21 -17t26 -13q38 48 84 83t99 60q3 3 7 3q5 0 10.5 -4t8.5 -8q-26 -14 -53 -29.5
t-51.5 -34t-45.5 -40t-36 -48.5q17 -8 34.5 -12.5t34.5 -7.5q20 5 40 6.5t39.5 3.5t38 7t35.5 18v3q0 6 3 9t7.5 5.5t8 4.5t5.5 7q9 -6 19 -13t15 -16q-28 -10 -52 -26t-52 -23q-22 -5 -45 -7.5t-46 -2.5q-28 0 -55 5t-51 16q-30 -38 -48.5 -82t-18.5 -94q0 -7 0.5 -14
t1.5 -15q0 -17 12.5 -24t22.5 -18q16 -3 34 -3q34 0 66 10t61.5 26t57 36.5t53.5 42.5l20 22q24 26 48 53.5t43.5 57t33 62t16.5 68.5z" />
    <glyph glyph-name="Oacute" unicode="&#xd3;" horiz-adv-x="401" 
d="M315 654q-14 -23 -32.5 -35.5t-34.5 -32.5q-5 0 -8 3.5t-6 6.5q11 24 33 43t45 29q6 -2 6 -7zM400 322q0 -42 -11.5 -82.5t-31.5 -77.5t-46.5 -70.5t-55.5 -63.5q-30 -23 -61.5 -48t-64 -46.5t-67.5 -35.5t-73 -14q-16 0 -31.5 2.5t-32.5 8.5q-12 4 -18.5 15t-16.5 17
q-6 28 -6 56q0 53 20.5 101.5t54.5 90.5q-17 12 -33.5 25.5t-30 29.5t-22 35t-8.5 40v8q0 37 14.5 68.5t37.5 57.5t53 46t60 32q29 12 58.5 23t61.5 11q17 0 32 -4q33 -3 64.5 -15t58.5 -31t49 -44.5t35 -56.5q11 -41 11 -78zM377 286q-2 20 -2 40t-2.5 39.5t-9 37
t-21.5 32.5q-17 26 -44.5 46t-56.5 28q-39 18 -79 18q-46 0 -90.5 -17.5t-82.5 -39.5q-18 -14 -36.5 -29.5t-33.5 -34t-24 -40t-9 -45.5q0 -13 3 -26q5 -20 15.5 -34.5t20.5 -31.5q10 -5 21 -17t26 -13q38 48 84 83t99 60q3 3 7 3q5 0 10.5 -4t8.5 -8q-26 -14 -53 -29.5
t-51.5 -34t-45.5 -40t-36 -48.5q17 -8 34.5 -12.5t34.5 -7.5q20 5 40 6.5t39.5 3.5t38 7t35.5 18v3q0 6 3 9t7.5 5.5t8 4.5t5.5 7q9 -6 19 -13t15 -16q-28 -10 -52 -26t-52 -23q-22 -5 -45 -7.5t-46 -2.5q-28 0 -55 5t-51 16q-30 -38 -48.5 -82t-18.5 -94q0 -7 0.5 -14
t1.5 -15q0 -17 12.5 -24t22.5 -18q16 -3 34 -3q34 0 66 10t61.5 26t57 36.5t53.5 42.5l20 22q24 26 48 53.5t43.5 57t33 62t16.5 68.5z" />
    <glyph glyph-name="Ocircumflex" unicode="&#xd4;" horiz-adv-x="401" 
d="M330 569l-5 -5t-7 -3q-2 0 -3 1q-12 21 -26.5 35.5t-25.5 37.5q-18 -18 -37 -26.5t-37 -24.5q-5 0 -7.5 4t-4.5 8q15 22 39.5 37t49.5 20q20 -14 38 -36t26 -48zM400 322q0 -42 -11.5 -82.5t-31.5 -77.5t-46.5 -70.5t-55.5 -63.5q-30 -23 -61.5 -48t-64 -46.5
t-67.5 -35.5t-73 -14q-16 0 -31.5 2.5t-32.5 8.5q-12 4 -18.5 15t-16.5 17q-6 28 -6 56q0 53 20.5 101.5t54.5 90.5q-17 12 -33.5 25.5t-30 29.5t-22 35t-8.5 40v8q0 37 14.5 68.5t37.5 57.5t53 46t60 32q29 12 58.5 23t61.5 11q17 0 32 -4q33 -3 64.5 -15t58.5 -31
t49 -44.5t35 -56.5q11 -41 11 -78zM377 286q-2 20 -2 40t-2.5 39.5t-9 37t-21.5 32.5q-17 26 -44.5 46t-56.5 28q-39 18 -79 18q-46 0 -90.5 -17.5t-82.5 -39.5q-18 -14 -36.5 -29.5t-33.5 -34t-24 -40t-9 -45.5q0 -13 3 -26q5 -20 15.5 -34.5t20.5 -31.5q10 -5 21 -17
t26 -13q38 48 84 83t99 60q3 3 7 3q5 0 10.5 -4t8.5 -8q-26 -14 -53 -29.5t-51.5 -34t-45.5 -40t-36 -48.5q17 -8 34.5 -12.5t34.5 -7.5q20 5 40 6.5t39.5 3.5t38 7t35.5 18v3q0 6 3 9t7.5 5.5t8 4.5t5.5 7q9 -6 19 -13t15 -16q-28 -10 -52 -26t-52 -23q-22 -5 -45 -7.5
t-46 -2.5q-28 0 -55 5t-51 16q-30 -38 -48.5 -82t-18.5 -94q0 -7 0.5 -14t1.5 -15q0 -17 12.5 -24t22.5 -18q16 -3 34 -3q34 0 66 10t61.5 26t57 36.5t53.5 42.5l20 22q24 26 48 53.5t43.5 57t33 62t16.5 68.5z" />
    <glyph glyph-name="Otilde" unicode="&#xd5;" horiz-adv-x="401" 
d="M353 613q0 -1 -2 -5l-6 1q-14 0 -25 -8t-23 -8q-6 0 -9 1l-7 -4q-4 -1 -11 -1t-16 2.5t-19 6.5l-28 10t-22 5q-17 0 -32 -11q-7 3 -16 3t-11 8q19 10 33 13.5t25 3.5q12 0 21.5 -3t18.5 -6.5t19 -6.5t22 -3h5q13 2 25.5 4.5t23.5 10.5q6 3 12 3l11 -1q2 -4 6.5 -7t4.5 -8
zM400 322q0 -42 -11.5 -82.5t-31.5 -77.5t-46.5 -70.5t-55.5 -63.5q-30 -23 -61.5 -48t-64 -46.5t-67.5 -35.5t-73 -14q-16 0 -31.5 2.5t-32.5 8.5q-12 4 -18.5 15t-16.5 17q-6 28 -6 56q0 53 20.5 101.5t54.5 90.5q-17 12 -33.5 25.5t-30 29.5t-22 35t-8.5 40v8
q0 37 14.5 68.5t37.5 57.5t53 46t60 32q29 12 58.5 23t61.5 11q17 0 32 -4q33 -3 64.5 -15t58.5 -31t49 -44.5t35 -56.5q11 -41 11 -78zM377 286q-2 20 -2 40t-2.5 39.5t-9 37t-21.5 32.5q-17 26 -44.5 46t-56.5 28q-39 18 -79 18q-46 0 -90.5 -17.5t-82.5 -39.5
q-18 -14 -36.5 -29.5t-33.5 -34t-24 -40t-9 -45.5q0 -13 3 -26q5 -20 15.5 -34.5t20.5 -31.5q10 -5 21 -17t26 -13q38 48 84 83t99 60q3 3 7 3q5 0 10.5 -4t8.5 -8q-26 -14 -53 -29.5t-51.5 -34t-45.5 -40t-36 -48.5q17 -8 34.5 -12.5t34.5 -7.5q20 5 40 6.5t39.5 3.5t38 7
t35.5 18v3q0 6 3 9t7.5 5.5t8 4.5t5.5 7q9 -6 19 -13t15 -16q-28 -10 -52 -26t-52 -23q-22 -5 -45 -7.5t-46 -2.5q-28 0 -55 5t-51 16q-30 -38 -48.5 -82t-18.5 -94q0 -7 0.5 -14t1.5 -15q0 -17 12.5 -24t22.5 -18q16 -3 34 -3q34 0 66 10t61.5 26t57 36.5t53.5 42.5l20 22
q24 26 48 53.5t43.5 57t33 62t16.5 68.5z" />
    <glyph glyph-name="Odieresis" unicode="&#xd6;" horiz-adv-x="401" 
d="M400 322q0 -42 -11.5 -82.5t-31.5 -77.5t-46.5 -70.5t-55.5 -63.5q-30 -23 -61.5 -48t-64 -46.5t-67.5 -35.5t-73 -14q-16 0 -31.5 2.5t-32.5 8.5q-12 4 -18.5 15t-16.5 17q-6 28 -6 56q0 53 20.5 101.5t54.5 90.5q-17 12 -33.5 25.5t-30 29.5t-22 35t-8.5 40v8
q0 37 14.5 68.5t37.5 57.5t53 46t60 32q29 12 58.5 23t61.5 11q17 0 32 -4q33 -3 64.5 -15t58.5 -31t49 -44.5t35 -56.5q11 -41 11 -78zM377 286q-2 20 -2 40t-2.5 39.5t-9 37t-21.5 32.5q-17 26 -44.5 46t-56.5 28q-39 18 -79 18q-46 0 -90.5 -17.5t-82.5 -39.5
q-18 -14 -36.5 -29.5t-33.5 -34t-24 -40t-9 -45.5q0 -13 3 -26q5 -20 15.5 -34.5t20.5 -31.5q10 -5 21 -17t26 -13q38 48 84 83t99 60q3 3 7 3q5 0 10.5 -4t8.5 -8q-26 -14 -53 -29.5t-51.5 -34t-45.5 -40t-36 -48.5q17 -8 34.5 -12.5t34.5 -7.5q20 5 40 6.5t39.5 3.5t38 7
t35.5 18v3q0 6 3 9t7.5 5.5t8 4.5t5.5 7q9 -6 19 -13t15 -16q-28 -10 -52 -26t-52 -23q-22 -5 -45 -7.5t-46 -2.5q-28 0 -55 5t-51 16q-30 -38 -48.5 -82t-18.5 -94q0 -7 0.5 -14t1.5 -15q0 -17 12.5 -24t22.5 -18q16 -3 34 -3q34 0 66 10t61.5 26t57 36.5t53.5 42.5l20 22
q24 26 48 53.5t43.5 57t33 62t16.5 68.5z" />
    <glyph glyph-name="multiply" unicode="&#xd7;" horiz-adv-x="333" 
d="M265 218q0 -1 -2 -3q-9 -14 -20.5 -23.5t-23.5 -18t-23 -17.5t-18 -21q16 -29 33.5 -58t39.5 -55v-2l1 -10q0 -7 -9 -11h-9q-6 0 -6 6v2q-5 4 -6.5 10t-3 13t-4.5 13t-10 10q-8 16 -18.5 31t-19.5 30q-2 1 -5 1q-13 0 -22 -13.5t-19 -20.5q-9 -9 -20.5 -17t-22.5 -16
t-20.5 -17.5t-14.5 -21.5q-2 2 -6 2l-13 -1q-1 3 -1.5 5.5t-0.5 5.5v12q8 3 15 9.5t14 12.5t14.5 11.5t17.5 7.5q17 17 31.5 32t33.5 29q0 14 -5 26.5t-12 24.5t-14.5 23.5t-12.5 23.5l2 11q12 -2 18.5 -10.5t11 -19t8.5 -21.5t12 -19q0 -5 4.5 -9t6.5 -9q9 3 14.5 9
t10 12.5t10 11.5t15.5 7q5 2 9 7.5l8 11t8.5 9.5t10.5 4q5 0 8 -2q5 -2 5 -8z" />
    <glyph glyph-name="Oslash" unicode="&#xd8;" horiz-adv-x="401" 
d="M434 560q-18 -28 -41 -51t-43 -48q23 -26 39 -61q11 -41 11 -78q0 -42 -11.5 -82.5t-31.5 -77.5t-46.5 -70.5t-55.5 -63.5q-30 -23 -61.5 -48t-64 -46.5t-67.5 -35.5t-73 -14q-22 0 -41 4q-5 -7 -9 -13.5t-8 -11.5l3 -10q-9 -1 -15 -6.5t-9.5 -13t-6 -16.5t-4.5 -16
q-6 -5 -12.5 -6t-11.5 -5q-5 4 -5 9l2 12q0 4 -5 7q6 7 11 14.5t15 9.5q7 11 15.5 24t19.5 28q-1 1 -3 1q-12 4 -18.5 15t-16.5 17q-6 28 -6 56q0 53 20.5 101.5t54.5 90.5q-17 12 -33.5 25.5t-30 29.5t-22 35t-8.5 40v8q0 37 14.5 68.5t37.5 57.5t53 46t60 32
q29 12 58.5 23t61.5 11q17 0 32 -4q43 -5 83 -23.5t72 -49.5q21 26 44.5 50t43.5 51q0 -2 4.5 -2.5t4.5 -4.5v-8v0zM324 457q-36 38 -83 52q-39 18 -79 18q-46 0 -90.5 -17.5t-82.5 -39.5q-18 -14 -36.5 -29.5t-33.5 -34t-24 -40t-9 -45.5q0 -13 3 -26q5 -20 15.5 -34.5
t20.5 -31.5q10 -5 21 -17t26 -13q38 48 84 83t99 60q3 3 7 3q5 0 10.5 -4t8.5 -8q-26 -14 -53 -29.5t-51.5 -34t-45.5 -40t-36 -48.5q17 -8 34.5 -12.5t34.5 -7.5q20 5 45 7q29 42 57.5 83t55 76.5t50 64.5t41.5 48q2 5 5 8.5t6 8.5zM377 286q-2 20 -2 40t-2.5 39.5t-9 37
t-21.5 32.5q-2 2 -6 8q-5 -7 -9 -13.5t-7 -13.5q-16 -14 -37 -39.5t-45 -58t-50.5 -71t-53.5 -78.5q23 2 43.5 7t39.5 20v3q0 6 3 9t7.5 5.5t8 4.5t5.5 7q9 -6 19 -13t15 -16q-28 -10 -52 -26t-52 -23q-14 -4 -28.5 -5.5t-28.5 -3.5q-44 -65 -83 -125.5t-68 -103.5
q5 -1 15 -1q34 0 66 10t61.5 26t57 36.5t53.5 42.5l20 22q24 26 48 53.5t43.5 57t33 62t16.5 68.5zM80 137q-28 0 -55 5t-51 16q-30 -38 -48.5 -82t-18.5 -94q0 -7 0.5 -14t1.5 -15q0 -16 11 -22.5t21 -16.5q30 47 68 104.5t79 118.5h-8z" />
    <glyph glyph-name="Ugrave" unicode="&#xd9;" horiz-adv-x="441" 
d="M514 -302q-3 -5 -7.5 -6t-9.5 -1q-1 -1 -3 -1h-4l-72 19q-20 8 -37 15t-31.5 16t-26.5 20t-22 28q-17 28 -24 58.5t-7 62.5q0 38 7.5 75.5t18.5 75.5q-14 -7 -25.5 -17.5t-24.5 -20.5l-5 -4q-12 -10 -23 -20.5t-24 -18.5q-19 -15 -35.5 -26.5t-33.5 -19.5l-18 -1
q-5 -1 -8.5 -1h-8.5q-14 0 -23 5q-15 15 -15 38q0 9 1.5 18.5t3.5 17.5l2 12q1 5 1.5 8.5t0.5 4.5q9 49 25 96.5t34 94.5l16 42q16 25 25 48.5t19 49.5l21 55q8 20 14 42.5t14 44.5l5 13q-1 3 -1 9q0 9 1 18t3 17l1 3q3 16 3 30q0 11 -3 22.5t-12 22.5q-56 71 -112 71
q-6 0 -16 -2h-14q-42 0 -79 -15.5t-60 -44.5l-4 -6q-11 -16 -19.5 -34.5t-8.5 -36.5q0 -17 10 -31q11 -11 25.5 -15.5t28.5 -3.5l13 1l3 -6q-2 -6 -9 -12q-10 -2 -16 -2q-19 0 -37 9t-30 24q-5 9 -6.5 18.5t-1.5 18.5q0 16 5 31.5t11.5 28.5t14.5 23.5t14 16.5
q28 29 68 43.5t82 14.5q31 0 61 -8t54 -25q23 -17 41 -46t18 -63v-8.5t-1 -8.5q3 -6 3 -11t-4 -13l-1 -3l-4 -14q-3 -49 -24 -86q-18 -63 -42 -120l-38 -92q-12 -30 -25.5 -63t-25 -66t-18.5 -65.5t-7 -60.5q2 -10 4.5 -18t10.5 -13q24 1 43.5 12.5t36.5 25.5l14 10
q2 2 5 3.5t5 3.5q3 2 4 4q13 15 28.5 28t31.5 25t25 18.5t13.5 10.5t6 6t2.5 4q20 53 37.5 87t22.5 45q10 21 22.5 37t30.5 31q11 23 32 23q9 -3 12 -7t3 -9q0 -8 -3 -15l-2 -8t-1 -9q-12 -27 -30.5 -51.5t-37.5 -49.5l-39 -51l-4 -9q-10 -22 -20.5 -44t-19 -44.5t-14 -46
t-3.5 -47.5l1 -16q-1 -5 -1 -10v-10q0 -34 13 -67q11 -39 46 -63t80 -41q8 -3 20 -5.5t24.5 -5.5t23 -7t16.5 -9v-1v0zM428 272q-13 -9 -25.5 -24t-19.5 -29q-8 -17 -15 -31q-6 -12 -11 -23t-6 -13q5 6 16.5 22t24 34.5t23 36t13.5 27.5zM443 591q-3 -3 -6 -6.5t-8 -3.5
q-17 20 -35 32.5t-33 35.5q-2 4 -2 6q0 6 6 8q23 -10 44.5 -29t33.5 -43z" />
    <glyph glyph-name="Uacute" unicode="&#xda;" horiz-adv-x="441" 
d="M514 -302q-3 -5 -7.5 -6t-9.5 -1q-1 -1 -3 -1h-4l-72 19q-20 8 -37 15t-31.5 16t-26.5 20t-22 28q-17 28 -24 58.5t-7 62.5q0 38 7.5 75.5t18.5 75.5q-14 -7 -25.5 -17.5t-24.5 -20.5l-5 -4q-12 -10 -23 -20.5t-24 -18.5q-19 -15 -35.5 -26.5t-33.5 -19.5l-18 -1
q-5 -1 -8.5 -1h-8.5q-14 0 -23 5q-15 15 -15 38q0 9 1.5 18.5t3.5 17.5l2 12q1 5 1.5 8.5t0.5 4.5q9 49 25 96.5t34 94.5l16 42q16 25 25 48.5t19 49.5l21 55q8 20 14 42.5t14 44.5l5 13q-1 3 -1 9q0 9 1 18t3 17l1 3q3 16 3 30q0 11 -3 22.5t-12 22.5q-56 71 -112 71
q-6 0 -16 -2h-14q-42 0 -79 -15.5t-60 -44.5l-4 -6q-11 -16 -19.5 -34.5t-8.5 -36.5q0 -17 10 -31q11 -11 25.5 -15.5t28.5 -3.5l13 1l3 -6q-2 -6 -9 -12q-10 -2 -16 -2q-19 0 -37 9t-30 24q-5 9 -6.5 18.5t-1.5 18.5q0 16 5 31.5t11.5 28.5t14.5 23.5t14 16.5
q28 29 68 43.5t82 14.5q31 0 61 -8t54 -25q23 -17 41 -46t18 -63v-8.5t-1 -8.5q3 -6 3 -11t-4 -13l-1 -3l-4 -14q-3 -49 -24 -86q-18 -63 -42 -120l-38 -92q-12 -30 -25.5 -63t-25 -66t-18.5 -65.5t-7 -60.5q2 -10 4.5 -18t10.5 -13q24 1 43.5 12.5t36.5 25.5l14 10
q2 2 5 3.5t5 3.5q3 2 4 4q13 15 28.5 28t31.5 25t25 18.5t13.5 10.5t6 6t2.5 4q20 53 37.5 87t22.5 45q10 21 22.5 37t30.5 31q11 23 32 23q9 -3 12 -7t3 -9q0 -8 -3 -15l-2 -8t-1 -9q-12 -27 -30.5 -51.5t-37.5 -49.5l-39 -51l-4 -9q-10 -22 -20.5 -44t-19 -44.5t-14 -46
t-3.5 -47.5l1 -16q-1 -5 -1 -10v-10q0 -34 13 -67q11 -39 46 -63t80 -41q8 -3 20 -5.5t24.5 -5.5t23 -7t16.5 -9v-1v0zM428 272q-13 -9 -25.5 -24t-19.5 -29q-8 -17 -15 -31q-6 -12 -11 -23t-6 -13q5 6 16.5 22t24 34.5t23 36t13.5 27.5zM467 644q-14 -23 -32.5 -35.5
t-34.5 -32.5q-5 0 -8 3.5t-6 6.5q11 24 33 43t45 29q6 -2 6 -7z" />
    <glyph glyph-name="Ucircumflex" unicode="&#xdb;" horiz-adv-x="441" 
d="M514 -302q-3 -5 -7.5 -6t-9.5 -1q-1 -1 -3 -1h-4l-72 19q-20 8 -37 15t-31.5 16t-26.5 20t-22 28q-17 28 -24 58.5t-7 62.5q0 38 7.5 75.5t18.5 75.5q-14 -7 -25.5 -17.5t-24.5 -20.5l-5 -4q-12 -10 -23 -20.5t-24 -18.5q-19 -15 -35.5 -26.5t-33.5 -19.5l-18 -1
q-5 -1 -8.5 -1h-8.5q-14 0 -23 5q-15 15 -15 38q0 9 1.5 18.5t3.5 17.5l2 12q1 5 1.5 8.5t0.5 4.5q9 49 25 96.5t34 94.5l16 42q16 25 25 48.5t19 49.5l21 55q8 20 14 42.5t14 44.5l5 13q-1 3 -1 9q0 9 1 18t3 17l1 3q3 16 3 30q0 11 -3 22.5t-12 22.5q-56 71 -112 71
q-6 0 -16 -2h-14q-42 0 -79 -15.5t-60 -44.5l-4 -6q-11 -16 -19.5 -34.5t-8.5 -36.5q0 -17 10 -31q11 -11 25.5 -15.5t28.5 -3.5l13 1l3 -6q-2 -6 -9 -12q-10 -2 -16 -2q-19 0 -37 9t-30 24q-5 9 -6.5 18.5t-1.5 18.5q0 16 5 31.5t11.5 28.5t14.5 23.5t14 16.5
q28 29 68 43.5t82 14.5q31 0 61 -8t54 -25q23 -17 41 -46t18 -63v-8.5t-1 -8.5q3 -6 3 -11t-4 -13l-1 -3l-4 -14q-3 -49 -24 -86q-18 -63 -42 -120l-38 -92q-12 -30 -25.5 -63t-25 -66t-18.5 -65.5t-7 -60.5q2 -10 4.5 -18t10.5 -13q24 1 43.5 12.5t36.5 25.5l14 10
q2 2 5 3.5t5 3.5q3 2 4 4q13 15 28.5 28t31.5 25t25 18.5t13.5 10.5t6 6t2.5 4q20 53 37.5 87t22.5 45q10 21 22.5 37t30.5 31q11 23 32 23q9 -3 12 -7t3 -9q0 -8 -3 -15l-2 -8t-1 -9q-12 -27 -30.5 -51.5t-37.5 -49.5l-39 -51l-4 -9q-10 -22 -20.5 -44t-19 -44.5t-14 -46
t-3.5 -47.5l1 -16q-1 -5 -1 -10v-10q0 -34 13 -67q11 -39 46 -63t80 -41q8 -3 20 -5.5t24.5 -5.5t23 -7t16.5 -9v-1v0zM428 272q-13 -9 -25.5 -24t-19.5 -29q-8 -17 -15 -31q-6 -12 -11 -23t-6 -13q5 6 16.5 22t24 34.5t23 36t13.5 27.5z" />
    <glyph glyph-name="Udieresis" unicode="&#xdc;" horiz-adv-x="441" 
d="M514 -302q-3 -5 -7.5 -6t-9.5 -1q-1 -1 -3 -1h-4l-72 19q-20 8 -37 15t-31.5 16t-26.5 20t-22 28q-17 28 -24 58.5t-7 62.5q0 38 7.5 75.5t18.5 75.5q-14 -7 -25.5 -17.5t-24.5 -20.5l-5 -4q-12 -10 -23 -20.5t-24 -18.5q-19 -15 -35.5 -26.5t-33.5 -19.5l-18 -1
q-5 -1 -8.5 -1h-8.5q-14 0 -23 5q-15 15 -15 38q0 9 1.5 18.5t3.5 17.5l2 12q1 5 1.5 8.5t0.5 4.5q9 49 25 96.5t34 94.5l16 42q16 25 25 48.5t19 49.5l21 55q8 20 14 42.5t14 44.5l5 13q-1 3 -1 9q0 9 1 18t3 17l1 3q3 16 3 30q0 11 -3 22.5t-12 22.5q-56 71 -112 71
q-6 0 -16 -2h-14q-42 0 -79 -15.5t-60 -44.5l-4 -6q-11 -16 -19.5 -34.5t-8.5 -36.5q0 -17 10 -31q11 -11 25.5 -15.5t28.5 -3.5l13 1l3 -6q-2 -6 -9 -12q-10 -2 -16 -2q-19 0 -37 9t-30 24q-5 9 -6.5 18.5t-1.5 18.5q0 16 5 31.5t11.5 28.5t14.5 23.5t14 16.5
q28 29 68 43.5t82 14.5q31 0 61 -8t54 -25q23 -17 41 -46t18 -63v-8.5t-1 -8.5q3 -6 3 -11t-4 -13l-1 -3l-4 -14q-3 -49 -24 -86q-18 -63 -42 -120l-38 -92q-12 -30 -25.5 -63t-25 -66t-18.5 -65.5t-7 -60.5q2 -10 4.5 -18t10.5 -13q24 1 43.5 12.5t36.5 25.5l14 10
q2 2 5 3.5t5 3.5q3 2 4 4q13 15 28.5 28t31.5 25t25 18.5t13.5 10.5t6 6t2.5 4q20 53 37.5 87t22.5 45q10 21 22.5 37t30.5 31q11 23 32 23q9 -3 12 -7t3 -9q0 -8 -3 -15l-2 -8t-1 -9q-12 -27 -30.5 -51.5t-37.5 -49.5l-39 -51l-4 -9q-10 -22 -20.5 -44t-19 -44.5t-14 -46
t-3.5 -47.5l1 -16q-1 -5 -1 -10v-10q0 -34 13 -67q11 -39 46 -63t80 -41q8 -3 20 -5.5t24.5 -5.5t23 -7t16.5 -9v-1v0zM428 272q-13 -9 -25.5 -24t-19.5 -29q-8 -17 -15 -31q-6 -12 -11 -23t-6 -13q5 6 16.5 22t24 34.5t23 36t13.5 27.5z" />
    <glyph glyph-name="Yacute" unicode="&#xdd;" horiz-adv-x="591" 
d="M826 -65q0 -5 -1 -10t-9 -6q-9 2 -17.5 5t-14.5 9h-7q-11 0 -21.5 1t-21.5 3l-14 2q-14 2 -25 3.5t-22 2.5l-25 1q-20 1 -39 2.5t-39 1.5q-28 0 -54.5 -4t-50.5 -17q-14 0 -24.5 -4.5t-20.5 -10.5l-15 -7.5t-15 -4.5q-8 -21 -11 -43.5t-6 -45.5l-3 -23q-7 -53 -27 -100.5
t-39 -95.5l-4 -10l-4 -8l-4 -8q-8 -4 -14.5 -10t-11.5 -13l-2 -3q-8 -10 -16.5 -17.5t-20.5 -7.5q-8 0 -17 4q-16 2 -27 10.5t-18.5 19.5t-11.5 22t-6 18l-1 22q-2 33 8 61.5t26.5 54.5t36.5 51t39 50l6 8l33 22l2 2q18 12 37 24.5t33 27.5q3 12 4 25l2 26l2 26t4 25
q-107 55 -138 244v32q-1 5 -1 9.5v9.5q0 19 5 30q-1 6 -1 12v12q0 20 1 38.5t3 36.5l1 12q3 33 3 58q0 47 -14 88q-7 19 -20.5 36t-31.5 21h-3q-35 0 -64.5 -12.5t-58.5 -26.5l-47 -22q-5 -10 -12 -14.5t-14 -10.5l-9 -6q-75 -99 -75 -199q0 -13 1.5 -25.5t3.5 -26.5
q5 -13 13 -29.5t19 -32t26 -27t35 -13.5q28 -7 62 -7t63 7l5 -6l-1 -1q-8 -12 -20.5 -16t-26.5 -4q-7 0 -13.5 0.5t-13.5 1.5l-32 2q-32 7 -60.5 17.5t-45.5 42.5q-19 24 -23.5 54t-8.5 62l-4 33q14 67 40.5 119.5t70.5 87.5q34 27 76.5 44.5t93.5 28.5q4 1 11 1
q26 0 44 -14.5t28 -25.5q19 -34 25.5 -70.5t6.5 -68.5q0 -23 -2 -43.5t-5 -35.5v-35q0 -18 -2 -36t-10 -34l6 -38q2 -16 4.5 -31.5t9.5 -31.5q5 -23 11.5 -48.5t18 -49t29 -41.5t44.5 -27q2 5 3 11t2 13t2 13t4 11q-1 5 -1.5 10t-0.5 10q0 13 2.5 25t6.5 24q3 11 5.5 22.5
t3.5 22.5l10 32q8 27 18 53.5t31 46.5q5 2 10.5 3t10.5 1q15 0 26 -9q10 -15 14 -31t4 -32q0 -25 -7.5 -50t-15.5 -48l-9 -25q-17 -35 -43 -66.5t-52 -60.5l-1 -2l-7 -46q-2 -13 -4 -23q-1 -5 -1.5 -9t-1.5 -7q-1 -4 -1 -7l5 -5q46 28 100 37t109 9q16 0 31.5 -0.5
t30.5 -1.5q8 -4 19.5 -4.5t33.5 -3.5l8 -1q26 -3 51 -7.5t48 -16.5zM511 278v12t-1 12q-4 8 -9 14t-13 6h-2q-25 -19 -33.5 -47t-15.5 -58l-9 -40l-6 -26q-3 -13 -5.5 -27t-2.5 -28q0 -6 0.5 -11.5t1.5 -10.5q1 -1 3 -1h2q46 57 68 106.5t22 98.5zM351 -125l-30 -23
q-24 -18 -48.5 -37t-40.5 -45l-7 -11q-15 -23 -27 -47t-18 -50q-12 -26 -12 -52q0 -15 5 -35l11 -14q5 -7 10 -12.5t14 -5.5h4q6 -3 12 -3q11 0 18.5 8t14.5 18q5 6 9.5 11.5t9.5 9.5q33 72 52.5 144t26.5 144h-4zM480 619q-14 -23 -32.5 -35.5t-34.5 -32.5q-5 0 -8 3.5
t-6 6.5q11 24 33 43t45 29q6 -2 6 -7z" />
    <glyph glyph-name="Thorn" unicode="&#xde;" horiz-adv-x="461" 
d="M703 525q0 -5 -0.5 -9t-1.5 -9v-4q0 -17 -5 -32t-11.5 -29.5l-13 -29t-9.5 -30.5q-2 -10 -8 -17t-13 -14t-12.5 -14.5t-5.5 -17.5q-32 -42 -71.5 -76t-88.5 -55q-11 -3 -21 -9l-20 -12t-20.5 -10.5t-22.5 -4.5q-9 0 -18 3q-5 -1 -9 -1.5t-8 -0.5q-20 0 -38 12
q-8 10 -17 20t-9 23q0 4 1 7q17 60 58.5 108.5t95.5 73.5q16 16 37.5 22t43.5 4l18 -1h1q8 0 10 -5.5t4 -10.5q-5 -7 -9.5 -9t-9.5 -2l-19 2q-9 0 -18 -5q-8 3 -15 3q-12 0 -22 -6t-19 -14.5t-18.5 -16t-21.5 -10.5q-23 -20 -43.5 -42t-32.5 -51q-18 -21 -18 -45l1 -9
q1 -10 7 -18.5t17 -10.5q15 -4 31 -4q23 0 43 8.5t39.5 19.5t38.5 23t40 19q7 12 17 18.5t19 14.5q25 28 47.5 59.5t39.5 66t27 70.5t10 74q0 24 -4 44q-6 6 -10 16t-15 10q-16 8 -29 11.5t-26 3.5q-14 0 -28.5 -2.5t-34.5 -7.5l-16 -6q-25 -9 -47.5 -19t-44.5 -23.5
t-45 -32t-48 -46.5q-17 -15 -35.5 -37.5t-36 -47t-33.5 -49t-28 -44.5q-6 -14 -5 -26l3 -49q2 -23 -1 -46t-8 -44q0 -27 -3.5 -54t-17.5 -50q-8 -26 -14.5 -52.5t-14.5 -53.5q-11 -17 -20 -35.5t-20 -34.5t-26 -27.5t-38 -13.5h-2q-9 0 -12.5 6t-6 14t-4.5 16.5t-7 13.5v4
q0 112 36 208.5t102 187.5q11 7 15.5 17.5t4.5 22.5q0 13 -3 25.5t-7 22.5q-21 39 -40.5 80t-48.5 75q-2 11 -8.5 17t-13.5 11.5t-13 11.5t-7 17q-15 5 -28 14.5t-26.5 19t-28.5 16.5t-32 7q-28 10 -55 10q-19 0 -39 -5q-1 -5 -6 -10t-5 -10q0 -3 4 -6q14 -8 28 -12.5
t28 -4.5q9 0 14 1q2 -6 2 -8q0 -9 -7 -13q-9 -3 -17 -3q-17 0 -30.5 7.5t-27.5 12.5q-7 11 -16 18t-9 22v2q17 20 38 27.5t45 7.5h9q28 -9 56 -16.5t55 -20.5q34 -12 57 -37.5t46 -48.5q1 -7 5.5 -11.5t9.5 -8t9.5 -8.5t4.5 -12v-2q10 -11 16.5 -24.5t12.5 -27.5t13 -27.5
t18 -24.5q8 -14 11 -30t14 -28q33 51 70.5 103t76.5 90q28 26 54 44t53.5 31t57.5 23t67 21q5 1 10 1h10q45 0 72.5 -19.5t38.5 -39.5v-10q0 -17 2.5 -31t2.5 -29zM166 265q-16 -18 -27.5 -34.5t-21.5 -34.5t-19 -38.5t-21 -44.5q-15 -45 -30 -89t-22 -95v-37
q0 -13 1.5 -24.5t8.5 -17.5q15 1 26 12.5t20 27.5t17 34t17 34q28 70 39.5 137.5t11.5 140.5v29z" />
    <glyph glyph-name="germandbls" unicode="&#xdf;" horiz-adv-x="469" 
d="M547 349q0 -18 -6 -33.5t-10 -31.5q-12 -10 -20 -23.5t-16 -27.5t-18 -26t-26 -19q0 -13 7 -26.5t7 -27.5q0 -3 -0.5 -5.5t-1.5 -5.5q-11 -23 -21.5 -48t-31.5 -39q-32 -35 -74.5 -47.5t-87.5 -14.5q-64 12 -119 41q-4 2 -8 5q-6 3 -9 6q-3 6 -3 11q0 11 8 19q4 0 9 -4
t10 -9q5 -6 11 -13q20 -17 47.5 -24.5t56.5 -7.5q28 0 56 5q7 11 19.5 11.5t22.5 6.5q16 10 31.5 22t28 26.5t20 31.5t7.5 38v4q-3 5 -5 8t-7 4q-22 -14 -47.5 -21.5t-51.5 -7.5h-9t-9 1q-3 2 -7 4.5t-4 6.5l1 3l-1 7q0 12 6.5 20t16 14t20.5 10.5t19 9.5q7 3 15 3
q3 0 10 -1.5t14.5 -3t14.5 -2.5t11 -1q9 0 16.5 4.5t14.5 16.5q8 15 19.5 29.5t22 29.5t18 31.5t7.5 34.5v3q-7 3 -13.5 9.5t-16.5 6.5q-5 0 -7 -1q-9 -6 -20.5 -8t-23 -4.5t-22 -7.5t-17.5 -16q-35 -8 -63.5 -31t-56.5 -43q-19 -15 -35 -26q-14 -10 -25 -18.5t-13 -9.5
q-11 -18 -25.5 -31l-29 -26t-28.5 -26.5t-25 -31.5q-15 -6 -26 -17t-20.5 -24t-20 -25.5t-24.5 -20.5q-13 -17 -27 -34t-14 -38v-7l29 17q2 0 6 -1q2 -1 5 -2t5 -3q3 -3 3 -6q0 -1 -0.5 -1.5t-0.5 -1.5v-1q-20 -14 -46 -28q-6 -2 -8 -2q-9 0 -13 7.5t-6 14.5q1 27 14 50.5
t31.5 44t39 39t36.5 37.5q26 23 55.5 54t60 62.5t63 60.5t64.5 47l14 8q6 3 12 7t11 6q32 23 67.5 36.5t73.5 22.5q18 -2 34.5 -8t28.5 -22v-5v0zM401 173q-11 3 -22 3q-34 0 -51 -23q17 1 38.5 3t34.5 17z" />
    <glyph glyph-name="agrave" unicode="&#xe0;" 
d="M347 4q-1 -2 -1 -3v-1q-11 -7 -20.5 -14t-20 -13t-24 -10.5t-32.5 -7.5q-11 -3 -21 -3q-19 0 -31 8q-6 4 -7 10.5t-1 13.5v3q0 5 -0.5 9t-2.5 8q-26 -17 -52.5 -35t-60.5 -19q-11 5 -15.5 14.5t-4.5 20.5q0 5 2 15q2 3 4.5 10t5.5 14t6.5 13.5t7.5 8.5q-7 -1 -18 -6.5
t-22 -12.5t-21.5 -14.5t-16.5 -12.5l-4 -2q-2 0 -3.5 2t-5.5 2q-1 1 -1 3q0 4 6 8.5t8 9.5q18 15 35 25t31 21q21 11 40.5 26t39.5 28.5t41.5 22t46.5 6.5l12 -1q5 -4 10 -6.5t10 -7.5v-7q0 -14 -5.5 -27t-12 -25t-12.5 -22.5t-7 -19.5q-3 -10 -8 -21t-5 -22q0 -8 5 -16
q7 -3 18 -3q20 0 45 11.5t45 27.5q4 0 8 4t8 6l1 -1v-12v-6v0zM235 129q-2 0 -5.5 0.5t-6.5 0.5h-6.5t-5.5 -1q-3 -1 -15.5 -8t-29 -18.5t-33.5 -27t-29 -33.5q-7 -11 -14.5 -25.5t-7.5 -26.5q0 -7 2 -10q6 -2 10 -2q15 0 32 10t21 16q17 10 32.5 25.5t21.5 20.5
q13 17 24.5 38t14.5 41h-5zM282 220q-3 -3 -6 -6.5t-8 -3.5q-17 20 -35 32.5t-33 35.5q-2 4 -2 6q0 6 6 8q23 -10 44.5 -29t33.5 -43z" />
    <glyph glyph-name="aacute" unicode="&#xe1;" 
d="M347 4q-1 -2 -1 -3v-1q-11 -7 -20.5 -14t-20 -13t-24 -10.5t-32.5 -7.5q-11 -3 -21 -3q-19 0 -31 8q-6 4 -7 10.5t-1 13.5v3q0 5 -0.5 9t-2.5 8q-26 -17 -52.5 -35t-60.5 -19q-11 5 -15.5 14.5t-4.5 20.5q0 5 2 15q2 3 4.5 10t5.5 14t6.5 13.5t7.5 8.5q-7 -1 -18 -6.5
t-22 -12.5t-21.5 -14.5t-16.5 -12.5l-4 -2q-2 0 -3.5 2t-5.5 2q-1 1 -1 3q0 4 6 8.5t8 9.5q18 15 35 25t31 21q21 11 40.5 26t39.5 28.5t41.5 22t46.5 6.5l12 -1q5 -4 10 -6.5t10 -7.5v-7q0 -14 -5.5 -27t-12 -25t-12.5 -22.5t-7 -19.5q-3 -10 -8 -21t-5 -22q0 -8 5 -16
q7 -3 18 -3q20 0 45 11.5t45 27.5q4 0 8 4t8 6l1 -1v-12v-6v0zM235 129q-2 0 -5.5 0.5t-6.5 0.5h-6.5t-5.5 -1q-3 -1 -15.5 -8t-29 -18.5t-33.5 -27t-29 -33.5q-7 -11 -14.5 -25.5t-7.5 -26.5q0 -7 2 -10q6 -2 10 -2q15 0 32 10t21 16q17 10 32.5 25.5t21.5 20.5
q13 17 24.5 38t14.5 41h-5zM338 283q-14 -23 -32.5 -35.5t-34.5 -32.5q-5 0 -8 3.5t-6 6.5q11 24 33 43t45 29q6 -2 6 -7z" />
    <glyph glyph-name="acircumflex" unicode="&#xe2;" 
d="M330 177l-5 -5t-7 -3q-2 0 -3 1q-12 21 -26.5 35.5t-25.5 37.5q-18 -18 -37 -26.5t-37 -24.5q-5 0 -7.5 4t-4.5 8q15 22 39.5 37t49.5 20q20 -14 38 -36t26 -48zM347 4q-1 -2 -1 -3v-1q-11 -7 -20.5 -14t-20 -13t-24 -10.5t-32.5 -7.5q-11 -3 -21 -3q-19 0 -31 8
q-6 4 -7 10.5t-1 13.5v3q0 5 -0.5 9t-2.5 8q-26 -17 -52.5 -35t-60.5 -19q-11 5 -15.5 14.5t-4.5 20.5q0 5 2 15q2 3 4.5 10t5.5 14t6.5 13.5t7.5 8.5q-7 -1 -18 -6.5t-22 -12.5t-21.5 -14.5t-16.5 -12.5l-4 -2q-2 0 -3.5 2t-5.5 2q-1 1 -1 3q0 4 6 8.5t8 9.5q18 15 35 25
t31 21q21 11 40.5 26t39.5 28.5t41.5 22t46.5 6.5l12 -1q5 -4 10 -6.5t10 -7.5v-7q0 -14 -5.5 -27t-12 -25t-12.5 -22.5t-7 -19.5q-3 -10 -8 -21t-5 -22q0 -8 5 -16q7 -3 18 -3q20 0 45 11.5t45 27.5q4 0 8 4t8 6l1 -1v-12v-6zM235 129q-2 0 -5.5 0.5t-6.5 0.5h-6.5t-5.5 -1
q-3 -1 -15.5 -8t-29 -18.5t-33.5 -27t-29 -33.5q-7 -11 -14.5 -25.5t-7.5 -26.5q0 -7 2 -10q6 -2 10 -2q15 0 32 10t21 16q17 10 32.5 25.5t21.5 20.5q13 17 24.5 38t14.5 41h-5z" />
    <glyph glyph-name="atilde" unicode="&#xe3;" horiz-adv-x="345" 
d="M389 248q0 -1 -2 -5l-6 1q-14 0 -25 -8t-23 -8q-6 0 -9 1l-7 -4q-4 -1 -11 -1t-16 2.5t-19 6.5l-28 10t-22 5q-17 0 -32 -11q-7 3 -16 3t-11 8q19 10 33 13.5t25 3.5q12 0 21.5 -3t18.5 -6.5t19 -6.5t22 -3h5q13 2 25.5 4.5t23.5 10.5q6 3 12 3l11 -1q2 -4 6.5 -7t4.5 -8
zM347 4q-1 -2 -1 -3v-1q-11 -7 -20.5 -14t-20 -13t-24 -10.5t-32.5 -7.5q-11 -3 -21 -3q-19 0 -31 8q-6 4 -7 10.5t-1 13.5v3q0 5 -0.5 9t-2.5 8q-26 -17 -52.5 -35t-60.5 -19q-11 5 -15.5 14.5t-4.5 20.5q0 5 2 15q2 3 4.5 10t5.5 14t6.5 13.5t7.5 8.5q-7 -1 -18 -6.5
t-22 -12.5t-21.5 -14.5t-16.5 -12.5l-4 -2q-2 0 -3.5 2t-5.5 2q-1 1 -1 3q0 4 6 8.5t8 9.5q18 15 35 25t31 21q21 11 40.5 26t39.5 28.5t41.5 22t46.5 6.5l12 -1q5 -4 10 -6.5t10 -7.5v-7q0 -14 -5.5 -27t-12 -25t-12.5 -22.5t-7 -19.5q-3 -10 -8 -21t-5 -22q0 -8 5 -16
q7 -3 18 -3q20 0 45 11.5t45 27.5q4 0 8 4t8 6l1 -1v-12v-6zM235 129q-2 0 -5.5 0.5t-6.5 0.5h-6.5t-5.5 -1q-3 -1 -15.5 -8t-29 -18.5t-33.5 -27t-29 -33.5q-7 -11 -14.5 -25.5t-7.5 -26.5q0 -7 2 -10q6 -2 10 -2q15 0 32 10t21 16q17 10 32.5 25.5t21.5 20.5
q13 17 24.5 38t14.5 41h-5z" />
    <glyph glyph-name="adieresis" unicode="&#xe4;" 
d="M347 4q-1 -2 -1 -3v-1q-11 -7 -20.5 -14t-20 -13t-24 -10.5t-32.5 -7.5q-11 -3 -21 -3q-19 0 -31 8q-6 4 -7 10.5t-1 13.5v3q0 5 -0.5 9t-2.5 8q-26 -17 -52.5 -35t-60.5 -19q-11 5 -15.5 14.5t-4.5 20.5q0 5 2 15q2 3 4.5 10t5.5 14t6.5 13.5t7.5 8.5q-7 -1 -18 -6.5
t-22 -12.5t-21.5 -14.5t-16.5 -12.5l-4 -2q-2 0 -3.5 2t-5.5 2q-1 1 -1 3q0 4 6 8.5t8 9.5q18 15 35 25t31 21q21 11 40.5 26t39.5 28.5t41.5 22t46.5 6.5l12 -1q5 -4 10 -6.5t10 -7.5v-7q0 -14 -5.5 -27t-12 -25t-12.5 -22.5t-7 -19.5q-3 -10 -8 -21t-5 -22q0 -8 5 -16
q7 -3 18 -3q20 0 45 11.5t45 27.5q4 0 8 4t8 6l1 -1v-12v-6v0zM235 129q-2 0 -5.5 0.5t-6.5 0.5h-6.5t-5.5 -1q-3 -1 -15.5 -8t-29 -18.5t-33.5 -27t-29 -33.5q-7 -11 -14.5 -25.5t-7.5 -26.5q0 -7 2 -10q6 -2 10 -2q15 0 32 10t21 16q17 10 32.5 25.5t21.5 20.5
q13 17 24.5 38t14.5 41h-5z" />
    <glyph glyph-name="aring" unicode="&#xe5;" 
d="M347 4q-1 -2 -1 -3v-1q-11 -7 -20.5 -14t-20 -13t-24 -10.5t-32.5 -7.5q-11 -3 -21 -3q-19 0 -31 8q-6 4 -7 10.5t-1 13.5v3q0 5 -0.5 9t-2.5 8q-26 -17 -52.5 -35t-60.5 -19q-11 5 -15.5 14.5t-4.5 20.5q0 5 2 15q2 3 4.5 10t5.5 14t6.5 13.5t7.5 8.5q-7 -1 -18 -6.5
t-22 -12.5t-21.5 -14.5t-16.5 -12.5l-4 -2q-2 0 -3.5 2t-5.5 2q-1 1 -1 3q0 4 6 8.5t8 9.5q18 15 35 25t31 21q21 11 40.5 26t39.5 28.5t41.5 22t46.5 6.5l12 -1q5 -4 10 -6.5t10 -7.5v-7q0 -14 -5.5 -27t-12 -25t-12.5 -22.5t-7 -19.5q-3 -10 -8 -21t-5 -22q0 -8 5 -16
q7 -3 18 -3q20 0 45 11.5t45 27.5q4 0 8 4t8 6l1 -1v-12v-6v0zM235 129q-2 0 -5.5 0.5t-6.5 0.5h-6.5t-5.5 -1q-3 -1 -15.5 -8t-29 -18.5t-33.5 -27t-29 -33.5q-7 -11 -14.5 -25.5t-7.5 -26.5q0 -7 2 -10q6 -2 10 -2q15 0 32 10t21 16q17 10 32.5 25.5t21.5 20.5
q13 17 24.5 38t14.5 41h-5z" />
    <glyph glyph-name="ae" unicode="&#xe6;" horiz-adv-x="384" 
d="M405 21q-13 -17 -36 -30t-40 -29q-17 -5 -36 -16t-39 -11q-8 0 -15.5 2.5t-15.5 9.5q-15 13 -20 30.5t-8 35.5l-4 -4q-20 -20 -48.5 -38.5t-69.5 -18.5q-11 5 -15.5 14.5t-4.5 20.5q0 5 2 15q2 3 4.5 10t5.5 14t6.5 13.5t7.5 8.5q-7 -1 -18 -6.5t-22 -12.5t-21.5 -14.5
t-16.5 -12.5l-4 -2q-2 0 -3.5 2t-5.5 2q-1 1 -1 3q0 4 6 8.5t8 9.5q18 15 35 25t31 21q21 11 40.5 26t39.5 28.5t41.5 22t46.5 6.5l12 -1q5 -4 11 -7t10 -8q28 25 62 25h7l15 -14q-1 -23 -12.5 -44t-28.5 -38t-38 -30t-41 -21h-2q-4 0 -6.5 -2.5l-5.5 -5.5q1 -14 6 -27
t19 -19q10 -2 15 -2q17 0 34.5 7t34.5 17.5t33.5 22.5t30.5 22l4 1q8 0 10 -9zM327 135q0 3 -2 7q-20 -4 -35 -19t-30 -24q-4 -14 -14.5 -26.5t-10.5 -24.5v-2q23 7 41.5 21.5t37.5 33.5q3 8 8 17t5 17zM235 131q-2 0 -5.5 0.5t-6.5 0.5h-6.5t-5.5 -1q-3 -1 -15.5 -7.5
t-29 -18t-33.5 -27.5t-29 -34q-7 -11 -14.5 -25.5t-7.5 -26.5q0 -7 2 -10q6 -2 10 -2q15 0 32 10t21 16q17 10 32.5 25.5t21.5 20.5q13 17 24.5 38t14.5 41h-5z" />
    <glyph glyph-name="ccedilla" unicode="&#xe7;" horiz-adv-x="348" 
d="M351 5q-25 -20 -50.5 -41t-54 -38.5t-60.5 -30t-71 -15.5l-20 -37q-6 -6 -9.5 -13t-5.5 -14.5t-5.5 -15t-9.5 -13.5q-6 0 -11.5 4.5t-7.5 10.5q10 13 17 22.5t12 17.5t9 16.5t9 19.5l2 4q-26 7 -50 24t-29 45q-13 25 -13 52t11 52.5t26 48.5q24 35 61.5 56t76.5 35
q5 1 15 1q18 0 33 -7.5t26 -19.5q0 -5 2 -12.5t2 -15.5q0 -7 -2 -11q-9 -15 -22.5 -30.5t-29.5 -23.5l-10 -2t-10 -1q-15 0 -20 11v7q0 24 18 38h6q2 -2 2 -6l-3 -15q0 -5 5 -9q14 4 25 17.5t20 24.5q1 2 1 6q0 15 -16 26q-5 1 -9 1h-9q-25 0 -47.5 -9t-42 -23t-36.5 -32
t-31 -36q-8 -17 -15.5 -36t-7.5 -39q0 -18 7 -33q6 -11 13 -23t16.5 -21.5t21 -15.5t25.5 -6l2 1q31 2 59 11.5t54 23.5t50.5 31.5t48.5 35.5q2 1 6.5 5t9.5 8t10 7t8 3z" />
    <glyph glyph-name="egrave" unicode="&#xe8;" horiz-adv-x="195" 
d="M216 19q-13 -17 -36 -30.5t-40 -28.5q-18 -5 -37 -15.5t-39 -10.5q-8 0 -15.5 2t-15.5 8q-18 17 -21.5 38.5t-9.5 42.5q13 18 24 39t23 41q20 23 41.5 39.5t50.5 16.5h7l15 -14q-1 -23 -12.5 -44t-28.5 -38t-38 -30t-41 -21h-1q-4 0 -7 -3l-6 -6q1 -14 6 -26.5t19 -19.5
q4 -1 13 -1q17 0 35 7t35.5 17.5t34 22.5t30.5 22l4 1q6 0 10 -9zM138 133q0 3 -2 7q-20 -4 -35 -19t-30 -25q-4 -14 -14.5 -26t-10.5 -24v-2q23 6 41.5 21t37.5 34q3 8 8 17t5 17zM191 233q-3 -3 -6 -6.5t-8 -3.5q-17 20 -35 32.5t-33 35.5q-2 4 -2 6q0 6 6 8
q23 -10 44.5 -29t33.5 -43z" />
    <glyph glyph-name="eacute" unicode="&#xe9;" horiz-adv-x="199" 
d="M247 284q-14 -23 -32.5 -35.5t-34.5 -32.5q-5 0 -8 3.5t-6 6.5q11 24 33 43t45 29q6 -2 6 -7zM216 19q-13 -17 -36 -30.5t-40 -28.5q-18 -5 -37 -15.5t-39 -10.5q-8 0 -15.5 2t-15.5 8q-18 17 -21.5 38.5t-9.5 42.5q13 18 24 39t23 41q20 23 41.5 39.5t50.5 16.5h7
l15 -14q-1 -23 -12.5 -44t-28.5 -38t-38 -30t-41 -21h-1q-4 0 -7 -3l-6 -6q1 -14 6 -26.5t19 -19.5q4 -1 13 -1q17 0 35 7t35.5 17.5t34 22.5t30.5 22l4 1q6 0 10 -9zM138 133q0 3 -2 7q-20 -4 -35 -19t-30 -25q-4 -14 -14.5 -26t-10.5 -24v-2q23 6 41.5 21t37.5 34
q3 8 8 17t5 17z" />
    <glyph glyph-name="ecircumflex" unicode="&#xea;" horiz-adv-x="201" 
d="M233 194l-5 -5t-7 -3q-2 0 -3 1q-12 21 -26.5 35.5t-25.5 37.5q-18 -18 -37 -26.5t-37 -24.5q-5 0 -7.5 4t-4.5 8q15 22 39.5 37t49.5 20q20 -14 38 -36t26 -48zM216 19q-13 -17 -36 -30.5t-40 -28.5q-18 -5 -37 -15.5t-39 -10.5q-8 0 -15.5 2t-15.5 8q-18 17 -21.5 38.5
t-9.5 42.5q13 18 24 39t23 41q20 23 41.5 39.5t50.5 16.5h7l15 -14q-1 -23 -12.5 -44t-28.5 -38t-38 -30t-41 -21h-1q-4 0 -7 -3l-6 -6q1 -14 6 -26.5t19 -19.5q4 -1 13 -1q17 0 35 7t35.5 17.5t34 22.5t30.5 22l4 1q6 0 10 -9zM138 133q0 3 -2 7q-20 -4 -35 -19t-30 -25
q-4 -14 -14.5 -26t-10.5 -24v-2q23 6 41.5 21t37.5 34q3 8 8 17t5 17z" />
    <glyph glyph-name="edieresis" unicode="&#xeb;" horiz-adv-x="199" 
d="M216 19q-13 -17 -36 -30.5t-40 -28.5q-18 -5 -37 -15.5t-39 -10.5q-8 0 -15.5 2t-15.5 8q-18 17 -21.5 38.5t-9.5 42.5q13 18 24 39t23 41q20 23 41.5 39.5t50.5 16.5h7l15 -14q-1 -23 -12.5 -44t-28.5 -38t-38 -30t-41 -21h-1q-4 0 -7 -3l-6 -6q1 -14 6 -26.5t19 -19.5
q4 -1 13 -1q17 0 35 7t35.5 17.5t34 22.5t30.5 22l4 1q6 0 10 -9zM138 133q0 3 -2 7q-20 -4 -35 -19t-30 -25q-4 -14 -14.5 -26t-10.5 -24v-2q23 6 41.5 21t37.5 34q3 8 8 17t5 17z" />
    <glyph glyph-name="igrave" unicode="&#xec;" horiz-adv-x="140" 
d="M156 227q-3 -3 -6 -6.5t-8 -3.5q-17 20 -35 32.5t-33 35.5q-2 4 -2 6q0 6 6 8q23 -10 44.5 -29t33.5 -43zM163 24q0 -6 -8.5 -11t-15.5 -10q-12 -12 -25 -18t-29 -11l-7 -2q-16 -1 -29.5 -9t-29.5 -8q-7 0 -14 3q-10 16 -10 32q0 13 5 26t12.5 25.5t15.5 25t14 24.5
q13 15 20 31.5t19 31.5h2q10 0 10 -11q0 -5 -2 -7q-8 -18 -19 -34.5t-21.5 -33t-19.5 -34t-13 -37.5q-2 -2 -2 -8v-6q6 -3 13 -3q11 0 22.5 6t22.5 9h1q6 0 14.5 3t17 7.5t16 9l12.5 7.5q10 8 11.5 7.5t4.5 4.5h3q3 0 3.5 -1t2.5 -2q3 -3 3 -7z" />
    <glyph glyph-name="iacute" unicode="&#xed;" horiz-adv-x="141" 
d="M197 294q-14 -23 -32.5 -35.5t-34.5 -32.5q-5 0 -8 3.5t-6 6.5q11 24 33 43t45 29q6 -2 6 -7zM163 24q0 -6 -8.5 -11t-15.5 -10q-12 -12 -25 -18t-29 -11l-7 -2q-16 -1 -29.5 -9t-29.5 -8q-7 0 -14 3q-10 16 -10 32q0 13 5 26t12.5 25.5t15.5 25t14 24.5q13 15 20 31.5
t19 31.5h2q10 0 10 -11q0 -5 -2 -7q-8 -18 -19 -34.5t-21.5 -33t-19.5 -34t-13 -37.5q-2 -2 -2 -8v-6q6 -3 13 -3q11 0 22.5 6t22.5 9h1q6 0 14.5 3t17 7.5t16 9l12.5 7.5q10 8 11.5 7.5t4.5 4.5h3q3 0 3.5 -1t2.5 -2q3 -3 3 -7z" />
    <glyph glyph-name="icircumflex" unicode="&#xee;" horiz-adv-x="140" 
d="M163 24q0 -6 -8.5 -11t-15.5 -10q-12 -12 -25 -18t-29 -11l-7 -2q-16 -1 -29.5 -9t-29.5 -8q-7 0 -14 3q-10 16 -10 32q0 13 5 26t12.5 25.5t15.5 25t14 24.5q13 15 20 31.5t19 31.5h2q10 0 10 -11q0 -5 -2 -7q-8 -18 -19 -34.5t-21.5 -33t-19.5 -34t-13 -37.5
q-2 -2 -2 -8v-6q6 -3 13 -3q11 0 22.5 6t22.5 9h1q6 0 14.5 3t17 7.5t16 9l12.5 7.5q10 8 11.5 7.5t4.5 4.5h3q3 0 3.5 -1t2.5 -2q3 -3 3 -7z" />
    <glyph glyph-name="idieresis" unicode="&#xef;" horiz-adv-x="139" 
d="M163 24q0 -6 -8.5 -11t-15.5 -10q-12 -12 -25 -18t-29 -11l-7 -2q-16 -1 -29.5 -9t-29.5 -8q-7 0 -14 3q-10 16 -10 32q0 13 5 26t12.5 25.5t15.5 25t14 24.5q13 15 20 31.5t19 31.5h2q10 0 10 -11q0 -5 -2 -7q-8 -18 -19 -34.5t-21.5 -33t-19.5 -34t-13 -37.5
q-2 -2 -2 -8v-6q6 -3 13 -3q11 0 22.5 6t22.5 9h1q6 0 14.5 3t17 7.5t16 9l12.5 7.5q10 8 11.5 7.5t4.5 4.5h3q3 0 3.5 -1t2.5 -2q3 -3 3 -7z" />
    <glyph glyph-name="eth" unicode="&#xf0;" horiz-adv-x="319" 
d="M327 6q-15 -13 -32.5 -25.5t-35.5 -22.5t-36 -16.5t-36 -6.5q-11 0 -21 3q-18 11 -22.5 25.5t-4.5 34.5v2q0 5 2 11t2 11t-5 9q-12 -13 -24 -22t-23.5 -16.5t-23.5 -14t-25 -14.5q-8 -3 -17 -3q-10 0 -18.5 4t-11.5 15v2q0 31 13 57.5t33.5 49t46 39.5t51.5 29
q11 6 24.5 6t21.5 12q4 21 7 42.5t3 43.5q0 18 -2.5 35t-9.5 34q0 12 -5 26.5t-11 28.5q-23 -8 -48.5 -10.5t-48.5 -2.5q0 3 1 4.5t1 3.5q0 11 5 14q3 2 6 3q23 0 36.5 2t21.5 5t11 7l-31 55q-15 16 -30.5 34t-35.5 29q-17 6 -32.5 14.5l-31 17t-32 15t-34.5 8.5
q-13 8 -27.5 11t-29.5 4t-30.5 1.5t-30.5 3.5q-9 -5 -19 -7t-20 -4.5t-18.5 -8.5t-13.5 -18q-2 0 -10 -5.5t-13 -5.5q-3 0 -3 3q0 11 8 20t10 21q23 15 49.5 20t55.5 5q17 0 33.5 -1t33.5 -2l33 -16q45 -22 91.5 -42t84.5 -56q21 -20 35 -45.5t32 -48.5q20 7 40 15t39 19h6
q2 0 5 -5q2 -4 2 -5q0 -2 -2 -6q-33 -20 -71 -36q-8 -5 -9 -8q4 -11 7 -21.5t3 -14.5q12 -47 12 -95q0 -43 -7.5 -85.5t-20.5 -82.5v-2q0 -7 5.5 -11.5t5.5 -9.5q0 -2 -5 -7h-2q-5 0 -9 -1t-5 -7q-1 -14 -4 -29.5t-3 -31.5q0 -6 0.5 -12.5t2.5 -12.5q13 -10 27 -10
q16 0 31.5 9t29.5 16q17 9 33 20.5t35 24.5q5 -5 5 -15v-3v0zM169 144q-38 -14 -71.5 -34t-57.5 -59q-1 -14 -11.5 -25.5t-10.5 -24.5q0 -7 4 -14q26 6 47.5 23t44.5 29q18 23 36.5 47t18.5 54v4z" />
    <glyph glyph-name="ntilde" unicode="&#xf1;" horiz-adv-x="443" 
d="M538 299q0 -1 -2 -5l-6 1q-14 0 -25 -8t-23 -8q-6 0 -9 1l-7 -4q-4 -1 -11 -1t-16 2.5t-19 6.5l-28 10t-22 5q-17 0 -32 -11q-7 3 -16 3t-11 8q19 10 33 13.5t25 3.5q12 0 21.5 -3t18.5 -6.5t19 -6.5t22 -3h5q13 2 25.5 4.5t23.5 10.5q6 3 12 3l11 -1q2 -4 6.5 -7t4.5 -8
zM455 16q-5 -13 -15 -21.5t-21.5 -15t-23 -11.5t-18.5 -12q-14 -4 -27 -12.5t-27 -8.5q-4 0 -10 2q-7 18 -7 41q0 30 11 60t21 57l-4 5q-13 -13 -31.5 -21.5t-27.5 -25.5q-23 -14 -44.5 -29.5t-42.5 -32.5q-3 -1 -7 -1q-6 0 -8.5 4.5t-2.5 9.5q0 4 1 7.5t2 6.5q6 16 15 31
t18.5 30.5t17.5 31t13 33.5h-1q-14 0 -27.5 -6t-26.5 -14.5t-24 -16.5t-20 -12q-7 -11 -23 -17t-26 -17q-25 -13 -44 -28.5t-45 -33.5q-1 2 -6 6t-5 7v2l17 12q57 40 112 77t112 65h6q10 0 18.5 -3t10.5 -13q-8 -29 -22.5 -54t-28.5 -51l-10 -18q11 13 27 25t33 24t33.5 23
t28.5 23q3 1 9 1q16 0 29 -11q4 -7 4 -14q0 -14 -11.5 -26.5t-14.5 -29.5q0 -17 -8 -33.5t-8 -34.5v-7.5t2 -8.5q16 1 31 7.5t29 15.5t28.5 19.5t29.5 20.5q5 0 5 -1t4 -6z" />
    <glyph glyph-name="ograve" unicode="&#xf2;" horiz-adv-x="245" 
d="M162 235q-3 -3 -6 -6.5t-8 -3.5q-17 20 -35 32.5t-33 35.5q-2 4 -2 6q0 6 6 8q23 -10 44.5 -29t33.5 -43zM262 10q-20 -14 -38.5 -21.5t-38.5 -7.5q-28 0 -62 15q-15 -32 -42 -55.5t-52 -46.5q-8 -2 -15 -5.5t-15 -3.5q-6 0 -13 5q-11 18 -11 41q0 25 9.5 50.5t17.5 47.5
l27 48q-3 12 -7 25t-4 27q0 23 16 38q16 9 36 9q14 -7 28 -15t25 -19t18 -25.5t7 -32.5l1 -11q0 -13 -3 -27.5t-11 -28.5q28 -15 53 -15q23 0 40.5 9.5t31.5 20.5q4 -2 5 -3t4 -5zM127 69q0 14 -3 26t-7 24q-12 9 -24 21t-28 12q-8 0 -12 -2q-2 -7 -7.5 -12.5t-5.5 -13.5
q0 -5 2 -8q1 -16 16 -16q5 0 11 2t11 4q5 -7 5 -9q0 -4 -3.5 -6.5t-7.5 -4.5t-8 -4.5t-5 -5.5q5 -17 20.5 -27t31.5 -17q14 15 14 37zM95 9q-15 6 -29.5 18t-22.5 22q-16 -23 -29.5 -51t-13.5 -58q0 -14 3 -27q9 0 16 5t15 11q8 9 17.5 18t18.5 18.5t15.5 20.5t9.5 23z" />
    <glyph glyph-name="oacute" unicode="&#xf3;" horiz-adv-x="245" 
d="M205 308q-14 -23 -32.5 -35.5t-34.5 -32.5q-5 0 -8 3.5t-6 6.5q11 24 33 43t45 29q6 -2 6 -7zM262 10q-20 -14 -38.5 -21.5t-38.5 -7.5q-28 0 -62 15q-15 -32 -42 -55.5t-52 -46.5q-8 -2 -15 -5.5t-15 -3.5q-6 0 -13 5q-11 18 -11 41q0 25 9.5 50.5t17.5 47.5l27 48
q-3 12 -7 25t-4 27q0 23 16 38q16 9 36 9q14 -7 28 -15t25 -19t18 -25.5t7 -32.5l1 -11q0 -13 -3 -27.5t-11 -28.5q28 -15 53 -15q23 0 40.5 9.5t31.5 20.5q4 -2 5 -3t4 -5zM127 69q0 14 -3 26t-7 24q-12 9 -24 21t-28 12q-8 0 -12 -2q-2 -7 -7.5 -12.5t-5.5 -13.5
q0 -5 2 -8q1 -16 16 -16q5 0 11 2t11 4q5 -7 5 -9q0 -4 -3.5 -6.5t-7.5 -4.5t-8 -4.5t-5 -5.5q5 -17 20.5 -27t31.5 -17q14 15 14 37zM95 9q-15 6 -29.5 18t-22.5 22q-16 -23 -29.5 -51t-13.5 -58q0 -14 3 -27q9 0 16 5t15 11q8 9 17.5 18t18.5 18.5t15.5 20.5t9.5 23z" />
    <glyph glyph-name="ocircumflex" unicode="&#xf4;" horiz-adv-x="245" 
d="M199 205l-5 -5t-7 -3q-2 0 -3 1q-12 21 -26.5 35.5t-25.5 37.5q-18 -18 -37 -26.5t-37 -24.5q-5 0 -7.5 4t-4.5 8q15 22 39.5 37t49.5 20q20 -14 38 -36t26 -48zM262 10q-20 -14 -38.5 -21.5t-38.5 -7.5q-28 0 -62 15q-15 -32 -42 -55.5t-52 -46.5q-8 -2 -15 -5.5
t-15 -3.5q-6 0 -13 5q-11 18 -11 41q0 25 9.5 50.5t17.5 47.5l27 48q-3 12 -7 25t-4 27q0 23 16 38q16 9 36 9q14 -7 28 -15t25 -19t18 -25.5t7 -32.5l1 -11q0 -13 -3 -27.5t-11 -28.5q28 -15 53 -15q23 0 40.5 9.5t31.5 20.5q4 -2 5 -3t4 -5zM127 69q0 14 -3 26t-7 24
q-12 9 -24 21t-28 12q-8 0 -12 -2q-2 -7 -7.5 -12.5t-5.5 -13.5q0 -5 2 -8q1 -16 16 -16q5 0 11 2t11 4q5 -7 5 -9q0 -4 -3.5 -6.5t-7.5 -4.5t-8 -4.5t-5 -5.5q5 -17 20.5 -27t31.5 -17q14 15 14 37zM95 9q-15 6 -29.5 18t-22.5 22q-16 -23 -29.5 -51t-13.5 -58q0 -14 3 -27
q9 0 16 5t15 11q8 9 17.5 18t18.5 18.5t15.5 20.5t9.5 23z" />
    <glyph glyph-name="otilde" unicode="&#xf5;" horiz-adv-x="246" 
d="M265 250q0 -1 -2 -5l-6 1q-14 0 -25 -8t-23 -8q-6 0 -9 1l-7 -4q-4 -1 -11 -1t-16 2.5t-19 6.5l-28 10t-22 5q-17 0 -32 -11q-7 3 -16 3t-11 8q19 10 33 13.5t25 3.5q12 0 21.5 -3t18.5 -6.5t19 -6.5t22 -3h5q13 2 25.5 4.5t23.5 10.5q6 3 12 3l11 -1q2 -4 6.5 -7t4.5 -8
zM262 10q-20 -14 -38.5 -21.5t-38.5 -7.5q-28 0 -62 15q-15 -32 -42 -55.5t-52 -46.5q-8 -2 -15 -5.5t-15 -3.5q-6 0 -13 5q-11 18 -11 41q0 25 9.5 50.5t17.5 47.5l27 48q-3 12 -7 25t-4 27q0 23 16 38q16 9 36 9q14 -7 28 -15t25 -19t18 -25.5t7 -32.5l1 -11
q0 -13 -3 -27.5t-11 -28.5q28 -15 53 -15q23 0 40.5 9.5t31.5 20.5q4 -2 5 -3t4 -5zM127 69q0 14 -3 26t-7 24q-12 9 -24 21t-28 12q-8 0 -12 -2q-2 -7 -7.5 -12.5t-5.5 -13.5q0 -5 2 -8q1 -16 16 -16q5 0 11 2t11 4q5 -7 5 -9q0 -4 -3.5 -6.5t-7.5 -4.5t-8 -4.5t-5 -5.5
q5 -17 20.5 -27t31.5 -17q14 15 14 37zM95 9q-15 6 -29.5 18t-22.5 22q-16 -23 -29.5 -51t-13.5 -58q0 -14 3 -27q9 0 16 5t15 11q8 9 17.5 18t18.5 18.5t15.5 20.5t9.5 23z" />
    <glyph glyph-name="odieresis" unicode="&#xf6;" horiz-adv-x="245" 
d="M262 10q-20 -14 -38.5 -21.5t-38.5 -7.5q-28 0 -62 15q-15 -32 -42 -55.5t-52 -46.5q-8 -2 -15 -5.5t-15 -3.5q-6 0 -13 5q-11 18 -11 41q0 25 9.5 50.5t17.5 47.5l27 48q-3 12 -7 25t-4 27q0 23 16 38q16 9 36 9q14 -7 28 -15t25 -19t18 -25.5t7 -32.5l1 -11
q0 -13 -3 -27.5t-11 -28.5q28 -15 53 -15q23 0 40.5 9.5t31.5 20.5q4 -2 5 -3t4 -5zM127 69q0 14 -3 26t-7 24q-12 9 -24 21t-28 12q-8 0 -12 -2q-2 -7 -7.5 -12.5t-5.5 -13.5q0 -5 2 -8q1 -16 16 -16q5 0 11 2t11 4q5 -7 5 -9q0 -4 -3.5 -6.5t-7.5 -4.5t-8 -4.5t-5 -5.5
q5 -17 20.5 -27t31.5 -17q14 15 14 37zM95 9q-15 6 -29.5 18t-22.5 22q-16 -23 -29.5 -51t-13.5 -58q0 -14 3 -27q9 0 16 5t15 11q8 9 17.5 18t18.5 18.5t15.5 20.5t9.5 23z" />
    <glyph glyph-name="divide" unicode="&#xf7;" horiz-adv-x="301" 
d="M153 216q0 -13 -12 -27q-7 1 -13 2.5t-8 8.5q2 7 8.5 15t15.5 8q4 0 9 -3v-4v0zM296 226q-5 -10 -16 -16.5t-19 -13.5q-24 -24 -50 -47t-52 -46.5t-50 -48t-43 -50.5q-6 0 -11.5 -4t-10.5 -8.5t-10 -8.5t-10 -4q-7 0 -12 8v8q28 21 55.5 45t50.5 51q39 32 77.5 69
t83.5 73h11q6 0 6 -7zM242 31q0 -5 -5.5 -7.5t-7.5 -5.5h-23q-1 2 -1 6q0 8 5 13.5t13 6.5q6 0 12 -1t6 -8q1 -2 1 -4z" />
    <glyph glyph-name="oslash" unicode="&#xf8;" horiz-adv-x="242" 
d="M364 260q-11 -17 -21.5 -28.5t-20 -21t-18.5 -19.5t-18 -25q9 -8 16.5 -18t15.5 -16q-4 -19 -7.5 -38t-9 -37.5t-13.5 -35t-22 -30.5q-6 0 -10 -3.5t-7.5 -7.5t-8 -7t-10.5 -3q-5 -12 -13.5 -17.5t-18.5 -8.5l-20 -6t-18 -10q-4 -1 -12 -1q-11 0 -20.5 2.5t-19.5 4.5
q-4 -5 -7.5 -11t-8.5 -12l3 -9q-18 -3 -24.5 -20t-11.5 -32q-5 -5 -11.5 -6t-11.5 -5q-5 4 -5 8l2 12q0 5 -5 8q6 7 11 14.5t15 9.5q10 14 18.5 26.5t16.5 24.5q-13 16 -18.5 35.5t-5.5 39.5q0 13 3 27l1 2v6q8 9 14 20t12 21.5t13.5 20t19.5 15.5q18 23 44 37t55 14
q14 0 29 -4q11 0 15 -2q12 18 21.5 29.5t19 21.5t20 21.5t23.5 28.5q2 -2 5.5 -2.5t3.5 -3.5v-9v0zM290 96q0 23 -8 45l-3.5 3.5l-3.5 3.5q-28 -26 -48.5 -49t-38 -46.5t-32.5 -47t-33 -50.5q5 -1 9 -1.5t9 -0.5q19 0 36.5 7t33 18t29.5 25l28 28l3 4q10 13 14.5 28.5
t4.5 32.5zM255 157q-5 1 -10.5 2t-14.5 1h-8.5t-9.5 -1q-21 -2 -38.5 -13.5t-32 -28t-26.5 -34.5l-22 -33l-2 -18t-1 -18q0 -14 3.5 -26t11.5 -22q17 25 33 48t33 45.5t37.5 46.5t46.5 51z" />
    <glyph glyph-name="ugrave" unicode="&#xf9;" horiz-adv-x="336" 
d="M347 20q0 -11 -10 -21q-10 -5 -20 -13t-18 -15q-25 -4 -46.5 -16t-47.5 -15q-9 -6 -21 -9t-24 -3q-15 0 -27 5q-2 -1 -6 -1q-7 0 -10 6t-5 11q-1 5 -1 8.5v7.5q0 21 5.5 39t10.5 36l-5 1q-10 0 -20 -7t-21 -12q-17 -7 -34 -21t-36 -14q-4 0 -7 1l-12 16q6 16 15.5 34.5
t19 38t19 38.5t16.5 35h14q0 -14 -7.5 -31.5t-17 -35.5t-18.5 -35.5t-12 -31.5l4 -1q6 0 14 5t16.5 11t16.5 11.5t14 7.5q14 10 29 20.5t29.5 22t28 24.5t23.5 29q4 5 10 5q11 0 11 -13q0 -6 -3 -10q-22 -27 -39.5 -54.5t-30.5 -59.5v-4q0 -11 -6 -21.5t-6 -19.5
q0 -10 15 -17q45 1 96.5 21t92.5 49q4 3 7 3q4 0 4 -5zM210 231q-3 -3 -6 -6.5t-8 -3.5q-17 20 -35 32.5t-33 35.5q-2 4 -2 6q0 6 6 8q23 -10 44.5 -29t33.5 -43z" />
    <glyph glyph-name="uacute" unicode="&#xfa;" horiz-adv-x="336" 
d="M347 20q0 -11 -10 -21q-10 -5 -20 -13t-18 -15q-25 -4 -46.5 -16t-47.5 -15q-9 -6 -21 -9t-24 -3q-15 0 -27 5q-2 -1 -6 -1q-7 0 -10 6t-5 11q-1 5 -1 8.5v7.5q0 21 5.5 39t10.5 36l-5 1q-10 0 -20 -7t-21 -12q-17 -7 -34 -21t-36 -14q-4 0 -7 1l-12 16q6 16 15.5 34.5
t19 38t19 38.5t16.5 35h14q0 -14 -7.5 -31.5t-17 -35.5t-18.5 -35.5t-12 -31.5l4 -1q6 0 14 5t16.5 11t16.5 11.5t14 7.5q14 10 29 20.5t29.5 22t28 24.5t23.5 29q4 5 10 5q11 0 11 -13q0 -6 -3 -10q-22 -27 -39.5 -54.5t-30.5 -59.5v-4q0 -11 -6 -21.5t-6 -19.5
q0 -10 15 -17q45 1 96.5 21t92.5 49q4 3 7 3q4 0 4 -5zM244 289q-14 -23 -32.5 -35.5t-34.5 -32.5q-5 0 -8 3.5t-6 6.5q11 24 33 43t45 29q6 -2 6 -7z" />
    <glyph glyph-name="ucircumflex" unicode="&#xfb;" horiz-adv-x="336" 
d="M347 20q0 -11 -10 -21q-10 -5 -20 -13t-18 -15q-25 -4 -46.5 -16t-47.5 -15q-9 -6 -21 -9t-24 -3q-15 0 -27 5q-2 -1 -6 -1q-7 0 -10 6t-5 11q-1 5 -1 8.5v7.5q0 21 5.5 39t10.5 36l-5 1q-10 0 -20 -7t-21 -12q-17 -7 -34 -21t-36 -14q-4 0 -7 1l-12 16q6 16 15.5 34.5
t19 38t19 38.5t16.5 35h14q0 -14 -7.5 -31.5t-17 -35.5t-18.5 -35.5t-12 -31.5l4 -1q6 0 14 5t16.5 11t16.5 11.5t14 7.5q14 10 29 20.5t29.5 22t28 24.5t23.5 29q4 5 10 5q11 0 11 -13q0 -6 -3 -10q-22 -27 -39.5 -54.5t-30.5 -59.5v-4q0 -11 -6 -21.5t-6 -19.5
q0 -10 15 -17q45 1 96.5 21t92.5 49q4 3 7 3q4 0 4 -5z" />
    <glyph glyph-name="udieresis" unicode="&#xfc;" horiz-adv-x="336" 
d="M347 20q0 -11 -10 -21q-10 -5 -20 -13t-18 -15q-25 -4 -46.5 -16t-47.5 -15q-9 -6 -21 -9t-24 -3q-15 0 -27 5q-2 -1 -6 -1q-7 0 -10 6t-5 11q-1 5 -1 8.5v7.5q0 21 5.5 39t10.5 36l-5 1q-10 0 -20 -7t-21 -12q-17 -7 -34 -21t-36 -14q-4 0 -7 1l-12 16q6 16 15.5 34.5
t19 38t19 38.5t16.5 35h14q0 -14 -7.5 -31.5t-17 -35.5t-18.5 -35.5t-12 -31.5l4 -1q6 0 14 5t16.5 11t16.5 11.5t14 7.5q14 10 29 20.5t29.5 22t28 24.5t23.5 29q4 5 10 5q11 0 11 -13q0 -6 -3 -10q-22 -27 -39.5 -54.5t-30.5 -59.5v-4q0 -11 -6 -21.5t-6 -19.5
q0 -10 15 -17q45 1 96.5 21t92.5 49q4 3 7 3q4 0 4 -5z" />
    <glyph glyph-name="yacute" unicode="&#xfd;" horiz-adv-x="310" 
d="M350 288q-14 -23 -32.5 -35.5t-34.5 -32.5q-5 0 -8 3.5t-6 6.5q11 24 33 43t45 29q6 -2 6 -7zM325 136q-6 -21 -20 -34t-29.5 -24.5t-29.5 -24t-20 -30.5q-10 -3 -19 -11.5t-14 -16.5q-35 -37 -68.5 -76.5t-65.5 -72.5q-17 -26 -37.5 -51.5t-32.5 -53.5
q-26 -34 -46.5 -70.5t-37.5 -75.5q-13 -15 -13 -32q40 -21 77.5 -50t69 -64.5t56 -75t40.5 -80.5q6 -15 8 -30t1 -30l-5 -94q-6 -6 -7 -13.5t-1.5 -15t-3.5 -14t-12 -9.5q-23 -42 -64.5 -68t-87.5 -26q-15 11 -31 22.5t-30.5 24.5t-25.5 28.5t-16 35.5q-24 36 -30.5 75
t-15.5 82q-3 15 -4 30.5t-1 30.5q0 43 8 84.5t20 83.5q5 15 13 29.5t8 28.5q0 6 -1 9q-19 8 -38.5 13.5t-39.5 10.5q-39 4 -79.5 7t-81.5 3q-29 0 -56.5 -3t-54.5 -7l-16 -2q-26 -3 -52.5 -6t-52 -8t-50 -13t-46.5 -21q-15 -7 -31.5 -13t-31.5 -14t-27.5 -18t-21.5 -25
q-2 -1 -4 -3t-5 -2l-3 1q0 6 -4.5 12.5t-4.5 10.5q0 3 1 5q16 12 35 19t33 21q39 22 81.5 36.5t87 23t90.5 13.5t92 8l14 1q148 11 277 -33q49 113 125.5 216t164.5 196q0 4 2.5 7t2.5 6t-5 6q-2 -1 -6 -1q-13 0 -20 12q3 9 4 19t1 20t1 20t6 18q-5 3 -9 3q-10 0 -18 -11
t-17 -15q-8 -6 -21 -15.5t-27.5 -20t-27.5 -20t-21 -14.5q-6 -2 -7 -2q-6 0 -6 5q0 4 3.5 9.5t9.5 9.5q5 5 16.5 13t25 17.5t26.5 19t21 17.5q9 3 17 10t15.5 14.5t15 13t16.5 5.5q8 0 16 -5q1 -3 1 -10l-11 -58q0 -5 3 -11.5t5 -11.5q14 4 24.5 16t24.5 14q23 17 47 39
t44 45q15 0 15 -14zM126 -794q0 40 -11 77t-30 70t-44 63t-52 57q-14 6 -27 15.5t-25.5 19t-26 17.5t-29.5 12q-18 -35 -26 -73t-21 -74q-1 -14 -1.5 -27t-0.5 -26q0 -42 5.5 -82t19.5 -79q10 -17 16 -37t19 -35q2 -17 10.5 -28.5t20.5 -20.5t25.5 -16.5t25.5 -16.5
q7 -3 15 -3q12 0 22.5 6t20.5 14q23 10 40.5 28t29.5 40.5t18 48t6 50.5z" />
    <glyph glyph-name="thorn" unicode="&#xfe;" horiz-adv-x="471" 
d="M593 577q-5 -11 -7 -23t-4.5 -24t-7 -23.5t-13.5 -20.5q-47 -77 -110.5 -148t-130.5 -131q-17 -22 -32 -47t-21 -54q-8 -8 -13 -19t-6 -21q-17 -25 -26 -53.5t-21 -54.5l2 -3q9 16 21.5 30t26 27.5l26.5 26.5t24 27q29 23 62 46t62 47q4 3 8 3q6 0 12 -4t9 -8l1 -9
q0 -13 -4.5 -25.5t-9.5 -24.5l-10 -24t-6 -25q-5 -11 -10.5 -22.5t-5.5 -22.5q0 -7 3 -13q22 10 39 22.5t38 26.5q8 2 10 2q4 0 7 -4q-1 -10 -4.5 -12.5t-13.5 -8.5q-8 -5 -18 -13.5t-21 -17t-22.5 -15t-23.5 -6.5q-14 0 -25 11q7 32 16.5 63.5t23.5 60.5l3 23
q-33 -8 -63 -33.5t-57 -48.5q-51 -51 -93 -108t-77.5 -118.5t-64.5 -126.5t-54 -130q-10 -15 -18 -31t-15 -33q0 -6 -3.5 -12.5t-10.5 -6.5q-4 0 -8 3l-4 9q30 73 63.5 144t68 142t67.5 142.5t62 145.5l-1 1q16 22 27 46t14 49q-30 -24 -62 -43.5t-61 -42.5
q-15 -6 -31.5 -14.5t-33.5 -17.5t-33.5 -17.5t-31.5 -14.5q-5 0 -6.5 3t-3.5 5q1 10 10 15q4 2 8.5 4t8.5 5q76 28 147 77t134 108q32 59 66.5 112t76.5 107q25 38 56 75.5t60 73.5q10 5 19 5q12 0 16 -13zM561 550q-5 0 -5 -5q0 -9 -5 -9q-32 -29 -57 -64t-53 -71
q-6 -11 -16.5 -19.5t-12.5 -20.5q-18 -19 -31 -42t-30 -44v-8q11 7 21 20t22 19q22 32 49 60.5t51 57t42.5 59.5t24.5 67z" />
    <glyph glyph-name="ydieresis" unicode="&#xff;" horiz-adv-x="338" 
d="M344 297q-3 -3 -5 -8t-4 -10.5t-4.5 -9t-7.5 -3.5q-2 0 -8 2q-5 10 -5 19q0 10 8 17q12 0 20 -4l6 -3v0zM259 297q-3 -3 -5 -8t-4 -10.5t-5 -9t-7 -3.5q-1 0 -7 2q-6 9 -6 19t8 17q13 0 21 -4q4 -2 5 -3zM325 136q-6 -21 -20 -34t-29.5 -24.5t-29.5 -24t-20 -30.5
q-10 -3 -19 -11.5t-14 -16.5q-35 -37 -68.5 -76.5t-65.5 -72.5q-17 -26 -37.5 -51.5t-32.5 -53.5q-26 -34 -46.5 -70.5t-37.5 -75.5q-13 -15 -13 -32q40 -21 77.5 -50t69 -64.5t56 -75t40.5 -80.5q6 -15 8 -30t1 -30l-5 -94q-6 -6 -7 -13.5t-1.5 -15t-3.5 -14t-12 -9.5
q-23 -42 -64.5 -68t-87.5 -26q-15 11 -31 22.5t-30.5 24.5t-25.5 28.5t-16 35.5q-24 36 -30.5 75t-15.5 82q-3 15 -4 30.5t-1 30.5q0 43 8 84.5t20 83.5q5 15 13 29.5t8 28.5q0 6 -1 9q-19 8 -38.5 13.5t-39.5 10.5q-39 4 -79.5 7t-81.5 3q-29 0 -56.5 -3t-54.5 -7l-16 -2
q-26 -3 -52.5 -6t-52 -8t-50 -13t-46.5 -21q-15 -7 -31.5 -13t-31.5 -14t-27.5 -18t-21.5 -25q-2 -1 -4 -3t-5 -2l-3 1q0 6 -4.5 12.5t-4.5 10.5q0 3 1 5q16 12 35 19t33 21q39 22 81.5 36.5t87 23t90.5 13.5t92 8l14 1q148 11 277 -33q49 113 125.5 216t164.5 196
q0 4 2.5 7t2.5 6t-5 6q-2 -1 -6 -1q-13 0 -20 12q3 9 4 19t1 20t1 20t6 18q-5 3 -9 3q-10 0 -18 -11t-17 -15q-8 -6 -21 -15.5t-27.5 -20t-27.5 -20t-21 -14.5q-6 -2 -7 -2q-6 0 -6 5q0 4 3.5 9.5t9.5 9.5q5 5 16.5 13t25 17.5t26.5 19t21 17.5q9 3 17 10t15.5 14.5t15 13
t16.5 5.5q8 0 16 -5q1 -3 1 -10l-11 -58q0 -5 3 -11.5t5 -11.5q14 4 24.5 16t24.5 14q23 17 47 39t44 45q15 0 15 -14zM126 -794q0 40 -11 77t-30 70t-44 63t-52 57q-14 6 -27 15.5t-25.5 19t-26 17.5t-29.5 12q-18 -35 -26 -73t-21 -74q-1 -14 -1.5 -27t-0.5 -26
q0 -42 5.5 -82t19.5 -79q10 -17 16 -37t19 -35q2 -17 10.5 -28.5t20.5 -20.5t25.5 -16.5t25.5 -16.5q7 -3 15 -3q12 0 22.5 6t20.5 14q23 10 40.5 28t29.5 40.5t18 48t6 50.5z" />
    <glyph glyph-name="Abreve" unicode="&#x102;" horiz-adv-x="526" 
d="M716 620q0 7 4.5 9t12.5 3q13 -1 13 -10.5t6.5 -19.5t19.5 -12.5t27 1t26 11t18.5 14.5t21.5 7q-4 -10 -17.5 -23t-31.5 -21.5t-38 -9.5q-16 1 -27.5 4t-19.5 11t-11.5 19t-3.5 17zM771 510q0 -13 -7.5 -23.5t-18.5 -16.5q-36 -20 -68 -49t-66 -53q-21 -20 -44.5 -37.5
t-46 -37t-41 -41.5t-29.5 -50q-12 -9 -19 -21.5t-13 -25l-12 -25t-15 -22.5q-6 -15 -16.5 -28.5t-12.5 -30.5q9 -2 18.5 -3t18.5 -1q42 0 82.5 13t79.5 23q6 -9 6 -20q-10 -8 -20.5 -11.5t-21 -5t-21.5 -3t-22 -5.5q-33 -7 -68 -10t-67 -4q-23 -45 -37.5 -93.5t-28.5 -96.5
q-5 -1 -9.5 -3t-9.5 -2h-2q-1 5 -1.5 9.5t-0.5 9.5q0 20 11 31q22 47 22 101q0 14 -1.5 28t-3.5 28q-18 13 -40 14.5t-42 6.5q-35 -23 -77.5 -36t-87.5 -13q-32 0 -63.5 7t-57.5 27q-11 3 -20.5 9.5t-17.5 15t-16.5 16.5t-18.5 14q-18 29 -33 61.5t-15 69.5q0 55 31.5 97.5
t79 71t104 43t107.5 14.5q40 0 76 -13t65 -45q3 -6 3 -12q0 -8 -4.5 -14t-10.5 -12t-11.5 -12.5t-6.5 -13.5q-17 -5 -37.5 -10.5t-40.5 -5.5q-28 0 -47 15l-5 -1q-11 0 -19.5 8t-14.5 16q4 9 10 9q7 0 15.5 -8t17.5 -8q10 -5 20 -7t21 -2q14 0 30 3t29 9t21.5 14.5t8.5 18.5
q0 8 -8 13q-25 21 -52.5 29.5t-56.5 8.5q-49 0 -95 -16t-90 -29q-23 -11 -43.5 -30.5t-40.5 -32.5q-16 -22 -24.5 -48.5t-8.5 -54.5q0 -24 11.5 -51t30 -51.5t41.5 -44t47 -28.5q41 -22 91 -22q35 0 68.5 9.5t61.5 26.5q-12 8 -31.5 15t-38 17t-32.5 24t-14 36q0 11 6.5 17
t16 9t20 4t18.5 1q40 0 74 -20.5t63 -49.5q35 13 66 40t60 47q33 22 60 49t52 56.5t47.5 60t46.5 60.5q29 36 69 71t85 49q12 0 17.5 -6.5t11.5 -14.5q3 -8 3 -15zM750 514q0 4 -1 6h-16q-39 -23 -74 -50.5t-65 -63.5q-4 -13 -14 -23t-16 -22q29 23 60.5 47t61.5 47
q4 7 10 11.5t13 8t13.5 6.5t11.5 9q8 3 12 10t4 14zM414 198q-2 -2 -4 -4.5t-5 -4.5l-124 -90v-12q8 -17 22 -24.5t30 -7.5h6v6q14 16 22.5 34t16.5 36l5 12q17 26 23 38t8 17zM324 25q0 3 -3 6h-12q-1 -2 -1 -8q0 -4 1 -8.5t4 -6.5q2 5 6.5 8.5t4.5 8.5zM266 73q-2 8 -12 8
q-9 0 -9 -7v-2q5 -1 8 -3.5t7 -2.5q3 0 6 3v4zM234 108q-14 9 -27 19.5t-27 19t-29.5 14t-33.5 5.5l-6.5 -0.5t-14 -2.5t-13.5 -5.5t-6 -9.5q0 -3 1 -5q11 -17 26 -27t31.5 -17t34.5 -11t36 -7q7 6 17.5 9.5t10.5 13.5v4z" />
    <glyph glyph-name="abreve" unicode="&#x103;" 
d="M203 240q0 7 4.5 9t12.5 3q13 -1 13 -10.5t6.5 -19.5t19.5 -12.5t27 1t26 11t18.5 14.5t21.5 7q-4 -10 -17.5 -23t-31.5 -21.5t-38 -9.5q-16 1 -27.5 4t-19.5 11t-11.5 19t-3.5 17zM347 4q-1 -2 -1 -3v-1q-11 -7 -20.5 -14t-20 -13t-24 -10.5t-32.5 -7.5q-11 -3 -21 -3
q-19 0 -31 8q-6 4 -7 10.5t-1 13.5v3q0 5 -0.5 9t-2.5 8q-26 -17 -52.5 -35t-60.5 -19q-11 5 -15.5 14.5t-4.5 20.5q0 5 2 15q2 3 4.5 10t5.5 14t6.5 13.5t7.5 8.5q-7 -1 -18 -6.5t-22 -12.5t-21.5 -14.5t-16.5 -12.5l-4 -2q-2 0 -3.5 2t-5.5 2q-1 1 -1 3q0 4 6 8.5t8 9.5
q18 15 35 25t31 21q21 11 40.5 26t39.5 28.5t41.5 22t46.5 6.5l12 -1q5 -4 10 -6.5t10 -7.5v-7q0 -14 -5.5 -27t-12 -25t-12.5 -22.5t-7 -19.5q-3 -10 -8 -21t-5 -22q0 -8 5 -16q7 -3 18 -3q20 0 45 11.5t45 27.5q4 0 8 4t8 6l1 -1v-12v-6zM235 129q-2 0 -5.5 0.5t-6.5 0.5
h-6.5t-5.5 -1q-3 -1 -15.5 -8t-29 -18.5t-33.5 -27t-29 -33.5q-7 -11 -14.5 -25.5t-7.5 -26.5q0 -7 2 -10q6 -2 10 -2q15 0 32 10t21 16q17 10 32.5 25.5t21.5 20.5q13 17 24.5 38t14.5 41h-5z" />
    <glyph glyph-name="Dcroat" unicode="&#x110;" horiz-adv-x="543" 
d="M424 113q0 -7 -3.5 -10t-8.5 -4t-11 -1.5t-11 -1.5t-8.5 -1h-7.5q-16 0 -28.5 3t-26.5 3q-13 0 -26 -4q-7 7 -19 7l-27 -3q-13 0 -18 11q15 12 34 10l39 -2q11 -3 20.5 -4t19.5 -1q20 0 39.5 2.5t41.5 2.5q1 -3 1 -7zM635 328q0 -15 -3.5 -29.5t-13.5 -25.5
q-3 -18 -13 -33t-12 -34q-21 -31 -42 -63.5t-47 -58.5q-51 -51 -115 -78t-136 -27h-14t-14 1q-40 -33 -86 -57t-101 -24h-6q-15 2 -27 10.5t-20 21.5q-5 7 -5 11q0 8 6 15t8 15q25 18 55 23.5t62 4.5l65 -1q14 0 27.5 1t27.5 3q46 34 80.5 75.5t75.5 83.5q20 29 45 54t51 42
q14 5 21 15l-3 9h3q12 0 20 -8q2 -3 2 -9q0 -11 -13 -18t-21 -15q-31 -17 -56 -41.5t-47.5 -52.5t-45.5 -56t-50 -51l-23 -26q7 -3 16 -3l47 5q43 15 85 36.5t74 57.5q27 31 50 61t34 68q5 12 13 22.5t8 24.5v5q17 24 17 53q0 26 -9.5 51t-19.5 48l-6 14q-21 18 -44 37.5
t-48 37t-52.5 29.5t-57.5 14q-5 -1 -15.5 -1h-15.5l-93 11q-16 0 -35.5 -3.5t-33.5 -12.5h-9q-18 0 -33 -6t-29.5 -13.5t-28.5 -15.5t-29 -12q-16 -8 -25.5 -19.5t-26.5 -15.5q-32 -27 -64 -58.5t-48 -70.5q-10 -27 -10 -59q0 -40 14 -79q27 -43 70.5 -68.5t96.5 -25.5h10
t13 1q18 0 34 4.5t30.5 11.5t28.5 16t29 17q22 16 46.5 38t32.5 48q-16 15 -38 15q-17 0 -33.5 -5.5t-33.5 -10.5q-35 -9 -61.5 -32t-43.5 -55q-1 -1 -4 -1q-5 0 -8 5l3 16q15 29 37.5 49t50 32t58 17t61.5 5h5q11 -3 21 -12t12 -20v-4q0 -14 -6 -25.5t-10 -22.5
q-9 0 -15 -4t-11.5 -9.5t-11 -11.5t-12.5 -10q-20 -18 -44 -31t-49 -23q-14 -11 -31 -15t-35 -4q-24 0 -49 4t-47 6q-26 11 -49.5 29t-41.5 41t-29 50.5t-11 57.5v7q4 23 7.5 45.5t14.5 42.5q21 35 49.5 64t61.5 53t69 42.5t72 33.5q34 6 69 14.5t70 8.5q28 0 52 -7
q7 2 13 2h12q22 0 43 -5t36 -11q12 -5 23.5 -8t23.5 -9q25 -17 52 -37t50 -44t38 -52.5t16 -62.5q0 -8 1.5 -16.5t1.5 -16.5zM176 -25q-9 5 -21 5q-3 0 -10.5 -0.5t-35.5 -0.5h-9t-9 1q-12 -2 -25 -3.5t-25 -5t-21.5 -10.5t-13.5 -21q5 -8 12 -11t15 -6q19 4 39 7t39 8.5
t35.5 14t29.5 22.5z" />
    </font>
</defs>
</svg>
