<?xml version="1.0" standalone="no"?>
<!DOCTYPE svg PUBLIC "-//W3C//DTD SVG 1.1//EN" "http://www.w3.org/Graphics/SVG/1.1/DTD/svg11.dtd" >
<svg xmlns="http://www.w3.org/2000/svg" xmlns:xlink="http://www.w3.org/1999/xlink" version="1.1">
<metadata>
Created by FontForge 20170731 at Tue Dec 24 05:03:20 2013
 By Aleksey,,,
Copyright (c) 2009 by Viet hoa by UhThilahuvo - chipquay@gmail.com. All rights reserved.
</metadata>
<defs>
<font id="HLTSneakerScript" horiz-adv-x="307" >
  <font-face 
    font-family="HLT Sneaker Script"
    font-weight="400"
    font-stretch="normal"
    units-per-em="1000"
    panose-1="2 0 5 4 0 0 0 2 0 2"
    ascent="750"
    descent="-250"
    x-height="327"
    cap-height="773"
    bbox="-3548.75 -282.471 1140 1069"
    underline-thickness="50"
    underline-position="-150"
    unicode-range="U+0020-FB02"
  />
<missing-glyph horiz-adv-x="600" 
d="M150 0q-21 0 -35.5 14.5t-14.5 35.5v600q0 21 14.5 35.5t35.5 14.5h300q21 0 35.5 -14.5t14.5 -35.5v-600q0 -21 -14.5 -35.5t-35.5 -14.5h-300zM165 79q0 -14 14 -14h242q14 0 14 14v542q0 14 -14 14h-242q-14 0 -14 -14v-542z" />
    <glyph glyph-name="fi" unicode="fi" horiz-adv-x="477" 
d="M0 105q19 19 49 50.5t65 70.5q-14 -35 -28 -69.5t-25 -72.5l-20 -20q-8 -8 -20 -8.5t-21 8.5t-8.5 21t8.5 20zM426 464q2 27 24 46t51 19t47.5 -19t16.5 -46t-23.5 -46t-50.5 -19t-48 19t-17 46zM296 64q-21 -21 -46 -33t-47.5 -17t-41.5 -4t-28 6q5 15 9.5 30.5
t10.5 29.5q20 -6 50 0.5t52 28.5t44 47t42.5 51t37 51t27.5 48q10 20 22.5 24.5t23.5 2.5q20 -4 24 -23t-8 -46q-14 -31 -25.5 -60t-19.5 -54.5t-12.5 -45t-4.5 -31.5t10 -12q9 0 24.5 13.5t36.5 34.5q8 8 20 8.5t21 -8.5t8.5 -21t-8.5 -20q-35 -35 -61.5 -52t-55.5 -17
t-46.5 18t-17.5 56q0 20 6.5 39t14.5 39q3 8 -3.5 11t-11.5 -6q-11 -24 -19 -57q-2 -4 -11 -13.5t-17 -17.5zM24 -136q0 87 86 311q33 84 64 160t62 133.5t60.5 91t59.5 33.5q20 0 28.5 -14.5t8.5 -43.5q0 -30 -16.5 -68t-43 -79t-59 -83.5t-64.5 -81.5q11 29 27 66
t34.5 75.5t37.5 75t37 65.5q5 8 -1 12.5t-12 -4.5q-19 -27 -43.5 -74.5t-51 -105.5t-52.5 -122t-47 -125t-35.5 -113.5t-17.5 -88.5q-2 -17 5 -17.5t13 10.5q8 14 20 47t19 74q14 -3 31 -3t32 5q-8 -42 -20 -79.5t-28.5 -65.5t-37.5 -44t-45 -16q-23 0 -37 17t-14 52z
M183 157q12 -8 19.5 -26t8.5 -35q-27 -13 -53 -6q6 17 13 36.5t12 30.5z" />
    <glyph glyph-name="fl" unicode="fl" horiz-adv-x="493" 
d="M0 105q19 19 49 50.5t65 70.5q-14 -35 -28 -69.5t-25 -72.5l-20 -20q-8 -8 -20 -8.5t-21 8.5t-8.5 21t8.5 20zM331 89q-2 40 9 93t30.5 109t45 110.5t53 97t54.5 68.5t49 26q23 0 32.5 -14.5t7.5 -43.5q-1 -27 -19.5 -69.5t-46 -91.5t-61.5 -100t-67 -95
q24 89 63.5 169.5t86.5 156.5q5 8 -1 12.5t-13 -5.5q-21 -31 -49 -81t-52.5 -107t-42 -114.5t-17.5 -102.5q0 -32 9 -40t20 -8q25 0 71 46q8 8 20 8.5t21 -8.5t8.5 -21t-8.5 -20q-22 -22 -40 -35.5t-33 -21t-27 -10t-21 -2.5q-39 0 -59.5 24.5t-22.5 69.5zM296 64
q-21 -21 -46 -33t-47.5 -17t-41.5 -4t-28 6q5 15 9.5 30.5t10.5 29.5q20 -6 50 0.5t52 28.5q13 13 32.5 35t39.5 48q-6 -28 -9.5 -54t-1.5 -50zM24 -136q0 87 86 311q33 84 64 160t62 133.5t60.5 91t59.5 33.5q20 0 28.5 -14.5t8.5 -43.5q0 -30 -16.5 -68t-43 -79t-59 -83.5
t-64.5 -81.5q11 29 27 66t34.5 75.5t37.5 75t37 65.5q5 8 -1 12.5t-12 -4.5q-19 -27 -43.5 -74.5t-51 -105.5t-52 -122t-46.5 -125t-35.5 -113.5t-18.5 -88.5q-2 -17 5 -17.5t13 10.5q8 14 20 47t19 74q14 -3 31 -3t32 5q-8 -42 -20 -79.5t-28.5 -65.5t-37.5 -44t-45 -16
q-23 0 -37 17t-14 52zM183 157q12 -8 19.5 -26t8.5 -35q-27 -13 -53 -6q6 17 13 36.5t12 30.5z" />
    <glyph glyph-name="T_h" unicode="Th" horiz-adv-x="950" 
d="M799 66q0 19 8.5 40.5t20.5 41.5t25 38t22 31q11 16 5 22.5t-22 -8.5q-13 -13 -33 -36t-41.5 -51t-41.5 -58.5t-33 -59.5q-6 -20 -21 -26t-27 -1q-14 5 -17 17.5t2 24.5q22 60 45 127.5t46 132t47 122t50 98.5q25 40 54 56t51.5 11.5t33 -26.5t-1.5 -59q-9 -27 -26 -51.5
t-36.5 -46t-40 -40t-36.5 -32.5q25 58 46 100t40 72q5 8 -1 12.5t-13 -5.5q-42 -64 -70 -133t-50 -132q-9 -8 -18.5 -20t-17.5 -24q-5 -7 1 -11.5t11 2.5q18 25 39 49.5t43 44t43.5 31t41.5 11.5q17 0 29.5 -9.5t12.5 -28.5q0 -29 -16 -60.5t-35.5 -61.5t-35.5 -55.5
t-16 -42.5q0 -15 17 -15q10 0 28 13.5t39 34.5q8 8 20 8.5t21 -8.5t8.5 -21t-8.5 -20q-35 -35 -62.5 -52t-65.5 -17q-28 0 -46 18t-18 53zM292 453q6 -20 -1.5 -33t-20 -17.5t-26 1.5t-19.5 25q-20 61 -7.5 117.5t48.5 99t91.5 66.5t123.5 21q32 -2 61.5 -7t57.5 -12
t53.5 -13.5t49.5 -9.5q-23 -26 -42 -57q-48 8 -96 21t-91 13q-48 0 -87.5 -15t-65.5 -42.5t-35 -67.5t6 -90zM351 281q-63 0 -107.5 -18t-71.5 -45.5t-35 -59.5t2.5 -59.5t40 -45.5t78.5 -18q42 0 77 17t64.5 47t54 70t47.5 87q17 -1 35 -1.5t35 -0.5h11
q-27 -57 -58.5 -108.5t-70.5 -90t-88 -61.5t-110 -23q-70 0 -114 27.5t-61.5 69.5t-10 90t40.5 90t90.5 69.5t140.5 27.5q52 0 104 -4.5t102.5 -6t100 4.5t97.5 27l-27 -72q-40 -18 -86 -22t-94 -2t-96 6.5t-91 4.5zM875 699q-45 1 -79 -27.5t-63 -77t-55 -111.5t-53 -130
q-29 -3 -54 -3h-28q21 49 41.5 98.5t42.5 95t47.5 85.5t55 69t64.5 46t78 17q34 0 51 -14t17 -35q0 -15 -10 -32t-31 -30.5t-53.5 -22.5t-77.5 -9q22 31 49.5 48.5t56.5 17.5q10 0 9.5 7.5t-8.5 7.5z" />
    <glyph glyph-name="W_h" unicode="Wh" horiz-adv-x="1045" 
d="M894 66q0 19 8.5 40.5t20.5 41.5t25 38t22 31q11 16 5 22.5t-22 -8.5q-13 -13 -33 -36t-41.5 -51t-41.5 -58.5t-33 -59.5q-6 -20 -21 -26t-27 -1q-14 5 -17 17.5t2 24.5q22 60 45 127.5t46 132t47 122t50 98.5q25 40 54 56t51.5 11.5t33 -26.5t-1.5 -59q-9 -27 -26 -51.5
t-36.5 -46t-40 -40t-36.5 -32.5q25 58 46 100t40 72q5 8 -1 12.5t-13 -5.5q-42 -64 -70 -133t-50 -132q-9 -8 -18.5 -20t-17.5 -24q-5 -7 1 -11.5t11 2.5q18 25 39 49.5t43 44t43.5 31t41.5 11.5q17 0 29.5 -9.5t12.5 -28.5q0 -29 -16 -60.5t-35.5 -61.5t-35.5 -55.5
t-16 -42.5q0 -15 17 -15q10 0 28 13.5t39 34.5q8 8 20 8.5t21 -8.5t8.5 -21t-8.5 -20q-35 -35 -62.5 -52t-65.5 -17q-28 0 -46 18t-18 53zM403 71q-7 14 -7.5 35t6.5 45q28 35 47.5 69.5t35.5 72.5q9 21 10.5 34.5t-3 17.5t-15 -4.5t-25.5 -30.5q-32 -47 -51 -97.5
t-21.5 -92t12.5 -68.5t53 -27q36 0 69.5 20t62 54.5t51.5 80.5t38 98q26 -14 63 -14q-16 -57 -42.5 -111.5t-63 -97t-82 -68.5t-97.5 -26q-48 0 -76 20.5t-39.5 54t-9 76t14.5 87t32.5 87t44.5 76t50 54t49 20.5q29 0 40.5 -20t11.5 -50q0 -33 -12.5 -71t-34 -76.5
t-50.5 -76.5t-62 -71zM365 601q0 57 -24 81t-56 22.5t-64 -25t-49 -62.5q-6 -14 -19 -18t-24 0t-16.5 16t2.5 31q17 40 47 67t65 39.5t71.5 10.5t66 -20t48 -52.5t18.5 -85.5q0 -63 -21.5 -117t-54.5 -100.5t-70.5 -87.5t-70.5 -77.5t-54.5 -70.5t-21.5 -67
q0 -21 13.5 -36.5t43.5 -15.5q29 0 56.5 9t53.5 26q4 -33 18 -60q-32 -18 -65 -29t-68 -11q-54 0 -87 28.5t-33 86.5q0 44 22 83t54.5 77t71 76.5t71 81.5t54.5 92t22 108zM767 340q17 3 36 9t37 17q-7 -17 -13.5 -35t-12.5 -36q-11 -5 -19.5 -7.5t-12.5 -3.5q-32 -7 -61 -5
t-52 15t-36.5 36.5t-13.5 60.5q0 25 7 49t18 43.5t26 31.5t31 12q27 0 39 -20.5t15 -49t0 -58t-6 -46.5q-25 -2 -38 6.5t-17 23t0 32t12 33.5q4 8 -2 11.5t-11 -4.5q-14 -23 -17 -46.5t5.5 -41t29.5 -26t56 -1.5z" />
    <glyph glyph-name="t_t" unicode="tt" horiz-adv-x="471" 
d="M505 266q-58 -7 -106 -5.5t-94.5 5t-95 5t-105.5 -4.5q-13 -2 -24.5 4.5t-13.5 24.5q-2 17 8.5 26t23.5 11q58 7 106 5.5t94.5 -5t95 -5t105.5 4.5q13 2 24.5 -4.5t13.5 -24.5q2 -17 -8.5 -26t-23.5 -11zM530 479q2 -26 -13 -62.5t-34 -71.5q-20 -2 -40.5 -2.5
t-52.5 -0.5l66 141q9 20 22 24.5t24 2.5q14 -2 20.5 -11t7.5 -20zM310 479q2 -25 -12.5 -60.5t-32.5 -69.5q-19 2 -40 2.5t-51 0.5l62 131q9 20 22 24.5t24 2.5q14 -2 20.5 -11t7.5 -20zM291 95q-12 -15 -28 -32.5t-35 -32.5t-40 -25t-43 -10q-29 0 -46.5 18t-17.5 56
q0 12 5 32.5t16 44.5q4 8 -2.5 10.5t-11.5 -6.5q-5 -11 -11 -26.5t-9 -32.5l-27 -27q-8 -8 -20 -8.5t-21 8.5t-8.5 21t8.5 20q32 33 64.5 71.5t57.5 75.5q19 2 39 3t49 1q-20 -48 -35 -86.5t-22 -65.5q-7 -26 -1.5 -34t16.5 -5t25.5 14t26.5 23q32 32 63.5 71t55.5 75
q19 -1 38.5 -1.5t45.5 -0.5q-26 -51 -36.5 -87t-11.5 -58t6.5 -32t18.5 -10q25 0 71 46q8 8 20 8.5t21 -8.5t8.5 -21t-8.5 -20q-22 -22 -39 -35.5t-31 -21t-26.5 -10t-24.5 -2.5q-31 0 -49.5 14t-27 36t-8.5 48.5t6 51.5q2 9 -4 11t-10 -7q-9 -20 -7 -54z" />
    <glyph glyph-name=".notdef" horiz-adv-x="600" 
d="M150 0q-21 0 -35.5 14.5t-14.5 35.5v600q0 21 14.5 35.5t35.5 14.5h300q21 0 35.5 -14.5t14.5 -35.5v-600q0 -21 -14.5 -35.5t-35.5 -14.5h-300zM165 79q0 -14 14 -14h242q14 0 14 14v542q0 14 -14 14h-242q-14 0 -14 -14v-542z" />
    <glyph glyph-name=".null" horiz-adv-x="0" 
 />
    <glyph glyph-name="nonmarkingreturn" horiz-adv-x="0" 
 />
    <glyph glyph-name="space" unicode=" " horiz-adv-x="200" 
 />
    <glyph glyph-name="exclam" unicode="!" horiz-adv-x="267" 
d="M75 50q0 31 23 50.5t52 19.5q27 0 45.5 -17.5t18.5 -42.5q0 -14 -6 -27t-16.5 -22.5t-23.5 -15t-28 -5.5q-28 0 -46.5 17t-18.5 43zM255 399q18 62 34 104t32.5 67.5t33 36.5t35.5 11q22 0 32 -12t10 -32q0 -41 -20 -75.5t-50.5 -76.5t-66.5 -98t-68 -138
q-7 -17 -18.5 -22.5t-21.5 -2t-15 14.5t2 28q36 87 70 146.5t61 99.5t44.5 64.5t21.5 42.5q2 9 -5.5 11t-10.5 -7q-6 -16 -17.5 -34t-26 -38t-29.5 -42.5t-27 -47.5z" />
    <glyph glyph-name="quotedbl" unicode="&#x22;" 
d="M200 407q-9 -13 -20.5 -15t-20.5 3.5t-12 17t5 25.5l106 179q10 16 24.5 18.5t26 -4t15.5 -21t-7 -30.5zM332 407q-9 -13 -20.5 -15t-20.5 3.5t-12 17t5 25.5l106 179q10 16 24.5 18.5t26 -4t15.5 -21t-7 -30.5z" />
    <glyph glyph-name="numbersign" unicode="#" horiz-adv-x="559" 
d="M271 370q20 1 38 0t37 -1l-171 -350q-9 -19 -23.5 -24t-26.5 -0.5t-17.5 18t3.5 31.5zM392 463q-20 1 -38.5 1.5t-35.5 0.5l60 123q10 20 24.5 26t26.5 1.5t17 -18t-5 -33.5zM478 255q-38 -2 -75 0l158 337q9 20 23.5 25.5t26.5 1t17.5 -18t-3.5 -31.5zM359 160
q20 -1 38.5 -1h35.5l-67 -142q-8 -18 -22 -23t-26 -0.5t-17.5 17.5t3.5 32zM507 176q-14 -2 -39.5 -2t-58 0.5t-69 2t-71.5 2.5l32 64l62 -2t58 -1h47.5t32.5 2q13 2 24.5 -4.5t13.5 -24.5q2 -17 -8.5 -26t-23.5 -11zM118 245q11 2 31 2.5t45 -0.5l-32 -66q-12 -1 -21.5 -1
t-16.5 -1q-13 -2 -24.5 4.5t-13.5 24.5q-2 17 8.5 26t23.5 11zM218 449q14 2 42.5 2t63.5 -1t74.5 -2.5t76.5 -2.5l-31 -65q-33 1 -67 2.5t-63.5 2t-53 0.5t-36.5 -2t-24.5 4.5t-13.5 24.5q-2 17 8.5 26t23.5 11zM607 380q-8 -2 -22.5 -2h-32.5l31 66q8 0 18 2
q13 2 24.5 -4.5t13.5 -24.5q2 -17 -8.5 -26t-23.5 -11z" />
    <glyph glyph-name="dollar" unicode="$" horiz-adv-x="480" 
d="M455 437q22 22 27 49t-9 47q8 17 15 33t13 31q24 -18 34.5 -46t9 -58t-13.5 -57t-31 -44q-14 -12 -27.5 -11t-21.5 9.5t-8 21.5t12 25zM146 179q-24 -24 -18.5 -54.5t36.5 -50.5q-7 -16 -14 -30.5t-13 -28.5q-32 18 -49 46.5t-20.5 59t5 58.5t28.5 45q14 12 27.5 11
t21.5 -9.5t8 -21.5t-12 -25zM228 -6q15 28 30 63q54 8 86 46t32 88q0 25 -10 45t-25.5 38t-33 35.5t-33 38t-25.5 45.5t-10 58q0 28 10.5 57.5t31.5 54t53.5 41t76.5 18.5l-29 -67q-30 -10 -54 -35t-24 -66q0 -27 10 -47t25 -37t32 -34t32 -37.5t25 -47.5t10 -64
q0 -38 -15 -73t-43 -61.5t-66.5 -42.5t-84.5 -16h-1zM109 -77q12 25 31.5 66t43 92t50.5 109t54 118q20 -20 29.5 -30.5t16.5 -18.5q-28 -61 -54.5 -118.5t-49 -105t-39 -83t-25.5 -52.5q-8 -17 -21 -21.5t-23.5 0t-15.5 16.5t3 28zM522 687q-12 -29 -28 -66.5t-34.5 -80.5
t-40 -90.5t-43.5 -96.5q-14 14 -24.5 26t-18.5 26q41 91 75 170t57 133q7 16 19 21t22.5 0.5t16 -16t-0.5 -26.5z" />
    <glyph glyph-name="percent" unicode="%" horiz-adv-x="750" 
d="M218 13q-13 -13 -26.5 -12.5t-21.5 9t-8.5 22t12.5 25.5q60 57 130.5 127t142.5 142.5t140 142t123 123.5q15 15 29 15t22 -9t7 -23t-14 -27q-60 -57 -130.5 -127t-142.5 -143t-140 -142t-123 -123zM361 476q0 21 -4 39.5t-15 33.5q-8 11 -5 22.5t12 18t21 5t22 -16.5
q14 -20 20 -46t6 -54q0 -49 -16 -98.5t-43.5 -89t-65 -64.5t-79.5 -25q-45 0 -70.5 30.5t-25.5 79.5q0 52 21 107.5t56.5 101.5t82 75.5t98.5 29.5q14 0 27.5 -4.5t21.5 -12t10 -19t-7 -24.5q-4 -5 -11 -7q-3 8 -5.5 15.5t-7.5 12.5q-13 17 -29 20.5t-28.5 -3t-20 -20
t-3.5 -31.5q-32 -14 -59 -41.5t-46.5 -61t-30 -69t-10.5 -64.5q0 -26 9.5 -41t32.5 -15q24 0 49.5 19t46 49.5t33.5 69t13 78.5zM717 259q0 21 -4 39.5t-15 33.5q-8 11 -5 22.5t12 18t21 5t22 -16.5q14 -20 20 -46t6 -54q0 -49 -16 -98.5t-43.5 -89t-65 -64.5t-79.5 -25
q-45 0 -70.5 30.5t-25.5 79.5q0 52 21 107.5t56.5 101.5t82 75.5t98.5 29.5q14 0 27.5 -4.5t21.5 -12t10 -19t-7 -24.5q-4 -5 -11 -7q-3 8 -5.5 15.5t-7.5 12.5q-13 17 -29 20.5t-28.5 -3t-20 -20t-3.5 -31.5q-32 -14 -59 -41.5t-46.5 -61t-30 -69t-10.5 -64.5
q0 -26 9.5 -41t32.5 -15q24 0 49.5 19t46 49.5t33.5 69t13 78.5z" />
    <glyph glyph-name="ampersand" unicode="&#x26;" horiz-adv-x="620" 
d="M232 397q0 76 22 130t55.5 87.5t72 46.5t72 7t55.5 -30.5t22 -66.5q0 -41 -19 -73.5t-49.5 -60t-69.5 -51t-78 -47.5q-2 15 -3 31t-1 38q32 19 60.5 37.5t50.5 37t34.5 38.5t12.5 41q0 24 -13 36t-32 12t-41.5 -13t-41.5 -39t-32 -65.5t-13 -93.5q0 -32 5 -67t15.5 -69.5
t26 -66.5t36.5 -59q-9 -14 -20.5 -25t-24.5 -19q-52 68 -77 147.5t-25 156.5zM497 203q-11 -45 -34.5 -84.5t-56 -68.5t-73 -45.5t-85.5 -16.5q-59 0 -97.5 21t-57.5 54.5t-20 75t15.5 81.5t49.5 74.5t81 54.5q2 -17 4 -33.5t6 -33.5q-45 -23 -68.5 -62.5t-23 -77.5
t27.5 -66t84 -28q34 0 64.5 14t55 37.5t41 54t22.5 62.5q24 -10 65 -13zM588 43q18 2 27 -6.5t9.5 -19.5t-7.5 -21.5t-26 -11.5q-56 -5 -103 7.5t-85 36.5q13 11 24.5 22t22.5 24q29 -19 63 -27.5t75 -3.5zM436 302q21 -13 48 -16t55 0t54 11.5t44 17.5t30 3.5t17.5 -17
t2.5 -25t-16 -21.5q-16 -10 -49.5 -20.5t-76.5 -14.5q-71 -6 -108 11t-47.5 41t0.5 46t37 24q24 2 42 -9.5t26 -32.5q-6 0 -14 2.5t-15.5 5t-13 5t-6.5 3.5q-9 6 -13.5 -1.5t3.5 -12.5z" />
    <glyph glyph-name="quotesingle" unicode="'" horiz-adv-x="175" 
d="M200 407q-9 -13 -20.5 -15t-20.5 3.5t-12 17t5 25.5l106 179q10 16 24.5 18.5t26 -4t15.5 -21t-7 -30.5z" />
    <glyph glyph-name="parenleft" unicode="(" horiz-adv-x="320" 
d="M239 -90q8 -17 2.5 -29.5t-17 -17.5t-25 -1t-20.5 20q-49 104 -42.5 218t59.5 219.5t147 192.5t219 138q18 7 30 1.5t16.5 -16t0 -22.5t-19.5 -18q-72 -30 -134.5 -75t-111.5 -100.5t-83 -118.5t-49 -129.5t-9 -133t37 -128.5z" />
    <glyph glyph-name="parenright" unicode=")" horiz-adv-x="340" 
d="M293 598q-8 17 -2.5 29.5t17 17.5t24.5 1t21 -20q49 -104 42.5 -218t-59.5 -219.5t-147 -192.5t-219 -138q-18 -7 -30 -2t-16.5 15.5t0 23t19.5 18.5q72 30 134.5 75t111.5 100.5t83 118.5t49 129.5t8.5 133t-36.5 128.5z" />
    <glyph glyph-name="asterisk" unicode="*" horiz-adv-x="399" 
d="M302 528q1 7 -6.5 8.5t-8.5 -6.5l-3 -31q-27 -24 -47.5 -37t-36 -16.5t-26 1t-16.5 14.5t-3.5 23t17.5 26.5t44 26.5t75 25q7 2 6 9t-9 5l-31 -7q-33 19 -52 34.5t-27 29t-6.5 24.5t9.5 20q7 9 19.5 10.5t29.5 -8t39 -32.5t49 -62q5 -6 11 -2.5t2 10.5l-16 24
q15 73 36 94t43 11q11 -5 17 -15.5t2.5 -29.5t-19 -46.5t-46.5 -65.5q-5 -5 0 -9.5t10 0.5l21 21q71 7 100 -7.5t26 -37.5q-2 -11 -10.5 -19.5t-27.5 -11t-50.5 4t-77.5 26.5q-6 2 -9.5 -4t3.5 -9l25 -12q27 -69 24.5 -100.5t-22.5 -36.5q-13 -3 -25 3.5t-20.5 24.5t-12 50
t-0.5 80z" />
    <glyph glyph-name="plus" unicode="+" horiz-adv-x="480" 
d="M251 109q-7 -16 -20 -21t-24.5 -1t-16.5 16t4 30q15 30 35.5 73t43 89t44 90.5t39.5 76.5q10 18 23.5 22.5t23.5 -0.5t14 -18t-5 -29q-18 -33 -40.5 -77t-45 -90t-42.5 -89t-33 -72zM134 325q19 2 56 2t80 -1l-31 -65q-32 1 -58 0.5t-41 -2.5q-13 -2 -24.5 4.5
t-13.5 24.5q-2 17 8.5 26t23.5 11zM470 259q-19 -3 -54.5 -3t-77.5 2l32 65q31 -1 55 -0.5t39 2.5q13 2 24.5 -4.5t13.5 -24.5q2 -17 -8.5 -26t-23.5 -11z" />
    <glyph glyph-name="comma" unicode="," horiz-adv-x="267" 
d="M136 50q4 -16 -5 -32.5t-20 -21.5q-17 6 -26.5 20.5t-9.5 33.5q0 31 23 50.5t52 19.5q32 0 49.5 -23t13.5 -54q-4 -29 -17.5 -52.5t-32.5 -40.5t-41 -27.5t-42 -13.5q-15 -2 -23 4.5t-9.5 16t4.5 18.5t19 12q15 3 30 11t27 20.5t18.5 28.5t3.5 34q-2 8 -9 6.5t-5 -10.5z
" />
    <glyph glyph-name="hyphen" unicode="-" horiz-adv-x="329" 
d="M271 126q-23 -3 -40.5 -2.5t-35 2t-35.5 2.5t-40 -2q-13 -2 -24.5 4.5t-13.5 24.5q-2 17 8.5 26t23.5 11q22 3 40 2t35.5 -2.5t35 -2t40.5 2.5q13 2 24.5 -4.5t13.5 -24.5q2 -17 -8.5 -26t-23.5 -11z" />
    <glyph glyph-name="period" unicode="." horiz-adv-x="267" 
d="M75 50q0 31 23 50.5t52 19.5q27 0 45.5 -17.5t18.5 -42.5q0 -14 -6 -27t-16.5 -22.5t-23.5 -15t-28 -5.5q-28 0 -46.5 17t-18.5 43z" />
    <glyph glyph-name="slash" unicode="/" horiz-adv-x="363" 
d="M128 -31q-13 -15 -26.5 -16t-22.5 6.5t-10.5 20.5t10.5 26q37 42 89.5 103t108.5 128t111.5 133t98.5 117q13 16 26.5 17.5t22.5 -6t10 -20.5t-10 -27q-45 -56 -100.5 -122t-111 -131t-107 -125t-89.5 -104z" />
    <glyph glyph-name="zero" unicode="0" horiz-adv-x="473" 
d="M464 404q0 34 -6.5 65.5t-26.5 57.5q-10 14 -7.5 26.5t12.5 19t23 4.5t24 -18q22 -31 31.5 -70t9.5 -82q0 -75 -24.5 -150.5t-66.5 -136t-98 -98.5t-119 -38q-64 0 -99.5 44t-35.5 113q0 54 14.5 110.5t40.5 109.5t62 100.5t79.5 83t93 56t102.5 20.5q17 0 29.5 -3
t25.5 -8q15 -6 20 -18.5t1.5 -24t-14.5 -18t-29 -0.5q-2 5 -5 9.5t-6 9.5q-9 14 -23.5 19.5t-28.5 3t-24 -13.5t-11 -29q-59 -18 -107.5 -63t-83.5 -102.5t-54.5 -119.5t-19.5 -113q0 -48 19 -76t63 -28q41 0 83.5 31t77 82t56.5 115t22 130z" />
    <glyph glyph-name="one" unicode="1" horiz-adv-x="366" 
d="M375 537q-2 -6 -9.5 -22t-17.5 -38q-18 -19 -42 -38t-51 -36.5t-55 -33.5t-55 -28q-15 -7 -26.5 -2t-16 15.5t-0.5 23t21 20.5q19 9 51.5 27.5t71.5 45.5t81.5 61.5t81.5 75.5q12 16 28.5 20.5t30 -1.5t18 -22t-7.5 -40q-21 -41 -45 -91t-48.5 -102.5l-49 -105
t-46.5 -100t-40 -86.5t-31 -64q-9 -18 -23.5 -23t-26.5 -0.5t-17.5 17.5t3.5 31q17 34 48 95.5t65.5 132t67.5 141t54 122.5q3 8 -4.5 10t-9.5 -5z" />
    <glyph glyph-name="two" unicode="2" horiz-adv-x="481" 
d="M75 55q10 0 33 -7t39 -17q-11 -5 -22.5 -6.5t-25.5 -1.5q-36 0 -54 16.5t-18.5 36t16.5 36t50 16.5q30 0 58.5 -14t56.5 -31.5t55.5 -31.5t53.5 -14q25 0 43.5 13.5t39.5 34.5q11 11 22 10t18.5 -8.5t8.5 -19.5t-8 -24q-26 -32 -60 -48.5t-63 -16.5q-42 0 -73.5 14.5
t-59 31.5t-53.5 31.5t-56 14.5q-9 0 -9 -7.5t8 -7.5zM554 440q-9 -69 -47 -125t-88.5 -99t-105 -73t-97.5 -48q-19 11 -37.5 21.5t-38.5 17.5q61 21 121 52.5t109 70.5t81.5 85.5t40.5 99.5q6 40 -7 68t-36 43t-52.5 16t-58 -12.5t-51.5 -42.5t-32 -74q-3 -16 -14 -23.5
t-22.5 -6t-19 11t-4.5 27.5q10 63 43 104.5t76 61t89 18t82 -23.5t56.5 -64.5t12.5 -104.5z" />
    <glyph glyph-name="three" unicode="3" horiz-adv-x="471" 
d="M467 211q0 -36 -14 -76t-43.5 -73.5t-75 -55.5t-109.5 -22q-44 0 -75.5 14t-51.5 36.5t-29.5 50t-9.5 55t9 51t25 37.5q14 12 27.5 11t21.5 -9.5t8 -21.5t-12 -25q-14 -14 -16.5 -37.5t8 -45.5t34 -38t62.5 -16q48 0 82 17t55.5 42t31.5 54.5t10 55.5q0 20 -5.5 39
t-17 33.5t-29 23.5t-40.5 9q-8 0 -8 -7.5t8 -7.5q18 0 35 -8.5t26 -24.5q-11 -2 -19.5 -2.5t-20.5 -0.5q-36 0 -53 15.5t-17 34.5q0 20 17 36.5t48 16.5q34 0 59.5 -13.5t43 -35.5t26.5 -51.5t9 -60.5zM231 481q4 47 30 80t62.5 51.5t77.5 20.5t76 -13.5t58 -50t23 -89.5
q0 -20 -5 -43.5t-16.5 -47.5t-30.5 -46t-46 -38q-7 14 -15.5 25.5t-19.5 21.5q38 23 54.5 55.5t16.5 67.5q0 36 -14.5 59t-36 33.5t-47.5 8.5t-49 -14t-39.5 -34.5t-20.5 -54.5q-2 -14 -11.5 -20.5t-20.5 -6t-19.5 9t-6.5 25.5z" />
    <glyph glyph-name="four" unicode="4" horiz-adv-x="489" 
d="M517 595q8 17 22 22t26 0.5t17.5 -16.5t-2.5 -30q-69 -142 -134 -281.5t-130 -281.5q-8 -17 -22 -21.5t-25.5 0t-17.5 17.5t3 31q68 141 133.5 280t129.5 280zM501 173q-26 -14 -52 -19.5t-51 -4.5l30 63q22 3 45 15q15 8 26.5 3.5t16.5 -15t2 -23t-17 -19.5zM454 563
q-56 -109 -106 -179t-94 -111q-7 2 -25.5 11.5t-31.5 14.5q47 39 97.5 110.5t101.5 174.5q10 19 23 24t23.5 0t14.5 -17.5t-3 -27.5zM127 301q23 0 47 -9t49 -21.5t51 -25t53 -19.5l-27 -57q-34 10 -60.5 24.5t-49 27t-43 20t-42.5 5.5q-9 -1 -8.5 -8.5t8.5 -6.5
q18 2 34.5 -3t25.5 -12q-14 -5 -26.5 -7t-29.5 -2q-28 0 -41.5 14.5t-12 32.5t19 32.5t52.5 14.5z" />
    <glyph glyph-name="five" unicode="5" horiz-adv-x="469" 
d="M365 524q5 -6 10.5 -9.5t11.5 -6.5q-8 -29 -22.5 -54t-27.5 -45q-29 10 -67 5q26 42 48 84.5t32 99.5q3 16 13.5 22.5t22 4.5t20.5 -11.5t8 -25.5q21 -17 40.5 -21.5t35 -1.5t27 11t16.5 16q9 13 21 15t21.5 -4t13 -17.5t-3.5 -24.5q-15 -27 -41 -41.5t-56 -17.5t-60 5.5
t-53 28.5q-5 5 -10 -0.5t0 -11.5zM467 211q0 -36 -14 -76t-43.5 -73.5t-75 -55.5t-109.5 -22q-44 0 -75.5 14t-51.5 36.5t-29.5 50t-9.5 55t9 51t25 37.5q14 12 27.5 11t21.5 -9.5t8 -21.5t-12 -25q-14 -14 -16.5 -37.5t8 -45.5t34 -38t62.5 -16q48 0 82 17t55.5 42
t31.5 54.5t10 55.5q0 31 -15 59t-39.5 45.5t-56 22.5t-63.5 -10q-8 -4 -5.5 -11t10.5 -4q15 6 25 8.5t25 1.5q-20 -21 -40.5 -28t-36.5 -4t-25 14.5t-6 28.5q4 23 32 42.5t75 19.5q45 0 79 -15.5t57 -41.5t34.5 -60t11.5 -72z" />
    <glyph glyph-name="six" unicode="6" horiz-adv-x="463" 
d="M476 565q-39 1 -74.5 -12.5t-68 -36.5t-60.5 -53.5t-50 -64.5q-35 -17 -53.5 -42.5t-16.5 -43.5q1 -19 12 -31q-10 -28 -15.5 -54t-6.5 -49q-1 -52 18 -82.5t49 -41.5t65 -4.5t66.5 28t53.5 56t25 79.5q3 39 -12.5 71t-43 49.5t-65 16t-79.5 -28.5q-8 -5 -2.5 -11.5
t11.5 -2.5q13 11 22.5 15.5t24.5 7.5q-15 -25 -33 -37t-34 -13.5t-28 7.5t-13 26q-1 12 8 27.5t27 29t44.5 23t61.5 8.5q45 -1 78.5 -17t56 -42.5t32 -61t6.5 -72.5q-6 -65 -38 -113t-77.5 -75t-96 -33t-93 12.5t-70.5 62.5t-26 116q1 48 16.5 100t43 102.5t64.5 96.5
t81.5 80t94.5 53.5t103 18.5q32 -1 55 -11q18 -8 22.5 -21t-1 -24.5t-18.5 -17t-30 2.5q-16 7 -36 7z" />
    <glyph glyph-name="seven" unicode="7" horiz-adv-x="404" 
d="M245 624q0 -18 15 -30t38.5 -19.5t51.5 -11t54 -5t46 -1.5h28q22 16 40 15t26.5 -12t5.5 -27.5t-22 -31.5q-65 -62 -118 -127.5t-96.5 -130t-80 -126.5t-67.5 -117q-9 -16 -23 -20t-25.5 1t-16.5 17.5t4 30.5q22 43 57.5 101.5t81 123t98 131t107.5 125.5q5 6 0 11.5
t-12 -2.5l-11 -11t-11 -12q-13 0 -34.5 1t-47 5t-51.5 11.5t-47 20.5t-34.5 32t-13.5 46q0 23 14 39t36 16q26 0 39.5 -21t8.5 -45q-9 1 -16.5 7.5t-8.5 16.5q-1 8 -8 8t-7 -9zM169 494q10 12 18 23.5t14 24.5q11 -11 25.5 -19.5t31.5 -15.5q-8 -15 -18 -28t-21 -26
q-13 -14 -26.5 -14.5t-22.5 7t-11 21t10 27.5z" />
    <glyph glyph-name="eight" unicode="8" horiz-adv-x="465" 
d="M58 138q0 64 34 114t89 84t123.5 50.5t137.5 13.5q17 -1 25.5 -11t8.5 -21.5t-8.5 -21t-25.5 -9.5q-28 0 -62.5 -4t-70.5 -13t-70 -23.5t-60.5 -37t-42.5 -53t-16 -70.5q0 -16 6.5 -32t19 -29t32.5 -21.5t47 -8.5q48 0 82 17t55.5 42t31.5 54.5t10 55.5q0 35 -17 58.5
t-43 40.5q23 5 42.5 6.5t37.5 1.5q18 -16 30 -44.5t12 -66.5q0 -36 -14 -76t-43.5 -73.5t-75 -55.5t-109.5 -22q-44 0 -75.5 14t-51.5 36.5t-29.5 50t-9.5 54.5zM306 466q0 -19 7 -33t18 -26q-36 -6 -69 -18q-19 30 -19 74q0 40 16 72t41.5 54t58 33.5t65.5 11.5
q44 0 73 -19t42 -47.5t9.5 -62t-25.5 -62.5q-12 -15 -25 -17t-22.5 5t-12 20t8.5 27q13 18 14.5 35.5t-6.5 31.5t-24.5 22.5t-37.5 8.5q-19 0 -39 -7t-36 -21t-26.5 -34.5t-10.5 -47.5z" />
    <glyph glyph-name="nine" unicode="9" horiz-adv-x="463" 
d="M140 48q44 -1 85.5 17t78.5 48.5t67.5 70t53 83t35 87t13.5 81.5q1 52 -18 82.5t-48.5 41.5t-65 4.5t-66.5 -28t-53.5 -56t-25.5 -79.5q-3 -39 12.5 -71t43 -49.5t65 -16t79.5 28.5q8 5 2.5 11.5t-11.5 2.5q-13 -11 -22.5 -15.5t-24.5 -7.5q22 38 50 47t44 -5
q-18 -50 -50 -97q-16 -8 -35 -12.5t-42 -3.5q-45 1 -78.5 17t-56 42.5t-32 61t-6.5 72.5q6 65 38 113t77.5 75t96 33t93 -12.5t70 -62.5t26.5 -116q-1 -48 -16.5 -100t-43 -102.5t-64.5 -96.5t-81.5 -80t-94.5 -53.5t-103 -18.5q-32 1 -55 11q-18 7 -22.5 20.5t1 25t18.5 17
t30 -2.5q16 -7 36 -7z" />
    <glyph glyph-name="colon" unicode=":" horiz-adv-x="267" 
d="M75 50q0 31 23 50.5t52 19.5q27 0 45.5 -17.5t18.5 -42.5q0 -14 -6 -27t-16.5 -22.5t-23.5 -15t-28 -5.5q-28 0 -46.5 17t-18.5 43zM171 260q0 31 23 50.5t52 19.5q27 0 45.5 -17.5t18.5 -42.5q0 -14 -6 -27t-16.5 -22.5t-23.5 -15t-28 -5.5q-28 0 -46.5 17t-18.5 43z
" />
    <glyph glyph-name="semicolon" unicode=";" horiz-adv-x="267" 
d="M171 260q0 31 23 50.5t52 19.5q27 0 45.5 -17.5t18.5 -42.5q0 -14 -6 -27t-16.5 -22.5t-23.5 -15t-28 -5.5q-28 0 -46.5 17t-18.5 43zM136 50q4 -16 -5 -32.5t-20 -21.5q-17 6 -26.5 20.5t-9.5 33.5q0 31 23 50.5t52 19.5q32 0 49.5 -23t13.5 -54q-4 -29 -17.5 -52.5
t-32.5 -40.5t-41 -27.5t-42 -13.5q-15 -2 -23 4.5t-9.5 16t4.5 18.5t19 12q15 3 30 11t27 20.5t18.5 28.5t3.5 34q-2 8 -9 6.5t-5 -10.5z" />
    <glyph glyph-name="less" unicode="&#x3c;" horiz-adv-x="480" 
d="M203 296q42 -59 76 -100t50 -58q12 -13 10.5 -26.5t-10.5 -21.5t-23.5 -8t-27.5 15q-8 8 -21 23.5t-28.5 35t-33.5 41.5t-37 45q-8 9 -12.5 21t-3.5 24t8.5 22.5t24.5 18.5q33 20 66.5 40.5t64.5 39.5t56.5 35t43.5 26q17 10 29.5 6.5t18 -13t2 -22t-17.5 -21.5
q-17 -10 -40 -24t-50.5 -31.5t-57.5 -36.5t-61 -39q-5 5 -8 10.5t-5 7.5q-5 6 -11.5 1.5t-1.5 -11.5z" />
    <glyph glyph-name="equal" unicode="=" horiz-adv-x="480" 
d="M504 341q-15 -2 -39.5 -2t-54.5 0.5t-61.5 1.5t-61.5 1.5t-54.5 0.5t-39.5 -2q-13 -2 -24.5 4.5t-13.5 24.5q-2 17 8.5 26t23.5 11q15 2 39.5 2t54.5 -0.5t61.5 -1.5t61.5 -1.5t54.5 -0.5t39.5 2q13 2 24.5 -4.5t13.5 -24.5q2 -17 -8.5 -26t-23.5 -11zM430 179
q-15 -2 -39.5 -2t-54.5 0.5t-61.5 1.5t-61.5 1.5t-54.5 0.5t-39.5 -2q-13 -2 -24.5 4.5t-13.5 24.5q-2 17 8.5 26t23.5 11q15 2 39.5 2t54.5 -0.5t61.5 -1.5t61.5 -1.5t54.5 -0.5t39.5 2q13 2 24.5 -4.5t13.5 -24.5q2 -17 -8.5 -26t-23.5 -11z" />
    <glyph glyph-name="greater" unicode="&#x3e;" horiz-adv-x="480" 
d="M366 300q-4 -2 -11 -6t-13 -8q-37 50 -65 81.5t-42 48.5q-12 13 -10.5 26.5t10.5 21.5t23 8t28 -15q8 -8 21 -23.5t28.5 -35t33.5 -42t37 -44.5q9 -6 13.5 -16.5t4 -22.5t-6.5 -23t-19 -19q-36 -22 -71.5 -44t-67 -41t-57.5 -35t-44 -26q-17 -10 -29.5 -7t-18 13t-2 22.5
t17.5 21.5q63 37 124 75.5t123 76.5q8 5 3.5 11t-10.5 2z" />
    <glyph glyph-name="question" unicode="?" horiz-adv-x="333" 
d="M75 50q0 31 23 50.5t52 19.5q27 0 45.5 -17.5t18.5 -42.5q0 -14 -6 -27t-16.5 -22.5t-23.5 -15t-28 -5.5q-28 0 -46.5 17t-18.5 43zM217 194q6 28 21.5 41.5t32.5 19.5q-4 -18 -10.5 -35t-16 -30.5t-23 -22.5t-31.5 -9q-13 0 -22.5 7t-15 18.5t-5 25.5t6.5 29
q15 34 39 53t52 31.5t57 22.5t53 24.5t41 38.5t21 65q2 23 -6 40.5t-23 29t-33.5 17.5t-37.5 6q-21 0 -42 -7.5t-37.5 -21.5t-26.5 -35t-10 -49q0 -15 -10.5 -23.5t-23 -9t-23 8t-10.5 27.5q0 43 17 76t44.5 55.5t62 34.5t69.5 12q30 0 60 -11.5t53.5 -33.5t36 -54.5
t6.5 -75.5q-7 -50 -28.5 -80t-50.5 -48.5t-62 -30t-62.5 -24t-51 -30.5t-27.5 -49q-1 -5 1 -7t5 -2.5t6 1t4 5.5z" />
    <glyph glyph-name="at" unicode="@" horiz-adv-x="638" 
d="M0 105q30 30 60 54q-1 -8 -1 -14.5v-14.5q0 -26 4 -45l-22 -21q-8 -8 -20 -8.5t-21 8.5t-8.5 21t8.5 20zM277 64q-20 0 -35.5 9t-25.5 24t-14 33.5t-1 37.5q2 2 5.5 3.5t6.5 3.5q15 8 29.5 14.5t28.5 11.5q-3 -11 -5 -23.5t-0.5 -23.5t6.5 -18.5t15 -7.5q31 0 61 26.5
t55.5 62.5t46 73t33.5 58q11 18 24 22.5t24 1.5q20 -5 24 -22t-4 -32q-19 -35 -36.5 -63.5t-31 -51t-22 -39t-8.5 -26.5q0 -12 10 -12q28 0 55 19.5t48 50t34 68.5t13 75t-10.5 64.5t-28.5 44.5t-42.5 25.5t-52.5 8.5q-51 0 -111.5 -26.5t-112 -73.5t-86 -111t-34.5 -139
q0 -40 15 -70t40.5 -50t59 -30t71.5 -10q40 0 83 9t84.5 26.5t80 42t69.5 55.5q8 8 20 8.5t21 -8.5t8.5 -21t-8.5 -20q-36 -36 -79.5 -64t-90 -47t-94.5 -29t-93 -10q-51 0 -96 14t-79 41.5t-53.5 67.5t-19.5 93q0 54 17.5 106t48 98t71 84.5t86 66.5t94 43.5t95.5 15.5
q39 0 73.5 -11.5t60 -36.5t40 -63t14.5 -90q0 -49 -17 -98.5t-47 -89.5t-71.5 -65.5t-90.5 -25.5q-28 0 -46.5 17t-16.5 52q1 9 -6 9t-9 -8q-2 -9 -1 -17.5t3 -14.5q-21 -17 -44 -27.5t-51 -10.5zM380 348q-9 -11 -24 -18.5t-32.5 -14t-36 -12.5t-34.5 -12q32 45 75 75.5
t85 30.5q17 0 28.5 -10t11.5 -31q0 -31 -15 -52.5t-40 -36.5t-57 -26t-65.5 -23t-66.5 -26.5t-59 -36.5q3 40 18 78q28 20 63.5 33.5t68 25t58 22t34.5 25.5q5 7 -1 11t-11 -2z" />
    <glyph glyph-name="A" unicode="A" horiz-adv-x="653" 
d="M139 156q0 -57 25 -87.5t66.5 -35t94 16.5t107.5 65q-1 -9 -1.5 -17.5t-0.5 -16.5q0 -11 1 -21.5t4 -23.5q-66 -45 -131.5 -62.5t-117.5 -4.5t-84 57.5t-32 123.5q0 68 24 141t65.5 142.5t95.5 131t114.5 108t123 73.5t119.5 27q71 0 102 -34t31 -82q0 -47 -24 -98
t-67 -87q-15 -12 -29 -10.5t-22 10.5t-7.5 23t15.5 27q13 12 26 27t22.5 31.5t15.5 34t6 32.5q0 25 -17 41.5t-59 16.5q-43 0 -94.5 -23t-103 -62.5t-100 -93t-86 -114.5t-60 -126.5t-22.5 -129.5zM446 81q0 35 10 74.5t27 79t39 75t45.5 63t46.5 44t42 16.5q36 0 36 -45
q0 -29 -15.5 -65t-39 -73.5t-51.5 -72.5t-52 -61q3 27 16 60.5t30.5 66t38 60t38.5 44.5q8 7 3 13t-13 0q-21 -18 -44.5 -50t-43.5 -70t-33 -79t-13 -77q0 -33 15 -41t36.5 -0.5t45.5 25.5t43 37q8 8 20 8.5t21 -8.5t8.5 -21t-8.5 -20q-42 -42 -86 -63.5t-80 -21t-59 25.5
t-23 76z" />
    <glyph glyph-name="B" unicode="B" horiz-adv-x="705" 
d="M296 695q-2 20 8.5 31.5t24.5 13.5t27 -6t16 -28q5 -28 5 -55.5t-3 -59.5q-47 -47 -89 -101q11 54 13.5 105.5t-2.5 99.5zM427 -13q32 32 73.5 45t83.5 24q-14 -25 -35.5 -45.5t-45.5 -35.5t-48.5 -23.5t-45.5 -8.5q-35 0 -51 21.5t-7 49.5q7 23 29.5 41t60.5 34t94 31.5
t131 33.5q16 4 26.5 -3.5t13 -18.5t-3.5 -22.5t-22 -15.5q-57 -14 -99.5 -24t-73.5 -20.5t-53 -22.5t-38 -30q-6 -7 -1 -12t12 2zM448 305q34 -9 49 -41q-44 -1 -67.5 11t-31.5 28t-2 32.5t22 27t41 10t55 -18.5q46 -29 67 -84.5t19 -116.5q-36 -9 -66 -18q3 30 -2 61
t-15.5 57t-27.5 44t-38 23q-8 2 -9.5 -5.5t6.5 -9.5zM150 41q16 50 40 103t50.5 101.5t53.5 91t50 71.5q-12 -52 -27.5 -104t-33.5 -99.5t-38 -88.5t-42 -71t-44.5 -46.5t-45.5 -14.5t-33 16t-10 37q0 21 13.5 62t38 94t59 114t77 121.5t92.5 116t104 98.5t112 68.5
t118 25.5q66 0 104 -28.5t50.5 -73t2 -98t-43 -104.5t-84.5 -93t-121 -62q-11 27 -29 51q52 15 93.5 46t68.5 69t39.5 78t8 73t-27 54t-65.5 21q-57 0 -115.5 -31.5t-113.5 -82.5t-105 -117t-91.5 -135.5t-72.5 -136.5t-48 -121q-3 -9 5 -11t11 6z" />
    <glyph glyph-name="C" unicode="C" horiz-adv-x="539" 
d="M575 773q71 0 102 -34t31 -82q0 -47 -24 -98t-67 -87q-15 -12 -29 -10.5t-22 10.5t-7.5 23t15.5 27q13 12 26 27t22.5 31.5t15.5 34t6 32.5q0 25 -17 41.5t-59 16.5q-43 0 -91.5 -21t-96.5 -58t-91.5 -86.5t-76.5 -106t-53 -117.5t-20 -120q0 -52 13.5 -88.5t37 -60
t54 -34t65.5 -10.5q30 0 61.5 7.5t61.5 21t57.5 32.5t49.5 41q8 8 20 8.5t21 -8.5t8.5 -21t-8.5 -20q-60 -60 -130.5 -92.5t-149.5 -32.5q-46 0 -88 14.5t-73.5 45t-50 78t-18.5 113.5q0 65 21.5 134t58.5 133.5t86.5 122t105.5 100.5t116 68t117 25z" />
    <glyph glyph-name="D" unicode="D" horiz-adv-x="740" 
d="M403 689q-58 0 -100 -27t-63.5 -68t-20 -90.5t31.5 -95.5q13 -20 10 -35t-14.5 -22t-27 -4.5t-26.5 19.5q-26 38 -36 82t-5 87t23.5 83t50 70.5t75 49t97.5 18.5q101 0 174 -40t119 -104.5t64.5 -144t10.5 -158.5t-42 -149.5t-94.5 -115.5t-146.5 -56t-197 27
q16 10 31.5 21t29.5 25q85 -24 150 -10t109 54t68 98.5t27.5 123.5t-13.5 129.5t-54.5 116.5t-95 84t-135.5 32zM149 -8q-27 0 -45 10t-26 25t-7.5 33t10 33t26.5 25t42 10q31 0 52 -5.5t45 -13.5q-15 -14 -42.5 -26t-53.5 -12q-8 0 -8 -8t8 -8q45 0 86.5 28t81 72.5
t77.5 100.5t75.5 112.5t75 107.5t76.5 87q11 -16 20 -32.5t17 -34.5q-38 -29 -72.5 -78t-70 -105t-73 -113t-81.5 -103.5t-96.5 -75.5t-116.5 -29zM717 637q16 9 29.5 2.5t19.5 -19.5t4 -27.5t-16 -21.5q-3 -2 -8 -4.5t-9 -5.5q-16 33 -39 64z" />
    <glyph glyph-name="E" unicode="E" horiz-adv-x="540" 
d="M574 710q-45 0 -83 -22t-62.5 -55t-33.5 -73t4 -76q-18 -1 -34.5 -3.5t-32.5 -7.5q-12 47 0 99.5t44.5 97t84.5 73.5t121 29q53 0 83.5 -29t38 -70t-7.5 -84.5t-53 -72.5q-14 -11 -27 -8.5t-20 11.5t-6 22t14 24q18 15 28.5 39.5t9 48t-17.5 40.5t-50 17zM442 357
q-37 11 -64 35q23 5 52.5 5.5t52.5 -5.5q8 -2 10.5 5t-6.5 10q-11 4 -25 5.5t-28 1.5q-79 0 -139.5 -30.5t-99.5 -76.5t-54 -99t-2 -99t54.5 -76.5t116.5 -30.5q60 0 121.5 28t108.5 75q8 8 20 8.5t21 -8.5t8.5 -21t-8.5 -20q-55 -55 -124 -90.5t-156 -35.5
q-91 0 -145.5 39.5t-74 99t-5 128.5t61 128.5t123.5 99t184 39.5q37 0 60 -11.5t33.5 -27.5t9 -34t-14 -31t-36 -17.5t-55.5 6.5z" />
    <glyph glyph-name="F" unicode="F" horiz-adv-x="707" 
d="M220 -61q-53 0 -87.5 23t-50 60t-11.5 82t27.5 89.5t67.5 82.5t109 60.5t150.5 24.5t193.5 -26q-20 -23 -36 -55q-112 27 -194 17t-136 -40.5t-81 -74t-29.5 -83.5t18 -68t61.5 -28q47 0 85.5 22.5t71 60.5t59.5 88.5t52 107.5q18 -2 36.5 -5t37.5 -8q-28 -65 -60 -124.5
t-73 -105t-93 -73t-118 -27.5zM457 733q32 -2 61.5 -7t57.5 -12t53.5 -13.5t49.5 -9.5q-23 -26 -42 -57q-48 8 -96 21t-91 13q-48 0 -88 -15t-66 -42.5t-34.5 -67.5t6.5 -90q6 -20 -1.5 -33t-20 -17.5t-26 1.5t-19.5 25q-20 61 -7.5 117.5t48.5 99t91.5 66.5t123.5 21z
M851 699q-50 -9 -82 -34.5t-57 -68t-50 -102.5t-61 -138q-20 5 -38 8.5t-35 5.5q20 41 39 86.5t39.5 89t44 82.5t52 68.5t64.5 47t81 17.5q34 0 51 -14t17 -35q0 -15 -10 -32t-31 -30.5t-53.5 -22.5t-77.5 -9q22 31 51 46.5t58 20.5q8 1 7 8t-9 6zM716 369q26 0 38.5 -13.5
t12.5 -33.5q0 -13 -5 -25.5t-16.5 -22.5t-29 -16.5t-41.5 -6.5q8 14 20 26.5t25 19.5q7 4 4 9.5t-10 2.5q-20 -9 -34 -25t-24 -36t-15.5 -43t-7.5 -46q-2 -20 -13.5 -29t-24.5 -8t-22.5 11.5t-7.5 28.5q3 36 15 73t31.5 67t46 48.5t58.5 18.5z" />
    <glyph glyph-name="G" unicode="G" horiz-adv-x="602" 
d="M643 64q-25 -25 -61.5 -53.5t-68.5 -50.5q13 25 23.5 51t23.5 53q12 11 23 22l19 19t20 8.5t21 -8.5t8.5 -21t-8.5 -20zM566 705q-39 0 -85.5 -19t-93 -53t-90.5 -80t-78.5 -99.5t-56 -112.5t-22.5 -118q-1 -47 10 -77.5t31.5 -48.5t47.5 -25.5t57 -7.5q33 0 68.5 12
t68.5 36t62.5 59t50.5 82q9 20 22 24.5t24 2.5q20 -4 25 -21t-2 -32q-19 -44 -31.5 -76t-21 -55.5t-15 -41.5t-13.5 -34q-31 -74 -62 -118t-60 -68t-53.5 -31.5t-41.5 -7.5q-29 0 -45.5 15t-16.5 42q0 28 20.5 46.5t50 33.5t62.5 30t58 38q-23 -48 -56.5 -84.5t-75.5 -50.5
q-10 -4 -7.5 -12t11.5 -5q41 14 71 44t52 68t37.5 80t27.5 80q2 8 -5 10t-10 -6q-3 -11 -7 -22q-3 -9 -6.5 -18.5t-5.5 -15.5q-41 -34 -90 -52.5t-93 -18.5t-82 12t-66.5 38.5t-44.5 68.5t-15 101q1 65 24 132t61 128.5t88 115.5t105.5 94t113 63t110.5 23q71 0 102 -34
t31 -82q0 -47 -24 -98t-67 -87q-15 -12 -29 -10.5t-22 10.5t-7.5 23t15.5 27q13 12 26 27t22.5 31.5t15.5 34t6 32.5q0 25 -17 41.5t-59 16.5z" />
    <glyph glyph-name="H" unicode="H" horiz-adv-x="757" 
d="M855 541q6 8 0.5 13.5t-12.5 -3.5q-54 -71 -91.5 -137t-61 -124t-34 -104.5t-10.5 -76.5q0 -33 11.5 -43.5t28.5 -7t36 17t35 29.5q8 8 20 8.5t21 -8.5t8.5 -21t-8.5 -20q-22 -22 -40.5 -35.5t-35 -21t-32.5 -10t-33 -2.5q-38 0 -59 27t-21 70q0 40 15 96t39.5 116
t55.5 119.5t64 106.5t65 76t57 29q18 0 29.5 -11.5t11.5 -33.5q0 -30 -17.5 -63t-43.5 -63.5t-55.5 -55.5t-52.5 -39q13 26 26 47.5t26 42t27 40.5t31 42zM198 279q62 34 122.5 51t118.5 26.5t113.5 17t106.5 23.5l-33 -70q-52 -11 -103.5 -18.5t-103 -18t-102.5 -28
t-101 -49.5q-38 -24 -55.5 -55.5t-17 -60t17.5 -48t48 -19.5q69 0 125.5 66t106.5 184q19 4 37 6.5t37 5.5q-29 -73 -62 -133.5t-71 -104t-83 -67.5t-97 -24q-61 0 -95 35t-37 85t28 104t100 92zM586 582q-5 -48 -15.5 -97t-24.5 -97q-17 -2 -35 -4.5t-35 -5.5
q15 48 26.5 101t17.5 108q5 46 -5 74t-28.5 40.5t-42.5 10.5t-47 -16.5t-43 -40t-29 -60.5q-4 -15 -16 -21.5t-23.5 -4.5t-19 13.5t-2.5 31.5q13 50 44 85.5t69 53.5t78 18t71.5 -20t49 -62t10.5 -107z" />
    <glyph glyph-name="I" unicode="I" horiz-adv-x="597" 
d="M707 685q0 -41 -7 -92.5t-22 -108.5t-37 -116t-52 -114q-16 7 -31.5 12.5t-30.5 10.5q26 46 46.5 96.5t35 102t23 101.5t10.5 96q1 15 -9.5 17t-22.5 -21q-15 -28 -25 -60.5t-16 -66.5t-8.5 -69t-2.5 -68q0 -19 -10 -29.5t-22 -10.5t-22 10t-10 32q0 80 12.5 147.5
t33.5 116t49 75.5t59 27q32 0 45.5 -23t13.5 -65zM473 194q16 -4 32.5 -8.5t33.5 -10.5q-29 -41 -63.5 -75.5t-74.5 -60t-85.5 -40t-96.5 -14.5q-40 0 -69 10.5t-48 28.5t-28 41.5t-9 49.5q0 34 17.5 65.5t51 56t82 39t109.5 14.5q36 0 69.5 -2.5t67 -9t68.5 -18t73 -29.5
q16 -8 20 -21t-0.5 -24t-17 -16t-28.5 3q-32 16 -65.5 26.5t-66.5 16.5t-63.5 8t-55.5 2q-43 0 -78.5 -8.5t-60.5 -22.5t-39 -34t-14 -42q0 -30 20.5 -49t66.5 -19q75 0 138 40.5t114 102.5z" />
    <glyph glyph-name="J" unicode="J" horiz-adv-x="654" 
d="M228 -71q55 0 111.5 33.5t109.5 95.5q32 -1 53.5 0t36.5 3q-70 -91 -150.5 -146.5t-166.5 -55.5q-78 0 -116.5 38t-36.5 92q2 43 24 73.5t55.5 50t73 28.5t76.5 9q43 0 79.5 -3.5t73 -6t76 -0.5t88.5 14q16 4 26.5 -3.5t13 -18.5t-3.5 -22.5t-22 -15.5q-56 -15 -99 -18.5
t-80.5 -2t-72.5 5.5t-74 4q-29 0 -58 -5.5t-52 -17t-37.5 -28.5t-15.5 -40q-2 -29 19 -46t69 -17zM757 671q0 -62 -10.5 -126.5t-29 -129t-45.5 -127t-60 -119.5q-26 -7 -48 -10t-42 -4q37 57 68 121.5t53.5 132t35.5 135t13 129.5q0 15 -10 17t-22 -21q-15 -27 -26 -64
t-17.5 -78t-10 -82.5t-3.5 -77.5q0 -18 -10 -27.5t-22 -10t-22 8.5t-10 27q-2 69 8.5 141.5t30.5 131.5t49 97t66 38q32 0 48 -24.5t16 -77.5z" />
    <glyph glyph-name="K" unicode="K" horiz-adv-x="787" 
d="M595 255q16 10 32 7t24.5 -15t5.5 -31t-25 -42q-25 -25 -36.5 -53t-9.5 -51.5t16 -38t39.5 -14t62 20.5t83.5 67q8 8 20 8.5t21 -8.5t8.5 -21t-8.5 -20q-58 -58 -106 -83t-92 -25q-46 0 -73 24.5t-34.5 60.5t6 77t48.5 74q12 11 9 18t-24 -9q-17 -12 -30.5 -10t-20.5 12
t-4.5 23.5t17.5 23.5q60 40 107.5 92t87.5 107t73 108t63 95t59.5 67.5t61.5 25.5q22 0 36.5 -15t12.5 -41q-3 -35 -29.5 -76t-64 -81t-79.5 -75t-75 -57q22 28 46.5 66t49 75t47.5 68t43 45q8 5 4 11.5t-13 0.5q-20 -14 -42 -42t-46 -64t-50 -76.5t-54 -79t-58.5 -72
t-62.5 -55.5q-30 8 -53 -9q-7 -5 -3 -11t10 -2zM522 311q-59 -165 -140.5 -257.5t-185.5 -92.5q-38 0 -65.5 15.5t-42.5 41t-17 58t9 67t36.5 67.5t66.5 59q59 38 122.5 60.5t128 39t130 32t129.5 39.5q-14 -20 -32 -42.5t-41 -42.5q-48 -17 -95 -27.5t-95 -23.5
t-98.5 -32.5t-105.5 -52.5q-41 -25 -61 -57.5t-22 -61.5t13 -49t45 -20q73 0 132 65t115 196q19 5 37 9.5t37 9.5zM325 595q-4 -15 -16 -21.5t-23.5 -4.5t-19 13.5t-2.5 31.5q13 50 44 85.5t69 53.5t78 18t71.5 -20t49 -62t10.5 -107q-5 -42 -13.5 -84.5t-19.5 -84.5
q-17 -5 -33.5 -8.5t-37.5 -9.5q13 45 23 93t15 99q5 46 -5 74t-29 41t-43.5 10.5t-48 -16.5t-42.5 -40t-27 -61z" />
    <glyph glyph-name="L" unicode="L" horiz-adv-x="559" 
d="M782 657q0 -47 -24 -98t-67 -87q-15 -12 -29 -10.5t-22 10.5t-7.5 23t15.5 27q13 12 26 27t22.5 31.5t15.5 34t6 32.5q0 12 -3.5 24t-12 21t-23 13t-37.5 0q-44 -7 -74 -45.5t-53.5 -95t-43.5 -124.5t-43.5 -135t-53.5 -126.5t-73 -98.5q-10 8 -25 19.5t-29 22.5
q41 33 69.5 92t51.5 128t44.5 141.5t49.5 133t67 103t97 51.5q31 5 59.5 0.5t50 -18.5t34 -38t12.5 -58zM402 -41q-50 0 -87 19.5t-67 43.5t-55.5 44t-52.5 21q-10 1 -11 -7t9 -9q18 -2 38.5 -14.5t36.5 -27.5q-13 -3 -26 -4t-28 -1q-45 0 -67 18.5t-22 41t20.5 41
t59.5 18.5q36 0 65 -19t58.5 -42.5t61 -42.5t72.5 -19q31 0 67.5 18.5t84.5 66.5q8 8 20 8.5t21 -8.5t8.5 -21t-8.5 -20q-59 -59 -108 -82t-90 -23z" />
    <glyph glyph-name="M" unicode="M" horiz-adv-x="816" 
d="M289 765q43 0 72.5 -16.5t46.5 -45t23 -67.5t2 -84q-38 -26 -75 -60q9 44 11.5 82.5t-5 67.5t-25.5 45.5t-48 16.5q-32 0 -65.5 -24t-51.5 -63q-8 -16 -21 -20.5t-24 0.5t-16 18t4 31q13 28 32 50t42 37.5t48 23.5t50 8zM429 21q37 84 88 166.5t111 150.5
q-16 -50 -38 -102.5t-47.5 -100.5t-52 -88t-50.5 -64q-17 -17 -36 -22t-33 1.5t-20 25.5t3 50q15 51 43 106.5t64.5 109t79.5 101.5t87 84.5t87 58t80 21.5q39 0 60 -22t21 -64q0 -35 -13.5 -68t-34.5 -64.5t-45.5 -61t-45.5 -58t-36.5 -55t-17.5 -50.5q-2 -17 8.5 -25
t24.5 -8q17 0 43 15.5t57 46.5q8 8 20 8.5t21 -8.5t8.5 -21t-8.5 -20q-44 -44 -80 -64t-74 -20q-17 0 -33.5 5.5t-29 16.5t-20 28.5t-7.5 41.5q0 32 14.5 64.5t35.5 64t46.5 62t46.5 58.5t35.5 53.5t14.5 46.5q0 32 -27 32q-33 0 -70 -23t-73.5 -60t-71 -83.5t-64 -94
t-52 -91.5t-34.5 -75q-3 -8 4 -10.5t11 5.5zM165 41q13 44 39 95t59 102t70.5 98.5t73.5 84.5q-17 -52 -40 -105.5t-48.5 -104t-53.5 -95t-55.5 -77.5t-52.5 -52.5t-46 -19.5q-18 0 -29.5 11t-11.5 33q0 30 23 84.5t61 118.5t88 130t104.5 119.5t109.5 87.5t104 34
q55 0 75.5 -30t17.5 -79q-18 -13 -36.5 -28t-35.5 -32q2 11 5 29t2 35t-8.5 29t-27.5 12q-35 0 -76.5 -26.5t-84 -68.5t-83 -95t-73.5 -106t-55.5 -100.5t-29.5 -79.5q-2 -8 5.5 -10t9.5 6z" />
    <glyph glyph-name="N" unicode="N" horiz-adv-x="600" 
d="M285 704q-32 0 -65.5 -24t-51.5 -63q-8 -16 -21 -20.5t-24 0.5t-16 18t4 31q13 28 32 50t42 37.5t48 23.5t50 8q46 0 76.5 -17.5t47 -47.5t21 -71t-0.5 -88q-19 -13 -38 -27t-37 -30q10 45 12.5 85t-4.5 70t-25.5 47.5t-49.5 17.5zM147 45q-2 -8 5.5 -10t9.5 6
q12 42 37 90.5t57 97t69 94t75 80.5q-29 -78 -65 -154.5t-74 -137.5t-77 -99t-73 -38q-18 0 -29.5 11t-11.5 33q0 27 21.5 80t59.5 116t89 129t109.5 120t122 88.5t126.5 34.5q27 0 45 -7.5t28.5 -20.5t15 -31.5t4.5 -39.5q0 -33 -16.5 -69t-41.5 -73t-54 -74t-54 -72
t-41.5 -66t-16.5 -57q0 -17 9.5 -25t23.5 -8q17 0 43 15.5t57 46.5q8 8 20 8.5t21 -8.5t8.5 -21t-8.5 -20q-44 -44 -80 -64t-74 -20q-17 0 -33.5 5.5t-29 16.5t-20 28.5t-7.5 41.5q0 34 17 71t42.5 74t55 73.5t55 70.5t42.5 65t17 57q0 19 -8 29t-28 10q-41 0 -86 -23.5
t-90.5 -62.5t-88.5 -89t-78.5 -103t-61.5 -105t-38 -94z" />
    <glyph glyph-name="O" unicode="O" horiz-adv-x="705" 
d="M312 -48q-46 0 -89.5 13.5t-77.5 44.5t-54.5 82t-20.5 125q0 65 19.5 131.5t54 128t81.5 115.5t102.5 94t117 63t125.5 23q56 0 109 -19q15 -6 20 -18.5t0.5 -24t-16.5 -18t-31 -0.5q-41 12 -81 12q-56 0 -109.5 -21.5t-101.5 -58t-88.5 -84.5t-70 -102t-46 -110
t-16.5 -108q0 -56 15.5 -95t40.5 -63.5t56.5 -36t64.5 -11.5q45 0 91 17.5t82 49.5q20 -6 41 -9t42 -4q-57 -54 -123 -85t-137 -31zM680 94q-48 -12 -97 -11t-93 14t-81 39t-60.5 64.5t-31 91t6.5 118.5q13 59 49 105.5t82 74t95.5 33.5t89.5 -16.5t63.5 -75.5t18.5 -142
q-2 -21 -8 -50t-16 -60t-24 -61t-31 -54q-13 -2 -25.5 -3t-23.5 -1h-14.5t-13.5 1q49 63 68.5 123.5t22.5 106.5q4 63 -11.5 100t-41.5 52.5t-58.5 11t-63 -24.5t-55.5 -53t-35 -74q-19 -76 0 -130t61 -85t99 -39.5t114 5.5q16 4 26.5 -3.5t13 -18.5t-3.5 -22.5t-22 -15.5z
" />
    <glyph glyph-name="P" unicode="P" horiz-adv-x="684" 
d="M303 688q-3 23 7.5 37.5t25 17t28 -7.5t16.5 -35q6 -45 0 -106q-23 -23 -45.5 -48.5t-42.5 -52.5q10 54 13.5 104t-2.5 91zM459 215q-46 0 -66.5 17.5t-20 39t20 39t53.5 17.5q29 0 62.5 -11.5t66.5 -27.5t63 -32.5t52 -25.5q16 -7 20.5 -19.5t0 -23.5t-17 -16.5
t-29.5 1.5q-32 13 -60.5 28.5t-55.5 29t-54 22t-55 8.5q-9 0 -9 -7.5t8 -7.5q23 0 49 -6t44 -17q-16 -4 -37.5 -6t-34.5 -2zM782 573q0 41 -20.5 69t-75.5 28q-58 0 -116.5 -31.5t-113.5 -83.5t-105.5 -119t-92 -137.5t-72.5 -139t-48 -124.5q-3 -10 5 -11.5t11 6.5
q12 37 31 83.5t43.5 96t54.5 99.5t64 95q-16 -70 -40.5 -146t-54.5 -139.5t-63.5 -104.5t-67.5 -41q-24 0 -37.5 15t-13.5 38q0 20 13 61t37.5 94.5t58.5 115.5t76.5 124t92.5 119t105.5 101t115 70t121.5 26q42 0 73 -12t51 -33t30 -49.5t10 -60.5q0 -47 -15.5 -92.5
t-42.5 -87t-64 -76.5t-80 -59q-30 18 -64 33q43 20 79 50.5t61.5 67t39.5 76.5t14 79z" />
    <glyph glyph-name="Q" unicode="Q" horiz-adv-x="632" 
d="M699 505q0 55 -15.5 94.5t-40.5 64t-56.5 36t-64.5 11.5q-73 0 -132 -33t-100.5 -82.5t-65 -107t-25 -107t18.5 -82.5t66 -33q41 0 83 27.5t67 70.5q9 16 22.5 19t23.5 -3t14 -19t-5 -28q-18 -32 -42 -57t-51.5 -42t-57 -26t-57.5 -9q-70 0 -106 42.5t-41.5 106.5
t18.5 138t74.5 138t126 106.5t173.5 42.5q46 0 89.5 -13.5t77.5 -44.5t54.5 -82t20.5 -125q0 -73 -29.5 -144t-82 -132.5t-123.5 -109t-155 -72.5q-17 11 -33.5 22.5t-31.5 24.5q65 14 133.5 52t124.5 92.5t92 122t36 141.5zM126 87q-8 0 -8 -7.5t8 -7.5q38 0 69 -15.5
t51 -30.5q-23 -1 -47 0.5t-46 3.5q-44 4 -64 25t-18 43t25.5 38.5t65.5 11.5q50 -6 88.5 -28.5t72 -48t66.5 -45.5t71 -20q16 0 33 3.5t37 14t45 30t57 51.5q8 8 20 8.5t21 -8.5t8.5 -21t-8.5 -20q-38 -38 -68.5 -61t-57 -36t-49.5 -17.5t-44 -4.5q-34 0 -62.5 10.5
t-53.5 26.5t-49 34t-49 34t-53 26.5t-61 10.5z" />
    <glyph glyph-name="R" unicode="R" horiz-adv-x="669" 
d="M433 293q8 -5 14.5 -15.5t1.5 -30.5q-29 6 -42 21q-22 23 -20.5 48t17.5 39.5t42.5 12.5t55.5 -32q27 -28 28 -61.5t-8.5 -69t-22 -71t-12.5 -65.5q0 -33 16 -43.5t42 -4t58.5 28.5t65.5 55q8 8 20 8.5t21 -8.5t8.5 -21t-8.5 -20q-58 -58 -108.5 -83t-89.5 -25
q-45 0 -71 28t-26 73q0 37 14 76t25 73.5t11.5 61t-26.5 38.5q-7 3 -10 -3t4 -10zM296 695q-2 20 8.5 31.5t24.5 13.5t27 -6t16 -28q5 -28 5 -55.5t-3 -59.5q-47 -47 -89 -101q11 54 13.5 105.5t-2.5 99.5zM680 670q-57 0 -115.5 -31.5t-113.5 -82.5t-105 -117t-91.5 -135.5
t-72.5 -136.5t-48 -121q-3 -9 5 -11t11 6q16 50 40 103t50.5 101.5t53.5 91t50 71.5q-12 -52 -27.5 -104t-33.5 -99.5t-38 -88.5t-42 -71t-44.5 -46.5t-45.5 -14.5t-33 16t-10 37q0 21 13.5 62t38 94t59 114t77 121.5t92.5 116t104 98.5t112 68.5t118 25.5q70 0 109 -32
t50 -81.5t-4.5 -108.5t-54.5 -113.5t-100 -96.5t-140 -56q5 32 -8 61q57 11 102.5 42t77 71t47 83.5t12.5 80t-26 60t-69 23.5z" />
    <glyph glyph-name="S" unicode="S" horiz-adv-x="418" 
d="M140 -13q32 32 73.5 45t83.5 24q-14 -25 -35.5 -45.5t-45.5 -35.5t-48.5 -23.5t-45.5 -8.5q-35 0 -51 21.5t-7 49.5q7 23 29.5 41t60.5 34t94 31.5t131 33.5q16 4 26.5 -3.5t13 -18.5t-3.5 -22.5t-22 -15.5q-57 -14 -99.5 -24t-73.5 -20.5t-53 -22.5t-38 -30
q-6 -7 -1 -12t12 2zM493 705q-36 0 -76.5 -16.5t-76 -44t-62 -65t-33.5 -79.5q-8 -47 1 -91t23.5 -86t29.5 -84t19 -84q-17 -5 -33.5 -9t-30.5 -9q-4 41 -19.5 85t-31.5 90t-26 93t-2 95q9 59 42 109t79 86.5t100 57t104 20.5q71 0 102 -34t31 -82q0 -47 -24 -98t-67 -87
q-15 -12 -29 -10.5t-22 10.5t-7.5 23t15.5 27q13 12 26 27t22.5 31.5t15.5 34t6 32.5q0 25 -17 41.5t-59 16.5z" />
    <glyph glyph-name="T" unicode="T" horiz-adv-x="578" 
d="M292 453q6 -20 -1.5 -33t-20 -17.5t-26 1.5t-19.5 25q-20 61 -7.5 117.5t48.5 99t91.5 66.5t123.5 21q32 -2 61.5 -7t57.5 -12t53.5 -13.5t49.5 -9.5q-23 -26 -42 -57q-48 8 -96 21t-91 13q-48 0 -87.5 -15t-65.5 -42.5t-35 -67.5t6 -90zM407 278q-16 2 -28.5 2.5
t-27.5 0.5q-63 0 -107.5 -18t-71.5 -45.5t-35 -59.5t2.5 -59.5t40 -45.5t78.5 -18q58 0 102 31t79.5 82t65 116.5t58 133.5t58.5 133.5t66 116.5t81 82t104 31q34 0 51 -14t17 -35q0 -15 -10 -32t-31 -30.5t-53.5 -22.5t-77.5 -9q22 31 49.5 48.5t56.5 17.5q10 0 9.5 7.5
t-8.5 7.5q-46 2 -81 -28.5t-64 -81.5t-55.5 -116.5t-55.5 -134t-62 -134.5t-76 -118t-98 -83.5t-128 -31.5q-70 0 -114 27.5t-61.5 69.5t-10 90t40.5 90t90.5 69.5t140.5 27.5q20 0 36.5 -0.5t36.5 -2.5q18 -1 26 -12t6.5 -23t-11.5 -21.5t-28 -7.5z" />
    <glyph glyph-name="U" unicode="U" horiz-adv-x="566" 
d="M195 33q41 0 82 22t81 57q-2 -18 -3 -36.5t3 -37.5q-43 -32 -87.5 -51t-91.5 -19q-46 0 -77.5 27.5t-31.5 85.5q0 44 23 83t57 77t74.5 77t74.5 82t57 92.5t23 108.5q0 57 -24 81t-56 22.5t-64 -25t-49 -62.5q-6 -14 -19 -18t-24 0t-16.5 16t2.5 31q17 40 47 67t65 39.5
t71.5 10.5t66 -20t48 -52.5t18.5 -85.5q0 -63 -22.5 -117t-57 -101.5t-74 -88t-74 -78t-57 -71.5t-22.5 -67q0 -22 13 -35.5t44 -13.5zM607 475q-17 -15 -36 -41.5t-38 -60t-36.5 -71.5t-30.5 -76.5t-21 -75t-8 -66.5q0 -25 5.5 -33t16.5 -8q17 0 43.5 12.5t63.5 49.5
q8 8 20 8.5t21 -8.5t8.5 -21t-8.5 -20q-48 -48 -88.5 -66t-71.5 -18q-35 0 -56 23.5t-21 68.5q0 32 8.5 71.5t23 82t33 86t39.5 83t42 72.5t40 56q21 25 40.5 33.5t34 3t21 -25t0.5 -50.5q-5 -29 -24.5 -74t-47 -94.5t-59.5 -97.5t-61 -82q6 39 22 86t38 92.5t47.5 85.5
t49.5 64q6 6 1.5 11.5t-11.5 -0.5z" />
    <glyph glyph-name="V" unicode="V" horiz-adv-x="539" 
d="M519 173q-37 18 -56 51.5t-24 73t2 80t21.5 74t35.5 54.5t43 21q17 0 27.5 -7.5t16 -20.5t7.5 -29t2 -33q0 -19 -4 -41.5t-11.5 -46.5t-17.5 -48t-23 -45q-15 9 -20.5 31t-3 49.5t11 57.5t21.5 54q4 8 -2.5 11.5t-10.5 -4.5q-14 -28 -24 -61.5t-11 -65t9 -58t37 -39.5
q16 -8 19.5 -20.5t-1.5 -23.5t-17 -16t-27 2zM195 33q32 0 66 15t67 40.5t63.5 58.5t56.5 70q17 -29 43 -47q-31 -44 -68 -81t-76 -64t-79.5 -42t-77.5 -15q-54 0 -87 28.5t-33 86.5q0 44 22 83t54.5 77t71 76.5t71 81.5t54.5 92t22 108q0 57 -24 81t-56 22.5t-64 -25
t-49 -62.5q-6 -14 -19 -18t-24 0t-16.5 16t2.5 31q17 40 47 67t65 39.5t71.5 10.5t66 -20t48 -52.5t18.5 -85.5q0 -63 -21.5 -117t-54.5 -100.5t-70.5 -87.5t-70.5 -77.5t-54.5 -70.5t-21.5 -67q0 -21 13.5 -36.5t43.5 -15.5z" />
    <glyph glyph-name="W" unicode="W" horiz-adv-x="733" 
d="M365 601q0 57 -24 81t-56 22.5t-64 -25t-49 -62.5q-6 -14 -19 -18t-24 0t-16.5 16t2.5 31q17 40 47 67t65 39.5t71.5 10.5t66 -20t48 -52.5t18.5 -85.5q0 -63 -21.5 -117t-54.5 -100.5t-70.5 -87.5t-70.5 -77.5t-54.5 -70.5t-21.5 -67q0 -21 13.5 -36.5t43.5 -15.5
q29 0 56.5 9t53.5 26q4 -33 18 -60q-32 -18 -65 -29t-68 -11q-54 0 -87 28.5t-33 86.5q0 44 22 83t54.5 77t71 76.5t71 81.5t54.5 92t22 108zM713 173q-37 17 -58.5 49.5t-30.5 70.5t-6 78t15 72.5t31.5 53.5t43.5 21q17 0 27.5 -7.5t16 -20.5t7.5 -29t2 -33
q0 -38 -8.5 -84.5t-19.5 -90.5q-17 12 -26.5 33.5t-12 47t2.5 53.5t17 52q4 8 -2.5 11.5t-10.5 -4.5q-14 -28 -20 -60t-1.5 -62t19 -55t40.5 -38q16 -8 19.5 -20.5t-1.5 -23.5t-17 -16t-27 2zM403 71q-7 14 -7.5 35t6.5 45q28 35 47.5 69.5t35.5 72.5q9 21 10.5 34.5
t-3 17.5t-15 -4.5t-25.5 -30.5q-32 -47 -51 -97.5t-21.5 -92t12.5 -68.5t53 -27q30 0 58 14.5t53.5 40t47.5 60t39 73.5q21 -30 50 -47q-20 -42 -46 -79.5t-57.5 -65t-68.5 -44t-77 -16.5q-48 0 -76 20.5t-39.5 54t-9 76t14.5 87t32.5 87t44.5 76t50 54t49 20.5
q29 0 40.5 -20t11.5 -50q0 -33 -12.5 -71t-34 -76.5t-50.5 -76.5t-62 -71z" />
    <glyph glyph-name="X" unicode="X" horiz-adv-x="686" 
d="M70 79q0 47 18.5 83t50.5 63.5t74 47.5t89 34t95 23t93 16q-9 -17 -16.5 -35t-14.5 -35q-48 -7 -104 -20.5t-103.5 -36t-79.5 -55t-32 -76.5q0 -29 18 -49.5t54 -20.5q37 0 68.5 16.5t59.5 45t53.5 68t50.5 85.5q-11 -35 -17.5 -70t-4.5 -77q-18 -27 -42 -51t-51.5 -42
t-57.5 -28.5t-61 -10.5q-35 0 -61 10t-43.5 27.5t-26.5 40t-9 47.5zM612 368q33 15 66.5 38.5t56.5 51.5q7 9 10 17t0.5 12.5t-11 3t-24.5 -11.5q-44 -28 -81.5 -68.5t-64.5 -88.5t-42.5 -102t-15.5 -108q0 -48 19 -64.5t46.5 -12t58.5 24.5t56 45q8 8 20 8.5t21 -8.5
t8.5 -21t-8.5 -20q-40 -40 -90.5 -64t-94.5 -24t-74.5 29t-30.5 95q0 44 11 91.5t31 95t46.5 91.5t58 80.5t65.5 63t69 38.5q33 11 56.5 7t35.5 -18.5t13 -36.5t-9 -46q-12 -28 -37 -54.5t-58.5 -49t-72.5 -39.5t-79 -27q8 17 20.5 37.5t24.5 34.5zM325 595
q-4 -15 -16 -21.5t-23.5 -4.5t-19 13.5t-2.5 31.5q13 50 43.5 85.5t68 53.5t78 18t74 -20.5t55 -62.5t21.5 -108q0 -20 -2 -41.5t-5 -43.5q-28 -28 -52.5 -61.5t-45.5 -71.5q18 55 28.5 110t10.5 106q0 46 -13.5 75t-34.5 42.5t-46 12.5t-49 -14.5t-43 -38.5t-27 -60z" />
    <glyph glyph-name="Y" unicode="Y" horiz-adv-x="539" 
d="M580 64q-11 -11 -26.5 -24.5t-33 -27.5t-36 -27.5t-34.5 -24.5q13 25 23.5 51t23.5 53q12 11 23 22l19 19t20 8.5t21 -8.5t8.5 -21t-8.5 -20zM245 -152q37 13 65.5 39t49.5 59.5t36.5 71.5t27.5 74q13 39 22.5 85t18.5 93t20 92t28 83q16 37 37.5 51t39.5 9.5t28 -25
t5 -51.5q-7 -38 -31 -93t-62 -113q11 72 24.5 122t31.5 70q6 6 1 11.5t-12 -1.5q-20 -20 -31.5 -64.5t-21.5 -100.5t-23.5 -119t-37.5 -121q-31 -74 -62 -118t-60 -68t-53.5 -31.5t-41.5 -7.5q-29 0 -45.5 15t-16.5 42q0 28 21 46.5t51 33.5t63 30t58 38
q-23 -48 -58.5 -84.5t-74.5 -50.5q-11 -4 -8.5 -12t11.5 -5zM445 605q0 -63 -22.5 -117t-57 -100t-74 -86.5t-74 -76.5t-57 -70t-22.5 -67q0 -22 13 -35.5t44 -13.5q33 0 65.5 12.5t63 33.5t59 48t53.5 57q-8 -29 -15.5 -58.5t-13.5 -50.5q-105 -107 -228 -107
q-46 0 -77.5 27.5t-31.5 85.5q0 44 23 82.5t57 76t74.5 75.5t74.5 80.5t57 91.5t23 108q0 57 -24 81t-56 22.5t-64 -25t-49 -62.5q-6 -14 -19 -18t-24 0t-16.5 16t2.5 31q17 40 47 67t65 39.5t71.5 10.5t66 -20t48 -52.5t18.5 -85.5z" />
    <glyph glyph-name="Z" unicode="Z" horiz-adv-x="524" 
d="M130 -142q42 0 78 22.5t63 57.5t42.5 77.5t15.5 83.5q0 45 -19.5 76t-59.5 35q-10 1 -9.5 -6.5t8.5 -8.5q23 -2 36 -14t21 -32h-23q-50 0 -74 20.5t-24 44.5q0 21 18.5 38t55.5 17t63 -15t42 -39.5t23.5 -55.5t7.5 -62q0 -54 -22.5 -108.5t-60.5 -97.5t-88 -70t-105 -27
q-35 0 -54.5 19.5t-19.5 45.5t18.5 48t59.5 40q32 15 74.5 24.5t90.5 20.5q-10 -20 -23 -38.5t-34 -37.5q-33 -8 -62 -17t-43 -18q-13 -8 -11.5 -15.5t15.5 -7.5zM581 517q0 38 -11 73t-34 62t-60.5 43t-89.5 16q-46 0 -92 -18.5t-82.5 -50.5t-59 -74t-22.5 -88
q0 -31 15 -46.5t36.5 -18t46 5.5t44.5 23q17 13 31 11t21 -12.5t5.5 -25t-15.5 -25.5q-36 -28 -79.5 -37.5t-81.5 0.5t-64 40.5t-26 82.5q0 60 29 114t76 94.5t106.5 64.5t121.5 24q69 0 118 -22t80 -57.5t45.5 -80.5t14.5 -91q0 -59 -18 -114.5t-51 -102.5t-79.5 -83.5
t-104.5 -56.5q-9 33 -25 57q49 17 87 48.5t64.5 71.5t40 84.5t13.5 88.5zM524 105q8 8 20 8.5t21 -8.5t8.5 -21t-8.5 -20q-42 -42 -91.5 -68.5t-100.5 -43.5q19 34 28 75q34 14 65 32.5t58 45.5z" />
    <glyph glyph-name="bracketleft" unicode="[" horiz-adv-x="320" 
d="M114 -19q23 2 48 0.5t54 2.5q13 2 24.5 -4.5t13.5 -24.5q2 -17 -8.5 -26t-23.5 -11q-23 -3 -37.5 -2.5t-28 2t-29.5 2.5t-41 -2q-11 -1 -18 5t-10 14.5t-1.5 18t8.5 17.5q18 35 43 89t54.5 118t61.5 133t62 134t56 122t45 97q17 40 67 28q21 -1 44.5 -1t55.5 5
q13 2 24.5 -4.5t13.5 -24.5q2 -17 -8.5 -26t-23.5 -11q-20 -3 -33 -3t-24.5 0.5t-22.5 1t-26 -0.5l7 17q3 8 -3.5 11t-11.5 -6q-21 -44 -46 -98t-52 -113t-55.5 -120.5t-55 -119.5t-51 -110.5t-43.5 -93.5h-15t-16 -2q-7 -1 -6.5 -8t8.5 -6z" />
    <glyph glyph-name="backslash" unicode="\" horiz-adv-x="363" 
d="M217 -14q-3 -18 -14.5 -26t-23 -6.5t-19 11.5t-4.5 27q11 55 21.5 111t21.5 115t22.5 122t25.5 133q3 18 14 25t22.5 4.5t19 -12.5t4.5 -26q-15 -71 -26.5 -132t-22 -118t-20.5 -112.5t-21 -115.5z" />
    <glyph glyph-name="bracketright" unicode="]" horiz-adv-x="320" 
d="M364 631q-16 0 -31 -0.5t-32 -2.5q-13 -2 -24.5 4.5t-13.5 24.5q-2 17 8.5 26t23.5 11q22 3 36.5 2t28 -2.5t29.5 -2t42 2.5q11 1 18 -5t10 -14.5t1.5 -18.5t-8.5 -17q-17 -34 -41 -85t-52 -111.5t-58 -126.5t-59.5 -129.5t-55.5 -121t-46 -99.5q-2 -25 -22.5 -39
t-54.5 -9q-21 3 -44.5 2t-55.5 -6q-13 -2 -24.5 4.5t-13.5 24.5q-2 17 8.5 26t23.5 11q35 5 74.5 4.5t77.5 -5.5q9 -1 10.5 7t-6.5 9q-6 1 -13 1.5t-12 1.5q21 45 46.5 98.5t52.5 111t55.5 117.5t55 118t51 111.5t44.5 98.5q3 8 -3.5 11.5t-11.5 -5.5z" />
    <glyph glyph-name="asciicircum" unicode="^" horiz-adv-x="480" 
d="M323 373q2 -4 4.5 -9.5t4.5 -10.5q-30 -26 -58.5 -51t-54 -47.5t-46 -40.5t-33.5 -30q-14 -14 -27.5 -13t-21.5 10t-8 22.5t13 24.5q16 13 41 35t55 48t63.5 55.5t65.5 57.5q8 13 18.5 18.5t21 5.5t19 -5.5t12.5 -13.5q25 -60 46.5 -111t43.5 -102q7 -15 1 -27.5
t-17 -17.5t-24 -1.5t-20 18.5q-5 11 -14 32t-20.5 47t-24 55.5t-25.5 58.5q-3 7 -10.5 3.5t-4.5 -11.5z" />
    <glyph glyph-name="underscore" unicode="_" horiz-adv-x="480" 
d="M379 -66q-15 -2 -41 -2t-58 0.5t-66 1.5t-66 1.5t-58 0.5t-41 -2q-13 -2 -24.5 4.5t-13.5 24.5q-2 17 8.5 26t23.5 11q15 2 41 2t58 -0.5t66 -1.5t66 -1.5t58 -0.5t41 2q13 2 24.5 -4.5t13.5 -24.5q2 -17 -8.5 -26t-23.5 -11z" />
    <glyph glyph-name="grave" unicode="`" horiz-adv-x="247" 
d="M167 445q-10 15 -6 28t14 19.5t23.5 3.5t22.5 -20l43 -77q7 -14 3.5 -25t-12.5 -15.5t-20.5 -2t-19.5 15.5z" />
    <glyph glyph-name="a" unicode="a" horiz-adv-x="390" 
d="M41 64q-8 -8 -20 -8.5t-21 8.5t-8.5 21t8.5 20q20 20 36.5 34.5t37.5 31.5q-11 -22 -17 -45.5t-5 -50.5zM249 275q-14 -8 -30 -20.5t-32 -30.5t-29.5 -42t-22.5 -54q-2 -8 -4.5 -19.5t-2 -22.5t6 -19t18.5 -8q31 0 61 26.5t55.5 62.5t46 73t33.5 58q11 18 24 22.5t24 1.5
q20 -5 24 -22t-4 -32q-19 -35 -36.5 -63.5t-31 -51t-22 -39t-8.5 -26.5q0 -11 10 -11q4 0 8 1.5t10.5 6.5t16.5 14t26 25q8 8 20 8.5t21 -8.5t8.5 -21t-8.5 -20q-37 -37 -63 -53t-59 -16q-28 0 -44 17t-14 52q1 9 -6 9.5t-9 -8.5t-1 -17.5t3 -14.5q-21 -17 -44 -27.5
t-51 -10.5q-30 0 -53 21.5t-23 66.5q0 41 20 84.5t51 79t68.5 58.5t72.5 23q17 0 27.5 -10t7.5 -31q-3 -22 -18 -38t-37 -31t-48.5 -32t-53.5 -39q16 39 43.5 68.5t54.5 43.5q10 5 6 12.5t-12 3.5z" />
    <glyph glyph-name="b" unicode="b" horiz-adv-x="371" 
d="M317 95q-18 0 -18 32q0 29 12 57.5t29 52.5q5 8 -1 12.5t-12 -3.5q-9 -12 -17 -27.5t-14 -32t-9.5 -32.5t-3.5 -27q0 -23 9.5 -35t24.5 -12q13 0 26.5 5.5t27.5 19.5q8 8 20 8.5t21 -8.5t8.5 -21t-8.5 -20q-19 -19 -46.5 -31t-55.5 -12q-45 0 -66.5 27t-21.5 72
q0 38 12.5 75.5t32 67.5t43 48.5t46.5 18.5q19 0 30.5 -13.5t11.5 -37.5q0 -45 -23 -93.5t-58 -90.5zM41 64q-8 -8 -20 -8.5t-21 8.5t-8.5 21t8.5 20q13 13 32.5 35t39.5 48q-6 -28 -9.5 -54t-1.5 -50zM76 89q-2 40 9 93t30.5 109t45 110.5t53 97t54.5 68.5t49 26
q23 0 32.5 -14.5t7.5 -43.5q-1 -27 -19.5 -69.5t-46 -91.5t-61.5 -100t-67 -95q24 89 63.5 169.5t86.5 156.5q5 8 -1 12.5t-13 -5.5q-21 -31 -49 -81t-52.5 -107t-42 -114.5t-17.5 -102.5q0 -32 9 -40t20 -8q18 0 44 22q8 -32 29 -52q-28 -21 -48 -27.5t-34 -6.5
q-39 0 -59.5 24.5t-22.5 69.5z" />
    <glyph glyph-name="c" unicode="c" 
d="M178 48q32 0 64.5 12.5t64.5 44.5q8 8 20 8.5t21 -8.5t8.5 -21t-8.5 -20q-39 -39 -83 -56.5t-87 -17.5q-54 0 -82.5 24t-28.5 69q0 13 1.5 22.5t3.5 18.5q2 10 -5 11.5t-10 -7.5q-3 -11 -4.5 -25.5t-1.5 -28.5l-10 -10q-8 -8 -20 -8.5t-21 8.5t-8.5 21t8.5 20
q18 18 38.5 40t42 45.5t43 45.5t41.5 39q27 23 56.5 38t57.5 15q29 0 43.5 -16t11.5 -47q-2 -18 -8.5 -33t-20.5 -32q-12 -13 -24 -14t-20.5 5.5t-10 18.5t9.5 26q12 15 12.5 22.5t-6.5 7.5q-22 0 -45.5 -16t-43.5 -40.5t-33.5 -52.5t-16 -52.5t8.5 -40.5t42 -16z" />
    <glyph glyph-name="d" unicode="d" horiz-adv-x="458" 
d="M296 89q-2 40 9 93t30.5 109t45 110.5t53 97t54.5 68.5t49 26q23 0 32.5 -14.5t7.5 -43.5q-1 -27 -19.5 -69.5t-46 -91.5t-61.5 -100t-67 -95q24 89 63.5 169.5t86.5 156.5q5 8 -1 12.5t-12 -4.5q-21 -31 -49 -81.5t-53 -107.5t-42.5 -114.5t-17.5 -102.5q0 -32 9 -40
t20 -8q25 0 71 46q8 8 20 8.5t21 -8.5t8.5 -21t-8.5 -20q-22 -22 -40 -35.5t-33 -21t-27 -10t-21 -2.5q-39 0 -59.5 24.5t-22.5 69.5zM41 64q-8 -8 -20 -8.5t-21 8.5t-8.5 21t8.5 20q20 20 36.5 34.5t37.5 31.5q-11 -22 -16.5 -45.5t-5.5 -50.5zM255 259q10 5 6 12.5
t-12 3.5q-14 -8 -30 -20.5t-32 -30.5t-29.5 -42t-22.5 -54q-2 -8 -4.5 -19.5t-2 -22.5t6 -19t18.5 -8q18 0 35.5 10t35 26.5t33.5 37t31 40.5q-8 -44 -7 -97q-29 -33 -63.5 -57t-78.5 -24q-27 0 -49.5 21.5t-22.5 66.5q0 41 20 84.5t51 79t68.5 58.5t72.5 23q17 0 27.5 -10
t7.5 -31q-3 -22 -18 -38t-37 -31t-48.5 -32t-53.5 -39q16 39 43.5 68.5t54.5 43.5z" />
    <glyph glyph-name="e" unicode="e" 
d="M178 48q32 0 64.5 12.5t64.5 44.5q8 8 20 8.5t21 -8.5t8.5 -21t-8.5 -20q-39 -39 -83 -56.5t-87 -17.5q-54 0 -82.5 24t-28.5 69q0 13 1.5 22.5t3.5 18.5q2 10 -5 11.5t-10 -7.5q-3 -11 -4.5 -25.5t-1.5 -28.5l-10 -10q-8 -8 -20 -8.5t-21 8.5t-8.5 21t8.5 20
q18 18 38.5 40t42 45.5t43 45.5t41.5 39q27 23 56.5 38t57.5 15q29 0 43.5 -16t11.5 -47q-2 -26 -17 -51t-40 -45t-58.5 -32.5t-72.5 -13.5q4 14 11 28t15 27q20 2 37 10.5t29.5 19.5t21 22t11.5 19q7 19 -15 16q-21 -4 -43.5 -21.5t-41 -41.5t-31 -51t-14 -50t10 -38
t41.5 -15z" />
    <glyph glyph-name="f" unicode="f" horiz-adv-x="255" 
d="M0 105q19 19 49 50.5t65 70.5q-14 -35 -28 -69.5t-25 -72.5l-20 -20q-8 -8 -20 -8.5t-21 8.5t-8.5 21t8.5 20zM296 64q-21 -21 -46 -33t-47.5 -17t-41.5 -4t-28 6q5 15 9.5 30.5t10.5 29.5q20 -6 50 0.5t52 28.5q8 8 20 8.5t21 -8.5t8.5 -21t-8.5 -20zM75 -205
q-23 0 -37 17t-14 52q0 87 86 311q33 84 64 160t62 133.5t60.5 91t59.5 33.5q20 0 28.5 -14.5t8.5 -43.5q0 -30 -16.5 -68t-43 -79t-59 -83.5t-64.5 -81.5q11 29 27 66t34.5 75.5t37.5 75t37 65.5q5 8 -1 12.5t-12 -4.5q-19 -27 -43.5 -74.5t-51 -105.5t-52 -122t-46.5 -125
t-35.5 -113.5t-18.5 -88.5q-2 -17 5 -17.5t13 10.5q8 14 20 47t19 74q14 -3 31 -3t32 5q-8 -42 -20 -79.5t-28.5 -65.5t-37.5 -44t-45 -16zM183 157q12 -8 19.5 -26t8.5 -35q-27 -13 -53 -6q6 17 13 36.5t12 30.5z" />
    <glyph glyph-name="g" unicode="g" horiz-adv-x="385" 
d="M41 64q-8 -8 -20 -8.5t-21 8.5t-8.5 21t8.5 20q20 20 36.5 34.5t37.5 31.5q-22 -46 -22 -88v-8zM426 64q-11 -11 -26.5 -24.5t-33 -27.5t-36 -27.5t-34.5 -24.5q13 25 23.5 51t23.5 53q12 11 23 22l19 19t20 8.5t21 -8.5t8.5 -21t-8.5 -20zM249 275q-14 -8 -30 -20.5
t-32 -30.5t-29.5 -42t-22.5 -54q-2 -8 -4.5 -19.5t-2 -22.5t6 -19t18.5 -8q31 0 61 26.5t55.5 62.5t46 73t33.5 58q11 18 24 22.5t24 1.5q20 -5 24 -22t-4 -32q-29 -55 -56.5 -111t-53.5 -119q-31 -74 -62 -118t-60 -67.5t-53.5 -31t-41.5 -7.5q-29 0 -45.5 15t-16.5 42
q0 28 21 46.5t51 33.5t63 30t58 38q-23 -48 -58.5 -84.5t-76.5 -51.5q-9 -3 -6.5 -11t11.5 -5q21 7 44.5 23t46.5 42.5t44 65t37 90.5q2 8 -4.5 10.5t-10.5 -6.5q-5 -14 -8.5 -24t-9.5 -24q-39 -30 -87 -30q-30 0 -53 21.5t-23 66.5q0 41 20 84.5t51 79t68.5 58.5t72.5 23
q17 0 28.5 -10t11.5 -31q0 -26 -15.5 -43t-39 -31t-52 -29t-55.5 -37q16 39 43.5 68.5t54.5 43.5q10 5 6 12.5t-12 3.5z" />
    <glyph glyph-name="h" unicode="h" horiz-adv-x="372" 
d="M0 105q28 28 61 69.5t68 89.5l-22 -66t-15.5 -45.5t-11 -31.5t-8.5 -24q-7 -8 -14.5 -16t-16.5 -17q-8 -8 -20 -8.5t-21 8.5t-8.5 21t8.5 20zM221 66q0 19 8.5 40.5t20.5 41.5t25 38t22 31q11 16 5 22.5t-22 -8.5q-13 -13 -33 -36t-41.5 -51t-41.5 -58.5t-33 -59.5
q-6 -20 -21 -26t-27 -1q-14 5 -17 17.5t2 24.5q22 60 45 127.5t46 132t47 122t50 98.5q25 40 54 56t51.5 11.5t33 -26.5t-1.5 -59q-9 -27 -26.5 -53t-39.5 -52t-45.5 -52.5t-45.5 -53.5q13 33 27.5 64t28 59t26 51t22.5 39q5 8 -1 12.5t-13 -5.5q-42 -64 -70 -133t-50 -132
q-9 -8 -18.5 -20t-17.5 -24q-5 -7 1 -11.5t11 2.5q18 25 39 49.5t43 44t43.5 31t41.5 11.5q17 0 29.5 -9.5t12.5 -28.5q0 -29 -16 -60.5t-35.5 -61.5t-35.5 -55.5t-16 -42.5q0 -15 17 -15q10 0 28 13.5t39 34.5q8 8 20 8.5t21 -8.5t8.5 -21t-8.5 -20q-35 -35 -62.5 -52
t-65.5 -17q-28 0 -46 18t-18 53z" />
    <glyph glyph-name="i" unicode="i" horiz-adv-x="222" 
d="M151 302q10 20 22.5 24.5t23.5 2.5q20 -4 24 -23t-8 -46q-14 -31 -25.5 -60t-19.5 -54.5t-12.5 -45t-4.5 -31.5t10 -12q9 0 24.5 13.5t36.5 34.5q8 8 20 8.5t21 -8.5t8.5 -21t-8.5 -20q-35 -35 -61.5 -52t-55.5 -17t-46.5 18t-17.5 56q0 20 6.5 39t14.5 39q3 8 -3.5 11
t-11.5 -6q-11 -24 -19 -57q-2 -4 -11 -13.5t-17 -17.5t-20 -8.5t-21 8.5t-8.5 21t8.5 20q22 22 44 47t42.5 51t37 51t27.5 48zM177 401q2 17 15 29t32 12q17 0 29.5 -12t10.5 -29t-15 -29t-31 -12t-30.5 12t-10.5 29z" />
    <glyph glyph-name="j" unicode="j" horiz-adv-x="195" 
d="M236 64q-11 -11 -26.5 -24.5t-33 -27.5t-36 -27.5t-34.5 -24.5q13 25 23.5 51t23.5 53q12 11 23 22l19 19t20 8.5t21 -8.5t8.5 -21t-8.5 -20zM212 258q-5 -11 -11 -27t-16.5 -43t-26.5 -67.5t-41 -101.5q-30 -74 -61.5 -118t-60 -67.5t-53.5 -31t-42 -7.5q-29 0 -45.5 15
t-16.5 42q0 28 21 46.5t51 33.5t63 30t58 38q-23 -48 -58.5 -84.5t-74.5 -50.5q-11 -4 -8.5 -12t11.5 -5q33 11 70 44t68 95q17 35 29.5 71.5t34.5 88.5q3 8 -3.5 11t-10.5 -6q-2 -6 -10.5 -26.5t-16.5 -40.5l-21 -21q-8 -8 -20 -8.5t-21 8.5t-8.5 21t8.5 20q22 22 44 47
t42.5 51t37 51t27.5 48q10 20 22.5 24.5t23.5 2.5q20 -4 24 -23t-9 -48zM177 401q2 17 15 29t32 12q17 0 29.5 -12t10.5 -29t-15 -29t-31 -12t-30.5 12t-10.5 29z" />
    <glyph glyph-name="k" unicode="k" horiz-adv-x="372" 
d="M0 105q28 28 61 69.5t68 89.5l-22 -66t-15.5 -45.5t-11 -31.5t-8.5 -24q-7 -8 -14.5 -16t-16.5 -17q-8 -8 -20 -8.5t-21 8.5t-8.5 21t8.5 20zM340 505q5 8 -1 12.5t-13 -5.5q-40 -61 -67 -124.5t-48 -124.5q-13 -15 -24 -32.5t-17 -28.5q-4 -7 2 -10.5t11 3.5
q13 21 30 44.5t38 44t45 33.5t53 13t41 -19t10 -42q-2 -34 -24 -57.5t-47.5 -43.5t-46.5 -39.5t-21 -44.5q0 -16 9.5 -23t21.5 -7q18 0 36.5 13t43.5 38q8 8 20 8.5t21 -8.5t8.5 -21t-8.5 -20q-35 -35 -62.5 -52t-65.5 -17q-23 0 -39.5 7t-26.5 18.5t-14.5 26t-4.5 30.5
q0 33 17.5 60.5t40 48t43.5 34.5t29 22q12 12 6 18.5t-20 0.5q-17 -7 -42.5 -31.5t-51.5 -58t-50.5 -72t-40.5 -73.5q-6 -20 -21 -26t-27 -1q-14 5 -17 17.5t2 24.5q22 60 45 127.5t46 132t47 122t50 98.5q25 40 54 56t51.5 11.5t33 -26.5t-1.5 -59q-9 -27 -26.5 -53
t-39.5 -52t-45.5 -52.5t-45.5 -53.5q13 33 27.5 64t28 59t26 51t22.5 39z" />
    <glyph glyph-name="l" unicode="l" horiz-adv-x="238" 
d="M76 89q-2 40 9 93t30.5 109t45 110.5t53 97t54.5 68.5t49 26q23 0 32.5 -14.5t7.5 -43.5q-1 -27 -19.5 -69.5t-46 -91.5t-61.5 -100t-67 -95q24 89 63.5 169.5t86.5 156.5q5 8 -1 12.5t-13 -5.5q-21 -31 -49 -81t-52.5 -107t-42 -114.5t-17.5 -102.5q0 -32 9 -40t20 -8
q25 0 71 46q8 8 20 8.5t21 -8.5t8.5 -21t-8.5 -20q-22 -22 -40 -35.5t-33 -21t-27 -10t-21 -2.5q-39 0 -59.5 24.5t-22.5 69.5zM41 64q-8 -8 -20 -8.5t-21 8.5t-8.5 21t8.5 20q13 13 32.5 35t39.5 48q-6 -28 -9.5 -54t-1.5 -50z" />
    <glyph glyph-name="m" unicode="m" horiz-adv-x="494" 
d="M363 285q-8 -7 -15.5 -16t-13.5 -17t-0.5 -12t11.5 3q10 12 23.5 27t29.5 28.5t34 22.5t39 9q17 0 29.5 -9.5t12.5 -28.5q0 -29 -16 -60.5t-35.5 -61.5t-35.5 -55.5t-16 -42.5q0 -15 17 -15q10 0 28 13.5t39 34.5q8 8 20 8.5t21 -8.5t8.5 -21t-8.5 -20q-35 -35 -62.5 -52
t-65.5 -17q-28 0 -46 18t-18 53q0 19 8.5 40t20 41t24.5 37.5t22 30.5q11 17 5.5 24.5t-22.5 -9.5t-43.5 -50t-52.5 -71q-14 -27 -26 -48.5t-26 -46.5q-8 -13 -20 -16.5t-24 1.5q-13 6 -16.5 18t1.5 24q8 17 21 42t33 57q14 23 25.5 44.5t19.5 37.5q10 19 2.5 26.5
t-24.5 -11.5q-20 -22 -56 -72t-87 -139q-6 -20 -21 -26t-27 -1q-14 5 -17 17.5t2 24.5q3 9 6 17t7.5 19t11 26.5t15.5 39.5q3 8 -4.5 11t-11.5 -7q-3 -8 -8.5 -22.5t-11.5 -29.5q-5 -5 -11 -12.5t-17 -18.5q-8 -8 -20 -8.5t-21 8.5t-8.5 21t8.5 20q22 23 44.5 48t42 50.5
t35.5 50.5t27 47q9 20 22 25t26 3q15 -3 22 -16t-2 -35q-6 -8 -13.5 -19t-14.5 -21t-12.5 -18.5t-7.5 -11.5q-5 -8 1 -12.5t12 4.5q18 26 35.5 49.5t35 41.5t34.5 28.5t33 10.5q18 0 30 -11t13 -34z" />
    <glyph glyph-name="n" unicode="n" horiz-adv-x="369" 
d="M105 143q3 8 -4.5 11t-11.5 -7q-3 -8 -8.5 -22.5t-11.5 -29.5q-5 -5 -11 -12.5t-17 -18.5q-8 -8 -20 -8.5t-21 8.5t-8.5 21t8.5 20q22 23 44.5 48t42 50.5t35.5 50.5t27 47q9 20 22 25t26 3q15 -3 23 -19t-5 -45q-13 -14 -26.5 -31.5t-18.5 -24.5q-5 -8 1 -12.5t12 3.5
q17 23 37.5 46.5t41.5 42t42.5 30t41.5 11.5q17 0 29.5 -9.5t12.5 -28.5q0 -29 -16 -60.5t-35.5 -61.5t-35.5 -55.5t-16 -42.5q0 -15 17 -15q10 0 28 13.5t39 34.5q8 8 20 8.5t21 -8.5t8.5 -21t-8.5 -20q-35 -35 -62.5 -52t-65.5 -17q-28 0 -46 18t-18 53q0 19 8.5 40.5
t20.5 41.5t25 38t22 31q11 16 5 22.5t-22 -8.5q-13 -13 -33 -36t-41.5 -51t-41.5 -58.5t-33 -59.5q-6 -20 -21 -26t-27 -1q-14 5 -17 17.5t2 24.5q3 9 6 16.5t7.5 18.5t11 26.5t15.5 40.5z" />
    <glyph glyph-name="o" unicode="o" horiz-adv-x="400" 
d="M400 105q8 8 20 8.5t21 -8.5t8.5 -21t-8.5 -20q-26 -26 -59.5 -40.5t-65.5 -14.5q-36 0 -62 21t-26 67q0 27 9.5 55.5t26 52.5t38.5 39t47 15q20 0 30.5 -14.5t10.5 -36.5q0 -29 -15.5 -62.5t-46.5 -60.5q-8 0 -15 3.5t-7 14.5q0 23 13 45t32 35q8 5 3.5 12.5t-15.5 -0.5
q-17 -13 -32.5 -37.5t-15.5 -56.5q0 -17 9 -24t22 -7q20 0 42.5 11t35.5 24zM41 64q-8 -8 -20 -8.5t-21 8.5t-8.5 21t8.5 20q17 17 31.5 30t31.5 27q-11 -33 -11 -64v-11.5t1 -10.5zM179 52q7 0 17.5 2.5t20.5 8.5q9 -32 35 -50q-18 -11 -39 -16.5t-40 -5.5q-55 0 -80.5 30
t-25.5 77q0 39 17.5 79.5t47 73.5t67.5 54.5t80 21.5q31 0 49.5 -15t26.5 -38h-6q-15 0 -28.5 -5t-26.5 -13q-6 10 -21 10q-23 0 -47.5 -15.5t-44.5 -39.5t-33 -53.5t-13 -57.5q0 -23 11 -35.5t33 -12.5z" />
    <glyph glyph-name="p" unicode="p" horiz-adv-x="380" 
d="M229 66q0 19 8.5 40.5t20.5 41.5t25 38t22 31q11 16 5 22.5t-22 -8.5q-14 -13 -35 -37t-44 -55q8 30 15 58.5t14 56.5q12 13 26 26.5t30 24.5t32 18t31 7q17 0 29.5 -9.5t12.5 -28.5q0 -29 -16 -60.5t-35.5 -61.5t-35.5 -55.5t-16 -42.5q0 -15 17 -15q10 0 28 13.5
t39 34.5q8 8 20 8.5t21 -8.5t8.5 -21t-8.5 -20q-35 -35 -62.5 -52t-65.5 -17q-28 0 -46 18t-18 53zM144 192q2 10 -6 11.5t-10 -9.5q-4 -16 -5.5 -23.5t-5.5 -21.5q-33 -42 -76 -85q-8 -8 -20 -8.5t-21 8.5t-8.5 21t8.5 20q55 55 98 107t65 97q9 20 22 26t26 4
q15 -3 20 -15.5t3 -23.5q-12 -50 -26 -107t-31 -113t-36 -107.5t-40 -91t-44 -63t-48 -23.5q-43 0 -43 55q0 34 36 98.5t103 150.5q-24 -81 -48.5 -134t-51.5 -95q-6 -10 1 -14t13 6q13 21 28 47t31 64.5t32.5 91.5t33.5 127z" />
    <glyph glyph-name="q" unicode="q" horiz-adv-x="390" 
d="M41 64q-8 -8 -20 -8.5t-21 8.5t-8.5 21t8.5 20q20 20 36.5 34.5t37.5 31.5q-22 -46 -22 -88v-8zM255 259q10 5 6 12.5t-12 3.5q-14 -8 -30 -20.5t-32 -30.5t-29.5 -42t-22.5 -54q-2 -8 -4.5 -19.5t-2 -22.5t6 -19t18.5 -8q31 0 61 26.5t55.5 62.5t46 73t33.5 58
q11 18 24 22.5t24 1.5q20 -5 23.5 -21.5t-3.5 -32.5q-12 -29 -28 -53.5t-33.5 -48t-35 -46.5t-33.5 -47q-16 -25 -30 -51.5t-25 -52t-18.5 -47t-10.5 -36.5q-2 -11 5.5 -12.5t10.5 8.5q14 51 37 101t55 97q19 2 40.5 14.5t38.5 29.5q8 8 20 8.5t21 -8.5t8.5 -21t-8.5 -20
q-27 -27 -64.5 -45.5t-72.5 -18.5q-8 0 -8.5 -7.5t7.5 -7.5h9q-10 -55 -22.5 -91.5t-27 -58.5t-30 -31t-31.5 -9q-23 0 -36.5 17t-13.5 52q0 22 6.5 44t17 43t22.5 41.5t24 38.5q4 6 -1.5 10.5t-10.5 -2.5q-6 -8 -12.5 -18t-14.5 -22q-6 -2 -14 -3t-15 -1q-30 0 -53 21.5
t-23 66.5q0 41 20 84.5t51 79t68.5 58.5t72.5 23q17 0 27.5 -10t7.5 -31q-3 -22 -18 -38t-37 -31t-48.5 -32t-53.5 -39q16 39 43.5 68.5t54.5 43.5z" />
    <glyph glyph-name="r" unicode="r" horiz-adv-x="259" 
d="M0 105q28 28 56.5 63.5t46.5 67.5q9 -8 24.5 -13.5t27.5 -8.5q-20 -39 -51 -78.5t-63 -71.5q-8 -8 -20 -8.5t-21 8.5t-8.5 21t8.5 20zM185 308q0 -8 -1 -13q-20 4 -27.5 8.5t-9.5 9.5q-3 8 -10.5 5t-4.5 -11q7 -17 28.5 -22.5t45.5 -11.5t43.5 -17.5t22.5 -41.5
q3 -28 -10.5 -49t-30.5 -37.5t-32 -30.5t-15 -28q0 -8 3 -10t11 -2t24.5 14t36.5 34q8 8 20 8.5t21 -8.5t8.5 -21t-8.5 -20q-35 -35 -61.5 -52t-55.5 -17t-49.5 16t-20.5 52q0 28 15.5 50t33.5 39.5t32.5 31t11.5 25.5q-2 6 -12 9.5t-24 7t-30.5 9t-30.5 15.5t-23 25t-9 39
t16.5 39t36.5 15q55 0 55 -60z" />
    <glyph glyph-name="s" unicode="s" horiz-adv-x="244" 
d="M0 105q11 11 24 25.5t25.5 30l25 31t22.5 29.5q5 -15 13 -29t13 -30q-19 -26 -41.5 -53t-40.5 -45q-8 -8 -20 -8.5t-21 8.5t-8.5 21t8.5 20zM230 307q0 -17 -9 -37.5t-25 -42.5q-16 29 -19 49.5t3 31.5q5 8 -1.5 11.5t-11.5 -3.5q-11 -17 -4.5 -45.5t23.5 -57.5
q13 -22 23 -51.5t7 -59.5q-6 -8 -16.5 -14t-19.5 -10q-7 -3 -4.5 -10t10.5 -4q15 5 29 15.5t29 25.5q8 8 20 8.5t21 -8.5t8.5 -21t-8.5 -20q-37 -37 -77 -56t-90 -19q-26 0 -37.5 10t-11.5 26q0 20 15.5 30.5t32.5 8.5q7 -1 13.5 -0.5t11 5t7.5 14t3 26.5q0 22 -8.5 43.5
t-19 44t-19 45.5t-8.5 47q0 15 4.5 30t14 27t23.5 19.5t34 7.5q57 0 57 -66z" />
    <glyph glyph-name="t" unicode="t" horiz-adv-x="251" 
d="M285 266q-23 -3 -45.5 -2.5t-45 2t-45.5 2.5t-45 -2q-13 -2 -24.5 4.5t-13.5 24.5q-2 17 8.5 26t23.5 11q22 3 45 2t45.5 -2.5t45 -2t45.5 2.5q13 2 24.5 -4.5t13.5 -24.5q2 -17 -8.5 -26t-23.5 -11zM310 479q2 -26 -13 -62.5t-34 -71.5q-26 -1 -50 0.5t-41 2.5l64 135
q9 20 22 24.5t24 2.5q14 -2 20.5 -11t7.5 -20zM0 105q32 33 64.5 71.5t57.5 76.5q19 2 41 0t42 -3q-27 -53 -38 -89t-12 -59t6.5 -33t18.5 -10q25 0 71 46q8 8 20 8.5t21 -8.5t8.5 -21t-8.5 -20q-22 -22 -39 -35.5t-31 -21t-26.5 -10t-24.5 -2.5q-31 0 -49.5 14t-27 36
t-8.5 48.5t6 51.5q2 9 -4 11t-10 -7q-9 -20 -7 -54q-7 -8 -14.5 -15.5l-15.5 -15.5t-20 -8.5t-21 8.5t-8.5 21t8.5 20z" />
    <glyph glyph-name="u" unicode="u" horiz-adv-x="388" 
d="M303 -5q-35 0 -48 25.5t-8 58.5q1 4 -1 6.5t-5 3t-5.5 -1.5t-3.5 -6q-2 -12 -1.5 -23t2.5 -22q-47 -41 -100 -41q-24 0 -45 14.5t-21 49.5q0 23 8.5 45t19.5 45q4 8 -2 11t-11 -5q-7 -12 -15 -32t-14 -47l-12 -12q-8 -8 -20 -8.5t-21 8.5t-8.5 21t8.5 20q22 22 45 47
t44.5 51t39.5 51t29 48q10 20 22.5 24.5t23.5 2.5q20 -4 25.5 -21t-2.5 -32q-18 -36 -34.5 -68t-29.5 -58t-21 -46t-7 -33q0 -14 12 -14q6 0 16.5 4t24 14.5t30 29.5t35.5 48q6 21 17.5 51.5t26 58t32 47.5t37.5 20q28 0 35 -22.5t-0.5 -54.5t-25.5 -66t-39 -57
q8 41 18.5 74t23.5 61q4 8 -2.5 11t-10.5 -5q-10 -20 -19 -47t-16.5 -55t-12 -54t-4.5 -43q0 -9 3 -12t8 -3q16 0 64 48q8 8 20 8.5t21 -8.5t8.5 -21t-8.5 -20q-21 -21 -38 -34.5t-31.5 -21t-28 -10.5t-28.5 -3z" />
    <glyph glyph-name="v" unicode="v" horiz-adv-x="372" 
d="M318 95q-18 0 -18 32q0 29 12 57.5t29 52.5q5 8 -1 12.5t-12 -3.5q-9 -12 -17 -27.5t-14 -32t-9.5 -32.5t-3.5 -27q0 -23 9.5 -35t24.5 -12q13 0 26.5 5.5t27.5 19.5q8 8 20 8.5t21 -8.5t8.5 -21t-8.5 -20q-19 -19 -46.5 -31t-55.5 -12q-45 0 -66.5 27t-21.5 72
q0 38 12.5 75.5t32 67.5t43 48.5t46.5 18.5q19 0 30.5 -13.5t11.5 -37.5q0 -45 -23 -93.5t-58 -90.5zM67 59q0 23 8.5 45t19.5 45q4 8 -2 11t-11 -5q-7 -12 -15 -32t-14 -47l-12 -12q-8 -8 -20 -8.5t-21 8.5t-8.5 21t8.5 20q22 22 45 47t44.5 51t39.5 51t29 48
q10 20 22.5 24.5t23.5 2.5q20 -4 25.5 -21t-2.5 -32q-18 -36 -34.5 -68t-29.5 -58t-21 -46t-7 -33q0 -14 12 -14q32 0 65 24q8 -32 29 -52q-54 -34 -108 -34q-24 0 -45 14.5t-21 49.5z" />
    <glyph glyph-name="w" unicode="w" horiz-adv-x="518" 
d="M41 64q-8 -8 -20 -8.5t-21 8.5t-8.5 21t8.5 20q22 22 45 47t44.5 51t39.5 51t29 48q10 20 22.5 24.5t23.5 2.5q20 -4 25.5 -21t-2.5 -32q-18 -36 -34.5 -68t-29.5 -58t-21 -46t-7 -33q0 -14 12 -14q10 0 21.5 6t24.5 17q0 -34 10 -57q-37 -28 -70 -28q-24 0 -45 14.5
t-21 49.5q0 23 8.5 45t19.5 45q4 8 -2 11t-11 -5q-7 -12 -15 -32t-14 -47zM464 95q-18 0 -18 32q0 29 12 57.5t29 52.5q5 8 -1 12.5t-12 -3.5q-9 -12 -17 -27.5t-14 -32t-9.5 -32.5t-3.5 -27q0 -23 9.5 -35t24.5 -12q13 0 26.5 5.5t27.5 19.5q8 8 20 8.5t21 -8.5t8.5 -21
t-8.5 -20q-19 -19 -46.5 -31t-55.5 -12q-45 0 -66.5 27t-21.5 72q0 38 12.5 75.5t32 67.5t43 48.5t46.5 18.5q19 0 30.5 -13.5t11.5 -37.5q0 -45 -23 -93.5t-58 -90.5zM320 252q-21 -33 -36.5 -77t-15.5 -86q0 -20 9 -28.5t22.5 -8.5t29 8t29.5 20q7 -31 29 -51
q-54 -34 -108 -34q-14 0 -26.5 4t-22.5 13.5t-16 26t-6 41.5q0 37 12.5 79.5t32 78.5t41.5 60t42 24q18 0 25 -10.5t7 -22.5q0 -19 -6.5 -41.5t-17.5 -47t-26 -49t-33 -47.5q3 38 15 72.5t33 69.5q5 8 -1.5 11t-11.5 -5z" />
    <glyph glyph-name="x" unicode="x" horiz-adv-x="418" 
d="M251 320q24 0 39 -13t19 -33q-18 -19 -34 -41.5t-29 -45.5q8 32 5 46t-12 14q-12 0 -25 -9t-34 -30.5t-54 -56.5t-85 -87q-8 -8 -20 -8.5t-21 8.5t-8.5 21t8.5 20q61 61 98 102.5t62 66.5t44.5 35.5t46.5 10.5zM150 33q9 16 27 30.5t34 20.5q-1 -18 0.5 -30.5t4.5 -21.5
q-18 -17 -42 -27t-46.5 -10t-38 11t-15.5 35q0 22 13 41.5t35.5 36.5t53 31.5t65.5 27.5q-11 -23 -17.5 -40t-10.5 -37q-18 -6 -41 -22t-35 -37q-5 -9 2 -12.5t11 3.5zM379 240q-26 -20 -42 -42t-25 -42t-12.5 -37t-3.5 -27q0 -16 5.5 -25.5t18.5 -9.5q23 0 48 11.5t50 36.5
q8 8 20 8.5t21 -8.5t8.5 -21t-8.5 -20q-29 -29 -65 -49t-86 -20q-48 0 -66.5 24.5t-15.5 61.5t23 80t49 80t62.5 61.5t63.5 24.5q21 0 30.5 -11.5t9.5 -28.5q0 -24 -11.5 -45t-31 -39t-45 -33t-53.5 -27q8 22 25.5 43.5t40.5 40.5q7 5 2.5 12t-12.5 1z" />
    <glyph glyph-name="y" unicode="y" horiz-adv-x="361" 
d="M402 64q-11 -11 -26.5 -24.5t-33 -27.5t-36 -27.5t-34.5 -24.5q13 25 23.5 51t23.5 53q12 11 23 22l19 19t20 8.5t21 -8.5t8.5 -21t-8.5 -20zM67 59q0 23 8.5 45t19.5 45q4 8 -2 11t-11 -5q-7 -12 -15 -32t-14 -47l-12 -12q-8 -8 -20 -8.5t-21 8.5t-8.5 21t8.5 20
q22 22 45.5 47t45 51t39 51t28.5 48q10 20 22.5 24.5t23.5 2.5q20 -4 25.5 -21t-2.5 -32q-18 -36 -34.5 -68t-29.5 -58t-21 -46t-7 -33q0 -14 12 -14q6 0 16.5 4t24 14.5t30 29.5t35.5 48q6 21 17.5 51.5t26 58t32 47.5t37.5 20q28 0 35 -22.5t-1 -54.5t-26.5 -66.5
t-39.5 -58.5q10 41 21 74.5t23 62.5q4 8 -2.5 11t-10.5 -5q-15 -29 -24.5 -60.5t-18 -63.5t-17.5 -64.5t-22 -63.5q-31 -73 -62.5 -117t-60 -68t-53 -31.5t-41.5 -7.5q-29 0 -45.5 15t-16.5 42q0 28 21 46.5t51 33.5t63 30t58 38q-23 -48 -58.5 -84.5t-74.5 -50.5
q-11 -4 -8.5 -12t11.5 -5q21 7 44.5 23t46.5 42.5t44 65t37 90.5q2 8 -5 10t-10 -6q-5 -14 -8.5 -24t-9.5 -24q-31 -30 -73 -30q-24 0 -45 14.5t-21 49.5z" />
    <glyph glyph-name="z" unicode="z" horiz-adv-x="344" 
d="M385 64q-42 -42 -88.5 -72t-90.5 -50q7 31 8 64q42 24 75.5 51.5t54.5 47.5q8 8 20 8.5t21 -8.5t8.5 -21t-8.5 -20zM18 -135q-5 -1 -7 -4.5t-1.5 -6.5t3.5 -5t8 -1q35 9 61 32.5t40.5 52.5t14.5 59.5t-17 54.5q-5 7 -6 17t3 19.5t13 16t24 6.5q35 0 61 11t42.5 27.5
t23.5 36t6 36t-10 27.5t-26 11q-23 0 -40 -11.5t-38.5 -35t-52 -59.5t-79.5 -85q-8 -8 -20 -8.5t-21 8.5t-8.5 21t8.5 20q47 47 79.5 87.5t60.5 70.5t57 47t70 17q31 0 51.5 -18.5t29 -46.5t4 -62t-23 -65t-52 -55.5t-82.5 -32.5q2 -8 3.5 -16.5t1.5 -19.5q0 -62 -20 -103.5
t-48.5 -66.5t-59 -35.5t-51.5 -10.5q-29 0 -45.5 15t-16.5 42q0 26 18 42.5t43.5 29t53 23.5t47.5 26q-5 -20 -14.5 -37.5t-23 -32t-30 -24.5t-34.5 -14z" />
    <glyph glyph-name="braceleft" unicode="{" horiz-adv-x="440" 
d="M229 264q20 0 40.5 -6.5t25.5 -26.5q-13 -3 -32.5 -4t-37.5 2.5t-31 14.5t-13 32q0 20 18 36.5t55 16.5q23 0 44.5 -7.5t37.5 -21.5t25.5 -33.5t9.5 -43.5q0 -31 -14 -54.5t-35 -43t-45.5 -37t-45.5 -36.5t-35 -41.5t-14 -51.5q0 -13 7 -23.5t18 -10.5q16 0 23.5 -9
t7 -20t-8 -20t-22.5 -9q-41 0 -63 27.5t-22 65.5q0 35 14 61.5t35.5 48.5t46 40t46 35.5t35.5 35.5t14 40q0 29 -24 43.5t-60 14.5q-9 0 -9 -7.5t9 -7.5zM424 441q0 -23 0.5 -47.5t-3 -48t-13 -45t-29.5 -39.5q-9 27 -31 48q12 15 16 33t4.5 37.5t-1.5 39.5t-2 40
q0 49 14 85t37.5 59.5t54 34.5t63.5 11q17 0 25.5 -9.5t8.5 -21.5t-8.5 -21.5t-25.5 -9.5q-45 0 -77.5 -37t-32.5 -109z" />
    <glyph glyph-name="bar" unicode="|" horiz-adv-x="480" 
d="M188 -27q-8 -16 -20 -20t-22.5 1.5t-15.5 17.5t3 28q17 33 40 82t49.5 106t55 119t56 122t52 114.5t44.5 96.5q8 17 21 22.5t23.5 2t15.5 -15.5t-3 -30q-21 -46 -46.5 -102t-53 -116t-56 -121.5t-55 -118t-49.5 -105t-39 -83.5z" />
    <glyph glyph-name="braceright" unicode="}" horiz-adv-x="460" 
d="M392 237q-26 13 -59.5 8.5t-61.5 -33.5q-15 -15 -20.5 -34t-6.5 -39.5t1 -41.5t2 -40q0 -50 -14 -85.5t-37.5 -59t-54 -34.5t-63.5 -11q-17 0 -26 9.5t-9 21.5t9 21.5t26 9.5q45 0 77.5 37t32.5 109q0 23 -0.5 47.5t3 47.5t13 45t29.5 40q26 24 60 34t65 8t52 -16.5
t21 -40.5q0 -20 -18 -36.5t-55 -16.5q-20 0 -38 4t-33 15q20 20 47 24t51 -7q7 -3 11 3.5t-4 10.5zM490 556q0 -33 -13 -59t-32.5 -47t-43.5 -38.5t-45 -34.5t-36.5 -34t-19.5 -37q-31 -7 -59 -26v13q0 31 14 54.5t35 43t45.5 37t45.5 36.5t35 41.5t14 51.5q0 13 -7 23.5
t-18 10.5q-16 0 -23.5 9t-7 20t8 20t22.5 9q41 0 63 -27.5t22 -65.5z" />
    <glyph glyph-name="asciitilde" unicode="~" horiz-adv-x="480" 
d="M402 296q28 0 48 21q9 10 22 13t26 -9q12 -12 10 -26.5t-11 -23.5q-21 -22 -44.5 -30.5t-45.5 -8.5q-33 0 -60 9.5t-51 20.5t-45.5 20.5t-42.5 9.5q-28 0 -48 -21q-9 -10 -22 -13t-26 9q-12 12 -10 26.5t11 23.5q21 22 45 30.5t46 8.5q33 0 60 -9.5t50.5 -20.5t45 -20.5
t42.5 -9.5z" />
    <glyph glyph-name="exclamdown" unicode="&#xa1;" horiz-adv-x="267" 
d="M402 469q0 -31 -23 -50.5t-52 -19.5q-27 0 -45.5 17.5t-18.5 42.5q0 14 6 27t16.5 22.5t23.5 15t28 5.5q28 0 46.5 -17t18.5 -43zM222 120q-18 -62 -34 -104t-32.5 -67.5t-33 -36.5t-35.5 -11q-22 0 -32 12t-10 32q0 40 20 75t50.5 77t66.5 98t68 138q7 17 18.5 22.5
t21.5 2t15 -15t-2 -27.5q-36 -87 -70 -146.5t-61 -99.5t-44.5 -64.5t-21.5 -42.5q-2 -9 5.5 -11t10.5 7q6 16 17.5 34t26 38t29.5 42t27 48z" />
    <glyph glyph-name="cent" unicode="&#xa2;" horiz-adv-x="420" 
d="M231 109q-55 0 -83 23t-34.5 58.5t6.5 78.5t40.5 83.5t66.5 73t86 46.5q-9 -20 -18.5 -40t-18.5 -41q-23 -16 -42 -39t-32.5 -48t-20.5 -49.5t-5 -44t14 -31.5t36 -12q32 0 62.5 12.5t62.5 44.5q8 8 20 8.5t21 -8.5t8.5 -21t-8.5 -20q-39 -39 -80.5 -56.5t-80.5 -17.5z
M375 368q12 16 7 31l32 72q20 -11 28.5 -31.5t6.5 -42.5q-2 -18 -8.5 -33t-20.5 -32q-7 -8 -18.5 -10.5t-21.5 5.5t-11 20.5t6 20.5zM435 557q-17 -39 -37.5 -84.5t-42 -93.5t-43 -96.5t-42.5 -93.5q-14 -5 -34.5 -7.5t-34.5 8.5q22 48 46 99.5t47 102t44.5 98t38.5 87.5
q8 18 20.5 23.5t23.5 1t16 -16.5t-2 -28zM179 -7q-7 -17 -19.5 -21.5t-23.5 -0.5t-16.5 15.5t1.5 27.5l42 91q27 -11 63 -11z" />
    <glyph glyph-name="sterling" unicode="&#xa3;" horiz-adv-x="514" 
d="M436 203q-23 -3 -50.5 -2.5t-57 2t-57.5 2.5t-50 -2q-13 -2 -24.5 4.5t-13.5 24.5q-2 17 8.5 26t23.5 11q22 3 50 2t57.5 -2.5t57 -2t50.5 2.5q13 2 24.5 -4.5t13.5 -24.5q2 -17 -8.5 -26t-23.5 -11zM571 404q-14 -12 -27.5 -11t-21.5 9.5t-8 21.5t12 25q14 14 20.5 30.5
t6.5 33.5q0 24 -14 42t-43 18q-41 0 -62 -25.5t-32 -67t-17 -93.5t-15 -105q-17 0 -34 1l-34 2q7 39 12 80t11.5 80t18 73.5t31.5 60t51 40.5t77 15q30 0 51.5 -10t35 -26.5t20 -38t6.5 -43.5q0 -32 -12 -63t-33 -49zM347 187q-12 -34 -30 -62.5t-44 -50.5q-14 8 -27.5 17.5
t-27.5 20.5q20 14 33.5 34t24.5 44q18 0 36 -1t35 -2zM81 66q24 4 44 -7t44 -30q-14 -3 -30 -4t-33 -1q-46 0 -67.5 18.5t-21.5 41.5q0 22 20.5 40.5t59.5 18.5q40 0 70 -17t58.5 -37.5t59 -37.5t70.5 -17q31 0 54 13t54 44q8 8 20 8.5t21 -8.5t8.5 -21t-8.5 -20
q-44 -44 -78.5 -60.5t-75.5 -16.5q-52 0 -89.5 19t-67.5 40.5t-57 38t-57 10.5q-4 -1 -6 -3.5t-1.5 -5.5t3 -5t6.5 -1z" />
    <glyph glyph-name="currency" unicode="&#xa4;" horiz-adv-x="573" 
d="M276 353q22 30 54 47l112 -154q-23 -26 -58 -42zM177 497q-10 15 -6.5 29t14 22t24.5 6.5t26 -18.5l44 -63q-30 -19 -55 -45zM437 131q16 9 30.5 19.5t27.5 23.5l44 -59q9 -12 5.5 -25.5t-14 -21.5t-24.5 -7.5t-25 14.5zM413 311l-36 51l218 180q16 13 29.5 11.5
t21 -10.5t6.5 -22.5t-15 -24.5zM323 115q-28 0 -51.5 7.5t-42.5 20.5l51 41q19 -9 43 -9q33 0 64 13.5t55 36.5t39 53.5t15 64.5q0 10 -1 15l51 42q5 -14 7.5 -28t2.5 -29q0 -46 -20 -87t-52.5 -72.5t-74.5 -50t-86 -18.5zM175 218q-6 22 -6 47q0 43 19 84t51 73.5t74 52
t89 19.5q48 0 84 -22l-52 -43q-17 5 -32 5q-35 0 -66 -14.5t-55 -38.5t-38 -55.5t-14 -64.5zM298 298l36 -51l-217 -174q-16 -13 -30 -11.5t-21 10.5t-6 22.5t15 24.5z" />
    <glyph glyph-name="yen" unicode="&#xa5;" horiz-adv-x="518" 
d="M209 46q34 41 62 96t48 113.5t30 115.5t9 101.5t-15.5 72t-44.5 27.5q-32 0 -59 -24t-33 -68q-2 -14 -12 -20.5t-20.5 -6t-19 9t-6.5 25.5q2 25 14.5 50.5t33 46.5t47.5 34t59 13q50 0 77 -28.5t36.5 -74.5t3 -105.5t-22.5 -121t-40.5 -121t-51.5 -105.5t-54 -74.5
t-50 -28.5q-25 0 -34.5 17t-5.5 41.5t19.5 51.5t39.5 47h29q-11 -19 -24.5 -38t-26.5 -37q-5 -7 0.5 -11.5t11.5 2.5zM647 546q-23 -10 -51.5 -27.5t-58.5 -43.5t-60.5 -61t-57.5 -79q14 64 17 118q14 19 37 42.5t50 45t54.5 39.5t49.5 27q16 6 27 0t15 -17.5t-1 -24
t-21 -19.5zM149 209q22 3 59 2.5t78 -2.5q-6 -17 -13.5 -33t-16.5 -31h-18q-26 1 -47 0.5t-36 -2.5q-13 -2 -24.5 4.5t-13.5 24.5q-2 17 8.5 26t23.5 11zM209 323q19 2 49 2t65 -1q-4 -17 -8.5 -32.5t-11.5 -32.5q-27 1 -50 0.5t-38 -2.5q-13 -2 -24.5 4.5t-13.5 24.5
q-2 17 8.5 26t23.5 11zM495 257q-17 -2 -43 -2.5t-55 0.5q5 17 9.5 33t9.5 33q22 -1 40.5 -0.5t32.5 2.5q13 2 24.5 -4.5t13.5 -24.5q2 -17 -8.5 -26t-23.5 -11zM435 143q-15 -2 -36 -2.5t-47 0.5q8 16 15 32t13 33q29 0 49 3q13 2 24.5 -4.5t13.5 -24.5q2 -17 -8.5 -26
t-23.5 -11z" />
    <glyph glyph-name="brokenbar" unicode="&#xa6;" horiz-adv-x="480" 
d="M255 256q8 17 21 22.5t23.5 2t15.5 -15.5t-3 -30q-32 -68 -64.5 -135.5t-59.5 -126.5q-8 -16 -20 -20t-22.5 1.5t-15.5 17.5t3 28q30 60 60 124.5t62 131.5zM311 378q30 60 61.5 127.5t63.5 134.5q8 17 21 22.5t23.5 2t15.5 -15.5t-3 -30q-32 -68 -65.5 -138t-59.5 -126
q-8 -18 -21 -22.5t-23.5 0.5t-15.5 17t3 28z" />
    <glyph glyph-name="section" unicode="&#xa7;" horiz-adv-x="600" 
d="M514 371q-7 15 -14.5 29t-15.5 28l35 28q46 36 62 72t13 64.5t-21 46.5t-41 18q-18 0 -37.5 -7t-35.5 -20.5t-26.5 -33t-10.5 -45.5q0 -41 15.5 -71t34.5 -61.5t34.5 -69.5t15.5 -94q0 -41 -15 -74q-9 -18 -22.5 -22t-24 1t-15 18.5t5.5 30.5q6 11 7.5 23.5t1.5 26.5
q0 38 -16 69.5t-35.5 64t-35.5 69.5t-16 86q0 28 10.5 58.5t32.5 55.5t55.5 41t79.5 16q51 0 84.5 -30.5t40 -77t-17 -102t-86.5 -105.5zM364 260q-17 28 -28 54l70 53l16 -28t13 -28zM256 258q7 -15 14.5 -29t15.5 -28l-35 -28q-46 -36 -62 -72t-13 -64.5t21 -46.5t41 -18
q18 0 37.5 7t35.5 20.5t26.5 33t10.5 45.5q0 40 -15.5 70.5t-34.5 62t-34.5 69.5t-15.5 94q0 41 15 74q9 18 22.5 22t24 -1t15 -18.5t-5.5 -30.5q-6 -11 -7.5 -23.5t-1.5 -26.5q0 -38 16 -69.5t35.5 -64t35.5 -69.5t16 -86q0 -29 -10.5 -59t-32.5 -55t-55.5 -41t-79.5 -16
q-51 0 -84.5 30.5t-40 77t17 102t86.5 105.5z" />
    <glyph glyph-name="dieresis" unicode="&#xa8;" horiz-adv-x="354" 
d="M128 432q2 24 21 40.5t45 16.5q25 0 41.5 -16.5t14.5 -40.5t-20.5 -40.5t-43.5 -16.5q-26 0 -43 16.5t-15 40.5zM283 432q2 24 21 40.5t45 16.5q25 0 42 -16.5t15 -40.5t-21 -40.5t-44 -16.5q-26 0 -43 16.5t-15 40.5z" />
    <glyph glyph-name="copyright" unicode="&#xa9;" horiz-adv-x="645" 
d="M85 263q0 57 21.5 106.5t58 86.5t86 58.5t106.5 21.5t106.5 -21.5t86.5 -58.5t58.5 -86.5t21.5 -106.5t-21.5 -106.5t-58.5 -86t-86.5 -58t-106.5 -21.5t-106.5 21.5t-86 58t-58 86t-21.5 106.5zM135 263q0 -46 17.5 -86.5t47.5 -70.5t70.5 -47.5t86.5 -17.5t86.5 17.5
t71 47.5t48 70.5t17.5 86.5t-17.5 86.5t-48 71t-71 48t-86.5 17.5t-86.5 -17.5t-70.5 -48t-47.5 -71t-17.5 -86.5zM210 263q0 38 14 67t36 48.5t49 29t53 9.5q39 0 68.5 -14.5t44.5 -40.5q6 -10 2.5 -19.5t-11 -14.5t-17 -4.5t-16.5 11.5q-24 34 -74 34q-18 0 -35 -7
t-30.5 -20.5t-22 -33.5t-8.5 -45q0 -51 28.5 -78.5t67.5 -27.5q22 0 42 9t32 26q7 10 16.5 11t17 -4t11 -14.5t-2.5 -19.5q-15 -26 -44.5 -41t-68.5 -15q-26 0 -53 9.5t-49 29t-36 48.5t-14 67z" />
    <glyph glyph-name="ordfeminine" unicode="&#xaa;" horiz-adv-x="350" 
d="M266 398q-3 -13 0 -30q-33 -25 -70 -25q-25 0 -44 18t-19 55q0 33 18.5 68t46 64t60 47.5t61.5 18.5q15 0 22 -8.5t6.5 -18.5t-8 -18.5t-20.5 -8.5q-23 0 -45.5 -14.5t-41 -35.5t-30 -45t-11.5 -43q0 -10 3.5 -17t12.5 -7q21 0 40.5 15.5t38 40.5t37 56.5t36.5 62.5
q9 16 22.5 19.5t23.5 -2t14.5 -18t-4.5 -27.5q-38 -66 -57 -98t-19 -43q0 -7 7 -7q8 0 19 10t28 27q10 10 20 9t16.5 -8t7 -17t-8.5 -19q-26 -26 -49.5 -41t-49.5 -15q-21 0 -36.5 14t-10.5 40q2 8 -6 9t-10 -8z" />
    <glyph glyph-name="guillemotleft" unicode="&#xab;" horiz-adv-x="540" 
d="M252 63q12 -13 10 -27t-11.5 -22t-23.5 -8t-26 16q-14 18 -35.5 44t-41.5 51q-8 9 -12.5 21t-3.5 24t8.5 22.5t24.5 18.5q33 20 59 36t47.5 29.5t39.5 25t36 21.5q17 10 29.5 6.5t18 -13t2 -22t-17.5 -21.5q-17 -10 -32.5 -19.5t-33.5 -21.5t-40.5 -26.5t-53.5 -34.5
q-5 5 -8 10.5t-5 7.5q-5 6 -11.5 1.5t-1.5 -11.5q21 -29 33.5 -46.5t21 -28t14.5 -17.5t14 -16zM432 63q12 -13 10 -27t-11.5 -22t-23.5 -8t-26 16q-14 18 -35.5 44t-41.5 51q-8 9 -12.5 21t-3.5 24t8.5 22.5t24.5 18.5q33 20 59 36t47.5 29.5t39.5 25t36 21.5
q17 10 29.5 6.5t18 -13t2 -22t-17.5 -21.5q-17 -10 -32.5 -19.5t-33.5 -21.5t-40.5 -26.5t-53.5 -34.5q-5 5 -8 10.5t-5 7.5q-5 6 -11.5 1.5t-1.5 -11.5q21 -29 33.5 -46.5t21 -28t14.5 -17.5t14 -16z" />
    <glyph glyph-name="logicalnot" unicode="&#xac;" horiz-adv-x="480" 
d="M399 256q-32 0 -70.5 1.5t-74.5 2.5t-66.5 1t-47.5 -2q-13 -2 -24.5 4.5t-13.5 24.5q-2 17 8.5 26t23.5 11q21 3 61.5 2.5t87 -2t91 -2.5t73.5 1q16 4 28.5 0.5t18.5 -13t4.5 -23t-12.5 -28.5q-20 -43 -39.5 -83.5t-31.5 -67.5q-8 -18 -21 -22t-23.5 1t-15.5 17.5t3 27.5
q12 23 28.5 58t40.5 87q4 8 -2.5 10.5t-11.5 -5.5z" />
    <glyph glyph-name="registered" unicode="&#xae;" horiz-adv-x="645" 
d="M85 263q0 57 21.5 106.5t58 86.5t86 58.5t106.5 21.5t106.5 -21.5t86.5 -58.5t58.5 -86.5t21.5 -106.5t-21.5 -106.5t-58.5 -86t-86.5 -58t-106.5 -21.5t-106.5 21.5t-86 58t-58 86t-21.5 106.5zM135 263q0 -46 17.5 -86.5t47.5 -70.5t70.5 -47.5t86.5 -17.5t86.5 17.5
t71 47.5t48 70.5t17.5 86.5t-17.5 86.5t-48 71t-71 48t-86.5 17.5t-86.5 -17.5t-70.5 -48t-47.5 -71t-17.5 -86.5zM246 407h162q32 0 54.5 -22.5t22.5 -54.5q0 -30 -19.5 -51.5t-48.5 -25.5l59 -98q7 -12 3.5 -21.5t-11.5 -14.5t-18.5 -3t-17.5 13l-73 124h-61v-113
q0 -13 -8 -19.5t-18 -6.5t-18 6.5t-8 19.5v267zM298 360v-60h110q11 0 19 8t8 22t-8 22t-19 8h-110z" />
    <glyph glyph-name="macron" unicode="&#xaf;" horiz-adv-x="298" 
d="M317 398q-21 -3 -39.5 -2.5t-36 2t-36 2.5t-39.5 -2q-11 -2 -22 4.5t-13 23.5q-2 14 8 23t22 11q21 3 39 2t36 -2.5t36.5 -2t39.5 2.5q11 2 22 -4.5t13 -23.5q2 -15 -8.5 -23.5t-21.5 -10.5z" />
    <glyph glyph-name="degree" unicode="&#xb0;" horiz-adv-x="280" 
d="M145 496q3 24 15 45t30 37t40.5 25t46.5 9t43.5 -9t33 -25t19.5 -37t3 -45q-4 -24 -16.5 -45t-30.5 -36.5t-40.5 -24.5t-46.5 -9t-43.5 9t-32.5 24.5t-19 36.5t-2 45zM242 431q30 0 54 21.5t29 52.5q4 24 -10 40.5t-38 16.5q-30 0 -54 -21.5t-29 -52.5q-4 -24 10 -40.5
t38 -16.5z" />
    <glyph glyph-name="plusminus" unicode="&#xb1;" horiz-adv-x="480" 
d="M396 90q-15 -2 -41 -2t-58 0.5t-66 1.5t-66 1.5t-58 0.5t-41 -2q-13 -2 -24.5 4.5t-13.5 24.5q-2 17 8.5 26t23.5 11q15 2 41 2t58 -0.5t66 -1.5t66 -1.5t58 -0.5t41 2q13 2 24.5 -4.5t13.5 -24.5q2 -17 -8.5 -26t-23.5 -11zM144 333q19 2 56 2t80 -1l-31 -65
q-32 1 -58 0.5t-41 -2.5q-13 -2 -24.5 4.5t-13.5 24.5q-2 17 8.5 26t23.5 11zM480 267q-19 -3 -54.5 -3t-77.5 2l32 65q31 -1 55 -0.5t39 2.5q13 2 24.5 -4.5t13.5 -24.5q2 -17 -8.5 -26t-23.5 -11zM422 445q-15 -27 -32.5 -61.5t-36 -71.5t-36 -74t-32.5 -69q-17 1 -33 1.5
t-33 0.5q16 32 35 72t38.5 81t38.5 79t35 67q10 18 23.5 23t24 0.5t14.5 -17.5t-6 -31z" />
    <glyph glyph-name="twosuperior" unicode="&#xb2;" horiz-adv-x="382" 
d="M458 512q-6 -41 -26.5 -75t-49 -61t-60.5 -47t-61 -34q-12 8 -31.5 19.5t-33.5 15.5q39 15 74 35t62.5 43.5t45 50.5t21.5 55q5 34 -12 52.5t-41 18.5q-23 0 -46 -18t-31 -56q-3 -15 -13.5 -21.5t-21 -5t-18.5 10.5t-5 25q5 30 19 53t33.5 38.5t41.5 24t44 8.5
q23 0 44.5 -8.5t37.5 -25t23.5 -41.5t3.5 -57zM299 210q-27 0 -47 10t-37 21.5t-33 21.5t-35 10q-10 0 -10 -7.5t9 -7.5q13 0 22 -4.5t17 -11.5q-9 -2 -14.5 -2.5t-10.5 -0.5q-29 0 -42.5 13t-13.5 30q0 16 13.5 29t39.5 13q22 0 41 -10t39 -21q16 -10 31.5 -17t29.5 -7
t26 7t24 18q10 10 21.5 9.5t19 -8t9 -19.5t-8.5 -23q-38 -43 -90 -43z" />
    <glyph glyph-name="threesuperior" unicode="&#xb3;" horiz-adv-x="374" 
d="M290 478q27 0 45 -10t29 -26t16 -36t5 -39q0 -26 -10 -53t-29.5 -49.5t-48.5 -36.5t-66 -14q-47 0 -74 20t-37.5 47.5t-5 56t23.5 46.5q11 11 22 10.5t18 -8t8 -19t-9 -23.5q-9 -10 -9.5 -23t6.5 -24t22 -19t39 -8q25 0 43 9.5t29.5 24t17 32t5.5 34.5q0 10 -2 20.5
t-7.5 19.5t-15.5 15t-26 6q-9 0 -9 -7.5t8 -7.5q11 0 20.5 -5.5t11.5 -14.5h-17q-26 0 -39.5 12.5t-13.5 26.5q0 16 13.5 29.5t36.5 13.5zM445 545q0 -31 -15 -62t-42 -53q-5 12 -12.5 23t-18.5 19q16 15 24 34t8 37q0 26 -16 38t-36 11t-37 -14.5t-20 -38.5q-2 -14 -11 -20
t-19 -5t-17.5 9t-5.5 23q4 31 21.5 53t42 33.5t51.5 12.5t50 -10t38 -33t15 -57z" />
    <glyph glyph-name="acute" unicode="&#xb4;" horiz-adv-x="247" 
d="M182 363q-12 -9 -23.5 -7.5t-18.5 9t-6.5 19t12.5 22.5l92 80q15 13 28 11t20.5 -11.5t6.5 -23t-14 -23.5z" />
    <glyph glyph-name="paragraph" unicode="&#xb6;" horiz-adv-x="600" 
d="M315 210q-36 -64 -64.5 -114t-52.5 -89q-11 -17 -7.5 -29t14 -16.5t24 0.5t24.5 23q17 30 40 69.5t48.5 83t51.5 89.5t50.5 88.5t45 79.5t35.5 63q20 36 33 72t12.5 64.5t-18 46.5t-59.5 18q-53 0 -101.5 -27.5t-84.5 -69.5t-56.5 -90t-17.5 -90t32.5 -69.5t92.5 -27.5
q14 0 27.5 1.5t27.5 3.5l-38 -66q-6 -1 -11.5 -1h-11.5q-64 0 -104 21.5t-59.5 56.5t-20 79.5t15 91t45 91t70 79.5t90.5 56.5t106 21.5q59 0 92 -23.5t43.5 -61t1 -83.5t-35.5 -91q-36 -62 -78.5 -136.5t-82.5 -145t-72.5 -127.5t-47.5 -85q-18 -32 -43 -49t-50.5 -20
t-47.5 5.5t-35.5 27t-14 45t18.5 58.5l109 190q30 -11 64 -14zM451 458q-20 -39 -42 -79t-44 -79q-23 0 -38.5 2.5t-27.5 7.5q24 42 48.5 85.5t47.5 87.5q9 18 22.5 22.5t23.5 -1t14.5 -18t-4.5 -28.5zM621 332q-61 -52 -128 -80l55 96q20 13 36 28q13 12 24.5 10
t18.5 -10.5t6.5 -21t-12.5 -22.5z" />
    <glyph glyph-name="periodcentered" unicode="&#xb7;" horiz-adv-x="480" 
d="M235 303q0 31 23 50.5t52 19.5q27 0 45.5 -17.5t18.5 -42.5q0 -14 -6 -27t-16.5 -22.5t-23.5 -15t-28 -5.5q-28 0 -46.5 17t-18.5 43z" />
    <glyph glyph-name="cedilla" unicode="&#xb8;" horiz-adv-x="263" 
d="M212 -104q0 -33 -19.5 -52t-46.5 -25.5t-56 -2t-48 16.5q-9 6 -9.5 16t4.5 17.5t14 11.5t20 -2q9 -5 23 -8t27 -2t22.5 6.5t9.5 17.5t-9 15t-18 2q-9 -8 -18.5 -7.5t-16.5 6t-9.5 15t4.5 21.5l39 63q8 13 19 15t19.5 -3.5t12 -17t-4.5 -25.5l-6 -11q-6 2 -15 1.5
t-17 -3.5q-8 -2 -6 -9.5t10 -5.5q12 4 25 2.5t24 -7.5t18.5 -17.5t7.5 -27.5z" />
    <glyph glyph-name="onesuperior" unicode="&#xb9;" horiz-adv-x="300" 
d="M177 253q30 66 64 131t69 139q4 8 -3.5 11t-12.5 -6q-5 -8 -10.5 -20.5t-11.5 -23.5q-21 -16 -44 -29.5t-43 -24.5q-15 -8 -26 -3t-15.5 15t-1 22t18.5 20q11 6 31 18t44.5 29.5t51.5 38.5t51 45q10 14 24 17.5t25 -2.5t15.5 -19.5t-4.5 -32.5q-42 -85 -82.5 -170.5
t-82.5 -177.5q-8 -17 -21 -22t-24 -1t-16 16t4 30z" />
    <glyph glyph-name="ordmasculine" unicode="&#xba;" horiz-adv-x="350" 
d="M223 341q-45 0 -65.5 23.5t-22.5 58.5q-2 31 12 65t37.5 62t55 46t66.5 18q26 0 44 -14t24 -37q-14 6 -30 1.5t-27 -12.5q-3 9 -16 9q-18 0 -38 -13t-35.5 -32.5t-25.5 -43.5t-9 -46q2 -32 33 -32q24 0 46 11q9 -26 30 -40q-39 -24 -79 -24zM346 487q-12 -14 -15 -29.5
t3 -27t19 -15t32 8.5q11 7 21 3t14 -12.5t1 -19t-18 -17.5q-28 -13 -51 -13t-39.5 11t-24.5 31t-6 46q1 21 8 39t17.5 31t23.5 20t26 7q19 0 26.5 -15t7.5 -34.5t-7 -38.5t-16 -28q-12 -2 -16.5 3t-4.5 12.5t3.5 15.5t7.5 13q5 5 0 11t-12 -2z" />
    <glyph glyph-name="guillemotright" unicode="&#xbb;" horiz-adv-x="560" 
d="M482 184q8 5 3.5 11t-10.5 2q-4 -2 -11 -6t-13 -8q-14 20 -30.5 41t-32.5 38q-12 13 -10 27t11.5 22t23.5 8t26 -16q14 -18 35.5 -44t41.5 -51q8 -9 12.5 -21t3.5 -24t-9 -23t-24 -18q-33 -20 -59 -36t-47.5 -29.5t-39.5 -25t-36 -21.5q-17 -10 -29.5 -7t-18 13t-2 22.5
t17.5 21.5q33 20 84 52t113 72zM302 184q8 5 3.5 11t-10.5 2q-4 -2 -11 -6t-13 -8q-14 20 -30.5 41t-32.5 38q-12 13 -10 27t11.5 22t23.5 8t26 -16q14 -18 35.5 -44t41.5 -51q8 -9 12.5 -21t3.5 -24t-9 -23t-24 -18q-33 -20 -59 -36t-47.5 -29.5t-39.5 -25t-36 -21.5
q-17 -10 -29.5 -7t-18 13t-2 22.5t17.5 21.5q33 20 84 52t113 72z" />
    <glyph glyph-name="onequarter" unicode="&#xbc;" horiz-adv-x="772" 
d="M725 373q7 16 19 20.5t22 1t14.5 -14.5t-2.5 -27q-42 -87 -82 -174t-79 -172q-8 -16 -20 -20.5t-22 -0.5t-14.5 15.5t2.5 26.5q40 87 81.5 172.5t80.5 172.5zM728 102q-14 -8 -28.5 -11.5t-29.5 -4.5l28 61l5 3q13 8 23.5 4.5t15.5 -12.5t2 -20.5t-16 -19.5zM691 373
q-53 -139 -107 -197q-12 5 -23.5 12t-25.5 13q27 26 51.5 73t52.5 116q6 14 16.5 18.5t20.5 1.5t15 -13t0 -24zM582 104q-20 7 -35 15.5t-27.5 15.5t-23.5 11.5t-23 4.5q-8 0 -8 -7.5t8 -7.5q10 0 17.5 -3t15.5 -8q-8 -2 -15 -2.5t-14 -0.5q-22 0 -32 11t-10 24
q0 15 13.5 27.5t40.5 12.5q14 0 28.5 -5.5t29 -13t29.5 -14.5t29 -11zM196 13q-13 -13 -26.5 -12.5t-21.5 9t-8.5 22t12.5 25.5q60 57 130.5 127t142.5 142.5t140 142t123 123.5q15 15 29 15t22 -9t7 -23t-14 -27q-60 -57 -130.5 -127t-142.5 -143t-140 -142t-123 -123z
M177 253q30 66 64 131t69 139q4 8 -3.5 11t-12.5 -6q-5 -8 -10.5 -20.5t-11.5 -23.5q-21 -16 -44 -29.5t-43 -24.5q-15 -8 -26 -3t-15.5 15t-1 22t18.5 20q11 6 31 18t44.5 29.5t51.5 38.5t51 45q10 14 24 17.5t25 -2.5t15.5 -19.5t-4.5 -32.5q-42 -85 -82.5 -170.5
t-82.5 -177.5q-8 -17 -21 -22t-24 -1t-16 16t4 30z" />
    <glyph glyph-name="onehalf" unicode="&#xbd;" horiz-adv-x="801" 
d="M196 13q-13 -13 -26.5 -12.5t-21.5 9t-8.5 22t12.5 25.5q60 57 130.5 127t142.5 142.5t140 142t123 123.5q15 15 29 15t22 -9t7 -23t-14 -27q-60 -57 -130.5 -127t-142.5 -143t-140 -142t-123 -123zM177 253q30 66 64 131t69 139q4 8 -3.5 11t-12.5 -6q-5 -8 -10.5 -20.5
t-11.5 -23.5q-21 -16 -44 -29.5t-43 -24.5q-15 -8 -26 -3t-15.5 15t-1 22t18.5 20q11 6 31 18t44.5 29.5t51.5 38.5t51 45q10 14 24 17.5t25 -2.5t15.5 -19.5t-4.5 -32.5q-42 -85 -82.5 -170.5t-82.5 -177.5q-8 -17 -21 -22t-24 -1t-16 16t4 30zM811 276q-6 -41 -26.5 -75
t-49 -61t-60.5 -47t-61 -34q-12 8 -31.5 19.5t-33.5 15.5q39 15 74 35t62.5 43.5t45 50.5t21.5 55q5 34 -12 52.5t-41 18.5q-23 0 -46 -18t-31 -56q-3 -15 -13.5 -21.5t-21 -5t-18.5 10.5t-5 25q5 30 19 53t33.5 38.5t41.5 24t44 8.5q23 0 44.5 -8.5t37.5 -25t23.5 -41.5
t3.5 -57zM652 -26q-27 0 -47 10t-37 21.5t-33 21.5t-35 10q-10 0 -10 -7.5t9 -7.5q13 0 22 -4.5t17 -11.5q-9 -2 -14.5 -2.5t-10.5 -0.5q-29 0 -42.5 13t-13.5 30q0 16 13.5 29t39.5 13q22 0 41 -10t39 -21q16 -10 31.5 -17t29.5 -7t26 7t24 18q10 10 21.5 9.5t19 -8
t9 -19.5t-8.5 -23q-38 -43 -90 -43z" />
    <glyph glyph-name="threequarters" unicode="&#xbe;" horiz-adv-x="799" 
d="M752 373q7 16 19 20.5t22 1t14.5 -14.5t-2.5 -27q-42 -87 -82 -174t-79 -172q-8 -16 -20 -20.5t-22 -0.5t-14.5 15.5t2.5 26.5q40 87 81.5 172.5t80.5 172.5zM755 102q-14 -8 -28.5 -11.5t-29.5 -4.5l28 61l5 3q13 8 23.5 4.5t15.5 -12.5t2 -20.5t-16 -19.5zM718 373
q-53 -139 -107 -197q-12 5 -23.5 12t-25.5 13q27 26 51.5 73t52.5 116q6 14 16.5 18.5t20.5 1.5t15 -13t0 -24zM516 197q14 0 28.5 -5.5t29 -13t29.5 -14.5t29 -11l-23 -49q-20 7 -35 15.5t-27.5 15.5t-23.5 11.5t-23 4.5q-8 0 -8 -7.5t8 -7.5q10 0 17.5 -3t15.5 -8
q-8 -2 -15 -2.5t-14 -0.5q-22 0 -32 11t-10 24q0 15 13.5 27.5t40.5 12.5zM223 13q-13 -13 -26.5 -12.5t-21.5 9t-8.5 22t12.5 25.5q60 57 130.5 127t142.5 142.5t140 142t123 123.5q15 15 29 15t22 -9t7 -23t-14 -27q-60 -57 -130.5 -127t-142.5 -143t-140 -142t-123 -123z
M290 478q27 0 45 -10t29 -26t16 -36t5 -39q0 -26 -10 -53t-29.5 -49.5t-48.5 -36.5t-66 -14q-47 0 -74 20t-37.5 47.5t-5 56t23.5 46.5q11 11 22 10.5t18 -8t8 -19t-9 -23.5q-9 -10 -9.5 -23t6.5 -24t22 -19t39 -8q25 0 43 9.5t29.5 24t17 32t5.5 34.5q0 10 -2 20.5
t-7.5 19.5t-15.5 15t-26 6q-9 0 -9 -7.5t8 -7.5q11 0 20.5 -5.5t11.5 -14.5h-17q-26 0 -39.5 12.5t-13.5 26.5q0 16 13.5 29.5t36.5 13.5zM445 545q0 -31 -15 -62t-42 -53q-5 12 -12.5 23t-18.5 19q16 15 24 34t8 37q0 26 -16 38t-36 11t-37 -14.5t-20 -38.5q-2 -14 -11 -20
t-19 -5t-17.5 9t-5.5 23q4 31 21.5 53t42 33.5t51.5 12.5t50 -10t38 -33t15 -57z" />
    <glyph glyph-name="questiondown" unicode="&#xbf;" horiz-adv-x="463" 
d="M485 469q0 -31 -23 -50.5t-52 -19.5q-27 0 -45.5 17.5t-18.5 42.5q0 14 6 27t16.5 22.5t23.5 15t28 5.5q28 0 46.5 -17t18.5 -43zM343 325q-6 -28 -21.5 -41.5t-32.5 -19.5q4 18 10.5 35t16 30.5t23 22.5t31.5 9q13 0 22.5 -7t15 -18.5t5 -25.5t-6.5 -29q-15 -34 -39 -53
t-52 -31.5t-57 -22.5t-53 -24.5t-41 -38.5t-21 -65q-2 -23 6 -40.5t23 -29t33.5 -17.5t37.5 -6q21 0 41.5 7t37 21.5t27 35.5t10.5 49q0 15 10.5 23.5t23 9t23 -8t10.5 -27.5q0 -43 -17 -76t-44.5 -55.5t-62 -34.5t-69.5 -12q-30 0 -60 11.5t-53.5 33.5t-36 54.5t-6.5 75.5
q6 50 28 80t51 48.5t62 30t62.5 24t51 30t27.5 49.5q1 4 -1.5 6.5t-5.5 3t-5.5 -1t-3.5 -5.5z" />
    <glyph glyph-name="Agrave" unicode="&#xc0;" horiz-adv-x="653" 
d="M139 156q0 -57 25 -87.5t66.5 -35t94 16.5t107.5 65q-1 -9 -1.5 -17.5t-0.5 -16.5q0 -11 1 -21.5t4 -23.5q-66 -45 -131.5 -62.5t-117.5 -4.5t-84 57.5t-32 123.5q0 68 24 141t65.5 142.5t95.5 131t114.5 108t123 73.5t119.5 27q71 0 102 -34t31 -82q0 -47 -24 -98
t-67 -87q-15 -12 -29 -10.5t-22 10.5t-7.5 23t15.5 27q13 12 26 27t22.5 31.5t15.5 34t6 32.5q0 25 -17 41.5t-59 16.5q-43 0 -94.5 -23t-103 -62.5t-100 -93t-86 -114.5t-60 -126.5t-22.5 -129.5zM446 81q0 35 10 74.5t27 79t39 75t45.5 63t46.5 44t42 16.5q36 0 36 -45
q0 -29 -15.5 -65t-39 -73.5t-51.5 -72.5t-52 -61q3 27 16 60.5t30.5 66t38 60t38.5 44.5q8 7 3 13t-13 0q-21 -18 -44.5 -50t-43.5 -70t-33 -79t-13 -77q0 -33 15 -41t36.5 -0.5t45.5 25.5t43 37q8 8 20 8.5t21 -8.5t8.5 -21t-8.5 -20q-42 -42 -86 -63.5t-80 -21t-59 25.5
t-23 76zM558 891q-10 15 -6 28t14 19.5t23.5 3.5t22.5 -20l43 -77q7 -14 3.5 -25t-12.5 -15.5t-20.5 -2t-19.5 15.5z" />
    <glyph glyph-name="Aacute" unicode="&#xc1;" horiz-adv-x="653" 
d="M139 156q0 -57 25 -87.5t66.5 -35t94 16.5t107.5 65q-1 -9 -1.5 -17.5t-0.5 -16.5q0 -11 1 -21.5t4 -23.5q-66 -45 -131.5 -62.5t-117.5 -4.5t-84 57.5t-32 123.5q0 68 24 141t65.5 142.5t95.5 131t114.5 108t123 73.5t119.5 27q71 0 102 -34t31 -82q0 -47 -24 -98
t-67 -87q-15 -12 -29 -10.5t-22 10.5t-7.5 23t15.5 27q13 12 26 27t22.5 31.5t15.5 34t6 32.5q0 25 -17 41.5t-59 16.5q-43 0 -94.5 -23t-103 -62.5t-100 -93t-86 -114.5t-60 -126.5t-22.5 -129.5zM446 81q0 35 10 74.5t27 79t39 75t45.5 63t46.5 44t42 16.5q36 0 36 -45
q0 -29 -15.5 -65t-39 -73.5t-51.5 -72.5t-52 -61q3 27 16 60.5t30.5 66t38 60t38.5 44.5q8 7 3 13t-13 0q-21 -18 -44.5 -50t-43.5 -70t-33 -79t-13 -77q0 -33 15 -41t36.5 -0.5t45.5 25.5t43 37q8 8 20 8.5t21 -8.5t8.5 -21t-8.5 -20q-42 -42 -86 -63.5t-80 -21t-59 25.5
t-23 76zM638 809q-12 -9 -23.5 -7.5t-18.5 9t-6.5 19t12.5 22.5l92 80q15 13 28 11t20.5 -11.5t6.5 -23t-14 -23.5z" />
    <glyph glyph-name="Acircumflex" unicode="&#xc2;" horiz-adv-x="653" 
d="M139 156q0 -57 25 -87.5t66.5 -35t94 16.5t107.5 65q-1 -9 -1.5 -17.5t-0.5 -16.5q0 -11 1 -21.5t4 -23.5q-66 -45 -131.5 -62.5t-117.5 -4.5t-84 57.5t-32 123.5q0 68 24 141t65.5 142.5t95.5 131t114.5 108t123 73.5t119.5 27q71 0 102 -34t31 -82q0 -47 -24 -98
t-67 -87q-15 -12 -29 -10.5t-22 10.5t-7.5 23t15.5 27q13 12 26 27t22.5 31.5t15.5 34t6 32.5q0 25 -17 41.5t-59 16.5q-43 0 -94.5 -23t-103 -62.5t-100 -93t-86 -114.5t-60 -126.5t-22.5 -129.5zM446 81q0 35 10 74.5t27 79t39 75t45.5 63t46.5 44t42 16.5q36 0 36 -45
q0 -29 -15.5 -65t-39 -73.5t-51.5 -72.5t-52 -61q3 27 16 60.5t30.5 66t38 60t38.5 44.5q8 7 3 13t-13 0q-21 -18 -44.5 -50t-43.5 -70t-33 -79t-13 -77q0 -33 15 -41t36.5 -0.5t45.5 25.5t43 37q8 8 20 8.5t21 -8.5t8.5 -21t-8.5 -20q-42 -42 -86 -63.5t-80 -21t-59 25.5
t-23 76zM643 883q-5 8 -12 4t-3 -11l10 -17l-78 -54q-13 -9 -24.5 -6t-17.5 11.5t-5 20t14 21.5l106 79q22 16 36.5 9.5t21.5 -18.5l41 -79q7 -14 3 -25t-13.5 -15.5t-21 -2t-19.5 15.5z" />
    <glyph glyph-name="Atilde" unicode="&#xc3;" horiz-adv-x="653" 
d="M139 156q0 -57 25 -87.5t66.5 -35t94 16.5t107.5 65q-1 -9 -1.5 -17.5t-0.5 -16.5q0 -11 1 -21.5t4 -23.5q-66 -45 -131.5 -62.5t-117.5 -4.5t-84 57.5t-32 123.5q0 68 24 141t65.5 142.5t95.5 131t114.5 108t123 73.5t119.5 27q71 0 102 -34t31 -82q0 -47 -24 -98
t-67 -87q-15 -12 -29 -10.5t-22 10.5t-7.5 23t15.5 27q13 12 26 27t22.5 31.5t15.5 34t6 32.5q0 25 -17 41.5t-59 16.5q-43 0 -94.5 -23t-103 -62.5t-100 -93t-86 -114.5t-60 -126.5t-22.5 -129.5zM446 81q0 35 10 74.5t27 79t39 75t45.5 63t46.5 44t42 16.5q36 0 36 -45
q0 -29 -15.5 -65t-39 -73.5t-51.5 -72.5t-52 -61q3 27 16 60.5t30.5 66t38 60t38.5 44.5q8 7 3 13t-13 0q-21 -18 -44.5 -50t-43.5 -70t-33 -79t-13 -77q0 -33 15 -41t36.5 -0.5t45.5 25.5t43 37q8 8 20 8.5t21 -8.5t8.5 -21t-8.5 -20q-42 -42 -86 -63.5t-80 -21t-59 25.5
t-23 76zM574 822q-8 -8 -20.5 -8t-23.5 11q-9 11 -6 23.5t12 20.5q15 14 29 21.5t31 7.5q13 0 23.5 -4t19.5 -8.5t17.5 -8t17.5 -3.5q5 0 11 2t13 8q8 8 20.5 8t23.5 -12q9 -10 6 -23t-12 -21q-15 -14 -29 -21t-31 -7q-14 0 -24.5 3.5t-20 8t-18 8.5t-16.5 4q-5 0 -11 -2
t-12 -8z" />
    <glyph glyph-name="Adieresis" unicode="&#xc4;" horiz-adv-x="653" 
d="M139 156q0 -57 25 -87.5t66.5 -35t94 16.5t107.5 65q-1 -9 -1.5 -17.5t-0.5 -16.5q0 -11 1 -21.5t4 -23.5q-66 -45 -131.5 -62.5t-117.5 -4.5t-84 57.5t-32 123.5q0 68 24 141t65.5 142.5t95.5 131t114.5 108t123 73.5t119.5 27q71 0 102 -34t31 -82q0 -47 -24 -98
t-67 -87q-15 -12 -29 -10.5t-22 10.5t-7.5 23t15.5 27q13 12 26 27t22.5 31.5t15.5 34t6 32.5q0 25 -17 41.5t-59 16.5q-43 0 -94.5 -23t-103 -62.5t-100 -93t-86 -114.5t-60 -126.5t-22.5 -129.5zM446 81q0 35 10 74.5t27 79t39 75t45.5 63t46.5 44t42 16.5q36 0 36 -45
q0 -29 -15.5 -65t-39 -73.5t-51.5 -72.5t-52 -61q3 27 16 60.5t30.5 66t38 60t38.5 44.5q8 7 3 13t-13 0q-21 -18 -44.5 -50t-43.5 -70t-33 -79t-13 -77q0 -33 15 -41t36.5 -0.5t45.5 25.5t43 37q8 8 20 8.5t21 -8.5t8.5 -21t-8.5 -20q-42 -42 -86 -63.5t-80 -21t-59 25.5
t-23 76zM485 878q2 24 21 40.5t45 16.5q25 0 41.5 -16.5t14.5 -40.5t-20.5 -40.5t-43.5 -16.5q-26 0 -43 16.5t-15 40.5zM640 878q2 24 21 40.5t45 16.5q25 0 42 -16.5t15 -40.5t-21 -40.5t-44 -16.5q-26 0 -43 16.5t-15 40.5z" />
    <glyph glyph-name="Aring" unicode="&#xc5;" horiz-adv-x="653" 
d="M139 156q0 -57 25 -87.5t66.5 -35t94 16.5t107.5 65q-1 -9 -1.5 -17.5t-0.5 -16.5q0 -11 1 -21.5t4 -23.5q-66 -45 -131.5 -62.5t-117.5 -4.5t-84 57.5t-32 123.5q0 68 24 141t65.5 142.5t95.5 131t114.5 108t123 73.5t119.5 27q71 0 102 -34t31 -82q0 -47 -24 -98
t-67 -87q-15 -12 -29 -10.5t-22 10.5t-7.5 23t15.5 27q13 12 26 27t22.5 31.5t15.5 34t6 32.5q0 25 -17 41.5t-59 16.5q-43 0 -94.5 -23t-103 -62.5t-100 -93t-86 -114.5t-60 -126.5t-22.5 -129.5zM446 81q0 35 10 74.5t27 79t39 75t45.5 63t46.5 44t42 16.5q36 0 36 -45
q0 -29 -15.5 -65t-39 -73.5t-51.5 -72.5t-52 -61q3 27 16 60.5t30.5 66t38 60t38.5 44.5q8 7 3 13t-13 0q-21 -18 -44.5 -50t-43.5 -70t-33 -79t-13 -77q0 -33 15 -41t36.5 -0.5t45.5 25.5t43 37q8 8 20 8.5t21 -8.5t8.5 -21t-8.5 -20q-42 -42 -86 -63.5t-80 -21t-59 25.5
t-23 76zM543 866q0 16 7 33t19.5 30t29.5 21.5t37 8.5q31 0 50.5 -19.5t19.5 -49.5q0 -19 -8 -36t-21 -29.5t-30 -19.5t-35 -7q-31 0 -50 19t-19 49zM596 874q0 -24 24 -24q13 0 24 10.5t11 24.5q0 10 -6.5 16.5t-17.5 6.5q-14 0 -24.5 -11.5t-10.5 -22.5z" />
    <glyph glyph-name="AE" unicode="&#xc6;" horiz-adv-x="958" 
d="M605 694q-43 0 -94.5 -23t-103 -62.5t-100 -93t-86 -114.5t-60 -126.5t-22.5 -129.5q0 -63 30 -93t78 -29.5t107.5 30t119.5 86.5q1 -38 14 -74q-71 -61 -145 -89.5t-135 -21t-99.5 52.5t-38.5 132q0 68 24 141t65.5 142.5t95.5 131t114.5 108t123 73.5t119.5 27
q71 0 102 -34t31 -82q0 -47 -24 -98t-67 -87q-15 -12 -29 -10.5t-22 10.5t-7.5 23t15.5 27q13 12 26 27t22.5 31.5t15.5 34t6 32.5q0 25 -17 41.5t-59 16.5zM860 357q-37 11 -64 35q23 5 52.5 6t52.5 -6q8 -2 11 5t-6 10q-11 4 -25.5 5.5t-28.5 1.5q-55 0 -100.5 -15
t-81.5 -40q5 -11 0.5 -32t-15.5 -47q-15 -34 -36.5 -67t-52.5 -68q0 36 7.5 69.5t29.5 62.5q5 7 -0.5 12.5t-12.5 -2.5q-24 -29 -31.5 -66t-7.5 -72q0 -30 10.5 -56.5t32.5 -47t55.5 -32t78.5 -11.5q30 0 61.5 7.5t61.5 21t57.5 32.5t49.5 42q8 8 20 8.5t21 -8.5t8.5 -21
t-8.5 -20q-55 -60 -130.5 -93t-149.5 -33q-91 0 -145.5 39.5t-74 99t-5 128.5t61 128.5t123.5 99t184 39.5q37 0 60 -11.5t33.5 -27.5t9 -34t-14 -31t-36 -17.5t-55.5 6.5zM992 710q-45 0 -83 -22t-62.5 -55t-33.5 -73t4 -76q-18 -1 -34.5 -3.5t-32.5 -7.5q-12 47 0 99.5
t44.5 97t84.5 73.5t121 29q53 0 83.5 -29t38 -70t-7.5 -84.5t-53 -72.5q-14 -11 -27 -8.5t-20 11.5t-6 22t14 24q18 15 28.5 39.5t9 48t-17.5 40.5t-50 17z" />
    <glyph glyph-name="Ccedilla" unicode="&#xc7;" horiz-adv-x="539" 
d="M575 773q71 0 102 -34t31 -82q0 -47 -24 -98t-67 -87q-15 -12 -29 -10.5t-22 10.5t-7.5 23t15.5 27q13 12 26 27t22.5 31.5t15.5 34t6 32.5q0 25 -17 41.5t-59 16.5q-43 0 -91.5 -21t-96.5 -58t-91.5 -86.5t-76.5 -106t-53 -117.5t-20 -120q0 -52 13.5 -88.5t37 -60
t54 -34t65.5 -10.5q30 0 61.5 7.5t61.5 21t57.5 32.5t49.5 41q8 8 20 8.5t21 -8.5t8.5 -21t-8.5 -20q-51 -51 -109.5 -82.5t-124.5 -39.5q-26 -3 -41.5 -9.5t-29.5 -25.5q-6 2 -15.5 2t-17.5 -4q-8 -2 -6 -10t10 -5q12 4 25 2.5t24 -8t18.5 -18t7.5 -27.5q0 -33 -19.5 -52
t-46.5 -25.5t-56 -2t-48 16.5q-9 6 -9.5 16t4.5 18t14 11.5t20 -2.5q9 -5 23 -7.5t27 -1.5t22.5 6.5t9.5 17.5q0 11 -9 14t-18 2q-9 -8 -18 -8t-15.5 5t-9 15t2.5 23q13 34 34.5 50t37.5 16q8 0 8.5 8.5t-9.5 8.5q-24 0 -43 -18q-66 20 -109.5 78t-43.5 162q0 65 21.5 134
t58.5 133.5t86.5 122t105.5 100.5t116 68t117 25z" />
    <glyph glyph-name="Egrave" unicode="&#xc8;" horiz-adv-x="540" 
d="M574 710q-45 0 -83 -22t-62.5 -55t-33.5 -73t4 -76q-18 -1 -34.5 -3.5t-32.5 -7.5q-12 47 0 99.5t44.5 97t84.5 73.5t121 29q53 0 83.5 -29t38 -70t-7.5 -84.5t-53 -72.5q-14 -11 -27 -8.5t-20 11.5t-6 22t14 24q18 15 28.5 39.5t9 48t-17.5 40.5t-50 17zM442 357
q-37 11 -64 35q23 5 52.5 5.5t52.5 -5.5q8 -2 10.5 5t-6.5 10q-11 4 -25 5.5t-28 1.5q-79 0 -139.5 -30.5t-99.5 -76.5t-54 -99t-2 -99t54.5 -76.5t116.5 -30.5q60 0 121.5 28t108.5 75q8 8 20 8.5t21 -8.5t8.5 -21t-8.5 -20q-55 -55 -124 -90.5t-156 -35.5
q-91 0 -145.5 39.5t-74 99t-5 128.5t61 128.5t123.5 99t184 39.5q37 0 60 -11.5t33.5 -27.5t9 -34t-14 -31t-36 -17.5t-55.5 6.5zM510 891q-10 15 -6 28t14 19.5t23.5 3.5t22.5 -20l43 -77q7 -14 3.5 -25t-12.5 -15.5t-20.5 -2t-19.5 15.5z" />
    <glyph glyph-name="Eacute" unicode="&#xc9;" horiz-adv-x="540" 
d="M574 710q-45 0 -83 -22t-62.5 -55t-33.5 -73t4 -76q-18 -1 -34.5 -3.5t-32.5 -7.5q-12 47 0 99.5t44.5 97t84.5 73.5t121 29q53 0 83.5 -29t38 -70t-7.5 -84.5t-53 -72.5q-14 -11 -27 -8.5t-20 11.5t-6 22t14 24q18 15 28.5 39.5t9 48t-17.5 40.5t-50 17zM442 357
q-37 11 -64 35q23 5 52.5 5.5t52.5 -5.5q8 -2 10.5 5t-6.5 10q-11 4 -25 5.5t-28 1.5q-79 0 -139.5 -30.5t-99.5 -76.5t-54 -99t-2 -99t54.5 -76.5t116.5 -30.5q60 0 121.5 28t108.5 75q8 8 20 8.5t21 -8.5t8.5 -21t-8.5 -20q-55 -55 -124 -90.5t-156 -35.5
q-91 0 -145.5 39.5t-74 99t-5 128.5t61 128.5t123.5 99t184 39.5q37 0 60 -11.5t33.5 -27.5t9 -34t-14 -31t-36 -17.5t-55.5 6.5zM604 809q-12 -9 -23.5 -7.5t-18.5 9t-6.5 19t12.5 22.5l92 80q15 13 28 11t20.5 -11.5t6.5 -23t-14 -23.5z" />
    <glyph glyph-name="Ecircumflex" unicode="&#xca;" horiz-adv-x="540" 
d="M574 710q-45 0 -83 -22t-62.5 -55t-33.5 -73t4 -76q-18 -1 -34.5 -3.5t-32.5 -7.5q-12 47 0 99.5t44.5 97t84.5 73.5t121 29q53 0 83.5 -29t38 -70t-7.5 -84.5t-53 -72.5q-14 -11 -27 -8.5t-20 11.5t-6 22t14 24q18 15 28.5 39.5t9 48t-17.5 40.5t-50 17zM442 357
q-37 11 -64 35q23 5 52.5 5.5t52.5 -5.5q8 -2 10.5 5t-6.5 10q-11 4 -25 5.5t-28 1.5q-79 0 -139.5 -30.5t-99.5 -76.5t-54 -99t-2 -99t54.5 -76.5t116.5 -30.5q60 0 121.5 28t108.5 75q8 8 20 8.5t21 -8.5t8.5 -21t-8.5 -20q-55 -55 -124 -90.5t-156 -35.5
q-91 0 -145.5 39.5t-74 99t-5 128.5t61 128.5t123.5 99t184 39.5q37 0 60 -11.5t33.5 -27.5t9 -34t-14 -31t-36 -17.5t-55.5 6.5zM607 879q-5 8 -12 4t-3 -11l10 -17l-78 -54q-13 -9 -24.5 -6t-17.5 11.5t-5 20t14 21.5l106 79q22 16 36.5 9.5t21.5 -18.5l41 -79
q7 -14 3 -25t-13.5 -15.5t-21 -2t-19.5 15.5z" />
    <glyph glyph-name="Edieresis" unicode="&#xcb;" horiz-adv-x="540" 
d="M574 710q-45 0 -83 -22t-62.5 -55t-33.5 -73t4 -76q-18 -1 -34.5 -3.5t-32.5 -7.5q-12 47 0 99.5t44.5 97t84.5 73.5t121 29q53 0 83.5 -29t38 -70t-7.5 -84.5t-53 -72.5q-14 -11 -27 -8.5t-20 11.5t-6 22t14 24q18 15 28.5 39.5t9 48t-17.5 40.5t-50 17zM442 357
q-37 11 -64 35q23 5 52.5 5.5t52.5 -5.5q8 -2 10.5 5t-6.5 10q-11 4 -25 5.5t-28 1.5q-79 0 -139.5 -30.5t-99.5 -76.5t-54 -99t-2 -99t54.5 -76.5t116.5 -30.5q60 0 121.5 28t108.5 75q8 8 20 8.5t21 -8.5t8.5 -21t-8.5 -20q-55 -55 -124 -90.5t-156 -35.5
q-91 0 -145.5 39.5t-74 99t-5 128.5t61 128.5t123.5 99t184 39.5q37 0 60 -11.5t33.5 -27.5t9 -34t-14 -31t-36 -17.5t-55.5 6.5zM465 878q2 24 21 40.5t45 16.5q25 0 41.5 -16.5t14.5 -40.5t-20.5 -40.5t-43.5 -16.5q-26 0 -43 16.5t-15 40.5zM620 878q2 24 21 40.5
t45 16.5q25 0 42 -16.5t15 -40.5t-21 -40.5t-44 -16.5q-26 0 -43 16.5t-15 40.5z" />
    <glyph glyph-name="Igrave" unicode="&#xcc;" horiz-adv-x="597" 
d="M581 891q-10 15 -6 28t14 19.5t23.5 3.5t22.5 -20l43 -77q7 -14 3.5 -25t-12.5 -15.5t-20.5 -2t-19.5 15.5zM707 685q0 -41 -7 -92.5t-22 -108.5t-37 -116t-52 -114q-16 7 -31.5 12.5t-30.5 10.5q26 46 46.5 96.5t35 102t23 101.5t10.5 96q1 15 -9.5 17t-22.5 -21
q-15 -28 -25 -60.5t-16 -66.5t-8.5 -69t-2.5 -68q0 -19 -10 -29.5t-22 -10.5t-22 10t-10 32q0 80 12.5 147.5t33.5 116t49 75.5t59 27q32 0 45.5 -23t13.5 -65zM473 194q16 -4 32.5 -8.5t33.5 -10.5q-29 -41 -63.5 -75.5t-74.5 -60t-85.5 -40t-96.5 -14.5q-40 0 -69 10.5
t-48 28.5t-28 41.5t-9 49.5q0 34 17.5 65.5t51 56t82 39t109.5 14.5q36 0 69.5 -2.5t67 -9t68.5 -18t73 -29.5q16 -8 20 -21t-0.5 -24t-17 -16t-28.5 3q-32 16 -65.5 26.5t-66.5 16.5t-63.5 8t-55.5 2q-43 0 -78.5 -8.5t-60.5 -22.5t-39 -34t-14 -42q0 -30 20.5 -49
t66.5 -19q75 0 138 40.5t114 102.5z" />
    <glyph glyph-name="Iacute" unicode="&#xcd;" horiz-adv-x="597" 
d="M654 809q-12 -9 -23.5 -7.5t-18.5 9t-6.5 19t12.5 22.5l92 80q15 13 28 11t20.5 -11.5t6.5 -23t-14 -23.5zM707 685q0 -41 -7 -92.5t-22 -108.5t-37 -116t-52 -114q-16 7 -31.5 12.5t-30.5 10.5q26 46 46.5 96.5t35 102t23 101.5t10.5 96q1 15 -9.5 17t-22.5 -21
q-15 -28 -25 -60.5t-16 -66.5t-8.5 -69t-2.5 -68q0 -19 -10 -29.5t-22 -10.5t-22 10t-10 32q0 80 12.5 147.5t33.5 116t49 75.5t59 27q32 0 45.5 -23t13.5 -65zM473 194q16 -4 32.5 -8.5t33.5 -10.5q-29 -41 -63.5 -75.5t-74.5 -60t-85.5 -40t-96.5 -14.5q-40 0 -69 10.5
t-48 28.5t-28 41.5t-9 49.5q0 34 17.5 65.5t51 56t82 39t109.5 14.5q36 0 69.5 -2.5t67 -9t68.5 -18t73 -29.5q16 -8 20 -21t-0.5 -24t-17 -16t-28.5 3q-32 16 -65.5 26.5t-66.5 16.5t-63.5 8t-55.5 2q-43 0 -78.5 -8.5t-60.5 -22.5t-39 -34t-14 -42q0 -30 20.5 -49
t66.5 -19q75 0 138 40.5t114 102.5z" />
    <glyph glyph-name="Icircumflex" unicode="&#xce;" horiz-adv-x="597" 
d="M658 890q-5 8 -12 4t-3 -11l10 -17l-78 -54q-13 -9 -24.5 -6t-17.5 11.5t-5 20t14 21.5l106 79q22 16 36.5 9.5t21.5 -18.5l41 -79q7 -14 3 -25t-13.5 -15.5t-21 -2t-19.5 15.5zM707 685q0 -41 -7 -92.5t-22 -108.5t-37 -116t-52 -114q-16 7 -31.5 12.5t-30.5 10.5
q26 46 46.5 96.5t35 102t23 101.5t10.5 96q1 15 -9.5 17t-22.5 -21q-15 -28 -25 -60.5t-16 -66.5t-8.5 -69t-2.5 -68q0 -19 -10 -29.5t-22 -10.5t-22 10t-10 32q0 80 12.5 147.5t33.5 116t49 75.5t59 27q32 0 45.5 -23t13.5 -65zM473 194q16 -4 32.5 -8.5t33.5 -10.5
q-29 -41 -63.5 -75.5t-74.5 -60t-85.5 -40t-96.5 -14.5q-40 0 -69 10.5t-48 28.5t-28 41.5t-9 49.5q0 34 17.5 65.5t51 56t82 39t109.5 14.5q36 0 69.5 -2.5t67 -9t68.5 -18t73 -29.5q16 -8 20 -21t-0.5 -24t-17 -16t-28.5 3q-32 16 -65.5 26.5t-66.5 16.5t-63.5 8t-55.5 2
q-43 0 -78.5 -8.5t-60.5 -22.5t-39 -34t-14 -42q0 -30 20.5 -49t66.5 -19q75 0 138 40.5t114 102.5z" />
    <glyph glyph-name="Idieresis" unicode="&#xcf;" horiz-adv-x="597" 
d="M515 878q2 24 21 40.5t45 16.5q25 0 41.5 -16.5t14.5 -40.5t-20.5 -40.5t-43.5 -16.5q-26 0 -43 16.5t-15 40.5zM670 878q2 24 21 40.5t45 16.5q25 0 42 -16.5t15 -40.5t-21 -40.5t-44 -16.5q-26 0 -43 16.5t-15 40.5zM707 685q0 -41 -7 -92.5t-22 -108.5t-37 -116
t-52 -114q-16 7 -31.5 12.5t-30.5 10.5q26 46 46.5 96.5t35 102t23 101.5t10.5 96q1 15 -9.5 17t-22.5 -21q-15 -28 -25 -60.5t-16 -66.5t-8.5 -69t-2.5 -68q0 -19 -10 -29.5t-22 -10.5t-22 10t-10 32q0 80 12.5 147.5t33.5 116t49 75.5t59 27q32 0 45.5 -23t13.5 -65z
M473 194q16 -4 32.5 -8.5t33.5 -10.5q-29 -41 -63.5 -75.5t-74.5 -60t-85.5 -40t-96.5 -14.5q-40 0 -69 10.5t-48 28.5t-28 41.5t-9 49.5q0 34 17.5 65.5t51 56t82 39t109.5 14.5q36 0 69.5 -2.5t67 -9t68.5 -18t73 -29.5q16 -8 20 -21t-0.5 -24t-17 -16t-28.5 3
q-32 16 -65.5 26.5t-66.5 16.5t-63.5 8t-55.5 2q-43 0 -78.5 -8.5t-60.5 -22.5t-39 -34t-14 -42q0 -30 20.5 -49t66.5 -19q75 0 138 40.5t114 102.5z" />
    <glyph glyph-name="Eth" unicode="&#xd0;" horiz-adv-x="740" 
d="M403 689q-58 0 -100 -27t-63.5 -68t-20 -90.5t31.5 -95.5q13 -20 10 -35t-14.5 -22t-27 -4.5t-26.5 19.5q-26 38 -36 82t-5 87t23.5 83t50 70.5t75 49t97.5 18.5q101 0 174 -40t119 -104.5t64.5 -144t10.5 -158.5t-42 -149.5t-94.5 -115.5t-146.5 -56t-197 27
q16 10 31.5 21t29.5 25q85 -24 150 -10t109 54t68 98.5t27.5 123.5t-13.5 129.5t-54.5 116.5t-95 84t-135.5 32zM717 637q16 9 29.5 2.5t19.5 -19.5t4 -27.5t-16 -21.5q-3 -2 -8 -4.5t-9 -5.5q-16 33 -39 64zM575 242q-23 -3 -61 -2.5t-79.5 2t-80 2.5t-60.5 -2
q-13 -2 -24.5 4.5t-13.5 24.5q-2 17 8.5 26t23.5 11q22 3 60.5 2t80 -2.5t79.5 -2t61 2.5q13 2 24.5 -4.5t13.5 -24.5q2 -17 -8.5 -26t-23.5 -11zM149 -8q-27 0 -45 10t-26 25t-7.5 33t10 33t26.5 25t42 10q31 0 52 -5.5t45 -13.5q-15 -14 -42.5 -26t-53.5 -12q-8 0 -8 -8
t8 -8q30 0 59.5 13.5t57.5 36.5t55 54.5t53 67.5q25 0 45 -1t40 -1q-30 -46 -63 -88t-71 -74.5t-81.5 -51.5t-95.5 -19zM622 563q11 -16 20 -32.5t17 -34.5q-37 -29 -70 -74.5t-67 -99.5h-39.5t-41.5 1q45 69 89.5 133t91.5 107z" />
    <glyph glyph-name="Ntilde" unicode="&#xd1;" horiz-adv-x="600" 
d="M528 684q-8 -8 -20.5 -8t-23.5 11q-9 11 -6 23.5t12 20.5q15 14 29 21.5t31 7.5q13 0 23.5 -4t19.5 -8.5t17.5 -8t17.5 -3.5q5 0 11 2t13 8q8 8 20.5 8t23.5 -12q9 -10 6 -23t-12 -21q-15 -14 -29 -21t-31 -7q-14 0 -24.5 3.5t-20 8t-18 8.5t-16.5 4q-5 0 -11 -2t-12 -8z
M285 704q-32 0 -65.5 -24t-51.5 -63q-8 -16 -21 -20.5t-24 0.5t-16 18t4 31q13 28 32 50t42 37.5t48 23.5t50 8q46 0 76.5 -17.5t47 -47.5t21 -71t-0.5 -88q-19 -13 -38 -27t-37 -30q10 45 12.5 85t-4.5 70t-25.5 47.5t-49.5 17.5zM147 45q-2 -8 5.5 -10t9.5 6
q12 42 37 90.5t57 97t69 94t75 80.5q-29 -78 -65 -154.5t-74 -137.5t-77 -99t-73 -38q-18 0 -29.5 11t-11.5 33q0 27 21.5 80t59.5 116t89 129t109.5 120t122 88.5t126.5 34.5q27 0 45 -7.5t28.5 -20.5t15 -31.5t4.5 -39.5q0 -33 -16.5 -69t-41.5 -73t-54 -74t-54 -72
t-41.5 -66t-16.5 -57q0 -17 9.5 -25t23.5 -8q17 0 43 15.5t57 46.5q8 8 20 8.5t21 -8.5t8.5 -21t-8.5 -20q-44 -44 -80 -64t-74 -20q-17 0 -33.5 5.5t-29 16.5t-20 28.5t-7.5 41.5q0 34 17 71t42.5 74t55 73.5t55 70.5t42.5 65t17 57q0 19 -8 29t-28 10q-41 0 -86 -23.5
t-90.5 -62.5t-88.5 -89t-78.5 -103t-61.5 -105t-38 -94z" />
    <glyph glyph-name="Ograve" unicode="&#xd2;" horiz-adv-x="705" 
d="M312 -48q-46 0 -89.5 13.5t-77.5 44.5t-54.5 82t-20.5 125q0 65 19.5 131.5t54 128t81.5 115.5t102.5 94t117 63t125.5 23q56 0 109 -19q15 -6 20 -18.5t0.5 -24t-16.5 -18t-31 -0.5q-41 12 -81 12q-56 0 -109.5 -21.5t-101.5 -58t-88.5 -84.5t-70 -102t-46 -110
t-16.5 -108q0 -56 15.5 -95t40.5 -63.5t56.5 -36t64.5 -11.5q45 0 91 17.5t82 49.5q20 -6 41 -9t42 -4q-57 -54 -123 -85t-137 -31zM680 94q-48 -12 -97 -11t-93 14t-81 39t-60.5 64.5t-31 91t6.5 118.5q13 59 49 105.5t82 74t95.5 33.5t89.5 -16.5t63.5 -75.5t18.5 -142
q-2 -21 -8 -50t-16 -60t-24 -61t-31 -54q-13 -2 -25.5 -3t-23.5 -1h-14.5t-13.5 1q49 63 68.5 123.5t22.5 106.5q4 63 -11.5 100t-41.5 52.5t-58.5 11t-63 -24.5t-55.5 -53t-35 -74q-19 -76 0 -130t61 -85t99 -39.5t114 5.5q16 4 26.5 -3.5t13 -18.5t-3.5 -22.5t-22 -15.5z
M512 891q-10 15 -6 28t14 19.5t23.5 3.5t22.5 -20l43 -77q7 -14 3.5 -25t-12.5 -15.5t-20.5 -2t-19.5 15.5z" />
    <glyph glyph-name="Oacute" unicode="&#xd3;" horiz-adv-x="705" 
d="M312 -48q-46 0 -89.5 13.5t-77.5 44.5t-54.5 82t-20.5 125q0 65 19.5 131.5t54 128t81.5 115.5t102.5 94t117 63t125.5 23q56 0 109 -19q15 -6 20 -18.5t0.5 -24t-16.5 -18t-31 -0.5q-41 12 -81 12q-56 0 -109.5 -21.5t-101.5 -58t-88.5 -84.5t-70 -102t-46 -110
t-16.5 -108q0 -56 15.5 -95t40.5 -63.5t56.5 -36t64.5 -11.5q45 0 91 17.5t82 49.5q20 -6 41 -9t42 -4q-57 -54 -123 -85t-137 -31zM680 94q-48 -12 -97 -11t-93 14t-81 39t-60.5 64.5t-31 91t6.5 118.5q13 59 49 105.5t82 74t95.5 33.5t89.5 -16.5t63.5 -75.5t18.5 -142
q-2 -21 -8 -50t-16 -60t-24 -61t-31 -54q-13 -2 -25.5 -3t-23.5 -1h-14.5t-13.5 1q49 63 68.5 123.5t22.5 106.5q4 63 -11.5 100t-41.5 52.5t-58.5 11t-63 -24.5t-55.5 -53t-35 -74q-19 -76 0 -130t61 -85t99 -39.5t114 5.5q16 4 26.5 -3.5t13 -18.5t-3.5 -22.5t-22 -15.5z
M599 809q-12 -9 -23.5 -7.5t-18.5 9t-6.5 19t12.5 22.5l92 80q15 13 28 11t20.5 -11.5t6.5 -23t-14 -23.5z" />
    <glyph glyph-name="Ocircumflex" unicode="&#xd4;" horiz-adv-x="705" 
d="M312 -48q-46 0 -89.5 13.5t-77.5 44.5t-54.5 82t-20.5 125q0 65 19.5 131.5t54 128t81.5 115.5t102.5 94t117 63t125.5 23q56 0 109 -19q15 -6 20 -18.5t0.5 -24t-16.5 -18t-31 -0.5q-41 12 -81 12q-56 0 -109.5 -21.5t-101.5 -58t-88.5 -84.5t-70 -102t-46 -110
t-16.5 -108q0 -56 15.5 -95t40.5 -63.5t56.5 -36t64.5 -11.5q45 0 91 17.5t82 49.5q20 -6 41 -9t42 -4q-57 -54 -123 -85t-137 -31zM680 94q-48 -12 -97 -11t-93 14t-81 39t-60.5 64.5t-31 91t6.5 118.5q13 59 49 105.5t82 74t95.5 33.5t89.5 -16.5t63.5 -75.5t18.5 -142
q-2 -21 -8 -50t-16 -60t-24 -61t-31 -54q-13 -2 -25.5 -3t-23.5 -1h-14.5t-13.5 1q49 63 68.5 123.5t22.5 106.5q4 63 -11.5 100t-41.5 52.5t-58.5 11t-63 -24.5t-55.5 -53t-35 -74q-19 -76 0 -130t61 -85t99 -39.5t114 5.5q16 4 26.5 -3.5t13 -18.5t-3.5 -22.5t-22 -15.5z
M595 883q-5 8 -12 4t-3 -11l10 -17l-78 -54q-13 -9 -24.5 -6t-17.5 11.5t-5 20t14 21.5l106 79q22 16 36.5 9.5t21.5 -18.5l41 -79q7 -14 3 -25t-13.5 -15.5t-21 -2t-19.5 15.5z" />
    <glyph glyph-name="Otilde" unicode="&#xd5;" horiz-adv-x="705" 
d="M312 -48q-46 0 -89.5 13.5t-77.5 44.5t-54.5 82t-20.5 125q0 65 19.5 131.5t54 128t81.5 115.5t102.5 94t117 63t125.5 23q56 0 109 -19q15 -6 20 -18.5t0.5 -24t-16.5 -18t-31 -0.5q-41 12 -81 12q-56 0 -109.5 -21.5t-101.5 -58t-88.5 -84.5t-70 -102t-46 -110
t-16.5 -108q0 -56 15.5 -95t40.5 -63.5t56.5 -36t64.5 -11.5q45 0 91 17.5t82 49.5q20 -6 41 -9t42 -4q-57 -54 -123 -85t-137 -31zM680 94q-48 -12 -97 -11t-93 14t-81 39t-60.5 64.5t-31 91t6.5 118.5q13 59 49 105.5t82 74t95.5 33.5t89.5 -16.5t63.5 -75.5t18.5 -142
q-2 -21 -8 -50t-16 -60t-24 -61t-31 -54q-13 -2 -25.5 -3t-23.5 -1h-14.5t-13.5 1q49 63 68.5 123.5t22.5 106.5q4 63 -11.5 100t-41.5 52.5t-58.5 11t-63 -24.5t-55.5 -53t-35 -74q-19 -76 0 -130t61 -85t99 -39.5t114 5.5q16 4 26.5 -3.5t13 -18.5t-3.5 -22.5t-22 -15.5z
M539 828q-8 -8 -20.5 -8t-23.5 11q-9 11 -6 23.5t12 20.5q15 14 29 21.5t31 7.5q13 0 23.5 -4t19.5 -8.5t17.5 -8t17.5 -3.5q5 0 11 2t13 8q8 8 20.5 8t23.5 -12q9 -10 6 -23t-12 -21q-15 -14 -29 -21t-31 -7q-14 0 -24.5 3.5t-20 8t-18 8.5t-16.5 4q-5 0 -11 -2t-12 -8z
" />
    <glyph glyph-name="Odieresis" unicode="&#xd6;" horiz-adv-x="705" 
d="M312 -48q-46 0 -89.5 13.5t-77.5 44.5t-54.5 82t-20.5 125q0 65 19.5 131.5t54 128t81.5 115.5t102.5 94t117 63t125.5 23q56 0 109 -19q15 -6 20 -18.5t0.5 -24t-16.5 -18t-31 -0.5q-41 12 -81 12q-56 0 -109.5 -21.5t-101.5 -58t-88.5 -84.5t-70 -102t-46 -110
t-16.5 -108q0 -56 15.5 -95t40.5 -63.5t56.5 -36t64.5 -11.5q45 0 91 17.5t82 49.5q20 -6 41 -9t42 -4q-57 -54 -123 -85t-137 -31zM680 94q-48 -12 -97 -11t-93 14t-81 39t-60.5 64.5t-31 91t6.5 118.5q13 59 49 105.5t82 74t95.5 33.5t89.5 -16.5t63.5 -75.5t18.5 -142
q-2 -21 -8 -50t-16 -60t-24 -61t-31 -54q-13 -2 -25.5 -3t-23.5 -1h-14.5t-13.5 1q49 63 68.5 123.5t22.5 106.5q4 63 -11.5 100t-41.5 52.5t-58.5 11t-63 -24.5t-55.5 -53t-35 -74q-19 -76 0 -130t61 -85t99 -39.5t114 5.5q16 4 26.5 -3.5t13 -18.5t-3.5 -22.5t-22 -15.5z
M459 878q2 24 21 40.5t45 16.5q25 0 41.5 -16.5t14.5 -40.5t-20.5 -40.5t-43.5 -16.5q-26 0 -43 16.5t-15 40.5zM614 878q2 24 21 40.5t45 16.5q25 0 42 -16.5t15 -40.5t-21 -40.5t-44 -16.5q-26 0 -43 16.5t-15 40.5z" />
    <glyph glyph-name="multiply" unicode="&#xd7;" horiz-adv-x="480" 
d="M350 101q-8 13 -19.5 39t-24.5 58.5t-27.5 67.5t-28 67.5t-25 58.5t-19.5 39q-5 10 -4 23.5t16 22.5q15 8 28 1.5t20 -17.5q7 -13 18.5 -39t24.5 -58t27.5 -67t27.5 -67t24.5 -58t19.5 -39q7 -11 5.5 -24t-16.5 -22q-15 -8 -27.5 -2.5t-19.5 16.5zM140 107
q-14 -14 -27.5 -13t-21.5 10t-8 22.5t13 24.5q23 20 65.5 57t91.5 79q13 -31 23 -58q-44 -38 -80 -71t-56 -51zM495 416q-23 -19 -61 -51t-81 -69q-5 11 -12 28t-12 30q38 33 71.5 61.5t58.5 48.5q14 12 27.5 10.5t20.5 -10t5 -22t-17 -26.5z" />
    <glyph glyph-name="Oslash" unicode="&#xd8;" horiz-adv-x="705" 
d="M775 553q-28 -24 -67.5 -57.5t-86.5 -73t-99.5 -82.5t-104.5 -86q-15 28 -18 65l334 278q16 13 29.5 12t21 -9.5t6 -21.5t-14.5 -25zM680 94q-48 -12 -97 -11t-93 14t-81 39t-60.5 64.5t-31 91t6.5 118.5q9 45 32.5 83t55 65.5t68.5 44.5t73 20t69 -9t57 -41l-55 -46
q-24 27 -59.5 28t-70 -17.5t-63 -53.5t-39.5 -81q-19 -76 0 -130t61 -85t99 -39.5t114 5.5q16 4 26.5 -3.5t13 -18.5t-3.5 -22.5t-22 -15.5zM722 389q-2 -21 -8 -50t-16 -60t-24 -61t-31 -54q-13 -2 -25.5 -3t-23.5 -1h-14.5t-13.5 1q49 63 68.5 123.5t22.5 106.5q1 22 0 42
q16 14 31 26.5t29 24.5q8 -43 5 -95zM88 -15q-15 -12 -28.5 -10.5t-21 10.5t-6.5 22t15 24q18 14 45.5 36.5t61.5 50t74 60.5t82 68q5 -16 11.5 -30.5t14.5 -27.5q-40 -33 -77 -63.5t-69 -56.5t-58 -47.5t-44 -35.5zM139 220q0 -49 12 -85l-59 -48q-11 26 -16.5 58.5
t-5.5 71.5q0 65 19.5 131.5t54 128t81.5 115.5t102.5 94t117 63t125.5 23q56 0 109 -19q15 -6 20 -18.5t0.5 -24t-16.5 -18t-31 -0.5q-41 12 -81 12q-56 0 -109.5 -21.5t-101.5 -58t-88.5 -84.5t-70 -102t-46 -110t-16.5 -108zM312 -48q-47 0 -90 13.5t-78 45.5
q13 10 26.5 21.5t29.5 23.5q24 -22 54 -32t62 -10q45 0 91 17.5t82 49.5q20 -6 41 -9t42 -4q-57 -54 -123 -85t-137 -31z" />
    <glyph glyph-name="Ugrave" unicode="&#xd9;" horiz-adv-x="566" 
d="M195 33q41 0 82 22t81 57q-2 -18 -3 -36.5t3 -37.5q-43 -32 -87.5 -51t-91.5 -19q-46 0 -77.5 27.5t-31.5 85.5q0 44 23 83t57 77t74.5 77t74.5 82t57 92.5t23 108.5q0 57 -24 81t-56 22.5t-64 -25t-49 -62.5q-6 -14 -19 -18t-24 0t-16.5 16t2.5 31q17 40 47 67t65 39.5
t71.5 10.5t66 -20t48 -52.5t18.5 -85.5q0 -63 -22.5 -117t-57 -101.5t-74 -88t-74 -78t-57 -71.5t-22.5 -67q0 -22 13 -35.5t44 -13.5zM607 475q-17 -15 -36 -41.5t-38 -60t-36.5 -71.5t-30.5 -76.5t-21 -75t-8 -66.5q0 -25 5.5 -33t16.5 -8q17 0 43.5 12.5t63.5 49.5
q8 8 20 8.5t21 -8.5t8.5 -21t-8.5 -20q-48 -48 -88.5 -66t-71.5 -18q-35 0 -56 23.5t-21 68.5q0 32 8.5 71.5t23 82t33 86t39.5 83t42 72.5t40 56q21 25 40.5 33.5t34 3t21 -25t0.5 -50.5q-5 -29 -24.5 -74t-47 -94.5t-59.5 -97.5t-61 -82q6 39 22 86t38 92.5t47.5 85.5
t49.5 64q6 6 1.5 11.5t-11.5 -0.5zM463 784q-10 15 -6 28t14 19.5t23.5 3.5t22.5 -20l43 -77q7 -14 3.5 -25t-12.5 -15.5t-20.5 -2t-19.5 15.5z" />
    <glyph glyph-name="Uacute" unicode="&#xda;" horiz-adv-x="566" 
d="M195 33q41 0 82 22t81 57q-2 -18 -3 -36.5t3 -37.5q-43 -32 -87.5 -51t-91.5 -19q-46 0 -77.5 27.5t-31.5 85.5q0 44 23 83t57 77t74.5 77t74.5 82t57 92.5t23 108.5q0 57 -24 81t-56 22.5t-64 -25t-49 -62.5q-6 -14 -19 -18t-24 0t-16.5 16t2.5 31q17 40 47 67t65 39.5
t71.5 10.5t66 -20t48 -52.5t18.5 -85.5q0 -63 -22.5 -117t-57 -101.5t-74 -88t-74 -78t-57 -71.5t-22.5 -67q0 -22 13 -35.5t44 -13.5zM607 475q-17 -15 -36 -41.5t-38 -60t-36.5 -71.5t-30.5 -76.5t-21 -75t-8 -66.5q0 -25 5.5 -33t16.5 -8q17 0 43.5 12.5t63.5 49.5
q8 8 20 8.5t21 -8.5t8.5 -21t-8.5 -20q-48 -48 -88.5 -66t-71.5 -18q-35 0 -56 23.5t-21 68.5q0 32 8.5 71.5t23 82t33 86t39.5 83t42 72.5t40 56q21 25 40.5 33.5t34 3t21 -25t0.5 -50.5q-5 -29 -24.5 -74t-47 -94.5t-59.5 -97.5t-61 -82q6 39 22 86t38 92.5t47.5 85.5
t49.5 64q6 6 1.5 11.5t-11.5 -0.5zM550 702q-12 -9 -23.5 -7.5t-18.5 9t-6.5 19t12.5 22.5l92 80q15 13 28 11t20.5 -11.5t6.5 -23t-14 -23.5z" />
    <glyph glyph-name="Ucircumflex" unicode="&#xdb;" horiz-adv-x="566" 
d="M195 33q41 0 82 22t81 57q-2 -18 -3 -36.5t3 -37.5q-43 -32 -87.5 -51t-91.5 -19q-46 0 -77.5 27.5t-31.5 85.5q0 44 23 83t57 77t74.5 77t74.5 82t57 92.5t23 108.5q0 57 -24 81t-56 22.5t-64 -25t-49 -62.5q-6 -14 -19 -18t-24 0t-16.5 16t2.5 31q17 40 47 67t65 39.5
t71.5 10.5t66 -20t48 -52.5t18.5 -85.5q0 -63 -22.5 -117t-57 -101.5t-74 -88t-74 -78t-57 -71.5t-22.5 -67q0 -22 13 -35.5t44 -13.5zM607 475q-17 -15 -36 -41.5t-38 -60t-36.5 -71.5t-30.5 -76.5t-21 -75t-8 -66.5q0 -25 5.5 -33t16.5 -8q17 0 43.5 12.5t63.5 49.5
q8 8 20 8.5t21 -8.5t8.5 -21t-8.5 -20q-48 -48 -88.5 -66t-71.5 -18q-35 0 -56 23.5t-21 68.5q0 32 8.5 71.5t23 82t33 86t39.5 83t42 72.5t40 56q21 25 40.5 33.5t34 3t21 -25t0.5 -50.5q-5 -29 -24.5 -74t-47 -94.5t-59.5 -97.5t-61 -82q6 39 22 86t38 92.5t47.5 85.5
t49.5 64q6 6 1.5 11.5t-11.5 -0.5zM566 809q-5 8 -12 4t-3 -11l10 -17l-78 -54q-13 -9 -24.5 -6t-17.5 11.5t-5 20t14 21.5l106 79q22 16 36.5 9.5t21.5 -18.5l41 -79q7 -14 3 -25t-13.5 -15.5t-21 -2t-19.5 15.5z" />
    <glyph glyph-name="Udieresis" unicode="&#xdc;" horiz-adv-x="566" 
d="M195 33q41 0 82 22t81 57q-2 -18 -3 -36.5t3 -37.5q-43 -32 -87.5 -51t-91.5 -19q-46 0 -77.5 27.5t-31.5 85.5q0 44 23 83t57 77t74.5 77t74.5 82t57 92.5t23 108.5q0 57 -24 81t-56 22.5t-64 -25t-49 -62.5q-6 -14 -19 -18t-24 0t-16.5 16t2.5 31q17 40 47 67t65 39.5
t71.5 10.5t66 -20t48 -52.5t18.5 -85.5q0 -63 -22.5 -117t-57 -101.5t-74 -88t-74 -78t-57 -71.5t-22.5 -67q0 -22 13 -35.5t44 -13.5zM607 475q-17 -15 -36 -41.5t-38 -60t-36.5 -71.5t-30.5 -76.5t-21 -75t-8 -66.5q0 -25 5.5 -33t16.5 -8q17 0 43.5 12.5t63.5 49.5
q8 8 20 8.5t21 -8.5t8.5 -21t-8.5 -20q-48 -48 -88.5 -66t-71.5 -18q-35 0 -56 23.5t-21 68.5q0 32 8.5 71.5t23 82t33 86t39.5 83t42 72.5t40 56q21 25 40.5 33.5t34 3t21 -25t0.5 -50.5q-5 -29 -24.5 -74t-47 -94.5t-59.5 -97.5t-61 -82q6 39 22 86t38 92.5t47.5 85.5
t49.5 64q6 6 1.5 11.5t-11.5 -0.5zM413 785q2 24 21 40.5t45 16.5q25 0 41.5 -16.5t14.5 -40.5t-20.5 -40.5t-43.5 -16.5q-26 0 -43 16.5t-15 40.5zM568 785q2 24 21 40.5t45 16.5q25 0 42 -16.5t15 -40.5t-21 -40.5t-44 -16.5q-26 0 -43 16.5t-15 40.5z" />
    <glyph glyph-name="Yacute" unicode="&#xdd;" horiz-adv-x="539" 
d="M580 64q-11 -11 -26.5 -24.5t-33 -27.5t-36 -27.5t-34.5 -24.5q13 25 23.5 51t23.5 53q12 11 23 22l19 19t20 8.5t21 -8.5t8.5 -21t-8.5 -20zM245 -152q37 13 65.5 39t49.5 59.5t36.5 71.5t27.5 74q13 39 22.5 85t18.5 93t20 92t28 83q16 37 37.5 51t39.5 9.5t28 -25
t5 -51.5q-7 -38 -31 -93t-62 -113q11 72 24.5 122t31.5 70q6 6 1 11.5t-12 -1.5q-20 -20 -31.5 -64.5t-21.5 -100.5t-23.5 -119t-37.5 -121q-31 -74 -62 -118t-60 -68t-53.5 -31.5t-41.5 -7.5q-29 0 -45.5 15t-16.5 42q0 28 21 46.5t51 33.5t63 30t58 38
q-23 -48 -58.5 -84.5t-74.5 -50.5q-11 -4 -8.5 -12t11.5 -5zM445 605q0 -63 -22.5 -117t-57 -100t-74 -86.5t-74 -76.5t-57 -70t-22.5 -67q0 -22 13 -35.5t44 -13.5q33 0 65.5 12.5t63 33.5t59 48t53.5 57q-8 -29 -15.5 -58.5t-13.5 -50.5q-105 -107 -228 -107
q-46 0 -77.5 27.5t-31.5 85.5q0 44 23 82.5t57 76t74.5 75.5t74.5 80.5t57 91.5t23 108q0 57 -24 81t-56 22.5t-64 -25t-49 -62.5q-6 -14 -19 -18t-24 0t-16.5 16t2.5 31q17 40 47 67t65 39.5t71.5 10.5t66 -20t48 -52.5t18.5 -85.5zM556 692q-12 -9 -23.5 -7.5t-18.5 9
t-6.5 19t12.5 22.5l92 80q15 13 28 11t20.5 -11.5t6.5 -23t-14 -23.5z" />
    <glyph glyph-name="Thorn" unicode="&#xde;" horiz-adv-x="649" 
d="M321 775q-2 20 8.5 32.5t25 15t28 -7.5t16.5 -35q2 -19 2 -45t-2 -54.5t-5.5 -56t-8.5 -48.5q-25 -22 -48.5 -47t-46.5 -51q9 28 16 67t11.5 80t5.5 80.5t-2 69.5zM424 215q-46 0 -66.5 17.5t-20 39t20 39t53.5 17.5q29 0 62.5 -11.5t66.5 -27.5t63 -32.5t52 -25.5
q16 -7 20.5 -19.5t0 -23.5t-17 -16.5t-29.5 1.5q-32 13 -60.5 28.5t-55.5 29t-54 22t-55 8.5q-9 0 -9 -7.5t8 -7.5q23 0 49 -6t44 -17q-16 -4 -37.5 -6t-34.5 -2zM637 612q-53 0 -107 -29t-105 -77t-97 -109.5t-83.5 -125.5t-65 -125.5t-41.5 -110.5q-3 -10 5 -11.5t11 6.5
q16 47 37 95t45.5 94.5t51.5 89.5t55 80q-22 -80 -49.5 -154.5t-56.5 -133t-59 -93.5t-57 -35q-24 0 -37.5 15t-13.5 38q0 35 22.5 97t62.5 135t94 147.5t117.5 135.5t133.5 99.5t141 38.5q42 0 73 -12t51 -33t30 -49.5t10 -60.5q0 -43 -14 -82t-38.5 -72t-59 -59.5
t-75.5 -45.5q-10 5 -29.5 15t-36.5 19q84 34 132.5 88.5t48.5 127.5q0 41 -20.5 69t-75.5 28z" />
    <glyph glyph-name="germandbls" unicode="&#xdf;" horiz-adv-x="385" 
d="M146 335q5 16 16.5 24t22.5 6q-15 -44 -28 -88t-27 -92q-16 -33 -37 -61.5t-52 -59.5q-8 -8 -20 -8.5t-21 8.5t-8.5 21t8.5 20q20 20 41 45t40.5 54t36 62t28.5 69zM341 518q-9 -20 -28 -41.5t-38 -47.5t-33.5 -57.5t-14.5 -70.5v-16.5t1 -17.5q-9 -28 -16 -50.5
t-14 -45.5q-20 -66 -41 -133t-44 -121t-48.5 -88t-55.5 -34q-43 0 -43 55q0 34 36 98.5t103 150.5q-24 -81 -48.5 -134t-51.5 -95q-6 -10 1 -14t12 4q11 17 22.5 36t23.5 43.5t25 57t26 77.5q20 72 40.5 145t49.5 159q16 45 33.5 85t37.5 72q21 33 49 46t50.5 8t33.5 -27
t-2 -59q-10 -29 -28 -50t-36 -42.5t-31 -47.5t-13 -65q0 -27 9 -49t19.5 -43.5t18.5 -46.5t7 -58q-12 -15 -32 -23q-6 -2 -4 -9.5t10 -4.5q14 6 30 17.5t28 23.5q8 8 20 8.5t21 -8.5t8.5 -21t-8.5 -20q-37 -37 -77 -56t-90 -19q-26 0 -37.5 10t-11.5 26q0 20 15.5 30.5
t32.5 8.5q7 -1 13.5 -0.5t11 5t7.5 14t3 26.5q0 25 -8 47t-17.5 44.5t-17.5 47.5t-8 55q0 36 14 65t33 54t37.5 47t27.5 43q4 9 -2.5 11.5t-10.5 -5.5z" />
    <glyph glyph-name="agrave" unicode="&#xe0;" horiz-adv-x="390" 
d="M41 64q-8 -8 -20 -8.5t-21 8.5t-8.5 21t8.5 20q20 20 36.5 34.5t37.5 31.5q-11 -22 -17 -45.5t-5 -50.5zM249 275q-14 -8 -30 -20.5t-32 -30.5t-29.5 -42t-22.5 -54q-2 -8 -4.5 -19.5t-2 -22.5t6 -19t18.5 -8q31 0 61 26.5t55.5 62.5t46 73t33.5 58q11 18 24 22.5t24 1.5
q20 -5 24 -22t-4 -32q-19 -35 -36.5 -63.5t-31 -51t-22 -39t-8.5 -26.5q0 -11 10 -11q4 0 8 1.5t10.5 6.5t16.5 14t26 25q8 8 20 8.5t21 -8.5t8.5 -21t-8.5 -20q-37 -37 -63 -53t-59 -16q-28 0 -44 17t-14 52q1 9 -6 9.5t-9 -8.5t-1 -17.5t3 -14.5q-21 -17 -44 -27.5
t-51 -10.5q-30 0 -53 21.5t-23 66.5q0 41 20 84.5t51 79t68.5 58.5t72.5 23q17 0 27.5 -10t7.5 -31q-3 -22 -18 -38t-37 -31t-48.5 -32t-53.5 -39q16 39 43.5 68.5t54.5 43.5q10 5 6 12.5t-12 3.5zM261 445q-10 15 -6 28t14 19.5t23.5 3.5t22.5 -20l43 -77q7 -14 3.5 -25
t-12.5 -15.5t-20.5 -2t-19.5 15.5z" />
    <glyph glyph-name="aacute" unicode="&#xe1;" horiz-adv-x="390" 
d="M41 64q-8 -8 -20 -8.5t-21 8.5t-8.5 21t8.5 20q20 20 36.5 34.5t37.5 31.5q-11 -22 -17 -45.5t-5 -50.5zM249 275q-14 -8 -30 -20.5t-32 -30.5t-29.5 -42t-22.5 -54q-2 -8 -4.5 -19.5t-2 -22.5t6 -19t18.5 -8q31 0 61 26.5t55.5 62.5t46 73t33.5 58q11 18 24 22.5t24 1.5
q20 -5 24 -22t-4 -32q-19 -35 -36.5 -63.5t-31 -51t-22 -39t-8.5 -26.5q0 -11 10 -11q4 0 8 1.5t10.5 6.5t16.5 14t26 25q8 8 20 8.5t21 -8.5t8.5 -21t-8.5 -20q-37 -37 -63 -53t-59 -16q-28 0 -44 17t-14 52q1 9 -6 9.5t-9 -8.5t-1 -17.5t3 -14.5q-21 -17 -44 -27.5
t-51 -10.5q-30 0 -53 21.5t-23 66.5q0 41 20 84.5t51 79t68.5 58.5t72.5 23q17 0 27.5 -10t7.5 -31q-3 -22 -18 -38t-37 -31t-48.5 -32t-53.5 -39q16 39 43.5 68.5t54.5 43.5q10 5 6 12.5t-12 3.5zM362 363q-12 -9 -23.5 -7.5t-18.5 9t-6.5 19t12.5 22.5l92 80q15 13 28 11
t20.5 -11.5t6.5 -23t-14 -23.5z" />
    <glyph glyph-name="acircumflex" unicode="&#xe2;" horiz-adv-x="390" 
d="M41 64q-8 -8 -20 -8.5t-21 8.5t-8.5 21t8.5 20q20 20 36.5 34.5t37.5 31.5q-11 -22 -17 -45.5t-5 -50.5zM249 275q-14 -8 -30 -20.5t-32 -30.5t-29.5 -42t-22.5 -54q-2 -8 -4.5 -19.5t-2 -22.5t6 -19t18.5 -8q31 0 61 26.5t55.5 62.5t46 73t33.5 58q11 18 24 22.5t24 1.5
q20 -5 24 -22t-4 -32q-19 -35 -36.5 -63.5t-31 -51t-22 -39t-8.5 -26.5q0 -11 10 -11q4 0 8 1.5t10.5 6.5t16.5 14t26 25q8 8 20 8.5t21 -8.5t8.5 -21t-8.5 -20q-37 -37 -63 -53t-59 -16q-28 0 -44 17t-14 52q1 9 -6 9.5t-9 -8.5t-1 -17.5t3 -14.5q-21 -17 -44 -27.5
t-51 -10.5q-30 0 -53 21.5t-23 66.5q0 41 20 84.5t51 79t68.5 58.5t72.5 23q17 0 27.5 -10t7.5 -31q-3 -22 -18 -38t-37 -31t-48.5 -32t-53.5 -39q16 39 43.5 68.5t54.5 43.5q10 5 6 12.5t-12 3.5zM351 432q-5 8 -12 4t-3 -11l10 -17l-78 -54q-13 -9 -24.5 -6t-17.5 11.5
t-5 20t14 21.5l106 79q22 16 36.5 9.5t21.5 -18.5l41 -79q7 -14 3 -25t-13.5 -15.5t-21 -2t-19.5 15.5z" />
    <glyph glyph-name="atilde" unicode="&#xe3;" horiz-adv-x="390" 
d="M41 64q-8 -8 -20 -8.5t-21 8.5t-8.5 21t8.5 20q20 20 36.5 34.5t37.5 31.5q-11 -22 -17 -45.5t-5 -50.5zM249 275q-14 -8 -30 -20.5t-32 -30.5t-29.5 -42t-22.5 -54q-2 -8 -4.5 -19.5t-2 -22.5t6 -19t18.5 -8q31 0 61 26.5t55.5 62.5t46 73t33.5 58q11 18 24 22.5t24 1.5
q20 -5 24 -22t-4 -32q-19 -35 -36.5 -63.5t-31 -51t-22 -39t-8.5 -26.5q0 -11 10 -11q4 0 8 1.5t10.5 6.5t16.5 14t26 25q8 8 20 8.5t21 -8.5t8.5 -21t-8.5 -20q-37 -37 -63 -53t-59 -16q-28 0 -44 17t-14 52q1 9 -6 9.5t-9 -8.5t-1 -17.5t3 -14.5q-21 -17 -44 -27.5
t-51 -10.5q-30 0 -53 21.5t-23 66.5q0 41 20 84.5t51 79t68.5 58.5t72.5 23q17 0 27.5 -10t7.5 -31q-3 -22 -18 -38t-37 -31t-48.5 -32t-53.5 -39q16 39 43.5 68.5t54.5 43.5q10 5 6 12.5t-12 3.5zM273 369q-8 -8 -20.5 -8t-23.5 11q-9 11 -6 23.5t12 20.5q15 14 29 21.5
t31 7.5q13 0 23.5 -4t19.5 -8.5t17.5 -8t17.5 -3.5q5 0 11 2t13 8q8 8 20.5 8t23.5 -12q9 -10 6 -23t-12 -21q-15 -14 -29 -21t-31 -7q-14 0 -24.5 3.5t-20 8t-18 8.5t-16.5 4q-5 0 -11 -2t-12 -8z" />
    <glyph glyph-name="adieresis" unicode="&#xe4;" horiz-adv-x="390" 
d="M41 64q-8 -8 -20 -8.5t-21 8.5t-8.5 21t8.5 20q20 20 36.5 34.5t37.5 31.5q-11 -22 -17 -45.5t-5 -50.5zM249 275q-14 -8 -30 -20.5t-32 -30.5t-29.5 -42t-22.5 -54q-2 -8 -4.5 -19.5t-2 -22.5t6 -19t18.5 -8q31 0 61 26.5t55.5 62.5t46 73t33.5 58q11 18 24 22.5t24 1.5
q20 -5 24 -22t-4 -32q-19 -35 -36.5 -63.5t-31 -51t-22 -39t-8.5 -26.5q0 -11 10 -11q4 0 8 1.5t10.5 6.5t16.5 14t26 25q8 8 20 8.5t21 -8.5t8.5 -21t-8.5 -20q-37 -37 -63 -53t-59 -16q-28 0 -44 17t-14 52q1 9 -6 9.5t-9 -8.5t-1 -17.5t3 -14.5q-21 -17 -44 -27.5
t-51 -10.5q-30 0 -53 21.5t-23 66.5q0 41 20 84.5t51 79t68.5 58.5t72.5 23q17 0 27.5 -10t7.5 -31q-3 -22 -18 -38t-37 -31t-48.5 -32t-53.5 -39q16 39 43.5 68.5t54.5 43.5q10 5 6 12.5t-12 3.5zM183 432q2 24 21 40.5t45 16.5q25 0 41.5 -16.5t14.5 -40.5t-20.5 -40.5
t-43.5 -16.5q-26 0 -43 16.5t-15 40.5zM338 432q2 24 21 40.5t45 16.5q25 0 42 -16.5t15 -40.5t-21 -40.5t-44 -16.5q-26 0 -43 16.5t-15 40.5z" />
    <glyph glyph-name="aring" unicode="&#xe5;" horiz-adv-x="390" 
d="M41 64q-8 -8 -20 -8.5t-21 8.5t-8.5 21t8.5 20q20 20 36.5 34.5t37.5 31.5q-11 -22 -17 -45.5t-5 -50.5zM249 275q-14 -8 -30 -20.5t-32 -30.5t-29.5 -42t-22.5 -54q-2 -8 -4.5 -19.5t-2 -22.5t6 -19t18.5 -8q31 0 61 26.5t55.5 62.5t46 73t33.5 58q11 18 24 22.5t24 1.5
q20 -5 24 -22t-4 -32q-19 -35 -36.5 -63.5t-31 -51t-22 -39t-8.5 -26.5q0 -11 10 -11q4 0 8 1.5t10.5 6.5t16.5 14t26 25q8 8 20 8.5t21 -8.5t8.5 -21t-8.5 -20q-37 -37 -63 -53t-59 -16q-28 0 -44 17t-14 52q1 9 -6 9.5t-9 -8.5t-1 -17.5t3 -14.5q-21 -17 -44 -27.5
t-51 -10.5q-30 0 -53 21.5t-23 66.5q0 41 20 84.5t51 79t68.5 58.5t72.5 23q17 0 27.5 -10t7.5 -31q-3 -22 -18 -38t-37 -31t-48.5 -32t-53.5 -39q16 39 43.5 68.5t54.5 43.5q10 5 6 12.5t-12 3.5zM240 420q0 16 7 33t19.5 30t29.5 21.5t37 8.5q31 0 50.5 -19.5t19.5 -49.5
q0 -19 -8 -36t-21 -29.5t-30 -19.5t-35 -7q-31 0 -50 19t-19 49zM293 428q0 -24 24 -24q13 0 24 10.5t11 24.5q0 10 -6.5 16.5t-17.5 6.5q-14 0 -24.5 -11.5t-10.5 -22.5z" />
    <glyph glyph-name="ae" unicode="&#xe6;" horiz-adv-x="503" 
d="M41 64q-8 -8 -20 -8.5t-21 8.5t-8.5 21t8.5 20q20 20 36.5 34.5t37.5 31.5q-22 -46 -22 -88v-8zM153 59q26 0 51.5 19.5t48.5 48.5q-5 -25 -5 -44t5 -37q-24 -23 -51.5 -37t-58.5 -14q-30 0 -53 21.5t-23 66.5q0 41 20 84.5t51 79t68.5 58.5t72.5 23q17 0 27.5 -10
t7.5 -31q-3 -22 -18 -38t-37 -31t-48.5 -32t-53.5 -39q16 39 43.5 68.5t54.5 43.5q10 5 6 12.5t-12 3.5q-14 -8 -30 -20.5t-32 -30.5t-29.5 -42t-22.5 -54q-2 -8 -4.5 -19.5t-2 -22.5t6 -19t18.5 -8zM374 48q32 0 64.5 12.5t64.5 44.5q8 8 20 8.5t21 -8.5t8.5 -21t-8.5 -20
q-39 -39 -83 -56.5t-87 -17.5q-57 0 -84 24t-27 69q0 41 20 84.5t51 79t68.5 58.5t72.5 23q29 0 43.5 -16t11.5 -47q-2 -26 -17 -51t-40 -45t-58.5 -32.5t-72.5 -13.5q4 14 11 28t15 27q20 2 37 10.5t29.5 19.5t21 22t11.5 19q7 19 -15 16q-21 -4 -43.5 -21.5t-41 -41.5
t-31 -51t-14 -50t10 -38t41.5 -15z" />
    <glyph glyph-name="ccedilla" unicode="&#xe7;" 
d="M178 48q32 0 64.5 12.5t64.5 44.5q8 8 20 8.5t21 -8.5t8.5 -21t-8.5 -20q-29 -29 -62.5 -44t-66.5 -26q-17 -5 -28 -11t-21 -17q-6 2 -15.5 2t-17.5 -4q-8 -2 -6 -9.5t10 -4.5q12 4 25 2.5t24 -8t18.5 -18t7.5 -27.5q0 -33 -19.5 -52t-46.5 -25.5t-56 -2t-48 16.5
q-9 6 -9.5 16t4.5 18t14 11.5t20 -2.5q9 -5 23 -7.5t27 -1.5t22.5 6.5t9.5 17.5q0 11 -9 14t-18 2q-9 -8 -18 -8t-16 5.5t-9 15.5t3 22q14 35 34.5 50t35.5 15q8 0 8 7.5t-9 7.5q-10 0 -22.5 -4.5t-26.5 -17.5q-20 11 -31.5 31t-11.5 49q0 13 1.5 22.5t3.5 18.5
q2 10 -5 11.5t-10 -7.5q-3 -11 -4.5 -25.5t-1.5 -28.5l-10 -10q-8 -8 -20 -8.5t-21 8.5t-8.5 21t8.5 20q18 18 38.5 40t42 45.5t43 45.5t41.5 39q27 23 56.5 38t57.5 15q29 0 43.5 -16t11.5 -47q-2 -18 -8.5 -33t-20.5 -32q-12 -13 -24 -14t-20.5 5.5t-10 18.5t9.5 26
q12 15 12.5 22.5t-6.5 7.5q-22 0 -45.5 -16t-43.5 -40.5t-33.5 -52.5t-16 -52.5t8.5 -40.5t42 -16z" />
    <glyph glyph-name="egrave" unicode="&#xe8;" 
d="M178 48q32 0 64.5 12.5t64.5 44.5q8 8 20 8.5t21 -8.5t8.5 -21t-8.5 -20q-39 -39 -83 -56.5t-87 -17.5q-54 0 -82.5 24t-28.5 69q0 13 1.5 22.5t3.5 18.5q2 10 -5 11.5t-10 -7.5q-3 -11 -4.5 -25.5t-1.5 -28.5l-10 -10q-8 -8 -20 -8.5t-21 8.5t-8.5 21t8.5 20
q18 18 38.5 40t42 45.5t43 45.5t41.5 39q27 23 56.5 38t57.5 15q29 0 43.5 -16t11.5 -47q-2 -26 -17 -51t-40 -45t-58.5 -32.5t-72.5 -13.5q4 14 11 28t15 27q20 2 37 10.5t29.5 19.5t21 22t11.5 19q7 19 -15 16q-21 -4 -43.5 -21.5t-41 -41.5t-31 -51t-14 -50t10 -38
t41.5 -15zM214 445q-10 15 -6 28t14 19.5t23.5 3.5t22.5 -20l43 -77q7 -14 3.5 -25t-12.5 -15.5t-20.5 -2t-19.5 15.5z" />
    <glyph glyph-name="eacute" unicode="&#xe9;" 
d="M178 48q32 0 64.5 12.5t64.5 44.5q8 8 20 8.5t21 -8.5t8.5 -21t-8.5 -20q-39 -39 -83 -56.5t-87 -17.5q-54 0 -82.5 24t-28.5 69q0 13 1.5 22.5t3.5 18.5q2 10 -5 11.5t-10 -7.5q-3 -11 -4.5 -25.5t-1.5 -28.5l-10 -10q-8 -8 -20 -8.5t-21 8.5t-8.5 21t8.5 20
q18 18 38.5 40t42 45.5t43 45.5t41.5 39q27 23 56.5 38t57.5 15q29 0 43.5 -16t11.5 -47q-2 -26 -17 -51t-40 -45t-58.5 -32.5t-72.5 -13.5q4 14 11 28t15 27q20 2 37 10.5t29.5 19.5t21 22t11.5 19q7 19 -15 16q-21 -4 -43.5 -21.5t-41 -41.5t-31 -51t-14 -50t10 -38
t41.5 -15zM278 363q-12 -9 -23.5 -7.5t-18.5 9t-6.5 19t12.5 22.5l92 80q15 13 28 11t20.5 -11.5t6.5 -23t-14 -23.5z" />
    <glyph glyph-name="ecircumflex" unicode="&#xea;" 
d="M178 48q32 0 64.5 12.5t64.5 44.5q8 8 20 8.5t21 -8.5t8.5 -21t-8.5 -20q-39 -39 -83 -56.5t-87 -17.5q-54 0 -82.5 24t-28.5 69q0 13 1.5 22.5t3.5 18.5q2 10 -5 11.5t-10 -7.5q-3 -11 -4.5 -25.5t-1.5 -28.5l-10 -10q-8 -8 -20 -8.5t-21 8.5t-8.5 21t8.5 20
q18 18 38.5 40t42 45.5t43 45.5t41.5 39q27 23 56.5 38t57.5 15q29 0 43.5 -16t11.5 -47q-2 -26 -17 -51t-40 -45t-58.5 -32.5t-72.5 -13.5q4 14 11 28t15 27q20 2 37 10.5t29.5 19.5t21 22t11.5 19q7 19 -15 16q-21 -4 -43.5 -21.5t-41 -41.5t-31 -51t-14 -50t10 -38
t41.5 -15zM299 429q-5 8 -12 4t-3 -11l10 -17l-78 -54q-13 -9 -24.5 -6t-17.5 11.5t-5 20t14 21.5l106 79q22 16 36.5 9.5t21.5 -18.5l41 -79q7 -14 3 -25t-13.5 -15.5t-21 -2t-19.5 15.5z" />
    <glyph glyph-name="edieresis" unicode="&#xeb;" 
d="M178 48q32 0 64.5 12.5t64.5 44.5q8 8 20 8.5t21 -8.5t8.5 -21t-8.5 -20q-39 -39 -83 -56.5t-87 -17.5q-54 0 -82.5 24t-28.5 69q0 13 1.5 22.5t3.5 18.5q2 10 -5 11.5t-10 -7.5q-3 -11 -4.5 -25.5t-1.5 -28.5l-10 -10q-8 -8 -20 -8.5t-21 8.5t-8.5 21t8.5 20
q18 18 38.5 40t42 45.5t43 45.5t41.5 39q27 23 56.5 38t57.5 15q29 0 43.5 -16t11.5 -47q-2 -26 -17 -51t-40 -45t-58.5 -32.5t-72.5 -13.5q4 14 11 28t15 27q20 2 37 10.5t29.5 19.5t21 22t11.5 19q7 19 -15 16q-21 -4 -43.5 -21.5t-41 -41.5t-31 -51t-14 -50t10 -38
t41.5 -15zM141 432q2 24 21 40.5t45 16.5q25 0 41.5 -16.5t14.5 -40.5t-20.5 -40.5t-43.5 -16.5q-26 0 -43 16.5t-15 40.5zM296 432q2 24 21 40.5t45 16.5q25 0 42 -16.5t15 -40.5t-21 -40.5t-44 -16.5q-26 0 -43 16.5t-15 40.5z" />
    <glyph glyph-name="igrave" unicode="&#xec;" horiz-adv-x="222" 
d="M151 302q10 20 22.5 24.5t23.5 2.5q20 -4 24 -23t-8 -46q-14 -31 -25.5 -60t-19.5 -54.5t-12.5 -45t-4.5 -31.5t10 -12q9 0 24.5 13.5t36.5 34.5q8 8 20 8.5t21 -8.5t8.5 -21t-8.5 -20q-35 -35 -61.5 -52t-55.5 -17t-46.5 18t-17.5 56q0 20 6.5 39t14.5 39q3 8 -3.5 11
t-11.5 -6q-11 -24 -19 -57q-2 -4 -11 -13.5t-17 -17.5t-20 -8.5t-21 8.5t-8.5 21t8.5 20q22 22 44 47t42.5 51t37 51t27.5 48zM145 445q-10 15 -6 28t14 19.5t23.5 3.5t22.5 -20l43 -77q7 -14 3.5 -25t-12.5 -15.5t-20.5 -2t-19.5 15.5z" />
    <glyph glyph-name="iacute" unicode="&#xed;" horiz-adv-x="222" 
d="M151 302q10 20 22.5 24.5t23.5 2.5q20 -4 24 -23t-8 -46q-14 -31 -25.5 -60t-19.5 -54.5t-12.5 -45t-4.5 -31.5t10 -12q9 0 24.5 13.5t36.5 34.5q8 8 20 8.5t21 -8.5t8.5 -21t-8.5 -20q-35 -35 -61.5 -52t-55.5 -17t-46.5 18t-17.5 56q0 20 6.5 39t14.5 39q3 8 -3.5 11
t-11.5 -6q-11 -24 -19 -57q-2 -4 -11 -13.5t-17 -17.5t-20 -8.5t-21 8.5t-8.5 21t8.5 20q22 22 44 47t42.5 51t37 51t27.5 48zM220 363q-12 -9 -23.5 -7.5t-18.5 9t-6.5 19t12.5 22.5l92 80q15 13 28 11t20.5 -11.5t6.5 -23t-14 -23.5z" />
    <glyph glyph-name="icircumflex" unicode="&#xee;" horiz-adv-x="222" 
d="M151 302q10 20 22.5 24.5t23.5 2.5q20 -4 24 -23t-8 -46q-14 -31 -25.5 -60t-19.5 -54.5t-12.5 -45t-4.5 -31.5t10 -12q9 0 24.5 13.5t36.5 34.5q8 8 20 8.5t21 -8.5t8.5 -21t-8.5 -20q-35 -35 -61.5 -52t-55.5 -17t-46.5 18t-17.5 56q0 20 6.5 39t14.5 39q3 8 -3.5 11
t-11.5 -6q-11 -24 -19 -57q-2 -4 -11 -13.5t-17 -17.5t-20 -8.5t-21 8.5t-8.5 21t8.5 20q22 22 44 47t42.5 51t37 51t27.5 48zM221 444q-5 8 -12 4t-3 -11l10 -17l-78 -54q-13 -9 -24.5 -6t-17.5 11.5t-5 20t14 21.5l106 79q22 16 36.5 9.5t21.5 -18.5l41 -79q7 -14 3 -25
t-13.5 -15.5t-21 -2t-19.5 15.5z" />
    <glyph glyph-name="idieresis" unicode="&#xef;" horiz-adv-x="222" 
d="M151 302q10 20 22.5 24.5t23.5 2.5q20 -4 24 -23t-8 -46q-14 -31 -25.5 -60t-19.5 -54.5t-12.5 -45t-4.5 -31.5t10 -12q9 0 24.5 13.5t36.5 34.5q8 8 20 8.5t21 -8.5t8.5 -21t-8.5 -20q-35 -35 -61.5 -52t-55.5 -17t-46.5 18t-17.5 56q0 20 6.5 39t14.5 39q3 8 -3.5 11
t-11.5 -6q-11 -24 -19 -57q-2 -4 -11 -13.5t-17 -17.5t-20 -8.5t-21 8.5t-8.5 21t8.5 20q22 22 44 47t42.5 51t37 51t27.5 48zM79 432q2 24 21 40.5t45 16.5q25 0 41.5 -16.5t14.5 -40.5t-20.5 -40.5t-43.5 -16.5q-26 0 -43 16.5t-15 40.5zM234 432q2 24 21 40.5t45 16.5
q25 0 42 -16.5t15 -40.5t-21 -40.5t-44 -16.5q-26 0 -43 16.5t-15 40.5z" />
    <glyph glyph-name="eth" unicode="&#xf0;" horiz-adv-x="385" 
d="M508 479q-20 -11 -48 -24.5t-58.5 -26.5t-60 -24t-51.5 -17q-13 -4 -25 1t-17 24q-3 15 6 26t22 14q21 6 48 15.5t54.5 21.5t53 24.5t45.5 24.5q11 6 24.5 5t22.5 -17q8 -15 1.5 -27.5t-17.5 -19.5zM67 83q0 41 20 84.5t51 79t68.5 58.5t72.5 23q17 0 27.5 -10t7.5 -31
q-3 -22 -18 -38t-37 -31t-48.5 -32t-53.5 -39q16 39 43.5 68.5t54.5 43.5q10 5 6 12.5t-12 3.5q-14 -8 -30 -20.5t-32 -30.5t-29.5 -42t-22.5 -54q-4 -12 -5 -24.5t3 -22t12.5 -16t24.5 -6.5q31 0 66.5 28.5t67 76.5t54 110.5t28.5 130.5l69 30q-6 -79 -29.5 -157.5
t-62 -141.5t-90.5 -102t-115 -39q-39 0 -65 21.5t-26 66.5zM446 577q2 -8 4 -17l4 -18q-14 -8 -30.5 -15.5t-33.5 -15.5q-3 25 -9 41q-8 20 -1 34t19.5 19t26.5 -1t20 -27zM41 64q-8 -8 -20 -8.5t-21 8.5t-8.5 21t8.5 20q20 20 36.5 34.5t37.5 31.5q-22 -46 -22 -88v-8z" />
    <glyph glyph-name="ntilde" unicode="&#xf1;" horiz-adv-x="369" 
d="M105 143q3 8 -4.5 11t-11.5 -7q-3 -8 -8.5 -22.5t-11.5 -29.5q-5 -5 -11 -12.5t-17 -18.5q-8 -8 -20 -8.5t-21 8.5t-8.5 21t8.5 20q22 23 44.5 48t42 50.5t35.5 50.5t27 47q9 20 22 25t26 3q15 -3 23 -19t-5 -45q-13 -14 -26.5 -31.5t-18.5 -24.5q-5 -8 1 -12.5t12 3.5
q17 23 37.5 46.5t41.5 42t42.5 30t41.5 11.5q17 0 29.5 -9.5t12.5 -28.5q0 -29 -16 -60.5t-35.5 -61.5t-35.5 -55.5t-16 -42.5q0 -15 17 -15q10 0 28 13.5t39 34.5q8 8 20 8.5t21 -8.5t8.5 -21t-8.5 -20q-35 -35 -62.5 -52t-65.5 -17q-28 0 -46 18t-18 53q0 19 8.5 40.5
t20.5 41.5t25 38t22 31q11 16 5 22.5t-22 -8.5q-13 -13 -33 -36t-41.5 -51t-41.5 -58.5t-33 -59.5q-6 -20 -21 -26t-27 -1q-14 5 -17 17.5t2 24.5q3 9 6 16.5t7.5 18.5t11 26.5t15.5 40.5zM224 398q-8 -8 -20.5 -8t-23.5 11q-9 11 -6 23.5t12 20.5q15 14 29 21.5t31 7.5
q13 0 23.5 -4t19.5 -8.5t17.5 -8t17.5 -3.5q5 0 11 2t13 8q8 8 20.5 8t23.5 -12q9 -10 6 -23t-12 -21q-15 -14 -29 -21t-31 -7q-14 0 -24.5 3.5t-20 8t-18 8.5t-16.5 4q-5 0 -11 -2t-12 -8z" />
    <glyph glyph-name="ograve" unicode="&#xf2;" horiz-adv-x="400" 
d="M400 105q8 8 20 8.5t21 -8.5t8.5 -21t-8.5 -20q-26 -26 -59.5 -40.5t-65.5 -14.5q-36 0 -62 21t-26 67q0 27 9.5 55.5t26 52.5t38.5 39t47 15q20 0 30.5 -14.5t10.5 -36.5q0 -29 -15.5 -62.5t-46.5 -60.5q-8 0 -15 3.5t-7 14.5q0 23 13 45t32 35q8 5 3.5 12.5t-15.5 -0.5
q-17 -13 -32.5 -37.5t-15.5 -56.5q0 -17 9 -24t22 -7q20 0 42.5 11t35.5 24zM41 64q-8 -8 -20 -8.5t-21 8.5t-8.5 21t8.5 20q17 17 31.5 30t31.5 27q-11 -33 -11 -64v-11.5t1 -10.5zM179 52q7 0 17.5 2.5t20.5 8.5q9 -32 35 -50q-18 -11 -39 -16.5t-40 -5.5q-55 0 -80.5 30
t-25.5 77q0 39 17.5 79.5t47 73.5t67.5 54.5t80 21.5q31 0 49.5 -15t26.5 -38h-6q-15 0 -28.5 -5t-26.5 -13q-6 10 -21 10q-23 0 -47.5 -15.5t-44.5 -39.5t-33 -53.5t-13 -57.5q0 -23 11 -35.5t33 -12.5zM243 445q-10 15 -6 28t14 19.5t23.5 3.5t22.5 -20l43 -77
q7 -14 3.5 -25t-12.5 -15.5t-20.5 -2t-19.5 15.5z" />
    <glyph glyph-name="oacute" unicode="&#xf3;" horiz-adv-x="400" 
d="M400 105q8 8 20 8.5t21 -8.5t8.5 -21t-8.5 -20q-26 -26 -59.5 -40.5t-65.5 -14.5q-36 0 -62 21t-26 67q0 27 9.5 55.5t26 52.5t38.5 39t47 15q20 0 30.5 -14.5t10.5 -36.5q0 -29 -15.5 -62.5t-46.5 -60.5q-8 0 -15 3.5t-7 14.5q0 23 13 45t32 35q8 5 3.5 12.5t-15.5 -0.5
q-17 -13 -32.5 -37.5t-15.5 -56.5q0 -17 9 -24t22 -7q20 0 42.5 11t35.5 24zM41 64q-8 -8 -20 -8.5t-21 8.5t-8.5 21t8.5 20q17 17 31.5 30t31.5 27q-11 -33 -11 -64v-11.5t1 -10.5zM179 52q7 0 17.5 2.5t20.5 8.5q9 -32 35 -50q-18 -11 -39 -16.5t-40 -5.5q-55 0 -80.5 30
t-25.5 77q0 39 17.5 79.5t47 73.5t67.5 54.5t80 21.5q31 0 49.5 -15t26.5 -38h-6q-15 0 -28.5 -5t-26.5 -13q-6 10 -21 10q-23 0 -47.5 -15.5t-44.5 -39.5t-33 -53.5t-13 -57.5q0 -23 11 -35.5t33 -12.5zM293 363q-12 -9 -23.5 -7.5t-18.5 9t-6.5 19t12.5 22.5l92 80
q15 13 28 11t20.5 -11.5t6.5 -23t-14 -23.5z" />
    <glyph glyph-name="ocircumflex" unicode="&#xf4;" horiz-adv-x="400" 
d="M400 105q8 8 20 8.5t21 -8.5t8.5 -21t-8.5 -20q-26 -26 -59.5 -40.5t-65.5 -14.5q-36 0 -62 21t-26 67q0 27 9.5 55.5t26 52.5t38.5 39t47 15q20 0 30.5 -14.5t10.5 -36.5q0 -29 -15.5 -62.5t-46.5 -60.5q-8 0 -15 3.5t-7 14.5q0 23 13 45t32 35q8 5 3.5 12.5t-15.5 -0.5
q-17 -13 -32.5 -37.5t-15.5 -56.5q0 -17 9 -24t22 -7q20 0 42.5 11t35.5 24zM41 64q-8 -8 -20 -8.5t-21 8.5t-8.5 21t8.5 20q17 17 31.5 30t31.5 27q-11 -33 -11 -64v-11.5t1 -10.5zM179 52q7 0 17.5 2.5t20.5 8.5q9 -32 35 -50q-18 -11 -39 -16.5t-40 -5.5q-55 0 -80.5 30
t-25.5 77q0 39 17.5 79.5t47 73.5t67.5 54.5t80 21.5q31 0 49.5 -15t26.5 -38h-6q-15 0 -28.5 -5t-26.5 -13q-6 10 -21 10q-23 0 -47.5 -15.5t-44.5 -39.5t-33 -53.5t-13 -57.5q0 -23 11 -35.5t33 -12.5zM315 434q-5 8 -12 4t-3 -11l10 -17l-78 -54q-13 -9 -24.5 -6
t-17.5 11.5t-5 20t14 21.5l106 79q22 16 36.5 9.5t21.5 -18.5l41 -79q7 -14 3 -25t-13.5 -15.5t-21 -2t-19.5 15.5z" />
    <glyph glyph-name="otilde" unicode="&#xf5;" horiz-adv-x="400" 
d="M400 105q8 8 20 8.5t21 -8.5t8.5 -21t-8.5 -20q-26 -26 -59.5 -40.5t-65.5 -14.5q-36 0 -62 21t-26 67q0 27 9.5 55.5t26 52.5t38.5 39t47 15q20 0 30.5 -14.5t10.5 -36.5q0 -29 -15.5 -62.5t-46.5 -60.5q-8 0 -15 3.5t-7 14.5q0 23 13 45t32 35q8 5 3.5 12.5t-15.5 -0.5
q-17 -13 -32.5 -37.5t-15.5 -56.5q0 -17 9 -24t22 -7q20 0 42.5 11t35.5 24zM41 64q-8 -8 -20 -8.5t-21 8.5t-8.5 21t8.5 20q17 17 31.5 30t31.5 27q-11 -33 -11 -64v-11.5t1 -10.5zM179 52q7 0 17.5 2.5t20.5 8.5q9 -32 35 -50q-18 -11 -39 -16.5t-40 -5.5q-55 0 -80.5 30
t-25.5 77q0 39 17.5 79.5t47 73.5t67.5 54.5t80 21.5q31 0 49.5 -15t26.5 -38h-6q-15 0 -28.5 -5t-26.5 -13q-6 10 -21 10q-23 0 -47.5 -15.5t-44.5 -39.5t-33 -53.5t-13 -57.5q0 -23 11 -35.5t33 -12.5zM243 374q-8 -8 -20.5 -8t-23.5 11q-9 11 -6 23.5t12 20.5
q15 14 29 21.5t31 7.5q13 0 23.5 -4t19.5 -8.5t17.5 -8t17.5 -3.5q5 0 11 2t13 8q8 8 20.5 8t23.5 -12q9 -10 6 -23t-12 -21q-15 -14 -29 -21t-31 -7q-14 0 -24.5 3.5t-20 8t-18 8.5t-16.5 4q-5 0 -11 -2t-12 -8z" />
    <glyph glyph-name="odieresis" unicode="&#xf6;" horiz-adv-x="400" 
d="M400 105q8 8 20 8.5t21 -8.5t8.5 -21t-8.5 -20q-26 -26 -59.5 -40.5t-65.5 -14.5q-36 0 -62 21t-26 67q0 27 9.5 55.5t26 52.5t38.5 39t47 15q20 0 30.5 -14.5t10.5 -36.5q0 -29 -15.5 -62.5t-46.5 -60.5q-8 0 -15 3.5t-7 14.5q0 23 13 45t32 35q8 5 3.5 12.5t-15.5 -0.5
q-17 -13 -32.5 -37.5t-15.5 -56.5q0 -17 9 -24t22 -7q20 0 42.5 11t35.5 24zM41 64q-8 -8 -20 -8.5t-21 8.5t-8.5 21t8.5 20q17 17 31.5 30t31.5 27q-11 -33 -11 -64v-11.5t1 -10.5zM179 52q7 0 17.5 2.5t20.5 8.5q9 -32 35 -50q-18 -11 -39 -16.5t-40 -5.5q-55 0 -80.5 30
t-25.5 77q0 39 17.5 79.5t47 73.5t67.5 54.5t80 21.5q31 0 49.5 -15t26.5 -38h-6q-15 0 -28.5 -5t-26.5 -13q-6 10 -21 10q-23 0 -47.5 -15.5t-44.5 -39.5t-33 -53.5t-13 -57.5q0 -23 11 -35.5t33 -12.5zM159 432q2 24 21 40.5t45 16.5q25 0 41.5 -16.5t14.5 -40.5
t-20.5 -40.5t-43.5 -16.5q-26 0 -43 16.5t-15 40.5zM314 432q2 24 21 40.5t45 16.5q25 0 42 -16.5t15 -40.5t-21 -40.5t-44 -16.5q-26 0 -43 16.5t-15 40.5z" />
    <glyph glyph-name="divide" unicode="&#xf7;" horiz-adv-x="480" 
d="M470 259q-15 -2 -41 -2t-58 0.5t-66 1.5t-66 1.5t-58 0.5t-41 -2q-13 -2 -24.5 4.5t-13.5 24.5q-2 17 8.5 26t23.5 11q15 2 41 2t58 -0.5t66 -1.5t66 -1.5t58 -0.5t41 2q13 2 24.5 -4.5t13.5 -24.5q2 -17 -8.5 -26t-23.5 -11zM196 134q0 23 17.5 38.5t39.5 15.5
q21 0 35 -13.5t14 -32.5q0 -22 -16.5 -38t-39.5 -16q-21 0 -35.5 13t-14.5 33zM312 436q0 23 17.5 38.5t39.5 15.5q21 0 35 -13.5t14 -32.5q0 -22 -16.5 -38t-39.5 -16q-21 0 -35.5 13t-14.5 33z" />
    <glyph glyph-name="oslash" unicode="&#xf8;" horiz-adv-x="400" 
d="M400 105q8 8 20 8.5t21 -8.5t8.5 -21t-8.5 -20q-26 -26 -59.5 -40.5t-65.5 -14.5q-36 0 -62 21t-26 67q0 27 9.5 55.5t26 52.5t38.5 39t47 15q20 0 30.5 -14.5t10.5 -36.5q0 -29 -15.5 -62.5t-46.5 -60.5q-8 0 -15 3.5t-7 14.5q0 23 13 45t32 35q8 5 3.5 12.5t-15.5 -0.5
q-17 -13 -32.5 -37.5t-15.5 -56.5q0 -17 9 -24t22 -7q20 0 42.5 11t35.5 24zM41 64q-8 -8 -20 -8.5t-21 8.5t-8.5 21t8.5 20q17 17 31.5 30t31.5 27q-11 -33 -11 -64v-11.5t1 -10.5zM179 52q7 0 17.5 2.5t20.5 8.5q9 -32 35 -50q-18 -11 -39 -16.5t-40 -5.5q-55 0 -80.5 30
t-25.5 77q0 39 17.5 79.5t47 73.5t67.5 54.5t80 21.5q31 0 49.5 -15t26.5 -38h-6q-15 0 -28.5 -5t-26.5 -13q-6 10 -21 10q-23 0 -47.5 -15.5t-44.5 -39.5t-33 -53.5t-13 -57.5q0 -23 11 -35.5t33 -12.5zM409 327q-11 -14 -20 -25t-19 -23q-6 15 -16 28t-23 21l29 35
q13 16 26.5 17.5t22.5 -6t10 -20.5t-10 -27zM98 -38q-13 -15 -26.5 -16t-22.5 6.5t-10.5 20.5t10.5 26l21 24q17 -27 47 -38z" />
    <glyph glyph-name="ugrave" unicode="&#xf9;" horiz-adv-x="388" 
d="M303 -5q-35 0 -48 25.5t-8 58.5q1 4 -1 6.5t-5 3t-5.5 -1.5t-3.5 -6q-2 -12 -1.5 -23t2.5 -22q-47 -41 -100 -41q-24 0 -45 14.5t-21 49.5q0 23 8.5 45t19.5 45q4 8 -2 11t-11 -5q-7 -12 -15 -32t-14 -47l-12 -12q-8 -8 -20 -8.5t-21 8.5t-8.5 21t8.5 20q22 22 45 47
t44.5 51t39.5 51t29 48q10 20 22.5 24.5t23.5 2.5q20 -4 25.5 -21t-2.5 -32q-18 -36 -34.5 -68t-29.5 -58t-21 -46t-7 -33q0 -14 12 -14q6 0 16.5 4t24 14.5t30 29.5t35.5 48q6 21 17.5 51.5t26 58t32 47.5t37.5 20q28 0 35 -22.5t-0.5 -54.5t-25.5 -66t-39 -57
q8 41 18.5 74t23.5 61q4 8 -2.5 11t-10.5 -5q-10 -20 -19 -47t-16.5 -55t-12 -54t-4.5 -43q0 -9 3 -12t8 -3q16 0 64 48q8 8 20 8.5t21 -8.5t8.5 -21t-8.5 -20q-21 -21 -38 -34.5t-31.5 -21t-28 -10.5t-28.5 -3zM227 445q-10 15 -6 28t14 19.5t23.5 3.5t22.5 -20l43 -77
q7 -14 3.5 -25t-12.5 -15.5t-20.5 -2t-19.5 15.5z" />
    <glyph glyph-name="uacute" unicode="&#xfa;" horiz-adv-x="388" 
d="M303 -5q-35 0 -48 25.5t-8 58.5q1 4 -1 6.5t-5 3t-5.5 -1.5t-3.5 -6q-2 -12 -1.5 -23t2.5 -22q-47 -41 -100 -41q-24 0 -45 14.5t-21 49.5q0 23 8.5 45t19.5 45q4 8 -2 11t-11 -5q-7 -12 -15 -32t-14 -47l-12 -12q-8 -8 -20 -8.5t-21 8.5t-8.5 21t8.5 20q22 22 45 47
t44.5 51t39.5 51t29 48q10 20 22.5 24.5t23.5 2.5q20 -4 25.5 -21t-2.5 -32q-18 -36 -34.5 -68t-29.5 -58t-21 -46t-7 -33q0 -14 12 -14q6 0 16.5 4t24 14.5t30 29.5t35.5 48q6 21 17.5 51.5t26 58t32 47.5t37.5 20q28 0 35 -22.5t-0.5 -54.5t-25.5 -66t-39 -57
q8 41 18.5 74t23.5 61q4 8 -2.5 11t-10.5 -5q-10 -20 -19 -47t-16.5 -55t-12 -54t-4.5 -43q0 -9 3 -12t8 -3q16 0 64 48q8 8 20 8.5t21 -8.5t8.5 -21t-8.5 -20q-21 -21 -38 -34.5t-31.5 -21t-28 -10.5t-28.5 -3zM309 363q-12 -9 -23.5 -7.5t-18.5 9t-6.5 19t12.5 22.5l92 80
q15 13 28 11t20.5 -11.5t6.5 -23t-14 -23.5z" />
    <glyph glyph-name="ucircumflex" unicode="&#xfb;" horiz-adv-x="388" 
d="M303 -5q-35 0 -48 25.5t-8 58.5q1 4 -1 6.5t-5 3t-5.5 -1.5t-3.5 -6q-2 -12 -1.5 -23t2.5 -22q-47 -41 -100 -41q-24 0 -45 14.5t-21 49.5q0 23 8.5 45t19.5 45q4 8 -2 11t-11 -5q-7 -12 -15 -32t-14 -47l-12 -12q-8 -8 -20 -8.5t-21 8.5t-8.5 21t8.5 20q22 22 45 47
t44.5 51t39.5 51t29 48q10 20 22.5 24.5t23.5 2.5q20 -4 25.5 -21t-2.5 -32q-18 -36 -34.5 -68t-29.5 -58t-21 -46t-7 -33q0 -14 12 -14q6 0 16.5 4t24 14.5t30 29.5t35.5 48q6 21 17.5 51.5t26 58t32 47.5t37.5 20q28 0 35 -22.5t-0.5 -54.5t-25.5 -66t-39 -57
q8 41 18.5 74t23.5 61q4 8 -2.5 11t-10.5 -5q-10 -20 -19 -47t-16.5 -55t-12 -54t-4.5 -43q0 -9 3 -12t8 -3q16 0 64 48q8 8 20 8.5t21 -8.5t8.5 -21t-8.5 -20q-21 -21 -38 -34.5t-31.5 -21t-28 -10.5t-28.5 -3zM308 444q-5 8 -12 4t-3 -11l10 -17l-78 -54q-13 -9 -24.5 -6
t-17.5 11.5t-5 20t14 21.5l106 79q22 16 36.5 9.5t21.5 -18.5l41 -79q7 -14 3 -25t-13.5 -15.5t-21 -2t-19.5 15.5z" />
    <glyph glyph-name="udieresis" unicode="&#xfc;" horiz-adv-x="388" 
d="M303 -5q-35 0 -48 25.5t-8 58.5q1 4 -1 6.5t-5 3t-5.5 -1.5t-3.5 -6q-2 -12 -1.5 -23t2.5 -22q-47 -41 -100 -41q-24 0 -45 14.5t-21 49.5q0 23 8.5 45t19.5 45q4 8 -2 11t-11 -5q-7 -12 -15 -32t-14 -47l-12 -12q-8 -8 -20 -8.5t-21 8.5t-8.5 21t8.5 20q22 22 45 47
t44.5 51t39.5 51t29 48q10 20 22.5 24.5t23.5 2.5q20 -4 25.5 -21t-2.5 -32q-18 -36 -34.5 -68t-29.5 -58t-21 -46t-7 -33q0 -14 12 -14q6 0 16.5 4t24 14.5t30 29.5t35.5 48q6 21 17.5 51.5t26 58t32 47.5t37.5 20q28 0 35 -22.5t-0.5 -54.5t-25.5 -66t-39 -57
q8 41 18.5 74t23.5 61q4 8 -2.5 11t-10.5 -5q-10 -20 -19 -47t-16.5 -55t-12 -54t-4.5 -43q0 -9 3 -12t8 -3q16 0 64 48q8 8 20 8.5t21 -8.5t8.5 -21t-8.5 -20q-21 -21 -38 -34.5t-31.5 -21t-28 -10.5t-28.5 -3zM167 432q2 24 21 40.5t45 16.5q25 0 41.5 -16.5t14.5 -40.5
t-20.5 -40.5t-43.5 -16.5q-26 0 -43 16.5t-15 40.5zM322 432q2 24 21 40.5t45 16.5q25 0 42 -16.5t15 -40.5t-21 -40.5t-44 -16.5q-26 0 -43 16.5t-15 40.5z" />
    <glyph glyph-name="yacute" unicode="&#xfd;" horiz-adv-x="361" 
d="M402 64q-11 -11 -26.5 -24.5t-33 -27.5t-36 -27.5t-34.5 -24.5q13 25 23.5 51t23.5 53q12 11 23 22l19 19t20 8.5t21 -8.5t8.5 -21t-8.5 -20zM67 59q0 23 8.5 45t19.5 45q4 8 -2 11t-11 -5q-7 -12 -15 -32t-14 -47l-12 -12q-8 -8 -20 -8.5t-21 8.5t-8.5 21t8.5 20
q22 22 45 47t44.5 51t39.5 51t29 48q10 20 22.5 24.5t23.5 2.5q20 -4 25.5 -21t-2.5 -32q-18 -36 -34.5 -68t-29.5 -58t-21 -46t-7 -33q0 -14 12 -14q6 0 16.5 4t24 14.5t30 29.5t35.5 48q6 21 17.5 51.5t26 58t32 47.5t37.5 20q28 0 35 -22.5t-1 -54.5t-26.5 -66.5
t-39.5 -58.5q10 41 21 74.5t23 62.5q4 8 -2.5 11t-10.5 -5q-15 -29 -24.5 -60.5t-18 -63.5t-17.5 -64.5t-22 -63.5q-31 -73 -62.5 -117t-60 -68t-53 -31.5t-41.5 -7.5q-29 0 -45.5 15t-16.5 42q0 28 21 46.5t51 33.5t63 30t58 38q-23 -48 -58.5 -84.5t-74.5 -50.5
q-11 -4 -8.5 -12t11.5 -5q21 7 44.5 23t46.5 42.5t44 65t37 90.5q2 8 -5 10t-10 -6q-5 -14 -8.5 -24t-9.5 -24q-31 -30 -73 -30q-24 0 -45 14.5t-21 49.5zM317 363q-12 -9 -23.5 -7.5t-18.5 9t-6.5 19t12.5 22.5l92 80q15 13 28 11t20.5 -11.5t6.5 -23t-14 -23.5z" />
    <glyph glyph-name="thorn" unicode="&#xfe;" horiz-adv-x="386" 
d="M41 64q-8 -8 -20 -8.5t-21 8.5t-8.5 21t8.5 20q35 35 77 87t88 110l-2 -7q-11 -35 -21 -70t-19 -68q-7 -9 -18 -21.5t-22.5 -26t-22.5 -25.5t-19 -20zM250 292q13 33 27.5 64t28 59t26 51t22.5 39q5 8 -1 12.5t-13 -5.5q-42 -64 -70 -133t-50 -132q-9 -8 -18.5 -20
t-17.5 -24q-5 -7 1 -11.5t11 2.5q18 25 39 49.5t43 44t43.5 31t41.5 11.5q17 0 29.5 -9.5t12.5 -28.5q0 -29 -16 -60.5t-35.5 -61.5t-35.5 -55.5t-16 -42.5q0 -15 17 -15q10 0 28 13.5t39 34.5q8 8 20 8.5t21 -8.5t8.5 -21t-8.5 -20q-35 -35 -62.5 -52t-65.5 -17
q-28 0 -46 18t-18 53q0 24 13 49.5t28 49t28 42t13 27.5q0 7 -6 7t-21 -14t-34.5 -36.5t-41 -51.5t-39.5 -58q-16 -56 -34.5 -107.5t-39.5 -91t-44 -63.5t-48 -24q-43 0 -43 55q0 34 36 98.5t103 150.5q-11 -41 -23 -74.5t-25 -61t-26 -50t-26 -43.5q-6 -10 1 -14t13 6
q22 34 47 82.5t49 129.5q13 45 28.5 100.5t33 113t38 111.5t44 96.5t50 68t57.5 25.5q20 0 33.5 -13t13.5 -38q0 -32 -17 -62t-41.5 -59.5t-53 -60t-51.5 -64.5z" />
    <glyph glyph-name="ydieresis" unicode="&#xff;" horiz-adv-x="361" 
d="M402 64q-11 -11 -26.5 -24.5t-33 -27.5t-36 -27.5t-34.5 -24.5q13 25 23.5 51t23.5 53q12 11 23 22l19 19t20 8.5t21 -8.5t8.5 -21t-8.5 -20zM67 59q0 23 8.5 45t19.5 45q4 8 -2 11t-11 -5q-7 -12 -15 -32t-14 -47l-12 -12q-8 -8 -20 -8.5t-21 8.5t-8.5 21t8.5 20
q22 22 45 47t44.5 51t39.5 51t29 48q10 20 22.5 24.5t23.5 2.5q20 -4 25.5 -21t-2.5 -32q-18 -36 -34.5 -68t-29.5 -58t-21 -46t-7 -33q0 -14 12 -14q6 0 16.5 4t24 14.5t30 29.5t35.5 48q6 21 17.5 51.5t26 58t32 47.5t37.5 20q28 0 35 -22.5t-1 -54.5t-26.5 -66.5
t-39.5 -58.5q10 41 21 74.5t23 62.5q4 8 -2.5 11t-10.5 -5q-15 -29 -24.5 -60.5t-18 -63.5t-17.5 -64.5t-22 -63.5q-31 -73 -62.5 -117t-60 -68t-53 -31.5t-41.5 -7.5q-29 0 -45.5 15t-16.5 42q0 28 21 46.5t51 33.5t63 30t58 38q-23 -48 -58.5 -84.5t-74.5 -50.5
q-11 -4 -8.5 -12t11.5 -5q21 7 44.5 23t46.5 42.5t44 65t37 90.5q2 8 -5 10t-10 -6q-5 -14 -8.5 -24t-9.5 -24q-31 -30 -73 -30q-24 0 -45 14.5t-21 49.5zM167 432q2 24 21 40.5t45 16.5q25 0 41.5 -16.5t14.5 -40.5t-20.5 -40.5t-43.5 -16.5q-26 0 -43 16.5t-15 40.5z
M322 432q2 24 21 40.5t45 16.5q25 0 42 -16.5t15 -40.5t-21 -40.5t-44 -16.5q-26 0 -43 16.5t-15 40.5z" />
    <glyph glyph-name="Amacron" unicode="&#x100;" horiz-adv-x="653" 
d="M139 156q0 -57 25 -87.5t66.5 -35t94 16.5t107.5 65q-1 -9 -1.5 -17.5t-0.5 -16.5q0 -11 1 -21.5t4 -23.5q-66 -45 -131.5 -62.5t-117.5 -4.5t-84 57.5t-32 123.5q0 68 24 141t65.5 142.5t95.5 131t114.5 108t123 73.5t119.5 27q71 0 102 -34t31 -82q0 -47 -24 -98
t-67 -87q-15 -12 -29 -10.5t-22 10.5t-7.5 23t15.5 27q13 12 26 27t22.5 31.5t15.5 34t6 32.5q0 25 -17 41.5t-59 16.5q-43 0 -94.5 -23t-103 -62.5t-100 -93t-86 -114.5t-60 -126.5t-22.5 -129.5zM446 81q0 35 10 74.5t27 79t39 75t45.5 63t46.5 44t42 16.5q36 0 36 -45
q0 -29 -15.5 -65t-39 -73.5t-51.5 -72.5t-52 -61q3 27 16 60.5t30.5 66t38 60t38.5 44.5q8 7 3 13t-13 0q-21 -18 -44.5 -50t-43.5 -70t-33 -79t-13 -77q0 -33 15 -41t36.5 -0.5t45.5 25.5t43 37q8 8 20 8.5t21 -8.5t8.5 -21t-8.5 -20q-42 -42 -86 -63.5t-80 -21t-59 25.5
t-23 76zM701 844q-21 -3 -39.5 -2.5t-36 2t-36 2.5t-39.5 -2q-11 -2 -22 4.5t-13 23.5q-2 14 8 23t22 11q21 3 39 2t36 -2.5t36.5 -2t39.5 2.5q11 2 22 -4.5t13 -23.5q2 -15 -8.5 -23.5t-21.5 -10.5z" />
    <glyph glyph-name="amacron" unicode="&#x101;" horiz-adv-x="390" 
d="M41 64q-8 -8 -20 -8.5t-21 8.5t-8.5 21t8.5 20q20 20 36.5 34.5t37.5 31.5q-11 -22 -17 -45.5t-5 -50.5zM249 275q-14 -8 -30 -20.5t-32 -30.5t-29.5 -42t-22.5 -54q-2 -8 -4.5 -19.5t-2 -22.5t6 -19t18.5 -8q31 0 61 26.5t55.5 62.5t46 73t33.5 58q11 18 24 22.5t24 1.5
q20 -5 24 -22t-4 -32q-19 -35 -36.5 -63.5t-31 -51t-22 -39t-8.5 -26.5q0 -11 10 -11q4 0 8 1.5t10.5 6.5t16.5 14t26 25q8 8 20 8.5t21 -8.5t8.5 -21t-8.5 -20q-37 -37 -63 -53t-59 -16q-28 0 -44 17t-14 52q1 9 -6 9.5t-9 -8.5t-1 -17.5t3 -14.5q-21 -17 -44 -27.5
t-51 -10.5q-30 0 -53 21.5t-23 66.5q0 41 20 84.5t51 79t68.5 58.5t72.5 23q17 0 27.5 -10t7.5 -31q-3 -22 -18 -38t-37 -31t-48.5 -32t-53.5 -39q16 39 43.5 68.5t54.5 43.5q10 5 6 12.5t-12 3.5zM397 398q-21 -3 -39.5 -2.5t-36 2t-36 2.5t-39.5 -2q-11 -2 -22 4.5
t-13 23.5q-2 14 8 23t22 11q21 3 39 2t36 -2.5t36.5 -2t39.5 2.5q11 2 22 -4.5t13 -23.5q2 -15 -8.5 -23.5t-21.5 -10.5z" />
    <glyph glyph-name="Abreve" unicode="&#x102;" horiz-adv-x="653" 
d="M139 156q0 -57 25 -87.5t66.5 -35t94 16.5t107.5 65q-1 -9 -1.5 -17.5t-0.5 -16.5q0 -11 1 -21.5t4 -23.5q-66 -45 -131.5 -62.5t-117.5 -4.5t-84 57.5t-32 123.5q0 68 24 141t65.5 142.5t95.5 131t114.5 108t123 73.5t119.5 27q71 0 102 -34t31 -82q0 -47 -24 -98
t-67 -87q-15 -12 -29 -10.5t-22 10.5t-7.5 23t15.5 27q13 12 26 27t22.5 31.5t15.5 34t6 32.5q0 25 -17 41.5t-59 16.5q-43 0 -94.5 -23t-103 -62.5t-100 -93t-86 -114.5t-60 -126.5t-22.5 -129.5zM446 81q0 35 10 74.5t27 79t39 75t45.5 63t46.5 44t42 16.5q36 0 36 -45
q0 -29 -15.5 -65t-39 -73.5t-51.5 -72.5t-52 -61q3 27 16 60.5t30.5 66t38 60t38.5 44.5q8 7 3 13t-13 0q-21 -18 -44.5 -50t-43.5 -70t-33 -79t-13 -77q0 -33 15 -41t36.5 -0.5t45.5 25.5t43 37q8 8 20 8.5t21 -8.5t8.5 -21t-8.5 -20q-42 -42 -86 -63.5t-80 -21t-59 25.5
t-23 76zM568 890q4 15 12.5 19t17 0t13.5 -15.5t3 -29.5q-2 -15 12 -21t31.5 -5t33 9t16.5 22q1 16 12.5 23.5t23 6.5t19 -9t1.5 -23q-17 -43 -46 -58.5t-75 -15.5q-26 0 -42.5 8t-25.5 21.5t-10 31t4 36.5z" />
    <glyph glyph-name="abreve" unicode="&#x103;" horiz-adv-x="390" 
d="M41 64q-8 -8 -20 -8.5t-21 8.5t-8.5 21t8.5 20q20 20 36.5 34.5t37.5 31.5q-11 -22 -17 -45.5t-5 -50.5zM249 275q-14 -8 -30 -20.5t-32 -30.5t-29.5 -42t-22.5 -54q-2 -8 -4.5 -19.5t-2 -22.5t6 -19t18.5 -8q31 0 61 26.5t55.5 62.5t46 73t33.5 58q11 18 24 22.5t24 1.5
q20 -5 24 -22t-4 -32q-19 -35 -36.5 -63.5t-31 -51t-22 -39t-8.5 -26.5q0 -11 10 -11q4 0 8 1.5t10.5 6.5t16.5 14t26 25q8 8 20 8.5t21 -8.5t8.5 -21t-8.5 -20q-37 -37 -63 -53t-59 -16q-28 0 -44 17t-14 52q1 9 -6 9.5t-9 -8.5t-1 -17.5t3 -14.5q-21 -17 -44 -27.5
t-51 -10.5q-30 0 -53 21.5t-23 66.5q0 41 20 84.5t51 79t68.5 58.5t72.5 23q17 0 27.5 -10t7.5 -31q-3 -22 -18 -38t-37 -31t-48.5 -32t-53.5 -39q16 39 43.5 68.5t54.5 43.5q10 5 6 12.5t-12 3.5zM259 441q4 15 12.5 19t17 0t13.5 -15.5t3 -29.5q-2 -15 12 -21t31.5 -5
t33 9t16.5 22q1 16 12.5 23.5t23 6.5t19 -9t1.5 -23q-17 -43 -46 -58.5t-75 -15.5q-26 0 -42.5 8t-25.5 21.5t-10 31t4 36.5z" />
    <glyph glyph-name="Aogonek" unicode="&#x104;" horiz-adv-x="653" 
d="M139 156q0 -57 25 -87.5t66.5 -35t94 16.5t107.5 65q-1 -9 -1.5 -17.5t-0.5 -16.5q0 -11 1 -21.5t4 -23.5q-66 -45 -131.5 -62.5t-117.5 -4.5t-84 57.5t-32 123.5q0 68 24 141t65.5 142.5t95.5 131t114.5 108t123 73.5t119.5 27q71 0 102 -34t31 -82q0 -47 -24 -98
t-67 -87q-15 -12 -29 -10.5t-22 10.5t-7.5 23t15.5 27q13 12 26 27t22.5 31.5t15.5 34t6 32.5q0 25 -17 41.5t-59 16.5q-43 0 -94.5 -23t-103 -62.5t-100 -93t-86 -114.5t-60 -126.5t-22.5 -129.5zM514 6q9 0 9 8.5t-9 8.5q-22 0 -45 -17q-23 26 -23 75q0 35 10 74.5t27 79
t39 75t45.5 63t46.5 44t42 16.5q36 0 36 -45q0 -29 -15.5 -65t-39 -73.5t-51.5 -72.5t-52 -61q3 27 16 60.5t30.5 66t38 60t38.5 44.5q8 7 3 13t-13 0q-21 -18 -44.5 -50t-43.5 -70t-33 -79t-13 -77q0 -33 15 -41t36.5 -0.5t45.5 25.5t43 37q8 8 20 8.5t21 -8.5t8.5 -21
t-8.5 -20q-35 -35 -72 -52t-66 -33q-12 -7 -27.5 -14t-29 -16.5t-23 -23t-9.5 -32.5q0 -12 6.5 -18t15.5 -6.5t19.5 4t18.5 12.5q9 9 19.5 8t17 -8.5t7 -19t-10.5 -23.5q-17 -19 -42.5 -26t-49.5 -1.5t-41 24t-17 51.5q0 19 7.5 36t18 30t21.5 22t19 14q6 4 17 9t21 5z" />
    <glyph glyph-name="aogonek" unicode="&#x105;" horiz-adv-x="390" 
d="M41 64q-8 -8 -20 -8.5t-21 8.5t-8.5 21t8.5 20q20 20 36.5 34.5t37.5 31.5q-11 -22 -17 -45.5t-5 -50.5zM260 21q-5 8 -8 17.5t-1 25.5q1 9 -6 9.5t-9 -8.5t-1 -17.5t3 -14.5q-21 -17 -44 -27.5t-51 -10.5q-30 0 -53 21.5t-23 66.5q0 41 20 84.5t51 79t68.5 58.5t72.5 23
q17 0 27.5 -10t7.5 -31q-3 -22 -18 -38t-37 -31t-48.5 -32t-53.5 -39q16 39 43.5 68.5t54.5 43.5q10 5 6 12.5t-12 3.5q-14 -8 -30 -20.5t-32 -30.5t-29.5 -42t-22.5 -54q-2 -8 -4.5 -19.5t-2 -22.5t6 -19t18.5 -8q31 0 61 26.5t55.5 62.5t46 73t33.5 58q11 18 24 22.5
t24 1.5q20 -5 24 -22t-4 -32q-19 -35 -36.5 -63.5t-31 -51t-22 -39t-8.5 -26.5q0 -11 10 -11q4 0 8 1.5t10.5 6.5t16.5 14t26 25q8 8 20 8.5t21 -8.5t8.5 -21t-8.5 -20q-26 -26 -52.5 -44t-54.5 -34q-26 -15 -43 -31t-17 -42q0 -12 6.5 -18t15.5 -6.5t19.5 4t18.5 12.5
q9 9 19.5 8t17 -8.5t7 -19t-10.5 -23.5q-17 -19 -42.5 -26t-49.5 -1.5t-41 24t-17 51.5q0 19 7 35t16.5 28.5t19.5 20.5t17 13q9 6 17 9.5t18 5.5q5 1 7 3.5t1.5 5.5t-3.5 5.5t-8 1.5q-10 -2 -19 -5.5t-20 -11.5z" />
    <glyph glyph-name="Cacute" unicode="&#x106;" horiz-adv-x="539" 
d="M575 773q71 0 102 -34t31 -82q0 -47 -24 -98t-67 -87q-15 -12 -29 -10.5t-22 10.5t-7.5 23t15.5 27q13 12 26 27t22.5 31.5t15.5 34t6 32.5q0 25 -17 41.5t-59 16.5q-43 0 -91.5 -21t-96.5 -58t-91.5 -86.5t-76.5 -106t-53 -117.5t-20 -120q0 -52 13.5 -88.5t37 -60
t54 -34t65.5 -10.5q30 0 61.5 7.5t61.5 21t57.5 32.5t49.5 41q8 8 20 8.5t21 -8.5t8.5 -21t-8.5 -20q-60 -60 -130.5 -92.5t-149.5 -32.5q-46 0 -88 14.5t-73.5 45t-50 78t-18.5 113.5q0 65 21.5 134t58.5 133.5t86.5 122t105.5 100.5t116 68t117 25zM559 809
q-12 -9 -23.5 -7.5t-18.5 9t-6.5 19t12.5 22.5l92 80q15 13 28 11t20.5 -11.5t6.5 -23t-14 -23.5z" />
    <glyph glyph-name="cacute" unicode="&#x107;" 
d="M178 48q32 0 64.5 12.5t64.5 44.5q8 8 20 8.5t21 -8.5t8.5 -21t-8.5 -20q-39 -39 -83 -56.5t-87 -17.5q-54 0 -82.5 24t-28.5 69q0 13 1.5 22.5t3.5 18.5q2 10 -5 11.5t-10 -7.5q-3 -11 -4.5 -25.5t-1.5 -28.5l-10 -10q-8 -8 -20 -8.5t-21 8.5t-8.5 21t8.5 20
q18 18 38.5 40t42 45.5t43 45.5t41.5 39q27 23 56.5 38t57.5 15q29 0 43.5 -16t11.5 -47q-2 -18 -8.5 -33t-20.5 -32q-12 -13 -24 -14t-20.5 5.5t-10 18.5t9.5 26q12 15 12.5 22.5t-6.5 7.5q-22 0 -45.5 -16t-43.5 -40.5t-33.5 -52.5t-16 -52.5t8.5 -40.5t42 -16zM260 363
q-12 -9 -23.5 -7.5t-18.5 9t-6.5 19t12.5 22.5l92 80q15 13 28 11t20.5 -11.5t6.5 -23t-14 -23.5z" />
    <glyph glyph-name="Ccircumflex" unicode="&#x108;" horiz-adv-x="539" 
d="M575 773q71 0 102 -34t31 -82q0 -47 -24 -98t-67 -87q-15 -12 -29 -10.5t-22 10.5t-7.5 23t15.5 27q13 12 26 27t22.5 31.5t15.5 34t6 32.5q0 25 -17 41.5t-59 16.5q-43 0 -91.5 -21t-96.5 -58t-91.5 -86.5t-76.5 -106t-53 -117.5t-20 -120q0 -52 13.5 -88.5t37 -60
t54 -34t65.5 -10.5q30 0 61.5 7.5t61.5 21t57.5 32.5t49.5 41q8 8 20 8.5t21 -8.5t8.5 -21t-8.5 -20q-60 -60 -130.5 -92.5t-149.5 -32.5q-46 0 -88 14.5t-73.5 45t-50 78t-18.5 113.5q0 65 21.5 134t58.5 133.5t86.5 122t105.5 100.5t116 68t117 25zM587 890q-5 8 -12 4
t-3 -11l10 -17l-78 -54q-13 -9 -24.5 -6t-17.5 11.5t-5 20t14 21.5l106 79q22 16 36.5 9.5t21.5 -18.5l41 -79q7 -14 3 -25t-13.5 -15.5t-21 -2t-19.5 15.5z" />
    <glyph glyph-name="ccircumflex" unicode="&#x109;" 
d="M178 48q32 0 64.5 12.5t64.5 44.5q8 8 20 8.5t21 -8.5t8.5 -21t-8.5 -20q-39 -39 -83 -56.5t-87 -17.5q-54 0 -82.5 24t-28.5 69q0 13 1.5 22.5t3.5 18.5q2 10 -5 11.5t-10 -7.5q-3 -11 -4.5 -25.5t-1.5 -28.5l-10 -10q-8 -8 -20 -8.5t-21 8.5t-8.5 21t8.5 20
q18 18 38.5 40t42 45.5t43 45.5t41.5 39q27 23 56.5 38t57.5 15q29 0 43.5 -16t11.5 -47q-2 -18 -8.5 -33t-20.5 -32q-12 -13 -24 -14t-20.5 5.5t-10 18.5t9.5 26q12 15 12.5 22.5t-6.5 7.5q-22 0 -45.5 -16t-43.5 -40.5t-33.5 -52.5t-16 -52.5t8.5 -40.5t42 -16zM281 444
q-5 8 -12 4t-3 -11l10 -17l-78 -54q-13 -9 -24.5 -6t-17.5 11.5t-5 20t14 21.5l106 79q22 16 36.5 9.5t21.5 -18.5l41 -79q7 -14 3 -25t-13.5 -15.5t-21 -2t-19.5 15.5z" />
    <glyph glyph-name="Cdotaccent" unicode="&#x10a;" horiz-adv-x="539" 
d="M575 773q71 0 102 -34t31 -82q0 -47 -24 -98t-67 -87q-15 -12 -29 -10.5t-22 10.5t-7.5 23t15.5 27q13 12 26 27t22.5 31.5t15.5 34t6 32.5q0 25 -17 41.5t-59 16.5q-43 0 -91.5 -21t-96.5 -58t-91.5 -86.5t-76.5 -106t-53 -117.5t-20 -120q0 -52 13.5 -88.5t37 -60
t54 -34t65.5 -10.5q30 0 61.5 7.5t61.5 21t57.5 32.5t49.5 41q8 8 20 8.5t21 -8.5t8.5 -21t-8.5 -20q-60 -60 -130.5 -92.5t-149.5 -32.5q-46 0 -88 14.5t-73.5 45t-50 78t-18.5 113.5q0 65 21.5 134t58.5 133.5t86.5 122t105.5 100.5t116 68t117 25zM518 878q2 24 21 40.5
t45 16.5q25 0 42 -16.5t15 -40.5t-21 -40.5t-44 -16.5q-26 0 -43 16.5t-15 40.5z" />
    <glyph glyph-name="cdotaccent" unicode="&#x10b;" 
d="M178 48q32 0 64.5 12.5t64.5 44.5q8 8 20 8.5t21 -8.5t8.5 -21t-8.5 -20q-39 -39 -83 -56.5t-87 -17.5q-54 0 -82.5 24t-28.5 69q0 13 1.5 22.5t3.5 18.5q2 10 -5 11.5t-10 -7.5q-3 -11 -4.5 -25.5t-1.5 -28.5l-10 -10q-8 -8 -20 -8.5t-21 8.5t-8.5 21t8.5 20
q18 18 38.5 40t42 45.5t43 45.5t41.5 39q27 23 56.5 38t57.5 15q29 0 43.5 -16t11.5 -47q-2 -18 -8.5 -33t-20.5 -32q-12 -13 -24 -14t-20.5 5.5t-10 18.5t9.5 26q12 15 12.5 22.5t-6.5 7.5q-22 0 -45.5 -16t-43.5 -40.5t-33.5 -52.5t-16 -52.5t8.5 -40.5t42 -16zM219 432
q2 24 21 40.5t45 16.5q25 0 42 -16.5t15 -40.5t-21 -40.5t-44 -16.5q-26 0 -43 16.5t-15 40.5z" />
    <glyph glyph-name="Ccaron" unicode="&#x10c;" horiz-adv-x="539" 
d="M575 773q71 0 102 -34t31 -82q0 -47 -24 -98t-67 -87q-15 -12 -29 -10.5t-22 10.5t-7.5 23t15.5 27q13 12 26 27t22.5 31.5t15.5 34t6 32.5q0 25 -17 41.5t-59 16.5q-43 0 -91.5 -21t-96.5 -58t-91.5 -86.5t-76.5 -106t-53 -117.5t-20 -120q0 -52 13.5 -88.5t37 -60
t54 -34t65.5 -10.5q30 0 61.5 7.5t61.5 21t57.5 32.5t49.5 41q8 8 20 8.5t21 -8.5t8.5 -21t-8.5 -20q-60 -60 -130.5 -92.5t-149.5 -32.5q-46 0 -88 14.5t-73.5 45t-50 78t-18.5 113.5q0 65 21.5 134t58.5 133.5t86.5 122t105.5 100.5t116 68t117 25zM563 893l-16 -12
q-8 -5 -3.5 -11.5t11.5 -1.5l107 75q12 9 23.5 7t18 -10.5t5.5 -20.5t-14 -22l-105 -78q-17 -12 -32.5 -12.5t-26.5 20.5l-41 79q-7 13 -3 24t13.5 16t21 2t19.5 -16z" />
    <glyph glyph-name="ccaron" unicode="&#x10d;" 
d="M178 48q32 0 64.5 12.5t64.5 44.5q8 8 20 8.5t21 -8.5t8.5 -21t-8.5 -20q-39 -39 -83 -56.5t-87 -17.5q-54 0 -82.5 24t-28.5 69q0 13 1.5 22.5t3.5 18.5q2 10 -5 11.5t-10 -7.5q-3 -11 -4.5 -25.5t-1.5 -28.5l-10 -10q-8 -8 -20 -8.5t-21 8.5t-8.5 21t8.5 20
q18 18 38.5 40t42 45.5t43 45.5t41.5 39q27 23 56.5 38t57.5 15q29 0 43.5 -16t11.5 -47q-2 -18 -8.5 -33t-20.5 -32q-12 -13 -24 -14t-20.5 5.5t-10 18.5t9.5 26q12 15 12.5 22.5t-6.5 7.5q-22 0 -45.5 -16t-43.5 -40.5t-33.5 -52.5t-16 -52.5t8.5 -40.5t42 -16zM254 447
l-16 -12q-8 -5 -3.5 -11.5t11.5 -1.5l107 75q12 9 23.5 7t18 -10.5t5.5 -20.5t-14 -22l-105 -78q-17 -12 -32.5 -12.5t-26.5 20.5l-41 79q-7 13 -3 24t13.5 16t21 2t19.5 -16z" />
    <glyph glyph-name="Dcaron" unicode="&#x10e;" horiz-adv-x="740" 
d="M403 689q-58 0 -100 -27t-63.5 -68t-20 -90.5t31.5 -95.5q13 -20 10 -35t-14.5 -22t-27 -4.5t-26.5 19.5q-26 38 -36 82t-5 87t23.5 83t50 70.5t75 49t97.5 18.5q101 0 174 -40t119 -104.5t64.5 -144t10.5 -158.5t-42 -149.5t-94.5 -115.5t-146.5 -56t-197 27
q16 10 31.5 21t29.5 25q85 -24 150 -10t109 54t68 98.5t27.5 123.5t-13.5 129.5t-54.5 116.5t-95 84t-135.5 32zM149 -8q-27 0 -45 10t-26 25t-7.5 33t10 33t26.5 25t42 10q31 0 52 -5.5t45 -13.5q-15 -14 -42.5 -26t-53.5 -12q-8 0 -8 -8t8 -8q45 0 86.5 28t81 72.5
t77.5 100.5t75.5 112.5t75 107.5t76.5 87q11 -16 20 -32.5t17 -34.5q-38 -29 -72.5 -78t-70 -105t-73 -113t-81.5 -103.5t-96.5 -75.5t-116.5 -29zM717 637q16 9 29.5 2.5t19.5 -19.5t4 -27.5t-16 -21.5q-3 -2 -8 -4.5t-9 -5.5q-16 33 -39 64z" />
    <glyph glyph-name="dcaron" unicode="&#x10f;" horiz-adv-x="582" 
d="M296 89q-2 40 9 93t30.5 109t45 110.5t53 97t54.5 68.5t49 26q23 0 32.5 -14.5t7.5 -43.5q-1 -27 -19.5 -69.5t-46 -91.5t-61.5 -100t-67 -95q24 89 63.5 169.5t86.5 156.5q5 8 -1 12.5t-12 -4.5q-21 -31 -49 -81.5t-53 -107.5t-42.5 -114.5t-17.5 -102.5q0 -32 9 -40
t20 -8q25 0 71 46q8 8 20 8.5t21 -8.5t8.5 -21t-8.5 -20q-22 -22 -40 -35.5t-33 -21t-27 -10t-21 -2.5q-39 0 -59.5 24.5t-22.5 69.5zM41 64q-8 -8 -20 -8.5t-21 8.5t-8.5 21t8.5 20q20 20 36.5 34.5t37.5 31.5q-11 -22 -16.5 -45.5t-5.5 -50.5zM255 259q10 5 6 12.5
t-12 3.5q-14 -8 -30 -20.5t-32 -30.5t-29.5 -42t-22.5 -54q-2 -8 -4.5 -19.5t-2 -22.5t6 -19t18.5 -8q18 0 35.5 10t35 26.5t33.5 37t31 40.5q-8 -44 -7 -97q-29 -33 -63.5 -57t-78.5 -24q-27 0 -49.5 21.5t-22.5 66.5q0 41 20 84.5t51 79t68.5 58.5t72.5 23q17 0 27.5 -10
t7.5 -31q-3 -22 -18 -38t-37 -31t-48.5 -32t-53.5 -39q16 39 43.5 68.5t54.5 43.5z" />
    <glyph glyph-name="Dcroat" unicode="&#x110;" horiz-adv-x="740" 
d="M403 689q-58 0 -100 -27t-63.5 -68t-20 -90.5t31.5 -95.5q13 -20 10 -35t-14.5 -22t-27 -4.5t-26.5 19.5q-26 38 -36 82t-5 87t23.5 83t50 70.5t75 49t97.5 18.5q101 0 174 -40t119 -104.5t64.5 -144t10.5 -158.5t-42 -149.5t-94.5 -115.5t-146.5 -56t-197 27
q16 10 31.5 21t29.5 25q85 -24 150 -10t109 54t68 98.5t27.5 123.5t-13.5 129.5t-54.5 116.5t-95 84t-135.5 32zM717 637q16 9 29.5 2.5t19.5 -19.5t4 -27.5t-16 -21.5q-3 -2 -8 -4.5t-9 -5.5q-16 33 -39 64zM575 242q-23 -3 -61 -2.5t-79.5 2t-80 2.5t-60.5 -2
q-13 -2 -24.5 4.5t-13.5 24.5q-2 17 8.5 26t23.5 11q22 3 60.5 2t80 -2.5t79.5 -2t61 2.5q13 2 24.5 -4.5t13.5 -24.5q2 -17 -8.5 -26t-23.5 -11zM149 -8q-27 0 -45 10t-26 25t-7.5 33t10 33t26.5 25t42 10q31 0 52 -5.5t45 -13.5q-15 -14 -42.5 -26t-53.5 -12q-8 0 -8 -8
t8 -8q30 0 59.5 13.5t57.5 36.5t55 54.5t53 67.5q25 0 45 -1t40 -1q-30 -46 -63 -88t-71 -74.5t-81.5 -51.5t-95.5 -19zM622 563q11 -16 20 -32.5t17 -34.5q-37 -29 -70 -74.5t-67 -99.5h-39.5t-41.5 1q45 69 89.5 133t91.5 107z" />
    <glyph glyph-name="dcroat" unicode="&#x111;" horiz-adv-x="458" 
d="M41 64q-8 -8 -20 -8.5t-21 8.5t-8.5 21t8.5 20q20 20 36.5 34.5t37.5 31.5q-11 -22 -16.5 -45.5t-5.5 -50.5zM255 259q10 5 6 12.5t-12 3.5q-14 -8 -30 -20.5t-32 -30.5t-29.5 -42t-22.5 -54q-2 -8 -4.5 -19.5t-2 -22.5t6 -19t18.5 -8q18 0 35.5 10t35 26.5t33.5 37
t31 40.5q-8 -44 -7 -97q-29 -33 -63.5 -57t-78.5 -24q-27 0 -49.5 21.5t-22.5 66.5q0 41 20 84.5t51 79t68.5 58.5t72.5 23q17 0 27.5 -10t7.5 -31q-3 -22 -18 -38t-37 -31t-48.5 -32t-53.5 -39q16 39 43.5 68.5t54.5 43.5zM383 179q14 50 32 97t41 92h52
q-28 -48 -60.5 -97.5t-64.5 -91.5zM311 451q17 2 36.5 2t42.5 -1q-8 -15 -16 -31.5t-16 -33.5q-12 0 -22 -0.5t-19 -1.5q-13 -2 -24.5 4.5t-13.5 24.5q-2 17 8.5 26t23.5 11zM543 385q-17 -2 -37 -2.5t-43 0.5q9 18 18 35.5t18 29.5q20 0 38 3q13 2 24.5 -4.5t13.5 -24.5
q2 -17 -8.5 -26t-23.5 -11zM296 89q-2 40 9 93t30.5 109t45 110.5t53 97t54.5 68.5t49 26q23 0 32.5 -14.5t7.5 -43.5q-1 -14 -6.5 -31.5t-13.5 -38.5q-5 1 -11 1.5t-11 -0.5q-7 -2 -13.5 -2h-13.5l25 41q5 8 -1 12.5t-12 -4.5q-21 -31 -49 -81.5t-53 -107.5t-42.5 -114.5
t-17.5 -102.5q0 -32 9 -40t20 -8q25 0 71 46q8 8 20 8.5t21 -8.5t8.5 -21t-8.5 -20q-22 -22 -40 -35.5t-33 -21t-27 -10t-21 -2.5q-39 0 -59.5 24.5t-22.5 69.5z" />
    <glyph glyph-name="Emacron" unicode="&#x112;" horiz-adv-x="540" 
d="M574 710q-45 0 -83 -22t-62.5 -55t-33.5 -73t4 -76q-18 -1 -34.5 -3.5t-32.5 -7.5q-12 47 0 99.5t44.5 97t84.5 73.5t121 29q53 0 83.5 -29t38 -70t-7.5 -84.5t-53 -72.5q-14 -11 -27 -8.5t-20 11.5t-6 22t14 24q18 15 28.5 39.5t9 48t-17.5 40.5t-50 17zM442 357
q-37 11 -64 35q23 5 52.5 5.5t52.5 -5.5q8 -2 10.5 5t-6.5 10q-11 4 -25 5.5t-28 1.5q-79 0 -139.5 -30.5t-99.5 -76.5t-54 -99t-2 -99t54.5 -76.5t116.5 -30.5q60 0 121.5 28t108.5 75q8 8 20 8.5t21 -8.5t8.5 -21t-8.5 -20q-55 -55 -124 -90.5t-156 -35.5
q-91 0 -145.5 39.5t-74 99t-5 128.5t61 128.5t123.5 99t184 39.5q37 0 60 -11.5t33.5 -27.5t9 -34t-14 -31t-36 -17.5t-55.5 6.5zM675 844q-21 -3 -39.5 -2.5t-36 2t-36 2.5t-39.5 -2q-11 -2 -22 4.5t-13 23.5q-2 14 8 23t22 11q21 3 39 2t36 -2.5t36.5 -2t39.5 2.5
q11 2 22 -4.5t13 -23.5q2 -15 -8.5 -23.5t-21.5 -10.5z" />
    <glyph glyph-name="emacron" unicode="&#x113;" 
d="M178 48q32 0 64.5 12.5t64.5 44.5q8 8 20 8.5t21 -8.5t8.5 -21t-8.5 -20q-39 -39 -83 -56.5t-87 -17.5q-54 0 -82.5 24t-28.5 69q0 13 1.5 22.5t3.5 18.5q2 10 -5 11.5t-10 -7.5q-3 -11 -4.5 -25.5t-1.5 -28.5l-10 -10q-8 -8 -20 -8.5t-21 8.5t-8.5 21t8.5 20
q18 18 38.5 40t42 45.5t43 45.5t41.5 39q27 23 56.5 38t57.5 15q29 0 43.5 -16t11.5 -47q-2 -26 -17 -51t-40 -45t-58.5 -32.5t-72.5 -13.5q4 14 11 28t15 27q20 2 37 10.5t29.5 19.5t21 22t11.5 19q7 19 -15 16q-21 -4 -43.5 -21.5t-41 -41.5t-31 -51t-14 -50t10 -38
t41.5 -15zM351 398q-21 -3 -39.5 -2.5t-36 2t-36 2.5t-39.5 -2q-11 -2 -22 4.5t-13 23.5q-2 14 8 23t22 11q21 3 39 2t36 -2.5t36.5 -2t39.5 2.5q11 2 22 -4.5t13 -23.5q2 -15 -8.5 -23.5t-21.5 -10.5z" />
    <glyph glyph-name="Edotaccent" unicode="&#x116;" horiz-adv-x="540" 
d="M574 710q-45 0 -83 -22t-62.5 -55t-33.5 -73t4 -76q-18 -1 -34.5 -3.5t-32.5 -7.5q-12 47 0 99.5t44.5 97t84.5 73.5t121 29q53 0 83.5 -29t38 -70t-7.5 -84.5t-53 -72.5q-14 -11 -27 -8.5t-20 11.5t-6 22t14 24q18 15 28.5 39.5t9 48t-17.5 40.5t-50 17zM442 357
q-37 11 -64 35q23 5 52.5 5.5t52.5 -5.5q8 -2 10.5 5t-6.5 10q-11 4 -25 5.5t-28 1.5q-79 0 -139.5 -30.5t-99.5 -76.5t-54 -99t-2 -99t54.5 -76.5t116.5 -30.5q60 0 121.5 28t108.5 75q8 8 20 8.5t21 -8.5t8.5 -21t-8.5 -20q-55 -55 -124 -90.5t-156 -35.5
q-91 0 -145.5 39.5t-74 99t-5 128.5t61 128.5t123.5 99t184 39.5q37 0 60 -11.5t33.5 -27.5t9 -34t-14 -31t-36 -17.5t-55.5 6.5zM542 878q2 24 21 40.5t45 16.5q25 0 42 -16.5t15 -40.5t-21 -40.5t-44 -16.5q-26 0 -43 16.5t-15 40.5z" />
    <glyph glyph-name="edotaccent" unicode="&#x117;" 
d="M178 48q32 0 64.5 12.5t64.5 44.5q8 8 20 8.5t21 -8.5t8.5 -21t-8.5 -20q-39 -39 -83 -56.5t-87 -17.5q-54 0 -82.5 24t-28.5 69q0 13 1.5 22.5t3.5 18.5q2 10 -5 11.5t-10 -7.5q-3 -11 -4.5 -25.5t-1.5 -28.5l-10 -10q-8 -8 -20 -8.5t-21 8.5t-8.5 21t8.5 20
q18 18 38.5 40t42 45.5t43 45.5t41.5 39q27 23 56.5 38t57.5 15q29 0 43.5 -16t11.5 -47q-2 -26 -17 -51t-40 -45t-58.5 -32.5t-72.5 -13.5q4 14 11 28t15 27q20 2 37 10.5t29.5 19.5t21 22t11.5 19q7 19 -15 16q-21 -4 -43.5 -21.5t-41 -41.5t-31 -51t-14 -50t10 -38
t41.5 -15zM218 432q2 24 21 40.5t45 16.5q25 0 42 -16.5t15 -40.5t-21 -40.5t-44 -16.5q-26 0 -43 16.5t-15 40.5z" />
    <glyph glyph-name="Eogonek" unicode="&#x118;" horiz-adv-x="540" 
d="M442 357q-37 11 -64 35q23 5 52.5 5.5t52.5 -5.5q8 -2 10.5 5t-6.5 10q-11 4 -25 5.5t-28 1.5q-79 0 -139.5 -30.5t-99.5 -76.5t-54 -99t-2 -99t54.5 -76.5t116.5 -30.5q60 0 121.5 28t108.5 75q8 8 20 8.5t21 -8.5t8.5 -21t-8.5 -20q-17 -17 -37.5 -33.5t-41.5 -30.5
q-16 -10 -36.5 -20.5t-38.5 -23t-30.5 -28t-12.5 -35.5q0 -12 6.5 -18t15.5 -6.5t19.5 4t18.5 12.5q9 9 19.5 8t17 -8.5t7 -19t-10.5 -23.5q-17 -19 -42.5 -26t-49.5 -1.5t-41 24t-17 51.5q0 25 15 44.5t35 31.5q6 4 2.5 11t-12.5 2q-12 -8 -22.5 -16.5t-18.5 -22.5
q-8 -1 -12.5 -1.5t-12.5 -0.5q-91 0 -145.5 39.5t-74 99t-5 128.5t61 128.5t123.5 99t184 39.5q37 0 60 -11.5t33.5 -27.5t9 -34t-14 -31t-36 -17.5t-55.5 6.5zM574 710q-45 0 -83 -22t-62.5 -55t-33.5 -73t4 -76q-18 -1 -34.5 -3.5t-32.5 -7.5q-12 47 0 99.5t44.5 97
t84.5 73.5t121 29q53 0 83.5 -29t38 -70t-7.5 -84.5t-53 -72.5q-14 -11 -27 -8.5t-20 11.5t-6 22t14 24q18 15 28.5 39.5t9 48t-17.5 40.5t-50 17z" />
    <glyph glyph-name="eogonek" unicode="&#x119;" 
d="M166 20q-19 -5 -37 -23q-62 17 -62 86q0 13 1.5 22.5t3.5 18.5q2 10 -5 11.5t-10 -7.5q-3 -11 -4.5 -25.5t-1.5 -28.5l-10 -10q-8 -8 -20 -8.5t-21 8.5t-8.5 21t8.5 20q18 18 38.5 40t42 45.5t43 45.5t41.5 39q27 23 56.5 38t57.5 15q29 0 43.5 -16t11.5 -47
q-2 -26 -17 -51t-40 -45t-58.5 -32.5t-72.5 -13.5q4 14 11 28t15 27q20 2 37 10.5t29.5 19.5t21 22t11.5 19q7 19 -15 16q-21 -4 -43.5 -21.5t-41 -41.5t-31 -51t-14 -50t10 -38t41.5 -15q32 0 64.5 12.5t64.5 44.5q8 8 20 8.5t21 -8.5t8.5 -21t-8.5 -20q-26 -26 -56.5 -43
t-53.5 -26q-7 -3 -19 -9.5t-23.5 -17.5t-20 -25.5t-8.5 -32.5q0 -12 6 -19t15 -8.5t19.5 3t19.5 13.5t19.5 8.5t17.5 -7.5t7 -19t-11 -24q-17 -20 -42.5 -27t-49.5 -1.5t-41 24t-17 51.5q0 26 9.5 47.5t22.5 35.5q12 13 28 17q9 2 7.5 10t-11.5 6z" />
    <glyph glyph-name="Ecaron" unicode="&#x11a;" horiz-adv-x="540" 
d="M574 710q-45 0 -83 -22t-62.5 -55t-33.5 -73t4 -76q-18 -1 -34.5 -3.5t-32.5 -7.5q-12 47 0 99.5t44.5 97t84.5 73.5t121 29q53 0 83.5 -29t38 -70t-7.5 -84.5t-53 -72.5q-14 -11 -27 -8.5t-20 11.5t-6 22t14 24q18 15 28.5 39.5t9 48t-17.5 40.5t-50 17zM442 357
q-37 11 -64 35q23 5 52.5 5.5t52.5 -5.5q8 -2 10.5 5t-6.5 10q-11 4 -25 5.5t-28 1.5q-79 0 -139.5 -30.5t-99.5 -76.5t-54 -99t-2 -99t54.5 -76.5t116.5 -30.5q60 0 121.5 28t108.5 75q8 8 20 8.5t21 -8.5t8.5 -21t-8.5 -20q-55 -55 -124 -90.5t-156 -35.5
q-91 0 -145.5 39.5t-74 99t-5 128.5t61 128.5t123.5 99t184 39.5q37 0 60 -11.5t33.5 -27.5t9 -34t-14 -31t-36 -17.5t-55.5 6.5z" />
    <glyph glyph-name="ecaron" unicode="&#x11b;" 
d="M178 48q32 0 64.5 12.5t64.5 44.5q8 8 20 8.5t21 -8.5t8.5 -21t-8.5 -20q-39 -39 -83 -56.5t-87 -17.5q-54 0 -82.5 24t-28.5 69q0 13 1.5 22.5t3.5 18.5q2 10 -5 11.5t-10 -7.5q-3 -11 -4.5 -25.5t-1.5 -28.5l-10 -10q-8 -8 -20 -8.5t-21 8.5t-8.5 21t8.5 20
q18 18 38.5 40t42 45.5t43 45.5t41.5 39q27 23 56.5 38t57.5 15q29 0 43.5 -16t11.5 -47q-2 -26 -17 -51t-40 -45t-58.5 -32.5t-72.5 -13.5q4 14 11 28t15 27q20 2 37 10.5t29.5 19.5t21 22t11.5 19q7 19 -15 16q-21 -4 -43.5 -21.5t-41 -41.5t-31 -51t-14 -50t10 -38
t41.5 -15zM254 447l-16 -12q-8 -5 -3.5 -11.5t11.5 -1.5l107 75q12 9 23.5 7t18 -10.5t5.5 -20.5t-14 -22l-105 -78q-17 -12 -32.5 -12.5t-26.5 20.5l-41 79q-7 13 -3 24t13.5 16t21 2t19.5 -16z" />
    <glyph glyph-name="Gcircumflex" unicode="&#x11c;" horiz-adv-x="602" 
d="M643 64q-25 -25 -61.5 -53.5t-68.5 -50.5q13 25 23.5 51t23.5 53q12 11 23 22l19 19t20 8.5t21 -8.5t8.5 -21t-8.5 -20zM566 705q-39 0 -85.5 -19t-93 -53t-90.5 -80t-78.5 -99.5t-56 -112.5t-22.5 -118q-1 -47 10 -77.5t31.5 -48.5t47.5 -25.5t57 -7.5q33 0 68.5 12
t68.5 36t62.5 59t50.5 82q9 20 22 24.5t24 2.5q20 -4 25 -21t-2 -32q-19 -44 -31.5 -76t-21 -55.5t-15 -41.5t-13.5 -34q-31 -74 -62 -118t-60 -68t-53.5 -31.5t-41.5 -7.5q-29 0 -45.5 15t-16.5 42q0 28 20.5 46.5t50 33.5t62.5 30t58 38q-23 -48 -56.5 -84.5t-75.5 -50.5
q-10 -4 -7.5 -12t11.5 -5q41 14 71 44t52 68t37.5 80t27.5 80q2 8 -5 10t-10 -6q-3 -11 -7 -22q-3 -9 -6.5 -18.5t-5.5 -15.5q-41 -34 -90 -52.5t-93 -18.5t-82 12t-66.5 38.5t-44.5 68.5t-15 101q1 65 24 132t61 128.5t88 115.5t105.5 94t113 63t110.5 23q71 0 102 -34
t31 -82q0 -47 -24 -98t-67 -87q-15 -12 -29 -10.5t-22 10.5t-7.5 23t15.5 27q13 12 26 27t22.5 31.5t15.5 34t6 32.5q0 25 -17 41.5t-59 16.5zM574 890q-5 8 -12 4t-3 -11l10 -17l-78 -54q-13 -9 -24.5 -6t-17.5 11.5t-5 20t14 21.5l106 79q22 16 36.5 9.5t21.5 -18.5
l41 -79q7 -14 3 -25t-13.5 -15.5t-21 -2t-19.5 15.5z" />
    <glyph glyph-name="gcircumflex" unicode="&#x11d;" horiz-adv-x="385" 
d="M41 64q-8 -8 -20 -8.5t-21 8.5t-8.5 21t8.5 20q20 20 36.5 34.5t37.5 31.5q-22 -46 -22 -88v-8zM426 64q-11 -11 -26.5 -24.5t-33 -27.5t-36 -27.5t-34.5 -24.5q13 25 23.5 51t23.5 53q12 11 23 22l19 19t20 8.5t21 -8.5t8.5 -21t-8.5 -20zM249 275q-14 -8 -30 -20.5
t-32 -30.5t-29.5 -42t-22.5 -54q-2 -8 -4.5 -19.5t-2 -22.5t6 -19t18.5 -8q31 0 61 26.5t55.5 62.5t46 73t33.5 58q11 18 24 22.5t24 1.5q20 -5 24 -22t-4 -32q-29 -55 -56.5 -111t-53.5 -119q-31 -74 -62 -118t-60 -67.5t-53.5 -31t-41.5 -7.5q-29 0 -45.5 15t-16.5 42
q0 28 21 46.5t51 33.5t63 30t58 38q-23 -48 -58.5 -84.5t-76.5 -51.5q-9 -3 -6.5 -11t11.5 -5q21 7 44.5 23t46.5 42.5t44 65t37 90.5q2 8 -4.5 10.5t-10.5 -6.5q-5 -14 -8.5 -24t-9.5 -24q-39 -30 -87 -30q-30 0 -53 21.5t-23 66.5q0 41 20 84.5t51 79t68.5 58.5t72.5 23
q17 0 28.5 -10t11.5 -31q0 -26 -15.5 -43t-39 -31t-52 -29t-55.5 -37q16 39 43.5 68.5t54.5 43.5q10 5 6 12.5t-12 3.5zM327 444q-5 8 -12 4t-3 -11l10 -17l-78 -54q-13 -9 -24.5 -6t-17.5 11.5t-5 20t14 21.5l106 79q22 16 36.5 9.5t21.5 -18.5l41 -79q7 -14 3 -25
t-13.5 -15.5t-21 -2t-19.5 15.5z" />
    <glyph glyph-name="Gbreve" unicode="&#x11e;" horiz-adv-x="602" 
d="M643 64q-25 -25 -61.5 -53.5t-68.5 -50.5q13 25 23.5 51t23.5 53q12 11 23 22l19 19t20 8.5t21 -8.5t8.5 -21t-8.5 -20zM566 705q-39 0 -85.5 -19t-93 -53t-90.5 -80t-78.5 -99.5t-56 -112.5t-22.5 -118q-1 -47 10 -77.5t31.5 -48.5t47.5 -25.5t57 -7.5q33 0 68.5 12
t68.5 36t62.5 59t50.5 82q9 20 22 24.5t24 2.5q20 -4 25 -21t-2 -32q-19 -44 -31.5 -76t-21 -55.5t-15 -41.5t-13.5 -34q-31 -74 -62 -118t-60 -68t-53.5 -31.5t-41.5 -7.5q-29 0 -45.5 15t-16.5 42q0 28 20.5 46.5t50 33.5t62.5 30t58 38q-23 -48 -56.5 -84.5t-75.5 -50.5
q-10 -4 -7.5 -12t11.5 -5q41 14 71 44t52 68t37.5 80t27.5 80q2 8 -5 10t-10 -6q-3 -11 -7 -22q-3 -9 -6.5 -18.5t-5.5 -15.5q-41 -34 -90 -52.5t-93 -18.5t-82 12t-66.5 38.5t-44.5 68.5t-15 101q1 65 24 132t61 128.5t88 115.5t105.5 94t113 63t110.5 23q71 0 102 -34
t31 -82q0 -47 -24 -98t-67 -87q-15 -12 -29 -10.5t-22 10.5t-7.5 23t15.5 27q13 12 26 27t22.5 31.5t15.5 34t6 32.5q0 25 -17 41.5t-59 16.5zM507 926q9 12 20.5 14t20 -3t11.5 -15t-4 -22q-12 -20 -5 -32t20.5 -12.5t28.5 11t19 38.5q3 16 13 24t20.5 7.5t18.5 -9t7 -24.5
q-4 -46 -34.5 -71.5t-76.5 -25.5q-26 0 -44 11t-26.5 28t-6 38.5t17.5 42.5z" />
    <glyph glyph-name="gbreve" unicode="&#x11f;" horiz-adv-x="385" 
d="M41 64q-8 -8 -20 -8.5t-21 8.5t-8.5 21t8.5 20q20 20 36.5 34.5t37.5 31.5q-22 -46 -22 -88v-8zM426 64q-11 -11 -26.5 -24.5t-33 -27.5t-36 -27.5t-34.5 -24.5q13 25 23.5 51t23.5 53q12 11 23 22l19 19t20 8.5t21 -8.5t8.5 -21t-8.5 -20zM249 275q-14 -8 -30 -20.5
t-32 -30.5t-29.5 -42t-22.5 -54q-2 -8 -4.5 -19.5t-2 -22.5t6 -19t18.5 -8q31 0 61 26.5t55.5 62.5t46 73t33.5 58q11 18 24 22.5t24 1.5q20 -5 24 -22t-4 -32q-29 -55 -56.5 -111t-53.5 -119q-31 -74 -62 -118t-60 -67.5t-53.5 -31t-41.5 -7.5q-29 0 -45.5 15t-16.5 42
q0 28 21 46.5t51 33.5t63 30t58 38q-23 -48 -58.5 -84.5t-76.5 -51.5q-9 -3 -6.5 -11t11.5 -5q21 7 44.5 23t46.5 42.5t44 65t37 90.5q2 8 -4.5 10.5t-10.5 -6.5q-5 -14 -8.5 -24t-9.5 -24q-39 -30 -87 -30q-30 0 -53 21.5t-23 66.5q0 41 20 84.5t51 79t68.5 58.5t72.5 23
q17 0 28.5 -10t11.5 -31q0 -26 -15.5 -43t-39 -31t-52 -29t-55.5 -37q16 39 43.5 68.5t54.5 43.5q10 5 6 12.5t-12 3.5zM250 480q9 12 20.5 14t20 -3t11.5 -15t-4 -22q-12 -20 -5 -32t20.5 -12.5t28.5 11t19 38.5q3 16 13 24t20.5 7.5t18.5 -9t7 -24.5q-4 -46 -34.5 -71.5
t-76.5 -25.5q-26 0 -44 11t-26.5 28t-6 38.5t17.5 42.5z" />
    <glyph glyph-name="Gdotaccent" unicode="&#x120;" horiz-adv-x="602" 
d="M643 64q-25 -25 -61.5 -53.5t-68.5 -50.5q13 25 23.5 51t23.5 53q12 11 23 22l19 19t20 8.5t21 -8.5t8.5 -21t-8.5 -20zM566 705q-39 0 -85.5 -19t-93 -53t-90.5 -80t-78.5 -99.5t-56 -112.5t-22.5 -118q-1 -47 10 -77.5t31.5 -48.5t47.5 -25.5t57 -7.5q33 0 68.5 12
t68.5 36t62.5 59t50.5 82q9 20 22 24.5t24 2.5q20 -4 25 -21t-2 -32q-19 -44 -31.5 -76t-21 -55.5t-15 -41.5t-13.5 -34q-31 -74 -62 -118t-60 -68t-53.5 -31.5t-41.5 -7.5q-29 0 -45.5 15t-16.5 42q0 28 20.5 46.5t50 33.5t62.5 30t58 38q-23 -48 -56.5 -84.5t-75.5 -50.5
q-10 -4 -7.5 -12t11.5 -5q41 14 71 44t52 68t37.5 80t27.5 80q2 8 -5 10t-10 -6q-3 -11 -7 -22q-3 -9 -6.5 -18.5t-5.5 -15.5q-41 -34 -90 -52.5t-93 -18.5t-82 12t-66.5 38.5t-44.5 68.5t-15 101q1 65 24 132t61 128.5t88 115.5t105.5 94t113 63t110.5 23q71 0 102 -34
t31 -82q0 -47 -24 -98t-67 -87q-15 -12 -29 -10.5t-22 10.5t-7.5 23t15.5 27q13 12 26 27t22.5 31.5t15.5 34t6 32.5q0 25 -17 41.5t-59 16.5z" />
    <glyph glyph-name="gdotaccent" unicode="&#x121;" horiz-adv-x="385" 
d="M41 64q-8 -8 -20 -8.5t-21 8.5t-8.5 21t8.5 20q20 20 36.5 34.5t37.5 31.5q-22 -46 -22 -88v-8zM426 64q-11 -11 -26.5 -24.5t-33 -27.5t-36 -27.5t-34.5 -24.5q13 25 23.5 51t23.5 53q12 11 23 22l19 19t20 8.5t21 -8.5t8.5 -21t-8.5 -20zM249 275q-14 -8 -30 -20.5
t-32 -30.5t-29.5 -42t-22.5 -54q-2 -8 -4.5 -19.5t-2 -22.5t6 -19t18.5 -8q31 0 61 26.5t55.5 62.5t46 73t33.5 58q11 18 24 22.5t24 1.5q20 -5 24 -22t-4 -32q-29 -55 -56.5 -111t-53.5 -119q-31 -74 -62 -118t-60 -67.5t-53.5 -31t-41.5 -7.5q-29 0 -45.5 15t-16.5 42
q0 28 21 46.5t51 33.5t63 30t58 38q-23 -48 -58.5 -84.5t-76.5 -51.5q-9 -3 -6.5 -11t11.5 -5q21 7 44.5 23t46.5 42.5t44 65t37 90.5q2 8 -4.5 10.5t-10.5 -6.5q-5 -14 -8.5 -24t-9.5 -24q-39 -30 -87 -30q-30 0 -53 21.5t-23 66.5q0 41 20 84.5t51 79t68.5 58.5t72.5 23
q17 0 28.5 -10t11.5 -31q0 -26 -15.5 -43t-39 -31t-52 -29t-55.5 -37q16 39 43.5 68.5t54.5 43.5q10 5 6 12.5t-12 3.5zM261 432q2 24 21 40.5t45 16.5q25 0 42 -16.5t15 -40.5t-21 -40.5t-44 -16.5q-26 0 -43 16.5t-15 40.5z" />
    <glyph glyph-name="Gcommaaccent" unicode="&#x122;" horiz-adv-x="602" 
d="M643 64q-25 -25 -61.5 -53.5t-68.5 -50.5q13 25 23.5 51t23.5 53q12 11 23 22l19 19t20 8.5t21 -8.5t8.5 -21t-8.5 -20zM566 705q-39 0 -85.5 -19t-93 -53t-90.5 -80t-78.5 -99.5t-56 -112.5t-22.5 -118q-1 -47 10 -77.5t31.5 -48.5t47.5 -25.5t57 -7.5q33 0 68.5 12
t68.5 36t62.5 59t50.5 82q9 20 22 24.5t24 2.5q20 -4 25 -21t-2 -32q-19 -44 -31.5 -76t-21 -55.5t-15 -41.5t-13.5 -34q-31 -74 -62 -118t-60 -68t-53.5 -31.5t-41.5 -7.5q-29 0 -45.5 15t-16.5 42q0 28 20.5 46.5t50 33.5t62.5 30t58 38q-23 -48 -56.5 -84.5t-75.5 -50.5
q-10 -4 -7.5 -12t11.5 -5q41 14 71 44t52 68t37.5 80t27.5 80q2 8 -5 10t-10 -6q-3 -11 -7 -22q-3 -9 -6.5 -18.5t-5.5 -15.5q-41 -34 -90 -52.5t-93 -18.5t-82 12t-66.5 38.5t-44.5 68.5t-15 101q1 65 24 132t61 128.5t88 115.5t105.5 94t113 63t110.5 23q71 0 102 -34
t31 -82q0 -47 -24 -98t-67 -87q-15 -12 -29 -10.5t-22 10.5t-7.5 23t15.5 27q13 12 26 27t22.5 31.5t15.5 34t6 32.5q0 25 -17 41.5t-59 16.5z" />
    <glyph glyph-name="gcommaaccent" unicode="&#x123;" horiz-adv-x="385" 
d="M41 64q-8 -8 -20 -8.5t-21 8.5t-8.5 21t8.5 20q20 20 36.5 34.5t37.5 31.5q-22 -46 -22 -88v-8zM426 64q-11 -11 -26.5 -24.5t-33 -27.5t-36 -27.5t-34.5 -24.5q13 25 23.5 51t23.5 53q12 11 23 22l19 19t20 8.5t21 -8.5t8.5 -21t-8.5 -20zM249 275q-14 -8 -30 -20.5
t-32 -30.5t-29.5 -42t-22.5 -54q-2 -8 -4.5 -19.5t-2 -22.5t6 -19t18.5 -8q31 0 61 26.5t55.5 62.5t46 73t33.5 58q11 18 24 22.5t24 1.5q20 -5 24 -22t-4 -32q-29 -55 -56.5 -111t-53.5 -119q-31 -74 -62 -118t-60 -67.5t-53.5 -31t-41.5 -7.5q-29 0 -45.5 15t-16.5 42
q0 28 21 46.5t51 33.5t63 30t58 38q-23 -48 -58.5 -84.5t-76.5 -51.5q-9 -3 -6.5 -11t11.5 -5q21 7 44.5 23t46.5 42.5t44 65t37 90.5q2 8 -4.5 10.5t-10.5 -6.5q-5 -14 -8.5 -24t-9.5 -24q-39 -30 -87 -30q-30 0 -53 21.5t-23 66.5q0 41 20 84.5t51 79t68.5 58.5t72.5 23
q17 0 28.5 -10t11.5 -31q0 -26 -15.5 -43t-39 -31t-52 -29t-55.5 -37q16 39 43.5 68.5t54.5 43.5q10 5 6 12.5t-12 3.5zM330 437q-4 16 5 32.5t20 21.5q17 -6 26.5 -20.5t9.5 -33.5q0 -31 -23 -50.5t-52 -19.5q-32 0 -49.5 23t-13.5 54q4 29 17.5 52.5t32.5 40.5t41 27.5
t42 13.5q15 2 23 -4.5t9.5 -16t-4.5 -18.5t-19 -12q-15 -3 -30.5 -11t-27.5 -20.5t-18 -28.5t-3 -34q2 -8 9 -6.5t5 10.5z" />
    <glyph glyph-name="Hcircumflex" unicode="&#x124;" horiz-adv-x="757" 
d="M855 541q6 8 0.5 13.5t-12.5 -3.5q-54 -71 -91.5 -137t-61 -124t-34 -104.5t-10.5 -76.5q0 -33 11.5 -43.5t28.5 -7t36 17t35 29.5q8 8 20 8.5t21 -8.5t8.5 -21t-8.5 -20q-22 -22 -40.5 -35.5t-35 -21t-32.5 -10t-33 -2.5q-38 0 -59 27t-21 70q0 40 15 96t39.5 116
t55.5 119.5t64 106.5t65 76t57 29q18 0 29.5 -11.5t11.5 -33.5q0 -30 -17.5 -63t-43.5 -63.5t-55.5 -55.5t-52.5 -39q13 26 26 47.5t26 42t27 40.5t31 42zM586 582q-5 -48 -15.5 -97t-24.5 -97q-17 -2 -35 -4.5t-35 -5.5q15 48 26.5 101t17.5 108q5 46 -5 74t-28.5 40.5
t-42.5 10.5t-47 -16.5t-43 -40t-29 -60.5q-4 -15 -16 -21.5t-23.5 -4.5t-19 13.5t-2.5 31.5q13 50 44 85.5t69 53.5t78 18t71.5 -20t49 -62t10.5 -107zM198 279q62 34 122.5 51t118.5 26.5t113.5 17t106.5 23.5l-33 -70q-52 -11 -103.5 -18.5t-103 -18t-102.5 -28
t-101 -49.5q-38 -24 -55.5 -55.5t-17 -60t17.5 -48t48 -19.5q69 0 125.5 66t106.5 184q19 4 37 6.5t37 5.5q-29 -73 -62 -133.5t-71 -104t-83 -67.5t-97 -24q-61 0 -95 35t-37 85t28 104t100 92z" />
    <glyph glyph-name="hcircumflex" unicode="&#x125;" horiz-adv-x="372" 
d="M0 105q28 28 61 69.5t68 89.5l-22 -66t-15.5 -45.5t-11 -31.5t-8.5 -24q-7 -8 -14.5 -16t-16.5 -17q-8 -8 -20 -8.5t-21 8.5t-8.5 21t8.5 20zM221 66q0 19 8.5 40.5t20.5 41.5t25 38t22 31q11 16 5 22.5t-22 -8.5q-13 -13 -33 -36t-41.5 -51t-41.5 -58.5t-33 -59.5
q-6 -20 -21 -26t-27 -1q-14 5 -17 17.5t2 24.5q22 60 45 127.5t46 132t47 122t50 98.5q25 40 54 56t51.5 11.5t33 -26.5t-1.5 -59q-9 -27 -26.5 -53t-39.5 -52t-45.5 -52.5t-45.5 -53.5q13 33 27.5 64t28 59t26 51t22.5 39q5 8 -1 12.5t-13 -5.5q-42 -64 -70 -133t-50 -132
q-9 -8 -18.5 -20t-17.5 -24q-5 -7 1 -11.5t11 2.5q18 25 39 49.5t43 44t43.5 31t41.5 11.5q17 0 29.5 -9.5t12.5 -28.5q0 -29 -16 -60.5t-35.5 -61.5t-35.5 -55.5t-16 -42.5q0 -15 17 -15q10 0 28 13.5t39 34.5q8 8 20 8.5t21 -8.5t8.5 -21t-8.5 -20q-35 -35 -62.5 -52
t-65.5 -17q-28 0 -46 18t-18 53z" />
    <glyph glyph-name="Hbar" unicode="&#x126;" horiz-adv-x="757" 
d="M621 495q-21 -3 -39.5 -2.5t-36 2t-36 2.5t-39.5 -2q-11 -2 -22 4.5t-13 23.5q-2 14 8 23t22 11q21 3 39 2t36 -2.5t36.5 -2t39.5 2.5q11 2 22 -4.5t13 -23.5q2 -15 -8.5 -23.5t-21.5 -10.5zM855 541q6 8 0.5 13.5t-12.5 -3.5q-54 -71 -91.5 -137t-61 -124t-34 -104.5
t-10.5 -76.5q0 -33 11.5 -43.5t28.5 -7t36 17t35 29.5q8 8 20 8.5t21 -8.5t8.5 -21t-8.5 -20q-22 -22 -40.5 -35.5t-35 -21t-32.5 -10t-33 -2.5q-38 0 -59 27t-21 70q0 40 15 96t39.5 116t55.5 119.5t64 106.5t65 76t57 29q18 0 29.5 -11.5t11.5 -33.5q0 -30 -17.5 -63
t-43.5 -63.5t-55.5 -55.5t-52.5 -39q13 26 26 47.5t26 42t27 40.5t31 42zM585 570q-12 0 -24 0.5t-21 1.5q-5 0 -10.5 0.5t-11.5 0.5l2 14q5 46 -5 74t-28.5 40.5t-42.5 10.5t-47 -16.5t-43 -40t-29 -60.5q-4 -15 -16 -21.5t-23.5 -4.5t-19 13.5t-2.5 31.5q13 50 44 85.5
t69 53t78 17t71.5 -22t48.5 -65.5t10 -112zM477 378q8 25 14.5 51t11.5 53q11 0 20.5 -0.5t20.5 -1.5q6 -1 12.5 -1.5t12.5 -0.5q-5 -23 -10 -45.5t-12 -44.5q-17 -2 -35 -4.5t-35 -5.5zM198 279q62 34 122.5 51t118.5 26.5t113.5 17t106.5 23.5l-33 -70
q-52 -11 -103.5 -18.5t-103 -18t-102.5 -28t-101 -49.5q-38 -24 -55.5 -55.5t-17 -60t17.5 -48t48 -19.5q69 0 125.5 66t106.5 184q19 4 37 6.5t37 5.5q-29 -73 -62 -133.5t-71 -104t-83 -67.5t-97 -24q-61 0 -95 35t-37 85t28 104t100 92z" />
    <glyph glyph-name="hbar" unicode="&#x127;" horiz-adv-x="372" 
d="M0 105q28 28 61 69.5t68 89.5l-22 -66t-15.5 -45.5t-11 -31.5t-8.5 -24q-7 -8 -14.5 -16t-16.5 -17q-8 -8 -20 -8.5t-21 8.5t-8.5 21t8.5 20zM236 292q8 20 16.5 39.5t17.5 38.5l33 -1l-34 -38t-33 -39zM221 66q0 19 8.5 40.5t20.5 41.5t25 38t22 31q11 16 5 22.5
t-22 -8.5q-13 -13 -33 -36t-41.5 -51t-41.5 -58.5t-33 -59.5q-6 -20 -21 -26t-27 -1q-14 5 -17 17.5t2 24.5q22 60 45 127.5t46 132t47 122t50 98.5q25 40 54 56t51.5 11.5t33 -26.5t-1.5 -59q-8 -21 -18 -38q-8 -2 -16.5 -1.5t-18.5 0.5h-12t-11 1q13 24 23 40q5 8 -1 12.5
t-13 -5.5q-42 -64 -70 -133t-50 -132q-9 -8 -18.5 -20t-17.5 -24q-5 -7 1 -11.5t11 2.5q18 25 39 49.5t43 44t43.5 31t41.5 11.5q17 0 29.5 -9.5t12.5 -28.5q0 -29 -16 -60.5t-35.5 -61.5t-35.5 -55.5t-16 -42.5q0 -15 17 -15q10 0 28 13.5t39 34.5q8 8 20 8.5t21 -8.5
t8.5 -21t-8.5 -20q-35 -35 -62.5 -52t-65.5 -17q-28 0 -46 18t-18 53zM389 385q-23 -3 -53 -2.5t-62 2.5q8 16 15.5 32t16.5 32q21 -1 40.5 -0.5t36.5 2.5q13 2 24.5 -4.5t13.5 -24.5q2 -17 -8.5 -26t-23.5 -11zM158 451q10 2 21.5 2h23.5l-29 -67q-3 -1 -10 -1
q-13 -2 -24.5 4.5t-13.5 24.5q-2 17 8.5 26t23.5 11z" />
    <glyph glyph-name="Itilde" unicode="&#x128;" horiz-adv-x="597" 
d="M591 830q-8 -8 -20.5 -8t-23.5 11q-9 11 -6 23.5t12 20.5q15 14 29 21.5t31 7.5q13 0 23.5 -4t19.5 -8.5t17.5 -8t17.5 -3.5q5 0 11 2t13 8q8 8 20.5 8t23.5 -12q9 -10 6 -23t-12 -21q-15 -14 -29 -21t-31 -7q-14 0 -24.5 3.5t-20 8t-18 8.5t-16.5 4q-5 0 -11 -2t-12 -8z
M707 685q0 -41 -7 -92.5t-22 -108.5t-37 -116t-52 -114q-16 7 -31.5 12.5t-30.5 10.5q26 46 46.5 96.5t35 102t23 101.5t10.5 96q1 15 -9.5 17t-22.5 -21q-15 -28 -25 -60.5t-16 -66.5t-8.5 -69t-2.5 -68q0 -19 -10 -29.5t-22 -10.5t-22 10t-10 32q0 80 12.5 147.5t33.5 116
t49 75.5t59 27q32 0 45.5 -23t13.5 -65zM473 194q16 -4 32.5 -8.5t33.5 -10.5q-29 -41 -63.5 -75.5t-74.5 -60t-85.5 -40t-96.5 -14.5q-40 0 -69 10.5t-48 28.5t-28 41.5t-9 49.5q0 34 17.5 65.5t51 56t82 39t109.5 14.5q36 0 69.5 -2.5t67 -9t68.5 -18t73 -29.5
q16 -8 20 -21t-0.5 -24t-17 -16t-28.5 3q-32 16 -65.5 26.5t-66.5 16.5t-63.5 8t-55.5 2q-43 0 -78.5 -8.5t-60.5 -22.5t-39 -34t-14 -42q0 -30 20.5 -49t66.5 -19q75 0 138 40.5t114 102.5z" />
    <glyph glyph-name="itilde" unicode="&#x129;" horiz-adv-x="222" 
d="M151 302q10 20 22.5 24.5t23.5 2.5q20 -4 24 -23t-8 -46q-14 -31 -25.5 -60t-19.5 -54.5t-12.5 -45t-4.5 -31.5t10 -12q9 0 24.5 13.5t36.5 34.5q8 8 20 8.5t21 -8.5t8.5 -21t-8.5 -20q-35 -35 -61.5 -52t-55.5 -17t-46.5 18t-17.5 56q0 20 6.5 39t14.5 39q3 8 -3.5 11
t-11.5 -6q-11 -24 -19 -57q-2 -4 -11 -13.5t-17 -17.5t-20 -8.5t-21 8.5t-8.5 21t8.5 20q22 22 44 47t42.5 51t37 51t27.5 48zM148 398q-8 -8 -20.5 -8t-23.5 11q-9 11 -6 23.5t12 20.5q15 14 29 21.5t31 7.5q13 0 23.5 -4t19.5 -8.5t17.5 -8t17.5 -3.5q5 0 11 2t13 8
q8 8 20.5 8t23.5 -12q9 -10 6 -23t-12 -21q-15 -14 -29 -21t-31 -7q-14 0 -24.5 3.5t-20 8t-18 8.5t-16.5 4q-5 0 -11 -2t-12 -8z" />
    <glyph glyph-name="Imacron" unicode="&#x12a;" horiz-adv-x="597" 
d="M718 844q-21 -3 -39.5 -2.5t-36 2t-36 2.5t-39.5 -2q-11 -2 -22 4.5t-13 23.5q-2 14 8 23t22 11q21 3 39 2t36 -2.5t36.5 -2t39.5 2.5q11 2 22 -4.5t13 -23.5q2 -15 -8.5 -23.5t-21.5 -10.5zM707 685q0 -41 -7 -92.5t-22 -108.5t-37 -116t-52 -114q-16 7 -31.5 12.5
t-30.5 10.5q26 46 46.5 96.5t35 102t23 101.5t10.5 96q1 15 -9.5 17t-22.5 -21q-15 -28 -25 -60.5t-16 -66.5t-8.5 -69t-2.5 -68q0 -19 -10 -29.5t-22 -10.5t-22 10t-10 32q0 80 12.5 147.5t33.5 116t49 75.5t59 27q32 0 45.5 -23t13.5 -65zM473 194q16 -4 32.5 -8.5
t33.5 -10.5q-29 -41 -63.5 -75.5t-74.5 -60t-85.5 -40t-96.5 -14.5q-40 0 -69 10.5t-48 28.5t-28 41.5t-9 49.5q0 34 17.5 65.5t51 56t82 39t109.5 14.5q36 0 69.5 -2.5t67 -9t68.5 -18t73 -29.5q16 -8 20 -21t-0.5 -24t-17 -16t-28.5 3q-32 16 -65.5 26.5t-66.5 16.5
t-63.5 8t-55.5 2q-43 0 -78.5 -8.5t-60.5 -22.5t-39 -34t-14 -42q0 -30 20.5 -49t66.5 -19q75 0 138 40.5t114 102.5z" />
    <glyph glyph-name="imacron" unicode="&#x12b;" horiz-adv-x="222" 
d="M151 302q10 20 22.5 24.5t23.5 2.5q20 -4 24 -23t-8 -46q-14 -31 -25.5 -60t-19.5 -54.5t-12.5 -45t-4.5 -31.5t10 -12q9 0 24.5 13.5t36.5 34.5q8 8 20 8.5t21 -8.5t8.5 -21t-8.5 -20q-35 -35 -61.5 -52t-55.5 -17t-46.5 18t-17.5 56q0 20 6.5 39t14.5 39q3 8 -3.5 11
t-11.5 -6q-11 -24 -19 -57q-2 -4 -11 -13.5t-17 -17.5t-20 -8.5t-21 8.5t-8.5 21t8.5 20q22 22 44 47t42.5 51t37 51t27.5 48zM287 398q-21 -3 -39.5 -2.5t-36 2t-36 2.5t-39.5 -2q-11 -2 -22 4.5t-13 23.5q-2 14 8 23t22 11q21 3 39 2t36 -2.5t36.5 -2t39.5 2.5
q11 2 22 -4.5t13 -23.5q2 -15 -8.5 -23.5t-21.5 -10.5z" />
    <glyph glyph-name="Iogonek" unicode="&#x12e;" horiz-adv-x="597" 
d="M65 115q0 34 17.5 65.5t51 56t82 39t109.5 14.5q36 0 69.5 -2.5t67 -9t68.5 -18t73 -29.5q16 -8 20 -21t-0.5 -24t-17 -16t-28.5 3q-32 16 -65.5 26.5t-66.5 16.5t-63.5 8t-55.5 2q-43 0 -78.5 -8.5t-60.5 -22.5t-39 -34t-14 -42q0 -30 20.5 -49t66.5 -19q75 0 138 40.5
t114 102.5q16 -4 32.5 -8.5t33.5 -10.5q-45 -63 -102 -110t-126 -67q-26 -8 -44.5 -30t-18.5 -49q0 -12 6 -19t15 -8.5t19.5 3t19.5 13.5t19.5 8.5t17.5 -7.5t7 -19t-11 -24q-17 -20 -42.5 -27t-49.5 -1.5t-41 24t-17 51.5q0 22 11 48t30 40q8 6 3.5 13t-12.5 2
q-8 -6 -14 -12.5t-13 -17.5q-67 6 -99 43.5t-32 85.5zM707 685q0 -41 -7 -92.5t-22 -108.5t-37 -116t-52 -114q-16 7 -31.5 12.5t-30.5 10.5q26 46 46.5 96.5t35 102t23 101.5t10.5 96q1 15 -9.5 17t-22.5 -21q-15 -28 -25 -60.5t-16 -66.5t-8.5 -69t-2.5 -68
q0 -19 -10 -29.5t-22 -10.5t-22 10t-10 32q0 80 12.5 147.5t33.5 116t49 75.5t59 27q32 0 45.5 -23t13.5 -65z" />
    <glyph glyph-name="iogonek" unicode="&#x12f;" horiz-adv-x="222" 
d="M171 464q2 27 24 46t51 19t47.5 -19t16.5 -46t-23.5 -46t-50.5 -19t-48 19t-17 46zM92 21q-10 17 -10 48q0 20 6.5 39t14.5 39q3 8 -3.5 11t-11.5 -6q-11 -24 -19 -57q-2 -4 -11 -13.5t-17 -17.5t-20 -8.5t-21 8.5t-8.5 21t8.5 20q22 22 44 47t42.5 51t37 51t27.5 48
q10 20 22.5 24.5t23.5 2.5q20 -4 24 -23t-8 -46q-14 -31 -25.5 -60t-19.5 -54.5t-12.5 -45t-4.5 -31.5t10 -12q9 0 24.5 13.5t36.5 34.5q8 8 20 8.5t21 -8.5t8.5 -21t-8.5 -20q-26 -26 -52.5 -44t-54.5 -34q-26 -15 -43 -31t-17 -42q0 -12 6.5 -18t15.5 -6.5t19.5 4
t18.5 12.5q9 9 19.5 8t17 -8.5t7 -19t-10.5 -23.5q-17 -19 -42.5 -26t-49.5 -1.5t-41 24t-17 51.5q0 19 7 35t16.5 28.5t19.5 20.5t17 13q9 6 17 9.5t18 5.5q5 1 7 3.5t1.5 5.5t-3.5 5.5t-8 1.5q-10 -2 -19 -5.5t-20 -11.5z" />
    <glyph glyph-name="Idotaccent" unicode="&#x130;" horiz-adv-x="597" 
d="M602 878q2 24 21 40.5t45 16.5q25 0 42 -16.5t15 -40.5t-21 -40.5t-44 -16.5q-26 0 -43 16.5t-15 40.5zM707 685q0 -41 -7 -92.5t-22 -108.5t-37 -116t-52 -114q-16 7 -31.5 12.5t-30.5 10.5q26 46 46.5 96.5t35 102t23 101.5t10.5 96q1 15 -9.5 17t-22.5 -21
q-15 -28 -25 -60.5t-16 -66.5t-8.5 -69t-2.5 -68q0 -19 -10 -29.5t-22 -10.5t-22 10t-10 32q0 80 12.5 147.5t33.5 116t49 75.5t59 27q32 0 45.5 -23t13.5 -65zM473 194q16 -4 32.5 -8.5t33.5 -10.5q-29 -41 -63.5 -75.5t-74.5 -60t-85.5 -40t-96.5 -14.5q-40 0 -69 10.5
t-48 28.5t-28 41.5t-9 49.5q0 34 17.5 65.5t51 56t82 39t109.5 14.5q36 0 69.5 -2.5t67 -9t68.5 -18t73 -29.5q16 -8 20 -21t-0.5 -24t-17 -16t-28.5 3q-32 16 -65.5 26.5t-66.5 16.5t-63.5 8t-55.5 2q-43 0 -78.5 -8.5t-60.5 -22.5t-39 -34t-14 -42q0 -30 20.5 -49
t66.5 -19q75 0 138 40.5t114 102.5z" />
    <glyph glyph-name="dotlessi" unicode="&#x131;" horiz-adv-x="222" 
d="M151 302q10 20 22.5 24.5t23.5 2.5q20 -4 24 -23t-8 -46q-14 -31 -25.5 -60t-19.5 -54.5t-12.5 -45t-4.5 -31.5t10 -12q9 0 24.5 13.5t36.5 34.5q8 8 20 8.5t21 -8.5t8.5 -21t-8.5 -20q-35 -35 -61.5 -52t-55.5 -17t-46.5 18t-17.5 56q0 20 6.5 39t14.5 39q3 8 -3.5 11
t-11.5 -6q-11 -24 -19 -57q-2 -4 -11 -13.5t-17 -17.5t-20 -8.5t-21 8.5t-8.5 21t8.5 20q22 22 44 47t42.5 51t37 51t27.5 48z" />
    <glyph glyph-name="Jcircumflex" unicode="&#x134;" horiz-adv-x="654" 
d="M610 166q-50 -11 -88 -12q37 57 68 122t53.5 132.5t35.5 135t13 129.5q0 15 -10 17t-22 -21q-15 -27 -26 -64t-17.5 -78t-10 -82.5t-3.5 -77.5q0 -18 -10 -27.5t-22 -10t-22 8.5t-10 27q-2 69 8.5 141.5t30.5 131.5t49 97t66 38q32 0 48 -24.5t16 -77.5q0 -62 -10.5 -127
t-29.5 -129.5t-46.5 -127.5t-60.5 -121zM703 890q-5 8 -12 4t-3 -11l10 -17l-78 -54q-13 -9 -24.5 -6t-17.5 11.5t-5 20t14 21.5l106 79q22 16 36.5 9.5t21.5 -18.5l41 -79q7 -14 3 -25t-13.5 -15.5t-21 -2t-19.5 15.5zM228 -71q55 0 111.5 33.5t109.5 95.5q32 -1 53.5 0
t36.5 3q-70 -91 -150.5 -146.5t-166.5 -55.5q-78 0 -116.5 38t-36.5 92q2 43 24 73.5t55.5 50t73 28.5t76.5 9q43 0 79.5 -3.5t73 -6t76 -0.5t88.5 14q16 4 26.5 -3.5t13 -18.5t-3.5 -22.5t-22 -15.5q-56 -15 -99 -18.5t-80.5 -2t-72.5 5.5t-74 4q-29 0 -58 -5.5t-52 -17
t-37.5 -28.5t-15.5 -40q-2 -29 19 -46t69 -17z" />
    <glyph glyph-name="jcircumflex" unicode="&#x135;" horiz-adv-x="195" 
d="M236 64q-11 -11 -26.5 -24.5t-33 -27.5t-36 -27.5t-34.5 -24.5q13 25 23.5 51t23.5 53q12 11 23 22l19 19t20 8.5t21 -8.5t8.5 -21t-8.5 -20zM212 258q-5 -11 -11 -27t-16.5 -43t-26.5 -67.5t-41 -101.5q-30 -74 -61.5 -118t-60 -67.5t-53.5 -31t-42 -7.5q-29 0 -45.5 15
t-16.5 42q0 28 21 46.5t51 33.5t63 30t58 38q-23 -48 -58.5 -84.5t-74.5 -50.5q-11 -4 -8.5 -12t11.5 -5q33 11 70 44t68 95q17 35 29.5 71.5t34.5 88.5q3 8 -3.5 11t-10.5 -6q-2 -6 -10.5 -26.5t-16.5 -40.5l-21 -21q-8 -8 -20 -8.5t-21 8.5t-8.5 21t8.5 20q22 22 44 47
t42.5 51t37 51t27.5 48q10 20 22.5 24.5t23.5 2.5q20 -4 24 -23t-9 -48zM211 444q-5 8 -12 4t-3 -11l10 -17l-78 -54q-13 -9 -24.5 -6t-17.5 11.5t-5 20t14 21.5l106 79q22 16 36.5 9.5t21.5 -18.5l41 -79q7 -14 3 -25t-13.5 -15.5t-21 -2t-19.5 15.5z" />
    <glyph glyph-name="Kcommaaccent" unicode="&#x136;" horiz-adv-x="787" 
d="M595 255q16 10 32 7t24.5 -15t5.5 -31t-25 -42q-25 -25 -36.5 -53t-9.5 -51.5t16 -38t39.5 -14t62 20.5t83.5 67q8 8 20 8.5t21 -8.5t8.5 -21t-8.5 -20q-58 -58 -106 -83t-92 -25q-46 0 -73 24.5t-34.5 60.5t6 77t48.5 74q12 11 9 18t-24 -9q-17 -12 -30.5 -10t-20.5 12
t-4.5 23.5t17.5 23.5q60 40 107.5 92t87.5 107t73 108t63 95t59.5 67.5t61.5 25.5q22 0 36.5 -15t12.5 -41q-3 -35 -29.5 -76t-64 -81t-79.5 -75t-75 -57q22 28 46.5 66t49 75t47.5 68t43 45q8 5 4 11.5t-13 0.5q-20 -14 -42 -42t-46 -64t-50 -76.5t-54 -79t-58.5 -72
t-62.5 -55.5q-30 8 -53 -9q-7 -5 -3 -11t10 -2zM522 311q-59 -165 -140.5 -257.5t-185.5 -92.5q-38 0 -65.5 15.5t-42.5 41t-17 58t9 67t36.5 67.5t66.5 59q59 38 122.5 60.5t128 39t130 32t129.5 39.5q-14 -20 -32 -42.5t-41 -42.5q-48 -17 -95 -27t-95 -22t-98.5 -31
t-105.5 -52q-41 -25 -62.5 -59t-25 -65t11.5 -52.5t48 -21.5q73 0 133.5 68.5t116.5 199.5q19 6 37 10t37 8zM325 595q-4 -15 -16 -21.5t-23.5 -4.5t-19 13.5t-2.5 31.5q13 50 44 85.5t69 53.5t78 18t71.5 -20t49 -62t10.5 -107q-5 -42 -13.5 -84.5t-19.5 -84.5
q-17 -5 -33.5 -8.5t-37.5 -9.5q13 45 23 93t15 99q5 46 -5 74t-29 41t-43.5 10.5t-48 -16.5t-42.5 -40t-27 -61z" />
    <glyph glyph-name="kcommaaccent" unicode="&#x137;" horiz-adv-x="372" 
d="M0 105q28 28 61 69.5t68 89.5l-22 -66t-15.5 -45.5t-11 -31.5t-8.5 -24q-7 -8 -14.5 -16t-16.5 -17q-8 -8 -20 -8.5t-21 8.5t-8.5 21t8.5 20zM340 505q5 8 -1 12.5t-13 -5.5q-40 -61 -67 -124.5t-48 -124.5q-13 -15 -24 -32.5t-17 -28.5q-4 -7 2 -10.5t11 3.5
q13 21 30 44.5t38 44t45 33.5t53 13t41 -19t10 -42q-2 -34 -24 -57.5t-47.5 -43.5t-46.5 -39.5t-21 -44.5q0 -16 9.5 -23t21.5 -7q18 0 36.5 13t43.5 38q8 8 20 8.5t21 -8.5t8.5 -21t-8.5 -20q-35 -35 -62.5 -52t-65.5 -17q-23 0 -39.5 7t-26.5 18.5t-14.5 26t-4.5 30.5
q0 33 17.5 60.5t40 48t43.5 34.5t29 22q12 12 6 18.5t-20 0.5q-17 -7 -42.5 -31.5t-51.5 -58t-50.5 -72t-40.5 -73.5q-6 -20 -21 -26t-27 -1q-14 5 -17 17.5t2 24.5q22 60 45 127.5t46 132t47 122t50 98.5q25 40 54 56t51.5 11.5t33 -26.5t-1.5 -59q-9 -27 -26.5 -53
t-39.5 -52t-45.5 -52.5t-45.5 -53.5q13 33 27.5 64t28 59t26 51t22.5 39z" />
    <glyph glyph-name="kgreenlandic" unicode="&#x138;" horiz-adv-x="372" 
d="M183 200q13 21 30 44t37 42t44 31.5t52 12.5q29 0 41 -19t10 -42q-2 -34 -24 -57.5t-47.5 -43.5t-46.5 -39.5t-21 -44.5q0 -16 9.5 -23t21.5 -7q18 0 36.5 13t43.5 38q8 8 20 8.5t21 -8.5t8.5 -21t-8.5 -20q-35 -35 -62.5 -52t-65.5 -17q-23 0 -39.5 7t-26.5 18.5
t-14.5 26t-4.5 30.5q0 33 17.5 60.5t40 48t43.5 34.5t29 22q12 12 6 18.5t-20 0.5q-17 -7 -42.5 -31.5t-51.5 -58t-50.5 -72t-40.5 -73.5q-6 -20 -21 -26t-27 -1q-14 5 -17 17.5t2 24.5q3 9 6 16.5t7.5 18.5t11 26.5t15.5 40.5q3 8 -4.5 11t-11.5 -7q-3 -8 -8.5 -22.5
t-11.5 -29.5q-5 -5 -11 -12.5t-17 -18.5q-8 -8 -20 -8.5t-21 8.5t-8.5 21t8.5 20q22 23 44.5 48t42 50.5t35.5 50.5t27 47q9 20 22 25t26 3q14 -3 21.5 -16t0.5 -36q-17 -20 -30.5 -40t-18.5 -28t1 -12.5t12 3.5z" />
    <glyph glyph-name="Lacute" unicode="&#x139;" horiz-adv-x="559" 
d="M782 657q0 -47 -24 -98t-67 -87q-15 -12 -29 -10.5t-22 10.5t-7.5 23t15.5 27q13 12 26 27t22.5 31.5t15.5 34t6 32.5q0 12 -3.5 24t-12 21t-23 13t-37.5 0q-44 -7 -74 -45.5t-53.5 -95t-43.5 -124.5t-43.5 -135t-53.5 -126.5t-73 -98.5q-10 8 -25 19.5t-29 22.5
q41 33 69.5 92t51.5 128t44.5 141.5t49.5 133t67 103t97 51.5q31 5 59.5 0.5t50 -18.5t34 -38t12.5 -58zM402 -41q-50 0 -87 19.5t-67 43.5t-55.5 44t-52.5 21q-10 1 -11 -7t9 -9q18 -2 38.5 -14.5t36.5 -27.5q-13 -3 -26 -4t-28 -1q-45 0 -67 18.5t-22 41t20.5 41
t59.5 18.5q36 0 65 -19t58.5 -42.5t61 -42.5t72.5 -19q31 0 67.5 18.5t84.5 66.5q8 8 20 8.5t21 -8.5t8.5 -21t-8.5 -20q-59 -59 -108 -82t-90 -23z" />
    <glyph glyph-name="lacute" unicode="&#x13a;" horiz-adv-x="238" 
d="M76 89q-2 40 9 93t30.5 109t45 110.5t53 97t54.5 68.5t49 26q23 0 32.5 -14.5t7.5 -43.5q-1 -27 -19.5 -69.5t-46 -91.5t-61.5 -100t-67 -95q24 89 63.5 169.5t86.5 156.5q5 8 -1 12.5t-13 -5.5q-21 -31 -49 -81t-52.5 -107t-42 -114.5t-17.5 -102.5q0 -32 9 -40t20 -8
q25 0 71 46q8 8 20 8.5t21 -8.5t8.5 -21t-8.5 -20q-22 -22 -40 -35.5t-33 -21t-27 -10t-21 -2.5q-39 0 -59.5 24.5t-22.5 69.5zM41 64q-8 -8 -20 -8.5t-21 8.5t-8.5 21t8.5 20q13 13 32.5 35t39.5 48q-6 -28 -9.5 -54t-1.5 -50z" />
    <glyph glyph-name="Lcommaaccent" unicode="&#x13b;" horiz-adv-x="559" 
d="M782 657q0 -47 -24 -98t-67 -87q-15 -12 -29 -10.5t-22 10.5t-7.5 23t15.5 27q13 12 26 27t22.5 31.5t15.5 34t6 32.5q0 12 -3.5 24t-12 21t-23 13t-37.5 0q-44 -7 -74 -45.5t-53.5 -95t-43.5 -124.5t-43.5 -135t-53.5 -126.5t-73 -98.5q-10 8 -25 19.5t-29 22.5
q41 33 69.5 92t51.5 128t44.5 141.5t49.5 133t67 103t97 51.5q31 5 59.5 0.5t50 -18.5t34 -38t12.5 -58zM402 -41q-50 0 -87 19.5t-67 43.5t-55.5 44t-52.5 21q-10 1 -11 -7t9 -9q18 -2 38.5 -14.5t36.5 -27.5q-13 -3 -26 -4t-28 -1q-45 0 -67 18.5t-22 41t20.5 41
t59.5 18.5q36 0 65 -19t58.5 -42.5t61 -42.5t72.5 -19q31 0 67.5 18.5t84.5 66.5q8 8 20 8.5t21 -8.5t8.5 -21t-8.5 -20q-59 -59 -108 -82t-90 -23zM226 -141q4 -16 -5 -32.5t-20 -21.5q-17 6 -26.5 20.5t-9.5 33.5q0 31 23 50.5t52 19.5q32 0 49.5 -23t13.5 -54
q-4 -29 -17.5 -52.5t-32.5 -40.5t-41 -27.5t-42 -13.5q-15 -2 -23 4.5t-9.5 16t4.5 18.5t19 12q15 3 30 11t27 20.5t18.5 28.5t3.5 34q-2 8 -9 6.5t-5 -10.5z" />
    <glyph glyph-name="lcommaaccent" unicode="&#x13c;" horiz-adv-x="238" 
d="M76 89q-2 40 9 93t30.5 109t45 110.5t53 97t54.5 68.5t49 26q23 0 32.5 -14.5t7.5 -43.5q-1 -27 -19.5 -69.5t-46 -91.5t-61.5 -100t-67 -95q24 89 63.5 169.5t86.5 156.5q5 8 -1 12.5t-13 -5.5q-21 -31 -49 -81t-52.5 -107t-42 -114.5t-17.5 -102.5q0 -32 9 -40t20 -8
q25 0 71 46q8 8 20 8.5t21 -8.5t8.5 -21t-8.5 -20q-22 -22 -40 -35.5t-33 -21t-27 -10t-21 -2.5q-39 0 -59.5 24.5t-22.5 69.5zM41 64q-8 -8 -20 -8.5t-21 8.5t-8.5 21t8.5 20q13 13 32.5 35t39.5 48q-6 -28 -9.5 -54t-1.5 -50zM62 -115q4 -16 -5 -32.5t-20 -21.5
q-17 6 -26.5 20.5t-9.5 33.5q0 31 23 50.5t52 19.5q32 0 49.5 -23t13.5 -54q-4 -29 -17.5 -52.5t-32.5 -40.5t-41 -27.5t-42 -13.5q-15 -2 -23 4.5t-9.5 16t4.5 18.5t19 12q15 3 30 11t27 20.5t18.5 28.5t3.5 34q-2 8 -9 6.5t-5 -10.5z" />
    <glyph glyph-name="Lcaron" unicode="&#x13d;" horiz-adv-x="758" 
d="M782 657q0 -47 -24 -98t-67 -87q-15 -12 -29 -10.5t-22 10.5t-7.5 23t15.5 27q13 12 26 27t22.5 31.5t15.5 34t6 32.5q0 12 -3.5 24t-12 21t-23 13t-37.5 0q-44 -7 -74 -45.5t-53.5 -95t-43.5 -124.5t-43.5 -135t-53.5 -126.5t-73 -98.5q-10 8 -25 19.5t-29 22.5
q41 33 69.5 92t51.5 128t44.5 141.5t49.5 133t67 103t97 51.5q31 5 59.5 0.5t50 -18.5t34 -38t12.5 -58zM402 -41q-50 0 -87 19.5t-67 43.5t-55.5 44t-52.5 21q-10 1 -11 -7t9 -9q18 -2 38.5 -14.5t36.5 -27.5q-13 -3 -26 -4t-28 -1q-45 0 -67 18.5t-22 41t20.5 41
t59.5 18.5q36 0 65 -19t58.5 -42.5t61 -42.5t72.5 -19q31 0 67.5 18.5t84.5 66.5q8 8 20 8.5t21 -8.5t8.5 -21t-8.5 -20q-59 -59 -108 -82t-90 -23zM880 563q4 -16 -5 -32.5t-20 -21.5q-17 6 -26.5 20.5t-9.5 33.5q0 31 23 50.5t52 19.5q32 0 49.5 -23t13.5 -54
q-4 -29 -17.5 -52.5t-32.5 -40.5t-41 -27.5t-42 -13.5q-15 -2 -23 4.5t-9.5 16t4.5 18.5t19 12q15 3 30 11t27 20.5t18.5 28.5t3.5 34q-2 8 -9 6.5t-5 -10.5z" />
    <glyph glyph-name="lcaron" unicode="&#x13e;" horiz-adv-x="362" 
d="M76 89q-2 40 9 93t30.5 109t45 110.5t53 97t54.5 68.5t49 26q23 0 32.5 -14.5t7.5 -43.5q-1 -27 -19.5 -69.5t-46 -91.5t-61.5 -100t-67 -95q24 89 63.5 169.5t86.5 156.5q5 8 -1 12.5t-13 -5.5q-21 -31 -49 -81t-52.5 -107t-42 -114.5t-17.5 -102.5q0 -32 9 -40t20 -8
q25 0 71 46q8 8 20 8.5t21 -8.5t8.5 -21t-8.5 -20q-22 -22 -40 -35.5t-33 -21t-27 -10t-21 -2.5q-39 0 -59.5 24.5t-22.5 69.5zM41 64q-8 -8 -20 -8.5t-21 8.5t-8.5 21t8.5 20q13 13 32.5 35t39.5 48q-6 -28 -9.5 -54t-1.5 -50zM444 493q4 -16 -5 -32.5t-20 -21.5
q-17 6 -26.5 20.5t-9.5 33.5q0 31 23 50.5t52 19.5q32 0 49.5 -23t13.5 -54q-4 -29 -17.5 -52.5t-32.5 -40.5t-41 -27.5t-42 -13.5q-15 -2 -23 4.5t-9.5 16t4.5 18.5t19 12q15 3 30 11t27 20.5t18.5 28.5t3.5 34q-2 8 -9 6.5t-5 -10.5z" />
    </font>
</defs>
</svg>
