<?xml version="1.0" standalone="no"?>
<!DOCTYPE svg PUBLIC "-//W3C//DTD SVG 1.1//EN" "http://www.w3.org/Graphics/SVG/1.1/DTD/svg11.dtd" >
<svg xmlns="http://www.w3.org/2000/svg" xmlns:xlink="http://www.w3.org/1999/xlink" version="1.1">
<metadata>
Created by FontForge 20170731 at Tue Dec 24 03:45:21 2013
 By Aleksey,,,
Copyright (c) 2010 by Viet hoa by UhThilahuvo - chipquay@gmail.com. All rights reserved.
</metadata>
<defs>
<font id="HLTBreathePro" horiz-adv-x="348" >
  <font-face 
    font-family="HLT Breathe Pro"
    font-weight="400"
    font-stretch="normal"
    units-per-em="1000"
    panose-1="2 0 0 0 0 0 0 0 0 0"
    ascent="750"
    descent="-250"
    x-height="314"
    cap-height="648"
    bbox="-1728.14 -869 3480 1207"
    underline-thickness="50"
    underline-position="-150"
    unicode-range="U+0020-FB02"
  />
<missing-glyph horiz-adv-x="180" 
 />
    <glyph glyph-name="fi" unicode="fi" horiz-adv-x="443" 
d="M356 637q20 0 38 -7t30.5 -19.5t20 -30t6.5 -38.5q-2 -28 -21.5 -52t-48.5 -24q-21 0 -29 8t-9 21q0 2 0.5 4t0.5 4q10 -2 16 -2q16 0 30 6t24 15t15.5 20.5t5.5 23.5q0 25 -19.5 46t-59.5 21t-70.5 -25.5t-55.5 -69.5t-45 -102t-38 -122h69l-1 -4h-69q-17 -60 -34 -123
t-35.5 -122t-40.5 -111t-49.5 -91t-61 -61.5t-76.5 -22.5q-30 0 -41 22.5t-5 47.5t29 42t60 7v-3q-34 10 -56 -6.5t-28.5 -40t3 -44.5t38.5 -21q33 0 59 22.5t46.5 61t37.5 90t32.5 110t31 121t33.5 122.5h-34l1 4h34q19 65 43.5 123.5t56 103t72.5 70.5t94 26zM394 85
q-3 -16 -9.5 -32t-17 -28.5t-24.5 -20.5t-31 -8q-31 0 -55 14.5t-24 46.5q0 13 4 25q10 35 20 68q8 28 16.5 57t13.5 48q6 20 15.5 30.5t19.5 15t17.5 5t9.5 0.5l1 4h-96l2 4h107l-72 -250q-5 -18 -5 -33q0 -14 5.5 -22.5t20.5 -8.5q16 0 29.5 7.5t23 19.5t16 27t9.5 31h4z
" />
    <glyph glyph-name="f_l" unicode="fl" horiz-adv-x="466" 
d="M-144 -184q19 18 49 31q22 14 37.5 30t27 37.5t20.5 50.5t20 70q18 72 36 143t41 132h-34l1 4h34q15 40 32.5 74t38 59t45.5 38.5t55 13.5q27 0 44 -18.5t17 -42.5q0 -14 -6 -27.5t-15.5 -24.5t-22.5 -17.5t-27 -6.5q-21 0 -29 8t-8 21q0 2 0.5 4t0.5 4q10 -2 16 -2
q32 0 53 19.5t21 42.5q0 13 -11 24.5t-33 11.5q-20 0 -36.5 -13.5t-31 -37.5t-26.5 -57t-24 -73h125l-1 -4h-125q-17 -60 -34 -129.5t-37 -141.5q-11 -39 -25.5 -68t-32.5 -50t-39 -36.5t-45 -28.5q18 6 36 6q36 0 77.5 -17.5t85.5 -44t89 -57.5t89.5 -57.5t87 -44
t81.5 -17.5q27 0 51 10.5t42.5 28.5t30.5 43t15 54q-10 13 -23.5 21t-27.5 7q-7 0 -10 -1q11 22 35 24q15 0 26 -6q-7 42 -37 71t-77 29q-41 0 -72 -26t-36 -69q-2 -20 4.5 -32.5t17 -19t22 -7t19.5 2.5q6 -13 -2 -24t-25 -9q-19 2 -30.5 23t-11.5 47t9.5 48t25 37.5t36 24
t43.5 8.5q49 0 80.5 -31t37.5 -76q14 -10 21 -25.5t7 -29.5q0 -19 -9.5 -45t-30 -50t-52 -41t-73.5 -18q-21 0 -45 5t-48 13q-40 10 -80.5 31.5t-80.5 48.5t-78.5 55t-74 51.5t-68 38.5t-60.5 15q-23 0 -46 -11.5t-37 -23.5h-5zM423 91q-2 -16 -8.5 -33t-17 -31t-25 -23
t-32.5 -9q-31 0 -55.5 15t-24.5 47q0 13 4 25q27 91 49 168q9 33 18.5 65.5t17.5 60.5l14 49t8 30q5 20 15.5 32t21.5 18q12 7 27 10l-1 5q-54 -18 -102 -9t-91 33t-81.5 56.5t-75 62.5t-71.5 51t-70 21q-41 0 -74.5 -16.5t-57.5 -42.5t-37 -58.5t-13 -65.5q0 -25 7 -50.5
t22.5 -46.5t40.5 -34t61 -13q20 0 39 6.5t34.5 18.5t26.5 28t15 35q8 -3 13 -11t5 -16q0 -16 -11.5 -28.5t-29 -21.5t-38.5 -13.5t-40 -4.5q-42 0 -70.5 14t-46 35.5t-25 48.5t-7.5 53q0 43 18.5 79.5t50 63t71.5 40t84 12.5q51 -2 93.5 -22t80 -48t71.5 -59.5t67.5 -55.5
t68 -36t73.5 -2q-30 3 -52.5 17t-37.5 33.5t-21 41.5t-4 42t13 35t31 19q20 5 30.5 -7t8.5 -23q-41 0 -56 -24t-8 -53t35.5 -53t75.5 -24l-1 -4l-131 -461q-5 -18 -5 -32t6 -23t21 -9q17 0 30.5 8.5t24 21.5t16.5 29.5t8 32.5h4zM438 -396q-5 0 -9 0.5t-9 0.5q34 -8 59 -8
q40 1 68 15t46 33.5t26 39.5t8 34q-1 18 -11 36q-6 -37 -24 -65t-43.5 -47t-54.5 -29t-56 -10z" />
    <glyph glyph-name="M_i" unicode="Mi" horiz-adv-x="1168" 
d="M1120 85q-3 -16 -9.5 -32t-17 -28.5t-24.5 -20.5t-31 -8q-31 0 -55 14.5t-24 46.5q0 13 4 25q10 35 20 68q8 28 16.5 57t13.5 48q6 20 15.5 30.5t19.5 15t17.5 5t9.5 0.5l1 4h-96l2 4h107l-72 -250q-5 -18 -5 -33q0 -14 5.5 -22.5t20.5 -8.5q16 0 29.5 7.5t23 19.5t16 27
t9.5 31h4zM537 -177q33 9 64 4q38 13 68 45.5t56 87.5t51.5 134.5t54.5 186.5l38 141q12 48 35 79t52 49q-69 -15 -140.5 -63t-131.5 -114q22 -67 21 -136t-18 -125.5t-46.5 -92t-63.5 -35.5q-25 0 -35.5 20t-10.5 52q0 61 27 127.5t73 129.5q-14 65 -43.5 125t-80.5 105
l-162 -540h99l-2 -4h-201l2 4h98l162 543q-40 33 -93 52.5t-122 19.5q-60 0 -114.5 -21.5t-96 -58t-65.5 -85t-24 -102.5q0 -38 13 -72t37 -59t58.5 -39.5t78.5 -14.5q39 0 70.5 11t54 29t34.5 42.5t12 51.5q0 12 -2 24t-7 23q1 4 7 9.5t17 5.5t18.5 -11.5t7.5 -30.5
q0 -28 -17 -56t-46.5 -50.5t-68 -37t-80.5 -14.5q-45 0 -80.5 15t-60 40.5t-37.5 60t-13 73.5q0 55 24.5 104.5t66.5 86.5t97 58.5t116 21.5q88 0 154.5 -20t114.5 -53.5t78.5 -78t47.5 -93.5q62 68 135.5 116t144.5 62q28 16 59 22.5t60 6.5q33 0 55 -15.5t32.5 -38.5
t9.5 -49.5t-12 -49.5t-32.5 -38.5t-53.5 -15.5q-39 0 -62.5 16.5t-32.5 38.5t-4 44.5t24 34.5q14 10 29 3q-9 -19 -11 -42t4 -43t19.5 -33.5t35.5 -13.5q30 0 50.5 14.5t31 36.5t10.5 48t-10 48t-31 36.5t-52 14.5q-20 0 -42.5 -5.5t-43.5 -22t-39.5 -47t-30.5 -80.5
l-36 -140q-24 -93 -53 -171t-63.5 -137t-75 -97.5t-87.5 -54.5q35 -7 65 -27.5t57 -47t52.5 -56.5t52 -56t54.5 -44.5t60 -23.5q61 -9 106.5 10.5t74 54.5t38.5 79t-1.5 84t-45.5 69.5t-92 36.5q-35 4 -64.5 -8t-49.5 -36q-8 -11 -13.5 -23.5t-8.5 -27.5q-3 -2 -11.5 -3
t-16.5 4q-10 8 -9 24t15 33q22 26 66 36.5t93 4.5q60 -7 94.5 -38t46 -72t1 -86t-39.5 -80.5t-75.5 -55t-107.5 -10.5q-45 7 -85 28.5t-76 50t-69 59.5t-65 56.5t-64 42t-66 15.5zM577 -12q18 0 33 27.5t23.5 72.5t9 102t-10.5 117q-45 -62 -71 -126.5t-26 -124.5
q0 -30 10.5 -49t31.5 -19z" />
    <glyph glyph-name=".notdef" horiz-adv-x="180" 
 />
    <glyph glyph-name=".null" horiz-adv-x="0" 
 />
    <glyph glyph-name="nonmarkingreturn" horiz-adv-x="180" 
 />
    <glyph glyph-name="space" unicode=" " horiz-adv-x="180" 
 />
    <glyph glyph-name="space" unicode="&#xa0;" horiz-adv-x="180" 
 />
    <glyph glyph-name="exclam" unicode="!" horiz-adv-x="259" 
d="M29 28q2 15 14 25.5t27 10.5q13 0 21 -8.5t8 -21.5q0 -17 -11.5 -29t-28.5 -12q-14 0 -22 8.5t-8 22.5v4zM191 622q4 18 16 26.5t26 8.5t20 -10.5t1 -24.5l-162 -496h-5z" />
    <glyph glyph-name="quotedbl" unicode="&#x22;" horiz-adv-x="291" 
d="M62 404q24 3 41.5 18t28 34t12.5 39t-7 34q17 11 33 4t18 -28q1 -12 -7 -28t-24.5 -31t-40 -27.5t-53.5 -17.5zM171 404q24 3 41.5 18t28 34t12.5 39t-7 34q17 11 33 4t18 -28q1 -12 -7 -28t-24.5 -31t-40 -27.5t-53.5 -17.5z" />
    <glyph glyph-name="numbersign" unicode="#" horiz-adv-x="473" 
d="M102 364h115l28 108h5l-29 -108h97l28 108h5l-29 -108h108v-5h-109l-26 -101h107v-5h-109l-28 -109h-5l28 109h-96l-28 -109h-5l28 109h-113v5h115l26 101h-113v5zM194 258h96l26 101h-96z" />
    <glyph glyph-name="dollar" unicode="$" horiz-adv-x="528" 
d="M168 258q-28 -6 -49 -21.5t-35 -36.5t-21 -45t-7 -47q0 -21 8 -40t23.5 -33.5t37 -24t48.5 -10.5l91 311q-28 42 -51.5 83.5t-23.5 83.5q0 26 11 51.5t31.5 46t50 33t66.5 12.5q36 0 60.5 -8t39.5 -21.5t21.5 -30t6.5 -33.5t-7.5 -34.5t-21.5 -32.5t-34.5 -24.5
t-45.5 -9.5q-46 0 -51 38l-2 -1l-21 -73q16 -26 33.5 -52t32 -53t24 -56.5t9.5 -60.5q0 -39 -19 -71.5t-49 -55t-67.5 -35t-74.5 -12.5h-5l-26 -88h-5l26 88q-40 1 -70 14.5t-50 33.5t-30 44.5t-10 48.5q0 22 7.5 45t22.5 42t37 30.5t51 11.5q20 0 36 -4zM332 525l-10 -33
q-2 -5 -2 -9.5v-8.5q0 -20 11.5 -31.5t34.5 -11.5q14 0 26 10t20.5 24.5t13.5 30.5t5 28q0 16 -3 32.5t-11.5 30t-24.5 22t-43 8.5q-21 0 -40.5 -6t-34.5 -18t-23.5 -30.5t-8.5 -42.5q0 -32 13.5 -62t33.5 -62l38 129h5zM334 144q0 42 -20 82.5t-46 79.5l-90 -307h4
q34 0 62 11.5t48 31t31 46t11 56.5z" />
    <glyph glyph-name="percent" unicode="%" horiz-adv-x="540" 
d="M419 300q34 0 52 -16.5t22 -42t-4 -54.5t-26 -54.5t-45 -42t-60 -16.5q-34 0 -51.5 16.5t-21.5 42t4.5 54.5t26.5 54.5t44 42t59 16.5zM131 310q-33 0 -51 16.5t-22 42t4.5 54.5t26.5 54.5t44 42t59 16.5q34 0 52 -16.5t22 -42t-4 -54.5t-26 -54.5t-45 -42t-60 -16.5z
M419 298q-18 0 -35 -16.5t-30 -41t-21 -53.5t-9 -53.5t7 -41t28 -16.5q19 0 37 16.5t32 41t22 53.5t8 53.5t-9 41t-30 16.5zM192 534q-18 0 -35 -16.5t-30 -41t-21 -53.5t-9 -53.5t7 -41t28 -16.5q19 0 37 16.5t32 41t22 53.5t8 53.5t-9 41t-30 16.5zM486 621h5l-439 -662
h-5z" />
    <glyph glyph-name="ampersand" unicode="&#x26;" horiz-adv-x="909" 
d="M291 355q12 -81 41 -161.5t70 -141.5q38 46 70.5 98t64 96.5t66 74t77.5 29.5q48 0 69 -20.5t21 -48.5q0 -18 -6.5 -36.5t-18 -33.5t-28 -24.5t-37.5 -9.5l-2 -3q18 -16 25.5 -40.5t5.5 -51.5t-13.5 -53.5t-32.5 -48t-51.5 -35t-70.5 -13.5q-49 0 -90.5 22.5t-76.5 60.5
q-37 -37 -82 -62.5t-102 -25.5q-94 0 -144.5 46t-50.5 124q0 49 21 85t55.5 63.5t78 48.5t87.5 41q-5 35 -6.5 66t1.5 57q7 62 45 97.5t89 35.5q43 0 69 -18.5t26 -50.5q0 -27 -12 -49t-31 -40.5t-44 -33.5t-50 -28q-8 -5 -16.5 -8.5t-16.5 -7.5zM211 -61q50 0 87 21.5
t74 57.5q-27 30 -49 67.5t-39 78.5t-29 83.5t-18 82.5q-36 -17 -68.5 -37t-58 -47.5t-40.5 -64.5t-15 -89q0 -28 9 -55.5t28 -49t48.5 -35t70.5 -13.5zM564 -61q51 3 84.5 33t47.5 69t7 77.5t-38 59.5q-11 2 -18.5 9.5t-7.5 23.5q18 0 34 8.5t27.5 22t18.5 29.5t7 31
q0 17 -10.5 30.5t-35.5 13.5q-41 0 -75 -29.5t-65.5 -73.5t-64 -96t-71.5 -98q35 -51 76 -81.5t84 -28.5zM284 487q-2 -30 -0.5 -62t6.5 -65q18 8 31 16q44 23 71.5 63.5t27.5 88.5q0 9 -1 19.5t-5.5 19t-14.5 14.5t-27 6q-15 0 -30 -5.5t-27 -17.5t-20.5 -31t-10.5 -46z
" />
    <glyph glyph-name="quotesingle" unicode="'" horiz-adv-x="102" 
d="M33 404q24 3 41.5 18t28 34t12.5 39t-7 34q17 11 33 4t18 -28q1 -12 -7 -28t-24.5 -31t-40 -27.5t-53.5 -17.5z" />
    <glyph glyph-name="parenleft" unicode="(" horiz-adv-x="253" 
d="M379 612q-5 2 -10.5 3t-11.5 1q-35 0 -74 -28t-77 -79.5t-71.5 -124.5t-55.5 -164q-22 -90 -28 -174.5t3 -150t31 -105t55 -39.5q10 0 22 3l2 -3q-6 -2 -12 -3t-12 -1q-36 0 -58.5 40t-31.5 106.5t-3 151.5t28 175q22 91 56 164.5t72 126t78 81t76 28.5q12 0 25 -5z" />
    <glyph glyph-name="parenright" unicode=")" horiz-adv-x="313" 
d="M-112 -245q5 -2 10.5 -3t11.5 -1q34 0 73.5 28t77.5 79.5t71 124.5t56 164q22 90 28 174.5t-3 150t-31 105t-55 39.5q-10 0 -22 -3l-2 3q6 2 12 3t12 1q36 0 58.5 -40t31.5 -106.5t3 -151.5t-28 -175q-23 -91 -56.5 -164.5t-71.5 -126t-78 -81t-76 -28.5q-12 0 -25 5z
" />
    <glyph glyph-name="asterisk" unicode="*" horiz-adv-x="329" 
d="M182 439q-17 11 -29 16.5t-22.5 9.5t-20.5 8t-22 11q-18 10 -18 25.5t5 23.5t15 13.5t20 -4.5q0 -19 7 -34.5t18.5 -27.5t24.5 -21.5t24 -15.5q1 1 2 1q3 20 2.5 34t-1.5 25t-2 22.5t0 26.5q2 21 15.5 29.5t23.5 8.5q8 1 17.5 -4.5t5.5 -19.5q-17 -11 -27.5 -26.5
t-16.5 -32.5t-8 -33.5t-3 -29.5l1 -1q19 9 31 17t21.5 16t18.5 15t22 15q20 11 33 4.5t18 -14.5q4 -8 3 -19.5t-15 -14.5q-16 8 -33.5 7.5t-35 -5t-33 -12t-27.5 -13.5v-3q16 -11 28 -16.5t22.5 -9.5t20.5 -7.5t22 -10.5q9 -5 13 -12t5 -13.5t-0.5 -13t-4.5 -10.5
q-5 -8 -15 -13.5t-20 4.5q0 19 -7 34t-18.5 27t-24.5 21.5t-24 15.5q-1 -1 -2 -1q-3 -20 -3 -34t1.5 -25t2.5 -22t0 -26q-2 -21 -15 -30t-23 -9q-9 0 -18 5.5t-6 19.5q17 10 27.5 25.5t16.5 32.5t8 34t3 30h-1q-19 -9 -31 -17t-21.5 -15.5t-18.5 -15t-22 -14.5
q-20 -11 -33 -4.5t-18 14.5q-4 8 -3 19.5t15 14.5q16 -8 33.5 -8t35 5t33.5 12.5t28 13.5v2z" />
    <glyph glyph-name="plus" unicode="+" horiz-adv-x="429" 
d="M60 314h160l41 158h5l-42 -158h164v-5h-165l-43 -165h-5l43 165h-158v5z" />
    <glyph glyph-name="comma" unicode="," horiz-adv-x="171" 
d="M-1 -97q39 16 56 40.5t18 41.5q0 27 -27 27q-7 0 -14 -3.5t-11 -9.5q-4 4 -5 10.5t-1 12.5q1 16 13 27t29 11q20 0 30.5 -15t8.5 -35q-5 -33 -31 -63.5t-65 -46.5z" />
    <glyph glyph-name="hyphen" unicode="-" horiz-adv-x="630" 
d="M44 171h519v-5h-519v5z" />
    <glyph glyph-name="period" unicode="." horiz-adv-x="169" 
d="M14 23q2 15 14 25.5t27 10.5q14 0 22.5 -10.5t6.5 -25.5q-2 -14 -13.5 -24.5t-26.5 -10.5t-23.5 10.5t-6.5 24.5z" />
    <glyph glyph-name="slash" unicode="/" horiz-adv-x="278" 
d="M238 621h5l-205 -662h-5z" />
    <glyph glyph-name="zero" unicode="0" horiz-adv-x="588" 
d="M522 594l-30 -41q37 -32 51 -86t6.5 -116t-34.5 -125t-70.5 -114t-101.5 -83t-128 -32q-32 0 -56.5 8.5t-43.5 23.5l-34 -47l-3 3l33 47q-37 32 -52 85.5t-9 115.5t31 125.5t67.5 115t101.5 84t132 32.5q34 0 60.5 -9t46.5 -25l29 40zM473 534q-28 52 -91 52
q-48 0 -91.5 -30t-79 -77.5t-61.5 -107t-39 -119t-10.5 -113.5t23.5 -89zM215 1q47 0 90 29t78 75.5t61 104.5t39.5 117t12.5 112.5t-20 90.5l-350 -484q29 -45 89 -45z" />
    <glyph glyph-name="one" unicode="1" horiz-adv-x="393" 
d="M76 0l1 4h76l163 505q-1 2 -2 3q-17 -29 -39.5 -56.5t-50 -48.5t-58.5 -34t-64 -13q-29 0 -49.5 8t-33.5 20.5t-18 28.5t-2 32q3 20 14.5 33.5t25.5 20.5t27 8t21 -3q-22 -15 -32 -39t-8 -47.5t15.5 -40.5t39.5 -17q41 0 79.5 20.5t70 52.5t54 69.5t32.5 72.5h111l-2 -4
h-51l-186 -571h69l-1 -4h-202z" />
    <glyph glyph-name="two" unicode="2" horiz-adv-x="561" 
d="M280 324q-47 7 -69.5 38t-20.5 70q2 28 17 57.5t42.5 53t66.5 38.5t89 15q23 0 48.5 -5t46.5 -18t33.5 -34.5t10.5 -55.5q-4 -46 -41 -87.5t-94 -80.5l7 -4q59 -2 84 -38t22 -87q-2 -36 -18.5 -70.5t-45 -62t-67.5 -44t-87 -16.5q-33 0 -64.5 8t-62.5 18t-61.5 18
t-59.5 8q-26 0 -48.5 -14.5t-30.5 -37.5q-3 -9 -3 -19q0 -16 12.5 -30t40.5 -14q24 0 48.5 12t37.5 42q12 -9 15.5 -24.5t-3 -31t-24 -26.5t-45.5 -11q-38 0 -64.5 22t-24.5 61v2q5 59 31 90t65 39q37 27 81.5 54t91 55t90 58t78.5 64t57 72.5t25 83.5q1 15 -1.5 32.5
t-10.5 32.5t-24.5 25t-44.5 10q-35 0 -64.5 -17.5t-51.5 -44.5t-35 -59t-15 -61q-2 -30 8.5 -52.5t36.5 -29.5zM394 304q-38 -26 -80.5 -51t-85 -49.5t-83 -49t-73.5 -48.5q5 1 15 1q36 0 62.5 -17t50.5 -38t48.5 -38t55.5 -17q37 0 66 15.5t50 41.5t33.5 59t14.5 68
q1 25 -2 47t-12 39t-23 27t-34 10h-3z" />
    <glyph glyph-name="three" unicode="3" horiz-adv-x="467" 
d="M226 390h9t8 -1l134 129h-199l-16 -50h-4l16 50l19 61h247l44 42h4l-240 -232q45 -3 77.5 -17t54 -35t32 -48t9.5 -57q-1 -42 -21 -85t-57 -77t-88 -55.5t-114 -21.5q-40 0 -70 9.5t-50 26t-30 38.5t-10 46q0 13 4.5 26t13.5 24.5t22 19t30 9.5l4 -2q-14 -17 -21 -39
t-7 -45q0 -20 5.5 -39.5t18 -34.5t32.5 -24.5t49 -10.5q52 0 94.5 21t72.5 55.5t46 78t17 88.5q1 30 -7 57t-24.5 47t-43 32t-62.5 12z" />
    <glyph glyph-name="four" unicode="4" horiz-adv-x="469" 
d="M325 689q11 4 26.5 2.5t29.5 -11t22.5 -28t5.5 -46.5q-3 -25 -20 -54t-43 -59t-58 -59t-64 -55.5t-62 -48t-51 -36.5q15 -2 32.5 -9t37 -16.5t40.5 -20t42 -18.5l48 146q31 17 52 39t27 37h3l-77 -235h5q35 -2 59 11t31 39h3q-8 -31 -35 -43t-65 -13l-68 -207h69l-1 -4
h-202l1 4h76l69 209q-38 4 -75.5 10.5t-69 10t-53.5 1t-28 -16.5h-5q25 74 78 76q21 15 51 37t62.5 48t64.5 55.5t58 59.5t43.5 58.5t20.5 53.5q3 30 -8 43.5t-27.5 14.5t-34 -8t-26.5 -24q-8 0 -12 6t-3 15t8.5 19t22.5 17z" />
    <glyph glyph-name="five" unicode="5" horiz-adv-x="486" 
d="M95 183q-18 -9 -32 -33t-14 -54q0 -19 5.5 -38t19 -34t35 -24.5t54.5 -9.5q49 0 90 26.5t70.5 68t45.5 92.5t16 100q0 34 -8.5 65t-27 54.5t-46.5 37t-67 13.5q-12 0 -32.5 -3t-32.5 -8l1 3l43 140l12 40h4l-13 -40h226l-27 -111h-4l12 50h-225l-24 -78q11 4 30.5 7
t37.5 3q47 0 83.5 -16t61 -43t37.5 -62t13 -73q0 -49 -21 -97t-58 -86.5t-87.5 -62.5t-109.5 -24q-39 0 -69.5 8.5t-52.5 24t-33.5 36t-11.5 44.5q0 16 6.5 32.5t18.5 29t29.5 19.5t40.5 5z" />
    <glyph glyph-name="six" unicode="6" horiz-adv-x="528" 
d="M403 589q-47 0 -90.5 -25.5t-81 -67t-67 -94.5t-48.5 -108.5t-25 -108.5t4 -94.5t37.5 -67t75.5 -25.5q42 0 81.5 22.5t69.5 59.5t48 83.5t18 94.5q0 25 -5 47.5t-16 40t-29 27.5t-45 10q-30 0 -54.5 -15t-42 -38t-27 -50.5t-9.5 -52.5t8 -46q-6 -6 -16 -6.5t-19.5 5.5
t-16 18t-5.5 32q2 26 16 53.5t37.5 50.5t56 38t72.5 15q39 0 66.5 -12t45 -32t25 -46.5t6.5 -55.5q-2 -42 -22 -86t-54.5 -79.5t-82.5 -58t-106 -22.5q-62 0 -100.5 25.5t-56.5 67.5t-17.5 96t17.5 110t50 110t78 96t101.5 67.5t122.5 25.5q31 0 52.5 -7.5t35 -19.5t19 -27
t4.5 -31q-2 -32 -28 -56.5t-72 -24.5l2 4q9 1 19 10t18.5 22.5t14.5 30t6 32.5q0 29 -16.5 46t-54.5 17z" />
    <glyph glyph-name="seven" unicode="7" horiz-adv-x="408" 
d="M462 579l-1 -2q4 11 6.5 21t4.5 21h4q-13 -66 -50.5 -126.5t-85.5 -115.5t-100.5 -103.5t-96 -89.5t-72 -75.5t-28.5 -60.5q0 -50 47 -50q16 0 28.5 7.5t21.5 19t13.5 25.5t4.5 26q1 14 -3 28t-18 22q1 9 10 16.5t19 7.5q14 0 24 -12t10 -29q0 -18 -8.5 -38t-23.5 -37
t-35 -28t-43 -11q-10 0 -21 2.5t-20.5 10t-15.5 19.5t-6 32q0 48 22.5 89t58.5 78t81 72t89 69.5t83.5 69.5t65.5 74q1 2 2 3.5t2 3.5h-320l-12 -50h-4l27 111h340z" />
    <glyph glyph-name="eight" unicode="8" horiz-adv-x="504" 
d="M329 334q7 13 26 13q28 0 49 -11.5t35.5 -30t22 -41.5t7.5 -45q0 -39 -19 -79t-55.5 -72.5t-89 -53.5t-119.5 -21q-41 0 -76 11t-61 30.5t-40.5 46.5t-14.5 59q0 41 18 72.5t48 55.5t68 43t77.5 36t77.5 33t68 35.5t48 43t18 54.5q0 13 -4 26.5t-12.5 24t-22.5 17
t-34 6.5q-22 0 -41 -9.5t-33 -24.5t-22 -33t-8 -34q0 -26 12.5 -45t40.5 -27l-2 -4q-21 -11 -43 -11q-28 0 -46.5 19t-18.5 50q0 24 10 46t30 39t50 27t70 10q21 0 44.5 -4t42.5 -13t31.5 -24t12.5 -36q0 -32 -18 -54t-48 -38t-68 -29t-77.5 -27t-77.5 -32t-68 -44.5
t-48 -63.5t-18 -90q0 -28 10 -53t28 -44t43 -30t55 -11q52 0 93.5 19t70.5 49.5t44 68.5t15 76q0 44 -21 77.5t-60 46.5z" />
    <glyph glyph-name="nine" unicode="9" horiz-adv-x="495" 
d="M142 125q-16 0 -30.5 -7t-25.5 -18t-17.5 -25t-6.5 -28q0 -20 13.5 -34t47.5 -14q46 0 88.5 20.5t80 54.5t68 78.5t52.5 93t34 98t12 93.5q0 32 -7 59.5t-22.5 48t-39 32t-56.5 11.5q-47 0 -86.5 -24.5t-68 -64t-44.5 -89t-16 -99.5q0 -23 4 -44t13.5 -36.5t26 -24.5
t41.5 -9q31 0 56.5 16.5t42.5 41.5t26.5 54t9.5 55q0 10 -2 18.5t-5 16.5q7 7 17 7q13 0 25.5 -12.5t12.5 -38.5t-14 -54.5t-39 -52.5t-58.5 -39.5t-73.5 -15.5q-38 0 -65 11t-45 30t-26.5 44.5t-8.5 53.5q0 43 20.5 89t56.5 84t86 62.5t110 24.5q49 0 84.5 -14t58 -38
t33 -56t10.5 -68q0 -44 -14 -92.5t-39 -95t-60.5 -89t-78.5 -74.5t-92 -51t-102 -19q-52 0 -77.5 23t-25.5 51q0 11 4.5 24t13.5 24.5t23.5 19.5t34.5 8q10 0 21.5 -4t18.5 -16z" />
    <glyph glyph-name="colon" unicode=":" horiz-adv-x="174" 
d="M59 239q2 15 14 25.5t27 10.5q13 0 21 -8.5t8 -21.5q0 -17 -11.5 -29t-28.5 -12q-14 0 -23 9.5t-7 25.5zM15 28q2 15 14 25.5t27 10.5q13 0 21 -8.5t8 -21.5q0 -17 -11.5 -29t-28.5 -12q-14 0 -23 9.5t-7 25.5z" />
    <glyph glyph-name="semicolon" unicode=";" horiz-adv-x="168" 
d="M58 236q2 15 14 25.5t27 10.5q13 0 21 -8.5t8 -21.5q0 -17 -11.5 -29t-28.5 -12q-14 0 -23 9.5t-7 25.5zM1 -97q39 16 55.5 40.5t16.5 41.5q0 27 -28 27q-16 0 -24 -13q-4 4 -5.5 10.5t-1.5 12.5q0 16 12 27t29 11q20 0 31 -15t9 -35q-4 -33 -30 -63.5t-63 -45.5z" />
    <glyph glyph-name="less" unicode="&#x3c;" horiz-adv-x="346" 
d="M221 0l-206 178v5l304 163l3 -4l-303 -161v-1l205 -176z" />
    <glyph glyph-name="equal" unicode="=" horiz-adv-x="250" 
d="M41 211h165v-4h-165v4zM28 154h165v-4h-165v4z" />
    <glyph glyph-name="greater" unicode="&#x3e;" horiz-adv-x="357" 
d="M-1 4l294 176v1l-196 164l4 4l198 -167v-3l-297 -179z" />
    <glyph glyph-name="question" unicode="?" horiz-adv-x="328" 
d="M152 469q-5 -2 -9 -2h-8q-11 0 -20 6t-15 15.5t-9.5 20.5t-3.5 21q-1 25 12 49t36.5 43t55.5 30.5t69 11.5q58 0 90 -34t34 -82q2 -57 -23 -98t-64 -72t-85 -55t-85 -45.5t-65 -44t-25 -50.5q1 -25 15 -39.5t37 -14.5q16 0 29 6.5t22 16.5t13.5 22.5t4.5 25.5t-5 25.5
t-17 19.5q0 9 9 16.5t19 7.5q14 0 24.5 -12t10.5 -29q1 -18 -7.5 -36.5t-23.5 -33t-35.5 -24t-43.5 -9.5q-25 0 -40 16t-16 42q-2 42 23 75t63.5 62t83 55.5t83 55t63.5 61t24 73.5q-2 40 -30.5 67.5t-82.5 27.5q-33 0 -56 -12.5t-37.5 -32t-20.5 -42.5t-5 -45
q0 -14 3.5 -27.5t11.5 -24.5zM15 28q2 15 14 25.5t27 10.5q13 0 21 -8.5t8 -21.5q0 -17 -11.5 -29t-28.5 -12q-14 0 -22 8.5t-8 22.5v4z" />
    <glyph glyph-name="at" unicode="@" horiz-adv-x="536" 
d="M302 417q46 0 82.5 -14.5t61.5 -39.5t38 -59t13 -73q0 -35 -13 -67t-34 -56.5t-46.5 -39t-49.5 -14.5q-17 0 -31.5 5.5t-25 17t-15 29t0.5 41.5q-14 -31 -38.5 -55t-47.5 -24q-36 0 -51.5 18.5t-15.5 46.5q0 24 10.5 51.5t29.5 51t43.5 38.5t53.5 15q23 0 31 -16t8 -36
v-2q3 11 6.5 23.5t8.5 27.5h42l-39 -132q-8 -28 -9 -46.5t3.5 -29.5t14 -15.5t21.5 -4.5q24 0 48.5 14t44.5 38t33 55t13 66q0 39 -13 72t-37.5 57.5t-60 38.5t-80.5 14q-54 0 -105.5 -21.5t-91 -59t-63.5 -87.5t-24 -107q0 -61 30.5 -108t81.5 -69l-3 -4q-52 23 -82.5 71
t-30.5 110q0 57 24 108t64.5 89t92 60t107.5 22zM286 161q3 13 6.5 26.5t8.5 30.5q1 5 1.5 10.5t0.5 10.5q0 17 -7.5 31.5t-28.5 14.5q-18 0 -35.5 -18t-32 -44t-23 -55.5t-8.5 -53.5q0 -19 7 -31t22 -12q12 0 25.5 8t25.5 21t22 29t16 32z" />
    <glyph glyph-name="A" unicode="A" horiz-adv-x="750" 
d="M694 597l-81 -593h63l-1 -4h-192l2 4h68l23 176h-146q-37 -44 -77 -82t-80.5 -66t-79 -43.5t-72.5 -13.5q-38 2 -57.5 18.5t-23 37.5t7.5 42.5t34 35.5q-48 25 -68.5 72.5t-17.5 101.5q2 49 25.5 94t61 79.5t86 55t99.5 20.5q37 0 89 -6t103 -11q-1 5 -1.5 9t0.5 9
q1 22 14 42.5t33.5 36.5t46 25t51.5 9q41 0 56.5 -18t13.5 -41q-2 -17 -9 -30q10 9 17.5 19t9.5 21h2zM169 87q-8 3 -16 3q-20 0 -40 -16.5t-29.5 -37t-2.5 -38t41 -19.5q33 -2 71 13t77 42.5t78.5 65t76.5 80.5h-26l2 4h27q37 43 69.5 89.5t58 91t42.5 85t22 71.5
q-37 -16 -90 -22t-108 -7.5t-104.5 -0.5t-79.5 -2q-54 -5 -96.5 -25t-73 -50t-47.5 -66.5t-20 -73.5q-2 -23 2.5 -46t14.5 -45t27 -40.5t41 -30.5q21 12 50 12q15 0 24.5 -9t11.5 -21q46 0 82 16.5t57.5 42.5t27 58.5t-7.5 64.5q1 4 7 10t17 6q16 0 23 -21q9 -29 -4.5 -60.5
t-42.5 -58.5t-71 -44.5t-88 -17.5v-1zM629 531q4 2 7 4.5t6 4.5q25 17 28 47q2 21 -12.5 38t-53.5 17q-24 0 -49 -9t-45 -24t-33 -34.5t-14 -41.5q-2 -10 1 -18q21 -2 40 -3t35 -1q23 0 46.5 4.5t43.5 15.5zM615 482q-10 -31 -28 -67.5t-41.5 -75.5t-52 -78.5t-60.5 -76.5
h143z" />
    <glyph glyph-name="B" unicode="B" horiz-adv-x="740" 
d="M439 595q-8 2 -11.5 10t-3.5 18q0 17 13 34.5t44 17.5q28 0 44.5 -21t16.5 -44q0 -5 -1.5 -11t-7.5 -26q21 16 44 26.5t44 10.5q58 0 86.5 -28.5t28.5 -66.5q0 -25 -12 -51t-35.5 -48.5t-59 -39t-82.5 -23.5q77 -5 113 -44.5t36 -92.5q0 -38 -17.5 -78t-51.5 -72.5
t-82.5 -53t-109.5 -20.5h-216l3 4h71q3 10 14.5 47t27.5 87.5t34.5 109.5t35.5 113.5t31.5 99t21.5 67.5q-29 -13 -62 -22.5t-66 -16.5t-62.5 -12t-50.5 -9q-48 -9 -84 -30t-60 -48.5t-36.5 -59t-12.5 -61.5q0 -25 7.5 -48.5t24 -42t41.5 -30t60 -11.5q38 0 67 12.5
t48.5 33.5t29 47.5t9.5 54.5q0 10 -1.5 20.5t-6.5 18.5q8 5 17 5q12 0 21 -10.5t9 -31.5q0 -27 -15 -54t-41 -49.5t-61.5 -36.5t-76.5 -14q-39 0 -67.5 13.5t-46.5 36t-26.5 51t-8.5 57.5q0 34 12.5 69.5t36.5 66.5t60 53.5t84 31.5q26 5 55 6.5t59 3t59 3.5t56 7
q18 3 37.5 10t35.5 18t26.5 25.5t10.5 33.5q0 14 -8.5 29.5t-32.5 15.5q-18 0 -36.5 -15.5t-22.5 -45.5zM422 -4q48 0 87 22t67 56t43 75t15 80q0 24 -6.5 46t-20 38.5t-35 26.5t-50.5 11q-7 -1 -14 -1h-14h-15.5t-15.5 2l-113 -356h72zM621 606q-22 0 -45 -11.5t-45 -28.5
l-67 -211q7 -2 14.5 -2h15.5q49 0 86.5 16.5t62.5 42t37.5 56t12.5 58.5q0 33 -18 56.5t-54 23.5z" />
    <glyph glyph-name="C" unicode="C" horiz-adv-x="468" 
d="M420 217q0 -41 -16.5 -82.5t-46.5 -75t-71.5 -55t-90.5 -21.5q-61 0 -99.5 27t-57.5 71t-19 100.5t16.5 115.5t48.5 115.5t77 100.5t102.5 71t125.5 27q47 0 73 -19t35 -48t3 -62.5t-22.5 -62.5t-42.5 -48t-56 -19q-26 0 -36 12t-5 29q29 4 54 21.5t42.5 41.5t25.5 50.5
t4 49t-22 37t-53 14.5q-41 0 -82 -26.5t-78 -70t-68 -99.5t-51.5 -114t-28.5 -114t0.5 -99.5t36 -70t77.5 -26.5q48 0 89 21t70 54.5t45.5 74.5t16.5 80h4z" />
    <glyph glyph-name="D" unicode="D" horiz-adv-x="851" 
d="M248 -8l3 4h71q3 10 14.5 47t27.5 87.5t34.5 109.5t35.5 113.5t31.5 99t21.5 67.5q-40 -17 -87 -28t-89 -19q-17 -4 -33 -7l-32 -6q-53 -10 -90.5 -34.5t-61 -56t-33 -66.5t-6.5 -67q2 -21 11.5 -40.5t26 -34.5t40 -24t53.5 -9q29 0 52.5 13t39 33t23.5 45t6.5 49
t-13 44.5t-33.5 31.5q5 8 15 13.5t21 5.5q25 0 38 -17.5t15 -44.5t-8 -57.5t-30.5 -57.5t-52 -44.5t-73.5 -17.5q-34 0 -59.5 10.5t-43.5 28.5t-29 40.5t-15 46.5q-7 37 2 77.5t33 76.5t63 63t92 37q26 5 55 7t59 3t59 3t56 7q19 4 38.5 11t35 17.5t26 25t10.5 33.5
q0 14 -8.5 29.5t-32.5 15.5q-18 0 -36.5 -15.5t-22.5 -45.5q-9 3 -13 15.5t0 27t17 26t38 11.5q28 0 44.5 -21t16.5 -44q0 -5 -1.5 -11.5t-6.5 -24.5q20 15 44.5 25.5t53.5 10.5q61 0 101 -26.5t60 -70t20.5 -99t-16.5 -113.5t-51.5 -113.5t-85 -99t-116 -70t-145.5 -26.5
h-180zM661 606q-29 0 -54 -11.5t-47 -28.5l-181 -570h49q65 0 118.5 26t95.5 69t72 98t46.5 112t19 112t-9.5 98t-39 69t-70 26z" />
    <glyph glyph-name="E" unicode="E" horiz-adv-x="427" 
d="M335 337h-100q-54 0 -92 -26t-60.5 -65t-28.5 -84t4.5 -84t37 -65t70.5 -26q48 0 89 21t70 54t45.5 74t16.5 81h4q0 -41 -16.5 -82.5t-46.5 -75t-71.5 -55t-90.5 -21.5q-54 0 -89 18t-54.5 47.5t-23.5 66t4.5 73t28 70t48.5 56t66 31t80 -4.5h20q-37 7 -58 30t-26.5 53
t4.5 63t34.5 61t64.5 46t95 18q41 0 67 -15t39 -37.5t12 -48.5t-14.5 -48.5t-39.5 -37.5t-63 -15l-4 3q23 6 39.5 22.5t26 38t11 45.5t-5.5 43.5t-24 32.5t-44 13q-38 0 -67.5 -19.5t-50 -49.5t-29.5 -64t-5.5 -64t20 -49.5t49.5 -19.5h58v-4z" />
    <glyph glyph-name="F" unicode="F" horiz-adv-x="589" 
d="M774 646q40 -3 55.5 -23.5t15.5 -42.5q0 -17 -7 -34t-23.5 -30.5t-42.5 -21.5t-63 -8q-41 0 -84 14t-91 33l-63 -219h114l-2 -5h-114l-88 -305h66l-1 -4h-202l1 4h79l86 305h-71q-12 -19 -31 -35t-42.5 -28t-51 -19t-55.5 -7q-44 0 -78 15t-57 40t-35 58.5t-12 69.5
q0 45 17 90t49 81t77.5 59t102.5 23q37 0 76.5 -12.5t81 -30.5t83.5 -40t84 -40t82.5 -30.5t78.5 -12.5q24 0 43 8.5t32.5 22t20 30.5t6.5 34q-1 20 -11 35.5t-29 23.5zM358 368q0 -27 -16 -54h69l68 242q-59 23 -123.5 41.5t-138.5 18.5q-52 0 -95.5 -19t-74.5 -49.5
t-48.5 -68.5t-17.5 -76q0 -36 11.5 -68t34 -57t55.5 -39.5t77 -14.5q39 0 69.5 14t52.5 38t33.5 56t11.5 69q11 0 21.5 -8t10.5 -25z" />
    <glyph glyph-name="G" unicode="G" horiz-adv-x="540" 
d="M528 482q0 -43 -21.5 -89.5t-56.5 -80.5h56l-1 -4h-12q-22 -76 -46 -154.5t-56.5 -143t-75.5 -105.5t-102 -41q-41 0 -62 14.5t-27.5 34.5t0.5 41t24 34q-48 11 -77 43.5t-40 78.5t-5.5 101t25 110.5t53.5 107.5t79 92t100.5 64.5t119.5 24.5q28 0 51 -10.5t39.5 -28
t25.5 -40.5t9 -49zM228 -10q60 11 101 52t64 94q12 40 22.5 81t21.5 83q-21 -17 -44 -27t-48 -10q-26 0 -36 12t-5 29q36 -5 75 6.5t71 35.5t53 59t21 77q0 25 -8.5 47.5t-24.5 39.5t-38.5 27t-49.5 10q-39 0 -78.5 -24t-75.5 -63t-67.5 -90t-54 -105.5t-35 -108.5
t-11 -99.5t19 -78t54.5 -44.5q14 8 33 8.5t40 -11.5zM384 108q-28 -52 -74.5 -87.5t-111.5 -37.5q-19 -8 -29 -26.5t-9.5 -38.5t13.5 -35t40 -15q29 0 53.5 19t45.5 51.5t38.5 76t33.5 93.5z" />
    <glyph glyph-name="H" unicode="H" horiz-adv-x="759" 
d="M293 -253q24 7 51 7h10q66 8 109 47t72.5 103t51 148.5t46.5 183.5l7 28h-224l-80 -268h66l-1 -4h-201l1 4h73q2 8 9.5 33.5t18 62t23.5 81t27 91.5h-42q0 -22 -14.5 -45t-40.5 -41.5t-61.5 -30t-76.5 -11.5q-38 0 -65.5 11.5t-45.5 31t-26.5 45t-8.5 54.5q0 35 13 71
t38.5 67.5t63 55t85.5 32.5q31 6 68 9t75.5 6.5t74.5 9t63.5 15t44.5 26t17 41.5q0 14 -7.5 29.5t-31.5 15.5q-18 0 -37 -15.5t-24 -45.5q-7 2 -11 9.5t-4 17.5q0 17 13.5 35t45.5 18q26 0 42.5 -19.5t16.5 -42.5q0 -15 -4 -27l-96 -317h224l25 95q7 31 19.5 62.5t30 58
t40.5 45.5t53 26h-119l1 4h167l-1 -4q-26 0 -45 -13t-33 -36t-25.5 -54.5t-21.5 -69.5l-33 -119q-27 -98 -55 -186t-65 -156t-87.5 -112.5t-123.5 -56.5q30 -4 58.5 -13.5t57 -20t57 -18.5t57.5 -8q40 0 70 11t50 28.5t29.5 39.5t9.5 44q0 36 -25 63.5t-73 27.5
q-18 0 -32.5 -9t-24.5 -22.5t-15.5 -29t-5.5 -28.5q-26 0 -26 23q0 10 7 22.5t20 23t32.5 17.5t44.5 7q27 0 46.5 -8.5t32.5 -23t19.5 -33t6.5 -38.5q0 -26 -10.5 -52.5t-31 -48t-51.5 -35t-72 -13.5q-35 0 -68.5 14t-67 31t-67 31t-66.5 14q-9 0 -17.5 -1.5t-17.5 -3.5z
M354 269q12 40 23 78.5t21 72t18.5 59.5t13.5 41q-29 -12 -61.5 -21.5t-65 -16.5t-62.5 -12.5t-54 -9.5q-49 -9 -86.5 -31t-63 -50t-38.5 -60.5t-13 -62.5q0 -48 32 -82t98 -34q37 0 66.5 10.5t49.5 27.5t30.5 38.5t10.5 44.5q0 8 -1 15.5t-6 13.5q7 4 17 4q22 0 27 -24z
" />
    <glyph glyph-name="I" unicode="I" horiz-adv-x="649" 
d="M677 562l-114 -395q-12 -43 -35.5 -81t-56.5 -66.5t-74 -45t-89 -16.5t-80 17.5t-49.5 45t-22 60.5t0.5 64h-16.5t-16.5 2q-47 6 -78.5 26.5t-49 49.5t-22 64.5t1.5 71.5q9 48 37.5 90t70 71.5t91.5 44t101 8.5q35 -5 81.5 -16.5t91.5 -22.5q-2 10 1 19q4 22 19.5 41
t38 32t48.5 19t52 3q40 -5 53 -25t9 -42q-5 -23 -20.5 -37.5t-39.5 -23.5q18 2 37 12.5t29 29.5h1zM307 312q2 4 8.5 9.5t17.5 3.5q16 -2 20 -24q5 -24 -6 -49t-33.5 -46t-54 -36.5t-67.5 -21.5q-18 -32 -18.5 -65t15 -60t46 -44t74.5 -17q43 0 75 20.5t55 51.5t38 67t24 67
l101 345l-7 2q-38 -10 -87 -9.5t-99 5.5t-94.5 12t-73.5 11q-54 7 -99 -7.5t-78.5 -41.5t-55.5 -62.5t-29 -72.5q-6 -30 -1 -62.5t22 -61t47.5 -49t76.5 -26.5q8 -2 16.5 -2h16.5q7 36 26 62.5t45 31.5q16 3 24.5 -5t8.5 -20q-45 -28 -66 -65q31 7 55.5 22.5t39.5 37t20 47
t-3 52.5zM454 553q-3 -9 -1 -20q20 -5 39.5 -9t36.5 -6q21 -2 43.5 0t42 9.5t33.5 20.5t18 33q4 21 -8 39.5t-50 23.5q-24 3 -50 -3t-47.5 -18.5t-37 -30.5t-19.5 -39z" />
    <glyph glyph-name="J" unicode="J" horiz-adv-x="640" 
d="M582 229q-27 -98 -61.5 -190.5t-82.5 -165t-112.5 -116.5t-151.5 -44q-51 0 -84 20t-49.5 50t-19.5 66t5.5 67.5t26 54.5t41.5 27q16 3 24.5 -5t8.5 -20q-52 -32 -72.5 -76t-12.5 -84t42 -68t91 -28q49 0 88.5 21.5t72 59t58.5 87.5t47.5 107t40.5 118t38 120l60 192
q9 30 23 50.5t32 36.5l-2 5q-38 -10 -87.5 -9.5t-99.5 5.5t-95 12.5t-74 11.5q-54 7 -99 -7t-78.5 -41t-55.5 -63t-29 -73q-6 -30 -1 -62.5t22 -61t47.5 -49t76.5 -26.5q47 -6 85 5.5t63.5 35t35 55t-0.5 65.5q2 4 8.5 9t17.5 4q8 -2 13 -7t7 -17q6 -30 -11.5 -60t-50 -53
t-76.5 -35t-91 -6t-78.5 26.5t-49 49.5t-22.5 64.5t2 71.5q8 48 36.5 90t70 71.5t92 44t101.5 8.5q35 -5 81.5 -16.5t91.5 -22.5q-2 10 1 19q4 22 19.5 41t38 32t48.5 19t52 3q40 -5 53 -25t9 -42q-5 -23 -17 -37q10 6 20.5 11.5t21.5 11.5l1 -2q-12 -8 -24.5 -16.5
t-24.5 -23.5t-24 -39t-22 -61zM490 553q-3 -9 -1 -20q20 -5 39.5 -9t36.5 -6q21 -2 43 -1t41.5 7.5t34 20t18.5 36.5q4 21 -8 39.5t-50 23.5q-24 3 -50 -3t-47.5 -18.5t-37 -30.5t-19.5 -39z" />
    <glyph glyph-name="K" unicode="K" horiz-adv-x="771" 
d="M520 594q0 -1 -1.5 -4.5t-7.5 -23.5t-19.5 -62.5t-38.5 -120.5q38 -14 65.5 -49t47.5 -80l200 298h-101l1 4h216l-1 -4h-109l-204 -303q19 -44 34 -90t30 -83.5t32 -62t40 -24.5q13 0 24.5 8.5t13.5 25.5h4q-2 -19 -15 -28.5t-27 -9.5q-42 0 -71 24t-49 61t-34 82.5
t-28 89t-31 79t-41 53.5l-117 -370h66l-2 -4h-195l2 4h72q2 6 7.5 24t14 45t19 61t22.5 71q-38 13 -49.5 42.5t-1.5 60t38.5 55.5t70.5 28q14 43 24 75.5t15 47.5q35 8 49.5 23t22.5 32q-14 -23 -36.5 -33t-48.5 -10q-28 0 -58.5 4.5t-61.5 10.5t-60.5 10.5t-54.5 4.5
q-40 0 -71 -16.5t-51 -42t-28 -54.5t-1.5 -54.5t28 -42t60.5 -16.5q34 0 51.5 16t20.5 36t-7.5 36.5t-32.5 18.5q0 12 5.5 20.5t13 12.5t16.5 4.5t17 -2.5q16 -8 20 -31.5t-5.5 -49t-34 -45.5t-64.5 -20q-43 0 -68 20.5t-32.5 50.5t0.5 65.5t30 65.5t57.5 49.5t82.5 18.5
q26 0 54.5 -10.5t58 -22.5t59 -22.5t57.5 -10.5q32 0 56 16t35 42zM340 210q14 45 28.5 90t27.5 87q-39 -4 -66.5 -27.5t-37.5 -53t1 -57t47 -39.5z" />
    <glyph glyph-name="L" unicode="L" horiz-adv-x="511" 
d="M570 481q0 -28 -12 -54.5t-31.5 -47t-44.5 -33t-50 -12.5q-39 0 -62 16.5t-31 38.5t-2.5 44.5t24.5 34.5q14 10 29 3q-10 -19 -12.5 -42t2.5 -43t18.5 -33.5t35.5 -13.5q24 0 47.5 12t42 31.5t30 45.5t11.5 53q0 45 -29 72t-71 27q-20 0 -42 -5.5t-44 -22t-41.5 -47
t-33.5 -80.5l-40 -140q-25 -93 -51.5 -149.5t-57.5 -89.5t-67 -49t-80 -28v-2q37 -5 68 -24.5t58.5 -46.5t53.5 -57t52.5 -57t55 -46.5t61.5 -24.5q73 -11 130.5 14.5t94.5 71t52 102.5t3.5 109t-52 90.5t-113.5 46.5q-23 3 -48 -1.5t-47.5 -14t-40.5 -23.5t-28 -30
q-8 -11 -13.5 -23.5t-8.5 -27.5q-3 -2 -11.5 -3t-16.5 4q-10 8 -8.5 24t14.5 33q14 20 39.5 33.5t55 22t60 11t54.5 -0.5q54 -6 91 -29.5t57.5 -57.5t25 -75.5t-5 -83.5t-33 -80.5t-59.5 -66.5t-84 -42.5t-106 -7.5q-45 5 -85 26t-76 49.5t-69 60t-65 57.5t-64 43t-66 16
l10 5q11 3 22 4t22 1q25 7 45 13t36.5 16.5t32 29t31 50.5t33 81.5t39.5 122.5l42 141q14 48 38.5 79.5t54.5 50t63 25.5t63 7q43 0 73.5 -27.5t30.5 -75.5z" />
    <glyph glyph-name="M" unicode="M" horiz-adv-x="954" 
d="M537 -177q33 9 64 4q38 13 68 45.5t56 87.5t51.5 134.5t54.5 186.5l38 141q12 48 35 79t52 49q-69 -15 -140.5 -63t-131.5 -114q22 -67 21 -136t-18 -125.5t-46.5 -92t-63.5 -35.5q-25 0 -35.5 20t-10.5 52q0 61 27 127.5t73 129.5q-14 65 -43.5 125t-80.5 105l-162 -540
h99l-2 -4h-201l2 4h98l162 543q-40 33 -93 52.5t-122 19.5q-60 0 -114.5 -21.5t-96 -58t-65.5 -85t-24 -102.5q0 -38 13 -72t37 -59t58.5 -39.5t78.5 -14.5q39 0 70.5 11t54 29t34.5 42.5t12 51.5q0 12 -2 24t-7 23q1 4 7 9.5t17 5.5t18.5 -11.5t7.5 -30.5q0 -28 -17 -56
t-46.5 -50.5t-68 -37t-80.5 -14.5q-45 0 -80.5 15t-60 40.5t-37.5 60t-13 73.5q0 55 24.5 104.5t66.5 86.5t97 58.5t116 21.5q88 0 154.5 -20t114.5 -53.5t78.5 -78t47.5 -93.5q62 68 135.5 116t144.5 62q28 16 59 22.5t60 6.5q33 0 55 -15.5t32.5 -38.5t9.5 -49.5
t-12 -49.5t-32.5 -38.5t-53.5 -15.5q-39 0 -62.5 16.5t-32.5 38.5t-4 44.5t24 34.5q14 10 29 3q-9 -19 -11 -42t4 -43t19.5 -33.5t35.5 -13.5q30 0 50.5 14.5t31 36.5t10.5 48t-10 48t-31 36.5t-52 14.5q-20 0 -42.5 -5.5t-43.5 -22t-39.5 -47t-30.5 -80.5l-36 -140
q-24 -93 -53 -171t-63.5 -137t-75 -97.5t-87.5 -54.5q35 -7 65 -27.5t57 -47t52.5 -56.5t52 -56t54.5 -44.5t60 -23.5q61 -9 106.5 10.5t74 54.5t38.5 79t-1.5 84t-45.5 69.5t-92 36.5q-35 4 -64.5 -8t-49.5 -36q-8 -11 -13.5 -23.5t-8.5 -27.5q-3 -2 -11.5 -3t-16.5 4
q-10 8 -9 24t15 33q22 26 66 36.5t93 4.5q60 -7 94.5 -38t46 -72t1 -86t-39.5 -80.5t-75.5 -55t-107.5 -10.5q-45 7 -85 28.5t-76 50t-69 59.5t-65 56.5t-64 42t-66 15.5zM577 -12q18 0 33 27.5t23.5 72.5t9 102t-10.5 117q-45 -62 -71 -126.5t-26 -124.5q0 -30 10.5 -49
t31.5 -19z" />
    <glyph glyph-name="N" unicode="N" horiz-adv-x="818" 
d="M1052 -117q39 0 61.5 -22t29 -54.5t-3 -70.5t-35.5 -70.5t-67.5 -54.5t-99.5 -22q-59 0 -102.5 28.5t-75.5 77t-55 114t-41 139.5t-34 153t-34 154.5t-41 145t-54 123.5l-155 -521h103l-1 -4h-217l2 4h109l155 527q-36 61 -87 97t-124 36q-53 0 -105 -20.5t-92.5 -55.5
t-65.5 -82t-25 -101q0 -38 13 -72t37 -59t58.5 -39.5t78.5 -14.5q39 0 70.5 11t54 29t34.5 42.5t12 51.5q0 12 -2 24t-7 23q1 4 7 9.5t17 5.5t18.5 -11.5t7.5 -30.5q0 -28 -17 -56t-46.5 -50.5t-68 -37t-80.5 -14.5q-45 0 -80.5 15t-60 40.5t-37.5 60t-13 73.5q0 55 25 103
t66 83.5t93.5 56t107.5 20.5q73 0 129 -23.5t98.5 -64.5t73.5 -96.5t53.5 -120.5t38.5 -135.5t30 -140.5h3l137 465l2 1h-105l1 4h217l-2 -4h-109l-141 -483q17 -93 33.5 -178.5t40.5 -151.5t60 -105.5t92 -39.5t96.5 21t65.5 53t34.5 68.5t4 68.5t-27 53t-58.5 21
q-23 0 -41.5 -10t-32 -26t-21.5 -35.5t-9 -37.5q-1 -10 1 -18t5 -16q-8 -8 -18 -9t-19 4.5t-14 16t-2 25.5q4 22 17 42t33.5 35t46 24t54.5 9z" />
    <glyph glyph-name="O" unicode="O" horiz-adv-x="567" 
d="M375 607q62 0 102 -26.5t61 -70t23.5 -99.5t-11.5 -114t-43 -114t-72 -99.5t-98 -70t-121 -26.5q-64 0 -105.5 32.5t-60.5 83t-17.5 112.5t23.5 121t63 107.5t100 73.5q21 38 59 64t97 26zM305 369q-1 -19 -14 -30.5t-36 -11.5q-24 0 -39.5 17.5t-20.5 45t0 60.5t21 63
q-38 -29 -64.5 -78.5t-41 -107.5t-15.5 -118t11.5 -108.5t39.5 -79t70 -30.5q46 0 88 26.5t77 69.5t61 98t41 112t18 112t-9.5 98t-41 69.5t-75.5 26.5q-42 0 -68 -18.5t-39.5 -46t-15.5 -59t4.5 -57t18.5 -40t28 -8.5z" />
    <glyph glyph-name="P" unicode="P" horiz-adv-x="674" 
d="M525 626q2 -11 1 -24t-11 -37q24 19 51.5 32t51.5 13q62 0 94.5 -30.5t38.5 -76.5t-11.5 -99t-54.5 -99t-92 -76.5t-123 -30.5q-40 0 -58 21l-65 -215h64l-1 -4h-195l2 4h73q3 9 13.5 45t25 85.5t32 107.5t33.5 112.5t29 98.5t20 67q-56 -23 -118.5 -36t-121.5 -24
q-53 -10 -91.5 -34t-63.5 -55.5t-34.5 -66.5t-3.5 -66q5 -24 19.5 -45t38.5 -34.5t57.5 -17.5t75.5 4q28 5 48 19.5t32 33t16.5 38t1.5 36.5q-2 12 -8 18q2 2 4.5 2t4.5 1q14 2 23.5 -3.5t13.5 -19.5q4 -18 -4.5 -38t-26.5 -38t-44.5 -32.5t-59.5 -20.5q-45 -9 -80.5 -3.5
t-60.5 21t-40 39.5t-21 52q-8 37 0.5 77.5t32 76.5t62 63t91.5 37q25 5 54 7t59 3t59.5 3t55.5 7q21 4 42 12t37 20t24.5 29t4.5 40q-2 10 -11.5 18t-23.5 9.5t-30 -4.5t-32 -22q-8 1 -11.5 6.5t-2.5 11.5t6 12.5t14 9.5q19 7 35 6t28 -8t20 -17t11 -21zM618 606
q-25 0 -52.5 -14t-52.5 -34l-100 -335q8 -10 22 -15.5t35 -5.5q53 0 96 30t73 75t46 97t15 97t-21 75t-61 30z" />
    <glyph glyph-name="Q" unicode="Q" horiz-adv-x="606" 
d="M341 407q18 0 26 -19.5t10 -38.5q3 -35 -10.5 -76.5t-40 -77.5t-64.5 -60t-84 -24q-35 0 -60.5 13t-42.5 35.5t-25 51t-8 60.5q0 58 27.5 117.5t74 108t108 79.5t130.5 31q42 0 77 -16.5t60 -45t39 -65.5t14 -78q0 -48 -16 -101.5t-45.5 -103.5t-71.5 -93.5t-94 -73
t-112.5 -41.5t-127.5 1q39 -32 68 -79.5t54 -92.5t50 -78.5t56 -38.5q6 -1 11.5 -1.5t11.5 -0.5q31 0 57 12.5t45 32.5t29 45t10 50q0 18 -5 37.5t-17 36.5t-31.5 28t-49.5 11q-20 0 -38 -9.5t-32 -25t-21.5 -36.5t-6.5 -44q-29 0 -36.5 19t4 42.5t39 42.5t68.5 19
q39 0 64.5 -11.5t40 -29t20 -39t5.5 -41.5q0 -26 -10.5 -51.5t-29.5 -46t-46 -33.5t-59 -13q-11 0 -27.5 1.5t-27.5 3.5q-38 8 -67.5 36t-54 64.5t-46 77t-44 74.5t-48 56t-57.5 22h-6.5t-7.5 -1l2 3q5 0 9.5 0.5t9.5 0.5q32 0 58.5 -10.5t49.5 -27.5q64 -13 120 2t103 48.5
t84 82t62.5 102.5t38.5 109t13 103q-1 75 -33.5 118t-104.5 43q-41 0 -77.5 -18t-68.5 -48.5t-57.5 -70t-43.5 -82.5t-28 -86.5t-10 -80.5q0 -48 20 -75t61 -27q39 0 68.5 19t49.5 49t30.5 68t10.5 76q0 20 -4 38.5t-13 32.5q9 9 21 9z" />
    <glyph glyph-name="R" unicode="R" horiz-adv-x="765" 
d="M452 626q-16 3 -13.5 18t20.5 22q19 7 35 6t28 -8t20 -17t10 -21q2 -9 1.5 -20.5t-10.5 -35.5q23 17 48.5 28.5t48.5 11.5q51 0 84 -20t48.5 -52t13.5 -72t-21.5 -80t-56 -75.5t-89.5 -58.5q24 -57 37.5 -128.5t24.5 -144.5t23 -142.5t34.5 -123.5t58.5 -87t94 -33
q56 0 97.5 23t68 58t38 75t7.5 75t-24.5 58t-57.5 23q-23 0 -41.5 -10t-32 -26t-21.5 -35.5t-9 -37.5q-1 -10 1 -18t5 -16q-8 -8 -18 -9t-19 4.5t-14 16t-2 25.5q4 22 17 42t33.5 35t46 24t54.5 9q39 0 60.5 -23.5t26.5 -59.5t-6.5 -77t-39 -77t-70 -59.5t-100.5 -23.5
q-72 0 -120 31.5t-80 83.5t-50 119.5t-31 139t-23 142t-25 128.5q-24 -6 -50 -9.5t-55 -3.5h-12.5t-11.5 1l-69 -217h69l-1 -4h-195l2 4h68q2 7 9 29.5t17 54t22 70.5t25 81q-6 4 -11.5 8.5t-9.5 9.5q-1 -17 -11.5 -35t-28.5 -34t-43 -28.5t-55 -18.5q-45 -9 -80 -3.5
t-60 21t-40 39.5t-20 52q-7 37 2 77.5t33 76.5t63 63t92 37q26 5 55 7t59 3t59 3t56 7q21 4 42 12t37.5 20t25 29t4.5 40q-2 10 -11.5 18t-23 9.5t-30 -4.5t-32.5 -22zM428 393q14 42 24.5 75.5t16.5 51.5q-40 -17 -87 -28t-89 -19q-17 -4 -33 -7l-32 -6q-53 -10 -92.5 -34
t-65 -55.5t-35.5 -66.5t-4 -66q4 -24 18.5 -45t38 -34.5t57 -17.5t75.5 4q28 5 48 19.5t32.5 33t17.5 38t2 36.5q-2 11 -7 18q2 2 4.5 2t4.5 1q13 2 20 -2q-4 18 0 36t15.5 33t29 24t40.5 9h1zM485 386q44 -12 74 -41.5t51 -71.5q36 26 62 60.5t41.5 71.5t19 73t-5 64.5
t-30 46t-57.5 17.5q-23 0 -49 -12t-50 -31zM559 245q-13 46 -31 79.5t-46 50.5l-48 -150q5 -1 11 -1h12q28 0 53.5 5.5t48.5 15.5zM382 243q11 38 22.5 74.5t22.5 71.5q-23 0 -40.5 -9t-28 -23.5t-13.5 -32.5t2 -36q8 -7 11 -18q0 -2 0.5 -3t0.5 -3q10 -13 23 -21z" />
    <glyph glyph-name="S" unicode="S" horiz-adv-x="457" 
d="M137 242q-21 -6 -37 -20.5t-26.5 -34t-15.5 -41.5t-5 -42q0 -21 8.5 -41t25 -35t39.5 -24.5t52 -10.5q34 0 62 10.5t48 30t31.5 45.5t11.5 56t-10.5 58.5t-27 56.5t-36 55t-36 54t-27 53.5t-10.5 53.5q0 26 11.5 51.5t32 45.5t50 32t66.5 12q36 -1 61 -11t41 -25
t23.5 -32t7.5 -31q0 -25 -8.5 -45t-21 -31.5t-27 -13.5t-26.5 9q16 14 25.5 36.5t10.5 48.5q0 16 -3.5 32t-12.5 28.5t-25.5 21t-43.5 8.5q-43 1 -75 -22.5t-32 -72.5q0 -28 11 -55t28 -54t37 -55t36.5 -57.5t27.5 -61t11 -65.5q0 -39 -19 -71t-49 -54t-68 -33.5t-75 -11.5
q-42 1 -74 14t-53 33.5t-31.5 45.5t-10.5 50q0 43 17.5 72.5t39.5 44t43 13t28 -19.5z" />
    <glyph glyph-name="T" unicode="T" horiz-adv-x="523" 
d="M723 646q40 -3 55.5 -23.5t15.5 -42.5q0 -17 -7 -34t-23.5 -30.5t-42.5 -21.5t-63 -8q-38 0 -78 12.5t-85 29.5l-149 -524h65l-1 -4h-202l1 4h78l154 547q-61 24 -129 44.5t-146 20.5q-52 0 -95.5 -19t-74.5 -49.5t-48.5 -68.5t-17.5 -76q0 -36 11.5 -68t34 -57
t55.5 -39.5t77 -14.5q39 0 69.5 14t52.5 38t33.5 56t11.5 69q11 0 21.5 -8t10.5 -25q0 -28 -16.5 -54.5t-44 -47.5t-63.5 -33.5t-75 -12.5q-44 0 -78 15t-57 40t-35 58.5t-12 69.5q0 45 17 93t49 88t77.5 66t102.5 26q36 0 76 -14t81.5 -34.5t83.5 -44.5t84 -44.5
t82.5 -34.5t78.5 -14q24 0 43 8.5t32.5 22t20 30.5t6.5 34q-1 20 -11 35.5t-29 23.5z" />
    <glyph glyph-name="U" unicode="U" horiz-adv-x="774" 
d="M899 556l-2 -4h-109l-97 -360q-15 -55 -38 -92.5t-51 -61t-59.5 -33.5t-63.5 -10q-27 0 -54.5 8.5t-50 26t-36.5 44.5t-14 65q0 15 2.5 32t8.5 36l75 248q8 28 23.5 44.5t30.5 29.5v1q-27 -15 -64 -26t-76 -19.5t-75.5 -14t-61.5 -10.5q-49 -9 -86.5 -31t-63 -50
t-38.5 -60.5t-13 -62.5q0 -48 32 -82t98 -34q37 0 66.5 10.5t49.5 27.5t30.5 38.5t10.5 44.5q0 8 -1 15.5t-6 13.5q7 4 17 4q12 0 20 -8t8 -25q0 -21 -15.5 -43.5t-41.5 -40.5t-61.5 -29.5t-75.5 -11.5q-38 0 -65.5 11.5t-45.5 31t-26.5 45t-8.5 54.5q0 42 17.5 83t50.5 74
t82 53.5t112 20.5q25 0 50.5 -1.5t50.5 -1.5q22 0 51.5 4t56.5 14t46.5 28t21.5 46q0 14 -7.5 29.5t-31.5 15.5q-18 0 -37 -15.5t-24 -45.5q-7 2 -11 9.5t-4 17.5q0 17 13.5 35t45.5 18q26 0 42.5 -19.5t16.5 -42.5q0 -7 -1.5 -13t-3.5 -11l-107 -366q-15 -51 -15 -94
q0 -54 23.5 -85.5t69.5 -31.5q31 0 62 10t58.5 32.5t50 59.5t37.5 91l97 360h-103l1 4h217z" />
    <glyph glyph-name="V" unicode="V" horiz-adv-x="467" 
d="M681 556l-1 -4h-112l-328 -528q-17 -29 -30.5 -58t-18.5 -53l-3 -1q-2 84 -4.5 171.5t-10.5 169t-24.5 154t-46.5 126t-76.5 85t-114.5 31.5q-56 0 -111.5 -21.5t-100 -59t-72.5 -88.5t-28 -109q0 -35 11 -65t33 -52.5t53.5 -35.5t73.5 -13t76 12.5t58 33t37 47.5t13 56
q0 15 -5 32q1 4 7.5 9.5t17.5 5.5q10 0 16 -9.5t6 -26.5q0 -28 -19 -57t-50.5 -53t-72.5 -39t-84 -15q-42 0 -75 13t-55 36t-33.5 54t-11.5 67q0 59 28 110.5t73 89.5t101.5 60t113.5 22q78 0 132 -24.5t90 -67.5t57 -101.5t32.5 -126.5t16 -141.5t7.5 -147.5l317 508h-100
l1 4h217z" />
    <glyph glyph-name="W" unicode="W" horiz-adv-x="1179" 
d="M1396 556l-1 -4h-111l-320 -544q-14 -26 -24 -50t-16 -45l-3 -1q1 9 1 18.5v20.5q0 36 -2.5 81t-6 92.5t-7.5 94.5t-8 86.5t-7.5 68.5t-4.5 41l-218 -371l-3 -5l-25 -42h-1q-29 -48 -39 -84l-3 -1q5 80 10 162t5 160q0 85 -9 160.5t-34 132t-69.5 89.5t-114.5 33
q-59 0 -118.5 -23.5t-108.5 -64t-79.5 -94.5t-30.5 -115q0 -63 39 -105t117 -42q44 0 80.5 13.5t62.5 35.5t40.5 51t14.5 59q0 6 -0.5 11.5t-1.5 10.5q1 4 8 9.5t18 5.5q8 0 13.5 -8t5.5 -22q0 -29 -21 -59t-55 -55t-77 -40.5t-88 -15.5q-39 0 -69 11.5t-50.5 31.5t-30.5 48
t-10 60q0 62 31 116.5t80 95.5t110 65t120 24q93 0 149.5 -34t87.5 -91.5t41.5 -134.5t10.5 -162q0 -44 -2 -88t-4 -89l239 405q14 26 24 54t10 52v10h3q2 -28 6 -68.5t8.5 -87.5t8.5 -97.5t7.5 -99t5.5 -91.5t2 -75v-9l299 505h-102l1 4h216z" />
    <glyph glyph-name="X" unicode="X" horiz-adv-x="786" 
d="M321 4l251 268q-20 79 -44.5 150.5t-60.5 124.5t-85 84.5t-116 31.5q-53 0 -105 -20.5t-92.5 -55.5t-65.5 -82t-25 -101q0 -38 13 -72t37 -59t58.5 -39.5t78.5 -14.5q39 0 70.5 11t54 29t34.5 42.5t12 51.5q0 12 -2 24t-7 23q1 4 7 9.5t17 5.5t18.5 -11.5t7.5 -30.5
q0 -28 -17 -56t-46.5 -50.5t-68 -37t-80.5 -14.5q-45 0 -80.5 15t-60 40.5t-37.5 60t-13 73.5q0 55 25 103t66 83.5t93.5 56t107.5 20.5q77 0 135.5 -26t102 -71t74 -105.5t52.5 -130.5l203 218h-100l1 4h217l-2 -4h-111l-207 -222q25 -79 41.5 -164t32 -167t31.5 -156
t39.5 -129.5t57.5 -88.5t85 -33q56 0 97.5 23t68 58t38 75.5t7.5 75.5t-24.5 58t-57.5 23q-23 0 -41.5 -10t-32 -26t-21.5 -35.5t-9 -37.5q-1 -10 1 -18t5 -16q-8 -8 -18 -9t-19 4.5t-14 16t-2 25.5q4 22 17 42t33.5 35t46 24t54.5 9q39 0 60.5 -23.5t26.5 -59.5t-6.5 -77
t-39 -77t-70 -59.5t-100.5 -23.5q-60 0 -104 29t-76 79t-55 117t-41 142t-34.5 155t-34.5 157l-246 -264h114l-2 -4h-216l1 4h97z" />
    <glyph glyph-name="Y" unicode="Y" horiz-adv-x="715" 
d="M207 219q39 0 70.5 11t54 29t34.5 42.5t12 51.5q0 12 -2 24t-7 23q1 4 7 9.5t17 5.5t18.5 -11.5t7.5 -30.5q0 -28 -17 -56t-46.5 -50.5t-68 -37t-80.5 -14.5q-45 0 -80.5 15t-60 40.5t-37.5 60t-13 73.5q0 55 25 103t66 83.5t93.5 56t107.5 20.5q79 0 140.5 -28
t102.5 -76t60.5 -111t13.5 -132h2l216 232h-104l1 4h217l-2 -4h-107l-223 -239q-4 -38 -17 -81l-72 -228h69l-1 -4h-195l2 4h68l71 226q29 93 26.5 172.5t-34 137t-90.5 90.5t-144 33q-54 0 -105.5 -20t-92 -55.5t-65.5 -82.5t-25 -101q0 -38 13 -72t37 -59t58.5 -39.5
t78.5 -14.5z" />
    <glyph glyph-name="Z" unicode="Z" horiz-adv-x="464" 
d="M-37 -13q17 19 45 35t59 21l389 414q56 60 120 31l1 1q-32 15 -64 35t-64 38t-63.5 30.5t-61.5 12.5q-47 0 -81 -14.5t-56 -36.5t-32.5 -48.5t-10.5 -51.5q0 -42 28 -71t74 -33q0 -17 -11 -30.5t-29 -13.5q-15 0 -28.5 9t-23.5 25t-15.5 37.5t-5.5 46.5q0 30 9.5 63
t32 60.5t59 45t90.5 17.5q42 0 86.5 -22t89 -49t88.5 -49t85 -22q25 0 37 14.5t12 32.5q0 15 -8.5 27.5t-24.5 17.5l2 2h10q26 0 39.5 -12.5t13.5 -29.5q0 -20 -21.5 -38t-63.5 -18q-28 0 -62 13q-14 3 -27.5 -0.5t-25.5 -11t-23 -17.5t-20 -20l-310 -330q-34 -36 -62.5 -44
t-53.5 -5q-2 -2 -2 -3h9q70 0 132.5 -33.5t118.5 -84t108 -109t101.5 -109t97.5 -84t98 -33.5q34 0 62.5 14t49.5 36.5t32.5 51t11.5 56.5q0 23 -8.5 41.5t-22 32.5t-31 22t-35.5 10q1 16 13 27.5t29 11.5q30 0 49 -27.5t21 -75.5q1 -33 -9.5 -69t-32.5 -66.5t-55 -50.5
t-77 -20q-88 0 -151.5 33.5t-113 84.5t-90 109.5t-84 109.5t-94.5 84.5t-120 33.5q-36 0 -70.5 -17t-56.5 -41z" />
    <glyph glyph-name="bracketleft" unicode="[" horiz-adv-x="217" 
d="M187 621h83v-4h-79l-193 -854h75v-4h-81z" />
    <glyph glyph-name="backslash" unicode="\" horiz-adv-x="234" 
d="M89 621h5l36 -662h-5z" />
    <glyph glyph-name="bracketright" unicode="]" horiz-adv-x="278" 
d="M9 -241h-80v4h77l197 854h-77v4h83z" />
    <glyph glyph-name="asciicircum" unicode="^" horiz-adv-x="273" 
d="M145 525h28l65 -132h-4l-78 90h-9l-123 -90h-4z" />
    <glyph glyph-name="underscore" unicode="_" horiz-adv-x="407" 
d="M-9 -21h347l-2 -5h-347z" />
    <glyph glyph-name="grave" unicode="`" horiz-adv-x="207" 
d="M167 401q-30 5 -50.5 17.5t-33 27.5t-17.5 31t-4 28q2 21 18 28t33 -4q-9 -14 -10 -34t5.5 -39t21 -34t38.5 -18z" />
    <glyph glyph-name="a" unicode="a" horiz-adv-x="406" 
d="M333 314l-71 -251q-3 -11 -4 -22.5t0.5 -20.5t7 -15t17.5 -6q16 0 29.5 7.5t23.5 19.5t16.5 27.5t9.5 31.5h4q-3 -16 -9.5 -32t-17 -29t-24.5 -21t-32 -8q-42 0 -63.5 25t-10.5 67l-3 1q-11 -19 -24 -36t-28 -29.5t-30.5 -20t-29.5 -7.5q-51 0 -73 27.5t-21 68.5
q1 36 16.5 75.5t42.5 73.5t62 56t75 22q18 0 29.5 -7.5t17.5 -19.5t7.5 -27t0.5 -30q8 25 14 46t10 34h58zM94 -1q16 0 34 10.5t35 27.5t31.5 38.5t23.5 43.5q5 19 12 41.5t14 47.5q3 15 3.5 33.5t-4 34.5t-15.5 27t-32 11q-27 0 -53 -26.5t-46 -65.5t-32.5 -83t-12.5 -78
q0 -28 10 -45t32 -17z" />
    <glyph glyph-name="b" unicode="b" horiz-adv-x="355" 
d="M98 216q20 43 51 72.5t67 29.5q47 0 70 -24t26.5 -60t-10.5 -78t-41 -78t-65.5 -60t-83.5 -24q-26 0 -48 9t-36.5 25.5t-19.5 39.5t3 51l83 289q6 20 11.5 31t10.5 16t11 6l1 2h-91l2 4h131zM112 -2q30 0 57 23.5t48 58.5t34 76t14.5 76t-10 58.5t-39.5 23.5
q-20 0 -38.5 -10t-34.5 -27.5t-29.5 -40t-23.5 -47.5l-25 -89q-9 -32 -7.5 -52t10 -31t20.5 -15t24 -4z" />
    <glyph glyph-name="c" unicode="c" horiz-adv-x="291" 
d="M228 89q-6 -18 -18 -34.5t-27.5 -30t-35 -21.5t-41.5 -8q-50 0 -74.5 24t-28.5 60t10.5 78t42 78t66 60t83.5 24q27 0 44 -18.5t17 -42.5q0 -34 -21 -58t-50 -24q-21 0 -29 11t-8 24q0 2 0.5 4t0.5 4q10 -2 16 -2q32 0 53.5 19t21.5 42q0 13 -11.5 25t-33.5 12
q-26 0 -51.5 -23.5t-45.5 -58.5t-33 -76t-15 -76t8.5 -58.5t37.5 -23.5q21 0 39.5 8t34 21t27 29.5t17.5 34.5z" />
    <glyph glyph-name="d" unicode="d" horiz-adv-x="412" 
d="M367 91q-2 -16 -8 -33t-16.5 -31t-25 -23t-32.5 -9t-34 5t-27.5 15t-16.5 25.5t0 36.5l-6 1q-21 -35 -50.5 -59t-56.5 -24q-47 0 -69.5 24t-25 60t11.5 77.5t41 77.5t63 60t78 24q18 0 29.5 -7.5t18 -20t9 -27.5t1.5 -30q8 27 15.5 54.5t14 51t11.5 41.5t8 27
q5 19 10.5 29.5t10.5 15.5q5 6 11 8l1 3h-90l1 4h131l-113 -404q-2 -11 -3.5 -22.5t0.5 -20.5t8 -15t18 -6q17 0 30.5 8.5t23.5 22t16 30t8 32.5zM94 -1q16 0 34.5 10.5t35.5 28t31.5 39t23.5 44.5q5 18 11.5 40.5t14.5 48.5q3 16 3 34t-5.5 33.5t-17 26t-32.5 10.5
q-24 0 -48 -23.5t-43.5 -58.5t-33 -75.5t-16 -75.5t6.5 -58.5t35 -23.5z" />
    <glyph glyph-name="e" unicode="e" horiz-adv-x="310" 
d="M232 90q-6 -17 -18.5 -34t-29 -30.5t-37 -22t-43.5 -8.5q-56 0 -80.5 29t-24.5 70q0 36 16 75.5t43.5 72.5t64.5 54.5t80 21.5q35 0 55.5 -15.5t20.5 -44.5q0 -17 -10.5 -36.5t-30 -36.5t-47.5 -28.5t-62 -11.5q-31 0 -61 10q-8 -23 -12 -44.5t-4 -41.5q0 -31 12 -50.5
t40 -19.5q22 0 42 8.5t36 21.5t28 29.5t18 33.5zM203 314q-20 0 -39.5 -13.5t-37 -35.5t-32.5 -50t-25 -57q10 -3 20.5 -5t21.5 -2q27 0 50 14t40 34t27 42t10 39t-7.5 25.5t-27.5 8.5z" />
    <glyph glyph-name="f" unicode="f" horiz-adv-x="243" 
d="M265 491q27 0 44 -18.5t17 -42.5q0 -14 -6 -27.5t-15.5 -24.5t-22.5 -17.5t-27 -6.5q-21 0 -29 8t-8 21q0 2 0.5 4t0.5 4q10 -2 16 -2q32 0 53 19.5t21 42.5q0 13 -11 24.5t-33 11.5q-21 0 -38.5 -13t-31.5 -36.5t-26 -55t-23 -68.5h70l-1 -4h-71q-15 -52 -29.5 -112
t-32 -119t-38.5 -113.5t-50 -96t-66.5 -66t-86.5 -24.5q-30 0 -40.5 22.5t-4 47.5t29.5 42t60 7v-3q-34 10 -56 -6.5t-29.5 -40t2 -44.5t38.5 -21q38 0 66.5 24.5t50 65.5t37.5 94.5t31 112.5l30 118t34 112h-35l1 4h35q14 38 31 70.5t38 56t47 37t58 13.5z" />
    <glyph glyph-name="g" unicode="g" horiz-adv-x="383" 
d="M-60 -141q0 26 19.5 53.5t61.5 50.5q-16 9 -26 21.5t-10 29.5q0 21 10 36.5t25 26t31.5 16t29.5 5.5q7 0 14 -2t12 -4v-4q-6 2 -13.5 4t-14.5 2q-12 0 -24.5 -4t-22.5 -11t-16.5 -17.5t-6.5 -22.5q0 -17 17.5 -26t44 -15t57 -11t57 -13.5t44 -22.5t17.5 -38
q0 -19 -11.5 -42t-35 -43.5t-59.5 -34.5t-85 -14q-56 0 -85.5 23.5t-29.5 56.5zM313 285q11 -3 23.5 -3t23 4.5t17.5 13t7 22.5t-10.5 27.5t-35.5 13.5q-22 0 -37 -14t-15 -34q0 -13 6 -25q16 -17 16 -43q0 -23 -12.5 -48t-35.5 -45.5t-55 -33.5t-71 -13q-52 0 -75 21.5
t-23 50.5q0 23 12.5 48t35.5 45.5t54.5 34t70.5 13.5q26 0 45 -6t31 -16q-3 7 -3 17q0 21 16.5 36.5t39.5 15.5q29 0 40.5 -17.5t11.5 -40.5q0 -21 -14 -37.5t-37 -16.5q-26 0 -26 30zM214 -125q0 19 -20.5 30.5t-50 19.5t-62 15.5t-57.5 20.5q-41 -22 -60.5 -49t-19.5 -53
q0 -32 28.5 -54t82.5 -22q35 0 64 8t49.5 21t32.5 29.5t13 33.5zM208 316q-24 0 -45.5 -15.5t-38 -38.5t-26.5 -49.5t-10 -49.5t11 -37.5t37 -14.5q25 0 47.5 15t39 37.5t26.5 48.5t10 49q0 24 -12 39.5t-39 15.5z" />
    <glyph glyph-name="h" unicode="h" horiz-adv-x="408" 
d="M-5 -1q28 102 52 186l20 72t19 66.5t15 53t9 31.5q6 21 16 31.5t20 15.5q11 5 25 5l1 3h-95l1 4h107l-73 -263q11 23 26 44t32 37t36.5 25.5t39.5 9.5q15 0 29 -5t24.5 -14.5t15 -22.5t0.5 -29l-51 -185q-3 -11 -4.5 -22.5t0 -20.5t7.5 -15t18 -6q16 0 29.5 7.5
t23.5 19.5t16.5 27.5t9.5 31.5l4 -1q-3 -16 -10 -32t-17.5 -28.5t-24.5 -20.5t-31 -8q-18 0 -34.5 5t-27.5 16t-15 27t2 39q12 42 23 81q9 33 18.5 66.5t15.5 52.5q4 13 0.5 23t-21.5 10q-22 0 -43.5 -12t-40.5 -32t-34 -45t-24 -52l-49 -176h-60z" />
    <glyph glyph-name="i" unicode="i" horiz-adv-x="214" 
d="M166 85q-3 -16 -9.5 -32t-17 -28.5t-24.5 -20.5t-31 -8q-31 0 -55 14.5t-24 46.5q0 13 4 25q10 35 20 68q8 28 16.5 57t13.5 48q6 20 15.5 30.5t19.5 15t17.5 5t9.5 0.5l1 4h-96l2 4h107l-72 -250q-5 -18 -5 -33q0 -14 5.5 -22.5t20.5 -8.5q16 0 29.5 7.5t23 19.5t16 27
t9.5 31h4zM121 500q2 14 13.5 24t25.5 10t22 -10t6 -24t-13 -23.5t-25 -9.5t-22.5 9.5t-6.5 23.5z" />
    <glyph glyph-name="j" unicode="j" horiz-adv-x="183" 
d="M-101 -177q-7 17 -22.5 31t-38.5 14q-17 0 -28 -11t-11 -32q0 -17 13 -30t42 -13q41 0 68 27t45.5 70t32 97.5t27.5 109.5l42 168q5 21 14.5 31.5t19.5 15.5t17.5 5.5t8.5 0.5l1 3h-95l1 4h107l-63 -251q-14 -56 -33 -107t-45.5 -91t-62.5 -63.5t-85 -23.5q-29 0 -44 15
t-15 32q0 23 16.5 40.5t48.5 17.5q21 0 33 -12.5t12 -27.5q0 -11 -6 -20zM121 500q2 14 13.5 24t25.5 10t22 -10t6 -24t-13 -23.5t-25 -9.5t-22.5 9.5t-6.5 23.5z" />
    <glyph glyph-name="k" unicode="k" horiz-adv-x="397" 
d="M-5 -1q28 102 52 186l20 72t18.5 66.5t15 53t9.5 31.5q6 21 16 31.5t20 15.5q11 5 25 6l1 2h-96l2 4h107l-131 -468h-59zM325 339q-8 3 -8.5 -1.5t1.5 -13.5t3.5 -20.5t-1.5 -22.5t-11 -21.5t-18 -18.5t-21 -12.5t-20 -3.5v2q15 -1 21.5 8.5t8.5 23t1.5 29.5t2.5 28
q-42 2 -76.5 -24.5t-59.5 -62.5q37 -3 58.5 -21t34 -43.5t18 -54.5t10 -53.5t10.5 -40.5t19 -16q21 0 37 12t29 31l3 -1q-12 -20 -30 -33t-41 -13q-34 0 -52.5 17t-28 43t-14 55.5t-11 55.5t-19 43t-36.5 17v3q2 0 4.5 -0.5t4.5 -0.5q12 18 27.5 35t33.5 29.5t38 19.5t42 7
q3 8 7 13q14 15 33 8v-2z" />
    <glyph glyph-name="l" unicode="l" horiz-adv-x="213" 
d="M160 129q6 -17 2.5 -40t-14.5 -43.5t-29 -35t-41 -14.5q-18 0 -35 5t-28 16t-15 27t2 39q23 78 42 144q8 28 16 56.5t15 53t12 43.5t8 28q5 19 10.5 29.5t10.5 15.5q5 6 11 8l1 2h-89l1 4h131l-115 -403q-3 -11 -4.5 -22.5t0.5 -20.5t8 -15t18 -6q22 0 39 13.5t27.5 33.5
t14 41.5t-2.5 38.5z" />
    <glyph glyph-name="m" unicode="m" horiz-adv-x="597" 
d="M461 283q4 13 0.5 23t-21.5 10q-22 0 -44.5 -13.5t-42 -34.5t-35 -48t-23.5 -54l-51 -167h-59q19 66 37 123q7 24 14.5 49t14.5 46.5t12.5 39t8.5 26.5q4 13 0.5 23t-22.5 10q-22 0 -44.5 -13t-42 -34t-35 -47.5t-24.5 -53.5l-48 -169h-60q16 58 31 109q6 22 12.5 44
t12 42t10 36t7.5 25q6 21 16 31t21 15t25 5l1 4h-96l1 4h108l-31 -110q11 23 26.5 44t33.5 37t37 25.5t39 9.5q15 0 29.5 -5t25 -14.5t15 -22.5t-0.5 -29l-13 -42q12 22 27 42.5t32 36.5t36 25t39 9q15 0 29.5 -5t24.5 -14.5t14.5 -22.5t-0.5 -29l-54 -185q-3 -11 -5 -22.5
t0 -20.5t7.5 -15t17.5 -6q16 0 30 7.5t24 20t16.5 28t9.5 30.5l4 -1q-3 -16 -10 -32t-17.5 -28.5t-25 -20.5t-31.5 -8q-18 0 -34.5 5t-27.5 16t-15 27t3 39q13 42 24 81q10 33 20.5 66.5t16.5 52.5z" />
    <glyph glyph-name="n" unicode="n" horiz-adv-x="409" 
d="M-3 -1q16 58 31 109q6 22 12.5 44t12 42t10 36t7.5 25q6 21 16 31t21 15t25 5l1 4h-96l1 4h108l-31 -110q11 23 26 44t32.5 37t37 25.5t39.5 9.5q15 0 29.5 -5t24.5 -14.5t14.5 -22.5t-0.5 -29l-54 -185q-3 -11 -5 -22.5t-0.5 -20.5t7.5 -15t18 -6q16 0 29.5 8t24 20.5
t17.5 27.5t9 30l4 -1q-3 -16 -10 -32t-17.5 -28.5t-25 -20.5t-31.5 -8q-18 0 -34.5 5t-27.5 16t-15 27t3 39q13 42 24 81q10 33 20.5 66.5t16.5 52.5q4 13 0.5 23t-21.5 10q-23 0 -45 -13t-41.5 -34t-34.5 -47.5t-24 -53.5l-48 -169h-60z" />
    <glyph glyph-name="o" unicode="o" 
d="M196 320q56 0 82 -32t26 -77q0 -35 -14.5 -73t-40 -69.5t-61.5 -52t-79 -20.5q-28 0 -48 8.5t-33 23.5t-19 34.5t-6 41.5q0 35 14 73.5t39.5 70t61 52t78.5 20.5zM196 316q-26 0 -51 -24.5t-44 -60.5t-30.5 -78t-11.5 -77q0 -33 12 -54.5t39 -21.5q28 0 53.5 23.5t45 59
t31 77t11.5 76.5t-13 57.5t-42 22.5z" />
    <glyph glyph-name="p" unicode="p" horiz-adv-x="365" 
d="M125 252q19 29 47.5 47.5t54.5 18.5t44.5 -8.5t30.5 -23.5t17.5 -34.5t5.5 -41.5q0 -35 -13 -73.5t-36.5 -70t-56 -52t-71.5 -20.5q-33 0 -52 24.5t-19 65.5q-9 -32 -17.5 -62.5t-15 -55t-11 -41t-5.5 -20.5q-6 -21 -16 -31.5t-19.5 -15.5t-16.5 -5.5t-8 -0.5l-1 -3h129
l-2 -4h-142l115 409q6 21 16 31.5t20 15t17.5 5l7.5 0.5l1 4h-95l1 4h108zM121 237q-7 -24 -17.5 -59.5t-22.5 -77.5q-1 -5 -1 -14q0 -36 15.5 -60t44.5 -28t54.5 19t44 59t29.5 78t11 77t-11.5 59t-40.5 24q-27 0 -58 -21t-48 -56z" />
    <glyph glyph-name="q" unicode="q" horiz-adv-x="368" 
d="M333 314q-28 -102 -52 -186l-20 -72t-18.5 -66.5t-14.5 -53t-9 -31.5q-6 -22 -16.5 -32.5t-20.5 -15.5q-12 -5 -25 -5l-1 -3h97l-1 -4h-109l72 255q-11 -21 -25 -40t-30 -33.5t-33 -23t-32 -8.5q-51 0 -73 27.5t-21 68.5q0 36 16 75.5t42.5 73.5t62 56t75.5 22
q19 0 30.5 -8.5t17.5 -21t7 -28.5t0 -31q5 18 9 33.5t7 26.5q4 13 7 25h58zM95 -1q16 0 35 11t36.5 29t32 41t23.5 46l23 82q3 16 4 34.5t-3.5 34.5t-16 26.5t-32.5 10.5q-26 0 -52 -26t-46 -64t-33 -81.5t-13 -77.5q0 -29 9.5 -47.5t32.5 -18.5z" />
    <glyph glyph-name="r" unicode="r" horiz-adv-x="316" 
d="M-4 -2q16 58 31 109q6 22 12.5 44t12 42t10 36t7.5 25q6 21 15.5 31.5t19 15.5t16.5 5.5t9 0.5l1 3h-93l1 4h107l-30 -106q21 45 54.5 77.5t71.5 32.5q27 0 38 -15t11 -35q0 -34 -21 -58t-50 -24q-21 0 -29 11t-8 24q0 2 0.5 4t0.5 4q10 -2 16 -2q16 0 29 6t22.5 15
t14.5 20t5 21q0 25 -29 25q-22 0 -43 -12.5t-39 -33.5t-32.5 -47.5t-22.5 -53.5l-48 -169h-60z" />
    <glyph glyph-name="s" unicode="s" horiz-adv-x="283" 
d="M110 85l-1 6.5t-6 14.5t-15 14.5t-29 6.5q-27 0 -43 -20.5t-17 -44.5t15.5 -44.5t54.5 -20.5q41 0 62 21.5t21 53.5q0 22 -14.5 40t-32.5 35t-32.5 34.5t-14.5 38.5q0 20 10 38t28 32t41.5 22t50.5 8q31 0 47 -17.5t16.5 -38t-15 -38t-47.5 -17.5q-17 0 -25 7.5t-8 15.5
q0 9 6 15q16 -8 32 -8q24 0 36 12t11 26.5t-14.5 26.5t-38.5 12q-35 0 -56.5 -20t-21.5 -44q0 -21 14.5 -39.5t32.5 -37t32.5 -37t14.5 -39.5q0 -20 -9.5 -39t-26.5 -34t-42.5 -24t-56.5 -9q-41 0 -58.5 22.5t-15.5 50.5t23 51t59 23q21 0 34 -9.5t13 -23.5q0 -15 -14 -22z
" />
    <glyph glyph-name="t" unicode="t" horiz-adv-x="218" 
d="M207 310h-73l-71 -246q-3 -11 -4.5 -22.5t0.5 -20.5t8 -15t18 -6q16 0 29.5 8t24 20.5t17 27.5t8.5 30l3 -1q-3 -16 -9.5 -32t-17 -28.5t-24.5 -20.5t-31 -8q-18 0 -34.5 5t-28 16t-15.5 27t2 39q13 45 25 87q11 36 21.5 75t18.5 65h-27l1 4h27q2 5 3 10t3 9
q7 22 19 33.5t24.5 20t24 18t17.5 27.5h3l-34 -118h73z" />
    <glyph glyph-name="u" unicode="u" horiz-adv-x="390" 
d="M6 82q10 34 20 67q8 28 16.5 57t13.5 48q6 21 16 32t20 16q11 5 25 5l1 3h-95l1 4h108l-81 -281q-4 -13 -0.5 -23.5t21.5 -10.5q23 0 45.5 13.5t42 35.5t34.5 50t23 56q6 21 13 44.5t13 45.5t11.5 40.5t8.5 29.5h59l-72 -251q-3 -11 -4 -22.5t0.5 -20.5t7.5 -15t18 -6
q16 0 29.5 7.5t23 19.5t16 27.5t9.5 31.5h4q-3 -16 -9.5 -32t-17 -29t-24.5 -21t-31 -8q-18 0 -34.5 5t-28 16t-15.5 27t2 39q0 1 1 5l5 15q-23 -44 -57.5 -75.5t-72.5 -31.5q-15 0 -29 6t-24 17.5t-14.5 27.5t1.5 36z" />
    <glyph glyph-name="v" unicode="v" horiz-adv-x="315" 
d="M180 289q7 17 16.5 27t27.5 10q16 0 26.5 -9.5t17 -23t9 -29.5t2.5 -29q0 -44 -24 -87t-65.5 -76.5t-96.5 -54.5t-117 -21l1 2h1v1h8q25 5 40 36t15 77q0 26 -5 47t-5 46q0 24 10 44t26.5 35t37 24t42.5 12q0 -1 2 -3q-26 -4 -39 -24.5t-17 -40.5q-3 -17 -3 -32
q0 -23 4 -44.5t4 -46.5q0 -16 -3.5 -35.5t-12.5 -37.5t-25 -33t-40 -22q54 7 100 29t80 53.5t54.5 68t23.5 72.5q0 29 -16 49t-44 20q-17 0 -34 -7z" />
    <glyph glyph-name="w" unicode="w" horiz-adv-x="513" 
d="M380 289q6 16 15.5 26.5t28.5 10.5q18 0 29.5 -11t18 -27t8 -35t0.5 -34q-5 -42 -31 -82.5t-67 -72t-94.5 -50.5t-114.5 -19l3 3h10q25 5 37 29.5t17 61.5q2 20 1 35t-3 29q-15 -33 -39.5 -61.5t-58 -50t-75 -34t-89.5 -12.5l2 3q29 0 43 24.5t19 65.5q3 22 0.5 38.5
t-5.5 32t-5.5 31t0.5 34.5q3 20 14 37t27 29t34.5 20t36.5 10q2 -2 2 -3q-12 -2 -22 -9.5t-17.5 -18t-12 -22.5t-5.5 -24q-2 -18 0.5 -34t5.5 -32t5.5 -32.5t-0.5 -37.5q-2 -16 -7.5 -32.5t-15 -31t-24 -26t-35.5 -17.5q42 5 77 20.5t63 38t48 49.5t32 56q-2 14 -2.5 28
t1.5 31q3 20 13.5 37t26.5 29.5t35 20.5t37 10q2 -2 2 -3q-23 -4 -39.5 -26.5t-18.5 -46.5q-2 -19 0 -35t4.5 -31.5t4.5 -33t-1 -38.5q-2 -15 -7.5 -31.5t-15 -30.5t-24 -25.5t-35.5 -17.5q52 6 97 27.5t79 51.5t55 65t26 70q5 34 -11 56t-48 22q-16 0 -33 -7z" />
    <glyph glyph-name="x" unicode="x" horiz-adv-x="422" 
d="M340 316q25 0 44 -13.5t19 -42.5q0 -23 -17.5 -43t-52.5 -30l-2 3q19 8 31 32.5t12 48.5q0 17 -8 29t-26 12q-16 0 -31.5 -12t-29.5 -32t-26 -46t-20 -54h98l-1 -4h-98q-8 -26 -12 -50.5t-4 -46.5q0 -30 9.5 -49t30.5 -19q18 0 34.5 8t29 21.5t22 29.5t14.5 33q2 -2 4 -2
q-5 -17 -15 -33.5t-23.5 -30t-30 -22t-35.5 -8.5q-36 0 -56.5 17t-28.5 44q-23 -27 -50.5 -44t-59.5 -17q-36 0 -53.5 19t-17.5 42q0 13 5.5 27.5t17 26.5t28 20t38.5 8q26 0 40 -16t14 -33q0 -13 -9 -22q-8 17 -25.5 30.5t-43.5 13.5q-32 0 -46.5 -16t-14.5 -39
q0 -22 16 -39.5t51 -17.5q20 0 38 14.5t33 37.5t27 53t19 60h-100l2 4h99q8 37 8 68q0 33 -9.5 54.5t-32.5 21.5q-18 0 -35 -8.5t-30.5 -22t-24 -30t-15.5 -33.5l-3 2q6 17 16.5 34.5t24.5 31t31 22t36 8.5q35 0 55 -17t28 -45q23 28 51.5 45t60.5 17z" />
    <glyph glyph-name="y" unicode="y" horiz-adv-x="365" 
d="M317 315q-23 0 -49 -21.5t-52.5 -58t-52 -84t-48.5 -99.5q-14 -51 -38.5 -100t-58.5 -87.5t-77 -62.5t-94 -24q-32 0 -47 15t-15 32q0 23 16.5 40.5t48.5 17.5q21 0 33 -12.5t12 -27.5q0 -11 -6 -20q-7 17 -22.5 31t-38.5 14q-17 0 -28 -11t-11 -32q0 -17 13.5 -30
t43.5 -13q60 0 102.5 39.5t69 99t38.5 129t11.5 129t-12.5 99t-33 39.5h-8l2 3h6q37 0 61 -20.5t36 -54.5t12 -78t-10 -91q22 49 46.5 93.5t50 77.5t51 52.5t48.5 19.5q16 0 26 -5t16 -12.5t8 -16.5t2 -18q0 -23 -14.5 -40t-34.5 -17q-15 0 -20.5 8t-5.5 17q0 2 0.5 3t0.5 2
q3 -1 11 -1q23 0 37 13t14 30q0 9 -7 21t-33 12z" />
    <glyph glyph-name="z" unicode="z" horiz-adv-x="363" 
d="M224 165q44 0 62.5 -21t17.5 -49q-1 -18 -9 -36t-21.5 -32.5t-31.5 -23.5t-40 -9q-21 0 -40.5 4.5t-38 9.5t-38 9.5t-41.5 4.5q-21 0 -38.5 -14t-22.5 -40l-3 3q3 15 10 32t18 32t25.5 25t31.5 12l209 185q-12 -5 -28 -5t-37.5 2.5t-44.5 5t-44.5 5t-37.5 2.5
q-6 0 -10 -0.5t-8 -1.5l-24 -79h-4l37 128q12 3 30 3q21 0 46.5 -3t52 -6t51.5 -6t44 -3q20 0 29 4l27 24l4 -2l-286 -253q22 0 43 -6.5t41.5 -13.5t41.5 -13t44 -6q28 0 43 19.5t16 42.5q1 20 -9.5 37t-35.5 17q-26 0 -44 -13.5t-26 -30.5q-10 8 -8 20q0 14 12.5 27
t34.5 13z" />
    <glyph glyph-name="braceleft" unicode="{" horiz-adv-x="275" 
d="M423 613q-5 3 -14.5 4.5t-15.5 1.5q-31 0 -55 -9.5t-42 -26t-29.5 -37.5t-17.5 -43l-49 -188q-8 -33 -34.5 -53.5t-59.5 -20.5h-81l-2 -8h82q37 0 48 -22.5t4 -50.5l-70 -286q-8 -34 -2.5 -56t18 -34.5t28.5 -17t28 -4.5q23 0 41 8.5t24 13.5l1 -4q-4 -3 -22 -12.5
t-43 -9.5q-21 0 -38 7.5t-28 22.5t-14.5 36.5t3.5 49.5l70 286q8 34 -5.5 51.5t-42.5 17.5h-87l4 16h84q32 0 57 19t33 51l49 188q15 58 55 89t93 31q7 0 15.5 -1t15.5 -4z" />
    <glyph glyph-name="bar" unicode="|" horiz-adv-x="195" 
d="M176 669h5l-170 -782h-5z" />
    <glyph glyph-name="braceright" unicode="}" horiz-adv-x="356" 
d="M60 618q8 3 17 4t16 1q53 0 78 -31t14 -89l-41 -188q-7 -32 7 -51t46 -19h87l-2 -16h-87q-29 0 -51.5 -17.5t-30.5 -51.5l-65 -286q-6 -29 -20 -51t-32 -36.5t-38.5 -21.5t-41.5 -7q-25 0 -39.5 9.5t-16.5 12.5l3 4q5 -5 19 -13.5t37 -8.5q12 0 30 5.5t37 18t34.5 34
t23.5 54.5l65 286q7 29 28.5 51t57.5 22h83l1 8h-82q-33 0 -48.5 20.5t-8.5 53.5l41 188q4 22 2 43t-12 37.5t-29.5 26t-50.5 9.5q-6 0 -15.5 -1.5t-16.5 -4.5z" />
    <glyph glyph-name="asciitilde" unicode="~" horiz-adv-x="642" 
d="M15 203q2 24 19 41t40.5 28t49.5 16t46 5q34 0 61.5 -11t51 -27.5t44 -36t40 -36t39 -27.5t42.5 -11q24 0 47 11t41 28t30 38t14 41q2 23 -6.5 45t-28.5 39q6 10 16.5 17t23.5 7q22 0 30.5 -19t6.5 -39q-3 -26 -19.5 -57.5t-45 -59t-69 -46.5t-92.5 -19q-37 0 -64.5 11.5
t-49.5 29t-39.5 37.5t-34 37.5t-33.5 29t-37 11.5q-19 0 -32.5 -7t-23 -18.5t-14.5 -25t-6 -25.5q-2 -20 2.5 -32t12.5 -12l-3 -3q-9 -9 -24 -9q-14 0 -25.5 11.5t-9.5 37.5z" />
    <glyph glyph-name="exclamdown" unicode="&#xa1;" horiz-adv-x="259" 
d="M200 244q-2 -18 -14 -29t-27 -11q-13 0 -21 8.5t-8 21.5q0 17 11.5 29t28.5 12q14 0 22 -8.5t8 -22.5zM38 -354q-4 -18 -16 -26.5t-26 -8.5t-20 10.5t-1 24.5l162 496h5z" />
    <glyph glyph-name="cent" unicode="&#xa2;" horiz-adv-x="291" 
d="M228 89q-12 -34 -42 -62t-71 -31l-58 -227h-5l58 226h-4q-50 0 -74.5 24t-28.5 60t10.5 78t42 78t66 60t83.5 24q27 0 44 -18.5t17 -42.5q0 -17 -6 -28.5t-16 -19t-21.5 -11t-21.5 -3.5q-14 0 -22 5t-4 17h-2l-57 -218q38 4 67.5 31.5t40.5 60.5zM187 273l-11 -41
q0 -9 10 -9q18 0 31.5 14.5t18 31.5t-2.5 31.5t-28 14.5q-26 0 -51.5 -23.5t-45.5 -58.5t-33 -76t-15 -76t8.5 -58.5t37.5 -23.5h5l71 274h5z" />
    <glyph glyph-name="sterling" unicode="&#xa3;" horiz-adv-x="687" 
d="M583 514q0 -28 -12 -54.5t-31.5 -47t-44.5 -33t-50 -12.5q-38 0 -64 18h-85l-19 -67q-11 -39 -22.5 -79t-24.5 -75t-28 -61.5t-31 -39.5q-20 -16 -31 -17t-13 -5q-1 -1 -1 -3q7 0 13.5 0.5t14.5 0.5q51 0 89 -17.5t70.5 -38t63.5 -38t70 -17.5q36 0 62.5 17t43 44t23 60
t2 64.5t-20.5 59t-44 42.5l3 5q50 0 77 -22t34.5 -55t-3 -71.5t-34.5 -71.5t-60.5 -55t-80.5 -22q-47 0 -88.5 9.5t-81 21.5t-80.5 21.5t-87 9.5q-65 0 -108.5 -14t-68.5 -46l-2 4q24 37 65.5 66.5t103.5 39.5q13 16 26.5 40t27.5 57.5t29 78t33 103.5l21 71h-104v4h105
l20 66q14 48 38.5 79.5t54.5 50t63 25.5t63 7q43 0 73.5 -27.5t30.5 -75.5zM297 389h78q-14 12 -21 27.5t-7 31.5t7 30t20 23q14 10 29 3q-10 -19 -12.5 -42t2.5 -43t18.5 -33.5t35.5 -13.5q24 0 47.5 12t42 31.5t30 45.5t11.5 53q0 45 -29 72t-71 27q-20 0 -42 -5.5
t-44 -22t-41.5 -47t-33.5 -80.5z" />
    <glyph glyph-name="currency" unicode="&#xa4;" horiz-adv-x="477" 
d="M250 172q4 -7 4 -16q0 -13 -12 -22.5t-32 -9.5q-7 0 -12 1l-10 2q-8 -6 -18 -6t-18 4q0 -30 -15 -55.5t-39 -25.5q-15 0 -21.5 6.5t-6.5 14.5q0 12 9.5 23t23.5 11q8 0 15 -5l-1 -1q-3 1 -8 1q-14 0 -14 -10q0 -11 15 -11q7 0 13.5 5.5t11.5 13.5t8.5 17.5t3.5 17.5
q-6 3 -12.5 5.5t-12.5 2.5q-9 0 -17 -4.5t-8 -14.5q0 -6 1 -8t2 -3l-2 -3q-28 0 -28 28q0 14 9 26.5t28 12.5q12 0 20 -6t14.5 -13t13 -13t15.5 -6q3 0 5 1q-10 5 -17 13t-12 16l-10 16t-10 14q-14 -14 -25 -14q-12 0 -12 12q0 6 5.5 12t19.5 6h11q8 14 13 31.5t5 31.5
q0 5 -1 10t-6 5q-10 0 -15.5 -11.5t-5.5 -24.5q0 -20 13 -24v-3q-2 0 -2.5 0.5t-1.5 0.5q-6 0 -14.5 -3t-17.5 -7t-18.5 -7t-17.5 -3q-15 0 -25 9.5t-10 23.5q0 9 6 15.5t14 6.5q2 0 4 -0.5t7 -2.5l1 -4q-7 -2 -7 -10t7.5 -15t19.5 -7t23 4t22 4q-6 7 -6 23q0 19 9.5 37.5
t29.5 18.5q11 0 17 -7.5t6 -18.5q0 -17 -11 -39t-26 -39q9 -6 17 -14.5t16.5 -16.5t18.5 -14t23 -6q30 0 35 21h3zM254 39q6 0 11.5 -4.5t5.5 -14.5q0 -12 -11 -21t-22 -9q-14 0 -29.5 11.5t-28.5 19.5q-10 -15 -22 -15q-15 0 -15 11t10 16t19 3q4 11 6.5 20.5t2.5 11.5
q-2 -8 -7 -15.5t-13 -7.5q-2 0 -5.5 3t-3.5 9q0 14 5.5 24.5t5.5 24.5q0 5 -2 9q0 2 7 2q6 0 8.5 -4.5t2.5 -7.5v-3q-1 -2 -1.5 -7.5t-2.5 -12.5q-2 -8 -4 -17v-2q0 -2 2 -2t4 5t4 12t3.5 14.5t1.5 12.5v4q4 3 7 3q11 0 11 -12q0 -6 -2 -15.5t-6 -25.5q-3 -14 -10 -28
q11 -5 20.5 -13t20.5 -8t17.5 5.5t6.5 13.5q0 3 -5 7l3 3h5zM331 165q6 -8 6 -16q0 -9 -7.5 -18.5t-24.5 -9.5q-18 0 -29 12t-11 27q0 5 1 10.5t3 12.5q-2 -1 -6 -1q-9 0 -9 11q0 8 4.5 21.5t4.5 21.5q0 5 -2 5l1 6q2 0 4 0.5t5 0.5q10 0 10 -13q2 3 5 8t10 5q8 0 10.5 -5
t2.5 -13q0 -13 -9 -29.5t-10 -30.5q0 -8 4 -15t15 -7q15 0 21 16zM413 124q7 0 11.5 -7t4.5 -15q0 -14 -9.5 -23t-22.5 -9q-9 0 -18.5 3t-18.5 6t-17 6t-13 3q0 -9 1.5 -21t1.5 -26q0 -17 -7 -32t-24 -15q-19 0 -21 15l2 2q2 -1 4.5 -2t4.5 -1q11 0 14.5 11.5t3.5 25.5v32
q0 15 6.5 25t16.5 10q5 0 7.5 -3.5t2.5 -6.5q0 -4 -2 -6l-3 -3q11 -1 20.5 -4.5t20.5 -3.5q13 0 20.5 7t7.5 15q0 9 -8 9l2 5q4 3 12 3zM214 95q0 7 -4 4v4q2 3 5.5 6t8.5 3q10 0 10 -9q0 -2 -1 -4h1q2 5 6 8.5t9 3.5q12 0 12 -18q0 -5 -2 -13t-5.5 -15.5t-8.5 -13t-11 -5.5
q-10 0 -10 14q0 5 1 9h-1q0 -4 -2.5 -16t-2.5 -22q0 -6 1 -9q-6 -2 -9 -2q-10 0 -10 11q0 6 2 15t4.5 18.5t4.5 17.5t2 13zM209 182q-13 0 -13 16q0 23 12 36t20 13q10 0 10 -11h1q3 4 1 11q3 1 8 1q8 0 8 -10q0 -9 -5 -23t-5 -22q0 -5 1 -6l-1 -5h-4q-11 0 -11 11q0 6 3 11
h-1q-4 -8 -9.5 -15t-14.5 -7zM305 74q-3 -11 -8.5 -19.5t-17.5 -8.5q-9 0 -13 6.5t-4 15.5q0 14 8.5 28.5t20.5 14.5q15 0 15 -16q0 -8 -5.5 -14.5t-17.5 -8.5q4 -4 7 -4q9 0 11 8zM174 238q4 10 15 10q9 0 9 -10q0 -12 -6 -24t-6 -23q0 -4 1 -4q0 -1 1 0l-2 -5h-5
q-6 0 -8.5 3.5t-2.5 8.5q0 10 4.5 18.5t4.5 19.5q0 4 -2 4q-1 0 -2 -1zM241 250q-9 1 -9 10q0 8 4.5 13.5t11.5 5.5q9 0 9 -9q0 -6 -5 -9q-1 2 -4 2q-7 0 -7 -7q0 -1 2 -3zM289 229q0 8 -5 6q-2 -1 -7 -12.5t-5 -34.5q5 11 11 22.5t6 18.5zM208 267q-2 -5 -6 -8.5t-11 -3.5
h-3l-2 1q2 1 2.5 4.5t1.5 7.5t3 7t7 3q8 0 8 -9v-2zM240 100q-5 0 -8 -8t-3 -13q0 -7 4 -7t7.5 7.5t3.5 13.5q0 7 -4 7zM100 182q11 0 19 15q-3 1 -8 1q-8 0 -13 -3.5t-5 -7.5q0 -5 7 -5zM234 236q-4 0 -7 -8.5t-3 -14.5v-3q0 -2 2 -2q3 0 5.5 4.5t4 9.5t1.5 9.5t-3 4.5z
M291 105q-5 0 -7.5 -9t-2.5 -17q6 3 9.5 10t3.5 12q0 4 -3 4zM155 12q7 0 14 16q-19 0 -19 -11q0 -5 5 -5zM332 93q7 0 7 9q0 2 -1.5 3.5t-3.5 0.5q-4 -1 -4 -13h2z" />
    <glyph glyph-name="yen" unicode="&#xa5;" horiz-adv-x="477" 
d="M250 172q4 -7 4 -16q0 -13 -12 -22.5t-32 -9.5q-7 0 -12 1l-10 2q-8 -6 -18 -6t-18 4q0 -30 -15 -55.5t-39 -25.5q-15 0 -21.5 6.5t-6.5 14.5q0 12 9.5 23t23.5 11q8 0 15 -5l-1 -1q-3 1 -8 1q-14 0 -14 -10q0 -11 15 -11q7 0 13.5 5.5t11.5 13.5t8.5 17.5t3.5 17.5
q-6 3 -12.5 5.5t-12.5 2.5q-9 0 -17 -4.5t-8 -14.5q0 -6 1 -8t2 -3l-2 -3q-28 0 -28 28q0 14 9 26.5t28 12.5q12 0 20 -6t14.5 -13t13 -13t15.5 -6q3 0 5 1q-10 5 -17 13t-12 16l-10 16t-10 14q-14 -14 -25 -14q-12 0 -12 12q0 6 5.5 12t19.5 6h11q8 14 13 31.5t5 31.5
q0 5 -1 10t-6 5q-10 0 -15.5 -11.5t-5.5 -24.5q0 -20 13 -24v-3q-2 0 -2.5 0.5t-1.5 0.5q-6 0 -14.5 -3t-17.5 -7t-18.5 -7t-17.5 -3q-15 0 -25 9.5t-10 23.5q0 9 6 15.5t14 6.5q2 0 4 -0.5t7 -2.5l1 -4q-7 -2 -7 -10t7.5 -15t19.5 -7t23 4t22 4q-6 7 -6 23q0 19 9.5 37.5
t29.5 18.5q11 0 17 -7.5t6 -18.5q0 -17 -11 -39t-26 -39q9 -6 17 -14.5t16.5 -16.5t18.5 -14t23 -6q30 0 35 21h3zM254 39q6 0 11.5 -4.5t5.5 -14.5q0 -12 -11 -21t-22 -9q-14 0 -29.5 11.5t-28.5 19.5q-10 -15 -22 -15q-15 0 -15 11t10 16t19 3q4 11 6.5 20.5t2.5 11.5
q-2 -8 -7 -15.5t-13 -7.5q-2 0 -5.5 3t-3.5 9q0 14 5.5 24.5t5.5 24.5q0 5 -2 9q0 2 7 2q6 0 8.5 -4.5t2.5 -7.5v-3q-1 -2 -1.5 -7.5t-2.5 -12.5q-2 -8 -4 -17v-2q0 -2 2 -2t4 5t4 12t3.5 14.5t1.5 12.5v4q4 3 7 3q11 0 11 -12q0 -6 -2 -15.5t-6 -25.5q-3 -14 -10 -28
q11 -5 20.5 -13t20.5 -8t17.5 5.5t6.5 13.5q0 3 -5 7l3 3h5zM331 165q6 -8 6 -16q0 -9 -7.5 -18.5t-24.5 -9.5q-18 0 -29 12t-11 27q0 5 1 10.5t3 12.5q-2 -1 -6 -1q-9 0 -9 11q0 8 4.5 21.5t4.5 21.5q0 5 -2 5l1 6q2 0 4 0.5t5 0.5q10 0 10 -13q2 3 5 8t10 5q8 0 10.5 -5
t2.5 -13q0 -13 -9 -29.5t-10 -30.5q0 -8 4 -15t15 -7q15 0 21 16zM413 124q7 0 11.5 -7t4.5 -15q0 -14 -9.5 -23t-22.5 -9q-9 0 -18.5 3t-18.5 6t-17 6t-13 3q0 -9 1.5 -21t1.5 -26q0 -17 -7 -32t-24 -15q-19 0 -21 15l2 2q2 -1 4.5 -2t4.5 -1q11 0 14.5 11.5t3.5 25.5v32
q0 15 6.5 25t16.5 10q5 0 7.5 -3.5t2.5 -6.5q0 -4 -2 -6l-3 -3q11 -1 20.5 -4.5t20.5 -3.5q13 0 20.5 7t7.5 15q0 9 -8 9l2 5q4 3 12 3zM214 95q0 7 -4 4v4q2 3 5.5 6t8.5 3q10 0 10 -9q0 -2 -1 -4h1q2 5 6 8.5t9 3.5q12 0 12 -18q0 -5 -2 -13t-5.5 -15.5t-8.5 -13t-11 -5.5
q-10 0 -10 14q0 5 1 9h-1q0 -4 -2.5 -16t-2.5 -22q0 -6 1 -9q-6 -2 -9 -2q-10 0 -10 11q0 6 2 15t4.5 18.5t4.5 17.5t2 13zM209 182q-13 0 -13 16q0 23 12 36t20 13q10 0 10 -11h1q3 4 1 11q3 1 8 1q8 0 8 -10q0 -9 -5 -23t-5 -22q0 -5 1 -6l-1 -5h-4q-11 0 -11 11q0 6 3 11
h-1q-4 -8 -9.5 -15t-14.5 -7zM305 74q-3 -11 -8.5 -19.5t-17.5 -8.5q-9 0 -13 6.5t-4 15.5q0 14 8.5 28.5t20.5 14.5q15 0 15 -16q0 -8 -5.5 -14.5t-17.5 -8.5q4 -4 7 -4q9 0 11 8zM174 238q4 10 15 10q9 0 9 -10q0 -12 -6 -24t-6 -23q0 -4 1 -4q0 -1 1 0l-2 -5h-5
q-6 0 -8.5 3.5t-2.5 8.5q0 10 4.5 18.5t4.5 19.5q0 4 -2 4q-1 0 -2 -1zM241 250q-9 1 -9 10q0 8 4.5 13.5t11.5 5.5q9 0 9 -9q0 -6 -5 -9q-1 2 -4 2q-7 0 -7 -7q0 -1 2 -3zM289 229q0 8 -5 6q-2 -1 -7 -12.5t-5 -34.5q5 11 11 22.5t6 18.5zM208 267q-2 -5 -6 -8.5t-11 -3.5
h-3l-2 1q2 1 2.5 4.5t1.5 7.5t3 7t7 3q8 0 8 -9v-2zM240 100q-5 0 -8 -8t-3 -13q0 -7 4 -7t7.5 7.5t3.5 13.5q0 7 -4 7zM100 182q11 0 19 15q-3 1 -8 1q-8 0 -13 -3.5t-5 -7.5q0 -5 7 -5zM234 236q-4 0 -7 -8.5t-3 -14.5v-3q0 -2 2 -2q3 0 5.5 4.5t4 9.5t1.5 9.5t-3 4.5z
M291 105q-5 0 -7.5 -9t-2.5 -17q6 3 9.5 10t3.5 12q0 4 -3 4zM155 12q7 0 14 16q-19 0 -19 -11q0 -5 5 -5zM332 93q7 0 7 9q0 2 -1.5 3.5t-3.5 0.5q-4 -1 -4 -13h2z" />
    <glyph glyph-name="brokenbar" unicode="&#xa6;" horiz-adv-x="195" 
d="M108 357l68 312h5l-68 -312h-5zM92 258l-81 -371h-5l81 371h5z" />
    <glyph glyph-name="section" unicode="&#xa7;" horiz-adv-x="499" 
d="M392 160q0 -38 -17 -69t-45 -54q8 -27 8 -52q0 -39 -19 -71.5t-49 -55t-67.5 -35t-74.5 -12.5q-42 0 -74 12.5t-53.5 33t-32 45.5t-10.5 50q0 22 7.5 45t22.5 42t37 30.5t51 11.5q20 0 36 -4l2 -3q-28 -6 -49 -21.5t-35 -36.5t-21 -45t-7 -47q0 -21 9 -41t25.5 -35
t39.5 -24t52 -9q34 0 62 11.5t48 31t31 46t11 56.5q0 45 -23.5 87t-51.5 82t-51.5 79.5t-23.5 80.5q0 34 17.5 65.5t49.5 52.5q-13 31 -13 57t11 51.5t31.5 46t50 33t66.5 12.5q36 0 61 -10t41 -24.5t23.5 -31t7.5 -30.5q0 -20 -8 -39.5t-23.5 -34.5t-37.5 -24.5t-49 -9.5
l-6 3q34 6 55.5 37t21.5 71q0 16 -3.5 32t-12.5 28.5t-25.5 20.5t-43.5 8q-21 0 -40.5 -6t-34.5 -18t-23.5 -30.5t-8.5 -42.5q0 -42 24 -81.5t53.5 -81t53.5 -86.5t24 -97zM348 115q0 36 -17 72t-41 72t-49 71t-41 69q-11 -11 -17 -24t-6 -33q0 -35 18.5 -70t43.5 -71.5
t50 -74.5t38 -79q10 11 15.5 25t5.5 43z" />
    <glyph glyph-name="dieresis" unicode="&#xa8;" horiz-adv-x="207" 
d="M26 432q3 14 13 23t23 9q14 0 22 -9t5 -23q-2 -14 -12.5 -22.5t-24.5 -8.5t-21 8.5t-5 22.5zM162 432q3 14 13 23t23 9q14 0 22 -9t5 -23q-2 -14 -12.5 -22.5t-24.5 -8.5t-21 8.5t-5 22.5z" />
    <glyph glyph-name="copyright" unicode="&#xa9;" horiz-adv-x="477" 
d="M250 172q4 -7 4 -16q0 -13 -12 -22.5t-32 -9.5q-7 0 -12 1l-10 2q-8 -6 -18 -6t-18 4q0 -30 -15 -55.5t-39 -25.5q-15 0 -21.5 6.5t-6.5 14.5q0 12 9.5 23t23.5 11q8 0 15 -5l-1 -1q-3 1 -8 1q-14 0 -14 -10q0 -11 15 -11q7 0 13.5 5.5t11.5 13.5t8.5 17.5t3.5 17.5
q-6 3 -12.5 5.5t-12.5 2.5q-9 0 -17 -4.5t-8 -14.5q0 -6 1 -8t2 -3l-2 -3q-28 0 -28 28q0 14 9 26.5t28 12.5q12 0 20 -6t14.5 -13t13 -13t15.5 -6q3 0 5 1q-10 5 -17 13t-12 16l-10 16t-10 14q-14 -14 -25 -14q-12 0 -12 12q0 6 5.5 12t19.5 6h11q8 14 13 31.5t5 31.5
q0 5 -1 10t-6 5q-10 0 -15.5 -11.5t-5.5 -24.5q0 -20 13 -24v-3q-2 0 -2.5 0.5t-1.5 0.5q-6 0 -14.5 -3t-17.5 -7t-18.5 -7t-17.5 -3q-15 0 -25 9.5t-10 23.5q0 9 6 15.5t14 6.5q2 0 4 -0.5t7 -2.5l1 -4q-7 -2 -7 -10t7.5 -15t19.5 -7t23 4t22 4q-6 7 -6 23q0 19 9.5 37.5
t29.5 18.5q11 0 17 -7.5t6 -18.5q0 -17 -11 -39t-26 -39q9 -6 17 -14.5t16.5 -16.5t18.5 -14t23 -6q30 0 35 21h3zM254 39q6 0 11.5 -4.5t5.5 -14.5q0 -12 -11 -21t-22 -9q-14 0 -29.5 11.5t-28.5 19.5q-10 -15 -22 -15q-15 0 -15 11t10 16t19 3q4 11 6.5 20.5t2.5 11.5
q-2 -8 -7 -15.5t-13 -7.5q-2 0 -5.5 3t-3.5 9q0 14 5.5 24.5t5.5 24.5q0 5 -2 9q0 2 7 2q6 0 8.5 -4.5t2.5 -7.5v-3q-1 -2 -1.5 -7.5t-2.5 -12.5q-2 -8 -4 -17v-2q0 -2 2 -2t4 5t4 12t3.5 14.5t1.5 12.5v4q4 3 7 3q11 0 11 -12q0 -6 -2 -15.5t-6 -25.5q-3 -14 -10 -28
q11 -5 20.5 -13t20.5 -8t17.5 5.5t6.5 13.5q0 3 -5 7l3 3h5zM331 165q6 -8 6 -16q0 -9 -7.5 -18.5t-24.5 -9.5q-18 0 -29 12t-11 27q0 5 1 10.5t3 12.5q-2 -1 -6 -1q-9 0 -9 11q0 8 4.5 21.5t4.5 21.5q0 5 -2 5l1 6q2 0 4 0.5t5 0.5q10 0 10 -13q2 3 5 8t10 5q8 0 10.5 -5
t2.5 -13q0 -13 -9 -29.5t-10 -30.5q0 -8 4 -15t15 -7q15 0 21 16zM413 124q7 0 11.5 -7t4.5 -15q0 -14 -9.5 -23t-22.5 -9q-9 0 -18.5 3t-18.5 6t-17 6t-13 3q0 -9 1.5 -21t1.5 -26q0 -17 -7 -32t-24 -15q-19 0 -21 15l2 2q2 -1 4.5 -2t4.5 -1q11 0 14.5 11.5t3.5 25.5v32
q0 15 6.5 25t16.5 10q5 0 7.5 -3.5t2.5 -6.5q0 -4 -2 -6l-3 -3q11 -1 20.5 -4.5t20.5 -3.5q13 0 20.5 7t7.5 15q0 9 -8 9l2 5q4 3 12 3zM214 95q0 7 -4 4v4q2 3 5.5 6t8.5 3q10 0 10 -9q0 -2 -1 -4h1q2 5 6 8.5t9 3.5q12 0 12 -18q0 -5 -2 -13t-5.5 -15.5t-8.5 -13t-11 -5.5
q-10 0 -10 14q0 5 1 9h-1q0 -4 -2.5 -16t-2.5 -22q0 -6 1 -9q-6 -2 -9 -2q-10 0 -10 11q0 6 2 15t4.5 18.5t4.5 17.5t2 13zM209 182q-13 0 -13 16q0 23 12 36t20 13q10 0 10 -11h1q3 4 1 11q3 1 8 1q8 0 8 -10q0 -9 -5 -23t-5 -22q0 -5 1 -6l-1 -5h-4q-11 0 -11 11q0 6 3 11
h-1q-4 -8 -9.5 -15t-14.5 -7zM305 74q-3 -11 -8.5 -19.5t-17.5 -8.5q-9 0 -13 6.5t-4 15.5q0 14 8.5 28.5t20.5 14.5q15 0 15 -16q0 -8 -5.5 -14.5t-17.5 -8.5q4 -4 7 -4q9 0 11 8zM174 238q4 10 15 10q9 0 9 -10q0 -12 -6 -24t-6 -23q0 -4 1 -4q0 -1 1 0l-2 -5h-5
q-6 0 -8.5 3.5t-2.5 8.5q0 10 4.5 18.5t4.5 19.5q0 4 -2 4q-1 0 -2 -1zM241 250q-9 1 -9 10q0 8 4.5 13.5t11.5 5.5q9 0 9 -9q0 -6 -5 -9q-1 2 -4 2q-7 0 -7 -7q0 -1 2 -3zM289 229q0 8 -5 6q-2 -1 -7 -12.5t-5 -34.5q5 11 11 22.5t6 18.5zM208 267q-2 -5 -6 -8.5t-11 -3.5
h-3l-2 1q2 1 2.5 4.5t1.5 7.5t3 7t7 3q8 0 8 -9v-2zM240 100q-5 0 -8 -8t-3 -13q0 -7 4 -7t7.5 7.5t3.5 13.5q0 7 -4 7zM100 182q11 0 19 15q-3 1 -8 1q-8 0 -13 -3.5t-5 -7.5q0 -5 7 -5zM234 236q-4 0 -7 -8.5t-3 -14.5v-3q0 -2 2 -2q3 0 5.5 4.5t4 9.5t1.5 9.5t-3 4.5z
M291 105q-5 0 -7.5 -9t-2.5 -17q6 3 9.5 10t3.5 12q0 4 -3 4zM155 12q7 0 14 16q-19 0 -19 -11q0 -5 5 -5zM332 93q7 0 7 9q0 2 -1.5 3.5t-3.5 0.5q-4 -1 -4 -13h2z" />
    <glyph glyph-name="ordfeminine" unicode="&#xaa;" horiz-adv-x="477" 
d="M250 172q4 -7 4 -16q0 -13 -12 -22.5t-32 -9.5q-7 0 -12 1l-10 2q-8 -6 -18 -6t-18 4q0 -30 -15 -55.5t-39 -25.5q-15 0 -21.5 6.5t-6.5 14.5q0 12 9.5 23t23.5 11q8 0 15 -5l-1 -1q-3 1 -8 1q-14 0 -14 -10q0 -11 15 -11q7 0 13.5 5.5t11.5 13.5t8.5 17.5t3.5 17.5
q-6 3 -12.5 5.5t-12.5 2.5q-9 0 -17 -4.5t-8 -14.5q0 -6 1 -8t2 -3l-2 -3q-28 0 -28 28q0 14 9 26.5t28 12.5q12 0 20 -6t14.5 -13t13 -13t15.5 -6q3 0 5 1q-10 5 -17 13t-12 16l-10 16t-10 14q-14 -14 -25 -14q-12 0 -12 12q0 6 5.5 12t19.5 6h11q8 14 13 31.5t5 31.5
q0 5 -1 10t-6 5q-10 0 -15.5 -11.5t-5.5 -24.5q0 -20 13 -24v-3q-2 0 -2.5 0.5t-1.5 0.5q-6 0 -14.5 -3t-17.5 -7t-18.5 -7t-17.5 -3q-15 0 -25 9.5t-10 23.5q0 9 6 15.5t14 6.5q2 0 4 -0.5t7 -2.5l1 -4q-7 -2 -7 -10t7.5 -15t19.5 -7t23 4t22 4q-6 7 -6 23q0 19 9.5 37.5
t29.5 18.5q11 0 17 -7.5t6 -18.5q0 -17 -11 -39t-26 -39q9 -6 17 -14.5t16.5 -16.5t18.5 -14t23 -6q30 0 35 21h3zM254 39q6 0 11.5 -4.5t5.5 -14.5q0 -12 -11 -21t-22 -9q-14 0 -29.5 11.5t-28.5 19.5q-10 -15 -22 -15q-15 0 -15 11t10 16t19 3q4 11 6.5 20.5t2.5 11.5
q-2 -8 -7 -15.5t-13 -7.5q-2 0 -5.5 3t-3.5 9q0 14 5.5 24.5t5.5 24.5q0 5 -2 9q0 2 7 2q6 0 8.5 -4.5t2.5 -7.5v-3q-1 -2 -1.5 -7.5t-2.5 -12.5q-2 -8 -4 -17v-2q0 -2 2 -2t4 5t4 12t3.5 14.5t1.5 12.5v4q4 3 7 3q11 0 11 -12q0 -6 -2 -15.5t-6 -25.5q-3 -14 -10 -28
q11 -5 20.5 -13t20.5 -8t17.5 5.5t6.5 13.5q0 3 -5 7l3 3h5zM331 165q6 -8 6 -16q0 -9 -7.5 -18.5t-24.5 -9.5q-18 0 -29 12t-11 27q0 5 1 10.5t3 12.5q-2 -1 -6 -1q-9 0 -9 11q0 8 4.5 21.5t4.5 21.5q0 5 -2 5l1 6q2 0 4 0.5t5 0.5q10 0 10 -13q2 3 5 8t10 5q8 0 10.5 -5
t2.5 -13q0 -13 -9 -29.5t-10 -30.5q0 -8 4 -15t15 -7q15 0 21 16zM413 124q7 0 11.5 -7t4.5 -15q0 -14 -9.5 -23t-22.5 -9q-9 0 -18.5 3t-18.5 6t-17 6t-13 3q0 -9 1.5 -21t1.5 -26q0 -17 -7 -32t-24 -15q-19 0 -21 15l2 2q2 -1 4.5 -2t4.5 -1q11 0 14.5 11.5t3.5 25.5v32
q0 15 6.5 25t16.5 10q5 0 7.5 -3.5t2.5 -6.5q0 -4 -2 -6l-3 -3q11 -1 20.5 -4.5t20.5 -3.5q13 0 20.5 7t7.5 15q0 9 -8 9l2 5q4 3 12 3zM214 95q0 7 -4 4v4q2 3 5.5 6t8.5 3q10 0 10 -9q0 -2 -1 -4h1q2 5 6 8.5t9 3.5q12 0 12 -18q0 -5 -2 -13t-5.5 -15.5t-8.5 -13t-11 -5.5
q-10 0 -10 14q0 5 1 9h-1q0 -4 -2.5 -16t-2.5 -22q0 -6 1 -9q-6 -2 -9 -2q-10 0 -10 11q0 6 2 15t4.5 18.5t4.5 17.5t2 13zM209 182q-13 0 -13 16q0 23 12 36t20 13q10 0 10 -11h1q3 4 1 11q3 1 8 1q8 0 8 -10q0 -9 -5 -23t-5 -22q0 -5 1 -6l-1 -5h-4q-11 0 -11 11q0 6 3 11
h-1q-4 -8 -9.5 -15t-14.5 -7zM305 74q-3 -11 -8.5 -19.5t-17.5 -8.5q-9 0 -13 6.5t-4 15.5q0 14 8.5 28.5t20.5 14.5q15 0 15 -16q0 -8 -5.5 -14.5t-17.5 -8.5q4 -4 7 -4q9 0 11 8zM174 238q4 10 15 10q9 0 9 -10q0 -12 -6 -24t-6 -23q0 -4 1 -4q0 -1 1 0l-2 -5h-5
q-6 0 -8.5 3.5t-2.5 8.5q0 10 4.5 18.5t4.5 19.5q0 4 -2 4q-1 0 -2 -1zM241 250q-9 1 -9 10q0 8 4.5 13.5t11.5 5.5q9 0 9 -9q0 -6 -5 -9q-1 2 -4 2q-7 0 -7 -7q0 -1 2 -3zM289 229q0 8 -5 6q-2 -1 -7 -12.5t-5 -34.5q5 11 11 22.5t6 18.5zM208 267q-2 -5 -6 -8.5t-11 -3.5
h-3l-2 1q2 1 2.5 4.5t1.5 7.5t3 7t7 3q8 0 8 -9v-2zM240 100q-5 0 -8 -8t-3 -13q0 -7 4 -7t7.5 7.5t3.5 13.5q0 7 -4 7zM100 182q11 0 19 15q-3 1 -8 1q-8 0 -13 -3.5t-5 -7.5q0 -5 7 -5zM234 236q-4 0 -7 -8.5t-3 -14.5v-3q0 -2 2 -2q3 0 5.5 4.5t4 9.5t1.5 9.5t-3 4.5z
M291 105q-5 0 -7.5 -9t-2.5 -17q6 3 9.5 10t3.5 12q0 4 -3 4zM155 12q7 0 14 16q-19 0 -19 -11q0 -5 5 -5zM332 93q7 0 7 9q0 2 -1.5 3.5t-3.5 0.5q-4 -1 -4 -13h2z" />
    <glyph glyph-name="guillemotleft" unicode="&#xab;" horiz-adv-x="507" 
d="M221 0l-206 178v5l304 163l3 -4l-303 -161v-1l205 -176zM384 0l-206 178v5l304 163l3 -4l-303 -161v-1l205 -176z" />
    <glyph glyph-name="logicalnot" unicode="&#xac;" horiz-adv-x="477" 
d="M250 172q4 -7 4 -16q0 -13 -12 -22.5t-32 -9.5q-7 0 -12 1l-10 2q-8 -6 -18 -6t-18 4q0 -30 -15 -55.5t-39 -25.5q-15 0 -21.5 6.5t-6.5 14.5q0 12 9.5 23t23.5 11q8 0 15 -5l-1 -1q-3 1 -8 1q-14 0 -14 -10q0 -11 15 -11q7 0 13.5 5.5t11.5 13.5t8.5 17.5t3.5 17.5
q-6 3 -12.5 5.5t-12.5 2.5q-9 0 -17 -4.5t-8 -14.5q0 -6 1 -8t2 -3l-2 -3q-28 0 -28 28q0 14 9 26.5t28 12.5q12 0 20 -6t14.5 -13t13 -13t15.5 -6q3 0 5 1q-10 5 -17 13t-12 16l-10 16t-10 14q-14 -14 -25 -14q-12 0 -12 12q0 6 5.5 12t19.5 6h11q8 14 13 31.5t5 31.5
q0 5 -1 10t-6 5q-10 0 -15.5 -11.5t-5.5 -24.5q0 -20 13 -24v-3q-2 0 -2.5 0.5t-1.5 0.5q-6 0 -14.5 -3t-17.5 -7t-18.5 -7t-17.5 -3q-15 0 -25 9.5t-10 23.5q0 9 6 15.5t14 6.5q2 0 4 -0.5t7 -2.5l1 -4q-7 -2 -7 -10t7.5 -15t19.5 -7t23 4t22 4q-6 7 -6 23q0 19 9.5 37.5
t29.5 18.5q11 0 17 -7.5t6 -18.5q0 -17 -11 -39t-26 -39q9 -6 17 -14.5t16.5 -16.5t18.5 -14t23 -6q30 0 35 21h3zM254 39q6 0 11.5 -4.5t5.5 -14.5q0 -12 -11 -21t-22 -9q-14 0 -29.5 11.5t-28.5 19.5q-10 -15 -22 -15q-15 0 -15 11t10 16t19 3q4 11 6.5 20.5t2.5 11.5
q-2 -8 -7 -15.5t-13 -7.5q-2 0 -5.5 3t-3.5 9q0 14 5.5 24.5t5.5 24.5q0 5 -2 9q0 2 7 2q6 0 8.5 -4.5t2.5 -7.5v-3q-1 -2 -1.5 -7.5t-2.5 -12.5q-2 -8 -4 -17v-2q0 -2 2 -2t4 5t4 12t3.5 14.5t1.5 12.5v4q4 3 7 3q11 0 11 -12q0 -6 -2 -15.5t-6 -25.5q-3 -14 -10 -28
q11 -5 20.5 -13t20.5 -8t17.5 5.5t6.5 13.5q0 3 -5 7l3 3h5zM331 165q6 -8 6 -16q0 -9 -7.5 -18.5t-24.5 -9.5q-18 0 -29 12t-11 27q0 5 1 10.5t3 12.5q-2 -1 -6 -1q-9 0 -9 11q0 8 4.5 21.5t4.5 21.5q0 5 -2 5l1 6q2 0 4 0.5t5 0.5q10 0 10 -13q2 3 5 8t10 5q8 0 10.5 -5
t2.5 -13q0 -13 -9 -29.5t-10 -30.5q0 -8 4 -15t15 -7q15 0 21 16zM413 124q7 0 11.5 -7t4.5 -15q0 -14 -9.5 -23t-22.5 -9q-9 0 -18.5 3t-18.5 6t-17 6t-13 3q0 -9 1.5 -21t1.5 -26q0 -17 -7 -32t-24 -15q-19 0 -21 15l2 2q2 -1 4.5 -2t4.5 -1q11 0 14.5 11.5t3.5 25.5v32
q0 15 6.5 25t16.5 10q5 0 7.5 -3.5t2.5 -6.5q0 -4 -2 -6l-3 -3q11 -1 20.5 -4.5t20.5 -3.5q13 0 20.5 7t7.5 15q0 9 -8 9l2 5q4 3 12 3zM214 95q0 7 -4 4v4q2 3 5.5 6t8.5 3q10 0 10 -9q0 -2 -1 -4h1q2 5 6 8.5t9 3.5q12 0 12 -18q0 -5 -2 -13t-5.5 -15.5t-8.5 -13t-11 -5.5
q-10 0 -10 14q0 5 1 9h-1q0 -4 -2.5 -16t-2.5 -22q0 -6 1 -9q-6 -2 -9 -2q-10 0 -10 11q0 6 2 15t4.5 18.5t4.5 17.5t2 13zM209 182q-13 0 -13 16q0 23 12 36t20 13q10 0 10 -11h1q3 4 1 11q3 1 8 1q8 0 8 -10q0 -9 -5 -23t-5 -22q0 -5 1 -6l-1 -5h-4q-11 0 -11 11q0 6 3 11
h-1q-4 -8 -9.5 -15t-14.5 -7zM305 74q-3 -11 -8.5 -19.5t-17.5 -8.5q-9 0 -13 6.5t-4 15.5q0 14 8.5 28.5t20.5 14.5q15 0 15 -16q0 -8 -5.5 -14.5t-17.5 -8.5q4 -4 7 -4q9 0 11 8zM174 238q4 10 15 10q9 0 9 -10q0 -12 -6 -24t-6 -23q0 -4 1 -4q0 -1 1 0l-2 -5h-5
q-6 0 -8.5 3.5t-2.5 8.5q0 10 4.5 18.5t4.5 19.5q0 4 -2 4q-1 0 -2 -1zM241 250q-9 1 -9 10q0 8 4.5 13.5t11.5 5.5q9 0 9 -9q0 -6 -5 -9q-1 2 -4 2q-7 0 -7 -7q0 -1 2 -3zM289 229q0 8 -5 6q-2 -1 -7 -12.5t-5 -34.5q5 11 11 22.5t6 18.5zM208 267q-2 -5 -6 -8.5t-11 -3.5
h-3l-2 1q2 1 2.5 4.5t1.5 7.5t3 7t7 3q8 0 8 -9v-2zM240 100q-5 0 -8 -8t-3 -13q0 -7 4 -7t7.5 7.5t3.5 13.5q0 7 -4 7zM100 182q11 0 19 15q-3 1 -8 1q-8 0 -13 -3.5t-5 -7.5q0 -5 7 -5zM234 236q-4 0 -7 -8.5t-3 -14.5v-3q0 -2 2 -2q3 0 5.5 4.5t4 9.5t1.5 9.5t-3 4.5z
M291 105q-5 0 -7.5 -9t-2.5 -17q6 3 9.5 10t3.5 12q0 4 -3 4zM155 12q7 0 14 16q-19 0 -19 -11q0 -5 5 -5zM332 93q7 0 7 9q0 2 -1.5 3.5t-3.5 0.5q-4 -1 -4 -13h2z" />
    <glyph glyph-name="uni00AD" unicode="&#xad;" horiz-adv-x="630" 
d="M44 171h519v-5h-519v5z" />
    <glyph glyph-name="registered" unicode="&#xae;" horiz-adv-x="477" 
d="M250 172q4 -7 4 -16q0 -13 -12 -22.5t-32 -9.5q-7 0 -12 1l-10 2q-8 -6 -18 -6t-18 4q0 -30 -15 -55.5t-39 -25.5q-15 0 -21.5 6.5t-6.5 14.5q0 12 9.5 23t23.5 11q8 0 15 -5l-1 -1q-3 1 -8 1q-14 0 -14 -10q0 -11 15 -11q7 0 13.5 5.5t11.5 13.5t8.5 17.5t3.5 17.5
q-6 3 -12.5 5.5t-12.5 2.5q-9 0 -17 -4.5t-8 -14.5q0 -6 1 -8t2 -3l-2 -3q-28 0 -28 28q0 14 9 26.5t28 12.5q12 0 20 -6t14.5 -13t13 -13t15.5 -6q3 0 5 1q-10 5 -17 13t-12 16l-10 16t-10 14q-14 -14 -25 -14q-12 0 -12 12q0 6 5.5 12t19.5 6h11q8 14 13 31.5t5 31.5
q0 5 -1 10t-6 5q-10 0 -15.5 -11.5t-5.5 -24.5q0 -20 13 -24v-3q-2 0 -2.5 0.5t-1.5 0.5q-6 0 -14.5 -3t-17.5 -7t-18.5 -7t-17.5 -3q-15 0 -25 9.5t-10 23.5q0 9 6 15.5t14 6.5q2 0 4 -0.5t7 -2.5l1 -4q-7 -2 -7 -10t7.5 -15t19.5 -7t23 4t22 4q-6 7 -6 23q0 19 9.5 37.5
t29.5 18.5q11 0 17 -7.5t6 -18.5q0 -17 -11 -39t-26 -39q9 -6 17 -14.5t16.5 -16.5t18.5 -14t23 -6q30 0 35 21h3zM254 39q6 0 11.5 -4.5t5.5 -14.5q0 -12 -11 -21t-22 -9q-14 0 -29.5 11.5t-28.5 19.5q-10 -15 -22 -15q-15 0 -15 11t10 16t19 3q4 11 6.5 20.5t2.5 11.5
q-2 -8 -7 -15.5t-13 -7.5q-2 0 -5.5 3t-3.5 9q0 14 5.5 24.5t5.5 24.5q0 5 -2 9q0 2 7 2q6 0 8.5 -4.5t2.5 -7.5v-3q-1 -2 -1.5 -7.5t-2.5 -12.5q-2 -8 -4 -17v-2q0 -2 2 -2t4 5t4 12t3.5 14.5t1.5 12.5v4q4 3 7 3q11 0 11 -12q0 -6 -2 -15.5t-6 -25.5q-3 -14 -10 -28
q11 -5 20.5 -13t20.5 -8t17.5 5.5t6.5 13.5q0 3 -5 7l3 3h5zM331 165q6 -8 6 -16q0 -9 -7.5 -18.5t-24.5 -9.5q-18 0 -29 12t-11 27q0 5 1 10.5t3 12.5q-2 -1 -6 -1q-9 0 -9 11q0 8 4.5 21.5t4.5 21.5q0 5 -2 5l1 6q2 0 4 0.5t5 0.5q10 0 10 -13q2 3 5 8t10 5q8 0 10.5 -5
t2.5 -13q0 -13 -9 -29.5t-10 -30.5q0 -8 4 -15t15 -7q15 0 21 16zM413 124q7 0 11.5 -7t4.5 -15q0 -14 -9.5 -23t-22.5 -9q-9 0 -18.5 3t-18.5 6t-17 6t-13 3q0 -9 1.5 -21t1.5 -26q0 -17 -7 -32t-24 -15q-19 0 -21 15l2 2q2 -1 4.5 -2t4.5 -1q11 0 14.5 11.5t3.5 25.5v32
q0 15 6.5 25t16.5 10q5 0 7.5 -3.5t2.5 -6.5q0 -4 -2 -6l-3 -3q11 -1 20.5 -4.5t20.5 -3.5q13 0 20.5 7t7.5 15q0 9 -8 9l2 5q4 3 12 3zM214 95q0 7 -4 4v4q2 3 5.5 6t8.5 3q10 0 10 -9q0 -2 -1 -4h1q2 5 6 8.5t9 3.5q12 0 12 -18q0 -5 -2 -13t-5.5 -15.5t-8.5 -13t-11 -5.5
q-10 0 -10 14q0 5 1 9h-1q0 -4 -2.5 -16t-2.5 -22q0 -6 1 -9q-6 -2 -9 -2q-10 0 -10 11q0 6 2 15t4.5 18.5t4.5 17.5t2 13zM209 182q-13 0 -13 16q0 23 12 36t20 13q10 0 10 -11h1q3 4 1 11q3 1 8 1q8 0 8 -10q0 -9 -5 -23t-5 -22q0 -5 1 -6l-1 -5h-4q-11 0 -11 11q0 6 3 11
h-1q-4 -8 -9.5 -15t-14.5 -7zM305 74q-3 -11 -8.5 -19.5t-17.5 -8.5q-9 0 -13 6.5t-4 15.5q0 14 8.5 28.5t20.5 14.5q15 0 15 -16q0 -8 -5.5 -14.5t-17.5 -8.5q4 -4 7 -4q9 0 11 8zM174 238q4 10 15 10q9 0 9 -10q0 -12 -6 -24t-6 -23q0 -4 1 -4q0 -1 1 0l-2 -5h-5
q-6 0 -8.5 3.5t-2.5 8.5q0 10 4.5 18.5t4.5 19.5q0 4 -2 4q-1 0 -2 -1zM241 250q-9 1 -9 10q0 8 4.5 13.5t11.5 5.5q9 0 9 -9q0 -6 -5 -9q-1 2 -4 2q-7 0 -7 -7q0 -1 2 -3zM289 229q0 8 -5 6q-2 -1 -7 -12.5t-5 -34.5q5 11 11 22.5t6 18.5zM208 267q-2 -5 -6 -8.5t-11 -3.5
h-3l-2 1q2 1 2.5 4.5t1.5 7.5t3 7t7 3q8 0 8 -9v-2zM240 100q-5 0 -8 -8t-3 -13q0 -7 4 -7t7.5 7.5t3.5 13.5q0 7 -4 7zM100 182q11 0 19 15q-3 1 -8 1q-8 0 -13 -3.5t-5 -7.5q0 -5 7 -5zM234 236q-4 0 -7 -8.5t-3 -14.5v-3q0 -2 2 -2q3 0 5.5 4.5t4 9.5t1.5 9.5t-3 4.5z
M291 105q-5 0 -7.5 -9t-2.5 -17q6 3 9.5 10t3.5 12q0 4 -3 4zM155 12q7 0 14 16q-19 0 -19 -11q0 -5 5 -5zM332 93q7 0 7 9q0 2 -1.5 3.5t-3.5 0.5q-4 -1 -4 -13h2z" />
    <glyph glyph-name="macron" unicode="&#xaf;" horiz-adv-x="373" 
d="M83 434h222l-2 -6h-222z" />
    <glyph glyph-name="degree" unicode="&#xb0;" horiz-adv-x="477" 
d="M250 172q4 -7 4 -16q0 -13 -12 -22.5t-32 -9.5q-7 0 -12 1l-10 2q-8 -6 -18 -6t-18 4q0 -30 -15 -55.5t-39 -25.5q-15 0 -21.5 6.5t-6.5 14.5q0 12 9.5 23t23.5 11q8 0 15 -5l-1 -1q-3 1 -8 1q-14 0 -14 -10q0 -11 15 -11q7 0 13.5 5.5t11.5 13.5t8.5 17.5t3.5 17.5
q-6 3 -12.5 5.5t-12.5 2.5q-9 0 -17 -4.5t-8 -14.5q0 -6 1 -8t2 -3l-2 -3q-28 0 -28 28q0 14 9 26.5t28 12.5q12 0 20 -6t14.5 -13t13 -13t15.5 -6q3 0 5 1q-10 5 -17 13t-12 16l-10 16t-10 14q-14 -14 -25 -14q-12 0 -12 12q0 6 5.5 12t19.5 6h11q8 14 13 31.5t5 31.5
q0 5 -1 10t-6 5q-10 0 -15.5 -11.5t-5.5 -24.5q0 -20 13 -24v-3q-2 0 -2.5 0.5t-1.5 0.5q-6 0 -14.5 -3t-17.5 -7t-18.5 -7t-17.5 -3q-15 0 -25 9.5t-10 23.5q0 9 6 15.5t14 6.5q2 0 4 -0.5t7 -2.5l1 -4q-7 -2 -7 -10t7.5 -15t19.5 -7t23 4t22 4q-6 7 -6 23q0 19 9.5 37.5
t29.5 18.5q11 0 17 -7.5t6 -18.5q0 -17 -11 -39t-26 -39q9 -6 17 -14.5t16.5 -16.5t18.5 -14t23 -6q30 0 35 21h3zM254 39q6 0 11.5 -4.5t5.5 -14.5q0 -12 -11 -21t-22 -9q-14 0 -29.5 11.5t-28.5 19.5q-10 -15 -22 -15q-15 0 -15 11t10 16t19 3q4 11 6.5 20.5t2.5 11.5
q-2 -8 -7 -15.5t-13 -7.5q-2 0 -5.5 3t-3.5 9q0 14 5.5 24.5t5.5 24.5q0 5 -2 9q0 2 7 2q6 0 8.5 -4.5t2.5 -7.5v-3q-1 -2 -1.5 -7.5t-2.5 -12.5q-2 -8 -4 -17v-2q0 -2 2 -2t4 5t4 12t3.5 14.5t1.5 12.5v4q4 3 7 3q11 0 11 -12q0 -6 -2 -15.5t-6 -25.5q-3 -14 -10 -28
q11 -5 20.5 -13t20.5 -8t17.5 5.5t6.5 13.5q0 3 -5 7l3 3h5zM331 165q6 -8 6 -16q0 -9 -7.5 -18.5t-24.5 -9.5q-18 0 -29 12t-11 27q0 5 1 10.5t3 12.5q-2 -1 -6 -1q-9 0 -9 11q0 8 4.5 21.5t4.5 21.5q0 5 -2 5l1 6q2 0 4 0.5t5 0.5q10 0 10 -13q2 3 5 8t10 5q8 0 10.5 -5
t2.5 -13q0 -13 -9 -29.5t-10 -30.5q0 -8 4 -15t15 -7q15 0 21 16zM413 124q7 0 11.5 -7t4.5 -15q0 -14 -9.5 -23t-22.5 -9q-9 0 -18.5 3t-18.5 6t-17 6t-13 3q0 -9 1.5 -21t1.5 -26q0 -17 -7 -32t-24 -15q-19 0 -21 15l2 2q2 -1 4.5 -2t4.5 -1q11 0 14.5 11.5t3.5 25.5v32
q0 15 6.5 25t16.5 10q5 0 7.5 -3.5t2.5 -6.5q0 -4 -2 -6l-3 -3q11 -1 20.5 -4.5t20.5 -3.5q13 0 20.5 7t7.5 15q0 9 -8 9l2 5q4 3 12 3zM214 95q0 7 -4 4v4q2 3 5.5 6t8.5 3q10 0 10 -9q0 -2 -1 -4h1q2 5 6 8.5t9 3.5q12 0 12 -18q0 -5 -2 -13t-5.5 -15.5t-8.5 -13t-11 -5.5
q-10 0 -10 14q0 5 1 9h-1q0 -4 -2.5 -16t-2.5 -22q0 -6 1 -9q-6 -2 -9 -2q-10 0 -10 11q0 6 2 15t4.5 18.5t4.5 17.5t2 13zM209 182q-13 0 -13 16q0 23 12 36t20 13q10 0 10 -11h1q3 4 1 11q3 1 8 1q8 0 8 -10q0 -9 -5 -23t-5 -22q0 -5 1 -6l-1 -5h-4q-11 0 -11 11q0 6 3 11
h-1q-4 -8 -9.5 -15t-14.5 -7zM305 74q-3 -11 -8.5 -19.5t-17.5 -8.5q-9 0 -13 6.5t-4 15.5q0 14 8.5 28.5t20.5 14.5q15 0 15 -16q0 -8 -5.5 -14.5t-17.5 -8.5q4 -4 7 -4q9 0 11 8zM174 238q4 10 15 10q9 0 9 -10q0 -12 -6 -24t-6 -23q0 -4 1 -4q0 -1 1 0l-2 -5h-5
q-6 0 -8.5 3.5t-2.5 8.5q0 10 4.5 18.5t4.5 19.5q0 4 -2 4q-1 0 -2 -1zM241 250q-9 1 -9 10q0 8 4.5 13.5t11.5 5.5q9 0 9 -9q0 -6 -5 -9q-1 2 -4 2q-7 0 -7 -7q0 -1 2 -3zM289 229q0 8 -5 6q-2 -1 -7 -12.5t-5 -34.5q5 11 11 22.5t6 18.5zM208 267q-2 -5 -6 -8.5t-11 -3.5
h-3l-2 1q2 1 2.5 4.5t1.5 7.5t3 7t7 3q8 0 8 -9v-2zM240 100q-5 0 -8 -8t-3 -13q0 -7 4 -7t7.5 7.5t3.5 13.5q0 7 -4 7zM100 182q11 0 19 15q-3 1 -8 1q-8 0 -13 -3.5t-5 -7.5q0 -5 7 -5zM234 236q-4 0 -7 -8.5t-3 -14.5v-3q0 -2 2 -2q3 0 5.5 4.5t4 9.5t1.5 9.5t-3 4.5z
M291 105q-5 0 -7.5 -9t-2.5 -17q6 3 9.5 10t3.5 12q0 4 -3 4zM155 12q7 0 14 16q-19 0 -19 -11q0 -5 5 -5zM332 93q7 0 7 9q0 2 -1.5 3.5t-3.5 0.5q-4 -1 -4 -13h2z" />
    <glyph glyph-name="plusminus" unicode="&#xb1;" horiz-adv-x="429" 
d="M60 314h160l41 158h5l-42 -158h164v-5h-165l-43 -165h-5l43 165h-158v5zM-6 4h328v-5h-328v5z" />
    <glyph glyph-name="twosuperior" unicode="&#xb2;" horiz-adv-x="561" 
d="M280 324q-47 7 -69.5 38t-20.5 70q2 28 17 57.5t42.5 53t66.5 38.5t89 15q23 0 48.5 -5t46.5 -18t33.5 -34.5t10.5 -55.5q-4 -46 -41 -87.5t-94 -80.5l7 -4q59 -2 84 -38t22 -87q-2 -36 -18.5 -70.5t-45 -62t-67.5 -44t-87 -16.5q-33 0 -64.5 8t-62.5 18t-61.5 18
t-59.5 8q-26 0 -48.5 -14.5t-30.5 -37.5q-3 -9 -3 -19q0 -16 12.5 -30t40.5 -14q24 0 48.5 12t37.5 42q12 -9 15.5 -24.5t-3 -31t-24 -26.5t-45.5 -11q-38 0 -64.5 22t-24.5 61v2q5 59 31 90t65 39q37 27 81.5 54t91 55t90 58t78.5 64t57 72.5t25 83.5q1 15 -1.5 32.5
t-10.5 32.5t-24.5 25t-44.5 10q-35 0 -64.5 -17.5t-51.5 -44.5t-35 -59t-15 -61q-2 -30 8.5 -52.5t36.5 -29.5zM394 304q-38 -26 -80.5 -51t-85 -49.5t-83 -49t-73.5 -48.5q5 1 15 1q36 0 62.5 -17t50.5 -38t48.5 -38t55.5 -17q37 0 66 15.5t50 41.5t33.5 59t14.5 68
q1 25 -2 47t-12 39t-23 27t-34 10h-3z" />
    <glyph glyph-name="threesuperior" unicode="&#xb3;" horiz-adv-x="467" 
d="M226 390h9t8 -1l134 129h-199l-16 -50h-4l16 50l19 61h247l44 42h4l-240 -232q45 -3 77.5 -17t54 -35t32 -48t9.5 -57q-1 -42 -21 -85t-57 -77t-88 -55.5t-114 -21.5q-40 0 -70 9.5t-50 26t-30 38.5t-10 46q0 13 4.5 26t13.5 24.5t22 19t30 9.5l4 -2q-14 -17 -21 -39
t-7 -45q0 -20 5.5 -39.5t18 -34.5t32.5 -24.5t49 -10.5q52 0 94.5 21t72.5 55.5t46 78t17 88.5q1 30 -7 57t-24.5 47t-43 32t-62.5 12z" />
    <glyph glyph-name="acute" unicode="&#xb4;" horiz-adv-x="180" 
d="M62 404q24 3 41.5 18t28 34t12.5 39t-7 34q17 11 33 4t18 -28q1 -12 -7 -28t-24.5 -31t-40 -27.5t-53.5 -17.5z" />
    <glyph glyph-name="mu" unicode="&#xb5;" horiz-adv-x="477" 
d="M250 172q4 -7 4 -16q0 -13 -12 -22.5t-32 -9.5q-7 0 -12 1l-10 2q-8 -6 -18 -6t-18 4q0 -30 -15 -55.5t-39 -25.5q-15 0 -21.5 6.5t-6.5 14.5q0 12 9.5 23t23.5 11q8 0 15 -5l-1 -1q-3 1 -8 1q-14 0 -14 -10q0 -11 15 -11q7 0 13.5 5.5t11.5 13.5t8.5 17.5t3.5 17.5
q-6 3 -12.5 5.5t-12.5 2.5q-9 0 -17 -4.5t-8 -14.5q0 -6 1 -8t2 -3l-2 -3q-28 0 -28 28q0 14 9 26.5t28 12.5q12 0 20 -6t14.5 -13t13 -13t15.5 -6q3 0 5 1q-10 5 -17 13t-12 16l-10 16t-10 14q-14 -14 -25 -14q-12 0 -12 12q0 6 5.5 12t19.5 6h11q8 14 13 31.5t5 31.5
q0 5 -1 10t-6 5q-10 0 -15.5 -11.5t-5.5 -24.5q0 -20 13 -24v-3q-2 0 -2.5 0.5t-1.5 0.5q-6 0 -14.5 -3t-17.5 -7t-18.5 -7t-17.5 -3q-15 0 -25 9.5t-10 23.5q0 9 6 15.5t14 6.5q2 0 4 -0.5t7 -2.5l1 -4q-7 -2 -7 -10t7.5 -15t19.5 -7t23 4t22 4q-6 7 -6 23q0 19 9.5 37.5
t29.5 18.5q11 0 17 -7.5t6 -18.5q0 -17 -11 -39t-26 -39q9 -6 17 -14.5t16.5 -16.5t18.5 -14t23 -6q30 0 35 21h3zM254 39q6 0 11.5 -4.5t5.5 -14.5q0 -12 -11 -21t-22 -9q-14 0 -29.5 11.5t-28.5 19.5q-10 -15 -22 -15q-15 0 -15 11t10 16t19 3q4 11 6.5 20.5t2.5 11.5
q-2 -8 -7 -15.5t-13 -7.5q-2 0 -5.5 3t-3.5 9q0 14 5.5 24.5t5.5 24.5q0 5 -2 9q0 2 7 2q6 0 8.5 -4.5t2.5 -7.5v-3q-1 -2 -1.5 -7.5t-2.5 -12.5q-2 -8 -4 -17v-2q0 -2 2 -2t4 5t4 12t3.5 14.5t1.5 12.5v4q4 3 7 3q11 0 11 -12q0 -6 -2 -15.5t-6 -25.5q-3 -14 -10 -28
q11 -5 20.5 -13t20.5 -8t17.5 5.5t6.5 13.5q0 3 -5 7l3 3h5zM331 165q6 -8 6 -16q0 -9 -7.5 -18.5t-24.5 -9.5q-18 0 -29 12t-11 27q0 5 1 10.5t3 12.5q-2 -1 -6 -1q-9 0 -9 11q0 8 4.5 21.5t4.5 21.5q0 5 -2 5l1 6q2 0 4 0.5t5 0.5q10 0 10 -13q2 3 5 8t10 5q8 0 10.5 -5
t2.5 -13q0 -13 -9 -29.5t-10 -30.5q0 -8 4 -15t15 -7q15 0 21 16zM413 124q7 0 11.5 -7t4.5 -15q0 -14 -9.5 -23t-22.5 -9q-9 0 -18.5 3t-18.5 6t-17 6t-13 3q0 -9 1.5 -21t1.5 -26q0 -17 -7 -32t-24 -15q-19 0 -21 15l2 2q2 -1 4.5 -2t4.5 -1q11 0 14.5 11.5t3.5 25.5v32
q0 15 6.5 25t16.5 10q5 0 7.5 -3.5t2.5 -6.5q0 -4 -2 -6l-3 -3q11 -1 20.5 -4.5t20.5 -3.5q13 0 20.5 7t7.5 15q0 9 -8 9l2 5q4 3 12 3zM214 95q0 7 -4 4v4q2 3 5.5 6t8.5 3q10 0 10 -9q0 -2 -1 -4h1q2 5 6 8.5t9 3.5q12 0 12 -18q0 -5 -2 -13t-5.5 -15.5t-8.5 -13t-11 -5.5
q-10 0 -10 14q0 5 1 9h-1q0 -4 -2.5 -16t-2.5 -22q0 -6 1 -9q-6 -2 -9 -2q-10 0 -10 11q0 6 2 15t4.5 18.5t4.5 17.5t2 13zM209 182q-13 0 -13 16q0 23 12 36t20 13q10 0 10 -11h1q3 4 1 11q3 1 8 1q8 0 8 -10q0 -9 -5 -23t-5 -22q0 -5 1 -6l-1 -5h-4q-11 0 -11 11q0 6 3 11
h-1q-4 -8 -9.5 -15t-14.5 -7zM305 74q-3 -11 -8.5 -19.5t-17.5 -8.5q-9 0 -13 6.5t-4 15.5q0 14 8.5 28.5t20.5 14.5q15 0 15 -16q0 -8 -5.5 -14.5t-17.5 -8.5q4 -4 7 -4q9 0 11 8zM174 238q4 10 15 10q9 0 9 -10q0 -12 -6 -24t-6 -23q0 -4 1 -4q0 -1 1 0l-2 -5h-5
q-6 0 -8.5 3.5t-2.5 8.5q0 10 4.5 18.5t4.5 19.5q0 4 -2 4q-1 0 -2 -1zM241 250q-9 1 -9 10q0 8 4.5 13.5t11.5 5.5q9 0 9 -9q0 -6 -5 -9q-1 2 -4 2q-7 0 -7 -7q0 -1 2 -3zM289 229q0 8 -5 6q-2 -1 -7 -12.5t-5 -34.5q5 11 11 22.5t6 18.5zM208 267q-2 -5 -6 -8.5t-11 -3.5
h-3l-2 1q2 1 2.5 4.5t1.5 7.5t3 7t7 3q8 0 8 -9v-2zM240 100q-5 0 -8 -8t-3 -13q0 -7 4 -7t7.5 7.5t3.5 13.5q0 7 -4 7zM100 182q11 0 19 15q-3 1 -8 1q-8 0 -13 -3.5t-5 -7.5q0 -5 7 -5zM234 236q-4 0 -7 -8.5t-3 -14.5v-3q0 -2 2 -2q3 0 5.5 4.5t4 9.5t1.5 9.5t-3 4.5z
M291 105q-5 0 -7.5 -9t-2.5 -17q6 3 9.5 10t3.5 12q0 4 -3 4zM155 12q7 0 14 16q-19 0 -19 -11q0 -5 5 -5zM332 93q7 0 7 9q0 2 -1.5 3.5t-3.5 0.5q-4 -1 -4 -13h2z" />
    <glyph glyph-name="paragraph" unicode="&#xb6;" horiz-adv-x="429" 
d="M538 596l-1 -4h-49l-171 -593q-17 -60 -51 -112t-81 -90.5t-105.5 -60.5t-124.5 -22q-46 0 -66.5 20.5t-22 45t14 45t42.5 20.5q31 0 32 -34q-17 0 -27 -14.5t-11 -32t8 -32t30 -14.5q43 0 75 29.5t57.5 83t47.5 126.5t46 160q-68 0 -109 35.5t-56 88.5t-3.5 115.5
t48.5 115.5t99.5 88.5t149.5 35.5h228zM426 592h-104l-135 -475q-20 -67 -37.5 -132t-39 -119t-49 -92.5t-65.5 -52.5q50 6 89 24t70 51t55 83t45 121z" />
    <glyph glyph-name="periodcentered" unicode="&#xb7;" horiz-adv-x="161" 
d="M29 162q2 15 14 25.5t27 10.5q14 0 22.5 -10.5t6.5 -25.5q-2 -14 -13.5 -24.5t-26.5 -10.5t-23.5 10.5t-6.5 24.5z" />
    <glyph glyph-name="cedilla" unicode="&#xb8;" horiz-adv-x="137" 
d="M5 -145q2 -9 12 -17t28 -8q15 0 26 6.5t18.5 16.5t11.5 22.5t4 23.5q0 16 -7.5 27.5t-23.5 11.5q-10 0 -19 -4l-7 8l49 55h5l-48 -55l2 -2q15 5 26 5q23 0 39.5 -13.5t16.5 -33.5q0 -13 -5.5 -25.5t-16.5 -23t-29 -17t-42 -6.5q-17 0 -29 8.5t-14 18.5z" />
    <glyph glyph-name="onesuperior" unicode="&#xb9;" horiz-adv-x="393" 
d="M76 0l1 4h76l163 505q-1 2 -2 3q-17 -29 -39.5 -56.5t-50 -48.5t-58.5 -34t-64 -13q-29 0 -49.5 8t-33.5 20.5t-18 28.5t-2 32q3 20 14.5 33.5t25.5 20.5t27 8t21 -3q-22 -15 -32 -39t-8 -47.5t15.5 -40.5t39.5 -17q41 0 79.5 20.5t70 52.5t54 69.5t32.5 72.5h111l-2 -4
h-51l-186 -571h69l-1 -4h-202z" />
    <glyph glyph-name="ordmasculine" unicode="&#xba;" 
d="M196 320q56 0 82 -32t26 -77q0 -35 -14.5 -73t-40 -69.5t-61.5 -52t-79 -20.5q-28 0 -48 8.5t-33 23.5t-19 34.5t-6 41.5q0 35 14 73.5t39.5 70t61 52t78.5 20.5zM196 316q-26 0 -51 -24.5t-44 -60.5t-30.5 -78t-11.5 -77q0 -33 12 -54.5t39 -21.5q28 0 53.5 23.5t45 59
t31 77t11.5 76.5t-13 57.5t-42 22.5z" />
    <glyph glyph-name="guillemotright" unicode="&#xbb;" horiz-adv-x="521" 
d="M-1 4l294 176v1l-196 164l4 4l198 -167v-3l-297 -179zM158 4l294 176v1l-196 164l4 4l198 -167v-3l-297 -179z" />
    <glyph glyph-name="onequarter" unicode="&#xbc;" horiz-adv-x="1112" 
d="M76 0l1 4h76l163 505q-1 2 -2 3q-17 -29 -39.5 -56.5t-50 -48.5t-58.5 -34t-64 -13q-29 0 -49.5 8t-33.5 20.5t-18 28.5t-2 32q3 20 14.5 33.5t25.5 20.5t27 8t21 -3q-22 -15 -32 -39t-8 -47.5t15.5 -40.5t39.5 -17q41 0 79.5 20.5t70 52.5t54 69.5t32.5 72.5h111l-2 -4
h-51l-186 -571h69l-1 -4h-202zM631 621h5l-205 -662h-5zM957 689q11 4 26.5 2.5t29.5 -11t22.5 -28t5.5 -46.5q-3 -25 -20 -54t-43 -59t-58 -59t-64 -55.5t-62 -48t-51 -36.5q15 -2 32.5 -9t37 -16.5t40.5 -20t42 -18.5l48 146q31 17 52 39t27 37h3l-77 -235h5q35 -2 59 11
t31 39h3q-8 -31 -35 -43t-65 -13l-68 -207h69l-1 -4h-202l1 4h76l69 209q-38 4 -75.5 10.5t-69 10t-53.5 1t-28 -16.5h-5q25 74 78 76q21 15 51 37t62.5 48t64.5 55.5t58 59.5t43.5 58.5t20.5 53.5q3 30 -8 43.5t-27.5 14.5t-34 -8t-26.5 -24q-8 0 -12 6t-3 15t8.5 19
t22.5 17z" />
    <glyph glyph-name="onehalf" unicode="&#xbd;" horiz-adv-x="1210" 
d="M76 0l1 4h76l163 505q-1 2 -2 3q-17 -29 -39.5 -56.5t-50 -48.5t-58.5 -34t-64 -13q-29 0 -49.5 8t-33.5 20.5t-18 28.5t-2 32q3 20 14.5 33.5t25.5 20.5t27 8t21 -3q-22 -15 -32 -39t-8 -47.5t15.5 -40.5t39.5 -17q41 0 79.5 20.5t70 52.5t54 69.5t32.5 72.5h111l-2 -4
h-51l-186 -571h69l-1 -4h-202zM631 621h5l-205 -662h-5zM900 324q-47 7 -69.5 38t-20.5 70q2 28 17 57.5t42.5 53t66.5 38.5t89 15q23 0 48.5 -5t46.5 -18t33.5 -34.5t10.5 -55.5q-4 -46 -41 -87.5t-94 -80.5l7 -4q59 -2 84 -38t22 -87q-2 -36 -18.5 -70.5t-45 -62
t-67.5 -44t-87 -16.5q-33 0 -64.5 8t-62.5 18t-61.5 18t-59.5 8q-26 0 -48.5 -14.5t-30.5 -37.5q-3 -9 -3 -19q0 -16 12.5 -30t40.5 -14q24 0 48.5 12t37.5 42q12 -9 15.5 -24.5t-3 -31t-24 -26.5t-45.5 -11q-38 0 -64.5 22t-24.5 61v2q5 59 31 90t65 39q37 27 81.5 54
t91 55t90 58t78.5 64t57 72.5t25 83.5q1 15 -1.5 32.5t-10.5 32.5t-24.5 25t-44.5 10q-35 0 -64.5 -17.5t-51.5 -44.5t-35 -59t-15 -61q-2 -30 8.5 -52.5t36.5 -29.5zM1014 304q-38 -26 -80.5 -51t-85 -49.5t-83 -49t-73.5 -48.5q5 1 15 1q36 0 62.5 -17t50.5 -38t48.5 -38
t55.5 -17q37 0 66 15.5t50 41.5t33.5 59t14.5 68q1 25 -2 47t-12 39t-23 27t-34 10h-3z" />
    <glyph glyph-name="threequarters" unicode="&#xbe;" horiz-adv-x="1188" 
d="M226 390h9t8 -1l134 129h-199l-16 -50h-4l16 50l19 61h247l44 42h4l-240 -232q45 -3 77.5 -17t54 -35t32 -48t9.5 -57q-1 -42 -21 -85t-57 -77t-88 -55.5t-114 -21.5q-40 0 -70 9.5t-50 26t-30 38.5t-10 46q0 13 4.5 26t13.5 24.5t22 19t30 9.5l4 -2q-14 -17 -21 -39
t-7 -45q0 -20 5.5 -39.5t18 -34.5t32.5 -24.5t49 -10.5q52 0 94.5 21t72.5 55.5t46 78t17 88.5q1 30 -7 57t-24.5 47t-43 32t-62.5 12zM705 621h5l-205 -662h-5zM1019 689q11 4 26.5 2.5t29.5 -11t22.5 -28t5.5 -46.5q-3 -25 -20 -54t-43 -59t-58 -59t-64 -55.5t-62 -48
t-51 -36.5q15 -2 32.5 -9t37 -16.5t40.5 -20t42 -18.5l48 146q31 17 52 39t27 37h3l-77 -235h5q35 -2 59 11t31 39h3q-8 -31 -35 -43t-65 -13l-68 -207h69l-1 -4h-202l1 4h76l69 209q-38 4 -75.5 10.5t-69 10t-53.5 1t-28 -16.5h-5q25 74 78 76q21 15 51 37t62.5 48
t64.5 55.5t58 59.5t43.5 58.5t20.5 53.5q3 30 -8 43.5t-27.5 14.5t-34 -8t-26.5 -24q-8 0 -12 6t-3 15t8.5 19t22.5 17z" />
    <glyph glyph-name="questiondown" unicode="&#xbf;" horiz-adv-x="267" 
d="M94 -201q5 2 9 2h8q11 0 20 -6t15 -15.5t9.5 -20.5t3.5 -21q1 -25 -12 -49t-36.5 -43t-55.5 -30.5t-69 -11.5q-58 0 -90 34t-34 82q-2 56 23 97.5t64 72.5t85 55t85 45.5t65 44t25 50.5q-1 25 -15 39.5t-37 14.5q-16 0 -29 -6.5t-22 -16.5t-13.5 -22.5t-4.5 -25.5
t5 -25.5t17 -19.5q0 -9 -9 -16.5t-19 -7.5q-14 0 -24.5 12t-10.5 29q-1 18 7.5 36.5t23.5 33t35.5 24t43.5 9.5q25 0 40 -16t16 -42q2 -42 -23 -75t-63.5 -62t-83 -55.5t-83 -55t-63.5 -61t-24 -73.5q2 -40 30.5 -67.5t82.5 -27.5q33 0 56 12.5t37.5 32t20.5 42.5t5 45
q0 29 -15 52zM231 240q-2 -15 -14 -25.5t-27 -10.5q-13 0 -21 8.5t-8 21.5q0 17 11.5 29t28.5 12q14 0 22 -8.5t8 -22.5v-4z" />
    <glyph glyph-name="Agrave" unicode="&#xc0;" horiz-adv-x="750" 
d="M694 597l-81 -593h63l-1 -4h-192l2 4h68l23 176h-146q-37 -44 -77 -82t-80.5 -66t-79 -43.5t-72.5 -13.5q-38 2 -57.5 18.5t-23 37.5t7.5 42.5t34 35.5q-48 25 -68.5 72.5t-17.5 101.5q2 49 25.5 94t61 79.5t86 55t99.5 20.5q37 0 89 -6t103 -11q-1 5 -1.5 9t0.5 9
q1 22 14 42.5t33.5 36.5t46 25t51.5 9q41 0 56.5 -18t13.5 -41q-2 -17 -9 -30q10 9 17.5 19t9.5 21h2zM169 87q-8 3 -16 3q-20 0 -40 -16.5t-29.5 -37t-2.5 -38t41 -19.5q33 -2 71 13t77 42.5t78.5 65t76.5 80.5h-26l2 4h27q37 43 69.5 89.5t58 91t42.5 85t22 71.5
q-37 -16 -90 -22t-108 -7.5t-104.5 -0.5t-79.5 -2q-54 -5 -96.5 -25t-73 -50t-47.5 -66.5t-20 -73.5q-2 -23 2.5 -46t14.5 -45t27 -40.5t41 -30.5q21 12 50 12q15 0 24.5 -9t11.5 -21q46 0 82 16.5t57.5 42.5t27 58.5t-7.5 64.5q1 4 7 10t17 6q16 0 23 -21q9 -29 -4.5 -60.5
t-42.5 -58.5t-71 -44.5t-88 -17.5v-1zM629 531q4 2 7 4.5t6 4.5q25 17 28 47q2 21 -12.5 38t-53.5 17q-24 0 -49 -9t-45 -24t-33 -34.5t-14 -41.5q-2 -10 1 -18q21 -2 40 -3t35 -1q23 0 46.5 4.5t43.5 15.5zM615 482q-10 -31 -28 -67.5t-41.5 -75.5t-52 -78.5t-60.5 -76.5
h143zM713 652q-30 5 -50.5 17.5t-33 27.5t-17.5 31t-4 28q2 21 18 28t33 -4q-9 -14 -10 -34t5.5 -39t21 -34t38.5 -18z" />
    <glyph glyph-name="Aacute" unicode="&#xc1;" horiz-adv-x="750" 
d="M694 597l-81 -593h63l-1 -4h-192l2 4h68l23 176h-146q-37 -44 -77 -82t-80.5 -66t-79 -43.5t-72.5 -13.5q-38 2 -57.5 18.5t-23 37.5t7.5 42.5t34 35.5q-48 25 -68.5 72.5t-17.5 101.5q2 49 25.5 94t61 79.5t86 55t99.5 20.5q37 0 89 -6t103 -11q-1 5 -1.5 9t0.5 9
q1 22 14 42.5t33.5 36.5t46 25t51.5 9q41 0 56.5 -18t13.5 -41q-2 -17 -9 -30q10 9 17.5 19t9.5 21h2zM169 87q-8 3 -16 3q-20 0 -40 -16.5t-29.5 -37t-2.5 -38t41 -19.5q33 -2 71 13t77 42.5t78.5 65t76.5 80.5h-26l2 4h27q37 43 69.5 89.5t58 91t42.5 85t22 71.5
q-37 -16 -90 -22t-108 -7.5t-104.5 -0.5t-79.5 -2q-54 -5 -96.5 -25t-73 -50t-47.5 -66.5t-20 -73.5q-2 -23 2.5 -46t14.5 -45t27 -40.5t41 -30.5q21 12 50 12q15 0 24.5 -9t11.5 -21q46 0 82 16.5t57.5 42.5t27 58.5t-7.5 64.5q1 4 7 10t17 6q16 0 23 -21q9 -29 -4.5 -60.5
t-42.5 -58.5t-71 -44.5t-88 -17.5v-1zM629 531q4 2 7 4.5t6 4.5q25 17 28 47q2 21 -12.5 38t-53.5 17q-24 0 -49 -9t-45 -24t-33 -34.5t-14 -41.5q-2 -10 1 -18q21 -2 40 -3t35 -1q23 0 46.5 4.5t43.5 15.5zM615 482q-10 -31 -28 -67.5t-41.5 -75.5t-52 -78.5t-60.5 -76.5
h143zM657 655q24 3 41.5 18t28 34t12.5 39t-7 34q17 11 33 4t18 -28q1 -12 -7 -28t-24.5 -31t-40 -27.5t-53.5 -17.5z" />
    <glyph glyph-name="Acircumflex" unicode="&#xc2;" horiz-adv-x="750" 
d="M694 597l-81 -593h63l-1 -4h-192l2 4h68l23 176h-146q-37 -44 -77 -82t-80.5 -66t-79 -43.5t-72.5 -13.5q-38 2 -57.5 18.5t-23 37.5t7.5 42.5t34 35.5q-48 25 -68.5 72.5t-17.5 101.5q2 49 25.5 94t61 79.5t86 55t99.5 20.5q37 0 89 -6t103 -11q-1 5 -1.5 9t0.5 9
q1 22 14 42.5t33.5 36.5t46 25t51.5 9q41 0 56.5 -18t13.5 -41q-2 -17 -9 -30q10 9 17.5 19t9.5 21h2zM169 87q-8 3 -16 3q-20 0 -40 -16.5t-29.5 -37t-2.5 -38t41 -19.5q33 -2 71 13t77 42.5t78.5 65t76.5 80.5h-26l2 4h27q37 43 69.5 89.5t58 91t42.5 85t22 71.5
q-37 -16 -90 -22t-108 -7.5t-104.5 -0.5t-79.5 -2q-54 -5 -96.5 -25t-73 -50t-47.5 -66.5t-20 -73.5q-2 -23 2.5 -46t14.5 -45t27 -40.5t41 -30.5q21 12 50 12q15 0 24.5 -9t11.5 -21q46 0 82 16.5t57.5 42.5t27 58.5t-7.5 64.5q1 4 7 10t17 6q16 0 23 -21q9 -29 -4.5 -60.5
t-42.5 -58.5t-71 -44.5t-88 -17.5v-1zM629 531q4 2 7 4.5t6 4.5q25 17 28 47q2 21 -12.5 38t-53.5 17q-24 0 -49 -9t-45 -24t-33 -34.5t-14 -41.5q-2 -10 1 -18q21 -2 40 -3t35 -1q23 0 46.5 4.5t43.5 15.5zM615 482q-10 -31 -28 -67.5t-41.5 -75.5t-52 -78.5t-60.5 -76.5
h143zM683 795h28l65 -132h-4l-78 90h-9l-123 -90h-4z" />
    <glyph glyph-name="Atilde" unicode="&#xc3;" horiz-adv-x="750" 
d="M694 597l-81 -593h63l-1 -4h-192l2 4h68l23 176h-146q-37 -44 -77 -82t-80.5 -66t-79 -43.5t-72.5 -13.5q-38 2 -57.5 18.5t-23 37.5t7.5 42.5t34 35.5q-48 25 -68.5 72.5t-17.5 101.5q2 49 25.5 94t61 79.5t86 55t99.5 20.5q37 0 89 -6t103 -11q-1 5 -1.5 9t0.5 9
q1 22 14 42.5t33.5 36.5t46 25t51.5 9q41 0 56.5 -18t13.5 -41q-2 -17 -9 -30q10 9 17.5 19t9.5 21h2zM169 87q-8 3 -16 3q-20 0 -40 -16.5t-29.5 -37t-2.5 -38t41 -19.5q33 -2 71 13t77 42.5t78.5 65t76.5 80.5h-26l2 4h27q37 43 69.5 89.5t58 91t42.5 85t22 71.5
q-37 -16 -90 -22t-108 -7.5t-104.5 -0.5t-79.5 -2q-54 -5 -96.5 -25t-73 -50t-47.5 -66.5t-20 -73.5q-2 -23 2.5 -46t14.5 -45t27 -40.5t41 -30.5q21 12 50 12q15 0 24.5 -9t11.5 -21q46 0 82 16.5t57.5 42.5t27 58.5t-7.5 64.5q1 4 7 10t17 6q16 0 23 -21q9 -29 -4.5 -60.5
t-42.5 -58.5t-71 -44.5t-88 -17.5v-1zM629 531q4 2 7 4.5t6 4.5q25 17 28 47q2 21 -12.5 38t-53.5 17q-24 0 -49 -9t-45 -24t-33 -34.5t-14 -41.5q-2 -10 1 -18q21 -2 40 -3t35 -1q23 0 46.5 4.5t43.5 15.5zM615 482q-10 -31 -28 -67.5t-41.5 -75.5t-52 -78.5t-60.5 -76.5
h143zM541 701q8 35 33 60t53 25q15 0 28.5 -6.5t27 -14t27.5 -13.5t29 -6q12 0 21.5 5t16.5 12t11.5 15.5t6.5 15.5h4q-2 -8 -8 -22.5t-16 -29t-25 -25.5t-35 -11q-16 0 -29.5 6t-26 13.5t-25.5 13.5t-28 6q-28 0 -42 -13.5t-19 -30.5h-4z" />
    <glyph glyph-name="Adieresis" unicode="&#xc4;" horiz-adv-x="750" 
d="M694 597l-81 -593h63l-1 -4h-192l2 4h68l23 176h-146q-37 -44 -77 -82t-80.5 -66t-79 -43.5t-72.5 -13.5q-38 2 -57.5 18.5t-23 37.5t7.5 42.5t34 35.5q-48 25 -68.5 72.5t-17.5 101.5q2 49 25.5 94t61 79.5t86 55t99.5 20.5q37 0 89 -6t103 -11q-1 5 -1.5 9t0.5 9
q1 22 14 42.5t33.5 36.5t46 25t51.5 9q41 0 56.5 -18t13.5 -41q-2 -17 -9 -30q10 9 17.5 19t9.5 21h2zM169 87q-8 3 -16 3q-20 0 -40 -16.5t-29.5 -37t-2.5 -38t41 -19.5q33 -2 71 13t77 42.5t78.5 65t76.5 80.5h-26l2 4h27q37 43 69.5 89.5t58 91t42.5 85t22 71.5
q-37 -16 -90 -22t-108 -7.5t-104.5 -0.5t-79.5 -2q-54 -5 -96.5 -25t-73 -50t-47.5 -66.5t-20 -73.5q-2 -23 2.5 -46t14.5 -45t27 -40.5t41 -30.5q21 12 50 12q15 0 24.5 -9t11.5 -21q46 0 82 16.5t57.5 42.5t27 58.5t-7.5 64.5q1 4 7 10t17 6q16 0 23 -21q9 -29 -4.5 -60.5
t-42.5 -58.5t-71 -44.5t-88 -17.5v-1zM629 531q4 2 7 4.5t6 4.5q25 17 28 47q2 21 -12.5 38t-53.5 17q-24 0 -49 -9t-45 -24t-33 -34.5t-14 -41.5q-2 -10 1 -18q21 -2 40 -3t35 -1q23 0 46.5 4.5t43.5 15.5zM615 482q-10 -31 -28 -67.5t-41.5 -75.5t-52 -78.5t-60.5 -76.5
h143zM587 763q3 14 13 23t23 9q14 0 22 -9t5 -23q-2 -14 -12.5 -22.5t-24.5 -8.5t-21 8.5t-5 22.5zM723 763q3 14 13 23t23 9q14 0 22 -9t5 -23q-2 -14 -12.5 -22.5t-24.5 -8.5t-21 8.5t-5 22.5z" />
    <glyph glyph-name="Aring" unicode="&#xc5;" horiz-adv-x="750" 
d="M694 597l-81 -593h63l-1 -4h-192l2 4h68l23 176h-146q-37 -44 -77 -82t-80.5 -66t-79 -43.5t-72.5 -13.5q-38 2 -57.5 18.5t-23 37.5t7.5 42.5t34 35.5q-48 25 -68.5 72.5t-17.5 101.5q2 49 25.5 94t61 79.5t86 55t99.5 20.5q37 0 89 -6t103 -11q-1 5 -1.5 9t0.5 9
q1 22 14 42.5t33.5 36.5t46 25t51.5 9q41 0 56.5 -18t13.5 -41q-2 -17 -9 -30q10 9 17.5 19t9.5 21h2zM169 87q-8 3 -16 3q-20 0 -40 -16.5t-29.5 -37t-2.5 -38t41 -19.5q33 -2 71 13t77 42.5t78.5 65t76.5 80.5h-26l2 4h27q37 43 69.5 89.5t58 91t42.5 85t22 71.5
q-37 -16 -90 -22t-108 -7.5t-104.5 -0.5t-79.5 -2q-54 -5 -96.5 -25t-73 -50t-47.5 -66.5t-20 -73.5q-2 -23 2.5 -46t14.5 -45t27 -40.5t41 -30.5q21 12 50 12q15 0 24.5 -9t11.5 -21q46 0 82 16.5t57.5 42.5t27 58.5t-7.5 64.5q1 4 7 10t17 6q16 0 23 -21q9 -29 -4.5 -60.5
t-42.5 -58.5t-71 -44.5t-88 -17.5v-1zM629 531q4 2 7 4.5t6 4.5q25 17 28 47q2 21 -12.5 38t-53.5 17q-24 0 -49 -9t-45 -24t-33 -34.5t-14 -41.5q-2 -10 1 -18q21 -2 40 -3t35 -1q23 0 46.5 4.5t43.5 15.5zM615 482q-10 -31 -28 -67.5t-41.5 -75.5t-52 -78.5t-60.5 -76.5
h143zM621 714q0 16 7.5 30.5t20 25.5t28 18t32.5 7q25 0 41 -15.5t16 -38.5q0 -17 -7.5 -32t-19.5 -26.5t-28 -18t-32 -6.5q-26 0 -42 16t-16 40zM709 791q-15 0 -26.5 -9t-19 -22t-11.5 -29t-4 -29q0 -17 7 -28.5t25 -11.5q15 0 26.5 9t19 22.5t11 29.5t3.5 30q0 16 -7 27
t-24 11z" />
    <glyph glyph-name="AE" unicode="&#xc6;" horiz-adv-x="477" 
d="M250 172q4 -7 4 -16q0 -13 -12 -22.5t-32 -9.5q-7 0 -12 1l-10 2q-8 -6 -18 -6t-18 4q0 -30 -15 -55.5t-39 -25.5q-15 0 -21.5 6.5t-6.5 14.5q0 12 9.5 23t23.5 11q8 0 15 -5l-1 -1q-3 1 -8 1q-14 0 -14 -10q0 -11 15 -11q7 0 13.5 5.5t11.5 13.5t8.5 17.5t3.5 17.5
q-6 3 -12.5 5.5t-12.5 2.5q-9 0 -17 -4.5t-8 -14.5q0 -6 1 -8t2 -3l-2 -3q-28 0 -28 28q0 14 9 26.5t28 12.5q12 0 20 -6t14.5 -13t13 -13t15.5 -6q3 0 5 1q-10 5 -17 13t-12 16l-10 16t-10 14q-14 -14 -25 -14q-12 0 -12 12q0 6 5.5 12t19.5 6h11q8 14 13 31.5t5 31.5
q0 5 -1 10t-6 5q-10 0 -15.5 -11.5t-5.5 -24.5q0 -20 13 -24v-3q-2 0 -2.5 0.5t-1.5 0.5q-6 0 -14.5 -3t-17.5 -7t-18.5 -7t-17.5 -3q-15 0 -25 9.5t-10 23.5q0 9 6 15.5t14 6.5q2 0 4 -0.5t7 -2.5l1 -4q-7 -2 -7 -10t7.5 -15t19.5 -7t23 4t22 4q-6 7 -6 23q0 19 9.5 37.5
t29.5 18.5q11 0 17 -7.5t6 -18.5q0 -17 -11 -39t-26 -39q9 -6 17 -14.5t16.5 -16.5t18.5 -14t23 -6q30 0 35 21h3zM254 39q6 0 11.5 -4.5t5.5 -14.5q0 -12 -11 -21t-22 -9q-14 0 -29.5 11.5t-28.5 19.5q-10 -15 -22 -15q-15 0 -15 11t10 16t19 3q4 11 6.5 20.5t2.5 11.5
q-2 -8 -7 -15.5t-13 -7.5q-2 0 -5.5 3t-3.5 9q0 14 5.5 24.5t5.5 24.5q0 5 -2 9q0 2 7 2q6 0 8.5 -4.5t2.5 -7.5v-3q-1 -2 -1.5 -7.5t-2.5 -12.5q-2 -8 -4 -17v-2q0 -2 2 -2t4 5t4 12t3.5 14.5t1.5 12.5v4q4 3 7 3q11 0 11 -12q0 -6 -2 -15.5t-6 -25.5q-3 -14 -10 -28
q11 -5 20.5 -13t20.5 -8t17.5 5.5t6.5 13.5q0 3 -5 7l3 3h5zM331 165q6 -8 6 -16q0 -9 -7.5 -18.5t-24.5 -9.5q-18 0 -29 12t-11 27q0 5 1 10.5t3 12.5q-2 -1 -6 -1q-9 0 -9 11q0 8 4.5 21.5t4.5 21.5q0 5 -2 5l1 6q2 0 4 0.5t5 0.5q10 0 10 -13q2 3 5 8t10 5q8 0 10.5 -5
t2.5 -13q0 -13 -9 -29.5t-10 -30.5q0 -8 4 -15t15 -7q15 0 21 16zM413 124q7 0 11.5 -7t4.5 -15q0 -14 -9.5 -23t-22.5 -9q-9 0 -18.5 3t-18.5 6t-17 6t-13 3q0 -9 1.5 -21t1.5 -26q0 -17 -7 -32t-24 -15q-19 0 -21 15l2 2q2 -1 4.5 -2t4.5 -1q11 0 14.5 11.5t3.5 25.5v32
q0 15 6.5 25t16.5 10q5 0 7.5 -3.5t2.5 -6.5q0 -4 -2 -6l-3 -3q11 -1 20.5 -4.5t20.5 -3.5q13 0 20.5 7t7.5 15q0 9 -8 9l2 5q4 3 12 3zM214 95q0 7 -4 4v4q2 3 5.5 6t8.5 3q10 0 10 -9q0 -2 -1 -4h1q2 5 6 8.5t9 3.5q12 0 12 -18q0 -5 -2 -13t-5.5 -15.5t-8.5 -13t-11 -5.5
q-10 0 -10 14q0 5 1 9h-1q0 -4 -2.5 -16t-2.5 -22q0 -6 1 -9q-6 -2 -9 -2q-10 0 -10 11q0 6 2 15t4.5 18.5t4.5 17.5t2 13zM209 182q-13 0 -13 16q0 23 12 36t20 13q10 0 10 -11h1q3 4 1 11q3 1 8 1q8 0 8 -10q0 -9 -5 -23t-5 -22q0 -5 1 -6l-1 -5h-4q-11 0 -11 11q0 6 3 11
h-1q-4 -8 -9.5 -15t-14.5 -7zM305 74q-3 -11 -8.5 -19.5t-17.5 -8.5q-9 0 -13 6.5t-4 15.5q0 14 8.5 28.5t20.5 14.5q15 0 15 -16q0 -8 -5.5 -14.5t-17.5 -8.5q4 -4 7 -4q9 0 11 8zM174 238q4 10 15 10q9 0 9 -10q0 -12 -6 -24t-6 -23q0 -4 1 -4q0 -1 1 0l-2 -5h-5
q-6 0 -8.5 3.5t-2.5 8.5q0 10 4.5 18.5t4.5 19.5q0 4 -2 4q-1 0 -2 -1zM241 250q-9 1 -9 10q0 8 4.5 13.5t11.5 5.5q9 0 9 -9q0 -6 -5 -9q-1 2 -4 2q-7 0 -7 -7q0 -1 2 -3zM289 229q0 8 -5 6q-2 -1 -7 -12.5t-5 -34.5q5 11 11 22.5t6 18.5zM208 267q-2 -5 -6 -8.5t-11 -3.5
h-3l-2 1q2 1 2.5 4.5t1.5 7.5t3 7t7 3q8 0 8 -9v-2zM240 100q-5 0 -8 -8t-3 -13q0 -7 4 -7t7.5 7.5t3.5 13.5q0 7 -4 7zM100 182q11 0 19 15q-3 1 -8 1q-8 0 -13 -3.5t-5 -7.5q0 -5 7 -5zM234 236q-4 0 -7 -8.5t-3 -14.5v-3q0 -2 2 -2q3 0 5.5 4.5t4 9.5t1.5 9.5t-3 4.5z
M291 105q-5 0 -7.5 -9t-2.5 -17q6 3 9.5 10t3.5 12q0 4 -3 4zM155 12q7 0 14 16q-19 0 -19 -11q0 -5 5 -5zM332 93q7 0 7 9q0 2 -1.5 3.5t-3.5 0.5q-4 -1 -4 -13h2z" />
    <glyph glyph-name="Ccedilla" unicode="&#xc7;" horiz-adv-x="468" 
d="M420 217q0 -41 -16.5 -82.5t-46.5 -75t-71.5 -55t-90.5 -21.5q-61 0 -99.5 27t-57.5 71t-19 100.5t16.5 115.5t48.5 115.5t77 100.5t102.5 71t125.5 27q47 0 73 -19t35 -48t3 -62.5t-22.5 -62.5t-42.5 -48t-56 -19q-26 0 -36 12t-5 29q29 4 54 21.5t42.5 41.5t25.5 50.5
t4 49t-22 37t-53 14.5q-41 0 -82 -26.5t-78 -70t-68 -99.5t-51.5 -114t-28.5 -114t0.5 -99.5t36 -70t77.5 -26.5q48 0 89 21t70 54.5t45.5 74.5t16.5 80h4zM98 -156q2 -9 12 -17t28 -8q15 0 26 6.5t18.5 16.5t11.5 22.5t4 23.5q0 16 -7.5 27.5t-23.5 11.5q-10 0 -19 -4l-7 8
l49 55h5l-48 -55l2 -2q15 5 26 5q23 0 39.5 -13.5t16.5 -33.5q0 -13 -5.5 -25.5t-16.5 -23t-29 -17t-42 -6.5q-17 0 -29 8.5t-14 18.5z" />
    <glyph glyph-name="Egrave" unicode="&#xc8;" horiz-adv-x="427" 
d="M335 337h-100q-54 0 -92 -26t-60.5 -65t-28.5 -84t4.5 -84t37 -65t70.5 -26q48 0 89 21t70 54t45.5 74t16.5 81h4q0 -41 -16.5 -82.5t-46.5 -75t-71.5 -55t-90.5 -21.5q-54 0 -89 18t-54.5 47.5t-23.5 66t4.5 73t28 70t48.5 56t66 31t80 -4.5h20q-37 7 -58 30t-26.5 53
t4.5 63t34.5 61t64.5 46t95 18q41 0 67 -15t39 -37.5t12 -48.5t-14.5 -48.5t-39.5 -37.5t-63 -15l-4 3q23 6 39.5 22.5t26 38t11 45.5t-5.5 43.5t-24 32.5t-44 13q-38 0 -67.5 -19.5t-50 -49.5t-29.5 -64t-5.5 -64t20 -49.5t49.5 -19.5h58v-4zM443 652q-30 5 -50.5 17.5
t-33 27.5t-17.5 31t-4 28q2 21 18 28t33 -4q-9 -14 -10 -34t5.5 -39t21 -34t38.5 -18z" />
    <glyph glyph-name="Eacute" unicode="&#xc9;" horiz-adv-x="427" 
d="M335 337h-100q-54 0 -92 -26t-60.5 -65t-28.5 -84t4.5 -84t37 -65t70.5 -26q48 0 89 21t70 54t45.5 74t16.5 81h4q0 -41 -16.5 -82.5t-46.5 -75t-71.5 -55t-90.5 -21.5q-54 0 -89 18t-54.5 47.5t-23.5 66t4.5 73t28 70t48.5 56t66 31t80 -4.5h20q-37 7 -58 30t-26.5 53
t4.5 63t34.5 61t64.5 46t95 18q41 0 67 -15t39 -37.5t12 -48.5t-14.5 -48.5t-39.5 -37.5t-63 -15l-4 3q23 6 39.5 22.5t26 38t11 45.5t-5.5 43.5t-24 32.5t-44 13q-38 0 -67.5 -19.5t-50 -49.5t-29.5 -64t-5.5 -64t20 -49.5t49.5 -19.5h58v-4zM339 655q24 3 41.5 18t28 34
t12.5 39t-7 34q17 11 33 4t18 -28q1 -12 -7 -28t-24.5 -31t-40 -27.5t-53.5 -17.5z" />
    <glyph glyph-name="Ecircumflex" unicode="&#xca;" horiz-adv-x="427" 
d="M335 337h-100q-54 0 -92 -26t-60.5 -65t-28.5 -84t4.5 -84t37 -65t70.5 -26q48 0 89 21t70 54t45.5 74t16.5 81h4q0 -41 -16.5 -82.5t-46.5 -75t-71.5 -55t-90.5 -21.5q-54 0 -89 18t-54.5 47.5t-23.5 66t4.5 73t28 70t48.5 56t66 31t80 -4.5h20q-37 7 -58 30t-26.5 53
t4.5 63t34.5 61t64.5 46t95 18q41 0 67 -15t39 -37.5t12 -48.5t-14.5 -48.5t-39.5 -37.5t-63 -15l-4 3q23 6 39.5 22.5t26 38t11 45.5t-5.5 43.5t-24 32.5t-44 13q-38 0 -67.5 -19.5t-50 -49.5t-29.5 -64t-5.5 -64t20 -49.5t49.5 -19.5h58v-4zM407 779h28l65 -132h-4l-78 90
h-9l-123 -90h-4z" />
    <glyph glyph-name="Edieresis" unicode="&#xcb;" horiz-adv-x="427" 
d="M335 337h-100q-54 0 -92 -26t-60.5 -65t-28.5 -84t4.5 -84t37 -65t70.5 -26q48 0 89 21t70 54t45.5 74t16.5 81h4q0 -41 -16.5 -82.5t-46.5 -75t-71.5 -55t-90.5 -21.5q-54 0 -89 18t-54.5 47.5t-23.5 66t4.5 73t28 70t48.5 56t66 31t80 -4.5h20q-37 7 -58 30t-26.5 53
t4.5 63t34.5 61t64.5 46t95 18q41 0 67 -15t39 -37.5t12 -48.5t-14.5 -48.5t-39.5 -37.5t-63 -15l-4 3q23 6 39.5 22.5t26 38t11 45.5t-5.5 43.5t-24 32.5t-44 13q-38 0 -67.5 -19.5t-50 -49.5t-29.5 -64t-5.5 -64t20 -49.5t49.5 -19.5h58v-4zM307 762q3 14 13 23t23 9
q14 0 22 -9t5 -23q-2 -14 -12.5 -22.5t-24.5 -8.5t-21 8.5t-5 22.5zM443 762q3 14 13 23t23 9q14 0 22 -9t5 -23q-2 -14 -12.5 -22.5t-24.5 -8.5t-21 8.5t-5 22.5z" />
    <glyph glyph-name="Igrave" unicode="&#xcc;" horiz-adv-x="649" 
d="M677 562l-114 -395q-12 -43 -35.5 -81t-56.5 -66.5t-74 -45t-89 -16.5t-80 17.5t-49.5 45t-22 60.5t0.5 64h-16.5t-16.5 2q-47 6 -78.5 26.5t-49 49.5t-22 64.5t1.5 71.5q9 48 37.5 90t70 71.5t91.5 44t101 8.5q35 -5 81.5 -16.5t91.5 -22.5q-2 10 1 19q4 22 19.5 41
t38 32t48.5 19t52 3q40 -5 53 -25t9 -42q-5 -23 -20.5 -37.5t-39.5 -23.5q18 2 37 12.5t29 29.5h1zM307 312q2 4 8.5 9.5t17.5 3.5q16 -2 20 -24q5 -24 -6 -49t-33.5 -46t-54 -36.5t-67.5 -21.5q-18 -32 -18.5 -65t15 -60t46 -44t74.5 -17q43 0 75 20.5t55 51.5t38 67t24 67
l101 345l-7 2q-38 -10 -87 -9.5t-99 5.5t-94.5 12t-73.5 11q-54 7 -99 -7.5t-78.5 -41.5t-55.5 -62.5t-29 -72.5q-6 -30 -1 -62.5t22 -61t47.5 -49t76.5 -26.5q8 -2 16.5 -2h16.5q7 36 26 62.5t45 31.5q16 3 24.5 -5t8.5 -20q-45 -28 -66 -65q31 7 55.5 22.5t39.5 37t20 47
t-3 52.5zM454 553q-3 -9 -1 -20q20 -5 39.5 -9t36.5 -6q21 -2 43.5 0t42 9.5t33.5 20.5t18 33q4 21 -8 39.5t-50 23.5q-24 3 -50 -3t-47.5 -18.5t-37 -30.5t-19.5 -39zM695 652q-30 5 -50.5 17.5t-33 27.5t-17.5 31t-4 28q2 21 18 28t33 -4q-9 -14 -10 -34t5.5 -39t21 -34
t38.5 -18z" />
    <glyph glyph-name="Iacute" unicode="&#xcd;" horiz-adv-x="649" 
d="M677 562l-114 -395q-12 -43 -35.5 -81t-56.5 -66.5t-74 -45t-89 -16.5t-80 17.5t-49.5 45t-22 60.5t0.5 64h-16.5t-16.5 2q-47 6 -78.5 26.5t-49 49.5t-22 64.5t1.5 71.5q9 48 37.5 90t70 71.5t91.5 44t101 8.5q35 -5 81.5 -16.5t91.5 -22.5q-2 10 1 19q4 22 19.5 41
t38 32t48.5 19t52 3q40 -5 53 -25t9 -42q-5 -23 -20.5 -37.5t-39.5 -23.5q18 2 37 12.5t29 29.5h1zM307 312q2 4 8.5 9.5t17.5 3.5q16 -2 20 -24q5 -24 -6 -49t-33.5 -46t-54 -36.5t-67.5 -21.5q-18 -32 -18.5 -65t15 -60t46 -44t74.5 -17q43 0 75 20.5t55 51.5t38 67t24 67
l101 345l-7 2q-38 -10 -87 -9.5t-99 5.5t-94.5 12t-73.5 11q-54 7 -99 -7.5t-78.5 -41.5t-55.5 -62.5t-29 -72.5q-6 -30 -1 -62.5t22 -61t47.5 -49t76.5 -26.5q8 -2 16.5 -2h16.5q7 36 26 62.5t45 31.5q16 3 24.5 -5t8.5 -20q-45 -28 -66 -65q31 7 55.5 22.5t39.5 37t20 47
t-3 52.5zM454 553q-3 -9 -1 -20q20 -5 39.5 -9t36.5 -6q21 -2 43.5 0t42 9.5t33.5 20.5t18 33q4 21 -8 39.5t-50 23.5q-24 3 -50 -3t-47.5 -18.5t-37 -30.5t-19.5 -39zM613 655q24 3 41.5 18t28 34t12.5 39t-7 34q17 11 33 4t18 -28q1 -12 -7 -28t-24.5 -31t-40 -27.5
t-53.5 -17.5z" />
    <glyph glyph-name="Icircumflex" unicode="&#xce;" horiz-adv-x="649" 
d="M677 562l-114 -395q-12 -43 -35.5 -81t-56.5 -66.5t-74 -45t-89 -16.5t-80 17.5t-49.5 45t-22 60.5t0.5 64h-16.5t-16.5 2q-47 6 -78.5 26.5t-49 49.5t-22 64.5t1.5 71.5q9 48 37.5 90t70 71.5t91.5 44t101 8.5q35 -5 81.5 -16.5t91.5 -22.5q-2 10 1 19q4 22 19.5 41
t38 32t48.5 19t52 3q40 -5 53 -25t9 -42q-5 -23 -20.5 -37.5t-39.5 -23.5q18 2 37 12.5t29 29.5h1zM307 312q2 4 8.5 9.5t17.5 3.5q16 -2 20 -24q5 -24 -6 -49t-33.5 -46t-54 -36.5t-67.5 -21.5q-18 -32 -18.5 -65t15 -60t46 -44t74.5 -17q43 0 75 20.5t55 51.5t38 67t24 67
l101 345l-7 2q-38 -10 -87 -9.5t-99 5.5t-94.5 12t-73.5 11q-54 7 -99 -7.5t-78.5 -41.5t-55.5 -62.5t-29 -72.5q-6 -30 -1 -62.5t22 -61t47.5 -49t76.5 -26.5q8 -2 16.5 -2h16.5q7 36 26 62.5t45 31.5q16 3 24.5 -5t8.5 -20q-45 -28 -66 -65q31 7 55.5 22.5t39.5 37t20 47
t-3 52.5zM454 553q-3 -9 -1 -20q20 -5 39.5 -9t36.5 -6q21 -2 43.5 0t42 9.5t33.5 20.5t18 33q4 21 -8 39.5t-50 23.5q-24 3 -50 -3t-47.5 -18.5t-37 -30.5t-19.5 -39zM661 795h28l65 -132h-4l-78 90h-9l-123 -90h-4z" />
    <glyph glyph-name="Idieresis" unicode="&#xcf;" horiz-adv-x="649" 
d="M677 562l-114 -395q-12 -43 -35.5 -81t-56.5 -66.5t-74 -45t-89 -16.5t-80 17.5t-49.5 45t-22 60.5t0.5 64h-16.5t-16.5 2q-47 6 -78.5 26.5t-49 49.5t-22 64.5t1.5 71.5q9 48 37.5 90t70 71.5t91.5 44t101 8.5q35 -5 81.5 -16.5t91.5 -22.5q-2 10 1 19q4 22 19.5 41
t38 32t48.5 19t52 3q40 -5 53 -25t9 -42q-5 -23 -20.5 -37.5t-39.5 -23.5q18 2 37 12.5t29 29.5h1zM307 312q2 4 8.5 9.5t17.5 3.5q16 -2 20 -24q5 -24 -6 -49t-33.5 -46t-54 -36.5t-67.5 -21.5q-18 -32 -18.5 -65t15 -60t46 -44t74.5 -17q43 0 75 20.5t55 51.5t38 67t24 67
l101 345l-7 2q-38 -10 -87 -9.5t-99 5.5t-94.5 12t-73.5 11q-54 7 -99 -7.5t-78.5 -41.5t-55.5 -62.5t-29 -72.5q-6 -30 -1 -62.5t22 -61t47.5 -49t76.5 -26.5q8 -2 16.5 -2h16.5q7 36 26 62.5t45 31.5q16 3 24.5 -5t8.5 -20q-45 -28 -66 -65q31 7 55.5 22.5t39.5 37t20 47
t-3 52.5zM454 553q-3 -9 -1 -20q20 -5 39.5 -9t36.5 -6q21 -2 43.5 0t42 9.5t33.5 20.5t18 33q4 21 -8 39.5t-50 23.5q-24 3 -50 -3t-47.5 -18.5t-37 -30.5t-19.5 -39zM580 762q3 14 13 23t23 9q14 0 22 -9t5 -23q-2 -14 -12.5 -22.5t-24.5 -8.5t-21 8.5t-5 22.5zM716 762
q3 14 13 23t23 9q14 0 22 -9t5 -23q-2 -14 -12.5 -22.5t-24.5 -8.5t-21 8.5t-5 22.5z" />
    <glyph glyph-name="Eth" unicode="&#xd0;" horiz-adv-x="851" 
d="M248 -8l3 4h71q2 7 9 29t16.5 53.5t22 70.5t25.5 80q-27 18 -49 40l-42 42l-2 -2q12 -25 9 -57t-18 -60.5t-42.5 -48t-64.5 -19.5q-34 0 -59.5 10.5t-43.5 28.5t-29 40.5t-15 46.5q-7 37 2 77.5t33 76.5t63 63t92 37q26 5 55 7t59 3t59 3t56 7q19 4 38.5 11t35 17.5
t26 25t10.5 33.5q0 14 -8.5 29.5t-32.5 15.5q-18 0 -36.5 -15.5t-22.5 -45.5q-9 3 -13 15.5t0 27t17 26t38 11.5q28 0 44.5 -21t16.5 -44q0 -10 -3 -17l1 1l-6 -20q20 15 44.5 25.5t53.5 10.5q61 0 101 -26.5t60 -70t20.5 -99t-16.5 -113.5t-51.5 -113.5t-85 -99t-116 -70
t-145.5 -26.5h-180zM661 606q-29 0 -54 -11.5t-47 -28.5l-99 -313q23 -18 45.5 -30.5t46.5 -12.5t46 11t38.5 28t26 38t9.5 41q0 23 -10.5 45t-33.5 39q6 10 15 17t22 7q22 0 32.5 -19t10.5 -39q0 -26 -12.5 -57.5t-38 -59t-64 -46.5t-90.5 -19q-32 0 -59 9l-66 -209h49
q65 0 118.5 26t95.5 69t72 98t46.5 112t19 112t-9.5 98t-39 69t-70 26zM218 355q12 2 22 3t20 1q48 0 85 -20.5t69 -46.5q12 36 23 71t20.5 65t17 54t12.5 38q-40 -17 -87 -28t-89 -19q-17 -4 -33 -7l-32 -6q-53 -10 -90.5 -34.5t-61 -56t-33 -66.5t-6.5 -67
q2 -21 11.5 -40.5t26 -34.5t40 -24t53.5 -9q41 0 70 24.5t42 58.5t8 68.5t-31 55.5q-23 17 -47 17h-9z" />
    <glyph glyph-name="Ntilde" unicode="&#xd1;" horiz-adv-x="818" 
d="M1052 -117q39 0 61.5 -22t29 -54.5t-3 -70.5t-35.5 -70.5t-67.5 -54.5t-99.5 -22q-59 0 -102.5 28.5t-75.5 77t-55 114t-41 139.5t-34 153t-34 154.5t-41 145t-54 123.5l-155 -521h103l-1 -4h-217l2 4h109l155 527q-36 61 -87 97t-124 36q-53 0 -105 -20.5t-92.5 -55.5
t-65.5 -82t-25 -101q0 -38 13 -72t37 -59t58.5 -39.5t78.5 -14.5q39 0 70.5 11t54 29t34.5 42.5t12 51.5q0 12 -2 24t-7 23q1 4 7 9.5t17 5.5t18.5 -11.5t7.5 -30.5q0 -28 -17 -56t-46.5 -50.5t-68 -37t-80.5 -14.5q-45 0 -80.5 15t-60 40.5t-37.5 60t-13 73.5q0 55 25 103
t66 83.5t93.5 56t107.5 20.5q73 0 129 -23.5t98.5 -64.5t73.5 -96.5t53.5 -120.5t38.5 -135.5t30 -140.5h3l137 465l2 1h-105l1 4h217l-2 -4h-109l-141 -483q17 -93 33.5 -178.5t40.5 -151.5t60 -105.5t92 -39.5t96.5 21t65.5 53t34.5 68.5t4 68.5t-27 53t-58.5 21
q-23 0 -41.5 -10t-32 -26t-21.5 -35.5t-9 -37.5q-1 -10 1 -18t5 -16q-8 -8 -18 -9t-19 4.5t-14 16t-2 25.5q4 22 17 42t33.5 35t46 24t54.5 9zM593 701q8 35 33 60t53 25q15 0 28.5 -6.5t27 -14t27.5 -13.5t29 -6q12 0 21.5 5t16.5 12t11.5 15.5t6.5 15.5h4q-2 -8 -8 -22.5
t-16 -29t-25 -25.5t-35 -11q-16 0 -29.5 6t-26 13.5t-25.5 13.5t-28 6q-28 0 -42 -13.5t-19 -30.5h-4z" />
    <glyph glyph-name="Ograve" unicode="&#xd2;" horiz-adv-x="567" 
d="M305 369q-1 -19 -14 -30.5t-36 -11.5q-26 0 -41.5 20.5t-19.5 52t4.5 67.5t31 67.5t58.5 52t87 20.5q62 0 102 -26.5t61 -70t23.5 -99.5t-11.5 -114t-43 -114t-72 -99.5t-98 -70t-121 -26.5v4q46 0 88 26.5t77 69.5t61 98t41 112t18 112t-9.5 98t-41 69.5t-75.5 26.5
q-42 0 -68 -18.5t-39.5 -46t-15.5 -59t4.5 -57t18.5 -40t28 -8.5zM220 516q-39 -28 -66 -78t-42 -108t-16.5 -118.5t11 -109.5t39.5 -80t70 -31v-4q-64 0 -105.5 32.5t-61 83.5t-17.5 113t24 121t63.5 108t100.5 73v-2zM489 652q-30 5 -50.5 17.5t-33 27.5t-17.5 31t-4 28
q2 21 18 28t33 -4q-9 -14 -10 -34t5.5 -39t21 -34t38.5 -18z" />
    <glyph glyph-name="Oacute" unicode="&#xd3;" horiz-adv-x="567" 
d="M375 607q49 0 84 -17t58 -46t34 -68t11 -83q0 -45 -11 -92.5t-31.5 -92.5t-51 -85t-69 -70.5t-84.5 -48t-99 -17.5q-47 0 -81.5 17.5t-57.5 47.5t-34 69.5t-11 83.5q0 46 12 93.5t36 90t59 76t80 52.5q21 38 59 64t97 26zM305 369q-1 -19 -14 -30.5t-36 -11.5
q-31 0 -47 27t-16 65q0 23 6 47t18 47q-29 -22 -51.5 -57.5t-38 -77.5t-23.5 -88.5t-8 -90.5q0 -42 7 -80t22 -66.5t38 -45t54 -16.5q40 0 76.5 20t68.5 53.5t57.5 77.5t44 92.5t28.5 98.5t10 95q0 37 -7 69t-22.5 55.5t-39.5 37t-57 13.5q-35 0 -58.5 -12.5t-37.5 -32.5
t-20.5 -44.5t-6.5 -48.5q0 -37 12 -65t31 -28q2 0 8 2zM399 655q24 3 41.5 18t28 34t12.5 39t-7 34q17 11 33 4t18 -28q1 -12 -7 -28t-24.5 -31t-40 -27.5t-53.5 -17.5z" />
    <glyph glyph-name="Ocircumflex" unicode="&#xd4;" horiz-adv-x="567" 
d="M305 369q-1 -19 -14 -30.5t-36 -11.5q-26 0 -41.5 20.5t-19.5 52t4.5 67.5t31 67.5t58.5 52t87 20.5q62 0 102 -26.5t61 -70t23.5 -99.5t-11.5 -114t-43 -114t-72 -99.5t-98 -70t-121 -26.5v4q46 0 88 26.5t77 69.5t61 98t41 112t18 112t-9.5 98t-41 69.5t-75.5 26.5
q-42 0 -68 -18.5t-39.5 -46t-15.5 -59t4.5 -57t18.5 -40t28 -8.5zM220 516q-39 -28 -66 -78t-42 -108t-16.5 -118.5t11 -109.5t39.5 -80t70 -31v-4q-64 0 -105.5 32.5t-61 83.5t-17.5 113t24 121t63.5 108t100.5 73v-2zM436 781h28l65 -132h-4l-78 90h-9l-123 -90h-4z" />
    <glyph glyph-name="Otilde" unicode="&#xd5;" horiz-adv-x="567" 
d="M375 607q62 0 102 -26.5t61 -70t23.5 -99.5t-11.5 -114t-43 -114t-72 -99.5t-98 -70t-121 -26.5q-64 0 -105.5 32.5t-60.5 83t-17.5 112.5t23.5 121t63 107.5t100 73.5q21 38 59 64t97 26zM305 369q-1 -19 -14 -30.5t-36 -11.5q-24 0 -39.5 17.5t-20.5 45t0 60.5t21 63
q-38 -29 -64.5 -78.5t-41 -107.5t-15.5 -118t11.5 -108.5t39.5 -79t70 -30.5q46 0 88 26.5t77 69.5t61 98t41 112t18 112t-9.5 98t-41 69.5t-75.5 26.5q-42 0 -68 -18.5t-39.5 -46t-15.5 -59t4.5 -57t18.5 -40t28 -8.5zM285 708q8 35 33 60t53 25q15 0 28.5 -6.5t27 -14
t27.5 -13.5t29 -6q12 0 21.5 5t16.5 12t11.5 15.5t6.5 15.5h4q-2 -8 -8 -22.5t-16 -29t-25 -25.5t-35 -11q-16 0 -29.5 6t-26 13.5t-25.5 13.5t-28 6q-28 0 -42 -13.5t-19 -30.5h-4z" />
    <glyph glyph-name="Odieresis" unicode="&#xd6;" horiz-adv-x="567" 
d="M375 607q49 0 84 -17t58 -46t34 -68t11 -83q0 -45 -11 -92.5t-31.5 -92.5t-51 -85t-69 -70.5t-84.5 -48t-99 -17.5q-47 0 -81.5 17.5t-57.5 47.5t-34 69.5t-11 83.5q0 46 12 93.5t36 90t59 76t80 52.5q21 38 59 64t97 26zM305 369q-1 -19 -14 -30.5t-36 -11.5
q-31 0 -47 27t-16 65q0 23 6 47t18 47q-29 -22 -51.5 -57.5t-38 -77.5t-23.5 -88.5t-8 -90.5q0 -42 7 -80t22 -66.5t38 -45t54 -16.5q40 0 76.5 20t68.5 53.5t57.5 77.5t44 92.5t28.5 98.5t10 95q0 37 -7 69t-22.5 55.5t-39.5 37t-57 13.5q-35 0 -58.5 -12.5t-37.5 -32.5
t-20.5 -44.5t-6.5 -48.5q0 -37 12 -65t31 -28q2 0 8 2zM346 763q3 14 13 23t23 9q14 0 22 -9t5 -23q-2 -14 -12.5 -22.5t-24.5 -8.5t-21 8.5t-5 22.5zM482 763q3 14 13 23t23 9q14 0 22 -9t5 -23q-2 -14 -12.5 -22.5t-24.5 -8.5t-21 8.5t-5 22.5z" />
    <glyph glyph-name="multiply" unicode="&#xd7;" horiz-adv-x="477" 
d="M250 172q4 -7 4 -16q0 -13 -12 -22.5t-32 -9.5q-7 0 -12 1l-10 2q-8 -6 -18 -6t-18 4q0 -30 -15 -55.5t-39 -25.5q-15 0 -21.5 6.5t-6.5 14.5q0 12 9.5 23t23.5 11q8 0 15 -5l-1 -1q-3 1 -8 1q-14 0 -14 -10q0 -11 15 -11q7 0 13.5 5.5t11.5 13.5t8.5 17.5t3.5 17.5
q-6 3 -12.5 5.5t-12.5 2.5q-9 0 -17 -4.5t-8 -14.5q0 -6 1 -8t2 -3l-2 -3q-28 0 -28 28q0 14 9 26.5t28 12.5q12 0 20 -6t14.5 -13t13 -13t15.5 -6q3 0 5 1q-10 5 -17 13t-12 16l-10 16t-10 14q-14 -14 -25 -14q-12 0 -12 12q0 6 5.5 12t19.5 6h11q8 14 13 31.5t5 31.5
q0 5 -1 10t-6 5q-10 0 -15.5 -11.5t-5.5 -24.5q0 -20 13 -24v-3q-2 0 -2.5 0.5t-1.5 0.5q-6 0 -14.5 -3t-17.5 -7t-18.5 -7t-17.5 -3q-15 0 -25 9.5t-10 23.5q0 9 6 15.5t14 6.5q2 0 4 -0.5t7 -2.5l1 -4q-7 -2 -7 -10t7.5 -15t19.5 -7t23 4t22 4q-6 7 -6 23q0 19 9.5 37.5
t29.5 18.5q11 0 17 -7.5t6 -18.5q0 -17 -11 -39t-26 -39q9 -6 17 -14.5t16.5 -16.5t18.5 -14t23 -6q30 0 35 21h3zM254 39q6 0 11.5 -4.5t5.5 -14.5q0 -12 -11 -21t-22 -9q-14 0 -29.5 11.5t-28.5 19.5q-10 -15 -22 -15q-15 0 -15 11t10 16t19 3q4 11 6.5 20.5t2.5 11.5
q-2 -8 -7 -15.5t-13 -7.5q-2 0 -5.5 3t-3.5 9q0 14 5.5 24.5t5.5 24.5q0 5 -2 9q0 2 7 2q6 0 8.5 -4.5t2.5 -7.5v-3q-1 -2 -1.5 -7.5t-2.5 -12.5q-2 -8 -4 -17v-2q0 -2 2 -2t4 5t4 12t3.5 14.5t1.5 12.5v4q4 3 7 3q11 0 11 -12q0 -6 -2 -15.5t-6 -25.5q-3 -14 -10 -28
q11 -5 20.5 -13t20.5 -8t17.5 5.5t6.5 13.5q0 3 -5 7l3 3h5zM331 165q6 -8 6 -16q0 -9 -7.5 -18.5t-24.5 -9.5q-18 0 -29 12t-11 27q0 5 1 10.5t3 12.5q-2 -1 -6 -1q-9 0 -9 11q0 8 4.5 21.5t4.5 21.5q0 5 -2 5l1 6q2 0 4 0.5t5 0.5q10 0 10 -13q2 3 5 8t10 5q8 0 10.5 -5
t2.5 -13q0 -13 -9 -29.5t-10 -30.5q0 -8 4 -15t15 -7q15 0 21 16zM413 124q7 0 11.5 -7t4.5 -15q0 -14 -9.5 -23t-22.5 -9q-9 0 -18.5 3t-18.5 6t-17 6t-13 3q0 -9 1.5 -21t1.5 -26q0 -17 -7 -32t-24 -15q-19 0 -21 15l2 2q2 -1 4.5 -2t4.5 -1q11 0 14.5 11.5t3.5 25.5v32
q0 15 6.5 25t16.5 10q5 0 7.5 -3.5t2.5 -6.5q0 -4 -2 -6l-3 -3q11 -1 20.5 -4.5t20.5 -3.5q13 0 20.5 7t7.5 15q0 9 -8 9l2 5q4 3 12 3zM214 95q0 7 -4 4v4q2 3 5.5 6t8.5 3q10 0 10 -9q0 -2 -1 -4h1q2 5 6 8.5t9 3.5q12 0 12 -18q0 -5 -2 -13t-5.5 -15.5t-8.5 -13t-11 -5.5
q-10 0 -10 14q0 5 1 9h-1q0 -4 -2.5 -16t-2.5 -22q0 -6 1 -9q-6 -2 -9 -2q-10 0 -10 11q0 6 2 15t4.5 18.5t4.5 17.5t2 13zM209 182q-13 0 -13 16q0 23 12 36t20 13q10 0 10 -11h1q3 4 1 11q3 1 8 1q8 0 8 -10q0 -9 -5 -23t-5 -22q0 -5 1 -6l-1 -5h-4q-11 0 -11 11q0 6 3 11
h-1q-4 -8 -9.5 -15t-14.5 -7zM305 74q-3 -11 -8.5 -19.5t-17.5 -8.5q-9 0 -13 6.5t-4 15.5q0 14 8.5 28.5t20.5 14.5q15 0 15 -16q0 -8 -5.5 -14.5t-17.5 -8.5q4 -4 7 -4q9 0 11 8zM174 238q4 10 15 10q9 0 9 -10q0 -12 -6 -24t-6 -23q0 -4 1 -4q0 -1 1 0l-2 -5h-5
q-6 0 -8.5 3.5t-2.5 8.5q0 10 4.5 18.5t4.5 19.5q0 4 -2 4q-1 0 -2 -1zM241 250q-9 1 -9 10q0 8 4.5 13.5t11.5 5.5q9 0 9 -9q0 -6 -5 -9q-1 2 -4 2q-7 0 -7 -7q0 -1 2 -3zM289 229q0 8 -5 6q-2 -1 -7 -12.5t-5 -34.5q5 11 11 22.5t6 18.5zM208 267q-2 -5 -6 -8.5t-11 -3.5
h-3l-2 1q2 1 2.5 4.5t1.5 7.5t3 7t7 3q8 0 8 -9v-2zM240 100q-5 0 -8 -8t-3 -13q0 -7 4 -7t7.5 7.5t3.5 13.5q0 7 -4 7zM100 182q11 0 19 15q-3 1 -8 1q-8 0 -13 -3.5t-5 -7.5q0 -5 7 -5zM234 236q-4 0 -7 -8.5t-3 -14.5v-3q0 -2 2 -2q3 0 5.5 4.5t4 9.5t1.5 9.5t-3 4.5z
M291 105q-5 0 -7.5 -9t-2.5 -17q6 3 9.5 10t3.5 12q0 4 -3 4zM155 12q7 0 14 16q-19 0 -19 -11q0 -5 5 -5zM332 93q7 0 7 9q0 2 -1.5 3.5t-3.5 0.5q-4 -1 -4 -13h2z" />
    <glyph glyph-name="Oslash" unicode="&#xd8;" horiz-adv-x="567" 
d="M375 607q62 0 102.5 -27t61.5 -71.5t23 -101t-13 -115t-45 -114.5t-73.5 -99t-100 -68t-122.5 -23l-8 -29h-5l9 29q-61 3 -99.5 36t-56.5 83.5t-15.5 111t23.5 118t60.5 105.5t96.5 73q4 17 16 33.5t31.5 29.5t48 21t66.5 8zM377 529l-167 -537q47 -2 89.5 23t78 67.5
t62.5 98t42.5 113t18.5 113t-9 99.5t-40.5 70.5t-76.5 26.5q-31 0 -52.5 -13t-34.5 -33t-17.5 -42.5t-2 -42.5t11 -33t22.5 -13q19 0 30 9t17 22l23 72h5zM283 418q-20 0 -34.5 8t-24 20.5t-12.5 29t0 34.5q-36 -29 -61.5 -78t-39.5 -105t-16 -114t9.5 -105.5t36 -79.5
t64.5 -36l138 443h-4q-17 -17 -56 -17z" />
    <glyph glyph-name="Ugrave" unicode="&#xd9;" horiz-adv-x="774" 
d="M899 556l-2 -4h-109l-97 -360q-15 -55 -38 -92.5t-51 -61t-59.5 -33.5t-63.5 -10q-27 0 -54.5 8.5t-50 26t-36.5 44.5t-14 65q0 15 2.5 32t8.5 36l75 248q8 28 23.5 44.5t30.5 29.5v1q-27 -15 -64 -26t-76 -19.5t-75.5 -14t-61.5 -10.5q-49 -9 -86.5 -31t-63 -50
t-38.5 -60.5t-13 -62.5q0 -48 32 -82t98 -34q37 0 66.5 10.5t49.5 27.5t30.5 38.5t10.5 44.5q0 8 -1 15.5t-6 13.5q7 4 17 4q12 0 20 -8t8 -25q0 -21 -15.5 -43.5t-41.5 -40.5t-61.5 -29.5t-75.5 -11.5q-38 0 -65.5 11.5t-45.5 31t-26.5 45t-8.5 54.5q0 42 17.5 83t50.5 74
t82 53.5t112 20.5q25 0 50.5 -1.5t50.5 -1.5q22 0 51.5 4t56.5 14t46.5 28t21.5 46q0 14 -7.5 29.5t-31.5 15.5q-18 0 -37 -15.5t-24 -45.5q-7 2 -11 9.5t-4 17.5q0 17 13.5 35t45.5 18q26 0 42.5 -19.5t16.5 -42.5q0 -7 -1.5 -13t-3.5 -11l-107 -366q-15 -51 -15 -94
q0 -54 23.5 -85.5t69.5 -31.5q31 0 62 10t58.5 32.5t50 59.5t37.5 91l97 360h-103l1 4h217zM688 652q-30 5 -50.5 17.5t-33 27.5t-17.5 31t-4 28q2 21 18 28t33 -4q-9 -14 -10 -34t5.5 -39t21 -34t38.5 -18z" />
    <glyph glyph-name="Uacute" unicode="&#xda;" horiz-adv-x="774" 
d="M899 556l-2 -4h-109l-97 -360q-15 -55 -38 -92.5t-51 -61t-59.5 -33.5t-63.5 -10q-27 0 -54.5 8.5t-50 26t-36.5 44.5t-14 65q0 15 2.5 32t8.5 36l75 248q8 28 23.5 44.5t30.5 29.5v1q-27 -15 -64 -26t-76 -19.5t-75.5 -14t-61.5 -10.5q-49 -9 -86.5 -31t-63 -50
t-38.5 -60.5t-13 -62.5q0 -48 32 -82t98 -34q37 0 66.5 10.5t49.5 27.5t30.5 38.5t10.5 44.5q0 8 -1 15.5t-6 13.5q7 4 17 4q12 0 20 -8t8 -25q0 -21 -15.5 -43.5t-41.5 -40.5t-61.5 -29.5t-75.5 -11.5q-38 0 -65.5 11.5t-45.5 31t-26.5 45t-8.5 54.5q0 42 17.5 83t50.5 74
t82 53.5t112 20.5q25 0 50.5 -1.5t50.5 -1.5q22 0 51.5 4t56.5 14t46.5 28t21.5 46q0 14 -7.5 29.5t-31.5 15.5q-18 0 -37 -15.5t-24 -45.5q-7 2 -11 9.5t-4 17.5q0 17 13.5 35t45.5 18q26 0 42.5 -19.5t16.5 -42.5q0 -7 -1.5 -13t-3.5 -11l-107 -366q-15 -51 -15 -94
q0 -54 23.5 -85.5t69.5 -31.5q31 0 62 10t58.5 32.5t50 59.5t37.5 91l97 360h-103l1 4h217zM585 655q24 3 41.5 18t28 34t12.5 39t-7 34q17 11 33 4t18 -28q1 -12 -7 -28t-24.5 -31t-40 -27.5t-53.5 -17.5z" />
    <glyph glyph-name="Ucircumflex" unicode="&#xdb;" horiz-adv-x="774" 
d="M899 556l-2 -4h-109l-97 -360q-15 -55 -38 -92.5t-51 -61t-59.5 -33.5t-63.5 -10q-27 0 -54.5 8.5t-50 26t-36.5 44.5t-14 65q0 15 2.5 32t8.5 36l75 248q8 28 23.5 44.5t30.5 29.5v1q-27 -15 -64 -26t-76 -19.5t-75.5 -14t-61.5 -10.5q-49 -9 -86.5 -31t-63 -50
t-38.5 -60.5t-13 -62.5q0 -48 32 -82t98 -34q37 0 66.5 10.5t49.5 27.5t30.5 38.5t10.5 44.5q0 8 -1 15.5t-6 13.5q7 4 17 4q12 0 20 -8t8 -25q0 -21 -15.5 -43.5t-41.5 -40.5t-61.5 -29.5t-75.5 -11.5q-38 0 -65.5 11.5t-45.5 31t-26.5 45t-8.5 54.5q0 42 17.5 83t50.5 74
t82 53.5t112 20.5q25 0 50.5 -1.5t50.5 -1.5q22 0 51.5 4t56.5 14t46.5 28t21.5 46q0 14 -7.5 29.5t-31.5 15.5q-18 0 -37 -15.5t-24 -45.5q-7 2 -11 9.5t-4 17.5q0 17 13.5 35t45.5 18q26 0 42.5 -19.5t16.5 -42.5q0 -7 -1.5 -13t-3.5 -11l-107 -366q-15 -51 -15 -94
q0 -54 23.5 -85.5t69.5 -31.5q31 0 62 10t58.5 32.5t50 59.5t37.5 91l97 360h-103l1 4h217zM676 795h28l65 -132h-4l-78 90h-9l-123 -90h-4z" />
    <glyph glyph-name="Udieresis" unicode="&#xdc;" horiz-adv-x="774" 
d="M899 556l-2 -4h-109l-97 -360q-15 -55 -38 -92.5t-51 -61t-59.5 -33.5t-63.5 -10q-27 0 -54.5 8.5t-50 26t-36.5 44.5t-14 65q0 15 2.5 32t8.5 36l75 248q8 28 23.5 44.5t30.5 29.5v1q-27 -15 -64 -26t-76 -19.5t-75.5 -14t-61.5 -10.5q-49 -9 -86.5 -31t-63 -50
t-38.5 -60.5t-13 -62.5q0 -48 32 -82t98 -34q37 0 66.5 10.5t49.5 27.5t30.5 38.5t10.5 44.5q0 8 -1 15.5t-6 13.5q7 4 17 4q12 0 20 -8t8 -25q0 -21 -15.5 -43.5t-41.5 -40.5t-61.5 -29.5t-75.5 -11.5q-38 0 -65.5 11.5t-45.5 31t-26.5 45t-8.5 54.5q0 42 17.5 83t50.5 74
t82 53.5t112 20.5q25 0 50.5 -1.5t50.5 -1.5q22 0 51.5 4t56.5 14t46.5 28t21.5 46q0 14 -7.5 29.5t-31.5 15.5q-18 0 -37 -15.5t-24 -45.5q-7 2 -11 9.5t-4 17.5q0 17 13.5 35t45.5 18q26 0 42.5 -19.5t16.5 -42.5q0 -7 -1.5 -13t-3.5 -11l-107 -366q-15 -51 -15 -94
q0 -54 23.5 -85.5t69.5 -31.5q31 0 62 10t58.5 32.5t50 59.5t37.5 91l97 360h-103l1 4h217zM568 763q3 14 13 23t23 9q14 0 22 -9t5 -23q-2 -14 -12.5 -22.5t-24.5 -8.5t-21 8.5t-5 22.5zM704 763q3 14 13 23t23 9q14 0 22 -9t5 -23q-2 -14 -12.5 -22.5t-24.5 -8.5t-21 8.5
t-5 22.5z" />
    <glyph glyph-name="Yacute" unicode="&#xdd;" horiz-adv-x="715" 
d="M207 219q39 0 70.5 11t54 29t34.5 42.5t12 51.5q0 12 -2 24t-7 23q1 4 7 9.5t17 5.5t18.5 -11.5t7.5 -30.5q0 -28 -17 -56t-46.5 -50.5t-68 -37t-80.5 -14.5q-45 0 -80.5 15t-60 40.5t-37.5 60t-13 73.5q0 55 25 103t66 83.5t93.5 56t107.5 20.5q79 0 140.5 -28
t102.5 -76t60.5 -111t13.5 -132h2l216 232h-104l1 4h217l-2 -4h-107l-223 -239q-4 -38 -17 -81l-72 -228h69l-1 -4h-195l2 4h68l71 226q29 93 26.5 172.5t-34 137t-90.5 90.5t-144 33q-54 0 -105.5 -20t-92 -55.5t-65.5 -82.5t-25 -101q0 -38 13 -72t37 -59t58.5 -39.5
t78.5 -14.5zM647 655q24 3 41.5 18t28 34t12.5 39t-7 34q17 11 33 4t18 -28q1 -12 -7 -28t-24.5 -31t-40 -27.5t-53.5 -17.5z" />
    <glyph glyph-name="Thorn" unicode="&#xde;" horiz-adv-x="477" 
d="M250 172q4 -7 4 -16q0 -13 -12 -22.5t-32 -9.5q-7 0 -12 1l-10 2q-8 -6 -18 -6t-18 4q0 -30 -15 -55.5t-39 -25.5q-15 0 -21.5 6.5t-6.5 14.5q0 12 9.5 23t23.5 11q8 0 15 -5l-1 -1q-3 1 -8 1q-14 0 -14 -10q0 -11 15 -11q7 0 13.5 5.5t11.5 13.5t8.5 17.5t3.5 17.5
q-6 3 -12.5 5.5t-12.5 2.5q-9 0 -17 -4.5t-8 -14.5q0 -6 1 -8t2 -3l-2 -3q-28 0 -28 28q0 14 9 26.5t28 12.5q12 0 20 -6t14.5 -13t13 -13t15.5 -6q3 0 5 1q-10 5 -17 13t-12 16l-10 16t-10 14q-14 -14 -25 -14q-12 0 -12 12q0 6 5.5 12t19.5 6h11q8 14 13 31.5t5 31.5
q0 5 -1 10t-6 5q-10 0 -15.5 -11.5t-5.5 -24.5q0 -20 13 -24v-3q-2 0 -2.5 0.5t-1.5 0.5q-6 0 -14.5 -3t-17.5 -7t-18.5 -7t-17.5 -3q-15 0 -25 9.5t-10 23.5q0 9 6 15.5t14 6.5q2 0 4 -0.5t7 -2.5l1 -4q-7 -2 -7 -10t7.5 -15t19.5 -7t23 4t22 4q-6 7 -6 23q0 19 9.5 37.5
t29.5 18.5q11 0 17 -7.5t6 -18.5q0 -17 -11 -39t-26 -39q9 -6 17 -14.5t16.5 -16.5t18.5 -14t23 -6q30 0 35 21h3zM254 39q6 0 11.5 -4.5t5.5 -14.5q0 -12 -11 -21t-22 -9q-14 0 -29.5 11.5t-28.5 19.5q-10 -15 -22 -15q-15 0 -15 11t10 16t19 3q4 11 6.5 20.5t2.5 11.5
q-2 -8 -7 -15.5t-13 -7.5q-2 0 -5.5 3t-3.5 9q0 14 5.5 24.5t5.5 24.5q0 5 -2 9q0 2 7 2q6 0 8.5 -4.5t2.5 -7.5v-3q-1 -2 -1.5 -7.5t-2.5 -12.5q-2 -8 -4 -17v-2q0 -2 2 -2t4 5t4 12t3.5 14.5t1.5 12.5v4q4 3 7 3q11 0 11 -12q0 -6 -2 -15.5t-6 -25.5q-3 -14 -10 -28
q11 -5 20.5 -13t20.5 -8t17.5 5.5t6.5 13.5q0 3 -5 7l3 3h5zM331 165q6 -8 6 -16q0 -9 -7.5 -18.5t-24.5 -9.5q-18 0 -29 12t-11 27q0 5 1 10.5t3 12.5q-2 -1 -6 -1q-9 0 -9 11q0 8 4.5 21.5t4.5 21.5q0 5 -2 5l1 6q2 0 4 0.5t5 0.5q10 0 10 -13q2 3 5 8t10 5q8 0 10.5 -5
t2.5 -13q0 -13 -9 -29.5t-10 -30.5q0 -8 4 -15t15 -7q15 0 21 16zM413 124q7 0 11.5 -7t4.5 -15q0 -14 -9.5 -23t-22.5 -9q-9 0 -18.5 3t-18.5 6t-17 6t-13 3q0 -9 1.5 -21t1.5 -26q0 -17 -7 -32t-24 -15q-19 0 -21 15l2 2q2 -1 4.5 -2t4.5 -1q11 0 14.5 11.5t3.5 25.5v32
q0 15 6.5 25t16.5 10q5 0 7.5 -3.5t2.5 -6.5q0 -4 -2 -6l-3 -3q11 -1 20.5 -4.5t20.5 -3.5q13 0 20.5 7t7.5 15q0 9 -8 9l2 5q4 3 12 3zM214 95q0 7 -4 4v4q2 3 5.5 6t8.5 3q10 0 10 -9q0 -2 -1 -4h1q2 5 6 8.5t9 3.5q12 0 12 -18q0 -5 -2 -13t-5.5 -15.5t-8.5 -13t-11 -5.5
q-10 0 -10 14q0 5 1 9h-1q0 -4 -2.5 -16t-2.5 -22q0 -6 1 -9q-6 -2 -9 -2q-10 0 -10 11q0 6 2 15t4.5 18.5t4.5 17.5t2 13zM209 182q-13 0 -13 16q0 23 12 36t20 13q10 0 10 -11h1q3 4 1 11q3 1 8 1q8 0 8 -10q0 -9 -5 -23t-5 -22q0 -5 1 -6l-1 -5h-4q-11 0 -11 11q0 6 3 11
h-1q-4 -8 -9.5 -15t-14.5 -7zM305 74q-3 -11 -8.5 -19.5t-17.5 -8.5q-9 0 -13 6.5t-4 15.5q0 14 8.5 28.5t20.5 14.5q15 0 15 -16q0 -8 -5.5 -14.5t-17.5 -8.5q4 -4 7 -4q9 0 11 8zM174 238q4 10 15 10q9 0 9 -10q0 -12 -6 -24t-6 -23q0 -4 1 -4q0 -1 1 0l-2 -5h-5
q-6 0 -8.5 3.5t-2.5 8.5q0 10 4.5 18.5t4.5 19.5q0 4 -2 4q-1 0 -2 -1zM241 250q-9 1 -9 10q0 8 4.5 13.5t11.5 5.5q9 0 9 -9q0 -6 -5 -9q-1 2 -4 2q-7 0 -7 -7q0 -1 2 -3zM289 229q0 8 -5 6q-2 -1 -7 -12.5t-5 -34.5q5 11 11 22.5t6 18.5zM208 267q-2 -5 -6 -8.5t-11 -3.5
h-3l-2 1q2 1 2.5 4.5t1.5 7.5t3 7t7 3q8 0 8 -9v-2zM240 100q-5 0 -8 -8t-3 -13q0 -7 4 -7t7.5 7.5t3.5 13.5q0 7 -4 7zM100 182q11 0 19 15q-3 1 -8 1q-8 0 -13 -3.5t-5 -7.5q0 -5 7 -5zM234 236q-4 0 -7 -8.5t-3 -14.5v-3q0 -2 2 -2q3 0 5.5 4.5t4 9.5t1.5 9.5t-3 4.5z
M291 105q-5 0 -7.5 -9t-2.5 -17q6 3 9.5 10t3.5 12q0 4 -3 4zM155 12q7 0 14 16q-19 0 -19 -11q0 -5 5 -5zM332 93q7 0 7 9q0 2 -1.5 3.5t-3.5 0.5q-4 -1 -4 -13h2z" />
    <glyph glyph-name="germandbls" unicode="&#xdf;" horiz-adv-x="368" 
d="M-221 -107q-13 -11 -19 -25.5t-6 -28.5q0 -22 14 -39t42 -17q43 0 74 30t54 79.5t41 112t36 128.5t37.5 128.5t46 112t62 79.5t84.5 30q30 0 51 -16.5t21 -52.5q0 -21 -13 -39.5t-29 -37t-29 -37.5t-13 -40t13 -41t28 -39.5t28 -39.5t13 -41q0 -20 -9.5 -39t-26.5 -34
t-42.5 -24t-56.5 -9q-38 0 -56 20.5t-18 46.5q0 14 5.5 28.5t16 26t25.5 18.5t35 7q21 0 34 -9.5t13 -23.5q0 -15 -14 -22l-1 6.5t-6 14.5t-15 14.5t-29 6.5q-28 0 -44 -21t-16 -46q0 -24 16.5 -43.5t53.5 -19.5q41 0 62 21.5t21 53.5q0 22 -13 41t-28 38t-28 37.5t-13 39.5
q0 34 20.5 57.5t45.5 43t45.5 39t20.5 46.5q0 35 -20.5 50t-47.5 15q-33 0 -57 -30t-43.5 -79t-36.5 -112t-35.5 -128.5t-41 -128.5t-53.5 -112t-72 -79t-96 -30q-50 0 -70.5 18.5t-20.5 43.5q0 26 14 40t31 14q9 0 15 -3z" />
    <glyph glyph-name="agrave" unicode="&#xe0;" horiz-adv-x="406" 
d="M333 314l-71 -251q-3 -11 -4 -22.5t0.5 -20.5t7 -15t17.5 -6q16 0 29.5 7.5t23.5 19.5t16.5 27.5t9.5 31.5h4q-3 -16 -9.5 -32t-17 -29t-24.5 -21t-32 -8q-42 0 -63.5 25t-10.5 67l-3 1q-11 -19 -24 -36t-28 -29.5t-30.5 -20t-29.5 -7.5q-51 0 -73 27.5t-21 68.5
q1 36 16.5 75.5t42.5 73.5t62 56t75 22q18 0 29.5 -7.5t17.5 -19.5t7.5 -27t0.5 -30q8 25 14 46t10 34h58zM94 -1q16 0 34 10.5t35 27.5t31.5 38.5t23.5 43.5q5 19 12 41.5t14 47.5q3 15 3.5 33.5t-4 34.5t-15.5 27t-32 11q-27 0 -53 -26.5t-46 -65.5t-32.5 -83t-12.5 -78
q0 -28 10 -45t32 -17zM273 401q-30 5 -50.5 17.5t-33 27.5t-17.5 31t-4 28q2 21 18 28t33 -4q-9 -14 -10 -34t5.5 -39t21 -34t38.5 -18z" />
    <glyph glyph-name="aacute" unicode="&#xe1;" horiz-adv-x="406" 
d="M336 314l-71 -251q-3 -11 -4 -22.5t0.5 -20.5t7 -15t17.5 -6q16 0 29.5 7.5t23.5 19.5t16.5 27.5t9.5 31.5h4q-3 -16 -9.5 -32t-17 -29t-24.5 -21t-32 -8t-34.5 5t-27.5 16t-15 27t2 39q0 2 1 5q1 2 1.5 5.5t2.5 8.5q-10 -21 -24 -40t-30 -34t-32.5 -23.5t-32.5 -8.5
q-47 0 -69 24t-24.5 60t12 77.5t41.5 77.5t63.5 60t78.5 24q18 0 29.5 -7.5t17.5 -19.5t7.5 -27t0.5 -30q8 25 14 46t10 34h58zM97 -1q16 0 34 10.5t35 27.5t31.5 38.5t23.5 43.5q5 19 12.5 43.5t14.5 49.5q3 15 3 33t-4.5 33.5t-15.5 25.5t-32 10q-25 0 -49 -23.5
t-44 -58.5t-33.5 -75.5t-16.5 -75.5t6 -58.5t35 -23.5zM195 404q24 3 41.5 18t28 34t12.5 39t-7 34q17 11 33 4t18 -28q1 -12 -7 -28t-24.5 -31t-40 -27.5t-53.5 -17.5z" />
    <glyph glyph-name="acircumflex" unicode="&#xe2;" horiz-adv-x="406" 
d="M333 314l-71 -251q-3 -11 -4 -22.5t0.5 -20.5t7 -15t17.5 -6q16 0 29.5 7.5t23.5 19.5t16.5 27.5t9.5 31.5h4q-3 -16 -9.5 -32t-17 -29t-24.5 -21t-32 -8q-42 0 -63.5 25t-10.5 67l-3 1q-11 -19 -24 -36t-28 -29.5t-30.5 -20t-29.5 -7.5q-51 0 -73 27.5t-21 68.5
q1 36 16.5 75.5t42.5 73.5t62 56t75 22q18 0 29.5 -7.5t17.5 -19.5t7.5 -27t0.5 -30q8 25 14 46t10 34h58zM94 -1q16 0 34 10.5t35 27.5t31.5 38.5t23.5 43.5q5 19 12 41.5t14 47.5q3 15 3.5 33.5t-4 34.5t-15.5 27t-32 11q-27 0 -53 -26.5t-46 -65.5t-32.5 -83t-12.5 -78
q0 -28 10 -45t32 -17zM254 509h28l65 -132h-4l-78 90h-9l-123 -90h-4z" />
    <glyph glyph-name="atilde" unicode="&#xe3;" horiz-adv-x="406" 
d="M333 314l-71 -251q-3 -11 -4 -22.5t0.5 -20.5t7 -15t17.5 -6q16 0 29.5 7.5t23.5 19.5t16.5 27.5t9.5 31.5h4q-3 -16 -9.5 -32t-17 -29t-24.5 -21t-32 -8q-42 0 -63.5 25t-10.5 67l-3 1q-11 -19 -24 -36t-28 -29.5t-30.5 -20t-29.5 -7.5q-51 0 -73 27.5t-21 68.5
q1 36 16.5 75.5t42.5 73.5t62 56t75 22q18 0 29.5 -7.5t17.5 -19.5t7.5 -27t0.5 -30q8 25 14 46t10 34h58zM94 -1q16 0 34 10.5t35 27.5t31.5 38.5t23.5 43.5q5 19 12 41.5t14 47.5q3 15 3.5 33.5t-4 34.5t-15.5 27t-32 11q-27 0 -53 -26.5t-46 -65.5t-32.5 -83t-12.5 -78
q0 -28 10 -45t32 -17zM124 397q8 35 33 60t53 25q15 0 28.5 -6.5t27 -14t27.5 -13.5t29 -6q12 0 21.5 5t16.5 12t11.5 15.5t6.5 15.5h4q-2 -8 -8 -22.5t-16 -29t-25 -25.5t-35 -11q-16 0 -29.5 6t-26 13.5t-25.5 13.5t-28 6q-28 0 -42 -13.5t-19 -30.5h-4z" />
    <glyph glyph-name="adieresis" unicode="&#xe4;" horiz-adv-x="406" 
d="M333 314l-71 -251q-3 -11 -4 -22.5t0.5 -20.5t7 -15t17.5 -6q16 0 29.5 7.5t23.5 19.5t16.5 27.5t9.5 31.5h4q-3 -16 -9.5 -32t-17 -29t-24.5 -21t-32 -8q-42 0 -63.5 25t-10.5 67l-3 1q-11 -19 -24 -36t-28 -29.5t-30.5 -20t-29.5 -7.5q-51 0 -73 27.5t-21 68.5
q1 36 16.5 75.5t42.5 73.5t62 56t75 22q18 0 29.5 -7.5t17.5 -19.5t7.5 -27t0.5 -30q8 25 14 46t10 34h58zM94 -1q16 0 34 10.5t35 27.5t31.5 38.5t23.5 43.5q5 19 12 41.5t14 47.5q3 15 3.5 33.5t-4 34.5t-15.5 27t-32 11q-27 0 -53 -26.5t-46 -65.5t-32.5 -83t-12.5 -78
q0 -28 10 -45t32 -17zM148 432q3 14 13 23t23 9q14 0 22 -9t5 -23q-2 -14 -12.5 -22.5t-24.5 -8.5t-21 8.5t-5 22.5zM284 432q3 14 13 23t23 9q14 0 22 -9t5 -23q-2 -14 -12.5 -22.5t-24.5 -8.5t-21 8.5t-5 22.5z" />
    <glyph glyph-name="aring" unicode="&#xe5;" horiz-adv-x="406" 
d="M333 314l-71 -251q-3 -11 -4 -22.5t0.5 -20.5t7 -15t17.5 -6q16 0 29.5 7.5t23.5 19.5t16.5 27.5t9.5 31.5h4q-3 -16 -9.5 -32t-17 -29t-24.5 -21t-32 -8q-42 0 -63.5 25t-10.5 67l-3 1q-11 -19 -24 -36t-28 -29.5t-30.5 -20t-29.5 -7.5q-51 0 -73 27.5t-21 68.5
q1 36 16.5 75.5t42.5 73.5t62 56t75 22q18 0 29.5 -7.5t17.5 -19.5t7.5 -27t0.5 -30q8 25 14 46t10 34h58zM94 -1q16 0 34 10.5t35 27.5t31.5 38.5t23.5 43.5q5 19 12 41.5t14 47.5q3 15 3.5 33.5t-4 34.5t-15.5 27t-32 11q-27 0 -53 -26.5t-46 -65.5t-32.5 -83t-12.5 -78
q0 -28 10 -45t32 -17zM180 441q0 16 7.5 30.5t20 25.5t28 18t32.5 7q25 0 41 -15.5t16 -38.5q0 -17 -7.5 -32t-19.5 -26.5t-28 -18t-32 -6.5q-26 0 -42 16t-16 40zM268 518q-15 0 -26.5 -9t-19 -22t-11.5 -29t-4 -29q0 -17 7 -28.5t25 -11.5q15 0 26.5 9t19 22.5t11 29.5
t3.5 30q0 16 -7 27t-24 11z" />
    <glyph glyph-name="ae" unicode="&#xe6;" horiz-adv-x="514" 
d="M283 158q-11 -30 -16 -58.5t-2 -51t15 -36t35 -13.5q22 0 43 8.5t38 21.5t30 29.5t19 33.5l4 -2q-6 -17 -19.5 -34t-31 -30.5t-39 -22t-44.5 -8.5q-58 0 -82 29.5t-22 72.5l-6 2q-21 -42 -52.5 -73t-69.5 -31q-35 0 -55.5 14t-27.5 34.5t-1 44.5t25 44.5t50.5 33.5
t74.5 13h83l18 54q11 35 7.5 59.5t-36.5 24.5q-24 0 -35 -12t-11 -29q0 -13 6 -23.5t18 -14.5q-4 -12 -13.5 -19.5t-24.5 -7.5t-23 11t-8 26q0 10 6 23t18 23.5t29.5 18t41.5 7.5q28 0 52 -11t32 -33q24 20 52 31t59 11q36 0 55.5 -15.5t20.5 -44.5q0 -20 -15.5 -44.5
t-43.5 -42.5t-67.5 -24t-86.5 9v2zM216 131q2 9 5 17.5t6 16.5l3 10h-79q-27 -1 -47 -14t-33 -33t-19 -42.5t-4 -41.5t11 -32t27 -13q19 0 38.5 12t37 30.5t31.5 42t23 47.5zM420 314q-20 0 -40 -13.5t-38 -35t-33 -49.5t-26 -57q11 -3 22 -5.5t23 -2.5q27 0 50.5 14.5
t40.5 34.5t26.5 42.5t9.5 38.5q0 33 -35 33z" />
    <glyph glyph-name="ccedilla" unicode="&#xe7;" horiz-adv-x="291" 
d="M228 89q-6 -18 -18 -34.5t-27.5 -30t-35 -21.5t-41.5 -8q-50 0 -74.5 24t-28.5 60t10.5 78t42 78t66 60t83.5 24q27 0 44 -18.5t17 -42.5q0 -34 -21 -58t-50 -24q-21 0 -29 11t-8 24q0 2 0.5 4t0.5 4q10 -2 16 -2q32 0 53.5 19t21.5 42q0 13 -11.5 25t-33.5 12
q-26 0 -51.5 -23.5t-45.5 -58.5t-33 -76t-15 -76t8.5 -58.5t37.5 -23.5q21 0 39.5 8t34 21t27 29.5t17.5 34.5zM8 -145q2 -9 12 -17t28 -8q15 0 26 6.5t18.5 16.5t11.5 22.5t4 23.5q0 16 -7.5 27.5t-23.5 11.5q-10 0 -19 -4l-7 8l49 55h5l-48 -55l2 -2q15 5 26 5
q23 0 39.5 -13.5t16.5 -33.5q0 -13 -5.5 -25.5t-16.5 -23t-29 -17t-42 -6.5q-17 0 -29 8.5t-14 18.5z" />
    <glyph glyph-name="egrave" unicode="&#xe8;" horiz-adv-x="310" 
d="M232 90q-6 -17 -18.5 -34t-29 -30.5t-37 -22t-43.5 -8.5q-56 0 -80.5 29t-24.5 70q0 36 16 75.5t43.5 72.5t64.5 54.5t80 21.5q35 0 55.5 -15.5t20.5 -44.5q0 -17 -10.5 -36.5t-30 -36.5t-47.5 -28.5t-62 -11.5q-31 0 -61 10q-8 -23 -12 -44.5t-4 -41.5q0 -31 12 -50.5
t40 -19.5q22 0 42 8.5t36 21.5t28 29.5t18 33.5zM203 314q-20 0 -39.5 -13.5t-37 -35.5t-32.5 -50t-25 -57q10 -3 20.5 -5t21.5 -2q27 0 50 14t40 34t27 42t10 39t-7.5 25.5t-27.5 8.5zM244 401q-30 5 -50.5 17.5t-33 27.5t-17.5 31t-4 28q2 21 18 28t33 -4q-9 -14 -10 -34
t5.5 -39t21 -34t38.5 -18z" />
    <glyph glyph-name="eacute" unicode="&#xe9;" horiz-adv-x="310" 
d="M232 90q-6 -17 -18.5 -34t-29 -30.5t-37 -22t-43.5 -8.5q-56 0 -80.5 29t-24.5 70q0 36 16 75.5t43.5 72.5t64.5 54.5t80 21.5q35 0 55.5 -15.5t20.5 -44.5q0 -17 -10.5 -36.5t-30 -36.5t-47.5 -28.5t-62 -11.5q-31 0 -61 10q-8 -23 -12 -44.5t-4 -41.5q0 -31 12 -50.5
t40 -19.5q22 0 42 8.5t36 21.5t28 29.5t18 33.5zM203 314q-20 0 -39.5 -13.5t-37 -35.5t-32.5 -50t-25 -57q10 -3 20.5 -5t21.5 -2q27 0 50 14t40 34t27 42t10 39t-7.5 25.5t-27.5 8.5zM170 404q24 3 41.5 18t28 34t12.5 39t-7 34q17 11 33 4t18 -28q1 -12 -7 -28t-24.5 -31
t-40 -27.5t-53.5 -17.5z" />
    <glyph glyph-name="ecircumflex" unicode="&#xea;" horiz-adv-x="310" 
d="M232 90q-6 -17 -18.5 -34t-29 -30.5t-37 -22t-43.5 -8.5q-56 0 -80.5 29t-24.5 70q0 36 16 75.5t43.5 72.5t64.5 54.5t80 21.5q35 0 55.5 -15.5t20.5 -44.5q0 -17 -10.5 -36.5t-30 -36.5t-47.5 -28.5t-62 -11.5q-31 0 -61 10q-8 -23 -12 -44.5t-4 -41.5q0 -31 12 -50.5
t40 -19.5q22 0 42 8.5t36 21.5t28 29.5t18 33.5zM203 314q-20 0 -39.5 -13.5t-37 -35.5t-32.5 -50t-25 -57q10 -3 20.5 -5t21.5 -2q27 0 50 14t40 34t27 42t10 39t-7.5 25.5t-27.5 8.5zM224 503h28l65 -132h-4l-78 90h-9l-123 -90h-4z" />
    <glyph glyph-name="edieresis" unicode="&#xeb;" horiz-adv-x="310" 
d="M232 90q-6 -17 -18.5 -34t-29 -30.5t-37 -22t-43.5 -8.5q-56 0 -80.5 29t-24.5 70q0 36 16 75.5t43.5 72.5t64.5 54.5t80 21.5q35 0 55.5 -15.5t20.5 -44.5q0 -17 -10.5 -36.5t-30 -36.5t-47.5 -28.5t-62 -11.5q-31 0 -61 10q-8 -23 -12 -44.5t-4 -41.5q0 -31 12 -50.5
t40 -19.5q22 0 42 8.5t36 21.5t28 29.5t18 33.5zM203 314q-20 0 -39.5 -13.5t-37 -35.5t-32.5 -50t-25 -57q10 -3 20.5 -5t21.5 -2q27 0 50 14t40 34t27 42t10 39t-7.5 25.5t-27.5 8.5zM104 432q3 14 13 23t23 9q14 0 22 -9t5 -23q-2 -14 -12.5 -22.5t-24.5 -8.5t-21 8.5
t-5 22.5zM240 432q3 14 13 23t23 9q14 0 22 -9t5 -23q-2 -14 -12.5 -22.5t-24.5 -8.5t-21 8.5t-5 22.5z" />
    <glyph glyph-name="igrave" unicode="&#xec;" horiz-adv-x="214" 
d="M167 400q-30 5 -50.5 17.5t-33 27.5t-17.5 31t-4 28q2 21 18 28t33 -4q-9 -14 -10 -34t5.5 -39t21 -34t38.5 -18zM166 85q-3 -16 -9.5 -32t-17 -28.5t-24.5 -20.5t-31 -8q-31 0 -55 14.5t-24 46.5q0 13 4 25q10 35 20 68q8 28 16.5 57t13.5 48q6 20 15.5 30.5t19.5 15
t17.5 5t9.5 0.5l1 4h-96l2 4h107l-72 -250q-5 -18 -5 -33q0 -14 5.5 -22.5t20.5 -8.5q16 0 29.5 7.5t23 19.5t16 27t9.5 31h4z" />
    <glyph glyph-name="iacute" unicode="&#xed;" horiz-adv-x="214" 
d="M92 413q24 3 41.5 18t28 34t12.5 39t-7 34q17 11 33 4t18 -28q1 -12 -7 -28t-24.5 -31t-40 -27.5t-53.5 -17.5zM166 85q-3 -16 -9.5 -32t-17 -28.5t-24.5 -20.5t-31 -8q-31 0 -55 14.5t-24 46.5q0 13 4 25q10 35 20 68q8 28 16.5 57t13.5 48q6 20 15.5 30.5t19.5 15
t17.5 5t9.5 0.5l1 4h-96l2 4h107l-72 -250q-5 -18 -5 -33q0 -14 5.5 -22.5t20.5 -8.5q16 0 29.5 7.5t23 19.5t16 27t9.5 31h4z" />
    <glyph glyph-name="icircumflex" unicode="&#xee;" horiz-adv-x="214" 
d="M166 85q-3 -16 -9.5 -32t-17 -28.5t-24.5 -20.5t-31 -8q-31 0 -55 14.5t-24 46.5q0 13 4 25q10 35 20 68q8 28 16.5 57t13.5 48q6 20 15.5 30.5t19.5 15t17.5 5t9.5 0.5l1 4h-96l2 4h107l-72 -250q-5 -18 -5 -33q0 -14 5.5 -22.5t20.5 -8.5q16 0 29.5 7.5t23 19.5t16 27
t9.5 31h4zM132 525h28l65 -132h-4l-78 90h-9l-123 -90h-4z" />
    <glyph glyph-name="idieresis" unicode="&#xef;" horiz-adv-x="214" 
d="M166 85q-3 -16 -9.5 -32t-17 -28.5t-24.5 -20.5t-31 -8q-31 0 -55 14.5t-24 46.5q0 13 4 25q10 35 20 68q8 28 16.5 57t13.5 48q6 20 15.5 30.5t19.5 15t17.5 5t9.5 0.5l1 4h-96l2 4h107l-72 -250q-5 -18 -5 -33q0 -14 5.5 -22.5t20.5 -8.5q16 0 29.5 7.5t23 19.5t16 27
t9.5 31h4zM35 432q3 14 13 23t23 9q14 0 22 -9t5 -23q-2 -14 -12.5 -22.5t-24.5 -8.5t-21 8.5t-5 22.5zM171 432q3 14 13 23t23 9q14 0 22 -9t5 -23q-2 -14 -12.5 -22.5t-24.5 -8.5t-21 8.5t-5 22.5z" />
    <glyph glyph-name="eth" unicode="&#xf0;" 
d="M135 476q73 -22 115 -63l77 34l2 -3l-76 -34q58 -59 58 -158q0 -48 -15 -94t-42 -82t-64.5 -58t-82.5 -22q-28 0 -48 8t-32.5 22.5t-18.5 33.5t-6 41q0 36 14.5 74.5t41 70.5t62.5 53t79 21q48 -1 62 -41h2q-2 35 -9.5 65t-23.5 55l-77 -34l-3 3l78 35q-16 23 -38.5 40.5
t-54.5 28.5v4zM108 0q35 1 63 28.5t47.5 66.5t30.5 82.5t13 78.5q-2 29 -18.5 44.5t-44.5 15.5q-27 0 -52 -25t-45 -61.5t-32 -79t-12 -77.5q0 -32 12 -52.5t38 -20.5z" />
    <glyph glyph-name="ntilde" unicode="&#xf1;" horiz-adv-x="410" 
d="M100 409q8 35 33 60t53 25q15 0 29.5 -6.5t29 -15t29.5 -15t30 -6.5q12 0 20.5 5.5t14.5 13t9.5 16.5t5.5 16h4q-2 -8 -8 -22.5t-16 -29t-25 -25.5t-35 -11q-16 0 -30 7t-28 15t-27.5 15t-28.5 7q-28 0 -39.5 -16t-16.5 -33h-4zM-3 -1q16 58 31 109q6 22 12.5 44t12 42
t10 36t7.5 25q6 21 16 31t21 15t25 5l1 4h-96l1 4h108l-31 -110q11 23 26 44t32.5 37t37 25.5t39.5 9.5q15 0 29.5 -5t24.5 -14.5t14.5 -22.5t-0.5 -29l-54 -185q-3 -11 -5 -22.5t-0.5 -20.5t7.5 -15t18 -6q16 0 29.5 8t24 20.5t17.5 27.5t9 30l4 -1q-3 -16 -10 -32
t-17.5 -28.5t-25 -20.5t-31.5 -8q-18 0 -34.5 5t-27.5 16t-15 27t3 39q13 42 24 81q10 33 20.5 66.5t16.5 52.5q4 13 0.5 23t-21.5 10q-23 0 -45 -13t-41.5 -34t-34.5 -47.5t-24 -53.5l-48 -169h-60z" />
    <glyph glyph-name="ograve" unicode="&#xf2;" 
d="M196 320q56 0 82 -32t26 -77q0 -35 -14.5 -73t-40 -69.5t-61.5 -52t-79 -20.5q-28 0 -48 8.5t-33 23.5t-19 34.5t-6 41.5q0 35 14 73.5t39.5 70t61 52t78.5 20.5zM196 316q-26 0 -51 -24.5t-44 -60.5t-30.5 -78t-11.5 -77q0 -33 12 -54.5t39 -21.5q28 0 53.5 23.5t45 59
t31 77t11.5 76.5t-13 57.5t-42 22.5zM227 401q-30 5 -50.5 17.5t-33 27.5t-17.5 31t-4 28q2 21 18 28t33 -4q-9 -14 -10 -34t5.5 -39t21 -34t38.5 -18z" />
    <glyph glyph-name="oacute" unicode="&#xf3;" 
d="M195 404q24 3 41.5 18t28 34t12.5 39t-7 34q17 11 33 4t18 -28q1 -12 -7 -28t-24.5 -31t-40 -27.5t-53.5 -17.5zM196 320q56 0 82 -32t26 -77q0 -35 -14.5 -73t-40 -69.5t-61.5 -52t-79 -20.5q-28 0 -48 8.5t-33 23.5t-19 34.5t-6 41.5q0 35 14 73.5t39.5 70t61 52
t78.5 20.5zM196 316q-26 0 -51 -24.5t-44 -60.5t-30.5 -78t-11.5 -77q0 -33 12 -54.5t39 -21.5q28 0 53.5 23.5t45 59t31 77t11.5 76.5t-13 57.5t-42 22.5z" />
    <glyph glyph-name="ocircumflex" unicode="&#xf4;" 
d="M196 320q56 0 82 -32t26 -77q0 -35 -14.5 -73t-40 -69.5t-61.5 -52t-79 -20.5q-28 0 -48 8.5t-33 23.5t-19 34.5t-6 41.5q0 35 14 73.5t39.5 70t61 52t78.5 20.5zM196 316q-26 0 -51 -24.5t-44 -60.5t-30.5 -78t-11.5 -77q0 -33 12 -54.5t39 -21.5q28 0 53.5 23.5t45 59
t31 77t11.5 76.5t-13 57.5t-42 22.5zM230 501h28l65 -132h-4l-78 90h-9l-123 -90h-4z" />
    <glyph glyph-name="otilde" unicode="&#xf5;" 
d="M196 320q56 0 82 -32t26 -77q0 -35 -14.5 -73t-40 -69.5t-61.5 -52t-79 -20.5q-28 0 -48 8.5t-33 23.5t-19 34.5t-6 41.5q0 35 14 73.5t39.5 70t61 52t78.5 20.5zM196 316q-26 0 -51 -24.5t-44 -60.5t-30.5 -78t-11.5 -77q0 -33 12 -54.5t39 -21.5q28 0 53.5 23.5t45 59
t31 77t11.5 76.5t-13 57.5t-42 22.5zM128 397q6 29 27.5 49.5t44.5 20.5q12 0 23.5 -5t22.5 -11.5t23 -11.5t24 -5q20 0 31.5 14t15.5 26h3q-2 -6 -6.5 -18.5t-13.5 -24.5t-21.5 -21t-28.5 -9q-13 0 -24.5 5t-22 11t-21.5 11t-23 5q-23 0 -34.5 -11t-16.5 -25h-3z" />
    <glyph glyph-name="odieresis" unicode="&#xf6;" 
d="M196 320q56 0 82 -32t26 -77q0 -35 -14.5 -73t-40 -69.5t-61.5 -52t-79 -20.5q-28 0 -48 8.5t-33 23.5t-19 34.5t-6 41.5q0 35 14 73.5t39.5 70t61 52t78.5 20.5zM196 316q-26 0 -51 -24.5t-44 -60.5t-30.5 -78t-11.5 -77q0 -33 12 -54.5t39 -21.5q28 0 53.5 23.5t45 59
t31 77t11.5 76.5t-13 57.5t-42 22.5zM123 432q3 14 13 23t23 9q14 0 22 -9t5 -23q-2 -14 -12.5 -22.5t-24.5 -8.5t-21 8.5t-5 22.5zM259 432q3 14 13 23t23 9q14 0 22 -9t5 -23q-2 -14 -12.5 -22.5t-24.5 -8.5t-21 8.5t-5 22.5z" />
    <glyph glyph-name="divide" unicode="&#xf7;" horiz-adv-x="429" 
d="M60 314h328v-5h-328v5zM218 412q2 15 14 25.5t27 10.5q13 0 21 -8.5t8 -21.5q0 -17 -11.5 -29t-28.5 -12q-14 0 -23 9.5t-7 25.5zM166 201q2 15 14 25.5t27 10.5q13 0 21 -8.5t8 -21.5q0 -17 -11.5 -29t-28.5 -12q-14 0 -23 9.5t-7 25.5z" />
    <glyph glyph-name="oslash" unicode="&#xf8;" 
d="M200 320l8 25h5l-8 -26q52 -3 75 -34t23 -75q0 -35 -14 -72.5t-39.5 -69t-61 -52t-78.5 -20.5l-9 -30h-5l9 30q-53 1 -77.5 32.5t-24.5 75.5q0 35 14 73.5t39.5 70t61 52t78.5 20.5h4zM196 316q-26 0 -51 -24.5t-44 -60.5t-30.5 -78t-11.5 -77q0 -32 11 -53t36 -23
l93 316h-3zM111 0q28 0 53 24t44.5 59t31 76t11.5 76q0 32 -11 54t-36 26z" />
    <glyph glyph-name="ugrave" unicode="&#xf9;" horiz-adv-x="394" 
d="M6 82q10 34 20 67q8 28 16.5 57t13.5 48q6 21 16 32t20 16q11 5 25 5l1 3h-95l1 4h108l-81 -281q-4 -13 -0.5 -23.5t21.5 -10.5q23 0 45.5 13.5t42 35.5t34.5 50t23 56q6 21 13 44.5t13 45.5t11.5 40.5t8.5 29.5h59l-72 -251q-3 -11 -4 -22.5t0.5 -20.5t7.5 -15t18 -6
q16 0 29.5 7.5t23 19.5t16 27.5t9.5 31.5h4q-3 -16 -9.5 -32t-17 -29t-24.5 -21t-31 -8q-18 0 -34.5 5t-28 16t-15.5 27t2 39q0 1 1 5l5 15q-23 -44 -57.5 -75.5t-72.5 -31.5q-15 0 -29 6t-24 17.5t-14.5 27.5t1.5 36zM250 401q-30 5 -50.5 17.5t-33 27.5t-17.5 31t-4 28
q2 21 18 28t33 -4q-9 -14 -10 -34t5.5 -39t21 -34t38.5 -18z" />
    <glyph glyph-name="uacute" unicode="&#xfa;" horiz-adv-x="394" 
d="M6 82q10 34 20 67q8 28 16.5 57t13.5 48q6 21 16 32t20 16q11 5 25 5l1 3h-95l1 4h108l-81 -281q-4 -13 -0.5 -23.5t21.5 -10.5q23 0 45.5 13.5t42 35.5t34.5 50t23 56q6 21 13 44.5t13 45.5t11.5 40.5t8.5 29.5h59l-72 -251q-3 -11 -4 -22.5t0.5 -20.5t7.5 -15t18 -6
q16 0 29.5 7.5t23 19.5t16 27.5t9.5 31.5h4q-3 -16 -9.5 -32t-17 -29t-24.5 -21t-31 -8q-18 0 -34.5 5t-28 16t-15.5 27t2 39q0 1 1 5l5 15q-23 -44 -57.5 -75.5t-72.5 -31.5q-15 0 -29 6t-24 17.5t-14.5 27.5t1.5 36zM182 404q24 3 41.5 18t28 34t12.5 39t-7 34q17 11 33 4
t18 -28q1 -12 -7 -28t-24.5 -31t-40 -27.5t-53.5 -17.5z" />
    <glyph glyph-name="ucircumflex" unicode="&#xfb;" horiz-adv-x="394" 
d="M6 82q10 34 20 67q8 28 16.5 57t13.5 48q6 21 16 32t20 16q11 5 25 5l1 3h-95l1 4h108l-81 -281q-4 -13 -0.5 -23.5t21.5 -10.5q23 0 45.5 13.5t42 35.5t34.5 50t23 56q6 21 13 44.5t13 45.5t11.5 40.5t8.5 29.5h59l-72 -251q-3 -11 -4 -22.5t0.5 -20.5t7.5 -15t18 -6
q16 0 29.5 7.5t23 19.5t16 27.5t9.5 31.5h4q-3 -16 -9.5 -32t-17 -29t-24.5 -21t-31 -8q-18 0 -34.5 5t-28 16t-15.5 27t2 39q0 1 1 5l5 15q-23 -44 -57.5 -75.5t-72.5 -31.5q-15 0 -29 6t-24 17.5t-14.5 27.5t1.5 36zM219 525h28l65 -132h-4l-78 90h-9l-123 -90h-4z" />
    <glyph glyph-name="udieresis" unicode="&#xfc;" horiz-adv-x="394" 
d="M6 82q10 34 20 67q8 28 16.5 57t13.5 48q6 21 16 32t20 16q11 5 25 5l1 3h-95l1 4h108l-81 -281q-4 -13 -0.5 -23.5t21.5 -10.5q23 0 45.5 13.5t42 35.5t34.5 50t23 56q6 21 13 44.5t13 45.5t11.5 40.5t8.5 29.5h59l-72 -251q-3 -11 -4 -22.5t0.5 -20.5t7.5 -15t18 -6
q16 0 29.5 7.5t23 19.5t16 27.5t9.5 31.5h4q-3 -16 -9.5 -32t-17 -29t-24.5 -21t-31 -8q-18 0 -34.5 5t-28 16t-15.5 27t2 39q0 1 1 5l5 15q-23 -44 -57.5 -75.5t-72.5 -31.5q-15 0 -29 6t-24 17.5t-14.5 27.5t1.5 36zM122 432q3 14 13 23t23 9q14 0 22 -9t5 -23
q-2 -14 -12.5 -22.5t-24.5 -8.5t-21 8.5t-5 22.5zM258 432q3 14 13 23t23 9q14 0 22 -9t5 -23q-2 -14 -12.5 -22.5t-24.5 -8.5t-21 8.5t-5 22.5z" />
    <glyph glyph-name="yacute" unicode="&#xfd;" horiz-adv-x="365" 
d="M317 315q-23 0 -49 -21.5t-52.5 -58t-52 -84t-48.5 -99.5q-14 -51 -38.5 -100t-58.5 -87.5t-77 -62.5t-94 -24q-32 0 -47 15t-15 32q0 23 16.5 40.5t48.5 17.5q21 0 33 -12.5t12 -27.5q0 -11 -6 -20q-7 17 -22.5 31t-38.5 14q-17 0 -28 -11t-11 -32q0 -17 13.5 -30
t43.5 -13q60 0 102.5 39.5t69 99t38.5 129t11.5 129t-12.5 99t-33 39.5h-8l2 3h6q37 0 61 -20.5t36 -54.5t12 -78t-10 -91q22 49 46.5 93.5t50 77.5t51 52.5t48.5 19.5q16 0 26 -5t16 -12.5t8 -16.5t2 -18q0 -23 -14.5 -40t-34.5 -17q-15 0 -20.5 8t-5.5 17q0 2 0.5 3t0.5 2
q3 -1 11 -1q23 0 37 13t14 30q0 9 -7 21t-33 12zM171 403q24 3 41.5 18t28 34t12.5 39t-7 34q17 11 33 4t18 -28q1 -12 -7 -28t-24.5 -31t-40 -27.5t-53.5 -17.5z" />
    <glyph glyph-name="thorn" unicode="&#xfe;" horiz-adv-x="355" 
d="M94 408q6 20 11.5 31t10.5 16t11 6l1 2h-91l2 4h131l-72 -252q20 43 51 73t67 30q47 0 70 -24t26.5 -60t-10.5 -78t-41 -78t-65.5 -60t-83.5 -24q-28 0 -44.5 13.5t-16.5 45.5q-14 -52 -25.5 -93t-15.5 -55q-6 -22 -16 -32.5t-20 -15.5q-11 -5 -24 -5l-1 -3h129l-2 -4
h-142zM112 -2q30 0 57 23.5t48 58.5t34 76t14.5 76t-10 58.5t-39.5 23.5q-20 0 -38.5 -10t-34.5 -27.5t-29.5 -40t-23.5 -47.5l-16 -57l-9 -32q-9 -32 -8 -52t9 -31t20 -15t26 -4z" />
    <glyph glyph-name="ydieresis" unicode="&#xff;" horiz-adv-x="365" 
d="M317 315q-23 0 -49 -21.5t-52.5 -58t-52 -84t-48.5 -99.5q-14 -51 -38.5 -100t-58.5 -87.5t-77 -62.5t-94 -24q-32 0 -47 15t-15 32q0 23 16.5 40.5t48.5 17.5q21 0 33 -12.5t12 -27.5q0 -11 -6 -20q-7 17 -22.5 31t-38.5 14q-17 0 -28 -11t-11 -32q0 -17 13.5 -30
t43.5 -13q60 0 102.5 39.5t69 99t38.5 129t11.5 129t-12.5 99t-33 39.5h-8l2 3h6q37 0 61 -20.5t36 -54.5t12 -78t-10 -91q22 49 46.5 93.5t50 77.5t51 52.5t48.5 19.5q16 0 26 -5t16 -12.5t8 -16.5t2 -18q0 -23 -14.5 -40t-34.5 -17q-15 0 -20.5 8t-5.5 17q0 2 0.5 3t0.5 2
q3 -1 11 -1q23 0 37 13t14 30q0 9 -7 21t-33 12zM109 432q3 14 13 23t23 9q14 0 22 -9t5 -23q-2 -14 -12.5 -22.5t-24.5 -8.5t-21 8.5t-5 22.5zM245 432q3 14 13 23t23 9q14 0 22 -9t5 -23q-2 -14 -12.5 -22.5t-24.5 -8.5t-21 8.5t-5 22.5z" />
    <glyph glyph-name="Amacron" unicode="&#x100;" horiz-adv-x="750" 
d="M694 597l-81 -593h63l-1 -4h-192l2 4h68l23 176h-146q-37 -44 -77 -82t-80.5 -66t-79 -43.5t-72.5 -13.5q-38 2 -57.5 18.5t-23 37.5t7.5 42.5t34 35.5q-48 25 -68.5 72.5t-17.5 101.5q2 49 25.5 94t61 79.5t86 55t99.5 20.5q37 0 89 -6t103 -11q-1 5 -1.5 9t0.5 9
q1 22 14 42.5t33.5 36.5t46 25t51.5 9q41 0 56.5 -18t13.5 -41q-2 -17 -9 -30q10 9 17.5 19t9.5 21h2zM169 87q-8 3 -16 3q-20 0 -40 -16.5t-29.5 -37t-2.5 -38t41 -19.5q33 -2 71 13t77 42.5t78.5 65t76.5 80.5h-26l2 4h27q37 43 69.5 89.5t58 91t42.5 85t22 71.5
q-37 -16 -90 -22t-108 -7.5t-104.5 -0.5t-79.5 -2q-54 -5 -96.5 -25t-73 -50t-47.5 -66.5t-20 -73.5q-2 -23 2.5 -46t14.5 -45t27 -40.5t41 -30.5q21 12 50 12q15 0 24.5 -9t11.5 -21q46 0 82 16.5t57.5 42.5t27 58.5t-7.5 64.5q1 4 7 10t17 6q16 0 23 -21q9 -29 -4.5 -60.5
t-42.5 -58.5t-71 -44.5t-88 -17.5v-1zM629 531q4 2 7 4.5t6 4.5q25 17 28 47q2 21 -12.5 38t-53.5 17q-24 0 -49 -9t-45 -24t-33 -34.5t-14 -41.5q-2 -10 1 -18q21 -2 40 -3t35 -1q23 0 46.5 4.5t43.5 15.5zM615 482q-10 -31 -28 -67.5t-41.5 -75.5t-52 -78.5t-60.5 -76.5
h143zM556 733h222l-2 -6h-222z" />
    <glyph glyph-name="amacron" unicode="&#x101;" horiz-adv-x="406" 
d="M333 314l-71 -251q-3 -11 -4 -22.5t0.5 -20.5t7 -15t17.5 -6q16 0 29.5 7.5t23.5 19.5t16.5 27.5t9.5 31.5h4q-3 -16 -9.5 -32t-17 -29t-24.5 -21t-32 -8q-42 0 -63.5 25t-10.5 67l-3 1q-11 -19 -24 -36t-28 -29.5t-30.5 -20t-29.5 -7.5q-51 0 -73 27.5t-21 68.5
q1 36 16.5 75.5t42.5 73.5t62 56t75 22q18 0 29.5 -7.5t17.5 -19.5t7.5 -27t0.5 -30q8 25 14 46t10 34h58zM94 -1q16 0 34 10.5t35 27.5t31.5 38.5t23.5 43.5q5 19 12 41.5t14 47.5q3 15 3.5 33.5t-4 34.5t-15.5 27t-32 11q-27 0 -53 -26.5t-46 -65.5t-32.5 -83t-12.5 -78
q0 -28 10 -45t32 -17zM128 434h222l-2 -6h-222z" />
    <glyph glyph-name="Abreve" unicode="&#x102;" horiz-adv-x="750" 
d="M694 597l-81 -593h63l-1 -4h-192l2 4h68l23 176h-146q-37 -44 -77 -82t-80.5 -66t-79 -43.5t-72.5 -13.5q-38 2 -57.5 18.5t-23 37.5t7.5 42.5t34 35.5q-48 25 -68.5 72.5t-17.5 101.5q2 49 25.5 94t61 79.5t86 55t99.5 20.5q37 0 89 -6t103 -11q-1 5 -1.5 9t0.5 9
q1 22 14 42.5t33.5 36.5t46 25t51.5 9q41 0 56.5 -18t13.5 -41q-2 -17 -9 -30q10 9 17.5 19t9.5 21h2zM169 87q-8 3 -16 3q-20 0 -40 -16.5t-29.5 -37t-2.5 -38t41 -19.5q33 -2 71 13t77 42.5t78.5 65t76.5 80.5h-26l2 4h27q37 43 69.5 89.5t58 91t42.5 85t22 71.5
q-37 -16 -90 -22t-108 -7.5t-104.5 -0.5t-79.5 -2q-54 -5 -96.5 -25t-73 -50t-47.5 -66.5t-20 -73.5q-2 -23 2.5 -46t14.5 -45t27 -40.5t41 -30.5q21 12 50 12q15 0 24.5 -9t11.5 -21q46 0 82 16.5t57.5 42.5t27 58.5t-7.5 64.5q1 4 7 10t17 6q16 0 23 -21q9 -29 -4.5 -60.5
t-42.5 -58.5t-71 -44.5t-88 -17.5v-1zM629 531q4 2 7 4.5t6 4.5q25 17 28 47q2 21 -12.5 38t-53.5 17q-24 0 -49 -9t-45 -24t-33 -34.5t-14 -41.5q-2 -10 1 -18q21 -2 40 -3t35 -1q23 0 46.5 4.5t43.5 15.5zM615 482q-10 -31 -28 -67.5t-41.5 -75.5t-52 -78.5t-60.5 -76.5
h143zM660 760q-5 -18 -5 -32q0 -17 7 -28.5t25 -11.5q13 0 22.5 6.5t17 16.5t12 22.5t6.5 25.5h28q-3 -32 -29 -53.5t-58 -21.5q-26 0 -42 16t-16 40q0 11 3 20h29z" />
    <glyph glyph-name="abreve" unicode="&#x103;" horiz-adv-x="406" 
d="M333 314l-71 -251q-3 -11 -4 -22.5t0.5 -20.5t7 -15t17.5 -6q16 0 29.5 7.5t23.5 19.5t16.5 27.5t9.5 31.5h4q-3 -16 -9.5 -32t-17 -29t-24.5 -21t-32 -8q-42 0 -63.5 25t-10.5 67l-3 1q-11 -19 -24 -36t-28 -29.5t-30.5 -20t-29.5 -7.5q-51 0 -73 27.5t-21 68.5
q1 36 16.5 75.5t42.5 73.5t62 56t75 22q18 0 29.5 -7.5t17.5 -19.5t7.5 -27t0.5 -30q8 25 14 46t10 34h58zM94 -1q16 0 34 10.5t35 27.5t31.5 38.5t23.5 43.5q5 19 12 41.5t14 47.5q3 15 3.5 33.5t-4 34.5t-15.5 27t-32 11q-27 0 -53 -26.5t-46 -65.5t-32.5 -83t-12.5 -78
q0 -28 10 -45t32 -17zM199 439q-5 -18 -5 -32q0 -17 7 -28.5t34 -11.5q13 0 22.5 6.5t17 16.5t12 22.5t6.5 25.5h28q-3 -32 -29 -53.5t-58 -21.5q-35 0 -51 16t-16 40q0 11 3 20h29z" />
    <glyph glyph-name="Aogonek" unicode="&#x104;" horiz-adv-x="750" 
d="M694 597l-81 -593h63l-1 -4h-83q-21 -9 -34 -32.5t-15.5 -47.5t7.5 -43t34 -19q15 0 29.5 6.5t26.5 17.5l3 -2q-14 -11 -29 -18.5t-30 -7.5q-36 0 -53.5 19.5t-18 44.5t15 49t45.5 33h-90l2 4h68l23 176h-146q-37 -44 -77 -82t-80.5 -66t-79 -43.5t-72.5 -13.5
q-38 2 -57.5 18.5t-23 37.5t7.5 42.5t34 35.5q-48 25 -68.5 72.5t-17.5 101.5q2 49 25.5 94t61 79.5t86 55t99.5 20.5q37 0 89 -6t103 -11q-1 5 -1.5 9t0.5 9q1 22 14 42.5t33.5 36.5t46 25t51.5 9q41 0 56.5 -18t13.5 -41q-2 -17 -9 -30q10 9 17.5 19t9.5 21h2zM169 87
q-8 3 -16 3q-20 0 -40 -16.5t-29.5 -37t-2.5 -38t41 -19.5q33 -2 71 13t77 42.5t78.5 65t76.5 80.5h-26l2 4h27q37 43 69.5 89.5t58 91t42.5 85t22 71.5q-37 -16 -90 -22t-108 -7.5t-104.5 -0.5t-79.5 -2q-54 -5 -96.5 -25t-73 -50t-47.5 -66.5t-20 -73.5q-2 -23 2.5 -46
t14.5 -45t27 -40.5t41 -30.5q21 12 50 12q15 0 24.5 -9t11.5 -21q46 0 82 16.5t57.5 42.5t27 58.5t-7.5 64.5q1 4 7 10t17 6q16 0 23 -21q9 -29 -4.5 -60.5t-42.5 -58.5t-71 -44.5t-88 -17.5v-1zM629 531q4 2 7 4.5t6 4.5q25 17 28 47q2 21 -12.5 38t-53.5 17q-24 0 -49 -9
t-45 -24t-33 -34.5t-14 -41.5q-2 -10 1 -18q21 -2 40 -3t35 -1q23 0 46.5 4.5t43.5 15.5zM615 482q-10 -31 -28 -67.5t-41.5 -75.5t-52 -78.5t-60.5 -76.5h143z" />
    <glyph glyph-name="aogonek" unicode="&#x105;" horiz-adv-x="406" 
d="M344 -124q-14 -11 -29 -18.5t-30 -7.5q-36 0 -53.5 19.5t-18 44.5t14.5 49t45 33q-17 1 -31 7t-24 16.5t-13 26t3 36.5q0 2 1 5q1 2 1.5 5.5t2.5 8.5q-10 -21 -24 -40t-30 -34t-32.5 -23.5t-32.5 -8.5q-47 0 -69 24t-24.5 60t12 77.5t41.5 77.5t63.5 60t78.5 24
q18 0 29.5 -7.5t17.5 -19.5t7.5 -27t0.5 -30q8 25 14 46t10 34h58l-71 -251q-3 -11 -4 -22.5t0.5 -20.5t7 -15t17.5 -6q16 0 29.5 7.5t23.5 19.5t16.5 27.5t9.5 31.5h4q-5 -30 -23.5 -57t-49.5 -32q-21 -9 -34 -32.5t-15.5 -47.5t7.5 -43t34 -19q15 0 29.5 6.5t26.5 17.5z
M94 -1q16 0 34 10.5t35 27.5t31.5 38.5t23.5 43.5q5 19 12.5 43.5t14.5 49.5q3 15 3 33t-4.5 33.5t-15.5 25.5t-32 10q-25 0 -49 -23.5t-44 -58.5t-33.5 -75.5t-16.5 -75.5t6 -58.5t35 -23.5z" />
    <glyph glyph-name="Cacute" unicode="&#x106;" horiz-adv-x="468" 
d="M420 217q0 -41 -16.5 -82.5t-46.5 -75t-71.5 -55t-90.5 -21.5q-61 0 -99.5 27t-57.5 71t-19 100.5t16.5 115.5t48.5 115.5t77 100.5t102.5 71t125.5 27q47 0 73 -19t35 -48t3 -62.5t-22.5 -62.5t-42.5 -48t-56 -19q-26 0 -36 12t-5 29q29 4 54 21.5t42.5 41.5t25.5 50.5
t4 49t-22 37t-53 14.5q-41 0 -82 -26.5t-78 -70t-68 -99.5t-51.5 -114t-28.5 -114t0.5 -99.5t36 -70t77.5 -26.5q48 0 89 21t70 54.5t45.5 74.5t16.5 80h4z" />
    <glyph glyph-name="cacute" unicode="&#x107;" horiz-adv-x="291" 
d="M228 89q-6 -18 -18 -34.5t-27.5 -30t-35 -21.5t-41.5 -8q-50 0 -74.5 24t-28.5 60t10.5 78t42 78t66 60t83.5 24q27 0 44 -18.5t17 -42.5q0 -34 -21 -58t-50 -24q-21 0 -29 11t-8 24q0 2 0.5 4t0.5 4q10 -2 16 -2q32 0 53.5 19t21.5 42q0 13 -11.5 25t-33.5 12
q-26 0 -51.5 -23.5t-45.5 -58.5t-33 -76t-15 -76t8.5 -58.5t37.5 -23.5q21 0 39.5 8t34 21t27 29.5t17.5 34.5zM154 404q24 3 41.5 18t28 34t12.5 39t-7 34q17 11 33 4t18 -28q1 -12 -7 -28t-24.5 -31t-40 -27.5t-53.5 -17.5z" />
    <glyph glyph-name="Ccircumflex" unicode="&#x108;" horiz-adv-x="468" 
d="M420 217q0 -41 -16.5 -82.5t-46.5 -75t-71.5 -55t-90.5 -21.5q-61 0 -99.5 27t-57.5 71t-19 100.5t16.5 115.5t48.5 115.5t77 100.5t102.5 71t125.5 27q47 0 73 -19t35 -48t3 -62.5t-22.5 -62.5t-42.5 -48t-56 -19q-26 0 -36 12t-5 29q29 4 54 21.5t42.5 41.5t25.5 50.5
t4 49t-22 37t-53 14.5q-41 0 -82 -26.5t-78 -70t-68 -99.5t-51.5 -114t-28.5 -114t0.5 -99.5t36 -70t77.5 -26.5q48 0 89 21t70 54.5t45.5 74.5t16.5 80h4z" />
    <glyph glyph-name="ccircumflex" unicode="&#x109;" horiz-adv-x="291" 
d="M228 89q-6 -18 -18 -34.5t-27.5 -30t-35 -21.5t-41.5 -8q-50 0 -74.5 24t-28.5 60t10.5 78t42 78t66 60t83.5 24q27 0 44 -18.5t17 -42.5q0 -34 -21 -58t-50 -24q-21 0 -29 11t-8 24q0 2 0.5 4t0.5 4q10 -2 16 -2q32 0 53.5 19t21.5 42q0 13 -11.5 25t-33.5 12
q-26 0 -51.5 -23.5t-45.5 -58.5t-33 -76t-15 -76t8.5 -58.5t37.5 -23.5q21 0 39.5 8t34 21t27 29.5t17.5 34.5zM190 525h28l65 -132h-4l-78 90h-9l-123 -90h-4z" />
    <glyph glyph-name="Cdotaccent" unicode="&#x10a;" horiz-adv-x="468" 
d="M420 217q0 -41 -16.5 -82.5t-46.5 -75t-71.5 -55t-90.5 -21.5q-61 0 -99.5 27t-57.5 71t-19 100.5t16.5 115.5t48.5 115.5t77 100.5t102.5 71t125.5 27q47 0 73 -19t35 -48t3 -62.5t-22.5 -62.5t-42.5 -48t-56 -19q-26 0 -36 12t-5 29q29 4 54 21.5t42.5 41.5t25.5 50.5
t4 49t-22 37t-53 14.5q-41 0 -82 -26.5t-78 -70t-68 -99.5t-51.5 -114t-28.5 -114t0.5 -99.5t36 -70t77.5 -26.5q48 0 89 21t70 54.5t45.5 74.5t16.5 80h4zM385 799q2 14 13.5 24t25.5 10t22 -10t6 -24t-13 -23.5t-25 -9.5t-22.5 9.5t-6.5 23.5z" />
    <glyph glyph-name="cdotaccent" unicode="&#x10b;" horiz-adv-x="291" 
d="M228 89q-6 -18 -18 -34.5t-27.5 -30t-35 -21.5t-41.5 -8q-50 0 -74.5 24t-28.5 60t10.5 78t42 78t66 60t83.5 24q27 0 44 -18.5t17 -42.5q0 -34 -21 -58t-50 -24q-21 0 -29 11t-8 24q0 2 0.5 4t0.5 4q10 -2 16 -2q32 0 53.5 19t21.5 42q0 13 -11.5 25t-33.5 12
q-26 0 -51.5 -23.5t-45.5 -58.5t-33 -76t-15 -76t8.5 -58.5t37.5 -23.5q21 0 39.5 8t34 21t27 29.5t17.5 34.5zM197 500q2 14 13.5 24t25.5 10t22 -10t6 -24t-13 -23.5t-25 -9.5t-22.5 9.5t-6.5 23.5z" />
    <glyph glyph-name="Ccaron" unicode="&#x10c;" horiz-adv-x="468" 
d="M420 217q0 -41 -16.5 -82.5t-46.5 -75t-71.5 -55t-90.5 -21.5q-61 0 -99.5 27t-57.5 71t-19 100.5t16.5 115.5t48.5 115.5t77 100.5t102.5 71t125.5 27q47 0 73 -19t35 -48t3 -62.5t-22.5 -62.5t-42.5 -48t-56 -19q-26 0 -36 12t-5 29q29 4 54 21.5t42.5 41.5t25.5 50.5
t4 49t-22 37t-53 14.5q-41 0 -82 -26.5t-78 -70t-68 -99.5t-51.5 -114t-28.5 -114t0.5 -99.5t36 -70t77.5 -26.5q48 0 89 21t70 54.5t45.5 74.5t16.5 80h4z" />
    <glyph glyph-name="ccaron" unicode="&#x10d;" horiz-adv-x="291" 
d="M228 89q-6 -18 -18 -34.5t-27.5 -30t-35 -21.5t-41.5 -8q-50 0 -74.5 24t-28.5 60t10.5 78t42 78t66 60t83.5 24q27 0 44 -18.5t17 -42.5q0 -34 -21 -58t-50 -24q-21 0 -29 11t-8 24q0 2 0.5 4t0.5 4q10 -2 16 -2q32 0 53.5 19t21.5 42q0 13 -11.5 25t-33.5 12
q-26 0 -51.5 -23.5t-45.5 -58.5t-33 -76t-15 -76t8.5 -58.5t37.5 -23.5q21 0 39.5 8t34 21t27 29.5t17.5 34.5zM213 393h-28l-65 132h4l78 -90h9l123 90h4z" />
    <glyph glyph-name="Dcaron" unicode="&#x10e;" horiz-adv-x="851" 
d="M248 -8l3 4h71q3 10 14.5 47t27.5 87.5t34.5 109.5t35.5 113.5t31.5 99t21.5 67.5q-40 -17 -87 -28t-89 -19q-17 -4 -33 -7l-32 -6q-53 -10 -90.5 -34.5t-61 -56t-33 -66.5t-6.5 -67q2 -21 11.5 -40.5t26 -34.5t40 -24t53.5 -9q29 0 52.5 13t39 33t23.5 45t6.5 49
t-13 44.5t-33.5 31.5q5 8 15 13.5t21 5.5q25 0 38 -17.5t15 -44.5t-8 -57.5t-30.5 -57.5t-52 -44.5t-73.5 -17.5q-34 0 -59.5 10.5t-43.5 28.5t-29 40.5t-15 46.5q-7 37 2 77.5t33 76.5t63 63t92 37q26 5 55 7t59 3t59 3t56 7q19 4 38.5 11t35 17.5t26 25t10.5 33.5
q0 14 -8.5 29.5t-32.5 15.5q-18 0 -36.5 -15.5t-22.5 -45.5q-9 3 -13 15.5t0 27t17 26t38 11.5q28 0 44.5 -21t16.5 -44q0 -5 -1.5 -11.5t-6.5 -24.5q20 15 44.5 25.5t53.5 10.5q61 0 101 -26.5t60 -70t20.5 -99t-16.5 -113.5t-51.5 -113.5t-85 -99t-116 -70t-145.5 -26.5
h-180zM661 606q-29 0 -54 -11.5t-47 -28.5l-181 -570h49q65 0 118.5 26t95.5 69t72 98t46.5 112t19 112t-9.5 98t-39 69t-70 26z" />
    <glyph glyph-name="dcaron" unicode="&#x10f;" horiz-adv-x="520" 
d="M367 91q-2 -16 -8 -33t-16.5 -31t-25 -23t-32.5 -9t-34 5t-27.5 15t-16.5 25.5t0 36.5l-6 1q-21 -35 -50.5 -59t-56.5 -24q-47 0 -69.5 24t-25 60t11.5 77.5t41 77.5t63 60t78 24q18 0 29.5 -7.5t18 -20t9 -27.5t1.5 -30q8 27 15.5 54.5t14 51t11.5 41.5t8 27
q5 19 10.5 29.5t10.5 15.5q5 6 11 8l1 3h-90l1 4h131l-113 -404q-2 -11 -3.5 -22.5t0.5 -20.5t8 -15t18 -6q17 0 30.5 8.5t23.5 22t16 30t8 32.5zM94 -1q16 0 34.5 10.5t35.5 28t31.5 39t23.5 44.5q5 18 11.5 40.5t14.5 48.5q3 16 3 34t-5.5 33.5t-17 26t-32.5 10.5
q-24 0 -48 -23.5t-43.5 -58.5t-33 -75.5t-16 -75.5t6.5 -58.5t35 -23.5zM445 404q24 3 41.5 18t28 34t12.5 39t-7 34q17 11 33 4t18 -28q1 -12 -7 -28t-24.5 -31t-40 -27.5t-53.5 -17.5z" />
    <glyph glyph-name="Dcroat" unicode="&#x110;" horiz-adv-x="851" 
d="M248 -8l3 4h71q3 10 15 47.5t28 89t34.5 111t34.5 110.5h-116q18 -5 25.5 -25.5t5.5 -46.5t-13 -54t-31.5 -51t-50.5 -38t-68 -15q-34 0 -59.5 10.5t-43.5 28.5t-29 40.5t-15 46.5q-7 37 2 77.5t33 76.5t63 63t92 37q26 5 55 7t59 3t59 3t56 7q19 4 38.5 11t35 17.5
t26 25t10.5 33.5q0 14 -8.5 29.5t-32.5 15.5q-18 0 -36.5 -15.5t-22.5 -45.5q-9 3 -13 15.5t0 27t17 26t38 11.5q28 0 44.5 -21t16.5 -44q0 -10 -3 -17l1 1l-6 -20q20 15 44.5 25.5t53.5 10.5q61 0 101 -26.5t60 -70t20.5 -99t-16.5 -113.5t-51.5 -113.5t-85 -99t-116 -70
t-145.5 -26.5h-180zM492 354l-113 -358h49q65 0 118.5 26t95.5 69t72 98t46.5 112t19 112t-9.5 98t-39 69t-70 26q-29 0 -54 -11.5t-47 -28.5l-65 -203h110l-2 -9h-111zM261 344q5 8 15 13.5t21 5.5h140q17 52 30 94t20 63q-40 -17 -87 -28t-89 -19q-17 -4 -33 -7l-32 -6
q-53 -10 -90.5 -34.5t-61 -56t-33 -66.5t-6.5 -67q2 -21 11.5 -40.5t26 -34.5t40 -24t53.5 -9q29 0 52.5 13t39 33t23.5 45t6.5 49t-13 44.5t-33.5 31.5z" />
    <glyph glyph-name="dcroat" unicode="&#x111;" horiz-adv-x="412" 
d="M218 350h67q5 17 9.5 33t6.5 24q5 19 11 29.5t11 15.5q5 6 11 8l1 3h-90l1 4h131l-34 -117h64l-1 -7h-65l-79 -280q-3 -11 -4 -22.5t0.5 -20.5t7.5 -15t18 -6q17 0 30.5 8.5t24 22t16.5 30t8 32.5l4 -1q-2 -16 -8.5 -33t-17 -31t-25 -23t-32.5 -9t-34.5 5t-28 16
t-15.5 27t2 39q0 1 1 4q1 2 1 5t2 7q-10 -21 -24 -39.5t-30 -32.5t-32.5 -22.5t-31.5 -8.5q-47 0 -69 24t-24.5 60t12 77.5t41.5 77.5t63.5 60t78.5 24q18 0 29.5 -7.5t17.5 -19.5t8 -27t1 -30q8 29 16 57t15 52h-66zM94 -1q16 0 34.5 10.5t35.5 28t31.5 39t23.5 44.5
q5 18 11.5 40.5t14.5 48.5q3 16 3.5 34.5t-4.5 34t-16 25.5t-32 10q-24 0 -48.5 -23.5t-44.5 -58.5t-33.5 -75.5t-16.5 -75.5t6 -58.5t35 -23.5z" />
    <glyph glyph-name="Emacron" unicode="&#x112;" horiz-adv-x="427" 
d="M335 337h-100q-54 0 -92 -26t-60.5 -65t-28.5 -84t4.5 -84t37 -65t70.5 -26q48 0 89 21t70 54t45.5 74t16.5 81h4q0 -41 -16.5 -82.5t-46.5 -75t-71.5 -55t-90.5 -21.5q-54 0 -89 18t-54.5 47.5t-23.5 66t4.5 73t28 70t48.5 56t66 31t80 -4.5h20q-37 7 -58 30t-26.5 53
t4.5 63t34.5 61t64.5 46t95 18q41 0 67 -15t39 -37.5t12 -48.5t-14.5 -48.5t-39.5 -37.5t-63 -15l-4 3q23 6 39.5 22.5t26 38t11 45.5t-5.5 43.5t-24 32.5t-44 13q-38 0 -67.5 -19.5t-50 -49.5t-29.5 -64t-5.5 -64t20 -49.5t49.5 -19.5h58v-4zM276 733h222l-2 -6h-222z" />
    <glyph glyph-name="emacron" unicode="&#x113;" horiz-adv-x="310" 
d="M232 90q-6 -17 -18.5 -34t-29 -30.5t-37 -22t-43.5 -8.5q-56 0 -80.5 29t-24.5 70q0 36 16 75.5t43.5 72.5t64.5 54.5t80 21.5q35 0 55.5 -15.5t20.5 -44.5q0 -17 -10.5 -36.5t-30 -36.5t-47.5 -28.5t-62 -11.5q-31 0 -61 10q-8 -23 -12 -44.5t-4 -41.5q0 -31 12 -50.5
t40 -19.5q22 0 42 8.5t36 21.5t28 29.5t18 33.5zM203 314q-20 0 -39.5 -13.5t-37 -35.5t-32.5 -50t-25 -57q10 -3 20.5 -5t21.5 -2q27 0 50 14t40 34t27 42t10 39t-7.5 25.5t-27.5 8.5zM90 434h222l-2 -6h-222z" />
    <glyph glyph-name="Ebreve" unicode="&#x114;" horiz-adv-x="427" 
d="M335 337h-100q-54 0 -92 -26t-60.5 -65t-28.5 -84t4.5 -84t37 -65t70.5 -26q48 0 89 21t70 54t45.5 74t16.5 81h4q0 -41 -16.5 -82.5t-46.5 -75t-71.5 -55t-90.5 -21.5q-54 0 -89 18t-54.5 47.5t-23.5 66t4.5 73t28 70t48.5 56t66 31t80 -4.5h20q-37 7 -58 30t-26.5 53
t4.5 63t34.5 61t64.5 46t95 18q41 0 67 -15t39 -37.5t12 -48.5t-14.5 -48.5t-39.5 -37.5t-63 -15l-4 3q23 6 39.5 22.5t26 38t11 45.5t-5.5 43.5t-24 32.5t-44 13q-38 0 -67.5 -19.5t-50 -49.5t-29.5 -64t-5.5 -64t20 -49.5t49.5 -19.5h58v-4zM342 760q-5 -18 -5 -32
q0 -17 7 -28.5t25 -11.5q13 0 22.5 6.5t17 16.5t12 22.5t6.5 25.5h28q-3 -32 -29 -53.5t-58 -21.5q-26 0 -42 16t-16 40q0 11 3 20h29z" />
    <glyph glyph-name="ebreve" unicode="&#x115;" horiz-adv-x="310" 
d="M232 90q-6 -17 -18.5 -34t-29 -30.5t-37 -22t-43.5 -8.5q-56 0 -80.5 29t-24.5 70q0 36 16 75.5t43.5 72.5t64.5 54.5t80 21.5q35 0 55.5 -15.5t20.5 -44.5q0 -17 -10.5 -36.5t-30 -36.5t-47.5 -28.5t-62 -11.5q-31 0 -61 10q-8 -23 -12 -44.5t-4 -41.5q0 -31 12 -50.5
t40 -19.5q22 0 42 8.5t36 21.5t28 29.5t18 33.5zM203 314q-20 0 -39.5 -13.5t-37 -35.5t-32.5 -50t-25 -57q10 -3 20.5 -5t21.5 -2q27 0 50 14t40 34t27 42t10 39t-7.5 25.5t-27.5 8.5zM185 461q-5 -18 -5 -32q0 -17 7 -28.5t25 -11.5q13 0 22.5 6.5t17 16.5t12 22.5
t6.5 25.5h28q-3 -32 -29 -53.5t-58 -21.5q-26 0 -42 16t-16 40q0 11 3 20h29z" />
    <glyph glyph-name="Edotaccent" unicode="&#x116;" horiz-adv-x="427" 
d="M335 337h-100q-54 0 -92 -26t-60.5 -65t-28.5 -84t4.5 -84t37 -65t70.5 -26q48 0 89 21t70 54t45.5 74t16.5 81h4q0 -41 -16.5 -82.5t-46.5 -75t-71.5 -55t-90.5 -21.5q-54 0 -89 18t-54.5 47.5t-23.5 66t4.5 73t28 70t48.5 56t66 31t80 -4.5h20q-37 7 -58 30t-26.5 53
t4.5 63t34.5 61t64.5 46t95 18q41 0 67 -15t39 -37.5t12 -48.5t-14.5 -48.5t-39.5 -37.5t-63 -15l-4 3q23 6 39.5 22.5t26 38t11 45.5t-5.5 43.5t-24 32.5t-44 13q-38 0 -67.5 -19.5t-50 -49.5t-29.5 -64t-5.5 -64t20 -49.5t49.5 -19.5h58v-4zM378 799q2 14 13.5 24t25.5 10
t22 -10t6 -24t-13 -23.5t-25 -9.5t-22.5 9.5t-6.5 23.5z" />
    <glyph glyph-name="edotaccent" unicode="&#x117;" horiz-adv-x="310" 
d="M232 90q-6 -17 -18.5 -34t-29 -30.5t-37 -22t-43.5 -8.5q-56 0 -80.5 29t-24.5 70q0 36 16 75.5t43.5 72.5t64.5 54.5t80 21.5q35 0 55.5 -15.5t20.5 -44.5q0 -17 -10.5 -36.5t-30 -36.5t-47.5 -28.5t-62 -11.5q-31 0 -61 10q-8 -23 -12 -44.5t-4 -41.5q0 -31 12 -50.5
t40 -19.5q22 0 42 8.5t36 21.5t28 29.5t18 33.5zM203 314q-20 0 -39.5 -13.5t-37 -35.5t-32.5 -50t-25 -57q10 -3 20.5 -5t21.5 -2q27 0 50 14t40 34t27 42t10 39t-7.5 25.5t-27.5 8.5zM202 500q2 14 13.5 24t25.5 10t22 -10t6 -24t-13 -23.5t-25 -9.5t-22.5 9.5t-6.5 23.5z
" />
    <glyph glyph-name="Eogonek" unicode="&#x118;" horiz-adv-x="427" 
d="M335 337h-100q-54 0 -92 -26t-60.5 -65t-28.5 -84t4.5 -84t37 -65t70.5 -26q48 0 89 21t70 54t45.5 74t16.5 81h4q0 -39 -15.5 -79.5t-44 -74t-67.5 -55.5t-86 -25q-23 -8 -37 -31.5t-16.5 -48t7.5 -44t34 -19.5q15 0 29.5 6.5t26.5 17.5l3 -2q-14 -11 -29 -18.5
t-30 -7.5q-37 0 -54 20t-17 46t16.5 50t48.5 32q-69 1 -107 33t-49.5 77t0.5 95.5t42.5 89.5t76.5 58.5t103 2.5h20q-37 7 -58 30t-26.5 53t4.5 63t34.5 61t64.5 46t95 18q41 0 67 -15t39 -37.5t12 -48.5t-14.5 -48.5t-39.5 -37.5t-63 -15l-4 3q23 6 39.5 22.5t26 38
t11 45.5t-5.5 43.5t-24 32.5t-44 13q-38 0 -67.5 -19.5t-50 -49.5t-29.5 -64t-5.5 -64t20 -49.5t49.5 -19.5h58v-4z" />
    <glyph glyph-name="eogonek" unicode="&#x119;" horiz-adv-x="310" 
d="M163 -126q-14 -11 -29 -18.5t-30 -7.5q-37 0 -54 20t-17 46t16.5 49.5t48.5 31.5q-48 1 -71.5 26t-27 60.5t11.5 77t42.5 77t66 59t83.5 23.5q36 0 55.5 -15.5t20.5 -44.5q0 -20 -15 -44t-43 -42t-67 -25t-86 8q-10 -29 -14 -57t-0.5 -50t15.5 -35.5t35 -13.5
q22 0 42 8.5t36 21.5t28 29.5t18 33.5l4 -2q-6 -16 -17 -31.5t-25.5 -28.5t-32.5 -22t-38 -12q-24 -6 -38.5 -29.5t-17.5 -49t6.5 -45.5t34.5 -20q15 0 29.5 6.5t26.5 17.5zM203 314q-20 0 -39.5 -13.5t-37 -35.5t-32.5 -50t-25 -57q10 -3 20.5 -5t21.5 -2q27 0 50.5 14.5
t40.5 34.5t26.5 42.5t9.5 38.5q0 33 -35 33z" />
    <glyph glyph-name="Ecaron" unicode="&#x11a;" horiz-adv-x="427" 
d="M335 337h-100q-54 0 -92 -26t-60.5 -65t-28.5 -84t4.5 -84t37 -65t70.5 -26q48 0 89 21t70 54t45.5 74t16.5 81h4q0 -41 -16.5 -82.5t-46.5 -75t-71.5 -55t-90.5 -21.5q-54 0 -89 18t-54.5 47.5t-23.5 66t4.5 73t28 70t48.5 56t66 31t80 -4.5h20q-37 7 -58 30t-26.5 53
t4.5 63t34.5 61t64.5 46t95 18q41 0 67 -15t39 -37.5t12 -48.5t-14.5 -48.5t-39.5 -37.5t-63 -15l-4 3q23 6 39.5 22.5t26 38t11 45.5t-5.5 43.5t-24 32.5t-44 13q-38 0 -67.5 -19.5t-50 -49.5t-29.5 -64t-5.5 -64t20 -49.5t49.5 -19.5h58v-4zM396 663h-28l-65 132h4l78 -90
h9l123 90h4z" />
    <glyph glyph-name="ecaron" unicode="&#x11b;" horiz-adv-x="310" 
d="M232 90q-6 -17 -18.5 -34t-29 -30.5t-37 -22t-43.5 -8.5q-56 0 -80.5 29t-24.5 70q0 36 16 75.5t43.5 72.5t64.5 54.5t80 21.5q35 0 55.5 -15.5t20.5 -44.5q0 -17 -10.5 -36.5t-30 -36.5t-47.5 -28.5t-62 -11.5q-31 0 -61 10q-8 -23 -12 -44.5t-4 -41.5q0 -31 12 -50.5
t40 -19.5q22 0 42 8.5t36 21.5t28 29.5t18 33.5zM203 314q-20 0 -39.5 -13.5t-37 -35.5t-32.5 -50t-25 -57q10 -3 20.5 -5t21.5 -2q27 0 50 14t40 34t27 42t10 39t-7.5 25.5t-27.5 8.5zM216 393h-28l-65 132h4l78 -90h9l123 90h4z" />
    <glyph glyph-name="Gcircumflex" unicode="&#x11c;" horiz-adv-x="540" 
d="M528 482q0 -43 -21.5 -89.5t-56.5 -80.5h56l-1 -4h-12q-22 -76 -46 -154.5t-56.5 -143t-75.5 -105.5t-102 -41q-41 0 -62 14.5t-27.5 34.5t0.5 41t24 34q-48 11 -77 43.5t-40 78.5t-5.5 101t25 110.5t53.5 107.5t79 92t100.5 64.5t119.5 24.5q28 0 51 -10.5t39.5 -28
t25.5 -40.5t9 -49zM228 -10q60 11 101 52t64 94q12 40 22.5 81t21.5 83q-21 -17 -44 -27t-48 -10q-26 0 -36 12t-5 29q36 -5 75 6.5t71 35.5t53 59t21 77q0 25 -8.5 47.5t-24.5 39.5t-38.5 27t-49.5 10q-39 0 -78.5 -24t-75.5 -63t-67.5 -90t-54 -105.5t-35 -108.5
t-11 -99.5t19 -78t54.5 -44.5q14 8 33 8.5t40 -11.5zM384 108q-28 -52 -74.5 -87.5t-111.5 -37.5q-19 -8 -29 -26.5t-9.5 -38.5t13.5 -35t40 -15q29 0 53.5 19t45.5 51.5t38.5 76t33.5 93.5zM410 824h28l65 -132h-4l-78 90h-9l-123 -90h-4z" />
    <glyph glyph-name="gcircumflex" unicode="&#x11d;" horiz-adv-x="383" 
d="M-60 -141q0 26 19.5 53.5t61.5 50.5q-16 9 -26 21.5t-10 29.5q0 21 10 36.5t25 26t31.5 16t29.5 5.5q7 0 14 -2t12 -4v-4q-6 2 -13.5 4t-14.5 2q-12 0 -24.5 -4t-22.5 -11t-16.5 -17.5t-6.5 -22.5q0 -17 17.5 -26t44 -15t57 -11t57 -13.5t44 -22.5t17.5 -38
q0 -19 -11.5 -42t-35 -43.5t-59.5 -34.5t-85 -14q-56 0 -85.5 23.5t-29.5 56.5zM313 285q11 -3 23.5 -3t23 4.5t17.5 13t7 22.5t-10.5 27.5t-35.5 13.5q-22 0 -37 -14t-15 -34q0 -13 6 -25q16 -17 16 -43q0 -23 -12.5 -48t-35.5 -45.5t-55 -33.5t-71 -13q-52 0 -75 21.5
t-23 50.5q0 23 12.5 48t35.5 45.5t54.5 34t70.5 13.5q26 0 45 -6t31 -16q-3 7 -3 17q0 21 16.5 36.5t39.5 15.5q29 0 40.5 -17.5t11.5 -40.5q0 -21 -14 -37.5t-37 -16.5q-26 0 -26 30zM214 -125q0 19 -20.5 30.5t-50 19.5t-62 15.5t-57.5 20.5q-41 -22 -60.5 -49t-19.5 -53
q0 -32 28.5 -54t82.5 -22q35 0 64 8t49.5 21t32.5 29.5t13 33.5zM208 316q-24 0 -45.5 -15.5t-38 -38.5t-26.5 -49.5t-10 -49.5t11 -37.5t37 -14.5q25 0 47.5 15t39 37.5t26.5 48.5t10 49q0 24 -12 39.5t-39 15.5zM234 525h28l65 -132h-4l-78 90h-9l-123 -90h-4z" />
    <glyph glyph-name="Gbreve" unicode="&#x11e;" horiz-adv-x="540" 
d="M528 482q0 -43 -21.5 -89.5t-56.5 -80.5h56l-1 -4h-12q-22 -76 -46 -154.5t-56.5 -143t-75.5 -105.5t-102 -41q-41 0 -62 14.5t-27.5 34.5t0.5 41t24 34q-48 11 -77 43.5t-40 78.5t-5.5 101t25 110.5t53.5 107.5t79 92t100.5 64.5t119.5 24.5q28 0 51 -10.5t39.5 -28
t25.5 -40.5t9 -49zM228 -10q60 11 101 52t64 94q12 40 22.5 81t21.5 83q-21 -17 -44 -27t-48 -10q-26 0 -36 12t-5 29q36 -5 75 6.5t71 35.5t53 59t21 77q0 25 -8.5 47.5t-24.5 39.5t-38.5 27t-49.5 10q-39 0 -78.5 -24t-75.5 -63t-67.5 -90t-54 -105.5t-35 -108.5
t-11 -99.5t19 -78t54.5 -44.5q14 8 33 8.5t40 -11.5zM384 108q-28 -52 -74.5 -87.5t-111.5 -37.5q-19 -8 -29 -26.5t-9.5 -38.5t13.5 -35t40 -15q29 0 53.5 19t45.5 51.5t38.5 76t33.5 93.5zM399 760q-5 -18 -5 -32q0 -17 7 -28.5t25 -11.5q13 0 22.5 6.5t17 16.5t12 22.5
t6.5 25.5h28q-3 -32 -29 -53.5t-58 -21.5q-26 0 -42 16t-16 40q0 11 3 20h29z" />
    <glyph glyph-name="gbreve" unicode="&#x11f;" horiz-adv-x="383" 
d="M-60 -141q0 26 19.5 53.5t61.5 50.5q-16 9 -26 21.5t-10 29.5q0 21 10 36.5t25 26t31.5 16t29.5 5.5q7 0 14 -2t12 -4v-4q-6 2 -13.5 4t-14.5 2q-12 0 -24.5 -4t-22.5 -11t-16.5 -17.5t-6.5 -22.5q0 -17 17.5 -26t44 -15t57 -11t57 -13.5t44 -22.5t17.5 -38
q0 -19 -11.5 -42t-35 -43.5t-59.5 -34.5t-85 -14q-56 0 -85.5 23.5t-29.5 56.5zM313 285q11 -3 23.5 -3t23 4.5t17.5 13t7 22.5t-10.5 27.5t-35.5 13.5q-22 0 -37 -14t-15 -34q0 -13 6 -25q16 -17 16 -43q0 -23 -12.5 -48t-35.5 -45.5t-55 -33.5t-71 -13q-52 0 -75 21.5
t-23 50.5q0 23 12.5 48t35.5 45.5t54.5 34t70.5 13.5q26 0 45 -6t31 -16q-3 7 -3 17q0 21 16.5 36.5t39.5 15.5q29 0 40.5 -17.5t11.5 -40.5q0 -21 -14 -37.5t-37 -16.5q-26 0 -26 30zM214 -125q0 19 -20.5 30.5t-50 19.5t-62 15.5t-57.5 20.5q-41 -22 -60.5 -49t-19.5 -53
q0 -32 28.5 -54t82.5 -22q35 0 64 8t49.5 21t32.5 29.5t13 33.5zM208 316q-24 0 -45.5 -15.5t-38 -38.5t-26.5 -49.5t-10 -49.5t11 -37.5t37 -14.5q25 0 47.5 15t39 37.5t26.5 48.5t10 49q0 24 -12 39.5t-39 15.5zM198 461q-5 -18 -5 -32q0 -17 7 -28.5t25 -11.5
q13 0 22.5 6.5t17 16.5t12 22.5t6.5 25.5h28q-3 -32 -29 -53.5t-58 -21.5q-26 0 -42 16t-16 40q0 11 3 20h29z" />
    <glyph glyph-name="Gdotaccent" unicode="&#x120;" horiz-adv-x="540" 
d="M528 482q0 -43 -21.5 -89.5t-56.5 -80.5h56l-1 -4h-12q-22 -76 -46 -154.5t-56.5 -143t-75.5 -105.5t-102 -41q-41 0 -62 14.5t-27.5 34.5t0.5 41t24 34q-48 11 -77 43.5t-40 78.5t-5.5 101t25 110.5t53.5 107.5t79 92t100.5 64.5t119.5 24.5q28 0 51 -10.5t39.5 -28
t25.5 -40.5t9 -49zM228 -10q60 11 101 52t64 94q12 40 22.5 81t21.5 83q-21 -17 -44 -27t-48 -10q-26 0 -36 12t-5 29q36 -5 75 6.5t71 35.5t53 59t21 77q0 25 -8.5 47.5t-24.5 39.5t-38.5 27t-49.5 10q-39 0 -78.5 -24t-75.5 -63t-67.5 -90t-54 -105.5t-35 -108.5
t-11 -99.5t19 -78t54.5 -44.5q14 8 33 8.5t40 -11.5zM384 108q-28 -52 -74.5 -87.5t-111.5 -37.5q-19 -8 -29 -26.5t-9.5 -38.5t13.5 -35t40 -15q29 0 53.5 19t45.5 51.5t38.5 76t33.5 93.5z" />
    <glyph glyph-name="gdotaccent" unicode="&#x121;" horiz-adv-x="383" 
d="M-60 -141q0 26 19.5 53.5t61.5 50.5q-16 9 -26 21.5t-10 29.5q0 21 10 36.5t25 26t31.5 16t29.5 5.5q7 0 14 -2t12 -4v-4q-6 2 -13.5 4t-14.5 2q-12 0 -24.5 -4t-22.5 -11t-16.5 -17.5t-6.5 -22.5q0 -17 17.5 -26t44 -15t57 -11t57 -13.5t44 -22.5t17.5 -38
q0 -19 -11.5 -42t-35 -43.5t-59.5 -34.5t-85 -14q-56 0 -85.5 23.5t-29.5 56.5zM313 285q11 -3 23.5 -3t23 4.5t17.5 13t7 22.5t-10.5 27.5t-35.5 13.5q-22 0 -37 -14t-15 -34q0 -13 6 -25q16 -17 16 -43q0 -23 -12.5 -48t-35.5 -45.5t-55 -33.5t-71 -13q-52 0 -75 21.5
t-23 50.5q0 23 12.5 48t35.5 45.5t54.5 34t70.5 13.5q26 0 45 -6t31 -16q-3 7 -3 17q0 21 16.5 36.5t39.5 15.5q29 0 40.5 -17.5t11.5 -40.5q0 -21 -14 -37.5t-37 -16.5q-26 0 -26 30zM214 -125q0 19 -20.5 30.5t-50 19.5t-62 15.5t-57.5 20.5q-41 -22 -60.5 -49t-19.5 -53
q0 -32 28.5 -54t82.5 -22q35 0 64 8t49.5 21t32.5 29.5t13 33.5zM208 316q-24 0 -45.5 -15.5t-38 -38.5t-26.5 -49.5t-10 -49.5t11 -37.5t37 -14.5q25 0 47.5 15t39 37.5t26.5 48.5t10 49q0 24 -12 39.5t-39 15.5z" />
    <glyph glyph-name="Gcommaaccent" unicode="&#x122;" horiz-adv-x="540" 
d="M132 -333q39 16 56 40.5t18 41.5q0 27 -27 27q-7 0 -14 -3.5t-11 -9.5q-4 4 -5 10.5t-1 12.5q1 16 13 27t29 11q20 0 31 -15t8 -35q-5 -33 -31 -63.5t-65 -46.5zM528 482q0 -43 -21.5 -89.5t-56.5 -80.5h56l-1 -4h-12q-22 -76 -46 -154.5t-56.5 -143t-75.5 -105.5
t-102 -41q-41 0 -62 14.5t-27.5 34.5t0.5 41t24 34q-48 11 -77 43.5t-40 78.5t-5.5 101t25 110.5t53.5 107.5t79 92t100.5 64.5t119.5 24.5q28 0 51 -10.5t39.5 -28t25.5 -40.5t9 -49zM228 -10q60 11 101 52t64 94q12 40 22.5 81t21.5 83q-21 -17 -44 -27t-48 -10
q-26 0 -36 12t-5 29q36 -5 75 6.5t71 35.5t53 59t21 77q0 25 -8.5 47.5t-24.5 39.5t-38.5 27t-49.5 10q-39 0 -78.5 -24t-75.5 -63t-67.5 -90t-54 -105.5t-35 -108.5t-11 -99.5t19 -78t54.5 -44.5q14 8 33 8.5t40 -11.5zM384 108q-28 -52 -74.5 -87.5t-111.5 -37.5
q-19 -8 -29 -26.5t-9.5 -38.5t13.5 -35t40 -15q29 0 53.5 19t45.5 51.5t38.5 76t33.5 93.5z" />
    <glyph glyph-name="gcommaaccent" unicode="&#x123;" horiz-adv-x="383" 
d="M-60 -141q0 26 19.5 53.5t61.5 50.5q-16 9 -26 21.5t-10 29.5q0 21 10 36.5t25 26t31.5 16t29.5 5.5q7 0 14 -2t12 -4v-4q-6 2 -13.5 4t-14.5 2q-12 0 -24.5 -4t-22.5 -11t-16.5 -17.5t-6.5 -22.5q0 -17 17.5 -26t44 -15t57 -11t57 -13.5t44 -22.5t17.5 -38
q0 -19 -11.5 -42t-35 -43.5t-59.5 -34.5t-85 -14q-56 0 -85.5 23.5t-29.5 56.5zM313 285q11 -3 23.5 -3t23 4.5t17.5 13t7 22.5t-10.5 27.5t-35.5 13.5q-22 0 -37 -14t-15 -34q0 -13 6 -25q16 -17 16 -43q0 -23 -12.5 -48t-35.5 -45.5t-55 -33.5t-71 -13q-52 0 -75 21.5
t-23 50.5q0 23 12.5 48t35.5 45.5t54.5 34t70.5 13.5q26 0 45 -6t31 -16q-3 7 -3 17q0 21 16.5 36.5t39.5 15.5q29 0 40.5 -17.5t11.5 -40.5q0 -21 -14 -37.5t-37 -16.5q-26 0 -26 30zM214 -125q0 19 -20.5 30.5t-50 19.5t-62 15.5t-57.5 20.5q-41 -22 -60.5 -49t-19.5 -53
q0 -32 28.5 -54t82.5 -22q35 0 64 8t49.5 21t32.5 29.5t13 33.5zM208 316q-24 0 -45.5 -15.5t-38 -38.5t-26.5 -49.5t-10 -49.5t11 -37.5t37 -14.5q25 0 47.5 15t39 37.5t26.5 48.5t10 49q0 24 -12 39.5t-39 15.5z" />
    <glyph glyph-name="Hcircumflex" unicode="&#x124;" horiz-adv-x="759" 
d="M293 -253q24 7 51 7h10q66 8 109 47t72.5 103t51 148.5t46.5 183.5l7 28h-224l-80 -268h66l-1 -4h-201l1 4h73q2 8 9.5 33.5t18 62t23.5 81t27 91.5h-42q0 -22 -14.5 -45t-40.5 -41.5t-61.5 -30t-76.5 -11.5q-38 0 -65.5 11.5t-45.5 31t-26.5 45t-8.5 54.5q0 35 13 71
t38.5 67.5t63 55t85.5 32.5q31 6 68 9t75.5 6.5t74.5 9t63.5 15t44.5 26t17 41.5q0 14 -7.5 29.5t-31.5 15.5q-18 0 -37 -15.5t-24 -45.5q-7 2 -11 9.5t-4 17.5q0 17 13.5 35t45.5 18q26 0 42.5 -19.5t16.5 -42.5q0 -15 -4 -27l-96 -317h224l25 95q7 31 19.5 62.5t30 58
t40.5 45.5t53 26h-119l1 4h167l-1 -4q-26 0 -45 -13t-33 -36t-25.5 -54.5t-21.5 -69.5l-33 -119q-27 -98 -55 -186t-65 -156t-87.5 -112.5t-123.5 -56.5q30 -4 58.5 -13.5t57 -20t57 -18.5t57.5 -8q40 0 70 11t50 28.5t29.5 39.5t9.5 44q0 36 -25 63.5t-73 27.5
q-18 0 -32.5 -9t-24.5 -22.5t-15.5 -29t-5.5 -28.5q-26 0 -26 23q0 10 7 22.5t20 23t32.5 17.5t44.5 7q27 0 46.5 -8.5t32.5 -23t19.5 -33t6.5 -38.5q0 -26 -10.5 -52.5t-31 -48t-51.5 -35t-72 -13.5q-35 0 -68.5 14t-67 31t-67 31t-66.5 14q-9 0 -17.5 -1.5t-17.5 -3.5z
M354 269q12 40 23 78.5t21 72t18.5 59.5t13.5 41q-29 -12 -61.5 -21.5t-65 -16.5t-62.5 -12.5t-54 -9.5q-49 -9 -86.5 -31t-63 -50t-38.5 -60.5t-13 -62.5q0 -48 32 -82t98 -34q37 0 66.5 10.5t49.5 27.5t30.5 38.5t10.5 44.5q0 8 -1 15.5t-6 13.5q7 4 17 4q22 0 27 -24z
M655 824h28l65 -132h-4l-78 90h-9l-123 -90h-4z" />
    <glyph glyph-name="hcircumflex" unicode="&#x125;" horiz-adv-x="408" 
d="M-5 -1q28 102 52 186l20 72t19 66.5t15 53t9 31.5q6 21 16 31.5t20 15.5q11 5 25 5l1 3h-95l1 4h107l-73 -263q11 23 26 44t32 37t36.5 25.5t39.5 9.5q15 0 29 -5t24.5 -14.5t15 -22.5t0.5 -29l-51 -185q-3 -11 -4.5 -22.5t0 -20.5t7.5 -15t18 -6q16 0 29.5 7.5
t23.5 19.5t16.5 27.5t9.5 31.5l4 -1q-3 -16 -10 -32t-17.5 -28.5t-24.5 -20.5t-31 -8q-18 0 -34.5 5t-27.5 16t-15 27t2 39q12 42 23 81q9 33 18.5 66.5t15.5 52.5q4 13 0.5 23t-21.5 10q-22 0 -43.5 -12t-40.5 -32t-34 -45t-24 -52l-49 -176h-60zM278 648h28l65 -132h-4
l-78 90h-9l-123 -90h-4z" />
    <glyph glyph-name="hbar" unicode="&#x127;" horiz-adv-x="408" 
d="M20 362h77q5 16 8 28t5 18q6 21 16 31.5t20 15.5q11 5 25 5l1 3h-95l1 4h107l-30 -105h87l-2 -6h-86l-42 -150q22 48 57 81t77 33q15 0 29 -5t24.5 -14.5t15 -22.5t0.5 -29l-51 -185q-3 -11 -4.5 -22.5t0 -20.5t7.5 -15t18 -6q16 0 29.5 7.5t23.5 19.5t16.5 27.5
t9.5 31.5l4 -1q-3 -16 -10 -32t-17.5 -28.5t-24.5 -20.5t-31 -8q-18 0 -34.5 5t-27.5 16t-15 27t2 39q12 42 23 81q9 33 18.5 66.5t15.5 52.5q4 13 0.5 23t-21.5 10q-24 0 -47 -13.5t-42.5 -35.5t-34 -49.5t-22.5 -55.5l-45 -163h-60q20 70 38 136q8 28 16.5 58t16.5 59
t15.5 56t13.5 48h-77z" />
    <glyph glyph-name="Itilde" unicode="&#x128;" horiz-adv-x="649" 
d="M677 562l-114 -395q-12 -43 -35.5 -81t-56.5 -66.5t-74 -45t-89 -16.5t-80 17.5t-49.5 45t-22 60.5t0.5 64h-16.5t-16.5 2q-47 6 -78.5 26.5t-49 49.5t-22 64.5t1.5 71.5q9 48 37.5 90t70 71.5t91.5 44t101 8.5q35 -5 81.5 -16.5t91.5 -22.5q-2 10 1 19q4 22 19.5 41
t38 32t48.5 19t52 3q40 -5 53 -25t9 -42q-5 -23 -20.5 -37.5t-39.5 -23.5q18 2 37 12.5t29 29.5h1zM307 312q2 4 8.5 9.5t17.5 3.5q16 -2 20 -24q5 -24 -6 -49t-33.5 -46t-54 -36.5t-67.5 -21.5q-18 -32 -18.5 -65t15 -60t46 -44t74.5 -17q43 0 75 20.5t55 51.5t38 67t24 67
l101 345l-7 2q-38 -10 -87 -9.5t-99 5.5t-94.5 12t-73.5 11q-54 7 -99 -7.5t-78.5 -41.5t-55.5 -62.5t-29 -72.5q-6 -30 -1 -62.5t22 -61t47.5 -49t76.5 -26.5q8 -2 16.5 -2h16.5q7 36 26 62.5t45 31.5q16 3 24.5 -5t8.5 -20q-45 -28 -66 -65q31 7 55.5 22.5t39.5 37t20 47
t-3 52.5zM454 553q-3 -9 -1 -20q20 -5 39.5 -9t36.5 -6q21 -2 43.5 0t42 9.5t33.5 20.5t18 33q4 21 -8 39.5t-50 23.5q-24 3 -50 -3t-47.5 -18.5t-37 -30.5t-19.5 -39zM537 708q8 35 33 60t53 25q15 0 28.5 -6.5t27 -14t27.5 -13.5t29 -6q12 0 21.5 5t16.5 12t11.5 15.5
t6.5 15.5h4q-2 -8 -8 -22.5t-16 -29t-25 -25.5t-35 -11q-16 0 -29.5 6t-26 13.5t-25.5 13.5t-28 6q-28 0 -42 -13.5t-19 -30.5h-4z" />
    <glyph glyph-name="itilde" unicode="&#x129;" horiz-adv-x="214" 
d="M36 403q6 26 25 45t40 19q11 0 21.5 -4.5t21 -10.5t21 -10.5t21.5 -4.5q18 0 28.5 12.5t13.5 23.5h3q-2 -6 -6 -17t-12 -22.5t-19 -19.5t-26 -8q-12 0 -22.5 4.5t-20 10.5t-19.5 10.5t-21 4.5q-21 0 -31.5 -10t-14.5 -23h-3zM166 85q-3 -16 -9.5 -32t-17 -28.5
t-24.5 -20.5t-31 -8q-31 0 -55 14.5t-24 46.5q0 13 4 25q10 35 20 68q8 28 16.5 57t13.5 48q6 20 15.5 30.5t19.5 15t17.5 5t9.5 0.5l1 4h-96l2 4h107l-72 -250q-5 -18 -5 -33q0 -14 5.5 -22.5t20.5 -8.5q16 0 29.5 7.5t23 19.5t16 27t9.5 31h4z" />
    <glyph glyph-name="imacron" unicode="&#x12b;" horiz-adv-x="214" 
d="M9 434h222l-2 -6h-222zM166 85q-3 -16 -9.5 -32t-17 -28.5t-24.5 -20.5t-31 -8q-31 0 -55 14.5t-24 46.5q0 13 4 25q10 35 20 68q8 28 16.5 57t13.5 48q6 20 15.5 30.5t19.5 15t17.5 5t9.5 0.5l1 4h-96l2 4h107l-72 -250q-5 -18 -5 -33q0 -14 5.5 -22.5t20.5 -8.5
q16 0 29.5 7.5t23 19.5t16 27t9.5 31h4z" />
    <glyph glyph-name="Ibreve" unicode="&#x12c;" horiz-adv-x="649" 
d="M677 562l-114 -395q-12 -43 -35.5 -81t-56.5 -66.5t-74 -45t-89 -16.5t-80 17.5t-49.5 45t-22 60.5t0.5 64h-16.5t-16.5 2q-47 6 -78.5 26.5t-49 49.5t-22 64.5t1.5 71.5q9 48 37.5 90t70 71.5t91.5 44t101 8.5q35 -5 81.5 -16.5t91.5 -22.5q-2 10 1 19q4 22 19.5 41
t38 32t48.5 19t52 3q40 -5 53 -25t9 -42q-5 -23 -20.5 -37.5t-39.5 -23.5q18 2 37 12.5t29 29.5h1zM307 312q2 4 8.5 9.5t17.5 3.5q16 -2 20 -24q5 -24 -6 -49t-33.5 -46t-54 -36.5t-67.5 -21.5q-18 -32 -18.5 -65t15 -60t46 -44t74.5 -17q43 0 75 20.5t55 51.5t38 67t24 67
l101 345l-7 2q-38 -10 -87 -9.5t-99 5.5t-94.5 12t-73.5 11q-54 7 -99 -7.5t-78.5 -41.5t-55.5 -62.5t-29 -72.5q-6 -30 -1 -62.5t22 -61t47.5 -49t76.5 -26.5q8 -2 16.5 -2h16.5q7 36 26 62.5t45 31.5q16 3 24.5 -5t8.5 -20q-45 -28 -66 -65q31 7 55.5 22.5t39.5 37t20 47
t-3 52.5zM454 553q-3 -9 -1 -20q20 -5 39.5 -9t36.5 -6q21 -2 43.5 0t42 9.5t33.5 20.5t18 33q4 21 -8 39.5t-50 23.5q-24 3 -50 -3t-47.5 -18.5t-37 -30.5t-19.5 -39zM635 760q-5 -18 -5 -32q0 -17 7 -28.5t25 -11.5q13 0 22.5 6.5t17 16.5t12 22.5t6.5 25.5h28
q-3 -32 -29 -53.5t-58 -21.5q-26 0 -42 16t-16 40q0 11 3 20h29z" />
    <glyph glyph-name="Iogonek" unicode="&#x12e;" horiz-adv-x="649" 
d="M333 -42q-19 -12 -30.5 -35t-12.5 -46t8.5 -40t32.5 -17q15 0 29.5 6.5t26.5 17.5l3 -2q-14 -11 -29 -18.5t-30 -7.5q-34 0 -51.5 17.5t-19.5 41.5t10 47.5t38 35.5q-48 0 -80 17.5t-49.5 45t-22 60.5t0.5 64h-16.5t-16.5 2q-47 6 -78.5 26.5t-49 49.5t-22 64.5t1.5 71.5
q9 48 37.5 90t70 71.5t91.5 44t101 8.5q35 -5 81.5 -16.5t91.5 -22.5q-2 10 1 19q4 22 19.5 41t38 32t48.5 19t52 3q40 -5 53 -25t9 -42q-5 -23 -20.5 -37.5t-39.5 -23.5q18 2 37 12.5t29 29.5h1l-114 -395q-12 -40 -32.5 -75t-49.5 -63t-65 -46t-78 -23zM307 312
q2 4 8.5 9.5t17.5 3.5q16 -2 20 -24q5 -24 -6 -49t-33.5 -46t-54 -36.5t-67.5 -21.5q-18 -32 -18.5 -65t15 -60t46 -44t74.5 -17q43 0 75 20.5t55 51.5t38 67t24 67l101 345l-7 2q-38 -10 -87 -9.5t-99 5.5t-94.5 12t-73.5 11q-54 7 -99 -7.5t-78.5 -41.5t-55.5 -62.5
t-29 -72.5q-6 -30 -1 -62.5t22 -61t47.5 -49t76.5 -26.5q8 -2 16.5 -2h16.5q7 36 26 62.5t45 31.5q16 3 24.5 -5t8.5 -20q-45 -28 -66 -65q31 7 55.5 22.5t39.5 37t20 47t-3 52.5zM454 553q-3 -9 -1 -20q20 -5 39.5 -9t36.5 -6q21 -2 43.5 0t42 9.5t33.5 20.5t18 33
q4 21 -8 39.5t-50 23.5q-24 3 -50 -3t-47.5 -18.5t-37 -30.5t-19.5 -39z" />
    <glyph glyph-name="iogonek" unicode="&#x12f;" horiz-adv-x="214" 
d="M166 85q-3 -15 -9 -29.5t-15 -27t-20.5 -21t-26.5 -10.5q-24 -6 -39.5 -29t-19 -49t6 -46.5t34.5 -20.5q15 0 29.5 6.5t26.5 17.5l3 -2q-14 -11 -29 -18.5t-30 -7.5q-37 0 -54.5 20.5t-16.5 47t18.5 50.5t50.5 30q-28 2 -49 17t-21 44q0 13 4 25q10 35 20 68
q8 28 16.5 57t13.5 48q6 20 15.5 30.5t19.5 15t17.5 5t9.5 0.5l1 4h-96l2 4h107l-72 -250q-5 -18 -5 -33q0 -14 5.5 -22.5t20.5 -8.5q16 0 29.5 7.5t23 19.5t16 27t9.5 31h4zM121 500q2 14 13.5 24t25.5 10t22 -10t6 -24t-13 -23.5t-25 -9.5t-22.5 9.5t-6.5 23.5z" />
    <glyph glyph-name="Idotaccent" unicode="&#x130;" horiz-adv-x="649" 
d="M677 562l-114 -395q-12 -43 -35.5 -81t-56.5 -66.5t-74 -45t-89 -16.5t-80 17.5t-49.5 45t-22 60.5t0.5 64h-16.5t-16.5 2q-47 6 -78.5 26.5t-49 49.5t-22 64.5t1.5 71.5q9 48 37.5 90t70 71.5t91.5 44t101 8.5q35 -5 81.5 -16.5t91.5 -22.5q-2 10 1 19q4 22 19.5 41
t38 32t48.5 19t52 3q40 -5 53 -25t9 -42q-5 -23 -20.5 -37.5t-39.5 -23.5q18 2 37 12.5t29 29.5h1zM307 312q2 4 8.5 9.5t17.5 3.5q16 -2 20 -24q5 -24 -6 -49t-33.5 -46t-54 -36.5t-67.5 -21.5q-18 -32 -18.5 -65t15 -60t46 -44t74.5 -17q43 0 75 20.5t55 51.5t38 67t24 67
l101 345l-7 2q-38 -10 -87 -9.5t-99 5.5t-94.5 12t-73.5 11q-54 7 -99 -7.5t-78.5 -41.5t-55.5 -62.5t-29 -72.5q-6 -30 -1 -62.5t22 -61t47.5 -49t76.5 -26.5q8 -2 16.5 -2h16.5q7 36 26 62.5t45 31.5q16 3 24.5 -5t8.5 -20q-45 -28 -66 -65q31 7 55.5 22.5t39.5 37t20 47
t-3 52.5zM454 553q-3 -9 -1 -20q20 -5 39.5 -9t36.5 -6q21 -2 43.5 0t42 9.5t33.5 20.5t18 33q4 21 -8 39.5t-50 23.5q-24 3 -50 -3t-47.5 -18.5t-37 -30.5t-19.5 -39zM655 799q2 14 13.5 24t25.5 10t22 -10t6 -24t-13 -23.5t-25 -9.5t-22.5 9.5t-6.5 23.5z" />
    <glyph glyph-name="dotlessi" unicode="&#x131;" horiz-adv-x="214" 
d="M166 85q-3 -16 -9.5 -32t-17 -28.5t-24.5 -20.5t-31 -8q-31 0 -55 14.5t-24 46.5q0 13 4 25q10 35 20 68q8 28 16.5 57t13.5 48q6 20 15.5 30.5t19.5 15t17.5 5t9.5 0.5l1 4h-96l2 4h107l-72 -250q-5 -18 -5 -33q0 -14 5.5 -22.5t20.5 -8.5q16 0 29.5 7.5t23 19.5t16 27
t9.5 31h4z" />
    <glyph glyph-name="ij" unicode="&#x133;" horiz-adv-x="397" 
d="M166 85q-3 -16 -9.5 -32t-17 -28.5t-24.5 -20.5t-31 -8q-31 0 -55 14.5t-24 46.5q0 13 4 25q10 35 20 68q8 28 16.5 57t13.5 48q6 20 15.5 30.5t19.5 15t17.5 5t9.5 0.5l1 4h-96l2 4h107l-72 -250q-5 -18 -5 -33q0 -14 5.5 -22.5t20.5 -8.5q16 0 29.5 7.5t23 19.5t16 27
t9.5 31h4zM121 500q2 14 13.5 24t25.5 10t22 -10t6 -24t-13 -23.5t-25 -9.5t-22.5 9.5t-6.5 23.5zM113 -177q-7 17 -22.5 31t-38.5 14q-17 0 -28 -11t-11 -32q0 -17 13 -30t42 -13q41 0 68 27t45.5 70t32 97.5t27.5 109.5l42 168q5 21 14.5 31.5t19.5 15.5t17.5 5.5t8.5 0.5
l1 3h-95l1 4h107l-63 -251q-14 -56 -33 -107t-45.5 -91t-62.5 -63.5t-85 -23.5q-29 0 -44 15t-15 32q0 23 16.5 40.5t48.5 17.5q21 0 33 -12.5t12 -27.5q0 -11 -6 -20zM335 500q2 14 13.5 24t25.5 10t22 -10t6 -24t-13 -23.5t-25 -9.5t-22.5 9.5t-6.5 23.5z" />
    <glyph glyph-name="Jcircumflex" unicode="&#x134;" horiz-adv-x="640" 
d="M582 229q-27 -98 -61.5 -190.5t-82.5 -165t-112.5 -116.5t-151.5 -44q-51 0 -84 20t-49.5 50t-19.5 66t5.5 67.5t26 54.5t41.5 27q16 3 24.5 -5t8.5 -20q-52 -32 -72.5 -76t-12.5 -84t42 -68t91 -28q49 0 88.5 21.5t72 59t58.5 87.5t47.5 107t40.5 118t38 120l60 192
q9 30 23 50.5t32 36.5l-2 5q-38 -10 -87.5 -9.5t-99.5 5.5t-95 12.5t-74 11.5q-54 7 -99 -7t-78.5 -41t-55.5 -63t-29 -73q-6 -30 -1 -62.5t22 -61t47.5 -49t76.5 -26.5q47 -6 85 5.5t63.5 35t35 55t-0.5 65.5q2 4 8.5 9t17.5 4q8 -2 13 -7t7 -17q6 -30 -11.5 -60t-50 -53
t-76.5 -35t-91 -6t-78.5 26.5t-49 49.5t-22.5 64.5t2 71.5q8 48 36.5 90t70 71.5t92 44t101.5 8.5q35 -5 81.5 -16.5t91.5 -22.5q-2 10 1 19q4 22 19.5 41t38 32t48.5 19t52 3q40 -5 53 -25t9 -42q-5 -23 -17 -37q10 6 20.5 11.5t21.5 11.5l1 -2q-12 -8 -24.5 -16.5
t-24.5 -23.5t-24 -39t-22 -61zM490 553q-3 -9 -1 -20q20 -5 39.5 -9t36.5 -6q21 -2 43 -1t41.5 7.5t34 20t18.5 36.5q4 21 -8 39.5t-50 23.5q-24 3 -50 -3t-47.5 -18.5t-37 -30.5t-19.5 -39zM679 824h28l65 -132h-4l-78 90h-9l-123 -90h-4z" />
    <glyph glyph-name="jcircumflex" unicode="&#x135;" horiz-adv-x="183" 
d="M-101 -177q-7 17 -22.5 31t-38.5 14q-17 0 -28 -11t-11 -32q0 -17 13 -30t42 -13q41 0 68 27t45.5 70t32 97.5t27.5 109.5l42 168q5 21 14.5 31.5t19.5 15.5t17.5 5.5t8.5 0.5l1 3h-95l1 4h107l-63 -251q-14 -56 -33 -107t-45.5 -91t-62.5 -63.5t-85 -23.5q-29 0 -44 15
t-15 32q0 23 16.5 40.5t48.5 17.5q21 0 33 -12.5t12 -27.5q0 -11 -6 -20zM137 525h28l65 -132h-4l-78 90h-9l-123 -90h-4z" />
    <glyph glyph-name="Kcommaaccent" unicode="&#x136;" horiz-adv-x="771" 
d="M384 -238q39 16 56 40.5t18 41.5q0 27 -27 27q-7 0 -14 -3.5t-11 -9.5q-4 4 -5 10.5t-1 12.5q1 16 13 27t29 11q20 0 31 -15t8 -35q-5 -33 -31 -63.5t-65 -46.5zM520 594q0 -1 -1.5 -4.5t-7.5 -23.5t-19.5 -62.5t-38.5 -120.5q38 -14 65.5 -49t47.5 -80l200 298h-101l1 4
h216l-1 -4h-109l-204 -303q19 -44 34 -90t30 -83.5t32 -62t40 -24.5q13 0 24.5 8.5t13.5 25.5h4q-2 -19 -15 -28.5t-27 -9.5q-42 0 -71 24t-49 61t-34 82.5t-28 89t-31 79t-41 53.5l-117 -370h66l-2 -4h-195l2 4h72q2 6 7.5 24t14 45t19 61t22.5 71q-38 13 -49.5 42.5
t-1.5 60t38.5 55.5t70.5 28q14 43 24 75.5t15 47.5q35 8 49.5 23t22.5 32q-14 -23 -36.5 -33t-48.5 -10q-28 0 -58.5 4.5t-61.5 10.5t-60.5 10.5t-54.5 4.5q-40 0 -71 -16.5t-51 -42t-28 -54.5t-1.5 -54.5t28 -42t60.5 -16.5q34 0 51.5 16t20.5 36t-7.5 36.5t-32.5 18.5
q0 12 5.5 20.5t13 12.5t16.5 4.5t17 -2.5q16 -8 20 -31.5t-5.5 -49t-34 -45.5t-64.5 -20q-43 0 -68 20.5t-32.5 50.5t0.5 65.5t30 65.5t57.5 49.5t82.5 18.5q26 0 54.5 -10.5t58 -22.5t59 -22.5t57.5 -10.5q32 0 56 16t35 42zM340 210q14 45 28.5 90t27.5 87
q-39 -4 -66.5 -27.5t-37.5 -53t1 -57t47 -39.5z" />
    <glyph glyph-name="kcommaaccent" unicode="&#x137;" horiz-adv-x="397" 
d="M86 -238q39 16 56 40.5t18 41.5q0 27 -27 27q-7 0 -14 -3.5t-11 -9.5q-4 4 -5 10.5t-1 12.5q1 16 13 27t29 11q20 0 31 -15t8 -35q-5 -33 -31 -63.5t-65 -46.5zM-5 -1q28 102 52 186l20 72t18.5 66.5t15 53t9.5 31.5q6 21 16 31.5t20 15.5q11 5 25 6l1 2h-96l2 4h107
l-131 -468h-59zM325 339q-8 3 -8.5 -1.5t1.5 -13.5t3.5 -20.5t-1.5 -22.5t-11 -21.5t-18 -18.5t-21 -12.5t-20 -3.5v2q15 -1 21.5 8.5t8.5 23t1.5 29.5t2.5 28q-42 2 -76.5 -24.5t-59.5 -62.5q37 -3 58.5 -21t34 -43.5t18 -54.5t10 -53.5t10.5 -40.5t19 -16q21 0 37 12
t29 31l3 -1q-12 -20 -30 -33t-41 -13q-34 0 -52.5 17t-28 43t-14 55.5t-11 55.5t-19 43t-36.5 17v3q2 0 4.5 -0.5t4.5 -0.5q12 18 27.5 35t33.5 29.5t38 19.5t42 7q3 8 7 13q14 15 33 8v-2z" />
    <glyph glyph-name="Lacute" unicode="&#x139;" horiz-adv-x="511" 
d="M570 481q0 -28 -12 -54.5t-31.5 -47t-44.5 -33t-50 -12.5q-39 0 -62 16.5t-31 38.5t-2.5 44.5t24.5 34.5q14 10 29 3q-10 -19 -12.5 -42t2.5 -43t18.5 -33.5t35.5 -13.5q24 0 47.5 12t42 31.5t30 45.5t11.5 53q0 45 -29 72t-71 27q-20 0 -42 -5.5t-44 -22t-41.5 -47
t-33.5 -80.5l-40 -140q-25 -93 -51.5 -149.5t-57.5 -89.5t-67 -49t-80 -28v-2q37 -5 68 -24.5t58.5 -46.5t53.5 -57t52.5 -57t55 -46.5t61.5 -24.5q73 -11 130.5 14.5t94.5 71t52 102.5t3.5 109t-52 90.5t-113.5 46.5q-23 3 -48 -1.5t-47.5 -14t-40.5 -23.5t-28 -30
q-8 -11 -13.5 -23.5t-8.5 -27.5q-3 -2 -11.5 -3t-16.5 4q-10 8 -8.5 24t14.5 33q14 20 39.5 33.5t55 22t60 11t54.5 -0.5q54 -6 91 -29.5t57.5 -57.5t25 -75.5t-5 -83.5t-33 -80.5t-59.5 -66.5t-84 -42.5t-106 -7.5q-45 5 -85 26t-76 49.5t-69 60t-65 57.5t-64 43t-66 16
l10 5q11 3 22 4t22 1q25 7 45 13t36.5 16.5t32 29t31 50.5t33 81.5t39.5 122.5l42 141q14 48 38.5 79.5t54.5 50t63 25.5t63 7q43 0 73.5 -27.5t30.5 -75.5zM418 655q24 3 41.5 18t28 34t12.5 39t-7 34q17 11 33 4t18 -28q1 -12 -7 -28t-24.5 -31t-40 -27.5t-53.5 -17.5z
" />
    <glyph glyph-name="lacute" unicode="&#x13a;" horiz-adv-x="213" 
d="M160 129q6 -17 2.5 -40t-14.5 -43.5t-29 -35t-41 -14.5q-18 0 -35 5t-28 16t-15 27t2 39q23 78 42 144q8 28 16 56.5t15 53t12 43.5t8 28q5 19 10.5 29.5t10.5 15.5q5 6 11 8l1 2h-89l1 4h131l-115 -403q-3 -11 -4.5 -22.5t0.5 -20.5t8 -15t18 -6q22 0 39 13.5t27.5 33.5
t14 41.5t-2.5 38.5zM119 524q24 3 41.5 18t28 34t12.5 39t-7 34q17 11 33 4t18 -28q1 -12 -7 -28t-24.5 -31t-40 -27.5t-53.5 -17.5z" />
    <glyph glyph-name="Lcommaaccent" unicode="&#x13b;" horiz-adv-x="511" 
d="M212 -468q39 16 56 40.5t18 41.5q0 27 -27 27q-7 0 -14 -3.5t-11 -9.5q-4 4 -5 10.5t-1 12.5q1 16 13 27t29 11q20 0 31 -15t8 -35q-5 -33 -31 -63.5t-65 -46.5zM570 481q0 -28 -12 -54.5t-31.5 -47t-44.5 -33t-50 -12.5q-39 0 -62 16.5t-31 38.5t-2.5 44.5t24.5 34.5
q14 10 29 3q-10 -19 -12.5 -42t2.5 -43t18.5 -33.5t35.5 -13.5q24 0 47.5 12t42 31.5t30 45.5t11.5 53q0 45 -29 72t-71 27q-20 0 -42 -5.5t-44 -22t-41.5 -47t-33.5 -80.5l-40 -140q-25 -93 -51.5 -149.5t-57.5 -89.5t-67 -49t-80 -28v-2q37 -5 68 -24.5t58.5 -46.5
t53.5 -57t52.5 -57t55 -46.5t61.5 -24.5q73 -11 130.5 14.5t94.5 71t52 102.5t3.5 109t-52 90.5t-113.5 46.5q-23 3 -48 -1.5t-47.5 -14t-40.5 -23.5t-28 -30q-8 -11 -13.5 -23.5t-8.5 -27.5q-3 -2 -11.5 -3t-16.5 4q-10 8 -8.5 24t14.5 33q14 20 39.5 33.5t55 22t60 11
t54.5 -0.5q54 -6 91 -29.5t57.5 -57.5t25 -75.5t-5 -83.5t-33 -80.5t-59.5 -66.5t-84 -42.5t-106 -7.5q-45 5 -85 26t-76 49.5t-69 60t-65 57.5t-64 43t-66 16l10 5q11 3 22 4t22 1q25 7 45 13t36.5 16.5t32 29t31 50.5t33 81.5t39.5 122.5l42 141q14 48 38.5 79.5t54.5 50
t63 25.5t63 7q43 0 73.5 -27.5t30.5 -75.5z" />
    <glyph glyph-name="lcommaaccent" unicode="&#x13c;" horiz-adv-x="213" 
d="M13 -238q39 16 56 40.5t18 41.5q0 27 -27 27q-7 0 -14 -3.5t-11 -9.5q-4 4 -5 10.5t-1 12.5q1 16 13 27t29 11q20 0 31 -15t8 -35q-5 -33 -31 -63.5t-65 -46.5zM160 129q6 -17 2.5 -40t-14.5 -43.5t-29 -35t-41 -14.5q-18 0 -35 5t-28 16t-15 27t2 39q23 78 42 144
q8 28 16 56.5t15 53t12 43.5t8 28q5 19 10.5 29.5t10.5 15.5q5 6 11 8l1 2h-89l1 4h131l-115 -403q-3 -11 -4.5 -22.5t0.5 -20.5t8 -15t18 -6q22 0 39 13.5t27.5 33.5t14 41.5t-2.5 38.5z" />
    <glyph glyph-name="Lcaron" unicode="&#x13d;" horiz-adv-x="511" 
d="M570 481q0 -28 -12 -54.5t-31.5 -47t-44.5 -33t-50 -12.5q-39 0 -62 16.5t-31 38.5t-2.5 44.5t24.5 34.5q14 10 29 3q-10 -19 -12.5 -42t2.5 -43t18.5 -33.5t35.5 -13.5q24 0 47.5 12t42 31.5t30 45.5t11.5 53q0 45 -29 72t-71 27q-20 0 -42 -5.5t-44 -22t-41.5 -47
t-33.5 -80.5l-40 -140q-25 -93 -51.5 -149.5t-57.5 -89.5t-67 -49t-80 -28v-2q37 -5 68 -24.5t58.5 -46.5t53.5 -57t52.5 -57t55 -46.5t61.5 -24.5q73 -11 130.5 14.5t94.5 71t52 102.5t3.5 109t-52 90.5t-113.5 46.5q-23 3 -48 -1.5t-47.5 -14t-40.5 -23.5t-28 -30
q-8 -11 -13.5 -23.5t-8.5 -27.5q-3 -2 -11.5 -3t-16.5 4q-10 8 -8.5 24t14.5 33q14 20 39.5 33.5t55 22t60 11t54.5 -0.5q54 -6 91 -29.5t57.5 -57.5t25 -75.5t-5 -83.5t-33 -80.5t-59.5 -66.5t-84 -42.5t-106 -7.5q-45 5 -85 26t-76 49.5t-69 60t-65 57.5t-64 43t-66 16
l10 5q11 3 22 4t22 1q25 7 45 13t36.5 16.5t32 29t31 50.5t33 81.5t39.5 122.5l42 141q14 48 38.5 79.5t54.5 50t63 25.5t63 7q43 0 73.5 -27.5t30.5 -75.5z" />
    <glyph glyph-name="lcaron" unicode="&#x13e;" horiz-adv-x="342" 
d="M160 129q6 -17 2.5 -40t-14.5 -43.5t-29 -35t-41 -14.5q-18 0 -35 5t-28 16t-15 27t2 39q23 78 42 144q8 28 16 56.5t15 53t12 43.5t8 28q5 19 10.5 29.5t10.5 15.5q5 6 11 8l1 2h-89l1 4h131l-115 -403q-3 -11 -4.5 -22.5t0.5 -20.5t8 -15t18 -6q22 0 39 13.5t27.5 33.5
t14 41.5t-2.5 38.5zM246 404q24 3 41.5 18t28 34t12.5 39t-7 34q17 11 33 4t18 -28q1 -12 -7 -28t-24.5 -31t-40 -27.5t-53.5 -17.5z" />
    <glyph glyph-name="Lslash" unicode="&#x141;" horiz-adv-x="511" 
d="M-56 -37q11 3 22 4t22 1q35 10 60.5 18.5t47 32.5t43.5 72.5t50 137.5q-19 12 -34 27.5t-29 29t-28 23t-29 9.5q-27 0 -37.5 -18.5t-10.5 -36.5q0 -14 4 -23t9 -9v-2q-8 -6 -18 -6t-19.5 8.5t-9.5 26.5q0 17 11 29.5t27 20.5t34 11.5t33 3.5q34 0 61 -14.5t50 -33.5
q0 2 2 6l42 141q14 48 38.5 79.5t54.5 50t63 25.5t63 7q43 0 73.5 -27.5t30.5 -75.5q0 -28 -12 -54.5t-31.5 -47t-44.5 -33t-50 -12.5q-29 0 -48 9l-1 -4q13 -17 13 -38q0 -18 -9 -35.5t-25.5 -31t-40 -21.5t-53.5 -8h-14.5t-13.5 2q-23 -66 -47 -107.5t-52.5 -67t-61 -39
t-71.5 -24.5v-2q37 -5 68 -24.5t58.5 -46.5t53.5 -57t52.5 -57t55 -46.5t61.5 -24.5q73 -11 130.5 14.5t94.5 71t52 102.5t3.5 109t-52 90.5t-113.5 46.5q-23 3 -48 -1.5t-47.5 -14t-40.5 -23.5t-28 -30q-8 -11 -13.5 -23.5t-8.5 -27.5q-3 -2 -11.5 -3t-16.5 4
q-10 8 -8.5 24t14.5 33q14 20 39.5 33.5t55 22t60 11t54.5 -0.5q54 -6 91 -29.5t57.5 -57.5t25 -75.5t-5 -83.5t-33 -80.5t-59.5 -66.5t-84 -42.5t-106 -7.5q-45 5 -85 26t-76 49.5t-69 60t-65 57.5t-64 43t-66 16zM392 301q0 27 -23 50q-17 12 -25.5 28t-9.5 32.5t6 32
t21 24.5q14 10 29 3q-10 -19 -12.5 -42t2.5 -43t18.5 -33.5t35.5 -13.5q24 0 47.5 12t42 31.5t30 45.5t11.5 53q0 45 -29 72t-71 27q-20 0 -42 -5.5t-44 -22t-41.5 -47t-33.5 -80.5l-40 -140q-4 -13 -7.5 -25t-6.5 -23q27 -21 53 -21q18 0 34 8t28 20t19.5 27t7.5 30z" />
    <glyph glyph-name="lslash" unicode="&#x142;" horiz-adv-x="213" 
d="M-19 171h46q9 32 20 68.5t20.5 70t17 60t10.5 38.5q5 19 10.5 29.5t10.5 15.5q5 6 11 8l1 2h-89l1 4h131l-85 -296h48v-5h-49l-29 -102q-3 -11 -4.5 -22.5t0.5 -20.5t8 -15t18 -6q22 0 39 13.5t27.5 33.5t14 41.5t-2.5 38.5l4 2q6 -17 2.5 -40t-14.5 -43.5t-29 -35
t-41 -14.5q-18 0 -35 5t-28 16t-15 27t2 39q3 10 7 23q3 11 7.5 26.5t9.5 33.5h-45v5z" />
    <glyph glyph-name="Nacute" unicode="&#x143;" horiz-adv-x="818" 
d="M1052 -117q39 0 61.5 -22t29 -54.5t-3 -70.5t-35.5 -70.5t-67.5 -54.5t-99.5 -22q-59 0 -102.5 28.5t-75.5 77t-55 114t-41 139.5t-34 153t-34 154.5t-41 145t-54 123.5l-155 -521h103l-1 -4h-217l2 4h109l155 527q-36 61 -87 97t-124 36q-53 0 -105 -20.5t-92.5 -55.5
t-65.5 -82t-25 -101q0 -38 13 -72t37 -59t58.5 -39.5t78.5 -14.5q39 0 70.5 11t54 29t34.5 42.5t12 51.5q0 12 -2 24t-7 23q1 4 7 9.5t17 5.5t18.5 -11.5t7.5 -30.5q0 -28 -17 -56t-46.5 -50.5t-68 -37t-80.5 -14.5q-45 0 -80.5 15t-60 40.5t-37.5 60t-13 73.5q0 55 25 103
t66 83.5t93.5 56t107.5 20.5q73 0 129 -23.5t98.5 -64.5t73.5 -96.5t53.5 -120.5t38.5 -135.5t30 -140.5h3l137 465l2 1h-105l1 4h217l-2 -4h-109l-141 -483q17 -93 33.5 -178.5t40.5 -151.5t60 -105.5t92 -39.5t96.5 21t65.5 53t34.5 68.5t4 68.5t-27 53t-58.5 21
q-23 0 -41.5 -10t-32 -26t-21.5 -35.5t-9 -37.5q-1 -10 1 -18t5 -16q-8 -8 -18 -9t-19 4.5t-14 16t-2 25.5q4 22 17 42t33.5 35t46 24t54.5 9zM644 655q24 3 41.5 18t28 34t12.5 39t-7 34q17 11 33 4t18 -28q1 -12 -7 -28t-24.5 -31t-40 -27.5t-53.5 -17.5z" />
    <glyph glyph-name="nacute" unicode="&#x144;" horiz-adv-x="410" 
d="M179 404q24 3 41.5 18t28 34t12.5 39t-7 34q17 11 33 4t18 -28q1 -12 -7 -28t-24.5 -31t-40 -27.5t-53.5 -17.5zM-3 -1q16 58 31 109q6 22 12.5 44t12 42t10 36t7.5 25q6 21 16 31t21 15t25 5l1 4h-96l1 4h108l-31 -110q11 23 26 44t32.5 37t37 25.5t39.5 9.5
q15 0 29.5 -5t24.5 -14.5t14.5 -22.5t-0.5 -29l-54 -185q-3 -11 -5 -22.5t-0.5 -20.5t7.5 -15t18 -6q16 0 29.5 8t24 20.5t17.5 27.5t9 30l4 -1q-3 -16 -10 -32t-17.5 -28.5t-25 -20.5t-31.5 -8q-18 0 -34.5 5t-27.5 16t-15 27t3 39q13 42 24 81q10 33 20.5 66.5t16.5 52.5
q4 13 0.5 23t-21.5 10q-23 0 -45 -13t-41.5 -34t-34.5 -47.5t-24 -53.5l-48 -169h-60z" />
    </font>
</defs>
</svg>
