<?xml version="1.0" standalone="no"?>
<!DOCTYPE svg PUBLIC "-//W3C//DTD SVG 1.1//EN" "http://www.w3.org/Graphics/SVG/1.1/DTD/svg11.dtd" >
<svg xmlns="http://www.w3.org/2000/svg" xmlns:xlink="http://www.w3.org/1999/xlink" version="1.1">
<metadata>
Created by FontForge 20170731 at Tue Dec 24 04:55:18 2013
 By Aleksey,,,
Copyright (c) 2013 by Viet hoa by UhThilahuvo - chipquay@gmail.com. All rights reserved.
</metadata>
<defs>
<font id="HLTRollingPen" horiz-adv-x="1183" >
  <font-face 
    font-family="HLT RollingPen "
    font-weight="400"
    font-stretch="normal"
    units-per-em="1000"
    panose-1="2 0 5 7 0 0 0 2 0 4"
    ascent="800"
    descent="-200"
    x-height="241"
    cap-height="639"
    bbox="-4272 -1079 5023 1193"
    underline-thickness="50"
    underline-position="-150"
    unicode-range="U+0020-FB02"
  />
<missing-glyph horiz-adv-x="400" 
 />
    <glyph glyph-name="fi" unicode="fi" horiz-adv-x="834" 
d="M668 450q8 0 9.5 -4.5t1.5 -6.5q0 -14 -13 -25.5t-30 -11.5q-8 0 -9 4t-1 6q0 5 3.5 11.5t9.5 12.5t13.5 10t15.5 4zM488 -40q-47 0 -75 18.5t-28 59.5q0 28 15 66.5t53 90.5q-10 -2 -21 -3t-20 -2q-11 -1 -21 -1h-297q-29 -39 -57.5 -80t-56.5 -82q-41 -60 -82.5 -118.5
t-82 -109.5t-80 -90t-78.5 -60l-10 18q38 21 77 59t78.5 87.5t80 107.5t81.5 118q26 38 52.5 75.5t52.5 74.5h-166v16h177q42 56 83.5 105.5t83.5 86t84 58t84 21.5q32 0 51.5 -15t19.5 -45q0 -11 -3 -24l-20 4q1 5 1.5 9t0.5 8q0 21 -13.5 32t-36.5 11q-37 0 -75 -19.5
t-77 -53.5t-78.5 -80t-78.5 -98h293q14 0 28 2q11 2 24 4.5t21 7.5l8 10l16 -12q-51 -62 -71 -106t-20 -73q0 -30 22.5 -44t60.5 -14q56 0 108.5 17.5t104 48t103.5 71t107 86.5l14 -16q-57 -47 -110 -88t-106.5 -72t-108 -49t-112.5 -18z" />
    <glyph glyph-name="fl" unicode="fl" horiz-adv-x="918" 
d="M754 560q-28 0 -60.5 -26t-65 -68t-61.5 -95.5t-50 -108.5q63 29 111.5 64.5t80.5 73t48.5 74.5t16.5 67q0 19 -20 19zM794 541q0 -34 -18 -74.5t-54 -81.5t-89.5 -80t-124.5 -69q-14 -39 -21 -76t-7 -69q0 -50 21 -80.5t71 -30.5q56 0 108.5 17.5t104 48t103.5 71
t107 86.5l14 -16q-57 -47 -110 -88t-106.5 -72t-108 -49t-112.5 -18q-60 0 -86.5 36t-26.5 95q0 30 6.5 64.5t17.5 70.5q-69 -26 -151.5 -41.5t-179.5 -15.5h-35t-36 2q-26 -35 -51 -71.5t-50 -72.5q-41 -60 -82.5 -118.5t-82 -109.5t-80 -90t-78.5 -60l-10 18
q40 20 78.5 58t77.5 87.5t79 107.5t82 119l93 134q-38 3 -76 8.5t-80 13.5l4 20q45 -9 86 -14.5t80 -8.5q42 58 85 110t86 90.5t86 61t87 22.5q32 0 51.5 -15t19.5 -45q0 -11 -3 -24l-20 4q1 5 1.5 9t0.5 8q0 21 -13.5 32t-36.5 11q-38 0 -77.5 -21t-80 -57t-81.5 -84.5
t-81 -103.5q15 -1 29 -1h28q101 0 185.5 16.5t153.5 44.5q21 60 52.5 119.5t67.5 106t73 75.5t70 29q18 0 29 -9.5t11 -29.5z" />
    <glyph glyph-name="W_h" unicode="Wh" horiz-adv-x="2050" 
d="M819 463q-18 -23 -35 -58q11 16 19.5 30.5t15.5 27.5zM1217 475q0 -27 10 -47q1 5 1.5 11t0.5 11q0 14 -2 28t-7 25q-3 -15 -3 -28zM1626 502q-17 -22 -35.5 -47.5t-37.5 -53.5q40 19 78.5 42.5t68.5 47t48 44t18 34.5q0 8 -4 13.5t-15 5.5q-20 0 -53 -21t-68 -65z
M23 610q38 -12 76.5 -17.5t76.5 -5.5q77 0 151.5 19.5t143.5 53.5l10 -17q-35 -24 -74 -62t-76.5 -84t-71.5 -98t-60 -104t-41 -101.5t-15 -89.5q0 -50 29 -80.5t97 -30.5q31 0 68.5 15t79 40.5t84.5 59.5t85 73t80.5 80t70.5 80q22 62 49.5 108.5t51.5 61.5l15 -11
q-5 -29 -31.5 -72.5t-67.5 -94.5q-15 -45 -24.5 -92t-9.5 -91q0 -30 6 -56.5t19 -46t34.5 -31t53.5 -11.5q34 0 73 17t79 46.5t78 68.5t70 83t55.5 89.5t33.5 88.5q-25 31 -25 77q0 29 15 76q20 -26 28.5 -51.5t8.5 -49.5q0 -11 -1.5 -22.5t-3.5 -23.5q45 -47 157 -47
q25 0 55.5 7.5t62.5 20.5q23 35 45.5 68t45.5 61q38 48 76 71t61 23t31 -11t8 -28t-22 -42.5t-58 -53.5t-81 -55t-91 -47q-42 -65 -81 -131t-81 -132q21 17 44 33.5t47 33.5q42 28 84.5 46t77.5 18q34 0 51 -14.5t17 -35.5q0 -17 -12 -34.5t-26 -36t-26 -38.5t-12 -42
q0 -26 19.5 -39t53.5 -13q37 0 87 14t105 39.5t112.5 62.5t111.5 83l21 18l14 -16l-22 -18q-56 -46 -115.5 -83.5t-116 -64t-107.5 -41t-90 -14.5q-43 0 -68 17.5t-25 54.5q0 22 12 43.5t26 41t26 36.5t12 30q0 12 -12.5 21t-35.5 9q-33 0 -73.5 -17.5t-81.5 -44.5
q-37 -24 -70.5 -48.5t-60.5 -46.5q-18 -23 -32.5 -39t-25.5 -26q-12 -11 -22 -19l-9 26q3 2 20 18t44 39q49 69 92.5 142.5t94.5 155.5q-27 -11 -52.5 -16.5t-47.5 -5.5q-110 0 -163 44q-19 -66 -65 -136t-104.5 -128t-121 -95t-114.5 -37q-37 0 -62.5 12.5t-41 35
t-22.5 52.5t-7 65q0 34 5.5 71t16.5 73q-50 -57 -111 -114.5t-122.5 -103.5t-119 -74.5t-100.5 -28.5q-79 0 -112.5 36t-33.5 95q0 55 26 123.5t67 138.5t92 134.5t102 110.5q-56 -21 -115 -32.5t-119 -11.5q-42 0 -81.5 5.5t-77.5 17.5z" />
    <glyph glyph-name="z_y" unicode="zy" horiz-adv-x="1352" 
d="M330 21q0 20 -10 38q-62 -38 -117.5 -80t-98 -83t-67.5 -80.5t-25 -73.5q0 -14 11 -19.5t26 -5.5q25 0 55.5 15t61.5 39.5t60.5 56t52.5 65.5t37 67t14 61zM-8 -258q0 34 25.5 75t69 84.5t101 87.5t120.5 84q-12 11 -32.5 17.5t-50.5 6.5h-22q-4 -2 -8 -2.5t-8 -1.5
l-6 18q4 2 8.5 2.5t9.5 1.5q43 11 82.5 29t69.5 39t48 42t18 38q0 16 -17.5 25.5t-57.5 9.5q-47 0 -113 -26t-138 -85l-22 -18l-13 16l21 18q72 60 141 86.5t123 26.5t77 -13.5t23 -34.5q0 -17 -14 -38t-39 -42t-58.5 -40.5t-72.5 -34.5q24 -2 41.5 -9.5t28.5 -18.5
q60 37 122 69.5t118.5 56.5t105 37.5t81.5 13.5q27 0 42 -9.5t15 -31.5q0 -21 -10.5 -45.5t-22.5 -47.5t-22.5 -43.5t-10.5 -34.5q0 -22 35 -22q33 0 85.5 17t111 46.5t116.5 68t102 81.5l7 -7l8 -6q-44 -54 -85.5 -117t-84.5 -126.5t-90.5 -122.5t-105.5 -104t-128.5 -72.5
t-159.5 -27.5q-29 0 -59 3.5t-61 11.5l6 20q31 -8 59.5 -11.5t54.5 -3.5q76 0 138 21t114.5 57.5t96.5 85t84 103.5t77 112.5t76 112.5q-46 -35 -97.5 -64.5t-100.5 -51t-92 -34t-72 -12.5q-32 0 -45 9.5t-13 26.5q0 18 11 41t23.5 47t23.5 47.5t11 41.5q0 25 -38 25
q-29 0 -74.5 -13.5t-101 -37t-117 -55.5t-122.5 -69q12 -20 12 -45q0 -31 -14.5 -67t-38.5 -73t-55.5 -71t-65 -60t-66.5 -42t-61 -16q-23 0 -40 10.5t-17 34.5z" />
    <glyph glyph-name="z_z" unicode="zz" horiz-adv-x="1232" 
d="M619 -283q35 0 75 22t76.5 56.5t66.5 76.5t46 82q-66 -11 -121.5 -33.5t-95 -51t-62 -61.5t-22.5 -66q0 -14 11 -19.5t26 -5.5zM328 19q0 12 -3.5 20t-8.5 14q-63 -40 -118.5 -81.5t-97 -82t-65 -78t-23.5 -69.5q0 -14 11 -19.5t26 -5.5q28 0 60 14.5t63 39t59 56t50 65
t34.5 66.5t12.5 61zM988 250q0 25 -19 36.5t-53 11.5q-45 0 -112.5 -18.5t-146 -50.5t-162 -74.5t-161.5 -90.5q14 -16 14 -45q0 -30 -13.5 -65.5t-36.5 -71.5t-53.5 -69.5t-63.5 -59t-67 -41t-65 -15.5q-23 0 -40 10.5t-17 34.5q0 33 24 72t65.5 81t97.5 84.5t121 83.5
q-11 4 -24 4q-17 0 -30.5 -3t-16.5 -5h-1l-6 18h1q105 51 150 96.5t45 76.5q0 23 -20.5 35.5t-55.5 12.5q-47 0 -113 -26t-138 -85l-22 -18l-13 16l21 18q72 60 141 86.5t123 26.5q45 0 73 -17t28 -46q0 -31 -37 -74t-124 -92q11 -1 21 -3.5t19 -7.5q79 49 164.5 92.5
t166 76t151 51.5t120.5 19q42 0 65.5 -15t23.5 -47q0 -31 -37 -74t-124 -92q26 -2 46.5 -15.5t20.5 -52.5q0 -19 -6 -40q22 2 44 3.5t45 1.5q51 0 104.5 -7t107.5 -23l-6 -20q-54 16 -106 23t-100 7q-50 0 -95 -6q-16 -44 -48 -90.5t-72 -84.5t-84 -62t-83 -24
q-23 0 -40 10.5t-17 34.5q0 37 24.5 73.5t68 68.5t104 56t132.5 36q3 11 5 21.5t2 21.5q0 29 -16.5 38.5t-35.5 9.5q-17 0 -30.5 -3t-16.5 -5h-1l-6 18q106 51 151 96.5t45 76.5z" />
    <glyph glyph-name=".notdef" horiz-adv-x="400" 
 />
    <glyph glyph-name=".null" horiz-adv-x="0" 
 />
    <glyph glyph-name="nonmarkingreturn" horiz-adv-x="333" 
 />
    <glyph glyph-name="space" unicode=" " horiz-adv-x="400" 
 />
    <glyph glyph-name="exclam" unicode="!" horiz-adv-x="677" 
d="M209 80q66 95 134 192q29 41 61 87t64.5 93t64.5 94t61 91l16 -12q-29 -44 -61 -91t-64.5 -94t-64.5 -93t-61 -87q-68 -97 -134 -192zM174 26q8 0 9.5 -4.5t1.5 -6.5q0 -14 -13 -25.5t-30 -11.5q-8 0 -9 4t-1 6q0 5 3.5 11.5t9.5 12.5t13.5 10t15.5 4z" />
    <glyph glyph-name="quotedbl" unicode="&#x22;" horiz-adv-x="433" 
d="M406 470l-64 -96q-12 -18 -23.5 -35t-20.5 -30.5t-14.5 -21.5l-5.5 -8l-16 8q0 1 5.5 9.5t14.5 22.5t20.5 31.5t23.5 35.5l64 96zM318 470l-64 -96q-12 -18 -23.5 -35t-20.5 -30.5t-14.5 -21.5l-5.5 -8l-16 8q0 1 5.5 9.5t14.5 22.5t20.5 31.5t23.5 35.5l64 96z" />
    <glyph glyph-name="numbersign" unicode="#" horiz-adv-x="671" 
d="M213 187q-14 -18 -29.5 -37t-31.5 -38q8 0 29 -0.5t43 -1.5q26 -1 56 -2l61 75q-32 1 -58 2q-23 1 -43.5 1.5t-26.5 0.5zM37 213l167 -6q14 18 27 33.5t22 26.5q11 13 19 25l16 -12q-8 -10 -17 -21q-8 -10 -18.5 -23.5t-23.5 -29.5q4 0 24.5 -0.5t43.5 -1.5q27 -1 60 -2
q15 19 28 35.5t23 28.5q11 14 21 26l16 -12q-8 -11 -18 -23q-8 -11 -19.5 -25t-25.5 -31q6 0 26 -0.5t42 -1.5q26 -1 56 -1v-20q-35 1 -64 2q-25 1 -48 1.5t-28 0.5q-14 -18 -29.5 -37t-31.5 -38q3 0 26.5 -0.5t51.5 -1.5q33 -1 73 -2v-20q-44 1 -79 2q-30 1 -56.5 2
t-31.5 1q-30 -36 -55.5 -63.5t-36.5 -36.5l-12 16q10 8 31 31t47 54q-30 1 -56 2q-22 1 -43 1.5t-28 0.5q-32 -38 -58 -67t-38 -38l-12 16q11 8 33 32.5t50 57.5q-30 1 -56 2q-22 1 -42 1.5t-26 0.5v20l140 -5l61 75l-151 5v20z" />
    <glyph glyph-name="dollar" unicode="$" horiz-adv-x="660" 
d="M430 332q-11 2 -22 3l-22 2q-25 -37 -49.5 -73t-47.5 -74l37 -12l1 -1zM206 -20q26 45 53.5 89.5t56.5 89.5l-39 12q-29 -45 -57 -90t-55 -91q10 -3 20 -5.5t21 -4.5zM269 197q23 35 46 70.5t46 70.5q-29 0 -56.5 -5t-49 -14t-34.5 -22.5t-13 -30.5q0 -26 17.5 -42
t43.5 -27zM336 153q-28 -45 -55 -88.5t-53 -87.5q21 -3 42 -3q33 0 63.5 6t53.5 18t37 30t14 42q0 18 -8.5 30.5t-22.5 22t-32.5 17t-38.5 13.5zM593 639q-50 -72 -98.5 -142t-96.5 -141q11 -1 22 -3l22 -4q33 49 66.5 97t68.5 97l57 81l16 -12l-57 -81q-32 -47 -65 -93
t-65 -94q35 -11 58 -29l-12 -16q-21 17 -58 28q-26 -39 -51.5 -78t-51.5 -78q21 -7 41 -15.5t35 -20.5t24.5 -27.5t9.5 -37.5q0 -30 -15.5 -51.5t-41.5 -36t-60 -21.5t-71 -7q-14 0 -27 1t-26 3q-29 -51 -55.5 -100.5t-50.5 -100.5l-18 8q24 51 49.5 99.5t52.5 96.5
q-11 2 -20.5 4.5t-20.5 6.5q-32 -55 -61.5 -109.5t-58.5 -111.5l-18 10q28 56 57.5 110t61.5 108q-48 18 -78.5 50.5t-30.5 79.5q0 15 3 30l20 -4q-3 -12 -3 -24q0 -41 28 -69.5t71 -44.5q27 46 55.5 91.5t57.5 90.5q-30 13 -50 33t-20 54q0 23 15 40t40 28.5t57 17.5t65 6
h10q49 73 99.5 145.5t102.5 147.5z" />
    <glyph glyph-name="percent" unicode="%" horiz-adv-x="677" 
d="M292 307q0 -7 3 -11q4 13 6 27q-6 -3 -7.5 -7t-1.5 -9zM594 209q-5 -49 -29 -91t-57 -72.5t-69 -48t-65 -17.5t-47 15.5t-18 50.5q0 28 20 54.5t49.5 47.5t63.5 34t63 13h15t12 -2l-6 -20q-5 2 -10.5 2h-10.5q-26 0 -56.5 -11t-57 -29.5t-44.5 -41.5t-18 -47t12.5 -35
t32.5 -11q25 0 56 13.5t60 39.5t53 65.5t35 91.5zM464 368q7 0 17 -6t10 -14q0 -5 -4 -9q-10 -8 -23 -17t-28 -18q-38 -45 -83 -98.5t-85.5 -100t-71 -80.5t-38.5 -40l-12 16q7 6 32 33.5t59.5 67t74.5 86.5t77 91q-41 -19 -72 -19q-13 0 -18 2q-17 -30 -41.5 -56t-52 -45
t-54.5 -30t-49 -11q-29 0 -47 15.5t-18 50.5q0 28 20 54.5t49.5 47.5t63.5 34t63 13h15t12 -2l-6 -20q-5 2 -10.5 2h-10.5q-26 0 -56.5 -11t-57 -29.5t-44.5 -41.5t-18 -47t12.5 -35t32.5 -11t46 10t51.5 27.5t48.5 41t37 51.5q-13 13 -13 37q0 14 12.5 26.5t37.5 14.5
q0 -32 -14 -65q8 -4 22 -4q17 0 40 9t54 32z" />
    <glyph glyph-name="ampersand" unicode="&#x26;" horiz-adv-x="806" 
d="M425 443q33 18 61.5 35.5t50 34t34 31.5t12.5 29q0 20 -19 32.5t-45 12.5q-17 0 -33.5 -6t-30 -19.5t-22 -34.5t-8.5 -51v-64zM306 -58q42 0 84 8t80 22q-17 53 -28.5 111t-18.5 115.5t-11 111.5t-6 99l-20 -11q-56 -31 -114 -64t-104.5 -69.5t-76 -75.5t-29.5 -82
q0 -42 20.5 -73.5t54 -51.5t77.5 -30t92 -10zM542 -182q-20 28 -36.5 62.5t-29.5 72.5q-82 -31 -170 -31q-51 0 -99 11t-84.5 34t-58.5 57.5t-22 82.5q0 47 30.5 89.5t79 81t108 73t116.5 65.5l30 16q-1 22 -1 41v34q0 35 10 60t26.5 40.5t37 23t40.5 7.5q33 0 58.5 -18
t25.5 -47q0 -19 -14 -37.5t-38 -37.5t-56 -38.5t-69 -39.5q1 -45 5 -99.5t11 -112.5t18 -116.5t28 -112.5q58 26 95.5 67t37.5 98q0 24 -8.5 51.5t-27.5 59.5l18 10q20 -33 29 -63t9 -58q0 -64 -41.5 -110t-105.5 -74q13 -37 28.5 -70t35.5 -60z" />
    <glyph glyph-name="quotesingle" unicode="'" horiz-adv-x="345" 
d="M318 470l-64 -96q-12 -18 -23.5 -35t-20.5 -30.5t-14.5 -21.5l-5.5 -8l-16 8q0 1 5.5 9.5t14.5 22.5t20.5 31.5t23.5 35.5l64 96z" />
    <glyph glyph-name="parenleft" unicode="(" horiz-adv-x="362" 
d="M604 824q-111 -27 -201.5 -88t-155.5 -143.5t-100.5 -180t-35.5 -198.5q0 -116 51 -225.5t163 -196.5l-12 -16q-58 45 -100 96.5t-69 107.5t-40 115t-13 119q0 104 36.5 205t103.5 186t161 148t208 91z" />
    <glyph glyph-name="parenright" unicode=")" horiz-adv-x="419" 
d="M-177 -204q111 27 201.5 88t155.5 143.5t100.5 180t35.5 198.5q0 116 -51 225.5t-163 196.5l12 16q58 -45 100 -96.5t69 -107.5t40 -115t13 -119q0 -104 -36.5 -205t-103.5 -186t-161 -148t-208 -91z" />
    <glyph glyph-name="asterisk" unicode="*" horiz-adv-x="551" 
d="M312 524l15 -117l94 73l12 -16l-94 -74l111 -44l-8 -18l-110 45l16 -119l-20 -2l-16 117l-93 -73l-12 16l93 73l-110 45l8 18l110 -45l-16 119z" />
    <glyph glyph-name="plus" unicode="+" horiz-adv-x="358" 
d="M-28 152l113 -1l55 99l21 -3l-54 -96h101l-2 -20h-111l-58 -103l-20 2l57 101h-51q-20 0 -36 0.5t-17 0.5z" />
    <glyph glyph-name="comma" unicode="," horiz-adv-x="496" 
d="M211 41q0 14 -11 14q-17 0 -31 -13.5t-14 -23.5q0 -9 12 -9q15 0 43 22q1 3 1 10zM39 -93q55 14 98.5 37.5t62.5 55.5q-20 -11 -33 -11q-17 0 -24.5 7t-7.5 18q0 9 5 20t14 20t21 15t25 6q14 0 22.5 -8t8.5 -26q0 -48 -48 -88t-138 -66z" />
    <glyph glyph-name="hyphen" unicode="-" horiz-adv-x="646" 
d="M151 141q22 8 43.5 10.5t41.5 2.5q28 0 56.5 -4t57 -8.5t57 -8.5t58.5 -4q20 0 41 2.5t44 9.5l6 -20q-23 -7 -45.5 -9.5t-45.5 -2.5q-28 0 -56 4t-56.5 8.5t-57.5 8.5t-59 4q-20 0 -40 -2.5t-39 -8.5z" />
    <glyph glyph-name="period" unicode="." horiz-adv-x="483" 
d="M196 55q-18 0 -28.5 -11t-10.5 -22q0 -13 14 -13q17 0 28 11.5t11 22.5q0 12 -14 12zM200 75q17 0 25 -8t8 -20q0 -19 -18 -38.5t-48 -19.5q-18 0 -26 8.5t-8 19.5q0 19 18.5 38.5t48.5 19.5z" />
    <glyph glyph-name="slash" unicode="/" horiz-adv-x="432" 
d="M-78 -106q16 9 47 43.5t71 85t86.5 111t93.5 122.5q56 75 116 153t115.5 145.5t101 117t73.5 66.5l10 -18q-28 -17 -72.5 -64.5t-97.5 -113t-112.5 -143.5t-117.5 -155q-51 -67 -98 -129t-87 -111.5t-71 -83.5t-48 -44z" />
    <glyph glyph-name="zero" unicode="0" horiz-adv-x="577" 
d="M318 261q-15 4 -32 4q-41 0 -89 -18t-89.5 -46.5t-69.5 -64.5t-28 -71q0 -37 19 -53t49 -16q36 0 80.5 18.5t87.5 49t78.5 71.5t52.5 86q-2 10 -2 18q0 23 5.5 35.5t12.5 19.5q8 8 19 10q0 -21 -4 -40.5t-11 -39.5q7 -16 28.5 -22t48.5 -6v-20q-27 0 -50 5.5t-36 19.5
q-23 -48 -61 -89t-81.5 -71.5t-88 -47.5t-79.5 -17q-39 0 -63.5 20.5t-24.5 68.5q0 43 30 82.5t74.5 70t96 49t95.5 18.5q23 0 38 -4z" />
    <glyph glyph-name="one" unicode="1" horiz-adv-x="364" 
d="M260 280q-58 -73 -108 -134q-21 -26 -43 -51.5t-40.5 -47.5t-33.5 -37.5t-23 -21.5l-12 16q7 6 21.5 21.5t33.5 37t40 46.5t42 51q49 60 107 132z" />
    <glyph glyph-name="two" unicode="2" horiz-adv-x="691" 
d="M170 229q0 -5 15.5 8t44.5 44q-26 -14 -43 -29t-17 -23zM-3 -9q54 0 101.5 6.5t89.5 17.5q-42 13 -85.5 23t-88.5 10q-43 0 -66 -10.5t-23 -22.5q0 -10 17.5 -17t54.5 -7zM335 310q-18 0 -36.5 -4t-35.5 -11q-41 -50 -66.5 -68t-36.5 -18q-10 0 -10 10t14.5 28.5t39.5 37
t58.5 32t72.5 13.5q67 0 99.5 -27.5t32.5 -69.5q0 -26 -14 -55.5t-41 -59t-67 -56t-92 -46.5q39 -12 78 -21t77 -9q42 0 85.5 14t91.5 49l11 -18q-50 -37 -96.5 -51t-91.5 -14q-48 0 -95 12t-92 26q-48 -15 -103.5 -24t-120.5 -9q-48 0 -70 13.5t-22 30.5q0 20 28.5 36.5
t80.5 16.5q58 0 109 -13.5t101 -29.5q55 18 96.5 43.5t69.5 53.5t42.5 57t14.5 54q0 33 -27.5 55t-84.5 22z" />
    <glyph glyph-name="three" unicode="3" horiz-adv-x="649" 
d="M286 269q4 0 14.5 6.5t26.5 21.5q-19 -5 -31 -12t-12 -14q0 -2 2 -2zM360 324q19 3 39 3q53 0 76 -16t23 -39q0 -26 -27.5 -55t-70.5 -49q34 -15 34 -51q0 -23 -18 -50.5t-53.5 -51.5t-89 -40t-124.5 -16q-40 0 -76 6.5t-63.5 19t-43.5 31.5t-16 44q0 13 4 25l20 -6
q-3 -9 -3 -18q0 -20 14.5 -35.5t39 -26t57 -15.5t67.5 -5q66 0 115.5 14t83 35t50 45t16.5 44q0 16 -12.5 26.5t-37.5 11.5q-25 -7 -53 -9l-4 18q8 2 17 5q8 2 17 4t19 2h5q24 7 44.5 18.5t35.5 24.5t24 27t9 27q0 14 -18.5 24.5t-60.5 10.5q-20 0 -39 -3
q-25 -27 -44.5 -37.5t-32.5 -10.5q-9 0 -14 4.5t-5 10.5q0 16 25.5 29.5t60.5 21.5q1 2 5 6z" />
    <glyph glyph-name="four" unicode="4" horiz-adv-x="645" 
d="M457 306q-19 -27 -40 -56q-18 -25 -40.5 -56.5t-44.5 -62.5q32 -7 64.5 -11t66.5 -4q44 0 89 10t90 36l10 -18q-48 -27 -95 -37.5t-94 -10.5q-36 0 -71.5 5t-71.5 13q-15 -21 -28.5 -40.5t-23.5 -34.5t-16.5 -25t-7.5 -13l-18 8q2 5 23.5 36.5t50.5 72.5q-41 9 -82 16
t-83 7q-32 0 -61 -7.5t-58 -27.5l-14 14l151 188l16 -12l-120 -149q20 8 41.5 11t44.5 3q45 0 88.5 -8.5t88.5 -17.5q23 32 45.5 65t41.5 59q22 31 42 59z" />
    <glyph glyph-name="five" unicode="5" horiz-adv-x="648" 
d="M562 350q-53 -25 -112 -37t-119 -12q-16 0 -33 0.5t-31 2.5q-8 -12 -32 -43.5t-56 -63.5q31 11 63 17.5t64 6.5q84 0 120.5 -25t36.5 -63q0 -35 -29.5 -75t-78 -74.5t-112 -57.5t-131.5 -23q-73 0 -144.5 32t-130.5 111l16 12q55 -74 123 -104.5t136 -30.5q64 0 124 21
t106 52.5t73.5 68t27.5 68.5q0 29 -31.5 48.5t-105.5 19.5q-46 0 -91 -12.5t-85 -35.5l-13 -8l-10 17v1q26 16 53 44t49 54q26 31 49 65q21 -3 39 -4t34 -1q58 0 115 12t108 35z" />
    <glyph glyph-name="six" unicode="6" horiz-adv-x="562" 
d="M382 421q-4 -4 -31.5 -23.5t-66.5 -50t-84 -68.5t-83 -78.5t-63 -81t-25 -74.5q0 -35 24 -56t83 -21q47 0 92 20.5t80.5 50.5t57.5 63.5t22 59.5q0 17 -13.5 27.5t-43.5 10.5q-36 0 -73 -21.5t-68 -49t-52.5 -55t-26.5 -39.5l-18 8q6 13 29 42t56.5 59t73.5 53t79 23
q41 0 59 -16t18 -42q0 -29 -23.5 -66t-62 -70t-87 -55.5t-99.5 -22.5q-69 0 -98 26.5t-29 70.5q0 36 25.5 78t64 84t84 81.5t85.5 71t68 51.5t32 24z" />
    <glyph glyph-name="seven" unicode="7" horiz-adv-x="501" 
d="M104 348l-6 -7q5 1 10.5 1.5t10.5 0.5q25 0 49.5 -6.5t48.5 -14t49 -13.5t51 -6q17 0 34.5 2.5t34.5 9.5l10 -14q-100 -101 -191 -201q-39 -43 -79.5 -89.5t-78 -93.5t-70.5 -92t-56 -85l-18 10q20 34 50 75t65.5 85.5t74 89t75.5 86.5q87 98 184 199q-9 -2 -18 -2h-17
q-26 0 -51.5 6t-50 13.5t-48.5 14t-48 6.5q-17 0 -31 -6t-26 -21l-16 12l42 52z" />
    <glyph glyph-name="eight" unicode="8" horiz-adv-x="493" 
d="M164 155q0 19 -3 39q-30 -14 -57 -29.5t-47.5 -34t-33 -42t-12.5 -53.5q0 -19 9.5 -31.5t27.5 -12.5q29 0 50.5 16t36 40t22 53t7.5 55zM568 456q-13 6 -41 11t-65 5q-45 0 -96 -9t-93.5 -32.5t-71 -63t-28.5 -99.5q0 -12 1 -23.5t3 -22.5q51 25 96 53t68 71l16 -10
q-11 -24 -29.5 -43t-42 -35t-50.5 -29t-55 -26q2 -13 3 -24t1 -24q0 -29 -8.5 -61.5t-25.5 -59.5t-42.5 -45t-59.5 -18q-27 0 -42 18t-15 46q0 35 14 61.5t37 47t53 37.5t62 32q-2 14 -3 27.5t-1 27.5q0 66 30.5 109.5t76 69t100 35.5t102.5 10q38 0 69 -5t45 -13z" />
    <glyph glyph-name="nine" unicode="9" horiz-adv-x="539" 
d="M116 135q36 0 111 29t181 105l20 29q-38 14 -74.5 21t-68.5 7q-53 0 -96.5 -15t-74.5 -37t-47.5 -47.5t-16.5 -47.5q0 -19 16 -31.5t50 -12.5zM0 -195q18 12 45.5 38t60 61.5t69 77t71.5 84t67.5 83t58.5 73.5q-91 -60 -156.5 -83.5t-99.5 -23.5q-45 0 -65.5 18t-20.5 46
q0 25 18 54t51.5 54t80.5 42t105 17q37 0 80 -9.5t92 -29.5q-5 -9 -23 -33.5t-44.5 -59t-60 -76.5t-69.5 -85t-73 -85.5t-70 -78.5t-60 -62t-45 -38z" />
    <glyph glyph-name="colon" unicode=":" horiz-adv-x="496" 
d="M196 55q-18 0 -28.5 -11t-10.5 -22q0 -13 14 -13q17 0 28 11.5t11 22.5q0 12 -14 12zM200 75q17 0 25 -8t8 -20q0 -19 -18 -38.5t-48 -19.5q-18 0 -26 8.5t-8 19.5q0 19 18.5 38.5t48.5 19.5zM324 278q-18 0 -28.5 -11t-10.5 -22q0 -13 14 -13q17 0 28 11.5t11 22.5
q0 12 -14 12zM328 298q17 0 25 -8t8 -20q0 -19 -18 -38.5t-48 -19.5q-18 0 -26 8.5t-8 19.5q0 19 18.5 38.5t48.5 19.5z" />
    <glyph glyph-name="semicolon" unicode=";" horiz-adv-x="496" 
d="M211 41q0 14 -11 14q-17 0 -31 -13.5t-14 -23.5q0 -9 12 -9q15 0 43 22q1 3 1 10zM324 278q-18 0 -28.5 -11t-10.5 -22q0 -13 14 -13q17 0 28 11.5t11 22.5q0 12 -14 12zM328 298q17 0 25 -8t8 -20q0 -19 -18 -38.5t-48 -19.5q-18 0 -26 8.5t-8 19.5q0 19 18.5 38.5
t48.5 19.5zM39 -93q55 14 98.5 37.5t62.5 55.5q-20 -11 -33 -11q-17 0 -24.5 7t-7.5 18q0 9 5 20t14 20t21 15t25 6q14 0 22.5 -8t8.5 -26q0 -48 -48 -88t-138 -66z" />
    <glyph glyph-name="less" unicode="&#x3c;" horiz-adv-x="620" 
d="M463 285l-367 -166l72 -36l92 -46q54 -26 114 -56l-8 -18l-316 157l405 183z" />
    <glyph glyph-name="equal" unicode="=" horiz-adv-x="426" 
d="M0 192l276 -1l-2 -20l-276 1zM-28 111l276 -1l-2 -20l-276 1z" />
    <glyph glyph-name="greater" unicode="&#x3e;" horiz-adv-x="612" 
d="M69 -19l367 166q-26 13 -72.5 36t-92.5 46q-54 26 -113 56l8 18l316 -157l-405 -183z" />
    <glyph glyph-name="question" unicode="?" horiz-adv-x="797" 
d="M219 26q8 0 9.5 -4.5t1.5 -6.5q0 -14 -13 -25.5t-30 -11.5q-8 0 -9 4t-1 6q0 5 3.5 11.5t9.5 12.5t13.5 10t15.5 4zM547 477q-15 -34 -42 -63.5t-60 -51.5t-68.5 -34.5t-66.5 -12.5q-42 0 -70 24t-28 79q0 54 29.5 100t75 79.5t101 52t107.5 18.5q36 0 68.5 -9.5t57 -30
t39 -52.5t14.5 -77q0 -41 -19.5 -76t-50 -66t-69.5 -58t-78 -52q-24 -16 -54 -38t-59.5 -47t-55.5 -50.5t-42 -48.5l-13 14q14 19 40 44.5t56.5 51.5t61.5 50t56 40q39 24 76 49.5t66 54t47 61t18 71.5t-12.5 67.5t-34.5 46.5t-50.5 26.5t-61.5 8.5q-49 0 -101 -17
t-94.5 -48t-70 -73t-27.5 -92q0 -45 22.5 -64t55.5 -19q29 0 61.5 11.5t63 31.5t55.5 47.5t39 59.5z" />
    <glyph glyph-name="at" unicode="@" horiz-adv-x="1257" 
d="M398 -5q28 0 67.5 14t82.5 37.5t85 53t76 59.5q14 19 30 36t32 31q-39 14 -81.5 20.5t-78.5 6.5q-45 0 -90 -20t-80.5 -51.5t-57.5 -71t-22 -79.5q0 -17 8.5 -26.5t28.5 -9.5zM756 -40q-57 0 -80.5 20.5t-23.5 52.5q0 17 6.5 36.5t17.5 39.5q-34 -27 -72 -51t-75.5 -42.5
t-71.5 -29.5t-59 -11q-34 0 -47.5 15t-13.5 38q0 50 25 94.5t65 78t88.5 53t95.5 19.5q41 0 88.5 -8t90.5 -25l23 14l10 -18q-27 -14 -46.5 -35t-42.5 -41q-26 -32 -44 -65.5t-18 -61.5q0 -23 19 -38t65 -15q80 0 151.5 31.5t125 81.5t85 111t31.5 120q0 43 -19 81.5
t-60.5 67.5t-107.5 46.5t-160 17.5q-105 0 -201.5 -24.5t-179 -66t-150 -96.5t-115 -116t-73.5 -124t-26 -121q0 -48 20 -90t62.5 -73t109.5 -49t160 -18q77 0 171.5 13.5t210.5 42.5l4 -20q-116 -29 -212 -42.5t-174 -13.5q-99 0 -169.5 19.5t-115.5 53t-66 79t-21 98.5
q0 60 26.5 125t75.5 128.5t118 120.5t154 100t183.5 68.5t207.5 25.5q99 0 169 -19t114 -51t64 -74.5t20 -88.5q0 -63 -33 -127.5t-89.5 -117t-131.5 -86t-159 -33.5z" />
    <glyph glyph-name="A" unicode="A" 
d="M1082 610q-49 0 -99 -22t-100.5 -59t-101.5 -85t-102 -99q43 -22 77.5 -55t58.5 -74t37.5 -88.5t13.5 -97.5q39 72 81 133.5t80 113.5q28 38 52.5 73t43 68t29.5 63.5t11 58.5q0 32 -23.5 51t-57.5 19zM21 168q0 -5 -0.5 -9.5t-0.5 -9.5q0 -69 36 -108t108 -39
q58 0 116 27.5t115.5 72t115.5 101t115 115.5l19 20q-28 11 -58.5 17.5t-62.5 6.5h-2l2 20q73 0 137 -28q52 54 105 104t105.5 88t105 61t105.5 23q42 0 71.5 -24t29.5 -66q0 -31 -11 -63t-30 -66t-44.5 -70t-54.5 -76q-45 -61 -92 -130.5t-88 -151.5l-7 -41q-2 -1 -6 -2
q-3 -1 -6.5 -1h-6.5q-12 0 -12 8q0 6 7 19t12 23q1 10 1.5 20t0.5 20q0 48 -13 93.5t-36.5 84.5t-57 70.5t-75.5 51.5l-24 -25q-57 -59 -116 -116.5t-119 -103t-120.5 -74t-120.5 -28.5q-82 0 -123 45t-41 124q0 5 0.5 9.5t0.5 9.5z" />
    <glyph glyph-name="B" unicode="B" horiz-adv-x="1020" 
d="M600 289q28 0 52 3.5t46 9.5q-17 14 -40 21.5t-55 7.5q-24 0 -35 -6t-11 -14t11 -15t32 -7zM357 520q-58 -114 -118 -216q-26 -44 -54 -89.5t-57 -87.5t-57.5 -78t-55.5 -60l-15 10q6 13 16 29q8 14 21 31t33 37l7 -7q23 31 47 66t46.5 72t44 73.5t40.5 69.5
q44 78 84 158zM507 -18q52 0 94.5 21.5t73 54.5t47 73.5t16.5 78.5v3q-60 -4 -115.5 -23t-98 -45.5t-68.5 -58t-26 -60.5q0 -12 7.5 -20.5t19 -14t25 -7.5t25.5 -2zM19 607q29 -20 58 -27t61 -7q55 0 106.5 11t103.5 23.5t107 23.5t118 11q74 0 128.5 -16t90 -42t53 -59.5
t17.5 -68.5q0 -49 -32.5 -93t-95.5 -70q17 -26 22 -59h9q63 0 123.5 -20.5t110.5 -68.5l-14 -14q-47 45 -103.5 64t-116.5 19h-7v-4q0 -41 -18 -85t-51 -80t-79 -59.5t-103 -23.5q-15 0 -32 3t-31.5 10.5t-24 20t-9.5 30.5q0 32 27 67t72.5 64.5t104.5 50t122 25.5
q-2 14 -7.5 28t-14.5 25q-51 -17 -114 -17q-30 0 -46.5 13t-16.5 29q0 15 15.5 27.5t50.5 12.5q41 0 69.5 -11.5t48.5 -30.5q60 23 90.5 63t30.5 84q0 31 -16 61t-49.5 53t-84 37.5t-119.5 14.5q-62 0 -117 -11t-106.5 -23.5t-103.5 -23.5t-108 -11q-35 0 -67 8t-64 30z" />
    <glyph glyph-name="C" unicode="C" horiz-adv-x="862" 
d="M887 134q-126 -97 -250.5 -143.5t-231.5 -46.5q-83 0 -142 21.5t-96.5 58t-55.5 85.5t-18 105t17 116t49 116.5t77.5 107t101.5 88.5t122 60t140 22q51 0 86 -10.5t57.5 -29.5t32.5 -44.5t10 -55.5q0 -38 -15.5 -81t-41 -85t-59.5 -80.5t-71 -68t-75 -47t-72 -17.5
q-45 0 -64.5 18t-19.5 48q0 26 15.5 59.5t42.5 68t63 68.5t77 60.5t84.5 43.5t86.5 18v-20q-40 -1 -81.5 -17t-80 -41t-73 -56.5t-60 -64t-40 -64t-14.5 -55.5q0 -21 15 -33.5t49 -12.5q32 0 67.5 16.5t70.5 44.5t67 64.5t56 76.5t38.5 80.5t14.5 76.5q0 25 -9 47
t-28.5 38.5t-51.5 25.5t-77 9q-70 0 -133.5 -21.5t-117.5 -57.5t-97.5 -84.5t-74.5 -103t-47.5 -111.5t-16.5 -111q0 -52 16.5 -97.5t51.5 -79.5t90 -54t132 -20q54 0 113.5 12t120.5 36t122 59t118 81l62 51l14 -16q-17 -14 -33 -27t-33 -26z" />
    <glyph glyph-name="D" unicode="D" horiz-adv-x="971" 
d="M240 385l-210 -325q18 10 36.5 14t37.5 4q45 0 87.5 -14.5t85 -32.5t86 -32.5t91.5 -14.5q99 0 182 38t142.5 97t93 130.5t33.5 139.5q0 44 -15.5 82.5t-48.5 67.5t-84.5 46t-123.5 17q-74 0 -131 -20t-96 -51.5t-59 -70t-20 -76.5q0 -28 11.5 -53.5t35.5 -45t60.5 -31
t85.5 -11.5t101.5 15.5t103.5 49.5l10 -16q-54 -35 -109 -52t-106 -17q-54 0 -94.5 13t-66.5 35.5t-39 51.5t-13 61q0 42 21.5 84t63 76.5t102 56t139.5 21.5q77 0 132.5 -18.5t91 -50.5t52 -74t16.5 -90q0 -47 -15.5 -97t-45 -97t-71.5 -89t-94.5 -73.5t-114 -50
t-130.5 -18.5q-47 0 -91 14.5t-86.5 32.5t-85.5 32.5t-87 14.5q-26 0 -54 -13t-54 -39l-24 -36q-3 2 -7 6q-8 8 -7 14q1 8 11.5 19t18.5 19l236 367z" />
    <glyph glyph-name="E" unicode="E" horiz-adv-x="791" 
d="M323 414q-30 0 -58 -6q5 -44 27 -61.5t47 -17.5q27 0 41.5 12.5t14.5 27.5q0 23 -20 34t-52 11zM816 134q-48 -37 -115 -75.5t-142 -70.5t-152 -52.5t-146 -20.5t-118.5 17t-81 46t-46.5 67t-15 80q0 46 17 93.5t49 88.5t77.5 72t101.5 45v2q0 70 32.5 123.5t83.5 90
t113.5 55.5t122.5 19q42 0 79 -9.5t65.5 -28.5t45 -48t16.5 -68q0 -36 -12 -63t-30.5 -44.5t-41.5 -26t-44 -8.5q-32 0 -56 18.5t-24 53.5q0 15 7 35l18 -6q-2 -8 -3.5 -14.5t-1.5 -14.5q0 -26 17.5 -39t42.5 -13q18 0 37.5 7.5t35 22.5t25.5 38t10 54q0 34 -15 59.5
t-40.5 42t-59 24.5t-71.5 8q-56 0 -114.5 -17t-107 -51t-79.5 -83.5t-31 -114.5q27 6 58 6q41 0 66.5 -15.5t25.5 -49.5q0 -23 -20 -41.5t-56 -18.5q-16 0 -31.5 5t-28 16t-21.5 29.5t-12 44.5q-52 -14 -93.5 -43t-71 -67.5t-45.5 -82t-16 -86.5q0 -38 13.5 -72.5t43 -60.5
t75 -41.5t109.5 -15.5q67 0 143 20.5t149.5 52t139.5 70t113 74.5l62 51l14 -16q-17 -14 -33 -27t-33 -26z" />
    <glyph glyph-name="F" unicode="F" horiz-adv-x="1091" 
d="M575 212q23 -1 46 -1h46h45.5t44.5 1q39 45 80.5 88t91 79t108.5 62.5t133 38.5l4 -20q-70 -11 -126 -35t-102.5 -57t-86 -73t-75.5 -82q44 2 85.5 6t81.5 11q16 6 39 6l2 -20q-10 -2 -19.5 -3.5t-20.5 -3.5q-18 -8 -30.5 -22.5t-20.5 -32.5l-18 8q9 23 27 41
q-35 -4 -70.5 -6.5t-73.5 -4.5l-22 -26q-47 -55 -95 -107.5t-107 -93t-133 -65.5t-171 -25q-62 0 -108.5 16.5t-77.5 45t-46 67.5t-15 84q0 56 24 118.5t71 123.5t117.5 117t163.5 98.5t208.5 67.5t253.5 25q103 0 194 -18t177 -39t172 -39t178 -18q69 0 133 21t130 76
l12 -16q-68 -57 -135.5 -79t-139.5 -22q-93 0 -179 18t-172.5 39t-177 39t-192.5 18q-134 0 -247 -24.5t-204 -65t-159.5 -94.5t-114.5 -112.5t-69.5 -119t-23.5 -114.5q0 -41 14 -76t42.5 -61t71 -41t99.5 -15q93 0 164.5 24.5t129 64t105 90.5t91.5 104q3 3 5.5 6.5
t5.5 7.5q-17 -1 -35.5 -1h-36.5h-46t-46 1v20z" />
    <glyph glyph-name="G" unicode="G" horiz-adv-x="840" 
d="M844 532q-20 -7 -30.5 -23t-10.5 -33q0 -19 12.5 -28.5t29.5 -9.5q18 0 39 9t38 26.5t28.5 43t11.5 59.5q0 24 -10 46t-32.5 39t-59.5 27.5t-91 10.5q-128 0 -226 -34.5t-165 -86.5t-101.5 -114.5t-34.5 -117.5q0 -30 11 -56.5t33.5 -46t57 -30.5t80.5 -11
q45 0 93.5 12.5t96.5 36.5t93 58t83 76l15 -13q-31 -38 -58 -73t-52 -69q-53 -71 -102 -130.5t-109.5 -103t-140.5 -67.5t-195 -24q-60 0 -115.5 12t-98 39t-69 70t-29.5 105h20q3 -57 27.5 -96.5t64.5 -63.5t92 -35t108 -11q111 0 188.5 23.5t136.5 65.5t107 100.5
t99 127.5l34 46q-69 -51 -144.5 -78.5t-144.5 -27.5q-51 0 -89 12.5t-63 34.5t-37.5 52t-12.5 65q0 58 36 124t105.5 121t171.5 91.5t234 36.5q60 0 100.5 -12t65.5 -32t36 -46t11 -53q0 -39 -13.5 -68.5t-33.5 -49.5t-44.5 -30t-45.5 -10q-26 0 -44 14.5t-18 43.5
q0 23 13.5 43.5t41.5 30.5z" />
    <glyph glyph-name="H" unicode="H" horiz-adv-x="1383" 
d="M840 -19q19 20 44 46q20 22 48 51.5t60 64.5q-59 19 -117.5 37t-120.5 29q-39 -49 -91 -92.5t-114.5 -76.5t-134.5 -52.5t-151 -19.5q-21 0 -49 2.5t-57.5 9.5t-59 19t-52.5 30.5t-37.5 44t-15.5 59.5h20q1 -45 29.5 -73.5t68 -44.5t82 -21.5t71.5 -5.5q75 0 143.5 18
t128.5 48.5t109.5 71.5t87.5 87q-41 6 -83 6q-76 0 -153.5 -11t-152.5 -38l-6 18q78 29 156.5 40t155.5 11q24 0 48 -2.5t49 -6.5q40 52 61.5 106t21.5 103q0 36 -13 66.5t-41 53t-71.5 35.5t-103.5 13q-78 0 -140.5 -20.5t-106.5 -51.5t-67.5 -67.5t-23.5 -67.5
q0 -29 24.5 -48.5t77.5 -19.5q35 0 67.5 13t62 33t55.5 45.5t49 51.5l14 -14q-23 -26 -51 -52.5t-59.5 -48t-66 -35t-71.5 -13.5q-63 0 -92.5 25t-29.5 63q0 34 25 74t71.5 74t112.5 56.5t149 22.5q66 0 113 -14.5t77 -39.5t44.5 -59.5t14.5 -74.5q0 -50 -21.5 -104.5
t-60.5 -108.5q60 -11 119.5 -30t119.5 -37q19 20 36.5 40.5t37.5 43.5q31 36 71 81t89.5 92t109 91.5t128.5 80t148 58t169 24.5v-20q-87 -2 -164 -24t-144.5 -57t-125.5 -79t-107 -90.5t-88.5 -91t-69.5 -79.5l-67 -77q57 -17 113.5 -28.5t110.5 -11.5q40 0 77 9t68 31
q16 11 31 24.5t31 26.5q3 -3 6 -7q6 -8 7 -9q-17 -14 -32.5 -27.5t-32.5 -25.5q-35 -24 -74 -33t-81 -9q-62 0 -121 13t-118 31q-34 -37 -62.5 -67.5t-50.5 -53.5q-26 -26 -47 -48z" />
    <glyph glyph-name="I" unicode="I" horiz-adv-x="805" 
d="M429 79q0 -34 3 -65q60 33 116 75.5t105.5 90.5t90.5 98.5t70 98.5t45.5 91.5t16.5 77.5t-19.5 53.5t-64.5 19.5q-52 0 -99.5 -23t-88 -62.5t-73 -93t-55 -113.5t-35 -123.5t-12.5 -124.5zM9 112q-5 -17 -6.5 -31t-1.5 -25q0 -33 13.5 -56t37 -37t54 -20t64.5 -6
q60 0 122 18t122 49q-3 18 -4 36.5t-1 38.5q0 63 13 129.5t37 128.5t58 117t77 96t92.5 65t105.5 24q55 0 79.5 -25t24.5 -68q0 -35 -17 -80t-47.5 -95.5t-73 -103t-93.5 -102t-109.5 -94t-120.5 -77.5q9 -54 31.5 -99t58.5 -76l-12 -16q-38 33 -61.5 79.5t-34.5 102.5
q-61 -32 -123.5 -50t-123.5 -18q-38 0 -72 7t-60 23t-41.5 43t-15.5 66q0 14 1.5 29.5t6.5 32.5z" />
    <glyph glyph-name="J" unicode="J" horiz-adv-x="635" 
d="M-297 -384q39 0 98.5 30t131 81t151 119.5t157.5 145.5q-85 -23 -162 -56.5t-139.5 -69.5t-108.5 -69t-69 -54q-42 -40 -63 -69t-21 -44q0 -14 25 -14zM76 201q0 -59 17.5 -113.5t56.5 -101.5q29 10 58.5 18t59.5 15q79 80 150.5 164t125.5 163t86 148t32 120
q0 31 -9.5 52.5t-26 35t-38.5 19t-46 5.5q-61 0 -119.5 -21.5t-110 -59.5t-95 -89t-75 -109t-49 -121t-17.5 -125zM436 21q-42 -2 -83 -7.5t-81 -13.5q-81 -82 -165 -155.5t-160 -128.5t-139.5 -87.5t-104.5 -32.5q-45 0 -45 34q0 19 21 50.5t69 76.5q18 17 53.5 44t85 57.5
t111 62t131.5 57.5q-38 48 -55.5 105t-17.5 118q0 64 18.5 129.5t51 126t78 113.5t99.5 92t114.5 61.5t124.5 22.5q28 0 53.5 -7t44.5 -22.5t30.5 -40.5t11.5 -62q0 -50 -31 -118.5t-83.5 -146t-122 -161t-147.5 -163.5q34 7 68.5 11t69.5 5v-20z" />
    <glyph glyph-name="K" unicode="K" horiz-adv-x="1655" 
d="M916 364l-10 -28t-12 -28q39 3 78 18q-7 14 -20.5 24t-35.5 14zM872 307q15 30 24 60h-10q-38 0 -55.5 -10t-17.5 -21t14.5 -20t42.5 -9h2zM1125 -85q-37 0 -67.5 9.5t-53 29t-35 50t-12.5 71.5q0 25 4 49t9 48.5t9 49.5t4 51q0 18 -4 33q-23 -8 -46.5 -13t-49.5 -6
q-36 -68 -96 -131.5t-140.5 -113t-180 -79.5t-214.5 -30q-41 0 -85 7.5t-81.5 25.5t-61.5 48t-24 76q0 24 8 53l20 -6q-8 -29 -8 -47q0 -40 22 -66.5t56.5 -42t75 -22t78.5 -6.5q110 0 205.5 28t173.5 74.5t136 107t94 124.5q-34 2 -51 16.5t-17 32.5q0 19 22.5 35t70.5 16
h8t8 -1q11 42 11 77q0 41 -14 76.5t-44 61.5t-76 41t-110 15q-83 0 -155.5 -27.5t-126 -68t-84.5 -86.5t-31 -83q0 -29 24 -47.5t77 -18.5q22 0 49.5 6.5t59.5 24.5t68.5 49t77.5 80l16 -12q-42 -51 -81 -83.5t-73.5 -51.5t-63.5 -26t-53 -7q-63 0 -92 24t-29 62
q0 40 32.5 89.5t88.5 93t132.5 73t163.5 29.5q69 0 119 -16.5t82 -45t47.5 -68t15.5 -84.5q0 -37 -11 -79q28 -5 45 -18t25 -32q61 26 119 67.5t113 86.5q47 38 99 77t110 70.5t121 51t133 19.5v-20q-70 0 -131 -18.5t-116.5 -49t-105.5 -69t-98 -77.5q-60 -49 -117 -91.5
t-120 -67.5q4 -17 4 -40q0 -25 -4 -49t-9 -48.5t-9 -49.5t-4 -51q0 -72 41.5 -106t106.5 -34q67 0 143 20.5t149.5 52t139.5 70t113 74.5l62 51l14 -16q-17 -14 -33 -27t-33 -26q-48 -37 -115 -75.5t-142 -70.5t-152 -52.5t-146 -20.5z" />
    <glyph glyph-name="L" unicode="L" horiz-adv-x="1322" 
d="M60 -81q61 0 113.5 15.5t97.5 41.5q-51 23 -103.5 38t-111.5 15q-50 0 -76 -18t-26 -39q0 -20 25.5 -36.5t80.5 -16.5zM586 314q0 -1 -1 -1q104 1 187.5 33t142 77.5t90 97t31.5 91.5q0 43 -58 43q-70 0 -125.5 -28.5t-101.5 -76t-86 -109t-79 -127.5zM354 425
q10 -30 36 -54q22 -20 62.5 -38t108.5 -20l7 11q40 67 81.5 130t90 112t106.5 79t132 30q37 0 57.5 -16.5t20.5 -46.5q0 -44 -33.5 -99t-95.5 -104t-150.5 -82.5t-198.5 -33.5h-5q-27 -45 -55 -89.5t-59.5 -85.5t-67 -77t-76.5 -64q29 -16 57.5 -32.5t57.5 -33.5
q42 -25 83.5 -49t85 -42.5t89 -29.5t94.5 -11q104 0 182.5 26t131 66.5t79 90t26.5 96.5q0 32 -12.5 60.5t-37.5 50t-62.5 34t-87.5 12.5q-73 0 -140.5 -26t-121 -71t-90 -106.5t-46.5 -132.5l-20 2q11 75 49 139.5t94.5 112.5t127 75t147.5 27q55 0 96.5 -14t69 -38.5
t41 -56.5t13.5 -68q0 -50 -27.5 -103t-82.5 -96.5t-137.5 -71.5t-191.5 -28q-51 0 -98.5 11.5t-91.5 30t-87 42.5t-85 50q-32 19 -62.5 36.5t-62.5 34.5q-49 -30 -107 -47.5t-128 -17.5q-65 0 -95.5 22.5t-30.5 50.5q0 29 31.5 53t90.5 24q66 0 124 -17t112 -43
q41 27 76.5 61.5t67 74.5t60 83t54.5 86q-71 4 -113 24t-65 43q-27 26 -38 60z" />
    <glyph glyph-name="M" unicode="M" horiz-adv-x="1828" 
d="M1268 -100q6 -1 12.5 -1h13.5q45 0 95.5 11.5t99 32t92.5 48.5t77.5 61.5t53.5 71.5t20 78q0 51 -26.5 73.5t-68.5 22.5q-35 0 -75.5 -13.5t-81.5 -38.5t-79.5 -59.5t-67.5 -77.5t-47 -92.5t-18 -103.5v-13zM764 -57q23 58 60 122t81 128t91.5 125t91 114t80.5 94.5
t59 66.5q-67 -29 -125 -73.5t-110.5 -97.5t-103 -111t-102.5 -114.5t-108.5 -107t-122 -89.5t-141.5 -61.5t-168 -22.5q-69 0 -118.5 15t-81.5 40.5t-47 59t-15 70.5q0 63 31 113t82 85.5t115.5 54t130.5 18.5q55 0 107 -13.5t95.5 -41.5t75 -71.5t43.5 -103.5l-20 -4
q-12 56 -41 96.5t-69.5 66.5t-90 38.5t-100.5 12.5q-63 0 -123.5 -17.5t-108.5 -49.5t-77.5 -79t-29.5 -105q0 -33 14 -63t43.5 -52.5t75 -36t109.5 -13.5q93 0 169 23.5t141 63.5t121.5 92t109 110t104.5 117.5t108.5 113t120 98t139.5 72.5l10 -17q-83 -89 -162 -184
q-34 -41 -70 -86.5t-71.5 -94t-68.5 -98.5t-60 -98q41 51 97 110.5t120.5 119.5t133.5 116.5t136.5 101.5t129.5 74.5t112 35.5l6 -17q-44 -28 -94 -63.5t-100 -77t-96 -89t-81 -99t-56 -105.5t-21 -110q0 -65 35 -98.5t89 -43.5v10q0 57 18.5 109t49.5 97t71.5 82t83.5 63
t86 40t80 14q51 0 83 -27.5t32 -88.5q0 -42 -20.5 -82.5t-56 -76.5t-81.5 -66t-97 -52t-103.5 -34t-99.5 -12q-6 0 -12 0.5t-12 0.5q1 -16 6 -34l-20 -4q-2 11 -3.5 20.5t-3.5 20.5q-63 9 -104 47.5t-41 114.5q0 79 39 155t99 144.5t131.5 126.5t137.5 102
q-61 -20 -133.5 -64.5t-147 -103t-146.5 -125.5t-132.5 -131.5t-105.5 -121t-64 -94.5z" />
    <glyph glyph-name="N" unicode="N" horiz-adv-x="967" 
d="M329 500q-15 -42 -50 -77.5t-79.5 -60.5t-94 -39t-93.5 -14q-57 0 -96 25t-39 80q0 38 20.5 73t55.5 65t81.5 54t99 41.5t108 27t107.5 9.5t99 -10.5t82 -32.5t55.5 -56.5t20.5 -82.5t-26.5 -106.5t-67.5 -119.5q65 57 122.5 96t106 63t87 34.5t67.5 10.5q36 0 56.5 -14
t20.5 -39q0 -23 -27.5 -64.5t-66.5 -95.5q-33 -45 -69.5 -98t-67 -107.5t-50.5 -109.5t-20 -104q0 -38 13.5 -72.5t45.5 -63.5l-14 -14q-35 32 -50 70t-15 80q0 53 20.5 109.5t51.5 112.5t68 109.5t71 99.5q38 52 64 91t26 57q0 16 -15 24.5t-42 8.5t-63.5 -10t-81 -31
t-95 -55t-104.5 -82q-27 -24 -51.5 -46t-46.5 -42q-33 -42 -66.5 -80t-64 -69.5t-55.5 -54.5t-40 -34l-18 2q12 22 31 46.5t47.5 55t67.5 68.5t92 89q28 37 53.5 75t44.5 74.5t30 71t11 64.5q0 43 -19 74t-51 50.5t-75 28.5t-92 9q-50 0 -103 -9t-103.5 -25t-95 -38.5
t-78 -50.5t-53 -60t-19.5 -67q0 -44 33.5 -64.5t81.5 -20.5q42 0 88.5 13t88.5 36t75 56t47 72z" />
    <glyph glyph-name="O" unicode="O" horiz-adv-x="972" 
d="M783 653q-62 18 -124 18q-64 0 -128.5 -16.5t-124 -46.5t-111 -72.5t-89.5 -94.5t-60 -112.5t-22 -126.5q0 -51 17 -96.5t53 -79.5t90.5 -54t129.5 -20q108 0 196 41.5t150.5 105.5t96.5 139.5t34 143.5q0 37 -11.5 69.5t-35 56.5t-60 37.5t-87.5 13.5q-49 0 -101 -17
t-94.5 -47.5t-70 -73.5t-27.5 -95q0 -27 10 -47t26.5 -33t39 -19.5t47.5 -6.5q49 0 100 23t84 67l16 -12q-18 -24 -41.5 -42.5t-50 -31t-54 -18.5t-54.5 -6q-29 0 -55 7.5t-45.5 23t-31 39.5t-11.5 56q0 57 29.5 103.5t75 79.5t101 51.5t107.5 18.5q56 0 96.5 -15
t66.5 -41.5t38.5 -62.5t12.5 -78q0 -47 -16 -99t-46 -102t-74 -95t-99 -79.5t-121 -54.5t-141 -20q-80 0 -138.5 21.5t-96.5 58.5t-56.5 86t-18.5 104q0 69 22.5 132t62 117.5t93 98.5t115 75.5t128.5 48.5t134 17q68 0 130 -18z" />
    <glyph glyph-name="P" unicode="P" horiz-adv-x="1195" 
d="M1191 449q-80 -4 -146.5 -32t-124 -72t-108.5 -99t-99 -112q28 -3 56 -3q102 0 186.5 33t145 84.5t94 114t33.5 122.5q0 41 -17.5 78t-54.5 64.5t-95 44t-139 16.5q-132 0 -247.5 -32t-211.5 -85t-171.5 -122.5t-127 -143.5t-79 -148.5t-27.5 -138.5q0 -41 12 -75
t36.5 -59t62.5 -39t90 -14q64 0 119.5 24.5t106.5 65t97.5 92.5t92.5 107q-46 10 -92 30.5t-92 54.5l12 16q47 -35 93.5 -55t93.5 -28q50 59 103 116.5t114 104t131 76.5t153 34v-20zM769 111q-18 0 -35.5 1.5t-35.5 3.5l-5 -6q-48 -57 -96.5 -111t-100.5 -96t-110 -67
t-127 -25q-57 0 -98.5 15.5t-69 43t-40.5 65.5t-13 83q0 66 28 142.5t81 153t130 148t175.5 126t216.5 87.5t253 33q86 0 148 -18t101.5 -48.5t58 -71t18.5 -85.5q0 -63 -35 -129.5t-98 -121t-151.5 -89t-194.5 -34.5z" />
    <glyph glyph-name="Q" unicode="Q" horiz-adv-x="999" 
d="M117 -18q74 0 141.5 12t130.5 34q-59 23 -119.5 40.5t-129.5 17.5q-64 0 -95 -17.5t-31 -37.5q0 -19 26 -34t77 -15zM653 -40q-64 0 -122 17t-115 39q-68 -25 -143 -39.5t-156 -14.5q-61 0 -92 21.5t-31 47.5q0 28 36 51.5t110 23.5q75 0 144 -22t132 -46q90 35 163.5 87
t125.5 113t80.5 126t28.5 127q0 55 -20.5 94.5t-56 65t-83 37t-101.5 11.5q-56 0 -116 -11.5t-116.5 -33t-107 -51.5t-88.5 -66.5t-60 -79t-22 -88.5q0 -45 34.5 -74.5t111.5 -29.5q45 0 95 16.5t98 46t88.5 69.5t65.5 87l18 -10q-26 -49 -68.5 -91t-93 -72.5t-103.5 -48
t-100 -17.5q-87 0 -126.5 35.5t-39.5 88.5q0 49 23 94t62.5 84t92 70.5t111.5 54t121 35t120 12.5t109 -13t89 -40.5t60.5 -70.5t22.5 -104q0 -62 -28 -128t-79 -128t-123 -116t-161 -92q50 -19 101.5 -33t108.5 -14q56 0 108.5 17.5t104 48t103.5 71t107 86.5l14 -16
q-57 -47 -110 -88t-106.5 -72t-108 -49t-112.5 -18z" />
    <glyph glyph-name="R" unicode="R" horiz-adv-x="999" 
d="M295 351q0 -21 10 -37t26.5 -28t37.5 -20t43 -12q-18 45 -42.5 76t-64.5 31q-10 0 -10 -10zM653 -20q56 0 108.5 17.5t104 48t103.5 71t107 86.5l14 -16q-57 -47 -110 -88t-106.5 -72t-108 -49t-112.5 -18q-53 0 -89 22t-62 59.5t-44.5 87t-37.5 103.5q-24 4 -48 12
t-44 20.5t-34 30t-18 40.5l-268 -370l-16 12l424 585l16 -12l-122 -169q24 -1 42.5 -11.5t33.5 -28.5t26.5 -41t21.5 -50q14 -2 28 -3t26 -1q75 0 136 20t104 52t66.5 71t23.5 78q0 31 -14 59t-44.5 49.5t-79 34t-117.5 12.5q-62 0 -117 -11t-106.5 -23.5t-103.5 -23.5
t-108 -11q-35 0 -67 8t-64 30l12 16q29 -20 58 -27t61 -7q55 0 106.5 11t103.5 23.5t107 23.5t118 11q74 0 126.5 -14.5t85.5 -38.5t48 -55.5t15 -66.5q0 -42 -24.5 -85t-70.5 -77.5t-110.5 -56.5t-144.5 -22q-22 0 -47 3q16 -48 33.5 -92.5t41.5 -79.5t57 -56t80 -21z" />
    <glyph glyph-name="S" unicode="S" horiz-adv-x="1208" 
d="M1368 553q0 10 -6 19q-7 -13 -7 -25q0 -18 5 -18q8 0 8 24zM1394 617q-3 -4 -7 -8q-3 -4 -6.5 -9t-7.5 -10q15 -15 15 -37q0 -20 -8.5 -30t-18.5 -10t-18 8.5t-8 25.5t13 40q-15 11 -38.5 16t-51.5 5q-85 0 -138 -29.5t-86.5 -79t-53 -114t-37.5 -133.5
q-27 -105 -77.5 -189t-124 -142.5t-169.5 -89.5t-214 -31q-72 0 -137 15t-114 45t-78 74.5t-29 102.5q0 59 33 119.5t91 109.5t137 80t171 31q54 0 103 -12t86 -36t59 -61.5t22 -88.5q0 -26 -14.5 -55.5t-48.5 -60.5l-14 14q31 28 44 53.5t13 48.5q0 46 -20 79.5t-54.5 55.5
t-79.5 32.5t-96 10.5q-87 0 -162.5 -29.5t-131 -75.5t-87 -103t-31.5 -112q0 -53 27 -93.5t73.5 -68t108 -41.5t129.5 -14q108 0 199.5 28.5t163.5 84t123.5 136.5t78.5 187q18 70 39.5 137t57.5 119t92.5 84t145.5 32q64 0 100 -25q4 6 8 11t7 9q4 4 7 8z" />
    <glyph glyph-name="T" unicode="T" horiz-adv-x="1026" 
d="M1878 680q-68 -57 -135.5 -79t-139.5 -22q-93 0 -179 18t-172.5 39t-177 39t-192.5 18q-138 0 -255 -28t-212.5 -75.5t-168 -109.5t-122 -129t-74.5 -135t-25 -127q0 -42 13 -77.5t39.5 -61.5t66.5 -40.5t94 -14.5q91 0 161.5 26.5t127 70t103 98.5t88.5 111
q39 52 82 104.5t95 97t115.5 77t143.5 45.5l4 -20q-80 -13 -141 -44t-111 -74t-91.5 -94.5t-80.5 -103.5q-45 -59 -91.5 -115.5t-104 -100.5t-130.5 -71t-170 -27q-59 0 -103 16t-73 44.5t-43 68t-14 85.5q0 62 26 132t76 139t125 133t172 113t217 78t261 29q103 0 194 -18
t177 -39t172 -39t178 -18q69 0 133 21t130 76z" />
    <glyph glyph-name="U" unicode="U" horiz-adv-x="1122" 
d="M1010 246q-45 0 -92 -23t-87.5 -61.5t-71 -89t-42.5 -104.5q23 1 58 10.5t73.5 25.5t77 37.5t69.5 47.5t50 56t19 62q0 21 -15.5 30t-38.5 9zM10 705q14 -25 38 -34t53 -9q30 0 63.5 7t66 15.5t62.5 15.5t53 7q30 0 57 -8.5t46.5 -25t31 -41t11.5 -55.5q0 -33 -16.5 -68
t-43.5 -70.5t-61 -71.5t-69 -71q-32 -33 -63 -65t-55 -63t-39 -60t-15 -56q0 -34 14.5 -47t35.5 -13q51 0 108 31.5t116.5 81t119 111.5t115.5 123l76 83q35 43 68 74.5t57 45.5l11 -17q-33 -29 -61 -56t-60 -61q-31 -37 -60.5 -79.5t-52.5 -86.5t-37 -87t-14 -79
q0 -46 29.5 -75.5t101.5 -32.5q12 58 44.5 112t76 95t93.5 66t99 25q32 0 53 -13.5t21 -45.5q0 -35 -21 -68t-54.5 -61.5t-75 -52t-83 -40.5t-78 -26.5t-59.5 -10.5q-3 -21 -3 -43q0 -64 32 -119l-18 -10q-18 30 -26 62.5t-8 66.5q0 21 3 44q-80 3 -113.5 38t-33.5 89
q0 48 22 104t56 113q-55 -60 -111.5 -117.5t-113.5 -102.5t-112 -73t-107 -28q-30 0 -50 17t-20 63q0 30 15 61t40 63.5t57 66t66 67.5t67 69t59 68.5t42 66.5t16 63q0 27 -10 47.5t-27 34.5t-40 21t-49 7q-23 0 -52.5 -7t-62 -15t-66 -15t-64.5 -7q-33 0 -61.5 11.5
t-47.5 40.5z" />
    <glyph glyph-name="V" unicode="V" horiz-adv-x="845" 
d="M777 552q3 0 7 -1q8 -2 10 -3h1q1 -5 1 -15q0 -41 -26 -99q10 -34 43.5 -52.5t81.5 -18.5q35 0 74 11.5t80 34.5l10 -18q-42 -25 -84 -36.5t-80 -11.5q-48 0 -83.5 17t-52.5 49q-24 -49 -61 -103.5t-80.5 -107t-92.5 -100.5t-96.5 -84.5t-92.5 -58t-81 -21.5
q-60 0 -85 23t-25 61q0 30 14.5 69t37.5 82t51.5 88.5t57.5 89.5q22 34 43 66.5t36.5 61t25 51t9.5 37.5q0 49 -30.5 68.5t-75.5 19.5q-23 0 -50 -4t-55 -10.5t-55.5 -14t-52.5 -14.5q-32 -10 -59.5 -16.5t-44.5 -6.5q-35 0 -57.5 12t-35.5 27q-15 17 -23 39l20 6
q7 -18 19 -32q11 -12 29.5 -22t47.5 -10q13 0 39 6.5t59 16.5q51 14 109 28.5t110 14.5q27 0 50 -5.5t40 -18t26.5 -33t9.5 -51.5q0 -16 -10 -40t-26.5 -53.5t-37.5 -63t-44 -69.5q-27 -43 -55 -87.5t-50.5 -86.5t-37 -79.5t-14.5 -65.5q0 -29 20.5 -46.5t69.5 -17.5
q36 0 81 22.5t93 60t96 86.5t91 102t78 107t56 102q-3 12 -3 26q0 43 30 92z" />
    <glyph glyph-name="W" unicode="W" horiz-adv-x="1329" 
d="M784 405q11 16 19.5 30.5t15.5 27.5q-18 -23 -35 -58zM1244 588q0 -25 11 -49q1 6 1 12v12q0 14 -2 28t-7 25q-3 -15 -3 -28zM838 511q9 0 13 -6q2 -3 2 -5q-5 -29 -31.5 -72.5t-67.5 -94.5q-15 -45 -24.5 -92t-9.5 -91q0 -30 6 -56.5t19 -46t34.5 -31t53.5 -11.5
q35 0 77 19t86 53t86.5 80.5t77.5 102.5t59.5 118.5t32.5 128.5q-28 32 -28 81q0 32 5 45t12 13q6 0 12 -7t11 -18.5t8.5 -26.5t3.5 -31q0 -24 -3 -48q22 -21 60.5 -33t94.5 -12t127 13l4 -20q-37 -7 -69.5 -10t-61.5 -3q-54 0 -93.5 10.5t-64.5 30.5q-11 -64 -37.5 -127
t-63 -119t-80 -103.5t-89 -82.5t-88.5 -54.5t-79 -19.5q-37 0 -62.5 12.5t-41 35t-22.5 52.5t-7 65q0 34 5.5 71t16.5 73q-50 -57 -111 -114.5t-122.5 -103.5t-119 -74.5t-100.5 -28.5q-79 0 -112.5 36t-33.5 95q0 55 26 123.5t67 138.5t92 134.5t102 110.5
q-56 -21 -115 -32.5t-119 -11.5q-42 0 -81.5 5.5t-77.5 17.5l6 20q38 -12 76.5 -17.5t76.5 -5.5q77 0 151.5 19.5t143.5 53.5l10 -17q-35 -24 -74 -62t-76.5 -84t-71.5 -98t-60 -104t-41 -101.5t-15 -89.5q0 -50 29 -80.5t97 -30.5q31 0 68.5 15t79 40.5t84.5 59.5t85 73
t80.5 80t70.5 80q22 62 49.5 108.5t51.5 61.5z" />
    <glyph glyph-name="X" unicode="X" horiz-adv-x="1477" 
d="M1398 721q-49 -20 -112 -58.5t-128 -89t-127.5 -110t-111 -121t-78.5 -122t-30 -113.5q0 -48 13.5 -81.5t37.5 -55t56 -31t69 -9.5q43 0 90 11.5t92 31.5t85.5 47t71.5 59t49 67t18 70q0 48 -33.5 81t-102.5 33q-40 0 -88.5 -15t-96 -47.5t-88 -83.5t-64.5 -122l-18 6
q25 75 68 128.5t92.5 87.5t101 50t93.5 16q80 0 118 -38.5t38 -95.5t-41 -111.5t-104 -98t-138 -70t-143 -26.5q-41 0 -77 11t-62.5 34.5t-41.5 61t-15 90.5q0 54 30.5 116.5t80 126t113 124.5t130 113.5t130.5 92t115 59.5zM546 457q-24 -49 -58.5 -92.5t-77.5 -76
t-94 -51.5t-108 -19q-86 0 -124.5 30t-38.5 78q0 33 19.5 72t54.5 78t85 75.5t111.5 64t132 44.5t148.5 17q73 0 125.5 -16t86 -44t49 -66.5t15.5 -83.5q0 -55 -23 -117.5t-65 -123t-100.5 -116t-129.5 -97.5t-152.5 -67t-168.5 -25q-22 0 -60.5 8t-76.5 29t-66.5 57.5
t-29.5 92.5h20q1 -50 27 -82.5t61 -51.5t70 -26t55 -7q85 0 163.5 24t147.5 64.5t125.5 94t97 112t63 118t22.5 113.5q0 40 -14.5 75t-45.5 60.5t-79.5 40t-116.5 14.5q-112 0 -209 -34t-168.5 -84.5t-112.5 -108t-41 -104.5q0 -38 34 -63t109 -25q54 0 102 18.5t88.5 49.5
t73.5 72.5t56 88.5z" />
    <glyph glyph-name="Y" unicode="Y" horiz-adv-x="1224" 
d="M495 413q-17 -33 -60.5 -68.5t-98.5 -64.5t-114.5 -47.5t-107.5 -18.5q-50 0 -82 22.5t-32 75.5q0 46 24 89t65 80.5t95 68.5t113.5 53t121 34.5t118.5 12.5q49 0 92 -10t75 -31.5t50 -55t18 -80.5q0 -48 -19 -91.5t-49 -81.5t-65.5 -71.5t-68.5 -61.5q-58 -49 -92 -95
t-34 -79q0 -30 20.5 -44t56.5 -14q37 0 85.5 12.5t104 36t115.5 57t119 74t115.5 88t104.5 99.5l15 -13q-143 -173 -261 -314q-50 -60 -100 -118.5t-92 -106.5t-72.5 -80.5t-42.5 -40.5l-12 16q8 5 32 31t58 64.5t75 86t83 96.5q98 114 216 257q-70 -59 -146 -107.5
t-149 -83.5t-137.5 -54.5t-110.5 -19.5q-45 0 -71 18.5t-26 59.5q0 38 36.5 87.5t97.5 102.5q32 27 66 59t62.5 68.5t47 77t18.5 85.5q0 42 -16.5 72t-46 48.5t-68.5 27.5t-84 9q-54 0 -113.5 -11.5t-117 -32.5t-109.5 -50t-91.5 -64.5t-62.5 -76t-23 -83.5q0 -42 26.5 -60
t67.5 -18q46 0 102.5 17.5t109 45t94 61t57.5 65.5z" />
    <glyph glyph-name="Z" unicode="Z" horiz-adv-x="759" 
d="M6 -114q60 0 118.5 12.5t115.5 34.5q-23 18 -51 28.5t-60 10.5q-30 0 -57.5 -8t-49 -20t-34.5 -25t-13 -23t31 -10zM310 -208q0 15 -3 32q-86 -40 -163 -91t-135.5 -105t-93 -107.5t-34.5 -99.5q0 -20 12.5 -30t35.5 -10q37 0 80 20.5t85.5 54.5t81.5 77.5t68.5 89
t47.5 89.5t18 80zM4 675v-8q0 -28 11 -46.5t31 -29t47 -15t60 -4.5q35 0 76 3.5t84 8.5q45 5 90 9t87 4q48 0 89 -7.5t72 -26.5t48.5 -53t17.5 -86q0 -60 -34.5 -130t-94 -138t-140 -128.5t-172.5 -100.5q32 -35 45 -76q91 41 183.5 65t177.5 24q51 0 95 -9l-4 -20
q-44 9 -91 9q-84 0 -175 -23.5t-182 -64.5q2 -10 3.5 -19.5t1.5 -20.5q0 -37 -18.5 -83.5t-50 -94t-72.5 -93.5t-85.5 -81.5t-90 -57t-84.5 -21.5q-32 0 -50 15t-18 45q0 48 35.5 104.5t96.5 113t140.5 109.5t168.5 94q-12 42 -45 77q-61 -25 -124 -39t-127 -14q-27 0 -39 8
t-12 22q0 13 14.5 29.5t39 31.5t56 25t64.5 10q39 0 73 -13.5t60 -36.5q90 38 169.5 96.5t138.5 124.5t93 134t34 127q0 46 -16 76t-44 47t-66 23.5t-81 6.5q-40 0 -85 -4t-90 -9q-42 -5 -84 -8.5t-78 -3.5q-37 0 -68 5t-53.5 18t-35 35.5t-12.5 56.5v8h20z" />
    <glyph glyph-name="bracketleft" unicode="[" horiz-adv-x="401" 
d="M157 -174h-147l464 1000h140v-24h-126l-448 -956h117v-20z" />
    <glyph glyph-name="backslash" unicode="\" horiz-adv-x="616" 
d="M240 651q43 -186 80 -345q16 -68 32 -137t30.5 -130t26 -109.5t17.5 -75.5l-20 -4q-6 27 -17.5 75.5t-26 109.5t-30.5 130t-32 137q-37 159 -80 345z" />
    <glyph glyph-name="bracketright" unicode="]" horiz-adv-x="344" 
d="M328 826h147l-464 -1000h-140v24h126l448 956h-117v20z" />
    <glyph glyph-name="underscore" unicode="_" horiz-adv-x="875" 
d="M32 -29h687v-20h-687v20z" />
    <glyph glyph-name="grave" unicode="`" horiz-adv-x="749" 
d="M364 468q24 -35 61.5 -53t78.5 -27l-4 -20q-44 10 -84.5 30t-67.5 58z" />
    <glyph glyph-name="a" unicode="a" horiz-adv-x="749" 
d="M356 159q14 19 30 36t32 31q-39 14 -81.5 20.5t-78.5 6.5q-45 0 -90 -20t-80.5 -51.5t-57.5 -71t-22 -79.5q0 -17 8.5 -26.5t28.5 -9.5q28 0 67.5 14t82.5 37.5t85 53t76 59.5zM403 -40q-57 0 -80.5 20.5t-23.5 52.5q0 17 6.5 36.5t17.5 39.5q-34 -27 -72 -51
t-75.5 -42.5t-71.5 -29.5t-59 -11q-34 0 -47.5 15t-13.5 38q0 50 25 94.5t65 78t88.5 53t95.5 19.5q41 0 88.5 -8t90.5 -25l23 14l10 -18q-24 -17 -43 -34.5t-46 -41.5q-26 -32 -44 -65.5t-18 -61.5q0 -23 19 -38t65 -15q56 0 108.5 17.5t104 48t103.5 71t107 86.5l14 -16
q-57 -47 -110 -88t-106.5 -72t-108 -49t-112.5 -18z" />
    <glyph glyph-name="b" unicode="b" horiz-adv-x="586" 
d="M447 522q0 15 -13 15q-27 0 -68 -30t-86.5 -77t-92 -104t-83.5 -112q33 13 71 33.5t76.5 46t73.5 54.5t62.5 59t43.5 59.5t16 55.5zM677 187q-56 -48 -108 -65t-110 -17q-38 0 -72.5 12t-51.5 36q-27 -41 -61.5 -73.5t-71 -55.5t-72 -35.5t-62.5 -12.5q-31 0 -49.5 16
t-18.5 51q0 27 24 75.5t62.5 105.5t86.5 116t96.5 107.5t92 79t72.5 30.5q33 0 33 -35q0 -29 -19 -62.5t-50.5 -67.5t-71.5 -66.5t-82.5 -60t-84 -48.5t-74.5 -32q-29 -47 -47 -84.5t-18 -57.5q0 -25 13 -36t35 -11q28 0 64 14t72.5 38t69 56t53.5 68q-1 10 3 22t11 22.5
t16.5 17.5t19.5 8q-10 -33 -29 -66q4 -12 14.5 -21.5t25.5 -15.5t33.5 -9t37.5 -3q53 0 103.5 16.5t100.5 59.5z" />
    <glyph glyph-name="c" unicode="c" horiz-adv-x="553" 
d="M207 -40q-46 0 -79 11.5t-54 30.5t-31 44t-10 52q0 37 19 70.5t51 59.5t74 41.5t88 15.5q29 0 47 -8.5t27 -18.5l17 19l14 -14l-52 -56l-14 14l21 23q-6 7 -20 14t-40 7q-41 0 -79.5 -15t-68 -38.5t-47 -53.5t-17.5 -60q0 -23 8.5 -44.5t27.5 -38t48 -26t70 -9.5
q56 0 108.5 17.5t104 48t103.5 71t107 86.5l14 -16q-57 -47 -110 -88t-106.5 -72t-108 -49t-112.5 -18z" />
    <glyph glyph-name="d" unicode="d" horiz-adv-x="748" 
d="M45 -5q32 0 78.5 18.5t95 47t94.5 63.5t77 69l25 34q-38 13 -80 19.5t-77 6.5q-45 0 -90 -20t-80.5 -51.5t-57.5 -71t-22 -79.5q0 -17 8.5 -26.5t28.5 -9.5zM402 -40q-48 0 -69 17t-21 48q0 21 10 48t29 59q-35 -30 -76.5 -58.5t-83 -50t-80 -35t-66.5 -13.5
q-34 0 -47.5 15t-13.5 38q0 50 25 94.5t65 78t88.5 53t95.5 19.5q38 0 82.5 -7t86.5 -22q41 53 88.5 108.5t95.5 109.5l14 -14q-53 -59 -105 -120.5t-94 -118t-68 -104.5t-26 -80q0 -22 16.5 -33.5t53.5 -11.5q56 0 108.5 17.5t104 48t103.5 71t107 86.5l14 -16
q-57 -47 -110 -88t-106.5 -72t-108 -49t-112.5 -18z" />
    <glyph glyph-name="e" unicode="e" horiz-adv-x="495" 
d="M215 279q-30 0 -63 -27t-59 -65q16 -11 30.5 -16t27.5 -5q19 0 34.5 9t26 22.5t16.5 29t6 27.5q0 11 -4.5 18t-14.5 7zM149 -40q-67 0 -95 29t-28 72q0 37 17.5 79t45 77.5t61 58.5t65.5 23q23 0 33 -12t10 -29t-8 -36t-23 -35t-35 -27t-44 -11q-16 0 -32 5t-33 17
q-16 -27 -25 -55t-9 -53q0 -35 22.5 -59t77.5 -24q56 0 108.5 17.5t104 48t103.5 71t107 86.5l14 -16q-57 -47 -110 -88t-106.5 -72t-108 -49t-112.5 -18z" />
    <glyph glyph-name="f" unicode="f" horiz-adv-x="424" 
d="M463 396q1 5 1.5 9t0.5 8q0 21 -13.5 32t-36.5 11q-37 0 -75 -19.5t-77 -53.5t-78.5 -80t-78.5 -98h189v-16h-201q-29 -39 -57.5 -80t-56.5 -82q-41 -60 -82.5 -118.5t-82 -109.5t-80 -90t-78.5 -60l-10 18q38 21 77 59t78.5 87.5t80 107.5t81.5 118q26 38 52.5 75.5
t52.5 74.5h-166v16h177q42 56 83.5 105.5t83.5 86t84 58t84 21.5q32 0 51.5 -15t19.5 -45q0 -11 -3 -24z" />
    <glyph glyph-name="g" unicode="g" horiz-adv-x="599" 
d="M-80 -339q43 0 85 23t82 61.5t78 88.5t73 104q-74 -17 -137 -51t-109.5 -72t-72.5 -75t-26 -60q0 -19 27 -19zM415 227q-38 13 -80 19.5t-77 6.5q-45 0 -90 -20t-80.5 -51.5t-57.5 -71t-22 -79.5q0 -17 8.5 -26.5t28.5 -9.5q34 0 82.5 19.5t99.5 50.5t97.5 67.5
t75.5 71.5zM454 247q-25 -39 -47 -74t-42.5 -69t-41.5 -68t-43 -70q37 6 77 6q53 0 107.5 -12t109.5 -39l-8 -18q-54 26 -106 37.5t-103 11.5q-23 0 -45.5 -1.5t-45.5 -6.5q-37 -58 -78 -112.5t-84.5 -97t-89.5 -68t-94 -25.5q-24 0 -35.5 10.5t-11.5 28.5q0 26 29 67t80 83
t120.5 78t150.5 53q11 18 22.5 36.5t24.5 40t28 47t34 57.5q-35 -31 -78 -61t-86.5 -53.5t-83.5 -38t-69 -14.5q-34 0 -47.5 15t-13.5 38q0 50 25 94.5t65 78t88.5 53t95.5 19.5q38 0 82.5 -6.5t86.5 -22.5q2 4 5 7.5t6 7.5z" />
    <glyph glyph-name="h" unicode="h" horiz-adv-x="724" 
d="M290 468l-267 -377q30 25 65.5 51t72 47.5t72.5 35.5t66 14q34 0 51 -14.5t17 -35.5q0 -17 -12 -34.5t-26 -36t-26 -38.5t-12 -42q0 -26 19.5 -39t53.5 -13q37 0 87 14t105 39.5t112.5 62.5t111.5 83l21 18l14 -16l-22 -18q-56 -46 -115.5 -83.5t-116 -64t-107.5 -41
t-90 -14.5q-43 0 -68 17.5t-25 54.5q0 22 12 43.5t26 41t26 36.5t12 30q0 12 -12.5 21t-35.5 9q-37 0 -82 -21.5t-90 -52t-85 -63.5t-65 -56l-24 -34l-16 12l336 475l1 1z" />
    <glyph glyph-name="i" unicode="i" horiz-adv-x="452" 
d="M106 -40q-47 0 -75 18.5t-28 59.5q0 32 21 79t74 112l16 -12q-51 -62 -71 -106t-20 -73q0 -30 22.5 -44t60.5 -14q56 0 108.5 17.5t104 48t103.5 71t107 86.5l14 -16q-57 -47 -110 -88t-106.5 -72t-108 -49t-112.5 -18zM184 383q8 0 9.5 -4.5t1.5 -6.5q0 -14 -13 -25.5
t-30 -11.5q-8 0 -9 4t-1 6q0 5 3.5 11.5t9.5 12.5t13.5 10t15.5 4z" />
    <glyph glyph-name="j" unicode="j" horiz-adv-x="335" 
d="M317 450q8 0 9.5 -4.5t1.5 -6.5q0 -14 -13 -25.5t-30 -11.5q-8 0 -9 4t-1 6q0 5 3.5 11.5t9.5 12.5t13.5 10t15.5 4zM77 203q20 17 46 34t46 25l14 -14q-35 -32 -75 -82.5t-82 -105.5q-51 -67 -106.5 -136.5t-117 -126.5t-129 -93t-141.5 -36q-39 0 -77 7.5t-70 20.5
l8 18q30 -11 65.5 -18.5t73.5 -7.5q71 0 136 35t124 90.5t113.5 124t104.5 134.5q28 37 54 71t51 63q-4 -4 -9 -8t-13 -10l-24 -19l-13 16z" />
    <glyph glyph-name="k" unicode="k" horiz-adv-x="733" 
d="M297 502q-22 -27 -45 -60.5t-45.5 -68.5t-44.5 -70.5t-42 -68.5q31 23 67 51.5t71 59t67.5 62t57.5 61t39.5 55.5t14.5 46q0 8 -4 13.5t-15 5.5q-20 0 -53 -21t-68 -65zM387 -40q-33 0 -54.5 8.5t-34 23.5t-17.5 34.5t-5 40.5q0 26 5.5 56t16.5 80q30 -27 74 -27
q40 0 73.5 10t58.5 25.5t39 33t14 32.5q0 11 -13 19t-42 8q-41 0 -85.5 -11.5t-89.5 -31t-89.5 -44.5t-86 -52t-77.5 -53.5t-64 -48.5q-17 -23 -31.5 -39.5t-25.5 -26.5q-12 -12 -23 -19l-9 26q3 2 19 16.5t42 35.5l26 37q15 21 35 54.5t45 73.5q21 34 44.5 72.5t48.5 77
t50.5 75.5t49.5 68q38 48 76 71t61 23t31 -11t8 -28q0 -24 -18.5 -55.5t-48.5 -66t-68.5 -71t-79 -70.5t-79.5 -64t-69 -51q-15 -26 -29 -48.5t-26 -40.5q45 35 102 74t118.5 72t124 54.5t118.5 21.5q39 0 57 -13.5t18 -33.5q0 -18 -15.5 -39t-43 -39.5t-65 -30.5t-81.5 -12
q-36 0 -60 11q0 -2 -0.5 -2.5t-0.5 -2.5q-5 -22 -10 -47t-5 -48q0 -18 4 -33.5t14.5 -27.5t28 -19t44.5 -7q56 0 108.5 17.5t104 48t103.5 71t107 86.5l14 -16q-57 -47 -110 -88t-106.5 -72t-108 -49t-112.5 -18z" />
    <glyph glyph-name="l" unicode="l" horiz-adv-x="494" 
d="M330 560q-32 0 -70 -33t-74 -85t-66 -116.5t-47 -126.5q48 42 97.5 88t89.5 91.5t65 87.5t25 75q0 19 -20 19zM64 165q-4 -20 -6 -38.5t-2 -35.5q0 -50 21 -80.5t71 -30.5q56 0 108.5 17.5t104 48t103.5 71t107 86.5l14 -16q-57 -47 -110 -88t-106.5 -72t-108 -49
t-112.5 -18q-60 0 -86.5 36t-26.5 95q0 45 13.5 98.5t37 108t53.5 105.5t62.5 90.5t66 63t62.5 23.5q18 0 29 -9.5t11 -29.5q0 -36 -25 -80.5t-65 -92t-90 -94.5t-99 -87z" />
    <glyph glyph-name="m" unicode="m" horiz-adv-x="1374" 
d="M1028 -40q-35 0 -55 12t-20 40q0 25 10 46.5t22.5 42.5t22.5 43t10 48q0 24 -27 24q-30 0 -78 -21.5t-102 -56t-107 -77t-93 -84.5l-20 7q15 22 31 49t28.5 54t21 52t8.5 44t-10 30.5t-33 11.5q-48 0 -103 -21.5t-108 -54.5t-100 -74t-80 -80l-14 14q4 5 8.5 10.5
t9.5 10.5q8 12 16.5 28.5t15 35t10.5 37.5t4 37q0 50 -17.5 69t-43.5 19q-18 0 -37.5 -7t-39 -17.5t-37 -22.5t-30.5 -22l-22 -18l-13 16l21 18q13 10 32.5 23t41.5 23.5t45.5 18t44.5 7.5q32 0 54 -22t22 -80q0 -23 -6 -49t-16 -50q36 33 78.5 63.5t88 54.5t90.5 38.5
t85 14.5q37 0 51.5 -15t14.5 -39q0 -17 -5.5 -36.5t-14.5 -40t-20 -41t-21 -38.5q42 38 91.5 74t97.5 64.5t90 45.5t70 17q22 0 34.5 -10.5t12.5 -33.5q0 -25 -10 -47.5t-22.5 -44t-22.5 -43t-10 -45.5q0 -32 55 -32q56 0 108.5 17.5t104 48t103.5 71t107 86.5l14 -16
q-57 -47 -110 -88t-106.5 -72t-108 -49t-112.5 -18z" />
    <glyph glyph-name="n" unicode="n" horiz-adv-x="1074" 
d="M728 -20q56 0 108.5 17.5t104 48t103.5 71t107 86.5l14 -16q-57 -47 -110 -88t-106.5 -72t-108 -49t-112.5 -18q-47 0 -75 18.5t-28 59.5q0 22 8 42.5t18 40.5t18 40.5t8 42.5q0 12 -11 16.5t-29 4.5q-48 0 -103 -21.5t-108 -54.5t-100 -74t-80 -80l-14 14q4 5 8.5 10.5
t9.5 10.5q8 12 16.5 28.5t15 35t10.5 37.5t4 37q0 50 -17.5 69t-43.5 19q-18 0 -37.5 -7t-39 -17.5t-37 -22.5t-30.5 -22l-22 -18l-13 16l21 18q13 10 32.5 23t41.5 23.5t45.5 18t44.5 7.5q32 0 54 -22t22 -80q0 -23 -6 -49t-16 -50q36 33 78.5 63.5t88 54.5t90.5 38.5
t85 14.5q27 0 43.5 -9t16.5 -32q0 -22 -8 -42.5t-18 -40.5t-18 -40.5t-8 -42.5q0 -30 22.5 -44t60.5 -14z" />
    <glyph glyph-name="o" unicode="o" horiz-adv-x="561" 
d="M273 236q-22 5 -37 5q-45 0 -85.5 -18.5t-72 -47t-50 -63t-18.5 -67.5q0 -36 15.5 -52t39.5 -16q29 0 64 17.5t67.5 46.5t57 68t32.5 81q-6 15 -6 23q0 14 9.5 17t14.5 3q2 0 3 -2t1 -12v-8q11 -49 47 -72t84 -23q43 0 89.5 17.5t88.5 51.5l22 18l13 -16l-21 -18
q-43 -37 -93 -55t-97 -18t-84 17t-56 52q-13 -42 -40 -80t-61 -66.5t-69.5 -45t-65.5 -16.5q-33 0 -54 20.5t-21 67.5q0 39 20 77.5t54 69.5t78.5 50t93.5 19q11 0 21 -1.5t20 -3.5z" />
    <glyph glyph-name="p" unicode="p" horiz-adv-x="783" 
d="M238 399q-64 -97 -126 -183t-121 -162q26 19 58 40t66.5 41.5t69.5 39.5t67.5 33t60.5 22.5t48 8.5q34 0 51 -14.5t17 -35.5q0 -17 -12 -35.5t-26 -38.5t-26 -41.5t-12 -43.5q0 -26 23 -38t61 -12q56 0 108.5 17.5t104 48t103.5 71t107 86.5l14 -16q-57 -47 -110 -88
t-106.5 -72t-108 -49t-112.5 -18q-47 0 -75.5 17t-28.5 53q0 22 12 44.5t26 43.5t26 39.5t12 31.5q0 12 -12.5 21t-35.5 9q-22 0 -55.5 -11t-72.5 -29.5t-81 -41.5t-80 -47t-70 -46t-51 -39q-97 -121 -173.5 -205.5t-118.5 -123.5l-14 14q35 33 97 101t139 162.5t164.5 211
t174.5 246.5z" />
    <glyph glyph-name="q" unicode="q" horiz-adv-x="688" 
d="M211 -54q0 14 -1 29.5t-5 34.5q-32 -32 -66 -69t-67 -77q-50 -60 -70 -100t-20 -63q0 -18 11 -25.5t26 -7.5q42 0 77 23t60.5 61.5t40 89t14.5 104.5zM74 44q24 0 55.5 9.5t66 25t69.5 35.5t65 41q26 23 47.5 41t37.5 31q-38 13 -80 19.5t-77 6.5q-40 0 -82.5 -18
t-77 -44t-57 -57t-22.5 -56q0 -19 16.5 -26.5t38.5 -7.5zM342 -20q56 0 108.5 17.5t104 48t103.5 71t107 86.5l14 -16q-57 -47 -110 -88t-106.5 -72t-108 -49t-112.5 -18q-20 0 -40 5t-37 12q-19 8 -38 18q1 -9 2.5 -21.5t1.5 -27.5q0 -58 -16 -112t-44 -95t-67 -66t-85 -25
q-24 0 -40.5 12t-16.5 41q0 26 23.5 71t71.5 103q51 61 102 114.5t99 98.5q-42 -23 -91.5 -43t-100.5 -20q-32 0 -50.5 13t-18.5 38q0 38 27 73.5t66.5 63t85 44t82.5 16.5q40 0 86.5 -7t88.5 -24q4 2 7 4.5t5 4.5q3 2 4 3l12 -16q-10 -5 -23.5 -16.5t-28.5 -24.5t-30 -26.5
t-28 -22.5q-29 -25 -62 -55.5t-69 -66.5q3 -3 12 -11t24 -15.5t36.5 -13.5t49.5 -6z" />
    <glyph glyph-name="r" unicode="r" horiz-adv-x="603" 
d="M136 327q3 4 7 8q3 3 6.5 6t6.5 3q4 0 7 -7q5 -28 16.5 -46.5t29 -30t39.5 -17t48 -7.5q-60 -75 -86.5 -124.5t-26.5 -78.5q0 -27 20 -40t55 -13q56 0 108.5 17.5t104 48t103.5 71t107 86.5l14 -16q-57 -47 -110 -88t-106.5 -72t-108 -49t-112.5 -18q-45 0 -70 17.5
t-25 55.5q0 30 22 75.5t71 108.5q-26 5 -49.5 19t-40.5 35q-12 -24 -35 -47t-40 -37l-22 -18l-13 16l21 18q30 26 49 47t28 38q-12 18 -18 39z" />
    <glyph glyph-name="s" unicode="s" horiz-adv-x="572" 
d="M133 -31q23 0 43 9q-41 5 -72.5 26t-48.5 63q-4 -11 -4 -24q0 -29 21.5 -51.5t60.5 -22.5zM56 185l21 18q39 33 61.5 60.5t26.5 56.5v11q0 24 7 34.5t15 10.5q7 0 12.5 -5.5t5.5 -15.5q0 -23 -22 -59q0 -47 9 -78t19.5 -58t19.5 -54.5t9 -65.5q0 -27 -13 -46
q38 2 86 15.5t100.5 37.5t107.5 58.5t107 79.5l21 18l14 -16l-22 -18q-56 -45 -114 -80.5t-114.5 -60.5t-108 -38t-93.5 -14q-15 -14 -35.5 -20.5t-42.5 -6.5q-47 0 -73.5 25t-26.5 63q0 19 8 41l23 7q22 -46 57.5 -67t80.5 -23q18 18 18 45q0 34 -7.5 60t-17.5 51t-18.5 53
t-10.5 66q-16 -23 -35.5 -44.5t-39.5 -38.5l-22 -18z" />
    <glyph glyph-name="t" unicode="t" horiz-adv-x="451" 
d="M59 349h129q24 31 46 59t39 50q19 26 37 47l16 -12q-16 -20 -34 -43q-16 -20 -36 -46t-43 -55h178v-16h-190q-23 -29 -46 -59t-43 -57q-48 -62 -68.5 -107t-20.5 -74q0 -31 22.5 -43.5t59.5 -12.5q56 0 108.5 17.5t104 48t103.5 71t107 86.5l14 -16q-57 -47 -110 -88
t-106.5 -72t-108 -49t-112.5 -18q-46 0 -74 17t-28 59q0 32 22.5 81t70.5 112l80 104h-117v16z" />
    <glyph glyph-name="u" unicode="u" horiz-adv-x="771" 
d="M425 -40q-47 0 -75 18.5t-28 59.5q0 19 7 43t24 53q-37 -33 -75 -59t-74 -44t-68.5 -27.5t-57.5 -9.5q-32 0 -50 14t-18 45q0 29 22 75.5t74 112.5l16 -12q-50 -63 -71 -106.5t-21 -69.5q0 -20 12.5 -29.5t35.5 -9.5q29 0 68.5 14t84 40t90 62.5t85.5 82.5l13 16l16 -12
q-51 -62 -72 -106t-21 -73q0 -30 22.5 -44t60.5 -14q56 0 108.5 17.5t104 48t103.5 71t107 86.5l14 -16q-57 -47 -110 -88t-106.5 -72t-108 -49t-112.5 -18z" />
    <glyph glyph-name="v" unicode="v" horiz-adv-x="846" 
d="M328 -4q28 0 64 14t72.5 38t69 56t53.5 68v5q0 10 4.5 21t11.5 20.5t16 16t18 7.5q-5 -18 -12 -35t-16 -33q4 -12 14.5 -21t25.5 -14.5t33 -8.5t37 -3q53 0 103.5 16.5t100.5 59.5l14 -16q-56 -48 -108 -65t-110 -17q-38 0 -72 12t-51 35q-26 -40 -61 -72.5t-72 -55.5
t-72.5 -35.5t-62.5 -12.5q-31 0 -42.5 11.5t-11.5 31.5q0 18 7 40t15.5 46t15.5 47.5t7 43.5q0 36 -16.5 50.5t-42.5 14.5q-20 0 -43 -7t-46 -17.5t-44 -24t-36 -25.5l-22 -18l-13 16l21 18q19 16 42 30.5t47.5 25.5t49 17.5t46.5 6.5q34 0 56 -18t22 -63q0 -22 -6.5 -46.5
t-15 -48.5t-15 -45.5t-6.5 -36.5q0 -14 7 -21.5t24 -7.5z" />
    <glyph glyph-name="w" unicode="w" horiz-adv-x="975" 
d="M457 -24q-26 0 -44.5 7.5t-29.5 20.5t-16 30t-5 35q0 22 6 43q-30 -24 -66.5 -47.5t-75 -41.5t-76.5 -29.5t-70 -11.5q-43 0 -60 16.5t-17 42.5q0 28 15 62t35 66t40 57t31 35l14 -14q-6 -7 -24.5 -30.5t-38 -53.5t-34.5 -62.5t-15 -56.5q0 -19 12.5 -30.5t41.5 -11.5
q34 0 74 13t80.5 32.5t78 43.5t65.5 47q14 30 34.5 51.5t39.5 21.5q0 -13 -15.5 -33t-41.5 -43q-13 -34 -13 -66q0 -29 16.5 -51t58.5 -22q28 0 64 14t72.5 38t69 56t53.5 68v5q0 10 4.5 21t11.5 20.5t16 16t18 7.5q-5 -18 -12 -35t-16 -33q4 -12 14.5 -21t25.5 -14.5
t33 -8.5t37 -3q53 0 103.5 16.5t100.5 59.5l14 -16q-56 -48 -108 -65t-110 -17q-38 0 -72 12t-51 35q-26 -40 -61 -72.5t-72 -55.5t-72.5 -35.5t-62.5 -12.5z" />
    <glyph glyph-name="x" unicode="x" horiz-adv-x="756" 
d="M552 233l-245 -135q-3 -24 -3 -43q0 -16 4.5 -29.5t16.5 -23.5t33 -16t53 -6q56 0 108 17.5t103.5 48t103.5 71t107 86.5l14 -16q-57 -47 -110 -88t-106.5 -72t-108 -49t-112.5 -18q-38 0 -62.5 7t-38.5 20t-19.5 30.5t-5.5 37.5q0 12 3 32l-175 -96l-10 18l188 103
q2 14 3.5 29.5t1.5 29.5q0 34 -12 59.5t-48 25.5q-18 0 -37.5 -7t-39 -17.5t-37 -22.5t-30.5 -22l-22 -18l-13 16l21 18q13 10 32.5 23t41.5 23.5t45.5 18t44.5 7.5q22 0 36.5 -7.5t23 -20.5t11.5 -29.5t3 -35.5q0 -14 -1 -29t-3 -29l231 127z" />
    <glyph glyph-name="y" unicode="y" horiz-adv-x="828" 
d="M267 221q0 41 -34 41q-27 0 -66 -22.5t-76 -52.5l-22 -18l-13 16l21 18q16 14 36.5 28t42 25t42 18t38.5 7q23 0 37 -13.5t14 -46.5q0 -21 -10.5 -45.5t-22.5 -47.5t-22.5 -43.5t-10.5 -34.5q0 -22 35 -22q33 0 85.5 17t111 46.5t116.5 68t102 81.5l15 -13
q-45 -54 -86 -117t-84 -126.5t-90.5 -122.5t-105.5 -104t-128.5 -72.5t-159.5 -27.5q-29 0 -59 3.5t-61 11.5l6 20q31 -8 59.5 -11.5t54.5 -3.5q76 0 138 21t114.5 57.5t96.5 85t84 103.5t77 112.5t76 112.5q-46 -35 -97.5 -64.5t-100.5 -51t-92 -34t-72 -12.5
q-32 0 -45 9.5t-13 26.5q0 18 11 41t23.5 47t23.5 47.5t11 41.5z" />
    <glyph glyph-name="z" unicode="z" horiz-adv-x="662" 
d="M104 -269q28 15 59 38.5t60.5 53t53.5 63.5t38 69q-67 -11 -122.5 -33.5t-95.5 -51.5t-62.5 -62t-22.5 -66q0 -14 11 -19.5t26 -5.5q14 0 29 4t26 10zM77 203q72 60 141 86.5t123 26.5q45 0 73 -17t28 -46q0 -31 -37 -74t-124 -92q26 -2 46.5 -15.5t20.5 -52.5
q0 -11 -1.5 -20.5t-3.5 -19.5q21 2 43 3.5t45 1.5q51 0 104.5 -7t107.5 -23l-6 -20q-54 16 -106 23t-100 7q-50 0 -95 -6q-13 -38 -38.5 -75t-56 -69t-64 -58.5t-63.5 -42.5q-13 -7 -30.5 -11.5t-34.5 -4.5q-23 0 -40 10.5t-17 34.5q0 37 24.5 74t68 68.5t104.5 56t133 35.5
q6 21 6 43q0 29 -16.5 38.5t-35.5 9.5q-10 0 -18.5 -1t-15.5 -3q-8 -2 -14 -4l-6 18q106 51 151 96.5t45 76.5q0 23 -20.5 35.5t-55.5 12.5q-47 0 -113 -26t-138 -85l-22 -18l-13 16z" />
    <glyph glyph-name="braceleft" unicode="{" horiz-adv-x="477" 
d="M606 820q-62 -13 -103 -48.5t-71.5 -83t-56 -100t-56.5 -98.5t-73 -79t-106 -42q34 -32 46 -70.5t12 -82.5q0 -49 -11.5 -97t-26 -96t-26 -94.5t-11.5 -92.5q0 -23 7.5 -40t25.5 -25l-8 -18q-24 12 -34.5 33t-10.5 50q0 48 11.5 95t26 93.5t26 94t11.5 97.5
q0 40 -15.5 78.5t-54.5 74.5l4 18q69 6 113.5 38t76.5 77t58 97.5t57.5 101t74.5 86t110 53.5z" />
    <glyph glyph-name="bar" unicode="|" horiz-adv-x="633" 
d="M690 641l-600 -797l-16 12l600 797z" />
    <glyph glyph-name="braceright" unicode="}" horiz-adv-x="385" 
d="M-211 -227q62 12 103 48t71.5 83.5t56 100t56.5 98.5t73 79t106 42q-34 32 -46 70.5t-12 82.5q0 49 11.5 97t26 96t26 94.5t11.5 92.5q0 23 -7.5 40t-25.5 25l8 18q24 -12 34.5 -33t10.5 -50q0 -48 -11.5 -95t-26 -93.5t-26 -94t-11.5 -97.5q0 -40 15.5 -78.5t54.5 -74.5
l-4 -18q-69 -6 -113.5 -38t-76.5 -77t-58 -97.5t-57.5 -101t-75 -86.5t-109.5 -53z" />
    <glyph glyph-name="asciitilde" unicode="~" horiz-adv-x="938" 
d="M160 124q30 21 61 29t64 8q41 0 81.5 -7t81 -15.5t81.5 -15.5t84 -7q45 0 91 10.5t93 36.5l10 -18q-49 -28 -97.5 -38.5t-96.5 -10.5q-41 0 -81.5 7t-81 15.5t-81.5 15.5t-84 7q-30 0 -58 -7t-55 -26z" />
    <glyph glyph-name="exclamdown" unicode="&#xa1;" horiz-adv-x="396" 
d="M277 263q-66 -95 -134 -192q-29 -41 -61 -87t-64.5 -93.5t-64.5 -94.5t-61 -90l-16 12q29 43 61 90t64.5 94.5t64.5 93.5t61 87q68 97 134 192zM312 317q-8 0 -9.5 4.5t-1.5 6.5q0 14 13 25.5t30 11.5q8 0 9 -4t1 -6q0 -5 -4 -11.5t-10 -12.5t-13.5 -10t-14.5 -4z" />
    <glyph glyph-name="cent" unicode="&#xa2;" horiz-adv-x="455" 
d="M55 184q0 -30 14 -56t45 -42q42 66 85 131.5t88 131.5q-5 1 -9.5 1.5t-10.5 0.5q-41 0 -79.5 -15t-68 -38.5t-47 -53.5t-17.5 -60zM394 468l-75 -108q15 -8 23 -17l15 23l20 -5l-43 -67l-19 7l16 24q-3 4 -8.5 8.5t-14.5 9.5q-45 -66 -88.5 -132.5t-85.5 -133.5
q31 -11 75 -11q51 0 98.5 14.5t95.5 40.5l11 -17q-50 -27 -100.5 -42.5t-104.5 -15.5q-53 0 -86 13l-55 -92l-20 7q14 23 27.5 47t27.5 47q-35 20 -51.5 50.5t-16.5 65.5q0 37 19 70.5t51 59.5t74 41.5t88 15.5q9 0 17 -1t15 -3l74 106z" />
    <glyph glyph-name="sterling" unicode="&#xa3;" horiz-adv-x="772" 
d="M18 0q28 0 51.5 8t43.5 22q-25 8 -50 14t-51 6q-35 0 -53.5 -7.5t-18.5 -16.5q0 -10 19.5 -18t58.5 -8zM103 196h132l8 16q24 46 50.5 91.5t61 81.5t80 58t107.5 22q33 0 56.5 -8.5t38.5 -23t22 -33t7 -39.5q0 -27 -11 -54t-30.5 -49t-47 -36t-59.5 -14q-41 0 -65 19
t-24 61h20q0 -32 18.5 -46t50.5 -14q28 0 51.5 12t40.5 31.5t26.5 43t9.5 46.5q0 34 -24 59t-80 25t-98 -21.5t-75 -56.5t-59 -78.5t-49 -86.5l-3 -6h114v-20h-125l-27 -49h145v-20h-158q-13 -21 -27 -39.5t-31 -33.5q26 -11 53 -22.5t55.5 -21.5t59 -16t62.5 -6
q54 0 102.5 24t99.5 62l12 -16q-54 -39 -104.5 -64.5t-109.5 -25.5q-35 0 -66.5 7.5t-61 18.5t-58.5 24t-57 24q-24 -20 -53.5 -31t-64.5 -11q-50 0 -74 14.5t-24 31.5t23 30.5t69 13.5q29 0 58 -8t59 -20q15 13 28.5 29.5t25.5 35.5h-87v20h100q8 11 14.5 23.5t13.5 25.5
h-121v20z" />
    <glyph glyph-name="yen" unicode="&#xa5;" horiz-adv-x="557" 
d="M16 159h115q21 36 30.5 69.5t9.5 65.5q0 54 -23.5 100t-58.5 83l14 14q38 -40 63 -89.5t25 -107.5q0 -63 -35 -132q33 30 79.5 69t100.5 75.5t111.5 66t110.5 40.5l4 -20q-49 -10 -102 -36.5t-103.5 -60.5t-96 -70.5t-78.5 -66.5h103v-20h-125q-23 -20 -35.5 -33
t-17.5 -16h102v-20h-121l-81 -84l-14 14l67 70h-120v20h139q19 21 27 31t13 18h-103v20z" />
    <glyph glyph-name="brokenbar" unicode="&#xa6;" horiz-adv-x="633" 
d="M82 -150l273 363l16 -12l-273 -363zM415 292l267 355l16 -12l-267 -355z" />
    <glyph glyph-name="section" unicode="&#xa7;" horiz-adv-x="384" 
d="M317 386q-50 0 -83 -29t-56.5 -74t-41.5 -100.5t-37 -108t-43 -96t-61 -65.5h3q51 0 85 28.5t58 73t42 99.5t36.5 107.5t41.5 96.5t58 68h-2zM402 316q0 23 -15 39.5t-36 24.5q-40 -22 -65.5 -66.5t-46 -98.5t-39.5 -111t-44.5 -104t-63 -77t-94.5 -30q-17 0 -35.5 6
t-33.5 17.5t-25 28.5t-10 38h20q0 -24 15 -40t35 -24q42 21 68.5 65t47 98.5t39 111.5t44 104.5t62 77.5t92.5 30q19 0 38 -6.5t34 -18t24 -28t9 -37.5h-20z" />
    <glyph glyph-name="dieresis" unicode="&#xa8;" horiz-adv-x="452" 
d="M350 450q8 0 9.5 -4.5t1.5 -6.5q0 -14 -13 -25.5t-30 -11.5q-8 0 -9 4t-1 6q0 5 3.5 11.5t9.5 12.5t13.5 10t15.5 4zM216 450q8 0 9.5 -4.5t1.5 -6.5q0 -14 -13 -25.5t-30 -11.5q-8 0 -9 4t-1 6q0 5 3.5 11.5t9.5 12.5t13.5 10t15.5 4z" />
    <glyph glyph-name="copyright" unicode="&#xa9;" horiz-adv-x="684" 
d="M471 210q-26 0 -52.5 -14t-48 -33.5t-35.5 -41t-14 -37.5q0 -19 27 -19q21 0 44.5 15.5t43.5 38.5t33 50t13 50q0 20 -15.5 34.5t-54.5 14.5q-45 0 -83 -18.5t-66.5 -47t-44.5 -63.5t-16 -69q0 -29 9 -48.5t24.5 -32.5t36 -18.5t43.5 -5.5q24 0 48 5.5t46.5 15t41 23
t30.5 29.5l16 -12q-14 -18 -34 -32.5t-44.5 -25.5t-51 -17t-52.5 -6q-27 0 -51 7t-42 22t-29 38.5t-11 57.5q0 37 17.5 76t48.5 70.5t73 51.5t91 20q50 0 70 -20t20 -49q0 -26 -15 -56.5t-38 -56.5t-50 -43.5t-51 -17.5q-25 0 -36 10.5t-11 28.5t15.5 43t40 47.5t55 39
t59.5 16.5v-20zM303 -116q64 0 119.5 27.5t95.5 70t63 94.5t23 102q0 33 -11.5 61.5t-35.5 50.5t-61.5 34.5t-90.5 12.5q-65 0 -120 -27.5t-95 -70t-63 -95t-23 -101.5q0 -33 11.5 -61.5t35.5 -50.5t61.5 -34.5t90.5 -12.5zM303 -136q-58 0 -99.5 14.5t-68 39t-39 57
t-12.5 68.5q0 52 24.5 108t67 101.5t101.5 75t128 29.5q58 0 99.5 -14.5t68 -39t39 -57t12.5 -68.5q0 -53 -24.5 -108.5t-67 -101t-101.5 -75t-128 -29.5z" />
    <glyph glyph-name="ordfeminine" unicode="&#xaa;" horiz-adv-x="516" 
d="M259 238q15 20 32 35q-26 10 -53.5 14.5t-50.5 4.5q-28 0 -57.5 -11.5t-53.5 -32t-39.5 -47t-15.5 -56.5q0 -10 6 -17t23 -7q19 0 46.5 10.5t57 27t57 37.5t48.5 42zM334 280q-14 -7 -31 -22.5t-31.5 -34t-24 -39t-9.5 -36.5q0 -17 12.5 -27t43.5 -10q39 0 75.5 13.5
t72.5 35.5l10 -18q-38 -23 -76.5 -37t-81.5 -14q-42 0 -59 15.5t-17 41.5q0 17 7 34q-22 -17 -46 -31.5t-47.5 -25.5t-44.5 -17.5t-37 -6.5q-27 0 -38 12.5t-11 31.5q0 34 17 64t44 53t60 36.5t65 13.5q26 0 59.5 -6.5t62.5 -18.5l17 11z" />
    <glyph glyph-name="guillemotleft" unicode="&#xab;" horiz-adv-x="764" 
d="M494 261l-329 -120q10 -6 26 -15t35 -20t39.5 -23t40.5 -24q47 -27 100 -58l-10 -18l-277 161l369 135zM709 261l-356 -129q21 -12 58.5 -34t75.5 -44q43 -26 92 -53l-10 -18l-262 152l396 144z" />
    <glyph glyph-name="registered" unicode="&#xae;" horiz-adv-x="684" 
d="M286 141q0 -14 11.5 -22t26.5 -12q-6 15 -14.5 25t-21.5 10q-2 0 -2 -1zM542 40q-29 -22 -58.5 -36.5t-63.5 -14.5q-21 0 -35 8.5t-23.5 22t-16 30t-11.5 32.5q-1 1 -1 3q-19 3 -37 11.5t-26 24.5l-93 -129l-16 12l161 223l16 -12l-39 -54q19 -5 29 -20.5t18 -37.5h11
q28 0 51 7.5t39 19.5t24.5 26.5t8.5 28.5q0 23 -21 39.5t-73 16.5q-21 0 -41 -4t-40.5 -8.5t-41.5 -8.5t-43 -5v20q21 0 41.5 4t40.5 9t41 9t43 4q62 0 88 -23t26 -53q0 -18 -10 -36t-29 -33t-45 -24t-59 -9h-4q4 -13 9.5 -26.5t13.5 -24t18.5 -17t25.5 -6.5q29 0 55.5 13.5
t54.5 33.5zM303 -116q64 0 119.5 27.5t95.5 70t63 94.5t23 102q0 33 -11.5 61.5t-35.5 50.5t-61.5 34.5t-90.5 12.5q-65 0 -120 -27.5t-95 -70t-63 -95t-23 -101.5q0 -33 11.5 -61.5t35.5 -50.5t61.5 -34.5t90.5 -12.5zM303 -136q-58 0 -99.5 14.5t-68 39t-39 57t-12.5 68.5
q0 52 24.5 108t67 101.5t101.5 75t128 29.5q58 0 99.5 -14.5t68 -39t39 -57t12.5 -68.5q0 -53 -24.5 -108.5t-67 -101t-101.5 -75t-128 -29.5z" />
    <glyph glyph-name="macron" unicode="&#xaf;" horiz-adv-x="749" 
d="M168 416l387 -7v-20l-387 7v20z" />
    <glyph glyph-name="degree" unicode="&#xb0;" horiz-adv-x="314" 
d="M176 300q-19 0 -30.5 -14t-11.5 -25q0 -12 12 -12q17 0 30 14t13 25q0 12 -13 12zM180 320q17 0 24 -8t7 -20q0 -10 -5 -21t-14 -20.5t-22 -15.5t-28 -6q-17 0 -25 8t-8 19q0 10 5.5 21.5t15 21t22.5 15.5t28 6z" />
    <glyph glyph-name="plusminus" unicode="&#xb1;" horiz-adv-x="358" 
d="M-65 47l236 -1l-2 -20h-117h-43.5t-38 0.5t-27 0.5h-10.5zM7 214l113 -1l55 99l21 -3l-54 -96h101l-2 -20h-111l-58 -103l-20 2l57 101h-51q-20 0 -36 0.5t-17 0.5z" />
    <glyph glyph-name="twosuperior" unicode="&#xb2;" horiz-adv-x="411" 
d="M128 257q0 -2 9.5 6.5t32.5 35.5q-20 -11 -31 -23.5t-11 -18.5zM22 110q71 0 127 17q-29 10 -58.5 17.5t-58.5 7.5q-27 0 -41.5 -8t-14.5 -17q0 -7 11 -12t35 -5zM398 142q-31 -24 -60 -33t-57 -9q-27 0 -52 4.5t-48 12.5q-33 -13 -72.5 -20t-86.5 -7q-35 0 -50.5 11.5
t-15.5 25.5q0 17 20 31t56 14q35 0 65.5 -8t60.5 -18l12 -4t13 -4q62 24 93.5 60.5t31.5 66.5q0 23 -18 37t-55 14q-17 0 -35 -5l4 -3q-31 -38 -50.5 -52t-30.5 -14q-8 0 -11.5 4.5t-3.5 10.5q0 7 10 20t27 26t40 23t50 10q48 0 70.5 -19.5t22.5 -51.5t-29.5 -69.5
t-86.5 -65.5q17 -5 34.5 -7.5t34.5 -2.5q25 0 51 8t54 30z" />
    <glyph glyph-name="threesuperior" unicode="&#xb3;" horiz-adv-x="428" 
d="M236 268q4 0 13 5t21 17q-16 -4 -26.5 -9.5t-10.5 -10.5q0 -2 3 -2zM38 150q-2 -8 -2 -13q0 -14 9.5 -24t25 -16.5t36 -10t43.5 -3.5q42 0 74 9t53.5 22.5t32 29.5t10.5 29q0 17 -17 23q-14 -5 -28 -7.5t-29 -2.5l-7 15q11 5 25.5 9t28.5 4h6.5t6.5 -1q24 11 39.5 27
t15.5 30q0 11 -12.5 18t-40.5 7q-9 0 -14 -1l4 -2q-19 -23 -35 -32t-27 -9t-17 5.5t-6 13.5t8.5 16t22 14.5t30.5 10.5t34 4q38 0 55.5 -12.5t17.5 -32.5q0 -16 -15.5 -33.5t-41.5 -30.5q16 -11 16 -33q0 -16 -12 -35.5t-35.5 -36t-59 -27.5t-83.5 -11q-27 0 -51.5 4.5
t-43 14t-29.5 23t-11 31.5q0 9 3 20z" />
    <glyph glyph-name="acute" unicode="&#xb4;" horiz-adv-x="749" 
d="M581 456q-27 -38 -67.5 -58t-84.5 -30l-4 20q41 9 78.5 27t61.5 53z" />
    <glyph glyph-name="mu" unicode="&#xb5;" horiz-adv-x="771" 
d="M425 -40q-47 0 -75 18.5t-28 59.5q0 19 7 43t24 53q-37 -33 -75 -59t-74 -44t-68.5 -27.5t-57.5 -9.5q-32 0 -50 14t-18 45q0 21 10 50q-8 -11 -15.5 -21.5t-15.5 -21.5q-50 -67 -105.5 -136.5t-117.5 -126.5t-129.5 -93t-141.5 -36q-39 0 -77 7.5t-70 20.5l8 18
q30 -11 65.5 -18.5t73.5 -7.5q71 0 136 35t124 90.5t113.5 124t104.5 134.5q43 57 82.5 106.5t76.5 83.5l14 -14q-16 -15 -30.5 -30.5t-28.5 -31.5q-30 -44 -43.5 -78t-13.5 -55q0 -20 12.5 -29.5t35.5 -9.5q29 0 69 14t84.5 40t90 62.5t85.5 82.5q3 4 5.5 8t6.5 8l16 -12
q-51 -62 -72 -106t-21 -73q0 -30 22.5 -44t60.5 -14q56 0 108.5 17.5t104 48t103.5 71t107 86.5l14 -16q-57 -47 -110 -88t-106.5 -72t-108 -49t-112.5 -18z" />
    <glyph glyph-name="paragraph" unicode="&#xb6;" horiz-adv-x="678" 
d="M209 -166q48 75 95.5 154t95.5 157q54 89 106 171.5t92 144.5l16 -10q-41 -63 -91 -144t-105 -172q-48 -78 -96.5 -157t-96.5 -154zM152 268q31 0 77 22.5t94.5 54t92 65.5t69.5 57l24 38q-51 14 -95.5 24t-86.5 10q-50 0 -94 -22t-76.5 -54t-51.5 -69t-19 -67
q0 -26 15.5 -42.5t50.5 -16.5zM567 557l-26 -39q35 -9 71 -15t72 -6v-20q-41 0 -79.5 6.5t-75.5 15.5q-105 -164 -205 -333t-210 -339l-16 10q92 141 177 285.5t177 290.5q-33 -26 -73.5 -55t-82 -53.5t-79.5 -40.5t-65 -16q-46 0 -67 21.5t-21 54.5q0 34 20.5 75.5
t55.5 76.5t83 59t104 24q44 0 88.5 -10t105.5 -26l30 46z" />
    <glyph glyph-name="periodcentered" unicode="&#xb7;" horiz-adv-x="496" 
d="M264 179q-18 0 -28.5 -11.5t-10.5 -21.5q0 -13 14 -13q17 0 28 11.5t11 22.5q0 12 -14 12zM268 199q17 0 25 -8.5t8 -19.5q0 -19 -18 -38.5t-48 -19.5q-18 0 -26 8t-8 20q0 19 18.5 38.5t48.5 19.5z" />
    <glyph glyph-name="cedilla" unicode="&#xb8;" horiz-adv-x="553" 
d="M152 -35l-12 -13q13 -4 27 -13.5t14 -32.5q0 -25 -21 -37t-47 -12q-15 0 -30 4t-27 12.5t-19.5 21t-8.5 30.5h20q1 -25 21.5 -36.5t43.5 -11.5q19 0 33.5 7.5t14.5 21.5q0 10 -10 16t-21 10q-13 4 -30 6l38 41z" />
    <glyph glyph-name="onesuperior" unicode="&#xb9;" horiz-adv-x="170" 
d="M181 305q-37 -46 -68 -84q-14 -16 -27 -32.5t-25 -30t-21 -23.5t-14 -14l-12 16q4 3 13 12.5t20.5 23t24.5 29.5l26 32q31 38 67 83z" />
    <glyph glyph-name="ordmasculine" unicode="&#xba;" horiz-adv-x="300" 
d="M51 119q17 0 37.5 9.5t40 26t35.5 38t25 45.5q-16 15 -16 27q0 7 4 13t9 10t10.5 6t7.5 2q5 0 8.5 -3t3.5 -20q0 -33 -17 -64.5t-42.5 -56t-54 -39t-51.5 -14.5q-26 0 -42 16t-16 51q0 31 14.5 58t38 47t53 31.5t59.5 11.5q17 0 31 -3l-4 -20q-14 3 -27 3q-26 0 -52 -10
t-46.5 -27.5t-33.5 -40.5t-13 -50q0 -25 10.5 -36t27.5 -11z" />
    <glyph glyph-name="guillemotright" unicode="&#xbb;" horiz-adv-x="772" 
d="M306 1l329 120q-11 6 -27 15t-35 20t-39.5 23t-40.5 24q-47 27 -99 58l10 18l277 -161l-369 -135zM91 1l356 129q-21 12 -59 33.5t-75 43.5q-44 26 -92 54l10 18l262 -152l-396 -144z" />
    <glyph glyph-name="onequarter" unicode="&#xbc;" horiz-adv-x="633" 
d="M181 305q-37 -46 -68 -84q-14 -16 -27 -32.5t-25 -30t-21 -23.5t-14 -14l-12 16q4 3 13 12.5t20.5 23t24.5 29.5l26 32q31 38 67 83zM354 356q-23 -28 -54 -65t-65 -76.5t-67.5 -78.5t-61.5 -71t-48 -53.5t-26 -26.5l-12 16q6 5 25.5 26.5t47 53t60.5 70t66.5 77.5
t64.5 75.5t54 64.5zM474 186q-11 -15 -23 -32q-11 -14 -23.5 -33t-26.5 -38q20 -4 39.5 -6.5t39.5 -2.5q26 0 52.5 6.5t54.5 21.5l10 -18q-29 -17 -58.5 -23.5t-58.5 -6.5q-24 0 -46.5 3t-44.5 8q-20 -28 -34 -48.5t-16 -24.5l-18 8q2 4 15 24t31 46q-24 5 -47.5 9t-46.5 4
q-29 0 -83 -19l96 119l16 -12l-56 -70q6 1 13.5 1.5t13.5 0.5q27 0 55.5 -5t51.5 -10q14 20 28 39.5t25 35.5l25 35z" />
    <glyph glyph-name="onehalf" unicode="&#xbd;" horiz-adv-x="631" 
d="M325 148q4 0 11.5 7.5t30.5 34.5q-20 -11 -31 -23.5t-11 -18.5zM181 305q-37 -46 -68 -84q-14 -16 -27 -32.5t-25 -30t-21 -23.5t-14 -14l-12 16q4 3 13 12.5t20.5 23t24.5 29.5l26 32q31 38 67 83zM219 1q71 0 127 17q-29 10 -58.5 17.5t-58.5 7.5q-27 0 -41.5 -8
t-14.5 -17q0 -7 11 -12t35 -5zM354 356q-23 -28 -54 -65t-65 -76.5t-67.5 -78.5t-61.5 -71t-48 -53.5t-26 -26.5l-12 16q6 5 25.5 26.5t47 53t60.5 70t66.5 77.5t64.5 75.5t54 64.5zM595 33q-31 -24 -60 -33t-57 -9q-27 0 -52 5t-48 12q-33 -12 -72.5 -19.5t-86.5 -7.5
q-35 0 -50.5 11.5t-15.5 25.5q0 17 20 31t56 14q20 0 40.5 -3.5t40 -9t37.5 -11.5t33 -10q62 24 93.5 60.5t31.5 66.5q0 23 -18 37t-55 14q-17 0 -35 -5l4 -3q-31 -38 -50.5 -52t-30.5 -14q-8 0 -11.5 4.5t-3.5 10.5q0 7 10 20t27 26t40 23t50 10q48 0 70.5 -19.5
t22.5 -51.5t-29.5 -69.5t-86.5 -65.5q17 -5 34.5 -7.5t34.5 -2.5q25 0 51 8t54 30z" />
    <glyph glyph-name="threequarters" unicode="&#xbe;" horiz-adv-x="875" 
d="M236 268q4 0 13 5t21 17q-16 -4 -26.5 -9.5t-10.5 -10.5q0 -2 3 -2zM598 356q-23 -28 -54 -65t-65 -76.5t-67.5 -78.5t-61.5 -71t-48 -53.5t-26 -26.5l-12 16q6 5 25.5 26.5t47 53t60.5 70t66.5 77.5t64.5 75.5t54 64.5zM716 186q-11 -16 -23 -33q-11 -15 -24 -33
t-26 -37q20 -4 39.5 -6.5t39.5 -2.5q26 0 52.5 6.5t54.5 21.5l10 -18q-29 -17 -58.5 -23.5t-58.5 -6.5q-24 0 -46.5 3.5t-44.5 8.5q-20 -28 -34 -49t-16 -25l-18 8q2 4 15 24t31 46q-24 5 -47.5 9t-46.5 4q-29 0 -83 -19l96 119l16 -12l-56 -70q6 1 13.5 1.5t13.5 0.5
q27 0 52 -4.5t51 -9.5q1 -1 4 -1q14 20 28 39.5t25 35.5l25 35zM38 150q-2 -8 -2 -13q0 -14 9.5 -24t25 -16.5t36 -10t43.5 -3.5q42 0 74 9t53.5 22.5t32 29.5t10.5 29q0 17 -17 23q-14 -5 -28 -7.5t-29 -2.5l-7 15q11 5 25.5 9t28.5 4h6.5t6.5 -1q24 11 39.5 27t15.5 30
q0 11 -12.5 18t-40.5 7q-9 0 -14 -1l4 -2q-19 -23 -35 -32t-27 -9t-17 5.5t-6 13.5t8.5 16t22 14.5t30.5 10.5t34 4q38 0 55.5 -12.5t17.5 -32.5q0 -16 -15.5 -33.5t-41.5 -30.5q16 -11 16 -33q0 -16 -12 -35.5t-35.5 -36t-59 -27.5t-83.5 -11q-27 0 -51.5 4.5t-43 14
t-29.5 23t-11 31.5q0 9 3 20z" />
    <glyph glyph-name="questiondown" unicode="&#xbf;" horiz-adv-x="618" 
d="M508 316q-8 0 -9.5 4.5t-1.5 6.5q0 14 13 25.5t30 11.5q8 0 9 -4t1 -6q0 -5 -4 -11.5t-10 -12.5t-13.5 -10t-14.5 -4zM180 -135q15 34 42 63.5t60 51.5t68.5 34.5t66.5 12.5q42 0 70 -24t28 -79q0 -54 -29.5 -100t-75 -79.5t-101 -52t-107.5 -18.5q-36 0 -68.5 9.5
t-57 30t-39 52.5t-14.5 77q0 41 19.5 76t50 66t69.5 58t78 52q24 16 54 38t59.5 47t55 50.5t42.5 48.5l13 -14q-14 -19 -40 -44.5t-56.5 -51.5t-61.5 -50t-56 -40q-39 -24 -76 -49.5t-66 -54t-47 -61t-18 -71.5t12.5 -67.5t34.5 -46.5t50.5 -26.5t61.5 -8.5q49 0 101 17
t94.5 48t70 73t27.5 92q0 45 -22.5 64t-55.5 19q-29 0 -61.5 -11.5t-63 -31.5t-55.5 -47.5t-39 -59.5z" />
    <glyph glyph-name="Agrave" unicode="&#xc0;" 
d="M1082 610q-49 0 -99 -22t-100.5 -59t-101.5 -85t-102 -99q43 -22 77.5 -55t58.5 -74t37.5 -88.5t13.5 -97.5q39 72 81 133.5t80 113.5q28 38 52.5 73t43 68t29.5 63.5t11 58.5q0 32 -23.5 51t-57.5 19zM21 168q0 -5 -0.5 -9.5t-0.5 -9.5q0 -69 36 -108t108 -39
q58 0 116 27.5t115.5 72t115.5 101t115 115.5l19 20q-28 11 -58.5 17.5t-62.5 6.5h-2l2 20q73 0 137 -28q52 54 105 104t105.5 88t105 61t105.5 23q42 0 71.5 -24t29.5 -66q0 -31 -11 -63t-30 -66t-44.5 -70t-54.5 -76q-45 -61 -92 -130.5t-88 -151.5l-7 -41q-2 -1 -6 -2
q-3 -1 -6.5 -1h-6.5q-12 0 -12 8q0 6 7 19t12 23q1 10 1.5 20t0.5 20q0 48 -13 93.5t-36.5 84.5t-57 70.5t-75.5 51.5l-24 -25q-57 -59 -116 -116.5t-119 -103t-120.5 -74t-120.5 -28.5q-82 0 -123 45t-41 124q0 5 0.5 9.5t0.5 9.5zM1090 754q24 -35 61.5 -53t78.5 -27
l-4 -20q-44 10 -84.5 30t-67.5 58z" />
    <glyph glyph-name="Aacute" unicode="&#xc1;" 
d="M1082 610q-49 0 -99 -22t-100.5 -59t-101.5 -85t-102 -99q43 -22 77.5 -55t58.5 -74t37.5 -88.5t13.5 -97.5q39 72 81 133.5t80 113.5q28 38 52.5 73t43 68t29.5 63.5t11 58.5q0 32 -23.5 51t-57.5 19zM21 168q0 -5 -0.5 -9.5t-0.5 -9.5q0 -69 36 -108t108 -39
q58 0 116 27.5t115.5 72t115.5 101t115 115.5l19 20q-28 11 -58.5 17.5t-62.5 6.5h-2l2 20q73 0 137 -28q52 54 105 104t105.5 88t105 61t105.5 23q42 0 71.5 -24t29.5 -66q0 -31 -11 -63t-30 -66t-44.5 -70t-54.5 -76q-45 -61 -92 -130.5t-88 -151.5l-7 -41q-2 -1 -6 -2
q-3 -1 -6.5 -1h-6.5q-12 0 -12 8q0 6 7 19t12 23q1 10 1.5 20t0.5 20q0 48 -13 93.5t-36.5 84.5t-57 70.5t-75.5 51.5l-24 -25q-57 -59 -116 -116.5t-119 -103t-120.5 -74t-120.5 -28.5q-82 0 -123 45t-41 124q0 5 0.5 9.5t0.5 9.5zM1277 764q-27 -38 -67.5 -58t-84.5 -30
l-4 20q41 9 78.5 27t61.5 53z" />
    <glyph glyph-name="Acircumflex" unicode="&#xc2;" 
d="M1082 610q-49 0 -99 -22t-100.5 -59t-101.5 -85t-102 -99q43 -22 77.5 -55t58.5 -74t37.5 -88.5t13.5 -97.5q39 72 81 133.5t80 113.5q28 38 52.5 73t43 68t29.5 63.5t11 58.5q0 32 -23.5 51t-57.5 19zM21 168q0 -5 -0.5 -9.5t-0.5 -9.5q0 -69 36 -108t108 -39
q58 0 116 27.5t115.5 72t115.5 101t115 115.5l19 20q-28 11 -58.5 17.5t-62.5 6.5h-2l2 20q73 0 137 -28q52 54 105 104t105.5 88t105 61t105.5 23q42 0 71.5 -24t29.5 -66q0 -31 -11 -63t-30 -66t-44.5 -70t-54.5 -76q-45 -61 -92 -130.5t-88 -151.5l-7 -41q-2 -1 -6 -2
q-3 -1 -6.5 -1h-6.5q-12 0 -12 8q0 6 7 19t12 23q1 10 1.5 20t0.5 20q0 48 -13 93.5t-36.5 84.5t-57 70.5t-75.5 51.5l-24 -25q-57 -59 -116 -116.5t-119 -103t-120.5 -74t-120.5 -28.5q-82 0 -123 45t-41 124q0 5 0.5 9.5t0.5 9.5zM976 686q31 3 66 14.5t65 24.5
q35 15 70 33l15 -8q2 -18 8 -35q5 -14 16 -29t29 -24l-8 -18q-17 9 -28.5 20t-18 23t-9.5 24.5t-4 23.5q-9 -5 -31 -15.5t-49.5 -21.5t-59 -20t-59.5 -12z" />
    <glyph glyph-name="Atilde" unicode="&#xc3;" 
d="M1370 728q-28 -26 -57 -36t-58 -10q-30 0 -53 6.5t-45.5 14t-46 14t-54.5 6.5t-62 -9.5t-63 -32.5l-12 16q35 26 69 36t68 10q30 0 53.5 -6.5t45.5 -14t46 -14t54 -6.5q26 0 51.5 8.5t49.5 31.5zM1082 610q-49 0 -99 -22t-100.5 -59t-101.5 -85t-102 -99q43 -22 77.5 -55
t58.5 -74t37.5 -88.5t13.5 -97.5q39 72 81 133.5t80 113.5q28 38 52.5 73t43 68t29.5 63.5t11 58.5q0 32 -23.5 51t-57.5 19zM21 168q0 -5 -0.5 -9.5t-0.5 -9.5q0 -69 36 -108t108 -39q58 0 116 27.5t115.5 72t115.5 101t115 115.5l19 20q-28 11 -58.5 17.5t-62.5 6.5h-2
l2 20q73 0 137 -28q52 54 105 104t105.5 88t105 61t105.5 23q42 0 71.5 -24t29.5 -66q0 -31 -11 -63t-30 -66t-44.5 -70t-54.5 -76q-45 -61 -92 -130.5t-88 -151.5l-7 -41q-2 -1 -6 -2q-3 -1 -6.5 -1h-6.5q-12 0 -12 8q0 6 7 19t12 23q1 10 1.5 20t0.5 20q0 48 -13 93.5
t-36.5 84.5t-57 70.5t-75.5 51.5l-24 -25q-57 -59 -116 -116.5t-119 -103t-120.5 -74t-120.5 -28.5q-82 0 -123 45t-41 124q0 5 0.5 9.5t0.5 9.5z" />
    <glyph glyph-name="Adieresis" unicode="&#xc4;" 
d="M1082 610q-49 0 -99 -22t-100.5 -59t-101.5 -85t-102 -99q43 -22 77.5 -55t58.5 -74t37.5 -88.5t13.5 -97.5q39 72 81 133.5t80 113.5q28 38 52.5 73t43 68t29.5 63.5t11 58.5q0 32 -23.5 51t-57.5 19zM21 168q0 -5 -0.5 -9.5t-0.5 -9.5q0 -69 36 -108t108 -39
q58 0 116 27.5t115.5 72t115.5 101t115 115.5l19 20q-28 11 -58.5 17.5t-62.5 6.5h-2l2 20q73 0 137 -28q52 54 105 104t105.5 88t105 61t105.5 23q42 0 71.5 -24t29.5 -66q0 -31 -11 -63t-30 -66t-44.5 -70t-54.5 -76q-45 -61 -92 -130.5t-88 -151.5l-7 -41q-2 -1 -6 -2
q-3 -1 -6.5 -1h-6.5q-12 0 -12 8q0 6 7 19t12 23q1 10 1.5 20t0.5 20q0 48 -13 93.5t-36.5 84.5t-57 70.5t-75.5 51.5l-24 -25q-57 -59 -116 -116.5t-119 -103t-120.5 -74t-120.5 -28.5q-82 0 -123 45t-41 124q0 5 0.5 9.5t0.5 9.5z" />
    <glyph glyph-name="Aring" unicode="&#xc5;" 
d="M1082 610q-49 0 -99 -22t-100.5 -59t-101.5 -85t-102 -99q43 -22 77.5 -55t58.5 -74t37.5 -88.5t13.5 -97.5q39 72 81 133.5t80 113.5q28 38 52.5 73t43 68t29.5 63.5t11 58.5q0 32 -23.5 51t-57.5 19zM21 168q0 -5 -0.5 -9.5t-0.5 -9.5q0 -69 36 -108t108 -39
q58 0 116 27.5t115.5 72t115.5 101t115 115.5l19 20q-28 11 -58.5 17.5t-62.5 6.5h-2l2 20q73 0 137 -28q52 54 105 104t105.5 88t105 61t105.5 23q42 0 71.5 -24t29.5 -66q0 -31 -11 -63t-30 -66t-44.5 -70t-54.5 -76q-45 -61 -92 -130.5t-88 -151.5l-7 -41q-2 -1 -6 -2
q-3 -1 -6.5 -1h-6.5q-12 0 -12 8q0 6 7 19t12 23q1 10 1.5 20t0.5 20q0 48 -13 93.5t-36.5 84.5t-57 70.5t-75.5 51.5l-24 -25q-57 -59 -116 -116.5t-119 -103t-120.5 -74t-120.5 -28.5q-82 0 -123 45t-41 124q0 5 0.5 9.5t0.5 9.5zM1195 725q-18 0 -28.5 -11.5t-10.5 -21.5
q0 -13 14 -13q17 0 28 11.5t11 22.5q0 12 -14 12zM1199 745q17 0 25 -8.5t8 -19.5q0 -19 -18 -38.5t-48 -19.5q-18 0 -26 8t-8 20q0 19 18.5 38.5t48.5 19.5z" />
    <glyph glyph-name="AE" unicode="&#xc6;" horiz-adv-x="1571" 
d="M846 29q0 85 -38 158q-8 -34 -8 -62q0 -34 11 -65t34 -57q0 7 0.5 13t0.5 13zM1103 414q-30 0 -58 -6q5 -44 27 -61.5t47 -17.5q27 0 41.5 12.5t14.5 27.5q0 23 -20 34t-52 11zM679 345q38 -20 69.5 -48t54.5 -63q28 65 85 117.5t137 72.5v2q0 56 21.5 101.5t56.5 80.5
q-5 1 -10 1.5t-11 0.5q-49 0 -99 -22t-100.5 -59t-101.5 -85t-102 -99zM1596 134q-50 -39 -117.5 -78t-141.5 -70.5t-150.5 -51t-145.5 -19.5t-118.5 17t-81 46t-46.5 67t-15 80q0 41 14 86q-23 38 -56 68t-74 50l-24 -25q-57 -59 -116 -116.5t-119 -103t-120.5 -74
t-120.5 -28.5q-82 0 -123 45t-41 124q0 5 0.5 9.5t0.5 9.5l20 -2q0 -5 -0.5 -9.5t-0.5 -9.5q0 -69 36 -108t108 -39q58 0 116 27.5t115.5 72t115.5 101t115 115.5l19 20q-28 11 -58.5 17.5t-62.5 6.5h-2l2 20q73 0 137 -28q52 54 105 104t105.5 88t105 61t105.5 23
q21 0 39 -6q53 45 121.5 67.5t134.5 22.5q42 0 79 -9.5t65.5 -28.5t45 -48t16.5 -68q0 -36 -12 -63t-30.5 -44.5t-41.5 -26t-44 -8.5q-32 0 -56 18.5t-24 53.5q0 15 7 35l18 -6q-2 -8 -3.5 -14.5t-1.5 -14.5q0 -26 17.5 -39t42.5 -13q18 0 37.5 7.5t35 22.5t25.5 38t10 54
q0 34 -15 59.5t-40.5 42t-59 24.5t-71.5 8q-56 0 -114.5 -17t-107 -51t-79.5 -83.5t-31 -114.5q27 6 58 6q41 0 66.5 -15.5t25.5 -49.5q0 -23 -20 -41.5t-56 -18.5q-16 0 -31.5 5t-28 16t-21.5 29.5t-12 44.5q-39 -10 -72 -29t-59.5 -44.5t-46.5 -55.5t-32 -62
q24 -41 37 -87.5t13 -96.5q0 -20 -3 -42q29 -24 73 -38t105 -14q67 0 143 19.5t150.5 51t140 70t111.5 76.5l62 51l14 -16q-17 -14 -33 -27t-33 -26z" />
    <glyph glyph-name="Ccedilla" unicode="&#xc7;" horiz-adv-x="862" 
d="M887 134q-126 -97 -250.5 -143.5t-231.5 -46.5q-28 0 -52.5 2.5t-47.5 7.5l-10 -11q13 -4 27 -13.5t14 -32.5q0 -25 -21 -37t-47 -12q-15 0 -30 4t-27 12.5t-19.5 21t-8.5 30.5h20q1 -25 21.5 -36.5t43.5 -11.5q19 0 33.5 7.5t14.5 21.5q0 10 -10 16t-21 10q-13 4 -30 6
l28 31q-50 14 -86 39t-59 58t-34 73t-11 84q0 56 17 116t49 116.5t77.5 107t101.5 88.5t122 60t140 22q51 0 86 -10.5t57.5 -29.5t32.5 -44.5t10 -55.5q0 -38 -15.5 -81t-41 -85t-59.5 -80.5t-71 -68t-75 -47t-72 -17.5q-45 0 -64.5 18t-19.5 48q0 26 15.5 59.5t42.5 68
t63 68.5t77 60.5t84.5 43.5t86.5 18v-20q-40 -1 -81.5 -17t-80 -41t-73 -56.5t-60 -64t-40 -64t-14.5 -55.5q0 -21 15 -33.5t49 -12.5q32 0 67.5 16.5t70.5 44.5t67 64.5t56 76.5t38.5 80.5t14.5 76.5q0 25 -9 47t-28.5 38.5t-51.5 25.5t-77 9q-70 0 -133.5 -21.5
t-117.5 -57.5t-97.5 -84.5t-74.5 -103t-47.5 -111.5t-16.5 -111q0 -52 16.5 -97.5t51.5 -79.5t90 -54t132 -20q54 0 113.5 12t120.5 36t122 59t118 81l62 51l14 -16q-17 -14 -33 -27t-33 -26z" />
    <glyph glyph-name="Egrave" unicode="&#xc8;" horiz-adv-x="791" 
d="M323 414q-30 0 -58 -6q5 -44 27 -61.5t47 -17.5q27 0 41.5 12.5t14.5 27.5q0 23 -20 34t-52 11zM816 134q-48 -37 -115 -75.5t-142 -70.5t-152 -52.5t-146 -20.5t-118.5 17t-81 46t-46.5 67t-15 80q0 46 17 93.5t49 88.5t77.5 72t101.5 45v2q0 70 32.5 123.5t83.5 90
t113.5 55.5t122.5 19q42 0 79 -9.5t65.5 -28.5t45 -48t16.5 -68q0 -36 -12 -63t-30.5 -44.5t-41.5 -26t-44 -8.5q-32 0 -56 18.5t-24 53.5q0 15 7 35l18 -6q-2 -8 -3.5 -14.5t-1.5 -14.5q0 -26 17.5 -39t42.5 -13q18 0 37.5 7.5t35 22.5t25.5 38t10 54q0 34 -15 59.5
t-40.5 42t-59 24.5t-71.5 8q-56 0 -114.5 -17t-107 -51t-79.5 -83.5t-31 -114.5q27 6 58 6q41 0 66.5 -15.5t25.5 -49.5q0 -23 -20 -41.5t-56 -18.5q-16 0 -31.5 5t-28 16t-21.5 29.5t-12 44.5q-52 -14 -93.5 -43t-71 -67.5t-45.5 -82t-16 -86.5q0 -38 13.5 -72.5t43 -60.5
t75 -41.5t109.5 -15.5q67 0 143 20.5t149.5 52t139.5 70t113 74.5l62 51l14 -16q-17 -14 -33 -27t-33 -26zM575 860q24 -35 61.5 -53t78.5 -27l-4 -20q-44 10 -84.5 30t-67.5 58z" />
    <glyph glyph-name="Eacute" unicode="&#xc9;" horiz-adv-x="791" 
d="M323 414q-30 0 -58 -6q5 -44 27 -61.5t47 -17.5q27 0 41.5 12.5t14.5 27.5q0 23 -20 34t-52 11zM816 134q-48 -37 -115 -75.5t-142 -70.5t-152 -52.5t-146 -20.5t-118.5 17t-81 46t-46.5 67t-15 80q0 46 17 93.5t49 88.5t77.5 72t101.5 45v2q0 70 32.5 123.5t83.5 90
t113.5 55.5t122.5 19q42 0 79 -9.5t65.5 -28.5t45 -48t16.5 -68q0 -36 -12 -63t-30.5 -44.5t-41.5 -26t-44 -8.5q-32 0 -56 18.5t-24 53.5q0 15 7 35l18 -6q-2 -8 -3.5 -14.5t-1.5 -14.5q0 -26 17.5 -39t42.5 -13q18 0 37.5 7.5t35 22.5t25.5 38t10 54q0 34 -15 59.5
t-40.5 42t-59 24.5t-71.5 8q-56 0 -114.5 -17t-107 -51t-79.5 -83.5t-31 -114.5q27 6 58 6q41 0 66.5 -15.5t25.5 -49.5q0 -23 -20 -41.5t-56 -18.5q-16 0 -31.5 5t-28 16t-21.5 29.5t-12 44.5q-52 -14 -93.5 -43t-71 -67.5t-45.5 -82t-16 -86.5q0 -38 13.5 -72.5t43 -60.5
t75 -41.5t109.5 -15.5q67 0 143 20.5t149.5 52t139.5 70t113 74.5l62 51l14 -16q-17 -14 -33 -27t-33 -26zM800 848q-27 -38 -67.5 -58t-84.5 -30l-4 20q41 9 78.5 27t61.5 53z" />
    <glyph glyph-name="Ecircumflex" unicode="&#xca;" horiz-adv-x="791" 
d="M323 414q-30 0 -58 -6q5 -44 27 -61.5t47 -17.5q27 0 41.5 12.5t14.5 27.5q0 23 -20 34t-52 11zM816 134q-48 -37 -115 -75.5t-142 -70.5t-152 -52.5t-146 -20.5t-118.5 17t-81 46t-46.5 67t-15 80q0 46 17 93.5t49 88.5t77.5 72t101.5 45v2q0 70 32.5 123.5t83.5 90
t113.5 55.5t122.5 19q42 0 79 -9.5t65.5 -28.5t45 -48t16.5 -68q0 -36 -12 -63t-30.5 -44.5t-41.5 -26t-44 -8.5q-32 0 -56 18.5t-24 53.5q0 15 7 35l18 -6q-2 -8 -3.5 -14.5t-1.5 -14.5q0 -26 17.5 -39t42.5 -13q18 0 37.5 7.5t35 22.5t25.5 38t10 54q0 34 -15 59.5
t-40.5 42t-59 24.5t-71.5 8q-56 0 -114.5 -17t-107 -51t-79.5 -83.5t-31 -114.5q27 6 58 6q41 0 66.5 -15.5t25.5 -49.5q0 -23 -20 -41.5t-56 -18.5q-16 0 -31.5 5t-28 16t-21.5 29.5t-12 44.5q-52 -14 -93.5 -43t-71 -67.5t-45.5 -82t-16 -86.5q0 -38 13.5 -72.5t43 -60.5
t75 -41.5t109.5 -15.5q67 0 143 20.5t149.5 52t139.5 70t113 74.5l62 51l14 -16q-17 -14 -33 -27t-33 -26zM494 776q31 3 66 14.5t65 24.5q35 15 70 33l15 -8q2 -18 8 -35q5 -14 16 -29t29 -24l-8 -18q-17 9 -28.5 20t-18 23t-9.5 24.5t-4 23.5q-9 -5 -31 -15.5t-49.5 -21.5
t-59 -20t-59.5 -12z" />
    <glyph glyph-name="Edieresis" unicode="&#xcb;" horiz-adv-x="791" 
d="M323 414q-30 0 -58 -6q5 -44 27 -61.5t47 -17.5q27 0 41.5 12.5t14.5 27.5q0 23 -20 34t-52 11zM816 134q-48 -37 -115 -75.5t-142 -70.5t-152 -52.5t-146 -20.5t-118.5 17t-81 46t-46.5 67t-15 80q0 46 17 93.5t49 88.5t77.5 72t101.5 45v2q0 70 32.5 123.5t83.5 90
t113.5 55.5t122.5 19q42 0 79 -9.5t65.5 -28.5t45 -48t16.5 -68q0 -36 -12 -63t-30.5 -44.5t-41.5 -26t-44 -8.5q-32 0 -56 18.5t-24 53.5q0 15 7 35l18 -6q-2 -8 -3.5 -14.5t-1.5 -14.5q0 -26 17.5 -39t42.5 -13q18 0 37.5 7.5t35 22.5t25.5 38t10 54q0 34 -15 59.5
t-40.5 42t-59 24.5t-71.5 8q-56 0 -114.5 -17t-107 -51t-79.5 -83.5t-31 -114.5q27 6 58 6q41 0 66.5 -15.5t25.5 -49.5q0 -23 -20 -41.5t-56 -18.5q-16 0 -31.5 5t-28 16t-21.5 29.5t-12 44.5q-52 -14 -93.5 -43t-71 -67.5t-45.5 -82t-16 -86.5q0 -38 13.5 -72.5t43 -60.5
t75 -41.5t109.5 -15.5q67 0 143 20.5t149.5 52t139.5 70t113 74.5l62 51l14 -16q-17 -14 -33 -27t-33 -26z" />
    <glyph glyph-name="Igrave" unicode="&#xcc;" horiz-adv-x="805" 
d="M429 79q0 -34 3 -65q60 33 116 75.5t105.5 90.5t90.5 98.5t70 98.5t45.5 91.5t16.5 77.5t-19.5 53.5t-64.5 19.5q-52 0 -99.5 -23t-88 -62.5t-73 -93t-55 -113.5t-35 -123.5t-12.5 -124.5zM9 112q-5 -17 -6.5 -31t-1.5 -25q0 -33 13.5 -56t37 -37t54 -20t64.5 -6
q60 0 122 18t122 49q-3 18 -4 36.5t-1 38.5q0 63 13 129.5t37 128.5t58 117t77 96t92.5 65t105.5 24q55 0 79.5 -25t24.5 -68q0 -35 -17 -80t-47.5 -95.5t-73 -103t-93.5 -102t-109.5 -94t-120.5 -77.5q9 -54 31.5 -99t58.5 -76l-12 -16q-38 33 -61.5 79.5t-34.5 102.5
q-61 -32 -123.5 -50t-123.5 -18q-38 0 -72 7t-60 23t-41.5 43t-15.5 66q0 14 1.5 29.5t6.5 32.5zM750 782q24 -35 61.5 -53t78.5 -27l-4 -20q-44 10 -84.5 30t-67.5 58z" />
    <glyph glyph-name="Iacute" unicode="&#xcd;" horiz-adv-x="805" 
d="M429 79q0 -34 3 -65q60 33 116 75.5t105.5 90.5t90.5 98.5t70 98.5t45.5 91.5t16.5 77.5t-19.5 53.5t-64.5 19.5q-52 0 -99.5 -23t-88 -62.5t-73 -93t-55 -113.5t-35 -123.5t-12.5 -124.5zM9 112q-5 -17 -6.5 -31t-1.5 -25q0 -33 13.5 -56t37 -37t54 -20t64.5 -6
q60 0 122 18t122 49q-3 18 -4 36.5t-1 38.5q0 63 13 129.5t37 128.5t58 117t77 96t92.5 65t105.5 24q55 0 79.5 -25t24.5 -68q0 -35 -17 -80t-47.5 -95.5t-73 -103t-93.5 -102t-109.5 -94t-120.5 -77.5q9 -54 31.5 -99t58.5 -76l-12 -16q-38 33 -61.5 79.5t-34.5 102.5
q-61 -32 -123.5 -50t-123.5 -18q-38 0 -72 7t-60 23t-41.5 43t-15.5 66q0 14 1.5 29.5t6.5 32.5zM930 777q-27 -38 -67.5 -58t-84.5 -30l-4 20q41 9 78.5 27t61.5 53z" />
    <glyph glyph-name="Icircumflex" unicode="&#xce;" horiz-adv-x="805" 
d="M429 79q0 -34 3 -65q60 33 116 75.5t105.5 90.5t90.5 98.5t70 98.5t45.5 91.5t16.5 77.5t-19.5 53.5t-64.5 19.5q-52 0 -99.5 -23t-88 -62.5t-73 -93t-55 -113.5t-35 -123.5t-12.5 -124.5zM9 112q-5 -17 -6.5 -31t-1.5 -25q0 -33 13.5 -56t37 -37t54 -20t64.5 -6
q60 0 122 18t122 49q-3 18 -4 36.5t-1 38.5q0 63 13 129.5t37 128.5t58 117t77 96t92.5 65t105.5 24q55 0 79.5 -25t24.5 -68q0 -35 -17 -80t-47.5 -95.5t-73 -103t-93.5 -102t-109.5 -94t-120.5 -77.5q9 -54 31.5 -99t58.5 -76l-12 -16q-38 33 -61.5 79.5t-34.5 102.5
q-61 -32 -123.5 -50t-123.5 -18q-38 0 -72 7t-60 23t-41.5 43t-15.5 66q0 14 1.5 29.5t6.5 32.5z" />
    <glyph glyph-name="Idieresis" unicode="&#xcf;" horiz-adv-x="805" 
d="M429 79q0 -34 3 -65q60 33 116 75.5t105.5 90.5t90.5 98.5t70 98.5t45.5 91.5t16.5 77.5t-19.5 53.5t-64.5 19.5q-52 0 -99.5 -23t-88 -62.5t-73 -93t-55 -113.5t-35 -123.5t-12.5 -124.5zM9 112q-5 -17 -6.5 -31t-1.5 -25q0 -33 13.5 -56t37 -37t54 -20t64.5 -6
q60 0 122 18t122 49q-3 18 -4 36.5t-1 38.5q0 63 13 129.5t37 128.5t58 117t77 96t92.5 65t105.5 24q55 0 79.5 -25t24.5 -68q0 -35 -17 -80t-47.5 -95.5t-73 -103t-93.5 -102t-109.5 -94t-120.5 -77.5q9 -54 31.5 -99t58.5 -76l-12 -16q-38 33 -61.5 79.5t-34.5 102.5
q-61 -32 -123.5 -50t-123.5 -18q-38 0 -72 7t-60 23t-41.5 43t-15.5 66q0 14 1.5 29.5t6.5 32.5zM898 743q8 0 9.5 -4.5t1.5 -6.5q0 -14 -13 -25.5t-30 -11.5q-8 0 -9 4t-1 6q0 5 3.5 11.5t9.5 12.5t13.5 10t15.5 4zM764 743q8 0 9.5 -4.5t1.5 -6.5q0 -14 -13 -25.5
t-30 -11.5q-8 0 -9 4t-1 6q0 5 3.5 11.5t9.5 12.5t13.5 10t15.5 4z" />
    <glyph glyph-name="Eth" unicode="&#xd0;" horiz-adv-x="971" 
d="M240 385l-83 -129l120 -7l-2 -20l-131 8l-114 -177q18 10 36.5 14t37.5 4q45 0 87.5 -14.5t85 -32.5t86 -32.5t91.5 -14.5q99 0 182 38t142.5 97t93 130.5t33.5 139.5q0 44 -15.5 82.5t-48.5 67.5t-84.5 46t-123.5 17q-74 0 -131 -20t-96 -51.5t-59 -70t-20 -76.5
q0 -28 11.5 -53.5t35.5 -45t60.5 -31t85.5 -11.5t101.5 15.5t103.5 49.5l10 -16q-54 -35 -109 -52t-106 -17q-54 0 -94.5 13t-66.5 35.5t-39 51.5t-13 61q0 42 21.5 84t63 76.5t102 56t139.5 21.5q77 0 132.5 -18.5t91 -50.5t52 -74t16.5 -90q0 -47 -15.5 -97t-45 -97
t-71.5 -89t-94.5 -73.5t-114 -50t-130.5 -18.5q-47 0 -91 14.5t-86.5 32.5t-85.5 32.5t-87 14.5q-26 0 -54 -13t-54 -39l-24 -36q-3 2 -7 6q-8 8 -7 14q1 8 11.5 19t18.5 19l135 210l-84 6l2 20l95 -6l88 137z" />
    <glyph glyph-name="Ntilde" unicode="&#xd1;" horiz-adv-x="967" 
d="M329 500q-15 -42 -50 -77.5t-79.5 -60.5t-94 -39t-93.5 -14q-57 0 -96 25t-39 80q0 38 20.5 73t55.5 65t81.5 54t99 41.5t108 27t107.5 9.5t99 -10.5t82 -32.5t55.5 -56.5t20.5 -82.5t-26.5 -106.5t-67.5 -119.5q65 57 122.5 96t106 63t87 34.5t67.5 10.5q36 0 56.5 -14
t20.5 -39q0 -23 -27.5 -64.5t-66.5 -95.5q-33 -45 -69.5 -98t-67 -107.5t-50.5 -109.5t-20 -104q0 -38 13.5 -72.5t45.5 -63.5l-14 -14q-35 32 -50 70t-15 80q0 53 20.5 109.5t51.5 112.5t68 109.5t71 99.5q38 52 64 91t26 57q0 16 -15 24.5t-42 8.5t-63.5 -10t-81 -31
t-95 -55t-104.5 -82q-27 -24 -51.5 -46t-46.5 -42q-33 -42 -66.5 -80t-64 -69.5t-55.5 -54.5t-40 -34l-18 2q12 22 31 46.5t47.5 55t67.5 68.5t92 89q28 37 53.5 75t44.5 74.5t30 71t11 64.5q0 43 -19 74t-51 50.5t-75 28.5t-92 9q-50 0 -103 -9t-103.5 -25t-95 -38.5
t-78 -50.5t-53 -60t-19.5 -67q0 -44 33.5 -64.5t81.5 -20.5q42 0 88.5 13t88.5 36t75 56t47 72z" />
    <glyph glyph-name="Ograve" unicode="&#xd2;" horiz-adv-x="884" 
d="M695 653q-62 18 -124 18q-64 0 -128.5 -16.5t-124 -46.5t-111 -72.5t-89.5 -94.5t-60 -112.5t-22 -126.5q0 -51 17 -96.5t53 -79.5t90.5 -54t129.5 -20q108 0 196 41.5t150.5 105.5t96.5 139.5t34 143.5q0 37 -11.5 69.5t-35 56.5t-60 37.5t-87.5 13.5q-49 0 -101 -17
t-94.5 -47.5t-70 -73.5t-27.5 -95q0 -27 10 -47t26.5 -33t39 -19.5t47.5 -6.5q49 0 100 23t84 67l16 -12q-18 -24 -41.5 -42.5t-50 -31t-54 -18.5t-54.5 -6q-29 0 -55 7.5t-45.5 23t-31 39.5t-11.5 56q0 57 29.5 103.5t75 79.5t101 51.5t107.5 18.5q56 0 96.5 -15
t66.5 -41.5t38.5 -62.5t12.5 -78q0 -47 -16 -99t-46 -102t-74 -95t-99 -79.5t-121 -54.5t-141 -20q-80 0 -138.5 21.5t-96.5 58.5t-56.5 86t-18.5 104q0 69 22.5 132t62 117.5t93 98.5t115 75.5t128.5 48.5t134 17q68 0 130 -18zM581 835q24 -35 61.5 -53t78.5 -27l-4 -20
q-44 10 -84.5 30t-67.5 58z" />
    <glyph glyph-name="Oacute" unicode="&#xd3;" horiz-adv-x="884" 
d="M695 653q-62 18 -124 18q-64 0 -128.5 -16.5t-124 -46.5t-111 -72.5t-89.5 -94.5t-60 -112.5t-22 -126.5q0 -51 17 -96.5t53 -79.5t90.5 -54t129.5 -20q108 0 196 41.5t150.5 105.5t96.5 139.5t34 143.5q0 37 -11.5 69.5t-35 56.5t-60 37.5t-87.5 13.5q-49 0 -101 -17
t-94.5 -47.5t-70 -73.5t-27.5 -95q0 -27 10 -47t26.5 -33t39 -19.5t47.5 -6.5q49 0 100 23t84 67l16 -12q-18 -24 -41.5 -42.5t-50 -31t-54 -18.5t-54.5 -6q-29 0 -55 7.5t-45.5 23t-31 39.5t-11.5 56q0 57 29.5 103.5t75 79.5t101 51.5t107.5 18.5q56 0 96.5 -15
t66.5 -41.5t38.5 -62.5t12.5 -78q0 -47 -16 -99t-46 -102t-74 -95t-99 -79.5t-121 -54.5t-141 -20q-80 0 -138.5 21.5t-96.5 58.5t-56.5 86t-18.5 104q0 69 22.5 132t62 117.5t93 98.5t115 75.5t128.5 48.5t134 17q68 0 130 -18zM758 841q-27 -38 -67.5 -58t-84.5 -30l-4 20
q41 9 78.5 27t61.5 53z" />
    <glyph glyph-name="Ocircumflex" unicode="&#xd4;" horiz-adv-x="884" 
d="M695 653q-62 18 -124 18q-64 0 -128.5 -16.5t-124 -46.5t-111 -72.5t-89.5 -94.5t-60 -112.5t-22 -126.5q0 -51 17 -96.5t53 -79.5t90.5 -54t129.5 -20q108 0 196 41.5t150.5 105.5t96.5 139.5t34 143.5q0 37 -11.5 69.5t-35 56.5t-60 37.5t-87.5 13.5q-49 0 -101 -17
t-94.5 -47.5t-70 -73.5t-27.5 -95q0 -27 10 -47t26.5 -33t39 -19.5t47.5 -6.5q49 0 100 23t84 67l16 -12q-18 -24 -41.5 -42.5t-50 -31t-54 -18.5t-54.5 -6q-29 0 -55 7.5t-45.5 23t-31 39.5t-11.5 56q0 57 29.5 103.5t75 79.5t101 51.5t107.5 18.5q56 0 96.5 -15
t66.5 -41.5t38.5 -62.5t12.5 -78q0 -47 -16 -99t-46 -102t-74 -95t-99 -79.5t-121 -54.5t-141 -20q-80 0 -138.5 21.5t-96.5 58.5t-56.5 86t-18.5 104q0 69 22.5 132t62 117.5t93 98.5t115 75.5t128.5 48.5t134 17q68 0 130 -18zM500 769q31 3 66 14.5t65 24.5q35 15 70 33
l15 -8q2 -18 8 -35q5 -14 16 -29t29 -24l-8 -18q-17 9 -28.5 20t-18 23t-9.5 24.5t-4 23.5q-9 -5 -31 -15.5t-49.5 -21.5t-59 -20t-59.5 -12z" />
    <glyph glyph-name="Otilde" unicode="&#xd5;" horiz-adv-x="884" 
d="M695 653q-62 18 -124 18q-64 0 -128.5 -16.5t-124 -46.5t-111 -72.5t-89.5 -94.5t-60 -112.5t-22 -126.5q0 -51 17 -96.5t53 -79.5t90.5 -54t129.5 -20q108 0 196 41.5t150.5 105.5t96.5 139.5t34 143.5q0 37 -11.5 69.5t-35 56.5t-60 37.5t-87.5 13.5q-49 0 -101 -17
t-94.5 -47.5t-70 -73.5t-27.5 -95q0 -27 10 -47t26.5 -33t39 -19.5t47.5 -6.5q49 0 100 23t84 67l16 -12q-18 -24 -41.5 -42.5t-50 -31t-54 -18.5t-54.5 -6q-29 0 -55 7.5t-45.5 23t-31 39.5t-11.5 56q0 57 29.5 103.5t75 79.5t101 51.5t107.5 18.5q56 0 96.5 -15
t66.5 -41.5t38.5 -62.5t12.5 -78q0 -47 -16 -99t-46 -102t-74 -95t-99 -79.5t-121 -54.5t-141 -20q-80 0 -138.5 21.5t-96.5 58.5t-56.5 86t-18.5 104q0 69 22.5 132t62 117.5t93 98.5t115 75.5t128.5 48.5t134 17q68 0 130 -18zM883 784q-28 -26 -57 -36t-58 -10
q-30 0 -58.5 6.5t-57.5 14.5t-58.5 14.5t-60.5 6.5t-62 -9.5t-63 -32.5l-12 16q35 26 69 36t68 10q30 0 59 -6.5t58 -14.5t58.5 -14.5t59.5 -6.5q26 0 51.5 8.5t49.5 31.5z" />
    <glyph glyph-name="Odieresis" unicode="&#xd6;" horiz-adv-x="884" 
d="M695 653q-62 18 -124 18q-64 0 -128.5 -16.5t-124 -46.5t-111 -72.5t-89.5 -94.5t-60 -112.5t-22 -126.5q0 -51 17 -96.5t53 -79.5t90.5 -54t129.5 -20q108 0 196 41.5t150.5 105.5t96.5 139.5t34 143.5q0 37 -11.5 69.5t-35 56.5t-60 37.5t-87.5 13.5q-49 0 -101 -17
t-94.5 -47.5t-70 -73.5t-27.5 -95q0 -27 10 -47t26.5 -33t39 -19.5t47.5 -6.5q49 0 100 23t84 67l16 -12q-18 -24 -41.5 -42.5t-50 -31t-54 -18.5t-54.5 -6q-29 0 -55 7.5t-45.5 23t-31 39.5t-11.5 56q0 57 29.5 103.5t75 79.5t101 51.5t107.5 18.5q56 0 96.5 -15
t66.5 -41.5t38.5 -62.5t12.5 -78q0 -47 -16 -99t-46 -102t-74 -95t-99 -79.5t-121 -54.5t-141 -20q-80 0 -138.5 21.5t-96.5 58.5t-56.5 86t-18.5 104q0 69 22.5 132t62 117.5t93 98.5t115 75.5t128.5 48.5t134 17q68 0 130 -18zM693 798q8 0 9.5 -4.5t1.5 -6.5
q0 -14 -13 -25.5t-30 -11.5q-8 0 -9 4t-1 6q0 5 3.5 11.5t9.5 12.5t13.5 10t15.5 4zM559 798q8 0 9.5 -4.5t1.5 -6.5q0 -14 -13 -25.5t-30 -11.5q-8 0 -9 4t-1 6q0 5 3.5 11.5t9.5 12.5t13.5 10t15.5 4z" />
    <glyph glyph-name="multiply" unicode="&#xd7;" horiz-adv-x="397" 
d="M76 243l70 -91l136 90l12 -16l-136 -90l75 -96l-16 -12l-76 97l-116 -77l-12 16l116 77l-69 90z" />
    <glyph glyph-name="Oslash" unicode="&#xd8;" horiz-adv-x="884" 
d="M380 230q73 95 135.5 177t118.5 151q-6 0 -12.5 0.5t-12.5 0.5q-49 0 -101 -17t-94.5 -47.5t-70 -73.5t-27.5 -95q0 -38 17.5 -61.5t46.5 -34.5zM388 206q-53 -69 -100 -129.5t-85 -106.5q52 -18 123 -18q108 0 196 41.5t150.5 105.5t96.5 139.5t34 143.5q0 32 -8.5 61
t-26.5 52t-46 38.5t-66 21.5q-55 -68 -119 -151t-136 -180q16 -4 38 -4q49 0 100 23t84 67l16 -12q-18 -24 -41.5 -42.5t-50 -31t-54 -18.5t-54.5 -6t-51 6zM695 653q-62 18 -124 18q-64 0 -128.5 -16.5t-124 -46.5t-111 -72.5t-89.5 -94.5t-60 -112.5t-22 -126.5
q0 -75 35.5 -135t111.5 -90q38 46 86 108t99 128q-32 14 -52 41.5t-20 71.5q0 57 29.5 103.5t75 79.5t101 51.5t107.5 18.5q20 0 40 -3q50 60 90.5 103t66.5 59l10 -18q-25 -15 -62.5 -54t-82.5 -93q79 -16 115.5 -68t36.5 -123q0 -47 -16 -99t-46 -102t-74 -95t-99 -79.5
t-121 -54.5t-141 -20q-40 0 -74 5.5t-63 15.5q-26 -29 -45.5 -49t-31.5 -28l-10 18q11 6 27.5 23.5t39.5 43.5q-79 33 -116 97.5t-37 143.5q0 69 22.5 132t62 117.5t93 98.5t115 75.5t128.5 48.5t134 17q68 0 130 -18z" />
    <glyph glyph-name="Ugrave" unicode="&#xd9;" horiz-adv-x="1122" 
d="M1010 246q-45 0 -92 -23t-87.5 -61.5t-71 -89t-42.5 -104.5q23 1 58 10.5t73.5 25.5t77 37.5t69.5 47.5t50 56t19 62q0 21 -15.5 30t-38.5 9zM10 705q14 -25 38 -34t53 -9q30 0 63.5 7t66 15.5t62.5 15.5t53 7q30 0 57 -8.5t46.5 -25t31 -41t11.5 -55.5q0 -33 -16.5 -68
t-43.5 -70.5t-61 -71.5t-69 -71q-32 -33 -63 -65t-55 -63t-39 -60t-15 -56q0 -34 14.5 -47t35.5 -13q51 0 108 31.5t116.5 81t119 111.5t115.5 123l76 83q35 43 68 74.5t57 45.5l11 -17q-33 -29 -61 -56t-60 -61q-31 -37 -60.5 -79.5t-52.5 -86.5t-37 -87t-14 -79
q0 -46 29.5 -75.5t101.5 -32.5q12 58 44.5 112t76 95t93.5 66t99 25q32 0 53 -13.5t21 -45.5q0 -35 -21 -68t-54.5 -61.5t-75 -52t-83 -40.5t-78 -26.5t-59.5 -10.5q-3 -21 -3 -43q0 -64 32 -119l-18 -10q-18 30 -26 62.5t-8 66.5q0 21 3 44q-80 3 -113.5 38t-33.5 89
q0 48 22 104t56 113q-55 -60 -111.5 -117.5t-113.5 -102.5t-112 -73t-107 -28q-30 0 -50 17t-20 63q0 30 15 61t40 63.5t57 66t66 67.5t67 69t59 68.5t42 66.5t16 63q0 27 -10 47.5t-27 34.5t-40 21t-49 7q-23 0 -52.5 -7t-62 -15t-66 -15t-64.5 -7q-33 0 -61.5 11.5
t-47.5 40.5zM622 738q24 -35 61.5 -53t78.5 -27l-4 -20q-44 10 -84.5 30t-67.5 58z" />
    <glyph glyph-name="Uacute" unicode="&#xda;" horiz-adv-x="1122" 
d="M1010 246q-45 0 -92 -23t-87.5 -61.5t-71 -89t-42.5 -104.5q23 1 58 10.5t73.5 25.5t77 37.5t69.5 47.5t50 56t19 62q0 21 -15.5 30t-38.5 9zM10 705q14 -25 38 -34t53 -9q30 0 63.5 7t66 15.5t62.5 15.5t53 7q30 0 57 -8.5t46.5 -25t31 -41t11.5 -55.5q0 -33 -16.5 -68
t-43.5 -70.5t-61 -71.5t-69 -71q-32 -33 -63 -65t-55 -63t-39 -60t-15 -56q0 -34 14.5 -47t35.5 -13q51 0 108 31.5t116.5 81t119 111.5t115.5 123l76 83q35 43 68 74.5t57 45.5l11 -17q-33 -29 -61 -56t-60 -61q-31 -37 -60.5 -79.5t-52.5 -86.5t-37 -87t-14 -79
q0 -46 29.5 -75.5t101.5 -32.5q12 58 44.5 112t76 95t93.5 66t99 25q32 0 53 -13.5t21 -45.5q0 -35 -21 -68t-54.5 -61.5t-75 -52t-83 -40.5t-78 -26.5t-59.5 -10.5q-3 -21 -3 -43q0 -64 32 -119l-18 -10q-18 30 -26 62.5t-8 66.5q0 21 3 44q-80 3 -113.5 38t-33.5 89
q0 48 22 104t56 113q-55 -60 -111.5 -117.5t-113.5 -102.5t-112 -73t-107 -28q-30 0 -50 17t-20 63q0 30 15 61t40 63.5t57 66t66 67.5t67 69t59 68.5t42 66.5t16 63q0 27 -10 47.5t-27 34.5t-40 21t-49 7q-23 0 -52.5 -7t-62 -15t-66 -15t-64.5 -7q-33 0 -61.5 11.5
t-47.5 40.5zM817 732q-27 -38 -67.5 -58t-84.5 -30l-4 20q41 9 78.5 27t61.5 53z" />
    <glyph glyph-name="Ucircumflex" unicode="&#xdb;" horiz-adv-x="1122" 
d="M1010 246q-45 0 -92 -23t-87.5 -61.5t-71 -89t-42.5 -104.5q23 1 58 10.5t73.5 25.5t77 37.5t69.5 47.5t50 56t19 62q0 21 -15.5 30t-38.5 9zM10 705q14 -25 38 -34t53 -9q30 0 63.5 7t66 15.5t62.5 15.5t53 7q30 0 57 -8.5t46.5 -25t31 -41t11.5 -55.5q0 -33 -16.5 -68
t-43.5 -70.5t-61 -71.5t-69 -71q-32 -33 -63 -65t-55 -63t-39 -60t-15 -56q0 -34 14.5 -47t35.5 -13q51 0 108 31.5t116.5 81t119 111.5t115.5 123l76 83q35 43 68 74.5t57 45.5l11 -17q-33 -29 -61 -56t-60 -61q-31 -37 -60.5 -79.5t-52.5 -86.5t-37 -87t-14 -79
q0 -46 29.5 -75.5t101.5 -32.5q12 58 44.5 112t76 95t93.5 66t99 25q32 0 53 -13.5t21 -45.5q0 -35 -21 -68t-54.5 -61.5t-75 -52t-83 -40.5t-78 -26.5t-59.5 -10.5q-3 -21 -3 -43q0 -64 32 -119l-18 -10q-18 30 -26 62.5t-8 66.5q0 21 3 44q-80 3 -113.5 38t-33.5 89
q0 48 22 104t56 113q-55 -60 -111.5 -117.5t-113.5 -102.5t-112 -73t-107 -28q-30 0 -50 17t-20 63q0 30 15 61t40 63.5t57 66t66 67.5t67 69t59 68.5t42 66.5t16 63q0 27 -10 47.5t-27 34.5t-40 21t-49 7q-23 0 -52.5 -7t-62 -15t-66 -15t-64.5 -7q-33 0 -61.5 11.5
t-47.5 40.5z" />
    <glyph glyph-name="Udieresis" unicode="&#xdc;" horiz-adv-x="1122" 
d="M1010 246q-45 0 -92 -23t-87.5 -61.5t-71 -89t-42.5 -104.5q23 1 58 10.5t73.5 25.5t77 37.5t69.5 47.5t50 56t19 62q0 21 -15.5 30t-38.5 9zM10 705q14 -25 38 -34t53 -9q30 0 63.5 7t66 15.5t62.5 15.5t53 7q30 0 57 -8.5t46.5 -25t31 -41t11.5 -55.5q0 -33 -16.5 -68
t-43.5 -70.5t-61 -71.5t-69 -71q-32 -33 -63 -65t-55 -63t-39 -60t-15 -56q0 -34 14.5 -47t35.5 -13q51 0 108 31.5t116.5 81t119 111.5t115.5 123l76 83q35 43 68 74.5t57 45.5l11 -17q-33 -29 -61 -56t-60 -61q-31 -37 -60.5 -79.5t-52.5 -86.5t-37 -87t-14 -79
q0 -46 29.5 -75.5t101.5 -32.5q12 58 44.5 112t76 95t93.5 66t99 25q32 0 53 -13.5t21 -45.5q0 -35 -21 -68t-54.5 -61.5t-75 -52t-83 -40.5t-78 -26.5t-59.5 -10.5q-3 -21 -3 -43q0 -64 32 -119l-18 -10q-18 30 -26 62.5t-8 66.5q0 21 3 44q-80 3 -113.5 38t-33.5 89
q0 48 22 104t56 113q-55 -60 -111.5 -117.5t-113.5 -102.5t-112 -73t-107 -28q-30 0 -50 17t-20 63q0 30 15 61t40 63.5t57 66t66 67.5t67 69t59 68.5t42 66.5t16 63q0 27 -10 47.5t-27 34.5t-40 21t-49 7q-23 0 -52.5 -7t-62 -15t-66 -15t-64.5 -7q-33 0 -61.5 11.5
t-47.5 40.5z" />
    <glyph glyph-name="Yacute" unicode="&#xdd;" horiz-adv-x="1224" 
d="M495 413q-17 -33 -60.5 -68.5t-98.5 -64.5t-114.5 -47.5t-107.5 -18.5q-50 0 -82 22.5t-32 75.5q0 46 24 89t65 80.5t95 68.5t113.5 53t121 34.5t118.5 12.5q49 0 92 -10t75 -31.5t50 -55t18 -80.5q0 -48 -19 -91.5t-49 -81.5t-65.5 -71.5t-68.5 -61.5q-58 -49 -92 -95
t-34 -79q0 -30 20.5 -44t56.5 -14q37 0 85.5 12.5t104 36t115.5 57t119 74t115.5 88t104.5 99.5l15 -13q-143 -173 -261 -314q-50 -60 -100 -118.5t-92 -106.5t-72.5 -80.5t-42.5 -40.5l-12 16q8 5 32 31t58 64.5t75 86t83 96.5q98 114 216 257q-70 -59 -146 -107.5
t-149 -83.5t-137.5 -54.5t-110.5 -19.5q-45 0 -71 18.5t-26 59.5q0 38 36.5 87.5t97.5 102.5q32 27 66 59t62.5 68.5t47 77t18.5 85.5q0 42 -16.5 72t-46 48.5t-68.5 27.5t-84 9q-54 0 -113.5 -11.5t-117 -32.5t-109.5 -50t-91.5 -64.5t-62.5 -76t-23 -83.5q0 -42 26.5 -60
t67.5 -18q46 0 102.5 17.5t109 45t94 61t57.5 65.5zM1157 636q-27 -38 -67.5 -58t-84.5 -30l-4 20q41 9 78.5 27t61.5 53z" />
    <glyph glyph-name="Thorn" unicode="&#xde;" horiz-adv-x="780" 
d="M450 541q-14 0 -27.5 -0.5t-27.5 -1.5q-24 -44 -53.5 -95t-61.5 -105t-65 -108t-65 -102q38 -14 75.5 -20.5t75.5 -6.5q98 0 181.5 26.5t145 67.5t96 91.5t34.5 97.5q0 32 -17.5 60.5t-54.5 49.5t-95.5 33.5t-140.5 12.5zM474 684q-8 -15 -19 -34q-9 -17 -21.5 -39.5
t-27.5 -50.5q11 0 22 0.5t22 0.5q87 0 149.5 -14t102 -37.5t58 -55t18.5 -66.5q0 -51 -36 -105.5t-100 -99t-151 -73t-190 -28.5q-41 0 -81 7t-82 23q-35 -52 -66.5 -93t-56.5 -64l-15 10q6 13 16 29q8 14 21 31t33 37l5 -6l45 63q-48 21 -97 57l12 16q24 -18 48 -31.5
t48 -24.5q31 47 63.5 99t64 105t60.5 103.5t53 94.5q-120 -10 -223.5 -45t-190.5 -88l-6 19q91 54 198.5 90.5t232.5 44.5q17 29 30 54t23 42q11 20 20 37z" />
    <glyph glyph-name="germandbls" unicode="&#xdf;" horiz-adv-x="588" 
d="M152 -28q23 0 43 9q-41 5 -72.5 26t-48.5 63q-4 -11 -4 -24q0 -29 21.5 -51.5t60.5 -22.5zM665 203l14 -16l-22 -18q-56 -45 -113.5 -80.5t-113.5 -59.5t-107 -36.5t-93 -13.5q-15 -14 -35.5 -20.5t-42.5 -6.5q-47 0 -73.5 25t-26.5 63q0 19 8 41l23 7q22 -46 57.5 -67
t80.5 -23q18 18 18 45q0 16 -7.5 36t-16 41t-16 43.5t-7.5 45.5q0 20 7.5 38.5t25.5 36.5q36 35 69 70t58.5 68t40.5 63.5t15 55.5q0 19 -20 19q-28 0 -65.5 -38t-80.5 -98t-89 -134.5t-91 -149.5q-13 -22 -38.5 -58.5t-58.5 -81t-71 -93t-76 -94t-74.5 -85t-65.5 -65.5
l-14 14q28 25 63.5 63.5t73 83.5t75 93t70 92t58.5 81t40 60q57 93 105.5 172t90 136t78 89.5t70.5 32.5q18 0 29 -9.5t11 -29.5q0 -28 -15.5 -62t-41.5 -70.5t-61 -74t-74 -71.5q-12 -11 -17 -24t-5 -28q0 -21 7 -43.5t15.5 -44.5t15.5 -42.5t7 -37.5q0 -27 -13 -46
q38 1 85.5 14t99.5 37t106.5 58t106.5 79z" />
    <glyph glyph-name="agrave" unicode="&#xe0;" horiz-adv-x="749" 
d="M363 449q24 -35 61.5 -53t78.5 -27l-4 -20q-44 10 -84.5 30t-67.5 58zM356 159q14 19 30 36t32 31q-39 14 -81.5 20.5t-78.5 6.5q-45 0 -90 -20t-80.5 -51.5t-57.5 -71t-22 -79.5q0 -17 8.5 -26.5t28.5 -9.5q28 0 67.5 14t82.5 37.5t85 53t76 59.5zM403 -40
q-57 0 -80.5 20.5t-23.5 52.5q0 17 6.5 36.5t17.5 39.5q-34 -27 -72 -51t-75.5 -42.5t-71.5 -29.5t-59 -11q-34 0 -47.5 15t-13.5 38q0 50 25 94.5t65 78t88.5 53t95.5 19.5q41 0 88.5 -8t90.5 -25l23 14l10 -18q-24 -17 -43 -34.5t-46 -41.5q-26 -32 -44 -65.5t-18 -61.5
q0 -23 19 -38t65 -15q56 0 108.5 17.5t104 48t103.5 71t107 86.5l14 -16q-57 -47 -110 -88t-106.5 -72t-108 -49t-112.5 -18z" />
    <glyph glyph-name="aacute" unicode="&#xe1;" horiz-adv-x="749" 
d="M575 440q-27 -38 -67.5 -58t-84.5 -30l-4 20q41 9 78.5 27t61.5 53zM356 159q14 19 30 36t32 31q-39 14 -81.5 20.5t-78.5 6.5q-45 0 -90 -20t-80.5 -51.5t-57.5 -71t-22 -79.5q0 -17 8.5 -26.5t28.5 -9.5q28 0 67.5 14t82.5 37.5t85 53t76 59.5zM403 -40
q-57 0 -80.5 20.5t-23.5 52.5q0 17 6.5 36.5t17.5 39.5q-34 -27 -72 -51t-75.5 -42.5t-71.5 -29.5t-59 -11q-34 0 -47.5 15t-13.5 38q0 50 25 94.5t65 78t88.5 53t95.5 19.5q41 0 88.5 -8t90.5 -25l23 14l10 -18q-24 -17 -43 -34.5t-46 -41.5q-26 -32 -44 -65.5t-18 -61.5
q0 -23 19 -38t65 -15q56 0 108.5 17.5t104 48t103.5 71t107 86.5l14 -16q-57 -47 -110 -88t-106.5 -72t-108 -49t-112.5 -18z" />
    <glyph glyph-name="acircumflex" unicode="&#xe2;" horiz-adv-x="749" 
d="M258 376q31 3 66 14.5t65 24.5q35 15 70 33l15 -8q2 -18 8 -35q5 -14 16 -29t29 -24l-8 -18q-17 9 -28 20t-18 23t-10 24.5t-4 23.5q-9 -5 -31 -15.5t-49.5 -21.5t-59 -20t-59.5 -12zM356 159q14 19 30 36t32 31q-39 14 -81.5 20.5t-78.5 6.5q-45 0 -90 -20t-80.5 -51.5
t-57.5 -71t-22 -79.5q0 -17 8.5 -26.5t28.5 -9.5q28 0 67.5 14t82.5 37.5t85 53t76 59.5zM403 -40q-57 0 -80.5 20.5t-23.5 52.5q0 17 6.5 36.5t17.5 39.5q-34 -27 -72 -51t-75.5 -42.5t-71.5 -29.5t-59 -11q-34 0 -47.5 15t-13.5 38q0 50 25 94.5t65 78t88.5 53t95.5 19.5
q41 0 88.5 -8t90.5 -25l23 14l10 -18q-24 -17 -43 -34.5t-46 -41.5q-26 -32 -44 -65.5t-18 -61.5q0 -23 19 -38t65 -15q56 0 108.5 17.5t104 48t103.5 71t107 86.5l14 -16q-57 -47 -110 -88t-106.5 -72t-108 -49t-112.5 -18z" />
    <glyph glyph-name="atilde" unicode="&#xe3;" horiz-adv-x="749" 
d="M356 159q14 19 30 36t32 31q-39 14 -81.5 20.5t-78.5 6.5q-45 0 -90 -20t-80.5 -51.5t-57.5 -71t-22 -79.5q0 -17 8.5 -26.5t28.5 -9.5q28 0 67.5 14t82.5 37.5t85 53t76 59.5zM403 -40q-57 0 -80.5 20.5t-23.5 52.5q0 17 6.5 36.5t17.5 39.5q-34 -27 -72 -51
t-75.5 -42.5t-71.5 -29.5t-59 -11q-34 0 -47.5 15t-13.5 38q0 50 25 94.5t65 78t88.5 53t95.5 19.5q41 0 88.5 -8t90.5 -25l23 14l10 -18q-24 -17 -43 -34.5t-46 -41.5q-26 -32 -44 -65.5t-18 -61.5q0 -23 19 -38t65 -15q56 0 108.5 17.5t104 48t103.5 71t107 86.5l14 -16
q-57 -47 -110 -88t-106.5 -72t-108 -49t-112.5 -18zM667 395q-28 -26 -57 -36t-58 -10q-30 0 -58.5 6.5t-57.5 14.5t-58.5 14.5t-60.5 6.5t-62 -9.5t-63 -32.5l-12 16q35 26 69 36t68 10q30 0 59 -6.5t58 -14.5t58.5 -14.5t59.5 -6.5q26 0 51.5 8.5t49.5 31.5z" />
    <glyph glyph-name="adieresis" unicode="&#xe4;" horiz-adv-x="749" 
d="M356 159q14 19 30 36t32 31q-39 14 -81.5 20.5t-78.5 6.5q-45 0 -90 -20t-80.5 -51.5t-57.5 -71t-22 -79.5q0 -17 8.5 -26.5t28.5 -9.5q28 0 67.5 14t82.5 37.5t85 53t76 59.5zM403 -40q-57 0 -80.5 20.5t-23.5 52.5q0 17 6.5 36.5t17.5 39.5q-34 -27 -72 -51
t-75.5 -42.5t-71.5 -29.5t-59 -11q-34 0 -47.5 15t-13.5 38q0 50 25 94.5t65 78t88.5 53t95.5 19.5q41 0 88.5 -8t90.5 -25l23 14l10 -18q-24 -17 -43 -34.5t-46 -41.5q-26 -32 -44 -65.5t-18 -61.5q0 -23 19 -38t65 -15q56 0 108.5 17.5t104 48t103.5 71t107 86.5l14 -16
q-57 -47 -110 -88t-106.5 -72t-108 -49t-112.5 -18zM519 450q8 0 9.5 -4.5t1.5 -6.5q0 -14 -13 -25.5t-30 -11.5q-8 0 -9 4t-1 6q0 5 3.5 11.5t9.5 12.5t13.5 10t15.5 4zM385 450q8 0 9.5 -4.5t1.5 -6.5q0 -14 -13 -25.5t-30 -11.5q-8 0 -9 4t-1 6q0 5 3.5 11.5t9.5 12.5
t13.5 10t15.5 4z" />
    <glyph glyph-name="aring" unicode="&#xe5;" horiz-adv-x="749" 
d="M430 440q-18 0 -28.5 -11t-10.5 -22q0 -13 14 -13q17 0 28 11.5t11 22.5q0 12 -14 12zM434 460q17 0 25 -8t8 -20q0 -19 -18 -38.5t-48 -19.5q-18 0 -26 8.5t-8 19.5q0 19 18.5 38.5t48.5 19.5zM356 159q14 19 30 36t32 31q-39 14 -81.5 20.5t-78.5 6.5q-45 0 -90 -20
t-80.5 -51.5t-57.5 -71t-22 -79.5q0 -17 8.5 -26.5t28.5 -9.5q28 0 67.5 14t82.5 37.5t85 53t76 59.5zM403 -40q-57 0 -80.5 20.5t-23.5 52.5q0 17 6.5 36.5t17.5 39.5q-34 -27 -72 -51t-75.5 -42.5t-71.5 -29.5t-59 -11q-34 0 -47.5 15t-13.5 38q0 50 25 94.5t65 78
t88.5 53t95.5 19.5q41 0 88.5 -8t90.5 -25l23 14l10 -18q-24 -17 -43 -34.5t-46 -41.5q-26 -32 -44 -65.5t-18 -61.5q0 -23 19 -38t65 -15q56 0 108.5 17.5t104 48t103.5 71t107 86.5l14 -16q-57 -47 -110 -88t-106.5 -72t-108 -49t-112.5 -18z" />
    <glyph glyph-name="ae" unicode="&#xe6;" horiz-adv-x="815" 
d="M535 279q-30 0 -63 -27t-59 -65q16 -11 30.5 -16t27.5 -5q19 0 34.5 9t26 22.5t16.5 29t6 27.5q0 11 -4.5 18t-14.5 7zM45 -5q33 0 80.5 19t97 48t95.5 65t76 70q5 8 10.5 15t11.5 14q-39 14 -80.5 20.5t-77.5 6.5q-45 0 -90 -20t-80.5 -51.5t-57.5 -71t-22 -79.5
q0 -17 8.5 -26.5t28.5 -9.5zM469 -40q-67 0 -95 29t-28 72q0 38 19 84q-35 -32 -78 -62.5t-87 -54.5t-84.5 -38.5t-70.5 -14.5q-34 0 -47.5 15t-13.5 38q0 50 25 94.5t65 78t88.5 53t95.5 19.5q39 0 85 -7t88 -23q24 25 51 40.5t53 15.5q23 0 33 -12t10 -29t-8 -36t-23 -35
t-35 -27t-44 -11q-16 0 -32 5t-33 17q-16 -27 -25 -55t-9 -53q0 -35 22.5 -59t77.5 -24q56 0 108.5 17.5t104 48t103.5 71t107 86.5l14 -16q-57 -47 -110 -88t-106.5 -72t-108 -49t-112.5 -18z" />
    <glyph glyph-name="ccedilla" unicode="&#xe7;" horiz-adv-x="553" 
d="M207 -40q-16 0 -29.5 1.5t-25.5 3.5l-12 -13q13 -4 27 -13.5t14 -32.5q0 -25 -21 -37t-47 -12q-15 0 -30 4t-27 12.5t-19.5 21t-8.5 30.5h20q1 -25 21.5 -36.5t43.5 -11.5q19 0 33.5 7.5t14.5 21.5q0 10 -10 16t-21 10q-13 4 -30 6l30 33q-51 17 -74 51t-23 76
q0 37 19 70.5t51 59.5t74 41.5t88 15.5q29 0 47 -8.5t27 -18.5l17 19l14 -14l-52 -56l-14 14l21 23q-6 7 -20 14t-40 7q-41 0 -79.5 -15t-68 -38.5t-47 -53.5t-17.5 -60q0 -23 8.5 -44.5t27.5 -38t48 -26t70 -9.5q56 0 108.5 17.5t104 48t103.5 71t107 86.5l14 -16
q-57 -47 -110 -88t-106.5 -72t-108 -49t-112.5 -18z" />
    <glyph glyph-name="egrave" unicode="&#xe8;" horiz-adv-x="495" 
d="M215 279q-30 0 -63 -27t-59 -65q16 -11 30.5 -16t27.5 -5q19 0 34.5 9t26 22.5t16.5 29t6 27.5q0 11 -4.5 18t-14.5 7zM149 -40q-67 0 -95 29t-28 72q0 37 17.5 79t45 77.5t61 58.5t65.5 23q23 0 33 -12t10 -29t-8 -36t-23 -35t-35 -27t-44 -11q-16 0 -32 5t-33 17
q-16 -27 -25 -55t-9 -53q0 -35 22.5 -59t77.5 -24q56 0 108.5 17.5t104 48t103.5 71t107 86.5l14 -16q-57 -47 -110 -88t-106.5 -72t-108 -49t-112.5 -18zM201 468q24 -35 61.5 -53t78.5 -27l-4 -20q-44 10 -84.5 30t-67.5 58z" />
    <glyph glyph-name="eacute" unicode="&#xe9;" horiz-adv-x="495" 
d="M215 279q-30 0 -63 -27t-59 -65q16 -11 30.5 -16t27.5 -5q19 0 34.5 9t26 22.5t16.5 29t6 27.5q0 11 -4.5 18t-14.5 7zM149 -40q-67 0 -95 29t-28 72q0 37 17.5 79t45 77.5t61 58.5t65.5 23q23 0 33 -12t10 -29t-8 -36t-23 -35t-35 -27t-44 -11q-16 0 -32 5t-33 17
q-16 -27 -25 -55t-9 -53q0 -35 22.5 -59t77.5 -24q56 0 108.5 17.5t104 48t103.5 71t107 86.5l14 -16q-57 -47 -110 -88t-106.5 -72t-108 -49t-112.5 -18zM383 447q-27 -38 -67.5 -58t-84.5 -30l-4 20q41 9 78.5 27t61.5 53z" />
    <glyph glyph-name="ecircumflex" unicode="&#xea;" horiz-adv-x="495" 
d="M215 279q-30 0 -63 -27t-59 -65q16 -11 30.5 -16t27.5 -5q19 0 34.5 9t26 22.5t16.5 29t6 27.5q0 11 -4.5 18t-14.5 7zM149 -40q-67 0 -95 29t-28 72q0 37 17.5 79t45 77.5t61 58.5t65.5 23q23 0 33 -12t10 -29t-8 -36t-23 -35t-35 -27t-44 -11q-16 0 -32 5t-33 17
q-16 -27 -25 -55t-9 -53q0 -35 22.5 -59t77.5 -24q56 0 108.5 17.5t104 48t103.5 71t107 86.5l14 -16q-57 -47 -110 -88t-106.5 -72t-108 -49t-112.5 -18zM113 383q31 3 66 14.5t65 24.5q35 15 70 33l15 -8q2 -18 8 -35q5 -14 16 -29t29 -24l-8 -18q-17 9 -28.5 20t-18 23
t-9.5 24.5t-4 23.5q-9 -5 -31 -15.5t-49.5 -21.5t-59 -20t-59.5 -12z" />
    <glyph glyph-name="edieresis" unicode="&#xeb;" horiz-adv-x="495" 
d="M215 279q-30 0 -63 -27t-59 -65q16 -11 30.5 -16t27.5 -5q19 0 34.5 9t26 22.5t16.5 29t6 27.5q0 11 -4.5 18t-14.5 7zM149 -40q-67 0 -95 29t-28 72q0 37 17.5 79t45 77.5t61 58.5t65.5 23q23 0 33 -12t10 -29t-8 -36t-23 -35t-35 -27t-44 -11q-16 0 -32 5t-33 17
q-16 -27 -25 -55t-9 -53q0 -35 22.5 -59t77.5 -24q56 0 108.5 17.5t104 48t103.5 71t107 86.5l14 -16q-57 -47 -110 -88t-106.5 -72t-108 -49t-112.5 -18zM355 450q8 0 9.5 -4.5t1.5 -6.5q0 -14 -13 -25.5t-30 -11.5q-8 0 -9 4t-1 6q0 5 3.5 11.5t9.5 12.5t13.5 10t15.5 4z
M221 450q8 0 9.5 -4.5t1.5 -6.5q0 -14 -13 -25.5t-30 -11.5q-8 0 -9 4t-1 6q0 5 3.5 11.5t9.5 12.5t13.5 10t15.5 4z" />
    <glyph glyph-name="igrave" unicode="&#xec;" horiz-adv-x="452" 
d="M106 -40q-47 0 -75 18.5t-28 59.5q0 32 21 79t74 112l16 -12q-51 -62 -71 -106t-20 -73q0 -30 22.5 -44t60.5 -14q56 0 108.5 17.5t104 48t103.5 71t107 86.5l14 -16q-57 -47 -110 -88t-106.5 -72t-108 -49t-112.5 -18zM110 450q24 -35 61.5 -53t78.5 -27l-4 -20
q-44 10 -84.5 30t-67.5 58z" />
    <glyph glyph-name="iacute" unicode="&#xed;" horiz-adv-x="452" 
d="M106 -40q-47 0 -75 18.5t-28 59.5q0 32 21 79t74 112l16 -12q-51 -62 -71 -106t-20 -73q0 -30 22.5 -44t60.5 -14q56 0 108.5 17.5t104 48t103.5 71t107 86.5l14 -16q-57 -47 -110 -88t-106.5 -72t-108 -49t-112.5 -18zM316 429q-27 -38 -67.5 -58t-84.5 -30l-4 20
q41 9 78.5 27t61.5 53z" />
    <glyph glyph-name="icircumflex" unicode="&#xee;" horiz-adv-x="452" 
d="M106 -40q-47 0 -75 18.5t-28 59.5q0 32 21 79t74 112l16 -12q-51 -62 -71 -106t-20 -73q0 -30 22.5 -44t60.5 -14q56 0 108.5 17.5t104 48t103.5 71t107 86.5l14 -16q-57 -47 -110 -88t-106.5 -72t-108 -49t-112.5 -18zM80 402q31 3 66 14.5t65 24.5q35 15 70 33l15 -8
q2 -18 8 -35q5 -14 16 -29t29 -24l-8 -18q-17 9 -28.5 20t-18 23t-9.5 24.5t-4 23.5q-9 -5 -31 -15.5t-49.5 -21.5t-59 -20t-59.5 -12z" />
    <glyph glyph-name="idieresis" unicode="&#xef;" horiz-adv-x="452" 
d="M350 450q8 0 9.5 -4.5t1.5 -6.5q0 -14 -13 -25.5t-30 -11.5q-8 0 -9 4t-1 6q0 5 3.5 11.5t9.5 12.5t13.5 10t15.5 4zM106 -40q-47 0 -75 18.5t-28 59.5q0 32 21 79t74 112l16 -12q-51 -62 -71 -106t-20 -73q0 -30 22.5 -44t60.5 -14q56 0 108.5 17.5t104 48t103.5 71
t107 86.5l14 -16q-57 -47 -110 -88t-106.5 -72t-108 -49t-112.5 -18zM216 450q8 0 9.5 -4.5t1.5 -6.5q0 -14 -13 -25.5t-30 -11.5q-8 0 -9 4t-1 6q0 5 3.5 11.5t9.5 12.5t13.5 10t15.5 4z" />
    <glyph glyph-name="eth" unicode="&#xf0;" horiz-adv-x="747" 
d="M262 87q28 18 54.5 38t48.5 41q12 15 23.5 30t22.5 32q-38 13 -78 19t-75 6q-45 0 -90 -20t-80.5 -51.5t-57.5 -71t-22 -79.5q0 -17 8.5 -26.5t28.5 -9.5t45 7t53.5 19.5t58.5 29.5t60 36zM297 33q0 19 7 37.5t19 37.5q-26 -20 -53 -37q-30 -20 -61.5 -37t-61 -30.5
t-55.5 -21t-47 -7.5q-34 0 -47.5 15t-13.5 38q0 50 25 94.5t65 78t88.5 53t95.5 19.5q37 0 80 -6.5t84 -20.5q14 24 23 50t9 55q0 23 -6 47l-92 -46l-8 14l96 48q-9 27 -27 58l18 10q18 -29 27 -59l54 27l8 -14l-57 -29q3 -14 5 -28t2 -28q0 -39 -11.5 -71t-29 -58.5
t-38 -49.5t-38 -45.5t-29 -45t-11.5 -48.5q0 -23 19 -38t65 -15q56 0 108.5 17.5t104 48t103.5 71t107 86.5l14 -16q-57 -47 -110 -88t-106.5 -72t-108 -49t-112.5 -18q-57 0 -80.5 20.5t-23.5 52.5z" />
    <glyph glyph-name="ntilde" unicode="&#xf1;" horiz-adv-x="1074" 
d="M753 422q-28 -26 -57 -36t-58 -10q-30 0 -58.5 6.5t-57.5 14.5t-58.5 14.5t-60.5 6.5t-62 -9.5t-63 -32.5l-12 16q35 26 69 36t68 10q30 0 59 -6.5t58 -14.5t58.5 -14.5t59.5 -6.5q26 0 51.5 8.5t49.5 31.5zM728 -20q56 0 108.5 17.5t104 48t103.5 71t107 86.5l14 -16
q-57 -47 -110 -88t-106.5 -72t-108 -49t-112.5 -18q-47 0 -75 18.5t-28 59.5q0 22 8 42.5t18 40.5t18 40.5t8 42.5q0 12 -11 16.5t-29 4.5q-48 0 -103 -21.5t-108 -54.5t-100 -74t-80 -80l-14 14q4 5 8.5 10.5t9.5 10.5q8 12 16.5 28.5t15 35t10.5 37.5t4 37q0 50 -17.5 69
t-43.5 19q-18 0 -37.5 -7t-39 -17.5t-37 -22.5t-30.5 -22l-22 -18l-13 16l21 18q13 10 32.5 23t41.5 23.5t45.5 18t44.5 7.5q32 0 54 -22t22 -80q0 -23 -6 -49t-16 -50q36 33 78.5 63.5t88 54.5t90.5 38.5t85 14.5q27 0 43.5 -9t16.5 -32q0 -22 -8 -42.5t-18 -40.5
t-18 -40.5t-8 -42.5q0 -30 22.5 -44t60.5 -14z" />
    <glyph glyph-name="ograve" unicode="&#xf2;" horiz-adv-x="561" 
d="M273 236q-22 5 -37 5q-45 0 -85.5 -18.5t-72 -47t-50 -63t-18.5 -67.5q0 -36 15.5 -52t39.5 -16q29 0 64 17.5t67.5 46.5t57 68t32.5 81q-6 15 -6 23q0 14 9.5 17t14.5 3q2 0 3 -2t1 -12v-8q11 -49 47 -72t84 -23q43 0 89.5 17.5t88.5 51.5l22 18l13 -16l-21 -18
q-43 -37 -93 -55t-97 -18t-84 17t-56 52q-13 -42 -40 -80t-61 -66.5t-69.5 -45t-65.5 -16.5q-33 0 -54 20.5t-21 67.5q0 39 20 77.5t54 69.5t78.5 50t93.5 19q11 0 21 -1.5t20 -3.5zM219 453q24 -35 61.5 -53t78.5 -27l-4 -20q-44 10 -84.5 30t-67.5 58z" />
    <glyph glyph-name="oacute" unicode="&#xf3;" horiz-adv-x="561" 
d="M273 236q-22 5 -37 5q-45 0 -85.5 -18.5t-72 -47t-50 -63t-18.5 -67.5q0 -36 15.5 -52t39.5 -16q29 0 64 17.5t67.5 46.5t57 68t32.5 81q-6 15 -6 23q0 14 9.5 17t14.5 3q2 0 3 -2t1 -12v-8q11 -49 47 -72t84 -23q43 0 89.5 17.5t88.5 51.5l22 18l13 -16l-21 -18
q-43 -37 -93 -55t-97 -18t-84 17t-56 52q-13 -42 -40 -80t-61 -66.5t-69.5 -45t-65.5 -16.5q-33 0 -54 20.5t-21 67.5q0 39 20 77.5t54 69.5t78.5 50t93.5 19q11 0 21 -1.5t20 -3.5zM430 442q-27 -38 -67.5 -58t-84.5 -30l-4 20q41 9 78.5 27t61.5 53z" />
    <glyph glyph-name="ocircumflex" unicode="&#xf4;" horiz-adv-x="561" 
d="M273 236q-22 5 -37 5q-45 0 -85.5 -18.5t-72 -47t-50 -63t-18.5 -67.5q0 -36 15.5 -52t39.5 -16q29 0 64 17.5t67.5 46.5t57 68t32.5 81q-6 15 -6 23q0 14 9.5 17t14.5 3q2 0 3 -2t1 -12v-8q11 -49 47 -72t84 -23q43 0 89.5 17.5t88.5 51.5l22 18l13 -16l-21 -18
q-43 -37 -93 -55t-97 -18t-84 17t-56 52q-13 -42 -40 -80t-61 -66.5t-69.5 -45t-65.5 -16.5q-33 0 -54 20.5t-21 67.5q0 39 20 77.5t54 69.5t78.5 50t93.5 19q11 0 21 -1.5t20 -3.5zM147 371q31 3 66 14.5t65 24.5q35 15 70 33l15 -8q2 -18 8 -35q5 -14 16 -29t29 -24
l-8 -18q-17 9 -28.5 20t-18 23t-9.5 24.5t-4 23.5q-9 -5 -31 -15.5t-49.5 -21.5t-59 -20t-59.5 -12z" />
    <glyph glyph-name="otilde" unicode="&#xf5;" horiz-adv-x="561" 
d="M273 236q-22 5 -37 5q-45 0 -85.5 -18.5t-72 -47t-50 -63t-18.5 -67.5q0 -36 15.5 -52t39.5 -16q29 0 64 17.5t67.5 46.5t57 68t32.5 81q-6 15 -6 23q0 14 9.5 17t14.5 3q2 0 3 -2t1 -12v-8q11 -49 47 -72t84 -23q43 0 89.5 17.5t88.5 51.5l22 18l13 -16l-21 -18
q-43 -37 -93 -55t-97 -18t-84 17t-56 52q-13 -42 -40 -80t-61 -66.5t-69.5 -45t-65.5 -16.5q-33 0 -54 20.5t-21 67.5q0 39 20 77.5t54 69.5t78.5 50t93.5 19q11 0 21 -1.5t20 -3.5zM512 395q-23 -25 -47.5 -34.5t-50.5 -9.5q-25 0 -49.5 6.5t-49.5 14t-50 14t-51 6.5
t-52.5 -9t-53.5 -32l-11 15q30 25 59 35t58 10q25 0 50 -6.5t49.5 -14t49.5 -14t51 -6.5q23 0 44.5 8t41.5 31z" />
    <glyph glyph-name="odieresis" unicode="&#xf6;" horiz-adv-x="561" 
d="M273 236q-22 5 -37 5q-45 0 -85.5 -18.5t-72 -47t-50 -63t-18.5 -67.5q0 -36 15.5 -52t39.5 -16q29 0 64 17.5t67.5 46.5t57 68t32.5 81q-6 15 -6 23q0 14 9.5 17t14.5 3q2 0 3 -2t1 -12v-8q11 -49 47 -72t84 -23q43 0 89.5 17.5t88.5 51.5l22 18l13 -16l-21 -18
q-43 -37 -93 -55t-97 -18t-84 17t-56 52q-13 -42 -40 -80t-61 -66.5t-69.5 -45t-65.5 -16.5q-33 0 -54 20.5t-21 67.5q0 39 20 77.5t54 69.5t78.5 50t93.5 19q11 0 21 -1.5t20 -3.5zM375 450q8 0 9.5 -4.5t1.5 -6.5q0 -14 -13 -25.5t-30 -11.5q-8 0 -9 4t-1 6q0 5 3.5 11.5
t9.5 12.5t13.5 10t15.5 4zM241 450q8 0 9.5 -4.5t1.5 -6.5q0 -14 -13 -25.5t-30 -11.5q-8 0 -9 4t-1 6q0 5 3.5 11.5t9.5 12.5t13.5 10t15.5 4z" />
    <glyph glyph-name="divide" unicode="&#xf7;" horiz-adv-x="286" 
d="M77 69q14 0 14 -12q0 -11 -11 -22.5t-28 -11.5q-14 0 -14 13q0 10 10.5 21.5t28.5 11.5zM174 252q14 0 14 -12q0 -11 -11 -22.5t-28 -11.5q-14 0 -14 13q0 10 10.5 21.5t28.5 11.5zM-6 150l236 -1l-2 -20l-236 1z" />
    <glyph glyph-name="oslash" unicode="&#xf8;" horiz-adv-x="561" 
d="M45 -20q42 48 95 117t109 143q-5 1 -13 1q-45 0 -85.5 -18.5t-72 -47t-50 -63t-18.5 -67.5q0 -29 9.5 -44.5t25.5 -20.5zM-26 -92q9 6 23.5 20t33.5 36q-19 8 -30 27.5t-11 53.5q0 39 20 77.5t54 69.5t78.5 50t93.5 19q8 0 14.5 -0.5t12.5 -1.5l44 57l13 -15
q-87 -115 -149.5 -196.5t-101.5 -127.5q29 1 63.5 19t66 47.5t55.5 67t32 79.5q-6 15 -6 23q0 14 9.5 17t14.5 3q2 0 3 -2t1 -12v-8q11 -49 47 -72t84 -23q43 0 89.5 17.5t88.5 51.5l22 18l13 -16l-21 -18q-43 -37 -93 -55t-97 -18t-84 17t-56 52q-13 -42 -40 -80t-61 -66.5
t-69.5 -45t-65.5 -16.5q-8 0 -12 1q-23 -26 -40.5 -43.5t-28.5 -24.5z" />
    <glyph glyph-name="ugrave" unicode="&#xf9;" horiz-adv-x="771" 
d="M425 -40q-47 0 -75 18.5t-28 59.5q0 19 7 43t24 53q-37 -33 -75 -59t-74 -44t-68.5 -27.5t-57.5 -9.5q-32 0 -50 14t-18 45q0 29 22 75.5t74 112.5l16 -12q-50 -63 -71 -106.5t-21 -69.5q0 -20 12.5 -29.5t35.5 -9.5q29 0 68.5 14t84 40t90 62.5t85.5 82.5l13 16l16 -12
q-51 -62 -72 -106t-21 -73q0 -30 22.5 -44t60.5 -14q56 0 108.5 17.5t104 48t103.5 71t107 86.5l14 -16q-57 -47 -110 -88t-106.5 -72t-108 -49t-112.5 -18zM286 444q24 -35 61.5 -53t78.5 -27l-4 -20q-44 10 -84.5 30t-67.5 58z" />
    <glyph glyph-name="uacute" unicode="&#xfa;" horiz-adv-x="771" 
d="M425 -40q-47 0 -75 18.5t-28 59.5q0 19 7 43t24 53q-37 -33 -75 -59t-74 -44t-68.5 -27.5t-57.5 -9.5q-32 0 -50 14t-18 45q0 29 22 75.5t74 112.5l16 -12q-50 -63 -71 -106.5t-21 -69.5q0 -20 12.5 -29.5t35.5 -9.5q29 0 68.5 14t84 40t90 62.5t85.5 82.5l13 16l16 -12
q-51 -62 -72 -106t-21 -73q0 -30 22.5 -44t60.5 -14q56 0 108.5 17.5t104 48t103.5 71t107 86.5l14 -16q-57 -47 -110 -88t-106.5 -72t-108 -49t-112.5 -18zM476 433q-27 -38 -67.5 -58t-84.5 -30l-4 20q41 9 78.5 27t61.5 53z" />
    <glyph glyph-name="ucircumflex" unicode="&#xfb;" horiz-adv-x="771" 
d="M425 -40q-47 0 -75 18.5t-28 59.5q0 19 7 43t24 53q-37 -33 -75 -59t-74 -44t-68.5 -27.5t-57.5 -9.5q-32 0 -50 14t-18 45q0 29 22 75.5t74 112.5l16 -12q-50 -63 -71 -106.5t-21 -69.5q0 -20 12.5 -29.5t35.5 -9.5q29 0 68.5 14t84 40t90 62.5t85.5 82.5l13 16l16 -12
q-51 -62 -72 -106t-21 -73q0 -30 22.5 -44t60.5 -14q56 0 108.5 17.5t104 48t103.5 71t107 86.5l14 -16q-57 -47 -110 -88t-106.5 -72t-108 -49t-112.5 -18z" />
    <glyph glyph-name="udieresis" unicode="&#xfc;" horiz-adv-x="771" 
d="M425 -40q-47 0 -75 18.5t-28 59.5q0 19 7 43t24 53q-37 -33 -75 -59t-74 -44t-68.5 -27.5t-57.5 -9.5q-32 0 -50 14t-18 45q0 29 22 75.5t74 112.5l16 -12q-50 -63 -71 -106.5t-21 -69.5q0 -20 12.5 -29.5t35.5 -9.5q29 0 68.5 14t84 40t90 62.5t85.5 82.5l13 16l16 -12
q-51 -62 -72 -106t-21 -73q0 -30 22.5 -44t60.5 -14q56 0 108.5 17.5t104 48t103.5 71t107 86.5l14 -16q-57 -47 -110 -88t-106.5 -72t-108 -49t-112.5 -18zM452 452q8 0 9.5 -4.5t1.5 -6.5q0 -14 -13 -25.5t-30 -11.5q-8 0 -9 4t-1 6q0 5 3.5 11.5t9.5 12.5t13.5 10t15.5 4
zM318 452q8 0 9.5 -4.5t1.5 -6.5q0 -14 -13 -25.5t-30 -11.5q-8 0 -9 4t-1 6q0 5 3.5 11.5t9.5 12.5t13.5 10t15.5 4z" />
    <glyph glyph-name="yacute" unicode="&#xfd;" horiz-adv-x="828" 
d="M303 221q0 41 -34 41q-27 0 -66 -22.5t-76 -52.5l-22 -18l-13 16l21 18q16 14 36.5 28t42 25t42 18t38.5 7q23 0 37 -13.5t14 -46.5q0 -21 -10.5 -45.5t-22.5 -47.5t-22.5 -43.5t-10.5 -34.5q0 -22 35 -22q33 0 85.5 17t111 46.5t116.5 68t102 81.5l15 -13
q-45 -54 -86 -117t-84 -126.5t-90.5 -122.5t-105.5 -104t-128.5 -72.5t-159.5 -27.5q-29 0 -59 3.5t-61 11.5l6 20q31 -8 59.5 -11.5t54.5 -3.5q76 0 138 21t114.5 57.5t96.5 85t84 103.5t77 112.5t76 112.5q-46 -35 -97.5 -64.5t-100.5 -51t-92 -34t-72 -12.5
q-32 0 -45 9.5t-13 26.5q0 18 11 41t23.5 47t23.5 47.5t11 41.5zM673 433q-27 -38 -67.5 -58t-84.5 -30l-4 20q41 9 78.5 27t61.5 53z" />
    <glyph glyph-name="thorn" unicode="&#xfe;" horiz-adv-x="783" 
d="M296 476q-75 -115 -153 -221t-152 -200q40 28 91.5 60.5t103.5 60t98.5 45.5t76.5 18q34 0 51 -14.5t17 -35.5q0 -17 -12 -35.5t-26 -38.5t-26 -41.5t-12 -43.5q0 -26 23 -38t61 -12q56 0 108.5 17.5t104 48t103.5 71t107 86.5l14 -16q-57 -47 -110 -88t-106.5 -72
t-108 -49t-112.5 -18q-47 0 -75.5 17t-28.5 53q0 22 12 44.5t26 43.5t26 39.5t12 31.5q0 12 -12.5 21t-35.5 9q-22 0 -55.5 -11t-72.5 -29.5t-81 -41.5t-80 -47t-70 -46t-51 -39q-49 -60 -93.5 -112.5t-82 -94.5t-67.5 -73t-49 -49l-14 14q23 22 63 64.5t90.5 101.5
t109.5 131.5t121.5 154t126 169t122.5 177.5z" />
    <glyph glyph-name="ydieresis" unicode="&#xff;" horiz-adv-x="828" 
d="M303 221q0 41 -34 41q-27 0 -66 -22.5t-76 -52.5l-22 -18l-13 16l21 18q16 14 36.5 28t42 25t42 18t38.5 7q23 0 37 -13.5t14 -46.5q0 -21 -10.5 -45.5t-22.5 -47.5t-22.5 -43.5t-10.5 -34.5q0 -22 35 -22q33 0 85.5 17t111 46.5t116.5 68t102 81.5l15 -13
q-45 -54 -86 -117t-84 -126.5t-90.5 -122.5t-105.5 -104t-128.5 -72.5t-159.5 -27.5q-29 0 -59 3.5t-61 11.5l6 20q31 -8 59.5 -11.5t54.5 -3.5q76 0 138 21t114.5 57.5t96.5 85t84 103.5t77 112.5t76 112.5q-46 -35 -97.5 -64.5t-100.5 -51t-92 -34t-72 -12.5
q-32 0 -45 9.5t-13 26.5q0 18 11 41t23.5 47t23.5 47.5t11 41.5zM621 450q8 0 9.5 -4.5t1.5 -6.5q0 -14 -13 -25.5t-30 -11.5q-8 0 -9 4t-1 6q0 5 3.5 11.5t9.5 12.5t13.5 10t15.5 4zM487 450q8 0 9.5 -4.5t1.5 -6.5q0 -14 -13 -25.5t-30 -11.5q-8 0 -9 4t-1 6q0 5 3.5 11.5
t9.5 12.5t13.5 10t15.5 4z" />
    <glyph glyph-name="Amacron" unicode="&#x100;" 
d="M1082 610q-49 0 -99 -22t-100.5 -59t-101.5 -85t-102 -99q43 -22 77.5 -55t58.5 -74t37.5 -88.5t13.5 -97.5q39 72 81 133.5t80 113.5q28 38 52.5 73t43 68t29.5 63.5t11 58.5q0 32 -23.5 51t-57.5 19zM21 168q0 -5 -0.5 -9.5t-0.5 -9.5q0 -69 36 -108t108 -39
q58 0 116 27.5t115.5 72t115.5 101t115 115.5l19 20q-28 11 -58.5 17.5t-62.5 6.5h-2l2 20q73 0 137 -28q52 54 105 104t105.5 88t105 61t105.5 23q42 0 71.5 -24t29.5 -66q0 -31 -11 -63t-30 -66t-44.5 -70t-54.5 -76q-45 -61 -92 -130.5t-88 -151.5l-7 -41q-2 -1 -6 -2
q-3 -1 -6.5 -1h-6.5q-12 0 -12 8q0 6 7 19t12 23q1 10 1.5 20t0.5 20q0 48 -13 93.5t-36.5 84.5t-57 70.5t-75.5 51.5l-24 -25q-57 -59 -116 -116.5t-119 -103t-120.5 -74t-120.5 -28.5q-82 0 -123 45t-41 124q0 5 0.5 9.5t0.5 9.5zM980 721l387 -7v-20l-387 7v20z" />
    <glyph glyph-name="amacron" unicode="&#x101;" horiz-adv-x="749" 
d="M356 159q14 19 30 36t32 31q-39 14 -81.5 20.5t-78.5 6.5q-45 0 -90 -20t-80.5 -51.5t-57.5 -71t-22 -79.5q0 -17 8.5 -26.5t28.5 -9.5q28 0 67.5 14t82.5 37.5t85 53t76 59.5zM403 -40q-57 0 -80.5 20.5t-23.5 52.5q0 17 6.5 36.5t17.5 39.5q-34 -27 -72 -51
t-75.5 -42.5t-71.5 -29.5t-59 -11q-34 0 -47.5 15t-13.5 38q0 50 25 94.5t65 78t88.5 53t95.5 19.5q41 0 88.5 -8t90.5 -25l23 14l10 -18q-24 -17 -43 -34.5t-46 -41.5q-26 -32 -44 -65.5t-18 -61.5q0 -23 19 -38t65 -15q56 0 108.5 17.5t104 48t103.5 71t107 86.5l14 -16
q-57 -47 -110 -88t-106.5 -72t-108 -49t-112.5 -18zM214 419l387 -7v-20l-387 7v20z" />
    <glyph glyph-name="Abreve" unicode="&#x102;" 
d="M1082 610q-49 0 -99 -22t-100.5 -59t-101.5 -85t-102 -99q43 -22 77.5 -55t58.5 -74t37.5 -88.5t13.5 -97.5q39 72 81 133.5t80 113.5q28 38 52.5 73t43 68t29.5 63.5t11 58.5q0 32 -23.5 51t-57.5 19zM21 168q0 -5 -0.5 -9.5t-0.5 -9.5q0 -69 36 -108t108 -39
q58 0 116 27.5t115.5 72t115.5 101t115 115.5l19 20q-28 11 -58.5 17.5t-62.5 6.5h-2l2 20q73 0 137 -28q52 54 105 104t105.5 88t105 61t105.5 23q42 0 71.5 -24t29.5 -66q0 -31 -11 -63t-30 -66t-44.5 -70t-54.5 -76q-45 -61 -92 -130.5t-88 -151.5l-7 -41q-2 -1 -6 -2
q-3 -1 -6.5 -1h-6.5q-12 0 -12 8q0 6 7 19t12 23q1 10 1.5 20t0.5 20q0 48 -13 93.5t-36.5 84.5t-57 70.5t-75.5 51.5l-24 -25q-57 -59 -116 -116.5t-119 -103t-120.5 -74t-120.5 -28.5q-82 0 -123 45t-41 124q0 5 0.5 9.5t0.5 9.5zM1107 764q-4 -16 -4 -29q0 -23 13 -35.5
t33 -12.5q26 0 55.5 16.5t55.5 48.5l16 -12q-29 -36 -63.5 -54.5t-63.5 -18.5t-47.5 17t-18.5 51q0 17 4 33z" />
    <glyph glyph-name="abreve" unicode="&#x103;" horiz-adv-x="749" 
d="M356 159q14 19 30 36t32 31q-39 14 -81.5 20.5t-78.5 6.5q-45 0 -90 -20t-80.5 -51.5t-57.5 -71t-22 -79.5q0 -17 8.5 -26.5t28.5 -9.5q28 0 67.5 14t82.5 37.5t85 53t76 59.5zM403 -40q-57 0 -80.5 20.5t-23.5 52.5q0 17 6.5 36.5t17.5 39.5q-34 -27 -72 -51
t-75.5 -42.5t-71.5 -29.5t-59 -11q-34 0 -47.5 15t-13.5 38q0 50 25 94.5t65 78t88.5 53t95.5 19.5q41 0 88.5 -8t90.5 -25l23 14l10 -18q-24 -17 -43 -34.5t-46 -41.5q-26 -32 -44 -65.5t-18 -61.5q0 -23 19 -38t65 -15q56 0 108.5 17.5t104 48t103.5 71t107 86.5l14 -16
q-57 -47 -110 -88t-106.5 -72t-108 -49t-112.5 -18zM369 441q-4 -16 -4 -29q0 -23 19.5 -35.5t39.5 -12.5q13 0 32 4t39 12.5t39 20.5t32 28l16 -12q-15 -18 -36 -31.5t-43 -23t-43 -14t-36 -4.5q-14 0 -28.5 4.5t-25.5 13t-18 21t-7 29.5t4 33z" />
    <glyph glyph-name="Aogonek" unicode="&#x104;" 
d="M1082 610q-49 0 -99 -22t-100.5 -59t-101.5 -85t-102 -99q43 -22 77.5 -55t58.5 -74t37.5 -88.5t13.5 -97.5q39 72 81 133.5t80 113.5q28 38 52.5 73t43 68t29.5 63.5t11 58.5q0 32 -23.5 51t-57.5 19zM21 168q0 -5 -0.5 -9.5t-0.5 -9.5q0 -69 36 -108t108 -39
q58 0 116 27.5t115.5 72t115.5 101t115 115.5l19 20q-28 11 -58.5 17.5t-62.5 6.5h-2l2 20q73 0 137 -28q52 54 105 104t105.5 88t105 61t105.5 23q42 0 71.5 -24t29.5 -66q0 -31 -11 -63t-30 -66t-44.5 -70t-54.5 -76q-45 -61 -92 -130.5t-88 -151.5l-7 -41q-2 -1 -6 -2
q-3 -1 -6.5 -1h-6.5q-12 0 -12 8q0 7 6 18q-33 -17 -48.5 -36t-15.5 -35q0 -12 9.5 -20.5t28.5 -8.5q17 0 38 6.5t47 23.5l10 -16q-30 -19 -53.5 -26.5t-41.5 -7.5q-28 0 -43 14t-15 35q0 24 23 52t74 47q1 8 1.5 17.5t0.5 18.5q0 48 -13 93.5t-36.5 84.5t-57 70.5
t-75.5 51.5l-24 -25q-57 -59 -116 -116.5t-119 -103t-120.5 -74t-120.5 -28.5q-82 0 -123 45t-41 124q0 5 0.5 9.5t0.5 9.5z" />
    <glyph glyph-name="aogonek" unicode="&#x105;" horiz-adv-x="749" 
d="M356 159q14 19 30 36t32 31q-39 14 -81.5 20.5t-78.5 6.5q-45 0 -90 -20t-80.5 -51.5t-57.5 -71t-22 -79.5q0 -17 8.5 -26.5t28.5 -9.5q28 0 67.5 14t82.5 37.5t85 53t76 59.5zM403 -40q-8 0 -15 0.5t-14 1.5q-43 -17 -63 -39.5t-20 -40.5q0 -12 9.5 -20.5t28.5 -8.5
q17 0 38 6.5t47 23.5l10 -16q-30 -19 -53.5 -26.5t-41.5 -7.5q-28 0 -43 14t-15 35t17 45t55 43q-44 17 -44 63q0 17 6.5 36.5t17.5 39.5q-34 -27 -72 -51t-75.5 -42.5t-71.5 -29.5t-59 -11q-34 0 -47.5 15t-13.5 38q0 50 25 94.5t65 78t88.5 53t95.5 19.5q41 0 88.5 -8
t90.5 -25l23 14l10 -18q-24 -17 -43 -34.5t-46 -41.5q-26 -32 -44 -65.5t-18 -61.5q0 -23 19 -38t65 -15q56 0 108.5 17.5t104 48t103.5 71t107 86.5l14 -16q-57 -47 -110 -88t-106.5 -72t-108 -49t-112.5 -18z" />
    <glyph glyph-name="Cacute" unicode="&#x106;" horiz-adv-x="862" 
d="M887 134q-126 -97 -250.5 -143.5t-231.5 -46.5q-83 0 -142 21.5t-96.5 58t-55.5 85.5t-18 105t17 116t49 116.5t77.5 107t101.5 88.5t122 60t140 22q51 0 86 -10.5t57.5 -29.5t32.5 -44.5t10 -55.5q0 -38 -15.5 -81t-41 -85t-59.5 -80.5t-71 -68t-75 -47t-72 -17.5
q-45 0 -64.5 18t-19.5 48q0 26 15.5 59.5t42.5 68t63 68.5t77 60.5t84.5 43.5t86.5 18v-20q-40 -1 -81.5 -17t-80 -41t-73 -56.5t-60 -64t-40 -64t-14.5 -55.5q0 -21 15 -33.5t49 -12.5q32 0 67.5 16.5t70.5 44.5t67 64.5t56 76.5t38.5 80.5t14.5 76.5q0 25 -9 47
t-28.5 38.5t-51.5 25.5t-77 9q-70 0 -133.5 -21.5t-117.5 -57.5t-97.5 -84.5t-74.5 -103t-47.5 -111.5t-16.5 -111q0 -52 16.5 -97.5t51.5 -79.5t90 -54t132 -20q54 0 113.5 12t120.5 36t122 59t118 81l62 51l14 -16q-17 -14 -33 -27t-33 -26zM807 838q-27 -38 -67.5 -58
t-84.5 -30l-4 20q41 9 78.5 27t61.5 53z" />
    <glyph glyph-name="cacute" unicode="&#x107;" horiz-adv-x="553" 
d="M207 -40q-46 0 -79 11.5t-54 30.5t-31 44t-10 52q0 37 19 70.5t51 59.5t74 41.5t88 15.5q29 0 47 -8.5t27 -18.5l17 19l14 -14l-52 -56l-14 14l21 23q-6 7 -20 14t-40 7q-41 0 -79.5 -15t-68 -38.5t-47 -53.5t-17.5 -60q0 -23 8.5 -44.5t27.5 -38t48 -26t70 -9.5
q56 0 108.5 17.5t104 48t103.5 71t107 86.5l14 -16q-57 -47 -110 -88t-106.5 -72t-108 -49t-112.5 -18zM485 456q-27 -38 -67.5 -58t-84.5 -30l-4 20q41 9 78.5 27t61.5 53z" />
    <glyph glyph-name="Ccircumflex" unicode="&#x108;" horiz-adv-x="862" 
d="M887 134q-126 -97 -250.5 -143.5t-231.5 -46.5q-83 0 -142 21.5t-96.5 58t-55.5 85.5t-18 105t17 116t49 116.5t77.5 107t101.5 88.5t122 60t140 22q51 0 86 -10.5t57.5 -29.5t32.5 -44.5t10 -55.5q0 -38 -15.5 -81t-41 -85t-59.5 -80.5t-71 -68t-75 -47t-72 -17.5
q-45 0 -64.5 18t-19.5 48q0 26 15.5 59.5t42.5 68t63 68.5t77 60.5t84.5 43.5t86.5 18v-20q-40 -1 -81.5 -17t-80 -41t-73 -56.5t-60 -64t-40 -64t-14.5 -55.5q0 -21 15 -33.5t49 -12.5q32 0 67.5 16.5t70.5 44.5t67 64.5t56 76.5t38.5 80.5t14.5 76.5q0 25 -9 47
t-28.5 38.5t-51.5 25.5t-77 9q-70 0 -133.5 -21.5t-117.5 -57.5t-97.5 -84.5t-74.5 -103t-47.5 -111.5t-16.5 -111q0 -52 16.5 -97.5t51.5 -79.5t90 -54t132 -20q54 0 113.5 12t120.5 36t122 59t118 81l62 51l14 -16q-17 -14 -33 -27t-33 -26zM536 780q31 3 66 14.5t65 24.5
q35 15 70 33l15 -8q2 -18 8 -35q5 -14 16 -29t29 -24l-8 -18q-17 9 -28.5 20t-18 23t-9.5 24.5t-4 23.5q-9 -5 -31 -15.5t-49.5 -21.5t-59 -20t-59.5 -12z" />
    <glyph glyph-name="ccircumflex" unicode="&#x109;" horiz-adv-x="553" 
d="M207 -40q-46 0 -79 11.5t-54 30.5t-31 44t-10 52q0 37 19 70.5t51 59.5t74 41.5t88 15.5q29 0 47 -8.5t27 -18.5l17 19l14 -14l-52 -56l-14 14l21 23q-6 7 -20 14t-40 7q-41 0 -79.5 -15t-68 -38.5t-47 -53.5t-17.5 -60q0 -23 8.5 -44.5t27.5 -38t48 -26t70 -9.5
q56 0 108.5 17.5t104 48t103.5 71t107 86.5l14 -16q-57 -47 -110 -88t-106.5 -72t-108 -49t-112.5 -18zM228 402q31 3 66 14.5t65 24.5q35 15 70 33l15 -8q2 -18 8 -35q5 -14 16 -29t29 -24l-8 -18q-17 9 -28.5 20t-18 23t-9.5 24.5t-4 23.5q-9 -5 -31 -15.5t-49.5 -21.5
t-59 -20t-59.5 -12z" />
    <glyph glyph-name="Cdotaccent" unicode="&#x10a;" horiz-adv-x="862" 
d="M887 134q-126 -97 -250.5 -143.5t-231.5 -46.5q-83 0 -142 21.5t-96.5 58t-55.5 85.5t-18 105t17 116t49 116.5t77.5 107t101.5 88.5t122 60t140 22q51 0 86 -10.5t57.5 -29.5t32.5 -44.5t10 -55.5q0 -38 -15.5 -81t-41 -85t-59.5 -80.5t-71 -68t-75 -47t-72 -17.5
q-45 0 -64.5 18t-19.5 48q0 26 15.5 59.5t42.5 68t63 68.5t77 60.5t84.5 43.5t86.5 18v-20q-40 -1 -81.5 -17t-80 -41t-73 -56.5t-60 -64t-40 -64t-14.5 -55.5q0 -21 15 -33.5t49 -12.5q32 0 67.5 16.5t70.5 44.5t67 64.5t56 76.5t38.5 80.5t14.5 76.5q0 25 -9 47
t-28.5 38.5t-51.5 25.5t-77 9q-70 0 -133.5 -21.5t-117.5 -57.5t-97.5 -84.5t-74.5 -103t-47.5 -111.5t-16.5 -111q0 -52 16.5 -97.5t51.5 -79.5t90 -54t132 -20q54 0 113.5 12t120.5 36t122 59t118 81l62 51l14 -16q-17 -14 -33 -27t-33 -26z" />
    <glyph glyph-name="cdotaccent" unicode="&#x10b;" horiz-adv-x="553" 
d="M207 -40q-46 0 -79 11.5t-54 30.5t-31 44t-10 52q0 37 19 70.5t51 59.5t74 41.5t88 15.5q29 0 47 -8.5t27 -18.5l17 19l14 -14l-52 -56l-14 14l21 23q-6 7 -20 14t-40 7q-41 0 -79.5 -15t-68 -38.5t-47 -53.5t-17.5 -60q0 -23 8.5 -44.5t27.5 -38t48 -26t70 -9.5
q56 0 108.5 17.5t104 48t103.5 71t107 86.5l14 -16q-57 -47 -110 -88t-106.5 -72t-108 -49t-112.5 -18zM427 450q8 0 9.5 -4.5t1.5 -6.5q0 -14 -13 -25.5t-30 -11.5q-8 0 -9 4t-1 6q0 5 3.5 11.5t9.5 12.5t13.5 10t15.5 4z" />
    <glyph glyph-name="Ccaron" unicode="&#x10c;" horiz-adv-x="862" 
d="M887 134q-126 -97 -250.5 -143.5t-231.5 -46.5q-83 0 -142 21.5t-96.5 58t-55.5 85.5t-18 105t17 116t49 116.5t77.5 107t101.5 88.5t122 60t140 22q51 0 86 -10.5t57.5 -29.5t32.5 -44.5t10 -55.5q0 -38 -15.5 -81t-41 -85t-59.5 -80.5t-71 -68t-75 -47t-72 -17.5
q-45 0 -64.5 18t-19.5 48q0 26 15.5 59.5t42.5 68t63 68.5t77 60.5t84.5 43.5t86.5 18v-20q-40 -1 -81.5 -17t-80 -41t-73 -56.5t-60 -64t-40 -64t-14.5 -55.5q0 -21 15 -33.5t49 -12.5q32 0 67.5 16.5t70.5 44.5t67 64.5t56 76.5t38.5 80.5t14.5 76.5q0 25 -9 47
t-28.5 38.5t-51.5 25.5t-77 9q-70 0 -133.5 -21.5t-117.5 -57.5t-97.5 -84.5t-74.5 -103t-47.5 -111.5t-16.5 -111q0 -52 16.5 -97.5t51.5 -79.5t90 -54t132 -20q54 0 113.5 12t120.5 36t122 59t118 81l62 51l14 -16q-17 -14 -33 -27t-33 -26z" />
    <glyph glyph-name="ccaron" unicode="&#x10d;" horiz-adv-x="553" 
d="M207 -40q-46 0 -79 11.5t-54 30.5t-31 44t-10 52q0 37 19 70.5t51 59.5t74 41.5t88 15.5q29 0 47 -8.5t27 -18.5l17 19l14 -14l-52 -56l-14 14l21 23q-6 7 -20 14t-40 7q-41 0 -79.5 -15t-68 -38.5t-47 -53.5t-17.5 -60q0 -23 8.5 -44.5t27.5 -38t48 -26t70 -9.5
q56 0 108.5 17.5t104 48t103.5 71t107 86.5l14 -16q-57 -47 -110 -88t-106.5 -72t-108 -49t-112.5 -18z" />
    <glyph glyph-name="Dcaron" unicode="&#x10e;" horiz-adv-x="971" 
d="M240 385l-210 -325q18 10 36.5 14t37.5 4q45 0 87.5 -14.5t85 -32.5t86 -32.5t91.5 -14.5q99 0 182 38t142.5 97t93 130.5t33.5 139.5q0 44 -15.5 82.5t-48.5 67.5t-84.5 46t-123.5 17q-74 0 -131 -20t-96 -51.5t-59 -70t-20 -76.5q0 -28 11.5 -53.5t35.5 -45t60.5 -31
t85.5 -11.5t101.5 15.5t103.5 49.5l10 -16q-54 -35 -109 -52t-106 -17q-54 0 -94.5 13t-66.5 35.5t-39 51.5t-13 61q0 42 21.5 84t63 76.5t102 56t139.5 21.5q77 0 132.5 -18.5t91 -50.5t52 -74t16.5 -90q0 -47 -15.5 -97t-45 -97t-71.5 -89t-94.5 -73.5t-114 -50
t-130.5 -18.5q-47 0 -91 14.5t-86.5 32.5t-85.5 32.5t-87 14.5q-26 0 -54 -13t-54 -39l-24 -36q-3 2 -7 6q-8 8 -7 14q1 8 11.5 19t18.5 19l236 367z" />
    <glyph glyph-name="dcaron" unicode="&#x10f;" horiz-adv-x="748" 
d="M45 -5q32 0 78.5 18.5t95 47t94.5 63.5t77 69l25 34q-38 13 -80 19.5t-77 6.5q-45 0 -90 -20t-80.5 -51.5t-57.5 -71t-22 -79.5q0 -17 8.5 -26.5t28.5 -9.5zM402 -40q-48 0 -69 17t-21 48q0 21 10 48t29 59q-35 -30 -76.5 -58.5t-83 -50t-80 -35t-66.5 -13.5
q-34 0 -47.5 15t-13.5 38q0 50 25 94.5t65 78t88.5 53t95.5 19.5q38 0 82.5 -7t86.5 -22q41 53 88.5 108.5t95.5 109.5l14 -14q-53 -59 -105 -120.5t-94 -118t-68 -104.5t-26 -80q0 -22 16.5 -33.5t53.5 -11.5q56 0 108.5 17.5t104 48t103.5 71t107 86.5l14 -16
q-57 -47 -110 -88t-106.5 -72t-108 -49t-112.5 -18z" />
    <glyph glyph-name="Dcroat" unicode="&#x110;" horiz-adv-x="971" 
d="M240 385l-83 -129l120 -7l-2 -20l-131 8l-114 -177q18 10 36.5 14t37.5 4q45 0 87.5 -14.5t85 -32.5t86 -32.5t91.5 -14.5q99 0 182 38t142.5 97t93 130.5t33.5 139.5q0 44 -15.5 82.5t-48.5 67.5t-84.5 46t-123.5 17q-74 0 -131 -20t-96 -51.5t-59 -70t-20 -76.5
q0 -28 11.5 -53.5t35.5 -45t60.5 -31t85.5 -11.5t101.5 15.5t103.5 49.5l10 -16q-54 -35 -109 -52t-106 -17q-54 0 -94.5 13t-66.5 35.5t-39 51.5t-13 61q0 42 21.5 84t63 76.5t102 56t139.5 21.5q77 0 132.5 -18.5t91 -50.5t52 -74t16.5 -90q0 -47 -15.5 -97t-45 -97
t-71.5 -89t-94.5 -73.5t-114 -50t-130.5 -18.5q-47 0 -91 14.5t-86.5 32.5t-85.5 32.5t-87 14.5q-26 0 -54 -13t-54 -39l-24 -36q-3 2 -7 6q-8 8 -7 14q1 8 11.5 19t18.5 19l135 210l-84 6l2 20l95 -6l88 137z" />
    <glyph glyph-name="dcroat" unicode="&#x111;" horiz-adv-x="748" 
d="M45 -5q32 0 78.5 18.5t95 47t94.5 63.5t77 69l25 34q-38 13 -80 19.5t-77 6.5q-45 0 -90 -20t-80.5 -51.5t-57.5 -71t-22 -79.5q0 -17 8.5 -26.5t28.5 -9.5zM402 -40q-48 0 -69 17t-21 48q0 21 10 48t29 59q-35 -30 -76.5 -58.5t-83 -50t-80 -35t-66.5 -13.5
q-34 0 -47.5 15t-13.5 38q0 50 25 94.5t65 78t88.5 53t95.5 19.5q38 0 82.5 -7t86.5 -22q17 23 36.5 46.5t39.5 47.5l-111 7l2 20l125 -8q23 26 46 52.5t46 52.5l14 -14q-20 -23 -40.5 -46.5t-40.5 -46.5l86 -5l-2 -20l-101 6q-39 -47 -74.5 -92t-62.5 -85.5t-42.5 -74.5
t-15.5 -59q0 -22 16.5 -33.5t53.5 -11.5q56 0 108.5 17.5t104 48t103.5 71t107 86.5l14 -16q-57 -47 -110 -88t-106.5 -72t-108 -49t-112.5 -18z" />
    <glyph glyph-name="Emacron" unicode="&#x112;" horiz-adv-x="791" 
d="M323 414q-30 0 -58 -6q5 -44 27 -61.5t47 -17.5q27 0 41.5 12.5t14.5 27.5q0 23 -20 34t-52 11zM816 134q-48 -37 -115 -75.5t-142 -70.5t-152 -52.5t-146 -20.5t-118.5 17t-81 46t-46.5 67t-15 80q0 46 17 93.5t49 88.5t77.5 72t101.5 45v2q0 70 32.5 123.5t83.5 90
t113.5 55.5t122.5 19q42 0 79 -9.5t65.5 -28.5t45 -48t16.5 -68q0 -36 -12 -63t-30.5 -44.5t-41.5 -26t-44 -8.5q-32 0 -56 18.5t-24 53.5q0 15 7 35l18 -6q-2 -8 -3.5 -14.5t-1.5 -14.5q0 -26 17.5 -39t42.5 -13q18 0 37.5 7.5t35 22.5t25.5 38t10 54q0 34 -15 59.5
t-40.5 42t-59 24.5t-71.5 8q-56 0 -114.5 -17t-107 -51t-79.5 -83.5t-31 -114.5q27 6 58 6q41 0 66.5 -15.5t25.5 -49.5q0 -23 -20 -41.5t-56 -18.5q-16 0 -31.5 5t-28 16t-21.5 29.5t-12 44.5q-52 -14 -93.5 -43t-71 -67.5t-45.5 -82t-16 -86.5q0 -38 13.5 -72.5t43 -60.5
t75 -41.5t109.5 -15.5q67 0 143 20.5t149.5 52t139.5 70t113 74.5l62 51l14 -16q-17 -14 -33 -27t-33 -26zM489 796l387 -7v-20l-387 7v20z" />
    <glyph glyph-name="emacron" unicode="&#x113;" horiz-adv-x="495" 
d="M215 279q-30 0 -63 -27t-59 -65q16 -11 30.5 -16t27.5 -5q19 0 34.5 9t26 22.5t16.5 29t6 27.5q0 11 -4.5 18t-14.5 7zM149 -40q-67 0 -95 29t-28 72q0 37 17.5 79t45 77.5t61 58.5t65.5 23q23 0 33 -12t10 -29t-8 -36t-23 -35t-35 -27t-44 -11q-16 0 -32 5t-33 17
q-16 -27 -25 -55t-9 -53q0 -35 22.5 -59t77.5 -24q56 0 108.5 17.5t104 48t103.5 71t107 86.5l14 -16q-57 -47 -110 -88t-106.5 -72t-108 -49t-112.5 -18zM149 426l387 -7v-20l-387 7v20z" />
    <glyph glyph-name="Edotaccent" unicode="&#x116;" horiz-adv-x="791" 
d="M323 414q-30 0 -58 -6q5 -44 27 -61.5t47 -17.5q27 0 41.5 12.5t14.5 27.5q0 23 -20 34t-52 11zM816 134q-48 -37 -115 -75.5t-142 -70.5t-152 -52.5t-146 -20.5t-118.5 17t-81 46t-46.5 67t-15 80q0 46 17 93.5t49 88.5t77.5 72t101.5 45v2q0 70 32.5 123.5t83.5 90
t113.5 55.5t122.5 19q42 0 79 -9.5t65.5 -28.5t45 -48t16.5 -68q0 -36 -12 -63t-30.5 -44.5t-41.5 -26t-44 -8.5q-32 0 -56 18.5t-24 53.5q0 15 7 35l18 -6q-2 -8 -3.5 -14.5t-1.5 -14.5q0 -26 17.5 -39t42.5 -13q18 0 37.5 7.5t35 22.5t25.5 38t10 54q0 34 -15 59.5
t-40.5 42t-59 24.5t-71.5 8q-56 0 -114.5 -17t-107 -51t-79.5 -83.5t-31 -114.5q27 6 58 6q41 0 66.5 -15.5t25.5 -49.5q0 -23 -20 -41.5t-56 -18.5q-16 0 -31.5 5t-28 16t-21.5 29.5t-12 44.5q-52 -14 -93.5 -43t-71 -67.5t-45.5 -82t-16 -86.5q0 -38 13.5 -72.5t43 -60.5
t75 -41.5t109.5 -15.5q67 0 143 20.5t149.5 52t139.5 70t113 74.5l62 51l14 -16q-17 -14 -33 -27t-33 -26zM680 810q8 0 9.5 -4.5t1.5 -6.5q0 -14 -13 -25.5t-30 -11.5q-8 0 -9 4t-1 6q0 5 3.5 11.5t9.5 12.5t13.5 10t15.5 4z" />
    <glyph glyph-name="edotaccent" unicode="&#x117;" horiz-adv-x="495" 
d="M215 279q-30 0 -63 -27t-59 -65q16 -11 30.5 -16t27.5 -5q19 0 34.5 9t26 22.5t16.5 29t6 27.5q0 11 -4.5 18t-14.5 7zM149 -40q-67 0 -95 29t-28 72q0 37 17.5 79t45 77.5t61 58.5t65.5 23q23 0 33 -12t10 -29t-8 -36t-23 -35t-35 -27t-44 -11q-16 0 -32 5t-33 17
q-16 -27 -25 -55t-9 -53q0 -35 22.5 -59t77.5 -24q56 0 108.5 17.5t104 48t103.5 71t107 86.5l14 -16q-57 -47 -110 -88t-106.5 -72t-108 -49t-112.5 -18zM367 453q8 0 9.5 -4.5t1.5 -6.5q0 -14 -13 -25.5t-30 -11.5q-8 0 -9 4t-1 6q0 5 3.5 11.5t9.5 12.5t13.5 10t15.5 4z
" />
    <glyph glyph-name="Eogonek" unicode="&#x118;" horiz-adv-x="791" 
d="M323 414q-30 0 -58 -6q5 -44 27 -61.5t47 -17.5q27 0 41.5 12.5t14.5 27.5q0 23 -20 34t-52 11zM816 134q-48 -37 -115 -75.5t-142 -70.5t-152 -52.5t-146 -20.5q-40 0 -74 6q-44 -17 -64 -39.5t-20 -40.5q0 -12 9.5 -20.5t28.5 -8.5q17 0 38 6.5t47 23.5l10 -16
q-30 -19 -53.5 -26.5t-41.5 -7.5q-28 0 -43 14t-15 35t17 45t55 43q-81 23 -118 76.5t-37 119.5q0 46 17 93.5t49 88.5t77.5 72t101.5 45v2q0 70 32.5 123.5t83.5 90t113.5 55.5t122.5 19q42 0 79 -9.5t65.5 -28.5t45 -48t16.5 -68q0 -36 -12 -63t-30.5 -44.5t-41.5 -26
t-44 -8.5q-32 0 -56 18.5t-24 53.5q0 15 7 35l18 -6q-2 -8 -3.5 -14.5t-1.5 -14.5q0 -26 17.5 -39t42.5 -13q18 0 37.5 7.5t35 22.5t25.5 38t10 54q0 34 -15 59.5t-40.5 42t-59 24.5t-71.5 8q-56 0 -114.5 -17t-107 -51t-79.5 -83.5t-31 -114.5q27 6 58 6q41 0 66.5 -15.5
t25.5 -49.5q0 -23 -20 -41.5t-56 -18.5q-16 0 -31.5 5t-28 16t-21.5 29.5t-12 44.5q-52 -14 -93.5 -43t-71 -67.5t-45.5 -82t-16 -86.5q0 -38 13.5 -72.5t43 -60.5t75 -41.5t109.5 -15.5q67 0 143 20.5t149.5 52t139.5 70t113 74.5l62 51l14 -16q-17 -14 -33 -27t-33 -26z
" />
    <glyph glyph-name="eogonek" unicode="&#x119;" horiz-adv-x="495" 
d="M215 279q-30 0 -63 -27t-59 -65q16 -11 30.5 -16t27.5 -5q19 0 34.5 9t26 22.5t16.5 29t6 27.5q0 11 -4.5 18t-14.5 7zM149 -40q-10 0 -18.5 1t-16.5 2q-42 -17 -61.5 -39.5t-19.5 -39.5q0 -12 9.5 -20.5t28.5 -8.5q17 0 38 6.5t47 23.5l10 -16q-30 -19 -53.5 -26.5
t-41.5 -7.5q-28 0 -43 14t-15 35q0 20 17 44t53 43q-31 13 -44 36.5t-13 53.5q0 37 17.5 79t45 77.5t61 58.5t65.5 23q23 0 33 -12t10 -29t-8 -36t-23 -35t-35 -27t-44 -11q-16 0 -32 5t-33 17q-16 -27 -25 -55t-9 -53q0 -35 22.5 -59t77.5 -24q56 0 108.5 17.5t104 48
t103.5 71t107 86.5l14 -16q-57 -47 -110 -88t-106.5 -72t-108 -49t-112.5 -18z" />
    <glyph glyph-name="Ecaron" unicode="&#x11a;" horiz-adv-x="791" 
d="M323 414q-30 0 -58 -6q5 -44 27 -61.5t47 -17.5q27 0 41.5 12.5t14.5 27.5q0 23 -20 34t-52 11zM816 134q-48 -37 -115 -75.5t-142 -70.5t-152 -52.5t-146 -20.5t-118.5 17t-81 46t-46.5 67t-15 80q0 46 17 93.5t49 88.5t77.5 72t101.5 45v2q0 70 32.5 123.5t83.5 90
t113.5 55.5t122.5 19q42 0 79 -9.5t65.5 -28.5t45 -48t16.5 -68q0 -36 -12 -63t-30.5 -44.5t-41.5 -26t-44 -8.5q-32 0 -56 18.5t-24 53.5q0 15 7 35l18 -6q-2 -8 -3.5 -14.5t-1.5 -14.5q0 -26 17.5 -39t42.5 -13q18 0 37.5 7.5t35 22.5t25.5 38t10 54q0 34 -15 59.5
t-40.5 42t-59 24.5t-71.5 8q-56 0 -114.5 -17t-107 -51t-79.5 -83.5t-31 -114.5q27 6 58 6q41 0 66.5 -15.5t25.5 -49.5q0 -23 -20 -41.5t-56 -18.5q-16 0 -31.5 5t-28 16t-21.5 29.5t-12 44.5q-52 -14 -93.5 -43t-71 -67.5t-45.5 -82t-16 -86.5q0 -38 13.5 -72.5t43 -60.5
t75 -41.5t109.5 -15.5q67 0 143 20.5t149.5 52t139.5 70t113 74.5l62 51l14 -16q-17 -14 -33 -27t-33 -26zM904 838q-31 -3 -66 -14.5t-65 -24.5q-35 -15 -70 -33l-15 8q-3 18 -9 35q-5 14 -15.5 29t-28.5 24l8 18q34 -17 46 -43t14 -48q9 5 31 15.5t49.5 21.5t58.5 20
t60 12z" />
    <glyph glyph-name="ecaron" unicode="&#x11b;" horiz-adv-x="495" 
d="M215 279q-30 0 -63 -27t-59 -65q16 -11 30.5 -16t27.5 -5q19 0 34.5 9t26 22.5t16.5 29t6 27.5q0 11 -4.5 18t-14.5 7zM149 -40q-67 0 -95 29t-28 72q0 37 17.5 79t45 77.5t61 58.5t65.5 23q23 0 33 -12t10 -29t-8 -36t-23 -35t-35 -27t-44 -11q-16 0 -32 5t-33 17
q-16 -27 -25 -55t-9 -53q0 -35 22.5 -59t77.5 -24q56 0 108.5 17.5t104 48t103.5 71t107 86.5l14 -16q-57 -47 -110 -88t-106.5 -72t-108 -49t-112.5 -18zM509 463q-31 -3 -66 -14.5t-65 -24.5q-35 -15 -70 -33l-15 8q-3 18 -9 35q-5 14 -15.5 29t-28.5 24l8 18
q34 -17 46 -43t14 -48q9 5 31 15.5t49.5 21.5t58.5 20t60 12z" />
    <glyph glyph-name="Gcircumflex" unicode="&#x11c;" horiz-adv-x="840" 
d="M844 532q-20 -7 -30.5 -23t-10.5 -33q0 -19 12.5 -28.5t29.5 -9.5q18 0 39 9t38 26.5t28.5 43t11.5 59.5q0 24 -10 46t-32.5 39t-59.5 27.5t-91 10.5q-128 0 -226 -34.5t-165 -86.5t-101.5 -114.5t-34.5 -117.5q0 -30 11 -56.5t33.5 -46t57 -30.5t80.5 -11
q45 0 93.5 12.5t96.5 36.5t93 58t83 76l15 -13q-31 -38 -58 -73t-52 -69q-53 -71 -102 -130.5t-109.5 -103t-140.5 -67.5t-195 -24q-60 0 -115.5 12t-98 39t-69 70t-29.5 105h20q3 -57 27.5 -96.5t64.5 -63.5t92 -35t108 -11q111 0 188.5 23.5t136.5 65.5t107 100.5
t99 127.5l34 46q-69 -51 -144.5 -78.5t-144.5 -27.5q-51 0 -89 12.5t-63 34.5t-37.5 52t-12.5 65q0 58 36 124t105.5 121t171.5 91.5t234 36.5q60 0 100.5 -12t65.5 -32t36 -46t11 -53q0 -39 -13.5 -68.5t-33.5 -49.5t-44.5 -30t-45.5 -10q-26 0 -44 14.5t-18 43.5
q0 23 13.5 43.5t41.5 30.5zM660 790q31 3 66 14.5t65 24.5q35 15 70 33l15 -8q2 -18 8 -35q5 -14 16 -29t29 -24l-8 -18q-17 9 -28.5 20t-18 23t-9.5 24.5t-4 23.5q-9 -5 -31 -15.5t-49.5 -21.5t-59 -20t-59.5 -12z" />
    <glyph glyph-name="gcircumflex" unicode="&#x11d;" horiz-adv-x="599" 
d="M-80 -339q43 0 85 23t82 61.5t78 88.5t73 104q-74 -17 -137 -51t-109.5 -72t-72.5 -75t-26 -60q0 -19 27 -19zM415 227q-38 13 -80 19.5t-77 6.5q-45 0 -90 -20t-80.5 -51.5t-57.5 -71t-22 -79.5q0 -17 8.5 -26.5t28.5 -9.5q34 0 82.5 19.5t99.5 50.5t97.5 67.5
t75.5 71.5zM454 247q-25 -39 -47 -74t-42.5 -69t-41.5 -68t-43 -70q37 6 77 6q53 0 107.5 -12t109.5 -39l-8 -18q-54 26 -106 37.5t-103 11.5q-23 0 -45.5 -1.5t-45.5 -6.5q-37 -58 -78 -112.5t-84.5 -97t-89.5 -68t-94 -25.5q-24 0 -35.5 10.5t-11.5 28.5q0 26 29 67t80 83
t120.5 78t150.5 53q11 18 22.5 36.5t24.5 40t28 47t34 57.5q-35 -31 -78 -61t-86.5 -53.5t-83.5 -38t-69 -14.5q-34 0 -47.5 15t-13.5 38q0 50 25 94.5t65 78t88.5 53t95.5 19.5q38 0 82.5 -6.5t86.5 -22.5q2 4 5 7.5t6 7.5zM246 402q31 3 66 14.5t65 24.5q35 15 70 33
l15 -8q2 -18 8 -35q5 -14 16 -29t29 -24l-8 -18q-17 9 -28.5 20t-18 23t-9.5 24.5t-4 23.5q-9 -5 -31 -15.5t-49.5 -21.5t-59 -20t-59.5 -12z" />
    <glyph glyph-name="Gbreve" unicode="&#x11e;" horiz-adv-x="840" 
d="M844 532q-20 -7 -30.5 -23t-10.5 -33q0 -19 12.5 -28.5t29.5 -9.5q18 0 39 9t38 26.5t28.5 43t11.5 59.5q0 24 -10 46t-32.5 39t-59.5 27.5t-91 10.5q-128 0 -226 -34.5t-165 -86.5t-101.5 -114.5t-34.5 -117.5q0 -30 11 -56.5t33.5 -46t57 -30.5t80.5 -11
q45 0 93.5 12.5t96.5 36.5t93 58t83 76l15 -13q-31 -38 -58 -73t-52 -69q-53 -71 -102 -130.5t-109.5 -103t-140.5 -67.5t-195 -24q-60 0 -115.5 12t-98 39t-69 70t-29.5 105h20q3 -57 27.5 -96.5t64.5 -63.5t92 -35t108 -11q111 0 188.5 23.5t136.5 65.5t107 100.5
t99 127.5l34 46q-69 -51 -144.5 -78.5t-144.5 -27.5q-51 0 -89 12.5t-63 34.5t-37.5 52t-12.5 65q0 58 36 124t105.5 121t171.5 91.5t234 36.5q60 0 100.5 -12t65.5 -32t36 -46t11 -53q0 -39 -13.5 -68.5t-33.5 -49.5t-44.5 -30t-45.5 -10q-26 0 -44 14.5t-18 43.5
q0 23 13.5 43.5t41.5 30.5zM858 870q-4 -16 -4 -29q0 -23 13 -35.5t33 -12.5q26 0 55.5 16.5t55.5 48.5l16 -12q-29 -36 -63.5 -54.5t-63.5 -18.5t-47.5 17t-18.5 51q0 17 4 33z" />
    <glyph glyph-name="gbreve" unicode="&#x11f;" horiz-adv-x="599" 
d="M-80 -339q43 0 85 23t82 61.5t78 88.5t73 104q-74 -17 -137 -51t-109.5 -72t-72.5 -75t-26 -60q0 -19 27 -19zM415 227q-38 13 -80 19.5t-77 6.5q-45 0 -90 -20t-80.5 -51.5t-57.5 -71t-22 -79.5q0 -17 8.5 -26.5t28.5 -9.5q34 0 82.5 19.5t99.5 50.5t97.5 67.5
t75.5 71.5zM454 247q-25 -39 -47 -74t-42.5 -69t-41.5 -68t-43 -70q37 6 77 6q53 0 107.5 -12t109.5 -39l-8 -18q-54 26 -106 37.5t-103 11.5q-23 0 -45.5 -1.5t-45.5 -6.5q-37 -58 -78 -112.5t-84.5 -97t-89.5 -68t-94 -25.5q-24 0 -35.5 10.5t-11.5 28.5q0 26 29 67t80 83
t120.5 78t150.5 53q11 18 22.5 36.5t24.5 40t28 47t34 57.5q-35 -31 -78 -61t-86.5 -53.5t-83.5 -38t-69 -14.5q-34 0 -47.5 15t-13.5 38q0 50 25 94.5t65 78t88.5 53t95.5 19.5q38 0 82.5 -6.5t86.5 -22.5q2 4 5 7.5t6 7.5zM379 478q-4 -16 -4 -29q0 -23 13 -35.5t33 -12.5
q26 0 55.5 16.5t55.5 48.5l16 -12q-29 -36 -63.5 -54.5t-63.5 -18.5t-47.5 17t-18.5 51q0 17 4 33z" />
    <glyph glyph-name="Gdotaccent" unicode="&#x120;" horiz-adv-x="840" 
d="M844 532q-20 -7 -30.5 -23t-10.5 -33q0 -19 12.5 -28.5t29.5 -9.5q18 0 39 9t38 26.5t28.5 43t11.5 59.5q0 24 -10 46t-32.5 39t-59.5 27.5t-91 10.5q-128 0 -226 -34.5t-165 -86.5t-101.5 -114.5t-34.5 -117.5q0 -30 11 -56.5t33.5 -46t57 -30.5t80.5 -11
q45 0 93.5 12.5t96.5 36.5t93 58t83 76l15 -13q-31 -38 -58 -73t-52 -69q-53 -71 -102 -130.5t-109.5 -103t-140.5 -67.5t-195 -24q-60 0 -115.5 12t-98 39t-69 70t-29.5 105h20q3 -57 27.5 -96.5t64.5 -63.5t92 -35t108 -11q111 0 188.5 23.5t136.5 65.5t107 100.5
t99 127.5l34 46q-69 -51 -144.5 -78.5t-144.5 -27.5q-51 0 -89 12.5t-63 34.5t-37.5 52t-12.5 65q0 58 36 124t105.5 121t171.5 91.5t234 36.5q60 0 100.5 -12t65.5 -32t36 -46t11 -53q0 -39 -13.5 -68.5t-33.5 -49.5t-44.5 -30t-45.5 -10q-26 0 -44 14.5t-18 43.5
q0 23 13.5 43.5t41.5 30.5zM891 814q8 0 9.5 -4.5t1.5 -6.5q0 -14 -13 -25.5t-30 -11.5q-8 0 -9 4t-1 6q0 5 3.5 11.5t9.5 12.5t13.5 10t15.5 4z" />
    <glyph glyph-name="gdotaccent" unicode="&#x121;" horiz-adv-x="599" 
d="M-80 -339q43 0 85 23t82 61.5t78 88.5t73 104q-74 -17 -137 -51t-109.5 -72t-72.5 -75t-26 -60q0 -19 27 -19zM415 227q-38 13 -80 19.5t-77 6.5q-45 0 -90 -20t-80.5 -51.5t-57.5 -71t-22 -79.5q0 -17 8.5 -26.5t28.5 -9.5q34 0 82.5 19.5t99.5 50.5t97.5 67.5
t75.5 71.5zM454 247q-25 -39 -47 -74t-42.5 -69t-41.5 -68t-43 -70q37 6 77 6q53 0 107.5 -12t109.5 -39l-8 -18q-54 26 -106 37.5t-103 11.5q-23 0 -45.5 -1.5t-45.5 -6.5q-37 -58 -78 -112.5t-84.5 -97t-89.5 -68t-94 -25.5q-24 0 -35.5 10.5t-11.5 28.5q0 26 29 67t80 83
t120.5 78t150.5 53q11 18 22.5 36.5t24.5 40t28 47t34 57.5q-35 -31 -78 -61t-86.5 -53.5t-83.5 -38t-69 -14.5q-34 0 -47.5 15t-13.5 38q0 50 25 94.5t65 78t88.5 53t95.5 19.5q38 0 82.5 -6.5t86.5 -22.5q2 4 5 7.5t6 7.5zM418 450q8 0 9.5 -4.5t1.5 -6.5q0 -14 -13 -25.5
t-30 -11.5q-8 0 -9 4t-1 6q0 5 3.5 11.5t9.5 12.5t13.5 10t15.5 4z" />
    <glyph glyph-name="uni0122" unicode="&#x122;" horiz-adv-x="840" 
d="M844 532q-20 -7 -30.5 -23t-10.5 -33q0 -19 12.5 -28.5t29.5 -9.5q18 0 39 9t38 26.5t28.5 43t11.5 59.5q0 24 -10 46t-32.5 39t-59.5 27.5t-91 10.5q-128 0 -226 -34.5t-165 -86.5t-101.5 -114.5t-34.5 -117.5q0 -30 11 -56.5t33.5 -46t57 -30.5t80.5 -11
q45 0 93.5 12.5t96.5 36.5t93 58t83 76l15 -13q-31 -38 -58 -73t-52 -69q-53 -71 -102 -130.5t-109.5 -103t-140.5 -67.5t-195 -24q-60 0 -115.5 12t-98 39t-69 70t-29.5 105h20q3 -57 27.5 -96.5t64.5 -63.5t92 -35t108 -11q111 0 188.5 23.5t136.5 65.5t107 100.5
t99 127.5l34 46q-69 -51 -144.5 -78.5t-144.5 -27.5q-51 0 -89 12.5t-63 34.5t-37.5 52t-12.5 65q0 58 36 124t105.5 121t171.5 91.5t234 36.5q60 0 100.5 -12t65.5 -32t36 -46t11 -53q0 -39 -13.5 -68.5t-33.5 -49.5t-44.5 -30t-45.5 -10q-26 0 -44 14.5t-18 43.5
q0 23 13.5 43.5t41.5 30.5z" />
    <glyph glyph-name="uni0123" unicode="&#x123;" horiz-adv-x="599" 
d="M-80 -339q43 0 85 23t82 61.5t78 88.5t73 104q-74 -17 -137 -51t-109.5 -72t-72.5 -75t-26 -60q0 -19 27 -19zM415 227q-38 13 -80 19.5t-77 6.5q-45 0 -90 -20t-80.5 -51.5t-57.5 -71t-22 -79.5q0 -17 8.5 -26.5t28.5 -9.5q34 0 82.5 19.5t99.5 50.5t97.5 67.5
t75.5 71.5zM454 247q-25 -39 -47 -74t-42.5 -69t-41.5 -68t-43 -70q37 6 77 6q53 0 107.5 -12t109.5 -39l-8 -18q-54 26 -106 37.5t-103 11.5q-23 0 -45.5 -1.5t-45.5 -6.5q-37 -58 -78 -112.5t-84.5 -97t-89.5 -68t-94 -25.5q-24 0 -35.5 10.5t-11.5 28.5q0 26 29 67t80 83
t120.5 78t150.5 53q11 18 22.5 36.5t24.5 40t28 47t34 57.5q-35 -31 -78 -61t-86.5 -53.5t-83.5 -38t-69 -14.5q-34 0 -47.5 15t-13.5 38q0 50 25 94.5t65 78t88.5 53t95.5 19.5q38 0 82.5 -6.5t86.5 -22.5q2 4 5 7.5t6 7.5z" />
    <glyph glyph-name="Hcircumflex" unicode="&#x124;" horiz-adv-x="1383" 
d="M840 -19q19 20 44 46q20 22 48 51.5t60 64.5q-59 19 -117.5 37t-120.5 29q-39 -49 -91 -92.5t-114.5 -76.5t-134.5 -52.5t-151 -19.5q-21 0 -49 2.5t-57.5 9.5t-59 19t-52.5 30.5t-37.5 44t-15.5 59.5h20q1 -45 29.5 -73.5t68 -44.5t82 -21.5t71.5 -5.5q75 0 143.5 18
t128.5 48.5t109.5 71.5t87.5 87q-41 6 -83 6q-76 0 -153.5 -11t-152.5 -38l-6 18q78 29 156.5 40t155.5 11q24 0 48 -2.5t49 -6.5q40 52 61.5 106t21.5 103q0 36 -13 66.5t-41 53t-71.5 35.5t-103.5 13q-78 0 -140.5 -20.5t-106.5 -51.5t-67.5 -67.5t-23.5 -67.5
q0 -29 24.5 -48.5t77.5 -19.5q35 0 67.5 13t62 33t55.5 45.5t49 51.5l14 -14q-23 -26 -51 -52.5t-59.5 -48t-66 -35t-71.5 -13.5q-63 0 -92.5 25t-29.5 63q0 34 25 74t71.5 74t112.5 56.5t149 22.5q66 0 113 -14.5t77 -39.5t44.5 -59.5t14.5 -74.5q0 -50 -21.5 -104.5
t-60.5 -108.5q60 -11 119.5 -30t119.5 -37q19 20 36.5 40.5t37.5 43.5q31 36 71 81t89.5 92t109 91.5t128.5 80t148 58t169 24.5v-20q-87 -2 -164 -24t-144.5 -57t-125.5 -79t-107 -90.5t-88.5 -91t-69.5 -79.5l-67 -77q57 -17 113.5 -28.5t110.5 -11.5q40 0 77 9t68 31
q16 11 31 24.5t31 26.5q3 -3 6 -7q6 -8 7 -9q-17 -14 -32.5 -27.5t-32.5 -25.5q-35 -24 -74 -33t-81 -9q-62 0 -121 13t-118 31q-34 -37 -62.5 -67.5t-50.5 -53.5q-26 -26 -47 -48z" />
    <glyph glyph-name="hcircumflex" unicode="&#x125;" horiz-adv-x="724" 
d="M290 468l-267 -377q30 25 65.5 51t72 47.5t72.5 35.5t66 14q34 0 51 -14.5t17 -35.5q0 -17 -12 -34.5t-26 -36t-26 -38.5t-12 -42q0 -26 19.5 -39t53.5 -13q37 0 87 14t105 39.5t112.5 62.5t111.5 83l21 18l14 -16l-22 -18q-56 -46 -115.5 -83.5t-116 -64t-107.5 -41
t-90 -14.5q-43 0 -68 17.5t-25 54.5q0 22 12 43.5t26 41t26 36.5t12 30q0 12 -12.5 21t-35.5 9q-37 0 -82 -21.5t-90 -52t-85 -63.5t-65 -56l-24 -34l-16 12l336 475l1 1zM167 521q31 3 66 14.5t65 24.5q35 15 70 33l15 -8q2 -18 8 -35q5 -14 16 -29t29 -24l-8 -18
q-17 9 -28.5 20t-18 23t-9.5 24.5t-4 23.5q-9 -5 -31 -15.5t-49.5 -21.5t-59 -20t-59.5 -12z" />
    <glyph glyph-name="Hbar" unicode="&#x126;" horiz-adv-x="1383" 
d="M1145 318q-86 1 -156 2q-30 0 -58.5 0.5t-52 1t-38.5 0.5h-18q-20 -48 -55 -96q60 -11 119.5 -30t119.5 -37q19 20 36.5 40.5t37.5 43.5zM703 343l106 -1q20 51 20 97q0 36 -13 66.5t-41 53t-71.5 35.5t-103.5 13q-78 0 -140.5 -20.5t-106.5 -51.5t-67.5 -67.5
t-23.5 -67.5q0 -29 24.5 -48.5t77.5 -19.5q35 0 67.5 13t62 33t55.5 45.5t49 51.5l14 -14q-23 -26 -51 -52.5t-59.5 -48t-66 -35t-71.5 -13.5q-63 0 -92.5 25t-29.5 63q0 34 25 74t71.5 74t112.5 56.5t149 22.5q66 0 113 -14.5t77 -39.5t44.5 -59.5t14.5 -74.5
q0 -45 -19 -97h17.5t39.5 -0.5t53.5 -1t60.5 -0.5q72 -1 162 -2q51 54 115 112t143 106t172 79.5t202 34.5v-20q-102 -2 -190 -31.5t-163 -74.5t-137.5 -100t-112.5 -107l120 -1v-20h-71q-30 0 -67 1q-23 -24 -42 -46t-36 -42l-67 -77q57 -17 113.5 -28.5t110.5 -11.5
q40 0 77 9t68 31q16 11 31 24.5t31 26.5q3 -3 6 -7q6 -8 7 -9q-17 -14 -32.5 -27.5t-32.5 -25.5q-35 -24 -74 -33t-81 -9q-62 0 -121 13t-118 31q-34 -37 -62.5 -67.5t-50.5 -53.5q-26 -26 -47 -48l-14 14q19 20 44 46q20 22 48 51.5t60 64.5q-59 19 -117.5 37t-120.5 29
q-39 -49 -91 -92.5t-114.5 -76.5t-134.5 -52.5t-151 -19.5q-21 0 -49 2.5t-57.5 9.5t-59 19t-52.5 30.5t-37.5 44t-15.5 59.5h20q1 -45 29.5 -73.5t68 -44.5t82 -21.5t71.5 -5.5q75 0 143.5 18t128.5 48.5t109.5 71.5t87.5 87q-41 6 -83 6q-76 0 -153.5 -11t-152.5 -38
l-6 18q78 29 156.5 40t155.5 11q24 0 48 -2.5t49 -6.5q33 43 55 92l-98 1v20z" />
    <glyph glyph-name="hbar" unicode="&#x127;" horiz-adv-x="724" 
d="M290 468l-79 -112l95 -3v-20l-109 3l-174 -245q30 25 65.5 51t72 47.5t72.5 35.5t66 14q34 0 51 -14.5t17 -35.5q0 -17 -12 -34.5t-26 -36t-26 -38.5t-12 -42q0 -26 19.5 -39t53.5 -13q37 0 87 14t105 39.5t112.5 62.5t111.5 83l21 18l14 -16l-22 -18
q-56 -46 -115.5 -83.5t-116 -64t-107.5 -41t-90 -14.5q-43 0 -68 17.5t-25 54.5q0 22 12 43.5t26 41t26 36.5t12 30q0 12 -12.5 21t-35.5 9q-37 0 -82 -21.5t-90 -52t-85 -63.5t-65 -56l-24 -34l-16 12l236 333l-63 3v20l77 -3l86 122l1 1z" />
    <glyph glyph-name="Itilde" unicode="&#x128;" horiz-adv-x="805" 
d="M429 79q0 -34 3 -65q60 33 116 75.5t105.5 90.5t90.5 98.5t70 98.5t45.5 91.5t16.5 77.5t-19.5 53.5t-64.5 19.5q-52 0 -99.5 -23t-88 -62.5t-73 -93t-55 -113.5t-35 -123.5t-12.5 -124.5zM9 112q-5 -17 -6.5 -31t-1.5 -25q0 -33 13.5 -56t37 -37t54 -20t64.5 -6
q60 0 122 18t122 49q-3 18 -4 36.5t-1 38.5q0 63 13 129.5t37 128.5t58 117t77 96t92.5 65t105.5 24q55 0 79.5 -25t24.5 -68q0 -35 -17 -80t-47.5 -95.5t-73 -103t-93.5 -102t-109.5 -94t-120.5 -77.5q9 -54 31.5 -99t58.5 -76l-12 -16q-38 33 -61.5 79.5t-34.5 102.5
q-61 -32 -123.5 -50t-123.5 -18q-38 0 -72 7t-60 23t-41.5 43t-15.5 66q0 14 1.5 29.5t6.5 32.5zM1117 724q-28 -26 -57 -36t-58 -10q-30 0 -58.5 6.5t-57.5 14.5t-58.5 14.5t-60.5 6.5t-62 -9.5t-63 -32.5l-12 16q35 26 69 36t68 10q30 0 59 -6.5t58 -14.5t58.5 -14.5
t59.5 -6.5q26 0 51.5 8.5t49.5 31.5z" />
    <glyph glyph-name="itilde" unicode="&#x129;" horiz-adv-x="452" 
d="M106 -40q-47 0 -75 18.5t-28 59.5q0 32 21 79t74 112l16 -12q-51 -62 -71 -106t-20 -73q0 -30 22.5 -44t60.5 -14q56 0 108.5 17.5t104 48t103.5 71t107 86.5l14 -16q-57 -47 -110 -88t-106.5 -72t-108 -49t-112.5 -18zM473 396q-28 -26 -57 -36t-58 -10q-30 0 -58.5 6.5
t-57.5 14.5t-58.5 14.5t-60.5 6.5t-62 -9.5t-63 -32.5l-12 16q35 26 69 36t68 10q30 0 59 -6.5t58 -14.5t58.5 -14.5t59.5 -6.5q26 0 51.5 8.5t49.5 31.5z" />
    <glyph glyph-name="Imacron" unicode="&#x12a;" horiz-adv-x="805" 
d="M429 79q0 -34 3 -65q60 33 116 75.5t105.5 90.5t90.5 98.5t70 98.5t45.5 91.5t16.5 77.5t-19.5 53.5t-64.5 19.5q-52 0 -99.5 -23t-88 -62.5t-73 -93t-55 -113.5t-35 -123.5t-12.5 -124.5zM9 112q-5 -17 -6.5 -31t-1.5 -25q0 -33 13.5 -56t37 -37t54 -20t64.5 -6
q60 0 122 18t122 49q-3 18 -4 36.5t-1 38.5q0 63 13 129.5t37 128.5t58 117t77 96t92.5 65t105.5 24q55 0 79.5 -25t24.5 -68q0 -35 -17 -80t-47.5 -95.5t-73 -103t-93.5 -102t-109.5 -94t-120.5 -77.5q9 -54 31.5 -99t58.5 -76l-12 -16q-38 33 -61.5 79.5t-34.5 102.5
q-61 -32 -123.5 -50t-123.5 -18q-38 0 -72 7t-60 23t-41.5 43t-15.5 66q0 14 1.5 29.5t6.5 32.5zM699 738l387 -7v-20l-387 7v20z" />
    <glyph glyph-name="imacron" unicode="&#x12b;" horiz-adv-x="452" 
d="M106 -40q-47 0 -75 18.5t-28 59.5q0 32 21 79t74 112l16 -12q-51 -62 -71 -106t-20 -73q0 -30 22.5 -44t60.5 -14q56 0 108.5 17.5t104 48t103.5 71t107 86.5l14 -16q-57 -47 -110 -88t-106.5 -72t-108 -49t-112.5 -18zM70 431l387 -7v-20l-387 7v20z" />
    <glyph glyph-name="Iogonek" unicode="&#x12e;" horiz-adv-x="805" 
d="M429 79q0 -34 3 -65q60 33 116 75.5t105.5 90.5t90.5 98.5t70 98.5t45.5 91.5t16.5 77.5t-19.5 53.5t-64.5 19.5q-52 0 -99.5 -23t-88 -62.5t-73 -93t-55 -113.5t-35 -123.5t-12.5 -124.5zM9 112q-5 -17 -6.5 -31t-1.5 -25q0 -33 13.5 -56t37 -37t54 -20t64.5 -6
q60 0 122 18t122 49q-3 18 -4 36.5t-1 38.5q0 63 13 129.5t37 128.5t58 117t77 96t92.5 65t105.5 24q55 0 79.5 -25t24.5 -68q0 -35 -17 -80t-47.5 -95.5t-73 -103t-93.5 -102t-109.5 -94t-120.5 -77.5q9 -54 31.5 -99t58.5 -76l-12 -16q-38 33 -61.5 79.5t-34.5 102.5
q-61 -31 -123 -49t-123 -19q-42 -17 -61.5 -39t-19.5 -40q0 -12 9.5 -20.5t28.5 -8.5q17 0 38 6.5t47 23.5l10 -16q-30 -19 -53.5 -26.5t-41.5 -7.5q-28 0 -43 14t-15 35q0 19 14.5 41t45.5 40q-31 3 -58 12t-47.5 25.5t-32 41t-11.5 58.5q0 14 1.5 29.5t6.5 32.5z" />
    <glyph glyph-name="iogonek" unicode="&#x12f;" horiz-adv-x="452" 
d="M286 450q8 0 9.5 -4.5t1.5 -6.5q0 -14 -13 -25.5t-30 -11.5q-8 0 -9 4t-1 6q0 5 3.5 11.5t9.5 12.5t13.5 10t15.5 4zM106 -40h-9.5t-9.5 1q-43 -17 -63 -39.5t-20 -40.5q0 -12 9.5 -20.5t28.5 -8.5q17 0 38 6.5t47 23.5l10 -16q-30 -19 -53.5 -26.5t-41.5 -7.5
q-28 0 -43 14t-15 35q0 20 17 44t53 43q-24 8 -37.5 25t-13.5 45q0 32 21 79t74 112l16 -12q-51 -62 -71 -106t-20 -73q0 -30 22.5 -44t60.5 -14q56 0 108.5 17.5t104 48t103.5 71t107 86.5l14 -16q-57 -47 -110 -88t-106.5 -72t-108 -49t-112.5 -18z" />
    <glyph glyph-name="Idotaccent" unicode="&#x130;" horiz-adv-x="805" 
d="M429 79q0 -34 3 -65q60 33 116 75.5t105.5 90.5t90.5 98.5t70 98.5t45.5 91.5t16.5 77.5t-19.5 53.5t-64.5 19.5q-52 0 -99.5 -23t-88 -62.5t-73 -93t-55 -113.5t-35 -123.5t-12.5 -124.5zM9 112q-5 -17 -6.5 -31t-1.5 -25q0 -33 13.5 -56t37 -37t54 -20t64.5 -6
q60 0 122 18t122 49q-3 18 -4 36.5t-1 38.5q0 63 13 129.5t37 128.5t58 117t77 96t92.5 65t105.5 24q55 0 79.5 -25t24.5 -68q0 -35 -17 -80t-47.5 -95.5t-73 -103t-93.5 -102t-109.5 -94t-120.5 -77.5q9 -54 31.5 -99t58.5 -76l-12 -16q-38 33 -61.5 79.5t-34.5 102.5
q-61 -32 -123.5 -50t-123.5 -18q-38 0 -72 7t-60 23t-41.5 43t-15.5 66q0 14 1.5 29.5t6.5 32.5zM880 740q8 0 9.5 -4.5t1.5 -6.5q0 -14 -13 -25.5t-30 -11.5q-8 0 -9 4t-1 6q0 5 3.5 11.5t9.5 12.5t13.5 10t15.5 4z" />
    <glyph glyph-name="dotlessi" unicode="&#x131;" horiz-adv-x="452" 
d="M106 -40q-47 0 -75 18.5t-28 59.5q0 32 21 79t74 112l16 -12q-51 -62 -71 -106t-20 -73q0 -30 22.5 -44t60.5 -14q56 0 108.5 17.5t104 48t103.5 71t107 86.5l14 -16q-57 -47 -110 -88t-106.5 -72t-108 -49t-112.5 -18z" />
    <glyph glyph-name="Jcircumflex" unicode="&#x134;" horiz-adv-x="635" 
d="M-297 -384q39 0 98.5 30t131 81t151 119.5t157.5 145.5q-85 -23 -162 -56.5t-139.5 -69.5t-108.5 -69t-69 -54q-42 -40 -63 -69t-21 -44q0 -14 25 -14zM76 201q0 -59 17.5 -113.5t56.5 -101.5q29 10 58.5 18t59.5 15q79 80 150.5 164t125.5 163t86 148t32 120
q0 31 -9.5 52.5t-26 35t-38.5 19t-46 5.5q-61 0 -119.5 -21.5t-110 -59.5t-95 -89t-75 -109t-49 -121t-17.5 -125zM436 21q-42 -2 -83 -7.5t-81 -13.5q-81 -82 -165 -155.5t-160 -128.5t-139.5 -87.5t-104.5 -32.5q-45 0 -45 34q0 19 21 50.5t69 76.5q18 17 53.5 44t85 57.5
t111 62t131.5 57.5q-38 48 -55.5 105t-17.5 118q0 64 18.5 129.5t51 126t78 113.5t99.5 92t114.5 61.5t124.5 22.5q28 0 53.5 -7t44.5 -22.5t30.5 -40.5t11.5 -62q0 -50 -31 -118.5t-83.5 -146t-122 -161t-147.5 -163.5q34 7 68.5 11t69.5 5v-20zM525 823q31 3 66 14.5
t65 24.5q35 15 70 33l15 -8q2 -18 8 -35q5 -14 16 -29t29 -24l-8 -18q-17 9 -28.5 20t-18 23t-9.5 24.5t-4 23.5q-9 -5 -31 -15.5t-49.5 -21.5t-59 -20t-59.5 -12z" />
    <glyph glyph-name="jcircumflex" unicode="&#x135;" horiz-adv-x="335" 
d="M77 203q20 17 46 34t46 25l14 -14q-35 -32 -75 -82.5t-82 -105.5q-51 -67 -106.5 -136.5t-117 -126.5t-129 -93t-141.5 -36q-39 0 -77 7.5t-70 20.5l8 18q30 -11 65.5 -18.5t73.5 -7.5q71 0 136 35t124 90.5t113.5 124t104.5 134.5q28 37 54 71t51 63q-4 -4 -9 -8
t-13 -10l-24 -19l-13 16zM104 402q31 3 66 14.5t65 24.5q35 15 70 33l15 -8q2 -18 8 -35q5 -14 16 -29t29 -24l-8 -18q-17 9 -28.5 20t-18 23t-9.5 24.5t-4 23.5q-9 -5 -31 -15.5t-49.5 -21.5t-59 -20t-59.5 -12z" />
    <glyph glyph-name="uni0136" unicode="&#x136;" horiz-adv-x="1655" 
d="M916 364l-10 -28t-12 -28q39 3 78 18q-7 14 -20.5 24t-35.5 14zM872 307q15 30 24 60h-10q-38 0 -55.5 -10t-17.5 -21t14.5 -20t42.5 -9h2zM1125 -85q-37 0 -67.5 9.5t-53 29t-35 50t-12.5 71.5q0 25 4 49t9 48.5t9 49.5t4 51q0 18 -4 33q-23 -8 -46.5 -13t-49.5 -6
q-36 -68 -96 -131.5t-140.5 -113t-180 -79.5t-214.5 -30q-41 0 -85 7.5t-81.5 25.5t-61.5 48t-24 76q0 24 8 53l20 -6q-8 -29 -8 -47q0 -40 22 -66.5t56.5 -42t75 -22t78.5 -6.5q110 0 205.5 28t173.5 74.5t136 107t94 124.5q-34 2 -51 16.5t-17 32.5q0 19 22.5 35t70.5 16
h8t8 -1q11 42 11 77q0 41 -14 76.5t-44 61.5t-76 41t-110 15q-83 0 -155.5 -27.5t-126 -68t-84.5 -86.5t-31 -83q0 -29 24 -47.5t77 -18.5q22 0 49.5 6.5t59.5 24.5t68.5 49t77.5 80l16 -12q-42 -51 -81 -83.5t-73.5 -51.5t-63.5 -26t-53 -7q-63 0 -92 24t-29 62
q0 40 32.5 89.5t88.5 93t132.5 73t163.5 29.5q69 0 119 -16.5t82 -45t47.5 -68t15.5 -84.5q0 -37 -11 -79q28 -5 45 -18t25 -32q61 26 119 67.5t113 86.5q47 38 99 77t110 70.5t121 51t133 19.5v-20q-70 0 -131 -18.5t-116.5 -49t-105.5 -69t-98 -77.5q-60 -49 -117 -91.5
t-120 -67.5q4 -17 4 -40q0 -25 -4 -49t-9 -48.5t-9 -49.5t-4 -51q0 -72 41.5 -106t106.5 -34q67 0 143 20.5t149.5 52t139.5 70t113 74.5l62 51l14 -16q-17 -14 -33 -27t-33 -26q-48 -37 -115 -75.5t-142 -70.5t-152 -52.5t-146 -20.5z" />
    <glyph glyph-name="uni0137" unicode="&#x137;" horiz-adv-x="733" 
d="M297 502q-22 -27 -45 -60.5t-45.5 -68.5t-44.5 -70.5t-42 -68.5q31 23 67 51.5t71 59t67.5 62t57.5 61t39.5 55.5t14.5 46q0 8 -4 13.5t-15 5.5q-20 0 -53 -21t-68 -65zM387 -40q-33 0 -54.5 8.5t-34 23.5t-17.5 34.5t-5 40.5q0 26 5.5 56t16.5 80q30 -27 74 -27
q40 0 73.5 10t58.5 25.5t39 33t14 32.5q0 11 -13 19t-42 8q-41 0 -85.5 -11.5t-89.5 -31t-89.5 -44.5t-86 -52t-77.5 -53.5t-64 -48.5q-17 -23 -31.5 -39.5t-25.5 -26.5q-12 -12 -23 -19l-9 26q3 2 19 16.5t42 35.5l26 37q15 21 35 54.5t45 73.5q21 34 44.5 72.5t48.5 77
t50.5 75.5t49.5 68q38 48 76 71t61 23t31 -11t8 -28q0 -24 -18.5 -55.5t-48.5 -66t-68.5 -71t-79 -70.5t-79.5 -64t-69 -51q-15 -26 -29 -48.5t-26 -40.5q45 35 102 74t118.5 72t124 54.5t118.5 21.5q39 0 57 -13.5t18 -33.5q0 -18 -15.5 -39t-43 -39.5t-65 -30.5t-81.5 -12
q-36 0 -60 11q0 -2 -0.5 -2.5t-0.5 -2.5q-5 -22 -10 -47t-5 -48q0 -18 4 -33.5t14.5 -27.5t28 -19t44.5 -7q56 0 108.5 17.5t104 48t103.5 71t107 86.5l14 -16q-57 -47 -110 -88t-106.5 -72t-108 -49t-112.5 -18z" />
    <glyph glyph-name="kgreenlandic" unicode="&#x138;" horiz-adv-x="723" 
d="M29 102q45 35 102 74t118.5 72t124 54.5t118.5 21.5q39 0 57 -13.5t18 -33.5q0 -18 -15.5 -39t-43 -39.5t-65 -30.5t-81.5 -12q-36 0 -60 11q0 -2 -0.5 -2.5t-0.5 -2.5q-5 -22 -10 -47t-5 -48q0 -18 4 -33.5t14.5 -27.5t28 -19t44.5 -7q56 0 108.5 17.5t104 48t103.5 71
t107 86.5l14 -16q-57 -47 -110 -88t-106.5 -72t-108 -49t-112.5 -18q-33 0 -54.5 8.5t-34 23.5t-17.5 34.5t-5 40.5q0 26 5.5 56t16.5 80q30 -27 74 -27q40 0 73.5 10t58.5 25.5t39 33t14 32.5q0 11 -13 19t-42 8q-41 0 -86 -12.5t-90.5 -33.5t-91 -47.5t-87.5 -55
t-78.5 -56t-64.5 -49.5l-42 -58l-16 12l215 301l17 -12z" />
    <glyph glyph-name="Lacute" unicode="&#x139;" horiz-adv-x="1322" 
d="M60 -81q61 0 113.5 15.5t97.5 41.5q-51 23 -103.5 38t-111.5 15q-50 0 -76 -18t-26 -39q0 -20 25.5 -36.5t80.5 -16.5zM586 314q0 -1 -1 -1q104 1 187.5 33t142 77.5t90 97t31.5 91.5q0 43 -58 43q-70 0 -125.5 -28.5t-101.5 -76t-86 -109t-79 -127.5zM354 425
q10 -30 36 -54q22 -20 62.5 -38t108.5 -20l7 11q40 67 81.5 130t90 112t106.5 79t132 30q37 0 57.5 -16.5t20.5 -46.5q0 -44 -33.5 -99t-95.5 -104t-150.5 -82.5t-198.5 -33.5h-5q-27 -45 -55 -89.5t-59.5 -85.5t-67 -77t-76.5 -64q29 -16 57.5 -32.5t57.5 -33.5
q42 -25 83.5 -49t85 -42.5t89 -29.5t94.5 -11q104 0 182.5 26t131 66.5t79 90t26.5 96.5q0 32 -12.5 60.5t-37.5 50t-62.5 34t-87.5 12.5q-73 0 -140.5 -26t-121 -71t-90 -106.5t-46.5 -132.5l-20 2q11 75 49 139.5t94.5 112.5t127 75t147.5 27q55 0 96.5 -14t69 -38.5
t41 -56.5t13.5 -68q0 -50 -27.5 -103t-82.5 -96.5t-137.5 -71.5t-191.5 -28q-51 0 -98.5 11.5t-91.5 30t-87 42.5t-85 50q-32 19 -62.5 36.5t-62.5 34.5q-49 -30 -107 -47.5t-128 -17.5q-65 0 -95.5 22.5t-30.5 50.5q0 29 31.5 53t90.5 24q66 0 124 -17t112 -43
q41 27 76.5 61.5t67 74.5t60 83t54.5 86q-71 4 -113 24t-65 43q-27 26 -38 60zM1124 812q-27 -38 -67.5 -58t-84.5 -30l-4 20q41 9 78.5 27t61.5 53z" />
    <glyph glyph-name="lacute" unicode="&#x13a;" horiz-adv-x="494" 
d="M330 560q-32 0 -70 -33t-74 -85t-66 -116.5t-47 -126.5q48 42 97.5 88t89.5 91.5t65 87.5t25 75q0 19 -20 19zM64 165q-4 -20 -6 -38.5t-2 -35.5q0 -50 21 -80.5t71 -30.5q56 0 108.5 17.5t104 48t103.5 71t107 86.5l14 -16q-57 -47 -110 -88t-106.5 -72t-108 -49
t-112.5 -18q-60 0 -86.5 36t-26.5 95q0 45 13.5 98.5t37 108t53.5 105.5t62.5 90.5t66 63t62.5 23.5q18 0 29 -9.5t11 -29.5q0 -36 -25 -80.5t-65 -92t-90 -94.5t-99 -87zM491 727q-27 -38 -67.5 -58t-84.5 -30l-4 20q41 9 78.5 27t61.5 53z" />
    <glyph glyph-name="uni013B" unicode="&#x13b;" horiz-adv-x="1322" 
d="M60 -81q61 0 113.5 15.5t97.5 41.5q-51 23 -103.5 38t-111.5 15q-50 0 -76 -18t-26 -39q0 -20 25.5 -36.5t80.5 -16.5zM586 314q0 -1 -1 -1q104 1 187.5 33t142 77.5t90 97t31.5 91.5q0 43 -58 43q-70 0 -125.5 -28.5t-101.5 -76t-86 -109t-79 -127.5zM354 425
q10 -30 36 -54q22 -20 62.5 -38t108.5 -20l7 11q40 67 81.5 130t90 112t106.5 79t132 30q37 0 57.5 -16.5t20.5 -46.5q0 -44 -33.5 -99t-95.5 -104t-150.5 -82.5t-198.5 -33.5h-5q-27 -45 -55 -89.5t-59.5 -85.5t-67 -77t-76.5 -64q29 -16 57.5 -32.5t57.5 -33.5
q42 -25 83.5 -49t85 -42.5t89 -29.5t94.5 -11q104 0 182.5 26t131 66.5t79 90t26.5 96.5q0 32 -12.5 60.5t-37.5 50t-62.5 34t-87.5 12.5q-73 0 -140.5 -26t-121 -71t-90 -106.5t-46.5 -132.5l-20 2q11 75 49 139.5t94.5 112.5t127 75t147.5 27q55 0 96.5 -14t69 -38.5
t41 -56.5t13.5 -68q0 -50 -27.5 -103t-82.5 -96.5t-137.5 -71.5t-191.5 -28q-51 0 -98.5 11.5t-91.5 30t-87 42.5t-85 50q-32 19 -62.5 36.5t-62.5 34.5q-49 -30 -107 -47.5t-128 -17.5q-65 0 -95.5 22.5t-30.5 50.5q0 29 31.5 53t90.5 24q66 0 124 -17t112 -43
q41 27 76.5 61.5t67 74.5t60 83t54.5 86q-71 4 -113 24t-65 43q-27 26 -38 60zM364 -190q0 14 -11 14q-17 0 -31 -13.5t-14 -23.5q0 -9 12 -9q15 0 43 22q1 3 1 10zM192 -324q55 14 98.5 37.5t62.5 55.5q-20 -11 -33 -11q-17 0 -24.5 7t-7.5 18q0 9 5 20t14 20t21 15t25 6
q14 0 22.5 -8t8.5 -26q0 -48 -48 -88t-138 -66z" />
    <glyph glyph-name="uni013C" unicode="&#x13c;" horiz-adv-x="494" 
d="M330 560q-32 0 -70 -33t-74 -85t-66 -116.5t-47 -126.5q48 42 97.5 88t89.5 91.5t65 87.5t25 75q0 19 -20 19zM64 165q-4 -20 -6 -38.5t-2 -35.5q0 -50 21 -80.5t71 -30.5q56 0 108.5 17.5t104 48t103.5 71t107 86.5l14 -16q-57 -47 -110 -88t-106.5 -72t-108 -49
t-112.5 -18q-60 0 -86.5 36t-26.5 95q0 45 13.5 98.5t37 108t53.5 105.5t62.5 90.5t66 63t62.5 23.5q18 0 29 -9.5t11 -29.5q0 -36 -25 -80.5t-65 -92t-90 -94.5t-99 -87zM-34 -49q0 14 -11 14q-17 0 -31 -13.5t-14 -23.5q0 -9 12 -9q15 0 43 22q1 3 1 10zM-206 -183
q55 14 98.5 37.5t62.5 55.5q-20 -11 -33 -11q-17 0 -24.5 7t-7.5 18q0 9 5 20t14 20t21 15t25 6q14 0 22.5 -8t8.5 -26q0 -48 -48 -88t-138 -66z" />
    <glyph glyph-name="Lcaron" unicode="&#x13d;" horiz-adv-x="1322" 
d="M60 -81q61 0 113.5 15.5t97.5 41.5q-51 23 -103.5 38t-111.5 15q-50 0 -76 -18t-26 -39q0 -20 25.5 -36.5t80.5 -16.5zM586 314q0 -1 -1 -1q104 1 187.5 33t142 77.5t90 97t31.5 91.5q0 43 -58 43q-70 0 -125.5 -28.5t-101.5 -76t-86 -109t-79 -127.5zM354 425
q10 -30 36 -54q22 -20 62.5 -38t108.5 -20l7 11q40 67 81.5 130t90 112t106.5 79t132 30q37 0 57.5 -16.5t20.5 -46.5q0 -44 -33.5 -99t-95.5 -104t-150.5 -82.5t-198.5 -33.5h-5q-27 -45 -55 -89.5t-59.5 -85.5t-67 -77t-76.5 -64q29 -16 57.5 -32.5t57.5 -33.5
q42 -25 83.5 -49t85 -42.5t89 -29.5t94.5 -11q104 0 182.5 26t131 66.5t79 90t26.5 96.5q0 32 -12.5 60.5t-37.5 50t-62.5 34t-87.5 12.5q-73 0 -140.5 -26t-121 -71t-90 -106.5t-46.5 -132.5l-20 2q11 75 49 139.5t94.5 112.5t127 75t147.5 27q55 0 96.5 -14t69 -38.5
t41 -56.5t13.5 -68q0 -50 -27.5 -103t-82.5 -96.5t-137.5 -71.5t-191.5 -28q-51 0 -98.5 11.5t-91.5 30t-87 42.5t-85 50q-32 19 -62.5 36.5t-62.5 34.5q-49 -30 -107 -47.5t-128 -17.5q-65 0 -95.5 22.5t-30.5 50.5q0 29 31.5 53t90.5 24q66 0 124 -17t112 -43
q41 27 76.5 61.5t67 74.5t60 83t54.5 86q-71 4 -113 24t-65 43q-27 26 -38 60zM1280 684q0 14 -11 14q-17 0 -31 -13.5t-14 -23.5q0 -9 12 -9q15 0 43 22q1 3 1 10zM1108 550q55 14 98.5 37t62.5 56q-18 -11 -33 -11q-17 0 -24.5 7t-7.5 18q0 9 5 20t14 20t21 15t25 6
q14 0 22.5 -8t8.5 -26q0 -48 -48 -88t-138 -66z" />
    <glyph glyph-name="lcaron" unicode="&#x13e;" horiz-adv-x="494" 
d="M330 560q-32 0 -70 -33t-74 -85t-66 -116.5t-47 -126.5q48 42 97.5 88t89.5 91.5t65 87.5t25 75q0 19 -20 19zM64 165q-4 -20 -6 -38.5t-2 -35.5q0 -50 21 -80.5t71 -30.5q56 0 108.5 17.5t104 48t103.5 71t107 86.5l14 -16q-57 -47 -110 -88t-106.5 -72t-108 -49
t-112.5 -18q-60 0 -86.5 36t-26.5 95q0 45 13.5 98.5t37 108t53.5 105.5t62.5 90.5t66 63t62.5 23.5q18 0 29 -9.5t11 -29.5q0 -36 -25 -80.5t-65 -92t-90 -94.5t-99 -87zM560 542q0 14 -11 14q-17 0 -31 -13.5t-14 -23.5q0 -9 12 -9q15 0 43 22q1 3 1 10zM388 408
q55 14 98.5 37t62.5 56q-18 -11 -33 -11q-17 0 -24.5 7t-7.5 18q0 9 5 20t14 20t21 15t25 6q14 0 22.5 -8t8.5 -26q0 -48 -48 -88t-138 -66z" />
    <glyph glyph-name="Lslash" unicode="&#x141;" horiz-adv-x="1322" 
d="M60 -81q61 0 113.5 15.5t97.5 41.5q-51 23 -103.5 38t-111.5 15q-50 0 -76 -18t-26 -39q0 -20 25.5 -36.5t80.5 -16.5zM586 314q0 -1 -1 -1q104 1 187.5 33t142 77.5t90 97t31.5 91.5q0 43 -58 43q-70 0 -125.5 -28.5t-101.5 -76t-86 -109t-79 -127.5zM354 425
q10 -30 36 -54q22 -20 62.5 -38t108.5 -20l7 11q40 67 81.5 130t90 112t106.5 79t132 30q37 0 57.5 -16.5t20.5 -46.5q0 -44 -33.5 -99t-95.5 -104t-150.5 -82.5t-198.5 -33.5h-5q-11 -20 -23 -38.5t-24 -37.5l84 -5l-2 -20l-94 6q-42 -65 -90 -122t-109 -99
q29 -16 57.5 -32.5t57.5 -33.5q42 -25 83.5 -49t85 -42.5t89 -29.5t94.5 -11q104 0 182.5 26t131 66.5t79 90t26.5 96.5q0 32 -12.5 60.5t-37.5 50t-62.5 34t-87.5 12.5q-73 0 -140.5 -26t-121 -71t-90 -106.5t-46.5 -132.5l-20 2q11 75 49 139.5t94.5 112.5t127 75
t147.5 27q55 0 96.5 -14t69 -38.5t41 -56.5t13.5 -68q0 -50 -27.5 -103t-82.5 -96.5t-137.5 -71.5t-191.5 -28q-51 0 -98.5 11.5t-91.5 30t-87 42.5t-85 50q-32 19 -62.5 36.5t-62.5 34.5q-49 -30 -107 -47.5t-128 -17.5q-65 0 -95.5 22.5t-30.5 50.5q0 29 31.5 53t90.5 24
q66 0 124 -17t112 -43q60 38 108 93t90 117l-118 8l2 20l129 -8q12 19 24 37.5t23 37.5q-71 4 -113 24t-65 43q-27 26 -38 60z" />
    <glyph glyph-name="lslash" unicode="&#x142;" horiz-adv-x="494" 
d="M330 560q-32 0 -70 -33t-74 -85t-66 -116.5t-47 -126.5q48 42 97.5 88t89.5 91.5t65 87.5t25 75q0 19 -20 19zM86 183l146 -9l-2 -20l-166 10q-4 -20 -6 -38t-2 -35q0 -50 21 -80.5t71 -30.5q56 0 108.5 17.5t104 48t103.5 71t107 86.5l14 -16q-57 -47 -110 -88
t-106.5 -72t-108 -49t-112.5 -18q-60 0 -86.5 36t-26.5 95q0 32 8 75l-49 3l2 20l51 -4q11 44 29 90.5t41.5 90.5t50 83t54.5 68t55.5 46t52.5 17q18 0 29 -9.5t11 -29.5q0 -36 -25 -80.5t-65 -92t-90 -94.5t-99 -87z" />
    <glyph glyph-name="Nacute" unicode="&#x143;" horiz-adv-x="967" 
d="M329 500q-15 -42 -50 -77.5t-79.5 -60.5t-94 -39t-93.5 -14q-57 0 -96 25t-39 80q0 38 20.5 73t55.5 65t81.5 54t99 41.5t108 27t107.5 9.5t99 -10.5t82 -32.5t55.5 -56.5t20.5 -82.5t-26.5 -106.5t-67.5 -119.5q65 57 122.5 96t106 63t87 34.5t67.5 10.5q36 0 56.5 -14
t20.5 -39q0 -23 -27.5 -64.5t-66.5 -95.5q-33 -45 -69.5 -98t-67 -107.5t-50.5 -109.5t-20 -104q0 -38 13.5 -72.5t45.5 -63.5l-14 -14q-35 32 -50 70t-15 80q0 53 20.5 109.5t51.5 112.5t68 109.5t71 99.5q38 52 64 91t26 57q0 16 -15 24.5t-42 8.5t-63.5 -10t-81 -31
t-95 -55t-104.5 -82q-27 -24 -51.5 -46t-46.5 -42q-33 -42 -66.5 -80t-64 -69.5t-55.5 -54.5t-40 -34l-18 2q12 22 31 46.5t47.5 55t67.5 68.5t92 89q28 37 53.5 75t44.5 74.5t30 71t11 64.5q0 43 -19 74t-51 50.5t-75 28.5t-92 9q-50 0 -103 -9t-103.5 -25t-95 -38.5
t-78 -50.5t-53 -60t-19.5 -67q0 -44 33.5 -64.5t81.5 -20.5q42 0 88.5 13t88.5 36t75 56t47 72zM995 736q-27 -38 -67.5 -58t-84.5 -30l-4 20q41 9 78.5 27t61.5 53z" />
    <glyph glyph-name="nacute" unicode="&#x144;" horiz-adv-x="1074" 
d="M728 -20q56 0 108.5 17.5t104 48t103.5 71t107 86.5l14 -16q-57 -47 -110 -88t-106.5 -72t-108 -49t-112.5 -18q-47 0 -75 18.5t-28 59.5q0 22 8 42.5t18 40.5t18 40.5t8 42.5q0 12 -11 16.5t-29 4.5q-48 0 -103 -21.5t-108 -54.5t-100 -74t-80 -80l-14 14q4 5 8.5 10.5
t9.5 10.5q8 12 16.5 28.5t15 35t10.5 37.5t4 37q0 50 -17.5 69t-43.5 19q-18 0 -37.5 -7t-39 -17.5t-37 -22.5t-30.5 -22l-22 -18l-13 16l21 18q13 10 32.5 23t41.5 23.5t45.5 18t44.5 7.5q32 0 54 -22t22 -80q0 -23 -6 -49t-16 -50q36 33 78.5 63.5t88 54.5t90.5 38.5
t85 14.5q27 0 43.5 -9t16.5 -32q0 -22 -8 -42.5t-18 -40.5t-18 -40.5t-8 -42.5q0 -30 22.5 -44t60.5 -14zM642 465q-27 -38 -67.5 -58t-84.5 -30l-4 20q41 9 78.5 27t61.5 53z" />
    <glyph glyph-name="uni0145" unicode="&#x145;" horiz-adv-x="967" 
d="M329 500q-15 -42 -50 -77.5t-79.5 -60.5t-94 -39t-93.5 -14q-57 0 -96 25t-39 80q0 38 20.5 73t55.5 65t81.5 54t99 41.5t108 27t107.5 9.5t99 -10.5t82 -32.5t55.5 -56.5t20.5 -82.5t-26.5 -106.5t-67.5 -119.5q65 57 122.5 96t106 63t87 34.5t67.5 10.5q36 0 56.5 -14
t20.5 -39q0 -23 -27.5 -64.5t-66.5 -95.5q-33 -45 -69.5 -98t-67 -107.5t-50.5 -109.5t-20 -104q0 -38 13.5 -72.5t45.5 -63.5l-14 -14q-35 32 -50 70t-15 80q0 53 20.5 109.5t51.5 112.5t68 109.5t71 99.5q38 52 64 91t26 57q0 16 -15 24.5t-42 8.5t-63.5 -10t-81 -31
t-95 -55t-104.5 -82q-27 -24 -51.5 -46t-46.5 -42q-33 -42 -66.5 -80t-64 -69.5t-55.5 -54.5t-40 -34l-18 2q12 22 31 46.5t47.5 55t67.5 68.5t92 89q28 37 53.5 75t44.5 74.5t30 71t11 64.5q0 43 -19 74t-51 50.5t-75 28.5t-92 9q-50 0 -103 -9t-103.5 -25t-95 -38.5
t-78 -50.5t-53 -60t-19.5 -67q0 -44 33.5 -64.5t81.5 -20.5q42 0 88.5 13t88.5 36t75 56t47 72zM471 -72q0 14 -11 14q-17 0 -31 -13.5t-14 -23.5q0 -9 12 -9q15 0 43 22q1 3 1 10zM299 -206q55 14 98.5 37.5t62.5 55.5q-20 -11 -33 -11q-17 0 -24.5 7t-7.5 18q0 9 5 20
t14 20t21 15t25 6q14 0 22.5 -8t8.5 -26q0 -48 -48 -88t-138 -66z" />
    <glyph glyph-name="uni0146" unicode="&#x146;" horiz-adv-x="1074" 
d="M728 -20q56 0 108.5 17.5t104 48t103.5 71t107 86.5l14 -16q-57 -47 -110 -88t-106.5 -72t-108 -49t-112.5 -18q-47 0 -75 18.5t-28 59.5q0 22 8 42.5t18 40.5t18 40.5t8 42.5q0 12 -11 16.5t-29 4.5q-48 0 -103 -21.5t-108 -54.5t-100 -74t-80 -80l-14 14q4 5 8.5 10.5
t9.5 10.5q8 12 16.5 28.5t15 35t10.5 37.5t4 37q0 50 -17.5 69t-43.5 19q-18 0 -37.5 -7t-39 -17.5t-37 -22.5t-30.5 -22l-22 -18l-13 16l21 18q13 10 32.5 23t41.5 23.5t45.5 18t44.5 7.5q32 0 54 -22t22 -80q0 -23 -6 -49t-16 -50q36 33 78.5 63.5t88 54.5t90.5 38.5
t85 14.5q27 0 43.5 -9t16.5 -32q0 -22 -8 -42.5t-18 -40.5t-18 -40.5t-8 -42.5q0 -30 22.5 -44t60.5 -14zM205 -78q0 14 -11 14q-17 0 -31 -13.5t-14 -23.5q0 -9 12 -9q15 0 43 22q1 3 1 10zM33 -212q55 14 98.5 37.5t62.5 55.5q-20 -11 -33 -11q-17 0 -24.5 7t-7.5 18
q0 9 5 20t14 20t21 15t25 6q14 0 22.5 -8t8.5 -26q0 -48 -48 -88t-138 -66z" />
    <glyph glyph-name="Ncaron" unicode="&#x147;" horiz-adv-x="967" 
d="M329 500q-15 -42 -50 -77.5t-79.5 -60.5t-94 -39t-93.5 -14q-57 0 -96 25t-39 80q0 38 20.5 73t55.5 65t81.5 54t99 41.5t108 27t107.5 9.5t99 -10.5t82 -32.5t55.5 -56.5t20.5 -82.5t-26.5 -106.5t-67.5 -119.5q65 57 122.5 96t106 63t87 34.5t67.5 10.5q36 0 56.5 -14
t20.5 -39q0 -23 -27.5 -64.5t-66.5 -95.5q-33 -45 -69.5 -98t-67 -107.5t-50.5 -109.5t-20 -104q0 -38 13.5 -72.5t45.5 -63.5l-14 -14q-35 32 -50 70t-15 80q0 53 20.5 109.5t51.5 112.5t68 109.5t71 99.5q38 52 64 91t26 57q0 16 -15 24.5t-42 8.5t-63.5 -10t-81 -31
t-95 -55t-104.5 -82q-27 -24 -51.5 -46t-46.5 -42q-33 -42 -66.5 -80t-64 -69.5t-55.5 -54.5t-40 -34l-18 2q12 22 31 46.5t47.5 55t67.5 68.5t92 89q28 37 53.5 75t44.5 74.5t30 71t11 64.5q0 43 -19 74t-51 50.5t-75 28.5t-92 9q-50 0 -103 -9t-103.5 -25t-95 -38.5
t-78 -50.5t-53 -60t-19.5 -67q0 -44 33.5 -64.5t81.5 -20.5q42 0 88.5 13t88.5 36t75 56t47 72zM1045 720q-31 -3 -66 -14.5t-65 -24.5q-35 -15 -70 -33l-15 8q-3 18 -9 35q-5 14 -15.5 29t-28.5 24l8 18q34 -17 46 -43t14 -48q9 5 31 15.5t49.5 21.5t58.5 20t60 12z" />
    <glyph glyph-name="ncaron" unicode="&#x148;" horiz-adv-x="1074" 
d="M728 -20q56 0 108.5 17.5t104 48t103.5 71t107 86.5l14 -16q-57 -47 -110 -88t-106.5 -72t-108 -49t-112.5 -18q-47 0 -75 18.5t-28 59.5q0 22 8 42.5t18 40.5t18 40.5t8 42.5q0 12 -11 16.5t-29 4.5q-48 0 -103 -21.5t-108 -54.5t-100 -74t-80 -80l-14 14q4 5 8.5 10.5
t9.5 10.5q8 12 16.5 28.5t15 35t10.5 37.5t4 37q0 50 -17.5 69t-43.5 19q-18 0 -37.5 -7t-39 -17.5t-37 -22.5t-30.5 -22l-22 -18l-13 16l21 18q13 10 32.5 23t41.5 23.5t45.5 18t44.5 7.5q32 0 54 -22t22 -80q0 -23 -6 -49t-16 -50q36 33 78.5 63.5t88 54.5t90.5 38.5
t85 14.5q27 0 43.5 -9t16.5 -32q0 -22 -8 -42.5t-18 -40.5t-18 -40.5t-8 -42.5q0 -30 22.5 -44t60.5 -14zM719 449q-31 -3 -66 -14.5t-65 -24.5q-35 -15 -70 -33l-15 8q-3 18 -9 35q-5 14 -15.5 29t-28.5 24l8 18q34 -17 46 -43t14 -48q9 5 31 15.5t49.5 21.5t58.5 20t60 12
z" />
    <glyph glyph-name="Eng" unicode="&#x14a;" horiz-adv-x="967" 
d="M708 -1q-68 -107 -128 -197t-120 -163.5t-122.5 -129.5t-134.5 -93.5t-156.5 -57t-187.5 -19.5q-92 0 -158 18t-108 48t-62 69.5t-20 83.5q0 55 30.5 111t86 101.5t133.5 74t173 28.5q33 0 71.5 -4t76.5 -14t73.5 -27t62.5 -43t44 -62.5t18 -85.5h-20q-1 45 -17 78.5
t-41.5 57.5t-59 39.5t-69.5 24.5t-72 12.5t-67 3.5q-91 0 -165 -27t-127 -69.5t-82 -95t-29 -103.5q0 -40 19 -76t58.5 -63.5t101.5 -43.5t149 -16q99 0 181 20t152.5 58.5t132.5 94.5t121.5 128.5t119.5 160.5t126 190q82 127 133 204.5t79 121.5t38 62.5t10 27.5
q0 16 -15 24.5t-42 8.5t-63.5 -10t-81 -31t-95 -55t-104.5 -82q-27 -24 -51.5 -46t-46.5 -42q-33 -42 -66.5 -80t-64 -69.5t-55.5 -54.5t-40 -34l-18 2q12 22 31 46.5t47.5 55t67.5 68.5t92 89q28 37 53.5 75t44.5 74.5t30 71t11 64.5q0 43 -19 74t-51 50.5t-75 28.5t-92 9
q-50 0 -103 -9t-103.5 -25t-95 -38.5t-78 -50.5t-53 -60t-19.5 -67q0 -44 33.5 -64.5t81.5 -20.5q42 0 88.5 13t88.5 36t75 56t47 72l18 -6q-15 -42 -50 -77.5t-79.5 -60.5t-94 -39t-93.5 -14q-57 0 -96 25t-39 80q0 38 20.5 73t55.5 65t81.5 54t99 41.5t108 27t107.5 9.5
t99 -10.5t82 -32.5t55.5 -56.5t20.5 -82.5t-26.5 -106.5t-67.5 -119.5q65 57 122.5 96t106 63t87 34.5t67.5 10.5q36 0 56.5 -14t20.5 -39q0 -12 -10 -32.5t-38.5 -66t-80.5 -124t-135 -205.5z" />
    <glyph glyph-name="eng" unicode="&#x14b;" horiz-adv-x="923" 
d="M632 60q-50 -68 -105.5 -137.5t-117.5 -126t-129.5 -92.5t-141.5 -36q-39 0 -77 7.5t-70 20.5l8 18q30 -11 65.5 -18.5t73.5 -7.5q71 0 135.5 35.5t124 91t114 123.5t104.5 134q5 7 15 20.5t20 30.5t18 35t8.5 33t-8.5 24.5t-32 9.5q-48 0 -103 -21.5t-108 -54.5
t-100 -74t-80 -80l-14 14q4 5 8.5 10.5t9.5 10.5q8 12 16.5 28.5t15 35t10.5 37.5t4 37q0 50 -17.5 69t-43.5 19q-18 0 -37.5 -7t-39 -17.5t-37 -22.5t-30.5 -22l-22 -18l-13 16l21 18q13 10 32.5 23t41.5 23.5t45.5 18t44.5 7.5q32 0 54 -22t22 -80q0 -23 -6 -49t-16 -50
q36 33 78.5 63.5t88 54.5t90.5 38.5t85 14.5q31 0 47 -8.5t20 -23t-2 -33.5t-17 -39.5t-25.5 -41.5t-27.5 -39z" />
    <glyph glyph-name="Omacron" unicode="&#x14c;" horiz-adv-x="972" 
d="M783 653q-62 18 -124 18q-64 0 -128.5 -16.5t-124 -46.5t-111 -72.5t-89.5 -94.5t-60 -112.5t-22 -126.5q0 -51 17 -96.5t53 -79.5t90.5 -54t129.5 -20q108 0 196 41.5t150.5 105.5t96.5 139.5t34 143.5q0 37 -11.5 69.5t-35 56.5t-60 37.5t-87.5 13.5q-49 0 -101 -17
t-94.5 -47.5t-70 -73.5t-27.5 -95q0 -27 10 -47t26.5 -33t39 -19.5t47.5 -6.5q49 0 100 23t84 67l16 -12q-18 -24 -41.5 -42.5t-50 -31t-54 -18.5t-54.5 -6q-29 0 -55 7.5t-45.5 23t-31 39.5t-11.5 56q0 57 29.5 103.5t75 79.5t101 51.5t107.5 18.5q56 0 96.5 -15
t66.5 -41.5t38.5 -62.5t12.5 -78q0 -47 -16 -99t-46 -102t-74 -95t-99 -79.5t-121 -54.5t-141 -20q-80 0 -138.5 21.5t-96.5 58.5t-56.5 86t-18.5 104q0 69 22.5 132t62 117.5t93 98.5t115 75.5t128.5 48.5t134 17q68 0 130 -18zM586 776l387 -7v-20l-387 7v20z" />
    <glyph glyph-name="omacron" unicode="&#x14d;" horiz-adv-x="561" 
d="M273 236q-22 5 -37 5q-45 0 -85.5 -18.5t-72 -47t-50 -63t-18.5 -67.5q0 -36 15.5 -52t39.5 -16q29 0 64 17.5t67.5 46.5t57 68t32.5 81q-6 15 -6 23q0 14 9.5 17t14.5 3q2 0 3 -2t1 -12v-8q11 -49 47 -72t84 -23q43 0 89.5 17.5t88.5 51.5l22 18l13 -16l-21 -18
q-43 -37 -93 -55t-97 -18t-84 17t-56 52q-13 -42 -40 -80t-61 -66.5t-69.5 -45t-65.5 -16.5q-33 0 -54 20.5t-21 67.5q0 39 20 77.5t54 69.5t78.5 50t93.5 19q11 0 21 -1.5t20 -3.5zM205 438l387 -7v-20l-387 7v20z" />
    <glyph glyph-name="Ohungarumlaut" unicode="&#x150;" horiz-adv-x="972" 
d="M783 653q-62 18 -124 18q-64 0 -128.5 -16.5t-124 -46.5t-111 -72.5t-89.5 -94.5t-60 -112.5t-22 -126.5q0 -51 17 -96.5t53 -79.5t90.5 -54t129.5 -20q108 0 196 41.5t150.5 105.5t96.5 139.5t34 143.5q0 37 -11.5 69.5t-35 56.5t-60 37.5t-87.5 13.5q-49 0 -101 -17
t-94.5 -47.5t-70 -73.5t-27.5 -95q0 -27 10 -47t26.5 -33t39 -19.5t47.5 -6.5q49 0 100 23t84 67l16 -12q-18 -24 -41.5 -42.5t-50 -31t-54 -18.5t-54.5 -6q-29 0 -55 7.5t-45.5 23t-31 39.5t-11.5 56q0 57 29.5 103.5t75 79.5t101 51.5t107.5 18.5q56 0 96.5 -15
t66.5 -41.5t38.5 -62.5t12.5 -78q0 -47 -16 -99t-46 -102t-74 -95t-99 -79.5t-121 -54.5t-141 -20q-80 0 -138.5 21.5t-96.5 58.5t-56.5 86t-18.5 104q0 69 22.5 132t62 117.5t93 98.5t115 75.5t128.5 48.5t134 17q68 0 130 -18zM983 820q-27 -38 -67.5 -58t-84.5 -30l-4 20
q41 9 78.5 27t61.5 53zM872 820q-27 -38 -67.5 -58t-84.5 -30l-4 20q41 9 78.5 27t61.5 53z" />
    <glyph glyph-name="ohungarumlaut" unicode="&#x151;" horiz-adv-x="561" 
d="M273 236q-22 5 -37 5q-45 0 -85.5 -18.5t-72 -47t-50 -63t-18.5 -67.5q0 -36 15.5 -52t39.5 -16q29 0 64 17.5t67.5 46.5t57 68t32.5 81q-6 15 -6 23q0 14 9.5 17t14.5 3q2 0 3 -2t1 -12v-8q11 -49 47 -72t84 -23q43 0 89.5 17.5t88.5 51.5l22 18l13 -16l-21 -18
q-43 -37 -93 -55t-97 -18t-84 17t-56 52q-13 -42 -40 -80t-61 -66.5t-69.5 -45t-65.5 -16.5q-33 0 -54 20.5t-21 67.5q0 39 20 77.5t54 69.5t78.5 50t93.5 19q11 0 21 -1.5t20 -3.5zM487 459q-27 -38 -67.5 -58t-84.5 -30l-4 20q41 9 78.5 27t61.5 53zM376 459
q-27 -38 -67.5 -58t-84.5 -30l-4 20q41 9 78.5 27t61.5 53z" />
    <glyph glyph-name="OE" unicode="&#x152;" horiz-adv-x="1434" 
d="M966 414q-29 0 -57 -6q1 -5 1.5 -9.5t0.5 -9.5q8 -33 28.5 -46.5t42.5 -13.5q27 0 41.5 12.5t14.5 27.5q0 23 -20 34t-52 11zM891 392q-2 8 -2 12q-52 -14 -93.5 -43t-71 -67.5t-45.5 -82t-16 -86.5q0 -49 22 -89q48 33 86.5 75t65 88t40.5 93t14 90v10zM527 220
q46 0 94.5 20.5t82.5 59.5q32 43 78 76t105 48q-6 29 -20 54t-37.5 43t-56.5 28t-76 10q-49 0 -101 -17t-94.5 -47.5t-70 -73.5t-27.5 -95q0 -27 10 -47t26.5 -33t39 -19.5t47.5 -6.5zM1459 134q-48 -37 -113.5 -75.5t-139.5 -70.5t-152 -52.5t-150 -20.5q-86 0 -141.5 25.5
t-84.5 67.5q-56 -35 -122 -55.5t-142 -20.5q-80 0 -138.5 21.5t-96.5 58.5t-56.5 86t-18.5 104q0 69 22.5 132t62 117.5t93 98.5t115 75.5t128.5 48.5t134 17q68 0 130 -18l-6 -20q-62 18 -124 18q-64 0 -128.5 -16.5t-124 -46.5t-111 -72.5t-89.5 -94.5t-60 -112.5
t-22 -126.5q0 -51 17 -96.5t53 -79.5t90.5 -54t129.5 -20q73 0 136.5 19.5t117.5 52.5q-25 46 -25 101q0 29 7 59.5t21 59.5q-33 -22 -70.5 -33t-73.5 -11q-29 0 -55 7.5t-45.5 23t-31 39.5t-11.5 56q0 57 29.5 103.5t75 79.5t101 51.5t107.5 18.5q78 0 126 -28.5t69 -76.5
q11 58 46.5 103t84.5 75.5t106 46t111 15.5q42 0 79 -9.5t65.5 -28.5t45 -48t16.5 -68q0 -36 -12 -63t-30.5 -44.5t-41.5 -26t-44 -8.5q-32 0 -56 18.5t-24 53.5q0 15 7 35l18 -6q-2 -8 -3.5 -14.5t-1.5 -14.5q0 -26 17.5 -39t42.5 -13q18 0 37.5 7.5t35 22.5t25.5 38t10 54
q0 34 -15 59.5t-40.5 42t-59 24.5t-71.5 8q-56 0 -114.5 -17t-107 -51t-79.5 -83.5t-31 -114.5q27 6 58 6q41 0 66.5 -15.5t25.5 -49.5q0 -23 -20 -41.5t-56 -18.5q-21 0 -40.5 8.5t-33.5 28.5q-5 -42 -22 -87t-44 -87.5t-64 -82t-83 -70.5q27 -37 78 -60.5t131 -23.5
q67 0 143 19.5t150.5 51t140 70t111.5 76.5l62 51l14 -16q-17 -14 -33 -27t-33 -26z" />
    <glyph glyph-name="oe" unicode="&#x153;" horiz-adv-x="722" 
d="M442 279q-30 0 -63 -27t-59 -65q16 -11 30.5 -16t27.5 -5q19 0 34.5 9t26 22.5t16.5 29t6 27.5q0 11 -4.5 18t-14.5 7zM376 -40q-67 0 -95 29t-28 72v14q-20 -26 -43.5 -47.5t-49 -37.5t-50 -24.5t-45.5 -8.5q-33 0 -54 20.5t-21 67.5q0 39 20 77.5t54 69.5t78.5 50
t93.5 19q11 0 21 -1.5t20 -3.5l-4 -20q-22 5 -37 5q-45 0 -85.5 -18.5t-72 -47t-50 -63t-18.5 -67.5q0 -36 15.5 -52t39.5 -16q29 0 64 17.5t67.5 46.5t57 68t32.5 81q-6 15 -6 23q0 14 9.5 17t14.5 3q2 0 2.5 -5t2.5 -19q28 38 63.5 64t69.5 26q23 0 33 -12t10 -29t-8 -36
t-23 -35t-35 -27t-44 -11q-16 0 -32 5t-33 17q-16 -27 -25 -55t-9 -53q0 -35 22.5 -59t77.5 -24q56 0 108.5 17.5t104 48t103.5 71t107 86.5l14 -16q-57 -47 -110 -88t-106.5 -72t-108 -49t-112.5 -18z" />
    <glyph glyph-name="Racute" unicode="&#x154;" horiz-adv-x="999" 
d="M295 351q0 -21 10 -37t26.5 -28t37.5 -20t43 -12q-18 45 -42.5 76t-64.5 31q-10 0 -10 -10zM653 -20q56 0 108.5 17.5t104 48t103.5 71t107 86.5l14 -16q-57 -47 -110 -88t-106.5 -72t-108 -49t-112.5 -18q-53 0 -89 22t-62 59.5t-44.5 87t-37.5 103.5q-24 4 -48 12
t-44 20.5t-34 30t-18 40.5l-268 -370l-16 12l424 585l16 -12l-122 -169q24 -1 42.5 -11.5t33.5 -28.5t26.5 -41t21.5 -50q14 -2 28 -3t26 -1q75 0 136 20t104 52t66.5 71t23.5 78q0 31 -14 59t-44.5 49.5t-79 34t-117.5 12.5q-62 0 -117 -11t-106.5 -23.5t-103.5 -23.5
t-108 -11q-35 0 -67 8t-64 30l12 16q29 -20 58 -27t61 -7q55 0 106.5 11t103.5 23.5t107 23.5t118 11q74 0 126.5 -14.5t85.5 -38.5t48 -55.5t15 -66.5q0 -42 -24.5 -85t-70.5 -77.5t-110.5 -56.5t-144.5 -22q-22 0 -47 3q16 -48 33.5 -92.5t41.5 -79.5t57 -56t80 -21z
M842 816q-27 -38 -67.5 -58t-84.5 -30l-4 20q41 9 78.5 27t61.5 53z" />
    <glyph glyph-name="racute" unicode="&#x155;" horiz-adv-x="603" 
d="M136 327q3 4 7 8q3 3 6.5 6t6.5 3q4 0 7 -7q5 -28 16.5 -46.5t29 -30t39.5 -17t48 -7.5q-60 -75 -86.5 -124.5t-26.5 -78.5q0 -27 20 -40t55 -13q56 0 108.5 17.5t104 48t103.5 71t107 86.5l14 -16q-57 -47 -110 -88t-106.5 -72t-108 -49t-112.5 -18q-45 0 -70 17.5
t-25 55.5q0 30 22 75.5t71 108.5q-26 5 -49.5 19t-40.5 35q-12 -24 -35 -47t-40 -37l-22 -18l-13 16l21 18q30 26 49 47t28 38q-12 18 -18 39zM440 456q-27 -38 -67.5 -58t-84.5 -30l-4 20q41 9 78.5 27t61.5 53z" />
    <glyph glyph-name="uni0156" unicode="&#x156;" horiz-adv-x="999" 
d="M295 351q0 -21 10 -37t26.5 -28t37.5 -20t43 -12q-18 45 -42.5 76t-64.5 31q-10 0 -10 -10zM653 -20q56 0 108.5 17.5t104 48t103.5 71t107 86.5l14 -16q-57 -47 -110 -88t-106.5 -72t-108 -49t-112.5 -18q-53 0 -89 22t-62 59.5t-44.5 87t-37.5 103.5q-24 4 -48 12
t-44 20.5t-34 30t-18 40.5l-268 -370l-16 12l424 585l16 -12l-122 -169q24 -1 42.5 -11.5t33.5 -28.5t26.5 -41t21.5 -50q14 -2 28 -3t26 -1q75 0 136 20t104 52t66.5 71t23.5 78q0 31 -14 59t-44.5 49.5t-79 34t-117.5 12.5q-62 0 -117 -11t-106.5 -23.5t-103.5 -23.5
t-108 -11q-35 0 -67 8t-64 30l12 16q29 -20 58 -27t61 -7q55 0 106.5 11t103.5 23.5t107 23.5t118 11q74 0 126.5 -14.5t85.5 -38.5t48 -55.5t15 -66.5q0 -42 -24.5 -85t-70.5 -77.5t-110.5 -56.5t-144.5 -22q-22 0 -47 3q16 -48 33.5 -92.5t41.5 -79.5t57 -56t80 -21z
M168 -72q0 14 -11 14q-17 0 -31 -13.5t-14 -23.5q0 -9 12 -9q15 0 43 22q1 3 1 10zM-4 -206q55 14 98.5 37.5t62.5 55.5q-20 -11 -33 -11q-17 0 -24.5 7t-7.5 18q0 9 5 20t14 20t21 15t25 6q14 0 22.5 -8t8.5 -26q0 -48 -48 -88t-138 -66z" />
    <glyph glyph-name="uni0157" unicode="&#x157;" horiz-adv-x="603" 
d="M136 327q3 4 7 8q3 3 6.5 6t6.5 3q4 0 7 -7q5 -28 16.5 -46.5t29 -30t39.5 -17t48 -7.5q-60 -75 -86.5 -124.5t-26.5 -78.5q0 -27 20 -40t55 -13q56 0 108.5 17.5t104 48t103.5 71t107 86.5l14 -16q-57 -47 -110 -88t-106.5 -72t-108 -49t-112.5 -18q-45 0 -70 17.5
t-25 55.5q0 30 22 75.5t71 108.5q-26 5 -49.5 19t-40.5 35q-12 -24 -35 -47t-40 -37l-22 -18l-13 16l21 18q30 26 49 47t28 38q-12 18 -18 39zM20 -49q0 14 -11 14q-17 0 -31 -13.5t-14 -23.5q0 -9 12 -9q15 0 43 22q1 3 1 10zM-152 -183q55 14 98.5 37.5t62.5 55.5
q-20 -11 -33 -11q-17 0 -24.5 7t-7.5 18q0 9 5 20t14 20t21 15t25 6q14 0 22.5 -8t8.5 -26q0 -48 -48 -88t-138 -66z" />
    <glyph glyph-name="Rcaron" unicode="&#x158;" horiz-adv-x="999" 
d="M295 351q0 -21 10 -37t26.5 -28t37.5 -20t43 -12q-18 45 -42.5 76t-64.5 31q-10 0 -10 -10zM653 -20q56 0 108.5 17.5t104 48t103.5 71t107 86.5l14 -16q-57 -47 -110 -88t-106.5 -72t-108 -49t-112.5 -18q-53 0 -89 22t-62 59.5t-44.5 87t-37.5 103.5q-24 4 -48 12
t-44 20.5t-34 30t-18 40.5l-268 -370l-16 12l424 585l16 -12l-122 -169q24 -1 42.5 -11.5t33.5 -28.5t26.5 -41t21.5 -50q14 -2 28 -3t26 -1q75 0 136 20t104 52t66.5 71t23.5 78q0 31 -14 59t-44.5 49.5t-79 34t-117.5 12.5q-62 0 -117 -11t-106.5 -23.5t-103.5 -23.5
t-108 -11q-35 0 -67 8t-64 30l12 16q29 -20 58 -27t61 -7q55 0 106.5 11t103.5 23.5t107 23.5t118 11q74 0 126.5 -14.5t85.5 -38.5t48 -55.5t15 -66.5q0 -42 -24.5 -85t-70.5 -77.5t-110.5 -56.5t-144.5 -22q-22 0 -47 3q16 -48 33.5 -92.5t41.5 -79.5t57 -56t80 -21z" />
    <glyph glyph-name="rcaron" unicode="&#x159;" horiz-adv-x="603" 
d="M136 327q3 4 7 8q3 3 6.5 6t6.5 3q4 0 7 -7q5 -28 16.5 -46.5t29 -30t39.5 -17t48 -7.5q-60 -75 -86.5 -124.5t-26.5 -78.5q0 -27 20 -40t55 -13q56 0 108.5 17.5t104 48t103.5 71t107 86.5l14 -16q-57 -47 -110 -88t-106.5 -72t-108 -49t-112.5 -18q-45 0 -70 17.5
t-25 55.5q0 30 22 75.5t71 108.5q-26 5 -49.5 19t-40.5 35q-12 -24 -35 -47t-40 -37l-22 -18l-13 16l21 18q30 26 49 47t28 38q-12 18 -18 39zM524 461q-31 -3 -66 -14.5t-65 -24.5q-35 -15 -70 -33l-15 8q-3 18 -9 35q-5 14 -15.5 29t-28.5 24l8 18q34 -17 46 -43t14 -48
q9 5 31 15.5t49.5 21.5t58.5 20t60 12z" />
    <glyph glyph-name="Sacute" unicode="&#x15a;" horiz-adv-x="1208" 
d="M1368 553q0 10 -6 19q-7 -13 -7 -25q0 -18 5 -18q8 0 8 24zM1394 617q-3 -4 -7 -8q-3 -4 -6.5 -9t-7.5 -10q15 -15 15 -37q0 -20 -8.5 -30t-18.5 -10t-18 8.5t-8 25.5t13 40q-15 11 -38.5 16t-51.5 5q-85 0 -138 -29.5t-86.5 -79t-53 -114t-37.5 -133.5
q-27 -105 -77.5 -189t-124 -142.5t-169.5 -89.5t-214 -31q-72 0 -137 15t-114 45t-78 74.5t-29 102.5q0 59 33 119.5t91 109.5t137 80t171 31q54 0 103 -12t86 -36t59 -61.5t22 -88.5q0 -26 -14.5 -55.5t-48.5 -60.5l-14 14q31 28 44 53.5t13 48.5q0 46 -20 79.5t-54.5 55.5
t-79.5 32.5t-96 10.5q-87 0 -162.5 -29.5t-131 -75.5t-87 -103t-31.5 -112q0 -53 27 -93.5t73.5 -68t108 -41.5t129.5 -14q108 0 199.5 28.5t163.5 84t123.5 136.5t78.5 187q18 70 39.5 137t57.5 119t92.5 84t145.5 32q64 0 100 -25q4 6 8 11t7 9q4 4 7 8zM1422 800
q-27 -38 -67.5 -58t-84.5 -30l-4 20q41 9 78.5 27t61.5 53z" />
    <glyph glyph-name="sacute" unicode="&#x15b;" horiz-adv-x="572" 
d="M133 -31q23 0 43 9q-41 5 -72.5 26t-48.5 63q-4 -11 -4 -24q0 -29 21.5 -51.5t60.5 -22.5zM56 185l21 18q39 33 61.5 60.5t26.5 56.5v11q0 24 7 34.5t15 10.5q7 0 12.5 -5.5t5.5 -15.5q0 -23 -22 -59q0 -47 9 -78t19.5 -58t19.5 -54.5t9 -65.5q0 -27 -13 -46
q38 2 86 15.5t100.5 37.5t107.5 58.5t107 79.5l21 18l14 -16l-22 -18q-56 -45 -114 -80.5t-114.5 -60.5t-108 -38t-93.5 -14q-15 -14 -35.5 -20.5t-42.5 -6.5q-47 0 -73.5 25t-26.5 63q0 19 8 41l23 7q22 -46 57.5 -67t80.5 -23q18 18 18 45q0 34 -7.5 60t-17.5 51t-18.5 53
t-10.5 66q-16 -23 -35.5 -44.5t-39.5 -38.5l-22 -18zM350 513q-27 -38 -67.5 -58t-84.5 -30l-4 20q41 9 78.5 27t61.5 53z" />
    <glyph glyph-name="Scircumflex" unicode="&#x15c;" horiz-adv-x="1208" 
d="M1368 553q0 10 -6 19q-7 -13 -7 -25q0 -18 5 -18q8 0 8 24zM1394 617q-3 -4 -7 -8q-3 -4 -6.5 -9t-7.5 -10q15 -15 15 -37q0 -20 -8.5 -30t-18.5 -10t-18 8.5t-8 25.5t13 40q-15 11 -38.5 16t-51.5 5q-85 0 -138 -29.5t-86.5 -79t-53 -114t-37.5 -133.5
q-27 -105 -77.5 -189t-124 -142.5t-169.5 -89.5t-214 -31q-72 0 -137 15t-114 45t-78 74.5t-29 102.5q0 59 33 119.5t91 109.5t137 80t171 31q54 0 103 -12t86 -36t59 -61.5t22 -88.5q0 -26 -14.5 -55.5t-48.5 -60.5l-14 14q31 28 44 53.5t13 48.5q0 46 -20 79.5t-54.5 55.5
t-79.5 32.5t-96 10.5q-87 0 -162.5 -29.5t-131 -75.5t-87 -103t-31.5 -112q0 -53 27 -93.5t73.5 -68t108 -41.5t129.5 -14q108 0 199.5 28.5t163.5 84t123.5 136.5t78.5 187q18 70 39.5 137t57.5 119t92.5 84t145.5 32q64 0 100 -25q4 6 8 11t7 9q4 4 7 8zM1150 727
q31 3 66 14.5t65 24.5q35 15 70 33l15 -8q2 -18 8 -35q5 -14 16 -29t29 -24l-8 -18q-17 9 -28.5 20t-18 23t-9.5 24.5t-4 23.5q-9 -5 -31 -15.5t-49.5 -21.5t-59 -20t-59.5 -12z" />
    <glyph glyph-name="scircumflex" unicode="&#x15d;" horiz-adv-x="572" 
d="M133 -31q23 0 43 9q-41 5 -72.5 26t-48.5 63q-4 -11 -4 -24q0 -29 21.5 -51.5t60.5 -22.5zM56 185l21 18q39 33 61.5 60.5t26.5 56.5v11q0 24 7 34.5t15 10.5q7 0 12.5 -5.5t5.5 -15.5q0 -23 -22 -59q0 -47 9 -78t19.5 -58t19.5 -54.5t9 -65.5q0 -27 -13 -46
q38 2 86 15.5t100.5 37.5t107.5 58.5t107 79.5l21 18l14 -16l-22 -18q-56 -45 -114 -80.5t-114.5 -60.5t-108 -38t-93.5 -14q-15 -14 -35.5 -20.5t-42.5 -6.5q-47 0 -73.5 25t-26.5 63q0 19 8 41l23 7q22 -46 57.5 -67t80.5 -23q18 18 18 45q0 34 -7.5 60t-17.5 51t-18.5 53
t-10.5 66q-16 -23 -35.5 -44.5t-39.5 -38.5l-22 -18zM100 434q31 3 66 14.5t65 24.5q35 15 70 33l15 -8q2 -18 8 -35q5 -14 16 -29t29 -24l-8 -18q-17 9 -28.5 20t-18 23t-9.5 24.5t-4 23.5q-9 -5 -31 -15.5t-49.5 -21.5t-59 -20t-59.5 -12z" />
    <glyph glyph-name="Scedilla" unicode="&#x15e;" horiz-adv-x="1208" 
d="M1368 553q0 10 -6 19q-7 -13 -7 -25q0 -18 5 -18q8 0 8 24zM1394 617q-3 -4 -7 -8q-3 -4 -6.5 -9t-7.5 -10q15 -15 15 -37q0 -20 -8.5 -30t-18.5 -10t-18 8.5t-8 25.5t13 40q-15 11 -38.5 16t-51.5 5q-85 0 -138 -29.5t-86.5 -79t-53 -114t-37.5 -133.5
q-27 -105 -77.5 -189t-124 -142.5t-169.5 -89.5t-214 -31q-64 0 -121 12l-12 -13q13 -4 27 -13.5t14 -32.5q0 -25 -21 -37t-47 -12q-15 0 -30 4t-27 12.5t-19.5 21t-8.5 30.5h20q1 -25 21.5 -36.5t43.5 -11.5q19 0 33.5 7.5t14.5 21.5q0 10 -10 16t-21 10q-13 4 -30 6l29 32
q-47 12 -86 32t-67.5 47.5t-44.5 62.5t-16 78q0 59 33 119.5t91 109.5t137 80t171 31q54 0 103 -12t86 -36t59 -61.5t22 -88.5q0 -26 -14.5 -55.5t-48.5 -60.5l-14 14q31 28 44 53.5t13 48.5q0 46 -20 79.5t-54.5 55.5t-79.5 32.5t-96 10.5q-87 0 -162.5 -29.5t-131 -75.5
t-87 -103t-31.5 -112q0 -53 27 -93.5t73.5 -68t108 -41.5t129.5 -14q108 0 199.5 28.5t163.5 84t123.5 136.5t78.5 187q18 70 39.5 137t57.5 119t92.5 84t145.5 32q64 0 100 -25q4 6 8 11t7 9q4 4 7 8z" />
    <glyph glyph-name="scedilla" unicode="&#x15f;" horiz-adv-x="572" 
d="M133 -31q23 0 43 9q-41 5 -72.5 26t-48.5 63q-4 -11 -4 -24q0 -29 21.5 -51.5t60.5 -22.5zM56 185l21 18q39 33 61.5 60.5t26.5 56.5v11q0 24 7 34.5t15 10.5q7 0 12.5 -5.5t5.5 -15.5q0 -23 -22 -59q0 -47 9 -78t19.5 -58t19.5 -54.5t9 -65.5q0 -27 -13 -46
q38 2 86 15.5t100.5 37.5t107.5 58.5t107 79.5l21 18l14 -16l-22 -18q-56 -45 -114 -80.5t-114.5 -60.5t-108 -38t-93.5 -14q-15 -14 -35.5 -20.5t-42.5 -6.5t-40 6l-10 -11q13 -4 27 -13.5t14 -32.5q0 -25 -21 -37t-47 -12q-15 0 -30 4t-27 12.5t-19.5 21t-8.5 30.5h20
q1 -25 21.5 -36.5t43.5 -11.5q19 0 33.5 7.5t14.5 21.5q0 10 -10 16t-21 10q-13 4 -30 6l31 34q-41 23 -41 73q0 19 8 41l23 7q22 -46 57.5 -67t80.5 -23q18 18 18 45q0 34 -7.5 60t-17.5 51t-18.5 53t-10.5 66q-16 -23 -35.5 -44.5t-39.5 -38.5l-22 -18z" />
    <glyph glyph-name="Scaron" unicode="&#x160;" horiz-adv-x="1208" 
d="M1368 553q0 10 -6 19q-7 -13 -7 -25q0 -18 5 -18q8 0 8 24zM1394 617q-3 -4 -7 -8q-3 -4 -6.5 -9t-7.5 -10q15 -15 15 -37q0 -20 -8.5 -30t-18.5 -10t-18 8.5t-8 25.5t13 40q-15 11 -38.5 16t-51.5 5q-85 0 -138 -29.5t-86.5 -79t-53 -114t-37.5 -133.5
q-27 -105 -77.5 -189t-124 -142.5t-169.5 -89.5t-214 -31q-72 0 -137 15t-114 45t-78 74.5t-29 102.5q0 59 33 119.5t91 109.5t137 80t171 31q54 0 103 -12t86 -36t59 -61.5t22 -88.5q0 -26 -14.5 -55.5t-48.5 -60.5l-14 14q31 28 44 53.5t13 48.5q0 46 -20 79.5t-54.5 55.5
t-79.5 32.5t-96 10.5q-87 0 -162.5 -29.5t-131 -75.5t-87 -103t-31.5 -112q0 -53 27 -93.5t73.5 -68t108 -41.5t129.5 -14q108 0 199.5 28.5t163.5 84t123.5 136.5t78.5 187q18 70 39.5 137t57.5 119t92.5 84t145.5 32q64 0 100 -25q4 6 8 11t7 9q4 4 7 8zM1498 743
q-31 -3 -66 -14.5t-65 -24.5q-35 -15 -70 -33l-15 8q-3 18 -9 35q-5 14 -15.5 29t-28.5 24l8 18q34 -17 46 -43t14 -48q9 5 31 15.5t49.5 21.5t58.5 20t60 12z" />
    <glyph glyph-name="scaron" unicode="&#x161;" horiz-adv-x="572" 
d="M421 498q-31 -3 -66 -14.5t-65 -24.5q-35 -15 -70 -33l-15 8q-3 18 -9 35q-5 14 -15.5 29t-28.5 24l8 18q34 -17 46 -43t14 -48q9 5 31 15.5t49.5 21.5t58.5 20t60 12zM133 -31q23 0 43 9q-41 5 -72.5 26t-48.5 63q-4 -11 -4 -24q0 -29 21.5 -51.5t60.5 -22.5zM56 185
l21 18q39 33 61.5 60.5t26.5 56.5v11q0 24 7 34.5t15 10.5q7 0 12.5 -5.5t5.5 -15.5q0 -23 -22 -59q0 -47 9 -78t19.5 -58t19.5 -54.5t9 -65.5q0 -27 -13 -46q38 2 86 15.5t100.5 37.5t107.5 58.5t107 79.5l21 18l14 -16l-22 -18q-56 -45 -114 -80.5t-114.5 -60.5t-108 -38
t-93.5 -14q-15 -14 -35.5 -20.5t-42.5 -6.5q-47 0 -73.5 25t-26.5 63q0 19 8 41l23 7q22 -46 57.5 -67t80.5 -23q18 18 18 45q0 34 -7.5 60t-17.5 51t-18.5 53t-10.5 66q-16 -23 -35.5 -44.5t-39.5 -38.5l-22 -18z" />
    <glyph glyph-name="uni0162" unicode="&#x162;" horiz-adv-x="1026" 
d="M1878 680q-68 -57 -135.5 -79t-139.5 -22q-93 0 -179 18t-172.5 39t-177 39t-192.5 18q-138 0 -255 -28t-212.5 -75.5t-168 -109.5t-122 -129t-74.5 -135t-25 -127q0 -42 13 -77.5t39.5 -61.5t66.5 -40.5t94 -14.5q91 0 161.5 26.5t127 70t103 98.5t88.5 111
q39 52 82 104.5t95 97t115.5 77t143.5 45.5l4 -20q-80 -13 -141 -44t-111 -74t-91.5 -94.5t-80.5 -103.5q-45 -59 -91.5 -115.5t-104 -100.5t-130.5 -71t-170 -27q-59 0 -103 16t-73 44.5t-43 68t-14 85.5q0 62 26 132t76 139t125 133t172 113t217 78t261 29q103 0 194 -18
t177 -39t172 -39t178 -18q69 0 133 21t130 76z" />
    <glyph glyph-name="uni0163" unicode="&#x163;" horiz-adv-x="451" 
d="M59 349h129q24 31 46 59t39 50q19 26 37 47l16 -12q-16 -20 -34 -43q-16 -20 -36 -46t-43 -55h178v-16h-190q-23 -29 -46 -59t-43 -57q-48 -62 -68.5 -107t-20.5 -74q0 -31 22.5 -43.5t59.5 -12.5q56 0 108.5 17.5t104 48t103.5 71t107 86.5l14 -16q-57 -47 -110 -88
t-106.5 -72t-108 -49t-112.5 -18q-46 0 -74 17t-28 59q0 32 22.5 81t70.5 112l80 104h-117v16zM-28 -92q0 14 -11 14q-17 0 -31 -13.5t-14 -23.5q0 -9 12 -9q15 0 43 22q1 3 1 10zM-200 -226q55 14 98.5 37.5t62.5 55.5q-20 -11 -33 -11q-17 0 -24.5 7t-7.5 18q0 9 5 20
t14 20t21 15t25 6q14 0 22.5 -8t8.5 -26q0 -48 -48 -88t-138 -66z" />
    <glyph glyph-name="Tcaron" unicode="&#x164;" horiz-adv-x="1026" 
d="M1878 680q-68 -57 -135.5 -79t-139.5 -22q-93 0 -179 18t-172.5 39t-177 39t-192.5 18q-138 0 -255 -28t-212.5 -75.5t-168 -109.5t-122 -129t-74.5 -135t-25 -127q0 -42 13 -77.5t39.5 -61.5t66.5 -40.5t94 -14.5q91 0 161.5 26.5t127 70t103 98.5t88.5 111
q39 52 82 104.5t95 97t115.5 77t143.5 45.5l4 -20q-80 -13 -141 -44t-111 -74t-91.5 -94.5t-80.5 -103.5q-45 -59 -91.5 -115.5t-104 -100.5t-130.5 -71t-170 -27q-59 0 -103 16t-73 44.5t-43 68t-14 85.5q0 62 26 132t76 139t125 133t172 113t217 78t261 29q103 0 194 -18
t177 -39t172 -39t178 -18q69 0 133 21t130 76z" />
    <glyph glyph-name="tcaron" unicode="&#x165;" horiz-adv-x="451" 
d="M59 349h129q24 31 46 59t39 50q19 26 37 47l16 -12q-16 -20 -34 -43q-16 -20 -36 -46t-43 -55h178v-16h-190q-23 -29 -46 -59t-43 -57q-48 -62 -68.5 -107t-20.5 -74q0 -31 22.5 -43.5t59.5 -12.5q56 0 108.5 17.5t104 48t103.5 71t107 86.5l14 -16q-57 -47 -110 -88
t-106.5 -72t-108 -49t-112.5 -18q-46 0 -74 17t-28 59q0 32 22.5 81t70.5 112l80 104h-117v16z" />
    </font>
</defs>
</svg>
