<?xml version="1.0" standalone="no"?>
<!DOCTYPE svg PUBLIC "-//W3C//DTD SVG 1.1//EN" "http://www.w3.org/Graphics/SVG/1.1/DTD/svg11.dtd" >
<svg xmlns="http://www.w3.org/2000/svg" xmlns:xlink="http://www.w3.org/1999/xlink" version="1.1">
<metadata>
Created by FontForge 20170731 at Sun Mar  3 11:12:43 2013
 By Aleksey,,,
Copyright (c) 2011 by Brittney Murphy. All rights reserved.
</metadata>
<defs>
<font id="UVFCinnamonCake" horiz-adv-x="500" >
  <font-face 
    font-family="UVF Cinnamon Cake"
    font-weight="400"
    font-stretch="normal"
    units-per-em="1000"
    panose-1="0 0 0 0 0 0 0 0 0 0"
    ascent="750"
    descent="-250"
    x-height="466"
    cap-height="708"
    bbox="-195.545 -209 840.129 1124.4"
    underline-thickness="50"
    underline-position="-150"
    unicode-range="U+0020-FB02"
  />
<missing-glyph horiz-adv-x="270" 
 />
    <glyph glyph-name=".notdef" horiz-adv-x="270" 
 />
    <glyph glyph-name=".null" horiz-adv-x="0" 
 />
    <glyph glyph-name="nonmarkingreturn" horiz-adv-x="333" 
 />
    <glyph glyph-name="space" unicode=" " horiz-adv-x="270" 
 />
    <glyph glyph-name="exclam" unicode="!" horiz-adv-x="184" 
d="M92 662q3 16 13.5 25t22.5 10t21 -7.5t9 -26.5q-12 -72 -19 -136.5t-10.5 -128t-5 -128.5t-2.5 -138q-5 -14 -14.5 -21.5t-20 -8.5t-19.5 6t-12 23q12 72 19 137t10.5 128t5 128t2.5 138zM76 76q3 0 5.5 -0.5t5.5 -1.5q12 3 22 -4t12 -26q-5 -8 -7.5 -14.5t-7.5 -14.5
q-8 -11 -18 -12t-20.5 3t-19 11.5t-13.5 15.5q1 7 2.5 11t5.5 9q5 9 15 13.5t18 9.5z" />
    <glyph glyph-name="quotedbl" unicode="&#x22;" horiz-adv-x="234" 
d="M11 610q1 16 10.5 26.5t21 12.5t21.5 -5.5t12 -25.5q-3 -15 8.5 -59t30.5 -107q-3 -14 -12 -22.5t-19.5 -10.5t-20 4t-13.5 21q4 26 1 49.5t-9.5 44.5t-15 39t-15.5 33zM153 620q1 16 10.5 26.5t21 12.5t21.5 -5.5t12 -25.5q-11 -44 -13.5 -81t8.5 -81q-3 -14 -12 -22.5
t-19.5 -10.5t-20 4t-13.5 21q5 22 6.5 45.5t1 45.5t-1.5 40.5t-1 30.5z" />
    <glyph glyph-name="numbersign" unicode="#" 
d="M22 292q-15 4 -21.5 13.5t-5 20t9.5 20t21 13.5l100 -12q2 13 2.5 25.5t1.5 25.5q-25 -4 -50 -7l-50 -6q-15 4 -21.5 13.5t-5 20t9.5 20t21 13.5q23 -2 47 -2.5t47 -0.5l-3 18q-5 7 -7 15q1 1 1 5q1 14 8.5 24t17 13.5t20 -0.5t17.5 -19v-10h1v-5l-2 -6l-3 -34
q24 2 48.5 3.5t48.5 4.5l-2 36v-20q-1 -3 -1.5 -0.5t-0.5 7.5v11t-1 9q1 16 10.5 26.5t21 12.5t21.5 -5.5t12 -25.5l-5 -43q54 7 106 21q7 4 20 4q1 0 2 -1q12 -5 17.5 -14t4.5 -19t-7.5 -19t-18.5 -13q-7 -2 -18.5 -3t-24 -1t-24 0.5t-18.5 2.5h-1q-11 -1 -22 -1t-22 -2
q-3 -21 -5.5 -42t-4.5 -42q17 1 32.5 1.5t32.5 2.5h7q18 10 33.5 -1t10.5 -36q-10 -16 -24 -22t-29.5 -6t-33 3.5t-33.5 6.5v-13q-1 -24 3 -48t2 -49q-3 -13 -11.5 -21.5t-18.5 -10.5t-19.5 3.5t-13.5 20.5l-2 7q0 6 2 11l4 10q5 19 9.5 44t7.5 52q-60 6 -119 6v-3
q-2 -23 0.5 -46t-4.5 -46q-6 -11 -14.5 -16.5t-17.5 -5.5t-17 6t-12 19q0 2 -2 8q0 19 14 31l15 53q-47 -1 -94 -6zM171 404q-3 -16 -6.5 -31t-5.5 -30q59 -8 118 -9q1 10 1.5 19.5t0.5 19.5v1q-2 11 -2.5 21t-1.5 21q-26 -3 -52 -5.5t-52 -6.5zM403 341q-2 0 -3.5 0.5
t-3.5 0.5l-2 -1q10 -2 9 0z" />
    <glyph glyph-name="dollar" unicode="$" horiz-adv-x="347" 
d="M123 584q1 16 10.5 26.5t21 12.5t21.5 -5.5t12 -25.5l-3 -72q34 5 62 -1t42 -29q4 -33 -5 -42t-25 -7t-36.5 9t-39.5 7q-1 -40 -1.5 -75t0.5 -75q40 1 72 -16t52 -43t26 -56t-6 -54.5t-43 -39t-85 -9.5q3 -26 5.5 -48t2.5 -38q-3 -12 -10 -20.5t-16 -10.5t-20 2.5
t-21 18.5q-1 7 0 18.5t2.5 25t2.5 27t0 25.5q-26 2 -51 10t-45 23q-8 12 -7.5 24t7 21t18 12.5t25.5 -2.5q8 -7 22 -12.5t32 -10.5l1 121q-37 -3 -67.5 11t-50 37.5t-26.5 52.5t3.5 56t40 47.5t83.5 27.5zM135 452q-49 -12 -73 -30t-22.5 -38.5t28 -39.5t77.5 -32
q-2 35 -4.5 70t-5.5 70zM191 147q58 -6 81 12.5t18.5 43t-33 46t-74.5 22.5z" />
    <glyph glyph-name="percent" unicode="%" horiz-adv-x="473" 
d="M316 692q7 15 19.5 21t24 3.5t18 -12.5t1.5 -28q-40 -92 -73.5 -174.5t-63.5 -163.5t-59 -165t-60 -180q-8 -12 -19.5 -17t-21.5 -3t-17 11t-6 25q40 92 74 174.5t64.5 164t59.5 165.5t59 179zM261 302q14 35 41.5 47t57 6t54 -28t31.5 -54q7 -34 -7 -57.5t-38.5 -35.5
t-54 -11.5t-52 14.5t-33.5 43.5t1 75.5zM402 242q6 8 1.5 19t-16.5 20t-29.5 13t-36.5 -2q-15 -4 -19.5 -16.5t-1 -27t12 -27t18.5 -17.5q8 -3 20 -3t23 4.5t19 13.5t9 23zM6 512q14 35 41.5 47t57 6t54 -28t31.5 -54q7 -34 -7 -57.5t-38.5 -35.5t-54 -11.5t-52 14.5
t-33.5 43.5t1 75.5zM147 452q6 8 1.5 19t-16.5 20t-29.5 13t-36.5 -2q-15 -4 -19.5 -16.5t-1 -27t12 -27t18.5 -17.5q8 -3 20 -3t23 4.5t19 13.5t9 23z" />
    <glyph glyph-name="ampersand" unicode="&#x26;" horiz-adv-x="436" 
d="M422 26q17 -6 23 -13t3 -13t-13.5 -11t-26.5 -7q-12 4 -25 8.5t-29.5 11t-37.5 16t-49 24.5l-9 -3l-40.5 -13.5t-23.5 -7t-22.5 -5t-39.5 -7.5q-66 -12 -99 12.5t-19 78.5q3 11 11 23t19 24t23 23.5t22 21.5q-17 20 -36 54t-33 73.5t-19.5 80t5 74t39.5 56t84 26.5
q82 6 124.5 -10t56.5 -45.5t3.5 -69t-34.5 -81t-57.5 -82t-65.5 -71.5q19 -29 52.5 -55.5t64.5 -45.5q11 6 25 16t28 20.5l28 21t25 19.5q18 10 29 7.5t14.5 -12.5t-1.5 -23.5t-19 -24.5l-85 -51q46 -20 71.5 -30t33.5 -10zM187 505q-57 6 -89.5 -5.5t-45.5 -35t-10 -55
t15 -64.5t31 -64.5t38 -54.5q13 13 35.5 37.5t45 53.5t39.5 60t19.5 58t-14.5 46t-64 24zM215 73q-24 17 -50 39.5t-46 42.5q-19 -18 -37 -40t-16 -45q1 -10 14 -15t34 -5t47 5.5t54 17.5z" />
    <glyph glyph-name="quotesingle" unicode="'" horiz-adv-x="96" 
d="M23 620q1 16 10.5 26.5t21 12.5t21.5 -5.5t12 -25.5q-11 -44 -13.5 -81t8.5 -81q-3 -14 -12 -22.5t-19.5 -10.5t-20 4t-13.5 21q5 22 6.5 45.5t1 45.5t-1.5 40.5t-1 30.5z" />
    <glyph glyph-name="parenleft" unicode="(" horiz-adv-x="190" 
d="M184 813q7 13 19 17.5t22 2t16 -13t2 -27.5q-67 -65 -109.5 -132.5t-67.5 -154.5q-20 -67 -25.5 -135t7 -131.5t46.5 -120.5t93 -102l34 -24t37 -15q15 -6 19.5 -16.5t1.5 -21t-13 -19t-23 -10.5q-32 8 -61.5 29.5t-51.5 45.5q-65 72 -94.5 154.5t-32.5 169.5t17 175.5
t55 172.5q19 45 47.5 82.5t61.5 73.5z" />
    <glyph glyph-name="parenright" unicode=")" horiz-adv-x="190" 
d="M9 813q33 -36 61.5 -73.5t47.5 -82.5q35 -84 55 -172.5t17 -175.5t-32.5 -169.5t-94.5 -154.5q-22 -24 -51.5 -45.5t-61.5 -29.5q-14 2 -23.5 10.5t-12.5 19t1.5 21t19.5 16.5q20 3 37 15l34 24q59 45 92.5 102t46.5 120.5t7 131.5t-25 135q-26 87 -68 154.5t-109 132.5
q-4 17 2 27.5t16 13t21.5 -2t19.5 -17.5z" />
    <glyph glyph-name="asterisk" unicode="*" horiz-adv-x="418" 
d="M51 444q-8 12 -7.5 24t7 21t18 12.5t25.5 -2.5q20 -24 39 -51t40 -52q-5 31 -13 60.5t-13 60.5q1 16 10.5 26.5t21 12.5t21.5 -5.5t12 -25.5q-4 -32 -4.5 -63t1.5 -61q15 20 29 42t29 43q13 9 25 8t18.5 -8t7.5 -19t-6 -25q-27 -21 -49 -41t-41 -42q13 1 25 1.5t26 2.5
q20 2 38.5 5t37.5 5h4q-1 2 4.5 3t8.5 0q20 4 30 -12.5t-2 -38.5q-14 -12 -28 -14.5t-29.5 -1t-32 5t-34.5 3.5h-13l23 -18q5 1 9.5 0t9.5 -3q5 -7 9.5 -12t8.5 -13v-1l6 -4l-4 -2q3 -11 -0.5 -21t-11 -16t-17.5 -7t-20 7l-9 11q-1 1 -2 1t-3 2q-4 4 -6 11l-30 37
q1 -8 2 -16.5t3 -16.5l2 -12v-4q-1 -5 -5 -13l-2 -4l-4 -4l-4 -4t-6 -4l-6 -3q-2 -1 -8 -1h-6l-2 1q-2 0 -6 2q0 1 -1 1l-2 2q-7 5 -9 11l-3 9q0 2 -1 3q0 9 3 15q0 2 0.5 5t0.5 6q-1 -2 -2 -4.5t-1 -4.5q-7 -13 -18 -18.5t-21 -3.5t-17 11t-6 25q6 12 14 22.5t16 21.5
l-92 -12q-15 4 -21.5 13.5t-5 20t9.5 20t21 13.5q28 -3 56 -5t54 -3q-22 20 -47 41t-55 44zM168 277l-2 -5q2 0 2 -2v7z" />
    <glyph glyph-name="plus" unicode="+" horiz-adv-x="421" 
d="M154 486q1 16 10.5 26.5t21 12.5t21.5 -5.5t12 -25.5q-1 -14 -1.5 -29t-2.5 -29q0 -2 0 1t-0.5 7.5t-0.5 7.5t0 1q-2 -20 -1.5 -39t2.5 -39q40 1 79.5 6t77.5 13q18 -1 26 -11t6.5 -22t-11 -22t-25.5 -12q-38 0 -74.5 4.5t-73.5 5.5q2 -20 5.5 -40.5t6.5 -40.5
q4 -8 6 -18q0 -3 -0.5 -6t-0.5 -6q-2 -8 -6 -14q-5 -12 -18 -16q-13 -5 -23 1q-1 0 -3 2q-6 4 -9 12l-3 8l-2 11q0 12 7 22q3 21 5 42t0 42q-16 -2 -37.5 -4.5t-43.5 -5t-42.5 -4.5t-35.5 -3q-15 4 -21.5 13.5t-5 20t9.5 20t21 13.5q38 -5 75 -7.5t74 -3.5q-6 29 -13 55.5
t-12 55.5z" />
    <glyph glyph-name="comma" unicode="," horiz-adv-x="212" 
d="M99 -61q1 4 3.5 18t3 30t-3 30.5t-13.5 19.5q-19 -14 -29.5 0t1.5 43q0 -3 -1 -4q6 11 12 16t18 9q19 -2 31 -8.5t18.5 -17t9 -25t3.5 -32.5q1 -2 -0.5 -13.5t-5 -26.5t-8.5 -29.5t-11 -23t-13.5 -6.5t-14.5 20zM94 42q-3 0 -5 -1h4z" />
    <glyph glyph-name="hyphen" unicode="-" horiz-adv-x="289" 
d="M35 323q-15 4 -21.5 13.5t-5 20t9.5 20t21 13.5q34 -8 57.5 -13.5t42.5 -7.5t38 1t45 13q7 6 17 6l1 1v-1q8 2 20 -7v1q2 -1 6 -5l-4 3q13 -16 7.5 -32.5t-24.5 -24.5q-53 3 -105 5.5t-105 -6.5z" />
    <glyph glyph-name="period" unicode="." horiz-adv-x="194" 
d="M96 102q2 0 4 -0.5t4 -0.5q4 1 12 1q7 -5 13.5 -8t8.5 -11q5 -8 5 -13t-2 -14q-24 -24 -45.5 -26t-31 8.5t-4 28.5t35.5 35z" />
    <glyph glyph-name="slash" unicode="/" horiz-adv-x="353" 
d="M280 692q7 15 19.5 21t24 3.5t18 -12.5t1.5 -28q-40 -92 -73.5 -174.5t-63.5 -163.5t-59 -165t-60 -180q-8 -12 -19.5 -17t-21.5 -3t-17 11t-6 25q40 92 74 174.5t64.5 164t59.5 165.5t59 179z" />
    <glyph glyph-name="zero" unicode="0" horiz-adv-x="482" 
d="M49 541q25 58 68 81t91 21t94.5 -23.5t77.5 -52.5q37 -36 57.5 -89t25.5 -112t-5 -118.5t-34 -109.5t-61.5 -84t-87.5 -42q-11 -2 -23 -4t-29 -0.5t-40.5 8.5t-56.5 22q-56 46 -84 108t-34.5 130t5.5 137t36 128zM327 554q-45 37 -86.5 37.5t-76 -23.5t-61 -67.5t-41 -96
t-16 -108t13.5 -103t49 -82t89 -44.5q49 -8 85.5 7.5t61.5 45.5t40 71.5t20.5 85.5t2.5 87t-13 76q-10 35 -25 63t-43 51z" />
    <glyph glyph-name="one" unicode="1" horiz-adv-x="210" 
d="M153 647q2 0 4 -0.5t4 -0.5q11 2 20.5 -6t11.5 -25q-8 -81 -14.5 -154t-11 -145t-6.5 -145.5t0 -154.5q-6 -11 -15 -16.5t-18 -5.5t-17 6.5t-12 19.5q0 3 -1 4q14 125 25 242t9 226l-2 83q-16 -13 -26 -20.5t-17 -13.5t-12.5 -13t-12.5 -19q-13 -13 -25.5 -13t-20.5 8
t-9 21.5t10 27.5q1 1 16.5 14.5t36.5 29.5t43.5 30.5t39.5 19.5z" />
    <glyph glyph-name="two" unicode="2" horiz-adv-x="472" 
d="M54 -5q-15 4 -20.5 11.5t-3.5 17t9.5 19.5t18.5 19h4q16 15 49 43t73 65t80.5 80t72.5 88t49 89.5t9 85.5q-7 35 -34.5 56t-65 29.5t-80 4.5t-78.5 -20t-60.5 -43t-26.5 -65q-14 -26 -28.5 -21t-12.5 37q4 56 36.5 91.5t78 53.5t97 19t93.5 -12q65 -21 97 -53t39 -70.5
t-7.5 -82t-41.5 -88t-64 -87.5t-75 -80.5t-73.5 -68t-60.5 -49.5q38 4 72 8t66.5 8t66.5 8.5t72 10.5q13 9 25 8t18.5 -8t7.5 -19t-6 -25q6 -6 -23 -7t-83 -4.5t-129 -13.5t-161 -35z" />
    <glyph glyph-name="three" unicode="3" 
d="M289 552q-16 24 -37.5 34t-44 10.5t-45 -6t-41 -14t-32 -13.5t-17.5 -5q-16 11 -20.5 21.5t7.5 25.5q19 15 47.5 24.5t60.5 12.5t64.5 -0.5t58 -15t41 -31.5t14.5 -50q-2 -45 -23 -77.5t-52 -59.5q4 0 6 -0.5t4 -0.5q37 -8 69.5 -23t58 -37.5t43 -53.5t23.5 -72
q8 -56 -20 -97.5t-75 -68.5t-106 -39t-113 -8t-95 23.5t-53 55.5q-4 15 2 27.5t16.5 18t22.5 2.5t20 -19q12 -30 44 -45.5t72.5 -17.5t84 8.5t79.5 31.5t59 51.5t22 68.5q-6 36 -22.5 64.5t-39 49t-49 31.5t-51.5 13q-14 0 -33.5 -6.5t-38 -12.5t-33 -9t-18.5 5q-6 12 -3 21
t11.5 15t21.5 10.5t27 7.5q18 14 36.5 34t32 41t18.5 41t-4 34z" />
    <glyph glyph-name="four" unicode="4" horiz-adv-x="455" 
d="M284 603q1 16 9.5 24.5t19 8.5t19.5 -9.5t11 -27.5q-10 -57 -15.5 -108.5t-8.5 -105.5q32 2 59.5 1.5t49.5 -3.5q15 -6 19.5 -16.5t1.5 -21t-13 -19t-23 -10.5q-23 5 -46.5 8t-49.5 5q-1 -66 2 -139.5t8 -163.5q-3 -14 -12 -22.5t-19 -10.5t-20 4t-14 21q5 24 9 59.5
t6 76.5t3.5 86.5t2.5 90.5q-56 2 -115 -1t-119 -8q-6 -1 -9 0t-8 4q-3 3 -5.5 18t-4 37t-3 48t-2.5 50t-2 43.5t-3 29.5q-2 15 -6 30t-6 30q0 1 -0.5 1.5t-0.5 2.5q1 3 1 8q1 15 10.5 25t20.5 12t20.5 -5t11.5 -24h1v-8q-1 -1 -1 -4q8 -63 5.5 -125.5t-6.5 -126.5
q16 -1 40.5 0.5t54 4t62 5.5t65.5 5v78.5v66.5v49v26z" />
    <glyph glyph-name="five" unicode="5" horiz-adv-x="466" 
d="M299 392q-38 15 -74 12.5t-67 -13t-55 -25.5t-37 -25l-2 -1h1q-2 -1 -1 0q-12 -4 -21 17t-14.5 54.5t-7.5 72.5t-1.5 71.5t4 52.5t10.5 15q1 3 16.5 3.5t41 0t57 -1.5t64.5 -1t64.5 2t56.5 7q18 -3 24.5 -13.5t3.5 -22.5t-13.5 -21t-26.5 -9q-13 3 -30.5 5t-25.5 7
q-45 4 -97 -0.5t-97 -8.5v-2q-8 -28 -9.5 -62t9.5 -85q25 10 57 19.5t65 14t65.5 1.5t58.5 -19q68 -40 100 -89.5t35 -99.5t-18 -96.5t-59.5 -80t-90 -51t-108.5 -9.5q-42 5 -82 21t-71 43q-16 6 -20 18t0.5 23.5t16 19t27.5 4.5q32 -26 72 -47t82.5 -29.5t84.5 0t77 41.5
q33 31 41.5 74t-2 85.5t-38 77.5t-66.5 50z" />
    <glyph glyph-name="six" unicode="6" horiz-adv-x="439" 
d="M190 620q11 14 24 16.5t22 -4t12 -19t-6 -28.5q-27 -34 -52 -59.5t-47 -50.5t-40 -52.5t-30 -65.5q34 16 76 24t83 6.5t77.5 -13t59.5 -33.5q24 -23 37.5 -57.5t15.5 -72.5t-7 -76t-31.5 -68.5t-58.5 -49.5t-86 -19q-65 0 -110.5 18.5t-73.5 50.5t-41 74t-12.5 89.5
t12.5 97.5t33 97q10 22 25.5 44t34.5 46t40.5 49.5t42.5 55.5zM65 307q-14 -35 -13 -76.5t16 -80t44 -68t71 -40.5q47 -12 92.5 4t75 50t36.5 81t-23 97q-20 33 -57 45t-80 11.5t-86 -8.5t-76 -15z" />
    <glyph glyph-name="seven" unicode="7" 
d="M32 558q-15 5 -20.5 15.5t-3 21t11 19t22.5 11.5q106 -18 203.5 -12t201.5 20q17 -2 24 -11.5t5 -20.5q2 -3 2 -6.5t1 -8.5q-35 -66 -75.5 -132t-79.5 -133t-72 -136.5t-54 -142.5q-8 -12 -19.5 -16.5t-21.5 -1.5t-16 12.5t-4 25.5q13 33 31 65t37.5 63t39.5 61.5
t37 61.5q9 16 19 34.5t23.5 47t32.5 70t47 104.5q-70 7 -139 6q-59 -2 -116.5 -8.5t-116.5 -8.5z" />
    <glyph glyph-name="eight" unicode="8" horiz-adv-x="603" 
d="M115 578q56 34 119.5 42t119 -6t94.5 -47.5t45 -81.5q3 -46 -25.5 -76.5t-67.5 -45.5q54 -13 94.5 -38.5t64 -58t28.5 -68.5t-11.5 -70t-56.5 -64t-106 -49q-20 -6 -45.5 -11t-52 -8t-52.5 -4.5t-47 -0.5q-45 3 -88.5 17t-76.5 46q-45 45 -51.5 93.5t13 93t59.5 80.5
t88 57q-11 5 -22 12t-21 15q-23 19 -37.5 42t-17 46.5t9.5 45.5t43 39zM538 185q-11 45 -42 75t-73.5 48t-91.5 25t-97 6q-54 -7 -94 -31t-63 -56t-27.5 -68.5t12 -68.5t55.5 -56t104 -31q18 -2 50.5 -0.5t70.5 8t76 18t67.5 29.5t45 43t7.5 59zM400 539q-20 12 -35.5 18
t-30 8.5t-31.5 3t-40 2.5q-45 -5 -77.5 -16.5t-53.5 -38.5q-16 -20 -10 -39t26 -34.5t49 -28t59 -19.5t57 -8t43 6q33 5 56 21t31.5 37t-1 44.5t-42.5 43.5z" />
    <glyph glyph-name="nine" unicode="9" horiz-adv-x="489" 
d="M404 634q-1 16 8 27t20.5 14t22 -3t13.5 -24q-2 -81 -12 -158t-21 -153t-18.5 -153t-2.5 -158q-2 -17 -12 -26t-21 -10t-20.5 7.5t-10.5 26.5q6 24 10 49.5t8.5 58t9.5 74.5t13 98q-33 -29 -70 -44t-74.5 -20t-73.5 -1t-67 14q-51 16 -76 49.5t-29 75.5t10.5 88t43 85
t68.5 67.5t86.5 36.5t97 -10.5t100.5 -71.5q0 16 -1 31zM409 479q-18 40 -48 74.5t-68.5 49.5t-84.5 4.5t-98 -59.5q-34 -32 -52.5 -70t-17.5 -74t22.5 -66t68.5 -45q33 -11 69.5 -11.5t71 10t65 31.5t51.5 52q1 1 4.5 14t7 30t6.5 34t3 26z" />
    <glyph glyph-name="colon" unicode=":" horiz-adv-x="194" 
d="M96 102q2 0 4 -0.5t4 -0.5q4 1 12 1q7 -5 13.5 -8t8.5 -11q5 -8 5 -13t-2 -14q-24 -24 -45.5 -26t-31 8.5t-4 28.5t35.5 35zM96 414q2 0 4 -0.5t4 -0.5q4 1 12 1q7 -5 13.5 -8t8.5 -11q5 -8 5 -13t-2 -14q-24 -24 -45.5 -26t-31 8.5t-4 28.5t35.5 35z" />
    <glyph glyph-name="semicolon" unicode=";" horiz-adv-x="212" 
d="M99 -61q1 4 3.5 18t3 30t-3 30.5t-13.5 19.5q-19 -14 -29.5 0t1.5 43q0 -3 -1 -4q6 11 12 16t18 9q19 -2 31 -8.5t18.5 -17t9 -25t3.5 -32.5q1 -2 -0.5 -13.5t-5 -26.5t-8.5 -29.5t-11 -23t-13.5 -6.5t-14.5 20zM94 42q-3 0 -5 -1h4zM96 414q2 0 4 -0.5t4 -0.5q4 1 12 1
q7 -5 13.5 -8t8.5 -11q5 -8 5 -13t-2 -14q-24 -24 -45.5 -26t-31 8.5t-4 28.5t35.5 35z" />
    <glyph glyph-name="less" unicode="&#x3c;" horiz-adv-x="273" 
d="M208 496q13 9 24.5 8.5t18 -8t8 -19.5t-5.5 -25q-51 -48 -101.5 -95.5t-101.5 -95.5l102 -32t96 -46q12 -12 11.5 -25.5t-8 -23.5t-20 -13t-26.5 7q-8 8 -28.5 20.5t-47 27t-57.5 29.5t-60 28q-12 10 -7 26q54 57 104.5 116.5t98.5 120.5z" />
    <glyph glyph-name="equal" unicode="=" horiz-adv-x="287" 
d="M26 275q-15 4 -21.5 13.5t-5 20t9.5 20t21 13.5q34 -8 57.5 -13.5t42.5 -7.5t38 1t45 13q7 6 17 6l1 1v-1q8 2 20 -7v1q2 -1 6 -5l-4 3q13 -16 7.5 -32.5t-24.5 -24.5q-53 3 -105 5.5t-105 -6.5zM34 371q-15 4 -21.5 13.5t-5 20t9.5 20t21 13.5q34 -8 57.5 -13.5
t42.5 -7.5t38 1t45 13q7 6 17 6l1 1v-1q8 2 20 -7v1q2 -1 6 -5l-4 3q13 -16 7.5 -32.5t-24.5 -24.5q-53 3 -105 5.5t-105 -6.5z" />
    <glyph glyph-name="greater" unicode="&#x3e;" horiz-adv-x="273" 
d="M56 496q48 -61 98.5 -120.5t104.5 -116.5q5 -16 -7 -26q-29 -13 -60 -28t-57.5 -29.5t-47 -27t-28.5 -20.5q-14 -10 -27 -7t-20.5 13t-7.5 23.5t12 25.5q45 30 96 46l102 32q-51 48 -101.5 95.5t-101.5 95.5q-8 13 -7 25t8 19t18.5 8t25.5 -8z" />
    <glyph glyph-name="question" unicode="?" horiz-adv-x="442" 
d="M59 109q10 45 14 75.5t5 49.5t2 29.5t5.5 15t15.5 5.5t32 2q20 1 41 1.5t42 3t41 8.5t38 18q42 30 66 74.5t25 91t-22.5 88t-77.5 64.5q-28 12 -60.5 13.5t-65 -5.5t-63 -20.5t-54.5 -31.5q-1 -1 -1 -2h-1q-20 -14 -33 -6.5t-1 36.5q6 13 22 23.5t37 19.5t44.5 16t44 12
t35.5 7.5t20 3.5q57 6 99.5 -12t69 -50.5t37.5 -76t6.5 -89.5t-25.5 -89.5t-57.5 -76.5t-89 -51.5t-121.5 -13.5l-5 -125q-3 -14 -12 -22.5t-19 -10.5t-20 4t-14 21zM105 63q19 -8 21 -23.5t-7 -27.5q-2 -6 -4 -9q0 -3 -1 -6t1 -5q-20 -19 -36.5 -11.5t-18.5 26.5
q-2 8 -1 12q-1 1 -3 8v3q1 8 3.5 11.5t7.5 7.5q5 6 19 9t19 5z" />
    <glyph glyph-name="at" unicode="@" horiz-adv-x="826" 
d="M296 335q19 18 48 24t58.5 0.5t55.5 -22.5t39 -45q10 20 10.5 33.5t10.5 17.5q17 -5 20.5 -19t1.5 -33.5t-6.5 -43.5t-4 -48.5t10 -48t35.5 -43.5q27 -21 52 -22t46 10t37 30t24 38q29 67 28.5 121.5t-23.5 97t-64 72.5t-92.5 48t-110 24t-116 -1t-110.5 -25.5t-94 -49.5
q-46 -35 -69.5 -79t-28 -91.5t8 -96t38 -92t62.5 -80t81 -60.5q29 -17 65 -23.5t69 -6.5t58.5 6t34.5 16q27 18 43 10t1 -34q-46 -32 -97 -43.5t-101.5 -4.5t-97.5 30t-84 60q-43 43 -73.5 96.5t-43.5 111t-6.5 117t38.5 114.5q21 36 55 64t74.5 48.5t84 33.5t83.5 19
q245 36 412 -143q25 -25 37 -58t13.5 -69.5t-5.5 -73t-20 -68.5t-30.5 -56.5t-36.5 -36.5q-15 -10 -43 -17.5t-58.5 -6t-60 15.5t-47.5 48l-5 -3q-44 -27 -89 -31.5t-82 9t-63.5 41t-34.5 63t5.5 76t56.5 80.5zM275 147q14 -20 43.5 -30.5t62.5 -11t63.5 9.5t46.5 31
q-5 23 -6.5 47t-0.5 47q-14 17 -25 33.5t-24.5 27.5t-31 15t-44.5 -4q-24 -8 -46.5 -25t-36.5 -39.5t-16 -49t15 -51.5z" />
    <glyph glyph-name="A" unicode="A" horiz-adv-x="685" 
d="M6 321q-11 18 -10 28.5t8 15.5t18 5.5t20 0t13 -1t-2 1.5l54 -2q6 46 16 91.5t27 91.5q21 56 54 91t72.5 52.5t83 17.5t86 -15t80.5 -44.5t67 -71.5q17 -25 29 -68t20.5 -95.5t12.5 -110.5t5.5 -111.5t0 -98.5t-4.5 -73q-5 -19 -17 -26t-24 -5t-19.5 13t-2.5 28
q6 76 11 154.5t1 166.5q-52 2 -110.5 -1t-118 -9t-117 -13t-108.5 -14h-2q-2 -39 -1 -78t3 -75.5t4 -69.5t3 -60q-3 -14 -12 -22.5t-19 -10.5t-20 4t-14 21q1 72 1.5 143t6.5 141q-28 -4 -56.5 -3.5t-38.5 12.5zM154 368q50 0 107 6t115 14.5t115 17.5t108 15q-5 39 -15 74
t-25 62q-20 35 -52 62.5t-70.5 42.5t-79.5 14t-78 -23q-32 -19 -54.5 -49t-37.5 -67.5t-23.5 -80.5t-11.5 -88h2z" />
    <glyph glyph-name="B" unicode="B" horiz-adv-x="664" 
d="M74 281q-2 81 -15 161t-24 158q-16 -4 -25.5 2.5t-12 17t2.5 22.5t20 20q49 28 113 42t127.5 13t118 -17.5t85 -48.5t29 -80.5t-50.5 -113.5q57 -11 103 -37.5t72.5 -66t29.5 -90.5t-25 -110q-32 -66 -94 -104t-136 -54.5t-150.5 -15.5t-137.5 13q-13 -11 -28 -9t-23 19
q-42 11 -56 31t-9 35t24.5 17.5t45.5 -20.5q4 31 7.5 57t5.5 51t3 51t0 57zM601 274q-9 49 -40 78t-75.5 43.5t-98 17t-105.5 -2t-98.5 -12.5t-78.5 -15q1 -45 3.5 -85.5t4 -80.5t3 -82t1.5 -89q32 -19 84.5 -25.5t111 -0.5t116.5 25t101 50.5t64 76t7 102.5zM104 430
q18 6 47.5 9.5t63 6t68 5.5t64 8t50 13.5t25.5 22.5q32 42 30 75t-26.5 56.5t-66.5 37.5t-89.5 17t-95.5 -4.5t-85 -27.5q7 -3 9.5 -25.5t3 -54.5t0.5 -68t2 -65v-6z" />
    <glyph glyph-name="C" unicode="C" horiz-adv-x="631" 
d="M602 520q1 -16 -6.5 -27.5t-18.5 -15.5t-22.5 1t-16.5 23q-23 59 -66 89.5t-92 40t-96 2t-79 -24.5q-43 -23 -74.5 -60t-51.5 -82t-28.5 -93.5t-5.5 -94.5q3 -47 19.5 -91t45.5 -78t69.5 -54.5t92.5 -21.5q4 0 29 -1.5t63 7.5t85 33t96 75q6 13 16 20.5t20 7.5t18 -7.5
t10 -23.5q-23 -48 -66.5 -79.5t-93.5 -50.5t-99.5 -26.5t-85.5 -6.5q-81 3 -136.5 45.5t-85 106t-34.5 140t14 149.5t60.5 133.5t105.5 92.5q51 26 107 35t111.5 -4.5t106 -51.5t89.5 -107z" />
    <glyph glyph-name="D" unicode="D" horiz-adv-x="570" 
d="M2 662q1 16 9 25t18.5 11t21 -2t16.5 -13q2 -2 0.5 -4t-1.5 -4q61 0 110 -2.5t95 -14t92.5 -35t101.5 -65.5q31 -23 50.5 -58t28.5 -76t7 -85t-14 -84.5t-34.5 -74.5t-54.5 -55q-19 -13 -37 -27t-40 -22q-35 -12 -79 -25t-89.5 -22.5t-90.5 -15t-83 -2.5q-15 5 -21 14
t-6 24q1 5 1 13q6 15 18.5 22t23.5 5q3 48 0 100t-9 114.5t-14 138t-17 171.5q-3 7 -1 18q-1 8 -1.5 15.5t-0.5 15.5zM88 243q7 -42 11.5 -83.5t7.5 -83.5q40 1 86 7.5t90.5 17.5t82 25.5t60.5 32.5q43 34 66 82t24.5 98.5t-18 99t-61.5 85.5q-40 36 -85 55t-93 27t-98 7.5
t-99 -3.5q1 -30 2.5 -74.5t4.5 -94.5t7.5 -102t11.5 -96z" />
    <glyph glyph-name="E" unicode="E" 
d="M52 -1q-12 3 -18 10t-6.5 15t3.5 17t11 15q3 21 3 63t-1.5 95t-4.5 111.5t-6.5 112.5t-7.5 98t-7 69q-14 4 -20 13.5t-4.5 20t9.5 20t21 13.5l21 -2q8 2 16 -2q89 -8 176.5 -6t180.5 11q5 4 11 5q4 0 7 -0.5t7 -1.5q17 -1 24.5 -10t6 -20t-10 -21t-23.5 -13
q-4 0 -7.5 -0.5t-7.5 -0.5t-8 2q-82 6 -171 5t-171 -8q-1 -32 -1.5 -52.5t-0.5 -38t1 -37.5t2 -51q28 -4 63.5 -5t71 0.5t68 6t54.5 11.5q18 5 28.5 -0.5t13 -16t-3.5 -22t-21 -18.5q-33 0 -67 1.5t-68.5 1.5t-68.5 -2.5t-67 -10.5q5 -78 10 -161t11 -161q42 -3 91 -4
t95.5 0t84.5 4t58 9q17 0 27.5 1t15.5 -0.5t5 -7.5t-3 -21q-5 -15 -28.5 -21.5t-58 -8t-78 0t-88.5 2.5t-89 -0.5t-80 -9.5z" />
    <glyph glyph-name="F" unicode="F" 
d="M72 1q-13 -2 -19.5 28.5t-9 82t-2.5 117t-1.5 133.5t-6 131.5t-15.5 111.5q-14 4 -20 13.5t-4.5 20t9.5 20t21 13.5q24 -3 58.5 -4t73 -1t79 1t78 2.5t69 3.5t51.5 4q4 0 7 -0.5t7 -1.5q17 -1 24.5 -10t6 -20t-10 -21t-23.5 -13q-4 0 -7.5 -0.5t-7.5 -0.5t-8 2
q-82 6 -171 5t-171 -8q-1 -32 -1.5 -52.5t-0.5 -38t1 -37.5t2 -51q28 -4 64 -5t72 1t68.5 6.5t52.5 10.5q18 5 28.5 -1.5t13 -18t-3.5 -24t-21 -19.5q-33 0 -67 1.5t-68.5 1.5t-68.5 -2.5t-67 -10.5q-1 -25 1.5 -62.5t6 -78.5t6 -82t1.5 -74t-7 -53t-19 -20z" />
    <glyph glyph-name="G" unicode="G" horiz-adv-x="671" 
d="M563 342q14 4 23.5 0.5t14 -11t4 -18t-6.5 -19.5q-2 -27 -1 -70t5.5 -88t13 -84.5t22.5 -60.5q6 -12 6 -24t-4.5 -19.5t-13.5 -9t-22 7.5q-22 33 -31 70.5t-12 75.5q-30 -33 -68.5 -55t-79 -34.5t-79.5 -17.5t-70 -4q-81 4 -136.5 46t-85 105.5t-34.5 140t14 149.5
t60.5 133.5t105.5 92.5q51 26 107 35t111.5 -4.5t106 -51.5t89.5 -107q1 -16 -7 -27.5t-19 -15.5t-22 1t-16 23q-23 59 -66 89.5t-92 40t-96.5 2t-78.5 -24.5q-43 -23 -73.5 -60t-49.5 -82t-27 -93.5t-5 -94.5q5 -63 28.5 -113t61.5 -83.5t86.5 -48.5t103 -8t112 36.5
t113.5 85.5q-2 13 -2.5 30.5t-0.5 35t-0.5 34.5t-2.5 30q-24 -5 -49.5 -10.5t-47.5 -9t-38.5 -5.5t-22.5 1q-23 12 -22.5 21.5t16.5 18t42 15t52.5 12.5t50 11t33.5 11z" />
    <glyph glyph-name="H" unicode="H" horiz-adv-x="559" 
d="M523 63q-1 -17 -10.5 -27t-21 -12t-22 5.5t-11.5 25.5q5 86 6 170.5t0 170.5q-2 -2 -3 -2q-6 -5 -13 -6h-8q-1 0 -1.5 0.5t-1.5 0.5q-23 2 -54 4t-63 2.5t-63 0t-55 -3.5q-29 -3 -56.5 -8.5t-55.5 -10.5q-4 -42 -1.5 -84.5t5 -85.5t1.5 -85t-13 -84q-11 -10 -22 -11.5
t-19.5 3t-12.5 14.5t0 23q5 66 16 130.5t11 136.5v18.5t-1 19.5q-10 -2 -19.5 -2.5t-19.5 -1.5q-15 4 -21.5 13.5t-5 20t9.5 20t21 13.5q8 -2 16 -2.5t16 -1.5q-5 51 -10.5 101t-9.5 101q1 16 10.5 26.5t21 12.5t21.5 -5.5t12 -25.5q-6 -107 -6 -212q39 -1 84 2t91.5 7.5
t91.5 10t85 9.5q1 0 1 0.5t1 0.5h5q5 0 7 -1l7 -2v7q0 22 -2.5 48t-3 52t2 51.5t12.5 47.5q10 10 21.5 11.5t20 -3t12.5 -14.5t0 -23q0 -6 -2 -20.5t-4.5 -31t-5 -31t-3.5 -20.5q-5 -42 -8.5 -82.5t-3.5 -81.5q0 -75 9 -149.5t15 -149.5z" />
    <glyph glyph-name="I" unicode="I" horiz-adv-x="440" 
d="M29 15q-15 4 -21.5 13.5t-5 20t9.5 20t21 13.5q34 -3 56 -5.5t39 -4t32.5 -2.5t35.5 -1q-1 7 2 17q0 6 2 20.5t4.5 31t5 31t3.5 20.5q7 61 8.5 114t-1 105t-7.5 106t-11 118q-37 -5 -76 -10.5t-81 -11.5q-15 4 -21.5 13.5t-5 20t9.5 20t21 13.5q25 -9 57 -9.5t68 5
t74.5 14t76.5 16.5q6 4 10 5h3q16 -1 23.5 -9t8 -18.5t-6 -21t-18.5 -16.5h-11v-2h-3q-2 0 -3 0.5t-2 0.5q-30 0 -61 -3q-6 -72 -5.5 -143t1.5 -142t1.5 -142t-5.5 -142q5 0 27.5 3t47.5 6t45.5 5.5l20.5 2.5q10 3 15.5 -6t5 -22t-8 -25t-23.5 -13h-3h-2q-90 11 -176 7
t-177 -13z" />
    <glyph glyph-name="J" unicode="J" 
d="M413 681q12 14 23 17t18.5 -3t11.5 -19t3 -30q0 1 0.5 1t0.5 -1q-6 -42 -1 -97.5t12 -116t10.5 -122.5t-6 -116t-37 -97t-82.5 -66q-46 -18 -92.5 -27.5t-90.5 -4t-83.5 28.5t-69.5 68q-14 21 -21.5 40.5t-5.5 44.5q4 9 9 14.5t20 14.5q20 -10 30 -28.5t19.5 -39.5
t23.5 -42t42 -36q50 -27 103.5 -26.5t98 22.5t74 63.5t31.5 95.5q0 34 -4 78.5t-10 90.5t-12 90t-10 77q-2 15 -5 31.5t-5 32.5t-1.5 32t6.5 30z" />
    <glyph glyph-name="K" unicode="K" horiz-adv-x="475" 
d="M8 668q1 16 10.5 26.5t21 12.5t21.5 -5.5t12 -25.5l-13 -315q54 30 97 57.5t83 57t79.5 65t87.5 82.5l3 3q13 8 24 7.5t17.5 -7.5t7.5 -18t-6 -24l-31 -29q5 4 3 2.5t-25 -18.5t-73 -54t-141 -105q13 -23 29 -55.5t36 -68t45 -70t57 -60.5q5 -4 12 -11.5t7 -1.5
q12 -12 12 -25.5t-7.5 -23.5t-20.5 -13t-27 7q-47 73 -92 145.5t-93 150.5l-4 -3q-26 -23 -41 -35.5t-23.5 -19.5t-11.5 -9t-5 -3q1 -19 2.5 -53t3 -70.5t3 -67.5t2.5 -44l3 -11q0 -5 -1 -8v-3h-1q-3 -13 -12 -20.5t-18.5 -9t-19 4t-13.5 20.5q0 25 1.5 63t3 78.5t3.5 78.5
t2 63q-1 4 -1 13q0 1 1 2v2q-1 54 -2 94.5t-2.5 78.5t-3 78.5t-2.5 94.5z" />
    <glyph glyph-name="L" unicode="L" horiz-adv-x="428" 
d="M22 7q-9 -1 -9.5 35t2.5 93.5t8 129.5t7 144t-1 136.5t-15 106.5q1 16 10.5 26.5t21 12.5t21.5 -5.5t12 -25.5q-9 -146 -12.5 -299t-9.5 -297q46 -2 86 -1.5t78.5 4.5t77.5 12.5t83 22.5l4 2v-1q4 1 8.5 0t9.5 -3q1 0 1 -1q17 -16 12 -34t-25 -27q-23 -3 -32.5 -4t-3.5 1
q1 0 1.5 0.5t2.5 0.5q-62 -4 -104.5 -7.5t-78.5 -7t-71.5 -7t-83.5 -7.5z" />
    <glyph glyph-name="N.001" unicode="M" horiz-adv-x="736" 
d="M391 466q-7 -14 -10.5 -43t-4.5 -66.5t0 -80t3 -82t4.5 -73t4.5 -53.5q9 -15 7.5 -26t-9 -16.5t-20.5 -4t-27 12.5q-5 5 -5 10t-2 11q0 7 1 8q7 157 -6 266.5t-38 177t-57.5 94.5t-64.5 17.5t-59.5 -53.5t-42.5 -118t-13 -176t29 -228q-3 -14 -12 -22.5t-19.5 -10.5
t-20 4t-13.5 21q4 8 0 39.5t-6 88.5t3 140t26 194q14 70 39 111.5t55.5 57t62.5 8t61 -34.5t51.5 -71t32.5 -101q15 30 38 62t50.5 57t58.5 38.5t62 5.5q44 -11 74 -50.5t49 -95t28.5 -122t11 -131.5t-2.5 -122.5t-12 -95.5q-11 -19 -28 -22.5t-31 15.5l-2 4q-5 16 2 27
q8 31 14 74t8 91.5t0 99.5t-11 98t-25 86.5t-41 65.5q-29 29 -58 29t-55 -17t-47 -44.5t-33 -53.5z" />
    <glyph glyph-name="N" unicode="N" horiz-adv-x="558" 
d="M100 37q0 -8 -6 -15t-14.5 -9t-16.5 1.5t-12 16.5q-1 1 -1 3v1q1 40 -5 105.5t-15 140t-18 150.5t-13 135.5t-0.5 95t19.5 30.5q14 7 22 -8t12 -43t5 -64.5t1.5 -73.5t1 -69t3.5 -51q3 24 7 53t10.5 58.5t16.5 56t24 46.5q24 33 58.5 55.5t73.5 32.5t79 6.5t74 -22.5
q32 -13 57 -60.5t42 -113t26 -141.5t10.5 -145.5t-5.5 -125t-22 -80.5q-13 -22 -25.5 -20t-17.5 28l-3 7q10 27 16.5 73t8.5 101t-1.5 115.5t-13 117t-25.5 105t-40 80.5q-27 32 -64.5 40.5t-76 -1.5t-73.5 -35t-57 -59q-22 -35 -35 -79.5t-18.5 -105.5t-2.5 -142.5
t14 -190.5z" />
    <glyph glyph-name="O" unicode="O" horiz-adv-x="567" 
d="M514 108q-21 -36 -55 -60.5t-75.5 -37.5t-86.5 -14.5t-87.5 8t-80 30.5t-62.5 53q-38 48 -54.5 109t-14 126t22.5 128t55.5 115.5t85 89t110.5 47.5q46 8 84.5 -7t70 -46t55.5 -75.5t40 -95t24 -103.5t7 -103t-10.5 -92.5t-28.5 -71.5zM128 101q31 -28 80 -39.5
t100.5 -7.5t97.5 23t72 51q24 32 32 85.5t1.5 114t-26.5 121.5t-52 107.5t-74.5 71.5t-94.5 15q-58 -11 -102.5 -45t-73.5 -81.5t-42 -104.5t-8.5 -113.5t26.5 -108.5t64 -89z" />
    <glyph glyph-name="P" unicode="P" horiz-adv-x="682" 
d="M103 380q-3 31 -6.5 57t-8.5 50.5t-11.5 50t-13.5 55.5q-23 -26 -43 -25.5t-26.5 15t5.5 35.5t52 37q5 18 20 22t29 -6q40 12 87.5 21t98 11.5t101.5 -2.5t96.5 -20.5t84.5 -43t65 -68.5q33 -53 37.5 -102.5t-16 -92t-65 -76t-109.5 -53t-148.5 -23t-182.5 12.5l1 -6
q3 -53 6.5 -98.5t0.5 -78t-14 -47t-36 -5.5q-2 1 -2.5 24t-0.5 59t0.5 80t0.5 86t-0.5 77t-1.5 54zM619 446q3 58 -25 99.5t-73.5 68t-103 39t-114 12t-105.5 -12.5t-79 -34q5 -47 8.5 -88.5t6.5 -81.5t5.5 -80.5t5.5 -85.5q32 -3 79 -6t98.5 -1t103 10.5t93.5 27.5
t69.5 51.5t30.5 81.5z" />
    <glyph glyph-name="Q" unicode="Q" horiz-adv-x="573" 
d="M272 702q49 9 91 -9.5t75.5 -56t58.5 -89.5t39.5 -110t18 -117.5t-5.5 -112.5t-31 -95t-58 -64q3 -15 14.5 -27t22 -23.5t15.5 -24t-5 -30.5q0 -1 -2 -3q-23 -23 -47 -5q-14 20 -23.5 42.5t-17.5 45.5q-43 -20 -92.5 -25.5t-97.5 3t-90 30t-70 56.5q-38 48 -54.5 109
t-14 126t22.5 128t55.5 115.5t85 89t110.5 47.5zM250 261q-9 13 -7 27t11 22t22 9t25 -11q36 -54 68 -108.5t65 -109.5q44 24 63.5 77t18.5 118t-20 133t-52.5 121.5t-79.5 83.5t-100 20q-58 -11 -102.5 -45t-73.5 -81.5t-42 -104.5t-8.5 -113.5t26.5 -108.5t64 -89
q22 -20 54.5 -31.5t69 -14.5t74 1.5t70.5 16.5q-1 2 -2 3.5t-2 3.5q-29 54 -63 96.5t-79 84.5z" />
    <glyph glyph-name="R" unicode="R" horiz-adv-x="576" 
d="M14 613q0 13 7 22.5t16.5 13.5t19 2.5t15.5 -10.5q50 36 114 45t128 -3.5t120 -43.5t89 -74.5t36 -96t-40 -108.5q-35 -45 -76 -75.5t-87.5 -50.5t-98.5 -32t-108 -19q42 -30 81.5 -57.5t87.5 -53.5q12 -12 11.5 -25.5t-8 -23.5t-20 -13t-26.5 7q-20 21 -44.5 43.5
t-49 42.5t-47 35.5t-37.5 22.5q2 -14 3.5 -30.5l3 -33t1.5 -31t-1 -24.5q-6 -30 -37 -34h-3q-12 2 -18 8.5t-9 18.5q0 2 -1 3q0 12 7 22v14t1 15q2 38 3 76l2 76q1 42 -1 81t-6 77t-9.5 76.5l-11.5 80.5q-11 6 -13.5 20t7.5 27q-1 2 -1 10zM77 562q2 -82 3.5 -166.5
t9.5 -168.5q27 -2 70 3t91 17.5t96 32t85.5 47.5t59 63.5t16.5 79.5q-6 55 -42.5 93.5t-87 59.5t-107.5 23.5t-103 -14.5q-25 -10 -46.5 -25.5t-42.5 -31.5q0 -3 -0.5 -6t-0.5 -5q0 -1 -1 -2zM41 39q0 2 0.5 4t0.5 4l-1 -1v-7z" />
    <glyph glyph-name="S" unicode="S" horiz-adv-x="529" 
d="M499 626q1 -14 -5 -25t-15 -16.5t-20.5 -3.5t-20.5 16q-5 29 -28 39t-52 9t-58 -8.5t-45 -13.5q-35 -11 -71.5 -29.5t-66.5 -44t-50.5 -58.5t-24.5 -74q-5 -45 11 -72.5t45.5 -44t68 -24t78.5 -13.5t77 -12.5t64 -20.5q54 -29 79 -57.5t27.5 -54.5t-14 -48.5t-45 -39.5
t-65 -28t-74 -14t-73 3t-61.5 23q-9 6 -11 20t-4 23q1 14 8.5 24t17.5 14t20.5 -0.5t17.5 -18.5l3 -14q47 -24 91 -25.5t76 10.5t48.5 34t8.5 45.5t-44.5 44.5t-109.5 31q-35 11 -74.5 18.5t-76 19.5t-67 32.5t-48.5 57.5q-15 32 -15 66.5t10.5 67t30 62t43.5 52.5
q21 21 56 44.5t76 43t84.5 31t82.5 10t69.5 -20t45.5 -60.5z" />
    <glyph glyph-name="T" unicode="T" horiz-adv-x="465" 
d="M144 16q-1 7 2 17q0 6 2 20.5t4.5 31t5 31t3.5 20.5q13 122 8.5 241.5t-17.5 247.5q-18 -2 -32 -3.5t-27 -3t-27.5 -3.5t-35.5 -5q-15 4 -21.5 13.5t-5 20t9.5 20t21 13.5q25 -9 72 -9.5t101 4.5t107.5 13.5t91.5 16.5q6 4 10 5h3q16 -1 23.5 -9t8 -18.5t-6 -21
t-18.5 -16.5h-11v-2h-3q-2 0 -3 0.5t-2 0.5q-7 0 -35 -1t-60.5 -2.5t-60.5 -3t-36 -2.5q-6 -72 -6 -150t1 -157.5t1 -158t-6 -149.5q-8 -1 -12.5 -8.5t-10 -12t-14 -1.5t-24.5 21z" />
    <glyph glyph-name="U" unicode="U" horiz-adv-x="514" 
d="M8 659q1 16 9.5 25.5t19 10.5t19.5 -7t11 -26q-1 -24 -4.5 -64t-7 -88t-6.5 -99.5t-3.5 -99t3 -87.5t12.5 -63q24 -64 63.5 -97.5t84.5 -40.5t90.5 11.5t81 58.5t56.5 99.5t18 135.5q0 2 -2 27t-5 61.5t-7 78.5t-7 78l-5 60l-2 24q-8 25 4.5 38t33.5 -6q6 -6 10.5 -33.5
t8 -67.5t6 -86t4 -87.5t2 -73t0.5 -42.5q-1 -65 -18 -122.5t-51 -101t-84 -67.5t-117 -21q-62 3 -103.5 26.5t-67 62.5t-36.5 90t-13 109q-1 15 -1 45v68t0.5 79.5t1 79.5t1 67.5t0.5 44.5z" />
    <glyph glyph-name="V" unicode="V" horiz-adv-x="594" 
d="M359 29q-9 -17 -22 -21q-11 -5 -23.5 0t-17.5 24q-24 53 -49.5 111t-51.5 116t-52 114t-50.5 105.5t-47.5 89t-43 64.5q-9 13 -7 27t11 22t22 9t25 -11q31 -69 61 -138.5t62 -142t69.5 -149.5t83.5 -160q25 54 49.5 116t49 135t49.5 159t52 188q11 14 24 16.5t22 -4
t12 -19t-6 -28.5q-16 -41 -35 -92.5t-39 -108.5t-40 -116t-39.5 -115t-37 -105t-31.5 -86z" />
    <glyph glyph-name="W" unicode="W" horiz-adv-x="675" 
d="M72 688q10 6 11 -20t-3.5 -73t-11 -108.5t-10 -125t-2 -123.5t13 -104t36 -66t66.5 -10q25 7 45.5 31t36 57.5t27.5 71t19.5 71.5t12 60t5.5 36q15 21 21 22.5t14 -26.5q2 -16 3.5 -46t5 -66.5t10 -74.5t19.5 -70.5t33.5 -55.5t50.5 -29q48 4 78 29.5t46 65t20 89.5
t1 103.5t-11.5 106.5t-18 98.5t-18 79t-11.5 48.5q1 16 9 26.5t17.5 12.5t18 -5.5t10.5 -25.5l9 -45t14.5 -85.5t13 -111.5t5 -123t-9 -120t-30 -102t-58 -69.5t-92.5 -22.5q-44 3 -69 35t-39 77t-20 95.5t-10 91.5q-6 -74 -22 -133t-42 -96.5t-63.5 -50.5t-86.5 4
q-32 11 -53.5 48t-34.5 90t-18 116t-4 126t7 121t15 100.5t20.5 64t23.5 11.5z" />
    <glyph glyph-name="X" unicode="X" horiz-adv-x="529" 
d="M452 679q9 12 20.5 15.5t21 -0.5t14.5 -14.5t2 -25.5q-10 -17 -26.5 -42.5t-36.5 -55.5t-42.5 -61.5t-44 -60.5t-41 -53t-33.5 -38q35 -41 68.5 -85t61 -84.5t47.5 -76t28 -59.5q2 -13 -2 -21.5t-13 -17.5l-5 -4q-11 10 -27.5 34.5t-36.5 57t-41.5 68t-41.5 68
t-36.5 57.5t-27.5 36q-13 -17 -35.5 -54.5t-49.5 -81.5t-57.5 -87.5t-59.5 -72.5q-13 -13 -25.5 -13t-20 8t-8.5 21.5t10 27.5q34 33 58.5 64.5t48.5 65t50.5 70.5t64.5 80q-20 23 -50.5 61.5t-63.5 79t-65 76t-55 52.5q-8 12 -7.5 24t7 21t18 12.5t25.5 -2.5
q22 -21 51 -60.5t59 -83.5t58 -85t48 -65q21 27 50 70t57.5 88.5t51.5 86t32 60.5z" />
    <glyph glyph-name="Y" unicode="Y" 
d="M57 671q6 13 16 20.5t20 7.5t18 -7.5t10 -23.5q-2 -19 -10.5 -54t-18 -79.5t-19 -95.5t-14.5 -100.5t-3.5 -94.5t14.5 -78q23 -45 62.5 -58t84 -5.5t89.5 30.5t78 50q14 12 22.5 21.5t14.5 20.5q0 25 -0.5 63.5t-1 81.5t-1 87t-0.5 82t1 66t3 38q5 11 14.5 15t18.5 -6
q9 -28 14 -78.5t6.5 -112t1 -129t-2.5 -129.5t-5 -113.5t-5 -80.5q-4 -47 -23.5 -81t-49 -56.5t-67 -34.5t-77 -15t-79 2t-73.5 16q-8 12 -7.5 24t7 21t18 12.5t25.5 -2.5q5 -3 25 -8t48 -6.5t60 2.5t61.5 18t52.5 40.5t32 70.5q3 13 4 34.5t1.5 45t0 45.5t-0.5 36
q-29 -31 -67 -56t-78.5 -41t-80.5 -22.5t-74.5 0t-60.5 27t-38 57.5q-11 34 -13 80t1 97t9.5 103.5t14 100.5t14 87.5t8.5 64.5z" />
    <glyph glyph-name="Z" unicode="Z" 
d="M29 622q-15 4 -21.5 13.5t-5 20t9.5 20t21 13.5q62 -5 112.5 -10.5t98.5 -9t98.5 -4.5t112.5 4q26 -2 31 -18.5t-6 -31.5q-23 -27 -59.5 -77t-78 -110t-84 -123.5t-77 -117t-57.5 -90t-25 -42.5q19 2 48 5.5t63 7t69.5 8t66.5 7t55.5 4t35.5 0.5q18 -1 26 -10.5
t6.5 -21.5t-11 -22.5t-25.5 -12.5q-18 4 -62.5 3.5t-100 -2t-115 -2t-107.5 2.5q-16 3 -15 15.5t12 20.5q4 3 19 24.5t37 55.5t49.5 77.5t57.5 90.5t61 94.5t59 89.5t52 75t41 52l-19 1t-50 2t-71 2t-83.5 1t-87 -1t-81.5 -4z" />
    <glyph glyph-name="bracketleft" unicode="[" horiz-adv-x="143" 
d="M234 -107q-7 1 -25 -0.5t-41 -3.5t-48.5 -4.5t-46.5 -3t-35.5 2t-15.5 9.5q5 69 4.5 165t-3.5 199.5t-7 205.5t-7 183t-3 132t6 53q21 9 39.5 10.5t37.5 0.5t40.5 -0.5t48.5 6.5q18 -1 26 -10.5t6.5 -21.5t-11 -22.5t-25.5 -12.5q-32 8 -60.5 6.5t-57.5 -8.5
q-3 -96 -2 -205.5t4.5 -221.5t8.5 -221.5t10 -204.5q10 -4 34.5 -0.5t48.5 9.5t40 11.5t11 5.5q-2 0 1 1.5l5 2.5q18 5 28.5 -1.5t13 -18t-3.5 -24t-21 -19.5z" />
    <glyph glyph-name="backslash" unicode="\" horiz-adv-x="331" 
d="M69 692q30 -95 58.5 -179t59 -165.5t64.5 -164.5t75 -174q1 -16 -6 -25t-17 -11t-21.5 3t-19.5 17q-31 96 -60 180t-59 165t-63.5 163.5t-73.5 174.5q-5 18 1.5 28t18 12.5t24 -3.5t19.5 -21z" />
    <glyph glyph-name="bracketright" unicode="]" horiz-adv-x="143" 
d="M-94 -107q-15 7 -21 19.5t-3.5 24t13 18t28.5 1.5l5 -2.5t1 -1.5q-5 0 11 -5.5t40 -11.5t48 -9.5t35 0.5q5 95 10 204.5t8.5 221.5t4.5 221.5t-2 205.5q-29 7 -57.5 8.5t-60.5 -6.5q-16 2 -25.5 12.5t-11 22.5t6.5 21.5t26 10.5q27 -6 48.5 -6.5t40.5 0.5t37.5 -0.5
t39.5 -10.5q5 -2 5.5 -53t-2.5 -132t-7 -183t-7 -205.5t-3.5 -199.5t4.5 -165q-1 -7 -15.5 -9.5t-35.5 -2t-46.5 3t-48.5 4.5t-41 3.5t-25 0.5z" />
    <glyph glyph-name="asciicircum" unicode="^" horiz-adv-x="364" 
d="M48 731q-16 -2 -25 4.5t-11.5 17t2.5 22t17 19.5q62 80 103 108.5t73.5 19t64 -50t75.5 -97.5l-2 -3q-8 -13 -18 -19t-26 -2q-16 13 -27.5 32t-23.5 38.5t-25.5 37t-33.5 27.5q-20 -16 -37 -36.5t-33.5 -41.5t-34 -41t-38.5 -35z" />
    <glyph glyph-name="underscore" unicode="_" horiz-adv-x="370" 
d="M35 -6q-15 4 -21.5 13.5t-5 20t9.5 20t21 13.5q34 -8 71 -14t73 -8t69 1t59 13q7 6 17 6l1 1v-1q11 2 22 -8l-2 2q2 -1 6 -5l-4 3q13 -16 7.5 -32.5t-24.5 -24.5q-26 1 -66.5 3t-83 3t-83 -0.5t-66.5 -5.5z" />
    <glyph glyph-name="grave" unicode="`" horiz-adv-x="255" 
d="M17 859q-14 10 -16 23t4 23.5t18.5 15.5t27.5 -1q38 -34 82.5 -62.5t92.5 -58.5q16 -7 20 -19.5t-1 -24t-17 -18.5t-27 -3q-21 18 -42 37.5t-43 36.5t-46.5 30.5t-52.5 20.5z" />
    <glyph glyph-name="a" unicode="a" 
d="M96 450q34 26 75 37t80.5 5.5t73 -28t51.5 -64.5l-12 98q1 9 6 16t11.5 10t13.5 0.5t12 -11.5h1v-3q13 -60 19.5 -121t10.5 -122t7.5 -122.5t10.5 -122.5l3 -12q0 -3 -0.5 -6t-0.5 -6v-5h-1q-4 -11 -12 -19t-16.5 -9.5t-16 4t-10.5 21.5l-6 150l-3 -5q-18 -24 -48 -42.5
t-66.5 -29.5t-75.5 -12.5t-74.5 6.5t-64.5 27.5t-44 52.5q-20 41 -27 82t1.5 81t33 77.5t68.5 72.5zM392 199q-4 63 -6 87.5t-8 30.5q0 22 -21 47.5t-52 45t-68 27.5t-68 -4q-35 -11 -63.5 -42t-45 -70.5t-18.5 -82.5t17 -79q8 -14 19.5 -25t23.5 -21q29 -24 73.5 -27
t89 10.5t80 40.5t47.5 62z" />
    <glyph glyph-name="b" unicode="b" horiz-adv-x="543" 
d="M1 665q1 16 10.5 26.5t21 12.5t21.5 -5.5t12 -25.5q-4 -81 -0.5 -159.5t11.5 -157.5q8 38 34 69.5t64 48.5q37 17 78 18.5t80 -11t74 -37t61.5 -59.5t41.5 -79t14 -94q-2 -51 -11 -88t-28 -62.5t-49 -42t-74 -26.5q-26 -6 -57.5 -7.5t-64 2.5t-63.5 14.5t-55 28.5
q0 -1 0.5 -6t2.5 -11l4 -16q-6 -11 -15 -17t-18.5 -6t-17.5 6.5t-12 20.5v1q0 7 2 13q-1 2 -1 9q-7 29 -9.5 58t-3 58.5l-1 59t-3.5 59.5q-11 103 -26 202.5t-23 202.5zM148 400q-12 -17 -20 -44t-11.5 -59.5t-2.5 -67t7 -66.5t17 -59t28 -44q9 -9 23.5 -15t30 -9t31 -4
t26.5 -1q38 1 76 13t67.5 34.5t47.5 55.5t16 77q-4 91 -51.5 152t-137.5 75q-20 3 -40 4.5t-39.5 -2t-37 -13t-30.5 -27.5z" />
    <glyph glyph-name="c" unicode="c" horiz-adv-x="446" 
d="M381 464q12 -12 11.5 -25.5t-8 -23.5t-20 -13t-26.5 7q-23 20 -45 32.5t-53 15.5q-69 6 -117 -21.5t-70.5 -73t-18.5 -102.5t39 -109q29 -45 71.5 -66.5t87 -20t85.5 26.5t68 74q15 10 27.5 7.5t18.5 -11.5t4.5 -22.5t-13.5 -25.5q-10 -19 -26 -34t-35.5 -27t-41 -20.5
t-42.5 -13.5q-63 -15 -112 0t-83.5 49.5t-54.5 83.5t-23 101t10 102.5t43.5 88.5t79 58.5t116.5 12.5q38 -5 67 -16t61 -34z" />
    <glyph glyph-name="d" unicode="d" horiz-adv-x="515" 
d="M474 119l2 -78t3 -77q-3 -14 -11 -22.5t-18 -10.5t-19 4t-13 21q2 28 4 55.5t4 54.5q-38 -47 -84.5 -62t-93.5 -6.5t-91 36.5t-78.5 68t-55.5 88t-22 96q0 64 30.5 113t78 80t105 41.5t111.5 -1.5q20 -4 33 -9t24 -11.5t22 -15.5t26 -22l10 -10t9 -11l2 54v2q-1 50 -2 99
t-3 98q1 16 10 26.5t20 12.5t20 -5.5t11 -25.5q-6 -85 -14.5 -169t-14.5 -169zM344 66q26 15 45 44t30 66t13.5 77.5t-4.5 78.5t-24.5 70t-46.5 51t-64.5 25t-71.5 0.5t-69 -21.5t-58 -40.5t-38.5 -56.5t-9.5 -70q3 -36 17 -72.5t35.5 -68t50.5 -56t64 -36.5q30 -10 66.5 -9
t64.5 18z" />
    <glyph glyph-name="e" unicode="e" horiz-adv-x="470" 
d="M401 296q-84 -36 -172 -48t-178 -19q6 -32 18 -61.5t29 -52.5t40 -38t51 -18q24 -2 50.5 5t52 18t49.5 23t43.5 20.5t33.5 10.5t20 -7q8 -16 0.5 -28t-22.5 -21t-34.5 -16t-35.5 -13q-42 -17 -77 -29.5t-67.5 -13.5t-64.5 12.5t-68 48.5q-27 26 -41 68.5t-17.5 89.5
t1.5 93t16 79q18 54 52.5 84t76 39t85 -0.5t81 -35t63 -64t30.5 -87.5q7 -13 2.5 -23t-17.5 -16zM359 331q-10 57 -38.5 92.5t-64.5 50t-75 9.5t-70.5 -28t-50.5 -64t-15 -97l1 1q40 4 79.5 6t78.5 5t78 8.5t77 16.5z" />
    <glyph glyph-name="f" unicode="f" horiz-adv-x="366" 
d="M30 351q-14 1 -21 7.5t-7.5 15t5.5 16.5t19 12q8 -2 21 2t21 3q-2 62 12.5 121.5t47 101t84.5 57.5t126 -8q11 -12 11.5 -25.5t-6.5 -23.5t-19.5 -13.5t-26.5 5.5q-29 9 -59 13.5t-59 -15.5q-22 -15 -36 -39t-22.5 -53.5t-12.5 -61.5t-4 -62q18 -2 39 1t44 6.5t47 6
t48 1.5q15 -6 19.5 -16.5t2 -20.5t-12 -16t-23.5 -3q-8 1 -24.5 3t-38 2.5t-47 -2.5t-50.5 -10q3 -58 8.5 -102t13 -80t15.5 -68t16 -66q1 -7 -3 -13t-11.5 -9.5t-17 -3t-19.5 6.5q-5 18 -9.5 46.5t-9 62t-8.5 68.5t-7 66t-5.5 54.5t-3.5 33.5z" />
    <glyph glyph-name="g" unicode="g" horiz-adv-x="446" 
d="M351 462q20 -22 14 -39.5t-35 -11.5q-15 9 -27.5 18t-25 14.5t-27 7.5t-32.5 -2q-35 -9 -65 -32.5t-52.5 -55.5t-36.5 -69.5t-17.5 -73t4.5 -66.5t30 -51q33 -28 72 -32t76.5 8.5t69 37t50.5 54.5q4 7 8.5 14.5t8.5 15.5q-2 15 -4.5 35t-3 39t2.5 35t12 24q17 14 29 -2
q19 -26 18.5 -54t-10.5 -56l2 -32q6 -51 7.5 -100.5t-14.5 -100.5q-10 -33 -43.5 -56t-76 -36t-86 -16t-73.5 3q-11 8 -14 11t-3 16l2 6q7 16 19 21.5t26.5 5.5t29.5 -2.5t27 -1.5q43 4 77.5 17t56.5 37t29 61t-4 89q-39 -52 -85 -77.5t-90.5 -31t-82.5 5t-62 30.5
q-40 33 -50.5 87t2.5 112.5t45.5 112.5t79 87t103.5 35.5t119 -41.5z" />
    <glyph glyph-name="h" unicode="h" horiz-adv-x="553" 
d="M150 11q-3 -12 -9.5 -20t-15 -11.5t-17.5 -1.5t-16 10q-8 6 -13 21q2 49 -3 96.5t-9 95.5q-2 32 -3.5 64t-6.5 64q-11 81 -29 159t-26 159q1 16 10.5 26.5t21 12.5t21.5 -5.5t12 -25.5q-2 -102 9.5 -201t25.5 -199q-3 53 15 96.5t49 73t71.5 45.5t83.5 14.5t83.5 -21.5
t72.5 -60q33 -42 50.5 -94t19 -105.5t-12 -105t-41.5 -94.5q-9 -4 -20 -7.5t-20 6.5q4 42 17 89.5t19.5 96.5t-1.5 96.5t-45 89.5q-50 57 -99 69.5t-89.5 -8.5t-68.5 -71t-36 -117q-7 -59 -4.5 -118t4.5 -119z" />
    <glyph glyph-name="i" unicode="i" horiz-adv-x="159" 
d="M29 411q1 16 10.5 26.5t21 12.5t21.5 -5.5t12 -25.5q-2 -30 -4.5 -53.5t-4.5 -46t-2.5 -46t0.5 -53.5q1 -24 4.5 -50.5t6.5 -52.5t4 -52.5t-4 -50.5q-3 -14 -11.5 -22.5t-19 -10.5t-20 4t-13.5 21q0 4 -1 5q0 8 4 18l6 35q1 5 0.5 13t2.5 5q3 46 3.5 86t-1.5 78t-6 78
t-9 87zM58 579q18 -1 26 -11t6 -23q1 -3 0.5 -7t-0.5 -7q-2 -20 -16.5 -23t-28.5 5l-5 2q2 -2 5 -2.5t4 -3.5l-5 -2q-17 11 -17 30q-2 11 3 21t13.5 12.5t14.5 8.5z" />
    <glyph glyph-name="j" unicode="j" horiz-adv-x="246" 
d="M69 426q1 16 10.5 26.5t21 12.5t21.5 -5.5t12 -25.5q4 -66 9.5 -119.5t6.5 -105t-7 -107.5t-31 -128q-6 -19 -26 -39.5t-48 -39.5t-61 -33.5t-64 -21t-57.5 -3t-42.5 21.5q-8 11 -8.5 19.5t4.5 20.5q4 7 22.5 9.5t44 3.5t56 3.5t59 10t51.5 22.5t35 42q16 40 21 84.5
t3.5 90.5t-8 92t-13.5 89q-4 20 -6 40t-5 40zM57 538q1 16 10.5 26.5t21 12.5t21.5 -5.5t12 -25.5q-1 -1 -2 -1q1 -9 -5 -23q-1 1 -5 1q-5 -5 -10 -7.5t-13 -0.5l-9 -8q-17 11 -17 29z" />
    <glyph glyph-name="k" unicode="k" horiz-adv-x="457" 
d="M8 668q1 16 9 26.5t18 12.5t18.5 -5.5t10.5 -25.5l-11 -401l29 15l85 47q66 38 117 86t102 100q2 4 4 6l10 8l3 3q13 8 24 7.5t17.5 -7.5t7.5 -18t-6 -24l-5 -6l-6 -7q-11 -9 -19 -12l-232 -173l-23 -18q14 -46 48 -83.5t69 -67.5l38 -30q5 -4 12 -11.5t7 -1.5
q12 -12 12 -25.5t-7.5 -23.5t-20.5 -13t-27 7q-23 32 -45.5 64t-49.5 60q-22 21 -46 41t-42 45l-4 -3l-37 -29q-7 -9 -16 -13q2 -38 4.5 -80.5t4.5 -68.5l3 -11q0 -5 -1 -8v-3h-1q-3 -13 -10.5 -20.5t-15.5 -9t-16 4t-12 20.5q0 50 5.5 98.5t6.5 98.5q-1 4 -1 13q0 1 1 2v2
q-2 109 -5.5 216t-6.5 216z" />
    <glyph glyph-name="l" unicode="l" horiz-adv-x="144" 
d="M31 652q1 16 10.5 26.5t21 12.5t21.5 -5.5t12 -25.5q-5 -102 -6 -202t1 -202q0 -23 2.5 -48.5t3 -52t-2 -51.5t-12.5 -47q-11 -10 -22 -11.5t-19.5 3t-12.5 14.5t0 23q0 6 2 20.5t4.5 31t5 31t3.5 20.5q5 42 8.5 82.5t3.5 81.5q0 75 -9 149.5t-15 149.5z" />
    <glyph glyph-name="m" unicode="m" horiz-adv-x="765" 
d="M425 290q-10 -21 -14 -48.5t-4.5 -57.5t1.5 -61.5t5 -62.5q9 -15 8 -26t-9 -16.5t-21 -4t-27 12.5q-5 5 -5 10t-2 11q0 6 1 8q5 104 -8 179.5t-36.5 122.5t-54 67.5t-61 16t-57 -33.5t-41.5 -80.5t-15.5 -125t21.5 -166.5q-3 -14 -12 -22.5t-19 -10.5t-20 4t-14 21
q1 14 1.5 28.5t0.5 29.5q-2 4 -2 6q0 8 -1 15.5t-2.5 22t-4.5 38t-6.5 64t-8.5 100.5t-11 146q1 16 10.5 26.5t21 12.5t21.5 -5.5t12 -25.5q-2 -42 -1.5 -82.5t2.5 -81.5q14 70 39 111.5t55.5 57t62.5 8t61 -34.5t51.5 -71t32.5 -101q15 30 38 62t50.5 57t58.5 38.5t62 5.5
q43 -11 72.5 -38t47.5 -64t26.5 -81.5t9.5 -91t-4 -91.5t-13 -83q-11 -19 -28 -22.5t-31 15.5l-2 4q-5 15 2 27q12 46 20.5 91.5t6 89.5t-19 85.5t-53.5 80.5q-29 29 -58 29t-55 -17t-47 -45t-33 -53z" />
    <glyph glyph-name="n" unicode="n" horiz-adv-x="534" 
d="M129 28q-6 -20 -23.5 -27.5t-30.5 3.5q-18 2 -24 27q-1 1 -1 3v1q2 39 -3.5 91.5t-13.5 107.5t-15.5 108t-10.5 93t1.5 62t20.5 16q13 7 21 -7.5t12.5 -43t5.5 -65t1.5 -73.5t1 -69t3.5 -51q5 48 17.5 93t40.5 83q24 33 54 55.5t63 32.5t68.5 6.5t69.5 -22.5
q27 -9 50.5 -38.5t41.5 -71t29.5 -90.5t14.5 -95.5t-2 -87.5t-20 -66q-6 -11 -15.5 -16t-18.5 -4t-16 8t-10 20l-3 7q14 41 21.5 89.5t5 97.5t-16.5 95.5t-42 83.5q-27 32 -59.5 45t-65 8.5t-63 -25t-52.5 -54.5q-22 -35 -30.5 -76t-10 -84.5t1 -87t2.5 -82.5z" />
    <glyph glyph-name="o" unicode="o" horiz-adv-x="542" 
d="M46 389q31 54 84.5 82t113 30t116.5 -21t95 -70q38 -48 53.5 -98t11.5 -97t-26 -88.5t-59.5 -72t-89 -47t-113.5 -13.5q-51 3 -92 22.5t-70.5 50.5t-46.5 70.5t-20.5 82.5t7 86.5t36.5 82.5zM384 404q-31 28 -71.5 36.5t-81.5 1t-79 -29t-63 -53.5q-37 -48 -41.5 -104
t17 -104.5t66.5 -82.5t107 -38q59 -4 104.5 11.5t75.5 44.5t44 68t10.5 82t-25.5 86.5t-63 81.5z" />
    <glyph glyph-name="p" unicode="p" horiz-adv-x="535" 
d="M25 373q-2 19 -4 30.5t-4.5 20.5t-4.5 20t-5 30q2 14 10 23.5t18.5 12t20.5 -2.5t16 -20q0 -14 0.5 -19.5t0.5 -9.5v-9.5v-18.5q35 49 79 68t91 14.5t93 -28.5t83 -61t62 -83t30 -94q5 -64 -20.5 -115.5t-69.5 -86t-99.5 -50t-110.5 -7.5q-20 3 -34 6.5t-25.5 9.5t-23 14
t-27.5 19q-12 9 -21 19l3 -54v-2q3 -24 5.5 -40.5t5 -31.5t5.5 -31.5t6 -40.5q0 -17 -8.5 -28t-20 -14t-22.5 3.5t-14 24.5v76.5t0.5 67.5t0.5 67.5v76.5zM154 437q-24 -17 -40.5 -47.5t-24.5 -68t-7 -78.5t11 -78.5t30 -68t51 -46.5t66.5 -19t70.5 5.5t66 27t53 45
t32.5 59.5t3.5 71q-6 35 -22.5 70t-41 64.5t-55.5 51.5t-67 32q-31 7 -65.5 3.5t-60.5 -23.5z" />
    <glyph glyph-name="q" unicode="q" horiz-adv-x="524" 
d="M507 -145q-2 -17 -12.5 -26.5t-22 -10.5t-21 7t-9.5 27q4 40 7 72.5t4 64t0.5 64t-1.5 72.5q-10 -38 -38.5 -67.5t-67.5 -43.5q-38 -15 -78.5 -13.5t-79 16.5t-72 41.5t-57.5 63t-36 81.5t-7 95q5 51 16.5 87.5t32.5 61t52 38.5t75 21q26 4 58 3.5t64 -6.5t62 -19t53 -32
l-0.5 5t-1.5 11t-2 11.5l-1 5.5q7 11 16.5 16t18.5 4.5t17 -7.5t11 -21v-1q0 -7 -3 -13q1 -5 0 -9q5 -29 5.5 -58.5t-0.5 -58.5t-2.5 -58.5t-0.5 -59.5q1 -51 4.5 -95.5t7 -87t6 -86.5t3.5 -95zM378 86q13 16 23 42.5t16 58.5t7 66.5t-2.5 67t-13 60t-25.5 45.5
q-8 10 -22 17t-29.5 11t-30.5 6t-26 2q-38 1 -77 -8t-70 -29.5t-51 -52t-21 -75.5q-2 -91 41.5 -155t131.5 -84q19 -5 39.5 -8t40 -0.5t37.5 10.5t32 26z" />
    <glyph glyph-name="r" unicode="r" horiz-adv-x="377" 
d="M135 19q-5 -22 -22.5 -30.5t-31.5 3.5q-8 3 -14 11.5t-5 23.5v8t1 3q1 -4 -0.5 -11.5t0.5 -3.5q4 9 3.5 19.5t-0.5 20.5q4 54 -2.5 106.5t-17 104.5t-22 104t-17.5 105q1 16 10.5 26.5t21 12.5t21.5 -5.5t12 -25.5q-3 -52 -1.5 -103.5t9.5 -103.5q8 52 25.5 90.5t47 66
t73 45t103.5 28.5q16 -1 24 -9.5t8.5 -19t-6 -21t-19.5 -16.5q-62 11 -103 -5.5t-66 -51.5t-36.5 -82.5t-13 -99t4 -101.5t13.5 -89z" />
    <glyph glyph-name="s" unicode="s" horiz-adv-x="440" 
d="M305 492q18 -1 26 -10.5t6.5 -21.5t-11 -22.5t-25.5 -12.5q-25 1 -58 0.5t-63 -6.5t-51.5 -20t-22.5 -38q2 -19 24.5 -34t56 -28.5t72 -27.5t72.5 -31t58.5 -39t29.5 -52q8 -18 -3 -37.5t-30.5 -36.5t-40.5 -30t-33 -18q-43 -18 -84.5 -24t-80 2t-72 31.5t-59.5 64.5
q-4 13 0.5 25t13.5 18.5t20.5 6t22.5 -11.5q33 -63 90 -82t121 7q60 24 75.5 47.5t2 45t-48 40.5t-74.5 35.5t-77 29.5t-56 22q-17 9 -27.5 23t-14.5 30.5t-2 34.5t11 34q18 30 44 47.5t56.5 26t63 10.5t61.5 2h7v0z" />
    <glyph glyph-name="t" unicode="t" horiz-adv-x="316" 
d="M27 356q-15 4 -21.5 13.5t-5 20t9.5 20t21 13.5q47 -4 86 6q-5 52 -9.5 102.5t-9.5 98.5q1 16 10.5 26.5t21 12.5t21.5 -5.5t12 -25.5q-2 -48 -1.5 -96.5t2.5 -99.5q24 9 49.5 18t54.5 17q18 -1 26 -11t6.5 -22t-11 -22t-25.5 -12q-8 1 -17 0.5t-17 1.5q-2 0 -1 0.5
t3 0.5q-35 -2 -66 -12q5 -97 14 -190t17 -180q-3 -14 -12 -22.5t-19.5 -10.5t-20 4t-13.5 21q5 85 1 177.5t-12 186.5q-23 -8 -46.5 -16.5t-47.5 -14.5z" />
    <glyph glyph-name="u" unicode="u" horiz-adv-x="510" 
d="M9 450q1 16 10.5 26.5t21 12.5t21.5 -5.5t12 -25.5q-2 -37 -6.5 -74.5t-7 -75t0 -74.5t14.5 -73q26 -75 66.5 -108.5t85 -35t88 24.5t74.5 69.5t45 100t0 116.5q-1 3 -5 22t-9 40.5t-9 39.5l-4 18q-4 12 0 23.5t12.5 18t19.5 7t22 -9.5l-3 4l6 -6q-2 0 -2 2q9 -11 15 -35
t10 -52t6.5 -55t4.5 -43q7 -60 -9 -118t-52 -103t-89.5 -71t-121.5 -23q-62 3 -103.5 26.5t-67 62.5t-36.5 90t-13 109q-2 45 0.5 87.5t2.5 87.5z" />
    <glyph glyph-name="v" unicode="v" horiz-adv-x="542" 
d="M333 29q-9 -17 -22 -21q-11 -5 -23.5 0t-17.5 24q-36 79 -71 136.5t-69 102.5t-66 82t-62 75q-9 13 -7 27t11 22t22 9t25 -11q37 -54 72 -107t73 -107q13 -18 27 -40t27.5 -45t26.5 -45.5t24 -41.5q22 48 41 89t38.5 86t40 100t45.5 132q11 14 24 16.5t22 -4t12 -19
t-6 -28.5q-51 -106 -96.5 -213t-90.5 -219z" />
    <glyph glyph-name="w" unicode="w" horiz-adv-x="704" 
d="M74 478q10 6 11 -10.5t-2.5 -47t-9 -72t-8.5 -84.5t-0.5 -83.5t15 -70.5t38 -45t68.5 -7q35 7 58 34.5t36.5 66.5t20 83t9 84t2.5 69.5t1 39.5q1 15 8.5 25t17.5 13t19 -2t13 -19q6 -17 9 -52.5t6 -79.5t8 -91t16 -87t29.5 -68.5t49.5 -34.5q52 2 80.5 28.5t41 66.5
t12 88t-6 92t-11.5 78.5t-6 48.5q1 16 10.5 26.5t21 12.5t21.5 -5.5t12 -25.5q-1 -32 1.5 -80.5t2 -101.5t-8 -105.5t-27.5 -93.5t-56 -63.5t-94 -16.5q-44 5 -70 42t-40.5 88t-20.5 106t-8 97q-12 -188 -63 -266.5t-150 -43.5q-43 15 -68 59t-36.5 100.5t-11 116t8.5 106.5
t21.5 72.5t29.5 12.5z" />
    <glyph glyph-name="x" unicode="x" horiz-adv-x="473" 
d="M347 469q9 12 20.5 15.5t21 -0.5t14.5 -14.5t2 -25.5q-31 -51 -71 -94t-82 -88q35 -41 66 -70.5t56 -53t42.5 -44.5t25.5 -45q2 -13 -2 -21.5t-13 -17.5l-5 -4q-23 8 -45.5 36t-46 63t-49 70.5t-55.5 59.5q-13 -17 -28 -41t-34.5 -52t-43 -58.5t-52.5 -59.5
q-13 -13 -25.5 -13t-20.5 8t-9 21.5t10 27.5l37 37t26.5 27t21.5 23t22.5 25.5t29.5 34t42 48.5q-39 48 -82 90t-89 75q-8 12 -7.5 24t7 21t18 12.5t25.5 -2.5q22 -21 41 -44.5t37.5 -48t36.5 -49t38 -48.5q42 54 72 94.5t48 81.5z" />
    <glyph glyph-name="y" unicode="y" horiz-adv-x="478" 
d="M46 454q6 13 16 20.5t20 7.5t18 -7.5t10 -23.5q-3 -29 -14 -68t-20.5 -79.5t-13 -77.5t7.5 -60q23 -45 59.5 -66t77.5 -23t83 13.5t75 42.5q14 12 22.5 21.5t14.5 20.5q0 38 -3.5 76.5t-7 72t-5.5 60.5t1 42q5 11 14.5 15t18.5 -6q13 -42 19.5 -97t8 -113.5t-1 -115
t-6.5 -100.5q-6 -71 -41.5 -112.5t-86 -59.5t-108.5 -16t-109 19q-8 12 -7.5 24t7 21t18 12.5t25.5 -2.5q5 -3 23 -7.5t43.5 -6.5t54.5 2t56 18t48 40.5t30 70.5q6 27 8 54.5t2 56.5q-44 -47 -99.5 -70t-109.5 -21.5t-100 28t-71 78.5q-18 37 -18 77t8.5 80.5t19 80.5
t13.5 78z" />
    <glyph glyph-name="z" unicode="z" horiz-adv-x="494" 
d="M22 394q-15 4 -21.5 13.5t-5 20t9.5 20t21 13.5q62 -5 111 -6.5t95 -0.5t95 4t111 8q26 -2 31 -18.5t-6 -31.5q-35 -40 -68 -75.5t-72 -75t-87.5 -87t-113.5 -110.5q28 3 71.5 1.5t87.5 -5t81.5 -7t54.5 -5.5q18 -1 26 -10.5t6.5 -21.5t-11 -22.5t-25.5 -12.5
q-48 8 -89 15.5t-81 14t-82 12t-90 8.5q-16 3 -15 15.5t12 20.5q5 4 24 23.5t45.5 48t58.5 64t64.5 71t62 68.5t51.5 58q-56 4 -96.5 4.5t-78.5 -1.5t-79 -5.5t-98 -7.5z" />
    <glyph glyph-name="braceleft" unicode="{" horiz-adv-x="200" 
d="M280 817q15 -6 19.5 -16.5t1.5 -21t-13 -19t-23 -10.5q-29 3 -57.5 9.5t-57.5 3.5q-32 -3 -52.5 -30.5t-32 -63.5t-15 -74t-2.5 -62q2 -24 5 -40.5t10 -39.5q7 -21 19.5 -39.5t23.5 -38.5q12 -20 20.5 -44t10.5 -48.5t-4 -48.5t-23 -43l-2 -2q30 -10 40.5 -33t12.5 -51
t0.5 -57.5t3.5 -54t21.5 -39.5t54.5 -14q12 6 22 3.5t16 -10t6.5 -18.5t-6.5 -23q-11 -12 -30 -15t-40 0t-40 11.5t-29 19.5q-7 7 -11.5 15.5t-9.5 16.5q-11 23 -10 53.5t3 55.5q2 18 4 42.5t-8 41.5t-25 18.5t-32 1.5q-15 4 -16.5 15t6.5 22q13 8 27 16.5t22 20.5
q18 27 11 60t-24 66.5t-36.5 66t-25.5 59.5q-8 39 -9 80.5t6.5 81.5t24 77t42.5 69q8 10 20.5 16t23.5 12q16 9 36.5 11t41.5 0.5t41.5 -5t37.5 -4.5z" />
    <glyph glyph-name="bar" unicode="|" horiz-adv-x="169" 
d="M21 781q1 16 10.5 26.5t21 12.5t21.5 -5.5t12 -25.5q-4 -100 -3 -217t4.5 -237.5t9 -237.5t11.5 -217q-3 -14 -12 -22.5t-19 -10.5t-20 4t-14 21q4 100 3.5 217.5t-4 238t-9.5 237t-12 216.5z" />
    <glyph glyph-name="braceright" unicode="}" horiz-adv-x="200" 
d="M-82 817q17 1 37.5 4.5t41.5 5t41 -0.5t37 -11q11 -6 23.5 -12t20.5 -16q26 -32 42.5 -69t24 -77t6.5 -81.5t-9 -80.5q-6 -27 -25.5 -59.5t-36.5 -66t-24 -66.5t11 -60q8 -12 22 -20.5t27 -16.5q8 -11 6.5 -22t-16.5 -15q-17 0 -32 -1.5t-25 -18.5t-8 -41.5t4 -42.5
q0 -12 1.5 -26.5t1.5 -29t-2 -28t-8 -25.5q-5 -8 -9.5 -16.5t-11.5 -15.5q-11 -11 -30 -19t-40 -11.5t-40 -0.5t-29 15q-7 12 -6.5 23t6.5 18.5t16 10t22 -3.5q38 -1 54.5 14t21.5 39.5t3.5 54t0.5 57.5t12.5 51t40.5 33l-2 2q-17 19 -23 43t-4 48.5t10.5 48.5t20.5 44
q11 20 23.5 38.5t19.5 39.5q7 23 10 39.5t5 40.5q1 24 -2.5 62t-15 74t-32 63.5t-52.5 30.5q-29 3 -57.5 -3.5t-57.5 -9.5q-14 2 -23.5 10.5t-12.5 19t1.5 21t19.5 16.5z" />
    <glyph glyph-name="asciitilde" unicode="~" horiz-adv-x="347" 
d="M78 318q-9 -15 -22 -19.5t-23.5 0t-15 16t2.5 28.5q8 14 23.5 34t34.5 34.5t40 18t40 -14.5q12 -11 21 -25t17.5 -28.5t18.5 -27t24 -20.5q15 4 21 17t7.5 27.5t0 26t-1.5 12.5q1 16 10.5 26.5t21 12.5t21.5 -5.5t12 -25.5q-1 -16 -5.5 -36.5t-13 -39.5t-21.5 -34
t-32 -20q-4 -1 -16 -3.5t-18 0.5q-14 9 -26.5 26t-24.5 34.5t-24 31.5t-23.5 16t-23.5 -11.5t-25 -50.5z" />
    <glyph glyph-name="exclamdown" unicode="&#xa1;" horiz-adv-x="168" 
d="M87 37q-3 -16 -13.5 -25t-22.5 -10t-21 7.5t-9 26.5q12 72 18.5 137t10 128t5 128t3.5 138q4 13 14 21t20.5 8.5t19.5 -6.5t12 -22q-12 -72 -19 -137t-10.5 -128t-5 -128t-2.5 -138zM103 623q-3 0 -5.5 0.5t-5.5 1.5q-12 -3 -22 4t-12 26q5 8 7.5 14.5t7.5 14.5
q8 10 18.5 11.5t20 -2.5t18.5 -12t14 -15q-1 -7 -2.5 -11t-5.5 -9q-5 -9 -15 -13.5t-18 -9.5z" />
    <glyph glyph-name="cent" unicode="&#xa2;" horiz-adv-x="358" 
d="M95 578q1 16 10.5 26.5t21 12.5t21.5 -5.5t12 -25.5q-2 -23 -3 -46.5t-2 -46.5q36 9 69.5 7.5t56.5 -16.5q7 -5 12 -11l10 -12q6 -12 3.5 -24.5t-10.5 -20t-19.5 -9.5t-24.5 7q-14 19 -41.5 25t-57.5 1q-2 -48 -0.5 -97.5t6.5 -112.5q29 3 51.5 17.5t42.5 29.5t39.5 26.5
t42.5 9.5q15 -19 8.5 -36.5t-22.5 -32t-36 -25.5t-31 -16q-22 -10 -45 -15.5t-46 -6.5q1 -14 2.5 -34.5t0.5 -40.5t-6 -36t-16 -21q-2 0 -3 -1q-5 0 -11.5 1t-11.5 2.5t-7 2.5t3 1h4q-5 6 -8 14t-4.5 22.5t0.5 36.5t8 57q-41 2 -67 22.5t-38 50t-11 65t13.5 67t37 55.5
t58.5 32q-3 26 -6.5 50.5t-5.5 50.5zM112 429q-38 -14 -58 -43.5t-20.5 -61.5t20 -59.5t63.5 -36.5q2 35 2 63.5t-0.5 52.5t-2.5 44.5t-4 40.5z" />
    <glyph glyph-name="sterling" unicode="&#xa3;" horiz-adv-x="372" 
d="M17 332q-15 4 -21.5 13.5t-5 20t9.5 20t21 13.5q16 -2 31 -4t30 -3q-9 34 -2 67t26 60.5t47.5 47.5t62 29.5t70 5.5t71.5 -25q7 -14 3 -27t-14 -20t-23 -6t-23 15v1q-48 12 -83 6t-57.5 -26t-32.5 -51.5t-8 -69.5q0 -2 -0.5 -4t-0.5 -4q29 0 56.5 6t58.5 11
q4 2 12.5 -0.5t15.5 -5.5t10 -4t-4 5q15 -18 5.5 -36.5t-33.5 -22.5q-30 10 -60.5 11t-61.5 -4q3 -27 11.5 -55.5t16.5 -57t12.5 -56.5t-0.5 -53q19 -22 41 -35t50 -15h1q14 -1 23 5t17 14t17.5 15t24.5 7l4 -2q28 -10 20 -42q-12 -24 -40 -31.5t-61.5 -4.5t-67.5 13t-59 21
l-3 -3q-20 -18 -34.5 -31.5t-37.5 -23.5q-19 -2 -21.5 5.5t-1.5 25.5q4 18 12.5 27t19 15t21 13t18.5 22q0 2 1 3q10 21 9 46.5t-6 54t-12 58.5t-10 59l-65 -13v0z" />
    <glyph glyph-name="currency" unicode="&#xa4;" horiz-adv-x="432" 
d="M300 186q-45 -20 -90 -25t-81 16q-4 -3 -7.5 -6.5t-8.5 -6.5q-2 -1 -3.5 -1.5t-2.5 -2.5q1 1 1.5 -6t-0.5 -16t-4.5 -17t-10.5 -8q-29 0 -41.5 12.5t-3.5 22.5q0 -1 -0.5 -1.5t-0.5 -1.5q9 9 10 12t-9 -9q6 4 12.5 13t12 18t8 15t1.5 3q-1 -1 -1 1.5v4.5q0 1 2 3l-6 6
q-19 19 -27.5 43t-8 49.5t8 51t20.5 48.5q1 2 0 5.5t1 2.5t2 -2.5t1 -3.5q0 1 0.5 1t0.5 1l-2 4q-6 16 -19 23.5t-24.5 14.5t-17.5 16t2 28q2 2 3 2q14 14 23 15.5t15.5 -4t12 -16.5t12 -20.5t15 -15.5t22.5 -3q28 14 52.5 24.5t48.5 16t49 4.5t54 -10q2 0 2 -1l1 -1h3
q1 -1 0 -2q1 -1 2 -1q8 6 10.5 16t4.5 20t6 19t15 13q28 -2 35.5 -9.5t3.5 -17.5t-14.5 -22t-19.5 -22q-2 -3 -5.5 -8t-6.5 -11q20 -14 31.5 -30.5t19.5 -49.5q11 -42 -8 -82t-54 -72q6 -10 17.5 -14.5t21 -9.5t14 -13t-3.5 -26q-15 -26 -25.5 -24t-19.5 14t-19 26t-25 13
q-3 0 3 -1t7 -4q1 -2 -3 -1t-6 1q-5 0 -8 -1zM360 362q-8 26 -27.5 42.5t-45 23t-55 4t-56 -13t-49 -28.5t-33.5 -43q-13 -27 -8.5 -53.5t20 -47.5t41 -34t54.5 -13q27 -1 58 12.5t56.5 37t39 53t5.5 60.5z" />
    <glyph glyph-name="yen" unicode="&#xa5;" horiz-adv-x="401" 
d="M128 220q-15 4 -21.5 13.5t-5 20t9.5 20t21 13.5q24 -4 46.5 -4t44.5 2l-4 56q-14 -2 -27.5 -6t-27 -5.5t-26.5 1.5t-25 15q-3 12 0 23t10.5 18t17.5 8.5t21 -5.5q5 -1 18 0t25 2.5t18 1.5t-4 -4q0 9 -19 28.5t-46.5 42.5t-59 45.5t-56.5 36.5l2 -2l-6 3h-2
q-15 4 -21.5 13.5t-5 20t9.5 20t21 13.5q8 -1 13 -1t12 -4q19 -11 34.5 -28.5t34 -39t44.5 -45.5t68 -48q5 2 19 20.5t30 44t29.5 54t18.5 50.5q7 16 19 22.5t23 4.5t17.5 -12.5t2.5 -28.5q-9 -5 -23 -21.5t-29 -38.5t-30.5 -46t-27.5 -44.5t-19.5 -34.5t-7.5 -15
q0 -3 11.5 -3t27 0.5t31 1.5t24.5 -1q13 -18 6.5 -31.5t-22.5 -21t-37 -8t-37 6.5q-2 -14 -2.5 -26.5t-1.5 -25.5q14 3 28.5 6.5t29.5 7.5q18 -1 26 -11t6.5 -22t-11 -22t-25.5 -12q-14 2 -27.5 3t-26.5 1q-5 -15 1 -41t11 -53.5t3.5 -52t-21.5 -36.5q-23 -3 -31.5 10
t-3.5 29l-2 -2q6 18 7 57t-2 87q-24 -3 -48 -8.5t-50 -12.5zM41 541q1 -1 0.5 -1t-1.5 1h1z" />
    <glyph glyph-name="brokenbar" unicode="&#xa6;" horiz-adv-x="167" 
d="M21 781q1 16 10.5 26.5t21 12.5t21.5 -5.5t12 -25.5q-4 -98 -3.5 -211t4.5 -231q-6 0 -11 1q-8 1 -17 1.5t-17 0.5q-4 115 -9.5 225t-11.5 206zM43 -128q3 79 3.5 167.5t-1.5 182.5l46 2q4 -93 8 -179.5t9 -164.5q-3 -14 -12 -22.5t-19 -10.5t-20 4t-14 21z" />
    <glyph glyph-name="section" unicode="&#xa7;" horiz-adv-x="457" 
d="M391 618q-83 21 -145.5 17.5t-105 -21.5t-67 -47t-33 -59t-2 -56.5t26.5 -40.5q10 -8 24.5 -13.5t30 -9t30 -5.5t26.5 -2q59 0 110 -12t86 -32.5t51.5 -48.5t7 -61t-48 -70.5t-112.5 -75.5q33 -9 64 -19.5t55 -26t38 -36.5t13 -50q-3 -42 -33 -68.5t-71 -42t-85 -22.5
t-75 -11q-18 -2 -41.5 -6.5t-42 -2t-26 15t7.5 43.5q25 1 59 1t71 2t74 9.5t67 25.5q16 8 30 20.5t20 27t1.5 29.5t-23.5 29q-37 27 -82 38.5t-88 22.5q-37 9 -72.5 19t-58.5 27.5t-27 46.5t22 76q17 30 36.5 58t48.5 52q-52 6 -85 26.5t-48.5 49t-14.5 62.5t16 67.5
t43.5 63t67.5 50.5q32 17 66.5 25t70 10t71 -0.5t70.5 -7.5q15 -6 19.5 -16.5t1.5 -21t-13 -19t-23 -10.5h-3zM208 332q-25 -18 -49 -41t-40 -47t-22 -48t4.5 -44.5t39 -36t81.5 -21.5q35 9 68.5 28.5t56.5 44.5t31.5 52t-4.5 50.5t-52.5 40.5t-113.5 22z" />
    <glyph glyph-name="dieresis" unicode="&#xa8;" horiz-adv-x="265" 
d="M72 842q-3 -14 -12 -22.5t-19.5 -10.5t-20 4t-13.5 21v5q1 16 10.5 26.5t21 12.5t21.5 -5.5t12 -25.5v-5zM245 841q-3 -14 -12 -22.5t-19.5 -10.5t-20 4t-13.5 21v5q1 16 10.5 26.5t21 12.5t21.5 -5.5t12 -25.5v-5z" />
    <glyph glyph-name="acute" unicode="&#xb4;" horiz-adv-x="243" 
d="M228 859q-29 -7 -53 -20.5t-46 -30.5t-43 -36.5t-42 -37.5q-15 -4 -27 3t-17 18.5t-1 24t20 19.5q48 30 92.5 58.5t82.5 62.5q15 6 27.5 1t18.5 -15.5t4 -23.5t-16 -23z" />
    <glyph glyph-name="mu" unicode="&#xb5;" horiz-adv-x="528" 
d="M57 474q0 12 6 21t14 13.5t16.5 4.5t15.5 -5q10 -1 17 -8.5t9 -22.5q1 -18 7.5 -43.5t18 -54t26 -56t31.5 -49t34.5 -33.5t35.5 -8q34 7 60 35.5t46 65t35.5 75t28.5 64.5q9 13 21 11t14 -19q0 -15 -3.5 -30.5t-3.5 -31.5q2 -92 6.5 -184t12.5 -183l2 -9v-2v-1v-2h-1
q-4 -13 -13 -21t-19 -9.5t-19 4.5t-13 21q-2 51 -0.5 101t2.5 101v71.5t2 70.5q-21 -45 -46.5 -85.5t-55.5 -58.5q-12 -8 -24.5 -16t-26.5 -12q-33 -10 -62 5.5t-53 42.5t-42 59.5t-27 58.5q-12 -101 -23.5 -206t-11.5 -228q0 -11 2.5 -27.5t2.5 -34t-5 -33t-18 -24.5
q-7 -3 -13 -3.5t-11 5.5t-8.5 19.5t-6.5 38.5q6 73 14 147t14 149.5t9.5 154t2.5 161.5z" />
    <glyph glyph-name="mu" unicode="&#x3bc;" horiz-adv-x="528" 
d="M57 474q0 12 6 21t14 13.5t16.5 4.5t15.5 -5q10 -1 17 -8.5t9 -22.5q1 -18 7.5 -43.5t18 -54t26 -56t31.5 -49t34.5 -33.5t35.5 -8q34 7 60 35.5t46 65t35.5 75t28.5 64.5q9 13 21 11t14 -19q0 -15 -3.5 -30.5t-3.5 -31.5q2 -92 6.5 -184t12.5 -183l2 -9v-2v-1v-2h-1
q-4 -13 -13 -21t-19 -9.5t-19 4.5t-13 21q-2 51 -0.5 101t2.5 101v71.5t2 70.5q-21 -45 -46.5 -85.5t-55.5 -58.5q-12 -8 -24.5 -16t-26.5 -12q-33 -10 -62 5.5t-53 42.5t-42 59.5t-27 58.5q-12 -101 -23.5 -206t-11.5 -228q0 -11 2.5 -27.5t2.5 -34t-5 -33t-18 -24.5
q-7 -3 -13 -3.5t-11 5.5t-8.5 19.5t-6.5 38.5q6 73 14 147t14 149.5t9.5 154t2.5 161.5z" />
    <glyph glyph-name="periodcentered" unicode="&#xb7;" horiz-adv-x="194" 
d="M96 414q2 0 4 -0.5t4 -0.5q4 1 12 1q7 -5 13.5 -8t8.5 -11q5 -8 5 -13t-2 -14q-24 -24 -45.5 -26t-31 8.5t-4 28.5t35.5 35z" />
    <glyph glyph-name="cedilla" unicode="&#xb8;" horiz-adv-x="227" 
d="M47 3q-3 2 -5 4l-4 4q-2 3 1.5 9t12 9.5t22.5 2t34 -13.5q1 -17 -3 -34.5t-9 -32.5q47 2 73 -8.5t34.5 -28t1.5 -38.5t-25.5 -39.5t-47.5 -31.5t-64 -14q-17 4 -23 15.5t-3 23t14 20.5t27 8q51 1 68.5 12.5t10.5 23t-33.5 17t-64.5 -3.5q-18 6 -18 26q6 31 6 64
q0 -2 -0.5 -2.5t-0.5 -1.5q0 -2 -0.5 2.5t-1.5 6.5q0 1 -2 1z" />
    <glyph glyph-name="questiondown" unicode="&#xbf;" horiz-adv-x="437" 
d="M362 593q-15 -68 -17 -103.5t-4 -51t-12 -18t-41 -4.5q-20 -1 -41 -1.5t-42 -3t-41 -8.5t-38 -18q-42 -30 -66 -74.5t-25 -91t22.5 -88t77.5 -64.5q28 -12 60.5 -13.5t65 5.5t63 20.5t54.5 31.5q0 1 1 2h1q20 14 33 6.5t1 -36.5q-9 -19 -39.5 -34t-64 -25.5t-63 -16
t-36.5 -6.5q-57 -6 -99.5 12t-69 50.5t-37.5 76t-6.5 89.5t25 89.5t57.5 76.5t89.5 51.5t121.5 13.5l5 125q3 14 12 22.5t19 10.5t19.5 -4t14.5 -21zM316 639q-19 8 -21 23.5t7 27.5q2 6 4 9q0 3 1 6t-1 5q20 19 36.5 11.5t18.5 -26.5q2 -8 1 -12q1 -1 3 -8v-3
q-1 -8 -3.5 -11.5t-7.5 -7.5q-5 -6 -19 -9t-19 -5z" />
    <glyph glyph-name="Agrave" unicode="&#xc0;" horiz-adv-x="685" 
d="M6 321q-11 18 -10 28.5t8 15.5t18 5.5t20 0t13 -1t-2 1.5l54 -2q6 46 16 91.5t27 91.5q21 56 54 91t72.5 52.5t83 17.5t86 -15t80.5 -44.5t67 -71.5q17 -25 29 -68t20.5 -95.5t12.5 -110.5t5.5 -111.5t0 -98.5t-4.5 -73q-5 -19 -17 -26t-24 -5t-19.5 13t-2.5 28
q6 76 11 154.5t1 166.5q-52 2 -110.5 -1t-118 -9t-117 -13t-108.5 -14h-2q-2 -39 -1 -78t3 -75.5t4 -69.5t3 -60q-3 -14 -12 -22.5t-19 -10.5t-20 4t-14 21q1 72 1.5 143t6.5 141q-28 -4 -56.5 -3.5t-38.5 12.5zM154 368q50 0 107 6t115 14.5t115 17.5t108 15q-5 39 -15 74
t-25 62q-20 35 -52 62.5t-70.5 42.5t-79.5 14t-78 -23q-32 -19 -54.5 -49t-37.5 -67.5t-23.5 -80.5t-11.5 -88h2zM268 859q-14 10 -16 23t4 23.5t18.5 15.5t27.5 -1q38 -34 83 -62.5t92 -58.5q16 -7 20 -19.5t-1 -23.5t-16.5 -18.5t-27.5 -3.5q-21 18 -42 37.5t-43 36.5
t-46.5 30.5t-52.5 20.5z" />
    <glyph glyph-name="Aacute" unicode="&#xc1;" horiz-adv-x="685" 
d="M6 321q10 -12 38.5 -12.5t56.5 3.5q-6 -70 -6.5 -141t-1.5 -143q4 -15 14 -21t20 -4t19 10.5t12 22.5q-1 27 -3 60t-4 69.5t-3 75.5t1 78h2q51 7 108.5 14t117 13t118 9t110.5 1q4 -88 -1 -166.5t-11 -154.5q-5 -17 2.5 -28t19.5 -13t24 5t17 26q3 28 4.5 73t0 98.5
t-5.5 111.5t-12.5 110.5t-20.5 95.5t-29 68q-29 42 -67 71.5t-80.5 44.5t-86 15t-83 -17.5t-72.5 -52.5t-54 -91q-17 -46 -27 -91.5t-16 -91.5l-54 2q6 -2 2 -1.5t-13 1t-20 0t-18 -5.5t-8 -15.5t10 -28.5zM154 368h-2q3 45 11.5 88t23.5 80.5t37.5 67.5t54.5 49
q37 22 78 23t79.5 -14t70.5 -42.5t52 -62.5q15 -27 25 -62t15 -74q-51 -6 -108 -15t-115 -17.5t-115 -14.5t-107 -6zM482 859q-29 -7 -53 -20.5t-46 -30.5t-43 -36.5t-42 -37.5q-16 -4 -27.5 3.5t-16.5 18.5t-1 23.5t20 19.5q47 30 92 58.5t83 62.5q15 6 27.5 1t18.5 -15.5
t4 -23.5t-16 -23z" />
    <glyph glyph-name="Acircumflex" unicode="&#xc2;" horiz-adv-x="685" 
d="M6 321q-11 18 -10 28.5t8 15.5t18 5.5t20 0t13 -1t-2 1.5l54 -2q6 46 16 91.5t27 91.5q21 56 54 91t72.5 52.5t83 17.5t86 -15t80.5 -44.5t67 -71.5q17 -25 29 -68t20.5 -95.5t12.5 -110.5t5.5 -111.5t0 -98.5t-4.5 -73q-5 -19 -17 -26t-24 -5t-19.5 13t-2.5 28
q6 76 11 154.5t1 166.5q-52 2 -110.5 -1t-118 -9t-117 -13t-108.5 -14h-2q-2 -39 -1 -78t3 -75.5t4 -69.5t3 -60q-3 -14 -12 -22.5t-19 -10.5t-20 4t-14 21q1 72 1.5 143t6.5 141q-28 -4 -56.5 -3.5t-38.5 12.5zM154 368q50 0 107 6t115 14.5t115 17.5t108 15q-5 39 -15 74
t-25 62q-20 35 -52 62.5t-70.5 42.5t-79.5 14t-78 -23q-32 -19 -54.5 -49t-37.5 -67.5t-23.5 -80.5t-11.5 -88h2zM221 731q-16 -2 -25 4.5t-11 17t2.5 22t16.5 19.5q62 80 103 108.5t73.5 19t64 -50t75.5 -97.5l-2 -3q-8 -13 -18 -19t-26 -2q-16 13 -27.5 32t-23.5 38.5
t-25.5 37t-33.5 27.5q-20 -16 -37 -36.5t-33.5 -42t-34 -41t-38.5 -34.5z" />
    <glyph glyph-name="Atilde" unicode="&#xc3;" horiz-adv-x="685" 
d="M6 321q-11 18 -10 28.5t8 15.5t18 5.5t20 0t13 -1t-2 1.5l54 -2q6 46 16 91.5t27 91.5q21 56 54 91t72.5 52.5t83 17.5t86 -15t80.5 -44.5t67 -71.5q17 -25 29 -68t20.5 -95.5t12.5 -110.5t5.5 -111.5t0 -98.5t-4.5 -73q-5 -19 -17 -26t-24 -5t-19.5 13t-2.5 28
q6 76 11 154.5t1 166.5q-52 2 -110.5 -1t-118 -9t-117 -13t-108.5 -14h-2q-2 -39 -1 -78t3 -75.5t4 -69.5t3 -60q-3 -14 -12 -22.5t-19 -10.5t-20 4t-14 21q1 72 1.5 143t6.5 141q-28 -4 -56.5 -3.5t-38.5 12.5zM154 368q50 0 107 6t115 14.5t115 17.5t108 15q-5 39 -15 74
t-25 62q-20 35 -52 62.5t-70.5 42.5t-79.5 14t-78 -23q-32 -19 -54.5 -49t-37.5 -67.5t-23.5 -80.5t-11.5 -88h2zM266 800q-9 -15 -21.5 -19.5t-23 0t-15.5 16t2 28.5q8 14 23.5 34t34.5 34.5t40 18t40 -14.5q12 -11 21 -25t17.5 -28.5t18.5 -27t24 -20.5q15 4 21 17
t7.5 27.5t0 25.5t-1.5 13q1 16 10.5 26.5t21 12.5t21.5 -5.5t12 -25.5q-1 -17 -5.5 -37t-13 -39t-21.5 -34t-32 -20q-4 -1 -16 -3.5t-18 0.5q-15 8 -27.5 25.5t-24.5 35t-23 31.5t-22.5 16t-24 -11.5t-25.5 -50.5z" />
    <glyph glyph-name="Adieresis" unicode="&#xc4;" horiz-adv-x="685" 
d="M6 321q-11 18 -10 28.5t8 15.5t18 5.5t20 0t13 -1t-2 1.5l54 -2q6 46 16 91.5t27 91.5q21 56 54 91t72.5 52.5t83 17.5t86 -15t80.5 -44.5t67 -71.5q17 -25 29 -68t20.5 -95.5t12.5 -110.5t5.5 -111.5t0 -98.5t-4.5 -73q-5 -19 -17 -26t-24 -5t-19.5 13t-2.5 28
q6 76 11 154.5t1 166.5q-52 2 -110.5 -1t-118 -9t-117 -13t-108.5 -14h-2q-2 -39 -1 -78t3 -75.5t4 -69.5t3 -60q-3 -14 -12 -22.5t-19 -10.5t-20 4t-14 21q1 72 1.5 143t6.5 141q-28 -4 -56.5 -3.5t-38.5 12.5zM154 368q50 0 107 6t115 14.5t115 17.5t108 15q-5 39 -15 74
t-25 62q-20 35 -52 62.5t-70.5 42.5t-79.5 14t-78 -23q-32 -19 -54.5 -49t-37.5 -67.5t-23.5 -80.5t-11.5 -88h2zM321 842q-3 -14 -12 -22.5t-19 -10.5t-20 4t-14 21v5q1 16 10.5 26.5t21 12.5t21.5 -5.5t12 -25.5v-5zM494 841q-3 -14 -12 -22.5t-19 -10.5t-20 4t-14 21v5
q1 16 10.5 26.5t21 12.5t21.5 -5.5t12 -25.5v-5z" />
    <glyph glyph-name="Aring" unicode="&#xc5;" horiz-adv-x="685" 
d="M6 321q-11 18 -10 28.5t8 15.5t18 5.5t20 0t13 -1t-2 1.5l54 -2q6 46 16 91.5t27 91.5q21 56 54 91t72.5 52.5t83 17.5t86 -15t80.5 -44.5t67 -71.5q17 -25 29 -68t20.5 -95.5t12.5 -110.5t5.5 -111.5t0 -98.5t-4.5 -73q-5 -19 -17 -26t-24 -5t-19.5 13t-2.5 28
q6 76 11 154.5t1 166.5q-52 2 -110.5 -1t-118 -9t-117 -13t-108.5 -14h-2q-2 -39 -1 -78t3 -75.5t4 -69.5t3 -60q-3 -14 -12 -22.5t-19 -10.5t-20 4t-14 21q1 72 1.5 143t6.5 141q-28 -4 -56.5 -3.5t-38.5 12.5zM154 368q50 0 107 6t115 14.5t115 17.5t108 15q-5 39 -15 74
t-25 62q-20 35 -52 62.5t-70.5 42.5t-79.5 14t-78 -23q-32 -19 -54.5 -49t-37.5 -67.5t-23.5 -80.5t-11.5 -88h2zM389 772q-54 -1 -82 10.5t-36.5 29.5t-1 39t24.5 39.5t40.5 31t46 13.5t41.5 -12.5t28 -47.5q3 -15 2 -33t-8 -34t-20.5 -26.5t-34.5 -9.5zM366 809
q19 -5 31 3t12.5 20t-11 24t-39.5 17q-19 -3 -31.5 -10.5t-14 -17t10.5 -19.5t42 -17z" />
    <glyph glyph-name="AE" unicode="&#xc6;" horiz-adv-x="720" 
d="M377 3q-12 3 -18 10t-6.5 15t3.5 17t11 15q2 15 3 44.5t0 67.5t-2.5 82t-3.5 90q-57 -5 -111 -12t-102 -13h-2q-2 -39 -1 -78t3 -75.5t4 -69.5t3 -60q-3 -14 -12 -22.5t-19 -10.5t-20 4t-14 21q1 72 1.5 143t6.5 141q-28 -4 -56.5 -3.5t-38.5 12.5q-11 18 -10 28.5
t8 15.5t18 5.5t20 0t13 -1t-2 1.5l54 -2q6 46 13.5 92.5t29.5 90.5q23 46 52.5 81.5t83.5 57.5t141.5 28.5t226.5 -4.5q5 4 11 5q4 0 7 -0.5t7 -1.5q17 -1 24.5 -8.5t6 -16.5t-10 -17.5t-23.5 -11.5q-4 0 -7.5 -0.5t-7.5 -0.5t-8 2q-41 3 -68.5 6.5t-52 5.5t-52 2t-68.5 -3
q-1 -32 -2.5 -68.5t-2.5 -74t-1.5 -74t0.5 -67.5q28 -4 49.5 -5t40.5 0.5t37.5 6t40.5 11.5q18 5 28.5 -0.5t13 -16t-3.5 -22t-21 -18.5q-33 0 -53.5 1.5t-37.5 1.5t-37.5 -2.5t-53.5 -10.5q2 -39 4 -73t3.5 -67t3.5 -66.5t5 -72.5q85 -6 142.5 -4t97.5 13q17 0 27.5 1
t15.5 -0.5t5 -7.5t-3 -21q-8 -23 -40.5 -27t-79.5 -2.5t-102.5 3t-110.5 -10.5zM154 368q48 -1 100.5 4t107.5 13q-2 42 -2 84.5t0.5 80.5t1 68t-1.5 47q-46 5 -84 -21.5t-65.5 -70.5t-43 -98.5t-15.5 -106.5h2z" />
    <glyph glyph-name="Ccedilla" unicode="&#xc7;" horiz-adv-x="631" 
d="M602 533q1 -16 -6.5 -27.5t-18.5 -15.5t-22.5 1t-16.5 23q-23 59 -66 89.5t-92 40t-96 2t-79 -24.5q-43 -23 -74.5 -60t-51.5 -82t-28.5 -93.5t-5.5 -94.5q3 -47 19.5 -91t45.5 -78t69.5 -54.5t92.5 -21.5q4 0 29 -1.5t63 7.5t85 33t96 75q6 13 16 20.5t20 7.5t18 -7.5
t10 -23.5q-23 -48 -66.5 -79.5t-93.5 -50.5t-99.5 -26.5t-85.5 -6.5q-81 3 -136.5 45.5t-85 106t-34.5 140t14 149.5t60.5 133.5t105.5 92.5q51 26 107 35t111.5 -4.5t106 -51.5t89.5 -107zM255 7q-3 2 -5 4l-4 4q-2 3 1.5 9t12 9.5t22.5 2t34 -13.5q1 -17 -3 -34.5
t-9 -32.5q47 2 73 -8.5t34.5 -28t1.5 -38.5t-25.5 -39.5t-47.5 -31.5t-64 -14q-17 4 -23 15.5t-3 23t14 20.5t27 8q51 1 68.5 12.5t10.5 23t-33.5 17t-64.5 -3.5q-18 6 -18 26q6 31 6 64q0 -2 -0.5 -2.5t-0.5 -1.5q0 -2 -0.5 2.5t-1.5 6.5q0 1 -2 1z" />
    <glyph glyph-name="Egrave" unicode="&#xc8;" 
d="M52 -1q-12 3 -18 10t-6.5 15t3.5 17t11 15q3 21 3 63t-1.5 95t-4.5 111.5t-6.5 112.5t-7.5 98t-7 69q-14 4 -20 13.5t-4.5 20t9.5 20t21 13.5l21 -2q8 2 16 -2q89 -8 176.5 -6t180.5 11q5 4 11 5q4 0 7 -0.5t7 -1.5q17 -1 24.5 -10t6 -20t-10 -21t-23.5 -13
q-4 0 -7.5 -0.5t-7.5 -0.5t-8 2q-82 6 -171 5t-171 -8q-1 -32 -1.5 -52.5t-0.5 -38t1 -37.5t2 -51q28 -4 63.5 -5t71 0.5t68 6t54.5 11.5q18 5 28.5 -0.5t13 -16t-3.5 -22t-21 -18.5q-33 0 -67 1.5t-68.5 1.5t-68.5 -2.5t-67 -10.5q5 -78 10 -161t11 -161q42 -3 91 -4
t95.5 0t84.5 4t58 9q17 0 27.5 1t15.5 -0.5t5 -7.5t-3 -21q-5 -15 -28.5 -21.5t-58 -8t-78 0t-88.5 2.5t-89 -0.5t-80 -9.5zM136 859q-14 10 -16 23t4 23.5t18.5 15.5t27.5 -1q38 -34 83 -62.5t92 -58.5q16 -7 20 -19.5t-1 -23.5t-16.5 -18.5t-27.5 -3.5q-21 18 -42 37.5
t-43 36.5t-46.5 30.5t-52.5 20.5z" />
    <glyph glyph-name="Eacute" unicode="&#xc9;" 
d="M52 -1q36 8 80 9.5t89 0.5t88.5 -2.5t78 0t58 8t28.5 21.5q3 15 3 21t-5 7.5t-15.5 0.5t-27.5 -1q-20 -6 -58 -9t-84.5 -4t-95.5 0t-91 4q-6 78 -11 161t-10 161q33 8 67 10.5t68.5 2.5t68.5 -1.5t67 -1.5q15 7 21 18.5t3.5 22t-13 16t-28.5 0.5q-22 -7 -54.5 -11.5
t-68 -6t-71 -0.5t-63.5 5q-1 31 -2 51t-1 37.5t0.5 38t1.5 52.5q82 7 171 8t171 -5q4 -2 8 -2t7.5 0.5t7.5 0.5q15 3 23.5 13t10 21t-6 20t-24.5 10q-4 1 -7 1.5t-7 0.5q-6 -1 -11 -5q-93 -9 -180.5 -11t-176.5 6q-8 4 -16 2l-21 2q-13 -4 -21 -13.5t-9.5 -20t4.5 -20
t20 -13.5q3 -25 7 -69t7.5 -98t6.5 -112.5t4.5 -111.5t1.5 -95t-3 -63q-7 -6 -11 -15t-3.5 -17t6.5 -15t18 -10zM350 859q-29 -7 -53 -20.5t-46 -30.5t-43 -36.5t-42 -37.5q-16 -4 -27.5 3.5t-16.5 18.5t-1 23.5t20 19.5q47 30 92 58.5t83 62.5q15 6 27.5 1t18.5 -15.5
t4 -23.5t-16 -23z" />
    <glyph glyph-name="Ecircumflex" unicode="&#xca;" 
d="M52 -1q-12 3 -18 10t-6.5 15t3.5 17t11 15q3 21 3 63t-1.5 95t-4.5 111.5t-6.5 112.5t-7.5 98t-7 69q-14 4 -20 13.5t-4.5 20t9.5 20t21 13.5l21 -2q8 2 16 -2q89 -8 176.5 -6t180.5 11q5 4 11 5q4 0 7 -0.5t7 -1.5q17 -1 24.5 -10t6 -20t-10 -21t-23.5 -13
q-4 0 -7.5 -0.5t-7.5 -0.5t-8 2q-82 6 -171 5t-171 -8q-1 -32 -1.5 -52.5t-0.5 -38t1 -37.5t2 -51q28 -4 63.5 -5t71 0.5t68 6t54.5 11.5q18 5 28.5 -0.5t13 -16t-3.5 -22t-21 -18.5q-33 0 -67 1.5t-68.5 1.5t-68.5 -2.5t-67 -10.5q5 -78 10 -161t11 -161q42 -3 91 -4
t95.5 0t84.5 4t58 9q17 0 27.5 1t15.5 -0.5t5 -7.5t-3 -21q-5 -15 -28.5 -21.5t-58 -8t-78 0t-88.5 2.5t-89 -0.5t-80 -9.5zM101 731q-16 -2 -25 4.5t-11 17t2.5 22t16.5 19.5q62 80 103 108.5t73.5 19t64 -50t75.5 -97.5l-2 -3q-8 -13 -18 -19t-26 -2q-16 13 -27.5 32
t-23.5 38.5t-25.5 37t-33.5 27.5q-20 -16 -37 -36.5t-33.5 -42t-34 -41t-38.5 -34.5z" />
    <glyph glyph-name="Edieresis" unicode="&#xcb;" 
d="M52 -1q-12 3 -18 10t-6.5 15t3.5 17t11 15q3 21 3 63t-1.5 95t-4.5 111.5t-6.5 112.5t-7.5 98t-7 69q-14 4 -20 13.5t-4.5 20t9.5 20t21 13.5l21 -2q8 2 16 -2q89 -8 176.5 -6t180.5 11q5 4 11 5q4 0 7 -0.5t7 -1.5q17 -1 24.5 -10t6 -20t-10 -21t-23.5 -13
q-4 0 -7.5 -0.5t-7.5 -0.5t-8 2q-82 6 -171 5t-171 -8q-1 -32 -1.5 -52.5t-0.5 -38t1 -37.5t2 -51q28 -4 63.5 -5t71 0.5t68 6t54.5 11.5q18 5 28.5 -0.5t13 -16t-3.5 -22t-21 -18.5q-33 0 -67 1.5t-68.5 1.5t-68.5 -2.5t-67 -10.5q5 -78 10 -161t11 -161q42 -3 91 -4
t95.5 0t84.5 4t58 9q17 0 27.5 1t15.5 -0.5t5 -7.5t-3 -21q-5 -15 -28.5 -21.5t-58 -8t-78 0t-88.5 2.5t-89 -0.5t-80 -9.5zM200 842q-3 -14 -12 -22.5t-19 -10.5t-20 4t-14 21v5q1 16 10.5 26.5t21 12.5t21.5 -5.5t12 -25.5v-5zM373 841q-3 -14 -12 -22.5t-19 -10.5t-20 4
t-14 21v5q1 16 10.5 26.5t21 12.5t21.5 -5.5t12 -25.5v-5z" />
    <glyph glyph-name="Igrave" unicode="&#xcc;" horiz-adv-x="440" 
d="M29 15q-15 4 -21.5 13.5t-5 20t9.5 20t21 13.5q34 -3 56 -5.5t39 -4t32.5 -2.5t35.5 -1q-1 7 2 17q0 6 2 20.5t4.5 31t5 31t3.5 20.5q7 61 8.5 114t-1 105t-7.5 106t-11 118q-37 -5 -76 -10.5t-81 -11.5q-15 4 -21.5 13.5t-5 20t9.5 20t21 13.5q25 -9 57 -9.5t68 5
t74.5 14t76.5 16.5q6 4 10 5h3q16 -1 23.5 -9t8 -18.5t-6 -21t-18.5 -16.5h-11v-2h-3q-2 0 -3 0.5t-2 0.5q-30 0 -61 -3q-6 -72 -5.5 -143t1.5 -142t1.5 -142t-5.5 -142q5 0 27.5 3t47.5 6t45.5 5.5l20.5 2.5q10 3 15.5 -6t5 -22t-8 -25t-23.5 -13h-3h-2q-90 11 -176 7
t-177 -13zM108 859q-14 10 -16 23t4 23.5t18.5 15.5t27.5 -1q38 -34 83 -62.5t92 -58.5q16 -7 20 -19.5t-1 -23.5t-16.5 -18.5t-27.5 -3.5q-21 18 -42 37.5t-43 36.5t-46.5 30.5t-52.5 20.5z" />
    <glyph glyph-name="Iacute" unicode="&#xcd;" horiz-adv-x="440" 
d="M29 15q91 9 177 13t176 -7h2h3q16 1 23.5 13t8 25t-5 22t-15.5 6l-20.5 -2.5t-45.5 -5.5t-47.5 -6t-27.5 -3q6 71 5.5 142t-1.5 142t-1.5 142t5.5 143q31 3 61 3q1 0 2 -0.5t3 -0.5h3v2h11q12 6 18.5 16.5t6 21t-8 18.5t-23.5 9h-3q-4 -1 -10 -5q-38 -8 -76.5 -16.5
t-74.5 -14t-68 -5t-57 9.5q-13 -4 -21 -13.5t-9.5 -20t5 -20t21.5 -13.5q42 6 81 11.5t76 10.5q6 -64 11 -118t7.5 -106t1 -105t-8.5 -114q-1 -6 -3.5 -20.5t-5 -31t-4.5 -31t-2 -20.5q-3 -10 -2 -17q-20 0 -35.5 1t-32.5 2.5t-39 4t-56 5.5q-13 -4 -21 -13.5t-9.5 -20
t5 -20t21.5 -13.5zM322 859q-29 -7 -53 -20.5t-46 -30.5t-43 -36.5t-42 -37.5q-16 -4 -27.5 3.5t-16.5 18.5t-1 23.5t20 19.5q47 30 92 58.5t83 62.5q15 6 27.5 1t18.5 -15.5t4 -23.5t-16 -23z" />
    <glyph glyph-name="Icircumflex" unicode="&#xce;" horiz-adv-x="440" 
d="M29 15q-15 4 -21.5 13.5t-5 20t9.5 20t21 13.5q34 -3 56 -5.5t39 -4t32.5 -2.5t35.5 -1q-1 7 2 17q0 6 2 20.5t4.5 31t5 31t3.5 20.5q7 61 8.5 114t-1 105t-7.5 106t-11 118q-37 -5 -76 -10.5t-81 -11.5q-15 4 -21.5 13.5t-5 20t9.5 20t21 13.5q25 -9 57 -9.5t68 5
t74.5 14t76.5 16.5q6 4 10 5h3q16 -1 23.5 -9t8 -18.5t-6 -21t-18.5 -16.5h-11v-2h-3q-2 0 -3 0.5t-2 0.5q-30 0 -61 -3q-6 -72 -5.5 -143t1.5 -142t1.5 -142t-5.5 -142q5 0 27.5 3t47.5 6t45.5 5.5l20.5 2.5q10 3 15.5 -6t5 -22t-8 -25t-23.5 -13h-3h-2q-90 11 -176 7
t-177 -13zM72 731q-16 -2 -25 4.5t-11 17t2.5 22t16.5 19.5q62 80 103 108.5t73.5 19t64 -50t75.5 -97.5l-2 -3q-8 -13 -18 -19t-26 -2q-16 13 -27.5 32t-23.5 38.5t-25.5 37t-33.5 27.5q-20 -16 -37 -36.5t-33.5 -42t-34 -41t-38.5 -34.5z" />
    <glyph glyph-name="Idieresis" unicode="&#xcf;" horiz-adv-x="440" 
d="M29 15q-15 4 -21.5 13.5t-5 20t9.5 20t21 13.5q34 -3 56 -5.5t39 -4t32.5 -2.5t35.5 -1q-1 7 2 17q0 6 2 20.5t4.5 31t5 31t3.5 20.5q7 61 8.5 114t-1 105t-7.5 106t-11 118q-37 -5 -76 -10.5t-81 -11.5q-15 4 -21.5 13.5t-5 20t9.5 20t21 13.5q25 -9 57 -9.5t68 5
t74.5 14t76.5 16.5q6 4 10 5h3q16 -1 23.5 -9t8 -18.5t-6 -21t-18.5 -16.5h-11v-2h-3q-2 0 -3 0.5t-2 0.5q-30 0 -61 -3q-6 -72 -5.5 -143t1.5 -142t1.5 -142t-5.5 -142q5 0 27.5 3t47.5 6t45.5 5.5l20.5 2.5q10 3 15.5 -6t5 -22t-8 -25t-23.5 -13h-3h-2q-90 11 -176 7
t-177 -13zM146 842q-3 -14 -12 -22.5t-19 -10.5t-20 4t-14 21v5q1 16 10.5 26.5t21 12.5t21.5 -5.5t12 -25.5v-5zM319 841q-3 -14 -12 -22.5t-19 -10.5t-20 4t-14 21v5q1 16 10.5 26.5t21 12.5t21.5 -5.5t12 -25.5v-5z" />
    <glyph glyph-name="Eth" unicode="&#xd0;" horiz-adv-x="570" 
d="M-70 271q-15 4 -21.5 13.5t-5 20t9.5 20t21 13.5q25 -2 49.5 -2.5t49.5 1.5q-6 57 -13 124.5t-15 151.5q-3 7 -1 18q-1 8 -1.5 15.5t-0.5 15.5q1 16 9 25t18.5 11t21 -2t16.5 -13q2 -2 0.5 -4t-1.5 -4q61 0 110 -2.5t95 -14t92.5 -35t101.5 -65.5q31 -23 50.5 -58
t28.5 -76t7 -85t-14 -84.5t-34.5 -74.5t-54.5 -55q-19 -13 -37 -27t-40 -22q-35 -12 -79 -25t-89.5 -22.5t-90.5 -15t-83 -2.5q-15 5 -21 14t-6 24q1 5 1 13q6 15 18.5 22t23.5 5q2 46 0 95.5t-8 108.5q-26 -7 -52.5 -12.5t-54.5 -9.5zM88 243q7 -42 11.5 -83.5t7.5 -83.5
q40 1 86 7.5t90.5 17.5t82 25.5t60.5 32.5q43 34 66 82t24.5 98.5t-18 99t-61.5 85.5q-40 36 -85 55t-93 27t-98 7.5t-99 -3.5q0 -22 1 -53t3 -66.5t4.5 -74t5.5 -76.5q30 3 60 9q51 10 100.5 23t101.5 21q18 -1 26 -10.5t6.5 -21.5t-11 -22.5t-25.5 -12.5q-49 2 -97.5 1
t-97.5 -11l-59 -13q2 -16 4 -31t4 -29z" />
    <glyph glyph-name="Ntilde" unicode="&#xd1;" horiz-adv-x="558" 
d="M100 37q0 -8 -6 -15t-14.5 -9t-16.5 1.5t-12 16.5q-1 1 -1 3v1q1 40 -5 105.5t-15 140t-18 150.5t-13 135.5t-0.5 95t19.5 30.5q14 7 22 -8t12 -43t5 -64.5t1.5 -73.5t1 -69t3.5 -51q3 24 7 53t10.5 58.5t16.5 56t24 46.5q24 33 58.5 55.5t73.5 32.5t79 6.5t74 -22.5
q32 -13 57 -60.5t42 -113t26 -141.5t10.5 -145.5t-5.5 -125t-22 -80.5q-13 -22 -25.5 -20t-17.5 28l-3 7q10 27 16.5 73t8.5 101t-1.5 115.5t-13 117t-25.5 105t-40 80.5q-27 32 -64.5 40.5t-76 -1.5t-73.5 -35t-57 -59q-22 -35 -35 -79.5t-18.5 -105.5t-2.5 -142.5
t14 -190.5zM164 800q-9 -15 -22 -19.5t-23.5 0t-15 16t2.5 28.5q8 14 23.5 34t34.5 34.5t40 18t40 -14.5q12 -11 21 -25t17.5 -28.5t18.5 -27t24 -20.5q15 4 21 17t7.5 27.5t0 26t-1.5 12.5q1 16 10.5 26.5t21 12.5t21.5 -5.5t12 -25.5q-1 -16 -5.5 -36.5t-13 -39.5
t-21.5 -34t-32 -20q-4 -1 -16 -3.5t-18 0.5q-14 8 -27 25t-25 35t-23 32t-23 16.5t-24 -11t-25 -51.5z" />
    <glyph glyph-name="Ograve" unicode="&#xd2;" horiz-adv-x="567" 
d="M514 108q-21 -36 -55 -60.5t-75.5 -37.5t-86.5 -14.5t-87.5 8t-80 30.5t-62.5 53q-38 48 -54.5 109t-14 126t22.5 128t55.5 115.5t85 89t110.5 47.5q46 8 84.5 -7t70 -46t55.5 -75.5t40 -95t24 -103.5t7 -103t-10.5 -92.5t-28.5 -71.5zM128 101q31 -28 80 -39.5
t100.5 -7.5t97.5 23t72 51q24 32 32 85.5t1.5 114t-26.5 121.5t-52 107.5t-74.5 71.5t-94.5 15q-58 -11 -102.5 -45t-73.5 -81.5t-42 -104.5t-8.5 -113.5t26.5 -108.5t64 -89zM168 859q-14 10 -16 23t4 23.5t18.5 15.5t27.5 -1q38 -34 82.5 -62.5t92.5 -58.5q16 -7 20 -19.5
t-1 -24t-17 -18.5t-27 -3q-21 18 -42 37.5t-43 36.5t-46.5 30.5t-52.5 20.5z" />
    <glyph glyph-name="Oacute" unicode="&#xd3;" horiz-adv-x="567" 
d="M514 108q-21 -36 -55 -60.5t-75.5 -37.5t-86.5 -14.5t-87.5 8t-80 30.5t-62.5 53q-38 48 -54.5 109t-14 126t22.5 128t55.5 115.5t85 89t110.5 47.5q46 8 84.5 -7t70 -46t55.5 -75.5t40 -95t24 -103.5t7 -103t-10.5 -92.5t-28.5 -71.5zM128 101q31 -28 80 -39.5
t100.5 -7.5t97.5 23t72 51q24 32 32 85.5t1.5 114t-26.5 121.5t-52 107.5t-74.5 71.5t-94.5 15q-59 -11 -103 -45t-73 -81.5t-42 -104.5t-8.5 -113.5t26.5 -108.5t64 -89zM382 859q-29 -7 -53 -20.5t-46 -30.5t-43 -36.5t-42 -37.5q-15 -4 -27 3t-17 18.5t-1 24t20 19.5
q48 30 92.5 58.5t82.5 62.5q15 6 27.5 1t18.5 -15.5t4 -23.5t-16 -23z" />
    <glyph glyph-name="Ocircumflex" unicode="&#xd4;" horiz-adv-x="567" 
d="M514 108q-21 -36 -55 -60.5t-75.5 -37.5t-86.5 -14.5t-87.5 8t-80 30.5t-62.5 53q-38 48 -54.5 109t-14 126t22.5 128t55.5 115.5t85 89t110.5 47.5q46 8 84.5 -7t70 -46t55.5 -75.5t40 -95t24 -103.5t7 -103t-10.5 -92.5t-28.5 -71.5zM128 101q31 -28 80 -39.5
t100.5 -7.5t97.5 23t72 51q24 32 32 85.5t1.5 114t-26.5 121.5t-52 107.5t-74.5 71.5t-94.5 15q-58 -11 -102.5 -45t-73.5 -81.5t-42 -104.5t-8.5 -113.5t26.5 -108.5t64 -89zM151 731q-16 -2 -25 4.5t-11.5 17t2.5 22t17 19.5q62 80 103 108.5t73.5 19t64 -50t75.5 -97.5
l-2 -3q-8 -13 -18 -19t-26 -2q-16 13 -27.5 32t-23.5 38.5t-25.5 37t-33.5 27.5q-20 -16 -37 -36.5t-33.5 -41.5t-34 -41t-38.5 -35z" />
    <glyph glyph-name="Otilde" unicode="&#xd5;" horiz-adv-x="567" 
d="M514 108q-21 -36 -55 -60.5t-75.5 -37.5t-86.5 -14.5t-87.5 8t-80 30.5t-62.5 53q-38 48 -54.5 109t-14 126t22.5 128t55.5 115.5t85 89t110.5 47.5q46 8 84.5 -7t70 -46t55.5 -75.5t40 -95t24 -103.5t7 -103t-10.5 -92.5t-28.5 -71.5zM128 101q31 -28 80 -39.5
t100.5 -7.5t97.5 23t72 51q24 32 32 85.5t1.5 114t-26.5 121.5t-52 107.5t-74.5 71.5t-94.5 15q-58 -11 -102.5 -45t-73.5 -81.5t-42 -104.5t-8.5 -113.5t26.5 -108.5t64 -89zM172 800q-9 -15 -22 -19.5t-23.5 0t-15 16t2.5 28.5q8 14 23.5 34t34.5 34.5t40 18t40 -14.5
q12 -11 21 -25t17.5 -28.5t18.5 -27t24 -20.5q15 4 21 17t7.5 27.5t0 26t-1.5 12.5q1 16 10.5 26.5t21 12.5t21.5 -5.5t12 -25.5q-1 -16 -5.5 -36.5t-13 -39.5t-21.5 -34t-32 -20q-4 -1 -16 -3.5t-18 0.5q-14 8 -27 25t-25 35t-23 32t-23 16.5t-24 -11t-25 -51.5z" />
    <glyph glyph-name="Odieresis" unicode="&#xd6;" horiz-adv-x="567" 
d="M514 108q-21 -36 -55 -60.5t-75.5 -37.5t-86.5 -14.5t-87.5 8t-80 30.5t-62.5 53q-38 48 -54.5 109t-14 126t22.5 128t55.5 115.5t85 89t110.5 47.5q46 8 84.5 -7t70 -46t55.5 -75.5t40 -95t24 -103.5t7 -103t-10.5 -92.5t-28.5 -71.5zM128 101q31 -28 80 -39.5
t100.5 -7.5t97.5 23t72 51q24 32 32 85.5t1.5 114t-26.5 121.5t-52 107.5t-74.5 71.5t-94.5 15q-58 -11 -102.5 -45t-73.5 -81.5t-42 -104.5t-8.5 -113.5t26.5 -108.5t64 -89zM206 842q-3 -14 -12 -22.5t-19.5 -10.5t-20 4t-13.5 21v5q1 16 10.5 26.5t21 12.5t21.5 -5.5
t12 -25.5v-5zM379 841q-3 -14 -12 -22.5t-19.5 -10.5t-20 4t-13.5 21v5q1 16 10.5 26.5t21 12.5t21.5 -5.5t12 -25.5v-5z" />
    <glyph glyph-name="multiply" unicode="&#xd7;" horiz-adv-x="312" 
d="M216 470q13 9 24.5 8.5t18 -8t8 -19.5t-5.5 -25q-22 -17 -45 -33t-46 -33q27 -23 55.5 -42t59.5 -36q12 -12 11.5 -25.5t-8 -23.5t-20 -13t-26.5 7q-22 23 -47 52.5t-53 56.5l-1 -1q-28 -27 -42 -42.5t-20 -23.5t-6.5 -11t-1 -4t-4.5 -3l-16 -8q-14 -2 -22.5 2.5
t-12 12.5t-2.5 17.5t6 17.5q-5 -3 -8.5 -4t-0.5 1q29 21 54 37.5t48 33.5q-22 18 -45.5 31.5t-47.5 18.5q-12 9 -15 20.5t1 22t14 17t25 5.5q31 -17 52.5 -42t45.5 -50q20 17 37.5 37.5t35.5 48.5z" />
    <glyph glyph-name="Oslash" unicode="&#xd8;" horiz-adv-x="567" 
d="M409 765q7 15 19.5 21t24 3.5t18 -12.5t1.5 -28l-44 -103q31 -32 55 -76t40 -94t23.5 -103t7 -102t-10.5 -91.5t-29 -71.5q-22 -38 -58.5 -63t-80 -37t-91 -12t-91.5 12q-8 -22 -14.5 -43.5t-13.5 -42.5q-8 -12 -19.5 -17t-21.5 -3t-17 11t-6 25l39 91q-46 22 -73 58
q-38 48 -54.5 109t-14 126t22.5 128t55.5 115.5t85 89t110.5 47.5q61 10 110 -19zM128 101q6 -6 14 -11.5t18 -10.5q54 132 106 271.5t97 274.5q-23 13 -47.5 18t-51.5 0q-58 -11 -102.5 -45t-73.5 -81.5t-42 -104.5t-8.5 -113.5t26.5 -108.5t64 -89zM478 128q18 23 27 58.5
t10 77.5t-6 87.5t-21.5 89t-35 82t-47.5 66.5q-51 -129 -100 -264t-94 -264q35 -8 74 -7.5t76 9t67.5 25t49.5 40.5z" />
    <glyph glyph-name="Ugrave" unicode="&#xd9;" horiz-adv-x="514" 
d="M8 659q1 16 9.5 25.5t19 10.5t19.5 -7t11 -26q-1 -24 -4.5 -64t-7.5 -88t-6.5 -99.5t-2.5 -99t3 -87.5t12 -63q24 -64 63.5 -97.5t84.5 -40.5t90.5 11.5t81 58.5t56.5 99.5t18 135.5q0 2 -2 27t-5 61.5t-7 78.5t-7 78l-5 60l-2 24q-4 12 -2.5 22.5t7 15.5t14 4.5
t19.5 -10.5l-3 4l6 -6q-2 0 -2 2q6 -7 11 -36t8.5 -68.5t5.5 -85t3 -86t1.5 -72t0.5 -42.5q-1 -64 -18 -122t-51 -101.5t-84 -67.5t-117 -21q-63 3 -104 27t-66 62.5t-36.5 89.5t-13.5 109q-1 15 -1 45t0.5 68t1 79.5t0.5 79.5t0.5 67.5t0.5 44.5zM462 693l-1 1zM135 859
q-14 10 -16 23t4 23.5t18.5 15.5t27.5 -1q38 -34 83 -62.5t92 -58.5q16 -7 20 -19.5t-1 -23.5t-16.5 -18.5t-27.5 -3.5q-21 18 -42 37.5t-43 36.5t-46.5 30.5t-52.5 20.5z" />
    <glyph glyph-name="Uacute" unicode="&#xda;" horiz-adv-x="514" 
d="M8 659q0 -15 -0.5 -44.5t-0.5 -67.5t-0.5 -79.5t-1 -79.5t-0.5 -68t1 -45q2 -58 13.5 -109t36.5 -89.5t66 -62.5t104 -27q67 -3 117 21t84 67.5t51 101.5t18 122q0 11 -0.5 42.5t-1.5 72t-3 86t-5.5 85t-8.5 68.5t-11 36q0 -2 2 -2l-6 6l3 -4q-11 10 -19.5 10.5t-14 -4.5
t-7 -15.5t2.5 -22.5l2 -24l5 -60t7 -78t7 -78.5t5 -61.5t2 -27q3 -76 -18 -135.5t-56.5 -99.5t-81 -58.5t-90.5 -11.5t-84.5 40.5t-63.5 97.5q-9 23 -12 63t-3 87.5t2.5 99t6.5 99.5t7.5 88t4.5 64q-2 18 -11 26t-19.5 7t-19 -10.5t-9.5 -25.5zM461 694l1 -1zM374 859
q-29 -7 -53 -20.5t-46 -30.5t-43 -36.5t-42 -37.5q-16 -4 -27.5 3.5t-16.5 18.5t-1 23.5t20 19.5q47 30 92 58.5t83 62.5q15 6 27.5 1t18.5 -15.5t4 -23.5t-16 -23z" />
    <glyph glyph-name="Ucircumflex" unicode="&#xdb;" horiz-adv-x="514" 
d="M8 659q1 16 9.5 25.5t19 10.5t19.5 -7t11 -26q-1 -24 -4.5 -64t-7.5 -88t-6.5 -99.5t-2.5 -99t3 -87.5t12 -63q24 -64 63.5 -97.5t84.5 -40.5t90.5 11.5t81 58.5t56.5 99.5t18 135.5q0 2 -2 27t-5 61.5t-7 78.5t-7 78l-5 60l-2 24q-4 12 -2.5 22.5t7 15.5t14 4.5
t19.5 -10.5l-3 4l6 -6q-2 0 -2 2q6 -7 11 -36t8.5 -68.5t5.5 -85t3 -86t1.5 -72t0.5 -42.5q-1 -64 -18 -122t-51 -101.5t-84 -67.5t-117 -21q-63 3 -104 27t-66 62.5t-36.5 89.5t-13.5 109q-1 15 -1 45t0.5 68t1 79.5t0.5 79.5t0.5 67.5t0.5 44.5zM462 693l-1 1zM117 731
q-16 -2 -25 4.5t-11 17t2.5 22t16.5 19.5q62 80 103 108.5t73.5 19t64 -50t75.5 -97.5l-2 -3q-8 -13 -18 -19t-26 -2q-16 13 -27.5 32t-23.5 38.5t-25.5 37t-33.5 27.5q-20 -16 -37 -36.5t-33.5 -42t-34 -41t-38.5 -34.5z" />
    <glyph glyph-name="Udieresis" unicode="&#xdc;" horiz-adv-x="514" 
d="M8 659q1 16 9.5 25.5t19 10.5t19.5 -7t11 -26q-1 -24 -4.5 -64t-7.5 -88t-6.5 -99.5t-2.5 -99t3 -87.5t12 -63q24 -64 63.5 -97.5t84.5 -40.5t90.5 11.5t81 58.5t56.5 99.5t18 135.5q0 2 -2 27t-5 61.5t-7 78.5t-7 78l-5 60l-2 24q-4 12 -2.5 22.5t7 15.5t14 4.5
t19.5 -10.5l-3 4l6 -6q-2 0 -2 2q6 -7 11 -36t8.5 -68.5t5.5 -85t3 -86t1.5 -72t0.5 -42.5q-1 -64 -18 -122t-51 -101.5t-84 -67.5t-117 -21q-63 3 -104 27t-66 62.5t-36.5 89.5t-13.5 109q-1 15 -1 45t0.5 68t1 79.5t0.5 79.5t0.5 67.5t0.5 44.5zM462 693l-1 1zM183 842
q-3 -14 -12 -22.5t-19 -10.5t-20 4t-14 21v5q1 16 10.5 26.5t21 12.5t21.5 -5.5t12 -25.5v-5zM356 841q-3 -14 -12 -22.5t-19 -10.5t-20 4t-14 21v5q1 16 10.5 26.5t21 12.5t21.5 -5.5t12 -25.5v-5z" />
    <glyph glyph-name="Yacute" unicode="&#xdd;" 
d="M57 671q-2 -25 -8.5 -64.5t-14 -87.5t-14 -100.5t-9.5 -103.5t-1 -97t13 -80q12 -37 38 -57.5t60.5 -27t74.5 0t80.5 22.5t78.5 41t67 56q0 -14 0.5 -36t0 -45.5t-1.5 -45t-4 -34.5q-9 -44 -32 -70.5t-52.5 -40.5t-61.5 -18t-60 -2.5t-48 6.5t-25 8q-14 6 -25.5 2.5
t-18 -12.5t-7 -21t7.5 -24q34 -11 73.5 -16t79 -2t77 15t67 34.5t49 56.5t23.5 81q2 29 5 80.5t5 113.5t2.5 129.5t-1 129t-6.5 112t-14 78.5q-9 10 -18.5 6t-14.5 -15q-2 -10 -3 -38t-1 -66t0.5 -82t1 -87t1 -81.5t0.5 -63.5q-6 -11 -14.5 -20.5t-22.5 -21.5
q-33 -27 -78 -50t-89.5 -30.5t-84 5.5t-62.5 58q-13 33 -14.5 78t3.5 94.5t14.5 100.5t19 95.5t18 79.5t10.5 54q-2 16 -10 23.5t-18 7.5t-20 -7.5t-16 -20.5zM388 859q-29 -7 -53 -20.5t-46 -30.5t-43 -36.5t-42 -37.5q-16 -4 -27.5 3.5t-16.5 18.5t-1 23.5t20 19.5
q47 30 92 58.5t83 62.5q15 6 27.5 1t18.5 -15.5t4 -23.5t-16 -23z" />
    <glyph glyph-name="Thorn" unicode="&#xde;" 
d="M21 781q1 16 10.5 26.5t21 12.5t21.5 -5.5t12 -25.5q-5 -124 -3 -269q34 15 78 16t88.5 -6.5t85 -22t67.5 -30.5q53 -43 61 -83.5t-14 -76.5t-66.5 -65t-96.5 -48.5t-104 -28.5t-89 -3l15 -292q-3 -14 -12 -22.5t-19 -10.5t-20 4t-14 21q4 100 3.5 217.5t-4 238t-9.5 237
t-12 216.5zM90 246q12 -2 18 -9q28 -5 58 -4.5t58.5 5t55 13t47.5 19.5q29 15 52 36t31.5 44.5t-2 47t-48.5 44.5q-23 13 -45 20.5t-43.5 11t-45 4t-49.5 -0.5q-10 0 -22.5 -2.5t-25 -5.5t-23.5 -7.5t-17 -9.5q-2 -1 -5 -1z" />
    <glyph glyph-name="germandbls" unicode="&#xdf;" horiz-adv-x="619" 
d="M77 -6q-6 -28 -23 -29t-26 30q3 53 1 115t-2.5 126.5t5.5 128.5t24.5 122t54 106.5t95.5 81.5q42 23 78.5 20.5t64.5 -23.5t45.5 -55.5t21.5 -75.5t-7.5 -85t-41.5 -82q22 2 46 2t47 -3.5t44 -12.5t38 -26q46 -43 53.5 -93t-12.5 -96.5t-60.5 -84.5t-90 -58.5
t-101.5 -17.5t-95 38q-4 13 0.5 25t13.5 18.5t20.5 6t22.5 -11.5q50 -23 91.5 -21t73 19.5t51.5 47t27 63t-0.5 66.5t-31 57t-64.5 36t-102 3l-14 -3q-2 0 -3 -0.5t-2 -0.5q-17 -2 -20.5 10.5t4.5 23.5q39 67 52 119t6.5 87t-28 53t-51 18.5t-63 -17.5t-63 -55.5t-52 -94.5
t-30.5 -134q-8 -85 -3.5 -171t6.5 -172z" />
    <glyph glyph-name="agrave" unicode="&#xe0;" 
d="M96 450q34 26 74 37t78 5.5t70 -28t50 -64.5l-12 98q1 9 6 16t11.5 10t13.5 0.5t12 -11.5h1v-3q14 -54 25 -110.5t9 -113.5q8 -66 13 -132t9 -132l3 -12q0 -3 -0.5 -6t-0.5 -6v-5h-1q-4 -12 -13 -19.5t-19 -9t-19 4.5t-12 21l-6 150l-3 -5q-18 -25 -47.5 -43.5t-65 -29
t-73.5 -12t-73 7t-63 28t-43 51.5q-20 41 -27 82t1.5 81t33 77.5t68.5 72.5zM384 199q-2 32 -3.5 53t-2.5 34.5t-3 20.5t-5 10q0 22 -19.5 48t-49.5 45t-65.5 27t-66.5 -4q-35 -11 -63.5 -42t-45 -70.5t-18.5 -82.5t17 -79q8 -14 19.5 -25t23.5 -21q29 -24 72.5 -27t86 10
t77 40t46.5 63zM115 714q-14 10 -16 23t4 23.5t18.5 15.5t27.5 -1q38 -34 83 -62.5t92 -58.5q16 -7 20 -19.5t-1 -23.5t-16.5 -18.5t-27.5 -3.5q-21 18 -42 37.5t-43 36.5t-46.5 30.5t-52.5 20.5z" />
    <glyph glyph-name="aacute" unicode="&#xe1;" 
d="M96 450q-44 -35 -68.5 -72.5t-33 -77.5t-1.5 -81t27 -82q15 -32 43 -51.5t63 -28t73 -7t73.5 12t65 29t47.5 43.5l3 5l6 -150q3 -15 12 -21t19 -4.5t19 9t13 19.5h1v5q0 3 0.5 6t0.5 6l-3 12q-4 66 -9 132t-13 132q2 57 -9 113.5t-25 110.5v3h-1q-5 9 -12 11.5
t-13.5 -0.5t-11.5 -10t-6 -16l12 -98q-18 42 -50 64.5t-70 28t-78 -5.5t-74 -37zM384 199q-12 -36 -46.5 -63t-77 -40t-86 -10t-72.5 27q-12 10 -23.5 21t-19.5 25q-19 36 -17 79t18.5 82.5t45 70.5t63.5 42q31 12 66.5 4t65.5 -27t49.5 -45t19.5 -48q3 -3 5 -10t3 -20.5
t2.5 -34.5t3.5 -53zM329 714q-29 -7 -53 -20.5t-46 -30.5t-43 -36.5t-42 -37.5q-16 -4 -27.5 3.5t-16.5 18.5t-1 23.5t20 19.5q47 30 92 58.5t83 62.5q15 6 27.5 1t18.5 -15.5t4 -23.5t-16 -23z" />
    <glyph glyph-name="acircumflex" unicode="&#xe2;" 
d="M96 450q34 26 74 37t78 5.5t70 -28t50 -64.5l-12 98q1 9 6 16t11.5 10t13.5 0.5t12 -11.5h1v-3q14 -54 25 -110.5t9 -113.5q8 -66 13 -132t9 -132l3 -12q0 -3 -0.5 -6t-0.5 -6v-5h-1q-4 -12 -13 -19.5t-19 -9t-19 4.5t-12 21l-6 150l-3 -5q-18 -25 -47.5 -43.5t-65 -29
t-73.5 -12t-73 7t-63 28t-43 51.5q-20 41 -27 82t1.5 81t33 77.5t68.5 72.5zM384 199q-2 32 -3.5 53t-2.5 34.5t-3 20.5t-5 10q0 22 -19.5 48t-49.5 45t-65.5 27t-66.5 -4q-35 -11 -63.5 -42t-45 -70.5t-18.5 -82.5t17 -79q8 -14 19.5 -25t23.5 -21q29 -24 72.5 -27t86 10
t77 40t46.5 63zM94 604q-16 -2 -25 4.5t-11 17t2.5 22t16.5 19.5q62 80 103 108.5t73.5 19t64 -50t75.5 -97.5l-2 -3q-8 -13 -18 -19t-26 -2q-16 13 -27.5 32t-23.5 38.5t-25.5 37t-33.5 27.5q-20 -16 -37 -36.5t-33.5 -42t-34 -41t-38.5 -34.5z" />
    <glyph glyph-name="atilde" unicode="&#xe3;" 
d="M96 450q34 26 74 37t78 5.5t70 -28t50 -64.5l-12 98q1 9 6 16t11.5 10t13.5 0.5t12 -11.5h1v-3q14 -54 25 -110.5t9 -113.5q8 -66 13 -132t9 -132l3 -12q0 -3 -0.5 -6t-0.5 -6v-5h-1q-4 -12 -13 -19.5t-19 -9t-19 4.5t-12 21l-6 150l-3 -5q-18 -25 -47.5 -43.5t-65 -29
t-73.5 -12t-73 7t-63 28t-43 51.5q-20 41 -27 82t1.5 81t33 77.5t68.5 72.5zM384 199q-4 63 -6 87.5t-8 30.5q0 22 -19.5 47.5t-49.5 45t-65.5 27.5t-66.5 -4q-35 -11 -63.5 -42t-45 -70.5t-18.5 -82.5t17 -79q8 -14 19.5 -25t23.5 -21q29 -24 72.5 -27.5t86 10t77 40.5
t46.5 63zM125 642q-9 -15 -22 -19.5t-23.5 0t-15 16t2.5 28.5q8 14 23.5 34t34.5 34.5t40 18t40 -14.5q12 -11 21 -25t17.5 -28.5t18.5 -27t24 -20.5q15 4 21 17t7.5 27.5t0 26t-1.5 12.5q1 16 10.5 26.5t21 12.5t21.5 -5.5t12 -25.5q-1 -16 -5.5 -36.5t-13 -39.5t-21.5 -34
t-32 -20q-4 -1 -16 -3.5t-18 0.5q-14 8 -27 25.5t-25 35t-23 31.5t-23 16.5t-24 -11.5t-25 -51z" />
    <glyph glyph-name="adieresis" unicode="&#xe4;" 
d="M96 450q34 26 74 37t78 5.5t70 -28t50 -64.5l-12 98q1 9 6 16t11.5 10t13.5 0.5t12 -11.5h1v-3q14 -54 25 -110.5t9 -113.5q8 -66 13 -132t9 -132l3 -12q0 -3 -0.5 -6t-0.5 -6v-5h-1q-4 -12 -13 -19.5t-19 -9t-19 4.5t-12 21l-6 150l-3 -5q-18 -25 -47.5 -43.5t-65 -29
t-73.5 -12t-73 7t-63 28t-43 51.5q-20 41 -27 82t1.5 81t33 77.5t68.5 72.5zM384 199q-2 32 -3.5 53t-2.5 34.5t-3 20.5t-5 10q0 22 -19.5 48t-49.5 45t-65.5 27t-66.5 -4q-35 -11 -63.5 -42t-45 -70.5t-18.5 -82.5t17 -79q8 -14 19.5 -25t23.5 -21q29 -24 72.5 -27t86 10
t77 40t46.5 63zM157 664q-3 -14 -12 -22.5t-19 -10.5t-20 4t-14 21v5q1 16 10.5 26.5t21 12.5t21.5 -5.5t12 -25.5v-5zM330 663q-3 -14 -12 -22.5t-19 -10.5t-20 4t-14 21v5q1 16 10.5 26.5t21 12.5t21.5 -5.5t12 -25.5v-5z" />
    <glyph glyph-name="aring" unicode="&#xe5;" 
d="M96 450q34 26 74 37t78 5.5t70 -28t50 -64.5l-12 98q1 9 6 16t11.5 10t13.5 0.5t12 -11.5h1v-3q14 -54 25 -110.5t9 -113.5q8 -66 13 -132t9 -132l3 -12q0 -3 -0.5 -6t-0.5 -6v-5h-1q-4 -12 -13 -19.5t-19 -9t-19 4.5t-12 21l-6 150l-3 -5q-18 -25 -47.5 -43.5t-65 -29
t-73.5 -12t-73 7t-63 28t-43 51.5q-20 41 -27 82t1.5 81t33 77.5t68.5 72.5zM384 199q-2 32 -3.5 53t-2.5 34.5t-3 20.5t-5 10q0 22 -19.5 48t-49.5 45t-65.5 27t-66.5 -4q-35 -11 -63.5 -42t-45 -70.5t-18.5 -82.5t17 -79q8 -14 19.5 -25t23.5 -21q29 -24 72.5 -27t86 10
t77 40t46.5 63zM233 593q-54 -1 -82 10.5t-36.5 29.5t-1 39t24.5 39.5t40.5 31t46 13.5t41.5 -12.5t28 -47.5q3 -15 2 -33t-8 -34t-20.5 -26.5t-34.5 -9.5zM210 630q19 -5 31 3t12.5 20t-11 24t-39.5 17q-19 -3 -31.5 -10.5t-14 -17t10.5 -19.5t42 -17z" />
    <glyph glyph-name="ae" unicode="&#xe6;" horiz-adv-x="876" 
d="M799 288q-83 -36 -172 -48t-178 -19q6 -32 18 -61.5t29 -52.5t40 -38t51 -18q36 -3 76.5 12.5t75.5 33t61.5 28t35.5 -3.5q8 -16 0.5 -28t-22.5 -21t-34.5 -16t-35.5 -13q-42 -17 -77 -29.5t-67.5 -13.5t-64.5 12.5t-68 48.5l-7.5 7.5t-6.5 8.5l3 -55l3 -12q0 -3 -0.5 -6
t-0.5 -6v-5h-1q-4 -12 -13 -19.5t-19 -9t-19 4.5t-12 21l-6 150l-3 -5q-18 -25 -47.5 -43.5t-65 -29t-73.5 -12t-73 7t-63 28t-43 51.5q-20 41 -27 82t1.5 81t33 77.5t68.5 72.5q34 26 74 37t78 5.5t70 -28t50 -64.5l-12 98q1 9 6 16t11.5 10t13.5 0.5t12 -11.5h1v-3
q8 -29 14.5 -58.5t11.5 -59.5q18 54 52.5 83.5t76 38.5t85.5 -1t81 -35t62.5 -64t30.5 -87q7 -13 2.5 -23t-17.5 -16zM384 199q-2 32 -3.5 53t-2.5 34.5t-3 20.5t-5 10q0 22 -19.5 48t-49.5 45t-65.5 27t-66.5 -4q-35 -11 -63.5 -42t-45 -70.5t-18.5 -82.5t17 -79
q8 -14 19.5 -25t23.5 -21q29 -24 72.5 -27t86 10t77 40t46.5 63zM757 323q-10 57 -38 92.5t-64 50t-75 9.5t-70.5 -28t-51 -64t-15.5 -97l1 1q39 4 79 5.5t79 4.5t78 9t77 17z" />
    <glyph glyph-name="ccedilla" unicode="&#xe7;" horiz-adv-x="446" 
d="M218 3q-3 2 -5 4l-4 4q-51 2 -90 26.5t-65 62.5t-39 85t-12 95.5t16.5 94t46.5 78.5t77.5 50.5t109.5 10.5q38 -5 67 -16t61 -34q12 -12 12 -25.5t-7.5 -23.5t-20.5 -13t-27 7q-23 20 -45 32.5t-53 15.5q-70 6 -117.5 -21t-69.5 -73t-18 -103t38 -109q28 -43 67 -64.5
t81 -22.5q12 5 25 1q41 5 77.5 30t61.5 70q15 10 27.5 8t18.5 -11.5t4.5 -23t-13.5 -25.5q-20 -38 -60.5 -61t-82.5 -34q1 -17 -3 -34.5t-9 -32.5q47 2 73 -8.5t34.5 -28t1.5 -38.5t-25.5 -39.5t-47.5 -31.5t-64 -14q-17 4 -23 15.5t-3 23t14 20.5t27 8q51 1 68.5 12.5
t10.5 23t-33.5 17t-64.5 -3.5q-18 6 -18 26q6 31 6 64q0 -2 -0.5 -2.5t-0.5 -1.5q0 -2 -0.5 2.5t-1.5 6.5q0 1 -2 1z" />
    <glyph glyph-name="egrave" unicode="&#xe8;" horiz-adv-x="470" 
d="M401 296q-84 -36 -172 -48t-178 -19q6 -32 18 -61.5t29 -52.5t40 -38t51 -18q24 -2 50.5 5t52 18t49.5 23t43.5 20.5t33.5 10.5t20 -7q8 -16 0.5 -28t-22.5 -21t-34.5 -16t-35.5 -13q-42 -17 -77 -29.5t-67.5 -13.5t-64.5 12.5t-68 48.5q-27 26 -41 68.5t-17.5 89.5
t1.5 93t16 79q18 54 52.5 84t76 39t85 -0.5t81 -35t63 -64t30.5 -87.5q7 -13 2.5 -23t-17.5 -16zM359 331q-10 57 -38.5 92.5t-64.5 50t-75 9.5t-70.5 -28t-50.5 -64t-15 -97l1 1q40 4 79.5 6t78.5 5t78 8.5t77 16.5zM115 714q-14 10 -16 23t4 23.5t18.5 15.5t27.5 -1
q38 -34 82.5 -62.5t92.5 -58.5q16 -7 20 -19.5t-1 -24t-17 -18.5t-27 -3q-21 18 -42 37.5t-43 36.5t-46.5 30.5t-52.5 20.5z" />
    <glyph glyph-name="eacute" unicode="&#xe9;" horiz-adv-x="470" 
d="M401 296q-84 -36 -172 -48t-178 -19q6 -32 18 -61.5t29 -52.5t40 -38t51 -18q24 -2 50.5 5t52 18t49.5 23t43.5 20.5t33.5 10.5t20 -7q8 -16 0.5 -28t-22.5 -21t-34.5 -16t-35.5 -13q-42 -17 -77 -29.5t-67.5 -13.5t-64.5 12.5t-68 48.5q-27 26 -41 68.5t-17.5 89.5
t1.5 93t16 79q18 54 52.5 84t76 39t85 -0.5t81 -35t63 -64t30.5 -87.5q7 -13 2.5 -23t-17.5 -16zM359 331q-10 57 -38.5 92.5t-64.5 50t-75 9.5t-70.5 -28t-50.5 -64t-15 -97l1 1q40 4 79.5 6t78.5 5t78 8.5t77 16.5zM329 714q-29 -7 -53 -20.5t-46 -30.5t-43 -36.5
t-42 -37.5q-15 -4 -27 3t-17 18.5t-1 24t20 19.5q48 30 92.5 58.5t82.5 62.5q15 6 27.5 1t18.5 -15.5t4 -23.5t-16 -23z" />
    <glyph glyph-name="ecircumflex" unicode="&#xea;" horiz-adv-x="470" 
d="M401 296q-84 -36 -172 -48t-178 -19q6 -32 18 -61.5t29 -52.5t40 -38t51 -18q24 -2 50.5 5t52 18t49.5 23t43.5 20.5t33.5 10.5t20 -7q8 -16 0.5 -28t-22.5 -21t-34.5 -16t-35.5 -13q-42 -17 -77 -29.5t-67.5 -13.5t-64.5 12.5t-68 48.5q-27 26 -41 68.5t-17.5 89.5
t1.5 93t16 79q18 54 52.5 84t76 39t85 -0.5t81 -35t63 -64t30.5 -87.5q7 -13 2.5 -23t-17.5 -16zM359 331q-10 57 -38.5 92.5t-64.5 50t-75 9.5t-70.5 -28t-50.5 -64t-15 -97l1 1q40 4 79.5 6t78.5 5t78 8.5t77 16.5zM86 604q-16 -2 -25 4.5t-11.5 17t2.5 22t17 19.5
q62 80 103 108.5t73.5 19t64 -50t75.5 -97.5l-2 -3q-8 -13 -18 -19t-26 -2q-16 13 -27.5 32t-23.5 38.5t-25.5 37t-33.5 27.5q-20 -16 -37 -36.5t-33.5 -41.5t-34 -41t-38.5 -35z" />
    <glyph glyph-name="edieresis" unicode="&#xeb;" horiz-adv-x="470" 
d="M401 296q-84 -36 -172 -48t-178 -19q6 -32 18 -61.5t29 -52.5t40 -38t51 -18q24 -2 50.5 5t52 18t49.5 23t43.5 20.5t33.5 10.5t20 -7q8 -16 0.5 -28t-22.5 -21t-34.5 -16t-35.5 -13q-42 -17 -77 -29.5t-67.5 -13.5t-64.5 12.5t-68 48.5q-27 26 -41 68.5t-17.5 89.5
t1.5 93t16 79q18 54 52.5 84t76 39t85 -0.5t81 -35t63 -64t30.5 -87.5q7 -13 2.5 -23t-17.5 -16zM359 331q-10 57 -38.5 92.5t-64.5 50t-75 9.5t-70.5 -28t-50.5 -64t-15 -97l1 1q40 4 79.5 6t78.5 5t78 8.5t77 16.5zM157 664q-3 -14 -12 -22.5t-19.5 -10.5t-20 4t-13.5 21
v5q1 16 10.5 26.5t21 12.5t21.5 -5.5t12 -25.5v-5zM330 663q-3 -14 -12 -22.5t-19.5 -10.5t-20 4t-13.5 21v5q1 16 10.5 26.5t21 12.5t21.5 -5.5t12 -25.5v-5z" />
    <glyph glyph-name="igrave" unicode="&#xec;" horiz-adv-x="225" 
d="M86 457q1 16 10.5 26.5t21 12.5t21.5 -5.5t12 -25.5q-5 -60 -9 -122.5t-2 -122.5q1 -24 4.5 -50.5t6.5 -52.5t4 -52.5t-4 -50.5q-3 -14 -11.5 -22.5t-19 -10.5t-20 4t-13.5 21q0 4 -1 5q0 8 4 18l6 35q1 5 0.5 13t2.5 5q7 94 2 187.5t-15 187.5zM15 695q-14 10 -16 23
t4 23.5t18.5 15.5t27.5 -1q19 -17 36.5 -29.5t35 -23.5t37 -22.5t42.5 -26.5q16 -7 20 -19.5t-1 -23.5t-16.5 -18.5t-27.5 -3.5q-21 18 -38 34.5t-34.5 30t-38.5 24t-49 17.5z" />
    <glyph glyph-name="iacute" unicode="&#xed;" horiz-adv-x="225" 
d="M86 457q10 -94 15 -187.5t-2 -187.5q-3 3 -2.5 -5t-0.5 -13l-6 -35q-4 -10 -4 -18q1 -1 1 -5q4 -15 13.5 -21t20 -4t19 10.5t11.5 22.5q5 24 4 50.5t-4 52.5t-6.5 52.5t-4.5 50.5q-2 60 2 122.5t9 122.5q-2 18 -12 25.5t-21.5 5.5t-21 -12.5t-10.5 -26.5zM206 695
q-29 -7 -49.5 -17.5t-38 -24t-34.5 -30t-38 -34.5q-16 -4 -27.5 3.5t-16.5 18.5t-1 23.5t20 19.5q23 15 42.5 26.5t37 22.5t35 23.5t36.5 29.5q15 6 27.5 1t18.5 -15.5t4 -23.5t-16 -23z" />
    <glyph glyph-name="icircumflex" unicode="&#xee;" horiz-adv-x="273" 
d="M108 457q1 16 10.5 26.5t21 12.5t21.5 -5.5t12 -25.5q-5 -60 -9 -122.5t-2 -122.5q1 -24 4.5 -50.5t6.5 -52.5t4 -52.5t-4 -50.5q-3 -14 -11.5 -22.5t-19 -10.5t-20 4t-13.5 21q0 4 -1 5q0 8 4 18l6 35q1 5 0.5 13t2.5 5q7 94 2 187.5t-15 187.5zM35 637q-16 -2 -25 4.5
t-11 17t2.5 22t16.5 19.5q10 4 19 13.5t22 22t32.5 28t50.5 30.5q15 -8 31.5 -24.5t33.5 -36t33 -40.5t29 -39l-2 -3q-8 -13 -18 -19t-26 -2q-16 13 -24.5 28t-17 29.5t-19 28t-30.5 23.5q-20 -16 -30 -28.5t-17.5 -24t-18 -23t-31.5 -26.5z" />
    <glyph glyph-name="idieresis" unicode="&#xef;" horiz-adv-x="250" 
d="M86 457q1 16 10.5 26.5t21 12.5t21.5 -5.5t12 -25.5q-5 -60 -9 -122.5t-2 -122.5q1 -24 4.5 -50.5t6.5 -53t4 -52.5t-4 -50q-3 -14 -12 -22.5t-19 -10.5t-19.5 4t-13.5 21q0 4 -1 5q0 9 4 18l6 35q1 5 0.5 13t2.5 5q7 94 2 187.5t-15 187.5zM84 664q-3 -14 -12 -22.5
t-19.5 -10.5t-20 4t-13.5 21v5q1 16 10.5 26.5t21 12.5t21.5 -5.5t12 -25.5v-5zM231 663q-3 -14 -12 -22.5t-19.5 -10.5t-20 4t-13.5 21v5q1 16 10.5 26.5t21 12.5t21.5 -5.5t12 -25.5v-5z" />
    <glyph glyph-name="eth" unicode="&#xf0;" horiz-adv-x="512" 
d="M182 450q-16 -2 -25 4.5t-11.5 17t2.5 22t17 19.5q9 2 23 9.5t22 11.5q16 8 24.5 11t13.5 5.5t10 5.5t15 11l1 1q-24 28 -48.5 52t-47.5 41q-14 10 -16 23t4 23.5t18.5 15.5t27.5 -1q64 -48 111 -114q23 18 46 34.5t52 25.5q12 0 18 -6t4.5 -16t-11 -21.5t-26.5 -23.5h-1
q-31 -10 -59 -28q17 -26 33 -55t32 -60q20 -40 40.5 -88.5t31 -99.5t5 -100.5t-37.5 -90.5q-34 -43 -91 -69t-118.5 -29.5t-117.5 19.5t-87 78q-26 46 -31 88t7.5 79t41 69.5t69.5 60.5q14 9 42.5 20.5t62 23t68 21.5t61.5 16q-14 22 -28.5 42.5t-30.5 40.5
q-29 -23 -56.5 -46.5t-59.5 -42.5zM449 178q4 48 -12.5 104.5t-45.5 113.5h-2q-71 1 -131.5 -17t-105 -48t-70 -69.5t-26 -79.5t27 -78.5t88.5 -66.5q20 -9 48 -10.5t58 4t60 18t54 31.5t39.5 43.5t17.5 54.5z" />
    <glyph glyph-name="ntilde" unicode="&#xf1;" horiz-adv-x="534" 
d="M129 28q-6 -20 -23.5 -27.5t-30.5 3.5q-18 2 -24 27q-1 1 -1 3v1q2 39 -3.5 91.5t-13.5 107.5t-15.5 108t-10.5 93t1.5 62t20.5 16q13 7 21 -7.5t12.5 -43t5.5 -65t1.5 -73.5t1 -69t3.5 -51q5 48 17.5 93t40.5 83q24 33 54 55.5t63 32.5t68.5 6.5t69.5 -22.5
q27 -9 50.5 -38.5t41.5 -71t29.5 -90.5t14.5 -95.5t-2 -87.5t-20 -66q-6 -11 -15.5 -16t-18.5 -4t-16 8t-10 20l-3 7q14 41 21.5 89.5t5 97.5t-16.5 95.5t-42 83.5q-27 32 -59.5 45t-65 8.5t-63 -25t-52.5 -54.5q-22 -35 -30.5 -76t-10 -84.5t1 -87t2.5 -82.5zM164 642
q-9 -15 -21.5 -19.5t-23 0t-15.5 16t2 28.5q8 14 23.5 34t34.5 34.5t40 18t40 -14.5q12 -11 21 -25t17.5 -28.5t18.5 -27t24 -20.5q15 4 21 17t7.5 27.5t0 25.5t-1.5 13q1 16 10.5 26.5t21 12.5t21.5 -5.5t12 -25.5q-1 -17 -5.5 -37t-13 -39t-21.5 -34t-32 -20
q-4 -1 -16 -3.5t-18 0.5q-14 9 -27 26t-25 34.5t-23 31.5t-22.5 16t-24 -11.5t-25.5 -50.5z" />
    <glyph glyph-name="ograve" unicode="&#xf2;" horiz-adv-x="542" 
d="M46 389q31 54 84.5 82t113 30t116.5 -21t95 -70t53.5 -97.5t11.5 -97.5t-26 -88.5t-59.5 -72t-89 -47t-113.5 -13.5q-51 3 -92 22.5t-70.5 50.5t-46.5 70.5t-20.5 82.5t7 86.5t36.5 82.5zM384 404q-31 28 -71.5 36.5t-81.5 1t-79 -29t-63 -53.5q-37 -48 -41.5 -104
t17 -104.5t66.5 -82.5t107 -38q59 -4 104.5 11.5t75.5 44.5t44 68t10 82t-25.5 86.5t-62.5 81.5zM149 694q-14 10 -16 23t4 23.5t18.5 15.5t27.5 -1q38 -34 82.5 -62.5t92.5 -58.5q16 -7 20 -19.5t-1 -24t-17 -18.5t-27 -3q-21 18 -42 37.5t-43 36.5t-46.5 30.5t-52.5 20.5z
" />
    <glyph glyph-name="oacute" unicode="&#xf3;" horiz-adv-x="542" 
d="M46 389q31 54 84.5 82t113 30t116.5 -21t95 -70q38 -48 53.5 -98t11.5 -97t-26 -88.5t-59.5 -72t-89 -47t-113.5 -13.5q-51 3 -92 22.5t-70.5 50.5t-46.5 70.5t-20.5 82.5t7 86.5t36.5 82.5zM384 404q-31 28 -71.5 36.5t-81.5 1t-79 -29t-63 -53.5q-37 -48 -41.5 -104
t17 -104.5t66.5 -82.5t107 -38q59 -4 104.5 11.5t75.5 44.5t44 68t10 82t-25.5 86.5t-62.5 81.5zM387 687q-29 -7 -53 -20.5t-46 -30.5t-43 -36.5t-42 -37.5q-15 -4 -27 3t-17 18.5t-1 24t20 19.5q48 30 92.5 58.5t82.5 62.5q15 6 27.5 1t18.5 -15.5t4 -23.5t-16 -23z" />
    <glyph glyph-name="ocircumflex" unicode="&#xf4;" horiz-adv-x="542" 
d="M46 389q31 54 84.5 82t113 30t116.5 -21t95 -70q38 -48 53.5 -98t11.5 -97t-26 -88.5t-59.5 -72t-89 -47t-113.5 -13.5q-51 3 -92 22.5t-70.5 50.5t-46.5 70.5t-20.5 82.5t7 86.5t36.5 82.5zM384 404q-31 28 -71.5 36.5t-81.5 1t-79 -29t-63 -53.5q-37 -48 -41.5 -104
t17 -104.5t66.5 -82.5t107 -38q59 -4 104.5 11.5t75.5 44.5t44 68t10.5 82t-25.5 86.5t-63 81.5zM124 604q-16 -2 -25 4.5t-11 17t2.5 22t16.5 19.5q62 80 103 108.5t73.5 19t64 -50t75.5 -97.5l-2 -3q-8 -13 -18 -19t-26 -2q-16 13 -27.5 32t-23.5 38.5t-25.5 37
t-33.5 27.5q-20 -16 -37 -36.5t-33.5 -42t-34 -41t-38.5 -34.5z" />
    <glyph glyph-name="otilde" unicode="&#xf5;" horiz-adv-x="542" 
d="M46 389q31 54 84.5 82t113 30t116.5 -21t95 -70q38 -48 53.5 -98t11.5 -97t-26 -88.5t-59.5 -72t-89 -47t-113.5 -13.5q-51 3 -92 22.5t-70.5 50.5t-46.5 70.5t-20.5 82.5t7 86.5t36.5 82.5zM384 404q-31 28 -71.5 36.5t-81.5 1t-79 -29t-63 -53.5q-37 -48 -41.5 -104
t17 -104.5t66.5 -82.5t107 -38q59 -4 104.5 11.5t75.5 44.5t44 68t10.5 82t-25.5 86.5t-63 81.5zM168 642q-9 -15 -21.5 -19.5t-23 0t-15.5 16t2 28.5q8 14 23.5 34t34.5 34.5t40 18t40 -14.5q12 -11 21 -25t17.5 -28.5t18.5 -27t24 -20.5q15 4 21 17t7.5 27.5t0 25.5
t-1.5 13q1 16 10.5 26.5t21 12.5t21.5 -5.5t12 -25.5q-1 -17 -5.5 -37t-13 -39t-21.5 -34t-32 -20q-4 -1 -16 -3.5t-18 0.5q-14 9 -27 26t-25 34.5t-23 31.5t-22.5 16t-24 -11.5t-25.5 -50.5z" />
    <glyph glyph-name="odieresis" unicode="&#xf6;" horiz-adv-x="542" 
d="M46 389q31 54 84.5 82t113 30t116.5 -21t95 -70q38 -48 53.5 -98t11.5 -97t-26 -88.5t-59.5 -72t-89 -47t-113.5 -13.5q-51 3 -92 22.5t-70.5 50.5t-46.5 70.5t-20.5 82.5t7 86.5t36.5 82.5zM384 404q-31 28 -71.5 36.5t-81.5 1t-79 -29t-63 -53.5q-37 -48 -41.5 -104
t17 -104.5t66.5 -82.5t107 -38q59 -4 104.5 11.5t75.5 44.5t44 68t10.5 82t-25.5 86.5t-63 81.5zM221 664q-3 -14 -12 -22.5t-19 -10.5t-20 4t-14 21v5q1 16 10.5 26.5t21 12.5t21.5 -5.5t12 -25.5v-5zM394 663q-3 -14 -12 -22.5t-19 -10.5t-20 4t-14 21v5q1 16 10.5 26.5
t21 12.5t21.5 -5.5t12 -25.5v-5z" />
    <glyph glyph-name="divide" unicode="&#xf7;" horiz-adv-x="410" 
d="M49 327q-17 4 -23 15.5t-3 23t14 20.5t27 8q4 -2 10.5 -2t3.5 -3q-1 -1 -2 -1q75 -13 145.5 -9t145.5 15q18 -1 26 -10.5t6.5 -21.5t-11 -22.5t-25.5 -12.5q-39 4 -78.5 9.5t-79.5 4.5q-38 -1 -77.5 -9t-78.5 -5zM186 234q-10 4 -14 17q-4 11 -1.5 21.5t9 17.5t17.5 9.5
t23 -2.5q2 -5 5 -8t5 -7q9 -11 9.5 -22.5t-5 -20.5t-16 -13.5t-24.5 -1.5q-1 2 -3.5 5t-4.5 5zM228 478q1 -12 -4 -24q0 -1 -1 -2l-5 -7q-1 -2 -5 -6h-1q-11 -9 -22 -6l-2 -1q-13 3 -19.5 10.5t-7.5 16t3 17.5t12 15q8 7 17.5 9.5t20.5 -4.5q6 -4 7.5 -9t6.5 -9z" />
    <glyph glyph-name="oslash" unicode="&#xf8;" horiz-adv-x="542" 
d="M378 604q7 15 19.5 21t24 3.5t18 -12.5t1.5 -28q-14 -32 -27 -62.5t-25 -59.5q39 -23 66 -56q38 -48 53.5 -98t11.5 -97t-26 -88.5t-59.5 -72t-89 -47t-113.5 -13.5l-18 2l-29 -91q-8 -12 -19.5 -17t-21.5 -3t-17 11t-6 25l38 87q-57 20 -94 63.5t-52.5 97t-8 112
t41.5 108.5q22 38 55.5 63t73 37t82.5 11.5t83 -13.5zM89 359q-32 -41 -39.5 -89t5 -92t43.5 -80t76 -54q43 102 78.5 197t70.5 197q-30 9 -63 7t-64.5 -12.5t-59.5 -29.5t-47 -44zM226 31q4 -1 12 -1q59 -4 104.5 11.5t75.5 44.5t44 68t10.5 82t-25.5 86.5t-63 81.5z" />
    <glyph glyph-name="ugrave" unicode="&#xf9;" horiz-adv-x="510" 
d="M9 450q1 16 10.5 26.5t21 12.5t21.5 -5.5t12 -25.5q-2 -37 -6.5 -74.5t-7 -75t0 -74.5t14.5 -73q26 -75 66.5 -108.5t85 -35t88 24.5t74.5 69.5t45 100t0 116.5q-1 3 -5 22t-9 40.5t-9 39.5l-4 18q-4 12 0 23.5t12.5 18t19.5 7t22 -9.5l-3 4l6 -6q-2 0 -2 2q9 -11 15 -35
t10 -52t6.5 -55t4.5 -43q7 -60 -9 -118t-52 -103t-89.5 -71t-121.5 -23q-62 3 -103.5 26.5t-67 62.5t-36.5 90t-13 109q-2 45 0.5 87.5t2.5 87.5zM109 665q-14 10 -16 23t4 23.5t18.5 15.5t27.5 -1q38 -34 82.5 -62.5t92.5 -58.5q16 -7 20 -19.5t-1 -24t-17 -18.5t-27 -3
q-21 18 -42 37.5t-43 36.5t-46.5 30.5t-52.5 20.5z" />
    <glyph glyph-name="uacute" unicode="&#xfa;" horiz-adv-x="510" 
d="M9 450q1 16 10.5 26.5t21 12.5t21.5 -5.5t12 -25.5q-2 -37 -6.5 -74.5t-7 -75t0 -74.5t14.5 -73q26 -75 66.5 -108.5t85 -35t88 24.5t74.5 69.5t45 100t0 116.5q-1 3 -5 22t-9 40.5t-9 39.5l-4 18q-4 12 0 23.5t12.5 18t19.5 7t22 -9.5l-3 4l6 -6q-2 0 -2 2q9 -11 15 -35
t10 -52t6.5 -55t4.5 -43q7 -60 -9 -118t-52 -103t-89.5 -71t-121.5 -23q-62 3 -103.5 26.5t-67 62.5t-36.5 90t-13 109q-2 45 0.5 87.5t2.5 87.5zM395 658q-29 -7 -53 -20.5t-46 -30.5t-43 -36.5t-42 -37.5q-15 -4 -27 3t-17 18.5t-1 24t20 19.5q48 30 92.5 58.5t82.5 62.5
q15 6 27.5 1t18.5 -15.5t4 -23.5t-16 -23z" />
    <glyph glyph-name="ucircumflex" unicode="&#xfb;" horiz-adv-x="510" 
d="M9 450q1 16 10.5 26.5t21 12.5t21.5 -5.5t12 -25.5q-2 -37 -6.5 -74.5t-7 -75t0 -74.5t14.5 -73q26 -75 66.5 -108.5t85 -35t88 24.5t74.5 69.5t45 100t0 116.5q-1 3 -5 22t-9 40.5t-9 39.5l-4 18q-4 12 0 23.5t12.5 18t19.5 7t22 -9.5l-3 4l6 -6q-2 0 -2 2q9 -11 15 -35
t10 -52t6.5 -55t4.5 -43q7 -60 -9 -118t-52 -103t-89.5 -71t-121.5 -23q-62 3 -103.5 26.5t-67 62.5t-36.5 90t-13 109q-2 45 0.5 87.5t2.5 87.5zM124 604q-16 -2 -25 4.5t-11.5 17t2.5 22t17 19.5q62 80 103 108.5t73.5 19t64 -50t75.5 -97.5l-2 -3q-8 -13 -18 -19t-26 -2
q-16 13 -27.5 32t-23.5 38.5t-25.5 37t-33.5 27.5q-20 -16 -37 -36.5t-33.5 -41.5t-34 -41t-38.5 -35z" />
    <glyph glyph-name="udieresis" unicode="&#xfc;" horiz-adv-x="510" 
d="M9 450q1 16 10.5 26.5t21 12.5t21.5 -5.5t12 -25.5q-2 -37 -6.5 -74.5t-7 -75t0 -74.5t14.5 -73q26 -75 66.5 -108.5t85 -35t88 24.5t74.5 69.5t45 100t0 116.5q-1 3 -5 22t-9 40.5t-9 39.5l-4 18q-4 12 0 23.5t12.5 18t19.5 7t22 -9.5l-3 4l6 -6q-2 0 -2 2q9 -11 15 -35
t10 -52t6.5 -55t4.5 -43q7 -60 -9 -118t-52 -103t-89.5 -71t-121.5 -23q-62 3 -103.5 26.5t-67 62.5t-36.5 90t-13 109q-2 45 0.5 87.5t2.5 87.5zM198 664q-3 -14 -12 -22.5t-19.5 -10.5t-20 4t-13.5 21v5q1 16 10.5 26.5t21 12.5t21.5 -5.5t12 -25.5v-5zM371 663
q-3 -14 -12 -22.5t-19.5 -10.5t-20 4t-13.5 21v5q1 16 10.5 26.5t21 12.5t21.5 -5.5t12 -25.5v-5z" />
    <glyph glyph-name="yacute" unicode="&#xfd;" horiz-adv-x="478" 
d="M46 454q6 13 16 20.5t20 7.5t18 -7.5t10 -23.5q-3 -29 -14 -68t-20.5 -79.5t-13 -77.5t7.5 -60q23 -45 59.5 -66t77.5 -23t83 13.5t75 42.5q14 12 22.5 21.5t14.5 20.5q0 38 -3.5 76.5t-7 72t-5.5 60.5t1 42q5 11 14.5 15t18.5 -6q13 -42 19.5 -97t8 -113.5t-1 -115
t-6.5 -100.5q-6 -71 -41.5 -112.5t-86 -59.5t-108.5 -16t-109 19q-8 12 -7.5 24t7 21t18 12.5t25.5 -2.5q5 -3 23 -7.5t43.5 -6.5t54.5 2t56 18t48 40.5t30 70.5q6 27 8 54.5t2 56.5q-44 -47 -99.5 -70t-109.5 -21.5t-100 28t-71 78.5q-18 37 -18 77t8.5 80.5t19 80.5
t13.5 78zM350 714q-29 -7 -53 -20.5t-46 -30.5t-43 -36.5t-42 -37.5q-15 -4 -27 3t-17 18.5t-1 24t20 19.5q48 30 92.5 58.5t82.5 62.5q15 6 27.5 1t18.5 -15.5t4 -23.5t-16 -23z" />
    <glyph glyph-name="thorn" unicode="&#xfe;" horiz-adv-x="466" 
d="M21 781q1 16 10.5 26.5t21 12.5t21.5 -5.5t12 -25.5q-3 -70 -3.5 -148.5t1.5 -161.5q20 13 40 25t43 18q51 13 95.5 -4.5t79 -52t58 -79.5t32.5 -87q7 -32 2.5 -69.5t-18.5 -74.5t-36 -71t-50 -60t-61.5 -40.5t-68.5 -12.5q-10 1 -23.5 2.5t-27.5 4.5t-26.5 7.5
t-21.5 10.5l7 -116q-3 -14 -12 -22.5t-19 -10.5t-20 4t-14 21q4 100 3.5 217.5t-4 238t-9.5 237t-12 216.5zM197 471q-17 -3 -35 -11.5t-32.5 -18.5t-23.5 -18.5t-9 -11.5q0 -1 -0.5 -24.5t-1.5 -58.5t-1.5 -75.5t-1 -76t-0.5 -59t1 -24.5q13 -14 24.5 -25t24 -19.5t28 -14
t38.5 -7.5q37 -2 69.5 13.5t57 42t40.5 60t22 66.5q5 25 1 55.5t-15.5 61.5t-29.5 60t-42 50t-53 31t-61 4z" />
    <glyph glyph-name="Abreve" unicode="&#x102;" horiz-adv-x="685" 
d="M222 832q-10 24 -9 42t10 29t23.5 13.5t32.5 -5.5q11 -6 9 -13.5t-5 -17t-1 -23t21 -31.5q24 -22 52 -21.5t45 9.5q16 8 22.5 20.5t8 24t0 20.5t-1.5 10q1 16 10.5 26.5t21 12.5t21.5 -5.5t12 -25.5q-1 -16 -7 -37t-19 -41t-34.5 -35.5t-54.5 -20.5q-20 -3 -43.5 0
t-45.5 12t-40.5 23t-27.5 34zM6 321q-11 18 -10.5 28.5t8 15.5t18.5 5.5t20 0t13 -1t-2 1.5l54 -2q6 46 16 91.5t27 91.5q31 83 88 121.5t121.5 39t127.5 -33.5t106 -97q17 -25 29 -68t20 -96t12.5 -110t5.5 -111t0 -99t-4 -73q-5 -19 -17 -26t-24 -5t-19.5 13t-2.5 28
q6 76 11 154.5t1 166.5q-52 2 -110.5 -1t-118 -8.5t-117 -13t-108.5 -14.5h-2q-2 -39 -1 -78t2.5 -75.5t4 -69.5t3.5 -60q-3 -14 -12 -22.5t-19.5 -10.5t-20 4t-13.5 21q1 72 1.5 143t6.5 141q-28 -4 -56.5 -3.5t-38.5 12.5zM154 368q50 0 107 6t115 14.5t115 17.5t108 15
q-5 39 -15 74t-25 62q-20 35 -52.5 62.5t-70.5 42.5t-79 14t-78 -23q-32 -19 -54.5 -49t-37.5 -67.5t-23.5 -80.5t-11.5 -88h2z" />
    <glyph glyph-name="abreve" unicode="&#x103;" 
d="M92 646q-10 24 -9 42t10 29t23.5 13.5t32.5 -5.5q11 -6 9 -13.5t-5 -17t-1 -23t21 -31.5q24 -22 52 -21.5t45 9.5q16 8 22.5 20.5t8 24t0 20.5t-1.5 10q1 16 10.5 26.5t21 12.5t21.5 -5.5t12 -25.5q-1 -16 -6.5 -38.5t-18 -43.5t-33.5 -37.5t-54 -21.5q-20 -3 -43 -2
t-45 9.5t-41 25t-31 43.5zM96 450q34 26 75 37t80.5 5.5t73 -28t51.5 -64.5l-12 98q1 9 6 16t11.5 10t13.5 0.5t12 -11.5h1v-3q13 -60 19.5 -121t10.5 -122t7.5 -122.5t10.5 -122.5l3 -12q0 -3 -0.5 -6t-0.5 -6v-5h-1q-4 -11 -12 -19t-16.5 -9.5t-16 4t-10.5 21.5l-6 150
l-3 -5q-18 -24 -48 -42.5t-66.5 -29.5t-75.5 -12.5t-74.5 6.5t-64.5 27.5t-44 52.5q-20 41 -27 82t1.5 81t33 77.5t68.5 72.5zM392 199q-4 63 -6 87.5t-8 30.5q0 22 -21 47.5t-52 45t-68 27.5t-68 -4q-35 -11 -63.5 -42t-45 -70.5t-18.5 -82.5t17 -79q8 -14 19.5 -25
t23.5 -21q29 -24 73.5 -27t89 10.5t80 40.5t47.5 62z" />
    <glyph glyph-name="Dcroat" unicode="&#x110;" horiz-adv-x="570" 
d="M-34 294q-15 4 -21.5 13.5t-5 20t9.5 20t21 13.5q20 -5 34.5 -8.5t28.5 -6.5q-6 56 -13 121.5t-15 145.5q-3 7 -1 18q-1 8 -1.5 15.5t-0.5 15.5q1 16 9 25t18.5 11t21 -2t16.5 -13q2 -2 0.5 -4t-1.5 -4q61 0 110 -2.5t95 -14t92.5 -35t101.5 -65.5q31 -23 50.5 -58
t28.5 -76t7 -85t-14 -84.5t-34.5 -74.5t-54.5 -55q-19 -13 -37 -27t-40 -22q-35 -12 -79 -25t-89.5 -22.5t-90.5 -15t-83 -2.5q-15 5 -21 14t-6 24q1 3 1 13q6 15 18.5 22t23.5 5q3 48 0.5 99t-8.5 112q-35 0 -71 -6zM88 243q7 -42 11.5 -83.5t7.5 -83.5q40 1 86 7.5
t90.5 17.5t82 25.5t60.5 32.5q43 34 66 82t24.5 98.5t-18 99t-61.5 85.5q-40 36 -85 55t-93 27t-98 7.5t-99 -3.5q1 -23 2 -53.5t2.5 -66.5t4 -74.5t5.5 -76.5q18 -1 36 2.5t41 12.5q7 6 17 6l1 1v-1q8 2 20 -7v1q1 -1 2.5 -2t3.5 -3l-4 3q13 -16 7.5 -32.5t-24.5 -24.5
q-24 2 -48 3l-48 2q2 -15 4 -29z" />
    <glyph glyph-name="dcroat" unicode="&#x111;" horiz-adv-x="515" 
d="M353 550q-15 4 -21.5 13.5t-5 20t9.5 20t21 13.5q32 -8 53.5 -13t39.5 -7q0 24 -1 48l-2 48q1 16 10 26.5t19.5 12.5t20 -5.5t11.5 -25.5q-2 -26 -4.5 -51.5t-4.5 -51.5q16 3 41 12q7 6 17 6l1 1v-1q8 2 20 -7v1q1 -1 2.5 -2t3.5 -3l-4 3q13 -16 7.5 -32.5t-24.5 -24.5
q-17 1 -33.5 2t-33.5 2q-5 -48 -9.5 -96t-7.5 -96l-5 -244l2 -78t3 -77q-3 -14 -11.5 -22.5t-18 -10.5t-18.5 4t-13 21q2 28 4 55.5t4 54.5q-38 -47 -84 -62.5t-93 -7t-91.5 37t-79 69t-55.5 88t-22 95.5q0 64 30.5 113t78 79.5t105 41.5t111.5 -1q19 -4 32.5 -8.5t25 -11.5
t22 -16t25.5 -22l10 -10t9 -11l2 54v2q-1 15 -1 30v30q-49 1 -98 -6zM344 66q26 15 45 44t30 66t13.5 77.5t-4.5 78.5t-24.5 70t-46.5 51t-64.5 25t-71.5 0.5t-69 -21.5t-58 -40.5t-38.5 -56.5t-9.5 -70q3 -36 16.5 -72.5t35.5 -68.5t51 -56t64 -36q30 -10 66.5 -9t64.5 18z
" />
    <glyph glyph-name="Itilde" unicode="&#x128;" horiz-adv-x="440" 
d="M29 15q-15 4 -21.5 13.5t-5 20t9.5 20t21 13.5q34 -3 56 -5.5t39 -4t32.5 -2.5t35.5 -1q-1 7 2 17q0 6 2 20.5t4.5 31t5 31t3.5 20.5q7 61 8.5 114t-1 105t-7.5 106t-11 118q-37 -5 -76 -10.5t-81 -11.5q-15 4 -21.5 13.5t-5 20t9.5 20t21 13.5q25 -9 57 -9.5t68 5
t74.5 14t76.5 16.5q6 4 10 5h3q16 -1 23.5 -9t8 -18.5t-6 -21t-18.5 -16.5h-11v-2h-3q-2 0 -3 0.5t-2 0.5q-30 0 -61 -3q-6 -72 -5.5 -143t1.5 -142t1.5 -142t-5.5 -142q5 0 27.5 3t47.5 6t45.5 5.5l20.5 2.5q10 3 15.5 -6t5 -22t-8 -25t-23.5 -13h-3h-2q-90 11 -176 7
t-177 -13zM119 795q-9 -15 -22 -19.5t-23.5 0t-15 16t2.5 28.5q8 14 23.5 34t34.5 34.5t40 18t40 -14.5q12 -11 21 -25t17.5 -28.5t18.5 -27t24 -20.5q15 4 21 17t7.5 27.5t0 26t-1.5 12.5q1 16 10.5 26.5t21 12.5t21.5 -5.5t12 -25.5q-1 -16 -5.5 -36.5t-13 -39.5
t-21.5 -34t-32 -20q-4 -1 -16 -3.5t-18 0.5q-14 8 -27 25t-25 34.5t-23.5 32t-23 17t-23.5 -11t-25 -51.5z" />
    <glyph glyph-name="itilde" unicode="&#x129;" horiz-adv-x="159" 
d="M29 411q1 16 10.5 26.5t21 12.5t21.5 -5.5t12 -25.5q-2 -30 -4.5 -53.5t-4 -46t-2.5 -46t0 -53.5q1 -24 4.5 -50.5t6.5 -53t4 -52.5t-4 -50q-3 -14 -12 -22.5t-19 -10.5t-19.5 4t-13.5 21q0 4 -1 5q0 9 4 18l6 35q1 5 0.5 13t2.5 5q3 46 3 85.5t-2 78t-5.5 78.5t-8.5 87z
M-8 527q-9 -15 -22 -19.5t-23.5 0t-15 16t2.5 28.5q8 14 23.5 34t34.5 34.5t40 18t40 -14.5q12 -11 21 -25t17.5 -28.5t18.5 -27t24 -20.5q15 4 21 17t7.5 27.5t0 26t-1.5 12.5q1 16 10.5 26.5t21 12.5t21.5 -5.5t12 -25.5q-1 -16 -5.5 -36.5t-13 -39.5t-21.5 -34t-32 -20
q-4 -1 -16 -3.5t-18 0.5q-14 8 -27 25t-25 34.5t-23.5 32t-23 17t-23.5 -11t-25 -51.5z" />
    <glyph glyph-name="Lslash" unicode="&#x141;" horiz-adv-x="428" 
d="M-60 223q-16 -2 -25 4.5t-11 17t2.5 22t16.5 19.5q28 5 54 16t49 26q2 46 3.5 92.5t0.5 89t-5 79t-11 63.5q1 16 10.5 26.5t21 12.5t21.5 -5.5t12 -25.5q-5 -74 -8 -150t-5 -154q26 20 48 43t42 47q15 10 27.5 8t18.5 -11.5t4.5 -23t-13.5 -25.5q-32 -21 -64.5 -39.5
t-63.5 -40.5l-8 -250q46 -2 86 -1.5t78.5 4.5t77.5 12.5t83 22.5l4 2v-1q4 1 8.5 0t9.5 -3q1 0 1 -1q17 -16 12 -34t-25 -27q-23 -3 -32.5 -4t-3.5 1l2 1q-61 -4 -103.5 -7.5t-78 -7l-71 -7t-83.5 -7.5q-7 -1 -8.5 21t-0.5 60t4.5 88t6.5 106q-20 -17 -40 -32.5t-44 -26.5z
" />
    <glyph glyph-name="lslash" unicode="&#x142;" horiz-adv-x="212" 
d="M-60 223q-16 -2 -25 4.5t-11 17t2.5 22t16.5 19.5q37 7 69.5 23t62.5 39v5q0 75 -9 149.5t-15 149.5q1 16 10.5 26.5t21 12.5t21.5 -5.5t12 -25.5q-7 -142 -6 -284q18 17 34.5 34.5t31.5 35.5q15 10 27.5 8t18.5 -11.5t4.5 -23t-13.5 -25.5q-26 -17 -51.5 -31.5
t-51.5 -31.5v-37.5t1 -37.5q0 -23 2.5 -48.5t3 -52t-2 -51.5t-12.5 -47q-11 -10 -22 -11.5t-19.5 3t-12.5 14.5t0 23q0 6 2 20.5t4.5 31t5 31t3.5 20.5q3 29 6 58.5t5 58.5q-29 -22 -55 -44.5t-59 -38.5z" />
    <glyph glyph-name="OE" unicode="&#x152;" horiz-adv-x="745" 
d="M397 7q-90 -30 -159.5 -19t-118.5 50.5t-77.5 100t-36.5 130t5 141t46 132t87 104t129 56.5q19 4 36.5 2.5t34 -6.5t32 -11t31.5 -11q44 -4 75 -5.5t59.5 -1t60 3.5t77.5 8q3 3 11 5q4 0 7 -0.5t7 -1.5q17 -1 24.5 -10t6 -20t-10 -21t-23.5 -13q-4 0 -7.5 -0.5t-7.5 -0.5
q-2 0 -8 2q-41 3 -71 4t-57.5 0.5t-57.5 -2.5t-71 -5q-1 -32 -1.5 -52.5t-0.5 -38t1 -37.5t2 -51q28 -4 50 -5t42 0.5t39 6t41 11.5q18 5 28.5 -0.5t13 -16t-3.5 -22t-21 -18.5q-33 0 -54 1.5t-39 1.5t-39 -2.5t-54 -10.5q5 -78 10 -161t11 -161q85 -6 144.5 -4t99.5 13
q17 0 27.5 1t15.5 -0.5t5 -7.5t-3 -21q-9 -23 -42 -27t-80 -2t-103.5 3t-111.5 -11zM363 613q-78 30 -137.5 15t-100 -59t-61.5 -107.5t-21 -131t20.5 -130.5t63 -104.5t107.5 -53.5t153 22q3 21 3 63t-1.5 95t-4.5 111.5t-6.5 112.5t-7.5 98t-7 69z" />
    <glyph glyph-name="oe" unicode="&#x153;" horiz-adv-x="770" 
d="M706 291q-83 -36 -172 -48t-178 -19q6 -32 18 -61.5t29 -52.5t40 -38t51 -18q36 -3 76.5 12.5t75.5 33t61.5 28t35.5 -3.5q8 -16 0.5 -28t-22.5 -21t-34.5 -16t-35.5 -13q-37 -15 -68 -26.5t-60 -15t-56.5 2.5t-56.5 26q-18 -8 -40.5 -15t-47 -12.5t-48 -9t-42.5 -2.5
q-51 3 -92 22.5t-70.5 50.5t-46.5 70.5t-20.5 82.5t7 86.5t36.5 82.5q24 43 63.5 69.5t85.5 36.5t94 4t90 -27q27 28 62 39.5t71.5 9.5t72 -16.5t64.5 -39.5t48.5 -59.5t23.5 -75.5q7 -13 2.5 -23t-17.5 -16zM238 30q32 -2 73 7t70 20q-4 3 -7 7q-27 26 -41 68.5t-17.5 89.5
t1.5 93t16 79q7 20 15 34q-32 15 -68 17t-71.5 -8t-66.5 -30t-53 -48q-37 -48 -41.5 -104t17 -104.5t66.5 -82.5t107 -38zM664 326q-10 57 -38 92.5t-64 50t-75 9.5t-70.5 -28t-51 -64t-15.5 -97l1 1q39 4 79 5.5t79 4.5t78 9t77 17z" />
    <glyph glyph-name="Scaron" unicode="&#x160;" horiz-adv-x="529" 
d="M499 626q1 -14 -5 -25t-15 -16.5t-20.5 -3.5t-20.5 16q-5 29 -28 39t-52 9t-58 -8.5t-45 -13.5q-35 -11 -71.5 -29.5t-66.5 -44t-50.5 -58.5t-24.5 -74q-5 -45 11 -72.5t45.5 -44t68 -24t78.5 -13.5t77 -12.5t64 -20.5q54 -29 79 -57.5t27.5 -54.5t-14 -48.5t-45 -39.5
t-65 -28t-74 -14t-73 3t-61.5 23q-9 6 -11 20t-4 23q1 14 8.5 24t17.5 14t20.5 -0.5t17.5 -18.5l3 -14q47 -24 91 -25.5t76 10.5t48.5 34t8.5 45.5t-44.5 44.5t-109.5 31q-35 11 -74.5 18.5t-76 19.5t-67 32.5t-48.5 57.5q-15 32 -15 66.5t10.5 67t30 62t43.5 52.5
q21 21 56 44.5t76 43t84.5 31t82.5 10t69.5 -20t45.5 -60.5zM155 919q21 -15 38.5 -35t34 -41t33.5 -41.5t37 -36.5q20 10 34 27t25.5 36.5t23.5 38.5t27 33q16 4 26 -2t18 -19l2 -3q-44 -57 -75.5 -97.5t-64 -50t-73.5 19t-103 108.5q-12 8 -17 19.5t-2.5 22t11.5 17
t25 4.5z" />
    <glyph glyph-name="scaron" unicode="&#x161;" horiz-adv-x="440" 
d="M305 492h-7q-29 0 -61.5 -2t-63 -10.5t-56.5 -26t-44 -47.5q-9 -16 -11 -34t2 -34.5t14.5 -30.5t27.5 -23q19 -9 56 -22t77 -29.5t74.5 -35.5t48 -40.5t-2 -45t-75.5 -47.5q-64 -26 -121 -7t-90 82q-11 11 -22.5 11.5t-20.5 -6t-13.5 -18.5t-0.5 -25q26 -41 59.5 -64.5
t72 -31.5t80 -2t84.5 24q12 5 33 18t40.5 30t30.5 36.5t3 37.5q-5 30 -29.5 52t-58.5 39t-72.5 31t-72 27.5t-56 28.5t-24.5 34q1 24 22.5 38t51.5 20t63 6.5t58 -0.5q16 2 25.5 12.5t11 22.5t-6.5 21.5t-26 10.5zM63 731q21 -15 38.5 -34.5t34 -41t33.5 -42t37 -36.5
q20 10 33.5 27.5t25.5 37t23.5 38t27.5 32.5q16 4 26 -2t18 -19l2 -3q-44 -57 -75.5 -97.5t-64 -50t-73.5 19t-103 108.5q-12 8 -16.5 19.5t-2.5 22t11 17t25 4.5z" />
    <glyph glyph-name="Utilde" unicode="&#x168;" horiz-adv-x="514" 
d="M8 659q1 16 9.5 25.5t19 10.5t19.5 -7t11 -26q-1 -24 -4.5 -64t-7 -88t-6.5 -99.5t-3.5 -99t3 -87.5t12.5 -63q24 -64 63.5 -97.5t84.5 -40.5t90.5 11.5t81 58.5t56.5 99.5t18 135.5q0 2 -2 27t-5 61.5t-7 78.5t-7 78l-5 60l-2 24q-8 25 4.5 38t33.5 -6q6 -6 10.5 -33.5
t8 -67.5t6 -86t4 -87.5t2 -73t0.5 -42.5q-1 -65 -18 -122.5t-51 -101t-84 -67.5t-117 -21q-62 3 -103.5 26.5t-67 62.5t-36.5 90t-13 109q-1 15 -1 45v68t0.5 79.5t1 79.5t1 67.5t0.5 44.5zM169 776q-9 -15 -22 -19.5t-23.5 0t-15 16t2.5 28.5q8 14 23.5 34t34.5 34.5t40 18
t40 -14.5q12 -11 21 -25t17.5 -28.5t18.5 -27t24 -20.5q15 4 21 17t7.5 27.5t0 26t-1.5 12.5q1 16 10.5 26.5t21 12.5t21.5 -5.5t12 -25.5q-1 -16 -5.5 -36.5t-13 -39.5t-21.5 -34t-32 -20q-4 -1 -16 -3.5t-18 0.5q-14 8 -27 25t-25 34.5t-23.5 32t-23 17t-23.5 -11
t-25 -51.5z" />
    <glyph glyph-name="utilde" unicode="&#x169;" horiz-adv-x="510" 
d="M9 450q1 16 10.5 26.5t21 12.5t21.5 -5.5t12 -25.5q-2 -37 -6.5 -74.5t-7 -75t0 -74.5t14.5 -73q26 -75 66.5 -108.5t85 -35t88 24.5t74.5 69.5t45 100t0 116.5q-1 3 -5 22t-9 40.5t-9 39.5l-4 18q-4 12 0 23.5t12.5 18t19.5 7t22 -9.5l-3 4l6 -6q-2 0 -2 2q9 -11 15 -35
t10 -52t6.5 -55t4.5 -43q7 -60 -9 -118t-52 -103t-89.5 -71t-121.5 -23q-62 3 -103.5 26.5t-67 62.5t-36.5 90t-13 109q-2 45 0.5 87.5t2.5 87.5zM167 579q-9 -15 -22 -19.5t-23.5 0t-15 16t2.5 28.5q8 14 23.5 34t34.5 34.5t40 18t40 -14.5q12 -11 21 -25t17.5 -28.5
t18.5 -27t24 -20.5q15 4 21 17t7.5 27.5t0 26t-1.5 12.5q1 16 10.5 26.5t21 12.5t21.5 -5.5t12 -25.5q-1 -16 -5.5 -36.5t-13 -39.5t-21.5 -34t-32 -20q-4 -1 -16 -3.5t-18 0.5q-14 8 -27 25t-25 34.5t-23.5 32t-23 17t-23.5 -11t-25 -51.5z" />
    <glyph glyph-name="Ydieresis" unicode="&#x178;" 
d="M57 671q6 13 16 20.5t20 7.5t18 -7.5t10 -23.5q-2 -19 -10.5 -54t-18 -79.5t-19 -95.5t-14.5 -100.5t-3.5 -94.5t14.5 -78q23 -45 62.5 -58t84 -5.5t89.5 30.5t78 50q14 12 22.5 21.5t14.5 20.5q0 25 -0.5 63.5t-1 81.5t-1 87t-0.5 82t1 66t3 38q5 11 14.5 15t18.5 -6
q9 -28 14 -78.5t6.5 -112t1 -129t-2.5 -129.5t-5 -113.5t-5 -80.5q-4 -47 -23.5 -81t-49 -56.5t-67 -34.5t-77 -15t-79 2t-73.5 16q-8 12 -7.5 24t7 21t18 12.5t25.5 -2.5q5 -3 25 -8t48 -6.5t60 2.5t61.5 18t52.5 40.5t32 70.5q3 13 4 34.5t1.5 45t0 45.5t-0.5 36
q-29 -31 -67 -56t-78.5 -41t-80.5 -22.5t-74.5 0t-60.5 27t-38 57.5q-11 34 -13 80t1 97t9.5 103.5t14 100.5t14 87.5t8.5 64.5zM212 842q-3 -14 -12 -22.5t-19 -10.5t-20 4t-14 21v5q1 16 10.5 26.5t21 12.5t21.5 -5.5t12 -25.5v-5zM385 841q-3 -14 -12 -22.5t-19 -10.5
t-20 4t-14 21v5q1 16 10.5 26.5t21 12.5t21.5 -5.5t12 -25.5v-5z" />
    <glyph glyph-name="Zcaron" unicode="&#x17d;" 
d="M29 622q38 3 81.5 4t87 1t83.5 -1t71 -2t50 -2l19 -1q-17 -19 -41 -52t-52 -75t-59 -89.5t-61 -94.5t-57.5 -90.5t-49.5 -77.5t-37 -55.5t-19 -24.5q-11 -8 -12 -20.5t15 -15.5q48 -3 107.5 -2.5t115 2t100 2t62.5 -3.5q16 2 25.5 12.5t11 22.5t-6.5 21.5t-26 10.5
q-11 1 -35.5 -0.5t-55.5 -4t-66.5 -7t-69.5 -8t-63 -7t-48 -5.5q2 6 25 42.5t57.5 90t77 117t84 123.5t78 110t59.5 77q11 15 6 31.5t-31 18.5q-62 -5 -112.5 -4t-98.5 4.5t-98.5 9t-112.5 10.5q-13 -4 -21 -13.5t-9.5 -20t5 -20t21.5 -13.5zM126 919q21 -15 38.5 -34.5
t34 -41t33.5 -42t37 -36.5q20 10 33.5 27.5t25.5 37t23.5 38t27.5 32.5q16 4 26 -2t18 -19l2 -3q-44 -57 -75.5 -97.5t-64 -50t-73.5 19t-103 108.5q-12 8 -16.5 19.5t-2.5 22t11 17t25 4.5z" />
    <glyph glyph-name="zcaron" unicode="&#x17e;" horiz-adv-x="494" 
d="M22 394q57 4 98 7.5t79 5.5t78.5 1.5t96.5 -4.5q-22 -25 -51.5 -58t-62 -68.5t-64.5 -71t-58.5 -64t-45.5 -48t-24 -23.5q-11 -8 -12 -20.5t15 -15.5q48 -3 90 -8.5t82 -12t81 -14t89 -15.5q16 2 25.5 12.5t11 22.5t-6.5 21.5t-26 10.5q-17 2 -54.5 5.5t-81.5 7t-87.5 5
t-71.5 -1.5q65 63 113.5 110.5t87.5 87t72 75t68 75.5q11 15 6 31.5t-31 18.5q-62 -5 -111 -8t-95 -4t-95 0.5t-111 6.5q-13 -4 -21 -13.5t-9.5 -20t5 -20t21.5 -13.5zM126 686q21 -15 38.5 -34.5t34 -41t33.5 -42t37 -36.5q20 10 33.5 27.5t25.5 37t23.5 38t27.5 32.5
q16 4 26 -2t18 -19l2 -3q-44 -57 -75.5 -97.5t-64 -50t-73.5 19t-103 108.5q-12 8 -16.5 19.5t-2.5 22t11 17t25 4.5z" />
    <glyph glyph-name="florin" unicode="&#x192;" horiz-adv-x="274" 
d="M16 334q-7 10 -7 21t4.5 19.5t13 13.5t17.5 4q-1 0 -1 -4q1 -1 4 -1q2 0 4.5 -0.5t5.5 -0.5q-4 3 -8 5q7 -1 13 -6q8 -2 15.5 -3t8.5 -1q8 -1 16 -0.5t16 1.5q-4 29 -6.5 56.5t-3.5 56.5q-1 43 12 72.5t34.5 40.5t49.5 0t57 -50q13 -20 1.5 -34t-37.5 -8q-3 -1 -11.5 7.5
t-18.5 17t-19 10.5t-13 -11q-8 -18 -9 -40q-2 -23 -2.5 -53t1.5 -58q20 5 37 9t31 2q12 -5 16 -12t6 -20v-1q-6 -20 -14.5 -23t-19.5 0t-24 6t-28 -4q4 -30 12 -69t14.5 -79.5t9 -77.5t-4.5 -61q-4 -15 -20.5 -25t-38 -14t-43.5 -1.5t-38 12.5t-22 29t6 48q9 12 20 15.5
t20.5 0t15 -13t2.5 -24.5q8 -6 18 -9.5t19 -3.5t15 4.5t6 14.5q2 64 -7 127t-18 127q-11 0 -25.5 -3.5t-26.5 -7.5t-19 -7t-2 -2q-11 -2 -17.5 -1t-16.5 9z" />
    <glyph glyph-name="Ohorn" unicode="&#x1a0;" horiz-adv-x="567" 
d="M514 108q-21 -36 -55 -60.5t-75.5 -37.5t-86.5 -14.5t-87.5 8t-80 30.5t-62.5 53q-38 48 -54.5 109t-14 126t22.5 128t55.5 115.5t85 89t110.5 47.5q57 10 102 -14t80 -70q16 -1 29 1.5t18.5 11t1.5 26t-21 46.5q-6 16 -1 29t14.5 18.5t22 2t21.5 -19.5q5 -16 10.5 -40.5
t4.5 -48.5t-11.5 -42.5t-36.5 -21.5q-12 -3 -27 -1q31 -54 49.5 -121t23 -132.5t-4.5 -123.5t-33 -94zM128 101q31 -28 80 -39.5t100.5 -7.5t97.5 23t72 51q24 32 32 85.5t1.5 114t-26.5 121.5t-52 107.5t-74.5 71.5t-94.5 15q-58 -11 -102.5 -45t-73.5 -81.5t-42 -104.5
t-8.5 -113.5t26.5 -108.5t64 -89z" />
    <glyph glyph-name="ohorn" unicode="&#x1a1;" horiz-adv-x="542" 
d="M46 389q31 54 84.5 82t113 30t116.5 -21t95 -70q0 -1 2 -3q15 -5 27 -5.5t19 7t7.5 25t-8.5 49.5q-2 18 6 29t19 13.5t21.5 -4t15.5 -24.5q1 -17 0 -42t-8 -47.5t-22 -37.5t-41 -12h-5q35 -67 31.5 -134t-39 -119.5t-99.5 -83.5t-149 -27q-51 3 -92 22.5t-70.5 50.5
t-46.5 70.5t-20.5 82.5t7 86.5t36.5 82.5zM384 404q-31 28 -71.5 36.5t-81.5 1t-79 -29t-63 -53.5q-37 -48 -41.5 -104t17 -104.5t66.5 -82.5t107 -38q59 -4 104.5 11.5t75.5 44.5t44 68t10 82t-25.5 86.5t-62.5 81.5z" />
    <glyph glyph-name="Uhorn" unicode="&#x1af;" horiz-adv-x="514" 
d="M8 659q1 16 9.5 25.5t19 10.5t19.5 -7t11 -26q-1 -24 -4.5 -64t-7 -88t-6.5 -99.5t-3.5 -99t3 -87.5t12.5 -63q24 -64 63.5 -97.5t84.5 -40.5t90.5 11.5t81 58.5t56.5 99.5t18 135.5q0 2 -2 27t-5 61.5t-7 78.5t-7 78l-5 60l-2 24q-8 25 4.5 38t33.5 -6l-3 4l6 -6h-1
q5 -7 8.5 -25t6.5 -44q17 -1 30.5 1t19.5 10.5t2.5 26t-21.5 47.5q-6 16 -1 29t14.5 18.5t22 2t21.5 -19.5q5 -16 10.5 -40.5t4.5 -48.5t-11.5 -42.5t-36.5 -21.5q-13 -2 -25.5 -1t-26.5 3q3 -40 5.5 -85t3.5 -85t1.5 -71t0.5 -42q-1 -65 -18 -122.5t-51 -101t-84 -67.5
t-117 -21q-62 3 -103.5 26.5t-67 62.5t-36.5 90t-13 109q-1 15 -1 45v68t0.5 79.5t1 79.5t1 67.5t0.5 44.5z" />
    <glyph glyph-name="uhorn" unicode="&#x1b0;" horiz-adv-x="510" 
d="M9 450q1 16 10.5 26.5t21 12.5t21.5 -5.5t12 -25.5q-2 -37 -6.5 -74.5t-7 -75t0 -74.5t14.5 -73q26 -75 66.5 -108.5t85 -35t88 24.5t74.5 69.5t45 100t0 116.5q-1 3 -5 22t-9 40.5t-9 39.5l-4 18q-4 12 0 23.5t12.5 18t19.5 7t22 -9.5l-3 4l4 -4q0 -1 0.5 -1t0.5 -1h1
h-1q8 -11 14 -33.5t10 -48.5q11 -2 19 0.5t12 11.5t3 25.5t-8 42.5q-2 18 6 29t19 13.5t21.5 -4t15.5 -24.5q1 -17 0 -42t-8 -47.5t-22 -37.5t-41 -12q-8 0 -12 1q2 -17 3 -31.5t3 -25.5q7 -60 -9 -118t-52 -103t-89.5 -71t-121.5 -23q-62 3 -103.5 26.5t-67 62.5t-36.5 90
t-13 109q-2 45 0.5 87.5t2.5 87.5z" />
    <glyph glyph-name="circumflex" unicode="&#x2c6;" horiz-adv-x="364" 
d="M48 731q-16 -2 -25 4.5t-11.5 17t2.5 22t17 19.5q62 80 103 108.5t73.5 19t64 -50t75.5 -97.5l-2 -3q-8 -13 -18 -19t-26 -2q-16 13 -27.5 32t-23.5 38.5t-25.5 37t-33.5 27.5q-20 -16 -37 -36.5t-33.5 -41.5t-34 -41t-38.5 -35z" />
    <glyph glyph-name="caron" unicode="&#x2c7;" horiz-adv-x="353" 
d="M43 919q21 -15 38.5 -35t34 -41t33.5 -41.5t37 -36.5q20 10 34 27t25.5 36.5t23.5 38.5t27 33q16 4 26 -2t18 -19l2 -3q-44 -57 -75.5 -97.5t-64 -50t-73.5 19t-103 108.5q-12 8 -17 19.5t-2.5 22t11.5 17t25 4.5z" />
    <glyph glyph-name="dotaccent" unicode="&#x2d9;" horiz-adv-x="128" 
d="M59 809q-30 7 -42 17t-10.5 19.5t14 17t31.5 10.5q28 -5 39.5 -17t11 -24t-12.5 -20t-31 -3z" />
    <glyph glyph-name="ring" unicode="&#x2da;" horiz-adv-x="203" 
d="M124 772q-54 -1 -81.5 10.5t-36 29.5t-1.5 39t24 39.5t40 31t46 14t42 -12.5t28 -48q3 -15 2 -33t-8 -34t-20.5 -26.5t-34.5 -9.5zM101 809q19 -5 31 2.5t12.5 19.5t-11 24.5t-39.5 17.5q-19 -3 -31.5 -10.5t-14 -17t10.5 -19.5t42 -17z" />
    <glyph glyph-name="tilde" unicode="&#x2dc;" horiz-adv-x="342" 
d="M73 800q-9 -15 -22 -19.5t-23.5 0t-15 16t2.5 28.5q8 14 23.5 34t34.5 34.5t40 18t40 -14.5q12 -11 21 -25t17.5 -28.5t18.5 -27t24 -20.5q15 4 21 17t7.5 27.5t0 26t-1.5 12.5q1 16 10.5 26.5t21 12.5t21.5 -5.5t12 -25.5q-1 -16 -5.5 -36.5t-13 -39.5t-21.5 -34
t-32 -20q-4 -1 -16 -3.5t-18 0.5q-14 8 -27 25t-25 34.5t-23.5 32t-23 17t-23.5 -11t-25 -51.5z" />
    <glyph glyph-name="hookabovecomb" unicode="&#x309;" horiz-adv-x="313" 
d="M135 573q3 21 1 34.5t-3.5 21.5t1.5 10.5t16 1.5l22.5 -1.5t15.5 4.5q10 4 17.5 14t10 22.5t-2.5 24.5t-20 19q-8 3 -20 2.5t-25.5 -3.5t-26.5 -7.5t-21 -10.5q-7 -5 -14 -3.5t-11.5 7t-5.5 13.5t4 15q6 10 16.5 17t22.5 10.5t23.5 5t19.5 0.5q25 0 43.5 -12t29 -30
t12.5 -38.5t-6 -38t-26.5 -28t-49.5 -8.5l8 -37q-1 -4 -5.5 -7t-10 -4.5t-10 0t-5.5 6.5z" />
    <glyph glyph-name="dotbelowcomb" unicode="&#x323;" horiz-adv-x="128" 
d="M59 -136q-30 7 -42 17t-10.5 19.5t14 17t31.5 10.5q28 -5 39.5 -17.5t11 -24.5t-12.5 -19.5t-31 -2.5z" />
    <glyph glyph-name="uni1E1E" unicode="&#x1e1e;" 
d="M72 1q-13 -2 -19.5 28.5t-9 82t-2.5 117t-1.5 133.5t-6 131.5t-15.5 111.5q-14 4 -20 13.5t-4.5 20t9.5 20t21 13.5q24 -3 58.5 -4t73 -1t79 1t78 2.5t69 3.5t51.5 4q4 0 7 -0.5t7 -1.5q17 -1 24.5 -10t6 -20t-10 -21t-23.5 -13q-4 0 -7.5 -0.5t-7.5 -0.5t-8 2
q-82 6 -171 5t-171 -8q-1 -32 -1.5 -52.5t-0.5 -38t1 -37.5t2 -51q28 -4 64 -5t72 1t68.5 6.5t52.5 10.5q18 5 28.5 -1.5t13 -18t-3.5 -24t-21 -19.5q-33 0 -67 1.5t-68.5 1.5t-68.5 -2.5t-67 -10.5q-1 -25 1.5 -62.5t6 -78.5t6 -82t1.5 -74t-7 -53t-19 -20zM257 1009
q-30 7 -42 17t-10.5 19.5t14 17t31.5 10.5q28 -5 39.5 -17t11 -24t-12.5 -20t-31 -3z" />
    <glyph glyph-name="uni1E4C" unicode="&#x1e4c;" horiz-adv-x="567" 
d="M514 108q-21 -36 -55 -60.5t-75.5 -37.5t-86.5 -14.5t-87.5 8t-80 30.5t-62.5 53q-38 48 -54.5 109t-14 126t22.5 128t55.5 115.5t85 89t110.5 47.5q46 8 84.5 -7t70 -46t55.5 -75.5t40 -95t24 -103.5t7 -103t-10.5 -92.5t-28.5 -71.5zM128 101q31 -28 80 -39.5
t100.5 -7.5t97.5 23t72 51q24 32 32 85.5t1.5 114t-26.5 121.5t-52 107.5t-74.5 71.5t-94.5 15q-58 -11 -102.5 -45t-73.5 -81.5t-42 -104.5t-8.5 -113.5t26.5 -108.5t64 -89zM172 800q-9 -15 -22 -19.5t-23.5 0t-15 16t2.5 28.5q8 14 23.5 34t34.5 34.5t40 18t40 -14.5
q12 -11 21 -25t17.5 -28.5t18.5 -27t24 -20.5q15 4 21 17t7.5 27.5t0 26t-1.5 12.5q1 16 10.5 26.5t21 12.5t21.5 -5.5t12 -25.5q-1 -16 -5.5 -36.5t-13 -39.5t-21.5 -34t-32 -20q-4 -1 -16 -3.5t-18 0.5q-14 8 -27 25t-25 35t-23 32t-23 16.5t-24 -11t-25 -51.5zM391 1059
q-29 -7 -53 -20.5t-46 -30.5t-43 -36.5t-42 -37.5q-15 -4 -27 3t-17 18.5t-1 24t20 19.5q48 30 92.5 58.5t82.5 62.5q15 6 27.5 1t18.5 -15.5t4 -23.5t-16 -23z" />
    <glyph glyph-name="uni1EA0" unicode="&#x1ea0;" horiz-adv-x="685" 
d="M6 321q-11 18 -10 28.5t8 15.5t18 5.5t20 0t13 -1t-2 1.5l54 -2q6 46 16 91.5t27 91.5q21 56 54 91t72.5 52.5t83 17.5t86 -15t80.5 -44.5t67 -71.5q17 -25 29 -68t20.5 -95.5t12.5 -110.5t5.5 -111.5t0 -98.5t-4.5 -73q-5 -19 -17 -26t-24 -5t-19.5 13t-2.5 28
q6 76 11 154.5t1 166.5q-52 2 -110.5 -1t-118 -9t-117 -13t-108.5 -14h-2q-2 -39 -1 -78t3 -75.5t4 -69.5t3 -60q-3 -14 -12 -22.5t-19 -10.5t-20 4t-14 21q1 72 1.5 143t6.5 141q-28 -4 -56.5 -3.5t-38.5 12.5zM154 368q50 0 107 6t115 14.5t115 17.5t108 15q-5 39 -15 74
t-25 62q-20 35 -52 62.5t-70.5 42.5t-79.5 14t-78 -23q-32 -19 -54.5 -49t-37.5 -67.5t-23.5 -80.5t-11.5 -88h2zM349 -136q-30 7 -42 17t-10.5 19.5t14 17t31.5 10.5q28 -5 39.5 -17.5t11 -24.5t-12.5 -19.5t-31 -2.5z" />
    <glyph glyph-name="uni1EA1" unicode="&#x1ea1;" 
d="M96 450q34 26 75 37t80.5 5.5t73 -28t51.5 -64.5l-12 98q1 9 6 16t11.5 10t13.5 0.5t12 -11.5h1v-3q13 -60 19.5 -121t10.5 -122t7.5 -122.5t10.5 -122.5l3 -12q0 -3 -0.5 -6t-0.5 -6v-5h-1q-4 -11 -12 -19t-16.5 -9.5t-16 4t-10.5 21.5l-6 150l-3 -5q-18 -24 -48 -42.5
t-66.5 -29.5t-75.5 -12.5t-74.5 6.5t-64.5 27.5t-44 52.5q-20 41 -27 82t1.5 81t33 77.5t68.5 72.5zM392 199q-4 63 -6 87.5t-8 30.5q0 22 -21 47.5t-52 45t-68 27.5t-68 -4q-35 -11 -63.5 -42t-45 -70.5t-18.5 -82.5t17 -79q8 -14 19.5 -25t23.5 -21q29 -24 73.5 -27
t89 10.5t80 40.5t47.5 62zM257 -136q-30 7 -42 17t-10.5 19.5t14 17t31.5 10.5q28 -5 39.5 -17.5t11 -24.5t-12.5 -19.5t-31 -2.5z" />
    <glyph glyph-name="uni1EA2" unicode="&#x1ea2;" horiz-adv-x="685" 
d="M6 321q-11 18 -10 28.5t8 15.5t18 5.5t20 0t13 -1t-2 1.5l54 -2q6 46 16 91.5t27 91.5q21 56 54 91t72.5 52.5t83 17.5t86 -15t80.5 -44.5t67 -71.5q17 -25 29 -68t20.5 -95.5t12.5 -110.5t5.5 -111.5t0 -98.5t-4.5 -73q-5 -19 -17 -26t-24 -5t-19.5 13t-2.5 28
q6 76 11 154.5t1 166.5q-52 2 -110.5 -1t-118 -9t-117 -13t-108.5 -14h-2q-2 -39 -1 -78t3 -75.5t4 -69.5t3 -60q-3 -14 -12 -22.5t-19 -10.5t-20 4t-14 21q1 72 1.5 143t6.5 141q-28 -4 -56.5 -3.5t-38.5 12.5zM154 368q50 0 107 6t115 14.5t115 17.5t108 15q-5 39 -15 74
t-25 62q-20 35 -52 62.5t-70.5 42.5t-79.5 14t-78 -23q-32 -19 -54.5 -49t-37.5 -67.5t-23.5 -80.5t-11.5 -88h2zM338 735q3 21 1 34.5t-3.5 21.5t1.5 10.5t16 1.5l22.5 -1.5t15.5 4.5q10 4 17.5 14t10 22.5t-2.5 24.5t-20 19q-8 3 -20 2.5t-25.5 -3.5t-26.5 -7.5t-21 -10.5
q-7 -5 -14 -3.5t-11.5 7t-5.5 13.5t4 15q6 10 16.5 17t22.5 10.5t23.5 5t19.5 0.5q25 0 43.5 -12t29 -30t12.5 -38.5t-6 -38t-26.5 -28t-49.5 -8.5l8 -37q-1 -4 -5.5 -7t-10 -4.5t-10 0t-5.5 6.5z" />
    <glyph glyph-name="uni1EA3" unicode="&#x1ea3;" 
d="M96 450q34 26 75 37t80.5 5.5t73 -28t51.5 -64.5l-12 98q1 9 6 16t11.5 10t13.5 0.5t12 -11.5h1v-3q13 -60 19.5 -121t10.5 -122t7.5 -122.5t10.5 -122.5l3 -12q0 -3 -0.5 -6t-0.5 -6v-5h-1q-4 -11 -12 -19t-16.5 -9.5t-16 4t-10.5 21.5l-6 150l-3 -5q-18 -24 -48 -42.5
t-66.5 -29.5t-75.5 -12.5t-74.5 6.5t-64.5 27.5t-44 52.5q-20 41 -27 82t1.5 81t33 77.5t68.5 72.5zM392 199q-4 63 -6 87.5t-8 30.5q0 22 -21 47.5t-52 45t-68 27.5t-68 -4q-35 -11 -63.5 -42t-45 -70.5t-18.5 -82.5t17 -79q8 -14 19.5 -25t23.5 -21q29 -24 73.5 -27
t89 10.5t80 40.5t47.5 62zM211 548q3 21 1 34.5t-3.5 21.5t1.5 10.5t16 1.5l22.5 -1.5t15.5 4.5q10 4 17.5 14t10 22.5t-2.5 24.5t-20 19q-8 3 -20 2.5t-25.5 -3.5t-26.5 -7.5t-21 -10.5q-7 -5 -14 -3.5t-11.5 7t-5.5 13.5t4 15q6 10 16.5 17t22.5 10.5t23.5 5t19.5 0.5
q25 0 43.5 -12t29 -30t12.5 -38.5t-6 -38t-26.5 -28t-49.5 -8.5l8 -37q-1 -4 -5.5 -7t-10 -4.5t-10 0t-5.5 6.5z" />
    <glyph glyph-name="uni1EA4" unicode="&#x1ea4;" horiz-adv-x="685" 
d="M6 321q-11 18 -10 28.5t8 15.5t18 5.5t20 0t13 -1t-2 1.5l54 -2q6 46 16 91.5t27 91.5q21 56 54 91t72.5 52.5t83 17.5t86 -15t80.5 -44.5t67 -71.5q17 -25 29 -68t20.5 -95.5t12.5 -110.5t5.5 -111.5t0 -98.5t-4.5 -73q-5 -19 -17 -26t-24 -5t-19.5 13t-2.5 28
q6 76 11 154.5t1 166.5q-52 2 -110.5 -1t-118 -9t-117 -13t-108.5 -14h-2q-2 -39 -1 -78t3 -75.5t4 -69.5t3 -60q-3 -14 -12 -22.5t-19 -10.5t-20 4t-14 21q1 72 1.5 143t6.5 141q-28 -4 -56.5 -3.5t-38.5 12.5zM154 368q50 0 107 6t115 14.5t115 17.5t108 15q-5 39 -15 74
t-25 62q-20 35 -52 62.5t-70.5 42.5t-79.5 14t-78 -23q-32 -19 -54.5 -49t-37.5 -67.5t-23.5 -80.5t-11.5 -88h2zM221 731q-16 -2 -25 4.5t-11 17t2.5 22t16.5 19.5q62 80 103 108.5t73.5 19t64 -50t75.5 -97.5l-2 -3q-8 -13 -18 -19t-26 -2q-16 13 -27.5 32t-23.5 38.5
t-25.5 37t-33.5 27.5q-20 -16 -37 -36.5t-33.5 -42t-34 -41t-38.5 -34.5zM450 1059q-29 -7 -53 -20.5t-46 -30.5t-43 -36.5t-42 -37.5q-15 -4 -27 3t-17 18.5t-1 24t20 19.5q48 30 92.5 58.5t82.5 62.5q15 6 27.5 1t18.5 -15.5t4 -23.5t-16 -23z" />
    <glyph glyph-name="uni1EA5" unicode="&#x1ea5;" 
d="M96 450q34 26 74 37t78 5.5t70 -28t50 -64.5l-12 98q1 9 6 16t11.5 10t13.5 0.5t12 -11.5h1v-3q14 -54 25 -110.5t9 -113.5q8 -66 13 -132t9 -132l3 -12q0 -3 -0.5 -6t-0.5 -6v-5h-1q-4 -12 -13 -19.5t-19 -9t-19 4.5t-12 21l-6 150l-3 -5q-18 -25 -47.5 -43.5t-65 -29
t-73.5 -12t-73 7t-63 28t-43 51.5q-20 41 -27 82t1.5 81t33 77.5t68.5 72.5zM384 199q-2 32 -3.5 53t-2.5 34.5t-3 20.5t-5 10q0 22 -19.5 48t-49.5 45t-65.5 27t-66.5 -4q-35 -11 -63.5 -42t-45 -70.5t-18.5 -82.5t17 -79q8 -14 19.5 -25t23.5 -21q29 -24 72.5 -27t86 10
t77 40t46.5 63zM94 604q-16 -2 -25 4.5t-11 17t2.5 22t16.5 19.5q62 80 103 108.5t73.5 19t64 -50t75.5 -97.5l-2 -3q-8 -13 -18 -19t-26 -2q-16 13 -27.5 32t-23.5 38.5t-25.5 37t-33.5 27.5q-20 -16 -37 -36.5t-33.5 -42t-34 -41t-38.5 -34.5zM321 911q-29 -7 -53 -20.5
t-46 -30.5t-43 -36.5t-42 -37.5q-15 -4 -27 3t-17 18.5t-1 24t20 19.5q48 30 92.5 58.5t82.5 62.5q15 6 27.5 1t18.5 -15.5t4 -23.5t-16 -23z" />
    <glyph glyph-name="uni1EA6" unicode="&#x1ea6;" horiz-adv-x="685" 
d="M6 321q-11 18 -10 28.5t8 15.5t18 5.5t20 0t13 -1t-2 1.5l54 -2q6 46 16 91.5t27 91.5q21 56 54 91t72.5 52.5t83 17.5t86 -15t80.5 -44.5t67 -71.5q17 -25 29 -68t20.5 -95.5t12.5 -110.5t5.5 -111.5t0 -98.5t-4.5 -73q-5 -19 -17 -26t-24 -5t-19.5 13t-2.5 28
q6 76 11 154.5t1 166.5q-52 2 -110.5 -1t-118 -9t-117 -13t-108.5 -14h-2q-2 -39 -1 -78t3 -75.5t4 -69.5t3 -60q-3 -14 -12 -22.5t-19 -10.5t-20 4t-14 21q1 72 1.5 143t6.5 141q-28 -4 -56.5 -3.5t-38.5 12.5zM154 368q50 0 107 6t115 14.5t115 17.5t108 15q-5 39 -15 74
t-25 62q-20 35 -52 62.5t-70.5 42.5t-79.5 14t-78 -23q-32 -19 -54.5 -49t-37.5 -67.5t-23.5 -80.5t-11.5 -88h2zM221 731q-16 -2 -25 4.5t-11 17t2.5 22t16.5 19.5q62 80 103 108.5t73.5 19t64 -50t75.5 -97.5l-2 -3q-8 -13 -18 -19t-26 -2q-16 13 -27.5 32t-23.5 38.5
t-25.5 37t-33.5 27.5q-20 -16 -37 -36.5t-33.5 -42t-34 -41t-38.5 -34.5zM292 1037q-14 10 -16 23t4 23.5t18.5 15.5t27.5 -1q38 -34 82.5 -62.5t92.5 -58.5q16 -7 20 -19.5t-1 -24t-17 -18.5t-27 -3q-21 18 -42 37.5t-43 36.5t-46.5 30.5t-52.5 20.5z" />
    <glyph glyph-name="uni1EA7" unicode="&#x1ea7;" 
d="M96 450q34 26 74 37t78 5.5t70 -28t50 -64.5l-12 98q1 9 6 16t11.5 10t13.5 0.5t12 -11.5h1v-3q14 -54 25 -110.5t9 -113.5q8 -66 13 -132t9 -132l3 -12q0 -3 -0.5 -6t-0.5 -6v-5h-1q-4 -12 -13 -19.5t-19 -9t-19 4.5t-12 21l-6 150l-3 -5q-18 -25 -47.5 -43.5t-65 -29
t-73.5 -12t-73 7t-63 28t-43 51.5q-20 41 -27 82t1.5 81t33 77.5t68.5 72.5zM384 199q-2 32 -3.5 53t-2.5 34.5t-3 20.5t-5 10q0 22 -19.5 48t-49.5 45t-65.5 27t-66.5 -4q-35 -11 -63.5 -42t-45 -70.5t-18.5 -82.5t17 -79q8 -14 19.5 -25t23.5 -21q29 -24 72.5 -27t86 10
t77 40t46.5 63zM94 604q-16 -2 -25 4.5t-11 17t2.5 22t16.5 19.5q62 80 103 108.5t73.5 19t64 -50t75.5 -97.5l-2 -3q-8 -13 -18 -19t-26 -2q-16 13 -27.5 32t-23.5 38.5t-25.5 37t-33.5 27.5q-20 -16 -37 -36.5t-33.5 -42t-34 -41t-38.5 -34.5zM173 894q-14 10 -16 23
t4 23.5t18.5 15.5t27.5 -1q38 -34 82.5 -62.5t92.5 -58.5q16 -7 20 -19.5t-1 -24t-17 -18.5t-27 -3q-21 18 -42 37.5t-43 36.5t-46.5 30.5t-52.5 20.5z" />
    <glyph glyph-name="uni1EA8" unicode="&#x1ea8;" horiz-adv-x="685" 
d="M6 321q-11 18 -10 28.5t8 15.5t18 5.5t20 0t13 -1t-2 1.5l54 -2q6 46 16 91.5t27 91.5q21 56 54 91t72.5 52.5t83 17.5t86 -15t80.5 -44.5t67 -71.5q17 -25 29 -68t20.5 -95.5t12.5 -110.5t5.5 -111.5t0 -98.5t-4.5 -73q-5 -19 -17 -26t-24 -5t-19.5 13t-2.5 28
q6 76 11 154.5t1 166.5q-52 2 -110.5 -1t-118 -9t-117 -13t-108.5 -14h-2q-2 -39 -1 -78t3 -75.5t4 -69.5t3 -60q-3 -14 -12 -22.5t-19 -10.5t-20 4t-14 21q1 72 1.5 143t6.5 141q-28 -4 -56.5 -3.5t-38.5 12.5zM154 368q50 0 107 6t115 14.5t115 17.5t108 15q-5 39 -15 74
t-25 62q-20 35 -52 62.5t-70.5 42.5t-79.5 14t-78 -23q-32 -19 -54.5 -49t-37.5 -67.5t-23.5 -80.5t-11.5 -88h2zM221 731q-16 -2 -25 4.5t-11 17t2.5 22t16.5 19.5q62 80 103 108.5t73.5 19t64 -50t75.5 -97.5l-2 -3q-8 -13 -18 -19t-26 -2q-16 13 -27.5 32t-23.5 38.5
t-25.5 37t-33.5 27.5q-20 -16 -37 -36.5t-33.5 -42t-34 -41t-38.5 -34.5zM462 887q3 21 1 34.5t-3.5 21.5t1.5 10.5t16 1.5l22.5 -1.5t15.5 4.5q10 4 17.5 14t10 22.5t-2.5 24.5t-20 19q-8 3 -20 2.5t-25.5 -3.5t-26.5 -7.5t-21 -10.5q-7 -5 -14 -3.5t-11.5 7t-5.5 13.5
t4 15q6 10 16.5 17t22.5 10.5t23.5 5t19.5 0.5q25 0 43.5 -12t29 -30t12.5 -38.5t-6 -38t-26.5 -28t-49.5 -8.5l8 -37q-1 -4 -5.5 -7t-10 -4.5t-10 0t-5.5 6.5z" />
    <glyph glyph-name="uni1EA9" unicode="&#x1ea9;" 
d="M96 450q34 26 74 37t78 5.5t70 -28t50 -64.5l-12 98q1 9 6 16t11.5 10t13.5 0.5t12 -11.5h1v-3q14 -54 25 -110.5t9 -113.5q8 -66 13 -132t9 -132l3 -12q0 -3 -0.5 -6t-0.5 -6v-5h-1q-4 -12 -13 -19.5t-19 -9t-19 4.5t-12 21l-6 150l-3 -5q-18 -25 -47.5 -43.5t-65 -29
t-73.5 -12t-73 7t-63 28t-43 51.5q-20 41 -27 82t1.5 81t33 77.5t68.5 72.5zM384 199q-2 32 -3.5 53t-2.5 34.5t-3 20.5t-5 10q0 22 -19.5 48t-49.5 45t-65.5 27t-66.5 -4q-35 -11 -63.5 -42t-45 -70.5t-18.5 -82.5t17 -79q8 -14 19.5 -25t23.5 -21q29 -24 72.5 -27t86 10
t77 40t46.5 63zM94 604q-16 -2 -25 4.5t-11 17t2.5 22t16.5 19.5q62 80 103 108.5t73.5 19t64 -50t75.5 -97.5l-2 -3q-8 -13 -18 -19t-26 -2q-16 13 -27.5 32t-23.5 38.5t-25.5 37t-33.5 27.5q-20 -16 -37 -36.5t-33.5 -42t-34 -41t-38.5 -34.5zM309 796q3 21 1 34.5
t-3.5 21.5t1.5 10.5t16 1.5l22.5 -1.5t15.5 4.5q10 4 17.5 14t10 22.5t-2.5 24.5t-20 19q-8 3 -20 2.5t-25.5 -3.5t-26.5 -7.5t-21 -10.5q-7 -5 -14 -3.5t-11.5 7t-5.5 13.5t4 15q6 10 16.5 17t22.5 10.5t23.5 5t19.5 0.5q25 0 43.5 -12t29 -30t12.5 -38.5t-6 -38t-26.5 -28
t-49.5 -8.5l8 -37q-1 -4 -5.5 -7t-10 -4.5t-10 0t-5.5 6.5z" />
    <glyph glyph-name="uni1EAA" unicode="&#x1eaa;" horiz-adv-x="685" 
d="M6 321q-11 18 -10 28.5t8 15.5t18 5.5t20 0t13 -1t-2 1.5l54 -2q6 46 16 91.5t27 91.5q21 56 54 91t72.5 52.5t83 17.5t86 -15t80.5 -44.5t67 -71.5q17 -25 29 -68t20.5 -95.5t12.5 -110.5t5.5 -111.5t0 -98.5t-4.5 -73q-5 -19 -17 -26t-24 -5t-19.5 13t-2.5 28
q6 76 11 154.5t1 166.5q-52 2 -110.5 -1t-118 -9t-117 -13t-108.5 -14h-2q-2 -39 -1 -78t3 -75.5t4 -69.5t3 -60q-3 -14 -12 -22.5t-19 -10.5t-20 4t-14 21q1 72 1.5 143t6.5 141q-28 -4 -56.5 -3.5t-38.5 12.5zM154 368q50 0 107 6t115 14.5t115 17.5t108 15q-5 39 -15 74
t-25 62q-20 35 -52 62.5t-70.5 42.5t-79.5 14t-78 -23q-32 -19 -54.5 -49t-37.5 -67.5t-23.5 -80.5t-11.5 -88h2zM221 731q-16 -2 -25 4.5t-11 17t2.5 22t16.5 19.5q62 80 103 108.5t73.5 19t64 -50t75.5 -97.5l-2 -3q-8 -13 -18 -19t-26 -2q-16 13 -27.5 32t-23.5 38.5
t-25.5 37t-33.5 27.5q-20 -16 -37 -36.5t-33.5 -42t-34 -41t-38.5 -34.5zM254 1000q-9 -15 -22 -19.5t-23.5 0t-15 16t2.5 28.5q8 14 23.5 34t34.5 34.5t40 18t40 -14.5q12 -11 21 -25t17.5 -28.5t18.5 -27t24 -20.5q15 4 21 17t7.5 27.5t0 26t-1.5 12.5q1 16 10.5 26.5
t21 12.5t21.5 -5.5t12 -25.5q-1 -16 -5.5 -36.5t-13 -39.5t-21.5 -34t-32 -20q-4 -1 -16 -3.5t-18 0.5q-14 8 -27 25t-25 34.5t-23.5 32t-23 17t-23.5 -11t-25 -51.5z" />
    <glyph glyph-name="uni1EAB" unicode="&#x1eab;" 
d="M96 450q34 26 74 37t78 5.5t70 -28t50 -64.5l-12 98q1 9 6 16t11.5 10t13.5 0.5t12 -11.5h1v-3q14 -54 25 -110.5t9 -113.5q8 -66 13 -132t9 -132l3 -12q0 -3 -0.5 -6t-0.5 -6v-5h-1q-4 -12 -13 -19.5t-19 -9t-19 4.5t-12 21l-6 150l-3 -5q-18 -25 -47.5 -43.5t-65 -29
t-73.5 -12t-73 7t-63 28t-43 51.5q-20 41 -27 82t1.5 81t33 77.5t68.5 72.5zM384 199q-2 32 -3.5 53t-2.5 34.5t-3 20.5t-5 10q0 22 -19.5 48t-49.5 45t-65.5 27t-66.5 -4q-35 -11 -63.5 -42t-45 -70.5t-18.5 -82.5t17 -79q8 -14 19.5 -25t23.5 -21q29 -24 72.5 -27t86 10
t77 40t46.5 63zM94 604q-16 -2 -25 4.5t-11 17t2.5 22t16.5 19.5q62 80 103 108.5t73.5 19t64 -50t75.5 -97.5l-2 -3q-8 -13 -18 -19t-26 -2q-16 13 -27.5 32t-23.5 38.5t-25.5 37t-33.5 27.5q-20 -16 -37 -36.5t-33.5 -42t-34 -41t-38.5 -34.5zM162 872q-9 -15 -22 -19.5
t-23.5 0t-15 16t2.5 28.5q8 14 23.5 34t34.5 34.5t40 18t40 -14.5q12 -11 21 -25t17.5 -28.5t18.5 -27t24 -20.5q15 4 21 17t7.5 27.5t0 26t-1.5 12.5q1 16 10.5 26.5t21 12.5t21.5 -5.5t12 -25.5q-1 -16 -5.5 -36.5t-13 -39.5t-21.5 -34t-32 -20q-4 -1 -16 -3.5t-18 0.5
q-14 8 -27 25t-25 34.5t-23.5 32t-23 17t-23.5 -11t-25 -51.5z" />
    <glyph glyph-name="uni1EAC" unicode="&#x1eac;" horiz-adv-x="685" 
d="M349 -136q-30 7 -42 17t-10.5 19.5t14 17t31.5 10.5q28 -5 39.5 -17.5t11 -24.5t-12.5 -19.5t-31 -2.5zM6 321q-11 18 -10 28.5t8 15.5t18 5.5t20 0t13 -1t-2 1.5l54 -2q6 46 16 91.5t27 91.5q21 56 54 91t72.5 52.5t83 17.5t86 -15t80.5 -44.5t67 -71.5q17 -25 29 -68
t20.5 -95.5t12.5 -110.5t5.5 -111.5t0 -98.5t-4.5 -73q-5 -19 -17 -26t-24 -5t-19.5 13t-2.5 28q6 76 11 154.5t1 166.5q-52 2 -110.5 -1t-118 -9t-117 -13t-108.5 -14h-2q-2 -39 -1 -78t3 -75.5t4 -69.5t3 -60q-3 -14 -12 -22.5t-19 -10.5t-20 4t-14 21q1 72 1.5 143
t6.5 141q-28 -4 -56.5 -3.5t-38.5 12.5zM154 368q50 0 107 6t115 14.5t115 17.5t108 15q-5 39 -15 74t-25 62q-20 35 -52 62.5t-70.5 42.5t-79.5 14t-78 -23q-32 -19 -54.5 -49t-37.5 -67.5t-23.5 -80.5t-11.5 -88h2zM221 731q-16 -2 -25 4.5t-11 17t2.5 22t16.5 19.5
q62 80 103 108.5t73.5 19t64 -50t75.5 -97.5l-2 -3q-8 -13 -18 -19t-26 -2q-16 13 -27.5 32t-23.5 38.5t-25.5 37t-33.5 27.5q-20 -16 -37 -36.5t-33.5 -42t-34 -41t-38.5 -34.5z" />
    <glyph glyph-name="uni1EAD" unicode="&#x1ead;" 
d="M257 -136q-30 7 -42 17t-10.5 19.5t14 17t31.5 10.5q28 -5 39.5 -17.5t11 -24.5t-12.5 -19.5t-31 -2.5zM96 450q34 26 74 37t78 5.5t70 -28t50 -64.5l-12 98q1 9 6 16t11.5 10t13.5 0.5t12 -11.5h1v-3q14 -54 25 -110.5t9 -113.5q8 -66 13 -132t9 -132l3 -12
q0 -3 -0.5 -6t-0.5 -6v-5h-1q-4 -12 -13 -19.5t-19 -9t-19 4.5t-12 21l-6 150l-3 -5q-18 -25 -47.5 -43.5t-65 -29t-73.5 -12t-73 7t-63 28t-43 51.5q-20 41 -27 82t1.5 81t33 77.5t68.5 72.5zM384 199q-2 32 -3.5 53t-2.5 34.5t-3 20.5t-5 10q0 22 -19.5 48t-49.5 45
t-65.5 27t-66.5 -4q-35 -11 -63.5 -42t-45 -70.5t-18.5 -82.5t17 -79q8 -14 19.5 -25t23.5 -21q29 -24 72.5 -27t86 10t77 40t46.5 63zM94 604q-16 -2 -25 4.5t-11 17t2.5 22t16.5 19.5q62 80 103 108.5t73.5 19t64 -50t75.5 -97.5l-2 -3q-8 -13 -18 -19t-26 -2
q-16 13 -27.5 32t-23.5 38.5t-25.5 37t-33.5 27.5q-20 -16 -37 -36.5t-33.5 -42t-34 -41t-38.5 -34.5z" />
    <glyph glyph-name="uni1EAE" unicode="&#x1eae;" horiz-adv-x="685" 
d="M222 832q-10 24 -9 42t10 29t23.5 13.5t32.5 -5.5q11 -6 9 -13.5t-5 -17t-1 -23t21 -31.5q24 -22 52 -21.5t45 9.5q16 8 22.5 20.5t8 24t0 20.5t-1.5 10q1 16 10.5 26.5t21 12.5t21.5 -5.5t12 -25.5q-1 -16 -7 -37t-19 -41t-34.5 -35.5t-54.5 -20.5q-20 -3 -43.5 0
t-45.5 12t-40.5 23t-27.5 34zM6 321q-11 18 -10.5 28.5t8 15.5t18.5 5.5t20 0t13 -1t-2 1.5l54 -2q6 46 16 91.5t27 91.5q31 83 88 121.5t121.5 39t127.5 -33.5t106 -97q17 -25 29 -68t20 -96t12.5 -110t5.5 -111t0 -99t-4 -73q-5 -19 -17 -26t-24 -5t-19.5 13t-2.5 28
q6 76 11 154.5t1 166.5q-52 2 -110.5 -1t-118 -8.5t-117 -13t-108.5 -14.5h-2q-2 -39 -1 -78t2.5 -75.5t4 -69.5t3.5 -60q-3 -14 -12 -22.5t-19.5 -10.5t-20 4t-13.5 21q1 72 1.5 143t6.5 141q-28 -4 -56.5 -3.5t-38.5 12.5zM154 368q50 0 107 6t115 14.5t115 17.5t108 15
q-5 39 -15 74t-25 62q-20 35 -52.5 62.5t-70.5 42.5t-79 14t-78 -23q-32 -19 -54.5 -49t-37.5 -67.5t-23.5 -80.5t-11.5 -88h2zM525 1059q-29 -7 -53 -20.5t-46 -30.5t-43 -36.5t-42 -37.5q-15 -4 -27 3t-17 18.5t-1 24t20 19.5q48 30 92.5 58.5t82.5 62.5q15 6 27.5 1
t18.5 -15.5t4 -23.5t-16 -23z" />
    <glyph glyph-name="uni1EAF" unicode="&#x1eaf;" 
d="M92 646q-10 24 -9 42t10 29t23.5 13.5t32.5 -5.5q11 -6 9 -13.5t-5 -17t-1 -23t21 -31.5q24 -22 52 -21.5t45 9.5q16 8 22.5 20.5t8 24t0 20.5t-1.5 10q1 16 10.5 26.5t21 12.5t21.5 -5.5t12 -25.5q-1 -16 -6.5 -38.5t-18 -43.5t-33.5 -37.5t-54 -21.5q-20 -3 -43 -2
t-45 9.5t-41 25t-31 43.5zM96 450q34 26 75 37t80.5 5.5t73 -28t51.5 -64.5l-12 98q1 9 6 16t11.5 10t13.5 0.5t12 -11.5h1v-3q13 -60 19.5 -121t10.5 -122t7.5 -122.5t10.5 -122.5l3 -12q0 -3 -0.5 -6t-0.5 -6v-5h-1q-4 -11 -12 -19t-16.5 -9.5t-16 4t-10.5 21.5l-6 150
l-3 -5q-18 -24 -48 -42.5t-66.5 -29.5t-75.5 -12.5t-74.5 6.5t-64.5 27.5t-44 52.5q-20 41 -27 82t1.5 81t33 77.5t68.5 72.5zM392 199q-4 63 -6 87.5t-8 30.5q0 22 -21 47.5t-52 45t-68 27.5t-68 -4q-35 -11 -63.5 -42t-45 -70.5t-18.5 -82.5t17 -79q8 -14 19.5 -25
t23.5 -21q29 -24 73.5 -27t89 10.5t80 40.5t47.5 62zM416 859q-29 -7 -53 -20.5t-46 -30.5t-43 -36.5t-42 -37.5q-15 -4 -27 3t-17 18.5t-1 24t20 19.5q48 30 92.5 58.5t82.5 62.5q15 6 27.5 1t18.5 -15.5t4 -23.5t-16 -23z" />
    <glyph glyph-name="uni1EB0" unicode="&#x1eb0;" horiz-adv-x="685" 
d="M222 832q-10 24 -9 42t10 29t23.5 13.5t32.5 -5.5q11 -6 9 -13.5t-5 -17t-1 -23t21 -31.5q24 -22 52 -21.5t45 9.5q16 8 22.5 20.5t8 24t0 20.5t-1.5 10q1 16 10.5 26.5t21 12.5t21.5 -5.5t12 -25.5q-1 -16 -7 -37t-19 -41t-34.5 -35.5t-54.5 -20.5q-20 -3 -43.5 0
t-45.5 12t-40.5 23t-27.5 34zM6 321q-11 18 -10.5 28.5t8 15.5t18.5 5.5t20 0t13 -1t-2 1.5l54 -2q6 46 16 91.5t27 91.5q31 83 88 121.5t121.5 39t127.5 -33.5t106 -97q17 -25 29 -68t20 -96t12.5 -110t5.5 -111t0 -99t-4 -73q-5 -19 -17 -26t-24 -5t-19.5 13t-2.5 28
q6 76 11 154.5t1 166.5q-52 2 -110.5 -1t-118 -8.5t-117 -13t-108.5 -14.5h-2q-2 -39 -1 -78t2.5 -75.5t4 -69.5t3.5 -60q-3 -14 -12 -22.5t-19.5 -10.5t-20 4t-13.5 21q1 72 1.5 143t6.5 141q-28 -4 -56.5 -3.5t-38.5 12.5zM154 368q50 0 107 6t115 14.5t115 17.5t108 15
q-5 39 -15 74t-25 62q-20 35 -52.5 62.5t-70.5 42.5t-79 14t-78 -23q-32 -19 -54.5 -49t-37.5 -67.5t-23.5 -80.5t-11.5 -88h2zM199 1059q-14 10 -16 23t4 23.5t18.5 15.5t27.5 -1q38 -34 82.5 -62.5t92.5 -58.5q16 -7 20 -19.5t-1 -24t-17 -18.5t-27 -3q-21 18 -42 37.5
t-43 36.5t-46.5 30.5t-52.5 20.5z" />
    <glyph glyph-name="uni1EB1" unicode="&#x1eb1;" 
d="M92 646q-10 24 -9 42t10 29t23.5 13.5t32.5 -5.5q11 -6 9 -13.5t-5 -17t-1 -23t21 -31.5q24 -22 52 -21.5t45 9.5q16 8 22.5 20.5t8 24t0 20.5t-1.5 10q1 16 10.5 26.5t21 12.5t21.5 -5.5t12 -25.5q-1 -16 -6.5 -38.5t-18 -43.5t-33.5 -37.5t-54 -21.5q-20 -3 -43 -2
t-45 9.5t-41 25t-31 43.5zM96 450q34 26 75 37t80.5 5.5t73 -28t51.5 -64.5l-12 98q1 9 6 16t11.5 10t13.5 0.5t12 -11.5h1v-3q13 -60 19.5 -121t10.5 -122t7.5 -122.5t10.5 -122.5l3 -12q0 -3 -0.5 -6t-0.5 -6v-5h-1q-4 -11 -12 -19t-16.5 -9.5t-16 4t-10.5 21.5l-6 150
l-3 -5q-18 -24 -48 -42.5t-66.5 -29.5t-75.5 -12.5t-74.5 6.5t-64.5 27.5t-44 52.5q-20 41 -27 82t1.5 81t33 77.5t68.5 72.5zM392 199q-4 63 -6 87.5t-8 30.5q0 22 -21 47.5t-52 45t-68 27.5t-68 -4q-35 -11 -63.5 -42t-45 -70.5t-18.5 -82.5t17 -79q8 -14 19.5 -25
t23.5 -21q29 -24 73.5 -27t89 10.5t80 40.5t47.5 62zM77 883q-14 10 -16 23t4 23.5t18.5 15.5t27.5 -1q38 -34 82.5 -62.5t92.5 -58.5q16 -7 20 -19.5t-1 -24t-17 -18.5t-27 -3q-21 18 -42 37.5t-43 36.5t-46.5 30.5t-52.5 20.5z" />
    <glyph glyph-name="uni1EB2" unicode="&#x1eb2;" horiz-adv-x="685" 
d="M222 832q-10 24 -9 42t10 29t23.5 13.5t32.5 -5.5q11 -6 9 -13.5t-5 -17t-1 -23t21 -31.5q24 -22 52 -21.5t45 9.5q16 8 22.5 20.5t8 24t0 20.5t-1.5 10q1 16 10.5 26.5t21 12.5t21.5 -5.5t12 -25.5q-1 -16 -7 -37t-19 -41t-34.5 -35.5t-54.5 -20.5q-20 -3 -43.5 0
t-45.5 12t-40.5 23t-27.5 34zM6 321q-11 18 -10.5 28.5t8 15.5t18.5 5.5t20 0t13 -1t-2 1.5l54 -2q6 46 16 91.5t27 91.5q31 83 88 121.5t121.5 39t127.5 -33.5t106 -97q17 -25 29 -68t20 -96t12.5 -110t5.5 -111t0 -99t-4 -73q-5 -19 -17 -26t-24 -5t-19.5 13t-2.5 28
q6 76 11 154.5t1 166.5q-52 2 -110.5 -1t-118 -8.5t-117 -13t-108.5 -14.5h-2q-2 -39 -1 -78t2.5 -75.5t4 -69.5t3.5 -60q-3 -14 -12 -22.5t-19.5 -10.5t-20 4t-13.5 21q1 72 1.5 143t6.5 141q-28 -4 -56.5 -3.5t-38.5 12.5zM154 368q50 0 107 6t115 14.5t115 17.5t108 15
q-5 39 -15 74t-25 62q-20 35 -52.5 62.5t-70.5 42.5t-79 14t-78 -23q-32 -19 -54.5 -49t-37.5 -67.5t-23.5 -80.5t-11.5 -88h2zM351 927q3 21 1 34.5t-3.5 21.5t1.5 10.5t16 1.5l22.5 -1.5t15.5 4.5q10 4 17.5 14t10 22.5t-2.5 24.5t-20 19q-8 3 -20 2.5t-25.5 -3.5
t-26.5 -7.5t-21 -10.5q-7 -5 -14 -3.5t-11.5 7t-5.5 13.5t4 15q6 10 16.5 17t22.5 10.5t23.5 5t19.5 0.5q25 0 43.5 -12t29 -30t12.5 -38.5t-6 -38t-26.5 -28t-49.5 -8.5l8 -37q-1 -4 -5.5 -7t-10 -4.5t-10 0t-5.5 6.5z" />
    <glyph glyph-name="uni1EB3" unicode="&#x1eb3;" 
d="M92 646q-10 24 -9 42t10 29t23.5 13.5t32.5 -5.5q11 -6 9 -13.5t-5 -17t-1 -23t21 -31.5q24 -22 52 -21.5t45 9.5q16 8 22.5 20.5t8 24t0 20.5t-1.5 10q1 16 10.5 26.5t21 12.5t21.5 -5.5t12 -25.5q-1 -16 -6.5 -38.5t-18 -43.5t-33.5 -37.5t-54 -21.5q-20 -3 -43 -2
t-45 9.5t-41 25t-31 43.5zM96 450q34 26 75 37t80.5 5.5t73 -28t51.5 -64.5l-12 98q1 9 6 16t11.5 10t13.5 0.5t12 -11.5h1v-3q13 -60 19.5 -121t10.5 -122t7.5 -122.5t10.5 -122.5l3 -12q0 -3 -0.5 -6t-0.5 -6v-5h-1q-4 -11 -12 -19t-16.5 -9.5t-16 4t-10.5 21.5l-6 150
l-3 -5q-18 -24 -48 -42.5t-66.5 -29.5t-75.5 -12.5t-74.5 6.5t-64.5 27.5t-44 52.5q-20 41 -27 82t1.5 81t33 77.5t68.5 72.5zM392 199q-4 63 -6 87.5t-8 30.5q0 22 -21 47.5t-52 45t-68 27.5t-68 -4q-35 -11 -63.5 -42t-45 -70.5t-18.5 -82.5t17 -79q8 -14 19.5 -25
t23.5 -21q29 -24 73.5 -27t89 10.5t80 40.5t47.5 62zM214 737q3 21 1 34.5t-3.5 21.5t1.5 10.5t16 1.5l22.5 -1.5t15.5 4.5q10 4 17.5 14t10 22.5t-2.5 24.5t-20 19q-8 3 -20 2.5t-25.5 -3.5t-26.5 -7.5t-21 -10.5q-7 -5 -14 -3.5t-11.5 7t-5.5 13.5t4 15q6 10 16.5 17
t22.5 10.5t23.5 5t19.5 0.5q25 0 43.5 -12t29 -30t12.5 -38.5t-6 -38t-26.5 -28t-49.5 -8.5l8 -37q-1 -4 -5.5 -7t-10 -4.5t-10 0t-5.5 6.5z" />
    <glyph glyph-name="uni1EB4" unicode="&#x1eb4;" horiz-adv-x="685" 
d="M222 832q-10 24 -9 42t10 29t23.5 13.5t32.5 -5.5q11 -6 9 -13.5t-5 -17t-1 -23t21 -31.5q24 -22 52 -21.5t45 9.5q16 8 22.5 20.5t8 24t0 20.5t-1.5 10q1 16 10.5 26.5t21 12.5t21.5 -5.5t12 -25.5q-1 -16 -7 -37t-19 -41t-34.5 -35.5t-54.5 -20.5q-20 -3 -43.5 0
t-45.5 12t-40.5 23t-27.5 34zM6 321q-11 18 -10.5 28.5t8 15.5t18.5 5.5t20 0t13 -1t-2 1.5l54 -2q6 46 16 91.5t27 91.5q31 83 88 121.5t121.5 39t127.5 -33.5t106 -97q17 -25 29 -68t20 -96t12.5 -110t5.5 -111t0 -99t-4 -73q-5 -19 -17 -26t-24 -5t-19.5 13t-2.5 28
q6 76 11 154.5t1 166.5q-52 2 -110.5 -1t-118 -8.5t-117 -13t-108.5 -14.5h-2q-2 -39 -1 -78t2.5 -75.5t4 -69.5t3.5 -60q-3 -14 -12 -22.5t-19.5 -10.5t-20 4t-13.5 21q1 72 1.5 143t6.5 141q-28 -4 -56.5 -3.5t-38.5 12.5zM154 368q50 0 107 6t115 14.5t115 17.5t108 15
q-5 39 -15 74t-25 62q-20 35 -52.5 62.5t-70.5 42.5t-79 14t-78 -23q-32 -19 -54.5 -49t-37.5 -67.5t-23.5 -80.5t-11.5 -88h2zM254 1000q-9 -15 -22 -19.5t-23.5 0t-15 16t2.5 28.5q8 14 23.5 34t34.5 34.5t40 18t40 -14.5q12 -11 21 -25t17.5 -28.5t18.5 -27t24 -20.5
q15 4 21 17t7.5 27.5t0 26t-1.5 12.5q1 16 10.5 26.5t21 12.5t21.5 -5.5t12 -25.5q-1 -16 -5.5 -36.5t-13 -39.5t-21.5 -34t-32 -20q-4 -1 -16 -3.5t-18 0.5q-14 8 -27 25t-25 34.5t-23.5 32t-23 17t-23.5 -11t-25 -51.5z" />
    <glyph glyph-name="uni1EB5" unicode="&#x1eb5;" 
d="M92 646q-10 24 -9 42t10 29t23.5 13.5t32.5 -5.5q11 -6 9 -13.5t-5 -17t-1 -23t21 -31.5q24 -22 52 -21.5t45 9.5q16 8 22.5 20.5t8 24t0 20.5t-1.5 10q1 16 10.5 26.5t21 12.5t21.5 -5.5t12 -25.5q-1 -16 -6.5 -38.5t-18 -43.5t-33.5 -37.5t-54 -21.5q-20 -3 -43 -2
t-45 9.5t-41 25t-31 43.5zM96 450q34 26 75 37t80.5 5.5t73 -28t51.5 -64.5l-12 98q1 9 6 16t11.5 10t13.5 0.5t12 -11.5h1v-3q13 -60 19.5 -121t10.5 -122t7.5 -122.5t10.5 -122.5l3 -12q0 -3 -0.5 -6t-0.5 -6v-5h-1q-4 -11 -12 -19t-16.5 -9.5t-16 4t-10.5 21.5l-6 150
l-3 -5q-18 -24 -48 -42.5t-66.5 -29.5t-75.5 -12.5t-74.5 6.5t-64.5 27.5t-44 52.5q-20 41 -27 82t1.5 81t33 77.5t68.5 72.5zM392 199q-4 63 -6 87.5t-8 30.5q0 22 -21 47.5t-52 45t-68 27.5t-68 -4q-35 -11 -63.5 -42t-45 -70.5t-18.5 -82.5t17 -79q8 -14 19.5 -25
t23.5 -21q29 -24 73.5 -27t89 10.5t80 40.5t47.5 62zM152 817q-9 -15 -22 -19.5t-23.5 0t-15 16t2.5 28.5q8 14 23.5 34t34.5 34.5t40 18t40 -14.5q12 -11 21 -25t17.5 -28.5t18.5 -27t24 -20.5q15 4 21 17t7.5 27.5t0 26t-1.5 12.5q1 16 10.5 26.5t21 12.5t21.5 -5.5
t12 -25.5q-1 -16 -5.5 -36.5t-13 -39.5t-21.5 -34t-32 -20q-4 -1 -16 -3.5t-18 0.5q-14 8 -27 25t-25 34.5t-23.5 32t-23 17t-23.5 -11t-25 -51.5z" />
    <glyph glyph-name="uni1EB6" unicode="&#x1eb6;" horiz-adv-x="685" 
d="M6 321q-11 18 -10 28.5t8 15.5t18 5.5t20 0t13 -1t-2 1.5l54 -2q6 46 16 91.5t27 91.5q21 56 54 91t72.5 52.5t83 17.5t86 -15t80.5 -44.5t67 -71.5q17 -25 29 -68t20.5 -95.5t12.5 -110.5t5.5 -111.5t0 -98.5t-4.5 -73q-5 -19 -17 -26t-24 -5t-19.5 13t-2.5 28
q6 76 11 154.5t1 166.5q-52 2 -110.5 -1t-118 -9t-117 -13t-108.5 -14h-2q-2 -39 -1 -78t3 -75.5t4 -69.5t3 -60q-3 -14 -12 -22.5t-19 -10.5t-20 4t-14 21q1 72 1.5 143t6.5 141q-28 -4 -56.5 -3.5t-38.5 12.5zM154 368q50 0 107 6t115 14.5t115 17.5t108 15q-5 39 -15 74
t-25 62q-20 35 -52 62.5t-70.5 42.5t-79.5 14t-78 -23q-32 -19 -54.5 -49t-37.5 -67.5t-23.5 -80.5t-11.5 -88h2zM369 -136q-30 7 -42 17t-10.5 19.5t14 17t31.5 10.5q28 -5 39.5 -17.5t11 -24.5t-12.5 -19.5t-31 -2.5z" />
    <glyph glyph-name="uni1EB7" unicode="&#x1eb7;" 
d="M96 450q34 26 75 37t80.5 5.5t73 -28t51.5 -64.5l-12 98q1 9 6 16t11.5 10t13.5 0.5t12 -11.5h1v-3q13 -60 19.5 -121t10.5 -122t7.5 -122.5t10.5 -122.5l3 -12q0 -3 -0.5 -6t-0.5 -6v-5h-1q-4 -11 -12 -19t-16.5 -9.5t-16 4t-10.5 21.5l-6 150l-3 -5q-18 -24 -48 -42.5
t-66.5 -29.5t-75.5 -12.5t-74.5 6.5t-64.5 27.5t-44 52.5q-20 41 -27 82t1.5 81t33 77.5t68.5 72.5zM392 199q-4 63 -6 87.5t-8 30.5q0 22 -21 47.5t-52 45t-68 27.5t-68 -4q-35 -11 -63.5 -42t-45 -70.5t-18.5 -82.5t17 -79q8 -14 19.5 -25t23.5 -21q29 -24 73.5 -27
t89 10.5t80 40.5t47.5 62zM226 -136q-30 7 -42 17t-10.5 19.5t14 17t31.5 10.5q28 -5 39.5 -17.5t11 -24.5t-12.5 -19.5t-31 -2.5z" />
    <glyph glyph-name="uni1EB8" unicode="&#x1eb8;" 
d="M52 -1q-12 3 -18 10t-6.5 15t3.5 17t11 15q3 21 3 63t-1.5 95t-4.5 111.5t-6.5 112.5t-7.5 98t-7 69q-14 4 -20 13.5t-4.5 20t9.5 20t21 13.5l21 -2q8 2 16 -2q89 -8 176.5 -6t180.5 11q5 4 11 5q4 0 7 -0.5t7 -1.5q17 -1 24.5 -10t6 -20t-10 -21t-23.5 -13
q-4 0 -7.5 -0.5t-7.5 -0.5t-8 2q-82 6 -171 5t-171 -8q-1 -32 -1.5 -52.5t-0.5 -38t1 -37.5t2 -51q28 -4 63.5 -5t71 0.5t68 6t54.5 11.5q18 5 28.5 -0.5t13 -16t-3.5 -22t-21 -18.5q-33 0 -67 1.5t-68.5 1.5t-68.5 -2.5t-67 -10.5q5 -78 10 -161t11 -161q42 -3 91 -4
t95.5 0t84.5 4t58 9q17 0 27.5 1t15.5 -0.5t5 -7.5t-3 -21q-5 -15 -28.5 -21.5t-58 -8t-78 0t-88.5 2.5t-89 -0.5t-80 -9.5zM257 -136q-30 7 -42 17t-10.5 19.5t14 17t31.5 10.5q28 -5 39.5 -17.5t11 -24.5t-12.5 -19.5t-31 -2.5z" />
    <glyph glyph-name="uni1EB9" unicode="&#x1eb9;" horiz-adv-x="470" 
d="M401 296q-84 -36 -172 -48t-178 -19q6 -32 18 -61.5t29 -52.5t40 -38t51 -18q24 -2 50.5 5t52 18t49.5 23t43.5 20.5t33.5 10.5t20 -7q8 -16 0.5 -28t-22.5 -21t-34.5 -16t-35.5 -13q-42 -17 -77 -29.5t-67.5 -13.5t-64.5 12.5t-68 48.5q-27 26 -41 68.5t-17.5 89.5
t1.5 93t16 79q18 54 52.5 84t76 39t85 -0.5t81 -35t63 -64t30.5 -87.5q7 -13 2.5 -23t-17.5 -16zM359 331q-10 57 -38.5 92.5t-64.5 50t-75 9.5t-70.5 -28t-50.5 -64t-15 -97l1 1q40 4 79.5 6t78.5 5t78 8.5t77 16.5zM211 -136q-30 7 -42 17t-10.5 19.5t14 17t31.5 10.5
q28 -5 39.5 -17.5t11 -24.5t-12.5 -19.5t-31 -2.5z" />
    <glyph glyph-name="uni1EBA" unicode="&#x1eba;" 
d="M52 -1q-12 3 -18 10t-6.5 15t3.5 17t11 15q3 21 3 63t-1.5 95t-4.5 111.5t-6.5 112.5t-7.5 98t-7 69q-14 4 -20 13.5t-4.5 20t9.5 20t21 13.5l21 -2q8 2 16 -2q89 -8 176.5 -6t180.5 11q5 4 11 5q4 0 7 -0.5t7 -1.5q17 -1 24.5 -10t6 -20t-10 -21t-23.5 -13
q-4 0 -7.5 -0.5t-7.5 -0.5t-8 2q-82 6 -171 5t-171 -8q-1 -32 -1.5 -52.5t-0.5 -38t1 -37.5t2 -51q28 -4 63.5 -5t71 0.5t68 6t54.5 11.5q18 5 28.5 -0.5t13 -16t-3.5 -22t-21 -18.5q-33 0 -67 1.5t-68.5 1.5t-68.5 -2.5t-67 -10.5q5 -78 10 -161t11 -161q42 -3 91 -4
t95.5 0t84.5 4t58 9q17 0 27.5 1t15.5 -0.5t5 -7.5t-3 -21q-5 -15 -28.5 -21.5t-58 -8t-78 0t-88.5 2.5t-89 -0.5t-80 -9.5zM214 714q3 21 1 34.5t-3.5 21.5t1.5 10.5t16 1.5l22.5 -1.5t15.5 4.5q10 4 17.5 14t10 22.5t-2.5 24.5t-20 19q-8 3 -20 2.5t-25.5 -3.5t-26.5 -7.5
t-21 -10.5q-7 -5 -14 -3.5t-11.5 7t-5.5 13.5t4 15q6 10 16.5 17t22.5 10.5t23.5 5t19.5 0.5q25 0 43.5 -12t29 -30t12.5 -38.5t-6 -38t-26.5 -28t-49.5 -8.5l8 -37q-1 -4 -5.5 -7t-10 -4.5t-10 0t-5.5 6.5z" />
    <glyph glyph-name="uni1EBB" unicode="&#x1ebb;" horiz-adv-x="470" 
d="M401 296q-84 -36 -172 -48t-178 -19q6 -32 18 -61.5t29 -52.5t40 -38t51 -18q24 -2 50.5 5t52 18t49.5 23t43.5 20.5t33.5 10.5t20 -7q8 -16 0.5 -28t-22.5 -21t-34.5 -16t-35.5 -13q-42 -17 -77 -29.5t-67.5 -13.5t-64.5 12.5t-68 48.5q-27 26 -41 68.5t-17.5 89.5
t1.5 93t16 79q18 54 52.5 84t76 39t85 -0.5t81 -35t63 -64t30.5 -87.5q7 -13 2.5 -23t-17.5 -16zM359 331q-10 57 -38.5 92.5t-64.5 50t-75 9.5t-70.5 -28t-50.5 -64t-15 -97l1 1q40 4 79.5 6t78.5 5t78 8.5t77 16.5zM199 573q3 21 1 34.5t-3.5 21.5t1.5 10.5t16 1.5
l22.5 -1.5t15.5 4.5q10 4 17.5 14t10 22.5t-2.5 24.5t-20 19q-8 3 -20 2.5t-25.5 -3.5t-26.5 -7.5t-21 -10.5q-7 -5 -14 -3.5t-11.5 7t-5.5 13.5t4 15q6 10 16.5 17t22.5 10.5t23.5 5t19.5 0.5q25 0 43.5 -12t29 -30t12.5 -38.5t-6 -38t-26.5 -28t-49.5 -8.5l8 -37
q-1 -4 -5.5 -7t-10 -4.5t-10 0t-5.5 6.5z" />
    <glyph glyph-name="uni1EBC" unicode="&#x1ebc;" 
d="M52 -1q-12 3 -18 10t-6.5 15t3.5 17t11 15q3 21 3 63t-1.5 95t-4.5 111.5t-6.5 112.5t-7.5 98t-7 69q-14 4 -20 13.5t-4.5 20t9.5 20t21 13.5l21 -2q8 2 16 -2q89 -8 176.5 -6t180.5 11q5 4 11 5q4 0 7 -0.5t7 -1.5q17 -1 24.5 -10t6 -20t-10 -21t-23.5 -13
q-4 0 -7.5 -0.5t-7.5 -0.5t-8 2q-82 6 -171 5t-171 -8q-1 -32 -1.5 -52.5t-0.5 -38t1 -37.5t2 -51q28 -4 63.5 -5t71 0.5t68 6t54.5 11.5q18 5 28.5 -0.5t13 -16t-3.5 -22t-21 -18.5q-33 0 -67 1.5t-68.5 1.5t-68.5 -2.5t-67 -10.5q5 -78 10 -161t11 -161q42 -3 91 -4
t95.5 0t84.5 4t58 9q17 0 27.5 1t15.5 -0.5t5 -7.5t-3 -21q-5 -15 -28.5 -21.5t-58 -8t-78 0t-88.5 2.5t-89 -0.5t-80 -9.5zM140 789q-9 -15 -22 -19.5t-23.5 0t-15 16t2.5 28.5q8 14 23.5 34t34.5 34.5t40 18t40 -14.5q12 -11 21 -25t17.5 -28.5t18.5 -27t24 -20.5
q15 4 21 17t7.5 27.5t0 26t-1.5 12.5q1 16 10.5 26.5t21 12.5t21.5 -5.5t12 -25.5q-1 -16 -5.5 -36.5t-13 -39.5t-21.5 -34t-32 -20q-4 -1 -16 -3.5t-18 0.5q-14 8 -27 25t-25 34.5t-23.5 32t-23 17t-23.5 -11t-25 -51.5z" />
    <glyph glyph-name="uni1EBD" unicode="&#x1ebd;" horiz-adv-x="470" 
d="M401 296q-84 -36 -172 -48t-178 -19q6 -32 18 -61.5t29 -52.5t40 -38t51 -18q24 -2 50.5 5t52 18t49.5 23t43.5 20.5t33.5 10.5t20 -7q8 -16 0.5 -28t-22.5 -21t-34.5 -16t-35.5 -13q-42 -17 -77 -29.5t-67.5 -13.5t-64.5 12.5t-68 48.5q-27 26 -41 68.5t-17.5 89.5
t1.5 93t16 79q18 54 52.5 84t76 39t85 -0.5t81 -35t63 -64t30.5 -87.5q7 -13 2.5 -23t-17.5 -16zM359 331q-10 57 -38.5 92.5t-64.5 50t-75 9.5t-70.5 -28t-50.5 -64t-15 -97l1 1q40 4 79.5 6t78.5 5t78 8.5t77 16.5zM129 639q-9 -15 -22 -19.5t-23.5 0t-15 16t2.5 28.5
q8 14 23.5 34t34.5 34.5t40 18t40 -14.5q12 -11 21 -25t17.5 -28.5t18.5 -27t24 -20.5q15 4 21 17t7.5 27.5t0 26t-1.5 12.5q1 16 10.5 26.5t21 12.5t21.5 -5.5t12 -25.5q-1 -16 -5.5 -36.5t-13 -39.5t-21.5 -34t-32 -20q-4 -1 -16 -3.5t-18 0.5q-14 8 -27 25t-25 34.5
t-23.5 32t-23 17t-23.5 -11t-25 -51.5z" />
    <glyph glyph-name="uni1EBE" unicode="&#x1ebe;" 
d="M52 -1q-12 3 -18 10t-6.5 15t3.5 17t11 15q3 21 3 63t-1.5 95t-4.5 111.5t-6.5 112.5t-7.5 98t-7 69q-14 4 -20 13.5t-4.5 20t9.5 20t21 13.5l21 -2q8 2 16 -2q89 -8 176.5 -6t180.5 11q5 4 11 5q4 0 7 -0.5t7 -1.5q17 -1 24.5 -10t6 -20t-10 -21t-23.5 -13
q-4 0 -7.5 -0.5t-7.5 -0.5t-8 2q-82 6 -171 5t-171 -8q-1 -32 -1.5 -52.5t-0.5 -38t1 -37.5t2 -51q28 -4 63.5 -5t71 0.5t68 6t54.5 11.5q18 5 28.5 -0.5t13 -16t-3.5 -22t-21 -18.5q-33 0 -67 1.5t-68.5 1.5t-68.5 -2.5t-67 -10.5q5 -78 10 -161t11 -161q42 -3 91 -4
t95.5 0t84.5 4t58 9q17 0 27.5 1t15.5 -0.5t5 -7.5t-3 -21q-5 -15 -28.5 -21.5t-58 -8t-78 0t-88.5 2.5t-89 -0.5t-80 -9.5zM101 731q-16 -2 -25 4.5t-11 17t2.5 22t16.5 19.5q62 80 103 108.5t73.5 19t64 -50t75.5 -97.5l-2 -3q-8 -13 -18 -19t-26 -2q-16 13 -27.5 32
t-23.5 38.5t-25.5 37t-33.5 27.5q-20 -16 -37 -36.5t-33.5 -42t-34 -41t-38.5 -34.5zM335 1054q-29 -7 -53 -20.5t-46 -30.5t-43 -36.5t-42 -37.5q-15 -4 -27 3t-17 18.5t-1 24t20 19.5q48 30 92.5 58.5t82.5 62.5q15 6 27.5 1t18.5 -15.5t4 -23.5t-16 -23z" />
    <glyph glyph-name="uni1EBF" unicode="&#x1ebf;" horiz-adv-x="470" 
d="M401 296q-84 -36 -172 -48t-178 -19q6 -32 18 -61.5t29 -52.5t40 -38t51 -18q24 -2 50.5 5t52 18t49.5 23t43.5 20.5t33.5 10.5t20 -7q8 -16 0.5 -28t-22.5 -21t-34.5 -16t-35.5 -13q-42 -17 -77 -29.5t-67.5 -13.5t-64.5 12.5t-68 48.5q-27 26 -41 68.5t-17.5 89.5
t1.5 93t16 79q18 54 52.5 84t76 39t85 -0.5t81 -35t63 -64t30.5 -87.5q7 -13 2.5 -23t-17.5 -16zM359 331q-10 57 -38.5 92.5t-64.5 50t-75 9.5t-70.5 -28t-50.5 -64t-15 -97l1 1q40 4 79.5 6t78.5 5t78 8.5t77 16.5zM86 604q-16 -2 -25 4.5t-11.5 17t2.5 22t17 19.5
q62 80 103 108.5t73.5 19t64 -50t75.5 -97.5l-2 -3q-8 -13 -18 -19t-26 -2q-16 13 -27.5 32t-23.5 38.5t-25.5 37t-33.5 27.5q-20 -16 -37 -36.5t-33.5 -41.5t-34 -41t-38.5 -35zM289 912q-29 -7 -53 -20.5t-46 -30.5t-43 -36.5t-42 -37.5q-15 -4 -27 3t-17 18.5t-1 24
t20 19.5q48 30 92.5 58.5t82.5 62.5q15 6 27.5 1t18.5 -15.5t4 -23.5t-16 -23z" />
    <glyph glyph-name="uni1EC0" unicode="&#x1ec0;" 
d="M52 -1q-12 3 -18 10t-6.5 15t3.5 17t11 15q3 21 3 63t-1.5 95t-4.5 111.5t-6.5 112.5t-7.5 98t-7 69q-14 4 -20 13.5t-4.5 20t9.5 20t21 13.5l21 -2q8 2 16 -2q89 -8 176.5 -6t180.5 11q5 4 11 5q4 0 7 -0.5t7 -1.5q17 -1 24.5 -10t6 -20t-10 -21t-23.5 -13
q-4 0 -7.5 -0.5t-7.5 -0.5t-8 2q-82 6 -171 5t-171 -8q-1 -32 -1.5 -52.5t-0.5 -38t1 -37.5t2 -51q28 -4 63.5 -5t71 0.5t68 6t54.5 11.5q18 5 28.5 -0.5t13 -16t-3.5 -22t-21 -18.5q-33 0 -67 1.5t-68.5 1.5t-68.5 -2.5t-67 -10.5q5 -78 10 -161t11 -161q42 -3 91 -4
t95.5 0t84.5 4t58 9q17 0 27.5 1t15.5 -0.5t5 -7.5t-3 -21q-5 -15 -28.5 -21.5t-58 -8t-78 0t-88.5 2.5t-89 -0.5t-80 -9.5zM101 731q-16 -2 -25 4.5t-11 17t2.5 22t16.5 19.5q62 80 103 108.5t73.5 19t64 -50t75.5 -97.5l-2 -3q-8 -13 -18 -19t-26 -2q-16 13 -27.5 32
t-23.5 38.5t-25.5 37t-33.5 27.5q-20 -16 -37 -36.5t-33.5 -42t-34 -41t-38.5 -34.5zM185 1019q-14 10 -16 23t4 23.5t18.5 15.5t27.5 -1q38 -34 82.5 -62.5t92.5 -58.5q16 -7 20 -19.5t-1 -24t-17 -18.5t-27 -3q-21 18 -42 37.5t-43 36.5t-46.5 30.5t-52.5 20.5z" />
    <glyph glyph-name="uni1EC1" unicode="&#x1ec1;" horiz-adv-x="470" 
d="M401 296q-84 -36 -172 -48t-178 -19q6 -32 18 -61.5t29 -52.5t40 -38t51 -18q24 -2 50.5 5t52 18t49.5 23t43.5 20.5t33.5 10.5t20 -7q8 -16 0.5 -28t-22.5 -21t-34.5 -16t-35.5 -13q-42 -17 -77 -29.5t-67.5 -13.5t-64.5 12.5t-68 48.5q-27 26 -41 68.5t-17.5 89.5
t1.5 93t16 79q18 54 52.5 84t76 39t85 -0.5t81 -35t63 -64t30.5 -87.5q7 -13 2.5 -23t-17.5 -16zM359 331q-10 57 -38.5 92.5t-64.5 50t-75 9.5t-70.5 -28t-50.5 -64t-15 -97l1 1q40 4 79.5 6t78.5 5t78 8.5t77 16.5zM86 604q-16 -2 -25 4.5t-11.5 17t2.5 22t17 19.5
q62 80 103 108.5t73.5 19t64 -50t75.5 -97.5l-2 -3q-8 -13 -18 -19t-26 -2q-16 13 -27.5 32t-23.5 38.5t-25.5 37t-33.5 27.5q-20 -16 -37 -36.5t-33.5 -41.5t-34 -41t-38.5 -35zM182 889q-14 10 -16 23t4 23.5t18.5 15.5t27.5 -1q38 -34 82.5 -62.5t92.5 -58.5
q16 -7 20 -19.5t-1 -24t-17 -18.5t-27 -3q-21 18 -42 37.5t-43 36.5t-46.5 30.5t-52.5 20.5z" />
    <glyph glyph-name="uni1EC2" unicode="&#x1ec2;" 
d="M52 -1q-12 3 -18 10t-6.5 15t3.5 17t11 15q3 21 3 63t-1.5 95t-4.5 111.5t-6.5 112.5t-7.5 98t-7 69q-14 4 -20 13.5t-4.5 20t9.5 20t21 13.5l21 -2q8 2 16 -2q89 -8 176.5 -6t180.5 11q5 4 11 5q4 0 7 -0.5t7 -1.5q17 -1 24.5 -10t6 -20t-10 -21t-23.5 -13
q-4 0 -7.5 -0.5t-7.5 -0.5t-8 2q-82 6 -171 5t-171 -8q-1 -32 -1.5 -52.5t-0.5 -38t1 -37.5t2 -51q28 -4 63.5 -5t71 0.5t68 6t54.5 11.5q18 5 28.5 -0.5t13 -16t-3.5 -22t-21 -18.5q-33 0 -67 1.5t-68.5 1.5t-68.5 -2.5t-67 -10.5q5 -78 10 -161t11 -161q42 -3 91 -4
t95.5 0t84.5 4t58 9q17 0 27.5 1t15.5 -0.5t5 -7.5t-3 -21q-5 -15 -28.5 -21.5t-58 -8t-78 0t-88.5 2.5t-89 -0.5t-80 -9.5zM101 731q-16 -2 -25 4.5t-11 17t2.5 22t16.5 19.5q62 80 103 108.5t73.5 19t64 -50t75.5 -97.5l-2 -3q-8 -13 -18 -19t-26 -2q-16 13 -27.5 32
t-23.5 38.5t-25.5 37t-33.5 27.5q-20 -16 -37 -36.5t-33.5 -42t-34 -41t-38.5 -34.5zM355 887q3 21 1 34.5t-3.5 21.5t1.5 10.5t16 1.5l22.5 -1.5t15.5 4.5q10 4 17.5 14t10 22.5t-2.5 24.5t-20 19q-8 3 -20 2.5t-25.5 -3.5t-26.5 -7.5t-21 -10.5q-7 -5 -14 -3.5t-11.5 7
t-5.5 13.5t4 15q6 10 16.5 17t22.5 10.5t23.5 5t19.5 0.5q25 0 43.5 -12t29 -30t12.5 -38.5t-6 -38t-26.5 -28t-49.5 -8.5l8 -37q-1 -4 -5.5 -7t-10 -4.5t-10 0t-5.5 6.5z" />
    <glyph glyph-name="uni1EC3" unicode="&#x1ec3;" horiz-adv-x="470" 
d="M401 296q-84 -36 -172 -48t-178 -19q6 -32 18 -61.5t29 -52.5t40 -38t51 -18q24 -2 50.5 5t52 18t49.5 23t43.5 20.5t33.5 10.5t20 -7q8 -16 0.5 -28t-22.5 -21t-34.5 -16t-35.5 -13q-42 -17 -77 -29.5t-67.5 -13.5t-64.5 12.5t-68 48.5q-27 26 -41 68.5t-17.5 89.5
t1.5 93t16 79q18 54 52.5 84t76 39t85 -0.5t81 -35t63 -64t30.5 -87.5q7 -13 2.5 -23t-17.5 -16zM359 331q-10 57 -38.5 92.5t-64.5 50t-75 9.5t-70.5 -28t-50.5 -64t-15 -97l1 1q40 4 79.5 6t78.5 5t78 8.5t77 16.5zM86 604q-16 -2 -25 4.5t-11.5 17t2.5 22t17 19.5
q62 80 103 108.5t73.5 19t64 -50t75.5 -97.5l-2 -3q-8 -13 -18 -19t-26 -2q-16 13 -27.5 32t-23.5 38.5t-25.5 37t-33.5 27.5q-20 -16 -37 -36.5t-33.5 -41.5t-34 -41t-38.5 -35zM330 768q3 21 1 34.5t-3.5 21.5t1.5 10.5t16 1.5l22.5 -1.5t15.5 4.5q10 4 17.5 14t10 22.5
t-2.5 24.5t-20 19q-8 3 -20 2.5t-25.5 -3.5t-26.5 -7.5t-21 -10.5q-7 -5 -14 -3.5t-11.5 7t-5.5 13.5t4 15q6 10 16.5 17t22.5 10.5t23.5 5t19.5 0.5q25 0 43.5 -12t29 -30t12.5 -38.5t-6 -38t-26.5 -28t-49.5 -8.5l8 -37q-1 -4 -5.5 -7t-10 -4.5t-10 0t-5.5 6.5z" />
    <glyph glyph-name="uni1EC4" unicode="&#x1ec4;" 
d="M52 -1q-12 3 -18 10t-6.5 15t3.5 17t11 15q3 21 3 63t-1.5 95t-4.5 111.5t-6.5 112.5t-7.5 98t-7 69q-14 4 -20 13.5t-4.5 20t9.5 20t21 13.5l21 -2q8 2 16 -2q89 -8 176.5 -6t180.5 11q5 4 11 5q4 0 7 -0.5t7 -1.5q17 -1 24.5 -10t6 -20t-10 -21t-23.5 -13
q-4 0 -7.5 -0.5t-7.5 -0.5t-8 2q-82 6 -171 5t-171 -8q-1 -32 -1.5 -52.5t-0.5 -38t1 -37.5t2 -51q28 -4 63.5 -5t71 0.5t68 6t54.5 11.5q18 5 28.5 -0.5t13 -16t-3.5 -22t-21 -18.5q-33 0 -67 1.5t-68.5 1.5t-68.5 -2.5t-67 -10.5q5 -78 10 -161t11 -161q42 -3 91 -4
t95.5 0t84.5 4t58 9q17 0 27.5 1t15.5 -0.5t5 -7.5t-3 -21q-5 -15 -28.5 -21.5t-58 -8t-78 0t-88.5 2.5t-89 -0.5t-80 -9.5zM101 731q-16 -2 -25 4.5t-11 17t2.5 22t16.5 19.5q62 80 103 108.5t73.5 19t64 -50t75.5 -97.5l-2 -3q-8 -13 -18 -19t-26 -2q-16 13 -27.5 32
t-23.5 38.5t-25.5 37t-33.5 27.5q-20 -16 -37 -36.5t-33.5 -42t-34 -41t-38.5 -34.5zM162 1000q-9 -15 -22 -19.5t-23.5 0t-15 16t2.5 28.5q8 14 23.5 34t34.5 34.5t40 18t40 -14.5q12 -11 21 -25t17.5 -28.5t18.5 -27t24 -20.5q15 4 21 17t7.5 27.5t0 26t-1.5 12.5
q1 16 10.5 26.5t21 12.5t21.5 -5.5t12 -25.5q-1 -16 -5.5 -36.5t-13 -39.5t-21.5 -34t-32 -20q-4 -1 -16 -3.5t-18 0.5q-14 8 -27 25t-25 34.5t-23.5 32t-23 17t-23.5 -11t-25 -51.5z" />
    <glyph glyph-name="uni1EC5" unicode="&#x1ec5;" horiz-adv-x="470" 
d="M401 296q-84 -36 -172 -48t-178 -19q6 -32 18 -61.5t29 -52.5t40 -38t51 -18q24 -2 50.5 5t52 18t49.5 23t43.5 20.5t33.5 10.5t20 -7q8 -16 0.5 -28t-22.5 -21t-34.5 -16t-35.5 -13q-42 -17 -77 -29.5t-67.5 -13.5t-64.5 12.5t-68 48.5q-27 26 -41 68.5t-17.5 89.5
t1.5 93t16 79q18 54 52.5 84t76 39t85 -0.5t81 -35t63 -64t30.5 -87.5q7 -13 2.5 -23t-17.5 -16zM359 331q-10 57 -38.5 92.5t-64.5 50t-75 9.5t-70.5 -28t-50.5 -64t-15 -97l1 1q40 4 79.5 6t78.5 5t78 8.5t77 16.5zM86 604q-16 -2 -25 4.5t-11.5 17t2.5 22t17 19.5
q62 80 103 108.5t73.5 19t64 -50t75.5 -97.5l-2 -3q-8 -13 -18 -19t-26 -2q-16 13 -27.5 32t-23.5 38.5t-25.5 37t-33.5 27.5q-20 -16 -37 -36.5t-33.5 -41.5t-34 -41t-38.5 -35zM129 862q-9 -15 -22 -19.5t-23.5 0t-15 16t2.5 28.5q8 14 23.5 34t34.5 34.5t40 18t40 -14.5
q12 -11 21 -25t17.5 -28.5t18.5 -27t24 -20.5q15 4 21 17t7.5 27.5t0 26t-1.5 12.5q1 16 10.5 26.5t21 12.5t21.5 -5.5t12 -25.5q-1 -16 -5.5 -36.5t-13 -39.5t-21.5 -34t-32 -20q-4 -1 -16 -3.5t-18 0.5q-14 8 -27 25t-25 34.5t-23.5 32t-23 17t-23.5 -11t-25 -51.5z" />
    <glyph glyph-name="uni1EC6" unicode="&#x1ec6;" 
d="M257 -136q-30 7 -42 17t-10.5 19.5t14 17t31.5 10.5q28 -5 39.5 -17.5t11 -24.5t-12.5 -19.5t-31 -2.5zM52 -1q-12 3 -18 10t-6.5 15t3.5 17t11 15q3 21 3 63t-1.5 95t-4.5 111.5t-6.5 112.5t-7.5 98t-7 69q-14 4 -20 13.5t-4.5 20t9.5 20t21 13.5l21 -2q8 2 16 -2
q89 -8 176.5 -6t180.5 11q5 4 11 5q4 0 7 -0.5t7 -1.5q17 -1 24.5 -10t6 -20t-10 -21t-23.5 -13q-4 0 -7.5 -0.5t-7.5 -0.5t-8 2q-82 6 -171 5t-171 -8q-1 -32 -1.5 -52.5t-0.5 -38t1 -37.5t2 -51q28 -4 63.5 -5t71 0.5t68 6t54.5 11.5q18 5 28.5 -0.5t13 -16t-3.5 -22
t-21 -18.5q-33 0 -67 1.5t-68.5 1.5t-68.5 -2.5t-67 -10.5q5 -78 10 -161t11 -161q42 -3 91 -4t95.5 0t84.5 4t58 9q17 0 27.5 1t15.5 -0.5t5 -7.5t-3 -21q-5 -15 -28.5 -21.5t-58 -8t-78 0t-88.5 2.5t-89 -0.5t-80 -9.5zM101 731q-16 -2 -25 4.5t-11 17t2.5 22t16.5 19.5
q62 80 103 108.5t73.5 19t64 -50t75.5 -97.5l-2 -3q-8 -13 -18 -19t-26 -2q-16 13 -27.5 32t-23.5 38.5t-25.5 37t-33.5 27.5q-20 -16 -37 -36.5t-33.5 -42t-34 -41t-38.5 -34.5z" />
    <glyph glyph-name="uni1EC7" unicode="&#x1ec7;" horiz-adv-x="470" 
d="M211 -136q-30 7 -42 17t-10.5 19.5t14 17t31.5 10.5q28 -5 39.5 -17.5t11 -24.5t-12.5 -19.5t-31 -2.5zM401 296q-84 -36 -172 -48t-178 -19q6 -32 18 -61.5t29 -52.5t40 -38t51 -18q24 -2 50.5 5t52 18t49.5 23t43.5 20.5t33.5 10.5t20 -7q8 -16 0.5 -28t-22.5 -21
t-34.5 -16t-35.5 -13q-42 -17 -77 -29.5t-67.5 -13.5t-64.5 12.5t-68 48.5q-27 26 -41 68.5t-17.5 89.5t1.5 93t16 79q18 54 52.5 84t76 39t85 -0.5t81 -35t63 -64t30.5 -87.5q7 -13 2.5 -23t-17.5 -16zM359 331q-10 57 -38.5 92.5t-64.5 50t-75 9.5t-70.5 -28t-50.5 -64
t-15 -97l1 1q40 4 79.5 6t78.5 5t78 8.5t77 16.5zM86 604q-16 -2 -25 4.5t-11.5 17t2.5 22t17 19.5q62 80 103 108.5t73.5 19t64 -50t75.5 -97.5l-2 -3q-8 -13 -18 -19t-26 -2q-16 13 -27.5 32t-23.5 38.5t-25.5 37t-33.5 27.5q-20 -16 -37 -36.5t-33.5 -41.5t-34 -41
t-38.5 -35z" />
    <glyph glyph-name="uni1EC8" unicode="&#x1ec8;" horiz-adv-x="440" 
d="M29 15q-15 4 -21.5 13.5t-5 20t9.5 20t21 13.5q34 -3 56 -5.5t39 -4t32.5 -2.5t35.5 -1q-1 7 2 17q0 6 2 20.5t4.5 31t5 31t3.5 20.5q7 61 8.5 114t-1 105t-7.5 106t-11 118q-37 -5 -76 -10.5t-81 -11.5q-15 4 -21.5 13.5t-5 20t9.5 20t21 13.5q25 -9 57 -9.5t68 5
t74.5 14t76.5 16.5q6 4 10 5h3q16 -1 23.5 -9t8 -18.5t-6 -21t-18.5 -16.5h-11v-2h-3q-2 0 -3 0.5t-2 0.5q-30 0 -61 -3q-6 -72 -5.5 -143t1.5 -142t1.5 -142t-5.5 -142q5 0 27.5 3t47.5 6t45.5 5.5l20.5 2.5q10 3 15.5 -6t5 -22t-8 -25t-23.5 -13h-3h-2q-90 11 -176 7
t-177 -13zM184 730q3 21 1 34.5t-3.5 21.5t1.5 10.5t16 1.5l22.5 -1.5t15.5 4.5q10 4 17.5 14t10 22.5t-2.5 24.5t-20 19q-8 3 -20 2.5t-25.5 -3.5t-26.5 -7.5t-21 -10.5q-7 -5 -14 -3.5t-11.5 7t-5.5 13.5t4 15q6 10 16.5 17t22.5 10.5t23.5 5t19.5 0.5q25 0 43.5 -12
t29 -30t12.5 -38.5t-6 -38t-26.5 -28t-49.5 -8.5l8 -37q-1 -4 -5.5 -7t-10 -4.5t-10 0t-5.5 6.5z" />
    <glyph glyph-name="uni1EC9" unicode="&#x1ec9;" horiz-adv-x="159" 
d="M29 411q1 16 10.5 26.5t21 12.5t21.5 -5.5t12 -25.5q-2 -30 -4.5 -53.5t-4 -46t-2.5 -46t0 -53.5q1 -24 4.5 -50.5t6.5 -53t4 -52.5t-4 -50q-3 -14 -12 -22.5t-19 -10.5t-19.5 4t-13.5 21q0 4 -1 5q0 9 4 18l6 35q1 5 0.5 13t2.5 5q3 46 3 85.5t-2 78t-5.5 78.5t-8.5 87z
M44 526q3 21 1 34.5t-3.5 21.5t1.5 10.5t16 1.5l22.5 -1.5t15.5 4.5q10 4 17.5 14t10 22.5t-2.5 24.5t-20 19q-8 3 -20 2.5t-25.5 -3.5t-26.5 -7.5t-21 -10.5q-7 -5 -14 -3.5t-11.5 7t-5.5 13.5t4 15q6 10 16.5 17t22.5 10.5t23.5 5t19.5 0.5q25 0 43.5 -12t29 -30
t12.5 -38.5t-6 -38t-26.5 -28t-49.5 -8.5l8 -37q-1 -4 -5.5 -7t-10 -4.5t-10 0t-5.5 6.5z" />
    <glyph glyph-name="uni1ECA" unicode="&#x1eca;" horiz-adv-x="440" 
d="M29 15q-15 4 -21.5 13.5t-5 20t9.5 20t21 13.5q34 -3 56 -5.5t39 -4t32.5 -2.5t35.5 -1q-1 7 2 17q0 6 2 20.5t4.5 31t5 31t3.5 20.5q7 61 8.5 114t-1 105t-7.5 106t-11 118q-37 -5 -76 -10.5t-81 -11.5q-15 4 -21.5 13.5t-5 20t9.5 20t21 13.5q25 -9 57 -9.5t68 5
t74.5 14t76.5 16.5q6 4 10 5h3q16 -1 23.5 -9t8 -18.5t-6 -21t-18.5 -16.5h-11v-2h-3q-2 0 -3 0.5t-2 0.5q-30 0 -61 -3q-6 -72 -5.5 -143t1.5 -142t1.5 -142t-5.5 -142q5 0 27.5 3t47.5 6t45.5 5.5l20.5 2.5q10 3 15.5 -6t5 -22t-8 -25t-23.5 -13h-3h-2q-90 11 -176 7
t-177 -13zM227 -114q-30 7 -42 17t-10.5 19.5t14 17t31.5 10.5q28 -5 39.5 -17.5t11 -24.5t-12.5 -19.5t-31 -2.5z" />
    <glyph glyph-name="uni1ECB" unicode="&#x1ecb;" horiz-adv-x="159" 
d="M29 411q1 16 10.5 26.5t21 12.5t21.5 -5.5t12 -25.5q-2 -30 -4.5 -53.5t-4.5 -46t-2.5 -46t0.5 -53.5q1 -24 4.5 -50.5t6.5 -52.5t4 -52.5t-4 -50.5q-3 -14 -11.5 -22.5t-19 -10.5t-20 4t-13.5 21q0 4 -1 5q0 8 4 18l6 35q1 5 0.5 13t2.5 5q3 46 3.5 86t-1.5 78t-6 78
t-9 87zM58 579q18 -1 26 -11t6 -23q1 -3 0.5 -7t-0.5 -7q-2 -20 -16.5 -23t-28.5 5l-5 2q2 -2 5 -2.5t4 -3.5l-5 -2q-17 11 -17 30q-2 11 3 21t13.5 12.5t14.5 8.5zM73 -136q-30 7 -42 17t-10.5 19.5t14 17t31.5 10.5q28 -5 39.5 -17.5t11 -24.5t-12.5 -19.5t-31 -2.5z" />
    <glyph glyph-name="uni1ECC" unicode="&#x1ecc;" horiz-adv-x="567" 
d="M514 108q-21 -36 -55 -60.5t-75.5 -37.5t-86.5 -14.5t-87.5 8t-80 30.5t-62.5 53q-38 48 -54.5 109t-14 126t22.5 128t55.5 115.5t85 89t110.5 47.5q46 8 84.5 -7t70 -46t55.5 -75.5t40 -95t24 -103.5t7 -103t-10.5 -92.5t-28.5 -71.5zM128 101q31 -28 80 -39.5
t100.5 -7.5t97.5 23t72 51q24 32 32 85.5t1.5 114t-26.5 121.5t-52 107.5t-74.5 71.5t-94.5 15q-58 -11 -102.5 -45t-73.5 -81.5t-42 -104.5t-8.5 -113.5t26.5 -108.5t64 -89zM290 -136q-30 7 -42 17t-10.5 19.5t14 17t31.5 10.5q28 -5 39.5 -17.5t11 -24.5t-12.5 -19.5
t-31 -2.5z" />
    <glyph glyph-name="uni1ECD" unicode="&#x1ecd;" horiz-adv-x="542" 
d="M46 389q31 54 84.5 82t113 30t116.5 -21t95 -70q38 -48 53.5 -98t11.5 -97t-26 -88.5t-59.5 -72t-89 -47t-113.5 -13.5q-51 3 -92 22.5t-70.5 50.5t-46.5 70.5t-20.5 82.5t7 86.5t36.5 82.5zM384 404q-31 28 -71.5 36.5t-81.5 1t-79 -29t-63 -53.5q-37 -48 -41.5 -104
t17 -104.5t66.5 -82.5t107 -38q59 -4 104.5 11.5t75.5 44.5t44 68t10.5 82t-25.5 86.5t-63 81.5zM278 -136q-30 7 -42 17t-10.5 19.5t14 17t31.5 10.5q28 -5 39.5 -17.5t11 -24.5t-12.5 -19.5t-31 -2.5z" />
    <glyph glyph-name="uni1ECE" unicode="&#x1ece;" horiz-adv-x="567" 
d="M514 108q-21 -36 -55 -60.5t-75.5 -37.5t-86.5 -14.5t-87.5 8t-80 30.5t-62.5 53q-38 48 -54.5 109t-14 126t22.5 128t55.5 115.5t85 89t110.5 47.5q46 8 84.5 -7t70 -46t55.5 -75.5t40 -95t24 -103.5t7 -103t-10.5 -92.5t-28.5 -71.5zM128 101q31 -28 80 -39.5
t100.5 -7.5t97.5 23t72 51q24 32 32 85.5t1.5 114t-26.5 121.5t-52 107.5t-74.5 71.5t-94.5 15q-58 -11 -102.5 -45t-73.5 -81.5t-42 -104.5t-8.5 -113.5t26.5 -108.5t64 -89zM285 745q3 21 1 34.5t-3.5 21.5t1.5 10.5t16 1.5l22.5 -1.5t15.5 4.5q10 4 17.5 14t10 22.5
t-2.5 24.5t-20 19q-8 3 -20 2.5t-25.5 -3.5t-26.5 -7.5t-21 -10.5q-7 -5 -14 -3.5t-11.5 7t-5.5 13.5t4 15q6 10 16.5 17t22.5 10.5t23.5 5t19.5 0.5q25 0 43.5 -12t29 -30t12.5 -38.5t-6 -38t-26.5 -28t-49.5 -8.5l8 -37q-1 -4 -5.5 -7t-10 -4.5t-10 0t-5.5 6.5z" />
    <glyph glyph-name="uni1ECF" unicode="&#x1ecf;" horiz-adv-x="542" 
d="M46 389q31 54 84.5 82t113 30t116.5 -21t95 -70q38 -48 53.5 -98t11.5 -97t-26 -88.5t-59.5 -72t-89 -47t-113.5 -13.5q-51 3 -92 22.5t-70.5 50.5t-46.5 70.5t-20.5 82.5t7 86.5t36.5 82.5zM384 404q-31 28 -71.5 36.5t-81.5 1t-79 -29t-63 -53.5q-37 -48 -41.5 -104
t17 -104.5t66.5 -82.5t107 -38q59 -4 104.5 11.5t75.5 44.5t44 68t10.5 82t-25.5 86.5t-63 81.5zM267 543q3 21 1 34.5t-3.5 21.5t1.5 10.5t16 1.5l22.5 -1.5t15.5 4.5q10 4 17.5 14t10 22.5t-2.5 24.5t-20 19q-8 3 -20 2.5t-25.5 -3.5t-26.5 -7.5t-21 -10.5q-7 -5 -14 -3.5
t-11.5 7t-5.5 13.5t4 15q6 10 16.5 17t22.5 10.5t23.5 5t19.5 0.5q25 0 43.5 -12t29 -30t12.5 -38.5t-6 -38t-26.5 -28t-49.5 -8.5l8 -37q-1 -4 -5.5 -7t-10 -4.5t-10 0t-5.5 6.5z" />
    <glyph glyph-name="uni1ED0" unicode="&#x1ed0;" horiz-adv-x="567" 
d="M514 108q-21 -36 -55 -60.5t-75.5 -37.5t-86.5 -14.5t-87.5 8t-80 30.5t-62.5 53q-38 48 -54.5 109t-14 126t22.5 128t55.5 115.5t85 89t110.5 47.5q46 8 84.5 -7t70 -46t55.5 -75.5t40 -95t24 -103.5t7 -103t-10.5 -92.5t-28.5 -71.5zM128 101q31 -28 80 -39.5
t100.5 -7.5t97.5 23t72 51q24 32 32 85.5t1.5 114t-26.5 121.5t-52 107.5t-74.5 71.5t-94.5 15q-58 -11 -102.5 -45t-73.5 -81.5t-42 -104.5t-8.5 -113.5t26.5 -108.5t64 -89zM151 731q-16 -2 -25 4.5t-11.5 17t2.5 22t17 19.5q62 80 103 108.5t73.5 19t64 -50t75.5 -97.5
l-2 -3q-8 -13 -18 -19t-26 -2q-16 13 -27.5 32t-23.5 38.5t-25.5 37t-33.5 27.5q-20 -16 -37 -36.5t-33.5 -41.5t-34 -41t-38.5 -35zM343 1025q-29 -7 -53 -20.5t-46 -30.5t-43 -36.5t-42 -37.5q-15 -4 -27 3t-17 18.5t-1 24t20 19.5q48 30 92.5 58.5t82.5 62.5q15 6 27.5 1
t18.5 -15.5t4 -23.5t-16 -23z" />
    <glyph glyph-name="uni1ED1" unicode="&#x1ed1;" horiz-adv-x="542" 
d="M46 389q31 54 84.5 82t113 30t116.5 -21t95 -70q38 -48 53.5 -98t11.5 -97t-26 -88.5t-59.5 -72t-89 -47t-113.5 -13.5q-51 3 -92 22.5t-70.5 50.5t-46.5 70.5t-20.5 82.5t7 86.5t36.5 82.5zM384 404q-31 28 -71.5 36.5t-81.5 1t-79 -29t-63 -53.5q-37 -48 -41.5 -104
t17 -104.5t66.5 -82.5t107 -38q59 -4 104.5 11.5t75.5 44.5t44 68t10.5 82t-25.5 86.5t-63 81.5zM124 604q-16 -2 -25 4.5t-11 17t2.5 22t16.5 19.5q62 80 103 108.5t73.5 19t64 -50t75.5 -97.5l-2 -3q-8 -13 -18 -19t-26 -2q-16 13 -27.5 32t-23.5 38.5t-25.5 37
t-33.5 27.5q-20 -16 -37 -36.5t-33.5 -42t-34 -41t-38.5 -34.5zM314 892q-29 -7 -53 -20.5t-46 -30.5t-43 -36.5t-42 -37.5q-15 -4 -27 3t-17 18.5t-1 24t20 19.5q48 30 92.5 58.5t82.5 62.5q15 6 27.5 1t18.5 -15.5t4 -23.5t-16 -23z" />
    <glyph glyph-name="uni1ED2" unicode="&#x1ed2;" horiz-adv-x="567" 
d="M514 108q-21 -36 -55 -60.5t-75.5 -37.5t-86.5 -14.5t-87.5 8t-80 30.5t-62.5 53q-38 48 -54.5 109t-14 126t22.5 128t55.5 115.5t85 89t110.5 47.5q46 8 84.5 -7t70 -46t55.5 -75.5t40 -95t24 -103.5t7 -103t-10.5 -92.5t-28.5 -71.5zM128 101q31 -28 80 -39.5
t100.5 -7.5t97.5 23t72 51q24 32 32 85.5t1.5 114t-26.5 121.5t-52 107.5t-74.5 71.5t-94.5 15q-58 -11 -102.5 -45t-73.5 -81.5t-42 -104.5t-8.5 -113.5t26.5 -108.5t64 -89zM151 731q-16 -2 -25 4.5t-11.5 17t2.5 22t17 19.5q62 80 103 108.5t73.5 19t64 -50t75.5 -97.5
l-2 -3q-8 -13 -18 -19t-26 -2q-16 13 -27.5 32t-23.5 38.5t-25.5 37t-33.5 27.5q-20 -16 -37 -36.5t-33.5 -41.5t-34 -41t-38.5 -35zM228 1020q-14 10 -16 23t4 23.5t18.5 15.5t27.5 -1q38 -34 82.5 -62.5t92.5 -58.5q16 -7 20 -19.5t-1 -24t-17 -18.5t-27 -3
q-21 18 -42 37.5t-43 36.5t-46.5 30.5t-52.5 20.5z" />
    <glyph glyph-name="uni1ED3" unicode="&#x1ed3;" horiz-adv-x="542" 
d="M46 389q31 54 84.5 82t113 30t116.5 -21t95 -70q38 -48 53.5 -98t11.5 -97t-26 -88.5t-59.5 -72t-89 -47t-113.5 -13.5q-51 3 -92 22.5t-70.5 50.5t-46.5 70.5t-20.5 82.5t7 86.5t36.5 82.5zM384 404q-31 28 -71.5 36.5t-81.5 1t-79 -29t-63 -53.5q-37 -48 -41.5 -104
t17 -104.5t66.5 -82.5t107 -38q59 -4 104.5 11.5t75.5 44.5t44 68t10.5 82t-25.5 86.5t-63 81.5zM124 604q-16 -2 -25 4.5t-11 17t2.5 22t16.5 19.5q62 80 103 108.5t73.5 19t64 -50t75.5 -97.5l-2 -3q-8 -13 -18 -19t-26 -2q-16 13 -27.5 32t-23.5 38.5t-25.5 37
t-33.5 27.5q-20 -16 -37 -36.5t-33.5 -42t-34 -41t-38.5 -34.5zM196 898q-14 10 -16 23t4 23.5t18.5 15.5t27.5 -1q38 -34 82.5 -62.5t92.5 -58.5q16 -7 20 -19.5t-1 -24t-17 -18.5t-27 -3q-21 18 -42 37.5t-43 36.5t-46.5 30.5t-52.5 20.5z" />
    <glyph glyph-name="uni1ED4" unicode="&#x1ed4;" horiz-adv-x="567" 
d="M514 108q-21 -36 -55 -60.5t-75.5 -37.5t-86.5 -14.5t-87.5 8t-80 30.5t-62.5 53q-38 48 -54.5 109t-14 126t22.5 128t55.5 115.5t85 89t110.5 47.5q46 8 84.5 -7t70 -46t55.5 -75.5t40 -95t24 -103.5t7 -103t-10.5 -92.5t-28.5 -71.5zM128 101q31 -28 80 -39.5
t100.5 -7.5t97.5 23t72 51q24 32 32 85.5t1.5 114t-26.5 121.5t-52 107.5t-74.5 71.5t-94.5 15q-58 -11 -102.5 -45t-73.5 -81.5t-42 -104.5t-8.5 -113.5t26.5 -108.5t64 -89zM151 731q-16 -2 -25 4.5t-11.5 17t2.5 22t17 19.5q62 80 103 108.5t73.5 19t64 -50t75.5 -97.5
l-2 -3q-8 -13 -18 -19t-26 -2q-16 13 -27.5 32t-23.5 38.5t-25.5 37t-33.5 27.5q-20 -16 -37 -36.5t-33.5 -41.5t-34 -41t-38.5 -35zM403 906q3 21 1 34.5t-3.5 21.5t1.5 10.5t16 1.5l22.5 -1.5t15.5 4.5q10 4 17.5 14t10 22.5t-2.5 24.5t-20 19q-8 3 -20 2.5t-25.5 -3.5
t-26.5 -7.5t-21 -10.5q-7 -5 -14 -3.5t-11.5 7t-5.5 13.5t4 15q6 10 16.5 17t22.5 10.5t23.5 5t19.5 0.5q25 0 43.5 -12t29 -30t12.5 -38.5t-6 -38t-26.5 -28t-49.5 -8.5l8 -37q-1 -4 -5.5 -7t-10 -4.5t-10 0t-5.5 6.5z" />
    <glyph glyph-name="uni1ED5" unicode="&#x1ed5;" horiz-adv-x="542" 
d="M46 389q31 54 84.5 82t113 30t116.5 -21t95 -70q38 -48 53.5 -98t11.5 -97t-26 -88.5t-59.5 -72t-89 -47t-113.5 -13.5q-51 3 -92 22.5t-70.5 50.5t-46.5 70.5t-20.5 82.5t7 86.5t36.5 82.5zM384 404q-31 28 -71.5 36.5t-81.5 1t-79 -29t-63 -53.5q-37 -48 -41.5 -104
t17 -104.5t66.5 -82.5t107 -38q59 -4 104.5 11.5t75.5 44.5t44 68t10.5 82t-25.5 86.5t-63 81.5zM124 604q-16 -2 -25 4.5t-11 17t2.5 22t16.5 19.5q62 80 103 108.5t73.5 19t64 -50t75.5 -97.5l-2 -3q-8 -13 -18 -19t-26 -2q-16 13 -27.5 32t-23.5 38.5t-25.5 37
t-33.5 27.5q-20 -16 -37 -36.5t-33.5 -42t-34 -41t-38.5 -34.5zM377 757q3 21 1 34.5t-3.5 21.5t1.5 10.5t16 1.5l22.5 -1.5t15.5 4.5q10 4 17.5 14t10 22.5t-2.5 24.5t-20 19q-8 3 -20 2.5t-25.5 -3.5t-26.5 -7.5t-21 -10.5q-7 -5 -14 -3.5t-11.5 7t-5.5 13.5t4 15
q6 10 16.5 17t22.5 10.5t23.5 5t19.5 0.5q25 0 43.5 -12t29 -30t12.5 -38.5t-6 -38t-26.5 -28t-49.5 -8.5l8 -37q-1 -4 -5.5 -7t-10 -4.5t-10 0t-5.5 6.5z" />
    <glyph glyph-name="uni1ED6" unicode="&#x1ed6;" horiz-adv-x="567" 
d="M514 108q-21 -36 -55 -60.5t-75.5 -37.5t-86.5 -14.5t-87.5 8t-80 30.5t-62.5 53q-38 48 -54.5 109t-14 126t22.5 128t55.5 115.5t85 89t110.5 47.5q46 8 84.5 -7t70 -46t55.5 -75.5t40 -95t24 -103.5t7 -103t-10.5 -92.5t-28.5 -71.5zM128 101q31 -28 80 -39.5
t100.5 -7.5t97.5 23t72 51q24 32 32 85.5t1.5 114t-26.5 121.5t-52 107.5t-74.5 71.5t-94.5 15q-58 -11 -102.5 -45t-73.5 -81.5t-42 -104.5t-8.5 -113.5t26.5 -108.5t64 -89zM151 731q-16 -2 -25 4.5t-11.5 17t2.5 22t17 19.5q62 80 103 108.5t73.5 19t64 -50t75.5 -97.5
l-2 -3q-8 -13 -18 -19t-26 -2q-16 13 -27.5 32t-23.5 38.5t-25.5 37t-33.5 27.5q-20 -16 -37 -36.5t-33.5 -41.5t-34 -41t-38.5 -35zM195 1000q-9 -15 -22 -19.5t-23.5 0t-15 16t2.5 28.5q8 14 23.5 34t34.5 34.5t40 18t40 -14.5q12 -11 21 -25t17.5 -28.5t18.5 -27
t24 -20.5q15 4 21 17t7.5 27.5t0 26t-1.5 12.5q1 16 10.5 26.5t21 12.5t21.5 -5.5t12 -25.5q-1 -16 -5.5 -36.5t-13 -39.5t-21.5 -34t-32 -20q-4 -1 -16 -3.5t-18 0.5q-14 8 -27 25t-25 34.5t-23.5 32t-23 17t-23.5 -11t-25 -51.5z" />
    <glyph glyph-name="uni1ED7" unicode="&#x1ed7;" horiz-adv-x="542" 
d="M46 389q31 54 84.5 82t113 30t116.5 -21t95 -70q38 -48 53.5 -98t11.5 -97t-26 -88.5t-59.5 -72t-89 -47t-113.5 -13.5q-51 3 -92 22.5t-70.5 50.5t-46.5 70.5t-20.5 82.5t7 86.5t36.5 82.5zM384 404q-31 28 -71.5 36.5t-81.5 1t-79 -29t-63 -53.5q-37 -48 -41.5 -104
t17 -104.5t66.5 -82.5t107 -38q59 -4 104.5 11.5t75.5 44.5t44 68t10.5 82t-25.5 86.5t-63 81.5zM124 604q-16 -2 -25 4.5t-11 17t2.5 22t16.5 19.5q62 80 103 108.5t73.5 19t64 -50t75.5 -97.5l-2 -3q-8 -13 -18 -19t-26 -2q-16 13 -27.5 32t-23.5 38.5t-25.5 37
t-33.5 27.5q-20 -16 -37 -36.5t-33.5 -42t-34 -41t-38.5 -34.5zM183 891q-9 -15 -22 -19.5t-23.5 0t-15 16t2.5 28.5q8 14 23.5 34t34.5 34.5t40 18t40 -14.5q12 -11 21 -25t17.5 -28.5t18.5 -27t24 -20.5q15 4 21 17t7.5 27.5t0 26t-1.5 12.5q1 16 10.5 26.5t21 12.5
t21.5 -5.5t12 -25.5q-1 -16 -5.5 -36.5t-13 -39.5t-21.5 -34t-32 -20q-4 -1 -16 -3.5t-18 0.5q-14 8 -27 25t-25 34.5t-23.5 32t-23 17t-23.5 -11t-25 -51.5z" />
    <glyph glyph-name="uni1ED8" unicode="&#x1ed8;" horiz-adv-x="567" 
d="M290 -136q-30 7 -42 17t-10.5 19.5t14 17t31.5 10.5q28 -5 39.5 -17.5t11 -24.5t-12.5 -19.5t-31 -2.5zM514 108q-21 -36 -55 -60.5t-75.5 -37.5t-86.5 -14.5t-87.5 8t-80 30.5t-62.5 53q-38 48 -54.5 109t-14 126t22.5 128t55.5 115.5t85 89t110.5 47.5q46 8 84.5 -7
t70 -46t55.5 -75.5t40 -95t24 -103.5t7 -103t-10.5 -92.5t-28.5 -71.5zM128 101q31 -28 80 -39.5t100.5 -7.5t97.5 23t72 51q24 32 32 85.5t1.5 114t-26.5 121.5t-52 107.5t-74.5 71.5t-94.5 15q-58 -11 -102.5 -45t-73.5 -81.5t-42 -104.5t-8.5 -113.5t26.5 -108.5t64 -89z
M151 731q-16 -2 -25 4.5t-11.5 17t2.5 22t17 19.5q62 80 103 108.5t73.5 19t64 -50t75.5 -97.5l-2 -3q-8 -13 -18 -19t-26 -2q-16 13 -27.5 32t-23.5 38.5t-25.5 37t-33.5 27.5q-20 -16 -37 -36.5t-33.5 -41.5t-34 -41t-38.5 -35z" />
    <glyph glyph-name="uni1ED9" unicode="&#x1ed9;" horiz-adv-x="542" 
d="M278 -136q-30 7 -42 17t-10.5 19.5t14 17t31.5 10.5q28 -5 39.5 -17.5t11 -24.5t-12.5 -19.5t-31 -2.5zM46 389q31 54 84.5 82t113 30t116.5 -21t95 -70q38 -48 53.5 -98t11.5 -97t-26 -88.5t-59.5 -72t-89 -47t-113.5 -13.5q-51 3 -92 22.5t-70.5 50.5t-46.5 70.5
t-20.5 82.5t7 86.5t36.5 82.5zM384 404q-31 28 -71.5 36.5t-81.5 1t-79 -29t-63 -53.5q-37 -48 -41.5 -104t17 -104.5t66.5 -82.5t107 -38q59 -4 104.5 11.5t75.5 44.5t44 68t10.5 82t-25.5 86.5t-63 81.5zM124 604q-16 -2 -25 4.5t-11 17t2.5 22t16.5 19.5q62 80 103 108.5
t73.5 19t64 -50t75.5 -97.5l-2 -3q-8 -13 -18 -19t-26 -2q-16 13 -27.5 32t-23.5 38.5t-25.5 37t-33.5 27.5q-20 -16 -37 -36.5t-33.5 -42t-34 -41t-38.5 -34.5z" />
    <glyph glyph-name="uni1EDA" unicode="&#x1eda;" horiz-adv-x="567" 
d="M514 108q-21 -36 -55 -60.5t-75.5 -37.5t-86.5 -14.5t-87.5 8t-80 30.5t-62.5 53q-38 48 -54.5 109t-14 126t22.5 128t55.5 115.5t85 89t110.5 47.5q57 10 102 -14t80 -70q16 -1 29 1.5t18.5 11t1.5 26t-21 46.5q-6 16 -1 29t14.5 18.5t22 2t21.5 -19.5q5 -16 10.5 -40.5
t4.5 -48.5t-11.5 -42.5t-36.5 -21.5q-12 -3 -27 -1q31 -54 49.5 -121t23 -132.5t-4.5 -123.5t-33 -94zM128 101q31 -28 80 -39.5t100.5 -7.5t97.5 23t72 51q24 32 32 85.5t1.5 114t-26.5 121.5t-52 107.5t-74.5 71.5t-94.5 15q-58 -11 -102.5 -45t-73.5 -81.5t-42 -104.5
t-8.5 -113.5t26.5 -108.5t64 -89zM382 859q-29 -7 -53 -20.5t-46 -30.5t-43 -36.5t-42 -37.5q-15 -4 -27 3t-17 18.5t-1 24t20 19.5q48 30 92.5 58.5t82.5 62.5q15 6 27.5 1t18.5 -15.5t4 -23.5t-16 -23z" />
    <glyph glyph-name="uni1EDB" unicode="&#x1edb;" horiz-adv-x="542" 
d="M46 389q31 54 84.5 82t113 30t116.5 -21t95 -70q0 -1 2 -3q15 -5 27 -5.5t19 7t7.5 25t-8.5 49.5q-2 18 6 29t19 13.5t21.5 -4t15.5 -24.5q1 -17 0 -42t-8 -47.5t-22 -37.5t-41 -12h-5q35 -67 31.5 -134t-39 -119.5t-99.5 -83.5t-149 -27q-51 3 -92 22.5t-70.5 50.5
t-46.5 70.5t-20.5 82.5t7 86.5t36.5 82.5zM384 404q-31 28 -71.5 36.5t-81.5 1t-79 -29t-63 -53.5q-37 -48 -41.5 -104t17 -104.5t66.5 -82.5t107 -38q59 -4 104.5 11.5t75.5 44.5t44 68t10 82t-25.5 86.5t-62.5 81.5zM387 688q-29 -7 -53 -20.5t-46 -30.5t-43 -36.5
t-42 -37.5q-15 -4 -27 3t-17 18.5t-1 24t20 19.5q48 30 92.5 58.5t82.5 62.5q15 6 27.5 1t18.5 -15.5t4 -23.5t-16 -23z" />
    <glyph glyph-name="uni1EDC" unicode="&#x1edc;" horiz-adv-x="567" 
d="M514 108q-21 -36 -55 -60.5t-75.5 -37.5t-86.5 -14.5t-87.5 8t-80 30.5t-62.5 53q-38 48 -54.5 109t-14 126t22.5 128t55.5 115.5t85 89t110.5 47.5q57 10 102 -14t80 -70q16 -1 29 1.5t18.5 11t1.5 26t-21 46.5q-6 16 -1 29t14.5 18.5t22 2t21.5 -19.5q5 -16 10.5 -40.5
t4.5 -48.5t-11.5 -42.5t-36.5 -21.5q-12 -3 -27 -1q31 -54 49.5 -121t23 -132.5t-4.5 -123.5t-33 -94zM128 101q31 -28 80 -39.5t100.5 -7.5t97.5 23t72 51q24 32 32 85.5t1.5 114t-26.5 121.5t-52 107.5t-74.5 71.5t-94.5 15q-58 -11 -102.5 -45t-73.5 -81.5t-42 -104.5
t-8.5 -113.5t26.5 -108.5t64 -89zM168 859q-14 10 -16 23t4 23.5t18.5 15.5t27.5 -1q38 -34 82.5 -62.5t92.5 -58.5q16 -7 20 -19.5t-1 -24t-17 -18.5t-27 -3q-21 18 -42 37.5t-43 36.5t-46.5 30.5t-52.5 20.5z" />
    <glyph glyph-name="uni1EDD" unicode="&#x1edd;" horiz-adv-x="542" 
d="M46 389q31 54 84.5 82t113 30t116.5 -21t95 -70q0 -1 2 -3q15 -5 27 -5.5t19 7t7.5 25t-8.5 49.5q-2 18 6 29t19 13.5t21.5 -4t15.5 -24.5q1 -17 0 -42t-8 -47.5t-22 -37.5t-41 -12h-5q35 -67 31.5 -134t-39 -119.5t-99.5 -83.5t-149 -27q-51 3 -92 22.5t-70.5 50.5
t-46.5 70.5t-20.5 82.5t7 86.5t36.5 82.5zM384 404q-31 28 -71.5 36.5t-81.5 1t-79 -29t-63 -53.5q-37 -48 -41.5 -104t17 -104.5t66.5 -82.5t107 -38q59 -4 104.5 11.5t75.5 44.5t44 68t10 82t-25.5 86.5t-62.5 81.5zM149 694q-14 10 -16 23t4 23.5t18.5 15.5t27.5 -1
q38 -34 82.5 -62.5t92.5 -58.5q16 -7 20 -19.5t-1 -24t-17 -18.5t-27 -3q-21 18 -42 37.5t-43 36.5t-46.5 30.5t-52.5 20.5z" />
    <glyph glyph-name="uni1EDE" unicode="&#x1ede;" horiz-adv-x="567" 
d="M514 108q-21 -36 -55 -60.5t-75.5 -37.5t-86.5 -14.5t-87.5 8t-80 30.5t-62.5 53q-38 48 -54.5 109t-14 126t22.5 128t55.5 115.5t85 89t110.5 47.5q57 10 102 -14t80 -70q16 -1 29 1.5t18.5 11t1.5 26t-21 46.5q-6 16 -1 29t14.5 18.5t22 2t21.5 -19.5q5 -16 10.5 -40.5
t4.5 -48.5t-11.5 -42.5t-36.5 -21.5q-12 -3 -27 -1q31 -54 49.5 -121t23 -132.5t-4.5 -123.5t-33 -94zM128 101q31 -28 80 -39.5t100.5 -7.5t97.5 23t72 51q24 32 32 85.5t1.5 114t-26.5 121.5t-52 107.5t-74.5 71.5t-94.5 15q-58 -11 -102.5 -45t-73.5 -81.5t-42 -104.5
t-8.5 -113.5t26.5 -108.5t64 -89zM285 745q3 21 1 34.5t-3.5 21.5t1.5 10.5t16 1.5l22.5 -1.5t15.5 4.5q10 4 17.5 14t10 22.5t-2.5 24.5t-20 19q-8 3 -20 2.5t-25.5 -3.5t-26.5 -7.5t-21 -10.5q-7 -5 -14 -3.5t-11.5 7t-5.5 13.5t4 15q6 10 16.5 17t22.5 10.5t23.5 5
t19.5 0.5q25 0 43.5 -12t29 -30t12.5 -38.5t-6 -38t-26.5 -28t-49.5 -8.5l8 -37q-1 -4 -5.5 -7t-10 -4.5t-10 0t-5.5 6.5z" />
    <glyph glyph-name="uni1EDF" unicode="&#x1edf;" horiz-adv-x="542" 
d="M46 389q31 54 84.5 82t113 30t116.5 -21t95 -70q0 -1 2 -3q15 -5 27 -5.5t19 7t7.5 25t-8.5 49.5q-2 18 6 29t19 13.5t21.5 -4t15.5 -24.5q1 -17 0 -42t-8 -47.5t-22 -37.5t-41 -12h-5q35 -67 31.5 -134t-39 -119.5t-99.5 -83.5t-149 -27q-51 3 -92 22.5t-70.5 50.5
t-46.5 70.5t-20.5 82.5t7 86.5t36.5 82.5zM384 404q-31 28 -71.5 36.5t-81.5 1t-79 -29t-63 -53.5q-37 -48 -41.5 -104t17 -104.5t66.5 -82.5t107 -38q59 -4 104.5 11.5t75.5 44.5t44 68t10 82t-25.5 86.5t-62.5 81.5zM267 543q3 21 1 34.5t-3.5 21.5t1.5 10.5t16 1.5
l22.5 -1.5t15.5 4.5q10 4 17.5 14t10 22.5t-2.5 24.5t-20 19q-8 3 -20 2.5t-25.5 -3.5t-26.5 -7.5t-21 -10.5q-7 -5 -14 -3.5t-11.5 7t-5.5 13.5t4 15q6 10 16.5 17t22.5 10.5t23.5 5t19.5 0.5q25 0 43.5 -12t29 -30t12.5 -38.5t-6 -38t-26.5 -28t-49.5 -8.5l8 -37
q-1 -4 -5.5 -7t-10 -4.5t-10 0t-5.5 6.5z" />
    <glyph glyph-name="uni1EE0" unicode="&#x1ee0;" horiz-adv-x="567" 
d="M514 108q-21 -36 -55 -60.5t-75.5 -37.5t-86.5 -14.5t-87.5 8t-80 30.5t-62.5 53q-38 48 -54.5 109t-14 126t22.5 128t55.5 115.5t85 89t110.5 47.5q57 10 102 -14t80 -70q16 -1 29 1.5t18.5 11t1.5 26t-21 46.5q-6 16 -1 29t14.5 18.5t22 2t21.5 -19.5q5 -16 10.5 -40.5
t4.5 -48.5t-11.5 -42.5t-36.5 -21.5q-12 -3 -27 -1q31 -54 49.5 -121t23 -132.5t-4.5 -123.5t-33 -94zM128 101q31 -28 80 -39.5t100.5 -7.5t97.5 23t72 51q24 32 32 85.5t1.5 114t-26.5 121.5t-52 107.5t-74.5 71.5t-94.5 15q-58 -11 -102.5 -45t-73.5 -81.5t-42 -104.5
t-8.5 -113.5t26.5 -108.5t64 -89zM195 825q-9 -15 -22 -19.5t-23.5 0t-15 16t2.5 28.5q8 14 23.5 34t34.5 34.5t40 18t40 -14.5q12 -11 21 -25t17.5 -28.5t18.5 -27t24 -20.5q15 4 21 17t7.5 27.5t0 26t-1.5 12.5q1 16 10.5 26.5t21 12.5t21.5 -5.5t12 -25.5
q-1 -16 -5.5 -36.5t-13 -39.5t-21.5 -34t-32 -20q-4 -1 -16 -3.5t-18 0.5q-14 8 -27 25t-25 34.5t-23.5 32t-23 17t-23.5 -11t-25 -51.5z" />
    <glyph glyph-name="uni1EE1" unicode="&#x1ee1;" horiz-adv-x="542" 
d="M46 389q31 54 84.5 82t113 30t116.5 -21t95 -70q0 -1 2 -3q15 -5 27 -5.5t19 7t7.5 25t-8.5 49.5q-2 18 6 29t19 13.5t21.5 -4t15.5 -24.5q1 -17 0 -42t-8 -47.5t-22 -37.5t-41 -12h-5q35 -67 31.5 -134t-39 -119.5t-99.5 -83.5t-149 -27q-51 3 -92 22.5t-70.5 50.5
t-46.5 70.5t-20.5 82.5t7 86.5t36.5 82.5zM384 404q-31 28 -71.5 36.5t-81.5 1t-79 -29t-63 -53.5q-37 -48 -41.5 -104t17 -104.5t66.5 -82.5t107 -38q59 -4 104.5 11.5t75.5 44.5t44 68t10 82t-25.5 86.5t-62.5 81.5zM168 643q-9 -15 -22 -19.5t-23.5 0t-15 16t2.5 28.5
q8 14 23.5 34t34.5 34.5t40 18t40 -14.5q12 -11 21 -25t17.5 -28.5t18.5 -27t24 -20.5q15 4 21 17t7.5 27.5t0 26t-1.5 12.5q1 16 10.5 26.5t21 12.5t21.5 -5.5t12 -25.5q-1 -16 -5.5 -36.5t-13 -39.5t-21.5 -34t-32 -20q-4 -1 -16 -3.5t-18 0.5q-14 8 -27 25t-25 34.5
t-23.5 32t-23 17t-23.5 -11t-25 -51.5z" />
    <glyph glyph-name="uni1EE2" unicode="&#x1ee2;" horiz-adv-x="567" 
d="M514 108q-21 -36 -55 -60.5t-75.5 -37.5t-86.5 -14.5t-87.5 8t-80 30.5t-62.5 53q-38 48 -54.5 109t-14 126t22.5 128t55.5 115.5t85 89t110.5 47.5q57 10 102 -14t80 -70q16 -1 29 1.5t18.5 11t1.5 26t-21 46.5q-6 16 -1 29t14.5 18.5t22 2t21.5 -19.5q5 -16 10.5 -40.5
t4.5 -48.5t-11.5 -42.5t-36.5 -21.5q-12 -3 -27 -1q31 -54 49.5 -121t23 -132.5t-4.5 -123.5t-33 -94zM128 101q31 -28 80 -39.5t100.5 -7.5t97.5 23t72 51q24 32 32 85.5t1.5 114t-26.5 121.5t-52 107.5t-74.5 71.5t-94.5 15q-58 -11 -102.5 -45t-73.5 -81.5t-42 -104.5
t-8.5 -113.5t26.5 -108.5t64 -89zM290 -136q-30 7 -42 17t-10.5 19.5t14 17t31.5 10.5q28 -5 39.5 -17.5t11 -24.5t-12.5 -19.5t-31 -2.5z" />
    <glyph glyph-name="uni1EE3" unicode="&#x1ee3;" horiz-adv-x="542" 
d="M46 389q31 54 84.5 82t113 30t116.5 -21t95 -70q0 -1 2 -3q15 -5 27 -5.5t19 7t7.5 25t-8.5 49.5q-2 18 6 29t19 13.5t21.5 -4t15.5 -24.5q1 -17 0 -42t-8 -47.5t-22 -37.5t-41 -12h-5q35 -67 31.5 -134t-39 -119.5t-99.5 -83.5t-149 -27q-51 3 -92 22.5t-70.5 50.5
t-46.5 70.5t-20.5 82.5t7 86.5t36.5 82.5zM384 404q-31 28 -71.5 36.5t-81.5 1t-79 -29t-63 -53.5q-37 -48 -41.5 -104t17 -104.5t66.5 -82.5t107 -38q59 -4 104.5 11.5t75.5 44.5t44 68t10 82t-25.5 86.5t-62.5 81.5zM278 -136q-30 7 -42 17t-10.5 19.5t14 17t31.5 10.5
q28 -5 39.5 -17.5t11 -24.5t-12.5 -19.5t-31 -2.5z" />
    <glyph glyph-name="uni1EE4" unicode="&#x1ee4;" horiz-adv-x="514" 
d="M8 659q1 16 9.5 25.5t19 10.5t19.5 -7t11 -26q-1 -24 -4.5 -64t-7 -88t-6.5 -99.5t-3.5 -99t3 -87.5t12.5 -63q24 -64 63.5 -97.5t84.5 -40.5t90.5 11.5t81 58.5t56.5 99.5t18 135.5q0 2 -2 27t-5 61.5t-7 78.5t-7 78l-5 60l-2 24q-8 25 4.5 38t33.5 -6q6 -6 10.5 -33.5
t8 -67.5t6 -86t4 -87.5t2 -73t0.5 -42.5q-1 -65 -18 -122.5t-51 -101t-84 -67.5t-117 -21q-62 3 -103.5 26.5t-67 62.5t-36.5 90t-13 109q-1 15 -1 45v68t0.5 79.5t1 79.5t1 67.5t0.5 44.5zM264 -136q-30 7 -42 17t-10.5 19.5t14 17t31.5 10.5q28 -5 39.5 -17.5t11 -24.5
t-12.5 -19.5t-31 -2.5z" />
    <glyph glyph-name="uni1EE5" unicode="&#x1ee5;" horiz-adv-x="510" 
d="M9 450q1 16 10.5 26.5t21 12.5t21.5 -5.5t12 -25.5q-2 -37 -6.5 -74.5t-7 -75t0 -74.5t14.5 -73q26 -75 66.5 -108.5t85 -35t88 24.5t74.5 69.5t45 100t0 116.5q-1 3 -5 22t-9 40.5t-9 39.5l-4 18q-4 12 0 23.5t12.5 18t19.5 7t22 -9.5l-3 4l6 -6q-2 0 -2 2q9 -11 15 -35
t10 -52t6.5 -55t4.5 -43q7 -60 -9 -118t-52 -103t-89.5 -71t-121.5 -23q-62 3 -103.5 26.5t-67 62.5t-36.5 90t-13 109q-2 45 0.5 87.5t2.5 87.5zM262 -136q-30 7 -42 17t-10.5 19.5t14 17t31.5 10.5q28 -5 39.5 -17.5t11 -24.5t-12.5 -19.5t-31 -2.5z" />
    <glyph glyph-name="uni1EE6" unicode="&#x1ee6;" horiz-adv-x="514" 
d="M8 659q1 16 9.5 25.5t19 10.5t19.5 -7t11 -26q-1 -24 -4.5 -64t-7 -88t-6.5 -99.5t-3.5 -99t3 -87.5t12.5 -63q24 -64 63.5 -97.5t84.5 -40.5t90.5 11.5t81 58.5t56.5 99.5t18 135.5q0 2 -2 27t-5 61.5t-7 78.5t-7 78l-5 60l-2 24q-8 25 4.5 38t33.5 -6q6 -6 10.5 -33.5
t8 -67.5t6 -86t4 -87.5t2 -73t0.5 -42.5q-1 -65 -18 -122.5t-51 -101t-84 -67.5t-117 -21q-62 3 -103.5 26.5t-67 62.5t-36.5 90t-13 109q-1 15 -1 45v68t0.5 79.5t1 79.5t1 67.5t0.5 44.5zM221 773q3 21 1 34.5t-3.5 21.5t1.5 10.5t16 1.5l22.5 -1.5t15.5 4.5q10 4 17.5 14
t10 22.5t-2.5 24.5t-20 19q-8 3 -20 2.5t-25.5 -3.5t-26.5 -7.5t-21 -10.5q-7 -5 -14 -3.5t-11.5 7t-5.5 13.5t4 15q6 10 16.5 17t22.5 10.5t23.5 5t19.5 0.5q25 0 43.5 -12t29 -30t12.5 -38.5t-6 -38t-26.5 -28t-49.5 -8.5l8 -37q-1 -4 -5.5 -7t-10 -4.5t-10 0t-5.5 6.5z
" />
    <glyph glyph-name="uni1EE7" unicode="&#x1ee7;" horiz-adv-x="510" 
d="M9 450q1 16 10.5 26.5t21 12.5t21.5 -5.5t12 -25.5q-2 -37 -6.5 -74.5t-7 -75t0 -74.5t14.5 -73q26 -75 66.5 -108.5t85 -35t88 24.5t74.5 69.5t45 100t0 116.5q-1 3 -5 22t-9 40.5t-9 39.5l-4 18q-4 12 0 23.5t12.5 18t19.5 7t22 -9.5l-3 4l6 -6q-2 0 -2 2q9 -11 15 -35
t10 -52t6.5 -55t4.5 -43q7 -60 -9 -118t-52 -103t-89.5 -71t-121.5 -23q-62 3 -103.5 26.5t-67 62.5t-36.5 90t-13 109q-2 45 0.5 87.5t2.5 87.5zM219 543q3 21 1 34.5t-3.5 21.5t1.5 10.5t16 1.5l22.5 -1.5t15.5 4.5q10 4 17.5 14t10 22.5t-2.5 24.5t-20 19q-8 3 -20 2.5
t-25.5 -3.5t-26.5 -7.5t-21 -10.5q-7 -5 -14 -3.5t-11.5 7t-5.5 13.5t4 15q6 10 16.5 17t22.5 10.5t23.5 5t19.5 0.5q25 0 43.5 -12t29 -30t12.5 -38.5t-6 -38t-26.5 -28t-49.5 -8.5l8 -37q-1 -4 -5.5 -7t-10 -4.5t-10 0t-5.5 6.5z" />
    <glyph glyph-name="uni1EE8" unicode="&#x1ee8;" horiz-adv-x="514" 
d="M8 659q1 16 9.5 25.5t19 10.5t19.5 -7t11 -26q-1 -24 -4.5 -64t-7 -88t-6.5 -99.5t-3.5 -99t3 -87.5t12.5 -63q24 -64 63.5 -97.5t84.5 -40.5t90.5 11.5t81 58.5t56.5 99.5t18 135.5q0 2 -2 27t-5 61.5t-7 78.5t-7 78l-5 60l-2 24q-8 25 4.5 38t33.5 -6l-3 4l6 -6h-1
q5 -7 8.5 -25t6.5 -44q17 -1 30.5 1t19.5 10.5t2.5 26t-21.5 47.5q-6 16 -1 29t14.5 18.5t22 2t21.5 -19.5q5 -16 10.5 -40.5t4.5 -48.5t-11.5 -42.5t-36.5 -21.5q-13 -2 -25.5 -1t-26.5 3q3 -40 5.5 -85t3.5 -85t1.5 -71t0.5 -42q-1 -65 -18 -122.5t-51 -101t-84 -67.5
t-117 -21q-62 3 -103.5 26.5t-67 62.5t-36.5 90t-13 109q-1 15 -1 45v68t0.5 79.5t1 79.5t1 67.5t0.5 44.5zM374 859q-29 -7 -53 -20.5t-46 -30.5t-43 -36.5t-42 -37.5q-15 -4 -27 3t-17 18.5t-1 24t20 19.5q48 30 92.5 58.5t82.5 62.5q15 6 27.5 1t18.5 -15.5t4 -23.5
t-16 -23z" />
    <glyph glyph-name="uni1EE9" unicode="&#x1ee9;" horiz-adv-x="510" 
d="M9 450q1 16 10.5 26.5t21 12.5t21.5 -5.5t12 -25.5q-2 -37 -6.5 -74.5t-7 -75t0 -74.5t14.5 -73q26 -75 66.5 -108.5t85 -35t88 24.5t74.5 69.5t45 100t0 116.5q-1 3 -5 22t-9 40.5t-9 39.5l-4 18q-4 12 0 23.5t12.5 18t19.5 7t22 -9.5l-3 4l4 -4q0 -1 0.5 -1t0.5 -1h1
h-1q8 -11 14 -33.5t10 -48.5q11 -2 19 0.5t12 11.5t3 25.5t-8 42.5q-2 18 6 29t19 13.5t21.5 -4t15.5 -24.5q1 -17 0 -42t-8 -47.5t-22 -37.5t-41 -12q-8 0 -12 1q2 -17 3 -31.5t3 -25.5q7 -60 -9 -118t-52 -103t-89.5 -71t-121.5 -23q-62 3 -103.5 26.5t-67 62.5t-36.5 90
t-13 109q-2 45 0.5 87.5t2.5 87.5zM395 659q-29 -7 -53 -20.5t-46 -30.5t-43 -36.5t-42 -37.5q-15 -4 -27 3t-17 18.5t-1 24t20 19.5q48 30 92.5 58.5t82.5 62.5q15 6 27.5 1t18.5 -15.5t4 -23.5t-16 -23z" />
    <glyph glyph-name="uni1EEA" unicode="&#x1eea;" horiz-adv-x="514" 
d="M8 659q1 16 9.5 25.5t19 10.5t19.5 -7t11 -26q-1 -24 -4.5 -64t-7 -88t-6.5 -99.5t-3.5 -99t3 -87.5t12.5 -63q24 -64 63.5 -97.5t84.5 -40.5t90.5 11.5t81 58.5t56.5 99.5t18 135.5q0 2 -2 27t-5 61.5t-7 78.5t-7 78l-5 60l-2 24q-8 25 4.5 38t33.5 -6l-3 4l6 -6h-1
q5 -7 8.5 -25t6.5 -44q17 -1 30.5 1t19.5 10.5t2.5 26t-21.5 47.5q-6 16 -1 29t14.5 18.5t22 2t21.5 -19.5q5 -16 10.5 -40.5t4.5 -48.5t-11.5 -42.5t-36.5 -21.5q-13 -2 -25.5 -1t-26.5 3q3 -40 5.5 -85t3.5 -85t1.5 -71t0.5 -42q-1 -65 -18 -122.5t-51 -101t-84 -67.5
t-117 -21q-62 3 -103.5 26.5t-67 62.5t-36.5 90t-13 109q-1 15 -1 45v68t0.5 79.5t1 79.5t1 67.5t0.5 44.5zM135 860q-14 10 -16 23t4 23.5t18.5 15.5t27.5 -1q38 -34 82.5 -62.5t92.5 -58.5q16 -7 20 -19.5t-1 -24t-17 -18.5t-27 -3q-21 18 -42 37.5t-43 36.5t-46.5 30.5
t-52.5 20.5z" />
    <glyph glyph-name="uni1EEB" unicode="&#x1eeb;" horiz-adv-x="510" 
d="M9 450q1 16 10.5 26.5t21 12.5t21.5 -5.5t12 -25.5q-2 -37 -6.5 -74.5t-7 -75t0 -74.5t14.5 -73q26 -75 66.5 -108.5t85 -35t88 24.5t74.5 69.5t45 100t0 116.5q-1 3 -5 22t-9 40.5t-9 39.5l-4 18q-4 12 0 23.5t12.5 18t19.5 7t22 -9.5l-3 4l4 -4q0 -1 0.5 -1t0.5 -1h1
h-1q8 -11 14 -33.5t10 -48.5q11 -2 19 0.5t12 11.5t3 25.5t-8 42.5q-2 18 6 29t19 13.5t21.5 -4t15.5 -24.5q1 -17 0 -42t-8 -47.5t-22 -37.5t-41 -12q-8 0 -12 1q2 -17 3 -31.5t3 -25.5q7 -60 -9 -118t-52 -103t-89.5 -71t-121.5 -23q-62 3 -103.5 26.5t-67 62.5t-36.5 90
t-13 109q-2 45 0.5 87.5t2.5 87.5zM109 666q-14 10 -16 23t4 23.5t18.5 15.5t27.5 -1q38 -34 82.5 -62.5t92.5 -58.5q16 -7 20 -19.5t-1 -24t-17 -18.5t-27 -3q-21 18 -42 37.5t-43 36.5t-46.5 30.5t-52.5 20.5z" />
    <glyph glyph-name="uni1EEC" unicode="&#x1eec;" horiz-adv-x="514" 
d="M8 659q1 16 9.5 25.5t19 10.5t19.5 -7t11 -26q-1 -24 -4.5 -64t-7 -88t-6.5 -99.5t-3.5 -99t3 -87.5t12.5 -63q24 -64 63.5 -97.5t84.5 -40.5t90.5 11.5t81 58.5t56.5 99.5t18 135.5q0 2 -2 27t-5 61.5t-7 78.5t-7 78l-5 60l-2 24q-8 25 4.5 38t33.5 -6l-3 4l6 -6h-1
q5 -7 8.5 -25t6.5 -44q17 -1 30.5 1t19.5 10.5t2.5 26t-21.5 47.5q-6 16 -1 29t14.5 18.5t22 2t21.5 -19.5q5 -16 10.5 -40.5t4.5 -48.5t-11.5 -42.5t-36.5 -21.5q-13 -2 -25.5 -1t-26.5 3q3 -40 5.5 -85t3.5 -85t1.5 -71t0.5 -42q-1 -65 -18 -122.5t-51 -101t-84 -67.5
t-117 -21q-62 3 -103.5 26.5t-67 62.5t-36.5 90t-13 109q-1 15 -1 45v68t0.5 79.5t1 79.5t1 67.5t0.5 44.5zM221 773q3 21 1 34.5t-3.5 21.5t1.5 10.5t16 1.5l22.5 -1.5t15.5 4.5q10 4 17.5 14t10 22.5t-2.5 24.5t-20 19q-8 3 -20 2.5t-25.5 -3.5t-26.5 -7.5t-21 -10.5
q-7 -5 -14 -3.5t-11.5 7t-5.5 13.5t4 15q6 10 16.5 17t22.5 10.5t23.5 5t19.5 0.5q25 0 43.5 -12t29 -30t12.5 -38.5t-6 -38t-26.5 -28t-49.5 -8.5l8 -37q-1 -4 -5.5 -7t-10 -4.5t-10 0t-5.5 6.5z" />
    <glyph glyph-name="uni1EED" unicode="&#x1eed;" horiz-adv-x="510" 
d="M9 450q1 16 10.5 26.5t21 12.5t21.5 -5.5t12 -25.5q-2 -37 -6.5 -74.5t-7 -75t0 -74.5t14.5 -73q26 -75 66.5 -108.5t85 -35t88 24.5t74.5 69.5t45 100t0 116.5q-1 3 -5 22t-9 40.5t-9 39.5l-4 18q-4 12 0 23.5t12.5 18t19.5 7t22 -9.5l-3 4l4 -4q0 -1 0.5 -1t0.5 -1h1
h-1q8 -11 14 -33.5t10 -48.5q11 -2 19 0.5t12 11.5t3 25.5t-8 42.5q-2 18 6 29t19 13.5t21.5 -4t15.5 -24.5q1 -17 0 -42t-8 -47.5t-22 -37.5t-41 -12q-8 0 -12 1q2 -17 3 -31.5t3 -25.5q7 -60 -9 -118t-52 -103t-89.5 -71t-121.5 -23q-62 3 -103.5 26.5t-67 62.5t-36.5 90
t-13 109q-2 45 0.5 87.5t2.5 87.5zM219 543q3 21 1 34.5t-3.5 21.5t1.5 10.5t16 1.5l22.5 -1.5t15.5 4.5q10 4 17.5 14t10 22.5t-2.5 24.5t-20 19q-8 3 -20 2.5t-25.5 -3.5t-26.5 -7.5t-21 -10.5q-7 -5 -14 -3.5t-11.5 7t-5.5 13.5t4 15q6 10 16.5 17t22.5 10.5t23.5 5
t19.5 0.5q25 0 43.5 -12t29 -30t12.5 -38.5t-6 -38t-26.5 -28t-49.5 -8.5l8 -37q-1 -4 -5.5 -7t-10 -4.5t-10 0t-5.5 6.5z" />
    <glyph glyph-name="uni1EEE" unicode="&#x1eee;" horiz-adv-x="514" 
d="M8 659q1 16 9.5 25.5t19 10.5t19.5 -7t11 -26q-1 -24 -4.5 -64t-7 -88t-6.5 -99.5t-3.5 -99t3 -87.5t12.5 -63q24 -64 63.5 -97.5t84.5 -40.5t90.5 11.5t81 58.5t56.5 99.5t18 135.5q0 2 -2 27t-5 61.5t-7 78.5t-7 78l-5 60l-2 24q-8 25 4.5 38t33.5 -6l-3 4l6 -6h-1
q5 -7 8.5 -25t6.5 -44q17 -1 30.5 1t19.5 10.5t2.5 26t-21.5 47.5q-6 16 -1 29t14.5 18.5t22 2t21.5 -19.5q5 -16 10.5 -40.5t4.5 -48.5t-11.5 -42.5t-36.5 -21.5q-13 -2 -25.5 -1t-26.5 3q3 -40 5.5 -85t3.5 -85t1.5 -71t0.5 -42q-1 -65 -18 -122.5t-51 -101t-84 -67.5
t-117 -21q-62 3 -103.5 26.5t-67 62.5t-36.5 90t-13 109q-1 15 -1 45v68t0.5 79.5t1 79.5t1 67.5t0.5 44.5zM169 759q-9 -15 -22 -19.5t-23.5 0t-15 16t2.5 28.5q8 14 23.5 34t34.5 34.5t40 18t40 -14.5q12 -11 21 -25t17.5 -28.5t18.5 -27t24 -20.5q15 4 21 17t7.5 27.5
t0 26t-1.5 12.5q1 16 10.5 26.5t21 12.5t21.5 -5.5t12 -25.5q-1 -16 -5.5 -36.5t-13 -39.5t-21.5 -34t-32 -20q-4 -1 -16 -3.5t-18 0.5q-14 8 -27 25t-25 34.5t-23.5 32t-23 17t-23.5 -11t-25 -51.5z" />
    <glyph glyph-name="uni1EEF" unicode="&#x1eef;" horiz-adv-x="510" 
d="M9 450q1 16 10.5 26.5t21 12.5t21.5 -5.5t12 -25.5q-2 -37 -6.5 -74.5t-7 -75t0 -74.5t14.5 -73q26 -75 66.5 -108.5t85 -35t88 24.5t74.5 69.5t45 100t0 116.5q-1 3 -5 22t-9 40.5t-9 39.5l-4 18q-4 12 0 23.5t12.5 18t19.5 7t22 -9.5l-3 4l4 -4q0 -1 0.5 -1t0.5 -1h1
h-1q8 -11 14 -33.5t10 -48.5q11 -2 19 0.5t12 11.5t3 25.5t-8 42.5q-2 18 6 29t19 13.5t21.5 -4t15.5 -24.5q1 -17 0 -42t-8 -47.5t-22 -37.5t-41 -12q-8 0 -12 1q2 -17 3 -31.5t3 -25.5q7 -60 -9 -118t-52 -103t-89.5 -71t-121.5 -23q-62 3 -103.5 26.5t-67 62.5t-36.5 90
t-13 109q-2 45 0.5 87.5t2.5 87.5zM167 579q-9 -15 -22 -19.5t-23.5 0t-15 16t2.5 28.5q8 14 23.5 34t34.5 34.5t40 18t40 -14.5q12 -11 21 -25t17.5 -28.5t18.5 -27t24 -20.5q15 4 21 17t7.5 27.5t0 26t-1.5 12.5q1 16 10.5 26.5t21 12.5t21.5 -5.5t12 -25.5
q-1 -16 -5.5 -36.5t-13 -39.5t-21.5 -34t-32 -20q-4 -1 -16 -3.5t-18 0.5q-14 8 -27 25t-25 34.5t-23.5 32t-23 17t-23.5 -11t-25 -51.5z" />
    <glyph glyph-name="uni1EF0" unicode="&#x1ef0;" horiz-adv-x="514" 
d="M8 659q1 16 9.5 25.5t19 10.5t19.5 -7t11 -26q-1 -24 -4.5 -64t-7 -88t-6.5 -99.5t-3.5 -99t3 -87.5t12.5 -63q24 -64 63.5 -97.5t84.5 -40.5t90.5 11.5t81 58.5t56.5 99.5t18 135.5q0 2 -2 27t-5 61.5t-7 78.5t-7 78l-5 60l-2 24q-8 25 4.5 38t33.5 -6l-3 4l6 -6h-1
q5 -7 8.5 -25t6.5 -44q17 -1 30.5 1t19.5 10.5t2.5 26t-21.5 47.5q-6 16 -1 29t14.5 18.5t22 2t21.5 -19.5q5 -16 10.5 -40.5t4.5 -48.5t-11.5 -42.5t-36.5 -21.5q-13 -2 -25.5 -1t-26.5 3q3 -40 5.5 -85t3.5 -85t1.5 -71t0.5 -42q-1 -65 -18 -122.5t-51 -101t-84 -67.5
t-117 -21q-62 3 -103.5 26.5t-67 62.5t-36.5 90t-13 109q-1 15 -1 45v68t0.5 79.5t1 79.5t1 67.5t0.5 44.5zM264 -136q-30 7 -42 17t-10.5 19.5t14 17t31.5 10.5q28 -5 39.5 -17.5t11 -24.5t-12.5 -19.5t-31 -2.5z" />
    <glyph glyph-name="uni1EF1" unicode="&#x1ef1;" horiz-adv-x="510" 
d="M9 450q1 16 10.5 26.5t21 12.5t21.5 -5.5t12 -25.5q-2 -37 -6.5 -74.5t-7 -75t0 -74.5t14.5 -73q26 -75 66.5 -108.5t85 -35t88 24.5t74.5 69.5t45 100t0 116.5q-1 3 -5 22t-9 40.5t-9 39.5l-4 18q-4 12 0 23.5t12.5 18t19.5 7t22 -9.5l-3 4l4 -4q0 -1 0.5 -1t0.5 -1h1
h-1q8 -11 14 -33.5t10 -48.5q11 -2 19 0.5t12 11.5t3 25.5t-8 42.5q-2 18 6 29t19 13.5t21.5 -4t15.5 -24.5q1 -17 0 -42t-8 -47.5t-22 -37.5t-41 -12q-8 0 -12 1q2 -17 3 -31.5t3 -25.5q7 -60 -9 -118t-52 -103t-89.5 -71t-121.5 -23q-62 3 -103.5 26.5t-67 62.5t-36.5 90
t-13 109q-2 45 0.5 87.5t2.5 87.5zM262 -136q-30 7 -42 17t-10.5 19.5t14 17t31.5 10.5q28 -5 39.5 -17.5t11 -24.5t-12.5 -19.5t-31 -2.5z" />
    <glyph glyph-name="Ygrave" unicode="&#x1ef2;" 
d="M57 671q6 13 16 20.5t20 7.5t18 -7.5t10 -23.5q-2 -19 -10.5 -54t-18 -79.5t-19 -95.5t-14.5 -100.5t-3.5 -94.5t14.5 -78q23 -45 62.5 -58t84 -5.5t89.5 30.5t78 50q14 12 22.5 21.5t14.5 20.5q0 25 -0.5 63.5t-1 81.5t-1 87t-0.5 82t1 66t3 38q5 11 14.5 15t18.5 -6
q9 -28 14 -78.5t6.5 -112t1 -129t-2.5 -129.5t-5 -113.5t-5 -80.5q-4 -47 -23.5 -81t-49 -56.5t-67 -34.5t-77 -15t-79 2t-73.5 16q-8 12 -7.5 24t7 21t18 12.5t25.5 -2.5q5 -3 25 -8t48 -6.5t60 2.5t61.5 18t52.5 40.5t32 70.5q3 13 4 34.5t1.5 45t0 45.5t-0.5 36
q-29 -31 -67 -56t-78.5 -41t-80.5 -22.5t-74.5 0t-60.5 27t-38 57.5q-11 34 -13 80t1 97t9.5 103.5t14 100.5t14 87.5t8.5 64.5zM142 855q-14 10 -16 23t4 23.5t18.5 15.5t27.5 -1q38 -34 82.5 -62.5t92.5 -58.5q16 -7 20 -19.5t-1 -24t-17 -18.5t-27 -3q-21 18 -42 37.5
t-43 36.5t-46.5 30.5t-52.5 20.5z" />
    <glyph glyph-name="ygrave" unicode="&#x1ef3;" horiz-adv-x="478" 
d="M46 454q6 13 16 20.5t20 7.5t18 -7.5t10 -23.5q-3 -29 -14 -68t-20.5 -79.5t-13 -77.5t7.5 -60q23 -45 59.5 -66t77.5 -23t83 13.5t75 42.5q14 12 22.5 21.5t14.5 20.5q0 38 -3.5 76.5t-7 72t-5.5 60.5t1 42q5 11 14.5 15t18.5 -6q13 -42 19.5 -97t8 -113.5t-1 -115
t-6.5 -100.5q-6 -71 -41.5 -112.5t-86 -59.5t-108.5 -16t-109 19q-8 12 -7.5 24t7 21t18 12.5t25.5 -2.5q5 -3 23 -7.5t43.5 -6.5t54.5 2t56 18t48 40.5t30 70.5q6 27 8 54.5t2 56.5q-44 -47 -99.5 -70t-109.5 -21.5t-100 28t-71 78.5q-18 37 -18 77t8.5 80.5t19 80.5
t13.5 78zM131 651q-14 10 -16 23t4 23.5t18.5 15.5t27.5 -1q38 -34 82.5 -62.5t92.5 -58.5q16 -7 20 -19.5t-1 -24t-17 -18.5t-27 -3q-21 18 -42 37.5t-43 36.5t-46.5 30.5t-52.5 20.5z" />
    </font>
</defs>
</svg>
