<svg xmlns="http://www.w3.org/2000/svg">
<defs>
<font id="UVFDidotLTStd-Italic" horiz-adv-x="735" >
  <font-face 
    font-family="UVF Didot LT Std"
    font-weight="700"
    font-style="italic"
    font-stretch="normal"
    units-per-em="1000"
    panose-1="2 0 8 3 9 0 0 2 0 4"
    ascent="800"
    descent="-200"
    x-height="435"
    cap-height="709"
    bbox="-644 -617 2247 1192"
    underline-thickness="20"
    underline-position="-163"
    unicode-range="U+0021-1EC23"
  />
<missing-glyph horiz-adv-x="1386" 
d="M648 657q0 -40 -19 -78q11 -2 21 -3t21 -2v8q0 39 22 80t60 68q-74 6 -130 35q-91 45 -91 128q0 121 131 187q103 52 237 52q123 0 227 -65q120 -75 120 -191q0 -16 -1 -20q50 10 93 10q71 0 123 -35q47 -32 56 -86l3 11l67 6l-86 -275q-31 -97 -79 -149.5t-114 -52.5
q-22 0 -39 7.5t-28 19.5t-17 26t-6 26q0 17 12 31t31 14q15 0 25 -9.5t10 -23.5q0 -11 -6.5 -21t-17.5 -13q-15 -5 -15 -20q0 -12 10.5 -22t40.5 -10q18 0 32.5 6.5t29.5 29t32 66.5t41 118l16 51q-17 -40 -40.5 -60t-46.5 -20q-35 0 -54 18t-26 44q-17 -32 -42 -47t-43 -15
q-26 0 -40.5 13t-14.5 33q0 19 8.5 41.5t19 46t19 47.5t8.5 45q0 12 -8 20q-40 -58 -116 -99l-44 -141h-65l35 110q-24 -9 -49.5 -16t-51.5 -12l-15 -50q-4 -8 -0.5 -14t12.5 -6q15 0 30 11.5t30 38.5l5 -3q-17 -33 -42.5 -49t-44.5 -16q-28 0 -40.5 22t-1.5 55h-1
q-17 -38 -40 -57.5t-46 -19.5q-39 0 -58 22t-24 53q-14 2 -26.5 4t-25.5 4q-23 -37 -59 -60t-77 -23q-43 0 -71.5 29.5t-28.5 77.5q0 36 14.5 69t39.5 58q1 27 14 39t43 11q12 0 17 -6q9 2 17.5 3.5t17.5 1.5q43 0 71.5 -29.5t28.5 -77.5zM305 -108q-121 0 -205 -34
q-118 -46 -118 -150q0 -139 148 -230q136 -84 319 -84q97 0 166 30q93 41 97 124q4 68 -47 112q-46 40 -118 40q-2 0 -9.5 -1t-18.5 -3q-6 -2 -10 -2t-7 -1q-4 -1 -6 -1q-5 6 18 11q9 2 17 3t15 2q78 3 137 -38q67 -46 64 -122q-3 -96 -109 -136q-75 -29 -186 -29
q-173 0 -315 76q-176 93 -177 249q-1 130 106 197q91 57 228 54q109 -2 222 -39q56 -19 106.5 -36t98.5 -33q112 -39 187 -42h22q-27 11 -40.5 32t-13.5 40q0 17 12 31t31 14q15 0 24.5 -10t9.5 -23q0 -11 -6 -21t-18 -13q-14 -5 -14 -20q0 -10 6.5 -18.5t23.5 -11.5

<glyph glyph-name="ri" unicode="ri" horiz-adv-x="592" 
d="M564 515q0 -26 -15 -47.5t-38 -21.5q-24 0 -37.5 11.5t-13.5 27.5q0 9 2 14.5t4.5 10t4.5 9t2 10.5q0 8 -3 13t-19 8q-18 3 -39.5 -10t-45 -37.5t-47 -57t-46 -69t-42.5 -73t-36 -69.5l-74 -234h-103l115 361q7 22 0.5 35t-21.5 13t-33.5 -16t-35.5 -53l-7 4q22 49 55 70
t61 21q45 0 64 -27.5t3 -92.5q18 42 47 91.5t65 90.5t76 67.5t78 23.5q39 -3 59 -20t20 -53zM580 94q-13 -26 -30.5 -45.5t-36 -32.5t-37 -19t-33.5 -6q-42 0 -64.5 21t-22.5 53q0 31 16 71.5t34.5 83.5t34.5 84t16 74q0 17 -5.5 24t-19.5 7t-33 -16.5t-36 -52.5l-7 4
q22 49 55.5 70t62.5 21q40 0 58 -21.5t18 -52.5q0 -37 -16 -80t-34.5 -84.5t-34.5 -78t-16 -60.5q0 -17 7 -27.5t23 -10.5q23 0 46.5 16.5t47.5 61.5z" />
    <glyph glyph-name=".notdef" horiz-adv-x="1386" 
d="M648 657q0 -40 -19 -78q11 -2 21 -3t21 -2v8q0 39 22 80t60 68q-74 6 -130 35q-91 45 -91 128q0 121 131 187q103 52 237 52q123 0 227 -65q120 -75 120 -191q0 -16 -1 -20q50 10 93 10q71 0 123 -35q47 -32 56 -86l3 11l67 6l-86 -275q-31 -97 -79 -149.5t-114 -52.5
q-22 0 -39 7.5t-28 19.5t-17 26t-6 26q0 17 12 31t31 14q15 0 25 -9.5t10 -23.5q0 -11 -6.5 -21t-17.5 -13q-15 -5 -15 -20q0 -12 10.5 -22t40.5 -10q18 0 32.5 6.5t29.5 29t32 66.5t41 118l16 51q-17 -40 -40.5 -60t-46.5 -20q-35 0 -54 18t-26 44q-17 -32 -42 -47t-43 -15
q-26 0 -40.5 13t-14.5 33q0 19 8.5 41.5t19 46t19 47.5t8.5 45q0 12 -8 20q-40 -58 -116 -99l-44 -141h-65l35 110q-24 -9 -49.5 -16t-51.5 -12l-15 -50q-4 -8 -0.5 -14t12.5 -6q15 0 30 11.5t30 38.5l5 -3q-17 -33 -42.5 -49t-44.5 -16q-28 0 -40.5 22t-1.5 55h-1
q-17 -38 -40 -57.5t-46 -19.5q-39 0 -58 22t-24 53q-14 2 -26.5 4t-25.5 4q-23 -37 -59 -60t-77 -23q-43 0 -71.5 29.5t-28.5 77.5q0 36 14.5 69t39.5 58q1 27 14 39t43 11q12 0 17 -6q9 2 17.5 3.5t17.5 1.5q43 0 71.5 -29.5t28.5 -77.5zM305 -108q-121 0 -205 -34
q-118 -46 -118 -150q0 -139 148 -230q136 -84 319 -84q97 0 166 30q93 41 97 124q4 68 -47 112q-46 40 -118 40q-2 0 -9.5 -1t-18.5 -3q-6 -2 -10 -2t-7 -1q-4 -1 -6 -1q-5 6 18 11q9 2 17 3t15 2q78 3 137 -38q67 -46 64 -122q-3 -96 -109 -136q-75 -29 -186 -29
q-173 0 -315 76q-176 93 -177 249q-1 130 106 197q91 57 228 54q109 -2 222 -39q56 -19 106.5 -36t98.5 -33q112 -39 187 -42h22q-27 11 -40.5 32t-13.5 40q0 17 12 31t31 14q15 0 24.5 -10t9.5 -23q0 -11 -6 -21t-18 -13q-14 -5 -14 -20q0 -10 6.5 -18.5t23.5 -11.5
q17 0 31.5 2t26.5 5q10 7 20.5 21t22 38.5t25 61.5t30.5 90l16 51q-17 -40 -40.5 -60.5t-46.5 -20.5q-34 0 -52.5 16.5t-26.5 41.5q-17 -29 -40.5 -42.5t-41.5 -13.5q-26 0 -40.5 13.5t-14.5 34.5q0 19 10 45t22 53t22 53.5t10 47.5q0 11 -3 15.5t-13 4.5q-19 0 -40 -37
q-1 -14 -9.5 -21t-20.5 -7q-15 0 -21.5 7.5t-6.5 18.5t5.5 16t5.5 14t-5.5 15t-19.5 6q-24 0 -36.5 -13t-12.5 -36q0 -20 13.5 -35t30 -30t30 -33.5t13.5 -46.5q0 -15 -6.5 -29.5t-20 -26.5t-33.5 -19.5t-47 -7.5q-34 0 -55 15t-29 33q-21 -25 -43.5 -36.5t-53.5 -11.5
q-43 0 -71.5 29.5t-28.5 77.5q0 34 13.5 65.5t36 56t51.5 39t61 14.5q40 0 60 -17.5t20 -36.5t-11 -34t-30.5 -25.5t-45 -16t-54.5 -5.5h-27q-8 -29 -13 -53t-5 -38q0 -23 9 -37t33 -14q37 0 58.5 13.5t39.5 33.5q-2 8 -2 12q0 15 9.5 27t23.5 12q15 0 22 -9t7 -19
q0 -11 -3.5 -16.5t-8 -8.5t-8 -6t-3.5 -10q0 -11 10.5 -20t37.5 -9q29 0 41 15t12 38q0 24 -12.5 38.5t-27.5 28t-27.5 29.5t-12.5 41q0 13 7.5 28.5t20 28.5t30.5 21.5t39 8.5q27 0 47 -12.5t23 -32.5q14 23 32.5 33.5t35.5 10.5q26 0 37.5 -13.5t11.5 -33.5q0 -24 -10 -51
t-22.5 -53.5t-22.5 -50t-10 -38.5q0 -24 19 -24q14 0 28.5 9.5t28.5 35.5q-3 16 -3 34q0 31 14 63.5t38 59t56.5 43.5t69.5 17q17 0 29.5 -8.5t15.5 -25.5l9 27l67 5l-11 -34q14 17 29.5 24.5t29.5 7.5q28 0 41 -24.5t-6 -77.5q29 52 62.5 77t60.5 25q24 0 38 -15t14 -43
q0 -21 -9 -46.5t-20.5 -50.5t-20.5 -47.5t-9 -37.5q0 -18 11 -23q0 2 -0.5 3.5t-0.5 3.5q-10 64 56 62q20 0 20 -15q0 -2 -2 -8q-1 -1 -1 -2t-1 -2q-2 -4 -4 -7q-11 -17 -24 -28.5t-27 -18.5q10 -16 30 -22t53 -6q23 0 45 5q-27 37 -27 82q0 48 28 83q28 37 74 37
q27 0 45.5 -20.5t18.5 -47.5q0 -47 -39 -87q-35 -36 -84 -51q69 -74 254 -74q131 0 236 50q132 64 132 183q0 80 -69 124q-59 38 -144 38q-80 0 -145 -35q-79 -43 -79 -117q0 -54 49 -82q41 -23 98 -23q81 0 122 38q13 12 12 12q1 0 1 -2q0 -5 -7 -15q-53 -63 -134 -63
q-59 0 -105 38q-45 37 -45 97q0 80 81 130q69 42 155 42q90 0 151 -46q69 -50 69 -136v-1q0 -126 -133 -198q-110 -59 -246 -59q-77 0 -143 22q-82 26 -121 74q-24 -6 -50 -6q-33 0 -61 12q-20 9 -30 21q-11 -4 -22 -4q-26 0 -40.5 13t-14.5 33q0 19 8.5 41t19 46t19 47.5
t8.5 45.5q0 12 -7.5 20t-18.5 8q-20 0 -41 -20t-52 -75l-49 -154h-65l73 230q5 14 0.5 22.5t-14.5 8.5q-8 0 -18 -7t-20 -24l-70 -225q-21 -64 -49.5 -109t-64.5 -69q-5 -4 -11.5 -7.5t-14.5 -6.5q-21 -8 -47 -10q-14 -2 -30 -2h-33q-42 2 -114 14t-175 35q-190 43 -314 43
h-1zM897 1106q-127 0 -226 -44q-129 -59 -129 -170q0 -80 87 -120q61 -29 139 -32q18 11 38 17t43 6t35 -13q5 1 9 1.5t9 2.5l2 4l22 1q22 5 44.5 12t47.5 15q91 30 144.5 47t71.5 21q1 4 1 20q0 111 -118 177q-98 55 -219 55h-1zM-291 743q63 0 119 -30q67 -36 67 -94
q0 -42 -38 -66q-32 -20 -77 -20q-40 0 -78 23q-44 26 -44 64q0 20 7 19q1 -5 0.5 -9.5t-1.5 -9.5q3 -35 43 -53q31 -15 72 -15q33 0 62 18q32 20 32 53q0 51 -59 83q-50 27 -106 27q-67 0 -113 -30q-54 -35 -54 -98q0 -45 24 -76q20 1 34.5 1.5t23.5 -0.5q25 -2 65 -8.5
t96 -19.5q106 -23 162 -23q46 0 63 3q9 1 18 5h-118q-2 0 -1.5 2.5t2.5 2.5h57q4 0 5 2l138 436q0 3 -3 3h-58q-2 0 -1 2.5t3 2.5h203q2 0 1 -2.5t-3 -2.5h-49q-5 0 -5 -3l-65 -207h158l65 207q0 3 -4 3h-49q-2 0 -1 2.5t3 2.5h203q2 0 1 -2.5t-3 -2.5h-57q-4 0 -5 -3
l-137 -436q0 -2 3 -2h57q2 0 1.5 -2.5t-2.5 -2.5h-203q-2 0 -1.5 2.5t2.5 2.5h50q4 0 5 2l70 225h-158l-71 -225q-1 -2 3 -2h50q2 0 1.5 -2.5t-2.5 -2.5h-54q-13 -44 -84 -65q-60 -18 -136 -18q-148 0 -243 74q-87 -8 -143 -40q-75 -44 -75 -119q0 -106 109 -172
q95 -58 220 -58q75 0 138 26q81 34 81 102q0 67 -68 105q-56 32 -128 32q-142 0 -142 -73q0 -37 38 -60q31 -18 72 -18q43 0 58 18l6 7q1 -1 1 -3q0 -4 -4 -8q-18 -22 -61 -22q-45 0 -80 20q-42 24 -42 66q0 49 53 75q42 21 97 21q81 0 140 -40q69 -45 69 -121
q0 -73 -81 -113q-66 -32 -146 -32q-131 0 -236 72q-115 79 -115 197q0 83 59 134q52 46 139 54q-23 35 -23 77q0 68 56 106q49 32 121 32h1zM413 278q0 -54 -26.5 -104.5t-68 -88.5t-93.5 -61t-103 -23h-214q-2 0 -1.5 2.5t2.5 2.5h57q5 0 6 2l137 437q2 2 -3 2h-57
q-2 0 -1 2.5t3 2.5h196q34 0 64.5 -13t53 -36.5t35.5 -55.5t13 -69zM343 362q0 18 -4.5 33.5t-15.5 27t-30 18t-48 6.5h-43q-4 0 -4 -2l-139 -437q0 -2 4 -2h59q48 0 81 18t59 58q10 16 24 51.5t27 77.5t21.5 83t8.5 68zM1270 705q0 -21 -9 -46.5t-20.5 -50.5t-20.5 -47.5
t-9 -37.5q0 -11 4.5 -17.5t15.5 -6.5q15 0 29.5 10.5t29.5 39.5l2 -2q-3 16 -3 33q0 31 14 64t38 59t56.5 43t69.5 17q18 0 30 -9q-14 23 -46 38q-45 22 -116 22q-20 0 -44 -1.5t-52 -5.5q-3 -11 -7 -22t-9 -21q22 -2 34.5 -17t12.5 -42zM1165 232q3 42 -40 42
q-11 0 -19.5 -3t-19.5 -11q-17 -12 -32 -38t-26 -57t-17.5 -61.5t-6.5 -51.5q0 -48 31 -48q29 0 51 30t39 72zM1508 715v6l-2 10t-3 10q-9 17 -35 17q-11 0 -19.5 -3t-19.5 -11q-17 -13 -31.5 -39t-25.5 -57t-17.5 -61.5t-6.5 -51.5q0 -47 30 -47q29 0 51.5 29.5t39.5 72.5z
M1048 716q4 14 -0.5 22.5t-13.5 8.5t-21 -9.5t-23 -34.5l-5 3q15 31 36 44.5t39 13.5q28 0 41 -25t-6 -78q26 48 58 73.5t58 28.5q5 11 9 21.5t8 21.5q-11 -2 -65 -13.5t-152 -33.5q-12 -3 -23 -5.5t-22 -4.5l-51 -162q26 5 51 11.5t49 15.5zM1720 109q0 24 -13 42.5
t-36 18.5q-41 0 -66 -36q-23 -32 -23 -74q0 -46 28 -80q45 15 76 47q34 35 34 81v1zM890 715q0 12 -3 21q-25 -3 -48 -5t-43 -2q-12 -14 -22 -33t-18 -40.5t-14 -43.5t-9 -41h2q29 0 56 1t53 4q2 4 3 7t3 7zM-94 461q-21 0 -52.5 2.5t-73.5 7.5q-43 5 -74.5 7.5t-52.5 2.5
q-9 0 -20 -0.5t-24 -1.5q91 -63 228 -63q174 0 210 71h-2q-28 -26 -139 -26zM591 706q0 23 -8.5 37.5t-32.5 14.5q-19 0 -34 -10q-1 -7 -8 -17q-12 -14 -22 -20q-5 -10 -10 -25t-10 -33q31 -39 101 -59q9 32 16.5 65t7.5 47zM442 537q0 -23 8 -37t33 -14q39 0 61 40
q4 7 9 21t11 33l-21 9q-52 22 -80 54q-8 -32 -14.5 -62t-6.5 -44zM588 243q0 20 -7 27.5t-20 7.5q-19 0 -32 -10t-22.5 -27t-16.5 -39.5t-15 -48.5h16q30 0 48.5 8.5t29.5 21.5t15 29t4 31zM926 808q2 -1 1.5 -3.5t-2.5 -1.5q-42 10 -68 24t-40 29t-18.5 29.5t-4.5 25.5
q0 13 8 21t20 8q13 0 18 -17.5t12.5 -40t23.5 -44t50 -30.5zM732 553h-1q-1 -5 -1 -9.5v-8.5q0 -25 7.5 -35.5t24.5 -10.5q21 0 40 19.5t34 49.5q-25 -3 -51 -4t-52 -1h-1zM974 403q0 -15 -10.5 -25.5t-25.5 -10.5q-16 0 -26.5 10.5t-10.5 25.5t10.5 26t26.5 11
q15 0 25.5 -11t10.5 -26zM1182 735q-20 0 -40 -18.5t-50 -68.5q32 17 57 38.5t43 46.5q-6 2 -10 2zM849 758q-10 0 -18.5 -2.5t-19.5 -11.5q-2 -1 -2.5 -2t-1.5 -2q32 1 71 9q-11 9 -29 9zM894 729l3 8h-5q1 -2 1 -4t1 -4z" />
    <glyph glyph-name=".null" horiz-adv-x="0" 
 />
    <glyph glyph-name="nonmarkingreturn" horiz-adv-x="200" 
 />
    <glyph glyph-name="space" unicode="&#xa0;" horiz-adv-x="200" 
 />
    <glyph glyph-name="space" unicode=" " horiz-adv-x="200" 
 />
    <glyph glyph-name="exclam" unicode="!" horiz-adv-x="288" 
d="M336 677q0 20 -12 34.5t-35 14.5q-26 0 -51 -18t-41 -67q-11 -33 -18 -87t-16 -118.5t-21.5 -135t-33.5 -136.5q-1 -2 3 -2t5 2q14 44 35.5 94.5t46 102t49 101t44.5 92t32.5 74.5t12.5 49zM128 61q0 20 -12 33t-29 13q-28 0 -48.5 -23t-20.5 -52q0 -20 12 -32.5
t30 -12.5q13 0 25.5 6t22 16.5t15 24t5.5 27.5z" />
    <glyph glyph-name="quotedbl" unicode="&#x22;" horiz-adv-x="334" 
d="M393 679q0 47 -42 47q-16 0 -27.5 -13.5t-16.5 -29.5q-6 -18 -8.5 -39.5t-3.5 -46t-2 -50t-4 -50.5l-3 -10q0 -2 2 -2q3 0 4 1l4 10q11 22 27.5 46.5t32 48t26.5 46t11 42.5zM240 679q0 47 -42 47q-16 0 -27.5 -13.5t-16.5 -29.5q-6 -18 -8.5 -39.5t-3.5 -46t-2 -50
t-4 -50.5l-3 -10q0 -2 2 -2q3 0 4 1l4 10q11 22 27.5 46.5t32 48t26.5 46t11 42.5z" />
    <glyph glyph-name="numbersign" unicode="#" horiz-adv-x="476" 
d="M461 296q2 0 2 4t-2 4h-116l46 163q1 2 -3 2.5t-5 -1.5l-46 -164h-133l46 163q1 2 -3 2.5t-5 -1.5l-46 -164h-116q-2 0 -2 -4t2 -4h114l-46 -163h-116q-2 0 -2 -4t2 -4h114l-49 -167q0 -2 4 -2.5t5 1.5l47 168h134l-48 -167q-1 -2 3 -2.5t5 1.5l48 168h119q2 0 2 4t-2 4
h-117l46 163h118zM335 296l-46 -163h-133l46 163h133z" />
    <glyph glyph-name="dollar" unicode="$" horiz-adv-x="528" 
d="M556 597q0 42 -25.5 75.5t-73.5 46.5l5 14t10 31t9.5 31l4.5 14q0 2 -4.5 3t-4.5 -1l-28 -90q-10 3 -21 4t-22 1h-12t-12 -1l27 84q1 2 -3.5 3t-5.5 -1l-4 -13.5t-9.5 -30l-10 -30l-4.5 -13.5q-44 -6 -82 -26t-65.5 -50t-43.5 -67.5t-16 -79.5q0 -58 24.5 -100.5
t55.5 -79.5l-102 -323q-48 13 -78 44.5t-30 69.5q0 20 9 29.5t24 9.5q11 0 17.5 -2.5t12 -5.5t11 -5.5t14.5 -2.5q16 0 26.5 11.5t10.5 34.5q0 20 -15 33.5t-35 13.5q-39 0 -63 -29t-24 -83q0 -42 32.5 -76.5t85.5 -48.5l-28 -91q-1 -2 3.5 -2.5t5.5 1.5l28 90q24 -6 51 -6
q10 0 15 1l-4 -13.5t-9 -29t-9 -28.5l-4 -13q-1 -2 3.5 -2.5t5.5 1.5l26 85q56 4 98 25t69.5 52.5t41.5 72t14 83.5q0 30 -7.5 56.5t-19.5 50.5t-28 45.5t-33 41.5l95 301q43 -11 66 -40t23 -64q0 -21 -6 -32.5t-21 -11.5q-10 0 -16 2t-10.5 5t-9.5 5t-13 2q-14 0 -24 -10
t-10 -31q0 -19 12.5 -29.5t30.5 -10.5q34 0 56.5 24.5t22.5 75.5zM446 714l-6.5 -22t-17 -54.5t-22.5 -71t-22 -71t-17 -54.5l-7 -22q-13 16 -25.5 31t-23.5 30l8 25t18.5 59t22 70t18.5 58.5t8 24.5q7 1 14 1h15q22 0 37 -4zM370 715l-71 -224q-17 26 -28.5 52.5
t-11.5 57.5q0 46 30 76t81 38zM348 135q0 -59 -26 -97t-95 -45q1 2 6.5 20t14 44.5t18.5 57.5t18.5 58t15 46.5t7.5 23.5q18 -25 29.5 -51t11.5 -57zM301 253q-11 -34 -24 -76.5t-25 -81t-21.5 -67.5t-11.5 -36q-5 -1 -11 -1h-10q-23 0 -46 5l7.5 23.5t18.5 58.5t23.5 76
t23.5 76.5t18.5 59l7.5 23.5q13 -16 26 -30.5t24 -29.5z" />
    <glyph glyph-name="percent" unicode="%" horiz-adv-x="718" 
d="M401 587q0 60 -33.5 93t-84.5 33q-49 0 -91 -21t-72.5 -54.5t-48 -74t-17.5 -79.5q0 -60 33.5 -93t84.5 -33q49 0 91 21.5t73 54.5t48 73.5t17 79.5zM605 726q1 1 -2.5 3.5t-4.5 0.5l-447 -749q-1 -2 2.5 -4.5t4.5 -0.5zM702 220q0 60 -34 93t-85 33q-49 0 -91 -21.5
t-72.5 -54.5t-48 -73.5t-17.5 -79.5q0 -60 33.5 -93t85.5 -33q49 0 91 21.5t72.5 54.5t48 73.5t17.5 79.5zM331 637q0 -23 -8 -59t-21.5 -73.5t-31.5 -71t-39 -49.5q-14 -11 -27.5 -14.5t-29.5 -3.5q-27 0 -37.5 16t-10.5 52q0 22 7.5 58.5t21 74t31.5 70.5t39 50
q14 11 28 14.5t30 3.5q27 0 37.5 -16t10.5 -52zM631 270q0 -23 -7.5 -59t-21 -73.5t-31.5 -71t-39 -49.5q-14 -11 -28 -14.5t-30 -3.5q-27 0 -37.5 16t-10.5 52q0 22 7.5 58.5t21 74t32 70.5t39.5 50q14 11 27.5 14.5t30.5 3.5q26 0 36.5 -16t10.5 -52z" />
    <glyph glyph-name="ampersand" unicode="&#x26;" horiz-adv-x="758" 
d="M743 321q0 32 -22 52t-60 20q-35 0 -57.5 -24.5t-40 -60t-33.5 -76t-38 -72.5q-32 67 -53.5 155.5t-20.5 183.5q78 38 119.5 79.5t41.5 86.5q0 61 -74 61q-39 0 -78 -21t-70 -58.5t-50 -89.5t-19 -113q-125 -46 -188.5 -120t-63.5 -164q0 -41 13.5 -73.5t37 -55.5
t55.5 -35.5t69 -12.5q61 0 107.5 23.5t79.5 52.5q14 -17 29.5 -31t34 -24t41.5 -15.5t52 -5.5q27 0 54 9t49.5 24t39 35.5t23.5 43.5q1 2 -2.5 3t-4.5 -1q-23 -57 -81 -57q-39 0 -73.5 27.5t-63.5 85.5q21 29 35.5 63.5t27 64t25 49t28.5 19.5q19 0 25.5 -12.5t10 -27.5
t11 -27.5t30.5 -12.5q28 0 41 16t13 36zM571 667q0 -47 -40.5 -86t-112.5 -74q1 36 8.5 73t21 67t34 48.5t46.5 18.5q43 0 43 -47zM393 64q-17 -16 -39.5 -25.5t-45.5 -9.5q-40 0 -68.5 14.5t-46.5 40t-26.5 61t-8.5 77.5q0 76 33.5 132.5t96.5 80.5q0 -63 8 -116t22.5 -99
t33.5 -84.5t41 -71.5z" />
    <glyph glyph-name="quotesingle" unicode="'" horiz-adv-x="181" 
d="M240 679q0 47 -42 47q-16 0 -27.5 -13.5t-16.5 -29.5q-6 -18 -8.5 -39.5t-3.5 -46t-2 -50t-4 -50.5l-3 -10q0 -2 2 -2q3 0 4 1l4 10q11 22 27.5 46.5t32 48t26.5 46t11 42.5z" />
    <glyph glyph-name="parenleft" unicode="(" horiz-adv-x="315" 
d="M476 732q2 0 0 3.5t-4 2.5q-85 -48 -163.5 -119.5t-138.5 -160.5t-96 -191.5t-36 -211.5q0 -56 9.5 -101t26.5 -81.5t39.5 -65t49.5 -51.5q1 -1 4 1.5t1 3.5q-31 24 -44 56t-13 91q0 25 8.5 72.5t23 108.5t34 130t42 136t46.5 127t48 103q22 38 61 75t102 72z" />
    <glyph glyph-name="parenright" unicode=")" horiz-adv-x="315" 
d="M268 440q0 56 -9.5 101t-26.5 81.5t-39.5 65t-49.5 51.5q-2 1 -4.5 -1.5t-0.5 -3.5q30 -24 43 -56t13 -91q0 -25 -8.5 -72.5t-23 -108.5t-34 -130t-42 -136t-46.5 -127t-48 -103q-22 -38 -61 -75t-101 -72q-2 0 0 -3.5t4 -2.5q85 48 163.5 119.5t138.5 160.5t96 191.5
t36 211.5z" />
    <glyph glyph-name="asterisk" unicode="*" horiz-adv-x="290" 
d="M345 630q2 9 -3.5 20t-16.5 13q-6 2 -11 0q-8 -2 -14 -7.5t-13.5 -13.5t-19 -16.5t-29.5 -15.5l-5 -3l1 7q3 21 9 32t11.5 18.5t10.5 14t7 17.5q2 10 -4.5 18t-17.5 10t-19.5 -3.5t-10.5 -15.5q-2 -11 0.5 -18.5l5.5 -16.5t4.5 -21.5t-2.5 -33.5l-1 -6l-5 4
q-15 12 -22.5 23.5t-12 22t-8 18t-10.5 12.5q-4 2 -10 4q-11 2 -20 -6.5t-11 -18.5q-1 -10 6 -19q6 -8 13.5 -10t17.5 -4.5t23 -7.5t30 -19q2 0 3 -1.5t2 -2.5q-1 0 -2.5 -1t-3.5 -1q-20 -7 -34 -7t-24.5 1t-18.5 1.5t-16 -4.5q-4 -2 -7.5 -6.5t-4.5 -9.5q-2 -9 4 -20
t17 -13q6 -1 10 0q8 1 14 7l14 14t19.5 16.5t29.5 15.5l5 3l-1 -7q-3 -21 -9 -32t-11.5 -18.5t-10.5 -14t-7 -17.5q-2 -10 4.5 -18t17.5 -10t19.5 3.5t10.5 15.5q2 11 -0.5 18.5l-5.5 16.5t-4.5 21.5t2.5 33.5l1 6l5 -4q15 -12 22.5 -23.5t12 -22t8 -18.5t10.5 -12
q3 -2 9 -4q11 -2 20 6.5t11 18.5q1 5 -1 10t-4 9q-6 8 -14 10t-17.5 4.5t-22.5 7.5t-30 19q-2 0 -3 1.5t-2 2.5q1 0 2.5 1t3.5 1q20 7 34 7t24.5 -1t18.5 -1.5t16 4.5q4 2 7 6.5t4 9.5z" />
    <glyph glyph-name="plus" unicode="+" horiz-adv-x="415" 
d="M365 208q2 0 2 5t-2 5h-153v156q0 2 -5 2q-4 0 -4 -2v-156h-154q-2 0 -2 -5t2 -5h154v-154q0 -2 4 -2q5 0 5 2v154h153z" />
    <glyph glyph-name="comma" unicode="," horiz-adv-x="199" 
d="M127 50q0 -27 -16 -56.5t-43.5 -56t-63.5 -47t-76 -28.5q-2 -2 -1.5 2t2.5 5q27 5 46 15q12 6 24.5 14t23 17.5t17 22t6.5 27.5q0 11 -4 20t-8.5 18t-8 18.5t-3.5 21.5q0 26 14.5 44t42.5 18q25 0 36.5 -17.5t11.5 -37.5z" />
    <glyph glyph-name="hyphen" unicode="-" horiz-adv-x="322" 
d="M295 267q4 4 0 4h-250q-2 -17 -6 -33.5t-12 -27.5q-2 -4 0 -4h250q2 17 6 33.5t12 27.5z" />
    <glyph glyph-name="period" unicode="." horiz-adv-x="199" 
d="M128 59q0 20 -12 33t-29 13q-28 0 -48.5 -23t-20.5 -52q0 -20 12 -32.5t30 -12.5q13 0 25.5 6t22 16.5t15 24t5.5 27.5z" />
    <glyph glyph-name="slash" unicode="/" horiz-adv-x="328" 
d="M379 754l-319 -777q-1 -2 -5 -0.5t-3 3.5l320 777q1 2 4.5 0.5t2.5 -3.5z" />
    <glyph glyph-name="zero" unicode="0" horiz-adv-x="518" 
d="M470 267q0 37 -14 68t-37 53t-53.5 34.5t-64.5 12.5q-50 0 -99 -23t-87.5 -61.5t-62.5 -88t-24 -103.5q0 -37 13.5 -68t37 -53t54 -34.5t64.5 -12.5q49 0 98 23t88 61.5t63 88t24 103.5zM392 360q0 -13 -5.5 -38t-14 -55.5t-19.5 -63t-22 -62t-20.5 -51.5t-15.5 -32
q-11 -17 -21 -28.5t-21 -18t-25.5 -9.5t-35.5 -3q-42 0 -64 19t-22 48q0 13 5.5 38t14 55.5t19 63t21.5 62t20.5 51.5t15.5 32q11 17 20.5 28.5t21 18t26 9.5t35.5 3q42 0 64.5 -19t22.5 -48z" />
    <glyph glyph-name="one" unicode="1" horiz-adv-x="357" 
d="M358 426h-245q-2 0 -3 -4t1 -4h64q6 0 5 -4l-127 -402q0 -4 -7 -4h-65q-2 0 -3 -4t1 -4h245q2 0 3 4t-1 4h-65q-6 0 -5 4l128 402q0 4 7 4h65q2 0 3 4t-1 4z" />
    <glyph glyph-name="two" unicode="2" horiz-adv-x="419" 
d="M376 147q1 2 -3 2t-5 -2q-13 -43 -37 -59t-72 -16h-166q-10 0 -3 4q132 66 202 126.5t70 121.5q0 56 -38.5 83.5t-107.5 27.5q-35 0 -60.5 -10.5t-42 -27t-24.5 -35.5t-8 -36q0 -36 17 -55.5t48 -19.5q17 0 29.5 11.5t12.5 28.5q0 20 -8.5 29t-22.5 9q-8 0 -12 -1.5
t-8 -4t-9 -4t-14 -1.5q-13 0 -16.5 4.5t-3.5 19.5q0 9 6.5 22t18.5 25.5t30 21.5t42 9q38 0 54 -18.5t16 -58.5q0 -39 -17.5 -84.5t-56.5 -90.5t-100.5 -86.5t-149.5 -72.5q-5 -2 -4 -5.5t3 -3.5h392q2 0 4 3z" />
    <glyph glyph-name="three" unicode="3" horiz-adv-x="391" 
d="M347 323q0 20 -6.5 40t-23 36t-45 26t-71.5 10q-33 0 -58.5 -10.5t-42 -26t-25 -34.5t-8.5 -35q0 -36 16.5 -56.5t47.5 -20.5q17 0 29 11t12 29q0 20 -8 29t-22 9q-8 0 -12 -1.5t-8 -4t-8.5 -4t-13.5 -1.5q-12 0 -16 5.5t-4 20.5q0 9 6 22t18.5 25t31 20.5t43.5 8.5
q38 0 53 -19t15 -61q0 -38 -9.5 -73.5t-32 -68t-59.5 -62t-91 -54.5q-2 -1 0 -5t4 -2q32 17 52 25.5t34 8.5q22 0 34 -15.5t12 -59.5q0 -63 -12.5 -120t-38 -100t-65 -68.5t-93.5 -25.5q-59 0 -83.5 20.5t-24.5 44.5q0 21 11 27.5t22 6.5t17.5 -2.5t12 -5t11.5 -5t15 -2.5
q16 0 26.5 11.5t10.5 34.5q0 21 -15 35t-36 14q-41 0 -65.5 -27.5t-24.5 -67.5q0 -43 29 -67.5t96 -24.5q44 0 98.5 21.5t102 59.5t80 90.5t32.5 114.5q0 63 -34.5 93.5t-94.5 30.5q-8 0 -15.5 -1t-18.5 -3q33 11 70 33.5t69 50.5t53 59.5t21 60.5z" />
    <glyph glyph-name="four" unicode="4" horiz-adv-x="458" 
d="M531 531q1 1 -2 3t-4 1q-13 -12 -38 -24.5t-52 -21.5t-52 -13t-38 2l-283 -355q-26 -33 -53 -64t-49 -52q-2 -2 -2 -4t2 -2h233l-88 -279h103l88 279h104q2 0 3 4t-1 4h-104l69 215q0 1 -4 1.5t-5 -1.5q-6 -12 -20.5 -28.5t-32.5 -32.5t-38 -28t-36 -13l-36 -113h-225z
" />
    <glyph glyph-name="five" unicode="5" horiz-adv-x="404" 
d="M391 416q0 16 -7 25t-27 9q-11 0 -24 -8.5t-30.5 -18.5t-41 -18.5t-54.5 -8.5q-61 0 -79 27q-1 1 -3.5 -0.5t-3.5 -3.5v-3t-2 -6l-76 -334q-2 -5 -6.5 -14.5t-6.5 -14.5q-2 -7 0.5 -8.5t4.5 -1.5t5.5 1.5t5.5 5.5q2 8 2 15q0 8 8 20q21 37 48.5 54t58.5 17q29 0 40.5 -18
t11.5 -56q0 -76 -14 -141t-42 -112.5t-70.5 -74.5t-99.5 -27q-29 0 -49.5 5.5t-33.5 15t-19 21t-6 23.5q0 21 11.5 27.5t22.5 6.5t17.5 -2.5t12 -5t11.5 -5t15 -2.5q15 0 26 11.5t11 34.5q0 21 -15.5 34.5t-35.5 13.5q-41 0 -66 -27t-25 -67q0 -44 29 -68t97 -24
q30 0 66.5 11.5t73 32t70.5 49.5t60 63.5t42 73.5t16 80q0 63 -36 100.5t-100 37.5q-45 0 -75 -17t-53 -52l72 314q3 -14 15 -28t29.5 -25t39 -18t44.5 -7q25 0 49.5 7t43.5 19t30.5 28t11.5 34z" />
    <glyph glyph-name="six" unicode="6" horiz-adv-x="477" 
d="M534 617q0 44 -25 70t-80 26q-43 0 -88.5 -25t-89 -67t-83 -97.5t-69 -117t-47 -125t-17.5 -121.5q0 -45 12.5 -77t33 -52t47 -29.5t55.5 -9.5q46 0 91 21t80 56.5t57 81t22 95.5q0 34 -12 62.5t-32.5 49t-47.5 32t-58 11.5q-35 0 -61.5 -18.5t-46.5 -51.5q9 32 23.5 72
t34 81.5t43 81.5t49 70.5t53 49.5t55.5 19q44 0 65.5 -21t21.5 -46q0 -20 -11 -27t-22 -7t-17.5 2.5t-12 5t-11.5 5t-15 2.5q-15 0 -25.5 -11t-10.5 -34q0 -22 15 -35t36 -13q19 0 35 7t28 19.5t18.5 29t6.5 35.5zM358 330q0 -12 -5 -34.5t-12.5 -50t-17 -57t-19 -56
t-18 -47t-14.5 -29.5q-11 -16 -19.5 -27t-19 -17.5t-23.5 -9.5t-32 -3q-39 0 -59 17.5t-20 46.5q0 17 9 53.5t21.5 76.5t25 74.5t20.5 48.5q17 32 43.5 54.5t61.5 22.5q39 0 58.5 -17t19.5 -46z" />
    <glyph glyph-name="seven" unicode="7" horiz-adv-x="420" 
d="M445 427q1 0 1 -3q0 -2 -2 -4q-30 -36 -58.5 -75.5t-51.5 -77.5l-325 -545h-122l488 621h-211q-48 0 -72.5 -18.5t-38.5 -63.5q-2 -2 -5 -2t-3 2l51 163q3 3 4 3h345z" />
    <glyph glyph-name="eight" unicode="8" horiz-adv-x="484" 
d="M525 585q0 23 -9.5 46t-27.5 41t-45 29.5t-62 11.5q-45 0 -82.5 -14.5t-64.5 -40.5t-42 -62.5t-15 -80.5q0 -47 17.5 -83t41.5 -69q-97 -40 -155.5 -98.5t-58.5 -135.5q0 -30 12.5 -55t34 -43.5t51 -29t62.5 -10.5q43 0 85.5 14t75.5 41t53.5 65.5t20.5 87.5
q0 59 -22.5 104.5t-51.5 86.5q89 39 135.5 87t46.5 108zM455 621q0 -16 -2 -45t-13 -62t-35 -64.5t-68 -52.5q-15 22 -29.5 43.5t-25.5 44t-18 46.5t-7 51q0 69 32 96t90 27q38 0 57 -22t19 -62zM327 162q0 -45 -10.5 -76t-29.5 -50.5t-44.5 -28t-56.5 -8.5q-42 0 -64 23.5
t-22 82.5q0 54 8.5 94.5t26 70.5t44 51.5t61.5 36.5q16 -21 31.5 -42.5t28 -45t20 -50.5t7.5 -58z" />
    <glyph glyph-name="nine" unicode="9" horiz-adv-x="487" 
d="M433 267q0 42 -12 73.5t-32 52.5t-47 31.5t-58 10.5q-46 0 -92 -24t-82.5 -62t-59 -87t-22.5 -98q0 -35 12 -63.5t32.5 -48.5t48 -31t58.5 -11q35 0 61.5 18t46.5 51q-18 -60 -44.5 -123t-59.5 -115t-71 -85.5t-78 -33.5q-43 0 -67.5 19t-24.5 43q0 21 11 28t22 7
q10 0 16.5 -2.5t12 -6t10.5 -6t14 -2.5q17 0 27.5 11.5t10.5 35.5q0 20 -15 33.5t-36 13.5q-40 0 -64 -27t-24 -65q0 -44 29 -67t82 -23q42 0 88 25t90 67t83.5 97.5t69 117t47 125t17.5 121.5zM368 364q0 -17 -9.5 -56t-23 -81.5t-27 -79.5t-20.5 -51q-18 -35 -44.5 -57
t-61.5 -22q-38 0 -58.5 17t-20.5 46q0 12 5.5 36t13.5 53.5t18.5 61t21 60t19.5 50t15 30.5q10 15 19 26t19 18t23 10t32 3q40 0 59.5 -17.5t19.5 -46.5z" />
    <glyph glyph-name="colon" unicode=":" horiz-adv-x="264" 
d="M215 342q0 20 -12 32.5t-30 12.5q-14 0 -26 -6t-22 -16.5t-15.5 -24t-5.5 -28.5q0 -20 12.5 -32t30.5 -12q13 0 25.5 6t22 16.5t15 23.5t5.5 28zM128 59q0 20 -12 33t-29 13q-28 0 -48.5 -23t-20.5 -52q0 -20 12 -32.5t30 -12.5q13 0 25.5 6t22 16.5t15 24t5.5 27.5z" />
    <glyph glyph-name="semicolon" unicode=";" horiz-adv-x="264" 
d="M215 342q0 -15 -5.5 -28t-15 -23.5t-22 -16.5t-25.5 -6q-18 0 -30.5 12t-12.5 32q0 30 21 52.5t48 22.5q18 0 30 -12.5t12 -32.5zM127 50q0 -27 -16 -56.5t-43.5 -56t-63.5 -47t-76 -28.5q-2 -2 -1.5 2t2.5 5q27 5 46 15q12 6 24.5 14t23 17.5t17 22t6.5 27.5q0 11 -4 20
t-8.5 18t-8 18.5t-3.5 21.5q0 26 14.5 44t42.5 18q25 0 36.5 -17.5t11.5 -37.5z" />
    <glyph glyph-name="less" unicode="&#x3c;" horiz-adv-x="332" 
d="M290 80q2 -1 0 -5t-4 -3l-236 138v6l236 138q2 1 4 -2.5t0 -4.5l-227 -134z" />
    <glyph glyph-name="equal" unicode="=" horiz-adv-x="375" 
d="M324 269q2 0 2 3q0 4 -2 4h-272q-1 0 -1 -4q0 -3 1 -3h272zM324 150q2 0 2 4t-2 4h-272q-1 0 -1 -4t1 -4h272z" />
    <glyph glyph-name="greater" unicode="&#x3e;" horiz-adv-x="335" 
d="M285 210l-235 -138q-2 -1 -4 3t0 5l227 133l-227 134q-2 1 0 4.5t4 2.5l235 -138q3 -3 0 -6z" />
    <glyph glyph-name="question" unicode="?" horiz-adv-x="470" 
d="M486 556q0 34 -12 65t-33.5 54.5t-50.5 37t-63 13.5q-36 0 -69.5 -13.5t-59.5 -34.5t-41.5 -46t-15.5 -47q0 -23 15 -40.5t39 -17.5q27 0 40 12.5t13 31.5q0 10 -2.5 16t-5 11.5t-5 12.5t-2.5 19q0 87 95 87q38 0 50 -20t12 -51q0 -18 -8 -56.5t-19.5 -80t-23 -77.5
t-18.5 -49q-17 -31 -34.5 -45.5t-48.5 -14.5q-18 0 -37 8t-24 27q0 2 -3.5 1t-3.5 -3q0 -4 -2 -8l-57 -184q-2 -2 2 -2q5 0 5 2l57 180q8 -14 27 -21t37 -7q50 0 95 19t78.5 51.5t53.5 76t20 93.5zM129 61q0 20 -12 33t-29 13q-28 0 -48.5 -23t-20.5 -52q0 -20 12 -32.5
t30 -12.5q13 0 25.5 6t22 16.5t15 24t5.5 27.5z" />
    <glyph glyph-name="at" unicode="@" horiz-adv-x="814" 
d="M776 403q0 77 -26.5 137t-71.5 101.5t-105.5 63t-129.5 21.5q-76 0 -143 -29t-117 -79.5t-79 -118t-29 -144.5t29 -145t79 -118.5t117 -79.5t143 -29q66 0 124.5 22t106.5 62q2 2 -0.5 4.5t-4.5 0.5q-47 -38 -104 -59.5t-122 -21.5q-74 0 -139.5 28.5t-114.5 78
t-77 115.5t-28 142t28 142t77 115t114.5 77.5t139.5 28.5q67 0 126 -21t103.5 -61t70 -99t25.5 -134q0 -49 -17 -88.5t-45 -67t-64.5 -42.5t-74.5 -15q-21 0 -31 9.5t-10.5 30.5t7.5 54t23 81l49 159h-81l-12 -36q-2 23 -15.5 34t-36.5 11q-45 0 -85.5 -21.5t-71 -54.5
t-48 -73.5t-17.5 -79.5q0 -24 5.5 -47t18 -40.5t32.5 -28.5t49 -11q14 0 29.5 5t30 16.5t27.5 31t22 49.5q-5 -20 -2 -38.5t15 -33t33 -23t52 -8.5q36 0 75.5 13.5t73 41t55.5 70.5t22 102zM508 471l-56 -177q-4 -14 -12.5 -32t-21.5 -34.5t-30 -28t-38 -11.5t-29.5 13.5
t-8.5 45.5q0 25 7.5 63t20.5 76.5t31 71.5t40 50q14 11 24 14.5t23 3.5q55 0 50 -55z" />
    <glyph glyph-name="A" unicode="A" horiz-adv-x="656" 
d="M606 0q2 0 2.5 4t-1.5 4h-91q-7 0 -7 3v712q0 2 -4.5 2.5t-6.5 -2.5l-525 -674q-22 -27 -30 -34t-15 -7h-80q-2 0 -3 -4t1 -4h202q2 0 3 4t-1 4h-89q-6 0 -3 6.5t25 35.5l152 194h241v-233q0 -3 -6 -3h-78q-2 0 -3 -4t1 -4h316zM376 252h-235l235 301v-301z" />
    <glyph glyph-name="B" unicode="B" horiz-adv-x="658" 
d="M641 555q0 72 -52 113t-152 41h-269q-2 0 -3.5 -4t0.5 -4h90q6 0 5 -3l-216 -687q-2 -3 -8 -3h-90q-2 0 -3 -4t1 -4h339q67 0 124 18t98.5 48.5t65 70t23.5 82.5q0 74 -49 113.5t-133 46.5q50 3 92 17t72.5 37t47.5 53.5t17 68.5zM532 641q0 -21 -6 -50.5t-15 -59.5
t-19 -55.5t-19 -38.5q-10 -15 -18 -25.5t-17.5 -16.5t-21.5 -9t-30 -3h-86l99 315q1 3 7 3h39q46 0 66.5 -12.5t20.5 -47.5zM469 304q0 -27 -6.5 -60.5t-16 -66t-21.5 -61t-24 -46.5q-23 -35 -50 -48.5t-67 -13.5h-97q-7 0 -5 3l115 363h90q48 0 65 -19t17 -51z" />
    <glyph glyph-name="C" unicode="C" horiz-adv-x="635" 
d="M694 723q1 1 -3 1.5t-5 -1.5q-7 -12 -21.5 -22.5t-41.5 -10.5q-17 0 -35.5 5.5t-38 12.5t-40 12.5t-40.5 5.5q-53 0 -105 -18.5t-98.5 -51.5t-86.5 -78.5t-68.5 -98.5t-45 -111.5t-16.5 -118.5q0 -62 18.5 -111.5t51 -84t78 -53t99.5 -18.5q82 0 155 48t135 136q1 1 -2 4
t-4 1q-63 -89 -134 -135t-150 -46q-41 0 -67.5 10t-42 27.5t-21.5 40t-6 46.5q0 30 8 74t21 93.5t29 101.5t32.5 98t31.5 81.5t25 53.5q17 27 32.5 46.5t33.5 32t41 18t56 5.5q40 0 72 -22t51.5 -55.5t25.5 -73.5t-6 -77q-1 -2 3 -2q5 0 6 2z" />
    <glyph glyph-name="D" unicode="D" horiz-adv-x="756" 
d="M737 436q0 59 -20.5 109t-56 86.5t-82.5 57t-101 20.5h-309q-2 0 -3.5 -4t0.5 -4h90q7 0 5 -4l-216 -686q-2 -3 -8 -3h-90q-2 0 -3 -4t1 -4h336q53 0 108 16.5t105.5 46t95 70t77.5 89t52 103t19 111.5zM627 567q0 -28 -6.5 -67t-17 -82t-23.5 -87.5t-27.5 -84t-28 -70.5
t-24.5 -48q-41 -62 -93 -91t-127 -29h-92q-6 0 -6 3l217 686q2 4 7 4h68q45 0 74.5 -10.5t47 -28.5t24.5 -42.5t7 -52.5z" />
    <glyph glyph-name="E" unicode="E" horiz-adv-x="667" 
d="M699 706q1 3 -2 3h-529q-2 0 -3 -4t1 -4h89q6 0 6 -3l-217 -687q-2 -3 -8 -3h-89q-2 0 -3.5 -4t0.5 -4h584q3 0 3 3l72 225q0 2 -4 2t-5 -2q-12 -38 -39.5 -77.5t-68.5 -71t-96 -51.5t-122 -20h-80q-6 0 -6 3l114 359h24q31 0 52 -13t33 -33.5t13.5 -46.5t-6.5 -52
q-1 -2 3 -2t5 2l86 275q1 2 -3 2t-5 -2q-8 -26 -24.5 -48.5t-40 -39t-51.5 -26t-59 -9.5h-24l100 321q1 3 8 3h90q48 0 79.5 -18.5t47.5 -47.5t18 -64.5t-9 -70.5q-1 -2 3 -2q5 0 6 2z" />
    <glyph glyph-name="F" unicode="F" horiz-adv-x="614" 
d="M701 707q0 2 -2 2h-531q-2 0 -3 -4t1 -4h89q6 0 6 -4l-217 -685q0 -4 -7 -4h-90q-2 0 -3.5 -4t0.5 -4h331q2 0 3.5 4t-0.5 4h-89q-6 0 -6 4l114 358h36q31 0 52 -13t32.5 -33.5t13.5 -46t-6 -51.5q-1 -2 3 -2t4 2l87 274q0 2 -4 2q-3 0 -4 -2q-8 -26 -25 -48t-40 -38.5
t-51 -26t-59 -9.5h-37l100 319q2 4 8 4h92q48 0 79 -18.5t47.5 -47.5t18.5 -64.5t-9 -70.5q-1 -2 3 -2t5 2z" />
    <glyph glyph-name="G" unicode="G" horiz-adv-x="672" 
d="M703 274h-331q-2 0 -3 -4t1 -4h90q6 0 5 -3l-58 -186q-6 -20 -15 -36t-22 -27.5t-31.5 -17.5t-44.5 -6q-41 0 -67 10t-41 27.5t-21 40t-6 46.5q0 30 8 74t21 93.5t29 101.5t32.5 98t31.5 81.5t26 53.5q16 28 31.5 47.5t33.5 31.5t41.5 17.5t56.5 5.5q40 0 71.5 -21.5
t51 -55t25.5 -74t-6 -77.5q0 -2 4 -2q5 0 5 2l74 233q0 2 -4 2t-5 -2q-6 -12 -20.5 -22t-42.5 -10q-17 0 -35.5 5.5t-38 12t-39.5 12t-40 5.5q-54 0 -105.5 -18.5t-98.5 -51.5t-86.5 -78.5t-68.5 -98.5t-45.5 -111.5t-16.5 -118.5q0 -62 18 -111.5t50.5 -84t77.5 -53
t99 -18.5q27 0 51.5 8t46.5 17.5t41.5 17.5t36.5 8q22 0 32.5 -11t6.5 -26q-1 -2 4 -2q6 0 7 2l84 267q0 3 7 3h90q2 0 3 4t-1 4z" />
    <glyph glyph-name="H" unicode="H" horiz-adv-x="800" 
d="M886 709h-319q-2 0 -3.5 -4t0.5 -4h78q6 0 6 -4l-103 -325h-248l102 325q2 4 8 4h78q2 0 3 4t-1 4h-319q-2 0 -3 -4t1 -4h90q7 0 5 -4l-217 -685q-1 -4 -7 -4h-90q-2 0 -3 -4t1 -4h319q2 0 3 4t-1 4h-78q-6 0 -5 4l111 353h249l-111 -353q-1 -4 -8 -4h-78q-2 0 -3 -4
t1 -4h319q2 0 3 4t-1 4h-89q-6 0 -6 4l216 685q2 4 8 4h89q2 0 3.5 4t-0.5 4z" />
    <glyph glyph-name="I" unicode="I" horiz-adv-x="414" 
d="M499 709h-331q-2 0 -3 -4t1 -4h90q7 0 5 -4l-217 -686q0 -3 -7 -3h-90q-2 0 -3 -4t1 -4h331q2 0 3 4t-1 4h-90q-7 0 -5 3l217 686q0 4 7 4h90q2 0 3 4t-1 4z" />
    <glyph glyph-name="J" unicode="J" horiz-adv-x="578" 
d="M673 709h-331q-2 0 -3.5 -4t0.5 -4h90q6 0 5 -3l-194 -614q-14 -48 -37.5 -70.5t-61.5 -22.5q-37 0 -58.5 10.5t-21.5 36.5q0 37 31 43q13 3 23 10.5t17 18t10 22.5t3 22q0 27 -21 49.5t-52 22.5q-21 0 -38 -9t-29 -22.5t-19 -30t-7 -32.5q0 -31 11.5 -58t32.5 -47.5
t50 -32t65 -11.5q102 0 173 54.5t109 174.5l153 486q1 3 8 3h90q2 0 3 4t-1 4z" />
    <glyph glyph-name="K" unicode="K" horiz-adv-x="687" 
d="M797 709h-203q-2 0 -3 -4t1 -4h85q4 0 5 -1t-2 -5.5t-12 -12.5t-25 -22l-352 -303l108 341q1 3 8 3h89q2 0 3.5 4t-0.5 4h-331q-2 0 -3.5 -4t0.5 -4h90q6 0 6 -3l-217 -687q-2 -3 -8 -3h-90q-2 0 -3 -4t1 -4h326q2 0 3 4t-1 4h-84q-6 0 -6 3l107 338l135 -337q2 -4 -4 -4
h-98q-2 0 -3.5 -4t0.5 -4h364q2 0 3.5 4t-0.5 4h-98q-2 0 -5 1t-3 3l-179 428l253 220q16 13 26.5 21.5t16.5 12.5t9.5 5.5t6.5 1.5h81q2 0 3.5 4t-0.5 4z" />
    <glyph glyph-name="L" unicode="L" horiz-adv-x="615" 
d="M578 228q0 2 -4 2t-5 -2q-12 -38 -39.5 -77.5t-68.5 -71t-96.5 -51.5t-122.5 -20h-55q-7 0 -5 3l217 687q1 3 7 3h90q2 0 3 4t-1 4h-330q-2 0 -3.5 -4t0.5 -4h90q6 0 5 -3l-216 -687q-2 -3 -8 -3h-90q-2 0 -3 -4t1 -4h559q3 0 3 3z" />
    <glyph glyph-name="M" unicode="M" horiz-adv-x="904" 
d="M990 709h-231q-3 0 -8.5 -4.5t-10.5 -13.5l-321 -507l-13 507q-1 18 -10 18h-223q-2 0 -3 -4t1 -4h89q6 0 6 -3l-217 -687q-2 -3 -8 -3h-89q-2 0 -3.5 -4t0.5 -4h201q2 0 3.5 4t-0.5 4h-90q-7 0 -5 3l214 682l22 -707q1 -2 4 -2q4 0 6 2l446 706l-215 -681q-2 -3 -7 -3
h-90q-2 0 -3 -4t1 -4h331q2 0 3 4t-1 4h-90q-7 0 -5 3l216 687q1 3 8 3h90q2 0 3 4t-1 4z" />
    <glyph glyph-name="N" unicode="N" horiz-adv-x="749" 
d="M840 709h-202q-2 0 -3 -4t1 -4h90q6 0 5 -3l-156 -498l-168 491q-4 11 -8 14.5t-9 3.5h-218q-2 0 -3 -4t1 -4h85q6 0 6 -3l-217 -687q-2 -3 -8 -3h-89q-2 0 -3.5 -4t0.5 -4h201q2 0 3.5 4t-0.5 4h-90q-7 0 -5 3l210 670l243 -695q2 -3 6 -2.5t5 2.5l222 712q1 3 8 3h89
q2 0 4 4t0 4z" />
    <glyph glyph-name="O" unicode="O" 
d="M716 459q0 62 -18.5 111.5t-51 84t-77.5 53t-99 18.5t-105.5 -18.5t-98.5 -51.5t-86.5 -78.5t-68.5 -98.5t-45.5 -111.5t-16.5 -118.5q0 -62 18.5 -111.5t51 -84t78 -52.5t99.5 -18q80 0 155.5 40.5t134.5 107.5t94.5 152.5t35.5 175.5zM606 594q0 -30 -8 -73.5
t-20.5 -93.5t-28.5 -102t-32.5 -98t-31.5 -82t-26 -53q-17 -27 -32.5 -46.5t-33.5 -32t-41 -18t-56 -5.5q-41 0 -67.5 10t-42 27.5t-21.5 40t-6 46.5q0 30 8 74t21 93.5t29 101.5t32.5 98t31.5 81.5t25 53.5q17 27 32.5 46.5t33.5 32t41.5 18t56.5 5.5q40 0 66.5 -10t42 -27
t21.5 -39.5t6 -47.5z" />
    <glyph glyph-name="P" unicode="P" horiz-adv-x="666" 
d="M689 534q0 91 -55 133t-180 42h-286q-2 0 -3 -4t1 -4h90q6 0 5 -3l-217 -687q-2 -3 -7 -3h-90q-2 0 -3 -4t1 -4h330q2 0 3.5 4t-0.5 4h-90q-7 0 -5 3l92 292q17 -6 36 -10.5t50 -4.5q67 0 126.5 20.5t104.5 54.5t71 78.5t26 92.5zM564 625q0 -25 -8 -63t-19.5 -76.5
t-24.5 -71t-23 -47.5q-24 -36 -53 -53.5t-72 -17.5q-32 0 -49.5 3.5t-36.5 12.5l121 386q1 3 8 3h70q26 0 43 -5.5t26.5 -15.5t13.5 -24t4 -31z" />
    <glyph glyph-name="Q" unicode="Q" 
d="M716 459q0 62 -18.5 111.5t-51 84t-77.5 53t-99 18.5t-105.5 -18.5t-98.5 -51.5t-86.5 -78.5t-68.5 -98.5t-45.5 -111.5t-16.5 -118.5q0 -62 18.5 -111.5t51 -84t78 -53t99.5 -18.5q19 0 34 3q-16 -5 -39.5 -10t-48.5 -11t-48.5 -12t-39.5 -13q-17 -2 -26 -6.5t-9 -7.5
q0 -8 7 -8q6 0 15.5 7.5t24.5 7.5q34 0 56.5 -18.5t43 -47t44 -61t61 -61t93.5 -47t141 -18.5q2 0 2 4t-2 4q-49 0 -77 19t-48.5 47.5t-39.5 61.5t-49 61.5t-78.5 47t-127.5 17.5q18 6 44 12.5t56.5 14t63 16.5t62.5 20q63 24 118.5 71t97 107.5t65.5 131.5t24 145zM606 594
q0 -30 -8 -73.5t-20.5 -93.5t-28.5 -102t-32.5 -98t-31.5 -82t-26 -53q-17 -27 -32.5 -46.5t-33.5 -32t-41 -18t-56 -5.5q-41 0 -67.5 10t-42 27.5t-21.5 40t-6 46.5q0 30 8 74t21 93.5t29 101.5t32.5 98t31.5 81.5t25 53.5q17 27 32.5 46.5t33.5 32t41.5 18t56.5 5.5
q40 0 66.5 -10t42 -27t21.5 -39.5t6 -47.5z" />
    <glyph glyph-name="R" unicode="R" horiz-adv-x="669" 
d="M655 555q0 72 -52 113t-152 41h-284q-2 0 -3 -4t1 -4h90q6 0 5 -3l-216 -687q-2 -3 -8 -3h-90q-2 0 -3 -4t1 -4h331q2 0 3 4t-1 4h-90q-7 0 -5 3l112 353h88q43 0 61 -13.5t18 -43.5q0 -16 -6.5 -41.5t-14 -54.5t-13.5 -57t-6 -49q0 -33 11 -56.5t29 -38.5t42 -21.5
t50 -6.5q33 0 54 4.5t43 16.5q2 1 1.5 4.5t-2.5 2.5q-15 -8 -29.5 -11t-34.5 -3q-22 0 -33 15.5t-11 41.5q0 16 6 40.5t13.5 52t14 54.5t6.5 48q0 51 -35.5 84t-120.5 36q57 4 100 20.5t72 41.5t43.5 57.5t14.5 67.5zM545 638q0 -21 -6 -50t-15 -58.5t-19 -54.5t-18 -38
q-20 -30 -41.5 -47.5t-56.5 -17.5h-93l103 326q0 3 7 3h55q45 0 64.5 -14.5t19.5 -48.5z" />
    <glyph glyph-name="S" unicode="S" horiz-adv-x="563" 
d="M571 724q1 2 -3 2q-3 0 -5 -2q-4 -9 -15 -16.5t-31 -7.5q-16 0 -31.5 4t-31.5 9.5t-33 9.5t-36 4q-49 0 -89.5 -18.5t-70 -49.5t-46 -72.5t-16.5 -86.5q0 -43 17.5 -77t44 -62.5t57 -54.5t57 -52t44 -54.5t17.5 -63.5q0 -67 -35.5 -106t-116.5 -39q-51 0 -88 23.5
t-58 59.5t-26 79.5t8 84.5q0 2 -4 2t-4 -2l-70 -228q-1 -2 3 -2t5 2q6 12 17 16.5t31 4.5q16 0 35 -7.5t42 -16.5t50 -16.5t59 -7.5q60 0 106 19.5t77 52.5t47 76t16 89q0 42 -18 76.5t-45 65t-58.5 58t-58.5 55.5t-45 58t-18 65q0 57 34 89t97 32q30 0 57 -14.5t46 -40
t25 -59.5t-6 -74q-1 -2 3 -2t5 2z" />
    <glyph glyph-name="T" unicode="T" horiz-adv-x="662" 
d="M767 706q0 3 -2 3h-621q-3 0 -4 -3l-71 -227q-1 -2 3 -2t5 2q13 42 38.5 81.5t61.5 71t81.5 50.5t98.5 19h17q6 0 5 -3l-216 -687q-2 -3 -8 -3h-89q-2 0 -3.5 -4t0.5 -4h330q2 0 4 4t0 4h-90q-7 0 -5 3l215 687q1 3 8 3h16q55 0 89.5 -20t51 -52t16.5 -74t-13 -85
q-1 -2 3 -2t4 2z" />
    <glyph glyph-name="U" unicode="U" horiz-adv-x="756" 
d="M851 709h-197q-2 0 -3.5 -4t0.5 -4h87q6 0 6 -3l-153 -487q-15 -48 -37.5 -87t-54 -66.5t-73 -42t-94.5 -14.5q-60 0 -85.5 29t-25.5 79q0 57 26 135l142 454q1 3 8 3h90q2 0 3 4t-1 4h-331q-2 0 -3 -4t1 -4h90q6 0 5 -3l-137 -435q-18 -54 -18 -103q0 -78 50 -127.5
t155 -49.5q61 0 109.5 15.5t84.5 45t61.5 71t42.5 92.5l154 491q1 3 8 3h87q2 0 3.5 4t-0.5 4z" />
    <glyph glyph-name="V" unicode="V" horiz-adv-x="660" 
d="M848 701q2 0 2.5 4t-1.5 4h-206q-2 0 -2.5 -4t1.5 -4h91q6 0 3 -6.5t-25 -35.5l-386 -500v539q0 3 6 3h80q2 0 2.5 4t-1.5 4h-315q-2 0 -2.5 -4t1.5 -4h90q6 0 6 -3v-712q0 -2 4 -2.5t6 2.5l519 674q20 26 28.5 33.5t14.5 7.5h84z" />
    <glyph glyph-name="W" unicode="W" horiz-adv-x="949" 
d="M1123 701q2 0 3 4t-1 4h-200q-2 0 -3 -4t1 -4h88q5 0 2 -6.5t-23 -35.5l-347 -493l-14 359l96 131q12 15 19 24t12 13.5t8.5 6t6.5 1.5h79q2 0 3 4t-1 4h-755q-2 0 -2.5 -4t1.5 -4h90q6 0 6 -3l26 -712q0 -2 4 -2.5t6 2.5l275 368l13 -368q1 -2 4.5 -2.5t5.5 2.5l474 674
q19 28 25 34.5t10 6.5h88zM741 701q2 0 3 -1t-1 -5t-7.5 -12.5t-15.5 -22.5l-91 -122l-6 160q0 3 6 3h112zM502 367l-157 -209l-20 540q0 3 6 3h153q6 0 5 -4z" />
    <glyph glyph-name="X" unicode="X" horiz-adv-x="680" 
d="M772 709h-202q-2 0 -3 -4t1 -4h84q10 0 6 -6.5t-29 -33.5l-207 -226l-67 263q0 3 5 3h99q2 0 3.5 4t-0.5 4h-341q-2 0 -3.5 -4t0.5 -4h90q5 0 8 -3l99 -385l-243 -264q-13 -14 -21.5 -22t-14 -12.5t-8.5 -5.5t-5 -1h-83q-2 0 -3 -4t1 -4h202q2 0 3 4t-1 4h-84
q-9 0 -5 6.5t30 35.5l234 254l74 -293q0 -3 -5 -3h-100q-2 0 -3.5 -4t0.5 -4h347q2 0 3.5 4t-0.5 4h-95q-7 0 -7 3l-107 414l214 235q25 26 35.5 33.5t13.5 7.5h82q2 0 3.5 4t-0.5 4z" />
    <glyph glyph-name="Y" unicode="Y" horiz-adv-x="660" 
d="M806 709h-202q-2 0 -3 -4t1 -4h96q3 0 3.5 -1t-2 -5.5t-8.5 -12.5t-18 -23l-253 -321l-75 360q-3 3 4 3h109q2 0 3 4t-1 4h-353q-2 0 -3 -4t1 -4h93q4 0 7 -3l78 -370l-101 -317q0 -3 -7 -3h-90q-2 0 -3.5 -4t0.5 -4h331q2 0 3.5 4t-0.5 4h-90q-7 0 -5 3l99 315l263 334
q11 14 18.5 22.5t12 12.5t7.5 5t5 1h78q2 0 3 4t-1 4z" />
    <glyph glyph-name="Z" unicode="Z" horiz-adv-x="656" 
d="M703 709h-474q-3 0 -4 -3l-74 -235q-1 -2 3 -2t5 2q13 43 41.5 84.5t66.5 74t84.5 52t97.5 19.5h95q6 0 3 -3l-575 -689q-3 -4 -3 -7q0 -2 2 -2h520q4 0 4 3l71 225q1 2 -3 2t-5 -2q-12 -38 -39.5 -77.5t-68.5 -71t-96.5 -51.5t-122.5 -20h-101q-6 0 -3 3l575 689
q7 9 1 9z" />
    <glyph glyph-name="bracketleft" unicode="[" horiz-adv-x="316" 
d="M481 730q2 0 2.5 3.5t-1.5 3.5h-225q-4 0 -5 -3l-307 -974q-1 -4 3 -4h226q2 0 2.5 4t-1.5 4h-114q-7 0 -5 3l302 959q2 4 8 4h115z" />
    <glyph glyph-name="backslash" unicode="\" horiz-adv-x="358" 
d="M297 -20q1 -2 -3 -3.5t-5 0.5l-319 777q-1 2 2.5 3.5t4.5 -0.5z" />
    <glyph glyph-name="bracketright" unicode="]" horiz-adv-x="316" 
d="M360 733q1 4 -3 4h-226q-2 0 -2.5 -4t1.5 -4h114q6 0 5 -3l-302 -958q-1 -4 -7 -4h-116q-2 0 -2.5 -4t1.5 -4h225q4 0 5 4z" />
    <glyph glyph-name="asciicircum" unicode="^" horiz-adv-x="326" 
d="M338 522q-8 19 -16.5 43.5t-15.5 50t-12 51t-8 47.5q0 2 -3 2.5t-5 -1.5q-17 -18 -37.5 -41t-43.5 -48.5t-49 -52t-54 -50.5q-2 -2 1 -4.5t5 -0.5q36 31 69.5 61.5t60.5 57.5q8 -38 20 -69t24 -53z" />
    <glyph glyph-name="underscore" unicode="_" horiz-adv-x="562" 
d="M505 0q2 0 2 4t-2 4h-488q-2 0 -2 -4t2 -4h488z" />
    <glyph glyph-name="grave" unicode="`" horiz-adv-x="354" 
d="M371 505q-36 9 -58 28t-36 42t-21.5 47t-14 44t-14 33t-20.5 13q-19 0 -31 -13t-12 -33q0 -17 7 -39.5t29 -46t62.5 -45.5t106.5 -38q2 -1 3 3t-1 5z" />
    <glyph glyph-name="a" unicode="a" horiz-adv-x="517" 
d="M491 433l-104 -7l-15 -46q-4 28 -24 41t-47 13q-58 0 -109 -26t-89 -67.5t-60 -92t-22 -98.5q0 -30 7 -58.5t22.5 -51t41 -36t61.5 -13.5q38 0 75 32.5t63 94.5q-18 -54 1 -90.5t64 -36.5q15 0 33 6.5t36.5 19t36 32t30.5 45.5l-7 4q-23 -42 -47 -60t-47 -18
q-14 0 -19.5 9t-0.5 22zM365 359l-63 -196q-13 -33 -28 -61.5t-32.5 -50.5t-37 -34.5t-40.5 -12.5q-26 0 -38 16.5t-12 55.5q0 21 4.5 49.5t12.5 60.5t19.5 65t25.5 62.5t30.5 53t34.5 37.5t31 18.5t29 4.5q32 0 49 -18.5t15 -49.5z" />
    <glyph glyph-name="b" unicode="b" horiz-adv-x="492" 
d="M457 289q0 34 -11 61t-30.5 46t-45 29t-54.5 10q-36 0 -70.5 -24t-54.5 -70l123 394q0 3 -2 3l-162 -3q-2 0 -3 -4t1 -4h55q6 0 5 -4l-173 -549q-13 -42 -13.5 -76t14.5 -58t47 -36.5t83 -12.5q52 0 104 24.5t93.5 66t67.5 95t26 112.5zM366 344q0 -25 -9.5 -65.5
t-23.5 -82.5t-29.5 -79t-28.5 -55q-25 -35 -49.5 -49t-62.5 -14q-34 0 -50 20.5t-4 65.5l67 206q50 131 129 131q38 0 49.5 -20t11.5 -58z" />
    <glyph glyph-name="c" unicode="c" horiz-adv-x="417" 
d="M402 337q0 19 -11 36.5t-29 31t-41 22t-47 8.5q-50 0 -96 -23t-81 -61.5t-55.5 -88t-20.5 -103.5q0 -37 12 -68t33 -53t49.5 -34.5t62.5 -12.5q51 0 93.5 26t76.5 71l-7 5q-30 -40 -69 -67t-97 -27q-38 0 -52 21.5t-14 58.5q0 21 8.5 62.5t20.5 86t24.5 83.5t21.5 54
q18 31 40 46.5t54 15.5q43 0 43 -33q0 -9 -2.5 -15.5t-5.5 -12.5t-5.5 -13.5t-2.5 -20.5q0 -17 10.5 -31.5t34.5 -14.5q21 0 36.5 12.5t15.5 38.5z" />
    <glyph glyph-name="d" unicode="d" horiz-adv-x="507" 
d="M586 735q0 3 -2 3l-162 -5q-2 0 -3.5 -4t0.5 -4l55 2q8 0 5 -3l-106 -343q-4 27 -23.5 40.5t-47.5 13.5q-58 0 -109 -26.5t-89.5 -68t-60.5 -92.5t-22 -100q0 -30 7 -58.5t23 -50.5t40.5 -35t60.5 -13q38 0 74 33t64 93q-19 -55 0 -90.5t64 -35.5q13 0 31.5 6t37.5 19
t37 32t32 46l-7 4q-24 -42 -48 -60t-47 -18q-14 0 -19.5 8.5t-0.5 21.5zM365 358l-61 -192q-12 -31 -27.5 -60.5t-33.5 -52t-39 -36t-43 -13.5q-25 0 -36 15.5t-11 54.5q0 32 9.5 80t26.5 96.5t40.5 91t50.5 63.5q17 14 30.5 18t29.5 4q34 0 51 -18.5t13 -50.5z" />
    <glyph glyph-name="e" unicode="e" horiz-adv-x="420" 
d="M401 350q0 15 -8 30t-23.5 27t-39.5 20t-55 8q-50 0 -96 -23t-81 -61.5t-56 -88t-21 -103.5q0 -37 12 -68t33 -53t49.5 -34.5t62.5 -12.5q51 0 87 20t71 62l-5 5q-15 -17 -30 -31t-33 -25t-40.5 -17t-52.5 -6q-38 0 -52 22.5t-14 58.5q0 22 7.5 60t20.5 82h43
q45 0 85.5 8.5t70.5 25t47.5 40.5t17.5 54zM316 372q0 -24 -6.5 -49t-23.5 -46t-46.5 -34t-75.5 -13h-25q12 41 23 77t26 62.5t35.5 42t50.5 15.5q20 0 31 -12.5t11 -42.5z" />
    <glyph glyph-name="f" unicode="f" horiz-adv-x="300" 
d="M522 654q0 37 -28.5 63t-84.5 26q-37 0 -74 -18.5t-69.5 -51.5t-59.5 -79.5t-45 -102.5q-6 -14 -10.5 -29.5t-9.5 -34.5h-103q-2 0 -3.5 -3.5t0.5 -3.5h104q-16 -57 -33 -125.5t-34 -138.5t-34 -135.5t-33 -116.5q-20 -60 -34 -100.5t-26.5 -65t-26 -35.5t-32.5 -11
q-16 0 -24.5 9.5t-8.5 26.5q0 14 10 29.5t10 33.5q0 17 -10.5 27.5t-35.5 10.5q-21 0 -36 -15.5t-15 -42.5q0 -20 8.5 -36.5t23.5 -27.5t34.5 -17t41.5 -6q40 0 73.5 19t61.5 53.5t51 82t42 104.5q13 41 29 98.5t33 121.5t34.5 130.5t33.5 126.5h117q2 0 3 3.5t-1 3.5h-117
q5 18 11.5 42t11.5 39q22 69 41.5 113t36.5 69.5t33 35t30 9.5q36 0 36 -37q0 -13 -9.5 -29.5t-9.5 -35.5q0 -16 10 -26.5t35 -10.5q21 0 36.5 15.5t15.5 42.5z" />
    <glyph glyph-name="g" unicode="g" horiz-adv-x="490" 
d="M491 432l-105 -9l-14 -42q-5 26 -24.5 39.5t-47.5 13.5q-57 0 -108 -26.5t-89 -68t-60 -92.5t-22 -100q0 -30 7 -58t22.5 -49.5t40.5 -35t62 -13.5t73.5 32t62.5 94l-24 -80q-25 -78 -45 -133.5t-37 -94t-32.5 -61.5t-30.5 -35.5t-31.5 -16.5t-35.5 -4q-47 0 -64 15.5
t-17 34.5q0 25 23 31q19 5 28.5 21t9.5 33q0 20 -15.5 36t-38.5 16q-15 0 -27.5 -6t-21.5 -16t-14 -23t-5 -26q0 -19 9 -41t27 -40.5t44.5 -30.5t60.5 -12q103 0 179 83t124 234zM365 359l-62 -197q-13 -33 -28.5 -62.5t-33.5 -51t-38 -34t-42 -12.5q-25 0 -36.5 17.5
t-11.5 56.5q0 34 10 82t27.5 96t40.5 89t50 61q17 12 30.5 17t30.5 5q32 0 49 -17.5t14 -49.5z" />
    <glyph glyph-name="h" unicode="h" horiz-adv-x="510" 
d="M494 94l-7 4q-24 -43 -47 -60.5t-46 -17.5q-17 0 -24 10.5t-7 27.5q0 23 14 58t31.5 74t31.5 79t14 74q0 44 -21.5 68t-58.5 24q-43 0 -96 -40t-99 -121l146 462q2 2 -2 2l-162 -4q-2 0 -3.5 -4t0.5 -4l55 1q6 0 6 -3l-228 -724h103l76 242q25 43 45 71.5t37.5 45.5
t33 24t30.5 7q18 0 30 -12t12 -31q0 -34 -13.5 -71t-30 -74t-30 -72.5t-13.5 -66.5t23 -51.5t63 -20.5q15 0 33.5 6t37 19t36 32.5t30.5 45.5z" />
    <glyph glyph-name="i" unicode="i" horiz-adv-x="279" 
d="M286 625q0 24 -16.5 41t-40.5 17t-41 -17t-17 -41q0 -23 17 -40t41 -17t40.5 17t16.5 40zM259 94l-7 4q-24 -44 -47.5 -61t-46.5 -17q-16 0 -23 10.5t-7 27.5q0 24 16 60.5t34.5 78t34.5 84.5t16 80q0 31 -18 52.5t-58 21.5q-29 0 -62.5 -21t-55.5 -70l7 -4
q17 36 36 52.5t33 16.5t19.5 -7t5.5 -24q0 -33 -16 -74t-34.5 -84t-34.5 -83.5t-16 -71.5q0 -32 23 -53t64 -21q15 0 33.5 6t37 19t36 32.5t30.5 45.5z" />
    <glyph glyph-name="j" unicode="j" horiz-adv-x="266" 
d="M290 625q0 24 -16.5 41t-40.5 17t-41 -17t-17 -41q0 -23 17 -40t41 -17t40.5 17t16.5 40zM209 268q30 83 14.5 125t-66.5 42q-28 0 -61.5 -21t-55.5 -69l7 -4q17 35 35.5 51.5t34.5 16.5q14 0 20.5 -13t-0.5 -34l-148 -470q-18 -57 -30.5 -95t-24 -61.5t-24 -33
t-30.5 -9.5q-15 0 -22.5 9.5t-7.5 26.5q0 12 9.5 27t9.5 34q0 16 -10 27t-35 11q-21 0 -36.5 -15.5t-15.5 -42.5q0 -40 31.5 -62t75.5 -22q84 0 134.5 61.5t86.5 175.5z" />
    <glyph glyph-name="k" unicode="k" horiz-adv-x="498" 
d="M476 374q0 28 -19 44.5t-50 16.5q-25 0 -43 -13t-33.5 -32t-30 -42t-32.5 -42.5t-40 -33.5t-53 -16l150 480q2 2 -2 2l-162 -4q-2 0 -3 -4t1 -4l54 1q6 0 6 -3l-228 -724h103l77 247q21 -8 30 -30.5t14 -50.5t9.5 -59t17 -57t37.5 -42.5t70 -16.5q60 0 94.5 32t34.5 79
q0 10 -4 21t-11.5 20t-18.5 15t-24 6q-22 0 -34.5 -13.5t-12.5 -29.5q0 -17 10 -25.5t22 -15t22 -14t10 -20.5q0 -17 -16.5 -28.5t-36.5 -11.5q-31 0 -43.5 15.5t-17.5 40t-5.5 54.5t-6 59.5t-20.5 55.5t-48 41q24 16 40.5 38.5t30.5 42.5t28.5 34t32.5 14q13 0 17.5 -5
t4.5 -13q0 -5 -2 -8.5t-4 -6.5t-4 -7.5t-2 -11.5q0 -13 9 -23t29 -10q26 0 39.5 17t13.5 41z" />
    <glyph glyph-name="l" unicode="l" horiz-adv-x="277" 
d="M335 736q2 2 -2 2l-162 -4q-2 0 -3 -4t1 -4l55 1q6 0 5 -3l-191 -608q-20 -62 -1.5 -93.5t66.5 -31.5q16 0 34.5 6t37 19t35.5 32.5t31 45.5l-8 4q-23 -42 -46.5 -60t-46.5 -18q-14 0 -19.5 9t-0.5 24z" />
    <glyph glyph-name="m" unicode="m" horiz-adv-x="780" 
d="M764 94l-7 4q-24 -43 -47.5 -60.5t-46.5 -17.5q-16 0 -23 10.5t-7 27.5q0 24 14 59t31.5 74t31.5 78.5t14 73.5q0 44 -21.5 68t-58.5 24q-89 0 -179 -161q14 41 12.5 71.5t-14 50.5t-32.5 29.5t-43 9.5q-45 0 -90 -39t-92 -122q15 42 17 72t-6 50t-25.5 29.5t-39.5 9.5
q-28 0 -61.5 -21t-55.5 -70l8 -3q17 37 35.5 52.5t33.5 15.5q14 0 21 -13t0 -34l-115 -362h103l76 242q25 44 44.5 72.5t34.5 45.5t28 23.5t25 6.5q32 0 42.5 -26t-5.5 -75l-90 -289h103l75 239q25 44 44 73t34.5 46.5t28.5 24.5t25 7q18 0 30 -12t12 -31q0 -34 -14 -71
t-30.5 -74t-30 -72.5t-13.5 -66.5t23.5 -51.5t63.5 -20.5q15 0 33 6t37 19t36 32.5t31 45.5z" />
    <glyph glyph-name="n" unicode="n" horiz-adv-x="537" 
d="M521 94l-7 4q-24 -44 -47 -61t-46 -17q-17 0 -24 10.5t-7 27.5q0 23 14.5 58t31.5 74t31.5 79t14.5 74q0 44 -22 68t-59 24q-43 0 -96 -40t-98 -121q15 42 16.5 72t-6.5 50t-25.5 29.5t-39.5 9.5q-28 0 -61 -21t-56 -70l8 -4q17 38 35.5 53.5t33.5 15.5q14 0 21 -13
t0 -35l-115 -361h103l76 242q25 43 45 71.5t37.5 45.5t33 24t31.5 7q18 0 29.5 -12t11.5 -31q0 -34 -13.5 -71.5t-30 -74.5t-30 -72.5t-13.5 -65.5q0 -31 23 -51.5t63 -20.5q15 0 33.5 6t37 19t36 32t30.5 46z" />
    <glyph glyph-name="o" unicode="o" horiz-adv-x="474" 
d="M433 267q0 37 -12 68t-33 53t-49.5 34.5t-62.5 12.5q-50 0 -96.5 -23t-81.5 -61.5t-56 -88t-21 -103.5q0 -37 12 -68t33 -53t49.5 -34.5t62.5 -12.5q50 0 96 23t81.5 61.5t56.5 88t21 103.5zM344 345q0 -13 -4 -36t-10 -51.5t-14 -58.5t-16.5 -57.5t-16 -48.5t-13.5 -31
q-35 -63 -96 -63q-38 0 -51.5 22.5t-13.5 58.5q0 20 8.5 61t20.5 85.5t24.5 83t20.5 53.5q19 32 41.5 48t54.5 16q38 0 51.5 -22.5t13.5 -59.5z" />
    <glyph glyph-name="p" unicode="p" horiz-adv-x="526" 
d="M485 278q0 -48 -22.5 -99t-60.5 -93t-88.5 -68.5t-107.5 -26.5q-29 0 -48.5 13t-24.5 39l-110 -350h-103l212 669q7 21 0.5 34t-21.5 13t-33 -15.5t-36 -52.5l-7 4q22 48 55.5 69t60.5 21q42 0 62.5 -32t0.5 -99q28 63 65 97t74 34q36 0 61.5 -13.5t41 -35.5t22.5 -50
t7 -58zM392 352q0 39 -11 54.5t-36 15.5q-23 0 -44 -14.5t-39 -38.5t-33.5 -53.5t-27.5 -59.5l-61 -192q-1 -31 16.5 -48t51.5 -17q17 0 30 5.5t30 17.5q26 21 48.5 63.5t39.5 91.5t26.5 96.5t9.5 78.5z" />
    <glyph glyph-name="q" unicode="q" horiz-adv-x="491" 
d="M491 433l-103 -9l-16 -45q-4 28 -23.5 41.5t-46.5 13.5q-59 0 -110 -26.5t-89 -68t-60 -93t-22 -100.5q0 -30 7.5 -58t23.5 -49.5t41 -34.5t60 -13q38 0 75.5 33t61.5 95l-135 -427h103zM364 357l-62 -197q-12 -31 -27.5 -59.5t-32.5 -50t-37 -34.5t-41 -13
q-27 0 -38.5 17t-11.5 55q0 32 9.5 79.5t26.5 95.5t40.5 90.5t50.5 63.5q17 12 30 17t30 5q33 0 49.5 -19t13.5 -50z" />
    <glyph glyph-name="r" unicode="r" horiz-adv-x="420" 
d="M429 355q0 36 -23 58t-56 22q-36 0 -70 -36.5t-72 -121.5q14 41 15.5 70.5t-7 49t-25.5 29t-39 9.5q-28 0 -61 -21t-55 -70l7 -4q17 37 35.5 53t33.5 16t21.5 -13t-0.5 -35l-115 -361h103l74 234q24 49 41.5 80t31 49t24 25t19.5 7q16 0 21.5 -7t5.5 -19q0 -6 -2 -10.5
t-4.5 -9t-4.5 -10t-2 -14.5q0 -16 13.5 -27.5t37.5 -11.5q23 0 38 21.5t15 47.5z" />
    <glyph glyph-name="s" unicode="s" horiz-adv-x="365" 
d="M349 354q0 18 -8.5 32.5t-23.5 25.5t-35.5 17t-43.5 6q-33 0 -61 -13.5t-48.5 -33.5t-32 -44.5t-11.5 -45.5q0 -27 9.5 -46t23.5 -35t30.5 -29.5t30.5 -28.5t23.5 -33t9.5 -43q0 -36 -19 -60t-65 -24q-43 0 -59.5 14.5t-16.5 31.5q0 11 6 15.5t12.5 9.5t12.5 13.5t6 26.5
q0 14 -11 28.5t-34 14.5t-37.5 -18.5t-14.5 -42.5q0 -16 9 -33.5t26.5 -32.5t42.5 -25t58 -10q42 0 73.5 11.5t52.5 30.5t31.5 42.5t10.5 46.5q0 29 -10 51t-25 40.5t-33 34t-33 31t-25 33t-10 38.5q0 35 19.5 56t57.5 21q20 0 29.5 -9.5t9.5 -23.5q0 -7 -2.5 -12t-6 -10
t-6 -11t-2.5 -15q0 -16 10 -28.5t33 -12.5q20 0 33.5 12.5t13.5 36.5z" />
    <glyph glyph-name="t" unicode="t" horiz-adv-x="282" 
d="M313 428h-75l48 153l-104 -5l-46 -148h-73q-2 0 -3.5 -4t0.5 -4h73l-95 -303q-19 -61 -0.5 -93.5t66.5 -32.5q15 0 33.5 6t37 18.5t35.5 32t31 46.5l-7 4q-25 -44 -48.5 -61t-46.5 -17q-14 0 -19 8.5t0 22.5l115 369h75q2 0 3 4t0 4z" />
    <glyph glyph-name="u" unicode="u" horiz-adv-x="528" 
d="M505 431l-104 -5l-76 -243q-25 -42 -45 -70.5t-37.5 -45.5t-33 -24t-31.5 -7q-18 0 -30 12t-12 30q0 34 13.5 71.5t30 74.5t30.5 72.5t14 66.5q0 29 -17.5 50.5t-55.5 21.5q-27 0 -60 -20.5t-56 -69.5l8 -4q17 36 35.5 52t32.5 16q13 0 18.5 -6.5t5.5 -23.5
q0 -23 -15 -60t-32.5 -78t-32.5 -83t-15 -75q0 -44 22 -68t59 -24q44 0 96 40t97 121q-15 -42 -16.5 -72.5t7.5 -50t26 -29t40 -9.5q30 0 69 24.5t67 78.5l-7 4q-25 -44 -48 -61t-46 -17q-14 0 -19.5 8.5t-0.5 22.5z" />
    <glyph glyph-name="v" unicode="v" horiz-adv-x="492" 
d="M467 362q0 29 -13.5 51t-43.5 22q-22 0 -33.5 -18t-11.5 -42q0 -19 3 -33t7 -28.5t7 -32.5t3 -45q0 -46 -18 -87t-46 -71.5t-60.5 -48t-60.5 -17.5q-26 0 -38.5 14.5t-12.5 53.5q0 26 11 58.5t23.5 68.5t23.5 73.5t11 73.5q0 81 -76 81q-28 0 -60.5 -21t-55.5 -70l7 -4
q17 35 35.5 52t33.5 17t20 -6.5t5 -22.5q0 -34 -10 -69.5t-22.5 -69.5t-22.5 -66t-10 -59q0 -57 27 -91t90 -34q39 0 89 32t94 84.5t74.5 119t30.5 135.5z" />
    <glyph glyph-name="w" unicode="w" horiz-adv-x="712" 
d="M687 361q0 29 -13 51.5t-44 22.5q-21 0 -32 -18t-11 -42q0 -20 3 -34l6 -28t6 -32t3 -45q0 -46 -18 -86.5t-45 -71t-59.5 -48.5t-61.5 -18q-31 0 -44 20t3 65l101 334l-104 -5l-82 -265q-34 -69 -65 -98t-59 -29q-19 0 -31.5 11.5t-12.5 31.5q0 34 13.5 71.5t30 75t30 73
t13.5 65.5t-17.5 51.5t-55.5 21.5q-27 0 -59.5 -20.5t-55.5 -70.5l7 -4q17 37 35.5 53t32.5 16q13 0 18.5 -6.5t5.5 -23.5q0 -23 -15 -59.5t-32.5 -78t-32.5 -83.5t-15 -76q0 -44 22.5 -67.5t60.5 -23.5q19 0 42 9.5t46.5 26.5t45.5 42t37 56q-7 -29 -1.5 -53.5t21.5 -42.5
t40.5 -28t56.5 -10q39 0 88.5 32t93.5 84.5t74 118.5t30 135z" />
    <glyph glyph-name="x" unicode="x" horiz-adv-x="503" 
d="M504 366q0 28 -16.5 48.5t-48.5 20.5q-43 0 -79 -44.5t-73 -123.5q-18 89 -41.5 128.5t-64.5 39.5q-27 0 -55.5 -20t-54.5 -70l8 -7q17 32 29 43.5t27 11.5q9 0 17 -7t15.5 -26.5t15.5 -55t18 -91.5q3 -14 5.5 -26t4.5 -23q-19 -40 -36 -67t-32.5 -43.5t-30.5 -23.5
t-29 -7q-16 0 -23 9.5t-7 21.5q0 13 6 21t6 22q0 12 -10 24t-30 12q-25 0 -42 -20t-17 -49q0 -31 24.5 -52t59.5 -21q89 0 165 162q20 -87 52 -124.5t73 -37.5q35 0 70 26.5t54 78.5l-8 3q-18 -37 -32.5 -51.5t-34.5 -14.5q-26 0 -51 44t-42 142q-2 8 -3 17t-3 17
q65 143 105 143q14 0 19.5 -6t5.5 -17q0 -12 -5.5 -19t-5.5 -20q0 -15 9.5 -25t29.5 -10t38 17.5t18 49.5z" />
    <glyph glyph-name="y" unicode="y" horiz-adv-x="453" 
d="M492 406q0 14 -6.5 21.5t-23.5 7.5q-24 0 -46 -21.5t-45.5 -62.5t-49.5 -99.5t-57 -133.5l-31 146q-17 85 -39.5 128t-63.5 43q-34 0 -62 -24.5t-54 -72.5l6 -6q16 28 27.5 37.5t24.5 9.5q9 0 18.5 -5.5t19 -23t19.5 -50t20 -87.5l45 -262q-26 -60 -49.5 -108t-49 -81
t-55 -51t-66.5 -18q-31 0 -31 36q0 12 10 27.5t10 34.5q0 16 -10.5 27.5t-34.5 11.5q-22 0 -37.5 -16t-15.5 -44q0 -20 8.5 -35.5t23.5 -26.5t34.5 -17t41.5 -6q43 0 76.5 22t63.5 65t59 106.5t63 146.5q42 101 69.5 163.5t50.5 99t46 53.5t56 27q14 5 24.5 13t10.5 25z" />
    <glyph glyph-name="z" unicode="z" horiz-adv-x="421" 
d="M407 431l-6 5l-10 -9q-20 -20 -40.5 -31.5t-48.5 -11.5q-30 0 -73.5 13t-109.5 43l-68 -174l7 -2l32 82q40 -17 77.5 -24t66.5 -7q36 0 59 13l-321 -331l7 -7q22 26 42.5 36.5t46.5 10.5q22 0 44.5 -7t45 -16t45.5 -16t46 -7q31 0 57 10t44 27t28 40t10 49q0 18 -4.5 35
t-14 31t-24 22.5t-33.5 8.5q-23 0 -37.5 -14t-14.5 -37q0 -17 9.5 -26.5t26.5 -9.5q12 0 20.5 2.5t15 5.5t12 5.5t11.5 2.5q24 0 24 -32q0 -26 -19 -47.5t-54 -21.5q-16 0 -36.5 11t-44.5 23.5t-51 23.5t-55 11q-11 0 -16 -1t-13 -4z" />
    <glyph glyph-name="braceleft" unicode="{" horiz-adv-x="312" 
d="M426 730q2 0 3 3.5t-2 3.5h-6q-49 0 -96 -15t-84 -43.5t-59.5 -71t-22.5 -97.5q0 -32 3.5 -57.5t8 -49t8 -46.5t3.5 -50q0 -22 -10 -34.5t-19 -14.5q-10 -2 -12 -2q-8 0 -13.5 1.5t-10.5 1.5q-9 0 -9 -7t7 -7q6 0 11.5 1.5t13.5 1.5q3 0 9 -2q11 -3 11 -15
q0 -15 -13.5 -34t-33.5 -43t-43.5 -52t-43.5 -59.5t-33.5 -67t-13.5 -74.5q0 -27 9.5 -53t29 -46.5t48.5 -33t69 -12.5h6q2 0 3 4t-1 4h-7q-43 0 -55 17.5t-12 49.5q0 44 19 95.5t41.5 102t41.5 95.5t19 75q0 18 -10 33t-27 20q32 8 53.5 31.5t29.5 46.5q9 28 15 68.5
t11.5 82.5t11.5 81.5t14 66.5q19 56 49.5 78.5t81.5 22.5h7z" />
    <glyph glyph-name="bar" unicode="|" horiz-adv-x="156" 
d="M82 -23v779q0 2 -4 2t-4 -2v-779q0 -2 4 -2t4 2z" />
    <glyph glyph-name="braceright" unicode="}" horiz-adv-x="312" 
d="M322 592q0 27 -9.5 53t-29 46.5t-48.5 33t-69 12.5h-6q-2 0 -3 -4t1 -4h7q43 0 55 -17t12 -49q0 -44 -19 -96t-41.5 -102.5t-41.5 -95t-19 -74.5q0 -19 10 -34t27 -20q-32 -8 -53.5 -31.5t-29.5 -46.5q-9 -28 -15 -68.5t-11.5 -82.5t-11.5 -81.5t-14 -65.5
q-19 -56 -49.5 -78.5t-81.5 -22.5h-7q-2 0 -3 -4t2 -4h6q49 0 96 15t84 43.5t59.5 71t22.5 97.5q0 32 -3.5 57.5t-8 49t-8 46.5t-3.5 50q0 22 10 34.5t19 14.5q10 2 12 2q8 0 13.5 -1.5t10.5 -1.5q9 0 9 7t-7 7q-6 0 -11.5 -1.5t-13.5 -1.5q-3 0 -9 2q-11 3 -11 16
q0 14 13.5 33.5t33.5 43t43.5 51.5t43.5 60t33.5 67t13.5 74z" />
    <glyph glyph-name="asciitilde" unicode="~" horiz-adv-x="436" 
d="M422 415q0 2 -4 2t-4 -2q0 -24 -15 -45t-49 -21q-17 0 -36 9t-40 20t-44.5 20t-48.5 9q-24 0 -47 -9t-41 -24t-28.5 -36t-10.5 -45q0 -2 4 -2t4 2q0 24 15 45t49 21q17 0 36 -9t40 -20.5t44.5 -20.5t48.5 -9q24 0 47 9t41 24.5t28.5 36.5t10.5 45z" />
    <glyph glyph-name="exclamdown" unicode="&#xa1;" horiz-adv-x="288" 
d="M258 340q0 -15 -5.5 -28.5t-15 -24t-22 -16.5t-26.5 -6q-17 0 -29 13t-12 33q0 14 5.5 27.5t15 24t21.5 16.5t26 6q18 0 30 -12.5t12 -32.5zM168 208q-21 -66 -33.5 -136.5t-21.5 -135t-16.5 -118.5t-17.5 -87q-16 -49 -41 -67t-51 -18q-23 0 -35 14.5t-12 34.5
q0 16 12.5 48.5t32 75t44.5 92t49.5 101t46 102t35.5 94.5q2 2 5 2q5 0 3 -2z" />
    <glyph glyph-name="cent" unicode="&#xa2;" horiz-adv-x="417" 
d="M402 337q0 18 -10.5 35t-27.5 30.5t-39 22.5t-45 10l18 69q1 2 -4 2q-4 0 -5 -2l-19 -69q-50 -1 -95 -24.5t-79 -62t-54.5 -87.5t-20.5 -102q0 -68 37 -112.5t95 -53.5l-19 -72q0 -2 4 -2t5 2l19 71q5 -1 16 -1q51 0 93.5 26t76.5 71l-7 5q-30 -40 -69 -67t-97 -27
q-7 0 -11 1l113 427q44 -1 44 -33q0 -9 -2.5 -15.5t-5.5 -12.5t-5.5 -13.5t-2.5 -20.5q0 -17 10.5 -31.5t34.5 -14.5q21 0 36.5 12.5t15.5 38.5zM268 426l-113 -425q-26 6 -36 26.5t-10 51.5q0 21 8.5 62.5t20.5 86t24.5 83.5t21.5 54q17 29 36.5 44t47.5 17z" />
    <glyph glyph-name="sterling" unicode="&#xa3;" horiz-adv-x="604" 
d="M630 639q0 37 -29 62.5t-84 25.5q-39 0 -80 -21t-77.5 -57t-63.5 -84.5t-37 -103.5q-5 -28 -7 -53.5t-2 -50.5h-114q-2 0 -3 -3.5t1 -3.5h116v-87q0 -36 -3 -63.5t-11.5 -48.5t-24.5 -39q-20 4 -45 6.5t-54 2.5q-27 0 -49 -8.5t-38 -21.5t-24.5 -28t-8.5 -27q0 -15 6 -25
t14.5 -16.5t19 -9t19.5 -2.5q29 0 57.5 15t56.5 40q44 -19 93.5 -37t106.5 -18q33 0 62 13t51.5 34t35.5 47.5t15 52.5q0 2 -4 2.5t-4 -1.5q-3 -25 -20 -46t-46 -21q-43 0 -75 4.5t-59 11.5t-51 14.5t-51 13.5q26 21 50.5 48t44 58.5t32.5 66t18 69.5h112q2 0 2.5 3.5
t-1.5 3.5h-111q13 109 28.5 179t34 110.5t40.5 56.5t47 16q35 0 35 -38q0 -12 -10.5 -29t-10.5 -36q0 -16 11 -27t35 -11q22 0 38 15.5t16 45.5zM157 41q-25 -23 -53 -36.5t-49 -13.5q-17 0 -35.5 9.5t-18.5 31.5q0 42 50 42q24 0 49.5 -9t56.5 -24z" />
    <glyph glyph-name="yen" unicode="&#xa5;" horiz-adv-x="631" 
d="M776 707h-203q-2 0 -3.5 -4t0.5 -4h98q3 0 3.5 -1t-2 -5t-8.5 -12t-18 -22l-252 -321l-73 359q-1 0 0.5 1t3.5 1h104q2 0 3.5 4t-0.5 4h-318q-2 0 -3 -4t1 -4h90q7 0 7 -2l66 -315h-168q-2 0 -2.5 -4t1.5 -4h170l9 -46l-25 -77h-195q-2 0 -2.5 -4t1.5 -4h194l-73 -232
q-2 -3 -8 -3h-90q-2 0 -3 -4t1 -4h302q2 0 3 4t-1 4h-89q-6 0 -6 3l74 232h194q2 0 2.5 4t-1.5 4h-194l25 75l39 48h171q2 0 2.5 4t-1.5 4h-166l218 277q11 14 18.5 22t12 12t7.5 5t5 1h77q2 0 3 4t-1 4z" />
    <glyph glyph-name="section" unicode="&#xa7;" horiz-adv-x="551" 
d="M594 613q0 25 -10.5 48.5t-30 41.5t-47 29t-62.5 11q-50 0 -94 -18.5t-77 -49.5t-52 -72t-19 -86q0 -29 6 -52t17 -46q-37 -8 -68 -26.5t-53.5 -45.5t-35 -60.5t-12.5 -72.5q0 -42 14 -75.5t35 -61.5t45 -53.5t45 -51.5t35 -54.5t14 -62.5q0 -78 -37.5 -121t-125.5 -43
q-36 0 -66 10.5t-52.5 27.5t-35 39t-12.5 45q0 20 9.5 30.5t26.5 10.5q10 0 17 -2.5t12 -5t11 -5t15 -2.5q15 0 25.5 11t10.5 34q0 21 -15 34t-35 13q-39 0 -63.5 -30t-24.5 -84q0 -25 13 -49t36.5 -43t56.5 -30.5t72 -11.5q63 0 110 20.5t78 54t46.5 76t15.5 85.5
q0 26 -4.5 47t-14.5 42q84 18 124.5 75.5t40.5 132.5q0 42 -14.5 77t-35.5 65.5t-46.5 58t-46.5 56t-35.5 58.5t-14.5 65q0 38 13 64.5t35 43t51 24t61 7.5q33 0 58.5 -9.5t43 -25.5t26.5 -36.5t9 -41.5q0 -20 -6.5 -31t-21.5 -11q-9 0 -15 2t-11 5t-10 5t-13 2
q-14 0 -23.5 -10.5t-9.5 -31.5q0 -18 12 -29t30 -11q34 0 57 25t23 76zM389 156q0 -49 -18 -86t-63 -53q-20 40 -49 73.5t-56 65.5t-46 65.5t-19 73.5q0 45 25 75t67 41q19 -37 46.5 -67t52.5 -59.5t42.5 -60t17.5 -68.5z" />
    <glyph glyph-name="dieresis" unicode="&#xa8;" horiz-adv-x="439" 
d="M442 604q0 17 -10 27t-26 10q-23 0 -40.5 -18.5t-17.5 -43.5q0 -17 10 -28t26 -11q23 0 40.5 19.5t17.5 44.5zM250 604q0 17 -10 27t-26 10q-23 0 -40.5 -18.5t-17.5 -43.5q0 -17 10 -28t26 -11q23 0 40.5 19.5t17.5 44.5z" />
    <glyph glyph-name="copyright" unicode="&#xa9;" horiz-adv-x="840" 
d="M814 355q0 77 -29 144.5t-79 118t-117 79.5t-143 29t-143 -29t-117.5 -79.5t-79.5 -118t-29 -144.5t29 -145t79.5 -118.5t117.5 -79.5t143 -29t143 29t117 79.5t79 118.5t29 145zM806 355q0 -76 -28.5 -142t-77.5 -115.5t-114.5 -78t-139.5 -28.5q-75 0 -140.5 28.5
t-114.5 78t-77.5 115.5t-28.5 142q0 75 28.5 141.5t77.5 115.5t114.5 77.5t140.5 28.5q74 0 139.5 -28.5t114.5 -77.5t77.5 -115.5t28.5 -141.5zM595 139v159q-1 1 -4 1t-3 -1q0 -30 -10.5 -57.5t-28.5 -48.5t-42.5 -34t-52.5 -13q-21 0 -38.5 4.5t-30.5 17.5
q-23 22 -31.5 68.5t-8.5 124.5t8.5 124.5t31.5 67.5q13 14 29 18.5t37 4.5q22 0 44.5 -13t40.5 -33t29.5 -44t11.5 -46q0 -1 2 -1q3 0 4 1v142q-1 1 -4 1q-2 0 -2 -1q-2 -5 -10 -9.5t-21 -4.5q-21 0 -47 8t-48 8q-43 0 -79 -18t-62.5 -49t-41 -71t-14.5 -85t15 -85t42 -71
t63.5 -49t79.5 -18q25 0 55 9.5t52 9.5q13 0 19.5 -6t7.5 -11q0 -2 3 -1.5t4 1.5z" />
    <glyph glyph-name="ordfeminine" unicode="&#xaa;" horiz-adv-x="364" 
d="M411 476l-7 3q-17 -32 -32 -45.5t-31 -13.5q-18 0 -12 24l81 282l-77 -5l-10 -32q-2 20 -15 29.5t-32 9.5q-39 0 -74.5 -20t-62.5 -50.5t-43.5 -68t-16.5 -73.5q0 -22 6 -43.5t17.5 -38t29.5 -27t42 -10.5q25 0 49.5 22t42.5 67q-11 -40 2.5 -64.5t41.5 -24.5
q27 0 54.5 18.5t46.5 60.5zM317 668l-43 -147q-8 -21 -17.5 -41t-21.5 -36t-25.5 -25.5t-28.5 -9.5q-19 0 -25.5 12t-6.5 40q0 23 6 58t17.5 71t27 67.5t33.5 46.5q12 10 22 13t21 3q24 0 33.5 -14.5t7.5 -37.5z" />
    <glyph glyph-name="guillemotleft" unicode="&#xab;" horiz-adv-x="432" 
d="M416 373q-8 -23 -21.5 -47.5t-30 -46.5t-33.5 -40t-31 -28q7 -11 13 -28t8 -39t0.5 -46.5t-8.5 -48.5q-1 -4 -6.5 -3.5t-4.5 4.5q9 29 -0.5 56.5t-26.5 50.5t-35.5 38.5t-27.5 20.5q-6 2 1 4q12 5 40 19t58.5 34t57.5 46t36 55q1 4 6.5 3.5t4.5 -4.5zM253 373
q-8 -23 -21.5 -47.5t-30 -46.5t-33.5 -40t-31 -28q7 -11 13 -28t8 -39t0.5 -46.5t-8.5 -48.5q-1 -4 -6.5 -3.5t-4.5 4.5q9 29 -0.5 56.5t-26.5 50.5t-35.5 38.5t-27.5 20.5q-6 2 1 4q12 5 40 19t58.5 34t57.5 46t36 55q1 4 6.5 3.5t4.5 -4.5z" />
    <glyph glyph-name="registered" unicode="&#xae;" horiz-adv-x="840" 
d="M814 355q0 -77 -29 -145t-79 -118.5t-117 -79.5t-143 -29t-143 29t-117.5 79.5t-79.5 118.5t-29 145t29 144.5t79.5 118t117.5 79.5t143 29t143 -29t117 -79.5t79 -118t29 -144.5zM806 355q0 75 -28.5 141.5t-77.5 115.5t-114.5 77.5t-139.5 28.5q-75 0 -140.5 -28.5
t-114.5 -77.5t-77.5 -115.5t-28.5 -141.5q0 -76 28.5 -142t77.5 -115.5t114.5 -78t140.5 -28.5q74 0 139.5 28.5t114.5 78t77.5 115.5t28.5 142zM686 158q-9 -9 -22 -15t-33 -6q-19 0 -37.5 6t-33.5 20t-24.5 36t-9.5 54v35q0 40 -23 57.5t-65 17.5h-38v-206q0 -2 4 -2h50
q2 0 2 -4t-2 -4h-195q-1 0 -1 4t1 4h53q4 0 4 2v405q0 3 -4 3h-53q-1 0 -1 3q0 4 1 4h189q67 0 106 -29.5t39 -74.5q0 -42 -32 -70.5t-87 -30.5q37 -1 63.5 -10.5t42.5 -25.5t23.5 -36.5t7.5 -42.5v-54q0 -23 9 -37t26 -14q12 0 21.5 5.5t15.5 11.5q1 1 2.5 -2t0.5 -4z
M509 466q0 56 -17 77.5t-59 21.5h-29q-4 0 -4 -3v-192h38q22 0 35.5 4.5t21.5 15t11 29t3 47.5z" />
    <glyph glyph-name="macron" unicode="&#x2c9;" horiz-adv-x="400" 
d="M455 595q2 2 2 7q0 6 -2 8h-320q-2 -2 -2 -8q0 -5 2 -7h320z" />
    <glyph glyph-name="macron" unicode="&#xaf;" horiz-adv-x="400" 
d="M455 595q2 2 2 7q0 6 -2 8h-320q-2 -2 -2 -8q0 -5 2 -7h320z" />
    <glyph glyph-name="degree" unicode="&#xb0;" horiz-adv-x="283" 
d="M323 656q0 26 -17.5 42.5t-41.5 16.5q-18 0 -35 -8t-30.5 -21t-21.5 -30t-8 -36q0 -27 17.5 -43t41.5 -16q18 0 35 8t30.5 21t21.5 30t8 36zM314 655q0 -17 -7 -32.5t-19 -27.5t-27 -19.5t-31 -7.5q-22 0 -37 14.5t-15 37.5q0 17 7 33t19 28t27 19t31 7q22 0 37 -14.5
t15 -37.5z" />
    <glyph glyph-name="acute" unicode="&#xb4;" horiz-adv-x="354" 
d="M396 674q0 17 -10 27t-27 10q-21 0 -40.5 -25.5t-46.5 -58.5t-68 -64.5t-106 -44.5q-2 0 -2 -4t2 -4q75 13 131 34t93 44.5t55.5 46t18.5 39.5z" />
    <glyph glyph-name="paragraph" unicode="&#xb6;" horiz-adv-x="649" 
d="M767 708h-231q-54 0 -108.5 -16.5t-105 -46t-95 -70t-77.5 -89t-52 -103t-19 -111.5q0 -59 20.5 -109t56 -86t82.5 -56.5t101 -20.5h206q2 0 3 4t-1 4h-88q-6 0 -5 4l216 685q1 3 8 3h87q2 0 3 4t-1 4zM661 696l-216 -685q-2 -3 -8 -3h-76q-7 0 -5 3l217 685q0 4 7 4h76
q6 0 5 -4z" />
    <glyph glyph-name="periodcentered" unicode="&#xb7;" horiz-adv-x="181" 
d="M163 368q0 20 -12 33t-30 13q-14 0 -26 -6.5t-22 -17t-15.5 -24t-5.5 -27.5q0 -20 12.5 -32.5t30.5 -12.5q13 0 25.5 6t22 16.5t15 24t5.5 27.5z" />
    <glyph glyph-name="cedilla" unicode="&#xb8;" horiz-adv-x="289" 
d="M107 -143q0 20 -6.5 32t-15 22.5t-15 21t-6.5 27.5q0 11 6 19.5t11 11.5q2 2 -0.5 4t-4.5 1q-5 -4 -12.5 -11t-14.5 -16.5t-12 -21t-5 -23.5q0 -17 8 -30t17.5 -23.5t17.5 -20.5t8 -21q0 -20 -13 -31t-39 -11q-17 0 -27 8t-10 20q0 4 3 7t6.5 6t6.5 7.5t3 10.5
q0 24 -22 24q-13 0 -20 -9.5t-7 -22.5q0 -23 18 -41t52 -18q30 0 51.5 22t21.5 56z" />
    <glyph glyph-name="ordmasculine" unicode="&#xba;" horiz-adv-x="350" 
d="M371 602q0 28 -9 51.5t-24 40t-35.5 25.5t-43.5 9q-34 0 -66 -17.5t-57.5 -46t-41 -65t-15.5 -75.5q0 -28 9 -51.5t24.5 -40t36 -26t43.5 -9.5q33 0 65.5 17.5t57.5 46t40.5 65.5t15.5 76zM305 661q0 -15 -5 -44.5t-12.5 -62t-16.5 -61.5t-16 -43q-13 -23 -28.5 -34
t-38.5 -11q-26 0 -34.5 17t-8.5 42q0 15 5 45t12.5 62t16.5 61.5t16 43.5q13 23 28.5 33.5t37.5 10.5q28 0 36 -16.5t8 -42.5z" />
    <glyph glyph-name="guillemotright" unicode="&#xbb;" horiz-adv-x="432" 
d="M383 208q4 -2 -1 -4q-12 -5 -40 -19t-58.5 -34t-57.5 -46t-36 -55q-1 -4 -6.5 -3.5t-4.5 4.5q7 24 21 48t30.5 45.5t33.5 39.5t31 29q-8 9 -13.5 27t-8 40t-1 46.5t9.5 48.5q1 4 6.5 3.5t4.5 -4.5q-9 -29 0.5 -57t26.5 -50.5t35.5 -38t27.5 -20.5zM220 208q4 -2 -1 -4
q-12 -5 -40 -19t-58.5 -34t-57.5 -46t-36 -55q-1 -4 -6.5 -3.5t-4.5 4.5q7 24 21 48t30.5 45.5t33.5 39.5t31 29q-8 9 -13.5 27t-8 40t-1 46.5t9.5 48.5q1 4 6.5 3.5t4.5 -4.5q-9 -29 0.5 -57t26.5 -50.5t35.5 -38t27.5 -20.5z" />
    <glyph glyph-name="questiondown" unicode="&#xbf;" horiz-adv-x="470" 
d="M439 340q0 20 -12 32.5t-30 12.5q-14 0 -26 -6t-21.5 -16.5t-15 -24t-5.5 -27.5q0 -20 12 -33t29 -13q28 0 48.5 23t20.5 52zM347 208q2 2 -3 2q-4 0 -4 -2l-57 -180q-8 14 -27 21t-37 7q-50 0 -95 -19t-78.5 -51.5t-53.5 -76t-20 -93.5q0 -35 12 -65.5t33.5 -54
t50.5 -37t63 -13.5q36 0 69.5 13.5t59.5 34.5t41.5 45.5t15.5 47.5t-15 40.5t-39 17.5q-27 0 -40 -12.5t-13 -31.5q0 -10 2.5 -16t5 -11.5t5 -12.5t2.5 -19q0 -87 -95 -87q-38 0 -50 20t-12 51q0 18 8 56.5t19.5 80t23 77.5t18.5 49q17 31 34.5 45.5t48.5 14.5q18 0 37 -8
t24 -27q0 -2 3.5 -1t3.5 3q0 4 2 8z" />
    <glyph glyph-name="Agrave" unicode="&#xc0;" horiz-adv-x="650" 
d="M606 0q2 0 2.5 4t-1.5 4h-91q-7 0 -7 3v712q0 2 -4.5 2.5t-6.5 -2.5l-525 -674q-22 -27 -30 -34t-15 -7h-80q-2 0 -3 -4t1 -4h202q2 0 3 4t-1 4h-89q-6 0 -3 6.5t25 35.5l152 194h241v-233q0 -3 -6 -3h-78q-2 0 -3 -4t1 -4h316zM376 252h-235l235 301v-301zM548 760
q-36 9 -58 28t-36 42t-21.5 47t-14 44t-14 33t-20.5 13q-19 0 -31 -13t-12 -33q0 -17 7 -39.5t29 -46t62.5 -45.5t106.5 -38q2 -1 3 3t-1 5z" />
    <glyph glyph-name="Aacute" unicode="&#xc1;" horiz-adv-x="650" 
d="M606 0q2 0 2.5 4t-1.5 4h-91q-7 0 -7 3v712q0 2 -4.5 2.5t-6.5 -2.5l-525 -674q-22 -27 -30 -34t-15 -7h-80q-2 0 -3 -4t1 -4h202q2 0 3 4t-1 4h-89q-6 0 -3 6.5t25 35.5l152 194h241v-233q0 -3 -6 -3h-78q-2 0 -3 -4t1 -4h316zM376 252h-235l235 301v-301zM762 929
q0 17 -10 27t-27 10q-21 0 -40.5 -25.5t-46.5 -58.5t-68 -64.5t-106 -44.5q-2 0 -2 -4t2 -4q75 13 131 34t93 44.5t55.5 46t18.5 39.5z" />
    <glyph glyph-name="Acircumflex" unicode="&#xc2;" horiz-adv-x="650" 
d="M606 0q2 0 2.5 4t-1.5 4h-91q-7 0 -7 3v712q0 2 -4.5 2.5t-6.5 -2.5l-525 -674q-22 -27 -30 -34t-15 -7h-80q-2 0 -3 -4t1 -4h202q2 0 3 4t-1 4h-89q-6 0 -3 6.5t25 35.5l152 194h241v-233q0 -3 -6 -3h-78q-2 0 -3 -4t1 -4h316zM376 252h-235l235 301v-301zM644 777
q-8 19 -16.5 43.5t-15.5 50t-12 51t-8 47.5q0 2 -3 2.5t-5 -1.5q-17 -18 -37.5 -41t-43.5 -48.5t-49 -52t-54 -50.5q-2 -2 1 -4.5t5 -0.5q36 31 69.5 61.5t60.5 57.5q8 -38 20 -69t24 -53z" />
    <glyph glyph-name="Atilde" unicode="&#xc3;" horiz-adv-x="650" 
d="M606 0q2 0 2.5 4t-1.5 4h-91q-7 0 -7 3v712q0 2 -4.5 2.5t-6.5 -2.5l-525 -674q-22 -27 -30 -34t-15 -7h-80q-2 0 -3 -4t1 -4h202q2 0 3 4t-1 4h-89q-6 0 -3 6.5t25 35.5l152 194h241v-233q0 -3 -6 -3h-78q-2 0 -3 -4t1 -4h316zM376 252h-235l235 301v-301zM726 916
q0 2 -5 2q-4 0 -4 -2q0 -24 -14.5 -45t-48.5 -21q-17 0 -36 9t-40.5 20.5t-45 20.5t-48.5 9q-24 0 -47 -9t-40.5 -24.5t-28 -36.5t-10.5 -45q0 -2 4 -2t4 2q0 25 15 46t49 21q17 0 36 -9.5t40 -20.5t44.5 -20.5t48.5 -9.5q24 0 47 9t41 25t28.5 36.5t10.5 44.5z" />
    <glyph glyph-name="Adieresis" unicode="&#xc4;" horiz-adv-x="650" 
d="M606 0q2 0 2.5 4t-1.5 4h-91q-7 0 -7 3v712q0 2 -4.5 2.5t-6.5 -2.5l-525 -674q-22 -27 -30 -34t-15 -7h-80q-2 0 -3 -4t1 -4h202q2 0 3 4t-1 4h-89q-6 0 -3 6.5t25 35.5l152 194h241v-233q0 -3 -6 -3h-78q-2 0 -3 -4t1 -4h316zM376 252h-235l235 301v-301zM665 859
q0 17 -10 27t-26 10q-23 0 -40.5 -18.5t-17.5 -43.5q0 -17 10 -28t26 -11q23 0 40.5 19.5t17.5 44.5zM473 859q0 17 -10 27t-26 10q-23 0 -40.5 -18.5t-17.5 -43.5q0 -17 10 -28t26 -11q23 0 40.5 19.5t17.5 44.5z" />
    <glyph glyph-name="Aring" unicode="&#xc5;" horiz-adv-x="656" 
d="M606 0q2 0 2.5 4t-1.5 4h-91q-7 0 -7 3v707q17 1 33 9.5t28.5 21.5t20 29.5t7.5 34.5q0 26 -17.5 42.5t-41.5 16.5q-18 0 -35 -8t-30.5 -21t-21.5 -30.5t-8 -36.5q0 -24 14.5 -40t35.5 -18l-521 -669q-22 -27 -30 -34t-15 -7h-80q-2 0 -3 -4t1 -4h202q2 0 3 4t-1 4h-89
q-6 0 -3 6.5t25 35.5l152 194h241v-233q0 -3 -6 -3h-78q-2 0 -3 -4t1 -4h316zM589 812q0 -17 -7 -32.5t-19 -27.5t-27 -19.5t-31 -7.5q-22 0 -37 14t-15 38q0 17 7 32.5t19 27.5t27 19.5t31 7.5q22 0 37 -14.5t15 -37.5zM376 252h-235l235 301v-301z" />
    <glyph glyph-name="AE" unicode="&#xc6;" horiz-adv-x="915" 
d="M947 705q0 3 -2 3h-546q-2 0 -3.5 -4t0.5 -4h106l-529 -651q-22 -26 -31 -33.5t-19 -7.5h-73q-2 0 -3 -4t1 -4h203q2 0 3 4t-1 4h-93q-5 0 -1.5 7.5t24.5 34.5l182 223h209l-82 -262q-2 -3 -8 -3h-89q-2 0 -3.5 -4t0.5 -4h583q4 0 4 3l71 225q1 2 -3 2t-5 -2
q-12 -38 -39.5 -77.5t-68.5 -71t-96.5 -51.5t-122.5 -20h-79q-6 0 -6 3l114 359h24q31 0 52 -13t33 -33.5t13.5 -46.5t-6.5 -51q-1 -2 3 -2t5 2l86 274q1 2 -3 2t-5 -2q-8 -26 -24.5 -48.5t-40 -39t-51.5 -26t-59 -9.5h-24l100 320q1 3 8 3h90q48 0 79.5 -18t47.5 -47
t18 -65t-9 -71q-1 -2 3 -2t5 2zM508 695l-131 -414h-206z" />
    <glyph glyph-name="Ccedilla" unicode="&#xc7;" horiz-adv-x="635" 
d="M694 723q1 1 -3 1.5t-5 -1.5q-7 -12 -21.5 -22.5t-41.5 -10.5q-17 0 -35.5 5.5t-38 12.5t-40 12.5t-40.5 5.5q-53 0 -105 -18.5t-98.5 -51.5t-86.5 -78.5t-68.5 -98.5t-45 -111.5t-16.5 -118.5q0 -68 21 -119.5t57 -85t83.5 -49t99.5 -12.5q-11 -10 -23.5 -27.5
t-12.5 -38.5q0 -17 8 -29.5t17.5 -23.5t17.5 -20.5t8 -20.5q0 -20 -13 -31t-39 -11q-17 0 -27 8t-10 20q0 4 3 7t6.5 6t6.5 7.5t3 10.5q0 24 -22 24q-12 0 -19.5 -9.5t-7.5 -23.5q0 -23 18 -40.5t52 -17.5q31 0 52.5 22t21.5 55q0 20 -6.5 32.5t-15 22.5t-15 21t-6.5 28
q0 11 5.5 18.5t10.5 10.5q75 8 140.5 55t122.5 128q1 1 -2 4t-4 1q-63 -89 -134 -135t-150 -46q-41 0 -67.5 10t-42 27.5t-21.5 40t-6 46.5q0 30 8 74t21 93.5t29 101.5t32.5 98t31.5 81.5t25 53.5q17 27 32.5 46.5t33.5 32t41 18t56 5.5q40 0 72 -22t51.5 -55.5t25.5 -73.5
t-6 -77q-1 -2 3 -2q5 0 6 2z" />
    <glyph glyph-name="Egrave" unicode="&#xc8;" horiz-adv-x="666" 
d="M699 706q1 3 -2 3h-529q-2 0 -3 -4t1 -4h89q6 0 6 -3l-217 -687q-2 -3 -8 -3h-89q-2 0 -3.5 -4t0.5 -4h584q3 0 3 3l72 225q0 2 -4 2t-5 -2q-12 -38 -39.5 -77.5t-68.5 -71t-96 -51.5t-122 -20h-80q-6 0 -6 3l114 359h24q31 0 52 -13t33 -33.5t13.5 -46.5t-6.5 -52
q-1 -2 3 -2t5 2l86 275q1 2 -3 2t-5 -2q-8 -26 -24.5 -48.5t-40 -39t-51.5 -26t-59 -9.5h-24l100 321q1 3 8 3h90q48 0 79.5 -18.5t47.5 -47.5t18 -64.5t-9 -70.5q-1 -2 3 -2q5 0 6 2zM572 760q-36 9 -58 28t-36 42t-21.5 47t-14 44t-13.5 33t-21 13q-19 0 -31 -13t-12 -33
q0 -17 7 -39.5t29 -46t62.5 -45.5t106.5 -38q2 -1 3 3t-1 5z" />
    <glyph glyph-name="Eacute" unicode="&#xc9;" horiz-adv-x="666" 
d="M699 706q1 3 -2 3h-529q-2 0 -3 -4t1 -4h89q6 0 6 -3l-217 -687q-2 -3 -8 -3h-89q-2 0 -3.5 -4t0.5 -4h584q3 0 3 3l72 225q0 2 -4 2t-5 -2q-12 -38 -39.5 -77.5t-68.5 -71t-96 -51.5t-122 -20h-80q-6 0 -6 3l114 359h24q31 0 52 -13t33 -33.5t13.5 -46.5t-6.5 -52
q-1 -2 3 -2t5 2l86 275q1 2 -3 2t-5 -2q-8 -26 -24.5 -48.5t-40 -39t-51.5 -26t-59 -9.5h-24l100 321q1 3 8 3h90q48 0 79.5 -18.5t47.5 -47.5t18 -64.5t-9 -70.5q-1 -2 3 -2q5 0 6 2zM678 929q0 17 -10 27t-27 10q-21 0 -40.5 -25.5t-46.5 -58.5t-68 -64.5t-106 -44.5
q-2 0 -2 -4t2 -4q75 13 131 34t93 44.5t55.5 46t18.5 39.5z" />
    <glyph glyph-name="Ecircumflex" unicode="&#xca;" horiz-adv-x="666" 
d="M699 706q1 3 -2 3h-529q-2 0 -3 -4t1 -4h89q6 0 6 -3l-217 -687q-2 -3 -8 -3h-89q-2 0 -3.5 -4t0.5 -4h584q3 0 3 3l72 225q0 2 -4 2t-5 -2q-12 -38 -39.5 -77.5t-68.5 -71t-96 -51.5t-122 -20h-80q-6 0 -6 3l114 359h24q31 0 52 -13t33 -33.5t13.5 -46.5t-6.5 -52
q-1 -2 3 -2t5 2l86 275q1 2 -3 2t-5 -2q-8 -26 -24.5 -48.5t-40 -39t-51.5 -26t-59 -9.5h-24l100 321q1 3 8 3h90q48 0 79.5 -18.5t47.5 -47.5t18 -64.5t-9 -70.5q-1 -2 3 -2q5 0 6 2zM617 777q-8 19 -16.5 43.5t-15.5 50t-12 51t-8 47.5q0 2 -3 2.5t-5 -1.5
q-17 -18 -37.5 -41t-43.5 -48.5t-49 -52t-54 -50.5q-2 -2 1 -4.5t5 -0.5q36 31 69.5 61.5t60.5 57.5q8 -38 20 -69t24 -53z" />
    <glyph glyph-name="Edieresis" unicode="&#xcb;" horiz-adv-x="666" 
d="M699 706q1 3 -2 3h-529q-2 0 -3 -4t1 -4h89q6 0 6 -3l-217 -687q-2 -3 -8 -3h-89q-2 0 -3.5 -4t0.5 -4h584q3 0 3 3l72 225q0 2 -4 2t-5 -2q-12 -38 -39.5 -77.5t-68.5 -71t-96 -51.5t-122 -20h-80q-6 0 -6 3l114 359h24q31 0 52 -13t33 -33.5t13.5 -46.5t-6.5 -52
q-1 -2 3 -2t5 2l86 275q1 2 -3 2t-5 -2q-8 -26 -24.5 -48.5t-40 -39t-51.5 -26t-59 -9.5h-24l100 321q1 3 8 3h90q48 0 79.5 -18.5t47.5 -47.5t18 -64.5t-9 -70.5q-1 -2 3 -2q5 0 6 2zM645 859q0 17 -10 27t-26 10q-23 0 -40.5 -18.5t-17.5 -43.5q0 -17 10 -28t26 -11
q23 0 40.5 19.5t17.5 44.5zM453 859q0 17 -10 27t-26 10q-23 0 -40.5 -18.5t-17.5 -43.5q0 -17 10 -28t26 -11q23 0 40.5 19.5t17.5 44.5z" />
    <glyph glyph-name="Igrave" unicode="&#xcc;" horiz-adv-x="407" 
d="M499 709h-331q-2 0 -3 -4t1 -4h90q7 0 5 -4l-217 -686q0 -3 -7 -3h-90q-2 0 -3 -4t1 -4h331q2 0 3 4t-1 4h-90q-7 0 -5 3l217 686q0 4 7 4h90q2 0 3 4t-1 4zM443 760q-36 9 -58 28t-36 42t-21.5 47t-14 44t-13.5 33t-21 13q-19 0 -31 -13t-12 -33q0 -17 7 -39.5t29 -46
t62.5 -45.5t106.5 -38q2 -1 3 3t-1 5z" />
    <glyph glyph-name="Iacute" unicode="&#xcd;" horiz-adv-x="407" 
d="M499 709h-331q-2 0 -3 -4t1 -4h90q7 0 5 -4l-217 -686q0 -3 -7 -3h-90q-2 0 -3 -4t1 -4h331q2 0 3 4t-1 4h-90q-7 0 -5 3l217 686q0 4 7 4h90q2 0 3 4t-1 4zM564 929q0 17 -10 27t-27 10q-21 0 -40.5 -25.5t-46.5 -58.5t-68 -64.5t-106 -44.5q-2 0 -2 -4t2 -4
q75 13 131 34t93 44.5t55.5 46t18.5 39.5z" />
    <glyph glyph-name="Icircumflex" unicode="&#xce;" horiz-adv-x="407" 
d="M499 709h-331q-2 0 -3 -4t1 -4h90q7 0 5 -4l-217 -686q0 -3 -7 -3h-90q-2 0 -3 -4t1 -4h331q2 0 3 4t-1 4h-90q-7 0 -5 3l217 686q0 4 7 4h90q2 0 3 4t-1 4zM491 777q-8 19 -16.5 43.5t-15.5 50t-12 51t-8 47.5q0 2 -3 2.5t-5 -1.5q-17 -18 -37.5 -41t-43.5 -48.5
t-49 -52t-54 -50.5q-2 -2 1 -4.5t5 -0.5q36 31 69.5 61.5t60.5 57.5q8 -38 20 -69t24 -53z" />
    <glyph glyph-name="Idieresis" unicode="&#xcf;" horiz-adv-x="407" 
d="M499 709h-331q-2 0 -3 -4t1 -4h90q7 0 5 -4l-217 -686q0 -3 -7 -3h-90q-2 0 -3 -4t1 -4h331q2 0 3 4t-1 4h-90q-7 0 -5 3l217 686q0 4 7 4h90q2 0 3 4t-1 4zM512 859q0 17 -10 27t-26 10q-23 0 -40.5 -18.5t-17.5 -43.5q0 -17 10 -28t26 -11q23 0 40.5 19.5t17.5 44.5z
M320 859q0 17 -10 27t-26 10q-23 0 -40.5 -18.5t-17.5 -43.5q0 -17 10 -28t26 -11q23 0 40.5 19.5t17.5 44.5z" />
    <glyph glyph-name="Ntilde" unicode="&#xd1;" horiz-adv-x="751" 
d="M840 709h-202q-2 0 -3 -4t1 -4h90q6 0 5 -3l-156 -498l-168 491q-4 11 -8 14.5t-9 3.5h-218q-2 0 -3 -4t1 -4h85q6 0 6 -3l-217 -687q-2 -3 -8 -3h-89q-2 0 -3.5 -4t0.5 -4h201q2 0 3.5 4t-0.5 4h-90q-7 0 -5 3l210 670l243 -695q2 -3 6 -2.5t5 2.5l222 712q1 3 8 3h89
q2 0 4 4t0 4zM720 916q0 2 -5 2q-4 0 -4 -2q0 -24 -14.5 -45t-48.5 -21q-17 0 -36 9t-40.5 20.5t-45 20.5t-48.5 9q-24 0 -47 -9t-40.5 -24.5t-28 -36.5t-10.5 -45q0 -2 4 -2t4 2q0 25 15 46t49 21q17 0 36 -9.5t40 -20.5t44.5 -20.5t48.5 -9.5q24 0 47 9t41 25t28.5 36.5
t10.5 44.5z" />
    <glyph glyph-name="Ograve" unicode="&#xd2;" 
d="M716 459q0 62 -18.5 111.5t-51 84t-77.5 53t-99 18.5t-105.5 -18.5t-98.5 -51.5t-86.5 -78.5t-68.5 -98.5t-45.5 -111.5t-16.5 -118.5q0 -62 18.5 -111.5t51 -84t78 -52.5t99.5 -18q80 0 155.5 40.5t134.5 107.5t94.5 152.5t35.5 175.5zM606 594q0 -30 -8 -73.5
t-20.5 -93.5t-28.5 -102t-32.5 -98t-31.5 -82t-26 -53q-17 -27 -32.5 -46.5t-33.5 -32t-41 -18t-56 -5.5q-41 0 -67.5 10t-42 27.5t-21.5 40t-6 46.5q0 30 8 74t21 93.5t29 101.5t32.5 98t31.5 81.5t25 53.5q17 27 32.5 46.5t33.5 32t41.5 18t56.5 5.5q40 0 66.5 -10t42 -27
t21.5 -39.5t6 -47.5zM548 760q-36 9 -58 28t-36 42t-21.5 47t-14 44t-14 33t-20.5 13q-19 0 -31 -13t-12 -33q0 -17 7 -39.5t29 -46t62.5 -45.5t106.5 -38q2 -1 3 3t-1 5z" />
    <glyph glyph-name="Oacute" unicode="&#xd3;" 
d="M716 459q0 62 -18.5 111.5t-51 84t-77.5 53t-99 18.5t-105.5 -18.5t-98.5 -51.5t-86.5 -78.5t-68.5 -98.5t-45.5 -111.5t-16.5 -118.5q0 -62 18.5 -111.5t51 -84t78 -52.5t99.5 -18q80 0 155.5 40.5t134.5 107.5t94.5 152.5t35.5 175.5zM606 594q0 -30 -8 -73.5
t-20.5 -93.5t-28.5 -102t-32.5 -98t-31.5 -82t-26 -53q-17 -27 -32.5 -46.5t-33.5 -32t-41 -18t-56 -5.5q-41 0 -67.5 10t-42 27.5t-21.5 40t-6 46.5q0 30 8 74t21 93.5t29 101.5t32.5 98t31.5 81.5t25 53.5q17 27 32.5 46.5t33.5 32t41.5 18t56.5 5.5q40 0 66.5 -10t42 -27
t21.5 -39.5t6 -47.5zM711 929q0 17 -10 27t-27 10q-21 0 -40.5 -25.5t-46.5 -58.5t-68 -64.5t-106 -44.5q-2 0 -2 -4t2 -4q75 13 131 34t93 44.5t55.5 46t18.5 39.5z" />
    <glyph glyph-name="Ocircumflex" unicode="&#xd4;" 
d="M716 459q0 62 -18.5 111.5t-51 84t-77.5 53t-99 18.5t-105.5 -18.5t-98.5 -51.5t-86.5 -78.5t-68.5 -98.5t-45.5 -111.5t-16.5 -118.5q0 -62 18.5 -111.5t51 -84t78 -52.5t99.5 -18q80 0 155.5 40.5t134.5 107.5t94.5 152.5t35.5 175.5zM606 594q0 -30 -8 -73.5
t-20.5 -93.5t-28.5 -102t-32.5 -98t-31.5 -82t-26 -53q-17 -27 -32.5 -46.5t-33.5 -32t-41 -18t-56 -5.5q-41 0 -67.5 10t-42 27.5t-21.5 40t-6 46.5q0 30 8 74t21 93.5t29 101.5t32.5 98t31.5 81.5t25 53.5q17 27 32.5 46.5t33.5 32t41.5 18t56.5 5.5q40 0 66.5 -10t42 -27
t21.5 -39.5t6 -47.5zM638 777q-8 19 -16.5 43.5t-15.5 50t-12 51t-8 47.5q0 2 -3 2.5t-5 -1.5q-17 -18 -37.5 -41t-43.5 -48.5t-49 -52t-54 -50.5q-2 -2 1 -4.5t5 -0.5q36 31 69.5 61.5t60.5 57.5q8 -38 20 -69t24 -53z" />
    <glyph glyph-name="Otilde" unicode="&#xd5;" 
d="M716 459q0 62 -18.5 111.5t-51 84t-77.5 53t-99 18.5t-105.5 -18.5t-98.5 -51.5t-86.5 -78.5t-68.5 -98.5t-45.5 -111.5t-16.5 -118.5q0 -62 18.5 -111.5t51 -84t78 -52.5t99.5 -18q80 0 155.5 40.5t134.5 107.5t94.5 152.5t35.5 175.5zM606 594q0 -30 -8 -73.5
t-20.5 -93.5t-28.5 -102t-32.5 -98t-31.5 -82t-26 -53q-17 -27 -32.5 -46.5t-33.5 -32t-41 -18t-56 -5.5q-41 0 -67.5 10t-42 27.5t-21.5 40t-6 46.5q0 30 8 74t21 93.5t29 101.5t32.5 98t31.5 81.5t25 53.5q17 27 32.5 46.5t33.5 32t41.5 18t56.5 5.5q40 0 66.5 -10t42 -27
t21.5 -39.5t6 -47.5zM702 916q0 2 -5 2q-4 0 -4 -2q0 -24 -14.5 -45t-48.5 -21q-17 0 -36 9t-40.5 20.5t-45 20.5t-48.5 9q-24 0 -47 -9t-40.5 -24.5t-28 -36.5t-10.5 -45q0 -2 4 -2t4 2q0 25 15 46t49 21q17 0 36 -9.5t40 -20.5t44.5 -20.5t48.5 -9.5q24 0 47 9t41 25
t28.5 36.5t10.5 44.5z" />
    <glyph glyph-name="Odieresis" unicode="&#xd6;" 
d="M716 459q0 62 -18.5 111.5t-51 84t-77.5 53t-99 18.5t-105.5 -18.5t-98.5 -51.5t-86.5 -78.5t-68.5 -98.5t-45.5 -111.5t-16.5 -118.5q0 -62 18.5 -111.5t51 -84t78 -52.5t99.5 -18q80 0 155.5 40.5t134.5 107.5t94.5 152.5t35.5 175.5zM606 594q0 -30 -8 -73.5
t-20.5 -93.5t-28.5 -102t-32.5 -98t-31.5 -82t-26 -53q-17 -27 -32.5 -46.5t-33.5 -32t-41 -18t-56 -5.5q-41 0 -67.5 10t-42 27.5t-21.5 40t-6 46.5q0 30 8 74t21 93.5t29 101.5t32.5 98t31.5 81.5t25 53.5q17 27 32.5 46.5t33.5 32t41.5 18t56.5 5.5q40 0 66.5 -10t42 -27
t21.5 -39.5t6 -47.5zM661 859q0 17 -10 27t-26 10q-23 0 -40.5 -18.5t-17.5 -43.5q0 -17 10 -28t26 -11q23 0 40.5 19.5t17.5 44.5zM469 859q0 17 -10 27t-26 10q-23 0 -40.5 -18.5t-17.5 -43.5q0 -17 10 -28t26 -11q23 0 40.5 19.5t17.5 44.5z" />
    <glyph glyph-name="Oslash" unicode="&#xd8;" 
d="M716 459q0 63 -18.5 112t-51.5 84l10.5 11.5t22.5 26t22 26l10 11.5q1 1 -2 3.5t-4 0.5l-65 -74q-32 32 -75.5 49t-94.5 17q-54 0 -105.5 -18.5t-98.5 -51.5t-86.5 -78.5t-68.5 -98.5t-45.5 -111.5t-16.5 -118.5q0 -63 18 -111.5t50 -83.5l-10 -11.5t-22 -25.5t-22 -25.5
l-10 -11.5q-1 -2 2 -4.5t5 -0.5q1 2 10 12t24.5 28t28.5 34q68 -66 173 -66q80 0 155.5 40.5t134.5 107.5t94.5 152.5t35.5 175.5zM604 618l-445 -514v10q0 30 8 74t21 93.5t29 101.5t32.5 98t31.5 81.5t25 53.5q17 27 32.5 46.5t33.5 32t41.5 18t56.5 5.5q36 0 60.5 -8
t40 -21.5t23.5 -31.5t10 -39zM606 594q0 -30 -8 -73.5t-20.5 -93.5t-28.5 -102t-32.5 -98t-31.5 -82t-26 -53q-17 -27 -32.5 -46.5t-33.5 -32t-41 -18t-56 -5.5q-36 0 -61 8t-41 22t-24 32.5t-10 39.5l25 28.5t64 73.5t87 100.5t95 109.5t87 100.5t63.5 73.5t24.5 29v-13z
" />
    <glyph glyph-name="Ugrave" unicode="&#xd9;" horiz-adv-x="756" 
d="M851 709h-197q-2 0 -3.5 -4t0.5 -4h87q6 0 6 -3l-153 -487q-15 -48 -37.5 -87t-54 -66.5t-73 -42t-94.5 -14.5q-60 0 -85.5 29t-25.5 79q0 57 26 135l142 454q1 3 8 3h90q2 0 3 4t-1 4h-331q-2 0 -3 -4t1 -4h90q6 0 5 -3l-137 -435q-18 -54 -18 -103q0 -78 50 -127.5
t155 -49.5q61 0 109.5 15.5t84.5 45t61.5 71t42.5 92.5l154 491q1 3 8 3h87q2 0 3.5 4t-0.5 4zM620 760q-36 9 -58 28t-36 42t-21.5 47t-14 44t-14 33t-20.5 13q-19 0 -31 -13t-12 -33q0 -17 7 -39.5t29 -46t62.5 -45.5t106.5 -38q2 -1 3 3t-1 5z" />
    <glyph glyph-name="Uacute" unicode="&#xda;" horiz-adv-x="756" 
d="M851 709h-197q-2 0 -3.5 -4t0.5 -4h87q6 0 6 -3l-153 -487q-15 -48 -37.5 -87t-54 -66.5t-73 -42t-94.5 -14.5q-60 0 -85.5 29t-25.5 79q0 57 26 135l142 454q1 3 8 3h90q2 0 3 4t-1 4h-331q-2 0 -3 -4t1 -4h90q6 0 5 -3l-137 -435q-18 -54 -18 -103q0 -78 50 -127.5
t155 -49.5q61 0 109.5 15.5t84.5 45t61.5 71t42.5 92.5l154 491q1 3 8 3h87q2 0 3.5 4t-0.5 4zM768 929q0 17 -10 27t-27 10q-21 0 -40.5 -25.5t-46.5 -58.5t-68 -64.5t-106 -44.5q-2 0 -2 -4t2 -4q75 13 131 34t93 44.5t55.5 46t18.5 39.5z" />
    <glyph glyph-name="Ucircumflex" unicode="&#xdb;" horiz-adv-x="756" 
d="M851 709h-197q-2 0 -3.5 -4t0.5 -4h87q6 0 6 -3l-153 -487q-15 -48 -37.5 -87t-54 -66.5t-73 -42t-94.5 -14.5q-60 0 -85.5 29t-25.5 79q0 57 26 135l142 454q1 3 8 3h90q2 0 3 4t-1 4h-331q-2 0 -3 -4t1 -4h90q6 0 5 -3l-137 -435q-18 -54 -18 -103q0 -78 50 -127.5
t155 -49.5q61 0 109.5 15.5t84.5 45t61.5 71t42.5 92.5l154 491q1 3 8 3h87q2 0 3.5 4t-0.5 4zM701 777q-8 19 -16.5 43.5t-15.5 50t-12 51t-8 47.5q0 2 -3 2.5t-5 -1.5q-17 -18 -37.5 -41t-43.5 -48.5t-49 -52t-54 -50.5q-2 -2 1 -4.5t5 -0.5q36 31 69.5 61.5t60.5 57.5
q8 -38 20 -69t24 -53z" />
    <glyph glyph-name="Udieresis" unicode="&#xdc;" horiz-adv-x="756" 
d="M851 709h-197q-2 0 -3.5 -4t0.5 -4h87q6 0 6 -3l-153 -487q-15 -48 -37.5 -87t-54 -66.5t-73 -42t-94.5 -14.5q-60 0 -85.5 29t-25.5 79q0 57 26 135l142 454q1 3 8 3h90q2 0 3 4t-1 4h-331q-2 0 -3 -4t1 -4h90q6 0 5 -3l-137 -435q-18 -54 -18 -103q0 -78 50 -127.5
t155 -49.5q61 0 109.5 15.5t84.5 45t61.5 71t42.5 92.5l154 491q1 3 8 3h87q2 0 3.5 4t-0.5 4zM724 859q0 17 -10 27t-26 10q-23 0 -40.5 -18.5t-17.5 -43.5q0 -17 10 -28t26 -11q23 0 40.5 19.5t17.5 44.5zM532 859q0 17 -10 27t-26 10q-23 0 -40.5 -18.5t-17.5 -43.5
q0 -17 10 -28t26 -11q23 0 40.5 19.5t17.5 44.5z" />
    <glyph glyph-name="Yacute" unicode="&#xdd;" horiz-adv-x="660" 
d="M806 709h-202q-2 0 -3 -4t1 -4h96q3 0 3.5 -1t-2 -5.5t-8.5 -12.5t-18 -23l-253 -321l-75 360q-3 3 4 3h109q2 0 3 4t-1 4h-353q-2 0 -3 -4t1 -4h93q4 0 7 -3l78 -370l-101 -317q0 -3 -7 -3h-90q-2 0 -3.5 -4t0.5 -4h331q2 0 3.5 4t-0.5 4h-90q-7 0 -5 3l99 315l263 334
q11 14 18.5 22.5t12 12.5t7.5 5t5 1h78q2 0 3 4t-1 4zM712 948q0 17 -10 27t-27 10q-21 0 -40.5 -25.5t-46.5 -58.5t-68 -64.5t-106 -44.5q-2 0 -2 -4t2 -4q75 13 131 34t93 44.5t55.5 46t18.5 39.5z" />
    <glyph glyph-name="germandbls" unicode="&#xdf;" horiz-adv-x="530" 
d="M529 632q0 54 -35 82.5t-99 28.5q-38 0 -75.5 -18.5t-71 -51.5t-61 -79.5t-45.5 -102.5q-9 -26 -21 -71t-26 -100t-29 -115t-29.5 -116.5t-27.5 -105t-23 -79.5q-19 -60 -33 -100.5t-27 -65t-26.5 -35.5t-32.5 -11q-16 0 -24.5 9.5t-8.5 26.5q0 14 10 29.5t10 33.5
q0 17 -10.5 27.5t-35.5 10.5q-21 0 -36 -15.5t-15 -42.5q0 -20 9 -36.5t24 -27.5t34.5 -17t41.5 -6q40 0 73 19.5t61 54t50.5 82t41.5 103.5q9 27 22 72.5t28 99.5t30 112.5t29.5 112t27 98t20.5 70.5q21 69 40.5 113t37 69.5t33.5 35t31 9.5q35 0 45.5 -17.5t10.5 -45.5
q0 -34 -10 -74.5t-30 -79t-49.5 -70t-69.5 -47.5q-2 -1 -1 -5t3 -2q22 11 40 11q34 0 52 -16t18 -58q0 -13 -3.5 -35.5t-9.5 -49.5t-13.5 -55.5t-15.5 -54.5t-15.5 -46.5t-13.5 -30.5q-18 -32 -33.5 -46t-35.5 -14q-25 0 -25 28q0 10 7.5 22t7.5 26q0 12 -7.5 21t-26.5 9
q-17 0 -29 -12.5t-12 -35.5q0 -31 23.5 -48.5t58.5 -17.5q40 0 80.5 21.5t73 57.5t53 83.5t20.5 100.5q0 36 -11 65.5t-29 50t-41.5 32t-48.5 11.5h-15t-16 -2q39 14 76 35.5t66 50t46.5 62.5t17.5 73z" />
    <glyph glyph-name="agrave" unicode="&#xe0;" horiz-adv-x="511" 
d="M491 433l-104 -7l-15 -46q-4 28 -24 41t-47 13q-58 0 -109 -26t-89 -67.5t-60 -92t-22 -98.5q0 -30 7 -58.5t22.5 -51t41 -36t61.5 -13.5q38 0 75 32.5t63 94.5q-18 -54 1 -90.5t64 -36.5q15 0 33 6.5t36.5 19t36 32t30.5 45.5l-7 4q-23 -42 -47 -60t-47 -18
q-14 0 -19.5 9t-0.5 22zM365 359l-63 -196q-13 -33 -28 -61.5t-32.5 -50.5t-37 -34.5t-40.5 -12.5q-26 0 -38 16.5t-12 55.5q0 21 4.5 49.5t12.5 60.5t19.5 65t25.5 62.5t30.5 53t34.5 37.5t31 18.5t29 4.5q32 0 49 -18.5t15 -49.5zM422 505q-36 9 -58 28t-36 42t-21.5 47
t-14 44t-13.5 33t-21 13q-19 0 -31 -13t-12 -33q0 -17 7 -39.5t29 -46t62.5 -45.5t106.5 -38q2 -1 3 3t-1 5z" />
    <glyph glyph-name="aacute" unicode="&#xe1;" horiz-adv-x="511" 
d="M491 433l-104 -7l-15 -46q-4 28 -24 41t-47 13q-58 0 -109 -26t-89 -67.5t-60 -92t-22 -98.5q0 -30 7 -58.5t22.5 -51t41 -36t61.5 -13.5q38 0 75 32.5t63 94.5q-18 -54 1 -90.5t64 -36.5q15 0 33 6.5t36.5 19t36 32t30.5 45.5l-7 4q-23 -42 -47 -60t-47 -18
q-14 0 -19.5 9t-0.5 22zM365 359l-63 -196q-13 -33 -28 -61.5t-32.5 -50.5t-37 -34.5t-40.5 -12.5q-26 0 -38 16.5t-12 55.5q0 21 4.5 49.5t12.5 60.5t19.5 65t25.5 62.5t30.5 53t34.5 37.5t31 18.5t29 4.5q32 0 49 -18.5t15 -49.5zM537 674q0 17 -10 27t-27 10
q-21 0 -40.5 -25.5t-46.5 -58.5t-68 -64.5t-106 -44.5q-2 0 -2 -4t2 -4q75 13 131 34t93 44.5t55.5 46t18.5 39.5z" />
    <glyph glyph-name="acircumflex" unicode="&#xe2;" horiz-adv-x="511" 
d="M491 433l-104 -7l-15 -46q-4 28 -24 41t-47 13q-58 0 -109 -26t-89 -67.5t-60 -92t-22 -98.5q0 -30 7 -58.5t22.5 -51t41 -36t61.5 -13.5q38 0 75 32.5t63 94.5q-18 -54 1 -90.5t64 -36.5q15 0 33 6.5t36.5 19t36 32t30.5 45.5l-7 4q-23 -42 -47 -60t-47 -18
q-14 0 -19.5 9t-0.5 22zM365 359l-63 -196q-13 -33 -28 -61.5t-32.5 -50.5t-37 -34.5t-40.5 -12.5q-26 0 -38 16.5t-12 55.5q0 21 4.5 49.5t12.5 60.5t19.5 65t25.5 62.5t30.5 53t34.5 37.5t31 18.5t29 4.5q32 0 49 -18.5t15 -49.5zM473 522q-8 19 -16.5 43.5t-15.5 50
t-12 51t-8 47.5q0 2 -3 2.5t-5 -1.5q-17 -18 -37.5 -41t-43.5 -48.5t-49 -52t-54 -50.5q-2 -2 1 -4.5t5 -0.5q36 31 69.5 61.5t60.5 57.5q8 -38 20 -69t24 -53z" />
    <glyph glyph-name="atilde" unicode="&#xe3;" horiz-adv-x="511" 
d="M491 433l-104 -7l-15 -46q-4 28 -24 41t-47 13q-58 0 -109 -26t-89 -67.5t-60 -92t-22 -98.5q0 -30 7 -58.5t22.5 -51t41 -36t61.5 -13.5q38 0 75 32.5t63 94.5q-18 -54 1 -90.5t64 -36.5q15 0 33 6.5t36.5 19t36 32t30.5 45.5l-7 4q-23 -42 -47 -60t-47 -18
q-14 0 -19.5 9t-0.5 22zM365 359l-63 -196q-13 -33 -28 -61.5t-32.5 -50.5t-37 -34.5t-40.5 -12.5q-26 0 -38 16.5t-12 55.5q0 21 4.5 49.5t12.5 60.5t19.5 65t25.5 62.5t30.5 53t34.5 37.5t31 18.5t29 4.5q32 0 49 -18.5t15 -49.5zM543 661q0 2 -5 2q-4 0 -4 -2
q0 -24 -14.5 -45t-48.5 -21q-17 0 -36 9t-40.5 20.5t-45 20.5t-48.5 9q-24 0 -47 -9t-40.5 -24.5t-28 -36.5t-10.5 -45q0 -2 4 -2t4 2q0 25 15 46t49 21q17 0 36 -9.5t40 -20.5t44.5 -20.5t48.5 -9.5q24 0 47 9t41 25t28.5 36.5t10.5 44.5z" />
    <glyph glyph-name="adieresis" unicode="&#xe4;" horiz-adv-x="511" 
d="M491 433l-104 -7l-15 -46q-4 28 -24 41t-47 13q-58 0 -109 -26t-89 -67.5t-60 -92t-22 -98.5q0 -30 7 -58.5t22.5 -51t41 -36t61.5 -13.5q38 0 75 32.5t63 94.5q-18 -54 1 -90.5t64 -36.5q15 0 33 6.5t36.5 19t36 32t30.5 45.5l-7 4q-23 -42 -47 -60t-47 -18
q-14 0 -19.5 9t-0.5 22zM365 359l-63 -196q-13 -33 -28 -61.5t-32.5 -50.5t-37 -34.5t-40.5 -12.5q-26 0 -38 16.5t-12 55.5q0 21 4.5 49.5t12.5 60.5t19.5 65t25.5 62.5t30.5 53t34.5 37.5t31 18.5t29 4.5q32 0 49 -18.5t15 -49.5zM505 604q0 17 -10 27t-26 10
q-23 0 -40.5 -18.5t-17.5 -43.5q0 -17 10 -28t26 -11q23 0 40.5 19.5t17.5 44.5zM313 604q0 17 -10 27t-26 10q-23 0 -40.5 -18.5t-17.5 -43.5q0 -17 10 -28t26 -11q23 0 40.5 19.5t17.5 44.5z" />
    <glyph glyph-name="aring" unicode="&#xe5;" horiz-adv-x="511" 
d="M491 433l-104 -7l-15 -46q-4 28 -24 41t-47 13q-58 0 -109 -26t-89 -67.5t-60 -92t-22 -98.5q0 -30 7 -58.5t22.5 -51t41 -36t61.5 -13.5q38 0 75 32.5t63 94.5q-18 -54 1 -90.5t64 -36.5q15 0 33 6.5t36.5 19t36 32t30.5 45.5l-7 4q-23 -42 -47 -60t-47 -18
q-14 0 -19.5 9t-0.5 22zM365 359l-63 -196q-13 -33 -28 -61.5t-32.5 -50.5t-37 -34.5t-40.5 -12.5q-26 0 -38 16.5t-12 55.5q0 21 4.5 49.5t12.5 60.5t19.5 65t25.5 62.5t30.5 53t34.5 37.5t31 18.5t29 4.5q32 0 49 -18.5t15 -49.5zM435 628q0 26 -17.5 42.5t-41.5 16.5
q-18 0 -35 -8t-30.5 -21t-21.5 -30t-8 -36q0 -27 17.5 -43t41.5 -16q18 0 35 8t30.5 21t21.5 30t8 36zM426 627q0 -17 -7 -32.5t-19 -27.5t-27 -19.5t-31 -7.5q-22 0 -37 14.5t-15 37.5q0 17 7 33t19 28t27 19t31 7q22 0 37 -14.5t15 -37.5z" />
    <glyph glyph-name="ae" unicode="&#xe6;" horiz-adv-x="664" 
d="M645 350q0 15 -8 30t-23.5 27t-39.5 20t-55 8q-49 0 -90.5 -22t-73.5 -60q-17 38 -54.5 60t-82.5 22q-23 0 -44.5 -7.5t-38 -20t-26 -28.5t-9.5 -33q0 -24 14.5 -36t34.5 -12q22 0 32 13t10 29q0 9 -2.5 15t-5.5 11t-5.5 9.5t-2.5 11.5q0 14 13.5 27t32.5 13q41 0 59 -23
t18 -60q0 -20 -5 -49t-19 -77h-53q-57 0 -98.5 -11.5t-68.5 -30.5t-40 -42t-13 -47q0 -42 34.5 -69t95.5 -27q51 0 91 20.5t69 55.5q17 -35 51.5 -55.5t79.5 -20.5q50 0 86.5 20t71.5 62l-6 5q-14 -17 -29 -31t-33.5 -25t-41 -17t-52.5 -6q-38 0 -52 22.5t-14 58.5
q0 43 25 130h43q45 0 86 10.5t71.5 29.5t49 44.5t18.5 55.5zM560 372q0 -24 -7 -51t-25 -50t-48 -38t-76 -15h-25q12 43 23.5 81t27 66.5t36.5 45t51 16.5q20 0 31.5 -12.5t11.5 -42.5zM272 210q-13 -45 -24 -84t-26 -67t-35.5 -44t-51.5 -16q-21 0 -35.5 11.5t-14.5 40.5
q0 22 8 50t26 52t48.5 40.5t75.5 16.5h29z" />
    <glyph glyph-name="ccedilla" unicode="&#xe7;" horiz-adv-x="417" 
d="M402 337q0 19 -11 36.5t-29 31t-41 22t-47 8.5q-50 0 -96 -23t-81 -61.5t-55.5 -88t-20.5 -103.5q0 -38 11.5 -68.5t32.5 -53t50 -34.5t64 -12q-11 -9 -23.5 -27t-12.5 -38q0 -17 8 -30t17.5 -23.5t17.5 -20.5t8 -21q0 -41 -52 -41q-17 0 -27 8t-10 19q0 4 3 7l6.5 6.5
t6.5 8t3 10.5q0 23 -22 23q-12 0 -19.5 -9.5t-7.5 -22.5q0 -23 18 -40.5t52 -17.5q31 0 52 22t21 55q0 20 -6.5 32.5t-15 22.5t-15 21t-6.5 28q0 10 5.5 17.5t9.5 11.5q48 3 87 28t71 68l-7 5q-30 -40 -69 -67t-97 -27q-38 0 -52 21.5t-14 58.5q0 21 8.5 62.5t20.5 86
t24.5 83.5t21.5 54q18 31 40 46.5t54 15.5q43 0 43 -33q0 -9 -2.5 -15.5t-5.5 -12.5t-5.5 -13.5t-2.5 -20.5q0 -17 10.5 -31.5t34.5 -14.5q21 0 36.5 12.5t15.5 38.5z" />
    <glyph glyph-name="egrave" unicode="&#xe8;" horiz-adv-x="419" 
d="M401 350q0 15 -8 30t-23.5 27t-39.5 20t-55 8q-50 0 -96 -23t-81 -61.5t-56 -88t-21 -103.5q0 -37 12 -68t33 -53t49.5 -34.5t62.5 -12.5q51 0 87 20t71 62l-5 5q-15 -17 -30 -31t-33 -25t-40.5 -17t-52.5 -6q-38 0 -52 22.5t-14 58.5q0 22 7.5 60t20.5 82h43
q45 0 85.5 8.5t70.5 25t47.5 40.5t17.5 54zM316 372q0 -24 -6.5 -49t-23.5 -46t-46.5 -34t-75.5 -13h-25q12 41 23 77t26 62.5t35.5 42t50.5 15.5q20 0 31 -12.5t11 -42.5zM344 505q-36 9 -58 28t-36 42t-21.5 47t-14 44t-14 33t-20.5 13q-19 0 -31 -13t-12 -33
q0 -17 7 -39.5t29 -46t62.5 -45.5t106.5 -38q2 -1 3 3t-1 5z" />
    <glyph glyph-name="eacute" unicode="&#xe9;" horiz-adv-x="419" 
d="M401 350q0 15 -8 30t-23.5 27t-39.5 20t-55 8q-50 0 -96 -23t-81 -61.5t-56 -88t-21 -103.5q0 -37 12 -68t33 -53t49.5 -34.5t62.5 -12.5q51 0 87 20t71 62l-5 5q-15 -17 -30 -31t-33 -25t-40.5 -17t-52.5 -6q-38 0 -52 22.5t-14 58.5q0 22 7.5 60t20.5 82h43
q45 0 85.5 8.5t70.5 25t47.5 40.5t17.5 54zM316 372q0 -24 -6.5 -49t-23.5 -46t-46.5 -34t-75.5 -13h-25q12 41 23 77t26 62.5t35.5 42t50.5 15.5q20 0 31 -12.5t11 -42.5zM510 674q0 17 -10 27t-27 10q-21 0 -40.5 -25.5t-46.5 -58.5t-68 -64.5t-106 -44.5q-2 0 -2 -4t2 -4
q75 13 131 34t93 44.5t55.5 46t18.5 39.5z" />
    <glyph glyph-name="ecircumflex" unicode="&#xea;" horiz-adv-x="419" 
d="M401 350q0 15 -8 30t-23.5 27t-39.5 20t-55 8q-50 0 -96 -23t-81 -61.5t-56 -88t-21 -103.5q0 -37 12 -68t33 -53t49.5 -34.5t62.5 -12.5q51 0 87 20t71 62l-5 5q-15 -17 -30 -31t-33 -25t-40.5 -17t-52.5 -6q-38 0 -52 22.5t-14 58.5q0 22 7.5 60t20.5 82h43
q45 0 85.5 8.5t70.5 25t47.5 40.5t17.5 54zM316 372q0 -24 -6.5 -49t-23.5 -46t-46.5 -34t-75.5 -13h-25q12 41 23 77t26 62.5t35.5 42t50.5 15.5q20 0 31 -12.5t11 -42.5zM425 522q-8 19 -16.5 43.5t-15.5 50t-12 51t-8 47.5q0 2 -3 2.5t-5 -1.5q-17 -18 -37.5 -41
t-43.5 -48.5t-49 -52t-54 -50.5q-2 -2 1 -4.5t5 -0.5q36 31 69.5 61.5t60.5 57.5q8 -38 20 -69t24 -53z" />
    <glyph glyph-name="edieresis" unicode="&#xeb;" horiz-adv-x="419" 
d="M401 350q0 15 -8 30t-23.5 27t-39.5 20t-55 8q-50 0 -96 -23t-81 -61.5t-56 -88t-21 -103.5q0 -37 12 -68t33 -53t49.5 -34.5t62.5 -12.5q51 0 87 20t71 62l-5 5q-15 -17 -30 -31t-33 -25t-40.5 -17t-52.5 -6q-38 0 -52 22.5t-14 58.5q0 22 7.5 60t20.5 82h43
q45 0 85.5 8.5t70.5 25t47.5 40.5t17.5 54zM316 372q0 -24 -6.5 -49t-23.5 -46t-46.5 -34t-75.5 -13h-25q12 41 23 77t26 62.5t35.5 42t50.5 15.5q20 0 31 -12.5t11 -42.5zM442 604q0 17 -10 27t-26 10q-23 0 -40.5 -18.5t-17.5 -43.5q0 -17 10 -28t26 -11q23 0 40.5 19.5
t17.5 44.5zM250 604q0 17 -10 27t-26 10q-23 0 -40.5 -18.5t-17.5 -43.5q0 -17 10 -28t26 -11q23 0 40.5 19.5t17.5 44.5z" />
    <glyph glyph-name="igrave" unicode="&#xec;" horiz-adv-x="273" 
d="M259 94l-7 4q-24 -44 -47.5 -61t-46.5 -17q-16 0 -23 10.5t-7 27.5q0 24 16 60.5t34.5 78t34.5 84.5t16 80q0 31 -18 52.5t-58 21.5q-29 0 -62.5 -21t-55.5 -70l7 -4q17 36 36 52.5t33 16.5t19.5 -7t5.5 -24q0 -33 -16 -74t-34.5 -84t-34.5 -83.5t-16 -71.5q0 -32 23 -53
t64 -21q15 0 33.5 6t37 19t36 32.5t30.5 45.5zM257 505q-36 9 -58 28t-36 42t-21.5 47t-14 44t-14 33t-20.5 13q-19 0 -31 -13t-12 -33q0 -17 7 -39.5t29 -46t62.5 -45.5t106.5 -38q2 -1 3 3t-1 5z" />
    <glyph glyph-name="iacute" unicode="&#xed;" horiz-adv-x="273" 
d="M259 94l-7 4q-24 -44 -47.5 -61t-46.5 -17q-16 0 -23 10.5t-7 27.5q0 24 16 60.5t34.5 78t34.5 84.5t16 80q0 31 -18 52.5t-58 21.5q-29 0 -62.5 -21t-55.5 -70l7 -4q17 36 36 52.5t33 16.5t19.5 -7t5.5 -24q0 -33 -16 -74t-34.5 -84t-34.5 -83.5t-16 -71.5q0 -32 23 -53
t64 -21q15 0 33.5 6t37 19t36 32.5t30.5 45.5zM420 674q0 17 -10 27t-27 10q-21 0 -40.5 -25.5t-46.5 -58.5t-68 -64.5t-106 -44.5q-2 0 -2 -4t2 -4q75 13 131 34t93 44.5t55.5 46t18.5 39.5z" />
    <glyph glyph-name="icircumflex" unicode="&#xee;" horiz-adv-x="273" 
d="M259 94l-7 4q-24 -44 -47.5 -61t-46.5 -17q-16 0 -23 10.5t-7 27.5q0 24 16 60.5t34.5 78t34.5 84.5t16 80q0 31 -18 52.5t-58 21.5q-29 0 -62.5 -21t-55.5 -70l7 -4q17 36 36 52.5t33 16.5t19.5 -7t5.5 -24q0 -33 -16 -74t-34.5 -84t-34.5 -83.5t-16 -71.5q0 -32 23 -53
t64 -21q15 0 33.5 6t37 19t36 32.5t30.5 45.5zM332 522q-8 19 -16.5 43.5t-15.5 50t-12 51t-8 47.5q0 2 -3 2.5t-5 -1.5q-17 -18 -37.5 -41t-43.5 -48.5t-49 -52t-54 -50.5q-2 -2 1 -4.5t5 -0.5q36 31 69.5 61.5t60.5 57.5q8 -38 20 -69t24 -53z" />
    <glyph glyph-name="idieresis" unicode="&#xef;" horiz-adv-x="273" 
d="M259 94l-7 4q-24 -44 -47.5 -61t-46.5 -17q-16 0 -23 10.5t-7 27.5q0 24 16 60.5t34.5 78t34.5 84.5t16 80q0 31 -18 52.5t-58 21.5q-29 0 -62.5 -21t-55.5 -70l7 -4q17 36 36 52.5t33 16.5t19.5 -7t5.5 -24q0 -33 -16 -74t-34.5 -84t-34.5 -83.5t-16 -71.5q0 -32 23 -53
t64 -21q15 0 33.5 6t37 19t36 32.5t30.5 45.5zM346 604q0 17 -10 27t-26 10q-23 0 -40.5 -18.5t-17.5 -43.5q0 -17 10 -28t26 -11q23 0 40.5 19.5t17.5 44.5zM154 604q0 17 -10 27t-26 10q-23 0 -40.5 -18.5t-17.5 -43.5q0 -17 10 -28t26 -11q23 0 40.5 19.5t17.5 44.5z" />
    <glyph glyph-name="ntilde" unicode="&#xf1;" horiz-adv-x="532" 
d="M521 94l-7 4q-24 -44 -47 -61t-46 -17q-17 0 -24 10.5t-7 27.5q0 23 14.5 58t31.5 74t31.5 79t14.5 74q0 44 -22 68t-59 24q-43 0 -96 -40t-98 -121q15 42 16.5 72t-6.5 50t-25.5 29.5t-39.5 9.5q-28 0 -61 -21t-56 -70l8 -4q17 38 35.5 53.5t33.5 15.5q14 0 21 -13
t0 -35l-115 -361h103l76 242q25 43 45 71.5t37.5 45.5t33 24t31.5 7q18 0 29.5 -12t11.5 -31q0 -34 -13.5 -71.5t-30 -74.5t-30 -72.5t-13.5 -65.5q0 -31 23 -51.5t63 -20.5q15 0 33.5 6t37 19t36 32t30.5 46zM522 661q0 2 -5 2q-4 0 -4 -2q0 -24 -14.5 -45t-48.5 -21
q-17 0 -36 9t-40.5 20.5t-45 20.5t-48.5 9q-24 0 -47 -9t-40.5 -24.5t-28 -36.5t-10.5 -45q0 -2 4 -2t4 2q0 25 15 46t49 21q17 0 36 -9.5t40 -20.5t44.5 -20.5t48.5 -9.5q24 0 47 9t41 25t28.5 36.5t10.5 44.5z" />
    <glyph glyph-name="ograve" unicode="&#xf2;" horiz-adv-x="474" 
d="M433 267q0 37 -12 68t-33 53t-49.5 34.5t-62.5 12.5q-50 0 -96.5 -23t-81.5 -61.5t-56 -88t-21 -103.5q0 -37 12 -68t33 -53t49.5 -34.5t62.5 -12.5q50 0 96 23t81.5 61.5t56.5 88t21 103.5zM344 345q0 -13 -4 -36t-10 -51.5t-14 -58.5t-16.5 -57.5t-16 -48.5t-13.5 -31
q-35 -63 -96 -63q-38 0 -51.5 22.5t-13.5 58.5q0 20 8.5 61t20.5 85.5t24.5 83t20.5 53.5q19 32 41.5 48t54.5 16q38 0 51.5 -22.5t13.5 -59.5zM364 505q-36 9 -58 28t-36 42t-21.5 47t-14 44t-14 33t-20.5 13q-19 0 -31 -13t-12 -33q0 -17 7 -39.5t29 -46t62.5 -45.5
t106.5 -38q2 -1 3 3t-1 5z" />
    <glyph glyph-name="oacute" unicode="&#xf3;" horiz-adv-x="474" 
d="M433 267q0 37 -12 68t-33 53t-49.5 34.5t-62.5 12.5q-50 0 -96.5 -23t-81.5 -61.5t-56 -88t-21 -103.5q0 -37 12 -68t33 -53t49.5 -34.5t62.5 -12.5q50 0 96 23t81.5 61.5t56.5 88t21 103.5zM344 345q0 -13 -4 -36t-10 -51.5t-14 -58.5t-16.5 -57.5t-16 -48.5t-13.5 -31
q-35 -63 -96 -63q-38 0 -51.5 22.5t-13.5 58.5q0 20 8.5 61t20.5 85.5t24.5 83t20.5 53.5q19 32 41.5 48t54.5 16q38 0 51.5 -22.5t13.5 -59.5zM513 674q0 17 -10 27t-27 10q-21 0 -40.5 -25.5t-46.5 -58.5t-68 -64.5t-106 -44.5q-2 0 -2 -4t2 -4q75 13 131 34t93 44.5
t55.5 46t18.5 39.5z" />
    <glyph glyph-name="ocircumflex" unicode="&#xf4;" horiz-adv-x="474" 
d="M433 267q0 37 -12 68t-33 53t-49.5 34.5t-62.5 12.5q-50 0 -96.5 -23t-81.5 -61.5t-56 -88t-21 -103.5q0 -37 12 -68t33 -53t49.5 -34.5t62.5 -12.5q50 0 96 23t81.5 61.5t56.5 88t21 103.5zM344 345q0 -13 -4 -36t-10 -51.5t-14 -58.5t-16.5 -57.5t-16 -48.5t-13.5 -31
q-35 -63 -96 -63q-38 0 -51.5 22.5t-13.5 58.5q0 20 8.5 61t20.5 85.5t24.5 83t20.5 53.5q19 32 41.5 48t54.5 16q38 0 51.5 -22.5t13.5 -59.5zM437 522q-8 19 -16.5 43.5t-15.5 50t-12 51t-8 47.5q0 2 -3 2.5t-5 -1.5q-17 -18 -37.5 -41t-43.5 -48.5t-49 -52t-54 -50.5
q-2 -2 1 -4.5t5 -0.5q36 31 69.5 61.5t60.5 57.5q8 -38 20 -69t24 -53z" />
    <glyph glyph-name="otilde" unicode="&#xf5;" horiz-adv-x="474" 
d="M433 267q0 37 -12 68t-33 53t-49.5 34.5t-62.5 12.5q-50 0 -96.5 -23t-81.5 -61.5t-56 -88t-21 -103.5q0 -37 12 -68t33 -53t49.5 -34.5t62.5 -12.5q50 0 96 23t81.5 61.5t56.5 88t21 103.5zM344 345q0 -13 -4 -36t-10 -51.5t-14 -58.5t-16.5 -57.5t-16 -48.5t-13.5 -31
q-35 -63 -96 -63q-38 0 -51.5 22.5t-13.5 58.5q0 20 8.5 61t20.5 85.5t24.5 83t20.5 53.5q19 32 41.5 48t54.5 16q38 0 51.5 -22.5t13.5 -59.5zM505 661q0 2 -5 2q-4 0 -4 -2q0 -24 -14.5 -45t-48.5 -21q-17 0 -36 9t-40.5 20.5t-45 20.5t-48.5 9q-24 0 -47 -9t-40.5 -24.5
t-28 -36.5t-10.5 -45q0 -2 4 -2t4 2q0 25 15 46t49 21q17 0 36 -9.5t40 -20.5t44.5 -20.5t48.5 -9.5q24 0 47 9t41 25t28.5 36.5t10.5 44.5z" />
    <glyph glyph-name="odieresis" unicode="&#xf6;" horiz-adv-x="474" 
d="M433 267q0 37 -12 68t-33 53t-49.5 34.5t-62.5 12.5q-50 0 -96.5 -23t-81.5 -61.5t-56 -88t-21 -103.5q0 -37 12 -68t33 -53t49.5 -34.5t62.5 -12.5q50 0 96 23t81.5 61.5t56.5 88t21 103.5zM344 345q0 -13 -4 -36t-10 -51.5t-14 -58.5t-16.5 -57.5t-16 -48.5t-13.5 -31
q-35 -63 -96 -63q-38 0 -51.5 22.5t-13.5 58.5q0 20 8.5 61t20.5 85.5t24.5 83t20.5 53.5q19 32 41.5 48t54.5 16q38 0 51.5 -22.5t13.5 -59.5zM445 604q0 17 -10 27t-26 10q-23 0 -40.5 -18.5t-17.5 -43.5q0 -17 10 -28t26 -11q23 0 40.5 19.5t17.5 44.5zM253 604
q0 17 -10 27t-26 10q-23 0 -40.5 -18.5t-17.5 -43.5q0 -17 10 -28t26 -11q23 0 40.5 19.5t17.5 44.5z" />
    <glyph glyph-name="oslash" unicode="&#xf8;" horiz-adv-x="474" 
d="M433 267q0 38 -12.5 69t-34.5 54l42 49q1 1 -2 3.5t-4 0.5l-42 -48q-20 19 -46.5 29.5t-57.5 10.5q-50 0 -96.5 -23t-81.5 -61.5t-56 -88t-21 -103.5q0 -38 12.5 -69t33.5 -54l-41 -48q-1 -2 2 -4.5t4 -0.5q2 2 11 12.5t19.5 22.5l10.5 12q44 -39 105 -39q50 0 96 23
t81.5 61.5t56.5 88t21 103.5zM344 354l-234 -269v6q1 14 5 37t10.5 50.5t14.5 56t15.5 54t15 45.5t12.5 29q19 32 41.5 48t54.5 16q36 0 50 -20.5t15 -52.5zM343 335q-1 -21 -9.5 -61t-19.5 -82.5t-23.5 -79t-20.5 -50.5q-35 -63 -96 -63q-37 0 -50 20t-15 52l235 271
q0 -5 -1 -7z" />
    <glyph glyph-name="ugrave" unicode="&#xf9;" horiz-adv-x="522" 
d="M505 431l-104 -5l-76 -243q-25 -42 -45 -70.5t-37.5 -45.5t-33 -24t-31.5 -7q-18 0 -30 12t-12 30q0 34 13.5 71.5t30 74.5t30.5 72.5t14 66.5q0 29 -17.5 50.5t-55.5 21.5q-27 0 -60 -20.5t-56 -69.5l8 -4q17 36 35.5 52t32.5 16q13 0 18.5 -6.5t5.5 -23.5
q0 -23 -15 -60t-32.5 -78t-32.5 -83t-15 -75q0 -44 22 -68t59 -24q44 0 96 40t97 121q-15 -42 -16.5 -72.5t7.5 -50t26 -29t40 -9.5q30 0 69 24.5t67 78.5l-7 4q-25 -44 -48 -61t-46 -17q-14 0 -19.5 8.5t-0.5 22.5zM386 505q-36 9 -58 28t-36 42t-21.5 47t-14 44t-14 33
t-20.5 13q-19 0 -31 -13t-12 -33q0 -17 7 -39.5t29 -46t62.5 -45.5t106.5 -38q2 -1 3 3t-1 5z" />
    <glyph glyph-name="uacute" unicode="&#xfa;" horiz-adv-x="522" 
d="M505 431l-104 -5l-76 -243q-25 -42 -45 -70.5t-37.5 -45.5t-33 -24t-31.5 -7q-18 0 -30 12t-12 30q0 34 13.5 71.5t30 74.5t30.5 72.5t14 66.5q0 29 -17.5 50.5t-55.5 21.5q-27 0 -60 -20.5t-56 -69.5l8 -4q17 36 35.5 52t32.5 16q13 0 18.5 -6.5t5.5 -23.5
q0 -23 -15 -60t-32.5 -78t-32.5 -83t-15 -75q0 -44 22 -68t59 -24q44 0 96 40t97 121q-15 -42 -16.5 -72.5t7.5 -50t26 -29t40 -9.5q30 0 69 24.5t67 78.5l-7 4q-25 -44 -48 -61t-46 -17q-14 0 -19.5 8.5t-0.5 22.5zM499 674q0 17 -10 27t-27 10q-21 0 -40.5 -25.5
t-46.5 -58.5t-68 -64.5t-106 -44.5q-2 0 -2 -4t2 -4q75 13 131 34t93 44.5t55.5 46t18.5 39.5z" />
    <glyph glyph-name="ucircumflex" unicode="&#xfb;" horiz-adv-x="522" 
d="M505 431l-104 -5l-76 -243q-25 -42 -45 -70.5t-37.5 -45.5t-33 -24t-31.5 -7q-18 0 -30 12t-12 30q0 34 13.5 71.5t30 74.5t30.5 72.5t14 66.5q0 29 -17.5 50.5t-55.5 21.5q-27 0 -60 -20.5t-56 -69.5l8 -4q17 36 35.5 52t32.5 16q13 0 18.5 -6.5t5.5 -23.5
q0 -23 -15 -60t-32.5 -78t-32.5 -83t-15 -75q0 -44 22 -68t59 -24q44 0 96 40t97 121q-15 -42 -16.5 -72.5t7.5 -50t26 -29t40 -9.5q30 0 69 24.5t67 78.5l-7 4q-25 -44 -48 -61t-46 -17q-14 0 -19.5 8.5t-0.5 22.5zM455 522q-8 19 -16.5 43.5t-15.5 50t-12 51t-8 47.5
q0 2 -3 2.5t-5 -1.5q-17 -18 -37.5 -41t-43.5 -48.5t-49 -52t-54 -50.5q-2 -2 1 -4.5t5 -0.5q36 31 69.5 61.5t60.5 57.5q8 -38 20 -69t24 -53z" />
    <glyph glyph-name="udieresis" unicode="&#xfc;" horiz-adv-x="522" 
d="M505 431l-104 -5l-76 -243q-25 -42 -45 -70.5t-37.5 -45.5t-33 -24t-31.5 -7q-18 0 -30 12t-12 30q0 34 13.5 71.5t30 74.5t30.5 72.5t14 66.5q0 29 -17.5 50.5t-55.5 21.5q-27 0 -60 -20.5t-56 -69.5l8 -4q17 36 35.5 52t32.5 16q13 0 18.5 -6.5t5.5 -23.5
q0 -23 -15 -60t-32.5 -78t-32.5 -83t-15 -75q0 -44 22 -68t59 -24q44 0 96 40t97 121q-15 -42 -16.5 -72.5t7.5 -50t26 -29t40 -9.5q30 0 69 24.5t67 78.5l-7 4q-25 -44 -48 -61t-46 -17q-14 0 -19.5 8.5t-0.5 22.5zM478 604q0 17 -10 27t-26 10q-23 0 -40.5 -18.5
t-17.5 -43.5q0 -17 10 -28t26 -11q23 0 40.5 19.5t17.5 44.5zM286 604q0 17 -10 27t-26 10q-23 0 -40.5 -18.5t-17.5 -43.5q0 -17 10 -28t26 -11q23 0 40.5 19.5t17.5 44.5z" />
    <glyph glyph-name="yacute" unicode="&#xfd;" horiz-adv-x="453" 
d="M492 406q0 14 -6.5 21.5t-23.5 7.5q-24 0 -46 -21.5t-45.5 -62.5t-49.5 -99.5t-57 -133.5l-31 146q-17 85 -39.5 128t-63.5 43q-34 0 -62 -24.5t-54 -72.5l6 -6q16 28 27.5 37.5t24.5 9.5q9 0 18.5 -5.5t19 -23t19.5 -50t20 -87.5l45 -262q-26 -60 -49.5 -108t-49 -81
t-55 -51t-66.5 -18q-31 0 -31 36q0 12 10 27.5t10 34.5q0 16 -10.5 27.5t-34.5 11.5q-22 0 -37.5 -16t-15.5 -44q0 -20 8.5 -35.5t23.5 -26.5t34.5 -17t41.5 -6q43 0 76.5 22t63.5 65t59 106.5t63 146.5q42 101 69.5 163.5t50.5 99t46 53.5t56 27q14 5 24.5 13t10.5 25z
M499 674q0 17 -10 27t-27 10q-21 0 -40.5 -25.5t-46.5 -58.5t-68 -64.5t-106 -44.5q-2 0 -2 -4t2 -4q75 13 131 34t93 44.5t55.5 46t18.5 39.5z" />
    <glyph glyph-name="ydieresis" unicode="&#xff;" horiz-adv-x="450" 
d="M492 406q0 14 -6.5 21.5t-23.5 7.5q-24 0 -46 -21.5t-45.5 -62.5t-49.5 -99.5t-57 -133.5l-31 146q-17 85 -39.5 128t-63.5 43q-34 0 -62 -24.5t-54 -72.5l6 -6q16 28 27.5 37.5t24.5 9.5q9 0 18.5 -5.5t19 -23t19.5 -50t20 -87.5l45 -262q-26 -60 -49.5 -108t-49 -81
t-55 -51t-66.5 -18q-31 0 -31 36q0 12 10 27.5t10 34.5q0 16 -10.5 27.5t-34.5 11.5q-22 0 -37.5 -16t-15.5 -44q0 -20 8.5 -35.5t23.5 -26.5t34.5 -17t41.5 -6q43 0 76.5 22t63.5 65t59 106.5t63 146.5q42 101 69.5 163.5t50.5 99t46 53.5t56 27q14 5 24.5 13t10.5 25z
M442 604q0 17 -10 27t-26 10q-23 0 -40.5 -18.5t-17.5 -43.5q0 -17 10 -28t26 -11q23 0 40.5 19.5t17.5 44.5zM250 604q0 17 -10 27t-26 10q-23 0 -40.5 -18.5t-17.5 -43.5q0 -17 10 -28t26 -11q23 0 40.5 19.5t17.5 44.5z" />
    <glyph glyph-name="Abreve" unicode="&#x102;" horiz-adv-x="656" 
d="M606 0q2 0 2.5 4t-1.5 4h-91q-7 0 -7 3v712q0 2 -4.5 2.5t-6.5 -2.5l-525 -674q-22 -27 -30 -34t-15 -7h-80q-2 0 -3 -4t1 -4h202q2 0 3 4t-1 4h-89q-6 0 -3 6.5t25 35.5l152 194h241v-233q0 -3 -6 -3h-78q-2 0 -3 -4t1 -4h316zM376 252h-235l235 301v-301zM698 942
q1 2 -3 2t-5 -2q-4 -13 -13 -29t-26 -29.5t-43.5 -23t-65.5 -9.5t-62 9.5t-34.5 23t-12.5 29.5t3 29q1 2 -3 2t-5 -2q-8 -24 -9 -51t8 -50t31.5 -38.5t63.5 -15.5q40 0 70 15.5t51 38.5t34 50t21 51z" />
    <glyph glyph-name="abreve" unicode="&#x103;" horiz-adv-x="517" 
d="M491 433l-104 -7l-15 -46q-4 28 -24 41t-47 13q-58 0 -109 -26t-89 -67.5t-60 -92t-22 -98.5q0 -30 7 -58.5t22.5 -51t41 -36t61.5 -13.5q38 0 75 32.5t63 94.5q-18 -54 1 -90.5t64 -36.5q15 0 33 6.5t36.5 19t36 32t30.5 45.5l-7 4q-23 -42 -47 -60t-47 -18
q-14 0 -19.5 9t-0.5 22zM365 359l-63 -196q-13 -33 -28 -61.5t-32.5 -50.5t-37 -34.5t-40.5 -12.5q-26 0 -38 16.5t-12 55.5q0 21 4.5 49.5t12.5 60.5t19.5 65t25.5 62.5t30.5 53t34.5 37.5t31 18.5t29 4.5q32 0 49 -18.5t15 -49.5zM511 671q1 2 -3 2t-5 -2q-4 -13 -13 -29
t-26 -29.5t-43.5 -23t-65.5 -9.5t-62 9.5t-34.5 23t-12.5 29.5t3 29q1 2 -3 2t-5 -2q-8 -24 -9 -51t8 -50t31.5 -38.5t63.5 -15.5q40 0 70 15.5t51 38.5t34 50t21 51z" />
    <glyph glyph-name="Dcroat" unicode="&#x110;" horiz-adv-x="756" 
d="M737 436q0 -57 -19 -111.5t-52 -103t-77.5 -89t-95 -70t-105.5 -46t-108 -16.5h-336q-2 0 -1 4t3 4h90q6 0 8 3l103 329h-65q-2 2 -2 7q0 6 2 8h70l108 342q1 4 -5 4h-90q-2 0 -0.5 4t3.5 4h309q54 0 101 -20.5t82.5 -57t56 -86.5t20.5 -109zM402 340h-116l-104 -329
q0 -3 6 -3h92q75 0 127 29t93 91q11 17 24.5 48t28 70.5t27.5 84t23.5 87.5t17 82t6.5 67t-7 52.5t-24.5 42.5t-47 28.5t-74.5 10.5h-68q-6 0 -7 -4l-109 -342h112q2 -2 2 -8q0 -5 -2 -7z" />
    <glyph glyph-name="dcroat" unicode="&#x111;" horiz-adv-x="507" 
d="M594 593q-8 -11 -12 -27.5t-6 -33.5h-54l-152 -482q-5 -13 0.5 -21.5t19.5 -8.5q23 0 47 18t48 60l7 -4q-14 -27 -32 -46t-37 -32t-37.5 -19t-31.5 -6q-45 0 -64 35.5t0 90.5q-28 -60 -64 -93t-74 -33q-36 0 -60.5 13t-40.5 35t-23 50.5t-7 58.5q0 49 22 100t60.5 92.5
t89.5 68t109 26.5q28 0 47.5 -13.5t23.5 -40.5l46 151h-93q-1 0 0 4q8 11 12 27.5t6 33.5h95l40 127q3 3 -5 3l-55 -2q-2 0 -0.5 4t3.5 4l162 5q2 0 2 -3l-44 -138h52q4 0 0 -4zM365 358q4 32 -13 50.5t-51 18.5q-16 0 -29.5 -4t-30.5 -18q-27 -21 -50.5 -63.5t-40.5 -91
t-26.5 -96.5t-9.5 -80q0 -39 11 -54.5t36 -15.5q22 0 43 13.5t39 36t33.5 51.5t27.5 61z" />
    <glyph glyph-name="Itilde" unicode="&#x128;" horiz-adv-x="414" 
d="M499 709h-331q-2 0 -3 -4t1 -4h90q7 0 5 -4l-217 -686q0 -3 -7 -3h-90q-2 0 -3 -4t1 -4h331q2 0 3 4t-1 4h-90q-7 0 -5 3l217 686q0 4 7 4h90q2 0 3 4t-1 4zM542 916q0 2 -5 2q-4 0 -4 -2q0 -24 -14.5 -45t-48.5 -21q-17 0 -36 9t-40.5 20.5t-45 20.5t-48.5 9
q-24 0 -47 -9t-40.5 -24.5t-28 -36.5t-10.5 -45q0 -2 4 -2t4 2q0 25 15 46t49 21q17 0 36 -9.5t40 -20.5t44.5 -20.5t48.5 -9.5q24 0 47 9t41 25t28.5 36.5t10.5 44.5z" />
    <glyph glyph-name="itilde" unicode="&#x129;" horiz-adv-x="279" 
d="M259 94q-13 -26 -30.5 -45.5t-36 -32.5t-37 -19t-33.5 -6q-42 0 -64.5 21t-22.5 53q0 31 16 71.5t34.5 83.5t34.5 84t16 74q0 17 -5.5 24t-19.5 7t-33 -16.5t-36 -52.5l-7 4q22 49 55.5 70t62.5 21q40 0 58 -21.5t18 -52.5q0 -37 -16 -80t-34.5 -84.5t-34.5 -78
t-16 -60.5q0 -17 7 -27.5t23 -10.5q23 0 46.5 16.5t47.5 61.5zM385 661q0 -24 -10.5 -44.5t-28.5 -36.5t-41 -25t-47 -9q-26 0 -49 9.5t-44 20.5t-40 20.5t-36 9.5q-34 0 -49 -21t-15 -46q0 -2 -4 -2t-4 2q0 24 10.5 45t28 36.5t40.5 24.5t47 9q25 0 48.5 -9t45 -20.5
t40.5 -20.5t36 -9q34 0 48.5 21t14.5 45q0 2 4 2q5 0 5 -2z" />
    <glyph glyph-name="dotlessi" unicode="&#x131;" horiz-adv-x="279" 
d="M259 94l-7 4q-24 -44 -47.5 -61t-46.5 -17q-16 0 -23 10.5t-7 27.5q0 24 16 60.5t34.5 78t34.5 84.5t16 80q0 31 -18 52.5t-58 21.5q-29 0 -62.5 -21t-55.5 -70l7 -4q17 36 36 52.5t33 16.5t19.5 -7t5.5 -24q0 -33 -16 -74t-34.5 -84t-34.5 -83.5t-16 -71.5q0 -32 23 -53
t64 -21q15 0 33.5 6t37 19t36 32.5t30.5 45.5z" />
    <glyph glyph-name="OE" unicode="&#x152;" horiz-adv-x="1009" 
d="M1041 705q1 3 -2 3h-534q-53 0 -107.5 -16.5t-105.5 -46t-95 -70t-77 -89t-52 -103t-19 -111.5q0 -59 20.5 -109t55.5 -86t82.5 -56.5t101.5 -20.5h561q3 0 3 3l71 225q1 2 -3 2t-4 -2q-12 -38 -39.5 -77.5t-69 -71t-97 -51.5t-122.5 -20h-79q-7 0 -5 3l113 359h24
q31 0 52 -13t32.5 -33.5t13.5 -46.5t-6 -51q-1 -2 3 -2q5 0 5 2l87 274q0 2 -4 2t-5 -2q-8 -26 -25 -48.5t-40 -39t-51 -26t-59 -9.5h-25l101 320q1 3 8 3h91q48 0 79 -18t47.5 -47t18.5 -65t-9 -71q-1 -2 3 -2t4 2zM602 697l-216 -686q0 -3 -7 -3h-68q-45 0 -74.5 10
t-47 28t-24.5 42.5t-7 53.5q0 28 6.5 67t17 82t24 87.5t27.5 83.5t27.5 70t24.5 48q42 63 93.5 91.5t126.5 28.5h92q6 0 5 -3z" />
    <glyph glyph-name="oe" unicode="&#x153;" horiz-adv-x="715" 
d="M696 349q0 15 -8 30.5t-23.5 27.5t-39.5 20t-55 8q-50 0 -93 -22.5t-76 -59.5q-16 38 -48 60t-77 22q-50 0 -96.5 -23t-81.5 -61.5t-56 -88t-21 -103.5q0 -37 12 -68t33 -53t49.5 -34.5t62.5 -12.5q49 0 92.5 21.5t75.5 59.5q17 -38 48.5 -59.5t77.5 -21.5q51 0 87 20
t71 62l-5 5q-14 -17 -29 -31.5t-33.5 -25t-41 -16.5t-52.5 -6q-39 0 -52.5 22.5t-13.5 58.5q0 22 8 60t20 82h44q45 0 85 8.5t70.5 25t48 40t17.5 53.5zM611 372q0 -24 -6.5 -49t-24 -46t-47 -34t-75.5 -13h-25q11 41 22.5 76.5t26.5 62t36 42t51 15.5q20 0 31 -12t11 -42z
M345 345q0 -13 -4 -36t-10.5 -51.5t-14.5 -58.5t-16 -57.5t-15.5 -48.5t-13.5 -31q-19 -32 -41.5 -47.5t-54.5 -15.5q-39 0 -52.5 22.5t-13.5 58.5q0 20 8.5 61t20.5 85.5t24.5 83t20.5 53.5q19 32 41.5 48t54.5 16q38 0 52 -22.5t14 -59.5z" />
    <glyph glyph-name="Scaron" unicode="&#x160;" horiz-adv-x="563" 
d="M620 979q-29 -24 -55 -50t-49 -52t-43 -49.5t-37 -41.5q-2 -1 -5 -0.5t-3 2.5q-3 22 -8.5 47.5t-12.5 51t-15 49.5t-16 44l64 7q12 -22 24 -53t20 -69q27 27 60.5 57.5t69.5 61.5q2 2 5 -0.5t1 -4.5zM571 724l-59 -193q-2 -2 -5 -2q-5 0 -3 2q12 40 5.5 74t-24.5 59.5
t-45.5 40t-57.5 14.5q-63 0 -97 -32t-34 -89q0 -35 18 -65t45 -58t58.5 -55.5t58.5 -58t45 -65t18 -76.5q0 -47 -16 -89.5t-47 -75.5t-77 -52.5t-106 -19.5q-32 0 -59 7.5t-50 16.5t-42 16.5t-35 7.5q-20 0 -31 -4.5t-17 -16.5q-2 -2 -5 -2q-5 0 -3 2l70 228q0 2 4 2t4 -2
q-13 -41 -8 -84.5t26 -79.5t58 -59.5t88 -23.5q81 0 116.5 39t35.5 106q0 35 -17.5 63.5t-44 54.5t-57 52t-57 54.5t-44 62.5t-17.5 77q0 45 16.5 86.5t46 72.5t70 49.5t89.5 18.5q19 0 36 -4t33 -9.5t31.5 -9.5t31.5 -4q20 0 31 7.5t15 16.5q2 2 5 2q5 0 3 -2z" />
    <glyph glyph-name="Utilde" unicode="&#x168;" horiz-adv-x="756" 
d="M851 709h-197q-2 0 -3.5 -4t0.5 -4h87q6 0 6 -3l-153 -487q-15 -48 -37.5 -87t-54 -66.5t-73 -42t-94.5 -14.5q-60 0 -85.5 29t-25.5 79q0 57 26 135l142 454q1 3 8 3h90q2 0 3 4t-1 4h-331q-2 0 -3 -4t1 -4h90q6 0 5 -3l-137 -435q-18 -54 -18 -103q0 -78 50 -127.5
t155 -49.5q61 0 109.5 15.5t84.5 45t61.5 71t42.5 92.5l154 491q1 3 8 3h87q2 0 3.5 4t-0.5 4zM773 916q0 2 -5 2q-4 0 -4 -2q0 -24 -14.5 -45t-48.5 -21q-17 0 -36 9t-40.5 20.5t-45 20.5t-48.5 9q-24 0 -47 -9t-40.5 -24.5t-28 -36.5t-10.5 -45q0 -2 4 -2t4 2q0 25 15 46
t49 21q17 0 36 -9.5t40 -20.5t44.5 -20.5t48.5 -9.5q24 0 47 9t41 25t28.5 36.5t10.5 44.5z" />
    <glyph glyph-name="utilde" unicode="&#x169;" horiz-adv-x="528" 
d="M505 431l-104 -5l-76 -243q-25 -42 -45 -70.5t-37.5 -45.5t-33 -24t-31.5 -7q-18 0 -30 12t-12 30q0 34 13.5 71.5t30 74.5t30.5 72.5t14 66.5q0 29 -17.5 50.5t-55.5 21.5q-27 0 -60 -20.5t-56 -69.5l8 -4q17 36 35.5 52t32.5 16q13 0 18.5 -6.5t5.5 -23.5
q0 -23 -15 -60t-32.5 -78t-32.5 -83t-15 -75q0 -44 22 -68t59 -24q44 0 96 40t97 121q-15 -42 -16.5 -72.5t7.5 -50t26 -29t40 -9.5q30 0 69 24.5t67 78.5l-7 4q-25 -44 -48 -61t-46 -17q-14 0 -19.5 8.5t-0.5 22.5zM517 635q0 2 -5 2q-4 0 -4 -2q0 -24 -14.5 -45t-48.5 -21
q-17 0 -36 9t-40.5 20.5t-45 20.5t-48.5 9q-24 0 -47 -9t-40.5 -24.5t-28 -36.5t-10.5 -45q0 -2 4 -2t4 2q0 25 15 46t49 21q17 0 36 -9.5t40 -20.5t44.5 -20.5t48.5 -9.5q24 0 47 9t41 25t28.5 36.5t10.5 44.5z" />
    <glyph glyph-name="Ydieresis" unicode="&#x178;" horiz-adv-x="654" 
d="M806 709h-202q-2 0 -3 -4t1 -4h96q3 0 3.5 -1t-2 -5.5t-8.5 -12.5t-18 -23l-253 -321l-75 360q-3 3 4 3h109q2 0 3 4t-1 4h-353q-2 0 -3 -4t1 -4h93q4 0 7 -3l78 -370l-101 -317q0 -3 -7 -3h-90q-2 0 -3.5 -4t0.5 -4h331q2 0 3.5 4t-0.5 4h-90q-7 0 -5 3l99 315l263 334
q11 14 18.5 22.5t12 12.5t7.5 5t5 1h78q2 0 3 4t-1 4zM679 859q0 17 -10 27t-26 10q-23 0 -40.5 -18.5t-17.5 -43.5q0 -17 10 -28t26 -11q23 0 40.5 19.5t17.5 44.5zM487 859q0 17 -10 27t-26 10q-23 0 -40.5 -18.5t-17.5 -43.5q0 -17 10 -28t26 -11q23 0 40.5 19.5
t17.5 44.5z" />
    <glyph glyph-name="florin" unicode="&#x192;" horiz-adv-x="368" 
d="M547 668q0 36 -27.5 56.5t-66.5 20.5q-57 0 -107 -29.5t-90 -82t-68 -124t-41 -154.5l-2 -18q0 -3 -7 -3h-90q-2 0 -3 -4t1 -4h91q6 0 6 -4q-20 -133 -38 -248t-41.5 -199.5t-55.5 -132.5t-80 -48q-16 0 -21.5 7t-5.5 24q0 9 2.5 15t6 11t6 11t2.5 15q0 16 -10.5 27
t-33.5 11t-38.5 -16t-15.5 -37q0 -39 26.5 -58.5t68.5 -19.5q51 0 94 27.5t77.5 75t62 109.5t48 131t35 140.5t24.5 136.5l3 18q2 4 7 4h90q2 0 2.5 4t-1.5 4h-90q-6 0 -6 3q12 89 25 153t27.5 108.5t30 71t31.5 41t32 19.5t32 5q15 0 21 -7t6 -24q0 -11 -2.5 -17t-6 -10.5
t-6 -9.5t-2.5 -14q0 -18 10.5 -28.5t35.5 -10.5q21 0 36.5 15.5t15.5 38.5z" />
    <glyph glyph-name="Ohorn" unicode="&#x1a0;" 
d="M716 459q0 -90 -35.5 -175.5t-94.5 -152.5t-134.5 -107.5t-155.5 -40.5q-54 0 -99.5 18t-78 52.5t-51 84t-18.5 111.5q0 60 16.5 118.5t45.5 111.5t68.5 98.5t86.5 78.5t99 51.5t105 18.5q63 0 113 -24.5t83 -70.5q11 8 18.5 19.5t9.5 26.5q1 11 -1.5 20.5t-6 18.5
t-6.5 19t-2 22q3 27 20 42.5t45 12.5q25 -3 33.5 -21.5t6.5 -38.5q-5 -34 -35 -70t-76 -61q21 -32 32.5 -73t11.5 -89zM606 594q0 25 -6 47.5t-21.5 39.5t-42 27t-66.5 10q-33 0 -56.5 -5.5t-41.5 -18t-33.5 -32t-32.5 -46.5q-10 -18 -25 -54t-31 -81.5t-32.5 -97
t-29.5 -101.5t-21 -94t-8 -74q0 -24 6 -46.5t21.5 -40t42 -27.5t67.5 -10q33 0 56 5.5t41 18t33.5 32t32.5 46.5q11 17 26 53t31.5 82t32.5 98t28.5 102t20.5 94t8 73z" />
    <glyph glyph-name="ohorn" unicode="&#x1a1;" horiz-adv-x="474" 
d="M433 267q0 -54 -21 -103.5t-56.5 -88t-81.5 -61.5t-96 -23q-34 0 -62.5 12.5t-49.5 34.5t-33 53t-12 68q0 54 21 103.5t56 88t81.5 61.5t96.5 23q41 0 73.5 -17.5t53.5 -48.5q17 16 20 40q1 11 -1.5 20.5t-6 18.5t-6.5 19t-2 22q3 27 20 42.5t45 12.5q25 -3 33.5 -21.5
t6.5 -38.5q-5 -32 -32.5 -66.5t-69.5 -59.5q23 -40 23 -91zM344 345q0 37 -13.5 59.5t-51.5 22.5q-32 0 -54.5 -16t-41.5 -48q-8 -15 -20.5 -53.5t-24.5 -83t-20.5 -85.5t-8.5 -61q0 -36 13.5 -58.5t51.5 -22.5q61 0 96 63q9 15 21.5 53.5t24 83.5t20 86t8.5 60z" />
    <glyph glyph-name="Uhorn" unicode="&#x1af;" horiz-adv-x="756" 
d="M755 709l-32 -102q25 9 48 25t26 45q1 11 -1.5 20.5t-6 18.5t-6.5 19t-2 22q3 27 20 42.5t45 12.5q25 -3 33.5 -21.5t6.5 -38.5q-3 -22 -17 -45t-36 -44t-51 -38t-62 -27l-121 -391q-17 -51 -42.5 -92.5t-61.5 -71t-84 -45t-110 -15.5q-105 0 -155 49.5t-50 127.5
q0 49 18 103l137 435q1 3 -5 3h-90q-2 0 -1 4t3 4h331q2 0 1 -4t-3 -4h-90q-7 0 -8 -3l-142 -454q-26 -80 -26 -135q0 -51 25.5 -79.5t85.5 -28.5q106 0 167.5 56.5t91.5 153.5l153 487q0 3 -6 3h-87q-2 0 -0.5 4t3.5 4h101z" />
    <glyph glyph-name="uhorn" unicode="&#x1b0;" horiz-adv-x="528" 
d="M505 431l-27 -85q20 10 37 25t19 38q1 11 -1.5 20.5t-6 18.5t-6.5 19t-2 22q3 27 20 42.5t45 12.5q25 -3 33.5 -21.5t6.5 -38.5q-2 -21 -14.5 -42.5t-32 -41.5t-45.5 -37t-56 -28l-89 -284q-11 -31 20 -31q23 0 46 16.5t48 61.5l7 -4q-28 -54 -67 -78.5t-69 -24.5
q-23 0 -40 9.5t-26 29t-7.5 50t16.5 72.5q-45 -81 -96.5 -121t-96.5 -40q-37 0 -59 23.5t-22 68.5q0 33 15 75t32.5 83t32.5 78t15 60q0 17 -5.5 23.5t-18.5 6.5q-14 0 -32.5 -16t-35.5 -52l-8 4q23 49 56 69.5t60 20.5q38 0 55.5 -21.5t17.5 -50.5q0 -31 -14 -66.5
t-30.5 -72.5t-30 -74.5t-13.5 -71.5q0 -18 12 -30t30 -12q16 0 31.5 7t33 24t37.5 45.5t45 70.5l76 243z" />
    <glyph glyph-name="circumflex" unicode="&#x2c6;" horiz-adv-x="326" 
d="M344 522q-8 19 -16.5 43.5t-15.5 50t-12 51t-8 47.5q0 2 -3 2.5t-5 -1.5q-17 -18 -37.5 -41t-43.5 -48.5t-49 -52t-54 -50.5q-2 -2 1 -4.5t5 -0.5q36 31 69.5 61.5t60.5 57.5q8 -38 20 -69t24 -53z" />
    <glyph glyph-name="caron" unicode="&#x2c7;" horiz-adv-x="326" 
d="M412 705q2 2 -1 4.5t-5 0.5q-36 -31 -69.5 -61.5t-60.5 -57.5q-8 38 -20 69t-24 53l-64 -7q8 -19 16.5 -43.5t15.5 -50t12 -51t8 -47.5q0 -2 3 -2.5t5 0.5q17 18 37.5 41.5t43.5 49t48.5 52t54.5 50.5z" />
    <glyph glyph-name="breve" unicode="&#x2d8;" horiz-adv-x="380" 
d="M488 690q1 2 -3 2t-5 -2q-4 -13 -13 -29t-26 -29.5t-43.5 -23t-65.5 -9.5t-62 9.5t-34.5 23t-12.5 29.5t3 29q1 2 -3 2t-5 -2q-8 -24 -9 -51t8 -50t31.5 -38.5t63.5 -15.5q40 0 70 15.5t51 38.5t34 50t21 51z" />
    <glyph glyph-name="dotaccent" unicode="&#x2d9;" horiz-adv-x="247" 
d="M249 604q0 17 -10 27t-26 10q-23 0 -40.5 -18.5t-17.5 -43.5q0 -17 10 -28t26 -11q23 0 40.5 19.5t17.5 44.5z" />
    <glyph glyph-name="ring" unicode="&#x2da;" horiz-adv-x="283" 
d="M309 628q0 26 -17.5 42.5t-41.5 16.5q-18 0 -35 -8t-30.5 -21t-21.5 -30t-8 -36q0 -27 17.5 -43t41.5 -16q18 0 35 8t30.5 21t21.5 30t8 36zM300 627q0 -17 -7 -32.5t-19 -27.5t-27 -19.5t-31 -7.5q-22 0 -37 14.5t-15 37.5q0 17 7 33t19 28t27 19t31 7q22 0 37 -14.5
t15 -37.5z" />
    <glyph glyph-name="ogonek" unicode="&#x2db;" horiz-adv-x="273" 
d="M142 -6q2 0 1 3.5t-3 3.5q-83 -14 -126 -49t-43 -79q0 -34 23 -53.5t61 -19.5q22 0 41 7.5t33 18.5q2 2 1.5 5t-2.5 2q-18 -8 -34 -8q-23 0 -41 12t-18 41q0 52 29.5 77.5t77.5 38.5z" />
    <glyph glyph-name="tilde" unicode="&#x2dc;" horiz-adv-x="406" 
d="M468 661q0 2 -5 2q-4 0 -4 -2q0 -24 -14.5 -45t-48.5 -21q-17 0 -36 9t-40.5 20.5t-45 20.5t-48.5 9q-24 0 -47 -9t-40.5 -24.5t-28 -36.5t-10.5 -45q0 -2 4 -2t4 2q0 25 15 46t49 21q17 0 36 -9.5t40 -20.5t44.5 -20.5t48.5 -9.5q24 0 47 9t41 25t28.5 36.5t10.5 44.5z
" />
    <glyph glyph-name="hungarumlaut" unicode="&#x2dd;" horiz-adv-x="588" 
d="M584 673q0 16 -10 26t-27 10q-14 0 -27 -12t-27.5 -30.5t-32.5 -41t-42.5 -44t-57 -39.5t-75.5 -26q-2 0 -2 -4t2 -4q75 14 131.5 35t93.5 44t55.5 46t18.5 40zM390 673q0 16 -10 26t-27 10q-14 0 -27 -12t-27.5 -30.5t-32.5 -41t-42.5 -44t-57 -39.5t-75.5 -26
q-2 0 -2 -4t2 -4q75 14 131.5 35t93.5 44t55.5 46t18.5 40z" />
    <glyph glyph-name="hookabovecomb" unicode="&#x309;" horiz-adv-x="420" 
d="M194 551q-3 34 6.5 52.5t23.5 32t28 26.5t20 37q5 21 4.5 34.5t-5 21.5t-11.5 12.5t-15 6.5q-17 5 -25.5 -0.5t-10.5 -17.5t3.5 -25t1.5 -36q-6 -35 -41 -29q-23 4 -35 20.5t-7 39.5q3 19 14 31.5t26.5 19.5t33.5 8.5t35 -1.5q25 -5 42 -18.5t26 -31t10.5 -36t-2.5 -33.5
q-8 -25 -26.5 -38t-38.5 -22.5t-36.5 -20.5t-20.5 -33z" />
    <glyph glyph-name="dotbelowcomb" unicode="&#x323;" horiz-adv-x="247" 
d="M84 -111q0 -25 -17.5 -44.5t-40.5 -19.5q-16 0 -26 11t-10 28q0 25 17.5 43.5t40.5 18.5q16 0 26 -10t10 -27z" />
    <glyph glyph-name="Omega" unicode="&#x3a9;" horiz-adv-x="539" 
d="M760 654q0 37 -28 63t-83 26q-33 0 -65.5 -14t-61.5 -40q-18 26 -44.5 40t-68.5 14q-38 0 -74.5 -18.5t-69.5 -51.5t-60 -79.5t-45 -102.5q-5 -14 -9.5 -29.5t-9.5 -34.5h-103q-2 0 -3.5 -3.5t0.5 -3.5h104q-16 -57 -33 -125.5t-34 -138.5t-34.5 -135.5t-33.5 -116.5
q-19 -60 -33 -100.5t-26.5 -65t-26 -35.5t-32.5 -11q-16 0 -24.5 9.5t-8.5 26.5q0 14 9.5 29.5t9.5 33.5q0 17 -10 27.5t-35 10.5q-21 0 -36 -15.5t-15 -42.5q0 -20 8.5 -36.5t23.5 -27.5t34.5 -17t41.5 -6q28 0 53 10t47 27q17 -19 40 -28t59 -9t73.5 19t71 53.5t61.5 81
t46 102.5q13 41 31.5 99t38 122.5t39.5 131.5t36 127h118q1 0 2 3.5t-1 3.5h-116q5 18 11.5 42t11.5 39q22 69 41.5 113t36.5 69.5t33 35t30 9.5q36 0 36 -37q0 -13 -9.5 -29.5t-9.5 -35.5q0 -16 10.5 -26.5t33.5 -10.5q22 0 37 15t15 43zM514 683q-35 -34 -65 -82.5
t-50 -109.5q-5 -14 -9.5 -29.5t-10.5 -34.5h-135q5 18 11.5 42t11.5 39q22 69 40.5 113t36.5 69.5t36 35t39 9.5q31 0 56 -13t39 -39zM377 420q-16 -57 -35 -124.5t-38.5 -136t-38.5 -132.5t-35 -115q-21 -69 -40.5 -112t-38.5 -66.5t-38.5 -32t-40.5 -8.5q-25 0 -46 8
t-36 25q38 34 68 90t53 127q13 41 29.5 98.5t33.5 121.5t34.5 130.5t33.5 126.5h135z" />
    <glyph glyph-name="uni1E3F" unicode="&#x1e3f;" horiz-adv-x="780" 
d="M764 94l-7 4q-24 -43 -47.5 -60.5t-46.5 -17.5q-16 0 -23 10.5t-7 27.5q0 24 14 59t31.5 74t31.5 78.5t14 73.5q0 44 -21.5 68t-58.5 24q-89 0 -179 -161q14 41 12.5 71.5t-14 50.5t-32.5 29.5t-43 9.5q-45 0 -90 -39t-92 -122q15 42 17 72t-6 50t-25.5 29.5t-39.5 9.5
q-28 0 -61.5 -21t-55.5 -70l8 -3q17 37 35.5 52.5t33.5 15.5q14 0 21 -13t0 -34l-115 -362h103l76 242q25 44 44.5 72.5t34.5 45.5t28 23.5t25 6.5q32 0 42.5 -26t-5.5 -75l-90 -289h103l75 239q25 44 44 73t34.5 46.5t28.5 24.5t25 7q18 0 30 -12t12 -31q0 -34 -14 -71
t-30.5 -74t-30 -72.5t-13.5 -66.5t23.5 -51.5t63.5 -20.5q15 0 33 6t37 19t36 32.5t31 45.5zM540 674q0 17 -10 27t-27 10q-21 0 -40.5 -25.5t-46.5 -58.5t-68 -64.5t-106 -44.5q-2 0 -2 -4t2 -4q75 13 131 34t93 44.5t55.5 46t18.5 39.5z" />
    <glyph glyph-name="uni1E4F" unicode="&#x1e4f;" horiz-adv-x="474" 
d="M433 267q0 37 -12 68t-33 53t-49.5 34.5t-62.5 12.5q-50 0 -96.5 -23t-81.5 -61.5t-56 -88t-21 -103.5q0 -37 12 -68t33 -53t49.5 -34.5t62.5 -12.5q50 0 96 23t81.5 61.5t56.5 88t21 103.5zM344 345q0 -13 -4 -36t-10 -51.5t-14 -58.5t-16.5 -57.5t-16 -48.5t-13.5 -31
q-35 -63 -96 -63q-38 0 -51.5 22.5t-13.5 58.5q0 20 8.5 61t20.5 85.5t24.5 83t20.5 53.5q19 32 41.5 48t54.5 16q38 0 51.5 -22.5t13.5 -59.5zM505 661q0 2 -5 2q-4 0 -4 -2q0 -24 -14.5 -45t-48.5 -21q-17 0 -36 9t-40.5 20.5t-45 20.5t-48.5 9q-24 0 -47 -9t-40.5 -24.5
t-28 -36.5t-10.5 -45q0 -2 4 -2t4 2q0 25 15 46t49 21q17 0 36 -9.5t40 -20.5t44.5 -20.5t48.5 -9.5q24 0 47 9t41 25t28.5 36.5t10.5 44.5zM381 604q0 17 -10 27t-26 10q-23 0 -40.5 -18.5t-17.5 -43.5q0 -17 10 -28t26 -11q23 0 40.5 19.5t17.5 44.5zM189 604q0 17 -10 27
t-26 10q-23 0 -40.5 -18.5t-17.5 -43.5q0 -17 10 -28t26 -11q23 0 40.5 19.5t17.5 44.5z" />
    <glyph glyph-name="uni1EA0" unicode="&#x1ea0;" horiz-adv-x="656" 
d="M606 0q2 0 2.5 4t-1.5 4h-91q-7 0 -7 3v712q0 2 -4.5 2.5t-6.5 -2.5l-525 -674q-22 -27 -30 -34t-15 -7h-80q-2 0 -3 -4t1 -4h202q2 0 3 4t-1 4h-89q-6 0 -3 6.5t25 35.5l152 194h241v-233q0 -3 -6 -3h-78q-2 0 -3 -4t1 -4h316zM376 252h-235l235 301v-301zM244 -111
q0 -25 -17.5 -44.5t-40.5 -19.5q-16 0 -26 11t-10 28q0 25 17.5 43.5t40.5 18.5q16 0 26 -10t10 -27z" />
    <glyph glyph-name="uni1EA1" unicode="&#x1ea1;" horiz-adv-x="517" 
d="M491 433l-104 -7l-15 -46q-4 28 -24 41t-47 13q-58 0 -109 -26t-89 -67.5t-60 -92t-22 -98.5q0 -30 7 -58.5t22.5 -51t41 -36t61.5 -13.5q38 0 75 32.5t63 94.5q-18 -54 1 -90.5t64 -36.5q15 0 33 6.5t36.5 19t36 32t30.5 45.5l-7 4q-23 -42 -47 -60t-47 -18
q-14 0 -19.5 9t-0.5 22zM365 359l-63 -196q-13 -33 -28 -61.5t-32.5 -50.5t-37 -34.5t-40.5 -12.5q-26 0 -38 16.5t-12 55.5q0 21 4.5 49.5t12.5 60.5t19.5 65t25.5 62.5t30.5 53t34.5 37.5t31 18.5t29 4.5q32 0 49 -18.5t15 -49.5zM256 -111q0 -25 -17.5 -44.5t-40.5 -19.5
q-16 0 -26 11t-10 28q0 25 17.5 43.5t40.5 18.5q16 0 26 -10t10 -27z" />
    <glyph glyph-name="uni1EA2" unicode="&#x1ea2;" horiz-adv-x="656" 
d="M606 0q2 0 2.5 4t-1.5 4h-91q-7 0 -7 3v712q0 2 -4.5 2.5t-6.5 -2.5l-525 -674q-22 -27 -30 -34t-15 -7h-80q-2 0 -3 -4t1 -4h202q2 0 3 4t-1 4h-89q-6 0 -3 6.5t25 35.5l152 194h241v-233q0 -3 -6 -3h-78q-2 0 -3 -4t1 -4h316zM376 252h-235l235 301v-301zM502 814
q-3 34 6.5 52.5t23.5 32t28 26.5t20 37q5 21 4.5 34.5t-5 21.5t-11.5 12.5t-15 6.5q-17 5 -25.5 -0.5t-10.5 -17.5t3.5 -25t1.5 -36q-6 -35 -41 -29q-23 4 -35 20.5t-7 39.5q3 19 14 31.5t26.5 19.5t33.5 8.5t35 -1.5q25 -5 42 -18.5t26 -31t10.5 -36t-2.5 -33.5
q-8 -25 -26.5 -38t-38.5 -22.5t-36.5 -20.5t-20.5 -33z" />
    <glyph glyph-name="uni1EA3" unicode="&#x1ea3;" horiz-adv-x="517" 
d="M491 433l-104 -7l-15 -46q-4 28 -24 41t-47 13q-58 0 -109 -26t-89 -67.5t-60 -92t-22 -98.5q0 -30 7 -58.5t22.5 -51t41 -36t61.5 -13.5q38 0 75 32.5t63 94.5q-18 -54 1 -90.5t64 -36.5q15 0 33 6.5t36.5 19t36 32t30.5 45.5l-7 4q-23 -42 -47 -60t-47 -18
q-14 0 -19.5 9t-0.5 22zM365 359l-63 -196q-13 -33 -28 -61.5t-32.5 -50.5t-37 -34.5t-40.5 -12.5q-26 0 -38 16.5t-12 55.5q0 21 4.5 49.5t12.5 60.5t19.5 65t25.5 62.5t30.5 53t34.5 37.5t31 18.5t29 4.5q32 0 49 -18.5t15 -49.5zM341 516q-3 34 6.5 52.5t23.5 32t28 26.5
t20 37q5 21 4.5 34.5t-5 21.5t-11.5 12.5t-15 6.5q-17 5 -25.5 -0.5t-10.5 -17.5t3.5 -25t1.5 -36q-6 -35 -41 -29q-23 4 -35 20.5t-7 39.5q3 19 14 31.5t26.5 19.5t33.5 8.5t35 -1.5q25 -5 42 -18.5t26 -31t10.5 -36t-2.5 -33.5q-8 -25 -26.5 -38t-38.5 -22.5t-36.5 -20.5
t-20.5 -33z" />
    <glyph glyph-name="uni1EA4" unicode="&#x1ea4;" horiz-adv-x="650" 
d="M606 0q2 0 2.5 4t-1.5 4h-91q-7 0 -7 3v712q0 2 -4.5 2.5t-6.5 -2.5l-525 -674q-22 -27 -30 -34t-15 -7h-80q-2 0 -3 -4t1 -4h202q2 0 3 4t-1 4h-89q-6 0 -3 6.5t25 35.5l152 194h241v-233q0 -3 -6 -3h-78q-2 0 -3 -4t1 -4h316zM376 252h-235l235 301v-301zM644 777
q-8 19 -16.5 43.5t-15.5 50t-12 51t-8 47.5q0 2 -3 2.5t-5 -1.5q-17 -18 -37.5 -41t-43.5 -48.5t-49 -52t-54 -50.5q-2 -2 1 -4.5t5 -0.5q36 31 69.5 61.5t60.5 57.5q8 -38 20 -69t24 -53zM769 1138q0 17 -10 27t-27 10q-21 0 -40.5 -25.5t-46.5 -58.5t-68 -64.5t-106 -44.5
q-2 0 -2 -4t2 -4q75 13 131 34t93 44.5t55.5 46t18.5 39.5z" />
    <glyph glyph-name="uni1EA5" unicode="&#x1ea5;" horiz-adv-x="511" 
d="M491 433l-104 -7l-15 -46q-4 28 -24 41t-47 13q-58 0 -109 -26t-89 -67.5t-60 -92t-22 -98.5q0 -30 7 -58.5t22.5 -51t41 -36t61.5 -13.5q38 0 75 32.5t63 94.5q-18 -54 1 -90.5t64 -36.5q15 0 33 6.5t36.5 19t36 32t30.5 45.5l-7 4q-23 -42 -47 -60t-47 -18
q-14 0 -19.5 9t-0.5 22zM365 359l-63 -196q-13 -33 -28 -61.5t-32.5 -50.5t-37 -34.5t-40.5 -12.5q-26 0 -38 16.5t-12 55.5q0 21 4.5 49.5t12.5 60.5t19.5 65t25.5 62.5t30.5 53t34.5 37.5t31 18.5t29 4.5q32 0 49 -18.5t15 -49.5zM473 522q-8 19 -16.5 43.5t-15.5 50
t-12 51t-8 47.5q0 2 -3 2.5t-5 -1.5q-17 -18 -37.5 -41t-43.5 -48.5t-49 -52t-54 -50.5q-2 -2 1 -4.5t5 -0.5q36 31 69.5 61.5t60.5 57.5q8 -38 20 -69t24 -53zM574 886q0 17 -10 27t-27 10q-21 0 -40.5 -25.5t-46.5 -58.5t-68 -64.5t-106 -44.5q-2 0 -2 -4t2 -4
q75 13 131 34t93 44.5t55.5 46t18.5 39.5z" />
    <glyph glyph-name="uni1EA6" unicode="&#x1ea6;" horiz-adv-x="650" 
d="M606 0q2 0 2.5 4t-1.5 4h-91q-7 0 -7 3v712q0 2 -4.5 2.5t-6.5 -2.5l-525 -674q-22 -27 -30 -34t-15 -7h-80q-2 0 -3 -4t1 -4h202q2 0 3 4t-1 4h-89q-6 0 -3 6.5t25 35.5l152 194h241v-233q0 -3 -6 -3h-78q-2 0 -3 -4t1 -4h316zM376 252h-235l235 301v-301zM644 777
q-8 19 -16.5 43.5t-15.5 50t-12 51t-8 47.5q0 2 -3 2.5t-5 -1.5q-17 -18 -37.5 -41t-43.5 -48.5t-49 -52t-54 -50.5q-2 -2 1 -4.5t5 -0.5q36 31 69.5 61.5t60.5 57.5q8 -38 20 -69t24 -53zM691 983q-36 9 -58 28t-36 42t-21.5 47t-14 44t-14 33t-20.5 13q-19 0 -31 -13
t-12 -33q0 -17 7 -39.5t29 -46t62.5 -45.5t106.5 -38q2 -1 3 3t-1 5z" />
    <glyph glyph-name="uni1EA7" unicode="&#x1ea7;" horiz-adv-x="511" 
d="M491 433l-104 -7l-15 -46q-4 28 -24 41t-47 13q-58 0 -109 -26t-89 -67.5t-60 -92t-22 -98.5q0 -30 7 -58.5t22.5 -51t41 -36t61.5 -13.5q38 0 75 32.5t63 94.5q-18 -54 1 -90.5t64 -36.5q15 0 33 6.5t36.5 19t36 32t30.5 45.5l-7 4q-23 -42 -47 -60t-47 -18
q-14 0 -19.5 9t-0.5 22zM365 359l-63 -196q-13 -33 -28 -61.5t-32.5 -50.5t-37 -34.5t-40.5 -12.5q-26 0 -38 16.5t-12 55.5q0 21 4.5 49.5t12.5 60.5t19.5 65t25.5 62.5t30.5 53t34.5 37.5t31 18.5t29 4.5q32 0 49 -18.5t15 -49.5zM473 522q-8 19 -16.5 43.5t-15.5 50
t-12 51t-8 47.5q0 2 -3 2.5t-5 -1.5q-17 -18 -37.5 -41t-43.5 -48.5t-49 -52t-54 -50.5q-2 -2 1 -4.5t5 -0.5q36 31 69.5 61.5t60.5 57.5q8 -38 20 -69t24 -53zM521 731q-36 9 -58 28t-36 42t-21.5 47t-14 44t-14 33t-20.5 13q-19 0 -31 -13t-12 -33q0 -17 7 -39.5t29 -46
t62.5 -45.5t106.5 -38q2 -1 3 3t-1 5z" />
    <glyph glyph-name="uni1EA8" unicode="&#x1ea8;" horiz-adv-x="650" 
d="M606 0q2 0 2.5 4t-1.5 4h-91q-7 0 -7 3v712q0 2 -4.5 2.5t-6.5 -2.5l-525 -674q-22 -27 -30 -34t-15 -7h-80q-2 0 -3 -4t1 -4h202q2 0 3 4t-1 4h-89q-6 0 -3 6.5t25 35.5l152 194h241v-233q0 -3 -6 -3h-78q-2 0 -3 -4t1 -4h316zM376 252h-235l235 301v-301zM644 777
q-8 19 -16.5 43.5t-15.5 50t-12 51t-8 47.5q0 2 -3 2.5t-5 -1.5q-17 -18 -37.5 -41t-43.5 -48.5t-49 -52t-54 -50.5q-2 -2 1 -4.5t5 -0.5q36 31 69.5 61.5t60.5 57.5q8 -38 20 -69t24 -53zM638 917q-3 34 6.5 52.5t23.5 32t28 26.5t20 37q5 21 4.5 34.5t-5 21.5t-11.5 12.5
t-15 6.5q-17 5 -25.5 -0.5t-10.5 -17.5t3.5 -25t1.5 -36q-6 -35 -41 -29q-23 4 -35 20.5t-7 39.5q3 19 14 31.5t26.5 19.5t33.5 8.5t35 -1.5q25 -5 42 -18.5t26 -31t10.5 -36t-2.5 -33.5q-8 -25 -26.5 -38t-38.5 -22.5t-36.5 -20.5t-20.5 -33z" />
    <glyph glyph-name="uni1EA9" unicode="&#x1ea9;" horiz-adv-x="511" 
d="M491 433l-104 -7l-15 -46q-4 28 -24 41t-47 13q-58 0 -109 -26t-89 -67.5t-60 -92t-22 -98.5q0 -30 7 -58.5t22.5 -51t41 -36t61.5 -13.5q38 0 75 32.5t63 94.5q-18 -54 1 -90.5t64 -36.5q15 0 33 6.5t36.5 19t36 32t30.5 45.5l-7 4q-23 -42 -47 -60t-47 -18
q-14 0 -19.5 9t-0.5 22zM365 359l-63 -196q-13 -33 -28 -61.5t-32.5 -50.5t-37 -34.5t-40.5 -12.5q-26 0 -38 16.5t-12 55.5q0 21 4.5 49.5t12.5 60.5t19.5 65t25.5 62.5t30.5 53t34.5 37.5t31 18.5t29 4.5q32 0 49 -18.5t15 -49.5zM473 522q-8 19 -16.5 43.5t-15.5 50
t-12 51t-8 47.5q0 2 -3 2.5t-5 -1.5q-17 -18 -37.5 -41t-43.5 -48.5t-49 -52t-54 -50.5q-2 -2 1 -4.5t5 -0.5q36 31 69.5 61.5t60.5 57.5q8 -38 20 -69t24 -53zM470 656q-3 34 6.5 52.5t23.5 32t28 26.5t20 37q5 21 4.5 34.5t-5 21.5t-11.5 12.5t-15 6.5q-17 5 -25.5 -0.5
t-10.5 -17.5t3.5 -25t1.5 -36q-6 -35 -41 -29q-23 4 -35 20.5t-7 39.5q3 19 14 31.5t26.5 19.5t33.5 8.5t35 -1.5q25 -5 42 -18.5t26 -31t10.5 -36t-2.5 -33.5q-8 -25 -26.5 -38t-38.5 -22.5t-36.5 -20.5t-20.5 -33z" />
    <glyph glyph-name="uni1EAA" unicode="&#x1eaa;" horiz-adv-x="650" 
d="M606 0q2 0 2.5 4t-1.5 4h-91q-7 0 -7 3v712q0 2 -4.5 2.5t-6.5 -2.5l-525 -674q-22 -27 -30 -34t-15 -7h-80q-2 0 -3 -4t1 -4h202q2 0 3 4t-1 4h-89q-6 0 -3 6.5t25 35.5l152 194h241v-233q0 -3 -6 -3h-78q-2 0 -3 -4t1 -4h316zM376 252h-235l235 301v-301zM644 777
q-8 19 -16.5 43.5t-15.5 50t-12 51t-8 47.5q0 2 -3 2.5t-5 -1.5q-17 -18 -37.5 -41t-43.5 -48.5t-49 -52t-54 -50.5q-2 -2 1 -4.5t5 -0.5q36 31 69.5 61.5t60.5 57.5q8 -38 20 -69t24 -53zM776 1097q0 2 -5 2q-4 0 -4 -2q0 -24 -14.5 -45t-48.5 -21q-17 0 -36 9t-40.5 20.5
t-45 20.5t-48.5 9q-24 0 -47 -9t-40.5 -24.5t-28 -36.5t-10.5 -45q0 -2 4 -2t4 2q0 25 15 46t49 21q17 0 36 -9.5t40 -20.5t44.5 -20.5t48.5 -9.5q24 0 47 9t41 25t28.5 36.5t10.5 44.5z" />
    <glyph glyph-name="uni1EAB" unicode="&#x1eab;" horiz-adv-x="511" 
d="M491 433l-104 -7l-15 -46q-4 28 -24 41t-47 13q-58 0 -109 -26t-89 -67.5t-60 -92t-22 -98.5q0 -30 7 -58.5t22.5 -51t41 -36t61.5 -13.5q38 0 75 32.5t63 94.5q-18 -54 1 -90.5t64 -36.5q15 0 33 6.5t36.5 19t36 32t30.5 45.5l-7 4q-23 -42 -47 -60t-47 -18
q-14 0 -19.5 9t-0.5 22zM365 359l-63 -196q-13 -33 -28 -61.5t-32.5 -50.5t-37 -34.5t-40.5 -12.5q-26 0 -38 16.5t-12 55.5q0 21 4.5 49.5t12.5 60.5t19.5 65t25.5 62.5t30.5 53t34.5 37.5t31 18.5t29 4.5q32 0 49 -18.5t15 -49.5zM473 522q-8 19 -16.5 43.5t-15.5 50
t-12 51t-8 47.5q0 2 -3 2.5t-5 -1.5q-17 -18 -37.5 -41t-43.5 -48.5t-49 -52t-54 -50.5q-2 -2 1 -4.5t5 -0.5q36 31 69.5 61.5t60.5 57.5q8 -38 20 -69t24 -53zM615 864q0 2 -5 2q-4 0 -4 -2q0 -24 -14.5 -45t-48.5 -21q-17 0 -36 9t-40.5 20.5t-45 20.5t-48.5 9
q-24 0 -47 -9t-40.5 -24.5t-28 -36.5t-10.5 -45q0 -2 4 -2t4 2q0 25 15 46t49 21q17 0 36 -9.5t40 -20.5t44.5 -20.5t48.5 -9.5q24 0 47 9t41 25t28.5 36.5t10.5 44.5z" />
    <glyph glyph-name="uni1EAC" unicode="&#x1eac;" horiz-adv-x="656" 
d="M244 -111q0 -25 -17.5 -44.5t-40.5 -19.5q-16 0 -26 11t-10 28q0 25 17.5 43.5t40.5 18.5q16 0 26 -10t10 -27zM606 0q2 0 2.5 4t-1.5 4h-91q-7 0 -7 3v712q0 2 -4.5 2.5t-6.5 -2.5l-525 -674q-22 -27 -30 -34t-15 -7h-80q-2 0 -3 -4t1 -4h202q2 0 3 4t-1 4h-89
q-6 0 -3 6.5t25 35.5l152 194h241v-233q0 -3 -6 -3h-78q-2 0 -3 -4t1 -4h316zM376 252h-235l235 301v-301zM644 777q-8 19 -16.5 43.5t-15.5 50t-12 51t-8 47.5q0 2 -3 2.5t-5 -1.5q-17 -18 -37.5 -41t-43.5 -48.5t-49 -52t-54 -50.5q-2 -2 1 -4.5t5 -0.5q36 31 69.5 61.5
t60.5 57.5q8 -38 20 -69t24 -53z" />
    <glyph glyph-name="uni1EAD" unicode="&#x1ead;" horiz-adv-x="517" 
d="M256 -111q0 -25 -17.5 -44.5t-40.5 -19.5q-16 0 -26 11t-10 28q0 25 17.5 43.5t40.5 18.5q16 0 26 -10t10 -27zM491 433l-104 -7l-15 -46q-4 28 -24 41t-47 13q-58 0 -109 -26t-89 -67.5t-60 -92t-22 -98.5q0 -30 7 -58.5t22.5 -51t41 -36t61.5 -13.5q38 0 75 32.5
t63 94.5q-18 -54 1 -90.5t64 -36.5q15 0 33 6.5t36.5 19t36 32t30.5 45.5l-7 4q-23 -42 -47 -60t-47 -18q-14 0 -19.5 9t-0.5 22zM365 359l-63 -196q-13 -33 -28 -61.5t-32.5 -50.5t-37 -34.5t-40.5 -12.5q-26 0 -38 16.5t-12 55.5q0 21 4.5 49.5t12.5 60.5t19.5 65
t25.5 62.5t30.5 53t34.5 37.5t31 18.5t29 4.5q32 0 49 -18.5t15 -49.5zM473 522q-8 19 -16.5 43.5t-15.5 50t-12 51t-8 47.5q0 2 -3 2.5t-5 -1.5q-17 -18 -37.5 -41t-43.5 -48.5t-49 -52t-54 -50.5q-2 -2 1 -4.5t5 -0.5q36 31 69.5 61.5t60.5 57.5q8 -38 20 -69t24 -53z" />
    <glyph glyph-name="uni1EAE" unicode="&#x1eae;" horiz-adv-x="656" 
d="M606 0q2 0 2.5 4t-1.5 4h-91q-7 0 -7 3v712q0 2 -4.5 2.5t-6.5 -2.5l-525 -674q-22 -27 -30 -34t-15 -7h-80q-2 0 -3 -4t1 -4h202q2 0 3 4t-1 4h-89q-6 0 -3 6.5t25 35.5l152 194h241v-233q0 -3 -6 -3h-78q-2 0 -3 -4t1 -4h316zM376 252h-235l235 301v-301zM698 942
q1 2 -3 2t-5 -2q-4 -13 -13 -29t-26 -29.5t-43.5 -23t-65.5 -9.5t-62 9.5t-34.5 23t-12.5 29.5t3 29q1 2 -3 2t-5 -2q-8 -24 -9 -51t8 -50t31.5 -38.5t63.5 -15.5q40 0 70 15.5t51 38.5t34 50t21 51zM828 1138q0 17 -10 27t-27 10q-21 0 -40.5 -25.5t-46.5 -58.5t-68 -64.5
t-106 -44.5q-2 0 -2 -4t2 -4q75 13 131 34t93 44.5t55.5 46t18.5 39.5z" />
    <glyph glyph-name="uni1EAF" unicode="&#x1eaf;" horiz-adv-x="517" 
d="M491 433l-104 -7l-15 -46q-4 28 -24 41t-47 13q-58 0 -109 -26t-89 -67.5t-60 -92t-22 -98.5q0 -30 7 -58.5t22.5 -51t41 -36t61.5 -13.5q38 0 75 32.5t63 94.5q-18 -54 1 -90.5t64 -36.5q15 0 33 6.5t36.5 19t36 32t30.5 45.5l-7 4q-23 -42 -47 -60t-47 -18
q-14 0 -19.5 9t-0.5 22zM365 359l-63 -196q-13 -33 -28 -61.5t-32.5 -50.5t-37 -34.5t-40.5 -12.5q-26 0 -38 16.5t-12 55.5q0 21 4.5 49.5t12.5 60.5t19.5 65t25.5 62.5t30.5 53t34.5 37.5t31 18.5t29 4.5q32 0 49 -18.5t15 -49.5zM511 671q1 2 -3 2t-5 -2q-4 -13 -13 -29
t-26 -29.5t-43.5 -23t-65.5 -9.5t-62 9.5t-34.5 23t-12.5 29.5t3 29q1 2 -3 2t-5 -2q-8 -24 -9 -51t8 -50t31.5 -38.5t63.5 -15.5q40 0 70 15.5t51 38.5t34 50t21 51zM609 850q0 17 -10 27t-27 10q-21 0 -40.5 -25.5t-46.5 -58.5t-68 -64.5t-106 -44.5q-2 0 -2 -4t2 -4
q75 13 131 34t93 44.5t55.5 46t18.5 39.5z" />
    <glyph glyph-name="uni1EB0" unicode="&#x1eb0;" horiz-adv-x="656" 
d="M606 0q2 0 2.5 4t-1.5 4h-91q-7 0 -7 3v712q0 2 -4.5 2.5t-6.5 -2.5l-525 -674q-22 -27 -30 -34t-15 -7h-80q-2 0 -3 -4t1 -4h202q2 0 3 4t-1 4h-89q-6 0 -3 6.5t25 35.5l152 194h241v-233q0 -3 -6 -3h-78q-2 0 -3 -4t1 -4h316zM376 252h-235l235 301v-301zM698 942
q1 2 -3 2t-5 -2q-4 -13 -13 -29t-26 -29.5t-43.5 -23t-65.5 -9.5t-62 9.5t-34.5 23t-12.5 29.5t3 29q1 2 -3 2t-5 -2q-8 -24 -9 -51t8 -50t31.5 -38.5t63.5 -15.5q40 0 70 15.5t51 38.5t34 50t21 51zM351.024 1138q0 17 9.99902 27q10 10 26.998 10q20.999 0 40.498 -25.5
t46.4971 -58.5t67.9961 -64.5q40.9971 -31.5 105.993 -44.5q2 0 2 -4t-2 -4q-74.9951 13 -130.992 34q-55.9961 21 -92.9941 44.5t-55.4961 46q-18.499 22.5 -18.499 39.5z" />
    <glyph glyph-name="uni1EB1" unicode="&#x1eb1;" horiz-adv-x="517" 
d="M491 433l-104 -7l-15 -46q-4 28 -24 41t-47 13q-58 0 -109 -26t-89 -67.5t-60 -92t-22 -98.5q0 -30 7 -58.5t22.5 -51t41 -36t61.5 -13.5q38 0 75 32.5t63 94.5q-18 -54 1 -90.5t64 -36.5q15 0 33 6.5t36.5 19t36 32t30.5 45.5l-7 4q-23 -42 -47 -60t-47 -18
q-14 0 -19.5 9t-0.5 22zM365 359l-63 -196q-13 -33 -28 -61.5t-32.5 -50.5t-37 -34.5t-40.5 -12.5q-26 0 -38 16.5t-12 55.5q0 21 4.5 49.5t12.5 60.5t19.5 65t25.5 62.5t30.5 53t34.5 37.5t31 18.5t29 4.5q32 0 49 -18.5t15 -49.5zM511 671q1 2 -3 2t-5 -2q-4 -13 -13 -29
t-26 -29.5t-43.5 -23t-65.5 -9.5t-62 9.5t-34.5 23t-12.5 29.5t3 29q1 2 -3 2t-5 -2q-8 -24 -9 -51t8 -50t31.5 -38.5t63.5 -15.5q40 0 70 15.5t51 38.5t34 50t21 51zM451 695q-36 9 -58 28t-36 42t-21.5 47t-14 44t-14 33t-20.5 13q-19 0 -31 -13t-12 -33q0 -17 7 -39.5
t29 -46t62.5 -45.5t106.5 -38q2 -1 3 3t-1 5z" />
    <glyph glyph-name="uni1EB2" unicode="&#x1eb2;" horiz-adv-x="656" 
d="M606 0q2 0 2.5 4t-1.5 4h-91q-7 0 -7 3v712q0 2 -4.5 2.5t-6.5 -2.5l-525 -674q-22 -27 -30 -34t-15 -7h-80q-2 0 -3 -4t1 -4h202q2 0 3 4t-1 4h-89q-6 0 -3 6.5t25 35.5l152 194h241v-233q0 -3 -6 -3h-78q-2 0 -3 -4t1 -4h316zM376 252h-235l235 301v-301zM698 942
q1 2 -3 2t-5 -2q-4 -13 -13 -29t-26 -29.5t-43.5 -23t-65.5 -9.5t-62 9.5t-34.5 23t-12.5 29.5t3 29q1 2 -3 2t-5 -2q-8 -24 -9 -51t8 -50t31.5 -38.5t63.5 -15.5q40 0 70 15.5t51 38.5t34 50t21 51zM555 917q-3 34 6.5 52.5t23.5 32t28 26.5t20 37q5 21 4.5 34.5t-5 21.5
t-11.5 12.5t-15 6.5q-17 5 -25.5 -0.5t-10.5 -17.5t3.5 -25t1.5 -36q-6 -35 -41 -29q-23 4 -35 20.5t-7 39.5q3 19 14 31.5t26.5 19.5t33.5 8.5t35 -1.5q25 -5 42 -18.5t26 -31t10.5 -36t-2.5 -33.5q-8 -25 -26.5 -38t-38.5 -22.5t-36.5 -20.5t-20.5 -33z" />
    <glyph glyph-name="uni1EB3" unicode="&#x1eb3;" horiz-adv-x="517" 
d="M491 433l-104 -7l-15 -46q-4 28 -24 41t-47 13q-58 0 -109 -26t-89 -67.5t-60 -92t-22 -98.5q0 -30 7 -58.5t22.5 -51t41 -36t61.5 -13.5q38 0 75 32.5t63 94.5q-18 -54 1 -90.5t64 -36.5q15 0 33 6.5t36.5 19t36 32t30.5 45.5l-7 4q-23 -42 -47 -60t-47 -18
q-14 0 -19.5 9t-0.5 22zM365 359l-63 -196q-13 -33 -28 -61.5t-32.5 -50.5t-37 -34.5t-40.5 -12.5q-26 0 -38 16.5t-12 55.5q0 21 4.5 49.5t12.5 60.5t19.5 65t25.5 62.5t30.5 53t34.5 37.5t31 18.5t29 4.5q32 0 49 -18.5t15 -49.5zM511 671q1 2 -3 2t-5 -2q-4 -13 -13 -29
t-26 -29.5t-43.5 -23t-65.5 -9.5t-62 9.5t-34.5 23t-12.5 29.5t3 29q1 2 -3 2t-5 -2q-8 -24 -9 -51t8 -50t31.5 -38.5t63.5 -15.5q40 0 70 15.5t51 38.5t34 50t21 51zM372 656q-3 34 6.5 52.5t23.5 32t28 26.5t20 37q5 21 4.5 34.5t-5 21.5t-11.5 12.5t-15 6.5
q-17 5 -25.5 -0.5t-10.5 -17.5t3.5 -25t1.5 -36q-6 -35 -41 -29q-23 4 -35 20.5t-7 39.5q3 19 14 31.5t26.5 19.5t33.5 8.5t35 -1.5q25 -5 42 -18.5t26 -31t10.5 -36t-2.5 -33.5q-8 -25 -26.5 -38t-38.5 -22.5t-36.5 -20.5t-20.5 -33z" />
    <glyph glyph-name="uni1EB4" unicode="&#x1eb4;" horiz-adv-x="656" 
d="M606 0q2 0 2.5 4t-1.5 4h-91q-7 0 -7 3v712q0 2 -4.5 2.5t-6.5 -2.5l-525 -674q-22 -27 -30 -34t-15 -7h-80q-2 0 -3 -4t1 -4h202q2 0 3 4t-1 4h-89q-6 0 -3 6.5t25 35.5l152 194h241v-233q0 -3 -6 -3h-78q-2 0 -3 -4t1 -4h316zM376 252h-235l235 301v-301zM698 942
q1 2 -3 2t-5 -2q-4 -13 -13 -29t-26 -29.5t-43.5 -23t-65.5 -9.5t-62 9.5t-34.5 23t-12.5 29.5t3 29q1 2 -3 2t-5 -2q-8 -24 -9 -51t8 -50t31.5 -38.5t63.5 -15.5q40 0 70 15.5t51 38.5t34 50t21 51zM776 1097q0 2 -5 2q-4 0 -4 -2q0 -24 -14.5 -45t-48.5 -21q-17 0 -36 9
t-40.5 20.5t-45 20.5t-48.5 9q-24 0 -47 -9t-40.5 -24.5t-28 -36.5t-10.5 -45q0 -2 4 -2t4 2q0 25 15 46t49 21q17 0 36 -9.5t40 -20.5t44.5 -20.5t48.5 -9.5q24 0 47 9t41 25t28.5 36.5t10.5 44.5z" />
    <glyph glyph-name="uni1EB5" unicode="&#x1eb5;" horiz-adv-x="517" 
d="M491 433l-104 -7l-15 -46q-4 28 -24 41t-47 13q-58 0 -109 -26t-89 -67.5t-60 -92t-22 -98.5q0 -30 7 -58.5t22.5 -51t41 -36t61.5 -13.5q38 0 75 32.5t63 94.5q-18 -54 1 -90.5t64 -36.5q15 0 33 6.5t36.5 19t36 32t30.5 45.5l-7 4q-23 -42 -47 -60t-47 -18
q-14 0 -19.5 9t-0.5 22zM365 359l-63 -196q-13 -33 -28 -61.5t-32.5 -50.5t-37 -34.5t-40.5 -12.5q-26 0 -38 16.5t-12 55.5q0 21 4.5 49.5t12.5 60.5t19.5 65t25.5 62.5t30.5 53t34.5 37.5t31 18.5t29 4.5q32 0 49 -18.5t15 -49.5zM511 671q1 2 -3 2t-5 -2q-4 -13 -13 -29
t-26 -29.5t-43.5 -23t-65.5 -9.5t-62 9.5t-34.5 23t-12.5 29.5t3 29q1 2 -3 2t-5 -2q-8 -24 -9 -51t8 -50t31.5 -38.5t63.5 -15.5q40 0 70 15.5t51 38.5t34 50t21 51zM593 838q0 2 -5 2q-4 0 -4 -2q0 -24 -14.5 -45t-48.5 -21q-17 0 -36 9t-40.5 20.5t-45 20.5t-48.5 9
q-24 0 -47 -9t-40.5 -24.5t-28 -36.5t-10.5 -45q0 -2 4 -2t4 2q0 25 15 46t49 21q17 0 36 -9.5t40 -20.5t44.5 -20.5t48.5 -9.5q24 0 47 9t41 25t28.5 36.5t10.5 44.5z" />
    <glyph glyph-name="uni1EB6" unicode="&#x1eb6;" horiz-adv-x="656" 
d="M244 -111q0 -25 -17.5 -44.5t-40.5 -19.5q-16 0 -26 11t-10 28q0 25 17.5 43.5t40.5 18.5q16 0 26 -10t10 -27zM606 0q2 0 2.5 4t-1.5 4h-91q-7 0 -7 3v712q0 2 -4.5 2.5t-6.5 -2.5l-525 -674q-22 -27 -30 -34t-15 -7h-80q-2 0 -3 -4t1 -4h202q2 0 3 4t-1 4h-89
q-6 0 -3 6.5t25 35.5l152 194h241v-233q0 -3 -6 -3h-78q-2 0 -3 -4t1 -4h316zM376 252h-235l235 301v-301zM698 942q1 2 -3 2t-5 -2q-4 -13 -13 -29t-26 -29.5t-43.5 -23t-65.5 -9.5t-62 9.5t-34.5 23t-12.5 29.5t3 29q1 2 -3 2t-5 -2q-8 -24 -9 -51t8 -50t31.5 -38.5
t63.5 -15.5q40 0 70 15.5t51 38.5t34 50t21 51z" />
    <glyph glyph-name="uni1EB7" unicode="&#x1eb7;" horiz-adv-x="517" 
d="M256 -111q0 -25 -17.5 -44.5t-40.5 -19.5q-16 0 -26 11t-10 28q0 25 17.5 43.5t40.5 18.5q16 0 26 -10t10 -27zM491 433l-104 -7l-15 -46q-4 28 -24 41t-47 13q-58 0 -109 -26t-89 -67.5t-60 -92t-22 -98.5q0 -30 7 -58.5t22.5 -51t41 -36t61.5 -13.5q38 0 75 32.5
t63 94.5q-18 -54 1 -90.5t64 -36.5q15 0 33 6.5t36.5 19t36 32t30.5 45.5l-7 4q-23 -42 -47 -60t-47 -18q-14 0 -19.5 9t-0.5 22zM365 359l-63 -196q-13 -33 -28 -61.5t-32.5 -50.5t-37 -34.5t-40.5 -12.5q-26 0 -38 16.5t-12 55.5q0 21 4.5 49.5t12.5 60.5t19.5 65
t25.5 62.5t30.5 53t34.5 37.5t31 18.5t29 4.5q32 0 49 -18.5t15 -49.5zM511 671q1 2 -3 2t-5 -2q-4 -13 -13 -29t-26 -29.5t-43.5 -23t-65.5 -9.5t-62 9.5t-34.5 23t-12.5 29.5t3 29q1 2 -3 2t-5 -2q-8 -24 -9 -51t8 -50t31.5 -38.5t63.5 -15.5q40 0 70 15.5t51 38.5t34 50
t21 51z" />
    <glyph glyph-name="uni1EB8" unicode="&#x1eb8;" horiz-adv-x="667" 
d="M699 706q1 3 -2 3h-529q-2 0 -3 -4t1 -4h89q6 0 6 -3l-217 -687q-2 -3 -8 -3h-89q-2 0 -3.5 -4t0.5 -4h584q3 0 3 3l72 225q0 2 -4 2t-5 -2q-12 -38 -39.5 -77.5t-68.5 -71t-96 -51.5t-122 -20h-80q-6 0 -6 3l114 359h24q31 0 52 -13t33 -33.5t13.5 -46.5t-6.5 -52
q-1 -2 3 -2t5 2l86 275q1 2 -3 2t-5 -2q-8 -26 -24.5 -48.5t-40 -39t-51.5 -26t-59 -9.5h-24l100 321q1 3 8 3h90q48 0 79.5 -18.5t47.5 -47.5t18 -64.5t-9 -70.5q-1 -2 3 -2q5 0 6 2zM299 -111q0 -25 -17.5 -44.5t-40.5 -19.5q-16 0 -26 11t-10 28q0 25 17.5 43.5
t40.5 18.5q16 0 26 -10t10 -27z" />
    <glyph glyph-name="uni1EB9" unicode="&#x1eb9;" horiz-adv-x="420" 
d="M401 350q0 15 -8 30t-23.5 27t-39.5 20t-55 8q-50 0 -96 -23t-81 -61.5t-56 -88t-21 -103.5q0 -37 12 -68t33 -53t49.5 -34.5t62.5 -12.5q51 0 87 20t71 62l-5 5q-15 -17 -30 -31t-33 -25t-40.5 -17t-52.5 -6q-38 0 -52 22.5t-14 58.5q0 22 7.5 60t20.5 82h43
q45 0 85.5 8.5t70.5 25t47.5 40.5t17.5 54zM316 372q0 -24 -6.5 -49t-23.5 -46t-46.5 -34t-75.5 -13h-25q12 41 23 77t26 62.5t35.5 42t50.5 15.5q20 0 31 -12.5t11 -42.5zM172 -111q0 -25 -17.5 -44.5t-40.5 -19.5q-16 0 -26 11t-10 28q0 25 17.5 43.5t40.5 18.5
q16 0 26 -10t10 -27z" />
    <glyph glyph-name="uni1EBA" unicode="&#x1eba;" horiz-adv-x="667" 
d="M699 706q1 3 -2 3h-529q-2 0 -3 -4t1 -4h89q6 0 6 -3l-217 -687q-2 -3 -8 -3h-89q-2 0 -3.5 -4t0.5 -4h584q3 0 3 3l72 225q0 2 -4 2t-5 -2q-12 -38 -39.5 -77.5t-68.5 -71t-96 -51.5t-122 -20h-80q-6 0 -6 3l114 359h24q31 0 52 -13t33 -33.5t13.5 -46.5t-6.5 -52
q-1 -2 3 -2t5 2l86 275q1 2 -3 2t-5 -2q-8 -26 -24.5 -48.5t-40 -39t-51.5 -26t-59 -9.5h-24l100 321q1 3 8 3h90q48 0 79.5 -18.5t47.5 -47.5t18 -64.5t-9 -70.5q-1 -2 3 -2q5 0 6 2zM484 814q-3 34 6.5 52.5t23.5 32t28 26.5t20 37q5 21 4.5 34.5t-5 21.5t-11.5 12.5
t-15 6.5q-17 5 -25.5 -0.5t-10.5 -17.5t3.5 -25t1.5 -36q-6 -35 -41 -29q-23 4 -35 20.5t-7 39.5q3 19 14 31.5t26.5 19.5t33.5 8.5t35 -1.5q25 -5 42 -18.5t26 -31t10.5 -36t-2.5 -33.5q-8 -25 -26.5 -38t-38.5 -22.5t-36.5 -20.5t-20.5 -33z" />
    <glyph glyph-name="uni1EBB" unicode="&#x1ebb;" horiz-adv-x="420" 
d="M401 350q0 15 -8 30t-23.5 27t-39.5 20t-55 8q-50 0 -96 -23t-81 -61.5t-56 -88t-21 -103.5q0 -37 12 -68t33 -53t49.5 -34.5t62.5 -12.5q51 0 87 20t71 62l-5 5q-15 -17 -30 -31t-33 -25t-40.5 -17t-52.5 -6q-38 0 -52 22.5t-14 58.5q0 22 7.5 60t20.5 82h43
q45 0 85.5 8.5t70.5 25t47.5 40.5t17.5 54zM316 372q0 -24 -6.5 -49t-23.5 -46t-46.5 -34t-75.5 -13h-25q12 41 23 77t26 62.5t35.5 42t50.5 15.5q20 0 31 -12.5t11 -42.5zM302 516q-3 34 6.5 52.5t23.5 32t28 26.5t20 37q5 21 4.5 34.5t-5 21.5t-11.5 12.5t-15 6.5
q-17 5 -25.5 -0.5t-10.5 -17.5t3.5 -25t1.5 -36q-6 -35 -41 -29q-23 4 -35 20.5t-7 39.5q3 19 14 31.5t26.5 19.5t33.5 8.5t35 -1.5q25 -5 42 -18.5t26 -31t10.5 -36t-2.5 -33.5q-8 -25 -26.5 -38t-38.5 -22.5t-36.5 -20.5t-20.5 -33z" />
    <glyph glyph-name="uni1EBC" unicode="&#x1ebc;" horiz-adv-x="667" 
d="M699 706q1 3 -2 3h-529q-2 0 -3 -4t1 -4h89q6 0 6 -3l-217 -687q-2 -3 -8 -3h-89q-2 0 -3.5 -4t0.5 -4h584q3 0 3 3l72 225q0 2 -4 2t-5 -2q-12 -38 -39.5 -77.5t-68.5 -71t-96 -51.5t-122 -20h-80q-6 0 -6 3l114 359h24q31 0 52 -13t33 -33.5t13.5 -46.5t-6.5 -52
q-1 -2 3 -2t5 2l86 275q1 2 -3 2t-5 -2q-8 -26 -24.5 -48.5t-40 -39t-51.5 -26t-59 -9.5h-24l100 321q1 3 8 3h90q48 0 79.5 -18.5t47.5 -47.5t18 -64.5t-9 -70.5q-1 -2 3 -2q5 0 6 2zM708 935q0 2 -5 2q-4 0 -4 -2q0 -24 -14.5 -45t-48.5 -21q-17 0 -36 9t-40.5 20.5
t-45 20.5t-48.5 9q-24 0 -47 -9t-40.5 -24.5t-28 -36.5t-10.5 -45q0 -2 4 -2t4 2q0 25 15 46t49 21q17 0 36 -9.5t40 -20.5t44.5 -20.5t48.5 -9.5q24 0 47 9t41 25t28.5 36.5t10.5 44.5z" />
    <glyph glyph-name="uni1EBD" unicode="&#x1ebd;" horiz-adv-x="420" 
d="M401 350q0 15 -8 30t-23.5 27t-39.5 20t-55 8q-50 0 -96 -23t-81 -61.5t-56 -88t-21 -103.5q0 -37 12 -68t33 -53t49.5 -34.5t62.5 -12.5q51 0 87 20t71 62l-5 5q-15 -17 -30 -31t-33 -25t-40.5 -17t-52.5 -6q-38 0 -52 22.5t-14 58.5q0 22 7.5 60t20.5 82h43
q45 0 85.5 8.5t70.5 25t47.5 40.5t17.5 54zM316 372q0 -24 -6.5 -49t-23.5 -46t-46.5 -34t-75.5 -13h-25q12 41 23 77t26 62.5t35.5 42t50.5 15.5q20 0 31 -12.5t11 -42.5zM471 661q0 2 -5 2q-4 0 -4 -2q0 -24 -14.5 -45t-48.5 -21q-17 0 -36 9t-40.5 20.5t-45 20.5t-48.5 9
q-24 0 -47 -9t-40.5 -24.5t-28 -36.5t-10.5 -45q0 -2 4 -2t4 2q0 25 15 46t49 21q17 0 36 -9.5t40 -20.5t44.5 -20.5t48.5 -9.5q24 0 47 9t41 25t28.5 36.5t10.5 44.5z" />
    <glyph glyph-name="uni1EBE" unicode="&#x1ebe;" horiz-adv-x="666" 
d="M699 706q1 3 -2 3h-529q-2 0 -3 -4t1 -4h89q6 0 6 -3l-217 -687q-2 -3 -8 -3h-89q-2 0 -3.5 -4t0.5 -4h584q3 0 3 3l72 225q0 2 -4 2t-5 -2q-12 -38 -39.5 -77.5t-68.5 -71t-96 -51.5t-122 -20h-80q-6 0 -6 3l114 359h24q31 0 52 -13t33 -33.5t13.5 -46.5t-6.5 -52
q-1 -2 3 -2t5 2l86 275q1 2 -3 2t-5 -2q-8 -26 -24.5 -48.5t-40 -39t-51.5 -26t-59 -9.5h-24l100 321q1 3 8 3h90q48 0 79.5 -18.5t47.5 -47.5t18 -64.5t-9 -70.5q-1 -2 3 -2q5 0 6 2zM617 777q-8 19 -16.5 43.5t-15.5 50t-12 51t-8 47.5q0 2 -3 2.5t-5 -1.5
q-17 -18 -37.5 -41t-43.5 -48.5t-49 -52t-54 -50.5q-2 -2 1 -4.5t5 -0.5q36 31 69.5 61.5t60.5 57.5q8 -38 20 -69t24 -53zM732 1138q0 17 -10 27t-27 10q-21 0 -40.5 -25.5t-46.5 -58.5t-68 -64.5t-106 -44.5q-2 0 -2 -4t2 -4q75 13 131 34t93 44.5t55.5 46t18.5 39.5z" />
    <glyph glyph-name="uni1EBF" unicode="&#x1ebf;" horiz-adv-x="419" 
d="M401 350q0 15 -8 30t-23.5 27t-39.5 20t-55 8q-50 0 -96 -23t-81 -61.5t-56 -88t-21 -103.5q0 -37 12 -68t33 -53t49.5 -34.5t62.5 -12.5q51 0 87 20t71 62l-5 5q-15 -17 -30 -31t-33 -25t-40.5 -17t-52.5 -6q-38 0 -52 22.5t-14 58.5q0 22 7.5 60t20.5 82h43
q45 0 85.5 8.5t70.5 25t47.5 40.5t17.5 54zM316 372q0 -24 -6.5 -49t-23.5 -46t-46.5 -34t-75.5 -13h-25q12 41 23 77t26 62.5t35.5 42t50.5 15.5q20 0 31 -12.5t11 -42.5zM425 522q-8 19 -16.5 43.5t-15.5 50t-12 51t-8 47.5q0 2 -3 2.5t-5 -1.5q-17 -18 -37.5 -41
t-43.5 -48.5t-49 -52t-54 -50.5q-2 -2 1 -4.5t5 -0.5q36 31 69.5 61.5t60.5 57.5q8 -38 20 -69t24 -53zM530 886q0 17 -10 27t-27 10q-21 0 -40.5 -25.5t-46.5 -58.5t-68 -64.5t-106 -44.5q-2 0 -2 -4t2 -4q75 13 131 34t93 44.5t55.5 46t18.5 39.5z" />
    <glyph glyph-name="uni1EC0" unicode="&#x1ec0;" horiz-adv-x="666" 
d="M699 706q1 3 -2 3h-529q-2 0 -3 -4t1 -4h89q6 0 6 -3l-217 -687q-2 -3 -8 -3h-89q-2 0 -3.5 -4t0.5 -4h584q3 0 3 3l72 225q0 2 -4 2t-5 -2q-12 -38 -39.5 -77.5t-68.5 -71t-96 -51.5t-122 -20h-80q-6 0 -6 3l114 359h24q31 0 52 -13t33 -33.5t13.5 -46.5t-6.5 -52
q-1 -2 3 -2t5 2l86 275q1 2 -3 2t-5 -2q-8 -26 -24.5 -48.5t-40 -39t-51.5 -26t-59 -9.5h-24l100 321q1 3 8 3h90q48 0 79.5 -18.5t47.5 -47.5t18 -64.5t-9 -70.5q-1 -2 3 -2q5 0 6 2zM617 777q-8 19 -16.5 43.5t-15.5 50t-12 51t-8 47.5q0 2 -3 2.5t-5 -1.5
q-17 -18 -37.5 -41t-43.5 -48.5t-49 -52t-54 -50.5q-2 -2 1 -4.5t5 -0.5q36 31 69.5 61.5t60.5 57.5q8 -38 20 -69t24 -53zM679 985q-36 9 -58 28t-36 42t-21.5 47t-14 44t-14 33t-20.5 13q-19 0 -31 -13t-12 -33q0 -17 7 -39.5t29 -46t62.5 -45.5t106.5 -38q2 -1 3 3t-1 5z
" />
    <glyph glyph-name="uni1EC1" unicode="&#x1ec1;" horiz-adv-x="419" 
d="M401 350q0 15 -8 30t-23.5 27t-39.5 20t-55 8q-50 0 -96 -23t-81 -61.5t-56 -88t-21 -103.5q0 -37 12 -68t33 -53t49.5 -34.5t62.5 -12.5q51 0 87 20t71 62l-5 5q-15 -17 -30 -31t-33 -25t-40.5 -17t-52.5 -6q-38 0 -52 22.5t-14 58.5q0 22 7.5 60t20.5 82h43
q45 0 85.5 8.5t70.5 25t47.5 40.5t17.5 54zM316 372q0 -24 -6.5 -49t-23.5 -46t-46.5 -34t-75.5 -13h-25q12 41 23 77t26 62.5t35.5 42t50.5 15.5q20 0 31 -12.5t11 -42.5zM425 522q-8 19 -16.5 43.5t-15.5 50t-12 51t-8 47.5q0 2 -3 2.5t-5 -1.5q-17 -18 -37.5 -41
t-43.5 -48.5t-49 -52t-54 -50.5q-2 -2 1 -4.5t5 -0.5q36 31 69.5 61.5t60.5 57.5q8 -38 20 -69t24 -53zM486 731q-36 9 -58 28t-36 42t-21.5 47t-14 44t-14 33t-20.5 13q-19 0 -31 -13t-12 -33q0 -17 7 -39.5t29 -46t62.5 -45.5t106.5 -38q2 -1 3 3t-1 5z" />
    <glyph glyph-name="uni1EC2" unicode="&#x1ec2;" horiz-adv-x="666" 
d="M699 706q1 3 -2 3h-529q-2 0 -3 -4t1 -4h89q6 0 6 -3l-217 -687q-2 -3 -8 -3h-89q-2 0 -3.5 -4t0.5 -4h584q3 0 3 3l72 225q0 2 -4 2t-5 -2q-12 -38 -39.5 -77.5t-68.5 -71t-96 -51.5t-122 -20h-80q-6 0 -6 3l114 359h24q31 0 52 -13t33 -33.5t13.5 -46.5t-6.5 -52
q-1 -2 3 -2t5 2l86 275q1 2 -3 2t-5 -2q-8 -26 -24.5 -48.5t-40 -39t-51.5 -26t-59 -9.5h-24l100 321q1 3 8 3h90q48 0 79.5 -18.5t47.5 -47.5t18 -64.5t-9 -70.5q-1 -2 3 -2q5 0 6 2zM617 777q-8 19 -16.5 43.5t-15.5 50t-12 51t-8 47.5q0 2 -3 2.5t-5 -1.5
q-17 -18 -37.5 -41t-43.5 -48.5t-49 -52t-54 -50.5q-2 -2 1 -4.5t5 -0.5q36 31 69.5 61.5t60.5 57.5q8 -38 20 -69t24 -53zM626 917q-3 34 6.5 52.5t23.5 32t28 26.5t20 37q5 21 4.5 34.5t-5 21.5t-11.5 12.5t-15 6.5q-17 5 -25.5 -0.5t-10.5 -17.5t3.5 -25t1.5 -36
q-6 -35 -41 -29q-23 4 -35 20.5t-7 39.5q3 19 14 31.5t26.5 19.5t33.5 8.5t35 -1.5q25 -5 42 -18.5t26 -31t10.5 -36t-2.5 -33.5q-8 -25 -26.5 -38t-38.5 -22.5t-36.5 -20.5t-20.5 -33z" />
    <glyph glyph-name="uni1EC3" unicode="&#x1ec3;" horiz-adv-x="419" 
d="M401 350q0 15 -8 30t-23.5 27t-39.5 20t-55 8q-50 0 -96 -23t-81 -61.5t-56 -88t-21 -103.5q0 -37 12 -68t33 -53t49.5 -34.5t62.5 -12.5q51 0 87 20t71 62l-5 5q-15 -17 -30 -31t-33 -25t-40.5 -17t-52.5 -6q-38 0 -52 22.5t-14 58.5q0 22 7.5 60t20.5 82h43
q45 0 85.5 8.5t70.5 25t47.5 40.5t17.5 54zM316 372q0 -24 -6.5 -49t-23.5 -46t-46.5 -34t-75.5 -13h-25q12 41 23 77t26 62.5t35.5 42t50.5 15.5q20 0 31 -12.5t11 -42.5zM425 522q-8 19 -16.5 43.5t-15.5 50t-12 51t-8 47.5q0 2 -3 2.5t-5 -1.5q-17 -18 -37.5 -41
t-43.5 -48.5t-49 -52t-54 -50.5q-2 -2 1 -4.5t5 -0.5q36 31 69.5 61.5t60.5 57.5q8 -38 20 -69t24 -53zM433 656q-3 34 6.5 52.5t23.5 32t28 26.5t20 37q5 21 4.5 34.5t-5 21.5t-11.5 12.5t-15 6.5q-17 5 -25.5 -0.5t-10.5 -17.5t3.5 -25t1.5 -36q-6 -35 -41 -29
q-23 4 -35 20.5t-7 39.5q3 19 14 31.5t26.5 19.5t33.5 8.5t35 -1.5q25 -5 42 -18.5t26 -31t10.5 -36t-2.5 -33.5q-8 -25 -26.5 -38t-38.5 -22.5t-36.5 -20.5t-20.5 -33z" />
    <glyph glyph-name="uni1EC4" unicode="&#x1ec4;" horiz-adv-x="666" 
d="M699 706q1 3 -2 3h-529q-2 0 -3 -4t1 -4h89q6 0 6 -3l-217 -687q-2 -3 -8 -3h-89q-2 0 -3.5 -4t0.5 -4h584q3 0 3 3l72 225q0 2 -4 2t-5 -2q-12 -38 -39.5 -77.5t-68.5 -71t-96 -51.5t-122 -20h-80q-6 0 -6 3l114 359h24q31 0 52 -13t33 -33.5t13.5 -46.5t-6.5 -52
q-1 -2 3 -2t5 2l86 275q1 2 -3 2t-5 -2q-8 -26 -24.5 -48.5t-40 -39t-51.5 -26t-59 -9.5h-24l100 321q1 3 8 3h90q48 0 79.5 -18.5t47.5 -47.5t18 -64.5t-9 -70.5q-1 -2 3 -2q5 0 6 2zM617 777q-8 19 -16.5 43.5t-15.5 50t-12 51t-8 47.5q0 2 -3 2.5t-5 -1.5
q-17 -18 -37.5 -41t-43.5 -48.5t-49 -52t-54 -50.5q-2 -2 1 -4.5t5 -0.5q36 31 69.5 61.5t60.5 57.5q8 -38 20 -69t24 -53zM760 1097q0 2 -5 2q-4 0 -4 -2q0 -24 -14.5 -45t-48.5 -21q-17 0 -36 9t-40.5 20.5t-45 20.5t-48.5 9q-24 0 -47 -9t-40.5 -24.5t-28 -36.5
t-10.5 -45q0 -2 4 -2t4 2q0 25 15 46t49 21q17 0 36 -9.5t40 -20.5t44.5 -20.5t48.5 -9.5q24 0 47 9t41 25t28.5 36.5t10.5 44.5z" />
    <glyph glyph-name="uni1EC5" unicode="&#x1ec5;" horiz-adv-x="419" 
d="M401 350q0 15 -8 30t-23.5 27t-39.5 20t-55 8q-50 0 -96 -23t-81 -61.5t-56 -88t-21 -103.5q0 -37 12 -68t33 -53t49.5 -34.5t62.5 -12.5q51 0 87 20t71 62l-5 5q-15 -17 -30 -31t-33 -25t-40.5 -17t-52.5 -6q-38 0 -52 22.5t-14 58.5q0 22 7.5 60t20.5 82h43
q45 0 85.5 8.5t70.5 25t47.5 40.5t17.5 54zM316 372q0 -24 -6.5 -49t-23.5 -46t-46.5 -34t-75.5 -13h-25q12 41 23 77t26 62.5t35.5 42t50.5 15.5q20 0 31 -12.5t11 -42.5zM425 522q-8 19 -16.5 43.5t-15.5 50t-12 51t-8 47.5q0 2 -3 2.5t-5 -1.5q-17 -18 -37.5 -41
t-43.5 -48.5t-49 -52t-54 -50.5q-2 -2 1 -4.5t5 -0.5q36 31 69.5 61.5t60.5 57.5q8 -38 20 -69t24 -53zM558 864q0 2 -5 2q-4 0 -4 -2q0 -24 -14.5 -45t-48.5 -21q-17 0 -36 9t-40.5 20.5t-45 20.5t-48.5 9q-24 0 -47 -9t-40.5 -24.5t-28 -36.5t-10.5 -45q0 -2 4 -2t4 2
q0 25 15 46t49 21q17 0 36 -9.5t40 -20.5t44.5 -20.5t48.5 -9.5q24 0 47 9t41 25t28.5 36.5t10.5 44.5z" />
    <glyph glyph-name="uni1EC6" unicode="&#x1ec6;" horiz-adv-x="667" 
d="M299 -111q0 -25 -17.5 -44.5t-40.5 -19.5q-16 0 -26 11t-10 28q0 25 17.5 43.5t40.5 18.5q16 0 26 -10t10 -27zM699 706q1 3 -2 3h-529q-2 0 -3 -4t1 -4h89q6 0 6 -3l-217 -687q-2 -3 -8 -3h-89q-2 0 -3.5 -4t0.5 -4h584q3 0 3 3l72 225q0 2 -4 2t-5 -2
q-12 -38 -39.5 -77.5t-68.5 -71t-96 -51.5t-122 -20h-80q-6 0 -6 3l114 359h24q31 0 52 -13t33 -33.5t13.5 -46.5t-6.5 -52q-1 -2 3 -2t5 2l86 275q1 2 -3 2t-5 -2q-8 -26 -24.5 -48.5t-40 -39t-51.5 -26t-59 -9.5h-24l100 321q1 3 8 3h90q48 0 79.5 -18.5t47.5 -47.5
t18 -64.5t-9 -70.5q-1 -2 3 -2q5 0 6 2zM617 777q-8 19 -16.5 43.5t-15.5 50t-12 51t-8 47.5q0 2 -3 2.5t-5 -1.5q-17 -18 -37.5 -41t-43.5 -48.5t-49 -52t-54 -50.5q-2 -2 1 -4.5t5 -0.5q36 31 69.5 61.5t60.5 57.5q8 -38 20 -69t24 -53z" />
    <glyph glyph-name="uni1EC7" unicode="&#x1ec7;" horiz-adv-x="420" 
d="M401 350q0 15 -8 30t-23.5 27t-39.5 20t-55 8q-50 0 -96 -23t-81 -61.5t-56 -88t-21 -103.5q0 -37 12 -68t33 -53t49.5 -34.5t62.5 -12.5q51 0 87 20t71 62l-5 5q-15 -17 -30 -31t-33 -25t-40.5 -17t-52.5 -6q-38 0 -52 22.5t-14 58.5q0 22 7.5 60t20.5 82h43
q45 0 85.5 8.5t70.5 25t47.5 40.5t17.5 54zM316 372q0 -24 -6.5 -49t-23.5 -46t-46.5 -34t-75.5 -13h-25q12 41 23 77t26 62.5t35.5 42t50.5 15.5q20 0 31 -12.5t11 -42.5zM425 522q-8 19 -16.5 43.5t-15.5 50t-12 51t-8 47.5q0 2 -3 2.5t-5 -1.5q-17 -18 -37.5 -41
t-43.5 -48.5t-49 -52t-54 -50.5q-2 -2 1 -4.5t5 -0.5q36 31 69.5 61.5t60.5 57.5q8 -38 20 -69t24 -53zM172 -111q0 -25 -17.5 -44.5t-40.5 -19.5q-16 0 -26 11t-10 28q0 25 17.5 43.5t40.5 18.5q16 0 26 -10t10 -27z" />
    <glyph glyph-name="uni1EC8" unicode="&#x1ec8;" horiz-adv-x="414" 
d="M499 709h-331q-2 0 -3 -4t1 -4h90q7 0 5 -4l-217 -686q0 -3 -7 -3h-90q-2 0 -3 -4t1 -4h331q2 0 3 4t-1 4h-90q-7 0 -5 3l217 686q0 4 7 4h90q2 0 3 4t-1 4zM354 814q-3 34 6.5 52.5t23.5 32t28 26.5t20 37q5 21 4.5 34.5t-5 21.5t-11.5 12.5t-15 6.5q-17 5 -25.5 -0.5
t-10.5 -17.5t3.5 -25t1.5 -36q-6 -35 -41 -29q-23 4 -35 20.5t-7 39.5q3 19 14 31.5t26.5 19.5t33.5 8.5t35 -1.5q25 -5 42 -18.5t26 -31t10.5 -36t-2.5 -33.5q-8 -25 -26.5 -38t-38.5 -22.5t-36.5 -20.5t-20.5 -33z" />
    <glyph glyph-name="uni1EC9" unicode="&#x1ec9;" horiz-adv-x="279" 
d="M259 94q-13 -26 -30.5 -45.5t-36 -32.5t-37 -19t-33.5 -6q-42 0 -64.5 21t-22.5 53q0 31 16 71.5t34.5 83.5t34.5 84t16 74q0 17 -5.5 24t-19.5 7t-33 -16.5t-36 -52.5l-7 4q22 49 55.5 70t62.5 21q40 0 58 -21.5t18 -52.5q0 -37 -16 -80t-34.5 -84.5t-34.5 -78
t-16 -60.5q0 -17 7 -27.5t23 -10.5q23 0 46.5 16.5t47.5 61.5zM205 515q-3 34 6.5 52.5t23.5 32t28 26.5t20 37q5 21 4.5 34.5t-5 21.5t-11.5 12.5t-15 6.5q-17 5 -25.5 -0.5t-10.5 -17.5t3.5 -25t1.5 -36q-6 -35 -41 -29q-23 4 -35 20.5t-7 39.5q3 19 14 31.5t26.5 19.5
t33.5 8.5t35 -1.5q25 -5 42 -18.5t26 -31t10.5 -36t-2.5 -33.5q-8 -25 -26.5 -38t-38.5 -22.5t-36.5 -20.5t-20.5 -33z" />
    <glyph glyph-name="uni1ECA" unicode="&#x1eca;" horiz-adv-x="414" 
d="M499 709h-331q-2 0 -3 -4t1 -4h90q7 0 5 -4l-217 -686q0 -3 -7 -3h-90q-2 0 -3 -4t1 -4h331q2 0 3 4t-1 4h-90q-7 0 -5 3l217 686q0 4 7 4h90q2 0 3 4t-1 4zM126 -111q0 -25 -17.5 -44.5t-40.5 -19.5q-16 0 -26 11t-10 28q0 25 17.5 43.5t40.5 18.5q16 0 26 -10t10 -27z
" />
    <glyph glyph-name="uni1ECB" unicode="&#x1ecb;" horiz-adv-x="279" 
d="M286 625q0 24 -16.5 41t-40.5 17t-41 -17t-17 -41q0 -23 17 -40t41 -17t40.5 17t16.5 40zM259 94l-7 4q-24 -44 -47.5 -61t-46.5 -17q-16 0 -23 10.5t-7 27.5q0 24 16 60.5t34.5 78t34.5 84.5t16 80q0 31 -18 52.5t-58 21.5q-29 0 -62.5 -21t-55.5 -70l7 -4
q17 36 36 52.5t33 16.5t19.5 -7t5.5 -24q0 -33 -16 -74t-34.5 -84t-34.5 -83.5t-16 -71.5q0 -32 23 -53t64 -21q15 0 33.5 6t37 19t36 32.5t30.5 45.5zM177 -111q0 -25 -17.5 -44.5t-40.5 -19.5q-16 0 -26 11t-10 28q0 25 17.5 43.5t40.5 18.5q16 0 26 -10t10 -27z" />
    <glyph glyph-name="uni1ECC" unicode="&#x1ecc;" 
d="M716 459q0 62 -18.5 111.5t-51 84t-77.5 53t-99 18.5t-105.5 -18.5t-98.5 -51.5t-86.5 -78.5t-68.5 -98.5t-45.5 -111.5t-16.5 -118.5q0 -62 18.5 -111.5t51 -84t78 -52.5t99.5 -18q80 0 155.5 40.5t134.5 107.5t94.5 152.5t35.5 175.5zM606 594q0 -30 -8 -73.5
t-20.5 -93.5t-28.5 -102t-32.5 -98t-31.5 -82t-26 -53q-17 -27 -32.5 -46.5t-33.5 -32t-41 -18t-56 -5.5q-41 0 -67.5 10t-42 27.5t-21.5 40t-6 46.5q0 30 8 74t21 93.5t29 101.5t32.5 98t31.5 81.5t25 53.5q17 27 32.5 46.5t33.5 32t41.5 18t56.5 5.5q40 0 66.5 -10t42 -27
t21.5 -39.5t6 -47.5zM306 -111q0 -25 -17.5 -44.5t-40.5 -19.5q-16 0 -26 11t-10 28q0 25 17.5 43.5t40.5 18.5q16 0 26 -10t10 -27z" />
    <glyph glyph-name="uni1ECD" unicode="&#x1ecd;" horiz-adv-x="474" 
d="M433 267q0 37 -12 68t-33 53t-49.5 34.5t-62.5 12.5q-50 0 -96.5 -23t-81.5 -61.5t-56 -88t-21 -103.5q0 -37 12 -68t33 -53t49.5 -34.5t62.5 -12.5q50 0 96 23t81.5 61.5t56.5 88t21 103.5zM344 345q0 -13 -4 -36t-10 -51.5t-14 -58.5t-16.5 -57.5t-16 -48.5t-13.5 -31
q-35 -63 -96 -63q-38 0 -51.5 22.5t-13.5 58.5q0 20 8.5 61t20.5 85.5t24.5 83t20.5 53.5q19 32 41.5 48t54.5 16q38 0 51.5 -22.5t13.5 -59.5zM199 -111q0 -25 -17.5 -44.5t-40.5 -19.5q-16 0 -26 11t-10 28q0 25 17.5 43.5t40.5 18.5q16 0 26 -10t10 -27z" />
    <glyph glyph-name="uni1ECE" unicode="&#x1ece;" 
d="M716 459q0 62 -18.5 111.5t-51 84t-77.5 53t-99 18.5t-105.5 -18.5t-98.5 -51.5t-86.5 -78.5t-68.5 -98.5t-45.5 -111.5t-16.5 -118.5q0 -62 18.5 -111.5t51 -84t78 -52.5t99.5 -18q80 0 155.5 40.5t134.5 107.5t94.5 152.5t35.5 175.5zM606 594q0 -30 -8 -73.5
t-20.5 -93.5t-28.5 -102t-32.5 -98t-31.5 -82t-26 -53q-17 -27 -32.5 -46.5t-33.5 -32t-41 -18t-56 -5.5q-41 0 -67.5 10t-42 27.5t-21.5 40t-6 46.5q0 30 8 74t21 93.5t29 101.5t32.5 98t31.5 81.5t25 53.5q17 27 32.5 46.5t33.5 32t41.5 18t56.5 5.5q40 0 66.5 -10t42 -27
t21.5 -39.5t6 -47.5zM523 814q-3 34 6.5 52.5t23.5 32t28 26.5t20 37q5 21 4.5 34.5t-5 21.5t-11.5 12.5t-15 6.5q-17 5 -25.5 -0.5t-10.5 -17.5t3.5 -25t1.5 -36q-6 -35 -41 -29q-23 4 -35 20.5t-7 39.5q3 19 14 31.5t26.5 19.5t33.5 8.5t35 -1.5q25 -5 42 -18.5t26 -31
t10.5 -36t-2.5 -33.5q-8 -25 -26.5 -38t-38.5 -22.5t-36.5 -20.5t-20.5 -33z" />
    <glyph glyph-name="uni1ECF" unicode="&#x1ecf;" horiz-adv-x="474" 
d="M433 267q0 37 -12 68t-33 53t-49.5 34.5t-62.5 12.5q-50 0 -96.5 -23t-81.5 -61.5t-56 -88t-21 -103.5q0 -37 12 -68t33 -53t49.5 -34.5t62.5 -12.5q50 0 96 23t81.5 61.5t56.5 88t21 103.5zM344 345q0 -13 -4 -36t-10 -51.5t-14 -58.5t-16.5 -57.5t-16 -48.5t-13.5 -31
q-35 -63 -96 -63q-38 0 -51.5 22.5t-13.5 58.5q0 20 8.5 61t20.5 85.5t24.5 83t20.5 53.5q19 32 41.5 48t54.5 16q38 0 51.5 -22.5t13.5 -59.5zM305 516q-3 34 6.5 52.5t23.5 32t28 26.5t20 37q5 21 4.5 34.5t-5 21.5t-11.5 12.5t-15 6.5q-17 5 -25.5 -0.5t-10.5 -17.5
t3.5 -25t1.5 -36q-6 -35 -41 -29q-23 4 -35 20.5t-7 39.5q3 19 14 31.5t26.5 19.5t33.5 8.5t35 -1.5q25 -5 42 -18.5t26 -31t10.5 -36t-2.5 -33.5q-8 -25 -26.5 -38t-38.5 -22.5t-36.5 -20.5t-20.5 -33z" />
    <glyph glyph-name="uni1ED0" unicode="&#x1ed0;" 
d="M716 459q0 62 -18.5 111.5t-51 84t-77.5 53t-99 18.5t-105.5 -18.5t-98.5 -51.5t-86.5 -78.5t-68.5 -98.5t-45.5 -111.5t-16.5 -118.5q0 -62 18.5 -111.5t51 -84t78 -52.5t99.5 -18q80 0 155.5 40.5t134.5 107.5t94.5 152.5t35.5 175.5zM606 594q0 -30 -8 -73.5
t-20.5 -93.5t-28.5 -102t-32.5 -98t-31.5 -82t-26 -53q-17 -27 -32.5 -46.5t-33.5 -32t-41 -18t-56 -5.5q-41 0 -67.5 10t-42 27.5t-21.5 40t-6 46.5q0 30 8 74t21 93.5t29 101.5t32.5 98t31.5 81.5t25 53.5q17 27 32.5 46.5t33.5 32t41.5 18t56.5 5.5q40 0 66.5 -10t42 -27
t21.5 -39.5t6 -47.5zM638 777q-8 19 -16.5 43.5t-15.5 50t-12 51t-8 47.5q0 2 -3 2.5t-5 -1.5q-17 -18 -37.5 -41t-43.5 -48.5t-49 -52t-54 -50.5q-2 -2 1 -4.5t5 -0.5q36 31 69.5 61.5t60.5 57.5q8 -38 20 -69t24 -53zM751 1138q0 17 -10 27t-27 10q-21 0 -40.5 -25.5
t-46.5 -58.5t-68 -64.5t-106 -44.5q-2 0 -2 -4t2 -4q75 13 131 34t93 44.5t55.5 46t18.5 39.5z" />
    <glyph glyph-name="uni1ED1" unicode="&#x1ed1;" horiz-adv-x="474" 
d="M433 267q0 37 -12 68t-33 53t-49.5 34.5t-62.5 12.5q-50 0 -96.5 -23t-81.5 -61.5t-56 -88t-21 -103.5q0 -37 12 -68t33 -53t49.5 -34.5t62.5 -12.5q50 0 96 23t81.5 61.5t56.5 88t21 103.5zM344 345q0 -13 -4 -36t-10 -51.5t-14 -58.5t-16.5 -57.5t-16 -48.5t-13.5 -31
q-35 -63 -96 -63q-38 0 -51.5 22.5t-13.5 58.5q0 20 8.5 61t20.5 85.5t24.5 83t20.5 53.5q19 32 41.5 48t54.5 16q38 0 51.5 -22.5t13.5 -59.5zM437 522q-8 19 -16.5 43.5t-15.5 50t-12 51t-8 47.5q0 2 -3 2.5t-5 -1.5q-17 -18 -37.5 -41t-43.5 -48.5t-49 -52t-54 -50.5
q-2 -2 1 -4.5t5 -0.5q36 31 69.5 61.5t60.5 57.5q8 -38 20 -69t24 -53zM530 886q0 17 -10 27t-27 10q-21 0 -40.5 -25.5t-46.5 -58.5t-68 -64.5t-106 -44.5q-2 0 -2 -4t2 -4q75 13 131 34t93 44.5t55.5 46t18.5 39.5z" />
    <glyph glyph-name="uni1ED2" unicode="&#x1ed2;" 
d="M716 459q0 62 -18.5 111.5t-51 84t-77.5 53t-99 18.5t-105.5 -18.5t-98.5 -51.5t-86.5 -78.5t-68.5 -98.5t-45.5 -111.5t-16.5 -118.5q0 -62 18.5 -111.5t51 -84t78 -52.5t99.5 -18q80 0 155.5 40.5t134.5 107.5t94.5 152.5t35.5 175.5zM606 594q0 -30 -8 -73.5
t-20.5 -93.5t-28.5 -102t-32.5 -98t-31.5 -82t-26 -53q-17 -27 -32.5 -46.5t-33.5 -32t-41 -18t-56 -5.5q-41 0 -67.5 10t-42 27.5t-21.5 40t-6 46.5q0 30 8 74t21 93.5t29 101.5t32.5 98t31.5 81.5t25 53.5q17 27 32.5 46.5t33.5 32t41.5 18t56.5 5.5q40 0 66.5 -10t42 -27
t21.5 -39.5t6 -47.5zM638 777q-8 19 -16.5 43.5t-15.5 50t-12 51t-8 47.5q0 2 -3 2.5t-5 -1.5q-17 -18 -37.5 -41t-43.5 -48.5t-49 -52t-54 -50.5q-2 -2 1 -4.5t5 -0.5q36 31 69.5 61.5t60.5 57.5q8 -38 20 -69t24 -53zM691 983q-36 9 -58 28t-36 42t-21.5 47t-14 44t-14 33
t-20.5 13q-19 0 -31 -13t-12 -33q0 -17 7 -39.5t29 -46t62.5 -45.5t106.5 -38q2 -1 3 3t-1 5z" />
    <glyph glyph-name="uni1ED3" unicode="&#x1ed3;" horiz-adv-x="474" 
d="M433 267q0 37 -12 68t-33 53t-49.5 34.5t-62.5 12.5q-50 0 -96.5 -23t-81.5 -61.5t-56 -88t-21 -103.5q0 -37 12 -68t33 -53t49.5 -34.5t62.5 -12.5q50 0 96 23t81.5 61.5t56.5 88t21 103.5zM344 345q0 -13 -4 -36t-10 -51.5t-14 -58.5t-16.5 -57.5t-16 -48.5t-13.5 -31
q-35 -63 -96 -63q-38 0 -51.5 22.5t-13.5 58.5q0 20 8.5 61t20.5 85.5t24.5 83t20.5 53.5q19 32 41.5 48t54.5 16q38 0 51.5 -22.5t13.5 -59.5zM437 522q-8 19 -16.5 43.5t-15.5 50t-12 51t-8 47.5q0 2 -3 2.5t-5 -1.5q-17 -18 -37.5 -41t-43.5 -48.5t-49 -52t-54 -50.5
q-2 -2 1 -4.5t5 -0.5q36 31 69.5 61.5t60.5 57.5q8 -38 20 -69t24 -53zM500 732q-36 9 -58 28t-36 42t-21.5 47t-14 44t-14 33t-20.5 13q-19 0 -31 -13t-12 -33q0 -17 7 -39.5t29 -46t62.5 -45.5t106.5 -38q2 -1 3 3t-1 5z" />
    <glyph glyph-name="uni1ED4" unicode="&#x1ed4;" 
d="M716 459q0 62 -18.5 111.5t-51 84t-77.5 53t-99 18.5t-105.5 -18.5t-98.5 -51.5t-86.5 -78.5t-68.5 -98.5t-45.5 -111.5t-16.5 -118.5q0 -62 18.5 -111.5t51 -84t78 -52.5t99.5 -18q80 0 155.5 40.5t134.5 107.5t94.5 152.5t35.5 175.5zM606 594q0 -30 -8 -73.5
t-20.5 -93.5t-28.5 -102t-32.5 -98t-31.5 -82t-26 -53q-17 -27 -32.5 -46.5t-33.5 -32t-41 -18t-56 -5.5q-41 0 -67.5 10t-42 27.5t-21.5 40t-6 46.5q0 30 8 74t21 93.5t29 101.5t32.5 98t31.5 81.5t25 53.5q17 27 32.5 46.5t33.5 32t41.5 18t56.5 5.5q40 0 66.5 -10t42 -27
t21.5 -39.5t6 -47.5zM638 777q-8 19 -16.5 43.5t-15.5 50t-12 51t-8 47.5q0 2 -3 2.5t-5 -1.5q-17 -18 -37.5 -41t-43.5 -48.5t-49 -52t-54 -50.5q-2 -2 1 -4.5t5 -0.5q36 31 69.5 61.5t60.5 57.5q8 -38 20 -69t24 -53zM638 917q-3 34 6.5 52.5t23.5 32t28 26.5t20 37
q5 21 4.5 34.5t-5 21.5t-11.5 12.5t-15 6.5q-17 5 -25.5 -0.5t-10.5 -17.5t3.5 -25t1.5 -36q-6 -35 -41 -29q-23 4 -35 20.5t-7 39.5q3 19 14 31.5t26.5 19.5t33.5 8.5t35 -1.5q25 -5 42 -18.5t26 -31t10.5 -36t-2.5 -33.5q-8 -25 -26.5 -38t-38.5 -22.5t-36.5 -20.5
t-20.5 -33z" />
    <glyph glyph-name="uni1ED5" unicode="&#x1ed5;" horiz-adv-x="474" 
d="M433 267q0 37 -12 68t-33 53t-49.5 34.5t-62.5 12.5q-50 0 -96.5 -23t-81.5 -61.5t-56 -88t-21 -103.5q0 -37 12 -68t33 -53t49.5 -34.5t62.5 -12.5q50 0 96 23t81.5 61.5t56.5 88t21 103.5zM344 345q0 -13 -4 -36t-10 -51.5t-14 -58.5t-16.5 -57.5t-16 -48.5t-13.5 -31
q-35 -63 -96 -63q-38 0 -51.5 22.5t-13.5 58.5q0 20 8.5 61t20.5 85.5t24.5 83t20.5 53.5q19 32 41.5 48t54.5 16q38 0 51.5 -22.5t13.5 -59.5zM437 522q-8 19 -16.5 43.5t-15.5 50t-12 51t-8 47.5q0 2 -3 2.5t-5 -1.5q-17 -18 -37.5 -41t-43.5 -48.5t-49 -52t-54 -50.5
q-2 -2 1 -4.5t5 -0.5q36 31 69.5 61.5t60.5 57.5q8 -38 20 -69t24 -53zM435 656q-3 34 6.5 52.5t23.5 32t28 26.5t20 37q5 21 4.5 34.5t-5 21.5t-11.5 12.5t-15 6.5q-17 5 -25.5 -0.5t-10.5 -17.5t3.5 -25t1.5 -36q-6 -35 -41 -29q-23 4 -35 20.5t-7 39.5q3 19 14 31.5
t26.5 19.5t33.5 8.5t35 -1.5q25 -5 42 -18.5t26 -31t10.5 -36t-2.5 -33.5q-8 -25 -26.5 -38t-38.5 -22.5t-36.5 -20.5t-20.5 -33z" />
    <glyph glyph-name="uni1ED6" unicode="&#x1ed6;" 
d="M716 459q0 62 -18.5 111.5t-51 84t-77.5 53t-99 18.5t-105.5 -18.5t-98.5 -51.5t-86.5 -78.5t-68.5 -98.5t-45.5 -111.5t-16.5 -118.5q0 -62 18.5 -111.5t51 -84t78 -52.5t99.5 -18q80 0 155.5 40.5t134.5 107.5t94.5 152.5t35.5 175.5zM606 594q0 -30 -8 -73.5
t-20.5 -93.5t-28.5 -102t-32.5 -98t-31.5 -82t-26 -53q-17 -27 -32.5 -46.5t-33.5 -32t-41 -18t-56 -5.5q-41 0 -67.5 10t-42 27.5t-21.5 40t-6 46.5q0 30 8 74t21 93.5t29 101.5t32.5 98t31.5 81.5t25 53.5q17 27 32.5 46.5t33.5 32t41.5 18t56.5 5.5q40 0 66.5 -10t42 -27
t21.5 -39.5t6 -47.5zM638 777q-8 19 -16.5 43.5t-15.5 50t-12 51t-8 47.5q0 2 -3 2.5t-5 -1.5q-17 -18 -37.5 -41t-43.5 -48.5t-49 -52t-54 -50.5q-2 -2 1 -4.5t5 -0.5q36 31 69.5 61.5t60.5 57.5q8 -38 20 -69t24 -53zM776 1097q0 2 -5 2q-4 0 -4 -2q0 -24 -14.5 -45
t-48.5 -21q-17 0 -36 9t-40.5 20.5t-45 20.5t-48.5 9q-24 0 -47 -9t-40.5 -24.5t-28 -36.5t-10.5 -45q0 -2 4 -2t4 2q0 25 15 46t49 21q17 0 36 -9.5t40 -20.5t44.5 -20.5t48.5 -9.5q24 0 47 9t41 25t28.5 36.5t10.5 44.5z" />
    <glyph glyph-name="uni1ED7" unicode="&#x1ed7;" horiz-adv-x="474" 
d="M433 267q0 37 -12 68t-33 53t-49.5 34.5t-62.5 12.5q-50 0 -96.5 -23t-81.5 -61.5t-56 -88t-21 -103.5q0 -37 12 -68t33 -53t49.5 -34.5t62.5 -12.5q50 0 96 23t81.5 61.5t56.5 88t21 103.5zM344 345q0 -13 -4 -36t-10 -51.5t-14 -58.5t-16.5 -57.5t-16 -48.5t-13.5 -31
q-35 -63 -96 -63q-38 0 -51.5 22.5t-13.5 58.5q0 20 8.5 61t20.5 85.5t24.5 83t20.5 53.5q19 32 41.5 48t54.5 16q38 0 51.5 -22.5t13.5 -59.5zM437 522q-8 19 -16.5 43.5t-15.5 50t-12 51t-8 47.5q0 2 -3 2.5t-5 -1.5q-17 -18 -37.5 -41t-43.5 -48.5t-49 -52t-54 -50.5
q-2 -2 1 -4.5t5 -0.5q36 31 69.5 61.5t60.5 57.5q8 -38 20 -69t24 -53zM558 864q0 2 -5 2q-4 0 -4 -2q0 -24 -14.5 -45t-48.5 -21q-17 0 -36 9t-40.5 20.5t-45 20.5t-48.5 9q-24 0 -47 -9t-40.5 -24.5t-28 -36.5t-10.5 -45q0 -2 4 -2t4 2q0 25 15 46t49 21q17 0 36 -9.5
t40 -20.5t44.5 -20.5t48.5 -9.5q24 0 47 9t41 25t28.5 36.5t10.5 44.5z" />
    <glyph glyph-name="uni1ED8" unicode="&#x1ed8;" 
d="M306 -111q0 -25 -17.5 -44.5t-40.5 -19.5q-16 0 -26 11t-10 28q0 25 17.5 43.5t40.5 18.5q16 0 26 -10t10 -27zM716 459q0 62 -18.5 111.5t-51 84t-77.5 53t-99 18.5t-105.5 -18.5t-98.5 -51.5t-86.5 -78.5t-68.5 -98.5t-45.5 -111.5t-16.5 -118.5q0 -62 18.5 -111.5
t51 -84t78 -52.5t99.5 -18q80 0 155.5 40.5t134.5 107.5t94.5 152.5t35.5 175.5zM606 594q0 -30 -8 -73.5t-20.5 -93.5t-28.5 -102t-32.5 -98t-31.5 -82t-26 -53q-17 -27 -32.5 -46.5t-33.5 -32t-41 -18t-56 -5.5q-41 0 -67.5 10t-42 27.5t-21.5 40t-6 46.5q0 30 8 74
t21 93.5t29 101.5t32.5 98t31.5 81.5t25 53.5q17 27 32.5 46.5t33.5 32t41.5 18t56.5 5.5q40 0 66.5 -10t42 -27t21.5 -39.5t6 -47.5zM638 777q-8 19 -16.5 43.5t-15.5 50t-12 51t-8 47.5q0 2 -3 2.5t-5 -1.5q-17 -18 -37.5 -41t-43.5 -48.5t-49 -52t-54 -50.5q-2 -2 1 -4.5
t5 -0.5q36 31 69.5 61.5t60.5 57.5q8 -38 20 -69t24 -53z" />
    <glyph glyph-name="uni1ED9" unicode="&#x1ed9;" horiz-adv-x="474" 
d="M199 -111q0 -25 -17.5 -44.5t-40.5 -19.5q-16 0 -26 11t-10 28q0 25 17.5 43.5t40.5 18.5q16 0 26 -10t10 -27zM433 267q0 37 -12 68t-33 53t-49.5 34.5t-62.5 12.5q-50 0 -96.5 -23t-81.5 -61.5t-56 -88t-21 -103.5q0 -37 12 -68t33 -53t49.5 -34.5t62.5 -12.5
q50 0 96 23t81.5 61.5t56.5 88t21 103.5zM344 345q0 -13 -4 -36t-10 -51.5t-14 -58.5t-16.5 -57.5t-16 -48.5t-13.5 -31q-35 -63 -96 -63q-38 0 -51.5 22.5t-13.5 58.5q0 20 8.5 61t20.5 85.5t24.5 83t20.5 53.5q19 32 41.5 48t54.5 16q38 0 51.5 -22.5t13.5 -59.5zM437 522
q-8 19 -16.5 43.5t-15.5 50t-12 51t-8 47.5q0 2 -3 2.5t-5 -1.5q-17 -18 -37.5 -41t-43.5 -48.5t-49 -52t-54 -50.5q-2 -2 1 -4.5t5 -0.5q36 31 69.5 61.5t60.5 57.5q8 -38 20 -69t24 -53z" />
    <glyph glyph-name="uni1EDA" unicode="&#x1eda;" 
d="M716 459q0 -90 -35.5 -175.5t-94.5 -152.5t-134.5 -107.5t-155.5 -40.5q-54 0 -99.5 18t-78 52.5t-51 84t-18.5 111.5q0 60 16.5 118.5t45.5 111.5t68.5 98.5t86.5 78.5t99 51.5t105 18.5q63 0 113 -24.5t83 -70.5q11 8 18.5 19.5t9.5 26.5q1 11 -1.5 20.5t-6 18.5
t-6.5 19t-2 22q3 27 20 42.5t45 12.5q25 -3 33.5 -21.5t6.5 -38.5q-5 -34 -35 -70t-76 -61q21 -32 32.5 -73t11.5 -89zM606 594q0 25 -6 47.5t-21.5 39.5t-42 27t-66.5 10q-33 0 -56.5 -5.5t-41.5 -18t-33.5 -32t-32.5 -46.5q-10 -18 -25 -54t-31 -81.5t-32.5 -97
t-29.5 -101.5t-21 -94t-8 -74q0 -24 6 -46.5t21.5 -40t42 -27.5t67.5 -10q33 0 56 5.5t41 18t33.5 32t32.5 46.5q11 17 26 53t31.5 82t32.5 98t28.5 102t20.5 94t8 73zM711 929q0 17 -10 27t-27 10q-21 0 -40.5 -25.5t-46.5 -58.5t-68 -64.5t-106 -44.5q-2 0 -2 -4t2 -4
q75 13 131 34t93 44.5t55.5 46t18.5 39.5z" />
    <glyph glyph-name="uni1EDB" unicode="&#x1edb;" horiz-adv-x="474" 
d="M433 267q0 -54 -21 -103.5t-56.5 -88t-81.5 -61.5t-96 -23q-34 0 -62.5 12.5t-49.5 34.5t-33 53t-12 68q0 54 21 103.5t56 88t81.5 61.5t96.5 23q41 0 73.5 -17.5t53.5 -48.5q17 16 20 40q1 11 -1.5 20.5t-6 18.5t-6.5 19t-2 22q3 27 20 42.5t45 12.5q25 -3 33.5 -21.5
t6.5 -38.5q-5 -32 -32.5 -66.5t-69.5 -59.5q23 -40 23 -91zM344 345q0 37 -13.5 59.5t-51.5 22.5q-32 0 -54.5 -16t-41.5 -48q-8 -15 -20.5 -53.5t-24.5 -83t-20.5 -85.5t-8.5 -61q0 -36 13.5 -58.5t51.5 -22.5q61 0 96 63q9 15 21.5 53.5t24 83.5t20 86t8.5 60zM513 674
q0 17 -10 27t-27 10q-21 0 -40.5 -25.5t-46.5 -58.5t-68 -64.5t-106 -44.5q-2 0 -2 -4t2 -4q75 13 131 34t93 44.5t55.5 46t18.5 39.5z" />
    <glyph glyph-name="uni1EDC" unicode="&#x1edc;" 
d="M716 459q0 -90 -35.5 -175.5t-94.5 -152.5t-134.5 -107.5t-155.5 -40.5q-54 0 -99.5 18t-78 52.5t-51 84t-18.5 111.5q0 60 16.5 118.5t45.5 111.5t68.5 98.5t86.5 78.5t99 51.5t105 18.5q63 0 113 -24.5t83 -70.5q11 8 18.5 19.5t9.5 26.5q1 11 -1.5 20.5t-6 18.5
t-6.5 19t-2 22q3 27 20 42.5t45 12.5q25 -3 33.5 -21.5t6.5 -38.5q-5 -34 -35 -70t-76 -61q21 -32 32.5 -73t11.5 -89zM606 594q0 25 -6 47.5t-21.5 39.5t-42 27t-66.5 10q-33 0 -56.5 -5.5t-41.5 -18t-33.5 -32t-32.5 -46.5q-10 -18 -25 -54t-31 -81.5t-32.5 -97
t-29.5 -101.5t-21 -94t-8 -74q0 -24 6 -46.5t21.5 -40t42 -27.5t67.5 -10q33 0 56 5.5t41 18t33.5 32t32.5 46.5q11 17 26 53t31.5 82t32.5 98t28.5 102t20.5 94t8 73zM548 760q-36 9 -58 28t-36 42t-21.5 47t-14 44t-14 33t-20.5 13q-19 0 -31 -13t-12 -33q0 -17 7 -39.5
t29 -46t62.5 -45.5t106.5 -38q2 -1 3 3t-1 5z" />
    <glyph glyph-name="uni1EDD" unicode="&#x1edd;" horiz-adv-x="474" 
d="M433 267q0 -54 -21 -103.5t-56.5 -88t-81.5 -61.5t-96 -23q-34 0 -62.5 12.5t-49.5 34.5t-33 53t-12 68q0 54 21 103.5t56 88t81.5 61.5t96.5 23q41 0 73.5 -17.5t53.5 -48.5q17 16 20 40q1 11 -1.5 20.5t-6 18.5t-6.5 19t-2 22q3 27 20 42.5t45 12.5q25 -3 33.5 -21.5
t6.5 -38.5q-5 -32 -32.5 -66.5t-69.5 -59.5q23 -40 23 -91zM344 345q0 37 -13.5 59.5t-51.5 22.5q-32 0 -54.5 -16t-41.5 -48q-8 -15 -20.5 -53.5t-24.5 -83t-20.5 -85.5t-8.5 -61q0 -36 13.5 -58.5t51.5 -22.5q61 0 96 63q9 15 21.5 53.5t24 83.5t20 86t8.5 60zM340 505
q-36 9 -58 28t-36 42t-21.5 47t-14 44t-14 33t-20.5 13q-19 0 -31 -13t-12 -33q0 -17 7 -39.5t29 -46t62.5 -45.5t106.5 -38q2 -1 3 3t-1 5z" />
    <glyph glyph-name="uni1EDE" unicode="&#x1ede;" 
d="M716 459q0 -90 -35.5 -175.5t-94.5 -152.5t-134.5 -107.5t-155.5 -40.5q-54 0 -99.5 18t-78 52.5t-51 84t-18.5 111.5q0 60 16.5 118.5t45.5 111.5t68.5 98.5t86.5 78.5t99 51.5t105 18.5q63 0 113 -24.5t83 -70.5q11 8 18.5 19.5t9.5 26.5q1 11 -1.5 20.5t-6 18.5
t-6.5 19t-2 22q3 27 20 42.5t45 12.5q25 -3 33.5 -21.5t6.5 -38.5q-5 -34 -35 -70t-76 -61q21 -32 32.5 -73t11.5 -89zM606 594q0 25 -6 47.5t-21.5 39.5t-42 27t-66.5 10q-33 0 -56.5 -5.5t-41.5 -18t-33.5 -32t-32.5 -46.5q-10 -18 -25 -54t-31 -81.5t-32.5 -97
t-29.5 -101.5t-21 -94t-8 -74q0 -24 6 -46.5t21.5 -40t42 -27.5t67.5 -10q33 0 56 5.5t41 18t33.5 32t32.5 46.5q11 17 26 53t31.5 82t32.5 98t28.5 102t20.5 94t8 73zM523 814q-3 34 6.5 52.5t23.5 32t28 26.5t20 37q5 21 4.5 34.5t-5 21.5t-11.5 12.5t-15 6.5
q-17 5 -25.5 -0.5t-10.5 -17.5t3.5 -25t1.5 -36q-6 -35 -41 -29q-23 4 -35 20.5t-7 39.5q3 19 14 31.5t26.5 19.5t33.5 8.5t35 -1.5q25 -5 42 -18.5t26 -31t10.5 -36t-2.5 -33.5q-8 -25 -26.5 -38t-38.5 -22.5t-36.5 -20.5t-20.5 -33z" />
    <glyph glyph-name="uni1EDF" unicode="&#x1edf;" horiz-adv-x="474" 
d="M433 267q0 -54 -21 -103.5t-56.5 -88t-81.5 -61.5t-96 -23q-34 0 -62.5 12.5t-49.5 34.5t-33 53t-12 68q0 54 21 103.5t56 88t81.5 61.5t96.5 23q41 0 73.5 -17.5t53.5 -48.5q17 16 20 40q1 11 -1.5 20.5t-6 18.5t-6.5 19t-2 22q3 27 20 42.5t45 12.5q25 -3 33.5 -21.5
t6.5 -38.5q-5 -32 -32.5 -66.5t-69.5 -59.5q23 -40 23 -91zM344 345q0 37 -13.5 59.5t-51.5 22.5q-32 0 -54.5 -16t-41.5 -48q-8 -15 -20.5 -53.5t-24.5 -83t-20.5 -85.5t-8.5 -61q0 -36 13.5 -58.5t51.5 -22.5q61 0 96 63q9 15 21.5 53.5t24 83.5t20 86t8.5 60zM305 516
q-3 34 6.5 52.5t23.5 32t28 26.5t20 37q5 21 4.5 34.5t-5 21.5t-11.5 12.5t-15 6.5q-17 5 -25.5 -0.5t-10.5 -17.5t3.5 -25t1.5 -36q-6 -35 -41 -29q-23 4 -35 20.5t-7 39.5q3 19 14 31.5t26.5 19.5t33.5 8.5t35 -1.5q25 -5 42 -18.5t26 -31t10.5 -36t-2.5 -33.5
q-8 -25 -26.5 -38t-38.5 -22.5t-36.5 -20.5t-20.5 -33z" />
    <glyph glyph-name="uni1EE0" unicode="&#x1ee0;" 
d="M716 459q0 -90 -35.5 -175.5t-94.5 -152.5t-134.5 -107.5t-155.5 -40.5q-54 0 -99.5 18t-78 52.5t-51 84t-18.5 111.5q0 60 16.5 118.5t45.5 111.5t68.5 98.5t86.5 78.5t99 51.5t105 18.5q63 0 113 -24.5t83 -70.5q11 8 18.5 19.5t9.5 26.5q1 11 -1.5 20.5t-6 18.5
t-6.5 19t-2 22q3 27 20 42.5t45 12.5q25 -3 33.5 -21.5t6.5 -38.5q-5 -34 -35 -70t-76 -61q21 -32 32.5 -73t11.5 -89zM606 594q0 25 -6 47.5t-21.5 39.5t-42 27t-66.5 10q-33 0 -56.5 -5.5t-41.5 -18t-33.5 -32t-32.5 -46.5q-10 -18 -25 -54t-31 -81.5t-32.5 -97
t-29.5 -101.5t-21 -94t-8 -74q0 -24 6 -46.5t21.5 -40t42 -27.5t67.5 -10q33 0 56 5.5t41 18t33.5 32t32.5 46.5q11 17 26 53t31.5 82t32.5 98t28.5 102t20.5 94t8 73zM702 916q0 2 -5 2q-4 0 -4 -2q0 -24 -14.5 -45t-48.5 -21q-17 0 -36 9t-40.5 20.5t-45 20.5t-48.5 9
q-24 0 -47 -9t-40.5 -24.5t-28 -36.5t-10.5 -45q0 -2 4 -2t4 2q0 25 15 46t49 21q17 0 36 -9.5t40 -20.5t44.5 -20.5t48.5 -9.5q24 0 47 9t41 25t28.5 36.5t10.5 44.5z" />
    <glyph glyph-name="uni1EE1" unicode="&#x1ee1;" horiz-adv-x="474" 
d="M433 267q0 -54 -21 -103.5t-56.5 -88t-81.5 -61.5t-96 -23q-34 0 -62.5 12.5t-49.5 34.5t-33 53t-12 68q0 54 21 103.5t56 88t81.5 61.5t96.5 23q41 0 73.5 -17.5t53.5 -48.5q17 16 20 40q1 11 -1.5 20.5t-6 18.5t-6.5 19t-2 22q3 27 20 42.5t45 12.5q25 -3 33.5 -21.5
t6.5 -38.5q-5 -32 -32.5 -66.5t-69.5 -59.5q23 -40 23 -91zM344 345q0 37 -13.5 59.5t-51.5 22.5q-32 0 -54.5 -16t-41.5 -48q-8 -15 -20.5 -53.5t-24.5 -83t-20.5 -85.5t-8.5 -61q0 -36 13.5 -58.5t51.5 -22.5q61 0 96 63q9 15 21.5 53.5t24 83.5t20 86t8.5 60zM515 694
q0 2 -5 2q-4 0 -4 -2q0 -24 -14.5 -45t-48.5 -21q-17 0 -36 9t-40.5 20.5t-45 20.5t-48.5 9q-24 0 -47 -9t-40.5 -24.5t-28 -36.5t-10.5 -45q0 -2 4 -2t4 2q0 25 15 46t49 21q17 0 36 -9.5t40 -20.5t44.5 -20.5t48.5 -9.5q24 0 47 9t41 25t28.5 36.5t10.5 44.5z" />
    <glyph glyph-name="uni1EE2" unicode="&#x1ee2;" 
d="M716 459q0 -90 -35.5 -175.5t-94.5 -152.5t-134.5 -107.5t-155.5 -40.5q-54 0 -99.5 18t-78 52.5t-51 84t-18.5 111.5q0 60 16.5 118.5t45.5 111.5t68.5 98.5t86.5 78.5t99 51.5t105 18.5q63 0 113 -24.5t83 -70.5q11 8 18.5 19.5t9.5 26.5q1 11 -1.5 20.5t-6 18.5
t-6.5 19t-2 22q3 27 20 42.5t45 12.5q25 -3 33.5 -21.5t6.5 -38.5q-5 -34 -35 -70t-76 -61q21 -32 32.5 -73t11.5 -89zM606 594q0 25 -6 47.5t-21.5 39.5t-42 27t-66.5 10q-33 0 -56.5 -5.5t-41.5 -18t-33.5 -32t-32.5 -46.5q-10 -18 -25 -54t-31 -81.5t-32.5 -97
t-29.5 -101.5t-21 -94t-8 -74q0 -24 6 -46.5t21.5 -40t42 -27.5t67.5 -10q33 0 56 5.5t41 18t33.5 32t32.5 46.5q11 17 26 53t31.5 82t32.5 98t28.5 102t20.5 94t8 73zM306 -111q0 -25 -17.5 -44.5t-40.5 -19.5q-16 0 -26 11t-10 28q0 25 17.5 43.5t40.5 18.5q16 0 26 -10
t10 -27z" />
    <glyph glyph-name="uni1EE3" unicode="&#x1ee3;" horiz-adv-x="474" 
d="M433 267q0 -54 -21 -103.5t-56.5 -88t-81.5 -61.5t-96 -23q-34 0 -62.5 12.5t-49.5 34.5t-33 53t-12 68q0 54 21 103.5t56 88t81.5 61.5t96.5 23q41 0 73.5 -17.5t53.5 -48.5q17 16 20 40q1 11 -1.5 20.5t-6 18.5t-6.5 19t-2 22q3 27 20 42.5t45 12.5q25 -3 33.5 -21.5
t6.5 -38.5q-5 -32 -32.5 -66.5t-69.5 -59.5q23 -40 23 -91zM344 345q0 37 -13.5 59.5t-51.5 22.5q-32 0 -54.5 -16t-41.5 -48q-8 -15 -20.5 -53.5t-24.5 -83t-20.5 -85.5t-8.5 -61q0 -36 13.5 -58.5t51.5 -22.5q61 0 96 63q9 15 21.5 53.5t24 83.5t20 86t8.5 60zM199 -111
q0 -25 -17.5 -44.5t-40.5 -19.5q-16 0 -26 11t-10 28q0 25 17.5 43.5t40.5 18.5q16 0 26 -10t10 -27z" />
    <glyph glyph-name="uni1EE4" unicode="&#x1ee4;" horiz-adv-x="756" 
d="M851 709h-197q-2 0 -3.5 -4t0.5 -4h87q6 0 6 -3l-153 -487q-15 -48 -37.5 -87t-54 -66.5t-73 -42t-94.5 -14.5q-60 0 -85.5 29t-25.5 79q0 57 26 135l142 454q1 3 8 3h90q2 0 3 4t-1 4h-331q-2 0 -3 -4t1 -4h90q6 0 5 -3l-137 -435q-18 -54 -18 -103q0 -78 50 -127.5
t155 -49.5q61 0 109.5 15.5t84.5 45t61.5 71t42.5 92.5l154 491q1 3 8 3h87q2 0 3.5 4t-0.5 4zM352 -111q0 -25 -17.5 -44.5t-40.5 -19.5q-16 0 -26 11t-10 28q0 25 17.5 43.5t40.5 18.5q16 0 26 -10t10 -27z" />
    <glyph glyph-name="uni1EE5" unicode="&#x1ee5;" horiz-adv-x="528" 
d="M505 431l-104 -5l-76 -243q-25 -42 -45 -70.5t-37.5 -45.5t-33 -24t-31.5 -7q-18 0 -30 12t-12 30q0 34 13.5 71.5t30 74.5t30.5 72.5t14 66.5q0 29 -17.5 50.5t-55.5 21.5q-27 0 -60 -20.5t-56 -69.5l8 -4q17 36 35.5 52t32.5 16q13 0 18.5 -6.5t5.5 -23.5
q0 -23 -15 -60t-32.5 -78t-32.5 -83t-15 -75q0 -44 22 -68t59 -24q44 0 96 40t97 121q-15 -42 -16.5 -72.5t7.5 -50t26 -29t40 -9.5q30 0 69 24.5t67 78.5l-7 4q-25 -44 -48 -61t-46 -17q-14 0 -19.5 8.5t-0.5 22.5zM302 -111q0 -25 -17.5 -44.5t-40.5 -19.5q-16 0 -26 11
t-10 28q0 25 17.5 43.5t40.5 18.5q16 0 26 -10t10 -27z" />
    <glyph glyph-name="uni1EE6" unicode="&#x1ee6;" horiz-adv-x="756" 
d="M851 709h-197q-2 0 -3.5 -4t0.5 -4h87q6 0 6 -3l-153 -487q-15 -48 -37.5 -87t-54 -66.5t-73 -42t-94.5 -14.5q-60 0 -85.5 29t-25.5 79q0 57 26 135l142 454q1 3 8 3h90q2 0 3 4t-1 4h-331q-2 0 -3 -4t1 -4h90q6 0 5 -3l-137 -435q-18 -54 -18 -103q0 -78 50 -127.5
t155 -49.5q61 0 109.5 15.5t84.5 45t61.5 71t42.5 92.5l154 491q1 3 8 3h87q2 0 3.5 4t-0.5 4zM592 814q-3 34 6.5 52.5t23.5 32t28 26.5t20 37q5 21 4.5 34.5t-5 21.5t-11.5 12.5t-15 6.5q-17 5 -25.5 -0.5t-10.5 -17.5t3.5 -25t1.5 -36q-6 -35 -41 -29q-23 4 -35 20.5
t-7 39.5q3 19 14 31.5t26.5 19.5t33.5 8.5t35 -1.5q25 -5 42 -18.5t26 -31t10.5 -36t-2.5 -33.5q-8 -25 -26.5 -38t-38.5 -22.5t-36.5 -20.5t-20.5 -33z" />
    <glyph glyph-name="uni1EE7" unicode="&#x1ee7;" horiz-adv-x="528" 
d="M505 431l-104 -5l-76 -243q-25 -42 -45 -70.5t-37.5 -45.5t-33 -24t-31.5 -7q-18 0 -30 12t-12 30q0 34 13.5 71.5t30 74.5t30.5 72.5t14 66.5q0 29 -17.5 50.5t-55.5 21.5q-27 0 -60 -20.5t-56 -69.5l8 -4q17 36 35.5 52t32.5 16q13 0 18.5 -6.5t5.5 -23.5
q0 -23 -15 -60t-32.5 -78t-32.5 -83t-15 -75q0 -44 22 -68t59 -24q44 0 96 40t97 121q-15 -42 -16.5 -72.5t7.5 -50t26 -29t40 -9.5q30 0 69 24.5t67 78.5l-7 4q-25 -44 -48 -61t-46 -17q-14 0 -19.5 8.5t-0.5 22.5zM329 516q-3 34 6.5 52.5t23.5 32t28 26.5t20 37
q5 21 4.5 34.5t-5 21.5t-11.5 12.5t-15 6.5q-17 5 -25.5 -0.5t-10.5 -17.5t3.5 -25t1.5 -36q-6 -35 -41 -29q-23 4 -35 20.5t-7 39.5q3 19 14 31.5t26.5 19.5t33.5 8.5t35 -1.5q25 -5 42 -18.5t26 -31t10.5 -36t-2.5 -33.5q-8 -25 -26.5 -38t-38.5 -22.5t-36.5 -20.5
t-20.5 -33z" />
    <glyph glyph-name="uni1EE8" unicode="&#x1ee8;" horiz-adv-x="756" 
d="M755 709l-32 -102q25 9 48 25t26 45q1 11 -1.5 20.5t-6 18.5t-6.5 19t-2 22q3 27 20 42.5t45 12.5q25 -3 33.5 -21.5t6.5 -38.5q-3 -22 -17 -45t-36 -44t-51 -38t-62 -27l-121 -391q-17 -51 -42.5 -92.5t-61.5 -71t-84 -45t-110 -15.5q-105 0 -155 49.5t-50 127.5
q0 49 18 103l137 435q1 3 -5 3h-90q-2 0 -1 4t3 4h331q2 0 1 -4t-3 -4h-90q-7 0 -8 -3l-142 -454q-26 -80 -26 -135q0 -51 25.5 -79.5t85.5 -28.5q106 0 167.5 56.5t91.5 153.5l153 487q0 3 -6 3h-87q-2 0 -0.5 4t3.5 4h101zM768 929q0 17 -10 27t-27 10q-21 0 -40.5 -25.5
t-46.5 -58.5t-68 -64.5t-106 -44.5q-2 0 -2 -4t2 -4q75 13 131 34t93 44.5t55.5 46t18.5 39.5z" />
    <glyph glyph-name="uni1EE9" unicode="&#x1ee9;" horiz-adv-x="528" 
d="M505 431l-27 -85q20 10 37 25t19 38q1 11 -1.5 20.5t-6 18.5t-6.5 19t-2 22q3 27 20 42.5t45 12.5q25 -3 33.5 -21.5t6.5 -38.5q-2 -21 -14.5 -42.5t-32 -41.5t-45.5 -37t-56 -28l-89 -284q-11 -31 20 -31q23 0 46 16.5t48 61.5l7 -4q-28 -54 -67 -78.5t-69 -24.5
q-23 0 -40 9.5t-26 29t-7.5 50t16.5 72.5q-45 -81 -96.5 -121t-96.5 -40q-37 0 -59 23.5t-22 68.5q0 33 15 75t32.5 83t32.5 78t15 60q0 17 -5.5 23.5t-18.5 6.5q-14 0 -32.5 -16t-35.5 -52l-8 4q23 49 56 69.5t60 20.5q38 0 55.5 -21.5t17.5 -50.5q0 -31 -14 -66.5
t-30.5 -72.5t-30 -74.5t-13.5 -71.5q0 -18 12 -30t30 -12q16 0 31.5 7t33 24t37.5 45.5t45 70.5l76 243zM499 674q0 17 -10 27t-27 10q-21 0 -40.5 -25.5t-46.5 -58.5t-68 -64.5t-106 -44.5q-2 0 -2 -4t2 -4q75 13 131 34t93 44.5t55.5 46t18.5 39.5z" />
    <glyph glyph-name="uni1EEA" unicode="&#x1eea;" horiz-adv-x="756" 
d="M755 709l-32 -102q25 9 48 25t26 45q1 11 -1.5 20.5t-6 18.5t-6.5 19t-2 22q3 27 20 42.5t45 12.5q25 -3 33.5 -21.5t6.5 -38.5q-3 -22 -17 -45t-36 -44t-51 -38t-62 -27l-121 -391q-17 -51 -42.5 -92.5t-61.5 -71t-84 -45t-110 -15.5q-105 0 -155 49.5t-50 127.5
q0 49 18 103l137 435q1 3 -5 3h-90q-2 0 -1 4t3 4h331q2 0 1 -4t-3 -4h-90q-7 0 -8 -3l-142 -454q-26 -80 -26 -135q0 -51 25.5 -79.5t85.5 -28.5q106 0 167.5 56.5t91.5 153.5l153 487q0 3 -6 3h-87q-2 0 -0.5 4t3.5 4h101zM620 760q-36 9 -58 28t-36 42t-21.5 47t-14 44
t-14 33t-20.5 13q-19 0 -31 -13t-12 -33q0 -17 7 -39.5t29 -46t62.5 -45.5t106.5 -38q2 -1 3 3t-1 5z" />
    <glyph glyph-name="uni1EEB" unicode="&#x1eeb;" horiz-adv-x="528" 
d="M505 431l-27 -85q20 10 37 25t19 38q1 11 -1.5 20.5t-6 18.5t-6.5 19t-2 22q3 27 20 42.5t45 12.5q25 -3 33.5 -21.5t6.5 -38.5q-2 -21 -14.5 -42.5t-32 -41.5t-45.5 -37t-56 -28l-89 -284q-11 -31 20 -31q23 0 46 16.5t48 61.5l7 -4q-28 -54 -67 -78.5t-69 -24.5
q-23 0 -40 9.5t-26 29t-7.5 50t16.5 72.5q-45 -81 -96.5 -121t-96.5 -40q-37 0 -59 23.5t-22 68.5q0 33 15 75t32.5 83t32.5 78t15 60q0 17 -5.5 23.5t-18.5 6.5q-14 0 -32.5 -16t-35.5 -52l-8 4q23 49 56 69.5t60 20.5q38 0 55.5 -21.5t17.5 -50.5q0 -31 -14 -66.5
t-30.5 -72.5t-30 -74.5t-13.5 -71.5q0 -18 12 -30t30 -12q16 0 31.5 7t33 24t37.5 45.5t45 70.5l76 243zM367 505q-36 9 -58 28t-36 42t-21.5 47t-14 44t-14 33t-20.5 13q-19 0 -31 -13t-12 -33q0 -17 7 -39.5t29 -46t62.5 -45.5t106.5 -38q2 -1 3 3t-1 5z" />
    <glyph glyph-name="uni1EEC" unicode="&#x1eec;" horiz-adv-x="756" 
d="M755 709l-32 -102q25 9 48 25t26 45q1 11 -1.5 20.5t-6 18.5t-6.5 19t-2 22q3 27 20 42.5t45 12.5q25 -3 33.5 -21.5t6.5 -38.5q-3 -22 -17 -45t-36 -44t-51 -38t-62 -27l-121 -391q-17 -51 -42.5 -92.5t-61.5 -71t-84 -45t-110 -15.5q-105 0 -155 49.5t-50 127.5
q0 49 18 103l137 435q1 3 -5 3h-90q-2 0 -1 4t3 4h331q2 0 1 -4t-3 -4h-90q-7 0 -8 -3l-142 -454q-26 -80 -26 -135q0 -51 25.5 -79.5t85.5 -28.5q106 0 167.5 56.5t91.5 153.5l153 487q0 3 -6 3h-87q-2 0 -0.5 4t3.5 4h101zM592 814q-3 34 6.5 52.5t23.5 32t28 26.5t20 37
q5 21 4.5 34.5t-5 21.5t-11.5 12.5t-15 6.5q-17 5 -25.5 -0.5t-10.5 -17.5t3.5 -25t1.5 -36q-6 -35 -41 -29q-23 4 -35 20.5t-7 39.5q3 19 14 31.5t26.5 19.5t33.5 8.5t35 -1.5q25 -5 42 -18.5t26 -31t10.5 -36t-2.5 -33.5q-8 -25 -26.5 -38t-38.5 -22.5t-36.5 -20.5
t-20.5 -33z" />
    <glyph glyph-name="uni1EED" unicode="&#x1eed;" horiz-adv-x="528" 
d="M505 431l-27 -85q20 10 37 25t19 38q1 11 -1.5 20.5t-6 18.5t-6.5 19t-2 22q3 27 20 42.5t45 12.5q25 -3 33.5 -21.5t6.5 -38.5q-2 -21 -14.5 -42.5t-32 -41.5t-45.5 -37t-56 -28l-89 -284q-11 -31 20 -31q23 0 46 16.5t48 61.5l7 -4q-28 -54 -67 -78.5t-69 -24.5
q-23 0 -40 9.5t-26 29t-7.5 50t16.5 72.5q-45 -81 -96.5 -121t-96.5 -40q-37 0 -59 23.5t-22 68.5q0 33 15 75t32.5 83t32.5 78t15 60q0 17 -5.5 23.5t-18.5 6.5q-14 0 -32.5 -16t-35.5 -52l-8 4q23 49 56 69.5t60 20.5q38 0 55.5 -21.5t17.5 -50.5q0 -31 -14 -66.5
t-30.5 -72.5t-30 -74.5t-13.5 -71.5q0 -18 12 -30t30 -12q16 0 31.5 7t33 24t37.5 45.5t45 70.5l76 243zM329 516q-3 34 6.5 52.5t23.5 32t28 26.5t20 37q5 21 4.5 34.5t-5 21.5t-11.5 12.5t-15 6.5q-17 5 -25.5 -0.5t-10.5 -17.5t3.5 -25t1.5 -36q-6 -35 -41 -29
q-23 4 -35 20.5t-7 39.5q3 19 14 31.5t26.5 19.5t33.5 8.5t35 -1.5q25 -5 42 -18.5t26 -31t10.5 -36t-2.5 -33.5q-8 -25 -26.5 -38t-38.5 -22.5t-36.5 -20.5t-20.5 -33z" />
    <glyph glyph-name="uni1EEE" unicode="&#x1eee;" horiz-adv-x="756" 
d="M755 709l-32 -102q25 9 48 25t26 45q1 11 -1.5 20.5t-6 18.5t-6.5 19t-2 22q3 27 20 42.5t45 12.5q25 -3 33.5 -21.5t6.5 -38.5q-3 -22 -17 -45t-36 -44t-51 -38t-62 -27l-121 -391q-17 -51 -42.5 -92.5t-61.5 -71t-84 -45t-110 -15.5q-105 0 -155 49.5t-50 127.5
q0 49 18 103l137 435q1 3 -5 3h-90q-2 0 -1 4t3 4h331q2 0 1 -4t-3 -4h-90q-7 0 -8 -3l-142 -454q-26 -80 -26 -135q0 -51 25.5 -79.5t85.5 -28.5q106 0 167.5 56.5t91.5 153.5l153 487q0 3 -6 3h-87q-2 0 -0.5 4t3.5 4h101zM773 916q0 2 -5 2q-4 0 -4 -2q0 -24 -14.5 -45
t-48.5 -21q-17 0 -36 9t-40.5 20.5t-45 20.5t-48.5 9q-24 0 -47 -9t-40.5 -24.5t-28 -36.5t-10.5 -45q0 -2 4 -2t4 2q0 25 15 46t49 21q17 0 36 -9.5t40 -20.5t44.5 -20.5t48.5 -9.5q24 0 47 9t41 25t28.5 36.5t10.5 44.5z" />
    <glyph glyph-name="uni1EEF" unicode="&#x1eef;" horiz-adv-x="528" 
d="M505 431l-27 -85q20 10 37 25t19 38q1 11 -1.5 20.5t-6 18.5t-6.5 19t-2 22q3 27 20 42.5t45 12.5q25 -3 33.5 -21.5t6.5 -38.5q-2 -21 -14.5 -42.5t-32 -41.5t-45.5 -37t-56 -28l-89 -284q-11 -31 20 -31q23 0 46 16.5t48 61.5l7 -4q-28 -54 -67 -78.5t-69 -24.5
q-23 0 -40 9.5t-26 29t-7.5 50t16.5 72.5q-45 -81 -96.5 -121t-96.5 -40q-37 0 -59 23.5t-22 68.5q0 33 15 75t32.5 83t32.5 78t15 60q0 17 -5.5 23.5t-18.5 6.5q-14 0 -32.5 -16t-35.5 -52l-8 4q23 49 56 69.5t60 20.5q38 0 55.5 -21.5t17.5 -50.5q0 -31 -14 -66.5
t-30.5 -72.5t-30 -74.5t-13.5 -71.5q0 -18 12 -30t30 -12q16 0 31.5 7t33 24t37.5 45.5t45 70.5l76 243zM517 635q0 2 -5 2q-4 0 -4 -2q0 -24 -14.5 -45t-48.5 -21q-17 0 -36 9t-40.5 20.5t-45 20.5t-48.5 9q-24 0 -47 -9t-40.5 -24.5t-28 -36.5t-10.5 -45q0 -2 4 -2t4 2
q0 25 15 46t49 21q17 0 36 -9.5t40 -20.5t44.5 -20.5t48.5 -9.5q24 0 47 9t41 25t28.5 36.5t10.5 44.5z" />
    <glyph glyph-name="uni1EF0" unicode="&#x1ef0;" horiz-adv-x="756" 
d="M755 709l-32 -102q25 9 48 25t26 45q1 11 -1.5 20.5t-6 18.5t-6.5 19t-2 22q3 27 20 42.5t45 12.5q25 -3 33.5 -21.5t6.5 -38.5q-3 -22 -17 -45t-36 -44t-51 -38t-62 -27l-121 -391q-17 -51 -42.5 -92.5t-61.5 -71t-84 -45t-110 -15.5q-105 0 -155 49.5t-50 127.5
q0 49 18 103l137 435q1 3 -5 3h-90q-2 0 -1 4t3 4h331q2 0 1 -4t-3 -4h-90q-7 0 -8 -3l-142 -454q-26 -80 -26 -135q0 -51 25.5 -79.5t85.5 -28.5q106 0 167.5 56.5t91.5 153.5l153 487q0 3 -6 3h-87q-2 0 -0.5 4t3.5 4h101zM352 -111q0 -25 -17.5 -44.5t-40.5 -19.5
q-16 0 -26 11t-10 28q0 25 17.5 43.5t40.5 18.5q16 0 26 -10t10 -27z" />
    <glyph glyph-name="uni1EF1" unicode="&#x1ef1;" horiz-adv-x="528" 
d="M505 431l-27 -85q20 10 37 25t19 38q1 11 -1.5 20.5t-6 18.5t-6.5 19t-2 22q3 27 20 42.5t45 12.5q25 -3 33.5 -21.5t6.5 -38.5q-2 -21 -14.5 -42.5t-32 -41.5t-45.5 -37t-56 -28l-89 -284q-11 -31 20 -31q23 0 46 16.5t48 61.5l7 -4q-28 -54 -67 -78.5t-69 -24.5
q-23 0 -40 9.5t-26 29t-7.5 50t16.5 72.5q-45 -81 -96.5 -121t-96.5 -40q-37 0 -59 23.5t-22 68.5q0 33 15 75t32.5 83t32.5 78t15 60q0 17 -5.5 23.5t-18.5 6.5q-14 0 -32.5 -16t-35.5 -52l-8 4q23 49 56 69.5t60 20.5q38 0 55.5 -21.5t17.5 -50.5q0 -31 -14 -66.5
t-30.5 -72.5t-30 -74.5t-13.5 -71.5q0 -18 12 -30t30 -12q16 0 31.5 7t33 24t37.5 45.5t45 70.5l76 243zM302 -111q0 -25 -17.5 -44.5t-40.5 -19.5q-16 0 -26 11t-10 28q0 25 17.5 43.5t40.5 18.5q16 0 26 -10t10 -27z" />
    <glyph glyph-name="Ygrave" unicode="&#x1ef2;" horiz-adv-x="660" 
d="M806 709h-202q-2 0 -3 -4t1 -4h96q3 0 3.5 -1t-2 -5.5t-8.5 -12.5t-18 -23l-253 -321l-75 360q-3 3 4 3h109q2 0 3 4t-1 4h-353q-2 0 -3 -4t1 -4h93q4 0 7 -3l78 -370l-101 -317q0 -3 -7 -3h-90q-2 0 -3.5 -4t0.5 -4h331q2 0 3.5 4t-0.5 4h-90q-7 0 -5 3l99 315l263 334
q11 14 18.5 22.5t12 12.5t7.5 5t5 1h78q2 0 3 4t-1 4zM584 779q-36 9 -58 28t-36 42t-21.5 47t-14 44t-14 33t-20.5 13q-19 0 -31 -13t-12 -33q0 -17 7 -39.5t29 -46t62.5 -45.5t106.5 -38q2 -1 3 3t-1 5z" />
    <glyph glyph-name="ygrave" unicode="&#x1ef3;" horiz-adv-x="453" 
d="M492 406q0 14 -6.5 21.5t-23.5 7.5q-24 0 -46 -21.5t-45.5 -62.5t-49.5 -99.5t-57 -133.5l-31 146q-17 85 -39.5 128t-63.5 43q-34 0 -62 -24.5t-54 -72.5l6 -6q16 28 27.5 37.5t24.5 9.5q9 0 18.5 -5.5t19 -23t19.5 -50t20 -87.5l45 -262q-26 -60 -49.5 -108t-49 -81
t-55 -51t-66.5 -18q-31 0 -31 36q0 12 10 27.5t10 34.5q0 16 -10.5 27.5t-34.5 11.5q-22 0 -37.5 -16t-15.5 -44q0 -20 8.5 -35.5t23.5 -26.5t34.5 -17t41.5 -6q43 0 76.5 22t63.5 65t59 106.5t63 146.5q42 101 69.5 163.5t50.5 99t46 53.5t56 27q14 5 24.5 13t10.5 25z
M330 505q-36 9 -58 28t-36 42t-21.5 47t-14 44t-14 33t-20.5 13q-19 0 -31 -13t-12 -33q0 -17 7 -39.5t29 -46t62.5 -45.5t106.5 -38q2 -1 3 3t-1 5z" />
    <glyph glyph-name="uni1EF4" unicode="&#x1ef4;" horiz-adv-x="660" 
d="M806 709h-202q-2 0 -3 -4t1 -4h96q3 0 3.5 -1t-2 -5.5t-8.5 -12.5t-18 -23l-253 -321l-75 360q-3 3 4 3h109q2 0 3 4t-1 4h-353q-2 0 -3 -4t1 -4h93q4 0 7 -3l78 -370l-101 -317q0 -3 -7 -3h-90q-2 0 -3.5 -4t0.5 -4h331q2 0 3.5 4t-0.5 4h-90q-7 0 -5 3l99 315l263 334
q11 14 18.5 22.5t12 12.5t7.5 5t5 1h78q2 0 3 4t-1 4zM265 -111q0 -25 -17.5 -44.5t-40.5 -19.5q-16 0 -26 11t-10 28q0 25 17.5 43.5t40.5 18.5q16 0 26 -10t10 -27z" />
    <glyph glyph-name="uni1EF5" unicode="&#x1ef5;" horiz-adv-x="453" 
d="M492 406q0 14 -6.5 21.5t-23.5 7.5q-24 0 -46 -21.5t-45.5 -62.5t-49.5 -99.5t-57 -133.5l-31 146q-17 85 -39.5 128t-63.5 43q-34 0 -62 -24.5t-54 -72.5l6 -6q16 28 27.5 37.5t24.5 9.5q9 0 18.5 -5.5t19 -23t19.5 -50t20 -87.5l45 -262q-26 -60 -49.5 -108t-49 -81
t-55 -51t-66.5 -18q-31 0 -31 36q0 12 10 27.5t10 34.5q0 16 -10.5 27.5t-34.5 11.5q-22 0 -37.5 -16t-15.5 -44q0 -20 8.5 -35.5t23.5 -26.5t34.5 -17t41.5 -6q43 0 76.5 22t63.5 65t59 106.5t63 146.5q42 101 69.5 163.5t50.5 99t46 53.5t56 27q14 5 24.5 13t10.5 25z
M264 -111q0 -25 -17.5 -44.5t-40.5 -19.5q-16 0 -26 11t-10 28q0 25 17.5 43.5t40.5 18.5q16 0 26 -10t10 -27z" />
    <glyph glyph-name="uni1EF6" unicode="&#x1ef6;" horiz-adv-x="660" 
d="M806 709h-202q-2 0 -3 -4t1 -4h96q3 0 3.5 -1t-2 -5.5t-8.5 -12.5t-18 -23l-253 -321l-75 360q-3 3 4 3h109q2 0 3 4t-1 4h-353q-2 0 -3 -4t1 -4h93q4 0 7 -3l78 -370l-101 -317q0 -3 -7 -3h-90q-2 0 -3.5 -4t0.5 -4h331q2 0 3.5 4t-0.5 4h-90q-7 0 -5 3l99 315l263 334
q11 14 18.5 22.5t12 12.5t7.5 5t5 1h78q2 0 3 4t-1 4zM531 814q-3 34 6.5 52.5t23.5 32t28 26.5t20 37q5 21 4.5 34.5t-5 21.5t-11.5 12.5t-15 6.5q-17 5 -25.5 -0.5t-10.5 -17.5t3.5 -25t1.5 -36q-6 -35 -41 -29q-23 4 -35 20.5t-7 39.5q3 19 14 31.5t26.5 19.5t33.5 8.5
t35 -1.5q25 -5 42 -18.5t26 -31t10.5 -36t-2.5 -33.5q-8 -25 -26.5 -38t-38.5 -22.5t-36.5 -20.5t-20.5 -33z" />
    <glyph glyph-name="uni1EF7" unicode="&#x1ef7;" horiz-adv-x="453" 
d="M492 406q0 14 -6.5 21.5t-23.5 7.5q-24 0 -46 -21.5t-45.5 -62.5t-49.5 -99.5t-57 -133.5l-31 146q-17 85 -39.5 128t-63.5 43q-34 0 -62 -24.5t-54 -72.5l6 -6q16 28 27.5 37.5t24.5 9.5q9 0 18.5 -5.5t19 -23t19.5 -50t20 -87.5l45 -262q-26 -60 -49.5 -108t-49 -81
t-55 -51t-66.5 -18q-31 0 -31 36q0 12 10 27.5t10 34.5q0 16 -10.5 27.5t-34.5 11.5q-22 0 -37.5 -16t-15.5 -44q0 -20 8.5 -35.5t23.5 -26.5t34.5 -17t41.5 -6q43 0 76.5 22t63.5 65t59 106.5t63 146.5q42 101 69.5 163.5t50.5 99t46 53.5t56 27q14 5 24.5 13t10.5 25z
M316 516q-3 34 6.5 52.5t23.5 32t28 26.5t20 37q5 21 4.5 34.5t-5 21.5t-11.5 12.5t-15 6.5q-17 5 -25.5 -0.5t-10.5 -17.5t3.5 -25t1.5 -36q-6 -35 -41 -29q-23 4 -35 20.5t-7 39.5q3 19 14 31.5t26.5 19.5t33.5 8.5t35 -1.5q25 -5 42 -18.5t26 -31t10.5 -36t-2.5 -33.5
q-8 -25 -26.5 -38t-38.5 -22.5t-36.5 -20.5t-20.5 -33z" />
    <glyph glyph-name="uni1EF8" unicode="&#x1ef8;" horiz-adv-x="660" 
d="M806 709h-202q-2 0 -3 -4t1 -4h96q3 0 3.5 -1t-2 -5.5t-8.5 -12.5t-18 -23l-253 -321l-75 360q-3 3 4 3h109q2 0 3 4t-1 4h-353q-2 0 -3 -4t1 -4h93q4 0 7 -3l78 -370l-101 -317q0 -3 -7 -3h-90q-2 0 -3.5 -4t0.5 -4h331q2 0 3.5 4t-0.5 4h-90q-7 0 -5 3l99 315l263 334
q11 14 18.5 22.5t12 12.5t7.5 5t5 1h78q2 0 3 4t-1 4zM735 916q0 2 -5 2q-4 0 -4 -2q0 -24 -14.5 -45t-48.5 -21q-17 0 -36 9t-40.5 20.5t-45 20.5t-48.5 9q-24 0 -47 -9t-40.5 -24.5t-28 -36.5t-10.5 -45q0 -2 4 -2t4 2q0 25 15 46t49 21q17 0 36 -9.5t40 -20.5t44.5 -20.5
t48.5 -9.5q24 0 47 9t41 25t28.5 36.5t10.5 44.5z" />
    <glyph glyph-name="uni1EF9" unicode="&#x1ef9;" horiz-adv-x="453" 
d="M492 406q0 14 -6.5 21.5t-23.5 7.5q-24 0 -46 -21.5t-45.5 -62.5t-49.5 -99.5t-57 -133.5l-31 146q-17 85 -39.5 128t-63.5 43q-34 0 -62 -24.5t-54 -72.5l6 -6q16 28 27.5 37.5t24.5 9.5q9 0 18.5 -5.5t19 -23t19.5 -50t20 -87.5l45 -262q-26 -60 -49.5 -108t-49 -81
t-55 -51t-66.5 -18q-31 0 -31 36q0 12 10 27.5t10 34.5q0 16 -10.5 27.5t-34.5 11.5q-22 0 -37.5 -16t-15.5 -44q0 -20 8.5 -35.5t23.5 -26.5t34.5 -17t41.5 -6q43 0 76.5 22t63.5 65t59 106.5t63 146.5q42 101 69.5 163.5t50.5 99t46 53.5t56 27q14 5 24.5 13t10.5 25z
M491 661q0 2 -5 2q-4 0 -4 -2q0 -24 -14.5 -45t-48.5 -21q-17 0 -36 9t-40.5 20.5t-45 20.5t-48.5 9q-24 0 -47 -9t-40.5 -24.5t-28 -36.5t-10.5 -45q0 -2 4 -2t4 2q0 25 15 46t49 21q17 0 36 -9.5t40 -20.5t44.5 -20.5t48.5 -9.5q24 0 47 9t41 25t28.5 36.5t10.5 44.5z" />
    <glyph glyph-name="endash" unicode="&#x2013;" horiz-adv-x="562" 
d="M525 232q2 0 2 4t-2 4h-488q-2 0 -2 -4t2 -4h488z" />
    <glyph glyph-name="emdash" unicode="&#x2014;" horiz-adv-x="1050" 
d="M1013 232q2 0 2 4t-2 4h-976q-2 0 -2 -4t2 -4h976z" />
    <glyph glyph-name="quoteleft" unicode="&#x2018;" horiz-adv-x="184" 
d="M286 720q2 0 2.5 4t-1.5 3q-40 -8 -76 -28.5t-63 -47t-43 -56.5t-16 -56q0 -20 11 -37.5t36 -17.5q29 0 43.5 17.5t14.5 44.5q0 12 -4 21.5t-8.5 18t-8 17.5t-3.5 20q0 15 6.5 27.5t17 22.5t23 17.5t24.5 13.5q9 5 21 9t24 7z" />
    <glyph glyph-name="quoteright" unicode="&#x2019;" horiz-adv-x="184" 
d="M262 673q0 -26 -16 -56t-43 -56.5t-63 -47t-76 -28.5q-2 -1 -1.5 3t2.5 4q12 3 24 7t21 9q12 6 25 13.5t23.5 17.5t17 22.5t6.5 27.5q0 11 -4 20t-8.5 17.5t-8.5 18t-4 21.5q0 27 15 44.5t43 17.5q25 0 36 -17.5t11 -37.5z" />
    <glyph glyph-name="quotesinglbase" unicode="&#x201a;" horiz-adv-x="199" 
d="M127 50q0 -27 -16 -56.5t-43.5 -56t-63.5 -47t-76 -28.5q-2 -2 -1.5 2t2.5 5q27 5 46 15q12 6 24.5 14t23 17.5t17 22t6.5 27.5q0 11 -4 20t-8.5 18t-8 18.5t-3.5 21.5q0 26 14.5 44t42.5 18q25 0 36.5 -17.5t11.5 -37.5z" />
    <glyph glyph-name="quotedblleft" unicode="&#x201c;" horiz-adv-x="338" 
d="M440 720q2 0 2.5 4t-1.5 3q-40 -8 -76 -28.5t-63 -47t-43 -56.5t-16 -56q0 -20 11 -37.5t36 -17.5q29 0 43.5 17.5t14.5 44.5q0 12 -4 21.5t-8.5 18t-8 17.5t-3.5 20q0 15 6.5 27.5t17 22.5t23 17.5t24.5 13.5q9 5 21 9t24 7zM286 720q2 0 2.5 4t-1.5 3q-40 -8 -76 -28.5
t-63 -47t-43 -56.5t-16 -56q0 -20 11 -37.5t36 -17.5q29 0 43.5 17.5t14.5 44.5q0 12 -4 21.5t-8.5 18t-8 17.5t-3.5 20q0 15 6.5 27.5t17 22.5t23 17.5t24.5 13.5q9 5 21 9t24 7z" />
    <glyph glyph-name="quotedblright" unicode="&#x201d;" horiz-adv-x="338" 
d="M416 673q0 20 -11 37.5t-36 17.5q-28 0 -43 -17.5t-15 -44.5q0 -12 4 -21.5t8.5 -18t8.5 -17.5t4 -20q0 -15 -6.5 -27.5t-17 -22.5t-23.5 -17.5t-25 -13.5q-9 -5 -21 -9t-24 -7q-2 0 -2.5 -4t1.5 -3q40 8 76 28.5t63 47t43 56.5t16 56zM262 673q0 20 -11 37.5t-36 17.5
q-28 0 -43 -17.5t-15 -44.5q0 -12 4 -21.5t8.5 -18t8.5 -17.5t4 -20q0 -15 -6.5 -27.5t-17 -22.5t-23.5 -17.5t-25 -13.5q-9 -5 -21 -9t-24 -7q-2 0 -2.5 -4t1.5 -3q40 8 76 28.5t63 47t43 56.5t16 56z" />
    <glyph glyph-name="quotedblbase" unicode="&#x201e;" horiz-adv-x="353" 
d="M281 50q0 20 -11.5 37.5t-36.5 17.5q-28 0 -42.5 -18t-14.5 -44q0 -12 3.5 -21.5t8 -18.5t8.5 -18t4 -20q0 -15 -6.5 -27.5t-17 -22t-23 -17.5t-24.5 -14q-10 -5 -21.5 -9t-24.5 -6q-2 -1 -2.5 -5t1.5 -2q40 8 76 28.5t63.5 47t43.5 56t16 56.5zM127 50q0 20 -11.5 37.5
t-36.5 17.5q-28 0 -42.5 -18t-14.5 -44q0 -12 3.5 -21.5t8 -18.5t8.5 -18t4 -20q0 -15 -6.5 -27.5t-17 -22t-23 -17.5t-24.5 -14q-10 -5 -21.5 -9t-24.5 -6q-2 -1 -2.5 -5t1.5 -2q40 8 76 28.5t63.5 47t43.5 56t16 56.5z" />
    <glyph glyph-name="dagger" unicode="&#x2020;" horiz-adv-x="604" 
d="M591 375q0 16 -7 33t-21.5 31.5t-36 24t-50.5 9.5q-45 0 -73.5 -17t-44.5 -43q3 12 11.5 25t17.5 29.5t15.5 36t6.5 43.5q0 8 -1.5 20t-1.5 29q0 19 9.5 29.5t20.5 19.5t20.5 21t9.5 36q0 19 -12.5 30.5t-30.5 11.5q-12 0 -24 -5.5t-21.5 -15t-15.5 -22t-6 -26.5
q0 -15 2.5 -23t5.5 -13t5.5 -9.5t2.5 -11.5q0 -8 -6 -17.5t-14.5 -20.5t-17 -23t-13.5 -26q-8 -21 -10.5 -37t-3.5 -30t-2.5 -26.5t-5.5 -24.5q-1 12 -6.5 23.5t-16.5 21t-27.5 15.5t-38.5 6q-41 0 -71.5 -12t-51.5 -29t-31.5 -36.5t-10.5 -34.5q0 -17 11.5 -27.5
t28.5 -10.5q32 0 42.5 18.5t10.5 41.5q0 45 20 63.5t49 18.5q53 0 75.5 -31.5t2.5 -97.5q-6 -21 -15 -33.5t-18 -19.5t-17 -10t-13 -5q-2 0 -2.5 -4t1.5 -3q19 6 19 -31t-17 -112t-49.5 -186.5t-76.5 -253.5q-2 -2 2 -2.5t4 1.5q45 142 83 252.5t68 184.5t52.5 109.5
t36.5 28.5q2 -2 4 1.5t0 5.5q-4 2 -9.5 6.5t-9 13.5t-4 22.5t5.5 34.5q21 66 54.5 94.5t89.5 28.5q23 0 33.5 -10t10.5 -33q0 -12 -4 -20t-8.5 -15t-8 -16t-3.5 -23q0 -17 12 -24.5t29 -7.5q25 0 40.5 15t15.5 44z" />
    <glyph glyph-name="daggerdbl" unicode="&#x2021;" horiz-adv-x="603" 
d="M608 420q0 15 -7.5 32t-22.5 31t-37.5 23t-52.5 9q-42 0 -70 -17t-45 -46q4 13 10 23t12 20.5t10.5 23t4.5 30.5q0 9 -2 19.5t-2 27.5q0 20 9.5 30t20.5 19t20.5 21t9.5 36q0 19 -13 30.5t-29 11.5q-13 0 -25.5 -5.5t-22 -15.5t-15.5 -22.5t-6 -25.5q0 -15 2.5 -23
t5.5 -13t5.5 -9t2.5 -12t-6 -17t-14 -19t-16 -21.5t-13 -25.5q-5 -16 -4.5 -33.5t-0.5 -43.5q-4 26 -24.5 44.5t-65.5 18.5q-41 0 -72 -11.5t-51.5 -28.5t-31 -35.5t-10.5 -33.5q0 -19 11.5 -29t28.5 -10q32 0 42.5 18.5t10.5 41.5q0 45 19.5 62.5t48.5 17.5q49 0 73.5 -27
t5.5 -88q-7 -21 -15.5 -33.5t-16.5 -20t-15.5 -11t-12.5 -5.5q-2 -1 -2 -5q0 -3 2 -2q18 7 27 -1t10.5 -24.5t-2.5 -38.5t-10 -43q-7 -21 -16 -41.5t-20.5 -35.5t-24.5 -22t-28 1q-2 1 -3.5 -3t0.5 -4q4 -2 9 -6t8.5 -12t3.5 -21t-7 -33q-20 -62 -52 -89t-81 -27
q-25 0 -38 9t-13 31q0 12 4 20t9 15t9 15.5t4 22.5q0 17 -12 24.5t-30 7.5q-24 0 -40 -15t-16 -43q0 -15 7.5 -32t22.5 -31t37.5 -23t51.5 -9q43 0 71.5 16.5t45.5 45.5q-4 -13 -10.5 -23t-12.5 -20.5t-10 -22.5t-4 -30q0 -10 2 -20t2 -27q0 -20 -9.5 -30t-21 -19t-21 -21.5
t-9.5 -36.5q0 -19 13 -30t30 -11q13 0 25 5.5t22 15t16 21.5t6 25q0 16 -2.5 24t-5.5 13t-5.5 9.5t-2.5 12.5t5.5 16.5t13.5 18.5t16.5 21.5t13.5 25.5q5 16 4.5 34t0.5 44q3 -26 24 -44.5t66 -18.5q40 0 71 11.5t51.5 28t31 35.5t10.5 34q0 17 -11 28t-28 11
q-33 0 -43 -18.5t-10 -41.5q0 -45 -19.5 -62.5t-50.5 -17.5q-24 0 -42.5 6.5t-29.5 20.5t-13 36t7 52q6 20 14.5 33t17 20.5t16 10.5l12.5 5q3 1 3 5t-2 3q-18 -7 -27 1t-10.5 24.5t2 38t10.5 42.5q6 20 15.5 41t21 36.5t24.5 22t28 -0.5q1 -2 3 1.5t0 5.5q-4 2 -9 6
t-8.5 12t-3.5 21t6 33q20 62 52 89t82 27q25 0 37.5 -9t12.5 -31q0 -13 -4 -20.5t-8.5 -15t-8.5 -16t-4 -22.5q0 -17 12 -25t30 -8q24 0 39.5 15.5t15.5 44.5z" />
    <glyph glyph-name="bullet" unicode="&#x2022;" horiz-adv-x="345" 
d="M316 354q0 25 -9.5 46.5t-25.5 37.5t-37.5 25.5t-45.5 9.5q-25 0 -46.5 -9.5t-37.5 -25.5t-25.5 -37.5t-9.5 -46.5t9.5 -46.5t25.5 -37.5t37.5 -25.5t46.5 -9.5q24 0 45.5 9.5t37.5 25.5t25.5 37.5t9.5 46.5z" />
    <glyph glyph-name="ellipsis" unicode="&#x2026;" horiz-adv-x="621" 
d="M550 59q0 20 -12 33t-29 13q-28 0 -48.5 -23t-20.5 -52q0 -20 12 -32.5t30 -12.5q13 0 25.5 6t22 16.5t15 24t5.5 27.5zM339 59q0 20 -12 33t-29 13q-28 0 -48.5 -23t-20.5 -52q0 -20 12 -32.5t30 -12.5q13 0 25.5 6t22 16.5t15 24t5.5 27.5zM128 59q0 20 -12 33t-29 13
q-28 0 -48.5 -23t-20.5 -52q0 -20 12 -32.5t30 -12.5q13 0 25.5 6t22 16.5t15 24t5.5 27.5z" />
    <glyph glyph-name="perthousand" unicode="&#x2030;" horiz-adv-x="1096" 
d="M1080 220q0 60 -33.5 93t-84.5 33q-49 0 -91 -21.5t-73 -54.5t-48.5 -73.5t-17.5 -79.5q0 -60 34 -93t85 -33q49 0 91 21.5t73 54.5t48 73.5t17 79.5zM401 587q0 60 -33.5 93t-84.5 33q-49 0 -91 -21t-72.5 -54.5t-48 -74t-17.5 -79.5q0 -60 33.5 -93t84.5 -33
q49 0 91 21.5t73 54.5t48 73.5t17 79.5zM605 726q1 1 -2.5 3.5t-4.5 0.5l-447 -749q-1 -2 2.5 -4.5t4.5 -0.5zM702 220q0 60 -34 93t-85 33q-49 0 -91 -21.5t-72.5 -54.5t-48 -73.5t-17.5 -79.5q0 -60 33.5 -93t85.5 -33q49 0 91 21.5t72.5 54.5t48 73.5t17.5 79.5z
M1010 270q0 -23 -7.5 -59t-21 -73.5t-32 -71t-39.5 -49.5q-14 -11 -27.5 -14.5t-29.5 -3.5q-27 0 -38 16t-11 52q0 22 7.5 58.5t21 74t32 70.5t39.5 50q14 11 28 14.5t30 3.5q27 0 37.5 -16t10.5 -52zM331 637q0 -23 -8 -59t-21.5 -73.5t-31.5 -71t-39 -49.5
q-14 -11 -27.5 -14.5t-29.5 -3.5q-27 0 -37.5 16t-10.5 52q0 22 7.5 58.5t21 74t31.5 70.5t39 50q14 11 28 14.5t30 3.5q27 0 37.5 -16t10.5 -52zM631 270q0 -23 -7.5 -59t-21 -73.5t-31.5 -71t-39 -49.5q-14 -11 -28 -14.5t-30 -3.5q-27 0 -37.5 16t-10.5 52q0 22 7.5 58.5
t21 74t32 70.5t39.5 50q14 11 27.5 14.5t30.5 3.5q26 0 36.5 -16t10.5 -52z" />
    <glyph glyph-name="guilsinglleft" unicode="&#x2039;" horiz-adv-x="269" 
d="M253 373q-8 -23 -21.5 -47.5t-30 -46.5t-33.5 -40t-31 -28q7 -11 13 -28t8 -39t0.5 -46.5t-8.5 -48.5q-1 -4 -6.5 -3.5t-4.5 4.5q9 29 -0.5 56.5t-26.5 50.5t-35.5 38.5t-27.5 20.5q-6 2 1 4q12 5 40 19t58.5 34t57.5 46t36 55q1 4 6.5 3.5t4.5 -4.5z" />
    <glyph glyph-name="guilsinglright" unicode="&#x203a;" horiz-adv-x="269" 
d="M220 208q4 -2 -1 -4q-12 -5 -40 -19t-58.5 -34t-57.5 -46t-36 -55q-1 -4 -6.5 -3.5t-4.5 4.5q7 24 21 48t30.5 45.5t33.5 39.5t31 29q-8 9 -13.5 27t-8 40t-1 46.5t9.5 48.5q1 4 6.5 3.5t4.5 -4.5q-9 -29 0.5 -57t26.5 -50.5t35.5 -38t27.5 -20.5z" />
    <glyph glyph-name="trademark" unicode="&#x2122;" horiz-adv-x="429" 
d="M525 552h-81q-1 0 -1 4t1 4h21q2 0 2 1v135l-57 -147q0 -1 -2 -1t-2 1l-58 147v-135q0 -1 2 -1h21q1 0 1 -4t-1 -4h-53q-1 0 -1 4t1 4h21q2 0 2 1v139q0 1 -2 1h-21q-1 0 -1 4t1 4h59q2 0 3 -4l40 -108l41 108q1 4 3 4h61v-8h-21q-2 0 -2 -1v-139q0 -1 2 -1h21v-8z
M291 653h-7q0 19 -12.5 33.5t-38.5 14.5h-3q-1 0 -1 -1v-139q0 -1 1 -1h22q1 0 1 -4t-1 -4h-81q-1 0 -1 4t1 4h21q2 0 2 1v139q0 1 -2 1h-2q-27 0 -39 -14.5t-12 -33.5h-7v55q0 1 1 1h158v-1v-55z" />
    <glyph glyph-name="fraction" unicode="&#x2215;" horiz-adv-x="493" 
d="M427 725l-454 -750q-1 -2 -4 0.5t-2 4.5l452 749q1 2 5 -0.5t3 -3.5z" />
    <glyph glyph-name="radical" unicode="&#x221a;" horiz-adv-x="777" 
d="M835 739q1 2 -1.5 3.5t-3.5 -0.5q-4 -4 -9 -7t-15 -5t-28 -3t-49 -1q-17 8 -35 12.5t-46 4.5q-33 0 -65 -14t-62 -40q-17 26 -43.5 40t-67.5 14q-38 0 -75 -18.5t-70 -51.5t-60 -79.5t-45 -102.5q-5 -14 -9.5 -29.5t-10.5 -34.5h-102q-2 0 -3.5 -3.5t0.5 -3.5h103
q-16 -57 -32.5 -125.5t-34 -138.5t-34.5 -135.5t-33 -116.5q-19 -60 -33 -100.5t-26.5 -65t-26 -35.5t-32.5 -11q-16 0 -24.5 9.5t-8.5 26.5q0 14 9.5 29.5t9.5 33.5q0 17 -10 27.5t-35 10.5q-21 0 -36 -15.5t-15 -42.5q0 -20 8.5 -36.5t23.5 -27.5t34.5 -17t41.5 -6
q28 0 52.5 10t46.5 27q17 -19 40.5 -28t58.5 -9q36 0 73.5 19t71 53.5t61.5 81t46 102.5q13 41 31.5 99t38.5 122.5t40 131.5t36 127h152l-96 -304q-19 -62 -0.5 -93.5t66.5 -31.5q15 0 33.5 6t37.5 19t36 32t31 46l-8 4q-23 -42 -46.5 -60t-46.5 -18q-14 0 -19.5 9t-0.5 24
zM726 718l-91 -291h-152q5 18 11 42t11 39q22 69 41 113t37 69.5t36 35t39 9.5q36 0 68 -17zM515 682q-37 -33 -66.5 -82t-49.5 -109q-10 -28 -19 -64h-137q5 18 12 42t12 39q22 69 40.5 113t36.5 69.5t36.5 35t39.5 9.5q64 0 95 -53zM377 420q-16 -57 -35 -124.5
t-38.5 -136t-38.5 -132.5t-35 -115q-22 -69 -41.5 -112t-38 -66.5t-38 -32t-41.5 -8.5q-50 0 -82 33q38 34 68.5 90t53.5 127q13 41 29 98.5t33 121.5t34.5 130.5t33.5 126.5h136z" />
    <glyph glyph-name="approxequal" unicode="&#x2248;" horiz-adv-x="778" 
d="M790 628q0 29 -11 50.5t-30.5 36t-45 21.5t-55.5 7q-33 0 -65 -14t-61 -40q-17 26 -44 40t-69 14q-38 0 -74.5 -18.5t-69.5 -51.5t-60 -79.5t-45 -102.5q-5 -14 -9.5 -29.5t-9.5 -34.5h-103q-2 0 -3.5 -3.5t0.5 -3.5h104q-16 -57 -33 -125.5t-34 -138.5t-34.5 -135.5
t-33.5 -116.5q-19 -60 -33 -100.5t-26.5 -65t-26 -35.5t-32.5 -11q-16 0 -24.5 9.5t-8.5 26.5q0 14 9.5 29.5t9.5 33.5q0 17 -10 27.5t-35 10.5q-21 0 -36 -15.5t-15 -42.5q0 -20 8.5 -36.5t23.5 -27.5t34.5 -17t41.5 -6q28 0 53 10t47 27q17 -19 40.5 -28t58.5 -9
q36 0 73.5 19t71 53.5t61.5 81t46 102.5q13 41 31.5 99t38 122.5t39.5 131.5t36 127h151q-3 -14 -12 -41.5t-21.5 -61t-26 -71t-25 -71t-19 -60.5t-7.5 -40q-5 -38 17.5 -61t64.5 -23q15 0 33.5 6t37.5 19t36 32t31 46l-8 4q-23 -42 -46.5 -60t-46.5 -18q-31 0 -28 38
q0 9 8 35t20 61t27.5 76t30 80.5t27.5 74t21 56.5q0 2 -2.5 3.5t-4.5 -0.5q-5 -5 -12.5 -8t-20 -5t-31.5 -3t-47 -1h-144q5 18 11 42t11 39q22 69 40.5 113t37 69.5t37 35t40.5 9.5q29 0 45 -13.5t16 -35.5q0 -13 -5 -21.5t-11 -16.5t-11 -17.5t-5 -23.5q0 -41 46 -41
q21 0 38 17t17 45zM514 683q-35 -34 -65 -82.5t-50 -109.5q-5 -14 -9.5 -29.5t-9.5 -34.5h-136q5 18 11.5 42t11.5 39q22 69 40.5 113t36.5 69.5t36.5 35t39.5 9.5q30 0 55 -13t39 -39zM377 420q-16 -57 -35 -124.5t-38.5 -136t-38.5 -132.5t-35 -115q-22 -69 -41.5 -112
t-38 -66.5t-38 -32t-40.5 -8.5q-24 0 -45 8t-37 25q38 34 68 90t53 127q13 41 29.5 98.5t33.5 121.5t34.5 130.5t33.5 126.5h135z" />
    </font>
</defs>
</svg>
