<?xml version="1.0" standalone="no"?>
<!DOCTYPE svg PUBLIC "-//W3C//DTD SVG 1.1//EN" "http://www.w3.org/Graphics/SVG/1.1/DTD/svg11.dtd" >
<svg xmlns="http://www.w3.org/2000/svg" xmlns:xlink="http://www.w3.org/1999/xlink" version="1.1">
<metadata>
Created by FontForge 20170731 at Wed May 22 13:20:01 2013
 By Aleksey,,,
Copyright (c) 2012 by Stereotypes. All rights reserved.
</metadata>
<defs>
<font id="UVFFlorenceRegular" horiz-adv-x="660" >
  <font-face 
    font-family="UVF Florence Regular"
    font-weight="400"
    font-stretch="normal"
    units-per-em="2000"
    panose-1="2 0 0 0 0 0 0 0 0 0"
    ascent="1600"
    descent="-400"
    x-height="1045"
    cap-height="1354"
    bbox="-2499 -938 2811 2282"
    underline-thickness="100"
    underline-position="-300"
    unicode-range="U+0020-FB06"
  />
<missing-glyph horiz-adv-x="515" 
 />
    <glyph glyph-name="f_f" unicode="ff" horiz-adv-x="888" 
d="M203 -11q-19 0 -33.5 12.5t-14.5 38.5q2 223 -0.5 448t-7.5 454q-21 -1 -36.5 -1h-23.5q-29 -2 -41.5 13t-12.5 36q0 19 4.5 30t13.5 22q14 -1 37.5 -1.5t55.5 -0.5q-1 110 16 185t49 120.5t77 65.5t100 20q46 0 78 -7.5t55 -20.5q17 -8 24 -21.5t7 -24.5
q0 -21 -11.5 -39t-28.5 -27q-28 14 -53.5 22.5t-60.5 8.5q-37 0 -64.5 -12.5t-45.5 -44.5t-27 -87t-10 -139q78 0 167.5 0.5t172.5 0.5q-1 117 15.5 196.5t48 128.5t76.5 70t100 21q46 0 80 -11t60 -31q19 -14 25 -27t6 -29q0 -19 -10.5 -33t-27.5 -23q-22 20 -55 34.5
t-75 14.5q-34 0 -59.5 -14.5t-42.5 -49.5t-26.5 -95t-10.5 -151q49 0 86.5 0.5t57.5 1.5q20 0 29.5 -14t9.5 -33q0 -20 -5.5 -31t-14.5 -22q-21 0 -64.5 0.5t-99.5 0.5q0 -112 1 -236t2.5 -247.5t4.5 -240t6 -214.5q-22 -17 -59 -17q-19 0 -33.5 12.5t-13.5 38.5
q2 223 -1 448.5t-8 455.5q-87 0 -177 -0.5t-165 -0.5q0 -112 1 -235.5t2.5 -246.5t4 -240t5.5 -215q-22 -17 -59 -17z" />
    <glyph glyph-name="fi" unicode="fi" horiz-adv-x="746" 
d="M592 -13q-9 0 -19 3t-19 9t-14.5 15.5t-4.5 23.5q4 109 5 227.5t0.5 237.5t-1.5 232.5t1 212.5q-75 2 -148.5 0.5t-142.5 -3.5q0 -112 1 -236t2.5 -247.5t4 -240.5t5.5 -215q-22 -17 -59 -17q-19 0 -33.5 12.5t-14.5 38.5q2 223 -0.5 448t-7.5 454q-16 -1 -31 -1h-29
q-29 -2 -41.5 13t-12.5 36q0 19 4.5 30t13.5 22q22 -2 45.5 -3t47.5 -1q-2 118 15.5 198t53 129t88 70t120.5 21q37 0 66 -5.5t50.5 -14t37.5 -19t28 -20.5q17 -16 24 -28.5t7 -28.5q0 -19 -11.5 -33.5t-28.5 -21.5q-9 9 -25 21t-37 22.5t-48 17.5t-59 7q-48 0 -81 -15
t-53.5 -51t-30.5 -97t-11 -152q85 2 173 4.5t171 1.5q20 0 36.5 -11.5t15.5 -32.5q-3 -109 -4.5 -236t-2 -259t0 -262t1.5 -244q-8 -5 -17.5 -8.5t-30.5 -3.5z" />
    <glyph glyph-name="fl" unicode="fl" horiz-adv-x="875" 
d="M756 -14q-103 0 -160 74.5t-58 205.5q-2 132 -2 257.5t1 251.5t1.5 256.5t-0.5 273.5q-19 14 -52 29.5t-78 15.5q-42 0 -71.5 -14.5t-48.5 -50t-28.5 -95t-10.5 -150.5q37 0 72.5 1t70.5 2q20 0 29 -14t9 -33q0 -20 -5 -31t-14 -22q-77 2 -162 0q0 -112 1 -235.5
t2.5 -246.5t4 -240t5.5 -215q-22 -17 -59 -17q-19 0 -33.5 12.5t-14.5 38.5q2 223 -0.5 448t-7.5 454q-17 0 -32 -0.5t-28 -0.5q-29 -2 -41.5 13t-12.5 36q0 19 4.5 30t13.5 22q45 -3 93 -3q-1 117 16 197t50.5 129t81.5 70t109 21q46 0 78 -9.5t57 -24.5v15q7 10 19.5 15
t33.5 5q27 1 41.5 -17t14.5 -44q0 -154 -2 -297.5t-4 -280t-3 -268.5t1 -262q0 -41 8.5 -75.5t25 -60t40 -40t54.5 -14.5q23 0 39.5 4t35.5 15q22 -18 22 -65q0 -15 -9 -27.5t-24 -21t-34 -13t-39 -4.5z" />
    <glyph glyph-name="ffi" unicode="ffi" horiz-adv-x="1190" 
d="M1037 -13q-9 0 -19.5 3t-19.5 9t-14.5 15.5t-4.5 23.5q4 109 5 228t0.5 237.5t-1.5 232.5t1 212q-60 2 -134 2.5t-157 -0.5q0 -113 1 -237t2.5 -248.5t4 -242t5.5 -216.5q-22 -17 -59 -17q-19 0 -33.5 12.5t-13.5 38.5q2 224 -1 450.5t-8 457.5q-91 -1 -178 -2.5
t-164 -3.5q0 -112 1 -235.5t2.5 -246.5t4 -239.5t5.5 -214.5q-22 -17 -59 -17q-19 0 -33.5 12.5t-14.5 38.5q2 222 -0.5 447t-7.5 454h-60q-29 -2 -41.5 13t-12.5 36q0 19 4.5 30t13.5 22q22 -2 45 -3t48 -2q-1 111 16 186.5t49 121.5t77 66t100 20q46 0 78 -7.5t55 -20.5
q17 -8 24 -21.5t7 -24.5q0 -21 -11.5 -39t-28.5 -27q-28 14 -53.5 22.5t-60.5 8.5q-38 0 -65 -13t-45 -45.5t-27 -88t-10 -141.5q80 -1 166 1t174 4q-1 117 16.5 197t52.5 129t87 70t120 21q37 0 66 -5.5t50.5 -14t37.5 -19t28 -20.5q17 -16 24 -28.5t7 -28.5
q0 -19 -11.5 -33.5t-28.5 -21.5q-9 9 -25 21t-37 22.5t-48 17.5t-59 7q-48 0 -80.5 -14.5t-53.5 -50.5t-31 -96t-11 -150q97 2 185 3t159 -1h4q19 -2 34.5 -13t13.5 -31q-3 -109 -4.5 -236t-2 -259t0 -262t1.5 -244q-8 -5 -17.5 -8.5t-29.5 -3.5z" />
    <glyph glyph-name="ffl" unicode="ffl" horiz-adv-x="1320" 
d="M203 -11q-19 0 -33.5 12.5t-14.5 38.5q2 223 -0.5 448t-7.5 454q-21 -1 -36.5 -1h-23.5q-29 -2 -41.5 13t-12.5 36q0 19 4.5 30t13.5 22q14 -1 37.5 -1.5t55.5 -0.5q-1 110 16 185t49 120.5t77 65.5t100 20q46 0 78 -7.5t55 -20.5q17 -8 24 -21.5t7 -24.5
q0 -21 -11.5 -39t-28.5 -27q-28 14 -53.5 22.5t-60.5 8.5q-37 0 -64.5 -12.5t-45.5 -44.5t-27 -87t-10 -139q78 0 167.5 0.5t172.5 0.5q-1 117 16 196.5t50 128.5t81.5 70t109.5 21q45 0 77.5 -9.5t56.5 -24.5v15q7 10 19.5 15t33.5 5q27 1 41.5 -17t14.5 -44
q0 -154 -2 -297.5t-4 -280t-3 -268.5t1 -262q0 -41 9 -75.5t25 -60t40 -40t54 -14.5q23 0 39.5 4t35.5 15q22 -18 22 -65q0 -15 -9 -27.5t-24 -21t-34 -13t-39 -4.5q-103 0 -160 74.5t-58 205.5q-2 132 -2 257.5t1 251.5t1.5 256.5t-0.5 273.5q-19 14 -51.5 29.5t-77.5 15.5
q-42 0 -71.5 -14.5t-48.5 -49.5t-29 -94.5t-11 -150.5q49 0 86.5 0.5t57.5 1.5q20 0 29.5 -14t9.5 -33q0 -20 -5.5 -31t-14.5 -22q-21 0 -64.5 0.5t-98.5 0.5q0 -112 1 -236t2.5 -247t4 -240t5.5 -215q-22 -17 -59 -17q-19 0 -33.5 12.5t-13.5 38.5q2 223 -1 448.5t-8 455.5
q-87 0 -177 -0.5t-165 -0.5q0 -112 1 -235.5t2.5 -246.5t4 -240t5.5 -215q-22 -17 -59 -17z" />
    <glyph glyph-name="g_g" unicode="gg" horiz-adv-x="1162" 
d="M852 397q-25 0 -51 8q-8 -16 -11.5 -34t-3.5 -43q0 -36 28 -71t69 -64q69 -48 115 -85t74 -73t39.5 -76t11.5 -94q0 -55 -20 -100.5t-53.5 -78.5t-77 -51t-89.5 -18q-61 0 -107.5 21.5t-77.5 60.5t-47 94t-16 122q0 44 8.5 82.5t22.5 71.5t33 59.5t39 47.5
q-20 23 -33 53.5t-13 72.5q0 43 12 81t34 64q-45 48 -68 132.5t-23 189.5q0 143 55 211.5t158 68.5q43 0 82 -11q5 89 37 127t81 38q28 0 47.5 -13.5t19.5 -41.5q0 -17 -6.5 -28.5t-14.5 -19.5q-8 4 -20.5 6t-20.5 2q-14 0 -23.5 -4.5t-16 -16.5t-10 -32.5t-5.5 -52.5
q36 -31 55.5 -83t19.5 -129q0 -90 -18 -163t-49.5 -124t-74 -78.5t-91.5 -27.5zM271 397q-27 0 -48 7q-8 -16 -13 -34.5t-5 -41.5q0 -36 29 -73t70 -65q69 -48 113 -85.5t69 -74t34.5 -77t9.5 -94.5t-17.5 -99.5t-49 -79t-74.5 -52.5t-94 -19q-115 0 -179.5 73t-64.5 208
q0 47 9 89.5t23.5 78.5t34 65.5t40.5 50.5q-20 23 -33.5 54.5t-13.5 73.5q0 41 13.5 79t34.5 64q-46 48 -69 133t-23 191q0 143 54.5 211.5t157.5 68.5q55 0 96 -16q5 85 37 121t79 36q28 0 47.5 -14t19.5 -41q0 -17 -6 -28.5t-14 -19.5q-8 4 -21 6t-21 2q-13 0 -22.5 -4.5
t-16 -17t-10 -33.5t-5.5 -54q30 -34 46 -89t16 -135t-18 -147t-49.5 -115.5t-74 -75.5t-91.5 -27zM280 953q-50 0 -80 -45.5t-30 -136.5q0 -56 6.5 -107t19.5 -89t32.5 -60.5t46.5 -22.5q26 0 49 21.5t40 57.5t27 83.5t10 100.5q0 106 -31 152t-90 46zM861 953
q-50 0 -80 -45.5t-30 -136.5q0 -56 6.5 -107t19.5 -89t32.5 -60.5t46.5 -22.5q26 0 48.5 22t39.5 60t27 90.5t10 113.5q0 89 -30.5 132t-89.5 43zM1016 -136q0 43 -11 72t-36 55.5t-67 56t-103 74.5q-24 -32 -41.5 -80.5t-17.5 -120.5q0 -47 9.5 -86t27 -67t43 -43t58.5 -15
q31 0 56.5 12t43.5 33t28 49t10 60zM423 -142q0 43 -9 72.5t-32 56.5t-62.5 57.5t-101.5 75.5q-26 -33 -44.5 -89t-18.5 -135q0 -41 9 -76.5t26.5 -61.5t42 -40.5t56.5 -14.5q33 0 58 12.5t42 33.5t25.5 49t8.5 60z" />
    <glyph glyph-name="l_l" unicode="ll" horiz-adv-x="775" 
d="M282 -15q-89 0 -137.5 61t-50.5 200q-3 147 -2.5 285t1.5 277.5t1.5 287t-2.5 314.5q7 10 19.5 15t33.5 6q27 0 41.5 -18t14.5 -44q0 -153 -2 -295.5t-4 -278t-3.5 -266.5t0.5 -261q1 -87 28.5 -129t88.5 -42q34 0 61 10q8 -10 12 -26t4 -35q0 -15 -8.5 -26.5t-23 -19
t-33.5 -11.5t-39 -4zM656 -13q-103 0 -160 69t-59 200q-2 147 -1.5 289t1.5 287t1 296.5t-3 318.5q8 9 20.5 14.5t33.5 5.5q27 1 41.5 -17t14.5 -44q0 -308 -6.5 -587.5t-2.5 -539.5q1 -82 34 -131t95 -49q23 0 39.5 4t34.5 15q23 -17 23 -57q0 -18 -9 -32t-24 -23.5
t-34 -14t-39 -4.5z" />
    <glyph glyph-name="s_s" unicode="ss" horiz-adv-x="1045" 
d="M239 -12q-55 0 -94 15.5t-67 39.5q-11 10 -19.5 27t-8.5 35q0 21 13.5 36.5t34.5 16.5q10 -8 23 -19.5t30 -22.5t39 -19t49 -8q33 0 59.5 10.5t46 28.5t30 41.5t10.5 48.5q0 48 -23.5 91t-58.5 85t-75.5 85t-75.5 90.5t-58.5 101t-23.5 117.5q0 56 15.5 102.5t43.5 80.5
t68 52.5t88 18.5q37 0 74 -10t65 -36q13 -12 20 -26.5t6 -37.5t-15.5 -36t-34.5 -18q-7 9 -18 20t-26 20t-33 15t-37 6q-29 0 -50.5 -12t-36 -30.5t-22 -42t-7.5 -46.5q0 -58 24 -107t59.5 -93.5t77 -87t77 -88t59.5 -96t24 -110.5q0 -53 -19.5 -97t-54 -75.5t-80.5 -48.5
t-98 -17zM762 -12q-55 0 -91.5 12.5t-63.5 33.5q-12 9 -20 26.5t-8 34.5q0 22 13.5 37.5t34.5 16.5q10 -8 22 -18.5t28 -19.5t36.5 -15.5t47.5 -6.5q30 0 54.5 11t41 30.5t25.5 46.5t9 58q0 42 -23 83.5t-57.5 84t-74.5 87t-74.5 92t-57.5 99.5t-23 110q0 64 17 111.5
t47.5 78.5t72 46t89.5 15q37 0 74.5 -10t65.5 -36q12 -12 21.5 -28t8.5 -42q-1 -23 -17 -38.5t-37 -15.5q-7 9 -18.5 21t-27.5 22t-36 17t-43 7q-50 0 -83.5 -34.5t-33.5 -108.5q0 -49 23.5 -93.5t58.5 -88t76 -86.5t76 -88.5t58.5 -95t23.5 -104.5q0 -56 -18.5 -102.5
t-51 -79.5t-75 -51.5t-90.5 -18.5z" />
    <glyph glyph-name=".notdef" horiz-adv-x="515" 
 />
    <glyph glyph-name=".null" horiz-adv-x="0" 
 />
    <glyph glyph-name="nonmarkingreturn" horiz-adv-x="240" 
 />
    <glyph glyph-name="space" unicode=" " horiz-adv-x="240" 
 />
    <glyph glyph-name="exclam" unicode="!" horiz-adv-x="360" 
d="M174 161q15 0 30 -4.5t27 -14t20 -24t8 -34.5q0 -43 -22.5 -67t-59.5 -24q-32 0 -54 23.5t-22 65.5q0 37 22.5 58t50.5 21zM177 257q-8 0 -18 2t-18.5 8t-14 17.5t-4.5 29.5q2 131 2.5 255.5t-1 248.5t-4 251t-6.5 262q8 6 22.5 11.5t35.5 5.5q55 0 53 -47
q-2 -140 -0.5 -270.5t3 -256.5t3 -250.5t0.5 -250.5q-15 -16 -53 -16z" />
    <glyph glyph-name="quotedbl" unicode="&#x22;" horiz-adv-x="391" 
d="M114 1040q-23 0 -35.5 10t-13.5 34v56t-0.5 73t-1.5 73t-2 56q9 4 23 6.5t31 2.5q24 0 38 -10.5t14 -32.5q0 -20 -1 -54.5t-2.5 -72.5t-2 -73.5t0.5 -56.5q-11 -5 -21.5 -8t-26.5 -3zM284 1040q-23 0 -35.5 10t-13.5 34v56t-0.5 73t-1.5 73t-2 56q9 4 23 6.5t31 2.5
q24 0 38 -10.5t14 -32.5q0 -20 -1 -54.5t-2.5 -72.5t-2 -73.5t0.5 -56.5q-11 -5 -21.5 -8t-26.5 -3z" />
    <glyph glyph-name="numbersign" unicode="#" horiz-adv-x="937" 
d="M531 -23q-21 0 -33.5 8.5t-12.5 27.5q0 10 1 17t3 14q18 92 32.5 171t28.5 151h-213q-14 -82 -31 -173t-37 -197q-13 -8 -27.5 -13.5t-34.5 -5.5q-21 0 -33.5 8.5t-12.5 27.5q0 10 1 17t3 14q18 92 32.5 170.5t27.5 150.5h-147q-17 0 -32.5 16t-15.5 46q0 17 3 27t11 18
q26 -2 78.5 -2.5t120.5 -1.5l53 318q-58 -1 -103 -1h-68q-17 -1 -32 15.5t-15 46.5q0 17 3 27t10 18q29 -2 87.5 -2.5t133.5 -1.5q16 97 34.5 206.5t43.5 245.5q14 14 55 14q20 0 35.5 -11.5t15.5 -26.5q0 -5 -0.5 -11.5t-1.5 -11.5q-23 -119 -40.5 -217.5t-32.5 -188.5
q56 -1 110.5 -0.5t107.5 0.5q16 96 34 206t41 247q14 14 55 14q20 0 35.5 -11.5t15.5 -26.5q0 -5 -0.5 -11.5t-1.5 -11.5q-23 -118 -40 -217t-32 -189q44 1 78 1t54 1q18 1 31 -15t13 -42q0 -17 -3 -28t-8 -21q-21 1 -69.5 1.5t-112.5 1.5l-52 -319h90.5t63.5 1
q18 1 30.5 -14.5t12.5 -41.5q0 -17 -3 -28t-8 -21q-23 1 -77.5 1.5t-125.5 1.5q-14 -83 -30.5 -173.5t-36.5 -196.5q-13 -8 -27.5 -13.5t-34.5 -5.5zM404 786q-13 -81 -25 -159t-26 -160q58 -1 109 -0.5t106 0.5q15 84 28 161t27 158h-219z" />
    <glyph glyph-name="dollar" unicode="$" horiz-adv-x="643" 
d="M308 -220q-20 0 -33.5 11.5t-13.5 33.5q0 43 0.5 85.5t1.5 85.5q-72 5 -125 35.5t-78 75.5q-7 11 -10.5 24.5t-3.5 26.5q0 10 5 18.5t12.5 15t15.5 10t14 3.5q18 -33 63.5 -61.5t108.5 -36.5q3 146 6.5 287t7.5 282q-40 42 -78 87t-67.5 95.5t-47.5 109t-18 128.5
q0 53 16.5 95.5t46 73.5t70 50.5t88.5 27.5q0 35 -0.5 70.5t-0.5 70.5q16 13 49 13q21 0 36 -12.5t15 -30.5l-2 -111q49 -8 88.5 -33t65.5 -63q8 -10 13.5 -22.5t5.5 -23.5q0 -25 -18.5 -38.5t-49.5 -13.5q-8 16 -17.5 30.5t-21.5 26.5t-28.5 21t-39.5 13q-2 -127 -5.5 -253
t-7.5 -254q41 -45 81.5 -91t72.5 -98.5t52 -112t20 -131.5q0 -58 -15 -109t-44.5 -90.5t-74.5 -66t-105 -35.5q0 -52 0.5 -103.5t1.5 -104.5q-21 -11 -52 -11zM489 303q0 82 -35 148.5t-87 127.5q-3 -118 -5 -233.5t-3 -233.5q27 7 50.5 22t41.5 38.5t28 56t10 74.5z
M178 1089q0 -75 29.5 -136.5t74.5 -118.5q2 103 4 203.5t3 199.5q-49 -11 -80 -45t-31 -103z" />
    <glyph glyph-name="percent" unicode="%" horiz-adv-x="1195" 
d="M236 558q-35 0 -70 17.5t-63 63.5t-46 125.5t-18 204.5q0 189 52 292t150 103q46 0 82 -29.5t60.5 -82.5t37.5 -125.5t13 -157.5q0 -124 -18.5 -204t-47 -126t-64 -63.5t-68.5 -17.5zM240 1264q-51 0 -78.5 -71t-27.5 -224q0 -92 8 -153.5t22 -99t32.5 -53.5t39.5 -16
q17 0 35 14.5t33 51t25 99t10 157.5q0 139 -26.5 217t-72.5 78zM440 -9q-21 1 -34 9t-13 22q0 5 1 13.5t4 19.5q77 318 152.5 635.5t147.5 644.5q6 5 21.5 8.5t32.5 3.5q18 0 34.5 -8t16.5 -21q0 -5 -1 -12.5t-3 -13.5q-80 -326 -154 -644t-147 -641q-9 -7 -24.5 -11.5
t-33.5 -4.5zM959 -7q-35 0 -70 17.5t-63 63.5t-46 125.5t-18 204.5q0 189 52 292t150 103q46 0 82 -29.5t60.5 -82.5t37.5 -125.5t13 -157.5q0 -124 -18.5 -204t-47 -126t-64 -63.5t-68.5 -17.5zM963 699q-51 0 -78.5 -71t-27.5 -224q0 -92 8 -153.5t22 -99t32.5 -53.5
t39.5 -16q17 0 35 14.5t33 51t25 99t10 157.5q0 139 -26.5 217t-72.5 78z" />
    <glyph glyph-name="ampersand" unicode="&#x26;" horiz-adv-x="725" 
d="M565 37q-25 33 -64 90q-39 -61 -87 -97.5t-102 -36.5q-40 0 -79.5 19t-71 58.5t-51 100.5t-19.5 145q0 52 9 98t24.5 87.5t36.5 79t44 72.5q-42 100 -68 198.5t-26 189.5q0 85 16 144t43 96t62 53t73 16q39 0 74.5 -14.5t63 -46.5t44 -83t16.5 -124q0 -72 -17.5 -131
t-44.5 -110.5t-60.5 -99t-65.5 -95.5q36 -83 79 -161t88 -147q14 55 21 112t7 110q0 46 -7.5 80.5t-13.5 57.5q19 14 53 14q26 0 38 -7t19 -23q8 -23 12 -54t4 -70q0 -85 -16 -168t-45 -157q44 -62 80 -106t57 -65q-1 -35 -14.5 -50.5t-42.5 -15.5q-26 0 -40.5 11t-28.5 30z
M217 1037q0 -69 15 -140.5t41 -144.5q25 36 47.5 73t39.5 77.5t27 84.5t10 95q0 36 -6 67.5t-17 54.5t-26 36.5t-34 13.5q-48 0 -72.5 -55t-24.5 -162zM314 97q38 0 70.5 33t56.5 87q-45 70 -93.5 153.5t-93.5 174.5q-26 -50 -41.5 -105.5t-15.5 -123.5q0 -53 10 -93.5
t26 -68.5t37 -42.5t44 -14.5z" />
    <glyph glyph-name="quotesingle" unicode="'" horiz-adv-x="241" 
d="M114 1040q-23 0 -35.5 10t-13.5 34v56t-0.5 73t-1.5 73t-2 56q9 4 23 6.5t31 2.5q24 0 38 -10.5t14 -32.5q0 -20 -1 -54.5t-2.5 -72.5t-2 -73.5t0.5 -56.5q-11 -5 -21.5 -8t-26.5 -3z" />
    <glyph glyph-name="parenleft" unicode="(" horiz-adv-x="419" 
d="M333 -236q-26 0 -45 23q-34 40 -69 123.5t-63.5 197t-46.5 250.5t-18 286q0 128 15 251.5t43 230.5t67 192t87 136q14 15 38 15q13 0 24.5 -6t20.5 -15t14 -20t5 -21q-39 -41 -76 -110.5t-66 -165.5t-46.5 -218.5t-17.5 -268.5q0 -139 15.5 -266t43 -234.5t65 -190.5
t80.5 -135q0 -23 -21.5 -38.5t-48.5 -15.5z" />
    <glyph glyph-name="parenright" unicode=")" horiz-adv-x="419" 
d="M86 1469q26 0 45 -23q34 -41 69 -124t63.5 -197t46.5 -251.5t18 -285.5q0 -128 -15 -251.5t-43 -230.5t-67 -192t-87 -136q-14 -14 -38 -14q-13 0 -24.5 5.5t-20.5 14.5t-14 20t-5 22q39 40 76 109.5t66 165.5t46.5 218.5t17.5 268.5q0 139 -15.5 266.5t-43 234.5
t-65 190.5t-80.5 135.5q0 23 21.5 38.5t48.5 15.5z" />
    <glyph glyph-name="asterisk" unicode="*" horiz-adv-x="539" 
d="M480 1039q-11 -17 -25.5 -23t-27.5 2q-26 17 -56.5 38t-62.5 42q2 -46 4.5 -90.5t4.5 -86.5q-6 -3 -16.5 -6t-27.5 -3q-20 0 -33 9t-12 25q1 33 3.5 73.5t3.5 83.5q-38 -26 -74.5 -52t-71.5 -50q-6 4 -14.5 11.5t-16.5 21.5q-11 17 -10 32.5t15 23.5q32 19 66.5 37
t70.5 38q-39 23 -77.5 44.5t-75.5 41.5q1 8 5.5 20.5t12.5 26.5q22 36 51 15q27 -17 56 -38t61 -43q-2 46 -6.5 90t-6.5 86q8 4 21 7t29 3q20 0 30.5 -9.5t9.5 -26.5q-1 -32 -2 -70.5t-1 -79.5q37 26 72.5 52.5t67.5 51.5q19 -10 35 -37q22 -37 -9 -53q-29 -18 -64.5 -37
t-72.5 -41q41 -23 81 -44.5t78 -42.5q0 -7 -3 -17.5t-12 -24.5z" />
    <glyph glyph-name="plus" unicode="+" horiz-adv-x="612" 
d="M536 555q0 -20 -3 -32.5t-9 -23.5q-31 2 -73.5 2.5t-90.5 0.5v-161q0 -15 -13.5 -22t-30.5 -7q-28 0 -40 3.5t-22 11.5q2 36 3 81t1 93h-151q-17 -1 -24.5 14t-7.5 41q0 20 3.5 31t11.5 21q36 -2 79.5 -3t89.5 -2q0 45 -0.5 86.5t-1.5 74.5q-1 15 13 22t35 7t34 -3
t24 -10q-2 -31 -3 -77.5t-1 -99.5q41 0 78.5 0.5t69.5 1.5q14 1 21.5 -13.5t7.5 -36.5z" />
    <glyph glyph-name="comma" unicode="," horiz-adv-x="297" 
d="M71 -132q29 16 50 46.5t32 78.5q-54 4 -75 30t-21 80q0 38 8.5 60t19.5 37q29 3 53.5 1.5t47.5 -9.5q33 -11 46.5 -41t12.5 -74q0 -38 -10.5 -82.5t-27.5 -82.5t-40.5 -63.5t-49.5 -25.5q-17 0 -31 12.5t-15 32.5z" />
    <glyph glyph-name="hyphen" unicode="-" horiz-adv-x="563" 
d="M487 555q0 -20 -3 -32.5t-9 -23.5q-36 2 -79.5 2.5t-90 0.5t-93.5 -0.5t-92 -0.5q-16 -1 -30.5 14t-14.5 41q0 20 3.5 31t11.5 21q89 -5 179 -5t178 2q17 1 28.5 -13.5t11.5 -36.5z" />
    <glyph glyph-name="period" unicode="." horiz-adv-x="301" 
d="M143 201q17 0 36 -5.5t34.5 -17t26 -29.5t10.5 -43q0 -52 -29 -82t-75 -30q-39 0 -65.5 29.5t-26.5 79.5q0 23 7.5 41t20.5 30.5t28.5 19.5t32.5 7z" />
    <glyph glyph-name="slash" unicode="/" horiz-adv-x="563" 
d="M80 -242q-20 0 -32.5 7.5t-12.5 22.5q0 12 1.5 20t3.5 16q48 204 95.5 404.5t95 400.5t95.5 403.5t96 413.5q7 6 20.5 10t35.5 4q20 0 35 -11t15 -27q0 -4 -1 -10.5t-3 -12.5q-98 -406 -191.5 -811.5t-189.5 -811.5q-14 -8 -28.5 -13t-34.5 -5z" />
    <glyph glyph-name="zero" unicode="0" horiz-adv-x="710" 
d="M354 -10q-50 0 -101.5 27.5t-93.5 95t-68.5 181.5t-26.5 288q0 131 20 235.5t58.5 177.5t93.5 112t126 39q67 0 119.5 -44t88.5 -120.5t55 -179.5t19 -220q0 -174 -26.5 -288.5t-68.5 -182t-93.5 -94.5t-101.5 -27zM362 1028q-84 0 -134 -113.5t-50 -332.5
q0 -135 15 -228.5t39.5 -151t56 -83.5t65.5 -26q27 0 58 24t57 80.5t43.5 150.5t17.5 234q0 97 -12 179t-34 141.5t-53 92.5t-69 33z" />
    <glyph glyph-name="one" unicode="1" horiz-adv-x="534" 
d="M363 -9q-26 0 -38 17.5t-12 40.5q0 235 3.5 472t1.5 472q-68 -66 -110.5 -105.5t-68.5 -60.5t-41 -27.5t-28 -6.5q-14 0 -27 12t-13 30q0 14 1.5 22.5t6.5 17.5q30 25 63.5 54.5t68.5 62.5t69 68t66 70q12 5 27.5 7.5t30.5 2.5q23 0 40.5 -16t17.5 -39q-2 -263 -1 -538
t3 -538q-8 -8 -22.5 -13t-37.5 -5z" />
    <glyph glyph-name="two" unicode="2" horiz-adv-x="618" 
d="M568 52q0 -29 -16 -42t-44 -13q-47 -1 -102.5 0.5t-112.5 2.5t-112.5 0.5t-102.5 -4.5q-22 22 -22 66q0 17 4.5 34.5t12.5 35.5q34 70 75 133.5t81.5 122.5t78.5 115t67.5 112.5t47 114t17.5 120.5q0 41 -10 76t-28.5 60t-46 39t-62.5 14q-28 0 -54.5 -9t-49.5 -23
t-43 -32.5t-34 -37.5q-29 -1 -44.5 15t-15.5 43q0 21 6.5 35.5t19.5 28.5q39 38 96 61.5t123 23.5q54 0 99.5 -20.5t78.5 -58.5t51 -91.5t18 -120.5q0 -64 -18.5 -125.5t-49 -122t-70 -121.5t-81 -122.5t-82.5 -125.5t-74 -131q51 3 103.5 2.5t102.5 -1t96 0.5t84 6
q7 -12 10 -28t3 -33z" />
    <glyph glyph-name="three" unicode="3" horiz-adv-x="592" 
d="M507 782q0 -51 -11 -99.5t-31 -91t-49.5 -76.5t-66.5 -55q88 -35 135 -127t47 -223q0 -78 -19.5 -142t-56 -109t-89 -70t-117.5 -25q-44 0 -86 10t-74 27q-17 9 -27.5 22.5t-10.5 37.5q0 20 13.5 37.5t30.5 22.5q29 -20 72.5 -35.5t86.5 -15.5q34 0 65 15t54 45t36.5 75
t13.5 105q0 88 -18 144.5t-47.5 90.5t-66 49.5t-73.5 21.5q-22 3 -30 15.5t-8 30.5q0 26 12 41q46 9 84 31t65.5 57t42.5 83t15 108q0 63 -14.5 109t-37.5 75.5t-52 44t-57 14.5q-47 0 -84.5 -20.5t-63.5 -42.5q-8 0 -16.5 5t-16 13.5t-12.5 20t-5 24.5q0 19 8.5 32.5
t21.5 23.5q32 27 72.5 40t85.5 13q65 0 116.5 -26.5t87.5 -73.5t55.5 -111.5t19.5 -140.5z" />
    <glyph glyph-name="four" unicode="4" horiz-adv-x="609" 
d="M441 -199q0 51 2.5 97t1.5 97q-81 4 -170.5 3.5t-170.5 -5.5q-11 8 -17.5 17t-6.5 29q0 12 1.5 26.5t3.5 40.5q12 132 23 259t21 252.5t19 251t18 256.5q9 8 22.5 9.5t25.5 1.5q27 1 43 -13.5t14 -38.5q-7 -138 -16.5 -266.5t-20.5 -250t-22 -237t-21 -226.5q63 2 126 0
t126 -6q3 79 2.5 167t-2.5 166q17 15 52 15q24 0 40.5 -15.5t16.5 -41.5q0 -74 -0.5 -152.5t-1 -158.5t0 -159t1.5 -152q-10 -10 -22.5 -14t-35.5 -4q-20 0 -36 14t-17 38z" />
    <glyph glyph-name="five" unicode="5" horiz-adv-x="598" 
d="M246 -249q-36 0 -68 6t-55 18q-34 16 -34 50q0 22 9.5 39t25.5 25q23 -13 53.5 -22t66.5 -9q51 0 87.5 22.5t60 61.5t35 91.5t11.5 111.5q0 79 -17 140t-48.5 103t-75.5 63.5t-98 21.5q-18 0 -34 -1t-36 -1q-17 0 -29.5 12t-12.5 37q1 139 1 280.5t-5 278.5q-2 21 3 34
t16 23q97 -2 200 -2t200 5q10 -9 16.5 -21.5t6.5 -35.5t-16 -42.5t-42 -19.5q-75 0 -143 1.5t-132 6.5q2 -120 1.5 -232.5t-1.5 -220.5q15 3 31 3q72 0 130.5 -27t100.5 -81.5t64.5 -136.5t22.5 -191q0 -91 -21 -163.5t-59 -123t-93 -77.5t-122 -27z" />
    <glyph glyph-name="six" unicode="6" horiz-adv-x="681" 
d="M365 -13q-142 0 -213.5 134t-71.5 413q0 183 22.5 324.5t65.5 237.5t103.5 146t137.5 50q20 0 44 -3t40 -13q17 -11 29.5 -24t12.5 -39q0 -20 -7.5 -33t-16.5 -23q-24 9 -49.5 13t-45.5 4q-47 0 -86 -28t-68.5 -89.5t-49 -158t-27.5 -234.5q35 59 82 85t95 26
q57 0 105 -25t83.5 -73t55 -119t19.5 -163q0 -95 -19.5 -171t-54 -128.5t-82 -80.5t-104.5 -28zM191 422q0 -73 11 -133.5t32.5 -103.5t54 -66.5t75.5 -23.5q39 0 69 23t50 63.5t30.5 96t10.5 121.5q0 59 -11.5 108.5t-33.5 85t-53 55.5t-70 20q-29 0 -58.5 -16t-53 -47
t-38.5 -77t-15 -106z" />
    <glyph glyph-name="seven" unicode="7" horiz-adv-x="601" 
d="M259 -234q-26 0 -37 13t-11 30q0 14 3 28.5t5 22.5q59 291 111.5 581t105.5 583q-92 -4 -183 -7t-182 0q-23 1 -34.5 21t-11.5 45q0 11 3.5 27.5t15.5 24.5q48 -7 106 -9.5t117.5 -2t116.5 2.5t103 3q26 0 38.5 -2t26.5 -9q-30 -159 -60 -328t-60 -340.5t-58.5 -342.5
l-55.5 -333q-8 -2 -24 -5t-35 -3z" />
    <glyph glyph-name="eight" unicode="8" horiz-adv-x="727" 
d="M75 307q0 59 17.5 110t46 97t66 87t76.5 80q-38 35 -73 72.5t-62 79.5t-43 89t-16 103q0 73 21 126.5t57 89t84.5 52.5t104.5 17q55 0 104.5 -17.5t87 -52.5t59 -87.5t21.5 -122.5q0 -52 -16.5 -98.5t-44 -89t-63 -81.5t-73.5 -77q42 -38 82 -79t70.5 -88t49.5 -100.5
t19 -117.5q0 -75 -21.5 -132.5t-60 -97.5t-90.5 -60.5t-112 -20.5q-61 0 -114 22.5t-92.5 64.5t-62 101t-22.5 131zM542 299q0 49 -15 91t-40.5 80.5t-59 73t-70.5 68.5q-35 -35 -66.5 -70t-55 -72.5t-37.5 -78t-14 -84.5t13 -83.5t37 -69.5t57.5 -47.5t75.5 -17.5
q38 0 70 14.5t55.5 42t36.5 66.5t13 87zM196 1023q0 -41 12.5 -77t34.5 -69t50.5 -64t61.5 -61q33 33 62.5 66t52 67.5t35.5 72t13 78.5q0 81 -41 125.5t-117 44.5q-82 0 -123 -48t-41 -135z" />
    <glyph glyph-name="nine" unicode="9" horiz-adv-x="680" 
d="M289 -242q-25 0 -50.5 5t-46.5 15t-34 25t-13 35q0 17 6 34.5t24 28.5q18 -9 49 -19t63 -10q50 0 88 32t64 99t40.5 171t17.5 248q-17 -39 -38.5 -66t-44 -44.5t-46 -25.5t-45.5 -8q-57 -1 -103 28t-77.5 83.5t-48.5 133t-17 177.5q0 103 18.5 184.5t53 137.5t84 85.5
t111.5 29.5q57 0 104.5 -30.5t82 -104t53.5 -196.5t19 -308q0 -165 -17 -301.5t-54.5 -234t-97 -151t-145.5 -53.5zM337 1036q-70 0 -111 -84t-41 -242q0 -160 38 -242t110 -82q29 0 57.5 21t51.5 58.5t37 88.5t14 112q0 96 -13 166t-35 115.5t-50 67t-58 21.5z" />
    <glyph glyph-name="colon" unicode=":" horiz-adv-x="304" 
d="M143 201q17 0 36 -5.5t34.5 -17t26 -29.5t10.5 -43q0 -52 -29 -82t-75 -30q-39 0 -65.5 29.5t-26.5 79.5q0 23 7.5 41t20.5 30.5t28.5 19.5t32.5 7zM143 747q17 0 36 -5.5t34.5 -17t26 -29.5t10.5 -43q0 -52 -29 -82t-75 -30q-39 0 -65.5 29.5t-26.5 79.5q0 23 7.5 41
t20.5 30.5t28.5 19.5t32.5 7z" />
    <glyph glyph-name="semicolon" unicode=";" horiz-adv-x="299" 
d="M73 -132q29 16 50 46.5t32 78.5q-54 4 -75 30t-21 80q0 38 8.5 60t19.5 37q29 3 53.5 1.5t47.5 -9.5q33 -11 46.5 -41t12.5 -74q0 -38 -10.5 -82.5t-27.5 -82.5t-40.5 -63.5t-49.5 -25.5q-17 0 -31 12.5t-15 32.5zM143 747q17 0 36 -5.5t34.5 -17t26 -29.5t10.5 -43
q0 -52 -29 -82t-75 -30q-39 0 -65.5 29.5t-26.5 79.5q0 23 7.5 41t20.5 30.5t28.5 19.5t32.5 7z" />
    <glyph glyph-name="less" unicode="&#x3c;" horiz-adv-x="625" 
d="M483 45q-20 0 -38 8t-32 26q-39 47 -83.5 98.5t-88.5 102.5t-85 99.5t-74 89.5q-8 11 -11.5 19.5t-3.5 19.5q0 19 9 29q44 52 94.5 107t101 109.5t96.5 106.5t81 98q8 4 17 5t16 1q23 0 39.5 -18t16.5 -37q0 -9 -1.5 -19t-12.5 -24q-34 -42 -78 -90t-90 -95.5
t-90.5 -92.5t-78.5 -81q31 -40 74 -90.5t91 -105t98 -110.5t97 -107q-9 -21 -26.5 -35t-37.5 -14z" />
    <glyph glyph-name="equal" unicode="=" horiz-adv-x="563" 
d="M487 435q0 -20 -3 -32.5t-9 -23.5q-36 2 -79.5 2.5t-90 0.5t-93.5 -0.5t-92 -0.5q-16 -1 -30.5 14t-14.5 41q0 20 3.5 31t11.5 21q89 -5 179 -5t178 2q17 1 28.5 -13.5t11.5 -36.5zM487 650q0 -20 -3 -32.5t-9 -23.5q-36 2 -79.5 2.5t-90 0.5t-93.5 -0.5t-92 -0.5
q-16 -1 -30.5 14t-14.5 41q0 20 3.5 31t11.5 21q89 -5 179 -5t178 2q17 1 28.5 -13.5t11.5 -36.5z" />
    <glyph glyph-name="greater" unicode="&#x3e;" horiz-adv-x="625" 
d="M131 964q43 0 70 -34q39 -47 83.5 -98.5t88.5 -103t85 -100t74 -89.5q8 -11 11.5 -19.5t3.5 -19.5q0 -19 -9 -29q-44 -51 -94.5 -106t-101 -109.5t-96.5 -107t-81 -98.5q-8 -3 -17 -4t-16 -1q-23 0 -39.5 18t-16.5 36q0 9 1.5 19t12.5 24q34 42 77.5 90t89.5 95.5
t90 92.5t78 81q-36 39 -79 87t-90 100t-96 106.5t-95 105.5q5 27 25.5 45.5t40.5 18.5z" />
    <glyph glyph-name="question" unicode="?" horiz-adv-x="680" 
d="M339 149q13 0 27.5 -4.5t25.5 -14t18.5 -24t7.5 -34.5q0 -39 -23.5 -60.5t-58.5 -21.5q-29 0 -50 21.5t-21 60.5q0 34 20 55t54 22zM340 223q-36 0 -69 11.5t-58 35t-40 59.5t-15 86q0 55 25 104.5t62.5 97.5t81 96.5t81 101t62.5 111t25 126.5q0 98 -39 150.5t-115 52.5
q-78 0 -122.5 -52t-44.5 -155q-9 -8 -24 -16.5t-37 -8.5q-18 0 -35.5 14.5t-17.5 37.5q0 61 19.5 112.5t55.5 89t88.5 58t118.5 20.5t116.5 -23.5t84 -65t50.5 -97t16 -118.5q0 -75 -26 -139.5t-64.5 -120.5t-83 -105t-83 -94.5t-64 -88t-25.5 -85.5q0 -47 23 -74.5
t55 -27.5q40 0 63 30t23 94q14 12 43 12q23 0 41 -11.5t18 -38.5q0 -38 -13.5 -70.5t-38.5 -56.5t-60 -38t-77 -14z" />
    <glyph glyph-name="at" unicode="@" horiz-adv-x="1079" 
d="M565 -256q-115 0 -206 45t-154 138t-96.5 234t-33.5 333q0 229 32 388t93.5 259t151 145t205.5 45t200.5 -35t139 -115t81 -210t26.5 -321q0 -125 -9 -225t-24.5 -178.5t-37.5 -137t-47 -100.5q-17 -6 -36.5 -10.5t-35.5 -4.5l-96 1q-35 0 -50.5 15t-14.5 41q0 22 -1 44
t-2 46q-20 -68 -53.5 -109t-79.5 -41q-45 0 -83 35.5t-65.5 104.5t-42.5 170.5t-15 234.5t18 226t48 151.5t67.5 85t76.5 26.5q48 0 81 -38t52 -99q1 31 1.5 61t-1.5 61q7 8 18 13t30 5q52 0 50 -55q-3 -246 -7 -464.5t-1 -417.5h77q44 94 62 230.5t18 326.5
q0 165 -19.5 276t-60.5 178.5t-106 96.5t-156 29q-98 0 -169 -42t-118 -131t-69.5 -229.5t-22.5 -336.5q0 -320 92.5 -481.5t295.5 -161.5q31 0 66 2.5t67.5 7t60 10.5t44.5 13q13 -4 20.5 -15t7.5 -26q0 -22 -24.5 -39.5t-63.5 -29.5t-87 -18.5t-94 -6.5zM544 96
q15 0 31.5 15t30.5 41t25.5 61t16.5 76v211.5t1 212.5q-2 52 -13 91.5t-27 65.5t-35.5 39.5t-37.5 13.5q-26 0 -48 -21.5t-38 -70t-25 -126t-9 -189.5q0 -101 9.5 -179t27 -131.5t41 -81.5t50.5 -28z" />
    <glyph glyph-name="A" unicode="A" horiz-adv-x="681" 
d="M88 -8q-28 0 -40 19t-7 48q5 32 14 80.5t20 107t24 124t26 132t25.5 131.5t23.5 122q14 74 28 146t28 146t28 152.5t28 166.5q17 13 50 13q24 0 39 -8t19 -28q31 -188 64 -361.5t66 -338t64.5 -320.5t58.5 -309q-8 -11 -22.5 -17.5t-37.5 -6.5q-25 0 -40 11t-20 38
q-10 57 -19.5 113t-20.5 113l-298 -2q-15 -84 -26 -154t-15 -107q-7 -5 -22 -8t-38 -3zM253 613q-10 -54 -22.5 -120.5t-24.5 -135.5l264 6q-39 217 -73 409.5t-57 338.5q-24 -129 -44.5 -252.5t-42.5 -245.5z" />
    <glyph glyph-name="B" unicode="B" horiz-adv-x="666" 
d="M565 1015q0 -55 -15 -105.5t-42.5 -93t-66 -76t-85.5 -55.5q53 -18 99 -48t80.5 -72t54 -96t19.5 -120q0 -110 -38 -178.5t-100 -107t-142 -52t-164 -13.5q-8 0 -17.5 3.5t-17.5 11t-13 18.5t-5 27q-1 154 -1.5 325t-2.5 337q-1 73 -2 159.5t-3.5 171.5t-5.5 161.5
t-9 129.5q17 8 48.5 11.5t60.5 3.5q190 0 279 -89.5t89 -252.5zM503 348q0 70 -23.5 119.5t-63.5 81.5t-92.5 48.5t-110.5 20.5q2 -132 2 -262t2 -258q137 4 211.5 63t74.5 187zM206 1247q1 -57 2.5 -120t2.5 -129t1 -132.5v-130.5q54 10 99.5 33t77.5 58t50 81.5t18 104.5
q0 127 -62.5 180.5t-188.5 54.5z" />
    <glyph glyph-name="C" unicode="C" horiz-adv-x="585" 
d="M358 -18q-74 0 -129 40.5t-91.5 129t-54.5 228t-18 336.5q0 152 24 272t65 203t97 127t121 44q38 0 74 -8.5t58 -23.5q16 -10 22.5 -24t6.5 -34q0 -19 -10.5 -36t-25.5 -22q-20 13 -48 23t-73 10q-15 0 -36 -7t-44 -27t-46 -56.5t-41 -96t-29 -144.5t-11 -203
q0 -125 7 -219t19.5 -162.5t30.5 -113.5t40 -72t47.5 -38t53.5 -11q47 0 80 10.5t59 30.5q16 -3 29.5 -23t13.5 -40q0 -21 -9 -33t-26 -23q-12 -9 -29.5 -16t-38.5 -11.5t-43.5 -7t-44.5 -2.5z" />
    <glyph glyph-name="D" unicode="D" horiz-adv-x="678" 
d="M165 -2q-24 -1 -38.5 13t-14.5 40q-1 145 -1 292t-2 287q-1 76 -2 168t-3 187.5t-6 188t-10 168.5q13 7 32.5 11.5t45.5 4.5q112 0 195 -51.5t138 -147.5t82 -233.5t27 -308.5q0 -172 -27.5 -288t-82.5 -188t-138.5 -105t-194.5 -38zM203 1236q0 -39 1 -98.5t2 -129
t2.5 -144t1.5 -142.5q1 -73 1 -156.5t0.5 -165t1 -154.5t1.5 -126q80 4 135 30.5t88.5 84t48 150t14.5 228.5q0 304 -78 461.5t-219 161.5z" />
    <glyph glyph-name="E" unicode="E" horiz-adv-x="562" 
d="M203 1247q0 -133 -0.5 -268.5t0.5 -268.5q28 1 59 1t62 1t59 2t50 4q12 -17 12 -55q0 -23 -9.5 -38.5t-34.5 -15.5q-49 0 -99 1.5t-99 2.5q0 -129 1 -258t1 -257h74t81.5 1t80.5 2.5t71 3.5q5 -10 9 -24.5t4 -35.5q0 -23 -13.5 -36t-36.5 -13q-85 0 -167 0.5t-160 1.5
q-20 0 -32 12t-12 35v322t-2 324q0 52 -0.5 114.5t-1 128t-1.5 129t-2 117.5t-3 94t-5 57q15 16 57 16q81 0 170.5 -2.5t179.5 5.5q7 -7 12 -18t5 -34q0 -26 -14.5 -39.5t-34.5 -14.5q-66 0 -132 0.5t-129 2.5z" />
    <glyph glyph-name="F" unicode="F" horiz-adv-x="518" 
d="M200 1244q1 -41 1.5 -102.5t1 -132.5t1 -145.5t1.5 -140.5q43 1 96.5 1.5t99.5 5.5q7 -8 11.5 -21.5t4.5 -30.5q0 -54 -47 -54q-38 2 -78.5 1.5t-82.5 -2.5q1 -75 4 -162t5 -171.5t4 -159.5t2 -124q-8 -6 -19.5 -10.5t-34.5 -4.5q-26 0 -42 12.5t-14 40.5q1 49 0.5 131
t-2 179t-4 199.5t-3.5 192.5q-1 47 -1.5 104t-1.5 116.5t-2 118t-2.5 108.5t-3 88t-3.5 57q17 12 59 12q72 0 151 -3.5t162 5.5q8 -8 14 -19.5t6 -39.5q0 -22 -15 -38.5t-38 -16.5q-54 -1 -113.5 1t-116.5 5z" />
    <glyph glyph-name="G" unicode="G" horiz-adv-x="617" 
d="M398 -11q-78 0 -140.5 46.5t-106 131.5t-67 205.5t-23.5 267.5q0 161 25 293.5t71 226.5t111.5 145.5t147.5 51.5q31 0 57 -6.5t41 -17.5q14 -9 20.5 -19.5t6.5 -30.5q0 -26 -10.5 -37.5t-18.5 -19.5q-8 4 -20 7.5t-25.5 5.5t-27 3t-23.5 1q-53 0 -99 -39t-80 -115.5
t-53.5 -189.5t-19.5 -261q0 -137 19.5 -238t52 -168.5t75 -100.5t89.5 -33q15 0 30 2.5t29 8.5q-10 109 -13 218t-1 209q-28 -2 -56 -2t-57 2q-17 2 -29 15t-11 32q1 11 3.5 25.5t9.5 23.5q44 -7 95.5 -3.5t96.5 2.5q20 0 32.5 -15.5t11.5 -38.5q-1 -65 -2 -141t-0.5 -150
t4.5 -140t14 -111q-27 -23 -70 -34.5t-89 -11.5z" />
    <glyph glyph-name="H" unicode="H" horiz-adv-x="710" 
d="M158 -8q-23 0 -38 14t-15 42v124.5t-0.5 156t-1 169.5t-1.5 165q-1 54 -1.5 117t-1.5 128t-2 129.5t-1.5 122t0 104.5t1.5 78q12 5 23 7.5t31 2.5q26 0 42 -12.5t16 -45.5v-106.5v-141v-164v-176.5v-20q74 3 147 4.5t145 -0.5q-1 78 -3 173t-5 186.5t-6.5 168t-6.5 118.5
q22 14 69 14q26 0 40.5 -14t14.5 -46v-121t0.5 -165.5t0.5 -183.5v-175q0 -85 1.5 -179.5t3 -182.5t3 -161t1.5 -115q-10 -8 -19.5 -13t-32.5 -5q-28 0 -44 14t-16 41v108.5v134v148.5v151q-146 5 -293 3q1 -92 1.5 -182.5t1.5 -168.5t1.5 -139t1.5 -94q-10 -6 -20.5 -9.5
t-36.5 -3.5z" />
    <glyph glyph-name="I" unicode="I" horiz-adv-x="312" 
d="M161 -16q-26 0 -41.5 15t-15.5 46q0 178 0.5 346.5t-0.5 340.5q0 78 -1 159t-2.5 160t-3.5 153t-6 137q12 7 28.5 10t32.5 3q26 0 40.5 -15.5t15.5 -52.5q0 -58 -0.5 -124t-0.5 -138v-148v-153q1 -183 5.5 -369t5.5 -356q-12 -6 -26 -10t-31 -4z" />
    <glyph glyph-name="J" unicode="J" horiz-adv-x="331" 
d="M-14 -337q-17 0 -36 10t-20 35q0 17 2.5 31t11.5 24q43 13 77.5 31t59 48t37.5 76.5t12 117.5q-2 200 -5 407t-5 407q0 64 -1.5 130.5t-3 130.5t-3 123.5t-2.5 109.5q12 7 30.5 9t35.5 2q22 0 36.5 -14t14.5 -43q0 -68 -0.5 -130.5t-1 -126.5t-1 -132.5t0.5 -149.5
q1 -83 2 -179t2.5 -195t3 -195.5t2.5 -178.5q1 -73 -10 -125.5t-34 -91.5t-58.5 -67t-84.5 -50q-33 -14 -62 -14z" />
    <glyph glyph-name="K" unicode="K" horiz-adv-x="677" 
d="M551 1105q0 -81 -19 -171.5t-52.5 -175.5t-78 -156t-95.5 -113q27 -16 49 -47t42 -71.5t40 -88.5t44 -98q19 -39 38.5 -64t38.5 -25q16 0 27 5t21 15q13 -5 22.5 -19t9.5 -37q0 -34 -24.5 -54.5t-66.5 -20.5q-49 0 -88 40t-81 130q-21 43 -40 88.5t-39.5 84t-44 66
t-53.5 34.5q-1 -56 0 -112.5t2.5 -110.5t3.5 -103.5t3 -92.5q-8 -6 -20.5 -11t-36.5 -5t-39 14.5t-15 40.5q-1 188 -0.5 384t-1.5 394q-2 150 -4 274t-2 241q9 5 24 9.5t33 4.5q26 0 39 -16t13 -45q-1 -180 -1.5 -373.5t2.5 -391.5q51 40 95.5 106.5t78 143.5t52.5 158
t19 151q0 89 -9 143t-22 92q11 13 23.5 20t32.5 7q18 0 33 -8t23 -28q8 -25 16 -77.5t8 -130.5z" />
    <glyph glyph-name="L" unicode="L" horiz-adv-x="514" 
d="M436 -9q-36 0 -76 2t-81 4t-81.5 2.5t-77.5 -2.5q-8 7 -11.5 18.5t-3.5 34.5q-2 144 -1.5 298t-1.5 300q-2 174 -5 352.5t-4 346.5q8 5 24.5 7t35.5 2q26 0 39.5 -14.5t14.5 -36.5q1 -141 -3 -288.5t-2 -297.5q2 -155 4 -308.5t9 -305.5q66 -6 130.5 -1t124.5 3
q8 -8 13 -23.5t5 -32.5q1 -27 -14 -43t-38 -17z" />
    <glyph glyph-name="M" unicode="M" horiz-adv-x="845" 
d="M696 -12q-24 0 -40.5 11.5t-17.5 40.5q0 125 0.5 255t0.5 259t-1 254.5t-3 241.5q-25 -63 -48 -133t-44.5 -142t-41.5 -143t-39 -135q-8 -3 -17.5 -7t-23.5 -3q-27 2 -39 33q-21 66 -43 137.5t-45 143t-46.5 140.5t-47.5 130q-2 -137 -1.5 -275.5t2 -274t3.5 -266.5
t2 -252q-9 -5 -19 -8.5t-33 -3.5q-27 0 -39.5 18.5t-12.5 43.5q-1 89 -1 174t0.5 168t1 165.5t0.5 166.5q0 72 -1.5 150.5t-3 158t-2.5 158t-1 150.5q11 5 26.5 7.5t34.5 2.5q26 0 40.5 -13.5t21.5 -33.5q51 -155 105 -306.5t105 -296.5q26 73 54 154.5t55 164t50 163
t40 152.5q17 17 52 17q32 0 49 -17.5t17 -43.5q0 -163 -1.5 -319.5t-0.5 -319.5v-160t0.5 -168.5t2 -166.5t5.5 -154q-9 -8 -23 -13t-32 -5z" />
    <glyph glyph-name="N" unicode="N" horiz-adv-x="770" 
d="M158 -14q-27 0 -41.5 15t-14.5 42q2 163 2 328t-1.5 329.5t-3.5 327t-3 318.5q12 6 25 9t32 3q29 0 44 -15.5t24 -41.5q89 -264 175 -516t175 -491q-1 183 -6.5 354t-10.5 336q-1 34 -2.5 81t-3 96.5t-3 96.5t-1.5 81q26 18 60 18q26 0 40.5 -11t15.5 -37q1 -50 1.5 -91
t0.5 -89q2 -272 4 -557.5t8 -563.5q-8 -8 -21 -12.5t-32 -4.5q-26 0 -38 10.5t-20 30.5q-42 123 -88.5 253t-93.5 261t-93.5 261.5t-88.5 253.5q1 -292 9.5 -553.5t8.5 -502.5q-10 -8 -21.5 -13.5t-37.5 -5.5z" />
    <glyph glyph-name="O" unicode="O" horiz-adv-x="687" 
d="M335 -16q-57 0 -106.5 35t-85.5 111.5t-57 198.5t-21 297q0 369 70.5 551.5t215.5 182.5q68 0 119 -54.5t84.5 -151t50.5 -230t17 -292.5q0 -161 -20 -282t-57 -202.5t-90 -122.5t-120 -41zM334 1234q-78 0 -119 -144t-41 -448q0 -141 13 -243t36 -168t54.5 -97t69.5 -31
q39 0 70 36.5t52 103t32.5 158.5t11.5 203q0 153 -14 270.5t-38 197.5t-56.5 121t-70.5 41z" />
    <glyph glyph-name="P" unicode="P" horiz-adv-x="607" 
d="M543 891q0 -115 -27 -204.5t-72 -153.5t-104.5 -102t-123.5 -50l12 -382q-12 -7 -25.5 -10t-36.5 -3q-26 0 -39 17t-13 43q0 86 -0.5 164.5t-1 156t-2 156t-2.5 164.5q-1 48 -2 108.5t-1.5 126t-2 130.5t-3 122.5t-4 102t-6.5 68.5q9 5 28.5 8.5t42.5 3.5
q88 -1 158.5 -30.5t120.5 -87.5t77 -145t27 -203zM200 1231q2 -183 5.5 -371.5t8.5 -380.5q55 13 96.5 48t69 88t41.5 122.5t14 151.5q0 75 -15.5 137t-45.5 106.5t-73.5 70t-100.5 28.5z" />
    <glyph glyph-name="Q" unicode="Q" horiz-adv-x="688" 
d="M335 -16q-57 0 -106.5 35t-85.5 111.5t-57 198.5t-21 297q0 369 70.5 551.5t215.5 182.5q68 0 119 -54.5t84.5 -151t50.5 -230t17 -292.5q0 -260 -50.5 -416t-141.5 -207q15 -33 40.5 -62t58 -50.5t70.5 -34.5t78 -13q9 -8 13.5 -22.5t4.5 -30.5q0 -23 -14.5 -37.5
t-40.5 -14.5q-58 0 -107 22.5t-87.5 58t-66 78t-41.5 81.5h-3zM334 1234q-78 0 -119 -144t-41 -448q0 -141 13 -243t36 -168t54.5 -97t69.5 -31q39 0 70 36.5t52 103t32.5 158.5t11.5 203q0 153 -14 270.5t-38 197.5t-56.5 121t-70.5 41z" />
    <glyph glyph-name="R" unicode="R" horiz-adv-x="611" 
d="M485 -6q-30 0 -53.5 20t-44 51.5t-40 69.5t-40 74t-45 65.5t-54.5 43.5q2 -95 5 -175t7 -139q-11 -5 -23 -8.5t-32 -3.5q-26 0 -43 14t-17 45q1 157 -0.5 320t-4.5 327t-7 326t-9 318q10 8 25.5 12t32.5 4q91 0 162.5 -33.5t121 -96.5t75.5 -154.5t26 -206.5
q0 -83 -15 -160.5t-44 -143.5t-71 -117.5t-96 -81.5q24 -18 45.5 -43.5t40.5 -54t36 -56.5t32 -50t28.5 -36t26.5 -14q11 0 20.5 2.5t16.5 6.5q5 -7 9 -22t4 -36q0 -31 -20 -49t-55 -18zM193 1240q1 -84 2.5 -183t3 -205.5t3.5 -215t4 -210.5q48 9 87.5 44t67 92t43 135
t15.5 173q0 80 -14.5 146t-43 114t-70.5 76.5t-98 33.5z" />
    <glyph glyph-name="S" unicode="S" horiz-adv-x="559" 
d="M242 -14q-32 0 -65 7t-60 20.5t-44 33t-17 45.5q0 23 13 41.5t37 26.5q10 -9 23 -19.5t29.5 -20.5t38 -16.5t48.5 -6.5q24 0 51.5 7t50 25.5t37.5 50t15 80.5q0 64 -26 121.5t-65 112.5t-84.5 111.5t-84.5 120t-65 136.5t-26 162q0 77 18.5 139.5t52 106t82 67
t108.5 23.5q33 0 62.5 -7t52 -19.5t35.5 -28.5t13 -34q0 -21 -12.5 -36t-28.5 -25q-22 18 -52 28.5t-65 10.5q-15 0 -41.5 -6.5t-52.5 -29.5t-45 -68t-19 -121q0 -77 26 -143t65.5 -126.5t85.5 -117.5t85.5 -116.5t65.5 -123t26 -136.5q0 -82 -28.5 -135.5t-70 -84.5
t-87.5 -43t-82 -12z" />
    <glyph glyph-name="T" unicode="T" horiz-adv-x="558" 
d="M278 -12q-25 0 -35 20t-10 49q1 118 1.5 261.5t0 298.5t-1.5 314.5t-3 309.5q-46 -1 -90 -2t-79 -1q-19 0 -33.5 17t-14.5 46q0 17 3 33.5t11 23.5q19 -2 50 -3t65.5 -2t70 -2t63.5 -1q63 -1 120 0t106 0q19 0 31.5 -17.5t12.5 -42.5q0 -20 -5.5 -32.5t-16.5 -21.5
q-17 1 -39.5 2t-48 1.5t-53 0.5h-53.5q0 -185 1 -348.5t3 -313.5t4 -291t2 -281q-9 -9 -22.5 -13.5t-39.5 -4.5z" />
    <glyph glyph-name="U" unicode="U" horiz-adv-x="709" 
d="M369 -13q-57 0 -105.5 19t-84.5 55.5t-57 90t-22 121.5q-1 88 -1 186.5t0.5 199.5t1 200t0.5 188t-0.5 164.5t-1.5 128.5q12 7 24.5 9.5t33.5 2.5q20 0 36 -10.5t16 -32.5q0 -47 -0.5 -114.5t-1.5 -148.5t-2.5 -171.5t-2.5 -184.5t-1.5 -188t-0.5 -181
q0 -113 43.5 -171.5t123.5 -58.5q40 0 66.5 18.5t42.5 56.5t22.5 95t6.5 134q1 142 -0.5 277t-3.5 256.5t-3.5 227t-1.5 188.5q11 6 20 8.5t32 2.5q26 0 41.5 -11.5t15.5 -32.5q0 -98 0.5 -211.5t1 -234t1 -242.5t0.5 -237q0 -205 -59.5 -302t-179.5 -97z" />
    <glyph glyph-name="V" unicode="V" horiz-adv-x="700" 
d="M612 1356q30 0 40.5 -17.5t5.5 -46.5q-15 -90 -32 -173t-33.5 -162t-33 -154t-30.5 -149q-15 -81 -33 -170.5t-34 -175.5t-28.5 -164.5t-17.5 -137.5q-8 -9 -23 -15t-37 -6q-26 0 -39.5 11t-17.5 31q-21 120 -44 245.5t-46.5 249.5t-47.5 242.5t-46 224t-42 194
t-36 153.5q11 10 25 15t40 6q20 1 35 -10.5t20 -38.5q27 -153 55 -299t54 -279t48.5 -250.5t39.5 -213.5q24 129 50.5 256.5t49.5 248.5q26 139 50.5 279t53.5 295q10 4 21.5 7.5t32.5 3.5z" />
    <glyph glyph-name="W" unicode="W" horiz-adv-x="861" 
d="M681 -12q-26 0 -40 11t-19 30q-45 151 -92.5 303t-95.5 307q-22 -74 -46.5 -160t-47.5 -171.5t-42.5 -165t-31.5 -140.5q-8 -5 -20.5 -8.5t-38.5 -3.5q-23 0 -39.5 14t-18.5 43q-2 78 -6 152t-9 149.5t-10.5 154.5t-9.5 166q-4 71 -10 158.5t-13 177.5t-13.5 176.5
t-12.5 155.5q10 8 26 11.5t35 3.5q29 0 45 -13t17 -34q9 -122 13 -249.5t7.5 -258t8 -262.5t13.5 -262q22 63 43 134.5t40.5 145.5t38 147t36.5 139q11 5 21.5 7.5t26.5 2.5q40 0 46 -40q31 -127 76.5 -265.5t91.5 -272.5q9 166 15.5 322t11 293.5t6.5 253t2 199.5
q10 7 21.5 11t31.5 4q31 0 44 -15t13 -41q-5 -148 -14 -302t-18 -314.5t-16.5 -328t-8.5 -342.5q-16 -23 -57 -23z" />
    <glyph glyph-name="X" unicode="X" 
d="M382 684q62 -171 124 -338t122 -335q-11 -11 -26.5 -17.5t-40.5 -7.5q-20 0 -35 10t-21 29q-42 124 -89 257t-95 267q-54 -155 -99 -298.5t-74 -259.5q-8 -3 -19.5 -5t-24.5 -1q-26 0 -43 12.5t-16 35.5q1 11 3.5 22.5t8.5 25.5q49 140 101.5 289t111.5 320
q-35 97 -68.5 189t-63 174t-54 151.5t-42.5 122.5q10 13 28 21t45 8q23 0 37.5 -13t19.5 -31q38 -123 77.5 -243t81.5 -240q24 70 48.5 145t46.5 144t40 127.5t27 95.5q6 6 20 10t28 4q29 0 41.5 -15t11.5 -38q0 -10 -1 -16t-3 -13z" />
    <glyph glyph-name="Y" unicode="Y" horiz-adv-x="619" 
d="M589 1267q-28 -79 -57 -163.5t-57.5 -171t-56 -173.5t-52.5 -170q2 -146 6.5 -287.5t4.5 -293.5q-9 -8 -21.5 -13.5t-39.5 -5.5q-20 0 -37 15t-18 39q0 72 0.5 137t1 129.5t0.5 130t-2 139.5q-19 59 -39 126t-40.5 137t-41.5 139t-41 132.5t-39 118t-36 94.5
q9 11 28.5 19t42.5 8q24 0 37.5 -10t19.5 -34q18 -65 37.5 -139.5t40 -150.5t42 -149t43.5 -136q27 79 50 158.5t44.5 157.5t43 153.5t45.5 145.5q15 7 42 7q15 0 25.5 -5.5t17 -13.5t9 -17.5t2.5 -17.5q0 -22 -5 -35z" />
    <glyph glyph-name="Z" unicode="Z" horiz-adv-x="584" 
d="M67 -5q-15 18 -15 46q0 20 4.5 39t11.5 40q52 157 98.5 305t95.5 306q39 124 77 251t76 252q-81 2 -159 2.5t-159 -1.5q-12 0 -21 5t-15.5 13.5t-9.5 18t-3 17.5q0 42 14 60q51 3 108 1t116.5 -4.5t118.5 -3.5t114 4q6 -8 9.5 -21t3.5 -28q0 -21 -10 -56.5t-21 -67.5
q-43 -132 -85 -266t-85 -267q-44 -132 -85 -264.5t-79 -270.5q36 2 80 0.5t89.5 -3t90.5 -2t84 4.5q3 -9 9 -19.5t6 -38.5q0 -25 -12.5 -39t-41.5 -16q-42 -2 -93 -0.5t-105 3.5t-107 2.5t-100 -2.5z" />
    <glyph glyph-name="bracketleft" unicode="[" horiz-adv-x="430" 
d="M142 -245q-18 -2 -30 9t-11 31q1 98 1.5 220t1.5 259t1.5 283t1 291.5t0.5 285.5v264q0 44 14 62q62 -5 127.5 -1.5t126.5 1.5q21 0 29.5 -16t8.5 -41q0 -17 -4.5 -29t-10.5 -21q-49 3 -94 1t-89 0q-2 -183 -2.5 -364.5t0 -366t1.5 -373t1 -386.5q38 -1 78.5 1t77.5 3
q12 1 19.5 -5t12 -15t6.5 -18.5t2 -16.5q0 -28 -11 -54q-65 3 -133 1t-125 -5z" />
    <glyph glyph-name="backslash" unicode="\" horiz-adv-x="576" 
d="M489 -235q-11 0 -22 1t-21 5.5t-17.5 15t-11.5 29.5q-38 178 -81 373.5t-91 401t-100.5 418.5t-109.5 427q7 8 21 15.5t31 7.5q35 0 50 -11t20 -31q47 -189 93.5 -390.5t93.5 -407.5t95.5 -415t99.5 -413q-8 -11 -19.5 -18.5t-30.5 -7.5z" />
    <glyph glyph-name="bracketright" unicode="]" horiz-adv-x="430" 
d="M288 1461q18 1 29.5 -9.5t10.5 -30.5q-1 -98 -1.5 -220.5t-1 -259t-1 -283t-1 -292t-0.5 -285.5v-264q0 -41 -14 -61q-62 5 -127.5 1t-126.5 -2q-21 1 -29.5 17t-8.5 40q0 17 4 29t11 21q49 -3 94 -0.5t89 0.5q2 183 2 364.5t-0.5 365.5t-1.5 373t-1 386q-37 2 -77.5 0
t-78.5 -4q-11 -1 -18.5 5t-12 15t-6.5 19t-2 17q0 28 11 54q65 -3 133 -1t125 5z" />
    <glyph glyph-name="underscore" unicode="_" horiz-adv-x="611" 
d="M615 -218q0 -20 -3 -32.5t-9 -23.5q-24 1 -67 2t-96 1h-111t-112.5 -0.5t-101 -0.5h-76.5q-16 -1 -30.5 14t-14.5 41q0 20 3.5 31t11.5 21q29 -2 74.5 -3t98.5 -1.5t110 -0.5h110.5t98.5 0.5t74 1.5q17 1 28.5 -13.5t11.5 -36.5z" />
    <glyph glyph-name="grave" unicode="`" horiz-adv-x="358" 
d="M217 1125q-29 0 -42 25q-11 22 -25 52.5t-27 62.5t-24.5 63t-18.5 54q5 11 21.5 20.5t33.5 9.5q19 0 32.5 -6.5t18.5 -23.5q18 -54 43.5 -116.5t48.5 -114.5q-9 -11 -25 -18.5t-36 -7.5z" />
    <glyph glyph-name="a" unicode="a" horiz-adv-x="592" 
d="M409 35q0 3 0.5 15t1 29.5t1 39t1.5 43.5q-13 -37 -31.5 -68.5t-42 -55t-50.5 -36.5t-57 -13q-35 0 -65.5 16t-53 51.5t-35.5 92t-13 137.5q0 159 82.5 243.5t255.5 88.5q0 49 0.5 87.5t0.5 55.5q0 87 -31 136.5t-97 49.5q-89 0 -110 -113q-38 -12 -61.5 5t-23.5 54
q0 33 13.5 56.5t30.5 38.5q23 26 63.5 42.5t84.5 16.5q111 0 174.5 -66t60.5 -195q-1 -30 -1.5 -94t0 -144t1 -167.5t1.5 -165t2.5 -135.5t2.5 -80q-10 -7 -21 -10.5t-32 -3.5q-23 0 -37.5 11.5t-14.5 37.5zM404 349q-1 43 -1 89.5v92.5q-65 -4 -111.5 -19.5t-75.5 -45.5
t-42.5 -75t-13.5 -106q0 -91 27 -142t72 -51q30 0 56.5 19.5t46.5 54t31.5 81.5t10.5 102z" />
    <glyph glyph-name="b" unicode="b" horiz-adv-x="603" 
d="M209 1408q-3 -109 -4.5 -223t-1.5 -231q26 45 60 73.5t78 28.5q40 0 70 -23t52 -62.5t37 -92.5t23.5 -113t12 -124.5t3.5 -126.5q0 -263 -69.5 -397t-191.5 -134q-26 0 -51.5 5.5t-49.5 15t-44.5 21.5t-35.5 25q4 53 5.5 130t1.5 168.5t-1 194t-2.5 207t-3 206
t-2.5 191.5t-1 164.5t1 124.5q29 17 60 17q23 1 39.5 -11t14.5 -34zM320 945q-33 0 -63 -30t-54 -81q0 -107 1 -209t1.5 -195t0 -173t-1.5 -143q14 -11 32.5 -18.5t41.5 -7.5q34 0 63 27t50 80.5t32.5 132.5t11.5 184q0 70 -5.5 146t-18.5 140t-35 105.5t-56 41.5z" />
    <glyph glyph-name="c" unicode="c" horiz-adv-x="470" 
d="M326 -12q-68 0 -117.5 40t-81.5 114t-47.5 178.5t-15.5 233.5q0 248 63.5 372t179.5 124q18 0 37.5 -3.5t36 -11t27.5 -19.5t11 -30q0 -23 -11.5 -37t-22.5 -19q-19 9 -35.5 12.5t-39.5 3.5q-74 0 -108 -97.5t-34 -304.5q0 -220 41 -335t119 -115q26 0 45.5 5.5
t39.5 15.5q14 -4 23 -16.5t9 -34.5q0 -16 -10 -29.5t-26.5 -24t-38 -16.5t-44.5 -6z" />
    <glyph glyph-name="d" unicode="d" horiz-adv-x="606" 
d="M406 22q0 18 2 47.5t4 61.5q-26 -64 -65.5 -101.5t-87.5 -37.5q-32 0 -67 24t-63.5 82.5t-47 155.5t-18.5 244q0 148 12.5 252.5t37.5 170.5t63 96t89 30q27 0 49 -11t40 -30.5t32 -46t26 -57.5q-2 154 -5.5 292t-8.5 245q11 7 28 11.5t38 4.5q24 0 37.5 -15t13.5 -38
q-1 -110 -1 -234t-0.5 -252t0 -256.5t2 -247t3.5 -223t6 -185.5q-14 -11 -27.5 -16t-33.5 -5t-39 8.5t-19 30.5zM409 294q3 120 4 246.5t0 254.5q-12 29 -27 55t-32.5 46t-36.5 31.5t-38 11.5q-58 0 -85 -103t-27 -307q0 -116 11.5 -196t29.5 -130t41 -72.5t47 -22.5
q17 0 36.5 12t36 35.5t27.5 58t13 80.5z" />
    <glyph glyph-name="e" unicode="e" horiz-adv-x="571" 
d="M488 451q-36 -1 -76.5 -1h-82.5t-83.5 -0.5t-80.5 -1.5q6 -183 44.5 -274.5t116.5 -91.5q21 0 38.5 7.5t30.5 19.5t21.5 27t12.5 30q13 11 37 11q17 0 29.5 -11.5t12.5 -34.5q0 -20 -6.5 -37.5t-22.5 -36.5q-11 -12 -25.5 -24.5t-34 -22t-44.5 -16t-58 -6.5
q-72 0 -120.5 40t-78 112.5t-42 173t-12.5 220.5q0 123 16.5 218.5t47 161.5t73 100t95.5 34q205 0 205 -503q0 -22 -3.5 -50.5t-9.5 -43.5zM293 941q-27 0 -50.5 -22t-40.5 -70.5t-27 -125.5t-11 -186q61 2 122.5 2.5t118.5 3.5q-1 198 -31 298t-81 100z" />
    <glyph glyph-name="f" unicode="f" horiz-adv-x="444" 
d="M87 941q-29 -2 -41.5 13t-12.5 36q0 19 4.5 30t13.5 22q45 -3 93 -3q-1 117 16 197t48.5 129t75.5 70t98 21q49 0 83 -11t60 -31q19 -14 25 -27t6 -29q0 -19 -11 -33t-27 -23q-9 7 -21 15.5t-28 15.5t-36.5 12t-45.5 5q-34 0 -59.5 -14.5t-42.5 -50t-26 -95t-10 -150.5
q37 0 72.5 1t70.5 2q20 0 29 -14t9 -33q0 -20 -5 -31t-14 -22q-77 2 -162 0q0 -112 1 -235.5t2.5 -246.5t4 -240t5.5 -215q-22 -17 -59 -17q-19 0 -33.5 12.5t-14.5 38.5q2 223 -0.5 448t-7.5 454q-17 0 -32 -0.5t-28 -0.5z" />
    <glyph glyph-name="g" unicode="g" horiz-adv-x="581" 
d="M271 397q-25 0 -51 8q-8 -16 -11.5 -34t-3.5 -43q0 -36 29 -73t70 -65q69 -48 115.5 -87t74.5 -77.5t40 -80.5t12 -96t-20 -98t-54.5 -75.5t-80 -49t-96.5 -17.5q-115 0 -179.5 73t-64.5 208q0 47 9 89.5t23.5 78.5t34 65.5t40.5 50.5q-20 23 -33.5 54.5t-13.5 73.5
q0 43 12 81t34 64q-45 48 -67.5 132.5t-22.5 189.5q0 143 54.5 211.5t157.5 68.5q45 0 83 -12q4 90 36 128t81 38q28 0 47.5 -13.5t19.5 -41.5q0 -17 -6.5 -28.5t-14.5 -19.5q-7 4 -20 6t-21 2q-14 0 -23 -4.5t-15.5 -16.5t-10 -32.5t-5.5 -53.5q36 -31 55 -83t19 -128
q0 -90 -18 -163t-49.5 -124t-74 -78.5t-91.5 -27.5zM280 953q-50 0 -80 -45.5t-30 -136.5q0 -56 6.5 -107t19.5 -89t32.5 -60.5t46.5 -22.5q26 0 49 22t40 60t27 90.5t10 113.5q0 89 -31 132t-90 43zM439 -153q0 43 -11.5 74t-37.5 60.5t-68 61.5t-104 77q-26 -33 -44.5 -89
t-18.5 -135q0 -41 9.5 -76.5t27.5 -61.5t44.5 -40.5t61.5 -14.5q32 0 58 10.5t44.5 30t28.5 45.5t10 58z" />
    <glyph glyph-name="h" unicode="h" horiz-adv-x="630" 
d="M213 1367q1 -70 -0.5 -136.5t-4 -133t-4 -134t-1.5 -137.5q10 45 27.5 85.5t42.5 71.5t58 49.5t75 18.5q66 0 101.5 -68.5t33.5 -217.5q-1 -90 -0.5 -189t2 -199.5t4 -197.5t5.5 -182q-6 -5 -21.5 -8.5t-35.5 -3.5q-48 0 -49 51q-3 100 -3.5 199t-0.5 189.5t0.5 169.5
t-0.5 140q-2 91 -19.5 139t-57.5 48q-29 0 -52 -17t-40 -45t-29.5 -62t-20 -69t-12 -66t-5.5 -52q-2 -52 -2.5 -123t0 -151.5t2 -166.5t4.5 -167q-10 -6 -21.5 -11t-34.5 -5q-28 0 -39 17t-11 40q2 184 2.5 369.5t-1 364t-4.5 344.5t-8 310q10 9 23.5 16.5t38.5 7.5
q28 0 42.5 -23t15.5 -65z" />
    <glyph glyph-name="i" unicode="i" horiz-adv-x="302" 
d="M148 -13q-9 0 -19 3t-19 9t-14.5 15.5t-4.5 23.5q4 121 5 254.5t0 265.5t-1 255t3 223q8 5 19.5 9t31.5 4t36.5 -11.5t15.5 -32.5q-3 -109 -5 -237t-2 -261t0.5 -263.5t1.5 -244.5q-8 -5 -17.5 -8.5t-30.5 -3.5zM155 1187q-23 0 -36 13t-11 36q1 38 0.5 73.5t-2.5 77.5
q20 15 53 15q18 0 35 -11t17 -32q0 -38 -1 -78t0 -78q-11 -7 -25 -11.5t-30 -4.5z" />
    <glyph glyph-name="j" unicode="j" horiz-adv-x="295" 
d="M136 1180q-21 0 -34.5 9.5t-13.5 29.5q0 18 0.5 39t1 43.5t-0.5 44.5t-4 42q12 7 24 11t32 4q9 0 18 -3t16.5 -9.5t12 -16t3.5 -22.5q-1 -34 -3 -76t1 -76q-10 -11 -22 -15.5t-31 -4.5zM-41 -380q-32 0 -49 16t-17 36q0 15 2.5 27t8.5 27q48 -2 85 7t62.5 31t38.5 59
t13 93q0 142 -1.5 281.5t-4 278.5t-4.5 277.5t-3 278.5q9 8 25.5 11t30.5 3q18 0 34 -9.5t16 -29.5q0 -140 0.5 -276.5t2 -273t2.5 -274.5t3 -282q1 -76 -17 -129.5t-50.5 -87t-78 -49t-99.5 -15.5z" />
    <glyph glyph-name="k" unicode="k" horiz-adv-x="547" 
d="M192 -1q-10 -5 -22.5 -8t-29.5 -3q-26 0 -40 12.5t-12 38.5q1 94 0 202t-3 224.5t-5 239.5t-5 246.5t-3.5 245t0.5 235.5q7 8 17.5 17t36.5 8q26 0 41.5 -15.5t13.5 -41.5q-5 -261 -4.5 -517.5t6.5 -515.5q94 72 140 176.5t46 227.5q0 40 -9.5 74.5t-27.5 60t-43.5 40.5
t-56.5 16q-4 5 -6 15.5t-2 22.5q1 23 15.5 36.5t41.5 13.5q44 0 80 -21t61 -58.5t38.5 -89t13.5 -112.5q0 -62 -16.5 -127t-46 -124.5t-69.5 -109t-87 -79.5q31 -16 57 -52.5t49 -74t45 -66t45 -28.5q15 0 25 6t18 12q12 -5 24 -16.5t12 -38.5q0 -35 -27 -59t-65 -24
q-32 0 -56 18t-42.5 45.5t-34 60.5t-32.5 62.5t-37 52t-47 28.5q2 -29 3 -62.5t1.5 -68t0 -67t-1.5 -58.5z" />
    <glyph glyph-name="l" unicode="l" horiz-adv-x="431" 
d="M312 -14q-103 0 -160 74.5t-58 205.5q-2 147 -1.5 286t1 280t1 289.5t-2.5 315.5q7 10 19.5 15t33.5 5q27 1 41.5 -17t14.5 -44q0 -154 -2 -297.5t-4.5 -280t-3.5 -268.5t1 -262q0 -41 9 -75.5t25.5 -60t40 -40t54.5 -14.5q23 0 39.5 4t34.5 15q23 -17 23 -65
q0 -15 -9 -27.5t-24 -21t-34 -13t-39 -4.5z" />
    <glyph glyph-name="m" unicode="m" horiz-adv-x="945" 
d="M527 605q-1 -70 -0.5 -148t2 -157.5t3.5 -155.5t5 -142q-14 -8 -26.5 -11.5t-32.5 -3.5q-23 0 -36.5 15t-13.5 38q0 6 0.5 45.5t1.5 99t1.5 132t0 146t-2.5 140t-5 113.5q-6 106 -24.5 153t-53.5 47q-26 0 -53 -30t-49 -80t-35.5 -114.5t-13.5 -134.5q0 -135 2 -278.5
t5 -278.5q-11 -8 -21 -12.5t-33 -4.5q-20 0 -35.5 11t-15.5 40v246t-0.5 251t-2.5 251t-6 247q7 11 19.5 17.5t29.5 7.5q23 0 39.5 -11t14.5 -44q-2 -51 -4 -107t-3 -116q12 62 32.5 113t45.5 87t53.5 55.5t57.5 19.5q60 -2 93.5 -57t47.5 -173q36 115 87 172t108 56
q69 -1 106 -78.5t39 -238.5q1 -86 1 -176t0.5 -181t3 -181t8.5 -177q-11 -12 -24 -21t-37 -9q-26 -1 -40.5 14t-13.5 44q1 167 2.5 326.5t-3.5 325.5q-3 107 -25 157.5t-58 48.5q-29 -1 -54 -24.5t-44.5 -63.5t-31 -94t-11.5 -116z" />
    <glyph glyph-name="n" unicode="n" horiz-adv-x="649" 
d="M201 993q-2 -45 -1.5 -100.5t1.5 -110.5q14 57 37 105t51.5 83.5t61.5 55t68 19.5t62.5 -19t46.5 -52.5t29.5 -79.5t10.5 -100q0 -94 -1 -196.5l-2 -205t0 -200.5t5 -183q-8 -9 -20.5 -16.5t-37.5 -7.5q-20 0 -37 12t-17 40q0 95 1 177.5t2.5 163t2.5 163.5t0 179
q-1 91 -23 143t-67 52q-29 0 -58.5 -30t-53 -79t-38.5 -111t-16 -126q0 -66 0.5 -138.5t2 -145.5t4 -143.5t4.5 -133.5q-8 -10 -22 -16.5t-34 -6.5q-31 0 -42.5 16.5t-11.5 33.5q-1 120 -2 245.5t-3.5 251.5t-6.5 251.5t-10 245.5q8 7 22 14.5t39 7.5q27 0 41 -16.5
t12 -41.5z" />
    <glyph glyph-name="o" unicode="o" horiz-adv-x="605" 
d="M310 -13q-54 0 -99 32.5t-77.5 98.5t-51 167t-18.5 239q-1 263 63.5 393.5t186.5 127.5q52 -2 94 -35.5t72 -96t46 -153.5t16 -206q0 -158 -19.5 -266.5t-52.5 -175.5t-75 -96t-85 -29zM306 936q-68 -1 -103 -104t-35 -308q1 -210 36 -321t104 -113q28 -1 52 29t42 89
t28 146t9 200q0 88 -9 159t-25.5 120.5t-41.5 76t-57 26.5z" />
    <glyph glyph-name="p" unicode="p" horiz-adv-x="619" 
d="M332 -13q-45 0 -80.5 28.5t-56.5 82.5q0 -65 1 -134t3 -133t4.5 -118.5t6.5 -89.5q-11 -10 -25.5 -15t-37.5 -5q-20 0 -34.5 13.5t-16.5 39.5q-1 52 -1 130t0.5 171.5t1 198t1 210t0 207.5t-1.5 191t-3.5 159.5t-6.5 113.5q13 5 27 8.5t31 3.5q29 0 43 -13.5t14 -33.5
q-1 -35 -3 -68.5t-4 -68.5q12 33 31 65t42.5 58t50.5 42t57 16q51 0 85.5 -34.5t55.5 -99t30.5 -156t9.5 -205.5q0 -146 -15.5 -252t-44.5 -175.5t-70.5 -103t-93.5 -33.5zM199 716q-1 -61 -1 -122.5t0.5 -119.5t1.5 -109.5t1 -92.5q0 -35 8.5 -66.5t23.5 -55.5t35 -38
t44 -14q34 0 60.5 24t44 78t26.5 140t9 211q0 120 -9.5 195.5t-24.5 118.5t-34 58.5t-39 15.5q-22 0 -47 -16.5t-46.5 -46t-36.5 -70.5t-16 -90z" />
    <glyph glyph-name="q" unicode="q" horiz-adv-x="628" 
d="M271 1046q28 0 54 -15.5t48 -42t40 -62.5t30 -78q-2 44 -4 82t0 73q1 20 15.5 31.5t36.5 11.5q21 0 33.5 -4t22.5 -8q-2 -110 -4 -244.5t-3 -276.5t-1.5 -282t1 -261t4 -213.5t7.5 -138.5q-11 -5 -29 -8t-34 -3q-23 0 -39 15t-18 50q-1 48 -0.5 105.5t1.5 119.5
t2.5 127.5t3.5 129.5q-14 -34 -32.5 -64.5t-41 -53t-48.5 -36t-54 -13.5q-45 0 -81.5 26.5t-63 89t-40.5 166.5t-14 259q0 127 15.5 224t43.5 162.5t66 98.5t83 33zM433 313q5 88 6 188.5t-1 197.5q-1 49 -16 91t-37 73t-47 49t-46 18q-26 0 -48.5 -24t-39.5 -73.5
t-27 -125.5t-10 -179q0 -114 7.5 -195.5t22.5 -133t37 -75.5t51 -24q27 0 52.5 20t46.5 50.5t34 68.5t15 74z" />
    <glyph glyph-name="r" unicode="r" horiz-adv-x="573" 
d="M202 556q-3 -65 -2.5 -137.5t2.5 -145.5t5.5 -142.5t7.5 -128.5q-11 -6 -30.5 -10.5t-38.5 -4.5q-25 0 -38.5 12.5t-13.5 41.5q0 243 2.5 490t-5.5 499q9 6 20.5 11.5t33.5 5.5q25 -1 43 -15t16 -45q-2 -59 -5.5 -122.5t-5.5 -127.5q14 56 37.5 111t54.5 98.5t67.5 70.5
t77.5 27q69 0 98.5 -57.5t32.5 -160.5q0 -22 -15 -39t-40 -17q-38 0 -56 29q-1 35 -5 57.5t-11 36t-17.5 18.5t-23.5 5q-34 0 -67 -35t-60 -88t-44.5 -116.5t-19.5 -120.5z" />
    <glyph glyph-name="s" unicode="s" horiz-adv-x="522" 
d="M239 -12q-55 0 -94 15.5t-67 39.5q-11 10 -19.5 27t-8.5 35q0 21 13.5 36.5t34.5 16.5q10 -8 23 -19.5t30 -22.5t39 -19t49 -8q30 0 54 11t41 30.5t26 46.5t9 58q0 42 -22 82t-55.5 80.5t-72 82.5t-72 88t-55.5 97.5t-22 110.5q0 62 15.5 111.5t43.5 84t68 52.5t88 18
q37 0 74 -10t65 -36q13 -12 22 -28t8 -42q-1 -23 -17 -38.5t-37 -15.5q-7 9 -18.5 21t-27 22t-35.5 17t-43 7q-25 0 -44.5 -11.5t-33 -31t-21 -47t-7.5 -58.5q0 -53 22.5 -98.5t56.5 -88.5t73.5 -84.5t73.5 -85t56.5 -91.5t22.5 -103q0 -56 -19 -102.5t-51 -79.5t-75 -51.5
t-91 -18.5z" />
    <glyph glyph-name="t" unicode="t" horiz-adv-x="503" 
d="M467 941q-43 2 -91.5 2t-99.5 -1q-3 -169 -8.5 -337.5t-0.5 -324.5q4 -180 98 -180q24 0 48 6t44 17q9 -10 15 -26t6 -36q0 -35 -33.5 -55t-83.5 -20q-99 0 -147.5 76.5t-48.5 214.5q0 162 2.5 330t3.5 333q-24 -1 -47 -0.5t-43 1.5q-48 0 -48 49q0 21 8 36.5t14 17.5
q54 -3 116 -3q0 77 -1 150.5t-3 143.5q10 6 23 10t33 4q26 0 37 -11t13 -34q3 -63 4 -129t0 -135q83 0 155 3q25 2 36.5 -11.5t11.5 -36.5q0 -20 -4.5 -32.5t-8.5 -21.5z" />
    <glyph glyph-name="u" unicode="u" horiz-adv-x="636" 
d="M440 207q-35 -111 -87 -163.5t-107 -52.5q-34 0 -63 18t-50 54.5t-33 93.5t-13 135q-1 88 -1 184t-0.5 193t-2 191t-5.5 179q11 5 24.5 7t33.5 2q18 0 36 -10.5t19 -29.5q3 -86 2.5 -164.5t-2 -159t-2.5 -166.5t2 -188q3 -109 25.5 -158t66.5 -49q20 0 46.5 15t50 52
t39.5 99t16 155q2 147 -1.5 296.5t-11.5 295.5q9 5 25.5 8.5t31.5 3.5q19 0 35 -9.5t16 -39.5q0 -63 0.5 -142.5t1.5 -168t2 -181.5t3 -183t4.5 -173t6.5 -151q-14 -8 -28 -12.5t-34 -4.5t-34.5 11t-14.5 35z" />
    <glyph glyph-name="v" unicode="v" horiz-adv-x="645" 
d="M331 -15q-17 0 -34.5 10t-23.5 35q-34 129 -64.5 254t-59 249t-56.5 248t-56 250q10 8 27 11.5t33 3.5q19 0 36.5 -10.5t22.5 -34.5q46 -212 88 -411.5t90 -395.5q12 62 28 136t33 152.5t34 158t32 153t27 137t19 110.5q8 3 20 5.5t28 2.5q24 0 38 -14.5t14 -30.5
q0 -10 -1 -19t-3 -23q-23 -121 -52.5 -243.5t-60 -244.5t-57.5 -241t-44 -233q-14 -8 -27.5 -11.5t-30.5 -3.5z" />
    <glyph glyph-name="w" unicode="w" horiz-adv-x="777" 
d="M206 -10q-26 1 -38 15t-15 45q-14 138 -26 263t-22.5 244t-20.5 235.5t-19 238.5q6 8 23 11.5t35 3.5q27 0 42.5 -13t16.5 -30q7 -96 11.5 -192.5t9 -192.5t10 -191t14.5 -187q14 47 30.5 105.5t34 119.5t34 120t30.5 107q6 4 14.5 6t23.5 2q37 0 46 -31
q14 -47 31.5 -104t37 -115.5t39.5 -114.5t38 -101q11 195 12.5 398.5t5.5 399.5q8 6 23 10t33 4q23 -1 37 -10.5t16 -27.5q1 -8 0.5 -22.5t-2.5 -43.5q-5 -115 -11.5 -229.5t-13 -231t-11.5 -235.5t-6 -242q-11 -6 -25 -10t-31 -4q-19 0 -35 9t-22 28q-18 57 -38.5 122.5
t-41 132t-41 131.5t-39.5 122q-15 -57 -36 -130.5t-41 -148.5t-37 -143.5t-24 -115.5q-11 -3 -24.5 -5t-27.5 -2z" />
    <glyph glyph-name="x" unicode="x" horiz-adv-x="566" 
d="M102 -14q-22 0 -35.5 12.5t-13.5 30.5q0 16 6 34q42 116 83.5 227t86.5 229q-30 75 -59.5 147.5t-54.5 138t-44.5 122t-31.5 99.5q9 9 24 17.5t36 8.5q14 0 32 -8.5t24 -35.5q26 -81 60.5 -179t74.5 -201q16 46 35.5 103t38.5 114.5t34 109t21 87.5q9 5 21.5 7.5
t23.5 2.5q21 0 35 -12t14 -33q0 -12 -3 -25.5t-6 -22.5q-38 -114 -82 -227.5t-86 -222.5q28 -72 55.5 -142t52 -134t46 -120t36.5 -100q-8 -8 -24 -16t-37 -8q-22 0 -35.5 10t-20.5 33q-25 81 -58 172t-71 186q-19 -50 -38 -105.5t-36 -109t-31.5 -100.5t-24.5 -81
q-13 -4 -23 -6t-25 -2z" />
    <glyph glyph-name="y" unicode="y" horiz-adv-x="652" 
d="M178 -391q-22 0 -36 14t-14 37q0 21 12.5 44t24.5 44q37 60 69.5 126t61.5 135q-17 6 -27 32q-17 56 -35.5 132t-38 163.5t-39.5 181.5t-40.5 185.5t-41.5 175.5t-41 152q9 7 26.5 12t37.5 5q26 0 40 -8.5t21 -28.5q17 -62 32 -134t30 -149t29.5 -156t29.5 -155.5
t31 -147.5t34 -132q39 113 68 230.5t49.5 233t32 226.5t14.5 212q21 10 58 10q26 -1 38 -12t12 -27q0 -15 -1 -36t-3 -43q-12 -150 -39.5 -309.5t-75.5 -322.5q-25 -84 -58.5 -177t-69.5 -184t-71 -173t-63 -145q-11 -5 -25.5 -8t-31.5 -3z" />
    <glyph glyph-name="z" unicode="z" horiz-adv-x="506" 
d="M457 44q0 -50 -34 -52q-42 -2 -88 -1t-93 2.5t-93.5 2.5t-88.5 -1q-6 8 -10.5 20t-4.5 38q0 14 5 30.5t9 30.5q37 114 71.5 213t68.5 195t67.5 195.5t69.5 213.5q-56 2 -117 0t-119 -2q-25 0 -37 20.5t-12 43.5q0 16 4 28.5t11 22.5q42 3 89 2t96 -2.5t98 -2t95 3.5
q5 -6 8 -18.5t3 -25.5q0 -16 -2.5 -34.5t-7.5 -29.5q-73 -212 -143.5 -416t-143.5 -416h66h71.5t73 1t71.5 4q17 -20 17 -66z" />
    <glyph glyph-name="braceleft" unicode="{" horiz-adv-x="455" 
d="M338 -241q-45 0 -82.5 10.5t-64.5 33.5t-41.5 59t-14.5 86q0 46 10.5 108.5t22.5 132t22.5 141.5t10.5 137q0 19 -8 37.5t-21.5 33.5t-32 25t-40.5 12q-14 2 -23.5 16.5t-9.5 32.5q0 17 3 27.5t10 18.5q22 0 44.5 7t40.5 22t29.5 40t11.5 62q0 49 -13.5 113t-29.5 132.5
t-29.5 134.5t-13.5 120q0 37 14.5 69.5t40.5 56.5t63.5 37.5t84.5 13.5q27 0 44.5 -5t27.5 -13.5t14 -20t4 -24.5q0 -17 -5 -32t-12 -23q-12 5 -27.5 7t-32.5 2q-49 0 -76 -24t-27 -70q0 -28 6 -64.5t15 -78.5t20 -87t20 -90t15 -88.5t6 -80.5q0 -65 -27 -107t-68 -57
q44 -17 67.5 -56t23.5 -85q0 -70 -10 -144.5t-21.5 -143t-21.5 -126.5t-10 -94q0 -60 29.5 -84.5t71.5 -24.5h27.5t25.5 2q6 -9 9.5 -20.5t3.5 -28.5q0 -33 -20 -45.5t-56 -12.5z" />
    <glyph glyph-name="bar" unicode="|" horiz-adv-x="330" 
d="M162 -226q-23 0 -38.5 9t-15.5 29l6 1640q11 4 29 6t27 2q23 0 37.5 -11.5t14.5 -31.5q-2 -409 -4.5 -815.5t-0.5 -814.5q-14 -8 -24.5 -10.5t-30.5 -2.5z" />
    <glyph glyph-name="braceright" unicode="}" horiz-adv-x="460" 
d="M121 1478q46 0 83.5 -10.5t64 -33.5t41 -59t14.5 -86q0 -46 -10.5 -108.5t-22.5 -132t-22.5 -141.5t-10.5 -137q0 -19 8 -37.5t21.5 -33.5t32 -25t40.5 -13q15 -1 24.5 -16t9.5 -32t-3 -27.5t-10 -18.5q-23 -1 -45.5 -7.5t-40.5 -22t-29.5 -40.5t-11.5 -62
q0 -49 13.5 -113t29.5 -132t29.5 -134t13.5 -120q0 -37 -14 -69.5t-40.5 -56.5t-64 -37.5t-83.5 -13.5q-27 0 -45 5t-28 13t-14 19.5t-4 24.5q0 17 5 32.5t13 23.5q12 -5 27.5 -7.5t32.5 -2.5q49 0 76 24t27 71q0 28 -6 64.5t-15 78.5t-20 87t-20 90t-15 88t-6 80
q0 66 27 107.5t68 57.5q-44 17 -67.5 56t-23.5 85q0 70 10 144.5t21.5 143t21.5 126t10 94.5q0 59 -29.5 84t-71.5 25q-31 0 -53 -3q-6 10 -10 21t-4 28q0 33 20.5 46t55.5 13z" />
    <glyph glyph-name="uni00A0" unicode="&#xa0;" horiz-adv-x="240" 
 />
    <glyph glyph-name="exclamdown" unicode="&#xa1;" horiz-adv-x="360" 
d="M186 867q-15 0 -30 4.5t-27 14t-20 24t-8 34.5q0 43 22.5 67t59.5 24q32 0 54 -23.5t22 -65.5q0 -37 -22.5 -58t-50.5 -21zM183 771q8 0 18 -2t18.5 -8t14 -17.5t4.5 -29.5q-2 -131 -2.5 -255.5t1 -248.5t4 -251t6.5 -262q-8 -6 -22.5 -11.5t-35.5 -5.5q-55 0 -53 47
q1 139 0 270t-2.5 257t-3 250.5t-0.5 250.5q15 16 53 16z" />
    <glyph glyph-name="cent" unicode="&#xa2;" horiz-adv-x="497" 
d="M316 -179q-20 0 -33 9t-13 29q0 36 0.5 71t1.5 69q-106 33 -157 170.5t-51 383.5q0 120 14.5 208t42.5 148t67.5 93t89.5 43q0 49 -0.5 98.5t-1.5 102.5q9 3 24 5t23 2q20 0 32.5 -11.5t12.5 -30.5l-4 -164q19 -3 37 -8.5t32 -14t22.5 -19.5t8.5 -25q0 -23 -6.5 -37.5
t-16.5 -20.5q-14 6 -34 12t-44 9q-2 -115 -3 -219t-1 -206v-206t1 -218q26 2 47 7.5t39 13.5q11 -5 16 -20.5t5 -36.5q0 -15 -8.5 -27t-23.5 -21t-34 -14.5t-40 -6.5q0 -38 0.5 -75.5t1.5 -79.5q-12 -7 -21 -10t-26 -3zM162 544q0 -194 27.5 -297.5t83.5 -135.5
q1 111 2.5 215t2 205.5t1 202t0.5 204.5q-27 -11 -49 -38.5t-37 -75t-23 -117t-8 -163.5z" />
    <glyph glyph-name="sterling" unicode="&#xa3;" horiz-adv-x="764" 
d="M483 655q-34 1 -79.5 1h-93.5q3 -26 6.5 -51t7.5 -50q76 2 143 6q24 2 33 -11t9 -36q0 -14 -3.5 -24.5t-8.5 -18.5q-32 1 -74.5 1.5t-87.5 -0.5q9 -69 15 -138.5t6 -139.5q0 -10 -0.5 -19t-1.5 -18q17 -14 35 -28t39 -24.5t46 -17t57 -6.5q52 0 74 30.5t22 105.5
q17 18 53 18q27 0 43 -16.5t16 -42.5q0 -42 -12.5 -77.5t-37 -61t-61.5 -39.5t-85 -14q-42 0 -74 7.5t-57.5 20t-45.5 28t-37 31.5q-21 -41 -54.5 -63.5t-75.5 -22.5q-54 0 -89.5 33t-35.5 92q0 60 35 90.5t87 30.5q19 0 36 -3.5t31 -8.5q-2 62 -10 125t-19 127
q-31 0 -58 -0.5t-49 -0.5q-19 -1 -30.5 12t-11.5 31q0 36 13 47q28 -3 58.5 -4t63.5 -2l-18 101q-26 -1 -48.5 -1.5t-40.5 -0.5q-19 0 -30.5 12.5t-11.5 30.5q0 35 13 48q47 -4 105 -6q-9 59 -14.5 116t-5.5 114q0 183 73 278t206 95q59 0 107.5 -20.5t83.5 -57t54 -86
t19 -107.5q0 -26 -5 -54t-14.5 -51t-22.5 -37.5t-28 -14.5q-26 0 -40.5 7t-21.5 20q14 29 18.5 64.5t4.5 65.5q0 75 -41.5 119t-110.5 44q-35 0 -65 -14t-53 -45t-36 -80.5t-13 -119.5q0 -60 4 -118t11 -117q40 1 79 2t75 3q24 3 33 -10t9 -36q0 -14 -3.5 -24.5t-8.5 -18.5z
M198 68q20 0 37 14.5t25 51.5q-14 10 -30 15.5t-35 5.5q-46 0 -46 -43q0 -20 14 -32t35 -12z" />
    <glyph glyph-name="yen" unicode="&#xa5;" horiz-adv-x="619" 
d="M539 382q-31 1 -75.5 1.5t-93.5 -0.5q2 -93 4.5 -185.5t2.5 -189.5q-9 -8 -21.5 -13.5t-39.5 -5.5q-20 0 -37 15t-18 39q0 93 1 174t1 165q-40 0 -75 -1t-59 -1q-19 0 -30.5 12.5t-11.5 30.5q0 35 13 48q33 -3 75 -4.5t88 -1.5v49.5t-1 51.5q-42 -1 -77 -1.5t-60 -0.5
q-19 -1 -30.5 12t-11.5 31q0 36 13 47q30 -3 66.5 -4.5t77.5 -1.5q-27 86 -55.5 182.5t-56 188.5t-54 172.5t-50.5 134.5q9 11 28.5 19t42.5 8q24 0 37.5 -10t19.5 -34q18 -65 37.5 -139.5t40 -150.5t42 -149t43.5 -136q27 79 50 158.5t44.5 157.5t43 153.5t45.5 145.5
q15 7 42 7q15 0 25.5 -5.5t17 -13.5t9 -17.5t2.5 -17.5q0 -22 -5 -35q-51 -145 -103.5 -303.5t-100.5 -313.5q32 1 62.5 1.5t56.5 2.5q24 3 33 -10t9 -36q0 -14 -3.5 -24.5t-8.5 -18.5q-30 1 -75 1.5t-93 -0.5l2 -100q38 1 73.5 2t66.5 3q24 2 33 -10.5t9 -35.5
q0 -14 -3.5 -25t-7.5 -18z" />
    <glyph glyph-name="brokenbar" unicode="&#xa6;" horiz-adv-x="329" 
d="M162 -226q-23 0 -38.5 9t-15.5 29q0 54 0.5 117t1 129.5t1 134.5t1 131.5t0.5 119v98.5q11 3 29.5 5.5t27.5 2.5q23 0 37.5 -12t14.5 -31q-2 -63 -3 -148.5t-2 -181.5t-1 -196.5t2 -193.5q-14 -8 -24.5 -10.5t-30.5 -2.5zM162 684q-23 0 -38.5 9t-15.5 29q0 80 1 180
t1.5 200.5t1 192.5t0.5 156q11 4 29.5 6t27.5 2q23 0 37.5 -11.5t14.5 -30.5q-2 -63 -3 -148.5t-2 -181.5t-1 -196.5t2 -193.5q-14 -8 -24.5 -10.5t-30.5 -2.5z" />
    <glyph glyph-name="section" unicode="&#xa7;" horiz-adv-x="757" 
d="M379 -384q-50 0 -95 16.5t-79 48t-53.5 76.5t-19.5 101t13 95t40 73q10 13 23.5 16t25.5 3q15 0 28 -11t23 -26q-20 -26 -32 -59.5t-12 -86.5q0 -33 11.5 -60.5t30.5 -47t44 -30t52 -10.5q32 0 58 14t44 38t28 56t10 68q0 79 -33 145t-82 125t-107 114t-107 112
t-82 118.5t-33 134.5t38.5 150.5t114.5 140.5q-45 56 -72.5 115.5t-27.5 125.5q0 58 20 107.5t55 85.5t82 56t101 20q52 0 98 -18t80.5 -50.5t54.5 -76.5t20 -95q0 -35 -7.5 -65t-20 -51.5t-28.5 -33.5t-32 -12q-26 0 -41.5 11t-23.5 23q18 21 28.5 51.5t10.5 72.5
q0 26 -10 49t-29 40.5t-46 27.5t-60 10q-32 0 -57.5 -12.5t-43.5 -34t-28 -50.5t-10 -62q0 -58 33 -112t82.5 -107.5t107.5 -107.5t107.5 -112.5t82.5 -123.5t33 -139q0 -47 -12 -89.5t-33 -80t-48.5 -70t-58.5 -58.5q42 -60 68 -127t26 -147q0 -65 -20 -116t-54.5 -86
t-80 -53.5t-95.5 -18.5zM578 460q0 51 -26.5 100t-68 97.5t-92.5 98t-99 101.5q-57 -58 -82 -113t-25 -112q0 -49 27.5 -95.5t70 -94t94 -97.5t99.5 -106q47 42 74.5 98.5t27.5 122.5z" />
    <glyph glyph-name="dieresis" unicode="&#xa8;" horiz-adv-x="442" 
d="M130 1132q-23 0 -36.5 13t-11.5 36q2 38 1.5 73.5t-2.5 77.5q20 15 53 15q18 0 35 -11t17 -32q0 -38 -1 -78t0 -78q-11 -7 -25 -11.5t-30 -4.5zM306 1133q-23 0 -36 13t-11 36q1 38 0.5 73.5t-2.5 77.5q20 15 53 15q18 0 35 -11t17 -32q0 -38 -1 -78t0 -78
q-11 -7 -25 -11.5t-30 -4.5z" />
    <glyph glyph-name="copyright" unicode="&#xa9;" horiz-adv-x="917" 
d="M484 249q-44 0 -78.5 23.5t-58.5 75.5t-37 135.5t-13 202.5q0 205 42.5 298t130.5 93q23 0 46.5 -5t37.5 -14q14 -8 24 -19.5t10 -30.5q0 -14 -6.5 -27.5t-17.5 -18.5q-18 4 -35.5 9t-33.5 5q-17 0 -34.5 -10.5t-31.5 -42t-22.5 -88.5t-8.5 -149q0 -95 6 -159t19 -104
t32 -57t46 -17q14 0 36 5t41 10q8 -6 15 -16t7 -26q0 -21 -8.5 -33t-22.5 -20t-37.5 -14t-47.5 -6zM471 -14q-90 0 -163 47.5t-125 140.5t-80 230t-28 316q0 155 26 272t75.5 195.5t120 118t160.5 39.5q93 0 164.5 -40.5t120 -125.5t74 -216.5t25.5 -312.5
q0 -335 -93 -499.5t-277 -164.5zM457 1241q-69 0 -120.5 -35t-86 -102t-52 -163.5t-17.5 -220.5q0 -317 75 -473t215 -156q67 0 116.5 32.5t82.5 100.5t49 173.5t16 252.5q0 156 -16.5 267.5t-51 183.5t-87 106t-123.5 34z" />
    <glyph glyph-name="ordfeminine" unicode="&#xaa;" horiz-adv-x="394" 
d="M260 743q0 5 0.5 20.5t2.5 35.5q-17 -45 -46.5 -71t-64.5 -26q-22 0 -42 9t-35 31t-24 58.5t-9 90.5q0 97 52 147.5t161 52.5q0 19 0.5 34t0.5 24q0 53 -16 85.5t-56 32.5q-28 0 -43 -19.5t-21 -57.5q-32 -11 -51 3.5t-19 46.5q0 28 11 47t25 30q15 14 41 23t54 9
q77 0 120.5 -44t40.5 -132q-1 -25 -1.5 -63t0 -82t1 -91t1 -89.5t2 -77.5t2.5 -55q-9 -6 -18 -9t-26 -3q-20 0 -31.5 9t-11.5 31zM256 913q-1 27 -1 55v54q-75 -4 -106 -35t-31 -97q0 -50 16 -77t43 -27q35 0 57.5 33.5t21.5 93.5z" />
    <glyph glyph-name="guillemotleft" unicode="&#xab;" horiz-adv-x="742" 
d="M343 40q-46 0 -69 43q-55 106 -106.5 207t-103.5 192q-5 8 -6.5 14.5t-1.5 11.5q0 11 4 19q62 114 123 224t120 222q9 3 19 4t18 1q26 0 37.5 -12.5t11.5 -26.5q0 -7 -1 -16.5t-9 -23.5q-52 -94 -106 -191.5t-105 -197.5q54 -117 114 -223t117 -217q-24 -30 -56 -30z
M631 40q-47 0 -68 43q-56 106 -107.5 207t-103.5 192q-5 8 -6.5 14.5t-1.5 11.5q0 11 4 19q63 114 123.5 224t119.5 222q10 3 19.5 4t17.5 1q26 0 37.5 -12.5t11.5 -26.5q0 -7 -1 -16.5t-9 -23.5q-52 -94 -105.5 -191.5t-105.5 -197.5q54 -117 114 -223t117 -217
q-22 -30 -56 -30z" />
    <glyph glyph-name="uni00AD" unicode="&#xad;" horiz-adv-x="563" 
d="M487 555q0 -20 -3 -32.5t-9 -23.5q-36 2 -79.5 2.5t-90 0.5t-93.5 -0.5t-92 -0.5q-16 -1 -30.5 14t-14.5 41q0 20 3.5 31t11.5 21q89 -5 179 -5t178 2q17 1 28.5 -13.5t11.5 -36.5z" />
    <glyph glyph-name="registered" unicode="&#xae;" horiz-adv-x="713" 
d="M353 644q-144 0 -221.5 89.5t-77.5 272.5q0 83 18 149t53.5 111.5t88.5 70t124 24.5q78 0 137 -28.5t98.5 -80t59.5 -123t20 -157.5q0 -162 -79 -245t-221 -83zM340 1296q-117 0 -169 -74t-52 -216q0 -153 59 -226t181 -73q118 0 173.5 69t55.5 197q0 75 -15 135t-46 102
t-77.5 64t-109.5 22zM447 768q-21 0 -35 14.5t-26 33.5t-25 37t-32 25q1 -40 2.5 -68t3.5 -36q-12 -6 -32 -6q-16 0 -25.5 7t-9.5 27q1 52 0.5 107t-1.5 110.5t-3 110.5t-4 106q5 4 14 6t17 2q87 0 134.5 -47.5t47.5 -128.5q0 -50 -24.5 -93t-68.5 -71q15 -9 26.5 -20.5
t21.5 -22t19 -18t17 -7.5t18 4q2 -4 4 -13t2 -21q0 -17 -10.5 -27.5t-30.5 -10.5zM327 936q40 8 62 44.5t22 89.5q0 40 -22 70.5t-67 34.5z" />
    <glyph glyph-name="macron" unicode="&#xaf;" horiz-adv-x="531" 
d="M451 1226q0 -17 -4 -27.5t-9 -20.5q-38 2 -79.5 2.5t-82.5 0t-81 -1t-75 -0.5q-24 0 -32 15.5t-8 35.5q0 17 2.5 29.5t10.5 22.5q35 -3 76.5 -3t83.5 1t83.5 2t76.5 0q23 -1 30.5 -15.5t7.5 -40.5z" />
    <glyph glyph-name="degree" unicode="&#xb0;" horiz-adv-x="358" 
d="M172 1031q-30 0 -55 11.5t-43.5 31.5t-28.5 47t-10 58q0 30 10 57t28.5 47t43.5 32t55 12q31 0 58.5 -11t48 -30.5t32.5 -46.5t12 -59q0 -31 -10.5 -58t-30 -47.5t-47.5 -32t-63 -11.5zM176 1261q-28 0 -49.5 -20.5t-21.5 -58.5q0 -36 20 -60t52 -24q36 0 56 23.5
t20 62.5q0 20 -7 34.5t-18 24t-25 14t-27 4.5z" />
    <glyph glyph-name="plusminus" unicode="&#xb1;" horiz-adv-x="612" 
d="M536 626q0 -20 -3 -32.5t-9 -23.5q-31 2 -73.5 2.5t-90.5 0.5v-161q0 -15 -13.5 -22t-30.5 -7q-28 0 -40 3.5t-22 11.5q2 36 3 81t1 93h-151q-17 -1 -24.5 14t-7.5 41q0 20 3.5 31t11.5 21q36 -2 79.5 -3t89.5 -2q0 45 -0.5 86.5t-1.5 74.5q-1 15 13 22t35 7t34 -3
t24 -10q-2 -31 -3 -77.5t-1 -99.5q41 0 78.5 0.5t69.5 1.5q14 1 21.5 -13.5t7.5 -36.5zM513 234q0 -20 -3 -32.5t-9 -23.5q-36 2 -79.5 2.5t-90 0.5t-93.5 -0.5t-92 -0.5q-16 -1 -30.5 14t-14.5 41q0 20 3.5 31t11.5 21q89 -5 179 -5t178 2q17 1 28.5 -13.5t11.5 -36.5z" />
    <glyph glyph-name="twosuperior" unicode="&#xb2;" horiz-adv-x="432" 
d="M398 606q0 -25 -13.5 -35t-36.5 -10q-30 -1 -67.5 0.5t-76.5 2t-77 0.5t-69 -4q-11 11 -15 24.5t-4 32.5q0 28 14 59q34 72 76 131.5t79 114t62.5 110t25.5 120.5q0 54 -23.5 89.5t-66.5 35.5q-40 0 -71 -24t-50 -51q-24 0 -37 13.5t-13 36.5q0 18 5 30.5t16 23.5
q25 27 65 43t86 16q39 0 71 -15t55.5 -42.5t36.5 -66.5t13 -87q0 -68 -27.5 -129.5t-66.5 -122t-82 -122t-75 -128.5q34 2 69.5 2h69.5t64 1t52 4q11 -24 11 -53z" />
    <glyph glyph-name="threesuperior" unicode="&#xb3;" horiz-adv-x="398" 
d="M346 1156q0 -58 -26.5 -110.5t-72.5 -79.5q54 -23 84 -76t30 -129q0 -46 -13 -83.5t-37.5 -64.5t-59.5 -41.5t-80 -14.5q-29 0 -57.5 5.5t-48.5 16.5q-14 7 -22.5 18t-8.5 32q0 16 10 29t24 18q23 -13 50 -23t58 -10q18 0 35 7t30.5 21t21.5 36.5t8 53.5q0 48 -10.5 79.5
t-28.5 50.5t-41 28.5t-47 12.5q-18 3 -24.5 12.5t-6.5 24.5q0 22 10 33q57 10 95 46.5t38 107.5q0 28 -7.5 50t-20.5 37t-29 23t-34 8q-34 0 -58 -13t-44 -25q-11 0 -24.5 15.5t-13.5 36.5q0 17 7 28t18 19q23 17 49.5 23t56.5 6q45 0 80.5 -16t60 -43.5t37 -65.5t12.5 -83z
" />
    <glyph glyph-name="acute" unicode="&#xb4;" horiz-adv-x="355" 
d="M126 1123q-22 0 -34 11.5t-12 28.5q0 8 1.5 15t6.5 18q9 20 21 44.5t26 50.5t27.5 54t25.5 56q14 8 41 8q19 0 32.5 -12.5t13.5 -32.5q0 -5 -0.5 -11.5t-4.5 -15.5q-9 -19 -21.5 -43t-26.5 -51t-27.5 -56t-24.5 -56q-9 -4 -19 -6t-25 -2z" />
    <glyph glyph-name="mu" unicode="&#xb5;" horiz-adv-x="636" 
d="M264 -7q-44 0 -76 40q0 -59 0.5 -119t2 -114.5t4 -100t5.5 -76.5q-11 -10 -25.5 -15t-37.5 -5q-20 0 -34.5 13.5t-16.5 39.5q-1 52 -0.5 130t1 171.5t1 198t0.5 210t-0.5 207.5t-1.5 191t-3.5 159.5t-6.5 113.5q13 5 27 8.5t31 3.5q29 0 44 -13.5t15 -33.5
q0 -23 -0.5 -46.5t-1.5 -56t-1.5 -78t-1.5 -112.5t-1 -159.5t1 -219.5q1 -109 25.5 -158.5t66.5 -49.5q22 0 49 15.5t50.5 52.5t39.5 99t16 155q2 147 -1.5 296.5t-11.5 295.5q9 5 25.5 8.5t31.5 3.5q19 0 35 -9.5t16 -39.5q0 -63 0.5 -142.5t1.5 -168t2 -181.5t3 -183
t4.5 -173t6.5 -151q-14 -8 -28 -12.5t-34 -4.5t-34.5 11t-14.5 35l3 168q-17 -53 -38 -91.5t-44.5 -63.5t-47.5 -37t-46 -12z" />
    <glyph glyph-name="periodcentered" unicode="&#xb7;" horiz-adv-x="297" 
d="M140 646q17 0 36 -5.5t34.5 -17t26 -29.5t10.5 -43q0 -52 -29 -82t-75 -30q-39 0 -65.5 29.5t-26.5 79.5q0 23 7.5 41t20.5 30.5t28.5 19.5t32.5 7z" />
    <glyph glyph-name="cedilla" unicode="&#xb8;" horiz-adv-x="450" 
d="M217 -310q-10 0 -32.5 2t-46 9t-41 20.5t-17.5 35.5q0 14 5.5 27.5t19.5 24.5q23 -17 52 -29t61 -12q37 0 54 14t17 34t-19 33.5t-53 13.5q-11 0 -21.5 -0.5t-17.5 -2.5q-8 18 -8.5 32.5t1.5 32t4 41t-2 60.5l76 -2q-2 -26 -3 -49.5t1 -49.5q53 -2 88 -31t35 -84
q0 -26 -10.5 -47.5t-30.5 -38t-48.5 -25.5t-63.5 -9z" />
    <glyph glyph-name="onesuperior" unicode="&#xb9;" horiz-adv-x="357" 
d="M245 557q-23 0 -32 14.5t-9 33.5q0 76 1 156.5t2.5 162t2.5 162.5t0 158q-36 -40 -61 -65t-42.5 -39t-30 -19t-22.5 -5q-12 0 -22 10t-10 25q0 12 1 18.5t5 14.5q18 16 39.5 35.5t43.5 42t44 46.5t41 48q23 10 50 10q20 0 33.5 -14t13.5 -34q-1 -87 -1 -181.5t0.5 -191
t1 -191.5t2.5 -182q-8 -8 -19.5 -11.5t-31.5 -3.5z" />
    <glyph glyph-name="ordmasculine" unicode="&#xba;" horiz-adv-x="402" 
d="M207 697q-35 0 -65.5 18.5t-52.5 58.5t-35 101.5t-13 148.5q-1 165 42 244t127 79q69 -1 110.5 -80t41.5 -225q0 -98 -13 -164t-34.5 -106t-49.5 -57.5t-58 -17.5zM204 1257q-38 -1 -58.5 -57t-20.5 -176q2 -239 80 -242q31 -2 52.5 63t20.5 197q-1 104 -19.5 160
t-54.5 55z" />
    <glyph glyph-name="guillemotright" unicode="&#xbb;" horiz-adv-x="739" 
d="M110 978q45 0 68 -43q56 -106 107.5 -207t102.5 -192q5 -8 6.5 -14.5t1.5 -11.5q0 -11 -4 -19q-62 -114 -123 -223.5t-120 -221.5q-9 -4 -19 -5t-17 -1q-26 0 -37.5 12.5t-11.5 26.5q0 8 0.5 17t8.5 23q52 94 106 191.5t106 197.5q-54 117 -114 223t-117 217q22 30 56 30
zM408 978q46 0 69 -43q55 -106 107 -207t103 -192q5 -8 6.5 -14.5t1.5 -11.5q0 -11 -4 -19q-62 -114 -123 -223.5t-120 -221.5q-9 -4 -19 -5t-17 -1q-26 0 -37.5 12.5t-11.5 26.5q0 8 0.5 17t8.5 23q52 94 106 191.5t106 197.5q-54 117 -114 223t-117 217q22 30 55 30z" />
    <glyph glyph-name="onequarter" unicode="&#xbc;" horiz-adv-x="997" 
d="M245 557q-23 0 -32 14.5t-9 33.5q0 76 1 156.5t2.5 162t2.5 162.5t0 158q-36 -40 -61 -65t-42.5 -39t-30 -19t-22.5 -5q-12 0 -22 10t-10 25q0 12 1 18.5t5 14.5q18 16 39.5 35.5t43.5 42t44 46.5t41 48q23 10 50 10q20 0 33.5 -14t13.5 -34q-1 -87 -1 -181.5t0.5 -191
t1 -191.5t2.5 -182q-8 -8 -19.5 -11.5t-31.5 -3.5zM321 -9q-21 1 -34 9t-13 22q0 5 1 13.5t4 19.5q77 318 152.5 635.5t147.5 644.5q6 5 21.5 8.5t32.5 3.5q18 0 34.5 -8t16.5 -21q0 -5 -1 -12.5t-3 -13.5q-80 -326 -154 -644t-147 -641q-9 -7 -24.5 -11.5t-33.5 -4.5z
M873 35q0 28 2 52.5t1 51.5q-49 2 -103.5 1.5t-103.5 -5.5q-9 8 -14.5 15.5t-5.5 23.5q0 11 1 22.5l3 34.5q13 145 26 283t24 283q7 8 18 8.5t21 1.5q23 1 35.5 -11.5t10.5 -32.5q-8 -158 -22.5 -290t-25.5 -246q33 2 66 0t68 -4q2 39 2 84t-2 84q14 12 42 12
q21 0 34.5 -12.5t13.5 -35.5q0 -40 -0.5 -84t-0.5 -89.5t0.5 -90t1.5 -84.5q-9 -8 -19.5 -11t-29.5 -3q-15 0 -28.5 11t-14.5 31z" />
    <glyph glyph-name="onehalf" unicode="&#xbd;" horiz-adv-x="1033" 
d="M245 557q-23 0 -32 14.5t-9 33.5q0 76 1 156.5t2.5 162t2.5 162.5t0 158q-36 -40 -61 -65t-42.5 -39t-30 -19t-22.5 -5q-12 0 -22 10t-10 25q0 12 1 18.5t5 14.5q18 16 39.5 35.5t43.5 42t44 46.5t41 48q23 10 50 10q20 0 33.5 -14t13.5 -34q-1 -87 -1 -181.5t0.5 -191
t1 -191.5t2.5 -182q-8 -8 -19.5 -11.5t-31.5 -3.5zM321 -9q-21 1 -34 9t-13 22q0 5 1 13.5t4 19.5q77 318 152.5 635.5t147.5 644.5q6 5 21.5 8.5t32.5 3.5q18 0 34.5 -8t16.5 -21q0 -5 -1 -12.5t-3 -13.5q-80 -326 -154 -644t-147 -641q-9 -7 -24.5 -11.5t-33.5 -4.5z
M1002 41q0 -25 -13.5 -35t-36.5 -10q-30 -1 -67.5 0.5t-76.5 2t-77 0.5t-69 -4q-19 19 -19 57q0 28 14 59q34 72 76 131.5t79 114t62.5 110t25.5 120.5q0 54 -23.5 89.5t-66.5 35.5q-40 0 -71 -24t-50 -51q-24 0 -37 13.5t-13 36.5q0 18 5 30.5t16 23.5q25 27 65 43t86 16
q39 0 71 -15t55.5 -42.5t36.5 -66.5t13 -87q0 -68 -27.5 -129.5t-66.5 -122t-82 -122t-75 -128.5q34 2 69.5 2h69.5t64 1t52 4q11 -24 11 -53z" />
    <glyph glyph-name="threequarters" unicode="&#xbe;" horiz-adv-x="1038" 
d="M346 1156q0 -58 -26.5 -110.5t-72.5 -79.5q54 -23 84 -76t30 -129q0 -46 -13 -83.5t-37.5 -64.5t-59.5 -41.5t-80 -14.5q-29 0 -57.5 5.5t-48.5 16.5q-14 7 -22.5 18t-8.5 32q0 16 10 29t24 18q23 -13 50 -23t58 -10q18 0 35 7t30.5 21t21.5 36.5t8 53.5q0 48 -10.5 79.5
t-28.5 50.5t-41 28.5t-47 12.5q-18 3 -24.5 12.5t-6.5 24.5q0 22 10 33q57 10 95 46.5t38 107.5q0 28 -7.5 50t-20.5 37t-29 23t-34 8q-34 0 -58 -13t-44 -25q-11 0 -24.5 15.5t-13.5 36.5q0 17 7 28t18 19q23 17 49.5 23t56.5 6q45 0 80.5 -16t60 -43.5t37 -65.5t12.5 -83z
M362 -9q-21 1 -34 9t-13 22q0 5 1 13.5t4 19.5q77 318 152.5 635.5t147.5 644.5q6 5 21.5 8.5t32.5 3.5q18 0 34.5 -8t16.5 -21q0 -5 -1 -12.5t-3 -13.5q-80 -326 -154 -644t-147 -641q-9 -7 -24.5 -11.5t-33.5 -4.5zM914 35q0 28 2 52.5t1 51.5q-49 2 -103.5 1.5
t-103.5 -5.5q-9 8 -14.5 15.5t-5.5 23.5q0 11 1 22.5l3 34.5q13 145 26 283t24 283q7 8 18 8.5t21 1.5q23 1 35.5 -11.5t10.5 -32.5q-8 -158 -22.5 -290t-25.5 -246q33 2 66 0t68 -4q2 39 2 84t-2 84q14 12 42 12q21 0 34.5 -12.5t13.5 -35.5q0 -40 -0.5 -84t-0.5 -89.5
t0.5 -90t1.5 -84.5q-9 -8 -19.5 -11t-29.5 -3q-15 0 -28.5 11t-14.5 31z" />
    <glyph glyph-name="questiondown" unicode="&#xbf;" horiz-adv-x="680" 
d="M333 892q-14 0 -28 4.5t-25 14t-18.5 24t-7.5 34.5q0 39 23.5 60.5t58.5 21.5q29 0 50 -21.5t21 -60.5q0 -34 -20 -55t-54 -22zM332 818q36 0 69 -11.5t58 -35t40 -60t15 -85.5q0 -55 -25 -104.5t-62.5 -97.5t-81 -96.5t-81 -101t-62.5 -111t-25 -126.5q0 -98 39 -150.5
t115 -52.5q78 0 122.5 52t44.5 155q9 8 24 16.5t37 8.5q18 0 35.5 -14.5t17.5 -37.5q0 -62 -19.5 -113t-55.5 -88.5t-88.5 -58t-118.5 -20.5t-116.5 23.5t-84 65t-50.5 97t-16 118.5q1 76 26.5 140t64 120t83 105t83 94.5t64 88t25.5 85.5q0 47 -23 74.5t-55 27.5
q-40 0 -63 -30t-23 -94q-14 -12 -43 -12q-23 0 -41 11.5t-18 38.5q0 38 13.5 70.5t38.5 56.5t60 38t77 14z" />
    <glyph glyph-name="Agrave" unicode="&#xc0;" horiz-adv-x="681" 
d="M88 -8q-28 0 -40 19t-7 48q5 32 14 80.5t20 107t24 124t26 132t25.5 131.5t23.5 122q14 74 28 146t28 146t28 152.5t28 166.5q17 13 50 13q24 0 39 -8t19 -28q31 -188 64 -361.5t66 -338t64.5 -320.5t58.5 -309q-8 -11 -22.5 -17.5t-37.5 -6.5q-25 0 -40 11t-20 38
q-10 57 -19.5 113t-20.5 113l-298 -2q-15 -84 -26 -154t-15 -107q-7 -5 -22 -8t-38 -3zM253 613q-10 -54 -22.5 -120.5t-24.5 -135.5l264 6q-39 217 -73 409.5t-57 338.5q-24 -129 -44.5 -252.5t-42.5 -245.5zM376 1455q-29 0 -42 25q-11 22 -25 52.5t-27 62.5t-24.5 63
t-18.5 54q5 11 21.5 20.5t33.5 9.5q19 0 32.5 -6.5t18.5 -23.5q18 -54 43.5 -116.5t48.5 -114.5q-9 -11 -25 -18.5t-36 -7.5z" />
    <glyph glyph-name="Aacute" unicode="&#xc1;" horiz-adv-x="681" 
d="M88 -8q-28 0 -40 19t-7 48q5 32 14 80.5t20 107t24 124t26 132t25.5 131.5t23.5 122q14 74 28 146t28 146t28 152.5t28 166.5q17 13 50 13q24 0 39 -8t19 -28q31 -188 64 -361.5t66 -338t64.5 -320.5t58.5 -309q-8 -11 -22.5 -17.5t-37.5 -6.5q-25 0 -40 11t-20 38
q-10 57 -19.5 113t-20.5 113l-298 -2q-15 -84 -26 -154t-15 -107q-7 -5 -22 -8t-38 -3zM253 613q-10 -54 -22.5 -120.5t-24.5 -135.5l264 6q-39 217 -73 409.5t-57 338.5q-24 -129 -44.5 -252.5t-42.5 -245.5zM309 1453q-22 0 -34 11.5t-12 28.5q0 8 1.5 15t6.5 18
q9 20 21 44.5t26 50.5t27.5 54t25.5 56q14 8 41 8q19 0 32.5 -12.5t13.5 -32.5q0 -5 -0.5 -11.5t-4.5 -15.5q-9 -19 -21.5 -43t-26.5 -51t-27.5 -56t-24.5 -56q-9 -4 -19 -6t-25 -2z" />
    <glyph glyph-name="Acircumflex" unicode="&#xc2;" horiz-adv-x="681" 
d="M88 -8q-28 0 -40 19t-7 48q5 32 14 80.5t20 107t24 124t26 132t25.5 131.5t23.5 122q14 74 28 146t28 146t28 152.5t28 166.5q17 13 50 13q24 0 39 -8t19 -28q31 -188 64 -361.5t66 -338t64.5 -320.5t58.5 -309q-8 -11 -22.5 -17.5t-37.5 -6.5q-25 0 -40 11t-20 38
q-10 57 -19.5 113t-20.5 113l-298 -2q-15 -84 -26 -154t-15 -107q-7 -5 -22 -8t-38 -3zM253 613q-10 -54 -22.5 -120.5t-24.5 -135.5l264 6q-39 217 -73 409.5t-57 338.5q-24 -129 -44.5 -252.5t-42.5 -245.5zM285 1744q12 5 28.5 7.5t32.5 2.5q29 0 43.5 -7.5t20.5 -24.5
q17 -54 42.5 -115t48.5 -112q-9 -11 -24 -18.5t-35 -7.5q-29 0 -41 25q-17 32 -32.5 75t-27.5 81q-19 -38 -41 -84t-39 -87q-9 -4 -18.5 -6t-24.5 -2q-21 0 -32.5 11t-11.5 28q0 13 8 32q9 20 22.5 43.5t27.5 49t28 53t25 56.5z" />
    <glyph glyph-name="Atilde" unicode="&#xc3;" horiz-adv-x="681" 
d="M88 -8q-28 0 -40 19t-7 48q5 32 14 80.5t20 107t24 124t26 132t25.5 131.5t23.5 122q14 74 28 146t28 146t28 152.5t28 166.5q17 13 50 13q24 0 39 -8t19 -28q31 -188 64 -361.5t66 -338t64.5 -320.5t58.5 -309q-8 -11 -22.5 -17.5t-37.5 -6.5q-25 0 -40 11t-20 38
q-10 57 -19.5 113t-20.5 113l-298 -2q-15 -84 -26 -154t-15 -107q-7 -5 -22 -8t-38 -3zM253 613q-10 -54 -22.5 -120.5t-24.5 -135.5l264 6q-39 217 -73 409.5t-57 338.5q-24 -129 -44.5 -252.5t-42.5 -245.5zM431 1492q-28 0 -54 9.5t-49 20.5t-44 20.5t-39 9.5
q-8 0 -17.5 -3t-18.5 -9.5t-15.5 -17t-9.5 -25.5q-11 -8 -32 -8q-22 0 -34.5 14.5t-12.5 36.5q0 25 11.5 44.5t30 33t41.5 21t45 7.5q30 0 56.5 -10t49.5 -22t44 -22t39 -10q19 0 36.5 11t22.5 39q5 3 12 6t20 3q17 0 30 -13.5t13 -36.5q0 -19 -9.5 -37t-26.5 -31.5
t-39.5 -22t-49.5 -8.5z" />
    <glyph glyph-name="Adieresis" unicode="&#xc4;" horiz-adv-x="681" 
d="M88 -8q-28 0 -40 19t-7 48q5 32 14 80.5t20 107t24 124t26 132t25.5 131.5t23.5 122q14 74 28 146t28 146t28 152.5t28 166.5q17 13 50 13q24 0 39 -8t19 -28q31 -188 64 -361.5t66 -338t64.5 -320.5t58.5 -309q-8 -11 -22.5 -17.5t-37.5 -6.5q-25 0 -40 11t-20 38
q-10 57 -19.5 113t-20.5 113l-298 -2q-15 -84 -26 -154t-15 -107q-7 -5 -22 -8t-38 -3zM253 613q-10 -54 -22.5 -120.5t-24.5 -135.5l264 6q-39 217 -73 409.5t-57 338.5q-24 -129 -44.5 -252.5t-42.5 -245.5zM242 1461q-23 0 -36.5 13t-11.5 36q2 38 1.5 73.5t-2.5 77.5
q20 15 53 15q18 0 35 -11t17 -32q0 -38 -1 -78t0 -78q-11 -7 -25 -11.5t-30 -4.5zM418 1462q-23 0 -36 13t-11 36q1 38 0.5 73.5t-2.5 77.5q20 15 53 15q18 0 35 -11t17 -32q0 -38 -1 -78t0 -78q-11 -7 -25 -11.5t-30 -4.5z" />
    <glyph glyph-name="Aring" unicode="&#xc5;" horiz-adv-x="681" 
d="M88 -8q-28 0 -40 19t-7 48q5 32 14 80.5t20 107t24 124t26 132t25.5 131.5t23.5 122q14 74 28 146t28 146t28 152.5t28 166.5q17 13 50 13q24 0 39 -8t19 -28q31 -188 64 -361.5t66 -338t64.5 -320.5t58.5 -309q-8 -11 -22.5 -17.5t-37.5 -6.5q-25 0 -40 11t-20 38
q-10 57 -19.5 113t-20.5 113l-298 -2q-15 -84 -26 -154t-15 -107q-7 -5 -22 -8t-38 -3zM253 613q-10 -54 -22.5 -120.5t-24.5 -135.5l264 6q-39 217 -73 409.5t-57 338.5q-24 -129 -44.5 -252.5t-42.5 -245.5zM338 1457q-29 0 -53.5 11.5t-42 31.5t-27 47t-9.5 59
q0 26 9.5 50.5t27 43.5t42 30.5t53.5 11.5t55.5 -10.5t46 -28.5t31 -42.5t11.5 -52.5q0 -33 -10 -60.5t-28.5 -47.5t-45 -31.5t-60.5 -11.5zM341 1670q-23 0 -41.5 -17.5t-18.5 -48.5q0 -32 17 -53t44 -21q31 0 48.5 20.5t17.5 55.5q0 17 -6.5 29t-16 20t-21.5 11.5t-23 3.5
z" />
    <glyph glyph-name="AE" unicode="&#xc6;" horiz-adv-x="902" 
d="M805 1234q-36 0 -68.5 0.5t-63.5 2t-62.5 3t-66.5 3.5v-543q27 1 58.5 1t62.5 1t59.5 2t49.5 4q13 -16 13 -56q0 -22 -10 -37.5t-34 -15.5q-51 0 -100.5 1.5t-98.5 1.5q0 -128 1 -257t1 -257h74.5t81.5 0.5t80.5 2t71.5 3.5q5 -9 9 -23.5t4 -35.5q0 -23 -13.5 -36.5
t-36.5 -13.5q-85 0 -167.5 1t-160.5 2q-19 0 -31 12t-12 35v236l-256 -1q-15 -86 -26.5 -157.5t-15.5 -109.5q-7 -5 -22 -8t-38 -3q-28 0 -40 19t-7 48q5 32 14 80.5t20 107t24 124t26 132t25.5 131.5t23.5 122q14 74 27 142t26.5 137t26.5 143.5t27 161.5q9 7 29 9.5
t37 2.5q64 0 124.5 -4t120.5 -7.5t121 -5t124 4.5q7 -7 12.5 -18.5t5.5 -34.5q0 -26 -15 -39.5t-35 -13.5zM363 1245q-29 -189 -59 -349.5t-52 -282.5l-46 -250l240 5l-2 313q-1 62 -1.5 139.5l-1 155t-2 148.5t-3.5 121h-73z" />
    <glyph glyph-name="Ccedilla" unicode="&#xc7;" horiz-adv-x="585" 
d="M368 -318q-10 0 -33 2t-46 9t-41 20.5t-18 35.5q0 14 5.5 27.5t19.5 24.5q23 -17 52 -29t61 -12q37 0 54.5 14t17.5 34t-19 33.5t-54 13.5q-11 0 -21.5 -0.5t-16.5 -2.5q-7 16 -8.5 29t0 27t3.5 32t2 44q-66 8 -115.5 53.5t-81.5 134t-48 223.5t-16 321q0 152 24 272
t65 203t97 127t121 44q38 0 74 -8.5t58 -23.5q16 -10 22.5 -24t6.5 -34q0 -19 -10.5 -36t-25.5 -22q-20 13 -48 23t-73 10q-15 0 -36 -7t-44 -27t-46 -56.5t-41 -96t-29 -144.5t-11 -203q0 -125 7 -219t19.5 -162.5t30.5 -113.5t40 -72t47.5 -38t53.5 -11q47 0 80 10.5
t59 30.5q16 -3 29.5 -23t13.5 -40q0 -21 -9 -33t-26 -23q-18 -14 -49.5 -22.5t-66.5 -12.5q-3 -32 0 -67q53 -2 87.5 -31t34.5 -84q0 -51 -41 -85.5t-111 -34.5z" />
    <glyph glyph-name="Egrave" unicode="&#xc8;" horiz-adv-x="562" 
d="M203 1247q0 -133 -0.5 -268.5t0.5 -268.5q28 1 59 1t62 1t59 2t50 4q12 -17 12 -55q0 -23 -9.5 -38.5t-34.5 -15.5q-49 0 -99 1.5t-99 2.5q0 -129 1 -258t1 -257h74t81.5 1t80.5 2.5t71 3.5q5 -10 9 -24.5t4 -35.5q0 -23 -13.5 -36t-36.5 -13q-85 0 -167 0.5t-160 1.5
q-20 0 -32 12t-12 35v322t-2 324q0 52 -0.5 114.5t-1 128t-1.5 129t-2 117.5t-3 94t-5 57q15 16 57 16q81 0 170.5 -2.5t179.5 5.5q7 -7 12 -18t5 -34q0 -26 -14.5 -39.5t-34.5 -14.5q-66 0 -132 0.5t-129 2.5zM336 1445q-29 0 -42 25q-11 22 -25 52.5t-27 62.5t-24.5 63
t-18.5 54q5 11 21.5 20.5t33.5 9.5q19 0 32.5 -6.5t18.5 -23.5q18 -54 43.5 -116.5t48.5 -114.5q-9 -11 -25 -18.5t-36 -7.5z" />
    <glyph glyph-name="Eacute" unicode="&#xc9;" horiz-adv-x="562" 
d="M203 1247q0 -133 -0.5 -268.5t0.5 -268.5q28 1 59 1t62 1t59 2t50 4q12 -17 12 -55q0 -23 -9.5 -38.5t-34.5 -15.5q-49 0 -99 1.5t-99 2.5q0 -129 1 -258t1 -257h74t81.5 1t80.5 2.5t71 3.5q5 -10 9 -24.5t4 -35.5q0 -23 -13.5 -36t-36.5 -13q-85 0 -167 0.5t-160 1.5
q-20 0 -32 12t-12 35v322t-2 324q0 52 -0.5 114.5t-1 128t-1.5 129t-2 117.5t-3 94t-5 57q15 16 57 16q81 0 170.5 -2.5t179.5 5.5q7 -7 12 -18t5 -34q0 -26 -14.5 -39.5t-34.5 -14.5q-66 0 -132 0.5t-129 2.5zM269 1443q-22 0 -34 11.5t-12 28.5q0 8 1.5 15t6.5 18
q9 20 21 44.5t26 50.5t27.5 54t25.5 56q14 8 41 8q19 0 32.5 -12.5t13.5 -32.5q0 -5 -0.5 -11.5t-4.5 -15.5q-9 -19 -21.5 -43t-26.5 -51t-27.5 -56t-24.5 -56q-9 -4 -19 -6t-25 -2z" />
    <glyph glyph-name="Ecircumflex" unicode="&#xca;" horiz-adv-x="562" 
d="M203 1247q0 -133 -0.5 -268.5t0.5 -268.5q28 1 59 1t62 1t59 2t50 4q12 -17 12 -55q0 -23 -9.5 -38.5t-34.5 -15.5q-49 0 -99 1.5t-99 2.5q0 -129 1 -258t1 -257h74t81.5 1t80.5 2.5t71 3.5q5 -10 9 -24.5t4 -35.5q0 -23 -13.5 -36t-36.5 -13q-85 0 -167 0.5t-160 1.5
q-20 0 -32 12t-12 35v322t-2 324q0 52 -0.5 114.5t-1 128t-1.5 129t-2 117.5t-3 94t-5 57q15 16 57 16q81 0 170.5 -2.5t179.5 5.5q7 -7 12 -18t5 -34q0 -26 -14.5 -39.5t-34.5 -14.5q-66 0 -132 0.5t-129 2.5zM245 1734q12 5 28.5 7.5t32.5 2.5q29 0 43.5 -7.5t20.5 -24.5
q17 -54 42.5 -115t48.5 -112q-9 -11 -24 -18.5t-35 -7.5q-29 0 -41 25q-17 32 -32.5 75t-27.5 81q-19 -38 -41 -84t-39 -87q-9 -4 -18.5 -6t-24.5 -2q-21 0 -32.5 11t-11.5 28q0 13 8 32q9 20 22.5 43.5t27.5 49t28 53t25 56.5z" />
    <glyph glyph-name="Edieresis" unicode="&#xcb;" horiz-adv-x="562" 
d="M203 1247q0 -133 -0.5 -268.5t0.5 -268.5q28 1 59 1t62 1t59 2t50 4q12 -17 12 -55q0 -23 -9.5 -38.5t-34.5 -15.5q-49 0 -99 1.5t-99 2.5q0 -129 1 -258t1 -257h74t81.5 1t80.5 2.5t71 3.5q5 -10 9 -24.5t4 -35.5q0 -23 -13.5 -36t-36.5 -13q-85 0 -167 0.5t-160 1.5
q-20 0 -32 12t-12 35v322t-2 324q0 52 -0.5 114.5t-1 128t-1.5 129t-2 117.5t-3 94t-5 57q15 16 57 16q81 0 170.5 -2.5t179.5 5.5q7 -7 12 -18t5 -34q0 -26 -14.5 -39.5t-34.5 -14.5q-66 0 -132 0.5t-129 2.5zM202 1451q-23 0 -36.5 13t-11.5 36q2 38 1.5 73.5t-2.5 77.5
q20 15 53 15q18 0 35 -11t17 -32q0 -38 -1 -78t0 -78q-11 -7 -25 -11.5t-30 -4.5zM378 1452q-23 0 -36 13t-11 36q1 38 0.5 73.5t-2.5 77.5q20 15 53 15q18 0 35 -11t17 -32q0 -38 -1 -78t0 -78q-11 -7 -25 -11.5t-30 -4.5z" />
    <glyph glyph-name="Igrave" unicode="&#xcc;" horiz-adv-x="312" 
d="M161 -16q-26 0 -41.5 15t-15.5 46q0 178 0.5 346.5t-0.5 340.5q0 78 -1 159t-2.5 160t-3.5 153t-6 137q12 7 28.5 10t32.5 3q26 0 40.5 -15.5t15.5 -52.5q0 -58 -0.5 -124t-0.5 -138v-148v-153q1 -183 5.5 -369t5.5 -356q-12 -6 -26 -10t-31 -4zM186 1445q-29 0 -42 25
q-11 22 -25 52.5t-27 62.5t-24.5 63t-18.5 54q5 11 21.5 20.5t33.5 9.5q19 0 32.5 -6.5t18.5 -23.5q18 -54 43.5 -116.5t48.5 -114.5q-9 -11 -25 -18.5t-36 -7.5z" />
    <glyph glyph-name="Iacute" unicode="&#xcd;" horiz-adv-x="312" 
d="M161 -16q-26 0 -41.5 15t-15.5 46q0 178 0.5 346.5t-0.5 340.5q0 78 -1 159t-2.5 160t-3.5 153t-6 137q12 7 28.5 10t32.5 3q26 0 40.5 -15.5t15.5 -52.5q0 -58 -0.5 -124t-0.5 -138v-148v-153q1 -183 5.5 -369t5.5 -356q-12 -6 -26 -10t-31 -4zM119 1443q-22 0 -34 11.5
t-12 28.5q0 8 1.5 15t6.5 18q9 20 21 44.5t26 50.5t27.5 54t25.5 56q14 8 41 8q19 0 32.5 -12.5t13.5 -32.5q0 -5 -0.5 -11.5t-4.5 -15.5q-9 -19 -21.5 -43t-26.5 -51t-27.5 -56t-24.5 -56q-9 -4 -19 -6t-25 -2z" />
    <glyph glyph-name="Icircumflex" unicode="&#xce;" horiz-adv-x="312" 
d="M161 -16q-26 0 -41.5 15t-15.5 46q0 178 0.5 346.5t-0.5 340.5q0 78 -1 159t-2.5 160t-3.5 153t-6 137q12 7 28.5 10t32.5 3q26 0 40.5 -15.5t15.5 -52.5q0 -58 -0.5 -124t-0.5 -138v-148v-153q1 -183 5.5 -369t5.5 -356q-12 -6 -26 -10t-31 -4zM95 1734q12 5 28.5 7.5
t32.5 2.5q29 0 43.5 -7.5t20.5 -24.5q17 -54 42.5 -115t48.5 -112q-9 -11 -24 -18.5t-35 -7.5q-29 0 -41 25q-17 32 -32.5 75t-27.5 81q-19 -38 -41 -84t-39 -87q-9 -4 -18.5 -6t-24.5 -2q-21 0 -32.5 11t-11.5 28q0 13 8 32q9 20 22.5 43.5t27.5 49t28 53t25 56.5z" />
    <glyph glyph-name="Idieresis" unicode="&#xcf;" horiz-adv-x="312" 
d="M161 -16q-26 0 -41.5 15t-15.5 46q0 178 0.5 346.5t-0.5 340.5q0 78 -1 159t-2.5 160t-3.5 153t-6 137q12 7 28.5 10t32.5 3q26 0 40.5 -15.5t15.5 -52.5q0 -58 -0.5 -124t-0.5 -138v-148v-153q1 -183 5.5 -369t5.5 -356q-12 -6 -26 -10t-31 -4zM52 1451q-23 0 -36.5 13
t-11.5 36q2 38 1.5 73.5t-2.5 77.5q20 15 53 15q18 0 35 -11t17 -32q0 -38 -1 -78t0 -78q-11 -7 -25 -11.5t-30 -4.5zM228 1452q-23 0 -36 13t-11 36q1 38 0.5 73.5t-2.5 77.5q20 15 53 15q18 0 35 -11t17 -32q0 -38 -1 -78t0 -78q-11 -7 -25 -11.5t-30 -4.5z" />
    <glyph glyph-name="Eth" unicode="&#xd0;" horiz-adv-x="678" 
d="M165 -2q-24 -1 -38.5 13t-14.5 40q-1 141 -1 284t-2 280h-88q-17 -1 -31 14t-14 40q0 21 3.5 31.5t11.5 20.5q32 -2 60.5 -3t55.5 -1q-1 73 -2 155.5t-3 164.5t-5.5 160.5t-8.5 144.5q13 7 32.5 11.5t45.5 4.5q112 0 195 -51.5t138 -147.5t82 -233.5t27 -308.5
q0 -172 -27.5 -288t-82.5 -188t-138.5 -105t-194.5 -38zM347 668q0 -20 -3.5 -32.5t-9.5 -22.5q-62 3 -123 3q0 -66 0.5 -135.5t0.5 -135t0.5 -123.5t1.5 -102q80 4 135 30.5t88.5 84t48 150t14.5 228.5q0 304 -78 461.5t-219 161.5q0 -39 1 -98.5t2 -129t2.5 -144
t1.5 -142.5v-5q23 0 46.5 0.5t49.5 1.5q18 0 29.5 -14t11.5 -37z" />
    <glyph glyph-name="Ntilde" unicode="&#xd1;" horiz-adv-x="770" 
d="M158 -14q-27 0 -41.5 15t-14.5 42q2 163 2 328t-1.5 329.5t-3.5 327t-3 318.5q12 6 25 9t32 3q29 0 44 -15.5t24 -41.5q89 -264 175 -516t175 -491q-1 183 -6.5 354t-10.5 336q-1 34 -2.5 81t-3 96.5t-3 96.5t-1.5 81q26 18 60 18q26 0 40.5 -11t15.5 -37q1 -50 1.5 -91
t0.5 -89q2 -272 4 -557.5t8 -563.5q-8 -8 -21 -12.5t-32 -4.5q-26 0 -38 10.5t-20 30.5q-42 123 -88.5 253t-93.5 261t-93.5 261.5t-88.5 253.5q1 -292 9.5 -553.5t8.5 -502.5q-10 -8 -21.5 -13.5t-37.5 -5.5zM464 1482q-28 0 -54 9.5t-49 20.5t-44 20.5t-39 9.5
q-8 0 -17.5 -3t-18.5 -9.5t-15.5 -17t-9.5 -25.5q-11 -8 -32 -8q-22 0 -34.5 14.5t-12.5 36.5q0 25 11.5 44.5t30 33t41.5 21t45 7.5q30 0 56.5 -10t49.5 -22t44 -22t39 -10q19 0 36.5 11t22.5 39q5 3 12 6t20 3q17 0 30 -13.5t13 -36.5q0 -19 -9.5 -37t-26.5 -31.5
t-39.5 -22t-49.5 -8.5z" />
    <glyph glyph-name="Ograve" unicode="&#xd2;" horiz-adv-x="687" 
d="M335 -16q-57 0 -106.5 35t-85.5 111.5t-57 198.5t-21 297q0 369 70.5 551.5t215.5 182.5q68 0 119 -54.5t84.5 -151t50.5 -230t17 -292.5q0 -161 -20 -282t-57 -202.5t-90 -122.5t-120 -41zM334 1234q-78 0 -119 -144t-41 -448q0 -141 13 -243t36 -168t54.5 -97t69.5 -31
q39 0 70 36.5t52 103t32.5 158.5t11.5 203q0 153 -14 270.5t-38 197.5t-56.5 121t-70.5 41zM384 1445q-29 0 -42 25q-11 22 -25 52.5t-27 62.5t-24.5 63t-18.5 54q5 11 21.5 20.5t33.5 9.5q19 0 32.5 -6.5t18.5 -23.5q18 -54 43.5 -116.5t48.5 -114.5q-9 -11 -25 -18.5
t-36 -7.5z" />
    <glyph glyph-name="Oacute" unicode="&#xd3;" horiz-adv-x="687" 
d="M335 -16q-57 0 -106.5 35t-85.5 111.5t-57 198.5t-21 297q0 369 70.5 551.5t215.5 182.5q68 0 119 -54.5t84.5 -151t50.5 -230t17 -292.5q0 -161 -20 -282t-57 -202.5t-90 -122.5t-120 -41zM334 1234q-78 0 -119 -144t-41 -448q0 -141 13 -243t36 -168t54.5 -97t69.5 -31
q39 0 70 36.5t52 103t32.5 158.5t11.5 203q0 153 -14 270.5t-38 197.5t-56.5 121t-70.5 41zM318 1443q-22 0 -34 11.5t-12 28.5q0 8 1.5 15t6.5 18q9 20 21 44.5t26 50.5t27.5 54t25.5 56q14 8 41 8q19 0 32.5 -12.5t13.5 -32.5q0 -5 -0.5 -11.5t-4.5 -15.5
q-9 -19 -21.5 -43t-26.5 -51t-27.5 -56t-24.5 -56q-9 -4 -19 -6t-25 -2z" />
    <glyph glyph-name="Ocircumflex" unicode="&#xd4;" horiz-adv-x="687" 
d="M335 -16q-57 0 -106.5 35t-85.5 111.5t-57 198.5t-21 297q0 369 70.5 551.5t215.5 182.5q68 0 119 -54.5t84.5 -151t50.5 -230t17 -292.5q0 -161 -20 -282t-57 -202.5t-90 -122.5t-120 -41zM334 1234q-78 0 -119 -144t-41 -448q0 -141 13 -243t36 -168t54.5 -97t69.5 -31
q39 0 70 36.5t52 103t32.5 158.5t11.5 203q0 153 -14 270.5t-38 197.5t-56.5 121t-70.5 41zM293 1734q12 5 28.5 7.5t32.5 2.5q29 0 43.5 -7.5t20.5 -24.5q17 -54 42.5 -115t48.5 -112q-9 -11 -24 -18.5t-35 -7.5q-29 0 -41 25q-17 32 -32.5 75t-27.5 81q-19 -38 -41 -84
t-39 -87q-9 -4 -18.5 -6t-24.5 -2q-21 0 -32.5 11t-11.5 28q0 13 8 32q9 20 22.5 43.5t27.5 49t28 53t25 56.5z" />
    <glyph glyph-name="Otilde" unicode="&#xd5;" horiz-adv-x="687" 
d="M335 -16q-57 0 -106.5 35t-85.5 111.5t-57 198.5t-21 297q0 369 70.5 551.5t215.5 182.5q68 0 119 -54.5t84.5 -151t50.5 -230t17 -292.5q0 -161 -20 -282t-57 -202.5t-90 -122.5t-120 -41zM334 1234q-78 0 -119 -144t-41 -448q0 -141 13 -243t36 -168t54.5 -97t69.5 -31
q39 0 70 36.5t52 103t32.5 158.5t11.5 203q0 153 -14 270.5t-38 197.5t-56.5 121t-70.5 41zM440 1482q-28 0 -54 9.5t-49 20.5t-44 20.5t-39 9.5q-8 0 -17.5 -3t-18.5 -9.5t-15.5 -17t-9.5 -25.5q-11 -8 -32 -8q-22 0 -34.5 14.5t-12.5 36.5q0 25 11.5 44.5t30 33t41.5 21
t45 7.5q30 0 56.5 -10t49.5 -22t44 -22t39 -10q19 0 36.5 11t22.5 39q5 3 12 6t20 3q17 0 30 -13.5t13 -36.5q0 -19 -9.5 -37t-26.5 -31.5t-39.5 -22t-49.5 -8.5z" />
    <glyph glyph-name="Odieresis" unicode="&#xd6;" horiz-adv-x="687" 
d="M335 -16q-57 0 -106.5 35t-85.5 111.5t-57 198.5t-21 297q0 369 70.5 551.5t215.5 182.5q68 0 119 -54.5t84.5 -151t50.5 -230t17 -292.5q0 -161 -20 -282t-57 -202.5t-90 -122.5t-120 -41zM334 1234q-78 0 -119 -144t-41 -448q0 -141 13 -243t36 -168t54.5 -97t69.5 -31
q39 0 70 36.5t52 103t32.5 158.5t11.5 203q0 153 -14 270.5t-38 197.5t-56.5 121t-70.5 41zM251 1451q-23 0 -36.5 13t-11.5 36q2 38 1.5 73.5t-2.5 77.5q20 15 53 15q18 0 35 -11t17 -32q0 -38 -1 -78t0 -78q-11 -7 -25 -11.5t-30 -4.5zM427 1452q-23 0 -36 13t-11 36
q1 38 0.5 73.5t-2.5 77.5q20 15 53 15q18 0 35 -11t17 -32q0 -38 -1 -78t0 -78q-11 -7 -25 -11.5t-30 -4.5z" />
    <glyph glyph-name="Oslash" unicode="&#xd8;" horiz-adv-x="687" 
d="M335 -16q-41 0 -81 19l-53 -222q-11 -8 -24 -13t-30 -5q-18 0 -29 7t-11 21q0 11 1.5 17.5t3.5 12.5l60 258q-49 72 -78 205.5t-29 341.5q0 369 70.5 551.5t215.5 182.5q32 0 60.5 -13t53.5 -37l46 201q14 14 49 14q17 0 30.5 -10t13.5 -24q0 -4 -1 -9.5t-2 -10.5
q-17 -67 -32.5 -134.5t-32.5 -136.5q43 -98 64.5 -243t21.5 -325q0 -161 -20 -282t-57 -202.5t-90 -122.5t-120 -41zM334 1234q-78 0 -119 -144t-41 -448q0 -130 10.5 -225t29.5 -161q54 224 107.5 448.5t106.5 450.5q-41 79 -94 79zM283 128q29 -25 64 -25q39 0 70 36.5
t52 103t32.5 158.5t11.5 203q0 114 -8 207.5t-22 167.5z" />
    <glyph glyph-name="Ugrave" unicode="&#xd9;" horiz-adv-x="709" 
d="M369 -13q-57 0 -105.5 19t-84.5 55.5t-57 90t-22 121.5q-1 88 -1 186.5t0.5 199.5t1 200t0.5 188t-0.5 164.5t-1.5 128.5q12 7 24.5 9.5t33.5 2.5q20 0 36 -10.5t16 -32.5q0 -47 -0.5 -114.5t-1.5 -148.5t-2.5 -171.5t-2.5 -184.5t-1.5 -188t-0.5 -181
q0 -113 43.5 -171.5t123.5 -58.5q40 0 66.5 18.5t42.5 56.5t22.5 95t6.5 134q1 142 -0.5 277t-3.5 256.5t-3.5 227t-1.5 188.5q11 6 20 8.5t32 2.5q26 0 41.5 -11.5t15.5 -32.5q0 -98 0.5 -211.5t1 -234t1 -242.5t0.5 -237q0 -205 -59.5 -302t-179.5 -97zM382 1446
q-29 0 -42 25q-11 22 -25 52.5t-27 62.5t-24.5 63t-18.5 54q5 11 21.5 20.5t33.5 9.5q19 0 32.5 -6.5t18.5 -23.5q18 -54 43.5 -116.5t48.5 -114.5q-9 -11 -25 -18.5t-36 -7.5z" />
    <glyph glyph-name="Uacute" unicode="&#xda;" horiz-adv-x="709" 
d="M369 -13q-57 0 -105.5 19t-84.5 55.5t-57 90t-22 121.5q-1 88 -1 186.5t0.5 199.5t1 200t0.5 188t-0.5 164.5t-1.5 128.5q12 7 24.5 9.5t33.5 2.5q20 0 36 -10.5t16 -32.5q0 -47 -0.5 -114.5t-1.5 -148.5t-2.5 -171.5t-2.5 -184.5t-1.5 -188t-0.5 -181
q0 -113 43.5 -171.5t123.5 -58.5q40 0 66.5 18.5t42.5 56.5t22.5 95t6.5 134q1 142 -0.5 277t-3.5 256.5t-3.5 227t-1.5 188.5q11 6 20 8.5t32 2.5q26 0 41.5 -11.5t15.5 -32.5q0 -98 0.5 -211.5t1 -234t1 -242.5t0.5 -237q0 -205 -59.5 -302t-179.5 -97zM316 1444
q-22 0 -34 11.5t-12 28.5q0 8 1.5 15t6.5 18q9 20 21 44.5t26 50.5t27.5 54t25.5 56q14 8 41 8q19 0 32.5 -12.5t13.5 -32.5q0 -5 -0.5 -11.5t-4.5 -15.5q-9 -19 -21.5 -43t-26.5 -51t-27.5 -56t-24.5 -56q-9 -4 -19 -6t-25 -2z" />
    <glyph glyph-name="Ucircumflex" unicode="&#xdb;" horiz-adv-x="709" 
d="M369 -13q-57 0 -105.5 19t-84.5 55.5t-57 90t-22 121.5q-1 88 -1 186.5t0.5 199.5t1 200t0.5 188t-0.5 164.5t-1.5 128.5q12 7 24.5 9.5t33.5 2.5q20 0 36 -10.5t16 -32.5q0 -47 -0.5 -114.5t-1.5 -148.5t-2.5 -171.5t-2.5 -184.5t-1.5 -188t-0.5 -181
q0 -113 43.5 -171.5t123.5 -58.5q40 0 66.5 18.5t42.5 56.5t22.5 95t6.5 134q1 142 -0.5 277t-3.5 256.5t-3.5 227t-1.5 188.5q11 6 20 8.5t32 2.5q26 0 41.5 -11.5t15.5 -32.5q0 -98 0.5 -211.5t1 -234t1 -242.5t0.5 -237q0 -205 -59.5 -302t-179.5 -97zM292 1735
q12 5 28.5 7.5t32.5 2.5q29 0 43.5 -7.5t20.5 -24.5q17 -54 42.5 -115t48.5 -112q-9 -11 -24 -18.5t-35 -7.5q-29 0 -41 25q-17 32 -32.5 75t-27.5 81q-19 -38 -41 -84t-39 -87q-9 -4 -18.5 -6t-24.5 -2q-21 0 -32.5 11t-11.5 28q0 13 8 32q9 20 22.5 43.5t27.5 49t28 53
t25 56.5z" />
    <glyph glyph-name="Udieresis" unicode="&#xdc;" horiz-adv-x="709" 
d="M369 -13q-57 0 -105.5 19t-84.5 55.5t-57 90t-22 121.5q-1 88 -1 186.5t0.5 199.5t1 200t0.5 188t-0.5 164.5t-1.5 128.5q12 7 24.5 9.5t33.5 2.5q20 0 36 -10.5t16 -32.5q0 -47 -0.5 -114.5t-1.5 -148.5t-2.5 -171.5t-2.5 -184.5t-1.5 -188t-0.5 -181
q0 -113 43.5 -171.5t123.5 -58.5q40 0 66.5 18.5t42.5 56.5t22.5 95t6.5 134q1 142 -0.5 277t-3.5 256.5t-3.5 227t-1.5 188.5q11 6 20 8.5t32 2.5q26 0 41.5 -11.5t15.5 -32.5q0 -98 0.5 -211.5t1 -234t1 -242.5t0.5 -237q0 -205 -59.5 -302t-179.5 -97zM249 1452
q-23 0 -36.5 13t-11.5 36q2 38 1.5 73.5t-2.5 77.5q20 15 53 15q18 0 35 -11t17 -32q0 -38 -1 -78t0 -78q-11 -7 -25 -11.5t-30 -4.5zM425 1453q-23 0 -36 13t-11 36q1 38 0.5 73.5t-2.5 77.5q20 15 53 15q18 0 35 -11t17 -32q0 -38 -1 -78t0 -78q-11 -7 -25 -11.5t-30 -4.5
z" />
    <glyph glyph-name="Yacute" unicode="&#xdd;" horiz-adv-x="619" 
d="M589 1267q-28 -79 -57 -163.5t-57.5 -171t-56 -173.5t-52.5 -170q2 -146 6.5 -287.5t4.5 -293.5q-9 -8 -21.5 -13.5t-39.5 -5.5q-20 0 -37 15t-18 39q0 72 0.5 137t1 129.5t0.5 130t-2 139.5q-19 59 -39 126t-40.5 137t-41.5 139t-41 132.5t-39 118t-36 94.5
q9 11 28.5 19t42.5 8q24 0 37.5 -10t19.5 -34q18 -65 37.5 -139.5t40 -150.5t42 -149t43.5 -136q27 79 50 158.5t44.5 157.5t43 153.5t45.5 145.5q15 7 42 7q15 0 25.5 -5.5t17 -13.5t9 -17.5t2.5 -17.5q0 -22 -5 -35zM292 1444q-22 0 -34 11.5t-12 28.5q0 8 1.5 15t6.5 18
q9 20 21 44.5t26 50.5t27.5 54t25.5 56q14 8 41 8q19 0 32.5 -12.5t13.5 -32.5q0 -5 -0.5 -11.5t-4.5 -15.5q-9 -19 -21.5 -43t-26.5 -51t-27.5 -56t-24.5 -56q-9 -4 -19 -6t-25 -2z" />
    <glyph glyph-name="Thorn" unicode="&#xde;" horiz-adv-x="624" 
d="M167 -16q-26 0 -41.5 15t-15.5 46q0 178 0.5 346.5t-0.5 340.5q0 78 -1 159t-2.5 160t-3.5 153t-6 137q12 7 29 10t32 3q26 0 40.5 -15.5t15.5 -52.5v-138q174 -18 263.5 -135.5t89.5 -338.5q0 -113 -26 -200t-72 -148t-109.5 -95t-137.5 -42l2 -191q-12 -6 -26 -10
t-31 -4zM459 684q0 165 -62 254.5t-184 107.5q-2 -155 0 -323q0 -107 2.5 -215.5t4.5 -216.5q120 17 179.5 116t59.5 277z" />
    <glyph glyph-name="germandbls" unicode="&#xdf;" horiz-adv-x="689" 
d="M160 -16q-26 0 -41.5 10.5t-14.5 39.5q1 41 1.5 101t1 132.5t0 153.5t-1 163t-1.5 161.5t-1.5 149t-1 125.5t-0.5 91q0 167 54.5 252t176.5 85q54 0 97 -19.5t73.5 -56t46.5 -88.5t16 -116q0 -51 -9.5 -90.5t-24.5 -73t-31.5 -63t-31.5 -60t-24.5 -64t-9.5 -75.5
q0 -40 15 -69.5t38 -57t49.5 -56t49.5 -64t38 -83t15 -112.5q0 -84 -19.5 -143.5t-51 -98t-73 -56t-84.5 -17.5q-21 0 -41.5 3t-36.5 10t-25.5 18.5t-9.5 27.5q0 18 6 31t14 21q18 -8 42 -13t41 -5q59 0 98 57t39 164q0 52 -15.5 91t-39 71.5t-50.5 61t-50.5 60.5t-39 70
t-15.5 89q0 47 9.5 85.5t24 71.5t31.5 63.5t31.5 62.5t24 67t9.5 78q0 83 -33 130t-89 47q-35 0 -59.5 -14.5t-39.5 -45.5t-22 -80t-8 -118q-3 -80 -3 -181t1.5 -208.5t3.5 -215t3.5 -202t1.5 -169.5t-3 -117q-12 -12 -51 -12z" />
    <glyph glyph-name="agrave" unicode="&#xe0;" horiz-adv-x="592" 
d="M409 35q0 3 0.5 15t1 29.5t1 39t1.5 43.5q-13 -37 -31.5 -68.5t-42 -55t-50.5 -36.5t-57 -13q-35 0 -65.5 16t-53 51.5t-35.5 92t-13 137.5q0 159 82.5 243.5t255.5 88.5q0 49 0.5 87.5t0.5 55.5q0 87 -31 136.5t-97 49.5q-89 0 -110 -113q-38 -12 -61.5 5t-23.5 54
q0 33 13.5 56.5t30.5 38.5q23 26 63.5 42.5t84.5 16.5q111 0 174.5 -66t60.5 -195q-1 -30 -1.5 -94t0 -144t1 -167.5t1.5 -165t2.5 -135.5t2.5 -80q-10 -7 -21 -10.5t-32 -3.5q-23 0 -37.5 11.5t-14.5 37.5zM404 349q-1 43 -1 89.5v92.5q-65 -4 -111.5 -19.5t-75.5 -45.5
t-42.5 -75t-13.5 -106q0 -91 27 -142t72 -51q30 0 56.5 19.5t46.5 54t31.5 81.5t10.5 102zM321 1128q-29 0 -42 25q-11 22 -25 52.5t-27 62.5t-24.5 63t-18.5 54q5 11 21.5 20.5t33.5 9.5q19 0 32.5 -6.5t18.5 -23.5q18 -54 43.5 -116.5t48.5 -114.5q-9 -11 -25 -18.5
t-36 -7.5z" />
    <glyph glyph-name="aacute" unicode="&#xe1;" horiz-adv-x="592" 
d="M409 35q0 3 0.5 15t1 29.5t1 39t1.5 43.5q-13 -37 -31.5 -68.5t-42 -55t-50.5 -36.5t-57 -13q-35 0 -65.5 16t-53 51.5t-35.5 92t-13 137.5q0 159 82.5 243.5t255.5 88.5q0 49 0.5 87.5t0.5 55.5q0 87 -31 136.5t-97 49.5q-89 0 -110 -113q-38 -12 -61.5 5t-23.5 54
q0 33 13.5 56.5t30.5 38.5q23 26 63.5 42.5t84.5 16.5q111 0 174.5 -66t60.5 -195q-1 -30 -1.5 -94t0 -144t1 -167.5t1.5 -165t2.5 -135.5t2.5 -80q-10 -7 -21 -10.5t-32 -3.5q-23 0 -37.5 11.5t-14.5 37.5zM404 349q-1 43 -1 89.5v92.5q-65 -4 -111.5 -19.5t-75.5 -45.5
t-42.5 -75t-13.5 -106q0 -91 27 -142t72 -51q30 0 56.5 19.5t46.5 54t31.5 81.5t10.5 102zM254 1126q-22 0 -34 11.5t-12 28.5q0 8 1.5 15t6.5 18q9 20 21 44.5t26 50.5t27.5 54t25.5 56q14 8 41 8q19 0 32.5 -12.5t13.5 -32.5q0 -5 -0.5 -11.5t-4.5 -15.5q-9 -19 -21.5 -43
t-26.5 -51t-27.5 -56t-24.5 -56q-9 -4 -19 -6t-25 -2z" />
    <glyph glyph-name="acircumflex" unicode="&#xe2;" horiz-adv-x="592" 
d="M409 35q0 3 0.5 15t1 29.5t1 39t1.5 43.5q-13 -37 -31.5 -68.5t-42 -55t-50.5 -36.5t-57 -13q-35 0 -65.5 16t-53 51.5t-35.5 92t-13 137.5q0 159 82.5 243.5t255.5 88.5q0 49 0.5 87.5t0.5 55.5q0 87 -31 136.5t-97 49.5q-89 0 -110 -113q-38 -12 -61.5 5t-23.5 54
q0 33 13.5 56.5t30.5 38.5q23 26 63.5 42.5t84.5 16.5q111 0 174.5 -66t60.5 -195q-1 -30 -1.5 -94t0 -144t1 -167.5t1.5 -165t2.5 -135.5t2.5 -80q-10 -7 -21 -10.5t-32 -3.5q-23 0 -37.5 11.5t-14.5 37.5zM404 349q-1 43 -1 89.5v92.5q-65 -4 -111.5 -19.5t-75.5 -45.5
t-42.5 -75t-13.5 -106q0 -91 27 -142t72 -51q30 0 56.5 19.5t46.5 54t31.5 81.5t10.5 102zM230 1417q12 5 28.5 7.5t32.5 2.5q29 0 43.5 -7.5t20.5 -24.5q17 -54 42.5 -115t48.5 -112q-9 -11 -24 -18.5t-35 -7.5q-29 0 -41 25q-17 32 -32.5 75t-27.5 81q-19 -38 -41 -84
t-39 -87q-9 -4 -18.5 -6t-24.5 -2q-21 0 -32.5 11t-11.5 28q0 13 8 32q9 20 22.5 43.5t27.5 49t28 53t25 56.5z" />
    <glyph glyph-name="atilde" unicode="&#xe3;" horiz-adv-x="592" 
d="M409 35q0 3 0.5 15t1 29.5t1 39t1.5 43.5q-13 -37 -31.5 -68.5t-42 -55t-50.5 -36.5t-57 -13q-35 0 -65.5 16t-53 51.5t-35.5 92t-13 137.5q0 159 82.5 243.5t255.5 88.5q0 49 0.5 87.5t0.5 55.5q0 87 -31 136.5t-97 49.5q-89 0 -110 -113q-38 -12 -61.5 5t-23.5 54
q0 33 13.5 56.5t30.5 38.5q23 26 63.5 42.5t84.5 16.5q111 0 174.5 -66t60.5 -195q-1 -30 -1.5 -94t0 -144t1 -167.5t1.5 -165t2.5 -135.5t2.5 -80q-10 -7 -21 -10.5t-32 -3.5q-23 0 -37.5 11.5t-14.5 37.5zM404 349q-1 43 -1 89.5v92.5q-65 -4 -111.5 -19.5t-75.5 -45.5
t-42.5 -75t-13.5 -106q0 -91 27 -142t72 -51q30 0 56.5 19.5t46.5 54t31.5 81.5t10.5 102zM376 1165q-28 0 -54 9.5t-49 20.5t-44 20.5t-39 9.5q-8 0 -17.5 -3t-18.5 -9.5t-15.5 -17t-9.5 -25.5q-11 -8 -32 -8q-22 0 -34.5 14.5t-12.5 36.5q0 25 11.5 44.5t30 33t41.5 21
t45 7.5q30 0 56.5 -10t49.5 -22t44 -22t39 -10q19 0 36.5 11t22.5 39q5 3 12 6t20 3q17 0 30 -13.5t13 -36.5q0 -19 -9.5 -37t-26.5 -31.5t-39.5 -22t-49.5 -8.5z" />
    <glyph glyph-name="adieresis" unicode="&#xe4;" horiz-adv-x="592" 
d="M409 35q0 3 0.5 15t1 29.5t1 39t1.5 43.5q-13 -37 -31.5 -68.5t-42 -55t-50.5 -36.5t-57 -13q-35 0 -65.5 16t-53 51.5t-35.5 92t-13 137.5q0 159 82.5 243.5t255.5 88.5q0 49 0.5 87.5t0.5 55.5q0 87 -31 136.5t-97 49.5q-89 0 -110 -113q-38 -12 -61.5 5t-23.5 54
q0 33 13.5 56.5t30.5 38.5q23 26 63.5 42.5t84.5 16.5q111 0 174.5 -66t60.5 -195q-1 -30 -1.5 -94t0 -144t1 -167.5t1.5 -165t2.5 -135.5t2.5 -80q-10 -7 -21 -10.5t-32 -3.5q-23 0 -37.5 11.5t-14.5 37.5zM404 349q-1 43 -1 89.5v92.5q-65 -4 -111.5 -19.5t-75.5 -45.5
t-42.5 -75t-13.5 -106q0 -91 27 -142t72 -51q30 0 56.5 19.5t46.5 54t31.5 81.5t10.5 102zM187 1134q-23 0 -36.5 13t-11.5 36q2 38 1.5 73.5t-2.5 77.5q20 15 53 15q18 0 35 -11t17 -32q0 -38 -1 -78t0 -78q-11 -7 -25 -11.5t-30 -4.5zM363 1135q-23 0 -36 13t-11 36
q1 38 0.5 73.5t-2.5 77.5q20 15 53 15q18 0 35 -11t17 -32q0 -38 -1 -78t0 -78q-11 -7 -25 -11.5t-30 -4.5z" />
    <glyph glyph-name="aring" unicode="&#xe5;" horiz-adv-x="592" 
d="M409 35q0 3 0.5 15t1 29.5t1 39t1.5 43.5q-13 -37 -31.5 -68.5t-42 -55t-50.5 -36.5t-57 -13q-35 0 -65.5 16t-53 51.5t-35.5 92t-13 137.5q0 159 82.5 243.5t255.5 88.5q0 49 0.5 87.5t0.5 55.5q0 87 -31 136.5t-97 49.5q-89 0 -110 -113q-38 -12 -61.5 5t-23.5 54
q0 33 13.5 56.5t30.5 38.5q23 26 63.5 42.5t84.5 16.5q111 0 174.5 -66t60.5 -195q-1 -30 -1.5 -94t0 -144t1 -167.5t1.5 -165t2.5 -135.5t2.5 -80q-10 -7 -21 -10.5t-32 -3.5q-23 0 -37.5 11.5t-14.5 37.5zM404 349q-1 43 -1 89.5v92.5q-65 -4 -111.5 -19.5t-75.5 -45.5
t-42.5 -75t-13.5 -106q0 -91 27 -142t72 -51q30 0 56.5 19.5t46.5 54t31.5 81.5t10.5 102zM283 1130q-29 0 -53.5 11.5t-42 31.5t-27 47t-9.5 59q0 26 9.5 50.5t27 43.5t42 30.5t53.5 11.5t55.5 -10.5t46 -28.5t31 -42.5t11.5 -52.5q0 -33 -10 -60.5t-28.5 -47.5t-45 -31.5
t-60.5 -11.5zM286 1343q-23 0 -41.5 -17.5t-18.5 -48.5q0 -32 17 -53t44 -21q31 0 48.5 20.5t17.5 55.5q0 17 -6.5 29t-16 20t-21.5 11.5t-23 3.5z" />
    <glyph glyph-name="ae" unicode="&#xe6;" horiz-adv-x="914" 
d="M65 286q0 79 20.5 134t62.5 89.5t105.5 50.5t149.5 17q0 64 0.5 114t0.5 70q0 87 -31 136.5t-97 49.5q-89 0 -110 -113q-38 -12 -61.5 5t-23.5 54q0 33 13.5 56.5t30.5 38.5q23 26 63.5 42.5t84.5 16.5q75 0 124.5 -37.5t72.5 -103.5q29 70 72 106t98 36q51 0 89 -33
t64 -95.5t39 -153.5t13 -207q0 -22 -3.5 -41.5t-7.5 -32.5q-75 -2 -156.5 1.5t-169.5 4.5q2 -204 39.5 -306.5t119.5 -102.5q42 0 71 28.5t35 71.5q13 11 37 11q17 0 29.5 -11.5t12.5 -34.5q0 -34 -8 -52.5t-24 -37.5q-11 -12 -25.5 -24.5t-34 -22t-45 -16t-58.5 -6.5
q-82 0 -131 51t-75 142q-29 -88 -83 -140t-121 -52q-81 0 -131.5 72.5t-50.5 224.5zM404 349q-1 33 -1 68.5v71.5q-65 -2 -111 -11t-75.5 -31.5t-43 -61.5t-13.5 -100q0 -91 27 -142t72 -51q30 0 56.5 21t46.5 56t31.5 82t10.5 98zM637 941q-26 0 -48 -20t-39.5 -63.5
t-28 -113t-13.5 -168.5q70 -1 129.5 -1.5t110.5 2.5q0 81 -8 148t-22.5 115t-35 74.5t-45.5 26.5z" />
    <glyph glyph-name="ccedilla" unicode="&#xe7;" horiz-adv-x="470" 
d="M306 -308q-10 0 -32.5 2t-46 9.5t-41 20.5t-17.5 36q0 14 5.5 27t19.5 24q23 -16 51.5 -28.5t60.5 -12.5q37 0 54.5 14t17.5 34t-19 33.5t-54 13.5h-21t-17 -2q-7 16 -8 29t0.5 27.5t3.5 33t1 45.5q-52 17 -90 63.5t-62.5 118t-36 166.5t-11.5 208q0 248 63.5 372
t179.5 124q18 0 37.5 -3.5t36 -11t27.5 -19.5t11 -30q0 -23 -11.5 -37t-22.5 -19q-19 9 -35.5 12.5t-39.5 3.5q-74 0 -108 -97.5t-34 -304.5q0 -220 41 -335t119 -115q26 0 45.5 5.5t39.5 15.5q14 -4 23 -16.5t9 -34.5q0 -15 -9 -28t-24 -23t-35 -16.5t-42 -7.5
q-1 -15 -1 -30t2 -31q53 -2 87.5 -31.5t34.5 -83.5q0 -26 -10.5 -48t-30 -38t-48 -25.5t-63.5 -9.5z" />
    <glyph glyph-name="egrave" unicode="&#xe8;" horiz-adv-x="571" 
d="M488 451q-36 -1 -76.5 -1h-82.5t-83.5 -0.5t-80.5 -1.5q6 -183 44.5 -274.5t116.5 -91.5q21 0 38.5 7.5t30.5 19.5t21.5 27t12.5 30q13 11 37 11q17 0 29.5 -11.5t12.5 -34.5q0 -20 -6.5 -37.5t-22.5 -36.5q-11 -12 -25.5 -24.5t-34 -22t-44.5 -16t-58 -6.5
q-72 0 -120.5 40t-78 112.5t-42 173t-12.5 220.5q0 123 16.5 218.5t47 161.5t73 100t95.5 34q205 0 205 -503q0 -22 -3.5 -50.5t-9.5 -43.5zM293 941q-27 0 -50.5 -22t-40.5 -70.5t-27 -125.5t-11 -186q61 2 122.5 2.5t118.5 3.5q-1 198 -31 298t-81 100zM337 1139
q-28 0 -42 25q-11 23 -25 53.5t-27 62.5t-24.5 63t-18.5 54q5 11 21.5 20.5t33.5 9.5q19 0 32.5 -7t18.5 -24q18 -54 43.5 -116t48.5 -114q-9 -11 -25 -19t-36 -8z" />
    <glyph glyph-name="eacute" unicode="&#xe9;" horiz-adv-x="571" 
d="M488 451q-36 -1 -76.5 -1h-82.5t-83.5 -0.5t-80.5 -1.5q6 -183 44.5 -274.5t116.5 -91.5q21 0 38.5 7.5t30.5 19.5t21.5 27t12.5 30q13 11 37 11q17 0 29.5 -11.5t12.5 -34.5q0 -20 -6.5 -37.5t-22.5 -36.5q-11 -12 -25.5 -24.5t-34 -22t-44.5 -16t-58 -6.5
q-72 0 -120.5 40t-78 112.5t-42 173t-12.5 220.5q0 123 16.5 218.5t47 161.5t73 100t95.5 34q205 0 205 -503q0 -22 -3.5 -50.5t-9.5 -43.5zM293 941q-27 0 -50.5 -22t-40.5 -70.5t-27 -125.5t-11 -186q61 2 122.5 2.5t118.5 3.5q-1 198 -31 298t-81 100zM270 1138
q-22 0 -34 11.5t-12 28.5q0 8 1.5 15t6.5 18q9 20 21 44.5t26 50.5t27.5 54t25.5 56q14 8 41 8q19 0 32.5 -12.5t13.5 -32.5q0 -5 -0.5 -11.5t-4.5 -15.5q-9 -19 -21.5 -43t-26.5 -51t-27.5 -56t-24.5 -56q-9 -4 -19 -6t-25 -2z" />
    <glyph glyph-name="ecircumflex" unicode="&#xea;" horiz-adv-x="571" 
d="M488 451q-36 -1 -76.5 -1h-82.5t-83.5 -0.5t-80.5 -1.5q6 -183 44.5 -274.5t116.5 -91.5q21 0 38.5 7.5t30.5 19.5t21.5 27t12.5 30q13 11 37 11q17 0 29.5 -11.5t12.5 -34.5q0 -20 -6.5 -37.5t-22.5 -36.5q-11 -12 -25.5 -24.5t-34 -22t-44.5 -16t-58 -6.5
q-72 0 -120.5 40t-78 112.5t-42 173t-12.5 220.5q0 123 16.5 218.5t47 161.5t73 100t95.5 34q205 0 205 -503q0 -22 -3.5 -50.5t-9.5 -43.5zM293 941q-27 0 -50.5 -22t-40.5 -70.5t-27 -125.5t-11 -186q61 2 122.5 2.5t118.5 3.5q-1 198 -31 298t-81 100zM246 1429
q12 5 28.5 7.5t32.5 2.5q29 0 43.5 -7.5t20.5 -24.5q17 -54 42.5 -115t48.5 -112q-9 -11 -24 -18.5t-35 -7.5q-29 0 -41 25q-17 32 -32.5 75t-27.5 81q-19 -38 -41 -84t-39 -87q-9 -4 -18.5 -6t-24.5 -2q-21 0 -32.5 11t-11.5 28q0 13 8 32q9 20 22.5 43.5t27.5 49t28 53
t25 56.5z" />
    <glyph glyph-name="edieresis" unicode="&#xeb;" horiz-adv-x="571" 
d="M488 451q-36 -1 -76.5 -1h-82.5t-83.5 -0.5t-80.5 -1.5q6 -183 44.5 -274.5t116.5 -91.5q21 0 38.5 7.5t30.5 19.5t21.5 27t12.5 30q13 11 37 11q17 0 29.5 -11.5t12.5 -34.5q0 -20 -6.5 -37.5t-22.5 -36.5q-11 -12 -25.5 -24.5t-34 -22t-44.5 -16t-58 -6.5
q-72 0 -120.5 40t-78 112.5t-42 173t-12.5 220.5q0 123 16.5 218.5t47 161.5t73 100t95.5 34q205 0 205 -503q0 -22 -3.5 -50.5t-9.5 -43.5zM293 941q-27 0 -50.5 -22t-40.5 -70.5t-27 -125.5t-11 -186q61 2 122.5 2.5t118.5 3.5q-1 198 -31 298t-81 100zM203 1146
q-23 0 -36.5 13t-11.5 36q2 38 1.5 73.5t-2.5 77.5q20 15 53 15q18 0 35 -11t17 -32q0 -38 -1 -78t0 -78q-11 -7 -25 -11.5t-30 -4.5zM379 1147q-23 0 -36 13t-11 36q1 38 0.5 73.5t-2.5 77.5q20 15 53 15q18 0 35 -11t17 -32q0 -38 -1 -78t0 -78q-11 -7 -25 -11.5t-30 -4.5
z" />
    <glyph glyph-name="igrave" unicode="&#xec;" horiz-adv-x="302" 
d="M148 -13q-9 0 -19 3t-19 9t-14.5 15.5t-4.5 23.5q4 121 5 254.5t0 265.5t-1 255t3 223q8 5 19.5 9t31.5 4t36.5 -11.5t15.5 -32.5q-3 -109 -5 -237t-2 -261t0.5 -263.5t1.5 -244.5q-8 -5 -17.5 -8.5t-30.5 -3.5zM189 1140q-29 0 -42 25q-11 22 -25 52.5t-27 62.5
t-24.5 63t-18.5 54q5 11 21.5 20.5t33.5 9.5q19 0 32.5 -6.5t18.5 -23.5q18 -54 43.5 -116.5t48.5 -114.5q-9 -11 -25 -18.5t-36 -7.5z" />
    <glyph glyph-name="iacute" unicode="&#xed;" horiz-adv-x="302" 
d="M148 -13q-9 0 -19 3t-19 9t-14.5 15.5t-4.5 23.5q4 121 5 254.5t0 265.5t-1 255t3 223q8 5 19.5 9t31.5 4t36.5 -11.5t15.5 -32.5q-3 -109 -5 -237t-2 -261t0.5 -263.5t1.5 -244.5q-8 -5 -17.5 -8.5t-30.5 -3.5zM122 1138q-22 0 -34 11.5t-12 28.5q0 8 1.5 15t6.5 18
q9 20 21 44.5t26 50.5t27.5 54t25.5 56q14 8 41 8q19 0 32.5 -12.5t13.5 -32.5q0 -5 -0.5 -11.5t-4.5 -15.5q-9 -19 -21.5 -43t-26.5 -51t-27.5 -56t-24.5 -56q-9 -4 -19 -6t-25 -2z" />
    <glyph glyph-name="icircumflex" unicode="&#xee;" horiz-adv-x="302" 
d="M148 -13q-9 0 -19 3t-19 9t-14.5 15.5t-4.5 23.5q4 121 5 254.5t0 265.5t-1 255t3 223q8 5 19.5 9t31.5 4t36.5 -11.5t15.5 -32.5q-3 -109 -5 -237t-2 -261t0.5 -263.5t1.5 -244.5q-8 -5 -17.5 -8.5t-30.5 -3.5zM98 1429q12 5 28.5 7.5t32.5 2.5q29 0 43.5 -7.5
t20.5 -24.5q17 -54 42.5 -115t48.5 -112q-9 -11 -24 -18.5t-35 -7.5q-29 0 -41 25q-17 32 -32.5 75t-27.5 81q-19 -38 -41 -84t-39 -87q-9 -4 -18.5 -6t-24.5 -2q-21 0 -32.5 11t-11.5 28q0 13 8 32q9 20 22.5 43.5t27.5 49t28 53t25 56.5z" />
    <glyph glyph-name="idieresis" unicode="&#xef;" horiz-adv-x="302" 
d="M148 -13q-9 0 -19 3t-19 9t-14.5 15.5t-4.5 23.5q4 121 5 254.5t0 265.5t-1 255t3 223q8 5 19.5 9t31.5 4t36.5 -11.5t15.5 -32.5q-3 -109 -5 -237t-2 -261t0.5 -263.5t1.5 -244.5q-8 -5 -17.5 -8.5t-30.5 -3.5zM55 1146q-23 0 -36.5 13t-11.5 36q2 38 1.5 73.5
t-2.5 77.5q20 15 53 15q18 0 35 -11t17 -32q0 -38 -1 -78t0 -78q-11 -7 -25 -11.5t-30 -4.5zM231 1147q-23 0 -36 13t-11 36q1 38 0.5 73.5t-2.5 77.5q20 15 53 15q18 0 35 -11t17 -32q0 -38 -1 -78t0 -78q-11 -7 -25 -11.5t-30 -4.5z" />
    <glyph glyph-name="eth" unicode="&#xf0;" horiz-adv-x="606" 
d="M181 1111q-24 0 -36.5 20.5t-12.5 46.5q34 20 72.5 47t79.5 57q-32 44 -59.5 65.5t-43.5 28.5q0 12 3.5 26.5t11 27t19 20.5t26.5 8q14 0 22.5 -3t19.5 -11q25 -20 46 -44t41 -53q23 18 44.5 34t41.5 30q19 13 35 13q26 0 40.5 -23t14.5 -52q-29 -17 -62 -38.5t-68 -45.5
q40 -84 66 -184.5t41 -201.5t20.5 -195t5.5 -164q0 -151 -20 -253.5t-53 -164.5t-76 -89t-89 -27q-54 0 -98.5 31t-76 96.5t-49 166t-17.5 238.5q0 128 15.5 221.5t44.5 154t70.5 90t93.5 29.5q41 0 71 -23.5t51 -68.5q-15 94 -38 163.5t-49 120.5q-32 -23 -63 -45t-59 -40
q-3 -2 -12 -5.5t-14 -3.5zM309 917q-39 0 -64 -33t-39.5 -88t-20.5 -127t-6 -151q0 -219 35 -327t97 -108t95.5 105.5t33.5 331.5q0 90 -8.5 163t-25 125t-41 80.5t-56.5 28.5z" />
    <glyph glyph-name="ntilde" unicode="&#xf1;" horiz-adv-x="649" 
d="M201 993q-2 -45 -1.5 -100.5t1.5 -110.5q14 57 37 105t51.5 83.5t61.5 55t68 19.5t62.5 -19t46.5 -52.5t29.5 -79.5t10.5 -100q0 -94 -1 -196.5l-2 -205t0 -200.5t5 -183q-8 -9 -20.5 -16.5t-37.5 -7.5q-20 0 -37 12t-17 40q0 95 1 177.5t2.5 163t2.5 163.5t0 179
q-1 91 -23 143t-67 52q-29 0 -58.5 -30t-53 -79t-38.5 -111t-16 -126q0 -66 0.5 -138.5t2 -145.5t4 -143.5t4.5 -133.5q-8 -10 -22 -16.5t-34 -6.5q-31 0 -42.5 16.5t-11.5 33.5q-1 120 -2 245.5t-3.5 251.5t-6.5 251.5t-10 245.5q8 7 22 14.5t39 7.5q27 0 41 -16.5
t12 -41.5zM422 1177q-28 0 -54 9.5t-49 20.5t-44 20.5t-39 9.5q-8 0 -17.5 -3t-18.5 -9.5t-15.5 -17t-9.5 -25.5q-11 -8 -32 -8q-22 0 -34.5 14.5t-12.5 36.5q0 25 11.5 44.5t30 33t41.5 21t45 7.5q30 0 56.5 -10t49.5 -22t44 -22t39 -10q19 0 36.5 11t22.5 39q5 3 12 6
t20 3q17 0 30 -13.5t13 -36.5q0 -19 -9.5 -37t-26.5 -31.5t-39.5 -22t-49.5 -8.5z" />
    <glyph glyph-name="ograve" unicode="&#xf2;" horiz-adv-x="605" 
d="M310 -13q-54 0 -99 32.5t-77.5 98.5t-51 167t-18.5 239q-1 263 63.5 393.5t186.5 127.5q52 -2 94 -35.5t72 -96t46 -153.5t16 -206q0 -158 -19.5 -266.5t-52.5 -175.5t-75 -96t-85 -29zM306 936q-68 -1 -103 -104t-35 -308q1 -210 36 -321t104 -113q28 -1 52 29t42 89
t28 146t9 200q0 88 -9 159t-25.5 120.5t-41.5 76t-57 26.5zM342 1140q-29 0 -42 25q-11 22 -25 52.5t-27 62.5t-24.5 63t-18.5 54q5 11 21.5 20.5t33.5 9.5q19 0 32.5 -6.5t18.5 -23.5q18 -54 43.5 -116.5t48.5 -114.5q-9 -11 -25 -18.5t-36 -7.5z" />
    <glyph glyph-name="oacute" unicode="&#xf3;" horiz-adv-x="605" 
d="M310 -13q-54 0 -99 32.5t-77.5 98.5t-51 167t-18.5 239q-1 263 63.5 393.5t186.5 127.5q52 -2 94 -35.5t72 -96t46 -153.5t16 -206q0 -158 -19.5 -266.5t-52.5 -175.5t-75 -96t-85 -29zM306 936q-68 -1 -103 -104t-35 -308q1 -210 36 -321t104 -113q28 -1 52 29t42 89
t28 146t9 200q0 88 -9 159t-25.5 120.5t-41.5 76t-57 26.5zM275 1138q-22 0 -34 11.5t-12 28.5q0 8 1.5 15t6.5 18q9 20 21 44.5t26 50.5t27.5 54t25.5 56q14 8 41 8q19 0 32.5 -12.5t13.5 -32.5q0 -5 -0.5 -11.5t-4.5 -15.5q-9 -19 -21.5 -43t-26.5 -51t-27.5 -56
t-24.5 -56q-9 -4 -19 -6t-25 -2z" />
    <glyph glyph-name="ocircumflex" unicode="&#xf4;" horiz-adv-x="605" 
d="M310 -13q-54 0 -99 32.5t-77.5 98.5t-51 167t-18.5 239q-1 263 63.5 393.5t186.5 127.5q52 -2 94 -35.5t72 -96t46 -153.5t16 -206q0 -158 -19.5 -266.5t-52.5 -175.5t-75 -96t-85 -29zM306 936q-68 -1 -103 -104t-35 -308q1 -210 36 -321t104 -113q28 -1 52 29t42 89
t28 146t9 200q0 88 -9 159t-25.5 120.5t-41.5 76t-57 26.5zM251 1429q12 5 28.5 7.5t32.5 2.5q29 0 43.5 -7.5t20.5 -24.5q17 -54 42.5 -115t48.5 -112q-9 -11 -24 -18.5t-35 -7.5q-29 0 -41 25q-17 32 -32.5 75t-27.5 81q-19 -38 -41 -84t-39 -87q-9 -4 -18.5 -6t-24.5 -2
q-21 0 -32.5 11t-11.5 28q0 13 8 32q9 20 22.5 43.5t27.5 49t28 53t25 56.5z" />
    <glyph glyph-name="otilde" unicode="&#xf5;" horiz-adv-x="605" 
d="M310 -13q-54 0 -99 32.5t-77.5 98.5t-51 167t-18.5 239q-1 263 63.5 393.5t186.5 127.5q52 -2 94 -35.5t72 -96t46 -153.5t16 -206q0 -158 -19.5 -266.5t-52.5 -175.5t-75 -96t-85 -29zM306 936q-68 -1 -103 -104t-35 -308q1 -210 36 -321t104 -113q28 -1 52 29t42 89
t28 146t9 200q0 88 -9 159t-25.5 120.5t-41.5 76t-57 26.5zM397 1177q-28 0 -54 9.5t-49 20.5t-44 20.5t-39 9.5q-8 0 -17.5 -3t-18.5 -9.5t-15.5 -17t-9.5 -25.5q-11 -8 -32 -8q-22 0 -34.5 14.5t-12.5 36.5q0 25 11.5 44.5t30 33t41.5 21t45 7.5q30 0 56.5 -10t49.5 -22
t44 -22t39 -10q19 0 36.5 11t22.5 39q5 3 12 6t20 3q17 0 30 -13.5t13 -36.5q0 -19 -9.5 -37t-26.5 -31.5t-39.5 -22t-49.5 -8.5z" />
    <glyph glyph-name="odieresis" unicode="&#xf6;" horiz-adv-x="605" 
d="M310 -13q-54 0 -99 32.5t-77.5 98.5t-51 167t-18.5 239q-1 263 63.5 393.5t186.5 127.5q52 -2 94 -35.5t72 -96t46 -153.5t16 -206q0 -158 -19.5 -266.5t-52.5 -175.5t-75 -96t-85 -29zM306 936q-68 -1 -103 -104t-35 -308q1 -210 36 -321t104 -113q28 -1 52 29t42 89
t28 146t9 200q0 88 -9 159t-25.5 120.5t-41.5 76t-57 26.5zM208 1146q-23 0 -36.5 13t-11.5 36q2 38 1.5 73.5t-2.5 77.5q20 15 53 15q18 0 35 -11t17 -32q0 -38 -1 -78t0 -78q-11 -7 -25 -11.5t-30 -4.5zM384 1147q-23 0 -36 13t-11 36q1 38 0.5 73.5t-2.5 77.5
q20 15 53 15q18 0 35 -11t17 -32q0 -38 -1 -78t0 -78q-11 -7 -25 -11.5t-30 -4.5z" />
    <glyph glyph-name="divide" unicode="&#xf7;" horiz-adv-x="563" 
d="M487 555q0 -20 -3 -32.5t-9 -23.5q-36 2 -79.5 2.5t-90 0.5t-93.5 -0.5t-92 -0.5q-16 -1 -30.5 14t-14.5 41q0 20 3.5 31t11.5 21q89 -5 179 -5t178 2q17 1 28.5 -13.5t11.5 -36.5zM276 356q16 0 34 -5t33 -16t25 -28t10 -41q0 -50 -27.5 -78.5t-71.5 -28.5q-38 0 -63 28
t-25 76q0 22 7.5 39t19.5 29t27 18.5t31 6.5zM276 945q16 0 34 -5t33 -16t25 -28t10 -41q0 -50 -27.5 -78.5t-71.5 -28.5q-38 0 -63 28t-25 76q0 22 7.5 39t19.5 29t27 18.5t31 6.5z" />
    <glyph glyph-name="oslash" unicode="&#xf8;" horiz-adv-x="605" 
d="M310 -13q-38 0 -74 17l-51 -215q-9 -8 -21 -13t-27 -5q-16 0 -26 7t-10 21q0 8 1 14t3 11l57 246q-45 63 -71.5 175t-26.5 279q-1 263 63.5 393.5t186.5 127.5q40 -2 74 -22q11 48 22 97t24 103q12 14 44 14q14 0 26.5 -9t12.5 -23q0 -3 -1 -7t-2 -9q-15 -63 -29 -121
t-27 -115q40 -62 62 -162.5t22 -236.5q0 -158 -19.5 -266.5t-52.5 -175.5t-75 -96t-85 -29zM306 936q-68 -1 -103 -104t-35 -308q0 -193 30 -301q21 88 41 171.5t40 167.5t40.5 170t42.5 179q-25 25 -56 25zM260 108q21 -18 48 -18q28 -1 52 29t42 89t28 146t9 200
q-1 69 -6 126.5t-16 104.5z" />
    <glyph glyph-name="ugrave" unicode="&#xf9;" horiz-adv-x="636" 
d="M440 207q-35 -111 -87 -163.5t-107 -52.5q-34 0 -63 18t-50 54.5t-33 93.5t-13 135q-1 88 -1 184t-0.5 193t-2 191t-5.5 179q11 5 24.5 7t33.5 2q18 0 36 -10.5t19 -29.5q3 -86 2.5 -164.5t-2 -159t-2.5 -166.5t2 -188q3 -109 25.5 -158t66.5 -49q20 0 46.5 15t50 52
t39.5 99t16 155q2 147 -1.5 296.5t-11.5 295.5q9 5 25.5 8.5t31.5 3.5q19 0 35 -9.5t16 -39.5q0 -63 0.5 -142.5t1.5 -168t2 -181.5t3 -183t4.5 -173t6.5 -151q-14 -8 -28 -12.5t-34 -4.5t-34.5 11t-14.5 35zM341 1140q-29 0 -42 25q-11 22 -25 52.5t-27 62.5t-24.5 63
t-18.5 54q5 11 21.5 20.5t33.5 9.5q19 0 32.5 -6.5t18.5 -23.5q18 -54 43.5 -116.5t48.5 -114.5q-9 -11 -25 -18.5t-36 -7.5z" />
    <glyph glyph-name="uacute" unicode="&#xfa;" horiz-adv-x="636" 
d="M440 207q-35 -111 -87 -163.5t-107 -52.5q-34 0 -63 18t-50 54.5t-33 93.5t-13 135q-1 88 -1 184t-0.5 193t-2 191t-5.5 179q11 5 24.5 7t33.5 2q18 0 36 -10.5t19 -29.5q3 -86 2.5 -164.5t-2 -159t-2.5 -166.5t2 -188q3 -109 25.5 -158t66.5 -49q20 0 46.5 15t50 52
t39.5 99t16 155q2 147 -1.5 296.5t-11.5 295.5q9 5 25.5 8.5t31.5 3.5q19 0 35 -9.5t16 -39.5q0 -63 0.5 -142.5t1.5 -168t2 -181.5t3 -183t4.5 -173t6.5 -151q-14 -8 -28 -12.5t-34 -4.5t-34.5 11t-14.5 35zM285 1138q-22 0 -34 11.5t-12 28.5q0 8 1.5 15t6.5 18
q9 20 21 44.5t26 50.5t27.5 54t25.5 56q14 8 41 8q19 0 32.5 -12.5t13.5 -32.5q0 -5 -0.5 -11.5t-4.5 -15.5q-9 -19 -21.5 -43t-26.5 -51t-27.5 -56t-24.5 -56q-9 -4 -19 -6t-25 -2z" />
    <glyph glyph-name="ucircumflex" unicode="&#xfb;" horiz-adv-x="636" 
d="M440 207q-35 -111 -87 -163.5t-107 -52.5q-34 0 -63 18t-50 54.5t-33 93.5t-13 135q-1 88 -1 184t-0.5 193t-2 191t-5.5 179q11 5 24.5 7t33.5 2q18 0 36 -10.5t19 -29.5q3 -86 2.5 -164.5t-2 -159t-2.5 -166.5t2 -188q3 -109 25.5 -158t66.5 -49q20 0 46.5 15t50 52
t39.5 99t16 155q2 147 -1.5 296.5t-11.5 295.5q9 5 25.5 8.5t31.5 3.5q19 0 35 -9.5t16 -39.5q0 -63 0.5 -142.5t1.5 -168t2 -181.5t3 -183t4.5 -173t6.5 -151q-14 -8 -28 -12.5t-34 -4.5t-34.5 11t-14.5 35zM255 1429q12 5 28.5 7.5t32.5 2.5q29 0 43.5 -7.5t20.5 -24.5
q17 -54 42.5 -115t48.5 -112q-9 -11 -24 -18.5t-35 -7.5q-29 0 -41 25q-17 32 -32.5 75t-27.5 81q-19 -38 -41 -84t-39 -87q-9 -4 -18.5 -6t-24.5 -2q-21 0 -32.5 11t-11.5 28q0 13 8 32q9 20 22.5 43.5t27.5 49t28 53t25 56.5z" />
    <glyph glyph-name="udieresis" unicode="&#xfc;" horiz-adv-x="636" 
d="M440 207q-35 -111 -87 -163.5t-107 -52.5q-34 0 -63 18t-50 54.5t-33 93.5t-13 135q-1 88 -1 184t-0.5 193t-2 191t-5.5 179q11 5 24.5 7t33.5 2q18 0 36 -10.5t19 -29.5q3 -86 2.5 -164.5t-2 -159t-2.5 -166.5t2 -188q3 -109 25.5 -158t66.5 -49q20 0 46.5 15t50 52
t39.5 99t16 155q2 147 -1.5 296.5t-11.5 295.5q9 5 25.5 8.5t31.5 3.5q19 0 35 -9.5t16 -39.5q0 -63 0.5 -142.5t1.5 -168t2 -181.5t3 -183t4.5 -173t6.5 -151q-14 -8 -28 -12.5t-34 -4.5t-34.5 11t-14.5 35zM212 1146q-23 0 -36.5 13t-11.5 36q2 38 1.5 73.5t-2.5 77.5
q20 15 53 15q18 0 35 -11t17 -32q0 -38 -1 -78t0 -78q-11 -7 -25 -11.5t-30 -4.5zM388 1147q-23 0 -36 13t-11 36q1 38 0.5 73.5t-2.5 77.5q20 15 53 15q18 0 35 -11t17 -32q0 -38 -1 -78t0 -78q-11 -7 -25 -11.5t-30 -4.5z" />
    <glyph glyph-name="yacute" unicode="&#xfd;" horiz-adv-x="652" 
d="M178 -391q-22 0 -36 14t-14 37q0 21 12.5 44t24.5 44q37 60 69.5 126t61.5 135q-17 6 -27 32q-17 56 -35.5 132t-38 163.5t-39.5 181.5t-40.5 185.5t-41.5 175.5t-41 152q9 7 26.5 12t37.5 5q26 0 40 -8.5t21 -28.5q17 -62 32 -134t30 -149t29.5 -156t29.5 -155.5
t31 -147.5t34 -132q39 113 68 230.5t49.5 233t32 226.5t14.5 212q21 10 58 10q26 -1 38 -12t12 -27q0 -15 -1 -36t-3 -43q-12 -150 -39.5 -309.5t-75.5 -322.5q-25 -84 -58.5 -177t-69.5 -184t-71 -173t-63 -145q-11 -5 -25.5 -8t-31.5 -3zM306 1138q-22 0 -34 11.5
t-12 28.5q0 8 1.5 15t6.5 18q9 20 21 44.5t26 50.5t27.5 54t25.5 56q14 8 41 8q19 0 32.5 -12.5t13.5 -32.5q0 -5 -0.5 -11.5t-4.5 -15.5q-9 -19 -21.5 -43t-26.5 -51t-27.5 -56t-24.5 -56q-9 -4 -19 -6t-25 -2z" />
    <glyph glyph-name="thorn" unicode="&#xfe;" horiz-adv-x="619" 
d="M332 -13q-45 0 -80.5 28.5t-56.5 82.5q0 -65 1 -134t3 -133t4.5 -118.5t6.5 -89.5q-11 -10 -25.5 -15t-37.5 -5q-20 0 -34.5 13.5t-16.5 39.5q-1 52 -1 147.5v218t0.5 264t0.5 285.5t-0.5 283t-2 257t-4 206t-6.5 131q13 5 27 8.5t31 3.5q29 0 43 -13.5t14 -33.5
q0 -15 -0.5 -48t-1 -77.5t-1 -97t-1 -106t-1 -105t-0.5 -93.5q13 31 31.5 60t41 51t48.5 35.5t55 13.5q53 0 89 -34.5t57.5 -99t31 -156t9.5 -205.5q0 -146 -15.5 -252t-44.5 -175.5t-70.5 -103t-93.5 -33.5zM199 716q-1 -61 -1 -122.5t0.5 -119.5t1.5 -109.5t1 -92.5
q0 -35 8.5 -66.5t23.5 -55.5t35 -38t44 -14q34 0 60.5 24t44 78t26.5 140t9 211q0 120 -9.5 195.5t-24.5 118.5t-34 58.5t-39 15.5q-22 0 -47 -16.5t-46.5 -46t-36.5 -70.5t-16 -90z" />
    <glyph glyph-name="ydieresis" unicode="&#xff;" horiz-adv-x="652" 
d="M178 -391q-22 0 -36 14t-14 37q0 21 12.5 44t24.5 44q37 60 69.5 126t61.5 135q-17 6 -27 32q-17 56 -35.5 132t-38 163.5t-39.5 181.5t-40.5 185.5t-41.5 175.5t-41 152q9 7 26.5 12t37.5 5q26 0 40 -8.5t21 -28.5q17 -62 32 -134t30 -149t29.5 -156t29.5 -155.5
t31 -147.5t34 -132q39 113 68 230.5t49.5 233t32 226.5t14.5 212q21 10 58 10q26 -1 38 -12t12 -27q0 -15 -1 -36t-3 -43q-12 -150 -39.5 -309.5t-75.5 -322.5q-25 -84 -58.5 -177t-69.5 -184t-71 -173t-63 -145q-11 -5 -25.5 -8t-31.5 -3zM239 1146q-23 0 -36.5 13
t-11.5 36q2 38 1.5 73.5t-2.5 77.5q20 15 53 15q18 0 35 -11t17 -32q0 -38 -1 -78t0 -78q-11 -7 -25 -11.5t-30 -4.5zM415 1147q-23 0 -36 13t-11 36q1 38 0.5 73.5t-2.5 77.5q20 15 53 15q18 0 35 -11t17 -32q0 -38 -1 -78t0 -78q-11 -7 -25 -11.5t-30 -4.5z" />
    <glyph glyph-name="Amacron" unicode="&#x100;" horiz-adv-x="681" 
d="M88 -8q-28 0 -40 19t-7 48q5 32 14 80.5t20 107t24 124t26 132t25.5 131.5t23.5 122q14 74 28 146t28 146t28 152.5t28 166.5q17 13 50 13q24 0 39 -8t19 -28q31 -188 64 -361.5t66 -338t64.5 -320.5t58.5 -309q-8 -11 -22.5 -17.5t-37.5 -6.5q-25 0 -40 11t-20 38
q-10 57 -19.5 113t-20.5 113l-298 -2q-15 -84 -26 -154t-15 -107q-7 -5 -22 -8t-38 -3zM253 613q-10 -54 -22.5 -120.5t-24.5 -135.5l264 6q-39 217 -73 409.5t-57 338.5q-24 -129 -44.5 -252.5t-42.5 -245.5zM520 1556q0 -17 -4 -27.5t-9 -20.5q-38 2 -79.5 2.5t-82.5 0
t-81 -1t-75 -0.5q-24 0 -32 15.5t-8 35.5q0 17 2.5 29.5t10.5 22.5q35 -3 76.5 -3t83.5 1t83.5 2t76.5 0q23 -1 30.5 -15.5t7.5 -40.5z" />
    <glyph glyph-name="amacron" unicode="&#x101;" horiz-adv-x="592" 
d="M409 35q0 3 0.5 15t1 29.5t1 39t1.5 43.5q-13 -37 -31.5 -68.5t-42 -55t-50.5 -36.5t-57 -13q-35 0 -65.5 16t-53 51.5t-35.5 92t-13 137.5q0 159 82.5 243.5t255.5 88.5q0 49 0.5 87.5t0.5 55.5q0 87 -31 136.5t-97 49.5q-89 0 -110 -113q-38 -12 -61.5 5t-23.5 54
q0 33 13.5 56.5t30.5 38.5q23 26 63.5 42.5t84.5 16.5q111 0 174.5 -66t60.5 -195q-1 -30 -1.5 -94t0 -144t1 -167.5t1.5 -165t2.5 -135.5t2.5 -80q-10 -7 -21 -10.5t-32 -3.5q-23 0 -37.5 11.5t-14.5 37.5zM404 349q-1 43 -1 89.5v92.5q-65 -4 -111.5 -19.5t-75.5 -45.5
t-42.5 -75t-13.5 -106q0 -91 27 -142t72 -51q30 0 56.5 19.5t46.5 54t31.5 81.5t10.5 102zM465 1229q0 -17 -4 -27.5t-9 -20.5q-38 2 -79.5 2.5t-82.5 0t-81 -1t-75 -0.5q-24 0 -32 15.5t-8 35.5q0 17 2.5 29.5t10.5 22.5q35 -3 76.5 -3t83.5 1t83.5 2t76.5 0
q23 -1 30.5 -15.5t7.5 -40.5z" />
    <glyph glyph-name="Abreve" unicode="&#x102;" horiz-adv-x="681" 
d="M88 -8q-28 0 -40 19t-7 48q5 32 14 80.5t20 107t24 124t26 132t25.5 131.5t23.5 122q14 74 28 146t28 146t28 152.5t28 166.5q17 13 50 13q24 0 39 -8t19 -28q31 -188 64 -361.5t66 -338t64.5 -320.5t58.5 -309q-8 -11 -22.5 -17.5t-37.5 -6.5q-25 0 -40 11t-20 38
q-10 57 -19.5 113t-20.5 113l-298 -2q-15 -84 -26 -154t-15 -107q-7 -5 -22 -8t-38 -3zM253 613q-10 -54 -22.5 -120.5t-24.5 -135.5l264 6q-39 217 -73 409.5t-57 338.5q-24 -129 -44.5 -252.5t-42.5 -245.5zM339 1458q-35 0 -66 11t-54 35t-36 63t-12 95q18 15 47 15
q20 0 32 -10.5t11 -29.5q0 -54 22.5 -79.5t57.5 -25.5q40 0 67.5 30t19.5 93q6 8 18 13t26 5q20 0 32 -10.5t12 -33.5q0 -41 -13.5 -73t-37.5 -53.5t-56.5 -33t-69.5 -11.5z" />
    <glyph glyph-name="abreve" unicode="&#x103;" horiz-adv-x="592" 
d="M409 35q0 3 0.5 15t1 29.5t1 39t1.5 43.5q-13 -37 -31.5 -68.5t-42 -55t-50.5 -36.5t-57 -13q-35 0 -65.5 16t-53 51.5t-35.5 92t-13 137.5q0 159 82.5 243.5t255.5 88.5q0 49 0.5 87.5t0.5 55.5q0 87 -31 136.5t-97 49.5q-89 0 -110 -113q-38 -12 -61.5 5t-23.5 54
q0 33 13.5 56.5t30.5 38.5q23 26 63.5 42.5t84.5 16.5q111 0 174.5 -66t60.5 -195q-1 -30 -1.5 -94t0 -144t1 -167.5t1.5 -165t2.5 -135.5t2.5 -80q-10 -7 -21 -10.5t-32 -3.5q-23 0 -37.5 11.5t-14.5 37.5zM404 349q-1 43 -1 89.5v92.5q-65 -4 -111.5 -19.5t-75.5 -45.5
t-42.5 -75t-13.5 -106q0 -91 27 -142t72 -51q30 0 56.5 19.5t46.5 54t31.5 81.5t10.5 102zM285 1131q-35 0 -66 11t-54 35t-36 63t-12 95q18 15 47 15q20 0 32 -10.5t11 -29.5q0 -54 22.5 -79.5t57.5 -25.5q40 0 67.5 30t19.5 93q6 8 18 13t26 5q20 0 32 -10.5t12 -33.5
q0 -41 -13.5 -73t-37.5 -53.5t-56.5 -33t-69.5 -11.5z" />
    <glyph glyph-name="Aogonek" unicode="&#x104;" horiz-adv-x="681" 
d="M434 -232q0 27 8.5 55t23.5 57t34.5 60t41.5 66q-12 10 -15 34q-10 57 -19.5 113t-20.5 113l-298 -2q-15 -84 -26 -154t-15 -107q-7 -5 -22 -8t-38 -3q-28 0 -40 19t-7 48q5 32 14 80.5t20 107t24 124t26 132t25.5 131.5t23.5 122q14 74 28 146t28 146t28 152.5t28 166.5
q17 13 50 13q24 0 39 -8t19 -28q31 -188 64 -361.5t66 -338t64.5 -320.5t58.5 -309q-20 -32 -40 -62t-36 -58.5t-26 -54.5t-10 -50q0 -40 27 -51.5t77 -11.5q11 -12 11 -40q0 -27 -20 -37t-56 -10q-66 0 -103 30.5t-37 97.5zM253 613q-10 -54 -22.5 -120.5t-24.5 -135.5
l264 6q-39 217 -73 409t-57 338q-23 -129 -44 -252t-43 -245z" />
    <glyph glyph-name="aogonek" unicode="&#x105;" horiz-adv-x="592" 
d="M302 -247q0 29 9.5 58t25 59.5t36.5 63.5t45 69q-9 12 -9 32q0 3 0.5 15t1 29.5t1 39t1.5 43.5q-13 -37 -31.5 -68.5t-42 -55t-50.5 -36.5t-57 -13q-35 0 -65.5 16t-53 51.5t-35.5 92t-13 137.5q0 159 82.5 243.5t255.5 88.5q0 49 0.5 87.5t0.5 55.5q0 87 -31 136.5
t-97 49.5q-89 0 -110 -113q-38 -12 -61.5 5t-23.5 54q0 33 13.5 56.5t30.5 38.5q23 26 63.5 42.5t84.5 16.5q111 0 174.5 -66t60.5 -195q-1 -30 -1.5 -94t0 -144t1 -167.5t1.5 -165t2.5 -135.5t2.5 -80q-20 -32 -39.5 -62t-36 -58.5t-26.5 -54.5t-10 -50q0 -40 27 -51.5
t78 -11.5q11 -12 11 -40q0 -27 -20.5 -37t-55.5 -10q-66 0 -103 30.5t-37 97.5zM404 349q-1 43 -1 89.5v92.5q-65 -4 -111.5 -19.5t-75.5 -45.5t-42.5 -75t-13.5 -106q0 -91 27 -142t72 -51q30 0 56.5 19.5t46.5 54t31.5 81.5t10.5 102z" />
    <glyph glyph-name="Cacute" unicode="&#x106;" horiz-adv-x="585" 
d="M358 -18q-74 0 -129 40.5t-91.5 129t-54.5 228t-18 336.5q0 152 24 272t65 203t97 127t121 44q38 0 74 -8.5t58 -23.5q16 -10 22.5 -24t6.5 -34q0 -19 -10.5 -36t-25.5 -22q-20 13 -48 23t-73 10q-15 0 -36 -7t-44 -27t-46 -56.5t-41 -96t-29 -144.5t-11 -203
q0 -125 7 -219t19.5 -162.5t30.5 -113.5t40 -72t47.5 -38t53.5 -11q47 0 80 10.5t59 30.5q16 -3 29.5 -23t13.5 -40q0 -21 -9 -33t-26 -23q-12 -9 -29.5 -16t-38.5 -11.5t-43.5 -7t-44.5 -2.5zM352 1453q-22 0 -34 11.5t-12 28.5q0 8 1.5 15t6.5 18q9 20 21 44.5t26 50.5
t27.5 54t25.5 56q14 8 41 8q19 0 32.5 -12.5t13.5 -32.5q0 -5 -0.5 -11.5t-4.5 -15.5q-9 -19 -21.5 -43t-26.5 -51t-27.5 -56t-24.5 -56q-9 -4 -19 -6t-25 -2z" />
    <glyph glyph-name="cacute" unicode="&#x107;" horiz-adv-x="470" 
d="M326 -12q-68 0 -117.5 40t-81.5 114t-47.5 178.5t-15.5 233.5q0 248 63.5 372t179.5 124q18 0 37.5 -3.5t36 -11t27.5 -19.5t11 -30q0 -23 -11.5 -37t-22.5 -19q-19 9 -35.5 12.5t-39.5 3.5q-74 0 -108 -97.5t-34 -304.5q0 -220 41 -335t119 -115q26 0 45.5 5.5
t39.5 15.5q14 -4 23 -16.5t9 -34.5q0 -16 -10 -29.5t-26.5 -24t-38 -16.5t-44.5 -6zM279 1138q-22 0 -34 11.5t-12 28.5q0 8 1.5 15t6.5 18q9 20 21 44.5t26 50.5t27.5 54t25.5 56q14 8 41 8q19 0 32.5 -12.5t13.5 -32.5q0 -5 -0.5 -11.5t-4.5 -15.5q-9 -19 -21.5 -43
t-26.5 -51t-27.5 -56t-24.5 -56q-9 -4 -19 -6t-25 -2z" />
    <glyph glyph-name="Ccircumflex" unicode="&#x108;" horiz-adv-x="585" 
d="M358 -18q-74 0 -129 40.5t-91.5 129t-54.5 228t-18 336.5q0 152 24 272t65 203t97 127t121 44q38 0 74 -8.5t58 -23.5q16 -10 22.5 -24t6.5 -34q0 -19 -10.5 -36t-25.5 -22q-20 13 -48 23t-73 10q-15 0 -36 -7t-44 -27t-46 -56.5t-41 -96t-29 -144.5t-11 -203
q0 -125 7 -219t19.5 -162.5t30.5 -113.5t40 -72t47.5 -38t53.5 -11q47 0 80 10.5t59 30.5q16 -3 29.5 -23t13.5 -40q0 -21 -9 -33t-26 -23q-12 -9 -29.5 -16t-38.5 -11.5t-43.5 -7t-44.5 -2.5zM328 1744q12 5 28.5 7.5t32.5 2.5q29 0 43.5 -7.5t20.5 -24.5q17 -54 42.5 -115
t48.5 -112q-9 -11 -24 -18.5t-35 -7.5q-29 0 -41 25q-17 32 -32.5 75t-27.5 81q-19 -38 -41 -84t-39 -87q-9 -4 -18.5 -6t-24.5 -2q-21 0 -32.5 11t-11.5 28q0 13 8 32q9 20 22.5 43.5t27.5 49t28 53t25 56.5z" />
    <glyph glyph-name="ccircumflex" unicode="&#x109;" horiz-adv-x="470" 
d="M326 -12q-68 0 -117.5 40t-81.5 114t-47.5 178.5t-15.5 233.5q0 248 63.5 372t179.5 124q18 0 37.5 -3.5t36 -11t27.5 -19.5t11 -30q0 -23 -11.5 -37t-22.5 -19q-19 9 -35.5 12.5t-39.5 3.5q-74 0 -108 -97.5t-34 -304.5q0 -220 41 -335t119 -115q26 0 45.5 5.5
t39.5 15.5q14 -4 23 -16.5t9 -34.5q0 -16 -10 -29.5t-26.5 -24t-38 -16.5t-44.5 -6zM254 1429q12 5 28.5 7.5t32.5 2.5q29 0 43.5 -7.5t20.5 -24.5q17 -54 42.5 -115t48.5 -112q-9 -11 -24 -18.5t-35 -7.5q-29 0 -41 25q-17 32 -32.5 75t-27.5 81q-19 -38 -41 -84t-39 -87
q-9 -4 -18.5 -6t-24.5 -2q-21 0 -32.5 11t-11.5 28q0 13 8 32q9 20 22.5 43.5t27.5 49t28 53t25 56.5z" />
    <glyph glyph-name="Cdotaccent" unicode="&#x10a;" horiz-adv-x="585" 
d="M358 -18q-74 0 -129 40.5t-91.5 129t-54.5 228t-18 336.5q0 152 24 272t65 203t97 127t121 44q38 0 74 -8.5t58 -23.5q16 -10 22.5 -24t6.5 -34q0 -19 -10.5 -36t-25.5 -22q-20 13 -48 23t-73 10q-15 0 -36 -7t-44 -27t-46 -56.5t-41 -96t-29 -144.5t-11 -203
q0 -125 7 -219t19.5 -162.5t30.5 -113.5t40 -72t47.5 -38t53.5 -11q47 0 80 10.5t59 30.5q16 -3 29.5 -23t13.5 -40q0 -21 -9 -33t-26 -23q-12 -9 -29.5 -16t-38.5 -11.5t-43.5 -7t-44.5 -2.5zM377 1661q12 0 28.5 -5t32 -15.5t26.5 -27t11 -40.5q0 -50 -26 -76.5t-69 -26.5
q-35 0 -61.5 26.5t-26.5 74.5q0 21 7.5 37.5t19.5 28t27.5 18t30.5 6.5z" />
    <glyph glyph-name="cdotaccent" unicode="&#x10b;" horiz-adv-x="470" 
d="M326 -12q-68 0 -117.5 40t-81.5 114t-47.5 178.5t-15.5 233.5q0 248 63.5 372t179.5 124q18 0 37.5 -3.5t36 -11t27.5 -19.5t11 -30q0 -23 -11.5 -37t-22.5 -19q-19 9 -35.5 12.5t-39.5 3.5q-74 0 -108 -97.5t-34 -304.5q0 -220 41 -335t119 -115q26 0 45.5 5.5
t39.5 15.5q14 -4 23 -16.5t9 -34.5q0 -16 -10 -29.5t-26.5 -24t-38 -16.5t-44.5 -6zM303 1346q12 0 28.5 -5t32 -15.5t26.5 -27t11 -40.5q0 -50 -26 -76.5t-69 -26.5q-35 0 -61.5 26.5t-26.5 74.5q0 21 7.5 37.5t19.5 28t27.5 18t30.5 6.5z" />
    <glyph glyph-name="Ccaron" unicode="&#x10c;" horiz-adv-x="585" 
d="M358 -18q-74 0 -129 40.5t-91.5 129t-54.5 228t-18 336.5q0 152 24 272t65 203t97 127t121 44q38 0 74 -8.5t58 -23.5q16 -10 22.5 -24t6.5 -34q0 -19 -10.5 -36t-25.5 -22q-20 13 -48 23t-73 10q-15 0 -36 -7t-44 -27t-46 -56.5t-41 -96t-29 -144.5t-11 -203
q0 -125 7 -219t19.5 -162.5t30.5 -113.5t40 -72t47.5 -38t53.5 -11q47 0 80 10.5t59 30.5q16 -3 29.5 -23t13.5 -40q0 -21 -9 -33t-26 -23q-12 -9 -29.5 -16t-38.5 -11.5t-43.5 -7t-44.5 -2.5zM434 1464q-12 -5 -29 -8t-32 -3q-29 0 -44 8t-20 25q-9 26 -20 55.5t-23 59
t-24 58t-24 54.5q8 11 23 18.5t35 7.5q28 0 42 -25q16 -34 31.5 -77t27.5 -80q19 38 41 83.5t39 87.5q10 4 19.5 6.5t23.5 2.5q21 0 33 -11.5t12 -28.5q0 -13 -8 -32q-9 -20 -22.5 -43t-27.5 -48.5t-28.5 -53t-24.5 -56.5z" />
    <glyph glyph-name="ccaron" unicode="&#x10d;" horiz-adv-x="470" 
d="M326 -12q-68 0 -117.5 40t-81.5 114t-47.5 178.5t-15.5 233.5q0 248 63.5 372t179.5 124q18 0 37.5 -3.5t36 -11t27.5 -19.5t11 -30q0 -23 -11.5 -37t-22.5 -19q-19 9 -35.5 12.5t-39.5 3.5q-74 0 -108 -97.5t-34 -304.5q0 -220 41 -335t119 -115q26 0 45.5 5.5
t39.5 15.5q14 -4 23 -16.5t9 -34.5q0 -16 -10 -29.5t-26.5 -24t-38 -16.5t-44.5 -6zM360 1149q-12 -5 -29 -8t-32 -3q-29 0 -44 8t-20 25q-9 26 -20 55.5t-23 59t-24 58t-24 54.5q8 11 23 18.5t35 7.5q28 0 42 -25q16 -34 31.5 -77t27.5 -80q19 38 41 83.5t39 87.5
q10 4 19.5 6.5t23.5 2.5q21 0 33 -11.5t12 -28.5q0 -13 -8 -32q-9 -20 -22.5 -43t-27.5 -48.5t-28.5 -53t-24.5 -56.5z" />
    <glyph glyph-name="Dcaron" unicode="&#x10e;" horiz-adv-x="678" 
d="M165 -2q-24 -1 -38.5 13t-14.5 40q-1 145 -1 292t-2 287q-1 76 -2 168t-3 187.5t-6 188t-10 168.5q13 7 32.5 11.5t45.5 4.5q112 0 195 -51.5t138 -147.5t82 -233.5t27 -308.5q0 -172 -27.5 -288t-82.5 -188t-138.5 -105t-194.5 -38zM203 1236q0 -39 1 -98.5t2 -129
t2.5 -144t1.5 -142.5q1 -73 1 -156.5t0.5 -165t1 -154.5t1.5 -126q80 4 135 30.5t88.5 84t48 150t14.5 228.5q0 304 -78 461.5t-219 161.5zM329 1455q-12 -5 -29 -8t-32 -3q-29 0 -44 8t-20 25q-9 26 -20 55.5t-23 59t-24 58t-24 54.5q8 11 23 18.5t35 7.5q28 0 42 -25
q16 -34 31.5 -77t27.5 -80q19 38 41 83.5t39 87.5q10 4 19.5 6.5t23.5 2.5q21 0 33 -11.5t12 -28.5q0 -13 -8 -32q-9 -20 -22.5 -43t-27.5 -48.5t-28.5 -53t-24.5 -56.5z" />
    <glyph glyph-name="dcaron" unicode="&#x10f;" horiz-adv-x="621" 
d="M406 22q0 18 2 47.5t4 61.5q-26 -64 -65.5 -101.5t-87.5 -37.5q-32 0 -67 24t-63.5 82.5t-47 155.5t-18.5 244q0 148 12.5 252.5t37.5 170.5t63 96t89 30q27 0 49 -11t40 -30.5t32 -46t26 -57.5q-2 154 -5.5 292t-8.5 245q11 7 28 11.5t38 4.5q24 0 37.5 -15t13.5 -38
q-1 -110 -1 -234t-0.5 -252t0 -256.5t2 -247t3.5 -223t6 -185.5q-14 -11 -27.5 -16t-33.5 -5t-39 8.5t-19 30.5zM409 294q3 120 4 246.5t0 254.5q-12 29 -27 55t-32.5 46t-36.5 31.5t-38 11.5q-58 0 -85 -103t-27 -307q0 -116 11.5 -196t29.5 -130t41 -72.5t47 -22.5
q17 0 36.5 12t36 35.5t27.5 58t13 80.5zM585 1140q27 16 47 44t30 73q-51 4 -70.5 28t-19.5 72q0 35 7.5 55t18.5 34q55 5 93 -8q31 -10 43.5 -37t11.5 -68q-1 -35 -10.5 -76t-25.5 -75.5t-37.5 -57.5t-45.5 -23q-15 0 -28 10.5t-14 28.5z" />
    <glyph glyph-name="Dcroat" unicode="&#x110;" horiz-adv-x="678" 
d="M165 -2q-24 -1 -38.5 13t-14.5 40q-1 141 -1 284t-2 280h-88q-17 -1 -31 14t-14 40q0 21 3.5 31.5t11.5 20.5q32 -2 60.5 -3t55.5 -1q-1 73 -2 155.5t-3 164.5t-5.5 160.5t-8.5 144.5q13 7 32.5 11.5t45.5 4.5q112 0 195 -51.5t138 -147.5t82 -233.5t27 -308.5
q0 -172 -27.5 -288t-82.5 -188t-138.5 -105t-194.5 -38zM347 668q0 -20 -3.5 -32.5t-9.5 -22.5q-62 3 -123 3q0 -66 0.5 -135.5t0.5 -135t0.5 -123.5t1.5 -102q80 4 135 30.5t88.5 84t48 150t14.5 228.5q0 304 -78 461.5t-219 161.5q0 -39 1 -98.5t2 -129t2.5 -144
t1.5 -142.5v-5q23 0 46.5 0.5t49.5 1.5q18 0 29.5 -14t11.5 -37z" />
    <glyph glyph-name="dcroat" unicode="&#x111;" horiz-adv-x="606" 
d="M406 22q0 18 2 47.5t4 61.5q-26 -64 -65.5 -101.5t-87.5 -37.5q-32 0 -67 24t-63.5 82.5t-47 155.5t-18.5 244q0 148 12.5 252.5t37.5 170.5t63 96t89 30q27 0 49 -11t40 -30.5t32 -46t26 -57.5q-2 152 -6 285q-42 -1 -83 -1.5t-78 -0.5q-17 0 -31 12.5t-14 38.5
q0 20 3.5 29t11.5 19q89 -5 189 -3l-6 158q11 7 28 11.5t38 4.5q24 0 37.5 -15t13.5 -38q0 -29 -0.5 -59t-0.5 -60q19 0 37.5 0.5t36.5 1.5q18 0 29.5 -12t11.5 -35q0 -20 -3 -30.5t-10 -21.5q-22 2 -48 2h-54q-1 -155 -1 -320.5t1 -323t3.5 -297.5t7.5 -243
q-14 -11 -27.5 -16t-33.5 -5t-39 8.5t-19 30.5zM409 294q3 120 4 246.5t0 254.5q-12 29 -27 55t-32.5 46t-36.5 31.5t-38 11.5q-58 0 -85 -103t-27 -307q0 -116 11.5 -196t29.5 -130t41 -72.5t47 -22.5q17 0 36.5 12t36 35.5t27.5 58t13 80.5z" />
    <glyph glyph-name="Emacron" unicode="&#x112;" horiz-adv-x="562" 
d="M203 1247q0 -133 -0.5 -268.5t0.5 -268.5q28 1 59 1t62 1t59 2t50 4q12 -17 12 -55q0 -23 -9.5 -38.5t-34.5 -15.5q-49 0 -99 1.5t-99 2.5q0 -129 1 -258t1 -257h74t81.5 1t80.5 2.5t71 3.5q5 -10 9 -24.5t4 -35.5q0 -23 -13.5 -36t-36.5 -13q-85 0 -167 0.5t-160 1.5
q-20 0 -32 12t-12 35v322t-2 324q0 52 -0.5 114.5t-1 128t-1.5 129t-2 117.5t-3 94t-5 57q15 16 57 16q81 0 170.5 -2.5t179.5 5.5q7 -7 12 -18t5 -34q0 -26 -14.5 -39.5t-34.5 -14.5q-66 0 -132 0.5t-129 2.5zM480 1546q0 -17 -4 -27.5t-9 -20.5q-38 2 -79.5 2.5t-82.5 0
t-81 -1t-75 -0.5q-24 0 -32 15.5t-8 35.5q0 17 2.5 29.5t10.5 22.5q35 -3 76.5 -3t83.5 1t83.5 2t76.5 0q23 -1 30.5 -15.5t7.5 -40.5z" />
    <glyph glyph-name="emacron" unicode="&#x113;" horiz-adv-x="571" 
d="M488 451q-36 -1 -76.5 -1h-82.5t-83.5 -0.5t-80.5 -1.5q6 -183 44.5 -274.5t116.5 -91.5q21 0 38.5 7.5t30.5 19.5t21.5 27t12.5 30q13 11 37 11q17 0 29.5 -11.5t12.5 -34.5q0 -20 -6.5 -37.5t-22.5 -36.5q-11 -12 -25.5 -24.5t-34 -22t-44.5 -16t-58 -6.5
q-72 0 -120.5 40t-78 112.5t-42 173t-12.5 220.5q0 123 16.5 218.5t47 161.5t73 100t95.5 34q205 0 205 -503q0 -22 -3.5 -50.5t-9.5 -43.5zM293 941q-27 0 -50.5 -22t-40.5 -70.5t-27 -125.5t-11 -186q61 2 122.5 2.5t118.5 3.5q-1 198 -31 298t-81 100zM481 1241
q0 -17 -4 -27.5t-9 -20.5q-38 2 -79.5 2.5t-82.5 0t-81 -1t-75 -0.5q-24 0 -32 15.5t-8 35.5q0 17 2.5 29.5t10.5 22.5q35 -3 76.5 -3t83.5 1t83.5 2t76.5 0q23 -1 30.5 -15.5t7.5 -40.5z" />
    <glyph glyph-name="Ebreve" unicode="&#x114;" horiz-adv-x="562" 
d="M203 1247q0 -133 -0.5 -268.5t0.5 -268.5q28 1 59 1t62 1t59 2t50 4q12 -17 12 -55q0 -23 -9.5 -38.5t-34.5 -15.5q-49 0 -99 1.5t-99 2.5q0 -129 1 -258t1 -257h74t81.5 1t80.5 2.5t71 3.5q5 -10 9 -24.5t4 -35.5q0 -23 -13.5 -36t-36.5 -13q-85 0 -167 0.5t-160 1.5
q-20 0 -32 12t-12 35v322t-2 324q0 52 -0.5 114.5t-1 128t-1.5 129t-2 117.5t-3 94t-5 57q15 16 57 16q81 0 170.5 -2.5t179.5 5.5q7 -7 12 -18t5 -34q0 -26 -14.5 -39.5t-34.5 -14.5q-66 0 -132 0.5t-129 2.5zM299 1448q-35 0 -66 11t-54 35t-36 63t-12 95q18 15 47 15
q20 0 32 -10.5t11 -29.5q0 -54 22.5 -79.5t57.5 -25.5q40 0 67.5 30t19.5 93q6 8 18 13t26 5q20 0 32 -10.5t12 -33.5q0 -41 -13.5 -73t-37.5 -53.5t-56.5 -33t-69.5 -11.5z" />
    <glyph glyph-name="ebreve" unicode="&#x115;" horiz-adv-x="571" 
d="M488 451q-36 -1 -76.5 -1h-82.5t-83.5 -0.5t-80.5 -1.5q6 -183 44.5 -274.5t116.5 -91.5q21 0 38.5 7.5t30.5 19.5t21.5 27t12.5 30q13 11 37 11q17 0 29.5 -11.5t12.5 -34.5q0 -20 -6.5 -37.5t-22.5 -36.5q-11 -12 -25.5 -24.5t-34 -22t-44.5 -16t-58 -6.5
q-72 0 -120.5 40t-78 112.5t-42 173t-12.5 220.5q0 123 16.5 218.5t47 161.5t73 100t95.5 34q205 0 205 -503q0 -22 -3.5 -50.5t-9.5 -43.5zM293 941q-27 0 -50.5 -22t-40.5 -70.5t-27 -125.5t-11 -186q61 2 122.5 2.5t118.5 3.5q-1 198 -31 298t-81 100zM301 1143
q-35 0 -66 11t-54 35t-36 63t-12 95q18 15 47 15q20 0 32 -10.5t11 -29.5q0 -54 22.5 -79.5t57.5 -25.5q40 0 67.5 30t19.5 93q6 8 18 13t26 5q20 0 32 -10.5t12 -33.5q0 -41 -13.5 -73t-37.5 -53.5t-56.5 -33t-69.5 -11.5z" />
    <glyph glyph-name="Edotaccent" unicode="&#x116;" horiz-adv-x="562" 
d="M203 1247q0 -133 -0.5 -268.5t0.5 -268.5q28 1 59 1t62 1t59 2t50 4q12 -17 12 -55q0 -23 -9.5 -38.5t-34.5 -15.5q-49 0 -99 1.5t-99 2.5q0 -129 1 -258t1 -257h74t81.5 1t80.5 2.5t71 3.5q5 -10 9 -24.5t4 -35.5q0 -23 -13.5 -36t-36.5 -13q-85 0 -167 0.5t-160 1.5
q-20 0 -32 12t-12 35v322t-2 324q0 52 -0.5 114.5t-1 128t-1.5 129t-2 117.5t-3 94t-5 57q15 16 57 16q81 0 170.5 -2.5t179.5 5.5q7 -7 12 -18t5 -34q0 -26 -14.5 -39.5t-34.5 -14.5q-66 0 -132 0.5t-129 2.5zM293 1651q12 0 28.5 -5t32 -15.5t26.5 -27t11 -40.5
q0 -50 -26 -76.5t-69 -26.5q-35 0 -61.5 26.5t-26.5 74.5q0 21 7.5 37.5t19.5 28t27.5 18t30.5 6.5z" />
    <glyph glyph-name="edotaccent" unicode="&#x117;" horiz-adv-x="571" 
d="M488 451q-36 -1 -76.5 -1h-82.5t-83.5 -0.5t-80.5 -1.5q6 -183 44.5 -274.5t116.5 -91.5q21 0 38.5 7.5t30.5 19.5t21.5 27t12.5 30q13 11 37 11q17 0 29.5 -11.5t12.5 -34.5q0 -20 -6.5 -37.5t-22.5 -36.5q-11 -12 -25.5 -24.5t-34 -22t-44.5 -16t-58 -6.5
q-72 0 -120.5 40t-78 112.5t-42 173t-12.5 220.5q0 123 16.5 218.5t47 161.5t73 100t95.5 34q205 0 205 -503q0 -22 -3.5 -50.5t-9.5 -43.5zM293 941q-27 0 -50.5 -22t-40.5 -70.5t-27 -125.5t-11 -186q61 2 122.5 2.5t118.5 3.5q-1 198 -31 298t-81 100zM295 1346
q12 0 28.5 -5t32 -15.5t26.5 -27t11 -40.5q0 -50 -26 -76.5t-69 -26.5q-35 0 -61.5 26.5t-26.5 74.5q0 21 7.5 37.5t19.5 28t27.5 18t30.5 6.5z" />
    <glyph glyph-name="Eogonek" unicode="&#x118;" horiz-adv-x="562" 
d="M520 22q-20 -32 -40 -62t-36 -58t-26 -54.5t-10 -50.5q0 -40 27 -51.5t78 -11.5q11 -13 11 -40t-20.5 -36.5t-55.5 -9.5q-66 0 -103 30t-37 97q0 52 27.5 105t68.5 116l-256 2q-20 0 -32 12t-12 35v322t-2 324q0 52 -0.5 114.5t-1 128t-1.5 129t-2 117.5t-3 94t-5 57
q15 16 57 16q81 0 170.5 -2.5t179.5 5.5q7 -7 12 -18t5 -34q0 -26 -14.5 -39.5t-34.5 -14.5q-66 0 -132 0.5t-129 2.5q0 -133 -0.5 -268.5t0.5 -268.5q28 1 59 1t62 1t59 2t50 4q12 -17 12 -55q0 -23 -9.5 -38.5t-34.5 -15.5q-49 0 -99 1.5t-99 2.5q0 -129 1 -258t1 -257h74
t81.5 1t80.5 2.5t71 3.5q5 -10 9 -24.5t4 -35.5q0 -8 -1.5 -13t-3.5 -10z" />
    <glyph glyph-name="eogonek" unicode="&#x119;" horiz-adv-x="571" 
d="M489 70q-24 -37 -45 -68t-36 -58t-23.5 -51.5t-8.5 -48.5q0 -40 27 -51t77 -11q12 -14 12 -40q0 -27 -20.5 -37t-55.5 -10q-67 0 -103.5 30.5t-36.5 96.5q0 41 18 82.5t44 84.5q-5 0 -10.5 -0.5t-10.5 -0.5q-72 0 -120.5 40t-78 112.5t-42 173t-12.5 220.5
q0 123 16.5 218.5t47 161.5t73 100t95.5 34q205 0 205 -503q0 -22 -3.5 -50.5t-9.5 -43.5q-36 -1 -76.5 -1h-82.5t-83.5 -0.5t-80.5 -1.5q6 -183 44.5 -274.5t116.5 -91.5q21 0 38.5 7.5t30.5 19.5t21.5 27t12.5 30q13 11 37 11q17 0 29.5 -11.5t12.5 -34.5q0 -18 -5 -32.5
t-14 -28.5zM293 941q-27 0 -50.5 -22t-40.5 -70.5t-27 -125.5t-11 -186q61 2 122.5 2.5t118.5 3.5q-1 198 -31 298t-81 100z" />
    <glyph glyph-name="Ecaron" unicode="&#x11a;" horiz-adv-x="562" 
d="M203 1247q0 -133 -0.5 -268.5t0.5 -268.5q28 1 59 1t62 1t59 2t50 4q12 -17 12 -55q0 -23 -9.5 -38.5t-34.5 -15.5q-49 0 -99 1.5t-99 2.5q0 -129 1 -258t1 -257h74t81.5 1t80.5 2.5t71 3.5q5 -10 9 -24.5t4 -35.5q0 -23 -13.5 -36t-36.5 -13q-85 0 -167 0.5t-160 1.5
q-20 0 -32 12t-12 35v322t-2 324q0 52 -0.5 114.5t-1 128t-1.5 129t-2 117.5t-3 94t-5 57q15 16 57 16q81 0 170.5 -2.5t179.5 5.5q7 -7 12 -18t5 -34q0 -26 -14.5 -39.5t-34.5 -14.5q-66 0 -132 0.5t-129 2.5zM350 1454q-12 -5 -29 -8t-32 -3q-29 0 -44 8t-20 25
q-9 26 -20 55.5t-23 59t-24 58t-24 54.5q8 11 23 18.5t35 7.5q28 0 42 -25q16 -34 31.5 -77t27.5 -80q19 38 41 83.5t39 87.5q10 4 19.5 6.5t23.5 2.5q21 0 33 -11.5t12 -28.5q0 -13 -8 -32q-9 -20 -22.5 -43t-27.5 -48.5t-28.5 -53t-24.5 -56.5z" />
    <glyph glyph-name="ecaron" unicode="&#x11b;" horiz-adv-x="571" 
d="M488 451q-36 -1 -76.5 -1h-82.5t-83.5 -0.5t-80.5 -1.5q6 -183 44.5 -274.5t116.5 -91.5q21 0 38.5 7.5t30.5 19.5t21.5 27t12.5 30q13 11 37 11q17 0 29.5 -11.5t12.5 -34.5q0 -20 -6.5 -37.5t-22.5 -36.5q-11 -12 -25.5 -24.5t-34 -22t-44.5 -16t-58 -6.5
q-72 0 -120.5 40t-78 112.5t-42 173t-12.5 220.5q0 123 16.5 218.5t47 161.5t73 100t95.5 34q205 0 205 -503q0 -22 -3.5 -50.5t-9.5 -43.5zM293 941q-27 0 -50.5 -22t-40.5 -70.5t-27 -125.5t-11 -186q61 2 122.5 2.5t118.5 3.5q-1 198 -31 298t-81 100zM352 1149
q-12 -5 -29 -8t-32 -3q-29 0 -44 8t-20 25q-9 26 -20 55.5t-23 59t-24 58t-24 54.5q8 11 23 18.5t35 7.5q28 0 42 -25q16 -34 31.5 -77t27.5 -80q19 38 41 83.5t39 87.5q10 4 19.5 6.5t23.5 2.5q21 0 33 -11.5t12 -28.5q0 -13 -8 -32q-9 -20 -22.5 -43t-27.5 -48.5
t-28.5 -53t-24.5 -56.5z" />
    <glyph glyph-name="Gcircumflex" unicode="&#x11c;" horiz-adv-x="617" 
d="M398 -11q-78 0 -140.5 46.5t-106 131.5t-67 205.5t-23.5 267.5q0 161 25 293.5t71 226.5t111.5 145.5t147.5 51.5q31 0 57 -6.5t41 -17.5q14 -9 20.5 -19.5t6.5 -30.5q0 -26 -10.5 -37.5t-18.5 -19.5q-8 4 -20 7.5t-25.5 5.5t-27 3t-23.5 1q-53 0 -99 -39t-80 -115.5
t-53.5 -189.5t-19.5 -261q0 -137 19.5 -238t52 -168.5t75 -100.5t89.5 -33q15 0 30 2.5t29 8.5q-10 109 -13 218t-1 209q-28 -2 -56 -2t-57 2q-17 2 -29 15t-11 32q1 11 3.5 25.5t9.5 23.5q44 -7 95.5 -3.5t96.5 2.5q20 0 32.5 -15.5t11.5 -38.5q-1 -65 -2 -141t-0.5 -150
t4.5 -140t14 -111q-27 -23 -70 -34.5t-89 -11.5zM333 1732q12 5 28.5 7.5t32.5 2.5q29 0 43.5 -7.5t20.5 -24.5q17 -54 42.5 -115t48.5 -112q-9 -11 -24 -18.5t-35 -7.5q-29 0 -41 25q-17 32 -32.5 75t-27.5 81q-19 -38 -41 -84t-39 -87q-9 -4 -18.5 -6t-24.5 -2
q-21 0 -32.5 11t-11.5 28q0 13 8 32q9 20 22.5 43.5t27.5 49t28 53t25 56.5z" />
    <glyph glyph-name="gcircumflex" unicode="&#x11d;" horiz-adv-x="581" 
d="M271 397q-25 0 -51 8q-8 -16 -11.5 -34t-3.5 -43q0 -36 29 -73t70 -65q69 -48 115.5 -87t74.5 -77.5t40 -80.5t12 -96t-20 -98t-54.5 -75.5t-80 -49t-96.5 -17.5q-115 0 -179.5 73t-64.5 208q0 47 9 89.5t23.5 78.5t34 65.5t40.5 50.5q-20 23 -33.5 54.5t-13.5 73.5
q0 43 12 81t34 64q-45 48 -67.5 132.5t-22.5 189.5q0 143 54.5 211.5t157.5 68.5q45 0 83 -12q4 90 36 128t81 38q28 0 47.5 -13.5t19.5 -41.5q0 -17 -6.5 -28.5t-14.5 -19.5q-7 4 -20 6t-21 2q-14 0 -23 -4.5t-15.5 -16.5t-10 -32.5t-5.5 -53.5q36 -31 55 -83t19 -128
q0 -90 -18 -163t-49.5 -124t-74 -78.5t-91.5 -27.5zM280 953q-50 0 -80 -45.5t-30 -136.5q0 -56 6.5 -107t19.5 -89t32.5 -60.5t46.5 -22.5q26 0 49 22t40 60t27 90.5t10 113.5q0 89 -31 132t-90 43zM439 -153q0 43 -11.5 74t-37.5 60.5t-68 61.5t-104 77q-26 -33 -44.5 -89
t-18.5 -135q0 -41 9.5 -76.5t27.5 -61.5t44.5 -40.5t61.5 -14.5q32 0 58 10.5t44.5 30t28.5 45.5t10 58zM238 1515q12 5 28.5 7.5t32.5 2.5q29 0 43.5 -7.5t20.5 -24.5q17 -54 42.5 -115t48.5 -112q-9 -11 -24 -18.5t-35 -7.5q-29 0 -41 25q-17 32 -32.5 75t-27.5 81
q-19 -38 -41 -84t-39 -87q-9 -4 -18.5 -6t-24.5 -2q-21 0 -32.5 11t-11.5 28q0 13 8 32q9 20 22.5 43.5t27.5 49t28 53t25 56.5z" />
    <glyph glyph-name="Gbreve" unicode="&#x11e;" horiz-adv-x="617" 
d="M398 -11q-78 0 -140.5 46.5t-106 131.5t-67 205.5t-23.5 267.5q0 161 25 293.5t71 226.5t111.5 145.5t147.5 51.5q31 0 57 -6.5t41 -17.5q14 -9 20.5 -19.5t6.5 -30.5q0 -26 -10.5 -37.5t-18.5 -19.5q-8 4 -20 7.5t-25.5 5.5t-27 3t-23.5 1q-53 0 -99 -39t-80 -115.5
t-53.5 -189.5t-19.5 -261q0 -137 19.5 -238t52 -168.5t75 -100.5t89.5 -33q15 0 30 2.5t29 8.5q-10 109 -13 218t-1 209q-28 -2 -56 -2t-57 2q-17 2 -29 15t-11 32q1 11 3.5 25.5t9.5 23.5q44 -7 95.5 -3.5t96.5 2.5q20 0 32.5 -15.5t11.5 -38.5q-1 -65 -2 -141t-0.5 -150
t4.5 -140t14 -111q-27 -23 -70 -34.5t-89 -11.5zM388 1446q-35 0 -66 11t-54 35t-36 63t-12 95q18 15 47 15q20 0 32 -10.5t11 -29.5q0 -54 22.5 -79.5t57.5 -25.5q40 0 67.5 30t19.5 93q6 8 18 13t26 5q20 0 32 -10.5t12 -33.5q0 -41 -13.5 -73t-37.5 -53.5t-56.5 -33
t-69.5 -11.5z" />
    <glyph glyph-name="gbreve" unicode="&#x11f;" horiz-adv-x="581" 
d="M271 397q-25 0 -51 8q-8 -16 -11.5 -34t-3.5 -43q0 -36 29 -73t70 -65q69 -48 115.5 -87t74.5 -77.5t40 -80.5t12 -96t-20 -98t-54.5 -75.5t-80 -49t-96.5 -17.5q-115 0 -179.5 73t-64.5 208q0 47 9 89.5t23.5 78.5t34 65.5t40.5 50.5q-20 23 -33.5 54.5t-13.5 73.5
q0 43 12 81t34 64q-45 48 -67.5 132.5t-22.5 189.5q0 143 54.5 211.5t157.5 68.5q45 0 83 -12q4 90 36 128t81 38q28 0 47.5 -13.5t19.5 -41.5q0 -17 -6.5 -28.5t-14.5 -19.5q-7 4 -20 6t-21 2q-14 0 -23 -4.5t-15.5 -16.5t-10 -32.5t-5.5 -53.5q36 -31 55 -83t19 -128
q0 -90 -18 -163t-49.5 -124t-74 -78.5t-91.5 -27.5zM280 953q-50 0 -80 -45.5t-30 -136.5q0 -56 6.5 -107t19.5 -89t32.5 -60.5t46.5 -22.5q26 0 49 22t40 60t27 90.5t10 113.5q0 89 -31 132t-90 43zM439 -153q0 43 -11.5 74t-37.5 60.5t-68 61.5t-104 77q-26 -33 -44.5 -89
t-18.5 -135q0 -41 9.5 -76.5t27.5 -61.5t44.5 -40.5t61.5 -14.5q32 0 58 10.5t44.5 30t28.5 45.5t10 58zM287 1209q-35 0 -66 11t-54 35t-36 63t-12 95q18 15 47 15q20 0 32 -10.5t11 -29.5q0 -54 22.5 -79.5t57.5 -25.5q40 0 67.5 30t19.5 93q6 8 18 13t26 5q20 0 32 -10.5
t12 -33.5q0 -41 -13.5 -73t-37.5 -53.5t-56.5 -33t-69.5 -11.5z" />
    <glyph glyph-name="Gdotaccent" unicode="&#x120;" horiz-adv-x="617" 
d="M398 -11q-78 0 -140.5 46.5t-106 131.5t-67 205.5t-23.5 267.5q0 161 25 293.5t71 226.5t111.5 145.5t147.5 51.5q31 0 57 -6.5t41 -17.5q14 -9 20.5 -19.5t6.5 -30.5q0 -26 -10.5 -37.5t-18.5 -19.5q-8 4 -20 7.5t-25.5 5.5t-27 3t-23.5 1q-53 0 -99 -39t-80 -115.5
t-53.5 -189.5t-19.5 -261q0 -137 19.5 -238t52 -168.5t75 -100.5t89.5 -33q15 0 30 2.5t29 8.5q-10 109 -13 218t-1 209q-28 -2 -56 -2t-57 2q-17 2 -29 15t-11 32q1 11 3.5 25.5t9.5 23.5q44 -7 95.5 -3.5t96.5 2.5q20 0 32.5 -15.5t11.5 -38.5q-1 -65 -2 -141t-0.5 -150
t4.5 -140t14 -111q-27 -23 -70 -34.5t-89 -11.5zM382 1649q12 0 28.5 -5t32 -15.5t26.5 -27t11 -40.5q0 -50 -26 -76.5t-69 -26.5q-35 0 -61.5 26.5t-26.5 74.5q0 21 7.5 37.5t19.5 28t27.5 18t30.5 6.5z" />
    <glyph glyph-name="gdotaccent" unicode="&#x121;" horiz-adv-x="581" 
d="M271 397q-25 0 -51 8q-8 -16 -11.5 -34t-3.5 -43q0 -36 29 -73t70 -65q69 -48 115.5 -87t74.5 -77.5t40 -80.5t12 -96t-20 -98t-54.5 -75.5t-80 -49t-96.5 -17.5q-115 0 -179.5 73t-64.5 208q0 47 9 89.5t23.5 78.5t34 65.5t40.5 50.5q-20 23 -33.5 54.5t-13.5 73.5
q0 43 12 81t34 64q-45 48 -67.5 132.5t-22.5 189.5q0 143 54.5 211.5t157.5 68.5q45 0 83 -12q4 90 36 128t81 38q28 0 47.5 -13.5t19.5 -41.5q0 -17 -6.5 -28.5t-14.5 -19.5q-7 4 -20 6t-21 2q-14 0 -23 -4.5t-15.5 -16.5t-10 -32.5t-5.5 -53.5q36 -31 55 -83t19 -128
q0 -90 -18 -163t-49.5 -124t-74 -78.5t-91.5 -27.5zM280 953q-50 0 -80 -45.5t-30 -136.5q0 -56 6.5 -107t19.5 -89t32.5 -60.5t46.5 -22.5q26 0 49 22t40 60t27 90.5t10 113.5q0 89 -31 132t-90 43zM439 -153q0 43 -11.5 74t-37.5 60.5t-68 61.5t-104 77q-26 -33 -44.5 -89
t-18.5 -135q0 -41 9.5 -76.5t27.5 -61.5t44.5 -40.5t61.5 -14.5q32 0 58 10.5t44.5 30t28.5 45.5t10 58zM284 1414q12 0 28.5 -5t32 -15.5t26.5 -27t11 -40.5q0 -50 -26 -76.5t-69 -26.5q-35 0 -61.5 26.5t-26.5 74.5q0 21 7.5 37.5t19.5 28t27.5 18t30.5 6.5z" />
    <glyph glyph-name="Gcommaaccent" unicode="&#x122;" horiz-adv-x="617" 
d="M398 -11q-78 0 -140.5 46.5t-106 131.5t-67 205.5t-23.5 267.5q0 161 25 293.5t71 226.5t111.5 145.5t147.5 51.5q31 0 57 -6.5t41 -17.5q14 -9 20.5 -19.5t6.5 -30.5q0 -26 -10.5 -37.5t-18.5 -19.5q-8 4 -20 7.5t-25.5 5.5t-27 3t-23.5 1q-53 0 -99 -39t-80 -115.5
t-53.5 -189.5t-19.5 -261q0 -137 19.5 -238t52 -168.5t75 -100.5t89.5 -33q15 0 30 2.5t29 8.5q-10 109 -13 218t-1 209q-28 -2 -56 -2t-57 2q-17 2 -29 15t-11 32q1 11 3.5 25.5t9.5 23.5q44 -7 95.5 -3.5t96.5 2.5q20 0 32.5 -15.5t11.5 -38.5q-1 -65 -2 -141t-0.5 -150
t4.5 -140t14 -111q-27 -23 -70 -34.5t-89 -11.5zM335 -429q29 16 50 46.5t32 78.5q-54 4 -75 30t-21 80q0 38 8.5 60t19.5 37q29 3 53.5 1.5t47.5 -9.5q33 -11 46.5 -41t12.5 -74q0 -38 -10.5 -82.5t-27.5 -82.5t-40.5 -63.5t-49.5 -25.5q-17 0 -31 12.5t-15 32.5z" />
    <glyph glyph-name="gcommaaccent" unicode="&#x123;" horiz-adv-x="581" 
d="M271 397q-25 0 -51 8q-8 -16 -11.5 -34t-3.5 -43q0 -36 29 -73t70 -65q69 -48 115.5 -87t74.5 -77.5t40 -80.5t12 -96t-20 -98t-54.5 -75.5t-80 -49t-96.5 -17.5q-115 0 -179.5 73t-64.5 208q0 47 9 89.5t23.5 78.5t34 65.5t40.5 50.5q-20 23 -33.5 54.5t-13.5 73.5
q0 43 12 81t34 64q-45 48 -67.5 132.5t-22.5 189.5q0 143 54.5 211.5t157.5 68.5q45 0 83 -12q4 90 36 128t81 38q28 0 47.5 -13.5t19.5 -41.5q0 -17 -6.5 -28.5t-14.5 -19.5q-7 4 -20 6t-21 2q-14 0 -23 -4.5t-15.5 -16.5t-10 -32.5t-5.5 -53.5q36 -31 55 -83t19 -128
q0 -90 -18 -163t-49.5 -124t-74 -78.5t-91.5 -27.5zM280 953q-50 0 -80 -45.5t-30 -136.5q0 -56 6.5 -107t19.5 -89t32.5 -60.5t46.5 -22.5q26 0 49 22t40 60t27 90.5t10 113.5q0 89 -31 132t-90 43zM439 -153q0 43 -11.5 74t-37.5 60.5t-68 61.5t-104 77q-26 -33 -44.5 -89
t-18.5 -135q0 -41 9.5 -76.5t27.5 -61.5t44.5 -40.5t61.5 -14.5q32 0 58 10.5t44.5 30t28.5 45.5t10 58zM353 1509q-27 -16 -47 -44t-30 -73q51 -4 70.5 -28t19.5 -72q0 -35 -7.5 -55t-18.5 -34q-55 -5 -93 8q-31 10 -43.5 37t-11.5 68q1 35 10.5 76t25.5 75.5t37.5 57.5
t45.5 23q15 0 28 -10.5t14 -28.5z" />
    <glyph glyph-name="Hcircumflex" unicode="&#x124;" horiz-adv-x="710" 
d="M158 -8q-23 0 -38 14t-15 42v124.5t-0.5 156t-1 169.5t-1.5 165q-1 54 -1.5 117t-1.5 128t-2 129.5t-1.5 122t0 104.5t1.5 78q12 5 23 7.5t31 2.5q26 0 42 -12.5t16 -45.5v-106.5v-141v-164v-176.5v-20q74 3 147 4.5t145 -0.5q-1 78 -3 173t-5 186.5t-6.5 168t-6.5 118.5
q22 14 69 14q26 0 40.5 -14t14.5 -46v-121t0.5 -165.5t0.5 -183.5v-175q0 -85 1.5 -179.5t3 -182.5t3 -161t1.5 -115q-10 -8 -19.5 -13t-32.5 -5q-28 0 -44 14t-16 41v108.5v134v148.5v151q-146 5 -293 3q1 -92 1.5 -182.5t1.5 -168.5t1.5 -139t1.5 -94q-10 -6 -20.5 -9.5
t-36.5 -3.5zM293 1734q12 5 28.5 7.5t32.5 2.5q29 0 43.5 -7.5t20.5 -24.5q17 -54 42.5 -115t48.5 -112q-9 -11 -24 -18.5t-35 -7.5q-29 0 -41 25q-17 32 -32.5 75t-27.5 81q-19 -38 -41 -84t-39 -87q-9 -4 -18.5 -6t-24.5 -2q-21 0 -32.5 11t-11.5 28q0 13 8 32
q9 20 22.5 43.5t27.5 49t28 53t25 56.5z" />
    <glyph glyph-name="hcircumflex" unicode="&#x125;" horiz-adv-x="630" 
d="M213 1367q1 -70 -0.5 -136.5t-4 -133t-4 -134t-1.5 -137.5q10 45 27.5 85.5t42.5 71.5t58 49.5t75 18.5q66 0 101.5 -68.5t33.5 -217.5q-1 -90 -0.5 -189t2 -199.5t4 -197.5t5.5 -182q-6 -5 -21.5 -8.5t-35.5 -3.5q-48 0 -49 51q-3 100 -3.5 199t-0.5 189.5t0.5 169.5
t-0.5 140q-2 91 -19.5 139t-57.5 48q-29 0 -52 -17t-40 -45t-29.5 -62t-20 -69t-12 -66t-5.5 -52q-2 -52 -2.5 -123t0 -151.5t2 -166.5t4.5 -167q-10 -6 -21.5 -11t-34.5 -5q-28 0 -39 17t-11 40q2 184 2.5 369.5t-1 364t-4.5 344.5t-8 310q10 9 23.5 16.5t38.5 7.5
q28 0 42.5 -23t15.5 -65zM102 1819q12 5 28.5 7.5t32.5 2.5q29 0 43.5 -7.5t20.5 -24.5q17 -54 42.5 -115t48.5 -112q-9 -11 -24 -18.5t-35 -7.5q-29 0 -41 25q-17 32 -32.5 75t-27.5 81q-19 -38 -41 -84t-39 -87q-9 -4 -18.5 -6t-24.5 -2q-21 0 -32.5 11t-11.5 28
q0 13 8 32q9 20 22.5 43.5t27.5 49t28 53t25 56.5z" />
    <glyph glyph-name="Hbar" unicode="&#x126;" horiz-adv-x="710" 
d="M158 -8q-23 0 -38 14t-15 42v124.5t-0.5 156t-1 169.5t-1.5 165l-4 286h-78q-16 -1 -30.5 14t-14.5 40q0 21 3.5 32t11.5 20q17 -1 44.5 -2t61.5 -1q-1 91 -1 168t2 122q12 5 23 7.5t31 2.5q26 0 42 -12.5t16 -45.5q0 -42 -0.5 -105.5t-0.5 -137.5q70 -1 144 -0.5
t141 0.5q-3 91 -6.5 167t-6.5 118q22 14 69 14q26 0 40.5 -14t14.5 -46v-238l68 2q17 0 29 -14t12 -37q0 -20 -3.5 -32.5t-9.5 -22.5q-14 1 -38.5 1t-56.5 1v-305q0 -85 1.5 -179.5t3 -182.5t3 -161t1.5 -115q-10 -8 -19.5 -13t-32.5 -5q-28 0 -44 14t-16 41v108.5v134
v148.5v151q-146 5 -293 3q1 -92 1.5 -182.5t1.5 -168.5t1.5 -139t1.5 -94q-10 -6 -20.5 -9.5t-36.5 -3.5zM208 950v-119t1 -125v-20q74 3 147 4.5t145 -0.5q-1 57 -2.5 124t-3.5 136h-287z" />
    <glyph glyph-name="hbar" unicode="&#x127;" horiz-adv-x="630" 
d="M213 1292q43 3 82 5t69 3q26 0 39.5 -13t13.5 -36q0 -20 -3.5 -31.5t-9.5 -21.5q-30 2 -82 -0.5t-111 -4.5q-2 -91 -5 -180.5t-3 -186.5q10 45 27.5 85.5t42.5 71.5t58 49.5t75 18.5q66 0 101.5 -68.5t33.5 -217.5q-1 -90 -0.5 -189t2 -199.5t4 -197.5t5.5 -182
q-6 -5 -21.5 -8.5t-35.5 -3.5q-48 0 -49 51q-3 100 -3.5 199t-0.5 189.5t0.5 169.5t-0.5 140q-2 91 -19.5 139t-57.5 48q-29 0 -52 -17t-40 -45t-29.5 -62t-20 -69t-12 -66t-5.5 -52q-2 -52 -2.5 -123t0 -151.5t2 -166.5t4.5 -167q-10 -6 -21.5 -11t-34.5 -5q-28 0 -39 17
t-11 40q1 147 2 296t0.5 294.5t-2 285.5t-4.5 269q-24 -1 -45.5 -1h-40.5t-32 14.5t-13 33.5q0 20 3.5 30t11.5 19q24 -2 52.5 -1.5t60.5 2.5l-4 146q10 9 23.5 16.5t38.5 7.5q28 0 42.5 -23t15.5 -65v-75z" />
    <glyph glyph-name="Itilde" unicode="&#x128;" horiz-adv-x="312" 
d="M161 -16q-26 0 -41.5 15t-15.5 46q0 178 0.5 346.5t-0.5 340.5q0 78 -1 159t-2.5 160t-3.5 153t-6 137q12 7 28.5 10t32.5 3q26 0 40.5 -15.5t15.5 -52.5q0 -58 -0.5 -124t-0.5 -138v-148v-153q1 -183 5.5 -369t5.5 -356q-12 -6 -26 -10t-31 -4zM241 1482q-28 0 -54 9.5
t-49 20.5t-44 20.5t-39 9.5q-8 0 -17.5 -3t-18.5 -9.5t-15.5 -17t-9.5 -25.5q-11 -8 -32 -8q-22 0 -34.5 14.5t-12.5 36.5q0 25 11.5 44.5t30 33t41.5 21t45 7.5q30 0 56.5 -10t49.5 -22t44 -22t39 -10q19 0 36.5 11t22.5 39q5 3 12 6t20 3q17 0 30 -13.5t13 -36.5
q0 -19 -9.5 -37t-26.5 -31.5t-39.5 -22t-49.5 -8.5z" />
    <glyph glyph-name="itilde" unicode="&#x129;" horiz-adv-x="302" 
d="M148 -13q-9 0 -19 3t-19 9t-14.5 15.5t-4.5 23.5q4 121 5 254.5t0 265.5t-1 255t3 223q8 5 19.5 9t31.5 4t36.5 -11.5t15.5 -32.5q-3 -109 -5 -237t-2 -261t0.5 -263.5t1.5 -244.5q-8 -5 -17.5 -8.5t-30.5 -3.5zM244 1177q-28 0 -54 9.5t-49 20.5t-44 20.5t-39 9.5
q-8 0 -17.5 -3t-18.5 -9.5t-15.5 -17t-9.5 -25.5q-11 -8 -32 -8q-22 0 -34.5 14.5t-12.5 36.5q0 25 11.5 44.5t30 33t41.5 21t45 7.5q30 0 56.5 -10t49.5 -22t44 -22t39 -10q19 0 36.5 11t22.5 39q5 3 12 6t20 3q17 0 30 -13.5t13 -36.5q0 -19 -9.5 -37t-26.5 -31.5
t-39.5 -22t-49.5 -8.5z" />
    <glyph glyph-name="Imacron" unicode="&#x12a;" horiz-adv-x="312" 
d="M161 -16q-26 0 -41.5 15t-15.5 46q0 178 0.5 346.5t-0.5 340.5q0 78 -1 159t-2.5 160t-3.5 153t-6 137q12 7 28.5 10t32.5 3q26 0 40.5 -15.5t15.5 -52.5q0 -58 -0.5 -124t-0.5 -138v-148v-153q1 -183 5.5 -369t5.5 -356q-12 -6 -26 -10t-31 -4zM330 1546q0 -17 -4 -27.5
t-9 -20.5q-38 2 -79.5 2.5t-82.5 0t-81 -1t-75 -0.5q-24 0 -32 15.5t-8 35.5q0 17 2.5 29.5t10.5 22.5q35 -3 76.5 -3t83.5 1t83.5 2t76.5 0q23 -1 30.5 -15.5t7.5 -40.5z" />
    <glyph glyph-name="imacron" unicode="&#x12b;" horiz-adv-x="302" 
d="M148 -13q-9 0 -19 3t-19 9t-14.5 15.5t-4.5 23.5q4 121 5 254.5t0 265.5t-1 255t3 223q8 5 19.5 9t31.5 4t36.5 -11.5t15.5 -32.5q-3 -109 -5 -237t-2 -261t0.5 -263.5t1.5 -244.5q-8 -5 -17.5 -8.5t-30.5 -3.5zM333 1241q0 -17 -4 -27.5t-9 -20.5q-38 2 -79.5 2.5
t-82.5 0t-81 -1t-75 -0.5q-24 0 -32 15.5t-8 35.5q0 17 2.5 29.5t10.5 22.5q35 -3 76.5 -3t83.5 1t83.5 2t76.5 0q23 -1 30.5 -15.5t7.5 -40.5z" />
    <glyph glyph-name="Ibreve" unicode="&#x12c;" horiz-adv-x="312" 
d="M161 -16q-26 0 -41.5 15t-15.5 46q0 178 0.5 346.5t-0.5 340.5q0 78 -1 159t-2.5 160t-3.5 153t-6 137q12 7 28.5 10t32.5 3q26 0 40.5 -15.5t15.5 -52.5q0 -58 -0.5 -124t-0.5 -138v-148v-153q1 -183 5.5 -369t5.5 -356q-12 -6 -26 -10t-31 -4zM149 1448q-35 0 -66 11
t-54 35t-36 63t-12 95q18 15 47 15q20 0 32 -10.5t11 -29.5q0 -54 22.5 -79.5t57.5 -25.5q40 0 67.5 30t19.5 93q6 8 18 13t26 5q20 0 32 -10.5t12 -33.5q0 -41 -13.5 -73t-37.5 -53.5t-56.5 -33t-69.5 -11.5z" />
    <glyph glyph-name="ibreve" unicode="&#x12d;" horiz-adv-x="302" 
d="M148 -13q-9 0 -19 3t-19 9t-14.5 15.5t-4.5 23.5q4 121 5 254.5t0 265.5t-1 255t3 223q8 5 19.5 9t31.5 4t36.5 -11.5t15.5 -32.5q-3 -109 -5 -237t-2 -261t0.5 -263.5t1.5 -244.5q-8 -5 -17.5 -8.5t-30.5 -3.5zM152 1143q-35 0 -66 11t-54 35t-36 63t-12 95q18 15 47 15
q20 0 32 -10.5t11 -29.5q0 -54 22.5 -79.5t57.5 -25.5q40 0 67.5 30t19.5 93q6 8 18 13t26 5q20 0 32 -10.5t12 -33.5q0 -41 -13.5 -73t-37.5 -53.5t-56.5 -33t-69.5 -11.5z" />
    <glyph glyph-name="Iogonek" unicode="&#x12e;" horiz-adv-x="312" 
d="M218 -2q-20 -31 -40 -61t-36 -58.5t-26 -55t-10 -50.5q0 -40 27 -51t77 -11q12 -14 12 -40q0 -27 -20.5 -37t-55.5 -10q-67 0 -103.5 30t-36.5 97q0 28 9 57t24.5 59.5t36 63.5t43.5 69q-15 15 -15 45q0 178 0.5 346.5t-0.5 340.5q0 78 -1 159t-2.5 160t-3.5 153t-6 137
q12 7 28.5 10t32.5 3q26 0 40.5 -15.5t15.5 -52.5q0 -58 -0.5 -124t-0.5 -138v-148v-153q1 -183 5.5 -369t5.5 -356z" />
    <glyph glyph-name="iogonek" unicode="&#x12f;" horiz-adv-x="302" 
d="M196 -1q-20 -31 -40 -61t-36 -58.5t-26 -55t-10 -50.5q0 -40 27 -51t77 -11q11 -12 11 -40q0 -27 -20 -37t-55 -10q-67 0 -103.5 30t-36.5 97q0 29 9.5 58.5t25.5 60.5t37 64.5t45 70.5q-11 13 -10 32q4 121 5 254.5t0 265.5t-1 255t3 223q8 5 19.5 9t31.5 4t36.5 -11.5
t15.5 -32.5q-3 -109 -5 -237t-2 -261t0.5 -263.5t1.5 -244.5zM155 1187q-23 0 -36 13t-11 36q1 38 0.5 73.5t-2.5 77.5q20 15 53 15q18 0 35 -11t17 -32q0 -38 -1 -78t0 -78q-11 -7 -25 -11.5t-30 -4.5z" />
    <glyph glyph-name="Idotaccent" unicode="&#x130;" horiz-adv-x="312" 
d="M161 -16q-26 0 -41.5 15t-15.5 46q0 178 0.5 346.5t-0.5 340.5q0 78 -1 159t-2.5 160t-3.5 153t-6 137q12 7 28.5 10t32.5 3q26 0 40.5 -15.5t15.5 -52.5q0 -58 -0.5 -124t-0.5 -138v-148v-153q1 -183 5.5 -369t5.5 -356q-12 -6 -26 -10t-31 -4zM143 1651q12 0 28.5 -5
t32 -15.5t26.5 -27t11 -40.5q0 -50 -26 -76.5t-69 -26.5q-35 0 -61.5 26.5t-26.5 74.5q0 21 7.5 37.5t19.5 28t27.5 18t30.5 6.5z" />
    <glyph glyph-name="dotlessi" unicode="&#x131;" horiz-adv-x="302" 
d="M148 -13q-9 0 -19 3t-19 9t-14.5 15.5t-4.5 23.5q4 121 5 254.5t0 265.5t-1 255t3 223q8 5 19.5 9t31.5 4t36.5 -11.5t15.5 -32.5q-3 -109 -5 -237t-2 -261t0.5 -263.5t1.5 -244.5q-8 -5 -17.5 -8.5t-30.5 -3.5z" />
    <glyph glyph-name="IJ" unicode="&#x132;" horiz-adv-x="643" 
d="M161 -16q-26 0 -41.5 15t-15.5 46q0 178 0.5 346.5t-0.5 340.5q0 78 -1 159t-2.5 160t-3.5 153t-6 137q12 7 28.5 10t32.5 3q26 0 40.5 -15.5t15.5 -52.5q0 -58 -0.5 -124t-0.5 -138v-148v-153q1 -183 5.5 -369t5.5 -356q-12 -6 -26 -10t-31 -4zM298 -337q-17 0 -36 10
t-20 35q0 17 2.5 31t11.5 24q43 13 77.5 31t59 48t37.5 76.5t12 117.5q-2 200 -5 407t-5 407q0 64 -1.5 130.5t-3 130.5t-3 123.5t-2.5 109.5q12 7 30.5 9t35.5 2q22 0 36.5 -14t14.5 -43q0 -68 -0.5 -130.5t-1 -126.5t-1 -132.5t0.5 -149.5q1 -83 2 -179t2.5 -195t3 -195.5
t2.5 -178.5q1 -73 -10 -125.5t-34 -91.5t-58.5 -67t-84.5 -50q-33 -14 -62 -14z" />
    <glyph glyph-name="ij" unicode="&#x133;" horiz-adv-x="597" 
d="M148 -13q-9 0 -19 3t-19 9t-14.5 15.5t-4.5 23.5q4 121 5 254.5t0 265.5t-1 255t3 223q8 5 19.5 9t31.5 4t36.5 -11.5t15.5 -32.5q-3 -109 -5 -237t-2 -261t0.5 -263.5t1.5 -244.5q-8 -5 -17.5 -8.5t-30.5 -3.5zM155 1187q-23 0 -36 13t-11 36q1 38 0.5 73.5t-2.5 77.5
q20 15 53 15q18 0 35 -11t17 -32q0 -38 -1 -78t0 -78q-11 -7 -25 -11.5t-30 -4.5zM438 1180q-21 0 -34.5 9.5t-13.5 29.5q0 18 0.5 39t1 43.5t-0.5 44.5t-4 42q12 7 24 11t32 4q9 0 18 -3t16.5 -9.5t12 -16t3.5 -22.5q-1 -34 -3 -76t1 -76q-10 -11 -22 -15.5t-31 -4.5z
M261 -380q-32 0 -49 16t-17 36q0 15 2.5 27t8.5 27q48 -2 85 7t62.5 31t38.5 59t13 93q0 142 -1.5 281.5t-4 278.5t-4.5 277.5t-3 278.5q9 8 25.5 11t30.5 3q18 0 34 -9.5t16 -29.5q0 -140 0.5 -276.5t2 -273t2.5 -274.5t3 -282q1 -76 -17 -129.5t-50.5 -87t-78 -49
t-99.5 -15.5z" />
    <glyph glyph-name="Jcircumflex" unicode="&#x134;" horiz-adv-x="331" 
d="M-14 -337q-17 0 -36 10t-20 35q0 17 2.5 31t11.5 24q43 13 77.5 31t59 48t37.5 76.5t12 117.5q-2 200 -5 407t-5 407q0 64 -1.5 130.5t-3 130.5t-3 123.5t-2.5 109.5q12 7 30.5 9t35.5 2q22 0 36.5 -14t14.5 -43q0 -68 -0.5 -130.5t-1 -126.5t-1 -132.5t0.5 -149.5
q1 -83 2 -179t2.5 -195t3 -195.5t2.5 -178.5q1 -73 -10 -125.5t-34 -91.5t-58.5 -67t-84.5 -50q-33 -14 -62 -14zM118 1736q12 5 28.5 7.5t32.5 2.5q29 0 43.5 -7.5t20.5 -24.5q17 -54 42.5 -115t48.5 -112q-9 -11 -24 -18.5t-35 -7.5q-29 0 -41 25q-17 32 -32.5 75
t-27.5 81q-19 -38 -41 -84t-39 -87q-9 -4 -18.5 -6t-24.5 -2q-21 0 -32.5 11t-11.5 28q0 13 8 32q9 20 22.5 43.5t27.5 49t28 53t25 56.5z" />
    <glyph glyph-name="jcircumflex" unicode="&#x135;" horiz-adv-x="295" 
d="M95 1429q12 5 28.5 7.5t32.5 2.5q29 0 43.5 -7.5t20.5 -24.5q17 -54 42.5 -115t48.5 -112q-9 -11 -24 -18.5t-35 -7.5q-29 0 -41 25q-17 32 -32.5 75t-27.5 81q-19 -38 -41 -84t-39 -87q-9 -4 -18.5 -6t-24.5 -2q-21 0 -32.5 11t-11.5 28q0 13 8 32q9 20 22.5 43.5
t27.5 49t28 53t25 56.5zM-41 -380q-32 0 -49 16t-17 36q0 15 2.5 27t8.5 27q48 -2 85 7t62.5 31t38.5 59t13 93q0 142 -1.5 281.5t-4 278.5t-4.5 277.5t-3 278.5q9 8 25.5 11t30.5 3q18 0 34 -9.5t16 -29.5q0 -140 0.5 -276.5t2 -273t2.5 -274.5t3 -282q1 -76 -17 -129.5
t-50.5 -87t-78 -49t-99.5 -15.5z" />
    <glyph glyph-name="Kcommaaccent" unicode="&#x136;" horiz-adv-x="677" 
d="M551 1105q0 -81 -19 -171.5t-52.5 -175.5t-78 -156t-95.5 -113q27 -16 49 -47t42 -71.5t40 -88.5t44 -98q19 -39 38.5 -64t38.5 -25q16 0 27 5t21 15q13 -5 22.5 -19t9.5 -37q0 -34 -24.5 -54.5t-66.5 -20.5q-49 0 -88 40t-81 130q-21 43 -40 88.5t-39.5 84t-44 66
t-53.5 34.5q-1 -56 0 -112.5t2.5 -110.5t3.5 -103.5t3 -92.5q-8 -6 -20.5 -11t-36.5 -5t-39 14.5t-15 40.5q-1 188 -0.5 384t-1.5 394q-2 150 -4 274t-2 241q9 5 24 9.5t33 4.5q26 0 39 -16t13 -45q-1 -180 -1.5 -373.5t2.5 -391.5q51 40 95.5 106.5t78 143.5t52.5 158
t19 151q0 89 -9 143t-22 92q11 13 23.5 20t32.5 7q18 0 33 -8t23 -28q8 -25 16 -77.5t8 -130.5zM270 -428q29 16 50 46.5t32 78.5q-54 4 -75 30t-21 80q0 38 8.5 60t19.5 37q29 3 53.5 1.5t47.5 -9.5q33 -11 46.5 -41t12.5 -74q0 -38 -10.5 -82.5t-27.5 -82.5t-40.5 -63.5
t-49.5 -25.5q-17 0 -31 12.5t-15 32.5z" />
    <glyph glyph-name="kcommaaccent" unicode="&#x137;" horiz-adv-x="547" 
d="M192 -1q-10 -5 -22.5 -8t-29.5 -3q-26 0 -40 12.5t-12 38.5q1 94 0 202t-3 224.5t-5 239.5t-5 246.5t-3.5 245t0.5 235.5q7 8 17.5 17t36.5 8q26 0 41.5 -15.5t13.5 -41.5q-5 -261 -4.5 -517.5t6.5 -515.5q94 72 140 176.5t46 227.5q0 40 -9.5 74.5t-27.5 60t-43.5 40.5
t-56.5 16q-4 5 -6 15.5t-2 22.5q1 23 15.5 36.5t41.5 13.5q44 0 80 -21t61 -58.5t38.5 -89t13.5 -112.5q0 -62 -16.5 -127t-46 -124.5t-69.5 -109t-87 -79.5q31 -16 57 -52.5t49 -74t45 -66t45 -28.5q15 0 25 6t18 12q12 -5 24 -16.5t12 -38.5q0 -35 -27 -59t-65 -24
q-32 0 -56 18t-42.5 45.5t-34 60.5t-32.5 62.5t-37 52t-47 28.5q2 -29 3 -62.5t1.5 -68t0 -67t-1.5 -58.5zM219 -429q29 16 50 46.5t32 78.5q-54 4 -75 30t-21 80q0 38 8.5 60t19.5 37q29 3 53.5 1.5t47.5 -9.5q33 -11 46.5 -41t12.5 -74q0 -38 -10.5 -82.5t-27.5 -82.5
t-40.5 -63.5t-49.5 -25.5q-17 0 -31 12.5t-15 32.5z" />
    <glyph glyph-name="kgreenlandic" unicode="&#x138;" horiz-adv-x="547" 
d="M192 -1q-10 -5 -22.5 -8t-29.5 -3q-26 0 -40 12.5t-12 38.5q2 94 1 172t-2.5 150.5t-4 143t-4 149.5t-2.5 170.5t1 205.5q7 8 17.5 17t36.5 9q26 -1 36.5 -16.5t10.5 -41.5q1 -75 1 -127.5v-94.5v-80v-83t1 -103.5t3 -142.5q94 72 140 176.5t46 227.5q0 40 -9.5 74.5
t-27.5 60t-43.5 40.5t-56.5 16q-4 5 -6 15.5t-2 22.5q1 23 15.5 36.5t41.5 13.5q44 0 80 -21t61 -58.5t38.5 -89t13.5 -112.5q0 -62 -16.5 -127t-46 -124.5t-69.5 -109t-87 -79.5q31 -16 57 -52.5t49 -74t45 -66t45 -28.5q15 0 25 6t18 12q12 -5 24 -16.5t12 -38.5
q0 -35 -27 -59t-65 -24q-32 0 -56 18t-42.5 45.5t-34 60.5t-32.5 62.5t-37 52t-47 28.5q2 -29 3 -62.5t1.5 -68t0 -67t-1.5 -58.5z" />
    <glyph glyph-name="Lacute" unicode="&#x139;" horiz-adv-x="514" 
d="M436 -9q-36 0 -76 2t-81 4t-81.5 2.5t-77.5 -2.5q-8 7 -11.5 18.5t-3.5 34.5q-2 144 -1.5 298t-1.5 300q-2 174 -5 352.5t-4 346.5q8 5 24.5 7t35.5 2q26 0 39.5 -14.5t14.5 -36.5q1 -141 -3 -288.5t-2 -297.5q2 -155 4 -308.5t9 -305.5q66 -6 130.5 -1t124.5 3
q8 -8 13 -23.5t5 -32.5q1 -27 -14 -43t-38 -17zM123 1446q-22 0 -34 11.5t-12 28.5q0 8 1.5 15t6.5 18q9 20 21 44.5t26 50.5t27.5 54t25.5 56q14 8 41 8q19 0 32.5 -12.5t13.5 -32.5q0 -5 -0.5 -11.5t-4.5 -15.5q-9 -19 -21.5 -43t-26.5 -51t-27.5 -56t-24.5 -56
q-9 -4 -19 -6t-25 -2z" />
    <glyph glyph-name="lacute" unicode="&#x13a;" horiz-adv-x="431" 
d="M312 -14q-103 0 -160 74.5t-58 205.5q-2 147 -1.5 286t1 280t1 289.5t-2.5 315.5q7 10 19.5 15t33.5 5q27 1 41.5 -17t14.5 -44q0 -154 -2 -297.5t-4.5 -280t-3.5 -268.5t1 -262q0 -41 9 -75.5t25.5 -60t40 -40t54.5 -14.5q23 0 39.5 4t34.5 15q23 -17 23 -65
q0 -15 -9 -27.5t-24 -21t-34 -13t-39 -4.5zM117 1537q-22 0 -34 11.5t-12 28.5q0 8 1.5 15t6.5 18q9 20 21 44.5t26 50.5t27.5 54t25.5 56q14 8 41 8q19 0 32.5 -12.5t13.5 -32.5q0 -5 -0.5 -11.5t-4.5 -15.5q-9 -19 -21.5 -43t-26.5 -51t-27.5 -56t-24.5 -56q-9 -4 -19 -6
t-25 -2z" />
    <glyph glyph-name="Lcommaaccent" unicode="&#x13b;" horiz-adv-x="514" 
d="M436 -9q-36 0 -76 2t-81 4t-81.5 2.5t-77.5 -2.5q-8 7 -11.5 18.5t-3.5 34.5q-2 144 -1.5 298t-1.5 300q-2 174 -5 352.5t-4 346.5q8 5 24.5 7t35.5 2q26 0 39.5 -14.5t14.5 -36.5q1 -141 -3 -288.5t-2 -297.5q2 -155 4 -308.5t9 -305.5q66 -6 130.5 -1t124.5 3
q8 -8 13 -23.5t5 -32.5q1 -27 -14 -43t-38 -17zM239 -428q29 16 50 46.5t32 78.5q-54 4 -75 30t-21 80q0 38 8.5 60t19.5 37q29 3 53.5 1.5t47.5 -9.5q33 -11 46.5 -41t12.5 -74q0 -38 -10.5 -82.5t-27.5 -82.5t-40.5 -63.5t-49.5 -25.5q-17 0 -31 12.5t-15 32.5z" />
    <glyph glyph-name="lcommaaccent" unicode="&#x13c;" horiz-adv-x="431" 
d="M312 -14q-103 0 -160 74.5t-58 205.5q-2 147 -1.5 286t1 280t1 289.5t-2.5 315.5q7 10 19.5 15t33.5 5q27 1 41.5 -17t14.5 -44q0 -154 -2 -297.5t-4.5 -280t-3.5 -268.5t1 -262q0 -41 9 -75.5t25.5 -60t40 -40t54.5 -14.5q23 0 39.5 4t34.5 15q23 -17 23 -65
q0 -15 -9 -27.5t-24 -21t-34 -13t-39 -4.5zM173 -431q29 16 50 46.5t32 78.5q-54 4 -75 30t-21 80q0 38 8.5 60t19.5 37q29 3 53.5 1.5t47.5 -9.5q33 -11 46.5 -41t12.5 -74q0 -38 -10.5 -82.5t-27.5 -82.5t-40.5 -63.5t-49.5 -25.5q-17 0 -31 12.5t-15 32.5z" />
    <glyph glyph-name="Lcaron" unicode="&#x13d;" horiz-adv-x="514" 
d="M436 -9q-36 0 -76 2t-81 4t-81.5 2.5t-77.5 -2.5q-8 7 -11.5 18.5t-3.5 34.5q-2 144 -1.5 298t-1.5 300q-2 174 -5 352.5t-4 346.5q8 5 24.5 7t35.5 2q26 0 39.5 -14.5t14.5 -36.5q1 -141 -3 -288.5t-2 -297.5q2 -155 4 -308.5t9 -305.5q66 -6 130.5 -1t124.5 3
q8 -8 13 -23.5t5 -32.5q1 -27 -14 -43t-38 -17zM299 1045q27 16 47 44t30 73q-51 4 -70.5 28t-19.5 72q0 35 7.5 55t18.5 34q55 5 93 -8q31 -10 43.5 -37t11.5 -68q-1 -35 -10.5 -76t-25.5 -75.5t-37.5 -57.5t-45.5 -23q-15 0 -28 10.5t-14 28.5z" />
    <glyph glyph-name="lcaron" unicode="&#x13e;" horiz-adv-x="431" 
d="M312 -14q-103 0 -160 74.5t-58 205.5q-2 147 -1.5 286t1 280t1 289.5t-2.5 315.5q7 10 19.5 15t33.5 5q27 1 41.5 -17t14.5 -44q0 -154 -2 -297.5t-4.5 -280t-3.5 -268.5t1 -262q0 -41 9 -75.5t25.5 -60t40 -40t54.5 -14.5q23 0 39.5 4t34.5 15q23 -17 23 -65
q0 -15 -9 -27.5t-24 -21t-34 -13t-39 -4.5zM300 1144q27 16 47 44t30 73q-51 4 -70.5 28t-19.5 72q0 35 7.5 55t18.5 34q55 5 93 -8q31 -10 43.5 -37t11.5 -68q-1 -35 -10.5 -76t-25.5 -75.5t-37.5 -57.5t-45.5 -23q-15 0 -28 10.5t-14 28.5z" />
    <glyph glyph-name="Ldot" unicode="&#x13f;" horiz-adv-x="514" 
d="M436 -9q-36 0 -76 2t-81 4t-81.5 2.5t-77.5 -2.5q-8 7 -11.5 18.5t-3.5 34.5q-2 144 -1.5 298t-1.5 300q-2 174 -5 352.5t-4 346.5q8 5 24.5 7t35.5 2q26 0 39.5 -14.5t14.5 -36.5q1 -141 -3 -288.5t-2 -297.5q2 -155 4 -308.5t9 -305.5q66 -6 130.5 -1t124.5 3
q8 -8 13 -23.5t5 -32.5q1 -27 -14 -43t-38 -17zM398 756q12 0 28.5 -5t32 -15.5t26.5 -27t11 -40.5q0 -50 -26 -76.5t-69 -26.5q-35 0 -61.5 26.5t-26.5 74.5q0 21 7.5 37.5t19.5 28t27.5 18t30.5 6.5z" />
    <glyph glyph-name="ldot" unicode="&#x140;" horiz-adv-x="458" 
d="M312 -14q-103 0 -160 74.5t-58 205.5q-2 147 -1.5 286t1 280t1 289.5t-2.5 315.5q7 10 19.5 15t33.5 5q27 1 41.5 -17t14.5 -44q0 -154 -2 -297.5t-4.5 -280t-3.5 -268.5t1 -262q0 -41 9 -75.5t25.5 -60t40 -40t54.5 -14.5q23 0 39.5 4t34.5 15q23 -17 23 -65
q0 -15 -9 -27.5t-24 -21t-34 -13t-39 -4.5zM369 783q11 0 27 -4.5t30.5 -15t25 -26.5t10.5 -38q0 -48 -24.5 -73t-65.5 -25q-34 0 -59 25t-25 71q0 19 7 35t18.5 27t26 17.5t29.5 6.5z" />
    <glyph glyph-name="Lslash" unicode="&#x141;" horiz-adv-x="514" 
d="M324 821q22 -7 38 -27t16 -46q0 -8 -3 -14t-13 -12q-30 -17 -72 -44t-87 -58q2 -130 4 -258.5t8 -256.5q66 -6 130.5 -1t124.5 3q8 -8 13 -23.5t5 -32.5q1 -27 -14 -43t-38 -17q-36 0 -76 2t-81 4t-81.5 2.5t-77.5 -2.5q-8 7 -11.5 18.5t-3.5 34.5q-2 121 -1.5 249
t-0.5 254l-87 -61q-20 8 -36.5 28t-16.5 47q0 10 5 17t12 11q24 14 55.5 33.5t66.5 41.5q-2 168 -5 341t-4 336q8 5 24.5 7t35.5 2q26 0 39.5 -14.5t14.5 -36.5q1 -137 -3 -281t-2 -290q35 23 66 45t56 42z" />
    <glyph glyph-name="lslash" unicode="&#x142;" horiz-adv-x="451" 
d="M341 845q22 -6 37.5 -25.5t15.5 -39.5q0 -14 -5 -22t-20 -17q-28 -17 -69.5 -43.5t-87.5 -57.5q-3 -178 0 -352q0 -41 9 -75.5t25.5 -60t40 -40t54.5 -14.5q22 0 39 4t35 15q22 -18 22 -65q0 -15 -9 -27.5t-23.5 -21t-33.5 -13t-40 -4.5q-103 0 -159.5 74.5t-58.5 205.5
q-2 79 -2 155v151l-78 -55q-20 8 -37 27t-17 41q0 14 4 21.5t14 12.5l114 71q1 87 1.5 175.5t1 180.5t0 189t-2.5 202q15 20 53 20q28 1 42.5 -17t14.5 -44q0 -173 -3 -331t-5 -310q36 24 69 47t59 43z" />
    <glyph glyph-name="Nacute" unicode="&#x143;" horiz-adv-x="770" 
d="M158 -14q-27 0 -41.5 15t-14.5 42q2 163 2 328t-1.5 329.5t-3.5 327t-3 318.5q12 6 25 9t32 3q29 0 44 -15.5t24 -41.5q89 -264 175 -516t175 -491q-1 183 -6.5 354t-10.5 336q-1 34 -2.5 81t-3 96.5t-3 96.5t-1.5 81q26 18 60 18q26 0 40.5 -11t15.5 -37q1 -50 1.5 -91
t0.5 -89q2 -272 4 -557.5t8 -563.5q-8 -8 -21 -12.5t-32 -4.5q-26 0 -38 10.5t-20 30.5q-42 123 -88.5 253t-93.5 261t-93.5 261.5t-88.5 253.5q1 -292 9.5 -553.5t8.5 -502.5q-10 -8 -21.5 -13.5t-37.5 -5.5zM342 1443q-22 0 -34 11.5t-12 28.5q0 8 1.5 15t6.5 18
q9 20 21 44.5t26 50.5t27.5 54t25.5 56q14 8 41 8q19 0 32.5 -12.5t13.5 -32.5q0 -5 -0.5 -11.5t-4.5 -15.5q-9 -19 -21.5 -43t-26.5 -51t-27.5 -56t-24.5 -56q-9 -4 -19 -6t-25 -2z" />
    <glyph glyph-name="nacute" unicode="&#x144;" horiz-adv-x="649" 
d="M201 993q-2 -45 -1.5 -100.5t1.5 -110.5q14 57 37 105t51.5 83.5t61.5 55t68 19.5t62.5 -19t46.5 -52.5t29.5 -79.5t10.5 -100q0 -94 -1 -196.5l-2 -205t0 -200.5t5 -183q-8 -9 -20.5 -16.5t-37.5 -7.5q-20 0 -37 12t-17 40q0 95 1 177.5t2.5 163t2.5 163.5t0 179
q-1 91 -23 143t-67 52q-29 0 -58.5 -30t-53 -79t-38.5 -111t-16 -126q0 -66 0.5 -138.5t2 -145.5t4 -143.5t4.5 -133.5q-8 -10 -22 -16.5t-34 -6.5q-31 0 -42.5 16.5t-11.5 33.5q-1 120 -2 245.5t-3.5 251.5t-6.5 251.5t-10 245.5q8 7 22 14.5t39 7.5q27 0 41 -16.5
t12 -41.5zM300 1138q-22 0 -34 11.5t-12 28.5q0 8 1.5 15t6.5 18q9 20 21 44.5t26 50.5t27.5 54t25.5 56q14 8 41 8q19 0 32.5 -12.5t13.5 -32.5q0 -5 -0.5 -11.5t-4.5 -15.5q-9 -19 -21.5 -43t-26.5 -51t-27.5 -56t-24.5 -56q-9 -4 -19 -6t-25 -2z" />
    <glyph glyph-name="Ncommaaccent" unicode="&#x145;" horiz-adv-x="770" 
d="M158 -14q-27 0 -41.5 15t-14.5 42q2 163 2 328t-1.5 329.5t-3.5 327t-3 318.5q12 6 25 9t32 3q29 0 44 -15.5t24 -41.5q89 -264 175 -516t175 -491q-1 183 -6.5 354t-10.5 336q-1 34 -2.5 81t-3 96.5t-3 96.5t-1.5 81q26 18 60 18q26 0 40.5 -11t15.5 -37q1 -50 1.5 -91
t0.5 -89q2 -272 4 -557.5t8 -563.5q-8 -8 -21 -12.5t-32 -4.5q-26 0 -38 10.5t-20 30.5q-42 123 -88.5 253t-93.5 261t-93.5 261.5t-88.5 253.5q1 -292 9.5 -553.5t8.5 -502.5q-10 -8 -21.5 -13.5t-37.5 -5.5zM326 -429q29 16 50 46.5t32 78.5q-54 4 -75 30t-21 80
q0 38 8.5 60t19.5 37q29 3 53.5 1.5t47.5 -9.5q33 -11 46.5 -41t12.5 -74q0 -38 -10.5 -82.5t-27.5 -82.5t-40.5 -63.5t-49.5 -25.5q-17 0 -31 12.5t-15 32.5z" />
    <glyph glyph-name="ncommaaccent" unicode="&#x146;" horiz-adv-x="649" 
d="M201 993q-2 -45 -1.5 -100.5t1.5 -110.5q14 57 37 105t51.5 83.5t61.5 55t68 19.5t62.5 -19t46.5 -52.5t29.5 -79.5t10.5 -100q0 -94 -1 -196.5l-2 -205t0 -200.5t5 -183q-8 -9 -20.5 -16.5t-37.5 -7.5q-20 0 -37 12t-17 40q0 95 1 177.5t2.5 163t2.5 163.5t0 179
q-1 91 -23 143t-67 52q-29 0 -58.5 -30t-53 -79t-38.5 -111t-16 -126q0 -66 0.5 -138.5t2 -145.5t4 -143.5t4.5 -133.5q-8 -10 -22 -16.5t-34 -6.5q-31 0 -42.5 16.5t-11.5 33.5q-1 120 -2 245.5t-3.5 251.5t-6.5 251.5t-10 245.5q8 7 22 14.5t39 7.5q27 0 41 -16.5
t12 -41.5zM269 -429q29 16 50 46.5t32 78.5q-54 4 -75 30t-21 80q0 38 8.5 60t19.5 37q29 3 53.5 1.5t47.5 -9.5q33 -11 46.5 -41t12.5 -74q0 -38 -10.5 -82.5t-27.5 -82.5t-40.5 -63.5t-49.5 -25.5q-17 0 -31 12.5t-15 32.5z" />
    <glyph glyph-name="Ncaron" unicode="&#x147;" horiz-adv-x="770" 
d="M158 -14q-27 0 -41.5 15t-14.5 42q2 163 2 328t-1.5 329.5t-3.5 327t-3 318.5q12 6 25 9t32 3q29 0 44 -15.5t24 -41.5q89 -264 175 -516t175 -491q-1 183 -6.5 354t-10.5 336q-1 34 -2.5 81t-3 96.5t-3 96.5t-1.5 81q26 18 60 18q26 0 40.5 -11t15.5 -37q1 -50 1.5 -91
t0.5 -89q2 -272 4 -557.5t8 -563.5q-8 -8 -21 -12.5t-32 -4.5q-26 0 -38 10.5t-20 30.5q-42 123 -88.5 253t-93.5 261t-93.5 261.5t-88.5 253.5q1 -292 9.5 -553.5t8.5 -502.5q-10 -8 -21.5 -13.5t-37.5 -5.5zM424 1454q-12 -5 -29 -8t-32 -3q-29 0 -44 8t-20 25
q-9 26 -20 55.5t-23 59t-24 58t-24 54.5q8 11 23 18.5t35 7.5q28 0 42 -25q16 -34 31.5 -77t27.5 -80q19 38 41 83.5t39 87.5q10 4 19.5 6.5t23.5 2.5q21 0 33 -11.5t12 -28.5q0 -13 -8 -32q-9 -20 -22.5 -43t-27.5 -48.5t-28.5 -53t-24.5 -56.5z" />
    <glyph glyph-name="ncaron" unicode="&#x148;" horiz-adv-x="649" 
d="M201 993q-2 -45 -1.5 -100.5t1.5 -110.5q14 57 37 105t51.5 83.5t61.5 55t68 19.5t62.5 -19t46.5 -52.5t29.5 -79.5t10.5 -100q0 -94 -1 -196.5l-2 -205t0 -200.5t5 -183q-8 -9 -20.5 -16.5t-37.5 -7.5q-20 0 -37 12t-17 40q0 95 1 177.5t2.5 163t2.5 163.5t0 179
q-1 91 -23 143t-67 52q-29 0 -58.5 -30t-53 -79t-38.5 -111t-16 -126q0 -66 0.5 -138.5t2 -145.5t4 -143.5t4.5 -133.5q-8 -10 -22 -16.5t-34 -6.5q-31 0 -42.5 16.5t-11.5 33.5q-1 120 -2 245.5t-3.5 251.5t-6.5 251.5t-10 245.5q8 7 22 14.5t39 7.5q27 0 41 -16.5
t12 -41.5zM381 1149q-12 -5 -29 -8t-32 -3q-29 0 -44 8t-20 25q-9 26 -20 55.5t-23 59t-24 58t-24 54.5q8 11 23 18.5t35 7.5q28 0 42 -25q16 -34 31.5 -77t27.5 -80q19 38 41 83.5t39 87.5q10 4 19.5 6.5t23.5 2.5q21 0 33 -11.5t12 -28.5q0 -13 -8 -32q-9 -20 -22.5 -43
t-27.5 -48.5t-28.5 -53t-24.5 -56.5z" />
    <glyph glyph-name="napostrophe" unicode="&#x149;" horiz-adv-x="734" 
d="M286 993q-2 -45 -1.5 -100.5t1.5 -110.5q14 57 37 105t51.5 83.5t61.5 55t68 19.5t62.5 -19t46.5 -52.5t29.5 -79.5t10.5 -100q0 -94 -1 -196.5l-2 -205t0 -200.5t5 -183q-8 -9 -20.5 -16.5t-37.5 -7.5q-20 0 -37 12t-17 40q0 95 1 177.5t2.5 163t2.5 163.5t0 179
q-1 91 -23 143t-67 52q-29 0 -58.5 -30t-53 -79t-38.5 -111t-16 -126q0 -66 0.5 -138.5t2 -145.5t4 -143.5t4.5 -133.5q-8 -10 -22 -16.5t-34 -6.5q-31 0 -42.5 16.5t-11.5 33.5q-1 120 -2 245.5t-3.5 251.5t-6.5 251.5t-10 245.5q8 7 22 14.5t39 7.5q27 0 41 -16.5
t12 -41.5zM-17 1135q29 16 50 46.5t32 78.5q-54 4 -75 30t-21 80q0 38 8.5 60t19.5 37q29 3 53.5 1.5t47.5 -9.5q33 -11 46.5 -41t12.5 -74q0 -38 -10.5 -82.5t-27.5 -82.5t-40.5 -63.5t-49.5 -25.5q-17 0 -31 12.5t-15 32.5z" />
    <glyph glyph-name="Eng" unicode="&#x14a;" horiz-adv-x="770" 
d="M566 27q-18 49 -44.5 123.5t-58 163t-66.5 187t-69.5 197t-67.5 191.5t-61 172q1 -292 9.5 -553.5t8.5 -502.5q-10 -8 -21.5 -13.5t-37.5 -5.5q-27 0 -41.5 15t-14.5 42q2 163 2 328t-1.5 329.5t-3.5 327t-3 318.5q12 6 25 9t32 3q29 0 44 -15.5t24 -41.5
q89 -264 175 -516t175 -491q-1 183 -6.5 354t-10.5 336q-1 34 -2.5 81t-3 96.5t-3 96.5t-1.5 81q26 18 60 18q26 0 40.5 -11t15.5 -37q1 -50 1.5 -91t0.5 -89q0 -87 1 -184.5t2 -198.5t2 -202.5t2 -196t2 -180t2 -153.5q1 -73 -10 -126t-34.5 -92.5t-59 -68t-84.5 -50.5
q-17 -7 -31.5 -10.5t-30.5 -3.5q-17 0 -36 10t-20 35q-1 17 2 31t12 24q43 13 77.5 31t58.5 47.5t37 74t12 111.5z" />
    <glyph glyph-name="eng" unicode="&#x14b;" horiz-adv-x="649" 
d="M465 -86q-2 107 -3 209t-0.5 201.5t1 197.5t1.5 198q1 91 -22 143t-68 52q-29 0 -58.5 -30t-53 -79t-38.5 -111t-16 -126q0 -66 0.5 -138.5t2 -145.5t4 -143.5t4.5 -133.5q-8 -10 -22 -16.5t-34 -6.5q-31 0 -42.5 16.5t-11.5 33.5q-1 120 -2 245.5t-3.5 251.5t-6.5 251.5
t-10 245.5q8 7 22 14.5t39 7.5q27 0 41 -16.5t12 -41.5q-2 -45 -1.5 -100.5t1.5 -110.5q14 57 37 105t51.5 83.5t61.5 55t68 19.5t63 -19t47 -52.5t29 -79.5t10 -100q-4 -243 -2.5 -466t3.5 -424q1 -76 -17.5 -129.5t-51.5 -88t-79 -50.5t-100 -16q-32 0 -48.5 16t-16.5 36
q0 15 2.5 27t8.5 27q48 -2 85 6.5t62.5 30.5t38.5 58.5t12 92.5z" />
    <glyph glyph-name="Omacron" unicode="&#x14c;" horiz-adv-x="687" 
d="M335 -16q-57 0 -106.5 35t-85.5 111.5t-57 198.5t-21 297q0 369 70.5 551.5t215.5 182.5q68 0 119 -54.5t84.5 -151t50.5 -230t17 -292.5q0 -161 -20 -282t-57 -202.5t-90 -122.5t-120 -41zM334 1234q-78 0 -119 -144t-41 -448q0 -141 13 -243t36 -168t54.5 -97t69.5 -31
q39 0 70 36.5t52 103t32.5 158.5t11.5 203q0 153 -14 270.5t-38 197.5t-56.5 121t-70.5 41zM529 1546q0 -17 -4 -27.5t-9 -20.5q-38 2 -79.5 2.5t-82.5 0t-81 -1t-75 -0.5q-24 0 -32 15.5t-8 35.5q0 17 2.5 29.5t10.5 22.5q35 -3 76.5 -3t83.5 1t83.5 2t76.5 0
q23 -1 30.5 -15.5t7.5 -40.5z" />
    <glyph glyph-name="omacron" unicode="&#x14d;" horiz-adv-x="605" 
d="M310 -13q-54 0 -99 32.5t-77.5 98.5t-51 167t-18.5 239q-1 263 63.5 393.5t186.5 127.5q52 -2 94 -35.5t72 -96t46 -153.5t16 -206q0 -158 -19.5 -266.5t-52.5 -175.5t-75 -96t-85 -29zM306 936q-68 -1 -103 -104t-35 -308q1 -210 36 -321t104 -113q28 -1 52 29t42 89
t28 146t9 200q0 88 -9 159t-25.5 120.5t-41.5 76t-57 26.5zM486 1241q0 -17 -4 -27.5t-9 -20.5q-38 2 -79.5 2.5t-82.5 0t-81 -1t-75 -0.5q-24 0 -32 15.5t-8 35.5q0 17 2.5 29.5t10.5 22.5q35 -3 76.5 -3t83.5 1t83.5 2t76.5 0q23 -1 30.5 -15.5t7.5 -40.5z" />
    <glyph glyph-name="Obreve" unicode="&#x14e;" horiz-adv-x="687" 
d="M335 -16q-57 0 -106.5 35t-85.5 111.5t-57 198.5t-21 297q0 369 70.5 551.5t215.5 182.5q68 0 119 -54.5t84.5 -151t50.5 -230t17 -292.5q0 -161 -20 -282t-57 -202.5t-90 -122.5t-120 -41zM334 1234q-78 0 -119 -144t-41 -448q0 -141 13 -243t36 -168t54.5 -97t69.5 -31
q39 0 70 36.5t52 103t32.5 158.5t11.5 203q0 153 -14 270.5t-38 197.5t-56.5 121t-70.5 41zM348 1448q-35 0 -66 11t-54 35t-36 63t-12 95q18 15 47 15q20 0 32 -10.5t11 -29.5q0 -54 22.5 -79.5t57.5 -25.5q40 0 67.5 30t19.5 93q6 8 18 13t26 5q20 0 32 -10.5t12 -33.5
q0 -41 -13.5 -73t-37.5 -53.5t-56.5 -33t-69.5 -11.5z" />
    <glyph glyph-name="obreve" unicode="&#x14f;" horiz-adv-x="605" 
d="M310 -13q-54 0 -99 32.5t-77.5 98.5t-51 167t-18.5 239q-1 263 63.5 393.5t186.5 127.5q52 -2 94 -35.5t72 -96t46 -153.5t16 -206q0 -158 -19.5 -266.5t-52.5 -175.5t-75 -96t-85 -29zM306 936q-68 -1 -103 -104t-35 -308q1 -210 36 -321t104 -113q28 -1 52 29t42 89
t28 146t9 200q0 88 -9 159t-25.5 120.5t-41.5 76t-57 26.5zM306 1143q-35 0 -66 11t-54 35t-36 63t-12 95q18 15 47 15q20 0 32 -10.5t11 -29.5q0 -54 22.5 -79.5t57.5 -25.5q40 0 67.5 30t19.5 93q6 8 18 13t26 5q20 0 32 -10.5t12 -33.5q0 -41 -13.5 -73t-37.5 -53.5
t-56.5 -33t-69.5 -11.5z" />
    <glyph glyph-name="Ohungarumlaut" unicode="&#x150;" horiz-adv-x="687" 
d="M335 -16q-57 0 -106.5 35t-85.5 111.5t-57 198.5t-21 297q0 369 70.5 551.5t215.5 182.5q68 0 119 -54.5t84.5 -151t50.5 -230t17 -292.5q0 -161 -20 -282t-57 -202.5t-90 -122.5t-120 -41zM334 1234q-78 0 -119 -144t-41 -448q0 -141 13 -243t36 -168t54.5 -97t69.5 -31
q39 0 70 36.5t52 103t32.5 158.5t11.5 203q0 153 -14 270.5t-38 197.5t-56.5 121t-70.5 41zM237 1450q-22 0 -34 11.5t-12 25.5q0 8 2.5 19.5t6.5 22.5q7 20 15.5 46.5t18 56t18.5 60t16 58.5q14 8 44 8q20 0 34 -13t14 -30q0 -13 -6 -31q-8 -23 -18 -50.5t-20 -57.5
t-19.5 -60t-15.5 -58q-9 -4 -19 -6t-25 -2zM417 1437q-23 0 -35.5 11t-12.5 26q0 17 10 37q19 42 43.5 84.5t47.5 98.5q7 3 17 5t24 2q19 0 31.5 -13t12.5 -33q0 -5 -2.5 -12.5t-9.5 -20.5q-19 -38 -43 -81.5t-45 -94.5q-9 -4 -16.5 -6.5t-21.5 -2.5z" />
    <glyph glyph-name="ohungarumlaut" unicode="&#x151;" horiz-adv-x="605" 
d="M310 -13q-54 0 -99 32.5t-77.5 98.5t-51 167t-18.5 239q-1 263 63.5 393.5t186.5 127.5q52 -2 94 -35.5t72 -96t46 -153.5t16 -206q0 -158 -19.5 -266.5t-52.5 -175.5t-75 -96t-85 -29zM306 936q-68 -1 -103 -104t-35 -308q1 -210 36 -321t104 -113q28 -1 52 29t42 89
t28 146t9 200q0 88 -9 159t-25.5 120.5t-41.5 76t-57 26.5zM195 1145q-22 0 -34 11.5t-12 25.5q0 8 2.5 19.5t6.5 22.5q7 20 15.5 46.5t18 56t18.5 60t16 58.5q14 8 44 8q20 0 34 -13t14 -30q0 -13 -6 -31q-8 -23 -18 -50.5t-20 -57.5t-19.5 -60t-15.5 -58q-9 -4 -19 -6
t-25 -2zM375 1132q-23 0 -35.5 11t-12.5 26q0 17 10 37q19 42 43.5 84.5t47.5 98.5q7 3 17 5t24 2q19 0 31.5 -13t12.5 -33q0 -5 -2.5 -12.5t-9.5 -20.5q-19 -38 -43 -81.5t-45 -94.5q-9 -4 -16.5 -6.5t-21.5 -2.5z" />
    <glyph glyph-name="OE" unicode="&#x152;" horiz-adv-x="981" 
d="M335 -16q-57 0 -106.5 35t-85.5 111.5t-57 198.5t-21 297q0 369 70.5 551.5t215.5 182.5q51 0 91.5 -31.5t71.5 -88.5q-2 67 -6 91q9 9 23 12.5t34 3.5q81 0 170.5 -2.5t179.5 5.5q7 -7 12 -18t5 -34q0 -26 -14.5 -39.5t-34.5 -14.5q-66 0 -132 0.5t-129 2.5
q0 -133 -0.5 -268.5t0.5 -268.5q27 1 58.5 1t62 1t59 2t50.5 4q12 -17 12 -55q0 -23 -9.5 -38.5t-34.5 -15.5q-49 0 -98.5 1.5t-99.5 2.5q0 -129 1 -258t1 -257h74t81.5 1t81 2.5t71.5 3.5q5 -10 8.5 -24.5t3.5 -35.5q0 -23 -13.5 -36t-36.5 -13q-85 0 -167 0.5t-160 1.5
q-20 0 -32 12t-12 35v63q-71 -124 -188 -124zM334 1234q-78 0 -119 -144t-41 -448q0 -141 13 -243t36 -168t54.5 -97t69.5 -31q39 0 70 36.5t52 103t32.5 158.5t11.5 203q0 153 -14 270.5t-38 197.5t-56.5 121t-70.5 41z" />
    <glyph glyph-name="oe" unicode="&#x153;" horiz-adv-x="950" 
d="M310 -13q-54 0 -99 32.5t-77.5 98.5t-51 167t-18.5 239q-1 263 63.5 393.5t186.5 127.5q63 -2 108.5 -50t71.5 -139q26 94 72 143t110 49q205 0 205 -503q0 -22 -3.5 -50.5t-10.5 -43.5q-36 -1 -76.5 -1h-82.5t-83.5 -0.5t-79.5 -1.5q6 -183 44.5 -274.5t116.5 -91.5
q21 0 38 7.5t30.5 19.5t22 27t12.5 30q13 11 37 11q17 0 29.5 -11.5t12.5 -34.5q0 -38 -30 -74q-11 -12 -25 -24.5t-33.5 -22t-45 -16t-58.5 -6.5q-84 0 -132.5 52.5t-73.5 146.5q-31 -108 -78.5 -154t-101.5 -46zM306 936q-68 -1 -103 -104t-35 -308q1 -210 36 -321
t104 -113q28 -1 52 29t42 89t28 146t9 200q0 88 -9 159t-25.5 120.5t-41.5 76t-57 26.5zM673 941q-27 0 -50.5 -22t-40.5 -70.5t-27 -125.5t-11 -186q61 2 122 2.5t118 3.5q0 198 -30.5 298t-80.5 100z" />
    <glyph glyph-name="Racute" unicode="&#x154;" horiz-adv-x="611" 
d="M485 -6q-30 0 -53.5 20t-44 51.5t-40 69.5t-40 74t-45 65.5t-54.5 43.5q2 -95 5 -175t7 -139q-11 -5 -23 -8.5t-32 -3.5q-26 0 -43 14t-17 45q1 157 -0.5 320t-4.5 327t-7 326t-9 318q10 8 25.5 12t32.5 4q91 0 162.5 -33.5t121 -96.5t75.5 -154.5t26 -206.5
q0 -83 -15 -160.5t-44 -143.5t-71 -117.5t-96 -81.5q24 -18 45.5 -43.5t40.5 -54t36 -56.5t32 -50t28.5 -36t26.5 -14q11 0 20.5 2.5t16.5 6.5q5 -7 9 -22t4 -36q0 -31 -20 -49t-55 -18zM193 1240q1 -84 2.5 -183t3 -205.5t3.5 -215t4 -210.5q48 9 87.5 44t67 92t43 135
t15.5 173q0 80 -14.5 146t-43 114t-70.5 76.5t-98 33.5zM228 1444q-22 0 -34 11.5t-12 28.5q0 8 1.5 15t6.5 18q9 20 21 44.5t26 50.5t27.5 54t25.5 56q14 8 41 8q19 0 32.5 -12.5t13.5 -32.5q0 -5 -0.5 -11.5t-4.5 -15.5q-9 -19 -21.5 -43t-26.5 -51t-27.5 -56t-24.5 -56
q-9 -4 -19 -6t-25 -2z" />
    <glyph glyph-name="racute" unicode="&#x155;" horiz-adv-x="573" 
d="M202 556q-3 -65 -2.5 -137.5t2.5 -145.5t5.5 -142.5t7.5 -128.5q-11 -6 -30.5 -10.5t-38.5 -4.5q-25 0 -38.5 12.5t-13.5 41.5q0 243 2.5 490t-5.5 499q9 6 20.5 11.5t33.5 5.5q25 -1 43 -15t16 -45q-2 -59 -5.5 -122.5t-5.5 -127.5q14 56 37.5 111t54.5 98.5t67.5 70.5
t77.5 27q69 0 98.5 -57.5t32.5 -160.5q0 -22 -15 -39t-40 -17q-38 0 -56 29q-1 35 -5 57.5t-11 36t-17.5 18.5t-23.5 5q-34 0 -67 -35t-60 -88t-44.5 -116.5t-19.5 -120.5zM291 1138q-22 0 -34 11.5t-12 28.5q0 8 1.5 15t6.5 18q9 20 21 44.5t26 50.5t27.5 54t25.5 56
q14 8 41 8q19 0 32.5 -12.5t13.5 -32.5q0 -5 -0.5 -11.5t-4.5 -15.5q-9 -19 -21.5 -43t-26.5 -51t-27.5 -56t-24.5 -56q-9 -4 -19 -6t-25 -2z" />
    <glyph glyph-name="Rcommaaccent" unicode="&#x156;" horiz-adv-x="611" 
d="M485 -6q-30 0 -53.5 20t-44 51.5t-40 69.5t-40 74t-45 65.5t-54.5 43.5q2 -95 5 -175t7 -139q-11 -5 -23 -8.5t-32 -3.5q-26 0 -43 14t-17 45q1 157 -0.5 320t-4.5 327t-7 326t-9 318q10 8 25.5 12t32.5 4q91 0 162.5 -33.5t121 -96.5t75.5 -154.5t26 -206.5
q0 -83 -15 -160.5t-44 -143.5t-71 -117.5t-96 -81.5q24 -18 45.5 -43.5t40.5 -54t36 -56.5t32 -50t28.5 -36t26.5 -14q11 0 20.5 2.5t16.5 6.5q5 -7 9 -22t4 -36q0 -31 -20 -49t-55 -18zM193 1240q1 -84 2.5 -183t3 -205.5t3.5 -215t4 -210.5q48 9 87.5 44t67 92t43 135
t15.5 173q0 80 -14.5 146t-43 114t-70.5 76.5t-98 33.5zM242 -427q29 16 50 46.5t32 78.5q-54 4 -75 30t-21 80q0 38 8.5 60t19.5 37q29 3 53.5 1.5t47.5 -9.5q33 -11 46.5 -41t12.5 -74q0 -38 -10.5 -82.5t-27.5 -82.5t-40.5 -63.5t-49.5 -25.5q-17 0 -31 12.5t-15 32.5z
" />
    <glyph glyph-name="rcommaaccent" unicode="&#x157;" horiz-adv-x="573" 
d="M202 556q-3 -65 -2.5 -137.5t2.5 -145.5t5.5 -142.5t7.5 -128.5q-11 -6 -30.5 -10.5t-38.5 -4.5q-25 0 -38.5 12.5t-13.5 41.5q0 243 2.5 490t-5.5 499q9 6 20.5 11.5t33.5 5.5q25 -1 43 -15t16 -45q-2 -59 -5.5 -122.5t-5.5 -127.5q14 56 37.5 111t54.5 98.5t67.5 70.5
t77.5 27q69 0 98.5 -57.5t32.5 -160.5q0 -22 -15 -39t-40 -17q-38 0 -56 29q-1 35 -5 57.5t-11 36t-17.5 18.5t-23.5 5q-34 0 -67 -35t-60 -88t-44.5 -116.5t-19.5 -120.5zM81 -432q29 16 50 46.5t32 78.5q-54 4 -75 30t-21 80q0 38 8.5 60t19.5 37q29 3 53.5 1.5t47.5 -9.5
q33 -11 46.5 -41t12.5 -74q0 -38 -10.5 -82.5t-27.5 -82.5t-40.5 -63.5t-49.5 -25.5q-17 0 -31 12.5t-15 32.5z" />
    <glyph glyph-name="Rcaron" unicode="&#x158;" horiz-adv-x="611" 
d="M485 -6q-30 0 -53.5 20t-44 51.5t-40 69.5t-40 74t-45 65.5t-54.5 43.5q2 -95 5 -175t7 -139q-11 -5 -23 -8.5t-32 -3.5q-26 0 -43 14t-17 45q1 157 -0.5 320t-4.5 327t-7 326t-9 318q10 8 25.5 12t32.5 4q91 0 162.5 -33.5t121 -96.5t75.5 -154.5t26 -206.5
q0 -83 -15 -160.5t-44 -143.5t-71 -117.5t-96 -81.5q24 -18 45.5 -43.5t40.5 -54t36 -56.5t32 -50t28.5 -36t26.5 -14q11 0 20.5 2.5t16.5 6.5q5 -7 9 -22t4 -36q0 -31 -20 -49t-55 -18zM193 1240q1 -84 2.5 -183t3 -205.5t3.5 -215t4 -210.5q48 9 87.5 44t67 92t43 135
t15.5 173q0 80 -14.5 146t-43 114t-70.5 76.5t-98 33.5zM310 1455q-12 -5 -29 -8t-32 -3q-29 0 -44 8t-20 25q-9 26 -20 55.5t-23 59t-24 58t-24 54.5q8 11 23 18.5t35 7.5q28 0 42 -25q16 -34 31.5 -77t27.5 -80q19 38 41 83.5t39 87.5q10 4 19.5 6.5t23.5 2.5
q21 0 33 -11.5t12 -28.5q0 -13 -8 -32q-9 -20 -22.5 -43t-27.5 -48.5t-28.5 -53t-24.5 -56.5z" />
    <glyph glyph-name="rcaron" unicode="&#x159;" horiz-adv-x="573" 
d="M202 556q-3 -65 -2.5 -137.5t2.5 -145.5t5.5 -142.5t7.5 -128.5q-11 -6 -30.5 -10.5t-38.5 -4.5q-25 0 -38.5 12.5t-13.5 41.5q0 243 2.5 490t-5.5 499q9 6 20.5 11.5t33.5 5.5q25 -1 43 -15t16 -45q-2 -59 -5.5 -122.5t-5.5 -127.5q14 56 37.5 111t54.5 98.5t67.5 70.5
t77.5 27q69 0 98.5 -57.5t32.5 -160.5q0 -22 -15 -39t-40 -17q-38 0 -56 29q-1 35 -5 57.5t-11 36t-17.5 18.5t-23.5 5q-34 0 -67 -35t-60 -88t-44.5 -116.5t-19.5 -120.5zM372 1149q-12 -5 -29 -8t-32 -3q-29 0 -44 8t-20 25q-9 26 -20 55.5t-23 59t-24 58t-24 54.5
q8 11 23 18.5t35 7.5q28 0 42 -25q16 -34 31.5 -77t27.5 -80q19 38 41 83.5t39 87.5q10 4 19.5 6.5t23.5 2.5q21 0 33 -11.5t12 -28.5q0 -13 -8 -32q-9 -20 -22.5 -43t-27.5 -48.5t-28.5 -53t-24.5 -56.5z" />
    <glyph glyph-name="Sacute" unicode="&#x15a;" horiz-adv-x="559" 
d="M242 -14q-32 0 -65 7t-60 20.5t-44 33t-17 45.5q0 23 13 41.5t37 26.5q10 -9 23 -19.5t29.5 -20.5t38 -16.5t48.5 -6.5q24 0 51.5 7t50 25.5t37.5 50t15 80.5q0 64 -26 121.5t-65 112.5t-84.5 111.5t-84.5 120t-65 136.5t-26 162q0 77 18.5 139.5t52 106t82 67
t108.5 23.5q33 0 62.5 -7t52 -19.5t35.5 -28.5t13 -34q0 -21 -12.5 -36t-28.5 -25q-22 18 -52 28.5t-65 10.5q-15 0 -41.5 -6.5t-52.5 -29.5t-45 -68t-19 -121q0 -77 26 -143t65.5 -126.5t85.5 -117.5t85.5 -116.5t65.5 -123t26 -136.5q0 -82 -28.5 -135.5t-70 -84.5
t-87.5 -43t-82 -12zM247 1441q-22 0 -34 11.5t-12 28.5q0 8 1.5 15t6.5 18q9 20 21 44.5t26 50.5t27.5 54t25.5 56q14 8 41 8q19 0 32.5 -12.5t13.5 -32.5q0 -5 -0.5 -11.5t-4.5 -15.5q-9 -19 -21.5 -43t-26.5 -51t-27.5 -56t-24.5 -56q-9 -4 -19 -6t-25 -2z" />
    <glyph glyph-name="sacute" unicode="&#x15b;" horiz-adv-x="522" 
d="M239 -12q-55 0 -94 15.5t-67 39.5q-11 10 -19.5 27t-8.5 35q0 21 13.5 36.5t34.5 16.5q10 -8 23 -19.5t30 -22.5t39 -19t49 -8q30 0 54 11t41 30.5t26 46.5t9 58q0 42 -22 82t-55.5 80.5t-72 82.5t-72 88t-55.5 97.5t-22 110.5q0 62 15.5 111.5t43.5 84t68 52.5t88 18
q37 0 74 -10t65 -36q13 -12 22 -28t8 -42q-1 -23 -17 -38.5t-37 -15.5q-7 9 -18.5 21t-27 22t-35.5 17t-43 7q-25 0 -44.5 -11.5t-33 -31t-21 -47t-7.5 -58.5q0 -53 22.5 -98.5t56.5 -88.5t73.5 -84.5t73.5 -85t56.5 -91.5t22.5 -103q0 -56 -19 -102.5t-51 -79.5t-75 -51.5
t-91 -18.5zM252 1136q-22 0 -34 11.5t-12 28.5q0 8 1.5 15t6.5 18q9 20 21 44.5t26 50.5t27.5 54t25.5 56q14 8 41 8q19 0 32.5 -12.5t13.5 -32.5q0 -5 -0.5 -11.5t-4.5 -15.5q-9 -19 -21.5 -43t-26.5 -51t-27.5 -56t-24.5 -56q-9 -4 -19 -6t-25 -2z" />
    <glyph glyph-name="Scircumflex" unicode="&#x15c;" horiz-adv-x="559" 
d="M242 -14q-32 0 -65 7t-60 20.5t-44 33t-17 45.5q0 23 13 41.5t37 26.5q10 -9 23 -19.5t29.5 -20.5t38 -16.5t48.5 -6.5q24 0 51.5 7t50 25.5t37.5 50t15 80.5q0 64 -26 121.5t-65 112.5t-84.5 111.5t-84.5 120t-65 136.5t-26 162q0 77 18.5 139.5t52 106t82 67
t108.5 23.5q33 0 62.5 -7t52 -19.5t35.5 -28.5t13 -34q0 -21 -12.5 -36t-28.5 -25q-22 18 -52 28.5t-65 10.5q-15 0 -41.5 -6.5t-52.5 -29.5t-45 -68t-19 -121q0 -77 26 -143t65.5 -126.5t85.5 -117.5t85.5 -116.5t65.5 -123t26 -136.5q0 -82 -28.5 -135.5t-70 -84.5
t-87.5 -43t-82 -12zM222 1732q12 5 28.5 7.5t32.5 2.5q29 0 43.5 -7.5t20.5 -24.5q17 -54 42.5 -115t48.5 -112q-9 -11 -24 -18.5t-35 -7.5q-29 0 -41 25q-17 32 -32.5 75t-27.5 81q-19 -38 -41 -84t-39 -87q-9 -4 -18.5 -6t-24.5 -2q-21 0 -32.5 11t-11.5 28q0 13 8 32
q9 20 22.5 43.5t27.5 49t28 53t25 56.5z" />
    <glyph glyph-name="scircumflex" unicode="&#x15d;" horiz-adv-x="522" 
d="M239 -12q-55 0 -94 15.5t-67 39.5q-11 10 -19.5 27t-8.5 35q0 21 13.5 36.5t34.5 16.5q10 -8 23 -19.5t30 -22.5t39 -19t49 -8q30 0 54 11t41 30.5t26 46.5t9 58q0 42 -22 82t-55.5 80.5t-72 82.5t-72 88t-55.5 97.5t-22 110.5q0 62 15.5 111.5t43.5 84t68 52.5t88 18
q37 0 74 -10t65 -36q13 -12 22 -28t8 -42q-1 -23 -17 -38.5t-37 -15.5q-7 9 -18.5 21t-27 22t-35.5 17t-43 7q-25 0 -44.5 -11.5t-33 -31t-21 -47t-7.5 -58.5q0 -53 22.5 -98.5t56.5 -88.5t73.5 -84.5t73.5 -85t56.5 -91.5t22.5 -103q0 -56 -19 -102.5t-51 -79.5t-75 -51.5
t-91 -18.5zM228 1427q12 5 28.5 7.5t32.5 2.5q29 0 43.5 -7.5t20.5 -24.5q17 -54 42.5 -115t48.5 -112q-9 -11 -24 -18.5t-35 -7.5q-29 0 -41 25q-17 32 -32.5 75t-27.5 81q-19 -38 -41 -84t-39 -87q-9 -4 -18.5 -6t-24.5 -2q-21 0 -32.5 11t-11.5 28q0 13 8 32
q9 20 22.5 43.5t27.5 49t28 53t25 56.5z" />
    <glyph glyph-name="Scedilla" unicode="&#x15e;" horiz-adv-x="559" 
d="M265 -312q-10 0 -32.5 2t-46 9.5t-41 20.5t-17.5 36q0 14 5.5 27t19.5 24q23 -16 52 -28.5t61 -12.5q37 0 54.5 14t17.5 34t-19 33.5t-54 13.5h-21.5t-16.5 -2q-7 15 -8.5 27.5t0 26.5t3.5 31.5t2 42.5q-30 2 -60 9.5t-54 21t-39 32t-15 42.5q0 23 13 41.5t37 26.5
q10 -9 23 -19.5t29.5 -20.5t38 -16.5t48.5 -6.5q24 0 51.5 7t50 25.5t37.5 50t15 80.5q0 64 -26 121.5t-65 112.5t-84.5 111.5t-84.5 120t-65 136.5t-26 162q0 77 18.5 139.5t52 106t82 67t108.5 23.5q33 0 62.5 -7t52 -19.5t35.5 -28.5t13 -34q0 -21 -12.5 -36t-28.5 -25
q-22 18 -52 28.5t-65 10.5q-15 0 -41.5 -6.5t-52.5 -29.5t-45 -68t-19 -121q0 -77 26 -143t65.5 -126.5t85.5 -117.5t85.5 -116.5t65.5 -123t26 -136.5q0 -68 -20 -116.5t-51.5 -80t-69 -49t-73.5 -24.5q-3 -32 0 -67q53 -2 87.5 -31.5t34.5 -83.5q0 -26 -10.5 -48
t-30.5 -38t-48.5 -25.5t-63.5 -9.5z" />
    <glyph glyph-name="scedilla" unicode="&#x15f;" horiz-adv-x="522" 
d="M248 -314q-10 0 -32.5 2t-46 9.5t-41 20.5t-17.5 36q0 14 5.5 27t19.5 24q23 -16 52 -28.5t61 -12.5q37 0 54.5 14t17.5 34t-19.5 33.5t-53.5 13.5h-21.5t-16.5 -2q-8 16 -9 28.5t0.5 27t3.5 32.5t2 45q-43 4 -74.5 18.5t-54.5 34.5q-11 10 -19.5 27t-8.5 35
q0 21 13.5 36.5t34.5 16.5q10 -8 23 -19.5t30 -22.5t39 -19t49 -8q30 0 54 11t41 30.5t26 46.5t9 58q0 42 -22 82t-55.5 80.5t-72 82.5t-72 88t-55.5 97.5t-22 110.5q0 62 15.5 111.5t43.5 84t68 52.5t88 18q37 0 74 -10t65 -36q13 -12 22 -28t8 -42q-1 -23 -17 -38.5
t-37 -15.5q-7 9 -18.5 21t-27 22t-35.5 17t-43 7q-25 0 -44.5 -11.5t-33 -31t-21 -47t-7.5 -58.5q0 -53 22.5 -98.5t56.5 -88.5t73.5 -84.5t73.5 -85t56.5 -91.5t22.5 -103q0 -51 -15.5 -93.5t-42 -75t-62.5 -53t-77 -27.5q-1 -17 -1.5 -34t1.5 -35q53 -2 88 -31.5t35 -83.5
q0 -26 -10.5 -48t-30.5 -38t-48.5 -25.5t-63.5 -9.5z" />
    <glyph glyph-name="Scaron" unicode="&#x160;" horiz-adv-x="559" 
d="M242 -14q-32 0 -65 7t-60 20.5t-44 33t-17 45.5q0 23 13 41.5t37 26.5q10 -9 23 -19.5t29.5 -20.5t38 -16.5t48.5 -6.5q24 0 51.5 7t50 25.5t37.5 50t15 80.5q0 64 -26 121.5t-65 112.5t-84.5 111.5t-84.5 120t-65 136.5t-26 162q0 77 18.5 139.5t52 106t82 67
t108.5 23.5q33 0 62.5 -7t52 -19.5t35.5 -28.5t13 -34q0 -21 -12.5 -36t-28.5 -25q-22 18 -52 28.5t-65 10.5q-15 0 -41.5 -6.5t-52.5 -29.5t-45 -68t-19 -121q0 -77 26 -143t65.5 -126.5t85.5 -117.5t85.5 -116.5t65.5 -123t26 -136.5q0 -82 -28.5 -135.5t-70 -84.5
t-87.5 -43t-82 -12zM328 1452q-12 -5 -29 -8t-32 -3q-29 0 -44 8t-20 25q-9 26 -20 55.5t-23 59t-24 58t-24 54.5q8 11 23 18.5t35 7.5q28 0 42 -25q16 -34 31.5 -77t27.5 -80q19 38 41 83.5t39 87.5q10 4 19.5 6.5t23.5 2.5q21 0 33 -11.5t12 -28.5q0 -13 -8 -32
q-9 -20 -22.5 -43t-27.5 -48.5t-28.5 -53t-24.5 -56.5z" />
    <glyph glyph-name="scaron" unicode="&#x161;" horiz-adv-x="522" 
d="M239 -12q-55 0 -94 15.5t-67 39.5q-11 10 -19.5 27t-8.5 35q0 21 13.5 36.5t34.5 16.5q10 -8 23 -19.5t30 -22.5t39 -19t49 -8q30 0 54 11t41 30.5t26 46.5t9 58q0 42 -22 82t-55.5 80.5t-72 82.5t-72 88t-55.5 97.5t-22 110.5q0 62 15.5 111.5t43.5 84t68 52.5t88 18
q37 0 74 -10t65 -36q13 -12 22 -28t8 -42q-1 -23 -17 -38.5t-37 -15.5q-7 9 -18.5 21t-27 22t-35.5 17t-43 7q-25 0 -44.5 -11.5t-33 -31t-21 -47t-7.5 -58.5q0 -53 22.5 -98.5t56.5 -88.5t73.5 -84.5t73.5 -85t56.5 -91.5t22.5 -103q0 -56 -19 -102.5t-51 -79.5t-75 -51.5
t-91 -18.5zM334 1147q-12 -5 -29 -8t-32 -3q-29 0 -44 8t-20 25q-9 26 -20 55.5t-23 59t-24 58t-24 54.5q8 11 23 18.5t35 7.5q28 0 42 -25q16 -34 31.5 -77t27.5 -80q19 38 41 83.5t39 87.5q10 4 19.5 6.5t23.5 2.5q21 0 33 -11.5t12 -28.5q0 -13 -8 -32q-9 -20 -22.5 -43
t-27.5 -48.5t-28.5 -53t-24.5 -56.5z" />
    <glyph glyph-name="Tcommaaccent" unicode="&#x162;" horiz-adv-x="559" 
d="M278 -12q-25 0 -35 20t-10 49q1 118 1.5 261.5t0 298.5t-1.5 314.5t-3 309.5q-46 -1 -90 -2t-79 -1q-19 0 -33.5 17t-14.5 46q0 17 3 33.5t11 23.5q19 -2 50 -3t65.5 -2t70 -2t63.5 -1q63 -1 120 0t106 0q19 0 31.5 -17.5t12.5 -42.5q0 -20 -5.5 -32.5t-16.5 -21.5
q-17 1 -39.5 2t-48 1.5t-53 0.5h-53.5q0 -185 1 -348.5t3 -313.5t4 -291t2 -281q-9 -9 -22.5 -13.5t-39.5 -4.5zM223 -429q29 16 50 46.5t32 78.5q-54 4 -75 30t-21 80q0 38 8.5 60t19.5 37q29 3 53.5 1.5t47.5 -9.5q33 -11 46.5 -41t12.5 -74q0 -38 -10.5 -82.5
t-27.5 -82.5t-40.5 -63.5t-49.5 -25.5q-17 0 -31 12.5t-15 32.5z" />
    <glyph glyph-name="tcommaaccent" unicode="&#x163;" horiz-adv-x="503" 
d="M467 941q-43 2 -91.5 2t-99.5 -1q-3 -169 -8.5 -337.5t-0.5 -324.5q4 -180 98 -180q24 0 48 6t44 17q9 -10 15 -26t6 -36q0 -35 -33.5 -55t-83.5 -20q-99 0 -147.5 76.5t-48.5 214.5q0 162 2.5 330t3.5 333q-24 -1 -47 -0.5t-43 1.5q-48 0 -48 49q0 21 8 36.5t14 17.5
q54 -3 116 -3q0 77 -1 150.5t-3 143.5q10 6 23 10t33 4q26 0 37 -11t13 -34q3 -63 4 -129t0 -135q83 0 155 3q25 2 36.5 -11.5t11.5 -36.5q0 -20 -4.5 -32.5t-8.5 -21.5zM231 -428q29 16 50 46.5t32 78.5q-54 4 -75 30t-21 80q0 38 8.5 60t19.5 37q29 3 53.5 1.5t47.5 -9.5
q33 -11 46.5 -41t12.5 -74q0 -38 -10.5 -82.5t-27.5 -82.5t-40.5 -63.5t-49.5 -25.5q-17 0 -31 12.5t-15 32.5z" />
    <glyph glyph-name="Tcaron" unicode="&#x164;" horiz-adv-x="559" 
d="M278 -12q-25 0 -35 20t-10 49q1 118 1.5 261.5t0 298.5t-1.5 314.5t-3 309.5q-46 -1 -90 -2t-79 -1q-19 0 -33.5 17t-14.5 46q0 17 3 33.5t11 23.5q19 -2 50 -3t65.5 -2t70 -2t63.5 -1q63 -1 120 0t106 0q19 0 31.5 -17.5t12.5 -42.5q0 -20 -5.5 -32.5t-16.5 -21.5
q-17 1 -39.5 2t-48 1.5t-53 0.5h-53.5q0 -185 1 -348.5t3 -313.5t4 -291t2 -281q-9 -9 -22.5 -13.5t-39.5 -4.5zM339 1451q-12 -5 -29 -8t-32 -3q-29 0 -44 8t-20 25q-9 26 -20 55.5t-23 59t-24 58t-24 54.5q8 11 23 18.5t35 7.5q28 0 42 -25q16 -34 31.5 -77t27.5 -80
q19 38 41 83.5t39 87.5q10 4 19.5 6.5t23.5 2.5q21 0 33 -11.5t12 -28.5q0 -13 -8 -32q-9 -20 -22.5 -43t-27.5 -48.5t-28.5 -53t-24.5 -56.5z" />
    <glyph glyph-name="tcaron" unicode="&#x165;" horiz-adv-x="503" 
d="M467 941q-43 2 -91.5 2t-99.5 -1q-3 -169 -8.5 -337.5t-0.5 -324.5q4 -180 98 -180q24 0 48 6t44 17q9 -10 15 -26t6 -36q0 -35 -33.5 -55t-83.5 -20q-99 0 -147.5 76.5t-48.5 214.5q0 162 2.5 330t3.5 333q-24 -1 -47 -0.5t-43 1.5q-48 0 -48 49q0 21 8 36.5t14 17.5
q54 -3 116 -3q0 77 -1 150.5t-3 143.5q10 6 23 10t33 4q26 0 37 -11t13 -34q3 -63 4 -129t0 -135q83 0 155 3q25 2 36.5 -11.5t11.5 -36.5q0 -20 -4.5 -32.5t-8.5 -21.5zM367 1175q27 16 47 44t30 73q-51 4 -70.5 28t-19.5 72q0 35 7.5 55t18.5 34q55 5 93 -8
q31 -10 43.5 -37t11.5 -68q-1 -35 -10.5 -76t-25.5 -75.5t-37.5 -57.5t-45.5 -23q-15 0 -28 10.5t-14 28.5z" />
    <glyph glyph-name="Tbar" unicode="&#x166;" horiz-adv-x="559" 
d="M546 1290q0 -20 -5.5 -32.5t-16.5 -21.5q-17 1 -39.5 2t-48 1.5t-53 0.5h-53.5q0 -152 0.5 -287t2.5 -262l138 3q17 0 29 -13.5t12 -36.5q0 -20 -3.5 -32t-9.5 -23q-32 2 -74.5 2.5t-90.5 0.5q2 -155 3.5 -298.5t2.5 -287.5q-9 -9 -22.5 -13.5t-39.5 -4.5q-25 0 -35 20
t-10 49q1 113 1 249.5v284.5q-38 -1 -74 -1h-67q-16 0 -30.5 14t-14.5 40q0 20 3.5 31t11.5 20q37 -2 81 -3t90 -1q0 139 -1 278t-3 272q-46 -1 -90 -2t-79 -1q-19 0 -33.5 17t-14.5 46q0 17 3 33.5t11 23.5q19 -2 50 -3t65.5 -2t70 -2t63.5 -1q63 -1 120 0t106 0
q19 0 31.5 -17.5t12.5 -42.5z" />
    <glyph glyph-name="tbar" unicode="&#x167;" horiz-adv-x="503" 
d="M467 941q-43 2 -91.5 2t-99.5 -1q-2 -81 -4 -163t-4 -163q32 0 63.5 0.5t64.5 1.5q18 1 29.5 -13t11.5 -37q0 -20 -3.5 -30t-9.5 -21q-36 2 -75.5 2.5t-82.5 0.5q-1 -62 -1 -122t2 -118q4 -180 98 -180q24 0 48 6t44 17q9 -10 15 -26t6 -36q0 -35 -33.5 -55t-83.5 -20
q-99 0 -147.5 76.5t-48.5 214.5v120t1 122h-80q-17 0 -31 12t-14 38q0 20 3 31t11 21q29 -2 56.5 -2.5t55.5 -1.5l4 323q-24 -1 -47 -0.5t-43 1.5q-48 0 -48 49q0 21 8 36.5t14 17.5q54 -3 116 -3q0 77 -1 150.5t-3 143.5q10 6 23 10t33 4q26 0 37 -11t13 -34q3 -63 4 -129
t0 -135q83 0 155 3q25 2 36.5 -11.5t11.5 -36.5q0 -20 -4.5 -32.5t-8.5 -21.5z" />
    <glyph glyph-name="Utilde" unicode="&#x168;" horiz-adv-x="709" 
d="M369 -13q-57 0 -105.5 19t-84.5 55.5t-57 90t-22 121.5q-1 88 -1 186.5t0.5 199.5t1 200t0.5 188t-0.5 164.5t-1.5 128.5q12 7 24.5 9.5t33.5 2.5q20 0 36 -10.5t16 -32.5q0 -47 -0.5 -114.5t-1.5 -148.5t-2.5 -171.5t-2.5 -184.5t-1.5 -188t-0.5 -181
q0 -113 43.5 -171.5t123.5 -58.5q40 0 66.5 18.5t42.5 56.5t22.5 95t6.5 134q1 142 -0.5 277t-3.5 256.5t-3.5 227t-1.5 188.5q11 6 20 8.5t32 2.5q26 0 41.5 -11.5t15.5 -32.5q0 -98 0.5 -211.5t1 -234t1 -242.5t0.5 -237q0 -205 -59.5 -302t-179.5 -97zM438 1483
q-28 0 -54 9.5t-49 20.5t-44 20.5t-39 9.5q-8 0 -17.5 -3t-18.5 -9.5t-15.5 -17t-9.5 -25.5q-11 -8 -32 -8q-22 0 -34.5 14.5t-12.5 36.5q0 25 11.5 44.5t30 33t41.5 21t45 7.5q30 0 56.5 -10t49.5 -22t44 -22t39 -10q19 0 36.5 11t22.5 39q5 3 12 6t20 3q17 0 30 -13.5
t13 -36.5q0 -19 -9.5 -37t-26.5 -31.5t-39.5 -22t-49.5 -8.5z" />
    <glyph glyph-name="utilde" unicode="&#x169;" horiz-adv-x="636" 
d="M440 207q-35 -111 -87 -163.5t-107 -52.5q-34 0 -63 18t-50 54.5t-33 93.5t-13 135q-1 88 -1 184t-0.5 193t-2 191t-5.5 179q11 5 24.5 7t33.5 2q18 0 36 -10.5t19 -29.5q3 -86 2.5 -164.5t-2 -159t-2.5 -166.5t2 -188q3 -109 25.5 -158t66.5 -49q20 0 46.5 15t50 52
t39.5 99t16 155q2 147 -1.5 296.5t-11.5 295.5q9 5 25.5 8.5t31.5 3.5q19 0 35 -9.5t16 -39.5q0 -63 0.5 -142.5t1.5 -168t2 -181.5t3 -183t4.5 -173t6.5 -151q-14 -8 -28 -12.5t-34 -4.5t-34.5 11t-14.5 35zM396 1177q-28 0 -54 9.5t-49 20.5t-44 20.5t-39 9.5
q-8 0 -17.5 -3t-18.5 -9.5t-15.5 -17t-9.5 -25.5q-11 -8 -32 -8q-22 0 -34.5 14.5t-12.5 36.5q0 25 11.5 44.5t30 33t41.5 21t45 7.5q30 0 56.5 -10t49.5 -22t44 -22t39 -10q19 0 36.5 11t22.5 39q5 3 12 6t20 3q17 0 30 -13.5t13 -36.5q0 -19 -9.5 -37t-26.5 -31.5
t-39.5 -22t-49.5 -8.5z" />
    <glyph glyph-name="Umacron" unicode="&#x16a;" horiz-adv-x="709" 
d="M369 -13q-57 0 -105.5 19t-84.5 55.5t-57 90t-22 121.5q-1 88 -1 186.5t0.5 199.5t1 200t0.5 188t-0.5 164.5t-1.5 128.5q12 7 24.5 9.5t33.5 2.5q20 0 36 -10.5t16 -32.5q0 -47 -0.5 -114.5t-1.5 -148.5t-2.5 -171.5t-2.5 -184.5t-1.5 -188t-0.5 -181
q0 -113 43.5 -171.5t123.5 -58.5q40 0 66.5 18.5t42.5 56.5t22.5 95t6.5 134q1 142 -0.5 277t-3.5 256.5t-3.5 227t-1.5 188.5q11 6 20 8.5t32 2.5q26 0 41.5 -11.5t15.5 -32.5q0 -98 0.5 -211.5t1 -234t1 -242.5t0.5 -237q0 -205 -59.5 -302t-179.5 -97zM527 1547
q0 -17 -4 -27.5t-9 -20.5q-38 2 -79.5 2.5t-82.5 0t-81 -1t-75 -0.5q-24 0 -32 15.5t-8 35.5q0 17 2.5 29.5t10.5 22.5q35 -3 76.5 -3t83.5 1t83.5 2t76.5 0q23 -1 30.5 -15.5t7.5 -40.5z" />
    <glyph glyph-name="umacron" unicode="&#x16b;" horiz-adv-x="636" 
d="M440 207q-35 -111 -87 -163.5t-107 -52.5q-34 0 -63 18t-50 54.5t-33 93.5t-13 135q-1 88 -1 184t-0.5 193t-2 191t-5.5 179q11 5 24.5 7t33.5 2q18 0 36 -10.5t19 -29.5q3 -86 2.5 -164.5t-2 -159t-2.5 -166.5t2 -188q3 -109 25.5 -158t66.5 -49q20 0 46.5 15t50 52
t39.5 99t16 155q2 147 -1.5 296.5t-11.5 295.5q9 5 25.5 8.5t31.5 3.5q19 0 35 -9.5t16 -39.5q0 -63 0.5 -142.5t1.5 -168t2 -181.5t3 -183t4.5 -173t6.5 -151q-14 -8 -28 -12.5t-34 -4.5t-34.5 11t-14.5 35zM490 1241q0 -17 -4 -27.5t-9 -20.5q-38 2 -79.5 2.5t-82.5 0
t-81 -1t-75 -0.5q-24 0 -32 15.5t-8 35.5q0 17 2.5 29.5t10.5 22.5q35 -3 76.5 -3t83.5 1t83.5 2t76.5 0q23 -1 30.5 -15.5t7.5 -40.5z" />
    <glyph glyph-name="Ubreve" unicode="&#x16c;" horiz-adv-x="709" 
d="M369 -13q-57 0 -105.5 19t-84.5 55.5t-57 90t-22 121.5q-1 88 -1 186.5t0.5 199.5t1 200t0.5 188t-0.5 164.5t-1.5 128.5q12 7 24.5 9.5t33.5 2.5q20 0 36 -10.5t16 -32.5q0 -47 -0.5 -114.5t-1.5 -148.5t-2.5 -171.5t-2.5 -184.5t-1.5 -188t-0.5 -181
q0 -113 43.5 -171.5t123.5 -58.5q40 0 66.5 18.5t42.5 56.5t22.5 95t6.5 134q1 142 -0.5 277t-3.5 256.5t-3.5 227t-1.5 188.5q11 6 20 8.5t32 2.5q26 0 41.5 -11.5t15.5 -32.5q0 -98 0.5 -211.5t1 -234t1 -242.5t0.5 -237q0 -205 -59.5 -302t-179.5 -97zM346 1449
q-35 0 -66 11t-54 35t-36 63t-12 95q18 15 47 15q20 0 32 -10.5t11 -29.5q0 -54 22.5 -79.5t57.5 -25.5q40 0 67.5 30t19.5 93q6 8 18 13t26 5q20 0 32 -10.5t12 -33.5q0 -41 -13.5 -73t-37.5 -53.5t-56.5 -33t-69.5 -11.5z" />
    <glyph glyph-name="ubreve" unicode="&#x16d;" horiz-adv-x="636" 
d="M440 207q-35 -111 -87 -163.5t-107 -52.5q-34 0 -63 18t-50 54.5t-33 93.5t-13 135q-1 88 -1 184t-0.5 193t-2 191t-5.5 179q11 5 24.5 7t33.5 2q18 0 36 -10.5t19 -29.5q3 -86 2.5 -164.5t-2 -159t-2.5 -166.5t2 -188q3 -109 25.5 -158t66.5 -49q20 0 46.5 15t50 52
t39.5 99t16 155q2 147 -1.5 296.5t-11.5 295.5q9 5 25.5 8.5t31.5 3.5q19 0 35 -9.5t16 -39.5q0 -63 0.5 -142.5t1.5 -168t2 -181.5t3 -183t4.5 -173t6.5 -151q-14 -8 -28 -12.5t-34 -4.5t-34.5 11t-14.5 35zM310 1143q-35 0 -66 11t-54 35t-36 63t-12 95q18 15 47 15
q20 0 32 -10.5t11 -29.5q0 -54 22.5 -79.5t57.5 -25.5q40 0 67.5 30t19.5 93q6 8 18 13t26 5q20 0 32 -10.5t12 -33.5q0 -41 -13.5 -73t-37.5 -53.5t-56.5 -33t-69.5 -11.5z" />
    <glyph glyph-name="Uring" unicode="&#x16e;" horiz-adv-x="709" 
d="M369 -13q-57 0 -105.5 19t-84.5 55.5t-57 90t-22 121.5q-1 88 -1 186.5t0.5 199.5t1 200t0.5 188t-0.5 164.5t-1.5 128.5q12 7 24.5 9.5t33.5 2.5q20 0 36 -10.5t16 -32.5q0 -47 -0.5 -114.5t-1.5 -148.5t-2.5 -171.5t-2.5 -184.5t-1.5 -188t-0.5 -181
q0 -113 43.5 -171.5t123.5 -58.5q40 0 66.5 18.5t42.5 56.5t22.5 95t6.5 134q1 142 -0.5 277t-3.5 256.5t-3.5 227t-1.5 188.5q11 6 20 8.5t32 2.5q26 0 41.5 -11.5t15.5 -32.5q0 -98 0.5 -211.5t1 -234t1 -242.5t0.5 -237q0 -205 -59.5 -302t-179.5 -97zM344 1448
q-29 0 -53.5 11.5t-42 31.5t-27 47t-9.5 59q0 26 9.5 50.5t27 43.5t42 30.5t53.5 11.5t55.5 -10.5t46 -28.5t31 -42.5t11.5 -52.5q0 -33 -10 -60.5t-28.5 -47.5t-45 -31.5t-60.5 -11.5zM347 1661q-23 0 -41.5 -17.5t-18.5 -48.5q0 -32 17 -53t44 -21q31 0 48.5 20.5
t17.5 55.5q0 17 -6.5 29t-16 20t-21.5 11.5t-23 3.5z" />
    <glyph glyph-name="uring" unicode="&#x16f;" horiz-adv-x="636" 
d="M440 207q-35 -111 -87 -163.5t-107 -52.5q-34 0 -63 18t-50 54.5t-33 93.5t-13 135q-1 88 -1 184t-0.5 193t-2 191t-5.5 179q11 5 24.5 7t33.5 2q18 0 36 -10.5t19 -29.5q3 -86 2.5 -164.5t-2 -159t-2.5 -166.5t2 -188q3 -109 25.5 -158t66.5 -49q20 0 46.5 15t50 52
t39.5 99t16 155q2 147 -1.5 296.5t-11.5 295.5q9 5 25.5 8.5t31.5 3.5q19 0 35 -9.5t16 -39.5q0 -63 0.5 -142.5t1.5 -168t2 -181.5t3 -183t4.5 -173t6.5 -151q-14 -8 -28 -12.5t-34 -4.5t-34.5 11t-14.5 35zM308 1142q-29 0 -53.5 11.5t-42 31.5t-27 47t-9.5 59
q0 26 9.5 50.5t27 43.5t42 30.5t53.5 11.5t55.5 -10.5t46 -28.5t31 -42.5t11.5 -52.5q0 -33 -10 -60.5t-28.5 -47.5t-45 -31.5t-60.5 -11.5zM311 1355q-23 0 -41.5 -17.5t-18.5 -48.5q0 -32 17 -53t44 -21q31 0 48.5 20.5t17.5 55.5q0 17 -6.5 29t-16 20t-21.5 11.5t-23 3.5
z" />
    </font>
</defs>
</svg>
