<?xml version="1.0" standalone="no"?>
<!DOCTYPE svg PUBLIC "-//W3C//DTD SVG 1.1//EN" "http://www.w3.org/Graphics/SVG/1.1/DTD/svg11.dtd" >
<svg xmlns="http://www.w3.org/2000/svg" xmlns:xlink="http://www.w3.org/1999/xlink" version="1.1">
<metadata>
Created by FontForge 20170731 at Fri Oct 25 13:54:34 2013
 By Aleksey,,,
Copyright (c) 2010 by Font Diner Inc.. All rights reserved.
</metadata>
<defs>
<font id="UVFFilmotypeHoney" horiz-adv-x="171" >
  <font-face 
    font-family="UVF Filmotype Honey"
    font-weight="300"
    font-stretch="normal"
    units-per-em="1000"
    panose-1="2 0 0 0 0 0 0 0 0 0"
    ascent="800"
    descent="-200"
    x-height="325"
    cap-height="612"
    bbox="-241 -396 893 929"
    underline-thickness="50"
    underline-position="-200"
    unicode-range="U+0020-FB02"
  />
<missing-glyph horiz-adv-x="0" 
 />
    <glyph glyph-name="fi" unicode="fi" horiz-adv-x="289" 
d="M203 306q9 0 16 -5t7 -9l-7 -36q-7 -35 -14 -85.5t-7 -85.5q0 -46 6.5 -63t20.5 -17q16 0 32 28q20 37 37 102.5t17 109.5q0 13 9 13t9 -14q0 -48 -18.5 -125t-47.5 -117q-15 -21 -35 -21q-31 0 -45.5 22t-14.5 77v6q-25 -58 -62 -58q28 -103 28 -212q0 -55 -15 -107.5
t-42 -52.5q-42 0 -58 54.5t-16 181.5q0 166 19.5 371.5t41.5 338.5q3 19 35 19q7 0 13 -4.5t6 -8.5q0 -2 -2 -5.5t-5 -8t-5 -8.5q-12 -24 -18 -69q-37 -274 -46 -387q1 1 4 1q18 0 36 -37q8 -18 14 -37q3 -1 10 -1q23 0 40.5 38t27.5 90q6 63 8 106q0 6 6 11t15 5zM76 42
q-23 17 -37 43q-7 -94 -7 -220q0 -56 6 -99.5t14.5 -64t17.5 -20.5q18 0 28.5 47.5t10.5 97.5q0 139 -33 216zM224 538q14 0 22.5 -13.5t8.5 -27.5q0 -10 -6.5 -17.5t-15.5 -7.5q-13 0 -27.5 10t-14.5 24q0 9 10.5 20.5t22.5 11.5z" />
    <glyph glyph-name="fl" unicode="fl" horiz-adv-x="365" 
d="M281 630q25 0 43 -18t18 -82q0 -127 -30 -257.5t-78 -203.5q17 -72 54 -72q38 0 68.5 91t30.5 157q0 13 9 13t9 -13q0 -24 -7 -66.5t-20.5 -92t-38 -85t-54.5 -35.5q-22 0 -42 19.5t-33 56.5l-5 -5q-26 -26 -67 -26q-6 0 -18 2q19 -88 19 -190q0 -152 -63 -152
q-40 0 -55 61q-12 51 -12 276q0 224 60 613q2 16 27 16q16 0 16 -17q0 -6 -2.5 -17.5t-7.5 -32t-9 -42.5q-36 -203 -50 -403q3 5 13 5q24 0 40 -37q10 -22 18 -54q10 -7 25 -7q34 0 64 30q-13 50 -13 115q0 78 22.5 212.5t40.5 210.5q7 30 28 30zM90 28q-42 29 -49 70
q-6 -88 -6 -174q0 -77 6.5 -132t15.5 -77.5t18 -22.5q18 0 27 37.5t9 86.5q0 143 -21 212zM224 179q0 -34 4 -76q37 76 62 187.5t25 226.5q0 27 -4.5 50.5t-9.5 23.5q-9 0 -27.5 -64.5t-34 -165t-15.5 -182.5z" />
    <glyph glyph-name=".notdef" horiz-adv-x="0" 
 />
    <glyph glyph-name=".null" horiz-adv-x="0" 
 />
    <glyph glyph-name="nonmarkingreturn" horiz-adv-x="333" 
 />
    <glyph glyph-name="space" unicode=" " horiz-adv-x="151" 
 />
    <glyph glyph-name="exclam" unicode="!" horiz-adv-x="193" 
d="M112 639q11 0 23.5 -10t12.5 -17q0 -1 -4.5 -18.5t-10.5 -49t-12 -73t-10.5 -103t-4.5 -126.5q0 -23 0.5 -43t1.5 -32.5t2 -21t1.5 -13.5t0.5 -6q0 -14 -8 -14q-9 0 -17.5 17t-14.5 55t-6 91q0 27 10.5 182.5t10.5 157.5q0 10 7 17t18 7zM101 76q6 0 16 -13.5t10 -23.5
q0 -14 -6 -29t-17 -15q-13 0 -24 10t-11 23t11.5 30.5t20.5 17.5z" />
    <glyph glyph-name="quotedbl" unicode="&#x22;" horiz-adv-x="163" 
d="M86 685q4 0 9.5 -7t5.5 -15q0 -13 -27 -72.5t-36 -76.5q-11 -20 -21 -20q-9 0 -9 12q0 2 6 14q41 79 64 143l2.5 10t2.5 9t3 3zM135 671q4 0 10.5 -7.5t6.5 -15.5q0 -15 -24.5 -71.5t-41.5 -83.5q-10 -17 -20 -17q-9 0 -9 12q0 3 8 19q32 62 61 142q8 22 9 22z" />
    <glyph glyph-name="numbersign" unicode="#" horiz-adv-x="235" 
d="M165 607q11 0 6 -43q-3 -29 -5 -92h1q30 2 35 2q8 0 13.5 -5t5.5 -10q0 -7 -19 -10q-10 -2 -37 -4l-3 -82l2 1h2q15 1 28.5 4t20 6t7.5 3q5 0 5 -5q0 -8 -8.5 -17.5t-17.5 -12.5q-10 -3 -39 -7q-2 -54 -2 -123q0 -29 -7 -29q-17 0 -17 43q0 11 2 107q-15 -1 -45 -1
q-2 -61 -2 -138q0 -29 -7 -29q-17 0 -17 43q0 12 4 124h-13q-11 0 -19 -1.5t-12 -3t-5 -1.5q-7 0 -7 9q0 17 35 23l22 2l5 80h-18q-43 0 -43 16q0 6 3 8t14 2q26 0 45 1q7 93 12 123q4 27 11 27q11 0 6 -43q-5 -29 -8 -106q19 0 45 2q5 84 10 110q4 27 11 27zM94 361
q8 0 23 0.5t22 0.5q2 54 4 81q-30 -2 -45 -2z" />
    <glyph glyph-name="dollar" unicode="$" horiz-adv-x="241" 
d="M92 558h12q3 60 12 60t12 -63q20 -4 40 -19q30 -23 30 -63q0 -22 -8.5 -41t-16.5 -19q-17 0 -17 43q0 82 -43 82q-20 0 -30.5 -19.5t-10.5 -50.5q0 -24 18.5 -49t40.5 -40q6 -4 24 -15.5t23.5 -16.5t16 -15t14 -20t3.5 -23q0 -26 -19.5 -43.5t-56.5 -17.5h-5
q0 -64 -9 -64q-17 0 -13 67q-52 10 -82 55q-12 18 -6 25t19 -8q45 -52 91 -52q18 0 30 13t12 31q0 32 -63 67q-71 41 -71 113q0 31 13.5 57t39.5 26z" />
    <glyph glyph-name="percent" unicode="%" horiz-adv-x="453" 
d="M82 626q22 0 44 -26q30 -2 32 -93q20 -15 57 -15q51 0 109.5 42t78.5 78q11 19 28 6q16 -12 -3 -33q-196 -225 -323 -539q-4 -11 -7.5 -25t-5.5 -20t-5 -6q-5 0 -12.5 10t-7.5 16t14 46q17 48 65.5 142t92.5 164q59 95 87 136q-59 -40 -116 -40q-28 0 -51 13v-11
q0 -61 -17.5 -106.5t-52.5 -45.5q-76 0 -76 118q0 54 22 121.5t47 67.5zM320 293q5 0 12.5 -3t14.5 -3q34 0 51.5 -31.5t17.5 -85.5q0 -64 -20 -121t-53 -57q-78 0 -78 136q0 53 18.5 109t36.5 56zM345 266q-22 0 -35 -57.5t-13 -105.5q0 -42 11.5 -67.5t29.5 -25.5
q20 0 35.5 41.5t15.5 104.5q0 40 -11 75t-33 35zM111 566v13q-7 15 -15 15q-6 0 -17.5 -25t-21 -66.5t-9.5 -78.5q0 -36 10.5 -59t25.5 -23q25 0 37 40.5t12 86.5q0 8 -2 38q-20 24 -20 59z" />
    <glyph glyph-name="ampersand" unicode="&#x26;" horiz-adv-x="538" 
d="M381 234q86 0 115 -1q35 -1 35 -20q0 -6 -17 -6q-1 0 -12 -0.5t-29 -0.5h-34q-68 -89 -99 -122q28 -36 41 -51q27 -33 37 -33q14 0 14 -8q0 -9 -23 -9q-10 0 -36 24q-18 17 -53 58q-84 -79 -166 -79q-50 0 -88 37.5t-38 93.5q0 30 10 58.5t36 63t38 48.5t48 53
q-30 83 -30 153q0 62 28 104.5t64 42.5q40 0 75 -32.5t35 -76.5q0 -47 -28.5 -89t-88.5 -102l-17 -17q21 -52 45 -94zM211 228q-19 34 -36 72q-117 -123 -117 -199q0 -42 29.5 -64.5t70.5 -22.5q69 0 144 75q-39 50 -76 112q-51 -2 -55 -1q-22 1 -22 13t16 13q1 0 7 0.5
t17.5 1t21.5 0.5zM167 483q0 -58 17 -117q4 4 16.5 17.5t17.5 19t16 18t16 18.5t14 17.5t13.5 18.5t10.5 17t8.5 18t4.5 17t2 17q0 28 -22 51t-42 23q-25 0 -48.5 -36t-23.5 -99zM258 202q27 -45 62 -93q14 16 34 45q21 32 19 52h-25q-12 0 -90 -4z" />
    <glyph glyph-name="quotesingle" unicode="'" horiz-adv-x="100" 
d="M74 675q6 0 13.5 -10t7.5 -19q0 -38 -51 -128q-10 -17 -21 -9q-10 8 -3 23q22 48 38 106q1 5 3 12l3 10.5t2.5 7.5t3 5.5t4.5 1.5z" />
    <glyph glyph-name="parenleft" unicode="(" horiz-adv-x="196" 
d="M155 691q10 0 21 -8t11 -13q0 -3 -2 -5.5t-7 -7t-7 -7.5q-25 -29 -56.5 -140t-31.5 -211q0 -93 30 -221t80 -162q15 -10 15 -11q0 -5 -12 -5t-33 10t-35 31q-23 34 -50 139t-27 217q0 159 65 338q12 33 20 44.5t19 11.5z" />
    <glyph glyph-name="parenright" unicode=")" horiz-adv-x="190" 
d="M43 693q13 0 28 -8.5t15 -22.5q0 -28 4 -40q18 -63 36 -191t18 -211q0 -157 -47 -271q-9 -22 -23 -36t-24 -14q-16 0 -16 10q0 2 3 4t9 7t11 14q18 30 36.5 116.5t18.5 198.5q0 198 -68 377q-20 53 -20 54q0 13 19 13z" />
    <glyph glyph-name="asterisk" unicode="*" horiz-adv-x="163" 
d="M60 651q4 3 10.5 0t9.5 -8l6 -9q5 -10 8 -17q8 12 28 36q7 9 13 -1q5 -9 -3 -20q-7 -8 -19 -24q20 4 38 4q14 0 14 -9q0 -13 -21 -13q-14 0 -33 -3q20 -31 25 -36q8 -8 3 -15t-20 8q-8 8 -26 36q-9 -15 -18 -32q-9 -18 -19 -9q-5 5 1 19l11 21q-21 -5 -31 -9
q-15 -6 -18 1q-5 10 14 17q16 7 47 14q-12 19 -15 26q-11 19 -5 23z" />
    <glyph glyph-name="plus" unicode="+" horiz-adv-x="352" 
d="M95 301q34 0 54 -24t28 -59q2 9 6 25.5t6.5 27.5t3.5 16q2 14 5.5 18t14.5 4q19 0 11 -17q-3 -5 -8.5 -24t-13 -52.5t-11.5 -64.5q14 4 39.5 12.5t42 13t25.5 4.5q14 0 25.5 -4t16.5 -8.5t5 -6.5q0 -3 -34 -3q-13 0 -121 -30q-1 -7 -1 -22q0 -35 3 -57.5t6 -31t3 -9.5
q0 -6 -6 -6q-22 0 -26.5 21t-4.5 86v7v6q-25 -6 -47 -6q-35 0 -62 24t-27 70q0 38 19.5 64t47.5 26zM136 142q12 0 27 3q-5 130 -68 130q-22 0 -34.5 -14.5t-12.5 -40.5q0 -37 27 -57.5t61 -20.5z" />
    <glyph glyph-name="comma" unicode="," horiz-adv-x="154" 
d="M66 80q3 7 6.5 6t13.5 -11q11 -11 1 -33q-3 -7 -23 -42t-27 -45q-10 -15 -24 -5q-9 6 1 23q20 35 52 107z" />
    <glyph glyph-name="hyphen" unicode="-" horiz-adv-x="235" 
d="M-8 130q0 17 35 23q4 1 26.5 2t50.5 2t39 2q12 1 24.5 2.5t19.5 2.5t8 1q5 0 5 -5q0 -16 -22 -23q-30 -10 -143 -10q-11 0 -19 -1.5t-12 -3t-5 -1.5q-7 0 -7 9z" />
    <glyph glyph-name="period" unicode="." horiz-adv-x="186" 
d="M81 52q10 0 19.5 -8t9.5 -16q0 -9 -9 -22t-19 -13t-20 10t-10 20q0 11 9 20t20 9z" />
    <glyph glyph-name="slash" unicode="/" horiz-adv-x="343" 
d="M371 640q-207 -388 -371 -774q-3 -8 -9.5 -10.5t-9.5 0.5q-7 5 -1 21q136 332 359 782q5 9 14.5 14.5t16.5 2.5q16 -7 1 -36z" />
    <glyph glyph-name="zero" unicode="0" horiz-adv-x="418" 
d="M171 594q37 0 64 -10.5t48 -25t33 -18.5q34 -11 53 -79t19 -135q0 -153 -70 -270q-27 -44 -57 -63t-73 -19q-78 0 -131 57q-37 39 -37 185q0 88 23.5 177.5t59 145t68.5 55.5zM217 557q-35 0 -70 -58.5t-56.5 -143.5t-21.5 -162q0 -194 119 -194q65 0 114 100.5t49 236.5
q0 112 -43 166.5t-91 54.5z" />
    <glyph glyph-name="one" unicode="1" horiz-adv-x="174" 
d="M117 583q29 0 29 -22l-11 -79q-11 -78 -22.5 -185t-11.5 -178q0 -32 2 -59t4 -42t2 -17q0 -14 -12 -14q-45 0 -45 67q0 13 12.5 144.5t12.5 188.5q0 6 -9.5 17t-9.5 26q0 8 15 67t15 65q0 11 5.5 16t23.5 5z" />
    <glyph glyph-name="two" unicode="2" horiz-adv-x="401" 
d="M158 609q68 0 123.5 -42t55.5 -100q0 -84 -74 -211.5t-156 -215.5q90 4 143 4q91 0 132 -13q9 -3 9 -8q0 -18 -15 -18q-1 0 -11 1.5t-27 3t-36 1.5q-84 0 -172 -16q-16 -3 -32 -6.5t-24 -5.5t-12 -2q-19 0 -32.5 12.5t-13.5 29.5q0 5 9 8.5t25 11t29 20.5
q65 65 131.5 195.5t66.5 228.5q0 94 -103 94q-9 0 -15 -3t-11.5 -11t-9 -17t-8 -28t-8 -36t-10.5 -47.5t-13 -57.5t-16.5 -47.5t-22.5 -20.5q-22 0 -22 45q0 31 20 95t46 115q20 41 54 41z" />
    <glyph glyph-name="three" unicode="3" horiz-adv-x="397" 
d="M185 612q63 2 106.5 -33.5t43.5 -85.5q0 -48 -23 -95.5t-59 -82.5q3 -1 40 -21q70 -42 70 -123q0 -89 -55.5 -144.5t-126.5 -55.5q-63 0 -117.5 38.5t-54.5 77.5q0 12 5.5 20t11.5 8q10 0 16 -14q50 -106 127 -106q51 0 95 54.5t44 124.5q0 60 -24 91.5t-73 17.5
q-29 -18 -56 -18q-17 0 -17 23q0 15 14 28.5t37 13.5q11 0 33 -4q30 26 46.5 74t16.5 93t-22.5 68.5t-56.5 23.5q-77 0 -77 -91q0 -68 -11.5 -118t-32.5 -50q-13 0 -22.5 18t-9.5 41q0 36 13.5 86t45.5 95t73 46z" />
    <glyph glyph-name="four" unicode="4" horiz-adv-x="438" 
d="M269 613q27 0 51.5 -14.5t24.5 -36.5q0 -2 -3 -15.5t-8.5 -39.5t-9.5 -52q-12 -71 -26 -238q9 1 24 1q48 0 92 -4q15 -2 15 -20q0 -16 -26 -16q-5 0 -40.5 2t-66.5 3q-5 -77 -5 -111q0 -35 6 -57t12 -30t6 -9q0 -7 -17 -7q-28 0 -37 15.5t-9 80.5q0 40 4 119
q-35 -1 -82 -8.5t-81 -15t-37 -7.5q-5 0 -10 3.5t-7.5 7l-7.5 10.5t-6 8q-16 21 -16 30q0 5 3.5 12.5t6.5 12.5l3 5q179 297 217 348q17 23 30 23zM83 203q15 0 43.5 2t67.5 5t63 5l16 342q-48 -46 -98.5 -126t-79.5 -140q-28 -58 -28 -71q0 -17 16 -17z" />
    <glyph glyph-name="five" unicode="5" horiz-adv-x="415" 
d="M349 592q10 0 10 -13q0 -10 -19.5 -20t-43.5 -11q-96 -6 -158 -23q-20 -6 -25.5 -12.5t-10.5 -27.5q-3 -10 -9 -76t-6 -76q0 -13 11 -13l16 6q16 6 41.5 11.5t48.5 5.5q71 0 126.5 -48t55.5 -117q0 -93 -60 -145.5t-144 -52.5q-54 0 -120 26t-66 55q0 20 25 20
q14 0 36 -17t51 -34.5t61 -17.5q69 0 118 56t49 136q0 43 -26 74.5t-80 31.5q-40 0 -75.5 -17t-55 -33.5t-20.5 -16.5q-7 0 -25 22q-12 15 -12 44q0 5 4 42t8.5 91t4.5 100q0 24 29 31q10 3 130 11t131 8z" />
    <glyph glyph-name="six" unicode="6" horiz-adv-x="405" 
d="M196 612q23 0 101 -28q24 -8 38.5 -40t14.5 -65t-7 -52t-16 -19q-19 0 -25.5 13t-6.5 52q0 38 -15.5 71t-47.5 33q-45 0 -94 -104.5t-67 -213.5q23 37 64 64t84 27q71 0 115.5 -52.5t44.5 -128.5q0 -79 -45.5 -137.5t-125.5 -58.5q-81 0 -132.5 57.5t-51.5 157.5
q0 80 24.5 179t66 172t81.5 73zM221 323q-19 0 -42.5 -9.5t-48.5 -27.5t-41.5 -52t-16.5 -77q0 -88 32 -121t101 -33q52 0 89 57.5t37 137.5q0 51 -30 88t-80 37z" />
    <glyph glyph-name="seven" unicode="7" horiz-adv-x="354" 
d="M328 592q8 0 10.5 -8t6.5 -11q9 -5 9 -13q0 -3 -11 -18q-44 -61 -121.5 -209t-115.5 -253q-16 -45 -16 -91q0 -14 -17 -14q-10 0 -18 8t-8 18q0 71 187 470q28 59 28 61q0 16 -43 16q-59 0 -143 -24q-47 -14 -50 -14q-14 0 -14 26q0 19 23 25q124 31 293 31z" />
    <glyph glyph-name="eight" unicode="8" horiz-adv-x="437" 
d="M202 619q61 0 156 -93l11 14q22 32 22 46q0 3 -1 7q-1 3 -1 4.5t1 2.5t3 1q6 0 15 -13t9 -27q0 -74 -157 -197q-30 -24 -45 -35l18 -9q171 -93 171 -201q0 -76 -62.5 -118.5t-136.5 -42.5q-81 0 -137.5 44.5t-56.5 119.5q0 56 34.5 106t97.5 104q-74 47 -74 126
q0 49 41 105t92 56zM218 291q-20 10 -30 16q-70 -58 -108 -106.5t-38 -98.5q0 -47 45 -73.5t108 -26.5q65 0 114 36.5t49 104.5q0 25 -10 45.5t-34.5 40t-41 30t-54.5 32.5zM170 355q9 8 33.5 27.5t37 30t31.5 27t34.5 31t28.5 29.5q-7 7 -23.5 32.5t-35 39t-46.5 13.5
q-35 0 -76.5 -50.5t-41.5 -94.5q0 -46 58 -85z" />
    <glyph glyph-name="nine" unicode="9" horiz-adv-x="389" 
d="M316 587q5 0 10.5 -2.5t15.5 -2.5t21 -7t11 -12q0 -2 -6 -12t-9 -22q-12 -52 -27 -198.5t-15 -223.5q0 -36 5.5 -66.5t10.5 -46.5l5 -17q0 -9 -11 -9q-10 0 -34 15q-18 11 -18 122q0 28 6 109q-57 -20 -98 -20q-26 0 -52.5 7t-53.5 23t-44 48.5t-17 77.5q0 39 25 100
t66.5 110.5t79.5 49.5q23 0 57 -21.5t61 -47.5q0 4 0.5 8.5t0.5 7.5v3q0 27 10 27zM166 226q76 0 118 37l18 242q-20 23 -48 43t-45 20q-31 0 -66.5 -43.5t-58 -103t-22.5 -104.5q0 -46 30.5 -68.5t73.5 -22.5z" />
    <glyph glyph-name="colon" unicode=":" horiz-adv-x="169" 
d="M76 63q10 0 17.5 -7.5t7.5 -19.5q0 -26 -23 -26q-12 0 -19 7.5t-7 17.5t7.5 19t16.5 9zM76 262q11 0 23 -8.5t12 -19.5t-8.5 -18.5t-19.5 -7.5q-10 0 -18 10t-8 20q0 24 19 24z" />
    <glyph glyph-name="semicolon" unicode=";" horiz-adv-x="176" 
d="M91 291q11 0 18.5 -10.5t7.5 -21.5q0 -10 -7.5 -17t-18.5 -7q-10 0 -18.5 9t-8.5 20t7.5 19t19.5 8zM85 87q3 0 11 -9t8 -15q0 -14 -37 -57.5t-50 -43.5q-11 0 -11 11q0 7 4.5 12.5t16 17t22.5 27.5q6 9 11 18.5t8 15.5l6 12t5.5 8.5t5.5 2.5z" />
    <glyph glyph-name="less" unicode="&#x3c;" horiz-adv-x="405" 
d="M359 489q5 0 9.5 -14.5t4.5 -25.5q0 -13 -19 -29q-112 -93 -264 -186q44 -46 131.5 -94.5t134.5 -51.5q27 -1 27 -12q0 -5 -14 -16t-21 -11q-21 0 -121.5 51.5t-184.5 101.5q-25 15 -25 30q0 12 22 22q170 76 290 205q5 5 9.5 10.5t7.5 8.5t5.5 6t4.5 4t3 1z" />
    <glyph glyph-name="equal" unicode="=" horiz-adv-x="403" 
d="M12 180q0 17 35 23q4 1 68 2t132 2t80 2t24.5 2.5t19.5 2.5t8 1q5 0 5 -5q0 -16 -22 -23q-30 -10 -307 -10q-11 0 -19 -1.5t-12 -3t-5 -1.5q-7 0 -7 9zM12 305q0 17 35 23q4 1 68 2t132 2t80 2t24.5 2.5t19.5 2.5t8 1q5 0 5 -5q0 -16 -22 -23q-30 -10 -307 -10
q-11 0 -19 -1.5t-12 -3t-5 -1.5q-7 0 -7 9z" />
    <glyph glyph-name="greater" unicode="&#x3e;" horiz-adv-x="405" 
d="M41 49q-5 0 -9.5 14.5t-4.5 25.5q0 13 19 29q112 93 264 186q-44 46 -131.5 94.5t-134.5 51.5q-27 1 -27 12q0 5 14 16t21 11q21 0 121.5 -51.5t184.5 -101.5q25 -15 25 -30q0 -12 -22 -22q-170 -76 -290 -205q-5 -5 -9.5 -10.5t-7.5 -8.5t-5.5 -6t-4.5 -4t-3 -1z" />
    <glyph glyph-name="question" unicode="?" horiz-adv-x="357" 
d="M260 648q53 0 78.5 -42t25.5 -92q0 -40 -21.5 -83t-52.5 -79.5t-62.5 -71t-53 -69t-21.5 -61.5q0 -15 4 -25t4 -11q0 -9 -14 -9q-4 0 -8 2.5t-8 12t-4 24.5q0 39 21 82t51.5 82t60.5 77t51 78.5t21 74.5q0 37 -17 58.5t-47 21.5q-41 0 -99.5 -50t-101 -117.5
t-42.5 -112.5q0 -15 -1 -19t-7 -4q-8 0 -14 9.5t-6 19.5q0 53 42 125t105.5 125.5t115.5 53.5zM149 53q11 0 22 -7.5t11 -18.5q0 -13 -9.5 -25.5t-22.5 -12.5q-25 0 -25 26q0 11 7.5 24.5t16.5 13.5z" />
    <glyph glyph-name="at" unicode="@" horiz-adv-x="464" 
d="M389 245q0 99 -40.5 166t-110.5 67q-48 0 -89 -73.5t-60.5 -166.5t-19.5 -170q0 -112 41.5 -162.5t106.5 -50.5q31 0 59.5 8t47 19t32 24t20 22.5t6.5 14.5q0 8 1.5 9.5t7.5 1.5q11 0 11 -16q0 -32 -58.5 -68.5t-126.5 -36.5q-79 0 -124.5 62.5t-45.5 177.5
q0 53 10.5 121t31.5 139.5t60 120t87 48.5q60 0 100 -40t55.5 -95.5t15.5 -121.5q0 -88 -22 -168t-60 -80q-20 0 -34.5 21.5t-18.5 66.5q-10 -47 -24 -76q-15 -32 -42 -32q-55 0 -55 114q0 56 13.5 120.5t32.5 100.5q13 27 32 27q38 0 60 -47q1 -2 2.5 -5.5t1.5 -4.5h2
q6 0 16.5 -5.5t10.5 -9.5q0 -2 -1.5 -6t-4.5 -11.5t-5 -14.5q-4 -14 -10.5 -60.5t-6.5 -67.5q0 -85 29 -85q28 0 47 69.5t19 153.5zM230 30q39 76 50 222q-9 1 -11 17q-7 37 -22 37q-25 0 -45.5 -87t-20.5 -141q0 -79 22 -79q11 0 27 31z" />
    <glyph glyph-name="A" unicode="A" horiz-adv-x="567" 
d="M70 180q0 9 105 19q72 133 152 361q8 22 8 54q0 4 9 10.5t18 6.5q10 0 38 -16.5t28 -24.5q0 -4 -2.5 -20t-2.5 -30q0 -25 9.5 -117t22.5 -162q13 -67 34 -142.5t40 -110.5q4 -8 8.5 -14t7 -8t4 -4t1.5 -5q0 -7 -19 -7q-22 0 -32.5 9t-21.5 38q-28 65 -51 174
q-103 -14 -230 -19q-118 -224 -201 -224q-35 0 -73 22t-38 45q0 13 10 13q4 0 11 -10q15 -22 63 -22q90 0 191 175h-20h-12q-54 2 -57 9zM332 493q-39 -130 -120 -290q91 7 169 7q27 0 41 -1q-22 114 -59 345q-21 -26 -31 -61z" />
    <glyph glyph-name="B" unicode="B" horiz-adv-x="556" 
d="M377 633q74 0 131.5 -37t57.5 -86q0 -47 -75 -97t-161 -81q65 -2 115.5 -43.5t50.5 -102.5q0 -89 -78 -163t-143 -74q-79 0 -149 47q0 -4 0.5 -10t0.5 -9v-5t-0.5 -4t-2 -2.5l-3 -1t-4.5 -0.5q-18 0 -27 15q-15 24 -15 191q0 20 3.5 95t8 172t5.5 130q-78 0 -78 19
q0 8 25 13l55 9q1 38 13 38q33 0 36 -31q132 18 234 18zM118 170q0 -97 5 -145q17 -3 58.5 -25t66.5 -22q72 0 141.5 76.5t69.5 138.5q0 107 -139 107q-54 0 -112 -11.5t-89 -35.5q-1 -26 -1 -83zM140 573q-15 -146 -20 -264q92 6 186 40.5t155.5 84.5t61.5 97
q0 34 -40 52.5t-100 18.5q-78 0 -243 -29z" />
    <glyph glyph-name="C" unicode="C" horiz-adv-x="438" 
d="M234 631q69 0 138 -54q17 -13 24 -32t7 -58q0 -64 -16.5 -121.5t-32.5 -57.5q-23 0 -23 56q0 22 15.5 81.5t15.5 84.5q0 33 -37 54t-70 21q-46 0 -90.5 -74.5t-70.5 -175t-26 -184.5q0 -100 32.5 -138.5t95.5 -38.5q50 0 102 20t80.5 41t28.5 29t1.5 9.5t7.5 1.5
q11 0 11 -16q0 -31 -81.5 -74t-150.5 -43q-79 0 -127 63t-48 177q0 50 14.5 120.5t40 140.5t68 119t91.5 49z" />
    <glyph glyph-name="D" unicode="D" horiz-adv-x="488" 
d="M293 605q78 0 128.5 -63.5t50.5 -156.5q0 -72 -35 -173t-92 -179t-110 -78q-26 0 -62 26t-56 28q-3 -36 -7 -38q-25 0 -31 36.5t-6 163.5q0 69 23 353q-64 -27 -110 -54.5t-46 -40.5t-7 -13q-10 0 -10 22q0 17 52.5 52.5t123.5 65.5q4 39 4 51q0 7 7 11.5t15 4.5
t22.5 -11t14.5 -20l-2 -12q78 25 133 25zM155 546q-37 -252 -38 -494q10 -5 26 -20.5t33.5 -26.5t39.5 -11q42 0 91.5 67.5t83.5 166.5t34 182q0 91 -34.5 127t-102.5 36q-52 0 -133 -27z" />
    <glyph glyph-name="E" unicode="E" horiz-adv-x="585" 
d="M445 624q58 0 77.5 -12.5t19.5 -41.5q0 -26 -12 -26q-6 0 -19 19q-11 15 -85 15q-30 0 -77 -7t-105 -21.5t-98.5 -45.5t-40.5 -71q0 -64 138 -64q20 0 67.5 6t62.5 6q23 0 31.5 -7t8.5 -25q0 -9 -4 -16t-10 -7q-2 0 -13.5 6t-25.5 6q-34 0 -84 -11.5t-104 -33.5
t-92 -61.5t-38 -87.5q0 -47 39.5 -79.5t96 -45.5t123.5 -13q137 0 229 61q14 9 14 20q0 12 7 12q6 0 14 -6.5t8 -14.5q0 -18 -36.5 -44.5t-103.5 -47.5t-136 -21q-46 0 -90 8.5t-90 27.5t-74 58.5t-28 94.5q0 61 51.5 111.5t115.5 72.5q-101 19 -101 110q0 50 44 87.5
t109 55t119 25.5t92 8z" />
    <glyph glyph-name="F" unicode="F" horiz-adv-x="433" 
d="M52 281q0 7 105 13q6 160 16 268q-94 -11 -146 -19q-11 -2 -18 -10.5t-11 -8.5q-7 0 -18 13t-11 22q0 18 150 31q237 21 337 21q40 0 61 -2t26.5 -5t5.5 -8q0 -7 -76 -7q-48 0 -230 -19q-28 -62 -42 -274q12 0 31.5 0.5t26.5 0.5q85 0 85 -7q0 -16 -31 -21t-100 -5h-14
q-4 -65 -4 -127q0 -39 1 -68.5t3 -45t4 -24.5t3 -13l1 -4q0 -8 -10 -8q-31 0 -36.5 32t-5.5 203q0 35 1 56q-104 3 -104 16z" />
    <glyph glyph-name="G" unicode="G" horiz-adv-x="518" 
d="M450 275h35t23 -1t16 -3.5t4 -6.5q0 -7 -26.5 -14.5t-60.5 -10.5q-7 -100 -72.5 -179.5t-165.5 -79.5q-82 0 -132.5 51.5t-50.5 138.5q0 99 31.5 205.5t82 178.5t101.5 72q29 0 72.5 -15.5t71.5 -34.5q24 -16 36.5 -46t12.5 -61q0 -111 -30 -111q-37 0 -37 74q0 14 4 35
t4 39q0 32 -36 59.5t-69 27.5q-43 0 -90 -71.5t-76 -169.5t-29 -176q0 -166 124 -166q74 0 137.5 61t63.5 121q0 24 -16 45q-105 -3 -229 -15q-14 -1 -25 -7t-12 -6q-6 0 -6 8q0 5 13 14.5t28 13.5q25 7 124.5 18.5t178.5 11.5z" />
    <glyph glyph-name="H" unicode="H" horiz-adv-x="531" 
d="M414 630q10 0 36.5 -10t26.5 -19q0 -1 -12 -46t-27.5 -126.5t-23.5 -165.5q48 1 87 1q9 0 16 2t11.5 3.5t5.5 1.5q4 0 8 -3.5t4 -7.5q0 -9 -43 -18.5t-91 -11.5q-3 -46 -3 -96q0 -37 3.5 -64.5t8.5 -42t10.5 -23t9 -12.5t3.5 -5q0 -5 -19 -11.5t-25 -6.5q-11 0 -17 11
q-20 35 -101.5 99.5t-157.5 100.5q-7 -87 -7 -116q0 -13 1.5 -25.5t3.5 -21t4 -15t3.5 -10t1.5 -4.5q0 -7 -6 -7q-26 0 -37 17.5t-11 73.5q0 33 4 125q-32 10 -51 10q-11 0 -14.5 4t-3.5 15q0 7 4.5 11t9.5 5.5t16 3.5q5 1 11.5 1.5t16 1.5t15.5 2q3 43 7.5 99.5t7 91
t2.5 45.5q0 23 -0.5 40.5t-1 27t-1 16t-1 9.5t-0.5 4q0 10 6 10q8 0 37 -13q10 -4 13.5 -14.5t3.5 -48.5q0 -9 -4 -46.5t-11.5 -106t-11.5 -110.5q118 6 247 8q3 49 8.5 123t9 123.5t3.5 55.5q0 11 -2 27t-2 20q0 7 6 12.5t13 5.5zM373 167q0 5 2 63l-247 -4q0 -2 -0.5 -7.5
t-0.5 -8.5q72 -34 145.5 -86t110.5 -106q-10 54 -10 149z" />
    <glyph glyph-name="I" unicode="I" horiz-adv-x="276" 
d="M-13 -9q0 8 115 20q0 13 -0.5 48t-0.5 50q0 24 6 167.5t6 204.5q0 54 -6 88h-39q-56 0 -56 4t18.5 13t33.5 11q19 3 99 9t105 6q51 0 51 -7q0 -5 -14.5 -11t-46 -12t-73.5 -9q-25 -81 -35 -218t-10 -230q0 -15 5 -110q57 6 79 6q33 0 33 -10q0 -6 -23 -14t-65.5 -14.5
t-88.5 -6.5q-93 0 -93 15z" />
    <glyph glyph-name="J" unicode="J" horiz-adv-x="335" 
d="M253 617q14 0 28.5 -7.5t14.5 -14.5q0 -2 -4 -24.5t-10 -70t-9 -104.5v-238q0 -30 -0.5 -47t-2.5 -39.5t-7.5 -35t-13.5 -25t-21.5 -17.5t-32.5 -5q-53 0 -110.5 26t-91 56.5t-33.5 47.5q0 20 16 20q20 0 35 -19q71 -91 134 -91q38 0 56 21t25.5 78.5t7.5 176.5
q0 52 -1.5 100t-4 79.5t-4.5 56t-3.5 38t-1.5 15.5q0 8 10.5 15.5t23.5 7.5z" />
    <glyph glyph-name="K" unicode="K" horiz-adv-x="506" 
d="M483 605q4 0 11 -17t7 -26q0 -4 -1.5 -7.5t-3.5 -6t-6.5 -7t-7.5 -8.5q-45 -56 -160 -148.5t-219 -152.5q0 -2 -0.5 -6t-0.5 -6q55 -61 171 -118t184 -62q27 -1 27 -12q0 -5 -14 -16t-21 -11q-26 0 -134.5 49.5t-213.5 108.5v-24q0 -39 2 -68t4.5 -43t4.5 -22t4 -11t2 -5
q0 -9 -14 -9q-9 0 -29 10q-4 2 -8.5 51t-4.5 92v50l-20 13q-25 15 -25 30q0 13 22 22l26 11q1 26 3 49t4.5 45.5t3.5 33.5q5 68 5 201q0 15 14.5 29.5t22.5 14.5q28 0 28 -25q0 -5 -8 -47.5t-18 -119.5t-15 -160q94 52 197.5 138.5t154.5 156.5q4 5 8 11.5t6.5 9.5t4.5 6
t4 4.5t3 1.5z" />
    <glyph glyph-name="L" unicode="L" horiz-adv-x="573" 
d="M439 659q44 0 89.5 -63.5t45.5 -117.5q0 -37 -62.5 -82.5t-142.5 -76.5q-6 -55 -7 -74q-6 -94 -24 -147q28 -17 110 -72t122 -77q34 -19 65 -19q21 0 21 -6q0 -3 -16.5 -6.5t-26.5 -3.5q-17 0 -40.5 8.5t-55 26.5t-55.5 33.5t-67.5 44.5t-66.5 44q-45 -106 -172 -106
q-62 0 -126.5 61t-64.5 129q0 23 19 41t48 18q113 0 273 -95q9 51 12 124l3 59q-40 -12 -71 -12q-18 0 -33 5.5t-15 10.5t3.5 10.5t7.5 5.5q1 0 12 -5.5t19 -4.5q35 5 80 18q13 138 44 233.5t72 95.5zM198 -8q76 0 101 98q-155 96 -242 96q-52 0 -52 -32q0 -47 55.5 -104.5
t137.5 -57.5zM464 614q-28 0 -52 -79.5t-40 -187.5q54 21 95 50q57 42 57 111q0 38 -18 72t-42 34z" />
    <glyph glyph-name="M" unicode="M" horiz-adv-x="705" 
d="M253 639q14 0 36 -12.5t22 -20.5q0 -4 -4.5 -51.5t-4.5 -64.5q0 -158 26 -293t59 -135q22 0 64.5 107t76.5 239.5t34 197.5q0 19 27 19q21 0 42 -9.5t21 -16.5q0 -1 -3.5 -20.5t-9 -53.5t-11 -78t-9 -103t-3.5 -118q0 -257 66 -267q12 -2 12 -12q0 -4 -6 -8.5t-12 -4.5
q-126 0 -103 556q-20 -93 -49.5 -194.5t-70 -191.5t-70.5 -90q-97 0 -135 439q-7 -19 -26.5 -78t-35 -104t-42 -105.5t-51 -99.5t-58.5 -67.5t-69 -28.5q-12 0 -32.5 9t-35 18.5t-14.5 12.5q0 8 10 8q2 0 29 -6.5t36 -6.5q47 0 91 52.5t90 160.5q32 73 57 193t25 191
q0 12 9 24.5t22 12.5z" />
    <glyph glyph-name="N" unicode="N" horiz-adv-x="445" 
d="M162 631q18 0 31.5 -10t13.5 -18q0 -207 38 -394.5t84 -187.5q16 0 16 54q0 113 16.5 287t35.5 235q14 44 29 44q12 0 12 -20q0 -5 -3.5 -17.5t-9.5 -33.5t-10 -44q-40 -223 -40 -450q0 -18 1.5 -54t1.5 -37q0 -9 -15 -14.5t-36 -5.5q-32 0 -61.5 56t-52 149t-37.5 180
t-27 180q-6 -35 -13 -94t-13.5 -109t-15.5 -109t-22 -104.5t-30 -85t-41.5 -60.5t-54.5 -21q-36 0 -55.5 9t-19.5 24q0 7 5.5 11t10.5 4q4 0 4 -9q0 -3 9 -8t17 -5q110 0 160 335q29 189 29 293q0 14 12 22t31 8z" />
    <glyph glyph-name="O" unicode="O" horiz-adv-x="442" 
d="M178 640q129 0 181.5 -63.5t52.5 -205.5q0 -117 -20.5 -206t-69.5 -146.5t-122 -57.5q-32 0 -61 13t-57 42t-45 85.5t-17 133.5q0 87 28 184t65 159t65 62zM235 611q-41 0 -80 -69.5t-61.5 -166.5t-22.5 -182q0 -114 34.5 -157.5t94.5 -43.5q84 0 130 93.5t46 275.5
q0 106 -34.5 178t-106.5 72z" />
    <glyph glyph-name="P" unicode="P" horiz-adv-x="542" 
d="M351 623q96 0 144.5 -39.5t48.5 -85.5q0 -50 -31.5 -94.5t-76.5 -74.5t-104 -55t-106 -38.5t-90 -21.5q-1 -24 -1 -75q0 -81 3.5 -109.5t16.5 -41.5q1 -1 3 -2.5t4 -2t3 -2t1 -2.5q0 -4 -13 -4q-28 0 -39.5 13t-15.5 47.5t-4 117.5q0 27 1 54h-9q-16 0 -16 13t22 18
q2 0 4 1q1 45 4.5 154t4.5 150q-44 -13 -84 -32q-8 -4 -12.5 -8t-6.5 -6t-4 -2q-5 0 -5 40q0 16 114 49q0 10 0.5 20t0.5 16v5q0 15 42 15q14 0 17.5 -4t3.5 -20q0 -11 -1 -17q105 24 181 24zM167 560q-26 -214 -30 -312q67 17 119 36t111 51t92 79t33 105q0 36 -28 55.5
t-80 19.5q-83 0 -217 -34z" />
    <glyph glyph-name="Q" unicode="Q" horiz-adv-x="436" 
d="M42 -79q0 13 27 27t64 23q-49 28 -81 96t-32 178q0 94 18.5 183t58.5 152t93 63q42 0 87 -18.5t77 -48.5q53 -50 53 -221q0 -145 -33 -247t-102 -137q86 -22 110 -22q23 0 23 -5q0 -15 -21 -15l-68 6q-68 6 -127 6q-95 0 -123 -23q-11 -8 -14 -8q-10 0 -10 11zM230 607
q-65 0 -113 -121t-48 -274q0 -123 40.5 -173.5t96.5 -50.5q65 0 113.5 90.5t48.5 256.5q0 111 -28 195q-6 19 -14.5 27t-18 11.5t-14.5 8.5q-27 30 -63 30z" />
    <glyph glyph-name="R" unicode="R" horiz-adv-x="543" 
d="M353 619q83 0 135.5 -33.5t52.5 -83.5q0 -53 -59.5 -106t-134 -88t-161.5 -63q41 -87 124.5 -160.5t143.5 -73.5q13 0 25 4.5t14 4.5q5 0 5 -4q0 -2 -8.5 -9t-21.5 -13t-22 -6q-66 0 -151.5 66.5t-167.5 173.5l-18 -4q-6 -88 -6 -134q0 -30 1.5 -53t3.5 -35t4.5 -19
t4 -10.5t1.5 -4.5q0 -9 -19 -9q-22 0 -28 24.5t-6 107.5q0 9 2.5 78t5 171t3.5 183q-125 -46 -125 -65q0 -2 2 -3.5t2 -4.5q0 -5 -7 -5q-15 0 -15 20q0 41 144 94v43q0 18 8 18q21 0 32 -8.5t14 -33.5q130 41 222 41zM131 541q-1 -23 -8.5 -124t-10.5 -153q46 6 107.5 26.5
t122.5 51.5t103 76t42 91q0 40 -29.5 59t-92.5 19q-83 0 -234 -46z" />
    <glyph glyph-name="S" unicode="S" horiz-adv-x="438" 
d="M196 635q21 0 55 -15t55 -31q54 -41 54 -182q0 -93 -23 -93q-25 0 -25 64q0 80 -12 133q-22 92 -79 92q-30 0 -64 -55.5t-55 -120t-21 -98.5q0 -35 7.5 -57.5t30 -39.5t43 -26.5t67.5 -26.5q32 -12 42 -15.5t37 -15t37 -19.5t26 -21t21.5 -27t5.5 -31q0 -35 -39.5 -60.5
t-101.5 -25.5q-83 0 -178 26.5t-95 55.5q0 4 4 9.5t8 5.5q3 0 4 -5t4 -7q23 -19 99.5 -34.5t142.5 -15.5q102 0 102 63q0 16 -10.5 28.5t-38 25.5t-43 19t-57.5 20q-32 11 -51 18.5t-45 21.5t-40.5 28t-25 36t-10.5 48q0 44 22 119.5t63 142t84 66.5z" />
    <glyph glyph-name="T" unicode="T" horiz-adv-x="563" 
d="M604 603q38 0 38 -16q0 -7 -11.5 -11t-21.5 -4q-58 0 -246 -13q-20 -53 -38 -231.5t-18 -302.5q0 -15 2 -24.5t4 -14t2 -5.5q0 -11 -11 -11q-39 0 -39 78q0 40 11.5 206t12.5 300q-144 -11 -226 -24q-85 -13 -85 -41q0 -13 18.5 -22t53.5 -9q57 0 101 7t65.5 14t23.5 7
t2 -7q0 -10 -24.5 -22t-69 -20.5t-93.5 -8.5q-56 0 -81.5 18.5t-25.5 68.5q0 18 16 28.5t55 17.5q112 19 311.5 30.5t273.5 11.5z" />
    <glyph glyph-name="U" unicode="U" horiz-adv-x="472" 
d="M152 624q14 0 29 -10.5t15 -21.5q0 -3 -2.5 -6t-7 -7.5t-7.5 -8.5q-33 -47 -60 -163t-27 -220q0 -89 28.5 -135.5t79.5 -46.5q44 0 88 76t70.5 188.5t26.5 215.5q0 25 -1.5 44.5t-3.5 28.5t-2 11q0 12 18 12q12 0 36 -13t24 -18l-4 -10q-4 -10 -10.5 -30t-10.5 -41
q-13 -60 -23 -170.5t-10 -180.5q0 -30 1 -54t3 -39.5t4 -27.5t4.5 -18t4.5 -10t4 -5.5t3 -2.5t1 -2q0 -9 -17 -9q-47 0 -47 170q0 38 1 60q-23 -84 -64 -141.5t-98 -57.5q-72 0 -111 61t-39 173q0 48 9.5 121.5t20.5 120.5q-55 -55 -106 -55q-16 0 -32 7.5t-16 13.5
q0 3 4.5 3.5t12.5 -1t12 -1.5q39 0 89 46t82 107q3 6 10 21t10.5 20.5t7.5 5.5z" />
    <glyph glyph-name="V" unicode="V" horiz-adv-x="449" 
d="M85 635q88 0 88 -130q0 -25 -9 -142t-9 -152q0 -92 22.5 -155t56.5 -63q64 0 109 197.5t45 428.5q0 25 7 25q24 0 24 -40q0 -86 -8 -185t-26.5 -207.5t-55.5 -179.5t-88 -71q-54 0 -93 62.5t-39 194.5q0 36 10 167.5t10 145.5q0 68 -34 68q-43 0 -109.5 -106t-75.5 -161
q-3 -16 -13 -16q-9 0 -9 19q0 34 30 105t78 133t89 62z" />
    <glyph glyph-name="W" unicode="W" horiz-adv-x="568" 
d="M61 612q14 0 28.5 -10t14.5 -24q0 -2 -9 -39.5t-17.5 -104t-8.5 -140.5q0 -137 23.5 -213.5t59.5 -76.5q37 0 64 72t38.5 168.5t11.5 196.5q0 15 -1.5 53t-1.5 39q0 14 17 14q22 0 36.5 -6.5t14.5 -14.5q0 -1 -3 -10t-7.5 -29.5t-9.5 -51.5t-8 -86.5t-3 -125.5
q0 -91 23.5 -152t52.5 -61q47 0 91 152.5t44 308.5q0 34 -2 64t-4.5 48t-5.5 31t-5 19.5t-2 7.5q0 11 7 11q27 0 34.5 -46t7.5 -146q0 -71 -10 -151.5t-28.5 -155t-50 -123.5t-68.5 -49q-98 0 -118 195q-14 -89 -42.5 -150.5t-69.5 -61.5q-54 0 -89.5 90.5t-35.5 231.5
q0 26 2.5 100t5 138t2.5 66q0 7 6.5 14.5t15.5 7.5z" />
    <glyph glyph-name="X" unicode="X" horiz-adv-x="477" 
d="M80 7q0 32 171 297q-7 28 -17.5 75.5t-17 73t-16 54.5t-20.5 41.5t-25 12.5q-34 0 -76.5 -81.5t-42.5 -146.5q0 -21 -9 -21q-6 0 -11 14t-5 32q0 28 16.5 82t51 104t72.5 50q21 0 37.5 -6.5t29.5 -24t21 -31t17 -45.5t12.5 -48.5t12.5 -58.5q1 -5 1.5 -8t1.5 -7.5t2 -8.5
q47 67 112.5 145t97.5 106q13 11 18 11q7 0 7 -8q0 -10 -11 -21q-33 -33 -99 -116.5t-116 -157.5q30 -129 79.5 -237t92.5 -108q21 0 21 -6q0 -11 -36 -11q-107 0 -191 309q-144 -234 -144 -266q0 -3 1.5 -11.5t1.5 -10.5q0 -9 -9 -9q-12 0 -21.5 12.5t-9.5 29.5z" />
    <glyph glyph-name="Y" unicode="Y" horiz-adv-x="407" 
d="M57 593q11 0 28 -15t17 -27q0 -1 -8.5 -62.5t-17 -144t-8.5 -135.5q0 -104 20 -146t65 -42q49 0 85.5 72.5t53.5 179.5t24.5 195t7.5 152q0 4 6 9t11 5q6 0 22.5 -10.5t16.5 -16.5q0 -1 -4 -19.5t-10 -51t-12 -73t-10 -95.5t-4 -110q0 -33 7 -134.5t7 -144.5
q0 -100 -51 -168t-126 -68q-49 0 -130.5 31t-81.5 60q0 17 21 17q18 0 42 -20.5t55 -41.5t67 -21q73 0 116.5 67.5t43.5 205.5q0 15 -1 47t-2.5 78.5t-2.5 68.5q-14 -99 -53 -168.5t-94 -69.5q-60 0 -95 49t-35 149q0 26 8.5 165t8.5 147q0 13 -1.5 40.5t-1.5 29.5q0 6 5 11
t11 5z" />
    <glyph glyph-name="Z" unicode="Z" horiz-adv-x="472" 
d="M393 600q42 0 65 -26q20 -22 20 -42q0 -12 -7 -18t-27 -18q-35 -21 -207 -209q-67 -73 -122 -149.5t-55 -93.5q0 -13 24 -13q1 0 43 6.5t100 12.5t97 6q46 0 75.5 -5t37.5 -10.5t8 -10.5q0 -9 -25 -9q-4 0 -25.5 1.5t-33.5 1.5q-51 0 -123.5 -13t-125 -26t-56.5 -13
q-17 0 -31.5 16t-14.5 41q0 48 202 293q10 12 61.5 73t85 102t33.5 45q0 12 -51 12q-48 0 -134.5 -15.5t-120.5 -32.5q-4 -2 -7 -5t-4 -5.5t-2.5 -4t-2.5 -1.5q-4 0 -9.5 8.5t-5.5 19.5q0 13 42 26q59 18 163 37t133 19z" />
    <glyph glyph-name="bracketleft" unicode="[" horiz-adv-x="213" 
d="M68 669q0 23 29 26q100 6 113 6q10 0 14 -8q3 -5 -5 -7h-3q-51 -3 -67 -5q-37 -4 -37 -13q-6 -46 -6 -377q0 -114 -4.5 -228t-4.5 -128t16 -24t47 -10q10 0 27.5 1.5t25.5 1t8 -4.5q0 -15 -48 -17.5t-87 4.5q-27 5 -27 27q0 13 6 155.5t6 225.5q0 129 -1.5 236t-1.5 139z
" />
    <glyph glyph-name="backslash" unicode="\" horiz-adv-x="343" 
d="M371 -107q15 -29 -1 -36q-7 -3 -16.5 2.5t-14.5 14.5q-223 450 -359 782q-6 16 1 21q3 3 9.5 0.5t9.5 -10.5q164 -386 371 -774z" />
    <glyph glyph-name="bracketright" unicode="]" horiz-adv-x="214" 
d="M152 -66q2 -29 -8 -40t-42 -11q-48 0 -91 4q-22 2 -21 11.5t19 6.5q21 -3 42 -3q17 0 24.5 0.5t15 4t9.5 10.5q9 28 10.5 87t-0.5 171t-2 150q0 73 1.5 157t3 131t0.5 53q-2 18 -63 10q-7 -1 -17 -3.5t-17 -4t-13.5 -2.5t-10 0t-3.5 5q0 10 36 18.5t85 10.5q20 1 30.5 -8
t10.5 -21q0 -2 -2.5 -54t-4.5 -130t-2 -146q0 -182 10 -407z" />
    <glyph glyph-name="asciicircum" unicode="^" horiz-adv-x="418" 
d="M47 374q0 2 30 30q83 79 138 201q10 22 22 22q15 0 30 -25q115 -192 115 -224q0 -7 -11 -21t-16 -14t-8 13q-2 9 -4 14q-29 98 -107 197q-71 -116 -135 -191q-16 -19 -29 -19q-9 0 -17 5.5t-8 11.5z" />
    <glyph glyph-name="underscore" unicode="_" horiz-adv-x="283" 
d="M-35 -174q0 8 35 8h283q74 0 74 -10q0 -8 -57 -8h-283q-52 0 -52 10z" />
    <glyph glyph-name="grave" unicode="`" 
d="M10 449q-13 24 4 42q11 12 16 1q38 -76 91 -106q11 -6 3 -11q-5 -4 -13 -1q-31 11 -61 33t-40 42z" />
    <glyph glyph-name="a" unicode="a" horiz-adv-x="227" 
d="M137 292q1 -2 2.5 -5.5t1.5 -4.5h2q6 0 16.5 -5.5t10.5 -9.5q0 -2 -1.5 -6t-4.5 -11.5t-5 -14.5q-4 -14 -10.5 -60.5t-6.5 -67.5q0 -85 29 -85q27 0 52.5 83t25.5 140q0 13 9 13t9 -13q0 -59 -28.5 -153.5t-65.5 -94.5q-20 0 -34.5 21.5t-18.5 66.5q-10 -47 -24 -76
q-15 -32 -42 -32q-55 0 -55 114q0 56 13.5 120.5t32.5 100.5q13 27 32 27q38 0 60 -47zM78 30q39 76 50 222q-9 1 -11 17q-7 37 -22 37q-25 0 -45.5 -87t-20.5 -141q0 -79 22 -79q11 0 27 31z" />
    <glyph glyph-name="b" unicode="b" horiz-adv-x="228" 
d="M87 626q5 0 11 -7t6 -16q0 -8 -7 -48t-17.5 -95.5t-15.5 -86.5q-13 -81 -21 -209q18 82 44 133q15 29 42 29q28 0 43 -26.5t15 -67.5q0 -91 -23 -172.5t-64 -81.5q-24 0 -46 41q-4 -9 -19 -9q-13 0 -17.5 17t-4.5 66q0 46 3.5 103t7.5 94.5t9 79.5t5 43q1 9 6.5 56.5
t9.5 87.5t4 48q0 18 4 18q1 0 5 -1.5t7 -1.5q2 0 6 3t7 3zM49 65v-15h1q6 0 12 -6t8 -15q6 -19 22 -19q28 0 45 80t17 141q0 75 -24 75q-17 0 -49 -90t-32 -151z" />
    <glyph glyph-name="c" unicode="c" horiz-adv-x="147" 
d="M78 336q15 0 29.5 -24t14.5 -35q0 -19 -16 -19q-8 0 -19.5 8t-14.5 8q-11 0 -24.5 -61.5t-13.5 -108.5q0 -93 40 -93q37 0 66 84t29 149q0 14 9 14t9 -13q0 -40 -13 -99.5t-38 -110.5t-53 -51q-82 0 -82 144q0 64 25 136t52 72z" />
    <glyph glyph-name="d" unicode="d" horiz-adv-x="231" 
d="M196 637q25 0 25 -14q0 -12 -12 -72q-9 -43 -19.5 -114t-18.5 -136t-10 -74q-12 -79 -12 -149q0 -61 20 -61q26 0 55 83t29 145q0 13 9 13t9 -13q0 -68 -32.5 -163.5t-69.5 -95.5q-18 0 -32 27.5t-14 62.5v15q-34 -112 -75 -112q-26 0 -41.5 26.5t-15.5 77.5q0 75 27 157
q40 118 69 118q33 0 53 -39q2 23 14 107.5t13 89.5q10 90 10 105q0 16 19 16zM118 147q15 53 21 143q-13 25 -32 25q-29 0 -56.5 -83.5t-27.5 -156.5q0 -28 6.5 -50.5t17.5 -22.5q30 0 71 145z" />
    <glyph glyph-name="e" unicode="e" 
d="M72 333q22 0 40 -15q13 -12 13 -33q0 -51 -26.5 -119t-53.5 -108q4 -21 9.5 -34.5t13 -18.5t12.5 -6.5t13 -1.5q38 0 69 89.5t31 158.5q0 13 9 13t9 -13q0 -42 -16.5 -113t-35.5 -106q-28 -52 -67 -52q-87 0 -87 158q0 40 12 97t23 81q10 23 32 23zM41 129q0 -27 1 -38
q22 32 39.5 85t17.5 99q0 33 -11 33q-14 0 -30.5 -59.5t-16.5 -119.5z" />
    <glyph glyph-name="f" unicode="f" horiz-adv-x="159" 
d="M99 621q7 0 13 -4.5t6 -8.5q0 -2 -2 -5.5t-5 -8t-5 -8.5q-12 -24 -18 -69q-37 -274 -46 -387q1 1 4 1q18 0 36 -37q8 -18 14 -37q3 -1 10 -1q31 0 53 68.5t22 120.5q0 13 9 13t9 -13q0 -21 -4.5 -53.5t-14 -71t-29.5 -65.5t-45 -27q28 -103 28 -212q0 -55 -15 -107.5
t-42 -52.5q-42 0 -58 54.5t-16 181.5q0 166 19.5 371.5t41.5 338.5q3 19 35 19zM76 42q-23 17 -37 43q-7 -94 -7 -220q0 -56 6 -99.5t14.5 -64t17.5 -20.5q18 0 28.5 47.5t10.5 97.5q0 139 -33 216z" />
    <glyph glyph-name="g" unicode="g" horiz-adv-x="227" 
d="M73 351q23 0 46 -29q25 -31 40 -43q11 0 19 -7t8 -11q0 -2 -1.5 -4.5t-4 -7t-4.5 -9.5q-35 -85 -35 -207q0 -7 7 -107q35 5 77 5q65 0 65 -18q0 -8 -2.5 -10.5t-10.5 -2.5q-2 0 -23 4.5t-49 4.5q-27 0 -55 -4q3 -75 3 -77q0 -211 -119 -211q-38 0 -75.5 15t-66 49
t-28.5 80q0 72 134 125q56 23 124 35q-8 100 -8 112v19q-24 -84 -64 -84q-59 0 -59 113q0 61 29 165.5t53 104.5zM130 -191q0 12 -6 92q-91 -17 -161.5 -56t-70.5 -94q0 -43 37 -73.5t90 -30.5q57 0 84 46t27 116zM47 -14q25 0 56 104.5t33 171.5q-7 16 -22.5 32t-23.5 16
q-20 0 -45 -101.5t-25 -151.5q0 -24 8.5 -47.5t18.5 -23.5z" />
    <glyph glyph-name="h" unicode="h" horiz-adv-x="254" 
d="M74 625q12 0 22 -4.5t10 -10.5q0 -7 -5 -22.5t-8 -30.5q-17 -91 -33 -240q-15 -140 -15 -193q0 -78 12 -78q3 0 4.5 4t3.5 12.5t4 13.5q0 1 29 121.5t35 136.5q5 13 14 13q12 0 28.5 -9.5t16.5 -21.5q0 -2 -7 -32q-22 -95 -22 -164q0 -47 10 -73.5t25 -26.5q27 0 52.5 84
t25.5 141q0 13 9 13t9 -13q0 -59 -29 -160t-62 -101q-37 0 -52 46.5t-15 136.5q0 13 1 33l1 20q0 8 -6 8q-4 0 -8 -14q-4 -12 -23 -89.5t-24 -104.5q0 -2 -2 -13t-3.5 -15.5t-4 -12.5t-6.5 -11t-9 -3q-37 0 -37 157q0 65 8 139q2 15 13 118t13 118q9 78 9 116q0 12 16 12z
" />
    <glyph glyph-name="i" unicode="i" horiz-adv-x="130" 
d="M44 306q9 0 16 -5t7 -9l-7 -36q-7 -35 -14 -85.5t-7 -85.5q0 -46 6.5 -63t20.5 -17q16 0 32 28q20 37 37 102.5t17 109.5q0 13 9 13t9 -14q0 -48 -18.5 -125t-47.5 -117q-15 -21 -35 -21q-31 0 -45.5 22t-14.5 77q0 22 7 107t7 103q0 6 6 11t15 5zM65 538
q14 0 22.5 -13.5t8.5 -27.5q0 -10 -6.5 -17.5t-15.5 -7.5q-13 0 -27.5 10t-14.5 24q0 9 10.5 20.5t22.5 11.5z" />
    <glyph glyph-name="j" unicode="j" horiz-adv-x="119" 
d="M44 307q28 0 28 -18q0 -5 -8 -32q-5 -17 -15 -112t-10 -156q0 -13 2 -55q30 5 50 5q57 0 82 -17q7 -5 7 -11t-5.5 -8t-13.5 1q-24 12 -71 12q-24 0 -47 -5q9 -103 9 -135q0 -149 -129 -149q-56 0 -110 35t-54 88q0 54 80.5 105t175.5 74q-4 84 -4 110q0 28 4.5 134.5
t6.5 116.5t6 13.5t16 3.5zM23 -206q0 9 -6 111q-86 -21 -158 -67t-72 -96q0 -42 48.5 -68t91.5 -26q96 0 96 146zM71 542q11 0 19.5 -7t8.5 -17q0 -11 -8.5 -22.5t-17.5 -11.5t-18.5 7.5t-9.5 17.5q0 12 8 22.5t18 10.5z" />
    <glyph glyph-name="k" unicode="k" horiz-adv-x="243" 
d="M62 629q36 0 36 -23q0 -4 -6.5 -40.5t-14 -80.5t-9.5 -62q-13 -118 -21 -246q13 45 32.5 92t34.5 66q16 20 34 20q22 0 34.5 -17.5t12.5 -39.5q0 -65 -63 -141q-1 -10 -1 -33q0 -36 14 -69t34 -33q33 0 59.5 83t26.5 140q0 13 9 13t9 -13q0 -36 -14 -98.5t-38 -112.5
q-19 -38 -50 -38q-36 0 -57 38t-23 90q-31 -28 -50 -39q-4 -24 -4 -52q0 -11 1 -19.5t2.5 -12t2.5 -6t1 -3.5q0 -10 -12 -10q-9 0 -14.5 7t-9 32.5t-3.5 73.5q0 90 21 300q14 142 14 217q0 17 12 17zM154 330q-20 0 -51 -68.5t-47 -146.5q39 21 75.5 80.5t36.5 109.5
q0 10 -4.5 17.5t-9.5 7.5z" />
    <glyph glyph-name="l" unicode="l" horiz-adv-x="181" 
d="M97 630q25 0 43 -18t18 -82q0 -127 -30 -257.5t-78 -203.5q17 -72 54 -72q38 0 68.5 91t30.5 157q0 13 9 13t9 -13q0 -24 -7 -66.5t-20.5 -92t-38 -85t-54.5 -35.5q-38 0 -66.5 56t-28.5 155q0 78 22.5 212.5t40.5 210.5q7 30 28 30zM40 179q0 -34 4 -76q37 76 62 187.5
t25 226.5q0 27 -4.5 50.5t-9.5 23.5q-9 0 -27.5 -64.5t-34 -165t-15.5 -182.5z" />
    <glyph glyph-name="m" unicode="m" horiz-adv-x="361" 
d="M33 285q10 0 16 -11.5t6 -23.5q0 -4 -3 -25.5t-5.5 -55.5t-2.5 -69q0 -65 9 -65q8 0 18 40q2 8 19.5 83t20.5 85q13 50 38 50q26 0 26 -47q0 -7 -4 -61.5t-4 -67.5q0 -63 12 -63q4 0 19 32q24 58 52 175q5 23 5 32t21 9q10 0 22 -7t12 -12q0 -3 -8 -30q-3 -11 -10 -60
t-7 -79q0 -84 25 -84q24 0 48.5 81t24.5 134q0 13 9 13t9 -13q0 -34 -11.5 -89.5t-34.5 -105.5t-50 -50q-48 0 -48 118q0 11 1 24.5t2 23t1 10.5q0 6 -5 6q-3 0 -7 -11q-37 -113 -45 -132q-14 -36 -29 -36q-33 0 -33 72q0 11 4 72t4 67q0 29 -7 29q-6 0 -11 -19
q-13 -38 -43 -173q-15 -63 -39 -63q-20 0 -28 29q-5 19 -5 97q0 8 1 46t1 42t-6 12t-6 19q0 24 7.5 38t18.5 14z" />
    <glyph glyph-name="n" unicode="n" horiz-adv-x="254" 
d="M43 276q7 0 13.5 -5.5t6.5 -11.5q0 -1 -3.5 -17.5t-7 -51t-3.5 -77.5q0 -81 14 -81q7 0 13 23q8 30 22.5 94t26 116t11.5 53q2 6 13 7t18 -2q6 -2 14 -12t8 -17q0 -1 -3.5 -32.5t-7.5 -75t-4 -74.5q0 -33 5 -56t11 -32.5t12 -9.5q22 0 45 78q29 97 29 153q0 13 9 13
t9 -13q0 -62 -28.5 -162.5t-64.5 -100.5q-56 0 -57 159v45q0 12 -3 12q-5 0 -13 -27q-16 -59 -38 -156q-8 -28 -29 -28q-32 0 -39 64q-4 34 -4 87q0 12 0.5 30t0.5 23q0 15 -1.5 28t-1.5 19q0 23 6.5 30.5t20.5 7.5z" />
    <glyph glyph-name="o" unicode="o" horiz-adv-x="233" 
d="M67 350q12 0 40 -16.5t37 -27.5q21 -27 21 -126q0 -10 -2 -34q13 -11 28 -11q28 0 46 36t18 74q0 13 9 13t9 -13q0 -23 -8 -53t-26.5 -56t-41.5 -26q-19 0 -37 9q-9 -62 -30 -105.5t-54 -43.5q-31 0 -49.5 40.5t-18.5 112.5q0 54 12 123t24 92q6 12 23 12zM92 315
q-17 0 -34 -65.5t-17 -137.5q0 -43 7.5 -70.5t15 -35.5t14.5 -8q20 0 38 48t18 102q-15 31 -15 97q0 5 1 18t1 23q0 12 -10.5 20.5t-18.5 8.5z" />
    <glyph glyph-name="p" unicode="p" horiz-adv-x="237" 
d="M39 332q15 0 15 -41q0 -24 -5 -79q44 125 72 125q12 0 30 -8t25 -15q8 -7 14 -39.5t6 -66.5q0 -123 -44 -197q-24 -40 -64 -40q-22 0 -36.5 18.5t-19.5 42.5q-15 -108 -15 -235q0 -61 10 -96q6 -20 0 -20q-4 0 -22 5q-19 5 -19 107q0 46 4.5 112t9.5 115t11 104t6 59
q6 63 6 118q0 8 -2.5 13t-2.5 8t7 6.5t14 3.5zM87 244q-29 -73 -48 -170h2q7 0 12.5 -5.5t5.5 -11.5q0 -3 -3 -8.5t-3 -12.5q0 -14 10 -28.5t22 -14.5q33 0 55 69.5t22 161.5q0 32 -8 62.5t-21 30.5q-17 0 -46 -73z" />
    <glyph glyph-name="q" unicode="q" horiz-adv-x="213" 
d="M81 346q21 0 46 -40l14 -28q3 12 14 12q5 0 13 -8.5t8 -13.5q0 -10 -17 -108q-16 -98 -14 -247q16 49 31 81q59 135 59 250q0 14 9 14t9 -13q0 -27 -2 -51.5t-7 -48.5t-9 -41t-12.5 -41t-12.5 -34t-14.5 -34.5t-12.5 -30.5q-35 -86 -35 -161q0 -53 13 -89q5 -13 -1 -13
q-17 0 -30 10q-14 11 -14 156q0 126 9 225q-35 -106 -76 -106q-49 0 -49 95q0 94 24.5 179.5t56.5 85.5zM50 5q23 0 53 81.5t36 156.5q-9 1 -14 14q-1 3 -4 13t-5 15q-13 30 -25 30q-21 0 -43 -92t-22 -150q0 -68 24 -68z" />
    <glyph glyph-name="r" unicode="r" horiz-adv-x="201" 
d="M28 405q24 0 24 -45q0 -20 -3 -50q13 -13 36 -22q26 -10 37 -22.5t11 -33.5q0 -6 -7 -71.5t-7 -84.5q0 -73 24 -73q23 0 51.5 91.5t28.5 150.5q0 13 9 13t9 -13q0 -55 -28 -159.5t-67 -104.5q-57 0 -57 126q0 14 2.5 63.5t2.5 64.5q0 14 -7.5 22t-29.5 20l-10 6
q-22 -224 -46 -303q-7 -24 -18 -24q-10 0 -10 14q0 2 2.5 10t6 19t5.5 19q8 35 27 173q5 39 11 115q-16 22 -16 52q0 47 19 47z" />
    <glyph glyph-name="s" unicode="s" horiz-adv-x="154" 
d="M48 351q6 0 18.5 -8.5t12.5 -13.5q0 -1 -3 -17t-3 -31q0 -39 24 -118.5t24 -107.5q0 -30 -18 -59t-41 -29q-18 0 -38.5 10.5t-30.5 24.5q-15 -47 -28 -47q-15 0 -7 20q37 90 67 285q3 20 3 70q0 6 7 13.5t13 7.5zM45 232q-18 -94 -45 -202q8 -1 8 -10q0 -8 13.5 -17
t27.5 -9q38 0 38 65q0 38 -25 117q-12 36 -17 56z" />
    <glyph glyph-name="t" unicode="t" horiz-adv-x="134" 
d="M-91 408h125q7 80 7 86t-1.5 16t-1.5 12q0 9 12 9q8 0 24 -9q12 -7 12 -25q0 -3 -2 -13.5t-6 -33.5t-7 -42h162q68 0 68 -5q0 -6 -19 -11q-27 -6 -65 -9q-43 -4 -150 -4q-21 -130 -21 -226q0 -80 7.5 -114t25.5 -34q20 0 48.5 86t28.5 154q0 13 9 13t9 -14
q0 -64 -30.5 -167.5t-67.5 -103.5q-30 0 -46.5 46t-16.5 123q0 28 18 237q-18 0 -45.5 0.5t-34.5 0.5q-9 0 -22 -2.5t-14 -2.5q-2 0 -4.5 2t-5.5 5t-5 4q-1 1 -4.5 2.5t-5.5 2.5t-4 3.5t-2 5.5q0 8 25 8z" />
    <glyph glyph-name="u" unicode="u" horiz-adv-x="249" 
d="M36 286q11 0 20.5 -6t9.5 -13q0 -6 -6 -30q-16 -64 -16 -157q0 -53 4.5 -69t16.5 -16q15 0 33.5 38t34 115t15.5 167q0 12 23 12q7 0 14.5 -8.5t7.5 -12.5q0 -2 -4 -10.5t-5 -14.5q-3 -16 -10 -75t-7 -82q0 -103 31 -103q20 0 46.5 78t26.5 146q0 13 9 13t9 -13
q0 -43 -17 -114.5t-43 -113.5q-15 -23 -35 -23q-47 0 -53 108q-28 -129 -75 -129q-30 0 -41.5 26.5t-11.5 81.5q0 14 4.5 101t4.5 90q0 14 14 14z" />
    <glyph glyph-name="v" unicode="v" horiz-adv-x="225" 
d="M32 273q8 0 17.5 -10t9.5 -19q0 -3 -6.5 -52t-6.5 -68q0 -109 27 -109q13 0 31 55t31 124q-6 17 -6 43q0 32 7.5 60t16.5 28q7 0 18.5 -9.5t11.5 -20.5q0 -33 -19 -107q9 -11 26 -11q23 0 40 20.5t17 47.5q0 13 9 13t9 -13q0 -34 -21.5 -61.5t-53.5 -27.5q-21 0 -33 8
q-19 -72 -43 -123.5t-45 -51.5q-30 0 -41 40t-11 143q0 101 15 101z" />
    <glyph glyph-name="w" unicode="w" horiz-adv-x="311" 
d="M40 304q9 0 17.5 -7.5t8.5 -15.5q0 -1 -7 -29t-13.5 -71.5t-6.5 -80.5q0 -46 7.5 -75.5t20.5 -29.5q14 0 28 53t18 105q3 35 3 115q0 13 27 13q15 0 15 -17q0 -2 -4 -27t-7.5 -59.5t-3.5 -60.5q0 -42 9 -74t25 -32t28.5 50t17.5 121q-12 33 -12 84q0 29 5.5 50.5
t12.5 21.5q24 0 24 -113q0 -16 -2 -48q15 -21 32 -21q20 0 35 28t15 60q0 14 9 14t9 -13q0 -37 -19.5 -76t-50.5 -39q-19 0 -32 13q-15 -156 -67 -156q-49 0 -59 85q-20 -104 -58 -104q-28 0 -41.5 32t-13.5 106q0 75 13 179q1 6 6 12.5t11 6.5z" />
    <glyph glyph-name="x" unicode="x" horiz-adv-x="202" 
d="M175 337q4 0 9.5 -7.5t5.5 -12.5q0 -9 -16 -38q-53 -98 -84 -180l-15 -39q17 -48 40 -48q41 0 75 87t34 146q0 13 9 13t9 -13q0 -41 -17.5 -106t-48.5 -111q-28 -42 -65 -42q-30 0 -51 34q-20 -50 -25 -77q-4 -20 -9 -20t-11.5 6.5t-6.5 13.5q0 2 2 7.5t5 13.5t5 14
q4 15 26 71q-24 65 -24 177q0 6 -7.5 13t-7.5 27q0 18 8.5 36t17.5 18q11 0 18.5 -13t7.5 -28q0 -6 -2 -34t-2 -37q0 -64 10 -111q61 156 90 208q2 4 5 9.5t4.5 9t3.5 7t3.5 5t3.5 1.5z" />
    <glyph glyph-name="y" unicode="y" horiz-adv-x="236" 
d="M45 305q8 0 13.5 -5.5t5.5 -10.5q0 -14 -4 -31q-3 -12 -9 -74.5t-6 -88.5q0 -93 26 -93q17 0 34.5 46t29.5 118q4 25 10 77t7 62q6 42 28 42q6 0 11 -5t5 -12q0 -4 -10 -44q-4 -16 -9.5 -83.5t-5.5 -112.5q0 -43 8 -173q46 14 80 14q21 0 32.5 -7.5t11.5 -15.5
q0 -5 -9 -5l-16 2q-17 2 -26 2q-29 0 -71 -11q5 -73 5 -97q0 -92 -38.5 -143.5t-105.5 -51.5q-40 0 -74 29t-34 75q0 67 65.5 119.5t153.5 81.5q-2 36 -6 103t-5 80q-29 -110 -68 -110q-31 0 -46 26.5t-15 96.5q0 18 2.5 56.5t5.5 77t3 39.5q2 27 21 27zM156 -169
q0 14 -2 56q-77 -26 -133 -75t-56 -109q0 -37 22 -58t50 -21q50 0 84.5 52.5t34.5 154.5z" />
    <glyph glyph-name="z" unicode="z" horiz-adv-x="219" 
d="M95 350q33 0 57 -18q18 -13 24.5 -30.5t6.5 -49.5q0 -64 -24.5 -132.5t-57.5 -112.5q49 -21 75 -87q34 8 61 8q17 0 29.5 -4.5t17 -9t4.5 -8.5q0 -6 -10 -6l-21 3q-21 3 -32 3q-18 0 -43 -5q12 -38 12 -82q0 -92 -33.5 -152.5t-86.5 -60.5q-50 0 -88 29.5t-38 78.5
q0 59 63 115.5t143 83.5q-19 63 -68 76q-20 -22 -37 -22q-11 0 -20.5 6.5t-9.5 16.5q0 11 11 18.5t30 7.5q7 0 11 -1q30 42 56 114t26 126q0 68 -39 68q-25 0 -49.5 -34.5t-24.5 -57.5q0 -11 -9 -11t-9 11q0 119 73 119zM164 -161q0 27 -5 55q-69 -24 -123.5 -78.5
t-54.5 -111.5q0 -39 21 -57.5t51 -18.5q51 0 81 59t30 152z" />
    <glyph glyph-name="braceleft" unicode="{" horiz-adv-x="213" 
d="M61 565q-24 95 45 121q30 11 83 11q12 0 13 -8q1 -4 -8 -6h-2q-54 -5 -78 -17q-18 -8 -22.5 -24t2.5 -47q5 -20 14.5 -50.5t14 -46.5t8.5 -39.5t4 -47.5q0 -37 -21.5 -73t-57.5 -42q36 0 54.5 -26.5t18.5 -60.5q0 -18 -1.5 -35.5t-5 -40.5t-6.5 -37t-9 -45.5t-9 -45.5
q-17 -87 61 -98q15 -2 28.5 -1t23 -0.5t9.5 -7.5q0 -5 -16 -8t-41.5 -2t-49.5 6q-77 17 -47 140q5 21 13 50.5t12 44.5t7 36t3 41q0 80 -84 66q-8 -1 -3 18q4 17 13 18q17 3 27.5 7t22 14t17 29t4.5 48q0 15 -1.5 28.5t-5.5 29.5t-7.5 27t-11 35t-11.5 39z" />
    <glyph glyph-name="bar" unicode="|" horiz-adv-x="276" 
d="M126 688q0 3 5 5.5t12.5 2.5t15 -1t12.5 -4.5t4 -8.5q-10 -79 -17.5 -292.5t-7.5 -302.5q0 -38 2.5 -107t2.5 -70q0 -8 -9.5 -12t-19 -3.5t-9.5 4.5q0 11 -0.5 82.5t-0.5 89.5q0 77 5 300.5t5 316.5z" />
    <glyph glyph-name="braceright" unicode="}" horiz-adv-x="213" 
d="M144 15q24 -95 -45 -121q-30 -11 -90 -11q-12 0 -13 8q-1 5 10 6q63 6 79 14q40 18 21 94q-2 8 -7 27t-6.5 26.5t-5 24t-5 27.5t-2.5 27t-1 32q0 39 17.5 74t52.5 41q-37 0 -59 27t-22 60q0 27 6 58t16.5 74.5t16.5 71.5q9 46 -8 72t-47 26q-7 0 -15 -1t-14 -2
t-12.5 -2.5t-10.5 -2.5t-7.5 -1t-5.5 1t-2 4q0 9 23.5 16t60.5 7q47 0 68 -34.5t2 -111.5q-5 -21 -13 -50.5t-12 -44.5t-7 -36t-3 -41q0 -39 19.5 -56.5t49.5 -11.5q6 1 10.5 -7.5t4 -16.5t-3.5 -9q-80 -5 -77 -99q0 -15 1.5 -28.5t5.5 -29.5t7.5 -27t11 -35t11.5 -39z" />
    <glyph glyph-name="asciitilde" unicode="~" horiz-adv-x="376" 
d="M17 134q18 25 51 45q26 16 61.5 9.5t65.5 -21.5t67.5 -18.5t66.5 17.5q5 3 18 14q6 5 11.5 0.5t-0.5 -11.5q-12 -12 -29 -26q-28 -23 -61 -26t-60.5 7.5t-57.5 20.5t-51.5 14.5t-43.5 -11.5q-16 -13 -25 -23q-4 -5 -9 -4.5t-6 4t2 9.5z" />
    <glyph glyph-name="nbspace" unicode="&#xa0;" horiz-adv-x="151" 
 />
    <glyph glyph-name="exclamdown" unicode="&#xa1;" horiz-adv-x="193" 
d="M97 231q10 0 15.5 -9.5t5.5 -17.5q0 -1 -3 -18.5t-6.5 -49t-7.5 -73t-7 -103t-3 -126.5q0 -23 0.5 -43t1.5 -32.5t2 -21t1.5 -13.5t0.5 -6q0 -14 -8 -14q-9 0 -17.5 17t-14.5 55t-6 91q0 26 13 182t13 158q0 10 6 17t14 7zM98 267q-6 0 -16 13.5t-10 23.5q0 14 6 29
t17 15q13 0 24 -10t11 -23t-11.5 -30.5t-20.5 -17.5z" />
    <glyph glyph-name="cent" unicode="&#xa2;" horiz-adv-x="210" 
d="M96 616q10 0 12 -62q31 -3 50 -25.5t19 -45.5q0 -14 -10 -14q-16 0 -37 22q-4 4 -9.5 12t-9.5 12.5t-8 4.5q-17 0 -33.5 -60t-16.5 -119q0 -38 13.5 -62t38.5 -24q23 0 42.5 18t19.5 32q0 11 12 11q15 0 15 -13q0 -21 -27 -45t-61 -24h-5q0 -66 -12 -66t-12 71
q-54 21 -54 130q0 56 18.5 113t43.5 70q0 64 11 64z" />
    <glyph glyph-name="sterling" unicode="&#xa3;" horiz-adv-x="455" 
d="M159 195l-5 19h-40q-58 0 -58 12q0 2 0.5 4.5t2.5 4t3.5 2.5t4.5 2t5.5 2t7 1.5t7 1t8 1.5t8.5 1l44 2q-24 138 1 243.5t83 105.5q23 0 101 -28q24 -8 38.5 -40t14.5 -65t-7 -52t-16 -19q-19 0 -25.5 13t-6.5 52q0 38 -15.5 71t-47.5 33q-47 0 -68 -95.5t-10 -216.5l69 3
q21 1 38.5 5.5t26.5 8t10 3.5q7 0 7 -7q0 -10 -11.5 -21.5t-23.5 -15.5q-30 -9 -113 -11q2 -19 8 -47q10 -58 -12 -104q6 -3 34.5 -17t39.5 -19.5t33.5 -15.5t40.5 -16t35 -11q30 -8 66 -8q32 0 32 -4q0 -5 -22.5 -11t-33.5 -6q-12 0 -26.5 2.5t-27 5t-31 9.5t-29 11
t-32.5 14t-30 13.5t-32.5 15t-29.5 14.5q-42 -58 -112 -58q-34 0 -63.5 24.5t-29.5 57.5q0 52 63 52q46 0 130 -41q13 47 -4 119zM68 6q59 0 85 45q-77 34 -110 34t-33 -29q0 -18 19.5 -34t38.5 -16z" />
    <glyph glyph-name="currency" unicode="&#xa4;" horiz-adv-x="403" 
d="M88 517q15 8 36 -20l27 -49q12 6 22 6q27 0 46 -4.5t38 -13t23 -10.5q23 37 36 53q17 21 23 19q12 -8 -16 -41q-12 -17 -24 -36q23 -12 36 -47.5t13 -68.5q0 -76 -45 -139q17 -32 22 -39q22 -35 30 -43q2 -5 -3 -7q-14 -7 -30 9q-9 8 -38 59q-37 -37 -97 -37
q-42 0 -67 10q-17 -29 -35 -62l-1 -2q-2 -2 -3 -4t-3 -4.5t-3.5 -5t-3.5 -4t-3.5 -2.5t-2.5 0q-15 9 6 46q2 4 6 10.5t10 17.5t11 19q-15 10 -17 12q-30 23 -30 103q0 54 22.5 108t54.5 83l-23 45q-5 9 -10 15.5t-8.5 9.5t-3.5 4q-2 7 5 10zM210 423q-42 0 -81 -63.5
t-39 -126.5q0 -102 97 -102q42 0 75 33q5 5 7.5 12t3.5 9q2 2 8 5.5t9 9.5q28 47 28 108q0 58 -35 86.5t-73 28.5z" />
    <glyph glyph-name="yen" unicode="&#xa5;" horiz-adv-x="383" 
d="M39 142q0 8 115 20l3 61q-22 -1 -71 -1q-56 0 -56 4t18.5 13t33.5 11l72 6q-75 210 -122 257q-5 5 -13 8.5t-13 7t-5 8.5q-1 4 13 14q24 16 43 2q26 -21 49 -71t79 -202q53 74 127.5 165.5t103.5 117.5q13 11 18 11q7 0 7 -8q0 -10 -11 -21q-34 -35 -103 -122t-119 -162
q66 4 78 4q51 0 51 -7q0 -6 -15.5 -12t-48.5 -12t-77 -9q0 -25 -2 -59q78 6 82 6q33 0 33 -10q0 -5 -14.5 -11t-42 -12t-60.5 -9v-23q0 -38 2.5 -77.5t2.5 -40.5q0 -8 -10.5 -12t-21.5 -3.5t-11 4.5q0 11 -0.5 53t-0.5 60v36h-21q-93 0 -93 15z" />
    <glyph glyph-name="brokenbar" unicode="&#xa6;" horiz-adv-x="276" 
d="M129 684q0 3 5.5 5.5t13 2.5t14.5 -1t12 -4.5t4 -8.5q-20 -142 -20 -317q0 -14 -18 -25q-19 -8 -20 14q0 27 4.5 146.5t4.5 187.5zM116 230q0 25 21 18q18 -6 22 -19v-5q-5 -54 -5 -109.5t2 -117.5t2 -90q0 -5 -4 -8.5t-9.5 -4.5t-11 -0.5t-9.5 3.5t-4 8q0 22 -2 139
t-2 186z" />
    <glyph glyph-name="section" unicode="&#xa7;" horiz-adv-x="349" 
d="M161 635q15 0 38 -12t36 -25q13 -11 25 -37t12 -47q0 -75 -16 -75q-17 0 -17 51q0 23 -4.5 47.5t-19 48t-37.5 23.5q-31 0 -63 -49t-32 -89q0 -48 22 -71.5t78 -48.5q115 -50 115 -120q0 -35 -22.5 -62t-57.5 -33q80 -43 80 -106q0 -34 -29.5 -57t-81.5 -23
q-46 0 -107.5 22t-61.5 44q0 3 2.5 7.5t5.5 4.5q2 0 3 -4q0 -4 2 -6q15 -15 65.5 -27.5t88.5 -12.5q79 0 79 62q0 53 -101 95q-116 47 -116 120q0 37 24 60.5t63 29.5q-87 43 -87 109q0 54 35 117.5t79 63.5zM264 227q0 37 -25.5 60.5t-70.5 42.5q-34 -3 -59.5 -22.5
t-25.5 -52.5q0 -34 23 -55.5t77 -45.5l7 -3q74 3 74 76z" />
    <glyph glyph-name="dieresis" unicode="&#xa8;" 
d="M25 441q12 0 18.5 -10.5t6.5 -21.5q0 -8 -5.5 -14t-12.5 -6q-10 0 -21.5 7.5t-11.5 19.5q0 8 8 16.5t18 8.5zM105 451q12 0 21 -11t9 -21q0 -8 -7.5 -14t-15.5 -6q-9 0 -18.5 7.5t-9.5 19.5q0 8 5.5 16.5t15.5 8.5z" />
    <glyph glyph-name="copyright" unicode="&#xa9;" horiz-adv-x="504" 
d="M253 490q51 0 95 -31q22 -15 22 -64q0 -39 -8 -62.5t-19 -23.5q-16 0 -16 35q0 14 7 38t7 40q0 21 -25 32t-49 11q-32 0 -62.5 -45.5t-48.5 -108t-18 -114.5q0 -63 22 -87.5t66 -24.5q35 0 64.5 12.5t43 25.5t13.5 19q0 5 1.5 6t5.5 1q7 0 7 -15q0 -21 -44.5 -47.5
t-90.5 -26.5q-60 0 -90.5 40.5t-30.5 115.5q0 32 10 76.5t27.5 89.5t47 76.5t63.5 31.5zM220 583q84 0 150 -42q53 -34 78.5 -93t25.5 -122q0 -54 -14 -112t-42 -113.5t-79.5 -91t-117.5 -35.5q-201 0 -201 242q0 87 33.5 174.5t80 140t86.5 52.5zM254 557
q-77 0 -141.5 -115t-64.5 -249q0 -55 17.5 -95.5t45.5 -60.5t57 -29t59 -9q102 0 160.5 97t58.5 240q0 48 -13.5 87t-34.5 63t-47.5 41t-50.5 23.5t-46 6.5z" />
    <glyph glyph-name="ordfeminine" unicode="&#xaa;" horiz-adv-x="187" 
d="M105 526q10 -11 12 -27h1q6 0 16.5 -5t10.5 -11l-3 -15l-3 -19q0 -7 -1 -13q-5 -42 -5 -58q0 -85 60 -85h6q12 1 12 -6q0 -15 -24 -15q-66 0 -76 79q-10 -24 -15 -33q-13 -25 -32 -25q-23 0 -35.5 15t-12.5 57q0 84 35 148q12 21 30 21q11 0 24 -8zM79 338q25 47 28 129
q-13 2 -13 14q0 26 -5 26q-13 0 -29 -49.5t-16 -90.5q0 -54 16 -54q6 0 19 25z" />
    <glyph glyph-name="guillemotleft" unicode="&#xab;" horiz-adv-x="307" 
d="M230 298q7 8 14 3t0 -14q-56 -76 -72 -90q32 -45 74 -113q7 -10 1 -14t-14 4q-57 64 -97 98q-9 8 -8.5 19.5t8.5 16.5q13 8 44.5 37.5t49.5 52.5zM138 289q9 9 13 -3q3 -8 -4 -15q-34 -37 -74 -68q50 -78 78 -129q2 -4 2.5 -8t-1 -5.5t-3.5 -2.5t-5 1t-6 5
q-45 61 -102 116q-8 8 -7 20.5t9 15.5q13 4 46 27.5t54 45.5z" />
    <glyph glyph-name="logicalnot" unicode="&#xac;" horiz-adv-x="403" 
d="M12 305q0 17 35 23q4 1 68 2t132 2t80 2q20 1 25.5 -3.5t5.5 -16.5q0 -29 -6.5 -100.5t-16.5 -71.5q-11 0 -16 65.5t-3 94.5q-28 2 -72.5 2t-81 -0.5t-70.5 -1t-37 -0.5q-11 0 -19 -1.5t-12 -3t-5 -1.5q-7 0 -7 9z" />
    <glyph glyph-name="uni00AD" unicode="&#xad;" horiz-adv-x="235" 
d="M2 130q0 17 35 23q4 1 26.5 2t50.5 2t39 2q12 1 24.5 2.5t19.5 2.5t8 1q5 0 5 -5q0 -16 -22 -23q-30 -10 -143 -10q-11 0 -19 -1.5t-12 -3t-5 -1.5q-7 0 -7 9z" />
    <glyph glyph-name="registered" unicode="&#xae;" horiz-adv-x="354" 
d="M144 634q11 0 24.5 -2.5t31.5 -2.5q62 0 100.5 -42.5t38.5 -112.5q0 -77 -39 -132q7 -3 21 -7q11 -3 11 -9q0 -8 -13 -8q-17 0 -33 6q-45 -48 -116 -48q-58 0 -98.5 42.5t-40.5 119.5q0 73 37.5 134.5t75.5 61.5zM189 612q-35 0 -62 -20t-40.5 -51t-20 -59.5t-6.5 -52.5
q0 -60 31.5 -96t81.5 -36q52 0 92 35q-67 32 -113 98h-1l-1 -1q-2 -19 -2 -44v-16.5t0.5 -12.5t0.5 -6q0 -8 -10 -8q-17 0 -17 43q0 3 1 23t2 50t1 53q-21 -10 -30 -16q-2 -1 -4 -0.5t-3.5 3.5t-1.5 8q0 13 40 29v11q0 10 16 10q13 0 14 -11q43 13 70 13q61 0 61 -38
q0 -25 -29.5 -47t-73.5 -35q27 -55 96 -88q37 50 37 124q0 49 -31.5 93.5t-97.5 44.5zM157 522l-5 -70q38 6 71 23t33 45q0 16 -29 16q-28 0 -70 -14z" />
    <glyph glyph-name="macron" unicode="&#xaf;" 
d="M-13 401q0 15 27 23q15 4 42.5 6t39.5 4q20 3 34 8q8 3 8 -6q0 -17 -20 -27q-8 -4 -22.5 -6t-39.5 -3t-30 -1q-20 -2 -32 -7q-4 -1 -5.5 1.5t-1.5 7.5z" />
    <glyph glyph-name="degree" unicode="&#xb0;" 
d="M61 635q4 0 10 -1t11 -1q53 0 53 -51q0 -28 -15.5 -53t-40.5 -25q-60 0 -60 59q0 23 14 47.5t28 24.5zM81 617q-17 0 -27 -22t-10 -41q0 -16 8.5 -26t22.5 -10q16 0 27.5 16t11.5 41q0 15 -8 28.5t-25 13.5z" />
    <glyph glyph-name="plusminus" unicode="&#xb1;" horiz-adv-x="403" 
d="M217 534q11 0 6 -43q-6 -35 -11 -160q102 2 115 3q12 1 24.5 2.5t19.5 2.5t8 1q5 0 5 -5q0 -16 -22 -23q-15 -5 -151 -9q-4 -108 -4 -192q0 -29 -7 -29q-17 0 -17 43q0 41 7 178q-64 -1 -135 -1q-11 0 -19 -1.5t-12 -3t-5 -1.5q-7 0 -7 9q0 17 35 23q5 1 144 3
q7 136 15 176q4 27 11 27zM12 20q0 17 35 23q4 1 68 2t132 2t80 2t24.5 2.5t19.5 2.5t8 1q5 0 5 -5q0 -16 -22 -23q-30 -10 -307 -10q-11 0 -19 -1.5t-12 -3t-5 -1.5q-7 0 -7 9z" />
    <glyph glyph-name="twosuperior" unicode="&#xb2;" horiz-adv-x="258" 
d="M102 601q42 0 76.5 -24t34.5 -56q0 -46 -43 -114t-93 -119q28 2 80 2q54 0 80 -7q9 -3 9 -6q0 -12 -13 -12l-3 1h-4q-14 2 -38 2q-51 0 -102 -9l-22 -4q-13 -3 -20 -3q-13 0 -22 7.5t-9 17.5q0 3 12 8h-1q21 9 27 15q39 35 78.5 106t39.5 126q0 50 -58 50
q-10 0 -16 -13.5t-14 -48.5q-10 -45 -11 -47v1q-9 -40 -27 -40q-17 0 -17 27q0 17 12 52.5t27 63.5q14 24 37 24z" />
    <glyph glyph-name="threesuperior" unicode="&#xb3;" horiz-adv-x="271" 
d="M127 603q39 1 66.5 -19.5t27.5 -48.5q0 -53 -49 -97l21 -10q44 -24 44 -70q0 -50 -34.5 -81t-78.5 -31q-39 0 -73 22t-34 44q0 7 4.5 12t9.5 5q8 0 13 -8q29 -58 73 -58q29 0 54 29.5t25 67.5q0 60 -37 60q-7 0 -16 -3q-18 -9 -34 -9q-15 0 -15 14q0 9 9.5 17.5t25.5 8.5
q7 0 19 -2q35 29 35 89q0 24 -12.5 36.5t-31.5 12.5q-42 0 -42 -48q0 -38 -7.5 -66.5t-22.5 -28.5q-10 0 -17 10.5t-7 24.5q0 20 8.5 48t29 53t46.5 26z" />
    <glyph glyph-name="acute" unicode="&#xb4;" 
d="M140 491q12 -34 -10 -56q-36 -32 -94 -62q-9 -5 -12 4q-2 5 5 10q28 20 55 50t40 53q4 7 9 7t7 -6z" />
    <glyph glyph-name="mu" unicode="&#xb5;" horiz-adv-x="264" 
d="M72 -23q-20 0 -29 10t-11 33q-13 -102 -13 -223q0 -61 10 -96q6 -20 0 -20q-5 0 -22 5q-19 5 -19 107q0 59 6 121.5t13.5 116t8.5 61.5q6 69 6 182q0 16 16 16q11 0 18 -6.5t7 -15.5q0 -2 -1.5 -9t-3 -17t-2.5 -16q-12 -72 -12 -146q0 -48 5 -65t17 -17q16 0 35 42
t33 117.5t14 157.5q0 7 4.5 13t12.5 6t16 -7t8 -13q0 -8 -6 -40q-16 -85 -16 -150q0 -114 42 -114t83 62q7 11 15 1q7 -9 -5 -25q-48 -64 -88 -64q-31 0 -49 23.5t-24 88.5q-23 -119 -69 -119z" />
    <glyph glyph-name="mu" unicode="&#x3bc;" horiz-adv-x="264" 
d="M72 -23q-20 0 -29 10t-11 33q-13 -102 -13 -223q0 -61 10 -96q6 -20 0 -20q-5 0 -22 5q-19 5 -19 107q0 59 6 121.5t13.5 116t8.5 61.5q6 69 6 182q0 16 16 16q11 0 18 -6.5t7 -15.5q0 -2 -1.5 -9t-3 -17t-2.5 -16q-12 -72 -12 -146q0 -48 5 -65t17 -17q16 0 35 42
t33 117.5t14 157.5q0 7 4.5 13t12.5 6t16 -7t8 -13q0 -8 -6 -40q-16 -85 -16 -150q0 -114 42 -114t83 62q7 11 15 1q7 -9 -5 -25q-48 -64 -88 -64q-31 0 -49 23.5t-24 88.5q-23 -119 -69 -119z" />
    <glyph glyph-name="paragraph" unicode="&#xb6;" horiz-adv-x="470" 
d="M168 320q-77 0 -115.5 31.5t-38.5 68.5q0 47 34.5 88t83.5 66.5t103.5 44.5t92.5 26.5t52 7.5q13 0 13 -10t-18 -15q-44 -10 -78.5 -19.5t-83 -29t-80 -42t-55 -58t-23.5 -76.5q0 -60 87 -60q53 0 130 16q1 48 2 100t2 81.5t1 31.5q0 16 28 16q12 0 14.5 -4t2.5 -22
q0 -8 -14 -194l53 15q5 163 5 190q0 9 10.5 18.5t18.5 9.5q11 0 13.5 -4t2.5 -20t-2 -41t-6 -66.5t-7 -74.5q21 7 36 15q6 3 9.5 6.5l5 5t3.5 1.5q4 0 4 -15q0 -20 -60 -43q-9 -130 -9 -271q0 -117 7 -150q3 -11 0 -13t-9 -2q-10 0 -15.5 11.5t-8.5 51.5t-3 117q0 64 5 244
l-54 -15q-9 -139 -9 -289q0 -86 3 -116.5t13 -44.5q2 -2 5.5 -5t3.5 -6q0 -4 -10 -4q-32 0 -39.5 32t-7.5 160q0 11 1 50t2 103t2 113q-57 -11 -103 -11z" />
    <glyph glyph-name="periodcentered" unicode="&#xb7;" horiz-adv-x="186" 
d="M81 187q10 0 19.5 -8t9.5 -16q0 -9 -9 -22t-19 -13t-20 10t-10 20t9 19.5t20 9.5z" />
    <glyph glyph-name="cedilla" unicode="&#xb8;" 
d="M93 -123q0 20 -15.5 34t-38.5 17q-12 2 5 17.5t29 12.5q19 -5 33.5 -22.5t14.5 -43.5q0 -35 -21.5 -60.5t-49.5 -36.5q-8 -4 -11.5 2.5t4.5 11.5q50 30 50 68z" />
    <glyph glyph-name="onesuperior" unicode="&#xb9;" horiz-adv-x="129" 
d="M71 587q22 0 22 -14q0 -7 -3 -23q-24 -168 -24 -221q0 -22 4 -58v-4l1 -2q0 -10 -12 -10q-31 0 -31 39q0 14 5 56q10 102 10 127q0 1 -3 7q-8 8 -8 17q0 8 9 39v-1q1 3 2 7t1.5 7t1.5 7l1.5 6l1 4t1.5 3q0 14 21 14z" />
    <glyph glyph-name="ordmasculine" unicode="&#xba;" horiz-adv-x="172" 
d="M82 541q6 0 18 -7q17 -10 18 -10q15 -6 23.5 -42.5t8.5 -66.5q0 -50 -17.5 -92.5t-45.5 -42.5q-27 0 -44 26.5t-17 81.5t16 104t40 49zM99 510q-16 0 -29 -43t-13 -95q0 -30 8.5 -47t18.5 -17q8 0 16 9.5t15.5 35.5t7.5 62q0 95 -24 95z" />
    <glyph glyph-name="guillemotright" unicode="&#xbb;" horiz-adv-x="307" 
d="M60 63q-4 -6 -9 -5.5t-6.5 5t1.5 11.5q33 59 69 106q-14 27 -71 97q-11 12 0 14q7 0 13 -4q63 -48 94 -82q18 -20 -4 -39q-44 -38 -87 -103zM156 75q-7 -10 -14 -1q-4 8 1 16q42 57 70 91q-29 49 -74 106q-7 10 -1.5 13.5t14.5 -3.5q63 -49 98 -93q7 -9 5.5 -20.5
t-11.5 -18.5q-12 -8 -42 -37.5t-46 -52.5z" />
    <glyph glyph-name="onequarter" unicode="&#xbc;" horiz-adv-x="433" 
d="M71 587q22 0 22 -14q0 -7 -3 -23q-24 -168 -24 -221q0 -22 4 -58v-4l1 -2q0 -10 -12 -10q-31 0 -31 39q0 14 5 56q10 102 10 127q0 1 -3 7q-8 8 -8 17q0 8 9 39v-1q1 3 2 7t1.5 7t1.5 7l1.5 6l1 4t1.5 3q0 14 21 14zM341 612q7 11 12.5 12t15.5 -6q16 -12 -3 -33
q-196 -225 -323 -539q-4 -11 -7.5 -25t-5.5 -20t-5 -6q-5 0 -12.5 10t-7.5 16t14 46q17 48 65.5 142t92.5 164q16 26 80.5 117.5t83.5 121.5zM333 339q18 0 34 -8.5t16 -21.5q0 -1 -2 -13q-6 -18 -11 -46q-8 -54 -15 -128h10q23 0 35 -1q4 0 12 -1h9q12 -2 12 -13t-19 -11
q-2 0 -8 0.5t-10 0.5q-7 0 -43 2q-2 -25 -2 -59q0 -35 14 -52v-1q0 -6 -14 -6q-19 0 -25.5 9t-6.5 46q0 31 2 63q-20 -1 -96 -14q-13 -3 -19 -3q-7 0 -22 17l-3 3q-8 8 -8 14l3 4l4 10l2 4q111 167 130 191q11 14 21 14zM282 117l40 3q1 38 5 103q0 6 4 74q-45 -44 -98 -138
q-17 -34 -17 -38q0 -7 6 -7q24 0 60 3z" />
    <glyph glyph-name="onehalf" unicode="&#xbd;" horiz-adv-x="409" 
d="M71 587q22 0 22 -14q0 -7 -3 -23q-24 -168 -24 -221q0 -22 4 -58v-4l1 -2q0 -10 -12 -10q-31 0 -31 39q0 14 5 56q10 102 10 127q0 1 -3 7q-8 8 -8 17q0 8 9 39v-1q1 3 2 7t1.5 7t1.5 7l1.5 6l1 4t1.5 3q0 14 21 14zM341 612q7 11 12.5 12t15.5 -6q16 -12 -3 -33
q-196 -225 -323 -539q-4 -11 -7.5 -25t-5.5 -20t-5 -6q-5 0 -12.5 10t-7.5 16t14 46q17 48 65.5 142t92.5 164q16 26 80.5 117.5t83.5 121.5zM274 337q42 0 76.5 -24t34.5 -56q0 -46 -43 -114t-93 -119q28 2 80 2q54 0 80 -7q9 -3 9 -6q0 -12 -13 -12l-3 1h-4q-14 2 -38 2
q-51 0 -102 -9l-22 -4q-14 -3 -20 -3q-13 0 -22 7.5t-9 17.5q0 3 12 8h-1q21 9 27 15q39 35 78.5 106t39.5 126q0 50 -58 50q-10 0 -16 -13.5t-14 -48.5q-10 -45 -11 -47v1q-9 -40 -27 -40q-17 0 -17 27q0 17 12 52.5t27 63.5q14 24 37 24z" />
    <glyph glyph-name="threequarters" unicode="&#xbe;" horiz-adv-x="575" 
d="M127 603q39 1 66.5 -19.5t27.5 -48.5q0 -53 -49 -97l21 -10q44 -24 44 -70q0 -50 -34.5 -81t-78.5 -31q-39 0 -73 22t-34 44q0 7 4.5 12t9.5 5q8 0 13 -8q29 -58 73 -58q29 0 54 29.5t25 67.5q0 60 -37 60q-7 0 -16 -3q-18 -9 -34 -9q-15 0 -15 14q0 9 9.5 17.5t25.5 8.5
q7 0 19 -2q35 29 35 89q0 24 -12.5 36.5t-31.5 12.5q-42 0 -42 -48q0 -38 -7.5 -66.5t-22.5 -28.5q-10 0 -17 10.5t-7 24.5q0 20 8.5 48t29 53t46.5 26zM483 612q7 11 12.5 12t15.5 -6q16 -12 -3 -33q-196 -225 -323 -539q-4 -11 -7.5 -25t-5.5 -20t-5 -6q-5 0 -12.5 10
t-7.5 16t14 46q17 48 65.5 142t92.5 164q16 26 80.5 117.5t83.5 121.5zM475 339q18 0 34 -8.5t16 -21.5q0 -1 -2 -13q-6 -18 -11 -46q-8 -54 -15 -128h10q23 0 35 -1q4 0 12 -1h9q12 -2 12 -13t-19 -11q-2 0 -8 0.5t-10 0.5q-7 0 -43 2q-2 -25 -2 -59q0 -35 14 -52v-1
q0 -6 -14 -6q-19 0 -25.5 9t-6.5 46q0 31 2 63q-20 -1 -96 -14q-13 -3 -19 -3q-7 0 -22 17l-3 3q-8 8 -8 14l3 4l4 10l2 4q111 167 130 191q11 14 21 14zM424 117l40 3q1 38 5 103q0 6 4 74q-45 -44 -98 -138q-17 -34 -17 -38q0 -7 6 -7q24 0 60 3z" />
    <glyph glyph-name="questiondown" unicode="&#xbf;" horiz-adv-x="357" 
d="M84 -315q-53 0 -78.5 42t-25.5 92q0 40 21.5 83t52.5 79.5t62.5 71t53 69t21.5 61.5q0 15 -4 25t-4 11q0 9 14 9q4 0 8 -2.5t8 -12t4 -24.5q0 -39 -21 -82t-51.5 -82t-60.5 -77t-51 -78.5t-21 -74.5q0 -37 17 -58.5t47 -21.5q41 0 99.5 50t101 117.5t42.5 112.5
q0 15 1 19t7 4q8 0 14 -9.5t6 -19.5q0 -53 -42 -125t-105.5 -125.5t-115.5 -53.5zM195 280q-11 0 -22 7.5t-11 18.5q0 13 9.5 25.5t22.5 12.5q25 0 25 -26q0 -11 -7.5 -24.5t-16.5 -13.5z" />
    <glyph glyph-name="Agrave" unicode="&#xc0;" horiz-adv-x="567" 
d="M70 180q0 9 105 19q72 133 152 361q8 22 8 54q0 4 9 10.5t18 6.5q10 0 38 -16.5t28 -24.5q0 -4 -2.5 -20t-2.5 -30q0 -25 9.5 -117t22.5 -162q13 -67 34 -142.5t40 -110.5q4 -8 8.5 -14t7 -8t4 -4t1.5 -5q0 -7 -19 -7q-22 0 -32.5 9t-21.5 38q-28 65 -51 174
q-103 -14 -230 -19q-118 -224 -201 -224q-35 0 -73 22t-38 45q0 13 10 13q4 0 11 -10q15 -22 63 -22q90 0 191 175h-20h-12q-54 2 -57 9zM332 493q-39 -130 -120 -290q91 7 169 7q27 0 41 -1q-22 114 -59 345q-21 -26 -31 -61zM314 731q-13 24 4 42q11 12 16 1
q38 -76 91 -106q11 -6 3 -11q-5 -4 -13 -1q-31 11 -61 33t-40 42z" />
    <glyph glyph-name="Aacute" unicode="&#xc1;" horiz-adv-x="567" 
d="M70 180q0 9 105 19q72 133 152 361q8 22 8 54q0 4 9 10.5t18 6.5q10 0 38 -16.5t28 -24.5q0 -4 -2.5 -20t-2.5 -30q0 -25 9.5 -117t22.5 -162q13 -67 34 -142.5t40 -110.5q4 -8 8.5 -14t7 -8t4 -4t1.5 -5q0 -7 -19 -7q-22 0 -32.5 9t-21.5 38q-28 65 -51 174
q-103 -14 -230 -19q-118 -224 -201 -224q-35 0 -73 22t-38 45q0 13 10 13q4 0 11 -10q15 -22 63 -22q90 0 191 175h-20h-12q-54 2 -57 9zM332 493q-39 -130 -120 -290q91 7 169 7q27 0 41 -1q-22 114 -59 345q-21 -26 -31 -61zM439 784q12 -34 -10 -56q-36 -32 -94 -62
q-9 -5 -12 4q-2 5 5 10q28 20 55 50t40 53q4 7 9 7t7 -6z" />
    <glyph glyph-name="Acircumflex" unicode="&#xc2;" horiz-adv-x="567" 
d="M70 180q0 9 105 19q72 133 152 361q8 22 8 54q0 4 9 10.5t18 6.5q10 0 38 -16.5t28 -24.5q0 -4 -2.5 -20t-2.5 -30q0 -25 9.5 -117t22.5 -162q13 -67 34 -142.5t40 -110.5q4 -8 8.5 -14t7 -8t4 -4t1.5 -5q0 -7 -19 -7q-22 0 -32.5 9t-21.5 38q-28 65 -51 174
q-103 -14 -230 -19q-118 -224 -201 -224q-35 0 -73 22t-38 45q0 13 10 13q4 0 11 -10q15 -22 63 -22q90 0 191 175h-20h-12q-54 2 -57 9zM332 493q-39 -130 -120 -290q91 7 169 7q27 0 41 -1q-22 114 -59 345q-21 -26 -31 -61zM328 673q28 34 35 70q2 9 15 13.5t18 -3.5
q28 -51 62 -76q4 -3 3.5 -7t-4 -5.5t-8.5 0.5q-38 21 -72 49q-16 -26 -36 -51q-3 -5 -8 -4t-6.5 5t1.5 9z" />
    <glyph glyph-name="Atilde" unicode="&#xc3;" horiz-adv-x="567" 
d="M70 180q0 9 105 19q72 133 152 361q8 22 8 54q0 4 9 10.5t18 6.5q10 0 38 -16.5t28 -24.5q0 -4 -2.5 -20t-2.5 -30q0 -25 9.5 -117t22.5 -162q13 -67 34 -142.5t40 -110.5q4 -8 8.5 -14t7 -8t4 -4t1.5 -5q0 -7 -19 -7q-22 0 -32.5 9t-21.5 38q-28 65 -51 174
q-103 -14 -230 -19q-118 -224 -201 -224q-35 0 -73 22t-38 45q0 13 10 13q4 0 11 -10q15 -22 63 -22q90 0 191 175h-20h-12q-54 2 -57 9zM332 493q-39 -130 -120 -290q91 7 169 7q27 0 41 -1q-22 114 -59 345q-21 -26 -31 -61zM297 673q14 28 34 44q16 13 56.5 -2t57.5 -1
q3 3 10 11q6 9 11 2q4 -3 1 -10q-7 -15 -21 -27q-16 -15 -35 -15t-33 7.5t-28.5 10t-22.5 -5.5q-7 -7 -16 -23q-3 -6 -8 -6t-6.5 4.5t0.5 10.5z" />
    <glyph glyph-name="Adieresis" unicode="&#xc4;" horiz-adv-x="567" 
d="M70 180q0 9 105 19q72 133 152 361q8 22 8 54q0 4 9 10.5t18 6.5q10 0 38 -16.5t28 -24.5q0 -4 -2.5 -20t-2.5 -30q0 -25 9.5 -117t22.5 -162q13 -67 34 -142.5t40 -110.5q4 -8 8.5 -14t7 -8t4 -4t1.5 -5q0 -7 -19 -7q-22 0 -32.5 9t-21.5 38q-28 65 -51 174
q-103 -14 -230 -19q-118 -224 -201 -224q-35 0 -73 22t-38 45q0 13 10 13q4 0 11 -10q15 -22 63 -22q90 0 191 175h-20h-12q-54 2 -57 9zM332 493q-39 -130 -120 -290q91 7 169 7q27 0 41 -1q-22 114 -59 345q-21 -26 -31 -61zM341 722q12 0 18.5 -10.5t6.5 -21.5
q0 -8 -5.5 -14t-12.5 -6q-10 0 -21.5 7.5t-11.5 19.5q0 8 8 16.5t18 8.5zM421 732q12 0 21 -11t9 -21q0 -8 -7.5 -14t-15.5 -6q-9 0 -18.5 7.5t-9.5 19.5q0 8 5.5 16.5t15.5 8.5z" />
    <glyph glyph-name="Aring" unicode="&#xc5;" horiz-adv-x="567" 
d="M70 180q0 9 105 19q72 133 152 361q8 22 8 54q0 4 9 10.5t18 6.5q10 0 38 -16.5t28 -24.5q0 -4 -2.5 -20t-2.5 -30q0 -25 9.5 -117t22.5 -162q13 -67 34 -142.5t40 -110.5q4 -8 8.5 -14t7 -8t4 -4t1.5 -5q0 -7 -19 -7q-22 0 -32.5 9t-21.5 38q-28 65 -51 174
q-103 -14 -230 -19q-118 -224 -201 -224q-35 0 -73 22t-38 45q0 13 10 13q4 0 11 -10q15 -22 63 -22q90 0 191 175h-20h-12q-54 2 -57 9zM332 493q-39 -130 -120 -290q91 7 169 7q27 0 41 -1q-22 114 -59 345q-21 -26 -31 -61zM398 768q4 0 10 -1t11 -1q53 0 53 -51
q0 -28 -15.5 -53t-40.5 -25q-60 0 -60 59q0 23 14 47.5t28 24.5zM418 750q-17 0 -27 -22t-10 -41q0 -16 8.5 -26t22.5 -10q16 0 27.5 16t11.5 41q0 15 -8 28.5t-25 13.5z" />
    <glyph glyph-name="AE" unicode="&#xc6;" horiz-adv-x="899" 
d="M362 611q8 0 29 -11t31 -21q331 32 378 32q40 0 61 -2t26.5 -5t5.5 -8q0 -7 -76 -7q-70 0 -392 -41q-2 -16 -2 -28q0 -32 24 -202q105 8 244 15q80 3 80 -10q0 -11 -319 -41l14 -93l2 -8q0 -5 1 -7q17 -89 27 -111q23 -50 94 -56q12 -1 25 -1q137 0 229 61q14 9 14 20
q0 12 7 12q6 0 14 -6.5t8 -14.5q0 -18 -36.5 -44.5t-103.5 -47.5t-136 -21q-81 0 -114 33t-59 145q-4 14 -28 136q-64 -6 -161 -13q-29 -62 -58.5 -114.5t-63.5 -100.5t-68 -75.5t-64 -27.5q-35 0 -73 22t-38 45q0 13 10 13q4 0 11 -10q15 -22 63 -22q113 0 246 268
q-12 -1 -32 -1h-12q-54 2 -57 9q0 8 116 24q49 102 96 239l-60 -9q-11 -2 -18 -10.5t-11 -8.5q-7 0 -18 13t-11 22q0 16 127 29q1 5 1 23q0 4 9 10.5t18 6.5zM332 473q-22 -71 -67 -173q34 4 139 14q-28 143 -41 220q-20 -21 -31 -61z" />
    <glyph glyph-name="Ccedilla" unicode="&#xc7;" horiz-adv-x="438" 
d="M234 631q69 0 138 -54q17 -13 24 -32t7 -58q0 -64 -16.5 -121.5t-32.5 -57.5q-23 0 -23 56q0 22 15.5 81.5t15.5 84.5q0 33 -37 54t-70 21q-46 0 -90.5 -74.5t-70.5 -175t-26 -184.5q0 -100 32.5 -138.5t95.5 -38.5q50 0 102 20t80.5 41t28.5 29t1.5 9.5t7.5 1.5
q11 0 11 -16q0 -31 -81.5 -74t-150.5 -43q-79 0 -127 63t-48 177q0 50 14.5 120.5t40 140.5t68 119t91.5 49zM203 -137q0 20 -15.5 34t-38.5 17q-12 2 5 17.5t29 12.5q19 -5 33.5 -22.5t14.5 -43.5q0 -35 -21.5 -60.5t-49.5 -36.5q-8 -4 -11.5 2.5t4.5 11.5q50 30 50 68z
" />
    <glyph glyph-name="Egrave" unicode="&#xc8;" horiz-adv-x="585" 
d="M445 624q58 0 77.5 -12.5t19.5 -41.5q0 -26 -12 -26q-6 0 -19 19q-11 15 -85 15q-30 0 -77 -7t-105 -21.5t-98.5 -45.5t-40.5 -71q0 -64 138 -64q20 0 67.5 6t62.5 6q23 0 31.5 -7t8.5 -25q0 -9 -4 -16t-10 -7q-2 0 -13.5 6t-25.5 6q-34 0 -84 -11.5t-104 -33.5
t-92 -61.5t-38 -87.5q0 -47 39.5 -79.5t96 -45.5t123.5 -13q137 0 229 61q14 9 14 20q0 12 7 12q6 0 14 -6.5t8 -14.5q0 -18 -36.5 -44.5t-103.5 -47.5t-136 -21q-46 0 -90 8.5t-90 27.5t-74 58.5t-28 94.5q0 61 51.5 111.5t115.5 72.5q-101 19 -101 110q0 50 44 87.5
t109 55t119 25.5t92 8zM271 720q-13 24 4 42q11 12 16 1q38 -76 91 -106q11 -6 3 -11q-5 -4 -13 -1q-31 11 -61 33t-40 42z" />
    <glyph glyph-name="Eacute" unicode="&#xc9;" horiz-adv-x="585" 
d="M445 624q58 0 77.5 -12.5t19.5 -41.5q0 -26 -12 -26q-6 0 -19 19q-11 15 -85 15q-30 0 -77 -7t-105 -21.5t-98.5 -45.5t-40.5 -71q0 -64 138 -64q20 0 67.5 6t62.5 6q23 0 31.5 -7t8.5 -25q0 -9 -4 -16t-10 -7q-2 0 -13.5 6t-25.5 6q-34 0 -84 -11.5t-104 -33.5
t-92 -61.5t-38 -87.5q0 -47 39.5 -79.5t96 -45.5t123.5 -13q137 0 229 61q14 9 14 20q0 12 7 12q6 0 14 -6.5t8 -14.5q0 -18 -36.5 -44.5t-103.5 -47.5t-136 -21q-46 0 -90 8.5t-90 27.5t-74 58.5t-28 94.5q0 61 51.5 111.5t115.5 72.5q-101 19 -101 110q0 50 44 87.5
t109 55t119 25.5t92 8zM382 753q12 -34 -10 -56q-36 -32 -94 -62q-9 -5 -12 4q-2 5 5 10q28 20 55 50t40 53q4 7 9 7t7 -6z" />
    <glyph glyph-name="Ecircumflex" unicode="&#xca;" horiz-adv-x="585" 
d="M445 624q58 0 77.5 -12.5t19.5 -41.5q0 -26 -12 -26q-6 0 -19 19q-11 15 -85 15q-30 0 -77 -7t-105 -21.5t-98.5 -45.5t-40.5 -71q0 -64 138 -64q20 0 67.5 6t62.5 6q23 0 31.5 -7t8.5 -25q0 -9 -4 -16t-10 -7q-2 0 -13.5 6t-25.5 6q-34 0 -84 -11.5t-104 -33.5
t-92 -61.5t-38 -87.5q0 -47 39.5 -79.5t96 -45.5t123.5 -13q137 0 229 61q14 9 14 20q0 12 7 12q6 0 14 -6.5t8 -14.5q0 -18 -36.5 -44.5t-103.5 -47.5t-136 -21q-46 0 -90 8.5t-90 27.5t-74 58.5t-28 94.5q0 61 51.5 111.5t115.5 72.5q-101 19 -101 110q0 50 44 87.5
t109 55t119 25.5t92 8zM270 658q28 34 35 70q2 9 15 13.5t18 -3.5q28 -51 62 -76q4 -3 3.5 -7t-4 -5.5t-8.5 0.5q-38 22 -72 49q-16 -26 -36 -51q-3 -5 -8 -4t-6.5 5t1.5 9z" />
    <glyph glyph-name="Edieresis" unicode="&#xcb;" horiz-adv-x="585" 
d="M445 624q58 0 77.5 -12.5t19.5 -41.5q0 -26 -12 -26q-6 0 -19 19q-11 15 -85 15q-30 0 -77 -7t-105 -21.5t-98.5 -45.5t-40.5 -71q0 -64 138 -64q20 0 67.5 6t62.5 6q23 0 31.5 -7t8.5 -25q0 -9 -4 -16t-10 -7q-2 0 -13.5 6t-25.5 6q-34 0 -84 -11.5t-104 -33.5
t-92 -61.5t-38 -87.5q0 -47 39.5 -79.5t96 -45.5t123.5 -13q137 0 229 61q14 9 14 20q0 12 7 12q6 0 14 -6.5t8 -14.5q0 -18 -36.5 -44.5t-103.5 -47.5t-136 -21q-46 0 -90 8.5t-90 27.5t-74 58.5t-28 94.5q0 61 51.5 111.5t115.5 72.5q-101 19 -101 110q0 50 44 87.5
t109 55t119 25.5t92 8zM276 708q12 0 18.5 -10.5t6.5 -21.5q0 -8 -5.5 -14t-12.5 -6q-10 0 -21.5 7.5t-11.5 19.5q0 8 8 16.5t18 8.5zM356 718q12 0 21 -11t9 -21q0 -8 -7.5 -14t-15.5 -6q-9 0 -18.5 7.5t-9.5 19.5q0 8 5.5 16.5t15.5 8.5z" />
    <glyph glyph-name="Igrave" unicode="&#xcc;" horiz-adv-x="276" 
d="M-13 -9q0 8 115 20q0 13 -0.5 48t-0.5 50q0 24 6 167.5t6 204.5q0 54 -6 88h-39q-56 0 -56 4t18.5 13t33.5 11q19 3 99 9t105 6q51 0 51 -7q0 -5 -14.5 -11t-46 -12t-73.5 -9q-25 -81 -35 -218t-10 -230q0 -15 5 -110q57 6 79 6q33 0 33 -10q0 -6 -23 -14t-65.5 -14.5
t-88.5 -6.5q-93 0 -93 15zM80 695q-13 24 4 42q11 12 16 1q38 -76 91 -106q11 -6 3 -11q-5 -4 -13 -1q-31 11 -61 33t-40 42z" />
    <glyph glyph-name="Iacute" unicode="&#xcd;" horiz-adv-x="276" 
d="M-13 -9q0 8 115 20q0 13 -0.5 48t-0.5 50q0 24 6 167.5t6 204.5q0 54 -6 88h-39q-56 0 -56 4t18.5 13t33.5 11q19 3 99 9t105 6q51 0 51 -7q0 -5 -14.5 -11t-46 -12t-73.5 -9q-25 -81 -35 -218t-10 -230q0 -15 5 -110q57 6 79 6q33 0 33 -10q0 -6 -23 -14t-65.5 -14.5
t-88.5 -6.5q-93 0 -93 15zM195 740q12 -34 -10 -56q-36 -32 -94 -62q-9 -5 -12 4q-2 5 5 10q28 20 55 50t40 53q4 7 9 7t7 -6z" />
    <glyph glyph-name="Icircumflex" unicode="&#xce;" horiz-adv-x="276" 
d="M-13 -9q0 8 115 20q0 13 -0.5 48t-0.5 50q0 24 6 167.5t6 204.5q0 54 -6 88h-39q-56 0 -56 4t18.5 13t33.5 11q19 3 99 9t105 6q51 0 51 -7q0 -5 -14.5 -11t-46 -12t-73.5 -9q-25 -81 -35 -218t-10 -230q0 -15 5 -110q57 6 79 6q33 0 33 -10q0 -6 -23 -14t-65.5 -14.5
t-88.5 -6.5q-93 0 -93 15zM91 637q28 34 35 70q2 9 15 13.5t18 -3.5q28 -51 62 -76q4 -3 3.5 -7t-4 -5.5t-8.5 0.5q-38 21 -72 49q-16 -26 -36 -51q-3 -5 -8 -4t-6.5 5t1.5 9z" />
    <glyph glyph-name="Idieresis" unicode="&#xcf;" horiz-adv-x="276" 
d="M-13 -9q0 8 115 20q0 13 -0.5 48t-0.5 50q0 24 6 167.5t6 204.5q0 54 -6 88h-39q-56 0 -56 4t18.5 13t33.5 11q19 3 99 9t105 6q51 0 51 -7q0 -5 -14.5 -11t-46 -12t-73.5 -9q-25 -81 -35 -218t-10 -230q0 -15 5 -110q57 6 79 6q33 0 33 -10q0 -6 -23 -14t-65.5 -14.5
t-88.5 -6.5q-93 0 -93 15zM95 685q12 0 18.5 -10.5t6.5 -21.5q0 -8 -5.5 -14t-12.5 -6q-10 0 -21.5 7.5t-11.5 19.5q0 8 8 16.5t18 8.5zM175 695q12 0 21 -11t9 -21q0 -8 -7.5 -14t-15.5 -6q-9 0 -18.5 7.5t-9.5 19.5q0 8 5.5 16.5t15.5 8.5z" />
    <glyph glyph-name="Eth" unicode="&#xd0;" horiz-adv-x="488" 
d="M-5 242q0 17 35 23q5 1 47 3q3 44 10 136t9 120q-64 -27 -110 -54.5t-46 -40.5t-7 -13q-10 0 -10 22q0 17 52.5 52.5t123.5 65.5q4 39 4 51q0 7 7 11.5t15 4.5t22.5 -11t14.5 -20l-2 -12q78 25 133 25q78 0 128.5 -63.5t50.5 -156.5q0 -72 -35 -173t-92 -179t-110 -78
q-26 0 -62 26t-56 28q-3 -36 -7 -38q-25 0 -31 36.5t-6 163.5q0 10 2 68h-37q-11 0 -19 -1.5t-12 -3t-5 -1.5q-7 0 -7 9zM123 241q-6 -116 -6 -189q10 -5 26 -20.5t33.5 -26.5t39.5 -11q42 0 91.5 67.5t83.5 166.5t34 182q0 91 -34.5 127t-102.5 36q-52 0 -133 -27
q-20 -133 -30 -277l21 2q12 1 24.5 2.5t19.5 2.5t8 1q5 0 5 -5q0 -16 -22 -23q-19 -6 -58 -8z" />
    <glyph glyph-name="Ntilde" unicode="&#xd1;" horiz-adv-x="445" 
d="M162 631q18 0 31.5 -10t13.5 -18q0 -207 38 -394.5t84 -187.5q16 0 16 54q0 113 16.5 287t35.5 235q14 44 29 44q12 0 12 -20q0 -5 -3.5 -17.5t-9.5 -33.5t-10 -44q-40 -223 -40 -450q0 -18 1.5 -54t1.5 -37q0 -9 -15 -14.5t-36 -5.5q-32 0 -61.5 56t-52 149t-37.5 180
t-27 180q-6 -35 -13 -94t-13.5 -109t-15.5 -109t-22 -104.5t-30 -85t-41.5 -60.5t-54.5 -21q-36 0 -55.5 9t-19.5 24q0 7 5.5 11t10.5 4q4 0 4 -9q0 -3 9 -8t17 -5q110 0 160 335q29 189 29 293q0 14 12 22t31 8zM230 672q14 28 34 44q16 13 56.5 -2t57.5 -1q3 3 10 11
q3 4 7 4t5.5 -3.5t-0.5 -8.5q-8 -15 -21 -27q-16 -15 -35 -15t-33 7.5t-28.5 10t-22.5 -5.5q-7 -7 -16 -23q-3 -6 -8 -6t-6.5 4.5t0.5 10.5z" />
    <glyph glyph-name="Ograve" unicode="&#xd2;" horiz-adv-x="442" 
d="M178 640q129 0 181.5 -63.5t52.5 -205.5q0 -117 -20.5 -206t-69.5 -146.5t-122 -57.5q-32 0 -61 13t-57 42t-45 85.5t-17 133.5q0 87 28 184t65 159t65 62zM235 611q-41 0 -80 -69.5t-61.5 -166.5t-22.5 -182q0 -114 34.5 -157.5t94.5 -43.5q84 0 130 93.5t46 275.5
q0 106 -34.5 178t-106.5 72zM193 739q-13 24 4 42q11 12 16 1q38 -76 91 -106q11 -6 3 -11q-5 -4 -13 -1q-31 11 -61 33t-40 42z" />
    <glyph glyph-name="Oacute" unicode="&#xd3;" horiz-adv-x="442" 
d="M178 640q129 0 181.5 -63.5t52.5 -205.5q0 -117 -20.5 -206t-69.5 -146.5t-122 -57.5q-32 0 -61 13t-57 42t-45 85.5t-17 133.5q0 87 28 184t65 159t65 62zM235 611q-41 0 -80 -69.5t-61.5 -166.5t-22.5 -182q0 -114 34.5 -157.5t94.5 -43.5q84 0 130 93.5t46 275.5
q0 106 -34.5 178t-106.5 72zM351 780q12 -34 -10 -56q-36 -32 -94 -62q-9 -5 -12 4q-2 5 5 10q28 20 55 50t40 53q4 7 9 7t7 -6z" />
    <glyph glyph-name="Ocircumflex" unicode="&#xd4;" horiz-adv-x="442" 
d="M178 640q129 0 181.5 -63.5t52.5 -205.5q0 -117 -20.5 -206t-69.5 -146.5t-122 -57.5q-32 0 -61 13t-57 42t-45 85.5t-17 133.5q0 87 28 184t65 159t65 62zM235 611q-41 0 -80 -69.5t-61.5 -166.5t-22.5 -182q0 -114 34.5 -157.5t94.5 -43.5q84 0 130 93.5t46 275.5
q0 106 -34.5 178t-106.5 72zM211 672q28 34 35 70q2 9 15 13.5t18 -3.5q28 -51 62 -76q8 -6 1 -11q-4 -4 -10 -1q-38 22 -72 49q-16 -26 -36 -51q-3 -5 -8 -4t-6.5 5t1.5 9z" />
    <glyph glyph-name="Otilde" unicode="&#xd5;" horiz-adv-x="442" 
d="M178 640q129 0 181.5 -63.5t52.5 -205.5q0 -117 -20.5 -206t-69.5 -146.5t-122 -57.5q-32 0 -61 13t-57 42t-45 85.5t-17 133.5q0 87 28 184t65 159t65 62zM235 611q-41 0 -80 -69.5t-61.5 -166.5t-22.5 -182q0 -114 34.5 -157.5t94.5 -43.5q84 0 130 93.5t46 275.5
q0 106 -34.5 178t-106.5 72zM192 685q14 28 34 44q16 13 56.5 -2t57.5 -1q3 3 10 11q6 9 11 2q4 -3 1 -10q-8 -15 -21 -27q-16 -15 -35 -15t-33 7.5t-28.5 10t-22.5 -5.5q-7 -7 -16 -23q-3 -6 -8 -6t-6.5 4.5t0.5 10.5z" />
    <glyph glyph-name="Odieresis" unicode="&#xd6;" horiz-adv-x="442" 
d="M178 640q129 0 181.5 -63.5t52.5 -205.5q0 -117 -20.5 -206t-69.5 -146.5t-122 -57.5q-32 0 -61 13t-57 42t-45 85.5t-17 133.5q0 87 28 184t65 159t65 62zM235 611q-41 0 -80 -69.5t-61.5 -166.5t-22.5 -182q0 -114 34.5 -157.5t94.5 -43.5q84 0 130 93.5t46 275.5
q0 106 -34.5 178t-106.5 72zM231 724q12 0 18.5 -10.5t6.5 -21.5q0 -8 -5.5 -14t-12.5 -6q-10 0 -21.5 7.5t-11.5 19.5q0 8 8 16.5t18 8.5zM311 734q12 0 21 -11t9 -21q0 -8 -7.5 -14t-15.5 -6q-9 0 -18.5 7.5t-9.5 19.5q0 8 5.5 16.5t15.5 8.5z" />
    <glyph glyph-name="multiply" unicode="&#xd7;" horiz-adv-x="403" 
d="M320 499q12 -8 -16 -41q-24 -32 -86 -137q44 -85 58 -108q22 -35 30 -43q2 -5 -3 -7q-13 -7 -30 9q-16 14 -72 121q-67 -112 -93 -161l-2 -2l-2 -4t-3 -4.5t-3.5 -5t-3.5 -4t-3.5 -2.5t-2.5 0q-15 9 6 46q23 41 95 159q-57 109 -65 126q-5 9 -10 15.5t-8.5 9.5t-3.5 4
q-2 7 5 10q15 8 36 -20q5 -6 63 -117q72 114 91 137q17 21 23 19z" />
    <glyph glyph-name="Oslash" unicode="&#xd8;" horiz-adv-x="442" 
d="M178 640q141 0 193 -80q21 25 41 47q10 11 18 11q7 0 7 -8q0 -7 -11 -21q-12 -14 -41 -54q27 -58 27 -164q0 -117 -20.5 -206t-69.5 -146.5t-122 -57.5q-91 0 -140 85l-31 -56q-11 -19 -30 -19q-24 0 -3 36q16 30 46 79q-22 60 -22 149q0 87 28 184t65 159t65 62z
M358 499q-153 -208 -275 -414q25 -93 117 -93q84 0 130 93.5t46 275.5q0 77 -18 138zM235 611q-41 0 -80 -69.5t-61.5 -166.5t-22.5 -182q0 -22 2 -56q141 225 273 392q-37 82 -111 82z" />
    <glyph glyph-name="Ugrave" unicode="&#xd9;" horiz-adv-x="472" 
d="M152 624q14 0 29 -10.5t15 -21.5q0 -3 -2.5 -6t-7 -7.5t-7.5 -8.5q-33 -47 -60 -163t-27 -220q0 -89 28.5 -135.5t79.5 -46.5q44 0 88 76t70.5 188.5t26.5 215.5q0 25 -1.5 44.5t-3.5 28.5t-2 11q0 12 18 12q12 0 36 -13t24 -18l-4 -10q-4 -10 -10.5 -30t-10.5 -41
q-13 -60 -23 -170.5t-10 -180.5q0 -30 1 -54t3 -39.5t4 -27.5t4.5 -18t4.5 -10t4 -5.5t3 -2.5t1 -2q0 -9 -17 -9q-47 0 -47 170q0 38 1 60q-23 -84 -64 -141.5t-98 -57.5q-72 0 -111 61t-39 173q0 48 9.5 121.5t20.5 120.5q-55 -55 -106 -55q-16 0 -32 7.5t-16 13.5
q0 3 4.5 3.5t12.5 -1t12 -1.5q39 0 89 46t82 107q3 6 10 21t10.5 20.5t7.5 5.5zM228 692q-13 24 4 42q11 12 16 1q38 -76 91 -106q11 -6 3 -11q-5 -4 -13 -1q-31 11 -61 33t-40 42z" />
    <glyph glyph-name="Uacute" unicode="&#xda;" horiz-adv-x="472" 
d="M152 624q14 0 29 -10.5t15 -21.5q0 -3 -2.5 -6t-7 -7.5t-7.5 -8.5q-33 -47 -60 -163t-27 -220q0 -89 28.5 -135.5t79.5 -46.5q44 0 88 76t70.5 188.5t26.5 215.5q0 25 -1.5 44.5t-3.5 28.5t-2 11q0 12 18 12q12 0 36 -13t24 -18l-4 -10q-4 -10 -10.5 -30t-10.5 -41
q-13 -60 -23 -170.5t-10 -180.5q0 -30 1 -54t3 -39.5t4 -27.5t4.5 -18t4.5 -10t4 -5.5t3 -2.5t1 -2q0 -9 -17 -9q-47 0 -47 170q0 38 1 60q-23 -84 -64 -141.5t-98 -57.5q-72 0 -111 61t-39 173q0 48 9.5 121.5t20.5 120.5q-55 -55 -106 -55q-16 0 -32 7.5t-16 13.5
q0 3 4.5 3.5t12.5 -1t12 -1.5q39 0 89 46t82 107q3 6 10 21t10.5 20.5t7.5 5.5zM358 731q12 -34 -10 -56q-36 -32 -94 -62q-9 -5 -12 4q-2 5 5 10q28 20 55 50t40 53q4 7 9 7t7 -6z" />
    <glyph glyph-name="Ucircumflex" unicode="&#xdb;" horiz-adv-x="472" 
d="M152 624q14 0 29 -10.5t15 -21.5q0 -3 -2.5 -6t-7 -7.5t-7.5 -8.5q-33 -47 -60 -163t-27 -220q0 -89 28.5 -135.5t79.5 -46.5q44 0 88 76t70.5 188.5t26.5 215.5q0 25 -1.5 44.5t-3.5 28.5t-2 11q0 12 18 12q12 0 36 -13t24 -18l-4 -10q-4 -10 -10.5 -30t-10.5 -41
q-13 -60 -23 -170.5t-10 -180.5q0 -30 1 -54t3 -39.5t4 -27.5t4.5 -18t4.5 -10t4 -5.5t3 -2.5t1 -2q0 -9 -17 -9q-47 0 -47 170q0 38 1 60q-23 -84 -64 -141.5t-98 -57.5q-72 0 -111 61t-39 173q0 48 9.5 121.5t20.5 120.5q-55 -55 -106 -55q-16 0 -32 7.5t-16 13.5
q0 3 4.5 3.5t12.5 -1t12 -1.5q39 0 89 46t82 107q3 6 10 21t10.5 20.5t7.5 5.5zM265 646q28 34 35 70q2 9 15 13.5t18 -3.5q28 -51 62 -76q4 -3 3.5 -7t-4 -5.5t-8.5 0.5q-38 22 -72 49q-16 -26 -36 -51q-3 -5 -8 -4t-6.5 5t1.5 9z" />
    <glyph glyph-name="Udieresis" unicode="&#xdc;" horiz-adv-x="472" 
d="M152 624q14 0 29 -10.5t15 -21.5q0 -3 -2.5 -6t-7 -7.5t-7.5 -8.5q-33 -47 -60 -163t-27 -220q0 -89 28.5 -135.5t79.5 -46.5q44 0 88 76t70.5 188.5t26.5 215.5q0 25 -1.5 44.5t-3.5 28.5t-2 11q0 12 18 12q12 0 36 -13t24 -18l-4 -10q-4 -10 -10.5 -30t-10.5 -41
q-13 -60 -23 -170.5t-10 -180.5q0 -30 1 -54t3 -39.5t4 -27.5t4.5 -18t4.5 -10t4 -5.5t3 -2.5t1 -2q0 -9 -17 -9q-47 0 -47 170q0 38 1 60q-23 -84 -64 -141.5t-98 -57.5q-72 0 -111 61t-39 173q0 48 9.5 121.5t20.5 120.5q-55 -55 -106 -55q-16 0 -32 7.5t-16 13.5
q0 3 4.5 3.5t12.5 -1t12 -1.5q39 0 89 46t82 107q3 6 10 21t10.5 20.5t7.5 5.5zM270 699q12 0 18.5 -10.5t6.5 -21.5q0 -8 -5.5 -14t-12.5 -6q-10 0 -21.5 7.5t-11.5 19.5q0 8 8 16.5t18 8.5zM350 709q12 0 21 -11t9 -21q0 -8 -7.5 -14t-15.5 -6q-9 0 -18.5 7.5t-9.5 19.5
q0 8 5.5 16.5t15.5 8.5z" />
    <glyph glyph-name="Yacute" unicode="&#xdd;" horiz-adv-x="407" 
d="M57 593q11 0 28 -15t17 -27q0 -1 -8.5 -62.5t-17 -144t-8.5 -135.5q0 -104 20 -146t65 -42q49 0 85.5 72.5t53.5 179.5t24.5 195t7.5 152q0 4 6 9t11 5q6 0 22.5 -10.5t16.5 -16.5q0 -1 -4 -19.5t-10 -51t-12 -73t-10 -95.5t-4 -110q0 -33 7 -134.5t7 -144.5
q0 -100 -51 -168t-126 -68q-49 0 -130.5 31t-81.5 60q0 17 21 17q18 0 42 -20.5t55 -41.5t67 -21q73 0 116.5 67.5t43.5 205.5q0 15 -1 47t-2.5 78.5t-2.5 68.5q-14 -99 -53 -168.5t-94 -69.5q-60 0 -95 49t-35 149q0 26 8.5 165t8.5 147q0 13 -1.5 40.5t-1.5 29.5q0 6 5 11
t11 5zM269 753q12 -34 -10 -56q-36 -32 -94 -62q-9 -5 -12 4q-2 5 5 10q28 20 55 50t40 53q4 7 9 7t7 -6z" />
    <glyph glyph-name="Thorn" unicode="&#xde;" horiz-adv-x="586" 
d="M370 532q96 0 144.5 -39.5t48.5 -85.5q0 -50 -31.5 -94.5t-77 -75t-105 -55.5t-106 -38t-89.5 -22q0 -69 4 -95t16 -39q1 -1 3 -2.5t4 -2t3 -2t1 -2.5q0 -4 -13 -4q-37 0 -47.5 25t-11.5 116h-8q-16 0 -16 13t22 18h2v6q0 52 8 298q-48 -15 -81 -31q-8 -4 -12.5 -8
t-6.5 -6t-4 -2q-5 0 -5 40q0 17 111 48q1 31 2 64t1.5 50t0.5 19q0 15 42 15q14 0 17.5 -4t3.5 -20q0 -22 -11 -110q109 26 191 26zM174 466q-19 -159 -20 -309q357 88 357 271q0 36 -28 55.5t-80 19.5q-92 0 -229 -37z" />
    <glyph glyph-name="germandbls" unicode="&#xdf;" horiz-adv-x="218" 
d="M38 440q15 0 15 -41q0 -15 -3 -63q17 112 39 188.5t43 76.5q27 0 47 -20q16 -15 16 -92q0 -57 -17.5 -111.5t-44.5 -85.5q54 -29 54 -134q0 -85 -36 -147q-24 -40 -64 -40q-22 0 -37 19t-19 44q-15 -143 -15 -237q0 -61 10 -96q6 -20 0 -20q-4 0 -22 5q-19 5 -19 107
q0 46 4.5 112.5t9 114.5t10.5 105t6 58q12 115 12 226q0 8 -2.5 13t-2.5 8t5 6.5t11 3.5zM105 498q-37 -134 -70 -425l2 1h3q7 0 12.5 -5.5t5.5 -11.5q0 -3 -3 -8.5t-3 -12.5q0 -14 10 -28.5t22 -14.5q27 0 48.5 52t22.5 113q2 92 -41 116q-12 -9 -28 -11q-19 -2 -19 12
q0 11 13.5 18.5t31.5 5.5q28 30 40.5 89.5t12.5 99.5q0 93 -21 93q-17 0 -39 -83z" />
    <glyph glyph-name="agrave" unicode="&#xe0;" horiz-adv-x="227" 
d="M137 292q1 -2 2.5 -5.5t1.5 -4.5h2q6 0 16.5 -5.5t10.5 -9.5q0 -2 -1.5 -6t-4.5 -11.5t-5 -14.5q-4 -14 -10.5 -60.5t-6.5 -67.5q0 -85 29 -85q27 0 52.5 83t25.5 140q0 13 9 13t9 -13q0 -59 -28.5 -153.5t-65.5 -94.5q-20 0 -34.5 21.5t-18.5 66.5q-10 -47 -24 -76
q-15 -32 -42 -32q-55 0 -55 114q0 56 13.5 120.5t32.5 100.5q13 27 32 27q38 0 60 -47zM78 30q39 76 50 222q-9 1 -11 17q-7 37 -22 37q-25 0 -45.5 -87t-20.5 -141q0 -79 22 -79q11 0 27 31zM58 449q-13 24 4 42q11 12 16 1q38 -76 91 -106q11 -6 3 -11q-5 -4 -13 -1
q-31 11 -61 33t-40 42z" />
    <glyph glyph-name="aacute" unicode="&#xe1;" horiz-adv-x="227" 
d="M137 292q1 -2 2.5 -5.5t1.5 -4.5h2q6 0 16.5 -5.5t10.5 -9.5q0 -2 -1.5 -6t-4.5 -11.5t-5 -14.5q-4 -14 -10.5 -60.5t-6.5 -67.5q0 -85 29 -85q27 0 52.5 83t25.5 140q0 13 9 13t9 -13q0 -59 -28.5 -153.5t-65.5 -94.5q-20 0 -34.5 21.5t-18.5 66.5q-10 -47 -24 -76
q-15 -32 -42 -32q-55 0 -55 114q0 56 13.5 120.5t32.5 100.5q13 27 32 27q38 0 60 -47zM78 30q39 76 50 222q-9 1 -11 17q-7 37 -22 37q-25 0 -45.5 -87t-20.5 -141q0 -79 22 -79q11 0 27 31zM168 491q12 -34 -10 -56q-36 -32 -94 -62q-9 -5 -12 4q-2 5 5 10q28 20 55 50
t40 53q4 7 9 7t7 -6z" />
    <glyph glyph-name="acircumflex" unicode="&#xe2;" horiz-adv-x="227" 
d="M137 292q1 -2 2.5 -5.5t1.5 -4.5h2q6 0 16.5 -5.5t10.5 -9.5q0 -2 -1.5 -6t-4.5 -11.5t-5 -14.5q-4 -14 -10.5 -60.5t-6.5 -67.5q0 -85 29 -85q27 0 52.5 83t25.5 140q0 13 9 13t9 -13q0 -59 -28.5 -153.5t-65.5 -94.5q-20 0 -34.5 21.5t-18.5 66.5q-10 -47 -24 -76
q-15 -32 -42 -32q-55 0 -55 114q0 56 13.5 120.5t32.5 100.5q13 27 32 27q38 0 60 -47zM78 30q39 76 50 222q-9 1 -11 17q-7 37 -22 37q-25 0 -45.5 -87t-20.5 -141q0 -79 22 -79q11 0 27 31zM52 388q28 34 35 70q2 9 15 13.5t18 -3.5q28 -51 62 -76q8 -6 1 -11
q-4 -4 -10 -1q-38 22 -72 49q-16 -26 -36 -51q-3 -5 -8 -4t-6.5 5t1.5 9z" />
    <glyph glyph-name="atilde" unicode="&#xe3;" horiz-adv-x="227" 
d="M137 292q1 -2 2.5 -5.5t1.5 -4.5h2q6 0 16.5 -5.5t10.5 -9.5q0 -2 -1.5 -6t-4.5 -11.5t-5 -14.5q-4 -14 -10.5 -60.5t-6.5 -67.5q0 -85 29 -85q27 0 52.5 83t25.5 140q0 13 9 13t9 -13q0 -59 -28.5 -153.5t-65.5 -94.5q-20 0 -34.5 21.5t-18.5 66.5q-10 -47 -24 -76
q-15 -32 -42 -32q-55 0 -55 114q0 56 13.5 120.5t32.5 100.5q13 27 32 27q38 0 60 -47zM78 30q39 76 50 222q-9 1 -11 17q-7 37 -22 37q-25 0 -45.5 -87t-20.5 -141q0 -79 22 -79q11 0 27 31zM33 391q14 28 34 44q16 13 56.5 -2t57.5 -1q3 3 10 11q3 4 7 4t5.5 -3.5
t-0.5 -8.5q-7 -15 -21 -27q-16 -15 -35 -15t-33 7.5t-28.5 10t-22.5 -5.5q-7 -7 -16 -23q-3 -6 -8 -6t-6.5 4.5t0.5 10.5z" />
    <glyph glyph-name="adieresis" unicode="&#xe4;" horiz-adv-x="227" 
d="M137 292q1 -2 2.5 -5.5t1.5 -4.5h2q6 0 16.5 -5.5t10.5 -9.5q0 -2 -1.5 -6t-4.5 -11.5t-5 -14.5q-4 -14 -10.5 -60.5t-6.5 -67.5q0 -85 29 -85q27 0 52.5 83t25.5 140q0 13 9 13t9 -13q0 -59 -28.5 -153.5t-65.5 -94.5q-20 0 -34.5 21.5t-18.5 66.5q-10 -47 -24 -76
q-15 -32 -42 -32q-55 0 -55 114q0 56 13.5 120.5t32.5 100.5q13 27 32 27q38 0 60 -47zM78 30q39 76 50 222q-9 1 -11 17q-7 37 -22 37q-25 0 -45.5 -87t-20.5 -141q0 -79 22 -79q11 0 27 31zM71 441q12 0 18.5 -10.5t6.5 -21.5q0 -8 -5.5 -14t-12.5 -6q-10 0 -21.5 7.5
t-11.5 19.5q0 8 8 16.5t18 8.5zM151 451q12 0 21 -11t9 -21q0 -8 -7.5 -14t-15.5 -6q-9 0 -18.5 7.5t-9.5 19.5q0 8 5.5 16.5t15.5 8.5z" />
    <glyph glyph-name="aring" unicode="&#xe5;" horiz-adv-x="227" 
d="M137 292q1 -2 2.5 -5.5t1.5 -4.5h2q6 0 16.5 -5.5t10.5 -9.5q0 -2 -1.5 -6t-4.5 -11.5t-5 -14.5q-4 -14 -10.5 -60.5t-6.5 -67.5q0 -85 29 -85q27 0 52.5 83t25.5 140q0 13 9 13t9 -13q0 -59 -28.5 -153.5t-65.5 -94.5q-20 0 -34.5 21.5t-18.5 66.5q-10 -47 -24 -76
q-15 -32 -42 -32q-55 0 -55 114q0 56 13.5 120.5t32.5 100.5q13 27 32 27q38 0 60 -47zM78 30q39 76 50 222q-9 1 -11 17q-7 37 -22 37q-25 0 -45.5 -87t-20.5 -141q0 -79 22 -79q11 0 27 31zM97 497q4 0 10 -1t11 -1q53 0 53 -51q0 -28 -15.5 -53t-40.5 -25q-60 0 -60 59
q0 23 14 47.5t28 24.5zM117 479q-17 0 -27 -22t-10 -41q0 -16 8.5 -26t22.5 -10q16 0 27.5 16t11.5 41q0 15 -8 28.5t-25 13.5z" />
    <glyph glyph-name="ae" unicode="&#xe6;" horiz-adv-x="285" 
d="M186 333q22 0 40 -15q13 -12 13 -33q0 -40 -13.5 -87.5t-34 -77t-36.5 -19.5q2 -46 12.5 -71t18.5 -29t21 -4q38 0 69 89.5t31 158.5q0 13 9 13t9 -13q0 -42 -16.5 -113t-35.5 -106q-28 -52 -67 -52q-72 0 -85 111v4q-9 -46 -25 -80q-15 -32 -42 -32q-55 0 -55 114
q0 56 13.5 120.5t32.5 100.5q13 27 32 27q41 0 50 -42q5 -25 -5 -35q-6 -6 -10 9q0 3 -1 6q0 2 -1 6t-1 6t-1 5t-1.5 4l-1.5 3t-2.5 3t-3.5 1.5t-4 0.5q-25 0 -45.5 -87t-20.5 -141q0 -79 22 -79q11 0 27 31q21 40 27.5 80t11.5 118q1 11 4 14t10 3q2 0 3 -1q12 50 20 66
q10 23 32 23zM202 308q-13 0 -29.5 -55.5t-17.5 -114.5q4 -12 13 -12q14 0 29.5 53.5t15.5 95.5q0 33 -11 33z" />
    <glyph glyph-name="ccedilla" unicode="&#xe7;" horiz-adv-x="147" 
d="M78 336q15 0 29.5 -24t14.5 -35q0 -19 -16 -19q-8 0 -19.5 8t-14.5 8q-11 0 -24.5 -61.5t-13.5 -108.5q0 -93 40 -93q37 0 66 84t29 149q0 14 9 14t9 -13q0 -40 -13 -99.5t-38 -110.5t-53 -51q-82 0 -82 144q0 64 25 136t52 72zM88 -123q0 20 -15.5 34t-38.5 17
q-12 2 5 17.5t29 12.5q19 -5 33.5 -22.5t14.5 -43.5q0 -35 -21.5 -60.5t-49.5 -36.5q-8 -4 -11.5 2.5t4.5 11.5q50 30 50 68z" />
    <glyph glyph-name="egrave" unicode="&#xe8;" 
d="M72 333q22 0 40 -15q13 -12 13 -33q0 -51 -26.5 -119t-53.5 -108q4 -21 9.5 -34.5t13 -18.5t12.5 -6.5t13 -1.5q38 0 69 89.5t31 158.5q0 13 9 13t9 -13q0 -42 -16.5 -113t-35.5 -106q-28 -52 -67 -52q-87 0 -87 158q0 40 12 97t23 81q10 23 32 23zM41 129q0 -27 1 -38
q22 32 39.5 85t17.5 99q0 33 -11 33q-14 0 -30.5 -59.5t-16.5 -119.5zM15 449q-13 24 4 42q11 12 16 1q38 -76 91 -106q11 -6 3 -11q-5 -4 -13 -1q-31 11 -61 33t-40 42z" />
    <glyph glyph-name="eacute" unicode="&#xe9;" 
d="M72 333q22 0 40 -15q13 -12 13 -33q0 -51 -26.5 -119t-53.5 -108q4 -21 9.5 -34.5t13 -18.5t12.5 -6.5t13 -1.5q38 0 69 89.5t31 158.5q0 13 9 13t9 -13q0 -42 -16.5 -113t-35.5 -106q-28 -52 -67 -52q-87 0 -87 158q0 40 12 97t23 81q10 23 32 23zM41 129q0 -27 1 -38
q22 32 39.5 85t17.5 99q0 33 -11 33q-14 0 -30.5 -59.5t-16.5 -119.5zM140 491q12 -34 -10 -56q-36 -32 -94 -62q-9 -5 -12 4q-2 5 5 10q28 20 55 50t40 53q4 7 9 7t7 -6z" />
    <glyph glyph-name="ecircumflex" unicode="&#xea;" 
d="M72 333q22 0 40 -15q13 -12 13 -33q0 -51 -26.5 -119t-53.5 -108q4 -21 9.5 -34.5t13 -18.5t12.5 -6.5t13 -1.5q38 0 69 89.5t31 158.5q0 13 9 13t9 -13q0 -42 -16.5 -113t-35.5 -106q-28 -52 -67 -52q-87 0 -87 158q0 40 12 97t23 81q10 23 32 23zM41 129q0 -27 1 -38
q22 32 39.5 85t17.5 99q0 33 -11 33q-14 0 -30.5 -59.5t-16.5 -119.5zM14 388q28 34 35 70q2 9 15 13.5t18 -3.5q28 -51 62 -76q8 -6 1 -11q-4 -4 -10 -1q-38 22 -72 49q-16 -26 -36 -51q-3 -5 -8 -4t-6.5 5t1.5 9z" />
    <glyph glyph-name="edieresis" unicode="&#xeb;" 
d="M72 333q22 0 40 -15q13 -12 13 -33q0 -51 -26.5 -119t-53.5 -108q4 -21 9.5 -34.5t13 -18.5t12.5 -6.5t13 -1.5q38 0 69 89.5t31 158.5q0 13 9 13t9 -13q0 -42 -16.5 -113t-35.5 -106q-28 -52 -67 -52q-87 0 -87 158q0 40 12 97t23 81q10 23 32 23zM41 129q0 -27 1 -38
q22 32 39.5 85t17.5 99q0 33 -11 33q-14 0 -30.5 -59.5t-16.5 -119.5zM38 441q12 0 18.5 -10.5t6.5 -21.5q0 -8 -5.5 -14t-12.5 -6q-10 0 -21.5 7.5t-11.5 19.5q0 8 8 16.5t18 8.5zM118 451q12 0 21 -11t9 -21q0 -8 -7.5 -14t-15.5 -6q-9 0 -18.5 7.5t-9.5 19.5
q0 8 5.5 16.5t15.5 8.5z" />
    <glyph glyph-name="igrave" unicode="&#xec;" horiz-adv-x="130" 
d="M44 306q9 0 16 -5t7 -9l-7 -36q-7 -35 -14 -85.5t-7 -85.5q0 -46 6.5 -63t20.5 -17q16 0 32 28q20 37 37 102.5t17 109.5q0 13 9 13t9 -14q0 -48 -18.5 -125t-47.5 -117q-15 -21 -35 -21q-31 0 -45.5 22t-14.5 77q0 22 7 107t7 103q0 6 6 11t15 5zM0 449q-13 24 4 42
q11 12 16 1q38 -76 91 -106q11 -6 3 -11q-5 -4 -13 -1q-31 11 -61 33t-40 42z" />
    <glyph glyph-name="iacute" unicode="&#xed;" horiz-adv-x="130" 
d="M44 306q9 0 16 -5t7 -9l-7 -36q-7 -35 -14 -85.5t-7 -85.5q0 -46 6.5 -63t20.5 -17q16 0 32 28q20 37 37 102.5t17 109.5q0 13 9 13t9 -14q0 -48 -18.5 -125t-47.5 -117q-15 -21 -35 -21q-31 0 -45.5 22t-14.5 77q0 22 7 107t7 103q0 6 6 11t15 5zM130 491
q12 -34 -10 -56q-36 -32 -94 -62q-9 -5 -12 4q-2 5 5 10q28 20 55 50t40 53q4 7 9 7t7 -6z" />
    <glyph glyph-name="icircumflex" unicode="&#xee;" horiz-adv-x="130" 
d="M44 306q9 0 16 -5t7 -9l-7 -36q-7 -35 -14 -85.5t-7 -85.5q0 -46 6.5 -63t20.5 -17q16 0 32 28q20 37 37 102.5t17 109.5q0 13 9 13t9 -14q0 -48 -18.5 -125t-47.5 -117q-15 -21 -35 -21q-31 0 -45.5 22t-14.5 77q0 22 7 107t7 103q0 6 6 11t15 5zM4 368q28 34 35 70
q2 9 15 13.5t18 -3.5q28 -51 62 -76q8 -6 1 -11q-4 -4 -10 -1q-38 22 -72 49q-16 -26 -36 -51q-3 -5 -8 -4t-6.5 5t1.5 9z" />
    <glyph glyph-name="idieresis" unicode="&#xef;" horiz-adv-x="130" 
d="M44 306q9 0 16 -5t7 -9l-7 -36q-7 -35 -14 -85.5t-7 -85.5q0 -46 6.5 -63t20.5 -17q16 0 32 28q20 37 37 102.5t17 109.5q0 13 9 13t9 -14q0 -48 -18.5 -125t-47.5 -117q-15 -21 -35 -21q-31 0 -45.5 22t-14.5 77q0 22 7 107t7 103q0 6 6 11t15 5zM28 456
q12 0 18.5 -10.5t6.5 -21.5q0 -8 -5.5 -14t-12.5 -6q-10 0 -21.5 7.5t-11.5 19.5q0 8 8 16.5t18 8.5zM108 466q12 0 21 -11t9 -21q0 -8 -7.5 -14t-15.5 -6q-9 0 -18.5 7.5t-9.5 19.5q0 8 5.5 16.5t15.5 8.5z" />
    <glyph glyph-name="eth" unicode="&#xf0;" horiz-adv-x="212" 
d="M36 438q-11 13 11 37q1 1 40 34q-19 61 -40 99q-9 16 1 22q4 4 13.5 6t11.5 -1q6 -8 15 -33q11 -28 25 -72l12 11q6 5 33 32q4 2 6 -2q10 -12 -1 -30q-11 -17 -42 -41q46 -171 46 -319q0 -74 -22 -136t-58 -62q-34 0 -56 38.5t-22 119.5q0 102 36 171q13 27 32 27
q33 0 53 -35q-10 84 -35 175q-7 -6 -17 -13l-10 -8q-8 -5 -12.5 -10.5t-7.5 -9.5l-2 -4q-6 -3 -10 4zM139 181q0 21 -4 71h-2q-5 0 -8 1t-4.5 3.5t-2 5l-1.5 7.5q-7 37 -22 37q-25 0 -38.5 -66t-13.5 -123q0 -46 12.5 -72.5t27.5 -26.5q11 0 23 15t22.5 54t10.5 94z" />
    <glyph glyph-name="ntilde" unicode="&#xf1;" horiz-adv-x="254" 
d="M43 276q7 0 13.5 -5.5t6.5 -11.5q0 -1 -3.5 -17.5t-7 -51t-3.5 -77.5q0 -81 14 -81q7 0 13 23q8 30 22.5 94t26 116t11.5 53q2 6 13 7t18 -2q6 -2 14 -12t8 -17q0 -1 -3.5 -32.5t-7.5 -75t-4 -74.5q0 -33 5 -56t11 -32.5t12 -9.5q22 0 45 78q29 97 29 153q0 13 9 13
t9 -13q0 -62 -28.5 -162.5t-64.5 -100.5q-56 0 -57 159v45q0 12 -3 12q-5 0 -13 -27q-16 -59 -38 -156q-8 -28 -29 -28q-32 0 -39 64q-4 34 -4 87q0 12 0.5 30t0.5 23q0 15 -1.5 28t-1.5 19q0 23 6.5 30.5t20.5 7.5zM37 391q14 28 34 44q16 13 56.5 -2t57.5 -1q3 3 10 11
q3 4 7 4t5.5 -3.5t-0.5 -8.5q-7 -15 -21 -27q-16 -15 -35 -15t-33 7.5t-28.5 10t-22.5 -5.5q-7 -7 -16 -23q-3 -6 -8 -6t-6.5 4.5t0.5 10.5z" />
    <glyph glyph-name="ograve" unicode="&#xf2;" horiz-adv-x="233" 
d="M67 350q12 0 40 -16.5t37 -27.5q21 -27 21 -126q0 -10 -2 -34q13 -11 28 -11q28 0 46 36t18 74q0 13 9 13t9 -13q0 -23 -8 -53t-26.5 -56t-41.5 -26q-19 0 -37 9q-9 -62 -30 -105.5t-54 -43.5q-31 0 -49.5 40.5t-18.5 112.5q0 54 12 123t24 92q6 12 23 12zM92 315
q-17 0 -34 -65.5t-17 -137.5q0 -43 7.5 -70.5t15 -35.5t14.5 -8q20 0 38 48t18 102q-15 31 -15 97q0 5 1 18t1 23q0 12 -10.5 20.5t-18.5 8.5zM46 449q-13 24 4 42q11 12 16 1q38 -76 91 -106q11 -6 3 -11q-5 -4 -13 -1q-31 11 -61 33t-40 42z" />
    <glyph glyph-name="oacute" unicode="&#xf3;" horiz-adv-x="233" 
d="M67 350q12 0 40 -16.5t37 -27.5q21 -27 21 -126q0 -10 -2 -34q13 -11 28 -11q28 0 46 36t18 74q0 13 9 13t9 -13q0 -23 -8 -53t-26.5 -56t-41.5 -26q-19 0 -37 9q-9 -62 -30 -105.5t-54 -43.5q-31 0 -49.5 40.5t-18.5 112.5q0 54 12 123t24 92q6 12 23 12zM92 315
q-17 0 -34 -65.5t-17 -137.5q0 -43 7.5 -70.5t15 -35.5t14.5 -8q20 0 38 48t18 102q-15 31 -15 97q0 5 1 18t1 23q0 12 -10.5 20.5t-18.5 8.5zM171 491q12 -34 -10 -56q-36 -32 -94 -62q-9 -5 -12 4q-2 5 5 10q28 20 55 50t40 53q4 7 9 7t7 -6z" />
    <glyph glyph-name="ocircumflex" unicode="&#xf4;" horiz-adv-x="233" 
d="M67 350q12 0 40 -16.5t37 -27.5q21 -27 21 -126q0 -10 -2 -34q13 -11 28 -11q28 0 46 36t18 74q0 13 9 13t9 -13q0 -23 -8 -53t-26.5 -56t-41.5 -26q-19 0 -37 9q-9 -62 -30 -105.5t-54 -43.5q-31 0 -49.5 40.5t-18.5 112.5q0 54 12 123t24 92q6 12 23 12zM92 315
q-17 0 -34 -65.5t-17 -137.5q0 -43 7.5 -70.5t15 -35.5t14.5 -8q20 0 38 48t18 102q-15 31 -15 97q0 5 1 18t1 23q0 12 -10.5 20.5t-18.5 8.5zM50 388q28 34 35 70q2 9 15 13.5t18 -3.5q28 -51 62 -76q8 -6 1 -11q-4 -4 -10 -1q-38 22 -72 49q-16 -26 -36 -51q-3 -5 -8 -4
t-6.5 5t1.5 9z" />
    <glyph glyph-name="otilde" unicode="&#xf5;" horiz-adv-x="233" 
d="M67 350q12 0 40 -16.5t37 -27.5q21 -27 21 -126q0 -10 -2 -34q13 -11 28 -11q28 0 46 36t18 74q0 13 9 13t9 -13q0 -23 -8 -53t-26.5 -56t-41.5 -26q-19 0 -37 9q-9 -62 -30 -105.5t-54 -43.5q-31 0 -49.5 40.5t-18.5 112.5q0 54 12 123t24 92q6 12 23 12zM92 315
q-17 0 -34 -65.5t-17 -137.5q0 -43 7.5 -70.5t15 -35.5t14.5 -8q20 0 38 48t18 102q-15 31 -15 97q0 5 1 18t1 23q0 12 -10.5 20.5t-18.5 8.5zM31 391q14 28 34 44q16 13 56.5 -2t57.5 -1q3 3 10 11q3 4 7 4t5.5 -3.5t-0.5 -8.5q-7 -15 -21 -27q-16 -15 -35 -15t-33 7.5
t-28.5 10t-22.5 -5.5q-7 -7 -16 -23q-3 -6 -8 -6t-6.5 4.5t0.5 10.5z" />
    <glyph glyph-name="odieresis" unicode="&#xf6;" horiz-adv-x="233" 
d="M67 350q12 0 40 -16.5t37 -27.5q21 -27 21 -126q0 -10 -2 -34q13 -11 28 -11q28 0 46 36t18 74q0 13 9 13t9 -13q0 -23 -8 -53t-26.5 -56t-41.5 -26q-19 0 -37 9q-9 -62 -30 -105.5t-54 -43.5q-31 0 -49.5 40.5t-18.5 112.5q0 54 12 123t24 92q6 12 23 12zM92 315
q-17 0 -34 -65.5t-17 -137.5q0 -43 7.5 -70.5t15 -35.5t14.5 -8q20 0 38 48t18 102q-15 31 -15 97q0 5 1 18t1 23q0 12 -10.5 20.5t-18.5 8.5zM64 441q12 0 18.5 -10.5t6.5 -21.5q0 -8 -5.5 -14t-12.5 -6q-10 0 -21.5 7.5t-11.5 19.5q0 8 8 16.5t18 8.5zM144 451
q12 0 21 -11t9 -21q0 -8 -7.5 -14t-15.5 -6q-9 0 -18.5 7.5t-9.5 19.5q0 8 5.5 16.5t15.5 8.5z" />
    <glyph glyph-name="divide" unicode="&#xf7;" horiz-adv-x="403" 
d="M12 246q0 17 35 23q4 1 68 2t132 2t80 2t24.5 2.5t19.5 2.5t8 1q5 0 5 -5q0 -16 -22 -23q-30 -10 -307 -10q-11 0 -19 -1.5t-12 -3t-5 -1.5q-7 0 -7 9zM202 391q10 0 19.5 -8t9.5 -16q0 -9 -9 -22t-19 -13t-20 10t-10 20t9.5 19.5t19.5 9.5zM165 144q0 10 8 19.5t16 9.5
q9 0 22 -9t13 -19t-10 -20t-20 -10t-19.5 9.5t-9.5 19.5z" />
    <glyph glyph-name="oslash" unicode="&#xf8;" horiz-adv-x="233" 
d="M67 350q12 0 40 -16.5t37 -27.5q7 -10 11 -23q16 26 24 41q7 12 16 8q7 -3 -2 -21l-32 -59q4 -28 4 -72q0 -10 -2 -34q13 -11 28 -11q28 0 46 36t18 74q0 13 9 13t9 -13q0 -23 -8 -53t-26.5 -56t-41.5 -26q-19 0 -37 9q-9 -62 -30 -105.5t-54 -43.5q-21 0 -38 20l-11 -28
q-7 -15 -23 -15q-14 0 -2 28q15 35 20 47q-14 39 -14 101q0 54 12 123t24 92q6 12 23 12zM92 315q-17 0 -34 -65.5t-17 -137.5q0 -31 2 -44q32 72 76 151v26q0 5 1 18t1 23q0 12 -10.5 20.5t-18.5 8.5zM124 179q-23 -45 -71 -155q12 -26 25 -26q20 0 38 48t18 102
q-5 12 -10 31z" />
    <glyph glyph-name="ugrave" unicode="&#xf9;" horiz-adv-x="249" 
d="M36 286q11 0 20.5 -6t9.5 -13q0 -6 -6 -30q-16 -64 -16 -157q0 -53 4.5 -69t16.5 -16q15 0 33.5 38t34 115t15.5 167q0 12 23 12q7 0 14.5 -8.5t7.5 -12.5q0 -2 -4 -10.5t-5 -14.5q-3 -16 -10 -75t-7 -82q0 -103 31 -103q20 0 46.5 78t26.5 146q0 13 9 13t9 -13
q0 -43 -17 -114.5t-43 -113.5q-15 -23 -35 -23q-47 0 -53 108q-28 -129 -75 -129q-30 0 -41.5 26.5t-11.5 81.5q0 14 4.5 101t4.5 90q0 14 14 14zM49 449q-13 24 4 42q11 12 16 1q38 -76 91 -106q11 -6 3 -11q-5 -4 -13 -1q-31 11 -61 33t-40 42z" />
    <glyph glyph-name="uacute" unicode="&#xfa;" horiz-adv-x="249" 
d="M36 286q11 0 20.5 -6t9.5 -13q0 -6 -6 -30q-16 -64 -16 -157q0 -53 4.5 -69t16.5 -16q15 0 33.5 38t34 115t15.5 167q0 12 23 12q7 0 14.5 -8.5t7.5 -12.5q0 -2 -4 -10.5t-5 -14.5q-3 -16 -10 -75t-7 -82q0 -103 31 -103q20 0 46.5 78t26.5 146q0 13 9 13t9 -13
q0 -43 -17 -114.5t-43 -113.5q-15 -23 -35 -23q-47 0 -53 108q-28 -129 -75 -129q-30 0 -41.5 26.5t-11.5 81.5q0 14 4.5 101t4.5 90q0 14 14 14zM169 491q12 -34 -10 -56q-36 -32 -94 -62q-9 -5 -12 4q-2 5 5 10q28 20 55 50t40 53q4 7 9 7t7 -6z" />
    <glyph glyph-name="ucircumflex" unicode="&#xfb;" horiz-adv-x="249" 
d="M36 286q11 0 20.5 -6t9.5 -13q0 -6 -6 -30q-16 -64 -16 -157q0 -53 4.5 -69t16.5 -16q15 0 33.5 38t34 115t15.5 167q0 12 23 12q7 0 14.5 -8.5t7.5 -12.5q0 -2 -4 -10.5t-5 -14.5q-3 -16 -10 -75t-7 -82q0 -103 31 -103q20 0 46.5 78t26.5 146q0 13 9 13t9 -13
q0 -43 -17 -114.5t-43 -113.5q-15 -23 -35 -23q-47 0 -53 108q-28 -129 -75 -129q-30 0 -41.5 26.5t-11.5 81.5q0 14 4.5 101t4.5 90q0 14 14 14zM48 388q28 34 35 70q2 9 15 13.5t18 -3.5q28 -51 62 -76q8 -6 1 -11q-4 -4 -10 -1q-38 22 -72 49q-16 -26 -36 -51
q-3 -5 -8 -4t-6.5 5t1.5 9z" />
    <glyph glyph-name="udieresis" unicode="&#xfc;" horiz-adv-x="249" 
d="M36 286q11 0 20.5 -6t9.5 -13q0 -6 -6 -30q-16 -64 -16 -157q0 -53 4.5 -69t16.5 -16q15 0 33.5 38t34 115t15.5 167q0 12 23 12q7 0 14.5 -8.5t7.5 -12.5q0 -2 -4 -10.5t-5 -14.5q-3 -16 -10 -75t-7 -82q0 -103 31 -103q20 0 46.5 78t26.5 146q0 13 9 13t9 -13
q0 -43 -17 -114.5t-43 -113.5q-15 -23 -35 -23q-47 0 -53 108q-28 -129 -75 -129q-30 0 -41.5 26.5t-11.5 81.5q0 14 4.5 101t4.5 90q0 14 14 14zM72 441q12 0 18.5 -10.5t6.5 -21.5q0 -8 -5.5 -14t-12.5 -6q-10 0 -21.5 7.5t-11.5 19.5q0 8 8 16.5t18 8.5zM152 451
q12 0 21 -11t9 -21q0 -8 -7.5 -14t-15.5 -6q-9 0 -18.5 7.5t-9.5 19.5q0 8 5.5 16.5t15.5 8.5z" />
    <glyph glyph-name="yacute" unicode="&#xfd;" horiz-adv-x="236" 
d="M45 305q8 0 13.5 -5.5t5.5 -10.5q0 -14 -4 -31q-3 -12 -9 -74.5t-6 -88.5q0 -93 26 -93q17 0 34.5 46t29.5 118q4 25 10 77t7 62q6 42 28 42q6 0 11 -5t5 -12q0 -4 -10 -44q-4 -16 -9.5 -83.5t-5.5 -112.5q0 -43 8 -173q46 14 80 14q21 0 32.5 -7.5t11.5 -15.5
q0 -5 -9 -5l-16 2q-17 2 -26 2q-29 0 -71 -11q5 -73 5 -97q0 -92 -38.5 -143.5t-105.5 -51.5q-40 0 -74 29t-34 75q0 67 65.5 119.5t153.5 81.5q-2 36 -6 103t-5 80q-29 -110 -68 -110q-31 0 -46 26.5t-15 96.5q0 18 2.5 56.5t5.5 77t3 39.5q2 27 21 27zM156 -169
q0 14 -2 56q-77 -26 -133 -75t-56 -109q0 -37 22 -58t50 -21q50 0 84.5 52.5t34.5 154.5zM171 491q12 -34 -10 -56q-36 -32 -94 -62q-9 -5 -12 4q-2 5 5 10q28 20 55 50t40 53q4 7 9 7t7 -6z" />
    <glyph glyph-name="thorn" unicode="&#xfe;" horiz-adv-x="240" 
d="M87 612q5 0 11 -7t6 -16q0 -8 -7 -48t-17.5 -95.5t-15.5 -86.5q-10 -61 -17 -154q45 132 74 132q12 0 30 -8t25 -15q8 -7 14 -39.5t6 -66.5q0 -123 -44 -197q-24 -40 -64 -40q-20 0 -34 15.5t-20 37.5l-5 -19q-12 -90 -12 -208q0 -61 10 -96q6 -20 0 -20q-4 0 -22 5
q-19 5 -19 107q0 112 30 382q6 99 22 224q1 9 6.5 56.5t9.5 87.5t4 48q0 18 4 18q1 0 5 -1.5t7 -1.5q2 0 6 3t7 3zM41 82q0 -2 -0.5 -4.5t-0.5 -3.5h1q7 0 12.5 -5.5t5.5 -11.5q0 -3 -3 -8.5t-3 -12.5q0 -14 10 -28.5t22 -14.5q33 0 55 69.5t22 161.5q0 32 -8 62.5t-21 30.5
q-17 0 -46 -73q-29 -74 -46 -162z" />
    <glyph glyph-name="ydieresis" unicode="&#xff;" horiz-adv-x="236" 
d="M45 305q8 0 13.5 -5.5t5.5 -10.5q0 -14 -4 -31q-3 -12 -9 -74.5t-6 -88.5q0 -93 26 -93q17 0 34.5 46t29.5 118q4 25 10 77t7 62q6 42 28 42q6 0 11 -5t5 -12q0 -4 -10 -44q-4 -16 -9.5 -83.5t-5.5 -112.5q0 -43 8 -173q46 14 80 14q21 0 32.5 -7.5t11.5 -15.5
q0 -5 -9 -5l-16 2q-17 2 -26 2q-29 0 -71 -11q5 -73 5 -97q0 -92 -38.5 -143.5t-105.5 -51.5q-40 0 -74 29t-34 75q0 67 65.5 119.5t153.5 81.5q-2 36 -6 103t-5 80q-29 -110 -68 -110q-31 0 -46 26.5t-15 96.5q0 18 2.5 56.5t5.5 77t3 39.5q2 27 21 27zM156 -169
q0 14 -2 56q-77 -26 -133 -75t-56 -109q0 -37 22 -58t50 -21q50 0 84.5 52.5t34.5 154.5zM79 431q12 0 18.5 -10.5t6.5 -21.5q0 -8 -5.5 -14t-12.5 -6q-10 0 -21.5 7.5t-11.5 19.5q0 8 8 16.5t18 8.5zM159 441q12 0 21 -11t9 -21q0 -8 -7.5 -14t-15.5 -6q-9 0 -18.5 7.5
t-9.5 19.5q0 8 5.5 16.5t15.5 8.5z" />
    <glyph glyph-name="Amacron" unicode="&#x100;" horiz-adv-x="567" 
d="M70 180q0 9 105 19q72 133 152 361q8 22 8 54q0 4 9 10.5t18 6.5q10 0 38 -16.5t28 -24.5q0 -4 -2.5 -20t-2.5 -30q0 -25 9.5 -117t22.5 -162q13 -67 34 -142.5t40 -110.5q4 -8 8.5 -14t7 -8t4 -4t1.5 -5q0 -7 -19 -7q-22 0 -32.5 9t-21.5 38q-28 65 -51 174
q-103 -14 -230 -19q-118 -224 -201 -224q-35 0 -73 22t-38 45q0 13 10 13q4 0 11 -10q15 -22 63 -22q90 0 191 175h-20h-12q-54 2 -57 9zM332 493q-39 -130 -120 -290q91 7 169 7q27 0 41 -1q-22 114 -59 345q-21 -26 -31 -61zM307 680q0 16 27 23q15 4 42.5 6t39.5 4
q20 3 34 8q8 3 8 -6q0 -17 -20 -27q-8 -4 -22.5 -6t-39.5 -3t-30 -1q-20 -2 -32 -7q-4 -1 -5.5 1.5t-1.5 7.5z" />
    <glyph glyph-name="amacron" unicode="&#x101;" horiz-adv-x="227" 
d="M137 292q1 -2 2.5 -5.5t1.5 -4.5h2q6 0 16.5 -5.5t10.5 -9.5q0 -2 -1.5 -6t-4.5 -11.5t-5 -14.5q-4 -14 -10.5 -60.5t-6.5 -67.5q0 -85 29 -85q27 0 52.5 83t25.5 140q0 13 9 13t9 -13q0 -59 -28.5 -153.5t-65.5 -94.5q-20 0 -34.5 21.5t-18.5 66.5q-10 -47 -24 -76
q-15 -32 -42 -32q-55 0 -55 114q0 56 13.5 120.5t32.5 100.5q13 27 32 27q38 0 60 -47zM78 30q39 76 50 222q-9 1 -11 17q-7 37 -22 37q-25 0 -45.5 -87t-20.5 -141q0 -79 22 -79q11 0 27 31zM35 401q0 15 27 23q15 4 42.5 6t39.5 4q20 3 34 8q8 3 8 -6q0 -17 -20 -27
q-8 -4 -22.5 -6t-39.5 -3t-30 -1q-20 -2 -32 -7q-4 -1 -5.5 1.5t-1.5 7.5z" />
    <glyph glyph-name="Abreve" unicode="&#x102;" horiz-adv-x="567" 
d="M70 180q0 9 105 19q72 133 152 361q8 22 8 54q0 4 9 10.5t18 6.5q10 0 38 -16.5t28 -24.5q0 -4 -2.5 -20t-2.5 -30q0 -25 9.5 -117t22.5 -162q13 -67 34 -142.5t40 -110.5q4 -8 8.5 -14t7 -8t4 -4t1.5 -5q0 -7 -19 -7q-22 0 -32.5 9t-21.5 38q-28 65 -51 174
q-103 -14 -230 -19q-118 -224 -201 -224q-35 0 -73 22t-38 45q0 13 10 13q4 0 11 -10q15 -22 63 -22q90 0 191 175h-20h-12q-54 2 -57 9zM332 493q-39 -130 -120 -290q91 7 169 7q27 0 41 -1q-22 114 -59 345q-21 -26 -31 -61zM468 717q-42 -48 -85 -48q-51 0 -78 27
q-9 8 2 19q14 14 24 6q33 -27 60 -27q34 0 67 33q6 6 10.5 1t-0.5 -11z" />
    <glyph glyph-name="abreve" unicode="&#x103;" horiz-adv-x="227" 
d="M137 292q1 -2 2.5 -5.5t1.5 -4.5h2q6 0 16.5 -5.5t10.5 -9.5q0 -2 -1.5 -6t-4.5 -11.5t-5 -14.5q-4 -14 -10.5 -60.5t-6.5 -67.5q0 -85 29 -85q27 0 52.5 83t25.5 140q0 13 9 13t9 -13q0 -59 -28.5 -153.5t-65.5 -94.5q-20 0 -34.5 21.5t-18.5 66.5q-10 -47 -24 -76
q-15 -32 -42 -32q-55 0 -55 114q0 56 13.5 120.5t32.5 100.5q13 27 32 27q38 0 60 -47zM78 30q39 76 50 222q-9 1 -11 17q-7 37 -22 37q-25 0 -45.5 -87t-20.5 -141q0 -79 22 -79q11 0 27 31zM198 421q-42 -48 -85 -48q-51 0 -78 27q-9 8 2 19q14 14 24 6q33 -27 60 -27
q34 0 67 33q6 6 10.5 1t-0.5 -11z" />
    <glyph glyph-name="Aogonek" unicode="&#x104;" horiz-adv-x="567" 
d="M482 -123q0 41 35 94q-14 2 -22.5 12t-17.5 34q-28 65 -51 174q-103 -14 -230 -19q-118 -224 -201 -224q-35 0 -73 22t-38 45q0 13 10 13q4 0 11 -10q15 -22 63 -22q90 0 191 175h-20h-12q-54 2 -57 9q0 9 105 19q72 133 152 361q8 22 8 54q0 4 9 10.5t18 6.5
q10 0 38 -16.5t28 -24.5q0 -4 -2.5 -20t-2.5 -30q0 -25 9.5 -117t22.5 -162q13 -67 34 -142.5t40 -110.5q4 -8 8.5 -14t7 -8t4 -4t1.5 -5q0 -5 -13 -7q-31 -46 -31 -81q0 -19 9.5 -30t24.5 -11q28 0 54 36q6 8 11.5 4t1.5 -12q-29 -61 -71 -61q-23 0 -38.5 17.5t-15.5 44.5z
M332 493q-39 -130 -120 -290q91 7 169 7q27 0 41 -1q-22 114 -59 345q-21 -26 -31 -61z" />
    <glyph glyph-name="aogonek" unicode="&#x105;" horiz-adv-x="227" 
d="M137 -89q0 39 30 87q-41 6 -47 87q-10 -47 -24 -76q-15 -32 -42 -32q-55 0 -55 114q0 56 13.5 120.5t32.5 100.5q13 27 32 27q38 0 60 -47q1 -2 2.5 -5.5t1.5 -4.5h2q6 0 16.5 -5.5t10.5 -9.5q0 -2 -1.5 -6t-4.5 -11.5t-5 -14.5q-4 -14 -10.5 -60.5t-6.5 -67.5
q0 -85 29 -85q27 0 52.5 83t25.5 140q0 13 9 13t9 -13q0 -48 -22 -131t-52 -109q-32 -45 -32 -82q0 -19 9.5 -30t24.5 -11q28 0 54 36q6 8 11.5 4t1.5 -12q-29 -61 -71 -61q-23 0 -38.5 17.5t-15.5 44.5zM78 30q39 76 50 222q-9 1 -11 17q-7 37 -22 37q-25 0 -45.5 -87
t-20.5 -141q0 -79 22 -79q11 0 27 31z" />
    <glyph glyph-name="Cacute" unicode="&#x106;" horiz-adv-x="438" 
d="M234 631q69 0 138 -54q17 -13 24 -32t7 -58q0 -64 -16.5 -121.5t-32.5 -57.5q-23 0 -23 56q0 22 15.5 81.5t15.5 84.5q0 33 -37 54t-70 21q-46 0 -90.5 -74.5t-70.5 -175t-26 -184.5q0 -100 32.5 -138.5t95.5 -38.5q50 0 102 20t80.5 41t28.5 29t1.5 9.5t7.5 1.5
q11 0 11 -16q0 -31 -81.5 -74t-150.5 -43q-79 0 -127 63t-48 177q0 50 14.5 120.5t40 140.5t68 119t91.5 49zM373 773q12 -34 -10 -56q-36 -32 -94 -62q-9 -5 -12 4q-2 5 5 10q28 20 55 50t40 53q4 7 9 7t7 -6z" />
    <glyph glyph-name="cacute" unicode="&#x107;" horiz-adv-x="147" 
d="M78 336q15 0 29.5 -24t14.5 -35q0 -19 -16 -19q-8 0 -19.5 8t-14.5 8q-11 0 -24.5 -61.5t-13.5 -108.5q0 -93 40 -93q37 0 66 84t29 149q0 14 9 14t9 -13q0 -40 -13 -99.5t-38 -110.5t-53 -51q-82 0 -82 144q0 64 25 136t52 72zM138 491q12 -34 -10 -56q-36 -32 -94 -62
q-9 -5 -12 4q-2 5 5 10q28 20 55 50t40 53q4 7 9 7t7 -6z" />
    <glyph glyph-name="Ccircumflex" unicode="&#x108;" horiz-adv-x="438" 
d="M234 631q69 0 138 -54q17 -13 24 -32t7 -58q0 -64 -16.5 -121.5t-32.5 -57.5q-23 0 -23 56q0 22 15.5 81.5t15.5 84.5q0 33 -37 54t-70 21q-46 0 -90.5 -74.5t-70.5 -175t-26 -184.5q0 -100 32.5 -138.5t95.5 -38.5q50 0 102 20t80.5 41t28.5 29t1.5 9.5t7.5 1.5
q11 0 11 -16q0 -31 -81.5 -74t-150.5 -43q-79 0 -127 63t-48 177q0 50 14.5 120.5t40 140.5t68 119t91.5 49zM239 666q28 34 35 70q2 9 15 13.5t18 -3.5q28 -51 62 -76q8 -6 1 -11q-4 -4 -10 -1q-38 22 -72 49q-16 -26 -36 -51q-3 -5 -8 -4t-6.5 5t1.5 9z" />
    <glyph glyph-name="ccircumflex" unicode="&#x109;" horiz-adv-x="147" 
d="M78 336q15 0 29.5 -24t14.5 -35q0 -19 -16 -19q-8 0 -19.5 8t-14.5 8q-11 0 -24.5 -61.5t-13.5 -108.5q0 -93 40 -93q37 0 66 84t29 149q0 14 9 14t9 -13q0 -40 -13 -99.5t-38 -110.5t-53 -51q-82 0 -82 144q0 64 25 136t52 72zM7 388q28 34 35 70q2 9 15 13.5t18 -3.5
q28 -51 62 -76q8 -6 1 -11q-4 -4 -10 -1q-38 22 -72 49q-16 -26 -36 -51q-3 -5 -8 -4t-6.5 5t1.5 9z" />
    <glyph glyph-name="Cdotaccent" unicode="&#x10a;" horiz-adv-x="438" 
d="M234 631q69 0 138 -54q17 -13 24 -32t7 -58q0 -64 -16.5 -121.5t-32.5 -57.5q-23 0 -23 56q0 22 15.5 81.5t15.5 84.5q0 33 -37 54t-70 21q-46 0 -90.5 -74.5t-70.5 -175t-26 -184.5q0 -100 32.5 -138.5t95.5 -38.5q50 0 102 20t80.5 41t28.5 29t1.5 9.5t7.5 1.5
q11 0 11 -16q0 -31 -81.5 -74t-150.5 -43q-79 0 -127 63t-48 177q0 50 14.5 120.5t40 140.5t68 119t91.5 49zM302 725q12 0 21 -11t9 -21q0 -8 -7.5 -14t-15.5 -6q-9 0 -18.5 7.5t-9.5 19.5q0 8 5.5 16.5t15.5 8.5z" />
    <glyph glyph-name="cdotaccent" unicode="&#x10b;" horiz-adv-x="147" 
d="M78 336q15 0 29.5 -24t14.5 -35q0 -19 -16 -19q-8 0 -19.5 8t-14.5 8q-11 0 -24.5 -61.5t-13.5 -108.5q0 -93 40 -93q37 0 66 84t29 149q0 14 9 14t9 -13q0 -40 -13 -99.5t-38 -110.5t-53 -51q-82 0 -82 144q0 64 25 136t52 72zM69 451q12 0 21 -11t9 -21q0 -8 -7.5 -14
t-15.5 -6q-9 0 -18.5 7.5t-9.5 19.5q0 8 5.5 16.5t15.5 8.5z" />
    <glyph glyph-name="Ccaron" unicode="&#x10c;" horiz-adv-x="438" 
d="M234 631q69 0 138 -54q17 -13 24 -32t7 -58q0 -64 -16.5 -121.5t-32.5 -57.5q-23 0 -23 56q0 22 15.5 81.5t15.5 84.5q0 33 -37 54t-70 21q-46 0 -90.5 -74.5t-70.5 -175t-26 -184.5q0 -100 32.5 -138.5t95.5 -38.5q50 0 102 20t80.5 41t28.5 29t1.5 9.5t7.5 1.5
q11 0 11 -16q0 -31 -81.5 -74t-150.5 -43q-79 0 -127 63t-48 177q0 50 14.5 120.5t40 140.5t68 119t91.5 49zM382 745q-28 -50 -52 -74q-10 -10 -25 -3q-20 10 -43 32.5t-35 41.5q-5 8 1 11.5t13 -2.5q20 -16 48 -32t37 -16q12 0 43 50q5 8 11.5 4t1.5 -12z" />
    <glyph glyph-name="ccaron" unicode="&#x10d;" horiz-adv-x="147" 
d="M78 336q15 0 29.5 -24t14.5 -35q0 -19 -16 -19q-8 0 -19.5 8t-14.5 8q-11 0 -24.5 -61.5t-13.5 -108.5q0 -93 40 -93q37 0 66 84t29 149q0 14 9 14t9 -13q0 -40 -13 -99.5t-38 -110.5t-53 -51q-82 0 -82 144q0 64 25 136t52 72zM145 464q-28 -50 -52 -74q-10 -10 -25 -3
q-20 10 -43 32.5t-35 41.5q-5 8 1 11.5t13 -2.5q20 -16 48 -32t37 -16q12 0 43 50q5 8 11.5 4t1.5 -12z" />
    <glyph glyph-name="Dcaron" unicode="&#x10e;" horiz-adv-x="488" 
d="M293 605q78 0 128.5 -63.5t50.5 -156.5q0 -72 -35 -173t-92 -179t-110 -78q-26 0 -62 26t-56 28q-3 -36 -7 -38q-25 0 -31 36.5t-6 163.5q0 69 23 353q-64 -27 -110 -54.5t-46 -40.5t-7 -13q-10 0 -10 22q0 17 52.5 52.5t123.5 65.5q4 39 4 51q0 7 7 11.5t15 4.5
t22.5 -11t14.5 -20l-2 -12q78 25 133 25zM155 546q-37 -252 -38 -494q10 -5 26 -20.5t33.5 -26.5t39.5 -11q42 0 91.5 67.5t83.5 166.5t34 182q0 91 -34.5 127t-102.5 36q-52 0 -133 -27zM351 736q-28 -50 -52 -74q-10 -10 -25 -3q-20 10 -43 32.5t-35 41.5q-5 8 1 11.5
t13 -2.5q20 -16 48 -32t37 -16q12 0 43 50q5 8 11.5 4t1.5 -12z" />
    <glyph glyph-name="dcaron" unicode="&#x10f;" horiz-adv-x="226" 
d="M196 637q25 0 25 -14q0 -12 -12 -72q-9 -43 -19.5 -114t-18.5 -136t-10 -74q-12 -79 -12 -149q0 -61 20 -61q26 0 55 83t29 145q0 13 9 13t9 -13q0 -68 -32.5 -163.5t-69.5 -95.5q-18 0 -32 27.5t-14 62.5v15q-34 -112 -75 -112q-26 0 -41.5 26.5t-15.5 77.5q0 75 27 157
q40 118 69 118q33 0 53 -39q2 23 14 107.5t13 89.5q10 90 10 105q0 16 19 16zM118 147q15 53 21 143q-13 25 -32 25q-29 0 -56.5 -83.5t-27.5 -156.5q0 -28 6.5 -50.5t17.5 -22.5q30 0 71 145zM275 677q6 0 13.5 -10t7.5 -19q0 -38 -51 -128q-10 -17 -21 -9q-10 8 -3 23
q22 48 38 106q1 5 3 12l3 10.5t2.5 7.5t3 5.5t4.5 1.5z" />
    <glyph glyph-name="Dcroat" unicode="&#x110;" horiz-adv-x="488" 
d="M-5 242q0 17 35 23q5 1 47 3q3 44 10 136t9 120q-64 -27 -110 -54.5t-46 -40.5t-7 -13q-10 0 -10 22q0 17 52.5 52.5t123.5 65.5q4 39 4 51q0 7 7 11.5t15 4.5t22.5 -11t14.5 -20l-2 -12q78 25 133 25q78 0 128.5 -63.5t50.5 -156.5q0 -72 -35 -173t-92 -179t-110 -78
q-26 0 -62 26t-56 28q-3 -36 -7 -38q-25 0 -31 36.5t-6 163.5q0 10 2 68h-37q-11 0 -19 -1.5t-12 -3t-5 -1.5q-7 0 -7 9zM123 241q-6 -116 -6 -189q10 -5 26 -20.5t33.5 -26.5t39.5 -11q42 0 91.5 67.5t83.5 166.5t34 182q0 91 -34.5 127t-102.5 36q-52 0 -133 -27
q-20 -133 -30 -277l21 2q12 1 24.5 2.5t19.5 2.5t8 1q5 0 5 -5q0 -16 -22 -23q-19 -6 -58 -8z" />
    <glyph glyph-name="dcroat" unicode="&#x111;" horiz-adv-x="231" 
d="M55 467q0 17 35 23q3 0 14 1t29 1.5t31 1.5l3 22q10 90 10 105q0 16 19 16q25 0 25 -14q0 -12 -12 -72q-2 -7 -11 -56q2 0 4.5 0.5t3.5 0.5q12 1 24.5 2.5t19.5 2.5t8 1q5 0 5 -5q0 -16 -22 -23q-12 -4 -47 -8q-7 -42 -14 -94.5t-12.5 -95t-6.5 -49.5q-12 -79 -12 -149
q0 -61 20 -61q26 0 55 83t29 145q0 13 9 13t9 -13q0 -68 -32.5 -163.5t-69.5 -95.5q-18 0 -32 27.5t-14 62.5v15q-34 -112 -75 -112q-26 0 -41.5 26.5t-15.5 77.5q0 75 27 157q40 118 69 118q33 0 53 -39q3 40 20 146q-27 -1 -62 -1q-11 0 -19 -1.5t-12 -3t-5 -1.5
q-7 0 -7 9zM118 147q15 53 21 143q-13 25 -32 25q-29 0 -56.5 -83.5t-27.5 -156.5q0 -28 6.5 -50.5t17.5 -22.5q30 0 71 145z" />
    <glyph glyph-name="Emacron" unicode="&#x112;" horiz-adv-x="585" 
d="M445 624q58 0 77.5 -12.5t19.5 -41.5q0 -26 -12 -26q-6 0 -19 19q-11 15 -85 15q-30 0 -77 -7t-105 -21.5t-98.5 -45.5t-40.5 -71q0 -64 138 -64q20 0 67.5 6t62.5 6q23 0 31.5 -7t8.5 -25q0 -9 -4 -16t-10 -7q-2 0 -13.5 6t-25.5 6q-34 0 -84 -11.5t-104 -33.5
t-92 -61.5t-38 -87.5q0 -47 39.5 -79.5t96 -45.5t123.5 -13q137 0 229 61q14 9 14 20q0 12 7 12q6 0 14 -6.5t8 -14.5q0 -18 -36.5 -44.5t-103.5 -47.5t-136 -21q-46 0 -90 8.5t-90 27.5t-74 58.5t-28 94.5q0 61 51.5 111.5t115.5 72.5q-101 19 -101 110q0 50 44 87.5
t109 55t119 25.5t92 8zM238 668q0 16 27 23q15 4 42.5 6t39.5 4q20 3 34 8q8 3 8 -6q0 -17 -20 -27q-8 -4 -22.5 -6t-39.5 -3t-30 -1q-20 -2 -32 -7q-4 -1 -5.5 1.5t-1.5 7.5z" />
    <glyph glyph-name="emacron" unicode="&#x113;" 
d="M72 333q22 0 40 -15q13 -12 13 -33q0 -51 -26.5 -119t-53.5 -108q4 -21 9.5 -34.5t13 -18.5t12.5 -6.5t13 -1.5q38 0 69 89.5t31 158.5q0 13 9 13t9 -13q0 -42 -16.5 -113t-35.5 -106q-28 -52 -67 -52q-87 0 -87 158q0 40 12 97t23 81q10 23 32 23zM41 129q0 -27 1 -38
q22 32 39.5 85t17.5 99q0 33 -11 33q-14 0 -30.5 -59.5t-16.5 -119.5zM12 401q0 15 27 23q15 4 42.5 6t39.5 4q20 3 34 8q8 3 8 -6q0 -17 -20 -27q-8 -4 -22.5 -6t-39.5 -3t-30 -1q-20 -2 -32 -7q-4 -1 -5.5 1.5t-1.5 7.5z" />
    <glyph glyph-name="Ebreve" unicode="&#x114;" horiz-adv-x="585" 
d="M445 624q58 0 77.5 -12.5t19.5 -41.5q0 -26 -12 -26q-6 0 -19 19q-11 15 -85 15q-30 0 -77 -7t-105 -21.5t-98.5 -45.5t-40.5 -71q0 -64 138 -64q20 0 67.5 6t62.5 6q23 0 31.5 -7t8.5 -25q0 -9 -4 -16t-10 -7q-2 0 -13.5 6t-25.5 6q-34 0 -84 -11.5t-104 -33.5
t-92 -61.5t-38 -87.5q0 -47 39.5 -79.5t96 -45.5t123.5 -13q137 0 229 61q14 9 14 20q0 12 7 12q6 0 14 -6.5t8 -14.5q0 -18 -36.5 -44.5t-103.5 -47.5t-136 -21q-46 0 -90 8.5t-90 27.5t-74 58.5t-28 94.5q0 61 51.5 111.5t115.5 72.5q-101 19 -101 110q0 50 44 87.5
t109 55t119 25.5t92 8zM395 712q-42 -48 -85 -48q-51 0 -78 27q-8 9 2 19q14 14 24 6q33 -27 60 -27q34 0 67 33q6 6 10.5 1t-0.5 -11z" />
    <glyph glyph-name="ebreve" unicode="&#x115;" 
d="M72 333q22 0 40 -15q13 -12 13 -33q0 -51 -26.5 -119t-53.5 -108q4 -21 9.5 -34.5t13 -18.5t12.5 -6.5t13 -1.5q38 0 69 89.5t31 158.5q0 13 9 13t9 -13q0 -42 -16.5 -113t-35.5 -106q-28 -52 -67 -52q-87 0 -87 158q0 40 12 97t23 81q10 23 32 23zM41 129q0 -27 1 -38
q22 32 39.5 85t17.5 99q0 33 -11 33q-14 0 -30.5 -59.5t-16.5 -119.5zM166 421q-42 -48 -85 -48q-51 0 -78 27q-9 8 2 19q14 14 24 6q33 -27 60 -27q34 0 67 33q6 6 10.5 1t-0.5 -11z" />
    <glyph glyph-name="Edotaccent" unicode="&#x116;" horiz-adv-x="585" 
d="M445 624q58 0 77.5 -12.5t19.5 -41.5q0 -26 -12 -26q-6 0 -19 19q-11 15 -85 15q-30 0 -77 -7t-105 -21.5t-98.5 -45.5t-40.5 -71q0 -64 138 -64q20 0 67.5 6t62.5 6q23 0 31.5 -7t8.5 -25q0 -9 -4 -16t-10 -7q-2 0 -13.5 6t-25.5 6q-34 0 -84 -11.5t-104 -33.5
t-92 -61.5t-38 -87.5q0 -47 39.5 -79.5t96 -45.5t123.5 -13q137 0 229 61q14 9 14 20q0 12 7 12q6 0 14 -6.5t8 -14.5q0 -18 -36.5 -44.5t-103.5 -47.5t-136 -21q-46 0 -90 8.5t-90 27.5t-74 58.5t-28 94.5q0 61 51.5 111.5t115.5 72.5q-101 19 -101 110q0 50 44 87.5
t109 55t119 25.5t92 8zM314 712q12 0 21 -11t9 -21q0 -8 -7.5 -14t-15.5 -6q-9 0 -18.5 7.5t-9.5 19.5q0 8 5.5 16.5t15.5 8.5z" />
    <glyph glyph-name="edotaccent" unicode="&#x117;" 
d="M72 333q22 0 40 -15q13 -12 13 -33q0 -51 -26.5 -119t-53.5 -108q4 -21 9.5 -34.5t13 -18.5t12.5 -6.5t13 -1.5q38 0 69 89.5t31 158.5q0 13 9 13t9 -13q0 -42 -16.5 -113t-35.5 -106q-28 -52 -67 -52q-87 0 -87 158q0 40 12 97t23 81q10 23 32 23zM41 129q0 -27 1 -38
q22 32 39.5 85t17.5 99q0 33 -11 33q-14 0 -30.5 -59.5t-16.5 -119.5zM81 451q12 0 21 -11t9 -21q0 -8 -7.5 -14t-15.5 -6q-9 0 -18.5 7.5t-9.5 19.5q0 8 5.5 16.5t15.5 8.5z" />
    <glyph glyph-name="Eogonek" unicode="&#x118;" horiz-adv-x="585" 
d="M497 -48q0 32 21 70q-100 -57 -221 -57q-46 0 -90 8.5t-90 27.5t-74 58.5t-28 94.5q0 61 51.5 111.5t115.5 72.5q-101 19 -101 110q0 50 44 87.5t109 55t119 25.5t92 8q58 0 77.5 -12.5t19.5 -41.5q0 -26 -12 -26q-6 0 -19 19q-11 15 -85 15q-30 0 -77 -7t-105 -21.5
t-98.5 -45.5t-40.5 -71q0 -64 138 -64q20 0 67.5 6t62.5 6q23 0 31.5 -7t8.5 -25q0 -9 -4 -16t-10 -7q-2 0 -13.5 6t-25.5 6q-34 0 -84 -11.5t-104 -33.5t-92 -61.5t-38 -87.5q0 -47 39.5 -79.5t96 -45.5t123.5 -13q137 0 229 61q14 9 14 20q0 12 7 12q6 0 14 -6.5t8 -14.5
q0 -13 -17 -28l-1 -1q-34 -49 -34 -85q0 -19 9.5 -30t24.5 -11q28 0 54 36q6 8 11.5 4t1.5 -12q-29 -61 -71 -61q-23 0 -38.5 17.5t-15.5 44.5z" />
    <glyph glyph-name="eogonek" unicode="&#x119;" 
d="M73 -105q0 35 26 80q-2 -1 -7 -1q-87 0 -87 158q0 40 12 97t23 81q10 23 32 23t40 -15q13 -12 13 -33q0 -51 -26.5 -119t-53.5 -108q4 -21 9.5 -34.5t13 -18.5t12.5 -6.5t13 -1.5q38 0 69 89.5t31 158.5q0 13 9 13t9 -13q0 -42 -16.5 -113t-35.5 -106q-16 -27 -32 -39
q-30 -44 -30 -80q0 -19 9.5 -30t24.5 -11q28 0 54 36q6 8 11.5 4t1.5 -12q-29 -61 -71 -61q-23 0 -38.5 17.5t-15.5 44.5zM41 129q0 -27 1 -38q22 32 39.5 85t17.5 99q0 33 -11 33q-14 0 -30.5 -59.5t-16.5 -119.5z" />
    <glyph glyph-name="Ecaron" unicode="&#x11a;" horiz-adv-x="585" 
d="M445 624q58 0 77.5 -12.5t19.5 -41.5q0 -26 -12 -26q-6 0 -19 19q-11 15 -85 15q-30 0 -77 -7t-105 -21.5t-98.5 -45.5t-40.5 -71q0 -64 138 -64q20 0 67.5 6t62.5 6q23 0 31.5 -7t8.5 -25q0 -9 -4 -16t-10 -7q-2 0 -13.5 6t-25.5 6q-34 0 -84 -11.5t-104 -33.5
t-92 -61.5t-38 -87.5q0 -47 39.5 -79.5t96 -45.5t123.5 -13q137 0 229 61q14 9 14 20q0 12 7 12q6 0 14 -6.5t8 -14.5q0 -18 -36.5 -44.5t-103.5 -47.5t-136 -21q-46 0 -90 8.5t-90 27.5t-74 58.5t-28 94.5q0 61 51.5 111.5t115.5 72.5q-101 19 -101 110q0 50 44 87.5
t109 55t119 25.5t92 8zM392 722q-28 -50 -52 -74q-10 -10 -25 -3q-20 10 -43 32.5t-35 41.5q-5 8 1 11.5t13 -2.5q20 -16 48 -32t37 -16q12 0 43 50q5 8 11.5 4t1.5 -12z" />
    <glyph glyph-name="ecaron" unicode="&#x11b;" 
d="M72 333q22 0 40 -15q13 -12 13 -33q0 -51 -26.5 -119t-53.5 -108q4 -21 9.5 -34.5t13 -18.5t12.5 -6.5t13 -1.5q38 0 69 89.5t31 158.5q0 13 9 13t9 -13q0 -42 -16.5 -113t-35.5 -106q-28 -52 -67 -52q-87 0 -87 158q0 40 12 97t23 81q10 23 32 23zM41 129q0 -27 1 -38
q22 32 39.5 85t17.5 99q0 33 -11 33q-14 0 -30.5 -59.5t-16.5 -119.5zM152 464q-28 -50 -52 -74q-10 -10 -25 -3q-20 10 -43 32.5t-35 41.5q-5 8 1 11.5t13 -2.5q20 -16 48 -32t37 -16q12 0 43 50q5 8 11.5 4t1.5 -12z" />
    <glyph glyph-name="Gcircumflex" unicode="&#x11c;" horiz-adv-x="518" 
d="M450 275h35t23 -1t16 -3.5t4 -6.5q0 -7 -26.5 -14.5t-60.5 -10.5q-7 -100 -72.5 -179.5t-165.5 -79.5q-82 0 -132.5 51.5t-50.5 138.5q0 99 31.5 205.5t82 178.5t101.5 72q29 0 72.5 -15.5t71.5 -34.5q24 -16 36.5 -46t12.5 -61q0 -111 -30 -111q-37 0 -37 74q0 14 4 35
t4 39q0 32 -36 59.5t-69 27.5q-43 0 -90 -71.5t-76 -169.5t-29 -176q0 -166 124 -166q74 0 137.5 61t63.5 121q0 24 -16 45q-105 -3 -229 -15q-14 -1 -25 -7t-12 -6q-6 0 -6 8q0 5 13 14.5t28 13.5q25 7 124.5 18.5t178.5 11.5zM263 667q28 34 35 70q2 9 15 13.5t18 -3.5
q28 -51 62 -76q4 -3 3.5 -7t-4 -5.5t-8.5 0.5q-38 21 -72 49q-16 -26 -36 -51q-3 -5 -8 -4t-6.5 5t1.5 9z" />
    <glyph glyph-name="gcircumflex" unicode="&#x11d;" horiz-adv-x="227" 
d="M73 351q23 0 46 -29q25 -31 40 -43q11 0 19 -7t8 -11q0 -2 -1.5 -4.5t-4 -7t-4.5 -9.5q-35 -85 -35 -207q0 -7 7 -107q35 5 77 5q65 0 65 -18q0 -8 -2.5 -10.5t-10.5 -2.5q-2 0 -23 4.5t-49 4.5q-27 0 -55 -4q3 -75 3 -77q0 -211 -119 -211q-38 0 -75.5 15t-66 49
t-28.5 80q0 72 134 125q56 23 124 35q-8 100 -8 112v19q-24 -84 -64 -84q-59 0 -59 113q0 61 29 165.5t53 104.5zM130 -191q0 12 -6 92q-91 -17 -161.5 -56t-70.5 -94q0 -43 37 -73.5t90 -30.5q57 0 84 46t27 116zM47 -14q25 0 56 104.5t33 171.5q-7 16 -22.5 32t-23.5 16
q-20 0 -45 -101.5t-25 -151.5q0 -24 8.5 -47.5t18.5 -23.5zM42 388q28 34 35 70q2 9 15 13.5t18 -3.5q28 -51 62 -76q8 -6 1 -11q-4 -4 -10 -1q-38 22 -72 49q-16 -26 -36 -51q-3 -5 -8 -4t-6.5 5t1.5 9z" />
    <glyph glyph-name="Gbreve" unicode="&#x11e;" horiz-adv-x="518" 
d="M450 275h35t23 -1t16 -3.5t4 -6.5q0 -7 -26.5 -14.5t-60.5 -10.5q-7 -100 -72.5 -179.5t-165.5 -79.5q-82 0 -132.5 51.5t-50.5 138.5q0 99 31.5 205.5t82 178.5t101.5 72q29 0 72.5 -15.5t71.5 -34.5q24 -16 36.5 -46t12.5 -61q0 -111 -30 -111q-37 0 -37 74q0 14 4 35
t4 39q0 32 -36 59.5t-69 27.5q-43 0 -90 -71.5t-76 -169.5t-29 -176q0 -166 124 -166q74 0 137.5 61t63.5 121q0 24 -16 45q-105 -3 -229 -15q-14 -1 -25 -7t-12 -6q-6 0 -6 8q0 5 13 14.5t28 13.5q25 7 124.5 18.5t178.5 11.5zM389 711q-42 -48 -85 -48q-51 0 -78 27
q-8 8 2 19q14 14 24 6q33 -27 60 -27q34 0 67 33q6 6 10.5 1t-0.5 -11z" />
    <glyph glyph-name="gbreve" unicode="&#x11f;" horiz-adv-x="227" 
d="M73 351q23 0 46 -29q25 -31 40 -43q11 0 19 -7t8 -11q0 -2 -1.5 -4.5t-4 -7t-4.5 -9.5q-35 -85 -35 -207q0 -7 7 -107q35 5 77 5q65 0 65 -18q0 -8 -2.5 -10.5t-10.5 -2.5q-2 0 -23 4.5t-49 4.5q-27 0 -55 -4q3 -75 3 -77q0 -211 -119 -211q-38 0 -75.5 15t-66 49
t-28.5 80q0 72 134 125q56 23 124 35q-8 100 -8 112v19q-24 -84 -64 -84q-59 0 -59 113q0 61 29 165.5t53 104.5zM130 -191q0 12 -6 92q-91 -17 -161.5 -56t-70.5 -94q0 -43 37 -73.5t90 -30.5q57 0 84 46t27 116zM47 -14q25 0 56 104.5t33 171.5q-7 16 -22.5 32t-23.5 16
q-20 0 -45 -101.5t-25 -151.5q0 -24 8.5 -47.5t18.5 -23.5zM198 421q-42 -48 -85 -48q-51 0 -78 27q-9 8 2 19q14 14 24 6q33 -27 60 -27q34 0 67 33q6 6 10.5 1t-0.5 -11z" />
    <glyph glyph-name="Gdotaccent" unicode="&#x120;" horiz-adv-x="518" 
d="M450 275h35t23 -1t16 -3.5t4 -6.5q0 -7 -26.5 -14.5t-60.5 -10.5q-7 -100 -72.5 -179.5t-165.5 -79.5q-82 0 -132.5 51.5t-50.5 138.5q0 99 31.5 205.5t82 178.5t101.5 72q29 0 72.5 -15.5t71.5 -34.5q24 -16 36.5 -46t12.5 -61q0 -111 -30 -111q-37 0 -37 74q0 14 4 35
t4 39q0 32 -36 59.5t-69 27.5q-43 0 -90 -71.5t-76 -169.5t-29 -176q0 -166 124 -166q74 0 137.5 61t63.5 121q0 24 -16 45q-105 -3 -229 -15q-14 -1 -25 -7t-12 -6q-6 0 -6 8q0 5 13 14.5t28 13.5q25 7 124.5 18.5t178.5 11.5zM283 716q12 0 21 -11t9 -21q0 -8 -7.5 -14
t-15.5 -6q-9 0 -18.5 7.5t-9.5 19.5q0 8 5.5 16.5t15.5 8.5z" />
    <glyph glyph-name="gdotaccent" unicode="&#x121;" horiz-adv-x="227" 
d="M73 351q23 0 46 -29q25 -31 40 -43q11 0 19 -7t8 -11q0 -2 -1.5 -4.5t-4 -7t-4.5 -9.5q-35 -85 -35 -207q0 -7 7 -107q35 5 77 5q65 0 65 -18q0 -8 -2.5 -10.5t-10.5 -2.5q-2 0 -23 4.5t-49 4.5q-27 0 -55 -4q3 -75 3 -77q0 -211 -119 -211q-38 0 -75.5 15t-66 49
t-28.5 80q0 72 134 125q56 23 124 35q-8 100 -8 112v19q-24 -84 -64 -84q-59 0 -59 113q0 61 29 165.5t53 104.5zM130 -191q0 12 -6 92q-91 -17 -161.5 -56t-70.5 -94q0 -43 37 -73.5t90 -30.5q57 0 84 46t27 116zM47 -14q25 0 56 104.5t33 171.5q-7 16 -22.5 32t-23.5 16
q-20 0 -45 -101.5t-25 -151.5q0 -24 8.5 -47.5t18.5 -23.5zM109 451q12 0 21 -11t9 -21q0 -8 -7.5 -14t-15.5 -6q-9 0 -18.5 7.5t-9.5 19.5q0 8 5.5 16.5t15.5 8.5z" />
    <glyph glyph-name="Gcommaaccent" unicode="&#x122;" horiz-adv-x="518" 
d="M450 275h35t23 -1t16 -3.5t4 -6.5q0 -7 -26.5 -14.5t-60.5 -10.5q-7 -100 -72.5 -179.5t-165.5 -79.5q-82 0 -132.5 51.5t-50.5 138.5q0 99 31.5 205.5t82 178.5t101.5 72q29 0 72.5 -15.5t71.5 -34.5q24 -16 36.5 -46t12.5 -61q0 -111 -30 -111q-37 0 -37 74q0 14 4 35
t4 39q0 32 -36 59.5t-69 27.5q-43 0 -90 -71.5t-76 -169.5t-29 -176q0 -166 124 -166q74 0 137.5 61t63.5 121q0 24 -16 45q-105 -3 -229 -15q-14 -1 -25 -7t-12 -6q-6 0 -6 8q0 5 13 14.5t28 13.5q25 7 124.5 18.5t178.5 11.5zM223 -77q5 0 12.5 -9.5t7.5 -16.5
q0 -28 -50 -107q-8 -12 -16 -8q-11 3 -4 20q2 6 17 45t18 46q1 4 3 9.5t3 8.5t2.5 6.5t3 4.5t3.5 1z" />
    <glyph glyph-name="gcommaaccent" unicode="&#x123;" horiz-adv-x="227" 
d="M73 351q23 0 46 -29q25 -31 40 -43q11 0 19 -7t8 -11q0 -2 -1.5 -4.5t-4 -7t-4.5 -9.5q-35 -85 -35 -207q0 -7 7 -107q35 5 77 5q65 0 65 -18q0 -8 -2.5 -10.5t-10.5 -2.5q-2 0 -23 4.5t-49 4.5q-27 0 -55 -4q3 -75 3 -77q0 -211 -119 -211q-38 0 -75.5 15t-66 49
t-28.5 80q0 72 134 125q56 23 124 35q-8 100 -8 112v19q-24 -84 -64 -84q-59 0 -59 113q0 61 29 165.5t53 104.5zM130 -191q0 12 -6 92q-91 -17 -161.5 -56t-70.5 -94q0 -43 37 -73.5t90 -30.5q57 0 84 46t27 116zM47 -14q25 0 56 104.5t33 171.5q-7 16 -22.5 32t-23.5 16
q-20 0 -45 -101.5t-25 -151.5q0 -24 8.5 -47.5t18.5 -23.5zM126 390q-5 0 -12.5 9.5t-7.5 16.5q0 28 50 107q8 12 16 8q11 -3 4 -20q-2 -6 -17 -45t-18 -46q-1 -4 -3 -9.5t-3 -8.5t-2.5 -6.5t-3 -4.5t-3.5 -1z" />
    <glyph glyph-name="Hcircumflex" unicode="&#x124;" horiz-adv-x="531" 
d="M414 630q10 0 36.5 -10t26.5 -19q0 -1 -12 -46t-27.5 -126.5t-23.5 -165.5q48 1 87 1q9 0 16 2t11.5 3.5t5.5 1.5q4 0 8 -3.5t4 -7.5q0 -9 -43 -18.5t-91 -11.5q-3 -46 -3 -96q0 -37 3.5 -64.5t8.5 -42t10.5 -23t9 -12.5t3.5 -5q0 -5 -19 -11.5t-25 -6.5q-11 0 -17 11
q-20 35 -101.5 99.5t-157.5 100.5q-7 -87 -7 -116q0 -13 1.5 -25.5t3.5 -21t4 -15t3.5 -10t1.5 -4.5q0 -7 -6 -7q-26 0 -37 17.5t-11 73.5q0 33 4 125q-32 10 -51 10q-11 0 -14.5 4t-3.5 15q0 7 4.5 11t9.5 5.5t16 3.5q5 1 11.5 1.5t16 1.5t15.5 2q3 43 7.5 99.5t7 91
t2.5 45.5q0 23 -0.5 40.5t-1 27t-1 16t-1 9.5t-0.5 4q0 10 6 10q8 0 37 -13q10 -4 13.5 -14.5t3.5 -48.5q0 -9 -4 -46.5t-11.5 -106t-11.5 -110.5q118 6 247 8q3 49 8.5 123t9 123.5t3.5 55.5q0 11 -2 27t-2 20q0 7 6 12.5t13 5.5zM373 167q0 5 2 63l-247 -4q0 -2 -0.5 -7.5
t-0.5 -8.5q72 -34 145.5 -86t110.5 -106q-10 54 -10 149zM216 633q28 34 35 70q2 9 15 13.5t18 -3.5q28 -51 62 -76q8 -6 1 -11q-4 -4 -10 -1q-38 21 -72 49q-16 -26 -36 -51q-3 -5 -8 -4t-6.5 5t1.5 9z" />
    <glyph glyph-name="hcircumflex" unicode="&#x125;" horiz-adv-x="254" 
d="M74 625q12 0 22 -4.5t10 -10.5q0 -7 -5 -22.5t-8 -30.5q-17 -91 -33 -240q-15 -140 -15 -193q0 -78 12 -78q3 0 4.5 4t3.5 12.5t4 13.5q0 1 29 121.5t35 136.5q5 13 14 13q12 0 28.5 -9.5t16.5 -21.5q0 -2 -7 -32q-22 -95 -22 -164q0 -47 10 -73.5t25 -26.5q27 0 52.5 84
t25.5 141q0 13 9 13t9 -13q0 -59 -29 -160t-62 -101q-37 0 -52 46.5t-15 136.5q0 13 1 33l1 20q0 8 -6 8q-4 0 -8 -14q-4 -12 -23 -89.5t-24 -104.5q0 -2 -2 -13t-3.5 -15.5t-4 -12.5t-6.5 -11t-9 -3q-37 0 -37 157q0 65 8 139q2 15 13 118t13 118q9 78 9 116q0 12 16 12z
M22 660q28 34 35 70q2 9 15 13.5t18 -3.5q28 -51 62 -76q4 -3 3.5 -7t-4 -5.5t-8.5 0.5q-38 22 -72 49q-16 -26 -36 -51q-3 -5 -8 -4t-6.5 5t1.5 9z" />
    <glyph glyph-name="Hbar" unicode="&#x126;" horiz-adv-x="531" 
d="M4 370q0 17 35 23q1 0 8 0.5t21 1t28 0.5q6 86 6 92q0 23 -0.5 40.5t-1 27t-1 16t-1 9.5t-0.5 4q0 10 6 10q8 0 37 -13q10 -4 13.5 -14.5t3.5 -48.5l-12 -122l241 6q12 162 12 163q0 11 -2 27t-2 20q0 7 6 12.5t13 5.5q10 0 36.5 -10t26.5 -19q0 -2 -7 -27t-18 -73
t-20 -98q56 2 57 2q12 1 24.5 2.5t19.5 2.5t8 1q5 0 5 -5q0 -16 -22 -23q-12 -5 -96 -8q-10 -55 -14 -112q48 1 87 1q9 0 16 2t11.5 3.5t5.5 1.5q4 0 8 -3.5t4 -7.5q0 -9 -43 -18.5t-91 -11.5q-3 -46 -3 -96q0 -37 3.5 -64.5t8.5 -42t10.5 -23t9 -12.5t3.5 -5
q0 -5 -19 -11.5t-25 -6.5q-11 0 -17 11q-20 35 -101.5 99.5t-157.5 100.5q-7 -87 -7 -116q0 -13 1.5 -25.5t3.5 -21t4 -15t3.5 -10t1.5 -4.5q0 -7 -6 -7q-26 0 -37 17.5t-11 73.5q0 33 4 125q-32 10 -51 10q-11 0 -14.5 4t-3.5 15q0 7 4.5 11t9.5 5.5t16 3.5q5 1 11.5 1.5
t16 1.5t15.5 2q2 48 8 116h-46q-11 0 -19 -1.5t-12 -3t-5 -1.5q-7 0 -7 9zM378 263l7 111q-104 -4 -242 -6l-12 -113q118 6 247 8zM373 167q0 5 2 63l-247 -4q0 -2 -0.5 -7.5t-0.5 -8.5q72 -34 145.5 -86t110.5 -106q-10 54 -10 149z" />
    <glyph glyph-name="hbar" unicode="&#x127;" horiz-adv-x="254" 
d="M-34 446q0 16 37 23q14 3 43 5l3 23q9 78 9 116q0 12 16 12q12 0 22 -4.5t10 -10.5q0 -7 -5 -22.5t-8 -30.5l-13 -81q17 0 38 3q24 3 47 8q11 3 11 -6q0 -17 -28 -27q-18 -7 -72 -9q-3 -20 -7 -52.5t-6.5 -50.5t-2.5 -25q-15 -140 -15 -193q0 -78 12 -78q3 0 4.5 4
t3.5 12.5t4 13.5q0 1 29 121.5t35 136.5q5 13 14 13q12 0 28.5 -9.5t16.5 -21.5q0 -2 -7 -32q-22 -95 -22 -164q0 -47 10 -73.5t25 -26.5q27 0 52.5 84t25.5 141q0 13 9 13t9 -13q0 -59 -29 -160t-62 -101q-37 0 -52 46.5t-15 136.5q0 13 1 33l1 20q0 8 -6 8q-4 0 -8 -14
q-4 -12 -23 -89.5t-24 -104.5q0 -2 -2 -13t-3.5 -15.5t-4 -12.5t-6.5 -11t-9 -3q-37 0 -37 157q0 65 8 139l20 184q-4 0 -12 -0.5t-11 -0.5q-28 -2 -44 -7q-10 -3 -10 9z" />
    <glyph glyph-name="Itilde" unicode="&#x128;" horiz-adv-x="276" 
d="M-13 -9q0 8 115 20q0 13 -0.5 48t-0.5 50q0 24 6 167.5t6 204.5q0 54 -6 88h-39q-56 0 -56 4t18.5 13t33.5 11q19 3 99 9t105 6q51 0 51 -7q0 -5 -14.5 -11t-46 -12t-73.5 -9q-25 -81 -35 -218t-10 -230q0 -15 5 -110q57 6 79 6q33 0 33 -10q0 -6 -23 -14t-65.5 -14.5
t-88.5 -6.5q-93 0 -93 15zM66 642q14 28 34 44q16 13 56.5 -2t57.5 -1q3 3 10 11q3 4 7 4t5.5 -3.5t-0.5 -8.5q-8 -15 -21 -27q-16 -15 -35 -15t-33 7.5t-28.5 10t-22.5 -5.5q-7 -7 -16 -23q-3 -6 -8 -6t-6.5 4.5t0.5 10.5z" />
    <glyph glyph-name="itilde" unicode="&#x129;" horiz-adv-x="130" 
d="M44 306q9 0 16 -5t7 -9l-7 -36q-7 -35 -14 -85.5t-7 -85.5q0 -46 6.5 -63t20.5 -17q16 0 32 28q20 37 37 102.5t17 109.5q0 13 9 13t9 -14q0 -48 -18.5 -125t-47.5 -117q-15 -21 -35 -21q-31 0 -45.5 22t-14.5 77q0 22 7 107t7 103q0 6 6 11t15 5zM-25 341q14 28 34 44
q16 13 56.5 -2t57.5 -1q3 3 10 11q3 4 7 4t5.5 -3.5t-0.5 -8.5q-7 -15 -21 -27q-16 -15 -35 -15t-33 7.5t-28.5 10t-22.5 -5.5q-7 -7 -16 -23q-3 -6 -8 -6t-6.5 4.5t0.5 10.5z" />
    <glyph glyph-name="Imacron" unicode="&#x12a;" horiz-adv-x="276" 
d="M-13 -9q0 8 115 20q0 13 -0.5 48t-0.5 50q0 24 6 167.5t6 204.5q0 54 -6 88h-39q-56 0 -56 4t18.5 13t33.5 11q19 3 99 9t105 6q51 0 51 -7q0 -5 -14.5 -11t-46 -12t-73.5 -9q-25 -81 -35 -218t-10 -230q0 -15 5 -110q57 6 79 6q33 0 33 -10q0 -6 -23 -14t-65.5 -14.5
t-88.5 -6.5q-93 0 -93 15zM66 651q0 15 27 23q15 4 42.5 6t39.5 4q20 3 34 8q8 3 8 -6q0 -17 -20 -27q-8 -4 -22.5 -6t-39.5 -3t-30 -1q-20 -2 -32 -7q-4 -1 -5.5 1.5t-1.5 7.5z" />
    <glyph glyph-name="imacron" unicode="&#x12b;" horiz-adv-x="130" 
d="M44 306q9 0 16 -5t7 -9l-7 -36q-7 -35 -14 -85.5t-7 -85.5q0 -46 6.5 -63t20.5 -17q16 0 32 28q20 37 37 102.5t17 109.5q0 13 9 13t9 -14q0 -48 -18.5 -125t-47.5 -117q-15 -21 -35 -21q-31 0 -45.5 22t-14.5 77q0 22 7 107t7 103q0 6 6 11t15 5zM-23 351q0 15 27 23
q15 4 42.5 6t39.5 4q20 3 34 8q8 3 8 -6q0 -17 -20 -27q-8 -4 -22.5 -6t-39.5 -3t-30 -1q-20 -2 -32 -7q-4 -1 -5.5 1.5t-1.5 7.5z" />
    <glyph glyph-name="Ibreve" unicode="&#x12c;" horiz-adv-x="276" 
d="M-13 -9q0 8 115 20q0 13 -0.5 48t-0.5 50q0 24 6 167.5t6 204.5q0 54 -6 88h-39q-56 0 -56 4t18.5 13t33.5 11q19 3 99 9t105 6q51 0 51 -7q0 -5 -14.5 -11t-46 -12t-73.5 -9q-25 -81 -35 -218t-10 -230q0 -15 5 -110q57 6 79 6q33 0 33 -10q0 -6 -23 -14t-65.5 -14.5
t-88.5 -6.5q-93 0 -93 15zM234 683q-42 -48 -85 -48q-51 0 -78 27q-9 8 2 19q14 14 24 6q33 -27 60 -27q34 0 67 33q6 6 10.5 1t-0.5 -11z" />
    <glyph glyph-name="ibreve" unicode="&#x12d;" horiz-adv-x="130" 
d="M44 306q9 0 16 -5t7 -9l-7 -36q-7 -35 -14 -85.5t-7 -85.5q0 -46 6.5 -63t20.5 -17q16 0 32 28q20 37 37 102.5t17 109.5q0 13 9 13t9 -14q0 -48 -18.5 -125t-47.5 -117q-15 -21 -35 -21q-31 0 -45.5 22t-14.5 77q0 22 7 107t7 103q0 6 6 11t15 5zM145 391
q-42 -48 -85 -48q-51 0 -78 27q-8 8 2 19q14 14 24 6q33 -27 60 -27q34 0 67 33q6 6 10.5 1t-0.5 -11z" />
    <glyph glyph-name="Iogonek" unicode="&#x12e;" horiz-adv-x="276" 
d="M193 -93q0 38 31 87q-64 -18 -144 -18q-93 0 -93 15q0 8 115 20q0 13 -0.5 48t-0.5 50q0 24 6 167.5t6 204.5q0 54 -6 88h-39q-56 0 -56 4t18.5 13t33.5 11q19 3 99 9t105 6q51 0 51 -7q0 -5 -14.5 -11t-46 -12t-73.5 -9q-25 -81 -35 -218t-10 -230q0 -15 5 -110
q57 6 79 6q33 0 33 -10q0 -3 -5 -6l-1 -1q-34 -49 -34 -85q0 -19 9.5 -30t24.5 -11q28 0 54 36q6 8 11.5 4t1.5 -12q-29 -61 -71 -61q-23 0 -38.5 17.5t-15.5 44.5z" />
    <glyph glyph-name="iogonek" unicode="&#x12f;" horiz-adv-x="130" 
d="M43 -97q0 33 25 78q-30 0 -44.5 22t-14.5 77q0 22 7 107t7 103q0 6 6 11t15 5t16 -5t7 -9l-7 -36q-7 -35 -14 -85.5t-7 -85.5q0 -46 6.5 -63t20.5 -17q16 0 32 28q20 37 37 102.5t17 109.5q0 13 9 13t9 -14q0 -48 -18.5 -125t-47.5 -117l-9 -10q-28 -44 -28 -77
q0 -19 9.5 -30t24.5 -11q28 0 54 36q6 8 11.5 4t1.5 -12q-29 -61 -71 -61q-23 0 -38.5 17.5t-15.5 44.5zM65 538q14 0 22.5 -13.5t8.5 -27.5q0 -10 -6.5 -17.5t-15.5 -7.5q-13 0 -27.5 10t-14.5 24q0 9 10.5 20.5t22.5 11.5z" />
    <glyph glyph-name="Idotaccent" unicode="&#x130;" horiz-adv-x="276" 
d="M-13 -9q0 8 115 20q0 13 -0.5 48t-0.5 50q0 24 6 167.5t6 204.5q0 54 -6 88h-39q-56 0 -56 4t18.5 13t33.5 11q19 3 99 9t105 6q51 0 51 -7q0 -5 -14.5 -11t-46 -12t-73.5 -9q-25 -81 -35 -218t-10 -230q0 -15 5 -110q57 6 79 6q33 0 33 -10q0 -6 -23 -14t-65.5 -14.5
t-88.5 -6.5q-93 0 -93 15zM142 694q12 0 21 -11t9 -21q0 -8 -7.5 -14t-15.5 -6q-9 0 -18.5 7.5t-9.5 19.5q0 8 5.5 16.5t15.5 8.5z" />
    <glyph glyph-name="dotlessi" unicode="&#x131;" horiz-adv-x="130" 
d="M44 306q9 0 16 -5t7 -9l-7 -36q-7 -35 -14 -85.5t-7 -85.5q0 -46 6.5 -63t20.5 -17q16 0 32 28q20 37 37 102.5t17 109.5q0 13 9 13t9 -14q0 -48 -18.5 -125t-47.5 -117q-15 -21 -35 -21q-31 0 -45.5 22t-14.5 77q0 22 7 107t7 103q0 6 6 11t15 5z" />
    <glyph glyph-name="IJ" unicode="&#x132;" horiz-adv-x="580" 
d="M-13 -9q0 8 115 20q0 13 -0.5 48t-0.5 50q0 24 6 167.5t6 204.5q0 54 -6 88h-39q-56 0 -56 4t18.5 13t33.5 11q19 3 99 9t105 6q51 0 51 -7q0 -5 -14.5 -11t-46 -12t-73.5 -9q-25 -81 -35 -218t-10 -230q0 -15 5 -110q57 6 79 6q33 0 33 -10q0 -6 -23 -14t-65.5 -14.5
t-88.5 -6.5q-93 0 -93 15zM498 617q14 0 28.5 -7.5t14.5 -14.5q0 -2 -4 -24.5t-10 -70t-9 -104.5q-1 -28 -1 -69t0.5 -93t0.5 -76q0 -30 -0.5 -47t-2.5 -39.5t-7.5 -35t-13.5 -25t-21.5 -17.5t-32.5 -5q-53 0 -110.5 26t-91 56.5t-33.5 47.5q0 20 16 20q20 0 35 -19
q71 -91 134 -91q38 0 56 21t25.5 78.5t7.5 176.5q0 52 -1.5 100t-3.5 79.5t-4.5 56t-4 38t-1.5 15.5q0 8 10.5 15.5t23.5 7.5z" />
    <glyph glyph-name="ij" unicode="&#x133;" horiz-adv-x="249" 
d="M174 307q28 0 28 -18q0 -5 -8 -32q-5 -17 -15 -112t-10 -156q0 -13 2 -55q30 5 50 5q57 0 82 -17q4 -3 6 -6.5t1 -6.5t-3.5 -5t-6.5 -2t-9 2q-24 12 -71 12q-24 0 -47 -5q9 -103 9 -135q0 -149 -129 -149q-56 0 -110 35t-54 88q0 54 80.5 105t175.5 74q-4 84 -4 110
q0 25 1 47q-16 -53 -38 -84q-15 -21 -35 -21q-31 0 -45.5 22t-14.5 77q0 22 7 107t7 103q0 6 6 11t15 5t16 -5t7 -9l-7 -36q-7 -35 -14 -85.5t-7 -85.5q0 -46 6.5 -63t20.5 -17q16 0 32 28q31 56 48 152q3 90 6 105q2 10 6 13.5t16 3.5zM153 -206q0 9 -6 111
q-86 -21 -158 -67t-72 -96q0 -42 48.5 -68t91.5 -26q96 0 96 146zM65 538q14 0 22.5 -13.5t8.5 -27.5q0 -10 -6.5 -17.5t-15.5 -7.5q-13 0 -27.5 10t-14.5 24q0 9 10.5 20.5t22.5 11.5zM201 542q11 0 19.5 -7t8.5 -17q0 -11 -8.5 -22.5t-17.5 -11.5t-18.5 7.5t-9.5 17.5
q0 12 8 22.5t18 10.5z" />
    <glyph glyph-name="Jcircumflex" unicode="&#x134;" horiz-adv-x="335" 
d="M253 617q14 0 28.5 -7.5t14.5 -14.5q0 -2 -4 -24.5t-10 -70t-9 -104.5v-238q0 -30 -0.5 -47t-2.5 -39.5t-7.5 -35t-13.5 -25t-21.5 -17.5t-32.5 -5q-53 0 -110.5 26t-91 56.5t-33.5 47.5q0 20 16 20q20 0 35 -19q71 -91 134 -91q38 0 56 21t25.5 78.5t7.5 176.5
q0 52 -1.5 100t-4 79.5t-4.5 56t-3.5 38t-1.5 15.5q0 8 10.5 15.5t23.5 7.5zM208 665q28 34 35 70q2 9 15 13.5t18 -3.5q28 -51 62 -76q8 -6 1 -11q-4 -4 -10 -1q-38 21 -72 49q-16 -26 -36 -51q-3 -5 -8 -4t-6.5 5t1.5 9z" />
    <glyph glyph-name="jcircumflex" unicode="&#x135;" horiz-adv-x="119" 
d="M44 307q28 0 28 -18q0 -5 -8 -32q-5 -17 -15 -112t-10 -156q0 -13 2 -55q30 5 50 5q43 0 63 -12.5t20 -29.5q0 -6 -3.5 -10t-6.5 -4q-6 0 -10 10q-10 23 -64 23q-24 0 -47 -5q9 -103 9 -135q0 -149 -129 -149q-56 0 -110 35t-54 88q0 54 80.5 105t175.5 74q-4 84 -4 110
q0 28 4.5 134.5t6.5 116.5t6 13.5t16 3.5zM23 -206q0 9 -6 111q-86 -21 -158 -67t-72 -96q0 -42 48.5 -68t91.5 -26q96 0 96 146zM0 358q28 34 35 70q2 9 15 13.5t18 -3.5q28 -51 62 -76q4 -3 3.5 -7t-4 -5.5t-8.5 0.5q-38 22 -72 49q-16 -26 -36 -51q-3 -5 -8 -4t-6.5 5
t1.5 9z" />
    <glyph glyph-name="Kcommaaccent" unicode="&#x136;" horiz-adv-x="506" 
d="M483 605q4 0 11 -17t7 -26q0 -4 -1.5 -7.5t-3.5 -6t-6.5 -7t-7.5 -8.5q-45 -56 -160 -148.5t-219 -152.5q0 -2 -0.5 -6t-0.5 -6q55 -61 171 -118t184 -62q27 -1 27 -12q0 -5 -14 -16t-21 -11q-26 0 -134.5 49.5t-213.5 108.5v-24q0 -39 2 -68t4.5 -43t4.5 -22t4 -11t2 -5
q0 -9 -14 -9q-9 0 -29 10q-4 2 -8.5 51t-4.5 92v50l-20 13q-25 15 -25 30q0 13 22 22l26 11q1 26 3 49t4.5 45.5t3.5 33.5q5 68 5 201q0 15 14.5 29.5t22.5 14.5q28 0 28 -25q0 -5 -8 -47.5t-18 -119.5t-15 -160q94 52 197.5 138.5t154.5 156.5q4 5 8 11.5t6.5 9.5t4.5 6
t4 4.5t3 1.5zM251 -77q5 0 12.5 -9.5t7.5 -16.5q0 -28 -50 -107q-8 -12 -16 -8q-11 3 -4 20q2 6 17 45t18 46q1 4 3 9.5t3 8.5t2.5 6.5t3 4.5t3.5 1z" />
    <glyph glyph-name="kcommaaccent" unicode="&#x137;" horiz-adv-x="243" 
d="M62 629q36 0 36 -23q0 -4 -6.5 -40.5t-14 -80.5t-9.5 -62q-13 -118 -21 -246q13 45 32.5 92t34.5 66q16 20 34 20q22 0 34.5 -17.5t12.5 -39.5q0 -65 -63 -141q-1 -10 -1 -33q0 -36 14 -69t34 -33q33 0 59.5 83t26.5 140q0 13 9 13t9 -13q0 -36 -14 -98.5t-38 -112.5
q-19 -38 -50 -38q-36 0 -57 38t-23 90q-31 -28 -50 -39q-4 -24 -4 -52q0 -11 1 -19.5t2.5 -12t2.5 -6t1 -3.5q0 -10 -12 -10q-9 0 -14.5 7t-9 32.5t-3.5 73.5q0 90 21 300q14 142 14 217q0 17 12 17zM154 330q-20 0 -51 -68.5t-47 -146.5q39 21 75.5 80.5t36.5 109.5
q0 10 -4.5 17.5t-9.5 7.5zM111 -77q5 0 12.5 -9.5t7.5 -16.5q0 -28 -50 -107q-8 -12 -16 -8q-11 3 -4 20q2 6 17 45t18 46q1 4 3 9.5t3 8.5t2.5 6.5t3 4.5t3.5 1z" />
    <glyph glyph-name="kgreenlandic" unicode="&#x138;" horiz-adv-x="243" 
d="M35 337q27 0 27 -23q0 -25 -7.5 -77t-8.5 -61q35 119 68 159q16 20 34 20q22 0 34.5 -17.5t12.5 -39.5q0 -65 -63 -141q-1 -10 -1 -33q0 -36 14 -69t34 -33q33 0 59.5 83t26.5 140q0 13 9 13t9 -13q0 -36 -14 -98.5t-38 -112.5q-19 -38 -50 -38q-36 0 -57 38t-23 90
q-31 -28 -50 -39q-4 -24 -4 -52q0 -11 1 -19.5t2.5 -12t2.5 -6t1 -3.5q0 -10 -12 -10q-9 0 -14.5 7t-9 32.5t-3.5 73.5q0 28 4 109t4 116q0 17 12 17zM154 330q-20 0 -51 -68.5t-47 -146.5q39 21 75.5 80.5t36.5 109.5q0 10 -4.5 17.5t-9.5 7.5z" />
    <glyph glyph-name="Lacute" unicode="&#x139;" horiz-adv-x="573" 
d="M439 659q44 0 89.5 -63.5t45.5 -117.5q0 -37 -62.5 -82.5t-142.5 -76.5q-6 -55 -7 -74q-6 -94 -24 -147q28 -17 110 -72t122 -77q34 -19 65 -19q21 0 21 -6q0 -3 -16.5 -6.5t-26.5 -3.5q-17 0 -40.5 8.5t-55 26.5t-55.5 33.5t-67.5 44.5t-66.5 44q-45 -106 -172 -106
q-62 0 -126.5 61t-64.5 129q0 23 19 41t48 18q113 0 273 -95q9 51 12 124l3 59q-40 -12 -71 -12q-18 0 -33 5.5t-15 10.5t3.5 10.5t7.5 5.5q1 0 12 -5.5t19 -4.5q35 5 80 18q13 138 44 233.5t72 95.5zM198 -8q76 0 101 98q-155 96 -242 96q-52 0 -52 -32q0 -47 55.5 -104.5
t137.5 -57.5zM464 614q-28 0 -52 -79.5t-40 -187.5q54 21 95 50q57 42 57 111q0 38 -18 72t-42 34zM491 790q12 -34 -10 -56q-36 -32 -94 -62q-9 -5 -12 4q-2 5 5 10q28 20 55 50t40 53q4 7 9 7t7 -6z" />
    <glyph glyph-name="lacute" unicode="&#x13a;" horiz-adv-x="181" 
d="M97 630q25 0 43 -18t18 -82q0 -127 -30 -257.5t-78 -203.5q17 -72 54 -72q38 0 68.5 91t30.5 157q0 13 9 13t9 -13q0 -24 -7 -66.5t-20.5 -92t-38 -85t-54.5 -35.5q-38 0 -66.5 56t-28.5 155q0 78 22.5 212.5t40.5 210.5q7 30 28 30zM40 179q0 -34 4 -76q37 76 62 187.5
t25 226.5q0 27 -4.5 50.5t-9.5 23.5q-9 0 -27.5 -64.5t-34 -165t-15.5 -182.5zM174 772q12 -34 -10 -56q-36 -32 -94 -62q-9 -5 -12 4q-2 5 5 10q28 20 55 50t40 53q4 7 9 7t7 -6z" />
    <glyph glyph-name="Lcommaaccent" unicode="&#x13b;" horiz-adv-x="573" 
d="M439 659q44 0 89.5 -63.5t45.5 -117.5q0 -37 -62.5 -82.5t-142.5 -76.5q-6 -55 -7 -74q-6 -94 -24 -147q28 -17 110 -72t122 -77q34 -19 65 -19q21 0 21 -6q0 -3 -16.5 -6.5t-26.5 -3.5q-17 0 -40.5 8.5t-55 26.5t-55.5 33.5t-67.5 44.5t-66.5 44q-45 -106 -172 -106
q-62 0 -126.5 61t-64.5 129q0 23 19 41t48 18q113 0 273 -95q9 51 12 124l3 59q-40 -12 -71 -12q-18 0 -33 5.5t-15 10.5t3.5 10.5t7.5 5.5q1 0 12 -5.5t19 -4.5q35 5 80 18q13 138 44 233.5t72 95.5zM198 -8q76 0 101 98q-155 96 -242 96q-52 0 -52 -32q0 -47 55.5 -104.5
t137.5 -57.5zM464 614q-28 0 -52 -79.5t-40 -187.5q54 21 95 50q57 42 57 111q0 38 -18 72t-42 34zM334 -77q5 0 12.5 -9.5t7.5 -16.5q0 -28 -50 -107q-8 -12 -16 -8q-11 3 -4 20q2 6 17 45t18 46q1 4 3 9.5t3 8.5t2.5 6.5t3 4.5t3.5 1z" />
    <glyph glyph-name="lcommaaccent" unicode="&#x13c;" horiz-adv-x="181" 
d="M97 630q25 0 43 -18t18 -82q0 -127 -30 -257.5t-78 -203.5q17 -72 54 -72q38 0 68.5 91t30.5 157q0 13 9 13t9 -13q0 -24 -7 -66.5t-20.5 -92t-38 -85t-54.5 -35.5q-38 0 -66.5 56t-28.5 155q0 78 22.5 212.5t40.5 210.5q7 30 28 30zM40 179q0 -34 4 -76q37 76 62 187.5
t25 226.5q0 27 -4.5 50.5t-9.5 23.5q-9 0 -27.5 -64.5t-34 -165t-15.5 -182.5zM54 -77q5 0 12.5 -9.5t7.5 -16.5q0 -28 -50 -107q-8 -12 -16 -8q-11 3 -4 20q2 6 17 45t18 46q1 4 3 9.5t3 8.5t2.5 6.5t3 4.5t3.5 1z" />
    <glyph glyph-name="Lcaron" unicode="&#x13d;" horiz-adv-x="573" 
d="M439 659q44 0 89.5 -63.5t45.5 -117.5q0 -37 -62.5 -82.5t-142.5 -76.5q-6 -55 -7 -74q-6 -94 -24 -147q28 -17 110 -72t122 -77q34 -19 65 -19q21 0 21 -6q0 -3 -16.5 -6.5t-26.5 -3.5q-17 0 -40.5 8.5t-55 26.5t-55.5 33.5t-67.5 44.5t-66.5 44q-45 -106 -172 -106
q-62 0 -126.5 61t-64.5 129q0 23 19 41t48 18q113 0 273 -95q9 51 12 124l3 59q-40 -12 -71 -12q-18 0 -33 5.5t-15 10.5t3.5 10.5t7.5 5.5q1 0 12 -5.5t19 -4.5q35 5 80 18q13 138 44 233.5t72 95.5zM198 -8q76 0 101 98q-155 96 -242 96q-52 0 -52 -32q0 -47 55.5 -104.5
t137.5 -57.5zM464 614q-28 0 -52 -79.5t-40 -187.5q54 21 95 50q57 42 57 111q0 38 -18 72t-42 34zM647 683q6 0 13.5 -10t7.5 -19q0 -38 -51 -128q-10 -17 -21 -9q-10 8 -3 23q22 48 38 106q1 5 3 12l3 10.5t2.5 7.5t3 5.5t4.5 1.5z" />
    <glyph glyph-name="lcaron" unicode="&#x13e;" horiz-adv-x="191" 
d="M97 630q25 0 43 -18t18 -82q0 -126 -29.5 -256t-77.5 -204q19 -73 58 -73q38 0 71 91.5t33 156.5q0 13 9 13t9 -13q0 -23 -8 -66.5t-22 -92.5t-39.5 -84.5t-55.5 -35.5q-38 0 -69 56t-31 155q0 78 22.5 212.5t40.5 210.5q7 30 28 30zM40 179q0 -48 4 -76q37 76 62 187.5
t25 226.5q0 27 -4.5 50.5t-9.5 23.5q-9 0 -27.5 -64.5t-34 -165t-15.5 -182.5zM232 688q6 0 13.5 -10t7.5 -19q0 -38 -51 -128q-10 -17 -21 -9q-10 8 -3 23q22 48 38 106q1 5 3 12l3 10.5t2.5 7.5t3 5.5t4.5 1.5z" />
    <glyph glyph-name="Ldot" unicode="&#x13f;" horiz-adv-x="573" 
d="M439 659q44 0 89.5 -63.5t45.5 -117.5q0 -37 -62.5 -82.5t-142.5 -76.5q-6 -55 -7 -74q-6 -94 -24 -147q28 -17 110 -72t122 -77q34 -19 65 -19q21 0 21 -6q0 -3 -16.5 -6.5t-26.5 -3.5q-17 0 -40.5 8.5t-55 26.5t-55.5 33.5t-67.5 44.5t-66.5 44q-45 -106 -172 -106
q-62 0 -126.5 61t-64.5 129q0 23 19 41t48 18q113 0 273 -95q9 51 12 124l3 59q-40 -12 -71 -12q-18 0 -33 5.5t-15 10.5t3.5 10.5t7.5 5.5q1 0 12 -5.5t19 -4.5q35 5 80 18q13 138 44 233.5t72 95.5zM198 -8q76 0 101 98q-155 96 -242 96q-52 0 -52 -32q0 -47 55.5 -104.5
t137.5 -57.5zM464 614q-28 0 -52 -79.5t-40 -187.5q54 21 95 50q57 42 57 111q0 38 -18 72t-42 34zM491 227q10 0 19.5 -8t9.5 -16q0 -9 -9 -22t-19 -13t-20 10t-10 20t9 19.5t20 9.5z" />
    <glyph glyph-name="ldot" unicode="&#x140;" horiz-adv-x="234" 
d="M97 630q25 0 43 -18t18 -82q0 -125 -29.5 -255t-77.5 -204q21 -74 78 -74q33 0 63 47.5t46 104.5t16 96q0 13 9 13t9 -13q0 -23 -9 -66.5t-25.5 -92.5t-46.5 -84.5t-65 -35.5q-52 0 -86 55t-34 156q0 78 22.5 212.5t40.5 210.5q7 30 28 30zM40 179q0 -48 4 -76
q37 76 62 187.5t25 226.5q0 27 -4.5 50.5t-9.5 23.5q-9 0 -27.5 -64.5t-34 -165t-15.5 -182.5zM195 238q10 0 19.5 -8t9.5 -16q0 -9 -9 -22t-19 -13t-20 10t-10 20q0 11 9 20t20 9z" />
    <glyph glyph-name="Lslash" unicode="&#x141;" horiz-adv-x="573" 
d="M439 659q44 0 89.5 -63.5t45.5 -117.5q0 -37 -62.5 -82.5t-142.5 -76.5l-6 -51l43 16q19 8 47 22q4 1 7 -3q4 -16 -14 -29q-15 -11 -85 -37q-6 -88 -23 -139q28 -17 110 -72t122 -77q34 -19 65 -19q21 0 21 -6q0 -3 -16.5 -6.5t-26.5 -3.5q-17 0 -40.5 8.5t-55 26.5
t-55.5 33.5t-67.5 44.5t-66.5 44q-45 -106 -172 -106q-62 0 -126.5 61t-64.5 129q0 23 19 41t48 18q113 0 273 -95q8 48 11 102q-51 -17 -63 -20q-8 -3 -14.5 -6t-9.5 -5t-5 -4l-3 -2q-7 -2 -10 6q-5 16 26 33q2 1 13 5t31.5 11t35.5 13l3 50q-40 -12 -71 -12q-18 0 -33 5.5
t-15 10.5t3.5 10.5t7.5 5.5q1 0 12 -5.5t19 -4.5q35 5 80 18q13 138 44 233.5t72 95.5zM198 -8q76 0 101 98q-155 96 -242 96q-52 0 -52 -32q0 -47 55.5 -104.5t137.5 -57.5zM464 614q-28 0 -52 -79.5t-40 -187.5q54 21 95 50q57 42 57 111q0 38 -18 72t-42 34z" />
    <glyph glyph-name="lslash" unicode="&#x142;" horiz-adv-x="181" 
d="M97 630q25 0 43 -18t18 -82q0 -151 -39 -295l18 10t14 8.5t6 3.5q5 2 6 -2q7 -16 -11 -30q-13 -11 -45 -28q-26 -82 -57 -128q17 -72 54 -72q38 0 68.5 91t30.5 157q0 13 9 13t9 -13q0 -24 -7 -66.5t-20.5 -92t-38 -85t-54.5 -35.5q-35 0 -62.5 47.5t-31.5 133.5
q-15 -7 -17 -7q-10 -4 -17 -9t-10 -8t-4 -3q-7 -2 -10 6q-7 15 23 35l34 17q0 79 22 212t41 210q7 30 28 30zM40 195l48 24q43 148 43 298q0 27 -4.5 50.5t-9.5 23.5q-9 0 -27 -61t-33.5 -157.5t-16.5 -177.5zM76 180l-36 -17q0 -26 4 -60q18 35 32 77z" />
    <glyph glyph-name="Nacute" unicode="&#x143;" horiz-adv-x="445" 
d="M162 631q18 0 31.5 -10t13.5 -18q0 -207 38 -394.5t84 -187.5q16 0 16 54q0 113 16.5 287t35.5 235q14 44 29 44q12 0 12 -20q0 -5 -3.5 -17.5t-9.5 -33.5t-10 -44q-40 -223 -40 -450q0 -18 1.5 -54t1.5 -37q0 -9 -15 -14.5t-36 -5.5q-32 0 -61.5 56t-52 149t-37.5 180
t-27 180q-6 -35 -13 -94t-13.5 -109t-15.5 -109t-22 -104.5t-30 -85t-41.5 -60.5t-54.5 -21q-36 0 -55.5 9t-19.5 24q0 7 5.5 11t10.5 4q4 0 4 -9q0 -3 9 -8t17 -5q110 0 160 335q29 189 29 293q0 14 12 22t31 8zM373 746q12 -34 -10 -56q-36 -32 -94 -62q-9 -5 -12 4
q-2 5 5 10q28 20 55 50t40 53q4 7 9 7t7 -6z" />
    <glyph glyph-name="nacute" unicode="&#x144;" horiz-adv-x="254" 
d="M43 276q7 0 13.5 -5.5t6.5 -11.5q0 -1 -3.5 -17.5t-7 -51t-3.5 -77.5q0 -81 14 -81q7 0 13 23q8 30 22.5 94t26 116t11.5 53q2 6 13 7t18 -2q6 -2 14 -12t8 -17q0 -1 -3.5 -32.5t-7.5 -75t-4 -74.5q0 -33 5 -56t11 -32.5t12 -9.5q22 0 45 78q29 97 29 153q0 13 9 13
t9 -13q0 -62 -28.5 -162.5t-64.5 -100.5q-56 0 -57 159v45q0 12 -3 12q-5 0 -13 -27q-16 -59 -38 -156q-8 -28 -29 -28q-32 0 -39 64q-4 34 -4 87q0 12 0.5 30t0.5 23q0 15 -1.5 28t-1.5 19q0 23 6.5 30.5t20.5 7.5zM170 491q12 -34 -10 -56q-36 -32 -94 -62q-9 -5 -12 4
q-2 5 5 10q28 20 55 50t40 53q4 7 9 7t7 -6z" />
    <glyph glyph-name="Ncommaaccent" unicode="&#x145;" horiz-adv-x="445" 
d="M162 631q18 0 31.5 -10t13.5 -18q0 -207 38 -394.5t84 -187.5q16 0 16 54q0 113 16.5 287t35.5 235q14 44 29 44q12 0 12 -20q0 -5 -3.5 -17.5t-9.5 -33.5t-10 -44q-40 -223 -40 -450q0 -18 1.5 -54t1.5 -37q0 -9 -15 -14.5t-36 -5.5q-32 0 -61.5 56t-52 149t-37.5 180
t-27 180q-6 -35 -13 -94t-13.5 -109t-15.5 -109t-22 -104.5t-30 -85t-41.5 -60.5t-54.5 -21q-36 0 -55.5 9t-19.5 24q0 7 5.5 11t10.5 4q4 0 4 -9q0 -3 9 -8t17 -5q110 0 160 335q29 189 29 293q0 14 12 22t31 8zM225 -77q5 0 12.5 -9.5t7.5 -16.5q0 -28 -50 -107
q-8 -12 -16 -8q-11 3 -4 20q2 6 17 45t18 46q1 4 3 9.5t3 8.5t2.5 6.5t3 4.5t3.5 1z" />
    <glyph glyph-name="ncommaaccent" unicode="&#x146;" horiz-adv-x="254" 
d="M43 276q7 0 13.5 -5.5t6.5 -11.5q0 -1 -3.5 -17.5t-7 -51t-3.5 -77.5q0 -81 14 -81q7 0 13 23q8 30 22.5 94t26 116t11.5 53q2 6 13 7t18 -2q6 -2 14 -12t8 -17q0 -1 -3.5 -32.5t-7.5 -75t-4 -74.5q0 -33 5 -56t11 -32.5t12 -9.5q22 0 45 78q29 97 29 153q0 13 9 13
t9 -13q0 -62 -28.5 -162.5t-64.5 -100.5q-56 0 -57 159v45q0 12 -3 12q-5 0 -13 -27q-16 -59 -38 -156q-8 -28 -29 -28q-32 0 -39 64q-4 34 -4 87q0 12 0.5 30t0.5 23q0 15 -1.5 28t-1.5 19q0 23 6.5 30.5t20.5 7.5zM124 -77q5 0 12.5 -9.5t7.5 -16.5q0 -28 -50 -107
q-8 -12 -16 -8q-11 3 -4 20q2 6 17 45t18 46q1 4 3 9.5t3 8.5t2.5 6.5t3 4.5t3.5 1z" />
    <glyph glyph-name="Ncaron" unicode="&#x147;" horiz-adv-x="445" 
d="M162 631q18 0 31.5 -10t13.5 -18q0 -207 38 -394.5t84 -187.5q16 0 16 54q0 113 16.5 287t35.5 235q14 44 29 44q12 0 12 -20q0 -5 -3.5 -17.5t-9.5 -33.5t-10 -44q-40 -223 -40 -450q0 -18 1.5 -54t1.5 -37q0 -9 -15 -14.5t-36 -5.5q-32 0 -61.5 56t-52 149t-37.5 180
t-27 180q-6 -35 -13 -94t-13.5 -109t-15.5 -109t-22 -104.5t-30 -85t-41.5 -60.5t-54.5 -21q-36 0 -55.5 9t-19.5 24q0 7 5.5 11t10.5 4q4 0 4 -9q0 -3 9 -8t17 -5q110 0 160 335q29 189 29 293q0 14 12 22t31 8zM374 728q-28 -50 -52 -74q-10 -10 -25 -3q-20 10 -43 32.5
t-35 41.5q-5 8 1 11.5t13 -2.5q20 -16 48 -32t37 -16q12 0 43 50q5 8 11.5 4t1.5 -12z" />
    <glyph glyph-name="ncaron" unicode="&#x148;" horiz-adv-x="254" 
d="M43 276q7 0 13.5 -5.5t6.5 -11.5q0 -1 -3.5 -17.5t-7 -51t-3.5 -77.5q0 -81 14 -81q7 0 13 23q8 30 22.5 94t26 116t11.5 53q2 6 13 7t18 -2q6 -2 14 -12t8 -17q0 -1 -3.5 -32.5t-7.5 -75t-4 -74.5q0 -33 5 -56t11 -32.5t12 -9.5q22 0 45 78q29 97 29 153q0 13 9 13
t9 -13q0 -62 -28.5 -162.5t-64.5 -100.5q-56 0 -57 159v45q0 12 -3 12q-5 0 -13 -27q-16 -59 -38 -156q-8 -28 -29 -28q-32 0 -39 64q-4 34 -4 87q0 12 0.5 30t0.5 23q0 15 -1.5 28t-1.5 19q0 23 6.5 30.5t20.5 7.5zM188 464q-28 -50 -52 -74q-10 -10 -25 -3
q-20 10 -43 32.5t-35 41.5q-5 8 1 11.5t13 -2.5q20 -16 48 -32t37 -16q12 0 43 50q5 8 11.5 4t1.5 -12z" />
    <glyph glyph-name="napostrophe" unicode="&#x149;" horiz-adv-x="254" 
d="M43 276q7 0 13.5 -5.5t6.5 -11.5q0 -1 -3.5 -17.5t-7 -51t-3.5 -77.5q0 -81 14 -81q7 0 13 23q8 30 22.5 94t26 116t11.5 53q2 6 13 7t18 -2q6 -2 14 -12t8 -17q0 -1 -3.5 -32.5t-7.5 -75t-4 -74.5q0 -33 5 -56t11 -32.5t12 -9.5q22 0 45 78q29 97 29 153q0 13 9 13
t9 -13q0 -62 -28.5 -162.5t-64.5 -100.5q-56 0 -57 159v45q0 12 -3 12q-5 0 -13 -27q-16 -59 -38 -156q-8 -28 -29 -28q-32 0 -39 64q-4 34 -4 87q0 12 0.5 30t0.5 23q0 15 -1.5 28t-1.5 19q0 23 6.5 30.5t20.5 7.5zM79 495q6 0 13.5 -10t7.5 -19q0 -38 -51 -128
q-10 -17 -21 -9q-10 8 -3 23q22 48 38 106q1 5 3 12l3 10.5t2.5 7.5t3 5.5t4.5 1.5z" />
    <glyph glyph-name="Eng" unicode="&#x14a;" horiz-adv-x="445" 
d="M162 631q18 0 31.5 -10t13.5 -18q0 -207 38 -394.5t84 -187.5q16 0 16 54q0 113 16.5 287t35.5 235q14 44 29 44q12 0 12 -20q0 -5 -3.5 -17.5t-9.5 -33.5t-10 -44q-39 -219 -40 -428q0 -4 2.5 -84.5t2.5 -125.5q0 -26 -0.5 -41.5t-5 -36.5t-12 -33t-23 -20.5t-37.5 -8.5
q-53 0 -110.5 26t-91 56.5t-33.5 47.5q0 20 16 20q20 0 35 -19q71 -91 134 -91q48 0 68 35t24 143q-2 0 -8 -0.5t-9 -0.5q-32 0 -61.5 56t-52 149t-37.5 180t-27 180q-6 -35 -13 -94t-13.5 -109t-15.5 -109t-22 -104.5t-30 -85t-41.5 -60.5t-54.5 -21q-36 0 -55.5 9
t-19.5 24q0 7 5.5 11t10.5 4q4 0 4 -9q0 -3 9 -8t17 -5q110 0 160 335q29 189 29 293q0 14 12 22t31 8z" />
    <glyph glyph-name="eng" unicode="&#x14b;" horiz-adv-x="242" 
d="M43 276q7 0 13.5 -5.5t6.5 -11.5q0 -1 -3.5 -17.5t-7 -51t-3.5 -77.5q0 -81 14 -81q7 0 13 23q8 30 22.5 94t26 116t11.5 53q2 6 13 7t18 -2q6 -2 14 -12t8 -17q0 -1 -1.5 -14.5t-3.5 -35t-4.5 -48t-4 -60.5t-1.5 -66v-2q0 -81 4 -133q23 4 48 4q43 0 63 -12.5t20 -29.5
q0 -6 -3.5 -10t-6.5 -4q-6 0 -10 10q-10 23 -64 23q-18 0 -46 -5q8 -112 8 -135q0 -149 -129 -149q-56 0 -110 35t-54 88q0 54 80.5 105t175.5 74q-6 100 -6 157v100q0 12 -3 12q-5 0 -13 -27q-16 -59 -38 -156q-8 -28 -29 -28q-32 0 -39 64q-4 34 -4 87q0 12 0.5 30t0.5 23
q0 15 -1.5 28t-1.5 19q0 23 6.5 30.5t20.5 7.5zM158 -206q0 15 -7 111q-86 -21 -157.5 -67t-71.5 -96q0 -42 48.5 -68t91.5 -26q96 0 96 146z" />
    <glyph glyph-name="Omacron" unicode="&#x14c;" horiz-adv-x="442" 
d="M178 640q129 0 181.5 -63.5t52.5 -205.5q0 -117 -20.5 -206t-69.5 -146.5t-122 -57.5q-32 0 -61 13t-57 42t-45 85.5t-17 133.5q0 87 28 184t65 159t65 62zM235 611q-41 0 -80 -69.5t-61.5 -166.5t-22.5 -182q0 -114 34.5 -157.5t94.5 -43.5q84 0 130 93.5t46 275.5
q0 106 -34.5 178t-106.5 72zM193 680q0 16 27 23q15 4 42.5 6t39.5 4q20 3 34 8q8 3 8 -6q0 -17 -20 -27q-8 -4 -22.5 -6t-39.5 -3t-30 -1q-20 -2 -32 -7q-4 -1 -5.5 1.5t-1.5 7.5z" />
    <glyph glyph-name="omacron" unicode="&#x14d;" horiz-adv-x="233" 
d="M67 350q12 0 40 -16.5t37 -27.5q21 -27 21 -126q0 -10 -2 -34q13 -11 28 -11q28 0 46 36t18 74q0 13 9 13t9 -13q0 -23 -8 -53t-26.5 -56t-41.5 -26q-19 0 -37 9q-9 -62 -30 -105.5t-54 -43.5q-31 0 -49.5 40.5t-18.5 112.5q0 54 12 123t24 92q6 12 23 12zM92 315
q-17 0 -34 -65.5t-17 -137.5q0 -43 7.5 -70.5t15 -35.5t14.5 -8q20 0 38 48t18 102q-15 31 -15 97q0 5 1 18t1 23q0 12 -10.5 20.5t-18.5 8.5zM38 401q0 15 27 23q15 4 42.5 6t39.5 4q20 3 34 8q8 3 8 -6q0 -17 -20 -27q-8 -4 -22.5 -6t-39.5 -3t-30 -1q-20 -2 -32 -7
q-4 -1 -5.5 1.5t-1.5 7.5z" />
    <glyph glyph-name="Obreve" unicode="&#x14e;" horiz-adv-x="442" 
d="M178 640q129 0 181.5 -63.5t52.5 -205.5q0 -117 -20.5 -206t-69.5 -146.5t-122 -57.5q-32 0 -61 13t-57 42t-45 85.5t-17 133.5q0 87 28 184t65 159t65 62zM235 611q-41 0 -80 -69.5t-61.5 -166.5t-22.5 -182q0 -114 34.5 -157.5t94.5 -43.5q84 0 130 93.5t46 275.5
q0 106 -34.5 178t-106.5 72zM352 727q-42 -48 -85 -48q-51 0 -78 27q-9 8 2 19q14 14 24 6q33 -27 60 -27q34 0 67 33q6 6 10.5 1t-0.5 -11z" />
    <glyph glyph-name="obreve" unicode="&#x14f;" horiz-adv-x="233" 
d="M67 350q12 0 40 -16.5t37 -27.5q21 -27 21 -126q0 -10 -2 -34q13 -11 28 -11q28 0 46 36t18 74q0 13 9 13t9 -13q0 -23 -8 -53t-26.5 -56t-41.5 -26q-19 0 -37 9q-9 -62 -30 -105.5t-54 -43.5q-31 0 -49.5 40.5t-18.5 112.5q0 54 12 123t24 92q6 12 23 12zM92 315
q-17 0 -34 -65.5t-17 -137.5q0 -43 7.5 -70.5t15 -35.5t14.5 -8q20 0 38 48t18 102q-15 31 -15 97q0 5 1 18t1 23q0 12 -10.5 20.5t-18.5 8.5zM196 431q-42 -48 -85 -48q-51 0 -78 27q-9 8 2 19q14 14 24 6q33 -27 60 -27q34 0 67 33q6 6 10.5 1t-0.5 -11z" />
    <glyph glyph-name="Ohungarumlaut" unicode="&#x150;" horiz-adv-x="442" 
d="M178 640q129 0 181.5 -63.5t52.5 -205.5q0 -117 -20.5 -206t-69.5 -146.5t-122 -57.5q-32 0 -61 13t-57 42t-45 85.5t-17 133.5q0 87 28 184t65 159t65 62zM235 611q-41 0 -80 -69.5t-61.5 -166.5t-22.5 -182q0 -114 34.5 -157.5t94.5 -43.5q84 0 130 93.5t46 275.5
q0 106 -34.5 178t-106.5 72zM280 787q5 0 11 -8.5t7 -15.5q0 -9 -6 -25t-13 -28t-17.5 -30.5t-11.5 -20.5q-3 -5 -7.5 -6t-6.5 2t0 9q23 57 31 91q1 3 1.5 7.5t1 7t1.5 5.5t2 5t2 3.5t2 2.5t3 1zM342 804q5 0 11 -8.5t7 -15.5q1 -30 -49 -105q-6 -9 -11 -6t-2 12
q18 45 31 91q1 4 2 8.5t1.5 7.5t1.5 6.5t2 5.5t2.5 3t3.5 1z" />
    <glyph glyph-name="ohungarumlaut" unicode="&#x151;" horiz-adv-x="233" 
d="M67 350q12 0 40 -16.5t37 -27.5q21 -27 21 -126q0 -10 -2 -34q13 -11 28 -11q28 0 46 36t18 74q0 13 9 13t9 -13q0 -23 -8 -53t-26.5 -56t-41.5 -26q-19 0 -37 9q-9 -62 -30 -105.5t-54 -43.5q-31 0 -49.5 40.5t-18.5 112.5q0 54 12 123t24 92q6 12 23 12zM92 315
q-17 0 -34 -65.5t-17 -137.5q0 -43 7.5 -70.5t15 -35.5t14.5 -8q20 0 38 48t18 102q-15 31 -15 97q0 5 1 18t1 23q0 12 -10.5 20.5t-18.5 8.5zM99 509q5 0 11 -8.5t7 -15.5q0 -9 -6 -25t-13 -28t-17.5 -30.5t-11.5 -20.5q-3 -5 -7.5 -6t-6.5 2t0 9q23 57 31 91q1 3 1.5 7.5
t1 7t1.5 5.5t2 5t2 3.5t2 2.5t3 1zM161 526q5 0 11 -8.5t7 -15.5q1 -30 -49 -105q-6 -9 -11 -6t-2 12q18 45 31 91q1 4 2 8.5t1.5 7.5t1.5 6.5t2 5.5t2.5 3t3.5 1z" />
    <glyph glyph-name="OE" unicode="&#x152;" horiz-adv-x="814" 
d="M178 640q127 0 181 -64q18 2 30 4q231 31 326 31q40 0 61 -2t26.5 -5t5.5 -8q0 -7 -76 -7q-44 0 -155.5 -12.5t-197.5 -29.5q33 -62 33 -176q0 -9 -0.5 -25.5t-0.5 -24.5l195 12q80 3 80 -10q0 -5 -46.5 -14.5t-114 -17.5t-117.5 -9q-7 -80 -21 -132q0 -5 1 -7
q11 -76 44 -106.5t98 -30.5q138 0 229 61q14 9 14 20q0 12 7 12q6 0 14 -6.5t8 -14.5q0 -18 -36.5 -44.5t-103.5 -47.5t-136 -21q-75 0 -106 26t-51 107q-54 -137 -169 -137q-32 0 -61 13t-57 42t-45 85.5t-17 133.5q0 87 28 184t65 159t65 62zM329 291q0 1 -17 8
q-14 7 12 12q17 4 51 7q1 14 1 43q0 110 -34 177q-26 -6 -45 -12q-10 -3 -17.5 -11t-11.5 -8q-7 0 -18 13t-11 22q0 15 82 28q-36 41 -86 41q-41 0 -80 -69.5t-61.5 -166.5t-22.5 -182q0 -114 34.5 -157.5t94.5 -43.5q74 0 118.5 73t54.5 217q-44 0 -44 9z" />
    <glyph glyph-name="oe" unicode="&#x153;" horiz-adv-x="303" 
d="M209 344q18 0 38 -16.5t20 -40.5q0 -37 -28.5 -91t-68.5 -76q2 -54 20.5 -81t38.5 -27q39 0 67.5 77t28.5 156q0 13 9 13t9 -13q0 -30 -9.5 -86t-28.5 -103q-27 -71 -74 -71q-60 0 -83 70q-22 -72 -61 -72q-34 0 -56 38.5t-22 119.5q0 80 20.5 152.5t50.5 72.5
q5 0 22 -11.5t25 -13.5q21 -7 32 -75q24 78 50 78zM103 326q-23 0 -41.5 -65t-18.5 -144q0 -46 12.5 -72.5t27.5 -26.5q11 0 23 15t22.5 54t10.5 94t-8.5 100t-27.5 45zM221 311q-4 0 -15 -23t-22.5 -63t-13.5 -77q29 21 50 60t21 75q0 10 -7 19t-13 9z" />
    <glyph glyph-name="Racute" unicode="&#x154;" horiz-adv-x="543" 
d="M353 619q83 0 135.5 -33.5t52.5 -83.5q0 -53 -59.5 -106t-134 -88t-161.5 -63q41 -87 124.5 -160.5t143.5 -73.5q13 0 25 4.5t14 4.5q5 0 5 -4q0 -2 -8.5 -9t-21.5 -13t-22 -6q-66 0 -151.5 66.5t-167.5 173.5l-18 -4q-6 -88 -6 -134q0 -30 1.5 -53t3.5 -35t4.5 -19
t4 -10.5t1.5 -4.5q0 -9 -19 -9q-22 0 -28 24.5t-6 107.5q0 9 2.5 78t5 171t3.5 183q-125 -46 -125 -65q0 -2 2 -3.5t2 -4.5q0 -5 -7 -5q-15 0 -15 20q0 41 144 94v43q0 18 8 18q21 0 32 -8.5t14 -33.5q130 41 222 41zM131 541q-1 -23 -8.5 -124t-10.5 -153q46 6 107.5 26.5
t122.5 51.5t103 76t42 91q0 40 -29.5 59t-92.5 19q-83 0 -234 -46zM334 757q12 -34 -10 -56q-36 -32 -94 -62q-9 -5 -12 4q-2 5 5 10q28 20 55 50t40 53q4 7 9 7t7 -6z" />
    <glyph glyph-name="racute" unicode="&#x155;" horiz-adv-x="201" 
d="M28 405q24 0 24 -45q0 -20 -3 -50q13 -13 36 -22q26 -10 37 -22.5t11 -33.5q0 -6 -7 -71.5t-7 -84.5q0 -73 24 -73q23 0 51.5 91.5t28.5 150.5q0 13 9 13t9 -13q0 -55 -28 -159.5t-67 -104.5q-57 0 -57 126q0 14 2.5 63.5t2.5 64.5q0 14 -7.5 22t-29.5 20l-10 6
q-22 -224 -46 -303q-7 -24 -18 -24q-10 0 -10 14q0 2 2.5 10t6 19t5.5 19q8 35 27 173q5 39 11 115q-16 22 -16 52q0 47 19 47zM190 478q12 -34 -10 -56q-36 -32 -94 -62q-9 -5 -12 4q-2 5 5 10q28 20 55 50t40 53q4 7 9 7t7 -6z" />
    <glyph glyph-name="Rcommaaccent" unicode="&#x156;" horiz-adv-x="543" 
d="M353 619q83 0 135.5 -33.5t52.5 -83.5q0 -53 -59.5 -106t-134 -88t-161.5 -63q41 -87 124.5 -160.5t143.5 -73.5q13 0 25 4.5t14 4.5q5 0 5 -4q0 -2 -8.5 -9t-21.5 -13t-22 -6q-66 0 -151.5 66.5t-167.5 173.5l-18 -4q-6 -88 -6 -134q0 -30 1.5 -53t3.5 -35t4.5 -19
t4 -10.5t1.5 -4.5q0 -9 -19 -9q-22 0 -28 24.5t-6 107.5q0 9 2.5 78t5 171t3.5 183q-125 -46 -125 -65q0 -2 2 -3.5t2 -4.5q0 -5 -7 -5q-15 0 -15 20q0 41 144 94v43q0 18 8 18q21 0 32 -8.5t14 -33.5q130 41 222 41zM131 541q-1 -23 -8.5 -124t-10.5 -153q46 6 107.5 26.5
t122.5 51.5t103 76t42 91q0 40 -29.5 59t-92.5 19q-83 0 -234 -46zM255 -77q5 0 12.5 -9.5t7.5 -16.5q0 -28 -50 -107q-8 -12 -16 -8q-11 3 -4 20q2 6 17 45t18 46q1 4 3 9.5t3 8.5t2.5 6.5t3 4.5t3.5 1z" />
    <glyph glyph-name="rcommaaccent" unicode="&#x157;" horiz-adv-x="201" 
d="M28 405q24 0 24 -45q0 -20 -3 -50q13 -13 36 -22q26 -10 37 -22.5t11 -33.5q0 -6 -7 -71.5t-7 -84.5q0 -73 24 -73q23 0 51.5 91.5t28.5 150.5q0 13 9 13t9 -13q0 -55 -28 -159.5t-67 -104.5q-57 0 -57 126q0 14 2.5 63.5t2.5 64.5q0 14 -7.5 22t-29.5 20l-10 6
q-22 -224 -46 -303q-7 -24 -18 -24q-10 0 -10 14q0 2 2.5 10t6 19t5.5 19q8 35 27 173q5 39 11 115q-16 22 -16 52q0 47 19 47zM72 -77q5 0 12.5 -9.5t7.5 -16.5q0 -28 -50 -107q-8 -12 -16 -8q-11 3 -4 20q2 6 17 45t18 46q1 4 3 9.5t3 8.5t2.5 6.5t3 4.5t3.5 1z" />
    <glyph glyph-name="Rcaron" unicode="&#x158;" horiz-adv-x="543" 
d="M353 619q83 0 135.5 -33.5t52.5 -83.5q0 -53 -59.5 -106t-134 -88t-161.5 -63q41 -87 124.5 -160.5t143.5 -73.5q13 0 25 4.5t14 4.5q5 0 5 -4q0 -2 -8.5 -9t-21.5 -13t-22 -6q-66 0 -151.5 66.5t-167.5 173.5l-18 -4q-6 -88 -6 -134q0 -30 1.5 -53t3.5 -35t4.5 -19
t4 -10.5t1.5 -4.5q0 -9 -19 -9q-22 0 -28 24.5t-6 107.5q0 9 2.5 78t5 171t3.5 183q-125 -46 -125 -65q0 -2 2 -3.5t2 -4.5q0 -5 -7 -5q-15 0 -15 20q0 41 144 94v43q0 18 8 18q21 0 32 -8.5t14 -33.5q130 41 222 41zM131 541q-1 -23 -8.5 -124t-10.5 -153q46 6 107.5 26.5
t122.5 51.5t103 76t42 91q0 40 -29.5 59t-92.5 19q-83 0 -234 -46zM332 729q-28 -50 -52 -74q-10 -10 -25 -3q-20 10 -43 32.5t-35 41.5q-5 8 1 11.5t13 -2.5q20 -16 48 -32t37 -16q12 0 43 50q5 8 11.5 4t1.5 -12z" />
    <glyph glyph-name="rcaron" unicode="&#x159;" horiz-adv-x="201" 
d="M28 405q24 0 24 -45q0 -20 -3 -50q13 -13 36 -22q26 -10 37 -22.5t11 -33.5q0 -6 -7 -71.5t-7 -84.5q0 -73 24 -73q23 0 51.5 91.5t28.5 150.5q0 13 9 13t9 -13q0 -55 -28 -159.5t-67 -104.5q-57 0 -57 126q0 14 2.5 63.5t2.5 64.5q0 14 -7.5 22t-29.5 20l-10 6
q-22 -224 -46 -303q-7 -24 -18 -24q-10 0 -10 14q0 2 2.5 10t6 19t5.5 19q8 35 27 173q5 39 11 115q-16 22 -16 52q0 47 19 47zM180 461q-28 -50 -52 -74q-10 -10 -25 -3q-20 10 -43 32.5t-35 41.5q-5 8 1 11.5t13 -2.5q20 -16 48 -32t37 -16q12 0 43 50q5 8 11.5 4t1.5 -12
z" />
    <glyph glyph-name="Sacute" unicode="&#x15a;" horiz-adv-x="438" 
d="M196 635q21 0 55 -15t55 -31q54 -41 54 -182q0 -93 -23 -93q-25 0 -25 64q0 80 -12 133q-22 92 -79 92q-30 0 -64 -55.5t-55 -120t-21 -98.5q0 -35 7.5 -57.5t30 -39.5t43 -26.5t67.5 -26.5q32 -12 42 -15.5t37 -15t37 -19.5t26 -21t21.5 -27t5.5 -31q0 -35 -39.5 -60.5
t-101.5 -25.5q-83 0 -178 26.5t-95 55.5q0 4 4 9.5t8 5.5q3 0 4 -5t4 -7q23 -19 99.5 -34.5t142.5 -15.5q102 0 102 63q0 16 -10.5 28.5t-38 25.5t-43 19t-57.5 20q-32 11 -51 18.5t-45 21.5t-40.5 28t-25 36t-10.5 48q0 44 22 119.5t63 142t84 66.5zM357 767
q12 -34 -10 -56q-36 -32 -94 -62q-9 -5 -12 4q-2 5 5 10q28 20 55 50t40 53q4 7 9 7t7 -6z" />
    <glyph glyph-name="sacute" unicode="&#x15b;" horiz-adv-x="154" 
d="M48 351q6 0 18.5 -8.5t12.5 -13.5q0 -1 -3 -17t-3 -31q0 -39 24 -118.5t24 -107.5q0 -30 -18 -59t-41 -29q-18 0 -38.5 10.5t-30.5 24.5q-15 -47 -28 -47q-15 0 -7 20q37 90 67 285q3 20 3 70q0 6 7 13.5t13 7.5zM45 232q-18 -94 -45 -202q8 -1 8 -10q0 -8 13.5 -17
t27.5 -9q38 0 38 65q0 38 -25 117q-12 36 -17 56zM127 491q12 -34 -10 -56q-36 -32 -94 -62q-9 -5 -12 4q-2 5 5 10q28 20 55 50t40 53q4 7 9 7t7 -6z" />
    <glyph glyph-name="Scircumflex" unicode="&#x15c;" horiz-adv-x="438" 
d="M196 635q21 0 55 -15t55 -31q54 -41 54 -182q0 -93 -23 -93q-25 0 -25 64q0 80 -12 133q-22 92 -79 92q-30 0 -64 -55.5t-55 -120t-21 -98.5q0 -35 7.5 -57.5t30 -39.5t43 -26.5t67.5 -26.5q32 -12 42 -15.5t37 -15t37 -19.5t26 -21t21.5 -27t5.5 -31q0 -35 -39.5 -60.5
t-101.5 -25.5q-83 0 -178 26.5t-95 55.5q0 4 4 9.5t8 5.5q3 0 4 -5t4 -7q23 -19 99.5 -34.5t142.5 -15.5q102 0 102 63q0 16 -10.5 28.5t-38 25.5t-43 19t-57.5 20q-32 11 -51 18.5t-45 21.5t-40.5 28t-25 36t-10.5 48q0 44 22 119.5t63 142t84 66.5zM201 681q28 34 35 70
q2 9 15 13.5t18 -3.5q28 -51 62 -76q8 -6 1 -11q-4 -4 -10 -1q-38 21 -72 49q-16 -26 -36 -51q-3 -5 -8 -4t-6.5 5t1.5 9z" />
    <glyph glyph-name="scircumflex" unicode="&#x15d;" horiz-adv-x="154" 
d="M48 351q6 0 18.5 -8.5t12.5 -13.5q0 -1 -3 -17t-3 -31q0 -39 24 -118.5t24 -107.5q0 -30 -18 -59t-41 -29q-18 0 -38.5 10.5t-30.5 24.5q-15 -47 -28 -47q-15 0 -7 20q37 90 67 285q3 20 3 70q0 6 7 13.5t13 7.5zM45 232q-18 -94 -45 -202q8 -1 8 -10q0 -8 13.5 -17
t27.5 -9q38 0 38 65q0 38 -25 117q-12 36 -17 56zM6 388q28 34 35 70q2 9 15 13.5t18 -3.5q28 -51 62 -76q8 -6 1 -11q-4 -4 -10 -1q-38 22 -72 49q-16 -26 -36 -51q-3 -5 -8 -4t-6.5 5t1.5 9z" />
    <glyph glyph-name="Scedilla" unicode="&#x15e;" horiz-adv-x="438" 
d="M196 635q21 0 55 -15t55 -31q54 -41 54 -182q0 -93 -23 -93q-25 0 -25 64q0 80 -12 133q-22 92 -79 92q-30 0 -64 -55.5t-55 -120t-21 -98.5q0 -35 7.5 -57.5t30 -39.5t43 -26.5t67.5 -26.5q32 -12 42 -15.5t37 -15t37 -19.5t26 -21t21.5 -27t5.5 -31q0 -35 -39.5 -60.5
t-101.5 -25.5q-83 0 -178 26.5t-95 55.5q0 4 4 9.5t8 5.5q3 0 4 -5t4 -7q23 -19 99.5 -34.5t142.5 -15.5q102 0 102 63q0 16 -10.5 28.5t-38 25.5t-43 19t-57.5 20q-32 11 -51 18.5t-45 21.5t-40.5 28t-25 36t-10.5 48q0 44 22 119.5t63 142t84 66.5zM245 -143
q0 20 -15.5 34t-38.5 17q-12 2 5 17.5t29 12.5q19 -5 33.5 -22.5t14.5 -43.5q0 -35 -21.5 -60.5t-49.5 -36.5q-8 -4 -11.5 2.5t4.5 11.5q50 30 50 68z" />
    <glyph glyph-name="scedilla" unicode="&#x15f;" horiz-adv-x="154" 
d="M48 351q6 0 18.5 -8.5t12.5 -13.5q0 -1 -3 -17t-3 -31q0 -39 24 -118.5t24 -107.5q0 -30 -18 -59t-41 -29q-18 0 -38.5 10.5t-30.5 24.5q-15 -47 -28 -47q-15 0 -7 20q37 90 67 285q3 20 3 70q0 6 7 13.5t13 7.5zM45 232q-18 -94 -45 -202q8 -1 8 -10q0 -8 13.5 -17
t27.5 -9q38 0 38 65q0 38 -25 117q-12 36 -17 56zM73 -136q0 20 -15.5 34t-38.5 17q-12 2 5 17.5t29 12.5q19 -5 33.5 -22.5t14.5 -43.5q0 -35 -21.5 -60.5t-49.5 -36.5q-8 -4 -11.5 2.5t4.5 11.5q50 30 50 68z" />
    <glyph glyph-name="Scaron" unicode="&#x160;" horiz-adv-x="438" 
d="M196 635q21 0 55 -15t55 -31q54 -41 54 -182q0 -93 -23 -93q-25 0 -25 64q0 80 -12 133q-22 92 -79 92q-30 0 -64 -55.5t-55 -120t-21 -98.5q0 -35 7.5 -57.5t30 -39.5t43 -26.5t67.5 -26.5q32 -12 42 -15.5t37 -15t37 -19.5t26 -21t21.5 -27t5.5 -31q0 -35 -39.5 -60.5
t-101.5 -25.5q-83 0 -178 26.5t-95 55.5q0 4 4 9.5t8 5.5q3 0 4 -5t4 -7q23 -19 99.5 -34.5t142.5 -15.5q102 0 102 63q0 16 -10.5 28.5t-38 25.5t-43 19t-57.5 20q-32 11 -51 18.5t-45 21.5t-40.5 28t-25 36t-10.5 48q0 44 22 119.5t63 142t84 66.5zM317 743
q-28 -50 -52 -74q-10 -10 -25 -3q-20 10 -43 32.5t-35 41.5q-5 8 1 11.5t13 -2.5q20 -16 48 -32t37 -16q12 0 43 50q5 8 11.5 4t1.5 -12z" />
    <glyph glyph-name="scaron" unicode="&#x161;" horiz-adv-x="154" 
d="M48 351q6 0 18.5 -8.5t12.5 -13.5q0 -1 -3 -17t-3 -31q0 -39 24 -118.5t24 -107.5q0 -30 -18 -59t-41 -29q-18 0 -38.5 10.5t-30.5 24.5q-15 -47 -28 -47q-15 0 -7 20q37 90 67 285q3 20 3 70q0 6 7 13.5t13 7.5zM45 232q-18 -94 -45 -202q8 -1 8 -10q0 -8 13.5 -17
t27.5 -9q38 0 38 65q0 38 -25 117q-12 36 -17 56zM139 464q-28 -50 -52 -74q-10 -10 -25 -3q-20 10 -43 32.5t-35 41.5q-5 8 1 11.5t13 -2.5q20 -16 48 -32t37 -16q12 0 43 50q5 8 11.5 4t1.5 -12z" />
    <glyph glyph-name="Tcommaaccent" unicode="&#x162;" horiz-adv-x="563" 
d="M604 603q38 0 38 -16q0 -7 -11.5 -11t-21.5 -4q-58 0 -246 -13q-20 -53 -38 -231.5t-18 -302.5q0 -15 2 -24.5t4 -14t2 -5.5q0 -11 -11 -11q-39 0 -39 78q0 40 11.5 206t12.5 300q-144 -11 -226 -24q-85 -13 -85 -41q0 -13 18.5 -22t53.5 -9q57 0 101 7t65.5 14t23.5 7
t2 -7q0 -10 -24.5 -22t-69 -20.5t-93.5 -8.5q-56 0 -81.5 18.5t-25.5 68.5q0 18 16 28.5t55 17.5q112 19 311.5 30.5t273.5 11.5zM297 -77q5 0 12.5 -9.5t7.5 -16.5q0 -28 -50 -107q-8 -12 -16 -8q-11 3 -4 20q2 6 17 45t18 46q1 4 3 9.5t3 8.5t2.5 6.5t3 4.5t3.5 1z" />
    <glyph glyph-name="tcommaaccent" unicode="&#x163;" horiz-adv-x="134" 
d="M-91 408h125q7 80 7 86t-1.5 16t-1.5 12q0 9 12 9q8 0 24 -9q12 -7 12 -25q0 -3 -2 -13.5t-6 -33.5t-7 -42h162q68 0 68 -5q0 -6 -19 -11q-27 -6 -65 -9q-43 -4 -150 -4q-21 -130 -21 -226q0 -80 7.5 -114t25.5 -34q20 0 48.5 86t28.5 154q0 13 9 13t9 -14
q0 -64 -30.5 -167.5t-67.5 -103.5q-30 0 -46.5 46t-16.5 123q0 28 18 237q-18 0 -45.5 0.5t-34.5 0.5q-9 0 -22 -2.5t-14 -2.5q-2 0 -4.5 2t-5.5 5t-5 4q-1 1 -4.5 2.5t-5.5 2.5t-4 3.5t-2 5.5q0 8 25 8zM48 -77q5 0 12.5 -9.5t7.5 -16.5q0 -28 -50 -107q-8 -12 -16 -8
q-11 3 -4 20q2 6 17 45t18 46q1 4 3 9.5t3 8.5t2.5 6.5t3 4.5t3.5 1z" />
    <glyph glyph-name="Tcaron" unicode="&#x164;" horiz-adv-x="563" 
d="M604 603q38 0 38 -16q0 -7 -11.5 -11t-21.5 -4q-58 0 -246 -13q-20 -53 -38 -231.5t-18 -302.5q0 -15 2 -24.5t4 -14t2 -5.5q0 -11 -11 -11q-39 0 -39 78q0 40 11.5 206t12.5 300q-144 -11 -226 -24q-85 -13 -85 -41q0 -13 18.5 -22t53.5 -9q57 0 101 7t65.5 14t23.5 7
t2 -7q0 -10 -24.5 -22t-69 -20.5t-93.5 -8.5q-56 0 -81.5 18.5t-25.5 68.5q0 18 16 28.5t55 17.5q112 19 311.5 30.5t273.5 11.5zM406 717q-28 -50 -52 -74q-10 -10 -25 -3q-20 10 -43 32.5t-35 41.5q-5 8 1 11.5t13 -2.5q20 -16 48 -32t37 -16q12 0 43 50q5 8 11.5 4
t1.5 -12z" />
    <glyph glyph-name="tcaron" unicode="&#x165;" horiz-adv-x="143" 
d="M-91 408h125q7 80 7 86t-1.5 16t-1.5 12q0 9 12 9q8 0 24 -9q12 -7 12 -25q0 -3 -2 -13.5t-6 -33.5t-7 -42h162q68 0 68 -5q0 -6 -19 -11q-27 -6 -65 -9q-43 -4 -150 -4q-21 -130 -21 -226q0 -80 7.5 -114t25.5 -34q20 0 48.5 86t28.5 154q0 13 9 13t9 -14
q0 -64 -30.5 -167.5t-67.5 -103.5q-30 0 -46.5 46t-16.5 123q0 28 18 237q-18 0 -45.5 0.5t-34.5 0.5q-9 0 -22 -2.5t-14 -2.5q-2 0 -4.5 2t-5.5 5t-5 4q-1 1 -4.5 2.5t-5.5 2.5t-4 3.5t-2 5.5q0 8 25 8zM167 645q6 0 13.5 -10t7.5 -19q0 -38 -51 -128q-10 -17 -21 -9
q-10 8 -3 23q22 48 38 106q1 5 3 12l3 10.5t2.5 7.5t3 5.5t4.5 1.5z" />
    <glyph glyph-name="Tbar" unicode="&#x166;" horiz-adv-x="563" 
d="M125 248q0 14 60 22q32 3 93 5q10 125 11 279q-144 -11 -226 -24q-85 -13 -85 -41q0 -13 18.5 -22t53.5 -9q57 0 101 7t65.5 14t23.5 7t2 -7q0 -10 -24.5 -22t-69 -20.5t-93.5 -8.5q-56 0 -81.5 18.5t-25.5 68.5q0 18 16 28.5t55 17.5q112 19 311.5 30.5t273.5 11.5
q38 0 38 -16q0 -7 -11.5 -11t-21.5 -4q-58 0 -246 -13q-23 -61 -43 -283l46 3q56 4 75 7q17 3 17 -5q0 -16 -44 -25q-25 -6 -97 -8q-10 -137 -10 -223q0 -15 2 -24.5t4 -14t2 -5.5q0 -11 -11 -11q-39 0 -39 78q0 50 11 199q-23 -1 -65 -1q-40 0 -70 -6q-16 -3 -16 8z" />
    <glyph glyph-name="tbar" unicode="&#x167;" horiz-adv-x="134" 
d="M-53 178q0 14 32 20q15 2 37 4l15 177q-18 0 -45.5 0.5t-34.5 0.5q-9 0 -22 -2.5t-14 -2.5q-2 0 -4.5 2t-5.5 5t-5 4q-1 1 -4.5 2.5t-5.5 2.5t-4 3.5t-2 5.5q0 8 25 8h125q7 80 7 86t-1.5 16t-1.5 12q0 9 12 9q8 0 24 -9q12 -7 12 -25q0 -3 -2 -13.5t-6 -33.5t-7 -42h162
q68 0 68 -5q0 -6 -19 -11q-27 -6 -65 -9q-43 -4 -150 -4q-16 -93 -20 -175q14 0 29 3q23 2 40 7q10 1 10 -6q0 -14 -24 -23q-12 -5 -56 -7v-25q0 -80 7.5 -114t25.5 -34q20 0 48.5 86t28.5 154q0 13 9 13t9 -14q0 -64 -30.5 -167.5t-67.5 -103.5q-30 0 -46.5 46t-16.5 123
q0 18 1 35q-4 0 -11 -0.5t-10 -0.5q-27 -2 -38 -6q-4 -1 -6 1.5t-2 6.5z" />
    <glyph glyph-name="Utilde" unicode="&#x168;" horiz-adv-x="472" 
d="M152 624q14 0 29 -10.5t15 -21.5q0 -3 -2.5 -6t-7 -7.5t-7.5 -8.5q-33 -47 -60 -163t-27 -220q0 -89 28.5 -135.5t79.5 -46.5q44 0 88 76t70.5 188.5t26.5 215.5q0 25 -1.5 44.5t-3.5 28.5t-2 11q0 12 18 12q12 0 36 -13t24 -18l-4 -10q-4 -10 -10.5 -30t-10.5 -41
q-13 -60 -23 -170.5t-10 -180.5q0 -30 1 -54t3 -39.5t4 -27.5t4.5 -18t4.5 -10t4 -5.5t3 -2.5t1 -2q0 -9 -17 -9q-47 0 -47 170q0 38 1 60q-23 -84 -64 -141.5t-98 -57.5q-72 0 -111 61t-39 173q0 48 9.5 121.5t20.5 120.5q-55 -55 -106 -55q-16 0 -32 7.5t-16 13.5
q0 3 4.5 3.5t12.5 -1t12 -1.5q39 0 89 46t82 107q3 6 10 21t10.5 20.5t7.5 5.5zM236 632q14 28 34 44q16 13 56.5 -2t57.5 -1q3 3 10 11q6 9 11 2q4 -3 1 -10q-8 -15 -21 -27q-16 -15 -35 -15t-33 7.5t-28.5 10t-22.5 -5.5q-7 -7 -16 -23q-3 -6 -8 -6t-6.5 4.5t0.5 10.5z
" />
    <glyph glyph-name="utilde" unicode="&#x169;" horiz-adv-x="249" 
d="M36 286q11 0 20.5 -6t9.5 -13q0 -6 -6 -30q-16 -64 -16 -157q0 -53 4.5 -69t16.5 -16q15 0 33.5 38t34 115t15.5 167q0 12 23 12q7 0 14.5 -8.5t7.5 -12.5q0 -2 -4 -10.5t-5 -14.5q-3 -16 -10 -75t-7 -82q0 -103 31 -103q20 0 46.5 78t26.5 146q0 13 9 13t9 -13
q0 -43 -17 -114.5t-43 -113.5q-15 -23 -35 -23q-47 0 -53 108q-28 -129 -75 -129q-30 0 -41.5 26.5t-11.5 81.5q0 14 4.5 101t4.5 90q0 14 14 14zM34 376q14 28 34 44q16 13 56.5 -2t57.5 -1q3 3 10 11q3 4 7 4t5.5 -3.5t-0.5 -8.5q-8 -15 -21 -27q-16 -15 -35 -15t-33 7.5
t-28.5 10t-22.5 -5.5q-7 -7 -16 -23q-3 -6 -8 -6t-6.5 4.5t0.5 10.5z" />
    <glyph glyph-name="Umacron" unicode="&#x16a;" horiz-adv-x="472" 
d="M152 624q14 0 29 -10.5t15 -21.5q0 -3 -2.5 -6t-7 -7.5t-7.5 -8.5q-33 -47 -60 -163t-27 -220q0 -89 28.5 -135.5t79.5 -46.5q44 0 88 76t70.5 188.5t26.5 215.5q0 25 -1.5 44.5t-3.5 28.5t-2 11q0 12 18 12q12 0 36 -13t24 -18l-4 -10q-4 -10 -10.5 -30t-10.5 -41
q-13 -60 -23 -170.5t-10 -180.5q0 -30 1 -54t3 -39.5t4 -27.5t4.5 -18t4.5 -10t4 -5.5t3 -2.5t1 -2q0 -9 -17 -9q-47 0 -47 170q0 38 1 60q-23 -84 -64 -141.5t-98 -57.5q-72 0 -111 61t-39 173q0 48 9.5 121.5t20.5 120.5q-55 -55 -106 -55q-16 0 -32 7.5t-16 13.5
q0 3 4.5 3.5t12.5 -1t12 -1.5q39 0 89 46t82 107q3 6 10 21t10.5 20.5t7.5 5.5zM242 632q0 16 27 23q15 4 42.5 6t39.5 4q20 3 34 8q8 3 8 -6q0 -17 -20 -27q-8 -4 -22.5 -6t-39.5 -3t-30 -1q-20 -2 -32 -7q-4 -1 -5.5 1.5t-1.5 7.5z" />
    <glyph glyph-name="umacron" unicode="&#x16b;" horiz-adv-x="249" 
d="M36 286q11 0 20.5 -6t9.5 -13q0 -6 -6 -30q-16 -64 -16 -157q0 -53 4.5 -69t16.5 -16q15 0 33.5 38t34 115t15.5 167q0 12 23 12q7 0 14.5 -8.5t7.5 -12.5q0 -2 -4 -10.5t-5 -14.5q-3 -16 -10 -75t-7 -82q0 -103 31 -103q20 0 46.5 78t26.5 146q0 13 9 13t9 -13
q0 -43 -17 -114.5t-43 -113.5q-15 -23 -35 -23q-47 0 -53 108q-28 -129 -75 -129q-30 0 -41.5 26.5t-11.5 81.5q0 14 4.5 101t4.5 90q0 14 14 14zM41 381q0 15 27 23q15 4 42.5 6t39.5 4q20 3 34 8q8 3 8 -6q0 -17 -20 -27q-8 -4 -22.5 -6t-39.5 -3t-30 -1q-20 -2 -32 -7
q-4 -1 -5.5 1.5t-1.5 7.5z" />
    <glyph glyph-name="Ubreve" unicode="&#x16c;" horiz-adv-x="472" 
d="M152 624q14 0 29 -10.5t15 -21.5q0 -3 -2.5 -6t-7 -7.5t-7.5 -8.5q-33 -47 -60 -163t-27 -220q0 -89 28.5 -135.5t79.5 -46.5q44 0 88 76t70.5 188.5t26.5 215.5q0 25 -1.5 44.5t-3.5 28.5t-2 11q0 12 18 12q12 0 36 -13t24 -18l-4 -10q-4 -10 -10.5 -30t-10.5 -41
q-13 -60 -23 -170.5t-10 -180.5q0 -30 1 -54t3 -39.5t4 -27.5t4.5 -18t4.5 -10t4 -5.5t3 -2.5t1 -2q0 -9 -17 -9q-47 0 -47 170q0 38 1 60q-23 -84 -64 -141.5t-98 -57.5q-72 0 -111 61t-39 173q0 48 9.5 121.5t20.5 120.5q-55 -55 -106 -55q-16 0 -32 7.5t-16 13.5
q0 3 4.5 3.5t12.5 -1t12 -1.5q39 0 89 46t82 107q3 6 10 21t10.5 20.5t7.5 5.5zM399 672q-42 -48 -85 -48q-51 0 -78 27q-8 9 2 19q14 14 24 6q33 -27 60 -27q34 0 67 33q6 6 10.5 1t-0.5 -11z" />
    <glyph glyph-name="ubreve" unicode="&#x16d;" horiz-adv-x="249" 
d="M36 286q11 0 20.5 -6t9.5 -13q0 -6 -6 -30q-16 -64 -16 -157q0 -53 4.5 -69t16.5 -16q15 0 33.5 38t34 115t15.5 167q0 12 23 12q7 0 14.5 -8.5t7.5 -12.5q0 -2 -4 -10.5t-5 -14.5q-3 -16 -10 -75t-7 -82q0 -103 31 -103q20 0 46.5 78t26.5 146q0 13 9 13t9 -13
q0 -43 -17 -114.5t-43 -113.5q-15 -23 -35 -23q-47 0 -53 108q-28 -129 -75 -129q-30 0 -41.5 26.5t-11.5 81.5q0 14 4.5 101t4.5 90q0 14 14 14zM204 411q-42 -48 -85 -48q-51 0 -78 27q-9 8 2 19q14 14 24 6q33 -27 60 -27q34 0 67 33q6 6 10.5 1t-0.5 -11z" />
    <glyph glyph-name="Uring" unicode="&#x16e;" horiz-adv-x="472" 
d="M152 624q14 0 29 -10.5t15 -21.5q0 -3 -2.5 -6t-7 -7.5t-7.5 -8.5q-33 -47 -60 -163t-27 -220q0 -89 28.5 -135.5t79.5 -46.5q44 0 88 76t70.5 188.5t26.5 215.5q0 25 -1.5 44.5t-3.5 28.5t-2 11q0 12 18 12q12 0 36 -13t24 -18l-4 -10q-4 -10 -10.5 -30t-10.5 -41
q-13 -60 -23 -170.5t-10 -180.5q0 -30 1 -54t3 -39.5t4 -27.5t4.5 -18t4.5 -10t4 -5.5t3 -2.5t1 -2q0 -9 -17 -9q-47 0 -47 170q0 38 1 60q-23 -84 -64 -141.5t-98 -57.5q-72 0 -111 61t-39 173q0 48 9.5 121.5t20.5 120.5q-55 -55 -106 -55q-16 0 -32 7.5t-16 13.5
q0 3 4.5 3.5t12.5 -1t12 -1.5q39 0 89 46t82 107q3 6 10 21t10.5 20.5t7.5 5.5zM286 733q4 0 10 -1t11 -1q53 0 53 -51q0 -28 -15.5 -53t-40.5 -25q-60 0 -60 59q0 23 14 47.5t28 24.5zM306 715q-17 0 -27 -22t-10 -41q0 -16 8.5 -26t22.5 -10q16 0 27.5 16t11.5 41
q0 15 -8 28.5t-25 13.5z" />
    <glyph glyph-name="uring" unicode="&#x16f;" horiz-adv-x="249" 
d="M36 286q11 0 20.5 -6t9.5 -13q0 -6 -6 -30q-16 -64 -16 -157q0 -53 4.5 -69t16.5 -16q15 0 33.5 38t34 115t15.5 167q0 12 23 12q7 0 14.5 -8.5t7.5 -12.5q0 -2 -4 -10.5t-5 -14.5q-3 -16 -10 -75t-7 -82q0 -103 31 -103q20 0 46.5 78t26.5 146q0 13 9 13t9 -13
q0 -43 -17 -114.5t-43 -113.5q-15 -23 -35 -23q-47 0 -53 108q-28 -129 -75 -129q-30 0 -41.5 26.5t-11.5 81.5q0 14 4.5 101t4.5 90q0 14 14 14zM97 497q4 0 10 -1t11 -1q53 0 53 -51q0 -28 -15.5 -53t-40.5 -25q-60 0 -60 59q0 23 14 47.5t28 24.5zM117 479q-17 0 -27 -22
t-10 -41q0 -16 8.5 -26t22.5 -10q16 0 27.5 16t11.5 41q0 15 -8 28.5t-25 13.5z" />
    <glyph glyph-name="Uhungarumlaut" unicode="&#x170;" horiz-adv-x="472" 
d="M152 624q14 0 29 -10.5t15 -21.5q0 -3 -2.5 -6t-7 -7.5t-7.5 -8.5q-33 -47 -60 -163t-27 -220q0 -89 28.5 -135.5t79.5 -46.5q44 0 88 76t70.5 188.5t26.5 215.5q0 25 -1.5 44.5t-3.5 28.5t-2 11q0 12 18 12q12 0 36 -13t24 -18l-4 -10q-4 -10 -10.5 -30t-10.5 -41
q-13 -60 -23 -170.5t-10 -180.5q0 -30 1 -54t3 -39.5t4 -27.5t4.5 -18t4.5 -10t4 -5.5t3 -2.5t1 -2q0 -9 -17 -9q-47 0 -47 170q0 38 1 60q-23 -84 -64 -141.5t-98 -57.5q-72 0 -111 61t-39 173q0 48 9.5 121.5t20.5 120.5q-55 -55 -106 -55q-16 0 -32 7.5t-16 13.5
q0 3 4.5 3.5t12.5 -1t12 -1.5q39 0 89 46t82 107q3 6 10 21t10.5 20.5t7.5 5.5zM300 737q5 0 11 -8.5t7 -15.5q0 -9 -6 -25t-13 -28t-17.5 -30.5t-11.5 -20.5q-3 -5 -7.5 -6t-6.5 2t0 9q23 57 31 91q1 3 1.5 7.5t1 7t1.5 5.5t2 5t2 3.5t2 2.5t3 1zM362 754q5 0 11 -8.5
t7 -15.5q1 -30 -49 -105q-6 -9 -11 -6t-2 12q18 45 31 91q1 4 2 8.5t1.5 7.5t1.5 6.5t2 5.5t2.5 3t3.5 1z" />
    <glyph glyph-name="uhungarumlaut" unicode="&#x171;" horiz-adv-x="249" 
d="M36 286q11 0 20.5 -6t9.5 -13q0 -6 -6 -30q-16 -64 -16 -157q0 -53 4.5 -69t16.5 -16q15 0 33.5 38t34 115t15.5 167q0 12 23 12q7 0 14.5 -8.5t7.5 -12.5q0 -2 -4 -10.5t-5 -14.5q-3 -16 -10 -75t-7 -82q0 -103 31 -103q20 0 46.5 78t26.5 146q0 13 9 13t9 -13
q0 -43 -17 -114.5t-43 -113.5q-15 -23 -35 -23q-47 0 -53 108q-28 -129 -75 -129q-30 0 -41.5 26.5t-11.5 81.5q0 14 4.5 101t4.5 90q0 14 14 14zM107 489q5 0 11 -8.5t7 -15.5q0 -9 -6 -25t-13 -28t-17.5 -30.5t-11.5 -20.5q-3 -5 -7.5 -6t-6.5 2t0 9q23 57 31 91
q1 3 1.5 7.5t1 7t1.5 5.5t2 5t2 3.5t2 2.5t3 1zM169 506q5 0 11 -8.5t7 -15.5q1 -30 -49 -105q-6 -9 -11 -6t-2 12q18 45 31 91q1 4 2 8.5t1.5 7.5t1.5 6.5t2 5.5t2.5 3t3.5 1z" />
    <glyph glyph-name="Uogonek" unicode="&#x172;" horiz-adv-x="472" 
d="M361 -143q0 43 36 95q-38 13 -38 168q0 38 1 60q-23 -84 -64 -141.5t-98 -57.5q-72 0 -111 61t-39 173q0 48 9.5 121.5t20.5 120.5q-55 -55 -106 -55q-16 0 -32 7.5t-16 13.5q0 3 4.5 3.5t12.5 -1t12 -1.5q39 0 89 46t82 107q3 6 10 21t10.5 20.5t7.5 5.5q14 0 29 -10.5
t15 -21.5q0 -3 -2.5 -6t-7 -7.5t-7.5 -8.5q-33 -47 -60 -163t-27 -220q0 -89 28.5 -135.5t79.5 -46.5q44 0 88 76t70.5 188.5t26.5 215.5q0 25 -1.5 44.5t-3.5 28.5t-2 11q0 12 18 12q12 0 36 -13t24 -18l-4 -10q-4 -10 -10.5 -30t-10.5 -41q-13 -60 -23 -170.5t-10 -180.5
q0 -30 1 -54t3 -39.5t4 -27.5t4.5 -18t4.5 -10t4 -5.5t3 -2.5t1 -2q0 -3 -6 -7q-32 -46 -32 -83q0 -19 9.5 -30t24.5 -11q28 0 54 36q6 8 11.5 4t1.5 -12q-29 -61 -71 -61q-23 0 -38.5 17.5t-15.5 44.5z" />
    <glyph glyph-name="uogonek" unicode="&#x173;" horiz-adv-x="249" 
d="M165 -87q0 39 27 81q-45 2 -51 108q-28 -129 -75 -129q-30 0 -41.5 26.5t-11.5 81.5q0 14 4.5 101t4.5 90q0 14 14 14q11 0 20.5 -6t9.5 -13q0 -6 -6 -30q-16 -64 -16 -157q0 -53 4.5 -69t16.5 -16q15 0 33.5 38t34 115t15.5 167q0 12 23 12q7 0 14.5 -8.5t7.5 -12.5
q0 -2 -4 -10.5t-5 -14.5q-3 -16 -10 -75t-7 -82q0 -103 31 -103q20 0 46.5 78t26.5 146q0 13 9 13t9 -13q0 -43 -17 -114.5t-43 -113.5q-5 -8 -10 -12q-30 -44 -30 -80q0 -19 9.5 -30t24.5 -11q28 0 54 36q6 8 11.5 4t1.5 -12q-29 -61 -71 -61q-23 0 -38.5 17.5t-15.5 44.5z
" />
    <glyph glyph-name="Wcircumflex" unicode="&#x174;" horiz-adv-x="568" 
d="M61 612q14 0 28.5 -10t14.5 -24q0 -2 -9 -39.5t-17.5 -104t-8.5 -140.5q0 -137 23.5 -213.5t59.5 -76.5q37 0 64 72t38.5 168.5t11.5 196.5q0 15 -1.5 53t-1.5 39q0 14 17 14q22 0 36.5 -6.5t14.5 -14.5q0 -1 -3 -10t-7.5 -29.5t-9.5 -51.5t-8 -86.5t-3 -125.5
q0 -91 23.5 -152t52.5 -61q47 0 91 152.5t44 308.5q0 34 -2 64t-4.5 48t-5.5 31t-5 19.5t-2 7.5q0 11 7 11q27 0 34.5 -46t7.5 -146q0 -71 -10 -151.5t-28.5 -155t-50 -123.5t-68.5 -49q-98 0 -118 195q-14 -89 -42.5 -150.5t-69.5 -61.5q-54 0 -89.5 90.5t-35.5 231.5
q0 26 2.5 100t5 138t2.5 66q0 7 6.5 14.5t15.5 7.5zM247 628q28 34 35 70q2 9 15 13.5t18 -3.5q28 -51 62 -76q4 -3 3.5 -7t-4 -5.5t-8.5 0.5q-38 22 -72 49q-16 -26 -36 -51q-3 -5 -8 -4t-6.5 5t1.5 9z" />
    <glyph glyph-name="wcircumflex" unicode="&#x175;" horiz-adv-x="311" 
d="M40 304q9 0 17.5 -7.5t8.5 -15.5q0 -1 -7 -29t-13.5 -71.5t-6.5 -80.5q0 -46 7.5 -75.5t20.5 -29.5q14 0 28 53t18 105q3 35 3 115q0 13 27 13q15 0 15 -17q0 -2 -4 -27t-7.5 -59.5t-3.5 -60.5q0 -42 9 -74t25 -32t28.5 50t17.5 121q-12 33 -12 84q0 29 5.5 50.5
t12.5 21.5q24 0 24 -113q0 -16 -2 -48q15 -21 32 -21q20 0 35 28t15 60q0 14 9 14t9 -13q0 -37 -19.5 -76t-50.5 -39q-19 0 -32 13q-15 -156 -67 -156q-49 0 -59 85q-20 -104 -58 -104q-28 0 -41.5 32t-13.5 106q0 75 13 179q1 6 6 12.5t11 6.5zM79 388q28 34 35 70
q2 9 15 13.5t18 -3.5q28 -51 62 -76q8 -6 1 -11q-4 -4 -10 -1q-38 22 -72 49q-16 -26 -36 -51q-3 -5 -8 -4t-6.5 5t1.5 9z" />
    <glyph glyph-name="Ycircumflex" unicode="&#x176;" horiz-adv-x="407" 
d="M57 593q11 0 28 -15t17 -27q0 -1 -8.5 -62.5t-17 -144t-8.5 -135.5q0 -104 20 -146t65 -42q49 0 85.5 72.5t53.5 179.5t24.5 195t7.5 152q0 4 6 9t11 5q6 0 22.5 -10.5t16.5 -16.5q0 -1 -4 -19.5t-10 -51t-12 -73t-10 -95.5t-4 -110q0 -33 7 -134.5t7 -144.5
q0 -100 -51 -168t-126 -68q-49 0 -130.5 31t-81.5 60q0 17 21 17q18 0 42 -20.5t55 -41.5t67 -21q73 0 116.5 67.5t43.5 205.5q0 15 -1 47t-2.5 78.5t-2.5 68.5q-14 -99 -53 -168.5t-94 -69.5q-60 0 -95 49t-35 149q0 26 8.5 165t8.5 147q0 13 -1.5 40.5t-1.5 29.5q0 6 5 11
t11 5zM149 636q28 34 35 70q2 9 15 13.5t18 -3.5q28 -51 62 -76q8 -6 1 -11q-4 -4 -10 -1q-38 22 -72 49q-16 -26 -36 -51q-3 -5 -8 -4t-6.5 5t1.5 9z" />
    <glyph glyph-name="ycircumflex" unicode="&#x177;" horiz-adv-x="236" 
d="M45 305q8 0 13.5 -5.5t5.5 -10.5q0 -14 -4 -31q-3 -12 -9 -74.5t-6 -88.5q0 -93 26 -93q17 0 34.5 46t29.5 118q4 25 10 77t7 62q6 42 28 42q6 0 11 -5t5 -12q0 -4 -10 -44q-4 -16 -9.5 -83.5t-5.5 -112.5q0 -43 8 -173q46 14 80 14q21 0 32.5 -7.5t11.5 -15.5
q0 -5 -9 -5l-16 2q-17 2 -26 2q-29 0 -71 -11q5 -73 5 -97q0 -92 -38.5 -143.5t-105.5 -51.5q-40 0 -74 29t-34 75q0 67 65.5 119.5t153.5 81.5q-2 36 -6 103t-5 80q-29 -110 -68 -110q-31 0 -46 26.5t-15 96.5q0 18 2.5 56.5t5.5 77t3 39.5q2 27 21 27zM156 -169
q0 14 -2 56q-77 -26 -133 -75t-56 -109q0 -37 22 -58t50 -21q50 0 84.5 52.5t34.5 154.5zM50 388q28 34 35 70q2 9 15 13.5t18 -3.5q28 -51 62 -76q8 -6 1 -11q-4 -4 -10 -1q-38 22 -72 49q-16 -26 -36 -51q-3 -5 -8 -4t-6.5 5t1.5 9z" />
    <glyph glyph-name="Ydieresis" unicode="&#x178;" horiz-adv-x="407" 
d="M57 593q11 0 28 -15t17 -27q0 -1 -8.5 -62.5t-17 -144t-8.5 -135.5q0 -104 20 -146t65 -42q49 0 85.5 72.5t53.5 179.5t24.5 195t7.5 152q0 4 6 9t11 5q6 0 22.5 -10.5t16.5 -16.5q0 -1 -4 -19.5t-10 -51t-12 -73t-10 -95.5t-4 -110q0 -33 7 -134.5t7 -144.5
q0 -100 -51 -168t-126 -68q-49 0 -130.5 31t-81.5 60q0 17 21 17q18 0 42 -20.5t55 -41.5t67 -21q73 0 116.5 67.5t43.5 205.5q0 15 -1 47t-2.5 78.5t-2.5 68.5q-14 -99 -53 -168.5t-94 -69.5q-60 0 -95 49t-35 149q0 26 8.5 165t8.5 147q0 13 -1.5 40.5t-1.5 29.5q0 6 5 11
t11 5zM155 686q12 0 18.5 -10.5t6.5 -21.5q0 -8 -5.5 -14t-12.5 -6q-10 0 -21.5 7.5t-11.5 19.5q0 8 8 16.5t18 8.5zM235 696q12 0 21 -11t9 -21q0 -8 -7.5 -14t-15.5 -6q-9 0 -18.5 7.5t-9.5 19.5q0 8 5.5 16.5t15.5 8.5z" />
    <glyph glyph-name="Zacute" unicode="&#x179;" horiz-adv-x="472" 
d="M393 600q42 0 65 -26q20 -22 20 -42q0 -12 -7 -18t-27 -18q-35 -21 -207 -209q-67 -73 -122 -149.5t-55 -93.5q0 -13 24 -13q1 0 43 6.5t100 12.5t97 6q46 0 75.5 -5t37.5 -10.5t8 -10.5q0 -9 -25 -9q-4 0 -25.5 1.5t-33.5 1.5q-51 0 -123.5 -13t-125 -26t-56.5 -13
q-17 0 -31.5 16t-14.5 41q0 48 202 293q10 12 61.5 73t85 102t33.5 45q0 12 -51 12q-48 0 -134.5 -15.5t-120.5 -32.5q-4 -2 -7 -5t-4 -5.5t-2.5 -4t-2.5 -1.5q-4 0 -9.5 8.5t-5.5 19.5q0 13 42 26q59 18 163 37t133 19zM304 734q12 -34 -10 -56q-36 -32 -94 -62
q-9 -5 -12 4q-2 5 5 10q28 20 55 50t40 53q4 7 9 7t7 -6z" />
    <glyph glyph-name="zacute" unicode="&#x17a;" horiz-adv-x="219" 
d="M95 350q33 0 57 -18q18 -13 24.5 -30.5t6.5 -49.5q0 -64 -24.5 -132.5t-57.5 -112.5q49 -21 75 -87q34 8 61 8q17 0 29.5 -4.5t17 -9t4.5 -8.5q0 -6 -10 -6l-21 3q-21 3 -32 3q-18 0 -43 -5q12 -38 12 -82q0 -92 -33.5 -152.5t-86.5 -60.5q-50 0 -88 29.5t-38 78.5
q0 59 63 115.5t143 83.5q-19 63 -68 76q-20 -22 -37 -22q-11 0 -20.5 6.5t-9.5 16.5q0 11 11 18.5t30 7.5q7 0 11 -1q30 42 56 114t26 126q0 68 -39 68q-25 0 -49.5 -34.5t-24.5 -57.5q0 -11 -9 -11t-9 11q0 119 73 119zM164 -161q0 27 -5 55q-69 -24 -123.5 -78.5
t-54.5 -111.5q0 -39 21 -57.5t51 -18.5q51 0 81 59t30 152zM174 501q12 -34 -10 -56q-36 -32 -94 -62q-9 -5 -12 4q-2 5 5 10q28 20 55 50t40 53q4 7 9 7t7 -6z" />
    <glyph glyph-name="Zdotaccent" unicode="&#x17b;" horiz-adv-x="472" 
d="M393 600q42 0 65 -26q20 -22 20 -42q0 -12 -7 -18t-27 -18q-35 -21 -207 -209q-67 -73 -122 -149.5t-55 -93.5q0 -13 24 -13q1 0 43 6.5t100 12.5t97 6q46 0 75.5 -5t37.5 -10.5t8 -10.5q0 -9 -25 -9q-4 0 -25.5 1.5t-33.5 1.5q-51 0 -123.5 -13t-125 -26t-56.5 -13
q-17 0 -31.5 16t-14.5 41q0 48 202 293q10 12 61.5 73t85 102t33.5 45q0 12 -51 12q-48 0 -134.5 -15.5t-120.5 -32.5q-4 -2 -7 -5t-4 -5.5t-2.5 -4t-2.5 -1.5q-4 0 -9.5 8.5t-5.5 19.5q0 13 42 26q59 18 163 37t133 19zM245 693q12 0 21 -11t9 -21q0 -8 -7.5 -14t-15.5 -6
q-9 0 -18.5 7.5t-9.5 19.5q0 8 5.5 16.5t15.5 8.5z" />
    <glyph glyph-name="zdotaccent" unicode="&#x17c;" horiz-adv-x="219" 
d="M95 350q33 0 57 -18q18 -13 24.5 -30.5t6.5 -49.5q0 -64 -24.5 -132.5t-57.5 -112.5q49 -21 75 -87q34 8 61 8q17 0 29.5 -4.5t17 -9t4.5 -8.5q0 -6 -10 -6l-21 3q-21 3 -32 3q-18 0 -43 -5q12 -38 12 -82q0 -92 -33.5 -152.5t-86.5 -60.5q-50 0 -88 29.5t-38 78.5
q0 59 63 115.5t143 83.5q-19 63 -68 76q-20 -22 -37 -22q-11 0 -20.5 6.5t-9.5 16.5q0 11 11 18.5t30 7.5q7 0 11 -1q30 42 56 114t26 126q0 68 -39 68q-25 0 -49.5 -34.5t-24.5 -57.5q0 -11 -9 -11t-9 11q0 119 73 119zM164 -161q0 27 -5 55q-69 -24 -123.5 -78.5
t-54.5 -111.5q0 -39 21 -57.5t51 -18.5q51 0 81 59t30 152zM115 451q12 0 21 -11t9 -21q0 -8 -7.5 -14t-15.5 -6q-9 0 -18.5 7.5t-9.5 19.5q0 8 5.5 16.5t15.5 8.5z" />
    <glyph glyph-name="Zcaron" unicode="&#x17d;" horiz-adv-x="472" 
d="M393 600q42 0 65 -26q20 -22 20 -42q0 -12 -7 -18t-27 -18q-35 -21 -207 -209q-67 -73 -122 -149.5t-55 -93.5q0 -13 24 -13q1 0 43 6.5t100 12.5t97 6q46 0 75.5 -5t37.5 -10.5t8 -10.5q0 -9 -25 -9q-4 0 -25.5 1.5t-33.5 1.5q-51 0 -123.5 -13t-125 -26t-56.5 -13
q-17 0 -31.5 16t-14.5 41q0 48 202 293q10 12 61.5 73t85 102t33.5 45q0 12 -51 12q-48 0 -134.5 -15.5t-120.5 -32.5q-4 -2 -7 -5t-4 -5.5t-2.5 -4t-2.5 -1.5q-4 0 -9.5 8.5t-5.5 19.5q0 13 42 26q59 18 163 37t133 19zM317 705q-28 -50 -52 -74q-10 -10 -25 -3
q-20 10 -43 32.5t-35 41.5q-5 8 1 11.5t13 -2.5q20 -16 48 -32t37 -16q12 0 43 50q5 8 11.5 4t1.5 -12z" />
    <glyph glyph-name="zcaron" unicode="&#x17e;" horiz-adv-x="219" 
d="M95 350q33 0 57 -18q18 -13 24.5 -30.5t6.5 -49.5q0 -64 -24.5 -132.5t-57.5 -112.5q49 -21 75 -87q34 8 61 8q17 0 29.5 -4.5t17 -9t4.5 -8.5q0 -6 -10 -6l-21 3q-21 3 -32 3q-18 0 -43 -5q12 -38 12 -82q0 -92 -33.5 -152.5t-86.5 -60.5q-50 0 -88 29.5t-38 78.5
q0 59 63 115.5t143 83.5q-19 63 -68 76q-20 -22 -37 -22q-11 0 -20.5 6.5t-9.5 16.5q0 11 11 18.5t30 7.5q7 0 11 -1q30 42 56 114t26 126q0 68 -39 68q-25 0 -49.5 -34.5t-24.5 -57.5q0 -11 -9 -11t-9 11q0 119 73 119zM164 -161q0 27 -5 55q-69 -24 -123.5 -78.5
t-54.5 -111.5q0 -39 21 -57.5t51 -18.5q51 0 81 59t30 152zM181 469q-28 -50 -52 -74q-10 -10 -25 -3q-20 10 -43 32.5t-35 41.5q-5 8 1 11.5t13 -2.5q20 -16 48 -32t37 -16q12 0 43 50q5 8 11.5 4t1.5 -12z" />
    <glyph glyph-name="florin" unicode="&#x192;" horiz-adv-x="349" 
d="M112 194q-2 6 -4 20h-37q-58 0 -58 12q0 2 0.5 4.5t2.5 4t3.5 2.5t4.5 2t5.5 2t7 1.5t7 1t8 1.5t8.5 1q2 0 8 0.5t17 1t19 0.5q-13 122 9 235.5t74 113.5q23 0 101 -28q24 -8 38.5 -40t14.5 -65t-7 -52t-16 -19q-19 0 -25.5 13t-6.5 52q0 38 -15.5 71t-47.5 33
q-42 0 -59 -92.5t-11 -219.5l62 3q21 1 38.5 5.5t26.5 8t10 3.5q7 0 7 -7q0 -10 -11.5 -21.5t-23.5 -15.5q-29 -9 -107 -11q2 -32 8 -77q17 -113 10.5 -178.5t-25.5 -91.5t-52 -26t-62 11.5t-42 24t-10 18.5t18 -1.5t39 -18.5t42 -11q30 0 45.5 27t15 77t-8 102.5
t-21.5 122.5z" />
    <glyph glyph-name="Ohorn" unicode="&#x1a0;" horiz-adv-x="442" 
d="M178 640q93 0 145.5 -33t72.5 -103q37 9 49 38q8 19 0 38.5t-29 30.5q-5 3 11 12q26 12 39 2q37 -35 18 -80q-21 -47 -83 -59q11 -52 11 -115q0 -117 -20.5 -206t-69.5 -146.5t-122 -57.5q-32 0 -61 13t-57 42t-45 85.5t-17 133.5q0 87 28 184t65 159t65 62zM235 611
q-41 0 -80 -69.5t-61.5 -166.5t-22.5 -182q0 -114 34.5 -157.5t94.5 -43.5q84 0 130 93.5t46 275.5q0 106 -34.5 178t-106.5 72z" />
    <glyph glyph-name="ohorn" unicode="&#x1a1;" horiz-adv-x="233" 
d="M67 350q12 0 40 -16.5t37 -27.5q12 -17 17 -49q41 27 41 63q0 20 -15.5 34t-38.5 17q-11 1 -1 16q15 23 41 17q19 -5 33.5 -22.5t14.5 -43.5q0 -33 -22.5 -59.5t-50.5 -39.5q2 -36 2 -59q0 -10 -2 -34q13 -11 28 -11q28 0 46 36t18 74q0 13 9 13t9 -13q0 -23 -8 -53
t-26.5 -56t-41.5 -26q-19 0 -37 9q-9 -62 -30 -105.5t-54 -43.5q-31 0 -49.5 40.5t-18.5 112.5q0 54 12 123t24 92q6 12 23 12zM92 315q-17 0 -34 -65.5t-17 -137.5q0 -43 7.5 -70.5t15 -35.5t14.5 -8q20 0 38 48t18 102q-15 31 -15 97q0 5 1 18t1 23q0 12 -10.5 20.5
t-18.5 8.5z" />
    <glyph glyph-name="Uhorn" unicode="&#x1af;" horiz-adv-x="472" 
d="M152 624q14 0 29 -10.5t15 -21.5q0 -3 -2.5 -6t-7 -7.5t-7.5 -8.5q-33 -47 -60 -163t-27 -220q0 -89 28.5 -135.5t79.5 -46.5q44 0 88 76t70.5 188.5t26.5 215.5q0 25 -1.5 44.5t-3.5 28.5t-2 11q0 12 18 12q12 0 36 -13t24 -18q0 -1 -2 -6.5t-6.5 -16.5t-7.5 -23
q37 9 49 38q8 19 0 38.5t-29 30.5q-5 3 11 12q26 12 39 2q37 -35 18 -80q-24 -53 -94 -61l-3 -15q-13 -60 -23 -170.5t-10 -180.5q0 -30 1 -54t3 -39.5t4 -27.5t4.5 -18t4.5 -10t4 -5.5t3 -2.5t1 -2q0 -9 -17 -9q-47 0 -47 170q0 38 1 60q-23 -84 -64 -141.5t-98 -57.5
q-72 0 -111 61t-39 173q0 48 9.5 121.5t20.5 120.5q-55 -55 -106 -55q-16 0 -32 7.5t-16 13.5q0 3 4.5 3.5t12.5 -1t12 -1.5q39 0 89 46t82 107q3 6 10 21t10.5 20.5t7.5 5.5z" />
    <glyph glyph-name="uhorn" unicode="&#x1b0;" horiz-adv-x="249" 
d="M36 286q11 0 20.5 -6t9.5 -13q0 -6 -6 -30q-16 -64 -16 -157q0 -53 4.5 -69t16.5 -16q15 0 33.5 38t34 115t15.5 167q0 12 23 12q7 0 14.5 -8.5t7.5 -12.5q0 -2 -4 -10.5t-5 -14.5q0 -1 -1 -5t-1.5 -10.5t-1.5 -11.5q47 29 47 66q0 20 -15.5 34t-38.5 17q-11 1 -1 16
q15 23 41 17q19 -5 33.5 -22.5t14.5 -43.5q0 -35 -24 -61.5t-53 -38.5q-5 -2 -7 -1q-10 -76 -10 -113q0 -103 31 -103q20 0 46.5 78t26.5 146q0 13 9 13t9 -13q0 -43 -17 -114.5t-43 -113.5q-15 -23 -35 -23q-47 0 -53 108q-28 -129 -75 -129q-30 0 -41.5 26.5t-11.5 81.5
q0 14 4.5 101t4.5 90q0 14 14 14z" />
    <glyph glyph-name="AEacute" unicode="&#x1fc;" horiz-adv-x="899" 
d="M362 611q8 0 29 -11t31 -21q331 32 378 32q40 0 61 -2t26.5 -5t5.5 -8q0 -7 -76 -7q-70 0 -392 -41q-2 -16 -2 -28q0 -32 24 -202q105 8 244 15q80 3 80 -10q0 -11 -319 -41l14 -93l2 -8q0 -5 1 -7q17 -89 27 -111q23 -50 94 -56q12 -1 25 -1q137 0 229 61q14 9 14 20
q0 12 7 12q6 0 14 -6.5t8 -14.5q0 -18 -36.5 -44.5t-103.5 -47.5t-136 -21q-81 0 -114 33t-59 145q-4 14 -28 136q-64 -6 -161 -13q-29 -62 -58.5 -114.5t-63.5 -100.5t-68 -75.5t-64 -27.5q-35 0 -73 22t-38 45q0 13 10 13q4 0 11 -10q15 -22 63 -22q113 0 246 268
q-12 -1 -32 -1h-12q-54 2 -57 9q0 8 116 24q49 102 96 239l-60 -9q-11 -2 -18 -10.5t-11 -8.5q-7 0 -18 13t-11 22q0 16 127 29q1 5 1 23q0 4 9 10.5t18 6.5zM332 473q-22 -71 -67 -173q34 4 139 14q-28 143 -41 220q-20 -21 -31 -61zM655 755q12 -34 -10 -56
q-36 -32 -94 -62q-9 -5 -12 4q-2 5 5 10q28 20 55 50t40 53q4 7 9 7t7 -6z" />
    <glyph glyph-name="aeacute" unicode="&#x1fd;" horiz-adv-x="285" 
d="M186 333q22 0 40 -15q13 -12 13 -33q0 -40 -13.5 -87.5t-34 -77t-36.5 -19.5q2 -46 12.5 -71t18.5 -29t21 -4q38 0 69 89.5t31 158.5q0 13 9 13t9 -13q0 -42 -16.5 -113t-35.5 -106q-28 -52 -67 -52q-72 0 -85 111v4q-9 -46 -25 -80q-15 -32 -42 -32q-55 0 -55 114
q0 56 13.5 120.5t32.5 100.5q13 27 32 27q41 0 50 -42q5 -25 -5 -35q-6 -6 -10 9q0 3 -1 6q0 2 -1 6t-1 6t-1 5t-1.5 4l-1.5 3t-2.5 3t-3.5 1.5t-4 0.5q-25 0 -45.5 -87t-20.5 -141q0 -79 22 -79q11 0 27 31q21 40 27.5 80t11.5 118q1 11 4 14t10 3q2 0 3 -1q12 50 20 66
q10 23 32 23zM202 308q-13 0 -29.5 -55.5t-17.5 -114.5q4 -12 13 -12q14 0 29.5 53.5t15.5 95.5q0 33 -11 33zM202 491q12 -34 -10 -56q-36 -32 -94 -62q-9 -5 -12 4q-2 5 5 10q28 20 55 50t40 53q4 7 9 7t7 -6z" />
    <glyph glyph-name="Oslashacute" unicode="&#x1fe;" horiz-adv-x="442" 
d="M178 640q141 0 193 -80q21 25 41 47q10 11 18 11q7 0 7 -8q0 -7 -11 -21q-12 -14 -41 -54q27 -58 27 -164q0 -117 -20.5 -206t-69.5 -146.5t-122 -57.5q-91 0 -140 85l-31 -56q-11 -19 -30 -19q-24 0 -3 36q16 30 46 79q-22 60 -22 149q0 87 28 184t65 159t65 62z
M358 499q-153 -208 -275 -414q25 -93 117 -93q84 0 130 93.5t46 275.5q0 77 -18 138zM235 611q-41 0 -80 -69.5t-61.5 -166.5t-22.5 -182q0 -22 2 -56q141 225 273 392q-37 82 -111 82zM367 783q12 -34 -10 -56q-36 -32 -94 -62q-9 -5 -12 4q-2 5 5 10q28 20 55 50t40 53
q4 7 9 7t7 -6z" />
    <glyph glyph-name="oslashacute" unicode="&#x1ff;" horiz-adv-x="233" 
d="M67 350q12 0 40 -16.5t37 -27.5q7 -10 11 -23q16 26 24 41q7 12 16 8q7 -3 -2 -21l-32 -59q4 -28 4 -72q0 -10 -2 -34q13 -11 28 -11q28 0 46 36t18 74q0 13 9 13t9 -13q0 -23 -8 -53t-26.5 -56t-41.5 -26q-19 0 -37 9q-9 -62 -30 -105.5t-54 -43.5q-21 0 -38 20l-11 -28
q-7 -15 -23 -15q-14 0 -2 28q15 35 20 47q-14 39 -14 101q0 54 12 123t24 92q6 12 23 12zM92 315q-17 0 -34 -65.5t-17 -137.5q0 -31 2 -44q32 72 76 151v26q0 5 1 18t1 23q0 12 -10.5 20.5t-18.5 8.5zM124 179q-23 -45 -71 -155q12 -26 25 -26q20 0 38 48t18 102
q-5 12 -10 31zM171 496q12 -34 -10 -56q-36 -32 -94 -62q-9 -5 -12 4q-2 5 5 10q28 20 55 50t40 53q4 7 9 7t7 -6z" />
    <glyph glyph-name="dotlessj" unicode="&#x237;" horiz-adv-x="133" 
d="M44 307q28 0 28 -18q0 -5 -8 -32q-5 -17 -15 -112t-10 -156q0 -13 2 -55q30 5 50 5q43 0 63 -12.5t20 -29.5q0 -6 -3.5 -10t-6.5 -4q-6 0 -10 10q-10 23 -64 23q-24 0 -47 -5q9 -103 9 -135q0 -149 -129 -149q-56 0 -110 35t-54 88q0 54 80.5 105t175.5 74q-4 84 -4 110
q0 28 4.5 134.5t6.5 116.5t6 13.5t16 3.5zM23 -206q0 9 -6 111q-86 -21 -158 -67t-72 -96q0 -42 48.5 -68t91.5 -26q96 0 96 146z" />
    <glyph glyph-name="circumflex" unicode="&#x2c6;" 
d="M0 388q28 34 35 70q2 9 15 13.5t18 -3.5q28 -51 62 -76q8 -6 1 -11q-4 -4 -10 -1q-38 22 -72 49q-16 -26 -36 -51q-3 -5 -8 -4t-6.5 5t1.5 9z" />
    <glyph glyph-name="caron" unicode="&#x2c7;" 
d="M139 464q-28 -50 -52 -74q-10 -10 -25 -3q-20 10 -43 32.5t-35 41.5q-5 8 1 11.5t13 -2.5q20 -16 48 -32t37 -16q12 0 43 50q5 8 11.5 4t1.5 -12z" />
    <glyph glyph-name="breve" unicode="&#x2d8;" 
d="M154 421q-42 -48 -85 -48q-51 0 -78 27q-9 8 2 19q14 14 24 6q33 -27 60 -27q34 0 67 33q6 6 10.5 1t-0.5 -11z" />
    <glyph glyph-name="dotaccent" unicode="&#x2d9;" 
d="M71 451q12 0 21 -11t9 -21q0 -8 -7.5 -14t-15.5 -6q-9 0 -18.5 7.5t-9.5 19.5q0 8 5.5 16.5t15.5 8.5z" />
    <glyph glyph-name="ring" unicode="&#x2da;" 
d="M61 497q4 0 10 -1t11 -1q53 0 53 -51q0 -28 -15.5 -53t-40.5 -25q-60 0 -60 59q0 23 14 47.5t28 24.5zM81 479q-17 0 -27 -22t-10 -41q0 -16 8.5 -26t22.5 -10q16 0 27.5 16t11.5 41q0 15 -8 28.5t-25 13.5z" />
    <glyph glyph-name="ogonek" unicode="&#x2db;" 
d="M75 -105q0 44 42 103q8 12 15 5q5 -5 1 -11q-34 -49 -34 -85q0 -19 9.5 -30t24.5 -11q28 0 54 36q6 8 11.5 4t1.5 -12q-29 -61 -71 -61q-23 0 -38.5 17.5t-15.5 44.5z" />
    <glyph glyph-name="tilde" unicode="&#x2dc;" 
d="M-20 391q14 28 34 44q16 13 56.5 -2t57.5 -1q3 3 10 11q3 4 7 4t5.5 -3.5t-0.5 -8.5q-8 -15 -21 -27q-16 -15 -35 -15t-33 7.5t-28.5 10t-22.5 -5.5q-7 -7 -16 -23q-3 -6 -8 -6t-6.5 4.5t0.5 10.5z" />
    <glyph glyph-name="hungarumlaut" unicode="&#x2dd;" 
d="M60 504q5 0 11 -8.5t7 -15.5q0 -9 -6 -25t-13 -28t-17.5 -30.5t-11.5 -20.5q-3 -5 -7.5 -6t-6.5 2t0 9q23 57 31 91q1 3 1.5 7.5t1 7t1.5 5.5t2 5t2 3.5t2 2.5t3 1zM122 521q5 0 11 -8.5t7 -15.5q1 -30 -49 -105q-6 -9 -11 -6t-2 12q18 45 31 91q1 4 2 8.5t1.5 7.5
t1.5 6.5t2 5.5t2.5 3t3.5 1z" />
    <glyph glyph-name="hookabovecomb" unicode="&#x309;" horiz-adv-x="188" 
d="M119 554q23 0 37 -17t14 -34q0 -21 -24 -44.5t-48 -44t-24 -34.5q0 -4 1 -6.5t2 -3.5l1 -2q0 -4 -9 1l-2 2q-8 8 -8 17q0 22 21.5 44t43 41t21.5 35q0 21 -27 21q-23 0 -44.5 -19.5t-31.5 -47.5q-4 -11 -8 -11q-12 0 -18.5 7t-5.5 16q2 33 37 56.5t72 23.5z" />
    <glyph glyph-name="uni0312" unicode="&#x312;" 
d="M61 390q-5 0 -12.5 9.5t-7.5 16.5q0 28 50 107q8 12 16 8q11 -3 4 -20q-2 -6 -17 -45t-18 -46q-1 -4 -3 -9.5t-3 -8.5t-2.5 -6.5t-3 -4.5t-3.5 -1z" />
    <glyph glyph-name="dotbelowcomb" unicode="&#x323;" 
d="M71 -92q12 0 21 -11t9 -21q0 -8 -7.5 -14t-15.5 -6q-9 0 -18.5 7.5t-9.5 19.5q0 8 5.5 16.5t15.5 8.5z" />
    <glyph glyph-name="Wgrave" unicode="&#x1e80;" horiz-adv-x="568" 
d="M61 612q14 0 28.5 -10t14.5 -24q0 -2 -9 -39.5t-17.5 -104t-8.5 -140.5q0 -137 23.5 -213.5t59.5 -76.5q37 0 64 72t38.5 168.5t11.5 196.5q0 15 -1.5 53t-1.5 39q0 14 17 14q22 0 36.5 -6.5t14.5 -14.5q0 -1 -3 -10t-7.5 -29.5t-9.5 -51.5t-8 -86.5t-3 -125.5
q0 -91 23.5 -152t52.5 -61q47 0 91 152.5t44 308.5q0 34 -2 64t-4.5 48t-5.5 31t-5 19.5t-2 7.5q0 11 7 11q27 0 34.5 -46t7.5 -146q0 -71 -10 -151.5t-28.5 -155t-50 -123.5t-68.5 -49q-98 0 -118 195q-14 -89 -42.5 -150.5t-69.5 -61.5q-54 0 -89.5 90.5t-35.5 231.5
q0 26 2.5 100t5 138t2.5 66q0 7 6.5 14.5t15.5 7.5zM238 676q-13 24 4 42q11 12 16 1q38 -76 91 -106q11 -6 3 -11q-5 -4 -13 -1q-31 11 -61 33t-40 42z" />
    <glyph glyph-name="wgrave" unicode="&#x1e81;" horiz-adv-x="311" 
d="M40 304q9 0 17.5 -7.5t8.5 -15.5q0 -1 -7 -29t-13.5 -71.5t-6.5 -80.5q0 -46 7.5 -75.5t20.5 -29.5q14 0 28 53t18 105q3 35 3 115q0 13 27 13q15 0 15 -17q0 -2 -4 -27t-7.5 -59.5t-3.5 -60.5q0 -42 9 -74t25 -32t28.5 50t17.5 121q-12 33 -12 84q0 29 5.5 50.5
t12.5 21.5q24 0 24 -113q0 -16 -2 -48q15 -21 32 -21q20 0 35 28t15 60q0 14 9 14t9 -13q0 -37 -19.5 -76t-50.5 -39q-19 0 -32 13q-15 -156 -67 -156q-49 0 -59 85q-20 -104 -58 -104q-28 0 -41.5 32t-13.5 106q0 75 13 179q1 6 6 12.5t11 6.5zM77 449q-13 24 4 42
q11 12 16 1q38 -76 91 -106q11 -6 3 -11q-5 -4 -13 -1q-31 11 -61 33t-40 42z" />
    <glyph glyph-name="Wacute" unicode="&#x1e82;" horiz-adv-x="568" 
d="M61 612q14 0 28.5 -10t14.5 -24q0 -2 -9 -39.5t-17.5 -104t-8.5 -140.5q0 -137 23.5 -213.5t59.5 -76.5q37 0 64 72t38.5 168.5t11.5 196.5q0 15 -1.5 53t-1.5 39q0 14 17 14q22 0 36.5 -6.5t14.5 -14.5q0 -1 -3 -10t-7.5 -29.5t-9.5 -51.5t-8 -86.5t-3 -125.5
q0 -91 23.5 -152t52.5 -61q47 0 91 152.5t44 308.5q0 34 -2 64t-4.5 48t-5.5 31t-5 19.5t-2 7.5q0 11 7 11q27 0 34.5 -46t7.5 -146q0 -71 -10 -151.5t-28.5 -155t-50 -123.5t-68.5 -49q-98 0 -118 195q-14 -89 -42.5 -150.5t-69.5 -61.5q-54 0 -89.5 90.5t-35.5 231.5
q0 26 2.5 100t5 138t2.5 66q0 7 6.5 14.5t15.5 7.5zM348 717q12 -34 -10 -56q-36 -32 -94 -62q-9 -5 -12 4q-2 5 5 10q28 20 55 50t40 53q4 7 9 7t7 -6z" />
    <glyph glyph-name="wacute" unicode="&#x1e83;" horiz-adv-x="311" 
d="M40 304q9 0 17.5 -7.5t8.5 -15.5q0 -1 -7 -29t-13.5 -71.5t-6.5 -80.5q0 -46 7.5 -75.5t20.5 -29.5q14 0 28 53t18 105q3 35 3 115q0 13 27 13q15 0 15 -17q0 -2 -4 -27t-7.5 -59.5t-3.5 -60.5q0 -42 9 -74t25 -32t28.5 50t17.5 121q-12 33 -12 84q0 29 5.5 50.5
t12.5 21.5q24 0 24 -113q0 -16 -2 -48q15 -21 32 -21q20 0 35 28t15 60q0 14 9 14t9 -13q0 -37 -19.5 -76t-50.5 -39q-19 0 -32 13q-15 -156 -67 -156q-49 0 -59 85q-20 -104 -58 -104q-28 0 -41.5 32t-13.5 106q0 75 13 179q1 6 6 12.5t11 6.5zM190 491q12 -34 -10 -56
q-36 -32 -94 -62q-9 -5 -12 4q-2 5 5 10q28 20 55 50t40 53q4 7 9 7t7 -6z" />
    <glyph glyph-name="Wdieresis" unicode="&#x1e84;" horiz-adv-x="568" 
d="M61 612q14 0 28.5 -10t14.5 -24q0 -2 -9 -39.5t-17.5 -104t-8.5 -140.5q0 -137 23.5 -213.5t59.5 -76.5q37 0 64 72t38.5 168.5t11.5 196.5q0 15 -1.5 53t-1.5 39q0 14 17 14q22 0 36.5 -6.5t14.5 -14.5q0 -1 -3 -10t-7.5 -29.5t-9.5 -51.5t-8 -86.5t-3 -125.5
q0 -91 23.5 -152t52.5 -61q47 0 91 152.5t44 308.5q0 34 -2 64t-4.5 48t-5.5 31t-5 19.5t-2 7.5q0 11 7 11q27 0 34.5 -46t7.5 -146q0 -71 -10 -151.5t-28.5 -155t-50 -123.5t-68.5 -49q-98 0 -118 195q-14 -89 -42.5 -150.5t-69.5 -61.5q-54 0 -89.5 90.5t-35.5 231.5
q0 26 2.5 100t5 138t2.5 66q0 7 6.5 14.5t15.5 7.5zM242 674q12 0 18.5 -10.5t6.5 -21.5q0 -8 -5.5 -14t-12.5 -6q-10 0 -21.5 7.5t-11.5 19.5q0 8 8 16.5t18 8.5zM322 684q12 0 21 -11t9 -21q0 -8 -7.5 -14t-15.5 -6q-9 0 -18.5 7.5t-9.5 19.5q0 8 5.5 16.5t15.5 8.5z" />
    <glyph glyph-name="wdieresis" unicode="&#x1e85;" horiz-adv-x="311" 
d="M40 304q9 0 17.5 -7.5t8.5 -15.5q0 -1 -7 -29t-13.5 -71.5t-6.5 -80.5q0 -46 7.5 -75.5t20.5 -29.5q14 0 28 53t18 105q3 35 3 115q0 13 27 13q15 0 15 -17q0 -2 -4 -27t-7.5 -59.5t-3.5 -60.5q0 -42 9 -74t25 -32t28.5 50t17.5 121q-12 33 -12 84q0 29 5.5 50.5
t12.5 21.5q24 0 24 -113q0 -16 -2 -48q15 -21 32 -21q20 0 35 28t15 60q0 14 9 14t9 -13q0 -37 -19.5 -76t-50.5 -39q-19 0 -32 13q-15 -156 -67 -156q-49 0 -59 85q-20 -104 -58 -104q-28 0 -41.5 32t-13.5 106q0 75 13 179q1 6 6 12.5t11 6.5zM96 441q12 0 18.5 -10.5
t6.5 -21.5q0 -8 -5.5 -14t-12.5 -6q-10 0 -21.5 7.5t-11.5 19.5q0 8 8 16.5t18 8.5zM176 451q12 0 21 -11t9 -21q0 -8 -7.5 -14t-15.5 -6q-9 0 -18.5 7.5t-9.5 19.5q0 8 5.5 16.5t15.5 8.5z" />
    <glyph glyph-name="uni1EA0" unicode="&#x1ea0;" horiz-adv-x="567" 
d="M70 180q0 9 105 19q72 133 152 361q8 22 8 54q0 4 9 10.5t18 6.5q10 0 38 -16.5t28 -24.5q0 -4 -2.5 -20t-2.5 -30q0 -25 9.5 -117t22.5 -162q13 -67 34 -142.5t40 -110.5q4 -8 8.5 -14t7 -8t4 -4t1.5 -5q0 -7 -19 -7q-22 0 -32.5 9t-21.5 38q-28 65 -51 174
q-103 -14 -230 -19q-118 -224 -201 -224q-35 0 -73 22t-38 45q0 13 10 13q4 0 11 -10q15 -22 63 -22q90 0 191 175h-20h-12q-54 2 -57 9zM332 493q-39 -130 -120 -290q91 7 169 7q27 0 41 -1q-22 114 -59 345q-21 -26 -31 -61zM279 -92q12 0 21 -11t9 -21q0 -8 -7.5 -14
t-15.5 -6q-9 0 -18.5 7.5t-9.5 19.5q0 8 5.5 16.5t15.5 8.5z" />
    <glyph glyph-name="uni1EA1" unicode="&#x1ea1;" horiz-adv-x="227" 
d="M64 -62q12 0 21 -11t9 -21q0 -8 -7.5 -14t-15.5 -6q-9 0 -18.5 7.5t-9.5 19.5q0 8 5.5 16.5t15.5 8.5zM137 292q1 -2 2.5 -5.5t1.5 -4.5h2q6 0 16.5 -5.5t10.5 -9.5q0 -2 -1.5 -6t-4.5 -11.5t-5 -14.5q-4 -14 -10.5 -60.5t-6.5 -67.5q0 -85 29 -85q27 0 52.5 83t25.5 140
q0 13 9 13t9 -13q0 -59 -28.5 -153.5t-65.5 -94.5q-20 0 -34.5 21.5t-18.5 66.5q-10 -47 -24 -76q-15 -32 -42 -32q-55 0 -55 114q0 56 13.5 120.5t32.5 100.5q13 27 32 27q38 0 60 -47zM78 30q39 76 50 222q-9 1 -11 17q-7 37 -22 37q-25 0 -45.5 -87t-20.5 -141
q0 -79 22 -79q11 0 27 31z" />
    <glyph glyph-name="uni1EA2" unicode="&#x1ea2;" horiz-adv-x="567" 
d="M70 180q0 9 105 19q72 133 152 361q8 22 8 54q0 4 9 10.5t18 6.5q10 0 38 -16.5t28 -24.5q0 -4 -2.5 -20t-2.5 -30q0 -25 9.5 -117t22.5 -162q13 -67 34 -142.5t40 -110.5q4 -8 8.5 -14t7 -8t4 -4t1.5 -5q0 -7 -19 -7q-22 0 -32.5 9t-21.5 38q-28 65 -51 174
q-103 -14 -230 -19q-118 -224 -201 -224q-35 0 -73 22t-38 45q0 13 10 13q4 0 11 -10q15 -22 63 -22q90 0 191 175h-20h-12q-54 2 -57 9zM332 493q-39 -130 -120 -290q91 7 169 7q27 0 41 -1q-22 114 -59 345q-21 -26 -31 -61zM427 857q23 0 37 -17t14 -34q0 -21 -24 -44.5
t-48 -44t-24 -34.5q0 -4 1 -6.5t2 -4.5l1 -1q0 -4 -9 1l-2 2q-8 8 -8 17q0 22 21.5 44t43 41t21.5 35q0 21 -27 21q-23 0 -44.5 -19.5t-31.5 -47.5q-4 -11 -8 -11q-12 0 -18.5 7t-5.5 16q2 33 37 56.5t72 23.5z" />
    <glyph glyph-name="uni1EA3" unicode="&#x1ea3;" horiz-adv-x="227" 
d="M137 292q1 -2 2.5 -5.5t1.5 -4.5h2q6 0 16.5 -5.5t10.5 -9.5q0 -2 -1.5 -6t-4.5 -11.5t-5 -14.5q-4 -14 -10.5 -60.5t-6.5 -67.5q0 -85 29 -85q27 0 52.5 83t25.5 140q0 13 9 13t9 -13q0 -59 -28.5 -153.5t-65.5 -94.5q-20 0 -34.5 21.5t-18.5 66.5q-10 -47 -24 -76
q-15 -32 -42 -32q-55 0 -55 114q0 56 13.5 120.5t32.5 100.5q13 27 32 27q38 0 60 -47zM78 30q39 76 50 222q-9 1 -11 17q-7 37 -22 37q-25 0 -45.5 -87t-20.5 -141q0 -79 22 -79q11 0 27 31zM143 554q23 0 37 -17t14 -34q0 -21 -24 -44.5t-48 -44t-24 -34.5q0 -4 1 -6.5
t2 -3.5l1 -2q0 -4 -9 1l-2 2q-8 8 -8 17q0 22 21.5 44t43 41t21.5 35q0 21 -27 21q-23 0 -44.5 -19.5t-31.5 -47.5q-4 -11 -8 -11q-12 0 -18.5 7t-5.5 16q2 33 37 56.5t72 23.5z" />
    <glyph glyph-name="uni1EA4" unicode="&#x1ea4;" horiz-adv-x="567" 
d="M445 881q12 -34 -10 -56q-36 -32 -94 -62q-9 -5 -12 4q-2 5 5 10q28 20 55 50t40 53q4 7 9 7t7 -6zM70 180q0 9 105 19q72 133 152 361q8 22 8 54q0 4 9 10.5t18 6.5q10 0 38 -16.5t28 -24.5q0 -4 -2.5 -20t-2.5 -30q0 -25 9.5 -117t22.5 -162q13 -67 34 -142.5
t40 -110.5q4 -8 8.5 -14t7 -8t4 -4t1.5 -5q0 -7 -19 -7q-22 0 -32.5 9t-21.5 38q-28 65 -51 174q-103 -14 -230 -19q-118 -224 -201 -224q-35 0 -73 22t-38 45q0 13 10 13q4 0 11 -10q15 -22 63 -22q90 0 191 175h-20h-12q-54 2 -57 9zM332 493q-39 -130 -120 -290
q91 7 169 7q27 0 41 -1q-22 114 -59 345q-21 -26 -31 -61zM328 673q28 34 35 70q2 9 15 13.5t18 -3.5q28 -51 62 -76q4 -3 3.5 -7t-4 -5.5t-8.5 0.5q-38 21 -72 49q-16 -26 -36 -51q-3 -5 -8 -4t-6.5 5t1.5 9z" />
    <glyph glyph-name="uni1EA5" unicode="&#x1ea5;" horiz-adv-x="227" 
d="M137 292q1 -2 2.5 -5.5t1.5 -4.5h2q6 0 16.5 -5.5t10.5 -9.5q0 -2 -1.5 -6t-4.5 -11.5t-5 -14.5q-4 -14 -10.5 -60.5t-6.5 -67.5q0 -85 29 -85q27 0 52.5 83t25.5 140q0 13 9 13t9 -13q0 -59 -28.5 -153.5t-65.5 -94.5q-20 0 -34.5 21.5t-18.5 66.5q-10 -47 -24 -76
q-15 -32 -42 -32q-55 0 -55 114q0 56 13.5 120.5t32.5 100.5q13 27 32 27q38 0 60 -47zM78 30q39 76 50 222q-9 1 -11 17q-7 37 -22 37q-25 0 -45.5 -87t-20.5 -141q0 -79 22 -79q11 0 27 31zM52 388q28 34 35 70q2 9 15 13.5t18 -3.5q28 -51 62 -76q8 -6 1 -11
q-4 -4 -10 -1q-38 22 -72 49q-16 -26 -36 -51q-3 -5 -8 -4t-6.5 5t1.5 9zM170 596q12 -34 -10 -56q-36 -32 -94 -62q-9 -5 -12 4q-2 5 5 10q28 20 55 50t40 53q4 7 9 7t7 -6z" />
    <glyph glyph-name="uni1EA6" unicode="&#x1ea6;" horiz-adv-x="567" 
d="M335 838q-13 24 4 42q11 12 16 1q38 -76 91 -106q11 -6 3 -11q-5 -4 -13 -1q-31 11 -61 33t-40 42zM70 180q0 9 105 19q72 133 152 361q8 22 8 54q0 4 9 10.5t18 6.5q10 0 38 -16.5t28 -24.5q0 -4 -2.5 -20t-2.5 -30q0 -25 9.5 -117t22.5 -162q13 -67 34 -142.5
t40 -110.5q4 -8 8.5 -14t7 -8t4 -4t1.5 -5q0 -7 -19 -7q-22 0 -32.5 9t-21.5 38q-28 65 -51 174q-103 -14 -230 -19q-118 -224 -201 -224q-35 0 -73 22t-38 45q0 13 10 13q4 0 11 -10q15 -22 63 -22q90 0 191 175h-20h-12q-54 2 -57 9zM332 493q-39 -130 -120 -290
q91 7 169 7q27 0 41 -1q-22 114 -59 345q-21 -26 -31 -61zM328 673q28 34 35 70q2 9 15 13.5t18 -3.5q28 -51 62 -76q4 -3 3.5 -7t-4 -5.5t-8.5 0.5q-38 21 -72 49q-16 -26 -36 -51q-3 -5 -8 -4t-6.5 5t1.5 9z" />
    <glyph glyph-name="uni1EA7" unicode="&#x1ea7;" horiz-adv-x="227" 
d="M58 553q-13 24 4 42q11 12 16 1q38 -76 91 -106q11 -6 3 -11q-5 -4 -13 -1q-31 11 -61 33t-40 42zM137 292q1 -2 2.5 -5.5t1.5 -4.5h2q6 0 16.5 -5.5t10.5 -9.5q0 -2 -1.5 -6t-4.5 -11.5t-5 -14.5q-4 -14 -10.5 -60.5t-6.5 -67.5q0 -85 29 -85q27 0 52.5 83t25.5 140
q0 13 9 13t9 -13q0 -59 -28.5 -153.5t-65.5 -94.5q-20 0 -34.5 21.5t-18.5 66.5q-10 -47 -24 -76q-15 -32 -42 -32q-55 0 -55 114q0 56 13.5 120.5t32.5 100.5q13 27 32 27q38 0 60 -47zM78 30q39 76 50 222q-9 1 -11 17q-7 37 -22 37q-25 0 -45.5 -87t-20.5 -141
q0 -79 22 -79q11 0 27 31zM52 388q28 34 35 70q2 9 15 13.5t18 -3.5q28 -51 62 -76q8 -6 1 -11q-4 -4 -10 -1q-38 22 -72 49q-16 -26 -36 -51q-3 -5 -8 -4t-6.5 5t1.5 9z" />
    <glyph glyph-name="uni1EA8" unicode="&#x1ea8;" horiz-adv-x="567" 
d="M70 180q0 9 105 19q72 133 152 361q8 22 8 54q0 4 9 10.5t18 6.5q10 0 38 -16.5t28 -24.5q0 -4 -2.5 -20t-2.5 -30q0 -25 9.5 -117t22.5 -162q13 -67 34 -142.5t40 -110.5q4 -8 8.5 -14t7 -8t4 -4t1.5 -5q0 -7 -19 -7q-22 0 -32.5 9t-21.5 38q-28 65 -51 174
q-103 -14 -230 -19q-118 -224 -201 -224q-35 0 -73 22t-38 45q0 13 10 13q4 0 11 -10q15 -22 63 -22q90 0 191 175h-20h-12q-54 2 -57 9zM332 493q-39 -130 -120 -290q91 7 169 7q27 0 41 -1q-22 114 -59 345q-21 -26 -31 -61zM328 673q28 34 35 70q2 9 15 13.5t18 -3.5
q28 -51 62 -76q4 -3 3.5 -7t-4 -5.5t-8.5 0.5q-38 21 -72 49q-16 -26 -36 -51q-3 -5 -8 -4t-6.5 5t1.5 9zM505 912q23 0 37 -17t14 -34q0 -21 -24 -44.5t-48 -44t-24 -34.5q0 -4 1 -6.5t2 -3.5l1 -2q0 -4 -9 1l-2 2q-8 8 -8 17q0 22 21.5 44t43 41t21.5 35q0 21 -27 21
q-23 0 -44.5 -19.5t-31.5 -47.5q-4 -11 -8 -11q-12 0 -18.5 7t-5.5 16q2 33 37 56.5t72 23.5z" />
    <glyph glyph-name="uni1EA9" unicode="&#x1ea9;" horiz-adv-x="227" 
d="M137 292q1 -2 2.5 -5.5t1.5 -4.5h2q6 0 16.5 -5.5t10.5 -9.5q0 -2 -1.5 -6t-4.5 -11.5t-5 -14.5q-4 -14 -10.5 -60.5t-6.5 -67.5q0 -85 29 -85q27 0 52.5 83t25.5 140q0 13 9 13t9 -13q0 -59 -28.5 -153.5t-65.5 -94.5q-20 0 -34.5 21.5t-18.5 66.5q-10 -47 -24 -76
q-15 -32 -42 -32q-55 0 -55 114q0 56 13.5 120.5t32.5 100.5q13 27 32 27q38 0 60 -47zM78 30q39 76 50 222q-9 1 -11 17q-7 37 -22 37q-25 0 -45.5 -87t-20.5 -141q0 -79 22 -79q11 0 27 31zM52 388q28 34 35 70q2 9 15 13.5t18 -3.5q28 -51 62 -76q8 -6 1 -11
q-4 -4 -10 -1q-38 22 -72 49q-16 -26 -36 -51q-3 -5 -8 -4t-6.5 5t1.5 9zM261 543q23 0 37 -17t14 -34q0 -21 -24 -44.5t-48 -44t-24 -34.5q0 -4 1 -6.5t2 -4.5l1 -1q0 -4 -9 1l-2 2q-8 8 -8 17q0 22 21.5 44t43 41t21.5 35q0 21 -27 21q-23 0 -44.5 -19.5t-31.5 -47.5
q-4 -11 -8 -11q-12 0 -18.5 7t-5.5 16q2 33 37 56.5t72 23.5z" />
    </font>
</defs>
</svg>
