<?xml version="1.0" standalone="no"?>
<!DOCTYPE svg PUBLIC "-//W3C//DTD SVG 1.1//EN" "http://www.w3.org/Graphics/SVG/1.1/DTD/svg11.dtd" >
<svg xmlns="http://www.w3.org/2000/svg" xmlns:xlink="http://www.w3.org/1999/xlink" version="1.1">
<metadata>
Created by FontForge 20170731 at Fri May 31 12:27:50 2013
 By Aleksey,,,
Copyright (c) 2005 by Viet Font melodylife195@gmail.com. All rights reserved.
</metadata>
<defs>
<font id="UVFKilkennyPro" horiz-adv-x="348" >
  <font-face 
    font-family="UVF Kilkenny Pro"
    font-weight="400"
    font-stretch="normal"
    units-per-em="1000"
    panose-1="2 0 0 0 0 0 0 0 0 0"
    ascent="800"
    descent="-200"
    x-height="343"
    cap-height="563"
    bbox="-157 -311 1557 882"
    underline-thickness="50"
    underline-position="-150"
    unicode-range="U+0020-FB06"
  />
<missing-glyph horiz-adv-x="125" 
 />
    <glyph glyph-name=".notdef" horiz-adv-x="125" 
 />
    <glyph glyph-name=".null" horiz-adv-x="0" 
 />
    <glyph glyph-name="nonmarkingreturn" horiz-adv-x="500" 
 />
    <glyph glyph-name="space" unicode=" " horiz-adv-x="125" 
 />
    <glyph glyph-name="space" unicode="&#xa0;" horiz-adv-x="125" 
 />
    <glyph glyph-name="exclam" unicode="!" horiz-adv-x="125" 
d="M55 173q0 23 -2.5 55.5t-6 69.5t-8 74t-8 68.5l-6 54t-2.5 29.5q0 17 11.5 30.5t29.5 13.5t29.5 -13.5t11.5 -30.5q0 -7 -2.5 -29.5l-6 -54t-8 -68.5t-8 -73.5t-6 -69.5t-2.5 -56q0 -7 -8 -7t-8 7zM63 72q14 0 22.5 -10.5t8.5 -25.5q0 -17 -6.5 -30.5t-24.5 -13.5
t-26 13.5t-8 30.5q0 15 9.5 25.5t24.5 10.5z" />
    <glyph glyph-name="quotedbl" unicode="&#x22;" horiz-adv-x="171" 
d="M42 462q-2 10 -5.5 27t-7.5 34.5t-6.5 33t-2.5 22.5q0 12 7.5 21.5t20.5 9.5t20.5 -9.5t7.5 -21.5q0 -7 -2.5 -22.5t-6 -33t-7.5 -34.5t-6 -27q0 -5 -6 -5q-5 0 -6 5zM117 462q-2 10 -5.5 27t-7.5 34.5t-6.5 33t-2.5 22.5q0 12 7.5 21.5t20.5 9.5t20.5 -9.5t7.5 -21.5
q0 -7 -2.5 -22.5t-6 -33t-7.5 -34.5t-6 -27q0 -5 -6 -5q-5 0 -6 5z" />
    <glyph glyph-name="numbersign" unicode="#" horiz-adv-x="450" 
d="M272 195h-137l-24 -140q-2 -6 -4 -6h-5.5t-14.5 2q-4 1 -4 8l24 136h-80q-5 0 -7.5 1t-2.5 6v21q0 6 9 6h87l30 171h-79q-5 0 -7.5 1t-2.5 6v21q0 6 9 6h86l25 137q1 9 6 9l17 -2q5 -1 5 -8l-24 -136h136l25 137q1 9 6 9l17 -2q5 -1 5 -8l-24 -136h79q11 0 11 -6v-21
q0 -7 -11 -7h-85l-31 -171h79q11 0 11 -6v-21q0 -7 -11 -7h-85l-24 -140q-2 -6 -4 -6h-5.5t-14.5 2q-4 1 -4 8zM141 229h137l30 171h-136z" />
    <glyph glyph-name="dollar" unicode="$" horiz-adv-x="360" 
d="M151 -5q-28 4 -52 13.5t-41 23t-27 30.5t-10 36q0 27 16.5 46t37.5 19q18 0 29.5 -12t11.5 -30q-4 2 -9 2h-8q-12 0 -20.5 -11t-8.5 -28q0 -26 23 -46.5t58 -28.5v215q-22 10 -42 21.5t-35.5 26.5t-24.5 35t-9 47q0 35 31.5 62t79.5 35v14q0 7 8 7t8 -7v-12q5 1 10.5 1
h10.5h12v11q0 7 8 7t8 -7v-13q49 -7 82 -33.5t33 -61.5q0 -20 -13 -34t-32 -14q-14 0 -22.5 8.5t-8.5 20.5q0 11 5 16.5t10.5 10t10.5 10.5t5 19q0 15 -20 27.5t-50 17.5v-162q25 -9 48.5 -20.5t42 -29t29.5 -42.5t11 -61q0 -24 -10 -46t-27.5 -39.5t-41.5 -29t-52 -15.5
v-113q0 -7 -8 -7t-8 7v111h-12h-10.5t-10.5 1v-112q0 -7 -8 -7t-8 7v114zM302 110q0 33 -25.5 52.5t-60.5 35.5v-190q37 8 61.5 36.5t24.5 65.5zM82 375q0 -30 19.5 -46.5t49.5 -28.5v137q-31 -7 -50 -23.5t-19 -38.5zM188 5q8 0 12 1v198l-33 14v-212q5 -1 10.5 -1h10.5z
M167 294q8 -3 16 -5.5t17 -5.5v158h-12q-5 0 -10.5 -0.5t-10.5 -1.5v-145z" />
    <glyph glyph-name="percent" unicode="%" horiz-adv-x="630" 
d="M132 562q25 0 47.5 -13.5t39 -36.5t26 -55t9.5 -68t-9.5 -67t-26 -54.5t-39 -37t-47.5 -13.5t-47.5 13.5t-39 37t-26 54.5t-9.5 67t9.5 68t26 55t39 36.5t47.5 13.5zM201 369v20q0 31 -2 59.5t-8.5 50.5t-20.5 35t-38 13q-20 0 -33 -10t-20.5 -27t-11 -39t-4.5 -47h62
q5 0 9.5 1.5t6.5 4.5h-5q-17 0 -17 17q0 16 17 16q9 0 15 -6t6 -16q0 -14 -9 -23t-23 -9h-62v-20q0 -30 2 -58t9 -50.5t20.5 -36t37.5 -13.5q22 0 35 10.5t20.5 27.5t10 39.5t3.5 46.5h-61q-12 0 -16 -6h5q6 0 11.5 -5.5t5.5 -11.5q0 -7 -5 -11t-13 -4q-20 0 -20 21
q0 14 9 22.5t23 8.5h61zM472 570q3 4 5 4t3 -1l10 -7q3 -2 3 -4t-1 -3l-333 -571q-2 -3 -4 -3t-3 1l-11 6q-3 1 -3 5q0 2 1 3zM497 342q25 0 47.5 -13.5t39 -36.5t26 -55t9.5 -68t-9.5 -67t-26 -54.5t-39 -37t-47.5 -13.5t-47.5 13.5t-39 37t-26 54.5t-9.5 67t9.5 68t26 55
t39 36.5t47.5 13.5zM566 149v20q0 31 -2 59.5t-8.5 50.5t-20.5 35t-38 13q-20 0 -33 -10t-20.5 -27t-11 -39t-4.5 -47h62q5 0 9.5 1.5t6.5 4.5h-5q-17 0 -17 17q0 16 17 16q9 0 15 -6t6 -16q0 -14 -9 -23t-23 -9h-62v-20q0 -30 2 -58t9 -50.5t20.5 -36t37.5 -13.5
q22 0 35 10.5t20.5 27.5t10 39.5t3.5 46.5h-61q-12 0 -16 -6h5q6 0 11.5 -5.5t5.5 -11.5q0 -7 -5 -11t-13 -4q-20 0 -20 21q0 14 9 22.5t23 8.5h61z" />
    <glyph glyph-name="ampersand" unicode="&#x26;" horiz-adv-x="578" 
d="M35 132q0 34 13 66.5t37 66t58 69t76 76.5q-42 45 -77.5 79.5t-52.5 53.5q-4 4 -4 8q0 11 12 11h276q12 0 12 -11q0 -4 -4 -8q-35 -35 -69 -68.5t-64 -67.5q32 -32 63 -61t57 -56q28 37 63 62t76 25q22 0 39 -6t17 -29q0 -19 -13 -27.5t-27 -8.5q-12 0 -27 6.5t-32 6.5
q-24 0 -44.5 -12t-37.5 -32q42 -44 68 -84t26 -79q0 -38 -12 -65t-30 -47.5t-39 -35.5t-39 -28.5t-30 -27.5t-12 -32q0 -5 -4.5 -6t-6.5 -1q-3 0 -4 5t-2 11t-1 12.5v9.5q0 18 16 37t35.5 43t36 54t16.5 71q0 28 -12.5 59.5t-32.5 65.5q-11 -20 -19.5 -41t-15 -41
t-10.5 -37.5t-6 -30.5q-4 -23 -16 -42.5t-29 -34.5t-38 -23.5t-42 -8.5q-30 0 -56 12.5t-45.5 33.5t-31 49t-11.5 59zM291 125q6 27 19.5 61.5t33.5 67.5q-23 35 -51 70.5t-58 67.5q-58 -66 -95.5 -128.5t-37.5 -119.5q0 -29 7.5 -55t21 -45.5t31.5 -30.5t39 -11
q22 0 37.5 13t15.5 32q0 15 -7.5 22t-16.5 12t-16.5 12t-7.5 21q0 15 10.5 25.5t24.5 10.5q33 0 50 -25zM145 517q40 -49 87 -94q23 22 46.5 45t49.5 49h-183z" />
    <glyph glyph-name="quotesingle" unicode="'" horiz-adv-x="96" 
d="M42 462q-2 10 -5.5 27t-7.5 34.5t-6.5 33t-2.5 22.5q0 12 7.5 21.5t20.5 9.5t20.5 -9.5t7.5 -21.5q0 -7 -2.5 -22.5t-6 -33t-7.5 -34.5t-6 -27q0 -5 -6 -5q-5 0 -6 5z" />
    <glyph glyph-name="parenleft" unicode="(" horiz-adv-x="268" 
d="M93 200q0 -47 4.5 -95t15.5 -94.5t31 -90t50 -82.5q19 -23 36.5 -42t17.5 -24q0 -3 -2.5 -6t-8.5 -3q-3 0 -8 4t-11 9.5t-12 11.5t-9 10q-78 84 -127.5 184t-49.5 218t49.5 218t127.5 184q3 4 9 10t12 11.5t11 9.5t8 4q11 0 11 -10q0 -5 -17.5 -23.5t-36.5 -41.5
q-30 -39 -50 -82.5t-31 -90t-15.5 -94.5t-4.5 -95z" />
    <glyph glyph-name="parenright" unicode=")" horiz-adv-x="268" 
d="M175 200q0 47 -4.5 95t-15.5 94.5t-31 90t-50 82.5q-19 23 -36.5 41.5t-17.5 23.5q0 10 11 10q3 0 8 -4t11 -9.5t12 -11.5t9 -10q78 -84 127.5 -184t49.5 -218t-49.5 -218t-127.5 -184q-3 -4 -9 -10t-12 -11.5t-11 -9.5t-8 -4q-6 0 -8.5 3t-2.5 6q0 5 17.5 24t36.5 42
q30 39 50 82.5t31 90t15.5 94.5t4.5 95z" />
    <glyph glyph-name="asterisk" unicode="*" horiz-adv-x="295" 
d="M125 487q2 6 4 10q-10 5 -19 9t-20 7q-5 1 -9.5 1.5t-9.5 1.5q-1 18 -6.5 31t-10.5 27q8 -3 17.5 -7t20.5 -7q7 -2 19 -4q2 -19 8 -32t11 -27q8 9 23 6q-2 16 -4 30t-10 31q15 11 24 22.5t18 23.5q2 -15 3.5 -29.5t9.5 -31.5q-15 -11 -23.5 -22t-17.5 -24q9 -2 13.5 -10
t1.5 -18q-2 -8 -9.5 -12.5t-17.5 -2.5q2 -15 3.5 -29t9.5 -31q-15 -11 -24 -22.5t-17 -23.5q-2 15 -4 29t-10 31q15 11 24 22.5t18 23.5q-13 3 -16 14q-14 -8 -24 -16.5t-21 -22.5q-5 2 -9.5 3t-9.5 3q-11 3 -21 4l-20 2q11 9 22.5 18t22.5 24q5 -2 10 -3.5t10 -3.5
q10 -2 19.5 -3.5t20.5 -3.5q-2 6 0 12zM163 465q10 -5 18.5 -8.5t19.5 -6.5q4 -1 9.5 -2t11.5 -1q2 -20 7 -32.5t11 -26.5q-11 4 -20.5 8t-20.5 7q-4 1 -8.5 2t-9.5 2q-2 18 -7 31t-11 27zM275 515q-11 -8 -22.5 -16.5t-22.5 -24.5q-5 2 -9 4t-9 3q-11 3 -21.5 4t-21.5 3
q12 9 24 17.5t23 23.5q5 -3 9 -4t8 -3q11 -3 21.5 -4t20.5 -3z" />
    <glyph glyph-name="plus" unicode="+" horiz-adv-x="450" 
d="M211 294q0 6 -6 6h-159q-5 0 -7.5 1t-2.5 6v16q0 6 9 6h160q6 0 6 7v157q0 11 6 11h16q7 0 7 -11v-157q0 -7 6 -7h158q11 0 11 -6v-16q0 -7 -11 -7h-157q-7 0 -7 -7v-163q0 -5 -1 -7.5t-6 -2.5h-16q-6 0 -6 9v165z" />
    <glyph glyph-name="comma" unicode="," horiz-adv-x="125" 
d="M59 72q12 0 19.5 -6.5t11 -16t4.5 -20.5t1 -20q0 -16 -6 -34t-14.5 -33t-18 -24.5t-15.5 -9.5q-5 0 -5 6q0 3 3 6q11 14 17.5 30.5t6.5 45.5q-14 0 -24 12.5t-10 29.5q0 14 8.5 24t21.5 10z" />
    <glyph glyph-name="hyphen" unicode="-" horiz-adv-x="273" 
d="M232 229q6 2 8 -4l4 -11q2 -6 -3 -8l-201 -73q-5 -2 -7 4l-4 11q-3 6 3 8z" />
    <glyph glyph-name="period" unicode="." horiz-adv-x="125" 
d="M64 72q14 0 22.5 -10.5t8.5 -25.5q0 -17 -6.5 -30.5t-24.5 -13.5t-26 13.5t-8 30.5q0 15 9.5 25.5t24.5 10.5z" />
    <glyph glyph-name="slash" unicode="/" horiz-adv-x="237" 
d="M214 577q2 5 7 3l12 -4q5 -2 3 -8l-213 -586q-3 -5 -7 -3l-12 4q-5 1 -3 8z" />
    <glyph glyph-name="zero" unicode="0" horiz-adv-x="360" 
d="M179 456q33 0 61.5 -18t50 -49.5t34 -73t12.5 -89.5t-12.5 -90.5t-34 -74t-50 -49.5t-61.5 -18t-61.5 18t-50 49.5t-34 74t-12.5 90.5t12.5 89.5t34 73t50 49.5t61.5 18zM84 255v-29q0 -41 3.5 -79.5t13.5 -69.5t29 -49.5t49 -18.5q27 0 44.5 14.5t28 38.5t15.5 55t7 65
h-84q-9 0 -16 -5t-9 -11q4 4 10 4q8 0 14.5 -7t6.5 -16q0 -8 -6.5 -14t-15.5 -6q-11 0 -18.5 8.5t-7.5 19.5q0 17 12.5 28.5t29.5 11.5h84v31q0 42 -3.5 80.5t-13.5 68t-28.5 47.5t-49.5 18q-27 0 -44.5 -14t-28 -38t-15.5 -55t-6 -65h85q9 0 16 5t9 11q-3 -2 -4.5 -2.5
t-5.5 -0.5q-9 0 -15.5 6t-6.5 15t7 14.5t16 5.5q11 0 18.5 -8t7.5 -20q0 -17 -12.5 -28t-29.5 -11h-86z" />
    <glyph glyph-name="one" unicode="1" horiz-adv-x="197" 
d="M174 16q8 0 8 -8t-8 -8h-106q-8 0 -8 8t8 8h29v311q-10 7 -10 15q0 7 5 16t5 22v28q-17 -5 -26 -17.5t-9 -27.5q0 -9 1 -18.5t1 -14.5q0 -12 -3 -18t-14 -6q-7 0 -10.5 8t-3.5 20q0 16 11.5 37t29 39.5t37 31t35.5 12.5q4 0 8 -2t4 -6q0 -14 -6.5 -27t-6.5 -37v-366h29z
" />
    <glyph glyph-name="two" unicode="2" horiz-adv-x="330" 
d="M38 0v17q36 30 73 63.5t67 70t48.5 76.5t18.5 84q0 24 -7.5 44.5t-20 36t-29 24.5t-35.5 9q-25 0 -46.5 -8t-37.5 -21.5t-25.5 -32t-9.5 -39.5q0 -35 19.5 -60.5t47.5 -25.5q23 0 33 10t10 23q0 6 -5 12.5t-11 13t-11 14t-5 16.5q0 14 9.5 23.5t22.5 9.5q20 0 33 -17
t13 -41q0 -16 -7 -30t-19 -24.5t-28.5 -16.5t-34.5 -6q-17 0 -32 8t-26 21.5t-17.5 31.5t-6.5 38q0 27 11 51t30 42t44 28.5t54 10.5q30 0 57 -11.5t47 -31t31.5 -46t11.5 -56.5q0 -42 -22 -81t-52.5 -73t-64 -62.5t-56.5 -49.5h156q16 29 22 44.5t15 15.5q10 0 10 -10
q0 -2 -1 -4.5t-2 -4.5l-32 -86h-240z" />
    <glyph glyph-name="three" unicode="3" horiz-adv-x="339" 
d="M150 455q28 0 52.5 -7.5t42.5 -21t28.5 -31t10.5 -37.5q0 -22 -6.5 -37.5t-16 -26t-21 -17t-20.5 -11.5q16 -1 32 -9t29 -22t21.5 -33t8.5 -41q0 -29 -8 -49.5t-22.5 -35.5t-33 -25t-39.5 -17q-38 -13 -66.5 -19.5t-47 -14t-27.5 -20.5t-9 -39q0 -11 -7 -19t-16 -8
q-8 0 -13 8.5t-5 19.5q0 36 35 56t98 43q19 7 37.5 17t32 23.5t22 31.5t8.5 42q0 36 -23.5 62.5t-56.5 26.5q-12 0 -21.5 -3.5t-17.5 -7.5t-14 -7.5t-9 -3.5q-10 0 -10 9q0 4 7.5 10t18 12t21.5 12t19 9q63 28 63 84q0 34 -22.5 57.5t-54.5 23.5q-30 0 -51 -14t-21 -34
q0 -16 6.5 -27.5t6.5 -22.5q0 -14 -9 -24t-23 -10t-24.5 12.5t-10.5 30.5q0 22 10 41t27 33t40 22.5t49 8.5z" />
    <glyph glyph-name="four" unicode="4" horiz-adv-x="339" 
d="M288 16q8 0 8 -8t-8 -8h-106q-8 0 -8 8t8 8h29v90h-168q-18 0 -18 16q0 37 16 74t35.5 72t35.5 68t16 62q0 10 -1 24t-7 22q8 4 16.5 5t16.5 1q31 0 31 -20q0 -50 -21.5 -86t-47.5 -67.5t-47.5 -63t-21.5 -72.5h165v147q0 7 -3 11.5t-3 9.5t6.5 11.5t15 12.5t16 10.5
t10.5 4.5q2 0 4 -0.5t2 -2.5v-204h55q8 0 8 -9v-18q0 -8 -8 -8h-55v-90h29z" />
    <glyph glyph-name="five" unicode="5" horiz-adv-x="327" 
d="M266 450q-25 -68 -116 -68q-26 0 -46 3t-29 6v-97q14 6 33.5 10t37.5 4q35 0 65.5 -12.5t53.5 -34t36 -50t13 -61.5t-12.5 -61.5t-34.5 -49.5t-51.5 -33t-63.5 -12q-28 0 -52 10.5t-42 28.5t-28.5 42t-10.5 51q0 42 26 71t64 29q41 0 70 -24.5t29 -59.5
q0 -25 -13.5 -42.5t-33.5 -17.5q-15 0 -25.5 11t-10.5 26q0 12 5 19t11.5 12t11.5 10.5t5 13.5q0 16 -14.5 26t-34.5 10q-31 0 -52.5 -24.5t-21.5 -59.5q0 -23 8.5 -42.5t23.5 -34.5t35 -23.5t43 -8.5t43 10.5t34.5 28.5t23 42t8.5 52q0 29 -9 55t-25 45t-37 30t-45 11
q-14 0 -24 -1.5t-24 -7.5q-6 -3 -10.5 -6t-9.5 -3q-11 0 -11 17v165q25 -10 58.5 -14.5t60.5 -4.5q21 0 42.5 3t45.5 11z" />
    <glyph glyph-name="six" unicode="6" horiz-adv-x="333" 
d="M17 216q0 39 12 76t34 69.5t51 59t64 45.5q8 4 13 4q7 0 7 -7q0 -4 -6 -8t-14 -9q-59 -44 -81 -102.5t-22 -127.5q0 -29 2.5 -65.5t13 -68.5t31 -54t56.5 -22q22 0 37.5 13t25 32.5t13.5 42t4 41.5q0 51 -19.5 82.5t-44.5 31.5q-27 0 -47 -20t-20 -48q0 -23 8.5 -39
t30.5 -36q-24 5 -42 26.5t-18 47.5q0 19 7.5 35.5t20 29t29.5 20t36 7.5q24 0 45.5 -11t37.5 -29.5t25 -43.5t9 -53q0 -29 -11 -55t-29.5 -45t-44 -30t-53.5 -11q-44 0 -74.5 18.5t-50 49t-28 70.5t-8.5 84z" />
    <glyph glyph-name="seven" unicode="7" horiz-adv-x="324" 
d="M286 450q9 0 11 -8.5t2 -14.5q0 -65 -22 -119.5t-48 -103t-48 -91.5t-22 -85q0 -16 2 -27.5t4 -20.5t4 -16t2 -15q0 -14 -9 -23.5t-23 -9.5q-16 0 -27.5 20.5t-11.5 49.5q0 39 13.5 75t33.5 71t43.5 68t43.5 67t33.5 68t13.5 70h-207q7 -20 11.5 -41t4.5 -38
q0 -12 -6.5 -28t-21.5 -16q-6 0 -10 4t-4 15q0 10 10 25.5t10 41.5q0 11 -4.5 22t-10 20.5t-10 18t-4.5 14.5q0 7 11 7h236z" />
    <glyph glyph-name="eight" unicode="8" horiz-adv-x="346" 
d="M167 455q42 0 72.5 -11.5t58.5 -33.5q2 3 2.5 9t1.5 12t3 10t8 4q7 0 8 -11t1 -20q0 -30 -8 -52t-21.5 -39.5t-32.5 -30.5t-40 -24q22 -9 42 -21t35 -28t24 -37t9 -49q0 -33 -12.5 -59t-33.5 -43.5t-48 -27t-57 -9.5t-59.5 8t-52 24.5t-36.5 43t-14 63.5q0 35 25 63.5
t66 51.5q-70 34 -70 107q0 24 11 42.5t29.5 31.5t41.5 19.5t47 6.5zM292 114q0 24 -14 42t-35.5 32t-48.5 25.5t-53 20.5q-22 -11 -36.5 -21.5t-23.5 -23.5t-12.5 -28.5t-3.5 -36.5q0 -26 8.5 -47.5t24 -37t36.5 -24.5t45 -9q48 0 80.5 30t32.5 78zM196 278q26 12 45.5 28.5
t33.5 39.5q-8 14 -23 28t-33 25t-38 18t-39 7q-15 0 -28.5 -5t-24 -13t-17 -18t-6.5 -21q0 -18 11 -31t29 -23t41.5 -18t48.5 -17z" />
    <glyph glyph-name="nine" unicode="9" horiz-adv-x="346" 
d="M84 273q0 -19 1.5 -42.5t8.5 -44t20.5 -34.5t37.5 -14q20 0 34.5 12t14.5 24t-7.5 25t-7.5 27q0 10 7 17t16 7q14 0 23.5 -12.5t9.5 -30.5q0 -34 -26 -57.5t-64 -23.5q-26 0 -49.5 12t-40.5 32.5t-27 48.5t-10 60q0 37 11.5 69t31 56t45.5 38t56 14q31 0 59 -17t49 -47
t33 -70t12 -85q0 -42 -12 -88t-36.5 -89t-62.5 -81t-89 -63l-10 -4t-7 -2q-8 0 -8 9q0 4 3.5 6t8.5 7q47 35 77 71.5t47 76t23.5 84t6.5 95.5q0 25 -2 57t-11 60t-28 47.5t-53 19.5q-50 0 -67 -40.5t-18 -116.5h79q8 0 15.5 5t9.5 11q-5 -4 -10 -4q-9 0 -15.5 6.5t-6.5 14.5
t6.5 14.5t15.5 6.5q12 0 19.5 -8.5t7.5 -19.5q0 -17 -12.5 -28t-29.5 -11h-79z" />
    <glyph glyph-name="colon" unicode=":" horiz-adv-x="125" 
d="M64 72q14 0 22.5 -10.5t8.5 -25.5q0 -17 -6.5 -30.5t-24.5 -13.5t-26 13.5t-8 30.5q0 15 9.5 25.5t24.5 10.5zM64 332q14 0 22.5 -10.5t8.5 -25.5q0 -17 -6.5 -30.5t-24.5 -13.5t-26 13.5t-8 30.5q0 15 9.5 25.5t24.5 10.5z" />
    <glyph glyph-name="semicolon" unicode=";" horiz-adv-x="125" 
d="M63 332q14 0 22.5 -10.5t8.5 -25.5q0 -17 -6.5 -30.5t-24.5 -13.5t-26 13.5t-8 30.5q0 15 9.5 25.5t24.5 10.5zM59 72q12 0 19.5 -6.5t11 -16t4.5 -20.5t1 -20q0 -16 -6 -34t-14.5 -33t-18 -24.5t-15.5 -9.5q-5 0 -5 6q0 3 3 6q11 14 17.5 30.5t6.5 45.5q-14 0 -24 12.5
t-10 29.5q0 14 8.5 24t21.5 10z" />
    <glyph glyph-name="semicolon" unicode="&#x37e;" horiz-adv-x="125" 
d="M63 332q14 0 22.5 -10.5t8.5 -25.5q0 -17 -6.5 -30.5t-24.5 -13.5t-26 13.5t-8 30.5q0 15 9.5 25.5t24.5 10.5zM59 72q12 0 19.5 -6.5t11 -16t4.5 -20.5t1 -20q0 -16 -6 -34t-14.5 -33t-18 -24.5t-15.5 -9.5q-5 0 -5 6q0 3 3 6q11 14 17.5 30.5t6.5 45.5q-14 0 -24 12.5
t-10 29.5q0 14 8.5 24t21.5 10z" />
    <glyph glyph-name="less" unicode="&#x3c;" horiz-adv-x="450" 
d="M388 454q6 2 7 2q4 0 6 -4l5 -17q0 -5 -8 -8l-308 -113l308 -113q9 -1 9 -9l-6 -14q-2 -5 -7 -5q-4 0 -6 1l-336 124q-7 2 -7 9l-1 16q0 7 7 8z" />
    <glyph glyph-name="equal" unicode="=" horiz-adv-x="450" 
d="M404 384q11 0 11 -6v-16q0 -7 -11 -7h-358q-5 0 -7.5 1t-2.5 6v16q0 6 9 6h359zM404 274q11 0 11 -6v-16q0 -7 -11 -7h-358q-5 0 -7.5 1t-2.5 6v16q0 6 9 6h359z" />
    <glyph glyph-name="greater" unicode="&#x3e;" horiz-adv-x="450" 
d="M400 331q7 -1 7 -8l-1 -16q0 -7 -7 -9l-336 -124q-2 -1 -6 -1q-5 0 -7 5l-6 14q0 8 9 9l308 113l-308 113q-8 3 -8 8l5 17q2 4 6 4q1 0 7 -2z" />
    <glyph glyph-name="question" unicode="?" horiz-adv-x="318" 
d="M154 175q0 41 13.5 71.5t29 59t29 59t13.5 72.5q0 22 -7 42t-18.5 34.5t-27.5 23t-34 8.5q-24 0 -45 -7.5t-37 -20.5t-25 -30.5t-9 -36.5q0 -34 19 -58t46 -24q17 0 29.5 9t12.5 22q0 6 -4.5 11.5t-10.5 12t-10.5 13.5t-4.5 16q0 14 8.5 23t21.5 9q19 0 32.5 -16
t13.5 -39q0 -32 -25.5 -54t-62.5 -22q-33 0 -56.5 28t-23.5 68q0 26 10.5 49t29 40t43.5 27t53 10q29 0 54.5 -11t44.5 -29.5t30 -44t11 -53.5q0 -41 -20 -74.5t-43.5 -64.5t-43.5 -60.5t-20 -62.5q0 -7 -9 -7q-2 0 -4.5 1.5t-2.5 5.5zM161 74q15 0 24 -11t9 -25
q0 -18 -6.5 -32t-26.5 -14q-18 0 -25 14t-7 32q0 14 9 25t23 11z" />
    <glyph glyph-name="at" unicode="@" horiz-adv-x="522" 
d="M264 63q-26 0 -48 12.5t-38 33.5t-24.5 47t-8.5 53q0 24 6.5 50t20.5 47.5t37 35.5t55 14q30 0 44.5 -8t30.5 -22l6 17q0 7 7 7h18q3 0 4.5 -2.5t3.5 -4.5v-270q2 -14 10 -24.5t18 -10.5q15 0 27.5 14t22 38t15 56t5.5 68q0 50 -16.5 94.5t-44.5 77.5t-66 52t-81 19
q-38 0 -70.5 -19.5t-57.5 -53t-39 -78.5t-14 -96q0 -53 14.5 -99.5t39 -81.5t57.5 -55t71 -20q32 0 60 7t58 21q-23 -24 -54 -33t-64 -9q-50 0 -93.5 21t-75.5 57.5t-51 85t-19 104.5q0 55 19 103t51 84t75.5 57t92.5 21q46 0 87 -20.5t71.5 -55.5t48 -82t17.5 -101
q0 -39 -7 -74t-18.5 -60.5t-27 -40.5t-33.5 -15q-25 0 -44.5 16t-22.5 39l-1 14q-14 -15 -36.5 -22.5t-37.5 -7.5zM263 78q29 0 52.5 21.5t23.5 56.5q0 20 -11 38.5t-35 18.5q-11 0 -19.5 -6t-8.5 -17q0 -6 3.5 -11t7 -9.5l7 -9t3.5 -11.5q0 -17 -18 -17q-13 0 -21.5 13
t-8.5 30q0 24 17 38.5t38 14.5q13 0 25 -5.5t21 -12.5q-1 17 -1 25.5t-1 15.5q-5 38 -22 64t-47 26q-24 0 -39.5 -12t-24.5 -30.5t-12.5 -41.5t-3.5 -45q0 -18 2 -41t10 -43.5t22.5 -35t40.5 -14.5z" />
    <glyph glyph-name="A" unicode="A" horiz-adv-x="509" 
d="M328 247h-172l-5 -22h83q23 0 39 -15t16 -38q0 -18 -12.5 -31.5t-30.5 -13.5q-16 0 -27 9.5t-11 23.5q0 11 6 19t15 8q18 0 18 -16q0 -5 -4 -11t-13 -6q-4 0 -7 1q5 -5 10.5 -9t12.5 -4q12 0 20 8.5t8 21.5q0 15 -11.5 26.5t-28.5 11.5h-86q-5 -23 -7.5 -47t-2.5 -48
q0 -27 4 -50.5t12 -48.5h35q8 0 8 -8t-8 -8h-157q-8 0 -8 8t8 8h35q16 56 35 124t35 134.5t26.5 125t10.5 96.5q0 14 -0.5 24.5t-4.5 25.5h-18q-31 0 -57.5 -17t-33.5 -40q7 3 16 3q14 0 23 -8.5t9 -21.5q0 -15 -10.5 -25.5t-25.5 -10.5t-25.5 13t-10.5 32q0 18 9.5 34.5
t25 29t36.5 20t44 7.5h224q8 0 8 -8t-8 -8h-50l114 -530h35q8 0 8 -8t-8 -8h-131q-8 0 -8 8t8 8h35zM218 371q0 -17 15.5 -25.5t30.5 -8.5h45l-44 207h-35q-21 -61 -36.5 -122t-26.5 -124h150l-5 24h-53q-20 0 -38 13.5t-18 35.5q0 17 11 29.5t26 12.5q14 0 23 -8t9 -19
q0 -10 -5 -16.5t-12 -6.5q-16 0 -16 13q0 6 3.5 10.5t8.5 4.5q6 0 8 -2q-4 10 -17 10q-10 0 -17 -8.5t-7 -19.5z" />
    <glyph glyph-name="B" unicode="B" horiz-adv-x="456" 
d="M379 443q0 -45 -27.5 -75.5t-68.5 -42.5q31 -3 58.5 -16.5t48.5 -35t33.5 -49.5t12.5 -60q0 -34 -13.5 -64t-37 -52t-54.5 -35t-66 -13h-228q-8 0 -8 8t8 8h38v530h-38q-8 0 -8 8t8 8h167q27 0 57.5 -5t56.5 -18t43.5 -36t17.5 -60zM131 546v-530h81q70 0 114 38t44 110
q0 24 -6 48.5t-19 45t-33 33.5t-47 13q-19 0 -36 -6.5t-29.5 -18t-19.5 -27t-7 -32.5q0 -26 18 -44.5t44 -18.5q19 0 32 8.5t13 21.5q-10 -4 -18 -4q-13 0 -22 9t-9 22q0 14 10 23t24 9q15 0 26 -11t11 -27q0 -27 -19.5 -46.5t-47.5 -19.5q-32 0 -54.5 23t-22.5 55
q0 27 11.5 45.5t28.5 33t37.5 27.5t37.5 28t28.5 34t11.5 47q0 30 -9.5 51t-25.5 34.5t-37.5 19.5t-46.5 6h-63z" />
    <glyph glyph-name="C" unicode="C" horiz-adv-x="418" 
d="M222 570q26 0 46.5 -6.5t46.5 -6.5q23 0 28 3t9 3q8 0 8 -5q0 -2 -1 -5t-1 -5q0 -18 5.5 -36t12 -35.5t12 -35t5.5 -36.5q0 -29 -11.5 -54.5t-31 -45t-45.5 -31t-55 -11.5q-10 0 -15 1v-136q4 -2 7 -6.5t3 -9.5q0 -8 -5 -13t-13 -5t-13 5t-5 13q0 10 11 16v140
q-30 11 -50.5 35.5t-20.5 56.5q0 35 23 60.5t61 25.5q29 0 48.5 -19t19.5 -51q0 -14 -13 -27t-29 -13t-28 11.5t-12 28.5q0 16 12 26.5t28 10.5q4 0 7 -1t5 -2q-2 11 -14.5 16t-23.5 5q-29 0 -49 -21t-20 -50q0 -35 25.5 -58t60.5 -23q51 0 79.5 36t28.5 90q0 31 -9 58
t-26.5 47t-42.5 32t-58 12q-46 0 -72.5 -28.5t-39.5 -70t-16 -89t-3 -84.5q0 -35 2.5 -82t14.5 -89.5t38.5 -72.5t74.5 -30q30 0 56 12t45.5 32t33 46t18.5 53q2 4 6 4q6 0 6 -5q0 -2 -1.5 -8t-3 -15t-2.5 -18.5t-1 -17.5q0 -26 3 -50.5t10 -44.5q-12 5 -26.5 9.5t-28.5 4.5
q-29 0 -57 -9t-58 -9q-53 0 -90.5 29.5t-62.5 73.5t-36.5 94.5t-11.5 92.5t11.5 92t35.5 93.5t62.5 73t92.5 29.5z" />
    <glyph glyph-name="D" unicode="D" horiz-adv-x="439" 
d="M167 562q28 0 51.5 -1t43.5 -7q47 -15 77.5 -45t48 -67.5t24.5 -79.5t7 -81t-7 -81t-24.5 -79.5t-48 -67.5t-77.5 -45q-20 -6 -43.5 -7t-51.5 -1h-130q-8 0 -8 8t8 8h38v530h-38q-8 0 -8 8t8 8h130zM131 16h36q24 0 48 3t47 11q31 11 48.5 35t26 54t10 63.5t1.5 64.5v69
q0 31 -1.5 64t-10 63t-26 54t-48.5 35q-14 5 -29.5 7.5t-30.5 4.5v-287q0 -18 12.5 -30.5t29.5 -12.5q15 0 26 11t12 25q0 10 -8 16v-2q0 -6 -6 -11.5t-14 -5.5t-15 7t-7 16q0 11 7.5 18t22.5 7q13 0 24 -11.5t11 -30.5q0 -23 -15.5 -38.5t-37.5 -15.5q-24 0 -40.5 15.5
t-16.5 35.5v295q-14 1 -28 1h-28v-530z" />
    <glyph glyph-name="E" unicode="E" horiz-adv-x="436" 
d="M127 380h101q18 0 31 10.5t13 24.5q0 13 -8 22t-19 9q-10 0 -16 -6q6 -2 10.5 -5.5t4.5 -10.5t-5 -12t-12 -5q-8 0 -13.5 6.5t-5.5 16.5q0 13 11 22t26 9q17 0 29.5 -13.5t12.5 -32.5q0 -21 -17 -35.5t-42 -14.5h-101v-32h150q25 0 48 -11t39.5 -29.5t26.5 -44t10 -53.5
q0 -18 -3.5 -34t-7.5 -32t-7.5 -32t-3.5 -33q0 -21 9 -33t9 -20t-7 -9.5t-13 -1.5h-344q-8 0 -8 8t8 8h38v530h-38q-8 0 -8 8t8 8h347q7 0 11.5 -0.5t4.5 -5.5q0 -7 -5.5 -11.5t-5.5 -15.5q0 -15 2.5 -27t2.5 -26q0 -19 -7 -36t-26 -25q1 4 1.5 7.5t0.5 8.5q0 37 -13 59.5
t-35 35t-49.5 16.5t-57.5 4h-77v-166zM127 16h36q46 0 86.5 14t71 38.5t48 57t17.5 69.5q0 25 -8.5 47.5t-23.5 39.5t-35 26.5t-42 9.5q-38 0 -65 -23t-27 -56q0 -31 19 -52.5t46 -21.5q20 0 34.5 15t14.5 36q0 6 -2 11.5t-7 8.5q0 -10 -8.5 -17.5t-19.5 -7.5
q-13 0 -21.5 8.5t-8.5 19.5q0 14 10 23.5t24 9.5q20 0 34 -16.5t14 -39.5q0 -27 -19 -46.5t-45 -19.5q-33 0 -56.5 26t-23.5 63q0 25 16 49h-59v-272z" />
    <glyph glyph-name="F" unicode="F" horiz-adv-x="437" 
d="M313 108q0 5 11 5q19 0 19 -20q0 -8 -5.5 -14t-13.5 -6q-13 0 -19.5 8t-6.5 19v170h-146v-36h65q23 0 39.5 -15t16.5 -36q0 -18 -13 -31t-32 -13q-17 0 -29 11t-12 27q0 8 5.5 13.5t13.5 5.5t13 -5t5 -13q0 -6 -4.5 -10.5t-11.5 -4.5q4 -9 20 -9q13 0 22 8.5t9 20.5
q0 15 -12.5 25.5t-29.5 10.5h-65v-203h38q2 0 5.5 -1.5t3.5 -6.5q0 -4 -3.5 -6t-5.5 -2h-132q-8 0 -8 8t8 8h38v530h-38q-8 0 -8 8t8 8h339q2 0 5.5 -2t3.5 -6q0 -7 -3 -15t-3 -18q0 -29 8.5 -58.5t8.5 -61.5q0 -12 -1 -25.5t-3.5 -26.5t-8 -25t-14.5 -19q0 7 0.5 13.5
t0.5 13.5q0 38 -10 76t-30 69t-51 50t-74 19h-74v-170h65q17 0 29.5 11t12.5 26q0 12 -9 20.5t-22 8.5q-7 0 -11.5 -3t-6.5 -6q4 0 9 -4t5 -10q0 -8 -5 -14t-13 -6t-13.5 6t-5.5 14q0 16 12 27t29 11q19 0 32 -13t13 -31q0 -21 -16.5 -36t-39.5 -15h-65v-36h146v56q0 2 1 5
t6 3t6.5 -3t1.5 -5v-274z" />
    <glyph glyph-name="G" unicode="G" horiz-adv-x="435" 
d="M371 252v-216q11 0 22.5 -5.5t16.5 -17.5q-7 2 -13.5 2h-12.5q-26 0 -43.5 -3.5t-33 -8t-31.5 -8t-38 -3.5q-61 0 -103 29t-67.5 72.5t-36.5 94t-11 94.5q0 42 14 92t41 93.5t68 73t95 29.5q14 0 23 -2t16.5 -4.5t16 -4.5t21.5 -2q24 0 32 3t12 3q7 0 7 -5q0 -2 -1 -4
t-1 -4q0 -20 2.5 -34.5t5.5 -28.5t5.5 -29t2.5 -34q0 -21 -8.5 -40t-23.5 -33.5t-35 -22.5t-43 -8q-19 0 -36 6.5t-29.5 18t-19.5 27t-7 33.5q0 33 21 56.5t50 23.5q24 0 41 -15.5t17 -38.5q0 -14 -9 -23t-22 -9t-22 8.5t-9 19.5q0 29 26 29h5.5t5.5 -2q-2 5 -9 10.5
t-24 5.5q-23 0 -39.5 -19t-16.5 -46q0 -29 22.5 -49.5t54.5 -20.5q34 0 58 26t24 63q0 27 -9 50.5t-24.5 41.5t-36 28t-44.5 10q-46 0 -74.5 -28.5t-44.5 -70t-21.5 -89t-5.5 -84.5q0 -35 5 -82t20.5 -89.5t44 -72.5t76.5 -30q21 0 39 6t37 17v221h-79q-26 0 -45 -15.5
t-19 -37.5q0 -18 10.5 -31t25.5 -13q11 0 15.5 3t6.5 5q-8 0 -16 7t-8 21q0 11 7 18t17 7q12 0 20.5 -9t8.5 -23q0 -18 -15 -30.5t-36 -12.5q-22 0 -37 17t-15 41q0 29 22 49t53 20h172q8 0 8 -8t-8 -8h-31z" />
    <glyph glyph-name="H" unicode="H" horiz-adv-x="483" 
d="M241 235q21 0 36 -15t15 -37q0 -20 -14 -34t-33 -14q-17 0 -29.5 11.5t-12.5 26.5q0 13 8 23.5t24 10.5q11 0 18 -6.5t7 -14.5t-4.5 -12.5t-10.5 -4.5q-5 0 -9.5 3.5t-4.5 9.5q0 7 4 10q-17 0 -17 -19q0 -10 8 -16.5t19 -6.5q14 0 23 9.5t9 23.5q0 16 -10 26.5t-26 10.5
h-110v-204h38q8 0 8 -8t-8 -8h-132q-8 0 -8 8t8 8h38v530h-38q-8 0 -8 8t8 8h132q8 0 8 -8t-8 -8h-38v-235h221v28h-99q-21 0 -36 15t-15 37q0 20 14 34t33 14q17 0 29.5 -11.5t12.5 -26.5q0 -13 -8 -23.5t-24 -10.5q-11 0 -18 6.5t-7 14.5t4.5 12.5t10.5 4.5q5 0 9.5 -3.5
t4.5 -9.5q0 -7 -4 -10q17 0 17 19q0 10 -8 16.5t-19 6.5q-14 0 -23 -9.5t-9 -23.5q0 -16 10 -26.5t26 -10.5h99v192h-38q-8 0 -8 8t8 8h132q8 0 8 -8t-8 -8h-38v-530h38q8 0 8 -8t-8 -8h-132q-8 0 -8 8t8 8h38v250h-221v-31h110z" />
    <glyph glyph-name="I" unicode="I" horiz-adv-x="198" 
d="M33 0q-8 0 -8 8t8 8h38v530h-38q-8 0 -8 8t8 8h132q8 0 8 -8t-8 -8h-38v-530h38q8 0 8 -8t-8 -8h-132z" />
    <glyph glyph-name="J" unicode="J" horiz-adv-x="361" 
d="M290 138q0 -30 -13 -55t-35 -43.5t-49.5 -29t-55.5 -10.5t-52 8.5t-42 25t-28 40t-10 52.5q0 19 7.5 37.5t20.5 33t30.5 23t37.5 8.5q22 0 42.5 -7.5t28.5 -30.5v243q0 13 -9 22t-23 9q-12 0 -20.5 -8t-8.5 -20q0 -9 5.5 -16t13.5 -7q-5 5 -5 12t4.5 12t11.5 5
q10 0 14 -6t4 -14q0 -10 -8.5 -17t-20.5 -7q-13 0 -23.5 11.5t-10.5 26.5q0 18 13 30.5t31 12.5q19 0 33 -14t14 -32v-293q0 -19 -13 -33t-33 -14q-17 0 -31 12.5t-14 30.5q0 20 11.5 32t30.5 12q6 0 13.5 -1t12.5 -5q-7 21 -25 30t-38 9q-17 0 -31.5 -7.5t-25.5 -20
t-17.5 -28t-6.5 -31.5q0 -23 8.5 -41.5t23.5 -32.5t34.5 -21.5t41.5 -7.5q27 0 47 10t33 27t19.5 39t6.5 47v400h-38q-8 0 -8 8t8 8h132q8 0 8 -8t-8 -8h-38v-408z" />
    <glyph glyph-name="K" unicode="K" horiz-adv-x="463" 
d="M127 298l37 3v146q0 17 9.5 28.5t26.5 11.5q12 0 21.5 -8t9.5 -21q0 -8 -4.5 -15t-13.5 -7q-7 0 -12.5 4.5t-5.5 12.5q0 13 14 13q-4 6 -9 6q-11 0 -17 -7.5t-6 -17.5v-143q40 10 71 34.5t51.5 58t31 72t10.5 77.5h-38q-8 0 -8 8t8 8h132q8 0 8 -8t-8 -8h-38
q0 -31 -8.5 -62.5t-24.5 -61t-37.5 -54.5t-47.5 -43l123 -309h33q8 0 8 -8t-8 -8h-132q-8 0 -8 8t8 8h32l-113 278q-20 -9 -45 -12v-151q0 -10 6 -17.5t17 -7.5q5 0 9 6q-14 0 -14 14q0 8 5.5 12t12.5 4q9 0 13.5 -7t4.5 -15q0 -13 -9.5 -20.5t-21.5 -7.5q-17 0 -26.5 11
t-9.5 28v149l-37 -3v-261h38q8 0 8 -8t-8 -8h-132q-8 0 -8 8t8 8h38v530h-38q-8 0 -8 8t8 8h132q8 0 8 -8t-8 -8h-38v-248z" />
    <glyph glyph-name="L" unicode="L" horiz-adv-x="440" 
d="M37 546q-8 0 -8 8t8 8h132q8 0 8 -8t-8 -8h-38v-166h101q18 0 31 10.5t13 24.5q0 13 -8 22t-19 9q-10 0 -16 -6q6 -2 10.5 -5.5t4.5 -10.5t-5 -12t-12 -5q-8 0 -13.5 6.5t-5.5 16.5q0 13 11 22t26 9q17 0 29.5 -13.5t12.5 -32.5q0 -21 -17 -35.5t-42 -14.5h-101v-32h150
q25 0 48 -11t39.5 -29.5t26.5 -44t10 -53.5q0 -18 -3.5 -34t-7.5 -32t-7.5 -32t-3.5 -33q0 -21 9 -33t9 -20t-7 -9.5t-13 -1.5h-344q-8 0 -8 8t8 8h38v530h-38zM131 16h36q46 0 86.5 14t71 38.5t48 57t17.5 69.5q0 25 -8.5 47.5t-23.5 39.5t-35 26.5t-42 9.5q-38 0 -65 -23
t-27 -56q0 -31 19 -52.5t46 -21.5q20 0 34.5 15t14.5 36q0 6 -2 11.5t-7 8.5q0 -10 -8.5 -17.5t-19.5 -7.5q-13 0 -21.5 8.5t-8.5 19.5q0 14 10 23.5t24 9.5q20 0 34 -16.5t14 -39.5q0 -27 -19 -46.5t-45 -19.5q-33 0 -56.5 26t-23.5 63q0 25 16 49h-59v-272z" />
    <glyph glyph-name="M" unicode="M" horiz-adv-x="657" 
d="M256 157q0 -16 -9 -26t-26 -10q-10 0 -17.5 5.5t-7.5 16.5q0 8 5 14t13 6q19 0 19 -18q0 -5 -3 -9q7 2 9.5 8.5t2.5 12.5v102h-115v-243h38q8 0 8 -8t-8 -8h-132q-8 0 -8 8t8 8h38v530h-38q-8 0 -8 8t8 8h86q8 0 8 -8v-61q17 31 46.5 50.5t65.5 19.5q18 0 36 -6t32.5 -17
t25 -26.5t14.5 -33.5q25 41 56 62t82 21q30 0 56 -13t44.5 -34.5t29 -49.5t10.5 -57q0 -43 -15 -83t-33 -79t-33 -78t-15 -81q0 -11 2 -25t7.5 -26.5t14.5 -21t24 -8.5q13 0 24.5 4t18.5 17q-10 -5 -21 -5q-12 0 -19.5 10.5t-7.5 21.5q0 14 9.5 25t24.5 11q17 0 26.5 -12
t9.5 -29q0 -26 -21.5 -41t-45.5 -15q-23 0 -40.5 12t-29 31t-17.5 41t-6 42q0 37 9 71t22 68h-113v-102q0 -6 3 -12.5t10 -8.5q-3 4 -3 9q0 8 5 13t13 5q9 0 13.5 -6t4.5 -14q0 -10 -7 -16t-17 -6q-17 0 -26 10t-9 26v214q0 16 9 26.5t25 10.5q10 0 17.5 -6t7.5 -17
q0 -8 -4.5 -14t-13.5 -6q-18 0 -18 19q0 4 3 9q-7 -2 -10 -9t-3 -13v-61h133q9 26 17.5 52.5t8.5 54.5q0 22 -6.5 43t-19 37.5t-30.5 26.5t-42 10q-23 0 -43.5 -9.5t-35.5 -26.5t-24 -39.5t-9 -47.5v-395h38q8 0 8 -8t-8 -8h-132q-8 0 -8 8t8 8h38v435q0 33 -14 58.5
t-53 25.5q-27 0 -45.5 -11t-30.5 -28.5t-17.5 -40t-5.5 -45.5v-100h115v61q0 6 -2.5 13t-9.5 9q3 -5 3 -9q0 -19 -19 -19q-8 0 -13 6t-5 14q0 11 7.5 17t17.5 6q17 0 26 -10.5t9 -26.5v-214zM400 273h118l9 23h-127v-23zM127 273h115v23h-115v-23z" />
    <glyph glyph-name="N" unicode="N" horiz-adv-x="462" 
d="M181 410q0 26 18.5 44t44.5 18q23 0 40 -16.5t17 -39.5q0 -20 -12.5 -33.5t-29.5 -13.5q-14 0 -24.5 7.5t-10.5 18.5q0 10 6 17t15 7t15 -6t6 -14q0 -3 -1 -7t-3 -7q9 1 17 11.5t8 21.5q0 17 -12.5 28t-30.5 11q-20 0 -33.5 -13.5t-13.5 -33.5v-92h144q9 23 15.5 47
t6.5 50q0 23 -8 44.5t-23 38t-35 26.5t-44 10q-21 0 -42.5 -9.5t-39.5 -25.5t-29 -36t-11 -42v-405h38q8 0 8 -8t-8 -8h-132q-8 0 -8 8t8 8h38v530h-38q-8 0 -8 8t8 8h86q8 0 8 -8v-70q20 35 56.5 57t89.5 22q31 0 58.5 -12.5t48.5 -34t33.5 -49.5t12.5 -58q0 -43 -15 -83
t-33 -79t-33 -78t-15 -81q0 -11 2 -25t7.5 -26.5t14.5 -21t24 -8.5q13 0 24.5 4t17.5 17q-10 -5 -21 -5t-19 10.5t-8 21.5q0 14 9.5 25t24.5 11q17 0 27 -12t10 -29q0 -26 -21.5 -41t-45.5 -15t-41.5 12.5t-29 32t-17 42t-5.5 42.5q0 34 8 65t18 63h-116v-172q0 -8 -8 -8
t-8 8v331zM197 304v-39h123l15 39h-138z" />
    <glyph glyph-name="O" unicode="O" horiz-adv-x="424" 
d="M20 281q0 60 15 112.5t41 92t61 62t75 22.5t75 -22.5t61 -62t41 -92t15 -112.5t-15 -112.5t-40.5 -92t-61 -62t-75.5 -22.5t-75 22.5t-61 62t-41 92t-15 112.5zM92 257h120q23 0 38.5 -15t15.5 -37q0 -18 -12.5 -30.5t-30.5 -12.5q-17 0 -28.5 10.5t-11.5 24.5
q0 13 7 21.5t18 8.5q10 0 16 -5.5t6 -13.5t-5.5 -14t-13.5 -6q-7 0 -10 3q6 -14 22 -14q11 0 19 8.5t8 19.5q0 15 -11 25.5t-27 10.5h-119q1 -32 5.5 -72.5t17 -76t35.5 -60t62 -24.5q43 0 67 29t35.5 71.5t14 89.5t2.5 83v24h-120q-23 0 -38.5 15t-15.5 37q0 18 12.5 30.5
t30.5 12.5q17 0 28.5 -10.5t11.5 -24.5q0 -13 -7 -21.5t-18 -8.5q-10 0 -16 5.5t-6 13.5t5.5 14t13.5 6q7 0 10 -3q-6 14 -22 14q-11 0 -19 -8.5t-8 -19.5q0 -15 11 -25.5t27 -10.5h119q-1 32 -5.5 72.5t-16.5 76t-35 60t-62 24.5q-43 0 -67 -29t-36 -71.5t-14.5 -89.5
t-2.5 -83v-24z" />
    <glyph glyph-name="P" unicode="P" horiz-adv-x="436" 
d="M416 403q0 -29 -11 -55t-29.5 -45.5t-44 -31t-55.5 -11.5q-26 0 -47.5 11.5t-39.5 29.5v-201q0 -21 16.5 -36t39.5 -15q22 0 37 15t15 36q0 18 -12 30.5t-29 12.5q-6 0 -13.5 -2.5t-7.5 -8.5q2 1 5.5 1h5.5q20 0 20 -24q0 -9 -6.5 -15t-16.5 -6q-13 0 -21.5 8t-8.5 19
q0 18 12.5 30.5t30.5 12.5q23 0 39.5 -17t16.5 -41q0 -27 -19.5 -46.5t-47.5 -19.5q-29 0 -50 19.5t-21 46.5v413q0 7 8 7q7 0 7 -7v-93q9 14 27.5 23.5t35.5 9.5q25 0 42.5 -17.5t17.5 -43.5q0 -20 -13 -34t-32 -14q-14 0 -23.5 8.5t-9.5 19.5q0 10 6 16.5t16 6.5
q11 0 17 -7t6 -16q0 -2 -0.5 -4.5t-2.5 -4.5q9 2 15 10t6 19q0 19 -13 32.5t-32 13.5q-33 0 -48 -24t-15 -54q0 -33 19 -56.5t55 -23.5q24 0 40.5 11.5t27 29.5t15.5 39.5t5 42.5q0 29 -6.5 55t-21 45.5t-37.5 31t-55 11.5h-104v-530h38q8 0 8 -8t-8 -8h-132q-8 0 -8 8t8 8
h38v530h-38q-8 0 -8 8t8 8h181q42 0 79 -10t64 -30t43 -49.5t16 -69.5z" />
    <glyph glyph-name="Q" unicode="Q" horiz-adv-x="429" 
d="M20 286q0 59 15 110.5t41.5 90t61.5 61t75 22.5t76 -22.5t62.5 -61t42 -90t15.5 -110.5q0 -45 -9 -87t-24.5 -77t-37.5 -62.5t-48 -44.5q25 -10 37 -25t14 -41q-9 4 -17.5 5t-16.5 1q-11 0 -25 1t-27 5t-24.5 11.5t-18.5 19.5q-40 0 -75 23.5t-61 63t-41 93t-15 114.5z
M213 554q-43 0 -67 -28.5t-35.5 -69.5t-14 -87.5t-2.5 -82.5v-23h119q23 0 37.5 -16t14.5 -36q0 -18 -12 -31.5t-30 -14.5v-109q0 -13 13 -20.5t29 -12.5q22 16 35.5 45t21 65t9.5 76.5t2 78.5v23h-120q-22 0 -36 15.5t-14 36.5q0 18 12 31.5t29 13.5t28.5 -10t11.5 -26
q0 -14 -7 -22t-18 -8q-9 0 -16 5t-7 13t6 14.5t14 6.5q5 0 13 -3q-7 16 -25 16q-12 0 -19.5 -10t-7.5 -21q0 -15 11 -25.5t30 -10.5h115q-1 32 -3 71.5t-12.5 74t-34.5 58t-70 23.5zM95 248q1 -32 4.5 -72.5t14.5 -77.5t33 -62.5t61 -27.5v159q-28 7 -28 33q0 14 6.5 22.5
t17.5 8.5t17.5 -6t6.5 -14q0 -7 -6.5 -13.5t-14.5 -6.5q-7 0 -11 3q5 -5 10 -8.5t13 -3.5q14 0 22.5 9.5t8.5 20.5q0 15 -10 25.5t-26 10.5h-119z" />
    <glyph glyph-name="R" unicode="R" horiz-adv-x="493" 
d="M258 264q-50 13 -73.5 45.5t-23.5 66.5q0 19 7 36t18.5 29.5t27.5 20t34 7.5q27 0 49 -14t22 -50q0 -20 -11.5 -31t-28.5 -11q-15 0 -24.5 10t-9.5 22q0 13 9.5 22.5t24.5 9.5q6 0 13 -2t9 -8q0 14 -14 26t-39 12q-31 0 -52 -23.5t-21 -55.5q0 -18 8.5 -33.5t22.5 -27
t31 -18t34 -6.5q27 0 47.5 11t34.5 29t21.5 41t7.5 48q0 24 -8.5 47t-27 40.5t-48.5 28t-72 10.5h-99v-530h38q8 0 8 -8t-8 -8h-132q-8 0 -8 8t8 8h38v530h-38q-8 0 -8 8t8 8h252q30 0 58.5 -10.5t51 -30t36 -46t13.5 -57.5q0 -35 -12.5 -60.5t-30.5 -43.5t-38.5 -29
t-37.5 -15l113 -254h32q8 0 8 -8t-8 -8h-134q-8 0 -8 8t8 8h32z" />
    <glyph glyph-name="S" unicode="S" horiz-adv-x="432" 
d="M198 570q22 0 40 -4t34.5 -8.5t32.5 -8.5t34 -4q17 0 22.5 8.5t10.5 8.5q7 0 7 -7q0 -6 -4.5 -12t-4.5 -16q0 -18 4.5 -35t4.5 -37q0 -11 -3 -22.5t-9.5 -21t-17.5 -16t-26 -6.5q6 11 10.5 23.5t4.5 22.5q0 29 -12.5 51.5t-32 37.5t-45 22.5t-50.5 7.5q-22 0 -41.5 -7
t-34 -19.5t-23 -29.5t-8.5 -36q0 -21 12 -37.5t29 -28.5t37 -20.5t36 -14.5q36 -14 73 -29.5t66.5 -38t48.5 -54.5t19 -78q0 -35 -15.5 -65.5t-41.5 -53.5t-61.5 -36.5t-75.5 -13.5q-23 0 -40 3.5t-32.5 8t-30 8t-32.5 3.5q-28 0 -50 -11h-1q2 8 3 15.5t1 15.5q0 26 -8 50
t-8 51q0 24 9 44.5t25 36t37 24.5t45 9q19 0 36 -6.5t29.5 -18t19.5 -27t7 -33.5q0 -10 -3.5 -21.5t-10.5 -21.5t-17.5 -16.5t-24.5 -6.5q-16 0 -27.5 10t-11.5 27q0 11 8 19t21 8q11 0 20 -7.5t9 -19.5q0 -9 -3 -18q13 5 19 20t6 27q0 29 -22.5 49t-54.5 20t-55 -23
t-23 -55q0 -33 12.5 -60t34 -46.5t50.5 -30.5t63 -11q31 0 59 10.5t48.5 28.5t32.5 42.5t12 51.5q0 31 -14 54t-36.5 40t-49.5 28.5t-52 20.5q-27 10 -57.5 22.5t-56.5 30.5t-43.5 43.5t-17.5 60.5q0 27 12 50.5t33 41t49.5 27.5t60.5 10z" />
    <glyph glyph-name="T" unicode="T" horiz-adv-x="450" 
d="M291 16q8 0 8 -8t-8 -8h-132q-8 0 -8 8t8 8h38v530q-33 0 -62.5 -17.5t-51 -45t-34.5 -61t-13 -64.5q0 -16 3.5 -32.5t12 -30t21.5 -22.5t31 -9q10 0 17 9q-20 6 -20 25q0 12 7.5 18.5t17.5 6.5q11 0 19 -6t8 -19q0 -22 -16 -33.5t-36 -11.5t-35.5 10t-25.5 25t-15 33.5
t-5 36.5q0 21 4.5 41.5t10.5 41.5t10.5 41.5t4.5 40.5q0 10 -1.5 14.5t-3 7t-3 4t-1.5 5.5t3 6t5 2h352q2 0 5 -2t3 -6t-1.5 -5.5t-3 -4t-3 -7t-1.5 -14.5q0 -20 4.5 -40.5t10.5 -41.5t10.5 -41.5t4.5 -41.5q0 -18 -5 -36.5t-15 -33.5t-25.5 -25t-35.5 -10t-36 11.5
t-16 33.5q0 13 8 19t18 6q11 0 18.5 -6.5t7.5 -18.5q0 -19 -20 -25q5 -9 17 -9q18 0 31 9t21 22.5t11.5 30t3.5 32.5q0 31 -12.5 64.5t-34.5 61t-51 45t-62 17.5v-530h38z" />
    <glyph glyph-name="U" unicode="U" horiz-adv-x="447" 
d="M320 65q-23 -32 -61.5 -52.5t-79.5 -20.5q-33 0 -62 13.5t-50.5 37.5t-34 55.5t-12.5 67.5q0 39 12 77t26 75.5t26 73t12 70.5q0 58 -28 100q22 -7 35.5 -22t20 -35t8.5 -43t2 -46q0 -31 -8 -61.5t-17 -61t-17 -61t-8 -61.5q0 -27 7 -52.5t22 -45.5t37.5 -32.5
t52.5 -12.5q24 0 45.5 9.5t37.5 26.5t25 39t9 48q0 40 -28 68t-68 28q-34 0 -57.5 -23.5t-23.5 -57.5q0 -23 15 -40t36 -17q6 0 8.5 5t2.5 10q0 11 -7 17.5t-7 21.5q0 11 8.5 19.5t20.5 8.5q14 0 23.5 -11t9.5 -26q0 -25 -17 -42.5t-42 -17.5q-27 0 -46.5 21t-19.5 51
q0 40 28 68t68 28q29 0 54 -14t42 -34v332h-38q-8 0 -8 8t8 8h132q8 0 8 -8t-8 -8h-38v-530h38q8 0 8 -8t-8 -8h-86q-8 0 -8 8v57z" />
    <glyph glyph-name="V" unicode="V" horiz-adv-x="517" 
d="M128 546l140 -493l106 371q5 15 7 37t2 37q0 12 -2 26t-7 22h-42q-8 0 -8 8t8 8h157q8 0 8 -8t-8 -8h-30q-10 -14 -19 -30t-16.5 -32.5t-13 -32t-8.5 -27.5l-117 -408h53q8 0 8 -8t-8 -8h-178q-8 0 -8 8t8 8h54l-152 530h-34q-8 0 -8 8t8 8h177q19 0 41 -3t40.5 -13
t31 -27.5t12.5 -45.5q0 -29 -19.5 -49t-46.5 -20q-26 0 -44.5 15.5t-18.5 38.5q0 22 13.5 37t33.5 15q14 0 23.5 -10t9.5 -24q0 -7 -5 -12t-13 -5q-16 0 -16 16q0 5 3.5 9.5t8.5 4.5q-6 6 -11 6q-14 0 -23 -11t-9 -26q0 -17 14 -28t34 -11q21 0 36 15.5t15 38.5q0 22 -9 36
t-23 22.5t-32 11.5t-37 3h-86z" />
    <glyph glyph-name="W" unicode="W" horiz-adv-x="728" 
d="M506 546q-26 0 -43.5 -17t-17.5 -42q0 -22 14.5 -37.5t34.5 -15.5q17 0 29 10.5t12 25.5q0 12 -7 20.5t-18 8.5q6 -6 6 -13t-5 -12t-13 -5t-13 6t-5 14q0 11 9 18t22 7q16 0 27 -13t11 -31q0 -21 -16 -35.5t-39 -14.5q-26 0 -45 19.5t-19 47.5q0 31 22 53t54 22h194
q8 0 8 -8t-8 -8h-37q-16 -45 -33 -89t-28 -87l-93 -354h42q8 0 8 -8t-8 -8h-149q-8 0 -8 8t8 8h61l-106 400l-107 -400h42q8 0 8 -8t-8 -8h-143q-8 0 -8 8t8 8h53l-140 530h-34q-8 0 -8 8t8 8h201q32 0 54 -22t22 -53q0 -29 -19 -48.5t-46 -19.5q-23 0 -38.5 15t-15.5 36
q0 19 11 31.5t27 12.5q13 0 22 -7t9 -18q0 -8 -5 -14t-13 -6q-7 0 -12.5 4.5t-5.5 12.5q0 7 6 13q-11 0 -17.5 -9t-6.5 -20q0 -15 11 -25.5t28 -10.5q21 0 35.5 15.5t14.5 37.5q0 25 -17.5 42t-43.5 17h-108l121 -462l118 441q3 13 11 13q5 0 7.5 -3.5t4.5 -8.5l118 -442
l75 286q7 25 12.5 56.5t5.5 57.5q0 33 -12 62h-76z" />
    <glyph glyph-name="X" unicode="X" horiz-adv-x="516" 
d="M312 270l132 -254h44q8 0 8 -8t-8 -8h-149q-8 0 -8 8t8 8h44l-130 248q-17 -25 -35 -53.5t-33.5 -58t-25.5 -57t-10 -49.5q0 -5 0.5 -14t5.5 -16h44q2 0 5 -1.5t3 -6.5q0 -4 -3 -6t-5 -2h-171q-8 0 -8 8t8 8h34q18 17 39.5 47.5t43.5 66.5t44 73t41 67h-109v-34
q0 -8 -8 -8t-8 8v124q0 8 8 8t8 -8v-34h104l-115 220h-44q-8 0 -8 8t8 8h150q8 0 8 -8t-8 -8h-44l112 -215q12 21 25.5 45.5t25 51.5t19.5 56.5t8 61.5h-44q-8 0 -8 8t8 8h166q8 0 8 -8t-8 -8h-34q-41 -50 -81 -107.5t-67 -112.5h105v34q0 8 8 8t8 -8v-124q0 -8 -8 -8t-8 8
v34h-95z" />
    <glyph glyph-name="Y" unicode="Y" horiz-adv-x="498" 
d="M28 546q-8 0 -8 8t8 8h187q15 0 30.5 -4t28 -13t20 -23t7.5 -35q0 -29 -16 -47.5t-43 -18.5q-18 0 -31.5 12t-13.5 28q0 17 9 23.5t20 6.5t17.5 -6.5t6.5 -16.5q0 -19 -20 -19q-5 0 -10 3t-7 5q2 -11 9.5 -16.5t17.5 -5.5q22 0 34 14.5t12 37.5q0 21 -10 33t-24.5 17.5
t-29.5 7t-25 1.5h-67q7 -42 18.5 -86.5t27 -87.5t36.5 -83.5t48 -74.5q24 39 41 76.5t28.5 77t17 83t6.5 95.5h-48q-8 0 -8 8t8 8h165q8 0 8 -8t-8 -8h-35q-32 -62 -58.5 -126.5t-56.5 -129t-66.5 -126t-87.5 -115.5q14 5 29.5 8.5t31.5 3.5q17 0 33.5 -3.5t33 -7.5
t32.5 -7.5t33 -3.5q40 0 66 24t26 66q0 30 -14.5 54.5t-49.5 24.5q-32 0 -46.5 -16t-14.5 -38q0 -16 11.5 -30.5t30.5 -14.5q5 0 11.5 2.5t7.5 7.5q-9 0 -15.5 6.5t-6.5 16.5q0 14 8 22t19 8q12 0 20 -8.5t8 -21.5q0 -22 -17 -34.5t-35 -12.5q-30 0 -43 19.5t-13 39.5
q0 30 20.5 49t54.5 19q40 0 59.5 -25.5t19.5 -67.5q0 -31 -11.5 -57t-32 -44.5t-47.5 -28.5t-58 -10q-20 0 -40 4t-40.5 9.5t-40.5 9.5t-41 4q-15 0 -23 -2t-12.5 -4.5t-7 -4.5t-7.5 -2q-8 0 -8 8q0 6 5.5 9t10.5 8q32 27 63 58.5t51 70.5q-50 75 -88.5 168t-63.5 221h-47z
" />
    <glyph glyph-name="Z" unicode="Z" horiz-adv-x="457" 
d="M103 16q47 3 102.5 9.5t103.5 23.5t80 48.5t32 85.5q0 16 -4.5 32t-14 29.5t-23.5 22t-33 8.5q-29 0 -51.5 -19t-22.5 -48q0 -20 15 -37t36 -17q16 0 30 9t14 24q-7 -7 -23 -7q-10 0 -18 7t-8 23q0 14 10.5 21.5t21.5 7.5q15 0 24 -13.5t9 -29.5q0 -29 -19 -42.5
t-41 -13.5q-29 0 -47 19.5t-18 48.5q0 37 25 59t63 22q21 0 38 -9.5t29 -24.5t18 -34t6 -38q0 -21 -5.5 -40t-11.5 -36.5t-11.5 -32.5t-5.5 -27q0 -10 7 -20t7 -18q0 -9 -17 -9h-376q-4 0 -4 3q0 2 1.5 5l3.5 7l315 531h-48q-33 0 -69.5 -7.5t-68 -24t-52 -44t-20.5 -66.5
q0 -23 15 -41t38 -18q25 0 38.5 15t13.5 34q0 8 -6 16.5t-15 8.5q1 -3 1 -8q0 -9 -6.5 -15.5t-15.5 -6.5q-14 0 -19 8.5t-5 16.5q0 12 10 20t22 8q23 0 36 -15t13 -33q0 -26 -16.5 -45t-51.5 -19q-21 0 -34.5 9t-21.5 22t-11.5 28.5t-3.5 29.5t3.5 27t8 25t8 23t3.5 23
q0 8 -4 18t-4 14q0 8 6 10.5t13 2.5h322q4 0 4 -4q0 -2 -1.5 -5.5t-3.5 -6.5z" />
    <glyph glyph-name="bracketleft" unicode="[" horiz-adv-x="180" 
d="M1 200q0 8 6 14t14 6q5 0 10 -3v369q0 8 8 8h86q19 0 25 13q-8 -3 -13 -3q-8 0 -13.5 6.5t-5.5 14.5t6.5 13.5t15.5 5.5q11 0 18 -8.5t7 -22.5q0 -15 -12 -25.5t-28 -10.5h-38v-751h38q16 0 28 -11.5t12 -26.5q0 -14 -7 -22.5t-18 -8.5q-9 0 -15.5 5.5t-6.5 13.5
t5.5 14.5t13.5 6.5q5 0 13 -3q-7 15 -25 15h-86q-8 0 -8 8v365q-6 -2 -10 -2q-8 0 -14 6t-6 14z" />
    <glyph glyph-name="backslash" unicode="\" horiz-adv-x="100" 
d="M166 -9q2 -7 -3 -8l-12 -4q-4 -2 -7 3l-213 586q-2 6 3 8l12 4q5 2 7 -3z" />
    <glyph glyph-name="bracketright" unicode="]" horiz-adv-x="180" 
d="M179 200q0 -8 -6 -14t-14 -6q-4 0 -10 2v-365q0 -8 -8 -8h-86q-18 0 -25 -15q7 3 13 3q8 0 13.5 -6.5t5.5 -14.5t-6.5 -13.5t-15.5 -5.5q-11 0 -18 8.5t-7 22.5q0 15 12 26.5t28 11.5h38v751h-38q-16 0 -28 10.5t-12 25.5q0 14 7 22.5t18 8.5q9 0 15.5 -5.5t6.5 -13.5
t-5.5 -14.5t-13.5 -6.5q-6 0 -13 3q6 -13 25 -13h86q8 0 8 -8v-369q4 3 10 3q8 0 14 -6t6 -14z" />
    <glyph glyph-name="asciicircum" unicode="^" horiz-adv-x="450" 
d="M365 292q2 -6 2 -7q0 -4 -4 -6l-17 -5q-5 0 -8 8l-113 308l-113 -308q-1 -9 -9 -9l-14 6q-5 2 -5 7q0 4 1 6l124 336q3 8 9 8h16q7 0 8 -7z" />
    <glyph glyph-name="underscore" unicode="_" horiz-adv-x="500" 
d="M500 -51v-23h-500v23h500z" />
    <glyph glyph-name="grave" unicode="`" horiz-adv-x="375" 
d="M81 488q0 11 8 18.5t20 7.5q15 0 21.5 -8.5t13.5 -22.5q9 -20 22.5 -38t35.5 -40q1 -2 1 -4q0 -7 -6 -7t-21.5 9t-33 21t-32 24t-18.5 17q-11 11 -11 23z" />
    <glyph glyph-name="a" unicode="a" horiz-adv-x="350" 
d="M161 345q21 0 43 -4t40 -14.5t29.5 -28.5t11.5 -46v-236h23q8 0 8 -8t-8 -8h-64q-7 0 -7 8v39q-19 -29 -44 -40t-64 -11q-54 0 -79 20t-25 56v108q0 13 8 13q7 0 13 -7.5t19 -14.5q10 -5 20.5 -9t23.5 -4q17 0 25 5t11.5 12t4.5 16t2.5 16t7 12t17.5 5q8 0 13 -6t5 -15
q0 -10 -7.5 -20.5t-19 -18.5t-26 -13.5t-29.5 -5.5q-17 0 -41 6v-76q0 -33 18.5 -49t50.5 -16q40 0 68 25.5t28 66.5v174q0 15 -7 25.5t-18 17t-24.5 9.5t-26.5 3q-12 0 -27 -3t-27.5 -10t-21 -17t-8.5 -23q0 -17 2.5 -23t2.5 -7q0 -4 -3 -4q-1 0 -6 2.5t-12 6.5l-14 8
t-11 7q-1 1 -1 4q0 15 10 28.5t27 23.5t40 15.5t49 5.5z" />
    <glyph glyph-name="b" unicode="b" horiz-adv-x="374" 
d="M104 301q17 21 40 32.5t49 11.5q33 0 61 -15.5t48 -40t31 -56t11 -62.5q0 -32 -10 -64t-29.5 -57.5t-47.5 -42t-64 -16.5q-14 0 -25.5 2l-23 4t-23.5 4t-26 2q-11 0 -16.5 -1t-14.5 -1q-3 0 -5.5 3.5t-2.5 5.5v502q-5 -1 -13.5 -1.5t-14.5 -0.5q-8 0 -8 9q0 2 1.5 5
t6.5 3q21 0 41 6.5t29 6.5q4 0 6 -5v-234zM193 331q-37 0 -63 -24.5t-26 -59.5q0 -33 20.5 -56.5t49.5 -23.5q20 0 37.5 13t17.5 33q0 11 -6 19.5t-15 8.5q-8 0 -14 -5t-15 -5t-15 4.5t-6 11.5q0 11 10.5 19.5t24.5 8.5q21 0 36 -17.5t15 -42.5q0 -26 -20.5 -44t-49.5 -18
q-20 0 -40.5 11t-29.5 26v-167q17 -6 36.5 -10t38.5 -4q33 0 54 13.5t33 36t17 51.5t5 61q0 48 -9 79t-23 49t-31 25t-32 7z" />
    <glyph glyph-name="c" unicode="c" horiz-adv-x="343" 
d="M306 262q-13 -11 -24.5 -22.5t-24 -22t-26.5 -17t-31 -6.5q-13 0 -24.5 8t-11.5 22q6 -7 15 -12.5t20 -5.5q9 0 18 5t16 12.5t11.5 16.5t4.5 17q0 30 -21.5 52t-50.5 22q-37 0 -63 -39.5t-26 -121.5q0 -44 7.5 -75t21 -50.5t32 -28.5t39.5 -9q41 0 70.5 23.5t31.5 58.5
q-4 -2 -11.5 -2h-12.5q-11 0 -18.5 9t-7.5 23q0 12 9 20.5t22 8.5q16 0 26.5 -13.5t10.5 -33.5q0 -23 -9.5 -43t-26 -35t-38 -23.5t-46.5 -8.5q-34 0 -64 14t-52 38.5t-34.5 57t-12.5 69.5t12 69t32.5 56t48 38t59.5 14q42 0 78 -23.5t51 -61.5z" />
    <glyph glyph-name="d" unicode="d" horiz-adv-x="379" 
d="M176 336q-27 0 -45 -14t-28.5 -37t-14.5 -53t-4 -61q0 -24 3 -52.5t13.5 -53t30 -40.5t51.5 -16q23 0 39 13.5t26 36t14.5 51.5t4.5 61q-11 -8 -25.5 -15t-30.5 -7q-27 0 -45.5 18.5t-18.5 45.5q0 19 8 34.5t25 15.5q10 0 16.5 -7t6.5 -15t-4.5 -13.5t-9.5 -10.5
t-9.5 -10t-4.5 -12q0 -14 10.5 -23t25.5 -9q26 0 41 21.5t15 48.5q0 19 -6.5 37.5t-18.5 33t-28.5 23.5t-36.5 9zM314 16h29q8 0 8 -8t-8 -8h-69q-8 0 -8 8v20q-9 -9 -16.5 -16t-17 -11.5t-23 -7t-33.5 -2.5q-40 0 -68.5 18t-47 45t-27 58.5t-8.5 58.5q0 31 11 63t31 58
t47.5 42t61.5 16q19 0 45.5 -8t44.5 -26v196q-5 -1 -13.5 -1.5t-14.5 -0.5q-8 0 -8 9q0 2 1.5 5t6.5 3q21 0 41 6.5t29 6.5q2 0 4 -1.5t2 -3.5v-519z" />
    <glyph glyph-name="e" unicode="e" 
d="M89 113q3 -20 9.5 -39.5t17 -34.5t25.5 -24.5t36 -9.5q35 0 61 16t41 59q2 7 7 7q4 0 4.5 -7.5t2.5 -12.5l12 -60q-7 2 -15 2h-13q-27 0 -51.5 -9t-52.5 -9q-33 0 -60.5 16.5t-47 42t-30 57.5t-10.5 64q0 31 10 63t29.5 58t46.5 42t62 16q28 0 53.5 -12.5t44.5 -32
t30.5 -44t11.5 -48.5zM84 174v-20.5t2 -21.5l107 50q27 13 41.5 33t14.5 52q0 29 -23 49t-53 20q-27 0 -44.5 -16t-27 -40.5t-13.5 -53t-4 -52.5z" />
    <glyph glyph-name="f" unicode="f" horiz-adv-x="235" 
d="M151 551q22 0 42.5 -13t20.5 -37q0 -11 -7.5 -19.5t-19.5 -8.5q-11 0 -19.5 8.5t-8.5 19.5q0 14 11 20.5t19 6.5q-5 4 -14.5 8t-15.5 4q-19 0 -32.5 -10.5t-13.5 -32.5v-158h84q7 0 7 -7v-197q1 1 3.5 3t7.5 2q9 0 14.5 -6t5.5 -15q0 -8 -6 -13.5t-14 -5.5q-13 0 -19 8
t-6 19v184h-77v-295h29q8 0 8 -8t-8 -8h-106q-8 0 -8 8t8 8h29v295h-29q-8 0 -8 7v14q0 7 8 7h29v122q0 42 17.5 66t68.5 24z" />
    <glyph glyph-name="g" unicode="g" horiz-adv-x="356" 
d="M25 178q0 30 11 57t30.5 47.5t45.5 33t56 14.5l-1 72q0 11 7.5 19t18.5 8q10 0 16.5 -6.5t6.5 -15.5t-6 -15t-14 -6q-5 0 -7.5 1t-4.5 3l-1 -60q31 -1 58 -13.5t47 -33t31.5 -47.5t11.5 -58t-12 -58.5t-33 -48t-49 -32.5t-60 -12q-30 0 -58 11q-6 -5 -11 -12.5t-5 -15.5
q0 -20 26.5 -33t65.5 -18q63 -8 93.5 -29t30.5 -61q0 -32 -27.5 -54t-66.5 -22q-33 0 -55.5 16t-28.5 38l41 23q9 -60 64 -60q24 0 41 15.5t17 37.5q0 21 -15 35.5t-56 14.5q-31 0 -59 2t-52 9t-44 21t-34 39q14 14 31.5 28.5t31.5 31.5q-37 19 -59.5 54.5t-22.5 79.5z
M83 178q0 -73 27.5 -104.5t66.5 -31.5q41 0 68.5 31.5t27.5 104.5q0 39 -7 65.5t-19 42t-28.5 22.5t-35.5 8l-1 -70q0 -7 -7 -7q-6 0 -6 7l-1 70q-18 -2 -33.5 -9t-27 -23t-18 -42t-6.5 -64z" />
    <glyph glyph-name="h" unicode="h" horiz-adv-x="384" 
d="M65 512q-5 -1 -13.5 -1.5t-14.5 -0.5q-8 0 -8 9q0 2 1.5 5t6.5 3q21 0 41 6.5t29 6.5q2 0 4 -1.5t2 -3.5v-241q15 25 43.5 40.5t63.5 15.5q45 0 72 -26t27 -77v-231h29q8 0 8 -8t-8 -8h-106q-8 0 -8 8t8 8h29v231q0 32 -12.5 53.5t-47.5 21.5q-22 0 -40 -6.5t-31 -17.5
t-20 -24.5t-7 -26.5v-231h29q8 0 8 -8t-8 -8h-106q-8 0 -8 8t8 8h29v496z" />
    <glyph glyph-name="i" unicode="i" horiz-adv-x="178" 
d="M65 313q-5 -1 -13.5 -1.5t-14.5 -0.5q-8 0 -8 9q0 2 1.5 5t6.5 3q21 0 41 6.5t29 6.5q2 0 4 -1.5t2 -3.5v-320h29q8 0 8 -8t-8 -8h-106q-8 0 -8 8t8 8h29v297zM91 490q13 0 20.5 -9.5t7.5 -21.5q0 -14 -6 -25.5t-22 -11.5q-17 0 -22.5 11t-5.5 26q0 12 8 21.5t20 9.5z
" />
    <glyph glyph-name="j" unicode="j" horiz-adv-x="178" 
d="M91 490q13 0 20.5 -9.5t7.5 -21.5q0 -14 -6 -25.5t-22 -11.5q-17 0 -22.5 11t-5.5 26q0 12 8 21.5t20 9.5zM65 313q-5 -1 -13.5 -1.5t-14.5 -0.5q-8 0 -8 9q0 2 1.5 5t6.5 3q21 0 41 6.5t29 6.5q2 0 4 -1.5t2 -3.5v-427q0 -13 -6 -27.5t-16 -26.5t-23 -20t-26 -8
q-10 0 -10 10q0 6 4.5 8.5t6.5 5.5q22 22 22 44v418z" />
    <glyph glyph-name="k" unicode="k" horiz-adv-x="381" 
d="M191 178q-34 -7 -78 -7v-155h29q8 0 8 -8t-8 -8h-106q-8 0 -8 8t8 8h29v496q-5 -1 -13.5 -1.5t-14.5 -0.5q-8 0 -8 9q0 2 1.5 5t6.5 3q21 0 41 6.5t29 6.5q2 0 4 -1.5t2 -3.5v-350q22 0 48.5 4.5t49.5 15t38.5 27.5t15.5 41v11.5t-2 10.5q-3 3 -3 8q0 2 3 2.5t5 2.5
q11 8 18 18t7 23q0 24 -19 39.5t-43 15.5q-17 0 -33.5 -11.5t-16.5 -32.5q5 0 8.5 3t11.5 3q12 0 20 -8t8 -19t-8 -19.5t-20 -8.5q-20 0 -29 14.5t-9 31.5q0 13 6.5 24t17 19t22.5 12t24 4q39 0 66 -27.5t27 -67.5q0 -42 -24 -75t-59 -58l91 -172h25q3 0 5 -3t2 -5
q0 -8 -7 -8h-108q-8 0 -8 8t8 8h26z" />
    <glyph glyph-name="l" unicode="l" horiz-adv-x="178" 
d="M65 512q-5 -1 -13.5 -1.5t-14.5 -0.5q-8 0 -8 9q0 2 1.5 5t6.5 3q21 0 41 6.5t29 6.5q2 0 4 -1.5t2 -3.5v-519h29q8 0 8 -8t-8 -8h-106q-8 0 -8 8t8 8h29v496z" />
    <glyph glyph-name="m" unicode="m" horiz-adv-x="589" 
d="M65 313q-5 -1 -13.5 -1.5t-14.5 -0.5q-8 0 -8 9q0 2 1.5 5t6.5 3q21 0 41 6.5t29 6.5q2 0 4 -1.5t2 -3.5v-42q15 25 43.5 40.5t63.5 15.5q34 0 60.5 -17t34.5 -50q11 32 41.5 49.5t69.5 17.5q43 0 70.5 -26t27.5 -77v-231h29q8 0 8 -8t-8 -8h-106q-8 0 -8 8t8 8h29v231
q0 32 -12.5 53.5t-46.5 21.5q-22 0 -40 -6.5t-31 -17.5t-20 -24.5t-7 -26.5v-231h29q8 0 8 -8t-8 -8h-106q-8 0 -8 8t8 8h29v231q0 32 -12.5 53.5t-47.5 21.5q-22 0 -40 -6.5t-31 -17.5t-20 -24.5t-7 -26.5v-231h29q8 0 8 -8t-8 -8h-106q-8 0 -8 8t8 8h29v297z" />
    <glyph glyph-name="n" unicode="n" horiz-adv-x="384" 
d="M65 313q-5 -1 -13.5 -1.5t-14.5 -0.5q-8 0 -8 9q0 2 1.5 5t6.5 3q21 0 41 6.5t29 6.5q2 0 4 -1.5t2 -3.5v-42q15 25 43.5 40.5t63.5 15.5q45 0 72 -26t27 -77v-231h29q8 0 8 -8t-8 -8h-106q-8 0 -8 8t8 8h29v231q0 32 -12.5 53.5t-47.5 21.5q-22 0 -40 -6.5t-31 -17.5
t-20 -24.5t-7 -26.5v-231h29q8 0 8 -8t-8 -8h-106q-8 0 -8 8t8 8h29v297z" />
    <glyph glyph-name="o" unicode="o" horiz-adv-x="374" 
d="M186 336q-29 0 -48 -14t-30 -37t-15.5 -53t-4.5 -61q0 -32 4.5 -61.5t15.5 -53t30 -37.5t48 -14q30 0 49 13.5t30 34.5t15 45.5t4 46.5q0 32 -22 54t-53 22q-14 0 -29.5 -6.5t-15.5 -23.5q0 -9 6.5 -13.5t14.5 -9t14.5 -10t6.5 -15.5q0 -22 -22 -22q-20 0 -31 16t-11 33
q0 29 19 47t48 18q21 0 43 -12.5t36 -26.5q0 22 -5 46.5t-16.5 45.5t-31 34.5t-49.5 13.5zM186 350q36 0 65 -16t50 -42t32 -58t11 -63q0 -32 -11 -64t-32 -57.5t-50 -42t-65 -16.5q-35 0 -64 16.5t-49.5 42t-31.5 57.5t-11 64q0 31 11 63t31.5 58t49.5 42t64 16z" />
    <glyph glyph-name="p" unicode="p" horiz-adv-x="367" 
d="M197 331q-29 0 -45.5 -12t-25 -33t-11 -50t-2.5 -63q11 8 25.5 15.5t30.5 7.5q26 0 45 -18.5t19 -46.5q0 -18 -8.5 -34t-25.5 -16q-10 0 -16 7t-6 15q0 7 4.5 13t9.5 11t9.5 10.5t4.5 12.5q0 14 -10.5 23t-25.5 9q-27 0 -40.5 -22.5t-13.5 -47.5q0 -19 6 -37.5t17 -33
t26 -23.5t33 -9q25 0 41 14t25 36.5t12 52t3 61.5q0 22 -4 49.5t-13.5 51.5t-25 40.5t-38.5 16.5zM197 345q30 0 56 -15t44.5 -39.5t29 -55.5t10.5 -62q0 -35 -10 -67t-28 -57t-44 -39.5t-58 -14.5q-23 0 -46 7t-38 26v-162h29q8 0 8 -8t-8 -8h-106q-8 0 -8 8t8 8h29v447
q-5 -1 -13.5 -1.5t-14.5 -0.5q-8 0 -8 9q0 2 1.5 5t6.5 3q21 0 41 6.5t29 6.5q4 0 6 -5v-28q17 17 37.5 27t46.5 10z" />
    <glyph glyph-name="q" unicode="q" horiz-adv-x="362" 
d="M249 27q-13 -18 -37 -25t-47 -7q-35 0 -61 16t-43.5 41.5t-26.5 57t-9 63.5q0 30 8.5 60.5t26 56t43.5 41.5t62 16q19 0 31.5 -2t21 -6.5t15.5 -11t16 -15.5l5 21q1 2 3 5t6 3h26q5 0 6.5 -3t1.5 -5v-467h29q8 0 8 -8t-8 -8h-106q-8 0 -8 8t8 8h29v161zM165 333
q-25 0 -41 -17t-25 -41.5t-12 -52t-3 -49.5q0 -32 3 -61.5t12 -52t25 -36.5t41 -14q20 0 35 10t25.5 25t15.5 33t5 35q0 25 -13 47.5t-41 22.5q-14 0 -25 -9t-11 -23q0 -7 4.5 -12.5t9.5 -10.5t9.5 -11t4.5 -13q0 -8 -6 -15t-16 -7q-17 0 -25.5 16t-8.5 34q0 28 19 46.5
t46 18.5q16 0 30.5 -7.5t25.5 -15.5q0 31 -3.5 60t-13 51.5t-26 35.5t-41.5 13z" />
    <glyph glyph-name="r" unicode="r" horiz-adv-x="287" 
d="M189 350q32 0 55 -21t23 -52q0 -21 -12 -38.5t-33 -17.5q-7 0 -11 2.5t-6 4.5v-286q2 5 12 5q8 0 13.5 -6t5.5 -15t-6 -15t-13 -6q-14 0 -20 8.5t-6 19.5v314q0 10 5.5 16.5t12.5 12.5t12.5 12.5t5.5 15.5q0 13 -12 22.5t-26 9.5q-16 0 -29.5 -10t-24 -25t-16.5 -32.5
t-6 -33.5v-219h29q8 0 8 -8t-8 -8h-106q-8 0 -8 8t8 8h29v297q-5 -1 -13.5 -1.5t-14.5 -0.5q-8 0 -8 9q0 2 1.5 5t6.5 3q21 0 41 6.5t29 6.5q4 0 6 -5v-32q12 17 28 31.5t48 14.5z" />
    <glyph glyph-name="s" unicode="s" horiz-adv-x="335" 
d="M153 350q32 0 60 -7.5t49 -7.5q8 0 13 1t10 1q3 0 3 -3q-9 -14 -17.5 -32t-14.5 -35q-12 33 -36 51t-67 18q-31 0 -52.5 -15.5t-21.5 -37.5q0 -25 21 -35t53 -15q25 -4 52.5 -9.5t51 -18t38.5 -34.5t15 -59q0 -25 -11 -47t-31 -38.5t-49.5 -26t-65.5 -9.5q-27 0 -50 7.5
t-40.5 21t-27.5 31.5t-10 38q0 29 19.5 49.5t48.5 20.5q26 0 45.5 -16.5t19.5 -42.5q0 -18 -10.5 -31t-25.5 -13q-11 0 -19 8t-8 19q0 6 2.5 10.5t5 8.5t5 8.5t2.5 12.5t-8.5 14t-19.5 6q-18 0 -30.5 -15.5t-12.5 -38.5q0 -17 9 -32.5t24.5 -27t36 -18t44.5 -6.5
q25 0 47 5.5t38.5 17t26.5 29t10 40.5q0 24 -10.5 38.5t-27 23t-38 13t-43.5 7.5q-22 4 -43 9t-37 14t-26 24t-10 39q0 18 9 33.5t24.5 27t36 18t43.5 6.5z" />
    <glyph glyph-name="t" unicode="t" horiz-adv-x="278" 
d="M113 350q20 -2 42 -5t42 -3q8 0 15 2.5t12 2.5t5 -5q-4 -16 -7 -33t-3 -34q0 -12 2.5 -22.5t2.5 -12.5q0 -5 -9 -5q-5 0 -9 16t-4 39q0 5 -1.5 11.5t-6.5 6.5q-19 0 -39.5 3.5t-41.5 5.5v-251q0 -29 16 -41.5t42 -12.5q27 0 46.5 19t19.5 48q0 12 -9.5 18t-21 10.5t-21 9
t-9.5 14.5q0 9 6.5 14.5t14.5 5.5q21 0 38.5 -17t17.5 -53q0 -41 -26 -62.5t-61 -21.5q-17 0 -35 3.5t-32.5 11.5t-24 21.5t-9.5 33.5v252q-17 -1 -28.5 -14t-11.5 -29q-8 0 -11.5 7.5t-3.5 15.5q0 10 5.5 19.5t13.5 17t17.5 12.5t18.5 5v75q-5 -1 -13.5 -1.5t-14.5 -0.5
q-8 0 -8 9q0 2 1.5 5t6.5 3q21 0 41 6.5t29 6.5q4 0 6 -5v-101z" />
    <glyph glyph-name="u" unicode="u" horiz-adv-x="383" 
d="M347 16q3 0 5 -3t2 -5q0 -8 -7 -8h-71q-2 0 -4.5 2.5t-2.5 5.5v39q-14 -25 -42 -40.5t-63 -15.5q-45 0 -72 26.5t-27 77.5v221q-5 -1 -13.5 -1.5t-14.5 -0.5q-8 0 -8 9q0 2 1.5 5t6.5 3q21 0 41 6.5t29 6.5q2 0 4 -1.5t2 -3.5v-244q0 -33 12 -54.5t46 -21.5q22 0 40 7
t31 17.5t20 24t7 27.5v221q-5 -1 -13.5 -1.5t-14.5 -0.5q-8 0 -8 9q0 2 1.5 5t6.5 3q21 0 41 6.5t29 6.5q2 0 4 -1.5t2 -3.5v-323h30z" />
    <glyph glyph-name="v" unicode="v" horiz-adv-x="370" 
d="M231 320q-3 3 -3 5q0 5 6 5q4 0 7.5 -2t10.5 -5t17.5 -5t28.5 -2q17 0 26.5 3.5t12.5 3.5q8 0 8 -8q0 -5 -13 -9t-27 -6q5 -15 8.5 -31.5t3.5 -34.5q0 -64 -29.5 -118.5t-74.5 -99.5h31q8 0 8 -8t-8 -8h-147q-8 0 -8 8t8 8h30q-38 42 -64.5 90.5t-26.5 108.5
q0 25 5.5 45.5t19.5 46.5q-21 2 -41 14.5t-20 39.5q0 18 11.5 30t32.5 12q11 0 19.5 -6.5t8.5 -16.5t-6.5 -16.5t-15.5 -6.5q-8 0 -14.5 5.5t-6.5 13.5q0 2 0.5 6t3.5 6q-11 0 -15 -9t-4 -18q0 -11 6 -18t13.5 -11t15.5 -5.5t12 -1.5q23 0 44.5 5.5t42.5 5.5q28 0 46 -12.5
t18 -46.5q0 -11 -9.5 -20t-22.5 -9q-11 0 -20.5 8t-9.5 19t7 20.5t21 9.5q6 0 7.5 -1t4.5 -1q0 11 -12.5 15t-21.5 4q-20 0 -33.5 -9t-22.5 -23.5t-13 -32t-4 -35.5q0 -61 31 -111t76 -87q45 32 66.5 82t21.5 103q0 15 -1 28t-6 26t-14.5 26.5t-25.5 30.5z" />
    <glyph glyph-name="w" unicode="w" horiz-adv-x="573" 
d="M164 340q12 0 24.5 -5t22.5 -13.5t16.5 -20t6.5 -25.5t-8 -24.5t-21 -10.5q-8 0 -16.5 6.5t-8.5 15.5q0 10 6 18t17 8q7 0 10 -2q0 18 -15.5 25t-31.5 7q-19 0 -33.5 -10.5t-24 -26t-14 -34.5t-4.5 -35q0 -57 24.5 -102.5t66.5 -82.5q21 14 38 37.5t28.5 50t17.5 54.5
t6 51q0 13 -2.5 29.5t-6 31t-6 25t-2.5 12.5q0 5 3 5.5t6 0.5q6 0 12.5 -1t16.5 -1q9 0 18 1t14 1q2 0 5.5 -0.5t3.5 -5.5q0 -2 -3 -12.5t-7 -25t-7 -31t-3 -29.5q0 -57 25 -111t69 -93q19 12 34 30t25.5 39t16.5 43t6 41q0 37 -16.5 75t-45.5 74q-3 3 -3 6q0 5 6 5
q4 0 7.5 -2t10.5 -5t17.5 -5t28.5 -2q17 0 30 3.5t16 3.5q8 0 8 -8q0 -5 -13 -9t-27 -6q9 -20 14.5 -47t5.5 -47q0 -28 -8.5 -54t-22 -50t-31 -45.5t-35.5 -40.5h31q8 0 8 -8t-8 -8h-146q-8 0 -8 8t8 8h31q-20 23 -40 53.5t-34 59.5q-11 -32 -33 -59.5t-42 -53.5h30
q8 0 8 -8t-8 -8h-138q-8 0 -8 8t8 8h31q-35 38 -56.5 88t-21.5 102q0 23 5 49.5t16 48.5q-24 0 -44 12.5t-20 38.5q0 17 10.5 30.5t29.5 13.5q12 0 21.5 -6.5t9.5 -19.5q0 -8 -4.5 -15t-12.5 -7q-6 0 -14 3t-8 16q0 3 0.5 6.5t2.5 6.5q-8 0 -14.5 -9.5t-6.5 -18.5
q0 -13 12.5 -24.5t27.5 -11.5q13 0 25 3.5l24 7t26.5 7t34.5 3.5z" />
    <glyph glyph-name="x" unicode="x" horiz-adv-x="366" 
d="M181 166q-26 -35 -46.5 -73.5t-31.5 -76.5h29q8 0 8 -8t-8 -8h-112q-8 0 -8 8t8 8h24q7 12 20.5 31t30.5 41t37 46t40 47l-76 135q-12 -2 -18 -2.5t-12 -0.5q-12 0 -14.5 3t-2.5 6q0 4 4 5.5t10 2.5t13 2t13 3q11 3 26.5 11t22.5 8q5 0 5 -5q0 -6 -4 -11l68 -120
q23 31 38 58t15 38q0 5 -2 10t-2 9q0 7 9 7q8 0 19 -4.5t23 -6.5q19 -3 35 -3q9 0 9 -6t-5.5 -9t-12.5 -6q-19 -9 -33 -18t-26.5 -20.5t-26 -27t-31.5 -36.5l107 -187h29q8 0 8 -8t-8 -8h-112q-8 0 -8 8t8 8h27z" />
    <glyph glyph-name="y" unicode="y" horiz-adv-x="401" 
d="M29 401q14 0 23 -7.5t9 -18.5q0 -9 -6 -15.5t-14 -6.5t-14 6t-6 14q0 7 4 15q-21 -5 -21 -27q0 -17 13.5 -29.5t33.5 -12.5q16 0 31 4t29.5 9t29.5 9t30 4q32 0 55 -18t23 -44q0 -17 -10 -29.5t-24 -12.5t-24.5 9t-10.5 23q0 13 8.5 23.5t20.5 10.5q8 0 14 -3l3 3
q-8 14 -21.5 19t-28.5 5q-19 0 -36.5 -5.5t-34.5 -14.5q5 -78 29.5 -142.5t82.5 -115.5q42 36 65 89t23 107q0 17 -4.5 31.5t-10.5 25.5t-10.5 17.5t-4.5 8.5q0 7 5 7q4 0 14.5 -4.5t30.5 -8.5q12 -2 27 -2h31q3 0 3 -4q0 -6 -12 -18.5t-22 -30.5q-4 -8 -11 -26t-14 -37.5
t-13 -36t-7 -21.5q-14 -38 -39.5 -69.5t-54 -61.5t-56 -61t-45.5 -67q8 8 22.5 11t28.5 3q15 0 29 -4t28 -8.5t28 -8t29 -3.5q20 0 35.5 9.5t15.5 32.5q0 3 -3 6q0 -5 -5 -9t-15 -4q-11 0 -16.5 7.5t-5.5 15.5q0 7 6.5 14.5t17.5 7.5q34 0 34 -44q0 -20 -10.5 -34
t-26.5 -23.5t-35 -14t-35 -4.5q-21 0 -36 4.5t-27 10t-23 10t-25 4.5q-12 0 -18 -4t-10 -8.5t-6.5 -8t-7.5 -3.5q-3 0 -4.5 3t-1.5 6t2 9t3 8q17 39 43 71.5t55 66.5q-58 63 -86 136t-38 158q-26 0 -45 17t-19 40q0 17 11 28.5t28 11.5z" />
    <glyph glyph-name="z" unicode="z" horiz-adv-x="338" 
d="M84 14h55q24 0 52.5 4t53.5 15t41.5 30.5t16.5 51.5q0 18 -10.5 31t-30.5 13q-7 0 -14.5 -2.5t-12.5 -9.5q10 0 19.5 -6.5t9.5 -17.5q0 -8 -6 -15t-15 -7q-12 0 -18.5 9.5t-6.5 20.5q0 18 14 29t31 11q26 0 41 -20t15 -43q0 -20 -7.5 -40.5t-7.5 -39.5q0 -8 2.5 -14
t6.5 -14h-298l243 321q-5 5 -15 6t-18 1q-20 0 -45.5 -4.5t-49 -15t-39.5 -27.5t-16 -43q0 -11 5 -21l9 -18q-21 2 -32.5 19t-11.5 37q0 14 4 27t4 26q0 8 -1.5 13t-4.5 11q11 0 21.5 -4t22.5 -4q34 3 68.5 11t70.5 8q24 0 47.5 -7t45.5 -18z" />
    <glyph glyph-name="braceleft" unicode="{" horiz-adv-x="200" 
d="M160 644q11 0 18 -8.5t7 -22.5q0 -15 -12 -25.5t-28 -10.5h-38v-278q0 -12 -0.5 -28.5t-4.5 -32t-12 -26.5t-23 -13q15 -2 23 -13t12 -26.5t4.5 -32t0.5 -28.5v-273h38q16 0 28 -11.5t12 -26.5q0 -14 -7 -22.5t-18 -8.5q-9 0 -15.5 5.5t-6.5 13.5t5.5 14.5t13.5 6.5
q5 0 13 -3q-7 15 -25 15h-86q-8 0 -8 8v282q0 11 -1 27.5t-5.5 31.5t-14.5 25.5t-29 10.5v10q19 0 29 8t14.5 21.5t5.5 30.5t1 35v287q0 8 8 8h86q19 0 25 13q-8 -3 -13 -3q-8 0 -13.5 6.5t-5.5 14.5t6.5 13.5t15.5 5.5z" />
    <glyph glyph-name="bar" unicode="|" horiz-adv-x="500" 
d="M232 770h35v-1030h-35v1030z" />
    <glyph glyph-name="braceright" unicode="}" horiz-adv-x="200" 
d="M40 644q9 0 15.5 -5.5t6.5 -13.5t-5.5 -14.5t-13.5 -6.5q-6 0 -13 3q6 -13 25 -13h86q8 0 8 -8v-287q0 -18 1 -35t5.5 -30.5t14.5 -21.5t29 -8v-10q-19 0 -29 -10.5t-14.5 -25.5t-5.5 -31.5t-1 -27.5v-282q0 -8 -8 -8h-86q-18 0 -25 -15q7 3 13 3q8 0 13.5 -6.5
t5.5 -14.5t-6.5 -13.5t-15.5 -5.5q-11 0 -18 8.5t-7 22.5q0 15 12 26.5t28 11.5h38v273q0 12 0.5 28.5t4.5 32t12 26.5t23 13q-15 2 -23 13t-12 26.5t-4.5 32t-0.5 28.5v278h-38q-16 0 -28 10.5t-12 25.5q0 14 7 22.5t18 8.5z" />
    <glyph glyph-name="asciitilde" unicode="~" horiz-adv-x="450" 
d="M34 328q14 14 38 23.5t45 9.5q30 0 57.5 -10t53.5 -22t51 -22t52 -10q19 0 35 5t29 19q5 5 8 5q2 0 4 -2l12 -11q2 -2 2 -4q0 -4 -5 -9q-14 -14 -38 -23.5t-45 -9.5q-30 0 -57.5 10t-53.5 22t-51.5 22t-52.5 10q-18 0 -34 -5t-29 -18q-5 -5 -7 -5t-5 3l-12 11q-1 1 -1 4
t4 7z" />
    <glyph glyph-name="exclamdown" unicode="&#xa1;" horiz-adv-x="124" 
d="M68 112q0 -23 2.5 -55.5t6 -69.5t8 -74t8 -68.5l6 -54t2.5 -29.5q0 -17 -11.5 -30.5t-29.5 -13.5t-29.5 13.5t-11.5 30.5q0 7 2.5 29.5l6 54t8 68.5t8 73.5t6 69.5t2.5 56q0 7 8 7t8 -7zM60 213q-14 0 -22.5 10.5t-8.5 25.5q0 17 6.5 30.5t24.5 13.5t26 -13.5t8 -30.5
q0 -15 -9.5 -25.5t-24.5 -10.5z" />
    <glyph glyph-name="cent" unicode="&#xa2;" horiz-adv-x="450" 
d="M203 113q-54 16 -88.5 63.5t-34.5 110.5q0 31 9 59t25.5 50.5t39 38.5t49.5 22v106q0 7 8 7t8 -7v-103q5 1 9.5 1.5t9.5 0.5h7t8 -1v102q0 7 8 7t8 -7v-104q40 -8 66 -32.5t26 -56.5q0 -20 -11.5 -34t-28.5 -14q-14 0 -23 8.5t-9 21.5q0 9 3.5 15l7 12t7 12.5t3.5 16.5
q0 12 -11.5 21t-29.5 14v-320q28 5 46 22t18 40q0 12 -8.5 20.5t-20.5 8.5h-7t-10 -2q0 18 12 30.5t29 12.5q20 0 33 -14.5t13 -38.5q0 -18 -8 -34t-22.5 -29t-33.5 -21t-41 -11v-127q0 -7 -8 -7t-8 7v126q-19 0 -34 3v-129q0 -7 -8 -7t-8 7v133zM143 287q0 -60 16.5 -98
t43.5 -55v304q-26 -14 -43 -51.5t-17 -99.5zM219 126q8 -2 15.5 -3.5t18.5 -1.5v325q-5 1 -15 1t-19 -3v-318z" />
    <glyph glyph-name="sterling" unicode="&#xa3;" horiz-adv-x="360" 
d="M308 161q21 0 36 -20.5t15 -49.5q0 -22 -11 -41.5t-30.5 -33.5t-45.5 -22.5t-56 -8.5q-29 0 -48 4.5t-34.5 10t-29.5 10t-33 4.5q-17 0 -26 -3t-15 -6.5t-9.5 -6.5t-8.5 -3q-7 0 -7 9q0 8 12.5 16.5t20.5 15.5q22 17 33.5 51.5t11.5 68.5q0 14 -2 27t-5 26h-59q-4 0 -8 3
t-4 9q0 5 4 7.5t8 2.5h53q-10 32 -21.5 61.5t-11.5 59.5q0 21 11.5 39.5t31.5 32t47 21.5t58 8q29 0 55 -7.5t45.5 -21t30.5 -31.5t11 -38t-13 -34t-31 -14q-14 0 -23 8.5t-9 21.5q0 11 5 16.5t11 9.5t11 10t5 19q0 18 -28.5 31t-69.5 13q-45 0 -73 -18t-28 -44
q0 -18 6 -34.5t14 -33.5t17.5 -35t17.5 -40h67q4 0 8 -2.5t4 -7.5q0 -6 -4 -9t-8 -3h-61q2 -12 4 -25.5t2 -27.5q0 -31 -14 -58.5t-40 -44.5q18 5 27 6.5t17 1.5q21 0 35.5 -5.5t28 -12.5t28.5 -12.5t35 -5.5q29 0 49.5 19.5t20.5 46.5q0 11 -9 18t-22 7q-14 0 -25 -8.5
t-13 -21.5q-7 5 -12 14t-5 17q0 18 16.5 31t39.5 13z" />
    <glyph glyph-name="yen" unicode="&#xa5;" horiz-adv-x="400" 
d="M218 240v-32h112q7 0 7 -7q0 -8 -7 -8h-112v-177h32q7 0 7 -8t-7 -8h-110q-8 0 -8 8t8 8h32v177h-119q-8 0 -8 8q0 7 8 7h119v22l-6 10h-113q-8 0 -8 8t8 8h105l-92 178h-36q-8 0 -8 8t8 8h122q9 0 9 -8t-9 -8h-36l90 -171q13 19 24 36t20 35q11 24 16 48.5t5 50.5h-36
q-9 0 -9 9q0 8 9 8h135q9 0 9 -8q0 -9 -9 -9h-28q-22 -28 -36.5 -53.5t-36.5 -59.5q-10 -17 -21 -32.5t-23 -31.5h105q7 0 7 -8t-7 -8h-112z" />
    <glyph glyph-name="brokenbar" unicode="&#xa6;" horiz-adv-x="500" 
d="M232 770h35v-465h-35v465zM232 205h35v-465h-35v465z" />
    <glyph glyph-name="section" unicode="&#xa7;" horiz-adv-x="360" 
d="M344 144q0 -28 -13.5 -51.5t-36.5 -41.5q9 -14 14.5 -30t5.5 -37q0 -25 -11 -47.5t-30 -39t-44.5 -26t-54.5 -9.5q-30 0 -57 8.5t-47 22.5t-31.5 33.5t-11.5 41.5q0 28 16.5 46.5t37.5 18.5q17 0 29 -12t12 -30q-5 2 -10 2h-7q-13 0 -21 -11t-8 -28t7.5 -31t21 -25
t31.5 -17t38 -6q19 0 36 7.5t29.5 20.5t20 30.5t7.5 37.5q0 24 -18.5 39t-46.5 26.5t-60.5 23t-60.5 28t-46.5 41.5t-18.5 65q0 26 15.5 48t42.5 37q-13 14 -20.5 32t-7.5 43q0 21 10 39.5t27.5 32t40.5 21.5t50 8q60 0 91.5 -29t31.5 -69q0 -20 -13.5 -34t-31.5 -14
q-13 0 -22 8.5t-9 21.5q0 11 5 16.5t10.5 9.5t10.5 10t5 18q0 20 -18.5 34t-59.5 14q-36 0 -61.5 -19.5t-25.5 -46.5q0 -29 19 -44.5t47.5 -24.5t62 -17.5t62 -24t47.5 -43.5t19 -77zM297 131q0 32 -22.5 49.5t-55 29.5t-68.5 23.5t-63 32.5q-31 -20 -31 -51q0 -34 24 -52
t58.5 -30.5t72 -25.5t64.5 -36q21 27 21 60z" />
    <glyph glyph-name="dieresis" unicode="&#xa8;" horiz-adv-x="375" 
d="M227 490q14 0 21.5 -10t7.5 -22q0 -15 -6 -26.5t-23 -11.5q-16 0 -21.5 11.5t-5.5 26.5q0 12 7.5 22t19.5 10zM148 490q13 0 20.5 -10t7.5 -22q0 -15 -6 -26.5t-22 -11.5t-22 11.5t-6 26.5q0 12 7.5 22t20.5 10z" />
    <glyph glyph-name="copyright" unicode="&#xa9;" horiz-adv-x="629" 
d="M94 280q0 -130 59 -201.5t161 -71.5q103 0 162 71.5t59 201.5q0 131 -59 202.5t-162 71.5q-102 0 -161 -71.5t-59 -202.5zM35 280q0 60 19.5 113t55.5 92t87.5 62t116.5 23t117 -23t88 -62t55.5 -92t19.5 -113t-19.5 -112.5t-55.5 -91.5t-88 -62t-117 -23t-116.5 23
t-87.5 62t-55.5 91.5t-19.5 112.5zM161 283q0 41 13 77.5t36 63.5t53 43t65 16q26 0 48.5 -9t39.5 -25t27 -36.5t10 -44.5q0 -25 -11 -40t-33 -15q-19 0 -28.5 7t-9.5 27q0 10 5 16t10.5 11.5t10.5 13.5t5 23q0 23 -21.5 39.5t-52.5 16.5q-23 0 -42 -14.5t-33 -40t-22 -59
t-8 -70.5q0 -38 7 -72t20 -60t32.5 -41t43.5 -15q40 0 59 19t19 50q0 13 -10 23t-24 10q-3 0 -8.5 -0.5t-10.5 -2.5q0 20 13.5 34.5t33.5 14.5q22 0 36.5 -19t14.5 -47q0 -20 -9.5 -38t-26.5 -31.5t-39.5 -21t-47.5 -7.5q-35 0 -65 16t-52 43.5t-35 65t-13 79.5z" />
    <glyph glyph-name="ordfeminine" unicode="&#xaa;" horiz-adv-x="297" 
d="M142 545q17 0 35 -3.5t32.5 -12.5t23.5 -24.5t9 -39.5v-189h22q8 0 8 -8t-8 -8h-52q-2 0 -5 1.5t-3 5.5v27q-14 -21 -39.5 -29.5t-48.5 -8.5q-35 0 -60.5 13.5t-25.5 32.5v105q0 11 8 11q3 0 7 -4.5t11 -10t17.5 -10t27.5 -4.5q22 0 27.5 8.5t6 19t2 19t16.5 8.5
q6 0 10.5 -4.5t4.5 -10.5q0 -22 -19.5 -37.5t-47.5 -15.5q-16 0 -32 4v-59q0 -27 15.5 -38.5t41.5 -11.5q13 0 27 5t25.5 13t18.5 19.5t7 23.5v154q0 25 -20.5 34.5t-41.5 9.5q-11 0 -23 -2t-22.5 -7t-17.5 -13t-7 -19q0 -14 2 -19t2 -6q0 -3 -2 -3t-15 7.5t-21 12.5
q-1 1 -1 3q0 26 30.5 43.5t74.5 17.5zM41 190q-8 0 -8 7v14q0 7 8 7h214q8 0 8 -7v-14q0 -7 -8 -7h-214z" />
    <glyph glyph-name="guillemotleft" unicode="&#xab;" horiz-adv-x="256" 
d="M66 176l52 -121l-14 -8q-8 10 -22 25.5t-28.5 32t-26.5 30.5t-17 22v40q5 7 17 21t26.5 30.5t28.5 32t22 24.5l14 -7zM174 176l52 -121l-14 -8q-8 10 -22 25.5t-28.5 32t-26.5 30.5t-17 22v40q5 7 17 21t26.5 30.5t28.5 32t22 24.5l14 -7z" />
    <glyph glyph-name="logicalnot" unicode="&#xac;" horiz-adv-x="450" 
d="M386 294q0 6 -6 6h-334q-5 0 -7.5 1t-2.5 6v16q0 6 9 6h359q11 0 11 -6v-193q0 -5 -1 -7.5t-6 -2.5h-16q-6 0 -6 9v165z" />
    <glyph glyph-name="registered" unicode="&#xae;" horiz-adv-x="500" 
d="M40 397q0 36 12 67.5t34.5 55t54 37t70.5 13.5t71 -13.5t54.5 -37t35 -55t12.5 -67.5q0 -35 -12.5 -66.5t-35 -54.5t-54.5 -36.5t-71 -13.5t-70.5 13.5t-54 36.5t-34.5 54.5t-12 66.5zM81 397q0 -76 33 -115.5t97 -39.5q67 0 100 41h-65q-2 0 -4 1.5t-2 4.5q0 4 2 5.5
t4 1.5h15l-40 105q-14 5 -22 17t-8 28q0 5 3.5 8.5t8.5 3.5q14 0 14 -13q0 -5 -1 -8.5t-1 -8.5q0 -8 6.5 -13.5t17.5 -5.5q17 0 26.5 13t9.5 29q0 19 -12.5 34.5t-39.5 15.5h-43v-205h15q2 0 4 -1.5t2 -5.5q0 -3 -2 -4.5t-4 -1.5h-62q-2 0 -4.5 1.5t-2.5 4.5q0 4 2.5 5.5
t4.5 1.5h15v205h-15q-2 0 -4.5 1t-2.5 6q0 3 2.5 4.5t4.5 1.5h90q39 0 58.5 -17t19.5 -40q0 -17 -10.5 -33t-30.5 -22l40 -106h20q23 38 23 101q0 157 -132 157q-130 0 -130 -157z" />
    <glyph glyph-name="macron" unicode="&#xaf;" horiz-adv-x="375" 
d="M101 440q-8 0 -8 7v14q0 7 8 7h174q8 0 8 -7v-14q0 -7 -8 -7h-174z" />
    <glyph glyph-name="macron" unicode="&#x2c9;" horiz-adv-x="375" 
d="M101 440q-8 0 -8 7v14q0 7 8 7h174q8 0 8 -7v-14q0 -7 -8 -7h-174z" />
    <glyph glyph-name="degree" unicode="&#xb0;" horiz-adv-x="128" 
d="M14 405q0 21 14.5 36t34.5 15q21 0 36 -15t15 -36q0 -20 -15 -34.5t-36 -14.5q-20 0 -34.5 14.5t-14.5 34.5zM32 405q0 -14 9 -23.5t22 -9.5q14 0 23.5 9.5t9.5 23.5q0 15 -9.5 25t-23.5 10q-13 0 -22 -10t-9 -25z" />
    <glyph glyph-name="plusminus" unicode="&#xb1;" horiz-adv-x="450" 
d="M211 294q0 6 -6 6h-159q-5 0 -7.5 1t-2.5 6v16q0 6 9 6h160q6 0 6 7v157q0 11 6 11h16q7 0 7 -11v-157q0 -7 6 -7h158q11 0 11 -6v-16q0 -7 -11 -7h-157q-7 0 -7 -7v-163q0 -5 -1 -7.5t-6 -2.5h-16q-6 0 -6 9v165zM404 29q11 0 11 -6v-16q0 -7 -11 -7h-358q-5 0 -7.5 1
t-2.5 6v16q0 6 9 6h359z" />
    <glyph glyph-name="two.sups" unicode="&#xb2;" horiz-adv-x="293" 
d="M34 160v15q32 27 65 56.5t59.5 62.5t43 68.5t16.5 74.5q0 21 -6.5 39.5t-17.5 32t-26 21.5t-32 8q-22 0 -41 -7t-33.5 -19t-22.5 -28.5t-8 -34.5q0 -32 17 -54t42 -22q20 0 29 8.5t9 19.5q0 6 -4.5 11.5t-9.5 11.5t-9.5 12.5t-4.5 14.5q0 12 8.5 20.5t19.5 8.5
q18 0 30.5 -15t12.5 -36q0 -29 -23.5 -50t-57.5 -21q-31 0 -53 26t-22 64q0 24 10 45.5t27 37.5t39.5 25t48.5 9q28 0 52 -11t41.5 -29t27.5 -41t10 -47q0 -38 -19.5 -73t-47.5 -65.5t-57.5 -56t-50.5 -44.5h139q14 26 20.5 40.5t14.5 14.5t8 -8q0 -3 -2 -9l-28 -76h-214z
" />
    <glyph glyph-name="three.sups" unicode="&#xb3;" horiz-adv-x="302" 
d="M136 565q24 0 45.5 -7t37.5 -18.5t25 -27.5t9 -34q0 -20 -6 -33t-14.5 -22.5t-18.5 -15.5t-18 -11q14 0 28.5 -7.5t26 -19.5t19 -29t7.5 -37q0 -26 -7.5 -44t-20 -31.5t-29 -22.5t-35.5 -15q-34 -12 -59 -17.5t-41.5 -12.5t-25 -18.5t-8.5 -34.5q0 -10 -6 -17t-14 -7
q-7 0 -11.5 7.5t-4.5 18.5q0 32 31 51t87 40q18 7 34 15t28 19.5t19.5 27t7.5 36.5q0 32 -21 54.5t-50 22.5q-20 0 -34.5 -10t-20.5 -10q-10 0 -10 11q0 4 7 9.5t16.5 11.5t19.5 11.5t17 8.5q18 8 37 26t19 45q0 19 -7.5 33t-18 22.5t-22.5 12.5t-21 4t-20 -2.5t-21 -7.5
t-16.5 -13t-6.5 -19q0 -14 6 -24t6 -21q0 -14 -8.5 -22t-19.5 -8t-21.5 12t-10.5 26q0 19 9 36.5t25 30t36.5 20t44.5 7.5z" />
    <glyph glyph-name="acute" unicode="&#xb4;" horiz-adv-x="375" 
d="M295 488q0 -12 -11 -23q-4 -5 -18.5 -17t-32 -24t-33 -21t-21.5 -9t-6 7q0 2 1 4q22 22 35.5 40t22.5 38q7 14 13.5 22.5t21.5 8.5q12 0 20 -7.5t8 -18.5z" />
    <glyph glyph-name="mu" unicode="&#xb5;" horiz-adv-x="328" 
d="M225 199q-12 -21 -34.5 -33.5t-51.5 -12.5q-24 0 -42 9v-76q0 -11 -5 -23t-12.5 -22.5t-18 -17t-20.5 -6.5q-9 0 -9 10q0 5 3.5 7t5.5 4q18 18 18 36v345l32 22q6 0 6 -6v-206q0 -24 11.5 -38.5t37.5 -14.5q35 0 57 19.5t22 41.5v182q0 6 5 9l16 9q7 4 10 4q6 0 6 -6
v-260h23q7 0 7 -8q0 -7 -7 -7h-53q-7 0 -7 7v32z" />
    <glyph glyph-name="paragraph" unicode="&#xb6;" horiz-adv-x="409" 
d="M12 403q0 40 16 69.5t43 49.5t64 30t79 10h180q8 0 8 -8t-8 -8h-37v-530h37q8 0 8 -8t-8 -8h-84q-2 0 -5.5 2t-3.5 6v538h-48v-538q0 -31 -20.5 -52.5t-49.5 -21.5q-27 0 -46 19.5t-19 46.5q0 23 15.5 40t38.5 17q18 0 31 -12.5t13 -30.5q0 -11 -8.5 -19t-21.5 -8
q-10 0 -16.5 6.5t-6.5 15.5q0 11 6 18t14 7q4 0 6 -1l4 -2q0 6 -7 9t-14 3q-17 0 -29 -12.5t-12 -30.5q0 -22 15 -37t37 -15q23 0 39.5 17.5t16.5 42.5v293q-18 -18 -39.5 -29.5t-47.5 -11.5q-30 0 -55.5 11.5t-44 31t-29.5 45.5t-11 55z" />
    <glyph glyph-name="periodcentered" unicode="&#xb7;" horiz-adv-x="125" 
d="M64 252q14 0 22.5 -10.5t8.5 -25.5q0 -17 -6.5 -30.5t-24.5 -13.5t-26 13.5t-8 30.5q0 15 9.5 25.5t24.5 10.5z" />
    <glyph glyph-name="cedilla" unicode="&#xb8;" horiz-adv-x="343" 
d="M171 0h16v-34q26 -5 43.5 -23t17.5 -43t-20 -42t-49 -17q-22 0 -37.5 13t-15.5 32t12.5 32t29.5 13q14 0 23.5 -7t9.5 -17q0 -8 -6.5 -14.5t-14.5 -6.5q-10 0 -13.5 7t-10.5 7q-13 0 -13 -17q0 -11 10.5 -18.5t25.5 -7.5q17 0 29 13.5t12 33.5t-14 34t-35 14v48z" />
    <glyph glyph-name="one.sups" unicode="&#xb9;" horiz-adv-x="175" 
d="M131 566q5 0 9 -2t4 -6q0 -8 -3 -15t-7 -15t-7 -18t-3 -23v-312h23q8 0 8 -8t-8 -8h-85q-8 0 -8 8t8 8h24v258q-8 5 -8.5 9.5t1 10.5t4.5 13t3 16v37q-23 -7 -31 -22t-8 -31q0 -11 1.5 -22t1.5 -16q0 -12 -4 -19t-15 -7q-8 0 -12 8.5t-4 22.5q0 19 11.5 42t29 43t37.5 34
t38 14z" />
    <glyph glyph-name="ordmasculine" unicode="&#xba;" horiz-adv-x="295" 
d="M147 530q-24 0 -39.5 -11t-24 -29t-12 -41.5t-3.5 -49.5t3.5 -50t12 -42t24 -29t39.5 -11t39.5 10.5t24.5 27t12.5 36t3.5 37.5q0 26 -17.5 44t-43.5 18q-11 0 -23 -5t-12 -20q0 -7 5 -11t11.5 -7t11.5 -7.5t5 -13.5q0 -8 -5 -13.5t-13 -5.5q-16 0 -26 14t-10 28
q0 23 16.5 39.5t39.5 16.5q17 0 35 -7.5t29 -24.5q0 18 -4 37t-13.5 34.5t-25.5 25.5t-40 10zM147 545q30 0 53.5 -13t40 -34t25.5 -47t9 -52t-9 -52t-25.5 -47t-40 -34.5t-53.5 -13.5q-29 0 -52.5 13.5t-40 34.5t-25.5 47t-9 52t9 52t25.5 47t40 34t52.5 13zM41 190
q-8 0 -8 7v14q0 7 8 7h214q8 0 8 -7v-14q0 -7 -8 -7h-214z" />
    <glyph glyph-name="guillemotright" unicode="&#xbb;" horiz-adv-x="256" 
d="M30 298l14 7q8 -9 22 -24.5t28.5 -32t26.5 -30.5t17 -21v-40q-5 -8 -17 -22t-26.5 -30.5t-28.5 -32t-22 -25.5l-14 8l52 121zM138 298l14 7q8 -9 22 -24.5t28.5 -32t26.5 -30.5t17 -21v-40q-5 -8 -17 -22t-26.5 -30.5t-28.5 -32t-22 -25.5l-14 8l52 121z" />
    <glyph glyph-name="onequarter" unicode="&#xbc;" horiz-adv-x="630" 
d="M158 563q4 0 8 -2t4 -6q0 -6 -2 -11t-5 -11q-4 -8 -7 -16t-3 -21v-261h19q2 0 5 -2.5t3 -4.5q0 -4 -3 -6t-5 -2h-72q-2 0 -5 2t-3 6q0 2 3 4.5t5 2.5h19v215q-6 6 -6 12q0 8 3 13.5t3 16.5v30q-17 -5 -23.5 -18t-6.5 -25q0 -11 1 -17.5t1 -14.5q0 -11 -3 -17t-14 -6
q-7 0 -10.5 7.5t-3.5 19.5q0 16 10 35.5t24.5 36.5t31.5 28.5t32 11.5zM472 570q3 4 5 4t3 -1l10 -7q3 -2 3 -4t-1 -3l-333 -571q-2 -3 -4 -3t-3 1l-11 6q-3 1 -3 5q0 2 1 3zM585 16q2 0 5 -2.5t3 -4.5q0 -4 -3 -6t-5 -2h-68q-8 0 -8 8q0 7 8 7h17v64h-131q-14 0 -14 13
q0 30 14 59.5t31 56.5q15 25 26.5 47.5t11.5 42.5q0 6 -1 16t-6 18q16 6 27 6q12 0 19.5 -4.5t7.5 -12.5q0 -39 -18 -67t-39 -52q-18 -22 -32.5 -44.5t-16.5 -50.5h121v108q-1 1 -1.5 4t-1.5 5q-2 4 -2 8t4.5 9t10 9.5t11 7.5t7.5 3q5 0 5 -3v-151h44q2 0 5 -2t3 -5v-13
q0 -4 -3 -6t-5 -2h-44v-64h18z" />
    <glyph glyph-name="onehalf" unicode="&#xbd;" horiz-adv-x="630" 
d="M158 563q4 0 8 -2t4 -6q0 -6 -2 -11t-5 -11q-4 -8 -7 -16t-3 -21v-261h19q2 0 5 -2.5t3 -4.5q0 -4 -3 -6t-5 -2h-72q-2 0 -5 2t-3 6q0 2 3 4.5t5 2.5h19v215q-6 6 -6 12q0 8 3 13.5t3 16.5v30q-17 -5 -23.5 -18t-6.5 -25q0 -11 1 -17.5t1 -14.5q0 -11 -3 -17t-14 -6
q-7 0 -10.5 7.5t-3.5 19.5q0 16 10 35.5t24.5 36.5t31.5 28.5t32 11.5zM472 570q3 4 5 4t3 -1l10 -7q3 -2 3 -4t-1 -3l-333 -571q-2 -3 -4 -3t-3 1l-11 6q-3 1 -3 5q0 2 1 3zM399 1v14q27 22 54.5 47t49.5 52.5t36 57.5t14 62q0 35 -20 59t-47 24q-36 0 -62 -21t-26 -52
q0 -26 14.5 -44.5t34.5 -18.5q17 0 24 7t7 16q0 4 -4 8.5t-8.5 10t-8 11t-3.5 12.5q0 11 7 18t18 7q16 0 26.5 -12.5t10.5 -31.5q0 -25 -20 -42.5t-49 -17.5q-27 0 -45.5 22t-18.5 54q0 21 8.5 39t22.5 31.5t33.5 21t41.5 7.5q23 0 43 -9t35 -24t23.5 -34.5t8.5 -40.5
q0 -28 -12.5 -54t-31.5 -49t-40.5 -43.5t-40.5 -36.5q-6 -5 -10 -8t-9 -8h113l11 23q5 11 9 17t9 6q8 0 8 -8q0 -4 -1 -7l-24 -65h-181z" />
    <glyph glyph-name="threequarters" unicode="&#xbe;" horiz-adv-x="630" 
d="M115 562q20 0 38 -6t31.5 -15.5t21 -23t7.5 -28.5q0 -16 -4.5 -27t-11.5 -18.5t-15 -13t-15 -9.5q11 -1 23 -7.5t21.5 -17t15.5 -25t6 -30.5q0 -27 -11.5 -45t-29.5 -30.5t-41 -20.5t-45 -14q-31 -8 -46.5 -17t-15.5 -37q0 -9 -5 -15t-13 -6q-6 0 -10 6.5t-4 16.5
q0 26 26 43t74 35q29 11 51 28.5t22 51.5q0 26 -17 45t-41 19q-11 0 -19.5 -4t-14.5 -8q-8 -5 -12 -5q-10 0 -10 10q0 4 6 9t14.5 10t17 9.5t14.5 7.5q15 7 30 21.5t15 37.5q0 16 -6 27t-14.5 18t-18.5 10t-17 3q-8 0 -17 -2t-17 -6t-13.5 -10t-5.5 -15q0 -7 2 -12l4 -10
t3 -8t1 -8q0 -12 -7 -19t-17 -7q-9 0 -18.5 11t-9.5 22q0 16 7.5 30.5t21 25.5t31.5 17t38 6zM472 570q3 4 5 4t3 -1l10 -7q3 -2 3 -4t-1 -3l-333 -571q-2 -3 -4 -3t-3 1l-11 6q-3 1 -3 5q0 2 1 3zM585 16q2 0 5 -2.5t3 -4.5q0 -4 -3 -6t-5 -2h-68q-8 0 -8 8q0 7 8 7h17v64
h-131q-14 0 -14 13q0 30 14 59.5t31 56.5q15 25 26.5 47.5t11.5 42.5q0 6 -1 16t-6 18q16 6 27 6q12 0 19.5 -4.5t7.5 -12.5q0 -39 -18 -67t-39 -52q-18 -22 -32.5 -44.5t-16.5 -50.5h121v108q-1 1 -1.5 4t-1.5 5q-2 4 -2 8t4.5 9t10 9.5t11 7.5t7.5 3q5 0 5 -3v-151h44
q2 0 5 -2t3 -5v-13q0 -4 -3 -6t-5 -2h-44v-64h18z" />
    <glyph glyph-name="questiondown" unicode="&#xbf;" horiz-adv-x="318" 
d="M164 110q0 -41 -13.5 -71.5t-29 -59t-29 -59t-13.5 -72.5q0 -23 7 -42.5t18.5 -34t27.5 -23t34 -8.5q24 0 45 7.5t37 20.5t25 30t9 37q0 34 -19 58t-46 24q-17 0 -29.5 -9t-12.5 -22q0 -6 4.5 -11.5t10.5 -12t10.5 -13.5t4.5 -16q0 -14 -8.5 -23t-21.5 -9q-19 0 -32.5 16
t-13.5 39q0 32 25.5 54t62.5 22q33 0 56.5 -28t23.5 -68q0 -26 -10.5 -49t-29 -40t-43.5 -27t-53 -10q-29 0 -54.5 11t-44.5 29.5t-30 43.5t-11 54q0 40 20 74t43.5 65t43.5 60.5t20 62.5q0 7 9 7q2 0 4.5 -1.5t2.5 -5.5zM157 211q-15 0 -24 11t-9 25q0 18 6.5 32t26.5 14
q18 0 25 -14t7 -32q0 -14 -9 -25t-23 -11z" />
    <glyph glyph-name="Agrave" unicode="&#xc0;" horiz-adv-x="509" 
d="M328 247h-172l-5 -22h83q23 0 39 -15t16 -38q0 -18 -12.5 -31.5t-30.5 -13.5q-16 0 -27 9.5t-11 23.5q0 11 6 19t15 8q18 0 18 -16q0 -5 -4 -11t-13 -6q-4 0 -7 1q5 -5 10.5 -9t12.5 -4q12 0 20 8.5t8 21.5q0 15 -11.5 26.5t-28.5 11.5h-86q-5 -23 -7.5 -47t-2.5 -48
q0 -27 4 -50.5t12 -48.5h35q8 0 8 -8t-8 -8h-157q-8 0 -8 8t8 8h35q16 56 35 124t35 134.5t26.5 125t10.5 96.5q0 14 -0.5 24.5t-4.5 25.5h-18q-31 0 -57.5 -17t-33.5 -40q7 3 16 3q14 0 23 -8.5t9 -21.5q0 -15 -10.5 -25.5t-25.5 -10.5t-25.5 13t-10.5 32q0 18 9.5 34.5
t25 29t36.5 20t44 7.5h224q8 0 8 -8t-8 -8h-50l114 -530h35q8 0 8 -8t-8 -8h-131q-8 0 -8 8t8 8h35zM218 371q0 -17 15.5 -25.5t30.5 -8.5h45l-44 207h-35q-21 -61 -36.5 -122t-26.5 -124h150l-5 24h-53q-20 0 -38 13.5t-18 35.5q0 17 11 29.5t26 12.5q14 0 23 -8t9 -19
q0 -10 -5 -16.5t-12 -6.5q-16 0 -16 13q0 6 3.5 10.5t8.5 4.5q6 0 8 -2q-4 10 -17 10q-10 0 -17 -8.5t-7 -19.5zM150 726q11 0 17 -5.5t16 -16.5q14 -16 32 -30.5t44 -30.5q3 -2 3 -5q0 -7 -6 -7q-10 0 -28 5.5t-36.5 12.5t-34 14t-20.5 10q-8 6 -12 12t-4 15q0 11 9 18.5
t20 7.5z" />
    <glyph glyph-name="Aacute" unicode="&#xc1;" horiz-adv-x="509" 
d="M328 247h-172l-5 -22h83q23 0 39 -15t16 -38q0 -18 -12.5 -31.5t-30.5 -13.5q-16 0 -27 9.5t-11 23.5q0 11 6 19t15 8q18 0 18 -16q0 -5 -4 -11t-13 -6q-4 0 -7 1q5 -5 10.5 -9t12.5 -4q12 0 20 8.5t8 21.5q0 15 -11.5 26.5t-28.5 11.5h-86q-5 -23 -7.5 -47t-2.5 -48
q0 -27 4 -50.5t12 -48.5h35q8 0 8 -8t-8 -8h-157q-8 0 -8 8t8 8h35q16 56 35 124t35 134.5t26.5 125t10.5 96.5q0 14 -0.5 24.5t-4.5 25.5h-18q-31 0 -57.5 -17t-33.5 -40q7 3 16 3q14 0 23 -8.5t9 -21.5q0 -15 -10.5 -25.5t-25.5 -10.5t-25.5 13t-10.5 32q0 18 9.5 34.5
t25 29t36.5 20t44 7.5h224q8 0 8 -8t-8 -8h-50l114 -530h35q8 0 8 -8t-8 -8h-131q-8 0 -8 8t8 8h35zM218 371q0 -17 15.5 -25.5t30.5 -8.5h45l-44 207h-35q-21 -61 -36.5 -122t-26.5 -124h150l-5 24h-53q-20 0 -38 13.5t-18 35.5q0 17 11 29.5t26 12.5q14 0 23 -8t9 -19
q0 -10 -5 -16.5t-12 -6.5q-16 0 -16 13q0 6 3.5 10.5t8.5 4.5q6 0 8 -2q-4 10 -17 10q-10 0 -17 -8.5t-7 -19.5zM344 726q11 0 20 -7.5t9 -18.5q0 -16 -17 -27q-5 -3 -20 -10t-33.5 -14t-36.5 -12.5t-28 -5.5q-6 0 -6 7q0 3 2 5q26 16 44 30.5t33 30.5q9 11 15 16.5t18 5.5z
" />
    <glyph glyph-name="Acircumflex" unicode="&#xc2;" horiz-adv-x="509" 
d="M328 247h-172l-5 -22h83q23 0 39 -15t16 -38q0 -18 -12.5 -31.5t-30.5 -13.5q-16 0 -27 9.5t-11 23.5q0 11 6 19t15 8q18 0 18 -16q0 -5 -4 -11t-13 -6q-4 0 -7 1q5 -5 10.5 -9t12.5 -4q12 0 20 8.5t8 21.5q0 15 -11.5 26.5t-28.5 11.5h-86q-5 -23 -7.5 -47t-2.5 -48
q0 -27 4 -50.5t12 -48.5h35q8 0 8 -8t-8 -8h-157q-8 0 -8 8t8 8h35q16 56 35 124t35 134.5t26.5 125t10.5 96.5q0 14 -0.5 24.5t-4.5 25.5h-18q-31 0 -57.5 -17t-33.5 -40q7 3 16 3q14 0 23 -8.5t9 -21.5q0 -15 -10.5 -25.5t-25.5 -10.5t-25.5 13t-10.5 32q0 18 9.5 34.5
t25 29t36.5 20t44 7.5h224q8 0 8 -8t-8 -8h-50l114 -530h35q8 0 8 -8t-8 -8h-131q-8 0 -8 8t8 8h35zM218 371q0 -17 15.5 -25.5t30.5 -8.5h45l-44 207h-35q-21 -61 -36.5 -122t-26.5 -124h150l-5 24h-53q-20 0 -38 13.5t-18 35.5q0 17 11 29.5t26 12.5q14 0 23 -8t9 -19
q0 -10 -5 -16.5t-12 -6.5q-16 0 -16 13q0 6 3.5 10.5t8.5 4.5q6 0 8 -2q-4 10 -17 10q-10 0 -17 -8.5t-7 -19.5zM243 665q-10 -5 -25 -10.5t-30.5 -11t-29 -9t-21.5 -3.5q-6 0 -6 7q0 3 3 5q34 20 52.5 35.5t29 26l16 16t11.5 5.5t11 -5.5t15.5 -16t29.5 -26t53 -35.5
q3 -2 3 -5q0 -7 -7 -7q-8 0 -21.5 3.5t-28.5 9l-30 11t-25 10.5z" />
    <glyph glyph-name="Atilde" unicode="&#xc3;" horiz-adv-x="509" 
d="M328 247h-172l-5 -22h83q23 0 39 -15t16 -38q0 -18 -12.5 -31.5t-30.5 -13.5q-16 0 -27 9.5t-11 23.5q0 11 6 19t15 8q18 0 18 -16q0 -5 -4 -11t-13 -6q-4 0 -7 1q5 -5 10.5 -9t12.5 -4q12 0 20 8.5t8 21.5q0 15 -11.5 26.5t-28.5 11.5h-86q-5 -23 -7.5 -47t-2.5 -48
q0 -27 4 -50.5t12 -48.5h35q8 0 8 -8t-8 -8h-157q-8 0 -8 8t8 8h35q16 56 35 124t35 134.5t26.5 125t10.5 96.5q0 14 -0.5 24.5t-4.5 25.5h-18q-31 0 -57.5 -17t-33.5 -40q7 3 16 3q14 0 23 -8.5t9 -21.5q0 -15 -10.5 -25.5t-25.5 -10.5t-25.5 13t-10.5 32q0 18 9.5 34.5
t25 29t36.5 20t44 7.5h224q8 0 8 -8t-8 -8h-50l114 -530h35q8 0 8 -8t-8 -8h-131q-8 0 -8 8t8 8h35zM218 371q0 -17 15.5 -25.5t30.5 -8.5h45l-44 207h-35q-21 -61 -36.5 -122t-26.5 -124h150l-5 24h-53q-20 0 -38 13.5t-18 35.5q0 17 11 29.5t26 12.5q14 0 23 -8t9 -19
q0 -10 -5 -16.5t-12 -6.5q-16 0 -16 13q0 6 3.5 10.5t8.5 4.5q6 0 8 -2q-4 10 -17 10q-10 0 -17 -8.5t-7 -19.5zM202 711q16 0 29 -4.5t24 -9.5t21 -9.5t21 -4.5q10 0 22 5t24 16q3 3 5 3q7 0 7 -6q0 -8 -6 -18t-16.5 -18t-23.5 -13.5t-26 -5.5q-17 0 -29.5 4.5t-23.5 9.5
t-21 9.5t-21 4.5q-9 0 -21 -5t-24 -17q-3 -2 -6 -2q-6 0 -6 6q0 8 6 17.5t16 18t23 14t26 5.5z" />
    <glyph glyph-name="Adieresis" unicode="&#xc4;" horiz-adv-x="509" 
d="M328 247h-172l-5 -22h83q23 0 39 -15t16 -38q0 -18 -12.5 -31.5t-30.5 -13.5q-16 0 -27 9.5t-11 23.5q0 11 6 19t15 8q18 0 18 -16q0 -5 -4 -11t-13 -6q-4 0 -7 1q5 -5 10.5 -9t12.5 -4q12 0 20 8.5t8 21.5q0 15 -11.5 26.5t-28.5 11.5h-86q-5 -23 -7.5 -47t-2.5 -48
q0 -27 4 -50.5t12 -48.5h35q8 0 8 -8t-8 -8h-157q-8 0 -8 8t8 8h35q16 56 35 124t35 134.5t26.5 125t10.5 96.5q0 14 -0.5 24.5t-4.5 25.5h-18q-31 0 -57.5 -17t-33.5 -40q7 3 16 3q14 0 23 -8.5t9 -21.5q0 -15 -10.5 -25.5t-25.5 -10.5t-25.5 13t-10.5 32q0 18 9.5 34.5
t25 29t36.5 20t44 7.5h224q8 0 8 -8t-8 -8h-50l114 -530h35q8 0 8 -8t-8 -8h-131q-8 0 -8 8t8 8h35zM218 371q0 -17 15.5 -25.5t30.5 -8.5h45l-44 207h-35q-21 -61 -36.5 -122t-26.5 -124h150l-5 24h-53q-20 0 -38 13.5t-18 35.5q0 17 11 29.5t26 12.5q14 0 23 -8t9 -19
q0 -10 -5 -16.5t-12 -6.5q-16 0 -16 13q0 6 3.5 10.5t8.5 4.5q6 0 8 -2q-4 10 -17 10q-10 0 -17 -8.5t-7 -19.5zM287 713q14 0 21.5 -10t7.5 -22q0 -15 -6 -26.5t-23 -11.5q-16 0 -21.5 11.5t-5.5 26.5q0 12 7.5 22t19.5 10zM208 713q13 0 20.5 -10t7.5 -22q0 -15 -6 -26.5
t-22 -11.5t-22 11.5t-6 26.5q0 12 7.5 22t20.5 10z" />
    <glyph glyph-name="Aring" unicode="&#xc5;" horiz-adv-x="509" 
d="M190 679q0 21 14.5 36t36.5 15q21 0 36 -15t15 -36q0 -22 -15 -36t-36 -14q-22 0 -36.5 14t-14.5 36zM208 679q0 -14 9.5 -23.5t23.5 -9.5t23.5 9.5t9.5 23.5t-9.5 23.5t-23.5 9.5t-23.5 -9.5t-9.5 -23.5zM328 247h-172l-5 -22h83q23 0 39 -15t16 -38q0 -18 -12.5 -31.5
t-30.5 -13.5q-16 0 -27 9.5t-11 23.5q0 11 6 19t15 8q18 0 18 -16q0 -5 -4 -11t-13 -6q-4 0 -7 1q5 -5 10.5 -9t12.5 -4q12 0 20 8.5t8 21.5q0 15 -11.5 26.5t-28.5 11.5h-86q-5 -23 -7.5 -47t-2.5 -48q0 -27 4 -50.5t12 -48.5h35q8 0 8 -8t-8 -8h-157q-8 0 -8 8t8 8h35
q16 56 35 124t35 134.5t26.5 125t10.5 96.5q0 14 -0.5 24.5t-4.5 25.5h-18q-31 0 -57.5 -17t-33.5 -40q7 3 16 3q14 0 23 -8.5t9 -21.5q0 -15 -10.5 -25.5t-25.5 -10.5t-25.5 13t-10.5 32q0 18 9.5 34.5t25 29t36.5 20t44 7.5h224q8 0 8 -8t-8 -8h-50l114 -530h35q8 0 8 -8
t-8 -8h-131q-8 0 -8 8t8 8h35zM218 371q0 -17 15.5 -25.5t30.5 -8.5h45l-44 207h-35q-21 -61 -36.5 -122t-26.5 -124h150l-5 24h-53q-20 0 -38 13.5t-18 35.5q0 17 11 29.5t26 12.5q14 0 23 -8t9 -19q0 -10 -5 -16.5t-12 -6.5q-16 0 -16 13q0 6 3.5 10.5t8.5 4.5q6 0 8 -2
q-4 10 -17 10q-10 0 -17 -8.5t-7 -19.5z" />
    <glyph glyph-name="AE" unicode="&#xc6;" horiz-adv-x="718" 
d="M189 16q8 0 8 -8t-8 -8h-157q-8 0 -8 8t8 8h35q16 56 35 124t35 134.5t26.5 125t10.5 96.5q0 14 -0.5 24.5t-4.5 25.5h-18q-31 0 -57.5 -17t-33.5 -40q7 3 16 3q14 0 23 -8.5t9 -21.5q0 -15 -10.5 -25.5t-25.5 -10.5t-25.5 13t-10.5 32q0 18 9.5 34.5t25 29t36.5 20
t44 7.5h506q7 0 11.5 -0.5t4.5 -5.5q0 -7 -5.5 -11.5t-5.5 -15.5q0 -15 2.5 -27t2.5 -26q0 -19 -7 -36t-26 -25q1 4 1.5 7.5t0.5 8.5q0 37 -13 59.5t-35 35t-49.5 16.5t-57.5 4h-77v-186h63q18 0 31 10.5t13 24.5q0 13 -8 22t-19 9q-10 0 -16 -6q6 -2 10.5 -5.5t4.5 -10.5
t-5 -12t-12 -5q-8 0 -13.5 6.5t-5.5 16.5q0 13 11 22t26 9q17 0 29.5 -13.5t12.5 -32.5q0 -21 -17 -35.5t-42 -14.5h-63v-32h160q24 0 44.5 -10t36 -27.5t24.5 -40.5t9 -50q0 -18 -3.5 -34t-7.5 -32t-7.5 -32t-3.5 -33q0 -11 3 -17.5t6 -11t6 -7.5t3 -7q0 -8 -7 -9.5
t-13 -1.5h-345q-8 0 -8 8t8 8h39v252h-189q-2 -8 -3 -16t-3 -16h81q23 0 39 -15t16 -38q0 -18 -12.5 -31.5t-30.5 -13.5q-16 0 -27 9.5t-11 23.5q0 11 6 19t15 8q18 0 18 -16q0 -5 -4 -11t-13 -6q-4 0 -7 1q5 -5 10.5 -9t12.5 -4q12 0 20 8.5t8 21.5q0 15 -11.5 26.5
t-28.5 11.5h-84q-6 -35 -9 -62t-3 -44q0 -27 4 -50.5t12 -48.5h35zM404 16h46q46 0 85 13.5t67.5 36.5t44.5 53.5t16 65.5q0 23 -7.5 43.5t-21 36t-31.5 24.5t-39 9q-38 0 -65 -23t-27 -56q0 -31 19 -52.5t46 -21.5q20 0 34.5 15t14.5 36q0 6 -2 11.5t-7 8.5
q0 -10 -8.5 -17.5t-19.5 -7.5q-13 0 -21.5 8.5t-8.5 19.5q0 14 10 23.5t24 9.5q20 0 34 -16.5t14 -39.5q0 -27 -19 -46.5t-45 -19.5q-33 0 -56.5 26t-23.5 63q0 25 16 49h-69v-252zM230 546q-15 -42 -31.5 -105t-30.5 -128h180v32h-63q-25 0 -42 14.5t-17 35.5
q0 19 12.5 32.5t29.5 13.5q15 0 26 -9t11 -22q0 -10 -5.5 -16.5t-13.5 -6.5q-7 0 -12 5t-5 12t4.5 10.5t10.5 5.5q-6 6 -16 6q-11 0 -19 -9t-8 -22q0 -14 13 -24.5t31 -10.5h63v186h-118z" />
    <glyph glyph-name="Ccedilla" unicode="&#xc7;" horiz-adv-x="418" 
d="M220 -8q-53 0 -90.5 30t-62 73.5t-36 94t-11.5 92.5t11.5 92t35.5 93.5t62.5 73t92.5 29.5q26 0 46.5 -6.5t46.5 -6.5q23 0 28 3t9 3q8 0 8 -5q0 -2 -1 -5t-1 -5q0 -18 5.5 -36t12 -35.5t12 -35t5.5 -36.5q0 -29 -11.5 -54.5t-31 -45t-45.5 -31t-55 -11.5q-10 0 -15 1
v-136q4 -2 7 -6.5t3 -9.5q0 -8 -5 -13t-13 -5t-13 5t-5 13q0 10 11 16v140q-30 11 -50.5 35.5t-20.5 56.5q0 35 23 60.5t61 25.5q29 0 48.5 -19t19.5 -51q0 -14 -13 -27t-29 -13t-28 11.5t-12 28.5q0 16 12 26.5t28 10.5q4 0 7 -1t5 -2q-2 11 -14.5 16t-23.5 5
q-29 0 -49 -21t-20 -50q0 -35 25.5 -58t60.5 -23q51 0 79.5 36t28.5 90q0 31 -9 58t-26.5 47t-42.5 32t-58 12q-46 0 -72.5 -28.5t-39.5 -70t-16 -89t-3 -84.5q0 -35 2.5 -82t14.5 -89.5t38.5 -72.5t74.5 -30q30 0 56 12t45.5 32t33 46t18.5 53q2 4 6 4q6 0 6 -5
q0 -2 -1.5 -8t-3 -15t-2.5 -18.5t-1 -17.5q0 -26 3 -50.5t10 -44.5q-12 5 -26.5 9.5t-28.5 4.5q-26 0 -50 -7t-50 -10v-27q26 -5 43.5 -23t17.5 -43t-20 -42t-49 -17q-22 0 -37.5 13t-15.5 32t12.5 32t29.5 13q14 0 23.5 -7t9.5 -17q0 -8 -6.5 -14.5t-14.5 -6.5
q-10 0 -13.5 7t-10.5 7q-13 0 -13 -17q0 -11 10.5 -18.5t25.5 -7.5q17 0 29 13.5t12 33.5t-14 34t-35 14v40z" />
    <glyph glyph-name="Egrave" unicode="&#xc8;" horiz-adv-x="436" 
d="M127 380h101q18 0 31 10.5t13 24.5q0 13 -8 22t-19 9q-10 0 -16 -6q6 -2 10.5 -5.5t4.5 -10.5t-5 -12t-12 -5q-8 0 -13.5 6.5t-5.5 16.5q0 13 11 22t26 9q17 0 29.5 -13.5t12.5 -32.5q0 -21 -17 -35.5t-42 -14.5h-101v-32h150q25 0 48 -11t39.5 -29.5t26.5 -44t10 -53.5
q0 -18 -3.5 -34t-7.5 -32t-7.5 -32t-3.5 -33q0 -21 9 -33t9 -20t-7 -9.5t-13 -1.5h-344q-8 0 -8 8t8 8h38v530h-38q-8 0 -8 8t8 8h347q7 0 11.5 -0.5t4.5 -5.5q0 -7 -5.5 -11.5t-5.5 -15.5q0 -15 2.5 -27t2.5 -26q0 -19 -7 -36t-26 -25q1 4 1.5 7.5t0.5 8.5q0 37 -13 59.5
t-35 35t-49.5 16.5t-57.5 4h-77v-166zM127 16h36q46 0 86.5 14t71 38.5t48 57t17.5 69.5q0 25 -8.5 47.5t-23.5 39.5t-35 26.5t-42 9.5q-38 0 -65 -23t-27 -56q0 -31 19 -52.5t46 -21.5q20 0 34.5 15t14.5 36q0 6 -2 11.5t-7 8.5q0 -10 -8.5 -17.5t-19.5 -7.5
q-13 0 -21.5 8.5t-8.5 19.5q0 14 10 23.5t24 9.5q20 0 34 -16.5t14 -39.5q0 -27 -19 -46.5t-45 -19.5q-33 0 -56.5 26t-23.5 63q0 25 16 49h-59v-272zM130 726q11 0 17 -5.5t16 -16.5q14 -16 32 -30.5t44 -30.5q3 -2 3 -5q0 -7 -6 -7q-10 0 -28 5.5t-36.5 12.5t-34 14
t-20.5 10q-8 6 -12 12t-4 15q0 11 9 18.5t20 7.5z" />
    <glyph glyph-name="Eacute" unicode="&#xc9;" horiz-adv-x="436" 
d="M127 380h101q18 0 31 10.5t13 24.5q0 13 -8 22t-19 9q-10 0 -16 -6q6 -2 10.5 -5.5t4.5 -10.5t-5 -12t-12 -5q-8 0 -13.5 6.5t-5.5 16.5q0 13 11 22t26 9q17 0 29.5 -13.5t12.5 -32.5q0 -21 -17 -35.5t-42 -14.5h-101v-32h150q25 0 48 -11t39.5 -29.5t26.5 -44t10 -53.5
q0 -18 -3.5 -34t-7.5 -32t-7.5 -32t-3.5 -33q0 -21 9 -33t9 -20t-7 -9.5t-13 -1.5h-344q-8 0 -8 8t8 8h38v530h-38q-8 0 -8 8t8 8h347q7 0 11.5 -0.5t4.5 -5.5q0 -7 -5.5 -11.5t-5.5 -15.5q0 -15 2.5 -27t2.5 -26q0 -19 -7 -36t-26 -25q1 4 1.5 7.5t0.5 8.5q0 37 -13 59.5
t-35 35t-49.5 16.5t-57.5 4h-77v-166zM127 16h36q46 0 86.5 14t71 38.5t48 57t17.5 69.5q0 25 -8.5 47.5t-23.5 39.5t-35 26.5t-42 9.5q-38 0 -65 -23t-27 -56q0 -31 19 -52.5t46 -21.5q20 0 34.5 15t14.5 36q0 6 -2 11.5t-7 8.5q0 -10 -8.5 -17.5t-19.5 -7.5
q-13 0 -21.5 8.5t-8.5 19.5q0 14 10 23.5t24 9.5q20 0 34 -16.5t14 -39.5q0 -27 -19 -46.5t-45 -19.5q-33 0 -56.5 26t-23.5 63q0 25 16 49h-59v-272zM304 726q11 0 20 -7.5t9 -18.5q0 -16 -17 -27q-5 -3 -20 -10t-33.5 -14t-36.5 -12.5t-28 -5.5q-6 0 -6 7q0 3 2 5
q26 16 44 30.5t33 30.5q9 11 15 16.5t18 5.5z" />
    <glyph glyph-name="Ecircumflex" unicode="&#xca;" horiz-adv-x="436" 
d="M127 380h101q18 0 31 10.5t13 24.5q0 13 -8 22t-19 9q-10 0 -16 -6q6 -2 10.5 -5.5t4.5 -10.5t-5 -12t-12 -5q-8 0 -13.5 6.5t-5.5 16.5q0 13 11 22t26 9q17 0 29.5 -13.5t12.5 -32.5q0 -21 -17 -35.5t-42 -14.5h-101v-32h150q25 0 48 -11t39.5 -29.5t26.5 -44t10 -53.5
q0 -18 -3.5 -34t-7.5 -32t-7.5 -32t-3.5 -33q0 -21 9 -33t9 -20t-7 -9.5t-13 -1.5h-344q-8 0 -8 8t8 8h38v530h-38q-8 0 -8 8t8 8h347q7 0 11.5 -0.5t4.5 -5.5q0 -7 -5.5 -11.5t-5.5 -15.5q0 -15 2.5 -27t2.5 -26q0 -19 -7 -36t-26 -25q1 4 1.5 7.5t0.5 8.5q0 37 -13 59.5
t-35 35t-49.5 16.5t-57.5 4h-77v-166zM127 16h36q46 0 86.5 14t71 38.5t48 57t17.5 69.5q0 25 -8.5 47.5t-23.5 39.5t-35 26.5t-42 9.5q-38 0 -65 -23t-27 -56q0 -31 19 -52.5t46 -21.5q20 0 34.5 15t14.5 36q0 6 -2 11.5t-7 8.5q0 -10 -8.5 -17.5t-19.5 -7.5
q-13 0 -21.5 8.5t-8.5 19.5q0 14 10 23.5t24 9.5q20 0 34 -16.5t14 -39.5q0 -27 -19 -46.5t-45 -19.5q-33 0 -56.5 26t-23.5 63q0 25 16 49h-59v-272zM213 665q-10 -5 -25 -10.5t-30.5 -11t-29 -9t-21.5 -3.5q-6 0 -6 7q0 3 3 5q34 20 52.5 35.5t29 26l16 16t11.5 5.5
t11 -5.5t15.5 -16t29.5 -26t53 -35.5q3 -2 3 -5q0 -7 -7 -7q-8 0 -21.5 3.5t-28.5 9l-30 11t-25 10.5z" />
    <glyph glyph-name="Edieresis" unicode="&#xcb;" horiz-adv-x="436" 
d="M127 380h101q18 0 31 10.5t13 24.5q0 13 -8 22t-19 9q-10 0 -16 -6q6 -2 10.5 -5.5t4.5 -10.5t-5 -12t-12 -5q-8 0 -13.5 6.5t-5.5 16.5q0 13 11 22t26 9q17 0 29.5 -13.5t12.5 -32.5q0 -21 -17 -35.5t-42 -14.5h-101v-32h150q25 0 48 -11t39.5 -29.5t26.5 -44t10 -53.5
q0 -18 -3.5 -34t-7.5 -32t-7.5 -32t-3.5 -33q0 -21 9 -33t9 -20t-7 -9.5t-13 -1.5h-344q-8 0 -8 8t8 8h38v530h-38q-8 0 -8 8t8 8h347q7 0 11.5 -0.5t4.5 -5.5q0 -7 -5.5 -11.5t-5.5 -15.5q0 -15 2.5 -27t2.5 -26q0 -19 -7 -36t-26 -25q1 4 1.5 7.5t0.5 8.5q0 37 -13 59.5
t-35 35t-49.5 16.5t-57.5 4h-77v-166zM127 16h36q46 0 86.5 14t71 38.5t48 57t17.5 69.5q0 25 -8.5 47.5t-23.5 39.5t-35 26.5t-42 9.5q-38 0 -65 -23t-27 -56q0 -31 19 -52.5t46 -21.5q20 0 34.5 15t14.5 36q0 6 -2 11.5t-7 8.5q0 -10 -8.5 -17.5t-19.5 -7.5
q-13 0 -21.5 8.5t-8.5 19.5q0 14 10 23.5t24 9.5q20 0 34 -16.5t14 -39.5q0 -27 -19 -46.5t-45 -19.5q-33 0 -56.5 26t-23.5 63q0 25 16 49h-59v-272zM262 713q14 0 21.5 -10t7.5 -22q0 -15 -6 -26.5t-23 -11.5q-16 0 -21.5 11.5t-5.5 26.5q0 12 7.5 22t19.5 10zM183 713
q13 0 20.5 -10t7.5 -22q0 -15 -6 -26.5t-22 -11.5t-22 11.5t-6 26.5q0 12 7.5 22t20.5 10z" />
    <glyph glyph-name="Igrave" unicode="&#xcc;" horiz-adv-x="198" 
d="M33 0q-8 0 -8 8t8 8h38v530h-38q-8 0 -8 8t8 8h132q8 0 8 -8t-8 -8h-38v-530h38q8 0 8 -8t-8 -8h-132zM30 726q11 0 17 -5.5t16 -16.5q14 -16 32 -30.5t44 -30.5q3 -2 3 -5q0 -7 -6 -7q-10 0 -28 5.5t-36.5 12.5t-34 14t-20.5 10q-8 6 -12 12t-4 15q0 11 9 18.5t20 7.5z
" />
    <glyph glyph-name="Iacute" unicode="&#xcd;" horiz-adv-x="198" 
d="M33 0q-8 0 -8 8t8 8h38v530h-38q-8 0 -8 8t8 8h132q8 0 8 -8t-8 -8h-38v-530h38q8 0 8 -8t-8 -8h-132zM174 726q11 0 20 -7.5t9 -18.5q0 -16 -17 -27q-5 -3 -20 -10t-33.5 -14t-36.5 -12.5t-28 -5.5q-6 0 -6 7q0 3 2 5q26 16 44 30.5t33 30.5q9 11 15 16.5t18 5.5z" />
    <glyph glyph-name="Icircumflex" unicode="&#xce;" horiz-adv-x="198" 
d="M33 0q-8 0 -8 8t8 8h38v530h-38q-8 0 -8 8t8 8h132q8 0 8 -8t-8 -8h-38v-530h38q8 0 8 -8t-8 -8h-132zM98 665q-10 -5 -25 -10.5t-30.5 -11t-29 -9t-21.5 -3.5q-6 0 -6 7q0 3 3 5q34 20 52.5 35.5t29 26l16 16t11.5 5.5t11 -5.5t15.5 -16t29.5 -26t53 -35.5q3 -2 3 -5
q0 -7 -7 -7q-8 0 -21.5 3.5t-28.5 9l-30 11t-25 10.5z" />
    <glyph glyph-name="Idieresis" unicode="&#xcf;" horiz-adv-x="198" 
d="M33 0q-8 0 -8 8t8 8h38v530h-38q-8 0 -8 8t8 8h132q8 0 8 -8t-8 -8h-38v-530h38q8 0 8 -8t-8 -8h-132zM137 713q14 0 21.5 -10t7.5 -22q0 -15 -6 -26.5t-23 -11.5q-16 0 -21.5 11.5t-5.5 26.5q0 12 7.5 22t19.5 10zM58 713q13 0 20.5 -10t7.5 -22q0 -15 -6 -26.5
t-22 -11.5t-22 11.5t-6 26.5q0 12 7.5 22t20.5 10z" />
    <glyph glyph-name="Eth" unicode="&#xd0;" horiz-adv-x="439" 
d="M75 270h-45v-34q0 -2 -2 -5t-6 -3q-5 0 -7 3t-2 5v124q0 2 2 5t7 3q4 0 6 -3t2 -5v-34h45v220h-38q-2 0 -5 1.5t-3 6.5q0 4 3 6t5 2h130q29 0 52 -1.5t43.5 -7t39 -17t38.5 -31.5q31 -31 55 -89.5t24 -134.5q0 -75 -24 -134t-55 -89q-20 -20 -38.5 -31.5t-39 -17.5
t-43.5 -7.5t-52 -1.5h-130q-2 0 -5 2t-3 6q0 5 3 6.5t5 1.5h38v254zM131 326h56v33q0 2 2 5t7 3t7 -3t2 -5v-224q2 4 12 4q8 0 13 -6t5 -17q0 -10 -7 -15.5t-15 -5.5q-13 0 -19.5 8.5t-6.5 19.5v147h-56v-254q74 0 118 10t67 47q23 38 27.5 91.5t4.5 116.5t-4.5 116.5
t-27.5 91.5q-23 37 -67 47t-118 10v-220z" />
    <glyph glyph-name="Ntilde" unicode="&#xd1;" horiz-adv-x="462" 
d="M181 410q0 26 18.5 44t44.5 18q23 0 40 -16.5t17 -39.5q0 -20 -12.5 -33.5t-29.5 -13.5q-14 0 -24.5 7.5t-10.5 18.5q0 10 6 17t15 7t15 -6t6 -14q0 -3 -1 -7t-3 -7q9 1 17 11.5t8 21.5q0 17 -12.5 28t-30.5 11q-20 0 -33.5 -13.5t-13.5 -33.5v-92h144q9 23 15.5 47
t6.5 50q0 23 -8 44.5t-23 38t-35 26.5t-44 10q-21 0 -42.5 -9.5t-39.5 -25.5t-29 -36t-11 -42v-405h38q8 0 8 -8t-8 -8h-132q-8 0 -8 8t8 8h38v530h-38q-8 0 -8 8t8 8h86q8 0 8 -8v-70q20 35 56.5 57t89.5 22q31 0 58.5 -12.5t48.5 -34t33.5 -49.5t12.5 -58q0 -43 -15 -83
t-33 -79t-33 -78t-15 -81q0 -11 2 -25t7.5 -26.5t14.5 -21t24 -8.5q13 0 24.5 4t17.5 17q-10 -5 -21 -5t-19 10.5t-8 21.5q0 14 9.5 25t24.5 11q17 0 27 -12t10 -29q0 -26 -21.5 -41t-45.5 -15t-41.5 12.5t-29 32t-17 42t-5.5 42.5q0 34 8 65t18 63h-116v-172q0 -8 -8 -8
t-8 8v331zM197 304v-39h123l15 39h-138zM216 711q16 0 29 -4.5t24 -9.5t21 -9.5t21 -4.5q10 0 22 5t24 16q3 3 5 3q7 0 7 -6q0 -8 -6 -18t-16.5 -18t-23.5 -13.5t-26 -5.5q-17 0 -29.5 4.5t-23.5 9.5t-21 9.5t-21 4.5q-9 0 -21 -5t-24 -17q-3 -2 -6 -2q-6 0 -6 6q0 8 6 17.5
t16 18t23 14t26 5.5z" />
    <glyph glyph-name="Ograve" unicode="&#xd2;" horiz-adv-x="424" 
d="M20 281q0 60 15 112.5t41 92t61 62t75 22.5t75 -22.5t61 -62t41 -92t15 -112.5t-15 -112.5t-40.5 -92t-61 -62t-75.5 -22.5t-75 22.5t-61 62t-41 92t-15 112.5zM92 257h120q23 0 38.5 -15t15.5 -37q0 -18 -12.5 -30.5t-30.5 -12.5q-17 0 -28.5 10.5t-11.5 24.5
q0 13 7 21.5t18 8.5q10 0 16 -5.5t6 -13.5t-5.5 -14t-13.5 -6q-7 0 -10 3q6 -14 22 -14q11 0 19 8.5t8 19.5q0 15 -11 25.5t-27 10.5h-119q1 -32 5.5 -72.5t17 -76t35.5 -60t62 -24.5q43 0 67 29t35.5 71.5t14 89.5t2.5 83v24h-120q-23 0 -38.5 15t-15.5 37q0 18 12.5 30.5
t30.5 12.5q17 0 28.5 -10.5t11.5 -24.5q0 -13 -7 -21.5t-18 -8.5q-10 0 -16 5.5t-6 13.5t5.5 14t13.5 6q7 0 10 -3q-6 14 -22 14q-11 0 -19 -8.5t-8 -19.5q0 -15 11 -25.5t27 -10.5h119q-1 32 -5.5 72.5t-16.5 76t-35 60t-62 24.5q-43 0 -67 -29t-36 -71.5t-14.5 -89.5
t-2.5 -83v-24zM130 726q11 0 17 -5.5t16 -16.5q14 -16 32 -30.5t44 -30.5q3 -2 3 -5q0 -7 -6 -7q-10 0 -28 5.5t-36.5 12.5t-34 14t-20.5 10q-8 6 -12 12t-4 15q0 11 9 18.5t20 7.5z" />
    <glyph glyph-name="Oacute" unicode="&#xd3;" horiz-adv-x="424" 
d="M20 281q0 60 15 112.5t41 92t61 62t75 22.5t75 -22.5t61 -62t41 -92t15 -112.5t-15 -112.5t-40.5 -92t-61 -62t-75.5 -22.5t-75 22.5t-61 62t-41 92t-15 112.5zM92 257h120q23 0 38.5 -15t15.5 -37q0 -18 -12.5 -30.5t-30.5 -12.5q-17 0 -28.5 10.5t-11.5 24.5
q0 13 7 21.5t18 8.5q10 0 16 -5.5t6 -13.5t-5.5 -14t-13.5 -6q-7 0 -10 3q6 -14 22 -14q11 0 19 8.5t8 19.5q0 15 -11 25.5t-27 10.5h-119q1 -32 5.5 -72.5t17 -76t35.5 -60t62 -24.5q43 0 67 29t35.5 71.5t14 89.5t2.5 83v24h-120q-23 0 -38.5 15t-15.5 37q0 18 12.5 30.5
t30.5 12.5q17 0 28.5 -10.5t11.5 -24.5q0 -13 -7 -21.5t-18 -8.5q-10 0 -16 5.5t-6 13.5t5.5 14t13.5 6q7 0 10 -3q-6 14 -22 14q-11 0 -19 -8.5t-8 -19.5q0 -15 11 -25.5t27 -10.5h119q-1 32 -5.5 72.5t-16.5 76t-35 60t-62 24.5q-43 0 -67 -29t-36 -71.5t-14.5 -89.5
t-2.5 -83v-24zM304 726q11 0 20 -7.5t9 -18.5q0 -16 -17 -27q-5 -3 -20 -10t-33.5 -14t-36.5 -12.5t-28 -5.5q-6 0 -6 7q0 3 2 5q26 16 44 30.5t33 30.5q9 11 15 16.5t18 5.5z" />
    <glyph glyph-name="Ocircumflex" unicode="&#xd4;" horiz-adv-x="424" 
d="M20 281q0 60 15 112.5t41 92t61 62t75 22.5t75 -22.5t61 -62t41 -92t15 -112.5t-15 -112.5t-40.5 -92t-61 -62t-75.5 -22.5t-75 22.5t-61 62t-41 92t-15 112.5zM92 257h120q23 0 38.5 -15t15.5 -37q0 -18 -12.5 -30.5t-30.5 -12.5q-17 0 -28.5 10.5t-11.5 24.5
q0 13 7 21.5t18 8.5q10 0 16 -5.5t6 -13.5t-5.5 -14t-13.5 -6q-7 0 -10 3q6 -14 22 -14q11 0 19 8.5t8 19.5q0 15 -11 25.5t-27 10.5h-119q1 -32 5.5 -72.5t17 -76t35.5 -60t62 -24.5q43 0 67 29t35.5 71.5t14 89.5t2.5 83v24h-120q-23 0 -38.5 15t-15.5 37q0 18 12.5 30.5
t30.5 12.5q17 0 28.5 -10.5t11.5 -24.5q0 -13 -7 -21.5t-18 -8.5q-10 0 -16 5.5t-6 13.5t5.5 14t13.5 6q7 0 10 -3q-6 14 -22 14q-11 0 -19 -8.5t-8 -19.5q0 -15 11 -25.5t27 -10.5h119q-1 32 -5.5 72.5t-16.5 76t-35 60t-62 24.5q-43 0 -67 -29t-36 -71.5t-14.5 -89.5
t-2.5 -83v-24zM213 665q-10 -5 -25 -10.5t-30.5 -11t-29 -9t-21.5 -3.5q-6 0 -6 7q0 3 3 5q34 20 52.5 35.5t29 26l16 16t11.5 5.5t11 -5.5t15.5 -16t29.5 -26t53 -35.5q3 -2 3 -5q0 -7 -7 -7q-8 0 -21.5 3.5t-28.5 9l-30 11t-25 10.5z" />
    <glyph glyph-name="Otilde" unicode="&#xd5;" horiz-adv-x="424" 
d="M20 281q0 60 15 112.5t41 92t61 62t75 22.5t75 -22.5t61 -62t41 -92t15 -112.5t-15 -112.5t-40.5 -92t-61 -62t-75.5 -22.5t-75 22.5t-61 62t-41 92t-15 112.5zM92 257h120q23 0 38.5 -15t15.5 -37q0 -18 -12.5 -30.5t-30.5 -12.5q-17 0 -28.5 10.5t-11.5 24.5
q0 13 7 21.5t18 8.5q10 0 16 -5.5t6 -13.5t-5.5 -14t-13.5 -6q-7 0 -10 3q6 -14 22 -14q11 0 19 8.5t8 19.5q0 15 -11 25.5t-27 10.5h-119q1 -32 5.5 -72.5t17 -76t35.5 -60t62 -24.5q43 0 67 29t35.5 71.5t14 89.5t2.5 83v24h-120q-23 0 -38.5 15t-15.5 37q0 18 12.5 30.5
t30.5 12.5q17 0 28.5 -10.5t11.5 -24.5q0 -13 -7 -21.5t-18 -8.5q-10 0 -16 5.5t-6 13.5t5.5 14t13.5 6q7 0 10 -3q-6 14 -22 14q-11 0 -19 -8.5t-8 -19.5q0 -15 11 -25.5t27 -10.5h119q-1 32 -5.5 72.5t-16.5 76t-35 60t-62 24.5q-43 0 -67 -29t-36 -71.5t-14.5 -89.5
t-2.5 -83v-24zM172 711q16 0 29 -4.5t24 -9.5t21 -9.5t21 -4.5q10 0 22 5t24 16q3 3 5 3q7 0 7 -6q0 -8 -6 -18t-16.5 -18t-23.5 -13.5t-26 -5.5q-17 0 -29.5 4.5t-23.5 9.5t-21 9.5t-21 4.5q-9 0 -21 -5t-24 -17q-3 -2 -6 -2q-6 0 -6 6q0 8 6 17.5t16 18t23 14t26 5.5z" />
    <glyph glyph-name="Odieresis" unicode="&#xd6;" horiz-adv-x="424" 
d="M20 281q0 60 15 112.5t41 92t61 62t75 22.5t75 -22.5t61 -62t41 -92t15 -112.5t-15 -112.5t-40.5 -92t-61 -62t-75.5 -22.5t-75 22.5t-61 62t-41 92t-15 112.5zM92 257h120q23 0 38.5 -15t15.5 -37q0 -18 -12.5 -30.5t-30.5 -12.5q-17 0 -28.5 10.5t-11.5 24.5
q0 13 7 21.5t18 8.5q10 0 16 -5.5t6 -13.5t-5.5 -14t-13.5 -6q-7 0 -10 3q6 -14 22 -14q11 0 19 8.5t8 19.5q0 15 -11 25.5t-27 10.5h-119q1 -32 5.5 -72.5t17 -76t35.5 -60t62 -24.5q43 0 67 29t35.5 71.5t14 89.5t2.5 83v24h-120q-23 0 -38.5 15t-15.5 37q0 18 12.5 30.5
t30.5 12.5q17 0 28.5 -10.5t11.5 -24.5q0 -13 -7 -21.5t-18 -8.5q-10 0 -16 5.5t-6 13.5t5.5 14t13.5 6q7 0 10 -3q-6 14 -22 14q-11 0 -19 -8.5t-8 -19.5q0 -15 11 -25.5t27 -10.5h119q-1 32 -5.5 72.5t-16.5 76t-35 60t-62 24.5q-43 0 -67 -29t-36 -71.5t-14.5 -89.5
t-2.5 -83v-24zM252 713q14 0 21.5 -10t7.5 -22q0 -15 -6 -26.5t-23 -11.5q-16 0 -21.5 11.5t-5.5 26.5q0 12 7.5 22t19.5 10zM173 713q13 0 20.5 -10t7.5 -22q0 -15 -6 -26.5t-22 -11.5t-22 11.5t-6 26.5q0 12 7.5 22t20.5 10z" />
    <glyph glyph-name="multiply" unicode="&#xd7;" horiz-adv-x="450" 
d="M229 290q0 1 -3 1q-4 0 -5 -2l-112 -112q-5 -5 -7 -5t-5 3l-12 11q-1 1 -1 4q0 4 3 7l114 114q1 0 1 3q0 4 -2 6l-112 110q-4 4 -4 9q0 2 1 3l13 12q2 2 3 2q3 0 8 -5l111 -111q1 -2 5 -2t5 2l111 112q5 5 8 5q2 0 4 -2l12 -13q1 -1 1 -4t-4 -7l-111 -111q-2 -2 -2 -6
t2 -5l112 -111q5 -5 5 -7t-3 -5l-11 -12q-1 -1 -4 -1q-4 0 -7 3z" />
    <glyph glyph-name="Oslash" unicode="&#xd8;" horiz-adv-x="424" 
d="M212 570q42 0 75 -21.5t59 -56.5l48 78q2 2 4 2q3 0 4 -1l8 -4q3 -2 3 -4t-1 -3l-54 -87q24 -41 35 -90t11 -97q0 -61 -15 -115t-41 -94t-61 -63t-75 -23q-41 0 -74 22.5t-58 58.5l-50 -82q-2 -2 -4 -2q-3 0 -4 1l-8 4q-3 1 -3 4q0 2 1 3l56 90q-24 44 -35.5 96
t-11.5 100q0 59 15 110.5t41 90t61 61t74 22.5zM316 445q-13 49 -38 79t-66 30q-36 0 -59 -20.5t-36.5 -56.5t-19 -85t-5.5 -106q0 -38 2.5 -73.5t8.5 -67.5l57 91q10 17 25 24.5t32 7.5q26 0 44 -17t18 -42q0 -22 -16 -37.5t-39 -15.5q-15 0 -25.5 9.5t-10.5 23.5
q0 11 7.5 18.5t18.5 7.5q10 0 17 -6.5t7 -15.5q0 -6 -2 -12t-9 -11q16 1 26.5 12.5t10.5 26.5q0 18 -13.5 31t-33.5 13q-13 0 -24 -7.5t-18 -18.5l-66 -109q11 -51 37 -80t66 -29q37 0 61 22t37 60t18 88.5t5 106.5q0 37 -2.5 70t-8.5 62l-58 -94q-10 -17 -25 -24.5
t-32 -7.5q-26 0 -44 17t-18 42q0 22 16 37.5t39 15.5q15 0 25.5 -9.5t10.5 -23.5q0 -11 -7.5 -18.5t-18.5 -7.5q-10 0 -17 6.5t-7 15.5q0 6 2 12t9 11q-16 -1 -26.5 -12.5t-10.5 -26.5q0 -18 13.5 -31t33.5 -13q13 0 24 7.5t18 18.5z" />
    <glyph glyph-name="Ugrave" unicode="&#xd9;" horiz-adv-x="447" 
d="M320 65q-23 -32 -61.5 -52.5t-79.5 -20.5q-33 0 -62 13.5t-50.5 37.5t-34 55.5t-12.5 67.5q0 39 12 77t26 75.5t26 73t12 70.5q0 58 -28 100q22 -7 35.5 -22t20 -35t8.5 -43t2 -46q0 -31 -8 -61.5t-17 -61t-17 -61t-8 -61.5q0 -27 7 -52.5t22 -45.5t37.5 -32.5
t52.5 -12.5q24 0 45.5 9.5t37.5 26.5t25 39t9 48q0 40 -28 68t-68 28q-34 0 -57.5 -23.5t-23.5 -57.5q0 -23 15 -40t36 -17q6 0 8.5 5t2.5 10q0 11 -7 17.5t-7 21.5q0 11 8.5 19.5t20.5 8.5q14 0 23.5 -11t9.5 -26q0 -25 -17 -42.5t-42 -17.5q-27 0 -46.5 21t-19.5 51
q0 40 28 68t68 28q29 0 54 -14t42 -34v332h-38q-8 0 -8 8t8 8h132q8 0 8 -8t-8 -8h-38v-530h38q8 0 8 -8t-8 -8h-86q-8 0 -8 8v57zM120 726q11 0 17 -5.5t16 -16.5q14 -16 32 -30.5t44 -30.5q3 -2 3 -5q0 -7 -6 -7q-10 0 -28 5.5t-36.5 12.5t-34 14t-20.5 10q-8 6 -12 12
t-4 15q0 11 9 18.5t20 7.5z" />
    <glyph glyph-name="Uacute" unicode="&#xda;" horiz-adv-x="447" 
d="M320 65q-23 -32 -61.5 -52.5t-79.5 -20.5q-33 0 -62 13.5t-50.5 37.5t-34 55.5t-12.5 67.5q0 39 12 77t26 75.5t26 73t12 70.5q0 58 -28 100q22 -7 35.5 -22t20 -35t8.5 -43t2 -46q0 -31 -8 -61.5t-17 -61t-17 -61t-8 -61.5q0 -27 7 -52.5t22 -45.5t37.5 -32.5
t52.5 -12.5q24 0 45.5 9.5t37.5 26.5t25 39t9 48q0 40 -28 68t-68 28q-34 0 -57.5 -23.5t-23.5 -57.5q0 -23 15 -40t36 -17q6 0 8.5 5t2.5 10q0 11 -7 17.5t-7 21.5q0 11 8.5 19.5t20.5 8.5q14 0 23.5 -11t9.5 -26q0 -25 -17 -42.5t-42 -17.5q-27 0 -46.5 21t-19.5 51
q0 40 28 68t68 28q29 0 54 -14t42 -34v332h-38q-8 0 -8 8t8 8h132q8 0 8 -8t-8 -8h-38v-530h38q8 0 8 -8t-8 -8h-86q-8 0 -8 8v57zM294 726q11 0 20 -7.5t9 -18.5q0 -16 -17 -27q-5 -3 -20 -10t-33.5 -14t-36.5 -12.5t-28 -5.5q-6 0 -6 7q0 3 2 5q26 16 44 30.5t33 30.5
q9 11 15 16.5t18 5.5z" />
    <glyph glyph-name="Ucircumflex" unicode="&#xdb;" horiz-adv-x="447" 
d="M320 65q-23 -32 -61.5 -52.5t-79.5 -20.5q-33 0 -62 13.5t-50.5 37.5t-34 55.5t-12.5 67.5q0 39 12 77t26 75.5t26 73t12 70.5q0 58 -28 100q22 -7 35.5 -22t20 -35t8.5 -43t2 -46q0 -31 -8 -61.5t-17 -61t-17 -61t-8 -61.5q0 -27 7 -52.5t22 -45.5t37.5 -32.5
t52.5 -12.5q24 0 45.5 9.5t37.5 26.5t25 39t9 48q0 40 -28 68t-68 28q-34 0 -57.5 -23.5t-23.5 -57.5q0 -23 15 -40t36 -17q6 0 8.5 5t2.5 10q0 11 -7 17.5t-7 21.5q0 11 8.5 19.5t20.5 8.5q14 0 23.5 -11t9.5 -26q0 -25 -17 -42.5t-42 -17.5q-27 0 -46.5 21t-19.5 51
q0 40 28 68t68 28q29 0 54 -14t42 -34v332h-38q-8 0 -8 8t8 8h132q8 0 8 -8t-8 -8h-38v-530h38q8 0 8 -8t-8 -8h-86q-8 0 -8 8v57zM223 665q-10 -5 -25 -10.5t-30.5 -11t-29 -9t-21.5 -3.5q-6 0 -6 7q0 3 3 5q34 20 52.5 35.5t29 26l16 16t11.5 5.5t11 -5.5t15.5 -16
t29.5 -26t53 -35.5q3 -2 3 -5q0 -7 -7 -7q-8 0 -21.5 3.5t-28.5 9l-30 11t-25 10.5z" />
    <glyph glyph-name="Udieresis" unicode="&#xdc;" horiz-adv-x="447" 
d="M320 65q-23 -32 -61.5 -52.5t-79.5 -20.5q-33 0 -62 13.5t-50.5 37.5t-34 55.5t-12.5 67.5q0 39 12 77t26 75.5t26 73t12 70.5q0 58 -28 100q22 -7 35.5 -22t20 -35t8.5 -43t2 -46q0 -31 -8 -61.5t-17 -61t-17 -61t-8 -61.5q0 -27 7 -52.5t22 -45.5t37.5 -32.5
t52.5 -12.5q24 0 45.5 9.5t37.5 26.5t25 39t9 48q0 40 -28 68t-68 28q-34 0 -57.5 -23.5t-23.5 -57.5q0 -23 15 -40t36 -17q6 0 8.5 5t2.5 10q0 11 -7 17.5t-7 21.5q0 11 8.5 19.5t20.5 8.5q14 0 23.5 -11t9.5 -26q0 -25 -17 -42.5t-42 -17.5q-27 0 -46.5 21t-19.5 51
q0 40 28 68t68 28q29 0 54 -14t42 -34v332h-38q-8 0 -8 8t8 8h132q8 0 8 -8t-8 -8h-38v-530h38q8 0 8 -8t-8 -8h-86q-8 0 -8 8v57zM252 713q14 0 21.5 -10t7.5 -22q0 -15 -6 -26.5t-23 -11.5q-16 0 -21.5 11.5t-5.5 26.5q0 12 7.5 22t19.5 10zM173 713q13 0 20.5 -10
t7.5 -22q0 -15 -6 -26.5t-22 -11.5t-22 11.5t-6 26.5q0 12 7.5 22t20.5 10z" />
    <glyph glyph-name="Yacute" unicode="&#xdd;" horiz-adv-x="498" 
d="M28 546q-8 0 -8 8t8 8h187q15 0 30.5 -4t28 -13t20 -23t7.5 -35q0 -29 -16 -47.5t-43 -18.5q-18 0 -31.5 12t-13.5 28q0 17 9 23.5t20 6.5t17.5 -6.5t6.5 -16.5q0 -19 -20 -19q-5 0 -10 3t-7 5q2 -11 9.5 -16.5t17.5 -5.5q22 0 34 14.5t12 37.5q0 21 -10 33t-24.5 17.5
t-29.5 7t-25 1.5h-67q7 -42 18.5 -86.5t27 -87.5t36.5 -83.5t48 -74.5q24 39 41 76.5t28.5 77t17 83t6.5 95.5h-48q-8 0 -8 8t8 8h165q8 0 8 -8t-8 -8h-35q-32 -62 -58.5 -126.5t-56.5 -129t-66.5 -126t-87.5 -115.5q14 5 29.5 8.5t31.5 3.5q17 0 33.5 -3.5t33 -7.5
t32.5 -7.5t33 -3.5q40 0 66 24t26 66q0 30 -14.5 54.5t-49.5 24.5q-32 0 -46.5 -16t-14.5 -38q0 -16 11.5 -30.5t30.5 -14.5q5 0 11.5 2.5t7.5 7.5q-9 0 -15.5 6.5t-6.5 16.5q0 14 8 22t19 8q12 0 20 -8.5t8 -21.5q0 -22 -17 -34.5t-35 -12.5q-30 0 -43 19.5t-13 39.5
q0 30 20.5 49t54.5 19q40 0 59.5 -25.5t19.5 -67.5q0 -31 -11.5 -57t-32 -44.5t-47.5 -28.5t-58 -10q-20 0 -40 4t-40.5 9.5t-40.5 9.5t-41 4q-15 0 -23 -2t-12.5 -4.5t-7 -4.5t-7.5 -2q-8 0 -8 8q0 6 5.5 9t10.5 8q32 27 63 58.5t51 70.5q-50 75 -88.5 168t-63.5 221h-47z
M334 726q11 0 20 -7.5t9 -18.5q0 -16 -17 -27q-5 -3 -20 -10t-33.5 -14t-36.5 -12.5t-28 -5.5q-6 0 -6 7q0 3 2 5q26 16 44 30.5t33 30.5q9 11 15 16.5t18 5.5z" />
    <glyph glyph-name="Thorn" unicode="&#xde;" horiz-adv-x="443" 
d="M134 558v-116h87q42 0 79 -10t64 -29.5t43 -49.5t16 -70q0 -29 -11 -55t-29.5 -45.5t-44 -31t-55.5 -11.5q-43 0 -72 28t-29 72q0 16 4.5 32t13.5 28.5t22.5 20t32.5 7.5q23 0 41.5 -16t18.5 -40q0 -18 -11 -32t-30 -14q-11 0 -22.5 7.5t-11.5 18.5t6.5 17t16.5 6t16 -7
t6 -16q0 -6 -2 -9q4 0 7 2.5t5 3.5q9 9 9 23q0 17 -13 31.5t-30 14.5q-33 0 -49.5 -24t-16.5 -54q0 -33 19.5 -56.5t55.5 -23.5q24 0 40.5 11.5t27 29.5t15.5 39.5t5 41.5q0 30 -6.5 56t-21 45.5t-37.5 31t-56 11.5h-103v-398h38q8 0 8 -8t-8 -8h-135q-8 0 -8 8t8 8h38v530
h-38q-8 0 -8 8t8 8h123q8 0 8 -8t-8 -8h-26z" />
    <glyph glyph-name="germandbls" unicode="&#xdf;" horiz-adv-x="415" 
d="M279 483q0 -32 -14 -52t-31 -36t-31 -32t-14 -40q0 -23 15 -37.5t37 -26.5t48.5 -23t48.5 -26.5t37 -39t15 -58.5q0 -25 -10 -47t-27.5 -38.5t-40.5 -26t-49 -9.5q-61 0 -89.5 28.5t-28.5 69.5q0 29 19.5 49.5t48.5 20.5q26 0 45.5 -16.5t19.5 -42.5q0 -18 -10.5 -31
t-25.5 -13q-11 0 -19 8t-8 19q0 6 2.5 10.5t5 8.5t5 8.5t2.5 12.5t-8.5 14t-19.5 6q-18 0 -30.5 -15.5t-12.5 -38.5q0 -35 28 -59.5t76 -24.5q19 0 36 7t29.5 19.5t19.5 29.5t7 36q0 27 -14.5 43.5t-36 28.5t-47 22.5t-47 23.5t-36 31.5t-14.5 48.5q0 28 12.5 50t27 41.5
t27 40t12.5 46.5q0 32 -17.5 49.5t-42.5 17.5q-27 0 -46.5 -17.5t-19.5 -55.5v-451h29q8 0 8 -8t-8 -8h-106q-8 0 -8 8t8 8h29v295h-29q-8 0 -8 7v14q0 7 8 7h29v102q0 23 9 43t24.5 35t36 23.5t44.5 8.5q42 0 71 -19.5t29 -48.5z" />
    <glyph glyph-name="agrave" unicode="&#xe0;" horiz-adv-x="350" 
d="M161 345q21 0 43 -4t40 -14.5t29.5 -28.5t11.5 -46v-236h23q8 0 8 -8t-8 -8h-64q-7 0 -7 8v39q-19 -29 -44 -40t-64 -11q-54 0 -79 20t-25 56v108q0 13 8 13q7 0 13 -7.5t19 -14.5q10 -5 20.5 -9t23.5 -4q17 0 25 5t11.5 12t4.5 16t2.5 16t7 12t17.5 5q8 0 13 -6t5 -15
q0 -10 -7.5 -20.5t-19 -18.5t-26 -13.5t-29.5 -5.5q-17 0 -41 6v-76q0 -33 18.5 -49t50.5 -16q40 0 68 25.5t28 66.5v174q0 15 -7 25.5t-18 17t-24.5 9.5t-26.5 3q-12 0 -27 -3t-27.5 -10t-21 -17t-8.5 -23q0 -17 2.5 -23t2.5 -7q0 -4 -3 -4q-1 0 -6 2.5t-12 6.5l-14 8
t-11 7q-1 1 -1 4q0 15 10 28.5t27 23.5t40 15.5t49 5.5zM59 488q0 11 8 18.5t20 7.5q15 0 21.5 -8.5t13.5 -22.5q9 -20 22.5 -38t35.5 -40q1 -2 1 -4q0 -7 -6 -7t-21.5 9t-33 21t-32 24t-18.5 17q-11 11 -11 23z" />
    <glyph glyph-name="aacute" unicode="&#xe1;" horiz-adv-x="350" 
d="M161 345q21 0 43 -4t40 -14.5t29.5 -28.5t11.5 -46v-236h23q8 0 8 -8t-8 -8h-64q-7 0 -7 8v39q-19 -29 -44 -40t-64 -11q-54 0 -79 20t-25 56v108q0 13 8 13q7 0 13 -7.5t19 -14.5q10 -5 20.5 -9t23.5 -4q17 0 25 5t11.5 12t4.5 16t2.5 16t7 12t17.5 5q8 0 13 -6t5 -15
q0 -10 -7.5 -20.5t-19 -18.5t-26 -13.5t-29.5 -5.5q-17 0 -41 6v-76q0 -33 18.5 -49t50.5 -16q40 0 68 25.5t28 66.5v174q0 15 -7 25.5t-18 17t-24.5 9.5t-26.5 3q-12 0 -27 -3t-27.5 -10t-21 -17t-8.5 -23q0 -17 2.5 -23t2.5 -7q0 -4 -3 -4q-1 0 -6 2.5t-12 6.5l-14 8
t-11 7q-1 1 -1 4q0 15 10 28.5t27 23.5t40 15.5t49 5.5zM263 488q0 -12 -11 -23q-4 -5 -18.5 -17t-32 -24t-33 -21t-21.5 -9t-6 7q0 2 1 4q22 22 35.5 40t22.5 38q7 14 13.5 22.5t21.5 8.5q12 0 20 -7.5t8 -18.5z" />
    <glyph glyph-name="acircumflex" unicode="&#xe2;" horiz-adv-x="350" 
d="M161 345q21 0 43 -4t40 -14.5t29.5 -28.5t11.5 -46v-236h23q8 0 8 -8t-8 -8h-64q-7 0 -7 8v39q-19 -29 -44 -40t-64 -11q-54 0 -79 20t-25 56v108q0 13 8 13q7 0 13 -7.5t19 -14.5q10 -5 20.5 -9t23.5 -4q17 0 25 5t11.5 12t4.5 16t2.5 16t7 12t17.5 5q8 0 13 -6t5 -15
q0 -10 -7.5 -20.5t-19 -18.5t-26 -13.5t-29.5 -5.5q-17 0 -41 6v-76q0 -33 18.5 -49t50.5 -16q40 0 68 25.5t28 66.5v174q0 15 -7 25.5t-18 17t-24.5 9.5t-26.5 3q-12 0 -27 -3t-27.5 -10t-21 -17t-8.5 -23q0 -17 2.5 -23t2.5 -7q0 -4 -3 -4q-1 0 -6 2.5t-12 6.5l-14 8
t-11 7q-1 1 -1 4q0 15 10 28.5t27 23.5t40 15.5t49 5.5zM156 442q-10 -5 -25 -10.5t-30.5 -11t-29 -9t-21.5 -3.5q-6 0 -6 7q0 3 3 5q34 20 52.5 35.5t29 26l16 16t11.5 5.5t11 -5.5t15.5 -16t29.5 -26t53 -35.5q3 -2 3 -5q0 -7 -7 -7q-8 0 -21.5 3.5t-28.5 9l-30 11
t-25 10.5z" />
    <glyph glyph-name="atilde" unicode="&#xe3;" horiz-adv-x="350" 
d="M161 345q21 0 43 -4t40 -14.5t29.5 -28.5t11.5 -46v-236h23q8 0 8 -8t-8 -8h-64q-7 0 -7 8v39q-19 -29 -44 -40t-64 -11q-54 0 -79 20t-25 56v108q0 13 8 13q7 0 13 -7.5t19 -14.5q10 -5 20.5 -9t23.5 -4q17 0 25 5t11.5 12t4.5 16t2.5 16t7 12t17.5 5q8 0 13 -6t5 -15
q0 -10 -7.5 -20.5t-19 -18.5t-26 -13.5t-29.5 -5.5q-17 0 -41 6v-76q0 -33 18.5 -49t50.5 -16q40 0 68 25.5t28 66.5v174q0 15 -7 25.5t-18 17t-24.5 9.5t-26.5 3q-12 0 -27 -3t-27.5 -10t-21 -17t-8.5 -23q0 -17 2.5 -23t2.5 -7q0 -4 -3 -4q-1 0 -6 2.5t-12 6.5l-14 8
t-11 7q-1 1 -1 4q0 15 10 28.5t27 23.5t40 15.5t49 5.5zM120 488q16 0 29 -4.5t24 -9.5t21 -9.5t21 -4.5q10 0 22 5t24 16q3 3 5 3q7 0 7 -6q0 -8 -6 -18t-16.5 -18t-23.5 -13.5t-26 -5.5q-17 0 -29.5 4.5t-23.5 9.5t-21 9.5t-21 4.5q-9 0 -21 -5t-24 -17q-3 -2 -6 -2
q-6 0 -6 6q0 8 6 17.5t16 18t23 14t26 5.5z" />
    <glyph glyph-name="adieresis" unicode="&#xe4;" horiz-adv-x="350" 
d="M161 345q21 0 43 -4t40 -14.5t29.5 -28.5t11.5 -46v-236h23q8 0 8 -8t-8 -8h-64q-7 0 -7 8v39q-19 -29 -44 -40t-64 -11q-54 0 -79 20t-25 56v108q0 13 8 13q7 0 13 -7.5t19 -14.5q10 -5 20.5 -9t23.5 -4q17 0 25 5t11.5 12t4.5 16t2.5 16t7 12t17.5 5q8 0 13 -6t5 -15
q0 -10 -7.5 -20.5t-19 -18.5t-26 -13.5t-29.5 -5.5q-17 0 -41 6v-76q0 -33 18.5 -49t50.5 -16q40 0 68 25.5t28 66.5v174q0 15 -7 25.5t-18 17t-24.5 9.5t-26.5 3q-12 0 -27 -3t-27.5 -10t-21 -17t-8.5 -23q0 -17 2.5 -23t2.5 -7q0 -4 -3 -4q-1 0 -6 2.5t-12 6.5l-14 8
t-11 7q-1 1 -1 4q0 15 10 28.5t27 23.5t40 15.5t49 5.5zM200 490q14 0 21.5 -10t7.5 -22q0 -15 -6 -26.5t-23 -11.5q-16 0 -21.5 11.5t-5.5 26.5q0 12 7.5 22t19.5 10zM121 490q13 0 20.5 -10t7.5 -22q0 -15 -6 -26.5t-22 -11.5t-22 11.5t-6 26.5q0 12 7.5 22t20.5 10z" />
    <glyph glyph-name="aring" unicode="&#xe5;" horiz-adv-x="350" 
d="M161 345q21 0 43 -4t40 -14.5t29.5 -28.5t11.5 -46v-236h23q8 0 8 -8t-8 -8h-64q-7 0 -7 8v39q-19 -29 -44 -40t-64 -11q-54 0 -79 20t-25 56v108q0 13 8 13q7 0 13 -7.5t19 -14.5q10 -5 20.5 -9t23.5 -4q17 0 25 5t11.5 12t4.5 16t2.5 16t7 12t17.5 5q8 0 13 -6t5 -15
q0 -10 -7.5 -20.5t-19 -18.5t-26 -13.5t-29.5 -5.5q-17 0 -41 6v-76q0 -33 18.5 -49t50.5 -16q40 0 68 25.5t28 66.5v174q0 15 -7 25.5t-18 17t-24.5 9.5t-26.5 3q-12 0 -27 -3t-27.5 -10t-21 -17t-8.5 -23q0 -17 2.5 -23t2.5 -7q0 -4 -3 -4q-1 0 -6 2.5t-12 6.5l-14 8
t-11 7q-1 1 -1 4q0 15 10 28.5t27 23.5t40 15.5t49 5.5zM105 449q0 21 14.5 36t36.5 15q21 0 36 -15t15 -36q0 -22 -15 -36t-36 -14q-22 0 -36.5 14t-14.5 36zM123 449q0 -14 9.5 -23.5t23.5 -9.5t23.5 9.5t9.5 23.5t-9.5 23.5t-23.5 9.5t-23.5 -9.5t-9.5 -23.5z" />
    <glyph glyph-name="ae" unicode="&#xe6;" horiz-adv-x="564" 
d="M171 345q32 0 64.5 -10t48.5 -39q19 24 45.5 39t59.5 15q28 0 53.5 -12.5t44.5 -32t30.5 -44t11.5 -48.5l-224 -100q3 -20 9.5 -39.5t17 -34.5t25.5 -24.5t36 -9.5q35 0 61 16t41 59q2 7 7 7q4 0 4.5 -7.5t2.5 -12.5l12 -60q-7 2 -15 2h-13q-27 0 -51.5 -9t-52.5 -9
q-41 0 -71.5 23t-50.5 58q-16 -35 -49 -55.5t-79 -20.5q-54 0 -79 20t-25 56v108q0 13 8 13q7 0 13 -7.5t19 -14.5q10 -5 20.5 -9t23.5 -4q17 0 25 5t11.5 12t4.5 16t2.5 16t7 12t17.5 5q8 0 13 -6t5 -15q0 -10 -7.5 -20.5t-19 -18.5t-26 -13.5t-29.5 -5.5q-17 0 -41 6v-76
q0 -33 18.5 -49t50.5 -16q40 0 68 25.5t28 66.5v174q0 15 -7 25.5t-18 17t-24.5 9.5t-26.5 3q-12 0 -27 -3t-27.5 -10t-21 -17t-8.5 -23q0 -17 2.5 -23t2.5 -7q0 -4 -3 -4q-1 0 -6 2.5t-12 6.5l-14 8t-11 7q-1 1 -1 4q0 15 10 28.5t27 23.5t40 15.5t49 5.5zM300 174v-20.5
t2 -21.5l107 50q27 13 41.5 33t14.5 52q0 29 -23 49t-53 20q-27 0 -44.5 -16t-27 -40.5t-13.5 -53t-4 -52.5z" />
    <glyph glyph-name="ccedilla" unicode="&#xe7;" horiz-adv-x="343" 
d="M176 -8q-32 2 -60 17t-48 39t-31.5 55t-11.5 67q0 37 12 69t32.5 56t48 38t59.5 14q42 0 78 -23.5t51 -61.5q-13 -11 -24.5 -22.5t-24 -22t-26.5 -17t-31 -6.5q-13 0 -24.5 8t-11.5 22q6 -7 15 -12.5t20 -5.5q9 0 18 5t16 12.5t11.5 16.5t4.5 17q0 30 -21.5 52t-50.5 22
q-37 0 -63 -39.5t-26 -121.5q0 -44 7.5 -75t21 -50.5t32 -28.5t39.5 -9q41 0 70.5 23.5t31.5 58.5q-4 -2 -11.5 -2h-12.5q-11 0 -18.5 9t-7.5 23q0 12 9 20.5t22 8.5q16 0 26.5 -13.5t10.5 -33.5q0 -23 -9 -42.5t-25 -34.5t-37 -23.5t-45 -9.5v-25q26 -5 43.5 -23t17.5 -43
t-20 -42t-49 -17q-22 0 -37.5 13t-15.5 32t12.5 32t29.5 13q14 0 23.5 -7t9.5 -17q0 -8 -6.5 -14.5t-14.5 -6.5q-10 0 -13.5 7t-10.5 7q-13 0 -13 -17q0 -11 10.5 -18.5t25.5 -7.5q17 0 29 13.5t12 33.5t-14 34t-35 14v40z" />
    <glyph glyph-name="egrave" unicode="&#xe8;" 
d="M89 113q3 -20 9.5 -39.5t17 -34.5t25.5 -24.5t36 -9.5q35 0 61 16t41 59q2 7 7 7q4 0 4.5 -7.5t2.5 -12.5l12 -60q-7 2 -15 2h-13q-27 0 -51.5 -9t-52.5 -9q-33 0 -60.5 16.5t-47 42t-30 57.5t-10.5 64q0 31 10 63t29.5 58t46.5 42t62 16q28 0 53.5 -12.5t44.5 -32
t30.5 -44t11.5 -48.5zM84 174v-20.5t2 -21.5l107 50q27 13 41.5 33t14.5 52q0 29 -23 49t-53 20q-27 0 -44.5 -16t-27 -40.5t-13.5 -53t-4 -52.5zM71 488q0 11 8 18.5t20 7.5q15 0 21.5 -8.5t13.5 -22.5q9 -20 22.5 -38t35.5 -40q1 -2 1 -4q0 -7 -6 -7t-21.5 9t-33 21
t-32 24t-18.5 17q-11 11 -11 23z" />
    <glyph glyph-name="eacute" unicode="&#xe9;" 
d="M89 113q3 -20 9.5 -39.5t17 -34.5t25.5 -24.5t36 -9.5q35 0 61 16t41 59q2 7 7 7q4 0 4.5 -7.5t2.5 -12.5l12 -60q-7 2 -15 2h-13q-27 0 -51.5 -9t-52.5 -9q-33 0 -60.5 16.5t-47 42t-30 57.5t-10.5 64q0 31 10 63t29.5 58t46.5 42t62 16q28 0 53.5 -12.5t44.5 -32
t30.5 -44t11.5 -48.5zM84 174v-20.5t2 -21.5l107 50q27 13 41.5 33t14.5 52q0 29 -23 49t-53 20q-27 0 -44.5 -16t-27 -40.5t-13.5 -53t-4 -52.5zM269 488q0 -12 -11 -23q-4 -5 -18.5 -17t-32 -24t-33 -21t-21.5 -9t-6 7q0 2 1 4q22 22 35.5 40t22.5 38q7 14 13.5 22.5
t21.5 8.5q12 0 20 -7.5t8 -18.5z" />
    <glyph glyph-name="ecircumflex" unicode="&#xea;" 
d="M89 113q3 -20 9.5 -39.5t17 -34.5t25.5 -24.5t36 -9.5q35 0 61 16t41 59q2 7 7 7q4 0 4.5 -7.5t2.5 -12.5l12 -60q-7 2 -15 2h-13q-27 0 -51.5 -9t-52.5 -9q-33 0 -60.5 16.5t-47 42t-30 57.5t-10.5 64q0 31 10 63t29.5 58t46.5 42t62 16q28 0 53.5 -12.5t44.5 -32
t30.5 -44t11.5 -48.5zM84 174v-20.5t2 -21.5l107 50q27 13 41.5 33t14.5 52q0 29 -23 49t-53 20q-27 0 -44.5 -16t-27 -40.5t-13.5 -53t-4 -52.5zM172 442q-10 -5 -25 -10.5t-30.5 -11t-29 -9t-21.5 -3.5q-6 0 -6 7q0 3 3 5q34 20 52.5 35.5t29 26l16 16t11.5 5.5t11 -5.5
t15.5 -16t29.5 -26t53 -35.5q3 -2 3 -5q0 -7 -7 -7q-8 0 -21.5 3.5t-28.5 9l-30 11t-25 10.5z" />
    <glyph glyph-name="edieresis" unicode="&#xeb;" 
d="M89 113q3 -20 9.5 -39.5t17 -34.5t25.5 -24.5t36 -9.5q35 0 61 16t41 59q2 7 7 7q4 0 4.5 -7.5t2.5 -12.5l12 -60q-7 2 -15 2h-13q-27 0 -51.5 -9t-52.5 -9q-33 0 -60.5 16.5t-47 42t-30 57.5t-10.5 64q0 31 10 63t29.5 58t46.5 42t62 16q28 0 53.5 -12.5t44.5 -32
t30.5 -44t11.5 -48.5zM84 174v-20.5t2 -21.5l107 50q27 13 41.5 33t14.5 52q0 29 -23 49t-53 20q-27 0 -44.5 -16t-27 -40.5t-13.5 -53t-4 -52.5zM211 490q14 0 21.5 -10t7.5 -22q0 -15 -6 -26.5t-23 -11.5q-16 0 -21.5 11.5t-5.5 26.5q0 12 7.5 22t19.5 10zM132 490
q13 0 20.5 -10t7.5 -22q0 -15 -6 -26.5t-22 -11.5t-22 11.5t-6 26.5q0 12 7.5 22t20.5 10z" />
    <glyph glyph-name="igrave" unicode="&#xec;" horiz-adv-x="198" 
d="M75 313q-5 -1 -13.5 -1.5t-14.5 -0.5q-8 0 -8 9q0 2 1.5 5t6.5 3q21 0 41 6.5t29 6.5q2 0 4 -1.5t2 -3.5v-320h29q8 0 8 -8t-8 -8h-106q-8 0 -8 8t8 8h29v297zM-19 488q0 11 8 18.5t20 7.5q15 0 21.5 -8.5t13.5 -22.5q9 -20 22.5 -38t35.5 -40q1 -2 1 -4q0 -7 -6 -7
t-21.5 9t-33 21t-32 24t-18.5 17q-11 11 -11 23z" />
    <glyph glyph-name="iacute" unicode="&#xed;" horiz-adv-x="198" 
d="M75 313q-5 -1 -13.5 -1.5t-14.5 -0.5q-8 0 -8 9q0 2 1.5 5t6.5 3q21 0 41 6.5t29 6.5q2 0 4 -1.5t2 -3.5v-320h29q8 0 8 -8t-8 -8h-106q-8 0 -8 8t8 8h29v297zM185 488q0 -12 -11 -23q-4 -5 -18.5 -17t-32 -24t-33 -21t-21.5 -9t-6 7q0 2 1 4q22 22 35.5 40t22.5 38
q7 14 13.5 22.5t21.5 8.5q12 0 20 -7.5t8 -18.5z" />
    <glyph glyph-name="icircumflex" unicode="&#xee;" horiz-adv-x="178" 
d="M65 313q-5 -1 -13.5 -1.5t-14.5 -0.5q-8 0 -8 9q0 2 1.5 5t6.5 3q21 0 41 6.5t29 6.5q2 0 4 -1.5t2 -3.5v-320h29q8 0 8 -8t-8 -8h-106q-8 0 -8 8t8 8h29v297zM88 442q-10 -5 -22 -10.5t-23.5 -11t-22 -9t-18.5 -3.5q-6 0 -6 7q0 3 3 5q26 20 41 35.5t23.5 26t13.5 16
t11 5.5t11 -5.5t13.5 -16t23.5 -26t41 -35.5q3 -2 3 -5q0 -7 -7 -7q-8 0 -18.5 3.5t-22 9l-23 11t-21.5 10.5z" />
    <glyph glyph-name="idieresis" unicode="&#xef;" horiz-adv-x="198" 
d="M75 313q-5 -1 -13.5 -1.5t-14.5 -0.5q-8 0 -8 9q0 2 1.5 5t6.5 3q21 0 41 6.5t29 6.5q2 0 4 -1.5t2 -3.5v-320h29q8 0 8 -8t-8 -8h-106q-8 0 -8 8t8 8h29v297zM137 490q14 0 21.5 -10t7.5 -22q0 -15 -6 -26.5t-23 -11.5q-16 0 -21.5 11.5t-5.5 26.5q0 12 7.5 22t19.5 10z
M58 490q13 0 20.5 -10t7.5 -22q0 -15 -6 -26.5t-22 -11.5t-22 11.5t-6 26.5q0 12 7.5 22t20.5 10z" />
    <glyph glyph-name="eth" unicode="&#xf0;" horiz-adv-x="374" 
d="M190 464q-15 14 -31.5 27.5t-34.5 24.5q-8 5 -14.5 8.5t-6.5 7.5q0 8 6 8q5 0 14 -4q52 -24 93 -54l61 43q4 3 8 -1l8 -11q2 -5 -2 -8l-56 -39q111 -98 111 -263q0 -44 -12.5 -82.5t-33.5 -67.5t-49.5 -45.5t-61.5 -16.5t-61.5 14t-50 38t-34 56t-12.5 68q0 38 12.5 71.5
t34 58t50 39t61.5 14.5q26 0 47 -8.5t39 -22.5q-8 35 -25 67t-43 60l-60 -42q-6 -4 -8 1l-8 11q-3 5 2 8zM189 336q-29 0 -48.5 -13.5t-31 -34.5t-16 -45.5t-4.5 -46.5q14 21 35.5 29.5t41.5 8.5q28 0 47.5 -19.5t19.5 -47.5q0 -17 -12 -33.5t-31 -16.5q-10 0 -15.5 7
t-5.5 16q0 10 6 15.5t13.5 9.5t13.5 8.5t6 12.5q0 18 -14 24t-28 6q-31 0 -52 -21t-21 -53q0 -22 4 -46t14.5 -44.5t29.5 -33.5t48 -13t48 13.5t30.5 36t16.5 52t5 60.5t-5 61.5t-16.5 54.5t-30.5 38.5t-48 14.5z" />
    <glyph glyph-name="ntilde" unicode="&#xf1;" horiz-adv-x="384" 
d="M65 313q-5 -1 -13.5 -1.5t-14.5 -0.5q-8 0 -8 9q0 2 1.5 5t6.5 3q21 0 41 6.5t29 6.5q2 0 4 -1.5t2 -3.5v-42q15 25 43.5 40.5t63.5 15.5q45 0 72 -26t27 -77v-231h29q8 0 8 -8t-8 -8h-106q-8 0 -8 8t8 8h29v231q0 32 -12.5 53.5t-47.5 21.5q-22 0 -40 -6.5t-31 -17.5
t-20 -24.5t-7 -26.5v-231h29q8 0 8 -8t-8 -8h-106q-8 0 -8 8t8 8h29v297zM152 488q16 0 29 -4.5t24 -9.5t21 -9.5t21 -4.5q10 0 22 5t24 16q3 3 5 3q7 0 7 -6q0 -8 -6 -18t-16.5 -18t-23.5 -13.5t-26 -5.5q-17 0 -29.5 4.5t-23.5 9.5t-21 9.5t-21 4.5q-9 0 -21 -5t-24 -17
q-3 -2 -6 -2q-6 0 -6 6q0 8 6 17.5t16 18t23 14t26 5.5z" />
    <glyph glyph-name="ograve" unicode="&#xf2;" horiz-adv-x="374" 
d="M186 336q-29 0 -48 -14t-30 -37t-15.5 -53t-4.5 -61q0 -32 4.5 -61.5t15.5 -53t30 -37.5t48 -14q30 0 49 13.5t30 34.5t15 45.5t4 46.5q0 32 -22 54t-53 22q-14 0 -29.5 -6.5t-15.5 -23.5q0 -9 6.5 -13.5t14.5 -9t14.5 -10t6.5 -15.5q0 -22 -22 -22q-20 0 -31 16t-11 33
q0 29 19 47t48 18q21 0 43 -12.5t36 -26.5q0 22 -5 46.5t-16.5 45.5t-31 34.5t-49.5 13.5zM186 350q36 0 65 -16t50 -42t32 -58t11 -63q0 -32 -11 -64t-32 -57.5t-50 -42t-65 -16.5q-35 0 -64 16.5t-49.5 42t-31.5 57.5t-11 64q0 31 11 63t31.5 58t49.5 42t64 16zM80 488
q0 11 8 18.5t20 7.5q15 0 21.5 -8.5t13.5 -22.5q9 -20 22.5 -38t35.5 -40q1 -2 1 -4q0 -7 -6 -7t-21.5 9t-33 21t-32 24t-18.5 17q-11 11 -11 23z" />
    <glyph glyph-name="oacute" unicode="&#xf3;" horiz-adv-x="374" 
d="M186 336q-29 0 -48 -14t-30 -37t-15.5 -53t-4.5 -61q0 -32 4.5 -61.5t15.5 -53t30 -37.5t48 -14q30 0 49 13.5t30 34.5t15 45.5t4 46.5q0 32 -22 54t-53 22q-14 0 -29.5 -6.5t-15.5 -23.5q0 -9 6.5 -13.5t14.5 -9t14.5 -10t6.5 -15.5q0 -22 -22 -22q-20 0 -31 16t-11 33
q0 29 19 47t48 18q21 0 43 -12.5t36 -26.5q0 22 -5 46.5t-16.5 45.5t-31 34.5t-49.5 13.5zM186 350q36 0 65 -16t50 -42t32 -58t11 -63q0 -32 -11 -64t-32 -57.5t-50 -42t-65 -16.5q-35 0 -64 16.5t-49.5 42t-31.5 57.5t-11 64q0 31 11 63t31.5 58t49.5 42t64 16zM294 488
q0 -12 -11 -23q-4 -5 -18.5 -17t-32 -24t-33 -21t-21.5 -9t-6 7q0 2 1 4q22 22 35.5 40t22.5 38q7 14 13.5 22.5t21.5 8.5q12 0 20 -7.5t8 -18.5z" />
    <glyph glyph-name="ocircumflex" unicode="&#xf4;" horiz-adv-x="374" 
d="M186 336q-29 0 -48 -14t-30 -37t-15.5 -53t-4.5 -61q0 -32 4.5 -61.5t15.5 -53t30 -37.5t48 -14q30 0 49 13.5t30 34.5t15 45.5t4 46.5q0 32 -22 54t-53 22q-14 0 -29.5 -6.5t-15.5 -23.5q0 -9 6.5 -13.5t14.5 -9t14.5 -10t6.5 -15.5q0 -22 -22 -22q-20 0 -31 16t-11 33
q0 29 19 47t48 18q21 0 43 -12.5t36 -26.5q0 22 -5 46.5t-16.5 45.5t-31 34.5t-49.5 13.5zM186 350q36 0 65 -16t50 -42t32 -58t11 -63q0 -32 -11 -64t-32 -57.5t-50 -42t-65 -16.5q-35 0 -64 16.5t-49.5 42t-31.5 57.5t-11 64q0 31 11 63t31.5 58t49.5 42t64 16zM187 442
q-10 -5 -25 -10.5t-30.5 -11t-29 -9t-21.5 -3.5q-6 0 -6 7q0 3 3 5q34 20 52.5 35.5t29 26l16 16t11.5 5.5t11 -5.5t15.5 -16t29.5 -26t53 -35.5q3 -2 3 -5q0 -7 -7 -7q-8 0 -21.5 3.5t-28.5 9l-30 11t-25 10.5z" />
    <glyph glyph-name="otilde" unicode="&#xf5;" horiz-adv-x="374" 
d="M186 336q-29 0 -48 -14t-30 -37t-15.5 -53t-4.5 -61q0 -32 4.5 -61.5t15.5 -53t30 -37.5t48 -14q30 0 49 13.5t30 34.5t15 45.5t4 46.5q0 32 -22 54t-53 22q-14 0 -29.5 -6.5t-15.5 -23.5q0 -9 6.5 -13.5t14.5 -9t14.5 -10t6.5 -15.5q0 -22 -22 -22q-20 0 -31 16t-11 33
q0 29 19 47t48 18q21 0 43 -12.5t36 -26.5q0 22 -5 46.5t-16.5 45.5t-31 34.5t-49.5 13.5zM186 350q36 0 65 -16t50 -42t32 -58t11 -63q0 -32 -11 -64t-32 -57.5t-50 -42t-65 -16.5q-35 0 -64 16.5t-49.5 42t-31.5 57.5t-11 64q0 31 11 63t31.5 58t49.5 42t64 16zM146 488
q16 0 29 -4.5t24 -9.5t21 -9.5t21 -4.5q10 0 22 5t24 16q3 3 5 3q7 0 7 -6q0 -8 -6 -18t-16.5 -18t-23.5 -13.5t-26 -5.5q-17 0 -29.5 4.5t-23.5 9.5t-21 9.5t-21 4.5q-9 0 -21 -5t-24 -17q-3 -2 -6 -2q-6 0 -6 6q0 8 6 17.5t16 18t23 14t26 5.5z" />
    <glyph glyph-name="odieresis" unicode="&#xf6;" horiz-adv-x="374" 
d="M186 336q-29 0 -48 -14t-30 -37t-15.5 -53t-4.5 -61q0 -32 4.5 -61.5t15.5 -53t30 -37.5t48 -14q30 0 49 13.5t30 34.5t15 45.5t4 46.5q0 32 -22 54t-53 22q-14 0 -29.5 -6.5t-15.5 -23.5q0 -9 6.5 -13.5t14.5 -9t14.5 -10t6.5 -15.5q0 -22 -22 -22q-20 0 -31 16t-11 33
q0 29 19 47t48 18q21 0 43 -12.5t36 -26.5q0 22 -5 46.5t-16.5 45.5t-31 34.5t-49.5 13.5zM186 350q36 0 65 -16t50 -42t32 -58t11 -63q0 -32 -11 -64t-32 -57.5t-50 -42t-65 -16.5q-35 0 -64 16.5t-49.5 42t-31.5 57.5t-11 64q0 31 11 63t31.5 58t49.5 42t64 16zM226 490
q14 0 21.5 -10t7.5 -22q0 -15 -6 -26.5t-23 -11.5q-16 0 -21.5 11.5t-5.5 26.5q0 12 7.5 22t19.5 10zM147 490q13 0 20.5 -10t7.5 -22q0 -15 -6 -26.5t-22 -11.5t-22 11.5t-6 26.5q0 12 7.5 22t20.5 10z" />
    <glyph glyph-name="divide" unicode="&#xf7;" horiz-adv-x="450" 
d="M404 329q11 0 11 -6v-16q0 -7 -11 -7h-358q-5 0 -7.5 1t-2.5 6v16q0 6 9 6h359zM188 159q0 16 11 26.5t28 10.5q14 0 25 -11t11 -27q0 -15 -11.5 -25t-28.5 -10q-15 0 -25 10.5t-10 25.5zM188 464q0 16 11 26.5t28 10.5q14 0 25 -11t11 -27q0 -15 -11.5 -25t-28.5 -10
q-15 0 -25 10.5t-10 25.5z" />
    <glyph glyph-name="oslash" unicode="&#xf8;" horiz-adv-x="374" 
d="M186 350q31 0 56.5 -12t45.5 -32l41 48q4 4 8 0l9 -8q5 -4 1 -8l-44 -50q20 -26 30.5 -56.5t10.5 -60.5q0 -32 -11 -64t-32 -57.5t-50 -42t-65 -16.5q-31 0 -56.5 12.5t-45.5 32.5l-41 -48q-4 -5 -8 -1l-9 8q-5 4 -1 8l44 51q-19 26 -29 56.5t-10 60.5q0 31 11 63
t31.5 58t49.5 42t64 16zM186 336q-30 0 -49.5 -13.5t-31 -34.5t-16.5 -45.5t-5 -46.5q14 14 36 26.5t43 12.5q29 0 48 -18t19 -47q0 -17 -11 -33t-31 -16q-22 0 -22 22q0 10 6.5 15.5t14.5 10t14.5 9t6.5 13.5q0 17 -15.5 23.5t-29.5 6.5q-31 0 -53 -22t-22 -54
q0 -22 4 -46.5t15 -45.5t30 -34.5t49 -13.5q29 0 48 14t30 37.5t15.5 53t4.5 61.5q0 31 -4.5 61t-15.5 53t-30 37t-48 14z" />
    <glyph glyph-name="ugrave" unicode="&#xf9;" horiz-adv-x="383" 
d="M347 16q3 0 5 -3t2 -5q0 -8 -7 -8h-71q-2 0 -4.5 2.5t-2.5 5.5v39q-14 -25 -42 -40.5t-63 -15.5q-45 0 -72 26.5t-27 77.5v221q-5 -1 -13.5 -1.5t-14.5 -0.5q-8 0 -8 9q0 2 1.5 5t6.5 3q21 0 41 6.5t29 6.5q2 0 4 -1.5t2 -3.5v-244q0 -33 12 -54.5t46 -21.5q22 0 40 7
t31 17.5t20 24t7 27.5v221q-5 -1 -13.5 -1.5t-14.5 -0.5q-8 0 -8 9q0 2 1.5 5t6.5 3q21 0 41 6.5t29 6.5q2 0 4 -1.5t2 -3.5v-323h30zM95 488q0 11 8 18.5t20 7.5q15 0 21.5 -8.5t13.5 -22.5q9 -20 22.5 -38t35.5 -40q1 -2 1 -4q0 -7 -6 -7t-21.5 9t-33 21t-32 24t-18.5 17
q-11 11 -11 23z" />
    <glyph glyph-name="uacute" unicode="&#xfa;" horiz-adv-x="383" 
d="M347 16q3 0 5 -3t2 -5q0 -8 -7 -8h-71q-2 0 -4.5 2.5t-2.5 5.5v39q-14 -25 -42 -40.5t-63 -15.5q-45 0 -72 26.5t-27 77.5v221q-5 -1 -13.5 -1.5t-14.5 -0.5q-8 0 -8 9q0 2 1.5 5t6.5 3q21 0 41 6.5t29 6.5q2 0 4 -1.5t2 -3.5v-244q0 -33 12 -54.5t46 -21.5q22 0 40 7
t31 17.5t20 24t7 27.5v221q-5 -1 -13.5 -1.5t-14.5 -0.5q-8 0 -8 9q0 2 1.5 5t6.5 3q21 0 41 6.5t29 6.5q2 0 4 -1.5t2 -3.5v-323h30zM296 488q0 -12 -11 -23q-4 -5 -18.5 -17t-32 -24t-33 -21t-21.5 -9t-6 7q0 2 1 4q22 22 35.5 40t22.5 38q7 14 13.5 22.5t21.5 8.5
q12 0 20 -7.5t8 -18.5z" />
    <glyph glyph-name="ucircumflex" unicode="&#xfb;" horiz-adv-x="383" 
d="M347 16q3 0 5 -3t2 -5q0 -8 -7 -8h-71q-2 0 -4.5 2.5t-2.5 5.5v39q-14 -25 -42 -40.5t-63 -15.5q-45 0 -72 26.5t-27 77.5v221q-5 -1 -13.5 -1.5t-14.5 -0.5q-8 0 -8 9q0 2 1.5 5t6.5 3q21 0 41 6.5t29 6.5q2 0 4 -1.5t2 -3.5v-244q0 -33 12 -54.5t46 -21.5q22 0 40 7
t31 17.5t20 24t7 27.5v221q-5 -1 -13.5 -1.5t-14.5 -0.5q-8 0 -8 9q0 2 1.5 5t6.5 3q21 0 41 6.5t29 6.5q2 0 4 -1.5t2 -3.5v-323h30zM184 442q-10 -5 -25 -10.5t-30.5 -11t-29 -9t-21.5 -3.5q-6 0 -6 7q0 3 3 5q34 20 52.5 35.5t29 26l16 16t11.5 5.5t11 -5.5t15.5 -16
t29.5 -26t53 -35.5q3 -2 3 -5q0 -7 -7 -7q-8 0 -21.5 3.5t-28.5 9l-30 11t-25 10.5z" />
    <glyph glyph-name="udieresis" unicode="&#xfc;" horiz-adv-x="383" 
d="M347 16q3 0 5 -3t2 -5q0 -8 -7 -8h-71q-2 0 -4.5 2.5t-2.5 5.5v39q-14 -25 -42 -40.5t-63 -15.5q-45 0 -72 26.5t-27 77.5v221q-5 -1 -13.5 -1.5t-14.5 -0.5q-8 0 -8 9q0 2 1.5 5t6.5 3q21 0 41 6.5t29 6.5q2 0 4 -1.5t2 -3.5v-244q0 -33 12 -54.5t46 -21.5q22 0 40 7
t31 17.5t20 24t7 27.5v221q-5 -1 -13.5 -1.5t-14.5 -0.5q-8 0 -8 9q0 2 1.5 5t6.5 3q21 0 41 6.5t29 6.5q2 0 4 -1.5t2 -3.5v-323h30zM223 490q14 0 21.5 -10t7.5 -22q0 -15 -6 -26.5t-23 -11.5q-16 0 -21.5 11.5t-5.5 26.5q0 12 7.5 22t19.5 10zM144 490q13 0 20.5 -10
t7.5 -22q0 -15 -6 -26.5t-22 -11.5t-22 11.5t-6 26.5q0 12 7.5 22t20.5 10z" />
    <glyph glyph-name="yacute" unicode="&#xfd;" horiz-adv-x="401" 
d="M29 401q14 0 23 -7.5t9 -18.5q0 -9 -6 -15.5t-14 -6.5t-14 6t-6 14q0 7 4 15q-21 -5 -21 -27q0 -17 13.5 -29.5t33.5 -12.5q16 0 31 4t29.5 9t29.5 9t30 4q32 0 55 -18t23 -44q0 -17 -10 -29.5t-24 -12.5t-24.5 9t-10.5 23q0 13 8.5 23.5t20.5 10.5q8 0 14 -3l3 3
q-8 14 -21.5 19t-28.5 5q-19 0 -36.5 -5.5t-34.5 -14.5q5 -78 29.5 -142.5t82.5 -115.5q42 36 65 89t23 107q0 17 -4.5 31.5t-10.5 25.5t-10.5 17.5t-4.5 8.5q0 7 5 7q4 0 14.5 -4.5t30.5 -8.5q12 -2 27 -2h31q3 0 3 -4q0 -6 -12 -18.5t-22 -30.5q-4 -8 -11 -26t-14 -37.5
t-13 -36t-7 -21.5q-14 -38 -39.5 -69.5t-54 -61.5t-56 -61t-45.5 -67q8 8 22.5 11t28.5 3q15 0 29 -4t28 -8.5t28 -8t29 -3.5q20 0 35.5 9.5t15.5 32.5q0 3 -3 6q0 -5 -5 -9t-15 -4q-11 0 -16.5 7.5t-5.5 15.5q0 7 6.5 14.5t17.5 7.5q34 0 34 -44q0 -20 -10.5 -34
t-26.5 -23.5t-35 -14t-35 -4.5q-21 0 -36 4.5t-27 10t-23 10t-25 4.5q-12 0 -18 -4t-10 -8.5t-6.5 -8t-7.5 -3.5q-3 0 -4.5 3t-1.5 6t2 9t3 8q17 39 43 71.5t55 66.5q-58 63 -86 136t-38 158q-26 0 -45 17t-19 40q0 17 11 28.5t28 11.5zM315 488q0 -12 -11 -23
q-4 -5 -18.5 -17t-32 -24t-33 -21t-21.5 -9t-6 7q0 2 1 4q22 22 35.5 40t22.5 38q7 14 13.5 22.5t21.5 8.5q12 0 20 -7.5t8 -18.5z" />
    <glyph glyph-name="thorn" unicode="&#xfe;" horiz-adv-x="367" 
d="M197 331q-29 0 -45.5 -12t-25 -33t-11 -50t-2.5 -63q11 8 25.5 15.5t30.5 7.5q26 0 45 -18.5t19 -46.5q0 -18 -8.5 -34t-25.5 -16q-10 0 -16 7t-6 15q0 7 4.5 13t9.5 11t9.5 10.5t4.5 12.5q0 14 -10.5 23t-25.5 9q-27 0 -40.5 -22.5t-13.5 -47.5q0 -19 6 -37.5t17 -33
t26 -23.5t33 -9q25 0 41 14t25 36.5t12 52t3 61.5q0 22 -4 49.5t-13.5 51.5t-25 40.5t-38.5 16.5zM197 345q30 0 56 -15t44.5 -39.5t29 -55.5t10.5 -62q0 -35 -10 -67t-28 -57t-44 -39.5t-58 -14.5q-23 0 -46 7t-38 26v-162h29q8 0 8 -8t-8 -8h-106q-8 0 -8 8t8 8h29v647
q-5 -1 -13.5 -1.5t-14.5 -0.5q-8 0 -8 9q0 2 1.5 5t6.5 3q21 0 41 6.5t29 6.5q4 0 6 -5v-228q17 17 37.5 27t46.5 10z" />
    <glyph glyph-name="ydieresis" unicode="&#xff;" horiz-adv-x="401" 
d="M29 401q14 0 23 -7.5t9 -18.5q0 -9 -6 -15.5t-14 -6.5t-14 6t-6 14q0 7 4 15q-21 -5 -21 -27q0 -17 13.5 -29.5t33.5 -12.5q16 0 31 4t29.5 9t29.5 9t30 4q32 0 55 -18t23 -44q0 -17 -10 -29.5t-24 -12.5t-24.5 9t-10.5 23q0 13 8.5 23.5t20.5 10.5q8 0 14 -3l3 3
q-8 14 -21.5 19t-28.5 5q-19 0 -36.5 -5.5t-34.5 -14.5q5 -78 29.5 -142.5t82.5 -115.5q42 36 65 89t23 107q0 17 -4.5 31.5t-10.5 25.5t-10.5 17.5t-4.5 8.5q0 7 5 7q4 0 14.5 -4.5t30.5 -8.5q12 -2 27 -2h31q3 0 3 -4q0 -6 -12 -18.5t-22 -30.5q-4 -8 -11 -26t-14 -37.5
t-13 -36t-7 -21.5q-14 -38 -39.5 -69.5t-54 -61.5t-56 -61t-45.5 -67q8 8 22.5 11t28.5 3q15 0 29 -4t28 -8.5t28 -8t29 -3.5q20 0 35.5 9.5t15.5 32.5q0 3 -3 6q0 -5 -5 -9t-15 -4q-11 0 -16.5 7.5t-5.5 15.5q0 7 6.5 14.5t17.5 7.5q34 0 34 -44q0 -20 -10.5 -34
t-26.5 -23.5t-35 -14t-35 -4.5q-21 0 -36 4.5t-27 10t-23 10t-25 4.5q-12 0 -18 -4t-10 -8.5t-6.5 -8t-7.5 -3.5q-3 0 -4.5 3t-1.5 6t2 9t3 8q17 39 43 71.5t55 66.5q-58 63 -86 136t-38 158q-26 0 -45 17t-19 40q0 17 11 28.5t28 11.5zM257 490q14 0 21.5 -10t7.5 -22
q0 -15 -6 -26.5t-23 -11.5q-16 0 -21.5 11.5t-5.5 26.5q0 12 7.5 22t19.5 10zM178 490q13 0 20.5 -10t7.5 -22q0 -15 -6 -26.5t-22 -11.5t-22 11.5t-6 26.5q0 12 7.5 22t20.5 10z" />
    <glyph glyph-name="Amacron" unicode="&#x100;" horiz-adv-x="509" 
d="M328 247h-172l-5 -22h83q23 0 39 -15t16 -38q0 -18 -12.5 -31.5t-30.5 -13.5q-16 0 -27 9.5t-11 23.5q0 11 6 19t15 8q18 0 18 -16q0 -5 -4 -11t-13 -6q-4 0 -7 1q5 -5 10.5 -9t12.5 -4q12 0 20 8.5t8 21.5q0 15 -11.5 26.5t-28.5 11.5h-86q-5 -23 -7.5 -47t-2.5 -48
q0 -27 4 -50.5t12 -48.5h35q8 0 8 -8t-8 -8h-157q-8 0 -8 8t8 8h35q16 56 35 124t35 134.5t26.5 125t10.5 96.5q0 14 -0.5 24.5t-4.5 25.5h-18q-31 0 -57.5 -17t-33.5 -40q7 3 16 3q14 0 23 -8.5t9 -21.5q0 -15 -10.5 -25.5t-25.5 -10.5t-25.5 13t-10.5 32q0 18 9.5 34.5
t25 29t36.5 20t44 7.5h224q8 0 8 -8t-8 -8h-50l114 -530h35q8 0 8 -8t-8 -8h-131q-8 0 -8 8t8 8h35zM218 371q0 -17 15.5 -25.5t30.5 -8.5h45l-44 207h-35q-21 -61 -36.5 -122t-26.5 -124h150l-5 24h-53q-20 0 -38 13.5t-18 35.5q0 17 11 29.5t26 12.5q14 0 23 -8t9 -19
q0 -10 -5 -16.5t-12 -6.5q-16 0 -16 13q0 6 3.5 10.5t8.5 4.5q6 0 8 -2q-4 10 -17 10q-10 0 -17 -8.5t-7 -19.5zM161 664q-8 0 -8 7v14q0 7 8 7h174q8 0 8 -7v-14q0 -7 -8 -7h-174z" />
    <glyph glyph-name="amacron" unicode="&#x101;" horiz-adv-x="350" 
d="M161 345q21 0 43 -4t40 -14.5t29.5 -28.5t11.5 -46v-236h23q8 0 8 -8t-8 -8h-64q-7 0 -7 8v39q-19 -29 -44 -40t-64 -11q-54 0 -79 20t-25 56v108q0 13 8 13q7 0 13 -7.5t19 -14.5q10 -5 20.5 -9t23.5 -4q17 0 25 5t11.5 12t4.5 16t2.5 16t7 12t17.5 5q8 0 13 -6t5 -15
q0 -10 -7.5 -20.5t-19 -18.5t-26 -13.5t-29.5 -5.5q-17 0 -41 6v-76q0 -33 18.5 -49t50.5 -16q40 0 68 25.5t28 66.5v174q0 15 -7 25.5t-18 17t-24.5 9.5t-26.5 3q-12 0 -27 -3t-27.5 -10t-21 -17t-8.5 -23q0 -17 2.5 -23t2.5 -7q0 -4 -3 -4q-1 0 -6 2.5t-12 6.5l-14 8
t-11 7q-1 1 -1 4q0 15 10 28.5t27 23.5t40 15.5t49 5.5zM71 440q-8 0 -8 7v14q0 7 8 7h174q8 0 8 -7v-14q0 -7 -8 -7h-174z" />
    <glyph glyph-name="Abreve" unicode="&#x102;" horiz-adv-x="509" 
d="M328 247h-172l-5 -22h83q23 0 39 -15t16 -38q0 -18 -12.5 -31.5t-30.5 -13.5q-16 0 -27 9.5t-11 23.5q0 11 6 19t15 8q18 0 18 -16q0 -5 -4 -11t-13 -6q-4 0 -7 1q5 -5 10.5 -9t12.5 -4q12 0 20 8.5t8 21.5q0 15 -11.5 26.5t-28.5 11.5h-86q-5 -23 -7.5 -47t-2.5 -48
q0 -27 4 -50.5t12 -48.5h35q8 0 8 -8t-8 -8h-157q-8 0 -8 8t8 8h35q16 56 35 124t35 134.5t26.5 125t10.5 96.5q0 14 -0.5 24.5t-4.5 25.5h-18q-31 0 -57.5 -17t-33.5 -40q7 3 16 3q14 0 23 -8.5t9 -21.5q0 -15 -10.5 -25.5t-25.5 -10.5t-25.5 13t-10.5 32q0 18 9.5 34.5
t25 29t36.5 20t44 7.5h224q8 0 8 -8t-8 -8h-50l114 -530h35q8 0 8 -8t-8 -8h-131q-8 0 -8 8t8 8h35zM218 371q0 -17 15.5 -25.5t30.5 -8.5h45l-44 207h-35q-21 -61 -36.5 -122t-26.5 -124h150l-5 24h-53q-20 0 -38 13.5t-18 35.5q0 17 11 29.5t26 12.5q14 0 23 -8t9 -19
q0 -10 -5 -16.5t-12 -6.5q-16 0 -16 13q0 6 3.5 10.5t8.5 4.5q6 0 8 -2q-4 10 -17 10q-10 0 -17 -8.5t-7 -19.5zM148 717q7 -12 22 -20t30.5 -12t29 -5.5t18.5 -1.5t18.5 1.5t29 5.5t30 12t22.5 20q1 3 5 3q7 0 7 -6q0 -16 -9.5 -30t-25 -24.5t-36 -16.5t-41.5 -6t-41.5 6
t-36 16.5t-25 24.5t-9.5 30q0 6 6 6q4 0 6 -3z" />
    <glyph glyph-name="abreve" unicode="&#x103;" horiz-adv-x="350" 
d="M161 345q21 0 43 -4t40 -14.5t29.5 -28.5t11.5 -46v-236h23q8 0 8 -8t-8 -8h-64q-7 0 -7 8v39q-19 -29 -44 -40t-64 -11q-54 0 -79 20t-25 56v108q0 13 8 13q7 0 13 -7.5t19 -14.5q10 -5 20.5 -9t23.5 -4q17 0 25 5t11.5 12t4.5 16t2.5 16t7 12t17.5 5q8 0 13 -6t5 -15
q0 -10 -7.5 -20.5t-19 -18.5t-26 -13.5t-29.5 -5.5q-17 0 -41 6v-76q0 -33 18.5 -49t50.5 -16q40 0 68 25.5t28 66.5v174q0 15 -7 25.5t-18 17t-24.5 9.5t-26.5 3q-12 0 -27 -3t-27.5 -10t-21 -17t-8.5 -23q0 -17 2.5 -23t2.5 -7q0 -4 -3 -4q-1 0 -6 2.5t-12 6.5l-14 8
t-11 7q-1 1 -1 4q0 15 10 28.5t27 23.5t40 15.5t49 5.5zM78 494q10 -17 33.5 -28t46.5 -11t46.5 11t33.5 28q1 3 5 3q7 0 7 -6q0 -32 -27 -54.5t-65 -22.5t-65 22.5t-27 54.5q0 6 6 6q4 0 6 -3z" />
    <glyph glyph-name="Aogonek" unicode="&#x104;" horiz-adv-x="509" 
d="M378 16l-50 231h-172l-5 -22h83q23 0 39 -15t16 -38q0 -18 -12.5 -31.5t-30.5 -13.5q-16 0 -27 9.5t-11 23.5q0 11 6 19t15 8q18 0 18 -16q0 -5 -4 -11t-13 -6q-4 0 -7 1q5 -5 10.5 -9t12.5 -4q12 0 20 8.5t8 21.5q0 15 -11.5 26.5t-28.5 11.5h-86q-5 -23 -7.5 -47
t-2.5 -48q0 -27 4 -50.5t12 -48.5h35q8 0 8 -8t-8 -8h-157q-8 0 -8 8t8 8h35q16 56 35 124t35 134.5t26.5 125t10.5 96.5q0 14 -0.5 24.5t-4.5 25.5h-18q-31 0 -57.5 -17t-33.5 -40q7 3 16 3q14 0 23 -8.5t9 -21.5q0 -15 -10.5 -25.5t-25.5 -10.5t-25.5 13t-10.5 32
q0 18 9.5 34.5t25 29t36.5 20t44 7.5h224q8 0 8 -8t-8 -8h-50l114 -530h35q8 0 8 -8t-8 -8h-112q-34 0 -58 -24t-24 -59q0 -25 17 -42.5t40 -17.5q11 0 22 7t11 20q0 8 -5 13t-11.5 9.5t-11.5 9.5t-5 14q0 11 8.5 19.5t19.5 8.5q18 0 31 -15t13 -36q0 -27 -21 -46.5
t-51 -19.5t-51.5 22t-21.5 54q0 42 28.5 70.5t69.5 28.5h16zM218 371q0 -17 15.5 -25.5t30.5 -8.5h45l-44 207h-35q-21 -61 -36.5 -122t-26.5 -124h150l-5 24h-53q-20 0 -38 13.5t-18 35.5q0 17 11 29.5t26 12.5q14 0 23 -8t9 -19q0 -10 -5 -16.5t-12 -6.5q-16 0 -16 13
q0 6 3.5 10.5t8.5 4.5q6 0 8 -2q-4 10 -17 10q-10 0 -17 -8.5t-7 -19.5z" />
    <glyph glyph-name="aogonek" unicode="&#x105;" horiz-adv-x="350" 
d="M161 345q21 0 43 -4t40 -14.5t29.5 -28.5t11.5 -46v-236h23q8 0 8 -8t-8 -8h-33q-34 0 -58 -24t-24 -59q0 -25 17 -42.5t40 -17.5q11 0 22 7t11 20q0 8 -5 13t-11.5 9.5t-11.5 9.5t-5 14q0 11 8.5 19.5t19.5 8.5q18 0 31 -15t13 -36q0 -27 -21 -46.5t-51 -19.5t-51.5 22
t-21.5 54q0 31 17 55.5t43 35.5v39q-19 -29 -44 -40t-64 -11q-54 0 -79 20t-25 56v108q0 13 8 13q7 0 13 -7.5t19 -14.5q10 -5 20.5 -9t23.5 -4q17 0 25 5t11.5 12t4.5 16t2.5 16t7 12t17.5 5q8 0 13 -6t5 -15q0 -10 -7.5 -20.5t-19 -18.5t-26 -13.5t-29.5 -5.5q-17 0 -41 6
v-76q0 -33 18.5 -49t50.5 -16q40 0 68 25.5t28 66.5v174q0 15 -7 25.5t-18 17t-24.5 9.5t-26.5 3q-12 0 -27 -3t-27.5 -10t-21 -17t-8.5 -23q0 -17 2.5 -23t2.5 -7q0 -4 -3 -4q-1 0 -6 2.5t-12 6.5l-14 8t-11 7q-1 1 -1 4q0 15 10 28.5t27 23.5t40 15.5t49 5.5z" />
    <glyph glyph-name="Cacute" unicode="&#x106;" horiz-adv-x="418" 
d="M222 570q26 0 46.5 -6.5t46.5 -6.5q23 0 28 3t9 3q8 0 8 -5q0 -2 -1 -5t-1 -5q0 -18 5.5 -36t12 -35.5t12 -35t5.5 -36.5q0 -29 -11.5 -54.5t-31 -45t-45.5 -31t-55 -11.5q-10 0 -15 1v-136q4 -2 7 -6.5t3 -9.5q0 -8 -5 -13t-13 -5t-13 5t-5 13q0 10 11 16v140
q-30 11 -50.5 35.5t-20.5 56.5q0 35 23 60.5t61 25.5q29 0 48.5 -19t19.5 -51q0 -14 -13 -27t-29 -13t-28 11.5t-12 28.5q0 16 12 26.5t28 10.5q4 0 7 -1t5 -2q-2 11 -14.5 16t-23.5 5q-29 0 -49 -21t-20 -50q0 -35 25.5 -58t60.5 -23q51 0 79.5 36t28.5 90q0 31 -9 58
t-26.5 47t-42.5 32t-58 12q-46 0 -72.5 -28.5t-39.5 -70t-16 -89t-3 -84.5q0 -35 2.5 -82t14.5 -89.5t38.5 -72.5t74.5 -30q30 0 56 12t45.5 32t33 46t18.5 53q2 4 6 4q6 0 6 -5q0 -2 -1.5 -8t-3 -15t-2.5 -18.5t-1 -17.5q0 -26 3 -50.5t10 -44.5q-12 5 -26.5 9.5t-28.5 4.5
q-29 0 -57 -9t-58 -9q-53 0 -90.5 29.5t-62.5 73.5t-36.5 94.5t-11.5 92.5t11.5 92t35.5 93.5t62.5 73t92.5 29.5zM314 726q11 0 20 -7.5t9 -18.5q0 -16 -17 -27q-5 -3 -20 -10t-33.5 -14t-36.5 -12.5t-28 -5.5q-6 0 -6 7q0 3 2 5q26 16 44 30.5t33 30.5q9 11 15 16.5
t18 5.5z" />
    <glyph glyph-name="cacute" unicode="&#x107;" horiz-adv-x="343" 
d="M306 262q-13 -11 -24.5 -22.5t-24 -22t-26.5 -17t-31 -6.5q-13 0 -24.5 8t-11.5 22q6 -7 15 -12.5t20 -5.5q9 0 18 5t16 12.5t11.5 16.5t4.5 17q0 30 -21.5 52t-50.5 22q-37 0 -63 -39.5t-26 -121.5q0 -44 7.5 -75t21 -50.5t32 -28.5t39.5 -9q41 0 70.5 23.5t31.5 58.5
q-4 -2 -11.5 -2h-12.5q-11 0 -18.5 9t-7.5 23q0 12 9 20.5t22 8.5q16 0 26.5 -13.5t10.5 -33.5q0 -23 -9.5 -43t-26 -35t-38 -23.5t-46.5 -8.5q-34 0 -64 14t-52 38.5t-34.5 57t-12.5 69.5t12 69t32.5 56t48 38t59.5 14q42 0 78 -23.5t51 -61.5zM275 488q0 -12 -11 -23
q-4 -5 -18.5 -17t-32 -24t-33 -21t-21.5 -9t-6 7q0 2 1 4q22 22 35.5 40t22.5 38q7 14 13.5 22.5t21.5 8.5q12 0 20 -7.5t8 -18.5z" />
    <glyph glyph-name="Ccircumflex" unicode="&#x108;" horiz-adv-x="418" 
d="M222 570q26 0 46.5 -6.5t46.5 -6.5q23 0 28 3t9 3q8 0 8 -5q0 -2 -1 -5t-1 -5q0 -18 5.5 -36t12 -35.5t12 -35t5.5 -36.5q0 -29 -11.5 -54.5t-31 -45t-45.5 -31t-55 -11.5q-10 0 -15 1v-136q4 -2 7 -6.5t3 -9.5q0 -8 -5 -13t-13 -5t-13 5t-5 13q0 10 11 16v140
q-30 11 -50.5 35.5t-20.5 56.5q0 35 23 60.5t61 25.5q29 0 48.5 -19t19.5 -51q0 -14 -13 -27t-29 -13t-28 11.5t-12 28.5q0 16 12 26.5t28 10.5q4 0 7 -1t5 -2q-2 11 -14.5 16t-23.5 5q-29 0 -49 -21t-20 -50q0 -35 25.5 -58t60.5 -23q51 0 79.5 36t28.5 90q0 31 -9 58
t-26.5 47t-42.5 32t-58 12q-46 0 -72.5 -28.5t-39.5 -70t-16 -89t-3 -84.5q0 -35 2.5 -82t14.5 -89.5t38.5 -72.5t74.5 -30q30 0 56 12t45.5 32t33 46t18.5 53q2 4 6 4q6 0 6 -5q0 -2 -1.5 -8t-3 -15t-2.5 -18.5t-1 -17.5q0 -26 3 -50.5t10 -44.5q-12 5 -26.5 9.5t-28.5 4.5
q-29 0 -57 -9t-58 -9q-53 0 -90.5 29.5t-62.5 73.5t-36.5 94.5t-11.5 92.5t11.5 92t35.5 93.5t62.5 73t92.5 29.5zM213 665q-10 -5 -25 -10.5t-30.5 -11t-29 -9t-21.5 -3.5q-6 0 -6 7q0 3 3 5q34 20 52.5 35.5t29 26l16 16t11.5 5.5t11 -5.5t15.5 -16t29.5 -26t53 -35.5
q3 -2 3 -5q0 -7 -7 -7q-8 0 -21.5 3.5t-28.5 9l-30 11t-25 10.5z" />
    <glyph glyph-name="ccircumflex" unicode="&#x109;" horiz-adv-x="343" 
d="M306 262q-13 -11 -24.5 -22.5t-24 -22t-26.5 -17t-31 -6.5q-13 0 -24.5 8t-11.5 22q6 -7 15 -12.5t20 -5.5q9 0 18 5t16 12.5t11.5 16.5t4.5 17q0 30 -21.5 52t-50.5 22q-37 0 -63 -39.5t-26 -121.5q0 -44 7.5 -75t21 -50.5t32 -28.5t39.5 -9q41 0 70.5 23.5t31.5 58.5
q-4 -2 -11.5 -2h-12.5q-11 0 -18.5 9t-7.5 23q0 12 9 20.5t22 8.5q16 0 26.5 -13.5t10.5 -33.5q0 -23 -9.5 -43t-26 -35t-38 -23.5t-46.5 -8.5q-34 0 -64 14t-52 38.5t-34.5 57t-12.5 69.5t12 69t32.5 56t48 38t59.5 14q42 0 78 -23.5t51 -61.5zM173 442q-10 -5 -25 -10.5
t-30.5 -11t-29 -9t-21.5 -3.5q-6 0 -6 7q0 3 3 5q34 20 52.5 35.5t29 26l16 16t11.5 5.5t11 -5.5t15.5 -16t29.5 -26t53 -35.5q3 -2 3 -5q0 -7 -7 -7q-8 0 -21.5 3.5t-28.5 9l-30 11t-25 10.5z" />
    <glyph glyph-name="Cdotaccent" unicode="&#x10a;" horiz-adv-x="418" 
d="M222 570q26 0 46.5 -6.5t46.5 -6.5q23 0 28 3t9 3q8 0 8 -5q0 -2 -1 -5t-1 -5q0 -18 5.5 -36t12 -35.5t12 -35t5.5 -36.5q0 -29 -11.5 -54.5t-31 -45t-45.5 -31t-55 -11.5q-10 0 -15 1v-136q4 -2 7 -6.5t3 -9.5q0 -8 -5 -13t-13 -5t-13 5t-5 13q0 10 11 16v140
q-30 11 -50.5 35.5t-20.5 56.5q0 35 23 60.5t61 25.5q29 0 48.5 -19t19.5 -51q0 -14 -13 -27t-29 -13t-28 11.5t-12 28.5q0 16 12 26.5t28 10.5q4 0 7 -1t5 -2q-2 11 -14.5 16t-23.5 5q-29 0 -49 -21t-20 -50q0 -35 25.5 -58t60.5 -23q51 0 79.5 36t28.5 90q0 31 -9 58
t-26.5 47t-42.5 32t-58 12q-46 0 -72.5 -28.5t-39.5 -70t-16 -89t-3 -84.5q0 -35 2.5 -82t14.5 -89.5t38.5 -72.5t74.5 -30q30 0 56 12t45.5 32t33 46t18.5 53q2 4 6 4q6 0 6 -5q0 -2 -1.5 -8t-3 -15t-2.5 -18.5t-1 -17.5q0 -26 3 -50.5t10 -44.5q-12 5 -26.5 9.5t-28.5 4.5
q-29 0 -57 -9t-58 -9q-53 0 -90.5 29.5t-62.5 73.5t-36.5 94.5t-11.5 92.5t11.5 92t35.5 93.5t62.5 73t92.5 29.5zM213 712q13 0 20.5 -9.5t7.5 -21.5q0 -14 -6 -25.5t-22 -11.5q-17 0 -22.5 11t-5.5 26q0 12 8 21.5t20 9.5z" />
    <glyph glyph-name="cdotaccent" unicode="&#x10b;" horiz-adv-x="343" 
d="M306 262q-13 -11 -24.5 -22.5t-24 -22t-26.5 -17t-31 -6.5q-13 0 -24.5 8t-11.5 22q6 -7 15 -12.5t20 -5.5q9 0 18 5t16 12.5t11.5 16.5t4.5 17q0 30 -21.5 52t-50.5 22q-37 0 -63 -39.5t-26 -121.5q0 -44 7.5 -75t21 -50.5t32 -28.5t39.5 -9q41 0 70.5 23.5t31.5 58.5
q-4 -2 -11.5 -2h-12.5q-11 0 -18.5 9t-7.5 23q0 12 9 20.5t22 8.5q16 0 26.5 -13.5t10.5 -33.5q0 -23 -9.5 -43t-26 -35t-38 -23.5t-46.5 -8.5q-34 0 -64 14t-52 38.5t-34.5 57t-12.5 69.5t12 69t32.5 56t48 38t59.5 14q42 0 78 -23.5t51 -61.5zM171 489q13 0 20.5 -9.5
t7.5 -21.5q0 -14 -6 -25.5t-22 -11.5q-17 0 -22.5 11t-5.5 26q0 12 8 21.5t20 9.5z" />
    <glyph glyph-name="Ccaron" unicode="&#x10c;" horiz-adv-x="418" 
d="M222 570q26 0 46.5 -6.5t46.5 -6.5q23 0 28 3t9 3q8 0 8 -5q0 -2 -1 -5t-1 -5q0 -18 5.5 -36t12 -35.5t12 -35t5.5 -36.5q0 -29 -11.5 -54.5t-31 -45t-45.5 -31t-55 -11.5q-10 0 -15 1v-136q4 -2 7 -6.5t3 -9.5q0 -8 -5 -13t-13 -5t-13 5t-5 13q0 10 11 16v140
q-30 11 -50.5 35.5t-20.5 56.5q0 35 23 60.5t61 25.5q29 0 48.5 -19t19.5 -51q0 -14 -13 -27t-29 -13t-28 11.5t-12 28.5q0 16 12 26.5t28 10.5q4 0 7 -1t5 -2q-2 11 -14.5 16t-23.5 5q-29 0 -49 -21t-20 -50q0 -35 25.5 -58t60.5 -23q51 0 79.5 36t28.5 90q0 31 -9 58
t-26.5 47t-42.5 32t-58 12q-46 0 -72.5 -28.5t-39.5 -70t-16 -89t-3 -84.5q0 -35 2.5 -82t14.5 -89.5t38.5 -72.5t74.5 -30q30 0 56 12t45.5 32t33 46t18.5 53q2 4 6 4q6 0 6 -5q0 -2 -1.5 -8t-3 -15t-2.5 -18.5t-1 -17.5q0 -26 3 -50.5t10 -44.5q-12 5 -26.5 9.5t-28.5 4.5
q-29 0 -57 -9t-58 -9q-53 0 -90.5 29.5t-62.5 73.5t-36.5 94.5t-11.5 92.5t11.5 92t35.5 93.5t62.5 73t92.5 29.5zM213 692l25 10t30.5 11.5t29 9t21.5 3.5q6 0 6 -7q0 -3 -3 -5q-34 -20 -52.5 -35.5t-29 -26l-16 -16t-11.5 -5.5t-11 5.5t-15.5 16t-29.5 26t-53 35.5
q-3 2 -3 5q0 7 7 7q8 0 21.5 -3.5t28.5 -9t30 -11.5z" />
    <glyph glyph-name="ccaron" unicode="&#x10d;" horiz-adv-x="343" 
d="M306 262q-13 -11 -24.5 -22.5t-24 -22t-26.5 -17t-31 -6.5q-13 0 -24.5 8t-11.5 22q6 -7 15 -12.5t20 -5.5q9 0 18 5t16 12.5t11.5 16.5t4.5 17q0 30 -21.5 52t-50.5 22q-37 0 -63 -39.5t-26 -121.5q0 -44 7.5 -75t21 -50.5t32 -28.5t39.5 -9q41 0 70.5 23.5t31.5 58.5
q-4 -2 -11.5 -2h-12.5q-11 0 -18.5 9t-7.5 23q0 12 9 20.5t22 8.5q16 0 26.5 -13.5t10.5 -33.5q0 -23 -9.5 -43t-26 -35t-38 -23.5t-46.5 -8.5q-34 0 -64 14t-52 38.5t-34.5 57t-12.5 69.5t12 69t32.5 56t48 38t59.5 14q42 0 78 -23.5t51 -61.5zM173 468l25 10t30.5 11.5
t29 9t21.5 3.5q6 0 6 -7q0 -3 -3 -5q-34 -20 -52.5 -35.5t-29 -26l-16 -16t-11.5 -5.5t-11 5.5t-15.5 16t-29.5 26t-53 35.5q-3 2 -3 5q0 7 7 7q8 0 21.5 -3.5t28.5 -9t30 -11.5z" />
    <glyph glyph-name="Dcaron" unicode="&#x10e;" horiz-adv-x="439" 
d="M167 562q28 0 51.5 -1t43.5 -7q47 -15 77.5 -45t48 -67.5t24.5 -79.5t7 -81t-7 -81t-24.5 -79.5t-48 -67.5t-77.5 -45q-20 -6 -43.5 -7t-51.5 -1h-130q-8 0 -8 8t8 8h38v530h-38q-8 0 -8 8t8 8h130zM131 16h36q24 0 48 3t47 11q31 11 48.5 35t26 54t10 63.5t1.5 64.5v69
q0 31 -1.5 64t-10 63t-26 54t-48.5 35q-14 5 -29.5 7.5t-30.5 4.5v-287q0 -18 12.5 -30.5t29.5 -12.5q15 0 26 11t12 25q0 10 -8 16v-2q0 -6 -6 -11.5t-14 -5.5t-15 7t-7 16q0 11 7.5 18t22.5 7q13 0 24 -11.5t11 -30.5q0 -23 -15.5 -38.5t-37.5 -15.5q-24 0 -40.5 15.5
t-16.5 35.5v295q-14 1 -28 1h-28v-530zM193 692l25 10t30.5 11.5t29 9t21.5 3.5q6 0 6 -7q0 -3 -3 -5q-34 -20 -52.5 -35.5t-29 -26l-16 -16t-11.5 -5.5t-11 5.5t-15.5 16t-29.5 26t-53 35.5q-3 2 -3 5q0 7 7 7q8 0 21.5 -3.5t28.5 -9t30 -11.5z" />
    <glyph glyph-name="dcaron" unicode="&#x10f;" horiz-adv-x="379" 
d="M176 336q-27 0 -45 -14t-28.5 -37t-14.5 -53t-4 -61q0 -24 3 -52.5t13.5 -53t30 -40.5t51.5 -16q23 0 39 13.5t26 36t14.5 51.5t4.5 61q-11 -8 -25.5 -15t-30.5 -7q-27 0 -45.5 18.5t-18.5 45.5q0 19 8 34.5t25 15.5q10 0 16.5 -7t6.5 -15t-4.5 -13.5t-9.5 -10.5
t-9.5 -10t-4.5 -12q0 -14 10.5 -23t25.5 -9q26 0 41 21.5t15 48.5q0 19 -6.5 37.5t-18.5 33t-28.5 23.5t-36.5 9zM314 16h29q8 0 8 -8t-8 -8h-69q-8 0 -8 8v20q-9 -9 -16.5 -16t-17 -11.5t-23 -7t-33.5 -2.5q-40 0 -68.5 18t-47 45t-27 58.5t-8.5 58.5q0 31 11 63t31 58
t47.5 42t61.5 16q19 0 45.5 -8t44.5 -26v196q-5 -1 -13.5 -1.5t-14.5 -0.5q-8 0 -8 9q0 2 1.5 5t6.5 3q21 0 41 6.5t29 6.5q2 0 4 -1.5t2 -3.5v-519zM377 562q12 0 19.5 -6.5t11 -16t4.5 -20.5t1 -20q0 -16 -6 -34t-14.5 -33t-18 -24.5t-15.5 -9.5q-5 0 -5 6q0 3 3 6
q11 14 17.5 30.5t6.5 45.5q-14 0 -24 12.5t-10 29.5q0 14 8.5 24t21.5 10z" />
    <glyph glyph-name="Dcroat" unicode="&#x110;" horiz-adv-x="439" 
d="M75 270h-45v-34q0 -2 -2 -5t-6 -3q-5 0 -7 3t-2 5v124q0 2 2 5t7 3q4 0 6 -3t2 -5v-34h45v220h-38q-2 0 -5 1.5t-3 6.5q0 4 3 6t5 2h130q29 0 52 -1.5t43.5 -7t39 -17t38.5 -31.5q31 -31 55 -89.5t24 -134.5q0 -75 -24 -134t-55 -89q-20 -20 -38.5 -31.5t-39 -17.5
t-43.5 -7.5t-52 -1.5h-130q-2 0 -5 2t-3 6q0 5 3 6.5t5 1.5h38v254zM131 326h56v33q0 2 2 5t7 3t7 -3t2 -5v-224q2 4 12 4q8 0 13 -6t5 -17q0 -10 -7 -15.5t-15 -5.5q-13 0 -19.5 8.5t-6.5 19.5v147h-56v-254q74 0 118 10t67 47q23 38 27.5 91.5t4.5 116.5t-4.5 116.5
t-27.5 91.5q-23 37 -67 47t-118 10v-220z" />
    <glyph glyph-name="dcroat" unicode="&#x111;" horiz-adv-x="379" 
d="M314 410v-394h29q8 0 8 -8t-8 -8h-69q-8 0 -8 8v20q-9 -9 -16.5 -16t-17 -11.5t-23 -7t-33.5 -2.5q-40 0 -68.5 18t-47 45t-27 58.5t-8.5 58.5q0 31 11 63t31 58t47.5 42t61.5 16q19 0 45.5 -8t44.5 -26v94h-97q-8 0 -8 7v14q0 7 8 7h97v74q-5 -1 -13.5 -1.5t-14.5 -0.5
q-8 0 -8 9q0 2 1.5 5t6.5 3q21 0 41 6.5t29 6.5q2 0 4 -1.5t2 -3.5v-97h29q8 0 8 -7v-14q0 -7 -8 -7h-29zM176 336q-27 0 -45 -14t-28.5 -37t-14.5 -53t-4 -61q0 -24 3 -52.5t13.5 -53t30 -40.5t51.5 -16q23 0 39 13.5t26 36t14.5 51.5t4.5 61q-11 -8 -25.5 -15t-30.5 -7
q-27 0 -45.5 18.5t-18.5 45.5q0 19 8 34.5t25 15.5q10 0 16.5 -7t6.5 -15t-4.5 -13.5t-9.5 -10.5t-9.5 -10t-4.5 -12q0 -14 10.5 -23t25.5 -9q26 0 41 21.5t15 48.5q0 19 -6.5 37.5t-18.5 33t-28.5 23.5t-36.5 9z" />
    <glyph glyph-name="Emacron" unicode="&#x112;" horiz-adv-x="436" 
d="M127 380h101q18 0 31 10.5t13 24.5q0 13 -8 22t-19 9q-10 0 -16 -6q6 -2 10.5 -5.5t4.5 -10.5t-5 -12t-12 -5q-8 0 -13.5 6.5t-5.5 16.5q0 13 11 22t26 9q17 0 29.5 -13.5t12.5 -32.5q0 -21 -17 -35.5t-42 -14.5h-101v-32h150q25 0 48 -11t39.5 -29.5t26.5 -44t10 -53.5
q0 -18 -3.5 -34t-7.5 -32t-7.5 -32t-3.5 -33q0 -21 9 -33t9 -20t-7 -9.5t-13 -1.5h-344q-8 0 -8 8t8 8h38v530h-38q-8 0 -8 8t8 8h347q7 0 11.5 -0.5t4.5 -5.5q0 -7 -5.5 -11.5t-5.5 -15.5q0 -15 2.5 -27t2.5 -26q0 -19 -7 -36t-26 -25q1 4 1.5 7.5t0.5 8.5q0 37 -13 59.5
t-35 35t-49.5 16.5t-57.5 4h-77v-166zM127 16h36q46 0 86.5 14t71 38.5t48 57t17.5 69.5q0 25 -8.5 47.5t-23.5 39.5t-35 26.5t-42 9.5q-38 0 -65 -23t-27 -56q0 -31 19 -52.5t46 -21.5q20 0 34.5 15t14.5 36q0 6 -2 11.5t-7 8.5q0 -10 -8.5 -17.5t-19.5 -7.5
q-13 0 -21.5 8.5t-8.5 19.5q0 14 10 23.5t24 9.5q20 0 34 -16.5t14 -39.5q0 -27 -19 -46.5t-45 -19.5q-33 0 -56.5 26t-23.5 63q0 25 16 49h-59v-272zM126 664q-8 0 -8 7v14q0 7 8 7h174q8 0 8 -7v-14q0 -7 -8 -7h-174z" />
    <glyph glyph-name="emacron" unicode="&#x113;" 
d="M89 113q3 -20 9.5 -39.5t17 -34.5t25.5 -24.5t36 -9.5q35 0 61 16t41 59q2 7 7 7q4 0 4.5 -7.5t2.5 -12.5l12 -60q-7 2 -15 2h-13q-27 0 -51.5 -9t-52.5 -9q-33 0 -60.5 16.5t-47 42t-30 57.5t-10.5 64q0 31 10 63t29.5 58t46.5 42t62 16q28 0 53.5 -12.5t44.5 -32
t30.5 -44t11.5 -48.5zM84 174v-20.5t2 -21.5l107 50q27 13 41.5 33t14.5 52q0 29 -23 49t-53 20q-27 0 -44.5 -16t-27 -40.5t-13.5 -53t-4 -52.5zM87 440q-8 0 -8 7v14q0 7 8 7h174q8 0 8 -7v-14q0 -7 -8 -7h-174z" />
    <glyph glyph-name="Ebreve" unicode="&#x114;" horiz-adv-x="436" 
d="M127 380h101q18 0 31 10.5t13 24.5q0 13 -8 22t-19 9q-10 0 -16 -6q6 -2 10.5 -5.5t4.5 -10.5t-5 -12t-12 -5q-8 0 -13.5 6.5t-5.5 16.5q0 13 11 22t26 9q17 0 29.5 -13.5t12.5 -32.5q0 -21 -17 -35.5t-42 -14.5h-101v-32h150q25 0 48 -11t39.5 -29.5t26.5 -44t10 -53.5
q0 -18 -3.5 -34t-7.5 -32t-7.5 -32t-3.5 -33q0 -21 9 -33t9 -20t-7 -9.5t-13 -1.5h-344q-8 0 -8 8t8 8h38v530h-38q-8 0 -8 8t8 8h347q7 0 11.5 -0.5t4.5 -5.5q0 -7 -5.5 -11.5t-5.5 -15.5q0 -15 2.5 -27t2.5 -26q0 -19 -7 -36t-26 -25q1 4 1.5 7.5t0.5 8.5q0 37 -13 59.5
t-35 35t-49.5 16.5t-57.5 4h-77v-166zM127 16h36q46 0 86.5 14t71 38.5t48 57t17.5 69.5q0 25 -8.5 47.5t-23.5 39.5t-35 26.5t-42 9.5q-38 0 -65 -23t-27 -56q0 -31 19 -52.5t46 -21.5q20 0 34.5 15t14.5 36q0 6 -2 11.5t-7 8.5q0 -10 -8.5 -17.5t-19.5 -7.5
q-13 0 -21.5 8.5t-8.5 19.5q0 14 10 23.5t24 9.5q20 0 34 -16.5t14 -39.5q0 -27 -19 -46.5t-45 -19.5q-33 0 -56.5 26t-23.5 63q0 25 16 49h-59v-272zM113 717q7 -12 22 -20t30.5 -12t29 -5.5t18.5 -1.5t18.5 1.5t29 5.5t30 12t22.5 20q1 3 5 3q7 0 7 -6q0 -16 -9.5 -30
t-25 -24.5t-36 -16.5t-41.5 -6t-41.5 6t-36 16.5t-25 24.5t-9.5 30q0 6 6 6q4 0 6 -3z" />
    <glyph glyph-name="ebreve" unicode="&#x115;" 
d="M89 113q3 -20 9.5 -39.5t17 -34.5t25.5 -24.5t36 -9.5q35 0 61 16t41 59q2 7 7 7q4 0 4.5 -7.5t2.5 -12.5l12 -60q-7 2 -15 2h-13q-27 0 -51.5 -9t-52.5 -9q-33 0 -60.5 16.5t-47 42t-30 57.5t-10.5 64q0 31 10 63t29.5 58t46.5 42t62 16q28 0 53.5 -12.5t44.5 -32
t30.5 -44t11.5 -48.5zM84 174v-20.5t2 -21.5l107 50q27 13 41.5 33t14.5 52q0 29 -23 49t-53 20q-27 0 -44.5 -16t-27 -40.5t-13.5 -53t-4 -52.5zM94 494q10 -17 33.5 -28t46.5 -11t46.5 11t33.5 28q1 3 5 3q7 0 7 -6q0 -32 -27 -54.5t-65 -22.5t-65 22.5t-27 54.5q0 6 6 6
q4 0 6 -3z" />
    <glyph glyph-name="Edotaccent" unicode="&#x116;" horiz-adv-x="436" 
d="M127 380h101q18 0 31 10.5t13 24.5q0 13 -8 22t-19 9q-10 0 -16 -6q6 -2 10.5 -5.5t4.5 -10.5t-5 -12t-12 -5q-8 0 -13.5 6.5t-5.5 16.5q0 13 11 22t26 9q17 0 29.5 -13.5t12.5 -32.5q0 -21 -17 -35.5t-42 -14.5h-101v-32h150q25 0 48 -11t39.5 -29.5t26.5 -44t10 -53.5
q0 -18 -3.5 -34t-7.5 -32t-7.5 -32t-3.5 -33q0 -21 9 -33t9 -20t-7 -9.5t-13 -1.5h-344q-8 0 -8 8t8 8h38v530h-38q-8 0 -8 8t8 8h347q7 0 11.5 -0.5t4.5 -5.5q0 -7 -5.5 -11.5t-5.5 -15.5q0 -15 2.5 -27t2.5 -26q0 -19 -7 -36t-26 -25q1 4 1.5 7.5t0.5 8.5q0 37 -13 59.5
t-35 35t-49.5 16.5t-57.5 4h-77v-166zM127 16h36q46 0 86.5 14t71 38.5t48 57t17.5 69.5q0 25 -8.5 47.5t-23.5 39.5t-35 26.5t-42 9.5q-38 0 -65 -23t-27 -56q0 -31 19 -52.5t46 -21.5q20 0 34.5 15t14.5 36q0 6 -2 11.5t-7 8.5q0 -10 -8.5 -17.5t-19.5 -7.5
q-13 0 -21.5 8.5t-8.5 19.5q0 14 10 23.5t24 9.5q20 0 34 -16.5t14 -39.5q0 -27 -19 -46.5t-45 -19.5q-33 0 -56.5 26t-23.5 63q0 25 16 49h-59v-272zM213 712q13 0 20.5 -9.5t7.5 -21.5q0 -14 -6 -25.5t-22 -11.5q-17 0 -22.5 11t-5.5 26q0 12 8 21.5t20 9.5z" />
    <glyph glyph-name="edotaccent" unicode="&#x117;" 
d="M89 113q3 -20 9.5 -39.5t17 -34.5t25.5 -24.5t36 -9.5q35 0 61 16t41 59q2 7 7 7q4 0 4.5 -7.5t2.5 -12.5l12 -60q-7 2 -15 2h-13q-27 0 -51.5 -9t-52.5 -9q-33 0 -60.5 16.5t-47 42t-30 57.5t-10.5 64q0 31 10 63t29.5 58t46.5 42t62 16q28 0 53.5 -12.5t44.5 -32
t30.5 -44t11.5 -48.5zM84 174v-20.5t2 -21.5l107 50q27 13 41.5 33t14.5 52q0 29 -23 49t-53 20q-27 0 -44.5 -16t-27 -40.5t-13.5 -53t-4 -52.5zM174 489q13 0 20.5 -9.5t7.5 -21.5q0 -14 -6 -25.5t-22 -11.5q-17 0 -22.5 11t-5.5 26q0 12 8 21.5t20 9.5z" />
    <glyph glyph-name="Eogonek" unicode="&#x118;" horiz-adv-x="436" 
d="M127 380h101q18 0 31 10.5t13 24.5q0 13 -8 22t-19 9q-10 0 -16 -6q6 -2 10.5 -5.5t4.5 -10.5t-5 -12t-12 -5q-8 0 -13.5 6.5t-5.5 16.5q0 13 11 22t26 9q17 0 29.5 -13.5t12.5 -32.5q0 -21 -17 -35.5t-42 -14.5h-101v-32h150q25 0 48 -11t39.5 -29.5t26.5 -44t10 -53.5
q0 -18 -3.5 -34t-7.5 -32t-7.5 -32t-3.5 -33q0 -21 9 -33t9 -20t-7 -9.5t-13 -1.5h-28q-16 0 -30.5 -6.5t-25 -18t-16.5 -26.5t-6 -32q0 -25 17 -42.5t40 -17.5q11 0 22 7t11 20q0 8 -5 13t-11.5 9.5t-11.5 9.5t-5 14q0 11 8.5 19.5t19.5 8.5q18 0 31 -15t13 -36
q0 -27 -21 -46.5t-51 -19.5t-51.5 22t-21.5 54q0 26 12 48t32 35h-266q-8 0 -8 8t8 8h38v530h-38q-8 0 -8 8t8 8h347q7 0 11.5 -0.5t4.5 -5.5q0 -7 -5.5 -11.5t-5.5 -15.5q0 -15 2.5 -27t2.5 -26q0 -19 -7 -36t-26 -25q1 4 1.5 7.5t0.5 8.5q0 37 -13 59.5t-35 35t-49.5 16.5
t-57.5 4h-77v-166zM127 16h36q46 0 86.5 14t71 38.5t48 57t17.5 69.5q0 25 -8.5 47.5t-23.5 39.5t-35 26.5t-42 9.5q-38 0 -65 -23t-27 -56q0 -31 19 -52.5t46 -21.5q20 0 34.5 15t14.5 36q0 6 -2 11.5t-7 8.5q0 -10 -8.5 -17.5t-19.5 -7.5q-13 0 -21.5 8.5t-8.5 19.5
q0 14 10 23.5t24 9.5q20 0 34 -16.5t14 -39.5q0 -27 -19 -46.5t-45 -19.5q-33 0 -56.5 26t-23.5 63q0 25 16 49h-59v-272z" />
    <glyph glyph-name="eogonek" unicode="&#x119;" 
d="M89 113q3 -20 9.5 -39.5t17 -34.5t25.5 -24.5t36 -9.5q35 0 61 16t41 59q2 7 7 7q4 0 4.5 -7.5t2.5 -12.5l12 -60q-7 2 -15 2h-13q-20 0 -37.5 -7t-30.5 -19.5t-20.5 -29.5t-7.5 -36q0 -25 17 -42.5t40 -17.5q11 0 22 7t11 20q0 8 -5 13t-11.5 9.5t-11.5 9.5t-5 14
q0 11 8.5 19.5t19.5 8.5q18 0 31 -15t13 -36q0 -27 -21 -46.5t-51 -19.5t-51.5 22t-21.5 54q0 23 7.5 42.5t21.5 33.5q-5 -1 -10.5 -1.5t-10.5 -0.5q-33 0 -60.5 16.5t-47 42t-30 57.5t-10.5 64q0 31 10 63t29.5 58t46.5 42t62 16q28 0 53.5 -12.5t44.5 -32t30.5 -44
t11.5 -48.5zM84 174v-20.5t2 -21.5l107 50q27 13 41.5 33t14.5 52q0 29 -23 49t-53 20q-27 0 -44.5 -16t-27 -40.5t-13.5 -53t-4 -52.5z" />
    <glyph glyph-name="Ecaron" unicode="&#x11a;" horiz-adv-x="436" 
d="M127 380h101q18 0 31 10.5t13 24.5q0 13 -8 22t-19 9q-10 0 -16 -6q6 -2 10.5 -5.5t4.5 -10.5t-5 -12t-12 -5q-8 0 -13.5 6.5t-5.5 16.5q0 13 11 22t26 9q17 0 29.5 -13.5t12.5 -32.5q0 -21 -17 -35.5t-42 -14.5h-101v-32h150q25 0 48 -11t39.5 -29.5t26.5 -44t10 -53.5
q0 -18 -3.5 -34t-7.5 -32t-7.5 -32t-3.5 -33q0 -21 9 -33t9 -20t-7 -9.5t-13 -1.5h-344q-8 0 -8 8t8 8h38v530h-38q-8 0 -8 8t8 8h347q7 0 11.5 -0.5t4.5 -5.5q0 -7 -5.5 -11.5t-5.5 -15.5q0 -15 2.5 -27t2.5 -26q0 -19 -7 -36t-26 -25q1 4 1.5 7.5t0.5 8.5q0 37 -13 59.5
t-35 35t-49.5 16.5t-57.5 4h-77v-166zM127 16h36q46 0 86.5 14t71 38.5t48 57t17.5 69.5q0 25 -8.5 47.5t-23.5 39.5t-35 26.5t-42 9.5q-38 0 -65 -23t-27 -56q0 -31 19 -52.5t46 -21.5q20 0 34.5 15t14.5 36q0 6 -2 11.5t-7 8.5q0 -10 -8.5 -17.5t-19.5 -7.5
q-13 0 -21.5 8.5t-8.5 19.5q0 14 10 23.5t24 9.5q20 0 34 -16.5t14 -39.5q0 -27 -19 -46.5t-45 -19.5q-33 0 -56.5 26t-23.5 63q0 25 16 49h-59v-272zM213 692l25 10t30.5 11.5t29 9t21.5 3.5q6 0 6 -7q0 -3 -3 -5q-34 -20 -52.5 -35.5t-29 -26l-16 -16t-11.5 -5.5t-11 5.5
t-15.5 16t-29.5 26t-53 35.5q-3 2 -3 5q0 7 7 7q8 0 21.5 -3.5t28.5 -9t30 -11.5z" />
    <glyph glyph-name="ecaron" unicode="&#x11b;" 
d="M89 113q3 -20 9.5 -39.5t17 -34.5t25.5 -24.5t36 -9.5q35 0 61 16t41 59q2 7 7 7q4 0 4.5 -7.5t2.5 -12.5l12 -60q-7 2 -15 2h-13q-27 0 -51.5 -9t-52.5 -9q-33 0 -60.5 16.5t-47 42t-30 57.5t-10.5 64q0 31 10 63t29.5 58t46.5 42t62 16q28 0 53.5 -12.5t44.5 -32
t30.5 -44t11.5 -48.5zM84 174v-20.5t2 -21.5l107 50q27 13 41.5 33t14.5 52q0 29 -23 49t-53 20q-27 0 -44.5 -16t-27 -40.5t-13.5 -53t-4 -52.5zM174 468l25 10t30.5 11.5t29 9t21.5 3.5q6 0 6 -7q0 -3 -3 -5q-34 -20 -52.5 -35.5t-29 -26l-16 -16t-11.5 -5.5t-11 5.5
t-15.5 16t-29.5 26t-53 35.5q-3 2 -3 5q0 7 7 7q8 0 21.5 -3.5t28.5 -9t30 -11.5z" />
    <glyph glyph-name="Gcircumflex" unicode="&#x11c;" horiz-adv-x="435" 
d="M371 252v-216q11 0 22.5 -5.5t16.5 -17.5q-7 2 -13.5 2h-12.5q-26 0 -43.5 -3.5t-33 -8t-31.5 -8t-38 -3.5q-61 0 -103 29t-67.5 72.5t-36.5 94t-11 94.5q0 42 14 92t41 93.5t68 73t95 29.5q14 0 23 -2t16.5 -4.5t16 -4.5t21.5 -2q24 0 32 3t12 3q7 0 7 -5q0 -2 -1 -4
t-1 -4q0 -20 2.5 -34.5t5.5 -28.5t5.5 -29t2.5 -34q0 -21 -8.5 -40t-23.5 -33.5t-35 -22.5t-43 -8q-19 0 -36 6.5t-29.5 18t-19.5 27t-7 33.5q0 33 21 56.5t50 23.5q24 0 41 -15.5t17 -38.5q0 -14 -9 -23t-22 -9t-22 8.5t-9 19.5q0 29 26 29h5.5t5.5 -2q-2 5 -9 10.5
t-24 5.5q-23 0 -39.5 -19t-16.5 -46q0 -29 22.5 -49.5t54.5 -20.5q34 0 58 26t24 63q0 27 -9 50.5t-24.5 41.5t-36 28t-44.5 10q-46 0 -74.5 -28.5t-44.5 -70t-21.5 -89t-5.5 -84.5q0 -35 5 -82t20.5 -89.5t44 -72.5t76.5 -30q21 0 39 6t37 17v221h-79q-26 0 -45 -15.5
t-19 -37.5q0 -18 10.5 -31t25.5 -13q11 0 15.5 3t6.5 5q-8 0 -16 7t-8 21q0 11 7 18t17 7q12 0 20.5 -9t8.5 -23q0 -18 -15 -30.5t-36 -12.5q-22 0 -37 17t-15 41q0 29 22 49t53 20h172q8 0 8 -8t-8 -8h-31zM223 665q-10 -5 -25 -10.5t-30.5 -11t-29 -9t-21.5 -3.5
q-6 0 -6 7q0 3 3 5q34 20 52.5 35.5t29 26l16 16t11.5 5.5t11 -5.5t15.5 -16t29.5 -26t53 -35.5q3 -2 3 -5q0 -7 -7 -7q-8 0 -21.5 3.5t-28.5 9l-30 11t-25 10.5z" />
    <glyph glyph-name="gcircumflex" unicode="&#x11d;" horiz-adv-x="356" 
d="M25 178q0 30 11 57t30.5 47.5t45.5 33t56 14.5l-1 47q0 11 7.5 19t18.5 8q10 0 16.5 -6.5t6.5 -15.5t-6 -15t-14 -6q-5 0 -7.5 1t-4.5 3l-1 -35q31 -1 58 -13.5t47 -33t31.5 -47.5t11.5 -58t-12 -58.5t-33 -48t-49 -32.5t-60 -12q-30 0 -58 11q-6 -5 -11 -12.5t-5 -15.5
q0 -20 26.5 -33t65.5 -18q63 -8 93.5 -29t30.5 -61q0 -32 -27.5 -54t-66.5 -22q-33 0 -55.5 16t-28.5 38l41 23q9 -60 64 -60q24 0 41 15.5t17 37.5q0 21 -15 35.5t-56 14.5q-31 0 -59 2t-52 9t-44 21t-34 39q14 14 31.5 28.5t31.5 31.5q-37 19 -59.5 54.5t-22.5 79.5z
M83 178q0 -73 27.5 -104.5t66.5 -31.5q41 0 68.5 31.5t27.5 104.5q0 39 -7 65.5t-19 42t-28.5 22.5t-35.5 8l-1 -70q0 -7 -7 -7q-6 0 -6 7l-1 70q-18 -2 -33.5 -9t-27 -23t-18 -42t-6.5 -64zM183 442q-10 -5 -25 -10.5t-30.5 -11t-29 -9t-21.5 -3.5q-6 0 -6 7q0 3 3 5
q34 20 52.5 35.5t29 26l16 16t11.5 5.5t11 -5.5t15.5 -16t29.5 -26t53 -35.5q3 -2 3 -5q0 -7 -7 -7q-8 0 -21.5 3.5t-28.5 9l-30 11t-25 10.5z" />
    <glyph glyph-name="Gbreve" unicode="&#x11e;" horiz-adv-x="435" 
d="M371 252v-216q11 0 22.5 -5.5t16.5 -17.5q-7 2 -13.5 2h-12.5q-26 0 -43.5 -3.5t-33 -8t-31.5 -8t-38 -3.5q-61 0 -103 29t-67.5 72.5t-36.5 94t-11 94.5q0 42 14 92t41 93.5t68 73t95 29.5q14 0 23 -2t16.5 -4.5t16 -4.5t21.5 -2q24 0 32 3t12 3q7 0 7 -5q0 -2 -1 -4
t-1 -4q0 -20 2.5 -34.5t5.5 -28.5t5.5 -29t2.5 -34q0 -21 -8.5 -40t-23.5 -33.5t-35 -22.5t-43 -8q-19 0 -36 6.5t-29.5 18t-19.5 27t-7 33.5q0 33 21 56.5t50 23.5q24 0 41 -15.5t17 -38.5q0 -14 -9 -23t-22 -9t-22 8.5t-9 19.5q0 29 26 29h5.5t5.5 -2q-2 5 -9 10.5
t-24 5.5q-23 0 -39.5 -19t-16.5 -46q0 -29 22.5 -49.5t54.5 -20.5q34 0 58 26t24 63q0 27 -9 50.5t-24.5 41.5t-36 28t-44.5 10q-46 0 -74.5 -28.5t-44.5 -70t-21.5 -89t-5.5 -84.5q0 -35 5 -82t20.5 -89.5t44 -72.5t76.5 -30q21 0 39 6t37 17v221h-79q-26 0 -45 -15.5
t-19 -37.5q0 -18 10.5 -31t25.5 -13q11 0 15.5 3t6.5 5q-8 0 -16 7t-8 21q0 11 7 18t17 7q12 0 20.5 -9t8.5 -23q0 -18 -15 -30.5t-36 -12.5q-22 0 -37 17t-15 41q0 29 22 49t53 20h172q8 0 8 -8t-8 -8h-31zM133 717q7 -12 22 -20t30.5 -12t29 -5.5t18.5 -1.5t18.5 1.5
t29 5.5t30 12t22.5 20q1 3 5 3q7 0 7 -6q0 -16 -9.5 -30t-25 -24.5t-36 -16.5t-41.5 -6t-41.5 6t-36 16.5t-25 24.5t-9.5 30q0 6 6 6q4 0 6 -3z" />
    <glyph glyph-name="gbreve" unicode="&#x11f;" horiz-adv-x="356" 
d="M25 178q0 30 11 57t30.5 47.5t45.5 33t56 14.5l-1 47q0 11 7.5 19t18.5 8q10 0 16.5 -6.5t6.5 -15.5t-6 -15t-14 -6q-5 0 -7.5 1t-4.5 3l-1 -35q31 -1 58 -13.5t47 -33t31.5 -47.5t11.5 -58t-12 -58.5t-33 -48t-49 -32.5t-60 -12q-30 0 -58 11q-6 -5 -11 -12.5t-5 -15.5
q0 -20 26.5 -33t65.5 -18q63 -8 93.5 -29t30.5 -61q0 -32 -27.5 -54t-66.5 -22q-33 0 -55.5 16t-28.5 38l41 23q9 -60 64 -60q24 0 41 15.5t17 37.5q0 21 -15 35.5t-56 14.5q-31 0 -59 2t-52 9t-44 21t-34 39q14 14 31.5 28.5t31.5 31.5q-37 19 -59.5 54.5t-22.5 79.5z
M83 178q0 -73 27.5 -104.5t66.5 -31.5q41 0 68.5 31.5t27.5 104.5q0 39 -7 65.5t-19 42t-28.5 22.5t-35.5 8l-1 -70q0 -7 -7 -7q-6 0 -6 7l-1 70q-18 -2 -33.5 -9t-27 -23t-18 -42t-6.5 -64zM108 494q10 -17 33.5 -28t46.5 -11t46.5 11t33.5 28q1 3 5 3q7 0 7 -6
q0 -32 -27 -54.5t-65 -22.5t-65 22.5t-27 54.5q0 6 6 6q4 0 6 -3z" />
    <glyph glyph-name="Gdotaccent" unicode="&#x120;" horiz-adv-x="435" 
d="M371 252v-216q11 0 22.5 -5.5t16.5 -17.5q-7 2 -13.5 2h-12.5q-26 0 -43.5 -3.5t-33 -8t-31.5 -8t-38 -3.5q-61 0 -103 29t-67.5 72.5t-36.5 94t-11 94.5q0 42 14 92t41 93.5t68 73t95 29.5q14 0 23 -2t16.5 -4.5t16 -4.5t21.5 -2q24 0 32 3t12 3q7 0 7 -5q0 -2 -1 -4
t-1 -4q0 -20 2.5 -34.5t5.5 -28.5t5.5 -29t2.5 -34q0 -21 -8.5 -40t-23.5 -33.5t-35 -22.5t-43 -8q-19 0 -36 6.5t-29.5 18t-19.5 27t-7 33.5q0 33 21 56.5t50 23.5q24 0 41 -15.5t17 -38.5q0 -14 -9 -23t-22 -9t-22 8.5t-9 19.5q0 29 26 29h5.5t5.5 -2q-2 5 -9 10.5
t-24 5.5q-23 0 -39.5 -19t-16.5 -46q0 -29 22.5 -49.5t54.5 -20.5q34 0 58 26t24 63q0 27 -9 50.5t-24.5 41.5t-36 28t-44.5 10q-46 0 -74.5 -28.5t-44.5 -70t-21.5 -89t-5.5 -84.5q0 -35 5 -82t20.5 -89.5t44 -72.5t76.5 -30q21 0 39 6t37 17v221h-79q-26 0 -45 -15.5
t-19 -37.5q0 -18 10.5 -31t25.5 -13q11 0 15.5 3t6.5 5q-8 0 -16 7t-8 21q0 11 7 18t17 7q12 0 20.5 -9t8.5 -23q0 -18 -15 -30.5t-36 -12.5q-22 0 -37 17t-15 41q0 29 22 49t53 20h172q8 0 8 -8t-8 -8h-31zM228 712q13 0 20.5 -9.5t7.5 -21.5q0 -14 -6 -25.5t-22 -11.5
q-17 0 -22.5 11t-5.5 26q0 12 8 21.5t20 9.5z" />
    <glyph glyph-name="gdotaccent" unicode="&#x121;" horiz-adv-x="356" 
d="M25 178q0 30 11 57t30.5 47.5t45.5 33t56 14.5l-1 47q0 11 7.5 19t18.5 8q10 0 16.5 -6.5t6.5 -15.5t-6 -15t-14 -6q-5 0 -7.5 1t-4.5 3l-1 -35q31 -1 58 -13.5t47 -33t31.5 -47.5t11.5 -58t-12 -58.5t-33 -48t-49 -32.5t-60 -12q-30 0 -58 11q-6 -5 -11 -12.5t-5 -15.5
q0 -20 26.5 -33t65.5 -18q63 -8 93.5 -29t30.5 -61q0 -32 -27.5 -54t-66.5 -22q-33 0 -55.5 16t-28.5 38l41 23q9 -60 64 -60q24 0 41 15.5t17 37.5q0 21 -15 35.5t-56 14.5q-31 0 -59 2t-52 9t-44 21t-34 39q14 14 31.5 28.5t31.5 31.5q-37 19 -59.5 54.5t-22.5 79.5z
M83 178q0 -73 27.5 -104.5t66.5 -31.5q41 0 68.5 31.5t27.5 104.5q0 39 -7 65.5t-19 42t-28.5 22.5t-35.5 8l-1 -70q0 -7 -7 -7q-6 0 -6 7l-1 70q-18 -2 -33.5 -9t-27 -23t-18 -42t-6.5 -64zM188 489q13 0 20.5 -9.5t7.5 -21.5q0 -14 -6 -25.5t-22 -11.5q-17 0 -22.5 11
t-5.5 26q0 12 8 21.5t20 9.5z" />
    <glyph glyph-name="Gcommaaccent" unicode="&#x122;" horiz-adv-x="435" 
d="M371 252v-216q11 0 22.5 -5.5t16.5 -17.5q-7 2 -13.5 2h-12.5q-26 0 -43.5 -3.5t-33 -8t-31.5 -8t-38 -3.5q-61 0 -103 29t-67.5 72.5t-36.5 94t-11 94.5q0 42 14 92t41 93.5t68 73t95 29.5q14 0 23 -2t16.5 -4.5t16 -4.5t21.5 -2q24 0 32 3t12 3q7 0 7 -5q0 -2 -1 -4
t-1 -4q0 -20 2.5 -34.5t5.5 -28.5t5.5 -29t2.5 -34q0 -21 -8.5 -40t-23.5 -33.5t-35 -22.5t-43 -8q-19 0 -36 6.5t-29.5 18t-19.5 27t-7 33.5q0 33 21 56.5t50 23.5q24 0 41 -15.5t17 -38.5q0 -14 -9 -23t-22 -9t-22 8.5t-9 19.5q0 29 26 29h5.5t5.5 -2q-2 5 -9 10.5
t-24 5.5q-23 0 -39.5 -19t-16.5 -46q0 -29 22.5 -49.5t54.5 -20.5q34 0 58 26t24 63q0 27 -9 50.5t-24.5 41.5t-36 28t-44.5 10q-46 0 -74.5 -28.5t-44.5 -70t-21.5 -89t-5.5 -84.5q0 -35 5 -82t20.5 -89.5t44 -72.5t76.5 -30q21 0 39 6t37 17v221h-79q-26 0 -45 -15.5
t-19 -37.5q0 -18 10.5 -31t25.5 -13q11 0 15.5 3t6.5 5q-8 0 -16 7t-8 21q0 11 7 18t17 7q12 0 20.5 -9t8.5 -23q0 -18 -15 -30.5t-36 -12.5q-22 0 -37 17t-15 41q0 29 22 49t53 20h172q8 0 8 -8t-8 -8h-31zM227 -38q12 0 19.5 -6.5t11 -16t4.5 -20.5t1 -20q0 -16 -6 -34
t-14.5 -33t-18 -24.5t-15.5 -9.5q-5 0 -5 6q0 3 3 6q11 14 17.5 30.5t6.5 45.5q-14 0 -24 12.5t-10 29.5q0 14 8.5 24t21.5 10z" />
    <glyph glyph-name="gcommaaccent" unicode="&#x123;" horiz-adv-x="356" 
d="M25 178q0 30 11 57t30.5 47.5t45.5 33t56 14.5l-1 47q0 11 7.5 19t18.5 8q10 0 16.5 -6.5t6.5 -15.5t-6 -15t-14 -6q-5 0 -7.5 1t-4.5 3l-1 -35q31 -1 58 -13.5t47 -33t31.5 -47.5t11.5 -58t-12 -58.5t-33 -48t-49 -32.5t-60 -12q-30 0 -58 11q-6 -5 -11 -12.5t-5 -15.5
q0 -20 26.5 -33t65.5 -18q63 -8 93.5 -29t30.5 -61q0 -32 -27.5 -54t-66.5 -22q-33 0 -55.5 16t-28.5 38l41 23q9 -60 64 -60q24 0 41 15.5t17 37.5q0 21 -15 35.5t-56 14.5q-31 0 -59 2t-52 9t-44 21t-34 39q14 14 31.5 28.5t31.5 31.5q-37 19 -59.5 54.5t-22.5 79.5z
M83 178q0 -73 27.5 -104.5t66.5 -31.5q41 0 68.5 31.5t27.5 104.5q0 39 -7 65.5t-19 42t-28.5 22.5t-35.5 8l-1 -70q0 -7 -7 -7q-6 0 -6 7l-1 70q-18 -2 -33.5 -9t-27 -23t-18 -42t-6.5 -64zM191 423q-12 0 -19.5 6.5t-11 16t-4.5 20.5t-1 20q0 16 6 34t14.5 33t18 24.5
t15.5 9.5q5 0 5 -6q0 -3 -3 -6q-11 -14 -17.5 -30.5t-6.5 -45.5q14 0 24 -12.5t10 -29.5q0 -14 -8.5 -24t-21.5 -10z" />
    <glyph glyph-name="Hcircumflex" unicode="&#x124;" horiz-adv-x="483" 
d="M241 235q21 0 36 -15t15 -37q0 -20 -14 -34t-33 -14q-17 0 -29.5 11.5t-12.5 26.5q0 13 8 23.5t24 10.5q11 0 18 -6.5t7 -14.5t-4.5 -12.5t-10.5 -4.5q-5 0 -9.5 3.5t-4.5 9.5q0 7 4 10q-17 0 -17 -19q0 -10 8 -16.5t19 -6.5q14 0 23 9.5t9 23.5q0 16 -10 26.5t-26 10.5
h-110v-204h38q8 0 8 -8t-8 -8h-132q-8 0 -8 8t8 8h38v530h-38q-8 0 -8 8t8 8h132q8 0 8 -8t-8 -8h-38v-235h221v28h-99q-21 0 -36 15t-15 37q0 20 14 34t33 14q17 0 29.5 -11.5t12.5 -26.5q0 -13 -8 -23.5t-24 -10.5q-11 0 -18 6.5t-7 14.5t4.5 12.5t10.5 4.5q5 0 9.5 -3.5
t4.5 -9.5q0 -7 -4 -10q17 0 17 19q0 10 -8 16.5t-19 6.5q-14 0 -23 -9.5t-9 -23.5q0 -16 10 -26.5t26 -10.5h99v192h-38q-8 0 -8 8t8 8h132q8 0 8 -8t-8 -8h-38v-530h38q8 0 8 -8t-8 -8h-132q-8 0 -8 8t8 8h38v250h-221v-31h110zM243 665q-10 -5 -25 -10.5t-30.5 -11t-29 -9
t-21.5 -3.5q-6 0 -6 7q0 3 3 5q34 20 52.5 35.5t29 26l16 16t11.5 5.5t11 -5.5t15.5 -16t29.5 -26t53 -35.5q3 -2 3 -5q0 -7 -7 -7q-8 0 -21.5 3.5t-28.5 9l-30 11t-25 10.5z" />
    <glyph glyph-name="hcircumflex" unicode="&#x125;" horiz-adv-x="384" 
d="M65 512q-5 -1 -13.5 -1.5t-14.5 -0.5q-8 0 -8 9q0 2 1.5 5t6.5 3q21 0 41 6.5t29 6.5q2 0 4 -1.5t2 -3.5v-241q15 25 43.5 40.5t63.5 15.5q45 0 72 -26t27 -77v-231h29q8 0 8 -8t-8 -8h-106q-8 0 -8 8t8 8h29v231q0 32 -12.5 53.5t-47.5 21.5q-22 0 -40 -6.5t-31 -17.5
t-20 -24.5t-7 -26.5v-231h29q8 0 8 -8t-8 -8h-106q-8 0 -8 8t8 8h29v496zM92 597q-10 -5 -25 -10.5t-30.5 -11t-29 -9t-21.5 -3.5q-6 0 -6 7q0 3 3 5q34 20 52.5 35.5t29 26l16 16t11.5 5.5t11 -5.5t15.5 -16t29.5 -26t53 -35.5q3 -2 3 -5q0 -7 -7 -7q-8 0 -21.5 3.5
t-28.5 9l-30 11t-25 10.5z" />
    <glyph glyph-name="Hbar" unicode="&#x126;" horiz-adv-x="483" 
d="M408 410v-394h38q8 0 8 -8t-8 -8h-132q-8 0 -8 8t8 8h38v250h-221v-31h110q21 0 36 -15t15 -37q0 -20 -14 -34t-33 -14q-17 0 -29.5 11.5t-12.5 26.5q0 13 8 23.5t24 10.5q11 0 18 -6.5t7 -14.5t-4.5 -12.5t-10.5 -4.5q-5 0 -9.5 3.5t-4.5 9.5q0 7 4 10q-17 0 -17 -19
q0 -10 8 -16.5t19 -6.5q14 0 23 9.5t9 23.5q0 16 -10 26.5t-26 10.5h-110v-204h38q8 0 8 -8t-8 -8h-132q-8 0 -8 8t8 8h38v394h-38q-8 0 -8 7v14q0 7 8 7h38v108h-38q-8 0 -8 8t8 8h132q8 0 8 -8t-8 -8h-38v-108h221v108h-38q-8 0 -8 8t8 8h132q8 0 8 -8t-8 -8h-38v-108h38
q8 0 8 -7v-14q0 -7 -8 -7h-38zM352 311v99h-221v-99h221z" />
    <glyph glyph-name="hbar" unicode="&#x127;" horiz-adv-x="384" 
d="M113 410v-116q15 25 43.5 40.5t63.5 15.5q45 0 72 -26t27 -77v-231h29q8 0 8 -8t-8 -8h-106q-8 0 -8 8t8 8h29v231q0 32 -12.5 53.5t-47.5 21.5q-22 0 -40 -6.5t-31 -17.5t-20 -24.5t-7 -26.5v-231h29q8 0 8 -8t-8 -8h-106q-8 0 -8 8t8 8h29v394h-29q-8 0 -8 7v14
q0 7 8 7h29v74q-5 -1 -13.5 -1.5t-14.5 -0.5q-8 0 -8 9q0 2 1.5 5t6.5 3q21 0 41 6.5t29 6.5q2 0 4 -1.5t2 -3.5v-97h107q8 0 8 -7v-14q0 -7 -8 -7h-107z" />
    <glyph glyph-name="Itilde" unicode="&#x128;" horiz-adv-x="198" 
d="M33 0q-8 0 -8 8t8 8h38v530h-38q-8 0 -8 8t8 8h132q8 0 8 -8t-8 -8h-38v-530h38q8 0 8 -8t-8 -8h-132zM57 711q16 0 29 -4.5t24 -9.5t21 -9.5t21 -4.5q10 0 22 5t24 16q3 3 5 3q7 0 7 -6q0 -8 -6 -18t-16.5 -18t-23.5 -13.5t-26 -5.5q-17 0 -29.5 4.5t-23.5 9.5t-21 9.5
t-21 4.5q-9 0 -21 -5t-24 -17q-3 -2 -6 -2q-6 0 -6 6q0 8 6 17.5t16 18t23 14t26 5.5z" />
    <glyph glyph-name="itilde" unicode="&#x129;" horiz-adv-x="198" 
d="M75 313q-5 -1 -13.5 -1.5t-14.5 -0.5q-8 0 -8 9q0 2 1.5 5t6.5 3q21 0 41 6.5t29 6.5q2 0 4 -1.5t2 -3.5v-320h29q8 0 8 -8t-8 -8h-106q-8 0 -8 8t8 8h29v297zM58 488q16 0 29 -4.5t24 -9.5t21 -9.5t21 -4.5q10 0 22 5t24 16q3 3 5 3q7 0 7 -6q0 -8 -6 -18t-16.5 -18
t-23.5 -13.5t-26 -5.5q-17 0 -29.5 4.5t-23.5 9.5t-21 9.5t-21 4.5q-9 0 -21 -5t-24 -17q-3 -2 -6 -2q-6 0 -6 6q0 8 6 17.5t16 18t23 14t26 5.5z" />
    <glyph glyph-name="Imacron" unicode="&#x12a;" horiz-adv-x="198" 
d="M33 0q-8 0 -8 8t8 8h38v530h-38q-8 0 -8 8t8 8h132q8 0 8 -8t-8 -8h-38v-530h38q8 0 8 -8t-8 -8h-132zM11 664q-8 0 -8 7v14q0 7 8 7h174q8 0 8 -7v-14q0 -7 -8 -7h-174z" />
    <glyph glyph-name="imacron" unicode="&#x12b;" horiz-adv-x="198" 
d="M75 313q-5 -1 -13.5 -1.5t-14.5 -0.5q-8 0 -8 9q0 2 1.5 5t6.5 3q21 0 41 6.5t29 6.5q2 0 4 -1.5t2 -3.5v-320h29q8 0 8 -8t-8 -8h-106q-8 0 -8 8t8 8h29v297zM12 440q-8 0 -8 7v14q0 7 8 7h174q8 0 8 -7v-14q0 -7 -8 -7h-174z" />
    <glyph glyph-name="Ibreve" unicode="&#x12c;" horiz-adv-x="198" 
d="M33 0q-8 0 -8 8t8 8h38v530h-38q-8 0 -8 8t8 8h132q8 0 8 -8t-8 -8h-38v-530h38q8 0 8 -8t-8 -8h-132zM-2 717q7 -12 22 -20t30.5 -12t29 -5.5t18.5 -1.5t18.5 1.5t29 5.5t30 12t22.5 20q1 3 5 3q7 0 7 -6q0 -16 -9.5 -30t-25 -24.5t-36 -16.5t-41.5 -6t-41.5 6t-36 16.5
t-25 24.5t-9.5 30q0 6 6 6q4 0 6 -3z" />
    <glyph glyph-name="ibreve" unicode="&#x12d;" horiz-adv-x="198" 
d="M75 313q-5 -1 -13.5 -1.5t-14.5 -0.5q-8 0 -8 9q0 2 1.5 5t6.5 3q21 0 41 6.5t29 6.5q2 0 4 -1.5t2 -3.5v-320h29q8 0 8 -8t-8 -8h-106q-8 0 -8 8t8 8h29v297zM19 494q10 -17 33.5 -28t46.5 -11t46.5 11t33.5 28q1 3 5 3q7 0 7 -6q0 -32 -27 -54.5t-65 -22.5t-65 22.5
t-27 54.5q0 6 6 6q4 0 6 -3z" />
    <glyph glyph-name="Iogonek" unicode="&#x12e;" horiz-adv-x="198" 
d="M165 16q8 0 8 -8t-8 -8h-37q-34 0 -58 -24t-24 -59q0 -25 17 -42.5t40 -17.5q11 0 22 7t11 20q0 8 -5 13t-11.5 9.5t-11.5 9.5t-5 14q0 11 8.5 19.5t19.5 8.5q18 0 31 -15t13 -36q0 -27 -21 -46.5t-51 -19.5t-51.5 22t-21.5 54q0 26 12 48t32 35h-41q-8 0 -8 8t8 8h38
v530h-38q-8 0 -8 8t8 8h132q8 0 8 -8t-8 -8h-38v-530h38z" />
    <glyph glyph-name="iogonek" unicode="&#x12f;" horiz-adv-x="178" 
d="M65 313q-5 -1 -13.5 -1.5t-14.5 -0.5q-8 0 -8 9q0 2 1.5 5t6.5 3q21 0 41 6.5t29 6.5q2 0 4 -1.5t2 -3.5v-320h29q8 0 8 -8t-8 -8h-29q-34 0 -58 -24t-24 -59q0 -25 17 -42.5t40 -17.5q11 0 22 7t11 20q0 8 -5 13t-11.5 9.5t-11.5 9.5t-5 14q0 11 8.5 19.5t19.5 8.5
q18 0 31 -15t13 -36q0 -27 -21 -46.5t-51 -19.5t-51.5 22t-21.5 54q0 26 12.5 48t32.5 35h-24q-8 0 -8 8t8 8h29v297zM91 490q13 0 20.5 -9.5t7.5 -21.5q0 -14 -6 -25.5t-22 -11.5q-17 0 -22.5 11t-5.5 26q0 12 8 21.5t20 9.5z" />
    <glyph glyph-name="Idotaccent" unicode="&#x130;" horiz-adv-x="198" 
d="M33 0q-8 0 -8 8t8 8h38v530h-38q-8 0 -8 8t8 8h132q8 0 8 -8t-8 -8h-38v-530h38q8 0 8 -8t-8 -8h-132zM98 712q13 0 20.5 -9.5t7.5 -21.5q0 -14 -6 -25.5t-22 -11.5q-17 0 -22.5 11t-5.5 26q0 12 8 21.5t20 9.5z" />
    <glyph glyph-name="dotlessi" unicode="&#x131;" horiz-adv-x="198" 
d="M75 313q-5 -1 -13.5 -1.5t-14.5 -0.5q-8 0 -8 9q0 2 1.5 5t6.5 3q21 0 41 6.5t29 6.5q2 0 4 -1.5t2 -3.5v-320h29q8 0 8 -8t-8 -8h-106q-8 0 -8 8t8 8h29v297z" />
    <glyph glyph-name="IJ" unicode="&#x132;" horiz-adv-x="549" 
d="M33 0q-8 0 -8 8t8 8h38v530h-38q-8 0 -8 8t8 8h132q8 0 8 -8t-8 -8h-38v-530h38q8 0 8 -8t-8 -8h-132zM468 138q0 -30 -13 -55t-35 -43.5t-49.5 -29t-55.5 -10.5t-52 8.5t-42 25t-28 40t-10 52.5q0 19 7.5 37.5t20.5 33t30.5 23t37.5 8.5q22 0 42.5 -7.5t28.5 -30.5v243
q0 13 -9 22t-23 9q-12 0 -20.5 -8t-8.5 -20q0 -9 5.5 -16t13.5 -7q-5 5 -5 12t4.5 12t11.5 5q10 0 14 -6t4 -14q0 -10 -8.5 -17t-20.5 -7q-13 0 -23.5 11.5t-10.5 26.5q0 18 13 30.5t31 12.5q19 0 33 -14t14 -32v-293q0 -19 -13 -33t-33 -14q-17 0 -31 12.5t-14 30.5
q0 20 11.5 32t30.5 12q6 0 13.5 -1t12.5 -5q-7 21 -25 30t-38 9q-17 0 -31.5 -7.5t-25.5 -20t-17.5 -28t-6.5 -31.5q0 -23 8.5 -41.5t23.5 -32.5t34.5 -21.5t41.5 -7.5q27 0 47 10t33 27t19.5 39t6.5 47v400h-38q-8 0 -8 8t8 8h132q8 0 8 -8t-8 -8h-38v-408z" />
    <glyph glyph-name="ij" unicode="&#x133;" horiz-adv-x="336" 
d="M65 313q-5 -1 -13.5 -1.5t-14.5 -0.5q-8 0 -8 9q0 2 1.5 5t6.5 3q21 0 41 6.5t29 6.5q2 0 4 -1.5t2 -3.5v-320h29q8 0 8 -8t-8 -8h-106q-8 0 -8 8t8 8h29v297zM91 490q13 0 20.5 -9.5t7.5 -21.5q0 -14 -6 -25.5t-22 -11.5q-17 0 -22.5 11t-5.5 26q0 12 8 21.5t20 9.5z
M249 490q13 0 20.5 -9.5t7.5 -21.5q0 -14 -6 -25.5t-22 -11.5q-17 0 -22.5 11t-5.5 26q0 12 8 21.5t20 9.5zM223 313q-5 -1 -13.5 -1.5t-14.5 -0.5q-8 0 -8 9q0 2 1.5 5t6.5 3q21 0 41 6.5t29 6.5q2 0 4 -1.5t2 -3.5v-427q0 -13 -6 -27.5t-16 -26.5t-23 -20t-26 -8
q-10 0 -10 10q0 6 4.5 8.5t6.5 5.5q22 22 22 44v418z" />
    <glyph glyph-name="Jcircumflex" unicode="&#x134;" horiz-adv-x="361" 
d="M290 138q0 -30 -13 -55t-35 -43.5t-49.5 -29t-55.5 -10.5t-52 8.5t-42 25t-28 40t-10 52.5q0 19 7.5 37.5t20.5 33t30.5 23t37.5 8.5q22 0 42.5 -7.5t28.5 -30.5v243q0 13 -9 22t-23 9q-12 0 -20.5 -8t-8.5 -20q0 -9 5.5 -16t13.5 -7q-5 5 -5 12t4.5 12t11.5 5
q10 0 14 -6t4 -14q0 -10 -8.5 -17t-20.5 -7q-13 0 -23.5 11.5t-10.5 26.5q0 18 13 30.5t31 12.5q19 0 33 -14t14 -32v-293q0 -19 -13 -33t-33 -14q-17 0 -31 12.5t-14 30.5q0 20 11.5 32t30.5 12q6 0 13.5 -1t12.5 -5q-7 21 -25 30t-38 9q-17 0 -31.5 -7.5t-25.5 -20
t-17.5 -28t-6.5 -31.5q0 -23 8.5 -41.5t23.5 -32.5t34.5 -21.5t41.5 -7.5q27 0 47 10t33 27t19.5 39t6.5 47v400h-38q-8 0 -8 8t8 8h132q8 0 8 -8t-8 -8h-38v-408zM258 665q-10 -5 -25 -10.5t-30.5 -11t-29 -9t-21.5 -3.5q-6 0 -6 7q0 3 3 5q34 20 52.5 35.5t29 26l16 16
t11.5 5.5t11 -5.5t15.5 -16t29.5 -26t53 -35.5q3 -2 3 -5q0 -7 -7 -7q-8 0 -21.5 3.5t-28.5 9l-30 11t-25 10.5z" />
    <glyph glyph-name="jcircumflex" unicode="&#x135;" horiz-adv-x="178" 
d="M65 313q-5 -1 -13.5 -1.5t-14.5 -0.5q-8 0 -8 9q0 2 1.5 5t6.5 3q21 0 41 6.5t29 6.5q2 0 4 -1.5t2 -3.5v-427q0 -13 -6 -27.5t-16 -26.5t-23 -20t-26 -8q-10 0 -10 10q0 6 4.5 8.5t6.5 5.5q22 22 22 44v418zM89 442q-10 -5 -25 -10.5t-30.5 -11t-29 -9t-21.5 -3.5
q-6 0 -6 7q0 3 3 5q34 20 52.5 35.5t29 26l16 16t11.5 5.5t11 -5.5t15.5 -16t29.5 -26t53 -35.5q3 -2 3 -5q0 -7 -7 -7q-8 0 -21.5 3.5t-28.5 9l-30 11t-25 10.5z" />
    <glyph glyph-name="Kcommaaccent" unicode="&#x136;" horiz-adv-x="463" 
d="M127 298l37 3v146q0 17 9.5 28.5t26.5 11.5q12 0 21.5 -8t9.5 -21q0 -8 -4.5 -15t-13.5 -7q-7 0 -12.5 4.5t-5.5 12.5q0 13 14 13q-4 6 -9 6q-11 0 -17 -7.5t-6 -17.5v-143q40 10 71 34.5t51.5 58t31 72t10.5 77.5h-38q-8 0 -8 8t8 8h132q8 0 8 -8t-8 -8h-38
q0 -31 -8.5 -62.5t-24.5 -61t-37.5 -54.5t-47.5 -43l123 -309h33q8 0 8 -8t-8 -8h-132q-8 0 -8 8t8 8h32l-113 278q-20 -9 -45 -12v-151q0 -10 6 -17.5t17 -7.5q5 0 9 6q-14 0 -14 14q0 8 5.5 12t12.5 4q9 0 13.5 -7t4.5 -15q0 -13 -9.5 -20.5t-21.5 -7.5q-17 0 -26.5 11
t-9.5 28v149l-37 -3v-261h38q8 0 8 -8t-8 -8h-132q-8 0 -8 8t8 8h38v530h-38q-8 0 -8 8t8 8h132q8 0 8 -8t-8 -8h-38v-248zM230 -38q12 0 19.5 -6.5t11 -16t4.5 -20.5t1 -20q0 -16 -6 -34t-14.5 -33t-18 -24.5t-15.5 -9.5q-5 0 -5 6q0 3 3 6q11 14 17.5 30.5t6.5 45.5
q-14 0 -24 12.5t-10 29.5q0 14 8.5 24t21.5 10z" />
    <glyph glyph-name="kcommaaccent" unicode="&#x137;" horiz-adv-x="381" 
d="M191 178q-34 -7 -78 -7v-155h29q8 0 8 -8t-8 -8h-106q-8 0 -8 8t8 8h29v496q-5 -1 -13.5 -1.5t-14.5 -0.5q-8 0 -8 9q0 2 1.5 5t6.5 3q21 0 41 6.5t29 6.5q2 0 4 -1.5t2 -3.5v-350q22 0 48.5 4.5t49.5 15t38.5 27.5t15.5 41v11.5t-2 10.5q-3 3 -3 8q0 2 3 2.5t5 2.5
q11 8 18 18t7 23q0 24 -19 39.5t-43 15.5q-17 0 -33.5 -11.5t-16.5 -32.5q5 0 8.5 3t11.5 3q12 0 20 -8t8 -19t-8 -19.5t-20 -8.5q-20 0 -29 14.5t-9 31.5q0 13 6.5 24t17 19t22.5 12t24 4q39 0 66 -27.5t27 -67.5q0 -42 -24 -75t-59 -58l91 -172h25q3 0 5 -3t2 -5
q0 -8 -7 -8h-108q-8 0 -8 8t8 8h26zM188 -38q12 0 19.5 -6.5t11 -16t4.5 -20.5t1 -20q0 -16 -6 -34t-14.5 -33t-18 -24.5t-15.5 -9.5q-5 0 -5 6q0 3 3 6q11 14 17.5 30.5t6.5 45.5q-14 0 -24 12.5t-10 29.5q0 14 8.5 24t21.5 10z" />
    <glyph glyph-name="kgreenlandic" unicode="&#x138;" horiz-adv-x="381" 
d="M313 315q0 -42 -17.5 -72t-52.5 -55l91 -172h25q3 0 5 -3t2 -5q0 -8 -7 -8h-108q-8 0 -8 8t8 8h26l-86 162q-34 -7 -78 -7v-155h29q8 0 8 -8t-8 -8h-106q-8 0 -8 8t8 8h29v297q-5 -1 -13.5 -1.5t-14.5 -0.5q-8 0 -8 9q0 2 1.5 5t6.5 3q21 0 41 6.5t29 6.5q2 0 4 -1.5
t2 -3.5v-151q76 0 116 33.5t40 96.5h-29q-8 0 -8 8t8 8h102q8 0 8 -8t-8 -8h-29z" />
    <glyph glyph-name="Lacute" unicode="&#x139;" horiz-adv-x="440" 
d="M37 546q-8 0 -8 8t8 8h132q8 0 8 -8t-8 -8h-38v-166h101q18 0 31 10.5t13 24.5q0 13 -8 22t-19 9q-10 0 -16 -6q6 -2 10.5 -5.5t4.5 -10.5t-5 -12t-12 -5q-8 0 -13.5 6.5t-5.5 16.5q0 13 11 22t26 9q17 0 29.5 -13.5t12.5 -32.5q0 -21 -17 -35.5t-42 -14.5h-101v-32h150
q25 0 48 -11t39.5 -29.5t26.5 -44t10 -53.5q0 -18 -3.5 -34t-7.5 -32t-7.5 -32t-3.5 -33q0 -21 9 -33t9 -20t-7 -9.5t-13 -1.5h-344q-8 0 -8 8t8 8h38v530h-38zM131 16h36q46 0 86.5 14t71 38.5t48 57t17.5 69.5q0 25 -8.5 47.5t-23.5 39.5t-35 26.5t-42 9.5q-38 0 -65 -23
t-27 -56q0 -31 19 -52.5t46 -21.5q20 0 34.5 15t14.5 36q0 6 -2 11.5t-7 8.5q0 -10 -8.5 -17.5t-19.5 -7.5q-13 0 -21.5 8.5t-8.5 19.5q0 14 10 23.5t24 9.5q20 0 34 -16.5t14 -39.5q0 -27 -19 -46.5t-45 -19.5q-33 0 -56.5 26t-23.5 63q0 25 16 49h-59v-272zM204 726
q11 0 20 -7.5t9 -18.5q0 -16 -17 -27q-5 -3 -20 -10t-33.5 -14t-36.5 -12.5t-28 -5.5q-6 0 -6 7q0 3 2 5q26 16 44 30.5t33 30.5q9 11 15 16.5t18 5.5z" />
    <glyph glyph-name="lacute" unicode="&#x13a;" horiz-adv-x="178" 
d="M65 512q-5 -1 -13.5 -1.5t-14.5 -0.5q-8 0 -8 9q0 2 1.5 5t6.5 3q21 0 41 6.5t29 6.5q2 0 4 -1.5t2 -3.5v-519h29q8 0 8 -8t-8 -8h-106q-8 0 -8 8t8 8h29v496zM180 708q0 -12 -11 -23q-4 -5 -18.5 -17t-32 -24t-33 -21t-21.5 -9t-6 7q0 2 1 4q22 22 35.5 40t22.5 38
q7 14 13.5 22.5t21.5 8.5q12 0 20 -7.5t8 -18.5z" />
    <glyph glyph-name="Lcommaaccent" unicode="&#x13b;" horiz-adv-x="440" 
d="M37 546q-8 0 -8 8t8 8h132q8 0 8 -8t-8 -8h-38v-166h101q18 0 31 10.5t13 24.5q0 13 -8 22t-19 9q-10 0 -16 -6q6 -2 10.5 -5.5t4.5 -10.5t-5 -12t-12 -5q-8 0 -13.5 6.5t-5.5 16.5q0 13 11 22t26 9q17 0 29.5 -13.5t12.5 -32.5q0 -21 -17 -35.5t-42 -14.5h-101v-32h150
q25 0 48 -11t39.5 -29.5t26.5 -44t10 -53.5q0 -18 -3.5 -34t-7.5 -32t-7.5 -32t-3.5 -33q0 -21 9 -33t9 -20t-7 -9.5t-13 -1.5h-344q-8 0 -8 8t8 8h38v530h-38zM131 16h36q46 0 86.5 14t71 38.5t48 57t17.5 69.5q0 25 -8.5 47.5t-23.5 39.5t-35 26.5t-42 9.5q-38 0 -65 -23
t-27 -56q0 -31 19 -52.5t46 -21.5q20 0 34.5 15t14.5 36q0 6 -2 11.5t-7 8.5q0 -10 -8.5 -17.5t-19.5 -7.5q-13 0 -21.5 8.5t-8.5 19.5q0 14 10 23.5t24 9.5q20 0 34 -16.5t14 -39.5q0 -27 -19 -46.5t-45 -19.5q-33 0 -56.5 26t-23.5 63q0 25 16 49h-59v-272zM217 -38
q12 0 19.5 -6.5t11 -16t4.5 -20.5t1 -20q0 -16 -6 -34t-14.5 -33t-18 -24.5t-15.5 -9.5q-5 0 -5 6q0 3 3 6q11 14 17.5 30.5t6.5 45.5q-14 0 -24 12.5t-10 29.5q0 14 8.5 24t21.5 10z" />
    <glyph glyph-name="lcommaaccent" unicode="&#x13c;" horiz-adv-x="178" 
d="M65 512q-5 -1 -13.5 -1.5t-14.5 -0.5q-8 0 -8 9q0 2 1.5 5t6.5 3q21 0 41 6.5t29 6.5q2 0 4 -1.5t2 -3.5v-519h29q8 0 8 -8t-8 -8h-106q-8 0 -8 8t8 8h29v496zM86 -38q12 0 19.5 -6.5t11 -16t4.5 -20.5t1 -20q0 -16 -6 -34t-14.5 -33t-18 -24.5t-15.5 -9.5q-5 0 -5 6
q0 3 3 6q11 14 17.5 30.5t6.5 45.5q-14 0 -24 12.5t-10 29.5q0 14 8.5 24t21.5 10z" />
    <glyph glyph-name="Lcaron" unicode="&#x13d;" horiz-adv-x="440" 
d="M37 546q-8 0 -8 8t8 8h132q8 0 8 -8t-8 -8h-38v-166h101q18 0 31 10.5t13 24.5q0 13 -8 22t-19 9q-10 0 -16 -6q6 -2 10.5 -5.5t4.5 -10.5t-5 -12t-12 -5q-8 0 -13.5 6.5t-5.5 16.5q0 13 11 22t26 9q17 0 29.5 -13.5t12.5 -32.5q0 -21 -17 -35.5t-42 -14.5h-101v-32h150
q25 0 48 -11t39.5 -29.5t26.5 -44t10 -53.5q0 -18 -3.5 -34t-7.5 -32t-7.5 -32t-3.5 -33q0 -21 9 -33t9 -20t-7 -9.5t-13 -1.5h-344q-8 0 -8 8t8 8h38v530h-38zM131 16h36q46 0 86.5 14t71 38.5t48 57t17.5 69.5q0 25 -8.5 47.5t-23.5 39.5t-35 26.5t-42 9.5q-38 0 -65 -23
t-27 -56q0 -31 19 -52.5t46 -21.5q20 0 34.5 15t14.5 36q0 6 -2 11.5t-7 8.5q0 -10 -8.5 -17.5t-19.5 -7.5q-13 0 -21.5 8.5t-8.5 19.5q0 14 10 23.5t24 9.5q20 0 34 -16.5t14 -39.5q0 -27 -19 -46.5t-45 -19.5q-33 0 -56.5 26t-23.5 63q0 25 16 49h-59v-272zM367 592
q12 0 19.5 -6.5t11 -16t4.5 -20.5t1 -20q0 -16 -6 -34t-14.5 -33t-18 -24.5t-15.5 -9.5q-5 0 -5 6q0 3 3 6q11 14 17.5 30.5t6.5 45.5q-14 0 -24 12.5t-10 29.5q0 14 8.5 24t21.5 10z" />
    <glyph glyph-name="lcaron" unicode="&#x13e;" horiz-adv-x="178" 
d="M65 512q-5 -1 -13.5 -1.5t-14.5 -0.5q-8 0 -8 9q0 2 1.5 5t6.5 3q21 0 41 6.5t29 6.5q2 0 4 -1.5t2 -3.5v-519h29q8 0 8 -8t-8 -8h-106q-8 0 -8 8t8 8h29v496zM177 562q12 0 19.5 -6.5t11 -16t4.5 -20.5t1 -20q0 -16 -6 -34t-14.5 -33t-18 -24.5t-15.5 -9.5q-5 0 -5 6
q0 3 3 6q11 14 17.5 30.5t6.5 45.5q-14 0 -24 12.5t-10 29.5q0 14 8.5 24t21.5 10z" />
    <glyph glyph-name="Ldot" unicode="&#x13f;" horiz-adv-x="440" 
d="M37 546q-8 0 -8 8t8 8h132q8 0 8 -8t-8 -8h-38v-166h101q18 0 31 10.5t13 24.5q0 13 -8 22t-19 9q-10 0 -16 -6q6 -2 10.5 -5.5t4.5 -10.5t-5 -12t-12 -5q-8 0 -13.5 6.5t-5.5 16.5q0 13 11 22t26 9q17 0 29.5 -13.5t12.5 -32.5q0 -21 -17 -35.5t-42 -14.5h-101v-32h150
q25 0 48 -11t39.5 -29.5t26.5 -44t10 -53.5q0 -18 -3.5 -34t-7.5 -32t-7.5 -32t-3.5 -33q0 -21 9 -33t9 -20t-7 -9.5t-13 -1.5h-344q-8 0 -8 8t8 8h38v530h-38zM131 16h36q46 0 86.5 14t71 38.5t48 57t17.5 69.5q0 25 -8.5 47.5t-23.5 39.5t-35 26.5t-42 9.5q-38 0 -65 -23
t-27 -56q0 -31 19 -52.5t46 -21.5q20 0 34.5 15t14.5 36q0 6 -2 11.5t-7 8.5q0 -10 -8.5 -17.5t-19.5 -7.5q-13 0 -21.5 8.5t-8.5 19.5q0 14 10 23.5t24 9.5q20 0 34 -16.5t14 -39.5q0 -27 -19 -46.5t-45 -19.5q-33 0 -56.5 26t-23.5 63q0 25 16 49h-59v-272zM441 349
q13 0 20.5 -9.5t7.5 -21.5q0 -14 -6 -25.5t-22 -11.5q-17 0 -22.5 11t-5.5 26q0 12 8 21.5t20 9.5z" />
    <glyph glyph-name="ldot" unicode="&#x140;" horiz-adv-x="178" 
d="M65 512q-5 -1 -13.5 -1.5t-14.5 -0.5q-8 0 -8 9q0 2 1.5 5t6.5 3q21 0 41 6.5t29 6.5q2 0 4 -1.5t2 -3.5v-519h29q8 0 8 -8t-8 -8h-106q-8 0 -8 8t8 8h29v496zM176 349q13 0 20.5 -9.5t7.5 -21.5q0 -14 -6 -25.5t-22 -11.5q-17 0 -22.5 11t-5.5 26q0 12 8 21.5t20 9.5z
" />
    <glyph glyph-name="Lslash" unicode="&#x141;" horiz-adv-x="440" 
d="M131 546v-226l97 56q24 15 24 38q0 13 -9 22t-22 9q-17 0 -22 -16q2 1 6 1q7 0 12 -4.5t5 -10.5q0 -8 -5 -13t-12 -5q-10 0 -16.5 7t-6.5 18q0 16 11 27t28 11q20 0 33.5 -13.5t13.5 -32.5q0 -14 -8 -28t-24 -23l-75 -44v-28l20 12q28 16 58 16q19 0 36.5 -7t30.5 -19.5
t20.5 -29t7.5 -35.5q0 -32 -20 -55t-49 -23q-27 0 -46.5 19t-19.5 45q0 19 11 32.5t28 13.5q14 0 23 -8.5t9 -20.5q0 -13 -8.5 -21.5t-21.5 -8.5q-15 0 -22 12q-2 -3 -2 -8q0 -6 4 -14q8 -13 19.5 -19.5t25.5 -6.5q23 0 38.5 18.5t15.5 44.5q0 32 -23 54t-56 22
q-28 0 -52 -14l-57 -34v-240h47q40 0 76 12t62 33t41.5 49.5t15.5 60.5q0 5 -0.5 8.5t-1.5 7.5q15 -8 19 -25t4 -36q0 -14 -5 -31t-5 -32q0 -12 2.5 -19.5t5.5 -13t5.5 -10t2.5 -11.5q0 -9 -16 -9h-347q-8 0 -8 8t8 8h38v216l-45 -26v-28q0 -2 -2 -5t-6 -3q-5 0 -7 3t-2 5
v126q0 2 2 5t7 3q4 0 6 -3t2 -5v-35l45 25v252h-38q-8 0 -8 8t8 8h132q8 0 8 -8t-8 -8h-38z" />
    <glyph glyph-name="lslash" unicode="&#x142;" horiz-adv-x="153" 
d="M64 289v223q-5 -1 -13.5 -1.5t-14.5 -0.5q-8 0 -8 9q0 2 1.5 5t6.5 3q21 0 41 6.5t29 6.5q2 0 4 -1.5t2 -3.5v-218l34 20q6 2 9 -3l6 -10q2 -6 -2 -8l-47 -27v-273h29q8 0 8 -8t-8 -8h-106q-8 0 -8 8t8 8h29v245l-31 -18q-5 -2 -8 3l-6 10q-3 6 2 8z" />
    <glyph glyph-name="Nacute" unicode="&#x143;" horiz-adv-x="462" 
d="M181 410q0 26 18.5 44t44.5 18q23 0 40 -16.5t17 -39.5q0 -20 -12.5 -33.5t-29.5 -13.5q-14 0 -24.5 7.5t-10.5 18.5q0 10 6 17t15 7t15 -6t6 -14q0 -3 -1 -7t-3 -7q9 1 17 11.5t8 21.5q0 17 -12.5 28t-30.5 11q-20 0 -33.5 -13.5t-13.5 -33.5v-92h144q9 23 15.5 47
t6.5 50q0 23 -8 44.5t-23 38t-35 26.5t-44 10q-21 0 -42.5 -9.5t-39.5 -25.5t-29 -36t-11 -42v-405h38q8 0 8 -8t-8 -8h-132q-8 0 -8 8t8 8h38v530h-38q-8 0 -8 8t8 8h86q8 0 8 -8v-70q20 35 56.5 57t89.5 22q31 0 58.5 -12.5t48.5 -34t33.5 -49.5t12.5 -58q0 -43 -15 -83
t-33 -79t-33 -78t-15 -81q0 -11 2 -25t7.5 -26.5t14.5 -21t24 -8.5q13 0 24.5 4t17.5 17q-10 -5 -21 -5t-19 10.5t-8 21.5q0 14 9.5 25t24.5 11q17 0 27 -12t10 -29q0 -26 -21.5 -41t-45.5 -15t-41.5 12.5t-29 32t-17 42t-5.5 42.5q0 34 8 65t18 63h-116v-172q0 -8 -8 -8
t-8 8v331zM197 304v-39h123l15 39h-138zM338 726q11 0 20 -7.5t9 -18.5q0 -16 -17 -27q-5 -3 -20 -10t-33.5 -14t-36.5 -12.5t-28 -5.5q-6 0 -6 7q0 3 2 5q26 16 44 30.5t33 30.5q9 11 15 16.5t18 5.5z" />
    <glyph glyph-name="nacute" unicode="&#x144;" horiz-adv-x="384" 
d="M65 313q-5 -1 -13.5 -1.5t-14.5 -0.5q-8 0 -8 9q0 2 1.5 5t6.5 3q21 0 41 6.5t29 6.5q2 0 4 -1.5t2 -3.5v-42q15 25 43.5 40.5t63.5 15.5q45 0 72 -26t27 -77v-231h29q8 0 8 -8t-8 -8h-106q-8 0 -8 8t8 8h29v231q0 32 -12.5 53.5t-47.5 21.5q-22 0 -40 -6.5t-31 -17.5
t-20 -24.5t-7 -26.5v-231h29q8 0 8 -8t-8 -8h-106q-8 0 -8 8t8 8h29v297zM295 488q0 -12 -11 -23q-4 -5 -18.5 -17t-32 -24t-33 -21t-21.5 -9t-6 7q0 2 1 4q22 22 35.5 40t22.5 38q7 14 13.5 22.5t21.5 8.5q12 0 20 -7.5t8 -18.5z" />
    <glyph glyph-name="Ncommaaccent" unicode="&#x145;" horiz-adv-x="462" 
d="M181 410q0 26 18.5 44t44.5 18q23 0 40 -16.5t17 -39.5q0 -20 -12.5 -33.5t-29.5 -13.5q-14 0 -24.5 7.5t-10.5 18.5q0 10 6 17t15 7t15 -6t6 -14q0 -3 -1 -7t-3 -7q9 1 17 11.5t8 21.5q0 17 -12.5 28t-30.5 11q-20 0 -33.5 -13.5t-13.5 -33.5v-92h144q9 23 15.5 47
t6.5 50q0 23 -8 44.5t-23 38t-35 26.5t-44 10q-21 0 -42.5 -9.5t-39.5 -25.5t-29 -36t-11 -42v-405h38q8 0 8 -8t-8 -8h-132q-8 0 -8 8t8 8h38v530h-38q-8 0 -8 8t8 8h86q8 0 8 -8v-70q20 35 56.5 57t89.5 22q31 0 58.5 -12.5t48.5 -34t33.5 -49.5t12.5 -58q0 -43 -15 -83
t-33 -79t-33 -78t-15 -81q0 -11 2 -25t7.5 -26.5t14.5 -21t24 -8.5q13 0 24.5 4t17.5 17q-10 -5 -21 -5t-19 10.5t-8 21.5q0 14 9.5 25t24.5 11q17 0 27 -12t10 -29q0 -26 -21.5 -41t-45.5 -15t-41.5 12.5t-29 32t-17 42t-5.5 42.5q0 34 8 65t18 63h-116v-172q0 -8 -8 -8
t-8 8v331zM197 304v-39h123l15 39h-138zM230 -38q12 0 19.5 -6.5t11 -16t4.5 -20.5t1 -20q0 -16 -6 -34t-14.5 -33t-18 -24.5t-15.5 -9.5q-5 0 -5 6q0 3 3 6q11 14 17.5 30.5t6.5 45.5q-14 0 -24 12.5t-10 29.5q0 14 8.5 24t21.5 10z" />
    <glyph glyph-name="ncommaaccent" unicode="&#x146;" horiz-adv-x="384" 
d="M65 313q-5 -1 -13.5 -1.5t-14.5 -0.5q-8 0 -8 9q0 2 1.5 5t6.5 3q21 0 41 6.5t29 6.5q2 0 4 -1.5t2 -3.5v-42q15 25 43.5 40.5t63.5 15.5q45 0 72 -26t27 -77v-231h29q8 0 8 -8t-8 -8h-106q-8 0 -8 8t8 8h29v231q0 32 -12.5 53.5t-47.5 21.5q-22 0 -40 -6.5t-31 -17.5
t-20 -24.5t-7 -26.5v-231h29q8 0 8 -8t-8 -8h-106q-8 0 -8 8t8 8h29v297zM189 -38q12 0 19.5 -6.5t11 -16t4.5 -20.5t1 -20q0 -16 -6 -34t-14.5 -33t-18 -24.5t-15.5 -9.5q-5 0 -5 6q0 3 3 6q11 14 17.5 30.5t6.5 45.5q-14 0 -24 12.5t-10 29.5q0 14 8.5 24t21.5 10z" />
    <glyph glyph-name="Ncaron" unicode="&#x147;" horiz-adv-x="462" 
d="M181 410q0 26 18.5 44t44.5 18q23 0 40 -16.5t17 -39.5q0 -20 -12.5 -33.5t-29.5 -13.5q-14 0 -24.5 7.5t-10.5 18.5q0 10 6 17t15 7t15 -6t6 -14q0 -3 -1 -7t-3 -7q9 1 17 11.5t8 21.5q0 17 -12.5 28t-30.5 11q-20 0 -33.5 -13.5t-13.5 -33.5v-92h144q9 23 15.5 47
t6.5 50q0 23 -8 44.5t-23 38t-35 26.5t-44 10q-21 0 -42.5 -9.5t-39.5 -25.5t-29 -36t-11 -42v-405h38q8 0 8 -8t-8 -8h-132q-8 0 -8 8t8 8h38v530h-38q-8 0 -8 8t8 8h86q8 0 8 -8v-70q20 35 56.5 57t89.5 22q31 0 58.5 -12.5t48.5 -34t33.5 -49.5t12.5 -58q0 -43 -15 -83
t-33 -79t-33 -78t-15 -81q0 -11 2 -25t7.5 -26.5t14.5 -21t24 -8.5q13 0 24.5 4t17.5 17q-10 -5 -21 -5t-19 10.5t-8 21.5q0 14 9.5 25t24.5 11q17 0 27 -12t10 -29q0 -26 -21.5 -41t-45.5 -15t-41.5 12.5t-29 32t-17 42t-5.5 42.5q0 34 8 65t18 63h-116v-172q0 -8 -8 -8
t-8 8v331zM197 304v-39h123l15 39h-138zM257 692l25 10t30.5 11.5t29 9t21.5 3.5q6 0 6 -7q0 -3 -3 -5q-34 -20 -52.5 -35.5t-29 -26l-16 -16t-11.5 -5.5t-11 5.5t-15.5 16t-29.5 26t-53 35.5q-3 2 -3 5q0 7 7 7q8 0 21.5 -3.5t28.5 -9t30 -11.5z" />
    <glyph glyph-name="ncaron" unicode="&#x148;" horiz-adv-x="384" 
d="M65 313q-5 -1 -13.5 -1.5t-14.5 -0.5q-8 0 -8 9q0 2 1.5 5t6.5 3q21 0 41 6.5t29 6.5q2 0 4 -1.5t2 -3.5v-42q15 25 43.5 40.5t63.5 15.5q45 0 72 -26t27 -77v-231h29q8 0 8 -8t-8 -8h-106q-8 0 -8 8t8 8h29v231q0 32 -12.5 53.5t-47.5 21.5q-22 0 -40 -6.5t-31 -17.5
t-20 -24.5t-7 -26.5v-231h29q8 0 8 -8t-8 -8h-106q-8 0 -8 8t8 8h29v297zM192 468l25 10t30.5 11.5t29 9t21.5 3.5q6 0 6 -7q0 -3 -3 -5q-34 -20 -52.5 -35.5t-29 -26l-16 -16t-11.5 -5.5t-11 5.5t-15.5 16t-29.5 26t-53 35.5q-3 2 -3 5q0 7 7 7q8 0 21.5 -3.5t28.5 -9
t30 -11.5z" />
    <glyph glyph-name="napostrophe" unicode="&#x149;" horiz-adv-x="384" 
d="M65 313q-5 -1 -13.5 -1.5t-14.5 -0.5q-8 0 -8 9q0 2 1.5 5t6.5 3q21 0 41 6.5t29 6.5q2 0 4 -1.5t2 -3.5v-42q15 25 43.5 40.5t63.5 15.5q45 0 72 -26t27 -77v-231h29q8 0 8 -8t-8 -8h-106q-8 0 -8 8t8 8h29v231q0 32 -12.5 53.5t-47.5 21.5q-22 0 -40 -6.5t-31 -17.5
t-20 -24.5t-7 -26.5v-231h29q8 0 8 -8t-8 -8h-106q-8 0 -8 8t8 8h29v297zM-5 562q12 0 19.5 -6.5t11 -16t4.5 -20.5t1 -20q0 -16 -6 -34t-14.5 -33t-18 -24.5t-15.5 -9.5q-5 0 -5 6q0 3 3 6q11 14 17.5 30.5t6.5 45.5q-14 0 -24 12.5t-10 29.5q0 14 8.5 24t21.5 10z" />
    <glyph glyph-name="Eng" unicode="&#x14a;" horiz-adv-x="499" 
d="M424 0q0 -50 -28.5 -78t-73.5 -28q-24 0 -45.5 15t-21.5 41q0 17 10 29t27 12q15 0 24.5 -11t9.5 -25q0 -11 -8 -21.5t-19 -10.5t-21 5q6 -13 17.5 -17t24.5 -4q20 0 34 21.5t14 51.5v435q0 25 -9 46.5t-25 37.5t-36.5 25.5t-44.5 9.5q-21 0 -42.5 -9.5t-39.5 -25.5
t-29 -36t-11 -42v-156h159v145q0 20 -13.5 33.5t-33.5 13.5q-18 0 -30.5 -11t-12.5 -28q0 -11 8 -21.5t17 -11.5q-2 3 -3 7t-1 7q0 8 6 14t15 6t15 -7t6 -17q0 -11 -10.5 -18.5t-24.5 -7.5q-17 0 -29.5 13.5t-12.5 33.5q0 23 17 39.5t40 16.5q26 0 44.5 -18t18.5 -44v-331
q0 -8 -8 -8t-8 8v119h-159v-182h38q8 0 8 -8t-8 -8h-132q-8 0 -8 8t8 8h38v530h-38q-8 0 -8 8t8 8h86q8 0 8 -8v-70q20 35 56.5 57t89.5 22q30 0 57 -11.5t47 -31.5t31.5 -47t11.5 -58v-415zM131 251v-39h159v39h-159z" />
    <glyph glyph-name="eng" unicode="&#x14b;" horiz-adv-x="384" 
d="M271 247q0 32 -12.5 53.5t-47.5 21.5q-22 0 -40 -6.5t-31 -17.5t-20 -24.5t-7 -26.5v-231h29q8 0 8 -8t-8 -8h-106q-8 0 -8 8t8 8h29v297q-5 -1 -13.5 -1.5t-14.5 -0.5q-8 0 -8 9q0 2 1.5 5t6.5 3q21 0 41 6.5t29 6.5q2 0 4 -1.5t2 -3.5v-42q15 25 43.5 40.5t63.5 15.5
q45 0 72 -26t27 -77v-263q0 -13 -6 -27.5t-16 -26.5t-23 -20t-26 -8q-10 0 -10 10q0 6 4.5 8.5t6.5 5.5q22 22 22 44v277z" />
    <glyph glyph-name="Omacron" unicode="&#x14c;" horiz-adv-x="424" 
d="M20 281q0 60 15 112.5t41 92t61 62t75 22.5t75 -22.5t61 -62t41 -92t15 -112.5t-15 -112.5t-40.5 -92t-61 -62t-75.5 -22.5t-75 22.5t-61 62t-41 92t-15 112.5zM92 257h120q23 0 38.5 -15t15.5 -37q0 -18 -12.5 -30.5t-30.5 -12.5q-17 0 -28.5 10.5t-11.5 24.5
q0 13 7 21.5t18 8.5q10 0 16 -5.5t6 -13.5t-5.5 -14t-13.5 -6q-7 0 -10 3q6 -14 22 -14q11 0 19 8.5t8 19.5q0 15 -11 25.5t-27 10.5h-119q1 -32 5.5 -72.5t17 -76t35.5 -60t62 -24.5q43 0 67 29t35.5 71.5t14 89.5t2.5 83v24h-120q-23 0 -38.5 15t-15.5 37q0 18 12.5 30.5
t30.5 12.5q17 0 28.5 -10.5t11.5 -24.5q0 -13 -7 -21.5t-18 -8.5q-10 0 -16 5.5t-6 13.5t5.5 14t13.5 6q7 0 10 -3q-6 14 -22 14q-11 0 -19 -8.5t-8 -19.5q0 -15 11 -25.5t27 -10.5h119q-1 32 -5.5 72.5t-16.5 76t-35 60t-62 24.5q-43 0 -67 -29t-36 -71.5t-14.5 -89.5
t-2.5 -83v-24zM126 664q-8 0 -8 7v14q0 7 8 7h174q8 0 8 -7v-14q0 -7 -8 -7h-174z" />
    <glyph glyph-name="omacron" unicode="&#x14d;" horiz-adv-x="374" 
d="M186 336q-29 0 -48 -14t-30 -37t-15.5 -53t-4.5 -61q0 -32 4.5 -61.5t15.5 -53t30 -37.5t48 -14q30 0 49 13.5t30 34.5t15 45.5t4 46.5q0 32 -22 54t-53 22q-14 0 -29.5 -6.5t-15.5 -23.5q0 -9 6.5 -13.5t14.5 -9t14.5 -10t6.5 -15.5q0 -22 -22 -22q-20 0 -31 16t-11 33
q0 29 19 47t48 18q21 0 43 -12.5t36 -26.5q0 22 -5 46.5t-16.5 45.5t-31 34.5t-49.5 13.5zM186 350q36 0 65 -16t50 -42t32 -58t11 -63q0 -32 -11 -64t-32 -57.5t-50 -42t-65 -16.5q-35 0 -64 16.5t-49.5 42t-31.5 57.5t-11 64q0 31 11 63t31.5 58t49.5 42t64 16zM101 440
q-8 0 -8 7v14q0 7 8 7h174q8 0 8 -7v-14q0 -7 -8 -7h-174z" />
    <glyph glyph-name="Obreve" unicode="&#x14e;" horiz-adv-x="424" 
d="M20 281q0 60 15 112.5t41 92t61 62t75 22.5t75 -22.5t61 -62t41 -92t15 -112.5t-15 -112.5t-40.5 -92t-61 -62t-75.5 -22.5t-75 22.5t-61 62t-41 92t-15 112.5zM92 257h120q23 0 38.5 -15t15.5 -37q0 -18 -12.5 -30.5t-30.5 -12.5q-17 0 -28.5 10.5t-11.5 24.5
q0 13 7 21.5t18 8.5q10 0 16 -5.5t6 -13.5t-5.5 -14t-13.5 -6q-7 0 -10 3q6 -14 22 -14q11 0 19 8.5t8 19.5q0 15 -11 25.5t-27 10.5h-119q1 -32 5.5 -72.5t17 -76t35.5 -60t62 -24.5q43 0 67 29t35.5 71.5t14 89.5t2.5 83v24h-120q-23 0 -38.5 15t-15.5 37q0 18 12.5 30.5
t30.5 12.5q17 0 28.5 -10.5t11.5 -24.5q0 -13 -7 -21.5t-18 -8.5q-10 0 -16 5.5t-6 13.5t5.5 14t13.5 6q7 0 10 -3q-6 14 -22 14q-11 0 -19 -8.5t-8 -19.5q0 -15 11 -25.5t27 -10.5h119q-1 32 -5.5 72.5t-16.5 76t-35 60t-62 24.5q-43 0 -67 -29t-36 -71.5t-14.5 -89.5
t-2.5 -83v-24zM113 717q7 -12 22 -20t30.5 -12t29 -5.5t18.5 -1.5t18.5 1.5t29 5.5t30 12t22.5 20q1 3 5 3q7 0 7 -6q0 -16 -9.5 -30t-25 -24.5t-36 -16.5t-41.5 -6t-41.5 6t-36 16.5t-25 24.5t-9.5 30q0 6 6 6q4 0 6 -3z" />
    <glyph glyph-name="obreve" unicode="&#x14f;" horiz-adv-x="374" 
d="M186 336q-29 0 -48 -14t-30 -37t-15.5 -53t-4.5 -61q0 -32 4.5 -61.5t15.5 -53t30 -37.5t48 -14q30 0 49 13.5t30 34.5t15 45.5t4 46.5q0 32 -22 54t-53 22q-14 0 -29.5 -6.5t-15.5 -23.5q0 -9 6.5 -13.5t14.5 -9t14.5 -10t6.5 -15.5q0 -22 -22 -22q-20 0 -31 16t-11 33
q0 29 19 47t48 18q21 0 43 -12.5t36 -26.5q0 22 -5 46.5t-16.5 45.5t-31 34.5t-49.5 13.5zM186 350q36 0 65 -16t50 -42t32 -58t11 -63q0 -32 -11 -64t-32 -57.5t-50 -42t-65 -16.5q-35 0 -64 16.5t-49.5 42t-31.5 57.5t-11 64q0 31 11 63t31.5 58t49.5 42t64 16zM108 494
q10 -17 33.5 -28t46.5 -11t46.5 11t33.5 28q1 3 5 3q7 0 7 -6q0 -32 -27 -54.5t-65 -22.5t-65 22.5t-27 54.5q0 6 6 6q4 0 6 -3z" />
    <glyph glyph-name="Ohungarumlaut" unicode="&#x150;" horiz-adv-x="424" 
d="M20 281q0 60 15 112.5t41 92t61 62t75 22.5t75 -22.5t61 -62t41 -92t15 -112.5t-15 -112.5t-40.5 -92t-61 -62t-75.5 -22.5t-75 22.5t-61 62t-41 92t-15 112.5zM92 257h120q23 0 38.5 -15t15.5 -37q0 -18 -12.5 -30.5t-30.5 -12.5q-17 0 -28.5 10.5t-11.5 24.5
q0 13 7 21.5t18 8.5q10 0 16 -5.5t6 -13.5t-5.5 -14t-13.5 -6q-7 0 -10 3q6 -14 22 -14q11 0 19 8.5t8 19.5q0 15 -11 25.5t-27 10.5h-119q1 -32 5.5 -72.5t17 -76t35.5 -60t62 -24.5q43 0 67 29t35.5 71.5t14 89.5t2.5 83v24h-120q-23 0 -38.5 15t-15.5 37q0 18 12.5 30.5
t30.5 12.5q17 0 28.5 -10.5t11.5 -24.5q0 -13 -7 -21.5t-18 -8.5q-10 0 -16 5.5t-6 13.5t5.5 14t13.5 6q7 0 10 -3q-6 14 -22 14q-11 0 -19 -8.5t-8 -19.5q0 -15 11 -25.5t27 -10.5h119q-1 32 -5.5 72.5t-16.5 76t-35 60t-62 24.5q-43 0 -67 -29t-36 -71.5t-14.5 -89.5
t-2.5 -83v-24zM262 712q0 -12 -11 -23q-4 -5 -18.5 -17t-32 -24t-33 -21t-21.5 -9t-6 7q0 2 1 4q22 22 35.5 40t22.5 38q7 14 13.5 22.5t21.5 8.5q12 0 20 -7.5t8 -18.5zM362 712q0 -12 -11 -23q-4 -5 -18.5 -17t-32 -24t-33 -21t-21.5 -9t-6 7q0 2 1 4q22 22 35.5 40
t22.5 38q7 14 13.5 22.5t21.5 8.5q12 0 20 -7.5t8 -18.5z" />
    <glyph glyph-name="ohungarumlaut" unicode="&#x151;" horiz-adv-x="374" 
d="M186 336q-29 0 -48 -14t-30 -37t-15.5 -53t-4.5 -61q0 -32 4.5 -61.5t15.5 -53t30 -37.5t48 -14q30 0 49 13.5t30 34.5t15 45.5t4 46.5q0 32 -22 54t-53 22q-14 0 -29.5 -6.5t-15.5 -23.5q0 -9 6.5 -13.5t14.5 -9t14.5 -10t6.5 -15.5q0 -22 -22 -22q-20 0 -31 16t-11 33
q0 29 19 47t48 18q21 0 43 -12.5t36 -26.5q0 22 -5 46.5t-16.5 45.5t-31 34.5t-49.5 13.5zM186 350q36 0 65 -16t50 -42t32 -58t11 -63q0 -32 -11 -64t-32 -57.5t-50 -42t-65 -16.5q-35 0 -64 16.5t-49.5 42t-31.5 57.5t-11 64q0 31 11 63t31.5 58t49.5 42t64 16zM201 535
q9 0 18 -6.5t9 -18.5q0 -13 -12.5 -30.5t-23.5 -30.5q-16 -20 -31.5 -36.5t-22.5 -16.5t-7 7q0 3 2 5q15 26 22.5 46t11.5 41q3 19 9.5 29.5t24.5 10.5zM301 535q9 0 18 -6.5t9 -18.5q0 -13 -12.5 -30.5t-23.5 -30.5q-16 -20 -31.5 -36.5t-22.5 -16.5t-7 7q0 3 2 5
q15 26 22.5 46t11.5 41q3 19 9.5 29.5t24.5 10.5z" />
    <glyph glyph-name="OE" unicode="&#x152;" horiz-adv-x="698" 
d="M389 377h101q18 0 31 10.5t13 24.5q0 13 -8 22t-19 9q-10 0 -16 -6q6 -2 10.5 -5.5t4.5 -10.5t-5 -12t-12 -5q-8 0 -13.5 6.5t-5.5 16.5q0 13 11 22t26 9q17 0 29.5 -13.5t12.5 -32.5q0 -21 -17 -35.5t-42 -14.5h-101v-32h150q25 0 48 -11t39.5 -29.5t26.5 -44t10 -53.5
q0 -18 -3.5 -33.5t-7.5 -31t-7.5 -31t-3.5 -32.5q0 -21 9 -33t9 -20t-7 -9.5t-13 -1.5h-306q-31 0 -61 -4t-59 -4q-40 0 -75 23t-61.5 63t-41.5 93.5t-15 114.5q0 59 15 110.5t41.5 90t61.5 61t75 22.5q30 0 59 -4t61 -4h309q7 0 11.5 -0.5t4.5 -5.5q0 -7 -5.5 -11.5
t-5.5 -15.5q0 -15 2.5 -27t2.5 -26q0 -19 -7 -36t-26 -25q1 4 1.5 7.5t0.5 8.5q0 37 -13 59.5t-35 35t-49.5 16.5t-57.5 4h-77v-169zM213 554q-43 0 -67 -28.5t-35.5 -69.5t-14 -87.5t-2.5 -82.5v-26h119q23 0 37.5 -16t14.5 -36q0 -18 -12.5 -32t-31.5 -14
q-18 0 -29.5 10.5t-11.5 24.5t6.5 22.5t17.5 8.5t17.5 -6t6.5 -14q0 -7 -6.5 -13.5t-14.5 -6.5q-7 0 -11 3q5 -5 10 -8.5t13 -3.5q14 0 22.5 9.5t8.5 20.5q0 15 -10 25.5t-26 10.5h-119q1 -32 4.5 -73t15.5 -77.5t35 -61.5t63 -25q37 0 60.5 22.5t37 58.5t18 80.5t4.5 89.5
v55h-120q-22 0 -36 15.5t-14 36.5q0 18 12 31.5t29 13.5t28.5 -10t11.5 -26q0 -14 -7 -22t-18 -8q-9 0 -16 5t-7 13t6 14.5t14 6.5q5 0 13 -3q-7 16 -25 16q-12 0 -19.5 -10t-7.5 -21q0 -15 11 -25.5t30 -10.5h115q-1 32 -3 71t-12.5 73t-34.5 57t-70 23zM389 16h36
q46 0 86.5 13.5t71 37.5t48 56t17.5 69q0 25 -8.5 47.5t-23.5 39.5t-35 26.5t-42 9.5q-38 0 -65 -23t-27 -56q0 -31 19 -52.5t46 -21.5q20 0 34.5 15t14.5 36q0 6 -2 11.5t-7 8.5q0 -10 -8.5 -17.5t-19.5 -7.5q-13 0 -21.5 8.5t-8.5 19.5q0 14 10 23.5t24 9.5q20 0 34 -16.5
t14 -39.5q0 -27 -19 -46.5t-45 -19.5q-33 0 -56.5 26t-23.5 63q0 25 16 49h-59v-269z" />
    <glyph glyph-name="oe" unicode="&#x153;" horiz-adv-x="603" 
d="M344 113q3 -20 9.5 -39.5t17 -34.5t25.5 -24.5t36 -9.5q35 0 61 16t41 59q2 7 7 7q4 0 4.5 -7.5t2.5 -12.5l12 -60q-7 2 -15 2h-13q-27 0 -51.5 -9t-52.5 -9q-38 0 -67.5 20t-49.5 52q-20 -32 -52 -52t-73 -20q-35 0 -64 16.5t-49.5 42t-31.5 57.5t-11 64q0 31 11 63
t31.5 58t49.5 42t64 16q41 0 72.5 -20t51.5 -51q20 31 49.5 51t68.5 20q28 0 53.5 -12.5t44.5 -32t30.5 -44t11.5 -48.5zM186 336q-29 0 -48 -14t-30 -37t-15.5 -53t-4.5 -61q0 -32 4.5 -61.5t15.5 -53t30 -37.5t48 -14q30 0 49 13.5t30 34.5t15 45.5t4 46.5q0 32 -22 54
t-53 22q-14 0 -29.5 -6.5t-15.5 -23.5q0 -9 6.5 -13.5t14.5 -9t14.5 -10t6.5 -15.5q0 -22 -22 -22q-20 0 -31 16t-11 33q0 29 19 47t48 18q21 0 43 -12.5t36 -26.5q0 22 -5 46.5t-16.5 45.5t-31 34.5t-49.5 13.5zM339 174v-20.5t2 -21.5l107 50q27 13 41.5 33t14.5 52
q0 29 -23 49t-53 20q-27 0 -44.5 -16t-27 -40.5t-13.5 -53t-4 -52.5z" />
    <glyph glyph-name="Racute" unicode="&#x154;" horiz-adv-x="493" 
d="M258 264q-50 13 -73.5 45.5t-23.5 66.5q0 19 7 36t18.5 29.5t27.5 20t34 7.5q27 0 49 -14t22 -50q0 -20 -11.5 -31t-28.5 -11q-15 0 -24.5 10t-9.5 22q0 13 9.5 22.5t24.5 9.5q6 0 13 -2t9 -8q0 14 -14 26t-39 12q-31 0 -52 -23.5t-21 -55.5q0 -18 8.5 -33.5t22.5 -27
t31 -18t34 -6.5q27 0 47.5 11t34.5 29t21.5 41t7.5 48q0 24 -8.5 47t-27 40.5t-48.5 28t-72 10.5h-99v-530h38q8 0 8 -8t-8 -8h-132q-8 0 -8 8t8 8h38v530h-38q-8 0 -8 8t8 8h252q30 0 58.5 -10.5t51 -30t36 -46t13.5 -57.5q0 -35 -12.5 -60.5t-30.5 -43.5t-38.5 -29
t-37.5 -15l113 -254h32q8 0 8 -8t-8 -8h-134q-8 0 -8 8t8 8h32zM314 726q11 0 20 -7.5t9 -18.5q0 -16 -17 -27q-5 -3 -20 -10t-33.5 -14t-36.5 -12.5t-28 -5.5q-6 0 -6 7q0 3 2 5q26 16 44 30.5t33 30.5q9 11 15 16.5t18 5.5z" />
    <glyph glyph-name="racute" unicode="&#x155;" horiz-adv-x="287" 
d="M189 350q32 0 55 -21t23 -52q0 -21 -12 -38.5t-33 -17.5q-7 0 -11 2.5t-6 4.5v-286q2 5 12 5q8 0 13.5 -6t5.5 -15t-6 -15t-13 -6q-14 0 -20 8.5t-6 19.5v314q0 10 5.5 16.5t12.5 12.5t12.5 12.5t5.5 15.5q0 13 -12 22.5t-26 9.5q-16 0 -29.5 -10t-24 -25t-16.5 -32.5
t-6 -33.5v-219h29q8 0 8 -8t-8 -8h-106q-8 0 -8 8t8 8h29v297q-5 -1 -13.5 -1.5t-14.5 -0.5q-8 0 -8 9q0 2 1.5 5t6.5 3q21 0 41 6.5t29 6.5q4 0 6 -5v-32q12 17 28 31.5t48 14.5zM285 488q0 -12 -11 -23q-4 -5 -18.5 -17t-32 -24t-33 -21t-21.5 -9t-6 7q0 2 1 4
q22 22 35.5 40t22.5 38q7 14 13.5 22.5t21.5 8.5q12 0 20 -7.5t8 -18.5z" />
    <glyph glyph-name="Rcommaaccent" unicode="&#x156;" horiz-adv-x="493" 
d="M258 264q-50 13 -73.5 45.5t-23.5 66.5q0 19 7 36t18.5 29.5t27.5 20t34 7.5q27 0 49 -14t22 -50q0 -20 -11.5 -31t-28.5 -11q-15 0 -24.5 10t-9.5 22q0 13 9.5 22.5t24.5 9.5q6 0 13 -2t9 -8q0 14 -14 26t-39 12q-31 0 -52 -23.5t-21 -55.5q0 -18 8.5 -33.5t22.5 -27
t31 -18t34 -6.5q27 0 47.5 11t34.5 29t21.5 41t7.5 48q0 24 -8.5 47t-27 40.5t-48.5 28t-72 10.5h-99v-530h38q8 0 8 -8t-8 -8h-132q-8 0 -8 8t8 8h38v530h-38q-8 0 -8 8t8 8h252q30 0 58.5 -10.5t51 -30t36 -46t13.5 -57.5q0 -35 -12.5 -60.5t-30.5 -43.5t-38.5 -29
t-37.5 -15l113 -254h32q8 0 8 -8t-8 -8h-134q-8 0 -8 8t8 8h32zM243 -38q12 0 19.5 -6.5t11 -16t4.5 -20.5t1 -20q0 -16 -6 -34t-14.5 -33t-18 -24.5t-15.5 -9.5q-5 0 -5 6q0 3 3 6q11 14 17.5 30.5t6.5 45.5q-14 0 -24 12.5t-10 29.5q0 14 8.5 24t21.5 10z" />
    <glyph glyph-name="rcommaaccent" unicode="&#x157;" horiz-adv-x="287" 
d="M189 350q32 0 55 -21t23 -52q0 -21 -12 -38.5t-33 -17.5q-7 0 -11 2.5t-6 4.5v-286q2 5 12 5q8 0 13.5 -6t5.5 -15t-6 -15t-13 -6q-14 0 -20 8.5t-6 19.5v314q0 10 5.5 16.5t12.5 12.5t12.5 12.5t5.5 15.5q0 13 -12 22.5t-26 9.5q-16 0 -29.5 -10t-24 -25t-16.5 -32.5
t-6 -33.5v-219h29q8 0 8 -8t-8 -8h-106q-8 0 -8 8t8 8h29v297q-5 -1 -13.5 -1.5t-14.5 -0.5q-8 0 -8 9q0 2 1.5 5t6.5 3q21 0 41 6.5t29 6.5q4 0 6 -5v-32q12 17 28 31.5t48 14.5zM82 -38q12 0 19.5 -6.5t11 -16t4.5 -20.5t1 -20q0 -16 -6 -34t-14.5 -33t-18 -24.5
t-15.5 -9.5q-5 0 -5 6q0 3 3 6q11 14 17.5 30.5t6.5 45.5q-14 0 -24 12.5t-10 29.5q0 14 8.5 24t21.5 10z" />
    <glyph glyph-name="Rcaron" unicode="&#x158;" horiz-adv-x="493" 
d="M258 264q-50 13 -73.5 45.5t-23.5 66.5q0 19 7 36t18.5 29.5t27.5 20t34 7.5q27 0 49 -14t22 -50q0 -20 -11.5 -31t-28.5 -11q-15 0 -24.5 10t-9.5 22q0 13 9.5 22.5t24.5 9.5q6 0 13 -2t9 -8q0 14 -14 26t-39 12q-31 0 -52 -23.5t-21 -55.5q0 -18 8.5 -33.5t22.5 -27
t31 -18t34 -6.5q27 0 47.5 11t34.5 29t21.5 41t7.5 48q0 24 -8.5 47t-27 40.5t-48.5 28t-72 10.5h-99v-530h38q8 0 8 -8t-8 -8h-132q-8 0 -8 8t8 8h38v530h-38q-8 0 -8 8t8 8h252q30 0 58.5 -10.5t51 -30t36 -46t13.5 -57.5q0 -35 -12.5 -60.5t-30.5 -43.5t-38.5 -29
t-37.5 -15l113 -254h32q8 0 8 -8t-8 -8h-134q-8 0 -8 8t8 8h32zM223 692l25 10t30.5 11.5t29 9t21.5 3.5q6 0 6 -7q0 -3 -3 -5q-34 -20 -52.5 -35.5t-29 -26l-16 -16t-11.5 -5.5t-11 5.5t-15.5 16t-29.5 26t-53 35.5q-3 2 -3 5q0 7 7 7q8 0 21.5 -3.5t28.5 -9t30 -11.5z" />
    <glyph glyph-name="rcaron" unicode="&#x159;" horiz-adv-x="287" 
d="M189 350q32 0 55 -21t23 -52q0 -21 -12 -38.5t-33 -17.5q-7 0 -11 2.5t-6 4.5v-286q2 5 12 5q8 0 13.5 -6t5.5 -15t-6 -15t-13 -6q-14 0 -20 8.5t-6 19.5v314q0 10 5.5 16.5t12.5 12.5t12.5 12.5t5.5 15.5q0 13 -12 22.5t-26 9.5q-16 0 -29.5 -10t-24 -25t-16.5 -32.5
t-6 -33.5v-219h29q8 0 8 -8t-8 -8h-106q-8 0 -8 8t8 8h29v297q-5 -1 -13.5 -1.5t-14.5 -0.5q-8 0 -8 9q0 2 1.5 5t6.5 3q21 0 41 6.5t29 6.5q4 0 6 -5v-32q12 17 28 31.5t48 14.5zM178 468l25 10t30.5 11.5t29 9t21.5 3.5q6 0 6 -7q0 -3 -3 -5q-34 -20 -52.5 -35.5t-29 -26
l-16 -16t-11.5 -5.5t-11 5.5t-15.5 16t-29.5 26t-53 35.5q-3 2 -3 5q0 7 7 7q8 0 21.5 -3.5t28.5 -9t30 -11.5z" />
    <glyph glyph-name="Sacute" unicode="&#x15a;" horiz-adv-x="432" 
d="M198 570q22 0 40 -4t34.5 -8.5t32.5 -8.5t34 -4q17 0 22.5 8.5t10.5 8.5q7 0 7 -7q0 -6 -4.5 -12t-4.5 -16q0 -18 4.5 -35t4.5 -37q0 -11 -3 -22.5t-9.5 -21t-17.5 -16t-26 -6.5q6 11 10.5 23.5t4.5 22.5q0 29 -12.5 51.5t-32 37.5t-45 22.5t-50.5 7.5q-22 0 -41.5 -7
t-34 -19.5t-23 -29.5t-8.5 -36q0 -21 12 -37.5t29 -28.5t37 -20.5t36 -14.5q36 -14 73 -29.5t66.5 -38t48.5 -54.5t19 -78q0 -35 -15.5 -65.5t-41.5 -53.5t-61.5 -36.5t-75.5 -13.5q-23 0 -40 3.5t-32.5 8t-30 8t-32.5 3.5q-28 0 -50 -11h-1q2 8 3 15.5t1 15.5q0 26 -8 50
t-8 51q0 24 9 44.5t25 36t37 24.5t45 9q19 0 36 -6.5t29.5 -18t19.5 -27t7 -33.5q0 -10 -3.5 -21.5t-10.5 -21.5t-17.5 -16.5t-24.5 -6.5q-16 0 -27.5 10t-11.5 27q0 11 8 19t21 8q11 0 20 -7.5t9 -19.5q0 -9 -3 -18q13 5 19 20t6 27q0 29 -22.5 49t-54.5 20t-55 -23
t-23 -55q0 -33 12.5 -60t34 -46.5t50.5 -30.5t63 -11q31 0 59 10.5t48.5 28.5t32.5 42.5t12 51.5q0 31 -14 54t-36.5 40t-49.5 28.5t-52 20.5q-27 10 -57.5 22.5t-56.5 30.5t-43.5 43.5t-17.5 60.5q0 27 12 50.5t33 41t49.5 27.5t60.5 10zM304 726q11 0 20 -7.5t9 -18.5
q0 -16 -17 -27q-5 -3 -20 -10t-33.5 -14t-36.5 -12.5t-28 -5.5q-6 0 -6 7q0 3 2 5q26 16 44 30.5t33 30.5q9 11 15 16.5t18 5.5z" />
    <glyph glyph-name="sacute" unicode="&#x15b;" horiz-adv-x="335" 
d="M153 350q32 0 60 -7.5t49 -7.5q8 0 13 1t10 1q3 0 3 -3q-9 -14 -17.5 -32t-14.5 -35q-12 33 -36 51t-67 18q-31 0 -52.5 -15.5t-21.5 -37.5q0 -25 21 -35t53 -15q25 -4 52.5 -9.5t51 -18t38.5 -34.5t15 -59q0 -25 -11 -47t-31 -38.5t-49.5 -26t-65.5 -9.5q-27 0 -50 7.5
t-40.5 21t-27.5 31.5t-10 38q0 29 19.5 49.5t48.5 20.5q26 0 45.5 -16.5t19.5 -42.5q0 -18 -10.5 -31t-25.5 -13q-11 0 -19 8t-8 19q0 6 2.5 10.5t5 8.5t5 8.5t2.5 12.5t-8.5 14t-19.5 6q-18 0 -30.5 -15.5t-12.5 -38.5q0 -17 9 -32.5t24.5 -27t36 -18t44.5 -6.5
q25 0 47 5.5t38.5 17t26.5 29t10 40.5q0 24 -10.5 38.5t-27 23t-38 13t-43.5 7.5q-22 4 -43 9t-37 14t-26 24t-10 39q0 18 9 33.5t24.5 27t36 18t43.5 6.5zM255 488q0 -12 -11 -23q-4 -5 -18.5 -17t-32 -24t-33 -21t-21.5 -9t-6 7q0 2 1 4q22 22 35.5 40t22.5 38
q7 14 13.5 22.5t21.5 8.5q12 0 20 -7.5t8 -18.5z" />
    <glyph glyph-name="Scircumflex" unicode="&#x15c;" horiz-adv-x="432" 
d="M198 570q22 0 40 -4t34.5 -8.5t32.5 -8.5t34 -4q17 0 22.5 8.5t10.5 8.5q7 0 7 -7q0 -6 -4.5 -12t-4.5 -16q0 -18 4.5 -35t4.5 -37q0 -11 -3 -22.5t-9.5 -21t-17.5 -16t-26 -6.5q6 11 10.5 23.5t4.5 22.5q0 29 -12.5 51.5t-32 37.5t-45 22.5t-50.5 7.5q-22 0 -41.5 -7
t-34 -19.5t-23 -29.5t-8.5 -36q0 -21 12 -37.5t29 -28.5t37 -20.5t36 -14.5q36 -14 73 -29.5t66.5 -38t48.5 -54.5t19 -78q0 -35 -15.5 -65.5t-41.5 -53.5t-61.5 -36.5t-75.5 -13.5q-23 0 -40 3.5t-32.5 8t-30 8t-32.5 3.5q-28 0 -50 -11h-1q2 8 3 15.5t1 15.5q0 26 -8 50
t-8 51q0 24 9 44.5t25 36t37 24.5t45 9q19 0 36 -6.5t29.5 -18t19.5 -27t7 -33.5q0 -10 -3.5 -21.5t-10.5 -21.5t-17.5 -16.5t-24.5 -6.5q-16 0 -27.5 10t-11.5 27q0 11 8 19t21 8q11 0 20 -7.5t9 -19.5q0 -9 -3 -18q13 5 19 20t6 27q0 29 -22.5 49t-54.5 20t-55 -23
t-23 -55q0 -33 12.5 -60t34 -46.5t50.5 -30.5t63 -11q31 0 59 10.5t48.5 28.5t32.5 42.5t12 51.5q0 31 -14 54t-36.5 40t-49.5 28.5t-52 20.5q-27 10 -57.5 22.5t-56.5 30.5t-43.5 43.5t-17.5 60.5q0 27 12 50.5t33 41t49.5 27.5t60.5 10zM213 665q-10 -5 -25 -10.5
t-30.5 -11t-29 -9t-21.5 -3.5q-6 0 -6 7q0 3 3 5q34 20 52.5 35.5t29 26l16 16t11.5 5.5t11 -5.5t15.5 -16t29.5 -26t53 -35.5q3 -2 3 -5q0 -7 -7 -7q-8 0 -21.5 3.5t-28.5 9l-30 11t-25 10.5z" />
    <glyph glyph-name="scircumflex" unicode="&#x15d;" horiz-adv-x="335" 
d="M153 350q32 0 60 -7.5t49 -7.5q8 0 13 1t10 1q3 0 3 -3q-9 -14 -17.5 -32t-14.5 -35q-12 33 -36 51t-67 18q-31 0 -52.5 -15.5t-21.5 -37.5q0 -25 21 -35t53 -15q25 -4 52.5 -9.5t51 -18t38.5 -34.5t15 -59q0 -25 -11 -47t-31 -38.5t-49.5 -26t-65.5 -9.5q-27 0 -50 7.5
t-40.5 21t-27.5 31.5t-10 38q0 29 19.5 49.5t48.5 20.5q26 0 45.5 -16.5t19.5 -42.5q0 -18 -10.5 -31t-25.5 -13q-11 0 -19 8t-8 19q0 6 2.5 10.5t5 8.5t5 8.5t2.5 12.5t-8.5 14t-19.5 6q-18 0 -30.5 -15.5t-12.5 -38.5q0 -17 9 -32.5t24.5 -27t36 -18t44.5 -6.5
q25 0 47 5.5t38.5 17t26.5 29t10 40.5q0 24 -10.5 38.5t-27 23t-38 13t-43.5 7.5q-22 4 -43 9t-37 14t-26 24t-10 39q0 18 9 33.5t24.5 27t36 18t43.5 6.5zM168 442q-10 -5 -25 -10.5t-30.5 -11t-29 -9t-21.5 -3.5q-6 0 -6 7q0 3 3 5q34 20 52.5 35.5t29 26l16 16t11.5 5.5
t11 -5.5t15.5 -16t29.5 -26t53 -35.5q3 -2 3 -5q0 -7 -7 -7q-8 0 -21.5 3.5t-28.5 9l-30 11t-25 10.5z" />
    <glyph glyph-name="Scedilla" unicode="&#x15e;" horiz-adv-x="432" 
d="M198 570q22 0 40 -4t34.5 -8.5t32.5 -8.5t34 -4q17 0 22.5 8.5t10.5 8.5q7 0 7 -7q0 -6 -4.5 -12t-4.5 -16q0 -18 4.5 -35t4.5 -37q0 -11 -3 -22.5t-9.5 -21t-17.5 -16t-26 -6.5q6 11 10.5 23.5t4.5 22.5q0 29 -12.5 51.5t-32 37.5t-45 22.5t-50.5 7.5q-22 0 -41.5 -7
t-34 -19.5t-23 -29.5t-8.5 -36q0 -21 12 -37.5t29 -28.5t37 -20.5t36 -14.5q36 -14 73 -29.5t66.5 -38t48.5 -54.5t19 -78q0 -35 -15 -65t-40.5 -53t-60.5 -36.5t-74 -14.5v-26q26 -5 43.5 -23t17.5 -43t-20 -42t-49 -17q-22 0 -37.5 13t-15.5 32t12.5 32t29.5 13
q14 0 23.5 -7t9.5 -17q0 -8 -6.5 -14.5t-14.5 -6.5q-10 0 -13.5 7t-10.5 7q-13 0 -13 -17q0 -11 10.5 -18.5t25.5 -7.5q17 0 29 13.5t12 33.5t-14 34t-35 14v40q-20 1 -35 5t-29.5 8t-28.5 7t-30 3q-27 0 -51 -11q2 8 3 15.5t1 15.5q0 26 -8 50t-8 51q0 24 9 44.5t25 36
t37 24.5t45 9q19 0 36 -6.5t29.5 -18t19.5 -27t7 -33.5q0 -10 -3.5 -21.5t-10.5 -21.5t-17.5 -16.5t-24.5 -6.5q-16 0 -27.5 10t-11.5 27q0 11 8 19t21 8q11 0 20 -7.5t9 -19.5q0 -9 -3 -18q13 5 19 20t6 27q0 29 -22.5 49t-54.5 20t-55 -23t-23 -55q0 -33 12.5 -60
t34 -46.5t50.5 -30.5t63 -11q31 0 59 10.5t48.5 28.5t32.5 42.5t12 51.5q0 31 -14 54t-36.5 40t-49.5 28.5t-52 20.5q-27 10 -57.5 22.5t-56.5 30.5t-43.5 43.5t-17.5 60.5q0 27 12 50.5t33 41t49.5 27.5t60.5 10z" />
    <glyph glyph-name="Scedilla" unicode="&#xf6c1;" horiz-adv-x="432" 
d="M198 570q22 0 40 -4t34.5 -8.5t32.5 -8.5t34 -4q17 0 22.5 8.5t10.5 8.5q7 0 7 -7q0 -6 -4.5 -12t-4.5 -16q0 -18 4.5 -35t4.5 -37q0 -11 -3 -22.5t-9.5 -21t-17.5 -16t-26 -6.5q6 11 10.5 23.5t4.5 22.5q0 29 -12.5 51.5t-32 37.5t-45 22.5t-50.5 7.5q-22 0 -41.5 -7
t-34 -19.5t-23 -29.5t-8.5 -36q0 -21 12 -37.5t29 -28.5t37 -20.5t36 -14.5q36 -14 73 -29.5t66.5 -38t48.5 -54.5t19 -78q0 -35 -15 -65t-40.5 -53t-60.5 -36.5t-74 -14.5v-26q26 -5 43.5 -23t17.5 -43t-20 -42t-49 -17q-22 0 -37.5 13t-15.5 32t12.5 32t29.5 13
q14 0 23.5 -7t9.5 -17q0 -8 -6.5 -14.5t-14.5 -6.5q-10 0 -13.5 7t-10.5 7q-13 0 -13 -17q0 -11 10.5 -18.5t25.5 -7.5q17 0 29 13.5t12 33.5t-14 34t-35 14v40q-20 1 -35 5t-29.5 8t-28.5 7t-30 3q-27 0 -51 -11q2 8 3 15.5t1 15.5q0 26 -8 50t-8 51q0 24 9 44.5t25 36
t37 24.5t45 9q19 0 36 -6.5t29.5 -18t19.5 -27t7 -33.5q0 -10 -3.5 -21.5t-10.5 -21.5t-17.5 -16.5t-24.5 -6.5q-16 0 -27.5 10t-11.5 27q0 11 8 19t21 8q11 0 20 -7.5t9 -19.5q0 -9 -3 -18q13 5 19 20t6 27q0 29 -22.5 49t-54.5 20t-55 -23t-23 -55q0 -33 12.5 -60
t34 -46.5t50.5 -30.5t63 -11q31 0 59 10.5t48.5 28.5t32.5 42.5t12 51.5q0 31 -14 54t-36.5 40t-49.5 28.5t-52 20.5q-27 10 -57.5 22.5t-56.5 30.5t-43.5 43.5t-17.5 60.5q0 27 12 50.5t33 41t49.5 27.5t60.5 10z" />
    </font>
</defs>
</svg>
