<?xml version="1.0" standalone="no"?>
<!DOCTYPE svg PUBLIC "-//W3C//DTD SVG 1.1//EN" "http://www.w3.org/Graphics/SVG/1.1/DTD/svg11.dtd" >
<svg xmlns="http://www.w3.org/2000/svg" xmlns:xlink="http://www.w3.org/1999/xlink" version="1.1">
<metadata>
Created by FontForge 20170731 at Fri Jan 18 11:49:07 2013
 By Aleksey,,,
Copyright (c) 2011 by James T. Edmondson. All rights reserved.
</metadata>
<defs>
<font id="UVFLavanderiaRegular" horiz-adv-x="319" >
  <font-face 
    font-family="UVF Lavanderia Regular"
    font-weight="410"
    font-stretch="normal"
    units-per-em="1000"
    panose-1="0 0 0 0 0 0 0 0 0 0"
    ascent="750"
    descent="-250"
    x-height="456"
    cap-height="882"
    bbox="-646 -642 1693 1267.9"
    underline-thickness="50"
    underline-position="-150"
    unicode-range="U+0020-FB02"
  />
<missing-glyph horiz-adv-x="240" 
 />
    <glyph glyph-name="w_e" unicode="we" horiz-adv-x="715" 
d="M442 152q-17 -7 -36 -7q-41 0 -69 25q-15 -37 -32 -69.5t-34.5 -56.5t-35.5 -38t-35 -14q-28 0 -41 29.5t-13 77.5q0 9 0.5 18.5t1.5 19.5q-23 -63 -52.5 -104t-57.5 -41q-32 0 -42 34.5t-10 91.5q3 69 19.5 158t33.5 180h53q-11 -57 -21.5 -112.5t-19 -105t-13.5 -90.5
t-5 -68q0 -42 14 -42q11 0 26 15t30 43t29.5 66.5t25.5 85.5q7 50 16.5 102.5t20.5 105.5h52q-10 -54 -20 -107.5t-18 -101.5t-13 -88.5t-5 -68.5q0 -25 4.5 -39t14.5 -14q9 0 21 13.5t25.5 36.5t27 54.5t25.5 66.5q-23 43 -23 117q0 92 21 146t52 54q21 0 32.5 -19
t11.5 -54q0 -54 -16 -124t-41 -136q25 -28 63 -28q13 0 33 10q2 49 15 100.5t35 93t51.5 68t64.5 26.5q25 0 36.5 -17t11.5 -43t-12 -59.5t-33.5 -67t-51.5 -63t-66 -47.5q1 -26 5 -48.5t12 -39.5t20.5 -27t31.5 -10q24 0 46 18.5t41.5 47.5t36 64.5t29.5 70.5q5 0 12.5 -4
t7.5 -6l-14 -33q-14 -34 -30.5 -70t-37.5 -66t-47 -49.5t-57 -19.5q-28 0 -47.5 12.5t-31.5 34.5t-18.5 50.5t-9.5 61.5zM604 427q-19 0 -37 -21t-33 -54t-25.5 -74.5t-13.5 -81.5q31 23 54.5 51.5t39.5 57t23.5 54t7.5 42.5q0 26 -16 26zM364 462q0 31 -14 31
q-12 0 -26 -42.5t-14 -120.5q0 -24 2.5 -47t7.5 -40q19 59 31.5 117.5t12.5 101.5z" />
    <glyph glyph-name="F_r" unicode="Fr" horiz-adv-x="1206" 
d="M1050 829q-8 -15 -24.5 -28t-42.5 -23q-10 -16 -21 -43t-22.5 -70.5t-23 -105.5t-21.5 -148l-7 -60q42 6 73.5 24t51.5 46q-5 17 -7.5 35.5t-2.5 38.5q0 31 6 58.5t18 47.5q12 -3 23 -9.5t21 -17.5q-2 -40 -7 -76t-19 -72q9 -15 21 -31t23.5 -34.5t19.5 -39.5t8 -47
q0 -28 -7.5 -56.5t-16 -55.5t-16 -51.5t-7.5 -43.5q0 -28 20 -28q22 0 50.5 52t65.5 150q4 0 11.5 -3t7.5 -7v-2q-20 -51 -37 -94t-34.5 -74t-37 -48.5t-43.5 -17.5q-28 0 -42 18.5t-14 53.5q0 25 8 50.5t17.5 50.5t17.5 49t8 48q0 21 -4.5 38.5t-11.5 32.5t-14.5 29
t-13.5 28q-19 -28 -52.5 -48.5t-87.5 -27.5q-21 -168 -59.5 -275.5t-88.5 -169t-107.5 -84.5t-115.5 -23q-56 0 -96.5 15.5t-66.5 40.5t-38.5 57t-12.5 65q0 31 10 60t28 51.5t43.5 36t56.5 14.5q1 -14 1.5 -28t0.5 -28q-39 -1 -62.5 -33t-23.5 -77q0 -27 9.5 -52.5
t29 -45.5t50.5 -32t74 -12q46 0 92 20t87.5 76.5t74.5 157t54 262.5q-31 -3 -59 -11.5t-49 -22t-33.5 -32.5t-12.5 -45q0 -21 8 -40l-49 -19q-7 11 -9.5 24t-2.5 27q0 36 19 63.5t49 46.5t68 30t76 14q9 87 21 154t26 118t28.5 87.5t28.5 61.5q-25 -5 -53 -5
q-55 0 -112.5 11t-119.5 23.5t-130.5 23.5t-146.5 11t-136.5 -27.5t-98 -71.5t-59 -99.5t-19.5 -110.5q0 -48 15 -93t44.5 -79.5t74 -55.5t104.5 -21q58 0 100 18.5t68.5 50t39 72t12.5 85.5q0 25 -3 52l54 10q2 -14 3.5 -28.5t1.5 -28.5q0 -51 -15.5 -98.5t-48.5 -83.5
t-85.5 -57.5t-125.5 -21.5q-74 0 -129.5 24t-92.5 63.5t-55 91t-18 106.5q0 63 23.5 125.5t70.5 112.5t116.5 81t161.5 31q81 0 153.5 -12.5t137 -28t120 -28t102.5 -12.5q23 0 39.5 1.5t28.5 3.5q23 30 42 41t30 13z" />
    <glyph glyph-name="o_e" unicode="oe" horiz-adv-x="594" 
d="M236 142q20 -4 42.5 -1t42.5 8v7q0 51 12.5 105.5t34.5 99t52.5 73.5t66.5 29q29 0 43 -17.5t14 -44.5q0 -37 -13 -74.5t-35.5 -71.5t-54.5 -62t-69 -46q2 -46 18 -76.5t51 -30.5q24 0 46 18.5t41.5 47.5t36 64.5t29.5 70.5q4 0 11 -4t7 -6q-12 -35 -29.5 -76.5
t-40.5 -77.5t-51.5 -60t-62.5 -24q-26 0 -45 10.5t-31.5 28.5t-20 42.5t-9.5 53.5q-23 -6 -46.5 -7t-47.5 1q-24 -55 -59 -92t-77 -37q-43 0 -66.5 28.5t-31 76t0 108t25.5 124.5l37 -9q-18 -84 -22 -150q-2 -28 -0.5 -55t7.5 -48t18 -33.5t32 -12.5q29 0 54 30.5t43 77.5
q-44 14 -72 44t-41.5 67t-12.5 76t14.5 71t39 52.5t62.5 20.5q39 0 60.5 -30.5t27 -77.5t-3 -103.5t-27.5 -107.5zM177 435q-23 0 -40.5 -17.5t-27.5 -45t-10.5 -60.5t9.5 -64.5t31.5 -57.5t57.5 -39q16 45 24.5 95t7 92t-14 69.5t-37.5 27.5zM482 437q-23 0 -42.5 -28.5
t-34 -69.5t-23.5 -86.5t-10 -79.5q36 22 61 55t40 66.5t22 62.5t7 43q0 16 -5 26.5t-15 10.5z" />
    <glyph glyph-name="b_r" unicode="br" horiz-adv-x="549" 
d="M369 393q-20 -35 -46.5 -59.5t-64.5 -35.5q0 -51 -11.5 -105t-32.5 -98.5t-51.5 -73t-68.5 -28.5q-27 0 -45 15t-29.5 42t-16.5 64t-5 80q0 69 11 148.5t27.5 155.5t37 142t39.5 108q11 23 26.5 34t32.5 11q20 0 35.5 -15.5t15.5 -44.5q0 -127 -145 -278
q-15 -78 -25 -155.5t-10 -140.5q0 -61 11.5 -99t39.5 -38q26 0 46.5 25.5t35 64.5t22.5 86.5t8 92.5h-7q-31 0 -53.5 8.5t-37.5 22t-22.5 30.5t-7.5 34q0 29 20.5 52t62.5 23q23 0 40 -11t28.5 -30t18.5 -44.5t9 -54.5q36 11 61.5 34t42.5 58q-10 21 -10 61q0 27 5 57t13 61
l47 -13q-1 -40 -6 -73.5t-12 -66.5l-6 -20q9 -15 21.5 -30.5t23.5 -33t18.5 -38.5t7.5 -46q0 -28 -7.5 -56.5t-16 -55.5t-16 -51.5t-7.5 -43.5q0 -28 20 -28q21 0 48 53.5t65 151.5q3 0 10.5 -3t7.5 -7q-20 -52 -36.5 -95.5t-33.5 -75.5t-35.5 -50t-42.5 -18
q-28 0 -40.5 17.5t-12.5 48.5q0 25 7.5 51.5t16 52.5t16 51t7.5 49q0 18 -4.5 37t-11.5 36t-14.5 32t-13.5 26zM177 756q-8 0 -19 -21t-23.5 -56.5t-25 -83t-23.5 -100.5q44 54 73.5 114.5t29.5 123.5q0 23 -12 23zM205 314q-4 50 -19.5 83.5t-46.5 33.5q-17 0 -26 -12
t-9 -29q0 -13 5.5 -26.5t17 -24.5t29.5 -18t43 -7h6z" />
    <glyph glyph-name="b_s" unicode="bs" horiz-adv-x="558" 
d="M382 413q-3 17 -4.5 36.5t-1.5 48.5q0 27 6 52t12 46l42 -8q-4 -43 -9.5 -77.5t-15.5 -66.5q2 -38 16 -78.5t30 -81t29 -80t13 -75.5q0 -13 -3 -23q16 26 31 59.5t31 75.5q4 0 11 -4t7 -6q-15 -33 -31 -74.5t-38 -77.5t-53 -61t-76 -25q-16 0 -31.5 5t-28 15t-20 25.5
t-7.5 36.5v8l46 2q0 -21 12 -36t34 -15q28 0 45.5 27t17.5 63q0 27 -6.5 57.5t-15.5 64t-19 70t-17 74.5q-20 -35 -55 -58t-75 -34q0 -51 -11.5 -105t-32.5 -98.5t-51.5 -73t-68.5 -28.5q-27 0 -45 15t-29.5 42t-16.5 64t-5 80q0 69 11 148.5t27.5 155.5t37 142t39.5 108
q11 23 26.5 34t32.5 11q20 0 35.5 -15.5t15.5 -44.5q0 -127 -145 -278q-15 -78 -25 -155.5t-10 -140.5q0 -61 11.5 -99t39.5 -38q26 0 46.5 25.5t35 64.5t22.5 86.5t8 92.5h-7q-31 0 -53.5 8.5t-37.5 22t-22.5 30.5t-7.5 34q0 29 20.5 52t62.5 23q23 0 40 -11t28.5 -29.5
t18.5 -44t9 -54.5q39 11 73.5 34t51.5 57zM189 733q0 23 -12 23q-8 0 -19 -21t-23.5 -56.5t-25 -83t-23.5 -100.5q44 54 73.5 114.5t29.5 123.5zM139 431q-17 0 -26 -12t-9 -29q0 -13 5.5 -26.5t17 -24.5t29.5 -18t43 -7h6q-4 50 -19.5 83.5t-46.5 33.5z" />
    <glyph glyph-name="f_r" unicode="fr" horiz-adv-x="454" 
d="M197 732q0 23 -11 23q-10 0 -24.5 -37t-31 -99.5t-34 -144.5t-34.5 -172q11 23 25 56t29 72t29.5 80.5t26 81.5t18.5 76t7 64zM34 -202q19 0 32.5 26.5t13.5 64.5q0 35 -14 72.5t-49 65.5q-5 -42 -8.5 -80t-3.5 -67q0 -38 7 -60t22 -22zM263 416q-10 28 -10 60
q0 53 18 119l47 -13q-1 -37 -5.5 -68t-10.5 -62l-8 -30q9 -15 21.5 -30.5t23.5 -33t18.5 -38.5t7.5 -46q0 -28 -7.5 -56.5t-16 -55.5t-16 -51.5t-7.5 -43.5q0 -28 20 -28q21 0 49.5 52t66.5 150q3 0 10.5 -3t7.5 -7q-20 -52 -37 -95t-34.5 -74.5t-36.5 -49t-43 -17.5
q-28 0 -40.5 17.5t-12.5 48.5q0 25 7.5 51.5t16 52.5t16 51t7.5 49q0 36 -12 61.5t-23 50.5q-38 -127 -96 -210.5t-141 -122.5q37 -32 53.5 -71t16.5 -77q0 -26 -6 -49t-17 -40.5t-26 -28t-32 -10.5q-14 0 -27 5t-23 18t-16 36.5t-6 60.5q0 54 7.5 128t20.5 156.5t29 167
t33 160t33.5 136t30.5 94.5q13 32 31 47t35 15q19 0 32 -15t13 -44q0 -39 -10.5 -87t-26.5 -99t-36.5 -101t-40 -93.5t-37 -77.5t-27.5 -52q-15 -80 -24 -155q53 21 94 59.5t70 86t48 100.5t28 102z" />
    <glyph glyph-name="x_t" unicode="xt" horiz-adv-x="547" 
d="M0 239q21 55 39 96t34.5 69t33 42t35.5 14q20 0 32 -14t18.5 -37t8.5 -53.5t2 -64.5q11 33 26.5 62t37.5 51.5t51.5 37.5t69.5 20q15 75 28 119.5t25.5 68t25.5 31t27 7.5q21 0 30 -17.5t9 -48.5q0 -29 -10.5 -70.5t-29.5 -91.5l38 -6l-11 -32l-38 7q-17 -42 -36.5 -85
t-40.5 -87q-5 -39 -7.5 -73.5t-2.5 -62.5q0 -44 8 -64t22 -20q26 0 55.5 53.5t66.5 150.5q4 0 10.5 -3t6.5 -7v-2q-45 -120 -80 -178t-76 -58q-35 0 -47 43t-12 118v16q-38 -89 -70.5 -131.5t-73.5 -42.5q-33 0 -44.5 34.5t-11.5 92.5q0 5 0.5 10t0.5 10q-14 -32 -28 -59
t-29 -46.5t-31.5 -31t-34.5 -11.5q-25 0 -35.5 16.5t-10.5 42.5q0 24 8.5 52t25.5 54l36 -18q-13 -17 -21 -40t-8 -42q0 -14 5 -22.5t16 -8.5q13 0 26 13.5t26.5 36.5t27 53.5t27.5 64.5q1 35 3 69t2 63q0 39 -5.5 65t-22.5 26q-10 0 -20.5 -9.5t-23.5 -31.5t-28.5 -58.5
t-36.5 -90.5q-5 1 -9 2q-9 2 -9 7zM354 240q5 40 11 84t15 92l2 16q-38 -6 -65.5 -22t-48 -40.5t-36.5 -57t-29 -71.5q-3 -26 -4 -44.5t-2 -31.5t-1 -23v-20q0 -38 6 -62t23 -24q27 0 59 52t70 152zM508 625q0 11 -2.5 18t-11.5 7q-14 0 -27.5 -49t-28.5 -137q8 0 16 -0.5
t16 -1.5q17 47 27.5 89t10.5 74zM416 324l22 54t21 54l-26 2q-5 -26 -8.5 -53t-8.5 -57z" />
    <glyph glyph-name=".notdef" horiz-adv-x="240" 
 />
    <glyph glyph-name="uni0000" horiz-adv-x="0" 
 />
    <glyph glyph-name="uni0000" horiz-adv-x="0" 
 />
    <glyph glyph-name="nonmarkingreturn" horiz-adv-x="181" 
 />
    <glyph glyph-name="space" unicode=" " horiz-adv-x="181" 
 />
    <glyph glyph-name="exclam" unicode="!" horiz-adv-x="159" 
d="M263 712q-25 -68 -48.5 -137t-46 -142t-43.5 -152t-42 -169l-33 5q33 164 73.5 318.5t84.5 291.5zM43 -7q-15 0 -22.5 10t-7.5 24q0 17 10.5 31.5t30.5 14.5q16 0 23 -9.5t7 -23.5q0 -17 -10.5 -32t-30.5 -15z" />
    <glyph glyph-name="quotedbl" unicode="&#x22;" horiz-adv-x="182" 
d="M57 587q5 28 9.5 53.5t6.5 45.5q3 23 5 42q11 -2 21.5 -3.5t21.5 -3.5q-7 -19 -13 -41q-5 -19 -11.5 -44t-12.5 -54zM125 587q5 28 9.5 53.5t6.5 45.5q3 23 5 42q11 -2 21 -3.5t21 -3.5q-6 -19 -12 -41q-5 -19 -11.5 -44t-12.5 -54z" />
    <glyph glyph-name="numbersign" unicode="#" horiz-adv-x="386" 
d="M269 479q11 0 22 -0.5t22 -0.5l-24 -134h93l-5 -32h-93l-16 -83h96l-5 -32h-97l-24 -124h-22t-22 1l23 123h-64l-24 -124h-22t-22 1l24 123h-94l5 32h95l15 83h-97l5 32h98l24 135q11 0 22 -0.5t22 -0.5q-5 -34 -11 -67.5t-12 -66.5h64zM224 229l15 83h-64
q-4 -21 -7.5 -41.5t-8.5 -41.5h65z" />
    <glyph glyph-name="dollar" unicode="$" horiz-adv-x="317" 
d="M232 321q9 31 7.5 52.5t-10 34.5t-21.5 19t-26 6q-24 0 -41.5 -18.5t-17.5 -48.5q0 -24 10 -44t25 -37.5t33 -35t33 -36.5t25 -41t10 -49q0 -47 -21 -77t-51.5 -43t-65 -10t-62 20.5t-42.5 49.5t-6 77l55 -9q-7 -32 0.5 -55t22 -35.5t33.5 -14.5t36 6.5t28.5 28.5
t11.5 51q0 32 -20.5 57t-45 50t-45 54t-20.5 70q0 25 8 47t23.5 38.5t37.5 26.5t50 10q25 0 47.5 -11t37 -31.5t19 -49t-4.5 -63.5zM90 -90l115 628l24 1l-113 -629h-26z" />
    <glyph glyph-name="percent" unicode="%" horiz-adv-x="439" 
d="M336 215q-18 0 -32 -12.5t-24.5 -31.5t-16 -42t-5.5 -44q0 -27 10 -46t32 -19q18 0 32 12t24.5 31t16 42t5.5 44q0 27 -10 46.5t-32 19.5zM338 240q42 0 60.5 -28.5t18.5 -66.5q0 -26 -8 -52.5t-23.5 -48.5t-37.5 -35.5t-50 -13.5q-42 0 -61 28.5t-19 66.5q0 26 8 52.5
t23.5 48.5t38 35.5t50.5 13.5zM137 464q17 0 32.5 -3t30.5 -3q29 0 55 7t48 17.5t39 22.5t28 22l28 -16q-24 -56 -63.5 -125t-86.5 -140t-98.5 -137.5t-99.5 -115.5l-29 21q78 83 139.5 167.5t103.5 153.5q49 80 87 155q-18 -13 -40 -24q-19 -9 -46 -16.5t-60 -7.5
q-5 0 -11 0.5t-12 1.5q15 -10 24 -30.5t9 -46.5q0 -25 -7.5 -51t-22 -47t-36.5 -34.5t-51 -13.5q-42 0 -62 29.5t-20 69.5q0 24 8.5 49.5t24 46.5t38 34.5t50.5 13.5zM134 439q-18 0 -33 -12t-25 -30t-15.5 -40t-5.5 -42q0 -28 11 -48.5t34 -20.5q18 0 32 11.5t24 29.5
t15.5 39.5t5.5 42.5q0 27 -10 47.5t-33 22.5z" />
    <glyph glyph-name="ampersand" unicode="&#x26;" horiz-adv-x="466" 
d="M310 358h176l-5 -29q-9 -1 -20 -1h-50q-2 -87 -20 -158.5t-60 -116.5q35 -54 73.5 -86.5t79.5 -32.5q24 0 41 11t29 28l27 -26q-20 -22 -41.5 -31.5t-54.5 -9.5q-51 0 -98.5 32.5t-89.5 86.5q-20 -13 -44 -21t-51 -8q-89 0 -131.5 47t-42.5 124q0 60 27.5 126t80.5 118
q-4 25 -7 49t-3 47q0 46 6.5 86t21.5 69.5t39.5 46.5t60.5 17q27 0 46.5 -9.5t32.5 -25t19 -35.5t6 -41q0 -32 -12.5 -61.5t-35.5 -49.5q-8 8 -16.5 14.5t-16.5 13.5q18 19 27.5 43.5t9.5 47.5q0 31 -15.5 50.5t-45.5 19.5q-40 0 -58 -38t-18 -101q0 -50 10 -110.5
t28 -123.5t43 -124.5t54 -112.5q26 40 35 102.5t10 142.5h-25.5t-26.5 1zM201 24q48 0 78 24q-48 69 -83 155.5t-53 174.5q-29 -40 -44 -90t-15 -98q0 -33 7 -63.5t21 -53t36.5 -36t52.5 -13.5z" />
    <glyph glyph-name="quotesingle" unicode="'" horiz-adv-x="115" 
d="M60 587q5 28 9.5 53.5t6.5 45.5q3 23 5 42q11 -2 21.5 -3.5t21.5 -3.5q-7 -19 -13 -41q-5 -19 -11.5 -44t-12.5 -54z" />
    <glyph glyph-name="parenleft" unicode="(" horiz-adv-x="174" 
d="M203 779q7 -5 14 -8.5t15 -8.5q-33 -64 -62 -156.5t-51 -195.5t-35 -208t-13 -195q0 -26 1 -49t4 -45l-30 -6q-11 42 -16.5 90t-5.5 100q0 89 13.5 184t37.5 186t56.5 171.5t71.5 140.5z" />
    <glyph glyph-name="parenright" unicode=")" horiz-adv-x="194" 
d="M-1 -93q-8 5 -15 8.5t-14 8.5q21 43 41.5 98.5t38 119t32.5 133t25.5 139t16.5 136.5t6 127q0 26 -1 50t-4 46l30 6q11 -43 16.5 -91.5t5.5 -99.5q0 -89 -14 -184t-38 -185.5t-56.5 -171t-69.5 -140.5z" />
    <glyph glyph-name="asterisk" unicode="*" horiz-adv-x="184" 
d="M134 720q-5 -26 -10.5 -46.5t-8.5 -31.5q10 5 28 12t46 18l8 -32q-23 -8 -43.5 -13t-32.5 -7q10 -7 26 -19.5t38 -30.5l-22 -22q-18 14 -33 30t-23 26q-1 -13 -3.5 -33.5t-7.5 -46.5l-31 7q5 23 10.5 43.5t9.5 32.5q-23 -12 -74 -29l-9 30q20 7 41 12.5t34 8.5
q-10 6 -25 17.5t-37 31.5l21 22q19 -17 33.5 -31.5t22.5 -24.5q0 11 2.5 31t8.5 50z" />
    <glyph glyph-name="plus" unicode="+" horiz-adv-x="197" 
d="M190 273l-6 -32h-73q-3 -21 -7 -42t-7 -41q-8 1 -15.5 1.5t-15.5 2.5l13 79h-74l6 32h74q5 21 8 42t8 43q8 -2 15.5 -2.5t15.5 -1.5l-15 -81h73z" />
    <glyph glyph-name="comma" unicode="," horiz-adv-x="119" 
d="M-15 -119q-5 5 -11 9.5t-11 9.5q23 36 31.5 73.5t8.5 72.5h46q0 -45 -17 -88.5t-47 -76.5z" />
    <glyph glyph-name="hyphen" unicode="-" horiz-adv-x="219" 
d="M200 272l-6 -32h-179l6 32h179z" />
    <glyph glyph-name="period" unicode="." horiz-adv-x="155" 
d="M43 -7q-15 0 -22.5 10t-7.5 24q0 17 10.5 31.5t30.5 14.5q16 0 23 -9.5t7 -23.5q0 -17 -10.5 -32t-30.5 -15z" />
    <glyph glyph-name="slash" unicode="/" horiz-adv-x="170" 
d="M52 -6q-9 2 -17.5 5t-16.5 6q37 115 66.5 226.5t51 206.5t36 169t21.5 116l36 -6q-8 -42 -21.5 -116t-35 -169t-51 -207.5t-69.5 -230.5z" />
    <glyph glyph-name="zero" unicode="0" horiz-adv-x="314" 
d="M128 28q24 0 44 26t34.5 66.5t23 90.5t8.5 98q0 57 -12.5 88t-39.5 31q-26 0 -46.5 -27t-34.5 -69t-21.5 -92t-7.5 -95q0 -117 52 -117zM125 -7q-28 0 -47.5 13t-32 35.5t-18.5 53.5t-6 66q0 53 11.5 107t33 97.5t53 70.5t71.5 27q30 0 49.5 -13.5t31.5 -36t17 -53.5
t5 -65q0 -56 -12 -110t-33.5 -97t-52.5 -69t-70 -26z" />
    <glyph glyph-name="one" unicode="1" horiz-adv-x="208" 
d="M-10 0l5 31h66q11 78 23.5 143.5t22.5 114.5q11 57 22 104q-11 -14 -23 -30q-11 -14 -26 -31t-33 -34l-18 32q23 19 46 41t40 42q20 23 38 46l36 -12q-1 -8 -7.5 -40.5t-17 -86.5t-23.5 -127t-26 -162h67l-5 -31h-187z" />
    <glyph glyph-name="two" unicode="2" horiz-adv-x="282" 
d="M157 429q-33 0 -51.5 -26.5t-18.5 -60.5q0 -24 9 -46l-44 -21q-13 23 -13 55q0 24 8 47.5t23.5 42.5t38 31t52.5 12q53 0 78.5 -29.5t25.5 -77.5q0 -52 -22.5 -91.5t-55.5 -74.5t-71.5 -71t-70.5 -82q5 2 11.5 2.5t13.5 0.5q15 0 33.5 -2t35.5 -2q31 0 47.5 6.5
t26.5 16.5q8 -9 15.5 -18.5t15.5 -18.5q-13 -14 -28 -21t-37 -7q-34 0 -65.5 9.5t-56.5 9.5q-11 0 -23.5 -4.5t-16.5 -15.5l-35 19q4 8 9 17.5t12 19.5q34 51 71.5 90t69 74.5t51.5 70.5t20 79q0 31 -16 48.5t-42 17.5z" />
    <glyph glyph-name="three" unicode="3" horiz-adv-x="298" 
d="M137 214q9 -2 19 -3t19 -3q26 20 41 57.5t15 75.5q0 37 -15.5 63.5t-48.5 26.5q-16 0 -29 -7.5t-22.5 -20t-14.5 -28.5t-5 -34q0 -26 10 -46l-43 -17q-13 23 -13 57q0 23 7 46t22 41t37.5 29.5t53.5 11.5q29 0 50.5 -10t35 -27t20 -39t6.5 -46q0 -43 -19 -85t-54 -65
q26 -19 39 -52t13 -70q0 -33 -10 -65.5t-29.5 -58.5t-48.5 -42t-67 -16q-27 0 -46.5 9.5t-33 25t-20 35.5t-6.5 42q0 31 13.5 61t39.5 50l34 -35q-20 -15 -30.5 -38.5t-10.5 -46.5q0 -26 15.5 -47t48.5 -21q24 0 42 14t30.5 36.5t19 50.5t6.5 56q0 29 -9 55t-23 39
q-18 -6 -37 -6q-7 0 -10 1z" />
    <glyph glyph-name="four" unicode="4" horiz-adv-x="299" 
d="M266 456q-2 -13 -18.5 -92.5t-38.5 -206.5q22 1 37 6.5t26 13.5l17 -40q-24 -18 -60 -19h-11q-4 0 -7.5 -0.5t-7.5 -0.5l-14 -86h71l-5 -31h-182l5 31h62q3 23 6.5 46t7.5 46l-59 8q-3 0 -6 0.5t-6 0.5q-14 0 -28 -3.5t-22 -14.5l-38 28q48 64 68 141t22 155h47
q-1 -68 -15.5 -140t-56.5 -142q8 2 18 3t20 1q15 0 30.5 -1.5t31.5 -2.5q10 57 19.5 108t17.5 91t13.5 66.5t7.5 34.5h48z" />
    <glyph glyph-name="five" unicode="5" horiz-adv-x="298" 
d="M51 204q2 3 6 9.5t12 12.5q6 22 17 80t20 155q42 -9 84 -9q36 0 61 4.5t33 8.5l6 -52q-7 -3 -30.5 -8t-58.5 -5q-19 0 -36 2t-30 4q-3 -23 -6 -43t-6.5 -39.5t-8 -39.5t-10.5 -43q8 3 18 4.5t19 1.5q61 0 89 -41t28 -104q0 -40 -11 -79t-32 -69.5t-51 -49.5t-69 -19
q-27 0 -47 9t-33 24t-19.5 34.5t-6.5 40.5q0 32 14 64t41 53l33 -37q-21 -18 -31 -41.5t-10 -45.5q0 -11 4 -23t12 -21.5t19 -15.5t25 -6q24 0 44.5 17.5t34.5 45t22 61t8 65.5q0 52 -22 79.5t-54 27.5q-14 0 -21.5 -3.5t-13 -8t-9 -9.5t-7.5 -9z" />
    <glyph glyph-name="six" unicode="6" horiz-adv-x="305" 
d="M305 510q-78 -28 -134.5 -82t-84.5 -135q17 23 38.5 37.5t48.5 14.5q24 0 41.5 -11.5t29.5 -31t17.5 -45t5.5 -53.5q0 -36 -9.5 -73.5t-27.5 -67.5t-45 -49t-62 -19q-29 0 -49.5 13t-33.5 35.5t-18.5 51.5t-5.5 61q0 73 23 137.5t60.5 116.5t86.5 88.5t101 53.5zM157 314
q-20 0 -37 -12.5t-29.5 -34t-19.5 -50t-8 -59.5v-9q0 -18 2.5 -39t9.5 -39t19 -29.5t31 -11.5q21 0 37.5 16t28 41t17 56t5.5 61q0 45 -14 77.5t-42 32.5z" />
    <glyph glyph-name="seven" unicode="7" horiz-adv-x="270" 
d="M34 -90q5 26 15 65t24 84.5t30.5 95t36 97.5t41 91.5t43.5 77.5q-10 -2 -33 -4.5t-52 -2.5q-20 0 -39 1.5t-36 3.5q0 -6 0.5 -11.5t0.5 -10.5q0 -14 -1 -26t-2 -23q-12 0 -23.5 0.5t-22.5 1.5q2 9 3.5 23.5t2 30t1 30t0.5 23.5q24 -5 58.5 -7.5t71.5 -2.5q31 0 60.5 2.5
t54.5 8.5q1 -11 1.5 -21t2.5 -21q-35 -50 -66 -120.5t-55 -143t-39.5 -137.5t-20.5 -105h-57z" />
    <glyph glyph-name="eight" unicode="8" horiz-adv-x="300" 
d="M211 563q47 0 69 -31t22 -73q0 -23 -6 -47t-17.5 -45.5t-27.5 -38.5t-37 -27q29 -14 43 -45t14 -69q0 -33 -10.5 -67t-30.5 -62t-49.5 -45.5t-66.5 -17.5q-27 0 -47 10t-33 27.5t-19.5 40t-6.5 47.5q0 27 7.5 55.5t21.5 53.5t34.5 44.5t47.5 29.5q-23 14 -34.5 41.5
t-11.5 59.5q0 28 9 56t26 51t43 37.5t60 14.5zM166 284q-24 0 -43.5 -16t-33 -41t-21 -55t-7.5 -58q0 -37 14 -63t43 -26q22 0 40.5 16.5t31.5 42.5t20.5 56.5t7.5 59.5q0 35 -12.5 59.5t-39.5 24.5zM208 533q-20 0 -36 -13t-27 -33.5t-17 -45t-6 -47.5q0 -32 11.5 -54.5
t35.5 -22.5q18 0 33.5 14t27 35t17.5 46.5t6 49.5q0 29 -11 50t-34 21z" />
    <glyph glyph-name="nine" unicode="9" horiz-adv-x="306" 
d="M49 -57q30 16 55 41t45 55t35.5 64.5t26.5 70.5q-16 -27 -38 -44.5t-51 -17.5q-25 0 -43 11.5t-30 31t-17.5 45.5t-5.5 55q0 37 9.5 74.5t28 68t45.5 49.5t63 19q28 0 48.5 -12.5t34 -35t20 -52.5t6.5 -65q0 -53 -14 -113t-41 -115.5t-65 -101t-86 -70.5q-7 11 -13.5 21
t-12.5 21zM130 147q1 0 2 -0.5t2 -0.5q22 0 40.5 14.5t32 37.5t21 53t7.5 60q0 52 -15.5 86t-47.5 34q-22 0 -39 -17t-29 -43t-18.5 -58t-6.5 -62q0 -42 12.5 -72t38.5 -32z" />
    <glyph glyph-name="colon" unicode=":" horiz-adv-x="129" 
d="M102 348q-15 0 -22.5 10t-7.5 24q0 17 10.5 31.5t30.5 14.5q16 0 23 -9.5t7 -23.5q0 -17 -10.5 -32t-30.5 -15zM43 -7q-15 0 -22.5 10t-7.5 24q0 17 10.5 31.5t30.5 14.5q16 0 23 -9.5t7 -23.5q0 -17 -10.5 -32t-30.5 -15z" />
    <glyph glyph-name="semicolon" unicode=";" horiz-adv-x="138" 
d="M-18 -119q-5 5 -11 9.5t-11 9.5q23 36 31.5 73.5t8.5 72.5h46q0 -45 -17 -88.5t-47 -76.5zM102 348q-15 0 -22.5 10t-7.5 24q0 17 10.5 31.5t30.5 14.5q16 0 23 -9.5t7 -23.5q0 -17 -10.5 -32t-30.5 -15z" />
    <glyph glyph-name="less" unicode="&#x3c;" horiz-adv-x="255" 
d="M16 394q30 14 63 32q28 15 61 35.5t65 44.5l19 -31q-32 -22 -63 -39.5t-56 -30.5q-29 -15 -56 -26q25 -19 48.5 -39.5t41.5 -37.5q21 -20 40 -41l-30 -32q-19 23 -41 47q-19 20 -44 44t-52 47z" />
    <glyph glyph-name="equal" unicode="=" horiz-adv-x="222" 
d="M200 220l-6 -32h-180l6 32h180zM216 312l-6 -32h-180l6 32h180z" />
    <glyph glyph-name="greater" unicode="&#x3e;" horiz-adv-x="241" 
d="M226 341q-30 -14 -63 -32q-28 -15 -61 -35.5t-65 -44.5q-10 17 -19 31q31 22 62.5 39.5t56.5 30.5q29 15 56 26q-26 18 -49 39t-41 38q-21 20 -40 41l30 32q20 -23 42 -47q19 -20 43.5 -44.5t52.5 -46.5z" />
    <glyph glyph-name="question" unicode="?" horiz-adv-x="272" 
d="M107 149q7 51 24 91.5t38 75.5t43.5 66t41.5 63t31 65.5t12 73.5q0 50 -21.5 81t-66.5 31q-25 0 -45 -11.5t-33.5 -30.5t-20.5 -43t-7 -49q0 -37 13 -64t47 -41l-23 -46q-23 6 -40 19t-28.5 31.5t-17 41t-5.5 46.5q0 33 10.5 65t30.5 57.5t50.5 41t69.5 15.5
q64 0 104 -37.5t40 -108.5q0 -44 -13 -79.5t-33 -67.5t-44.5 -62.5t-47.5 -64.5t-41 -74.5t-26 -90.5zM105 -7q-15 0 -22.5 10t-7.5 24q0 17 10.5 31.5t30.5 14.5q16 0 23 -9.5t7 -23.5q0 -17 -10.5 -32t-30.5 -15z" />
    <glyph glyph-name="at" unicode="@" horiz-adv-x="563" 
d="M344 37q20 0 42.5 34t41.5 87t31.5 118.5t12.5 128.5q0 45 -8 86t-25.5 72t-46.5 49.5t-71 18.5q-45 0 -85 -22.5t-73.5 -60.5t-60 -89t-45 -108.5t-28.5 -118t-10 -118.5q0 -59 11 -111.5t34 -92t58.5 -62.5t85.5 -23q58 0 108.5 32.5t94 89t81.5 132.5t71 162
q5 0 11.5 -4.5t6.5 -6.5l-18 -47q-30 -77 -65.5 -147t-79 -123.5t-96.5 -85.5t-119 -32q-57 0 -98 25.5t-67 69t-38.5 101.5t-12.5 122q0 62 11 126.5t31 125.5t49.5 115t67 94t82 63.5t95.5 23.5q50 0 84.5 -21.5t56 -57.5t31 -83.5t9.5 -99.5q0 -70 -15 -141.5t-39 -130
t-55 -95.5t-63 -37q-44 0 -44 89q0 27 6 65q-11 -32 -24 -60.5t-28 -49.5t-32.5 -33.5t-38.5 -12.5q-32 0 -46.5 33.5t-14.5 84.5q0 35 6 74.5t16.5 78.5t25.5 75t33 63t39 43.5t43 16.5q29 0 43.5 -19.5t19.5 -51.5q4 16 7 32l6 32h46q-20 -95 -36.5 -181.5t-25.5 -157.5
q-3 -24 -3 -42q0 -37 14 -37zM275 422q-21 0 -41.5 -33t-37 -81t-26.5 -101.5t-10 -95.5q0 -32 7 -51.5t24 -19.5q16 0 34 23t35 59.5t31 83t23 93.5q3 21 3 42q0 33 -9.5 57t-32.5 24z" />
    <glyph glyph-name="A" unicode="A" horiz-adv-x="1095" 
d="M626 403q55 -2 106.5 -16.5t95.5 -42.5q33 84 63.5 167t61.5 155t63.5 129t69.5 89l45 -21q-27 -123 -49 -241.5t-37.5 -229t-24.5 -210.5t-9 -185q0 -89 10.5 -160t33 -121.5t58.5 -77.5t87 -27q57 0 91 30.5t55 83.5l52 -18q-56 -141 -186 -141q-72 0 -122 30.5t-81 86
t-44.5 134t-13.5 175.5q0 15 0.5 31t0.5 33q0 78 -27 135t-72 95q-38 -101 -84 -195t-106 -166t-137.5 -115.5t-178.5 -43.5q-93 0 -161.5 31.5t-113.5 83.5t-67 119t-22 138q0 78 26 154t76.5 136.5t125.5 97.5t173 37q50 0 90 -12.5t70 -34t50.5 -51t31.5 -62.5zM233 154
q13 56 46 100t78.5 75.5t101 49.5t114.5 22q-10 28 -27 52.5t-41 42.5t-55 28.5t-70 10.5q-83 0 -146.5 -35t-106.5 -92t-65.5 -128.5t-22.5 -144.5q0 -65 18.5 -126.5t57 -108.5t97.5 -75.5t139 -28.5q85 0 153.5 43.5t124.5 115.5t101.5 165t84.5 192q-39 26 -85 38
t-95 14q2 -12 3.5 -24t1.5 -24q0 -42 -12 -84t-35.5 -78.5t-58 -64.5t-79.5 -42l-10 24l-10 24q37 12 65 35.5t47 53.5t28.5 65t9.5 70q0 11 -1 21t-3 20q-51 -5 -99.5 -21.5t-88.5 -44.5t-68.5 -67.5t-39.5 -88.5q-13 4 -25.5 8t-26.5 8zM1068 821q-8 -9 -13.5 -19.5
t-11.5 -21.5q-24 -45 -46 -99t-43.5 -113t-43 -122t-45.5 -127q34 -27 58 -63t37 -83q13 144 41.5 308t66.5 340z" />
    <glyph glyph-name="B" unicode="B" horiz-adv-x="890" 
d="M313 237q-27 -10 -62 -10q-58 0 -101.5 21.5t-73 57.5t-44 83.5t-14.5 99.5q0 69 26 140.5t79 129t132.5 94t187.5 36.5q70 0 133 -16.5t109.5 -50t74 -84t27.5 -119.5q0 -38 -9.5 -74t-29.5 -67t-51 -55t-74 -39q54 -17 94 -46.5t66 -67t38.5 -81.5t12.5 -89
q0 -61 -22.5 -120.5t-65.5 -106.5t-106 -76t-144 -29q-80 0 -137 9t-97 18q-44 -24 -90 -24q-30 0 -58 9l9 47q16 2 30 3t28 1q17 0 32 -1t31 -3q34 22 65 69t56.5 114.5t45.5 153t34 185.5q39 280 79 399l55 -14q-10 -28 -19.5 -60.5t-18.5 -72.5t-17.5 -89t-16.5 -109
q32 -1 61 -6q39 12 69.5 34.5t52 51t33 62t11.5 67.5q0 64 -25.5 111.5t-66 78.5t-91.5 46t-102 15q-96 0 -167 -33.5t-118 -86.5t-70.5 -118t-23.5 -127q0 -45 12 -85t35.5 -70t59 -48t82.5 -18q20 0 42 5zM508 -203q64 0 114 26.5t84.5 70t52.5 98.5t18 112q0 44 -11.5 87
t-35 79t-60 63t-86.5 41q-35 -8 -81 -10q-14 -112 -34.5 -200.5t-47.5 -155.5t-58.5 -114t-65.5 -75q42 -8 92 -15t119 -7z" />
    <glyph glyph-name="C" unicode="C" horiz-adv-x="954" 
d="M342 609q-9 5 -27.5 11.5t-46.5 6.5q-43 0 -78.5 -16t-61 -44.5t-40 -67t-14.5 -83.5q0 -66 27 -114t71.5 -79.5t102 -47t117.5 -16.5q1 81 15 166.5t39 166.5t61 152.5t80.5 125.5t97.5 85.5t113 31.5q40 0 70 -14.5t49.5 -40.5t29 -61.5t9.5 -77.5q0 -52 -15 -111
t-44 -118t-72 -114.5t-99.5 -100t-126 -75.5t-150.5 -41q0 -66 8 -125t27 -104.5t51 -73.5t80 -32q-6 26 -8.5 56.5t-2.5 50.5q0 53 11 104t32 90.5t52.5 63.5t72.5 24q28 0 49 -11t35 -30.5t21 -45.5t7 -56q0 -41 -13.5 -85t-40 -82.5t-66 -67t-92.5 -38.5q17 -47 46 -80
t71 -42q-5 -11 -8.5 -22t-8.5 -22q-28 6 -51.5 20.5t-42 36t-32.5 48.5t-23 58q-60 3 -103 30.5t-70.5 75t-41.5 112.5t-15 143q-95 0 -164.5 24.5t-115.5 65.5t-68 94t-22 111q0 55 18.5 102t51.5 81t78 53.5t98 19.5q36 0 61 -7.5t39 -14.5zM798 857q-47 0 -90 -30
t-80.5 -81.5t-68.5 -120t-54 -145t-37 -158t-18 -157.5q75 11 137 41.5t112 74.5t88 97.5t63.5 109.5t38 111t12.5 103q0 69 -25.5 112t-77.5 43zM775 156q-31 0 -55 -19t-40 -51.5t-24.5 -75.5t-8.5 -91q0 -30 3.5 -60t11.5 -58q43 10 76 37.5t54.5 63.5t32.5 76.5t11 76.5
q0 42 -15 70.5t-46 30.5z" />
    <glyph glyph-name="D" unicode="D" horiz-adv-x="918" 
d="M418 -232q-37 0 -66.5 3t-54 7t-44.5 9t-38 10q-36 -21 -74.5 -24.5t-76.5 7.5l9 47q37 5 64.5 4.5t53.5 -5.5q50 30 90.5 107.5t70.5 192.5q-76 2 -132.5 31t-94 76t-56 108.5t-18.5 129.5q0 99 33 177t88.5 132.5t128.5 83t152 28.5q91 0 166.5 -32t130.5 -95.5
t85.5 -158t30.5 -218.5q0 -74 -11.5 -148.5t-35.5 -143.5t-60.5 -129t-86.5 -104t-113.5 -69.5t-140.5 -25.5zM595 526q30 -33 42.5 -73t9 -81.5t-21.5 -81.5t-48.5 -73t-73 -56.5t-93.5 -31.5q-32 -121 -74.5 -197.5t-92.5 -115.5q32 -7 73 -13t102 -6q99 0 171 50.5
t119 132t69.5 184t22.5 206.5q0 117 -25 208.5t-70.5 155t-109 96.5t-141.5 33q-77 0 -141 -30.5t-110.5 -83.5t-72.5 -125.5t-26 -156.5q0 -64 17 -120.5t49.5 -98.5t80 -66.5t108.5 -25.5q21 89 36 193q39 280 79 399l55 -14q-11 -30 -21 -65.5t-19.5 -79.5t-18.5 -99
t-17 -124q-7 -58 -16 -109t-20 -97q68 12 109.5 49t58.5 85t10 99.5t-36 90.5z" />
    <glyph glyph-name="E" unicode="E" horiz-adv-x="756" 
d="M555 371q-2 -1 -9 -1q-43 0 -75 17q-63 -15 -111 -51t-79.5 -84t-47.5 -103.5t-16 -109.5q0 -48 12.5 -92t38 -77.5t64 -53.5t89.5 -20q58 0 101.5 25.5t71.5 64.5t42 87t14 93q0 30 -6 56.5t-18 47t-29.5 32t-40.5 11.5q-24 0 -42.5 -11.5t-32 -30.5t-20.5 -43.5
t-7 -50.5q0 -23 6 -46t17 -43l-54 -27q-13 23 -19 49.5t-6 52.5q0 35 10.5 68.5t31 59.5t50.5 41.5t68 15.5q37 0 64.5 -14.5t46 -39.5t27.5 -58t9 -70q0 -51 -18 -104.5t-54 -97t-90.5 -71t-126.5 -27.5q-65 0 -113 22.5t-80.5 60t-48.5 87t-16 103.5q0 57 18 114.5
t53.5 108t89 89t124.5 56.5q-16 11 -28 27t-21 36q-19 -2 -39 -3.5t-42 -1.5q-81 0 -139 17.5t-95 46t-54 64t-17 71.5q0 30 11 58t32 49t50.5 34t65.5 13q105 0 157 -92l-22 -16l-22 -16q-17 34 -44.5 56t-68.5 22q-26 0 -46.5 -8.5t-34.5 -23.5t-21.5 -34.5t-7.5 -41.5
q0 -29 14.5 -59t45.5 -54.5t79.5 -40t116.5 -15.5q19 0 35.5 1.5t33.5 3.5q-17 51 -17 109q0 51 13 100t39 88t64 62.5t88 23.5q62 0 94.5 -37.5t32.5 -96.5q0 -38 -15 -78.5t-45.5 -77.5t-78 -67t-111.5 -46q8 -21 19.5 -37t27.5 -26q14 2 28.5 3.5t28.5 1.5q8 0 11 -1z
M573 855q-38 0 -66.5 -20.5t-47.5 -54t-28.5 -77.5t-9.5 -90q0 -53 14 -101q54 15 93 43t64 62t37 70.5t12 68.5q0 41 -18 69t-50 30z" />
    <glyph glyph-name="F" unicode="F" horiz-adv-x="1045" 
d="M629 143q-7 12 -9.5 25t-2.5 26q0 33 19 60.5t49.5 47.5t68 32t75.5 14q9 87 21 154t26 118t28.5 87.5t28.5 61.5q-25 -5 -53 -5q-55 0 -112.5 11t-119.5 23.5t-130.5 23.5t-146.5 11t-136.5 -27.5t-98 -71.5t-59 -99.5t-19.5 -110.5q0 -48 15 -93t44.5 -79.5t74 -55.5
t104.5 -21q58 0 100 18.5t68.5 50t39 72t12.5 85.5q0 25 -3 52l54 10q2 -14 3.5 -28.5t1.5 -28.5q0 -51 -15.5 -98.5t-48.5 -83.5t-85.5 -57.5t-125.5 -21.5q-74 0 -129.5 24t-92.5 63.5t-55 91t-18 106.5q0 63 23.5 125.5t70.5 112.5t116.5 81t161.5 31q81 0 153.5 -12.5
t137 -28t120 -28t102.5 -12.5q23 0 39.5 1.5t28.5 3.5q23 30 42 41t30 13l23 -29q-8 -15 -24.5 -28t-42.5 -23q-10 -16 -21 -43t-22.5 -70.5t-23 -105.5t-21.5 -148l-7 -60q29 4 50 10.5t37 16.5q8 20 15 36t12 27q6 13 12 23q9 -4 18 -8.5l17 -8.5q-2 -20 -13.5 -44.5
t-38.5 -44.5q-5 -32 -12.5 -86t-7.5 -121h-46q0 54 9 101.5t21 86.5q-15 -8 -34 -13.5t-43 -8.5q-21 -168 -59.5 -275.5t-88.5 -169t-107.5 -84.5t-115.5 -23q-56 0 -96.5 15.5t-66.5 40.5t-38.5 57t-12.5 65q0 31 10 60t28 51.5t43.5 36t56.5 14.5q1 -14 1.5 -28t0.5 -28
q-39 -1 -62.5 -33t-23.5 -77q0 -27 9.5 -52.5t29 -45.5t50.5 -32t74 -12q46 0 92 20t87.5 76.5t74.5 157t54 262.5q-31 -3 -59 -11t-49 -22t-33.5 -33.5t-12.5 -44.5q0 -18 8 -40z" />
    <glyph glyph-name="G" unicode="G" horiz-adv-x="888" 
d="M850 297q-9 -25 -19 -47.5t-22 -45.5q-2 -6 -6 -29t-10 -58t-14 -81t-18 -100q-9 -53 -23 -104t-37.5 -92t-60 -66t-91.5 -25q-34 0 -59.5 11t-42 29t-24.5 41.5t-8 47.5t8 47t23.5 41.5t38.5 30t53 12.5q2 -14 3.5 -27t3.5 -27q-40 -4 -60 -31.5t-20 -59.5
q0 -16 5.5 -31.5t16 -27.5t27 -19t38.5 -7q42 0 68.5 22.5t43 59.5t26.5 83.5t18 93.5q6 36 12.5 73.5t14.5 75.5q-26 -40 -66.5 -66.5t-99.5 -26.5q-37 0 -66.5 14t-52 39t-38.5 59.5t-25 75.5q-29 -3 -59 -3q-86 0 -148 23t-102 60t-59 84t-19 95q0 44 15.5 85.5t44.5 74
t71.5 52t96.5 19.5q47 0 87 -23l-22 -42q-17 10 -35 15.5t-41 5.5q-41 0 -73.5 -16.5t-55 -43.5t-35 -62t-12.5 -72q0 -41 16 -81.5t51 -72.5t89 -51.5t131 -19.5h27t26 2q-4 24 -6 50t-2 53q0 64 10.5 131t31.5 130.5t51.5 120t70 98.5t87.5 66.5t105 24.5q40 0 69.5 -14.5
t49 -39.5t29 -59t9.5 -74q0 -46 -13 -98t-38.5 -104t-63 -101t-87 -90.5t-111 -71.5t-133.5 -44q14 -74 48.5 -120t93.5 -46q41 0 70 15.5t49.5 41t34 57.5t24 65t19.5 64t20 54zM829 703q0 70 -26.5 108.5t-78.5 38.5q-45 0 -84.5 -24t-72 -65t-58 -95.5t-43.5 -115
t-27 -124.5t-9 -123q0 -22 1.5 -42.5t3.5 -40.5q66 14 121 43.5t99 69t76.5 86.5t54 96t32.5 97.5t11 90.5z" />
    <glyph glyph-name="H" unicode="H" horiz-adv-x="944" 
d="M1145 727q2 11 2 20.5v17.5q0 42 -20.5 64.5t-43.5 22.5q-39 0 -72 -40.5t-59.5 -113.5t-49 -173.5t-41 -220.5t-34.5 -255t-30 -276h-67q17 134 31 234.5t24 168.5q11 79 20 136q-45 -5 -84 -4.5t-90 0.5q-27 -131 -61.5 -233t-85 -171.5t-119.5 -104.5t-165 -31
q-58 3 -107 24t-84.5 57.5t-55.5 85.5t-20 108q0 57 19.5 113.5t56 101.5t88 73.5t115.5 28.5q39 0 72 -13t56.5 -36.5t37 -57t13.5 -74.5q0 -15 -4 -34.5t-10.5 -39.5t-16 -38.5t-20.5 -31.5l-46 33q12 15 21.5 32.5t16.5 35.5t11 35t4 31q0 25 -8 48.5t-23.5 41.5
t-39.5 28.5t-56 10.5q-57 0 -101 -23.5t-73.5 -63t-44.5 -90.5t-15 -106q0 -54 15.5 -99.5t45 -79t72.5 -53t98 -20.5q75 -2 132 34t99 103.5t71.5 162t51.5 210.5q-30 -2 -50 -9t-41 -18l-19 41q25 12 56 18.5t62 7.5q10 53 18.5 101.5t18.5 97t21.5 99t27.5 107.5
q-41 -22 -91.5 -36t-94.5 -31t-74 -42.5t-30 -69.5q0 -46 31 -65.5t83 -19.5l-7 -51q-75 4 -113 36t-38 88q0 39 20 66.5t51.5 47t70.5 33.5t77.5 26.5t72 25.5t54.5 31l28 92l50 -11q-1 -20 -9 -43.5t-22 -45.5q-16 -57 -27.5 -111.5t-21.5 -108t-18.5 -107t-18.5 -109.5
q33 -1 56 -3.5t42 -4.5t36 -2t37 5q27 153 58 257.5t66 169t75 92.5t84 28q51 0 81 -33.5t30 -98.5v-12.5t-1 -13.5z" />
    <glyph glyph-name="I" unicode="I" horiz-adv-x="541" 
d="M582 876q-2 -24 -9 -45t-18 -38l-12 -50q-26 -114 -44 -228.5t-34 -233.5t-32 -245t-37 -263h-68q21 143 40 267.5t38 240t40 226.5t48 227q-38 -33 -85.5 -63.5t-97 -61.5t-97 -64t-84.5 -70.5t-59.5 -80.5t-22.5 -94q0 -37 11 -65.5t30 -48.5t44.5 -30.5t54.5 -10.5
q26 0 46 9.5t34 24.5t21 34.5t7 39.5q0 28 -14.5 53t-45.5 37q7 11 12.5 21.5t12.5 21.5q47 -19 69 -55.5t22 -78.5q0 -29 -10.5 -57.5t-31.5 -50.5t-51.5 -35.5t-70.5 -13.5q-42 0 -78 14t-62 40t-41 62t-15 80q0 62 27.5 113t72 94t100.5 79.5t112.5 70t109 64.5t89.5 63
q5 26 12 53.5t15 53.5z" />
    <glyph glyph-name="J" unicode="J" horiz-adv-x="527" 
d="M163 -324q47 0 81 36t58.5 92.5t40 126t26 136.5t16.5 123.5t11 88.5q18 125 40.5 231t45.5 187q-42 -46 -90.5 -88t-95.5 -82.5t-90.5 -80.5t-76.5 -82t-52.5 -86.5t-19.5 -94.5q0 -36 10.5 -64.5t28.5 -49t42.5 -31t52.5 -10.5q25 0 45 9.5t33.5 25t20.5 34.5t7 39
q0 27 -13.5 49.5t-42.5 32.5l19 40q39 -11 59 -44.5t20 -72.5q0 -27 -9 -53t-27.5 -46.5t-46 -33.5t-64.5 -13q-40 0 -76 13t-63.5 38t-43.5 62.5t-16 86.5q0 69 33 128t83.5 110.5t109.5 95.5t110 83q49 37 91 73.5t73 69.5q18 52 35.5 84.5t27.5 46.5l37 -21
q-9 -29 -24 -60t-32 -61q-9 -42 -19.5 -96.5t-21.5 -117t-21.5 -131.5t-20.5 -141q-9 -60 -20 -129t-26 -137t-36.5 -130.5t-50.5 -110.5t-68 -76.5t-90 -28.5q-52 0 -82 30.5t-30 80.5q0 27 9.5 52t27.5 43.5t42.5 30t54.5 11.5l2 -51q-42 -3 -68 -30t-26 -64
q0 -36 19.5 -54.5t50.5 -18.5z" />
    <glyph glyph-name="K" unicode="K" horiz-adv-x="914" 
d="M252 -204q79 0 136 36.5t97.5 99.5t67.5 146.5t47 177.5h-13.5t-13.5 1l9 50q13 -2 27 -6q20 107 39.5 221.5t48.5 227.5q-28 -16 -60 -26t-64 -19.5t-61 -19.5t-51.5 -24.5t-36 -35.5t-13.5 -53q0 -42 29.5 -62t75.5 -20l-7 -54q-72 2 -111 37.5t-39 90.5q0 41 18 69
t47.5 48t67 33.5t76.5 25t75.5 23.5t64.5 28q13 44 30 91l58 -12q-5 -29 -17 -50t-30 -38q-17 -62 -28.5 -123.5t-21.5 -122.5t-19 -121.5t-20 -120.5q42 15 74 49.5t58 80t47.5 99t42.5 107t42.5 103.5t47.5 88t58.5 61t74.5 23q38 0 63 -24.5t21 -64.5h-46v5
q0 22 -11.5 37t-32.5 15q-30 0 -53 -23t-42.5 -60.5t-38 -87t-38 -102.5t-43.5 -106t-54.5 -98t-69.5 -79t-91 -49q40 -32 68.5 -85.5t52 -115.5t45 -125.5t47 -115t58.5 -84t80 -32.5q26 0 45 8t32 21.5t21 31.5t12 38q13 -3 25 -7t25 -7q-15 -51 -50 -84.5t-102 -33.5
q-50 0 -88.5 19t-67.5 51.5t-51 75.5t-39.5 90.5t-32 97t-29.5 94.5t-31.5 83t-37.5 63q-20 -97 -47.5 -185t-73 -154.5t-114 -106t-170.5 -39.5q-73 0 -126 24t-87 63t-50 89.5t-16 103.5q0 58 18.5 115t54 102t88 73t121.5 28q43 0 76.5 -15.5t56.5 -42t35 -61t12 -72.5
q0 -35 -11 -71.5t-34 -69.5l-47 28q21 32 31 64t10 61q0 30 -9.5 56.5t-27 46t-42 31t-54.5 11.5q-53 0 -94.5 -25.5t-71 -66t-45 -92.5t-15.5 -104q0 -47 13.5 -91.5t42 -79t72.5 -55t105 -20.5z" />
    <glyph glyph-name="L" unicode="L" horiz-adv-x="809" 
d="M335 161q39 0 75 5.5t68 16.5q8 38 14 81t11 92q12 112 27 195t32.5 142t38 97t43.5 59.5t48.5 29.5t53.5 8q32 0 56 -14.5t40.5 -40.5t24.5 -61.5t8 -77.5q0 -67 -21 -144.5t-64 -150t-107 -133.5t-151 -96q-18 -88 -42 -151t-53 -108q43 -15 82 -33t76.5 -33.5
t76.5 -25.5t82 -10q31 0 52 9t34.5 23t20 29.5t9.5 29.5q13 -3 25.5 -6t25.5 -7q-6 -24 -18.5 -46t-33 -38.5t-49 -26t-65.5 -9.5q-47 0 -90 11t-84.5 27.5t-82.5 36t-83 36.5q-50 -64 -107 -87.5t-117 -23.5q-47 0 -77.5 21.5t-30.5 63.5q0 18 8.5 35.5t26 32t43.5 23
t62 8.5q48 0 89.5 -6.5t78.5 -17.5q24 39 44 93.5t36 129.5q-32 -8 -65.5 -13t-70.5 -5q-94 0 -161 24.5t-110.5 64t-64 89.5t-20.5 102q0 49 17 95t49.5 82t78.5 58t105 22q31 0 55.5 -6t48.5 -20q-6 -13 -12.5 -25t-12.5 -24q-17 11 -36.5 15.5t-42.5 4.5
q-48 0 -85.5 -17.5t-63.5 -46.5t-39.5 -66.5t-13.5 -77.5q0 -44 17.5 -87.5t55 -78.5t96 -56.5t139.5 -21.5zM745 857q-26 0 -51.5 -18t-49.5 -71.5t-45 -152t-38 -259.5q-5 -40 -10 -75.5t-11 -68.5q73 37 126.5 97t88.5 128.5t51.5 139t16.5 129.5q0 66 -20 108.5
t-58 42.5zM199 -205q48 0 92 22t83 78q-35 12 -71.5 19t-75.5 7q-24 0 -42.5 -6.5t-31 -17t-19 -23t-6.5 -25.5q0 -21 18 -37.5t53 -16.5z" />
    <glyph glyph-name="M" unicode="M" horiz-adv-x="1143" 
d="M279 -199q78 0 147 50.5t126 133t100.5 188t70.5 216.5q-10 76 -16.5 150.5t-6.5 149.5q0 22 2 42t7.5 35.5t14 24.5t20.5 9q28 0 36.5 -30t8.5 -84q0 -67 -5.5 -131.5t-16.5 -127.5q14 -99 26.5 -206.5t18.5 -208.5q30 81 68.5 169.5t77.5 177.5q12 199 57 420
q3 16 9 34t15 33.5t21.5 25.5t30.5 10q25 0 36 -19t11 -53q0 -33 -10.5 -76.5t-28 -95t-41 -109.5t-50.5 -120q-11 -158 -4.5 -300t30 -250t65.5 -171.5t102 -63.5q52 0 82 25t54 80l53 -18q-28 -70 -73 -103t-110 -33t-114.5 53t-82 147.5t-47 225.5t-8.5 287
q-38 -88 -75 -172.5t-65 -161.5q2 -48 0.5 -91.5t-6.5 -80.5l-52 2q0 46 17 111q-2 104 -13.5 202t-24.5 193q-32 -113 -79.5 -208t-107.5 -163.5t-131 -107t-148 -38.5q-58 0 -107 21t-84.5 58t-55.5 87t-20 109q0 57 19.5 113.5t56 101.5t88 73.5t115.5 28.5q39 0 72 -13
t56.5 -36.5t37 -57t13.5 -74.5q0 -15 -4 -34.5t-10.5 -39.5t-16 -38.5t-20.5 -31.5l-46 33q12 15 21.5 32.5t16.5 35.5t11 35t4 31q0 25 -8 48.5t-23.5 41.5t-39.5 28.5t-56 10.5q-57 0 -101 -23.5t-73.5 -63t-44.5 -90.5t-15 -106q0 -54 14.5 -100t42.5 -79.5t69.5 -53
t96.5 -19.5zM1113 811q0 22 -4.5 33t-16.5 11q-13 0 -21 -18.5t-15 -54.5q-14 -73 -24 -146.5t-17 -146.5q42 100 70 183.5t28 138.5zM766 709q0 39 -5 54t-13 15q-9 0 -12 -18t-2 -50.5t6 -77t12 -97.5q7 46 10.5 89.5t3.5 84.5z" />
    <glyph glyph-name="N" unicode="N" horiz-adv-x="967" 
d="M1230 847q-76 0 -140 -63.5t-114.5 -175t-86.5 -263t-55 -326.5q17 -68 20 -128t-4 -109l-51 2q0 41 1 81t3 80q-20 89 -59 181.5t-80 184.5q-13 -66 -32 -131.5t-45 -125.5t-59 -111.5t-72.5 -89t-86 -59t-99.5 -21.5q-58 0 -107 21t-84.5 58t-55.5 87t-20 109
q0 57 19.5 113.5t56 101.5t88 73.5t115.5 28.5q39 0 72 -13t56.5 -36.5t37 -57t13.5 -74.5q0 -15 -4 -34.5t-10.5 -39.5t-16 -38.5t-20.5 -31.5l-46 33q12 15 21.5 32.5t16.5 35.5t11 35t4 31q0 25 -8 48.5t-23.5 41.5t-39.5 28.5t-56 10.5q-57 0 -101 -23.5t-73.5 -63
t-44.5 -90.5t-15 -106q0 -54 14.5 -100t42.5 -79.5t69.5 -53t96.5 -19.5q50 0 93 24t79 65.5t65.5 97t52.5 119.5t39.5 133t27.5 136q-36 85 -61.5 166t-25.5 154q0 44 12.5 74t42.5 30q27 0 45.5 -30.5t28.5 -82.5t10.5 -121.5t-8.5 -146.5q32 -75 66 -156t63 -160l7 -20
q12 108 33 210.5t50 193t66 165.5t80.5 129.5t93 84.5t105.5 30q48 0 81.5 -16t57.5 -47l-40 -40q-17 27 -47 40.5t-66 13.5zM584 717q1 -38 19 -95.5t47 -128.5q5 60 4.5 111.5t-5.5 89.5t-15.5 60t-25.5 22t-19.5 -16.5t-4.5 -42.5z" />
    <glyph glyph-name="O" unicode="O" horiz-adv-x="1124" 
d="M930 849q58 -35 92.5 -99.5t48 -147t6.5 -176.5t-31 -186.5t-64 -178t-93 -150.5t-118 -104t-139 -39q-64 0 -110.5 28.5t-78 78t-48.5 116t-20 141.5h-6q-89 0 -154.5 23t-109 61.5t-66 87t-26 99t12 99t48.5 87t82.5 61.5t113.5 23q29 0 48 -5t42 -19l-31 -53
q-17 11 -37 16.5t-43 5.5q-68 0 -114.5 -34t-68 -85.5t-16 -111t41.5 -111t105 -85.5t175 -34h3q-1 80 12 165.5t38 166.5t61.5 153t83 126t102 85.5t118.5 31.5q54 0 87.5 -30t47.5 -79.5t8.5 -113.5t-29.5 -132t-66 -134.5t-101.5 -121t-136.5 -92t-171 -47.5
q0 -71 11.5 -133t36.5 -108.5t63.5 -73.5t92.5 -27q67 0 124.5 39.5t103.5 104.5t80 150t55 176t27.5 182t-2.5 168t-34.5 134t-68.5 80zM790 860q-50 0 -95.5 -30.5t-85 -82.5t-72 -121t-56 -147t-37 -160t-15.5 -159q88 9 159 44t126 86t93.5 113t61 125.5t29 123
t-3.5 106t-36 74.5t-68 28z" />
    <glyph glyph-name="P" unicode="P" horiz-adv-x="824" 
d="M360 261q-20 -11 -44 -17t-53 -6q-56 0 -102.5 19t-79.5 54.5t-51.5 86t-18.5 113.5q0 68 25.5 135.5t78 121.5t131.5 87.5t186 33.5q99 0 170.5 -29.5t118 -77.5t69 -110t22.5 -127t-21.5 -128.5t-62 -114.5t-99 -84t-133.5 -39q-17 -104 -40 -181t-55.5 -128.5t-76 -77
t-100.5 -25.5q-39 0 -71.5 11.5t-56 33t-37 53t-13.5 71.5q0 28 10.5 56.5t29 51t43.5 37t55 15.5v-51q-20 -2 -37 -12t-29.5 -26t-19.5 -36.5t-7 -42.5q0 -28 9.5 -52t26.5 -41.5t42 -27.5t55 -10q54 0 92.5 36.5t66 108t46.5 177.5t34 246q14 127 36 224t55 163
q14 -5 29 -10t29 -10q-27 -51 -49 -131t-37 -199q-6 -50 -12 -98t-13 -94q60 8 107.5 39.5t80 78t50 103t17.5 114.5q0 59 -19 115.5t-59.5 100.5t-102.5 71t-149 27q-92 0 -160.5 -30.5t-113.5 -79t-67.5 -109t-22.5 -121.5q0 -56 14.5 -98.5t40 -71.5t61 -44t78.5 -15
q26 0 44.5 4.5t37.5 15.5z" />
    <glyph glyph-name="Q" unicode="Q" horiz-adv-x="720" 
d="M158 -176q37 0 53.5 -2.5t27.5 -4.5q60 33 114 83t99.5 112t81.5 132t61 142.5t38.5 144t13.5 136.5q0 61 -13 114t-40 91.5t-69 60.5t-100 22q-59 0 -108 -21.5t-89 -58.5t-70 -86t-50.5 -104.5t-30.5 -114t-10 -113.5q0 -56 10.5 -105.5t31.5 -87t53 -59t75 -21.5
t77 21t57.5 55.5t35.5 77.5t12 87q0 57 -21.5 108t-66.5 78l45 49q50 -33 73.5 -89.5t23.5 -120.5q0 -54 -16 -107t-46 -95t-74 -68t-99 -26q-59 0 -102.5 25.5t-72.5 69t-43.5 101.5t-14.5 122q0 58 12 119t35.5 118t59 107.5t82 88t104.5 59t127 21.5q75 0 129 -25.5
t89 -69.5t51.5 -104t16.5 -130q0 -98 -30 -206.5t-85.5 -211t-133.5 -189.5t-174 -141q67 -15 134 -36.5t132.5 -41t129.5 -33t124 -13.5q41 0 69 10.5t45.5 28.5t25.5 41t10 48l70 -7q0 -36 -12 -67t-37.5 -53.5t-65 -35.5t-95.5 -13q-59 0 -132.5 19t-150 44.5t-151 50.5
t-136.5 36q-1 0 -1 -0.5t-1 -0.5q-21 -12 -46 -20t-51 -3z" />
    <glyph glyph-name="R" unicode="R" horiz-adv-x="800" 
d="M62 519q0 -56 14.5 -98.5t40 -71.5t61 -44t78.5 -15q26 0 44.5 4.5t37.5 15.5l22 -49q-20 -11 -44 -17t-53 -6q-56 0 -102.5 19t-79.5 54.5t-51.5 86t-18.5 113.5q0 68 25.5 135.5t78 121.5t131.5 87.5t186 33.5q99 0 170 -29t117.5 -77t68.5 -109.5t22 -125.5
q0 -62 -19.5 -122.5t-57 -111t-91 -85t-121.5 -44.5q26 -19 47.5 -53t40 -76t36 -89t35 -93t37 -88.5t43 -75t52.5 -51.5t66 -19q26 0 44.5 8t31.5 21.5t21 31.5t13 38q12 -3 24.5 -7t24.5 -7q-8 -25 -19.5 -46.5t-28.5 -37t-41 -24.5t-55 -9q-67 0 -115 32.5t-83 83.5
t-61 113.5t-48 124t-44 114.5t-49 84q-17 -100 -40.5 -174t-56 -122.5t-75 -72.5t-97.5 -24q-44 0 -77 13.5t-55.5 36.5t-34 53.5t-11.5 65.5q0 30 10 58.5t28 51t43 36t56 15.5q0 -13 0.5 -26t0.5 -26q-20 -1 -37 -11.5t-29.5 -26.5t-19.5 -36.5t-7 -42.5q0 -28 9.5 -52
t26.5 -41.5t42 -27.5t55 -10q81 0 133 91.5t82 275.5h-8t-8 1l6 54q5 0 9 -1.5t7 -1.5l18 149q14 127 36 224t55 163q14 -5 29 -10t29 -10q-26 -51 -49 -131t-37 -199q-6 -49 -12 -96.5t-13 -92.5q58 7 105 39t80 79t50.5 104.5t17.5 116.5q0 58 -19 113.5t-58.5 98.5
t-101.5 69t-149 26q-93 0 -161.5 -30.5t-113.5 -79t-67 -109t-22 -121.5z" />
    <glyph glyph-name="S" unicode="S" horiz-adv-x="1015" 
d="M26 174q38 -30 83.5 -46.5t105.5 -21.5q-1 5 -1 10v20q0 75 21.5 149t63 132t102.5 94t141 36q51 0 89.5 -19t65 -52t41.5 -76.5t18 -91.5q71 60 127 127q-1 12 -1 24.5v24.5q0 195 32.5 297.5t101.5 102.5q37 0 53 -25t16 -60q0 -69 -37.5 -158.5t-106.5 -182.5
q0 -27 1 -54t1 -53q0 -114 -25.5 -219.5t-76.5 -186.5t-128.5 -129t-181.5 -48q-65 0 -113 17.5t-82.5 45t-56.5 61.5t-35 67.5t-18.5 63t-7.5 47.5q-57 0 -116 16.5t-105 44.5zM619 -40l-16 24t-16 23q55 40 86.5 103.5t39.5 132.5q-94 -71 -204.5 -117.5t-233.5 -55.5
q7 -56 27.5 -104.5t54 -84.5t81 -57t109.5 -21q81 0 144 42t105.5 114.5t65 169.5t22.5 207v60q-29 -32 -61 -64t-67 -61q-2 -45 -11.5 -90.5t-26.5 -87t-41.5 -76t-57.5 -57.5zM718 283q-3 48 -13.5 90.5t-32 74.5t-55.5 50.5t-82 18.5q-64 0 -113.5 -33.5t-83 -87
t-51 -121t-17.5 -135.5q0 -8 0.5 -15.5t1.5 -15.5q127 7 239.5 54.5t206.5 119.5zM1054 799q0 21 -7.5 35t-24.5 16q-24 0 -40 -21.5t-25.5 -62t-13 -98.5t-3.5 -130v-36q54 81 84 158.5t30 138.5z" />
    <glyph glyph-name="T" unicode="T" horiz-adv-x="969" 
d="M1049 826q-19 -31 -67 -48q-10 -18 -22 -49.5t-24.5 -81t-24.5 -121t-22 -170.5q-19 -181 -58 -296t-90 -180.5t-110 -90t-119 -24.5q-56 0 -96 15.5t-66 40.5t-38.5 57t-12.5 65q0 31 10 60.5t28 52t43.5 36.5t55.5 14l3 -55q-19 0 -35 -9t-28 -24.5t-18.5 -36
t-6.5 -42.5q0 -27 9.5 -52.5t29.5 -45.5t51 -32t74 -12q32 0 64 9t62.5 31.5t59 62.5t52.5 102t43.5 149t32.5 205q9 84 21.5 149t26 115.5t28 86.5t28.5 62q-12 -2 -25.5 -3.5t-28.5 -1.5q-55 0 -112.5 11t-119.5 23.5t-130.5 23.5t-146.5 11t-136.5 -27.5t-97.5 -71.5
t-58.5 -99.5t-19.5 -110.5q0 -48 14.5 -93t44 -79.5t74 -55.5t104.5 -21t101 19.5t66.5 51.5t37 73t11.5 85q0 24 -3 50l57 9q3 -27 3 -52q0 -51 -15 -99t-47.5 -85t-84 -59.5t-125.5 -22.5t-129.5 24t-92 63.5t-54.5 91t-18 106.5q0 63 23.5 125.5t70.5 112.5t116 81
t161 31q81 0 153.5 -12.5t137 -28t120 -28t102.5 -12.5q23 0 40 1.5t29 3.5q21 29 39.5 40t30.5 14z" />
    <glyph glyph-name="U" unicode="U" horiz-adv-x="1048" 
d="M1137 -35q-14 -106 -54 -152t-98 -46q-66 0 -96 48.5t-30 161.5q0 45 6 98q-18 -56 -41.5 -110.5t-51 -98.5t-58.5 -71t-64 -27q-57 0 -84.5 39.5t-27.5 112.5q0 42 9.5 94.5t23.5 111t31 119.5t31 119t23.5 110.5t9.5 93.5q0 61 -18 112.5t-51.5 89t-80.5 59t-105 21.5
q-77 0 -138 -28t-104 -75.5t-66 -109.5t-23 -129q0 -55 14 -101.5t42 -80.5t71 -53t100 -19q60 0 100.5 25.5t66 64.5t37.5 85.5t17 88.5l56 -9q-8 -48 -26 -99.5t-50.5 -94t-81 -69.5t-117.5 -27q-67 0 -120 22.5t-89.5 61.5t-56 92t-19.5 115q0 75 27.5 143t78.5 119
t123.5 81t161.5 30q67 0 123.5 -22.5t96.5 -64t62.5 -99.5t22.5 -129q0 -70 -19.5 -155t-42.5 -173t-42.5 -171t-19.5 -149q0 -21 3 -40.5t10.5 -34.5t20.5 -23.5t32 -8.5q25 0 49 21t46 56t42 79t36.5 90.5t28.5 91t20 79.5q13 84 30.5 174t37 176.5t40 165t39.5 140.5
l57 -11q-11 -41 -22.5 -80.5t-23 -75.5t-20.5 -68.5t-14 -58.5q-9 -34 -19 -82.5t-21 -105t-21 -118t-18 -120t-13 -112t-5 -94.5q0 -75 19.5 -116t57.5 -41t64 41t34 124z" />
    <glyph glyph-name="V" unicode="V" horiz-adv-x="1002" 
d="M754 -165q31 155 71.5 293.5t88 256.5t102 212.5t113 161t120.5 102t125 35.5q52 0 86.5 -17.5t52.5 -45.5q-10 -10 -20 -19.5t-20 -20.5q-14 28 -42 41t-69 13q-57 0 -114.5 -36t-112.5 -103t-107.5 -163t-100 -217t-89.5 -264t-76 -304q-16 2 -31.5 4t-31.5 4
q2 64 5.5 142t3.5 162q0 137 -14.5 261.5t-52 218.5t-103.5 149.5t-168 55.5q-75 0 -133.5 -27.5t-98 -73.5t-60.5 -106.5t-21 -126.5q0 -58 17 -106t48 -83t74 -54.5t96 -19.5q61 0 102 28.5t65.5 70t35.5 87t13 79.5l56 -9q-4 -50 -20 -101.5t-47.5 -93.5t-81 -69
t-121.5 -27q-69 0 -123 23t-91.5 63.5t-57.5 95.5t-20 118q0 75 25 141t73 116t117.5 79t157.5 29q114 0 190 -55t121 -148.5t63.5 -216.5t18.5 -259q0 -70 -4 -139.5t-10 -136.5z" />
    <glyph glyph-name="W" unicode="W" horiz-adv-x="1285" 
d="M1076 793q-12 -93 -22 -187t-16.5 -183t-10.5 -171t-4 -151q0 -56 1.5 -103t4.5 -82.5t7.5 -58.5t10.5 -30q46 232 95.5 428t109 338.5t133.5 222.5t169 80q48 0 81.5 -16t57.5 -47l-40 -40q-17 27 -47 40.5t-66 13.5q-86 0 -153 -79t-123 -222.5t-106 -343.5t-101 -441
l-59 6q-18 34 -25.5 102t-7.5 156q0 61 3 126.5t7.5 131t10 128.5t11.5 118t11.5 99.5t9.5 73.5q-24 -56 -49.5 -135.5t-50.5 -170t-48 -184.5t-43 -179.5t-35.5 -156t-24.5 -112.5l-47 9q-10 24 -15.5 58t-8.5 75.5t-3.5 88t-0.5 95.5v149q-2 76 -7 147t-22 128
q-16 54 -42 99t-61.5 77t-81 49.5t-101.5 17.5q-71 0 -127 -25.5t-96 -67.5t-63.5 -96t-30 -109.5t4 -109.5t39 -96t75 -67.5t111.5 -25.5q60 0 100.5 20.5t66.5 56t39 84t19 104.5l59 -4q-10 -64 -30.5 -117.5t-54.5 -92.5t-82.5 -60.5t-113.5 -21.5q-76 0 -131 28.5
t-89.5 75t-49 106t-8.5 121t32 121t72 106t111.5 75t151.5 28.5q63 0 115.5 -18t94.5 -51t73 -79.5t50 -104.5q12 -36 19.5 -81.5t11 -95t5 -102t1.5 -103.5v-44q0 -21 -0.5 -41.5t-0.5 -39.5q0 -34 0.5 -64.5t1.5 -55t3 -42t6 -24.5q8 39 22.5 109t35 157t45 184
t51.5 190.5t56 177t58 142.5z" />
    <glyph glyph-name="X" unicode="X" horiz-adv-x="966" 
d="M488 850q-35 0 -60.5 -11t-42.5 -28.5t-25 -40t-8 -46.5t8.5 -47.5t24.5 -42.5t40 -30.5t55 -12.5q-4 -16 -6.5 -31.5t-6.5 -31.5q-41 0 -73 15t-53.5 40t-32.5 56.5t-11 64.5q0 39 16 72.5t43 57.5t63.5 37.5t77.5 13.5q66 0 112.5 -40.5t78.5 -108t53.5 -154.5
t37.5 -179q33 96 70.5 184.5t84 157t104 109.5t130.5 41q29 0 54 -8t44 -20.5t32 -29t19 -33.5q-12 -6 -23.5 -12.5t-22.5 -12.5q-13 37 -44 53.5t-73 16.5q-67 0 -119 -41.5t-95 -110.5t-79.5 -158t-72.5 -184l9 -65q10 -73 21.5 -145t26.5 -136t35.5 -119t49.5 -95
t67.5 -62.5t90.5 -22.5q53 0 82 26t43 73l56 -18q-26 -63 -71.5 -90t-111.5 -27q-64 0 -111.5 23t-82.5 63t-58.5 95t-40.5 119t-28.5 134t-21.5 142q-36 -89 -77.5 -175t-95.5 -153t-122.5 -108t-156.5 -41q-69 0 -120 25.5t-84.5 67t-50 95t-16.5 110.5q0 63 19 125.5
t57.5 113t95.5 81.5t134 31q46 0 82 -17t61 -46t37.5 -67t12.5 -80q0 -45 -16 -89.5t-48 -82.5l-49 29q32 38 46.5 79.5t14.5 80.5q0 31 -10.5 59.5t-29 51t-45.5 36t-60 13.5q-59 0 -105.5 -28t-78.5 -73.5t-48.5 -102.5t-16.5 -115q0 -50 13 -96t40.5 -82t69 -57.5
t98.5 -21.5q85 0 151 41t118 109.5t93.5 156.5t77.5 181l-3 22q-17 117 -36.5 214t-46.5 166.5t-65.5 108t-94.5 38.5z" />
    <glyph glyph-name="Y" unicode="Y" horiz-adv-x="1016" 
d="M381 850q-71 0 -127 -25.5t-96 -67.5t-63.5 -96t-30 -109.5t4 -109.5t39 -96t75 -67.5t111.5 -25.5q60 0 100.5 20.5t66.5 56t39 84t19 104.5l59 -4q-10 -64 -30.5 -117.5t-54.5 -92.5t-82.5 -60.5t-113.5 -21.5q-76 0 -131 28.5t-89.5 75t-49 106t-8.5 121t32 121
t72 106t111.5 75t151.5 28.5q67 0 123 -22.5t96.5 -64t62.5 -99.5t22 -129q0 -58 -9 -112t-20 -106t-20 -103t-9 -103q0 -21 3 -40.5t10.5 -34.5t20.5 -23.5t32 -8.5q33 0 63 33.5t55.5 85.5t45 114.5t32.5 121.5q14 88 28.5 166.5t29 142.5t29 111t29.5 72q13 -4 26 -7
l26 -6q-7 -37 -17 -72.5t-20.5 -68t-19.5 -59.5t-14 -46q-17 -81 -32 -177.5t-31 -203.5q-9 -60 -20 -127.5t-27 -133.5t-38 -126.5t-51.5 -106.5t-68.5 -73.5t-89 -27.5q-52 0 -82 30.5t-30 80.5q0 27 10 51.5t28 43t42.5 29.5t53.5 12l2 -50q-42 -3 -68 -30t-26 -64
q0 -36 19.5 -54.5t50.5 -18.5q38 0 68 27.5t52.5 72.5t39.5 102t30 117t23 117.5t19 102.5q-17 -44 -37 -84.5t-42.5 -72t-48 -50t-52.5 -18.5q-57 0 -84.5 39t-27.5 112q0 53 10 105t21.5 104t21.5 105t10 110q0 61 -18.5 112.5t-52 89t-80.5 59t-105 21.5z" />
    <glyph glyph-name="Z" unicode="Z" horiz-adv-x="616" 
d="M366 855q-69 0 -121 -32.5t-87 -83t-53 -112t-18 -120.5q0 -42 9 -79.5t26.5 -65t44 -43.5t61.5 -16q31 0 55.5 14t40.5 37.5t24.5 52.5t8.5 59q0 39 -18.5 74t-56.5 52l36 52q43 -20 64.5 -66.5t21.5 -100.5q0 -37 -11 -73.5t-32.5 -65.5t-54.5 -47t-78 -18
q-49 0 -86 20t-61.5 54t-37 79t-12.5 95q0 63 21 128t63 117.5t104.5 85.5t146.5 33q70 0 123.5 -23t89 -62.5t53.5 -92t18 -112.5q0 -62 -20 -128.5t-59.5 -129.5t-100 -119.5t-141.5 -99.5q33 -13 57 -34t39.5 -47t22.5 -56.5t7 -61.5q0 -49 -16 -97t-44 -86.5
t-66.5 -62.5t-83.5 -24q-30 0 -52 10.5t-37 28t-22.5 40.5t-7.5 49q0 25 7 52t21.5 52t35.5 46.5t49 37.5l29 -49q-53 -32 -76.5 -73t-23.5 -79q0 -36 20.5 -60.5t56.5 -24.5q35 0 64 21.5t49.5 55.5t32 77t11.5 87q0 30 -6 59t-19 53t-33 42t-48 27q-22 -8 -40.5 -16
t-41.5 -8q-10 0 -15 1l11 63h4q40 0 75 -9q76 38 132.5 92.5t94 116t56 127t18.5 126.5q0 54 -14.5 101.5t-42.5 83t-70 56t-97 20.5z" />
    <glyph glyph-name="bracketleft" unicode="[" horiz-adv-x="183" 
d="M139 777q37 -9 79 -9q23 0 44.5 3t40.5 11l8 -38q-13 -8 -31 -11t-38 -3q-22 0 -42.5 2.5t-34.5 5.5q-6 -45 -15 -103.5t-19 -119.5t-20 -119.5t-18 -103.5q-9 -50 -18.5 -104.5t-18 -103t-15.5 -86.5t-10 -53q12 2 27.5 4t32.5 2q42 0 77 -13l-6 -20t-7 -20
q-17 7 -37.5 10t-42.5 3t-43.5 -2.5t-41.5 -6.5q13 59 28.5 143.5t31.5 177.5t31 186.5t27.5 171t20.5 131t10 65.5z" />
    <glyph glyph-name="backslash" unicode="\" horiz-adv-x="145" 
d="M77 -15q-8 62 -13.5 137t-9.5 152.5t-6.5 152t-4 136t-1.5 103.5t1 54h34q-2 -178 7 -360t25 -372z" />
    <glyph glyph-name="bracketright" unicode="]" horiz-adv-x="181" 
d="M20 -98q-18 5 -38 7.5t-40 2.5q-46 0 -86 -14l-8 37q13 8 31 11.5t38 3.5q22 0 43 -2.5t35 -6.5q5 45 14 103.5t19 119.5t20 119.5t18 103.5q9 49 18.5 104t18 104t15.5 86.5t10 53.5q-12 -3 -27.5 -5t-32.5 -2q-42 0 -77 13q4 11 7 20.5t6 20.5q17 -8 37.5 -11t42.5 -3
t43.5 2.5t41.5 7.5q-13 -59 -28.5 -144t-31.5 -178t-31.5 -187t-27.5 -171.5t-20.5 -130.5t-9.5 -65z" />
    <glyph glyph-name="asciicircum" unicode="^" horiz-adv-x="213" 
d="M144 600q27 -44 42.5 -76t18.5 -40q-9 -5 -18.5 -8.5t-19.5 -8.5q-2 6 -12 32.5t-33 67.5q-9 -11 -20.5 -24t-23.5 -26t-23.5 -24.5t-20.5 -18.5q-6 7 -12 13.5t-11 13.5q39 29 66 56.5t40 44.5z" />
    <glyph glyph-name="underscore" unicode="_" horiz-adv-x="163" 
d="M173 -24l-5 -32h-179l6 32h178z" />
    <glyph glyph-name="grave" unicode="`" horiz-adv-x="174" 
d="M69 626q24 -47 47 -77t36 -44l-21 -20q-15 11 -32 28q-14 14 -32 36t-36 52z" />
    <glyph glyph-name="a" unicode="a" horiz-adv-x="332" 
d="M222 455h45q-19 -93 -34.5 -177t-24.5 -155q-2 -15 -3 -27.5t-1 -22.5q0 -36 12 -36q17 0 47.5 51.5t68.5 152.5q5 0 11.5 -4t6.5 -6q-26 -63 -46.5 -108t-38 -73.5t-32.5 -41.5t-31 -13q-41 0 -41 103l5 48q-11 -30 -23.5 -57.5t-27.5 -48t-32.5 -33t-37.5 -12.5
q-32 0 -47 31t-15 85q0 35 6 74.5t16.5 78.5t25.5 75t33 63t38.5 43.5t43.5 16.5q30 0 44 -21.5t18 -55.5zM148 422q-21 0 -41.5 -33t-37 -81t-26.5 -101.5t-10 -95.5q0 -32 7 -51.5t23 -19.5q13 0 28 15.5t28.5 41t26 57.5t22 65.5t15 65.5t5.5 57q0 36 -10 58t-30 22z" />
    <glyph glyph-name="b" unicode="b" horiz-adv-x="322" 
d="M322 241q4 0 11 -2.5t7 -6.5v-1q-20 -51 -51.5 -84t-69.5 -42q-22 -49 -53 -80.5t-71 -31.5q-27 0 -45 15t-29.5 42t-16.5 64t-5 80q0 69 11 148.5t27.5 155.5t37 142t39.5 108q11 23 26.5 34t32.5 11q20 0 35.5 -15.5t15.5 -44.5q0 -127 -145 -278l-9 -47q17 24 40 38.5
t52 14.5q25 0 43.5 -13.5t30.5 -36t17.5 -52.5t5.5 -64q0 -39 -7 -80.5t-21 -79.5q27 9 50 34t41 72zM140 431q-19 0 -34.5 -12.5t-27 -33.5t-17.5 -47.5t-6 -54.5t7 -55t22 -48.5t39.5 -35.5t59.5 -15q11 36 17.5 77t6.5 79q0 30 -4 56.5t-12 46.5t-20.5 31.5t-30.5 11.5z
M95 22q24 0 44 22.5t34 58.5q-51 5 -82 33t-45 68q-1 -13 -1.5 -25t-0.5 -23q0 -60 12 -97t39 -37zM190 733q0 23 -12 23q-8 0 -19 -21t-23.5 -56.5t-25 -83t-23.5 -100.5q44 54 73.5 114.5t29.5 123.5z" />
    <glyph glyph-name="c" unicode="c" horiz-adv-x="268" 
d="M143 253q19 31 28.5 63t9.5 57q0 24 -8 39t-24 15q-21 0 -40.5 -24.5t-34 -62t-23.5 -83.5t-9 -88q0 -27 4 -50t12.5 -40.5t22.5 -28t34 -10.5q44 2 79 51.5t74 149.5q4 0 12 -4t8 -6l-10 -23q-18 -44 -37.5 -83t-42 -68.5t-49 -46.5t-59.5 -17q-26 0 -44.5 13t-30 35
t-17 51.5t-5.5 63.5q0 51 12 105t33 98.5t50 73.5t64 29t51.5 -28t16.5 -69q0 -32 -9.5 -67.5t-26.5 -67.5z" />
    <glyph glyph-name="d" unicode="d" horiz-adv-x="338" 
d="M208 393q8 48 17.5 101.5t19.5 106t19 100.5t16 86h47q-5 -37 -15 -97t-22.5 -129t-26 -142t-25 -137t-18.5 -112t-7 -68q0 -28 4.5 -38.5t12.5 -10.5q22 0 49 51t59 137q5 0 12 -5t7 -6q-45 -121 -83 -178t-70 -57q-45 0 -45 89q0 10 2 27.5t5 40.5q-11 -33 -24 -62
t-28 -50.5t-32.5 -34t-38.5 -12.5q-32 0 -46 33.5t-14 84.5q0 35 6 74.5t16 78.5t25 75t33 63t38.5 43.5t43.5 16.5q28 0 43 -18.5t20 -50.5zM147 422q-21 0 -41.5 -33t-37 -81t-26.5 -102t-10 -95q0 -32 7 -51.5t23 -19.5q18 0 40 32.5t41 79t32 98.5t13 91q0 33 -9.5 57
t-31.5 24z" />
    <glyph glyph-name="e" unicode="e" horiz-adv-x="265" 
d="M112 40q24 0 46 18.5t41.5 47.5t36 64.5t29.5 70.5q4 0 11 -4t7 -6q-12 -35 -29.5 -76.5t-40.5 -77.5t-51.5 -60t-62.5 -24q-29 0 -49.5 13t-33 35t-18.5 52t-6 63q0 51 12.5 105.5t34.5 99t52.5 73.5t66.5 29q29 0 43 -17.5t14 -44.5q0 -30 -15.5 -60t-39.5 -55.5
t-54 -44t-58 -23.5q-2 -15 -3.5 -29.5t-1.5 -28.5q0 -25 3.5 -47t12 -38t21.5 -25.5t32 -9.5zM153 436q-16 0 -31.5 -17t-29 -44t-24.5 -61.5t-17 -69.5q31 15 54 34.5t38 40.5t22.5 42t7.5 39q0 36 -20 36z" />
    <glyph glyph-name="f" unicode="f" horiz-adv-x="187" 
d="M31 -232q-14 0 -27 5t-23 18t-16 36.5t-6 60.5q0 54 7.5 128t20.5 156.5t29 167t33 160t33.5 136t30.5 94.5q13 32 31 47t35 15q19 0 32 -15t13 -44q0 -39 -10.5 -87t-26.5 -99t-36.5 -101t-40 -93.5t-37 -77.5t-27.5 -52q-15 -80 -24 -155q20 4 43 16.5t45 34t42 52
t35 70.5q4 0 11 -4.5t7 -6.5q-34 -75 -74.5 -122t-88.5 -64q38 -30 54 -70t16 -78q0 -26 -6 -49t-17 -40.5t-26 -28t-32 -10.5zM196 732q0 23 -11 23q-10 0 -24.5 -37t-31 -99.5t-34 -144.5t-34.5 -172q11 23 25 56t29 72t29.5 80.5t26 81.5t18.5 76t7 64zM33 -202
q19 0 32.5 26.5t13.5 64.5q0 35 -14 72.5t-49 65.5q-5 -42 -8.5 -80t-3.5 -67q0 -38 7 -60t22 -22z" />
    <glyph glyph-name="g" unicode="g" horiz-adv-x="320" 
d="M320 241q5 0 12 -3t6 -8q-32 -82 -74 -139t-84 -101q-9 -48 -17 -100t-21 -95t-32.5 -71t-50.5 -28q-26 0 -43 18.5t-17 52.5q0 29 10.5 55t28.5 50.5t41.5 49t49.5 50.5q8 38 14 78t13 78q-11 -28 -23 -52t-26 -42t-30 -28t-34 -10q-32 0 -46 31.5t-14 83.5q0 35 6 74.5
t16.5 78.5t25.5 75t33 63t38.5 43.5t43.5 16.5q26 0 39 -17t18 -45l12 56h52q-5 -17 -13.5 -60.5t-19.5 -103t-23 -127.5t-24 -133q37 41 72 91t61 118zM148 422q-21 0 -41.5 -33t-37 -81t-26.5 -101.5t-10 -95.5q0 -32 7 -51.5t23 -19.5t33 20.5t32.5 54.5t29.5 76.5
t24 86.5q2 16 4.5 31.5t2.5 31.5q0 33 -9.5 57t-31.5 24zM33 -233q0 -20 7.5 -29.5t18.5 -9.5q14 0 23 15t14 41l26 146q-37 -38 -63 -77t-26 -86z" />
    <glyph glyph-name="h" unicode="h" horiz-adv-x="325" 
d="M-37 0q0 1 -0.5 2t-0.5 3q0 14 4 43t10 56q9 51 18.5 110t20 120.5t22 122t23.5 114t24.5 97.5t25.5 72t32.5 38.5t36.5 10.5q41 0 41 -48q0 -38 -14.5 -87t-36 -103t-48 -108.5t-50.5 -103.5l-15 -64q14 33 31.5 65.5t37 59t40 43t40.5 16.5t34 -15.5t14 -47.5
t-11 -73.5t-24 -85t-24 -85t-11 -72.5q0 -22 6.5 -32t17.5 -10t25 15.5t29 43t31 64.5t33 80q5 0 11.5 -4.5t6.5 -6.5l-13 -34q-15 -38 -31.5 -74t-34.5 -64t-37.5 -45.5t-40.5 -17.5q-25 0 -41 19t-16 57q0 35 11 79.5t24.5 88.5t24.5 83t11 63q0 18 -5 25.5t-13 7.5
q-14 0 -33.5 -23.5t-41.5 -64.5t-42.5 -96.5t-35.5 -120.5q-4 -28 -7.5 -56t-8.5 -57h-50zM189 732q0 23 -13 23q-12 0 -24.5 -31t-25 -81.5t-25 -115t-24.5 -131.5q12 28 30.5 73t35.5 94t30.5 94.5t15.5 74.5z" />
    <glyph glyph-name="i" unicode="i" horiz-adv-x="168" 
d="M96 456q-12 -57 -23.5 -111.5t-20 -103.5t-14 -90t-5.5 -72q0 -23 5 -32t13 -9q23 0 51.5 52.5t65.5 150.5q4 0 11 -3t7 -7q-20 -52 -37 -95t-34 -74.5t-36.5 -49t-43.5 -17.5q-27 0 -39 29t-12 75q0 38 6.5 84t15.5 94t19 94.5t18 84.5h53zM87 529q-16 0 -23 9.5
t-7 22.5q0 17 10.5 33t30.5 16q16 0 23 -10t7 -24q0 -17 -11 -32t-30 -15z" />
    <glyph glyph-name="j" unicode="j" horiz-adv-x="175" 
d="M175 241q3 0 11 -2.5t7 -8.5q-32 -82 -73.5 -139t-83.5 -102l-19 -107q-6 -35 -14 -68t-20 -59.5t-28.5 -42.5t-39.5 -16q-26 0 -43 18.5t-17 52.5q0 29 11 54.5t29 50.5t41.5 49.5t49.5 50.5q14 78 27 160t26 154l-21 -56q-2 0 -10 2t-8 9l7 18q25 63 38.5 109.5
t25.5 87.5h51q-5 -17 -13.5 -61t-19 -103t-22.5 -127.5t-24 -133.5q37 42 71.5 91.5t60.5 118.5zM-111 -233q0 -20 7.5 -29.5t18.5 -9.5q14 0 23.5 18.5t16.5 48t12.5 65.5t11.5 71q-18 -20 -34.5 -39t-28.5 -39t-19.5 -41t-7.5 -45zM111 522q-16 0 -23 9.5t-7 22.5
q0 17 10.5 33t30.5 16q16 0 23 -10t7 -24q0 -17 -11 -32t-30 -15z" />
    <glyph glyph-name="k" unicode="k" horiz-adv-x="281" 
d="M-39 0l4 37q1 21 4.5 43t7.5 41t7.5 34t5.5 24q12 78 26 163t29 162.5t32 141t35 99.5q11 26 30 35t34 9q43 0 43 -48q0 -28 -12.5 -70t-33.5 -93t-48 -109.5t-56 -120.5l-13 -61q16 37 32 69.5t33.5 55.5t35 36.5t36.5 13.5q23 0 33 -13.5t10 -35.5q0 -24 -12 -56.5
t-31.5 -64.5t-44.5 -59.5t-52 -41.5q12 -17 19 -42.5t13 -49.5t12.5 -41t17.5 -17t25.5 15t30.5 42t33 63.5t34 79.5q5 0 11.5 -5t6.5 -6q-4 -13 -11 -29q-15 -39 -32 -76t-34.5 -66t-36.5 -46.5t-39 -17.5q-25 0 -39 21.5t-22 51t-13.5 60.5t-13.5 50q-3 0 -6 -0.5t-6 -0.5
q-2 0 -4 0.5t-4 0.5l-26 -178h-51zM176 421q-22 0 -53 -45.5t-71 -132.5l-5 -26q16 0 26 -6q20 12 40.5 36.5t37.5 52.5t28 55.5t11 44.5q0 20 -14 21zM185 732q0 23 -10 23q-12 0 -24 -27.5t-24 -74t-24 -108t-24 -129.5q11 27 28.5 68.5t34 86.5t29 88t14.5 73z" />
    <glyph glyph-name="l" unicode="l" horiz-adv-x="192" 
d="M70 37q26 0 55.5 53.5t66.5 150.5q4 0 10.5 -3t6.5 -7q-45 -122 -80 -180t-76 -58q-35 0 -47 43t-12 118q2 54 9.5 120.5t21.5 141.5q32 181 74 279t80 98q23 0 31 -21t8 -52q0 -54 -15 -116t-39 -124t-54 -120t-60 -103q-5 -39 -7.5 -73.5t-2.5 -62.5q0 -44 8 -64
t22 -20zM193 723q0 11 -1.5 21.5t-10.5 10.5q-12 0 -28.5 -41.5t-34 -106.5t-33.5 -144t-27 -155q15 28 38 76.5t44.5 106t37 118t15.5 114.5z" />
    <glyph glyph-name="m" unicode="m" horiz-adv-x="461" 
d="M-51 0l2 13.5t6.5 35.5t10.5 50t15 58q7 40 15 81.5t14.5 80.5t12.5 74t11 63h53q-2 -14 -7.5 -46t-13.5 -72q12 27 24 50t25 40t28 26.5t34 9.5q23 0 33.5 -19t10.5 -47q0 -24 -8 -70q24 57 52.5 94.5t70.5 37.5q20 0 35.5 -15.5t15.5 -48.5q0 -32 -11 -74.5t-24 -87.5
t-24 -87.5t-11 -73.5q0 -20 6.5 -27.5t17.5 -7.5q13 0 26.5 15.5t28.5 43t30.5 64.5t32.5 80q5 0 11.5 -4.5t6.5 -6.5l-11 -29q-15 -39 -31 -76t-34 -66t-38.5 -46.5t-42.5 -17.5q-28 0 -42 20t-14 57q0 39 11 83.5t24 88t24 80.5t11 61q0 38 -23 38q-25 0 -58 -56t-58 -162
q-11 -63 -23 -119.5t-19 -85.5h-57q6 27 13.5 63.5t15.5 75t16 77.5t14 72.5t9.5 58t3.5 35.5q0 14 -3.5 25.5t-14.5 11.5q-12 0 -26.5 -17t-29 -47t-29 -70.5t-26.5 -88.5l-38 -196h-54z" />
    <glyph glyph-name="n" unicode="n" 
d="M-50 0q1 5 3 20t6.5 36t10.5 46t14 51q7 40 14.5 82t14 82t12 75.5t8.5 63.5h54l-24 -139q13 28 27.5 54t30 45.5t34 31.5t41.5 12q24 0 37.5 -16.5t13.5 -47.5q0 -32 -11 -74.5t-24 -87t-24 -86.5t-11 -73q0 -20 6.5 -28.5t17.5 -8.5q12 0 26 15.5t29 43t30.5 64.5
t32.5 80q5 0 11.5 -4t6.5 -6l-11 -29q-15 -39 -31 -76t-34 -66.5t-38.5 -47t-42.5 -17.5q-25 0 -41 18t-16 53t11 80t24.5 90t24.5 85t11 64q0 37 -23 37q-12 0 -29 -16.5t-34.5 -46.5t-35 -71t-31.5 -90l-37 -198h-54z" />
    <glyph glyph-name="o" unicode="o" 
d="M319 241q4 0 12 -2.5t6 -7.5q-19 -50 -46 -80.5t-64 -41.5q-24 -49 -60 -82.5t-75 -33.5q-43 0 -66.5 28.5t-31 76t0 108t25.5 124.5l31 -8q5 28 16 53t27 44t37.5 30.5t47.5 11.5q40 0 61.5 -31t28 -78.5t-2 -104.5t-28.5 -109q25 12 44.5 35t36.5 68zM177 435
q-28 0 -49.5 -22.5t-34 -56.5t-15 -73t7.5 -73t33 -56.5t63 -22.5q19 49 30 102.5t11.5 98.5t-11 74t-35.5 29zM92 22q24 0 44.5 23t34.5 58q-32 3 -55 17t-38 36.5t-22 50.5t-8 58q-6 -32 -11 -73.5t-2.5 -79.5t15 -64t42.5 -26z" />
    <glyph glyph-name="p" unicode="p" horiz-adv-x="322" 
d="M78 456l-16 -107q21 51 47.5 82.5t55.5 31.5q38 0 55.5 -37t17.5 -93q0 -39 -8 -84t-22 -87.5t-34 -79t-44 -59.5q60 16 109.5 73.5t82.5 144.5q4 0 11 -4.5t7 -6.5l-12 -30q-19 -47 -45 -85t-57 -65t-65.5 -42t-68.5 -15q-35 0 -53.5 16t-25.5 46q-14 -89 -29.5 -177
t-29.5 -177h-47q6 54 13.5 96.5t13.5 71.5q7 34 15 59q12 71 25 152t25 155.5t20.5 134t10.5 86.5h48zM42 233q-5 -26 -11 -55.5t-6 -55.5q0 -15 2 -30t6.5 -26.5t12.5 -18.5t21 -7q24 0 45.5 31t37.5 77t25.5 97.5t9.5 93.5q0 35 -9.5 59t-26.5 24q-14 0 -28 -14t-28.5 -39
t-27.5 -60t-23 -76z" />
    <glyph glyph-name="q" unicode="q" horiz-adv-x="334" 
d="M272 456q-10 -47 -21.5 -99.5t-23.5 -107.5t-23.5 -110t-21.5 -106q28 20 49.5 41.5t39.5 46t33.5 54t29.5 66.5q4 0 11 -4.5t7 -6.5l-12 -27q-26 -59 -63 -108t-95 -84q36 -30 52 -76t16 -93q0 -65 -22.5 -105t-55.5 -40q-38 0 -51.5 32.5t-13.5 107.5q0 51 12 118.5
t26 143.5q-20 -48 -45 -77t-57 -29t-46 33.5t-14 84.5q0 35 6 74.5t16.5 78.5t25.5 75t33 63t38.5 43.5t43.5 16.5q27 0 41 -20t18 -52q3 17 7 33t7 33h53zM148 422q-21 0 -41.5 -33t-37 -81t-26.5 -101.5t-10 -95.5q0 -32 7 -51.5t23 -19.5q15 0 37 30t41.5 75t33.5 97.5
t14 98.5q0 33 -9.5 57t-31.5 24zM175 -273q20 0 31 31t11 80q0 40 -10.5 80.5t-33.5 67.5q-11 -57 -17 -101t-6 -85q0 -73 25 -73z" />
    <glyph glyph-name="r" unicode="r" horiz-adv-x="236" 
d="M100 67q0 -28 20 -28q21 0 49.5 52t66.5 150q3 0 10.5 -3t7.5 -7q-20 -52 -37 -95t-34.5 -74.5t-36.5 -49t-43 -17.5q-28 0 -40.5 17.5t-12.5 48.5q0 25 7.5 51.5t16 52.5t16 51t7.5 49q0 36 -12 61.5t-23 50.5q-10 -39 -21.5 -77t-22.5 -69q-5 0 -9 2q-9 4 -9 8
q14 39 25.5 84.5t19.5 90.5q-10 21 -10 61q0 27 5 57t13 61l47 -13q-1 -40 -6 -73.5t-12 -66.5l-6 -20q9 -15 21.5 -30.5t23.5 -33t18.5 -38.5t7.5 -46q0 -28 -7.5 -56.5t-16 -55.5t-16 -51.5t-7.5 -43.5z" />
    <glyph glyph-name="s" unicode="s" horiz-adv-x="237" 
d="M16 85q0 -21 12 -36t34 -15q28 0 45.5 27t17.5 63q0 27 -6 55t-15 58.5t-19 64.5t-17 72q-12 -39 -25.5 -76.5t-24.5 -66.5q-5 0 -9 2q-9 4 -9 8q12 34 29 79.5t32 92.5q-3 17 -4.5 36.5t-1.5 48.5q0 27 6 52t12 46l42 -8q-4 -43 -9.5 -77.5t-15.5 -66.5q2 -38 16 -78.5
t30 -81t29 -80t13 -75.5q0 -13 -3 -23q16 26 31 59.5t31 75.5q4 0 11 -4t7 -6q-13 -30 -29.5 -71t-40 -78t-55 -63t-73.5 -26q-17 0 -33 5t-28.5 16t-20 28t-5.5 41z" />
    <glyph glyph-name="t" unicode="t" horiz-adv-x="192" 
d="M32 456q15 76 28.5 122t26 70.5t25.5 32t27 7.5q21 0 30 -17.5t9 -48.5q0 -29 -11 -72t-30 -94h36l-6 -32h-42q-16 -41 -35.5 -83t-39.5 -84q-5 -39 -7.5 -73.5t-2.5 -62.5q0 -44 8 -64t22 -20q26 0 55.5 53.5t66.5 150.5q4 0 10.5 -3t6.5 -7v-2q-45 -120 -80 -178
t-76 -58q-35 0 -47 43t-12 118q2 54 9.5 120.5t21.5 141.5q0 2 0.5 4t0.5 4h-38l6 32h38zM153 625q0 11 -2.5 18t-11.5 7q-14 0 -28 -51t-30 -143h32q17 48 28.5 91.5t11.5 77.5zM101 424h-25l-15 -100z" />
    <glyph glyph-name="u" unicode="u" horiz-adv-x="323" 
d="M96 456q-2 -12 -8 -38t-13 -59.5t-15 -71.5t-14.5 -75.5t-10.5 -71.5t-4 -58t6 -34.5t16 -10.5q9 0 23.5 17t29 45.5t28 67t21.5 81.5q10 57 21.5 110t21.5 98h52q-12 -57 -23 -111.5t-20 -103.5t-14.5 -90t-5.5 -72q0 -23 5.5 -32t13.5 -9q23 0 51 52.5t66 150.5
q3 0 10.5 -3t7.5 -7q-20 -52 -37 -95t-34.5 -74.5t-36.5 -49t-43 -17.5q-28 0 -38.5 28.5t-10.5 76.5q0 5 0.5 10t0.5 10q-21 -55 -49 -90t-57 -35t-41 28t-12 75q0 45 8 100.5t18.5 107t20.5 92.5t13 58h53z" />
    <glyph glyph-name="v" unicode="v" horiz-adv-x="307" 
d="M47 0q-4 54 -9 123.5t-7 144.5l-13 -37q-5 0 -9 2q-9 4 -9 8q8 23 15.5 49t13.5 52q0 60 3 114h42q2 -26 -1 -49.5t-12 -51.5q3 -60 7.5 -136.5t10.5 -163.5q38 55 67 123q-11 26 -16.5 61t-5.5 72q0 38 6.5 76t18 68.5t28.5 49.5t38 19q25 0 37.5 -23t12.5 -65
q0 -32 -6.5 -66t-17.5 -69.5t-25.5 -70.5t-30.5 -68q15 -18 35 -18q29 0 49.5 26t37.5 71q4 0 11 -3t7 -7q-18 -57 -47 -82t-61 -25q-25 0 -43 19q-23 -49 -47.5 -86.5t-45.5 -56.5h-34zM221 466q0 17 -3.5 24t-10.5 7q-12 0 -22 -14.5t-18 -38t-13 -54t-5 -62.5
q-1 -54 2 -79t8 -40q15 37 26.5 73.5t19.5 70.5t12 63t4 50z" />
    <glyph glyph-name="w" unicode="w" horiz-adv-x="450" 
d="M92 456q-11 -57 -21.5 -112.5t-19 -105t-13.5 -90.5t-5 -68q0 -42 14 -42q11 0 26 15t30 43t29 66t25 85q8 50 17.5 103t20.5 106h52q-10 -54 -20 -107.5t-18 -101.5t-13 -88.5t-5 -68.5q0 -25 4.5 -39t14.5 -14q16 0 38.5 39t45.5 96q-8 21 -13 48.5t-5 62.5
q0 56 6.5 100.5t17.5 76t26 48t33 16.5q21 0 32.5 -19t11.5 -53q0 -30 -5.5 -66.5t-15 -75t-22.5 -77.5t-28 -75q11 -14 31 -14q26 0 48 25.5t39 71.5q4 0 11 -3t7 -7q-17 -51 -43.5 -79t-61.5 -28q-11 0 -22 2.5t-19 10.5q-14 -30 -29.5 -56t-31 -45t-31 -30t-30.5 -11
q-28 0 -41 28.5t-13 77.5q0 9 0.5 18t1.5 19q-23 -63 -52.5 -103t-57.5 -40q-32 0 -42 34.5t-10 89.5q0 34 5 74t13 83.5t17 89t18 90.5h53zM349 497q-9 0 -18 -16t-16 -45t-11.5 -69t-4.5 -88q0 -23 1.5 -42t5.5 -34q12 33 22.5 68.5t18.5 70t12.5 66t4.5 57.5q0 14 -4 23
t-11 9z" />
    <glyph glyph-name="x" unicode="x" horiz-adv-x="355" 
d="M0 239q21 55 39 96t34.5 69t33 42t35.5 14q20 0 32 -14t18.5 -37t8.5 -53.5t2 -64.5q11 31 23.5 61.5t27.5 54.5t32 39t38 15q19 0 35 -14q-5 -11 -9.5 -21.5t-9.5 -21.5q-10 8 -24 8q-15 0 -30 -15t-29.5 -39.5t-28 -55t-25.5 -61.5q-3 -26 -4 -44.5t-2 -31.5t-1 -23
v-20q0 -38 6 -62t23 -24q27 0 59.5 52.5t70.5 152.5q5 0 12.5 -4t7.5 -6l-13 -31q-22 -52 -41 -90.5t-37.5 -63.5t-37.5 -37.5t-41 -12.5q-33 0 -44.5 34.5t-11.5 92.5q0 5 0.5 10t0.5 10q-14 -32 -28 -59t-29 -46.5t-31.5 -31t-34.5 -11.5q-25 0 -35.5 16.5t-10.5 42.5
q0 24 8.5 52t25.5 54l36 -18q-13 -17 -21 -40t-8 -42q0 -14 5 -22.5t16 -8.5q13 0 26 13.5t26.5 36.5t27 53.5t27.5 64.5q1 35 3 69t2 63q0 39 -5.5 65t-22.5 26q-10 0 -20.5 -9.5t-23.5 -31.5t-28.5 -58.5t-36.5 -90.5q-5 1 -9 2q-9 2 -9 7z" />
    <glyph glyph-name="y" unicode="y" horiz-adv-x="299" 
d="M299 241q5 0 13 -2.5t7 -7.5q-32 -82 -75 -139.5t-85 -101.5q-9 -48 -17 -100t-21 -95t-32.5 -71t-50.5 -28q-26 0 -43 18.5t-17 52.5q0 28 10.5 54t28.5 51t41.5 49.5t49.5 50.5q6 30 11.5 61.5t10.5 63.5q-20 -45 -45 -73.5t-49 -28.5q-32 0 -42 33t-10 86
q2 45 10.5 98.5t18.5 103t18.5 88t11.5 52.5h53q-4 -21 -14.5 -67t-22 -101.5t-20 -111t-8.5 -94.5q0 -24 6 -34t16 -10q13 0 28 20t29.5 53t27.5 75.5t22 87.5q10 56 18.5 104t15.5 78h52q-5 -17 -13.5 -60.5t-19.5 -103t-23 -127.5t-24 -133q37 41 72 91t61 118zM12 -233
q0 -20 7.5 -29.5t18.5 -9.5q14 0 23 15t14 41l26 146q-37 -38 -63 -77t-26 -86z" />
    <glyph glyph-name="z" unicode="z" horiz-adv-x="288" 
d="M21 25q8 3 21.5 3t17.5 -1q17 18 34 56t30 83.5t21 93t8 84.5q0 74 -38 74q-15 0 -26.5 -14t-22 -39.5t-22 -60t-26.5 -74.5q-5 1 -9 2q-9 2 -9 7q16 43 28 83.5t25 71t29.5 49t41.5 18.5q22 0 38 -10.5t26 -29t15 -43.5t5 -53q0 -41 -8.5 -86t-24 -87.5t-37 -78
t-47.5 -57.5q9 -6 16 -14.5t13 -19.5q21 23 43.5 49.5t44.5 57.5t42.5 68.5t37.5 83.5q-1 0 2 -0.5t6.5 -1.5t6.5 -3t3 -5q-18 -47 -39.5 -86t-44.5 -71t-46.5 -59t-45.5 -51q17 -43 17 -92q0 -35 -8.5 -66.5t-23 -55.5t-34.5 -38t-42 -14q-23 0 -37.5 18.5t-14.5 47.5
q0 28 8.5 52.5t23 47.5t32.5 44.5t38 42.5q-4 17 -9.5 29.5t-14.5 20.5q-8 -4 -17 -5.5t-17 -1.5t-11 1zM41 -276q12 0 22.5 13.5t18 35t11.5 50t4 58.5q0 11 -1 21t-2 21q-33 -38 -55.5 -78.5t-22.5 -83.5q0 -37 25 -37z" />
    <glyph glyph-name="braceleft" unicode="{" horiz-adv-x="167" 
d="M53 361q11 0 21 -0.5t18 -4.5q15 14 19.5 42t4.5 63q0 30 -1.5 62.5t-1.5 64.5q0 36 4 69.5t17 59t35.5 41t60.5 15.5q13 0 20 -4q-4 -11 -7.5 -23t-6.5 -23q-9 3 -17 3q-22 0 -35.5 -12t-20.5 -32.5t-9 -47t-2 -55.5q0 -22 0.5 -44t0.5 -44q0 -55 -7.5 -95.5
t-28.5 -58.5q9 -14 9 -34q0 -33 -14 -76.5t-30.5 -87.5t-30.5 -84t-14 -67q0 -19 8 -29.5t28 -10.5q8 0 19 3l6 -46q-3 -2 -11.5 -2.5t-13.5 -0.5q-24 0 -38 7t-22 19.5t-10.5 29t-2.5 34.5q0 32 14.5 73t32 83t32 80.5t14.5 64.5q0 18 -8 28q-5 -2 -14.5 -3t-24.5 0z" />
    <glyph glyph-name="bar" unicode="|" horiz-adv-x="168" 
d="M173 721q-14 -84 -29 -168t-31 -172t-33.5 -182t-38.5 -199h-32q33 190 67.5 371.5t63.5 349.5h33z" />
    <glyph glyph-name="braceright" unicode="}" horiz-adv-x="195" 
d="M174 313q-19 1 -27 2t-13 3q-15 -14 -19.5 -43t-4.5 -65q0 -29 1.5 -60t1.5 -63q0 -36 -4 -69.5t-16.5 -59t-35 -41t-59.5 -15.5q-13 0 -20 4q3 11 6.5 23t7.5 23q9 -3 16 -3q23 0 36 13t20 34.5t8.5 50t1.5 59.5v66q0 61 6.5 103.5t28.5 62.5q-8 11 -8 33q0 33 14 76.5
t30.5 87.5t30.5 84.5t14 67.5q0 19 -8 29.5t-28 10.5q-9 0 -19 -3l-6 46q3 2 11.5 2.5t13.5 0.5q41 0 57 -22t16 -54q0 -38 -14.5 -82t-32 -87t-32 -81.5t-14.5 -65.5q0 -20 7 -28q10 3 19.5 3.5t20.5 0.5z" />
    <glyph glyph-name="asciitilde" unicode="~" horiz-adv-x="390" 
d="M-14 317q24 32 56.5 42.5t69.5 10.5h16q42 -3 83.5 -12t76.5 -9q44 0 65 10t38 25l46 -61q-20 -21 -46 -34t-63 -13q-27 0 -54 6.5t-54 14t-53 14t-51 6.5q-26 0 -48.5 -9t-42.5 -32z" />
    <glyph glyph-name="uni00A0" unicode="&#xa0;" horiz-adv-x="181" 
 />
    <glyph glyph-name="exclamdown" unicode="&#xa1;" horiz-adv-x="213" 
d="M0 12q25 68 48.5 137t46.5 142.5t44.5 153t42.5 169.5l34 -4q-33 -164 -74 -318.5t-85 -291.5zM210 646q-15 0 -22.5 10t-7.5 24q0 17 10.5 31.5t30.5 14.5q16 0 23 -9.5t7 -23.5q0 -17 -10.5 -32t-30.5 -15z" />
    <glyph glyph-name="cent" unicode="&#xa2;" horiz-adv-x="230" 
d="M190 245q-11 5 -21.5 10t-21.5 10q8 16 13 32.5t5 31.5q0 17 -6 29t-19 16q-12 -69 -25 -141t-29 -153q30 0 54 28.5t38 72.5l39 -17q-20 -57 -55 -89.5t-83 -32.5l-8 -42h-18l4 22l4 22q-43 8 -62.5 46.5t-19.5 89.5q0 39 11 80t30.5 74.5t47 55t61.5 22.5l8 44h18
l-8 -45q33 -5 48 -28.5t15 -55.5q0 -21 -5.5 -41.5t-14.5 -40.5zM68 83q14 75 27.5 148t26.5 145q-20 -3 -38 -22.5t-31 -49t-20.5 -63.5t-7.5 -65q0 -34 10 -59.5t33 -33.5z" />
    <glyph glyph-name="sterling" unicode="&#xa3;" horiz-adv-x="318" 
d="M217 433q-30 0 -46.5 -22.5t-25 -56t-11.5 -71t-5 -67.5h71l-5 -25h-68q-4 -39 -14 -73t-39 -71q13 4 30 4q20 0 42 -5.5t42 -5.5q18 0 29.5 4.5t21.5 13.5l27 -37q-9 -10 -24.5 -17.5t-38.5 -7.5q-17 0 -33.5 4t-32 8.5t-31 8.5t-29.5 4t-25 -5.5t-22 -20.5l-26 27
q39 35 55 78t19 91h-47l5 25h44q3 46 9 90.5t21 79.5t41 56t68 21q25 0 43 -7.5t30 -21t17.5 -31.5t5.5 -38q0 -26 -10 -54t-29 -52l-38 28q18 19 26.5 41t8.5 42q0 26 -15 44.5t-41 18.5z" />
    <glyph glyph-name="yen" unicode="&#xa5;" horiz-adv-x="242" 
d="M199 277l-6 -32h-62l-12 -25l-6 -35h70l-6 -32h-70l-29 -153h-40q5 21 11.5 61t16.5 92h-66l6 32h65l8 38l-3 22h-60l6 32h50q-5 34 -11.5 81.5t-16.5 97.5h44q9 -47 15 -91.5t11 -79.5l82 171h37l-86 -179h52z" />
    <glyph glyph-name="brokenbar" unicode="&#xa6;" horiz-adv-x="166" 
d="M114 346q-7 -41 -14.5 -82t-15.5 -83t-17 -87t-18 -94h-32q16 90 31.5 175.5t31.5 170.5h34zM86 386q16 89 32.5 170.5t30.5 164.5h32q-15 -86 -29 -166t-31 -169h-35z" />
    <glyph glyph-name="section" unicode="&#xa7;" horiz-adv-x="339" 
d="M244 322q15 25 15 51q0 20 -13.5 38.5t-34.5 18.5q-17 0 -29 -14.5t-12 -41.5q0 -25 10 -45t25 -39t33 -37t33 -37t25 -41t10 -49t-10 -51t-29 -42t-47 -28.5t-63 -10.5q-54 0 -89 31t-43 94l55 9q5 -48 25.5 -73.5t48.5 -25.5q24 0 36 18t12 41q0 30 -20.5 54.5
t-45.5 51t-45.5 59.5t-20.5 80q0 27 8.5 50t25.5 40.5t41.5 27.5t56.5 10q48 0 76.5 -28t28.5 -73q0 -28 -12 -56zM272 117q0 37 -21 65t-46 55.5t-46 58.5t-21 74q0 18 6 34.5t19 28.5q-26 -6 -43 -30t-17 -59q0 -44 21 -77t46.5 -61t46.5 -54.5t21 -58.5q0 -16 -6 -32.5
t-17 -29.5q29 10 43 32.5t14 53.5z" />
    <glyph glyph-name="dieresis" unicode="&#xa8;" horiz-adv-x="192" 
d="M39 492q-12 0 -18 8t-6 19q0 14 9 26t24 12q13 0 18.5 -8t5.5 -19q0 -13 -8.5 -25.5t-24.5 -12.5zM141 492q-11 0 -17.5 7t-6.5 17q0 14 8 27.5t25 13.5q12 0 18 -8t6 -19q0 -13 -8.5 -25.5t-24.5 -12.5z" />
    <glyph glyph-name="copyright" unicode="&#xa9;" horiz-adv-x="392" 
d="M246 411q5 -2 10.5 -4t10.5 -4q-14 -41 -38.5 -66t-50.5 -25q-20 0 -33.5 8.5t-22.5 23.5t-13 35t-4 42q0 32 8 66.5t22.5 62.5t34 46t43.5 18q23 0 34.5 -19t11.5 -47q0 -19 -6 -40.5t-18 -41.5q-6 3 -12.5 5.5t-12.5 4.5q26 47 26 81q0 37 -25 37q-15 0 -29.5 -17.5
t-25.5 -43.5t-17.5 -58t-6.5 -60q0 -35 11.5 -59t37.5 -24q23 0 39 24t26 55zM155 200q-35 0 -61 17t-43 46t-25.5 66.5t-8.5 79.5q0 54 13.5 109.5t40.5 100t67 73t93 28.5q35 0 61 -17t43 -46t25.5 -66.5t8.5 -79.5q0 -54 -14 -109.5t-41 -100.5t-67 -73t-92 -28zM156 220
q46 0 81.5 26.5t59.5 68.5t36 94t12 102q0 38 -7 72t-21.5 60t-36 41.5t-51.5 15.5q-46 0 -81.5 -26.5t-59.5 -68.5t-36 -94t-12 -103q0 -38 7 -72t21.5 -59.5t36 -41t51.5 -15.5z" />
    <glyph glyph-name="ordfeminine" unicode="&#xaa;" horiz-adv-x="342" 
d="M338 246q-25 -51 -47 -74.5t-44 -23.5q-21 0 -32.5 18.5t-11.5 64.5q0 16 3 43q-23 -63 -52 -96t-66 -33q-34 0 -48.5 33t-14.5 82q0 46 12 99.5t33 99t49 75.5t61 30q30 0 44 -22t18 -56l14 71h45q-9 -44 -16 -81t-13 -70t-11 -64.5t-9 -63.5q-2 -16 -3 -28.5t-1 -23.5
q0 -36 13 -36q9 1 26 16t34 52zM182 524q-20 0 -39 -27t-34 -67t-24 -85.5t-9 -81.5q0 -31 7.5 -50.5t24.5 -19.5q19 0 39.5 24t37.5 61t27.5 81.5t10.5 85.5q0 35 -10 57t-31 22z" />
    <glyph glyph-name="guillemotleft" unicode="&#xab;" horiz-adv-x="370" 
d="M143 394q30 14 63 32q28 15 61 35.5t65 44.5l19 -31q-32 -22 -63 -39.5t-56 -30.5q-29 -15 -56 -26q25 -19 48.5 -39.5t41.5 -37.5q21 -20 40 -41l-30 -32q-19 23 -41 47q-19 20 -44 44t-52 47zM18 394q30 14 63 32q28 15 61 35.5t65 44.5l19 -31q-32 -22 -63 -39.5
t-56 -30.5q-29 -15 -56 -26q25 -19 48.5 -39.5t41.5 -37.5q21 -20 40 -41l-30 -32q-19 23 -41 47q-19 20 -44 44t-52 47z" />
    <glyph glyph-name="registered" unicode="&#xae;" horiz-adv-x="379" 
d="M155 200q-35 0 -61 17t-43 46t-25.5 66.5t-8.5 79.5q0 54 13.5 109.5t40.5 100t67 73t93 28.5q35 0 61 -17t43 -46t25.5 -66.5t8.5 -79.5q0 -54 -14 -109.5t-41 -100.5t-67 -73t-92 -28zM156 220q46 0 81.5 26.5t59.5 68.5t36 94t12 102q0 38 -7 72t-21.5 60t-36 41.5
t-51.5 15.5q-46 0 -81.5 -26.5t-59.5 -68.5t-36 -94t-12 -103q0 -38 7 -72t21.5 -59.5t36 -41t51.5 -15.5zM110 321l20 99h-8q2 6 2.5 12t1.5 11q6 0 9 -1l25 137q-6 -3 -11.5 -7t-10.5 -9l-13 17q17 14 35.5 23.5t44.5 9.5q35 0 51.5 -19.5t16.5 -47.5q0 -18 -6.5 -36.5
t-19.5 -35.5t-32 -29.5t-43 -18.5q14 -9 24.5 -23t19.5 -27.5t17.5 -24.5t18.5 -15l-15 -23q-12 3 -22 16t-20 29.5t-19.5 33.5t-21.5 28l-18 -99h-26zM206 595q-5 0 -10 -1t-10 -3l-28 -155q21 6 38 18t28 27.5t17 33t6 32.5q0 20 -10.5 34t-30.5 14z" />
    <glyph glyph-name="macron" unicode="&#xaf;" horiz-adv-x="203" 
d="M181 531l-5 -32h-159l5 32h159z" />
    <glyph glyph-name="degree" unicode="&#xb0;" horiz-adv-x="152" 
d="M85 520q-23 0 -35.5 -18.5t-12.5 -38.5q0 -14 7.5 -24t23.5 -10q22 0 34 18.5t12 37.5q0 14 -7 24.5t-22 10.5zM88 540q27 0 40 -16t13 -37q0 -14 -5 -28t-15 -25t-23.5 -18t-31.5 -7q-28 0 -41 15.5t-13 36.5q0 14 5 28t15 25.5t24 18.5t32 7z" />
    <glyph glyph-name="twosuperior" unicode="&#xb2;" horiz-adv-x="232" 
d="M21 470q2 7 6 13.5t10 14.5q19 25 45.5 43.5t50 35.5t40 35t16.5 44q0 20 -11 32.5t-31 12.5q-23 0 -37 -17.5t-14 -41.5q0 -7 1.5 -13l3.5 -14l-35 -10q-4 12 -4 28q0 17 5 33.5t16 30t28 21.5t41 8q32 0 51.5 -18t19.5 -53q0 -31 -16.5 -52t-40.5 -39t-51 -36.5
t-49 -43.5q12 3 24 3q10 0 20.5 -2t21.5 -2q20 0 33 4t24 15l8 -16t9 -16q-9 -10 -19.5 -14.5t-28.5 -4.5q-26 0 -45 9t-36 9q-19 0 -34 -19z" />
    <glyph glyph-name="threesuperior" unicode="&#xb3;" horiz-adv-x="209" 
d="M106 583q0 7 0.5 13.5t0.5 14.5q8 0 15 -1t13 -3q12 9 19 24t7 31q0 20 -9.5 29.5t-23.5 9.5q-16 0 -26 -11.5t-10 -28.5v-7q-9 -2 -18 -3l-18 -2q0 33 18 55t56 22q34 0 50.5 -18t16.5 -43q0 -19 -10 -37.5t-29 -30.5q17 -11 25 -28t8 -35q0 -31 -22.5 -57t-67.5 -26
q-35 0 -54 18.5t-19 49.5q0 16 4 31l34 -10q-2 -7 -4 -13.5t-2 -12.5q0 -19 11.5 -31t30.5 -12q26 0 39.5 19.5t13.5 45.5q0 14 -5.5 28.5t-13.5 22.5q-12 -4 -30 -4z" />
    <glyph glyph-name="acute" unicode="&#xb4;" horiz-adv-x="188" 
d="M158 601q-19 -30 -36.5 -52t-31.5 -36q-17 -17 -31 -28l-21 19q13 14 36 44.5t47 77.5z" />
    <glyph glyph-name="paragraph" unicode="&#xb6;" horiz-adv-x="557" 
d="M400 714q-14 -123 -29.5 -227.5t-32.5 -209.5q43 11 74 35t50 57t28 74.5t9 86.5q0 6 -0.5 12.5t-1.5 13.5l53 6q1 -8 1.5 -15.5t0.5 -15.5q0 -51 -12.5 -98t-39.5 -85.5t-68.5 -65.5t-99.5 -37q-10 -57 -21.5 -117.5t-25.5 -127.5h-34q13 66 24.5 125t21.5 116
q-11 -1 -20.5 -1h-20.5q-10 -57 -21.5 -116t-24.5 -124h-34q13 64 24.5 125t22.5 119q-54 6 -94.5 27t-67.5 51t-40.5 67t-13.5 76q0 47 19.5 93.5t58 83t96 59.5t134.5 23q23 0 44.5 -2.5t40.5 -7.5zM228 275q19 109 34 214t27 205q-55 -5 -98 -27t-72.5 -54t-45 -71
t-15.5 -79q0 -33 10.5 -64.5t31.5 -57t53 -43t75 -23.5zM365 691q-19 4 -43 4q-13 -104 -26.5 -208.5t-33.5 -216.5q11 0 23.5 0.5t17.5 1.5q19 108 33.5 211.5t28.5 207.5z" />
    <glyph glyph-name="periodcentered" unicode="&#xb7;" horiz-adv-x="105" 
d="M76 293q-15 0 -22.5 10t-7.5 24q0 17 10.5 31.5t30.5 14.5q16 0 23 -9.5t7 -23.5q0 -17 -10.5 -32t-30.5 -15z" />
    <glyph glyph-name="cedilla" unicode="&#xb8;" horiz-adv-x="414" 
d="M163 -102q-5 5 -8.5 9t-8.5 8q18 18 23.5 36.5t11.5 52.5l21 -5q-3 -14 -6.5 -30t-8.5 -31q13 4 31 4q37 0 54.5 -18.5t17.5 -42.5q0 -27 -22.5 -51.5t-66.5 -24.5q-35 0 -56.5 15t-26.5 35l34 17q6 -18 18 -29.5t35 -11.5t37.5 16.5t14.5 36.5q0 14 -11 27t-33 13
q-15 0 -22.5 -2.5t-12 -6.5t-7.5 -8.5t-8 -8.5z" />
    <glyph glyph-name="onesuperior" unicode="&#xb9;" horiz-adv-x="119" 
d="M34 633q-5 4 -9.5 8t-9.5 9q14 11 26.5 23.5t20.5 23.5q10 12 18 24h33q-1 -8 -4.5 -20t-10 -40t-16 -76.5t-21.5 -128.5h-33q10 60 18 102.5t13.5 69.5t9 40.5t4.5 16.5q-2 -4 -13 -20.5t-26 -31.5z" />
    <glyph glyph-name="ordmasculine" unicode="&#xba;" horiz-adv-x="377" 
d="M330 308q-37 -31 -81 -31q-55 0 -92 21.5t-57 53.5t-24 69.5t6.5 69.5t35 53.5t61.5 21.5q45 0 70 -31t32.5 -77.5t-1.5 -100.5t-31 -100.5t-56.5 -77.5t-78.5 -31q-40 0 -66.5 21t-39 58.5t-9.5 90.5t21 117l44 -10q-10 -41 -16 -85t-3 -80t19 -59.5t50 -23.5
q28 0 51.5 27t39.5 67t24 87.5t5.5 87.5t-16.5 67t-41 27q-20 0 -35.5 -17.5t-23.5 -43.5t-6.5 -57t16.5 -57t44 -43.5t77 -17.5q19 0 35.5 5t32.5 16z" />
    <glyph glyph-name="guillemotright" unicode="&#xbb;" horiz-adv-x="306" 
d="M341 341q-30 -14 -63 -32q-28 -15 -61 -35.5t-65 -44.5q-10 17 -19 31q31 22 62.5 39.5t56.5 30.5q29 15 56 26q-26 18 -49 39t-41 38q-21 20 -40 41l30 32q20 -23 42 -47q19 -20 43.5 -44.5t52.5 -46.5zM226 341q-30 -14 -63 -32q-28 -15 -61 -35.5t-65 -44.5
q-10 17 -19 31q31 22 62.5 39.5t56.5 30.5q29 15 56 26q-26 18 -49 39t-41 38q-21 20 -40 41l30 32q20 -23 42 -47q19 -20 43.5 -44.5t52.5 -46.5z" />
    <glyph glyph-name="onequarter" unicode="&#xbc;" horiz-adv-x="377" 
d="M230 0l3 21h41q2 15 4 29l4 28q-17 2 -31.5 6t-27.5 4q-19 0 -28 -12q-5 3 -9.5 6.5t-9.5 7.5q26 33 42.5 81.5t16.5 101.5h33q0 -17 -3.5 -38t-10 -43.5t-15.5 -45t-21 -41.5q4 2 8 2h8q12 0 24.5 -3t26.5 -4q6 42 10.5 68t8 44t6 31t5.5 30h33q-1 -7 -2.5 -13
t-4.5 -21.5t-8.5 -47.5t-14.5 -90q20 3 34 18q7 -12 17 -23q-17 -19 -55 -20q-2 -14 -4 -27.5t-4 -27.5h40l-3 -21h-113zM34 368q-5 4 -9.5 8t-9.5 9q14 11 26.5 23.5t20.5 23.5q10 12 18 24h33q-1 -8 -4.5 -20t-10 -40t-16 -76.5t-21.5 -128.5h-33q10 60 18 102.5
t13.5 69.5t9 40.5t4.5 16.5q-2 -4 -13 -20.5t-26 -31.5zM250 464q7 -3 13 -6t13 -5q-28 -57 -54.5 -111t-53 -109.5t-55 -113.5t-61.5 -122q-6 2 -12 4.5t-12 5.5q34 71 62 128t53.5 109.5l51 105t55.5 114.5z" />
    <glyph glyph-name="onehalf" unicode="&#xbd;" horiz-adv-x="385" 
d="M250 464q7 -3 13 -6t13 -5q-28 -57 -54.5 -111t-53 -109.5t-55 -113.5t-61.5 -122q-6 2 -12 4.5t-12 5.5q34 71 62 128t53.5 109.5l51 105t55.5 114.5zM37 368q-5 4 -9.5 8t-9.5 9q14 11 26.5 23.5t20.5 23.5q10 12 18 24h33q-1 -8 -4.5 -20t-10 -40t-16 -76.5
t-21.5 -128.5h-33q10 60 18 102.5t13.5 69.5t9 40.5t4.5 16.5q-2 -4 -13 -20.5t-26 -31.5zM171 14q2 7 6 13.5t10 14.5q19 25 45.5 43.5t50 35.5t40 35t16.5 44q0 20 -11 32.5t-31 12.5q-23 0 -37 -17.5t-14 -41.5q0 -7 1.5 -13l3.5 -14l-35 -10q-4 12 -4 28q0 17 5 33.5
t16 30t28 21.5t41 8q32 0 51.5 -18t19.5 -53q0 -31 -16.5 -52t-40.5 -39t-51 -36.5t-49 -43.5q12 3 24 3q10 0 20.5 -2t21.5 -2q20 0 33 4t24 15l8 -16t9 -16q-9 -10 -19.5 -14.5t-28.5 -4.5q-26 0 -45 9t-36 9q-19 0 -34 -19z" />
    <glyph glyph-name="threequarters" unicode="&#xbe;" horiz-adv-x="374" 
d="M250 464q7 -3 13 -6t13 -5q-28 -57 -54.5 -111t-53 -109.5t-55 -113.5t-61.5 -122q-6 2 -12 4.5t-12 5.5q34 71 62 128t53.5 109.5l51 105t55.5 114.5zM36 368q-5 4 -9.5 8t-9.5 9q14 11 26.5 23.5t20.5 23.5q10 12 18 24h33q-1 -8 -4.5 -20t-10 -40t-16 -76.5
t-21.5 -128.5h-33q10 60 18 102.5t13.5 69.5t9 40.5t4.5 16.5q-2 -4 -13 -20.5t-26 -31.5zM262 127q0 7 0.5 13.5t0.5 14.5q8 0 15 -1t13 -3q12 9 19 24t7 31q0 20 -9.5 29.5t-23.5 9.5q-16 0 -26 -11.5t-10 -28.5v-7q-9 -2 -18 -3l-18 -2q0 33 18 55t56 22q34 0 50.5 -18
t16.5 -43q0 -19 -10 -37.5t-29 -30.5q17 -11 25 -28t8 -35q0 -31 -22.5 -57t-67.5 -26q-35 0 -54 18.5t-19 49.5q0 16 4 31l34 -10q-2 -7 -4 -13.5t-2 -12.5q0 -19 11.5 -31t30.5 -12q26 0 39.5 19.5t13.5 45.5q0 14 -5.5 28.5t-13.5 22.5q-12 -4 -30 -4z" />
    <glyph glyph-name="questiondown" unicode="&#xbf;" horiz-adv-x="426" 
d="M246 571q-7 -50 -24 -91t-38.5 -76t-44 -66.5t-41.5 -62.5t-31.5 -65t-12.5 -74q0 -51 25 -81.5t63 -30.5q25 0 44.5 11.5t33 30.5t21 43t7.5 49q0 37 -17 68.5t-52 41.5l32 41q23 -6 40 -19t28 -32t16.5 -41t5.5 -46q0 -33 -10.5 -64.5t-30.5 -57t-50 -41t-70 -15.5
q-64 0 -103.5 37t-39.5 108q0 44 13 79.5t33 67.5t44.5 62.5t47 64.5t40.5 74t26 91zM242 647q-15 0 -22 9.5t-7 23.5q0 17 10.5 32.5t30.5 15.5q16 0 23 -9.5t7 -23.5q0 -18 -11.5 -33t-30.5 -15z" />
    <glyph glyph-name="Agrave" unicode="&#xc0;" horiz-adv-x="1095" 
d="M626 403q55 -2 106.5 -16.5t95.5 -42.5q33 84 63.5 167t61.5 155t63.5 129t69.5 89l45 -21q-27 -123 -49 -241.5t-37.5 -229t-24.5 -210.5t-9 -185q0 -89 10.5 -160t33 -121.5t58.5 -77.5t87 -27q57 0 91 30.5t55 83.5l52 -18q-56 -141 -186 -141q-72 0 -122 30.5t-81 86
t-44.5 134t-13.5 175.5q0 15 0.5 31t0.5 33q0 78 -27 135t-72 95q-38 -101 -84 -195t-106 -166t-137.5 -115.5t-178.5 -43.5q-93 0 -161.5 31.5t-113.5 83.5t-67 119t-22 138q0 78 26 154t76.5 136.5t125.5 97.5t173 37q50 0 90 -12.5t70 -34t50.5 -51t31.5 -62.5zM233 154
q13 56 46 100t78.5 75.5t101 49.5t114.5 22q-10 28 -27 52.5t-41 42.5t-55 28.5t-70 10.5q-83 0 -146.5 -35t-106.5 -92t-65.5 -128.5t-22.5 -144.5q0 -65 18.5 -126.5t57 -108.5t97.5 -75.5t139 -28.5q85 0 153.5 43.5t124.5 115.5t101.5 165t84.5 192q-39 26 -85 38
t-95 14q2 -12 3.5 -24t1.5 -24q0 -42 -12 -84t-35.5 -78.5t-58 -64.5t-79.5 -42l-10 24l-10 24q37 12 65 35.5t47 53.5t28.5 65t9.5 70q0 11 -1 21t-3 20q-51 -5 -99.5 -21.5t-88.5 -44.5t-68.5 -67.5t-39.5 -88.5q-13 4 -25.5 8t-26.5 8zM1068 821q-8 -9 -13.5 -19.5
t-11.5 -21.5q-24 -45 -46 -99t-43.5 -113t-43 -122t-45.5 -127q34 -27 58 -63t37 -83q13 144 41.5 308t66.5 340zM1050 1046q24 -47 47 -77t36 -44l-21 -20q-15 11 -32 28q-14 14 -32 36t-36 52z" />
    <glyph glyph-name="Aacute" unicode="&#xc1;" horiz-adv-x="1095" 
d="M626 403q55 -2 106.5 -16.5t95.5 -42.5q33 84 63.5 167t61.5 155t63.5 129t69.5 89l45 -21q-27 -123 -49 -241.5t-37.5 -229t-24.5 -210.5t-9 -185q0 -89 10.5 -160t33 -121.5t58.5 -77.5t87 -27q57 0 91 30.5t55 83.5l52 -18q-56 -141 -186 -141q-72 0 -122 30.5t-81 86
t-44.5 134t-13.5 175.5q0 15 0.5 31t0.5 33q0 78 -27 135t-72 95q-38 -101 -84 -195t-106 -166t-137.5 -115.5t-178.5 -43.5q-93 0 -161.5 31.5t-113.5 83.5t-67 119t-22 138q0 78 26 154t76.5 136.5t125.5 97.5t173 37q50 0 90 -12.5t70 -34t50.5 -51t31.5 -62.5zM233 154
q13 56 46 100t78.5 75.5t101 49.5t114.5 22q-10 28 -27 52.5t-41 42.5t-55 28.5t-70 10.5q-83 0 -146.5 -35t-106.5 -92t-65.5 -128.5t-22.5 -144.5q0 -65 18.5 -126.5t57 -108.5t97.5 -75.5t139 -28.5q85 0 153.5 43.5t124.5 115.5t101.5 165t84.5 192q-39 26 -85 38
t-95 14q2 -12 3.5 -24t1.5 -24q0 -42 -12 -84t-35.5 -78.5t-58 -64.5t-79.5 -42l-10 24l-10 24q37 12 65 35.5t47 53.5t28.5 65t9.5 70q0 11 -1 21t-3 20q-51 -5 -99.5 -21.5t-88.5 -44.5t-68.5 -67.5t-39.5 -88.5q-13 4 -25.5 8t-26.5 8zM1068 821q-8 -9 -13.5 -19.5
t-11.5 -21.5q-24 -45 -46 -99t-43.5 -113t-43 -122t-45.5 -127q34 -27 58 -63t37 -83q13 144 41.5 308t66.5 340zM1219 1031q-19 -30 -36.5 -52t-31.5 -36q-17 -17 -31 -28l-21 19q13 14 36 44.5t47 77.5z" />
    <glyph glyph-name="Acircumflex" unicode="&#xc2;" horiz-adv-x="1095" 
d="M626 403q55 -2 106.5 -16.5t95.5 -42.5q33 84 63.5 167t61.5 155t63.5 129t69.5 89l45 -21q-27 -123 -49 -241.5t-37.5 -229t-24.5 -210.5t-9 -185q0 -89 10.5 -160t33 -121.5t58.5 -77.5t87 -27q57 0 91 30.5t55 83.5l52 -18q-56 -141 -186 -141q-72 0 -122 30.5t-81 86
t-44.5 134t-13.5 175.5q0 15 0.5 31t0.5 33q0 78 -27 135t-72 95q-38 -101 -84 -195t-106 -166t-137.5 -115.5t-178.5 -43.5q-93 0 -161.5 31.5t-113.5 83.5t-67 119t-22 138q0 78 26 154t76.5 136.5t125.5 97.5t173 37q50 0 90 -12.5t70 -34t50.5 -51t31.5 -62.5zM233 154
q13 56 46 100t78.5 75.5t101 49.5t114.5 22q-10 28 -27 52.5t-41 42.5t-55 28.5t-70 10.5q-83 0 -146.5 -35t-106.5 -92t-65.5 -128.5t-22.5 -144.5q0 -65 18.5 -126.5t57 -108.5t97.5 -75.5t139 -28.5q85 0 153.5 43.5t124.5 115.5t101.5 165t84.5 192q-39 26 -85 38
t-95 14q2 -12 3.5 -24t1.5 -24q0 -42 -12 -84t-35.5 -78.5t-58 -64.5t-79.5 -42l-10 24l-10 24q37 12 65 35.5t47 53.5t28.5 65t9.5 70q0 11 -1 21t-3 20q-51 -5 -99.5 -21.5t-88.5 -44.5t-68.5 -67.5t-39.5 -88.5q-13 4 -25.5 8t-26.5 8zM1068 821q-8 -9 -13.5 -19.5
t-11.5 -21.5q-24 -45 -46 -99t-43.5 -113t-43 -122t-45.5 -127q34 -27 58 -63t37 -83q13 144 41.5 308t66.5 340zM1123 1032q27 -44 42.5 -76t18.5 -40l-37 -18q-3 6 -13 33t-33 68q-8 -10 -19 -23t-23 -26.5t-24.5 -25t-21.5 -18.5l-24 26q43 32 68.5 58.5t38.5 43.5z" />
    <glyph glyph-name="Atilde" unicode="&#xc3;" horiz-adv-x="1095" 
d="M626 403q55 -2 106.5 -16.5t95.5 -42.5q33 84 63.5 167t61.5 155t63.5 129t69.5 89l45 -21q-27 -123 -49 -241.5t-37.5 -229t-24.5 -210.5t-9 -185q0 -89 10.5 -160t33 -121.5t58.5 -77.5t87 -27q57 0 91 30.5t55 83.5l52 -18q-56 -141 -186 -141q-72 0 -122 30.5t-81 86
t-44.5 134t-13.5 175.5q0 15 0.5 31t0.5 33q0 78 -27 135t-72 95q-38 -101 -84 -195t-106 -166t-137.5 -115.5t-178.5 -43.5q-93 0 -161.5 31.5t-113.5 83.5t-67 119t-22 138q0 78 26 154t76.5 136.5t125.5 97.5t173 37q50 0 90 -12.5t70 -34t50.5 -51t31.5 -62.5zM233 154
q13 56 46 100t78.5 75.5t101 49.5t114.5 22q-10 28 -27 52.5t-41 42.5t-55 28.5t-70 10.5q-83 0 -146.5 -35t-106.5 -92t-65.5 -128.5t-22.5 -144.5q0 -65 18.5 -126.5t57 -108.5t97.5 -75.5t139 -28.5q85 0 153.5 43.5t124.5 115.5t101.5 165t84.5 192q-39 26 -85 38
t-95 14q2 -12 3.5 -24t1.5 -24q0 -42 -12 -84t-35.5 -78.5t-58 -64.5t-79.5 -42l-10 24l-10 24q37 12 65 35.5t47 53.5t28.5 65t9.5 70q0 11 -1 21t-3 20q-51 -5 -99.5 -21.5t-88.5 -44.5t-68.5 -67.5t-39.5 -88.5q-13 4 -25.5 8t-26.5 8zM1068 821q-8 -9 -13.5 -19.5
t-11.5 -21.5q-24 -45 -46 -99t-43.5 -113t-43 -122t-45.5 -127q34 -27 58 -63t37 -83q13 144 41.5 308t66.5 340zM1008 934q12 16 28 21t34 5h8q21 -2 41.5 -6t37.5 -4q22 0 32.5 4.5t18.5 12.5l23 -30q-10 -11 -23 -17t-31 -6q-26 0 -53 10t-52 10q-13 0 -24 -4.5
t-21 -15.5z" />
    <glyph glyph-name="Adieresis" unicode="&#xc4;" horiz-adv-x="1095" 
d="M626 403q55 -2 106.5 -16.5t95.5 -42.5q33 84 63.5 167t61.5 155t63.5 129t69.5 89l45 -21q-27 -123 -49 -241.5t-37.5 -229t-24.5 -210.5t-9 -185q0 -89 10.5 -160t33 -121.5t58.5 -77.5t87 -27q57 0 91 30.5t55 83.5l52 -18q-56 -141 -186 -141q-72 0 -122 30.5t-81 86
t-44.5 134t-13.5 175.5q0 15 0.5 31t0.5 33q0 78 -27 135t-72 95q-38 -101 -84 -195t-106 -166t-137.5 -115.5t-178.5 -43.5q-93 0 -161.5 31.5t-113.5 83.5t-67 119t-22 138q0 78 26 154t76.5 136.5t125.5 97.5t173 37q50 0 90 -12.5t70 -34t50.5 -51t31.5 -62.5zM233 154
q13 56 46 100t78.5 75.5t101 49.5t114.5 22q-10 28 -27 52.5t-41 42.5t-55 28.5t-70 10.5q-83 0 -146.5 -35t-106.5 -92t-65.5 -128.5t-22.5 -144.5q0 -65 18.5 -126.5t57 -108.5t97.5 -75.5t139 -28.5q85 0 153.5 43.5t124.5 115.5t101.5 165t84.5 192q-39 26 -85 38
t-95 14q2 -12 3.5 -24t1.5 -24q0 -42 -12 -84t-35.5 -78.5t-58 -64.5t-79.5 -42l-10 24l-10 24q37 12 65 35.5t47 53.5t28.5 65t9.5 70q0 11 -1 21t-3 20q-51 -5 -99.5 -21.5t-88.5 -44.5t-68.5 -67.5t-39.5 -88.5q-13 4 -25.5 8t-26.5 8zM1068 821q-8 -9 -13.5 -19.5
t-11.5 -21.5q-24 -45 -46 -99t-43.5 -113t-43 -122t-45.5 -127q34 -27 58 -63t37 -83q13 144 41.5 308t66.5 340zM1056 932q-12 0 -18 8t-6 19q0 14 9 26t24 12q13 0 18.5 -8t5.5 -19q0 -13 -8.5 -25.5t-24.5 -12.5zM1158 932q-11 0 -17.5 7t-6.5 17q0 14 8 27.5t25 13.5
q12 0 18 -8t6 -19q0 -13 -8.5 -25.5t-24.5 -12.5z" />
    <glyph glyph-name="Aring" unicode="&#xc5;" horiz-adv-x="1095" 
d="M1134 998q31 0 46 -17.5t15 -40.5q0 -26 -16.5 -50t-48.5 -29h1q-27 -123 -49 -241.5t-37.5 -228.5t-24.5 -209.5t-9 -184.5q0 -87 10 -157t31.5 -120t56 -77t82.5 -27q64 0 99 29t56 80l52 -18q-56 -141 -186 -141q-72 0 -122 30.5t-81 86t-44.5 134t-13.5 175.5
q0 15 0.5 31t0.5 33q0 78 -27 135t-72 95q-38 -101 -84 -195t-106 -166t-137.5 -115.5t-178.5 -43.5q-93 0 -161.5 31.5t-113.5 83.5t-67 119t-22 138q0 78 26 154t76.5 136.5t125.5 97.5t173 37q50 0 90 -12.5t70 -34t50.5 -51t31.5 -62.5q55 -2 106.5 -16.5t95.5 -42.5
q32 81 61.5 160.5t58.5 150t59.5 127t65.5 91.5q-11 8 -15.5 19.5t-4.5 25.5t5.5 28t15.5 25.5t25 19t35 7.5zM233 154q13 56 46 100t78.5 75.5t101 49.5t114.5 22q-10 28 -27 52.5t-41 42.5t-55 28.5t-70 10.5q-83 0 -146.5 -35t-106.5 -92t-65.5 -128.5t-22.5 -144.5
q0 -65 18.5 -126.5t57 -108.5t97.5 -75.5t139 -28.5q85 0 153.5 43.5t124.5 115.5t101.5 165t84.5 192q-39 26 -85 38t-95 14q2 -12 3.5 -24t1.5 -24q0 -42 -12 -84t-35.5 -78.5t-58 -64.5t-79.5 -42l-10 24l-10 24q37 12 65 35.5t47 53.5t28.5 65t9.5 70q0 11 -1 21t-3 20
q-51 -5 -99.5 -21.5t-88.5 -44.5t-68.5 -67.5t-39.5 -88.5q-13 4 -25.5 8t-26.5 8zM1068 821q-8 -9 -13.5 -19.5t-11.5 -21.5q-24 -45 -46 -99t-43.5 -113t-43 -122t-45.5 -127q34 -27 58 -63t37 -83q13 144 41.5 308t66.5 340zM1132 979q-26 0 -40 -20t-14 -41q0 -16 9 -28
t28 -12q26 0 40 20t14 41q0 16 -8.5 28t-28.5 12z" />
    <glyph glyph-name="AE" unicode="&#xc6;" horiz-adv-x="1673" 
d="M776 649q14 -38 43 -74.5t74 -64.5q23 59 46 114t47 103.5t48.5 88.5t51.5 68l45 -21q-47 -214 -77 -407q17 -2 35.5 -3t38.5 -1q104 0 197 32q-20 54 -20 125q0 51 13 100t39 88t64 62.5t88 23.5q62 0 94.5 -37.5t32.5 -96.5q0 -44 -19 -84.5t-52.5 -75.5t-79.5 -64
t-100 -50q17 -37 48 -58q14 2 28.5 3.5t28.5 1.5q8 0 11 -1l-6 -50q-2 -1 -9 -1q-43 0 -75 17q-63 -15 -111 -51t-79.5 -84t-47.5 -103.5t-16 -109.5q0 -48 12.5 -92t38 -77.5t64 -53.5t89.5 -20q58 0 101.5 25.5t71.5 64.5t42 87t14 93q0 30 -6 56.5t-18 47t-29.5 32
t-40.5 11.5q-24 0 -42.5 -11.5t-32 -30.5t-20.5 -43.5t-7 -50.5q0 -23 6 -46t17 -43l-54 -27q-13 23 -19 49.5t-6 52.5q0 35 10.5 68.5t31 59.5t50.5 41.5t68 15.5q37 0 64.5 -14.5t46 -39.5t27.5 -58t9 -70q0 -51 -18 -104.5t-54 -97t-90.5 -71t-126.5 -27.5
q-65 0 -113 22.5t-80.5 60t-48.5 87t-16 103.5q0 57 18 114.5t53.5 108t89 89t124.5 56.5q-27 19 -45 51q-52 -16 -107.5 -24.5t-112.5 -8.5q-36 0 -69 3q-18 -121 -28 -229.5t-10 -201.5q0 -89 10.5 -160t33 -121.5t58.5 -77.5t87 -27q57 0 91 30.5t55 83.5l52 -18
q-56 -141 -186 -141q-72 0 -122 30.5t-81 86t-44.5 134t-13.5 175.5q0 110 11 219.5t31 225.5q-21 5 -40 10.5t-36 12.5q-28 -80 -58.5 -162.5t-67 -159.5t-80.5 -144.5t-98 -118t-120 -80t-146 -29.5q-93 0 -161.5 31.5t-113.5 83.5t-67 119t-22 138q0 78 26 154
t76.5 136.5t125.5 97.5t173 37q52 0 98.5 -18.5t81.5 -51t55.5 -78t20.5 -99.5q0 -42 -12 -84t-35.5 -78.5t-58 -64.5t-79.5 -42l-10 24l-10 24q37 12 65 35.5t47 53.5t28.5 65t9.5 70q0 40 -15 79t-42.5 69.5t-65 49t-82.5 18.5q-83 0 -146.5 -35t-106.5 -92t-65.5 -128.5
t-22.5 -144.5q0 -65 18.5 -126.5t57 -108.5t97.5 -75.5t139 -28.5q66 0 122 28.5t104 77.5t89.5 115.5t78.5 142t70 157t64 160.5q-56 29 -92 68t-54 83zM1361 613q0 -28 3 -55.5t11 -53.5q45 20 83 47t65.5 59.5t42.5 69t15 76.5q0 41 -18 70t-50 29q-38 0 -66.5 -20.5
t-47.5 -54t-28.5 -77.5t-9.5 -90zM1043 780q-30 -57 -58 -131t-57 -158q32 -15 70 -24q14 85 32 172.5t38 181.5q-8 -9 -13.5 -19.5t-11.5 -21.5z" />
    <glyph glyph-name="Ccedilla" unicode="&#xc7;" horiz-adv-x="932" 
d="M600 -283q11 4 28 4q37 0 54.5 -19t17.5 -42q0 -28 -22.5 -52t-66.5 -24q-35 0 -56 15t-26 37l33 14q5 -16 17.5 -28.5t35.5 -12.5q24 0 38 17t14 36q0 16 -10.5 28t-33.5 12q-22 0 -30.5 -6t-20.5 -15l-6 8t-7 8q16 16 23 31t14 40q-52 6 -89.5 36.5t-62.5 79
t-37.5 111.5t-13.5 134q-94 0 -163.5 23.5t-115.5 64t-68.5 93t-22.5 111.5q0 55 18.5 102.5t51.5 82.5t78 54.5t98 19.5q29 0 54 -7.5t45 -18.5l-27 -48q-32 21 -73 21q-43 0 -78.5 -16.5t-61.5 -45t-40.5 -66.5t-14.5 -82q0 -53 19.5 -99.5t59 -82t99.5 -56t141 -20.5
q1 81 15 166.5t39 166.5t61 152.5t80.5 125.5t97.5 85.5t113 31.5q40 0 70 -14.5t49.5 -40.5t29 -61.5t9.5 -77.5q0 -52 -15 -111t-44 -118t-72 -114.5t-99.5 -100t-126 -75.5t-150.5 -41q0 -66 8 -124.5t26 -103.5t47 -73.5t71 -32.5q7 38 11.5 81.5t11 86.5t16 83t26 70.5
t43 48.5t65.5 18q28 0 49 -11t35 -30.5t21 -45.5t7 -55q0 -45 -17 -94.5t-50 -90t-82.5 -67.5t-115.5 -27q-7 -26 -21 -49zM798 857q-47 0 -90 -30t-80.5 -81.5t-68.5 -120t-54 -145t-37 -158t-18 -157.5q75 11 137 41.5t112 74.5t88 97.5t63.5 109.5t38 111t12.5 103
q0 69 -25.5 112t-77.5 43zM775 156q-28 0 -46.5 -15.5t-31.5 -42t-21.5 -61.5t-15.5 -75t-14 -82.5t-17 -83.5q51 3 90.5 29t66 64t40 82t13.5 83q0 42 -15.5 71t-48.5 31z" />
    <glyph glyph-name="Egrave" unicode="&#xc8;" horiz-adv-x="756" 
d="M555 371q-2 -1 -9 -1q-43 0 -75 17q-63 -15 -111 -51t-79.5 -84t-47.5 -103.5t-16 -109.5q0 -48 12.5 -92t38 -77.5t64 -53.5t89.5 -20q58 0 101.5 25.5t71.5 64.5t42 87t14 93q0 30 -6 56.5t-18 47t-29.5 32t-40.5 11.5q-24 0 -42.5 -11.5t-32 -30.5t-20.5 -43.5
t-7 -50.5q0 -23 6 -46t17 -43l-54 -27q-13 23 -19 49.5t-6 52.5q0 35 10.5 68.5t31 59.5t50.5 41.5t68 15.5q37 0 64.5 -14.5t46 -39.5t27.5 -58t9 -70q0 -51 -18 -104.5t-54 -97t-90.5 -71t-126.5 -27.5q-65 0 -113 22.5t-80.5 60t-48.5 87t-16 103.5q0 57 18 114.5
t53.5 108t89 89t124.5 56.5q-16 11 -28 27t-21 36q-19 -2 -39 -3.5t-42 -1.5q-81 0 -139 17.5t-95 46t-54 64t-17 71.5q0 30 11 58t32 49t50.5 34t65.5 13q105 0 157 -92l-22 -16l-22 -16q-17 34 -44.5 56t-68.5 22q-26 0 -46.5 -8.5t-34.5 -23.5t-21.5 -34.5t-7.5 -41.5
q0 -29 14.5 -59t45.5 -54.5t79.5 -40t116.5 -15.5q19 0 35.5 1.5t33.5 3.5q-17 51 -17 109q0 51 13 100t39 88t64 62.5t88 23.5q62 0 94.5 -37.5t32.5 -96.5q0 -38 -15 -78.5t-45.5 -77.5t-78 -67t-111.5 -46q8 -21 19.5 -37t27.5 -26q14 2 28.5 3.5t28.5 1.5q8 0 11 -1z
M573 855q-38 0 -66.5 -20.5t-47.5 -54t-28.5 -77.5t-9.5 -90q0 -53 14 -101q54 15 93 43t64 62t37 70.5t12 68.5q0 41 -18 69t-50 30zM493 1046q24 -47 47 -77t36 -44l-21 -20q-15 11 -32 28q-14 14 -32 36t-36 52z" />
    <glyph glyph-name="Eacute" unicode="&#xc9;" horiz-adv-x="758" 
d="M557 371q-2 -1 -9 -1q-43 0 -75 17q-63 -15 -111 -51t-79.5 -84t-47.5 -103.5t-16 -109.5q0 -48 12.5 -92t38 -77.5t64 -53.5t89.5 -20q58 0 101.5 25.5t71.5 64.5t42 87t14 93q0 30 -6 56.5t-18 47t-29.5 32t-40.5 11.5q-24 0 -42.5 -11.5t-32 -30.5t-20.5 -43.5
t-7 -50.5q0 -23 6 -46t17 -43l-54 -27q-13 23 -19 49.5t-6 52.5q0 35 10.5 68.5t31 59.5t50.5 41.5t68 15.5q37 0 64.5 -14.5t46 -39.5t27.5 -58t9 -70q0 -51 -18 -104.5t-54 -97t-90.5 -71t-126.5 -27.5q-65 0 -113 22.5t-80.5 60t-48.5 87t-16 103.5q0 57 18 114.5
t53.5 108t89 89t124.5 56.5q-16 11 -28 27t-21 36q-19 -2 -39 -3.5t-42 -1.5q-81 0 -139 17.5t-95 46t-54 64t-17 71.5q0 30 11 58t32 49t50.5 34t65.5 13q105 0 157 -92l-22 -16l-22 -16q-17 34 -44.5 56t-68.5 22q-26 0 -46.5 -8.5t-34.5 -23.5t-21.5 -34.5t-7.5 -41.5
q0 -29 14.5 -59t45.5 -54.5t79.5 -40t116.5 -15.5q19 0 35.5 1.5t33.5 3.5q-17 51 -17 109q0 51 13 100t39 88t64 62.5t88 23.5q62 0 94.5 -37.5t32.5 -96.5q0 -38 -15 -78.5t-45.5 -77.5t-78 -67t-111.5 -46q8 -21 19.5 -37t27.5 -26q14 2 28.5 3.5t28.5 1.5q8 0 11 -1z
M575 855q-38 0 -66.5 -20.5t-47.5 -54t-28.5 -77.5t-9.5 -90q0 -53 14 -101q54 15 93 43t64 62t37 70.5t12 68.5q0 41 -18 69t-50 30zM674 1041q-19 -30 -36.5 -52t-31.5 -36q-17 -17 -31 -28l-21 19q13 14 36 44.5t47 77.5z" />
    <glyph glyph-name="Ecircumflex" unicode="&#xca;" horiz-adv-x="755" 
d="M554 371q-2 -1 -9 -1q-43 0 -75 17q-63 -15 -111 -51t-79.5 -84t-47.5 -103.5t-16 -109.5q0 -48 12.5 -92t38 -77.5t64 -53.5t89.5 -20q58 0 101.5 25.5t71.5 64.5t42 87t14 93q0 30 -6 56.5t-18 47t-29.5 32t-40.5 11.5q-24 0 -42.5 -11.5t-32 -30.5t-20.5 -43.5
t-7 -50.5q0 -23 6 -46t17 -43l-54 -27q-13 23 -19 49.5t-6 52.5q0 35 10.5 68.5t31 59.5t50.5 41.5t68 15.5q37 0 64.5 -14.5t46 -39.5t27.5 -58t9 -70q0 -51 -18 -104.5t-54 -97t-90.5 -71t-126.5 -27.5q-65 0 -113 22.5t-80.5 60t-48.5 87t-16 103.5q0 57 18 114.5
t53.5 108t89 89t124.5 56.5q-16 11 -28 27t-21 36q-19 -2 -39 -3.5t-42 -1.5q-81 0 -139 17.5t-95 46t-54 64t-17 71.5q0 30 11 58t32 49t50.5 34t65.5 13q105 0 157 -92l-22 -16l-22 -16q-17 34 -44.5 56t-68.5 22q-26 0 -46.5 -8.5t-34.5 -23.5t-21.5 -34.5t-7.5 -41.5
q0 -29 14.5 -59t45.5 -54.5t79.5 -40t116.5 -15.5q19 0 35.5 1.5t33.5 3.5q-17 51 -17 109q0 51 13 100t39 88t64 62.5t88 23.5q62 0 94.5 -37.5t32.5 -96.5q0 -38 -15 -78.5t-45.5 -77.5t-78 -67t-111.5 -46q8 -21 19.5 -37t27.5 -26q14 2 28.5 3.5t28.5 1.5q8 0 11 -1z
M572 855q-38 0 -66.5 -20.5t-47.5 -54t-28.5 -77.5t-9.5 -90q0 -53 14 -101q54 15 93 43t64 62t37 70.5t12 68.5q0 41 -18 69t-50 30zM617 1072q27 -44 42.5 -76t18.5 -40l-37 -18q-3 6 -13 33t-33 68q-8 -10 -19 -23t-23 -26.5t-24.5 -25t-21.5 -18.5l-24 26
q43 32 68.5 58.5t38.5 43.5z" />
    <glyph glyph-name="Edieresis" unicode="&#xcb;" horiz-adv-x="758" 
d="M555 371q-2 -1 -9 -1q-43 0 -75 17q-63 -15 -111 -51t-79.5 -84t-47.5 -103.5t-16 -109.5q0 -48 12.5 -92t38 -77.5t64 -53.5t89.5 -20q58 0 101.5 25.5t71.5 64.5t42 87t14 93q0 30 -6 56.5t-18 47t-29.5 32t-40.5 11.5q-24 0 -42.5 -11.5t-32 -30.5t-20.5 -43.5
t-7 -50.5q0 -23 6 -46t17 -43l-54 -27q-13 23 -19 49.5t-6 52.5q0 35 10.5 68.5t31 59.5t50.5 41.5t68 15.5q37 0 64.5 -14.5t46 -39.5t27.5 -58t9 -70q0 -51 -18 -104.5t-54 -97t-90.5 -71t-126.5 -27.5q-65 0 -113 22.5t-80.5 60t-48.5 87t-16 103.5q0 57 18 114.5
t53.5 108t89 89t124.5 56.5q-16 11 -28 27t-21 36q-19 -2 -39 -3.5t-42 -1.5q-81 0 -139 17.5t-95 46t-54 64t-17 71.5q0 30 11 58t32 49t50.5 34t65.5 13q105 0 157 -92l-22 -16l-22 -16q-17 34 -44.5 56t-68.5 22q-26 0 -46.5 -8.5t-34.5 -23.5t-21.5 -34.5t-7.5 -41.5
q0 -29 14.5 -59t45.5 -54.5t79.5 -40t116.5 -15.5q19 0 35.5 1.5t33.5 3.5q-17 51 -17 109q0 51 13 100t39 88t64 62.5t88 23.5q62 0 94.5 -37.5t32.5 -96.5q0 -38 -15 -78.5t-45.5 -77.5t-78 -67t-111.5 -46q8 -21 19.5 -37t27.5 -26q14 2 28.5 3.5t28.5 1.5q8 0 11 -1z
M573 855q-38 0 -66.5 -20.5t-47.5 -54t-28.5 -77.5t-9.5 -90q0 -53 14 -101q54 15 93 43t64 62t37 70.5t12 68.5q0 41 -18 69t-50 30zM523 927q-12 0 -18 8t-6 19q0 14 9 26t24 12q13 0 18.5 -8t5.5 -19q0 -13 -8.5 -25.5t-24.5 -12.5zM625 927q-11 0 -17.5 7t-6.5 17
q0 14 8 27.5t25 13.5q12 0 18 -8t6 -19q0 -13 -8.5 -25.5t-24.5 -12.5z" />
    <glyph glyph-name="Igrave" unicode="&#xcc;" horiz-adv-x="528" 
d="M569 876q-2 -24 -9 -45t-18 -38l-12 -50q-26 -114 -44 -228.5t-34 -233.5t-32 -245t-37 -263h-68q21 143 40 267.5t38 240t40 226.5t48 227q-38 -33 -85.5 -63.5t-97 -61.5t-97 -64t-84.5 -70.5t-59.5 -80.5t-22.5 -94q0 -37 11 -65.5t30 -48.5t44.5 -30.5t54.5 -10.5
q26 0 46 9.5t34 24.5t21 34.5t7 39.5q0 28 -14.5 53t-45.5 37q7 11 12.5 21.5t12.5 21.5q47 -19 69 -55.5t22 -78.5q0 -29 -10.5 -57.5t-31.5 -50.5t-51.5 -35.5t-70.5 -13.5q-42 0 -78 14t-62 40t-41 62t-15 80q0 62 27.5 113t72 94t100.5 79.5t112.5 70t109 64.5t89.5 63
q5 26 12 53.5t15 53.5zM476 1046q24 -47 47 -77t36 -44l-21 -20q-15 11 -32 28q-14 14 -32 36t-36 52z" />
    <glyph glyph-name="Iacute" unicode="&#xcd;" horiz-adv-x="543" 
d="M582 876q-2 -24 -9 -45t-18 -38l-12 -50q-26 -114 -44 -228.5t-34 -233.5t-32 -245t-37 -263h-68q21 143 40 267.5t38 240t40 226.5t48 227q-38 -33 -85.5 -63.5t-97 -61.5t-97 -64t-84.5 -70.5t-59.5 -80.5t-22.5 -94q0 -37 11 -65.5t30 -48.5t44.5 -30.5t54.5 -10.5
q26 0 46 9.5t34 24.5t21 34.5t7 39.5q0 28 -14.5 53t-45.5 37q7 11 12.5 21.5t12.5 21.5q47 -19 69 -55.5t22 -78.5q0 -29 -10.5 -57.5t-31.5 -50.5t-51.5 -35.5t-70.5 -13.5q-42 0 -78 14t-62 40t-41 62t-15 80q0 62 27.5 113t72 94t100.5 79.5t112.5 70t109 64.5t89.5 63
q5 26 12 53.5t15 53.5zM671 1031q-19 -30 -36.5 -52t-31.5 -36q-17 -17 -31 -28l-21 19q13 14 36 44.5t47 77.5z" />
    <glyph glyph-name="Icircumflex" unicode="&#xce;" horiz-adv-x="542" 
d="M582 876q-2 -24 -9 -45t-18 -38l-12 -50q-26 -114 -44 -228.5t-34 -233.5t-32 -245t-37 -263h-68q21 143 40 267.5t38 240t40 226.5t48 227q-38 -33 -85.5 -63.5t-97 -61.5t-97 -64t-84.5 -70.5t-59.5 -80.5t-22.5 -94q0 -37 11 -65.5t30 -48.5t44.5 -30.5t54.5 -10.5
q26 0 46 9.5t34 24.5t21 34.5t7 39.5q0 28 -14.5 53t-45.5 37q7 11 12.5 21.5t12.5 21.5q47 -19 69 -55.5t22 -78.5q0 -29 -10.5 -57.5t-31.5 -50.5t-51.5 -35.5t-70.5 -13.5q-42 0 -78 14t-62 40t-41 62t-15 80q0 62 27.5 113t72 94t100.5 79.5t112.5 70t109 64.5t89.5 63
q5 26 12 53.5t15 53.5zM597 1032q27 -44 42.5 -76t18.5 -40l-37 -18q-3 6 -13 33t-33 68q-8 -10 -19 -23t-23 -26.5t-24.5 -25t-21.5 -18.5l-24 26q43 32 68.5 58.5t38.5 43.5z" />
    <glyph glyph-name="Idieresis" unicode="&#xcf;" horiz-adv-x="541" 
d="M582 876q-2 -24 -9 -45t-18 -38l-12 -50q-26 -114 -44 -228.5t-34 -233.5t-32 -245t-37 -263h-68q21 143 40 267.5t38 240t40 226.5t48 227q-38 -33 -85.5 -63.5t-97 -61.5t-97 -64t-84.5 -70.5t-59.5 -80.5t-22.5 -94q0 -37 11 -65.5t30 -48.5t44.5 -30.5t54.5 -10.5
q26 0 46 9.5t34 24.5t21 34.5t7 39.5q0 28 -14.5 53t-45.5 37q7 11 12.5 21.5t12.5 21.5q47 -19 69 -55.5t22 -78.5q0 -29 -10.5 -57.5t-31.5 -50.5t-51.5 -35.5t-70.5 -13.5q-42 0 -78 14t-62 40t-41 62t-15 80q0 62 27.5 113t72 94t100.5 79.5t112.5 70t109 64.5t89.5 63
q5 26 12 53.5t15 53.5zM508 912q-12 0 -18 8t-6 19q0 14 9 26t24 12q13 0 18.5 -8t5.5 -19q0 -13 -8.5 -25.5t-24.5 -12.5zM610 912q-11 0 -17.5 7t-6.5 17q0 14 8 27.5t25 13.5q12 0 18 -8t6 -19q0 -13 -8.5 -25.5t-24.5 -12.5z" />
    <glyph glyph-name="Eth" unicode="&#xd0;" horiz-adv-x="898" 
d="M455 22l-6 -32h-229l6 32h229zM418 -232q-37 0 -66.5 3t-54 7t-44.5 9t-38 10q-36 -21 -74.5 -24.5t-76.5 7.5l9 47q37 5 64.5 4.5t53.5 -5.5q50 30 90.5 107.5t70.5 192.5q-76 2 -132.5 31t-94 76t-56 108.5t-18.5 129.5q0 99 33 177t88.5 132.5t128.5 83t152 28.5
q91 0 166.5 -32t130.5 -95.5t85.5 -158t30.5 -218.5q0 -74 -11.5 -148.5t-35.5 -143.5t-60.5 -129t-86.5 -104t-113.5 -69.5t-140.5 -25.5zM595 526q30 -33 42.5 -73t9 -81.5t-21.5 -81.5t-48.5 -73t-73 -56.5t-93.5 -31.5q-32 -121 -74.5 -197.5t-92.5 -115.5q32 -7 73 -13
t102 -6q99 0 171 50.5t119 132t69.5 184t22.5 206.5q0 117 -25 208.5t-70.5 155t-109 96.5t-141.5 33q-77 0 -141 -30.5t-110.5 -83.5t-72.5 -125.5t-26 -156.5q0 -64 17 -120.5t49.5 -98.5t80 -66.5t108.5 -25.5q21 89 36 193q39 280 79 399l55 -14q-11 -30 -21 -65.5
t-19.5 -79.5t-18.5 -99t-17 -124q-7 -58 -16 -109t-20 -97q68 12 109.5 49t58.5 85t10 99.5t-36 90.5z" />
    <glyph glyph-name="Ntilde" unicode="&#xd1;" horiz-adv-x="996" 
d="M1230 847q-76 0 -140 -63.5t-114.5 -175t-86.5 -263t-55 -326.5q17 -68 20 -128t-4 -109l-51 2q0 41 1 81t3 80q-20 89 -59 181.5t-80 184.5q-13 -66 -32 -131.5t-45 -125.5t-59 -111.5t-72.5 -89t-86 -59t-99.5 -21.5q-58 0 -107 21t-84.5 58t-55.5 87t-20 109
q0 57 19.5 113.5t56 101.5t88 73.5t115.5 28.5q39 0 72 -13t56.5 -36.5t37 -57t13.5 -74.5q0 -15 -4 -34.5t-10.5 -39.5t-16 -38.5t-20.5 -31.5l-46 33q12 15 21.5 32.5t16.5 35.5t11 35t4 31q0 25 -8 48.5t-23.5 41.5t-39.5 28.5t-56 10.5q-57 0 -101 -23.5t-73.5 -63
t-44.5 -90.5t-15 -106q0 -54 14.5 -100t42.5 -79.5t69.5 -53t96.5 -19.5q50 0 93 24t79 65.5t65.5 97t52.5 119.5t39.5 133t27.5 136q-36 85 -61.5 166t-25.5 154q0 44 12.5 74t42.5 30q27 0 45.5 -30.5t28.5 -82.5t10.5 -121.5t-8.5 -146.5q32 -75 66 -156t63 -160l7 -20
q12 108 33 210.5t50 193t66 165.5t80.5 129.5t93 84.5t105.5 30q48 0 81.5 -16t57.5 -47l-40 -40q-17 27 -47 40.5t-66 13.5zM584 717q1 -38 19 -95.5t47 -128.5q5 60 4.5 111.5t-5.5 89.5t-15.5 60t-25.5 22t-19.5 -16.5t-4.5 -42.5zM757 854q12 16 28 21t34 5h8
q21 -2 41.5 -6t37.5 -4q22 0 32.5 4.5t18.5 12.5l23 -30q-10 -11 -23 -17t-31 -6q-26 0 -53 10t-52 10q-13 0 -24 -4.5t-21 -15.5z" />
    <glyph glyph-name="Ograve" unicode="&#xd2;" horiz-adv-x="1116" 
d="M930 849q58 -35 92.5 -99.5t48 -147t6.5 -176.5t-31 -186.5t-64 -178t-93 -150.5t-118 -104t-139 -39q-64 0 -110.5 28.5t-78 78t-48.5 116t-20 141.5h-6q-89 0 -154.5 23t-109 61.5t-66 87t-26 99t12 99t48.5 87t82.5 61.5t113.5 23q29 0 48 -5t42 -19l-31 -53
q-17 11 -37 16.5t-43 5.5q-68 0 -114.5 -34t-68 -85.5t-16 -111t41.5 -111t105.5 -85.5t174.5 -34h3q-1 80 12 165.5t38 166.5t61.5 153t83 126t102 85.5t118.5 31.5q54 0 87.5 -30t47.5 -79.5t8.5 -113.5t-29.5 -132t-66 -134.5t-101.5 -121t-136.5 -92t-171 -47.5
q0 -71 11.5 -133t36.5 -108.5t63.5 -73.5t92.5 -27q67 0 124.5 39.5t103.5 104.5t80 150t55 176t27.5 182t-2.5 168t-34.5 134t-68.5 80zM790 860q-50 0 -95.5 -30.5t-85 -82.5t-72 -121t-56 -147t-37 -160t-15.5 -159q88 9 159 44t126 86t93.5 113t61 125.5t29 123
t-3.5 106t-36 74.5t-68 28zM769 1046q24 -47 47 -77t36 -44l-21 -20q-15 11 -32 28q-14 14 -32 36t-36 52z" />
    <glyph glyph-name="Oacute" unicode="&#xd3;" horiz-adv-x="1116" 
d="M930 849q58 -35 92.5 -99.5t48 -147t6.5 -176.5t-31 -186.5t-64 -178t-93 -150.5t-118 -104t-139 -39q-64 0 -110.5 28.5t-78 78t-48.5 116t-20 141.5h-6q-89 0 -154.5 23t-109 61.5t-66 87t-26 99t12 99t48.5 87t82.5 61.5t113.5 23q29 0 48 -5t42 -19l-31 -53
q-17 11 -37 16.5t-43 5.5q-68 0 -114.5 -34t-68 -85.5t-16 -111t41.5 -111t105.5 -85.5t174.5 -34h3q-1 80 12 165.5t38 166.5t61.5 153t83 126t102 85.5t118.5 31.5q54 0 87.5 -30t47.5 -79.5t8.5 -113.5t-29.5 -132t-66 -134.5t-101.5 -121t-136.5 -92t-171 -47.5
q0 -71 11.5 -133t36.5 -108.5t63.5 -73.5t92.5 -27q67 0 124.5 39.5t103.5 104.5t80 150t55 176t27.5 182t-2.5 168t-34.5 134t-68.5 80zM790 860q-50 0 -95.5 -30.5t-85 -82.5t-72 -121t-56 -147t-37 -160t-15.5 -159q88 9 159 44t126 86t93.5 113t61 125.5t29 123
t-3.5 106t-36 74.5t-68 28zM908 1041q-19 -30 -36.5 -52t-31.5 -36q-17 -17 -31 -28l-21 19q13 14 36 44.5t47 77.5z" />
    <glyph glyph-name="Ocircumflex" unicode="&#xd4;" horiz-adv-x="1116" 
d="M930 849q58 -35 92.5 -99.5t48 -147t6.5 -176.5t-31 -186.5t-64 -178t-93 -150.5t-118 -104t-139 -39q-64 0 -110.5 28.5t-78 78t-48.5 116t-20 141.5h-6q-89 0 -154.5 23t-109 61.5t-66 87t-26 99t12 99t48.5 87t82.5 61.5t113.5 23q29 0 48 -5t42 -19l-31 -53
q-17 11 -37 16.5t-43 5.5q-68 0 -114.5 -34t-68 -85.5t-16 -111t41.5 -111t105.5 -85.5t174.5 -34h3q-1 80 12 165.5t38 166.5t61.5 153t83 126t102 85.5t118.5 31.5q54 0 87.5 -30t47.5 -79.5t8.5 -113.5t-29.5 -132t-66 -134.5t-101.5 -121t-136.5 -92t-171 -47.5
q0 -71 11.5 -133t36.5 -108.5t63.5 -73.5t92.5 -27q67 0 124.5 39.5t103.5 104.5t80 150t55 176t27.5 182t-2.5 168t-34.5 134t-68.5 80zM790 860q-50 0 -95.5 -30.5t-85 -82.5t-72 -121t-56 -147t-37 -160t-15.5 -159q88 9 159 44t126 86t93.5 113t61 125.5t29 123
t-3.5 106t-36 74.5t-68 28zM854 1062q27 -44 42.5 -76t18.5 -40l-37 -18q-3 6 -13 33t-33 68q-8 -10 -19 -23t-23 -26.5t-24.5 -25t-21.5 -18.5l-24 26q43 32 68.5 58.5t38.5 43.5z" />
    <glyph glyph-name="Otilde" unicode="&#xd5;" horiz-adv-x="1116" 
d="M930 849q58 -35 92.5 -99.5t48 -147t6.5 -176.5t-31 -186.5t-64 -178t-93 -150.5t-118 -104t-139 -39q-64 0 -110.5 28.5t-78 78t-48.5 116t-20 141.5h-6q-89 0 -154.5 23t-109 61.5t-66 87t-26 99t12 99t48.5 87t82.5 61.5t113.5 23q29 0 48 -5t42 -19l-31 -53
q-17 11 -37 16.5t-43 5.5q-68 0 -114.5 -34t-68 -85.5t-16 -111t41.5 -111t105.5 -85.5t174.5 -34h3q-1 80 12 165.5t38 166.5t61.5 153t83 126t102 85.5t118.5 31.5q54 0 87.5 -30t47.5 -79.5t8.5 -113.5t-29.5 -132t-66 -134.5t-101.5 -121t-136.5 -92t-171 -47.5
q0 -71 11.5 -133t36.5 -108.5t63.5 -73.5t92.5 -27q67 0 124.5 39.5t103.5 104.5t80 150t55 176t27.5 182t-2.5 168t-34.5 134t-68.5 80zM790 860q-50 0 -95.5 -30.5t-85 -82.5t-72 -121t-56 -147t-37 -160t-15.5 -159q88 9 159 44t126 86t93.5 113t61 125.5t29 123
t-3.5 106t-36 74.5t-68 28zM707 954q12 16 28 21t34 5h8q21 -2 41.5 -6t37.5 -4q22 0 32.5 4.5t18.5 12.5l23 -30q-10 -11 -23 -17t-31 -6q-26 0 -53 10t-52 10q-13 0 -24 -4.5t-21 -15.5z" />
    <glyph glyph-name="Odieresis" unicode="&#xd6;" horiz-adv-x="1124" 
d="M930 849q58 -35 92.5 -99.5t48 -147t6.5 -176.5t-31 -186.5t-64 -178t-93 -150.5t-118 -104t-139 -39q-64 0 -110.5 28.5t-78 78t-48.5 116t-20 141.5h-6q-89 0 -154.5 23t-109 61.5t-66 87t-26 99t12 99t48.5 87t82.5 61.5t113.5 23q29 0 48 -5t42 -19l-31 -53
q-17 11 -37 16.5t-43 5.5q-68 0 -114.5 -34t-68 -85.5t-16 -111t41.5 -111t105.5 -85.5t174.5 -34h3q-1 80 12 165.5t38 166.5t61.5 153t83 126t102 85.5t118.5 31.5q54 0 87.5 -30t47.5 -79.5t8.5 -113.5t-29.5 -132t-66 -134.5t-101.5 -121t-136.5 -92t-171 -47.5
q0 -71 11.5 -133t36.5 -108.5t63.5 -73.5t92.5 -27q67 0 124.5 39.5t103.5 104.5t80 150t55 176t27.5 182t-2.5 168t-34.5 134t-68.5 80zM790 860q-50 0 -95.5 -30.5t-85 -82.5t-72 -121t-56 -147t-37 -160t-15.5 -159q88 9 159 44t126 86t93.5 113t61 125.5t29 123
t-3.5 106t-36 74.5t-68 28zM749 932q-12 0 -18 8t-6 19q0 14 9 26t24 12q13 0 18.5 -8t5.5 -19q0 -13 -8.5 -25.5t-24.5 -12.5zM851 932q-11 0 -17.5 7t-6.5 17q0 14 8 27.5t25 13.5q12 0 18 -8t6 -19q0 -13 -8.5 -25.5t-24.5 -12.5z" />
    <glyph glyph-name="multiply" unicode="&#xd7;" horiz-adv-x="217" 
d="M34 342q6 5 12 8.5t12 7.5l54 -79q20 19 39.5 38.5t39.5 38.5l20 -20l-82 -81l57 -82l-25 -18l-54 79l-78 -78l-21 20l83 82z" />
    <glyph glyph-name="Oslash" unicode="&#xd8;" horiz-adv-x="1116" 
d="M930 849q58 -34 92 -98t47.5 -145.5t7.5 -174.5t-29 -185t-62 -176.5t-91 -150.5t-115.5 -106.5t-136.5 -43.5l-11 -55l-37 2l9 54q-57 6 -98.5 36.5t-69.5 79t-43 112t-18 134.5h-6q-89 0 -154.5 23t-109 61.5t-66 87t-26 99t12 99t48.5 87t82.5 61.5t113.5 23
q29 0 48 -5t42 -19l-31 -53q-17 11 -37 16.5t-43 5.5q-68 0 -114.5 -34t-68 -85.5t-16 -111t41.5 -111t105 -85.5t175 -34h3q-1 80 12 165.5t38 166.5t61.5 153t83 126t102 85.5t118.5 31.5q5 0 8.5 -0.5t8.5 -1.5l7 40l37 -2l-8 -46q39 -15 61 -52t28.5 -87t-3.5 -110
t-34.5 -121.5t-64.5 -121t-94 -109.5q-24 -134 -47 -258.5t-42 -221.5q65 4 120.5 46t100.5 108t77.5 150.5t52.5 174.5t26 179t-3.5 164.5t-34.5 131.5t-68 79zM790 860q-50 0 -95.5 -30.5t-85 -82.5t-72 -121t-56 -147t-37 -160t-15.5 -159q81 8 147.5 39t119.5 76
q15 83 30.5 165.5t29.5 158t26 142.5t21 118q-4 0 -7 0.5t-6 0.5zM689 236q-54 -40 -119 -66.5t-141 -34.5q0 -67 10.5 -126t32 -104.5t55.5 -74.5t82 -35q15 86 36 200.5t44 240.5zM745 322q42 46 72.5 98.5t49.5 105.5t27 104t4 94t-19 75t-41 48q-8 -48 -18.5 -108
t-22.5 -127.5t-25.5 -141t-26.5 -148.5z" />
    <glyph glyph-name="Ugrave" unicode="&#xd9;" horiz-adv-x="1048" 
d="M802 998q24 -47 47 -77t36 -44l-21 -20q-15 11 -32 28q-14 14 -32 36t-36 52zM1137 -35q-14 -106 -54 -152t-98 -46q-66 0 -96 48.5t-30 161.5q0 45 6 98q-18 -56 -41.5 -110.5t-51 -98.5t-58.5 -71t-64 -27q-57 0 -84.5 39.5t-27.5 112.5q0 42 9.5 94.5t23.5 111
t31 119.5t31 119t23.5 110.5t9.5 93.5q0 61 -18 112.5t-51.5 89t-80.5 59t-105 21.5q-77 0 -138 -28t-104 -75.5t-66 -109.5t-23 -129q0 -55 14 -101.5t42 -80.5t71 -53t100 -19q60 0 100.5 25.5t66 64.5t37.5 85.5t17 88.5l56 -9q-8 -48 -26 -99.5t-50.5 -94t-81 -69.5
t-117.5 -27q-67 0 -120 22.5t-89.5 61.5t-56 92t-19.5 115q0 75 27.5 143t78.5 119t123.5 81t161.5 30q67 0 123.5 -22.5t96.5 -64t62.5 -99.5t22.5 -129q0 -70 -19.5 -155t-42.5 -173t-42.5 -171t-19.5 -149q0 -21 3 -40.5t10.5 -34.5t20.5 -23.5t32 -8.5q25 0 49 21t46 56
t42 79t36.5 90.5t28.5 91t20 79.5q13 84 30.5 174t37 176.5t40 165t39.5 140.5l57 -11q-11 -41 -22.5 -80.5t-23 -75.5t-20.5 -68.5t-14 -58.5q-9 -34 -19 -82.5t-21 -105t-21 -118t-18 -120t-13 -112t-5 -94.5q0 -75 19.5 -116t57.5 -41t64 41t34 124z" />
    <glyph glyph-name="Uacute" unicode="&#xda;" horiz-adv-x="1048" 
d="M956 991q-19 -30 -36.5 -52t-31.5 -36q-17 -17 -31 -28l-21 19q13 14 36 44.5t47 77.5zM1137 -35q-14 -106 -54 -152t-98 -46q-66 0 -96 48.5t-30 161.5q0 45 6 98q-18 -56 -41.5 -110.5t-51 -98.5t-58.5 -71t-64 -27q-57 0 -84.5 39.5t-27.5 112.5q0 42 9.5 94.5
t23.5 111t31 119.5t31 119t23.5 110.5t9.5 93.5q0 61 -18 112.5t-51.5 89t-80.5 59t-105 21.5q-77 0 -138 -28t-104 -75.5t-66 -109.5t-23 -129q0 -55 14 -101.5t42 -80.5t71 -53t100 -19q60 0 100.5 25.5t66 64.5t37.5 85.5t17 88.5l56 -9q-8 -48 -26 -99.5t-50.5 -94
t-81 -69.5t-117.5 -27q-67 0 -120 22.5t-89.5 61.5t-56 92t-19.5 115q0 75 27.5 143t78.5 119t123.5 81t161.5 30q67 0 123.5 -22.5t96.5 -64t62.5 -99.5t22.5 -129q0 -70 -19.5 -155t-42.5 -173t-42.5 -171t-19.5 -149q0 -21 3 -40.5t10.5 -34.5t20.5 -23.5t32 -8.5
q25 0 49 21t46 56t42 79t36.5 90.5t28.5 91t20 79.5q13 84 30.5 174t37 176.5t40 165t39.5 140.5l57 -11q-11 -41 -22.5 -80.5t-23 -75.5t-20.5 -68.5t-14 -58.5q-9 -34 -19 -82.5t-21 -105t-21 -118t-18 -120t-13 -112t-5 -94.5q0 -75 19.5 -116t57.5 -41t64 41t34 124z
" />
    <glyph glyph-name="Ucircumflex" unicode="&#xdb;" horiz-adv-x="779" 
d="M903 -35q-14 -106 -54 -152t-98 -46q-66 0 -96 48.5t-30 161.5q0 45 6 98q-18 -56 -41.5 -110.5t-51 -98.5t-58.5 -71t-64 -27q-57 0 -84.5 39.5t-27.5 112.5q0 42 9.5 94.5t23.5 111t31 119.5t31 119t23.5 110.5t9.5 93.5q0 61 -18 112.5t-51.5 89t-80.5 59t-105 21.5
q-77 0 -138 -28t-104 -75.5t-66 -109.5t-23 -129q0 -55 14 -101.5t42 -80.5t71 -53t100 -19q60 0 100.5 25.5t66 64.5t37.5 85.5t17 88.5l56 -9q-8 -48 -26 -99.5t-50.5 -94t-81 -69.5t-117.5 -27q-67 0 -120 22.5t-89.5 61.5t-56 92t-19.5 115q0 75 27.5 143t78.5 119
t123.5 81t161.5 30q67 0 123.5 -22.5t96.5 -64t62.5 -99.5t22.5 -129q0 -70 -19.5 -155t-42.5 -173t-42.5 -171t-19.5 -149q0 -21 3 -40.5t10.5 -34.5t20.5 -23.5t32 -8.5q25 0 49 21t46 56t42 79t36.5 90.5t28.5 91t20 79.5q13 84 30.5 174t37 176.5t40 165t39.5 140.5
l57 -11q-11 -41 -22.5 -80.5t-23 -75.5t-20.5 -68.5t-14 -58.5q-9 -34 -19 -82.5t-21 -105t-21 -118t-18 -120t-13 -112t-5 -94.5q0 -75 19.5 -116t57.5 -41t64 41t34 124zM694 1032q27 -44 42.5 -76t18.5 -40l-37 -18q-3 6 -13 33t-33 68q-8 -10 -19 -23t-23 -26.5
t-24.5 -25t-21.5 -18.5l-24 26q43 32 68.5 58.5t38.5 43.5z" />
    <glyph glyph-name="Udieresis" unicode="&#xdc;" horiz-adv-x="1048" 
d="M1137 -35q-14 -106 -54 -152t-98 -46q-66 0 -96 48.5t-30 161.5q0 45 6 98q-18 -56 -41.5 -110.5t-51 -98.5t-58.5 -71t-64 -27q-57 0 -84.5 39.5t-27.5 112.5q0 42 9.5 94.5t23.5 111t31 119.5t31 119t23.5 110.5t9.5 93.5q0 61 -18 112.5t-51.5 89t-80.5 59t-105 21.5
q-77 0 -138 -28t-104 -75.5t-66 -109.5t-23 -129q0 -55 14 -101.5t42 -80.5t71 -53t100 -19q60 0 100.5 25.5t66 64.5t37.5 85.5t17 88.5l56 -9q-8 -48 -26 -99.5t-50.5 -94t-81 -69.5t-117.5 -27q-67 0 -120 22.5t-89.5 61.5t-56 92t-19.5 115q0 75 27.5 143t78.5 119
t123.5 81t161.5 30q67 0 123.5 -22.5t96.5 -64t62.5 -99.5t22.5 -129q0 -70 -19.5 -155t-42.5 -173t-42.5 -171t-19.5 -149q0 -21 3 -40.5t10.5 -34.5t20.5 -23.5t32 -8.5q25 0 49 21t46 56t42 79t36.5 90.5t28.5 91t20 79.5q13 84 30.5 174t37 176.5t40 165t39.5 140.5
l57 -11q-11 -41 -22.5 -80.5t-23 -75.5t-20.5 -68.5t-14 -58.5q-9 -34 -19 -82.5t-21 -105t-21 -118t-18 -120t-13 -112t-5 -94.5q0 -75 19.5 -116t57.5 -41t64 41t34 124zM819 902q-12 0 -18 8t-6 19q0 14 9 26t24 12q13 0 18.5 -8t5.5 -19q0 -13 -8.5 -25.5t-24.5 -12.5z
M921 902q-11 0 -17.5 7t-6.5 17q0 14 8 27.5t25 13.5q12 0 18 -8t6 -19q0 -13 -8.5 -25.5t-24.5 -12.5z" />
    <glyph glyph-name="Yacute" unicode="&#xdd;" horiz-adv-x="803" 
d="M168 850q-71 0 -127 -25.5t-96 -67.5t-63.5 -96t-30 -109.5t4 -109.5t39 -96t75 -67.5t111.5 -25.5q60 0 100.5 20.5t66.5 56t39 84t19 104.5l59 -4q-10 -64 -30.5 -117.5t-54.5 -92.5t-82.5 -60.5t-113.5 -21.5q-76 0 -131 28.5t-89.5 75t-49 106t-8.5 121t32 121
t72 106t111.5 75t151.5 28.5q67 0 123 -22.5t96.5 -64t62.5 -99.5t22 -129q0 -58 -9 -112t-20 -106t-20 -103t-9 -103q0 -21 3 -40.5t10.5 -34.5t20.5 -23.5t32 -8.5q33 0 63 33.5t55.5 85.5t45 114.5t32.5 121.5q14 88 28.5 166.5t29 142.5t29 111t29.5 72q13 -4 26 -7
l26 -6q-7 -37 -17 -72.5t-20.5 -68t-19.5 -59.5t-14 -46q-17 -81 -32 -177.5t-31 -203.5q-9 -60 -20 -127.5t-27 -133.5t-38 -126.5t-51.5 -106.5t-68.5 -73.5t-89 -27.5q-52 0 -82 30.5t-30 80.5q0 27 10 51.5t28 43t42.5 29.5t53.5 12l2 -50q-42 -3 -68 -30t-26 -64
q0 -36 19.5 -54.5t50.5 -18.5q38 0 68 27.5t52.5 72.5t39.5 102t30 117t23 117.5t19 102.5q-17 -44 -37 -84.5t-42.5 -72t-48 -50t-52.5 -18.5q-57 0 -84.5 39t-27.5 112q0 53 10 105t21.5 104t21.5 105t10 110q0 61 -18.5 112.5t-52 89t-80.5 59t-105 21.5zM738 1021
q-19 -30 -36.5 -52t-31.5 -36q-17 -17 -31 -28l-21 19q13 14 36 44.5t47 77.5z" />
    <glyph glyph-name="Thorn" unicode="&#xde;" horiz-adv-x="372" 
d="M5 174q11 0 21 0.5t21 1.5q19 100 34.5 191.5t32.5 192.5q-40 -18 -73 -47l-25 29q25 19 50.5 33.5t53.5 23.5l21 122h55q-5 -29 -9.5 -56.5t-9.5 -55.5q6 1 12.5 1h12.5q42 0 73.5 -13t52.5 -35t31 -51.5t10 -62.5q0 -44 -17.5 -90.5t-51.5 -87.5t-85 -73t-118 -45
q-8 -38 -14.5 -76t-13.5 -76h-58l30 145q-9 -1 -18 -1h-18v30zM172 577q-17 -100 -34 -194t-35 -194q52 15 91.5 44.5t66 66t40 77.5t13.5 78q0 25 -7 48t-21 40.5t-35 28t-49 10.5q-13 0 -30 -5z" />
    <glyph glyph-name="germandbls" unicode="&#xdf;" horiz-adv-x="282" 
d="M32 -232q-14 0 -27 6t-22.5 22t-15.5 44t-6 73q2 56 10 129t20.5 152.5t28.5 160t32.5 152t32.5 128.5t29 90t32.5 49.5t39.5 16.5q29 0 50.5 -26.5t21.5 -76.5t-14 -91.5t-30.5 -78.5t-30.5 -72.5t-14 -72.5q0 -31 12.5 -55.5t27.5 -50t27.5 -56.5t12.5 -75
q0 -60 -25.5 -91.5t-66.5 -31.5q-31 0 -50.5 13.5t-30.5 34.5t-15.5 46.5t-5.5 49.5l50 -3q0 -5 -0.5 -8.5t-0.5 -7.5q0 -44 11.5 -68t34.5 -24t34.5 27.5t11.5 62.5q0 38 -10.5 65.5t-23 53t-23 53t-10.5 65.5q0 37 14 73.5t30.5 76.5t30.5 84t14 95q0 28 -7 41.5t-18 13.5
q-18 0 -32 -49q-14 -39 -32 -111.5t-37.5 -161.5t-37.5 -186.5t-30 -187.5q48 -30 68.5 -75t20.5 -90q0 -26 -6 -49t-17 -40.5t-26 -28t-32 -10.5zM34 -202q20 0 33.5 26.5t13.5 64.5q0 35 -14.5 72t-48.5 65q-5 -42 -8.5 -80t-3.5 -68q0 -37 7 -58.5t21 -21.5z" />
    <glyph glyph-name="agrave" unicode="&#xe0;" horiz-adv-x="332" 
d="M222 455h45q-19 -93 -34.5 -177t-24.5 -155q-2 -15 -3 -27.5t-1 -22.5q0 -36 12 -36q17 0 47.5 51.5t68.5 152.5q5 0 11.5 -4t6.5 -6q-26 -63 -46.5 -108t-38 -73.5t-32.5 -41.5t-31 -13q-41 0 -41 103l5 48q-11 -30 -23.5 -57.5t-27.5 -48t-32.5 -33t-37.5 -12.5
q-32 0 -47 31t-15 85q0 35 6 74.5t16.5 78.5t25.5 75t33 63t38.5 43.5t43.5 16.5q30 0 44 -21.5t18 -55.5zM148 422q-21 0 -41.5 -33t-37 -81t-26.5 -101.5t-10 -95.5q0 -32 7 -51.5t23 -19.5q13 0 28 15.5t28.5 41t26 57.5t22 65.5t15 65.5t5.5 57q0 36 -10 58t-30 22z
M101 626q24 -47 47 -77t36 -44l-21 -20q-15 11 -32 28q-14 14 -32 36t-36 52z" />
    <glyph glyph-name="aacute" unicode="&#xe1;" horiz-adv-x="332" 
d="M222 455h45q-19 -93 -34.5 -177t-24.5 -155q-2 -15 -3 -27.5t-1 -22.5q0 -36 12 -36q17 0 47.5 51.5t68.5 152.5q5 0 11.5 -4t6.5 -6q-26 -63 -46.5 -108t-38 -73.5t-32.5 -41.5t-31 -13q-41 0 -41 103l5 48q-11 -30 -23.5 -57.5t-27.5 -48t-32.5 -33t-37.5 -12.5
q-32 0 -47 31t-15 85q0 35 6 74.5t16.5 78.5t25.5 75t33 63t38.5 43.5t43.5 16.5q30 0 44 -21.5t18 -55.5zM148 422q-21 0 -41.5 -33t-37 -81t-26.5 -101.5t-10 -95.5q0 -32 7 -51.5t23 -19.5q13 0 28 15.5t28.5 41t26 57.5t22 65.5t15 65.5t5.5 57q0 36 -10 58t-30 22z
M245 601q-19 -30 -36.5 -52t-31.5 -36q-17 -17 -31 -28l-21 19q13 14 36 44.5t47 77.5z" />
    <glyph glyph-name="acircumflex" unicode="&#xe2;" horiz-adv-x="332" 
d="M222 455h45q-19 -93 -34.5 -177t-24.5 -155q-2 -15 -3 -27.5t-1 -22.5q0 -36 12 -36q17 0 47.5 51.5t68.5 152.5q5 0 11.5 -4t6.5 -6q-26 -63 -46.5 -108t-38 -73.5t-32.5 -41.5t-31 -13q-41 0 -41 103l5 48q-11 -30 -23.5 -57.5t-27.5 -48t-32.5 -33t-37.5 -12.5
q-32 0 -47 31t-15 85q0 35 6 74.5t16.5 78.5t25.5 75t33 63t38.5 43.5t43.5 16.5q30 0 44 -21.5t18 -55.5zM148 422q-21 0 -41.5 -33t-37 -81t-26.5 -101.5t-10 -95.5q0 -32 7 -51.5t23 -19.5q13 0 28 15.5t28.5 41t26 57.5t22 65.5t15 65.5t5.5 57q0 36 -10 58t-30 22z
M201 612q27 -44 42.5 -76t18.5 -40l-37 -18q-3 6 -13 33t-33 68q-8 -10 -19 -23t-23 -26.5t-24.5 -25t-21.5 -18.5l-24 26q43 32 68.5 58.5t38.5 43.5z" />
    <glyph glyph-name="atilde" unicode="&#xe3;" horiz-adv-x="332" 
d="M222 455h45q-19 -93 -34.5 -177t-24.5 -155q-2 -15 -3 -27.5t-1 -22.5q0 -36 12 -36q17 0 47.5 51.5t68.5 152.5q5 0 11.5 -4t6.5 -6q-26 -63 -46.5 -108t-38 -73.5t-32.5 -41.5t-31 -13q-41 0 -41 103l5 48q-11 -30 -23.5 -57.5t-27.5 -48t-32.5 -33t-37.5 -12.5
q-32 0 -47 31t-15 85q0 35 6 74.5t16.5 78.5t25.5 75t33 63t38.5 43.5t43.5 16.5q30 0 44 -21.5t18 -55.5zM148 422q-21 0 -41.5 -33t-37 -81t-26.5 -101.5t-10 -95.5q0 -32 7 -51.5t23 -19.5q13 0 28 15.5t28.5 41t26 57.5t22 65.5t15 65.5t5.5 57q0 36 -10 58t-30 22z
M64 524q12 16 28 21t34 5h8q21 -2 41.5 -6t37.5 -4q22 0 32.5 4.5t18.5 12.5l23 -30q-10 -11 -23 -17t-31 -6q-26 0 -53 10t-52 10q-13 0 -24 -4.5t-21 -15.5z" />
    <glyph glyph-name="adieresis" unicode="&#xe4;" horiz-adv-x="332" 
d="M222 455h45q-19 -93 -34.5 -177t-24.5 -155q-2 -15 -3 -27.5t-1 -22.5q0 -36 12 -36q17 0 47.5 51.5t68.5 152.5q5 0 11.5 -4t6.5 -6q-26 -63 -46.5 -108t-38 -73.5t-32.5 -41.5t-31 -13q-41 0 -41 103l5 48q-11 -30 -23.5 -57.5t-27.5 -48t-32.5 -33t-37.5 -12.5
q-32 0 -47 31t-15 85q0 35 6 74.5t16.5 78.5t25.5 75t33 63t38.5 43.5t43.5 16.5q30 0 44 -21.5t18 -55.5zM148 422q-21 0 -41.5 -33t-37 -81t-26.5 -101.5t-10 -95.5q0 -32 7 -51.5t23 -19.5q13 0 28 15.5t28.5 41t26 57.5t22 65.5t15 65.5t5.5 57q0 36 -10 58t-30 22z
M107 492q-12 0 -18 8t-6 19q0 14 9 26t24 12q13 0 18.5 -8t5.5 -19q0 -13 -8.5 -25.5t-24.5 -12.5zM209 492q-11 0 -17.5 7t-6.5 17q0 14 8 27.5t25 13.5q12 0 18 -8t6 -19q0 -13 -8.5 -25.5t-24.5 -12.5z" />
    <glyph glyph-name="aring" unicode="&#xe5;" horiz-adv-x="332" 
d="M222 455h45q-19 -93 -34.5 -177t-24.5 -155q-2 -15 -3 -27.5t-1 -22.5q0 -36 12 -36q17 0 47.5 51.5t68.5 152.5q5 0 11.5 -4t6.5 -6q-26 -63 -46.5 -108t-38 -73.5t-32.5 -41.5t-31 -13q-41 0 -41 103l5 48q-11 -30 -23.5 -57.5t-27.5 -48t-32.5 -33t-37.5 -12.5
q-32 0 -47 31t-15 85q0 35 6 74.5t16.5 78.5t25.5 75t33 63t38.5 43.5t43.5 16.5q30 0 44 -21.5t18 -55.5zM148 422q-21 0 -41.5 -33t-37 -81t-26.5 -101.5t-10 -95.5q0 -32 7 -51.5t23 -19.5q13 0 28 15.5t28.5 41t26 57.5t22 65.5t15 65.5t5.5 57q0 36 -10 58t-30 22z
M145 446q-32 0 -46.5 17.5t-14.5 40.5q0 14 5.5 28t15.5 25.5t25 19t35 7.5q32 0 46.5 -17.5t14.5 -40.5q0 -14 -5.5 -28.5t-15.5 -26t-25.5 -18.5t-34.5 -7zM163 565q-26 0 -40 -20t-14 -41q0 -16 9 -28t28 -12q26 0 40 20t14 41q0 16 -8.5 28t-28.5 12z" />
    <glyph glyph-name="ae" unicode="&#xe6;" horiz-adv-x="431" 
d="M278 40q24 0 46 18.5t41.5 47.5t36 64.5t29.5 70.5q5 0 11.5 -3.5t6.5 -6.5q-12 -35 -29.5 -76.5t-41 -77.5t-52 -60t-61.5 -24q-25 0 -41.5 11.5t-27.5 30.5t-17 44t-10 52q-24 -63 -52.5 -100.5t-63.5 -37.5q-39 0 -54.5 33.5t-15.5 85.5q0 35 6 74.5t16.5 78.5
t25.5 74.5t33 63t39 44t43 16.5q33 0 49.5 -28t21.5 -65q20 40 49 65t65 25q26 0 38.5 -17.5t12.5 -41.5q0 -29 -15 -59t-39 -55.5t-54 -44t-60 -24.5q-3 -18 -4.5 -48.5t4 -59t20.5 -49.5t44 -21zM148 422q-21 0 -41.5 -33t-37 -81t-26.5 -101.5t-10 -95.5q0 -32 7 -51.5
t23 -19.5q13 0 27.5 16t28 41.5t26.5 58t22.5 66t15 65t5.5 55.5q0 35 -10 57.5t-30 22.5zM320 427q-17 0 -32.5 -15.5t-29 -41t-24.5 -58.5t-17 -68q32 18 55 39t38 42.5t22 41t7 33.5q0 12 -5 19.5t-14 7.5z" />
    <glyph glyph-name="ccedilla" unicode="&#xe7;" horiz-adv-x="268" 
d="M143 253q19 31 28.5 63t9.5 57q0 24 -8 39t-24 15q-21 0 -40.5 -24.5t-34 -62t-23.5 -83.5t-9 -88q0 -27 4 -50t12.5 -40.5t22.5 -28t34 -10.5q44 2 79 51.5t74 149.5q4 0 12 -4t8 -6l-10 -23q-18 -44 -37.5 -83t-42 -68.5t-49 -46.5t-59.5 -17q-26 0 -44.5 13t-30 35
t-17 51.5t-5.5 63.5q0 51 12 105t33 98.5t50 73.5t64 29t51.5 -28t16.5 -69q0 -32 -9.5 -67.5t-26.5 -67.5zM53 -102q-5 5 -8.5 9t-8.5 8q18 18 23.5 36.5t11.5 52.5l21 -5q-3 -14 -6.5 -30t-8.5 -31q13 4 31 4q37 0 54.5 -18.5t17.5 -42.5q0 -27 -22.5 -51.5t-66.5 -24.5
q-35 0 -56.5 15t-26.5 35l34 17q6 -18 18 -29.5t35 -11.5t37.5 16.5t14.5 36.5q0 14 -11 27t-33 13q-15 0 -22.5 -2.5t-12 -6.5t-7.5 -8.5t-8 -8.5z" />
    <glyph glyph-name="egrave" unicode="&#xe8;" horiz-adv-x="265" 
d="M112 40q24 0 46 18.5t41.5 47.5t36 64.5t29.5 70.5q4 0 11 -4t7 -6q-12 -35 -29.5 -76.5t-40.5 -77.5t-51.5 -60t-62.5 -24q-29 0 -49.5 13t-33 35t-18.5 52t-6 63q0 51 12.5 105.5t34.5 99t52.5 73.5t66.5 29q29 0 43 -17.5t14 -44.5q0 -30 -15.5 -60t-39.5 -55.5
t-54 -44t-58 -23.5q-2 -15 -3.5 -29.5t-1.5 -28.5q0 -25 3.5 -47t12 -38t21.5 -25.5t32 -9.5zM153 436q-16 0 -31.5 -17t-29 -44t-24.5 -61.5t-17 -69.5q31 15 54 34.5t38 40.5t22.5 42t7.5 39q0 36 -20 36zM111 626q24 -47 47 -77t36 -44l-21 -20q-15 11 -32 28
q-14 14 -32 36t-36 52z" />
    <glyph glyph-name="eacute" unicode="&#xe9;" horiz-adv-x="265" 
d="M112 40q24 0 46 18.5t41.5 47.5t36 64.5t29.5 70.5q4 0 11 -4t7 -6q-12 -35 -29.5 -76.5t-40.5 -77.5t-51.5 -60t-62.5 -24q-29 0 -49.5 13t-33 35t-18.5 52t-6 63q0 51 12.5 105.5t34.5 99t52.5 73.5t66.5 29q29 0 43 -17.5t14 -44.5q0 -30 -15.5 -60t-39.5 -55.5
t-54 -44t-58 -23.5q-2 -15 -3.5 -29.5t-1.5 -28.5q0 -25 3.5 -47t12 -38t21.5 -25.5t32 -9.5zM153 436q-16 0 -31.5 -17t-29 -44t-24.5 -61.5t-17 -69.5q31 15 54 34.5t38 40.5t22.5 42t7.5 39q0 36 -20 36zM230 601q-19 -30 -36.5 -52t-31.5 -36q-17 -17 -31 -28l-21 19
q13 14 36 44.5t47 77.5z" />
    <glyph glyph-name="ecircumflex" unicode="&#xea;" horiz-adv-x="265" 
d="M112 40q24 0 46 18.5t41.5 47.5t36 64.5t29.5 70.5q4 0 11 -4t7 -6q-12 -35 -29.5 -76.5t-40.5 -77.5t-51.5 -60t-62.5 -24q-29 0 -49.5 13t-33 35t-18.5 52t-6 63q0 51 12.5 105.5t34.5 99t52.5 73.5t66.5 29q29 0 43 -17.5t14 -44.5q0 -30 -15.5 -60t-39.5 -55.5
t-54 -44t-58 -23.5q-2 -15 -3.5 -29.5t-1.5 -28.5q0 -25 3.5 -47t12 -38t21.5 -25.5t32 -9.5zM153 436q-16 0 -31.5 -17t-29 -44t-24.5 -61.5t-17 -69.5q31 15 54 34.5t38 40.5t22.5 42t7.5 39q0 36 -20 36zM190 612q27 -44 42.5 -76t18.5 -40l-37 -18q-3 6 -13 33t-33 68
q-8 -10 -19 -23t-23 -26.5t-24.5 -25t-21.5 -18.5l-24 26q43 32 68.5 58.5t38.5 43.5z" />
    <glyph glyph-name="edieresis" unicode="&#xeb;" horiz-adv-x="265" 
d="M112 40q24 0 46 18.5t41.5 47.5t36 64.5t29.5 70.5q4 0 11 -4t7 -6q-12 -35 -29.5 -76.5t-40.5 -77.5t-51.5 -60t-62.5 -24q-29 0 -49.5 13t-33 35t-18.5 52t-6 63q0 51 12.5 105.5t34.5 99t52.5 73.5t66.5 29q29 0 43 -17.5t14 -44.5q0 -30 -15.5 -60t-39.5 -55.5
t-54 -44t-58 -23.5q-2 -15 -3.5 -29.5t-1.5 -28.5q0 -25 3.5 -47t12 -38t21.5 -25.5t32 -9.5zM153 436q-16 0 -31.5 -17t-29 -44t-24.5 -61.5t-17 -69.5q31 15 54 34.5t38 40.5t22.5 42t7.5 39q0 36 -20 36zM215 493q-15 0 -22.5 10t-7.5 24q0 17 10.5 31.5t30.5 14.5
q16 0 23 -9.5t7 -23.5q0 -17 -10.5 -32t-30.5 -15zM115 493q-15 0 -22.5 10t-7.5 24q0 17 10.5 31.5t30.5 14.5q16 0 23 -9.5t7 -23.5q0 -17 -10.5 -32t-30.5 -15z" />
    <glyph glyph-name="igrave" unicode="&#xec;" horiz-adv-x="168" 
d="M19 626q24 -47 47 -77t36 -44l-21 -20q-15 11 -32 28q-14 14 -32 36t-36 52zM96 456q-12 -57 -23.5 -111.5t-20 -103.5t-14 -90t-5.5 -72q0 -23 5 -32t13 -9q23 0 51.5 52.5t65.5 150.5q4 0 11 -3t7 -7q-20 -52 -37 -95t-34 -74.5t-36.5 -49t-43.5 -17.5q-27 0 -39 29
t-12 75q0 38 6.5 84t15.5 94t19 94.5t18 84.5h53z" />
    <glyph glyph-name="iacute" unicode="&#xed;" horiz-adv-x="168" 
d="M163 601q-19 -30 -36.5 -52t-31.5 -36q-17 -17 -31 -28l-21 19q13 14 36 44.5t47 77.5zM96 456q-12 -57 -23.5 -111.5t-20 -103.5t-14 -90t-5.5 -72q0 -23 5 -32t13 -9q23 0 51.5 52.5t65.5 150.5q4 0 11 -3t7 -7q-20 -52 -37 -95t-34 -74.5t-36.5 -49t-43.5 -17.5
q-27 0 -39 29t-12 75q0 38 6.5 84t15.5 94t19 94.5t18 84.5h53z" />
    <glyph glyph-name="icircumflex" unicode="&#xee;" horiz-adv-x="168" 
d="M96 456q-12 -57 -23.5 -111.5t-20 -103.5t-14 -90t-5.5 -72q0 -23 5 -32t13 -9q23 0 51.5 52.5t65.5 150.5q4 0 11 -3t7 -7q-20 -52 -37 -95t-34 -74.5t-36.5 -49t-43.5 -17.5q-27 0 -39 29t-12 75q0 38 6.5 84t15.5 94t19 94.5t18 84.5h53zM114 612q27 -44 42.5 -76
t18.5 -40l-37 -18q-3 6 -13 33t-33 68q-8 -10 -19 -23t-23 -26.5t-24.5 -25t-21.5 -18.5l-24 26q43 32 68.5 58.5t38.5 43.5z" />
    <glyph glyph-name="idieresis" unicode="&#xef;" horiz-adv-x="168" 
d="M96 456q-12 -57 -23.5 -111.5t-20 -103.5t-14 -90t-5.5 -72q0 -23 5 -32t13 -9q23 0 51.5 52.5t65.5 150.5q4 0 11 -3t7 -7q-20 -52 -37 -95t-34 -74.5t-36.5 -49t-43.5 -17.5q-27 0 -39 29t-12 75q0 38 6.5 84t15.5 94t19 94.5t18 84.5h53zM28 492q-12 0 -18 8t-6 19
q0 14 9 26t24 12q13 0 18.5 -8t5.5 -19q0 -13 -8.5 -25.5t-24.5 -12.5zM130 492q-11 0 -17.5 7t-6.5 17q0 14 8 27.5t25 13.5q12 0 18 -8t6 -19q0 -13 -8.5 -25.5t-24.5 -12.5z" />
    <glyph glyph-name="eth" unicode="&#xf0;" horiz-adv-x="335" 
d="M150 560q37 8 65 22q-5 36 -19.5 51.5t-33.5 15.5q-33 0 -60 -30l-27 29q16 14 36.5 24.5t44.5 10.5q31 0 57 -18.5t39 -63.5q17 13 27.5 26t14.5 23l22 -18q-5 -10 -19 -26.5t-39 -33.5q1 -11 2.5 -25t1.5 -28q0 -36 -6 -88t-18 -110q-12 -77 -20 -135t-8 -84
q0 -28 4.5 -38.5t12.5 -10.5q22 0 48.5 51t59.5 137q5 0 11.5 -4.5t6.5 -5.5q-48 -120 -81 -178t-68 -58q-44 0 -44 101l9 62q-11 -34 -24 -64t-28.5 -52.5t-33.5 -35.5t-40 -13q-32 0 -46 33.5t-14 84.5q0 35 6 74.5t16.5 78.5t25 75t32.5 63t39 43.5t43 16.5
q26 0 40.5 -15.5t20.5 -43.5q5 42 7.5 79.5t2.5 69.5q-29 -15 -60 -23zM147 422q-21 0 -41 -33t-36.5 -81t-26.5 -102t-10 -95q0 -32 7 -51.5t23 -19.5q17 0 38 28t39.5 72t32 96.5t16.5 102.5q0 34 -9.5 58.5t-32.5 24.5z" />
    <glyph glyph-name="ntilde" unicode="&#xf1;" 
d="M-50 0q1 5 3 20t6.5 36t10.5 46t14 51q7 40 14.5 82t14 82t12 75.5t8.5 63.5h54l-24 -139q13 28 27.5 54t30 45.5t34 31.5t41.5 12q24 0 37.5 -16.5t13.5 -47.5q0 -32 -11 -74.5t-24 -87t-24 -86.5t-11 -73q0 -20 6.5 -28.5t17.5 -8.5q12 0 26 15.5t29 43t30.5 64.5
t32.5 80q5 0 11.5 -4t6.5 -6l-11 -29q-15 -39 -31 -76t-34 -66.5t-38.5 -47t-42.5 -17.5q-25 0 -41 18t-16 53t11 80t24.5 90t24.5 85t11 64q0 37 -23 37q-12 0 -29 -16.5t-34.5 -46.5t-35 -71t-31.5 -90l-37 -198h-54zM62 524q12 16 28 21t34 5h8q21 -2 41.5 -6t37.5 -4
q22 0 32.5 4.5t18.5 12.5l23 -30q-10 -11 -23 -17t-31 -6q-26 0 -53 10t-52 10q-13 0 -24 -4.5t-21 -15.5z" />
    <glyph glyph-name="ograve" unicode="&#xf2;" 
d="M319 241q4 0 12 -2.5t6 -7.5q-19 -50 -46 -80.5t-64 -41.5q-24 -49 -60 -82.5t-75 -33.5q-43 0 -66.5 28.5t-31 76t0 108t25.5 124.5l31 -8q5 28 16 53t27 44t37.5 30.5t47.5 11.5q40 0 61.5 -31t28 -78.5t-2 -104.5t-28.5 -109q25 12 44.5 35t36.5 68zM177 435
q-28 0 -49.5 -22.5t-34 -56.5t-15 -73t7.5 -73t33 -56.5t63 -22.5q19 49 30 102.5t11.5 98.5t-11 74t-35.5 29zM92 22q24 0 44.5 23t34.5 58q-32 3 -55 17t-38 36.5t-22 50.5t-8 58q-6 -32 -11 -73.5t-2.5 -79.5t15 -64t42.5 -26zM126 626q24 -47 47 -77t36 -44l-21 -20
q-15 11 -32 28q-14 14 -32 36t-36 52z" />
    <glyph glyph-name="oacute" unicode="&#xf3;" 
d="M319 241q4 0 12 -2.5t6 -7.5q-19 -50 -46 -80.5t-64 -41.5q-24 -49 -60 -82.5t-75 -33.5q-43 0 -66.5 28.5t-31 76t0 108t25.5 124.5l31 -8q5 28 16 53t27 44t37.5 30.5t47.5 11.5q40 0 61.5 -31t28 -78.5t-2 -104.5t-28.5 -109q25 12 44.5 35t36.5 68zM177 435
q-28 0 -49.5 -22.5t-34 -56.5t-15 -73t7.5 -73t33 -56.5t63 -22.5q19 49 30 102.5t11.5 98.5t-11 74t-35.5 29zM92 22q24 0 44.5 23t34.5 58q-32 3 -55 17t-38 36.5t-22 50.5t-8 58q-6 -32 -11 -73.5t-2.5 -79.5t15 -64t42.5 -26zM272 601q-19 -30 -36.5 -52t-31.5 -36
q-17 -17 -31 -28l-21 19q13 14 36 44.5t47 77.5z" />
    <glyph glyph-name="ocircumflex" unicode="&#xf4;" 
d="M319 241q4 0 12 -2.5t6 -7.5q-19 -50 -46 -80.5t-64 -41.5q-24 -49 -60 -82.5t-75 -33.5q-43 0 -66.5 28.5t-31 76t0 108t25.5 124.5l31 -8q5 28 16 53t27 44t37.5 30.5t47.5 11.5q40 0 61.5 -31t28 -78.5t-2 -104.5t-28.5 -109q25 12 44.5 35t36.5 68zM177 435
q-28 0 -49.5 -22.5t-34 -56.5t-15 -73t7.5 -73t33 -56.5t63 -22.5q19 49 30 102.5t11.5 98.5t-11 74t-35.5 29zM92 22q24 0 44.5 23t34.5 58q-32 3 -55 17t-38 36.5t-22 50.5t-8 58q-6 -32 -11 -73.5t-2.5 -79.5t15 -64t42.5 -26zM217 612q27 -44 42.5 -76t18.5 -40l-37 -18
q-3 6 -13 33t-33 68q-8 -10 -19 -23t-23 -26.5t-24.5 -25t-21.5 -18.5l-24 26q43 32 68.5 58.5t38.5 43.5z" />
    <glyph glyph-name="otilde" unicode="&#xf5;" 
d="M319 241q4 0 12 -2.5t6 -7.5q-19 -50 -46 -80.5t-64 -41.5q-24 -49 -60 -82.5t-75 -33.5q-43 0 -66.5 28.5t-31 76t0 108t25.5 124.5l31 -8q5 28 16 53t27 44t37.5 30.5t47.5 11.5q40 0 61.5 -31t28 -78.5t-2 -104.5t-28.5 -109q25 12 44.5 35t36.5 68zM177 435
q-28 0 -49.5 -22.5t-34 -56.5t-15 -73t7.5 -73t33 -56.5t63 -22.5q19 49 30 102.5t11.5 98.5t-11 74t-35.5 29zM92 22q24 0 44.5 23t34.5 58q-32 3 -55 17t-38 36.5t-22 50.5t-8 58q-6 -32 -11 -73.5t-2.5 -79.5t15 -64t42.5 -26zM83 524q12 16 28 21t34 5h8q21 -2 41.5 -6
t37.5 -4q22 0 32.5 4.5t18.5 12.5l23 -30q-10 -11 -23 -17t-31 -6q-26 0 -53 10t-52 10q-13 0 -24 -4.5t-21 -15.5z" />
    <glyph glyph-name="odieresis" unicode="&#xf6;" 
d="M319 241q4 0 12 -2.5t6 -7.5q-19 -50 -46 -80.5t-64 -41.5q-24 -49 -60 -82.5t-75 -33.5q-43 0 -66.5 28.5t-31 76t0 108t25.5 124.5l31 -8q5 28 16 53t27 44t37.5 30.5t47.5 11.5q40 0 61.5 -31t28 -78.5t-2 -104.5t-28.5 -109q25 12 44.5 35t36.5 68zM177 435
q-28 0 -49.5 -22.5t-34 -56.5t-15 -73t7.5 -73t33 -56.5t63 -22.5q19 49 30 102.5t11.5 98.5t-11 74t-35.5 29zM92 22q24 0 44.5 23t34.5 58q-32 3 -55 17t-38 36.5t-22 50.5t-8 58q-6 -32 -11 -73.5t-2.5 -79.5t15 -64t42.5 -26zM132 492q-12 0 -18 8t-6 19q0 14 9 26
t24 12q13 0 18.5 -8t5.5 -19q0 -13 -8.5 -25.5t-24.5 -12.5zM234 492q-11 0 -17.5 7t-6.5 17q0 14 8 27.5t25 13.5q12 0 18 -8t6 -19q0 -13 -8.5 -25.5t-24.5 -12.5z" />
    <glyph glyph-name="divide" unicode="&#xf7;" horiz-adv-x="234" 
d="M94 126q-12 0 -18 8t-6 19q0 13 9 25.5t24 12.5q13 0 18.5 -8t5.5 -19q0 -14 -8.5 -26t-24.5 -12zM21 273h194l-5 -32h-194zM128 317q-12 0 -18 8t-6 19q0 13 9 25.5t24 12.5q13 0 18.5 -8t5.5 -19q0 -14 -8.5 -26t-24.5 -12z" />
    <glyph glyph-name="oslash" unicode="&#xf8;" horiz-adv-x="325" 
d="M322 241q4 0 12 -2.5t6 -7.5q-19 -50 -46 -80.5t-64 -41.5q-24 -49 -60 -82.5t-75 -33.5q-44 0 -68 29l-19 -32l-13 6q6 10 12 19.5t11 19.5q-14 22 -19.5 54.5t-4.5 71t8.5 81.5t20.5 88l31 -8q5 28 16 53t27 44t37.5 30.5t47.5 11.5q22 0 38 -10l6 16l25 -13l-10 -21
q18 -21 26 -55t7 -74.5t-9.5 -83.5t-23.5 -82q25 12 44.5 35t36.5 68zM180 435q-31 0 -53.5 -27t-34.5 -66t-11 -82t18 -76q30 60 56.5 119t51.5 118q-11 14 -27 14zM109 167q13 -17 31.5 -26.5t44.5 -9.5q13 33 22.5 69t14 70.5t4.5 64.5t-6 53q-25 -53 -52.5 -108
t-58.5 -113zM95 22q24 0 44.5 23t34.5 58q-50 4 -80 37q-11 -20 -22.5 -41t-23.5 -41q6 -17 17.5 -26.5t29.5 -9.5zM83 153q-16 23 -23.5 51.5t-8.5 60.5q-4 -20 -7.5 -44.5t-5.5 -50t-1.5 -50t5.5 -44.5q11 19 21 38t20 39z" />
    <glyph glyph-name="ugrave" unicode="&#xf9;" horiz-adv-x="323" 
d="M96 456q-2 -12 -8 -38t-13 -59.5t-15 -71.5t-14.5 -75.5t-10.5 -71.5t-4 -58t6 -34.5t16 -10.5q9 0 23.5 17t29 45.5t28 67t21.5 81.5q10 57 21.5 110t21.5 98h52q-12 -57 -23 -111.5t-20 -103.5t-14.5 -90t-5.5 -72q0 -23 5.5 -32t13.5 -9q23 0 51 52.5t66 150.5
q3 0 10.5 -3t7.5 -7q-20 -52 -37 -95t-34.5 -74.5t-36.5 -49t-43 -17.5q-28 0 -38.5 28.5t-10.5 76.5q0 5 0.5 10t0.5 10q-21 -55 -49 -90t-57 -35t-41 28t-12 75q0 45 8 100.5t18.5 107t20.5 92.5t13 58h53zM103 626q24 -47 47 -77t36 -44l-21 -20q-15 11 -32 28
q-14 14 -32 36t-36 52z" />
    <glyph glyph-name="uacute" unicode="&#xfa;" horiz-adv-x="323" 
d="M96 456q-2 -12 -8 -38t-13 -59.5t-15 -71.5t-14.5 -75.5t-10.5 -71.5t-4 -58t6 -34.5t16 -10.5q9 0 23.5 17t29 45.5t28 67t21.5 81.5q10 57 21.5 110t21.5 98h52q-12 -57 -23 -111.5t-20 -103.5t-14.5 -90t-5.5 -72q0 -23 5.5 -32t13.5 -9q23 0 51 52.5t66 150.5
q3 0 10.5 -3t7.5 -7q-20 -52 -37 -95t-34.5 -74.5t-36.5 -49t-43 -17.5q-28 0 -38.5 28.5t-10.5 76.5q0 5 0.5 10t0.5 10q-21 -55 -49 -90t-57 -35t-41 28t-12 75q0 45 8 100.5t18.5 107t20.5 92.5t13 58h53zM227 601q-19 -30 -36.5 -52t-31.5 -36q-17 -17 -31 -28l-21 19
q13 14 36 44.5t47 77.5z" />
    <glyph glyph-name="ucircumflex" unicode="&#xfb;" horiz-adv-x="323" 
d="M96 456q-2 -12 -8 -38t-13 -59.5t-15 -71.5t-14.5 -75.5t-10.5 -71.5t-4 -58t6 -34.5t16 -10.5q9 0 23.5 17t29 45.5t28 67t21.5 81.5q10 57 21.5 110t21.5 98h52q-12 -57 -23 -111.5t-20 -103.5t-14.5 -90t-5.5 -72q0 -23 5.5 -32t13.5 -9q23 0 51 52.5t66 150.5
q3 0 10.5 -3t7.5 -7q-20 -52 -37 -95t-34.5 -74.5t-36.5 -49t-43 -17.5q-28 0 -38.5 28.5t-10.5 76.5q0 5 0.5 10t0.5 10q-21 -55 -49 -90t-57 -35t-41 28t-12 75q0 45 8 100.5t18.5 107t20.5 92.5t13 58h53zM187 612q27 -44 42.5 -76t18.5 -40l-37 -18q-3 6 -13 33t-33 68
q-8 -10 -19 -23t-23 -26.5t-24.5 -25t-21.5 -18.5l-24 26q43 32 68.5 58.5t38.5 43.5z" />
    <glyph glyph-name="udieresis" unicode="&#xfc;" horiz-adv-x="323" 
d="M96 456q-2 -12 -8 -38t-13 -59.5t-15 -71.5t-14.5 -75.5t-10.5 -71.5t-4 -58t6 -34.5t16 -10.5q9 0 23.5 17t29 45.5t28 67t21.5 81.5q10 57 21.5 110t21.5 98h52q-12 -57 -23 -111.5t-20 -103.5t-14.5 -90t-5.5 -72q0 -23 5.5 -32t13.5 -9q23 0 51 52.5t66 150.5
q3 0 10.5 -3t7.5 -7q-20 -52 -37 -95t-34.5 -74.5t-36.5 -49t-43 -17.5q-28 0 -38.5 28.5t-10.5 76.5q0 5 0.5 10t0.5 10q-21 -55 -49 -90t-57 -35t-41 28t-12 75q0 45 8 100.5t18.5 107t20.5 92.5t13 58h53zM97 492q-12 0 -18 8t-6 19q0 14 9 26t24 12q13 0 18.5 -8
t5.5 -19q0 -13 -8.5 -25.5t-24.5 -12.5zM199 492q-11 0 -17.5 7t-6.5 17q0 14 8 27.5t25 13.5q12 0 18 -8t6 -19q0 -13 -8.5 -25.5t-24.5 -12.5z" />
    <glyph glyph-name="yacute" unicode="&#xfd;" horiz-adv-x="299" 
d="M299 241q5 0 13 -2.5t7 -7.5q-32 -82 -75 -139.5t-85 -101.5q-9 -48 -17 -100t-21 -95t-32.5 -71t-50.5 -28q-26 0 -43 18.5t-17 52.5q0 28 10.5 54t28.5 51t41.5 49.5t49.5 50.5q6 30 11.5 61.5t10.5 63.5q-20 -45 -45 -73.5t-49 -28.5q-32 0 -42 33t-10 86
q2 45 10.5 98.5t18.5 103t18.5 88t11.5 52.5h53q-4 -21 -14.5 -67t-22 -101.5t-20 -111t-8.5 -94.5q0 -24 6 -34t16 -10q13 0 28 20t29.5 53t27.5 75.5t22 87.5q10 56 18.5 104t15.5 78h52q-5 -17 -13.5 -60.5t-19.5 -103t-23 -127.5t-24 -133q37 41 72 91t61 118zM12 -233
q0 -20 7.5 -29.5t18.5 -9.5q14 0 23 15t14 41l26 146q-37 -38 -63 -77t-26 -86zM235 601q-19 -30 -36.5 -52t-31.5 -36q-17 -17 -31 -28l-21 19q13 14 36 44.5t47 77.5z" />
    <glyph glyph-name="thorn" unicode="&#xfe;" 
d="M-92 -299q0 15 4 42.5t10.5 62t14.5 74t17 78.5q8 51 19 118t22.5 140.5t23.5 148.5t22 142.5t17.5 123t10.5 89.5h48q-1 -14 -6 -49.5t-13 -87.5t-18.5 -115.5t-21.5 -132.5q23 57 50.5 92t59.5 35q38 0 55 -37t17 -93q0 -39 -8 -83.5t-22 -87t-33.5 -79t-43.5 -59.5
q60 16 109.5 73.5t81.5 144.5q5 0 11.5 -4.5t6.5 -6.5q-18 -53 -45 -97t-59.5 -75t-69.5 -48t-74 -17q-31 0 -52 15.5t-29 47.5q-14 -89 -29 -177t-30 -178h-46zM151 421q-16 0 -31 -18t-29 -46.5t-25.5 -63t-20 -67.5t-13 -61t-4.5 -43t2 -29.5t6.5 -26t12.5 -19t21 -7.5
q23 0 44.5 31t38 76t26 96.5t9.5 93.5q0 37 -9 60.5t-28 23.5z" />
    <glyph glyph-name="ydieresis" unicode="&#xff;" horiz-adv-x="299" 
 />
    <glyph glyph-name="Abreve" unicode="&#x102;" horiz-adv-x="1095" 
d="M626 403q55 -2 106.5 -16.5t95.5 -42.5q33 84 63.5 167t61.5 155t63.5 129t69.5 89l45 -21q-27 -123 -49 -241.5t-37.5 -229t-24.5 -210.5t-9 -185q0 -89 10.5 -160t33 -121.5t58.5 -77.5t87 -27q57 0 91 30.5t55 83.5l52 -18q-56 -141 -186 -141q-72 0 -122 30.5t-81 86
t-44.5 134t-13.5 175.5q0 15 0.5 31t0.5 33q0 78 -27 135t-72 95q-38 -101 -84 -195t-106 -166t-137.5 -115.5t-178.5 -43.5q-93 0 -161.5 31.5t-113.5 83.5t-67 119t-22 138q0 78 26 154t76.5 136.5t125.5 97.5t173 37q50 0 90 -12.5t70 -34t50.5 -51t31.5 -62.5zM233 154
q13 56 46 100t78.5 75.5t101 49.5t114.5 22q-10 28 -27 52.5t-41 42.5t-55 28.5t-70 10.5q-83 0 -146.5 -35t-106.5 -92t-65.5 -128.5t-22.5 -144.5q0 -65 18.5 -126.5t57 -108.5t97.5 -75.5t139 -28.5q85 0 153.5 43.5t124.5 115.5t101.5 165t84.5 192q-39 26 -85 38
t-95 14q2 -12 3.5 -24t1.5 -24q0 -42 -12 -84t-35.5 -78.5t-58 -64.5t-79.5 -42l-10 24l-10 24q37 12 65 35.5t47 53.5t28.5 65t9.5 70q0 11 -1 21t-3 20q-51 -5 -99.5 -21.5t-88.5 -44.5t-68.5 -67.5t-39.5 -88.5q-13 4 -25.5 8t-26.5 8zM1068 821q-8 -9 -13.5 -19.5
t-11.5 -21.5q-24 -45 -46 -99t-43.5 -113t-43 -122t-45.5 -127q34 -27 58 -63t37 -83q13 144 41.5 308t66.5 340zM1212 1007l-4 -17q-12 -42 -38.5 -64t-53.5 -22q-26 0 -45.5 21.5t-19.5 66.5q0 6 0.5 12.5t1.5 12.5l33 1q-1 -8 -1.5 -18t-0.5 -16q0 -27 9.5 -43t29.5 -16
q19 0 35 21t24 71z" />
    <glyph glyph-name="abreve" unicode="&#x103;" horiz-adv-x="332" 
d="M222 455h45q-19 -93 -34.5 -177t-24.5 -155q-2 -15 -3 -27.5t-1 -22.5q0 -36 12 -36q17 0 47.5 51.5t68.5 152.5q5 0 11.5 -4t6.5 -6q-26 -63 -46.5 -108t-38 -73.5t-32.5 -41.5t-31 -13q-41 0 -41 103l5 48q-11 -30 -23.5 -57.5t-27.5 -48t-32.5 -33t-37.5 -12.5
q-32 0 -47 31t-15 85q0 35 6 74.5t16.5 78.5t25.5 75t33 63t38.5 43.5t43.5 16.5q30 0 44 -21.5t18 -55.5zM148 422q-21 0 -41.5 -33t-37 -81t-26.5 -101.5t-10 -95.5q0 -32 7 -51.5t23 -19.5q13 0 28 15.5t28.5 41t26 57.5t22 65.5t15 65.5t5.5 57q0 36 -10 58t-30 22z
M285 581l-4 -17q-12 -42 -38.5 -64t-53.5 -22q-26 0 -45.5 21.5t-19.5 66.5q0 6 0.5 12.5t1.5 12.5l33 1q-1 -8 -1.5 -18t-0.5 -16q0 -27 9.5 -43t29.5 -16q19 0 35 21t24 71z" />
    <glyph glyph-name="Dcroat" unicode="&#x110;" horiz-adv-x="918" 
d="M418 -232q-37 0 -66.5 3t-54 7t-44.5 9t-38 10q-36 -21 -74.5 -24.5t-76.5 7.5l9 47q37 5 64.5 4.5t53.5 -5.5q50 30 90.5 107.5t70.5 192.5q-76 2 -132.5 31t-94 76t-56 108.5t-18.5 129.5q0 99 33 177t88.5 132.5t128.5 83t152 28.5q91 0 166.5 -32t130.5 -95.5
t85.5 -158t30.5 -218.5q0 -74 -11.5 -148.5t-35.5 -143.5t-60.5 -129t-86.5 -104t-113.5 -69.5t-140.5 -25.5zM384 278q3 17 5.5 34.5t5.5 36.5q39 280 79 399l55 -14q-11 -30 -21 -65.5t-19.5 -79.5t-18.5 -99t-17 -124q-3 -23 -6 -45t-7 -43h54l-5 -32h-54
q-5 -23 -9 -44.5t-9 -41.5q68 12 109.5 49t58.5 85t10 99.5t-36 90.5l36 42q30 -33 42.5 -73t9 -81.5t-21.5 -81.5t-48.5 -73t-73 -56.5t-93.5 -31.5q-32 -121 -74.5 -197.5t-92.5 -115.5q32 -7 73 -13t102 -6q99 0 171 50.5t119 132t69.5 184t22.5 206.5q0 117 -25 208.5
t-70.5 155t-109 96.5t-141.5 33q-77 0 -141 -30.5t-110.5 -83.5t-72.5 -125.5t-26 -156.5q0 -64 17 -120.5t49.5 -98.5t80 -66.5t108.5 -25.5q5 22 9.5 44t9.5 46h-48l5 32h49z" />
    <glyph glyph-name="dcroat" unicode="&#x111;" horiz-adv-x="338" 
d="M245 600q10 53 18.5 101t16.5 86h47q-4 -32 -12 -81t-19 -106h60l-6 -32h-59q-13 -70 -26.5 -144t-25 -139t-19 -114t-7.5 -69q0 -28 4.5 -38.5t12.5 -10.5q22 0 49 51t59 137q5 0 12 -5t7 -6q-45 -121 -83 -178t-70 -57q-45 0 -45 89q0 10 2 27.5t5 40.5
q-11 -33 -24 -62t-28 -50.5t-32.5 -34t-38.5 -12.5q-32 0 -46 33.5t-14 84.5q0 35 6 74.5t16 78.5t25 75t33 63t38.5 43.5t43.5 16.5q28 0 43 -18.5t20 -50.5q7 41 15 85.5t16 89.5h-68l6 32h68zM147 422q-21 0 -41.5 -33t-37 -81t-26.5 -102t-10 -95q0 -32 7 -51.5
t23 -19.5q18 0 40 32.5t41 79t32 98.5t13 91q0 33 -9.5 57t-31.5 24z" />
    <glyph glyph-name="Itilde" unicode="&#x128;" horiz-adv-x="541" 
d="M582 876q-2 -24 -9 -45t-18 -38l-12 -50q-26 -114 -44 -228.5t-34 -233.5t-32 -245t-37 -263h-68q21 143 40 267.5t38 240t40 226.5t48 227q-38 -33 -85.5 -63.5t-97 -61.5t-97 -64t-84.5 -70.5t-59.5 -80.5t-22.5 -94q0 -37 11 -65.5t30 -48.5t44.5 -30.5t54.5 -10.5
q26 0 46 9.5t34 24.5t21 34.5t7 39.5q0 28 -14.5 53t-45.5 37q7 11 12.5 21.5t12.5 21.5q47 -19 69 -55.5t22 -78.5q0 -29 -10.5 -57.5t-31.5 -50.5t-51.5 -35.5t-70.5 -13.5q-42 0 -78 14t-62 40t-41 62t-15 80q0 62 27.5 113t72 94t100.5 79.5t112.5 70t109 64.5t89.5 63
q5 26 12 53.5t15 53.5zM446 933q12 16 28 21t34 5h8q21 -2 41.5 -6t37.5 -4q22 0 32.5 4.5t18.5 12.5l23 -30q-10 -11 -23 -17t-31 -6q-26 0 -53 10t-52 10q-13 0 -24 -4.5t-21 -15.5z" />
    <glyph glyph-name="itilde" unicode="&#x129;" horiz-adv-x="168" 
d="M96 456q-12 -57 -23.5 -111.5t-20 -103.5t-14 -90t-5.5 -72q0 -23 5 -32t13 -9q23 0 51.5 52.5t65.5 150.5q4 0 11 -3t7 -7q-20 -52 -37 -95t-34 -74.5t-36.5 -49t-43.5 -17.5q-27 0 -39 29t-12 75q0 38 6.5 84t15.5 94t19 94.5t18 84.5h53zM-27 524q12 16 28 21t34 5h8
q21 -2 41.5 -6t37.5 -4q22 0 32.5 4.5t18.5 12.5l23 -30q-10 -11 -23 -17t-31 -6q-26 0 -53 10t-52 10q-13 0 -24 -4.5t-21 -15.5z" />
    <glyph glyph-name="dotlessi" unicode="&#x131;" horiz-adv-x="168" 
d="M96 456q-12 -57 -23.5 -111.5t-20 -103.5t-14 -90t-5.5 -72q0 -23 5 -32t13 -9q23 0 51.5 52.5t65.5 150.5q4 0 11 -3t7 -7q-20 -52 -37 -95t-34 -74.5t-36.5 -49t-43.5 -17.5q-27 0 -39 29t-12 75q0 38 6.5 84t15.5 94t19 94.5t18 84.5h53z" />
    <glyph glyph-name="Lslash" unicode="&#x141;" horiz-adv-x="809" 
d="M335 161q39 0 75 5.5t68 16.5q8 38 14 81t11 92q18 163 42 266t53.5 161.5t65 80.5t76.5 22q67 0 101 -52.5t34 -140.5q0 -67 -21 -144.5t-64 -150t-107 -133.5t-151 -96q-8 -34 -15.5 -64t-16.5 -57h68l-6 -32h-73q-24 -64 -52 -106q43 -15 82 -33t76.5 -33.5
t76.5 -25.5t82 -10q27 0 46.5 8t33.5 21t22.5 29t13.5 33l51 -14q-8 -26 -21.5 -48t-33 -37.5t-47 -24.5t-64.5 -9q-47 0 -90 11t-84.5 27.5t-82.5 36t-83 36.5q-50 -64 -107 -87.5t-117 -23.5q-21 0 -40.5 5.5t-34.5 16.5t-24 26.5t-9 36.5q0 18 8.5 35.5t26 32t43.5 23
t62 8.5q48 0 89.5 -6.5t78.5 -17.5q23 36 43 90h-66q2 8 3.5 16t3.5 16h69q15 44 27 101q-32 -8 -65.5 -13t-70.5 -5q-94 0 -161 24.5t-110.5 64t-64 89.5t-20.5 102q0 49 17 95t49.5 82t78.5 58t105 22q32 0 55.5 -7t46.5 -21l-26 -49q-31 22 -76 22q-48 0 -85.5 -17.5
t-63.5 -46.5t-39.5 -66.5t-13.5 -77.5q0 -44 18 -88t55.5 -78.5t95.5 -56t139 -21.5zM745 857q-26 0 -51.5 -18t-49.5 -71.5t-45 -152t-38 -259.5q-5 -40 -10 -75.5t-11 -68.5q73 37 126.5 97t88.5 128.5t51.5 139t16.5 129.5q0 66 -20 108.5t-58 42.5zM199 -205q48 0 92 22
t83 78q-35 12 -71.5 19t-75.5 7q-24 0 -42.5 -6.5t-31 -17t-19 -23t-6.5 -25.5q0 -21 18 -37.5t53 -16.5z" />
    <glyph glyph-name="lslash" unicode="&#x142;" horiz-adv-x="192" 
d="M189 423l-6 -32h-59q-23 -48 -43 -82.5t-31 -51.5q-5 -39 -7.5 -73.5t-2.5 -62.5q0 -44 8 -64t22 -20q26 0 55.5 53.5t66.5 150.5q4 0 10.5 -3t6.5 -7v-2q-45 -120 -80 -178t-76 -58q-35 0 -47 41t-12 113q2 51 8.5 113t18.5 131h-27l5 32h27q18 100 38 170.5t40 114.5
t39 64.5t35 20.5q20 0 30.5 -17t10.5 -47q0 -45 -7.5 -87t-19.5 -80t-26 -73t-27 -66h50zM192 730q0 25 -11 25q-10 0 -23 -28t-27 -74.5t-28 -106.5t-26 -123h34q15 35 29.5 74.5t26 79t18.5 79t7 74.5zM58 308q7 14 17.5 35.5t21.5 47.5h-26q-4 -21 -7 -42t-6 -41z" />
    <glyph glyph-name="OE" unicode="&#x152;" horiz-adv-x="1290" 
d="M738 452q104 0 197 32q-20 54 -20 125q0 51 13 100t39 88t64 62.5t88 23.5q62 0 94.5 -37.5t32.5 -96.5q0 -44 -19 -84.5t-52.5 -75.5t-79.5 -64t-100 -50q17 -37 48 -58q14 2 28.5 3.5t28.5 1.5q8 0 11 -1l-6 -50q-2 -1 -9 -1q-43 0 -75 17q-63 -15 -111 -51t-79.5 -84
t-47.5 -103.5t-16 -109.5q0 -48 12.5 -92t38 -77.5t64 -53.5t89.5 -20q58 0 101.5 25.5t71.5 64.5t42 87t14 93q0 30 -6 56.5t-18 47t-29.5 32t-40.5 11.5q-24 0 -42.5 -11.5t-32 -30.5t-20.5 -43.5t-7 -50.5q0 -23 6 -46t17 -43l-54 -27q-13 23 -19 49.5t-6 52.5
q0 35 10.5 68.5t31 59.5t50.5 41.5t68 15.5q37 0 64.5 -14.5t46 -39.5t27.5 -58t9 -70q0 -51 -18 -104.5t-54 -97t-90.5 -71t-126.5 -27.5q-65 0 -113 22.5t-80.5 60t-48.5 87t-16 103.5q0 57 18 114.5t53.5 108t89 89t124.5 56.5q-27 19 -45 51q-52 -16 -107.5 -24.5
t-112.5 -8.5q-12 0 -23 0.5t-22 1.5q-6 -77 -21.5 -156t-40.5 -152t-59 -137t-75.5 -111.5t-90.5 -75t-104 -27.5q-71 0 -121.5 35.5t-81.5 95.5t-44 139t-9.5 166.5t22 177.5t50 172.5t75.5 151.5t99 114l27 -28q-45 -44 -82.5 -110.5t-66 -145t-46.5 -164t-23 -168t3 -157
t32 -131t65.5 -90t101.5 -33.5q50 0 93.5 26.5t80 73t65 108.5t49 133t33.5 147.5t17 150.5q-94 14 -158.5 53.5t-100.5 90t-45.5 105t5.5 100t54 75t99 29.5q57 0 97 -35t64 -94t33.5 -137t5.5 -165q13 -1 26 -1.5t27 -0.5zM485 860q-43 0 -70.5 -25t-37.5 -64.5t-1 -87
t39.5 -91.5t84 -80t133.5 -51q3 81 -5 153t-26 127t-47.5 87t-69.5 32zM1191 756q0 41 -18 69t-50 30q-38 0 -66.5 -20.5t-47.5 -54t-28.5 -77.5t-9.5 -90q0 -28 3 -55.5t11 -53.5q45 20 83 47t65.5 59.5t42.5 69t15 76.5z" />
    <glyph glyph-name="oe" unicode="&#x153;" horiz-adv-x="488" 
d="M92 22q16 0 31.5 10.5t29 29t25.5 43.5t21 53q-27 1 -52 11t-43.5 29.5t-29.5 48.5t-11 68q0 28 7.5 54.5t22.5 47t36.5 32.5t49.5 12q37 0 57.5 -27t27.5 -69q23 43 52.5 70.5t64.5 27.5q29 0 43 -17.5t14 -44.5q0 -41 -14.5 -78.5t-38.5 -68.5t-55 -53t-64 -33v-8
q0 -25 3.5 -47t12 -38t21.5 -25.5t32 -9.5q24 0 46 18.5t41.5 47.5t36 64.5t29.5 70.5q4 0 11 -4t7 -6q-12 -35 -29.5 -76.5t-40.5 -77.5t-51.5 -60t-62.5 -24q-46 0 -70.5 30.5t-32.5 78.5q-24 -48 -56.5 -78.5t-70.5 -30.5q-43 0 -66.5 28.5t-31 76t0 108t25.5 124.5
l37 -9q-18 -84 -22 -150q-2 -28 -0.5 -55t7.5 -48t18 -33.5t32 -12.5zM99 314q0 -65 31.5 -98.5t75.5 -35.5q12 43 18 88.5t3 82.5t-15 60.5t-35 23.5q-17 0 -31.5 -10t-25 -26.5t-16 -38.5t-5.5 -46zM376 437q-22 0 -40.5 -25t-32.5 -62t-23.5 -79.5t-12.5 -77.5
q25 11 48.5 31t41.5 47t28.5 60t10.5 69q0 16 -5 26.5t-15 10.5z" />
    <glyph glyph-name="Scaron" unicode="&#x160;" horiz-adv-x="1034" 
d="M45 174q38 -30 83.5 -46.5t105.5 -21.5q-1 5 -1 10v20q0 75 21.5 149t63 132t102.5 94t141 36q51 0 89.5 -19t65 -52t41.5 -76.5t18 -91.5q71 60 127 127q-1 12 -1 24.5v24.5q0 195 32.5 297.5t101.5 102.5q37 0 53 -25t16 -60q0 -69 -37.5 -158.5t-106.5 -182.5
q0 -27 1 -54t1 -53q0 -114 -25.5 -219.5t-76.5 -186.5t-128.5 -129t-181.5 -48q-65 0 -113 17.5t-82.5 45t-56.5 61.5t-35 67.5t-18.5 63t-7.5 47.5q-57 0 -116 16.5t-105 44.5zM638 -40l-16 24t-16 23q55 40 86.5 103.5t39.5 132.5q-94 -71 -204.5 -117.5t-233.5 -55.5
q7 -56 27.5 -104.5t54 -84.5t81 -57t109.5 -21q81 0 144 42t105.5 114.5t65 169.5t22.5 207v60q-29 -32 -61 -64t-67 -61q-2 -45 -11.5 -90.5t-26.5 -87t-41.5 -76t-57.5 -57.5zM737 283q-3 48 -13.5 90.5t-32 74.5t-55.5 50.5t-82 18.5q-64 0 -113.5 -33.5t-83 -87
t-51 -121t-17.5 -135.5q0 -8 0.5 -15.5t1.5 -15.5q127 7 239.5 54.5t206.5 119.5zM1073 799q0 21 -7.5 35t-24.5 16q-24 0 -40 -21.5t-25.5 -62t-13 -98.5t-3.5 -130v-36q54 81 84 158.5t30 138.5zM1031 913q-27 44 -42.5 76t-18.5 40l35 16q5 -10 13.5 -34.5t31.5 -65.5
q9 11 20.5 24.5t23.5 27t24 25.5t21 19l25 -29q-39 -29 -66 -56.5t-40 -44.5z" />
    <glyph glyph-name="scaron" unicode="&#x161;" horiz-adv-x="237" 
d="M16 85q0 -21 12 -36t34 -15q28 0 45.5 27t17.5 63q0 27 -6 55t-15 58.5t-19 64.5t-17 72q-12 -39 -25.5 -76.5t-24.5 -66.5q-5 0 -9 2q-9 4 -9 8q12 34 29 79.5t32 92.5q-3 17 -4.5 36.5t-1.5 48.5q0 27 6 52t12 46l42 -8q-4 -43 -9.5 -77.5t-15.5 -66.5q2 -38 16 -78.5
t30 -81t29 -80t13 -75.5q0 -13 -3 -23q16 26 31 59.5t31 75.5q4 0 11 -4t7 -6q-13 -30 -29.5 -71t-40 -78t-55 -63t-73.5 -26q-17 0 -33 5t-28.5 16t-20 28t-5.5 41zM89 653q-27 44 -42.5 76t-18.5 40l35 16q5 -10 13.5 -34.5t31.5 -65.5q9 11 20.5 24.5t23.5 27t24 25.5
t21 19l25 -29q-39 -29 -66 -56.5t-40 -44.5z" />
    <glyph glyph-name="Utilde" unicode="&#x168;" horiz-adv-x="1048" 
d="M1137 -35q-14 -106 -54 -152t-98 -46q-66 0 -96 48.5t-30 161.5q0 45 6 98q-18 -56 -41.5 -110.5t-51 -98.5t-58.5 -71t-64 -27q-57 0 -84.5 39.5t-27.5 112.5q0 42 9.5 94.5t23.5 111t31 119.5t31 119t23.5 110.5t9.5 93.5q0 61 -18 112.5t-51.5 89t-80.5 59t-105 21.5
q-77 0 -138 -28t-104 -75.5t-66 -109.5t-23 -129q0 -55 14 -101.5t42 -80.5t71 -53t100 -19q60 0 100.5 25.5t66 64.5t37.5 85.5t17 88.5l56 -9q-8 -48 -26 -99.5t-50.5 -94t-81 -69.5t-117.5 -27q-67 0 -120 22.5t-89.5 61.5t-56 92t-19.5 115q0 75 27.5 143t78.5 119
t123.5 81t161.5 30q67 0 123.5 -22.5t96.5 -64t62.5 -99.5t22.5 -129q0 -70 -19.5 -155t-42.5 -173t-42.5 -171t-19.5 -149q0 -21 3 -40.5t10.5 -34.5t20.5 -23.5t32 -8.5q25 0 49 21t46 56t42 79t36.5 90.5t28.5 91t20 79.5q13 84 30.5 174t37 176.5t40 165t39.5 140.5
l57 -11q-11 -41 -22.5 -80.5t-23 -75.5t-20.5 -68.5t-14 -58.5q-9 -34 -19 -82.5t-21 -105t-21 -118t-18 -120t-13 -112t-5 -94.5q0 -75 19.5 -116t57.5 -41t64 41t34 124zM740 930q12 16 28 21t34 5h8q21 -2 41.5 -6t37.5 -4q22 0 32.5 4.5t18.5 12.5l23 -30
q-10 -11 -23 -17t-31 -6q-26 0 -53 10t-52 10q-13 0 -24 -4.5t-21 -15.5z" />
    <glyph glyph-name="utilde" unicode="&#x169;" horiz-adv-x="323" 
d="M96 456q-2 -12 -8 -38t-13 -59.5t-15 -71.5t-14.5 -75.5t-10.5 -71.5t-4 -58t6 -34.5t16 -10.5q9 0 23.5 17t29 45.5t28 67t21.5 81.5q10 57 21.5 110t21.5 98h52q-12 -57 -23 -111.5t-20 -103.5t-14.5 -90t-5.5 -72q0 -23 5.5 -32t13.5 -9q23 0 51 52.5t66 150.5
q3 0 10.5 -3t7.5 -7q-20 -52 -37 -95t-34.5 -74.5t-36.5 -49t-43 -17.5q-28 0 -38.5 28.5t-10.5 76.5q0 5 0.5 10t0.5 10q-21 -55 -49 -90t-57 -35t-41 28t-12 75q0 45 8 100.5t18.5 107t20.5 92.5t13 58h53zM47 543q12 16 28 21t34 5h8q21 -2 41.5 -6t37.5 -4
q22 0 32.5 4.5t18.5 12.5l23 -30q-10 -11 -23 -17t-31 -6q-26 0 -53 10t-52 10q-13 0 -24 -4.5t-21 -15.5z" />
    <glyph glyph-name="Ydieresis" unicode="&#x178;" horiz-adv-x="803" 
d="M168 850q-71 0 -127 -25.5t-96 -67.5t-63.5 -96t-30 -109.5t4 -109.5t39 -96t75 -67.5t111.5 -25.5q60 0 100.5 20.5t66.5 56t39 84t19 104.5l59 -4q-10 -64 -30.5 -117.5t-54.5 -92.5t-82.5 -60.5t-113.5 -21.5q-76 0 -131 28.5t-89.5 75t-49 106t-8.5 121t32 121
t72 106t111.5 75t151.5 28.5q67 0 123 -22.5t96.5 -64t62.5 -99.5t22 -129q0 -58 -9 -112t-20 -106t-20 -103t-9 -103q0 -21 3 -40.5t10.5 -34.5t20.5 -23.5t32 -8.5q33 0 63 33.5t55.5 85.5t45 114.5t32.5 121.5q14 88 28.5 166.5t29 142.5t29 111t29.5 72q13 -4 26 -7
l26 -6q-7 -37 -17 -72.5t-20.5 -68t-19.5 -59.5t-14 -46q-17 -81 -32 -177.5t-31 -203.5q-9 -60 -20 -127.5t-27 -133.5t-38 -126.5t-51.5 -106.5t-68.5 -73.5t-89 -27.5q-52 0 -82 30.5t-30 80.5q0 27 10 51.5t28 43t42.5 29.5t53.5 12l2 -50q-42 -3 -68 -30t-26 -64
q0 -36 19.5 -54.5t50.5 -18.5q38 0 68 27.5t52.5 72.5t39.5 102t30 117t23 117.5t19 102.5q-17 -44 -37 -84.5t-42.5 -72t-48 -50t-52.5 -18.5q-57 0 -84.5 39t-27.5 112q0 53 10 105t21.5 104t21.5 105t10 110q0 61 -18.5 112.5t-52 89t-80.5 59t-105 21.5zM564 892
q-12 0 -18 8t-6 19q0 14 9 26t24 12q13 0 18.5 -8t5.5 -19q0 -13 -8.5 -25.5t-24.5 -12.5zM666 892q-11 0 -17.5 7t-6.5 17q0 14 8 27.5t25 13.5q12 0 18 -8t6 -19q0 -13 -8.5 -25.5t-24.5 -12.5z" />
    <glyph glyph-name="Zcaron" unicode="&#x17d;" horiz-adv-x="664" 
d="M398 855q-69 0 -121 -32.5t-87 -83t-53 -112t-18 -120.5q0 -42 9 -79.5t26.5 -65t44 -43.5t61.5 -16q31 0 55.5 14t40.5 37.5t24.5 52.5t8.5 59q0 39 -18.5 74t-56.5 52l36 52q43 -20 64.5 -66.5t21.5 -100.5q0 -37 -11 -73.5t-32.5 -65.5t-54.5 -47t-78 -18
q-49 0 -86 20t-61.5 54t-37 79t-12.5 95q0 63 21 128t63 117.5t104.5 85.5t146.5 33q70 0 123.5 -23t89 -62.5t53.5 -92t18 -112.5q0 -62 -20 -128.5t-59.5 -129.5t-100 -119.5t-141.5 -99.5q33 -13 57 -34t39.5 -47t22.5 -56.5t7 -61.5q0 -49 -16 -97t-44 -86.5
t-66.5 -62.5t-83.5 -24q-30 0 -52 10.5t-37 28t-22.5 40.5t-7.5 49q0 25 7 52t21.5 52t35.5 46.5t49 37.5l29 -49q-53 -32 -76.5 -73t-23.5 -79q0 -36 20.5 -60.5t56.5 -24.5q35 0 64 21.5t49.5 55.5t32 77t11.5 87q0 30 -6 59t-19 53t-33 42t-48 27q-22 -8 -40.5 -16
t-41.5 -8q-10 0 -15 1l11 63h4q40 0 75 -9q76 38 132.5 92.5t94 116t56 127t18.5 126.5q0 54 -14.5 101.5t-42.5 83t-70 56t-97 20.5zM410 914q-27 44 -42.5 76t-18.5 40l35 16q5 -10 13.5 -34.5t31.5 -65.5q9 11 20.5 24.5t23.5 27t24 25.5t21 19l25 -29q-39 -29 -66 -56.5
t-40 -44.5z" />
    <glyph glyph-name="zcaron" unicode="&#x17e;" horiz-adv-x="288" 
d="M21 25q8 3 21.5 3t17.5 -1q17 18 34 56t30 83.5t21 93t8 84.5q0 74 -38 74q-15 0 -26.5 -14t-22 -39.5t-22 -60t-26.5 -74.5q-5 1 -9 2q-9 2 -9 7q16 43 28 83.5t25 71t29.5 49t41.5 18.5q22 0 38 -10.5t26 -29t15 -43.5t5 -53q0 -41 -8.5 -86t-24 -87.5t-37 -78
t-47.5 -57.5q9 -6 16 -14.5t13 -19.5q21 23 43.5 49.5t44.5 57.5t42.5 68.5t37.5 83.5q-1 0 2 -0.5t6.5 -1.5t6.5 -3t3 -5q-18 -47 -39.5 -86t-44.5 -71t-46.5 -59t-45.5 -51q17 -43 17 -92q0 -35 -8.5 -66.5t-23 -55.5t-34.5 -38t-42 -14q-23 0 -37.5 18.5t-14.5 47.5
q0 28 8.5 52.5t23 47.5t32.5 44.5t38 42.5q-4 17 -9.5 29.5t-14.5 20.5q-8 -4 -17 -5.5t-17 -1.5t-11 1zM41 -276q12 0 22.5 13.5t18 35t11.5 50t4 58.5q0 11 -1 21t-2 21q-33 -38 -55.5 -78.5t-22.5 -83.5q0 -37 25 -37zM121 483q-27 44 -42.5 76t-18.5 40l35 16
q5 -10 13.5 -34.5t31.5 -65.5q9 11 20.5 24.5t23.5 27t24 25.5t21 19l25 -29q-39 -29 -66 -56.5t-40 -44.5z" />
    <glyph glyph-name="florin" unicode="&#x192;" horiz-adv-x="271" 
d="M166 211l-6 -32h-52q-7 -53 -15 -106.5t-19 -102t-27.5 -88t-40.5 -63.5l-33 30q21 24 35.5 61t24.5 80.5t17 92t13 96.5h-52l6 32h51q7 50 17 95.5t25.5 80t39.5 55t60 20.5q35 0 53 -26.5t18 -64.5q0 -29 -10 -61.5t-30 -62.5q-10 5 -19.5 11.5t-20.5 11.5
q22 31 31.5 59t9.5 51t-8.5 37.5t-25.5 14.5q-22 0 -37 -17.5t-26 -47.5t-19 -70.5t-14 -85.5h54z" />
    <glyph glyph-name="Ohorn" unicode="&#x1a0;" horiz-adv-x="1124" 
d="M930 849q6 -6 16 -12t20 -8t19 1.5t15 14.5q10 18 4 30t-17 19q-13 8 -32 13l9 40q25 0 44 -12t28.5 -30t8.5 -38t-15 -37q-12 -14 -23 -19.5t-22 -7.5q43 -47 65.5 -117t27 -151.5t-7 -170t-38 -174t-66.5 -162t-91 -134.5t-112.5 -92t-130.5 -34q-64 0 -110.5 28.5
t-78 78t-48.5 116t-20 141.5h-6q-89 0 -154.5 23t-109 61.5t-66 87t-26 99t12 99t48.5 87t82.5 61.5t113.5 23q29 0 48 -5t42 -19l-31 -53q-17 11 -37 16.5t-43 5.5q-68 0 -114.5 -34t-68 -85.5t-16 -111t41.5 -111t105 -85.5t175 -34h3q-1 80 12 165.5t38 166.5t61.5 153
t83 126t102 85.5t118.5 31.5q54 0 87.5 -30t47.5 -79.5t8.5 -113.5t-29.5 -132t-66 -134.5t-101.5 -121t-136.5 -92t-171 -47.5q0 -71 11.5 -133t36.5 -108.5t63.5 -73.5t92.5 -27q67 0 124.5 39.5t103.5 104.5t80 150t55 176t27.5 182t-2.5 168t-34.5 134t-68.5 80z
M790 860q-50 0 -95.5 -30.5t-85 -82.5t-72 -121t-56 -147t-37 -160t-15.5 -159q88 9 159 44t126 86t93.5 113t61 125.5t29 123t-3.5 106t-36 74.5t-68 28z" />
    <glyph glyph-name="ohorn" unicode="&#x1a1;" 
d="M319 241q4 0 12 -2.5t6 -7.5q-19 -50 -46 -80.5t-64 -41.5q-24 -49 -60 -82.5t-75 -33.5q-43 0 -66.5 28.5t-31 76t0 108t25.5 124.5l31 -8q5 28 16 53t27 44t37.5 30.5t47.5 11.5q25 0 44 -14h1v-1q2 -2 3 -2.5t3 -2.5q8 -6 20.5 -8t20.5 15q8 15 3 24.5t-13 15.5
q-10 6 -24 10l7 33q19 0 33.5 -10t22 -24.5t6.5 -31t-12 -29.5q-12 -14 -23 -18.5t-21 -3.5q12 -24 17 -57t3 -69.5t-10 -75t-22 -74.5q25 12 44.5 35t36.5 68zM177 435q-28 0 -49.5 -22.5t-34 -56.5t-15 -73t7.5 -73t33 -56.5t63 -22.5q19 49 30 102.5t11.5 98.5t-11 74
t-35.5 29zM92 22q24 0 44.5 23t34.5 58q-32 3 -55 17t-38 36.5t-22 50.5t-8 58q-6 -32 -11 -73.5t-2.5 -79.5t15 -64t42.5 -26z" />
    <glyph glyph-name="Uhorn" unicode="&#x1af;" horiz-adv-x="1048" 
d="M1137 -35q-14 -106 -54 -152t-98 -46q-66 0 -96 48.5t-30 161.5q0 45 6 98q-18 -56 -41.5 -110.5t-51 -98.5t-58.5 -71t-64 -27q-57 0 -84.5 39.5t-27.5 112.5q0 42 9.5 94.5t23.5 111t31 119.5t31 119t23.5 110.5t9.5 93.5q0 61 -18 112.5t-51.5 89t-80.5 59t-105 21.5
q-77 0 -138 -28t-104 -75.5t-66 -109.5t-23 -129q0 -55 14 -101.5t42 -80.5t71 -53t100 -19q60 0 100.5 25.5t66 64.5t37.5 85.5t17 88.5l56 -9q-8 -48 -26 -99.5t-50.5 -94t-81 -69.5t-117.5 -27q-67 0 -120 22.5t-89.5 61.5t-56 92t-19.5 115q0 75 27.5 143t78.5 119
t123.5 81t161.5 30q67 0 123.5 -22.5t96.5 -64t62.5 -99.5t22.5 -129q0 -70 -19.5 -155t-42.5 -173t-42.5 -171t-19.5 -149q0 -21 3 -40.5t10.5 -34.5t20.5 -23.5t32 -8.5q25 0 49 21t46 56t42 79t36.5 90.5t28.5 91t20 79.5q13 84 30.5 174t37 176.5t40 165t39.5 140.5
l57 -11q-2 -9 -4.5 -17.5t-4.5 -16.5q3 -5 9.5 -9t14 -5t15.5 3t14 15q10 18 4 30t-17 19q-13 8 -32 13l9 40q25 0 44 -12t28.5 -30t8.5 -38t-15 -37q-14 -15 -26.5 -21t-24.5 -6.5t-22 3.5t-17 9q-19 -65 -37.5 -122.5t-26.5 -100.5q-9 -34 -19 -82.5t-21 -105t-21 -118
t-18 -120t-13 -112t-5 -94.5q0 -75 19.5 -116t57.5 -41t64 41t34 124z" />
    <glyph glyph-name="uhorn" unicode="&#x1b0;" horiz-adv-x="323" 
d="M96 456q-2 -12 -8 -38t-13 -59.5t-15 -71.5t-14.5 -75.5t-10.5 -71.5t-4 -58t6 -34.5t16 -10.5q9 0 23.5 17t29 45.5t28 67t21.5 81.5q10 57 21.5 110t21.5 98h52q0 -5 5 -10t11.5 -8t13.5 -1.5t12 11.5q8 15 3 24.5t-13 15.5q-10 6 -24 10l7 33q19 0 33.5 -10t22 -24.5
t6.5 -31t-12 -29.5t-21.5 -17.5t-19.5 -4.5t-17 3.5t-13 7.5q-11 -53 -21 -103t-18 -94.5t-13 -82.5t-5 -66q0 -23 5.5 -32t13.5 -9q23 0 51 52.5t66 150.5q3 0 10.5 -3t7.5 -7q-20 -52 -37 -95t-34.5 -74.5t-36.5 -49t-43 -17.5q-28 0 -38.5 28.5t-10.5 76.5q0 5 0.5 10
t0.5 10q-21 -55 -49 -90t-57 -35t-41 28t-12 75q0 45 8 100.5t18.5 107t20.5 92.5t13 58h53z" />
    <glyph glyph-name="circumflex" unicode="&#x2c6;" horiz-adv-x="198" 
d="M134 612q27 -44 42.5 -76t18.5 -40l-37 -18q-3 6 -13 33t-33 68q-8 -10 -19 -23t-23 -26.5t-24.5 -25t-21.5 -18.5l-24 26q43 32 68.5 58.5t38.5 43.5z" />
    <glyph glyph-name="caron" unicode="&#x2c7;" horiz-adv-x="222" 
d="M74 483q-27 44 -42.5 76t-18.5 40l35 16q5 -10 13.5 -34.5t31.5 -65.5q9 11 20.5 24.5t23.5 27t24 25.5t21 19l25 -29q-39 -29 -66 -56.5t-40 -44.5z" />
    <glyph glyph-name="breve" unicode="&#x2d8;" horiz-adv-x="187" 
d="M183 581l-4 -17q-12 -42 -38.5 -64t-53.5 -22q-26 0 -45.5 21.5t-19.5 66.5q0 6 0.5 12.5t1.5 12.5l33 1q-1 -8 -1.5 -18t-0.5 -16q0 -27 9.5 -43t29.5 -16q19 0 35 21t24 71z" />
    <glyph glyph-name="dotaccent" unicode="&#x2d9;" horiz-adv-x="121" 
d="M57 497q-13 0 -18.5 8t-5.5 19q0 14 8.5 26t24.5 12q12 0 18 -8t6 -19q0 -13 -8.5 -25.5t-24.5 -12.5z" />
    <glyph glyph-name="ring" unicode="&#x2da;" horiz-adv-x="222" 
d="M86 449q-32 0 -46.5 17.5t-14.5 40.5q0 14 5.5 28t15.5 25.5t25 19t35 7.5q32 0 46.5 -17.5t14.5 -40.5q0 -14 -5.5 -28.5t-15.5 -26t-25.5 -18.5t-34.5 -7zM104 568q-26 0 -40 -20t-14 -41q0 -16 9 -28t28 -12q26 0 40 20t14 41q0 16 -8.5 28t-28.5 12z" />
    <glyph glyph-name="ogonek" unicode="&#x2db;" horiz-adv-x="231" 
d="M202 -131q-17 -9 -34 -13t-32 -4q-38 0 -63 21.5t-25 51.5q0 21 15.5 43.5t50.5 41.5l18 -25q-30 -15 -44 -33t-14 -33q0 -16 12.5 -26.5t35.5 -10.5q13 0 30 4.5t37 15.5z" />
    <glyph glyph-name="tilde" unicode="&#x2dc;" horiz-adv-x="227" 
d="M3 524q12 16 28 21t34 5h8q21 -2 41.5 -6t37.5 -4q22 0 32.5 4.5t18.5 12.5l23 -30q-10 -11 -23 -17t-31 -6q-26 0 -53 10t-52 10q-13 0 -24 -4.5t-21 -15.5z" />
    <glyph glyph-name="hungarumlaut" unicode="&#x2dd;" horiz-adv-x="201" 
d="M115 628q-1 -6 -6.5 -21.5t-14 -36t-19 -43.5t-21.5 -44l-25 12q6 16 12.5 37l13 42t11.5 38.5t7 28.5zM195 628q-1 -6 -6.5 -21.5t-14 -36t-19 -43.5t-21.5 -44l-25 12q6 16 12.5 37l13 42t11.5 38.5t7 28.5z" />
    <glyph glyph-name="hookabovecomb" unicode="&#x309;" horiz-adv-x="406" 
d="M157 864q1 16 8.5 32.5t20 28.5t29.5 19t37 4q39 -6 52 -34t9 -58q-3 -24 -13 -40.5t-24 -30.5t-30 -27.5t-31 -30.5h-40q15 19 31.5 34t31 29.5t25.5 31t14 37.5q3 22 -6 37t-29 17q-19 2 -32 -12.5t-16 -34.5q-2 -11 0.5 -18.5t10.5 -19.5l-16 -8t-17 -10
q-8 11 -12.5 26t-2.5 28z" />
    <glyph glyph-name="dotbelowcomb" unicode="&#x323;" horiz-adv-x="121" 
d="M60 -117q-16 0 -23 10t-7 24q0 17 10.5 32t30.5 15q15 0 22.5 -10t7.5 -24q0 -16 -10.5 -31.5t-30.5 -15.5z" />
    <glyph glyph-name="uni1AE7" unicode="&#x1ae7;" horiz-adv-x="0" 
 />
    <glyph glyph-name="uni1EA0" unicode="&#x1ea0;" horiz-adv-x="1095" 
d="M626 403q55 -2 106.5 -16.5t95.5 -42.5q33 84 63.5 167t61.5 155t63.5 129t69.5 89l45 -21q-27 -123 -49 -241.5t-37.5 -229t-24.5 -210.5t-9 -185q0 -89 10.5 -160t33 -121.5t58.5 -77.5t87 -27q57 0 91 30.5t55 83.5l52 -18q-56 -141 -186 -141q-72 0 -122 30.5t-81 86
t-44.5 134t-13.5 175.5q0 15 0.5 31t0.5 33q0 78 -27 135t-72 95q-38 -101 -84 -195t-106 -166t-137.5 -115.5t-178.5 -43.5q-93 0 -161.5 31.5t-113.5 83.5t-67 119t-22 138q0 78 26 154t76.5 136.5t125.5 97.5t173 37q50 0 90 -12.5t70 -34t50.5 -51t31.5 -62.5zM233 154
q13 56 46 100t78.5 75.5t101 49.5t114.5 22q-10 28 -27 52.5t-41 42.5t-55 28.5t-70 10.5q-83 0 -146.5 -35t-106.5 -92t-65.5 -128.5t-22.5 -144.5q0 -65 18.5 -126.5t57 -108.5t97.5 -75.5t139 -28.5q85 0 153.5 43.5t124.5 115.5t101.5 165t84.5 192q-39 26 -85 38
t-95 14q2 -12 3.5 -24t1.5 -24q0 -42 -12 -84t-35.5 -78.5t-58 -64.5t-79.5 -42l-10 24l-10 24q37 12 65 35.5t47 53.5t28.5 65t9.5 70q0 11 -1 21t-3 20q-51 -5 -99.5 -21.5t-88.5 -44.5t-68.5 -67.5t-39.5 -88.5q-13 4 -25.5 8t-26.5 8zM1068 821q-8 -9 -13.5 -19.5
t-11.5 -21.5q-24 -45 -46 -99t-43.5 -113t-43 -122t-45.5 -127q34 -27 58 -63t37 -83q13 144 41.5 308t66.5 340zM778 -358q-16 0 -23 10t-7 24q0 17 10.5 32t30.5 15q15 0 22.5 -10t7.5 -24q0 -16 -10.5 -31.5t-30.5 -15.5z" />
    <glyph glyph-name="uni1EA1" unicode="&#x1ea1;" horiz-adv-x="332" 
d="M222 455h45q-19 -93 -34.5 -177t-24.5 -155q-2 -15 -3 -27.5t-1 -22.5q0 -36 12 -36q17 0 47.5 51.5t68.5 152.5q5 0 11.5 -4t6.5 -6q-26 -63 -46.5 -108t-38 -73.5t-32.5 -41.5t-31 -13q-41 0 -41 103l5 48q-11 -30 -23.5 -57.5t-27.5 -48t-32.5 -33t-37.5 -12.5
q-32 0 -47 31t-15 85q0 35 6 74.5t16.5 78.5t25.5 75t33 63t38.5 43.5t43.5 16.5q30 0 44 -21.5t18 -55.5zM148 422q-21 0 -41.5 -33t-37 -81t-26.5 -101.5t-10 -95.5q0 -32 7 -51.5t23 -19.5q13 0 28 15.5t28.5 41t26 57.5t22 65.5t15 65.5t5.5 57q0 36 -10 58t-30 22z
M96 -117q-16 0 -23 10t-7 24q0 17 10.5 32t30.5 15q15 0 22.5 -10t7.5 -24q0 -16 -10.5 -31.5t-30.5 -15.5z" />
    <glyph glyph-name="uni1EA2" unicode="&#x1ea2;" horiz-adv-x="1095" 
d="M626 403q55 -2 106.5 -16.5t95.5 -42.5q33 84 63.5 167t61.5 155t63.5 129t69.5 89l45 -21q-27 -123 -49 -241.5t-37.5 -229t-24.5 -210.5t-9 -185q0 -89 10.5 -160t33 -121.5t58.5 -77.5t87 -27q57 0 91 30.5t55 83.5l52 -18q-56 -141 -186 -141q-72 0 -122 30.5t-81 86
t-44.5 134t-13.5 175.5q0 15 0.5 31t0.5 33q0 78 -27 135t-72 95q-38 -101 -84 -195t-106 -166t-137.5 -115.5t-178.5 -43.5q-93 0 -161.5 31.5t-113.5 83.5t-67 119t-22 138q0 78 26 154t76.5 136.5t125.5 97.5t173 37q50 0 90 -12.5t70 -34t50.5 -51t31.5 -62.5zM233 154
q13 56 46 100t78.5 75.5t101 49.5t114.5 22q-10 28 -27 52.5t-41 42.5t-55 28.5t-70 10.5q-83 0 -146.5 -35t-106.5 -92t-65.5 -128.5t-22.5 -144.5q0 -65 18.5 -126.5t57 -108.5t97.5 -75.5t139 -28.5q85 0 153.5 43.5t124.5 115.5t101.5 165t84.5 192q-39 26 -85 38
t-95 14q2 -12 3.5 -24t1.5 -24q0 -42 -12 -84t-35.5 -78.5t-58 -64.5t-79.5 -42l-10 24l-10 24q37 12 65 35.5t47 53.5t28.5 65t9.5 70q0 11 -1 21t-3 20q-51 -5 -99.5 -21.5t-88.5 -44.5t-68.5 -67.5t-39.5 -88.5q-13 4 -25.5 8t-26.5 8zM1068 821q-8 -9 -13.5 -19.5
t-11.5 -21.5q-24 -45 -46 -99t-43.5 -113t-43 -122t-45.5 -127q34 -27 58 -63t37 -83q13 144 41.5 308t66.5 340zM1078 1038q1 16 8.5 32.5t20 28.5t29.5 19t37 4q39 -6 52 -34t9 -58q-3 -24 -13 -40.5t-24 -30.5t-30 -27.5t-31 -30.5h-40q15 19 31.5 34t31 29.5t25.5 31
t14 37.5q3 22 -6 37t-29 17q-19 2 -32 -12.5t-16 -34.5q-2 -11 0.5 -18.5t10.5 -19.5l-16 -8t-17 -10q-8 11 -12.5 26t-2.5 28z" />
    <glyph glyph-name="uni1EA3" unicode="&#x1ea3;" horiz-adv-x="332" 
d="M222 455h45q-19 -93 -34.5 -177t-24.5 -155q-2 -15 -3 -27.5t-1 -22.5q0 -36 12 -36q17 0 47.5 51.5t68.5 152.5q5 0 11.5 -4t6.5 -6q-26 -63 -46.5 -108t-38 -73.5t-32.5 -41.5t-31 -13q-41 0 -41 103l5 48q-11 -30 -23.5 -57.5t-27.5 -48t-32.5 -33t-37.5 -12.5
q-32 0 -47 31t-15 85q0 35 6 74.5t16.5 78.5t25.5 75t33 63t38.5 43.5t43.5 16.5q30 0 44 -21.5t18 -55.5zM148 422q-21 0 -41.5 -33t-37 -81t-26.5 -101.5t-10 -95.5q0 -32 7 -51.5t23 -19.5q13 0 28 15.5t28.5 41t26 57.5t22 65.5t15 65.5t5.5 57q0 36 -10 58t-30 22z
M129 632q1 16 8.5 32.5t20 28.5t29.5 19t37 4q39 -6 52 -34t9 -58q-3 -24 -13 -40.5t-24 -30.5t-30 -27.5t-31 -30.5h-40q15 19 31.5 34t31 29.5t25.5 31t14 37.5q3 22 -6 37t-29 17q-19 2 -32 -12.5t-16 -34.5q-2 -11 0.5 -18.5t10.5 -19.5l-16 -8t-17 -10q-8 11 -12.5 26
t-2.5 28z" />
    <glyph glyph-name="uni1EA4" unicode="&#x1ea4;" horiz-adv-x="1095" 
d="M626 403q55 -2 106.5 -16.5t95.5 -42.5q33 84 63.5 167t61.5 155t63.5 129t69.5 89l45 -21q-27 -123 -49 -241.5t-37.5 -229t-24.5 -210.5t-9 -185q0 -89 10.5 -160t33 -121.5t58.5 -77.5t87 -27q57 0 91 30.5t55 83.5l52 -18q-56 -141 -186 -141q-72 0 -122 30.5t-81 86
t-44.5 134t-13.5 175.5q0 15 0.5 31t0.5 33q0 78 -27 135t-72 95q-38 -101 -84 -195t-106 -166t-137.5 -115.5t-178.5 -43.5q-93 0 -161.5 31.5t-113.5 83.5t-67 119t-22 138q0 78 26 154t76.5 136.5t125.5 97.5t173 37q50 0 90 -12.5t70 -34t50.5 -51t31.5 -62.5zM233 154
q13 56 46 100t78.5 75.5t101 49.5t114.5 22q-10 28 -27 52.5t-41 42.5t-55 28.5t-70 10.5q-83 0 -146.5 -35t-106.5 -92t-65.5 -128.5t-22.5 -144.5q0 -65 18.5 -126.5t57 -108.5t97.5 -75.5t139 -28.5q85 0 153.5 43.5t124.5 115.5t101.5 165t84.5 192q-39 26 -85 38
t-95 14q2 -12 3.5 -24t1.5 -24q0 -42 -12 -84t-35.5 -78.5t-58 -64.5t-79.5 -42l-10 24l-10 24q37 12 65 35.5t47 53.5t28.5 65t9.5 70q0 11 -1 21t-3 20q-51 -5 -99.5 -21.5t-88.5 -44.5t-68.5 -67.5t-39.5 -88.5q-13 4 -25.5 8t-26.5 8zM1068 821q-8 -9 -13.5 -19.5
t-11.5 -21.5q-24 -45 -46 -99t-43.5 -113t-43 -122t-45.5 -127q34 -27 58 -63t37 -83q13 144 41.5 308t66.5 340zM1123 1032q27 -44 42.5 -76t18.5 -40l-37 -18q-3 6 -13 33t-33 68q-8 -10 -19 -23t-23 -26.5t-24.5 -25t-21.5 -18.5l-24 26q43 32 68.5 58.5t38.5 43.5z
M1274 1126q-19 -30 -36.5 -52t-31.5 -36q-17 -17 -31 -28l-21 19q13 14 36 44.5t47 77.5z" />
    <glyph glyph-name="uni1EA5" unicode="&#x1ea5;" horiz-adv-x="332" 
d="M222 455h45q-19 -93 -34.5 -177t-24.5 -155q-2 -15 -3 -27.5t-1 -22.5q0 -36 12 -36q17 0 47.5 51.5t68.5 152.5q5 0 11.5 -4t6.5 -6q-26 -63 -46.5 -108t-38 -73.5t-32.5 -41.5t-31 -13q-41 0 -41 103l5 48q-11 -30 -23.5 -57.5t-27.5 -48t-32.5 -33t-37.5 -12.5
q-32 0 -47 31t-15 85q0 35 6 74.5t16.5 78.5t25.5 75t33 63t38.5 43.5t43.5 16.5q30 0 44 -21.5t18 -55.5zM148 422q-21 0 -41.5 -33t-37 -81t-26.5 -101.5t-10 -95.5q0 -32 7 -51.5t23 -19.5q13 0 28 15.5t28.5 41t26 57.5t22 65.5t15 65.5t5.5 57q0 36 -10 58t-30 22z
M201 612q27 -44 42.5 -76t18.5 -40l-37 -18q-3 6 -13 33t-33 68q-8 -10 -19 -23t-23 -26.5t-24.5 -25t-21.5 -18.5l-24 26q43 32 68.5 58.5t38.5 43.5zM340 702q-19 -30 -36.5 -52t-31.5 -36q-17 -17 -31 -28l-21 19q13 14 36 44.5t47 77.5z" />
    <glyph glyph-name="uni1EA6" unicode="&#x1ea6;" horiz-adv-x="1095" 
d="M626 403q55 -2 106.5 -16.5t95.5 -42.5q33 84 63.5 167t61.5 155t63.5 129t69.5 89l45 -21q-27 -123 -49 -241.5t-37.5 -229t-24.5 -210.5t-9 -185q0 -89 10.5 -160t33 -121.5t58.5 -77.5t87 -27q57 0 91 30.5t55 83.5l52 -18q-56 -141 -186 -141q-72 0 -122 30.5t-81 86
t-44.5 134t-13.5 175.5q0 15 0.5 31t0.5 33q0 78 -27 135t-72 95q-38 -101 -84 -195t-106 -166t-137.5 -115.5t-178.5 -43.5q-93 0 -161.5 31.5t-113.5 83.5t-67 119t-22 138q0 78 26 154t76.5 136.5t125.5 97.5t173 37q50 0 90 -12.5t70 -34t50.5 -51t31.5 -62.5zM233 154
q13 56 46 100t78.5 75.5t101 49.5t114.5 22q-10 28 -27 52.5t-41 42.5t-55 28.5t-70 10.5q-83 0 -146.5 -35t-106.5 -92t-65.5 -128.5t-22.5 -144.5q0 -65 18.5 -126.5t57 -108.5t97.5 -75.5t139 -28.5q85 0 153.5 43.5t124.5 115.5t101.5 165t84.5 192q-39 26 -85 38
t-95 14q2 -12 3.5 -24t1.5 -24q0 -42 -12 -84t-35.5 -78.5t-58 -64.5t-79.5 -42l-10 24l-10 24q37 12 65 35.5t47 53.5t28.5 65t9.5 70q0 11 -1 21t-3 20q-51 -5 -99.5 -21.5t-88.5 -44.5t-68.5 -67.5t-39.5 -88.5q-13 4 -25.5 8t-26.5 8zM1068 821q-8 -9 -13.5 -19.5
t-11.5 -21.5q-24 -45 -46 -99t-43.5 -113t-43 -122t-45.5 -127q34 -27 58 -63t37 -83q13 144 41.5 308t66.5 340zM1123 1032q27 -44 42.5 -76t18.5 -40l-37 -18q-3 6 -13 33t-33 68q-8 -10 -19 -23t-23 -26.5t-24.5 -25t-21.5 -18.5l-24 26q43 32 68.5 58.5t38.5 43.5z
M1121 1156q24 -47 47 -77t36 -44l-21 -20q-15 11 -32 28q-14 14 -32 36t-36 52z" />
    <glyph glyph-name="uni1EA7" unicode="&#x1ea7;" horiz-adv-x="332" 
d="M222 455h45q-19 -93 -34.5 -177t-24.5 -155q-2 -15 -3 -27.5t-1 -22.5q0 -36 12 -36q17 0 47.5 51.5t68.5 152.5q5 0 11.5 -4t6.5 -6q-26 -63 -46.5 -108t-38 -73.5t-32.5 -41.5t-31 -13q-41 0 -41 103l5 48q-11 -30 -23.5 -57.5t-27.5 -48t-32.5 -33t-37.5 -12.5
q-32 0 -47 31t-15 85q0 35 6 74.5t16.5 78.5t25.5 75t33 63t38.5 43.5t43.5 16.5q30 0 44 -21.5t18 -55.5zM148 422q-21 0 -41.5 -33t-37 -81t-26.5 -101.5t-10 -95.5q0 -32 7 -51.5t23 -19.5q13 0 28 15.5t28.5 41t26 57.5t22 65.5t15 65.5t5.5 57q0 36 -10 58t-30 22z
M201 612q27 -44 42.5 -76t18.5 -40l-37 -18q-3 6 -13 33t-33 68q-8 -10 -19 -23t-23 -26.5t-24.5 -25t-21.5 -18.5l-24 26q43 32 68.5 58.5t38.5 43.5zM193 729q24 -47 47 -77t36 -44l-21 -20q-15 11 -32 28q-14 14 -32 36t-36 52z" />
    <glyph glyph-name="uni1EA8" unicode="&#x1ea8;" horiz-adv-x="1095" 
d="M626 403q55 -2 106.5 -16.5t95.5 -42.5q33 84 63.5 167t61.5 155t63.5 129t69.5 89l45 -21q-27 -123 -49 -241.5t-37.5 -229t-24.5 -210.5t-9 -185q0 -89 10.5 -160t33 -121.5t58.5 -77.5t87 -27q57 0 91 30.5t55 83.5l52 -18q-56 -141 -186 -141q-72 0 -122 30.5t-81 86
t-44.5 134t-13.5 175.5q0 15 0.5 31t0.5 33q0 78 -27 135t-72 95q-38 -101 -84 -195t-106 -166t-137.5 -115.5t-178.5 -43.5q-93 0 -161.5 31.5t-113.5 83.5t-67 119t-22 138q0 78 26 154t76.5 136.5t125.5 97.5t173 37q50 0 90 -12.5t70 -34t50.5 -51t31.5 -62.5zM233 154
q13 56 46 100t78.5 75.5t101 49.5t114.5 22q-10 28 -27 52.5t-41 42.5t-55 28.5t-70 10.5q-83 0 -146.5 -35t-106.5 -92t-65.5 -128.5t-22.5 -144.5q0 -65 18.5 -126.5t57 -108.5t97.5 -75.5t139 -28.5q85 0 153.5 43.5t124.5 115.5t101.5 165t84.5 192q-39 26 -85 38
t-95 14q2 -12 3.5 -24t1.5 -24q0 -42 -12 -84t-35.5 -78.5t-58 -64.5t-79.5 -42l-10 24l-10 24q37 12 65 35.5t47 53.5t28.5 65t9.5 70q0 11 -1 21t-3 20q-51 -5 -99.5 -21.5t-88.5 -44.5t-68.5 -67.5t-39.5 -88.5q-13 4 -25.5 8t-26.5 8zM1068 821q-8 -9 -13.5 -19.5
t-11.5 -21.5q-24 -45 -46 -99t-43.5 -113t-43 -122t-45.5 -127q34 -27 58 -63t37 -83q13 144 41.5 308t66.5 340zM1123 1032q27 -44 42.5 -76t18.5 -40l-37 -18q-3 6 -13 33t-33 68q-8 -10 -19 -23t-23 -26.5t-24.5 -25t-21.5 -18.5l-24 26q43 32 68.5 58.5t38.5 43.5z
M1142 1143q1 16 8.5 32.5t20 28.5t29.5 19t37 4q39 -6 52 -34t9 -58q-3 -24 -13 -40.5t-24 -30.5t-30 -27.5t-31 -30.5h-40q15 19 31.5 34t31 29.5t25.5 31t14 37.5q3 22 -6 37t-29 17q-19 2 -32 -12.5t-16 -34.5q-2 -11 0.5 -18.5t10.5 -19.5l-16 -8t-17 -10
q-8 11 -12.5 26t-2.5 28z" />
    <glyph glyph-name="uni1EA9" unicode="&#x1ea9;" horiz-adv-x="332" 
d="M222 455h45q-19 -93 -34.5 -177t-24.5 -155q-2 -15 -3 -27.5t-1 -22.5q0 -36 12 -36q17 0 47.5 51.5t68.5 152.5q5 0 11.5 -4t6.5 -6q-26 -63 -46.5 -108t-38 -73.5t-32.5 -41.5t-31 -13q-41 0 -41 103l5 48q-11 -30 -23.5 -57.5t-27.5 -48t-32.5 -33t-37.5 -12.5
q-32 0 -47 31t-15 85q0 35 6 74.5t16.5 78.5t25.5 75t33 63t38.5 43.5t43.5 16.5q30 0 44 -21.5t18 -55.5zM148 422q-21 0 -41.5 -33t-37 -81t-26.5 -101.5t-10 -95.5q0 -32 7 -51.5t23 -19.5q13 0 28 15.5t28.5 41t26 57.5t22 65.5t15 65.5t5.5 57q0 36 -10 58t-30 22z
M201 612q27 -44 42.5 -76t18.5 -40l-37 -18q-3 6 -13 33t-33 68q-8 -10 -19 -23t-23 -26.5t-24.5 -25t-21.5 -18.5l-24 26q43 32 68.5 58.5t38.5 43.5zM221 726q1 16 8.5 32.5t20 28.5t29.5 19t37 4q39 -6 52 -34t9 -58q-3 -24 -13 -40.5t-24 -30.5t-30 -27.5t-31 -30.5h-40
q15 19 31.5 34t31 29.5t25.5 31t14 37.5q3 22 -6 37t-29 17q-19 2 -32 -12.5t-16 -34.5q-2 -11 0.5 -18.5t10.5 -19.5l-16 -8t-17 -10q-8 11 -12.5 26t-2.5 28z" />
    <glyph glyph-name="uni1EAA" unicode="&#x1eaa;" horiz-adv-x="1095" 
d="M626 403q55 -2 106.5 -16.5t95.5 -42.5q33 84 63.5 167t61.5 155t63.5 129t69.5 89l45 -21q-27 -123 -49 -241.5t-37.5 -229t-24.5 -210.5t-9 -185q0 -89 10.5 -160t33 -121.5t58.5 -77.5t87 -27q57 0 91 30.5t55 83.5l52 -18q-56 -141 -186 -141q-72 0 -122 30.5t-81 86
t-44.5 134t-13.5 175.5q0 15 0.5 31t0.5 33q0 78 -27 135t-72 95q-38 -101 -84 -195t-106 -166t-137.5 -115.5t-178.5 -43.5q-93 0 -161.5 31.5t-113.5 83.5t-67 119t-22 138q0 78 26 154t76.5 136.5t125.5 97.5t173 37q50 0 90 -12.5t70 -34t50.5 -51t31.5 -62.5zM233 154
q13 56 46 100t78.5 75.5t101 49.5t114.5 22q-10 28 -27 52.5t-41 42.5t-55 28.5t-70 10.5q-83 0 -146.5 -35t-106.5 -92t-65.5 -128.5t-22.5 -144.5q0 -65 18.5 -126.5t57 -108.5t97.5 -75.5t139 -28.5q85 0 153.5 43.5t124.5 115.5t101.5 165t84.5 192q-39 26 -85 38
t-95 14q2 -12 3.5 -24t1.5 -24q0 -42 -12 -84t-35.5 -78.5t-58 -64.5t-79.5 -42l-10 24l-10 24q37 12 65 35.5t47 53.5t28.5 65t9.5 70q0 11 -1 21t-3 20q-51 -5 -99.5 -21.5t-88.5 -44.5t-68.5 -67.5t-39.5 -88.5q-13 4 -25.5 8t-26.5 8zM1068 821q-8 -9 -13.5 -19.5
t-11.5 -21.5q-24 -45 -46 -99t-43.5 -113t-43 -122t-45.5 -127q34 -27 58 -63t37 -83q13 144 41.5 308t66.5 340zM1123 1032q27 -44 42.5 -76t18.5 -40l-37 -18q-3 6 -13 33t-33 68q-8 -10 -19 -23t-23 -26.5t-24.5 -25t-21.5 -18.5l-24 26q43 32 68.5 58.5t38.5 43.5z
M1005 1078q12 16 28 21t34 5h8q21 -2 41.5 -6t37.5 -4q22 0 32.5 4.5t18.5 12.5l23 -30q-10 -11 -23 -17t-31 -6q-26 0 -53 10t-52 10q-13 0 -24 -4.5t-21 -15.5z" />
    <glyph glyph-name="uni1EAB" unicode="&#x1eab;" horiz-adv-x="332" 
d="M222 455h45q-19 -93 -34.5 -177t-24.5 -155q-2 -15 -3 -27.5t-1 -22.5q0 -36 12 -36q17 0 47.5 51.5t68.5 152.5q5 0 11.5 -4t6.5 -6q-26 -63 -46.5 -108t-38 -73.5t-32.5 -41.5t-31 -13q-41 0 -41 103l5 48q-11 -30 -23.5 -57.5t-27.5 -48t-32.5 -33t-37.5 -12.5
q-32 0 -47 31t-15 85q0 35 6 74.5t16.5 78.5t25.5 75t33 63t38.5 43.5t43.5 16.5q30 0 44 -21.5t18 -55.5zM148 422q-21 0 -41.5 -33t-37 -81t-26.5 -101.5t-10 -95.5q0 -32 7 -51.5t23 -19.5q13 0 28 15.5t28.5 41t26 57.5t22 65.5t15 65.5t5.5 57q0 36 -10 58t-30 22z
M201 612q27 -44 42.5 -76t18.5 -40l-37 -18q-3 6 -13 33t-33 68q-8 -10 -19 -23t-23 -26.5t-24.5 -25t-21.5 -18.5l-24 26q43 32 68.5 58.5t38.5 43.5zM74 646q12 16 28 21t34 5h8q21 -2 41.5 -6t37.5 -4q22 0 32.5 4.5t18.5 12.5l23 -30q-10 -11 -23 -17t-31 -6
q-26 0 -53 10t-52 10q-13 0 -24 -4.5t-21 -15.5z" />
    <glyph glyph-name="uni1EAC" unicode="&#x1eac;" horiz-adv-x="1095" 
d="M626 403q55 -2 106.5 -16.5t95.5 -42.5q33 84 63.5 167t61.5 155t63.5 129t69.5 89l45 -21q-27 -123 -49 -241.5t-37.5 -229t-24.5 -210.5t-9 -185q0 -89 10.5 -160t33 -121.5t58.5 -77.5t87 -27q57 0 91 30.5t55 83.5l52 -18q-56 -141 -186 -141q-72 0 -122 30.5t-81 86
t-44.5 134t-13.5 175.5q0 15 0.5 31t0.5 33q0 78 -27 135t-72 95q-38 -101 -84 -195t-106 -166t-137.5 -115.5t-178.5 -43.5q-93 0 -161.5 31.5t-113.5 83.5t-67 119t-22 138q0 78 26 154t76.5 136.5t125.5 97.5t173 37q50 0 90 -12.5t70 -34t50.5 -51t31.5 -62.5zM233 154
q13 56 46 100t78.5 75.5t101 49.5t114.5 22q-10 28 -27 52.5t-41 42.5t-55 28.5t-70 10.5q-83 0 -146.5 -35t-106.5 -92t-65.5 -128.5t-22.5 -144.5q0 -65 18.5 -126.5t57 -108.5t97.5 -75.5t139 -28.5q85 0 153.5 43.5t124.5 115.5t101.5 165t84.5 192q-39 26 -85 38
t-95 14q2 -12 3.5 -24t1.5 -24q0 -42 -12 -84t-35.5 -78.5t-58 -64.5t-79.5 -42l-10 24l-10 24q37 12 65 35.5t47 53.5t28.5 65t9.5 70q0 11 -1 21t-3 20q-51 -5 -99.5 -21.5t-88.5 -44.5t-68.5 -67.5t-39.5 -88.5q-13 4 -25.5 8t-26.5 8zM1068 821q-8 -9 -13.5 -19.5
t-11.5 -21.5q-24 -45 -46 -99t-43.5 -113t-43 -122t-45.5 -127q34 -27 58 -63t37 -83q13 144 41.5 308t66.5 340zM1123 1032q27 -44 42.5 -76t18.5 -40l-37 -18q-3 6 -13 33t-33 68q-8 -10 -19 -23t-23 -26.5t-24.5 -25t-21.5 -18.5l-24 26q43 32 68.5 58.5t38.5 43.5z
M778 -358q-16 0 -23 10t-7 24q0 17 10.5 32t30.5 15q15 0 22.5 -10t7.5 -24q0 -16 -10.5 -31.5t-30.5 -15.5z" />
    <glyph glyph-name="uni1EAD" unicode="&#x1ead;" horiz-adv-x="332" 
d="M222 455h45q-19 -93 -34.5 -177t-24.5 -155q-2 -15 -3 -27.5t-1 -22.5q0 -36 12 -36q17 0 47.5 51.5t68.5 152.5q5 0 11.5 -4t6.5 -6q-26 -63 -46.5 -108t-38 -73.5t-32.5 -41.5t-31 -13q-41 0 -41 103l5 48q-11 -30 -23.5 -57.5t-27.5 -48t-32.5 -33t-37.5 -12.5
q-32 0 -47 31t-15 85q0 35 6 74.5t16.5 78.5t25.5 75t33 63t38.5 43.5t43.5 16.5q30 0 44 -21.5t18 -55.5zM148 422q-21 0 -41.5 -33t-37 -81t-26.5 -101.5t-10 -95.5q0 -32 7 -51.5t23 -19.5q13 0 28 15.5t28.5 41t26 57.5t22 65.5t15 65.5t5.5 57q0 36 -10 58t-30 22z
M202 612q27 -44 42.5 -76t18.5 -40l-37 -18q-3 6 -13 33t-33 68q-8 -10 -19 -23t-23 -26.5t-24.5 -25t-21.5 -18.5l-24 26q43 32 68.5 58.5t38.5 43.5zM96 -117q-16 0 -23 10t-7 24q0 17 10.5 32t30.5 15q15 0 22.5 -10t7.5 -24q0 -16 -10.5 -31.5t-30.5 -15.5z" />
    <glyph glyph-name="uni1EAE" unicode="&#x1eae;" horiz-adv-x="1095" 
d="M626 403q55 -2 106.5 -16.5t95.5 -42.5q33 84 63.5 167t61.5 155t63.5 129t69.5 89l45 -21q-27 -123 -49 -241.5t-37.5 -229t-24.5 -210.5t-9 -185q0 -89 10.5 -160t33 -121.5t58.5 -77.5t87 -27q57 0 91 30.5t55 83.5l52 -18q-56 -141 -186 -141q-72 0 -122 30.5t-81 86
t-44.5 134t-13.5 175.5q0 15 0.5 31t0.5 33q0 78 -27 135t-72 95q-38 -101 -84 -195t-106 -166t-137.5 -115.5t-178.5 -43.5q-93 0 -161.5 31.5t-113.5 83.5t-67 119t-22 138q0 78 26 154t76.5 136.5t125.5 97.5t173 37q50 0 90 -12.5t70 -34t50.5 -51t31.5 -62.5zM233 154
q13 56 46 100t78.5 75.5t101 49.5t114.5 22q-10 28 -27 52.5t-41 42.5t-55 28.5t-70 10.5q-83 0 -146.5 -35t-106.5 -92t-65.5 -128.5t-22.5 -144.5q0 -65 18.5 -126.5t57 -108.5t97.5 -75.5t139 -28.5q85 0 153.5 43.5t124.5 115.5t101.5 165t84.5 192q-39 26 -85 38
t-95 14q2 -12 3.5 -24t1.5 -24q0 -42 -12 -84t-35.5 -78.5t-58 -64.5t-79.5 -42l-10 24l-10 24q37 12 65 35.5t47 53.5t28.5 65t9.5 70q0 11 -1 21t-3 20q-51 -5 -99.5 -21.5t-88.5 -44.5t-68.5 -67.5t-39.5 -88.5q-13 4 -25.5 8t-26.5 8zM1068 821q-8 -9 -13.5 -19.5
t-11.5 -21.5q-24 -45 -46 -99t-43.5 -113t-43 -122t-45.5 -127q34 -27 58 -63t37 -83q13 144 41.5 308t66.5 340zM1212 1007l-4 -17q-12 -42 -38.5 -64t-53.5 -22q-26 0 -45.5 21.5t-19.5 66.5q0 6 0.5 12.5t1.5 12.5l33 1q-1 -8 -1.5 -18t-0.5 -16q0 -27 9.5 -43t29.5 -16
q19 0 35 21t24 71zM1240 1121q-19 -30 -36.5 -52t-31.5 -36q-17 -17 -31 -28l-21 19q13 14 36 44.5t47 77.5z" />
    <glyph glyph-name="uni1EAF" unicode="&#x1eaf;" horiz-adv-x="332" 
d="M222 455h45q-19 -93 -34.5 -177t-24.5 -155q-2 -15 -3 -27.5t-1 -22.5q0 -36 12 -36q17 0 47.5 51.5t68.5 152.5q5 0 11.5 -4t6.5 -6q-26 -63 -46.5 -108t-38 -73.5t-32.5 -41.5t-31 -13q-41 0 -41 103l5 48q-11 -30 -23.5 -57.5t-27.5 -48t-32.5 -33t-37.5 -12.5
q-32 0 -47 31t-15 85q0 35 6 74.5t16.5 78.5t25.5 75t33 63t38.5 43.5t43.5 16.5q30 0 44 -21.5t18 -55.5zM148 422q-21 0 -41.5 -33t-37 -81t-26.5 -101.5t-10 -95.5q0 -32 7 -51.5t23 -19.5q13 0 28 15.5t28.5 41t26 57.5t22 65.5t15 65.5t5.5 57q0 36 -10 58t-30 22z
M285 581l-4 -17q-12 -42 -38.5 -64t-53.5 -22q-26 0 -45.5 21.5t-19.5 66.5q0 6 0.5 12.5t1.5 12.5l33 1q-1 -8 -1.5 -18t-0.5 -16q0 -27 9.5 -43t29.5 -16q19 0 35 21t24 71zM309 693q-19 -30 -36.5 -52t-31.5 -36q-17 -17 -31 -28l-21 19q13 14 36 44.5t47 77.5z" />
    <glyph glyph-name="uni1EB0" unicode="&#x1eb0;" horiz-adv-x="1095" 
d="M626 403q55 -2 106.5 -16.5t95.5 -42.5q33 84 63.5 167t61.5 155t63.5 129t69.5 89l45 -21q-27 -123 -49 -241.5t-37.5 -229t-24.5 -210.5t-9 -185q0 -89 10.5 -160t33 -121.5t58.5 -77.5t87 -27q57 0 91 30.5t55 83.5l52 -18q-56 -141 -186 -141q-72 0 -122 30.5t-81 86
t-44.5 134t-13.5 175.5q0 15 0.5 31t0.5 33q0 78 -27 135t-72 95q-38 -101 -84 -195t-106 -166t-137.5 -115.5t-178.5 -43.5q-93 0 -161.5 31.5t-113.5 83.5t-67 119t-22 138q0 78 26 154t76.5 136.5t125.5 97.5t173 37q50 0 90 -12.5t70 -34t50.5 -51t31.5 -62.5zM233 154
q13 56 46 100t78.5 75.5t101 49.5t114.5 22q-10 28 -27 52.5t-41 42.5t-55 28.5t-70 10.5q-83 0 -146.5 -35t-106.5 -92t-65.5 -128.5t-22.5 -144.5q0 -65 18.5 -126.5t57 -108.5t97.5 -75.5t139 -28.5q85 0 153.5 43.5t124.5 115.5t101.5 165t84.5 192q-39 26 -85 38
t-95 14q2 -12 3.5 -24t1.5 -24q0 -42 -12 -84t-35.5 -78.5t-58 -64.5t-79.5 -42l-10 24l-10 24q37 12 65 35.5t47 53.5t28.5 65t9.5 70q0 11 -1 21t-3 20q-51 -5 -99.5 -21.5t-88.5 -44.5t-68.5 -67.5t-39.5 -88.5q-13 4 -25.5 8t-26.5 8zM1068 821q-8 -9 -13.5 -19.5
t-11.5 -21.5q-24 -45 -46 -99t-43.5 -113t-43 -122t-45.5 -127q34 -27 58 -63t37 -83q13 144 41.5 308t66.5 340zM1212 1007l-4 -17q-12 -42 -38.5 -64t-53.5 -22q-26 0 -45.5 21.5t-19.5 66.5q0 6 0.5 12.5t1.5 12.5l33 1q-1 -8 -1.5 -18t-0.5 -16q0 -27 9.5 -43t29.5 -16
q19 0 35 21t24 71zM1074 1152q24 -47 47 -77t36 -44l-21 -20q-15 11 -32 28q-14 14 -32 36t-36 52z" />
    <glyph glyph-name="uni1EB1" unicode="&#x1eb1;" horiz-adv-x="332" 
d="M222 455h45q-19 -93 -34.5 -177t-24.5 -155q-2 -15 -3 -27.5t-1 -22.5q0 -36 12 -36q17 0 47.5 51.5t68.5 152.5q5 0 11.5 -4t6.5 -6q-26 -63 -46.5 -108t-38 -73.5t-32.5 -41.5t-31 -13q-41 0 -41 103l5 48q-11 -30 -23.5 -57.5t-27.5 -48t-32.5 -33t-37.5 -12.5
q-32 0 -47 31t-15 85q0 35 6 74.5t16.5 78.5t25.5 75t33 63t38.5 43.5t43.5 16.5q30 0 44 -21.5t18 -55.5zM148 422q-21 0 -41.5 -33t-37 -81t-26.5 -101.5t-10 -95.5q0 -32 7 -51.5t23 -19.5q13 0 28 15.5t28.5 41t26 57.5t22 65.5t15 65.5t5.5 57q0 36 -10 58t-30 22z
M285 581l-4 -17q-12 -42 -38.5 -64t-53.5 -22q-26 0 -45.5 21.5t-19.5 66.5q0 6 0.5 12.5t1.5 12.5l33 1q-1 -8 -1.5 -18t-0.5 -16q0 -27 9.5 -43t29.5 -16q19 0 35 21t24 71zM157 718q24 -47 47 -77t36 -44l-21 -20q-15 11 -32 28q-14 14 -32 36t-36 52z" />
    <glyph glyph-name="uni1EB2" unicode="&#x1eb2;" horiz-adv-x="1095" 
d="M626 403q55 -2 106.5 -16.5t95.5 -42.5q33 84 63.5 167t61.5 155t63.5 129t69.5 89l45 -21q-27 -123 -49 -241.5t-37.5 -229t-24.5 -210.5t-9 -185q0 -89 10.5 -160t33 -121.5t58.5 -77.5t87 -27q57 0 91 30.5t55 83.5l52 -18q-56 -141 -186 -141q-72 0 -122 30.5t-81 86
t-44.5 134t-13.5 175.5q0 15 0.5 31t0.5 33q0 78 -27 135t-72 95q-38 -101 -84 -195t-106 -166t-137.5 -115.5t-178.5 -43.5q-93 0 -161.5 31.5t-113.5 83.5t-67 119t-22 138q0 78 26 154t76.5 136.5t125.5 97.5t173 37q50 0 90 -12.5t70 -34t50.5 -51t31.5 -62.5zM233 154
q13 56 46 100t78.5 75.5t101 49.5t114.5 22q-10 28 -27 52.5t-41 42.5t-55 28.5t-70 10.5q-83 0 -146.5 -35t-106.5 -92t-65.5 -128.5t-22.5 -144.5q0 -65 18.5 -126.5t57 -108.5t97.5 -75.5t139 -28.5q85 0 153.5 43.5t124.5 115.5t101.5 165t84.5 192q-39 26 -85 38
t-95 14q2 -12 3.5 -24t1.5 -24q0 -42 -12 -84t-35.5 -78.5t-58 -64.5t-79.5 -42l-10 24l-10 24q37 12 65 35.5t47 53.5t28.5 65t9.5 70q0 11 -1 21t-3 20q-51 -5 -99.5 -21.5t-88.5 -44.5t-68.5 -67.5t-39.5 -88.5q-13 4 -25.5 8t-26.5 8zM1068 821q-8 -9 -13.5 -19.5
t-11.5 -21.5q-24 -45 -46 -99t-43.5 -113t-43 -122t-45.5 -127q34 -27 58 -63t37 -83q13 144 41.5 308t66.5 340zM1212 1007l-4 -17q-12 -42 -38.5 -64t-53.5 -22q-26 0 -45.5 21.5t-19.5 66.5q0 6 0.5 12.5t1.5 12.5l33 1q-1 -8 -1.5 -18t-0.5 -16q0 -27 9.5 -43t29.5 -16
q19 0 35 21t24 71zM1096 1154q1 16 8.5 32.5t20 28.5t29.5 19t37 4q39 -6 52 -34t9 -58q-3 -24 -13 -40.5t-24 -30.5t-30 -27.5t-31 -30.5h-40q15 19 31.5 34t31 29.5t25.5 31t14 37.5q3 22 -6 37t-29 17q-19 2 -32 -12.5t-16 -34.5q-2 -11 0.5 -18.5t10.5 -19.5l-16 -8
t-17 -10q-8 11 -12.5 26t-2.5 28z" />
    <glyph glyph-name="uni1EB3" unicode="&#x1eb3;" horiz-adv-x="332" 
d="M222 455h45q-19 -93 -34.5 -177t-24.5 -155q-2 -15 -3 -27.5t-1 -22.5q0 -36 12 -36q17 0 47.5 51.5t68.5 152.5q5 0 11.5 -4t6.5 -6q-26 -63 -46.5 -108t-38 -73.5t-32.5 -41.5t-31 -13q-41 0 -41 103l5 48q-11 -30 -23.5 -57.5t-27.5 -48t-32.5 -33t-37.5 -12.5
q-32 0 -47 31t-15 85q0 35 6 74.5t16.5 78.5t25.5 75t33 63t38.5 43.5t43.5 16.5q30 0 44 -21.5t18 -55.5zM148 422q-21 0 -41.5 -33t-37 -81t-26.5 -101.5t-10 -95.5q0 -32 7 -51.5t23 -19.5q13 0 28 15.5t28.5 41t26 57.5t22 65.5t15 65.5t5.5 57q0 36 -10 58t-30 22z
M285 581l-4 -17q-12 -42 -38.5 -64t-53.5 -22q-26 0 -45.5 21.5t-19.5 66.5q0 6 0.5 12.5t1.5 12.5l33 1q-1 -8 -1.5 -18t-0.5 -16q0 -27 9.5 -43t29.5 -16q19 0 35 21t24 71zM172 734q1 16 8.5 32.5t20 28.5t29.5 19t37 4q39 -6 52 -34t9 -58q-3 -24 -13 -40.5t-24 -30.5
t-30 -27.5t-31 -30.5h-40q15 19 31.5 34t31 29.5t25.5 31t14 37.5q3 22 -6 37t-29 17q-19 2 -32 -12.5t-16 -34.5q-2 -11 0.5 -18.5t10.5 -19.5l-16 -8t-17 -10q-8 11 -12.5 26t-2.5 28z" />
    <glyph glyph-name="uni1EB4" unicode="&#x1eb4;" horiz-adv-x="1095" 
d="M626 403q55 -2 106.5 -16.5t95.5 -42.5q33 84 63.5 167t61.5 155t63.5 129t69.5 89l45 -21q-27 -123 -49 -241.5t-37.5 -229t-24.5 -210.5t-9 -185q0 -89 10.5 -160t33 -121.5t58.5 -77.5t87 -27q57 0 91 30.5t55 83.5l52 -18q-56 -141 -186 -141q-72 0 -122 30.5t-81 86
t-44.5 134t-13.5 175.5q0 15 0.5 31t0.5 33q0 78 -27 135t-72 95q-38 -101 -84 -195t-106 -166t-137.5 -115.5t-178.5 -43.5q-93 0 -161.5 31.5t-113.5 83.5t-67 119t-22 138q0 78 26 154t76.5 136.5t125.5 97.5t173 37q50 0 90 -12.5t70 -34t50.5 -51t31.5 -62.5zM233 154
q13 56 46 100t78.5 75.5t101 49.5t114.5 22q-10 28 -27 52.5t-41 42.5t-55 28.5t-70 10.5q-83 0 -146.5 -35t-106.5 -92t-65.5 -128.5t-22.5 -144.5q0 -65 18.5 -126.5t57 -108.5t97.5 -75.5t139 -28.5q85 0 153.5 43.5t124.5 115.5t101.5 165t84.5 192q-39 26 -85 38
t-95 14q2 -12 3.5 -24t1.5 -24q0 -42 -12 -84t-35.5 -78.5t-58 -64.5t-79.5 -42l-10 24l-10 24q37 12 65 35.5t47 53.5t28.5 65t9.5 70q0 11 -1 21t-3 20q-51 -5 -99.5 -21.5t-88.5 -44.5t-68.5 -67.5t-39.5 -88.5q-13 4 -25.5 8t-26.5 8zM1068 821q-8 -9 -13.5 -19.5
t-11.5 -21.5q-24 -45 -46 -99t-43.5 -113t-43 -122t-45.5 -127q34 -27 58 -63t37 -83q13 144 41.5 308t66.5 340zM1212 1007l-4 -17q-12 -42 -38.5 -64t-53.5 -22q-26 0 -45.5 21.5t-19.5 66.5q0 6 0.5 12.5t1.5 12.5l33 1q-1 -8 -1.5 -18t-0.5 -16q0 -27 9.5 -43t29.5 -16
q19 0 35 21t24 71zM1034 1067q12 16 28 21t34 5h8q21 -2 41.5 -6t37.5 -4q22 0 32.5 4.5t18.5 12.5l23 -30q-10 -11 -23 -17t-31 -6q-26 0 -53 10t-52 10q-13 0 -24 -4.5t-21 -15.5z" />
    <glyph glyph-name="uni1EB5" unicode="&#x1eb5;" horiz-adv-x="332" 
d="M222 455h45q-19 -93 -34.5 -177t-24.5 -155q-2 -15 -3 -27.5t-1 -22.5q0 -36 12 -36q17 0 47.5 51.5t68.5 152.5q5 0 11.5 -4t6.5 -6q-26 -63 -46.5 -108t-38 -73.5t-32.5 -41.5t-31 -13q-41 0 -41 103l5 48q-11 -30 -23.5 -57.5t-27.5 -48t-32.5 -33t-37.5 -12.5
q-32 0 -47 31t-15 85q0 35 6 74.5t16.5 78.5t25.5 75t33 63t38.5 43.5t43.5 16.5q30 0 44 -21.5t18 -55.5zM148 422q-21 0 -41.5 -33t-37 -81t-26.5 -101.5t-10 -95.5q0 -32 7 -51.5t23 -19.5q13 0 28 15.5t28.5 41t26 57.5t22 65.5t15 65.5t5.5 57q0 36 -10 58t-30 22z
M285 581l-4 -17q-12 -42 -38.5 -64t-53.5 -22q-26 0 -45.5 21.5t-19.5 66.5q0 6 0.5 12.5t1.5 12.5l33 1q-1 -8 -1.5 -18t-0.5 -16q0 -27 9.5 -43t29.5 -16q19 0 35 21t24 71zM107 632q12 16 28 21t34 5h8q21 -2 41.5 -6t37.5 -4q22 0 32.5 4.5t18.5 12.5l23 -30
q-10 -11 -23 -17t-31 -6q-26 0 -53 10t-52 10q-13 0 -24 -4.5t-21 -15.5z" />
    <glyph glyph-name="uni1EB6" unicode="&#x1eb6;" horiz-adv-x="1095" 
d="M778 -358q-16 0 -23 10t-7 24q0 17 10.5 32t30.5 15q15 0 22.5 -10t7.5 -24q0 -16 -10.5 -31.5t-30.5 -15.5zM626 403q55 -2 106.5 -16.5t95.5 -42.5q33 84 63.5 167t61.5 155t63.5 129t69.5 89l45 -21q-27 -123 -49 -241.5t-37.5 -229t-24.5 -210.5t-9 -185
q0 -89 10.5 -160t33 -121.5t58.5 -77.5t87 -27q57 0 91 30.5t55 83.5l52 -18q-56 -141 -186 -141q-72 0 -122 30.5t-81 86t-44.5 134t-13.5 175.5q0 15 0.5 31t0.5 33q0 78 -27 135t-72 95q-38 -101 -84 -195t-106 -166t-137.5 -115.5t-178.5 -43.5q-93 0 -161.5 31.5
t-113.5 83.5t-67 119t-22 138q0 78 26 154t76.5 136.5t125.5 97.5t173 37q50 0 90 -12.5t70 -34t50.5 -51t31.5 -62.5zM233 154q13 56 46 100t78.5 75.5t101 49.5t114.5 22q-10 28 -27 52.5t-41 42.5t-55 28.5t-70 10.5q-83 0 -146.5 -35t-106.5 -92t-65.5 -128.5
t-22.5 -144.5q0 -65 18.5 -126.5t57 -108.5t97.5 -75.5t139 -28.5q85 0 153.5 43.5t124.5 115.5t101.5 165t84.5 192q-39 26 -85 38t-95 14q2 -12 3.5 -24t1.5 -24q0 -42 -12 -84t-35.5 -78.5t-58 -64.5t-79.5 -42l-10 24l-10 24q37 12 65 35.5t47 53.5t28.5 65t9.5 70
q0 11 -1 21t-3 20q-51 -5 -99.5 -21.5t-88.5 -44.5t-68.5 -67.5t-39.5 -88.5q-13 4 -25.5 8t-26.5 8zM1068 821q-8 -9 -13.5 -19.5t-11.5 -21.5q-24 -45 -46 -99t-43.5 -113t-43 -122t-45.5 -127q34 -27 58 -63t37 -83q13 144 41.5 308t66.5 340zM1212 1007l-4 -17
q-12 -42 -38.5 -64t-53.5 -22q-26 0 -45.5 21.5t-19.5 66.5q0 6 0.5 12.5t1.5 12.5l33 1q-1 -8 -1.5 -18t-0.5 -16q0 -27 9.5 -43t29.5 -16q19 0 35 21t24 71z" />
    <glyph glyph-name="uni1EB7" unicode="&#x1eb7;" horiz-adv-x="332" 
d="M96 -117q-16 0 -23 10t-7 24q0 17 10.5 32t30.5 15q15 0 22.5 -10t7.5 -24q0 -16 -10.5 -31.5t-30.5 -15.5zM222 455h45q-19 -93 -34.5 -177t-24.5 -155q-2 -15 -3 -27.5t-1 -22.5q0 -36 12 -36q17 0 47.5 51.5t68.5 152.5q5 0 11.5 -4t6.5 -6q-26 -63 -46.5 -108
t-38 -73.5t-32.5 -41.5t-31 -13q-41 0 -41 103l5 48q-11 -30 -23.5 -57.5t-27.5 -48t-32.5 -33t-37.5 -12.5q-32 0 -47 31t-15 85q0 35 6 74.5t16.5 78.5t25.5 75t33 63t38.5 43.5t43.5 16.5q30 0 44 -21.5t18 -55.5zM148 422q-21 0 -41.5 -33t-37 -81t-26.5 -101.5
t-10 -95.5q0 -32 7 -51.5t23 -19.5q13 0 28 15.5t28.5 41t26 57.5t22 65.5t15 65.5t5.5 57q0 36 -10 58t-30 22zM285 581l-4 -17q-12 -42 -38.5 -64t-53.5 -22q-26 0 -45.5 21.5t-19.5 66.5q0 6 0.5 12.5t1.5 12.5l33 1q-1 -8 -1.5 -18t-0.5 -16q0 -27 9.5 -43t29.5 -16
q19 0 35 21t24 71z" />
    <glyph glyph-name="uni1EB8" unicode="&#x1eb8;" horiz-adv-x="756" 
d="M555 371q-2 -1 -9 -1q-43 0 -75 17q-63 -15 -111 -51t-79.5 -84t-47.5 -103.5t-16 -109.5q0 -48 12.5 -92t38 -77.5t64 -53.5t89.5 -20q58 0 101.5 25.5t71.5 64.5t42 87t14 93q0 30 -6 56.5t-18 47t-29.5 32t-40.5 11.5q-24 0 -42.5 -11.5t-32 -30.5t-20.5 -43.5
t-7 -50.5q0 -23 6 -46t17 -43l-54 -27q-13 23 -19 49.5t-6 52.5q0 35 10.5 68.5t31 59.5t50.5 41.5t68 15.5q37 0 64.5 -14.5t46 -39.5t27.5 -58t9 -70q0 -51 -18 -104.5t-54 -97t-90.5 -71t-126.5 -27.5q-65 0 -113 22.5t-80.5 60t-48.5 87t-16 103.5q0 57 18 114.5
t53.5 108t89 89t124.5 56.5q-16 11 -28 27t-21 36q-19 -2 -39 -3.5t-42 -1.5q-81 0 -139 17.5t-95 46t-54 64t-17 71.5q0 30 11 58t32 49t50.5 34t65.5 13q105 0 157 -92l-22 -16l-22 -16q-17 34 -44.5 56t-68.5 22q-26 0 -46.5 -8.5t-34.5 -23.5t-21.5 -34.5t-7.5 -41.5
q0 -29 14.5 -59t45.5 -54.5t79.5 -40t116.5 -15.5q19 0 35.5 1.5t33.5 3.5q-17 51 -17 109q0 51 13 100t39 88t64 62.5t88 23.5q62 0 94.5 -37.5t32.5 -96.5q0 -38 -15 -78.5t-45.5 -77.5t-78 -67t-111.5 -46q8 -21 19.5 -37t27.5 -26q14 2 28.5 3.5t28.5 1.5q8 0 11 -1z
M573 855q-38 0 -66.5 -20.5t-47.5 -54t-28.5 -77.5t-9.5 -90q0 -53 14 -101q54 15 93 43t64 62t37 70.5t12 68.5q0 41 -18 69t-50 30zM408 -348q-16 0 -23 10t-7 24q0 17 10.5 32t30.5 15q15 0 22.5 -10t7.5 -24q0 -16 -10.5 -31.5t-30.5 -15.5z" />
    <glyph glyph-name="uni1EB9" unicode="&#x1eb9;" horiz-adv-x="265" 
d="M112 40q24 0 46 18.5t41.5 47.5t36 64.5t29.5 70.5q4 0 11 -4t7 -6q-12 -35 -29.5 -76.5t-40.5 -77.5t-51.5 -60t-62.5 -24q-29 0 -49.5 13t-33 35t-18.5 52t-6 63q0 51 12.5 105.5t34.5 99t52.5 73.5t66.5 29q29 0 43 -17.5t14 -44.5q0 -30 -15.5 -60t-39.5 -55.5
t-54 -44t-58 -23.5q-2 -15 -3.5 -29.5t-1.5 -28.5q0 -25 3.5 -47t12 -38t21.5 -25.5t32 -9.5zM153 436q-16 0 -31.5 -17t-29 -44t-24.5 -61.5t-17 -69.5q31 15 54 34.5t38 40.5t22.5 42t7.5 39q0 36 -20 36zM77 -117q-16 0 -23 10t-7 24q0 17 10.5 32t30.5 15q15 0 22.5 -10
t7.5 -24q0 -16 -10.5 -31.5t-30.5 -15.5z" />
    <glyph glyph-name="uni1EBA" unicode="&#x1eba;" horiz-adv-x="756" 
d="M555 371q-2 -1 -9 -1q-43 0 -75 17q-63 -15 -111 -51t-79.5 -84t-47.5 -103.5t-16 -109.5q0 -48 12.5 -92t38 -77.5t64 -53.5t89.5 -20q58 0 101.5 25.5t71.5 64.5t42 87t14 93q0 30 -6 56.5t-18 47t-29.5 32t-40.5 11.5q-24 0 -42.5 -11.5t-32 -30.5t-20.5 -43.5
t-7 -50.5q0 -23 6 -46t17 -43l-54 -27q-13 23 -19 49.5t-6 52.5q0 35 10.5 68.5t31 59.5t50.5 41.5t68 15.5q37 0 64.5 -14.5t46 -39.5t27.5 -58t9 -70q0 -51 -18 -104.5t-54 -97t-90.5 -71t-126.5 -27.5q-65 0 -113 22.5t-80.5 60t-48.5 87t-16 103.5q0 57 18 114.5
t53.5 108t89 89t124.5 56.5q-16 11 -28 27t-21 36q-19 -2 -39 -3.5t-42 -1.5q-81 0 -139 17.5t-95 46t-54 64t-17 71.5q0 30 11 58t32 49t50.5 34t65.5 13q105 0 157 -92l-22 -16l-22 -16q-17 34 -44.5 56t-68.5 22q-26 0 -46.5 -8.5t-34.5 -23.5t-21.5 -34.5t-7.5 -41.5
q0 -29 14.5 -59t45.5 -54.5t79.5 -40t116.5 -15.5q19 0 35.5 1.5t33.5 3.5q-17 51 -17 109q0 51 13 100t39 88t64 62.5t88 23.5q62 0 94.5 -37.5t32.5 -96.5q0 -38 -15 -78.5t-45.5 -77.5t-78 -67t-111.5 -46q8 -21 19.5 -37t27.5 -26q14 2 28.5 3.5t28.5 1.5q8 0 11 -1z
M573 855q-38 0 -66.5 -20.5t-47.5 -54t-28.5 -77.5t-9.5 -90q0 -53 14 -101q54 15 93 43t64 62t37 70.5t12 68.5q0 41 -18 69t-50 30zM574 1047q1 16 8.5 32.5t20 28.5t29.5 19t37 4q39 -6 52 -34t9 -58q-3 -24 -13 -40.5t-24 -30.5t-30 -27.5t-31 -30.5h-40q15 19 31.5 34
t31 29.5t25.5 31t14 37.5q3 22 -6 37t-29 17q-19 2 -32 -12.5t-16 -34.5q-2 -11 0.5 -18.5t10.5 -19.5l-16 -8t-17 -10q-8 11 -12.5 26t-2.5 28z" />
    <glyph glyph-name="uni1EBB" unicode="&#x1ebb;" horiz-adv-x="265" 
d="M112 40q24 0 46 18.5t41.5 47.5t36 64.5t29.5 70.5q4 0 11 -4t7 -6q-12 -35 -29.5 -76.5t-40.5 -77.5t-51.5 -60t-62.5 -24q-29 0 -49.5 13t-33 35t-18.5 52t-6 63q0 51 12.5 105.5t34.5 99t52.5 73.5t66.5 29q29 0 43 -17.5t14 -44.5q0 -30 -15.5 -60t-39.5 -55.5
t-54 -44t-58 -23.5q-2 -15 -3.5 -29.5t-1.5 -28.5q0 -25 3.5 -47t12 -38t21.5 -25.5t32 -9.5zM153 436q-16 0 -31.5 -17t-29 -44t-24.5 -61.5t-17 -69.5q31 15 54 34.5t38 40.5t22.5 42t7.5 39q0 36 -20 36zM132 639q1 16 8.5 32.5t20 28.5t29.5 19t37 4q39 -6 52 -34t9 -58
q-3 -24 -13 -40.5t-24 -30.5t-30 -27.5t-31 -30.5h-40q15 19 31.5 34t31 29.5t25.5 31t14 37.5q3 22 -6 37t-29 17q-19 2 -32 -12.5t-16 -34.5q-2 -11 0.5 -18.5t10.5 -19.5l-16 -8t-17 -10q-8 11 -12.5 26t-2.5 28z" />
    <glyph glyph-name="uni1EBC" unicode="&#x1ebc;" horiz-adv-x="756" 
d="M555 371q-2 -1 -9 -1q-43 0 -75 17q-63 -15 -111 -51t-79.5 -84t-47.5 -103.5t-16 -109.5q0 -48 12.5 -92t38 -77.5t64 -53.5t89.5 -20q58 0 101.5 25.5t71.5 64.5t42 87t14 93q0 30 -6 56.5t-18 47t-29.5 32t-40.5 11.5q-24 0 -42.5 -11.5t-32 -30.5t-20.5 -43.5
t-7 -50.5q0 -23 6 -46t17 -43l-54 -27q-13 23 -19 49.5t-6 52.5q0 35 10.5 68.5t31 59.5t50.5 41.5t68 15.5q37 0 64.5 -14.5t46 -39.5t27.5 -58t9 -70q0 -51 -18 -104.5t-54 -97t-90.5 -71t-126.5 -27.5q-65 0 -113 22.5t-80.5 60t-48.5 87t-16 103.5q0 57 18 114.5
t53.5 108t89 89t124.5 56.5q-16 11 -28 27t-21 36q-19 -2 -39 -3.5t-42 -1.5q-81 0 -139 17.5t-95 46t-54 64t-17 71.5q0 30 11 58t32 49t50.5 34t65.5 13q105 0 157 -92l-22 -16l-22 -16q-17 34 -44.5 56t-68.5 22q-26 0 -46.5 -8.5t-34.5 -23.5t-21.5 -34.5t-7.5 -41.5
q0 -29 14.5 -59t45.5 -54.5t79.5 -40t116.5 -15.5q19 0 35.5 1.5t33.5 3.5q-17 51 -17 109q0 51 13 100t39 88t64 62.5t88 23.5q62 0 94.5 -37.5t32.5 -96.5q0 -38 -15 -78.5t-45.5 -77.5t-78 -67t-111.5 -46q8 -21 19.5 -37t27.5 -26q14 2 28.5 3.5t28.5 1.5q8 0 11 -1z
M573 855q-38 0 -66.5 -20.5t-47.5 -54t-28.5 -77.5t-9.5 -90q0 -53 14 -101q54 15 93 43t64 62t37 70.5t12 68.5q0 41 -18 69t-50 30zM472 936q12 16 28 21t34 5h8q21 -2 41.5 -6t37.5 -4q22 0 32.5 4.5t18.5 12.5l23 -30q-10 -11 -23 -17t-31 -6q-26 0 -53 10t-52 10
q-13 0 -24 -4.5t-21 -15.5z" />
    <glyph glyph-name="uni1EBD" unicode="&#x1ebd;" horiz-adv-x="265" 
d="M112 40q24 0 46 18.5t41.5 47.5t36 64.5t29.5 70.5q4 0 11 -4t7 -6q-12 -35 -29.5 -76.5t-40.5 -77.5t-51.5 -60t-62.5 -24q-29 0 -49.5 13t-33 35t-18.5 52t-6 63q0 51 12.5 105.5t34.5 99t52.5 73.5t66.5 29q29 0 43 -17.5t14 -44.5q0 -30 -15.5 -60t-39.5 -55.5
t-54 -44t-58 -23.5q-2 -15 -3.5 -29.5t-1.5 -28.5q0 -25 3.5 -47t12 -38t21.5 -25.5t32 -9.5zM153 436q-16 0 -31.5 -17t-29 -44t-24.5 -61.5t-17 -69.5q31 15 54 34.5t38 40.5t22.5 42t7.5 39q0 36 -20 36zM57 524q12 16 28 21t34 5h8q21 -2 41.5 -6t37.5 -4q22 0 32.5 4.5
t18.5 12.5l23 -30q-10 -11 -23 -17t-31 -6q-26 0 -53 10t-52 10q-13 0 -24 -4.5t-21 -15.5z" />
    <glyph glyph-name="uni1EBE" unicode="&#x1ebe;" horiz-adv-x="755" 
d="M554 371q-2 -1 -9 -1q-43 0 -75 17q-63 -15 -111 -51t-79.5 -84t-47.5 -103.5t-16 -109.5q0 -48 12.5 -92t38 -77.5t64 -53.5t89.5 -20q58 0 101.5 25.5t71.5 64.5t42 87t14 93q0 30 -6 56.5t-18 47t-29.5 32t-40.5 11.5q-24 0 -42.5 -11.5t-32 -30.5t-20.5 -43.5
t-7 -50.5q0 -23 6 -46t17 -43l-54 -27q-13 23 -19 49.5t-6 52.5q0 35 10.5 68.5t31 59.5t50.5 41.5t68 15.5q37 0 64.5 -14.5t46 -39.5t27.5 -58t9 -70q0 -51 -18 -104.5t-54 -97t-90.5 -71t-126.5 -27.5q-65 0 -113 22.5t-80.5 60t-48.5 87t-16 103.5q0 57 18 114.5
t53.5 108t89 89t124.5 56.5q-16 11 -28 27t-21 36q-19 -2 -39 -3.5t-42 -1.5q-81 0 -139 17.5t-95 46t-54 64t-17 71.5q0 30 11 58t32 49t50.5 34t65.5 13q105 0 157 -92l-22 -16l-22 -16q-17 34 -44.5 56t-68.5 22q-26 0 -46.5 -8.5t-34.5 -23.5t-21.5 -34.5t-7.5 -41.5
q0 -29 14.5 -59t45.5 -54.5t79.5 -40t116.5 -15.5q19 0 35.5 1.5t33.5 3.5q-17 51 -17 109q0 51 13 100t39 88t64 62.5t88 23.5q62 0 94.5 -37.5t32.5 -96.5q0 -38 -15 -78.5t-45.5 -77.5t-78 -67t-111.5 -46q8 -21 19.5 -37t27.5 -26q14 2 28.5 3.5t28.5 1.5q8 0 11 -1z
M572 855q-38 0 -66.5 -20.5t-47.5 -54t-28.5 -77.5t-9.5 -90q0 -53 14 -101q54 15 93 43t64 62t37 70.5t12 68.5q0 41 -18 69t-50 30zM617 1072q27 -44 42.5 -76t18.5 -40l-37 -18q-3 6 -13 33t-33 68q-8 -10 -19 -23t-23 -26.5t-24.5 -25t-21.5 -18.5l-24 26
q43 32 68.5 58.5t38.5 43.5zM776 1159q-19 -30 -36.5 -52t-31.5 -36q-17 -17 -31 -28l-21 19q13 14 36 44.5t47 77.5z" />
    <glyph glyph-name="uni1EBF" unicode="&#x1ebf;" horiz-adv-x="265" 
d="M112 40q24 0 46 18.5t41.5 47.5t36 64.5t29.5 70.5q4 0 11 -4t7 -6q-12 -35 -29.5 -76.5t-40.5 -77.5t-51.5 -60t-62.5 -24q-29 0 -49.5 13t-33 35t-18.5 52t-6 63q0 51 12.5 105.5t34.5 99t52.5 73.5t66.5 29q29 0 43 -17.5t14 -44.5q0 -30 -15.5 -60t-39.5 -55.5
t-54 -44t-58 -23.5q-2 -15 -3.5 -29.5t-1.5 -28.5q0 -25 3.5 -47t12 -38t21.5 -25.5t32 -9.5zM153 436q-16 0 -31.5 -17t-29 -44t-24.5 -61.5t-17 -69.5q31 15 54 34.5t38 40.5t22.5 42t7.5 39q0 36 -20 36zM190 612q27 -44 42.5 -76t18.5 -40l-37 -18q-3 6 -13 33t-33 68
q-8 -10 -19 -23t-23 -26.5t-24.5 -25t-21.5 -18.5l-24 26q43 32 68.5 58.5t38.5 43.5zM333 698q-19 -30 -36.5 -52t-31.5 -36q-17 -17 -31 -28l-21 19q13 14 36 44.5t47 77.5z" />
    <glyph glyph-name="uni1EC0" unicode="&#x1ec0;" horiz-adv-x="755" 
d="M554 371q-2 -1 -9 -1q-43 0 -75 17q-63 -15 -111 -51t-79.5 -84t-47.5 -103.5t-16 -109.5q0 -48 12.5 -92t38 -77.5t64 -53.5t89.5 -20q58 0 101.5 25.5t71.5 64.5t42 87t14 93q0 30 -6 56.5t-18 47t-29.5 32t-40.5 11.5q-24 0 -42.5 -11.5t-32 -30.5t-20.5 -43.5
t-7 -50.5q0 -23 6 -46t17 -43l-54 -27q-13 23 -19 49.5t-6 52.5q0 35 10.5 68.5t31 59.5t50.5 41.5t68 15.5q37 0 64.5 -14.5t46 -39.5t27.5 -58t9 -70q0 -51 -18 -104.5t-54 -97t-90.5 -71t-126.5 -27.5q-65 0 -113 22.5t-80.5 60t-48.5 87t-16 103.5q0 57 18 114.5
t53.5 108t89 89t124.5 56.5q-16 11 -28 27t-21 36q-19 -2 -39 -3.5t-42 -1.5q-81 0 -139 17.5t-95 46t-54 64t-17 71.5q0 30 11 58t32 49t50.5 34t65.5 13q105 0 157 -92l-22 -16l-22 -16q-17 34 -44.5 56t-68.5 22q-26 0 -46.5 -8.5t-34.5 -23.5t-21.5 -34.5t-7.5 -41.5
q0 -29 14.5 -59t45.5 -54.5t79.5 -40t116.5 -15.5q19 0 35.5 1.5t33.5 3.5q-17 51 -17 109q0 51 13 100t39 88t64 62.5t88 23.5q62 0 94.5 -37.5t32.5 -96.5q0 -38 -15 -78.5t-45.5 -77.5t-78 -67t-111.5 -46q8 -21 19.5 -37t27.5 -26q14 2 28.5 3.5t28.5 1.5q8 0 11 -1z
M572 855q-38 0 -66.5 -20.5t-47.5 -54t-28.5 -77.5t-9.5 -90q0 -53 14 -101q54 15 93 43t64 62t37 70.5t12 68.5q0 41 -18 69t-50 30zM617 1072q27 -44 42.5 -76t18.5 -40l-37 -18q-3 6 -13 33t-33 68q-8 -10 -19 -23t-23 -26.5t-24.5 -25t-21.5 -18.5l-24 26
q43 32 68.5 58.5t38.5 43.5zM625 1182q24 -47 47 -77t36 -44l-21 -20q-15 11 -32 28q-14 14 -32 36t-36 52z" />
    <glyph glyph-name="uni1EC1" unicode="&#x1ec1;" horiz-adv-x="265" 
d="M112 40q24 0 46 18.5t41.5 47.5t36 64.5t29.5 70.5q4 0 11 -4t7 -6q-12 -35 -29.5 -76.5t-40.5 -77.5t-51.5 -60t-62.5 -24q-29 0 -49.5 13t-33 35t-18.5 52t-6 63q0 51 12.5 105.5t34.5 99t52.5 73.5t66.5 29q29 0 43 -17.5t14 -44.5q0 -30 -15.5 -60t-39.5 -55.5
t-54 -44t-58 -23.5q-2 -15 -3.5 -29.5t-1.5 -28.5q0 -25 3.5 -47t12 -38t21.5 -25.5t32 -9.5zM153 436q-16 0 -31.5 -17t-29 -44t-24.5 -61.5t-17 -69.5q31 15 54 34.5t38 40.5t22.5 42t7.5 39q0 36 -20 36zM190 612q27 -44 42.5 -76t18.5 -40l-37 -18q-3 6 -13 33t-33 68
q-8 -10 -19 -23t-23 -26.5t-24.5 -25t-21.5 -18.5l-24 26q43 32 68.5 58.5t38.5 43.5zM188 730q24 -47 47 -77t36 -44l-21 -20q-15 11 -32 28q-14 14 -32 36t-36 52z" />
    <glyph glyph-name="uni1EC2" unicode="&#x1ec2;" horiz-adv-x="755" 
d="M554 371q-2 -1 -9 -1q-43 0 -75 17q-63 -15 -111 -51t-79.5 -84t-47.5 -103.5t-16 -109.5q0 -48 12.5 -92t38 -77.5t64 -53.5t89.5 -20q58 0 101.5 25.5t71.5 64.5t42 87t14 93q0 30 -6 56.5t-18 47t-29.5 32t-40.5 11.5q-24 0 -42.5 -11.5t-32 -30.5t-20.5 -43.5
t-7 -50.5q0 -23 6 -46t17 -43l-54 -27q-13 23 -19 49.5t-6 52.5q0 35 10.5 68.5t31 59.5t50.5 41.5t68 15.5q37 0 64.5 -14.5t46 -39.5t27.5 -58t9 -70q0 -51 -18 -104.5t-54 -97t-90.5 -71t-126.5 -27.5q-65 0 -113 22.5t-80.5 60t-48.5 87t-16 103.5q0 57 18 114.5
t53.5 108t89 89t124.5 56.5q-16 11 -28 27t-21 36q-19 -2 -39 -3.5t-42 -1.5q-81 0 -139 17.5t-95 46t-54 64t-17 71.5q0 30 11 58t32 49t50.5 34t65.5 13q105 0 157 -92l-22 -16l-22 -16q-17 34 -44.5 56t-68.5 22q-26 0 -46.5 -8.5t-34.5 -23.5t-21.5 -34.5t-7.5 -41.5
q0 -29 14.5 -59t45.5 -54.5t79.5 -40t116.5 -15.5q19 0 35.5 1.5t33.5 3.5q-17 51 -17 109q0 51 13 100t39 88t64 62.5t88 23.5q62 0 94.5 -37.5t32.5 -96.5q0 -38 -15 -78.5t-45.5 -77.5t-78 -67t-111.5 -46q8 -21 19.5 -37t27.5 -26q14 2 28.5 3.5t28.5 1.5q8 0 11 -1z
M572 855q-38 0 -66.5 -20.5t-47.5 -54t-28.5 -77.5t-9.5 -90q0 -53 14 -101q54 15 93 43t64 62t37 70.5t12 68.5q0 41 -18 69t-50 30zM617 1072q27 -44 42.5 -76t18.5 -40l-37 -18q-3 6 -13 33t-33 68q-8 -10 -19 -23t-23 -26.5t-24.5 -25t-21.5 -18.5l-24 26
q43 32 68.5 58.5t38.5 43.5zM648 1183q1 16 8.5 32.5t20 28.5t29.5 19t37 4q39 -6 52 -34t9 -58q-3 -24 -13 -40.5t-24 -30.5t-30 -27.5t-31 -30.5h-40q15 19 31.5 34t31 29.5t25.5 31t14 37.5q3 22 -6 37t-29 17q-19 2 -32 -12.5t-16 -34.5q-2 -11 0.5 -18.5t10.5 -19.5
l-16 -8t-17 -10q-8 11 -12.5 26t-2.5 28z" />
    <glyph glyph-name="uni1EC3" unicode="&#x1ec3;" horiz-adv-x="265" 
d="M112 40q24 0 46 18.5t41.5 47.5t36 64.5t29.5 70.5q4 0 11 -4t7 -6q-12 -35 -29.5 -76.5t-40.5 -77.5t-51.5 -60t-62.5 -24q-29 0 -49.5 13t-33 35t-18.5 52t-6 63q0 51 12.5 105.5t34.5 99t52.5 73.5t66.5 29q29 0 43 -17.5t14 -44.5q0 -30 -15.5 -60t-39.5 -55.5
t-54 -44t-58 -23.5q-2 -15 -3.5 -29.5t-1.5 -28.5q0 -25 3.5 -47t12 -38t21.5 -25.5t32 -9.5zM153 436q-16 0 -31.5 -17t-29 -44t-24.5 -61.5t-17 -69.5q31 15 54 34.5t38 40.5t22.5 42t7.5 39q0 36 -20 36zM190 612q27 -44 42.5 -76t18.5 -40l-37 -18q-3 6 -13 33t-33 68
q-8 -10 -19 -23t-23 -26.5t-24.5 -25t-21.5 -18.5l-24 26q43 32 68.5 58.5t38.5 43.5zM210 733q1 16 8.5 32.5t20 28.5t29.5 19t37 4q39 -6 52 -34t9 -58q-3 -24 -13 -40.5t-24 -30.5t-30 -27.5t-31 -30.5h-40q15 19 31.5 34t31 29.5t25.5 31t14 37.5q3 22 -6 37t-29 17
q-19 2 -32 -12.5t-16 -34.5q-2 -11 0.5 -18.5t10.5 -19.5l-16 -8t-17 -10q-8 11 -12.5 26t-2.5 28z" />
    <glyph glyph-name="uni1EC4" unicode="&#x1ec4;" horiz-adv-x="755" 
d="M554 371q-2 -1 -9 -1q-43 0 -75 17q-63 -15 -111 -51t-79.5 -84t-47.5 -103.5t-16 -109.5q0 -48 12.5 -92t38 -77.5t64 -53.5t89.5 -20q58 0 101.5 25.5t71.5 64.5t42 87t14 93q0 30 -6 56.5t-18 47t-29.5 32t-40.5 11.5q-24 0 -42.5 -11.5t-32 -30.5t-20.5 -43.5
t-7 -50.5q0 -23 6 -46t17 -43l-54 -27q-13 23 -19 49.5t-6 52.5q0 35 10.5 68.5t31 59.5t50.5 41.5t68 15.5q37 0 64.5 -14.5t46 -39.5t27.5 -58t9 -70q0 -51 -18 -104.5t-54 -97t-90.5 -71t-126.5 -27.5q-65 0 -113 22.5t-80.5 60t-48.5 87t-16 103.5q0 57 18 114.5
t53.5 108t89 89t124.5 56.5q-16 11 -28 27t-21 36q-19 -2 -39 -3.5t-42 -1.5q-81 0 -139 17.5t-95 46t-54 64t-17 71.5q0 30 11 58t32 49t50.5 34t65.5 13q105 0 157 -92l-22 -16l-22 -16q-17 34 -44.5 56t-68.5 22q-26 0 -46.5 -8.5t-34.5 -23.5t-21.5 -34.5t-7.5 -41.5
q0 -29 14.5 -59t45.5 -54.5t79.5 -40t116.5 -15.5q19 0 35.5 1.5t33.5 3.5q-17 51 -17 109q0 51 13 100t39 88t64 62.5t88 23.5q62 0 94.5 -37.5t32.5 -96.5q0 -38 -15 -78.5t-45.5 -77.5t-78 -67t-111.5 -46q8 -21 19.5 -37t27.5 -26q14 2 28.5 3.5t28.5 1.5q8 0 11 -1z
M572 855q-38 0 -66.5 -20.5t-47.5 -54t-28.5 -77.5t-9.5 -90q0 -53 14 -101q54 15 93 43t64 62t37 70.5t12 68.5q0 41 -18 69t-50 30zM617 1072q27 -44 42.5 -76t18.5 -40l-37 -18q-3 6 -13 33t-33 68q-8 -10 -19 -23t-23 -26.5t-24.5 -25t-21.5 -18.5l-24 26
q43 32 68.5 58.5t38.5 43.5zM509 1121q12 16 28 21t34 5h8q21 -2 41.5 -6t37.5 -4q22 0 32.5 4.5t18.5 12.5l23 -30q-10 -11 -23 -17t-31 -6q-26 0 -53 10t-52 10q-13 0 -24 -4.5t-21 -15.5z" />
    <glyph glyph-name="uni1EC5" unicode="&#x1ec5;" horiz-adv-x="265" 
d="M112 40q24 0 46 18.5t41.5 47.5t36 64.5t29.5 70.5q4 0 11 -4t7 -6q-12 -35 -29.5 -76.5t-40.5 -77.5t-51.5 -60t-62.5 -24q-29 0 -49.5 13t-33 35t-18.5 52t-6 63q0 51 12.5 105.5t34.5 99t52.5 73.5t66.5 29q29 0 43 -17.5t14 -44.5q0 -30 -15.5 -60t-39.5 -55.5
t-54 -44t-58 -23.5q-2 -15 -3.5 -29.5t-1.5 -28.5q0 -25 3.5 -47t12 -38t21.5 -25.5t32 -9.5zM153 436q-16 0 -31.5 -17t-29 -44t-24.5 -61.5t-17 -69.5q31 15 54 34.5t38 40.5t22.5 42t7.5 39q0 36 -20 36zM190 612q27 -44 42.5 -76t18.5 -40l-37 -18q-3 6 -13 33t-33 68
q-8 -10 -19 -23t-23 -26.5t-24.5 -25t-21.5 -18.5l-24 26q43 32 68.5 58.5t38.5 43.5zM66 652q12 16 28 21t34 5h8q21 -2 41.5 -6t37.5 -4q22 0 32.5 4.5t18.5 12.5l23 -30q-10 -11 -23 -17t-31 -6q-26 0 -53 10t-52 10q-13 0 -24 -4.5t-21 -15.5z" />
    <glyph glyph-name="uni1EC6" unicode="&#x1ec6;" horiz-adv-x="756" 
d="M554 371q-2 -1 -9 -1q-43 0 -75 17q-63 -15 -111 -51t-79.5 -84t-47.5 -103.5t-16 -109.5q0 -48 12.5 -92t38 -77.5t64 -53.5t89.5 -20q58 0 101.5 25.5t71.5 64.5t42 87t14 93q0 30 -6 56.5t-18 47t-29.5 32t-40.5 11.5q-24 0 -42.5 -11.5t-32 -30.5t-20.5 -43.5
t-7 -50.5q0 -23 6 -46t17 -43l-54 -27q-13 23 -19 49.5t-6 52.5q0 35 10.5 68.5t31 59.5t50.5 41.5t68 15.5q37 0 64.5 -14.5t46 -39.5t27.5 -58t9 -70q0 -51 -18 -104.5t-54 -97t-90.5 -71t-126.5 -27.5q-65 0 -113 22.5t-80.5 60t-48.5 87t-16 103.5q0 57 18 114.5
t53.5 108t89 89t124.5 56.5q-16 11 -28 27t-21 36q-19 -2 -39 -3.5t-42 -1.5q-81 0 -139 17.5t-95 46t-54 64t-17 71.5q0 30 11 58t32 49t50.5 34t65.5 13q105 0 157 -92l-22 -16l-22 -16q-17 34 -44.5 56t-68.5 22q-26 0 -46.5 -8.5t-34.5 -23.5t-21.5 -34.5t-7.5 -41.5
q0 -29 14.5 -59t45.5 -54.5t79.5 -40t116.5 -15.5q19 0 35.5 1.5t33.5 3.5q-17 51 -17 109q0 51 13 100t39 88t64 62.5t88 23.5q62 0 94.5 -37.5t32.5 -96.5q0 -38 -15 -78.5t-45.5 -77.5t-78 -67t-111.5 -46q8 -21 19.5 -37t27.5 -26q14 2 28.5 3.5t28.5 1.5q8 0 11 -1z
M572 855q-38 0 -66.5 -20.5t-47.5 -54t-28.5 -77.5t-9.5 -90q0 -53 14 -101q54 15 93 43t64 62t37 70.5t12 68.5q0 41 -18 69t-50 30zM617 1072q27 -44 42.5 -76t18.5 -40l-37 -18q-3 6 -13 33t-33 68q-8 -10 -19 -23t-23 -26.5t-24.5 -25t-21.5 -18.5l-24 26
q43 32 68.5 58.5t38.5 43.5zM408 -348q-16 0 -23 10t-7 24q0 17 10.5 32t30.5 15q15 0 22.5 -10t7.5 -24q0 -16 -10.5 -31.5t-30.5 -15.5z" />
    </font>
</defs>
</svg>
