<?xml version="1.0" standalone="no"?>
<!DOCTYPE svg PUBLIC "-//W3C//DTD SVG 1.1//EN" "http://www.w3.org/Graphics/SVG/1.1/DTD/svg11.dtd" >
<svg xmlns="http://www.w3.org/2000/svg" xmlns:xlink="http://www.w3.org/1999/xlink" version="1.1">
<metadata>
Created by FontForge 20170731 at Thu May 23 08:10:24 2013
 By Aleksey,,,
Copyright (c) West Wind Fonts, 2001. 
</metadata>
<defs>
<font id="UVFLittleDays" horiz-adv-x="484" >
  <font-face 
    font-family="UVF Little Days"
    font-weight="400"
    font-stretch="normal"
    units-per-em="1000"
    panose-1="2 0 6 7 2 0 0 2 0 4"
    ascent="800"
    descent="-200"
    x-height="289"
    cap-height="670"
    bbox="-87 -409 1203 780"
    underline-thickness="50"
    underline-position="-175"
    unicode-range="U+0020-203A"
  />
<missing-glyph horiz-adv-x="500" 
 />
    <glyph glyph-name=".notdef" horiz-adv-x="500" 
 />
    <glyph glyph-name=".null" horiz-adv-x="0" 
 />
    <glyph glyph-name="nonmarkingreturn" horiz-adv-x="500" 
 />
    <glyph glyph-name="space" unicode=" " horiz-adv-x="500" 
 />
    <glyph glyph-name="space" unicode="&#xa0;" horiz-adv-x="500" 
 />
    <glyph glyph-name="exclam" unicode="!" horiz-adv-x="243" 
d="M138 649q2 7 7 9.5t10.5 1t9 -6.5t1.5 -12q-17 -59 -26 -120t-12.5 -122.5t-2.5 -123t4 -122.5q0 -8 -4.5 -12t-10 -4.5t-10.5 3t-5 11.5q-2 62 -3.5 125t2 126t12.5 125t28 122zM81 28q0 14 9.5 23t23.5 9t23.5 -9t9.5 -23t-9.5 -22.5t-23.5 -8.5t-23.5 8.5t-9.5 22.5z
" />
    <glyph glyph-name="quotedbl" unicode="&#x22;" horiz-adv-x="287" 
d="M196 502q0 -16 -16 -16t-16 16v208q0 16 16 16t16 -16v-208zM77 502q0 -16 -16 -16t-16 16v208q0 16 16 16t16 -16v-208z" />
    <glyph glyph-name="numbersign" unicode="#" horiz-adv-x="500" 
d="M186 548q1 6 5 8.5t8.5 1.5t8 -4.5t2.5 -9.5l-46 -361q-1 -6 -5 -8.5t-8.5 -1.5t-8 4.5t-2.5 9.5zM334 547q1 6 5 8.5t8.5 1.5t8 -4.5t2.5 -9.5l-48 -378q-1 -6 -5 -8.5t-8.5 -1.5t-8 4.5t-2.5 9.5zM116 431q-6 1 -8.5 5t-2.5 8q0 5 3.5 8.5t9.5 2.5l300 -32q6 -1 8.5 -5
t2.5 -9q0 -4 -3.5 -7.5t-9.5 -2.5zM95 303q-6 1 -8.5 5t-2.5 8q0 5 3.5 8.5t9.5 2.5l302 -35q6 -1 8.5 -5t2.5 -9q0 -4 -3.5 -7.5t-9.5 -2.5z" />
    <glyph glyph-name="dollar" unicode="$" horiz-adv-x="500" 
d="M263 659q0 6 3.5 9t8.5 3t8.5 -3.5t3.5 -9.5l-3 -42q40 -5 71.5 -28.5t41.5 -68.5q1 -2 1 -5q0 -5 -3.5 -8.5t-8.5 -3.5q-8 0 -11 9q-8 36 -34 56.5t-59 25.5l-17 -208q25 -3 47.5 -15t39 -30.5t26 -42.5t9.5 -50q0 -28 -12 -50.5t-32 -39.5t-46 -27.5t-54 -13.5l-5 -65
q0 -6 -3.5 -9t-8.5 -3t-8.5 3.5t-3.5 9.5l5 62q-23 0 -44.5 5.5t-39.5 16.5t-31 28t-19 41h6q-5 1 -7.5 4.5t-2.5 7.5q0 5 3 8.5t10 3.5h2q12 0 12 -12q2 -22 12 -37t25 -24t33.5 -13t38.5 -4h4l18 222q-26 5 -49.5 14.5t-42.5 23.5t-30 34.5t-11 47.5v5q1 31 14.5 55.5
t35 41.5t48.5 26t55 9zM137 504q-7 -15 -7 -30q0 -19 10.5 -34t27 -26.5t36 -18.5t37.5 -9l16 208q-21 0 -41 -6t-36.5 -17.5t-28 -28t-14.5 -38.5zM290 355q-7 0 -13.5 0.5t-13.5 1.5l-18 -216q116 15 116 106q0 34 -18 65.5t-53 42.5zM84 205v4q0 -3 1 -4h-1z" />
    <glyph glyph-name="percent" unicode="%" horiz-adv-x="500" 
d="M397 584q4 6 11 6q11 0 11 -11q0 -5 -2 -7l-271 -448q-5 -6 -11 -6q-11 0 -11 11q0 5 2 7zM224 588q6 -5 6 -10t-4 -8.5t-9 -3.5t-7 2q-15 15 -38 15q-14 0 -28 -8t-24.5 -20t-17 -26.5t-6.5 -27.5q0 -16 6 -31.5t16 -28.5t24 -21t30 -8h2q18 0 32 7t23.5 19t14.5 27
t5 31q0 22 -9 41.5t-29 31.5q-5 5 -5 9q0 5 3.5 8.5t8.5 3.5q4 0 9 -3q23 -16 35 -42t12 -53q0 -20 -8.5 -38.5t-22 -33t-31 -23.5t-35.5 -9q-21 0 -40 10t-34 26.5t-24 37t-9 41.5q0 18 8 35t26 31q11 19 30 28.5t39 9.5q31 0 51 -19zM423 299q6 -5 6 -10t-4 -8.5t-9 -3.5
t-7 2q-15 15 -38 15q-14 0 -28 -8t-24.5 -20t-17 -26.5t-6.5 -27.5q0 -16 6 -31.5t16 -28.5t24 -21t30 -8h2q18 0 32 7t23.5 19t14.5 27t5 31q0 22 -9 41.5t-29 31.5q-5 5 -5 9q0 5 3.5 8.5t8.5 3.5q4 0 9 -3q23 -16 35 -42t12 -53q0 -20 -8.5 -38.5t-22 -33t-31 -23.5
t-35.5 -9q-21 0 -40 10t-34 26.5t-24 37t-9 41.5q0 18 8 35t26 31q11 19 30 28.5t39 9.5q31 0 51 -19z" />
    <glyph glyph-name="ampersand" unicode="&#x26;" horiz-adv-x="427" 
d="M154 434q-12 32 -19.5 63t-7.5 63q0 18 3.5 43t13 48t25 39t39.5 16q32 0 59 -27t34 -78q0 -30 -9 -54t-24.5 -45t-36 -39.5t-42.5 -35.5q15 -35 32 -74.5t36.5 -79t42.5 -76.5t50 -68q20 26 32.5 57t14.5 64q3 12 14 12q5 0 9.5 -3.5t4.5 -10.5v-4q-12 -76 -56 -135
q25 -23 54 -39t66 -24q7 0 10.5 -4.5t3.5 -9.5t-3.5 -9.5t-10.5 -4.5q-42 2 -75.5 21t-62.5 47q-32 -35 -77.5 -58t-93.5 -23q-38 0 -73 14.5t-62.5 40t-44 58.5t-16.5 71q0 39 13.5 72.5t35 61.5t49 52.5t55.5 45.5q5 3 8.5 6.5t8.5 6.5zM267 203q-27 48 -55.5 99.5
t-47.5 105.5q-26 -21 -52.5 -44.5t-48 -50.5t-35.5 -57.5t-14 -64.5q0 -33 13 -61.5t35 -49.5t51.5 -33t61.5 -12q44 0 84.5 20t72.5 53q-20 22 -35.5 46.5t-29.5 48.5zM190 673q-20 -24 -28 -51.5t-8 -56.5t6.5 -57.5t16.5 -54.5q29 24 54 52t40 65q2 5 3 11.5t1 12.5
q0 15 -5.5 30t-14.5 27t-21 19.5t-26 7.5q-5 0 -9 -1t-9 -3v-1z" />
    <glyph glyph-name="quotesingle" unicode="'" horiz-adv-x="130" 
d="M77 502q0 -16 -16 -16t-16 16v208q0 16 16 16t16 -16v-208z" />
    <glyph glyph-name="parenleft" unicode="(" horiz-adv-x="196" 
d="M200 610q-69 -49 -106 -139q-34 -80 -34 -180q0 -147 69 -258q3 -5 3 -9q0 -16 -16 -16q-8 0 -13 8q-75 118 -75 276q0 106 37 193q20 48 48.5 85.5t66.5 64.5v1q3 3 10 3q16 0 16 -17q0 -8 -6 -12z" />
    <glyph glyph-name="parenright" unicode=")" horiz-adv-x="238" 
d="M32 30q101 111 101 295q0 170 -86 309q-3 4 -3 9q0 16 17 16q8 0 13 -8q91 -145 91 -326q0 -196 -109 -317h-1q-5 -6 -11 -6q-16 0 -16 17q0 4 5 11h-1z" />
    <glyph glyph-name="asterisk" unicode="*" horiz-adv-x="500" 
d="M247 606q5 0 8.5 -3.5t3.5 -9.5l2 -122l105 49q2 1 6 1q5 0 8 -3.5t3 -8.5q0 -8 -7 -11l-107 -50l72 -114q2 -2 2 -7q0 -11 -11 -11q-7 0 -11 6l-70 111l-78 -104q-4 -5 -10 -5q-13 0 -13 12q0 4 3 7l81 109l-113 39q-9 3 -9 11q0 5 3.5 8.5t8.5 3.5q3 0 5 -1l107 -37
l-1 117q0 6 3.5 9.5t8.5 3.5z" />
    <glyph glyph-name="plus" unicode="+" horiz-adv-x="552" 
d="M278 94l-5 -3h-3l-5 3l-4 7l-2 10v189h-188l-10 2l-7 4l-3 5v3l3 5l7 4l10 2h188v188l2 10l4 7l5 3h3l5 -3l4 -7l2 -10v-188h189l10 -2l7 -4l3 -5v-3l-3 -5l-7 -4l-10 -2h-189v-189l-2 -10z" />
    <glyph glyph-name="comma" unicode="," horiz-adv-x="222" 
d="M77 -51q-17 0 -17 17q0 2 10 18q5 8 7.5 14t3.5 8l-1 3q-30 10 -30 36q0 31 31 31q14 0 28 -11.5t14 -25.5q0 -17 -15 -51q-17 -39 -31 -39z" />
    <glyph glyph-name="hyphen" unicode="-" horiz-adv-x="423" 
d="M75 300q-6 0 -9.5 3.5t-3.5 7.5q0 5 3.5 9t9.5 4h265q6 0 9.5 -4t3.5 -9q0 -4 -3.5 -7.5t-9.5 -3.5h-265v0z" />
    <glyph glyph-name="hyphen" unicode="&#xad;" horiz-adv-x="423" 
d="M75 300q-6 0 -9.5 3.5t-3.5 7.5q0 5 3.5 9t9.5 4h265q6 0 9.5 -4t3.5 -9q0 -4 -3.5 -7.5t-9.5 -3.5h-265v0z" />
    <glyph glyph-name="period" unicode="." horiz-adv-x="241" 
d="M40 28q0 14 9.5 23t23.5 9t23.5 -9t9.5 -23t-9.5 -22.5t-23.5 -8.5t-23.5 8.5t-9.5 22.5z" />
    <glyph glyph-name="slash" unicode="/" horiz-adv-x="487" 
d="M439 641q5 8 12 8q17 0 17 -16q0 -7 -3 -10l-408 -617q-7 -7 -13 -7q-16 0 -16 16q0 3 3 9z" />
    <glyph glyph-name="zero" unicode="0" horiz-adv-x="617" 
d="M525 344q0 137 -70 231q-69 96 -165 96t-165 -96q-69 -95 -69 -231q0 -137 69 -231q69 -96 165 -96t165 96q70 94 70 231zM549 344q0 -142 -76 -248q-73 -103 -183 -103t-183 103q-75 105 -75 248t75 248q73 103 183 103t183 -103q76 -106 76 -248z" />
    <glyph glyph-name="one" unicode="1" horiz-adv-x="429" 
d="M203 28l4 4v576l-3 4l-5 2l-4 -2q-4 -5 -7 -9.5t-6 -9.5q-15 -22 -28 -40.5t-29 -34.5t-36.5 -28.5t-48.5 -22.5h-1q-3 -1 -5 -1q-9 0 -9 13q0 10 10 11h1q30 16 52.5 35t42 43t38.5 53.5t41 66.5l1 1q3 9 11 9q12 0 12 -13v-3q-1 -15 -1 -33v-40v-577l4 -4h153
q10 0 10 -12q0 -10 -11 -12h-331q-10 0 -10 12q0 10 12 12h143z" />
    <glyph glyph-name="two" unicode="2" horiz-adv-x="611" 
d="M575 112v0q0 1 1 2zM155 423q-85 54 -85 116q0 70 91 113q73 36 143 36q64 0 107 -31q47 -35 47 -100q0 -189 -303 -489l-1 -4l1 -3l5 -3q27 6 54 6q35 0 110 -21q75 -20 115 -20q73 0 114 95q3 8 10 8q12 0 12 -12v-2q-50 -113 -136 -113q-36 0 -111 20q-74 21 -114 21
q-42 0 -81.5 -16t-76.5 -51l-3 -2l-2 -3v1q-3 -3 -8 -3q-12 0 -12 12q0 5 13 18q390 360 390 561q0 107 -130 107q-67 0 -133 -32q-77 -39 -77 -93q0 -50 74 -95q6 -3 6 -10q0 -13 -12 -13q-3 0 -7 2z" />
    <glyph glyph-name="three" unicode="3" horiz-adv-x="682" 
d="M585 696q11 0 11 -5q0 -17 -69 -83q-26 -22 -63.5 -55t-88.5 -79l-1 -4l1 -3l5 -3q28 6 55 6q73 0 126 -44q56 -47 56 -120v-8q0 -62 -25 -117.5t-67.5 -98.5t-98 -68t-115.5 -25h-3q-53 0 -99 15.5t-80.5 42.5t-54.5 63t-20 76q0 80 60 122l2 3v-1q1 1 5 1q12 0 12 -13
q0 -3 -9 -12q-46 -34 -46 -100q0 -33 19 -64.5t50.5 -55.5t73 -38.5t87.5 -14.5h3q57 0 108 23.5t89.5 63.5t61.5 92t23 109v5q0 62 -47 101q-45 39 -111 39q-54 0 -114 -26q-6 -3 -8 -3q-10 0 -10 10q0 3 2 7q45 52 118 115q43 36 73 63.5t47 45.5l1 4l-1 6l-4 3h-363
q-10 0 -10 13q0 10 11 12h408z" />
    <glyph glyph-name="four" unicode="4" horiz-adv-x="639" 
d="M357 232l-2 2l-2 1q-12 2 -40.5 10t-74.5 22q-71 21 -120 21q-37 0 -70 -11q-6 -2 -7 -2q-10 0 -10 9q0 5 1 7l160 379q4 9 10 9q13 0 13 -12q0 -1 -1 -3v-1q0 1 3 1l-3 -2h-1l-144 -345l1 -4l2 -3l4 -2q19 4 42 4q46 0 118 -22q45 -14 74.5 -21.5t43.5 -9.5l4 1l2 2l1 3
v424q1 10 12 10q12 0 12 -10v-428l1 -3l2 -2l3 -1h11q94 0 164 94q3 4 9 4q13 0 13 -12q0 -4 -3 -8q-78 -102 -183 -102h-14l-3 -1l-2 -2l-1 -3v-232q-1 -10 -12 -10q-12 0 -12 11v235z" />
    <glyph glyph-name="five" unicode="5" horiz-adv-x="580" 
d="M119 676l-3 -1l-2 -2l-1 -2q-5 -40 -12 -93.5t-16 -128.5q-1 -8 -2 -15t-2 -15q-1 -4 -1 -9q0 -4 -1 -8l2 -4l3 -2h4q121 71 232 71q90 0 140.5 -53.5t50.5 -142.5q0 -124 -81 -205t-205 -81q-66 0 -125 34q-68 41 -68 110q0 32 30 68q29 35 60 35q11 0 11 -13
q0 -6 -9 -10q-68 -23 -68 -80q0 -53 57 -89q49 -31 112 -31q113 0 187 74q75 75 75 188q0 80 -44 126t-123 46q-121 0 -250 -87q-5 -3 -10 -3q-9 0 -9 12v3q1 8 2 16.5t3 19.5q2 14 4 31.5t4 36.5q0 3 0.5 5.5t0.5 5.5q3 22 6 48q2 8 2.5 16t1.5 16q6 42 10 73t6 54
q1 10 12 10h400q10 0 10 -12q0 -11 -12 -12h-382z" />
    <glyph glyph-name="six" unicode="6" horiz-adv-x="562" 
d="M351 666q-71 -49 -122.5 -95t-83.5 -91q-45 -57 -66.5 -119t-21.5 -130q0 -50 14.5 -90.5t42 -69.5t67 -45t90.5 -16q88 0 150 64q62 66 62 155q0 57 -31.5 90.5t-89.5 33.5q-38 0 -71.5 -11.5t-62.5 -34.5t-48.5 -52.5t-28.5 -67.5q-3 -9 -12 -9q-13 0 -13 9q0 3 1 6
q11 41 32.5 74t53.5 58q66 52 149 52q69 0 107.5 -40.5t38.5 -107.5q0 -102 -69 -171q-69 -72 -168 -72q-111 0 -176 67q-63 69 -63 178q0 143 93 266q35 45 87 92.5t123 96.5q4 2 8 2q13 0 13 -13q0 -3 -6 -9h1z" />
    <glyph glyph-name="seven" unicode="7" horiz-adv-x="591" 
d="M34 555q60 119 154 119q17 0 44.5 -5.5t62.5 -15.5q72 -21 112 -21q67 0 128 43l4 2t5 1q11 0 11 -11q0 -5 -3 -9q-91 -140 -170.5 -305t-149.5 -359q-3 -8 -10 -8q-13 0 -13 11q0 2 1 4v1q66 178 136.5 330.5t148.5 281.5v5l-3 3l-3 1q-42 -15 -82 -15q-37 0 -109 21
q-35 10 -62.5 15.5t-47.5 5.5q-78 0 -133 -105q-4 -7 -10 -7q-13 0 -13 11q0 1 2 7v-1z" />
    <glyph glyph-name="eight" unicode="8" horiz-adv-x="554" 
d="M436 531q-6 46 -54 81q-45 32 -101 32q-26 0 -50 -11t-47 -35q-40 -40 -40 -83q0 -3 0.5 -6t0.5 -6q3 -25 17 -44t38 -36q45 -27 99 -27q55 0 98 41l1 3v-1q39 36 39 80q0 3 -0.5 6t-0.5 6zM503 206q-10 77 -95 124q-68 40 -161 40q-88 0 -133 -57q-40 -51 -40 -114
q0 -7 0.5 -13.5t1.5 -13.5q20 -160 204 -160q89 0 156 55q68 53 68 122v8t-1 9zM526 206q1 -5 1 -11v-10q0 -80 -72 -136q-78 -61 -172 -61q-95 0 -156 44q-66 49 -76 140q-1 8 -1.5 15t-0.5 14q0 62 33 112q20 29 48.5 48.5t66.5 27.5l1 3l1 4l-3 3q-67 37 -75 104
q-1 4 -1 8v8q0 54 43 97q51 53 115 53q32 0 61 -10t55 -27q60 -40 67 -101q0 -3 0.5 -6t0.5 -6q0 -42 -29 -78t-72 -56v-4v-4l3 -4q147 -48 162 -167z" />
    <glyph glyph-name="nine" unicode="9" horiz-adv-x="523" 
d="M331 456q-3 -27 -15 -50t-31 -39.5t-43.5 -25.5t-52.5 -9q-68 0 -114 55q-43 52 -43 120q0 84 75 138q67 48 152 48q88 0 145 -55q58 -55 58 -144q0 -229 -289 -491q-7 -5 -9 -5q-13 0 -13 13q0 5 4 8l2 3v-1q281 254 281 473q0 39 -13.5 71t-37 55.5t-56.5 36t-72 12.5
q-78 0 -137 -43q-66 -48 -66 -119q0 -63 37 -106q36 -45 96 -45q47 0 79.5 29.5t38.5 74.5q1 10 12 10q12 0 12 -11v-3z" />
    <glyph glyph-name="colon" unicode=":" horiz-adv-x="195" 
d="M63 280q0 14 9.5 22.5t23.5 8.5t23.5 -8.5t9.5 -22.5t-9.5 -23t-23.5 -9t-23.5 9t-9.5 23zM60 28q0 14 9.5 23t23.5 9t23.5 -9t9.5 -23t-9.5 -22.5t-23.5 -8.5t-23.5 8.5t-9.5 22.5z" />
    <glyph glyph-name="semicolon" unicode=";" horiz-adv-x="195" 
d="M63 280q0 14 9.5 22.5t23.5 8.5t23.5 -8.5t9.5 -22.5t-9.5 -23t-23.5 -9t-23.5 9t-9.5 23zM92 -47q-16 0 -16 17q0 2 9 19q10 16 12 21l-1 3q-30 10 -30 36q0 31 31 31q14 0 28 -11.5t14 -25.5q0 -17 -15 -51q-17 -39 -32 -39z" />
    <glyph glyph-name="semicolon" unicode="&#x37e;" horiz-adv-x="195" 
d="M63 280q0 14 9.5 22.5t23.5 8.5t23.5 -8.5t9.5 -22.5t-9.5 -23t-23.5 -9t-23.5 9t-9.5 23zM92 -47q-16 0 -16 17q0 2 9 19q10 16 12 21l-1 3q-30 10 -30 36q0 31 31 31q14 0 28 -11.5t14 -25.5q0 -17 -15 -51q-17 -39 -32 -39z" />
    <glyph glyph-name="less" unicode="&#x3c;" horiz-adv-x="590" 
d="M72 289q-12 5 -12 12q0 2 6 6l6 4l456 197q2 1 4 1q3 0 6 -5q3 -7 -0.5 -12t-8.5 -9q-2 -2 -5 -3.5l-7 -3.5q-4 -3 -9 -5l-362 -158q-4 -3 -8 -5q-8 -6 -8 -7q1 -2 3 -5t10 -8l365 -159l10 -5t7.5 -3.5t5.5 -3.5q6 -5 8.5 -9.5t-0.5 -11.5q-3 -5 -7 -5h-4z" />
    <glyph glyph-name="equal" unicode="=" horiz-adv-x="582" 
d="M60 368l-8 5l-2 5v6l2 5l8 5l10 2h431l10 -2l7 -5l3 -5v-6l-3 -5l-7 -5l-10 -2h-431zM50 246l3 5l7 5l10 2h431l10 -2l7 -5l3 -5v-6l-3 -5l-7 -5l-10 -2h-431l-10 2l-7 5l-3 5v6z" />
    <glyph glyph-name="greater" unicode="&#x3e;" horiz-adv-x="589" 
d="M60 91q-2 -1 -5 -1q-6 0 -7 5q-3 7 2 13t12 11l5 2.5t6 3.5q4 2 7 4l366 159q8 5 10 7.5t3 4.5q0 1 -8 7q-4 2 -8 5l-363 158l-10 4q-4 2 -8 3.5t-6 3.5q-13 8 -8 20q1 4 7 6q3 1 5 0l457 -197l6 -4q6 -4 6 -6t-2.5 -5t-9.5 -6z" />
    <glyph glyph-name="question" unicode="?" horiz-adv-x="446" 
d="M118 22q0 21 21 21q22 0 22 -21q0 -22 -22 -22q-21 0 -21 22zM94 436q-66 0 -66 62q0 75 66 123q61 44 134 44q79 0 128 -47q49 -46 49 -126q0 -86 -72 -123l-54 -18q-20 -7 -39.5 -13t-39.5 -13q-66 -25 -66 -85v-8q2 -19 3 -30.5t1 -16.5v-3q0 -16 -16 -16t-16 16
q0 6 -1 15t-2 19q-1 9 -1.5 17t-0.5 13q0 21 7 38q21 50 90 74q29 10 58 19l58 18q59 29 59 97q0 65 -39.5 103t-105.5 38q-65 0 -114 -37q-54 -41 -54 -98q0 -30 34 -30q4 0 9 0.5t10 1.5q2 0 3 0.5t3 0.5q13 0 13 -17q0 -14 -13.5 -16t-24.5 -2z" />
    <glyph glyph-name="at" unicode="@" horiz-adv-x="500" 
d="M329 362q1 -2 1 -5v-1q0 -1 0.5 -2t0.5 -2v-2v-1q0 -6 -0.5 -12.5t-0.5 -12.5q-1 -9 -2.5 -17.5t-4.5 -15.5q1 -14 12 -24q36 11 52.5 37.5t16.5 59.5q0 30 -10.5 57t-29 48t-44.5 33t-57 12q-44 0 -81.5 -17.5t-65.5 -47t-44 -68.5t-16 -83v-5q1 -41 17.5 -72t43 -52
t60.5 -31.5t70 -10.5q44 0 85 16t71 48q4 3 9 3t8.5 -3.5t3.5 -8.5q0 -4 -5 -9q-38 -34 -85 -51.5t-97 -17.5q-53 0 -91 16t-63 43t-36.5 62t-11.5 72q0 43 14.5 85.5t41 76.5t64.5 55t85 21h8q13 3 28 3q33 0 61 -15.5t48.5 -41t31.5 -57t11 -62.5q0 -38 -18.5 -71.5
t-60.5 -51.5q-17 1 -27.5 8.5t-15.5 18.5q-14 -15 -33.5 -22t-39.5 -7q-18 0 -35.5 6t-32 17.5t-23 29t-8.5 40.5q0 22 10 40.5t26.5 31.5t37 20.5t40.5 7.5q29 0 52 -16t29 -52zM300 305q0 11 1 25t6 23v1q-2 26 -22 39t-43 13q-38 0 -59.5 -23.5t-21.5 -52.5t19 -49.5
t55 -20.5q23 0 39.5 12.5t25.5 32.5z" />
    <glyph glyph-name="A" unicode="A" horiz-adv-x="797" 
d="M653 -4q-14 0 -29 7t-27.5 18t-20.5 26t-8 30v206q-26 -68 -68 -120.5t-90 -89t-96.5 -56t-85.5 -20.5h-10q-46 0 -85 17.5t-67 46.5t-44 65t-16 74q0 51 15.5 104.5t45.5 105t72.5 97t97.5 79.5t120.5 54t140.5 20q20 0 40.5 -1t42.5 -5q8 -1 10 -6t2 -9v-560
q0 -12 6.5 -23t16.5 -18.5t22 -12t24 -4.5q3 0 7 1t9 2q14 5 28.5 16.5t28 27.5t25.5 35t22 38q1 5 4 6.5t6 1.5q5 0 9 -4.5t4 -8.5v-5q-14 -25 -30 -49.5t-34.5 -43.5t-39.5 -30.5t-43 -11.5h-5zM566 373v4v28q0 25 0.5 77.5t1.5 148.5q-19 2 -35.5 3.5t-33.5 1.5
q-72 0 -134.5 -19t-114.5 -52t-92.5 -76.5t-69 -92t-43 -100t-14.5 -99.5q0 -32 14.5 -63.5t39.5 -56.5t59.5 -40.5t74.5 -15.5h7q39 2 91.5 26t103 68.5t90.5 109.5t55 148z" />
    <glyph glyph-name="B" unicode="B" horiz-adv-x="523" 
d="M269 -6q-30 0 -59.5 8t-55.5 21.5t-47 31t-34 35.5q-2 3 -2 7q0 6 4 10q3 3 7 3q8 0 10 -6q12 -17 31 -32t42.5 -27t50 -19t53.5 -7h4q40 0 78 14t67.5 38t47 55.5t17.5 66.5q0 51 -24 89.5t-66 63.5q-43 -39 -107 -39q-9 0 -21.5 2.5t-24.5 8.5t-20.5 15.5t-8.5 23.5
q0 11 6 20t14.5 15.5t18.5 10.5t18 4q32 0 64 -6.5t60 -23.5q26 28 37.5 60t11.5 63q0 25 -10.5 50.5t-32.5 46.5t-54.5 34t-77.5 13q-50 0 -88.5 -25t-67 -61t-48.5 -76t-33 -69l2 -390q0 -5 -4.5 -8.5t-8.5 -3.5q-12 0 -12 12l-1 630q0 13 13 13q11 0 11 -13v-182
q16 32 37.5 67t50.5 64t65.5 48.5t83.5 19.5q49 0 86.5 -15.5t62.5 -40t38 -54.5t13 -60q0 -35 -12 -71t-41 -65q42 -25 68.5 -69t26.5 -104q0 -40 -20 -76t-53 -63t-75 -42.5t-87 -15.5h-4zM286 331q52 0 86 28q-27 13 -50 17.5t-43 4.5t-32 -7t-12 -17q1 -11 18.5 -18.5
t32.5 -7.5z" />
    <glyph glyph-name="C" unicode="C" horiz-adv-x="625" 
d="M356 -14q-66 0 -126.5 23.5t-107 67t-74 104t-27.5 135.5q0 67 29 130.5t77 113t109.5 80t126.5 30.5q44 0 73.5 -7t50 -18.5t35 -27t29.5 -33.5q0 -1 0.5 -3t0.5 -4q0 -3 -1.5 -5t-2.5 -3q-2 -2 -4.5 -2.5t-4.5 -0.5q-7 0 -8 4q-12 15 -24.5 28.5t-31 23.5t-45 16
t-67.5 6q-59 0 -116 -28t-102 -74.5t-72.5 -106t-27.5 -122.5q0 -68 26 -124t69 -96t100 -61.5t119 -21.5q85 1 147.5 38t106.5 93q2 5 4.5 5.5t5.5 0.5q2 0 4.5 -0.5t4.5 -2.5q1 -2 2.5 -3.5t1.5 -4.5q0 -5 -3 -7q-49 -64 -116 -103t-158 -40h-3z" />
    <glyph glyph-name="D" unicode="D" horiz-adv-x="664" 
d="M123 -10q-9 0 -21 2t-23.5 7.5t-19 16t-7.5 28.5q0 13 7.5 24.5t19 20.5t25 14t25.5 6q32 0 73 -20q18 33 24.5 70t6.5 67q0 26 -2.5 54.5t-5.5 56.5q-3 27 -6 53.5t-3 49.5q1 20 4.5 42.5t10.5 44t18 39t27 27.5q3 3 7 3q7 0 12 -7q1 -3 1 -6t-1 -6t-6 -4
q-23 -17 -35 -56t-13 -77q0 -23 2.5 -48.5t5.5 -51.5q3 -28 6 -56.5t3 -57.5q0 -35 -8.5 -74t-24.5 -73q12 -6 23.5 -11.5t23.5 -11.5q28 -15 56.5 -27t56.5 -12q50 1 92.5 29.5t73 73.5t47.5 100t17 109q0 60 -23 117t-62.5 102t-93 72t-114.5 27q-51 0 -96 -19.5
t-82 -50.5t-65.5 -70t-47.5 -78q-4 -4 -7.5 -6t-10.5 -2q-7 3 -7 16q19 42 50 84t71.5 75t89.5 54t105 21q67 0 125 -29.5t101 -77.5t67.5 -109.5t25.5 -125.5q0 -55 -18 -114t-51.5 -108.5t-81 -81.5t-105.5 -32q-40 0 -72 13.5t-62 30.5q-8 5 -16 9l-16 8l-6 2
q-18 -30 -40.5 -48t-49.5 -18zM123 16q20 0 37 12t31 39q-17 9 -32.5 12.5t-29.5 3.5q-18 0 -35.5 -12.5t-17.5 -27.5t13.5 -21t33.5 -6z" />
    <glyph glyph-name="E" unicode="E" horiz-adv-x="601" 
d="M353 -11q-54 0 -115 18t-112.5 49.5t-85.5 75t-34 95.5q0 43 23.5 83.5t56.5 72.5q-25 23 -39.5 52.5t-15.5 61.5q0 39 25.5 71.5t63 55.5t81.5 36.5t81 13.5q41 0 72 -5.5t54.5 -14.5t41.5 -21.5t33 -26.5q5 -5 5 -7q0 -5 -5 -12l-4 -2t-4 -1t-7 5q-14 12 -30 22.5
t-37.5 19t-50.5 13.5t-68 5q-35 0 -75 -12t-73.5 -32.5t-55.5 -48.5t-22 -59q0 -23 11 -47.5t39 -50.5q35 28 74.5 43t74.5 15q14 0 33.5 -3.5t37.5 -12t30.5 -22t12.5 -32.5t-12 -33.5t-29 -24t-37 -14t-36 -4.5q-84 0 -150 55q-35 -28 -54.5 -66t-19.5 -73q0 -45 32 -84
t80 -68t104.5 -45.5t105.5 -16.5q33 0 67.5 10t66 27.5t58 40.5t44.5 49q2 7 12 7q4 0 5 -1q7 -4 7 -12q0 -1 -0.5 -3t-0.5 -4q-19 -29 -48 -54t-63.5 -43.5t-72.5 -29.5t-75 -11zM255 336q14 0 30 4t29.5 11t22 16t8.5 20t-8.5 19.5t-22 14.5t-29.5 9t-30 3
q-27 0 -59.5 -11.5t-69.5 -40.5q42 -28 72 -36.5t57 -8.5z" />
    <glyph glyph-name="F" unicode="F" horiz-adv-x="570" 
d="M115 341q-25 0 -45 13t-34.5 33.5t-22 44t-7.5 44.5q0 58 19 93t47 54.5t60.5 26t60.5 6.5q45 0 84.5 -9t77.5 -20t75.5 -19t75.5 -8q57 0 101.5 11.5t87.5 31.5q1 1 4 1q6 0 12 -8v-5q0 -5 -6 -11q-45 -22 -92 -33t-107 -11q-29 0 -53.5 3t-47.5 8l-3 -254
q16 -2 32.5 -4t31.5 -2q22 0 37 7q3 3 8 3t10 -7q1 -3 1 -6q0 -8 -6 -10q-19 -11 -50 -11q-3 0 -12 1t-19.5 2t-20 2t-12.5 1v-122q0 -48 -16.5 -84.5t-43.5 -61.5t-62 -37.5t-71 -12.5q-58 0 -111.5 35.5t-82.5 113.5v4q0 8 11 12q7 0 12 -7q13 -36 32 -61t41 -41
t46.5 -23.5t48.5 -7.5q33 0 64 12t55 34.5t38.5 54t14.5 70.5v124q-32 4 -59 -4.5t-47 -43.5q-6 -6 -9 -6h-8q-6 6 -6 12q0 4 2 7q21 38 51.5 49.5t75.5 11.5l1 257q-20 4 -36 10q-38 11 -75.5 19t-74.5 8q-26 0 -54.5 -5.5t-52.5 -22t-39.5 -47t-15.5 -80.5q0 -17 5.5 -36
t16.5 -35.5t27 -27.5t36 -11q22 0 49 14q1 1 6 1q6 0 10 -7q1 -3 1 -5q0 -10 -7 -12q-15 -8 -28.5 -12t-27.5 -4h-4z" />
    <glyph glyph-name="G" unicode="G" horiz-adv-x="777" 
d="M458 -363q-22 0 -41.5 13t-34 32.5t-23 42.5t-8.5 44q0 33 15.5 60t43.5 52t66.5 48t84.5 48l-2 312q-21 -58 -56 -109.5t-80 -90t-97 -61t-107 -22.5q-37 0 -74.5 10t-68 33.5t-50 62t-20.5 94.5q0 69 24.5 129t66 109.5t95.5 88t113.5 65t120.5 40t116 13.5
q3 -1 9.5 -0.5t13.5 0t12 -3.5t5 -10l3 -646q69 38 115.5 72t64.5 78q1 5 5 6.5t8 1.5h3q8 -6 8 -13q0 -3 -1 -5q-10 -23 -27.5 -44t-42.5 -41t-58 -41t-75 -44v-184q0 -23 -7 -47.5t-22.5 -45t-39.5 -34t-57 -13.5h-1zM558 390v234q-5 2 -9 2h-8q-53 0 -111.5 -13t-115 -38
t-108 -61.5t-90.5 -83t-62 -103t-23 -121.5q0 -49 16.5 -82.5t42.5 -54t60 -29.5t69 -9q61 0 118 29.5t103 79t77.5 113.5t40.5 133v4zM459 -339q27 0 46.5 11t31.5 28t18 38.5t6 41.5v169q-38 -21 -71.5 -41t-58.5 -41.5t-40 -45.5t-15 -52q0 -18 7 -37t19 -35t27 -26
t30 -10z" />
    <glyph glyph-name="H" unicode="H" horiz-adv-x="803" 
d="M261 -11q-20 0 -37.5 10.5t-30.5 26.5t-21 35.5t-9 37.5q0 46 15 82t40.5 64.5t60 51t73.5 40.5v44v30t0.5 20t0.5 16q2 27 7 52.5t13 51.5l23 79q-26 -8 -47.5 -11t-40.5 -3q-25 0 -44 3t-38 8q-18 5 -35.5 8.5t-37.5 3.5q-23 0 -44.5 -9t-39 -24.5t-28 -35t-10.5 -40.5
q0 -18 10.5 -33t26.5 -26t35.5 -17.5t38.5 -6.5q21 0 21 -11q0 -5 -4 -9t-16 -4q-21 0 -45.5 7.5t-44.5 21t-34 33.5t-14 45q0 27 13.5 51t35 42t47.5 29t52 11t45.5 -3.5t37.5 -8.5q17 -4 33.5 -7t36.5 -3t45.5 4.5t60.5 15.5h3q5 0 9 -4t4 -8v-3q-4 -12 -7.5 -23t-7.5 -23
q-11 -40 -21 -78t-14 -76q-2 -15 -2.5 -35t-0.5 -65q37 16 55 22.5t32 11.5q3 79 17 135.5t38 92.5t58 53t78 18q21 0 41 -10.5t36.5 -27.5t26.5 -37.5t11 -40.5q0 -33 -17 -59.5t-51.5 -50t-88 -46t-125.5 -47.5l-1 -64q0 -76 14 -129t39 -86.5t59 -49t75 -15.5
q18 0 35.5 12.5t33 31t28.5 40t22 40.5q2 2 5 4.5t6 2.5q5 0 9 -4t4 -9q0 -3 -2 -4q-8 -19 -22.5 -43t-33 -45.5t-40 -36t-45.5 -14.5q-97 0 -153.5 73.5t-57.5 231.5v55l-46 -15l-39 -16l7 -103q2 -23 4 -45.5t2 -44.5q0 -23 -11 -47.5t-29 -44.5t-40.5 -33t-46.5 -13h-1z
M653 654q-36 0 -65 -14.5t-50.5 -46.5t-34 -82.5t-15.5 -123.5q58 21 105 39.5t80 38.5t51 43.5t18 54.5q0 16 -8 32.5t-20.5 29.5t-28.5 21t-32 8zM261 13q19 0 37.5 10.5t33.5 27.5t24 37.5t9 40.5q0 18 -1 38.5t-3 43.5q-2 17 -4 38t-5 60l-37 -19q-57 -30 -91.5 -75
t-34.5 -116q0 -15 6 -30t16.5 -27.5t23 -20.5t26.5 -8z" />
    <glyph glyph-name="I" unicode="I" horiz-adv-x="502" 
d="M248 -11q-34 0 -68 11t-64 31.5t-53 49.5t-34 66q0 8 13 12q3 0 6 -3t5 -6q11 -34 32.5 -59.5t51 -43t64 -26t72.5 -8.5q45 0 83 18.5t66 48t43.5 66.5t15.5 74q0 25 -3 53t-5 58q-3 36 -5.5 73t-2.5 73q0 33 2.5 64.5t10.5 59.5q-17 -8 -34.5 -11t-34.5 -3
q-30 0 -58.5 9t-55.5 21q-26 11 -51.5 20t-51.5 9q-29 -1 -57.5 -9t-51.5 -25t-37.5 -43.5t-14.5 -65.5q0 -19 7.5 -39t20.5 -36.5t31 -27t39 -10.5q7 0 14.5 1t15.5 5h3q8 0 13 -7v-5q0 -9 -9 -13q-10 -3 -19 -5t-19 -2q-27 0 -49.5 13.5t-38.5 34.5t-25 45.5t-9 45.5v3
q0 45 17.5 76t44.5 50.5t60 28.5t64 9q30 0 57.5 -9t53.5 -20t52 -19t53 -8q19 0 40 6t44 21v-1q3 3 7 3q5 0 8.5 -4t3.5 -9v-4q-11 -32 -15 -68t-4 -74q0 -35 2.5 -70.5t4.5 -70.5q2 -32 4 -63t2 -60v-3q0 -42 -17.5 -83t-48.5 -73.5t-74 -52t-92 -19.5h-25z" />
    <glyph glyph-name="J" unicode="J" horiz-adv-x="715" 
d="M399 -383q-21 0 -41.5 11t-37 28t-26.5 38t-11 42q0 38 13 68t35 55t52 46.5t65 41.5l43 26v14q-2 29 -2 57t-1 57q-2 60 -4 119.5t-2 119.5q0 102 9 203l7 88l-5 -2q-23 -12 -46 -17t-48 -5q-33 0 -65 7.5t-63 15.5q-29 8 -56 14t-52 6h-12q-23 -2 -45 -13.5t-38.5 -31
t-26.5 -45t-10 -53.5q0 -23 11 -40t27.5 -29t35.5 -18t36 -6h5q5 0 9 -4t4 -9q0 -12 -11 -12h-3q-20 0 -44 7t-45 22t-35.5 37t-14.5 52v3q0 33 12 62.5t32 51t46 35t55 15.5h14q31 0 59.5 -6t58.5 -14q29 -8 59 -14t59 -6q24 0 50 6.5t54 23.5q1 0 3.5 1t3.5 1q5 0 9 -4
t4 -9q-9 -88 -12.5 -175t-3.5 -175q0 -78 2 -157t4 -157v-3l4 1h-1q54 32 104 69t83 87q1 1 4 2.5t6 1.5t6 -1q7 -5 7 -12q0 -1 -1 -2.5t-1 -2.5q-38 -54 -87.5 -92t-103.5 -70l-20 -11l4 -190v-3q0 -24 -10 -49.5t-26.5 -46.5t-38.5 -35t-45 -15zM399 -357q16 0 33.5 11.5
t31 29t22.5 39.5t9 43l-4 175l-23 -14q-32 -19 -61 -38.5t-51 -42t-34.5 -48.5t-12.5 -59v-3q0 -17 8 -33.5t21 -30t29 -21.5t32 -8z" />
    <glyph glyph-name="K" unicode="K" horiz-adv-x="885" 
d="M712 -4q-44 0 -70 14.5t-41.5 38t-23 53.5t-14.5 62q-9 47 -23 91.5t-51 75.5q-35 -38 -76 -38h-11h-20q2 -24 3 -46.5t1 -42.5t-1 -38.5t-4 -35.5q-5 -23 -15 -45.5t-25 -41.5t-34 -31t-42 -12h-2q-20 0 -38 9t-32.5 24.5t-24 35.5t-10.5 42v2q0 11 11 11h2q11 0 11 -11
q1 -18 9 -34t19 -28t25.5 -19.5t29.5 -7.5q16 1 31 10.5t27 25t20.5 35.5t12.5 41v-2q2 13 3.5 26.5t1.5 28.5q0 23 -2 49.5t-4 52.5v5q-20 3 -35 12t-15 29v2q0 18 12 29t31 18v27q0 53 9 107t35 111l3 9l-7 -3q-17 -6 -33 -8.5t-33 -2.5q-25 0 -48.5 4.5t-47.5 9.5
q-23 5 -45.5 9t-44.5 4q-18 0 -36.5 -8.5t-34 -22t-25 -30.5t-9.5 -35v-1q0 -19 10 -35t26 -28t34.5 -19t36.5 -7h8q12 0 15 -10q0 -12 -10 -16h-12q-21 0 -44.5 8.5t-43.5 24t-33 36.5t-13 46q0 24 12.5 45.5t31.5 38.5t42 27t45 10q27 0 52 -4t50 -9q23 -5 44 -9t43 -4
q21 0 43 5.5t45 19.5v-2q3 3 8 3q4 0 8 -3t4 -8t-1 -6q-33 -67 -43.5 -129.5t-10.5 -120.5v-17q4 0 9.5 0.5t10.5 0.5q10 0 16.5 -0.5t13.5 -2.5q15 -5 30 -11.5t27 -15.5l7 7q14 15 30.5 42t35.5 58l6 12t7 11v-1q19 33 39.5 66t43 59t48 42.5t54.5 16.5h3q5 0 8.5 -3.5
t3.5 -6.5v-1q0 -13 -12 -13h-3q-23 0 -43.5 -14t-40.5 -38t-40 -55t-40 -65v2l-9 -17q-16 -29 -34 -58t-38 -52l-5 -6q21 -18 34.5 -40t22.5 -45.5t14.5 -47.5t10.5 -47q6 -31 13 -58.5t20 -47.5t35 -32t59 -12q24 0 47 10.5t43.5 27t37.5 38t29 44.5q1 5 4.5 6t6.5 1h5
q7 -7 7 -13v-4q-14 -25 -33 -49t-42 -43t-50 -30.5t-55 -11.5h-3zM413 317q14 2 28 8.5t28 20.5q-11 6 -23 11t-25 10q-7 2 -13.5 2.5t-12.5 0.5h-9t-8 -1q0 -27 3 -52h32zM352 321q-1 10 -2 20.5t-1 19.5q-20 -6 -20 -21v-1q0 -13 23 -18z" />
    <glyph glyph-name="L" unicode="L" horiz-adv-x="655" 
d="M91 -3q-15 0 -30 6.5t-27 18t-20 26t-8 29.5v2q0 15 8 29.5t20 26.5t27.5 19.5t30.5 8.5q56 0 103 -22l17 -8l4 16v-2q3 13 3 26v10q0 36 -5 72.5t-12 71.5t-12 71t-5 75v1q0 36 18.5 72t48.5 64t66.5 45.5t72.5 17.5h2q24 0 53 -8.5t54.5 -23t43 -34t17.5 -41.5v-3
q0 -5 -4.5 -8.5t-8.5 -3.5q-12 0 -12 12v3q0 15 -14.5 30t-36.5 26.5t-47 19t-47 7.5q-32 0 -64.5 -15.5t-58.5 -41t-42.5 -57t-16.5 -62.5q0 -35 5.5 -70t11.5 -70q8 -37 13.5 -74.5t5.5 -75.5v-10q0 -2 -1 -5t-1 -5q0 -5 -0.5 -10t-1.5 -10l-6 -20l8 -4q19 -8 36 -17
l34 -18q44 -23 85 -41.5t83 -18.5q51 2 92 34t69 86q1 5 4.5 6t6.5 1q5 0 8 -2l-2 1q3 -2 5 -3.5t2 -6.5q0 -4 -1 -6q-32 -58 -78 -96t-106 -38q-49 0 -92.5 19.5t-87.5 43.5q-15 8 -31 15.5t-32 15.5l-13 6l-7 -14q-19 -37 -53.5 -62t-72.5 -27h-1zM92 21q30 2 59 22.5
t44 52.5l7 14l-11 7q-24 11 -49 15.5t-49 4.5q-11 0 -22 -5.5t-20 -14t-14.5 -19t-5.5 -21.5q0 -10 5.5 -20t14 -18t19 -13t21.5 -5h1z" />
    <glyph glyph-name="M" unicode="M" horiz-adv-x="1081" 
d="M565 13q-12 0 -12 11l-4 343v67q0 15 1 30t1 32q0 15 -1 30.5t-2 30.5q-5 45 -19 72.5t-43 27.5h-1q-37 0 -69 -25.5t-58.5 -66.5t-48.5 -91.5t-40 -99.5q-1 -1 -1 -3v-352q0 -12 -12 -12q-13 0 -13 12v437q0 23 -0.5 47t-3.5 47q-5 45 -16.5 72.5t-34.5 27.5
q-21 0 -45 -16.5t-46 -45t-40 -67.5t-28 -84q-1 -5 -4.5 -6.5t-5.5 -1.5h-4q-10 2 -10 15q10 46 29.5 88t44.5 73.5t53.5 50t55.5 18.5q19 0 32.5 -10.5t22.5 -27.5t13.5 -39t6.5 -46q4 -24 4.5 -49t0.5 -48v-11q18 43 40 86t49 77t58.5 55t69.5 22q23 0 38.5 -10
t25.5 -27.5t15.5 -40t7.5 -46.5q2 -20 3 -40t1 -40q0 -9 -0.5 -17t-0.5 -16q15 42 36 83.5t49 75t63 54.5t79 21h1q21 0 37.5 -12t28 -30t17.5 -39t6 -39v-469q0 -12 5 -24t13.5 -21.5t19.5 -16t22 -6.5h3q19 0 37 11t33 28t26 37.5t17 39.5q1 3 4.5 5.5t6.5 2.5h4
q9 -5 9 -11v-5q-5 -21 -18 -44t-31 -42.5t-40.5 -32.5t-47.5 -13h-3q-17 0 -32 9t-26.5 22t-18.5 29.5t-7 31.5v466q0 16 -5.5 33.5t-14.5 32t-21 24t-25 9.5q-45 0 -80 -27t-63 -69t-48 -92.5t-35 -96.5q-1 -1 -1 -2l-2 -2l5 -341q0 -7 -4 -10t-9 -3z" />
    <glyph glyph-name="N" unicode="N" horiz-adv-x="783" 
d="M652 1q-17 0 -34.5 8t-32 21t-24 29.5t-9.5 34.5l1 482q0 13 -5 26.5t-13 24.5t-18 18.5t-21 7.5h-1q-43 0 -78 -25t-62.5 -66.5t-48 -96t-33.5 -114.5l-2 -331q0 -5 -4.5 -8t-8.5 -3q-12 0 -12 11l3 331v5l2 113q0 24 -4.5 57.5t-13.5 63.5q-17 63 -37 63
q-26 0 -50.5 -20t-46.5 -50.5t-39.5 -67t-30.5 -69.5q-4 -7 -11 -7h-5q-3 1 -5.5 4.5t-2.5 6.5t3 6l-2 -2q12 33 30.5 72t42.5 72.5t53.5 56.5t63.5 24q12 0 22 -7t17.5 -19t13 -26.5t9.5 -29.5q8 -31 12.5 -65.5t4.5 -62.5v-19q15 46 36.5 87.5t49 72.5t61 49.5t73.5 19.5
q18 0 33 -10.5t26.5 -26t17.5 -33.5t6 -33v-482q0 -12 7 -24.5t17.5 -22t23.5 -15.5t26 -6q12 0 28 9t32.5 24.5t31 37t25.5 46.5q2 5 6 6t7 1h4q7 -4 7 -11v-5q-12 -26 -29 -50t-36 -42.5t-39 -29.5t-37 -11z" />
    <glyph glyph-name="O" unicode="O" horiz-adv-x="711" 
d="M318 -1q-65 0 -121.5 26.5t-98.5 72t-66.5 107t-25.5 131.5v3q0 69 24.5 130.5t66.5 107.5t98.5 73t120.5 27h3q7 0 13 -0.5t13 -0.5h1h1t2 -2q66 -6 120.5 -39.5t92.5 -87.5q37 13 72 36t67 58l-2 -1q2 5 4.5 5.5t5.5 0.5q2 0 4.5 -0.5t4.5 -2.5q1 -2 2.5 -4.5t1.5 -5.5
q0 -4 -3 -7q-31 -38 -67.5 -62t-75.5 -38q25 -42 38.5 -88t14.5 -98v-3q0 -70 -24 -131.5t-66 -107t-98 -72.5t-120 -27h-3zM462 506q-5 0 -8.5 0.5t-8.5 0.5h-10q-4 0 -9 2h2q-34 5 -59.5 18t-40.5 34q-7 11 -11 21.5t-4 23.5q0 11 2.5 22.5t9.5 24.5h-9q-58 -1 -109.5 -26
t-90.5 -67.5t-61.5 -99.5t-22.5 -121v-3q0 -65 22.5 -122t61.5 -99.5t91 -67t111 -24.5h3q58 0 109.5 25t90.5 67.5t61.5 99.5t22.5 122v3q-2 50 -16 94.5t-37 82.5q-23 -6 -44.5 -8.5t-41.5 -2.5h-4zM536 540q-34 45 -81.5 73.5t-103.5 36.5q-7 -12 -9.5 -23t-2.5 -20
q0 -19 14 -37q19 -27 78 -36q8 -1 17.5 -2t19.5 -1q33 0 68 9z" />
    <glyph glyph-name="P" unicode="P" horiz-adv-x="550" 
d="M156 184q-13 0 -13 12q0 4 4 8.5t9 4.5q68 0 136 14t122 47t88 87.5t34 135.5v3q0 30 -17 58.5t-44 50.5t-61.5 35.5t-70.5 13.5h-2q-56 0 -101.5 -22.5t-81.5 -55.5t-63.5 -72t-48.5 -73l-3 -424q0 -11 -11 -11q-13 0 -13 11l3 656q0 5 4 9t9 4t9 -4t4 -9l-2 -180
q21 33 49.5 67.5t65 63t81.5 47t99 18.5h2q40 0 78.5 -15t69.5 -40t50 -58t20 -69v-3q0 -89 -37 -148.5t-95.5 -95.5t-130.5 -51t-142 -15z" />
    <glyph glyph-name="Q" unicode="Q" horiz-adv-x="807" 
d="M628 16h-17q-7 0 -15 1l-1 -386q0 -5 -4 -8.5t-9 -3.5q-11 0 -11 12l1 398v7l1 245q-21 -59 -59 -110.5t-86 -89.5t-104.5 -60t-114.5 -22q-38 0 -74 13.5t-65 41t-46.5 69t-17.5 97.5v3q0 57 21.5 112.5t58 105.5t86 92t105 72.5t114 47.5t114.5 17q21 0 41.5 -2.5
t39.5 -7.5l3 -3q10 -1 10 -11l-3 -603q11 -2 21.5 -2.5t20.5 -0.5q95 0 157 103v-2q1 5 4.5 6.5t6.5 1.5q5 0 7 -3l-1 1q7 -5 7 -11q0 -5 -1 -6q-35 -60 -81.5 -87t-104.5 -27h-4zM571 376q0 3 2 7l2 254q-35 9 -72 9q-53 0 -108.5 -16.5t-108 -45.5t-99 -69.5t-81.5 -87.5
t-55 -99.5t-20 -106.5v-1q0 -51 15.5 -88t40.5 -61.5t57 -36t65 -11.5q64 0 125.5 29t111 77.5t83.5 112.5t42 134z" />
    <glyph glyph-name="R" unicode="R" horiz-adv-x="735" 
d="M568 -6q-30 0 -49 12.5t-31.5 33.5t-21 48.5t-15.5 57.5q-12 46 -28 89.5t-48 71.5l-7 -7q-40 -35 -95 -37q-38 0 -59.5 12.5t-21.5 33.5v2q1 22 23.5 35.5t57.5 14.5h12q26 0 47 -4.5t37 -16.5v1l4 -2l19 22q23 29 35 68t12 74q0 29 -16 56.5t-41 49t-55.5 34.5
t-60.5 13h-3q-39 -1 -72 -18t-61.5 -46.5t-53 -69.5t-45.5 -86v-423q0 -13 -13 -13q-12 0 -12 13l-1 653q0 4 4 8.5t9 4.5q4 0 8.5 -3.5t4.5 -9.5v-172q20 39 44 73t52.5 59t62.5 39.5t73 14.5h3q33 0 67.5 -14t63.5 -38.5t47.5 -56.5t18.5 -68v-6q0 -36 -12 -77.5
t-40 -73.5l-19 -22l16 -14q28 -33 42 -74.5t25 -81.5q6 -26 13.5 -50.5t18 -43t24.5 -29.5t35 -11h2q24 0 45 10t40 26.5t35.5 38t30.5 45.5q2 2 6 4.5t7 2.5h6q2 -2 3.5 -6.5t1.5 -6.5v-5q-14 -26 -32.5 -50t-40 -42.5t-47.5 -30t-55 -12.5zM273 289q46 0 79 30l1 1l-7 4
q-15 8 -33 10.5t-40 2.5q-31 -1 -43 -10t-14 -17q0 -5 10 -13t42 -8h5z" />
    <glyph glyph-name="S" unicode="S" horiz-adv-x="461" 
d="M192 1q-35 0 -69 9.5t-60 26.5t-42 40.5t-16 52.5q0 5 3 9t8 4q7 0 10 -4t3 -9q0 -22 13.5 -41t37 -33t53.5 -22t63 -8q34 0 72 10t70 28.5t53.5 45t21.5 59.5v1q0 37 -20.5 75t-47.5 79h1q-4 7 -9 14t-9 15v-2l-20 35l-12 -12q-41 -42 -88 -70t-93 -30q-13 0 -13 13
q0 5 3 9t8 4q42 2 86 27.5t80 63.5l14 16l-11 23q-18 33 -29 70t-12 79q0 16 8.5 32t22 29t30.5 21t33 8h1q16 -1 30.5 -9t26 -21t19 -28t7.5 -30q0 -30 -21 -73t-59 -87l-14 -17l24 -37q2 -5 6.5 -11t6.5 -10v1q29 -45 52.5 -87t24.5 -90q0 -41 -24.5 -72.5t-61.5 -53
t-79 -32.5t-78 -11h-4zM266 579q0 -39 11 -74.5t29 -68.5l5 -10l10 11q33 39 52.5 78.5t19.5 65.5q0 11 -5 22t-13.5 20t-18.5 15t-20 6q-12 0 -24.5 -6t-22.5 -15t-16.5 -20.5t-6.5 -23.5z" />
    <glyph glyph-name="T" unicode="T" horiz-adv-x="777" 
d="M185 241q-3 0 -4 2q-5 1 -6.5 4.5t-1.5 6.5t2 6q23 41 52.5 54t61.5 13q5 0 9.5 -0.5t9.5 -0.5q9 37 26.5 73t42 68t55 59t66.5 45l4 3h-16q-56 0 -95.5 11.5t-74.5 24.5q-30 11 -57.5 20t-59.5 9h-6q-28 -1 -57 -11t-52 -28.5t-38 -45t-15 -60.5v-3q0 -23 8.5 -42.5
t22 -33.5t30 -22.5t31.5 -8.5q8 0 20 5q2 1 6 1q5 0 6.5 -2t3.5 -5t2 -6t-1.5 -6.5t-6.5 -4.5q-14 -7 -31 -7q-21 0 -42 10.5t-37.5 28.5t-27 42t-10.5 51q0 40 17.5 72t45 53.5t60.5 33.5t64 13h7q38 0 67.5 -9t61.5 -20q33 -13 70.5 -25t89.5 -12q13 0 26 1t28 3l39 5h-2
l12 3q8 2 16 3t18 2q6 0 9.5 -4t3.5 -9q0 -3 -1.5 -6.5t-5.5 -5.5l-48 -8h2l-19 -5q-42 -12 -79 -37.5t-67.5 -59.5t-53 -74t-33.5 -82q3 -2 10 -2q14 -2 28 -3t27 -1q11 0 23.5 2t23.5 7h4q6 0 13 -7v-5q0 -3 -1 -6.5t-6 -4.5q-14 -7 -28 -8.5t-29 -1.5h-15q-28 2 -50 6h2
q-2 0 -4 0.5t-3 0.5q-4 -14 -5 -28.5t-1 -27.5v-15q2 -38 14 -75t37.5 -66t67 -46.5t101.5 -17.5h3q32 0 64.5 6.5t61.5 20.5t53 36t41 53q1 5 4 6t6 1q4 0 7 -3l-1 2q7 -5 7 -12v-4q-20 -35 -47.5 -59.5t-59.5 -40.5t-67 -23.5t-69 -7.5h-3q-67 0 -113 20t-74.5 52.5
t-41.5 73.5t-15 82v19q0 13 1 27t3 28h-10q-28 0 -52 -9.5t-44 -42.5q-5 -8 -11 -8z" />
    <glyph glyph-name="U" unicode="U" horiz-adv-x="788" 
d="M646 1q-12 1 -26.5 6t-26.5 13.5t-20 20t-8 25.5l-2 104q-28 -76 -80 -121t-121 -52h-1q-22 0 -43 5t-38 16.5t-27.5 30.5t-10.5 48v3l6 489q0 9 -5 19.5t-12.5 19.5t-16 15.5t-15.5 6.5q-1 -1 -6 -1q-28 0 -54.5 -22.5t-49 -54.5t-38.5 -67t-22 -61q-1 -4 -4.5 -6
t-5.5 -2h-4q-10 2 -10 15q6 25 21.5 60t38.5 68.5t51 59.5t60 32l15 3h15q12 -3 24 -12t21.5 -21t15 -26t5.5 -26l-6 -489q0 -38 22.5 -57t53.5 -20l19 -2l20 3q72 10 119 75t63 171l-2 386q0 13 11 13q13 0 13 -12l3 -371q1 -2 1 -7q-1 -5 -1 -13l1 -200q0 -8 5.5 -15
t14.5 -12.5t19.5 -9t20.5 -3.5h3q19 1 36.5 12.5t33 28.5t29.5 37t25 39v-2q3 8 10 8q3 0 6 -2t5 -3.5t2 -6.5q0 -4 -1 -6q-11 -19 -25.5 -41.5t-33 -41.5t-40 -32.5t-46.5 -14.5h-7v0z" />
    <glyph glyph-name="V" unicode="V" horiz-adv-x="854" 
d="M436 -1q-33 0 -67.5 14.5t-63.5 38.5t-47.5 55.5t-18.5 65.5l2 407q0 35 -16 48t-34 13q-20 0 -44 -17.5t-47 -46t-42 -65.5t-29 -76q-1 -5 -4.5 -7t-5.5 -2h-4q-7 2 -8.5 6.5t-1.5 9.5q10 40 31 80t47 71.5t54 51.5t52 20q30 0 53 -20.5t23 -65.5l-2 -407
q0 -28 16 -54.5t41 -47.5t55.5 -34t59.5 -13h1q55 0 96 34t68.5 85t41 112t13.5 115v80q0 16 -0.5 32t-2.5 31v-2l-1 3l-19 3q-18 1 -40.5 6.5t-42.5 17t-33.5 30t-13.5 46.5q0 13 8.5 23.5t20.5 17.5t25.5 10.5t24.5 4.5q41 0 63.5 -35.5t27.5 -86.5v-12l20 1
q43 2 83.5 22.5t69.5 46.5q3 2 8 2h4q3 0 5 -2t2.5 -5t0.5 -4q0 -6 -3 -9q-31 -28 -75.5 -50.5t-93.5 -24.5l-17 -2l2 -8q1 -14 2 -28.5t1 -27.5t-1 -24.5t-1 -22.5v-33q0 -36 -6.5 -78t-19 -83t-32.5 -79t-47 -67t-61.5 -46.5t-76.5 -17.5zM528 617q0 -20 9.5 -33.5
t25 -22.5t34.5 -13.5t38 -6.5l13 -1l-2 16q-5 40 -20 65.5t-45 25.5q-19 0 -36 -9.5t-17 -20.5z" />
    <glyph glyph-name="W" unicode="W" horiz-adv-x="1097" 
d="M703 3q-25 0 -51 6t-48.5 19.5t-39.5 35t-26 52.5q-24 -60 -65 -88.5t-81 -28.5h-4q-29 0 -56 9t-48 28.5t-34 51t-14 76.5l-7 435q0 23 -6.5 32.5t-24.5 9.5q-25 0 -50.5 -16.5t-48 -43.5t-40.5 -61t-28 -70q-2 -3 -5.5 -6t-6.5 -3h-3q-10 0 -10 10v5q10 38 30 75.5
t45.5 67.5t55.5 48.5t61 18.5q32 0 43.5 -17.5t11.5 -48.5l8 -436q0 -39 11.5 -66t29.5 -43.5t41.5 -24t48.5 -7.5q20 0 42.5 9.5t42.5 29.5t35 51t20 74q0 12 13 12q5 0 8 -4.5t3 -8.5q-6 -40 -18 -70q-4 11 -5 24t-1 27v22l3 198q2 10 13 10q4 0 8.5 -3t4.5 -10l-5 -211
v-6q0 -39 13.5 -65.5t34.5 -43t47 -24t52 -7.5q31 0 58 15.5t49 41t39 59.5t28.5 70.5t17.5 74.5t6 73v22q0 23 -0.5 52t-4.5 59l-4 30h-17q-20 0 -39.5 4.5t-36.5 12.5q-30 14 -44 35t-14 43q0 24 16.5 42t50.5 18h7q5 0 10 -2h-2q38 -5 59 -37t29 -74l2 -16q47 2 91.5 20
t83.5 43q1 0 3 0.5t4 0.5q6 0 11 -7l-1 2q3 -3 3 -8q0 -3 -1.5 -6.5t-5.5 -4.5h1q-38 -25 -85.5 -44.5t-98.5 -21.5l4 -33q3 -24 3.5 -47t0.5 -43v-34q0 -36 -6 -76.5t-18.5 -81t-31 -77.5t-43.5 -65.5t-56 -46t-68 -17.5zM889 549l-3 12q-8 37 -23.5 62t-41.5 30
q-4 0 -7 0.5t-6 0.5q-22 0 -32.5 -10.5t-10.5 -24.5t10.5 -29.5t33.5 -25.5q17 -6 33.5 -10.5t33.5 -4.5h13z" />
    <glyph glyph-name="X" unicode="X" horiz-adv-x="948" 
d="M709 -3q-55 0 -98.5 19.5t-74.5 53t-50 77.5t-24 93v-1q-11 -46 -32.5 -89t-53 -77t-72 -54.5t-89.5 -21.5q-25 0 -52 11.5t-49.5 30.5t-37 43.5t-14.5 51.5v2q0 51 28 83t73.5 51.5t105 29.5t122.5 17l61 6l1 6q2 6 2 12v15v4q0 45 -11 96t-34.5 93.5t-61 71t-89.5 28.5
h-1q-64 0 -124 -32.5t-108 -82.5q-4 -4 -8 -4q-6 0 -9 4q-4 3 -4 9q0 1 1 3.5t3 4.5q48 52 113.5 87t135.5 35h1q50 0 88.5 -22t65.5 -57.5t42.5 -79.5t20.5 -87v2q9 42 25.5 84t43.5 76t66.5 56t94.5 22q38 0 67 -12t48 -32t28.5 -45.5t9.5 -51.5v-2q0 -57 -27.5 -95
t-72.5 -62t-104 -37.5t-122 -20.5l-50 -6v-22q1 -50 16 -97t44 -83t70.5 -58t94.5 -22h3q33 0 67 8.5t65 24t55.5 37.5t37.5 50q2 5 6 6.5t7 1.5h4q2 -2 5 -5.5t3 -6.5q0 -4 -2 -6q-15 -32 -42.5 -56.5t-61.5 -42t-71.5 -26.5t-71.5 -9h-3zM483 327l50 6q62 7 117 19.5
t96 34t65 55t24 84.5q-1 21 -9 42t-23.5 37t-39 26t-54.5 10h-3q-55 0 -92.5 -25t-62 -63.5t-38.5 -85t-22 -90.5q0 -2 -1 -5t-1 -5l-2 -10t-1 -10zM215 21q51 1 92 26t71 64.5t48.5 88.5t24.5 99l-63 -8q-63 -7 -118 -16.5t-96 -27t-64.5 -44.5t-23.5 -69q1 -21 13 -41
t30.5 -36t41 -26t44.5 -10z" />
    <glyph glyph-name="Y" unicode="Y" horiz-adv-x="740" 
d="M409 -393q-21 0 -40.5 12t-34.5 30.5t-23.5 41t-8.5 42.5v3q0 32 14 59t37 51t54 46t66 44l32 21l3 360q-17 -36 -39 -71t-47.5 -62.5t-54 -44.5t-58.5 -18q-34 0 -58 13.5t-39.5 34.5t-22.5 46t-7 48v304q0 13 -4.5 27t-12.5 26t-18 19.5t-21 7.5q-23 0 -40.5 -13.5
t-30 -32t-19 -39.5t-7.5 -36q0 -5 -4 -8.5t-9 -3.5q-11 0 -11 13q0 16 7.5 40.5t22.5 47.5t38 39.5t53 16.5q18 0 32.5 -10.5t25 -26.5t16.5 -34t6 -33v-304q0 -20 6 -41t18 -37.5t31 -27t45 -10.5h3q30 0 59 22t55 56t47.5 76t37.5 82l3 274q0 5 3 9t8 4t9 -4t4 -9l-4 -686
l12 9q54 32 103 70.5t79 86.5l6 6t7 3q1 0 3.5 -0.5t4.5 -2.5l3.5 -3.5t1.5 -5.5t-3 -7h1q-33 -53 -83.5 -93.5t-103.5 -73.5l-33 -20v-123q0 -29 -6 -65t-20 -68.5t-37 -54.5t-57 -22zM409 -369q26 0 44 18.5t29 46t16.5 60t6.5 61.5v107l-13 -8q-34 -21 -64 -42
t-52.5 -43.5t-36 -46.5t-13.5 -51q0 -17 7 -35t19 -33t27 -24.5t30 -9.5z" />
    <glyph glyph-name="Z" unicode="Z" horiz-adv-x="725" 
d="M222 284q-3 0 -5 1l-4 2q-5 2 -5 10q0 2 0.5 3t0.5 3q27 38 52.5 51t50.5 13q12 0 22.5 -2t21.5 -5q2 10 4.5 19.5t5.5 19.5q12 44 24.5 86.5t28.5 78.5l6 15q-25 5 -50 12t-50 15q-45 14 -90 24.5t-93 10.5h-7q-20 0 -38.5 -8.5t-33 -22.5t-23.5 -31.5t-9 -35.5v-2
q0 -19 5.5 -37t15 -31.5t23.5 -22t31 -9.5q12 0 12 -11q0 -5 -4 -9t-9 -4q-24 1 -42.5 12t-31 28.5t-19.5 39t-7 44.5q0 22 11 44.5t29 40.5t41.5 29t48.5 11h7q50 0 95.5 -11t88.5 -25q27 -8 54.5 -15t50.5 -12l7 -2l4 8q17 31 40.5 49.5t52.5 18.5q33 0 48.5 -15t15.5 -35
q0 -21 -18.5 -40.5t-52.5 -19.5q-14 0 -27 0.5t-25 2.5l-25 4l-6 -13q-17 -38 -32 -87.5t-30 -107.5q-1 -8 -4 -16q3 -1 5 -1q3 0 5 -2q17 -6 31.5 -11t28.5 -5t29 7.5t31 24.5l-1 -2q2 5 4 5.5t6 0.5q1 0 3.5 -0.5t4.5 -2.5t2.5 -4.5t0.5 -3.5q0 -6 -3 -9
q-20 -23 -38.5 -31.5t-38.5 -8.5t-37.5 5.5t-33.5 13.5q-5 0 -6 1q0 -2 -0.5 -4t-0.5 -4q-15 -57 -31.5 -113t-41.5 -100l-3 -5l11 -4q17 -6 34 -14t33 -16q32 -16 65.5 -29t66.5 -18q6 -1 12 -1h12q32 0 58.5 10.5t48.5 27.5t40 38.5t33 44.5q3 3 6.5 6t6.5 3q1 0 4 -0.5
t5 -2.5q1 -2 2.5 -4.5t1.5 -5.5q0 -5 -3 -7h1q-15 -24 -35 -48t-45 -43.5t-56 -32t-68 -12.5h-7q-3 1 -9 1q-2 0 -5 1t-5 1q-41 4 -75.5 18t-66.5 30q-15 8 -30 15t-32 14l-17 6q-23 -40 -54.5 -62.5t-71.5 -22.5q-33 0 -49 16.5t-16 39.5v7t1 7q5 24 28 43.5t58 19.5
q49 0 87 -14l6 -3l4 6q23 43 40.5 100t33.5 120q-10 3 -19.5 5t-17.5 2q-20 0 -40 -11.5t-43 -41.5l-4 -4l1 1l-1 -1zM156 19q57 1 93 57l10 13q-20 8 -40.5 11t-40.5 3q-26 0 -42 -14.5t-20 -31.5q-1 -3 -1 -7q0 -12 9 -21.5t32 -9.5zM528 591q23 2 35 12.5t12 23.5
q0 10 -10 18t-30 8q-20 -2 -38 -15t-32 -39l-2 -2l18 -3q11 -2 23 -2.5t24 -0.5z" />
    <glyph glyph-name="bracketleft" unicode="[" horiz-adv-x="280" 
d="M227 -158h-176v837h176v-27h-146v-783h146v-27z" />
    <glyph glyph-name="backslash" unicode="\" horiz-adv-x="500" 
d="M467 25q4 -6 4 -9q0 -16 -16 -16q-4 0 -12 7l-409 616q-4 3 -4 10q0 16 16 16q8 0 12 -8z" />
    <glyph glyph-name="bracketright" unicode="]" horiz-adv-x="276" 
d="M50 -132h146v784h-146v27h176v-838h-176v27z" />
    <glyph glyph-name="asciicircum" unicode="^" horiz-adv-x="505" 
d="M266 636l193 -323v-7l-5 -6l-7 2l-10 3l-7 8l-177 296l-176 -296l-12 -9l-8 -3l-6 -1l-5 5l1 8l194 324q0 1 1 2l5 5q3 3 6.5 4.5t6.5 -3.5z" />
    <glyph glyph-name="underscore" unicode="_" horiz-adv-x="351" 
d="M3 -150q-6 0 -9.5 3.5t-3.5 8.5q0 4 3.5 8t9.5 4h348q6 0 9.5 -4t3.5 -8q0 -5 -3.5 -8.5t-9.5 -3.5h-348v0z" />
    <glyph glyph-name="grave" unicode="`" horiz-adv-x="550" 
d="M197 734q-8 4 -8 12q0 6 4.5 10t10.5 4q2 0 6 -2l88 -47q8 -5 8 -12q0 -6 -4.5 -10.5t-10.5 -4.5q-3 0 -6 3l-88 47v0z" />
    <glyph glyph-name="a" unicode="a" 
d="M339 -4q-15 0 -28.5 7.5t-24 19.5t-17 26t-7.5 28q-26 -32 -68 -56.5t-90 -24.5q-21 0 -42 9t-38 24t-28 35t-11 42v1q0 52 30 89.5t73.5 61t91 34.5t82.5 11h7h3h3q2 -2 3 -2t3 -1q1 -1 1 -3q0 -1 2 -3v-3l1 -164q2 -1 2 -2v-1v-4q0 -1 -1 -1h-1l2 -36q0 -11 4.5 -22
t12 -20t17 -15t18.5 -6q11 0 28 11.5t37 29.5q17 17 34.5 40t30.5 43v-1q2 5 5.5 6t6.5 1q4 0 7 -3l-1 2q7 -5 7 -12q0 -4 -3 -7q-13 -20 -31.5 -43t-38.5 -43q-20 -18 -41 -33t-41 -15zM104 20q28 0 53.5 10t46.5 26t36 34.5t21 35.5l-2 153q-33 -1 -76 -11t-81.5 -31
t-65.5 -52.5t-27 -75.5v-2q0 -17 8.5 -32.5t22 -27.5t30.5 -19.5t34 -7.5z" />
    <glyph glyph-name="b" unicode="b" horiz-adv-x="489" 
d="M207 -4q-30 0 -55 14.5t-44 38.5t-29.5 54.5t-10.5 62.5v58q-16 -26 -32 -50t-29 -44l1 1q-5 -7 -11 -7q-5 0 -8 3q-4 4 -4 10q0 3 2 6l4 8l4 8l26 40t28 47l19 33v357q0 12 4.5 25.5t12.5 25t19.5 19t26.5 7.5q25 0 40.5 -14.5t23.5 -35.5t11 -45.5t3 -43.5
q0 -24 -8 -56.5t-22.5 -69t-33.5 -76t-40 -78.5l-13 -23v-105q0 -28 9.5 -54.5t25.5 -46.5t36.5 -32.5t43.5 -12.5q26 0 47.5 16.5t34.5 43.5l10 21l-15 12q-24 18 -36.5 43.5t-12.5 54.5q0 10 1.5 23t7 25t16.5 20t31 8q32 0 44 -26t12 -64q0 -15 -2 -31.5t-7 -32.5l-7 -20
l11 -7h-1q21 -9 43 -9q26 0 50 13t44 36l-1 -2q2 5 4 5.5t6 0.5q1 0 3.5 -0.5t4.5 -2.5q4 -6 4 -10t-2 -7q-21 -27 -50.5 -43t-62.5 -16q-13 0 -26.5 2.5t-25.5 9.5l-11 6l-9 -20q-16 -32 -43.5 -52.5t-61.5 -20.5zM92 324l22 43q32 62 51.5 117.5t19.5 89.5q0 20 -2.5 40
t-9 36.5t-17 26.5t-25.5 10t-27 -16.5t-12 -34.5v-312zM259 211q0 -23 11 -44.5t31 -35.5l7 -5l6 13q8 34 8 58q0 35 -8 50.5t-23 15.5q-22 0 -27 -16t-5 -36z" />
    <glyph glyph-name="c" unicode="c" horiz-adv-x="354" 
d="M162 -4q-29 0 -60 11.5t-57 31t-43 46t-17 56.5v6q2 37 18.5 66t41 48.5t54.5 29.5t60 10q19 0 35.5 -3t30.5 -11q3 -2 5 -3.5t2 -6.5q0 -4 -1 -6q-5 -7 -12 -7h-4q-25 13 -56 13q-26 0 -51.5 -9t-46.5 -25.5t-35.5 -41t-16.5 -55.5v-3q0 -24 14.5 -46t36.5 -39.5
t49 -27.5t53 -10q28 0 54.5 9.5t49.5 25.5t41.5 38t31.5 48q2 5 6 6.5t7 1.5h5q7 -5 7 -12q0 -4 -2 -6q-14 -28 -35 -52.5t-46.5 -43t-55.5 -29t-63 -10.5z" />
    <glyph glyph-name="d" unicode="d" 
d="M104 -4q-29 0 -51 10t-37 26.5t-23 36.5t-8 40v10l2 10v10q2 43 32.5 72t73.5 46.5t88.5 25t77.5 8.5l2 326q0 5 3 9t8 4q7 0 10 -4t3 -9l-1 -334q1 -2 1 -4q0 -5 -1 -6v-132q0 -1 0.5 -1.5t0.5 -2.5q0 -4 -1 -6q0 -17 1 -36.5t7 -35.5q7 -17 18 -28t31 -11t37 9.5
t31 25.5t27 36.5t26 41.5q2 3 4.5 5.5t4.5 5.5q1 2 4.5 3.5t6.5 1.5h5q7 -5 7 -12q0 -1 -1 -2.5t-1 -3.5q-2 -4 -5 -8t-5 -9q-11 -19 -24.5 -39.5t-30.5 -38t-38 -29t-48 -11.5q-32 0 -48.5 15.5t-24.5 38.5q-6 20 -9 46q-29 -37 -67.5 -67t-86.5 -33h-1zM117 21
q21 3 40.5 14t37.5 27t34 35.5t30 39.5v130q-33 -1 -75.5 -9t-81 -24.5t-65 -43t-26.5 -63.5v-3q-2 -4 -2 -13q0 -15 5 -31t15.5 -28.5t26 -21t35.5 -9.5l13 -1z" />
    <glyph glyph-name="e" unicode="e" horiz-adv-x="289" 
d="M116 -4q-37 0 -61 11.5t-38.5 29.5t-21.5 40t-9 43q0 3 -0.5 7t-0.5 7q0 24 7.5 51.5t22 51t34 40.5t43.5 22h27q25 -2 44 -22t19 -48q0 -35 -19.5 -54.5t-47.5 -31.5q-46 -16 -92 -16h-13v-6q1 -19 6.5 -37t17.5 -32.5t32 -23t50 -8.5q32 0 57 11.5t44 29.5t33 40.5
t26 44.5q5 5 12 5h4q7 -4 7 -11q0 -4 -1 -6q-12 -23 -27.5 -47t-37 -44.5t-50.5 -33.5t-67 -13zM28 151q40 0 78 16q23 9 37.5 23.5t14.5 38.5q0 19 -14 32t-31 13h-5q-18 0 -34.5 -10t-29 -26t-21 -36.5t-11.5 -41.5l-2 -9h18z" />
    <glyph glyph-name="f" unicode="f" horiz-adv-x="275" 
d="M2 -373q-16 0 -31 8.5t-27 21t-19 28.5t-7 31v3q0 24 10.5 48t29 48t42.5 48.5t51 49.5l17 16v297q-32 -53 -60 -96v1q-2 -3 -3.5 -5t-6.5 -2q-3 0 -6 2q-4 1 -5.5 4.5t-1.5 6.5q0 4 3 7q5 7 8 13t8 13h-2q12 20 25.5 40t24.5 43l16 27v351q0 11 4.5 24.5t12 25.5
t18.5 20t25 8h3q22 -2 37 -17.5t24.5 -37t14 -44.5t5.5 -41v-2q0 -24 -8 -54.5t-22.5 -65.5t-33 -72.5t-39.5 -75.5l-17 -29v-319l16 15q43 40 83.5 84.5t70.5 95.5q2 2 6.5 4.5t8.5 2.5h4q7 -5 7 -12q0 -4 -3 -7h2q-34 -55 -81 -104t-95 -94l-12 -12l-7 -5v-198
q0 -16 -7.5 -32.5t-19.5 -30t-28 -22.5t-33 -9h-2zM92 321q37 65 64 126t31 103l1 17l-3 20q-1 16 -5.5 33t-11.5 31t-17 23t-22 10h-1q-14 0 -25 -17t-11 -36v-310zM4 -349q12 0 23.5 6.5t20.5 16.5t14.5 22.5t5.5 24.5v176q-26 -24 -49 -47t-40 -45.5t-27 -44.5t-10 -43
v-1q0 -11 5.5 -22.5t14.5 -21t20 -15.5t22 -6z" />
    <glyph glyph-name="g" unicode="g" horiz-adv-x="469" 
d="M98 -4q-22 0 -42.5 10.5t-36 27t-25 37.5t-9.5 42q0 42 26 76.5t67.5 59t92.5 37.5t102 13q5 0 9 -3.5t4 -8.5v-1l-1 -336l18 16q42 36 82.5 78.5t69.5 96.5q1 5 5 6.5t8 1.5h4q7 -5 7 -12q0 -4 -1 -6q-35 -65 -85 -114.5t-98 -90.5l-10 -9l-2 -190q0 -14 -5.5 -31.5
t-16 -33t-27 -26t-38.5 -10.5h-1q-17 0 -31.5 10t-25 25t-16.5 33t-6 33q2 56 39.5 100.5t93.5 91.5l10 8v167q-30 -43 -70 -70.5t-91 -27.5zM256 140q2 1 2 2t1 1l1 131q-48 -2 -93 -14.5t-80 -34t-56.5 -50t-21.5 -62.5q0 -17 7.5 -34t20 -30t28.5 -21t33 -8q50 0 88 33.5
t70 86.5zM195 -350q15 0 27 8t20.5 19.5t12.5 25t4 24.5v169l-17 -15q-43 -38 -71.5 -74.5t-28.5 -79.5v-3q0 -13 4.5 -26t12 -23.5t17 -17.5t19.5 -7z" />
    <glyph glyph-name="h" unicode="h" horiz-adv-x="534" 
d="M386 -4q-15 0 -28 7t-22 18.5t-14.5 24.5t-5.5 25v145q0 21 -5.5 41t-19.5 20q-31 0 -58 -14t-52 -37q-14 -13 -26.5 -26t-25.5 -27q-10 -11 -19 -20.5t-19 -19.5v-124q0 -7 -4 -10t-8 -3q-12 0 -12 13v121q-1 1 -1 7v1q0 2 1 3v78l-24 -38l-34 -51l1 1q-2 -3 -3.5 -5
t-6.5 -2q-3 0 -6 2q-4 1 -5.5 4.5t-1.5 6.5q0 4 3 7h-1q6 11 13 21t14 21q11 16 20.5 32t19.5 32l11 14v347q0 44 14 72q8 15 20 25.5t32 10.5q18 0 31.5 -15.5t23 -37.5t14.5 -46.5t5 -42.5q0 -78 -27.5 -150t-69.5 -138l-19 -32v-90q5 5 9.5 10t9.5 10q19 20 39 40.5
t42.5 37t47 26.5t52.5 10q16 0 26 -9.5t15 -23t7 -28t2 -24.5v-145q0 -18 14 -34.5t31 -16.5q21 0 39.5 11.5t35.5 29.5q12 14 25.5 33.5t26.5 41.5l10 13l-2 -2q2 5 4.5 5.5t5.5 0.5q5 0 8 -2q5 -2 5 -10q0 -4 -1 -5q-2 -5 -4 -8.5t-8 -10.5h2q-12 -19 -27 -40t-33 -39
t-40 -30t-47 -12zM91 307q40 65 66 132.5t26 137.5q0 17 -4.5 38t-12.5 41q-8 19 -16.5 28.5t-16.5 9.5q-19 0 -29 -21q-5 -13 -9 -29t-4 -33v-304z" />
    <glyph glyph-name="i" unicode="i" horiz-adv-x="211" 
d="M63 -4q-13 0 -26.5 7t-24 18t-17.5 26t-7 30v207q0 13 12 13q13 0 13 -13v-207q0 -11 4.5 -21t12 -18t16.5 -13t17 -5q20 0 36 7.5t30.5 21.5t29 34t31.5 46l-2 -2q2 3 4.5 7.5t7.5 9.5q2 5 10 5q4 0 7 -3q1 -2 2.5 -4t1.5 -5q0 -4 -3 -7l-11 -23q-15 -23 -29 -43
t-31 -35t-37 -24t-47 -9zM1 431q-6 0 -13 6q-5 5 -5 13t5 13q7 6 13 6q7 0 13 -6t6 -13t-6 -13t-13 -6z" />
    <glyph glyph-name="j" unicode="j" horiz-adv-x="273" 
d="M-2 -376q-18 1 -33.5 11.5t-27 26t-18 33.5t-6.5 34q0 23 10.5 46.5t28.5 47t42.5 48t52.5 49.5l17 16l1 290q-13 -26 -29 -52.5t-32 -44.5l-3.5 -3.5t-5.5 -1.5q-2 0 -5 2q-5 2 -5.5 4t-0.5 6q0 1 0.5 3.5t2.5 4.5q13 17 27 39t25 44.5t18.5 41.5t7.5 30t13 11q5 0 9 -3
t4 -10l-3 -338l16 12q43 39 83.5 82t70.5 94v-1q3 7 12 7q3 0 5 -2q8 -3 8 -11q0 -4 -3 -7h1q-33 -55 -84 -105t-102 -97l-7 -5v-203q0 -16 -7 -33.5t-19 -32t-28 -24t-34 -9.5h-2zM-2 -351q12 0 23.5 7t21 17.5t15 24t5.5 25.5l1 180q-26 -24 -49.5 -46.5t-40.5 -44
t-27 -42.5t-10 -41q0 -14 5 -28t13.5 -25.5t19.5 -19t23 -7.5zM74 431q-5 0 -9 1.5t-5 6.5q-5 2 -5 11q0 7 6 13l-1 -2q1 5 5 6.5t9 1.5q7 0 13 -6t6 -13t-6 -13t-13 -6z" />
    <glyph glyph-name="k" unicode="k" horiz-adv-x="452" 
d="M137 146q-14 0 -24.5 1t-20.5 4v-142q0 -7 -4 -10t-9 -3q-12 0 -12 13v164v1v25v1v14l-8 -10h2q-7 -8 -17.5 -23.5t-25.5 -34.5q-3 -5 -5.5 -9t-5.5 -8q-5 -5 -10 -5q-3 0 -6 2q-5 2 -5.5 4t-0.5 6q0 1 0.5 3.5t2.5 4.5q5 8 10 14.5t10 14.5q10 12 21 29.5t28 43.5l10 15
v352q0 16 4.5 33.5t13.5 31.5t22 23.5t30 9.5q19 0 33.5 -13t24 -31.5t14.5 -40.5t5 -40q0 -87 -34.5 -169.5t-82.5 -157.5l-5 -8v-10q5 7 12.5 12.5t16.5 10.5q20 15 45.5 27.5t48.5 12.5q11 0 24 -4t23.5 -11.5t17.5 -17.5t7 -22v-5q-7 -33 -37.5 -56.5t-68.5 -34.5
q16 -17 28.5 -35t25.5 -35q17 -26 33.5 -44t38.5 -19q14 0 32.5 11t37.5 30q18 17 34.5 40t27.5 45q3 7 10 7q5 0 8 -3l-2 1q7 -4 7 -11v-4q-12 -22 -29.5 -46.5t-38 -45.5t-43 -34.5t-43.5 -13.5h-1q-32 1 -51 22.5t-39 50.5q-15 20 -31 41.5t-38 35.5h-1h-10zM92 300
q42 68 69.5 140.5t27.5 145.5q0 18 -4 36t-11 32.5t-16.5 23.5t-20.5 9q-19 0 -32 -23t-13 -51v-313zM135 246q-16 -13 -27.5 -25.5t-15.5 -20.5v-23q17 -7 39 -7h11q2 1 4.5 2t4.5 1h1q2 0 3 -2q18 3 36 10t33 17t25 22t12 26v3q0 11 -14.5 20.5t-31.5 9.5q-20 0 -40 -9.5
t-40 -23.5z" />
    <glyph glyph-name="l" unicode="l" horiz-adv-x="292" 
d="M144 -4q-23 0 -38 15.5t-23.5 37.5t-11.5 46t-3 42l1 80l-3 -4q-15 -24 -31 -45t-31 -39q-5 -5 -9 -5q-6 0 -9 5q-4 2 -4 8q0 4 3 7q14 15 34 44t43 68v-2l7 15l5 375q0 11 4.5 24t12 24.5t18.5 19t25 7.5q21 0 36.5 -15t25 -36.5t14 -45.5t4.5 -42q0 -30 -9 -68t-25 -79
t-36.5 -83t-42.5 -79l-7 -11v-130q0 -18 2.5 -37.5t8.5 -35.5t15.5 -26.5t23.5 -10.5q19 0 36 9t31.5 24.5t28 35.5t26.5 42l13 18l-1 -2q1 5 4.5 6t6.5 1t6 -1q7 -5 7 -12q0 -4 -3 -7q-3 -4 -5.5 -8t-5.5 -9h1q-13 -20 -27.5 -41.5t-32 -39t-39 -29t-46.5 -11.5zM95 313
l1 3v-2q19 35 35.5 71.5t29.5 71.5t20.5 66.5t7.5 56.5q0 18 -4 38t-11 37t-17 28t-23 11q-14 0 -25 -16.5t-11 -33.5z" />
    <glyph glyph-name="m" unicode="m" horiz-adv-x="744" 
d="M142 -4q-13 0 -13 13v235q0 11 -6 20t-14 9q-9 0 -44 -49q-11 -16 -21 -33.5t-20 -34.5q-4 -5 -7 -10.5t-8 -14.5q-4 -7 -11 -7q-3 0 -6 2q-4 1 -5.5 4.5t-1.5 6.5q0 4 3 7q3 5 8 13.5t12 19.5q8 14 17.5 29.5t21.5 32.5h-2q13 21 30 39.5t34 18.5q21 0 33 -18t12 -35
v-33q23 37 56.5 61.5t74.5 24.5q14 0 26 -8t21 -19.5t14 -25t5 -25.5v-25q12 17 25 32t25 27q18 20 38.5 35t37.5 15t30 -8.5t22 -21t14 -28t5 -28.5v-148l1 -8q6 -26 19.5 -33.5t28.5 -7.5q21 0 40.5 12t36.5 30t30.5 40t24.5 42q2 5 6 6t7 1h5q2 -2 4.5 -5t2.5 -6
q0 -4 -2 -6q-10 -20 -25.5 -44t-35 -45t-43 -35t-50.5 -14h-1q-12 0 -24 3t-22 10.5t-17 21t-10 33.5v153q0 22 -13.5 41t-33.5 19q-10 0 -25.5 -11t-33.5 -30q-30 -30 -54 -65l-13 -18v-144q0 -7 -4 -10t-9 -3q-13 0 -13 13v210q0 18 -12.5 36t-27.5 18q-33 0 -61.5 -23.5
t-55.5 -65.5l-14 -20v-155q0 -13 -12 -13z" />
    <glyph glyph-name="n" unicode="n" horiz-adv-x="544" 
d="M398 -4q-12 0 -24.5 4.5t-23 12.5t-17 20.5t-6.5 29.5v147q0 11 -3.5 23t-10 21.5t-15.5 15.5t-19 6q-17 0 -31.5 -8.5t-28 -21.5t-25.5 -29t-23 -31q-7 -9 -13 -18t-11 -15v-144q0 -13 -12 -13q-13 0 -13 13v150v1v107q-1 2 -2 2h-8q-6 0 -18 -12q-12 -14 -29 -37h2
l-13 -21q-3 -5 -3.5 -6l-0.5 -1q1 0 0 -1.5l-5 -7.5t-13 -18.5t-25 -35.5q-5 -5 -10 -5q-3 0 -6 2q-5 2 -5.5 4t-0.5 6q0 1 0.5 3.5t2.5 4.5q5 7 16 25t25 40l18 25q14 22 30.5 40.5t34.5 18.5q20 0 29 -10q5 -5 5.5 -10t0.5 -9v-71l8 13q12 18 25.5 35t28.5 30.5t32.5 21.5
t37.5 8q17 0 30.5 -9t22.5 -23t14 -30t5 -29v-147q0 -20 15 -31.5t32 -11.5q21 0 40 10.5t35.5 28t31 39t26.5 43.5q1 5 4.5 6.5t6.5 1.5h5q7 -9 7 -13v-5q-12 -23 -27.5 -46.5t-35 -43.5t-43 -32.5t-50.5 -12.5z" />
    <glyph glyph-name="o" unicode="o" horiz-adv-x="448" 
d="M342 74q-30 0 -54 7q-20 -39 -58 -63t-87 -24q-33 0 -61.5 11.5t-50 32t-34 47.5t-12.5 59t12.5 59.5t34 48t50 32.5t61.5 12t62 -12t50.5 -32.5t34 -48t12.5 -59.5q0 -21 -6 -40q12 -3 22.5 -4t21.5 -1q27 0 52.5 11t43.5 37q4 4 10 4q4 0 7 -2l-1 1q5 -2 5.5 -4.5
t0.5 -5.5q0 -1 -0.5 -4t-2.5 -5q-24 -31 -53 -44t-60 -13zM143 19q40 0 72 20t48 51q-21 10 -40.5 23.5t-34.5 28.5t-23.5 31.5t-8.5 32.5t5 31.5t19 26.5q-9 4 -18 5t-19 1q-28 0 -52.5 -10t-42.5 -27t-28.5 -40t-10.5 -49t10.5 -48.5t28.5 -39.5t42.5 -27t52.5 -10z
M278 144q0 35 -19.5 64.5t-50.5 45.5q-15 -8 -20.5 -21t-5.5 -27q0 -22 25 -49t66 -44q5 17 5 31z" />
    <glyph glyph-name="p" unicode="p" horiz-adv-x="519" 
d="M367 -3q-14 0 -27 7t-23 18t-16 24.5t-6 26.5v158q0 21 -15 39.5t-32 18.5q-22 0 -45.5 -23.5t-47.5 -58.5q-11 -16 -21 -33.5t-19.5 -34.5t-17 -31.5t-12.5 -24.5v-479q0 -13 -11 -13q-13 0 -13 13v609q-10 -25 -24.5 -46.5t-31.5 -39.5q-2 -1 -4.5 -2l-2.5 -1
q-4 0 -7 3q-5 2 -5.5 5t-0.5 5t0.5 5t5.5 5l-2 -1q29 28 45.5 70t26.5 93q2 5 5.5 6.5t7.5 1.5q11 0 11 -11v-169q10 18 22.5 39.5t27.5 44.5q12 17 25.5 34t27.5 30t29.5 21t30.5 8t28 -8t23 -20t16 -27t6 -28v-158q0 -9 4 -18t10.5 -16.5t15 -12.5t16.5 -5q21 0 39.5 12
t35.5 30q13 13 21.5 27.5t18.5 28.5q5 8 10.5 15t9.5 13l-1 -1q1 4 4.5 5.5t6.5 1.5q5 0 7 -3q2 -2 3.5 -4.5t1.5 -5.5v-3q5 6 4.5 5t-3.5 -6t-7.5 -11.5t-6.5 -10.5q-12 -18 -26.5 -38.5t-32 -38t-39 -29t-46.5 -11.5z" />
    <glyph glyph-name="q" unicode="q" horiz-adv-x="416" 
d="M99 -4q-22 0 -42.5 8.5t-36.5 24.5t-25.5 39.5t-9.5 54.5q0 50 30.5 85t75 56.5t95.5 31.5t92 10q10 0 11 -10v-3v-4v-149v-1v-105q32 10 60.5 36t52.5 76q2 2 5 4.5t6 2.5q5 0 7 -3q2 -1 4 -2.5t2 -6.5q0 -4 -1 -5q-27 -57 -61 -86.5t-75 -40.5v-399q0 -13 -11 -13
q-13 0 -13 13v484q-35 -51 -74.5 -74.5t-91.5 -23.5zM99 21q52 0 90.5 27t75.5 92v141q-40 -2 -85 -11.5t-83 -28.5t-63 -48.5t-25 -69.5q0 -25 7.5 -44t20 -32t28 -19.5t31.5 -6.5h3z" />
    <glyph glyph-name="r" unicode="r" horiz-adv-x="358" 
d="M205 -3q-14 0 -29.5 6.5t-28 18t-21 26t-8.5 29.5q0 30 6 55t14 47q4 13 7.5 24.5t4.5 19.5l2 13l-2 1q0 2 -11 7q-5 5 -12 9.5t-12 6.5t-8 4.5t-8 4.5h-3v-2q-14 -35 -37.5 -72t-52.5 -66q-5 -5 -8 -5q-7 0 -9 5q-4 1 -4 8q0 5 4 9q27 26 49 61t35 69l2 7l-16 13
q-21 16 -21 37q0 14 9.5 27.5t25.5 15.5h3q12 0 25.5 -9t13.5 -27q0 -21 -9 -46l-1 -1l7 -4l6 -4t7 -4l-2 2q7 -3 13 -6.5t12 -6.5q1 -1 3 -2.5t4 -3.5q6 -4 13 -10t8 -14v-3q0 -14 -4 -28.5t-9 -31.5q-6 -21 -13 -46.5t-7 -53.5q0 -10 6 -20t15 -18t20 -13t21 -5
q22 0 41 11.5t36 29.5t32 39.5t29 42.5v-1q2 7 12 7q3 0 5 -1q8 -5 8 -12q0 -1 -1 -3.5t-1 -3.5q-14 -20 -30 -43.5t-35.5 -43.5t-43 -33t-52.5 -13zM62 333q0 -12 13 -19l8 -7l2 6q3 8 4 15t1 12t-5 8t-10 3q-5 -2 -9 -7.5t-4 -10.5z" />
    <glyph glyph-name="s" unicode="s" horiz-adv-x="351" 
d="M135 -3q-9 0 -21 3t-22.5 9.5t-17.5 15.5t-7 21q0 23 11.5 34.5t29.5 16.5q13 3 29.5 3.5t36.5 0.5h15l23 2l5 10q1 5 1 8v9q0 17 -24.5 34.5t-66.5 42.5h1q-14 7 -26 14.5t-25 17.5l-3 -6q-8 -12 -16.5 -24.5t-16.5 -24.5q-17 -24 -32 -51q-7 -7 -12 -7h-5
q-4 1 -5.5 4.5t-1.5 6.5q0 4 3 7l-1 -1q9 15 14.5 24t9.5 15.5t7.5 12.5t8.5 14t11 17.5t11 17.5l8 12q-15 13 -25 27.5t-10 36.5q0 13 10.5 28.5t26.5 17.5h3q15 0 31 -10.5t18 -29.5q0 -14 -6 -31.5t-17 -35.5q5 -4 17 -11.5t20 -11.5q3 -2 7 -4.5t7 -4.5l-1 2l11 -6
q16 -9 33 -19t30.5 -21.5t22.5 -24.5t9 -28q0 -7 -1 -12.5t-2 -10.5l-2 -4q30 0 55.5 8.5t39.5 29.5q7 9 14 9q4 0 7 -3l-1 2q7 -5 7 -12q0 -1 -1 -2.5t-1 -3.5q-21 -32 -55 -42t-70 -12h-3l-7 -13q-13 -29 -38 -48t-51 -19zM135 21q18 0 36.5 15t29.5 38l1 3h-28
q-17 0 -32 -0.5t-27 -3.5q-24 -6 -24 -27q0 -10 14.5 -17.5t29.5 -7.5zM48 320q0 -10 3 -19.5t11 -17.5l6 -6l3 3v-1q6 13 10 23.5t4 18.5v5q0 5 -6 9.5t-12 4.5h-5q-5 -1 -9.5 -7t-4.5 -13zM87 260q-2 0 0 -1v1z" />
    <glyph glyph-name="t" unicode="t" horiz-adv-x="286" 
d="M-7 353q-13 0 -13 11q0 5 4 9t9 4h71v197q0 5 4 9t9 4t8.5 -4t3.5 -9v-197h90q4 0 8 -4t4 -9t-4 -8t-8 -3h-90v-283q0 -23 18.5 -36t38.5 -13q40 0 67 33t58 89q2 5 5.5 6t6.5 1q4 0 7 -3l-1 2q7 -5 7 -10q0 -2 -1 -4t-1 -4q-16 -27 -31 -51.5t-32.5 -42.5t-37.5 -29
t-47 -11q-13 0 -27.5 4.5t-26.5 13.5t-20 22.5t-8 32.5v133q-26 -39 -55 -73q-4 -4 -9 -4q-1 0 -4 0.5t-5 2.5q-4 2 -4 10q0 4 3 7q20 23 39 48.5t35 56.5v102h-71v0z" />
    <glyph glyph-name="u" unicode="u" horiz-adv-x="463" 
d="M323 -3q-12 0 -26 5.5t-26.5 15t-20.5 22.5t-8 27v52q-8 -12 -19 -25.5t-22 -24.5q-29 -29 -62 -50.5t-64 -21.5q-15 0 -30 6.5t-28 18.5t-21 29t-8 38v207q0 4 3 8.5t8 4.5t9 -4.5t4 -8.5v-207q0 -15 6 -27.5t15.5 -21.5t20.5 -14t21 -5q23 0 52.5 19.5t55.5 45.5
q14 14 25 27.5t20 26.5h-2q14 22 16 31v3v2v118q0 13 13 13q11 0 11 -13v-120v-4v-103q0 -9 5.5 -17t14 -14.5t18.5 -10.5t19 -4q21 0 38 11t32 28q9 11 22 31t27 43q2 4 4.5 6t4.5 6q1 1 3.5 2.5t6.5 1.5q2 0 5 -1q7 -4 7 -12q0 -4 -2 -7h1q-3 -5 -6.5 -10t-6.5 -10
q-10 -15 -21 -31t-27 -36q-17 -20 -38 -33t-50 -13z" />
    <glyph glyph-name="v" unicode="v" horiz-adv-x="553" 
d="M256 -3q-54 0 -89 39.5t-37 102.5q0 8 -0.5 17.5t-0.5 17.5v27t-1 25q-4 34 -18 34q-10 0 -44 -46q-3 -4 -6 -9.5t-7 -10.5q-11 -17 -22.5 -33t-22.5 -30q-2 -4 -4.5 -4.5t-5.5 -0.5q-2 0 -4.5 0.5t-4.5 2.5q-4 1 -4 8q0 5 4 9q11 11 20 25.5t20 29.5l-1 -1q4 8 9.5 15
t10.5 14q14 20 30 37.5t32 17.5q22 0 31 -18.5t11 -38.5t2.5 -43.5t0.5 -43.5q2 -54 31 -86.5t70 -32.5q39 0 64 23t39 55l3 7l-3 1q-29 20 -48 50t-19 59q0 10 3.5 22.5t10.5 24t17 19t22 7.5q16 0 27.5 -10.5t18.5 -25.5t10.5 -32.5t3.5 -31.5v-13q-2 -14 -5 -28.5
t-7 -27.5l-1 -3l8 -4q22 -13 52 -13q38 0 57.5 14.5t32.5 34.5q1 1 4 2.5t6 1.5q4 0 7 -3l-1 1q5 -2 5 -10q0 -1 -0.5 -3.5t-2.5 -4.5q-15 -23 -38.5 -40t-69.5 -17q-17 0 -34 3.5t-32 11.5l-3 2l-1 -3q-15 -38 -46.5 -65.5t-79.5 -27.5zM316 216q0 -23 15.5 -47t38.5 -40
q5 13 6.5 25.5t2.5 26.5v13q0 25 -9 47.5t-25 22.5q-11 0 -20 -16t-9 -32z" />
    <glyph glyph-name="w" unicode="w" horiz-adv-x="793" 
d="M252 -3q-28 0 -51 14.5t-39.5 38t-26 53t-9.5 60.5v38v13q0 7 -1 13q-2 15 -3.5 20.5t-3.5 5.5q-8 0 -20.5 -11.5t-28.5 -31.5q-5 -5 -9 -11.5t-10 -12.5q-11 -15 -22 -29.5t-20 -25.5q-2 -4 -4.5 -4.5t-5.5 -0.5q-2 0 -4.5 0.5t-4.5 2.5q-4 1 -4 8q0 5 4 9q16 19 36 45
l25 35q17 18 34 34.5t34 16.5t23.5 -15.5t8.5 -32.5t2 -35v-31q0 -27 7.5 -53t21 -45.5t32 -31.5t39.5 -12q27 0 45.5 18t31 47t20 66t11.5 75q0 12 13 12q11 0 13 -10q1 -41 8.5 -78.5t21.5 -66t34.5 -46t47.5 -17.5q31 0 56.5 21.5t40.5 53.5l5 10l-2 4q-30 20 -48 52
t-18 65q0 10 4 22.5t11 23.5t17 19t21 8q16 0 28.5 -10t20 -24.5t11.5 -32t4 -32.5q0 -19 -4 -40t-12 -42l-1 -3l4 -2q28 -18 60 -18t52 13.5t31 33.5q1 5 4.5 6t6.5 1t6 -1q7 -5 7 -10t-1 -6q-14 -27 -41 -44.5t-65 -17.5q-20 0 -37.5 4.5t-33.5 15.5l-3 2l-4 -9
q-19 -38 -50.5 -62.5t-69.5 -24.5q-26 0 -47 11t-37 30t-26.5 44.5t-15.5 54.5q-3 -17 -9 -32t-11 -29q-17 -34 -39.5 -56.5t-60.5 -22.5zM558 227q0 -27 14 -53t37 -41l1 -3q7 18 10 36.5t3 34.5q0 27 -10.5 50t-27.5 23q-9 0 -18 -15t-9 -32z" />
    <glyph glyph-name="x" unicode="x" horiz-adv-x="580" 
d="M158 -3q-12 0 -25.5 5t-25 14t-18.5 21t-7 26q0 30 18.5 47.5t47.5 28.5q19 8 44 12t51 8l13 1v7q-3 21 -11.5 42t-21.5 37.5t-28.5 27t-31.5 10.5q-20 0 -40 -14t-40 -37q-15 -17 -29 -36.5t-28 -39.5q-5 -6 -9.5 -13t-8.5 -14q-4 -4 -10 -4q-3 0 -6 1q-7 2 -7 12
q0 1 0.5 2.5t0.5 2.5q7 9 14.5 19t14.5 20q11 17 24 34.5t27 32.5q20 23 44 41t53 18q17 0 33.5 -8.5t30.5 -22t25 -31t17 -36.5v-1q12 38 40.5 66t70.5 28q12 0 28.5 -2.5t31 -9t25 -17.5t10.5 -29q0 -32 -19 -50.5t-47 -29.5q-23 -10 -51.5 -15t-59.5 -10h1q-5 -1 -9 -1
q-3 0 -8 -1v-6q1 -20 12.5 -40t29 -36t38.5 -26t41 -10q27 0 50 11t43 29t38 40t35 45q1 1 4 2.5t6 1.5q4 0 7 -3l-1 2q4 -2 4.5 -4.5t0.5 -5.5v-5q0 -2 -2 -4q-17 -21 -36 -44.5t-41.5 -43t-49 -32.5t-58.5 -13q-20 0 -40.5 7.5t-38.5 20t-32.5 29.5t-22.5 36
q-6 -18 -17.5 -35t-25.5 -30t-31 -20.5t-35 -7.5h-2zM283 164l30 5q30 4 55 9.5t43 14.5t28.5 22t10.5 31t-23 26t-47 8q-20 0 -36.5 -10t-29 -26t-20.5 -36.5t-11 -40.5v-3zM158 21q17 0 33.5 10t30 26t23 36.5t11.5 40.5v2l-13 -2q-29 -4 -54 -9t-43.5 -13t-29 -20
t-10.5 -29q0 -8 5 -15.5t12.5 -13.5t16.5 -9.5t18 -3.5z" />
    <glyph glyph-name="y" unicode="y" horiz-adv-x="472" 
d="M198 -370q-18 0 -33 9t-26 22.5t-17 29.5t-6 30q0 32 10 60t27.5 53.5t41.5 49t51 46.5l12 10v157q-32 -43 -72.5 -71.5t-93.5 -28.5q-18 0 -36.5 8.5t-34.5 23.5t-26 36t-10 46v183q0 13 13 13q4 0 8 -3t4 -10v-183q0 -20 7.5 -36.5t19.5 -28.5t26.5 -18.5t28.5 -6.5
q51 0 90 33.5t73 86.5l3 3v156q0 5 3 9t8 4t9 -4t4 -9v-160v-1v-178l18 16q42 37 83 77.5t75 94.5v-2q1 5 4.5 6t6.5 1q4 0 7 -3l-1 2q7 -5 7 -12q0 -1 -1 -3t-1 -4q-38 -59 -88 -106t-100 -89l-10 -10v-202q0 -15 -7 -32.5t-18.5 -31.5t-26.5 -23.5t-32 -9.5zM198 -346
q11 0 22 7t19.5 17.5t13.5 23.5t5 25v182l-18 -18q-44 -38 -71 -79t-27 -91q0 -11 4.5 -23t12.5 -22t18 -16t21 -6z" />
    <glyph glyph-name="z" unicode="z" horiz-adv-x="388" 
d="M137 -400q-16 0 -28 10.5t-19.5 25.5t-11 31.5t-3.5 29.5q0 63 32.5 120.5t81.5 112.5l46 51l-3 5q-11 26 -32.5 43t-44.5 18q-8 0 -17 -2t-17 -4q-10 -2 -21 -3.5t-28 -3.5q-11 0 -11 12q0 6 4 10q18 14 38 38.5t38 51.5t33.5 54t24.5 47l2 4l-4 2q-7 1 -15 1h-17
q-17 0 -36.5 1t-36.5 6l-5 -12q-8 -15 -19 -31.5t-24 -33.5q-9 -11 -18.5 -23t-17.5 -28q-5 -7 -13 -7h-4q-6 6 -6 13v4q8 15 19 30t23 30l18 26t17 28l6 12l-3 1q-37 14 -37 56q0 17 13.5 34t33.5 17q10 0 16.5 -5.5t10.5 -13.5t5.5 -16.5t1.5 -14.5q0 -12 -1 -21.5
t-4 -19.5l-2 -2h3q17 -2 34.5 -3t34.5 -2q30 0 48 -5h-1q11 0 11 -10q0 -4 -1 -5q-5 -14 -17 -37.5t-28.5 -51.5t-36 -56t-40.5 -50l5 2q10 2 19.5 3.5t21.5 1.5q26 0 49.5 -14.5t37.5 -37.5h-1l11 -19l36 39q25 26 47 53.5t42 54.5l-2 -1q3 7 12 7q4 0 7 -3q1 -2 2.5 -4.5
t1.5 -5.5q0 -4 -3 -7q-20 -28 -42 -55.5t-46 -54.5l-43 -46l4 -8q5 -12 7 -24.5t2 -25.5q0 -45 -12 -99t-30 -101q-9 -24 -20 -45.5t-23.5 -38t-26.5 -26t-28 -9.5zM137 -376q17 0 36.5 27.5t38.5 75.5q17 47 28.5 98.5t11.5 93.5q0 8 -2 17.5t-5 19.5l-36 -40
q-46 -52 -77 -106.5t-31 -112.5q0 -12 2.5 -24.5t7 -23.5t11.5 -18t15 -7zM52 326q0 -13 7 -21t19 -14q5 9 6 18.5t1 17.5q0 10 -3.5 18t-6.5 8q-8 0 -15.5 -8.5t-7.5 -18.5z" />
    <glyph glyph-name="braceleft" unicode="{" horiz-adv-x="344" 
d="M294 -127v-15q-73 10 -119 60t-46 110q0 31 10 73.5t10 65.5q0 31 -26.5 59t-73.5 33v19q47 6 73.5 33t26.5 59q0 24 -10 66t-10 74q0 60 46 109.5t119 59.5v-15q-91 -32 -112 -102q-18 -62 2 -141q20 -127 -99 -152q123 -45 99 -152q-23 -79 -2 -141q23 -66 112 -103z
" />
    <glyph glyph-name="braceright" unicode="}" horiz-adv-x="344" 
d="M50 -127q89 37 112 103q20 62 -2 141q-24 107 98 151q-118 25 -98 152q19 79 2 141q-21 70 -112 102v15q73 -10 118.5 -59.5t45.5 -109.5q0 -32 -10 -74t-10 -66q0 -32 26.5 -59t73.5 -33v-18q-47 -5 -73.5 -33t-26.5 -59q0 -23 10 -65.5t10 -73.5q0 -60 -45.5 -110
t-118.5 -60v15v0z" />
    <glyph glyph-name="exclamdown" unicode="&#xa1;" horiz-adv-x="243" 
d="M110 9q-2 -8 -7.5 -10.5t-10.5 -1t-8.5 6.5t-1.5 13q17 59 26 120t12.5 122.5t2.5 123t-4 122.5q0 8 4.5 12t10 4.5t10.5 -3t5 -11.5q2 -62 3.5 -125t-2 -126t-12.5 -125t-28 -122zM167 630q0 -14 -9.5 -23t-23.5 -9t-23.5 9t-9.5 23t9.5 22.5t23.5 8.5t23.5 -8.5
t9.5 -22.5z" />
    <glyph glyph-name="cent" unicode="&#xa2;" horiz-adv-x="357" 
d="M148 380q0 6 3.5 9.5t7.5 3.5q5 0 9 -3.5t4 -9.5v-79q16 -1 30.5 -4t26.5 -10q3 -2 5 -3.5t2 -6.5q0 -4 -1 -6q-5 -7 -12 -7h-4q-11 5 -23 8.5t-24 4.5v-257q27 1 52.5 11t47.5 26t40 37.5t31 46.5q2 5 6 6.5t7 1.5h5q7 -5 7 -12q0 -4 -2 -6q-14 -27 -34 -51.5t-45 -42.5
t-54.5 -29t-60.5 -12v-80q0 -6 -4 -9.5t-9 -3.5q-4 0 -7.5 3.5t-3.5 9.5v81q-28 3 -56 15.5t-51 31.5t-37.5 44t-14.5 53v6q2 35 16.5 62t36.5 46.5t49.5 30.5t56.5 14v80zM13 143q0 -22 12 -42.5t31.5 -37t43.5 -28t48 -14.5v255q-24 -3 -47.5 -12.5t-42 -26t-31 -39.5
t-14.5 -52v-3z" />
    <glyph glyph-name="sterling" unicode="&#xa3;" horiz-adv-x="655" 
d="M116 348q-6 0 -9.5 3.5t-3.5 7.5q0 5 3.5 9t9.5 4h78q-4 24 -6.5 49t-2.5 52v1q0 36 18.5 72t48.5 64t66.5 45.5t72.5 17.5h2q24 0 53 -8.5t54.5 -23t43 -34t17.5 -41.5v-3q0 -5 -4.5 -8.5t-8.5 -3.5q-12 0 -12 12v3q0 15 -14.5 30t-36.5 26.5t-47 19t-47 7.5
q-32 0 -64.5 -15.5t-58.5 -41t-42.5 -57t-16.5 -62.5q0 -26 3 -50.5t7 -50.5h92q6 0 9.5 -4t3.5 -9q0 -4 -3.5 -7.5t-9.5 -3.5h-88l3 -15q1 -7 2 -13t3 -12h106q6 0 9.5 -4t3.5 -9q0 -4 -3.5 -7.5t-9.5 -3.5h-102q5 -26 7.5 -50.5t2.5 -50.5v-10q0 -2 -1 -5t-1 -5
q0 -5 -0.5 -10t-1.5 -10l-6 -20l8 -4q19 -8 36 -17l34 -18q44 -23 85 -41.5t83 -18.5q51 2 92 34t69 86q1 5 4.5 6t6.5 1q4 0 6 -1q3 -2 5 -3.5t2 -6.5q0 -4 -1 -6q-32 -58 -78 -96t-106 -38q-49 0 -92.5 19.5t-87.5 43.5q-15 8 -31 15.5t-32 15.5l-13 6l-7 -14
q-19 -37 -53.5 -62t-72.5 -27h-1q-15 0 -30 6.5t-27 18t-20 26t-8 29.5v2q0 15 8 29.5t20 26.5t27.5 19.5t30.5 8.5q56 0 103 -22l17 -8l4 16v-2q3 13 3 26v10q0 25 -2.5 50t-7.5 51h-89q-6 0 -9.5 3.5t-3.5 7.5q0 5 3.5 9t9.5 4h86q-1 5 -2 9.5t-2 9.5q-2 5 -2.5 10.5
t-1.5 10.5h-82zM92 21q30 2 59 22.5t44 52.5l7 14l-11 7q-24 11 -49 15.5t-49 4.5q-11 0 -22 -5.5t-20 -14t-14.5 -19t-5.5 -21.5q0 -10 5.5 -20t14 -18t19 -13t21.5 -5h1z" />
    <glyph glyph-name="yen" unicode="&#xa5;" horiz-adv-x="407" 
d="M238 306q-1 -1 -1 -2v0v-101h63q6 0 9.5 -3.5t3.5 -8.5t-3.5 -8.5t-9.5 -3.5h-63v-29h63q6 0 9.5 -3.5t3.5 -8.5t-3.5 -8.5t-9.5 -3.5h-63v-114q0 -7 -3.5 -10t-8.5 -3t-8.5 3t-3.5 10v114h-57q-7 0 -10 3.5t-3 8.5t3 8.5t10 3.5h57v29h-57q-7 0 -10 3.5t-3 8.5t3 8.5
t10 3.5h57v106l-195 317q-2 2 -2 7q0 11 11 11q6 0 11 -6l186 -303l140 304q3 7 11 7q5 0 8.5 -3t3.5 -8q0 -4 -1 -6l-148 -323v0z" />
    <glyph glyph-name="section" unicode="&#xa7;" horiz-adv-x="500" 
d="M136 748q0 14 9.5 23t23.5 9t23.5 -9t9.5 -23t-9.5 -22.5t-23.5 -8.5t-23.5 8.5t-9.5 22.5zM251 746q0 14 9.5 23t23.5 9t23.5 -9t9.5 -23t-9.5 -22.5t-23.5 -8.5t-23.5 8.5t-9.5 22.5z" />
    <glyph glyph-name="dieresis" unicode="&#xa8;" horiz-adv-x="500" 
d="M136 741q0 11 7.5 18t18.5 7t18.5 -7t7.5 -18t-7.5 -17.5t-18.5 -6.5t-18.5 6.5t-7.5 17.5zM239 739q0 11 7.5 18t18.5 7t18.5 -7t7.5 -18t-7.5 -17.5t-18.5 -6.5t-18.5 6.5t-7.5 17.5z" />
    <glyph glyph-name="guillemotleft" unicode="&#xab;" horiz-adv-x="392" 
d="M187 301q-4 6 -4 9v2q0 5 3 7l138 136q7 6 17 6q7 -1 12 -5t5 -9t-3 -7l-132 -130l142 -122q4 -5 4 -10t-5.5 -8t-12.5 -3t-14 6zM23 308q-5 5 -5 9v2q0 5 3 7l153 135q9 6 17 5q7 0 12 -4t5 -9t-3 -7l-147 -130l157 -130q4 -4 4 -9t-6 -8.5t-13 -2.5q-6 0 -13 5z" />
    <glyph glyph-name="acute" unicode="&#xb4;" horiz-adv-x="550" 
d="M282 758q4 6 11 6q5 0 9.5 -4t4.5 -10q0 -4 -3 -7q-18 -23 -43 -39t-54 -16h-8q-14 0 -14 13q0 5 3 9t11 4h9q23 0 41.5 12t32.5 32z" />
    <glyph glyph-name="mu" unicode="&#xb5;" horiz-adv-x="460" 
d="M-15 296q0 4 3 8.5t8 4.5t9 -4.5t4 -8.5v-207q0 -15 6 -27.5t15.5 -21.5t20.5 -14t21 -5q23 0 52.5 19.5t55.5 45.5q14 14 25 27.5t20 26.5h-2q14 22 16 31v123q0 13 13 13q11 0 11 -13v-227q0 -9 5.5 -17t14 -14.5t18.5 -10.5t19 -4q21 0 38 11t32 28q9 11 22 31t27 43
q2 4 4.5 6t4.5 6q1 1 3.5 2.5t6.5 1.5q2 0 5 -1q7 -4 7 -12q0 -4 -2 -7h1q-3 -5 -6.5 -10t-6.5 -10q-10 -15 -21 -31t-27 -36q-17 -20 -38 -33t-50 -13q-12 0 -26 5.5t-26.5 15t-20.5 22.5t-8 27v52q-8 -12 -19 -25.5t-22 -24.5q-29 -29 -62 -50.5t-64 -21.5q-17 0 -34 8.5
t-30 23.5v-396q0 -6 -4 -9.5t-8 -3.5q-5 0 -8.5 3.5t-3.5 9.5z" />
    <glyph glyph-name="cedilla" unicode="&#xb8;" horiz-adv-x="550" 
d="M243 1q2 6 5.5 8t7.5 2q13 0 13 -13v-27q7 0 14.5 -5.5t14 -13t10.5 -16t4 -16.5q0 -21 -18.5 -34t-40.5 -13q-6 0 -14.5 2t-16 6t-12.5 10t-5 14q0 6 4 10.5t9 4.5q6 0 11 -7l4 -7l-2 3q5 -5 10 -6.5t11 -1.5q10 0 21 2.5t11 15.5q0 9 -7 17t-17 8q-5 0 -7 -1h-2
q-12 0 -12 13l4 45v0z" />
    <glyph glyph-name="guillemotright" unicode="&#xbb;" horiz-adv-x="392" 
d="M199 301l-150 -128q-8 -6 -14 -6q-7 0 -12.5 3t-5.5 8t4 10l142 122l-132 130q-3 2 -3 7t5 9t12 5q9 0 17 -6l138 -136q3 -2 3 -7v-2q0 -3 -4 -9zM363 308l-164 -137q-7 -5 -13 -5q-7 -1 -13 2.5t-6 8.5t4 9l157 130l-147 130q-3 2 -3 7t5 9t12 4q8 1 17 -5l153 -135
q3 -2 3 -7v-2q0 -4 -5 -9z" />
    <glyph glyph-name="questiondown" unicode="&#xbf;" horiz-adv-x="446" 
d="M314 642q0 -21 -21 -21q-22 0 -22 21q0 22 22 22q21 0 21 -22zM338 228q66 0 66 -62q0 -75 -66 -123q-61 -44 -134 -44q-79 0 -128 47q-49 46 -49 126q0 85 72 123l54 18q20 7 39.5 13t39.5 13q66 25 66 85v8q-2 19 -3 30.5t-1 16.5v3q0 16 16 16t16 -16q0 -6 1 -15
t2 -19q1 -9 1.5 -17t0.5 -13q0 -21 -7 -38q-21 -50 -90 -74q-29 -10 -58 -19l-58 -18q-59 -30 -59 -97q0 -65 39.5 -103t105.5 -38q65 0 114 37q54 40 54 98q0 30 -34 30q-4 0 -9 -0.5t-10 -1.5q-2 0 -3 -0.5t-3 -0.5q-13 0 -13 17q0 14 13.5 16t24.5 2z" />
    <glyph glyph-name="Agrave" unicode="&#xc0;" horiz-adv-x="797" 
d="M653 -4q-14 0 -29 7t-27.5 18t-20.5 26t-8 30v206q-26 -68 -68 -120.5t-90 -89t-96.5 -56t-85.5 -20.5h-10q-46 0 -85 17.5t-67 46.5t-44 65t-16 74q0 51 15.5 104.5t45.5 105t72.5 97t97.5 79.5t120.5 54t140.5 20q20 0 40.5 -1t42.5 -5q8 -1 10 -6t2 -9v-560
q0 -12 6.5 -23t16.5 -18.5t22 -12t24 -4.5q3 0 7 1t9 2q14 5 28.5 16.5t28 27.5t25.5 35t22 38q1 5 4 6.5t6 1.5q5 0 9 -4.5t4 -8.5v-5q-14 -25 -30 -49.5t-34.5 -43.5t-39.5 -30.5t-43 -11.5h-5zM566 373v4v28q0 25 0.5 77.5t1.5 148.5q-19 2 -35.5 3.5t-33.5 1.5
q-72 0 -134.5 -19t-114.5 -52t-92.5 -76.5t-69 -92t-43 -100t-14.5 -99.5q0 -32 14.5 -63.5t39.5 -56.5t59.5 -40.5t74.5 -15.5h7q39 2 91.5 26t103 68.5t90.5 109.5t55 148zM447 734q-8 4 -8 12q0 6 4.5 10t10.5 4q2 0 6 -2l88 -47q8 -5 8 -12q0 -6 -4.5 -10.5t-10.5 -4.5
q-3 0 -6 3z" />
    <glyph glyph-name="Aacute" unicode="&#xc1;" horiz-adv-x="797" 
d="M653 -4q-14 0 -29 7t-27.5 18t-20.5 26t-8 30v206q-26 -68 -68 -120.5t-90 -89t-96.5 -56t-85.5 -20.5h-10q-46 0 -85 17.5t-67 46.5t-44 65t-16 74q0 51 15.5 104.5t45.5 105t72.5 97t97.5 79.5t120.5 54t140.5 20q20 0 40.5 -1t42.5 -5q8 -1 10 -6t2 -9v-560
q0 -12 6.5 -23t16.5 -18.5t22 -12t24 -4.5q3 0 7 1t9 2q14 5 28.5 16.5t28 27.5t25.5 35t22 38q1 5 4 6.5t6 1.5q5 0 9 -4.5t4 -8.5v-5q-14 -25 -30 -49.5t-34.5 -43.5t-39.5 -30.5t-43 -11.5h-5zM566 373v4v28q0 25 0.5 77.5t1.5 148.5q-19 2 -35.5 3.5t-33.5 1.5
q-72 0 -134.5 -19t-114.5 -52t-92.5 -76.5t-69 -92t-43 -100t-14.5 -99.5q0 -32 14.5 -63.5t39.5 -56.5t59.5 -40.5t74.5 -15.5h7q39 2 91.5 26t103 68.5t90.5 109.5t55 148zM534 758q4 6 11 6q5 0 9.5 -4t4.5 -10q0 -4 -3 -7q-18 -23 -43 -39t-54 -16h-8q-14 0 -14 13
q0 5 3 9t11 4h9q23 0 41.5 12t32.5 32z" />
    <glyph glyph-name="Acircumflex" unicode="&#xc2;" horiz-adv-x="797" 
d="M653 -4q-14 0 -29 7t-27.5 18t-20.5 26t-8 30v206q-26 -68 -68 -120.5t-90 -89t-96.5 -56t-85.5 -20.5h-10q-46 0 -85 17.5t-67 46.5t-44 65t-16 74q0 51 15.5 104.5t45.5 105t72.5 97t97.5 79.5t120.5 54t140.5 20q20 0 40.5 -1t42.5 -5q8 -1 10 -6t2 -9v-560
q0 -12 6.5 -23t16.5 -18.5t22 -12t24 -4.5q3 0 7 1t9 2q14 5 28.5 16.5t28 27.5t25.5 35t22 38q1 5 4 6.5t6 1.5q5 0 9 -4.5t4 -8.5v-5q-14 -25 -30 -49.5t-34.5 -43.5t-39.5 -30.5t-43 -11.5h-5zM566 373v4v28q0 25 0.5 77.5t1.5 148.5q-19 2 -35.5 3.5t-33.5 1.5
q-72 0 -134.5 -19t-114.5 -52t-92.5 -76.5t-69 -92t-43 -100t-14.5 -99.5q0 -32 14.5 -63.5t39.5 -56.5t59.5 -40.5t74.5 -15.5h7q39 2 91.5 26t103 68.5t90.5 109.5t55 148zM435 688q-3 -3 -8 -3q-12 0 -12 13q0 6 6 12l70 44q2 2 8 2h1q1 0 2 0.5t3 0.5q5 0 8 -3l65 -48
q5 -4 5 -11q0 -5 -3.5 -9.5t-9.5 -4.5q-5 0 -8 3l-61 45z" />
    <glyph glyph-name="Atilde" unicode="&#xc3;" horiz-adv-x="797" 
d="M653 -4q-14 0 -29 7t-27.5 18t-20.5 26t-8 30v206q-26 -68 -68 -120.5t-90 -89t-96.5 -56t-85.5 -20.5h-10q-46 0 -85 17.5t-67 46.5t-44 65t-16 74q0 51 15.5 104.5t45.5 105t72.5 97t97.5 79.5t120.5 54t140.5 20q20 0 40.5 -1t42.5 -5q8 -1 10 -6t2 -9v-560
q0 -12 6.5 -23t16.5 -18.5t22 -12t24 -4.5q3 0 7 1t9 2q14 5 28.5 16.5t28 27.5t25.5 35t22 38q1 5 4 6.5t6 1.5q5 0 9 -4.5t4 -8.5v-5q-14 -25 -30 -49.5t-34.5 -43.5t-39.5 -30.5t-43 -11.5h-5zM566 373v4v28q0 25 0.5 77.5t1.5 148.5q-19 2 -35.5 3.5t-33.5 1.5
q-72 0 -134.5 -19t-114.5 -52t-92.5 -76.5t-69 -92t-43 -100t-14.5 -99.5q0 -32 14.5 -63.5t39.5 -56.5t59.5 -40.5t74.5 -15.5h7q39 2 91.5 26t103 68.5t90.5 109.5t55 148zM424 691q0 -8 -4 -11t-9 -3q-8 0 -12 8.5t-4 19.5q0 24 18 37t41 13q17 0 32.5 -8.5t23.5 -25.5
q3 -11 11 -15t17 -4q14 0 26 8.5t12 22.5q0 2 -1 4.5t-2 5.5v1q0 7 4.5 10.5t9.5 3.5q9 0 12 -9t3 -18q0 -25 -20.5 -40t-44.5 -15q-14 0 -26.5 5.5t-20.5 19.5q-2 13 -13 20t-23 7q-11 0 -20.5 -5.5t-11.5 -17.5q2 -4 2 -8v-6z" />
    <glyph glyph-name="Adieresis" unicode="&#xc4;" horiz-adv-x="797" 
d="M658 -4q22 0 43 11.5t39.5 30.5t34.5 43.5t30 49.5v5q0 4 -4 8.5t-9 4.5q-3 0 -6 -1.5t-4 -6.5q-10 -19 -22 -38t-25.5 -35t-28 -27.5t-28.5 -16.5q-5 -1 -9 -2t-7 -1q-12 0 -24 4.5t-22 12t-16.5 18.5t-6.5 23v560q0 4 -2 9t-10 6q-22 4 -42.5 5t-40.5 1
q-75 0 -140.5 -20t-120.5 -54t-97.5 -79.5t-72.5 -97t-45.5 -105t-15.5 -104.5q0 -38 16 -74t44 -65t67 -46.5t85 -17.5h10q37 1 85.5 20.5t96.5 56t90 89t68 120.5v-206q0 -15 8 -30t20.5 -26t27.5 -18t29 -7h5zM566 373q-15 -83 -55 -148t-90.5 -109.5t-103 -68.5
t-91.5 -26h-7q-40 0 -74.5 15.5t-59.5 40.5t-39.5 56.5t-14.5 63.5q0 48 14.5 99.5t43 100t69 92t92.5 76.5t114.5 52t134.5 19q17 0 33.5 -1.5t35.5 -3.5q-1 -96 -1.5 -148.5t-0.5 -77.5v-28v-4zM421 741q0 11 7.5 18t18.5 7t18.5 -7t7.5 -18t-7.5 -17.5t-18.5 -6.5
t-18.5 6.5t-7.5 17.5zM524 739q0 11 7.5 18t18.5 7t18.5 -7t7.5 -18t-7.5 -17.5t-18.5 -6.5t-18.5 6.5t-7.5 17.5z" />
    <glyph glyph-name="Aring" unicode="&#xc5;" horiz-adv-x="797" 
d="M653 -4q-14 0 -29 7t-27.5 18t-20.5 26t-8 30v206q-26 -68 -68 -120.5t-90 -89t-96.5 -56t-85.5 -20.5h-10q-46 0 -85 17.5t-67 46.5t-44 65t-16 74q0 51 15.5 104.5t45.5 105t72.5 97t97.5 79.5t120.5 54t140.5 20q20 0 40.5 -1t42.5 -5q8 -1 10 -6t2 -9v-560
q0 -12 6.5 -23t16.5 -18.5t22 -12t24 -4.5q3 0 7 1t9 2q14 5 28.5 16.5t28 27.5t25.5 35t22 38q1 5 4 6.5t6 1.5q5 0 9 -4.5t4 -8.5v-5q-14 -25 -30 -49.5t-34.5 -43.5t-39.5 -30.5t-43 -11.5h-5zM566 373v4v28q0 25 0.5 77.5t1.5 148.5q-19 2 -35.5 3.5t-33.5 1.5
q-72 0 -134.5 -19t-114.5 -52t-92.5 -76.5t-69 -92t-43 -100t-14.5 -99.5q0 -32 14.5 -63.5t39.5 -56.5t59.5 -40.5t74.5 -15.5h7q39 2 91.5 26t103 68.5t90.5 109.5t55 148zM518 760q16 0 30 -11.5t14 -31.5q0 -17 -14 -30t-32 -13q-20 0 -27.5 3.5t-15.5 11.5q-8 12 -8 25
q0 20 16.5 33t36.5 13zM532 727q-6 6 -17 6q-9 0 -16 -5t-7 -15q1 -8 7 -9.5t15 -1.5q7 0 14 3t7 11q0 3 -1 6t-2 5z" />
    <glyph glyph-name="AE" unicode="&#xc6;" horiz-adv-x="1134" 
d="M592 315q-14 -18 -20.5 -40.5t-5.5 -45.5q1 -54 17.5 -91t42 -61.5t59 -37.5t68.5 -19t70 -7t64 0q34 0 68.5 10t66 27.5t57.5 40.5t44 49q2 7 12 7q4 0 5 -1q7 -4 7 -12q0 -1 -0.5 -3t-0.5 -4q-19 -29 -48 -54.5t-63.5 -44t-72.5 -29t-75 -10.5q-29 0 -66 1t-75.5 7.5
t-75.5 21t-66 41t-46.5 67t-17.5 100.5v8q-30 -56 -70.5 -100t-84.5 -74t-86.5 -46.5t-76.5 -17.5h-10q-46 0 -85 17.5t-67 46.5t-44 65t-16 74q0 51 15.5 104.5t45.5 105t72.5 97t97.5 79.5t120.5 54t140.5 20q20 0 40.5 -1t42.5 -5q8 -1 10 -6t2 -9v-75q17 25 44.5 45
t59 34.5t64 22.5t61.5 8q41 0 72 -5.5t54.5 -14.5t41.5 -21.5t33 -26.5q5 -5 5 -7q0 -5 -5 -12l-4 -2t-4 -1t-7 5q-14 12 -30 22.5t-37.5 19t-50.5 13.5t-68 5q-35 0 -75 -12t-73.5 -32.5t-55.5 -48.5t-22 -59q0 -23 11 -47.5t39 -50.5q35 28 74.5 43t74.5 15
q14 0 33.5 -3.5t37.5 -12t30.5 -22t12.5 -32.5t-12 -33.5t-29 -24t-37 -14t-36 -4.5q-84 0 -150 55q-14 -11 -24.5 -23t-19.5 -25zM560 373v4v28q0 25 0.5 77.5t1.5 148.5q-19 2 -35.5 3.5t-33.5 1.5q-72 0 -134.5 -19t-114.5 -52t-92.5 -76.5t-69 -92t-43 -100t-14.5 -99.5
q0 -32 14.5 -63.5t39.5 -56.5t59.5 -40.5t74.5 -15.5h7q39 2 91.5 26t103 68.5t90.5 109.5t55 148zM789 336q14 0 30 4t29.5 11t22 16t8.5 20t-8.5 19.5t-22 14.5t-29.5 9t-30 3q-27 0 -59.5 -11.5t-69.5 -40.5q42 -28 72 -36.5t57 -8.5zM620 383q-10 8 -18 18t-15 21v-76
q8 10 16 19t17 18z" />
    <glyph glyph-name="Ccedilla" unicode="&#xc7;" horiz-adv-x="625" 
d="M356 -14q-66 0 -126.5 23.5t-107 67t-74 104t-27.5 135.5q0 67 29 130.5t77 113t109.5 80t126.5 30.5q44 0 73.5 -7t50 -18.5t35 -27t29.5 -33.5q0 -1 0.5 -3t0.5 -4q0 -3 -1.5 -5t-2.5 -3q-2 -2 -4.5 -2.5t-4.5 -0.5q-7 0 -8 4q-12 15 -24.5 28.5t-31 23.5t-45 16
t-67.5 6q-59 0 -116 -28t-102 -74.5t-72.5 -106t-27.5 -122.5q0 -68 26 -124t69 -96t100 -61.5t119 -21.5q85 1 147.5 38t106.5 93q2 5 4.5 5.5t5.5 0.5q2 0 4.5 -0.5t4.5 -2.5q1 -2 2.5 -3.5t1.5 -4.5q0 -5 -3 -7q-49 -64 -116 -103t-158 -40h-3zM343 -9q2 6 5.5 8t7.5 2
q13 0 13 -13v-27q7 0 14.5 -5.5t14 -13t10.5 -16t4 -16.5q0 -21 -18.5 -34t-40.5 -13q-6 0 -14.5 2t-16 6t-12.5 10t-5 14q0 6 4 10.5t9 4.5q6 0 11 -7l4 -7l-2 3q5 -5 10 -6.5t11 -1.5q10 0 21 2.5t11 15.5q0 9 -7 17t-17 8q-5 0 -7 -1h-2q-12 0 -12 13z" />
    <glyph glyph-name="Egrave" unicode="&#xc8;" horiz-adv-x="601" 
d="M353 -11q-54 0 -115 18t-112.5 49.5t-85.5 75t-34 95.5q0 43 23.5 83.5t56.5 72.5q-25 23 -39.5 52.5t-15.5 61.5q0 39 25.5 71.5t63 55.5t81.5 36.5t81 13.5q41 0 72 -5.5t54.5 -14.5t41.5 -21.5t33 -26.5q5 -5 5 -7q0 -5 -5 -12l-4 -2t-4 -1t-7 5q-14 12 -30 22.5
t-37.5 19t-50.5 13.5t-68 5q-35 0 -75 -12t-73.5 -32.5t-55.5 -48.5t-22 -59q0 -23 11 -47.5t39 -50.5q35 28 74.5 43t74.5 15q14 0 33.5 -3.5t37.5 -12t30.5 -22t12.5 -32.5t-12 -33.5t-29 -24t-37 -14t-36 -4.5q-84 0 -150 55q-35 -28 -54.5 -66t-19.5 -73q0 -45 32 -84
t80 -68t104.5 -45.5t105.5 -16.5q33 0 67.5 10t66 27.5t58 40.5t44.5 49q2 7 12 7q4 0 5 -1q7 -4 7 -12q0 -1 -0.5 -3t-0.5 -4q-19 -29 -48 -54t-63.5 -43.5t-72.5 -29.5t-75 -11zM255 336q14 0 30 4t29.5 11t22 16t8.5 20t-8.5 19.5t-22 14.5t-29.5 9t-30 3
q-27 0 -59.5 -11.5t-69.5 -40.5q42 -28 72 -36.5t57 -8.5zM232 734q-8 4 -8 12q0 6 4.5 10t10.5 4q2 0 6 -2l88 -47q8 -5 8 -12q0 -6 -4.5 -10.5t-10.5 -4.5q-3 0 -6 3z" />
    <glyph glyph-name="Eacute" unicode="&#xc9;" horiz-adv-x="601" 
d="M353 -11q-54 0 -115 18t-112.5 49.5t-85.5 75t-34 95.5q0 43 23.5 83.5t56.5 72.5q-25 23 -39.5 52.5t-15.5 61.5q0 39 25.5 71.5t63 55.5t81.5 36.5t81 13.5q41 0 72 -5.5t54.5 -14.5t41.5 -21.5t33 -26.5q5 -5 5 -7q0 -5 -5 -12l-4 -2t-4 -1t-7 5q-14 12 -30 22.5
t-37.5 19t-50.5 13.5t-68 5q-35 0 -75 -12t-73.5 -32.5t-55.5 -48.5t-22 -59q0 -23 11 -47.5t39 -50.5q35 28 74.5 43t74.5 15q14 0 33.5 -3.5t37.5 -12t30.5 -22t12.5 -32.5t-12 -33.5t-29 -24t-37 -14t-36 -4.5q-84 0 -150 55q-35 -28 -54.5 -66t-19.5 -73q0 -45 32 -84
t80 -68t104.5 -45.5t105.5 -16.5q33 0 67.5 10t66 27.5t58 40.5t44.5 49q2 7 12 7q4 0 5 -1q7 -4 7 -12q0 -1 -0.5 -3t-0.5 -4q-19 -29 -48 -54t-63.5 -43.5t-72.5 -29.5t-75 -11zM255 336q14 0 30 4t29.5 11t22 16t8.5 20t-8.5 19.5t-22 14.5t-29.5 9t-30 3
q-27 0 -59.5 -11.5t-69.5 -40.5q42 -28 72 -36.5t57 -8.5zM317 758q4 6 11 6q5 0 9.5 -4t4.5 -10q0 -4 -3 -7q-18 -23 -43 -39t-54 -16h-8q-14 0 -14 13q0 5 3 9t11 4h9q23 0 41.5 12t32.5 32z" />
    <glyph glyph-name="Ecircumflex" unicode="&#xca;" horiz-adv-x="601" 
d="M353 -11q-54 0 -115 18t-112.5 49.5t-85.5 75t-34 95.5q0 43 23.5 83.5t56.5 72.5q-25 23 -39.5 52.5t-15.5 61.5q0 39 25.5 71.5t63 55.5t81.5 36.5t81 13.5q41 0 72 -5.5t54.5 -14.5t41.5 -21.5t33 -26.5q5 -5 5 -7q0 -5 -5 -12l-4 -2t-4 -1t-7 5q-14 12 -30 22.5
t-37.5 19t-50.5 13.5t-68 5q-35 0 -75 -12t-73.5 -32.5t-55.5 -48.5t-22 -59q0 -23 11 -47.5t39 -50.5q35 28 74.5 43t74.5 15q14 0 33.5 -3.5t37.5 -12t30.5 -22t12.5 -32.5t-12 -33.5t-29 -24t-37 -14t-36 -4.5q-84 0 -150 55q-35 -28 -54.5 -66t-19.5 -73q0 -45 32 -84
t80 -68t104.5 -45.5t105.5 -16.5q33 0 67.5 10t66 27.5t58 40.5t44.5 49q2 7 12 7q4 0 5 -1q7 -4 7 -12q0 -1 -0.5 -3t-0.5 -4q-19 -29 -48 -54t-63.5 -43.5t-72.5 -29.5t-75 -11zM255 336q14 0 30 4t29.5 11t22 16t8.5 20t-8.5 19.5t-22 14.5t-29.5 9t-30 3
q-27 0 -59.5 -11.5t-69.5 -40.5q42 -28 72 -36.5t57 -8.5zM218 688q-3 -3 -8 -3q-12 0 -12 13q0 6 6 12l70 44q2 2 8 2h1q1 0 2 0.5t3 0.5q5 0 8 -3l65 -48q5 -4 5 -11q0 -5 -3.5 -9.5t-9.5 -4.5q-5 0 -8 3l-61 45z" />
    <glyph glyph-name="Edieresis" unicode="&#xcb;" horiz-adv-x="601" 
d="M353 -11q37 0 75 11t72.5 29.5t63.5 43.5t48 54q0 2 0.5 4t0.5 3q0 8 -7 12q-1 1 -5 1q-10 0 -12 -7q-18 -26 -44.5 -49t-58 -40.5t-66 -27.5t-67.5 -10q-49 0 -105.5 16.5t-104.5 45.5t-80 68t-32 84q0 35 19.5 73t54.5 66q66 -55 150 -55q16 0 36 4.5t37 14t29 24
t12 33.5t-12.5 32.5t-30.5 22t-37.5 12t-33.5 3.5q-35 0 -74.5 -15t-74.5 -43q-28 26 -39 50.5t-11 47.5q0 31 22 59t55.5 48.5t73.5 32.5t75 12q39 0 68 -5t50.5 -13.5t37.5 -19t30 -22.5q5 -5 7 -5t4 1l4 2q5 7 5 12q0 2 -5 7q-15 14 -33 26.5t-41.5 21.5t-54.5 14.5
t-72 5.5q-37 0 -81 -13.5t-81.5 -36.5t-63 -55.5t-25.5 -71.5q1 -32 15.5 -61.5t39.5 -52.5q-33 -32 -56.5 -72.5t-23.5 -83.5q0 -52 34 -95.5t85.5 -75t112.5 -49.5t115 -18zM255 336q-27 0 -57 8.5t-72 36.5q37 29 69.5 40.5t59.5 11.5q14 0 30 -3t29.5 -9t22 -14.5
t8.5 -19.5t-8.5 -20t-22 -16t-29.5 -11t-30 -4zM206 741q0 11 7.5 18t18.5 7t18.5 -7t7.5 -18t-7.5 -17.5t-18.5 -6.5t-18.5 6.5t-7.5 17.5zM309 739q0 11 7.5 18t18.5 7t18.5 -7t7.5 -18t-7.5 -17.5t-18.5 -6.5t-18.5 6.5t-7.5 17.5z" />
    <glyph glyph-name="Igrave" unicode="&#xcc;" horiz-adv-x="502" 
d="M248 -11q-34 0 -68 11t-64 31.5t-53 49.5t-34 66q0 8 13 12q3 0 6 -3t5 -6q11 -34 32.5 -59.5t51 -43t64 -26t72.5 -8.5q45 0 83 18.5t66 48t43.5 66.5t15.5 74q0 25 -3 53t-5 58q-3 36 -5.5 73t-2.5 73q0 33 2.5 64.5t10.5 59.5q-17 -8 -34.5 -11t-34.5 -3
q-30 0 -58.5 9t-55.5 21q-26 11 -51.5 20t-51.5 9q-29 -1 -57.5 -9t-51.5 -25t-37.5 -43.5t-14.5 -65.5q0 -19 7.5 -39t20.5 -36.5t31 -27t39 -10.5q7 0 14.5 1t15.5 5h3q8 0 13 -7v-5q0 -9 -9 -13q-10 -3 -19 -5t-19 -2q-27 0 -49.5 13.5t-38.5 34.5t-25 45.5t-9 45.5v3
q0 45 17.5 76t44.5 50.5t60 28.5t64 9q30 0 57.5 -9t53.5 -20t52 -19t53 -8q19 0 40 6t44 21v-1q3 3 7 3q5 0 8.5 -4t3.5 -9v-4q-11 -32 -15 -68t-4 -74q0 -35 2.5 -70.5t4.5 -70.5q2 -32 4 -63t2 -60v-3q0 -42 -17.5 -83t-48.5 -73.5t-74 -52t-92 -19.5h-25zM223 734
q-8 4 -8 12q0 6 4.5 10t10.5 4q2 0 6 -2l88 -47q8 -5 8 -12q0 -6 -4.5 -10.5t-10.5 -4.5q-3 0 -6 3z" />
    <glyph glyph-name="Iacute" unicode="&#xcd;" horiz-adv-x="500" 
d="M248 -11q-34 0 -68 11t-64 31.5t-53 49.5t-34 66q0 8 13 12q3 0 6 -3t5 -6q11 -34 32.5 -59.5t51 -43t64 -26t72.5 -8.5q45 0 83 18.5t66 48t43.5 66.5t15.5 74q0 25 -3 53t-5 58q-3 36 -5.5 73t-2.5 73q0 33 2.5 64.5t10.5 59.5q-17 -8 -34.5 -11t-34.5 -3
q-30 0 -58.5 9t-55.5 21q-26 11 -51.5 20t-51.5 9q-29 -1 -57.5 -9t-51.5 -25t-37.5 -43.5t-14.5 -65.5q0 -19 7.5 -39t20.5 -36.5t31 -27t39 -10.5q7 0 14.5 1t15.5 5h3q8 0 13 -7v-5q0 -9 -9 -13q-10 -3 -19 -5t-19 -2q-27 0 -49.5 13.5t-38.5 34.5t-25 45.5t-9 45.5v3
q0 45 17.5 76t44.5 50.5t60 28.5t64 9q30 0 57.5 -9t53.5 -20t52 -19t53 -8q19 0 40 6t44 21v-1q3 3 7 3q5 0 8.5 -4t3.5 -9v-4q-11 -32 -15 -68t-4 -74q0 -35 2.5 -70.5t4.5 -70.5q2 -32 4 -63t2 -60v-3q0 -42 -17.5 -83t-48.5 -73.5t-74 -52t-92 -19.5h-25zM308 758
q4 6 11 6q5 0 9.5 -4t4.5 -10q0 -4 -3 -7q-18 -23 -43 -39t-54 -16h-8q-14 0 -14 13q0 5 3 9t11 4h9q23 0 41.5 12t32.5 32z" />
    <glyph glyph-name="Icircumflex" unicode="&#xce;" horiz-adv-x="500" 
d="M248 -11q-34 0 -68 11t-64 31.5t-53 49.5t-34 66q0 8 13 12q3 0 6 -3t5 -6q11 -34 32.5 -59.5t51 -43t64 -26t72.5 -8.5q45 0 83 18.5t66 48t43.5 66.5t15.5 74q0 25 -3 53t-5 58q-3 36 -5.5 73t-2.5 73q0 33 2.5 64.5t10.5 59.5q-17 -8 -34.5 -11t-34.5 -3
q-30 0 -58.5 9t-55.5 21q-26 11 -51.5 20t-51.5 9q-29 -1 -57.5 -9t-51.5 -25t-37.5 -43.5t-14.5 -65.5q0 -19 7.5 -39t20.5 -36.5t31 -27t39 -10.5q7 0 14.5 1t15.5 5h3q8 0 13 -7v-5q0 -9 -9 -13q-10 -3 -19 -5t-19 -2q-27 0 -49.5 13.5t-38.5 34.5t-25 45.5t-9 45.5v3
q0 45 17.5 76t44.5 50.5t60 28.5t64 9q30 0 57.5 -9t53.5 -20t52 -19t53 -8q19 0 40 6t44 21v-1q3 3 7 3q5 0 8.5 -4t3.5 -9v-4q-11 -32 -15 -68t-4 -74q0 -35 2.5 -70.5t4.5 -70.5q2 -32 4 -63t2 -60v-3q0 -42 -17.5 -83t-48.5 -73.5t-74 -52t-92 -19.5h-25zM209 688
q-3 -3 -8 -3q-12 0 -12 13q0 6 6 12l70 44q2 2 8 2h1q1 0 2 0.5t3 0.5q5 0 8 -3l65 -48q5 -4 5 -11q0 -5 -3.5 -9.5t-9.5 -4.5q-5 0 -8 3l-61 45z" />
    <glyph glyph-name="Idieresis" unicode="&#xcf;" horiz-adv-x="500" 
d="M273 -11q49 0 92 19.5t74 52t48.5 73.5t17.5 83v3q0 29 -2 60t-4 63q-2 35 -4.5 70.5t-2.5 70.5q0 38 4 74t15 68v4q0 5 -3.5 9t-8.5 4q-4 0 -7 -3v1q-23 -15 -44 -21t-40 -6q-27 0 -53 8t-52 19t-53.5 20t-57.5 9q-31 0 -64 -9t-60 -28.5t-44.5 -50.5t-17.5 -76v-3
q0 -21 9 -45.5t25 -45.5t38.5 -34.5t49.5 -13.5q10 0 19 2t19 5q9 4 9 13v5q-5 7 -13 7h-3q-8 -4 -15.5 -5t-14.5 -1q-21 0 -39 10.5t-31 27t-20.5 36.5t-7.5 39q0 39 14.5 65.5t37.5 43.5t51.5 25t57.5 9q26 0 51.5 -9t51.5 -20q27 -12 55.5 -21t58.5 -9q17 0 34.5 3
t34.5 11q-8 -28 -10.5 -59.5t-2.5 -64.5q0 -36 2.5 -73t5.5 -73q2 -30 5 -58t3 -53q0 -37 -15.5 -74t-43.5 -66.5t-66 -48t-83 -18.5q-38 0 -72.5 8.5t-64 26t-51 43t-32.5 59.5q-2 3 -5 6t-6 3q-13 -4 -13 -12q11 -37 34 -66t53 -49.5t64 -31.5t68 -11h25zM196 741
q0 11 7.5 18t18.5 7t18.5 -7t7.5 -18t-7.5 -17.5t-18.5 -6.5t-18.5 6.5t-7.5 17.5zM299 739q0 11 7.5 18t18.5 7t18.5 -7t7.5 -18t-7.5 -17.5t-18.5 -6.5t-18.5 6.5t-7.5 17.5z" />
    <glyph glyph-name="Eth" unicode="&#xd0;" horiz-adv-x="628" 
d="M139 299q-14 0 -14 13q0 5 3.5 9t10.5 4h87q0 29 -5 59t-5 56q1 20 4.5 42.5t10.5 44t18 39t27 27.5q3 3 7 3q13 0 13 -13q0 -3 -1 -6t-6 -4q-23 -17 -35 -56t-13 -77q0 -23 2.5 -48.5t5.5 -51.5q0 -4 0.5 -7.5t0.5 -7.5h91q7 0 10 -4t3 -9q0 -13 -13 -13h-88
q2 -18 3.5 -36.5t1.5 -36.5q0 -35 -8.5 -74t-24.5 -73q18 -9 38 -20t41 -20t41.5 -15.5t39.5 -6.5q50 0 92.5 29t73 74t47.5 100.5t17 108.5q0 60 -23 117t-62.5 102t-93 72t-114.5 27q-51 0 -96 -19.5t-82 -50.5t-65.5 -70t-47.5 -78q-4 -4 -7.5 -6t-10.5 -2q-7 3 -7 16
q19 42 50 84t71.5 75t89.5 54t105 21q67 0 125 -29.5t101 -77.5t68 -109.5t25 -125.5q0 -55 -18 -114t-51.5 -108.5t-81 -81.5t-105.5 -32q-26 0 -47.5 5.5t-41 14.5t-38.5 20t-39 21l-6 2q-18 -30 -40.5 -48t-49.5 -18q-9 0 -21 2t-23.5 7.5t-19 16t-7.5 28.5
q0 13 7.5 24.5t19 20.5t25 14t25.5 6q32 0 73 -20q18 33 24.5 70t6.5 67q0 17 -1 35.5t-3 37.5h-90zM123 16q20 0 37 12t31 39q-17 9 -32.5 12.5t-29.5 3.5q-18 0 -35.5 -12.5t-17.5 -27.5t13.5 -21t33.5 -6z" />
    <glyph glyph-name="Ntilde" unicode="&#xd1;" horiz-adv-x="783" 
d="M652 1q-17 0 -34.5 8t-32 21t-24 29.5t-9.5 34.5l1 482q0 13 -5 26.5t-13 24.5t-18 18.5t-21 7.5h-1q-43 0 -78 -25t-62.5 -66.5t-48 -96t-33.5 -114.5l-2 -331q0 -5 -4.5 -8t-8.5 -3q-12 0 -12 11l3 331v5l2 113q0 24 -4.5 57.5t-13.5 63.5q-17 63 -37 63
q-26 0 -50.5 -20t-46.5 -50.5t-39.5 -67t-30.5 -69.5q-4 -7 -11 -7h-5q-3 1 -5.5 4.5t-2.5 6.5t3 6l-2 -2q12 33 30.5 72t42.5 72.5t53.5 56.5t63.5 24q12 0 22 -7t17.5 -19t13 -26.5t9.5 -29.5q8 -31 12.5 -65.5t4.5 -62.5v-19q15 46 36.5 87.5t49 72.5t61 49.5t73.5 19.5
q18 0 33 -10.5t26.5 -26t17.5 -33.5t6 -33v-482q0 -12 7 -24.5t17.5 -22t23.5 -15.5t26 -6q12 0 28 9t32.5 24.5t31 37t25.5 46.5q2 5 6 6t7 1h4q7 -4 7 -11v-5q-12 -26 -29 -50t-36 -42.5t-39 -29.5t-37 -11zM353 701q0 -8 -4 -11t-9 -3q-8 0 -12 8.5t-4 19.5q0 24 18 37
t41 13q17 0 32.5 -8.5t23.5 -25.5q3 -11 11 -15t17 -4q14 0 26 8.5t12 22.5q0 2 -1 4.5t-2 5.5v1q0 7 4.5 10.5t9.5 3.5q9 0 12 -9t3 -18q0 -25 -20.5 -40t-44.5 -15q-14 0 -26.5 5.5t-20.5 19.5q-2 13 -13 20t-23 7q-11 0 -20.5 -5.5t-11.5 -17.5q2 -4 2 -8v-6z" />
    <glyph glyph-name="Ograve" unicode="&#xd2;" horiz-adv-x="711" 
d="M318 -1q-65 0 -121.5 26.5t-98.5 72t-66.5 107t-25.5 131.5v3q0 69 24.5 130.5t66.5 107.5t98.5 73t120.5 27h3q7 0 13 -0.5t13 -0.5h1h1t2 -2q66 -6 120.5 -39.5t92.5 -87.5q37 13 72 36t67 58l-2 -1q2 5 4.5 5.5t5.5 0.5q2 0 4.5 -0.5t4.5 -2.5q1 -2 2.5 -4.5t1.5 -5.5
q0 -4 -3 -7q-31 -38 -67.5 -62t-75.5 -38q25 -42 38.5 -88t14.5 -98v-3q0 -70 -24 -131.5t-66 -107t-98 -72.5t-120 -27h-3zM462 506q-5 0 -8.5 0.5t-8.5 0.5h-10q-4 0 -9 2h2q-34 5 -59.5 18t-40.5 34q-7 11 -11 21.5t-4 23.5q0 11 2.5 22.5t9.5 24.5h-9q-58 -1 -109.5 -26
t-90.5 -67.5t-61.5 -99.5t-22.5 -121v-3q0 -65 22.5 -122t61.5 -99.5t91 -67t111 -24.5h3q58 0 109.5 25t90.5 67.5t61.5 99.5t22.5 122v3q-2 50 -16 94.5t-37 82.5q-23 -6 -44.5 -8.5t-41.5 -2.5h-4zM536 540q-34 45 -81.5 73.5t-103.5 36.5q-7 -12 -9.5 -23t-2.5 -20
q0 -19 14 -37q19 -27 78 -36q8 -1 17.5 -2t19.5 -1q33 0 68 9zM267 734q-8 4 -8 12q0 6 4.5 10t10.5 4q2 0 6 -2l88 -47q8 -5 8 -12q0 -6 -4.5 -10.5t-10.5 -4.5q-3 0 -6 3z" />
    <glyph glyph-name="Oacute" unicode="&#xd3;" horiz-adv-x="711" 
d="M318 -1q-65 0 -121.5 26.5t-98.5 72t-66.5 107t-25.5 131.5v3q0 69 24.5 130.5t66.5 107.5t98.5 73t120.5 27h3q7 0 13 -0.5t13 -0.5h1h1t2 -2q66 -6 120.5 -39.5t92.5 -87.5q37 13 72 36t67 58l-2 -1q2 5 4.5 5.5t5.5 0.5q2 0 4.5 -0.5t4.5 -2.5q1 -2 2.5 -4.5t1.5 -5.5
q0 -4 -3 -7q-31 -38 -67.5 -62t-75.5 -38q25 -42 38.5 -88t14.5 -98v-3q0 -70 -24 -131.5t-66 -107t-98 -72.5t-120 -27h-3zM462 506q-5 0 -8.5 0.5t-8.5 0.5h-10q-4 0 -9 2h2q-34 5 -59.5 18t-40.5 34q-7 11 -11 21.5t-4 23.5q0 11 2.5 22.5t9.5 24.5h-9q-58 -1 -109.5 -26
t-90.5 -67.5t-61.5 -99.5t-22.5 -121v-3q0 -65 22.5 -122t61.5 -99.5t91 -67t111 -24.5h3q58 0 109.5 25t90.5 67.5t61.5 99.5t22.5 122v3q-2 50 -16 94.5t-37 82.5q-23 -6 -44.5 -8.5t-41.5 -2.5h-4zM536 540q-34 45 -81.5 73.5t-103.5 36.5q-7 -12 -9.5 -23t-2.5 -20
q0 -19 14 -37q19 -27 78 -36q8 -1 17.5 -2t19.5 -1q33 0 68 9zM352 758q4 6 11 6q5 0 9.5 -4t4.5 -10q0 -4 -3 -7q-18 -23 -43 -39t-54 -16h-8q-14 0 -14 13q0 5 3 9t11 4h9q23 0 41.5 12t32.5 32z" />
    <glyph glyph-name="Ocircumflex" unicode="&#xd4;" horiz-adv-x="711" 
d="M318 -1q-65 0 -121.5 26.5t-98.5 72t-66.5 107t-25.5 131.5v3q0 69 24.5 130.5t66.5 107.5t98.5 73t120.5 27h3q7 0 13 -0.5t13 -0.5h1h1t2 -2q66 -6 120.5 -39.5t92.5 -87.5q37 13 72 36t67 58l-2 -1q2 5 4.5 5.5t5.5 0.5q2 0 4.5 -0.5t4.5 -2.5q1 -2 2.5 -4.5t1.5 -5.5
q0 -4 -3 -7q-31 -38 -67.5 -62t-75.5 -38q25 -42 38.5 -88t14.5 -98v-3q0 -70 -24 -131.5t-66 -107t-98 -72.5t-120 -27h-3zM462 506q-5 0 -8.5 0.5t-8.5 0.5h-10q-4 0 -9 2h2q-34 5 -59.5 18t-40.5 34q-7 11 -11 21.5t-4 23.5q0 11 2.5 22.5t9.5 24.5h-9q-58 -1 -109.5 -26
t-90.5 -67.5t-61.5 -99.5t-22.5 -121v-3q0 -65 22.5 -122t61.5 -99.5t91 -67t111 -24.5h3q58 0 109.5 25t90.5 67.5t61.5 99.5t22.5 122v3q-2 50 -16 94.5t-37 82.5q-23 -6 -44.5 -8.5t-41.5 -2.5h-4zM536 540q-34 45 -81.5 73.5t-103.5 36.5q-7 -12 -9.5 -23t-2.5 -20
q0 -19 14 -37q19 -27 78 -36q8 -1 17.5 -2t19.5 -1q33 0 68 9zM253 688q-3 -3 -8 -3q-12 0 -12 13q0 6 6 12l70 44q2 2 8 2h1q1 0 2 0.5t3 0.5q5 0 8 -3l65 -48q5 -4 5 -11q0 -5 -3.5 -9.5t-9.5 -4.5q-5 0 -8 3l-61 45z" />
    <glyph glyph-name="Otilde" unicode="&#xd5;" horiz-adv-x="711" 
d="M318 -1q-65 0 -121.5 26.5t-98.5 72t-66.5 107t-25.5 131.5v3q0 69 24.5 130.5t66.5 107.5t98.5 73t120.5 27h3q7 0 13 -0.5t13 -0.5h1h1t2 -2q66 -6 120.5 -39.5t92.5 -87.5q37 13 72 36t67 58l-2 -1q2 5 4.5 5.5t5.5 0.5q2 0 4.5 -0.5t4.5 -2.5q1 -2 2.5 -4.5t1.5 -5.5
q0 -4 -3 -7q-31 -38 -67.5 -62t-75.5 -38q25 -42 38.5 -88t14.5 -98v-3q0 -70 -24 -131.5t-66 -107t-98 -72.5t-120 -27h-3zM462 506q-5 0 -8.5 0.5t-8.5 0.5h-10q-4 0 -9 2h2q-34 5 -59.5 18t-40.5 34q-7 11 -11 21.5t-4 23.5q0 11 2.5 22.5t9.5 24.5h-9q-58 -1 -109.5 -26
t-90.5 -67.5t-61.5 -99.5t-22.5 -121v-3q0 -65 22.5 -122t61.5 -99.5t91 -67t111 -24.5h3q58 0 109.5 25t90.5 67.5t61.5 99.5t22.5 122v3q-2 50 -16 94.5t-37 82.5q-23 -6 -44.5 -8.5t-41.5 -2.5h-4zM536 540q-34 45 -81.5 73.5t-103.5 36.5q-7 -12 -9.5 -23t-2.5 -20
q0 -19 14 -37q19 -27 78 -36q8 -1 17.5 -2t19.5 -1q33 0 68 9zM243 702q0 -8 -4 -11t-9 -3q-8 0 -12 8.5t-4 19.5q0 24 18 37t41 13q17 0 32.5 -8.5t23.5 -25.5q3 -11 11 -15t17 -4q14 0 26 8.5t12 22.5q0 2 -1 4.5t-2 5.5v1q0 7 4.5 10.5t9.5 3.5q9 0 12 -9t3 -18
q0 -25 -20.5 -40t-44.5 -15q-14 0 -26.5 5.5t-20.5 19.5q-2 13 -13 20t-23 7q-11 0 -20.5 -5.5t-11.5 -17.5q2 -4 2 -8v-6z" />
    <glyph glyph-name="Odieresis" unicode="&#xd6;" horiz-adv-x="711" 
d="M321 -1q64 0 120 27t98 72.5t66 107t24 131.5v3q-1 52 -14.5 98t-38.5 88q39 14 75.5 38t67.5 62q3 3 3 7q0 3 -1.5 5.5t-2.5 4.5q-2 2 -4.5 2.5t-4.5 0.5q-3 0 -5.5 -0.5t-4.5 -5.5l2 1q-32 -35 -67 -58t-72 -36q-38 54 -92.5 87.5t-120.5 39.5q-1 2 -2 2h-1h-1
q-7 0 -13 0.5t-13 0.5h-3q-64 0 -120.5 -27t-98.5 -73t-66.5 -107.5t-24.5 -130.5v-3q1 -70 25.5 -131.5t66.5 -107t98.5 -72t121.5 -26.5h3zM462 506h4q20 0 41.5 2.5t44.5 8.5q23 -38 37 -82.5t16 -94.5v-3q0 -65 -22.5 -122t-61.5 -99.5t-90.5 -67.5t-109.5 -25h-3
q-59 0 -111 24.5t-91 67t-61.5 99.5t-22.5 122v3q0 64 22.5 121t61.5 99.5t90.5 67.5t109.5 26h9q-7 -13 -9.5 -24.5t-2.5 -22.5q0 -13 4 -23.5t11 -21.5q15 -21 40.5 -34t59.5 -18h-2q5 -2 9 -2h10t8.5 -0.5t8.5 -0.5zM536 540q-35 -9 -68 -9q-10 0 -19.5 1t-17.5 2
q-59 9 -78 36q-14 18 -14 37q0 9 2.5 20t9.5 23q56 -8 103.5 -36.5t81.5 -73.5zM242 741q0 11 7.5 18t18.5 7t18.5 -7t7.5 -18t-7.5 -17.5t-18.5 -6.5t-18.5 6.5t-7.5 17.5zM345 739q0 11 7.5 18t18.5 7t18.5 -7t7.5 -18t-7.5 -17.5t-18.5 -6.5t-18.5 6.5t-7.5 17.5z" />
    <glyph glyph-name="Oslash" unicode="&#xd8;" horiz-adv-x="711" 
d="M466 727q4 9 12 9q13 0 13 -13q0 -4 -1 -6l-32 -76q30 -17 56.5 -41t47.5 -53q37 13 72 36t67 58l-2 -1q2 5 4.5 5.5t5.5 0.5q4 0 8.5 -3t4.5 -10q0 -4 -3 -7q-31 -38 -67.5 -62t-75.5 -38q25 -42 38.5 -88t14.5 -98v-3q0 -70 -24 -131.5t-66 -107t-98 -72.5t-120 -27h-3
q-64 0 -121 26l-34 -79q-5 -9 -12 -9q-13 0 -13 13q0 4 1 6l34 81q-75 43 -120.5 122t-46.5 177v3q0 69 24.5 130.5t66.5 107.5t98.5 73t120.5 27h3q7 0 13 -0.5t13 -0.5h1q23 -5 45.5 -9.5t42.5 -14.5zM462 506q-8 0 -18 0.5t-18 2.5h2q-11 1 -24 5l-198 -466
q26 -12 54 -18.5t58 -6.5h3q58 0 109.5 25t90.5 67.5t61.5 99.5t22.5 122v3q-2 50 -16 94.5t-37 82.5q-23 -6 -44.5 -8.5t-41.5 -2.5h-4zM32 336q0 -90 41.5 -163t109.5 -113l196 462q-29 11 -47.5 33.5t-18.5 50.5q0 11 2.5 22.5t9.5 24.5h-9q-58 -1 -109.5 -26
t-90.5 -67.5t-61.5 -99.5t-22.5 -121v-3zM536 540q-36 48 -88 77l-34 -80q8 -3 24 -4.5t30 -1.5q33 0 68 9zM353 570q11 -16 35 -25l36 84q-34 15 -73 21q-7 -12 -9.5 -23t-2.5 -20q0 -19 14 -37z" />
    <glyph glyph-name="Ugrave" unicode="&#xd9;" horiz-adv-x="788" 
d="M646 1q-12 1 -26.5 6t-26.5 13.5t-20 20t-8 25.5l-2 104q-28 -76 -80 -121t-121 -52h-1q-22 0 -43 5t-38 16.5t-27.5 30.5t-10.5 48v3l6 489q0 9 -5 19.5t-12.5 19.5t-16 15.5t-15.5 6.5q-1 -1 -6 -1q-28 0 -54.5 -22.5t-49 -54.5t-38.5 -67t-22 -61q-1 -4 -4.5 -6
t-5.5 -2h-4q-10 2 -10 15q6 25 21.5 60t38.5 68.5t51 59.5t60 32l15 3h15q12 -3 24 -12t21.5 -21t15 -26t5.5 -26l-6 -489q0 -38 22.5 -57t53.5 -20l19 -2l20 3q72 10 119 75t63 171l-2 386q0 13 11 13q13 0 13 -12l3 -371q1 -2 1 -7q-1 -5 -1 -13l1 -200q0 -8 5.5 -15
t14.5 -12.5t19.5 -9t20.5 -3.5h3q19 1 36.5 12.5t33 28.5t29.5 37t25 39v-2q3 8 10 8q3 0 6 -2t5 -3.5t2 -6.5q0 -4 -1 -6q-11 -19 -25.5 -41.5t-33 -41.5t-40 -32.5t-46.5 -14.5h-7zM313 734q-8 4 -8 12q0 6 4.5 10t10.5 4q2 0 6 -2l88 -47q8 -5 8 -12q0 -6 -4.5 -10.5
t-10.5 -4.5q-3 0 -6 3z" />
    <glyph glyph-name="Uacute" unicode="&#xda;" horiz-adv-x="788" 
d="M646 1q-12 1 -26.5 6t-26.5 13.5t-20 20t-8 25.5l-2 104q-28 -76 -80 -121t-121 -52h-1q-22 0 -43 5t-38 16.5t-27.5 30.5t-10.5 48v3l6 489q0 9 -5 19.5t-12.5 19.5t-16 15.5t-15.5 6.5q-1 -1 -6 -1q-28 0 -54.5 -22.5t-49 -54.5t-38.5 -67t-22 -61q-1 -4 -4.5 -6
t-5.5 -2h-4q-10 2 -10 15q6 25 21.5 60t38.5 68.5t51 59.5t60 32l15 3h15q12 -3 24 -12t21.5 -21t15 -26t5.5 -26l-6 -489q0 -38 22.5 -57t53.5 -20l19 -2l20 3q72 10 119 75t63 171l-2 386q0 13 11 13q13 0 13 -12l3 -371q1 -2 1 -7q-1 -5 -1 -13l1 -200q0 -8 5.5 -15
t14.5 -12.5t19.5 -9t20.5 -3.5h3q19 1 36.5 12.5t33 28.5t29.5 37t25 39v-2q3 8 10 8q3 0 6 -2t5 -3.5t2 -6.5q0 -4 -1 -6q-11 -19 -25.5 -41.5t-33 -41.5t-40 -32.5t-46.5 -14.5h-7zM397 758q4 6 11 6q5 0 9.5 -4t4.5 -10q0 -4 -3 -7q-18 -23 -43 -39t-54 -16h-8
q-14 0 -14 13q0 5 3 9t11 4h9q23 0 41.5 12t32.5 32z" />
    <glyph glyph-name="Ucircumflex" unicode="&#xdb;" horiz-adv-x="788" 
d="M646 1q-12 1 -26.5 6t-26.5 13.5t-20 20t-8 25.5l-2 104q-28 -76 -80 -121t-121 -52h-1q-22 0 -43 5t-38 16.5t-27.5 30.5t-10.5 48v3l6 489q0 9 -5 19.5t-12.5 19.5t-16 15.5t-15.5 6.5q-1 -1 -6 -1q-28 0 -54.5 -22.5t-49 -54.5t-38.5 -67t-22 -61q-1 -4 -4.5 -6
t-5.5 -2h-4q-10 2 -10 15q6 25 21.5 60t38.5 68.5t51 59.5t60 32l15 3h15q12 -3 24 -12t21.5 -21t15 -26t5.5 -26l-6 -489q0 -38 22.5 -57t53.5 -20l19 -2l20 3q72 10 119 75t63 171l-2 386q0 13 11 13q13 0 13 -12l3 -371q1 -2 1 -7q-1 -5 -1 -13l1 -200q0 -8 5.5 -15
t14.5 -12.5t19.5 -9t20.5 -3.5h3q19 1 36.5 12.5t33 28.5t29.5 37t25 39v-2q3 8 10 8q3 0 6 -2t5 -3.5t2 -6.5q0 -4 -1 -6q-11 -19 -25.5 -41.5t-33 -41.5t-40 -32.5t-46.5 -14.5h-7zM297 688q-3 -3 -8 -3q-12 0 -12 13q0 6 6 12l70 44q2 2 8 2h1q1 0 2 0.5t3 0.5q5 0 8 -3
l65 -48q5 -4 5 -11q0 -5 -3.5 -9.5t-9.5 -4.5q-5 0 -8 3l-61 45z" />
    <glyph glyph-name="Udieresis" unicode="&#xdc;" horiz-adv-x="788" 
d="M646 1h7q25 1 46.5 14.5t40 32.5t33 41.5t25.5 41.5q1 2 1 6q0 5 -2 6.5t-5 3.5t-6 2q-7 0 -10 -8v2q-11 -19 -25 -39t-29.5 -37t-33 -28.5t-36.5 -12.5h-3q-10 0 -20.5 3.5t-19.5 9t-14.5 12.5t-5.5 15l-1 200q0 8 1 13q0 5 -1 7l-3 371q0 12 -13 12q-11 0 -11 -13
l2 -386q-16 -106 -63 -171t-119 -75l-20 -3l-19 2q-31 1 -53.5 20t-22.5 57l6 489q0 12 -5.5 26t-15 26t-21.5 21t-24 12h-15l-15 -3q-32 -6 -60 -32t-51 -59.5t-38.5 -68.5t-21.5 -60q0 -13 10 -15h4q2 0 5.5 2t4.5 6q6 26 22 61t38.5 67t49 54.5t54.5 22.5q5 0 6 1
q7 0 15.5 -6.5t16 -15.5t12.5 -19.5t5 -19.5l-6 -489v-3q0 -29 10.5 -48t27.5 -30.5t38 -16.5t43 -5h1q69 7 121 52t80 121l2 -104q0 -14 8 -25.5t20 -20t26.5 -13.5t26.5 -6zM286 741q0 11 7.5 18t18.5 7t18.5 -7t7.5 -18t-7.5 -17.5t-18.5 -6.5t-18.5 6.5t-7.5 17.5z
M389 739q0 11 7.5 18t18.5 7t18.5 -7t7.5 -18t-7.5 -17.5t-18.5 -6.5t-18.5 6.5t-7.5 17.5z" />
    <glyph glyph-name="Yacute" unicode="&#xdd;" horiz-adv-x="740" 
d="M409 -393q-21 0 -40.5 12t-34.5 30.5t-23.5 41t-8.5 42.5v3q0 32 14 59t37 51t54 46t66 44l32 21l3 360q-17 -36 -39 -71t-47.5 -62.5t-54 -44.5t-58.5 -18q-34 0 -58 13.5t-39.5 34.5t-22.5 46t-7 48v304q0 13 -4.5 27t-12.5 26t-18 19.5t-21 7.5q-23 0 -40.5 -13.5
t-30 -32t-19 -39.5t-7.5 -36q0 -5 -4 -8.5t-9 -3.5q-11 0 -11 13q0 16 7.5 40.5t22.5 47.5t38 39.5t53 16.5q18 0 32.5 -10.5t25 -26.5t16.5 -34t6 -33v-304q0 -20 6 -41t18 -37.5t31 -27t45 -10.5h3q30 0 59 22t55 56t47.5 76t37.5 82l3 274q0 5 3 9t8 4t9 -4t4 -9l-4 -686
l12 9q54 32 103 70.5t79 86.5l6 6t7 3q1 0 3.5 -0.5t4.5 -2.5l3.5 -3.5t1.5 -5.5t-3 -7h1q-33 -53 -83.5 -93.5t-103.5 -73.5l-33 -20v-123q0 -29 -6 -65t-20 -68.5t-37 -54.5t-57 -22zM409 -369q26 0 44 18.5t29 46t16.5 60t6.5 61.5v107l-13 -8q-34 -21 -64 -42
t-52.5 -43.5t-36 -46.5t-13.5 -51q0 -17 7 -35t19 -33t27 -24.5t30 -9.5zM344 758q4 6 11 6q5 0 9.5 -4t4.5 -10q0 -4 -3 -7q-18 -23 -43 -39t-54 -16h-8q-14 0 -14 13q0 5 3 9t11 4h9q23 0 41.5 12t32.5 32z" />
    <glyph glyph-name="Thorn" unicode="&#xde;" horiz-adv-x="413" 
d="M40 6q0 -7 -3.5 -10t-8.5 -3t-8.5 3t-3.5 10v667q0 6 3.5 9.5t8.5 3.5t8.5 -3.5t3.5 -9.5v-150q34 23 73 35t81 12q102 0 153 -51.5t51 -136.5q0 -36 -10.5 -70.5t-31.5 -60.5q-35 -29 -76.5 -41t-86.5 -12q-39 0 -78.5 8t-74.5 20v-220zM43 496q-2 -2 -3 -2v-243
q36 -13 73.5 -20.5t75.5 -7.5q19 0 37.5 1.5t36.5 6.5q29 2 50 15.5t34.5 34.5t20 46.5t6.5 52.5q0 44 -14.5 75.5t-38.5 52t-55.5 30t-65.5 9.5q-43 0 -85 -13.5t-72 -37.5z" />
    <glyph glyph-name="germandbls" unicode="&#xdf;" horiz-adv-x="386" 
d="M25 -62q0 -7 -3.5 -10t-8.5 -3t-8.5 3t-3.5 10v549q2 30 4.5 66.5t13 68.5t32.5 53.5t61 21.5q19 0 34 -7q43 -17 61 -50.5t18 -72.5q0 -37 -14 -74.5t-37 -66.5h11q35 0 64.5 -18t50.5 -46.5t33 -64.5t12 -71q0 -21 -3.5 -44.5t-11 -47.5t-19 -46.5t-27.5 -40.5
q30 16 54 41t41 55q4 6 10 6q5 0 8.5 -4t3.5 -9t-2 -7q-14 -26 -34.5 -48.5t-45 -39.5t-52.5 -27t-58 -10h-4q-4 -1 -8 -1h-8q-52 0 -85 28.5t-33 75.5q0 28 15 50t48 25q6 0 9.5 -3.5t3.5 -8.5t-3.5 -8.5t-9.5 -3.5q-20 -3 -30 -17.5t-10 -33.5t8 -33.5t20.5 -25t28.5 -16
t32 -5.5q4 2 9 2q3 -1 11 -1q31 5 53.5 27t36.5 51.5t20.5 61.5t6.5 58q0 31 -10 62t-27.5 56.5t-42.5 41.5t-55 16q-24 0 -47 -10q-1 0 -2 -0.5t-2 -0.5q-5 0 -8 4t-3 9q0 6 4 9q16 12 29.5 30t24 38.5t16.5 42t6 41.5t-7 39.5t-19.5 34.5t-30 24.5t-38.5 9.5
q-3 0 -5.5 -0.5t-5.5 -0.5q-27 -8 -40.5 -27.5t-19 -43.5t-7 -50.5t-5.5 -49.5v-563v0z" />
    <glyph glyph-name="agrave" unicode="&#xe0;" 
d="M339 -4q-15 0 -28.5 7.5t-24 19.5t-17 26t-7.5 28q-26 -32 -68 -56.5t-90 -24.5q-21 0 -42 9t-38 24t-28 35t-11 42v1q0 52 30 89.5t73.5 61t91 34.5t82.5 11h7h3h3q2 -2 3 -2t3 -1q1 -1 1 -3q0 -1 2 -3v-3l1 -164q2 -1 2 -2v-1v-4q0 -1 -1 -1h-1l2 -36q0 -11 4.5 -22
t12 -20t17 -15t18.5 -6q11 0 28 11.5t37 29.5q17 17 34.5 40t30.5 43v-1q2 5 5.5 6t6.5 1q4 0 7 -3l-1 2q7 -5 7 -12q0 -4 -3 -7q-13 -20 -31.5 -43t-38.5 -43q-20 -18 -41 -33t-41 -15zM104 20q28 0 53.5 10t46.5 26t36 34.5t21 35.5l-2 153q-33 -1 -76 -11t-81.5 -31
t-65.5 -52.5t-27 -75.5v-2q0 -17 8.5 -32.5t22 -27.5t30.5 -19.5t34 -7.5zM176 421q-7 4 -7 11q0 13 13 13q2 0 6 -2l80 -43q7 -4 7 -11q0 -13 -13 -13q-2 0 -6 2z" />
    <glyph glyph-name="aacute" unicode="&#xe1;" 
d="M339 -4q-15 0 -28.5 7.5t-24 19.5t-17 26t-7.5 28q-26 -32 -68 -56.5t-90 -24.5q-21 0 -42 9t-38 24t-28 35t-11 42v1q0 52 30 89.5t73.5 61t91 34.5t82.5 11h7h3h3q2 -2 3 -2t3 -1q1 -1 1 -3q0 -1 2 -3v-3l1 -164q2 -1 2 -2v-1v-4q0 -1 -1 -1h-1l2 -36q0 -11 4.5 -22
t12 -20t17 -15t18.5 -6q11 0 28 11.5t37 29.5q17 17 34.5 40t30.5 43v-1q2 5 5.5 6t6.5 1q4 0 7 -3l-1 2q7 -5 7 -12q0 -4 -3 -7q-13 -20 -31.5 -43t-38.5 -43q-20 -18 -41 -33t-41 -15zM104 20q28 0 53.5 10t46.5 26t36 34.5t21 35.5l-2 153q-33 -1 -76 -11t-81.5 -31
t-65.5 -52.5t-27 -75.5v-2q0 -17 8.5 -32.5t22 -27.5t30.5 -19.5t34 -7.5zM266 439q4 5 10 5q13 0 13 -12q0 -4 -3 -7q-16 -21 -39 -35.5t-49 -14.5h-7q-7 0 -10 3.5t-3 8.5t3 8.5t10 3.5h8q21 0 37.5 10.5t29.5 29.5z" />
    <glyph glyph-name="acircumflex" unicode="&#xe2;" 
d="M339 -4q-15 0 -28.5 7.5t-24 19.5t-17 26t-7.5 28q-26 -32 -68 -56.5t-90 -24.5q-21 0 -42 9t-38 24t-28 35t-11 42v1q0 52 30 89.5t73.5 61t91 34.5t82.5 11h7h3h3q2 -2 3 -2t3 -1q1 -1 1 -3q0 -1 2 -3v-3l1 -164q2 -1 2 -2v-1v-4q0 -1 -1 -1h-1l2 -36q0 -11 4.5 -22
t12 -20t17 -15t18.5 -6q11 0 28 11.5t37 29.5q17 17 34.5 40t30.5 43v-1q2 5 5.5 6t6.5 1q4 0 7 -3l-1 2q7 -5 7 -12q0 -4 -3 -7q-13 -20 -31.5 -43t-38.5 -43q-20 -18 -41 -33t-41 -15zM104 20q28 0 53.5 10t46.5 26t36 34.5t21 35.5l-2 153q-33 -1 -76 -11t-81.5 -31
t-65.5 -52.5t-27 -75.5v-2q0 -17 8.5 -32.5t22 -27.5t30.5 -19.5t34 -7.5zM174 380q-2 -2 -7 -2q-11 0 -11 11q0 6 6 11l63 40q2 2 7 2h1q1 0 2 0.5t3 0.5q4 0 7 -3l59 -43q5 -4 5 -10q0 -13 -12 -13q-4 0 -7 3l-56 41z" />
    <glyph glyph-name="atilde" unicode="&#xe3;" 
d="M339 -4q-15 0 -28.5 7.5t-24 19.5t-17 26t-7.5 28q-26 -32 -68 -56.5t-90 -24.5q-21 0 -42 9t-38 24t-28 35t-11 42v1q0 52 30 89.5t73.5 61t91 34.5t82.5 11h7h3h3q2 -2 3 -2t3 -1q1 -1 1 -3q0 -1 2 -3v-3l1 -164q2 -1 2 -2v-1v-4q0 -1 -1 -1h-1l2 -36q0 -11 4.5 -22
t12 -20t17 -15t18.5 -6q11 0 28 11.5t37 29.5q17 17 34.5 40t30.5 43v-1q2 5 5.5 6t6.5 1q4 0 7 -3l-1 2q7 -5 7 -12q0 -4 -3 -7q-13 -20 -31.5 -43t-38.5 -43q-20 -18 -41 -33t-41 -15zM104 20q28 0 53.5 10t46.5 26t36 34.5t21 35.5l-2 153q-33 -1 -76 -11t-81.5 -31
t-65.5 -52.5t-27 -75.5v-2q0 -17 8.5 -32.5t22 -27.5t30.5 -19.5t34 -7.5zM163 389q0 -7 -3.5 -10t-8.5 -3q-8 0 -11 7.5t-3 18.5q0 22 16.5 33.5t36.5 11.5q16 0 30 -7.5t21 -23.5q3 -9 10.5 -13t15.5 -4q12 0 23 7.5t11 20.5q0 3 -2 9v1q0 6 3.5 9.5t8.5 3.5q8 0 11 -8.5
t3 -16.5q0 -23 -18.5 -36.5t-40.5 -13.5q-13 0 -24 5.5t-19 17.5q-2 12 -12 18.5t-21 6.5q-10 0 -18.5 -5t-10.5 -16q2 -5 2 -13z" />
    <glyph glyph-name="adieresis" unicode="&#xe4;" 
d="M339 -4q20 0 41 15t41 33q20 20 38.5 43t31.5 43q3 3 3 7q0 7 -7 12l1 -2q-3 3 -7 3q-3 0 -6.5 -1t-5.5 -6v1q-13 -20 -30.5 -43t-34.5 -40q-20 -18 -37 -29.5t-28 -11.5q-9 0 -18.5 6t-17 15t-12 20t-4.5 22l-2 36h1t1 1v4v1t-2 2l-1 164v3q-2 2 -2 3q0 2 -1 3
q-2 1 -3 1t-3 2h-3h-3h-7q-35 0 -82.5 -11t-91 -34.5t-73.5 -61t-30 -89.5v-1q0 -22 11 -42t28 -35t38 -24t42 -9q48 0 90 24.5t68 56.5q1 -14 7.5 -28t17 -26t24 -19.5t28.5 -7.5zM104 20q-17 0 -34 7.5t-30.5 19.5t-22 27.5t-8.5 32.5v2q0 44 27 75.5t65.5 52.5t81.5 31
t76 11l2 -153q-6 -17 -21 -35.5t-36 -34.5t-46.5 -26t-53.5 -10zM153 401q0 11 7.5 18t18.5 7t18.5 -7t7.5 -18t-7.5 -17.5t-18.5 -6.5t-18.5 6.5t-7.5 17.5zM256 399q0 11 7.5 18t18.5 7t18.5 -7t7.5 -18t-7.5 -17.5t-18.5 -6.5t-18.5 6.5t-7.5 17.5z" />
    <glyph glyph-name="aring" unicode="&#xe5;" 
d="M339 -4q-15 0 -28.5 7.5t-24 19.5t-17 26t-7.5 28q-26 -32 -68 -56.5t-90 -24.5q-21 0 -42 9t-38 24t-28 35t-11 42v1q0 52 30 89.5t73.5 61t91 34.5t82.5 11h7h3h3q2 -2 3 -2t3 -1q1 -1 1 -3q0 -1 2 -3v-3l1 -164q2 -1 2 -2v-1v-4q0 -1 -1 -1h-1l2 -36q0 -11 4.5 -22
t12 -20t17 -15t18.5 -6q11 0 28 11.5t37 29.5q17 17 34.5 40t30.5 43v-1q2 5 5.5 6t6.5 1q4 0 7 -3l-1 2q7 -5 7 -12q0 -4 -3 -7q-13 -20 -31.5 -43t-38.5 -43q-20 -18 -41 -33t-41 -15zM104 20q28 0 53.5 10t46.5 26t36 34.5t21 35.5l-2 153q-33 -1 -76 -11t-81.5 -31
t-65.5 -52.5t-27 -75.5v-2q0 -17 8.5 -32.5t22 -27.5t30.5 -19.5t34 -7.5zM254 452q14 0 27 -11t13 -28q0 -16 -12.5 -27.5t-29.5 -11.5q-19 0 -25.5 3t-13.5 10q-8 11 -8 23q0 18 15.5 30t33.5 12zM266 422q-5 5 -15 5q-8 0 -14.5 -4.5t-6.5 -13.5q1 -8 6.5 -9t13.5 -1
q6 0 12.5 3t6.5 10q0 2 -1 5t-2 5z" />
    <glyph glyph-name="ae" unicode="&#xe6;" horiz-adv-x="647" 
d="M542 229q0 -11 -1 -23t-5 -20q-24 -41 -52 -72.5t-63 -69.5q-6 -6 -9 -8q24 -16 64 -16q32 0 57 11.5t44 29.5t33 40.5t26 44.5q5 5 12 5h4q7 -4 7 -11q0 -4 -1 -6q-12 -23 -27.5 -47t-37 -44.5t-50.5 -33.5t-67 -13q-53 0 -83 24q-14 -11 -27.5 -17.5t-26.5 -6.5
q-15 0 -28.5 7.5t-24 19.5t-17 26t-7.5 28q-26 -32 -68 -56.5t-90 -24.5q-21 0 -42 9t-38 24t-28 35t-11 42v1q0 52 30 89.5t73.5 61t91 34.5t82.5 11h13q2 -2 3 -2t3 -1q1 -1 1 -3q0 -1 2 -3v-3l1 -164v-8l2 -36q0 -11 4.5 -22t12 -20t17 -15t18.5 -6q14 0 37 17
q-14 18 -21 40t-9 43q0 3 -0.5 7t-0.5 7q0 24 7.5 51.5t22 51t34 40.5t43.5 22h27q25 -2 44 -22t19 -48zM104 20q28 0 53.5 10t46.5 26t36 34.5t21 35.5l-2 153q-33 -1 -76 -11t-81.5 -31t-65.5 -52.5t-27 -75.5v-2q0 -17 8.5 -32.5t22 -27.5t30.5 -19.5t34 -7.5zM394 52
q6 6 10 9q16 19 36 39t37 41t29 42.5t13 44.5q0 6 -2 8q-3 17 -16.5 27.5t-27.5 10.5h-5q-18 0 -34.5 -10t-29 -26t-21 -36.5t-11.5 -41.5l-2 -53q0 -4 2 -8q3 -14 8 -25.5t14 -21.5z" />
    <glyph glyph-name="ccedilla" unicode="&#xe7;" horiz-adv-x="354" 
d="M162 -4q-29 0 -60 11.5t-57 31t-43 46t-17 56.5v6q2 37 18.5 66t41 48.5t54.5 29.5t60 10q19 0 35.5 -3t30.5 -11q3 -2 5 -3.5t2 -6.5q0 -4 -1 -6q-5 -7 -12 -7h-4q-25 13 -56 13q-26 0 -51.5 -9t-46.5 -25.5t-35.5 -41t-16.5 -55.5v-3q0 -24 14.5 -46t36.5 -39.5
t49 -27.5t53 -10q28 0 54.5 9.5t49.5 25.5t41.5 38t31.5 48q2 5 6 6.5t7 1.5h5q7 -5 7 -12q0 -4 -2 -6q-14 -28 -35 -52.5t-46.5 -43t-55.5 -29t-63 -10.5zM151 1q3 9 12 9q5 0 8.5 -3.5t3.5 -8.5v-24q6 0 13 -5t13 -12t9.5 -15t3.5 -15q0 -19 -17 -30.5t-37 -11.5
q-6 0 -13.5 1.5t-14 5.5t-11.5 9t-5 13q0 5 3.5 9t8.5 4t10 -6l4 -6l-2 2q5 -5 9.5 -6t9.5 -1q9 0 19 2.5t10 13.5q0 8 -6.5 15.5t-15.5 7.5q-4 0 -6 -1h-2q-11 0 -11 12z" />
    <glyph glyph-name="egrave" unicode="&#xe8;" horiz-adv-x="289" 
d="M116 -4q-37 0 -61 11.5t-38.5 29.5t-21.5 40t-9 43q0 3 -0.5 7t-0.5 7q0 24 7.5 51.5t22 51t34 40.5t43.5 22h27q25 -2 44 -22t19 -48q0 -35 -19.5 -54.5t-47.5 -31.5q-46 -16 -92 -16h-13v-6q1 -19 6.5 -37t17.5 -32.5t32 -23t50 -8.5q32 0 57 11.5t44 29.5t33 40.5
t26 44.5q5 5 12 5h4q7 -4 7 -11q0 -4 -1 -6q-12 -23 -27.5 -47t-37 -44.5t-50.5 -33.5t-67 -13zM28 151q40 0 78 16q23 9 37.5 23.5t14.5 38.5q0 19 -14 32t-31 13h-5q-18 0 -34.5 -10t-29 -26t-21 -36.5t-11.5 -41.5l-2 -9h18zM50 419q-7 4 -7 11q0 13 13 13q2 0 6 -2
l80 -43q7 -4 7 -11q0 -13 -13 -13q-2 0 -6 2z" />
    <glyph glyph-name="eacute" unicode="&#xe9;" horiz-adv-x="289" 
d="M116 -4q-37 0 -61 11.5t-38.5 29.5t-21.5 40t-9 43q0 3 -0.5 7t-0.5 7q0 24 7.5 51.5t22 51t34 40.5t43.5 22h27q25 -2 44 -22t19 -48q0 -35 -19.5 -54.5t-47.5 -31.5q-46 -16 -92 -16h-13v-6q1 -19 6.5 -37t17.5 -32.5t32 -23t50 -8.5q32 0 57 11.5t44 29.5t33 40.5
t26 44.5q5 5 12 5h4q7 -4 7 -11q0 -4 -1 -6q-12 -23 -27.5 -47t-37 -44.5t-50.5 -33.5t-67 -13zM28 151q40 0 78 16q23 9 37.5 23.5t14.5 38.5q0 19 -14 32t-31 13h-5q-18 0 -34.5 -10t-29 -26t-21 -36.5t-11.5 -41.5l-2 -9h18zM141 439q4 5 10 5q13 0 13 -12q0 -4 -3 -7
q-16 -21 -39 -35.5t-49 -14.5h-7q-7 0 -10 3.5t-3 8.5t3 8.5t10 3.5h8q21 0 37.5 10.5t29.5 29.5z" />
    <glyph glyph-name="ecircumflex" unicode="&#xea;" horiz-adv-x="289" 
d="M116 -4q-37 0 -61 11.5t-38.5 29.5t-21.5 40t-9 43q0 3 -0.5 7t-0.5 7q0 24 7.5 51.5t22 51t34 40.5t43.5 22h27q25 -2 44 -22t19 -48q0 -35 -19.5 -54.5t-47.5 -31.5q-46 -16 -92 -16h-13v-6q1 -19 6.5 -37t17.5 -32.5t32 -23t50 -8.5q32 0 57 11.5t44 29.5t33 40.5
t26 44.5q5 5 12 5h4q7 -4 7 -11q0 -4 -1 -6q-12 -23 -27.5 -47t-37 -44.5t-50.5 -33.5t-67 -13zM28 151q40 0 78 16q23 9 37.5 23.5t14.5 38.5q0 19 -14 32t-31 13h-5q-18 0 -34.5 -10t-29 -26t-21 -36.5t-11.5 -41.5l-2 -9h18zM35 381q-2 -2 -7 -2q-11 0 -11 11q0 6 6 11
l63 40q2 2 7 2h1q1 0 2 0.5t3 0.5q4 0 7 -3l59 -43q5 -4 5 -10q0 -13 -12 -13q-4 0 -7 3l-56 41z" />
    <glyph glyph-name="edieresis" unicode="&#xeb;" horiz-adv-x="289" 
d="M116 -4q38 0 67 13t50.5 33.5t37 44.5t27.5 47q1 2 1 6q0 7 -7 11h-4q-7 0 -12 -5q-12 -22 -26 -44.5t-33 -40.5t-44 -29.5t-57 -11.5q-30 0 -50 8.5t-32 23t-17.5 32.5t-6.5 37v6h13q46 0 92 16q28 12 47.5 31.5t19.5 54.5q0 28 -19 48t-44 22h-27q-24 -5 -43.5 -22
t-34 -40.5t-22 -51t-7.5 -51.5q0 -3 0.5 -7t0.5 -7q2 -21 9 -43t21.5 -40t38.5 -29.5t61 -11.5zM28 151h-18l2 9q3 21 11.5 41.5t21 36.5t29 26t34.5 10h5q17 0 31 -13t14 -32q0 -24 -14.5 -38.5t-37.5 -23.5q-38 -16 -78 -16zM11 402q0 11 7.5 18t18.5 7t18.5 -7t7.5 -18
t-7.5 -17.5t-18.5 -6.5t-18.5 6.5t-7.5 17.5zM114 400q0 11 7.5 18t18.5 7t18.5 -7t7.5 -18t-7.5 -17.5t-18.5 -6.5t-18.5 6.5t-7.5 17.5z" />
    <glyph glyph-name="igrave" unicode="&#xec;" horiz-adv-x="211" 
d="M63 -4q-13 0 -26.5 7t-24 18t-17.5 26t-7 30v207q0 13 12 13q13 0 13 -13v-207q0 -11 4.5 -21t12 -18t16.5 -13t17 -5q20 0 36 7.5t30.5 21.5t29 34t31.5 46l-2 -2q2 3 4.5 7.5t7.5 9.5q2 5 10 5q4 0 7 -3q1 -2 2.5 -4t1.5 -5q0 -4 -3 -7l-11 -23q-15 -23 -29 -43
t-31 -35t-37 -24t-47 -9zM-30 419q-7 4 -7 11q0 13 13 13q2 0 6 -2l80 -43q7 -4 7 -11q0 -13 -13 -13q-2 0 -6 2z" />
    <glyph glyph-name="iacute" unicode="&#xed;" horiz-adv-x="211" 
d="M63 -4q-13 0 -26.5 7t-24 18t-17.5 26t-7 30v207q0 13 12 13q13 0 13 -13v-207q0 -11 4.5 -21t12 -18t16.5 -13t17 -5q20 0 36 7.5t30.5 21.5t29 34t31.5 46l-2 -2q2 3 4.5 7.5t7.5 9.5q2 5 10 5q4 0 7 -3q1 -2 2.5 -4t1.5 -5q0 -4 -3 -7l-11 -23q-15 -23 -29 -43
t-31 -35t-37 -24t-47 -9zM48 438q4 5 10 5q13 0 13 -12q0 -4 -3 -7q-16 -21 -39 -35.5t-49 -14.5h-7q-7 0 -10 3.5t-3 8.5t3 8.5t10 3.5h8q21 0 37.5 10.5t29.5 29.5z" />
    <glyph glyph-name="icircumflex" unicode="&#xee;" horiz-adv-x="211" 
d="M63 -4q-13 0 -26.5 7t-24 18t-17.5 26t-7 30v207q0 13 12 13q13 0 13 -13v-207q0 -11 4.5 -21t12 -18t16.5 -13t17 -5q20 0 36 7.5t30.5 21.5t29 34t31.5 46l-2 -2q2 3 4.5 7.5t7.5 9.5q2 5 10 5q4 0 7 -3q1 -2 2.5 -4t1.5 -5q0 -4 -3 -7l-11 -23q-15 -23 -29 -43
t-31 -35t-37 -24t-47 -9zM-55 380q-2 -2 -7 -2q-11 0 -11 11q0 6 6 11l63 40q2 2 7 2h1q1 0 2 0.5t3 0.5q4 0 7 -3l59 -43q5 -4 5 -10q0 -13 -12 -13q-4 0 -7 3l-56 41z" />
    <glyph glyph-name="idieresis" unicode="&#xef;" horiz-adv-x="211" 
d="M63 -4q27 0 47 9t37 24t31 35t29 43l11 23q3 3 3 7q0 3 -1.5 5t-2.5 4q-3 3 -7 3q-8 0 -10 -5q-5 -5 -7.5 -9.5t-4.5 -7.5l2 2q-17 -26 -31.5 -46t-29 -34t-30.5 -21.5t-36 -7.5q-8 0 -17 5t-16.5 13t-12 18t-4.5 21v207q0 13 -13 13q-12 0 -12 -13v-207q0 -15 7 -30
t17.5 -26t24 -18t26.5 -7zM-75 401q0 11 7.5 18t18.5 7t18.5 -7t7.5 -18t-7.5 -17.5t-18.5 -6.5t-18.5 6.5t-7.5 17.5zM28 399q0 11 7.5 18t18.5 7t18.5 -7t7.5 -18t-7.5 -17.5t-18.5 -6.5t-18.5 6.5t-7.5 17.5z" />
    <glyph glyph-name="eth" unicode="&#xf0;" horiz-adv-x="355" 
d="M173 472q-5 -4 -9.5 -2.5t-7 5t-2.5 8.5t5 9q42 31 85 54q-20 29 -46 47t-61 18q-29 0 -59 -13q-2 -1 -5 -1q-5 0 -8.5 3.5t-3.5 8.5q0 7 9 11.5t21.5 7.5t25.5 4.5t21 1.5q54 0 85.5 -20.5t49.5 -52.5q24 11 48.5 21t50.5 20q6 2 10 0t5.5 -6.5t0 -9t-7.5 -6.5
q-24 -10 -48.5 -20t-47.5 -21q14 -32 20.5 -67.5t13.5 -68.5v-60q1 -2 1 -4q0 -6 -1 -8v-159q0 -2 0.5 -2.5t0.5 -2.5l-27 -50q-15 -22 -32.5 -43t-37.5 -37.5t-42.5 -27.5t-46.5 -13h-1q-30 0 -52.5 12.5t-38.5 32t-24 44t-8 48.5v12l2 24q2 52 34 87t76 56.5t91 30.5
t80 10l1 19q0 36 -9 77t-28 76q-22 -12 -42.5 -25t-40.5 -28zM146 26q21 4 41 17.5t38.5 33t35.5 43t31 47.5v157q-34 -2 -78 -11.5t-83.5 -29.5t-67 -51.5t-27.5 -76.5v-4q-2 -5 -2 -16q0 -18 5.5 -37t16 -34.5t26.5 -26t37 -11.5h27z" />
    <glyph glyph-name="ntilde" unicode="&#xf1;" horiz-adv-x="544" 
d="M398 -4q-12 0 -24.5 4.5t-23 12.5t-17 20.5t-6.5 29.5v147q0 11 -3.5 23t-10 21.5t-15.5 15.5t-19 6q-17 0 -31.5 -8.5t-28 -21.5t-25.5 -29t-23 -31q-7 -9 -13 -18t-11 -15v-144q0 -13 -12 -13q-13 0 -13 13v150v1v107q-1 2 -2 2h-8q-6 0 -18 -12q-12 -14 -29 -37h2
l-13 -21q-3 -5 -3.5 -6l-0.5 -1q1 0 0 -1.5l-5 -7.5t-13 -18.5t-25 -35.5q-5 -5 -10 -5q-3 0 -6 2q-5 2 -5.5 4t-0.5 6q0 1 0.5 3.5t2.5 4.5q5 7 16 25t25 40l18 25q14 22 30.5 40.5t34.5 18.5q20 0 29 -10q5 -5 5.5 -10t0.5 -9v-71l8 13q12 18 25.5 35t28.5 30.5t32.5 21.5
t37.5 8q17 0 30.5 -9t22.5 -23t14 -30t5 -29v-147q0 -20 15 -31.5t32 -11.5q21 0 40 10.5t35.5 28t31 39t26.5 43.5q1 5 4.5 6.5t6.5 1.5h5q7 -9 7 -13v-5q-12 -23 -27.5 -46.5t-35 -43.5t-43 -32.5t-50.5 -12.5zM196 390q0 -7 -3.5 -10t-8.5 -3q-8 0 -11 7.5t-3 18.5
q0 22 16.5 33.5t36.5 11.5q16 0 30 -7.5t21 -23.5q3 -9 10.5 -13t15.5 -4q12 0 23 7.5t11 20.5q0 3 -2 9v1q0 6 3.5 9.5t8.5 3.5q8 0 11 -8.5t3 -16.5q0 -23 -18.5 -36.5t-40.5 -13.5q-13 0 -24 5.5t-19 17.5q-2 12 -12 18.5t-21 6.5q-10 0 -18.5 -5t-10.5 -16q2 -5 2 -13z
" />
    <glyph glyph-name="ograve" unicode="&#xf2;" horiz-adv-x="448" 
d="M342 74q-30 0 -54 7q-20 -39 -58 -63t-87 -24q-33 0 -61.5 11.5t-50 32t-34 47.5t-12.5 59t12.5 59.5t34 48t50 32.5t61.5 12t62 -12t50.5 -32.5t34 -48t12.5 -59.5q0 -21 -6 -40q12 -3 22.5 -4t21.5 -1q27 0 52.5 11t43.5 37q4 4 10 4q4 0 7 -2l-1 1q5 -2 5.5 -4.5
t0.5 -5.5q0 -1 -0.5 -4t-2.5 -5q-24 -31 -53 -44t-60 -13zM143 19q40 0 72 20t48 51q-21 10 -40.5 23.5t-34.5 28.5t-23.5 31.5t-8.5 32.5t5 31.5t19 26.5q-9 4 -18 5t-19 1q-28 0 -52.5 -10t-42.5 -27t-28.5 -40t-10.5 -49t10.5 -48.5t28.5 -39.5t42.5 -27t52.5 -10z
M278 144q0 35 -19.5 64.5t-50.5 45.5q-15 -8 -20.5 -21t-5.5 -27q0 -22 25 -49t66 -44q5 17 5 31zM95 421q-7 4 -7 11q0 13 13 13q2 0 6 -2l80 -43q7 -4 7 -11q0 -13 -13 -13q-2 0 -6 2z" />
    <glyph glyph-name="oacute" unicode="&#xf3;" horiz-adv-x="448" 
d="M342 74q-30 0 -54 7q-20 -39 -58 -63t-87 -24q-33 0 -61.5 11.5t-50 32t-34 47.5t-12.5 59t12.5 59.5t34 48t50 32.5t61.5 12t62 -12t50.5 -32.5t34 -48t12.5 -59.5q0 -21 -6 -40q12 -3 22.5 -4t21.5 -1q27 0 52.5 11t43.5 37q4 4 10 4q4 0 7 -2l-1 1q5 -2 5.5 -4.5
t0.5 -5.5q0 -1 -0.5 -4t-2.5 -5q-24 -31 -53 -44t-60 -13zM143 19q40 0 72 20t48 51q-21 10 -40.5 23.5t-34.5 28.5t-23.5 31.5t-8.5 32.5t5 31.5t19 26.5q-9 4 -18 5t-19 1q-28 0 -52.5 -10t-42.5 -27t-28.5 -40t-10.5 -49t10.5 -48.5t28.5 -39.5t42.5 -27t52.5 -10z
M278 144q0 35 -19.5 64.5t-50.5 45.5q-15 -8 -20.5 -21t-5.5 -27q0 -22 25 -49t66 -44q5 17 5 31zM177 438q4 5 10 5q13 0 13 -12q0 -4 -3 -7q-16 -21 -39 -35.5t-49 -14.5h-7q-7 0 -10 3.5t-3 8.5t3 8.5t10 3.5h8q21 0 37.5 10.5t29.5 29.5z" />
    <glyph glyph-name="ocircumflex" unicode="&#xf4;" horiz-adv-x="448" 
d="M342 74q-30 0 -54 7q-20 -39 -58 -63t-87 -24q-33 0 -61.5 11.5t-50 32t-34 47.5t-12.5 59t12.5 59.5t34 48t50 32.5t61.5 12t62 -12t50.5 -32.5t34 -48t12.5 -59.5q0 -21 -6 -40q12 -3 22.5 -4t21.5 -1q27 0 52.5 11t43.5 37q4 4 10 4q4 0 7 -2l-1 1q5 -2 5.5 -4.5
t0.5 -5.5q0 -1 -0.5 -4t-2.5 -5q-24 -31 -53 -44t-60 -13zM143 19q40 0 72 20t48 51q-21 10 -40.5 23.5t-34.5 28.5t-23.5 31.5t-8.5 32.5t5 31.5t19 26.5q-9 4 -18 5t-19 1q-28 0 -52.5 -10t-42.5 -27t-28.5 -40t-10.5 -49t10.5 -48.5t28.5 -39.5t42.5 -27t52.5 -10z
M278 144q0 35 -19.5 64.5t-50.5 45.5q-15 -8 -20.5 -21t-5.5 -27q0 -22 25 -49t66 -44q5 17 5 31zM85 381q-2 -2 -7 -2q-11 0 -11 11q0 6 6 11l63 40q2 2 7 2h1q1 0 2 0.5t3 0.5q4 0 7 -3l59 -43q5 -4 5 -10q0 -13 -12 -13q-4 0 -7 3l-56 41z" />
    <glyph glyph-name="otilde" unicode="&#xf5;" horiz-adv-x="448" 
d="M342 74q-30 0 -54 7q-20 -39 -58 -63t-87 -24q-33 0 -61.5 11.5t-50 32t-34 47.5t-12.5 59t12.5 59.5t34 48t50 32.5t61.5 12t62 -12t50.5 -32.5t34 -48t12.5 -59.5q0 -21 -6 -40q12 -3 22.5 -4t21.5 -1q27 0 52.5 11t43.5 37q4 4 10 4q4 0 7 -2l-1 1q5 -2 5.5 -4.5
t0.5 -5.5q0 -1 -0.5 -4t-2.5 -5q-24 -31 -53 -44t-60 -13zM143 19q40 0 72 20t48 51q-21 10 -40.5 23.5t-34.5 28.5t-23.5 31.5t-8.5 32.5t5 31.5t19 26.5q-9 4 -18 5t-19 1q-28 0 -52.5 -10t-42.5 -27t-28.5 -40t-10.5 -49t10.5 -48.5t28.5 -39.5t42.5 -27t52.5 -10z
M278 144q0 35 -19.5 64.5t-50.5 45.5q-15 -8 -20.5 -21t-5.5 -27q0 -22 25 -49t66 -44q5 17 5 31zM77 388q0 -7 -3.5 -10t-8.5 -3q-8 0 -11 7.5t-3 18.5q0 22 16.5 33.5t36.5 11.5q16 0 30 -7.5t21 -23.5q3 -9 10.5 -13t15.5 -4q12 0 23 7.5t11 20.5q0 3 -2 9v1q0 6 3.5 9.5
t8.5 3.5q8 0 11 -8.5t3 -16.5q0 -23 -18.5 -36.5t-40.5 -13.5q-13 0 -24 5.5t-19 17.5q-2 12 -12 18.5t-21 6.5q-10 0 -18.5 -5t-10.5 -16q2 -5 2 -13z" />
    <glyph glyph-name="odieresis" unicode="&#xf6;" horiz-adv-x="448" 
d="M342 74q31 0 60 13t53 44q2 2 2.5 5t0.5 4q0 3 -0.5 5.5t-5.5 4.5l1 -1q-3 2 -7 2q-6 0 -10 -4q-18 -26 -43.5 -37t-52.5 -11q-11 0 -21.5 1t-22.5 4q6 19 6 40q0 32 -12.5 59.5t-34 48t-50.5 32.5t-62 12t-61.5 -12t-50 -32.5t-34 -48t-12.5 -59.5t12.5 -59t34 -47.5
t50 -32t61.5 -11.5q49 0 87 24t58 63q24 -7 54 -7zM143 19q-28 0 -52.5 10t-42.5 27t-28.5 39.5t-10.5 48.5t10.5 49t28.5 40t42.5 27t52.5 10q10 0 19 -1t18 -5q-14 -11 -19 -26.5t-5 -31.5t8.5 -32.5t23.5 -31.5t34.5 -28.5t40.5 -23.5q-16 -31 -48 -51t-72 -20zM278 144
q0 -14 -5 -31q-41 17 -66 44t-25 49q0 14 5.5 27t20.5 21q31 -16 50.5 -45.5t19.5 -64.5zM66 400q0 11 7.5 18t18.5 7t18.5 -7t7.5 -18t-7.5 -17.5t-18.5 -6.5t-18.5 6.5t-7.5 17.5zM169 398q0 11 7.5 18t18.5 7t18.5 -7t7.5 -18t-7.5 -17.5t-18.5 -6.5t-18.5 6.5t-7.5 17.5
z" />
    <glyph glyph-name="oslash" unicode="&#xf8;" horiz-adv-x="448" 
d="M208 369q2 6 6.5 7.5t9 0t6.5 -5.5t0 -10l-28 -76q45 -17 72.5 -55t27.5 -86q0 -21 -6 -40q12 -3 22.5 -4t21.5 -1q27 0 52.5 11t43.5 37q4 4 10 4q4 0 7 -2l-1 1q5 -2 5.5 -4.5t0.5 -5.5q0 -1 -0.5 -4t-2.5 -5q-24 -31 -53 -44t-60 -13q-30 0 -54 7q-20 -39 -58 -63
t-87 -24q-11 0 -22 2l-22 4l-25 -71q-2 -6 -6.5 -8t-9 -0.5t-6.5 6t0 10.5l25 70q-41 18 -66.5 54t-25.5 83q0 32 12.5 59.5t34 48t50 32.5t61.5 12q10 0 19 -1t18 -3zM9 144q0 -38 21 -68t56 -45l85 236q-14 3 -28 3q-28 0 -52.5 -10t-42.5 -27t-28.5 -40t-10.5 -49z
M143 19q40 0 72 20t48 51q-33 15 -60.5 38t-39.5 48l-55 -153q15 -4 35 -4zM278 144q0 35 -19.5 64.5t-50.5 45.5q-15 -8 -20.5 -21t-5.5 -27q0 -22 25 -49t66 -44q5 17 5 31z" />
    <glyph glyph-name="ugrave" unicode="&#xf9;" horiz-adv-x="463" 
d="M323 -3q-12 0 -26 5.5t-26.5 15t-20.5 22.5t-8 27v52q-8 -12 -19 -25.5t-22 -24.5q-29 -29 -62 -50.5t-64 -21.5q-15 0 -30 6.5t-28 18.5t-21 29t-8 38v207q0 4 3 8.5t8 4.5t9 -4.5t4 -8.5v-207q0 -15 6 -27.5t15.5 -21.5t20.5 -14t21 -5q23 0 52.5 19.5t55.5 45.5
q14 14 25 27.5t20 26.5h-2q14 22 16 31v3v2v118q0 13 13 13q11 0 11 -13v-120v-4v-103q0 -9 5.5 -17t14 -14.5t18.5 -10.5t19 -4q21 0 38 11t32 28q9 11 22 31t27 43q2 4 4.5 6t4.5 6q1 1 3.5 2.5t6.5 1.5q2 0 5 -1q7 -4 7 -12q0 -4 -2 -7h1q-3 -5 -6.5 -10t-6.5 -10
q-10 -15 -21 -31t-27 -36q-17 -20 -38 -33t-50 -13zM81 421q-7 4 -7 11q0 13 13 13q2 0 6 -2l80 -43q7 -4 7 -11q0 -13 -13 -13q-2 0 -6 2z" />
    <glyph glyph-name="uacute" unicode="&#xfa;" horiz-adv-x="463" 
d="M323 -3q-12 0 -26 5.5t-26.5 15t-20.5 22.5t-8 27v52q-8 -12 -19 -25.5t-22 -24.5q-29 -29 -62 -50.5t-64 -21.5q-15 0 -30 6.5t-28 18.5t-21 29t-8 38v207q0 4 3 8.5t8 4.5t9 -4.5t4 -8.5v-207q0 -15 6 -27.5t15.5 -21.5t20.5 -14t21 -5q23 0 52.5 19.5t55.5 45.5
q14 14 25 27.5t20 26.5h-2q14 22 16 31v3v2v118q0 13 13 13q11 0 11 -13v-120v-4v-103q0 -9 5.5 -17t14 -14.5t18.5 -10.5t19 -4q21 0 38 11t32 28q9 11 22 31t27 43q2 4 4.5 6t4.5 6q1 1 3.5 2.5t6.5 1.5q2 0 5 -1q7 -4 7 -12q0 -4 -2 -7h1q-3 -5 -6.5 -10t-6.5 -10
q-10 -15 -21 -31t-27 -36q-17 -20 -38 -33t-50 -13zM161 438q4 5 10 5q13 0 13 -12q0 -4 -3 -7q-16 -21 -39 -35.5t-49 -14.5h-7q-7 0 -10 3.5t-3 8.5t3 8.5t10 3.5h8q21 0 37.5 10.5t29.5 29.5z" />
    <glyph glyph-name="ucircumflex" unicode="&#xfb;" horiz-adv-x="463" 
d="M323 -3q-12 0 -26 5.5t-26.5 15t-20.5 22.5t-8 27v52q-8 -12 -19 -25.5t-22 -24.5q-29 -29 -62 -50.5t-64 -21.5q-15 0 -30 6.5t-28 18.5t-21 29t-8 38v207q0 4 3 8.5t8 4.5t9 -4.5t4 -8.5v-207q0 -15 6 -27.5t15.5 -21.5t20.5 -14t21 -5q23 0 52.5 19.5t55.5 45.5
q14 14 25 27.5t20 26.5h-2q14 22 16 31v3v2v118q0 13 13 13q11 0 11 -13v-120v-4v-103q0 -9 5.5 -17t14 -14.5t18.5 -10.5t19 -4q21 0 38 11t32 28q9 11 22 31t27 43q2 4 4.5 6t4.5 6q1 1 3.5 2.5t6.5 1.5q2 0 5 -1q7 -4 7 -12q0 -4 -2 -7h1q-3 -5 -6.5 -10t-6.5 -10
q-10 -15 -21 -31t-27 -36q-17 -20 -38 -33t-50 -13zM73 381q-2 -2 -7 -2q-11 0 -11 11q0 6 6 11l63 40q2 2 7 2h1q1 0 2 0.5t3 0.5q4 0 7 -3l59 -43q5 -4 5 -10q0 -13 -12 -13q-4 0 -7 3l-56 41z" />
    <glyph glyph-name="udieresis" unicode="&#xfc;" horiz-adv-x="463" 
d="M323 -3q29 0 50 13t38 33q16 20 27 36t21 31q3 5 6.5 10t6.5 10h-1q2 3 2 7q0 8 -7 12q-3 1 -5 1q-4 0 -6.5 -1.5t-3.5 -2.5q-2 -4 -4.5 -6t-4.5 -6q-14 -23 -27 -43t-22 -31q-15 -17 -32 -28t-38 -11q-9 0 -19 4t-18.5 10.5t-14 14.5t-5.5 17v103v4v120q0 13 -11 13
q-13 0 -13 -13v-118v-2v-3q-2 -9 -16 -31h2q-9 -13 -20 -26.5t-25 -27.5q-26 -26 -55.5 -45.5t-52.5 -19.5q-10 0 -21 5t-20.5 14t-15.5 21.5t-6 27.5v207q0 4 -4 8.5t-9 4.5t-8 -4.5t-3 -8.5v-207q0 -21 8 -38t21 -29t28 -18.5t30 -6.5q31 0 64 21.5t62 50.5q11 11 22 24.5
t19 25.5v-52q0 -14 8 -27t20.5 -22.5t26.5 -15t26 -5.5zM50 401q0 11 7.5 18t18.5 7t18.5 -7t7.5 -18t-7.5 -17.5t-18.5 -6.5t-18.5 6.5t-7.5 17.5zM153 399q0 11 7.5 18t18.5 7t18.5 -7t7.5 -18t-7.5 -17.5t-18.5 -6.5t-18.5 6.5t-7.5 17.5z" />
    <glyph glyph-name="yacute" unicode="&#xfd;" horiz-adv-x="472" 
d="M198 -370q-18 0 -33 9t-26 22.5t-17 29.5t-6 30q0 32 10 60t27.5 53.5t41.5 49t51 46.5l12 10v157q-32 -43 -72.5 -71.5t-93.5 -28.5q-18 0 -36.5 8.5t-34.5 23.5t-26 36t-10 46v183q0 13 13 13q4 0 8 -3t4 -10v-183q0 -20 7.5 -36.5t19.5 -28.5t26.5 -18.5t28.5 -6.5
q51 0 90 33.5t73 86.5l3 3v156q0 5 3 9t8 4t9 -4t4 -9v-160v-1v-178l18 16q42 37 83 77.5t75 94.5v-2q1 5 4.5 6t6.5 1q4 0 7 -3l-1 2q7 -5 7 -12q0 -1 -1 -3t-1 -4q-38 -59 -88 -106t-100 -89l-10 -10v-202q0 -15 -7 -32.5t-18.5 -31.5t-26.5 -23.5t-32 -9.5zM198 -346
q11 0 22 7t19.5 17.5t13.5 23.5t5 25v182l-18 -18q-44 -38 -71 -79t-27 -91q0 -11 4.5 -23t12.5 -22t18 -16t21 -6zM165 439q4 5 10 5q13 0 13 -12q0 -4 -3 -7q-16 -21 -39 -35.5t-49 -14.5h-7q-7 0 -10 3.5t-3 8.5t3 8.5t10 3.5h8q21 0 37.5 10.5t29.5 29.5z" />
    <glyph glyph-name="thorn" unicode="&#xfe;" horiz-adv-x="309" 
d="M204 -4q-52 0 -91.5 23.5t-74.5 74.5v-404q0 -13 -13 -13q-11 0 -11 13v606v1v283q0 6 3.5 9.5t7.5 3.5q5 0 9 -3.5t4 -9.5v-275q41 -1 90 -11.5t91 -32.5t70.5 -56t28.5 -82q0 -31 -9.5 -54.5t-25.5 -39.5t-36.5 -24.5t-42.5 -8.5zM207 21q16 0 31.5 6.5t28 19.5t20 32
t7.5 44q0 40 -25 69.5t-63 48.5t-83 28.5t-85 11.5v-141q37 -65 75.5 -92t90.5 -27h3z" />
    <glyph glyph-name="ydieresis" unicode="&#xff;" horiz-adv-x="472" 
d="M198 -370q17 0 32 9.5t26.5 23.5t18.5 31.5t7 32.5v202l10 10q50 42 100 89t88 106q0 2 1 4t1 3q0 7 -7 12l1 -2q-3 3 -7 3q-3 0 -6.5 -1t-4.5 -6v2q-34 -54 -75 -94.5t-83 -77.5l-18 -16v178v1v160q0 5 -4 9t-9 4t-8 -4t-3 -9v-156l-3 -3q-34 -53 -73 -86.5t-90 -33.5
q-14 0 -28.5 6.5t-26.5 18.5t-19.5 28.5t-7.5 36.5v183q0 7 -4 10t-8 3q-13 0 -13 -13v-183q0 -25 10 -46t26 -36t34.5 -23.5t36.5 -8.5q53 0 93.5 28.5t72.5 71.5v-157l-12 -10q-27 -23 -51 -46.5t-41.5 -49t-27.5 -53.5t-10 -60q0 -14 6 -30t17 -29.5t26 -22.5t33 -9z
M198 -346q-11 0 -21 6t-18 16t-12.5 22t-4.5 23q0 50 27 91t71 79l18 18v-182q0 -12 -5 -25t-13.5 -23.5t-19.5 -17.5t-22 -7zM52 401q0 11 7.5 18t18.5 7t18.5 -7t7.5 -18t-7.5 -17.5t-18.5 -6.5t-18.5 6.5t-7.5 17.5zM155 399q0 11 7.5 18t18.5 7t18.5 -7t7.5 -18
t-7.5 -17.5t-18.5 -6.5t-18.5 6.5t-7.5 17.5z" />
    <glyph glyph-name="Abreve" unicode="&#x102;" horiz-adv-x="797" 
d="M438 721q-1 2 -1 5q0 14 13 14q9 0 12 -10q2 -13 13.5 -18.5t23.5 -5.5q13 0 20 6t11.5 12.5t8.5 12.5t10 6q5 0 9 -4t4 -9v-4q-4 -23 -22.5 -35t-41.5 -12q-20 0 -37.5 10.5t-22.5 31.5zM653 -4q-14 0 -29 7t-27.5 18t-20.5 26t-8 30v206q-26 -68 -68 -120.5t-90 -89
t-96.5 -56t-85.5 -20.5h-10q-46 0 -85 17.5t-67 46.5t-44 65t-16 74q0 51 15.5 104.5t45.5 105t72.5 97t97.5 79.5t120.5 54t140.5 20q20 0 40.5 -1t42.5 -5q8 -1 10 -6t2 -9v-560q0 -12 6.5 -23t16.5 -18.5t22 -12t24 -4.5q3 0 7 1t9 2q14 5 28.5 16.5t28 27.5t25.5 35
t22 38q1 5 4 6.5t6 1.5q5 0 9 -4.5t4 -8.5v-5q-14 -25 -30 -49.5t-34.5 -43.5t-39.5 -30.5t-43 -11.5h-5zM566 373v4v28q0 25 0.5 77.5t1.5 148.5q-19 2 -35.5 3.5t-33.5 1.5q-72 0 -134.5 -19t-114.5 -52t-92.5 -76.5t-69 -92t-43 -100t-14.5 -99.5q0 -32 14.5 -63.5
t39.5 -56.5t59.5 -40.5t74.5 -15.5h7q39 2 91.5 26t103 68.5t90.5 109.5t55 148z" />
    <glyph glyph-name="abreve" unicode="&#x103;" 
d="M339 -4q-15 0 -28.5 7.5t-24 19.5t-17 26t-7.5 28q-26 -32 -68 -56.5t-90 -24.5q-21 0 -42 9t-38 24t-28 35t-11 42v1q0 52 30 89.5t73.5 61t91 34.5t82.5 11h7h3h3q2 -2 3 -2t3 -1q1 -1 1 -3q0 -1 2 -3v-3l1 -164q2 -1 2 -2v-1v-4q0 -1 -1 -1h-1l2 -36q0 -11 4.5 -22
t12 -20t17 -15t18.5 -6q11 0 28 11.5t37 29.5q17 17 34.5 40t30.5 43v-1q2 5 5.5 6t6.5 1q4 0 7 -3l-1 2q7 -5 7 -12q0 -4 -3 -7q-13 -20 -31.5 -43t-38.5 -43q-20 -18 -41 -33t-41 -15zM104 20q28 0 53.5 10t46.5 26t36 34.5t21 35.5l-2 153q-33 -1 -76 -11t-81.5 -31
t-65.5 -52.5t-27 -75.5v-2q0 -17 8.5 -32.5t22 -27.5t30.5 -19.5t34 -7.5zM172 413q-1 2 -1 5q0 14 13 14q9 0 12 -10q2 -13 13.5 -18.5t23.5 -5.5q13 0 20 6t11.5 12.5t8.5 12.5t10 6q5 0 9 -4t4 -9v-4q-4 -23 -22.5 -35t-41.5 -12q-20 0 -37.5 10.5t-22.5 31.5z" />
    <glyph glyph-name="Dcroat" unicode="&#x110;" horiz-adv-x="664" 
d="M226 324q0 7 -1 13q-3 27 -6 53.5t-3 49.5q1 20 4.5 42.5t10.5 44t18 39t27 27.5q3 3 7 3q7 0 12 -7q1 -3 1 -6t-1 -6t-6 -4q-23 -17 -35 -56t-13 -77q0 -23 2.5 -48.5t5.5 -51.5l2 -16h108q5 0 8 -4t3 -9q0 -4 -3 -7.5t-8 -3.5h-106q1 -8 3 -26.5t2 -47.5
q0 -35 -8.5 -74t-24.5 -73q12 -6 23.5 -11.5t23.5 -11.5q28 -15 56.5 -27t56.5 -12q50 1 92.5 29.5t73 73.5t47.5 100t17 109q0 60 -23 117t-62.5 102t-93 72t-114.5 27q-51 0 -96 -19.5t-82 -50.5t-65.5 -70t-47.5 -78q-4 -4 -7.5 -6t-10.5 -2q-7 3 -7 16q19 42 50 84
t71.5 75t89.5 54t105 21q67 0 125 -29.5t101 -77.5t67.5 -109.5t25.5 -125.5q0 -55 -18 -114t-51.5 -108.5t-81 -81.5t-105.5 -32q-40 0 -72 13.5t-62 30.5q-8 5 -16 9l-16 8l-6 2q-18 -30 -40.5 -48t-49.5 -18q-9 0 -21 2t-23.5 7.5t-19 16t-7.5 28.5q0 13 7.5 24.5
t19 20.5t25 14t25.5 6q32 0 73 -20q18 33 24.5 70t6.5 67q0 26 -1.5 44.5t-3.5 29.5h-97q-5 0 -8 3.5t-3 7.5q0 5 3 9t8 4h95zM123 16q20 0 37 12t31 39q-17 9 -32.5 12.5t-29.5 3.5q-18 0 -35.5 -12.5t-17.5 -27.5t13.5 -21t33.5 -6z" />
    <glyph glyph-name="dcroat" unicode="&#x111;" 
d="M137 462q-5 0 -8 3.5t-3 7.5q0 5 3 9t8 4h123l1 131q0 5 3 9t8 4q7 0 10 -4t3 -9v-131h80q5 0 8 -4t3 -9q0 -4 -3 -7.5t-8 -3.5h-80l-1 -179q1 -2 1 -4q0 -5 -1 -6v-132v-2q1 0 1 -2q0 -4 -1 -6q0 -17 1 -36.5t7 -35.5q7 -17 18 -28t31 -11t37 9.5t31 25.5t27 36.5
t26 41.5q2 3 4.5 5.5t4.5 5.5q1 2 4.5 3.5t6.5 1.5h5q7 -5 7 -12q0 -1 -1 -2.5t-1 -3.5q-2 -4 -5 -8t-5 -9q-11 -19 -24.5 -39.5t-30.5 -38t-38 -29t-48 -11.5q-32 0 -48.5 15.5t-24.5 38.5q-6 20 -9 46q-29 -37 -67.5 -67t-86.5 -33h-1q-29 0 -51 10t-37 26.5t-23 36.5
t-8 40v10l2 10v10q2 43 32.5 72t73.5 46.5t88.5 25t77.5 8.5l1 171h-123zM117 21q21 3 40.5 14t37.5 27t34 35.5t30 39.5v130q-33 -1 -75.5 -9t-81 -24.5t-65 -43t-26.5 -63.5v-3q-2 -4 -2 -13q0 -15 5 -31t15.5 -28.5t26 -21t35.5 -9.5l13 -1z" />
    <glyph glyph-name="Itilde" unicode="&#x128;" horiz-adv-x="502" 
d="M205 697q0 -8 -4 -11t-9 -3q-8 0 -12 8.5t-4 19.5q0 24 18 37t41 13q17 0 32.5 -8.5t23.5 -25.5q3 -11 11 -15t17 -4q14 0 26 8.5t12 22.5q0 2 -1 4.5t-2 5.5v1q0 7 4.5 10.5t9.5 3.5q9 0 12 -9t3 -18q0 -25 -20.5 -40t-44.5 -15q-14 0 -26.5 5.5t-20.5 19.5
q-2 13 -13 20t-23 7q-11 0 -20.5 -5.5t-11.5 -17.5q2 -4 2 -8v-6zM248 -11q-34 0 -68 11t-64 31.5t-53 49.5t-34 66q0 8 13 12q3 0 6 -3t5 -6q11 -34 32.5 -59.5t51 -43t64 -26t72.5 -8.5q45 0 83 18.5t66 48t43.5 66.5t15.5 74q0 25 -3 53t-5 58q-3 36 -5.5 73t-2.5 73
q0 33 2.5 64.5t10.5 59.5q-17 -8 -34.5 -11t-34.5 -3q-30 0 -58.5 9t-55.5 21q-26 11 -51.5 20t-51.5 9q-29 -1 -57.5 -9t-51.5 -25t-37.5 -43.5t-14.5 -65.5q0 -19 7.5 -39t20.5 -36.5t31 -27t39 -10.5q7 0 14.5 1t15.5 5h3q8 0 13 -7v-5q0 -9 -9 -13q-10 -3 -19 -5t-19 -2
q-27 0 -49.5 13.5t-38.5 34.5t-25 45.5t-9 45.5v3q0 45 17.5 76t44.5 50.5t60 28.5t64 9q30 0 57.5 -9t53.5 -20t52 -19t53 -8q19 0 40 6t44 21v-1q3 3 7 3q5 0 8.5 -4t3.5 -9v-4q-11 -32 -15 -68t-4 -74q0 -35 2.5 -70.5t4.5 -70.5q2 -32 4 -63t2 -60v-3q0 -42 -17.5 -83
t-48.5 -73.5t-74 -52t-92 -19.5h-25z" />
    <glyph glyph-name="itilde" unicode="&#x129;" horiz-adv-x="211" 
d="M63 -4q-13 0 -26.5 7t-24 18t-17.5 26t-7 30v207q0 13 12 13q13 0 13 -13v-207q0 -11 4.5 -21t12 -18t16.5 -13t17 -5q20 0 36 7.5t30.5 21.5t29 34t31.5 46l-2 -2q2 3 4.5 7.5t7.5 9.5q2 5 10 5q4 0 7 -3q1 -2 2.5 -4t1.5 -5q0 -4 -3 -7l-11 -23q-15 -23 -29 -43
t-31 -35t-37 -24t-47 -9zM-27 389q0 -7 -3.5 -10t-8.5 -3q-8 0 -11 7.5t-3 18.5q0 22 16.5 33.5t36.5 11.5q16 0 30 -7.5t21 -23.5q3 -9 10.5 -13t15.5 -4q12 0 23 7.5t11 20.5q0 3 -2 9v1q0 6 3.5 9.5t8.5 3.5q8 0 11 -8.5t3 -16.5q0 -23 -18.5 -36.5t-40.5 -13.5
q-13 0 -24 5.5t-19 17.5q-2 12 -12 18.5t-21 6.5q-10 0 -18.5 -5t-10.5 -16q2 -5 2 -13z" />
    <glyph glyph-name="dotlessi" unicode="&#x131;" horiz-adv-x="211" 
d="M63 -4q-13 0 -26.5 7t-24 18t-17.5 26t-7 30v207q0 13 12 13q13 0 13 -13v-207q0 -11 4.5 -21t12 -18t16.5 -13t17 -5q20 0 36 7.5t30.5 21.5t29 34t31.5 46l-2 -2q2 3 4.5 7.5t7.5 9.5q2 5 10 5q4 0 7 -3q1 -2 2.5 -4t1.5 -5q0 -4 -3 -7l-11 -23q-15 -23 -29 -43
t-31 -35t-37 -24t-47 -9z" />
    <glyph glyph-name="OE" unicode="&#x152;" horiz-adv-x="1191" 
d="M943 -11q-50 0 -105.5 15t-105 42t-85.5 65t-47 83q-18 -43 -46.5 -79t-64.5 -61.5t-79 -40t-89 -14.5h-3q-65 0 -121.5 26.5t-98.5 72t-66.5 107t-25.5 131.5v3q0 69 24.5 130.5t66.5 107.5t98.5 73t120.5 27h3q7 0 13 -0.5t13 -0.5h1h1t2 -2q66 -6 120.5 -39.5
t92.5 -87.5q44 20 91 46.5t92 49.5q32 15 65 22.5t62 8.5q41 0 72 -5.5t54.5 -14.5t41.5 -21.5t33 -26.5q5 -5 5 -7q0 -5 -5 -12l-4 -2t-4 -1t-7 5q-14 12 -30 22.5t-37.5 19t-50.5 13.5t-68 5q-35 0 -75 -12t-73.5 -32.5t-55.5 -48.5t-22 -59q0 -23 11 -47.5t39 -50.5
q35 28 74.5 43t74.5 15q14 0 33.5 -3.5t37.5 -12t30.5 -22t12.5 -32.5t-12 -33.5t-29 -24t-37 -14t-36 -4.5q-84 0 -150 55q-35 -28 -54.5 -66t-19.5 -73q0 -45 32 -84t80 -68t104.5 -45.5t105.5 -16.5q33 0 67.5 10t66 27.5t58 40.5t44.5 49q2 7 12 7q4 0 5 -1q7 -4 7 -12
q0 -1 -0.5 -3t-0.5 -4q-19 -29 -48 -54t-63.5 -43.5t-72.5 -29.5t-75 -11zM462 506q-5 0 -8.5 0.5t-8.5 0.5h-10q-4 0 -9 2h2q-34 5 -59.5 18t-40.5 34q-7 11 -11 21.5t-4 23.5q0 11 2.5 22.5t9.5 24.5h-9q-58 -1 -109.5 -26t-90.5 -67.5t-61.5 -99.5t-22.5 -121v-3
q0 -65 22.5 -122t61.5 -99.5t91 -67t111 -24.5h3q58 0 109.5 25t90.5 67.5t61.5 99.5t22.5 122v3q-2 50 -16 94.5t-37 82.5q-23 -6 -44.5 -8.5t-41.5 -2.5h-4zM845 336q14 0 30 4t29.5 11t22 16t8.5 20t-8.5 19.5t-22 14.5t-29.5 9t-30 3q-27 0 -59.5 -11.5t-69.5 -40.5
q42 -28 72 -36.5t57 -8.5zM536 540q-34 45 -81.5 73.5t-103.5 36.5q-7 -12 -9.5 -23t-2.5 -20q0 -19 14 -37q19 -27 78 -36q8 -1 17.5 -2t19.5 -1q33 0 68 9zM629 337q0 -3 -0.5 -6t-0.5 -6q20 30 48 58q-25 23 -39.5 52.5t-15.5 61.5q0 28 16 57q-29 -17 -61 -28
q25 -42 38.5 -88t14.5 -98v-3z" />
    <glyph glyph-name="oe" unicode="&#x153;" horiz-adv-x="578" 
d="M409 299q22 -2 40 -18.5t22 -40.5q7 -17 7 -39q0 -38 -22 -68q0 -1 -0.5 -1.5l-0.5 -0.5q-24 -31 -53 -44t-60 -13h-17q-8 0 -16 2q10 -24 32.5 -40t64.5 -16q32 0 57 11.5t44 29.5t33 40.5t26 44.5q5 5 12 5h4q7 -4 7 -11q0 -4 -1 -6q-12 -23 -27.5 -47t-37 -44.5
t-50.5 -33.5t-67 -13q-27 0 -47.5 6.5t-35 17.5t-23.5 25t-15 30q-20 -37 -57.5 -59t-84.5 -22q-33 0 -61.5 11.5t-50 32t-34 47.5t-12.5 59t12.5 59.5t34 48t50 32.5t61.5 12q50 0 89 -25.5t57 -66.5q13 35 37 62t56 33h27zM143 19q40 0 72 20t48 51q-21 10 -40.5 23.5
t-34.5 28.5t-23.5 31.5t-8.5 32.5t5 31.5t19 26.5q-9 4 -18 5t-19 1q-28 0 -52.5 -10t-42.5 -27t-28.5 -40t-10.5 -49t10.5 -48.5t28.5 -39.5t42.5 -27t52.5 -10zM300 120q0 -5 0.5 -9t1.5 -9q10 -2 19.5 -2.5t18.5 -0.5q38 0 70 21q23 14 32 34.5t9 40.5q0 31 -11.5 55
t-41.5 24q-18 0 -34.5 -10t-29 -26t-21 -36.5t-11.5 -41.5l-1 -3zM273 113q1 3 3 11q-1 3 -1 10q0 6 0.5 12t1.5 12q-4 31 -22.5 56.5t-46.5 39.5q-15 -8 -20.5 -21t-5.5 -27q0 -22 25 -49t66 -44z" />
    <glyph glyph-name="Scaron" unicode="&#x160;" horiz-adv-x="427" 
d="M192 1q-35 0 -69 9.5t-60 26.5t-42 40.5t-16 52.5q0 5 3 9t8 4q7 0 10 -4t3 -9q0 -22 13.5 -41t37 -33t53.5 -22t63 -8q34 0 72 10t70 28.5t53.5 45t21.5 59.5v1q0 37 -20.5 75t-47.5 79h1q-4 7 -9 14t-9 15v-2l-20 35l-12 -12q-41 -42 -88 -70t-93 -30q-13 0 -13 13
q0 5 3 9t8 4q42 2 86 27.5t80 63.5l14 16l-11 23q-18 33 -29 70t-12 79q0 16 8.5 32t22 29t30.5 21t33 8h1q16 -1 30.5 -9t26 -21t19 -28t7.5 -30q0 -30 -21 -73t-59 -87l-14 -17l24 -37q2 -5 6.5 -11t6.5 -10v1q29 -45 52.5 -87t24.5 -90q0 -41 -24.5 -72.5t-61.5 -53
t-79 -32.5t-78 -11h-4zM266 579q0 -39 11 -74.5t29 -68.5l5 -10l10 11q33 39 52.5 78.5t19.5 65.5q0 11 -5 22t-13.5 20t-18.5 15t-20 6q-12 0 -24.5 -6t-22.5 -15t-16.5 -20.5t-6.5 -23.5zM347 682q-5 -4 -10 -4h-2q-6 0 -10 4l-55 58q-3 6 -3 9q0 13 13 13q5 0 10 -4
l45 -48l44 49q5 5 10 5t9 -4.5t4 -9.5q0 -4 -4 -8z" />
    <glyph glyph-name="scaron" unicode="&#x161;" horiz-adv-x="351" 
d="M135 -3q-9 0 -21 3t-22.5 9.5t-17.5 15.5t-7 21q0 23 11.5 34.5t29.5 16.5q13 3 29.5 3.5t36.5 0.5h15l23 2l5 10q1 5 1 8v9q0 17 -24.5 34.5t-66.5 42.5h1q-14 7 -26 14.5t-25 17.5l-3 -6q-8 -12 -16.5 -24.5t-16.5 -24.5q-17 -24 -32 -51q-7 -7 -12 -7h-5
q-4 1 -5.5 4.5t-1.5 6.5q0 4 3 7l-1 -1q10 16 15.5 25.5t9.5 15.5t7 11.5t8 13.5t11 17.5t11 17.5l8 12q-15 13 -25 27.5t-10 36.5q0 13 10.5 28.5t26.5 17.5h3q15 0 31 -10.5t18 -29.5q0 -14 -6 -31.5t-17 -35.5q5 -4 17 -11.5t20 -11.5q3 -2 7 -4.5t7 -4.5l-1 2l11 -6
q16 -9 33 -19t30.5 -21.5t22.5 -24.5t9 -28q0 -7 -1 -12.5t-2 -10.5l-2 -4q30 0 55.5 8.5t39.5 29.5q7 9 14 9q4 0 7 -3l-1 2q7 -5 7 -12q0 -1 -1 -2.5t-1 -3.5q-21 -32 -55 -42t-70 -12h-3l-7 -13q-13 -29 -38 -48t-51 -19zM135 21q18 0 36.5 15t29.5 38l1 3h-28
q-17 0 -32 -0.5t-27 -3.5q-24 -6 -24 -27q0 -10 14.5 -17.5t29.5 -7.5zM48 320q0 -10 3 -19.5t11 -17.5l6 -6l3 3v-1q6 13 10 23.5t4 18.5v5q0 5 -6 9.5t-12 4.5h-5q-5 -1 -9.5 -7t-4.5 -13zM87 260q-2 0 0 -1v1zM75 380q-4 -4 -9 -4h-2q-5 0 -9 4l-50 53q-3 4 -3 8
q0 5 3.5 8.5t8.5 3.5t9 -4l41 -44l40 45q4 4 9 4t8.5 -3.5t3.5 -8.5q0 -4 -3 -8z" />
    <glyph glyph-name="Utilde" unicode="&#x168;" horiz-adv-x="788" 
d="M646 1q-12 1 -26.5 6t-26.5 13.5t-20 20t-8 25.5l-2 104q-28 -76 -80 -121t-121 -52h-1q-22 0 -43 5t-38 16.5t-27.5 30.5t-10.5 48v3l6 489q0 9 -5 19.5t-12.5 19.5t-16 15.5t-15.5 6.5q-1 -1 -6 -1q-28 0 -54.5 -22.5t-49 -54.5t-38.5 -67t-22 -61q-1 -4 -4.5 -6
t-5.5 -2h-4q-10 2 -10 15q6 25 21.5 60t38.5 68.5t51 59.5t60 32l15 3h15q12 -3 24 -12t21.5 -21t15 -26t5.5 -26l-6 -489q0 -38 22.5 -57t53.5 -20l19 -2l20 3q72 10 119 75t63 171l-2 386q0 13 11 13q13 0 13 -12l3 -371q1 -2 1 -7q-1 -5 -1 -13l1 -200q0 -8 5.5 -15
t14.5 -12.5t19.5 -9t20.5 -3.5h3q19 1 36.5 12.5t33 28.5t29.5 37t25 39v-2q3 8 10 8q3 0 6 -2t5 -3.5t2 -6.5q0 -4 -1 -6q-11 -19 -25.5 -41.5t-33 -41.5t-40 -32.5t-46.5 -14.5h-7zM305 691q0 -8 -4 -11t-9 -3q-8 0 -12 8.5t-4 19.5q0 24 18 37t41 13q17 0 32.5 -8.5
t23.5 -25.5q3 -11 11 -15t17 -4q14 0 26 8.5t12 22.5q0 2 -1 4.5t-2 5.5v1q0 7 4.5 10.5t9.5 3.5q9 0 12 -9t3 -18q0 -25 -20.5 -40t-44.5 -15q-14 0 -26.5 5.5t-20.5 19.5q-2 13 -13 20t-23 7q-11 0 -20.5 -5.5t-11.5 -17.5q2 -4 2 -8v-6z" />
    <glyph glyph-name="utilde" unicode="&#x169;" horiz-adv-x="463" 
d="M323 -3q-12 0 -26 5.5t-26.5 15t-20.5 22.5t-8 27v52q-8 -12 -19 -25.5t-22 -24.5q-29 -29 -62 -50.5t-64 -21.5q-15 0 -30 6.5t-28 18.5t-21 29t-8 38v207q0 4 3 8.5t8 4.5t9 -4.5t4 -8.5v-207q0 -15 6 -27.5t15.5 -21.5t20.5 -14t21 -5q23 0 52.5 19.5t55.5 45.5
q14 14 25 27.5t20 26.5h-2q14 22 16 31v3v2v118q0 13 13 13q11 0 11 -13v-120v-4v-103q0 -9 5.5 -17t14 -14.5t18.5 -10.5t19 -4q21 0 38 11t32 28q9 11 22 31t27 43q2 4 4.5 6t4.5 6q1 1 3.5 2.5t6.5 1.5q2 0 5 -1q7 -4 7 -12q0 -4 -2 -7h1q-3 -5 -6.5 -10t-6.5 -10
q-10 -15 -21 -31t-27 -36q-17 -20 -38 -33t-50 -13zM61 389q0 -7 -3.5 -10t-8.5 -3q-8 0 -11 7.5t-3 18.5q0 22 16.5 33.5t36.5 11.5q16 0 30 -7.5t21 -23.5q3 -9 10.5 -13t15.5 -4q12 0 23 7.5t11 20.5q0 3 -2 9v1q0 6 3.5 9.5t8.5 3.5q8 0 11 -8.5t3 -16.5
q0 -23 -18.5 -36.5t-40.5 -13.5q-13 0 -24 5.5t-19 17.5q-2 12 -12 18.5t-21 6.5q-10 0 -18.5 -5t-10.5 -16q2 -5 2 -13z" />
    <glyph glyph-name="Ydieresis" unicode="&#x178;" horiz-adv-x="740" 
d="M409 -393q34 0 57 22t37 54.5t20 68.5t6 65v123l33 20q53 33 103.5 73.5t83.5 93.5h-1q3 3 3 7t-1.5 5.5l-3.5 3.5t-4.5 2.5t-3.5 0.5q-4 0 -7 -3l-6 -6q-30 -48 -79 -86.5t-103 -70.5l-12 -9l4 686q0 5 -4 9t-9 4t-8 -4t-3 -9l-3 -274q-16 -40 -37.5 -82t-47.5 -76
t-55 -56t-59 -22h-3q-26 0 -45 10.5t-31 27t-18 37.5t-6 41v304q0 15 -6 33t-16.5 34t-25 26.5t-32.5 10.5q-30 0 -53 -16.5t-38 -39.5t-22.5 -47.5t-7.5 -40.5q0 -13 11 -13q5 0 9 3.5t4 8.5q1 15 7.5 36t19 39.5t30 32t40.5 13.5q11 0 21 -7.5t18 -19.5t12.5 -26t4.5 -27
v-304q0 -23 7 -48t22.5 -46t39.5 -34.5t58 -13.5q30 1 58.5 18t54 44.5t47.5 62.5t39 71l-3 -360l-32 -21q-35 -22 -66 -44t-54 -46t-37 -51t-14 -59v-3q0 -20 8.5 -42.5t23.5 -41t34.5 -30.5t40.5 -12zM409 -369q-15 0 -30 9.5t-27 24.5t-19 33t-7 35q0 27 13.5 51t36 46.5
t52.5 43.5t64 42l13 8v-107q-1 -29 -6.5 -61.5t-16.5 -60t-29 -46t-44 -18.5zM256 741q0 11 7.5 18t18.5 7t18.5 -7t7.5 -18t-7.5 -17.5t-18.5 -6.5t-18.5 6.5t-7.5 17.5zM359 739q0 11 7.5 18t18.5 7t18.5 -7t7.5 -18t-7.5 -17.5t-18.5 -6.5t-18.5 6.5t-7.5 17.5z" />
    <glyph glyph-name="Zcaron" unicode="&#x17d;" horiz-adv-x="725" 
d="M222 284q-3 0 -5 1l-4 2q-5 2 -5 10q0 2 0.5 3t0.5 3q27 38 52.5 51t50.5 13q12 0 22.5 -2t21.5 -5q2 10 4.5 19.5t5.5 19.5q12 44 24.5 86.5t28.5 78.5l6 15q-25 5 -50 12t-50 15q-45 14 -90 24.5t-93 10.5h-7q-20 0 -38.5 -8.5t-33 -22.5t-23.5 -31.5t-9 -35.5v-2
q0 -19 5.5 -37t15 -31.5t23.5 -22t31 -9.5q12 0 12 -11q0 -5 -4 -9t-9 -4q-24 1 -42.5 12t-31 28.5t-19.5 39t-7 44.5q0 22 11 44.5t29 40.5t41.5 29t48.5 11h7q50 0 95.5 -11t88.5 -25q27 -8 54.5 -15t50.5 -12l7 -2l4 8q17 31 40.5 49.5t52.5 18.5q33 0 48.5 -15t15.5 -35
q0 -21 -18.5 -40.5t-52.5 -19.5q-14 0 -27 0.5t-25 2.5l-25 4l-6 -13q-17 -38 -32 -87.5t-30 -107.5q-1 -8 -4 -16q3 -1 5 -1q3 0 5 -2q17 -6 31.5 -11t28.5 -5t29 7.5t31 24.5l-1 -2q2 5 4 5.5t6 0.5q1 0 3.5 -0.5t4.5 -2.5t2.5 -4.5t0.5 -3.5q0 -6 -3 -9
q-20 -23 -38.5 -31.5t-38.5 -8.5t-37.5 5.5t-33.5 13.5q-5 0 -6 1q0 -2 -0.5 -4t-0.5 -4q-15 -57 -31.5 -113t-41.5 -100l-3 -5l11 -4q17 -6 34 -14t33 -16q32 -16 65.5 -29t66.5 -18q6 -1 12 -1h12q32 0 58.5 10.5t48.5 27.5t40 38.5t33 44.5q3 3 6.5 6t6.5 3q1 0 4 -0.5
t5 -2.5q1 -2 2.5 -4.5t1.5 -5.5q0 -5 -3 -7h1q-15 -24 -35 -48t-45 -43.5t-56 -32t-68 -12.5h-7q-3 1 -9 1q-2 0 -5 1t-5 1q-41 4 -75.5 18t-66.5 30q-15 8 -30 15t-32 14l-17 6q-23 -40 -54.5 -62.5t-71.5 -22.5q-33 0 -49 16.5t-16 39.5v7t1 7q5 24 28 43.5t58 19.5
q49 0 87 -14l6 -3l4 6q23 43 40.5 100t33.5 120q-10 3 -19.5 5t-17.5 2q-20 0 -40 -11.5t-43 -41.5l-4 -4l1 1l-1 -1zM156 19q57 1 93 57l10 13q-20 8 -40.5 11t-40.5 3q-26 0 -42 -14.5t-20 -31.5q-1 -3 -1 -7q0 -12 9 -21.5t32 -9.5zM528 591q23 2 35 12.5t12 23.5
q0 10 -10 18t-30 8q-20 -2 -38 -15t-32 -39l-2 -2l18 -3q11 -2 23 -2.5t24 -0.5zM339 682q-5 -4 -10 -4h-2q-6 0 -10 4l-55 58q-3 6 -3 9q0 13 13 13q5 0 10 -4l45 -48l44 49q5 5 10 5t9 -4.5t4 -9.5q0 -4 -4 -8z" />
    <glyph glyph-name="zcaron" unicode="&#x17e;" horiz-adv-x="391" 
d="M141 -400q-16 0 -28 10.5t-19.5 25.5t-11 31.5t-3.5 29.5q0 63 32.5 120.5t81.5 112.5l46 51l-3 5q-11 26 -32.5 43t-44.5 18q-8 0 -17 -2t-17 -4q-10 -2 -21 -3.5t-28 -3.5q-11 0 -11 12q0 6 4 10q18 14 38 38.5t38 51.5t33.5 54t24.5 47l2 4l-4 2q-7 1 -15 1h-17
q-17 0 -36.5 1t-36.5 6l-5 -12q-8 -15 -19 -31.5t-24 -33.5q-9 -11 -18.5 -23t-17.5 -28q-5 -7 -13 -7h-4q-6 6 -6 13v4q8 15 19 30t23 30l18 26t17 28l6 12l-3 1q-37 14 -37 56q0 17 13.5 34t33.5 17q10 0 16.5 -5.5t10.5 -13.5t5.5 -16.5t1.5 -14.5q0 -12 -1 -21.5
t-4 -19.5l-2 -2h3q17 -2 34.5 -3t34.5 -2q30 0 48 -5h-1q11 0 11 -10q0 -4 -1 -5q-5 -14 -17 -37.5t-28.5 -51.5t-36 -56t-40.5 -50l5 2q10 2 19.5 3.5t21.5 1.5q26 0 49.5 -14.5t37.5 -37.5h-1l11 -19l36 39q25 26 47 53.5t42 54.5l-2 -1q3 7 12 7q4 0 7 -3q1 -2 2.5 -4.5
t1.5 -5.5q0 -4 -3 -7q-20 -28 -42 -55.5t-46 -54.5l-43 -46l4 -8q5 -12 7 -24.5t2 -25.5q0 -45 -12 -99t-30 -101q-9 -24 -20 -45.5t-23.5 -38t-26.5 -26t-28 -9.5zM141 -376q17 0 36.5 27.5t38.5 75.5q17 47 28.5 98.5t11.5 93.5q0 8 -2 17.5t-5 19.5l-36 -40
q-46 -52 -77 -106.5t-31 -112.5q0 -12 2.5 -24.5t7 -23.5t11.5 -18t15 -7zM56 326q0 -13 7 -21t19 -14q5 9 6 18.5t1 17.5q0 10 -3.5 18t-6.5 8q-8 0 -15.5 -8.5t-7.5 -18.5zM144 380q-4 -4 -9 -4h-2q-5 0 -9 4l-50 53q-3 4 -3 8q0 5 3.5 8.5t8.5 3.5t9 -4l41 -44l40 45
q4 4 9 4t8.5 -3.5t3.5 -8.5q0 -4 -3 -8z" />
    <glyph glyph-name="Ohorn" unicode="&#x1a0;" horiz-adv-x="711" 
d="M505 608q35 -29 57 -61q37 13 72 36t67 58l-2 -1q2 5 4.5 5.5t5.5 0.5q2 0 4.5 -0.5t4.5 -2.5q1 -2 2.5 -4.5t1.5 -5.5q0 -4 -3 -7q-31 -38 -67.5 -62t-75.5 -38q25 -42 38.5 -88t14.5 -98v-3q0 -70 -24 -131.5t-66 -107t-98 -72.5t-120 -27h-3q-65 0 -121.5 26.5
t-98.5 72t-66.5 107t-25.5 131.5v3q0 69 24.5 130.5t66.5 107.5t98.5 73t120.5 27h3q7 0 13 -0.5t13 -0.5h2q1 0 2 -2q66 -6 139 -53q32 8 44 28l1 4q-15 13 -6 28q9 18 26 8q9 -4 13 -14t0 -18q-5 -12 -22 -28q-20 -16 -39 -21zM462 506q-5 0 -8.5 0.5t-8.5 0.5h-10
q-4 0 -9 2q-33 5 -58 18t-40 34q-7 11 -11 21.5t-4 23.5q0 11 2.5 22.5t9.5 24.5h-9q-58 -1 -109.5 -26t-90.5 -67.5t-61.5 -99.5t-22.5 -121v-3q0 -65 22.5 -122t61.5 -99.5t91 -67t111 -24.5h3q58 0 109.5 25t90.5 67.5t61.5 99.5t22.5 122v3q-2 50 -16 94.5t-37 82.5
q-23 -6 -44.5 -8.5t-41.5 -2.5h-4zM536 540q-34 45 -81.5 73.5t-103.5 36.5q-7 -12 -9.5 -23t-2.5 -20q0 -19 14 -37q19 -27 78 -36q8 -1 17.5 -2t19.5 -1q33 0 68 9z" />
    <glyph glyph-name="ohorn" unicode="&#x1a1;" horiz-adv-x="448" 
d="M280 218q23 -41 22 -74q0 -21 -6 -40q12 -3 22.5 -4t21.5 -1q27 0 52.5 11t43.5 37q4 4 10 4q4 0 7 -2l-1 1q5 -2 5.5 -4.5t0.5 -5.5q0 -1 -0.5 -4t-2.5 -5q-24 -31 -53 -44t-60 -13q-30 0 -54 7q-20 -39 -58 -63t-87 -24q-33 0 -61.5 11.5t-50 32t-34 47.5t-12.5 59
t12.5 59.5t34 48t50 32.5t61.5 12t64 -13t64 -49q19 2 31 22l1 4q-15 13 -6 28q9 18 26 8q9 -4 13 -14t0 -18q-5 -12 -22 -28q-20 -14 -34 -18zM278 144q0 35 -19.5 64.5t-50.5 45.5q-15 -8 -20.5 -21t-5.5 -27q0 -22 25 -49t66 -44q5 17 5 31zM143 19q40 0 72 20t48 51
q-21 10 -40.5 23.5t-34.5 28.5t-23.5 31.5t-8.5 32.5t5 31.5t19 26.5q-9 4 -18 5t-19 1q-28 0 -52.5 -10t-42.5 -27t-28.5 -40t-10.5 -49t10.5 -48.5t28.5 -39.5t42.5 -27t52.5 -10z" />
    <glyph glyph-name="Uhorn" unicode="&#x1af;" horiz-adv-x="788" 
d="M585 605l3 -319q1 -2 1 -7q-1 -5 -1 -13l1 -200q0 -8 5.5 -15t14.5 -12.5t19.5 -9t20.5 -3.5h3q19 1 36.5 12.5t33 28.5t29.5 37t25 39v-2q3 8 10 8q3 0 6 -2t5 -3.5t2 -6.5q0 -4 -1 -6q-11 -19 -25.5 -41.5t-33 -41.5t-40 -32.5t-46.5 -14.5h-7q-12 1 -26.5 6
t-26.5 13.5t-20 20t-8 25.5l-2 104q-28 -76 -80 -121t-121 -52h-1q-22 0 -43 5t-38 16.5t-27.5 30.5t-10.5 48v3l6 489q0 9 -5 19.5t-12.5 19.5t-16 15.5t-15.5 6.5q-1 -1 -6 -1q-28 0 -54.5 -22.5t-49 -54.5t-38.5 -67t-22 -61q-1 -4 -4.5 -6t-5.5 -2h-4q-10 2 -10 15
q6 25 21.5 60t38.5 68.5t51 59.5t60 32l15 3h15q12 -3 24 -12t21.5 -21t15 -26t5.5 -26l-6 -489q0 -38 22.5 -57t53.5 -20l19 -2l20 3q72 10 119 75t63 171l-2 386q0 13 11 13q13 0 13 -12v-31q24 3 37 21l1 4q-15 13 -6 28q9 18 26 8q9 -4 13 -14t0 -18q-5 -12 -22 -28
q-20 -16 -49 -22z" />
    <glyph glyph-name="uhorn" unicode="&#x1b0;" horiz-adv-x="463" 
d="M266 246v-179q0 -9 5.5 -17t14 -14.5t18.5 -10.5t19 -4q21 0 38 11t32 28q9 11 22 31t27 43q2 4 4.5 6t4.5 6q1 1 3.5 2.5t6.5 1.5q2 0 5 -1q7 -4 7 -12q0 -4 -2 -7h1q-3 -5 -6.5 -10t-6.5 -10q-10 -15 -21 -31t-27 -36q-17 -20 -38 -33t-50 -13q-12 0 -26 5.5t-26.5 15
t-20.5 22.5t-8 27v52q-8 -12 -19 -25.5t-22 -24.5q-29 -29 -62 -50.5t-64 -21.5q-15 0 -30 6.5t-28 18.5t-21 29t-8 38v207q0 4 3 8.5t8 4.5t9 -4.5t4 -8.5v-207q0 -15 6 -27.5t15.5 -21.5t20.5 -14t21 -5q23 0 52.5 19.5t55.5 45.5q14 14 25 27.5t20 26.5h-2q14 22 16 31
v123q0 13 13 13q11 0 11 -13v-29q23 1 36 19l1 4q-15 13 -6 28q9 18 26 8q9 -4 13 -14t0 -18q-5 -12 -22 -28q-20 -16 -48 -18z" />
    <glyph glyph-name="circumflex" unicode="&#x2c6;" horiz-adv-x="550" 
d="M173 688q-3 -3 -8 -3q-12 0 -12 13q0 6 6 12l70 44q2 2 8 2h1q1 0 2 0.5t3 0.5q5 0 8 -3l65 -48q5 -4 5 -11q0 -5 -3.5 -9.5t-9.5 -4.5q-5 0 -8 3l-61 45l-66 -41v0z" />
    <glyph glyph-name="caron" unicode="&#x2c7;" horiz-adv-x="550" 
d="M262 682q-5 -4 -10 -4h-2q-6 0 -10 4l-55 58q-3 6 -3 9q0 13 13 13q5 0 10 -4l45 -48l44 49q5 5 10 5t9 -4.5t4 -9.5q0 -4 -4 -8l-51 -60v0z" />
    <glyph glyph-name="breve" unicode="&#x2d8;" horiz-adv-x="550" 
d="M183 724q-1 2 -1 5q0 14 13 14q9 0 12 -10q2 -13 13.5 -18.5t23.5 -5.5q13 0 20 6t11.5 12.5t8.5 12.5t10 6q5 0 9 -4t4 -9v-4q-4 -23 -22.5 -35t-41.5 -12q-20 0 -37.5 10.5t-22.5 31.5z" />
    <glyph glyph-name="ring" unicode="&#x2da;" horiz-adv-x="550" 
d="M246 760q16 0 30 -11.5t14 -31.5q0 -17 -14 -30t-32 -13q-20 0 -27.5 3.5t-15.5 11.5q-8 12 -8 25q0 20 16.5 33t36.5 13zM260 727q-6 6 -17 6q-9 0 -16 -5t-7 -15q1 -8 7 -9.5t15 -1.5q7 0 14 3t7 11q0 3 -1 6t-2 5z" />
    <glyph glyph-name="tilde" unicode="&#x2dc;" horiz-adv-x="550" 
d="M163 691q0 -8 -4 -11t-9 -3q-8 0 -12 8.5t-4 19.5q0 24 18 37t41 13q17 0 32.5 -8.5t23.5 -25.5q3 -11 11 -15t17 -4q14 0 26 8.5t12 22.5q0 2 -1 4.5t-2 5.5v1q0 7 4.5 10.5t9.5 3.5q9 0 12 -9t3 -18q0 -25 -20.5 -40t-44.5 -15q-14 0 -26.5 5.5t-20.5 19.5
q-2 13 -13 20t-23 7q-11 0 -20.5 -5.5t-11.5 -17.5q2 -4 2 -8v-6z" />
    <glyph glyph-name="uni1EA0" unicode="&#x1ea0;" horiz-adv-x="797" 
d="M450 -150q0 11 7 17.5t18 6.5q10 0 17 -6.5t7 -17.5q0 -10 -7 -16.5t-17 -6.5q-11 0 -18 6.5t-7 16.5zM653 -4q-14 0 -29 7t-27.5 18t-20.5 26t-8 30v206q-26 -68 -68 -120.5t-90 -89t-96.5 -56t-85.5 -20.5h-10q-46 0 -85 17.5t-67 46.5t-44 65t-16 74q0 51 15.5 104.5
t45.5 105t72.5 97t97.5 79.5t120.5 54t140.5 20q20 0 40.5 -1t42.5 -5q8 -1 10 -6t2 -9v-560q0 -12 6.5 -23t16.5 -18.5t22 -12t24 -4.5q3 0 7 1t9 2q14 5 28.5 16.5t28 27.5t25.5 35t22 38q1 5 4 6.5t6 1.5q5 0 9 -4.5t4 -8.5v-5q-14 -25 -30 -49.5t-34.5 -43.5
t-39.5 -30.5t-43 -11.5h-5zM566 373v4v28q0 25 0.5 77.5t1.5 148.5q-19 2 -35.5 3.5t-33.5 1.5q-72 0 -134.5 -19t-114.5 -52t-92.5 -76.5t-69 -92t-43 -100t-14.5 -99.5q0 -32 14.5 -63.5t39.5 -56.5t59.5 -40.5t74.5 -15.5h7q39 2 91.5 26t103 68.5t90.5 109.5t55 148z
" />
    <glyph glyph-name="uni1EA1" unicode="&#x1ea1;" 
d="M180 -150q0 11 7 17.5t18 6.5q10 0 17 -6.5t7 -17.5q0 -10 -7 -16.5t-17 -6.5q-11 0 -18 6.5t-7 16.5zM339 -4q-15 0 -28.5 7.5t-24 19.5t-17 26t-7.5 28q-26 -32 -68 -56.5t-90 -24.5q-21 0 -42 9t-38 24t-28 35t-11 42v1q0 52 30 89.5t73.5 61t91 34.5t82.5 11h7h3h3
q2 -2 3 -2t3 -1q1 -1 1 -3q0 -1 2 -3v-3l1 -164q2 -1 2 -2v-1v-4q0 -1 -1 -1h-1l2 -36q0 -11 4.5 -22t12 -20t17 -15t18.5 -6q11 0 28 11.5t37 29.5q17 17 34.5 40t30.5 43v-1q2 5 5.5 6t6.5 1q4 0 7 -3l-1 2q7 -5 7 -12q0 -4 -3 -7q-13 -20 -31.5 -43t-38.5 -43
q-20 -18 -41 -33t-41 -15zM104 20q28 0 53.5 10t46.5 26t36 34.5t21 35.5l-2 153q-33 -1 -76 -11t-81.5 -31t-65.5 -52.5t-27 -75.5v-2q0 -17 8.5 -32.5t22 -27.5t30.5 -19.5t34 -7.5z" />
    <glyph glyph-name="uni1EA2" unicode="&#x1ea2;" horiz-adv-x="797" 
d="M468 718q-17 0 -17 12q0 15 17 26q16 9 35 9q20 0 32 -9q14 -11 14 -28q1 -18 -19 -25l-14 -2q-13 -2 -19 -6q-6 -6 -4 -10q1 -8 -7.5 -6.5t-10.5 4.5q-1 3 -1 8q-1 12 16 17q9 2 22 4q14 3 16 16q1 19 -25 22q-15 0 -25 -7q-6 -5 -7 -13q-1 -5 2 -5v0h1q3 0 3 -4
q0 -2 -3 -2.5t-6 -0.5zM658 -4q22 0 43 11.5t39.5 30.5t34.5 43.5t30 49.5v5q0 4 -4 8.5t-9 4.5q-3 0 -6 -1.5t-4 -6.5q-10 -19 -22 -38t-25.5 -35t-28 -27.5t-28.5 -16.5q-5 -1 -9 -2t-7 -1q-12 0 -24 4.5t-22 12t-16.5 18.5t-6.5 23v560q0 4 -2 9t-10 6q-22 4 -42.5 5
t-40.5 1q-75 0 -140.5 -20t-120.5 -54t-97.5 -79.5t-72.5 -97t-45.5 -105t-15.5 -104.5q0 -38 16 -74t44 -65t67 -46.5t85 -17.5h10q37 1 85.5 20.5t96.5 56t90 89t68 120.5v-206q0 -15 8 -30t20.5 -26t27.5 -18t29 -7h5zM566 373q-15 -83 -55 -148t-90.5 -109.5t-103 -68.5
t-91.5 -26h-7q-40 0 -74.5 15.5t-59.5 40.5t-39.5 56.5t-14.5 63.5q0 48 14.5 99.5t43 100t69 92t92.5 76.5t114.5 52t134.5 19q17 0 33.5 -1.5t35.5 -3.5q-1 -96 -1.5 -148.5t-0.5 -77.5v-28v-4z" />
    <glyph glyph-name="uni1EA3" unicode="&#x1ea3;" 
d="M339 -4q20 0 41 15t41 33q20 20 38.5 43t31.5 43q3 3 3 7q0 7 -7 12l1 -2q-3 3 -7 3q-3 0 -6.5 -1t-5.5 -6v1q-13 -20 -30.5 -43t-34.5 -40q-20 -18 -37 -29.5t-28 -11.5q-9 0 -18.5 6t-17 15t-12 20t-4.5 22l-2 36h1t1 1v4v1t-2 2l-1 164v3q-2 2 -2 3q0 2 -1 3
q-2 1 -3 1t-3 2h-3h-3h-7q-35 0 -82.5 -11t-91 -34.5t-73.5 -61t-30 -89.5v-1q0 -22 11 -42t28 -35t38 -24t42 -9q48 0 90 24.5t68 56.5q1 -14 7.5 -28t17 -26t24 -19.5t28.5 -7.5zM104 20q-17 0 -34 7.5t-30.5 19.5t-22 27.5t-8.5 32.5v2q0 44 27 75.5t65.5 52.5t81.5 31
t76 11l2 -153q-6 -17 -21 -35.5t-36 -34.5t-46.5 -26t-53.5 -10zM196 398q-17 0 -17 12q0 15 17 26q16 9 35 9q20 0 32 -9q14 -11 14 -28q1 -18 -19 -25l-14 -2q-13 -2 -19 -6q-6 -6 -4 -10q1 -8 -7.5 -6.5t-10.5 4.5q-1 3 -1 8q-1 12 16 17q9 2 22 4q14 3 16 16
q1 19 -25 22q-15 0 -25 -7q-6 -5 -7 -13q-1 -5 2 -5v0h1q3 0 3 -4q0 -2 -3 -2.5t-6 -0.5z" />
    <glyph glyph-name="uni1EA4" unicode="&#x1ea4;" horiz-adv-x="797" 
d="M535 762q4 3 11 3q5 0 9.5 -2t4.5 -5q0 -2 -3 -4q-18 -11 -43 -19t-54 -8h-8q-14 0 -14 6q0 3 3 5t11 2h9q23 0 41.5 6t32.5 16zM653 -4q-14 0 -29 7t-27.5 18t-20.5 26t-8 30v206q-26 -68 -68 -120.5t-90 -89t-96.5 -56t-85.5 -20.5h-10q-46 0 -85 17.5t-67 46.5t-44 65
t-16 74q0 51 15.5 104.5t45.5 105t72.5 97t97.5 79.5t120.5 54t140.5 20q20 0 40.5 -1t42.5 -5q8 -1 10 -6t2 -9v-560q0 -12 6.5 -23t16.5 -18.5t22 -12t24 -4.5q3 0 7 1t9 2q14 5 28.5 16.5t28 27.5t25.5 35t22 38q1 5 4 6.5t6 1.5q5 0 9 -4.5t4 -8.5v-5q-14 -25 -30 -49.5
t-34.5 -43.5t-39.5 -30.5t-43 -11.5h-5zM566 373v4v28q0 25 0.5 77.5t1.5 148.5q-19 2 -35.5 3.5t-33.5 1.5q-72 0 -134.5 -19t-114.5 -52t-92.5 -76.5t-69 -92t-43 -100t-14.5 -99.5q0 -32 14.5 -63.5t39.5 -56.5t59.5 -40.5t74.5 -15.5h7q39 2 91.5 26t103 68.5
t90.5 109.5t55 148zM435 679q-3 -1 -8 -1q-12 0 -12 6q0 3 6 6l70 22q2 1 8 1h1q1 0 2 0.5t3 0.5q5 0 8 -2l65 -24q5 -2 5 -5t-3.5 -5t-9.5 -2q-5 0 -8 1l-61 23z" />
    <glyph glyph-name="uni1EA5" unicode="&#x1ea5;" 
d="M270 537q4 6 11 6q5 0 9.5 -4t4.5 -10q0 -4 -3 -7q-18 -23 -43 -39t-54 -16h-8q-14 0 -14 13q0 5 3 9t11 4h9q23 0 41.5 12t32.5 32zM339 -4q-15 0 -28.5 7.5t-24 19.5t-17 26t-7.5 28q-26 -32 -68 -56.5t-90 -24.5q-21 0 -42 9t-38 24t-28 35t-11 42v1q0 52 30 89.5
t73.5 61t91 34.5t82.5 11h7h3h3q2 -2 3 -2t3 -1q1 -1 1 -3q0 -1 2 -3v-3l1 -164q2 -1 2 -2v-1v-4q0 -1 -1 -1h-1l2 -36q0 -11 4.5 -22t12 -20t17 -15t18.5 -6q11 0 28 11.5t37 29.5q17 17 34.5 40t30.5 43v-1q2 5 5.5 6t6.5 1q4 0 7 -3l-1 2q7 -5 7 -12q0 -4 -3 -7
q-13 -20 -31.5 -43t-38.5 -43q-20 -18 -41 -33t-41 -15zM104 20q28 0 53.5 10t46.5 26t36 34.5t21 35.5l-2 153q-33 -1 -76 -11t-81.5 -31t-65.5 -52.5t-27 -75.5v-2q0 -17 8.5 -32.5t22 -27.5t30.5 -19.5t34 -7.5zM174 380q-2 -2 -7 -2q-11 0 -11 11q0 6 6 11l63 40
q2 2 7 2h1q1 0 2 0.5t3 0.5q4 0 7 -3l59 -43q5 -4 5 -10q0 -13 -12 -13q-4 0 -7 3l-56 41z" />
    <glyph glyph-name="uni1EA6" unicode="&#x1ea6;" horiz-adv-x="797" 
d="M451 751q-8 2 -8 6q0 3 4.5 5t10.5 2q2 0 6 -1l88 -24q8 -2 8 -6q0 -3 -4.5 -5t-10.5 -2q-3 0 -6 1zM653 -4q-14 0 -29 7t-27.5 18t-20.5 26t-8 30v206q-26 -68 -68 -120.5t-90 -89t-96.5 -56t-85.5 -20.5h-10q-46 0 -85 17.5t-67 46.5t-44 65t-16 74q0 51 15.5 104.5
t45.5 105t72.5 97t97.5 79.5t120.5 54t140.5 20q20 0 40.5 -1t42.5 -5q8 -1 10 -6t2 -9v-560q0 -12 6.5 -23t16.5 -18.5t22 -12t24 -4.5q3 0 7 1t9 2q14 5 28.5 16.5t28 27.5t25.5 35t22 38q1 5 4 6.5t6 1.5q5 0 9 -4.5t4 -8.5v-5q-14 -25 -30 -49.5t-34.5 -43.5
t-39.5 -30.5t-43 -11.5h-5zM566 373v4v28q0 25 0.5 77.5t1.5 148.5q-19 2 -35.5 3.5t-33.5 1.5q-72 0 -134.5 -19t-114.5 -52t-92.5 -76.5t-69 -92t-43 -100t-14.5 -99.5q0 -32 14.5 -63.5t39.5 -56.5t59.5 -40.5t74.5 -15.5h7q39 2 91.5 26t103 68.5t90.5 109.5t55 148z
M435 678q-3 -1 -8 -1q-12 0 -12 6q0 3 6 6l70 22q2 1 8 1h1q1 0 2 0.5t3 0.5q5 0 8 -2l65 -24q5 -2 5 -5t-3.5 -5t-9.5 -2q-5 0 -8 1l-61 23z" />
    <glyph glyph-name="uni1EA7" unicode="&#x1ea7;" 
d="M184 516q-8 4 -8 12q0 6 4.5 10t10.5 4q2 0 6 -2l88 -47q8 -5 8 -12q0 -6 -4.5 -10.5t-10.5 -4.5q-3 0 -6 3zM339 -4q-15 0 -28.5 7.5t-24 19.5t-17 26t-7.5 28q-26 -32 -68 -56.5t-90 -24.5q-21 0 -42 9t-38 24t-28 35t-11 42v1q0 52 30 89.5t73.5 61t91 34.5t82.5 11h7
h3h3q2 -2 3 -2t3 -1q1 -1 1 -3q0 -1 2 -3v-3l1 -164q2 -1 2 -2v-1v-4q0 -1 -1 -1h-1l2 -36q0 -11 4.5 -22t12 -20t17 -15t18.5 -6q11 0 28 11.5t37 29.5q17 17 34.5 40t30.5 43v-1q2 5 5.5 6t6.5 1q4 0 7 -3l-1 2q7 -5 7 -12q0 -4 -3 -7q-13 -20 -31.5 -43t-38.5 -43
q-20 -18 -41 -33t-41 -15zM104 20q28 0 53.5 10t46.5 26t36 34.5t21 35.5l-2 153q-33 -1 -76 -11t-81.5 -31t-65.5 -52.5t-27 -75.5v-2q0 -17 8.5 -32.5t22 -27.5t30.5 -19.5t34 -7.5zM174 380q-2 -2 -7 -2q-11 0 -11 11q0 6 6 11l63 40q2 2 7 2h1q1 0 2 0.5t3 0.5q4 0 7 -3
l59 -43q5 -4 5 -10q0 -13 -12 -13q-4 0 -7 3l-56 41z" />
    <glyph glyph-name="uni1EA8" unicode="&#x1ea8;" horiz-adv-x="797" 
d="M658 -4q22 0 43 11.5t39.5 30.5t34.5 43.5t30 49.5v5q0 4 -4 8.5t-9 4.5q-3 0 -6 -1.5t-4 -6.5q-10 -19 -22 -38t-25.5 -35t-28 -27.5t-28.5 -16.5q-5 -1 -9 -2t-7 -1q-12 0 -24 4.5t-22 12t-16.5 18.5t-6.5 23v560q0 4 -2 9t-10 6q-22 4 -42.5 5t-40.5 1
q-75 0 -140.5 -20t-120.5 -54t-97.5 -79.5t-72.5 -97t-45.5 -105t-15.5 -104.5q0 -38 16 -74t44 -65t67 -46.5t85 -17.5h10q37 1 85.5 20.5t96.5 56t90 89t68 120.5v-206q0 -15 8 -30t20.5 -26t27.5 -18t29 -7h5zM566 373q-15 -83 -55 -148t-90.5 -109.5t-103 -68.5
t-91.5 -26h-7q-40 0 -74.5 15.5t-59.5 40.5t-39.5 56.5t-14.5 63.5q0 48 14.5 99.5t43 100t69 92t92.5 76.5t114.5 52t134.5 19q17 0 33.5 -1.5t35.5 -3.5q-1 -96 -1.5 -148.5t-0.5 -77.5v-28v-4zM435 675q-3 -1 -8 -1q-12 0 -12 6q0 3 6 6l70 22q2 1 8 1h1q1 0 2 0.5t3 0.5
q5 0 8 -2l65 -24q5 -2 5 -5t-3.5 -5t-9.5 -2q-5 0 -8 1l-61 23zM470 742q-17 0 -17 6q0 8 17 13q16 5 35 5q20 0 32 -5q14 -5 14 -14q1 -9 -19 -12l-14 -1q-13 -1 -19 -3q-6 -3 -4 -5q1 -4 -7.5 -3.5t-10.5 2.5q-1 1 -1 4q-1 6 16 8q9 1 22 2q14 2 16 8q1 10 -25 11
q-15 0 -25 -3q-6 -3 -7 -7q-1 -2 2 -2v0h1q3 0 3 -2q0 -1 -3 -1.5t-6 -0.5z" />
    <glyph glyph-name="uni1EA9" unicode="&#x1ea9;" 
d="M339 -4q20 0 41 15t41 33q20 20 38.5 43t31.5 43q3 3 3 7q0 7 -7 12l1 -2q-3 3 -7 3q-3 0 -6.5 -1t-5.5 -6v1q-13 -20 -30.5 -43t-34.5 -40q-20 -18 -37 -29.5t-28 -11.5q-9 0 -18.5 6t-17 15t-12 20t-4.5 22l-2 36h1t1 1v4v1t-2 2l-1 164v3q-2 2 -2 3q0 2 -1 3
q-2 1 -3 1t-3 2h-3h-3h-7q-35 0 -82.5 -11t-91 -34.5t-73.5 -61t-30 -89.5v-1q0 -22 11 -42t28 -35t38 -24t42 -9q48 0 90 24.5t68 56.5q1 -14 7.5 -28t17 -26t24 -19.5t28.5 -7.5zM104 20q-17 0 -34 7.5t-30.5 19.5t-22 27.5t-8.5 32.5v2q0 44 27 75.5t65.5 52.5t81.5 31
t76 11l2 -153q-6 -17 -21 -35.5t-36 -34.5t-46.5 -26t-53.5 -10zM174 380l60 38l56 -41q3 -3 7 -3q12 0 12 13q0 6 -5 10l-59 43q-3 3 -7 3q-2 0 -3 -0.5t-2 -0.5h-1q-5 0 -7 -2l-63 -40q-6 -5 -6 -11q0 -11 11 -11q5 0 7 2zM200 505q-17 0 -17 12q0 15 17 26q16 9 35 9
q20 0 32 -9q14 -11 14 -28q1 -18 -19 -25l-14 -2q-13 -2 -19 -6q-6 -6 -4 -10q1 -8 -7.5 -6.5t-10.5 4.5q-1 3 -1 8q-1 12 16 17q9 2 22 4q14 3 16 16q1 19 -25 22q-15 0 -25 -7q-6 -5 -7 -13q-1 -5 2 -5v0h1q3 0 3 -4q0 -2 -3 -2.5t-6 -0.5z" />
    <glyph glyph-name="uni1EAA" unicode="&#x1eaa;" horiz-adv-x="797" 
d="M426 734q0 -4 -4 -5.5t-9 -1.5q-8 0 -12 4t-4 10q0 11 18 17.5t41 6.5q17 0 32.5 -4t23.5 -13q3 -5 11 -7t17 -2q14 0 26 4t12 11q0 1 -1 2.5t-2 2.5v1q0 3 4.5 5t9.5 2q9 0 12 -4.5t3 -9.5q0 -12 -20.5 -19.5t-44.5 -7.5q-14 0 -26.5 3t-20.5 10q-2 6 -13 9.5t-23 3.5
q-11 0 -20.5 -3t-11.5 -8q2 -2 2 -4v-3zM653 -4q-14 0 -29 7t-27.5 18t-20.5 26t-8 30v206q-26 -68 -68 -120.5t-90 -89t-96.5 -56t-85.5 -20.5h-10q-46 0 -85 17.5t-67 46.5t-44 65t-16 74q0 51 15.5 104.5t45.5 105t72.5 97t97.5 79.5t120.5 54t140.5 20q20 0 40.5 -1
t42.5 -5q8 -1 10 -6t2 -9v-560q0 -12 6.5 -23t16.5 -18.5t22 -12t24 -4.5q3 0 7 1t9 2q14 5 28.5 16.5t28 27.5t25.5 35t22 38q1 5 4 6.5t6 1.5q5 0 9 -4.5t4 -8.5v-5q-14 -25 -30 -49.5t-34.5 -43.5t-39.5 -30.5t-43 -11.5h-5zM566 373v4v28q0 25 0.5 77.5t1.5 148.5
q-19 2 -35.5 3.5t-33.5 1.5q-72 0 -134.5 -19t-114.5 -52t-92.5 -76.5t-69 -92t-43 -100t-14.5 -99.5q0 -32 14.5 -63.5t39.5 -56.5t59.5 -40.5t74.5 -15.5h7q39 2 91.5 26t103 68.5t90.5 109.5t55 148zM435 678q-3 -1 -8 -1q-12 0 -12 6q0 3 6 6l70 22q2 1 8 1h1q1 0 2 0.5
t3 0.5q5 0 8 -2l65 -24q5 -2 5 -5t-3.5 -5t-9.5 -2q-5 0 -8 1l-61 23z" />
    <glyph glyph-name="uni1EAB" unicode="&#x1eab;" 
d="M160 481q0 -8 -4 -11t-9 -3q-8 0 -12 8.5t-4 19.5q0 24 18 37t41 13q17 0 32.5 -8.5t23.5 -25.5q3 -11 11 -15t17 -4q14 0 26 8.5t12 22.5q0 2 -1 4.5t-2 5.5v1q0 7 4.5 10.5t9.5 3.5q9 0 12 -9t3 -18q0 -25 -20.5 -40t-44.5 -15q-14 0 -26.5 5.5t-20.5 19.5
q-2 13 -13 20t-23 7q-11 0 -20.5 -5.5t-11.5 -17.5q2 -4 2 -8v-6zM339 -4q-15 0 -28.5 7.5t-24 19.5t-17 26t-7.5 28q-26 -32 -68 -56.5t-90 -24.5q-21 0 -42 9t-38 24t-28 35t-11 42v1q0 52 30 89.5t73.5 61t91 34.5t82.5 11h7h3h3q2 -2 3 -2t3 -1q1 -1 1 -3q0 -1 2 -3v-3
l1 -164q2 -1 2 -2v-1v-4q0 -1 -1 -1h-1l2 -36q0 -11 4.5 -22t12 -20t17 -15t18.5 -6q11 0 28 11.5t37 29.5q17 17 34.5 40t30.5 43v-1q2 5 5.5 6t6.5 1q4 0 7 -3l-1 2q7 -5 7 -12q0 -4 -3 -7q-13 -20 -31.5 -43t-38.5 -43q-20 -18 -41 -33t-41 -15zM104 20q28 0 53.5 10
t46.5 26t36 34.5t21 35.5l-2 153q-33 -1 -76 -11t-81.5 -31t-65.5 -52.5t-27 -75.5v-2q0 -17 8.5 -32.5t22 -27.5t30.5 -19.5t34 -7.5zM174 380q-2 -2 -7 -2q-11 0 -11 11q0 6 6 11l63 40q2 2 7 2h1q1 0 2 0.5t3 0.5q4 0 7 -3l59 -43q5 -4 5 -10q0 -13 -12 -13q-4 0 -7 3
l-56 41z" />
    <glyph glyph-name="uni1EAC" unicode="&#x1eac;" horiz-adv-x="797" 
d="M435 688q-3 -3 -8 -3q-12 0 -12 13q0 6 6 12l70 44q2 2 8 2h1q1 0 2 0.5t3 0.5q5 0 8 -3l65 -48q5 -4 5 -11q0 -5 -3.5 -9.5t-9.5 -4.5q-5 0 -8 3l-61 45zM450 -150q0 11 7 17.5t18 6.5q10 0 17 -6.5t7 -17.5q0 -10 -7 -16.5t-17 -6.5q-11 0 -18 6.5t-7 16.5zM653 -4
q-14 0 -29 7t-27.5 18t-20.5 26t-8 30v206q-26 -68 -68 -120.5t-90 -89t-96.5 -56t-85.5 -20.5h-10q-46 0 -85 17.5t-67 46.5t-44 65t-16 74q0 51 15.5 104.5t45.5 105t72.5 97t97.5 79.5t120.5 54t140.5 20q20 0 40.5 -1t42.5 -5q8 -1 10 -6t2 -9v-560q0 -12 6.5 -23
t16.5 -18.5t22 -12t24 -4.5q3 0 7 1t9 2q14 5 28.5 16.5t28 27.5t25.5 35t22 38q1 5 4 6.5t6 1.5q5 0 9 -4.5t4 -8.5v-5q-14 -25 -30 -49.5t-34.5 -43.5t-39.5 -30.5t-43 -11.5h-5zM566 373v4v28q0 25 0.5 77.5t1.5 148.5q-19 2 -35.5 3.5t-33.5 1.5q-72 0 -134.5 -19
t-114.5 -52t-92.5 -76.5t-69 -92t-43 -100t-14.5 -99.5q0 -32 14.5 -63.5t39.5 -56.5t59.5 -40.5t74.5 -15.5h7q39 2 91.5 26t103 68.5t90.5 109.5t55 148z" />
    <glyph glyph-name="uni1EAD" unicode="&#x1ead;" 
d="M174 380q-2 -2 -7 -2q-11 0 -11 11q0 6 6 11l63 40q2 2 7 2h1q1 0 2 0.5t3 0.5q4 0 7 -3l59 -43q5 -4 5 -10q0 -13 -12 -13q-4 0 -7 3l-56 41zM180 -150q0 11 7 17.5t18 6.5q10 0 17 -6.5t7 -17.5q0 -10 -7 -16.5t-17 -6.5q-11 0 -18 6.5t-7 16.5zM339 -4
q-15 0 -28.5 7.5t-24 19.5t-17 26t-7.5 28q-26 -32 -68 -56.5t-90 -24.5q-21 0 -42 9t-38 24t-28 35t-11 42v1q0 52 30 89.5t73.5 61t91 34.5t82.5 11h7h3h3q2 -2 3 -2t3 -1q1 -1 1 -3q0 -1 2 -3v-3l1 -164q2 -1 2 -2v-1v-4q0 -1 -1 -1h-1l2 -36q0 -11 4.5 -22t12 -20
t17 -15t18.5 -6q11 0 28 11.5t37 29.5q17 17 34.5 40t30.5 43v-1q2 5 5.5 6t6.5 1q4 0 7 -3l-1 2q7 -5 7 -12q0 -4 -3 -7q-13 -20 -31.5 -43t-38.5 -43q-20 -18 -41 -33t-41 -15zM104 20q28 0 53.5 10t46.5 26t36 34.5t21 35.5l-2 153q-33 -1 -76 -11t-81.5 -31t-65.5 -52.5
t-27 -75.5v-2q0 -17 8.5 -32.5t22 -27.5t30.5 -19.5t34 -7.5z" />
    <glyph glyph-name="uni1EAE" unicode="&#x1eae;" horiz-adv-x="797" 
d="M439 702q-1 1 -1 2q0 7 13 7q9 0 12 -5q2 -6 13.5 -9t23.5 -3q13 0 20 3t11.5 6.5t8.5 6.5t10 3q5 0 9 -2t4 -5v-2q-4 -11 -22.5 -17t-41.5 -6q-20 0 -37.5 5t-22.5 16zM653 -4q-14 0 -29 7t-27.5 18t-20.5 26t-8 30v206q-26 -68 -68 -120.5t-90 -89t-96.5 -56
t-85.5 -20.5h-10q-46 0 -85 17.5t-67 46.5t-44 65t-16 74q0 51 15.5 104.5t45.5 105t72.5 97t97.5 79.5t120.5 54t140.5 20q20 0 40.5 -1t42.5 -5q8 -1 10 -6t2 -9v-560q0 -12 6.5 -23t16.5 -18.5t22 -12t24 -4.5q3 0 7 1t9 2q14 5 28.5 16.5t28 27.5t25.5 35t22 38
q1 5 4 6.5t6 1.5q5 0 9 -4.5t4 -8.5v-5q-14 -25 -30 -49.5t-34.5 -43.5t-39.5 -30.5t-43 -11.5h-5zM566 373v4v28q0 25 0.5 77.5t1.5 148.5q-19 2 -35.5 3.5t-33.5 1.5q-72 0 -134.5 -19t-114.5 -52t-92.5 -76.5t-69 -92t-43 -100t-14.5 -99.5q0 -32 14.5 -63.5t39.5 -56.5
t59.5 -40.5t74.5 -15.5h7q39 2 91.5 26t103 68.5t90.5 109.5t55 148zM535 763q4 3 11 3q5 0 9.5 -2t4.5 -5q0 -2 -3 -4q-18 -11 -43 -19t-54 -8h-8q-14 0 -14 6q0 3 3 5t11 2h9q23 0 41.5 6t32.5 16z" />
    <glyph glyph-name="uni1EAF" unicode="&#x1eaf;" 
d="M339 -4q-15 0 -28.5 7.5t-24 19.5t-17 26t-7.5 28q-26 -32 -68 -56.5t-90 -24.5q-21 0 -42 9t-38 24t-28 35t-11 42v1q0 52 30 89.5t73.5 61t91 34.5t82.5 11h7h3h3q2 -2 3 -2t3 -1q1 -1 1 -3q0 -1 2 -3v-3l1 -164q2 -1 2 -2v-1v-4q0 -1 -1 -1h-1l2 -36q0 -11 4.5 -22
t12 -20t17 -15t18.5 -6q11 0 28 11.5t37 29.5q17 17 34.5 40t30.5 43v-1q2 5 5.5 6t6.5 1q4 0 7 -3l-1 2q7 -5 7 -12q0 -4 -3 -7q-13 -20 -31.5 -43t-38.5 -43q-20 -18 -41 -33t-41 -15zM104 20q28 0 53.5 10t46.5 26t36 34.5t21 35.5l-2 153q-33 -1 -76 -11t-81.5 -31
t-65.5 -52.5t-27 -75.5v-2q0 -17 8.5 -32.5t22 -27.5t30.5 -19.5t34 -7.5zM172 413q-1 2 -1 5q0 14 13 14q9 0 12 -10q2 -13 13.5 -18.5t23.5 -5.5q13 0 20 6t11.5 12.5t8.5 12.5t10 6q5 0 9 -4t4 -9v-4q-4 -23 -22.5 -35t-41.5 -12q-20 0 -37.5 10.5t-22.5 31.5zM269 536
q4 6 11 6q5 0 9.5 -4t4.5 -10q0 -4 -3 -7q-18 -23 -43 -39t-54 -16h-8q-14 0 -14 13q0 5 3 9t11 4h9q23 0 41.5 12t32.5 32z" />
    <glyph glyph-name="uni1EB0" unicode="&#x1eb0;" horiz-adv-x="797" 
d="M653 -4q-14 0 -29 7t-27.5 18t-20.5 26t-8 30v206q-26 -68 -68 -120.5t-90 -89t-96.5 -56t-85.5 -20.5h-10q-46 0 -85 17.5t-67 46.5t-44 65t-16 74q0 51 15.5 104.5t45.5 105t72.5 97t97.5 79.5t120.5 54t140.5 20q20 0 40.5 -1t42.5 -5q8 -1 10 -6t2 -9v-560
q0 -12 6.5 -23t16.5 -18.5t22 -12t24 -4.5q3 0 7 1t9 2q14 5 28.5 16.5t28 27.5t25.5 35t22 38q1 5 4 6.5t6 1.5q5 0 9 -4.5t4 -8.5v-5q-14 -25 -30 -49.5t-34.5 -43.5t-39.5 -30.5t-43 -11.5h-5zM566 373v4v28q0 25 0.5 77.5t1.5 148.5q-19 2 -35.5 3.5t-33.5 1.5
q-72 0 -134.5 -19t-114.5 -52t-92.5 -76.5t-69 -92t-43 -100t-14.5 -99.5q0 -32 14.5 -63.5t39.5 -56.5t59.5 -40.5t74.5 -15.5h7q39 2 91.5 26t103 68.5t90.5 109.5t55 148zM439 701q-1 1 -1 2q0 7 13 7q9 0 12 -5q2 -6 13.5 -9t23.5 -3q13 0 20 3t11.5 6.5t8.5 6.5t10 3
q5 0 9 -2t4 -5v-2q-4 -11 -22.5 -17t-41.5 -6q-20 0 -37.5 5t-22.5 16zM451 752q-8 2 -8 6q0 3 4.5 5t10.5 2q2 0 6 -1l88 -24q8 -2 8 -6q0 -3 -4.5 -5t-10.5 -2q-3 0 -6 1z" />
    <glyph glyph-name="uni1EB1" unicode="&#x1eb1;" 
d="M339 -4q-15 0 -28.5 7.5t-24 19.5t-17 26t-7.5 28q-26 -32 -68 -56.5t-90 -24.5q-21 0 -42 9t-38 24t-28 35t-11 42v1q0 52 30 89.5t73.5 61t91 34.5t82.5 11h7h3h3q2 -2 3 -2t3 -1q1 -1 1 -3q0 -1 2 -3v-3l1 -164q2 -1 2 -2v-1v-4q0 -1 -1 -1h-1l2 -36q0 -11 4.5 -22
t12 -20t17 -15t18.5 -6q11 0 28 11.5t37 29.5q17 17 34.5 40t30.5 43v-1q2 5 5.5 6t6.5 1q4 0 7 -3l-1 2q7 -5 7 -12q0 -4 -3 -7q-13 -20 -31.5 -43t-38.5 -43q-20 -18 -41 -33t-41 -15zM104 20q28 0 53.5 10t46.5 26t36 34.5t21 35.5l-2 153q-33 -1 -76 -11t-81.5 -31
t-65.5 -52.5t-27 -75.5v-2q0 -17 8.5 -32.5t22 -27.5t30.5 -19.5t34 -7.5zM172 413q-1 2 -1 5q0 14 13 14q9 0 12 -10q2 -13 13.5 -18.5t23.5 -5.5q13 0 20 6t11.5 12.5t8.5 12.5t10 6q5 0 9 -4t4 -9v-4q-4 -23 -22.5 -35t-41.5 -12q-20 0 -37.5 10.5t-22.5 31.5zM183 517
q-8 4 -8 12q0 6 4.5 10t10.5 4q2 0 6 -2l88 -47q8 -5 8 -12q0 -6 -4.5 -10.5t-10.5 -4.5q-3 0 -6 3z" />
    <glyph glyph-name="uni1EB2" unicode="&#x1eb2;" horiz-adv-x="797" 
d="M658 -4q22 0 43 11.5t39.5 30.5t34.5 43.5t30 49.5v5q0 4 -4 8.5t-9 4.5q-3 0 -6 -1.5t-4 -6.5q-10 -19 -22 -38t-25.5 -35t-28 -27.5t-28.5 -16.5q-5 -1 -9 -2t-7 -1q-12 0 -24 4.5t-22 12t-16.5 18.5t-6.5 23v560q0 4 -2 9t-10 6q-22 4 -42.5 5t-40.5 1
q-75 0 -140.5 -20t-120.5 -54t-97.5 -79.5t-72.5 -97t-45.5 -105t-15.5 -104.5q0 -38 16 -74t44 -65t67 -46.5t85 -17.5h10q37 1 85.5 20.5t96.5 56t90 89t68 120.5v-206q0 -15 8 -30t20.5 -26t27.5 -18t29 -7h5zM566 373q-15 -83 -55 -148t-90.5 -109.5t-103 -68.5
t-91.5 -26h-7q-40 0 -74.5 15.5t-59.5 40.5t-39.5 56.5t-14.5 63.5q0 48 14.5 99.5t43 100t69 92t92.5 76.5t114.5 52t134.5 19q17 0 33.5 -1.5t35.5 -3.5q-1 -96 -1.5 -148.5t-0.5 -77.5v-28v-4zM439 701q-1 1 -1 2q0 7 13 7q9 0 12 -5q2 -6 13.5 -9t23.5 -3q13 0 20 3
t11.5 6.5t8.5 6.5t10 3q5 0 9 -2t4 -5v-2q-4 -11 -22.5 -17t-41.5 -6q-20 0 -37.5 5t-22.5 16zM470 742q-17 0 -17 6q0 8 17 13q16 5 35 5q20 0 32 -5q14 -5 14 -14q1 -9 -19 -12l-14 -1q-13 -1 -19 -3q-6 -3 -4 -5q1 -4 -7.5 -3.5t-10.5 2.5q-1 1 -1 4q-1 6 16 8q9 1 22 2
q14 2 16 8q1 10 -25 11q-15 0 -25 -3q-6 -3 -7 -7q-1 -2 2 -2v0h1q3 0 3 -2q0 -1 -3 -1.5t-6 -0.5z" />
    <glyph glyph-name="uni1EB3" unicode="&#x1eb3;" 
d="M339 -4q20 0 41 15t41 33q20 20 38.5 43t31.5 43q3 3 3 7q0 7 -7 12l1 -2q-3 3 -7 3q-3 0 -6.5 -1t-5.5 -6v1q-13 -20 -30.5 -43t-34.5 -40q-20 -18 -37 -29.5t-28 -11.5q-9 0 -18.5 6t-17 15t-12 20t-4.5 22l-2 36h1t1 1v4v1t-2 2l-1 164v3q-2 2 -2 3q0 2 -1 3
q-2 1 -3 1t-3 2h-3h-3h-7q-35 0 -82.5 -11t-91 -34.5t-73.5 -61t-30 -89.5v-1q0 -22 11 -42t28 -35t38 -24t42 -9q48 0 90 24.5t68 56.5q1 -14 7.5 -28t17 -26t24 -19.5t28.5 -7.5zM104 20q-17 0 -34 7.5t-30.5 19.5t-22 27.5t-8.5 32.5v2q0 44 27 75.5t65.5 52.5t81.5 31
t76 11l2 -153q-6 -17 -21 -35.5t-36 -34.5t-46.5 -26t-53.5 -10zM172 413q5 -21 22.5 -31.5t37.5 -10.5q23 0 41.5 12t22.5 35v4q0 5 -4 9t-9 4q-6 0 -10 -6t-8.5 -12.5t-11.5 -12.5t-20 -6q-12 0 -23.5 5.5t-13.5 18.5q-3 10 -12 10q-13 0 -13 -14q0 -3 1 -5zM200 505
q-17 0 -17 12q0 15 17 26q16 9 35 9q20 0 32 -9q14 -11 14 -28q1 -18 -19 -25l-14 -2q-13 -2 -19 -6q-6 -6 -4 -10q1 -8 -7.5 -6.5t-10.5 4.5q-1 3 -1 8q-1 12 16 17q9 2 22 4q14 3 16 16q1 19 -25 22q-15 0 -25 -7q-6 -5 -7 -13q-1 -5 2 -5v0h1q3 0 3 -4q0 -2 -3 -2.5
t-6 -0.5z" />
    <glyph glyph-name="uni1EB4" unicode="&#x1eb4;" horiz-adv-x="797" 
d="M653 -4q-14 0 -29 7t-27.5 18t-20.5 26t-8 30v206q-26 -68 -68 -120.5t-90 -89t-96.5 -56t-85.5 -20.5h-10q-46 0 -85 17.5t-67 46.5t-44 65t-16 74q0 51 15.5 104.5t45.5 105t72.5 97t97.5 79.5t120.5 54t140.5 20q20 0 40.5 -1t42.5 -5q8 -1 10 -6t2 -9v-560
q0 -12 6.5 -23t16.5 -18.5t22 -12t24 -4.5q3 0 7 1t9 2q14 5 28.5 16.5t28 27.5t25.5 35t22 38q1 5 4 6.5t6 1.5q5 0 9 -4.5t4 -8.5v-5q-14 -25 -30 -49.5t-34.5 -43.5t-39.5 -30.5t-43 -11.5h-5zM566 373v4v28q0 25 0.5 77.5t1.5 148.5q-19 2 -35.5 3.5t-33.5 1.5
q-72 0 -134.5 -19t-114.5 -52t-92.5 -76.5t-69 -92t-43 -100t-14.5 -99.5q0 -32 14.5 -63.5t39.5 -56.5t59.5 -40.5t74.5 -15.5h7q39 2 91.5 26t103 68.5t90.5 109.5t55 148zM439 701q-1 1 -1 2q0 7 13 7q9 0 12 -5q2 -6 13.5 -9t23.5 -3q13 0 20 3t11.5 6.5t8.5 6.5t10 3
q5 0 9 -2t4 -5v-2q-4 -11 -22.5 -17t-41.5 -6q-20 0 -37.5 5t-22.5 16zM426 734q0 -4 -4 -5.5t-9 -1.5q-8 0 -12 4t-4 10q0 11 18 17.5t41 6.5q17 0 32.5 -4t23.5 -13q3 -5 11 -7t17 -2q14 0 26 4t12 11q0 1 -1 2.5t-2 2.5v1q0 3 4.5 5t9.5 2q9 0 12 -4.5t3 -9.5
q0 -12 -20.5 -19.5t-44.5 -7.5q-14 0 -26.5 3t-20.5 10q-2 6 -13 9.5t-23 3.5q-11 0 -20.5 -3t-11.5 -8q2 -2 2 -4v-3z" />
    <glyph glyph-name="uni1EB5" unicode="&#x1eb5;" 
d="M339 -4q-15 0 -28.5 7.5t-24 19.5t-17 26t-7.5 28q-26 -32 -68 -56.5t-90 -24.5q-21 0 -42 9t-38 24t-28 35t-11 42v1q0 52 30 89.5t73.5 61t91 34.5t82.5 11h7h3h3q2 -2 3 -2t3 -1q1 -1 1 -3q0 -1 2 -3v-3l1 -164q2 -1 2 -2v-1v-4q0 -1 -1 -1h-1l2 -36q0 -11 4.5 -22
t12 -20t17 -15t18.5 -6q11 0 28 11.5t37 29.5q17 17 34.5 40t30.5 43v-1q2 5 5.5 6t6.5 1q4 0 7 -3l-1 2q7 -5 7 -12q0 -4 -3 -7q-13 -20 -31.5 -43t-38.5 -43q-20 -18 -41 -33t-41 -15zM104 20q28 0 53.5 10t46.5 26t36 34.5t21 35.5l-2 153q-33 -1 -76 -11t-81.5 -31
t-65.5 -52.5t-27 -75.5v-2q0 -17 8.5 -32.5t22 -27.5t30.5 -19.5t34 -7.5zM172 413q-1 2 -1 5q0 14 13 14q9 0 12 -10q2 -13 13.5 -18.5t23.5 -5.5q13 0 20 6t11.5 12.5t8.5 12.5t10 6q5 0 9 -4t4 -9v-4q-4 -23 -22.5 -35t-41.5 -12q-20 0 -37.5 10.5t-22.5 31.5zM159 481
q0 -8 -4 -11t-9 -3q-8 0 -12 8.5t-4 19.5q0 24 18 37t41 13q17 0 32.5 -8.5t23.5 -25.5q3 -11 11 -15t17 -4q14 0 26 8.5t12 22.5q0 2 -1 4.5t-2 5.5v1q0 7 4.5 10.5t9.5 3.5q9 0 12 -9t3 -18q0 -25 -20.5 -40t-44.5 -15q-14 0 -26.5 5.5t-20.5 19.5q-2 13 -13 20t-23 7
q-11 0 -20.5 -5.5t-11.5 -17.5q2 -4 2 -8v-6z" />
    <glyph glyph-name="uni1EB6" unicode="&#x1eb6;" horiz-adv-x="797" 
d="M438 721q-1 2 -1 5q0 14 13 14q9 0 12 -10q2 -13 13.5 -18.5t23.5 -5.5q13 0 20 6t11.5 12.5t8.5 12.5t10 6q5 0 9 -4t4 -9v-4q-4 -23 -22.5 -35t-41.5 -12q-20 0 -37.5 10.5t-22.5 31.5zM450 -150q0 11 7 17.5t18 6.5q10 0 17 -6.5t7 -17.5q0 -10 -7 -16.5t-17 -6.5
q-11 0 -18 6.5t-7 16.5zM653 -4q-14 0 -29 7t-27.5 18t-20.5 26t-8 30v206q-26 -68 -68 -120.5t-90 -89t-96.5 -56t-85.5 -20.5h-10q-46 0 -85 17.5t-67 46.5t-44 65t-16 74q0 51 15.5 104.5t45.5 105t72.5 97t97.5 79.5t120.5 54t140.5 20q20 0 40.5 -1t42.5 -5q8 -1 10 -6
t2 -9v-560q0 -12 6.5 -23t16.5 -18.5t22 -12t24 -4.5q3 0 7 1t9 2q14 5 28.5 16.5t28 27.5t25.5 35t22 38q1 5 4 6.5t6 1.5q5 0 9 -4.5t4 -8.5v-5q-14 -25 -30 -49.5t-34.5 -43.5t-39.5 -30.5t-43 -11.5h-5zM566 373v4v28q0 25 0.5 77.5t1.5 148.5q-19 2 -35.5 3.5
t-33.5 1.5q-72 0 -134.5 -19t-114.5 -52t-92.5 -76.5t-69 -92t-43 -100t-14.5 -99.5q0 -32 14.5 -63.5t39.5 -56.5t59.5 -40.5t74.5 -15.5h7q39 2 91.5 26t103 68.5t90.5 109.5t55 148z" />
    <glyph glyph-name="uni1EB7" unicode="&#x1eb7;" 
d="M172 413q-1 2 -1 5q0 14 13 14q9 0 12 -10q2 -13 13.5 -18.5t23.5 -5.5q13 0 20 6t11.5 12.5t8.5 12.5t10 6q5 0 9 -4t4 -9v-4q-4 -23 -22.5 -35t-41.5 -12q-20 0 -37.5 10.5t-22.5 31.5zM180 -150q0 11 7 17.5t18 6.5q10 0 17 -6.5t7 -17.5q0 -10 -7 -16.5t-17 -6.5
q-11 0 -18 6.5t-7 16.5zM339 -4q-15 0 -28.5 7.5t-24 19.5t-17 26t-7.5 28q-26 -32 -68 -56.5t-90 -24.5q-21 0 -42 9t-38 24t-28 35t-11 42v1q0 52 30 89.5t73.5 61t91 34.5t82.5 11h7h3h3q2 -2 3 -2t3 -1q1 -1 1 -3q0 -1 2 -3v-3l1 -164q2 -1 2 -2v-1v-4q0 -1 -1 -1h-1
l2 -36q0 -11 4.5 -22t12 -20t17 -15t18.5 -6q11 0 28 11.5t37 29.5q17 17 34.5 40t30.5 43v-1q2 5 5.5 6t6.5 1q4 0 7 -3l-1 2q7 -5 7 -12q0 -4 -3 -7q-13 -20 -31.5 -43t-38.5 -43q-20 -18 -41 -33t-41 -15zM104 20q28 0 53.5 10t46.5 26t36 34.5t21 35.5l-2 153
q-33 -1 -76 -11t-81.5 -31t-65.5 -52.5t-27 -75.5v-2q0 -17 8.5 -32.5t22 -27.5t30.5 -19.5t34 -7.5z" />
    <glyph glyph-name="uni1EB8" unicode="&#x1eb8;" horiz-adv-x="601" 
d="M254 -150q0 11 7 17.5t18 6.5q10 0 17 -6.5t7 -17.5q0 -10 -7 -16.5t-17 -6.5q-11 0 -18 6.5t-7 16.5zM353 -11q-54 0 -115 18t-112.5 49.5t-85.5 75t-34 95.5q0 43 23.5 83.5t56.5 72.5q-25 23 -39.5 52.5t-15.5 61.5q0 39 25.5 71.5t63 55.5t81.5 36.5t81 13.5
q41 0 72 -5.5t54.5 -14.5t41.5 -21.5t33 -26.5q5 -5 5 -7q0 -5 -5 -12l-4 -2t-4 -1t-7 5q-14 12 -30 22.5t-37.5 19t-50.5 13.5t-68 5q-35 0 -75 -12t-73.5 -32.5t-55.5 -48.5t-22 -59q0 -23 11 -47.5t39 -50.5q35 28 74.5 43t74.5 15q14 0 33.5 -3.5t37.5 -12t30.5 -22
t12.5 -32.5t-12 -33.5t-29 -24t-37 -14t-36 -4.5q-84 0 -150 55q-35 -28 -54.5 -66t-19.5 -73q0 -45 32 -84t80 -68t104.5 -45.5t105.5 -16.5q33 0 67.5 10t66 27.5t58 40.5t44.5 49q2 7 12 7q4 0 5 -1q7 -4 7 -12q0 -1 -0.5 -3t-0.5 -4q-19 -29 -48 -54t-63.5 -43.5
t-72.5 -29.5t-75 -11zM255 336q14 0 30 4t29.5 11t22 16t8.5 20t-8.5 19.5t-22 14.5t-29.5 9t-30 3q-27 0 -59.5 -11.5t-69.5 -40.5q42 -28 72 -36.5t57 -8.5z" />
    <glyph glyph-name="uni1EB9" unicode="&#x1eb9;" horiz-adv-x="289" 
d="M80 -150q0 11 7 17.5t18 6.5q10 0 17 -6.5t7 -17.5q0 -10 -7 -16.5t-17 -6.5q-11 0 -18 6.5t-7 16.5zM116 -4q-37 0 -61 11.5t-38.5 29.5t-21.5 40t-9 43q0 3 -0.5 7t-0.5 7q0 24 7.5 51.5t22 51t34 40.5t43.5 22h27q25 -2 44 -22t19 -48q0 -35 -19.5 -54.5t-47.5 -31.5
q-46 -16 -92 -16h-13v-6q1 -19 6.5 -37t17.5 -32.5t32 -23t50 -8.5q32 0 57 11.5t44 29.5t33 40.5t26 44.5q5 5 12 5h4q7 -4 7 -11q0 -4 -1 -6q-12 -23 -27.5 -47t-37 -44.5t-50.5 -33.5t-67 -13zM28 151q40 0 78 16q23 9 37.5 23.5t14.5 38.5q0 19 -14 32t-31 13h-5
q-18 0 -34.5 -10t-29 -26t-21 -36.5t-11.5 -41.5l-2 -9h18z" />
    <glyph glyph-name="uni1EBA" unicode="&#x1eba;" horiz-adv-x="601" 
d="M353 -11q37 0 75 11t72.5 29.5t63.5 43.5t48 54q0 2 0.5 4t0.5 3q0 8 -7 12q-1 1 -5 1q-10 0 -12 -7q-18 -26 -44.5 -49t-58 -40.5t-66 -27.5t-67.5 -10q-49 0 -105.5 16.5t-104.5 45.5t-80 68t-32 84q0 35 19.5 73t54.5 66q66 -55 150 -55q16 0 36 4.5t37 14t29 24
t12 33.5t-12.5 32.5t-30.5 22t-37.5 12t-33.5 3.5q-35 0 -74.5 -15t-74.5 -43q-28 26 -39 50.5t-11 47.5q0 31 22 59t55.5 48.5t73.5 32.5t75 12q39 0 68 -5t50.5 -13.5t37.5 -19t30 -22.5q5 -5 7 -5t4 1l4 2q5 7 5 12q0 2 -5 7q-15 14 -33 26.5t-41.5 21.5t-54.5 14.5
t-72 5.5q-37 0 -81 -13.5t-81.5 -36.5t-63 -55.5t-25.5 -71.5q1 -32 15.5 -61.5t39.5 -52.5q-33 -32 -56.5 -72.5t-23.5 -83.5q0 -52 34 -95.5t85.5 -75t112.5 -49.5t115 -18zM255 336q-27 0 -57 8.5t-72 36.5q37 29 69.5 40.5t59.5 11.5q14 0 30 -3t29.5 -9t22 -14.5
t8.5 -19.5t-8.5 -20t-22 -16t-29.5 -11t-30 -4zM249 718q-17 0 -17 12q0 15 17 26q16 9 35 9q20 0 32 -9q14 -11 14 -28q1 -18 -19 -25l-14 -2q-13 -2 -19 -6q-6 -6 -4 -10q1 -8 -7.5 -6.5t-10.5 4.5q-1 3 -1 8q-1 12 16 17q9 2 22 4q14 3 16 16q1 19 -25 22q-15 0 -25 -7
q-6 -5 -7 -13q-1 -5 2 -5v0h1q3 0 3 -4q0 -2 -3 -2.5t-6 -0.5z" />
    <glyph glyph-name="uni1EBB" unicode="&#x1ebb;" horiz-adv-x="289" 
d="M116 -4q38 0 67 13t50.5 33.5t37 44.5t27.5 47q1 2 1 6q0 7 -7 11h-4q-7 0 -12 -5q-12 -22 -26 -44.5t-33 -40.5t-44 -29.5t-57 -11.5q-30 0 -50 8.5t-32 23t-17.5 32.5t-6.5 37v6h13q46 0 92 16q28 12 47.5 31.5t19.5 54.5q0 28 -19 48t-44 22h-27q-24 -5 -43.5 -22
t-34 -40.5t-22 -51t-7.5 -51.5q0 -3 0.5 -7t0.5 -7q2 -21 9 -43t21.5 -40t38.5 -29.5t61 -11.5zM28 151h-18l2 9q3 21 11.5 41.5t21 36.5t29 26t34.5 10h5q17 0 31 -13t14 -32q0 -24 -14.5 -38.5t-37.5 -23.5q-38 -16 -78 -16zM86 398q-17 0 -17 12q0 15 17 26q16 9 35 9
q20 0 32 -9q14 -11 14 -28q1 -18 -19 -25l-14 -2q-13 -2 -19 -6q-6 -6 -4 -10q1 -8 -7.5 -6.5t-10.5 4.5q-1 3 -1 8q-1 12 16 17q9 2 22 4q14 3 16 16q1 19 -25 22q-15 0 -25 -7q-6 -5 -7 -13q-1 -5 2 -5v0h1q3 0 3 -4q0 -2 -3 -2.5t-6 -0.5z" />
    <glyph glyph-name="uni1EBC" unicode="&#x1ebc;" horiz-adv-x="601" 
d="M206 701q0 -8 -4 -11t-9 -3q-8 0 -12 8.5t-4 19.5q0 24 18 37t41 13q17 0 32.5 -8.5t23.5 -25.5q3 -11 11 -15t17 -4q14 0 26 8.5t12 22.5q0 2 -1 4.5t-2 5.5v1q0 7 4.5 10.5t9.5 3.5q9 0 12 -9t3 -18q0 -25 -20.5 -40t-44.5 -15q-14 0 -26.5 5.5t-20.5 19.5
q-2 13 -13 20t-23 7q-11 0 -20.5 -5.5t-11.5 -17.5q2 -4 2 -8v-6zM353 -11q-54 0 -115 18t-112.5 49.5t-85.5 75t-34 95.5q0 43 23.5 83.5t56.5 72.5q-25 23 -39.5 52.5t-15.5 61.5q0 39 25.5 71.5t63 55.5t81.5 36.5t81 13.5q41 0 72 -5.5t54.5 -14.5t41.5 -21.5t33 -26.5
q5 -5 5 -7q0 -5 -5 -12l-4 -2t-4 -1t-7 5q-14 12 -30 22.5t-37.5 19t-50.5 13.5t-68 5q-35 0 -75 -12t-73.5 -32.5t-55.5 -48.5t-22 -59q0 -23 11 -47.5t39 -50.5q35 28 74.5 43t74.5 15q14 0 33.5 -3.5t37.5 -12t30.5 -22t12.5 -32.5t-12 -33.5t-29 -24t-37 -14t-36 -4.5
q-84 0 -150 55q-35 -28 -54.5 -66t-19.5 -73q0 -45 32 -84t80 -68t104.5 -45.5t105.5 -16.5q33 0 67.5 10t66 27.5t58 40.5t44.5 49q2 7 12 7q4 0 5 -1q7 -4 7 -12q0 -1 -0.5 -3t-0.5 -4q-19 -29 -48 -54t-63.5 -43.5t-72.5 -29.5t-75 -11zM255 336q14 0 30 4t29.5 11t22 16
t8.5 20t-8.5 19.5t-22 14.5t-29.5 9t-30 3q-27 0 -59.5 -11.5t-69.5 -40.5q42 -28 72 -36.5t57 -8.5z" />
    <glyph glyph-name="uni1EBD" unicode="&#x1ebd;" horiz-adv-x="289" 
d="M24 389q0 -7 -3.5 -10t-8.5 -3q-8 0 -11 7.5t-3 18.5q0 22 16.5 33.5t36.5 11.5q16 0 30 -7.5t21 -23.5q3 -9 10.5 -13t15.5 -4q12 0 23 7.5t11 20.5q0 3 -2 9v1q0 6 3.5 9.5t8.5 3.5q8 0 11 -8.5t3 -16.5q0 -23 -18.5 -36.5t-40.5 -13.5q-13 0 -24 5.5t-19 17.5
q-2 12 -12 18.5t-21 6.5q-10 0 -18.5 -5t-10.5 -16q2 -5 2 -13zM116 -4q-37 0 -61 11.5t-38.5 29.5t-21.5 40t-9 43q0 3 -0.5 7t-0.5 7q0 24 7.5 51.5t22 51t34 40.5t43.5 22h27q25 -2 44 -22t19 -48q0 -35 -19.5 -54.5t-47.5 -31.5q-46 -16 -92 -16h-13v-6q1 -19 6.5 -37
t17.5 -32.5t32 -23t50 -8.5q32 0 57 11.5t44 29.5t33 40.5t26 44.5q5 5 12 5h4q7 -4 7 -11q0 -4 -1 -6q-12 -23 -27.5 -47t-37 -44.5t-50.5 -33.5t-67 -13zM28 151q40 0 78 16q23 9 37.5 23.5t14.5 38.5q0 19 -14 32t-31 13h-5q-18 0 -34.5 -10t-29 -26t-21 -36.5
t-11.5 -41.5l-2 -9h18z" />
    <glyph glyph-name="uni1EBE" unicode="&#x1ebe;" horiz-adv-x="601" 
d="M353 -11q-54 0 -115 18t-112.5 49.5t-85.5 75t-34 95.5q0 43 23.5 83.5t56.5 72.5q-25 23 -39.5 52.5t-15.5 61.5q0 39 25.5 71.5t63 55.5t81.5 36.5t81 13.5q41 0 72 -5.5t54.5 -14.5t41.5 -21.5t33 -26.5q5 -5 5 -7q0 -5 -5 -12l-4 -2t-4 -1t-7 5q-14 12 -30 22.5
t-37.5 19t-50.5 13.5t-68 5q-35 0 -75 -12t-73.5 -32.5t-55.5 -48.5t-22 -59q0 -23 11 -47.5t39 -50.5q35 28 74.5 43t74.5 15q14 0 33.5 -3.5t37.5 -12t30.5 -22t12.5 -32.5t-12 -33.5t-29 -24t-37 -14t-36 -4.5q-84 0 -150 55q-35 -28 -54.5 -66t-19.5 -73q0 -45 32 -84
t80 -68t104.5 -45.5t105.5 -16.5q33 0 67.5 10t66 27.5t58 40.5t44.5 49q2 7 12 7q4 0 5 -1q7 -4 7 -12q0 -1 -0.5 -3t-0.5 -4q-19 -29 -48 -54t-63.5 -43.5t-72.5 -29.5t-75 -11zM255 336q14 0 30 4t29.5 11t22 16t8.5 20t-8.5 19.5t-22 14.5t-29.5 9t-30 3
q-27 0 -59.5 -11.5t-69.5 -40.5q42 -28 72 -36.5t57 -8.5zM320 762q4 3 11 3q5 0 9.5 -2t4.5 -5q0 -2 -3 -4q-18 -11 -43 -19t-54 -8h-8q-14 0 -14 6q0 3 3 5t11 2h9q23 0 41.5 6t32.5 16zM220 679q-3 -1 -8 -1q-12 0 -12 6q0 3 6 6l70 22q2 1 8 1h1q1 0 2 0.5t3 0.5
q5 0 8 -2l65 -24q5 -2 5 -5t-3.5 -5t-9.5 -2q-5 0 -8 1l-61 23z" />
    <glyph glyph-name="uni1EBF" unicode="&#x1ebf;" horiz-adv-x="289" 
d="M131 537q4 6 11 6q5 0 9.5 -4t4.5 -10q0 -4 -3 -7q-18 -23 -43 -39t-54 -16h-8q-14 0 -14 13q0 5 3 9t11 4h9q23 0 41.5 12t32.5 32zM116 -4q-37 0 -61 11.5t-38.5 29.5t-21.5 40t-9 43q0 3 -0.5 7t-0.5 7q0 24 7.5 51.5t22 51t34 40.5t43.5 22h27q25 -2 44 -22t19 -48
q0 -35 -19.5 -54.5t-47.5 -31.5q-46 -16 -92 -16h-13v-6q1 -19 6.5 -37t17.5 -32.5t32 -23t50 -8.5q32 0 57 11.5t44 29.5t33 40.5t26 44.5q5 5 12 5h4q7 -4 7 -11q0 -4 -1 -6q-12 -23 -27.5 -47t-37 -44.5t-50.5 -33.5t-67 -13zM28 151q40 0 78 16q23 9 37.5 23.5
t14.5 38.5q0 19 -14 32t-31 13h-5q-18 0 -34.5 -10t-29 -26t-21 -36.5t-11.5 -41.5l-2 -9h18zM35 381q-2 -2 -7 -2q-11 0 -11 11q0 6 6 11l63 40q2 2 7 2h1q1 0 2 0.5t3 0.5q4 0 7 -3l59 -43q5 -4 5 -10q0 -13 -12 -13q-4 0 -7 3l-56 41z" />
    <glyph glyph-name="uni1EC0" unicode="&#x1ec0;" horiz-adv-x="601" 
d="M353 -11q-54 0 -115 18t-112.5 49.5t-85.5 75t-34 95.5q0 43 23.5 83.5t56.5 72.5q-25 23 -39.5 52.5t-15.5 61.5q0 39 25.5 71.5t63 55.5t81.5 36.5t81 13.5q41 0 72 -5.5t54.5 -14.5t41.5 -21.5t33 -26.5q5 -5 5 -7q0 -5 -5 -12l-4 -2t-4 -1t-7 5q-14 12 -30 22.5
t-37.5 19t-50.5 13.5t-68 5q-35 0 -75 -12t-73.5 -32.5t-55.5 -48.5t-22 -59q0 -23 11 -47.5t39 -50.5q35 28 74.5 43t74.5 15q14 0 33.5 -3.5t37.5 -12t30.5 -22t12.5 -32.5t-12 -33.5t-29 -24t-37 -14t-36 -4.5q-84 0 -150 55q-35 -28 -54.5 -66t-19.5 -73q0 -45 32 -84
t80 -68t104.5 -45.5t105.5 -16.5q33 0 67.5 10t66 27.5t58 40.5t44.5 49q2 7 12 7q4 0 5 -1q7 -4 7 -12q0 -1 -0.5 -3t-0.5 -4q-19 -29 -48 -54t-63.5 -43.5t-72.5 -29.5t-75 -11zM255 336q14 0 30 4t29.5 11t22 16t8.5 20t-8.5 19.5t-22 14.5t-29.5 9t-30 3
q-27 0 -59.5 -11.5t-69.5 -40.5q42 -28 72 -36.5t57 -8.5zM235 751q-8 2 -8 6q0 3 4.5 5t10.5 2q2 0 6 -1l88 -24q8 -2 8 -6q0 -3 -4.5 -5t-10.5 -2q-3 0 -6 1zM219 678q-3 -1 -8 -1q-12 0 -12 6q0 3 6 6l70 22q2 1 8 1h1q1 0 2 0.5t3 0.5q5 0 8 -2l65 -24q5 -2 5 -5
t-3.5 -5t-9.5 -2q-5 0 -8 1l-61 23z" />
    <glyph glyph-name="uni1EC1" unicode="&#x1ec1;" horiz-adv-x="289" 
d="M116 -4q-37 0 -61 11.5t-38.5 29.5t-21.5 40t-9 43q0 3 -0.5 7t-0.5 7q0 24 7.5 51.5t22 51t34 40.5t43.5 22h27q25 -2 44 -22t19 -48q0 -35 -19.5 -54.5t-47.5 -31.5q-46 -16 -92 -16h-13v-6q1 -19 6.5 -37t17.5 -32.5t32 -23t50 -8.5q32 0 57 11.5t44 29.5t33 40.5
t26 44.5q5 5 12 5h4q7 -4 7 -11q0 -4 -1 -6q-12 -23 -27.5 -47t-37 -44.5t-50.5 -33.5t-67 -13zM28 151q40 0 78 16q23 9 37.5 23.5t14.5 38.5q0 19 -14 32t-31 13h-5q-18 0 -34.5 -10t-29 -26t-21 -36.5t-11.5 -41.5l-2 -9h18zM35 381q-2 -2 -7 -2q-11 0 -11 11q0 6 6 11
l63 40q2 2 7 2h1q1 0 2 0.5t3 0.5q4 0 7 -3l59 -43q5 -4 5 -10q0 -13 -12 -13q-4 0 -7 3l-56 41zM45 517q-8 4 -8 12q0 6 4.5 10t10.5 4q2 0 6 -2l88 -47q8 -5 8 -12q0 -6 -4.5 -10.5t-10.5 -4.5q-3 0 -6 3z" />
    <glyph glyph-name="uni1EC2" unicode="&#x1ec2;" horiz-adv-x="601" 
d="M353 -11q37 0 75 11t72.5 29.5t63.5 43.5t48 54q0 2 0.5 4t0.5 3q0 8 -7 12q-1 1 -5 1q-10 0 -12 -7q-18 -26 -44.5 -49t-58 -40.5t-66 -27.5t-67.5 -10q-49 0 -105.5 16.5t-104.5 45.5t-80 68t-32 84q0 35 19.5 73t54.5 66q66 -55 150 -55q16 0 36 4.5t37 14t29 24
t12 33.5t-12.5 32.5t-30.5 22t-37.5 12t-33.5 3.5q-35 0 -74.5 -15t-74.5 -43q-28 26 -39 50.5t-11 47.5q0 31 22 59t55.5 48.5t73.5 32.5t75 12q39 0 68 -5t50.5 -13.5t37.5 -19t30 -22.5q5 -5 7 -5t4 1l4 2q5 7 5 12q0 2 -5 7q-15 14 -33 26.5t-41.5 21.5t-54.5 14.5
t-72 5.5q-37 0 -81 -13.5t-81.5 -36.5t-63 -55.5t-25.5 -71.5q1 -32 15.5 -61.5t39.5 -52.5q-33 -32 -56.5 -72.5t-23.5 -83.5q0 -52 34 -95.5t85.5 -75t112.5 -49.5t115 -18zM255 336q-27 0 -57 8.5t-72 36.5q37 29 69.5 40.5t59.5 11.5q14 0 30 -3t29.5 -9t22 -14.5
t8.5 -19.5t-8.5 -20t-22 -16t-29.5 -11t-30 -4zM221 675q-3 -1 -8 -1q-12 0 -12 6q0 3 6 6l70 22q2 1 8 1h1q1 0 2 0.5t3 0.5q5 0 8 -2l65 -24q5 -2 5 -5t-3.5 -5t-9.5 -2q-5 0 -8 1l-61 23zM256 742q-17 0 -17 6q0 8 17 13q16 5 35 5q20 0 32 -5q14 -5 14 -14q1 -9 -19 -12
l-14 -1q-13 -1 -19 -3q-6 -3 -4 -5q1 -4 -7.5 -3.5t-10.5 2.5q-1 1 -1 4q-1 6 16 8q9 1 22 2q14 2 16 8q1 10 -25 11q-15 0 -25 -3q-6 -3 -7 -7q-1 -2 2 -2v0h1q3 0 3 -2q0 -1 -3 -1.5t-6 -0.5z" />
    <glyph glyph-name="uni1EC3" unicode="&#x1ec3;" horiz-adv-x="289" 
d="M116 -4q38 0 67 13t50.5 33.5t37 44.5t27.5 47q1 2 1 6q0 7 -7 11h-4q-7 0 -12 -5q-12 -22 -26 -44.5t-33 -40.5t-44 -29.5t-57 -11.5q-30 0 -50 8.5t-32 23t-17.5 32.5t-6.5 37v6h13q46 0 92 16q28 12 47.5 31.5t19.5 54.5q0 28 -19 48t-44 22h-27q-24 -5 -43.5 -22
t-34 -40.5t-22 -51t-7.5 -51.5q0 -3 0.5 -7t0.5 -7q2 -21 9 -43t21.5 -40t38.5 -29.5t61 -11.5zM28 151h-18l2 9q3 21 11.5 41.5t21 36.5t29 26t34.5 10h5q17 0 31 -13t14 -32q0 -24 -14.5 -38.5t-37.5 -23.5q-38 -16 -78 -16zM35 381l60 38l56 -41q3 -3 7 -3q12 0 12 13
q0 6 -5 10l-59 43q-3 3 -7 3q-2 0 -3 -0.5t-2 -0.5h-1q-5 0 -7 -2l-63 -40q-6 -5 -6 -11q0 -11 11 -11q5 0 7 2zM60 505q-17 0 -17 12q0 15 17 26q16 9 35 9q20 0 32 -9q14 -11 14 -28q1 -18 -19 -25l-14 -2q-13 -2 -19 -6q-6 -6 -4 -10q1 -8 -7.5 -6.5t-10.5 4.5q-1 3 -1 8
q-1 12 16 17q9 2 22 4q14 3 16 16q1 19 -25 22q-15 0 -25 -7q-6 -5 -7 -13q-1 -5 2 -5v0h1q3 0 3 -4q0 -2 -3 -2.5t-6 -0.5z" />
    <glyph glyph-name="uni1EC4" unicode="&#x1ec4;" horiz-adv-x="601" 
d="M353 -11q-54 0 -115 18t-112.5 49.5t-85.5 75t-34 95.5q0 43 23.5 83.5t56.5 72.5q-25 23 -39.5 52.5t-15.5 61.5q0 39 25.5 71.5t63 55.5t81.5 36.5t81 13.5q41 0 72 -5.5t54.5 -14.5t41.5 -21.5t33 -26.5q5 -5 5 -7q0 -5 -5 -12l-4 -2t-4 -1t-7 5q-14 12 -30 22.5
t-37.5 19t-50.5 13.5t-68 5q-35 0 -75 -12t-73.5 -32.5t-55.5 -48.5t-22 -59q0 -23 11 -47.5t39 -50.5q35 28 74.5 43t74.5 15q14 0 33.5 -3.5t37.5 -12t30.5 -22t12.5 -32.5t-12 -33.5t-29 -24t-37 -14t-36 -4.5q-84 0 -150 55q-35 -28 -54.5 -66t-19.5 -73q0 -45 32 -84
t80 -68t104.5 -45.5t105.5 -16.5q33 0 67.5 10t66 27.5t58 40.5t44.5 49q2 7 12 7q4 0 5 -1q7 -4 7 -12q0 -1 -0.5 -3t-0.5 -4q-19 -29 -48 -54t-63.5 -43.5t-72.5 -29.5t-75 -11zM255 336q14 0 30 4t29.5 11t22 16t8.5 20t-8.5 19.5t-22 14.5t-29.5 9t-30 3
q-27 0 -59.5 -11.5t-69.5 -40.5q42 -28 72 -36.5t57 -8.5zM219 679q-3 -1 -8 -1q-12 0 -12 6q0 3 6 6l70 22q2 1 8 1h1q1 0 2 0.5t3 0.5q5 0 8 -2l65 -24q5 -2 5 -5t-3.5 -5t-9.5 -2q-5 0 -8 1l-61 23zM211 734q0 -4 -4 -5.5t-9 -1.5q-8 0 -12 4t-4 10q0 11 18 17.5t41 6.5
q17 0 32.5 -4t23.5 -13q3 -5 11 -7t17 -2q14 0 26 4t12 11q0 1 -1 2.5t-2 2.5v1q0 3 4.5 5t9.5 2q9 0 12 -4.5t3 -9.5q0 -12 -20.5 -19.5t-44.5 -7.5q-14 0 -26.5 3t-20.5 10q-2 6 -13 9.5t-23 3.5q-11 0 -20.5 -3t-11.5 -8q2 -2 2 -4v-3z" />
    <glyph glyph-name="uni1EC5" unicode="&#x1ec5;" horiz-adv-x="289" 
d="M21 482q0 -8 -4 -11t-9 -3q-8 0 -12 8.5t-4 19.5q0 24 18 37t41 13q17 0 32.5 -8.5t23.5 -25.5q3 -11 11 -15t17 -4q14 0 26 8.5t12 22.5q0 2 -1 4.5t-2 5.5v1q0 7 4.5 10.5t9.5 3.5q9 0 12 -9t3 -18q0 -25 -20.5 -40t-44.5 -15q-14 0 -26.5 5.5t-20.5 19.5q-2 13 -13 20
t-23 7q-11 0 -20.5 -5.5t-11.5 -17.5q2 -4 2 -8v-6zM116 -4q-37 0 -61 11.5t-38.5 29.5t-21.5 40t-9 43q0 3 -0.5 7t-0.5 7q0 24 7.5 51.5t22 51t34 40.5t43.5 22h27q25 -2 44 -22t19 -48q0 -35 -19.5 -54.5t-47.5 -31.5q-46 -16 -92 -16h-13v-6q1 -19 6.5 -37t17.5 -32.5
t32 -23t50 -8.5q32 0 57 11.5t44 29.5t33 40.5t26 44.5q5 5 12 5h4q7 -4 7 -11q0 -4 -1 -6q-12 -23 -27.5 -47t-37 -44.5t-50.5 -33.5t-67 -13zM28 151q40 0 78 16q23 9 37.5 23.5t14.5 38.5q0 19 -14 32t-31 13h-5q-18 0 -34.5 -10t-29 -26t-21 -36.5t-11.5 -41.5l-2 -9h18
zM35 381q-2 -2 -7 -2q-11 0 -11 11q0 6 6 11l63 40q2 2 7 2h1q1 0 2 0.5t3 0.5q4 0 7 -3l59 -43q5 -4 5 -10q0 -13 -12 -13q-4 0 -7 3l-56 41z" />
    <glyph glyph-name="uni1EC6" unicode="&#x1ec6;" horiz-adv-x="601" 
d="M218 688q-3 -3 -8 -3q-12 0 -12 13q0 6 6 12l70 44q2 2 8 2h1q1 0 2 0.5t3 0.5q5 0 8 -3l65 -48q5 -4 5 -11q0 -5 -3.5 -9.5t-9.5 -4.5q-5 0 -8 3l-61 45zM274 -150q0 11 7 17.5t18 6.5q10 0 17 -6.5t7 -17.5q0 -10 -7 -16.5t-17 -6.5q-11 0 -18 6.5t-7 16.5zM353 -11
q-54 0 -115 18t-112.5 49.5t-85.5 75t-34 95.5q0 43 23.5 83.5t56.5 72.5q-25 23 -39.5 52.5t-15.5 61.5q0 39 25.5 71.5t63 55.5t81.5 36.5t81 13.5q41 0 72 -5.5t54.5 -14.5t41.5 -21.5t33 -26.5q5 -5 5 -7q0 -5 -5 -12l-4 -2t-4 -1t-7 5q-14 12 -30 22.5t-37.5 19
t-50.5 13.5t-68 5q-35 0 -75 -12t-73.5 -32.5t-55.5 -48.5t-22 -59q0 -23 11 -47.5t39 -50.5q35 28 74.5 43t74.5 15q14 0 33.5 -3.5t37.5 -12t30.5 -22t12.5 -32.5t-12 -33.5t-29 -24t-37 -14t-36 -4.5q-84 0 -150 55q-35 -28 -54.5 -66t-19.5 -73q0 -45 32 -84t80 -68
t104.5 -45.5t105.5 -16.5q33 0 67.5 10t66 27.5t58 40.5t44.5 49q2 7 12 7q4 0 5 -1q7 -4 7 -12q0 -1 -0.5 -3t-0.5 -4q-19 -29 -48 -54t-63.5 -43.5t-72.5 -29.5t-75 -11zM255 336q14 0 30 4t29.5 11t22 16t8.5 20t-8.5 19.5t-22 14.5t-29.5 9t-30 3q-27 0 -59.5 -11.5
t-69.5 -40.5q42 -28 72 -36.5t57 -8.5z" />
    <glyph glyph-name="uni1EC7" unicode="&#x1ec7;" horiz-adv-x="289" 
d="M35 381q-2 -2 -7 -2q-11 0 -11 11q0 6 6 11l63 40q2 2 7 2h1q1 0 2 0.5t3 0.5q4 0 7 -3l59 -43q5 -4 5 -10q0 -13 -12 -13q-4 0 -7 3l-56 41zM80 -150q0 11 7 17.5t18 6.5q10 0 17 -6.5t7 -17.5q0 -10 -7 -16.5t-17 -6.5q-11 0 -18 6.5t-7 16.5zM116 -4q-37 0 -61 11.5
t-38.5 29.5t-21.5 40t-9 43q0 3 -0.5 7t-0.5 7q0 24 7.5 51.5t22 51t34 40.5t43.5 22h27q25 -2 44 -22t19 -48q0 -35 -19.5 -54.5t-47.5 -31.5q-46 -16 -92 -16h-13v-6q1 -19 6.5 -37t17.5 -32.5t32 -23t50 -8.5q32 0 57 11.5t44 29.5t33 40.5t26 44.5q5 5 12 5h4
q7 -4 7 -11q0 -4 -1 -6q-12 -23 -27.5 -47t-37 -44.5t-50.5 -33.5t-67 -13zM28 151q40 0 78 16q23 9 37.5 23.5t14.5 38.5q0 19 -14 32t-31 13h-5q-18 0 -34.5 -10t-29 -26t-21 -36.5t-11.5 -41.5l-2 -9h18z" />
    <glyph glyph-name="uni1EC8" unicode="&#x1ec8;" horiz-adv-x="501" 
d="M273 -11q49 0 92 19.5t74 52t48.5 73.5t17.5 83v3q0 29 -2 60t-4 63q-2 35 -4.5 70.5t-2.5 70.5q0 38 4 74t15 68v4q0 5 -3.5 9t-8.5 4q-4 0 -7 -3v1q-23 -15 -44 -21t-40 -6q-27 0 -53 8t-52 19t-53.5 20t-57.5 9q-31 0 -64 -9t-60 -28.5t-44.5 -50.5t-17.5 -76v-3
q0 -21 9 -45.5t25 -45.5t38.5 -34.5t49.5 -13.5q10 0 19 2t19 5q9 4 9 13v5q-5 7 -13 7h-3q-8 -4 -15.5 -5t-14.5 -1q-21 0 -39 10.5t-31 27t-20.5 36.5t-7.5 39q0 39 14.5 65.5t37.5 43.5t51.5 25t57.5 9q26 0 51.5 -9t51.5 -20q27 -12 55.5 -21t58.5 -9q17 0 34.5 3
t34.5 11q-8 -28 -10.5 -59.5t-2.5 -64.5q0 -36 2.5 -73t5.5 -73q2 -30 5 -58t3 -53q0 -37 -15.5 -74t-43.5 -66.5t-66 -48t-83 -18.5q-38 0 -72.5 8.5t-64 26t-51 43t-32.5 59.5q-2 3 -5 6t-6 3q-13 -4 -13 -12q11 -37 34 -66t53 -49.5t64 -31.5t68 -11h25zM249 718
q-17 0 -17 12q0 15 17 26q16 9 35 9q20 0 32 -9q14 -11 14 -28q1 -18 -19 -25l-14 -2q-13 -2 -19 -6q-6 -6 -4 -10q1 -8 -7.5 -6.5t-10.5 4.5q-1 3 -1 8q-1 12 16 17q9 2 22 4q14 3 16 16q1 19 -25 22q-15 0 -25 -7q-6 -5 -7 -13q-1 -5 2 -5v0h1q3 0 3 -4q0 -2 -3 -2.5
t-6 -0.5z" />
    <glyph glyph-name="uni1EC9" unicode="&#x1ec9;" horiz-adv-x="211" 
d="M63 -4q27 0 47 9t37 24t31 35t29 43l11 23q3 3 3 7q0 3 -1.5 5t-2.5 4q-3 3 -7 3q-8 0 -10 -5q-5 -5 -7.5 -9.5t-4.5 -7.5l2 2q-17 -26 -31.5 -46t-29 -34t-30.5 -21.5t-36 -7.5q-8 0 -17 5t-16.5 13t-12 18t-4.5 21v207q0 13 -13 13q-12 0 -12 -13v-207q0 -15 7 -30
t17.5 -26t24 -18t26.5 -7zM-15 398q-17 0 -17 12q0 15 17 26q16 9 35 9q20 0 32 -9q14 -11 14 -28q1 -18 -19 -25l-14 -2q-13 -2 -19 -6q-6 -6 -4 -10q1 -8 -7.5 -6.5t-10.5 4.5q-1 3 -1 8q-1 12 16 17q9 2 22 4q14 3 16 16q1 19 -25 22q-15 0 -25 -7q-6 -5 -7 -13
q-1 -5 2 -5v0h1q3 0 3 -4q0 -2 -3 -2.5t-6 -0.5z" />
    <glyph glyph-name="uni1ECA" unicode="&#x1eca;" horiz-adv-x="501" 
d="M256 -150q0 11 7 17.5t18 6.5q10 0 17 -6.5t7 -17.5q0 -10 -7 -16.5t-17 -6.5q-11 0 -18 6.5t-7 16.5zM248 -11q-34 0 -68 11t-64 31.5t-53 49.5t-34 66q0 8 13 12q3 0 6 -3t5 -6q11 -34 32.5 -59.5t51 -43t64 -26t72.5 -8.5q45 0 83 18.5t66 48t43.5 66.5t15.5 74
q0 25 -3 53t-5 58q-3 36 -5.5 73t-2.5 73q0 33 2.5 64.5t10.5 59.5q-17 -8 -34.5 -11t-34.5 -3q-30 0 -58.5 9t-55.5 21q-26 11 -51.5 20t-51.5 9q-29 -1 -57.5 -9t-51.5 -25t-37.5 -43.5t-14.5 -65.5q0 -19 7.5 -39t20.5 -36.5t31 -27t39 -10.5q7 0 14.5 1t15.5 5h3
q8 0 13 -7v-5q0 -9 -9 -13q-10 -3 -19 -5t-19 -2q-27 0 -49.5 13.5t-38.5 34.5t-25 45.5t-9 45.5v3q0 45 17.5 76t44.5 50.5t60 28.5t64 9q30 0 57.5 -9t53.5 -20t52 -19t53 -8q19 0 40 6t44 21v-1q3 3 7 3q5 0 8.5 -4t3.5 -9v-4q-11 -32 -15 -68t-4 -74q0 -35 2.5 -70.5
t4.5 -70.5q2 -32 4 -63t2 -60v-3q0 -42 -17.5 -83t-48.5 -73.5t-74 -52t-92 -19.5h-25z" />
    <glyph glyph-name="uni1ECB" unicode="&#x1ecb;" horiz-adv-x="211" 
d="M39 -150q0 11 7 17.5t18 6.5q10 0 17 -6.5t7 -17.5q0 -10 -7 -16.5t-17 -6.5q-11 0 -18 6.5t-7 16.5zM63 -4q-13 0 -26.5 7t-24 18t-17.5 26t-7 30v207q0 13 12 13q13 0 13 -13v-207q0 -11 4.5 -21t12 -18t16.5 -13t17 -5q20 0 36 7.5t30.5 21.5t29 34t31.5 46l-2 -2
q2 3 4.5 7.5t7.5 9.5q2 5 10 5q4 0 7 -3q1 -2 2.5 -4t1.5 -5q0 -4 -3 -7l-11 -23q-15 -23 -29 -43t-31 -35t-37 -24t-47 -9zM1 431q-6 0 -13 6q-5 5 -5 13t5 13q7 6 13 6q7 0 13 -6t6 -13t-6 -13t-13 -6z" />
    <glyph glyph-name="uni1ECC" unicode="&#x1ecc;" horiz-adv-x="711" 
d="M294 -150q0 11 7 17.5t18 6.5q10 0 17 -6.5t7 -17.5q0 -10 -7 -16.5t-17 -6.5q-11 0 -18 6.5t-7 16.5zM318 -1q-65 0 -121.5 26.5t-98.5 72t-66.5 107t-25.5 131.5v3q0 69 24.5 130.5t66.5 107.5t98.5 73t120.5 27h3q7 0 13 -0.5t13 -0.5h1h1t2 -2q66 -6 120.5 -39.5
t92.5 -87.5q37 13 72 36t67 58l-2 -1q2 5 4.5 5.5t5.5 0.5q2 0 4.5 -0.5t4.5 -2.5q1 -2 2.5 -4.5t1.5 -5.5q0 -4 -3 -7q-31 -38 -67.5 -62t-75.5 -38q25 -42 38.5 -88t14.5 -98v-3q0 -70 -24 -131.5t-66 -107t-98 -72.5t-120 -27h-3zM462 506q-5 0 -8.5 0.5t-8.5 0.5h-10
q-4 0 -9 2h2q-34 5 -59.5 18t-40.5 34q-7 11 -11 21.5t-4 23.5q0 11 2.5 22.5t9.5 24.5h-9q-58 -1 -109.5 -26t-90.5 -67.5t-61.5 -99.5t-22.5 -121v-3q0 -65 22.5 -122t61.5 -99.5t91 -67t111 -24.5h3q58 0 109.5 25t90.5 67.5t61.5 99.5t22.5 122v3q-2 50 -16 94.5
t-37 82.5q-23 -6 -44.5 -8.5t-41.5 -2.5h-4zM536 540q-34 45 -81.5 73.5t-103.5 36.5q-7 -12 -9.5 -23t-2.5 -20q0 -19 14 -37q19 -27 78 -36q8 -1 17.5 -2t19.5 -1q33 0 68 9z" />
    <glyph glyph-name="uni1ECD" unicode="&#x1ecd;" horiz-adv-x="448" 
d="M109 -150q0 11 7 17.5t18 6.5q10 0 17 -6.5t7 -17.5q0 -10 -7 -16.5t-17 -6.5q-11 0 -18 6.5t-7 16.5zM342 74q-30 0 -54 7q-20 -39 -58 -63t-87 -24q-33 0 -61.5 11.5t-50 32t-34 47.5t-12.5 59t12.5 59.5t34 48t50 32.5t61.5 12t62 -12t50.5 -32.5t34 -48t12.5 -59.5
q0 -21 -6 -40q12 -3 22.5 -4t21.5 -1q27 0 52.5 11t43.5 37q4 4 10 4q4 0 7 -2l-1 1q5 -2 5.5 -4.5t0.5 -5.5q0 -1 -0.5 -4t-2.5 -5q-24 -31 -53 -44t-60 -13zM143 19q40 0 72 20t48 51q-21 10 -40.5 23.5t-34.5 28.5t-23.5 31.5t-8.5 32.5t5 31.5t19 26.5q-9 4 -18 5t-19 1
q-28 0 -52.5 -10t-42.5 -27t-28.5 -40t-10.5 -49t10.5 -48.5t28.5 -39.5t42.5 -27t52.5 -10zM278 144q0 35 -19.5 64.5t-50.5 45.5q-15 -8 -20.5 -21t-5.5 -27q0 -22 25 -49t66 -44q5 17 5 31z" />
    <glyph glyph-name="uni1ECE" unicode="&#x1ece;" horiz-adv-x="711" 
d="M321 -1q64 0 120 27t98 72.5t66 107t24 131.5v3q-1 52 -14.5 98t-38.5 88q39 14 75.5 38t67.5 62q3 3 3 7q0 3 -1.5 5.5t-2.5 4.5q-2 2 -4.5 2.5t-4.5 0.5q-3 0 -5.5 -0.5t-4.5 -5.5l2 1q-32 -35 -67 -58t-72 -36q-38 54 -92.5 87.5t-120.5 39.5q-1 2 -2 2h-1h-1
q-7 0 -13 0.5t-13 0.5h-3q-64 0 -120.5 -27t-98.5 -73t-66.5 -107.5t-24.5 -130.5v-3q1 -70 25.5 -131.5t66.5 -107t98.5 -72t121.5 -26.5h3zM462 506h4q20 0 41.5 2.5t44.5 8.5q23 -38 37 -82.5t16 -94.5v-3q0 -65 -22.5 -122t-61.5 -99.5t-90.5 -67.5t-109.5 -25h-3
q-59 0 -111 24.5t-91 67t-61.5 99.5t-22.5 122v3q0 64 22.5 121t61.5 99.5t90.5 67.5t109.5 26h9q-7 -13 -9.5 -24.5t-2.5 -22.5q0 -13 4 -23.5t11 -21.5q15 -21 40.5 -34t59.5 -18h-2q5 -2 9 -2h10t8.5 -0.5t8.5 -0.5zM536 540q-35 -9 -68 -9q-10 0 -19.5 1t-17.5 2
q-59 9 -78 36q-14 18 -14 37q0 9 2.5 20t9.5 23q56 -8 103.5 -36.5t81.5 -73.5zM294 721q-17 0 -17 12q0 15 17 26q16 9 35 9q20 0 32 -9q14 -11 14 -28q1 -18 -19 -25l-14 -2q-13 -2 -19 -6q-6 -6 -4 -10q0 -6 -8 -5.5t-10 3.5q-1 3 -1 8q-1 12 16 17q9 2 22 4q14 3 16 16
q1 19 -25 22q-15 0 -25 -7q-6 -5 -7 -13q-1 -5 2 -5v0h1q3 0 3 -4q0 -2 -3 -2.5t-6 -0.5z" />
    <glyph glyph-name="uni1ECF" unicode="&#x1ecf;" horiz-adv-x="448" 
d="M342 74q31 0 60 13t53 44q2 2 2.5 5t0.5 4q0 3 -0.5 5.5t-5.5 4.5l1 -1q-3 2 -7 2q-6 0 -10 -4q-18 -26 -43.5 -37t-52.5 -11q-11 0 -21.5 1t-22.5 4q6 19 6 40q0 32 -12.5 59.5t-34 48t-50.5 32.5t-62 12t-61.5 -12t-50 -32.5t-34 -48t-12.5 -59.5t12.5 -59t34 -47.5
t50 -32t61.5 -11.5q49 0 87 24t58 63q24 -7 54 -7zM143 19q-28 0 -52.5 10t-42.5 27t-28.5 39.5t-10.5 48.5t10.5 49t28.5 40t42.5 27t52.5 10q10 0 19 -1t18 -5q-14 -11 -19 -26.5t-5 -31.5t8.5 -32.5t23.5 -31.5t34.5 -28.5t40.5 -23.5q-16 -31 -48 -51t-72 -20zM278 144
q0 -14 -5 -31q-41 17 -66 44t-25 49q0 14 5.5 27t20.5 21q31 -16 50.5 -45.5t19.5 -64.5zM116 398q-17 0 -17 12q0 15 17 26q16 9 35 9q20 0 32 -9q14 -11 14 -28q1 -18 -19 -25l-14 -2q-13 -2 -19 -6q-6 -6 -4 -10q1 -8 -7.5 -6.5t-10.5 4.5q-1 3 -1 8q-1 12 16 17
q9 2 22 4q14 3 16 16q1 19 -25 22q-15 0 -25 -7q-6 -5 -7 -13q-1 -5 2 -5v0h1q3 0 3 -4q0 -2 -3 -2.5t-6 -0.5z" />
    <glyph glyph-name="uni1ED0" unicode="&#x1ed0;" horiz-adv-x="711" 
d="M318 -1q-65 0 -121.5 26.5t-98.5 72t-66.5 107t-25.5 131.5v3q0 69 24.5 130.5t66.5 107.5t98.5 73t120.5 27h3q7 0 13 -0.5t13 -0.5h1h1t2 -2q66 -6 120.5 -39.5t92.5 -87.5q37 13 72 36t67 58l-2 -1q2 5 4.5 5.5t5.5 0.5q2 0 4.5 -0.5t4.5 -2.5q1 -2 2.5 -4.5t1.5 -5.5
q0 -4 -3 -7q-31 -38 -67.5 -62t-75.5 -38q25 -42 38.5 -88t14.5 -98v-3q0 -70 -24 -131.5t-66 -107t-98 -72.5t-120 -27h-3zM462 506q-5 0 -8.5 0.5t-8.5 0.5h-10q-4 0 -9 2h2q-34 5 -59.5 18t-40.5 34q-7 11 -11 21.5t-4 23.5q0 11 2.5 22.5t9.5 24.5h-9q-58 -1 -109.5 -26
t-90.5 -67.5t-61.5 -99.5t-22.5 -121v-3q0 -65 22.5 -122t61.5 -99.5t91 -67t111 -24.5h3q58 0 109.5 25t90.5 67.5t61.5 99.5t22.5 122v3q-2 50 -16 94.5t-37 82.5q-23 -6 -44.5 -8.5t-41.5 -2.5h-4zM536 540q-34 45 -81.5 73.5t-103.5 36.5q-7 -12 -9.5 -23t-2.5 -20
q0 -19 14 -37q19 -27 78 -36q8 -1 17.5 -2t19.5 -1q33 0 68 9zM251 684q-3 -1 -8 -1q-12 0 -12 6q0 3 6 6l70 22q2 1 8 1h1q1 0 2 0.5t3 0.5q5 0 8 -2l65 -24q5 -2 5 -5t-3.5 -5t-9.5 -2q-5 0 -8 1l-61 23zM354 763q4 3 11 3q5 0 9.5 -2t4.5 -5q0 -2 -3 -4q-18 -11 -43 -19
t-54 -8h-8q-14 0 -14 6q0 3 3 5t11 2h9q23 0 41.5 6t32.5 16z" />
    <glyph glyph-name="uni1ED1" unicode="&#x1ed1;" horiz-adv-x="448" 
d="M180 537q4 6 11 6q5 0 9.5 -4t4.5 -10q0 -4 -3 -7q-18 -23 -43 -39t-54 -16h-8q-14 0 -14 13q0 5 3 9t11 4h9q23 0 41.5 12t32.5 32zM342 74q-30 0 -54 7q-20 -39 -58 -63t-87 -24q-33 0 -61.5 11.5t-50 32t-34 47.5t-12.5 59t12.5 59.5t34 48t50 32.5t61.5 12t62 -12
t50.5 -32.5t34 -48t12.5 -59.5q0 -21 -6 -40q12 -3 22.5 -4t21.5 -1q27 0 52.5 11t43.5 37q4 4 10 4q4 0 7 -2l-1 1q5 -2 5.5 -4.5t0.5 -5.5q0 -1 -0.5 -4t-2.5 -5q-24 -31 -53 -44t-60 -13zM143 19q40 0 72 20t48 51q-21 10 -40.5 23.5t-34.5 28.5t-23.5 31.5t-8.5 32.5
t5 31.5t19 26.5q-9 4 -18 5t-19 1q-28 0 -52.5 -10t-42.5 -27t-28.5 -40t-10.5 -49t10.5 -48.5t28.5 -39.5t42.5 -27t52.5 -10zM278 144q0 35 -19.5 64.5t-50.5 45.5q-15 -8 -20.5 -21t-5.5 -27q0 -22 25 -49t66 -44q5 17 5 31zM85 381q-2 -2 -7 -2q-11 0 -11 11q0 6 6 11
l63 40q2 2 7 2h1q1 0 2 0.5t3 0.5q4 0 7 -3l59 -43q5 -4 5 -10q0 -13 -12 -13q-4 0 -7 3l-56 41z" />
    <glyph glyph-name="uni1ED2" unicode="&#x1ed2;" horiz-adv-x="711" 
d="M318 -1q-65 0 -121.5 26.5t-98.5 72t-66.5 107t-25.5 131.5v3q0 69 24.5 130.5t66.5 107.5t98.5 73t120.5 27h3q7 0 13 -0.5t13 -0.5h1h1t2 -2q66 -6 120.5 -39.5t92.5 -87.5q37 13 72 36t67 58l-2 -1q2 5 4.5 5.5t5.5 0.5q2 0 4.5 -0.5t4.5 -2.5q1 -2 2.5 -4.5t1.5 -5.5
q0 -4 -3 -7q-31 -38 -67.5 -62t-75.5 -38q25 -42 38.5 -88t14.5 -98v-3q0 -70 -24 -131.5t-66 -107t-98 -72.5t-120 -27h-3zM462 506q-5 0 -8.5 0.5t-8.5 0.5h-10q-4 0 -9 2h2q-34 5 -59.5 18t-40.5 34q-7 11 -11 21.5t-4 23.5q0 11 2.5 22.5t9.5 24.5h-9q-58 -1 -109.5 -26
t-90.5 -67.5t-61.5 -99.5t-22.5 -121v-3q0 -65 22.5 -122t61.5 -99.5t91 -67t111 -24.5h3q58 0 109.5 25t90.5 67.5t61.5 99.5t22.5 122v3q-2 50 -16 94.5t-37 82.5q-23 -6 -44.5 -8.5t-41.5 -2.5h-4zM536 540q-34 45 -81.5 73.5t-103.5 36.5q-7 -12 -9.5 -23t-2.5 -20
q0 -19 14 -37q19 -27 78 -36q8 -1 17.5 -2t19.5 -1q33 0 68 9zM251 684q-3 -1 -8 -1q-12 0 -12 6q0 3 6 6l70 22q2 1 8 1h1q1 0 2 0.5t3 0.5q5 0 8 -2l65 -24q5 -2 5 -5t-3.5 -5t-9.5 -2q-5 0 -8 1l-61 23zM270 754q-8 2 -8 6q0 3 4.5 5t10.5 2q2 0 6 -1l88 -24q8 -2 8 -6
q0 -3 -4.5 -5t-10.5 -2q-3 0 -6 1z" />
    <glyph glyph-name="uni1ED3" unicode="&#x1ed3;" horiz-adv-x="448" 
d="M94 516q-8 4 -8 12q0 6 4.5 10t10.5 4q2 0 6 -2l88 -47q8 -5 8 -12q0 -6 -4.5 -10.5t-10.5 -4.5q-3 0 -6 3zM342 74q-30 0 -54 7q-20 -39 -58 -63t-87 -24q-33 0 -61.5 11.5t-50 32t-34 47.5t-12.5 59t12.5 59.5t34 48t50 32.5t61.5 12t62 -12t50.5 -32.5t34 -48
t12.5 -59.5q0 -21 -6 -40q12 -3 22.5 -4t21.5 -1q27 0 52.5 11t43.5 37q4 4 10 4q4 0 7 -2l-1 1q5 -2 5.5 -4.5t0.5 -5.5q0 -1 -0.5 -4t-2.5 -5q-24 -31 -53 -44t-60 -13zM143 19q40 0 72 20t48 51q-21 10 -40.5 23.5t-34.5 28.5t-23.5 31.5t-8.5 32.5t5 31.5t19 26.5
q-9 4 -18 5t-19 1q-28 0 -52.5 -10t-42.5 -27t-28.5 -40t-10.5 -49t10.5 -48.5t28.5 -39.5t42.5 -27t52.5 -10zM278 144q0 35 -19.5 64.5t-50.5 45.5q-15 -8 -20.5 -21t-5.5 -27q0 -22 25 -49t66 -44q5 17 5 31zM85 381q-2 -2 -7 -2q-11 0 -11 11q0 6 6 11l63 40q2 2 7 2h1
q1 0 2 0.5t3 0.5q4 0 7 -3l59 -43q5 -4 5 -10q0 -13 -12 -13q-4 0 -7 3l-56 41z" />
    <glyph glyph-name="uni1ED4" unicode="&#x1ed4;" horiz-adv-x="711" 
d="M321 -1q64 0 120 27t98 72.5t66 107t24 131.5v3q-1 52 -14.5 98t-38.5 88q39 14 75.5 38t67.5 62q3 3 3 7q0 3 -1.5 5.5t-2.5 4.5q-2 2 -4.5 2.5t-4.5 0.5q-3 0 -5.5 -0.5t-4.5 -5.5l2 1q-32 -35 -67 -58t-72 -36q-38 54 -92.5 87.5t-120.5 39.5q-1 2 -2 2h-1h-1
q-7 0 -13 0.5t-13 0.5h-3q-64 0 -120.5 -27t-98.5 -73t-66.5 -107.5t-24.5 -130.5v-3q1 -70 25.5 -131.5t66.5 -107t98.5 -72t121.5 -26.5h3zM462 506h4q20 0 41.5 2.5t44.5 8.5q23 -38 37 -82.5t16 -94.5v-3q0 -65 -22.5 -122t-61.5 -99.5t-90.5 -67.5t-109.5 -25h-3
q-59 0 -111 24.5t-91 67t-61.5 99.5t-22.5 122v3q0 64 22.5 121t61.5 99.5t90.5 67.5t109.5 26h9q-7 -13 -9.5 -24.5t-2.5 -22.5q0 -13 4 -23.5t11 -21.5q15 -21 40.5 -34t59.5 -18h-2q5 -2 9 -2h10t8.5 -0.5t8.5 -0.5zM536 540q-35 -9 -68 -9q-10 0 -19.5 1t-17.5 2
q-59 9 -78 36q-14 18 -14 37q0 9 2.5 20t9.5 23q56 -8 103.5 -36.5t81.5 -73.5zM251 684q-3 -1 -8 -1q-12 0 -12 6q0 3 6 6l70 22q2 1 8 1h1q1 0 2 0.5t3 0.5q5 0 8 -2l65 -24q5 -2 5 -5t-3.5 -5t-9.5 -2q-5 0 -8 1l-61 23zM284 744q-17 0 -17 6q0 8 17 13q16 5 35 5
q20 0 32 -5q14 -5 14 -14q1 -9 -19 -12l-14 -1q-13 -1 -19 -3q-6 -3 -4 -5q1 -4 -7.5 -3.5t-10.5 2.5q-1 1 -1 4q-1 6 16 8q9 1 22 2q14 2 16 8q1 10 -25 11q-15 0 -25 -3q-6 -3 -7 -7q-1 -2 2 -2v0h1q3 0 3 -2q0 -1 -3 -1.5t-6 -0.5z" />
    <glyph glyph-name="uni1ED5" unicode="&#x1ed5;" horiz-adv-x="448" 
d="M342 74q31 0 60 13t53 44q2 2 2.5 5t0.5 4q0 3 -0.5 5.5t-5.5 4.5l1 -1q-3 2 -7 2q-6 0 -10 -4q-18 -26 -43.5 -37t-52.5 -11q-11 0 -21.5 1t-22.5 4q6 19 6 40q0 32 -12.5 59.5t-34 48t-50.5 32.5t-62 12t-61.5 -12t-50 -32.5t-34 -48t-12.5 -59.5t12.5 -59t34 -47.5
t50 -32t61.5 -11.5q49 0 87 24t58 63q24 -7 54 -7zM143 19q-28 0 -52.5 10t-42.5 27t-28.5 39.5t-10.5 48.5t10.5 49t28.5 40t42.5 27t52.5 10q10 0 19 -1t18 -5q-14 -11 -19 -26.5t-5 -31.5t8.5 -32.5t23.5 -31.5t34.5 -28.5t40.5 -23.5q-16 -31 -48 -51t-72 -20zM278 144
q0 -14 -5 -31q-41 17 -66 44t-25 49q0 14 5.5 27t20.5 21q31 -16 50.5 -45.5t19.5 -64.5zM85 381l60 38l56 -41q3 -3 7 -3q12 0 12 13q0 6 -5 10l-59 43q-3 3 -7 3q-2 0 -3 -0.5t-2 -0.5h-1q-5 0 -7 -2l-63 -40q-6 -5 -6 -11q0 -11 11 -11q5 0 7 2zM109 505q-17 0 -17 12
q0 15 17 26q16 9 35 9q20 0 32 -9q14 -11 14 -28q1 -18 -19 -25l-14 -2q-13 -2 -19 -6q-6 -6 -4 -10q1 -8 -7.5 -6.5t-10.5 4.5q-1 3 -1 8q-1 12 16 17q9 2 22 4q14 3 16 16q1 19 -25 22q-15 0 -25 -7q-6 -5 -7 -13q-1 -5 2 -5v0h1q3 0 3 -4q0 -2 -3 -2.5t-6 -0.5z" />
    <glyph glyph-name="uni1ED6" unicode="&#x1ed6;" horiz-adv-x="711" 
d="M318 -1q-65 0 -121.5 26.5t-98.5 72t-66.5 107t-25.5 131.5v3q0 69 24.5 130.5t66.5 107.5t98.5 73t120.5 27h3q7 0 13 -0.5t13 -0.5h1h1t2 -2q66 -6 120.5 -39.5t92.5 -87.5q37 13 72 36t67 58l-2 -1q2 5 4.5 5.5t5.5 0.5q2 0 4.5 -0.5t4.5 -2.5q1 -2 2.5 -4.5t1.5 -5.5
q0 -4 -3 -7q-31 -38 -67.5 -62t-75.5 -38q25 -42 38.5 -88t14.5 -98v-3q0 -70 -24 -131.5t-66 -107t-98 -72.5t-120 -27h-3zM462 506q-5 0 -8.5 0.5t-8.5 0.5h-10q-4 0 -9 2h2q-34 5 -59.5 18t-40.5 34q-7 11 -11 21.5t-4 23.5q0 11 2.5 22.5t9.5 24.5h-9q-58 -1 -109.5 -26
t-90.5 -67.5t-61.5 -99.5t-22.5 -121v-3q0 -65 22.5 -122t61.5 -99.5t91 -67t111 -24.5h3q58 0 109.5 25t90.5 67.5t61.5 99.5t22.5 122v3q-2 50 -16 94.5t-37 82.5q-23 -6 -44.5 -8.5t-41.5 -2.5h-4zM536 540q-34 45 -81.5 73.5t-103.5 36.5q-7 -12 -9.5 -23t-2.5 -20
q0 -19 14 -37q19 -27 78 -36q8 -1 17.5 -2t19.5 -1q33 0 68 9zM251 684q-3 -1 -8 -1q-12 0 -12 6q0 3 6 6l70 22q2 1 8 1h1q1 0 2 0.5t3 0.5q5 0 8 -2l65 -24q5 -2 5 -5t-3.5 -5t-9.5 -2q-5 0 -8 1l-61 23zM245 733q0 -4 -4 -5.5t-9 -1.5q-8 0 -12 4t-4 10q0 11 18 17.5
t41 6.5q17 0 32.5 -4t23.5 -13q3 -5 11 -7t17 -2q14 0 26 4t12 11q0 1 -1 2.5t-2 2.5v1q0 3 4.5 5t9.5 2q9 0 12 -4.5t3 -9.5q0 -12 -20.5 -19.5t-44.5 -7.5q-14 0 -26.5 3t-20.5 10q-2 6 -13 9.5t-23 3.5q-11 0 -20.5 -3t-11.5 -8q2 -2 2 -4v-3z" />
    <glyph glyph-name="uni1ED7" unicode="&#x1ed7;" horiz-adv-x="448" 
d="M71 482q0 -8 -4 -11t-9 -3q-8 0 -12 8.5t-4 19.5q0 24 18 37t41 13q17 0 32.5 -8.5t23.5 -25.5q3 -11 11 -15t17 -4q14 0 26 8.5t12 22.5q0 2 -1 4.5t-2 5.5v1q0 7 4.5 10.5t9.5 3.5q9 0 12 -9t3 -18q0 -25 -20.5 -40t-44.5 -15q-14 0 -26.5 5.5t-20.5 19.5q-2 13 -13 20
t-23 7q-11 0 -20.5 -5.5t-11.5 -17.5q2 -4 2 -8v-6zM342 74q-30 0 -54 7q-20 -39 -58 -63t-87 -24q-33 0 -61.5 11.5t-50 32t-34 47.5t-12.5 59t12.5 59.5t34 48t50 32.5t61.5 12t62 -12t50.5 -32.5t34 -48t12.5 -59.5q0 -21 -6 -40q12 -3 22.5 -4t21.5 -1q27 0 52.5 11
t43.5 37q4 4 10 4q4 0 7 -2l-1 1q5 -2 5.5 -4.5t0.5 -5.5q0 -1 -0.5 -4t-2.5 -5q-24 -31 -53 -44t-60 -13zM143 19q40 0 72 20t48 51q-21 10 -40.5 23.5t-34.5 28.5t-23.5 31.5t-8.5 32.5t5 31.5t19 26.5q-9 4 -18 5t-19 1q-28 0 -52.5 -10t-42.5 -27t-28.5 -40t-10.5 -49
t10.5 -48.5t28.5 -39.5t42.5 -27t52.5 -10zM278 144q0 35 -19.5 64.5t-50.5 45.5q-15 -8 -20.5 -21t-5.5 -27q0 -22 25 -49t66 -44q5 17 5 31zM85 381q-2 -2 -7 -2q-11 0 -11 11q0 6 6 11l63 40q2 2 7 2h1q1 0 2 0.5t3 0.5q4 0 7 -3l59 -43q5 -4 5 -10q0 -13 -12 -13
q-4 0 -7 3l-56 41z" />
    <glyph glyph-name="uni1ED8" unicode="&#x1ed8;" horiz-adv-x="711" 
d="M253 688q-3 -3 -8 -3q-12 0 -12 13q0 6 6 12l70 44q2 2 8 2h1q1 0 2 0.5t3 0.5q5 0 8 -3l65 -48q5 -4 5 -11q0 -5 -3.5 -9.5t-9.5 -4.5q-5 0 -8 3l-61 45zM294 -150q0 11 7 17.5t18 6.5q10 0 17 -6.5t7 -17.5q0 -10 -7 -16.5t-17 -6.5q-11 0 -18 6.5t-7 16.5zM318 -1
q-65 0 -121.5 26.5t-98.5 72t-66.5 107t-25.5 131.5v3q0 69 24.5 130.5t66.5 107.5t98.5 73t120.5 27h3q7 0 13 -0.5t13 -0.5h1h1t2 -2q66 -6 120.5 -39.5t92.5 -87.5q37 13 72 36t67 58l-2 -1q2 5 4.5 5.5t5.5 0.5q2 0 4.5 -0.5t4.5 -2.5q1 -2 2.5 -4.5t1.5 -5.5
q0 -4 -3 -7q-31 -38 -67.5 -62t-75.5 -38q25 -42 38.5 -88t14.5 -98v-3q0 -70 -24 -131.5t-66 -107t-98 -72.5t-120 -27h-3zM462 506q-5 0 -8.5 0.5t-8.5 0.5h-10q-4 0 -9 2h2q-34 5 -59.5 18t-40.5 34q-7 11 -11 21.5t-4 23.5q0 11 2.5 22.5t9.5 24.5h-9q-58 -1 -109.5 -26
t-90.5 -67.5t-61.5 -99.5t-22.5 -121v-3q0 -65 22.5 -122t61.5 -99.5t91 -67t111 -24.5h3q58 0 109.5 25t90.5 67.5t61.5 99.5t22.5 122v3q-2 50 -16 94.5t-37 82.5q-23 -6 -44.5 -8.5t-41.5 -2.5h-4zM536 540q-34 45 -81.5 73.5t-103.5 36.5q-7 -12 -9.5 -23t-2.5 -20
q0 -19 14 -37q19 -27 78 -36q8 -1 17.5 -2t19.5 -1q33 0 68 9z" />
    <glyph glyph-name="uni1ED9" unicode="&#x1ed9;" horiz-adv-x="448" 
d="M85 381q-2 -2 -7 -2q-11 0 -11 11q0 6 6 11l63 40q2 2 7 2h1q1 0 2 0.5t3 0.5q4 0 7 -3l59 -43q5 -4 5 -10q0 -13 -12 -13q-4 0 -7 3l-56 41zM109 -150q0 11 7 17.5t18 6.5q10 0 17 -6.5t7 -17.5q0 -10 -7 -16.5t-17 -6.5q-11 0 -18 6.5t-7 16.5zM342 74q-30 0 -54 7
q-20 -39 -58 -63t-87 -24q-33 0 -61.5 11.5t-50 32t-34 47.5t-12.5 59t12.5 59.5t34 48t50 32.5t61.5 12t62 -12t50.5 -32.5t34 -48t12.5 -59.5q0 -21 -6 -40q12 -3 22.5 -4t21.5 -1q27 0 52.5 11t43.5 37q4 4 10 4q4 0 7 -2l-1 1q5 -2 5.5 -4.5t0.5 -5.5q0 -1 -0.5 -4
t-2.5 -5q-24 -31 -53 -44t-60 -13zM143 19q40 0 72 20t48 51q-21 10 -40.5 23.5t-34.5 28.5t-23.5 31.5t-8.5 32.5t5 31.5t19 26.5q-9 4 -18 5t-19 1q-28 0 -52.5 -10t-42.5 -27t-28.5 -40t-10.5 -49t10.5 -48.5t28.5 -39.5t42.5 -27t52.5 -10zM278 144q0 35 -19.5 64.5
t-50.5 45.5q-15 -8 -20.5 -21t-5.5 -27q0 -22 25 -49t66 -44q5 17 5 31z" />
    <glyph glyph-name="uni1EDA" unicode="&#x1eda;" horiz-adv-x="711" 
d="M352 758q4 6 11 6q5 0 9.5 -4t4.5 -10q0 -4 -3 -7q-18 -23 -43 -39t-54 -16h-8q-14 0 -14 13q0 5 3 9t11 4h9q23 0 41.5 12t32.5 32zM505 608q35 -29 57 -61q37 13 72 36t67 58l-2 -1q2 5 4.5 5.5t5.5 0.5q2 0 4.5 -0.5t4.5 -2.5q1 -2 2.5 -4.5t1.5 -5.5q0 -4 -3 -7
q-31 -38 -67.5 -62t-75.5 -38q25 -42 38.5 -88t14.5 -98v-3q0 -70 -24 -131.5t-66 -107t-98 -72.5t-120 -27h-3q-65 0 -121.5 26.5t-98.5 72t-66.5 107t-25.5 131.5v3q0 69 24.5 130.5t66.5 107.5t98.5 73t120.5 27h3q7 0 13 -0.5t13 -0.5h2q1 0 2 -2q66 -6 139 -53
q32 8 44 28l1 4q-15 13 -6 28q9 18 26 8q9 -4 13 -14t0 -18q-5 -12 -22 -28q-20 -16 -39 -21zM462 506q-5 0 -8.5 0.5t-8.5 0.5h-10q-4 0 -9 2q-33 5 -58 18t-40 34q-7 11 -11 21.5t-4 23.5q0 11 2.5 22.5t9.5 24.5h-9q-58 -1 -109.5 -26t-90.5 -67.5t-61.5 -99.5
t-22.5 -121v-3q0 -65 22.5 -122t61.5 -99.5t91 -67t111 -24.5h3q58 0 109.5 25t90.5 67.5t61.5 99.5t22.5 122v3q-2 50 -16 94.5t-37 82.5q-23 -6 -44.5 -8.5t-41.5 -2.5h-4zM536 540q-34 45 -81.5 73.5t-103.5 36.5q-7 -12 -9.5 -23t-2.5 -20q0 -19 14 -37q19 -27 78 -36
q8 -1 17.5 -2t19.5 -1q33 0 68 9z" />
    <glyph glyph-name="uni1EDB" unicode="&#x1edb;" horiz-adv-x="448" 
d="M280 218q23 -41 22 -74q0 -21 -6 -40q12 -3 22.5 -4t21.5 -1q27 0 52.5 11t43.5 37q4 4 10 4q4 0 7 -2l-1 1q5 -2 5.5 -4.5t0.5 -5.5q0 -1 -0.5 -4t-2.5 -5q-24 -31 -53 -44t-60 -13q-30 0 -54 7q-20 -39 -58 -63t-87 -24q-33 0 -61.5 11.5t-50 32t-34 47.5t-12.5 59
t12.5 59.5t34 48t50 32.5t61.5 12t64 -13t64 -49q19 2 31 22l1 4q-15 13 -6 28q9 18 26 8q9 -4 13 -14t0 -18q-5 -12 -22 -28q-20 -14 -34 -18zM278 144q0 35 -19.5 64.5t-50.5 45.5q-15 -8 -20.5 -21t-5.5 -27q0 -22 25 -49t66 -44q5 17 5 31zM143 19q40 0 72 20t48 51
q-21 10 -40.5 23.5t-34.5 28.5t-23.5 31.5t-8.5 32.5t5 31.5t19 26.5q-9 4 -18 5t-19 1q-28 0 -52.5 -10t-42.5 -27t-28.5 -40t-10.5 -49t10.5 -48.5t28.5 -39.5t42.5 -27t52.5 -10zM177 438q4 5 10 5q13 0 13 -12q0 -4 -3 -7q-16 -21 -39 -35.5t-49 -14.5h-7q-7 0 -10 3.5
t-3 8.5t3 8.5t10 3.5h8q21 0 37.5 10.5t29.5 29.5z" />
    <glyph glyph-name="uni1EDC" unicode="&#x1edc;" horiz-adv-x="711" 
d="M267 734q-8 4 -8 12q0 6 4.5 10t10.5 4q2 0 6 -2l88 -47q8 -5 8 -12q0 -6 -4.5 -10.5t-10.5 -4.5q-3 0 -6 3zM505 608q35 -29 57 -61q37 13 72 36t67 58l-2 -1q2 5 4.5 5.5t5.5 0.5q2 0 4.5 -0.5t4.5 -2.5q1 -2 2.5 -4.5t1.5 -5.5q0 -4 -3 -7q-31 -38 -67.5 -62
t-75.5 -38q25 -42 38.5 -88t14.5 -98v-3q0 -70 -24 -131.5t-66 -107t-98 -72.5t-120 -27h-3q-65 0 -121.5 26.5t-98.5 72t-66.5 107t-25.5 131.5v3q0 69 24.5 130.5t66.5 107.5t98.5 73t120.5 27h3q7 0 13 -0.5t13 -0.5h2q1 0 2 -2q66 -6 139 -53q32 8 44 28l1 4
q-15 13 -6 28q9 18 26 8q9 -4 13 -14t0 -18q-5 -12 -22 -28q-20 -16 -39 -21zM462 506q-5 0 -8.5 0.5t-8.5 0.5h-10q-4 0 -9 2q-33 5 -58 18t-40 34q-7 11 -11 21.5t-4 23.5q0 11 2.5 22.5t9.5 24.5h-9q-58 -1 -109.5 -26t-90.5 -67.5t-61.5 -99.5t-22.5 -121v-3
q0 -65 22.5 -122t61.5 -99.5t91 -67t111 -24.5h3q58 0 109.5 25t90.5 67.5t61.5 99.5t22.5 122v3q-2 50 -16 94.5t-37 82.5q-23 -6 -44.5 -8.5t-41.5 -2.5h-4zM536 540q-34 45 -81.5 73.5t-103.5 36.5q-7 -12 -9.5 -23t-2.5 -20q0 -19 14 -37q19 -27 78 -36q8 -1 17.5 -2
t19.5 -1q33 0 68 9z" />
    </font>
</defs>
</svg>
