<?xml version="1.0" standalone="no"?>
<!DOCTYPE svg PUBLIC "-//W3C//DTD SVG 1.1//EN" "http://www.w3.org/Graphics/SVG/1.1/DTD/svg11.dtd" >
<svg xmlns="http://www.w3.org/2000/svg" xmlns:xlink="http://www.w3.org/1999/xlink" version="1.1">
<metadata>
Created by FontForge 20170731 at Fri Jun 14 14:47:06 2013
 By Aleksey,,,
(URW)++,Copyright 2008 by (URW)++ Design &#38; Development
</metadata>
<defs>
<font id="UVFLPBambusLight" horiz-adv-x="437" vert-adv-y="2048" >
  <font-face 
    font-family="UVF LP Bambus Light"
    font-weight="400"
    font-stretch="normal"
    units-per-em="2048"
    panose-1="0 0 0 0 0 0 0 0 0 0"
    ascent="1536"
    descent="-512"
    x-height="842"
    cap-height="1493"
    bbox="-400 -983 1911 1900"
    underline-thickness="128"
    underline-position="-448"
    unicode-range="U+0020-FB02"
  />
<missing-glyph vert-adv-y="2457" 
d="M44 0v1536h349v-1536h-349zM349 44v1448h-261v-1448h261z" />
    <glyph glyph-name=".notdef" vert-adv-y="2457" 
d="M44 0v1536h349v-1536h-349zM349 44v1448h-261v-1448h261z" />
    <glyph glyph-name=".null" horiz-adv-x="0" vert-adv-y="0" 
 />
    <glyph glyph-name="nonmarkingreturn" vert-adv-y="0" 
 />
    <glyph glyph-name="space" unicode=" " vert-adv-y="2457" 
 />
    <glyph glyph-name="exclam" unicode="!" horiz-adv-x="420" vert-adv-y="2457" 
d="M774 1434q35 0 58 -25q15 -18 15 -38q0 -12 -8 -27q-7 -15 -77 -125q-180 -284 -251 -426q-19 -40 -129 -349q-13 -36 -35 -36q-16 0 -26 13t-10 28q0 225 307 746q91 155 108 205q11 34 48 34zM273 102q55 0 55 -40q0 -20 -23 -40q-36 -30 -94 -30q-28 0 -41 19
q-7 11 -7 23q0 26 31 45q36 23 79 23z" />
    <glyph glyph-name="quotedbl" unicode="&#x22;" horiz-adv-x="497" vert-adv-y="2457" 
d="M775 1637q22 0 42 -17q22 -20 21 -42q-4 -70 -120 -205q-40 -46 -64 -59q-20 -11 -44 -11q-34 0 -34 20q0 10 31 48q42 51 86 138q26 51 38 93q10 35 44 35zM982 1640q23 0 42 -17q22 -20 21 -42q-4 -69 -120 -205q-39 -46 -64 -59q-20 -11 -44 -11q-34 0 -34 20
q0 10 31 48q42 51 86 138q26 53 38 93q10 35 44 35z" />
    <glyph glyph-name="numbersign" unicode="#" horiz-adv-x="1254" vert-adv-y="2457" 
d="M939 1100h7h91h92h6q36 93 71 185q101 263 125 382q5 27 25 27q26 0 55 -39q22 -30 22 -58q0 -19 -27 -92q-6 -16 -110 -278l-26 -64l-26 -65q38 -1 120 -3q34 -1 73 -1q83 0 129 11q5 1 8 1q16 0 16 -28q0 -39 -26 -74q-14 -20 -31 -23t-45 -3q-14 0 -139 12
q-27 3 -145 8l-94 -237l7 -1l97 -2q85 -2 125 -2q83 0 129 11q5 1 8 1q16 0 16 -28q0 -39 -26 -75q-14 -19 -31 -22q-16 -3 -45 -3q-16 0 -139 12q-30 3 -181 10q-15 -39 -22 -58q-50 -124 -78 -226q-33 -124 -67 -335q-7 -45 -31 -45q-37 0 -37 80q0 74 54 319
q19 84 85 268h-7l-192 4h-7q-16 -41 -25 -62q-51 -127 -79 -232q-35 -131 -67 -334q-7 -45 -31 -45q-36 0 -36 77q0 99 52 323q20 85 88 273h-7q-78 -2 -116 -5q-74 -6 -194 -44q-10 -3 -15 -3q-21 0 -21 24q0 34 57 61q96 47 329 56q18 52 57 155l35 94h-7q-104 -2 -143 -5
q-69 -5 -194 -44q-10 -3 -15 -3q-21 0 -21 24q0 46 94 76q105 34 320 42l21 56q30 79 49 130q105 272 126 382q5 27 25 27q25 0 55 -39q22 -29 22 -59q0 -19 -26 -91q-6 -16 -112 -278l-25 -62zM902 1007l-97 -245h7q55 1 102 1l89 -1h6q8 21 22 59q3 10 68 181
q-43 1 -197 5z" />
    <glyph glyph-name="dollar" unicode="$" horiz-adv-x="798" vert-adv-y="2457" 
d="M239 171l-35 -37q-10 -17 -51 -75q-20 -29 -33 -56q-23 -46 -50 -46q-9 0 -19 10q-12 11 -12 24q0 14 29 75q27 57 101 153l4 5q-63 70 -63 143q0 66 111 116q91 42 155 42q46 0 44 -20q-1 -12 -34 -17q-54 -8 -106 -38q-71 -42 -71 -86q0 -55 57 -111q40 -39 107 -64
q89 -34 180 -34q138 0 138 108q0 47 -32 256q-32 208 -32 303q0 69 38 127q43 64 131 64q43 0 84 -13q92 95 131 144q43 54 53 54q14 0 30 -20q21 -24 21 -54q0 -29 -15 -52.5t-59 -62.5q-20 -17 -75 -74q17 -28 17 -58q0 -36 -24 -54q-24 -17 -53 -17q-27 0 -27 17q0 3 1 7
q3 18 3 29q0 75 -66 75q-24 0 -38 -19q-30 -42 -30 -145t27 -295q23 -169 23 -212q0 -64 -36 -99q-75 -71 -213 -71q-176 0 -311 78z" />
    <glyph glyph-name="percent" unicode="%" horiz-adv-x="1054" vert-adv-y="2457" 
d="M1379 1114q32 0 32 -28q0 -22 -29 -36q-217 -111 -466 -318q-309 -256 -541 -562q-93 -122 -119 -205q-10 -33 -38 -33q-27 0 -44 16q-19 19 -19 39q0 44 78 162q132 199 308 364q199 185 453 383q191 148 359 212q15 6 26 6zM572 1117q11 32 47 32q15 0 29 -9
q47 -31 47 -109q0 -121 -77 -245q-72 -116 -141 -116q-50 0 -85 51q-34 48 -34 104q0 96 97 215q68 84 90 82t27 -5zM611 1038q-50 -14 -92 -74q-58 -81 -58 -152q0 -32 26 -32q32 0 74 73q51 88 51 163zM1036 391q14 0 28 -14q24 -26 24 -58q0 -104 -120 -225
q-92 -94 -158 -94q-51 0 -86 56q-25 39 -25 91q0 102 99 216q91 106 166 147q9 5 18 5q10 0 20 -11q23 -24 23 -57q0 -21 -10 -32q-4 -5 -46 -30q-47 -29 -101 -99q-61 -78 -75 -149q-1 -6 -1 -13q0 -23 22 -23q61 0 132 103q35 52 44 87q2 7 4 57q2 43 42 43z" />
    <glyph glyph-name="ampersand" unicode="&#x26;" horiz-adv-x="1103" vert-adv-y="2457" 
d="M585 722q3 16 5 49q13 192 118 356q69 110 152 169q68 48 124 48q36 0 68 -19q69 -42 69 -122q0 -57 -80 -158q-74 -94 -342 -340q3 -151 67 -315q182 183 256 320q16 29 34 29q13 0 23 -17q6 -10 6 -26q0 -34 -57 -123q-83 -128 -219 -270q127 -220 261 -261
q25 -8 25 -22q0 -13 -19 -26q-22 -15 -48 -15q-59 0 -145 64q-78 58 -158 179q-251 -229 -423 -229q-76 0 -122 51q-41 45 -41 106q0 104 140 268q95 111 306 304zM708 836q167 157 223 217q95 102 95 146q0 38 -47 38q-96 0 -179 -130q-45 -69 -70 -160q-5 -19 -22 -111z
M678 308q-66 149 -84 300q-146 -139 -225 -231q-132 -152 -132 -229q0 -29 14 -41q13 -12 49 -12q135 0 378 213z" />
    <glyph glyph-name="quotesingle" unicode="'" horiz-adv-x="305" vert-adv-y="2457" 
d="M783 1623q22 0 42 -17q22 -20 21 -42q-4 -70 -120 -205q-39 -46 -64 -59q-20 -11 -44 -11q-34 0 -34 20q0 10 31 48q42 50 86 138q25 51 38 93q10 35 44 35z" />
    <glyph glyph-name="parenleft" unicode="(" horiz-adv-x="397" vert-adv-y="2457" 
d="M836 1559q41 0 79 -19q34 -17 34 -33q0 -9 -13 -16q-77 -41 -179 -171q-200 -256 -334 -622q-143 -390 -143 -696q0 -64 10 -235v-11q0 -38 -27 -38q-16 0 -29 20q-5 8 -8 23q-27 110 -27 284q0 258 67 523q69 270 315 711q97 174 209 264q19 16 46 16z" />
    <glyph glyph-name="parenright" unicode=")" horiz-adv-x="482" vert-adv-y="2457" 
d="M615 1566q48 0 80 -21q26 -17 44 -101q23 -104 23 -289q0 -376 -193 -792q-171 -370 -403 -596q-37 -35 -64 -35q-19 0 -19 13q0 6 4 14q4 7 170 236q108 150 211 382q177 397 177 757q0 139 -26 218l-56 172q-2 7 -2 13q0 29 54 29z" />
    <glyph glyph-name="asterisk" unicode="*" horiz-adv-x="730" vert-adv-y="2457" 
d="M651 1243q168 76 201 76q36 0 55 -34q8 -15 8 -30q0 -22 -13 -36q-36 -39 -217 -81q136 -136 136 -179q0 -22 -22 -45q-21 -21 -46 -21q-13 0 -22 6q-27 16 -135 175q-60 -85 -90 -132q-31 -51 -64 -51q-29 0 -51 21q-20 19 -20 45q0 22 21 53q23 35 115 128
q-168 35 -204 62q-24 18 -24 50q0 28 21 46q17 15 44 15q33 0 197 -69q-7 102 -7 166q0 87 66 87q58 0 58 -66q0 -58 -7 -186z" />
    <glyph glyph-name="plus" unicode="+" horiz-adv-x="677" vert-adv-y="2457" 
d="M453 444q53 136 126 250q52 82 82 82q17 0 40 -19q28 -23 28 -45q0 -14 -20 -31q-54 -48 -131 -220q79 14 236 59q20 5 29 5q20 0 20 -14q0 -32 -69 -65q-94 -46 -258 -78q-40 -98 -66 -169q-22 -62 -46 -169q-9 -41 -32 -41q-18 0 -30 15q-13 16 -13 39q0 57 33 189
q15 59 35 116q-79 -9 -126 -9q-119 0 -119 65q0 50 36 50q7 0 21 -5q31 -11 101 -11q74 0 123 6z" />
    <glyph glyph-name="comma" unicode="," horiz-adv-x="316" vert-adv-y="2457" 
d="M215 162q22 0 42 -17q22 -19 21 -42q-4 -70 -120 -205q-40 -46 -64 -59q-20 -11 -44 -11q-34 0 -34 20q0 10 31 48q43 52 86 138q24 47 38 93q11 35 44 35z" />
    <glyph glyph-name="hyphen" unicode="-" horiz-adv-x="541" vert-adv-y="2457" 
d="M232 383q9 0 22 -5q36 -14 94 -14q106 0 232 33q17 5 30 5q21 0 21 -16q0 -21 -25 -38q-67 -44 -172 -65q-63 -13 -125 -13q-111 0 -111 62q0 51 34 51z" />
    <glyph glyph-name="period" unicode="." horiz-adv-x="229" vert-adv-y="2457" 
d="M95 105q44 0 80 -28q24 -19 24 -44q0 -40 -73 -40q-96 0 -96 54q0 24 17 40q18 18 48 18z" />
    <glyph glyph-name="slash" unicode="/" horiz-adv-x="732" vert-adv-y="2457" 
d="M1239 1603q20 0 35 -29q16 -30 16 -61q0 -28 -18 -53q-29 -42 -242 -276q-549 -606 -733 -862q-74 -104 -178 -291q-18 -33 -39 -33q-7 0 -14 7q-11 11 -10 25q7 151 428 671q150 186 481 568q192 221 249 316q11 18 25 18z" />
    <glyph glyph-name="zero" unicode="0" horiz-adv-x="834" vert-adv-y="2457" 
d="M898 1116q-22 0 -30 -11q-3 -3 -7 -6q-6 -7 -15 -7q-11 0 -11 20q0 38 23 68q27 35 74 35q73 0 110 -79q35 -73 35 -189q0 -216 -85 -440q-91 -243 -258 -393q-135 -121 -252 -121q-74 0 -139 55q-52 44 -80 116q-30 77 -30 164q0 258 155 561q129 250 317 416
q141 124 276 155q7 1 15 1q16 0 30 -18q9 -12 9 -40q0 -32 -17 -47q-6 -7 -104 -37q-68 -21 -176 -127q-177 -175 -292 -459q-94 -232 -94 -413q0 -93 34 -150q37 -65 98 -65q128 0 268 185q84 111 143 263q78 204 78 405q0 102 -36 141q-16 17 -39 17z" />
    <glyph glyph-name="one" unicode="1" horiz-adv-x="423" vert-adv-y="2457" 
d="M695 1271q-82 -61 -181 -160q-75 -75 -127 -143q-16 -20 -31 -20q-16 0 -27 22q-8 15 -8 33q0 31 16 56q25 39 83 102q61 66 153 144q182 156 207 156q27 0 48 -32q24 -37 24 -70q0 -23 -56 -125q-32 -59 -202 -418q-273 -574 -315 -779q-9 -43 -29 -43q-18 0 -33 32
q-13 26 -13 64q0 235 491 1181z" />
    <glyph glyph-name="two" unicode="2" horiz-adv-x="883" vert-adv-y="2457" 
d="M207 110q209 50 371 50q191 0 255 -75q21 -23 21 -43q0 -22 -28 -22q-15 0 -52 13q-68 26 -162 26q-90 0 -194 -15q-104 -16 -157 -33q-63 -19 -74 -19q-26 0 -56 26q-54 47 -54 98q0 52 82 139q64 69 229 223q329 306 509 536q95 120 95 230q0 53 -38 75q-19 12 -44 12
q-65 0 -167 -55q-100 -54 -173 -131q-61 -64 -61 -110q0 -12 3 -24q8 -29 8 -41q0 -25 -43 -25q-41 0 -63 26t-22 60q0 132 195 270q103 74 210 111q67 23 119 23q83 0 133 -57q52 -60 52 -153q0 -64 -24 -126t-82 -145q-58 -82 -183.5 -216t-267.5 -265
q-206 -190 -295 -303z" />
    <glyph glyph-name="three" unicode="3" horiz-adv-x="881" vert-adv-y="2457" 
d="M450 575q-61 37 -61 95q0 28 16 42q6 5 91 54q92 53 222 161q256 211 256 338q0 53 -62 53q-138 0 -340 -136q-107 -73 -172 -148q-21 -24 -31 -44q-12 -23 -25 -23q-39 0 -39 56q0 103 196 242q130 92 271 142q87 30 150 30q89 0 133 -63q29 -42 29 -97
q0 -187 -275 -422q-102 -86 -273 -197q144 -62 191 -84q136 -62 201 -145q46 -58 46 -118q0 -76 -69 -148q-84 -87 -227 -130q-127 -38 -271 -38q-118 0 -204 32q-122 46 -122 122q0 53 51 101q35 33 72 33q23 0 23 -17q0 -11 -12 -30q-9 -15 -9 -28q0 -39 51 -68
q74 -41 183 -41q137 0 259 52q92 40 144 100q25 29 25 58q0 48 -45 84q-27 23 -131 70q-142 63 -242 112z" />
    <glyph glyph-name="four" unicode="4" horiz-adv-x="879" vert-adv-y="2457" 
d="M743 677q-163 -48 -262 -48q-87 0 -147 31q-42 22 -64 56q-16 23 -16 44q0 39 62 109q218 246 353 444q39 58 54 130q6 30 28 30t41 -19q17 -17 17 -37q0 -60 -62 -171q-47 -82 -211 -289q-132 -167 -132 -194q0 -31 75 -31q85 0 181 20q11 2 93 21q14 3 40 9
q43 85 64 127q42 84 60 116q97 168 107 214q8 43 19 52q9 8 22 8q30 0 49 -23q15 -18 15 -45q0 -14 -7 -30q-32 -75 -187 -390q78 12 135 12q49 0 61 -6q14 -7 14 -20q0 -39 -80 -44q-47 -3 -176 -34q-155 -329 -208 -510q-23 -78 -27 -161q-2 -56 -32 -56q-25 0 -45 29
q-22 34 -22 91q0 165 188 565z" />
    <glyph glyph-name="five" unicode="5" horiz-adv-x="815" vert-adv-y="2457" 
d="M654 1254q-75 -187 -168 -361q121 78 225 78q123 0 196 -89q72 -89 72 -223q0 -120 -68 -254q-85 -169 -231 -283q-164 -128 -333 -128q-81 0 -145 39q-90 54 -90 155q0 66 40 107q26 25 54 25q33 0 33 -28q0 -10 -7 -26q-16 -33 -16 -59q0 -63 50 -91q36 -20 86 -20
q198 0 370 220q71 90 111 193q37 94 37 168q0 172 -174 172q-167 0 -301 -161q-40 -48 -53 -48q-22 0 -42 28q-23 33 -23 71q0 19 5 31q3 5 26 38q70 94 163 327q69 170 107 205q32 29 76 29q10 0 27 -2q67 -6 128 -6q138 0 270 53q31 12 47 12q24 0 24 -19q0 -20 -21 -45
q-62 -73 -246 -97q-74 -10 -229 -11z" />
    <glyph glyph-name="six" unicode="6" horiz-adv-x="764" vert-adv-y="2457" 
d="M793 930q84 0 137 -61q56 -64 56 -158q0 -130 -71 -287q-89 -196 -236 -316q-139 -113 -279 -113q-109 0 -156 127q-28 74 -28 167q0 210 134 508q110 244 261 419q191 219 373 219q86 0 129 -86q24 -49 24 -108q0 -71 -34 -108q-29 -33 -59 -33q-24 0 -24 34q0 8 6 29
q6 23 6 42q0 43 -18 89q-17 44 -44 44q-71 0 -167 -80q-123 -102 -259 -335q-175 -301 -206 -549q-8 -61 -8 -106q0 -51 11 -89q22 -82 82 -82q143 0 285 200q79 111 122 239q33 98 33 175q0 109 -72 109q-68 0 -144 -99q-57 -74 -65 -154q-6 -56 -51 -56q-21 0 -40 16
q-22 18 -22 47q0 55 38 133q47 98 127 162q75 61 159 61z" />
    <glyph glyph-name="seven" unicode="7" horiz-adv-x="677" vert-adv-y="2457" 
d="M1026 1332q-249 -43 -394 -43q-141 0 -205 37q-40 24 -40 65q0 23 15 44q16 20 35 20q13 0 25 -8q66 -45 286 -45q112 0 223 17q30 4 165 37q6 2 10 2q27 0 57 -32q29 -30 29 -62q0 -15 -7 -24q-4 -5 -119 -104q-116 -101 -308 -369q-219 -309 -323 -566
q-67 -166 -73 -271q-2 -35 -30 -35q-24 0 -42 25q-15 22 -15 55q0 233 260 651q127 205 278 401q47 60 173 205z" />
    <glyph glyph-name="eight" unicode="8" horiz-adv-x="763" vert-adv-y="2457" 
d="M646 829q167 139 194 183q17 27 31 27q18 0 18 -41q0 -58 -74 -140q-56 -61 -151 -149q27 -134 87 -343q41 -142 41 -177q0 -83 -98 -138q-109 -61 -247 -61q-148 0 -246 79q-91 74 -91 164q0 98 148 254q90 93 274 248l11 9q-17 107 -17 171q0 224 120 395
q114 164 280 164q105 0 154 -89q26 -47 26 -103q0 -84 -55 -131q-33 -27 -66 -27q-35 0 -35 24q0 11 15 32q47 65 47 134q0 61 -59 61q-106 0 -191 -99q-120 -139 -120 -336q0 -35 4 -111zM567 624q-176 -152 -257 -235q-59 -60 -90 -122q-8 -16 -8 -30q0 -50 67 -97
q69 -49 175 -49q107 0 182 41q22 11 29 21q12 15 12 46q0 37 -14 87q-2 7 -63 212q-12 41 -33 126z" />
    <glyph glyph-name="nine" unicode="9" horiz-adv-x="611" vert-adv-y="2457" 
d="M1058 1222q11 -20 11 -42q0 -9 -4 -19q-1 -3 -142 -256q-123 -222 -241 -478q-112 -243 -136 -394q-6 -41 -30 -41q-45 0 -45 111q0 84 47 217q58 162 231 493q-93 -91 -174 -143q-124 -79 -196 -79q-58 0 -95 44q-34 41 -34 101q0 140 168 328q125 141 314 263
q193 124 318 124q69 0 69 -67q0 -55 -61 -162zM893 1066q-35 0 -35 24q0 8 43 54q75 80 99 153q5 16 5 26q0 21 -23 21q-36 0 -111 -45q-164 -98 -313 -255q-143 -152 -180 -254q-11 -31 -11 -47q0 -50 39 -50q86 0 238 122q118 95 249 251z" />
    <glyph glyph-name="colon" unicode=":" horiz-adv-x="279" vert-adv-y="2457" 
d="M119 98q49 0 82 -28q24 -20 24 -42q0 -42 -75 -42q-42 0 -72 16q-22 12 -22 37q0 24 16 41q18 18 47 18zM264 377q28 0 45 -11q19 -12 19 -30q0 -23 -33 -45q-40 -27 -79 -27q-46 0 -46 48q0 23 20 41q27 24 74 24z" />
    <glyph glyph-name="semicolon" unicode=";" horiz-adv-x="497" vert-adv-y="2457" 
d="M387 323q29 0 46 -11q19 -12 19 -28q0 -26 -33 -47q-42 -27 -79 -27q-45 0 -45 49q0 22 18 39q26 25 74 25zM297 111q22 0 42 -17q22 -20 21 -42q-4 -70 -120 -206q-39 -46 -64 -59q-20 -11 -44 -11q-34 0 -34 20q0 10 31 48q42 51 86 139q25 51 38 93q10 35 44 35z" />
    <glyph glyph-name="less" unicode="&#x3c;" horiz-adv-x="612" vert-adv-y="2457" 
d="M366 468q21 -3 163 -28l106 -19q110 -25 119 -34q13 -10 13 -39q0 -73 -60 -73q-17 0 -211 38q-160 32 -187 36q-70 9 -93 25q-29 19 -29 64q0 51 29 74q27 21 151 53q207 53 250 67q72 23 93 23q40 0 40 -43q0 -18 -11 -28q-17 -17 -46 -23l-67 -15l-153 -46
q-82 -23 -107 -32z" />
    <glyph glyph-name="equal" unicode="=" horiz-adv-x="608" vert-adv-y="2457" 
d="M680 334q19 0 19 -18q0 -27 -30 -47q-44 -29 -130 -52q-105 -28 -207 -28q-147 0 -147 63q0 24 11 39q10 13 23 13q3 0 14 -3q1 0 9 -2q5 -2 15 -4q39 -11 103 -11q132 0 294 45q17 5 26 5zM744 532q22 0 22 -16q0 -35 -74 -66q-174 -72 -366 -72q-136 0 -136 65
q0 54 37 54q4 0 20 -6q39 -15 108 -15q215 0 363 50q19 6 26 6z" />
    <glyph glyph-name="greater" unicode="&#x3e;" horiz-adv-x="612" vert-adv-y="2457" 
d="M589 468q-22 8 -107 32l-153 46q-77 17 -87 21q-37 15 -37 45q0 43 40 43q21 0 93 -23q44 -15 249 -67q124 -32 151 -53q29 -23 29 -74q0 -45 -29 -64q-22 -15 -93 -25q-28 -4 -305 -59q-76 -15 -93 -15q-60 0 -60 73q0 29 12 39q10 9 120 34l106 19q140 24 164 28z" />
    <glyph glyph-name="question" unicode="?" horiz-adv-x="498" vert-adv-y="2457" 
d="M779 1439q92 0 141 -51q33 -35 33 -91q0 -198 -373 -529q-194 -173 -194 -233q0 -29 70 -29q23 0 57 8q21 4 29 4q26 0 26 -20q0 -18 -22 -41q-39 -43 -95 -43q-72 0 -124 51q-34 32 -34 69q0 81 82 170q79 86 184 179q209 184 262 281q38 70 38 131q0 57 -76 57
q-103 0 -204 -89q-81 -70 -106 -140q-23 -61 -58 -61q-27 0 -27 49q0 80 83 173q73 82 173 125q69 30 135 30zM294 101q40 0 78 -28q24 -17 24 -43q0 -17 -20 -28q-19 -12 -54 -12q-96 0 -96 51q0 60 68 60z" />
    <glyph glyph-name="at" unicode="@" horiz-adv-x="1254" vert-adv-y="2457" 
d="M1061 729q2 -7 2 -11q0 -7 -12 -39q-40 -107 -40 -169q0 -58 92 -58q119 0 194 70q81 75 81 201q0 161 -121 272q-115 105 -296 105q-228 0 -377 -166q-129 -143 -129 -338q0 -290 258 -406q144 -65 303 -65q88 0 167 28q21 7 35 7q25 0 38 -28q5 -12 5 -27
q0 -75 -237 -75q-191 0 -345 61q-162 65 -251 202q-82 126 -82 303q0 166 82 308q81 142 223 223q142 82 311 82q251 0 397 -166q123 -139 123 -319q0 -147 -90 -241q-49 -51 -125 -81q-72 -28 -150 -28q-89 0 -148 42q-40 28 -41 111q-104 -121 -167 -121q-52 0 -74 48
q-9 21 -9 48q0 67 74 170q80 111 155 162q49 33 86 33q45 0 70 -35q15 -21 15 -49q0 -33 -17 -54zM1005 773q-2 14 -15 14q-47 0 -136 -115q-88 -116 -88 -172q0 -9 6 -9q18 0 72 53q52 51 99 125q19 29 38 82q6 19 24 22z" />
    <glyph glyph-name="A" unicode="A" horiz-adv-x="1019" vert-adv-y="2457" 
d="M362 477l-115 -13q-39 -5 -48 -5q-30 0 -48 18q-21 23 -21 55q0 28 20 28h8q34 -4 48 -4q46 0 186 24l49 8l70 97q131 180 206 281q285 387 317 448q17 33 33 33q36 0 77 -37q27 -25 27 -49q0 -19 -28 -96q-23 -64 -111 -389q-27 -100 -41 -159l63 18l22 7q46 14 56 14
q18 0 18 -16q0 -35 -80 -64l-98 -36q-94 -420 -94 -618q0 -17 1 -29q4 -58 4 -63q0 -30 -27 -30q-68 0 -68 270q0 164 56 429q-147 -47 -339 -91q-250 -373 -304 -495q-8 -21 -24 -21q-29 0 -53 22q-29 26 -29 51q0 20 32 64q6 8 45 70q46 74 190 278zM863 682
q61 249 146 530q-139 -173 -432 -597q182 39 286 67z" />
    <glyph glyph-name="B" unicode="B" horiz-adv-x="1232" vert-adv-y="2457" 
d="M837 1306q-84 -40 -160 -90q-106 -70 -106 -101q0 -15 26 -25q32 -12 32 -23q0 -25 -57 -25q-46 0 -78 27q-23 20 -23 49q0 73 119 157q109 78 269 145q-4 21 -4 32q0 40 38 40q31 0 55 -40q135 43 225 43q105 0 180 -38q94 -49 94 -153q0 -196 -326 -403q78 -19 123 -55
q96 -74 96 -200q0 -171 -139 -321q-183 -195 -478 -286q-151 -47 -286 -47q-168 0 -226 51q-39 34 -39 76q0 28 23 28q8 0 38 -17q78 -44 212 -44q182 0 379 96q204 100 314 241q86 112 86 223q0 62 -32 105q-46 63 -146 63q-24 0 -124 -20q-7 -1 -16 -1q-21 0 -37 17
q-22 24 -22 58q0 21 11 31q6 5 73 27q80 25 211 117q204 145 204 260q0 91 -173 91q-81 0 -213 -38q-2 -43 -41 -148q-77 -209 -238 -586q-103 -243 -132 -320q-48 -130 -66 -153q-11 -15 -29 -15q-20 0 -39 16q-24 22 -24 48q0 14 88 227q306 738 358 881z" />
    <glyph glyph-name="C" unicode="C" horiz-adv-x="1022" vert-adv-y="2457" 
d="M1015 1437q69 -8 107 -59q36 -47 36 -115q0 -74 -33 -109q-16 -17 -36 -17q-26 0 -26 30q0 11 3 31q3 17 3 33q0 44 -23 71q-22 26 -51 26q-93 0 -263 -191q-213 -239 -342 -546q-78 -187 -78 -327q0 -171 102 -171q133 0 337 147q142 102 240 219q24 29 38 29
q20 0 20 -29q0 -83 -161 -235q-121 -113 -259 -179q-108 -52 -189 -52q-151 0 -212 125q-39 79 -39 175q0 189 161 493q128 243 308 438q213 230 357 213z" />
    <glyph glyph-name="D" unicode="D" horiz-adv-x="1302" vert-adv-y="2457" 
d="M1134 1484q3 13 5 19q8 37 30 37q19 0 38 -22q20 -22 24 -58q118 -45 182 -102q80 -70 122 -170q36 -84 36 -175q0 -271 -217 -533q-203 -246 -506 -386q-220 -101 -413 -101q-160 0 -247 72q-55 44 -55 100q0 42 21 42q6 0 10 -3q5 -4 37 -49q46 -66 217 -66
q169 0 373 93q201 93 373 245q319 284 319 590q0 122 -72 221q-54 75 -140 111q-24 10 -58 21l-24 -55q-101 -238 -204 -450q-189 -391 -245 -548q-10 -28 -21 -77q-8 -36 -29 -36q-12 0 -21 9q-16 18 -16 50q0 145 305 803q61 130 108 249q20 49 32 77q-27 2 -46 2
q-219 0 -427 -152q-103 -76 -175 -165q-61 -76 -61 -113q0 -35 56 -35h8q13 1 18 1q22 0 22 -12q0 -10 -17 -22q-26 -17 -57 -17q-47 0 -82 20q-38 22 -38 61q0 84 106 213q130 158 323 246q157 72 315 72q38 0 91 -7z" />
    <glyph glyph-name="E" unicode="E" horiz-adv-x="971" vert-adv-y="2457" 
d="M669 1412l3 12l3 18q7 46 35 46q36 0 52 -59q124 17 209 17q212 0 332 -64q21 -10 21 -25q0 -22 -25 -22q-8 0 -74 13q-64 13 -185 13q-135 0 -291 -29q-42 -158 -194 -480q138 18 205 18q164 0 219 -50q13 -13 13 -29q0 -22 -29 -22q-6 0 -20 4q-49 12 -118 12
q-138 0 -321 -39q-29 -58 -83 -169q-14 -29 -79 -158q-131 -257 -149 -311q202 64 395 64q163 0 272 -39q96 -35 96 -71q0 -14 -23 -14q-10 0 -25 3q-113 24 -230 24q-255 0 -486 -77q-16 -5 -28 -5q-32 0 -59 27q-37 37 -37 78q0 31 89 218q27 55 140 280l33 66l34 67
q-37 25 -37 58q0 30 36 35q2 0 11 1q5 1 17 3q10 1 24 4q152 308 218 475q-129 -39 -167 -74q-25 -23 -44 -23q-26 0 -44 26q-15 23 -15 45q0 28 22 39q103 52 284 94z" />
    <glyph glyph-name="F" unicode="F" horiz-adv-x="975" vert-adv-y="2457" 
d="M1196 1383v-1v-4q0 -2 -3 -8l-2 -5v-2l-82 -189l-158 -364q167 54 249 89q44 18 56 18q17 0 17 -14q0 -30 -52 -59q-109 -59 -311 -134q-144 -340 -233 -575q-24 -63 -56 -102q-33 -41 -65 -41q-29 0 -29 33q0 17 6 35q25 72 212 534l29 69q-172 -54 -244 -54
q-41 0 -75 17q-33 17 -33 47q0 11 6 24q8 17 23 17q5 0 26 -7q17 -6 40 -6q76 0 300 65l160 380l87 207q-76 -19 -163 -47q-74 -23 -298 -114q-159 -63 -185 -63q-37 0 -62 22q-22 19 -22 48q0 15 20 24q55 27 291 100q352 109 606 151q226 38 335 38q49 0 71 -18
q20 -17 20 -30q0 -21 -45 -23q-202 -12 -436 -58z" />
    <glyph glyph-name="G" unicode="G" horiz-adv-x="992" vert-adv-y="2457" 
d="M846 346q-343 -353 -504 -353q-64 0 -106 48q-64 75 -64 189q0 191 167 516q138 267 323 470q202 220 351 220q82 0 125 -70q27 -44 27 -101q0 -50 -20 -91q-18 -37 -47 -37t-29 37q0 6 4 24q4 14 4 31q0 42 -22 71q-22 28 -49 28q-96 0 -268 -191q-226 -250 -374 -593
q-90 -210 -90 -324q0 -53 26 -85q22 -26 56 -26q65 0 224 120q154 117 290 270q83 94 83 127q0 22 -18 22q-9 0 -45 -12q-111 -36 -205 -52q-48 -8 -63 -8q-27 0 -43 25q-10 15 -10 35q0 63 49 63h21q75 0 351 58q21 5 37 5q27 0 47 -19q32 -30 32 -73q0 -26 -30 -80
t-92 -201q-77 -184 -77 -347q0 -46 14 -107q3 -14 3 -20q0 -28 -21 -28q-22 0 -46 27q-15 17 -30 66q-19 64 -19 138q0 92 38 228z" />
    <glyph glyph-name="H" unicode="H" horiz-adv-x="945" vert-adv-y="2457" 
d="M895 734q-113 -11 -225 -37q-66 -15 -209 -56q-111 -253 -164 -389q-41 -106 -63 -200q-15 -63 -34 -63q-16 0 -26 22q-12 28 -12 62q0 151 158 525q-148 -47 -189 -47q-30 0 -47 24q-16 22 -16 48q0 44 43 45q65 0 110 9q52 11 148 34q167 375 219 521q38 109 56 206
q9 44 38 44t52 -29q20 -25 20 -65q0 -66 -144 -402q-46 -107 -74 -174q-15 -37 -29 -66q161 38 240 50q64 10 182 16q147 335 166 459q7 42 14 56q10 19 31 19q27 0 46 -29q16 -24 16 -53q0 -83 -148 -445l-6 -15q7 -1 27 -4l15 -3q84 -17 84 -43q0 -22 -38 -22l-86 6h-19
l-12 1l-70 -161q-218 -496 -240 -655q-8 -60 -29 -60q-18 0 -28 31q-12 36 -12 88q0 168 187 594z" />
    <glyph glyph-name="I" unicode="I" horiz-adv-x="333" vert-adv-y="2457" 
d="M666 1493q23 0 42 -24q21 -28 21 -64q0 -44 -25 -126q-44 -143 -243 -599q-181 -414 -214 -516q-19 -58 -23 -95q-5 -36 -33 -59q-21 -17 -39 -17q-41 0 -41 53q0 66 56 223q46 132 190 455q206 464 252 626q15 53 23 99q7 44 34 44z" />
    <glyph glyph-name="J" unicode="J" horiz-adv-x="760" vert-adv-y="2457" 
d="M573 529q11 -1 11 -12q0 -12 -20 -36q-154 -185 -240 -331q-117 -198 -184 -417q-47 -155 -47 -261q0 -124 43 -124q23 0 56 36q41 44 116.5 171.5t122.5 234.5q23 49 458 1167q108 279 108 373q0 69 -97 69q-109 0 -139 -4q-109 -13 -127 -18t-18 -21q0 -25 29 -51
q17 -15 17 -25q0 -19 -34 -19q-40 0 -113 36q-81 40 -81 91q0 45 98 62q206 36 412 36q225 0 225 -49q0 -15 -21 -59q-33 -69 -59 -156q-156 -517 -228 -690q-271 -644 -331 -776t-153 -280q-54 -87 -120 -160t-101 -86q-17 -6 -36 -6q-77 0 -111 119q-19 66 -19 158
q0 157 92 374q114 268 308 489q148 167 183 165z" />
    <glyph glyph-name="K" unicode="K" horiz-adv-x="955" vert-adv-y="2457" 
d="M293 337q271 324 450 511q177 185 385 341q144 108 207 108q22 0 38 -11q14 -10 14 -21q0 -21 -38 -42q-74 -39 -112 -66q-197 -137 -505 -464q7 -335 105 -553q44 -97 92 -146q38 -38 88 -60q42 -19 42 -38q0 -10 -11 -18q-14 -10 -34 -10q-17 0 -36 6q-110 32 -198 153
q-137 187 -163 538q-201 -227 -388 -474q-60 -79 -71 -89t-25 -10q-24 0 -41 25q-17 27 -17 53q0 21 70 195q155 384 205 498q158 364 194 480q24 79 34 140q6 42 41 42q20 0 40 -19q17 -18 17 -46q0 -86 -77 -288q-29 -78 -123 -300q-86 -200 -183 -435z" />
    <glyph glyph-name="L" unicode="L" horiz-adv-x="797" vert-adv-y="2457" 
d="M224 106q142 30 255 30q148 0 232 -32q46 -18 65 -46q14 -20 14 -34q0 -18 -22 -18q-7 0 -22 5q-78 27 -198 27q-166 0 -325 -42q-12 -3 -27 -3q-42 0 -74 36q-32 35 -32 73q0 21 29 80q14 28 181 451q228 572 236 598q38 122 43 213q2 42 33 42q23 0 43 -17
q28 -24 28 -73q0 -134 -151 -535q-120 -322 -260 -641q-30 -69 -48 -114z" />
    <glyph glyph-name="M" unicode="M" horiz-adv-x="1277" vert-adv-y="2457" 
d="M646 928q-42 -72 -91 -150q-293 -474 -373 -653q-11 -23 -33 -100q-9 -33 -38 -33q-23 0 -45 18q-22 17 -22 41q0 35 27 88q57 110 106 198q67 121 251 412q365 575 420 753q7 23 30 23q36 0 68 -38q25 -29 25 -60q0 -50 -75 -195q-133 -256 -243 -638q-30 -102 -30 -156
q0 -41 26 -41q37 0 108 94q104 137 280 434q146 247 192 341q39 81 56 101q16 20 42 20q29 0 53 -28q21 -23 21 -47t-17 -79q-21 -67 -116 -509q-60 -279 -67 -366q-4 -53 -4 -107q0 -164 44 -303q5 -17 5 -25q0 -25 -21 -25q-17 0 -34 19q-38 41 -67 134q-37 121 -37 281
q0 163 44 376q29 142 102 383q-129 -249 -266 -472q-126 -205 -191 -264q-82 -74 -158 -74q-117 0 -117 149q0 155 145 498z" />
    <glyph glyph-name="N" unicode="N" horiz-adv-x="982" vert-adv-y="2457" 
d="M785 179q55 184 308 797q158 384 187 507q8 37 39 37q22 0 41 -19q21 -22 21 -54q0 -28 -21 -89q-36 -109 -246 -614q-246 -593 -262 -762q-4 -48 -45 -48q-33 0 -57 27q-36 40 -67 165q-38 154 -49 326q-13 225 -16 663q-191 -477 -218 -550q-73 -199 -103 -310
q-36 -133 -36 -177v-38q0 -48 -38 -48q-27 0 -48 25q-24 28 -24 82q0 90 46 244q31 105 67 200q13 35 187 463q145 362 149 368q13 22 33 22q35 0 65 -29q30 -31 30 -69q0 -37 -5 -118q-4 -59 -4 -170q0 -320 17 -539q12 -159 23 -210q6 -29 26 -82z" />
    <glyph glyph-name="O" unicode="O" horiz-adv-x="809" vert-adv-y="2457" 
d="M651 1253q53 239 195 239q78 0 134 -73q40 -53 66 -160q22 -88 22 -186q0 -291 -125 -569q-85 -191 -218 -330q-174 -181 -327 -181q-52 0 -101 31q-91 57 -91 193q0 117 67 318q62 189 170 387q117 217 197 320l3 3q2 4 5 5t3 3zM640 1053q-141 -259 -214 -461
q-93 -259 -93 -393q0 -60 28 -88q17 -16 37 -16q130 0 295 210q143 183 215 406q59 181 59 363q0 168 -51 259q-28 50 -63 50q-33 0 -65 -63q-50 -96 -50 -250q0 -78 27 -178q4 -15 4 -22q0 -23 -22 -23q-85 0 -107 206z" />
    <glyph glyph-name="P" unicode="P" horiz-adv-x="813" vert-adv-y="2457" 
d="M768 1414q-130 -51 -214 -103q-204 -126 -335 -275q-127 -144 -127 -217q0 -20 18 -34q31 -24 86 -24l38 1q14 0 14 -11t-13 -24q-32 -31 -86 -31q-70 0 -111 45q-35 37 -35 89q0 118 174 304q154 163 368 280q89 48 235 94q3 51 47 51q32 0 48 -32q55 5 87 5
q151 0 246 -99q86 -90 86 -219q0 -157 -172 -312q-137 -124 -315 -195q-123 -49 -199 -49q-34 0 -56 10q-239 -510 -250 -646q-3 -30 -27 -30q-22 0 -43 23q-28 31 -28 69q0 127 367 891q168 351 197 439zM590 748q84 12 129.5 26t108.5 47q184 97 288 231q74 95 74 187
q0 104 -82 165q-62 45 -144 45q-24 0 -71 -6q-58 -176 -151 -375q-13 -29 -105 -221q-25 -52 -47 -99z" />
    <glyph glyph-name="Q" unicode="Q" horiz-adv-x="896" vert-adv-y="2457" 
d="M677 204q-26 76 -46 143q-30 99 -47 127q-15 24 -15 39q0 22 22 35q14 8 36 8t40 -12q16 -10 25 -54q8 -34 22 -88q21 -75 35 -119q123 165 198 349q104 257 104 468q0 64 -18 101q-15 30 -36 30q-33 0 -89 -60q-53 -57 -98 -154q-13 -30 -28 -30q-19 0 -19 42
q0 55 54 153q91 165 183 165q67 0 100 -73t33 -193q0 -270 -128 -565q-79 -182 -216 -344q70 -167 144 -218q27 -19 27 -33q0 -18 -29 -18q-38 0 -86 35q-66 48 -125 166q-130 -111 -230 -111q-108 0 -176 98q-61 89 -61 227q0 220 149 545q117 254 324 514q69 87 108 87
q27 0 57 -18q25 -15 25 -29q0 -6 -146 -161q-65 -70 -155.5 -232t-152.5 -321q-97 -249 -97 -420q0 -184 122 -184q81 0 190 105z" />
    <glyph glyph-name="R" unicode="R" horiz-adv-x="969" vert-adv-y="2457" 
d="M688 1277q-133 -39 -228 -97q-153 -92 -256 -219q-36 -43 -36 -66q0 -29 41 -38q21 -5 21 -21q0 -12 -12 -19q-13 -7 -25 -7q-53 0 -92 37q-32 31 -32 75q0 81 170 216q133 105 288 174q70 30 193 71q16 46 58 46q29 0 46 -37q34 1 51 1q151 0 268 -65q142 -78 142 -238
q0 -200 -247 -363q-143 -94 -366 -155q57 -238 146 -415q89 -178 182 -235q41 -25 41 -46q0 -23 -44 -23q-38 0 -99 42q-210 144 -366 716q-36 -87 -75 -172q-78 -174 -104 -234q-51 -121 -73 -153q-40 -59 -82 -59q-38 0 -38 39q0 47 71 177q63 115 371 847q41 97 86 221z
M822 1299q-109 -271 -272 -646q153 22 264 70q178 78 290 197q80 85 80 167q0 77 -68 135q-92 79 -294 77z" />
    <glyph glyph-name="S" unicode="S" horiz-adv-x="817" vert-adv-y="2457" 
d="M429 713q43 0 43 -32q0 -21 -34 -30q-54 -13 -106 -65q-70 -69 -70 -148q0 -114 81 -216q51 -65 133 -101q66 -30 130 -30q52 0 85 25q52 39 52 158q0 104 -32 428q-31 317 -31 455q0 375 169 375q99 0 153 -95q33 -59 33 -135q0 -59 -24 -89q-24 -29 -53 -29
q-27 0 -27 28q0 6 1 13q3 29 3 47q0 127 -66 127q-68 0 -68 -309q0 -124 44 -685q6 -76 6 -133q0 -163 -98 -237q-61 -47 -152 -47q-114 0 -216 59q-102 58 -158 156q-64 113 -64 244q0 110 111 196q90 70 155 70z" />
    <glyph glyph-name="T" unicode="T" horiz-adv-x="1108" vert-adv-y="2457" 
d="M1025 1323l-40 -12l-39 -12q-124 -36 -273 -90q-78 -28 -110 -63q-31 -33 -55 -44q-95 -40 -150 -40q-29 0 -55 33q-28 36 -28 63q0 20 22 32q24 13 161 57t263 80q216 62 466 122q248 59 458 59q84 0 113 -23q11 -9 11 -18q0 -23 -54 -25q-37 -1 -199 -19
q-197 -22 -417 -80q23 -32 23 -49q0 -13 -14 -41q-9 -20 -47 -112q-14 -32 -44 -101q-216 -483 -325 -823q-26 -82 -34 -130q-16 -95 -57 -95q-17 0 -33 19q-17 21 -17 49q0 66 21 140q12 39 61 190q9 30 217 524l150 364q4 9 25 45z" />
    <glyph glyph-name="U" unicode="U" horiz-adv-x="946" vert-adv-y="2457" 
d="M772 424q-315 -431 -480 -431q-54 0 -89 43q-41 51 -41 143q0 118 74 311q58 152 179 415q176 383 197 490q6 28 37 28q40 0 72 -34q19 -19 18 -38q-5 -98 -140 -320q-21 -35 -154 -333q-107 -242 -150 -456q-6 -27 -6 -60q0 -65 37 -65q47 0 138 81q186 168 371 477
q75 128 213 417q88 185 109 239q28 73 39 83q12 11 30 11q24 0 44 -17q29 -23 29 -53q0 -56 -112 -245q-73 -122 -193 -413q-51 -122 -76 -202q-47 -149 -47 -269q0 -89 28 -179q10 -30 24 -54q10 -16 10 -25q0 -24 -27 -24q-40 0 -74 34q-79 76 -79 269q0 73 19 177z" />
    <glyph glyph-name="V" unicode="V" horiz-adv-x="714" vert-adv-y="2457" 
d="M418 295q213 389 386 638q190 272 402 484q111 112 173 112q50 0 50 -24q0 -18 -34 -41q-123 -81 -310 -318q-106 -134 -232 -325q-186 -281 -301 -498q-164 -311 -181 -323q-9 -7 -27 -7q-36 0 -75 45q-29 33 -29 56q0 27 38 149q26 84 125 523q34 152 59 349
q12 93 12 158l-4 102q0 43 34 43q29 0 55 -32q31 -38 31 -148q0 -262 -172 -943z" />
    <glyph glyph-name="W" unicode="W" horiz-adv-x="1230" vert-adv-y="2457" 
d="M703 495q-99 -188 -193 -314q-142 -188 -235 -188q-73 0 -98 77q-9 29 -9 75q0 112 60 306q82 265 238 587q180 369 224 421q18 21 38 21q28 0 51 -25q21 -24 21 -47q0 -14 -11 -28q-82 -109 -140.5 -215.5t-133.5 -286.5q-151 -360 -201 -593q-16 -74 -16 -116
q0 -46 22 -46q12 0 37 23t48 56q177 251 315 541q49 105 80 216q17 60 49 60q21 0 41 -19q26 -26 26 -58q0 -9 -36 -145q-65 -247 -65 -495q0 -236 73 -236q93 0 189 254q51 134 83 306q31 167 31 313q0 182 -54 299q-5 11 -5 19q0 21 15 44q33 49 76 49q19 0 27 -20
q51 -118 51 -366q0 -243 -61 -471q-54 -205 -139 -350q-103 -175 -220 -175q-78 0 -129 72q-62 85 -62 280q0 54 13 175z" />
    <glyph glyph-name="X" unicode="X" horiz-adv-x="740" vert-adv-y="2457" 
d="M631 702q41 -489 84 -680q18 -81 18 -91q0 -21 -21 -21q-31 0 -57 33q-17 21 -43 115q-54 195 -84 514q-187 -246 -271 -398q-37 -67 -49 -99q-3 -6 -18 -57q-8 -28 -38 -28q-37 0 -67 32q-18 20 -18 37q0 29 64 139q131 224 382 530q-14 279 -28 416q-18 184 -18 252
q0 26 27 26q40 0 77 -44q20 -25 26 -56q2 -16 3 -60t6 -154q3 -61 14 -254q266 302 479 470q179 140 234 140q25 0 25 -15q0 -6 -8 -14q-5 -5 -85 -69q-247 -196 -634 -664z" />
    <glyph glyph-name="Y" unicode="Y" horiz-adv-x="542" vert-adv-y="2457" 
d="M431 689q189 324 405 573q150 173 191 195q12 6 23 6q27 0 52 -30q16 -20 16 -40q0 -15 -14 -28q-142 -127 -226 -228q-253 -303 -453 -689q-159 -309 -205 -517q-6 -27 -22 -27q-14 0 -27 17q-17 23 -17 50q0 99 77 303q50 133 157 339q-38 66 -50 95q-40 103 -40 262
l40 462v12q0 26 26 26q44 0 79 -33q23 -21 23 -43q0 -13 -14 -99q-43 -269 -43 -454q0 -79 22 -152z" />
    <glyph glyph-name="Z" unicode="Z" horiz-adv-x="895" vert-adv-y="2457" 
d="M235 113q163 46 314 46q181 0 300 -63q36 -20 36 -49q0 -25 -35 -25q-11 0 -36 8q-97 30 -198 30q-176 0 -338 -52q-45 -15 -56 -15q-30 0 -62 30q-49 46 -49 101q0 36 40 97t99 125q61 68 245 258q630 653 630 735q0 24 -32 24q-10 0 -64 -18q-191 -65 -324 -65
q-76 0 -118 36q-37 31 -37 69q0 36 37 36q8 0 32 -7q50 -14 88 -14q63 0 211 30q130 27 209 27q56 0 85 -28q24 -23 24 -61q0 -104 -186 -329q-56 -67 -174 -194q-167 -181 -252 -267q-325 -329 -379 -434q-6 -11 -10 -31z" />
    <glyph glyph-name="bracketleft" unicode="[" horiz-adv-x="749" vert-adv-y="2457" 
d="M217 106q138 29 215 29q140 0 222 -46q22 -12 36 -35q11 -18 11 -30q0 -18 -22 -18q-7 0 -22 5q-79 27 -178 27q-104 0 -263 -42q-12 -3 -27 -3q-41 0 -74 36q-32 35 -32 73q0 21 29 80q10 20 31 72q19 46 140 317q132 296 236 629q49 157 53 244q3 48 58 48
q45 0 108 -17q32 -9 136 -23q48 -7 91 -7q100 0 174 26q15 5 22 5q22 0 22 -18q0 -25 -27 -50q-18 -17 -52 -30q-82 -31 -186 -31q-76 0 -243 32q-5 -71 -39 -190q-98 -346 -371 -969q-32 -72 -48 -114z" />
    <glyph glyph-name="backslash" unicode="\" horiz-adv-x="1212" vert-adv-y="2457" 
d="M25 1555q14 0 25 -18q60 -99 300 -376q322 -369 511 -609q175 -222 274 -391q70 -121 73 -179q1 -14 -10 -25q-7 -7 -14 -7q-21 0 -39 33q-116 210 -214 339q-200 267 -697 814q-221 242 -247 283q-13 20 -13 46q0 34 18 65q15 25 33 25z" />
    <glyph glyph-name="bracketright" unicode="]" horiz-adv-x="698" vert-adv-y="2457" 
d="M1042 1379q-136 -29 -214 -29q-140 0 -222 46q-23 12 -36 35q-11 18 -11 30q0 18 22 18q7 0 22 -5q76 -27 179 -27q104 0 262 42q12 3 27 3q42 0 75 -36q31 -34 31 -73q0 -21 -29 -80q-10 -20 -31 -72q-20 -48 -140 -317q-132 -296 -236 -629q-49 -157 -53 -244
q-3 -48 -57 -48q-47 0 -109 17q-31 9 -136 23q-49 7 -91 7q-98 0 -174 -26q-15 -5 -22 -5q-22 0 -22 18q0 25 27 50q17 17 52 30q83 31 186 31q75 0 243 -32q5 71 39 190q98 346 371 969q31 72 47 114z" />
    <glyph glyph-name="asciicircum" unicode="^" horiz-adv-x="472" vert-adv-y="2457" 
d="M672 1338q-15 -30 -30 -70q-31 -84 -119 -281q-25 -57 -34 -68q-15 -17 -32 -17t-29 13q-13 13 -13 30q0 29 21 72q15 32 143 353q41 104 73 131q16 14 51 13h14q45 -1 61 -21q11 -15 17 -39q10 -43 20 -234q4 -69 16 -163q5 -39 5 -62q0 -38 -22 -57q-20 -17 -47 -17
q-29 0 -49 19q-16 16 -18 72q0 32 -13 148q-5 47 -15 178z" />
    <glyph glyph-name="underscore" unicode="_" horiz-adv-x="1381" vert-adv-y="0" 
d="M193 -211q24 0 60 -5q98 -14 256 -14q288 0 632 34q46 5 82 5q57 0 57 -17q0 -21 -68 -39q-183 -46 -469 -68q-172 -13 -341 -13q-302 0 -302 64q0 53 93 53z" />
    <glyph glyph-name="grave" unicode="`" horiz-adv-x="412" vert-adv-y="2457" 
d="M591 1275q23 0 33 -6q5 -3 12 -17q10 -16 15 -33q5 -19 42 -84q23 -39 62 -86q32 -40 32 -47q0 -12 -11 -19q-16 -10 -30 -10q-35 0 -61 22q-50 42 -96 102q-60 81 -60 125q0 23 26 40q20 13 36 13z" />
    <glyph glyph-name="a" unicode="a" horiz-adv-x="760" vert-adv-y="2457" 
d="M615 300q-90 -115 -171 -195q-114 -112 -200 -112q-88 0 -122 79q-17 39 -17 87q0 124 144 324q156 217 302 316q91 62 157 62q75 0 117 -58q25 -35 25 -84q0 -77 -39 -96q8 -18 8 -30q0 -14 -22 -70q-82 -217 -82 -369q0 -58 25 -109q14 -28 14 -42q0 -34 -34 -34
q-30 0 -60 30q-57 59 -57 194q0 49 12 107zM757 669v3v5q0 2 1 10q1 4 1 10q0 19 -9 33q-15 26 -48 26q-68 0 -178 -109q-78 -77 -156 -188q-142 -200 -142 -307q0 -43 41 -43q35 0 116 71q123 109 230 269q54 82 67 119l28 79q9 26 32 26q7 0 17 -4z" />
    <glyph glyph-name="b" unicode="b" horiz-adv-x="548" vert-adv-y="2457" 
d="M567 1308q26 0 49 -33q13 -20 13 -46q0 -25 -17 -50q-99 -140 -214 -379q-134 -277 -182 -483q-19 -79 -19 -126q0 -93 59 -93q42 0 107.5 53t129.5 138q76 101 117 210q31 83 31 146q0 47 -25 47q-28 0 -71 -61q-65 -91 -80 -182q-4 -28 -23 -28q-13 0 -23 8
q-36 29 -36 70q0 42 39 120q41 80 100 136q47 43 99 43q69 0 100 -59q19 -37 19 -88q0 -101 -68 -239q-69 -139 -183 -263q-145 -156 -246 -156q-59 0 -99 49q-42 51 -42 156q0 125 49 276q98 304 347 741q24 42 33 61q16 32 36 32z" />
    <glyph glyph-name="c" unicode="c" horiz-adv-x="588" vert-adv-y="2457" 
d="M665 735q-73 0 -216 -177q-203 -251 -203 -390q0 -35 23 -60q17 -20 56 -20q114 0 248 111q21 17 32 17q17 0 17 -28q0 -23 -11 -39q-43 -60 -123 -110q-85 -52 -166 -52q-80 0 -133 53q-58 59 -58 136q0 128 139 324q96 137 219 240q110 93 181 93q88 0 88 -69
q0 -53 -32 -53q-10 0 -27 15q-11 9 -34 9z" />
    <glyph glyph-name="d" unicode="d" horiz-adv-x="792" vert-adv-y="2457" 
d="M736 715q110 244 171 363q98 193 122 268q14 46 26 58q9 9 23 9q22 0 40 -14q27 -21 27 -49q0 -33 -50 -112q-107 -167 -229 -487q-124 -327 -124 -551q0 -99 24 -156q4 -10 4 -19q0 -29 -30 -29q-54 0 -85 68q-23 49 -23 122t21 198q2 15 7 35q2 13 4 21
q-111 -166 -209 -274q-156 -172 -240 -172q-58 0 -87 53q-24 42 -24 99q0 86 62 217q74 158 199 298q157 178 262 178q51 0 86 -64q14 -23 23 -60zM669 612q-6 46 -15 74q-10 29 -41 29q-40 0 -122 -81q-137 -136 -219 -313q-47 -101 -47 -166q0 -41 25 -41q32 0 89 57
q68 69 162 195q63 85 114 163q54 82 54 83z" />
    <glyph glyph-name="e" unicode="e" horiz-adv-x="606" vert-adv-y="2457" 
d="M260 304q-33 -69 -33 -126q0 -88 85 -88q128 0 279 142q22 20 35 20q20 0 20 -30q0 -40 -74 -106q-136 -122 -273 -122q-50 0 -92 24q-43 24 -69 69q-27 48 -27 95q0 139 159 353q101 137 214 228q95 76 158 76q55 0 87 -34q29 -32 29 -88q0 -110 -122 -258
q-113 -136 -224 -161q-30 -6 -69 -6q-34 0 -83 12zM308 395q25 -6 50 -6q90 0 167 82q136 144 136 227q0 47 -37 47q-46 0 -143 -113q-91 -106 -173 -237z" />
    <glyph glyph-name="f" unicode="f" horiz-adv-x="329" vert-adv-y="2457" 
d="M357 771q-29 -2 -43 -2q-92 0 -92 64q0 51 42 51q6 0 47 -3q20 -2 43 -2t52 2q118 256 209 407q143 237 242 237q39 0 63 -35q27 -38 27 -101q0 -99 -67 -204q-45 -69 -88 -90q-8 -4 -16 -4q-11 0 -11 13q0 11 54 99q29 49 41 118q3 21 3 39q0 31 -10 52q-9 16 -21 16
q-57 0 -306 -538q116 11 235 36q12 3 21 3q24 0 24 -16q0 -15 -22 -26q-112 -54 -303 -97q-190 -433 -347 -832q-68 -173 -79 -243q-9 -63 -39 -63q-36 0 -36 70q0 84 54 245q28 83 323 804z" />
    <glyph glyph-name="g" unicode="g" horiz-adv-x="650" vert-adv-y="2457" 
d="M600 327q-110 -132 -181 -200q-139 -133 -230 -133q-107 0 -107 107q0 121 148 326q168 234 346 354q93 63 160 63q76 0 76 -75q0 -65 -60 -154q62 -13 62 -33q0 -8 -13 -27q-12 -17 -23 -41q-1 -4 -299 -812q-45 -121 -147 -302q-134 -239 -283 -349q-47 -34 -117 -34
q-65 0 -95 55q-25 45 -25 106q0 139 99 307q83 140 199 252q82 78 118 78q25 0 25 -16q0 -9 -7 -19q-5 -6 -57 -64q-78 -85 -161 -217q-118 -189 -118 -320q0 -76 42 -76q46 0 99 58q137 150 288 476q115 250 261 690zM665 549q-47 17 -47 51q0 14 27 40q35 35 35 66
q0 16 -16 16q-28 0 -116 -83q-205 -191 -313 -391q-44 -80 -44 -122q0 -29 17 -29q52 0 186 135q117 116 271 317z" />
    <glyph glyph-name="h" unicode="h" horiz-adv-x="777" vert-adv-y="2457" 
d="M718 576q-100 -96 -248 -294q-175 -234 -238 -274q-21 -14 -38 -14q-42 0 -71 41q-22 31 -22 65q0 210 461 978q84 141 106 206q11 34 42 34q25 0 51 -19q28 -22 28 -49q0 -6 -1 -10q-38 -111 -210 -353q-57 -82 -180 -307q-68 -124 -113 -232q-52 -127 -52 -147
q0 -14 11 -24q4 -4 9 -4q10 0 16 5.5t28 34.5q15 20 161 198q209 255 269 319q57 61 85 61q21 0 39 -18q31 -32 31 -71q0 -28 -18 -74q-122 -322 -122 -469q0 -90 56 -153q19 -22 19 -37q0 -14 -15 -25q-13 -8 -33 -8q-35 0 -68 26q-66 53 -66 191q0 102 32 242
q11 47 51 181z" />
    <glyph glyph-name="i" unicode="i" horiz-adv-x="318" vert-adv-y="2457" 
d="M415 839q28 2 54 -22q23 -20 23 -44q0 -22 -36 -82q-25 -41 -118 -236q-121 -254 -121 -373q0 -19 3 -45q2 -14 2 -18q0 -25 -25 -25q-20 0 -38 13q-43 30 -43 108q0 96 65 261q72 182 150 319q37 66 45 95q15 48 39 49zM622 1158q40 0 71 -30q24 -23 24 -51
q0 -53 -56 -53q-51 0 -78 38q-13 19 -13 39q0 14 10 32q14 25 42 25z" />
    <glyph glyph-name="j" unicode="j" horiz-adv-x="501" vert-adv-y="2457" 
d="M535 820q36 0 65 -27q19 -18 19 -40q0 -7 -2 -15q-66 -290 -234 -658q-145 -317 -212 -483q-158 -393 -372 -555q-24 -18 -62 -18q-49 0 -87 49q-50 64 -50 185q0 119 72 264q76 154 199 272q71 68 101 68q18 0 18 -11q0 -7 -59 -83q-222 -281 -222 -535q0 -115 42 -115
q60 0 228 322q129 247 319 726q149 375 176 497l32 136q4 21 29 21zM745 1205q15 0 27 -8q14 -9 14 -21q0 -10 -23 -45q-38 -57 -52 -66q-13 -9 -27 -9q-27 0 -41 25q-8 13 -8 28q0 32 36 65q33 31 74 31z" />
    <glyph glyph-name="k" unicode="k" horiz-adv-x="774" vert-adv-y="2457" 
d="M293 336q163 193 355 342q201 156 248 156q27 0 27 -33q0 -18 -14 -36q-11 -13 -61 -45q-120 -76 -272 -223q5 -166 60 -288q48 -108 115 -155q34 -24 34 -41q0 -28 -48 -28q-77 0 -157 103q-90 115 -114 296q-91 -100 -148 -175q-55 -72 -123 -184q-19 -32 -45 -32
q-13 0 -26 7q-38 19 -38 51q0 7 217 575q186 488 208 537q49 106 55 123q13 36 36 36q27 0 52 -32q17 -23 17 -47q0 -11 -34 -80q-64 -128 -344 -827z" />
    <glyph glyph-name="l" unicode="l" horiz-adv-x="294" vert-adv-y="2457" 
d="M619 1405q16 0 37 -13q40 -27 40 -60q0 -16 -34 -79q-77 -139 -205 -439q-214 -499 -214 -664q0 -34 5 -60q2 -9 22 -45q9 -15 9 -22q0 -12 -11.5 -21t-27.5 -9q-24 0 -48 20q-50 41 -50 152q0 125 70 322q76 212 240 570q101 219 122 291q11 37 17 45q10 12 28 12z" />
    <glyph glyph-name="m" unicode="m" horiz-adv-x="1004" vert-adv-y="2457" 
d="M623 300q264 275 381 424q83 108 111 108q24 0 45 -32q18 -28 18 -60q0 -20 -32 -80q-74 -139 -131 -294q-43 -119 -43 -214q0 -83 46 -146q16 -22 16 -34q0 -24 -36 -24q-39 0 -80 40q-56 53 -56 183q0 112 53 247q13 32 54 131q-236 -257 -430 -526q-18 -25 -45 -25
q-22 0 -43 19q-30 26 -30 60q0 55 135 341q67 143 96 214q-230 -239 -332 -368q-80 -102 -120 -172q-9 -15 -31 -76q-9 -24 -29 -24q-37 0 -65 36q-20 24 -20 45q0 14 48 122q208 466 245 596q13 45 38 45q17 0 37 -20q35 -34 35 -71q0 -29 -42 -105q-64 -115 -136 -286
q165 186 360 388q81 83 103 83q23 0 41 -24q22 -31 22 -66q0 -25 -9.5 -51t-50.5 -114q-18 -38 -99 -207q-16 -33 -24 -63z" />
    <glyph glyph-name="n" unicode="n" horiz-adv-x="745" vert-adv-y="2457" 
d="M266 306q52 39 148 131q141 133 259 267q81 90 95 101t29 11q22 0 39 -26q19 -29 19 -73q0 -28 -31 -102q-120 -283 -120 -466q0 -79 46 -141q16 -22 16 -34q0 -24 -36 -24q-39 0 -80 40q-54 52 -54 174q0 150 98 430q-22 -23 -61 -63q-24 -26 -78 -81
q-342 -344 -380 -412q-24 -43 -28 -47q-7 -5 -17 -5q-34 0 -56 32q-20 28 -20 68q0 44 217 476q74 147 82 175q5 17 7 41q6 57 44 57q32 0 60 -34q21 -24 21 -50q0 -39 -112 -235q-74 -129 -107 -210z" />
    <glyph glyph-name="o" unicode="o" horiz-adv-x="656" vert-adv-y="2457" 
d="M445 706q0 32 29 69q53 67 127 67q83 0 125 -85q28 -59 28 -133q0 -81 -37 -186q-72 -208 -219 -345q-108 -100 -213 -100q-97 0 -139 86q-20 41 -20 95q0 132 82 280q60 110 136 186q49 50 101 66zM514 689q0 -22 -25 -42q-72 -56 -139 -166q-102 -169 -102 -303
q0 -86 60 -86q89 0 205 163q131 184 131 345q0 66 -19 111q-16 38 -48 38t-44 -24q-14 -28 -19 -36z" />
    <glyph glyph-name="p" unicode="p" horiz-adv-x="627" vert-adv-y="2457" 
d="M336 492q83 121 166 197q114 104 192 104q59 0 92 -56q21 -37 21 -92q0 -132 -66 -271q-79 -169 -215 -277q-129 -103 -236 -103q-50 0 -93 34q-15 13 -28 33q-104 -204 -204 -467q-49 -130 -69 -213q-6 -25 -23 -25q-12 0 -28 17q-28 28 -28 69q0 88 230 622
q175 407 219 543q44 134 47 156q7 50 34 50q23 0 41 -26q15 -21 15 -50q0 -83 -67 -245zM243 181q15 -93 74 -93t141 70q128 110 201 282q44 102 44 177q0 43 -16 72q-6 11 -15 11q-35 0 -149 -119q-102 -106 -184 -228q-29 -44 -57 -95q-40 -72 -39 -77z" />
    <glyph glyph-name="q" unicode="q" horiz-adv-x="674" vert-adv-y="2457" 
d="M620 299q-143 -134 -231 -203q-129 -102 -198 -102q-60 0 -91 55q-21 37 -21 74q0 129 189 352q151 177 313 291q109 76 176 76q39 0 72 -29q30 -26 30 -66q0 -36 -20 -56q-9 -9 -20 -9t-14 25q-1 9 -10 19q-17 17 -41 17q-50 0 -189 -122q-176 -154 -294 -323
q-76 -110 -76 -162q0 -33 31 -33q57 0 237 157q149 129 263 261q41 48 70 101q11 21 28 21q20 0 37 -22q18 -24 18 -50q0 -12 -5 -24q-12 -32 -142 -262q-106 -190 -243 -514q-143 -339 -152 -506q-3 -41 -29 -41q-18 0 -33 20q-18 23 -18 73q0 109 64 306q54 167 145 366
q36 80 154 310z" />
    <glyph glyph-name="r" unicode="r" horiz-adv-x="508" vert-adv-y="2457" 
d="M392 587q123 135 200 189q102 73 191 73q24 0 39 -17q11 -11 11 -25q0 -19 -23 -25q-78 -20 -151.5 -72t-158.5 -147q-103 -117 -200 -279q-26 -43 -115 -233q-26 -57 -61 -57q-28 0 -45 25q-11 16 -11 32q0 10 48 110q59 126 127 314q58 159 74 255q3 20 3 64
q0 30 17 30q20 0 43 -34q26 -38 26 -105q0 -43 -14 -98z" />
    <glyph glyph-name="s" unicode="s" horiz-adv-x="457" vert-adv-y="2457" 
d="M543 912q58 0 84 -58q14 -29 14 -63q0 -35 -17 -58q-18 -25 -39 -25q-14 0 -12 46q2 38 -26 38q-23 0 -47 -56q-45 -103 -45 -270q0 -150 41 -306q17 -63 17 -86q0 -39 -32 -62q-25 -18 -69 -18q-99 0 -188 41q-71 33 -111 87q-30 42 -30 90q0 66 41 105q18 18 41 18
t23 -24q0 -6 -4 -20q-8 -31 -8 -45q0 -64 61 -110q50 -37 124 -37q42 0 42 29q0 10 -11 48q-54 178 -54 321q0 146 52 269q62 146 153 146z" />
    <glyph glyph-name="t" unicode="t" horiz-adv-x="306" vert-adv-y="2457" 
d="M506 868q22 4 33 7q107 21 137 31q48 16 55 16q17 0 17 -12q0 -16 -19 -30q-86 -62 -272 -112q-160 -336 -221 -514q-36 -103 -36 -169q0 -20 9 -42q6 -14 6 -21q0 -28 -30 -28q-22 0 -41 18q-32 30 -32 108q0 142 107 383q44 98 113 241q-39 -5 -84 -5q-59 0 -78 15
q-13 10 -13 30q0 29 19 50q13 14 32 13q4 0 16 -2q21 -3 55 -3q32 0 103 7q62 131 96 195q88 166 106 227q16 52 46 52q19 0 40 -16q34 -28 34 -61q0 -10 -7 -21q-83 -142 -191 -357z" />
    <glyph glyph-name="u" unicode="u" horiz-adv-x="816" vert-adv-y="2457" 
d="M647 407q-155 -196 -213 -262q-133 -151 -213 -151q-93 0 -93 122q0 119 85 334q16 39 126 265q53 111 78 126q11 7 26 7q24 0 45 -17q18 -15 18 -36q0 -10 -7 -22q-67 -110 -139 -261q-119 -249 -119 -346q0 -42 22 -42t82 60q97 96 218 254q129 170 180 254
q74 125 82 133q8 9 23 9q26 0 51 -25q24 -24 24 -51q0 -21 -49 -100q-68 -109 -113 -266q-31 -105 -31 -178q0 -111 65 -175q13 -13 13 -26q0 -15 -10 -23q-13 -10 -28 -10q-22 0 -42 16q-104 83 -104 249q0 63 23 162z" />
    <glyph glyph-name="v" unicode="v" horiz-adv-x="548" vert-adv-y="2457" 
d="M310 243q183 294 361 471q170 169 239 169q38 0 38 -22q0 -8 -7 -17q-2 -3 -114 -89q-77 -60 -239 -277q-79 -106 -257 -394q-21 -34 -33 -53q-22 -37 -45 -37q-31 0 -63 35q-28 30 -28 66q0 21 28 143q18 81 42 271q12 101 12 194q0 47 -9 102q-2 9 -2 15q0 37 46 37
q30 0 54 -20q28 -24 28 -104q0 -169 -51 -490z" />
    <glyph glyph-name="w" unicode="w" horiz-adv-x="894" vert-adv-y="2457" 
d="M546 295q-197 -301 -336 -301q-103 0 -103 128q0 172 217 528q95 155 121 182q10 9 21 9q21 0 39 -22q17 -23 17 -47q0 -14 -33 -57q-31 -40 -99.5 -165t-102.5 -202q-66 -150 -66 -216q0 -29 22 -29q33 0 122 92q106 110 181 233q50 82 63 147q8 41 39 41q27 0 56 -24
q37 -30 37 -60q0 -17 -11 -48q-94 -260 -94 -349q0 -51 38 -51q50 0 108 57q125 124 184 317q33 108 33 208q0 44 -7 72q-3 12 -33 100q-4 13 -4 21q0 24 33 36q17 6 36 6q37 0 55 -17q7 -8 11 -20q20 -57 20 -136q0 -214 -104 -422q-77 -154 -180 -239q-84 -69 -169 -69
q-123 0 -123 167q0 35 12 130z" />
    <glyph glyph-name="x" unicode="x" horiz-adv-x="647" vert-adv-y="2457" 
d="M463 419q25 -279 132 -399q13 -14 13 -24q0 -16 -21 -31q-19 -15 -47 -15q-46 0 -84 70q-69 124 -92 296q-168 -186 -210 -292q-12 -30 -41 -30q-28 0 -48 20q-16 16 -16 40q0 33 45 101q89 135 262 299v28q1 112 30 234q20 84 43 103q22 18 40 18q21 0 21 -23
q0 -5 -2 -14q-25 -138 -27 -248q188 165 373 277q69 42 98 42q32 0 32 -19q0 -9 -66 -54q-88 -60 -278 -230q-81 -72 -157 -149z" />
    <glyph glyph-name="y" unicode="y" horiz-adv-x="728" vert-adv-y="2457" 
d="M700 372q-397 -379 -512 -379q-45 0 -73 34q-25 30 -25 89q0 85 61 196q49 90 187 283q119 169 145 230q9 23 27 23q26 0 46 -24q17 -22 17 -43q0 -25 -28 -64q-33 -48 -193 -298q-138 -215 -138 -271q0 -35 24 -35q31 0 204 149q170 148 312 305q42 47 138 176
q11 14 23 14q13 0 25 -14q29 -34 29 -75q0 -25 -10 -46q-14 -29 -71 -124q-29 -49 -157 -355q-56 -133 -135 -303q-34 -72 -156 -301q-187 -352 -371 -491q-34 -26 -83 -26q-51 0 -80 44q-25 37 -25 92q0 137 136 342q117 177 212 258q28 23 50 23q18 0 18 -13q0 -6 -47 -63
q-41 -51 -112 -167q-161 -264 -161 -378q0 -35 30 -35q37 0 109 90q159 196 413 737q69 146 149 366q4 11 22 54z" />
    <glyph glyph-name="z" unicode="z" horiz-adv-x="613" vert-adv-y="2457" 
d="M183 106q124 24 198 24q123 0 206 -42q71 -36 71 -75q0 -29 -26 -29q-10 0 -28 10q-71 39 -191 39q-140 0 -244 -30q-32 -10 -49 -10q-35 0 -62 43q-14 22 -14 44q0 25 28 56q25 29 130 118q275 232 402 377q78 90 78 115q0 13 -19 13q-12 0 -52 -19q-59 -27 -132 -43
q-32 -7 -52 -7q-37 0 -58 25q-20 23 -20 51q0 49 41 49q1 0 44 -8q14 -3 28 -3q35 0 128 26q81 22 111 22q25 0 45 -13q40 -25 40 -83q0 -101 -158 -252q-103 -100 -332 -291q-68 -58 -113 -107z" />
    <glyph glyph-name="braceleft" unicode="{" horiz-adv-x="878" vert-adv-y="2457" 
d="M457 750q70 -42 95 -85q44 -74 44 -174v-292q0 -66 26 -90q13 -12 50 -22q42 -12 77 -12q32 0 79 14q14 4 22 4q22 0 22 -14q0 -25 -39 -48q-14 -8 -78 -26q-40 -11 -70 -11q-93 0 -152 46q-67 52 -67 158v269q0 134 -32 180q-21 30 -62 46q-7 2 -45 13q-43 12 -43 42
q0 46 53 54q66 10 105 60q17 21 21 81q0 8 3 79v269q0 204 242 204q98 0 146 -35q27 -19 27 -40q0 -14 -22 -14q-6 0 -22 4q-22 6 -44 6q-11 0 -90 -9q-50 -5 -73 -21q-34 -25 -34 -96v-292q0 -86 -8 -114q-18 -60 -61 -95q-22 -17 -70 -39z" />
    <glyph glyph-name="bar" unicode="|" horiz-adv-x="589" vert-adv-y="0" 
d="M406 1588q11 -9 8 -30q-19 -114 -17 -480q4 -490 -9 -795q-12 -283 -47 -476q-26 -137 -61 -183q-8 -11 -24 -12q-10 -1 -15 3q-16 14 -8 51q48 235 58 397q22 332 1 1071q-10 328 -3 376q3 23 20 43q22 26 56 38q28 9 41 -3z" />
    <glyph glyph-name="braceright" unicode="}" horiz-adv-x="591" vert-adv-y="2457" 
d="M632 750q-79 36 -108 84q-26 42 -29 87q-2 22 -2 77v292q0 71 -34 96q-23 16 -73 21q-79 9 -90 9q-22 0 -44 -6q-16 -4 -22 -4q-22 0 -22 14q0 21 27 40q48 35 146 35q242 0 242 -204v-269q4 -88 5 -107q6 -57 61 -93q23 -14 63 -20q53 -8 53 -54q0 -14 -14 -26
q-13 -12 -61 -25q-74 -21 -92 -86q-15 -55 -15 -144v-269q0 -115 -79 -167q-57 -37 -140 -37q-36 0 -108 22q-79 24 -79 63q0 14 22 14q7 0 22 -4q47 -14 79 -14q47 0 98 19q31 11 43 35q12 23 12 70v292q0 100 43 174q26 43 96 85z" />
    <glyph glyph-name="asciitilde" unicode="~" horiz-adv-x="1194" vert-adv-y="0" 
d="M523 550q-69 0 -120 -19q-78 -30 -89 -37q-18 -10 -40 -10q-63 0 -63 31q0 49 98 94q81 37 153 48q48 7 127 7q56 0 107 -18q76 -27 117 -53q63 -40 116 -40q12 0 40 6q54 12 107 36q32 15 64 15q18 0 32 -9q22 -14 22 -36q0 -36 -73 -71q-117 -56 -214 -56
q-42 0 -127 19q-40 8 -112 49q-79 44 -145 44z" />
    <glyph glyph-name="uni00A0" unicode="&#xa0;" vert-adv-y="2457" 
 />
    <glyph glyph-name="exclamdown" unicode="&#xa1;" horiz-adv-x="338" vert-adv-y="2457" 
d="M417 600q16 0 26 -13t10 -28q0 -225 -307 -746q-91 -155 -108 -205q-11 -34 -48 -34q-35 0 -58 25q-15 18 -15 38q0 12 8 27q7 15 77 125q180 284 251 426q19 40 129 349q12 36 35 36zM553 1016q28 0 41 -19q7 -11 7 -23q0 -26 -31 -45q-35 -23 -79 -23q-55 0 -55 40
q0 20 23 40q36 30 94 30z" />
    <glyph glyph-name="cent" unicode="&#xa2;" horiz-adv-x="900" vert-adv-y="2457" 
d="M1096 937q18 -26 18 -54q0 -32 -19 -55q-18 -22 -47 -22q-26 0 -26 19q0 7 2 18q2 9 2 20q0 26 -18 41q-22 19 -49 19q-109 0 -305 -148q-180 -138 -292 -304q-77 -116 -77 -200q0 -107 101 -107q129 0 330 90q131 60 235 135q24 18 37 18q19 0 19 -18q0 -51 -159 -145
q-240 -141 -452 -141q-53 0 -103 15q-10 -17 -50 -69q-18 -24 -32 -51q-22 -43 -49 -43q-9 0 -19 9q-11 11 -11 22q0 14 29 70q27 55 64 100q-61 55 -61 130q0 65 44 141q112 193 311 355q201 163 382 199q48 9 72 9q14 0 28 -3q8 7 19 19q88 89 115 121q41 50 53 50t28 -18
q21 -23 21 -51q0 -26 -15 -48t-58 -59q-3 -3 -68 -64z" />
    <glyph glyph-name="sterling" unicode="&#xa3;" horiz-adv-x="901" vert-adv-y="2457" 
d="M473 462q-33 -81 -49 -121q-37 -92 -72 -176q-17 -40 -24 -59q141 30 254 30q148 0 232 -32q46 -18 65 -46q14 -20 14 -34q0 -18 -22 -18q-7 0 -22 5q-78 27 -196 27q-168 0 -327 -42q-12 -3 -27 -3q-42 0 -75 36q-31 35 -31 73q0 21 29 80q13 28 70 169l38 97l-56 -5
q-24 -2 -41 -2q-81 0 -104 19q-24 20 -24 54q0 41 22 41q4 0 12 -2q68 -21 95 -18q5 1 7 1l125 4l16 39q151 380 267 572q53 87 98 134t104 76q53 26 95 26q90 0 138 -69q35 -51 35 -119q0 -62 -27 -87q-12 -11 -28 -11q-28 0 -27 56q0 68 -38 99q-26 21 -57 21
q-47 0 -101 -57q-111 -117 -326 -654l-9 -22l99 3q63 2 111 8q40 5 47 5q26 0 26 -17q0 -15 -20 -30q-11 -8 -36 -15q-69 -19 -128 -24z" />
    <glyph glyph-name="currency" unicode="&#xa4;" horiz-adv-x="866" vert-adv-y="2457" 
d="M783 1144q-82 0 -141 -57q-58 -58 -58 -139t58 -139q59 -57 141 -57t141 57q58 58 58 141q0 81 -58 137q-60 57 -141 57zM947 703q-2 -1 -3 -2q-64 -48 -161 -48q-90 0 -154 42q-73 -74 -90 -74q-21 0 -48 29q-26 27 -25 40q1 19 30 47q13 13 39 44q-3 4 -8 12
q-45 63 -45 155q0 87 54 168q-72 63 -72 100q0 31 29 49q13 8 28 8q19 0 41 -18q21 -16 63 -56q66 43 159 43q90 0 161 -46q34 34 51 49q26 22 51 22t45 -19q23 -23 23 -47q0 -30 -74 -100q1 -1 3 -5q40 -58 40 -147q0 -88 -40 -148q-1 -2 -7 -12q8 -9 36 -40q30 -33 30 -58
q0 -30 -17 -49q-14 -14 -36 -14q-33 0 -103 75z" />
    <glyph glyph-name="yen" unicode="&#xa5;" horiz-adv-x="800" vert-adv-y="2457" 
d="M790 687l154 9q8 0 23 2q34 5 46 5q27 0 27 -17q0 -15 -20 -30q-25 -18 -71 -22l-199 -17q-38 -69 -73 -141l225 10q8 0 23 3q33 5 46 5q27 0 27 -17q0 -15 -20 -30q-25 -19 -71 -23l-266 -22q-109 -233 -139 -382q-6 -27 -22 -27q-15 0 -27 17q-17 23 -17 49
q0 105 85 327l3 6l-110 -9l-8 -1q-48 -4 -73 17q-24 20 -24 54q0 41 22 41q5 0 12 -2q71 -21 214 -21q21 48 64 135l-165 -14h-8q-97 0 -97 71q0 41 22 41q5 0 12 -2q62 -20 234 -21h40l11 21q-38 66 -50 95q-40 102 -40 261l40 462v13q0 26 26 26q44 0 80 -33
q22 -21 22 -43q0 -13 -14 -99q-43 -269 -43 -446q0 -87 22 -160q189 324 405 573q150 173 191 195q12 6 23 6q27 0 52 -30q16 -20 16 -39q0 -16 -14 -29q-142 -127 -226 -228q-188 -226 -370 -539z" />
    <glyph glyph-name="section" unicode="&#xa7;" horiz-adv-x="587" vert-adv-y="2457" 
d="M426 116q-5 -24 -10 -47q-33 -184 -92 -261q-64 -84 -151 -84q-82 0 -122 54q-33 45 -33 113q0 86 67 129q19 12 36 12q22 0 22 -16q0 -12 -8 -38q-15 -46 -15 -63q0 -38 24 -62q14 -14 33 -14q39 0 58 38q13 26 68 226q19 67 52 434q12 135 27 202q35 162 168 208
q39 14 100 24l15 3q19 125 48 207q68 185 204 185q81 0 122 -54q33 -44 33 -112q0 -87 -67 -130q-19 -12 -35 -12q-23 0 -23 14q0 3 9 41q7 31 7 79q0 59 -50 59q-29 0 -51 -24q-18 -20 -50 -131q-36 -123 -56 -325q-9 -83 -27 -277q-14 -154 -50 -224q-50 -98 -139 -127
q-49 -16 -114 -27zM655 891q-66 -12 -85.5 -20.5t-39.5 -36.5q-53 -71 -68 -357l-12 -125l-12 -127l-3 -26q19 3 28 5q45 8 68 24q46 32 65 108q21 89 32 277q1 4 24 252z" />
    <glyph glyph-name="dieresis" unicode="&#xa8;" horiz-adv-x="495" vert-adv-y="2457" 
d="M811 1127q30 0 51 -28q22 -28 22 -49q0 -30 -31 -62q-36 -38 -73 -38q-30 0 -55 17q-31 20 -31 55q0 45 46 79q35 26 71 26zM565 1140q17 0 40 -17q27 -20 27 -52q0 -44 -27 -69q-38 -37 -75 -37q-29 0 -52 16q-33 21 -33 64q0 35 44 70q31 25 76 25z" />
    <glyph glyph-name="copyright" unicode="&#xa9;" horiz-adv-x="1623" vert-adv-y="2457" 
d="M970 1168q300 0 513 -216q102 -104 157 -239q55 -136 55 -281q0 -307 -212 -522q-213 -217 -522 -217q-195 0 -370 110q-174 108 -267 293q-79 158 -79 335q0 207 106 385q105 175 290 271q153 81 329 81zM1131 869q44 -5 69 -38q23 -30 23 -73q0 -47 -22 -70
q-11 -12 -26 -12q-22 0 -22 24q0 7 2 20q1 9 1 19q0 51 -38 51q-52 0 -152 -112q-128 -144 -203 -326q-47 -112 -47 -194q0 -95 55 -95q76 0 197 87q82 58 143 130q17 20 29 20q18 0 18 -24q0 -53 -99 -146q-74 -69 -157 -109q-66 -32 -116 -32q-95 0 -134 79
q-24 49 -24 108q0 115 97 299q78 147 187 264q129 140 219 130zM970 1086q-265 0 -454 -192q-90 -91 -140 -212q-49 -122 -49 -251q0 -184 95 -343q94 -157 256 -241q138 -72 284 -72q274 0 463 192q188 192 188 465q0 184 -94 341q-93 156 -257 242q-136 71 -292 71z" />
    <glyph glyph-name="ordfeminine" unicode="&#xaa;" horiz-adv-x="630" vert-adv-y="2457" 
d="M753 1030q-132 -165 -212 -165q-57 0 -79 52q-11 24 -11 55q0 76 88 198q94 131 183 192q56 38 98 38q48 0 76 -38q16 -23 16 -54q0 -45 -21 -61q3 -10 3 -15q0 -10 -14 -45q-49 -125 -49 -219q0 -33 14 -63q9 -18 9 -28q0 -27 -27 -27q-22 0 -41 20q-36 39 -36 113
q0 15 3 47zM843 1286q1 6 1 8q0 29 -28 29q-62 0 -171 -143q-108 -141 -108 -213q0 -19 18 -19q37 0 131 108q57 66 95 131q12 21 33 80q7 20 24 20zM907 822q22 0 22 -16q0 -34 -74 -66q-78 -34 -182 -53q-106 -19 -192 -19q-128 0 -128 65q0 26 12 41q10 12 22 12
q9 0 23 -5q41 -15 108 -15q217 0 363 50q19 6 26 6z" />
    <glyph glyph-name="guillemotleft" unicode="&#xab;" horiz-adv-x="699" vert-adv-y="2457" 
d="M590 336q96 -52 135 -85q44 -37 44 -69q0 -24 -19 -42q-17 -16 -32 -16t-32 22t-45 44q-77 58 -137 89q-61 31 -61 62q0 24 45 52q124 80 192 132q18 13 86 76q21 20 35 20q13 0 23 -12q8 -11 8 -28q0 -26 -44 -73q-93 -98 -198 -172zM300 334q95 -52 135 -85
q44 -36 44 -69q0 -24 -19 -42q-17 -16 -32 -16t-32 22q-16 22 -45 44q-76 58 -136 89q-61 31 -61 62q0 24 45 52q126 81 192 132q18 13 86 76q21 20 35 20q31 0 31 -40q0 -26 -44 -73q-93 -98 -199 -172z" />
    <glyph glyph-name="logicalnot" unicode="&#xac;" horiz-adv-x="1074" vert-adv-y="2457" 
d="M1013 330q-46 0 -124 -6q-222 -17 -293 -17q-219 0 -315 16q-67 12 -67 64q0 48 55 48q40 0 88 -4q59 -5 62 -5q540 27 558 29q41 4 64 4q29 0 57 -29q36 -36 36 -82q0 -23 -12 -45q-2 -5 -29 -43q-23 -33 -50 -102q-21 -52 -21 -124q0 -36 -19 -36q-15 0 -32 22
q-24 30 -24 81q0 54 13 111q8 38 32 81z" />
    <glyph glyph-name="uni00AD" unicode="&#xad;" horiz-adv-x="541" vert-adv-y="2457" 
d="M232 383q9 0 22 -5q36 -14 94 -14q106 0 232 33q17 5 30 5q21 0 21 -16q0 -21 -25 -38q-67 -44 -172 -65q-63 -13 -125 -13q-111 0 -111 62q0 51 34 51z" />
    <glyph glyph-name="registered" unicode="&#xae;" horiz-adv-x="969" vert-adv-y="2457" 
d="M992 756q-143 -45 -246 -152q-48 -50 -48 -67q0 -12 19 -16q19 -5 19 -20q0 -22 -29 -22q-36 0 -61 24q-21 20 -21 50q0 52 104 135q115 90 288 147q12 29 40 29q20 0 32 -22q18 1 26 1q93 0 165 -40q88 -49 88 -148q0 -125 -151 -224q-84 -56 -215 -93q32 -133 85 -241
q52 -104 107 -138q28 -17 28 -33q0 -21 -33 -21q-25 0 -64 26q-128 87 -216 415q-21 -47 -38 -85q-51 -114 -63 -141q-32 -77 -52.5 -104t-46.5 -27q-30 0 -30 30q0 27 44 109q43 83 222 509q22 52 47 119zM1089 773q-70 -172 -157 -373q132 20 237 91q125 83 125 162
q0 56 -60 91q-50 29 -126 29h-19zM970 1168q300 0 513 -216q102 -104 157 -239q55 -136 55 -281q0 -307 -212 -522q-213 -217 -522 -217q-195 0 -370 110q-174 108 -267 293q-79 158 -79 335q0 207 106 385q105 175 290 271q153 81 329 81zM970 1086q-265 0 -454 -192
q-90 -91 -140 -213q-49 -121 -49 -249q0 -185 95 -344q95 -157 256 -241q138 -72 300 -72q173 0 328 97t237 261q70 140 70 298q0 184 -94 342q-93 156 -257 242q-136 71 -292 71z" />
    <glyph glyph-name="macron" unicode="&#xaf;" horiz-adv-x="489" vert-adv-y="2457" 
d="M495 1089q9 0 22 -5q36 -14 94 -14q107 0 232 34q18 5 30 5q21 0 21 -16q0 -21 -25 -38q-68 -45 -172 -66q-63 -13 -125 -13q-111 0 -111 62q0 51 34 51z" />
    <glyph glyph-name="degree" unicode="&#xb0;" horiz-adv-x="706" vert-adv-y="2457" 
d="M794 1370q114 0 194 -81q81 -80 81 -194q0 -115 -81 -195q-81 -81 -198 -81q-110 0 -191 81q-81 80 -81 194q0 117 81 195q82 81 195 81zM794 1288q-80 0 -137 -56q-57 -57 -57 -137t57 -137t139 -57q77 0 134 57q57 56 57 136q0 83 -57 138q-58 56 -136 56z" />
    <glyph glyph-name="plusminus" unicode="&#xb1;" horiz-adv-x="728" vert-adv-y="2457" 
d="M536 615q53 135 126 249q52 82 82 82q17 0 40 -19q28 -22 28 -45q0 -14 -20 -31q-55 -48 -131 -219q80 13 236 57q20 6 29 6q20 0 20 -14q0 -32 -69 -65q-94 -46 -258 -78q-39 -94 -66 -168q-23 -63 -46 -169q-9 -41 -32 -41q-17 0 -30 15q-13 16 -13 39q0 57 33 189
q14 57 34 116q-76 -9 -126 -9q-119 0 -119 64q0 22 12 39q9 11 24 11q7 0 21 -5q31 -10 101 -10q77 0 124 6zM726 143q19 0 19 -18q0 -27 -30 -47q-43 -29 -130 -52q-106 -28 -207 -28q-147 0 -147 63q0 24 11 39q10 13 23 13q3 0 14 -3q1 0 9 -2q5 -2 15 -4q39 -11 103 -11
q133 0 294 45q16 5 26 5z" />
    <glyph glyph-name="twosuperior" unicode="&#xb2;" horiz-adv-x="584" vert-adv-y="2457" 
d="M445 762q108 21 199 21q123 0 163 -39q15 -14 15 -27q0 -18 -24 -18q-10 0 -33 7q-41 13 -96 13q-118 0 -208 -24q-38 -10 -46 -10q-22 0 -45 20q-28 25 -28 51q0 22 27 50q38 38 162 134q274 213 332 303q28 43 28 74q0 38 -43 38q-38 0 -96 -27q-87 -39 -125 -86
q-12 -15 -12 -28q0 -5 2 -10q5 -19 5 -24q0 -18 -34 -18q-26 0 -41 15q-16 15 -16 35q0 70 121 141q114 68 199 68q54 0 86 -30q33 -32 33 -84q0 -60 -66 -138q-82 -97 -271 -241q-138 -106 -188 -166z" />
    <glyph glyph-name="threesuperior" unicode="&#xb3;" horiz-adv-x="612" vert-adv-y="2457" 
d="M584 978q-3 1 -4 2q-37 19 -37 50q0 19 13 28q4 3 55 28q74 35 165 103q118 87 118 141q0 19 -30 19q-82 0 -201 -67q-91 -51 -120 -94q-10 -15 -21 -15q-30 0 -30 35q0 55 122 127q146 87 255 87q57 0 85 -34q19 -22 19 -53q0 -135 -319 -308q162 -56 210 -99
q43 -37 43 -76q0 -65 -94 -113q-102 -52 -254 -52q-70 0 -123 17q-78 24 -78 67q0 30 33 56q23 18 47 18q21 0 21 -15q0 -7 -8 -19q-4 -6 -4 -11q0 -15 27 -27q45 -20 108 -20q128 0 211 55q37 25 37 43q0 17 -16 31q-19 16 -104 46q-34 12 -126 50z" />
    <glyph glyph-name="acute" unicode="&#xb4;" horiz-adv-x="447" vert-adv-y="2457" 
d="M749 1194q19 0 37 -17q24 -24 24 -44q0 -49 -113 -106q-110 -56 -152 -56q-6 0 -40 10q-14 13 -18 16q-9 8 -9 25q0 9 22 19l29 15q101 48 165 105q17 15 23 20q13 13 32 13z" />
    <glyph glyph-name="mu" unicode="&#xb5;" horiz-adv-x="774" vert-adv-y="2457" 
d="M155 16q-36 -75 -126 -272q-20 -43 -31 -63q-26 -48 -28 -52q-13 -28 -30 -28q-26 0 -50 21q-23 20 -23 44t52 118q53 99 146 308q104 234 200 428q79 160 102 218q4 11 25 74q11 36 49 36q20 0 42 -15q19 -13 19 -36q0 -51 -143 -330q-125 -243 -125 -299q0 -43 24 -43
q41 0 171 147q112 127 224 298q101 154 160 270q14 27 40 27q19 0 36 -11q23 -16 23 -44q0 -17 -45 -101q-56 -106 -116 -260q-79 -201 -79 -317q0 -31 13 -48q10 -14 24 -13q3 0 14 2q5 1 9 1q17 0 17 -19q0 -25 -22 -46q-18 -18 -46 -18q-52 0 -83 52q-26 42 -26 110
q0 92 34 177q-272 -338 -391 -338q-31 0 -60 22z" />
    <glyph glyph-name="paragraph" unicode="&#xb6;" horiz-adv-x="837" vert-adv-y="2457" 
d="M732 837q-222 131 -222 322q0 118 73 210q84 107 238 126q46 6 117 6q564 0 564 -93q0 -33 -24 -33q-18 0 -84 14q-14 3 -58 9q-9 -112 -269 -711q-177 -406 -213 -519q-19 -59 -24 -95q-4 -37 -32 -60q-21 -17 -38 -17q-42 0 -42 48q0 71 56 228q48 136 190 455
q185 417 239 582q19 58 28 101q-8 1 -156 7q-34 -144 -102 -305q-27 -66 -152 -357l-31 -71q-193 -451 -215 -519q-19 -59 -24 -95q-4 -37 -33 -60q-21 -17 -38 -17q-42 0 -42 48q0 71 56 228q31 88 190 455l24 56zM776 937q29 64 44 96q56 117 88 202q14 35 68 185
q-147 -3 -185 -11q-67 -15 -117 -73q-60 -70 -60 -163q0 -77 45 -145q27 -42 65 -63z" />
    <glyph glyph-name="cedilla" unicode="&#xb8;" horiz-adv-x="384" vert-adv-y="2457" 
d="M169 30l89 -28q-34 -51 -34 -66q0 -19 33 -57q38 -43 38 -92q0 -65 -66 -116q-60 -46 -124 -46q-51 0 -86 24q-15 10 -15 21q0 8 5 15q3 5 57 8q65 3 94 52q13 22 13 48q0 41 -39 73q-29 24 -29 46q0 31 55 105q3 3 9 13z" />
    <glyph glyph-name="onesuperior" unicode="&#xb9;" horiz-adv-x="458" vert-adv-y="2457" 
d="M746 1310q-95 -67 -158 -135q-12 -12 -24 -12q-13 0 -22 14q-6 9 -6 20q0 27 50 73q42 39 133 104q82 59 100 59q20 0 34 -19q16 -20 16 -39q0 -13 -35 -66q-23 -36 -121 -208q-160 -281 -188 -387q-8 -27 -25 -27q-15 0 -26 19q-8 16 -8 35q0 117 280 569z" />
    <glyph glyph-name="ordmasculine" unicode="&#xba;" horiz-adv-x="600" vert-adv-y="2457" 
d="M690 1302q1 18 18 40q34 43 82 43q54 0 81 -55q18 -37 18 -82q0 -108 -81 -233q-98 -152 -207 -152q-62 0 -89 56q-13 25 -13 59q0 122 101 248q46 59 90 76zM745 1285q-4 -18 -18 -28q-42 -33 -81 -98q-60 -101 -60 -179q0 -44 29 -44q49 0 117 95q77 108 77 202
q0 83 -33 83q-11 0 -20 -12q-9 -11 -11 -19zM869 822q22 0 22 -16q0 -34 -74 -66q-78 -34 -182 -53q-106 -19 -192 -19q-128 0 -128 65q0 26 12 41q10 12 22 12q9 0 23 -5q41 -15 108 -15q217 0 363 50q19 6 26 6z" />
    <glyph glyph-name="guillemotright" unicode="&#xbb;" horiz-adv-x="728" vert-adv-y="2457" 
d="M428 406q-95 52 -135 85q-44 37 -44 69q0 23 19 42q17 16 32 16t32 -22q16 -22 45 -44q77 -58 136 -89q62 -31 62 -62q0 -24 -45 -52q-117 -75 -161 -108t-117 -100q-21 -20 -35 -20q-13 0 -23 12q-8 11 -8 28q0 26 44 73q92 98 198 172zM718 408q-95 52 -135 85
q-44 37 -44 69q0 24 19 42q17 16 32 16t32 -22q16 -22 45 -44q77 -59 136 -89q61 -31 61 -62q0 -24 -45 -52q-125 -81 -192 -132q-18 -13 -86 -76q-21 -20 -35 -20q-13 0 -23 12q-8 11 -8 28q0 26 45 73q92 98 198 172z" />
    <glyph glyph-name="onequarter" unicode="&#xbc;" horiz-adv-x="1184" vert-adv-y="2457" 
d="M1008 328q-86 -20 -144 -20q-64 0 -106 24q-37 21 -37 49q0 21 40 59q123 116 211 221q21 25 31 62q5 20 23 20q16 0 29 -11t13 -23q0 -33 -39 -90q-27 -40 -127 -145q-77 -81 -77 -92q0 -9 38 -9q53 0 184 24q25 41 37 61q25 42 36 58q57 82 63 105q10 35 32 35
q21 0 34 -13q11 -12 11 -28q0 -15 -110 -201q45 4 67 4q52 0 52 -20q0 -26 -55 -29q-25 -1 -100 -16q-91 -159 -123 -251q-14 -37 -16 -79q-1 -34 -26 -34q-18 0 -32 17q-15 19 -15 50q0 84 106 272zM731 1310q-96 -68 -158 -135q-11 -12 -23 -12q-13 0 -22 14q-6 9 -6 20
q0 27 50 73q42 40 133 104q81 59 99 59q20 0 34 -19q16 -20 16 -39q0 -13 -35 -66q-22 -34 -121 -208q-160 -281 -188 -387q-7 -27 -25 -27q-15 0 -25 19q-9 16 -9 35q0 117 280 569zM1398 1555q20 0 35 -29q16 -30 16 -61q0 -28 -18 -53q-30 -43 -242 -276
q-544 -600 -733 -862q-74 -104 -178 -291q-18 -33 -39 -33q-7 0 -14 7q-11 11 -10 25q7 151 428 671q161 200 481 567q192 220 249 317q11 18 25 18z" />
    <glyph glyph-name="onehalf" unicode="&#xbd;" horiz-adv-x="1178" vert-adv-y="2457" 
d="M724 1310q-96 -68 -158 -135q-11 -12 -23 -12q-13 0 -22 14q-6 9 -6 20q0 27 50 73q42 40 133 104q81 59 99 59q20 0 34 -19q16 -20 16 -39q0 -13 -35 -66q-22 -34 -121 -208q-160 -281 -188 -387q-7 -27 -25 -27q-15 0 -25 19q-9 16 -9 35q0 117 280 569zM1391 1555
q20 0 35 -29q16 -30 16 -61q0 -28 -18 -53q-30 -43 -242 -276q-544 -600 -733 -862q-74 -104 -178 -291q-18 -33 -39 -33q-7 0 -14 7q-11 11 -10 25q7 151 428 671q161 200 481 567q192 220 249 317q11 18 25 18zM746 57q110 22 199 22q123 0 164 -39q14 -14 14 -27
q0 -18 -24 -18q-9 0 -33 7q-42 13 -96 13q-118 0 -208 -24q-38 -10 -46 -10q-22 0 -45 20q-28 25 -28 51q0 22 27 50q38 38 162 134q275 214 332 303q28 43 28 74q0 38 -43 38q-38 0 -96 -27q-87 -39 -124 -86q-13 -16 -13 -28q0 -5 2 -10q5 -18 5 -24q0 -18 -34 -18
q-26 0 -41 15q-16 15 -16 35q0 70 121 141q114 68 199 68q54 0 86 -30q33 -32 33 -84q0 -60 -66 -138q-81 -97 -271 -241q-138 -106 -188 -167z" />
    <glyph glyph-name="threequarters" unicode="&#xbe;" horiz-adv-x="1451" vert-adv-y="2457" 
d="M1295 328q-86 -20 -143 -20q-64 0 -106 24q-37 21 -37 49q0 21 40 59q124 118 210 221q21 25 31 62q5 20 24 20q15 0 28 -11t13 -23q0 -33 -39 -90q-26 -40 -126 -145q-77 -82 -77 -92q0 -9 38 -9q52 0 184 24q24 41 36 61q25 42 36 58q57 81 63 105q10 35 32 35
q21 0 34 -13q11 -12 11 -28q0 -15 -110 -201q46 4 68 4q52 0 52 -20q0 -26 -55 -29q-26 -1 -101 -16q-91 -160 -123 -251q-14 -37 -16 -79q-1 -34 -26 -34q-18 0 -32 17q-15 19 -15 50q0 83 106 272zM1685 1555q20 0 35 -29q16 -30 16 -61q0 -28 -18 -53q-30 -43 -242 -276
q-544 -600 -733 -862q-74 -104 -178 -291q-18 -33 -39 -33q-7 0 -14 7q-11 11 -10 25q7 151 428 671q161 200 481 567q192 220 249 317q11 18 25 18zM580 978q-3 1 -4 2q-37 19 -37 50q0 19 13 28q4 3 55 28q74 35 165 103q118 87 118 141q0 19 -30 19q-82 0 -201 -67
q-91 -51 -120 -94q-10 -15 -21 -15q-30 0 -30 35q0 55 122 127q146 87 255 87q57 0 85 -34q19 -22 19 -53q0 -135 -319 -308q162 -56 210 -99q43 -37 43 -76q0 -65 -94 -113q-102 -52 -254 -52q-70 0 -123 17q-78 24 -78 67q0 30 33 56q23 18 47 18q21 0 21 -15q0 -7 -8 -19
q-4 -6 -4 -11q0 -15 27 -27q45 -20 108 -20q128 0 211 55q37 25 37 43q0 17 -16 31q-19 16 -104 46q-34 12 -126 50z" />
    <glyph glyph-name="questiondown" unicode="&#xbf;" horiz-adv-x="697" vert-adv-y="2457" 
d="M510 512q-23 0 -57 -8q-20 -4 -28 -4q-26 0 -26 20q0 18 22 41q38 43 95 43q71 0 123 -51q34 -32 34 -69q0 -81 -82 -170q-78 -85 -183 -179q-209 -184 -262 -281q-38 -69 -38 -131q0 -57 76 -57q103 0 205 89q79 70 105 140q23 61 58 61q27 0 27 -49q0 -81 -83 -173
q-74 -83 -173 -126q-68 -29 -135 -29q-92 0 -141 51q-33 35 -33 91q0 198 372 529q194 173 194 233q0 29 -70 29zM645 1029q96 0 96 -52q0 -60 -68 -60q-40 0 -78 28q-24 18 -24 43q0 17 20 29q19 12 54 12z" />
    <glyph glyph-name="Agrave" unicode="&#xc0;" horiz-adv-x="1019" vert-adv-y="2457" 
d="M1103 1900q22 0 33 -6q4 -3 12 -17q10 -16 14 -33q5 -19 43 -84q23 -39 62 -86q32 -40 32 -47q0 -12 -11 -19q-16 -10 -30 -10q-35 0 -62 22q-49 41 -96 103q-36 48 -54 98q-6 15 -6 26q0 23 26 40q20 13 37 13zM362 477l-115 -13q-39 -5 -48 -5q-30 0 -48 18
q-21 23 -21 55q0 28 20 28h8q34 -4 48 -4q46 0 186 24l49 8l70 97q131 180 206 281q285 387 317 448q17 33 33 33q36 0 77 -37q27 -25 27 -49q0 -19 -28 -96q-23 -64 -111 -389q-27 -100 -41 -159l63 18l22 7q46 14 56 14q18 0 18 -16q0 -35 -80 -64l-98 -36
q-94 -420 -94 -618q0 -17 1 -29q4 -58 4 -63q0 -30 -27 -30q-68 0 -68 270q0 164 56 429q-147 -47 -339 -91q-250 -373 -304 -495q-8 -21 -24 -21q-29 0 -53 22q-29 26 -29 51q0 20 32 64q6 8 45 70q46 74 190 278zM863 682q61 249 146 530q-139 -173 -432 -597
q182 39 286 67z" />
    <glyph glyph-name="Aacute" unicode="&#xc1;" horiz-adv-x="1019" vert-adv-y="2457" 
d="M1336 1850q19 0 37 -17q24 -23 24 -44q0 -50 -113 -106q-110 -56 -151 -56q-6 0 -40 10q-14 13 -18 16q-9 8 -9 25q0 9 22 19l29 15q101 48 164 105q17 15 23 20q13 13 32 13zM362 477l-115 -13q-39 -5 -48 -5q-30 0 -48 18q-21 23 -21 55q0 28 20 28h8q34 -4 48 -4
q46 0 186 24l49 8l70 97q131 180 206 281q285 387 317 448q17 33 33 33q36 0 77 -37q27 -25 27 -49q0 -19 -28 -96q-23 -64 -111 -389q-27 -100 -41 -159l63 18l22 7q46 14 56 14q18 0 18 -16q0 -35 -80 -64l-98 -36q-94 -420 -94 -618q0 -17 1 -29q4 -58 4 -63
q0 -30 -27 -30q-68 0 -68 270q0 164 56 429q-147 -47 -339 -91q-250 -373 -304 -495q-8 -21 -24 -21q-29 0 -53 22q-29 26 -29 51q0 20 32 64q6 8 45 70q46 74 190 278zM863 682q61 249 146 530q-139 -173 -432 -597q182 39 286 67z" />
    <glyph glyph-name="Acircumflex" unicode="&#xc2;" horiz-adv-x="1019" vert-adv-y="2457" 
d="M1213 1688q-12 -7 -49 -30q-15 -9 -71 -29q-46 -20 -78 -20q-29 0 -43 11q-16 12 -16 24q0 10 11 19q13 14 40 25q8 3 88 59l39 34l40 34q24 24 29 26q20 9 45 9q17 0 42 -13q17 -8 25 -51q9 -51 39 -108q20 -38 21 -40q8 -18 14 -24q10 -9 10 -26q0 -19 -22 -19
q-35 0 -61 15q-23 14 -54 44q-25 24 -29 32q-17 29 -20 28zM362 477l-115 -13q-39 -5 -48 -5q-30 0 -48 18q-21 23 -21 55q0 28 20 28h8q34 -4 48 -4q46 0 186 24l49 8l70 97q131 180 206 281q285 387 317 448q17 33 33 33q36 0 77 -37q27 -25 27 -49q0 -19 -28 -96
q-23 -64 -111 -389q-27 -100 -41 -159l63 18l22 7q46 14 56 14q18 0 18 -16q0 -35 -80 -64l-98 -36q-94 -420 -94 -618q0 -17 1 -29q4 -58 4 -63q0 -30 -27 -30q-68 0 -68 270q0 164 56 429q-147 -47 -339 -91q-250 -373 -304 -495q-8 -21 -24 -21q-29 0 -53 22
q-29 26 -29 51q0 20 32 64q6 8 45 70q46 74 190 278zM863 682q61 249 146 530q-139 -173 -432 -597q182 39 286 67z" />
    <glyph glyph-name="Atilde" unicode="&#xc3;" horiz-adv-x="1019" vert-adv-y="2457" 
d="M1089 1738q-39 0 -68 -19q-45 -30 -52 -37q-10 -10 -21 -10q-37 0 -37 31q0 48 56 93q44 36 87 47q26 7 72 7q63 0 127 -70q36 -40 65 -40q7 0 22 6q32 12 62 36q18 15 36 15q10 0 18 -9q13 -14 13 -36q0 -35 -43 -70q-65 -55 -120 -55q-25 0 -73 19q-21 8 -62 48
q-46 44 -82 44zM362 477l-115 -13q-39 -5 -48 -5q-30 0 -48 18q-21 23 -21 55q0 28 20 28h8q34 -4 48 -4q46 0 186 24l49 8l70 97q131 180 206 281q285 387 317 448q17 33 33 33q36 0 77 -37q27 -25 27 -49q0 -19 -28 -96q-23 -64 -111 -389q-27 -100 -41 -159l63 18l22 7
q46 14 56 14q18 0 18 -16q0 -35 -80 -64l-98 -36q-94 -420 -94 -618q0 -17 1 -29q4 -58 4 -63q0 -30 -27 -30q-68 0 -68 270q0 164 56 429q-147 -47 -339 -91q-250 -373 -304 -495q-8 -21 -24 -21q-29 0 -53 22q-29 26 -29 51q0 20 32 64q6 8 45 70q46 74 190 278zM863 682
q61 249 146 530q-139 -173 -432 -597q182 39 286 67z" />
    <glyph glyph-name="Adieresis" unicode="&#xc4;" horiz-adv-x="1019" vert-adv-y="2457" 
d="M1156 1768q38 0 38 -27q0 -20 -34 -58q-37 -41 -71 -85q-7 -10 -13 -31q-7 -25 -44 -25q-22 0 -38 16q-15 15 -15 42q0 37 74 105q67 63 103 63zM1382 1696q46 0 46 -29q0 -17 -36 -48q-45 -40 -72 -110q-12 -32 -53 -32q-12 0 -20 4q-28 12 -28 44q0 48 86 132
q40 39 77 39zM362 477l-115 -13q-39 -5 -48 -5q-30 0 -48 18q-21 23 -21 55q0 28 20 28h8q34 -4 48 -4q46 0 186 24l49 8l70 97q131 180 206 281q285 387 317 448q17 33 33 33q36 0 77 -37q27 -25 27 -49q0 -19 -28 -96q-23 -64 -111 -389q-27 -100 -41 -159l63 18l22 7
q46 14 56 14q18 0 18 -16q0 -35 -80 -64l-98 -36q-94 -420 -94 -618q0 -17 1 -29q4 -58 4 -63q0 -30 -27 -30q-68 0 -68 270q0 164 56 429q-147 -47 -339 -91q-250 -373 -304 -495q-8 -21 -24 -21q-29 0 -53 22q-29 26 -29 51q0 20 32 64q6 8 45 70q46 74 190 278zM863 682
q61 249 146 530q-139 -173 -432 -597q182 39 286 67z" />
    <glyph glyph-name="Aring" unicode="&#xc5;" horiz-adv-x="1019" vert-adv-y="2457" 
d="M1354 1800h4h4q12 0 26 -26q5 -9 5 -27q0 -20 -14 -57q-16 -41 -58 -71q-54 -38 -130 -38q-86 0 -124 53q-25 35 -25 81q0 64 64 124q65 61 150 61q61 0 93 -31q15 -15 15 -38q0 -9 -10 -31zM1294 1791h-4h-9h-5h-7q-6 0 -14 4q-11 7 -46 7q-43 0 -67 -22
q-4 -4 -14 -17.5t-10 -14.5v-17v-14q0 -41 64 -41q34 0 58 22q16 14 29.5 35.5t13.5 32.5v5q0 3 6 10q1 1 1 5q0 5 1 5h3zM362 477l-115 -13q-39 -5 -48 -5q-30 0 -48 18q-21 23 -21 55q0 28 20 28h8q34 -4 48 -4q46 0 186 24l49 8l70 97q131 180 206 281q285 387 317 448
q17 33 33 33q36 0 77 -37q27 -25 27 -49q0 -19 -28 -96q-23 -64 -111 -389q-27 -100 -41 -159l63 18l22 7q46 14 56 14q18 0 18 -16q0 -35 -80 -64l-98 -36q-94 -420 -94 -618q0 -17 1 -29q4 -58 4 -63q0 -30 -27 -30q-68 0 -68 270q0 164 56 429q-147 -47 -339 -91
q-250 -373 -304 -495q-8 -21 -24 -21q-29 0 -53 22q-29 26 -29 51q0 20 32 64q6 8 45 70q46 74 190 278zM863 682q61 249 146 530q-139 -173 -432 -597q182 39 286 67z" />
    <glyph glyph-name="AE" unicode="&#xc6;" horiz-adv-x="1551" vert-adv-y="2457" 
d="M481 588l88 97q190 211 255 282q312 337 396 447q54 70 83 70q30 0 46 -55q125 17 208 17q213 0 334 -64q20 -10 20 -25q0 -22 -25 -22q-8 0 -74 13q-63 12 -193 12q-157 0 -284 -32l-236 -603q46 12 107 18q99 11 116 11q87 0 159 -28q55 -21 55 -54q0 -22 -29 -22
q-6 0 -20 3q-50 13 -117 13q-141 0 -322 -39l-205 -500q159 45 331 45q164 0 273 -39q96 -35 96 -71q0 -14 -23 -14q-10 0 -26 3q-112 24 -227 24q-141 0 -273 -22q-74 -13 -191 -48q-33 -10 -55 -10q-43 0 -71 41q-23 33 -23 62q0 31 90 218q27 58 142 283q-29 -9 -109 -30
q-159 -42 -246 -61q-320 -378 -390 -495q-12 -21 -28 -21q-29 0 -50 22q-20 22 -20 44q0 23 44 71q7 8 57 70q61 76 239 278l-118 -13q-40 -5 -47 -5q-59 0 -59 56q0 45 26 45h9q35 -4 46 -4q47 0 191 24zM926 694q124 291 234 518q-174 -176 -538 -597q24 5 36 7
q99 20 185 48q54 17 83 24z" />
    <glyph glyph-name="Ccedilla" unicode="&#xc7;" horiz-adv-x="1022" vert-adv-y="2457" 
d="M431 -10q-12 -20 -12 -35q0 -18 33 -55q38 -44 38 -92q0 -66 -66 -117q-60 -46 -122 -46q-53 0 -88 24q-15 10 -15 21q0 8 5 15q3 6 57 8q65 3 94 52q13 22 13 48q0 41 -39 74q-29 23 -29 45q0 23 38 79q-73 34 -108 107q-39 79 -39 174q0 189 161 494q130 246 308 438
q198 213 357 213q43 0 84 -34q59 -50 59 -140q0 -74 -33 -109q-16 -17 -36 -17q-26 0 -26 30q0 11 3 31q3 17 3 33q0 44 -23 71q-22 26 -51 26q-93 0 -263 -191q-213 -239 -342 -546q-78 -187 -78 -327q0 -171 102 -171q133 0 337 147q142 102 240 219q24 29 38 29
q20 0 20 -29q0 -54 -70 -137q-108 -131 -250 -223q-125 -80 -245 -101q-21 -4 -55 -8z" />
    <glyph glyph-name="Egrave" unicode="&#xc8;" horiz-adv-x="971" vert-adv-y="2457" 
d="M907 1900q21 0 32 -6q4 -3 13 -17q10 -16 14 -33q5 -19 43 -84q23 -39 62 -85q31 -39 31 -42q0 -18 -11 -25q-20 -11 -29 -9q-40 6 -47 10q-31 19 -96 96q-74 87 -74 144q0 22 26 38q20 13 36 13zM669 1412l3 12l3 18q7 46 35 46q36 0 52 -59q124 17 209 17
q212 0 332 -64q21 -10 21 -25q0 -22 -25 -22q-8 0 -74 13q-64 13 -185 13q-135 0 -291 -29q-42 -158 -194 -480q138 18 205 18q164 0 219 -50q13 -13 13 -29q0 -22 -29 -22q-6 0 -20 4q-49 12 -118 12q-138 0 -321 -39q-29 -58 -83 -169q-14 -29 -79 -158
q-131 -257 -149 -311q202 64 395 64q163 0 272 -39q96 -35 96 -71q0 -14 -23 -14q-10 0 -25 3q-113 24 -230 24q-255 0 -486 -77q-16 -5 -28 -5q-32 0 -59 27q-37 37 -37 78q0 31 89 218q27 55 140 280l33 66l34 67q-37 25 -37 58q0 30 36 35q2 0 11 1q5 1 17 3q10 1 24 4
q152 308 218 475q-129 -39 -167 -74q-25 -23 -44 -23q-26 0 -44 26q-15 23 -15 45q0 28 22 39q103 52 284 94z" />
    <glyph glyph-name="Eacute" unicode="&#xc9;" horiz-adv-x="971" vert-adv-y="2457" 
d="M1162 1850q18 -1 39 -25q16 -17 16 -33q0 -52 -112 -109q-108 -55 -154 -55q-32 0 -54 22q-13 13 -13 21q0 17 21 27l30 15q130 57 184 121q14 18 43 16zM669 1412l3 12l3 18q7 46 35 46q36 0 52 -59q124 17 209 17q212 0 332 -64q21 -10 21 -25q0 -22 -25 -22
q-8 0 -74 13q-64 13 -185 13q-135 0 -291 -29q-42 -158 -194 -480q138 18 205 18q164 0 219 -50q13 -13 13 -29q0 -22 -29 -22q-6 0 -20 4q-49 12 -118 12q-138 0 -321 -39q-29 -58 -83 -169q-14 -29 -79 -158q-131 -257 -149 -311q202 64 395 64q163 0 272 -39
q96 -35 96 -71q0 -14 -23 -14q-10 0 -25 3q-113 24 -230 24q-255 0 -486 -77q-16 -5 -28 -5q-32 0 -59 27q-37 37 -37 78q0 31 89 218q27 55 140 280l33 66l34 67q-37 25 -37 58q0 30 36 35q2 0 11 1q5 1 17 3q10 1 24 4q152 308 218 475q-129 -39 -167 -74q-25 -23 -44 -23
q-26 0 -44 26q-15 23 -15 45q0 28 22 39q103 52 284 94z" />
    <glyph glyph-name="Ecircumflex" unicode="&#xca;" horiz-adv-x="971" vert-adv-y="2457" 
d="M1055 1688q-16 -8 -53 -30q-13 -8 -70 -29q-38 -17 -51 -19q-13 -1 -27 -1q-31 0 -48 15q-12 10 -12 17q0 23 51 47q11 5 59 38q23 16 61 48q44 38 47 42q19 20 30 25q20 9 41 9q46 0 60 -26q6 -10 10 -38q5 -40 31 -93q34 -68 44 -79q10 -10 10 -26q0 -18 -22 -18
q-58 0 -100 44l-16 16q-12 11 -25 30q-14 18 -20 28zM669 1412l3 12l3 18q7 46 35 46q36 0 52 -59q124 17 209 17q212 0 332 -64q21 -10 21 -25q0 -22 -25 -22q-8 0 -74 13q-64 13 -185 13q-135 0 -291 -29q-42 -158 -194 -480q138 18 205 18q164 0 219 -50q13 -13 13 -29
q0 -22 -29 -22q-6 0 -20 4q-49 12 -118 12q-138 0 -321 -39q-29 -58 -83 -169q-14 -29 -79 -158q-131 -257 -149 -311q202 64 395 64q163 0 272 -39q96 -35 96 -71q0 -14 -23 -14q-10 0 -25 3q-113 24 -230 24q-255 0 -486 -77q-16 -5 -28 -5q-32 0 -59 27q-37 37 -37 78
q0 31 89 218q27 55 140 280l33 66l34 67q-37 25 -37 58q0 30 36 35q2 0 11 1q5 1 17 3q10 1 24 4q152 308 218 475q-129 -39 -167 -74q-25 -23 -44 -23q-26 0 -44 26q-15 23 -15 45q0 28 22 39q103 52 284 94z" />
    <glyph glyph-name="Edieresis" unicode="&#xcb;" horiz-adv-x="971" vert-adv-y="2457" 
d="M1139 1734q29 0 50 -28q22 -28 22 -49q0 -29 -31 -61q-35 -38 -72 -38q-30 0 -55 17q-31 20 -31 55q0 44 46 78q35 26 71 26zM892 1748q18 0 41 -17q27 -20 27 -52q0 -44 -27 -69q-38 -37 -75 -37q-29 0 -53 16q-33 21 -33 64q0 35 44 70q32 25 76 25zM669 1412l3 12
l3 18q7 46 35 46q36 0 52 -59q124 17 209 17q212 0 332 -64q21 -10 21 -25q0 -22 -25 -22q-8 0 -74 13q-64 13 -185 13q-135 0 -291 -29q-42 -158 -194 -480q138 18 205 18q164 0 219 -50q13 -13 13 -29q0 -22 -29 -22q-6 0 -20 4q-49 12 -118 12q-138 0 -321 -39
q-29 -58 -83 -169q-14 -29 -79 -158q-131 -257 -149 -311q202 64 395 64q163 0 272 -39q96 -35 96 -71q0 -14 -23 -14q-10 0 -25 3q-113 24 -230 24q-255 0 -486 -77q-16 -5 -28 -5q-32 0 -59 27q-37 37 -37 78q0 31 89 218q27 55 140 280l33 66l34 67q-37 25 -37 58
q0 30 36 35q2 0 11 1q5 1 17 3q10 1 24 4q152 308 218 475q-129 -39 -167 -74q-25 -23 -44 -23q-26 0 -44 26q-15 23 -15 45q0 28 22 39q103 52 284 94z" />
    <glyph glyph-name="Igrave" unicode="&#xcc;" horiz-adv-x="333" vert-adv-y="2457" 
d="M598 1900q36 0 48 -35l10 -21q29 -69 57 -110q44 -65 66 -84q9 -7 9 -24q0 -11 -9 -16q-15 -10 -29 -10q-47 0 -83 40q-14 16 -36 40q-97 106 -97 170q0 18 24 38q14 12 40 12zM666 1493q23 0 42 -24q21 -28 21 -64q0 -44 -25 -126q-44 -143 -243 -599
q-181 -414 -214 -516q-19 -58 -23 -95q-5 -36 -33 -59q-21 -17 -39 -17q-41 0 -41 53q0 66 56 223q46 132 190 455q206 464 252 626q15 53 23 99q7 44 34 44z" />
    <glyph glyph-name="Iacute" unicode="&#xcd;" horiz-adv-x="333" vert-adv-y="2457" 
d="M933 1850q18 -1 41 -24q15 -15 15 -33q0 -57 -112 -110q-90 -42 -100 -45q-51 -11 -54 -11q-29 0 -53 23q-14 13 -14 21q0 15 12 22q4 2 10 4q25 14 77 37q19 8 91 60q34 24 46 41t41 15zM666 1493q23 0 42 -24q21 -28 21 -64q0 -44 -25 -126q-44 -143 -243 -599
q-181 -414 -214 -516q-19 -58 -23 -95q-5 -36 -33 -59q-21 -17 -39 -17q-41 0 -41 53q0 66 56 223q46 132 190 455q206 464 252 626q15 53 23 99q7 44 34 44z" />
    <glyph glyph-name="Icircumflex" unicode="&#xce;" horiz-adv-x="333" vert-adv-y="2457" 
d="M754 1688q-17 -8 -52 -30q-12 -8 -71 -30q-47 -19 -79 -19q-28 0 -41 11q-19 16 -19 20q0 20 26 33t64 40q94 62 128 102q31 35 75 35q21 0 46 -12q18 -9 22 -52q1 -15 21 -69q19 -48 41 -79q25 -37 25 -49q0 -20 -26 -20q-53 0 -98 45q-4 4 -15 14q-12 11 -28 32
q-15 18 -19 28zM666 1493q23 0 42 -24q21 -28 21 -64q0 -44 -25 -126q-44 -143 -243 -599q-181 -414 -214 -516q-19 -58 -23 -95q-5 -36 -33 -59q-21 -17 -39 -17q-41 0 -41 53q0 66 56 223q46 132 190 455q206 464 252 626q15 53 23 99q7 44 34 44z" />
    <glyph glyph-name="Idieresis" unicode="&#xcf;" horiz-adv-x="333" vert-adv-y="2457" 
d="M875 1739q27 0 43 -17q26 -28 28 -54q3 -36 -28 -67q-37 -38 -79 -38q-25 0 -49 16q-13 8 -20 20q-14 23 -14 36q0 6 9 28.5t14 28.5q18 22 54 39q17 8 42 8zM626 1753q28 0 45 -17q25 -25 27 -54q2 -31 -30 -67q-33 -37 -74 -37q-30 0 -54 16q-32 22 -32 57q0 42 46 77
q34 25 72 25zM666 1493q23 0 42 -24q21 -28 21 -64q0 -44 -25 -126q-44 -143 -243 -599q-181 -414 -214 -516q-19 -58 -23 -95q-5 -36 -33 -59q-21 -17 -39 -17q-41 0 -41 53q0 66 56 223q46 132 190 455q206 464 252 626q15 53 23 99q7 44 34 44z" />
    <glyph glyph-name="Eth" unicode="&#xd0;" horiz-adv-x="1302" vert-adv-y="2457" 
d="M939 768q-108 -231 -181 -404q-25 -59 -39 -124q-8 -36 -28 -36q-13 0 -22 9q-16 18 -16 48q0 112 163 486l-33 -2q-54 -3 -69 -3q-129 0 -129 65q0 26 12 41q10 12 22 12q9 0 23 -5q41 -15 102 -15q38 0 115 5l50 110q128 286 130 291q47 118 59 146q-27 2 -46 2
q-219 0 -427 -152q-158 -115 -216 -224q-20 -38 -20 -53q0 -36 56 -36h8q13 1 18 1q22 0 22 -12q0 -10 -17 -22q-26 -17 -57 -17q-47 0 -82 20q-38 22 -38 61q0 84 106 213q130 158 323 246q157 72 315 72q38 0 91 -7q3 13 5 19q8 37 30 37q19 0 38 -22q20 -21 24 -58
q118 -45 182 -102q80 -70 122 -170q36 -84 36 -175q0 -270 -217 -533q-203 -246 -506 -386q-220 -101 -413 -101q-160 0 -247 72q-55 44 -55 99q0 43 21 43q6 0 10 -3q5 -4 37 -49q46 -66 217 -66q169 0 373 93q201 93 373 245q319 285 319 590q0 122 -72 221
q-54 75 -140 111q-24 10 -58 21l-24 -55q-113 -265 -207 -457q75 12 131 32q18 6 26 6q22 0 22 -16q0 -62 -222 -112z" />
    <glyph glyph-name="Ntilde" unicode="&#xd1;" horiz-adv-x="980" vert-adv-y="2457" 
d="M889 1739q-39 0 -68 -20q-44 -30 -51 -37q-11 -11 -17 -10l-5 1l-16 -1q-10 1 -17 17q-3 6 -3 14q0 47 56 93q44 36 86 47q27 7 72 7q64 0 127 -69q36 -40 66 -40q6 0 22 6q30 11 61 35q18 15 36 15q10 0 19 -9q12 -14 12 -36q0 -34 -42 -70q-66 -54 -121 -54
q-24 0 -72 19q-22 8 -63 48q-45 44 -82 44zM785 179q55 184 308 797q158 384 187 507q8 37 39 37q22 0 41 -19q21 -22 21 -54q0 -28 -21 -89q-36 -109 -246 -614q-246 -593 -262 -762q-4 -48 -45 -48q-33 0 -57 27q-36 40 -67 165q-38 154 -49 326q-13 225 -16 663
q-191 -477 -218 -550q-73 -199 -103 -310q-36 -133 -36 -177v-38q0 -48 -38 -48q-27 0 -48 25q-24 28 -24 82q0 90 46 244q31 105 67 200q13 35 187 463q145 362 149 368q13 22 33 22q35 0 65 -29q30 -31 30 -69q0 -37 -5 -118q-4 -59 -4 -170q0 -320 17 -539
q12 -159 23 -210q6 -29 26 -82z" />
    <glyph glyph-name="Ograve" unicode="&#xd2;" horiz-adv-x="809" vert-adv-y="2457" 
d="M808 1900q39 0 50 -34q11 -37 38 -86q5 -10 35 -55t36 -51q34 -33 34 -47q0 -7 -12 -19q-9 -9 -30 -9q-36 0 -61 21q-49 43 -92 102q-60 83 -60 125q0 25 23 41q17 12 39 12zM651 1253q53 239 195 239q78 0 134 -73q40 -53 66 -160q22 -88 22 -186q0 -291 -125 -569
q-85 -191 -218 -330q-174 -181 -327 -181q-52 0 -101 31q-91 57 -91 193q0 117 67 318q62 189 170 387q117 217 197 320l3 3q2 4 5 5t3 3zM640 1053q-141 -259 -214 -461q-93 -259 -93 -393q0 -60 28 -88q17 -16 37 -16q130 0 295 210q143 183 215 406q59 181 59 363
q0 168 -51 259q-28 50 -63 50q-33 0 -65 -63q-50 -96 -50 -250q0 -78 27 -178q4 -15 4 -22q0 -23 -22 -23q-85 0 -107 206z" />
    <glyph glyph-name="Oacute" unicode="&#xd3;" horiz-adv-x="809" vert-adv-y="2457" 
d="M1078 1850q25 0 43 -23q18 -24 18 -38q0 -25 -36 -54q-67 -55 -180 -93q-36 -13 -49 -13q-37 0 -57 21q-4 3 -8 14l-6 12q0 1 14 19l11 5l29 14l46 21q85 52 94 59q18 13 44 41q14 15 37 15zM651 1253q53 239 195 239q78 0 134 -73q40 -53 66 -160q22 -88 22 -186
q0 -291 -125 -569q-85 -191 -218 -330q-174 -181 -327 -181q-52 0 -101 31q-91 57 -91 193q0 117 67 318q62 189 170 387q117 217 197 320l3 3q2 4 5 5t3 3zM640 1053q-141 -259 -214 -461q-93 -259 -93 -393q0 -60 28 -88q17 -16 37 -16q130 0 295 210q143 183 215 406
q59 181 59 363q0 168 -51 259q-28 50 -63 50q-33 0 -65 -63q-50 -96 -50 -250q0 -78 27 -178q4 -15 4 -22q0 -23 -22 -23q-85 0 -107 206z" />
    <glyph glyph-name="Ocircumflex" unicode="&#xd4;" horiz-adv-x="809" vert-adv-y="2457" 
d="M955 1685q-16 -7 -49 -26q-46 -26 -91 -41q-42 -13 -59 -13q-15 0 -41 13q-17 8 -17 26q0 16 51 41q40 19 128 96q44 38 58 51q19 18 56 18q60 0 65 -64q3 -31 33 -94q27 -59 43 -78q10 -12 10 -29q0 -18 -34 -18q-42 0 -89 47l-15 15q-28 28 -29 30q-18 27 -20 26z
M651 1253q53 239 195 239q78 0 134 -73q40 -53 66 -160q22 -88 22 -186q0 -291 -125 -569q-85 -191 -218 -330q-174 -181 -327 -181q-52 0 -101 31q-91 57 -91 193q0 117 67 318q62 189 170 387q117 217 197 320l3 3q2 4 5 5t3 3zM640 1053q-141 -259 -214 -461
q-93 -259 -93 -393q0 -60 28 -88q17 -16 37 -16q130 0 295 210q143 183 215 406q59 181 59 363q0 168 -51 259q-28 50 -63 50q-33 0 -65 -63q-50 -96 -50 -250q0 -78 27 -178q4 -15 4 -22q0 -23 -22 -23q-85 0 -107 206z" />
    <glyph glyph-name="Otilde" unicode="&#xd5;" horiz-adv-x="809" vert-adv-y="2457" 
d="M848 1738q-39 0 -68 -19q-44 -30 -51 -37q-10 -10 -22 -10q-36 0 -36 31q0 47 56 93q44 36 86 47q27 7 72 7q64 0 127 -70q36 -40 66 -40q6 0 22 6q31 12 61 36q18 15 36 15q10 0 18 -9q13 -14 13 -36q0 -35 -42 -70q-66 -55 -121 -55q-24 0 -72 19q-21 8 -63 48
q-45 44 -82 44zM651 1253q53 239 195 239q78 0 134 -73q40 -53 66 -160q22 -88 22 -186q0 -291 -125 -569q-85 -191 -218 -330q-174 -181 -327 -181q-52 0 -101 31q-91 57 -91 193q0 117 67 318q62 189 170 387q117 217 197 320l3 3q2 4 5 5t3 3zM640 1053
q-141 -259 -214 -461q-93 -259 -93 -393q0 -60 28 -88q17 -16 37 -16q130 0 295 210q143 183 215 406q59 181 59 363q0 168 -51 259q-28 50 -63 50q-33 0 -65 -63q-50 -96 -50 -250q0 -78 27 -178q4 -15 4 -22q0 -23 -22 -23q-85 0 -107 206z" />
    <glyph glyph-name="Odieresis" unicode="&#xd6;" horiz-adv-x="809" vert-adv-y="2457" 
d="M980 1751q-15 -17 -31 -34q-58 -63 -68 -99q-6 -24 -42 -24q-54 0 -54 57q0 39 76 109q65 59 99 59q39 0 39 -29q0 -16 -19 -39zM1186 1747q46 0 46 -28q0 -16 -35 -49q-46 -44 -66 -95q-18 -47 -60 -47q-10 0 -18 4q-28 12 -28 44q0 21 25 59q73 112 136 112zM651 1253
q53 239 195 239q78 0 134 -73q40 -53 66 -160q22 -88 22 -186q0 -291 -125 -569q-85 -191 -218 -330q-174 -181 -327 -181q-52 0 -101 31q-91 57 -91 193q0 117 67 318q62 189 170 387q117 217 197 320l3 3q2 4 5 5t3 3zM640 1053q-141 -259 -214 -461q-93 -259 -93 -393
q0 -60 28 -88q17 -16 37 -16q130 0 295 210q143 183 215 406q59 181 59 363q0 168 -51 259q-28 50 -63 50q-33 0 -65 -63q-50 -96 -50 -250q0 -78 27 -178q4 -15 4 -22q0 -23 -22 -23q-85 0 -107 206z" />
    <glyph glyph-name="multiply" unicode="&#xd7;" horiz-adv-x="737" vert-adv-y="2457" 
d="M494 463q65 44 156 91q135 69 180 69q26 0 39 -25q12 -25 12 -49q0 -34 -42 -39q-71 -8 -233 -104q79 -38 227 -89q37 -12 37 -27q0 -7 -8 -14q-14 -12 -36 -12q-112 0 -308 89q-127 -81 -169.5 -112.5t-115.5 -99.5q-21 -20 -35 -20q-13 0 -23 12q-8 11 -8 28
q0 26 44 73q92 98 198 172q-95 52 -135 85q-44 37 -44 69q0 24 19 42q17 16 32 16t32 -22q16 -22 45 -44q79 -60 136 -89z" />
    <glyph glyph-name="Oslash" unicode="&#xd8;" horiz-adv-x="801" vert-adv-y="2457" 
d="M946 1083q0 136 -37 222q-33 78 -76 78q-26 0 -68 -60.5t-126 -221.5q-64 -122 -137.5 -285t-108.5 -263q-18 -48 -34 -103zM189 265q18 152 86 335t178 378q101 179 167 264l3 3q2 4 4 5q3 1 4 3q52 239 195 239q103 0 159 -115q41 -84 56 -191q108 113 140 154
q36 45 40 48q6 6 14 6q13 0 29 -20q21 -24 21 -55q0 -28 -12 -47q-17 -26 -62 -67q-26 -23 -79 -79l-85 -90q-6 -302 -152 -591q-78 -153 -191 -271q-173 -181 -327 -181q-38 0 -81 20q-78 37 -101 127l-15 -16q-10 -17 -51 -74q-20 -29 -33 -56q-23 -46 -50 -46
q-9 0 -19 10q-12 11 -12 24q0 10 19 53q35 80 141 212zM318 270q-5 -38 -5 -68q0 -64 28 -91q17 -16 37 -16q147 0 330 259q186 262 228 565z" />
    <glyph glyph-name="Ugrave" unicode="&#xd9;" horiz-adv-x="946" vert-adv-y="2457" 
d="M917 1900q30 0 37 -11q13 -20 20 -44q5 -16 44 -84q32 -56 61 -86q32 -35 31 -41q-5 -22 -11 -25q-18 -10 -29 -10q-34 0 -62 21q-34 27 -95 103q-60 73 -60 127q0 21 25 38q19 12 39 12zM772 424q-315 -431 -480 -431q-54 0 -89 43q-41 51 -41 143q0 118 74 311
q58 152 179 415q176 383 197 490q6 28 37 28q40 0 72 -34q19 -19 18 -38q-5 -98 -140 -320q-21 -35 -154 -333q-107 -242 -150 -456q-6 -27 -6 -60q0 -65 37 -65q47 0 138 81q186 168 371 477q75 128 213 417q88 185 109 239q28 73 39 83q12 11 30 11q24 0 44 -17
q29 -23 29 -53q0 -56 -112 -245q-73 -122 -193 -413q-51 -122 -76 -202q-47 -149 -47 -269q0 -89 28 -179q10 -30 24 -54q10 -16 10 -25q0 -24 -27 -24q-40 0 -74 34q-79 76 -79 269q0 73 19 177z" />
    <glyph glyph-name="Uacute" unicode="&#xda;" horiz-adv-x="946" vert-adv-y="2457" 
d="M1186 1850q20 0 39 -23q15 -19 15 -36q0 -51 -111 -109q-30 -16 -103 -41q-35 -12 -46 -12q-35 0 -54 16q-14 12 -15 21l-3 16q-1 5 24 17l26 14q117 49 185 121q15 16 43 16zM772 424q-315 -431 -480 -431q-54 0 -89 43q-41 51 -41 143q0 118 74 311q58 152 179 415
q176 383 197 490q6 28 37 28q40 0 72 -34q19 -19 18 -38q-5 -98 -140 -320q-21 -35 -154 -333q-107 -242 -150 -456q-6 -27 -6 -60q0 -65 37 -65q47 0 138 81q186 168 371 477q75 128 213 417q88 185 109 239q28 73 39 83q12 11 30 11q24 0 44 -17q29 -23 29 -53
q0 -56 -112 -245q-73 -122 -193 -413q-51 -122 -76 -202q-47 -149 -47 -269q0 -89 28 -179q10 -30 24 -54q10 -16 10 -25q0 -24 -27 -24q-40 0 -74 34q-79 76 -79 269q0 73 19 177z" />
    <glyph glyph-name="Ucircumflex" unicode="&#xdb;" horiz-adv-x="946" vert-adv-y="2457" 
d="M1059 1685q-27 -13 -82 -41q-76 -39 -120 -39q-16 0 -47 16q-10 5 -10 18q0 22 23 32q34 14 95 61q66 50 99 81q25 24 32 27q21 10 46 10q26 0 50 -23q8 -8 9 -21q1 -6 5 -20q2 -7 9 -35q6 -28 30 -73l20 -39q28 -38 28 -48q0 -24 -35 -24q-55 0 -117 77q-19 18 -35 41z
M772 424q-315 -431 -480 -431q-54 0 -89 43q-41 51 -41 143q0 118 74 311q58 152 179 415q176 383 197 490q6 28 37 28q40 0 72 -34q19 -19 18 -38q-5 -98 -140 -320q-21 -35 -154 -333q-107 -242 -150 -456q-6 -27 -6 -60q0 -65 37 -65q47 0 138 81q186 168 371 477
q75 128 213 417q88 185 109 239q28 73 39 83q12 11 30 11q24 0 44 -17q29 -23 29 -53q0 -56 -112 -245q-73 -122 -193 -413q-51 -122 -76 -202q-47 -149 -47 -269q0 -89 28 -179q10 -30 24 -54q10 -16 10 -25q0 -24 -27 -24q-40 0 -74 34q-79 76 -79 269q0 73 19 177z" />
    <glyph glyph-name="Udieresis" unicode="&#xdc;" horiz-adv-x="946" vert-adv-y="2457" 
d="M1046 1737q-92 -100 -99 -133q-5 -25 -43 -25q-24 0 -39 16q-14 16 -14 42q0 37 73 106q66 62 102 62q39 0 39 -29q0 -18 -19 -39zM1220 1733q46 0 46 -28q0 -16 -35 -49q-50 -47 -73 -110q-12 -32 -53 -32q-47 0 -47 50q0 19 25 57q74 112 137 112zM772 424
q-315 -431 -480 -431q-54 0 -89 43q-41 51 -41 143q0 118 74 311q58 152 179 415q176 383 197 490q6 28 37 28q40 0 72 -34q19 -19 18 -38q-5 -98 -140 -320q-21 -35 -154 -333q-107 -242 -150 -456q-6 -27 -6 -60q0 -65 37 -65q47 0 138 81q186 168 371 477q75 128 213 417
q88 185 109 239q28 73 39 83q12 11 30 11q24 0 44 -17q29 -23 29 -53q0 -56 -112 -245q-73 -122 -193 -413q-51 -122 -76 -202q-47 -149 -47 -269q0 -89 28 -179q10 -30 24 -54q10 -16 10 -25q0 -24 -27 -24q-40 0 -74 34q-79 76 -79 269q0 73 19 177z" />
    <glyph glyph-name="Yacute" unicode="&#xdd;" horiz-adv-x="542" vert-adv-y="2457" 
d="M914 1850q20 0 37 -17q24 -24 24 -44q0 -50 -113 -107q-110 -56 -152 -56q-6 0 -40 10q-14 13 -18 16q-9 8 -9 25q0 9 22 19l29 16q120 56 183 121q17 17 37 17zM431 689q189 324 405 573q150 173 191 195q12 6 23 6q27 0 52 -30q16 -20 16 -40q0 -15 -14 -28
q-142 -127 -226 -228q-253 -303 -453 -689q-159 -309 -205 -517q-6 -27 -22 -27q-14 0 -27 17q-17 23 -17 50q0 99 77 303q50 133 157 339q-38 66 -50 95q-40 103 -40 262l40 462v12q0 26 26 26q44 0 79 -33q23 -21 23 -43q0 -13 -14 -99q-43 -269 -43 -454q0 -79 22 -152z
" />
    <glyph glyph-name="Thorn" unicode="&#xde;" horiz-adv-x="813" vert-adv-y="2457" 
d="M596 1083l-2 -6q-60 -147 -169 -397q-179 -410 -214 -516q-19 -58 -24 -95q-4 -36 -32 -59q-21 -17 -38 -17q-42 0 -42 48q0 70 56 228q31 88 190 455l59 138l60 138q-82 -52 -161 -115q-156 -127 -239 -255q-49 -74 -49 -114q0 -20 18 -34q31 -24 86 -24l38 1
q14 0 14 -11t-13 -24q-32 -31 -86 -31q-70 0 -111 45q-35 38 -35 89q0 118 174 304q176 187 423 308q80 204 97 310q6 44 34 44q23 0 42 -24q21 -28 21 -63q0 -62 -55 -213q114 36 210 36q165 0 259 -99q86 -91 86 -219q0 -157 -172 -312q-138 -124 -315 -195
q-123 -49 -199 -49q-33 0 -53 9q-29 12 -43 22q-11 8 -15 23l3 7q24 18 90 29q99 17 136.5 28.5t101.5 44.5q185 97 288 231q74 95 74 186q0 106 -83 167q-61 44 -149 44q-117 0 -261 -63z" />
    <glyph glyph-name="germandbls" unicode="&#xdf;" horiz-adv-x="754" vert-adv-y="2457" 
d="M424 603q-189 -347 -323 -685q-110 -276 -146 -455q-17 -82 -17 -181q0 -63 -29 -63q-22 0 -35.5 40.5t-13.5 106.5q0 206 115 519q129 354 322 689q138 238 226.5 364t170.5 199q68 60 97 69q14 5 29 5q60 0 96 -62q25 -44 25 -96q0 -137 -226 -314q28 7 43 7
q62 0 101 -61q40 -61 40 -156q0 -158 -80 -307q-57 -104 -137 -167q-79 -61 -163 -61q-77 0 -132 53q-64 63 -64 166q0 72 23 108q21 32 39 32q17 0 17 -34v-14q-1 -17 -1 -22q0 -56 28 -112q38 -74 98 -74q47 0 107 49q74 62 121 165q42 93 42 195q0 70 -25 108
q-24 36 -63 36q-53 0 -148 -68q-53 -39 -69 -39q-30 0 -54 26q-12 13 -14 34zM446 641q16 10 77 44q58 33 148 115q137 124 172 221q11 31 11 55q0 44 -35 44q-76 0 -359 -455z" />
    <glyph glyph-name="agrave" unicode="&#xe0;" horiz-adv-x="761" vert-adv-y="2457" 
d="M687 1300q23 0 33 -6q5 -3 12 -17q10 -16 15 -33q5 -18 42 -84q23 -39 62 -85q32 -40 32 -47q0 -12 -11 -19q-16 -10 -30 -10q-35 0 -61 22q-50 42 -96 102q-36 48 -54 98q-6 16 -6 26q0 23 26 40q20 13 36 13zM615 300q-90 -115 -171 -195q-114 -112 -200 -112
q-88 0 -122 79q-17 39 -17 87q0 124 144 324q156 217 302 316q91 62 157 62q75 0 117 -58q25 -35 25 -84q0 -77 -39 -96q8 -18 8 -30q0 -14 -22 -70q-82 -217 -82 -369q0 -58 25 -109q14 -28 14 -42q0 -34 -34 -34q-30 0 -60 30q-57 59 -57 194q0 49 12 107zM757 669v3v5
q0 2 1 10q1 4 1 10q0 19 -9 33q-15 26 -48 26q-68 0 -178 -109q-78 -77 -156 -188q-142 -200 -142 -307q0 -43 41 -43q35 0 116 71q123 109 230 269q54 82 67 119l28 79q9 26 32 26q7 0 17 -4z" />
    <glyph glyph-name="aacute" unicode="&#xe1;" horiz-adv-x="761" vert-adv-y="2457" 
d="M935 1250q20 0 37 -17q24 -24 24 -44q0 -49 -113 -106q-110 -56 -151 -56q-6 0 -40 10q-14 13 -18 16q-9 8 -9 25q0 9 22 19l29 15q51 25 72 38q9 6 67 44l25 22q17 16 23 21q14 13 32 13zM615 300q-90 -115 -171 -195q-114 -112 -200 -112q-88 0 -122 79q-17 39 -17 87
q0 124 144 324q156 217 302 316q91 62 157 62q75 0 117 -58q25 -35 25 -84q0 -77 -39 -96q8 -18 8 -30q0 -14 -22 -70q-82 -217 -82 -369q0 -58 25 -109q14 -28 14 -42q0 -34 -34 -34q-30 0 -60 30q-57 59 -57 194q0 49 12 107zM757 669v3v5q0 2 1 10q1 4 1 10q0 19 -9 33
q-15 26 -48 26q-68 0 -178 -109q-78 -77 -156 -188q-142 -200 -142 -307q0 -43 41 -43q35 0 116 71q123 109 230 269q54 82 67 119l28 79q9 26 32 26q7 0 17 -4z" />
    <glyph glyph-name="acircumflex" unicode="&#xe2;" horiz-adv-x="760" vert-adv-y="2457" 
d="M806 1088q-12 -7 -49 -30q-16 -9 -71 -29q-47 -20 -79 -20q-29 0 -42 11q-17 12 -17 24q0 10 12 19q12 14 39 25q9 3 89 59l39 34l39 34q25 24 30 26q20 9 44 9q17 0 43 -13q17 -8 25 -51q9 -52 39 -108q20 -38 21 -40q8 -18 14 -24q10 -9 10 -26q0 -19 -22 -19
q-34 0 -61 16q-23 13 -54 43q-25 24 -29 32q-17 29 -20 28zM615 300q-90 -115 -171 -195q-114 -112 -200 -112q-88 0 -122 79q-17 39 -17 87q0 124 144 324q156 217 302 316q91 62 157 62q75 0 117 -58q25 -35 25 -84q0 -77 -39 -96q8 -18 8 -30q0 -14 -22 -70
q-82 -217 -82 -369q0 -58 25 -109q14 -28 14 -42q0 -34 -34 -34q-30 0 -60 30q-57 59 -57 194q0 49 12 107zM757 669v3v5q0 2 1 10q1 4 1 10q0 19 -9 33q-15 26 -48 26q-68 0 -178 -109q-78 -77 -156 -188q-142 -200 -142 -307q0 -43 41 -43q35 0 116 71q123 109 230 269
q54 82 67 119l28 79q9 26 32 26q7 0 17 -4z" />
    <glyph glyph-name="atilde" unicode="&#xe3;" horiz-adv-x="760" vert-adv-y="2457" 
d="M728 1138q-39 0 -67 -19q-44 -30 -52 -37q-10 -10 -21 -10q-37 0 -37 31q0 47 57 93q44 36 85 47q27 7 72 7q64 0 127 -70q36 -40 66 -40q7 0 22 6q30 12 61 36q18 15 36 15q10 0 18 -9q13 -14 13 -36q0 -35 -43 -70q-65 -55 -120 -55q-24 0 -72 19q-22 8 -63 48
q-45 44 -82 44zM615 300q-90 -115 -171 -195q-114 -112 -200 -112q-88 0 -122 79q-17 39 -17 87q0 124 144 324q156 217 302 316q91 62 157 62q75 0 117 -58q25 -35 25 -84q0 -77 -39 -96q8 -18 8 -30q0 -14 -22 -70q-82 -217 -82 -369q0 -58 25 -109q14 -28 14 -42
q0 -34 -34 -34q-30 0 -60 30q-57 59 -57 194q0 49 12 107zM757 669v3v5q0 2 1 10q1 4 1 10q0 19 -9 33q-15 26 -48 26q-68 0 -178 -109q-78 -77 -156 -188q-142 -200 -142 -307q0 -43 41 -43q35 0 116 71q123 109 230 269q54 82 67 119l28 79q9 26 32 26q7 0 17 -4z" />
    <glyph glyph-name="adieresis" unicode="&#xe4;" horiz-adv-x="760" vert-adv-y="2457" 
d="M906 1161q-12 -11 -30 -32q-55 -63 -58 -70q-6 -13 -8 -19q-7 -22 -35 -22q-54 0 -54 54q0 32 49 76q36 33 71 55q31 21 38 22q18 2 34 -7q14 -8 14 -20q0 -8 -21 -37zM1009 1171q14 0 27 -5q17 -8 17 -19q-1 -17 -37 -48q-42 -35 -66 -83q-10 -21 -16 -27q-5 -5 -15 -9
q-17 -7 -20 -6q-28 5 -36 13q-14 14 -14 32q0 25 52 85q48 56 81 64q11 3 27 3zM615 300q-90 -115 -171 -195q-114 -112 -200 -112q-88 0 -122 79q-17 39 -17 87q0 124 144 324q156 217 302 316q91 62 157 62q75 0 117 -58q25 -35 25 -84q0 -77 -39 -96q8 -18 8 -30
q0 -14 -22 -70q-82 -217 -82 -369q0 -58 25 -109q14 -28 14 -42q0 -34 -34 -34q-30 0 -60 30q-57 59 -57 194q0 49 12 107zM757 669v3v5q0 2 1 10q1 4 1 10q0 19 -9 33q-15 26 -48 26q-68 0 -178 -109q-78 -77 -156 -188q-142 -200 -142 -307q0 -43 41 -43q35 0 116 71
q123 109 230 269q54 82 67 119l28 79q9 26 32 26q7 0 17 -4z" />
    <glyph glyph-name="aring" unicode="&#xe5;" horiz-adv-x="760" vert-adv-y="2457" 
d="M960 1205h4h4q12 0 26 -26q5 -9 5 -26q0 -21 -14 -57q-16 -41 -58 -71q-54 -38 -130 -38q-86 0 -124 54q-25 35 -25 80q0 64 64 124q66 61 151 61q60 0 92 -31q15 -15 15 -38q0 -10 -10 -32zM943 1196h-3h-10h-5h-6q-7 0 -15 5q-11 7 -45 7q-44 0 -68 -22
q-4 -4 -13.5 -17.5t-9.5 -15.5v-16v-15q0 -39 66 -39q32 0 56 21q12 12 26 32q17 23 17 35v5q0 3 6 10q2 2 1 5l-1 4q0 1 2 1h2zM615 300q-90 -115 -171 -195q-114 -112 -200 -112q-88 0 -122 79q-17 39 -17 87q0 124 144 324q156 217 302 316q91 62 157 62q75 0 117 -58
q25 -35 25 -84q0 -77 -39 -96q8 -18 8 -30q0 -14 -22 -70q-82 -217 -82 -369q0 -58 25 -109q14 -28 14 -42q0 -34 -34 -34q-30 0 -60 30q-57 59 -57 194q0 49 12 107zM757 669v3v5q0 2 1 10q1 4 1 10q0 19 -9 33q-15 26 -48 26q-68 0 -178 -109q-78 -77 -156 -188
q-142 -200 -142 -307q0 -43 41 -43q35 0 116 71q123 109 230 269q54 82 67 119l28 79q9 26 32 26q7 0 17 -4z" />
    <glyph glyph-name="ae" unicode="&#xe6;" horiz-adv-x="979" vert-adv-y="2457" 
d="M502 180q-44 -47 -72 -75q-114 -112 -200 -112q-88 0 -122 79q-17 39 -17 87q0 123 144 324q156 217 302 316q91 62 157 62q75 0 117 -58q21 -30 25 -74q123 110 195 110q57 0 89 -34q29 -32 29 -87q0 -111 -122 -259q-113 -136 -225 -161q-29 -6 -68 -6q-34 0 -83 12
q-34 -69 -34 -126q0 -88 82 -88q131 0 282 142q22 20 35 20q20 0 20 -30q0 -40 -74 -106q-136 -122 -273 -122q-83 0 -137 61q-48 55 -50 125zM743 669v3v5q0 2 1 10q1 4 1 10q0 19 -9 33q-15 26 -48 26q-68 0 -178 -109q-78 -77 -156 -188q-142 -200 -142 -306
q0 -44 40 -44q46 0 162 114q107 105 203 254q39 61 49 91l28 79q9 26 32 26q7 0 17 -4zM699 395q25 -6 48 -6q77 0 139 53q58 50 116 133q50 71 50 123q0 47 -37 47q-46 0 -143 -113q-92 -107 -173 -237z" />
    <glyph glyph-name="ccedilla.001" unicode="&#xe7;" horiz-adv-x="588" vert-adv-y="2457" 
d="M234 7q-37 20 -65 57q-38 51 -38 112q0 129 139 325q96 135 219 239q110 93 181 93q88 0 88 -69q0 -53 -32 -53q-10 0 -28 15q-10 9 -33 9q-73 0 -216 -177q-203 -250 -203 -390q0 -35 23 -60q17 -20 56 -20q114 0 248 111q21 17 32 17q17 0 17 -28q0 -24 -14 -42
q-65 -85 -166 -131q-55 -24 -111 -27q-15 -12 -15 -40q0 -17 33 -54q38 -44 38 -92q0 -66 -67 -117q-59 -46 -122 -46q-53 0 -88 24q-15 10 -15 21q0 8 5 15q3 6 57 8q65 3 95 52q13 22 13 48q0 41 -40 74q-29 23 -29 45q0 20 22 56l12 18q1 2 4 7z" />
    <glyph glyph-name="egrave" unicode="&#xe8;" horiz-adv-x="606" vert-adv-y="2457" 
d="M626 1300q23 0 33 -6q5 -3 12 -17q10 -16 15 -33q5 -19 42 -84q23 -39 62 -86q32 -40 32 -47q0 -12 -11 -19q-15 -10 -30 -10q-35 0 -61 22q-50 42 -96 102q-60 81 -60 125q0 23 26 40q20 13 36 13zM260 304q-33 -69 -33 -126q0 -88 85 -88q128 0 279 142q22 20 35 20
q20 0 20 -30q0 -40 -74 -106q-136 -122 -273 -122q-50 0 -92 24q-43 24 -69 69q-27 48 -27 95q0 139 159 353q101 137 214 228q95 76 158 76q55 0 87 -34q29 -32 29 -88q0 -110 -122 -258q-113 -136 -224 -161q-30 -6 -69 -6q-34 0 -83 12zM308 395q25 -6 50 -6q90 0 167 82
q136 144 136 227q0 47 -37 47q-46 0 -143 -113q-91 -106 -173 -237z" />
    <glyph glyph-name="eacute" unicode="&#xe9;" horiz-adv-x="606" vert-adv-y="2457" 
d="M895 1250q20 0 37 -17q24 -24 24 -44q0 -50 -113 -107q-110 -56 -152 -56q-6 0 -40 10q-14 13 -18 16q-9 8 -9 25q0 9 22 19l29 16q52 24 72 37q10 6 67 44l26 23q17 15 23 21q13 13 32 13zM260 304q-33 -69 -33 -126q0 -88 85 -88q128 0 279 142q22 20 35 20
q20 0 20 -30q0 -40 -74 -106q-136 -122 -273 -122q-50 0 -92 24q-43 24 -69 69q-27 48 -27 95q0 139 159 353q101 137 214 228q95 76 158 76q55 0 87 -34q29 -32 29 -88q0 -110 -122 -258q-113 -136 -224 -161q-30 -6 -69 -6q-34 0 -83 12zM308 395q25 -6 50 -6q90 0 167 82
q136 144 136 227q0 47 -37 47q-46 0 -143 -113q-91 -106 -173 -237z" />
    <glyph glyph-name="ecircumflex" unicode="&#xea;" horiz-adv-x="606" vert-adv-y="2457" 
d="M746 1087q-13 -7 -49 -30q-14 -8 -71 -29q-47 -20 -78 -20q-29 0 -43 11q-16 12 -16 25q0 9 11 18q13 14 40 25q7 3 88 59l39 35l40 34q24 24 29 26q20 9 45 9q17 0 42 -13q17 -8 25 -51q9 -52 39 -108q19 -37 21 -41q8 -18 14 -24q10 -9 10 -26q0 -19 -22 -19
q-35 0 -61 16q-24 14 -54 44q-25 23 -29 31q-17 30 -20 28zM260 304q-33 -69 -33 -126q0 -88 85 -88q128 0 279 142q22 20 35 20q20 0 20 -30q0 -40 -74 -106q-136 -122 -273 -122q-50 0 -92 24q-43 24 -69 69q-27 48 -27 95q0 139 159 353q101 137 214 228q95 76 158 76
q55 0 87 -34q29 -32 29 -88q0 -110 -122 -258q-113 -136 -224 -161q-30 -6 -69 -6q-34 0 -83 12zM308 395q25 -6 50 -6q90 0 167 82q136 144 136 227q0 47 -37 47q-46 0 -143 -113q-91 -106 -173 -237z" />
    <glyph glyph-name="edieresis" unicode="&#xeb;" horiz-adv-x="606" vert-adv-y="2457" 
d="M913 1180q29 0 50 -28q22 -28 22 -49q0 -30 -30 -62q-36 -38 -73 -38q-30 0 -55 17q-31 20 -31 55q0 45 46 79q35 26 71 26zM666 1194q18 0 41 -17q27 -20 27 -53q0 -43 -27 -68q-39 -37 -75 -37q-30 0 -53 16q-33 21 -33 64q0 35 44 70q31 25 76 25zM260 304
q-33 -69 -33 -126q0 -88 85 -88q128 0 279 142q22 20 35 20q20 0 20 -30q0 -40 -74 -106q-136 -122 -273 -122q-50 0 -92 24q-43 24 -69 69q-27 48 -27 95q0 139 159 353q101 137 214 228q95 76 158 76q55 0 87 -34q29 -32 29 -88q0 -110 -122 -258q-113 -136 -224 -161
q-30 -6 -69 -6q-34 0 -83 12zM308 395q25 -6 50 -6q90 0 167 82q136 144 136 227q0 47 -37 47q-46 0 -143 -113q-91 -106 -173 -237z" />
    <glyph glyph-name="igrave" unicode="&#xec;" horiz-adv-x="318" vert-adv-y="2457" 
d="M412 1300q22 0 33 -6q4 -3 12 -17q10 -16 14 -33q5 -18 43 -84q22 -39 62 -86q32 -40 32 -47q0 -12 -11 -19q-16 -10 -30 -10q-35 0 -62 22q-50 42 -96 102q-36 49 -54 99q-6 16 -6 26q0 23 26 40q20 13 37 13zM415 839q28 2 54 -22q23 -20 23 -44q0 -22 -36 -82
q-25 -41 -118 -236q-121 -254 -121 -373q0 -19 3 -45q2 -14 2 -18q0 -25 -25 -25q-20 0 -38 13q-43 30 -43 108q0 96 65 261q72 182 150 319q37 66 45 95q15 48 39 49z" />
    <glyph glyph-name="iacute" unicode="&#xed;" horiz-adv-x="318" vert-adv-y="2457" 
d="M668 1250q20 0 37 -17q24 -23 24 -44q0 -50 -113 -106q-110 -56 -151 -56q-6 0 -40 10q-14 13 -18 16q-9 8 -9 25q0 9 22 19l29 15q100 48 164 104q17 15 23 21q14 13 32 13zM415 839q28 2 54 -22q23 -20 23 -44q0 -22 -36 -82q-25 -41 -118 -236q-121 -254 -121 -373
q0 -19 3 -45q2 -14 2 -18q0 -25 -25 -25q-20 0 -38 13q-43 30 -43 108q0 96 65 261q72 182 150 319q37 66 45 95q15 48 39 49z" />
    <glyph glyph-name="icircumflex" unicode="&#xee;" horiz-adv-x="318" vert-adv-y="2457" 
d="M535 1088q-12 -7 -48 -30q-16 -9 -71 -29q-47 -20 -79 -20q-29 0 -42 11q-17 12 -17 24q0 10 12 19q12 14 39 25q8 3 89 59l39 34l39 34q25 24 30 26q20 9 44 9q17 0 43 -13q17 -8 25 -51q9 -52 39 -108q19 -37 21 -40q8 -18 14 -24q10 -9 10 -26q0 -19 -22 -19
q-35 0 -61 16q-23 13 -54 44q-25 23 -29 31q-18 29 -21 28zM415 839q28 2 54 -22q23 -20 23 -44q0 -22 -36 -82q-25 -41 -118 -236q-121 -254 -121 -373q0 -19 3 -45q2 -14 2 -18q0 -25 -25 -25q-20 0 -38 13q-43 30 -43 108q0 96 65 261q72 182 150 319q37 66 45 95
q15 48 39 49z" />
    <glyph glyph-name="idieresis" unicode="&#xef;" horiz-adv-x="318" vert-adv-y="2457" 
d="M693 1176q29 0 50 -28q22 -28 22 -49q0 -29 -31 -61q-35 -38 -72 -38q-30 0 -55 17q-31 19 -31 55q0 44 46 78q35 26 71 26zM446 1190q18 0 41 -17q27 -20 27 -52q0 -44 -27 -69q-39 -37 -75 -37q-30 0 -53 16q-33 21 -33 64q0 35 44 70q32 25 76 25zM415 839
q28 2 54 -22q23 -20 23 -44q0 -22 -36 -82q-25 -41 -118 -236q-121 -254 -121 -373q0 -19 3 -45q2 -14 2 -18q0 -25 -25 -25q-20 0 -38 13q-43 30 -43 108q0 96 65 261q72 182 150 319q37 66 45 95q15 48 39 49z" />
    <glyph glyph-name="eth" unicode="&#xf0;" horiz-adv-x="594" vert-adv-y="2457" 
d="M840 1069q1 -19 1 -24q0 -252 -97 -533q-90 -260 -220 -392q-124 -127 -240 -127q-97 0 -139 86q-20 41 -20 94q0 133 82 281q60 109 136 186q50 51 101 66q1 33 29 69q53 67 126 67q58 0 103 -51q21 133 21 261q-57 -6 -93 -6q-130 0 -130 65q0 26 13 41q9 12 21 12
q9 0 23 -5q40 -15 103 -15q18 0 59 2q-3 38 -10 71q-5 22 -68 215q-2 7 -2 13q0 29 53 29q61 0 89 -27q20 -19 36 -95q17 -74 22 -198q109 10 190 40q17 6 26 6q22 0 22 -16q0 -24 -24 -40q-75 -48 -213 -75zM513 689q0 -22 -25 -42q-72 -57 -139 -166q-102 -169 -102 -302
q0 -88 60 -88q89 0 205 163q131 185 131 346q0 66 -19 111q-16 38 -48 38t-44 -24q-14 -28 -19 -36z" />
    <glyph glyph-name="ntilde" unicode="&#xf1;" horiz-adv-x="745" vert-adv-y="2457" 
d="M604 1138q-40 0 -68 -19q-45 -30 -52 -37q-10 -10 -21 -10q-37 0 -37 31q0 48 56 93q45 36 87 47q27 7 72 7q64 0 127 -70q35 -40 65 -40q7 0 22 6q32 12 62 36q18 15 36 15q10 0 18 -9q13 -14 13 -36q0 -35 -43 -70q-65 -55 -120 -55q-25 0 -73 19q-21 8 -62 48
q-46 44 -82 44zM266 306q52 39 148 131q141 133 259 267q81 90 95 101t29 11q22 0 39 -26q19 -29 19 -73q0 -28 -31 -102q-120 -283 -120 -466q0 -79 46 -141q16 -22 16 -34q0 -24 -36 -24q-39 0 -80 40q-54 52 -54 174q0 150 98 430q-22 -23 -61 -63q-24 -26 -78 -81
q-342 -344 -380 -412q-24 -43 -28 -47q-7 -5 -17 -5q-34 0 -56 32q-20 28 -20 68q0 44 217 476q74 147 82 175q5 17 7 41q6 57 44 57q32 0 60 -34q21 -24 21 -50q0 -39 -112 -235q-74 -129 -107 -210z" />
    <glyph glyph-name="ograve" unicode="&#xf2;" horiz-adv-x="656" vert-adv-y="2457" 
d="M540 1300q23 0 34 -6q4 -3 11 -17q10 -16 15 -33q4 -19 42 -84q23 -40 62 -86q32 -40 32 -47q0 -12 -11 -19q-15 -10 -30 -10q-35 0 -62 22q-49 41 -95 103q-60 79 -60 124q0 23 26 40q20 13 36 13zM445 706q0 32 29 69q53 67 127 67q83 0 125 -85q28 -59 28 -133
q0 -81 -37 -186q-72 -208 -219 -345q-108 -100 -213 -100q-97 0 -139 86q-20 41 -20 95q0 132 82 280q60 110 136 186q49 50 101 66zM514 689q0 -22 -25 -42q-72 -56 -139 -166q-102 -169 -102 -303q0 -86 60 -86q89 0 205 163q131 184 131 345q0 66 -19 111q-16 38 -48 38
t-44 -24q-14 -28 -19 -36z" />
    <glyph glyph-name="oacute" unicode="&#xf3;" horiz-adv-x="656" vert-adv-y="2457" 
d="M879 1250q20 0 37 -17q24 -24 24 -44q0 -50 -113 -107q-110 -56 -151 -56q-6 0 -40 10q-14 13 -18 16q-9 9 -9 25q0 9 22 19l29 16q52 24 72 37l66 44l26 23q17 16 23 21q13 13 32 13zM445 706q0 32 29 69q53 67 127 67q83 0 125 -85q28 -59 28 -133q0 -81 -37 -186
q-72 -208 -219 -345q-108 -100 -213 -100q-97 0 -139 86q-20 41 -20 95q0 132 82 280q60 110 136 186q49 50 101 66zM514 689q0 -22 -25 -42q-72 -56 -139 -166q-102 -169 -102 -303q0 -86 60 -86q89 0 205 163q131 184 131 345q0 66 -19 111q-16 38 -48 38t-44 -24
q-14 -28 -19 -36z" />
    <glyph glyph-name="ocircumflex" unicode="&#xf4;" horiz-adv-x="656" vert-adv-y="2457" 
d="M713 1088q-12 -7 -49 -30q-15 -9 -70 -29q-48 -20 -79 -20q-29 0 -43 11q-16 12 -16 24q0 10 11 19q13 14 40 25q8 3 89 59l39 34l39 34q25 24 30 26q19 9 44 9q18 0 43 -12q17 -8 25 -52q9 -52 39 -108q19 -36 21 -40q8 -18 14 -24q10 -9 10 -26q0 -19 -22 -19
q-35 0 -61 16q-24 13 -54 43q-25 24 -30 32q-17 29 -20 28zM445 706q0 32 29 69q53 67 127 67q83 0 125 -85q28 -59 28 -133q0 -81 -37 -186q-72 -208 -219 -345q-108 -100 -213 -100q-97 0 -139 86q-20 41 -20 95q0 132 82 280q60 110 136 186q49 50 101 66zM514 689
q0 -22 -25 -42q-72 -56 -139 -166q-102 -169 -102 -303q0 -86 60 -86q89 0 205 163q131 184 131 345q0 66 -19 111q-16 38 -48 38t-44 -24q-14 -28 -19 -36z" />
    <glyph glyph-name="otilde" unicode="&#xf5;" horiz-adv-x="656" vert-adv-y="2457" 
d="M590 1138q-39 0 -68 -19q-44 -31 -51 -37q-10 -10 -22 -10q-36 0 -36 31q0 48 56 93q45 36 86 47q27 7 72 7q64 0 127 -70q36 -40 66 -40q6 0 22 6q31 12 61 36q18 15 36 15q10 0 18 -9q13 -14 13 -36q0 -35 -42 -70q-66 -55 -121 -55q-24 0 -72 19q-22 8 -63 48
q-45 44 -82 44zM445 706q0 32 29 69q53 67 127 67q83 0 125 -85q28 -59 28 -133q0 -81 -37 -186q-72 -208 -219 -345q-108 -100 -213 -100q-97 0 -139 86q-20 41 -20 95q0 132 82 280q60 110 136 186q49 50 101 66zM514 689q0 -22 -25 -42q-72 -56 -139 -166
q-102 -169 -102 -303q0 -86 60 -86q89 0 205 163q131 184 131 345q0 66 -19 111q-16 38 -48 38t-44 -24q-14 -28 -19 -36z" />
    <glyph glyph-name="odieresis" unicode="&#xf6;" horiz-adv-x="656" vert-adv-y="2457" 
d="M777 1137q-14 -12 -62 -68q-32 -37 -36 -53q-5 -21 -33 -21q-55 0 -55 52q0 37 72 100q65 55 98 55q15 0 28 -12q8 -8 8 -16q0 -6 -7 -19.5t-13 -17.5zM877 1149q16 0 27 -7q19 -11 19 -20q1 -16 -24 -34q-10 -8 -32 -33q-29 -28 -49 -65q-15 -26 -18 -28
q-18 -12 -40 -12q-15 0 -27 13q-15 16 -15 34q0 28 54 84q51 53 79 63q14 5 26 5zM445 706q0 32 29 69q53 67 127 67q83 0 125 -85q28 -59 28 -133q0 -81 -37 -186q-72 -208 -219 -345q-108 -100 -213 -100q-97 0 -139 86q-20 41 -20 95q0 132 82 280q60 110 136 186
q49 50 101 66zM514 689q0 -22 -25 -42q-72 -56 -139 -166q-102 -169 -102 -303q0 -86 60 -86q89 0 205 163q131 184 131 345q0 66 -19 111q-16 38 -48 38t-44 -24q-14 -28 -19 -36z" />
    <glyph glyph-name="divide" unicode="&#xf7;" horiz-adv-x="564" vert-adv-y="2457" 
d="M685 483q19 0 19 -18q0 -27 -30 -47q-43 -29 -130 -52q-106 -28 -207 -28q-147 0 -147 63q0 24 11 39q10 13 23 13q3 0 14 -3q1 0 9 -2q6 -2 15 -4q39 -11 103 -11q133 0 294 45q16 5 26 5zM418 281q49 0 81 -27q24 -20 24 -43q0 -41 -75 -41q-42 0 -72 16q-22 11 -22 36
q0 24 16 41q18 18 48 18zM469 614q30 0 46 -11q19 -12 19 -30q0 -23 -33 -45q-40 -27 -79 -27q-46 0 -46 48q0 23 20 41q27 24 73 24z" />
    <glyph glyph-name="oslash" unicode="&#xf8;" horiz-adv-x="660" vert-adv-y="2457" 
d="M748 706q50 39 69 56q22 21 24 22q17 15 21 20q8 11 26 11q11 0 20 -16q10 -17 10 -36q0 -37 -36 -66q-35 -28 -121 -86l-3 -2q-8 -138 -89 -292q-85 -163 -202 -254q-92 -70 -178 -70q-95 0 -138 86q-9 17 -15 41l-15 -12q-55 -55 -66 -73q-17 -26 -38 -26q-12 0 -19 10
q-7 12 -7 20q0 45 142 176q25 212 197 405q61 68 120 86q0 33 28 69q53 67 127 67q107 0 143 -136zM289 346l358 283q-12 120 -66 120q-32 0 -44 -24q-14 -30 -19 -36q1 -4 1 -7q0 -15 -25 -35q-59 -46 -115 -129q-56 -82 -90 -172zM255 214q-2 -23 -2 -35q0 -87 61 -87
q88 0 204 163q97 137 122 261z" />
    <glyph glyph-name="ugrave" unicode="&#xf9;" horiz-adv-x="828" vert-adv-y="2457" 
d="M551 1300q23 0 34 -6q4 -3 11 -17q10 -16 15 -33q5 -19 42 -84q24 -40 62 -86q32 -40 32 -47q0 -12 -11 -19q-15 -10 -30 -10q-35 0 -61 22q-50 41 -96 102q-36 49 -54 99q-6 15 -6 26q0 23 26 40q20 13 36 13zM647 407q-155 -196 -213 -262q-133 -151 -213 -151
q-93 0 -93 122q0 119 85 334q16 39 126 265q53 111 78 126q11 7 26 7q24 0 45 -17q18 -15 18 -36q0 -10 -7 -22q-67 -110 -139 -261q-119 -249 -119 -346q0 -42 22 -42t82 60q97 96 218 254q129 170 180 254q74 125 82 133q8 9 23 9q26 0 51 -25q24 -24 24 -51
q0 -21 -49 -100q-68 -109 -113 -266q-31 -105 -31 -178q0 -111 65 -175q13 -13 13 -26q0 -15 -10 -23q-13 -10 -28 -10q-22 0 -42 16q-104 83 -104 249q0 63 23 162z" />
    <glyph glyph-name="uacute" unicode="&#xfa;" horiz-adv-x="828" vert-adv-y="2457" 
d="M857 1250q20 0 37 -17q24 -24 24 -44q0 -49 -113 -106q-110 -56 -151 -56q-6 0 -40 10q-14 13 -18 16q-9 8 -9 25q0 9 22 19l29 15q51 25 72 38q9 6 67 44l25 22q17 16 23 21q13 13 32 13zM647 407q-155 -196 -213 -262q-133 -151 -213 -151q-93 0 -93 122q0 119 85 334
q16 39 126 265q53 111 78 126q11 7 26 7q24 0 45 -17q18 -15 18 -36q0 -10 -7 -22q-67 -110 -139 -261q-119 -249 -119 -346q0 -42 22 -42t82 60q97 96 218 254q129 170 180 254q74 125 82 133q8 9 23 9q26 0 51 -25q24 -24 24 -51q0 -21 -49 -100q-68 -109 -113 -266
q-31 -105 -31 -178q0 -111 65 -175q13 -13 13 -26q0 -15 -10 -23q-13 -10 -28 -10q-22 0 -42 16q-104 83 -104 249q0 63 23 162z" />
    <glyph glyph-name="ucircumflex" unicode="&#xfb;" horiz-adv-x="828" vert-adv-y="2457" 
d="M770 1087q-12 -7 -49 -30q-16 -9 -70 -29q-48 -20 -79 -20q-29 0 -42 11q-17 12 -17 25q0 9 11 18q13 14 40 25q8 4 88 60l39 34l40 34q24 24 29 26q21 9 45 9q16 0 42 -13q17 -8 25 -51q9 -51 39 -109q19 -37 21 -40q8 -18 14 -24q10 -9 10 -26q0 -19 -22 -19
q-35 0 -61 16q-23 13 -54 44q-24 23 -29 31q-17 30 -20 28zM647 407q-155 -196 -213 -262q-133 -151 -213 -151q-93 0 -93 122q0 119 85 334q16 39 126 265q53 111 78 126q11 7 26 7q24 0 45 -17q18 -15 18 -36q0 -10 -7 -22q-67 -110 -139 -261q-119 -249 -119 -346
q0 -42 22 -42t82 60q97 96 218 254q129 170 180 254q74 125 82 133q8 9 23 9q26 0 51 -25q24 -24 24 -51q0 -21 -49 -100q-68 -109 -113 -266q-31 -105 -31 -178q0 -111 65 -175q13 -13 13 -26q0 -15 -10 -23q-13 -10 -28 -10q-22 0 -42 16q-104 83 -104 249q0 63 23 162z
" />
    <glyph glyph-name="udieresis" unicode="&#xfc;" horiz-adv-x="828" vert-adv-y="2457" 
d="M790 1250q35 0 35 -26q0 -18 -48 -69q-59 -61 -68 -90q-6 -21 -38 -21q-50 0 -50 53q0 36 72 99q62 54 97 54zM908 1197q45 0 45 -30q0 -13 -36 -42q-44 -36 -75 -98q-13 -27 -49 -27q-18 0 -31 13t-13 31q0 29 52 86q61 67 107 67zM647 407q-155 -196 -213 -262
q-133 -151 -213 -151q-93 0 -93 122q0 119 85 334q16 39 126 265q53 111 78 126q11 7 26 7q24 0 45 -17q18 -15 18 -36q0 -10 -7 -22q-67 -110 -139 -261q-119 -249 -119 -346q0 -42 22 -42t82 60q97 96 218 254q129 170 180 254q74 125 82 133q8 9 23 9q26 0 51 -25
q24 -24 24 -51q0 -21 -49 -100q-68 -109 -113 -266q-31 -105 -31 -178q0 -111 65 -175q13 -13 13 -26q0 -15 -10 -23q-13 -10 -28 -10q-22 0 -42 16q-104 83 -104 249q0 63 23 162z" />
    <glyph glyph-name="yacute" unicode="&#xfd;" horiz-adv-x="728" vert-adv-y="2457" 
d="M937 1250q19 0 37 -17q24 -24 24 -44q0 -50 -113 -106q-111 -56 -152 -56q-6 0 -40 10q-14 13 -18 16q-9 8 -9 25q0 9 22 19l29 15q101 48 165 105q17 15 23 20q13 13 32 13zM700 372q-397 -379 -512 -379q-45 0 -73 34q-25 30 -25 89q0 85 61 196q49 90 187 283
q119 169 145 230q9 23 27 23q26 0 46 -24q17 -22 17 -43q0 -25 -28 -64q-33 -48 -193 -298q-138 -215 -138 -271q0 -35 24 -35q31 0 204 149q170 148 312 305q42 47 138 176q11 14 23 14q13 0 25 -14q29 -34 29 -75q0 -25 -10 -46q-14 -29 -71 -124q-29 -49 -157 -355
q-56 -133 -135 -303q-34 -72 -156 -301q-187 -352 -371 -491q-34 -26 -83 -26q-51 0 -80 44q-25 37 -25 92q0 137 136 342q117 177 212 258q28 23 50 23q18 0 18 -13q0 -6 -47 -63q-41 -51 -112 -167q-161 -264 -161 -378q0 -35 30 -35q37 0 109 90q159 196 413 737
q69 146 149 366q4 11 22 54z" />
    <glyph glyph-name="thorn" unicode="&#xfe;" horiz-adv-x="638" vert-adv-y="2457" 
d="M332 492q59 90 125 157q139 144 233 144q59 0 92 -56q21 -37 21 -92q0 -132 -66 -271q-79 -169 -215 -277q-129 -103 -236 -103q-61 0 -104 45q-11 11 -17 22q-84 -165 -162 -360q-84 -211 -111 -320q-6 -25 -22 -25q-13 0 -29 17q-28 28 -28 70q0 90 230 621
q96 224 186 450q162 406 231 558q105 234 121 291q11 38 17 45q10 12 28 12q16 0 37 -14q40 -26 40 -59q0 -16 -34 -79q-107 -195 -318 -727q-10 -26 -19 -49zM239 181q15 -93 74 -93t141 70q128 110 201 282q44 102 44 175q0 45 -16 74q-6 11 -15 11q-35 0 -149 -119
q-102 -106 -184 -228q-29 -44 -57 -95q-40 -72 -39 -77z" />
    <glyph glyph-name="ydieresis" unicode="&#xff;" horiz-adv-x="728" vert-adv-y="2457" 
d="M930 1183q29 0 50 -28q22 -28 22 -49q0 -30 -31 -62q-35 -38 -72 -38q-30 0 -55 17q-31 20 -31 55q0 45 46 79q35 26 71 26zM683 1197q18 0 41 -17q27 -20 27 -53q0 -43 -27 -68q-39 -37 -75 -37q-29 0 -53 16q-33 21 -33 64q0 35 44 70q31 25 76 25zM700 372
q-397 -379 -512 -379q-45 0 -73 34q-25 30 -25 89q0 85 61 196q49 90 187 283q119 169 145 230q9 23 27 23q26 0 46 -24q17 -22 17 -43q0 -25 -28 -64q-33 -48 -193 -298q-138 -215 -138 -271q0 -35 24 -35q31 0 204 149q170 148 312 305q42 47 138 176q11 14 23 14
q13 0 25 -14q29 -34 29 -75q0 -25 -10 -46q-14 -29 -71 -124q-29 -49 -157 -355q-56 -133 -135 -303q-34 -72 -156 -301q-187 -352 -371 -491q-34 -26 -83 -26q-51 0 -80 44q-25 37 -25 92q0 137 136 342q117 177 212 258q28 23 50 23q18 0 18 -13q0 -6 -47 -63
q-41 -51 -112 -167q-161 -264 -161 -378q0 -35 30 -35q37 0 109 90q159 196 413 737q69 146 149 366q4 11 22 54z" />
    <glyph glyph-name="Amacron" unicode="&#x100;" horiz-adv-x="1019" vert-adv-y="2457" 
d="M335 477l-115 -13q-39 -5 -48 -5q-30 0 -48 18q-21 23 -21 55q0 28 20 28h8q34 -4 48 -4q46 0 186 24l49 8l70 97q131 180 206 281q285 387 317 448q17 33 33 33q36 0 77 -37q27 -25 27 -49q0 -19 -28 -96q-23 -64 -111 -389q-27 -100 -41 -159l63 18l22 7q46 14 56 14
q18 0 18 -16q0 -35 -80 -64l-98 -36q-94 -420 -94 -618q0 -17 1 -29q4 -58 4 -63q0 -30 -27 -30q-68 0 -68 270q0 164 56 429q-147 -47 -339 -91q-250 -373 -304 -495q-8 -21 -24 -21q-29 0 -53 22q-29 26 -29 51q0 20 32 64q6 8 45 70q46 74 190 278zM836 682
q61 249 146 530q-139 -173 -432 -597q182 39 286 67zM971 1708q9 0 22 -5q34 -13 95 -13q106 0 232 33q17 5 30 5q21 0 21 -16q0 -21 -25 -38q-67 -44 -172 -65q-63 -13 -125 -13q-112 0 -112 61q0 51 34 51z" />
    <glyph glyph-name="amacron" unicode="&#x101;" horiz-adv-x="760" vert-adv-y="2457" 
d="M532 1131q9 0 22 -5q35 -14 95 -14q106 0 232 33q18 5 30 5q21 0 21 -16q0 -21 -25 -38q-67 -44 -172 -65q-63 -13 -125 -13q-112 0 -112 62q0 51 34 51zM615 300q-90 -115 -171 -195q-114 -112 -200 -112q-88 0 -122 79q-17 39 -17 87q0 124 144 324q156 217 302 316
q91 62 157 62q75 0 117 -58q25 -35 25 -84q0 -77 -39 -96q8 -18 8 -30q0 -14 -22 -70q-82 -217 -82 -369q0 -58 25 -109q14 -28 14 -42q0 -34 -34 -34q-30 0 -60 30q-57 59 -57 194q0 49 12 107zM757 669v3v5q0 2 1 10q1 4 1 10q0 19 -9 33q-15 26 -48 26q-68 0 -178 -109
q-78 -77 -156 -188q-142 -200 -142 -307q0 -43 41 -43q35 0 116 71q123 109 230 269q54 82 67 119l28 79q9 26 32 26q7 0 17 -4z" />
    <glyph glyph-name="Abreve" unicode="&#x102;" horiz-adv-x="1019" vert-adv-y="2457" 
d="M1005 1820q33 0 51 -9q27 -14 65 -51q31 -29 63 -29q31 0 67 15q75 30 91 32q14 2 27 2q29 0 43 -11q16 -12 16 -27q0 -10 -12 -21q-4 -3 -78 -45q-23 -13 -50 -34q-40 -33 -58 -44q-23 -14 -55 -14q-38 0 -64 24q-37 33 -103 143q-12 20 -14 24q-10 16 -10 25
q0 20 21 20zM362 477l-115 -13q-39 -5 -48 -5q-30 0 -48 18q-21 23 -21 55q0 28 20 28h8q34 -4 48 -4q46 0 186 24l49 8l70 97q131 180 206 281q285 387 317 448q17 33 33 33q36 0 77 -37q27 -25 27 -49q0 -19 -28 -96q-23 -64 -111 -389q-27 -100 -41 -159l63 18l22 7
q46 14 56 14q18 0 18 -16q0 -35 -80 -64l-98 -36q-94 -420 -94 -618q0 -17 1 -29q4 -58 4 -63q0 -30 -27 -30q-68 0 -68 270q0 164 56 429q-147 -47 -339 -91q-250 -373 -304 -495q-8 -21 -24 -21q-29 0 -53 22q-29 26 -29 51q0 20 32 64q6 8 45 70q46 74 190 278zM863 682
q61 249 146 530q-139 -173 -432 -597q182 39 286 67z" />
    <glyph glyph-name="abreve" unicode="&#x103;" horiz-adv-x="760" vert-adv-y="2457" 
d="M610 1240q33 0 51 -9q27 -14 65 -51q30 -29 63 -29q31 0 67 15q75 30 91 32q14 2 27 2q29 0 43 -10q16 -13 16 -28q0 -10 -12 -20q-4 -4 -78 -46q-23 -13 -50 -34q-40 -33 -58 -44q-23 -14 -55 -14q-49 0 -91 52q-26 33 -87 134q-13 22 -13 30q0 20 21 20zM615 300
q-90 -115 -171 -195q-114 -112 -200 -112q-88 0 -122 79q-17 39 -17 87q0 124 144 324q156 217 302 316q91 62 157 62q75 0 117 -58q25 -35 25 -84q0 -77 -39 -96q8 -18 8 -30q0 -14 -22 -70q-82 -217 -82 -369q0 -58 25 -109q14 -28 14 -42q0 -34 -34 -34q-30 0 -60 30
q-57 59 -57 194q0 49 12 107zM757 669v3v5q0 2 1 10q1 4 1 10q0 19 -9 33q-15 26 -48 26q-68 0 -178 -109q-78 -77 -156 -188q-142 -200 -142 -307q0 -43 41 -43q35 0 116 71q123 109 230 269q54 82 67 119l28 79q9 26 32 26q7 0 17 -4z" />
    <glyph glyph-name="Aogonek" unicode="&#x104;" horiz-adv-x="1019" vert-adv-y="2457" 
d="M972 640q-92 -410 -92 -561q0 -28 5 -86q-21 -56 -21 -94q0 -53 51 -95q22 -17 79 -39q14 -5 14 -19q0 -35 -61 -35q-44 0 -86 24q-43 24 -67 73q-21 43 -21 78q0 40 25 112h2q-12 69 -12 167q0 167 56 434q-147 -47 -339 -91q-250 -373 -304 -495q-8 -21 -23 -21
q-30 0 -54 22q-29 26 -29 51q0 20 32 64q6 8 45 70q46 74 190 278l-115 -13q-39 -5 -46 -5q-32 0 -50 18q-21 23 -21 55q0 28 20 28h8q33 -4 47 -4q47 0 187 24l49 8l70 97q131 180 206 281q285 387 317 448q17 33 32 33q37 0 78 -37q27 -25 27 -48q0 -20 -28 -97
q-23 -64 -111 -389q-27 -100 -41 -159l63 18l22 7q46 14 55 14q19 0 19 -16q0 -35 -80 -64zM863 682q61 249 146 530q-139 -173 -432 -597q182 39 286 67z" />
    <glyph glyph-name="aogonek" unicode="&#x105;" horiz-adv-x="760" vert-adv-y="2457" 
d="M655 5q-52 60 -52 188q0 49 12 107q-90 -115 -171 -195q-114 -112 -200 -112q-88 0 -122 79q-17 39 -17 87q0 124 144 324q156 217 302 316q91 62 157 62q75 0 117 -58q25 -35 25 -83q0 -78 -39 -97q8 -18 8 -30q0 -14 -22 -70q-82 -217 -82 -369q0 -59 25 -110
q14 -27 14 -41q0 -15 -22 -40q-44 -53 -44 -102q0 -41 29 -70q20 -21 86 -49q16 -6 16 -23q0 -35 -61 -35q-44 0 -85 24q-42 24 -68 74q-20 40 -20 82q0 75 70 141zM757 669v3v5q0 2 1 10q1 4 1 10q0 19 -9 33q-15 26 -48 26q-68 0 -178 -109q-78 -77 -156 -188
q-142 -200 -142 -306q0 -44 40 -44q46 0 162 114q107 105 203 254q39 61 49 91l28 79q9 26 32 26q7 0 17 -4z" />
    <glyph glyph-name="Cacute" unicode="&#x106;" horiz-adv-x="1022" vert-adv-y="2457" 
d="M1216 1810q20 0 37 -17q24 -24 24 -44q0 -49 -113 -106q-109 -56 -151 -56q-6 0 -40 10q-14 13 -18 16q-9 8 -9 25q0 9 22 19l29 15q52 25 72 38q9 5 66 44q44 38 45 39q17 17 36 17zM1015 1437q69 -8 107 -59q36 -47 36 -115q0 -74 -33 -109q-16 -17 -36 -17
q-26 0 -26 30q0 11 3 31q3 17 3 33q0 44 -23 71q-22 26 -51 26q-93 0 -263 -191q-213 -239 -342 -546q-78 -187 -78 -327q0 -171 102 -171q133 0 337 147q142 102 240 219q24 29 38 29q20 0 20 -29q0 -83 -161 -235q-121 -113 -259 -179q-108 -52 -189 -52q-151 0 -212 125
q-39 79 -39 175q0 189 161 493q128 243 308 438q213 230 357 213z" />
    <glyph glyph-name="cacute" unicode="&#x107;" horiz-adv-x="588" vert-adv-y="2457" 
d="M926 1250q20 0 37 -17q24 -24 24 -44q0 -50 -113 -107q-110 -56 -151 -56q-6 0 -40 10q-14 13 -18 16q-9 8 -9 25q0 9 22 19l29 16q100 47 164 104q18 16 23 21q13 13 32 13zM665 735q-73 0 -216 -177q-203 -251 -203 -390q0 -35 23 -60q17 -20 56 -20q114 0 248 111
q21 17 32 17q17 0 17 -28q0 -23 -11 -39q-43 -60 -123 -110q-85 -52 -166 -52q-80 0 -133 53q-58 59 -58 136q0 128 139 324q96 137 219 240q110 93 181 93q88 0 88 -69q0 -53 -32 -53q-10 0 -27 15q-11 9 -34 9z" />
    <glyph glyph-name="Ccaron" unicode="&#x10c;" horiz-adv-x="1022" vert-adv-y="2457" 
d="M1094 1751q12 7 49 30q15 9 71 29q47 20 79 20q29 0 42 -11q17 -13 17 -24q0 -10 -12 -19q-12 -14 -39 -25q-9 -3 -89 -59l-39 -34l-39 -34q-25 -24 -30 -26q-20 -9 -44 -9q-17 0 -43 13q-17 8 -25 51q-9 51 -39 108q-19 37 -21 40q-8 18 -14 24q-10 9 -10 26q0 19 22 19
q35 0 61 -16q23 -13 54 -44q25 -23 29 -31q17 -30 20 -28zM1015 1437q69 -8 107 -59q36 -47 36 -115q0 -74 -33 -109q-16 -17 -36 -17q-26 0 -26 30q0 11 3 31q3 17 3 33q0 44 -23 71q-22 26 -51 26q-93 0 -263 -191q-213 -239 -342 -546q-78 -187 -78 -327q0 -171 102 -171
q133 0 337 147q142 102 240 219q24 29 38 29q20 0 20 -29q0 -83 -161 -235q-121 -113 -259 -179q-108 -52 -189 -52q-151 0 -212 125q-39 79 -39 175q0 189 161 493q128 243 308 438q213 230 357 213z" />
    <glyph glyph-name="ccaron" unicode="&#x10d;" horiz-adv-x="588" vert-adv-y="2457" 
d="M786 1183q12 7 48 30q15 9 71 29q48 20 79 20q29 0 42 -11q17 -12 17 -25q0 -9 -11 -18q-13 -14 -40 -25q-8 -3 -89 -59l-39 -35l-39 -34q-25 -24 -30 -26q-20 -9 -44 -9q-17 0 -43 13q-17 8 -25 51q-9 52 -39 108q-19 38 -21 41q-8 18 -14 24q-10 9 -10 26q0 19 22 19
q35 0 61 -16q23 -13 54 -44q25 -23 29 -31q17 -30 21 -28zM665 735q-73 0 -216 -177q-203 -251 -203 -390q0 -35 23 -60q17 -20 56 -20q114 0 248 111q21 17 32 17q17 0 17 -28q0 -23 -11 -39q-43 -60 -123 -110q-85 -52 -166 -52q-80 0 -133 53q-58 59 -58 136
q0 128 139 324q96 137 219 240q110 93 181 93q88 0 88 -69q0 -53 -32 -53q-10 0 -27 15q-11 9 -34 9z" />
    <glyph glyph-name="Dcaron" unicode="&#x10e;" horiz-adv-x="1302" vert-adv-y="2457" 
d="M1336 1756q12 7 48 30q14 9 71 29q47 20 79 20q29 0 42 -11q17 -12 17 -24q0 -10 -12 -19q-12 -14 -39 -25q-8 -3 -89 -59l-39 -34l-39 -34q-25 -24 -30 -26q-20 -9 -44 -9q-17 0 -43 13q-17 8 -25 51q-9 52 -39 108q-20 37 -21 40q-8 18 -14 24q-10 9 -10 26q0 19 22 19
q35 0 61 -16q23 -13 54 -44q25 -23 30 -31q17 -30 20 -28zM1134 1484q3 13 5 19q8 37 30 37q19 0 38 -22q20 -22 24 -58q118 -45 182 -102q80 -70 122 -170q36 -84 36 -175q0 -271 -217 -533q-203 -246 -506 -386q-220 -101 -413 -101q-160 0 -247 72q-55 44 -55 100
q0 42 21 42q6 0 10 -3q5 -4 37 -49q46 -66 217 -66q169 0 373 93q201 93 373 245q319 284 319 590q0 122 -72 221q-54 75 -140 111q-24 10 -58 21l-24 -55q-101 -238 -204 -450q-189 -391 -245 -548q-10 -28 -21 -77q-8 -36 -29 -36q-12 0 -21 9q-16 18 -16 50
q0 145 305 803q61 130 108 249q20 49 32 77q-27 2 -46 2q-219 0 -427 -152q-103 -76 -175 -165q-61 -76 -61 -113q0 -35 56 -35h8q13 1 18 1q22 0 22 -12q0 -10 -17 -22q-26 -17 -57 -17q-47 0 -82 20q-38 22 -38 61q0 84 106 213q130 158 323 246q157 72 315 72q38 0 91 -7
z" />
    <glyph glyph-name="dcaron" unicode="&#x10f;" horiz-adv-x="792" vert-adv-y="2457" 
d="M1370 1391q23 0 43 -17q22 -19 21 -42q-4 -70 -121 -205q-39 -46 -64 -59q-20 -11 -44 -11q-34 0 -34 20q0 10 32 48q42 51 86 138q23 47 37 93q11 35 44 35zM736 715q110 244 171 363q98 193 122 268q14 46 26 58q9 9 23 9q22 0 40 -14q27 -21 27 -49q0 -33 -50 -112
q-107 -167 -229 -487q-124 -327 -124 -551q0 -99 24 -156q4 -10 4 -19q0 -29 -30 -29q-54 0 -85 68q-23 49 -23 122t21 198q2 15 7 35q2 13 4 21q-111 -166 -209 -274q-156 -172 -240 -172q-58 0 -87 53q-24 42 -24 99q0 86 62 217q74 158 199 298q157 178 262 178
q51 0 86 -64q14 -23 23 -60zM669 612q-6 46 -15 74q-10 29 -41 29q-40 0 -122 -81q-137 -136 -219 -313q-47 -101 -47 -166q0 -41 25 -41q32 0 89 57q68 69 162 195q63 85 114 163q54 82 54 83z" />
    <glyph glyph-name="Dcroat" unicode="&#x110;" horiz-adv-x="1302" vert-adv-y="2457" 
d="M939 768q-108 -231 -181 -404q-25 -59 -39 -124q-8 -36 -28 -36q-13 0 -22 9q-16 18 -16 48q0 112 163 486l-33 -2q-54 -3 -69 -3q-129 0 -129 65q0 26 12 41q10 12 22 12q9 0 23 -5q41 -15 102 -15q38 0 115 5l50 110q128 286 130 291q47 118 59 146q-27 2 -46 2
q-219 0 -427 -152q-158 -115 -216 -224q-20 -38 -20 -53q0 -36 56 -36h8q13 1 18 1q22 0 22 -12q0 -10 -17 -22q-26 -17 -57 -17q-47 0 -82 20q-38 22 -38 61q0 84 106 213q130 158 323 246q157 72 315 72q38 0 91 -7q3 13 5 19q8 37 30 37q19 0 38 -22q20 -21 24 -58
q118 -45 182 -102q80 -70 122 -170q36 -84 36 -175q0 -270 -217 -533q-203 -246 -506 -386q-220 -101 -413 -101q-160 0 -247 72q-55 44 -55 99q0 43 21 43q6 0 10 -3q5 -4 37 -49q46 -66 217 -66q169 0 373 93q201 93 373 245q319 285 319 590q0 122 -72 221
q-54 75 -140 111q-24 10 -58 21l-24 -55q-113 -265 -207 -457q75 12 131 32q18 6 26 6q22 0 22 -16q0 -62 -222 -112z" />
    <glyph glyph-name="dcroat" unicode="&#x111;" horiz-adv-x="792" vert-adv-y="2457" 
d="M947 1158q63 130 82 188q15 46 26 58q9 9 23 9q22 0 40 -14q27 -21 27 -49q0 -33 -50 -112q-22 -35 -43 -73q99 16 151 35q17 6 26 6q22 0 22 -16q0 -24 -24 -39q-80 -51 -221 -77q-121 -264 -171 -408q-93 -270 -93 -465q0 -100 24 -157q4 -10 4 -19q0 -29 -30 -29
q-54 0 -85 68q-23 49 -23 121q0 74 21 199q2 15 7 35q2 13 4 21q-111 -166 -209 -274q-156 -172 -240 -172q-58 0 -87 53q-24 42 -24 99q0 86 62 217q74 158 199 298q157 178 262 178q51 0 86 -64q14 -23 23 -60l162 343q-25 -2 -45 -3q-36 -2 -48 -2q-130 0 -130 65
q0 26 12 41q10 12 22 12q9 0 23 -5q39 -15 106 -15q41 0 109 7zM669 612q-8 64 -20 85q-11 18 -35 18q-41 0 -123 -82q-137 -135 -219 -312q-47 -101 -47 -165q0 -42 25 -42q32 0 89 57q68 69 162 195q63 85 114 163q54 82 54 83z" />
    <glyph glyph-name="Emacron" unicode="&#x112;" horiz-adv-x="971" vert-adv-y="2457" 
d="M669 1412l3 12l3 18q7 46 35 46q36 0 52 -59q124 17 209 17q212 0 332 -64q21 -10 21 -25q0 -22 -25 -22q-8 0 -74 13q-64 13 -185 13q-135 0 -291 -29q-42 -158 -194 -480q138 18 205 18q164 0 219 -50q13 -13 13 -29q0 -22 -29 -22q-6 0 -20 4q-49 12 -118 12
q-138 0 -321 -39q-29 -58 -83 -169q-14 -29 -79 -158q-131 -257 -149 -311q202 64 395 64q163 0 272 -39q96 -35 96 -71q0 -14 -23 -14q-10 0 -25 3q-113 24 -230 24q-255 0 -486 -77q-16 -5 -28 -5q-32 0 -59 27q-37 37 -37 78q0 31 89 218q27 55 140 280l33 66l34 67
q-37 25 -37 58q0 30 36 35q2 0 11 1q5 1 17 3q10 1 24 4q152 308 218 475q-129 -39 -167 -74q-25 -23 -44 -23q-26 0 -44 26q-15 23 -15 45q0 28 22 39q103 52 284 94zM834 1722q10 0 22 -5q34 -14 94 -14q106 0 232 33q17 5 30 5q20 0 21 -16q1 -20 -25 -38
q-67 -44 -172 -65q-62 -13 -124 -13q-112 0 -112 62q0 51 34 51z" />
    <glyph glyph-name="emacron" unicode="&#x113;" horiz-adv-x="606" vert-adv-y="2457" 
d="M575 1132q9 0 22 -5q37 -14 95 -14q108 0 232 33q17 5 30 5q21 0 21 -16q0 -21 -25 -38q-67 -44 -172 -65q-63 -13 -125 -13q-112 0 -112 62q0 51 34 51zM260 304q-33 -69 -33 -126q0 -88 85 -88q128 0 279 142q22 20 35 20q20 0 20 -30q0 -40 -74 -106
q-136 -122 -273 -122q-50 0 -92 24q-43 24 -69 69q-27 48 -27 95q0 139 159 353q101 137 214 228q95 76 158 76q55 0 87 -34q29 -32 29 -88q0 -110 -122 -258q-113 -136 -224 -161q-30 -6 -69 -6q-34 0 -83 12zM308 395q25 -6 50 -6q90 0 167 82q136 144 136 227
q0 47 -37 47q-46 0 -143 -113q-91 -106 -173 -237z" />
    <glyph glyph-name="Edotaccent" unicode="&#x116;" horiz-adv-x="971" vert-adv-y="2457" 
d="M669 1412l3 12l3 18q7 46 35 46q36 0 52 -59q124 17 209 17q212 0 332 -64q21 -10 21 -25q0 -22 -25 -22q-8 0 -74 13q-64 13 -185 13q-135 0 -291 -29q-42 -158 -194 -480q138 18 205 18q164 0 219 -50q13 -13 13 -29q0 -22 -29 -22q-6 0 -20 4q-49 12 -118 12
q-138 0 -321 -39q-29 -58 -83 -169q-14 -29 -79 -158q-131 -257 -149 -311q202 64 395 64q163 0 272 -39q96 -35 96 -71q0 -14 -23 -14q-10 0 -25 3q-113 24 -230 24q-255 0 -486 -77q-16 -5 -28 -5q-32 0 -59 27q-37 37 -37 78q0 31 89 218q27 55 140 280l33 66l34 67
q-37 25 -37 58q0 30 36 35q2 0 11 1q5 1 17 3q10 1 24 4q152 308 218 475q-129 -39 -167 -74q-25 -23 -44 -23q-26 0 -44 26q-15 23 -15 45q0 28 22 39q103 52 284 94zM998 1766q29 0 50 -28q22 -29 22 -49q0 -30 -31 -62q-35 -38 -72 -38q-30 0 -55 17q-31 20 -31 55
q0 45 46 79q35 26 71 26z" />
    <glyph glyph-name="edotaccent" unicode="&#x117;" horiz-adv-x="606" vert-adv-y="2457" 
d="M798 1195q29 0 50 -28q22 -29 22 -49q0 -30 -31 -62q-35 -38 -72 -38q-30 0 -55 17q-31 20 -31 55q0 45 46 79q35 26 71 26zM260 304q-33 -69 -33 -126q0 -88 85 -88q128 0 279 142q22 20 35 20q20 0 20 -30q0 -40 -74 -106q-136 -122 -273 -122q-50 0 -92 24
q-43 24 -69 69q-27 48 -27 95q0 139 159 353q101 137 214 228q95 76 158 76q55 0 87 -34q29 -32 29 -88q0 -110 -122 -258q-113 -136 -224 -161q-30 -6 -69 -6q-34 0 -83 12zM308 395q25 -6 50 -6q90 0 167 82q136 144 136 227q0 47 -37 47q-46 0 -143 -113
q-91 -106 -173 -237z" />
    <glyph glyph-name="Eogonek" unicode="&#x118;" horiz-adv-x="971" vert-adv-y="2457" 
d="M828 64q-112 14 -158 14q-130 0 -317 -36q-68 -13 -161 -44q-16 -5 -28 -5q-32 0 -59 27q-37 36 -37 80q0 29 89 216q30 62 140 280l33 66l34 67q-37 25 -37 58q0 30 36 35q2 0 11 1q5 1 17 3q10 1 24 4q152 308 218 475q-129 -39 -167 -74q-25 -23 -44 -23q-26 0 -44 26
q-15 23 -15 45q0 28 22 39q103 52 284 94l3 12l3 18q7 46 35 46q36 0 52 -59q124 17 208 17q213 0 333 -64q21 -10 21 -25q0 -22 -25 -22q-8 0 -74 13q-64 13 -185 13q-135 0 -291 -29q-42 -158 -194 -480q138 18 205 18q164 0 219 -50q13 -13 13 -29q0 -22 -29 -22
q-6 0 -20 4q-49 12 -117 12q-139 0 -322 -39q-29 -58 -83 -169q-14 -29 -79 -158q-131 -257 -149 -311q202 64 393 64q238 0 338 -70q32 -23 32 -39q0 -32 -43 -33q-44 -57 -44 -103q0 -41 29 -70q20 -21 85 -49q16 -6 16 -23q0 -35 -61 -35q-44 0 -85 24q-43 24 -68 74
q-20 40 -20 82q0 73 63 134z" />
    <glyph glyph-name="eogonek" unicode="&#x119;" horiz-adv-x="606" vert-adv-y="2457" 
d="M218 12q-35 18 -57 43q-50 57 -50 128q0 138 159 352q102 137 214 228q95 76 156 76q57 0 89 -34q29 -32 29 -87q0 -111 -122 -259q-113 -136 -224 -161q-30 -6 -69 -6q-36 0 -83 12q-33 -69 -33 -126q0 -88 82 -88q131 0 282 142q22 20 35 20q20 0 20 -30
q0 -51 -110 -136q-109 -85 -220 -91q-5 -7 -14 -18q-47 -59 -47 -108q0 -40 29 -69q20 -21 85 -48q16 -7 16 -24q0 -35 -61 -35q-44 0 -85 24q-43 24 -68 74q-20 40 -20 82q0 67 49 120q4 4 18 19zM308 395q27 -6 49 -6q77 0 138 53q58 50 116 133q50 70 50 123q0 47 -37 47
q-46 0 -143 -113q-92 -107 -173 -237z" />
    <glyph glyph-name="Ecaron" unicode="&#x11a;" horiz-adv-x="971" vert-adv-y="2457" 
d="M669 1412l3 12l3 18q7 46 35 46q36 0 52 -59q124 17 209 17q212 0 332 -64q21 -10 21 -25q0 -22 -25 -22q-8 0 -74 13q-64 13 -185 13q-135 0 -291 -29q-42 -158 -194 -480q138 18 205 18q164 0 219 -50q13 -13 13 -29q0 -22 -29 -22q-6 0 -20 4q-49 12 -118 12
q-138 0 -321 -39q-29 -58 -83 -169q-14 -29 -79 -158q-131 -257 -149 -311q202 64 395 64q163 0 272 -39q96 -35 96 -71q0 -14 -23 -14q-10 0 -25 3q-113 24 -230 24q-255 0 -486 -77q-16 -5 -28 -5q-32 0 -59 27q-37 37 -37 78q0 31 89 218q27 55 140 280l33 66l34 67
q-37 25 -37 58q0 30 36 35q2 0 11 1q5 1 17 3q10 1 24 4q152 308 218 475q-129 -39 -167 -74q-25 -23 -44 -23q-26 0 -44 26q-15 23 -15 45q0 28 22 39q103 52 284 94zM1023 1754q12 7 49 29q15 10 71 30q46 20 78 20q29 0 43 -11q16 -12 16 -25q0 -9 -11 -18
q-13 -14 -40 -25q-7 -3 -89 -59l-39 -35l-39 -34q-25 -24 -30 -26q-20 -9 -44 -9q-17 0 -43 13q-17 8 -25 51q-9 52 -39 108q-19 37 -21 40q-8 18 -14 24q-10 9 -10 26q0 19 22 19q35 0 62 -16q23 -13 53 -43q25 -24 30 -32q17 -29 20 -27z" />
    <glyph glyph-name="ecaron" unicode="&#x11b;" horiz-adv-x="606" vert-adv-y="2457" 
d="M783 1169q13 7 49 30q14 9 71 29q46 20 78 20q29 0 42 -11q17 -13 17 -25q0 -9 -11 -18q-13 -14 -40 -25q-8 -4 -88 -60l-39 -34l-40 -34q-24 -24 -29 -26q-20 -9 -45 -9q-17 0 -42 13q-17 8 -25 51q-9 52 -39 108q-19 37 -21 41q-8 18 -14 24q-10 9 -10 26q0 19 22 19
q35 0 61 -16q24 -14 54 -44q25 -23 29 -31q17 -30 20 -28zM260 304q-33 -69 -33 -126q0 -88 85 -88q128 0 279 142q22 20 35 20q20 0 20 -30q0 -40 -74 -106q-136 -122 -273 -122q-50 0 -92 24q-43 24 -69 69q-27 48 -27 95q0 139 159 353q101 137 214 228q95 76 158 76
q55 0 87 -34q29 -32 29 -88q0 -110 -122 -258q-113 -136 -224 -161q-30 -6 -69 -6q-34 0 -83 12zM308 395q25 -6 50 -6q90 0 167 82q136 144 136 227q0 47 -37 47q-46 0 -143 -113q-91 -106 -173 -237z" />
    <glyph glyph-name="Gbreve" unicode="&#x11e;" horiz-adv-x="991" vert-adv-y="2457" 
d="M893 1833q33 0 51 -9q27 -14 65 -50q30 -29 63 -29q30 0 67 15q76 30 91 32q14 2 27 2q29 0 43 -10q16 -13 16 -28q0 -10 -12 -21q-4 -3 -78 -45q-23 -13 -50 -34q-40 -33 -58 -44q-23 -14 -55 -14q-38 0 -64 24q-37 33 -103 142q-12 21 -14 24q-10 16 -10 25q0 20 21 20
zM846 346q-343 -353 -504 -353q-64 0 -106 48q-64 75 -64 189q0 191 167 516q138 267 323 470q202 220 351 220q82 0 125 -70q27 -44 27 -101q0 -50 -20 -91q-18 -37 -47 -37t-29 37q0 6 4 24q4 14 4 31q0 42 -22 71q-22 28 -49 28q-96 0 -268 -191q-226 -250 -374 -593
q-90 -210 -90 -324q0 -53 26 -85q22 -26 56 -26q65 0 224 120q154 117 290 270q83 94 83 127q0 22 -18 22q-9 0 -45 -12q-111 -36 -205 -52q-48 -8 -63 -8q-27 0 -43 25q-10 15 -10 35q0 63 49 63h21q75 0 351 58q21 5 37 5q27 0 47 -19q32 -30 32 -73q0 -26 -30 -80
t-92 -201q-77 -184 -77 -347q0 -46 14 -107q3 -14 3 -20q0 -28 -21 -28q-22 0 -46 27q-15 17 -30 66q-19 64 -19 138q0 92 38 228z" />
    <glyph glyph-name="gbreve" unicode="&#x11f;" horiz-adv-x="650" vert-adv-y="2457" 
d="M625 1259q33 0 51 -9q27 -14 65 -51q30 -29 63 -29q30 0 67 15q75 30 91 32q14 2 27 2q29 0 43 -11q16 -12 16 -27q0 -10 -12 -21q-4 -3 -78 -45q-23 -13 -50 -34q-40 -33 -58 -44q-23 -14 -55 -14q-38 0 -64 24q-37 33 -103 143q-11 20 -14 24q-10 16 -10 25q0 20 21 20
zM600 327q-110 -132 -181 -200q-139 -133 -230 -133q-107 0 -107 107q0 121 148 326q168 234 346 354q93 63 160 63q76 0 76 -75q0 -65 -60 -154q62 -13 62 -33q0 -8 -13 -27q-12 -17 -23 -41q-1 -4 -299 -812q-45 -121 -147 -302q-134 -239 -283 -349q-47 -34 -117 -34
q-65 0 -95 55q-25 45 -25 106q0 139 99 307q83 140 199 252q82 78 118 78q25 0 25 -16q0 -9 -7 -19q-5 -6 -57 -64q-78 -85 -161 -217q-118 -189 -118 -320q0 -76 42 -76q46 0 99 58q137 150 288 476q115 250 261 690zM665 549q-47 17 -47 51q0 14 27 40q35 35 35 66
q0 16 -16 16q-28 0 -116 -83q-205 -191 -313 -391q-44 -80 -44 -122q0 -29 17 -29q52 0 186 135q117 116 271 317z" />
    <glyph glyph-name="Gcommaaccent" unicode="&#x122;" horiz-adv-x="992" vert-adv-y="2457" 
d="M484 -151q21 0 42 -17q22 -19 21 -42q-4 -70 -121 -206q-39 -46 -64 -59q-20 -11 -44 -11q-34 0 -34 20q0 10 31 48q43 52 87 139q23 47 37 93q11 35 45 35zM846 346q-343 -353 -504 -353q-64 0 -106 48q-64 75 -64 189q0 191 167 516q138 267 323 470q202 220 351 220
q82 0 125 -70q27 -44 27 -101q0 -50 -20 -91q-18 -37 -47 -37t-29 37q0 6 4 24q4 14 4 31q0 42 -22 71q-22 28 -49 28q-96 0 -268 -191q-226 -250 -374 -593q-90 -210 -90 -324q0 -53 26 -85q22 -26 56 -26q65 0 224 120q154 117 290 270q83 94 83 127q0 22 -18 22
q-9 0 -45 -12q-111 -36 -205 -52q-48 -8 -63 -8q-27 0 -43 25q-10 15 -10 35q0 63 49 63h21q75 0 351 58q21 5 37 5q27 0 47 -19q32 -30 32 -73q0 -26 -30 -80t-92 -201q-77 -184 -77 -347q0 -46 14 -107q3 -14 3 -20q0 -28 -21 -28q-22 0 -46 27q-15 17 -30 66
q-19 64 -19 138q0 92 38 228z" />
    <glyph glyph-name="gcommaaccent" unicode="&#x123;" horiz-adv-x="650" vert-adv-y="2457" 
d="M996 1360q34 0 34 -20q0 -10 -32 -48q-42 -52 -86 -138q-23 -46 -37 -93q-11 -35 -44 -35q-22 0 -43 17q-22 19 -21 42q4 70 121 206q39 45 64 58q20 11 44 11zM600 327q-110 -132 -181 -200q-139 -133 -230 -133q-107 0 -107 107q0 121 148 326q168 234 346 354
q93 63 160 63q76 0 76 -75q0 -65 -60 -154q62 -13 62 -33q0 -8 -13 -27q-12 -17 -23 -41q-1 -4 -299 -812q-45 -121 -147 -302q-134 -239 -283 -349q-47 -34 -117 -34q-65 0 -95 55q-25 45 -25 106q0 139 99 307q83 140 199 252q82 78 118 78q25 0 25 -16q0 -9 -7 -19
q-5 -6 -57 -64q-78 -85 -161 -217q-118 -189 -118 -320q0 -76 42 -76q46 0 99 58q137 150 288 476q115 250 261 690zM665 549q-47 17 -47 51q0 14 27 40q35 35 35 66q0 16 -16 16q-28 0 -116 -83q-205 -191 -313 -391q-44 -80 -44 -122q0 -29 17 -29q52 0 186 135
q117 116 271 317z" />
    <glyph glyph-name="Itilde" unicode="&#x128;" horiz-adv-x="333" vert-adv-y="0" 
d="M642 1738q-39 0 -68 -19q-44 -30 -51 -37q-10 -10 -22 -10q-36 0 -36 31q0 48 56 93q45 36 86 47q27 7 72 7q32 0 61 -18q43 -26 66 -52q36 -40 66 -40q6 0 22 6q31 12 61 36q18 15 36 15q10 0 18 -9q13 -14 13 -36q0 -35 -42 -70q-66 -55 -121 -55q-24 0 -72 19
q-22 8 -63 48q-45 44 -82 44zM666 1493q23 0 42 -24q21 -28 21 -64q0 -44 -25 -126q-44 -143 -243 -599q-181 -414 -214 -516q-19 -58 -23 -95q-5 -36 -33 -59q-21 -17 -39 -17q-41 0 -41 53q0 66 56 223q46 132 190 455q206 464 252 626q15 53 23 99q7 44 34 44z" />
    <glyph glyph-name="itilde" unicode="&#x129;" horiz-adv-x="318" vert-adv-y="0" 
d="M466 1138q-39 0 -68 -19q-44 -30 -51 -37q-10 -10 -22 -10q-36 0 -36 31q0 48 56 93q45 36 86 47q27 7 72 7q32 0 61 -18q43 -26 66 -52q36 -40 66 -40q6 0 22 6q31 12 61 36q18 15 36 15q10 0 18 -9q13 -14 13 -36q0 -35 -42 -70q-66 -55 -121 -55q-24 0 -72 19
q-22 8 -63 48q-45 44 -82 44zM415 839q28 2 54 -22q23 -20 23 -44q0 -22 -36 -82q-25 -41 -118 -236q-121 -254 -121 -373q0 -19 3 -45q2 -14 2 -18q0 -25 -25 -25q-20 0 -38 13q-43 30 -43 108q0 96 65 261q72 182 150 319q37 66 45 95q15 48 39 49z" />
    <glyph glyph-name="Imacron" unicode="&#x12a;" horiz-adv-x="333" vert-adv-y="2457" 
d="M551 1720q9 0 22 -5q35 -14 95 -14q106 0 232 33q18 5 30 5q21 0 21 -16q0 -21 -25 -38q-67 -44 -172 -65q-63 -13 -125 -13q-112 0 -112 62q0 51 34 51zM666 1493q23 0 42 -24q21 -28 21 -64q0 -44 -25 -126q-44 -143 -243 -599q-181 -414 -214 -516q-19 -58 -23 -95
q-5 -36 -33 -59q-21 -17 -39 -17q-41 0 -41 53q0 66 56 223q46 132 190 455q206 464 252 626q15 53 23 99q7 44 34 44z" />
    <glyph glyph-name="imacron" unicode="&#x12b;" horiz-adv-x="318" vert-adv-y="2457" 
d="M347 1134q9 0 22 -5q34 -13 95 -13q107 0 232 33q17 5 30 5q21 0 21 -16q0 -21 -25 -38q-67 -44 -173 -65q-62 -13 -124 -13q-112 0 -112 61q0 51 34 51zM415 839q28 2 54 -22q23 -20 23 -44q0 -22 -36 -82q-25 -41 -118 -236q-121 -254 -121 -373q0 -19 3 -45
q2 -14 2 -18q0 -25 -25 -25q-20 0 -38 13q-43 30 -43 108q0 96 65 261q72 182 150 319q37 66 45 95q15 48 39 49z" />
    <glyph glyph-name="Iogonek" unicode="&#x12e;" horiz-adv-x="333" vert-adv-y="2457" 
d="M111 46q0 40 26 130q41 145 220 548q206 466 252 626q16 54 23 99q6 44 34 44q23 0 42 -24q21 -28 21 -63q0 -45 -25 -127q-44 -143 -243 -599q-180 -414 -214 -517q-19 -58 -23 -94q-3 -23 -10 -33l-40 -56q-21 -30 -21 -66q0 -43 29 -73q20 -21 86 -49q16 -6 16 -23
q0 -35 -61 -35q-44 0 -85 24q-42 24 -68 74q-20 40 -20 82q0 72 61 132z" />
    <glyph glyph-name="iogonek" unicode="&#x12f;" horiz-adv-x="318" vert-adv-y="2457" 
d="M219 -4q-49 -61 -49 -109q0 -40 29 -70q20 -20 85 -48q16 -6 16 -23q0 -35 -61 -35q-44 0 -85 24q-42 24 -68 74q-20 40 -20 82q0 77 77 147q-16 34 -16 77q0 96 65 261q67 170 150 320q36 65 46 94q16 49 39 49q30 0 54 -21q23 -21 23 -45q0 -22 -36 -81
q-27 -45 -119 -237q-121 -255 -121 -372q0 -22 4 -46q2 -13 2 -18q0 -16 -15 -23zM634 1158q40 0 71 -30q24 -23 24 -50q0 -54 -57 -54q-51 0 -78 38q-13 19 -13 39q0 14 10 32q14 25 43 25z" />
    <glyph glyph-name="Idotaccent" unicode="&#x130;" horiz-adv-x="333" vert-adv-y="2457" 
d="M772 1765q30 0 51 -28q22 -29 22 -49q0 -30 -31 -62q-36 -38 -73 -38q-30 0 -55 17q-31 20 -31 55q0 45 46 79q35 26 71 26zM666 1493q23 0 42 -24q21 -28 21 -64q0 -44 -25 -126q-44 -143 -243 -599q-181 -414 -214 -516q-19 -58 -23 -95q-5 -36 -33 -59
q-21 -17 -39 -17q-41 0 -41 53q0 66 56 223q46 132 190 455q206 464 252 626q15 53 23 99q7 44 34 44z" />
    <glyph glyph-name="dotlessi" unicode="&#x131;" horiz-adv-x="318" vert-adv-y="2457" 
d="M415 839q28 2 54 -22q23 -20 23 -44q0 -22 -36 -82q-25 -41 -118 -236q-121 -254 -121 -373q0 -19 3 -45q2 -14 2 -18q0 -25 -25 -25q-20 0 -38 13q-43 30 -43 108q0 96 65 261q72 182 150 319q37 66 45 95q15 48 39 49z" />
    <glyph glyph-name="Kcommaaccent" unicode="&#x136;" horiz-adv-x="955" vert-adv-y="2457" 
d="M438 -150q23 0 43 -17q22 -19 21 -42q-4 -69 -121 -206q-39 -46 -64 -59q-20 -11 -44 -11q-34 0 -34 20q0 10 32 48q43 53 86 139q23 46 37 93q11 35 44 35zM293 337q271 324 450 511q177 185 385 341q144 108 207 108q22 0 38 -11q14 -10 14 -21q0 -21 -38 -42
q-74 -39 -112 -66q-197 -137 -505 -464q7 -335 105 -553q44 -97 92 -146q38 -38 88 -60q42 -19 42 -38q0 -10 -11 -18q-14 -10 -34 -10q-17 0 -36 6q-110 32 -198 153q-137 187 -163 538q-201 -227 -388 -474q-60 -79 -71 -89t-25 -10q-24 0 -41 25q-17 27 -17 53
q0 21 70 195q155 384 205 498q158 364 194 480q24 79 34 140q6 42 41 42q20 0 40 -19q17 -18 17 -46q0 -86 -77 -288q-29 -78 -123 -300q-86 -200 -183 -435z" />
    <glyph glyph-name="kcommaaccent" unicode="&#x137;" horiz-adv-x="774" vert-adv-y="2457" 
d="M369 -151q22 0 42 -17q22 -19 21 -42q-4 -70 -121 -206q-39 -46 -64 -59q-20 -11 -44 -11q-34 0 -34 20q0 10 32 48q42 51 86 139q23 47 37 93q11 35 45 35zM269 336q163 193 355 342q201 156 248 156q27 0 27 -33q0 -18 -14 -36q-11 -13 -61 -45q-120 -76 -272 -223
q5 -166 60 -288q48 -108 115 -155q34 -24 34 -41q0 -28 -48 -28q-77 0 -157 103q-90 115 -114 296q-91 -100 -148 -175q-55 -72 -123 -184q-19 -32 -45 -32q-13 0 -26 7q-38 19 -38 51q0 7 217 575q186 488 208 537q49 106 55 123q13 36 36 36q27 0 52 -32q17 -23 17 -47
q0 -11 -34 -80q-64 -128 -344 -827z" />
    <glyph glyph-name="Lacute" unicode="&#x139;" horiz-adv-x="797" vert-adv-y="2457" 
d="M912 1830q20 0 37 -17q24 -23 24 -44q0 -50 -113 -106q-111 -56 -152 -56q-6 0 -40 10q-14 13 -18 16q-9 8 -9 25q0 9 22 19l29 15q101 47 165 105q17 14 23 20q13 13 32 13zM224 106q142 30 255 30q148 0 232 -32q46 -18 65 -46q14 -20 14 -34q0 -18 -22 -18q-7 0 -22 5
q-78 27 -198 27q-166 0 -325 -42q-12 -3 -27 -3q-42 0 -74 36q-32 35 -32 73q0 21 29 80q14 28 181 451q228 572 236 598q38 122 43 213q2 42 33 42q23 0 43 -17q28 -24 28 -73q0 -134 -151 -535q-120 -322 -260 -641q-30 -69 -48 -114z" />
    <glyph glyph-name="lacute" unicode="&#x13a;" horiz-adv-x="294" vert-adv-y="2457" 
d="M933 1725q20 0 37 -17q24 -24 24 -44q0 -50 -113 -107q-110 -56 -152 -56q-6 0 -40 10q-14 13 -18 16q-9 8 -9 25q0 9 22 19l29 16q101 47 165 104q17 16 23 21q13 13 32 13zM619 1405q16 0 37 -13q40 -27 40 -60q0 -16 -34 -79q-77 -139 -205 -439q-214 -499 -214 -664
q0 -34 5 -60q2 -9 22 -45q9 -15 9 -22q0 -12 -11.5 -21t-27.5 -9q-24 0 -48 20q-50 41 -50 152q0 125 70 322q76 212 240 570q101 219 122 291q11 37 17 45q10 12 28 12z" />
    <glyph glyph-name="Lcommaaccent" unicode="&#x13b;" horiz-adv-x="797" vert-adv-y="2457" 
d="M388 -151q22 0 42 -17q22 -19 21 -42q-4 -70 -121 -206q-39 -46 -64 -59q-20 -11 -44 -11q-34 0 -34 20q0 10 32 48q42 51 86 139q23 47 37 93q11 35 45 35zM224 106q142 30 255 30q148 0 232 -32q46 -18 65 -46q14 -20 14 -34q0 -18 -22 -18q-7 0 -22 5q-78 27 -198 27
q-166 0 -325 -42q-12 -3 -27 -3q-42 0 -74 36q-32 35 -32 73q0 21 29 80q14 28 181 451q228 572 236 598q38 122 43 213q2 42 33 42q23 0 43 -17q28 -24 28 -73q0 -134 -151 -535q-120 -322 -260 -641q-30 -69 -48 -114z" />
    <glyph glyph-name="lcommaaccent" unicode="&#x13c;" horiz-adv-x="294" vert-adv-y="2457" 
d="M104 -151q22 0 42 -17q22 -19 21 -42q-4 -70 -120 -206q-39 -46 -64 -59q-20 -11 -44 -11q-34 0 -34 20q0 10 31 48q43 52 86 139q24 47 38 93q11 35 44 35zM619 1405q16 0 37 -13q40 -27 40 -60q0 -16 -34 -79q-77 -141 -205 -439q-213 -499 -213 -664q0 -34 5 -60
q2 -9 22 -45q8 -15 8 -22q0 -15 -17 -25q-9 -5 -22 -5q-24 0 -48 20q-50 41 -50 152q0 124 71 322q74 209 239 570q101 220 122 291q11 37 17 45q10 12 28 12z" />
    <glyph glyph-name="Lcaron" unicode="&#x13d;" horiz-adv-x="797" vert-adv-y="2457" 
d="M999 1479q22 0 42 -17q22 -19 21 -42q-4 -69 -120 -206q-39 -46 -64 -59q-20 -11 -44 -11q-34 0 -34 20q0 10 31 48q43 53 86 139q23 46 38 93q11 35 44 35zM224 106q142 30 255 30q148 0 232 -32q46 -18 65 -46q14 -20 14 -34q0 -18 -22 -18q-7 0 -22 5q-78 27 -198 27
q-166 0 -325 -42q-12 -3 -27 -3q-42 0 -74 36q-32 35 -32 73q0 21 29 80q14 28 181 451q228 572 236 598q38 122 43 213q2 42 33 42q23 0 43 -17q28 -24 28 -73q0 -134 -151 -535q-120 -322 -260 -641q-30 -69 -48 -114z" />
    <glyph glyph-name="lcaron" unicode="&#x13e;" horiz-adv-x="294" vert-adv-y="2457" 
d="M894 1380q22 0 42 -17q22 -19 21 -42q-4 -70 -121 -206q-39 -46 -64 -59q-20 -11 -44 -11q-34 0 -34 20q0 10 32 48q42 52 86 139q23 46 37 93q11 35 45 35zM619 1405q16 0 37 -13q40 -27 40 -60q0 -16 -34 -79q-77 -139 -205 -439q-214 -499 -214 -664q0 -34 5 -60
q2 -9 22 -45q9 -15 9 -22q0 -12 -11.5 -21t-27.5 -9q-24 0 -48 20q-50 41 -50 152q0 125 70 322q76 212 240 570q101 219 122 291q11 37 17 45q10 12 28 12z" />
    <glyph glyph-name="Lslash" unicode="&#x141;" horiz-adv-x="797" vert-adv-y="2457" 
d="M445 638l-17 -44q-81 -200 -157 -374q-31 -72 -47 -114q141 30 254 30q148 0 232 -32q46 -18 65 -46q14 -20 14 -34q0 -18 -22 -18q-7 0 -22 5q-78 27 -196 27q-168 0 -327 -42q-12 -3 -27 -3q-42 0 -74 36q-32 35 -32 73q0 21 29 80q13 26 83 202l51 129
q-56 -45 -87 -91q-11 -17 -30 -17q-22 0 -44 22q-21 23 -21 47q0 48 62 102q59 51 194 122q65 168 100 251q107 258 128 345q21 83 25 150q2 42 33 42q23 0 43 -17q28 -24 28 -68q0 -149 -168 -585l-17 -44q104 36 167 36q22 0 41 -14q12 -10 12 -21q0 -21 -46 -34
q-74 -20 -219 -96z" />
    <glyph glyph-name="lslash" unicode="&#x142;" horiz-adv-x="294" vert-adv-y="2457" 
d="M258 607l-20 -13q-52 -45 -81 -86q-11 -17 -30 -17q-22 0 -44 22q-21 23 -21 47q0 38 44 85q50 53 227 145q30 70 120 267q101 222 121 291q11 38 17 45q10 12 28 12q16 0 37 -13q40 -27 40 -60q0 -16 -34 -79q-58 -107 -188 -401q129 42 182 42q23 0 42 -14
q12 -10 12 -21q0 -21 -46 -34q-106 -29 -243 -111l-7 -4q-79 -195 -115 -306q-54 -163 -54 -254q0 -34 5 -60q2 -9 22 -45q8 -15 8 -22q0 -15 -16 -25q-10 -5 -23 -5q-24 0 -48 20q-50 41 -50 152q0 148 115 442z" />
    <glyph glyph-name="Nacute" unicode="&#x143;" horiz-adv-x="982" vert-adv-y="2457" 
d="M1113 1810q20 0 37 -17q24 -24 24 -44q0 -49 -113 -106q-109 -56 -151 -56q-6 0 -40 10q-14 13 -18 16q-9 8 -9 25q0 9 22 19l29 15q52 25 72 38q9 5 66 44q44 38 45 39q17 17 36 17zM785 179q55 184 308 797q158 384 187 507q8 37 39 37q22 0 41 -19q21 -22 21 -54
q0 -28 -21 -89q-36 -109 -246 -614q-246 -593 -262 -762q-4 -48 -45 -48q-33 0 -57 27q-36 40 -67 165q-38 154 -49 326q-13 225 -16 663q-191 -477 -218 -550q-73 -199 -103 -310q-36 -133 -36 -177v-38q0 -48 -38 -48q-27 0 -48 25q-24 28 -24 82q0 90 46 244
q31 105 67 200q13 35 187 463q145 362 149 368q13 22 33 22q35 0 65 -29q30 -31 30 -69q0 -37 -5 -118q-4 -59 -4 -170q0 -320 17 -539q12 -159 23 -210q6 -29 26 -82z" />
    <glyph glyph-name="nacute" unicode="&#x144;" horiz-adv-x="748" vert-adv-y="2457" 
d="M895 1220q20 0 37 -17q24 -24 24 -44q0 -49 -113 -106q-111 -56 -152 -56q-6 0 -40 10q-14 13 -18 16q-9 8 -9 25q0 9 22 19l29 15q52 25 72 38q10 6 67 44l26 22q17 16 22 21q14 13 33 13zM266 306q52 39 148 131q141 133 259 267q81 90 95 101t29 11q22 0 39 -26
q19 -29 19 -73q0 -28 -31 -102q-120 -283 -120 -466q0 -79 46 -141q16 -22 16 -34q0 -24 -36 -24q-39 0 -80 40q-54 52 -54 174q0 150 98 430q-22 -23 -61 -63q-24 -26 -78 -81q-342 -344 -380 -412q-24 -43 -28 -47q-7 -5 -17 -5q-34 0 -56 32q-20 28 -20 68q0 44 217 476
q74 147 82 175q5 17 7 41q6 57 44 57q32 0 60 -34q21 -24 21 -50q0 -39 -112 -235q-74 -129 -107 -210z" />
    <glyph glyph-name="Ncommaaccent" unicode="&#x145;" horiz-adv-x="982" vert-adv-y="2457" 
d="M382 -151q22 0 42 -17q22 -19 21 -42q-4 -69 -121 -206q-39 -46 -64 -59q-20 -11 -44 -11q-34 0 -34 20q0 10 32 48q42 52 86 139q23 47 37 93q11 35 45 35zM785 179q55 184 308 797q158 384 187 507q8 37 39 37q22 0 41 -19q21 -22 21 -54q0 -28 -21 -89
q-36 -109 -246 -614q-246 -593 -262 -762q-4 -48 -45 -48q-33 0 -57 27q-36 40 -67 165q-38 154 -49 326q-13 225 -16 663q-191 -477 -218 -550q-73 -199 -103 -310q-36 -133 -36 -177v-38q0 -48 -38 -48q-27 0 -48 25q-24 28 -24 82q0 90 46 244q31 105 67 200
q13 35 187 463q145 362 149 368q13 22 33 22q35 0 65 -29q30 -31 30 -69q0 -37 -5 -118q-4 -59 -4 -170q0 -320 17 -539q12 -159 23 -210q6 -29 26 -82z" />
    <glyph glyph-name="ncommaaccent" unicode="&#x146;" horiz-adv-x="745" vert-adv-y="2457" 
d="M342 -151q23 0 43 -17q22 -19 21 -42q-4 -70 -121 -206q-39 -46 -64 -59q-20 -11 -44 -11q-34 0 -34 20q0 10 32 48q42 51 86 139q23 48 37 93q11 35 44 35zM266 306q52 39 148 131q141 133 259 267q81 90 95 101t29 11q22 0 39 -26q19 -29 19 -73q0 -28 -31 -102
q-120 -283 -120 -466q0 -79 46 -141q16 -22 16 -34q0 -24 -36 -24q-39 0 -80 40q-54 52 -54 174q0 150 98 430q-22 -23 -61 -63q-24 -26 -78 -81q-342 -344 -380 -412q-24 -43 -28 -47q-7 -5 -17 -5q-34 0 -56 32q-20 28 -20 68q0 44 217 476q74 147 82 175q5 17 7 41
q6 57 44 57q32 0 60 -34q21 -24 21 -50q0 -39 -112 -235q-74 -129 -107 -210z" />
    <glyph glyph-name="Ncaron" unicode="&#x147;" horiz-adv-x="982" vert-adv-y="2457" 
d="M1007 1735q11 7 48 30q15 9 71 29q48 20 79 20q29 0 42 -11q17 -13 17 -24q0 -10 -12 -19q-12 -14 -39 -25q-8 -3 -89 -59l-39 -34l-39 -34q-25 -24 -30 -26q-20 -9 -44 -9q-17 0 -43 13q-17 8 -25 51q-9 51 -39 108q-19 37 -21 40q-8 18 -14 24q-10 9 -10 26q0 19 22 19
q35 0 61 -16q24 -13 54 -43q25 -24 30 -32q17 -29 20 -28zM785 179q55 184 308 797q158 384 187 507q8 37 39 37q22 0 41 -19q21 -22 21 -54q0 -28 -21 -89q-36 -109 -246 -614q-246 -593 -262 -762q-4 -48 -45 -48q-33 0 -57 27q-36 40 -67 165q-38 154 -49 326
q-13 225 -16 663q-191 -477 -218 -550q-73 -199 -103 -310q-36 -133 -36 -177v-38q0 -48 -38 -48q-27 0 -48 25q-24 28 -24 82q0 90 46 244q31 105 67 200q13 35 187 463q145 362 149 368q13 22 33 22q35 0 65 -29q30 -31 30 -69q0 -37 -5 -118q-4 -59 -4 -170
q0 -320 17 -539q12 -159 23 -210q6 -29 26 -82z" />
    <glyph glyph-name="ncaron" unicode="&#x148;" horiz-adv-x="745" vert-adv-y="2457" 
d="M705 1146q12 7 49 30q15 9 70 29q48 20 79 20q29 0 42 -11q17 -12 17 -24q0 -10 -12 -19q-12 -14 -39 -25q-8 -3 -89 -59l-39 -34l-39 -34q-25 -24 -30 -26q-20 -9 -44 -9q-17 0 -43 13q-17 8 -25 51q-9 51 -39 108q-20 37 -21 40q-8 18 -14 24q-10 9 -10 26q0 19 22 19
q35 0 62 -16q22 -13 53 -43q25 -24 30 -32q17 -29 20 -28zM266 306q52 39 148 131q141 133 259 267q81 90 95 101t29 11q22 0 39 -26q19 -29 19 -73q0 -28 -31 -102q-120 -283 -120 -466q0 -79 46 -141q16 -22 16 -34q0 -24 -36 -24q-39 0 -80 40q-54 52 -54 174
q0 150 98 430q-22 -23 -61 -63q-24 -26 -78 -81q-342 -344 -380 -412q-24 -43 -28 -47q-7 -5 -17 -5q-34 0 -56 32q-20 28 -20 68q0 44 217 476q74 147 82 175q5 17 7 41q6 57 44 57q32 0 60 -34q21 -24 21 -50q0 -39 -112 -235q-74 -129 -107 -210z" />
    <glyph glyph-name="Omacron" unicode="&#x14c;" horiz-adv-x="809" vert-adv-y="2457" 
d="M731 1716q9 0 22 -5q35 -14 95 -14q105 0 232 33q18 5 30 5q20 0 21 -16q1 -20 -26 -38q-66 -44 -172 -65q-62 -13 -124 -13q-112 0 -112 62q0 51 34 51zM651 1253q53 239 195 239q78 0 134 -73q40 -53 66 -160q22 -88 22 -186q0 -291 -125 -569q-85 -191 -218 -330
q-174 -181 -327 -181q-52 0 -101 31q-91 57 -91 193q0 117 67 318q62 189 170 387q117 217 197 320l3 3q2 4 5 5t3 3zM640 1053q-141 -259 -214 -461q-93 -259 -93 -393q0 -60 28 -88q17 -16 37 -16q130 0 295 210q143 183 215 406q59 181 59 363q0 168 -51 259
q-28 50 -63 50q-33 0 -65 -63q-50 -96 -50 -250q0 -78 27 -178q4 -15 4 -22q0 -23 -22 -23q-85 0 -107 206z" />
    <glyph glyph-name="omacron" unicode="&#x14d;" horiz-adv-x="656" vert-adv-y="2457" 
d="M475 1123q9 0 22 -5q36 -14 95 -14q106 0 232 34q18 5 30 5q21 0 21 -16q0 -21 -25 -38q-68 -45 -172 -66q-63 -13 -125 -13q-112 0 -112 62q0 51 34 51zM445 706q0 32 29 69q53 67 127 67q83 0 125 -85q28 -59 28 -133q0 -81 -37 -186q-72 -208 -219 -345
q-108 -100 -213 -100q-97 0 -139 86q-20 41 -20 95q0 132 82 280q60 110 136 186q49 50 101 66zM514 689q0 -22 -25 -42q-72 -56 -139 -166q-102 -169 -102 -303q0 -86 60 -86q89 0 205 163q131 184 131 345q0 66 -19 111q-16 38 -48 38t-44 -24q-14 -28 -19 -36z" />
    <glyph glyph-name="Ohungarumlaut" unicode="&#x150;" horiz-adv-x="809" vert-adv-y="2457" 
d="M972 1837q22 0 46 -17q32 -23 32 -48q0 -50 -118 -137q-31 -22 -67 -39q-21 -9 -27 -9h-2q-11 2 -14 2q-19 1 -40 12q-24 12 -24 29q0 6 15 17l23 20q43 32 59 48q7 7 50 54q29 43 30 45q13 23 37 23zM1226 1834q22 0 46 -17q32 -23 32 -48q0 -51 -118 -137
q-31 -22 -67 -39q-21 -9 -27 -9h-2q-11 2 -14 2q-19 1 -40 12q-24 12 -24 29q0 6 15 17l23 20q42 31 59 48q7 7 50 54q29 43 30 45q13 23 37 23zM651 1251q53 239 195 239q78 0 134 -73q40 -53 66 -160q22 -88 22 -186q0 -292 -125 -570q-85 -191 -218 -330
q-173 -181 -327 -181q-52 0 -101 31q-91 57 -91 194q0 116 67 317q62 189 170 388q117 217 197 319q2 2 3 4q2 3 5 5q3 1 3 3zM640 1051q-141 -260 -214 -462q-93 -259 -93 -393q0 -60 28 -88q17 -16 37 -16q86 0 193.5 98t202.5 262q173 301 173 620q0 168 -51 259
q-28 50 -63 50q-33 0 -65 -62q-50 -97 -50 -251q0 -78 27 -178q4 -15 4 -22q0 -23 -22 -23q-85 0 -107 206z" />
    <glyph glyph-name="ohungarumlaut" unicode="&#x151;" horiz-adv-x="656" vert-adv-y="2457" 
d="M679 1240q22 0 46 -17q32 -23 32 -48q0 -50 -118 -137q-30 -22 -67 -39q-21 -9 -27 -9h-2q-11 1 -14 2q-19 1 -40 12q-24 12 -24 29q0 6 15 17l23 20q43 32 59 48q7 7 50 54q29 44 30 45q13 23 37 23zM933 1237q22 0 46 -17q32 -22 32 -47q0 -51 -118 -137
q-30 -22 -67 -39q-21 -9 -27 -9h-2q-11 1 -14 2q-19 0 -40 12q-24 12 -24 29q0 5 15 17l23 19q43 32 59 49q7 7 50 53q29 43 30 45q13 23 37 23zM445 706q0 32 29 69q53 67 127 67q83 0 125 -85q28 -59 28 -133q0 -81 -37 -186q-72 -208 -219 -345q-108 -100 -213 -100
q-97 0 -139 86q-20 41 -20 95q0 132 82 280q60 110 136 186q49 50 101 66zM514 689q0 -22 -25 -42q-72 -56 -139 -166q-102 -169 -102 -303q0 -86 60 -86q89 0 205 163q131 184 131 345q0 66 -19 111q-16 38 -48 38t-44 -24q-14 -28 -19 -36z" />
    <glyph glyph-name="OE" unicode="&#x152;" horiz-adv-x="1501" vert-adv-y="2457" 
d="M599 94q-130 -101 -238 -101q-53 0 -102 31q-91 57 -91 193q0 117 67 318q62 189 170 387q117 217 197 320l3 3q2 4 5 5q2 1 3 3q53 239 195 239q66 0 118 -54q78 -83 99 -269q5 -44 5 -97q0 -35 -3 -76q159 324 179 443q7 46 35 46q36 0 51 -58q124 17 209 17
q213 0 333 -64q21 -10 21 -25q0 -22 -25 -22q-8 0 -74 13q-65 13 -185 13q-134 0 -292 -29q-41 -158 -194 -480q135 18 206 18q164 0 218 -50q13 -13 13 -29q0 -22 -29 -22q-6 0 -20 3q-50 13 -116 13q-140 0 -323 -39q-28 -58 -82 -169q-14 -29 -80 -158
q-131 -257 -148 -311q202 64 395 64q235 0 336 -70q32 -23 32 -40q0 -14 -23 -14q-10 0 -25 3q-110 24 -230 24q-256 0 -487 -77q-15 -5 -27 -5q-43 0 -73 43q-21 29 -23 60zM602 1053q-141 -259 -214 -461q-93 -259 -93 -393q0 -60 28 -88q17 -16 37 -16q130 0 295 210
q143 183 215 406q59 181 59 363q0 168 -51 259q-28 50 -63 50q-33 0 -65 -63q-50 -96 -50 -250q0 -78 27 -178q4 -15 4 -22q0 -23 -23 -23q-84 0 -106 206z" />
    <glyph glyph-name="oe" unicode="&#x153;" horiz-adv-x="990" vert-adv-y="2457" 
d="M755 621q192 218 302 218q57 0 89 -34q29 -32 29 -87q0 -111 -122 -259q-113 -136 -225 -161q-29 -6 -68 -6q-35 0 -83 12q-34 -69 -34 -126q0 -88 82 -88q131 0 282 142q22 20 35 20q20 0 20 -30q0 -40 -74 -106q-136 -122 -273 -122q-83 0 -137 61q-27 30 -42 76
q-134 -138 -251 -138q-96 0 -138 86q-20 41 -20 94q0 133 82 281q60 110 136 186q50 51 101 66q1 33 29 69q53 67 126 67q103 0 141 -125q13 -44 13 -96zM515 689q0 -22 -25 -42q-72 -56 -139 -166q-102 -169 -102 -301q0 -88 60 -88q89 0 205 163q131 184 131 345
q0 66 -19 111q-16 38 -48 38t-44 -24q-14 -28 -19 -36zM725 395q25 -6 48 -6q78 0 139 53q57 50 116 133q50 70 50 123q0 47 -37 47q-46 0 -143 -113q-92 -107 -173 -237z" />
    <glyph glyph-name="Racute" unicode="&#x154;" horiz-adv-x="969" vert-adv-y="2457" 
d="M1144 1795q20 0 37 -17q24 -24 24 -44q0 -50 -113 -107q-110 -56 -151 -56q-7 0 -40 10q-14 13 -18 16q-9 8 -9 25q0 9 22 19l29 16q119 56 183 121q16 17 36 17zM688 1277q-133 -39 -228 -97q-153 -92 -256 -219q-36 -43 -36 -66q0 -29 41 -38q21 -5 21 -21
q0 -12 -12 -19q-13 -7 -25 -7q-53 0 -92 37q-32 31 -32 75q0 81 170 216q133 105 288 174q70 30 193 71q16 46 58 46q29 0 46 -37q34 1 51 1q151 0 268 -65q142 -78 142 -238q0 -200 -247 -363q-143 -94 -366 -155q57 -238 146 -415q89 -178 182 -235q41 -25 41 -46
q0 -23 -44 -23q-38 0 -99 42q-210 144 -366 716q-36 -87 -75 -172q-78 -174 -104 -234q-51 -121 -73 -153q-40 -59 -82 -59q-38 0 -38 39q0 47 71 177q63 115 371 847q41 97 86 221zM822 1299q-109 -271 -272 -646q153 22 264 70q178 78 290 197q80 85 80 167q0 77 -68 135
q-92 79 -294 77z" />
    <glyph glyph-name="racute" unicode="&#x155;" horiz-adv-x="508" vert-adv-y="2457" 
d="M731 1214q20 0 37 -17q24 -24 24 -44q0 -49 -113 -106q-110 -56 -151 -56q-6 0 -40 10q-14 13 -18 16q-9 8 -9 25q0 9 22 19l29 15q52 25 72 38l66 44l26 22q17 16 23 21q13 13 32 13zM392 587q123 135 200 189q102 73 191 73q24 0 39 -17q11 -11 11 -25q0 -19 -23 -25
q-78 -20 -151.5 -72t-158.5 -147q-103 -117 -200 -279q-26 -43 -115 -233q-26 -57 -61 -57q-28 0 -45 25q-11 16 -11 32q0 10 48 110q59 126 127 314q58 159 74 255q3 20 3 64q0 30 17 30q20 0 43 -34q26 -38 26 -105q0 -43 -14 -98z" />
    <glyph glyph-name="Rcommaaccent" unicode="&#x156;" horiz-adv-x="969" vert-adv-y="2457" 
d="M493 -151q23 0 43 -17q22 -19 21 -42q-4 -70 -121 -206q-39 -46 -64 -59q-20 -11 -44 -11q-34 0 -34 20q0 10 32 48q41 51 86 139q23 46 37 93q11 35 44 35zM688 1277q-133 -39 -228 -97q-153 -92 -256 -219q-36 -43 -36 -66q0 -29 41 -38q21 -5 21 -21q0 -12 -12 -19
q-13 -7 -25 -7q-53 0 -92 37q-32 31 -32 75q0 81 170 216q133 105 288 174q70 30 193 71q16 46 58 46q29 0 46 -37q34 1 51 1q151 0 268 -65q142 -78 142 -238q0 -200 -247 -363q-143 -94 -366 -155q57 -238 146 -415q89 -178 182 -235q41 -25 41 -46q0 -23 -44 -23
q-38 0 -99 42q-210 144 -366 716q-36 -87 -75 -172q-78 -174 -104 -234q-51 -121 -73 -153q-40 -59 -82 -59q-38 0 -38 39q0 47 71 177q63 115 371 847q41 97 86 221zM822 1299q-109 -271 -272 -646q153 22 264 70q178 78 290 197q80 85 80 167q0 77 -68 135q-92 79 -294 77
z" />
    <glyph glyph-name="rcommaaccent" unicode="&#x157;" horiz-adv-x="508" vert-adv-y="2457" 
d="M5 -151q22 0 42 -17q22 -19 21 -42q-4 -70 -120 -206q-39 -46 -64 -59q-20 -11 -44 -11q-34 0 -34 20q0 10 31 48q43 52 86 139q24 47 38 93q11 35 44 35zM391 587q123 134 200 189q103 73 192 73q24 0 39 -17q11 -11 11 -25q0 -19 -23 -25q-85 -21 -157 -76
q-142 -109 -272 -297q-85 -122 -128 -213l-68 -145q-26 -57 -61 -57q-28 0 -45 25q-11 16 -11 32q0 10 48 110q59 126 127 314q58 159 74 255q3 20 3 64q0 30 17 30q20 0 43 -34q26 -38 26 -105q0 -44 -15 -98z" />
    <glyph glyph-name="Rcaron" unicode="&#x158;" horiz-adv-x="969" vert-adv-y="2457" 
d="M688 1277q-133 -39 -228 -97q-153 -92 -256 -219q-36 -43 -36 -66q0 -29 41 -38q21 -5 21 -21q0 -12 -12 -19q-13 -7 -25 -7q-53 0 -92 37q-32 31 -32 75q0 81 170 216q133 105 288 174q70 30 193 71q16 46 58 46q29 0 46 -37q34 1 51 1q151 0 268 -65q142 -78 142 -238
q0 -200 -247 -363q-143 -94 -366 -155q57 -238 146 -415q89 -178 182 -235q41 -25 41 -46q0 -23 -44 -23q-38 0 -99 42q-210 144 -366 716q-36 -87 -75 -172q-78 -174 -104 -234q-51 -121 -73 -153q-40 -59 -82 -59q-38 0 -38 39q0 47 71 177q63 115 371 847q41 97 86 221z
M822 1299q-109 -271 -272 -646q153 22 264 70q178 78 290 197q80 85 80 167q0 77 -68 135q-92 79 -294 77zM1005 1738q12 7 49 30q14 9 70 29q48 20 79 20q29 0 43 -11q16 -12 16 -24q0 -10 -11 -19q-13 -14 -40 -25q-8 -3 -89 -59l-39 -34l-39 -34q-25 -24 -30 -26
q-20 -9 -44 -9q-17 0 -43 13q-17 8 -25 51q-9 51 -39 108q-19 37 -21 40q-8 18 -14 24q-10 9 -10 26q0 19 22 19q34 0 61 -16q24 -13 54 -43q25 -24 30 -32q17 -29 20 -28z" />
    <glyph glyph-name="rcaron" unicode="&#x159;" horiz-adv-x="508" vert-adv-y="2457" 
d="M578 1176q12 7 48 29q16 10 71 30q47 20 79 20q29 0 42 -11q17 -12 17 -25q0 -9 -11 -18q-13 -14 -40 -25q-8 -4 -89 -59l-39 -35q-38 -33 -47 -42q-26 -26 -64 -26q-33 0 -52 19q-12 12 -18 44q-8 51 -39 108q-19 37 -21 40q-8 18 -14 24q-10 9 -10 26q0 19 22 19
q35 0 61 -16q23 -13 54 -43q25 -23 29 -32q18 -29 21 -27zM392 587q123 135 200 189q102 73 191 73q24 0 39 -17q11 -11 11 -25q0 -19 -23 -25q-78 -20 -151.5 -72t-158.5 -147q-103 -117 -200 -279q-26 -43 -115 -233q-26 -57 -61 -57q-28 0 -45 25q-11 16 -11 32
q0 10 48 110q59 126 127 314q58 159 74 255q3 20 3 64q0 30 17 30q20 0 43 -34q26 -38 26 -105q0 -43 -14 -98z" />
    <glyph glyph-name="Sacute" unicode="&#x15a;" horiz-adv-x="766" vert-adv-y="2457" 
d="M1032 1839q19 0 37 -17q24 -24 24 -44q0 -50 -113 -106q-111 -56 -152 -56q-6 0 -40 10q-14 13 -18 16q-9 8 -9 25q0 9 22 19l29 15q101 48 165 105q17 15 23 20q13 13 32 13zM344 713q43 0 43 -32q0 -21 -34 -30q-54 -13 -106 -65q-70 -69 -70 -148q0 -114 81 -216
q51 -65 133 -101q66 -30 130 -30q52 0 85 25q52 39 52 158q0 104 -32 428q-31 317 -31 455q0 375 169 375q99 0 153 -95q33 -59 33 -135q0 -59 -24 -89q-24 -29 -53 -29q-27 0 -27 28q0 6 1 13q3 29 3 47q0 127 -66 127q-68 0 -68 -309q0 -124 44 -685q6 -76 6 -133
q0 -163 -98 -237q-61 -47 -152 -47q-114 0 -216 59q-102 58 -158 156q-64 113 -64 244q0 110 111 196q90 70 155 70z" />
    <glyph glyph-name="sacute" unicode="&#x15b;" horiz-adv-x="517" vert-adv-y="2457" 
d="M801 1231q20 0 37 -17q24 -24 24 -44q0 -49 -113 -106q-109 -56 -151 -56q-6 0 -40 10q-14 13 -18 16q-9 8 -9 25q0 9 22 19l29 15q100 48 164 105q17 15 23 20q13 13 32 13zM555 912q58 0 84 -58q14 -29 14 -63q0 -35 -17 -58q-18 -25 -39 -25q-14 0 -12 46q2 38 -26 38
q-23 0 -47 -56q-45 -103 -45 -270q0 -150 41 -306q17 -63 17 -86q0 -39 -32 -62q-25 -18 -69 -18q-99 0 -188 41q-71 33 -111 87q-30 42 -30 90q0 66 41 105q18 18 41 18t23 -24q0 -6 -4 -20q-8 -31 -8 -45q0 -64 61 -110q50 -37 124 -37q42 0 42 29q0 10 -11 48
q-54 178 -54 321q0 146 52 269q62 146 153 146z" />
    <glyph glyph-name="Scedilla" unicode="&#x15e;" horiz-adv-x="766" vert-adv-y="2457" 
d="M454 -5q-2 -3 -3 -4q-12 -19 -12 -34q0 -19 33 -57q38 -43 38 -92q0 -66 -67 -117q-59 -46 -122 -46q-53 0 -88 24q-15 10 -15 21q0 8 5 15q3 6 57 8q66 3 95 52q13 22 13 48q0 41 -39 74q-29 24 -29 46t40 85l-3 1q-124 54 -191 147q-38 52 -61 123q-27 81 -27 156
q0 113 111 198q91 70 154 70q44 0 44 -32q0 -21 -34 -30q-54 -13 -106 -65q-70 -69 -70 -144q0 -118 81 -220q51 -64 133 -101q66 -30 127 -30q55 0 88 25q52 40 52 152q0 108 -32 434q-31 322 -31 456q0 374 169 374q99 0 153 -95q33 -59 33 -134q0 -60 -24 -90
q-24 -29 -53 -29q-27 0 -27 28q0 6 1 13q3 29 3 47q0 127 -65 127q-25 0 -39 -33q-30 -71 -30 -240q0 -156 44 -721q6 -77 6 -132q0 -163 -97 -238q-62 -47 -153 -47q-20 0 -45 2z" />
    <glyph glyph-name="scedilla" unicode="&#x15f;" horiz-adv-x="517" vert-adv-y="2457" 
d="M396 -5v0q-16 -23 -16 -41t33 -56q38 -43 38 -92q0 -65 -67 -116q-59 -46 -122 -46q-53 0 -88 24q-15 10 -15 21q0 8 5 15q3 5 57 8q66 3 95 52q13 22 13 48q0 41 -39 73q-29 24 -29 46q0 20 22 55q5 9 11 18q2 3 5 8q-84 24 -138 71q-66 58 -66 129q0 66 41 105
q18 18 41 18t23 -24q0 -6 -4 -20q-8 -31 -8 -45q0 -64 61 -110q50 -37 123 -37q43 0 43 29q0 10 -11 48q-54 178 -54 324q0 189 86 331q50 81 117 81q60 0 86 -57q14 -30 14 -64q0 -35 -17 -58q-19 -25 -39 -25q-14 0 -12 46q2 38 -26 38q-23 0 -47 -56q-45 -103 -45 -270
q0 -151 41 -306q17 -63 17 -86q0 -49 -47 -71q-20 -9 -56 -9q-9 0 -26 1z" />
    <glyph glyph-name="Scaron" unicode="&#x160;" horiz-adv-x="766" vert-adv-y="2457" 
d="M344 713q43 0 43 -32q0 -21 -34 -30q-54 -13 -106 -65q-70 -69 -70 -148q0 -114 81 -216q51 -65 133 -101q66 -30 130 -30q52 0 85 25q52 39 52 158q0 104 -32 428q-31 317 -31 455q0 375 169 375q99 0 153 -95q33 -59 33 -135q0 -59 -24 -89q-24 -29 -53 -29
q-27 0 -27 28q0 6 1 13q3 29 3 47q0 127 -66 127q-68 0 -68 -309q0 -124 44 -685q6 -76 6 -133q0 -163 -98 -237q-61 -47 -152 -47q-114 0 -216 59q-102 58 -158 156q-64 113 -64 244q0 110 111 196q90 70 155 70zM853 1758q12 7 49 30q15 9 70 29q47 20 79 20q29 0 43 -11
q16 -12 16 -25q0 -9 -11 -18q-13 -14 -40 -25q-8 -3 -89 -59l-39 -35q-39 -33 -47 -41q-27 -28 -58 -28q-45 0 -62 20q-7 8 -14 45q-9 51 -39 108q-19 37 -21 40q-8 18 -14 24q-10 9 -10 26q0 19 22 19q35 0 62 -16q23 -13 53 -44q25 -23 30 -31q17 -30 20 -28z" />
    <glyph glyph-name="scaron" unicode="&#x161;" horiz-adv-x="517" vert-adv-y="2457" 
d="M636 1174q13 7 49 30q15 9 71 29q47 20 78 20q29 0 43 -11q16 -12 16 -24q0 -10 -11 -19q-13 -14 -40 -25q-7 -3 -88 -59l-39 -34l-40 -34q-24 -24 -29 -26q-20 -9 -45 -9q-17 0 -42 13q-17 8 -25 51q-9 52 -39 108q-20 38 -21 40q-8 18 -14 24q-10 9 -10 26q0 19 22 19
q35 0 61 -16q23 -13 54 -44q25 -23 29 -31q17 -30 20 -28zM555 912q58 0 84 -58q14 -29 14 -63q0 -35 -17 -58q-18 -25 -39 -25q-14 0 -12 46q2 38 -26 38q-23 0 -47 -56q-45 -103 -45 -270q0 -150 41 -306q17 -63 17 -86q0 -39 -32 -62q-25 -18 -69 -18q-99 0 -188 41
q-71 33 -111 87q-30 42 -30 90q0 66 41 105q18 18 41 18t23 -24q0 -6 -4 -20q-8 -31 -8 -45q0 -64 61 -110q50 -37 124 -37q42 0 42 29q0 10 -11 48q-54 178 -54 321q0 146 52 269q62 146 153 146z" />
    <glyph glyph-name="Tcommaaccent" unicode="&#x162;" horiz-adv-x="1108" vert-adv-y="2457" 
d="M542 -151q22 0 42 -17q22 -19 21 -42q-4 -70 -121 -206q-39 -46 -64 -59q-20 -11 -44 -11q-34 0 -34 20q0 10 32 48q42 51 86 139q23 47 37 93q11 35 45 35zM1025 1323l-40 -12l-39 -12q-124 -36 -273 -90q-78 -28 -110 -63q-31 -33 -55 -44q-95 -40 -150 -40
q-29 0 -55 33q-28 36 -28 63q0 20 22 32q24 13 161 57t263 80q216 62 466 122q248 59 458 59q84 0 113 -23q11 -9 11 -18q0 -23 -54 -25q-37 -1 -199 -19q-197 -22 -417 -80q23 -32 23 -49q0 -13 -14 -41q-9 -20 -47 -112q-14 -32 -44 -101q-216 -483 -325 -823
q-26 -82 -34 -130q-16 -95 -57 -95q-17 0 -33 19q-17 21 -17 49q0 66 21 140q12 39 61 190q9 30 217 524l150 364q4 9 25 45z" />
    <glyph glyph-name="tcommaaccent" unicode="&#x163;" horiz-adv-x="306" vert-adv-y="2457" 
d="M74 -151q22 0 42 -17q22 -19 21 -42q-4 -70 -120 -206q-39 -46 -64 -59q-20 -11 -44 -11q-34 0 -34 20q0 10 31 48q43 52 86 139q24 47 38 93q11 35 44 35zM506 868q22 4 33 7q106 20 136 31q48 16 56 16q16 0 16 -12q0 -16 -19 -30q-87 -62 -271 -112
q-161 -339 -222 -514q-35 -103 -35 -169q0 -20 9 -42q6 -14 6 -21q0 -28 -30 -28q-22 0 -41 18q-32 29 -32 108q0 142 107 383q48 107 112 241q-39 -5 -84 -5q-59 0 -78 15q-13 10 -13 30q0 29 19 50q14 14 32 13q4 0 16 -2q21 -3 55 -3q33 0 104 7q62 131 95 195
q88 166 106 227q16 52 46 52q19 0 40 -16q34 -28 34 -61q0 -10 -52 -100q-43 -73 -145 -278z" />
    <glyph glyph-name="Tcaron" unicode="&#x164;" horiz-adv-x="1108" vert-adv-y="2457" 
d="M1133 1664q12 7 48 30q15 9 71 29q47 20 79 20q29 0 42 -11q17 -13 17 -25q0 -9 -12 -18q-12 -14 -39 -25q-8 -4 -89 -59l-39 -35q-38 -33 -47 -42q-26 -26 -64 -26q-33 0 -52 19q-12 11 -18 44q-9 51 -39 108q-19 37 -21 41q-8 18 -14 24q-10 9 -10 26q0 19 22 19
q35 0 61 -16q24 -13 54 -44q25 -23 30 -31q17 -30 20 -28zM1025 1323l-40 -12l-39 -12q-124 -36 -273 -90q-78 -28 -110 -63q-31 -33 -55 -44q-95 -40 -150 -40q-29 0 -55 33q-28 36 -28 63q0 20 22 32q24 13 161 57t263 80q216 62 466 122q248 59 458 59q84 0 113 -23
q11 -9 11 -18q0 -23 -54 -25q-37 -1 -199 -19q-197 -22 -417 -80q23 -32 23 -49q0 -13 -14 -41q-9 -20 -47 -112q-14 -32 -44 -101q-216 -483 -325 -823q-26 -82 -34 -130q-16 -95 -57 -95q-17 0 -33 19q-17 21 -17 49q0 66 21 140q12 39 61 190q9 30 217 524l150 364
q4 9 25 45z" />
    <glyph glyph-name="tcaron" unicode="&#x165;" horiz-adv-x="306" vert-adv-y="2457" 
d="M955 1435q22 0 42 -17q22 -19 21 -42q-4 -70 -121 -205q-39 -46 -64 -59q-20 -11 -44 -11q-34 0 -34 20q0 10 9 20q105 126 146 259q11 35 45 35zM506 868q22 4 33 7q107 21 137 31q48 16 55 16q17 0 17 -12q0 -16 -19 -30q-86 -62 -272 -112q-160 -336 -221 -514
q-36 -103 -36 -169q0 -20 9 -42q6 -14 6 -21q0 -28 -30 -28q-22 0 -41 18q-32 30 -32 108q0 142 107 383q44 98 113 241q-39 -5 -84 -5q-59 0 -78 15q-13 10 -13 30q0 29 19 50q13 14 32 13q4 0 16 -2q21 -3 55 -3q32 0 103 7q62 131 96 195q88 166 106 227q16 52 46 52
q19 0 40 -16q34 -28 34 -61q0 -10 -7 -21q-83 -142 -191 -357z" />
    <glyph glyph-name="Utilde" unicode="&#x168;" horiz-adv-x="946" vert-adv-y="0" 
d="M949 1738q-39 0 -68 -19q-44 -30 -51 -37q-10 -10 -22 -10q-36 0 -36 31q0 48 56 93q45 36 86 47q27 7 72 7q32 0 61 -18q43 -26 66 -52q36 -40 66 -40q6 0 22 6q31 12 61 36q18 15 36 15q10 0 18 -9q13 -14 13 -36q0 -35 -42 -70q-66 -55 -121 -55q-24 0 -72 19
q-22 8 -63 48q-45 44 -82 44zM772 424q-315 -431 -480 -431q-54 0 -89 43q-41 51 -41 143q0 118 74 311q58 152 179 415q176 383 197 490q6 28 37 28q40 0 72 -34q19 -19 18 -38q-5 -98 -140 -320q-21 -35 -154 -333q-107 -242 -150 -456q-6 -27 -6 -60q0 -65 37 -65
q47 0 138 81q186 168 371 477q75 128 213 417q88 185 109 239q28 73 39 83q12 11 30 11q24 0 44 -17q29 -23 29 -53q0 -56 -112 -245q-73 -122 -193 -413q-51 -122 -76 -202q-47 -149 -47 -269q0 -89 28 -179q10 -30 24 -54q10 -16 10 -25q0 -24 -27 -24q-40 0 -74 34
q-79 76 -79 269q0 73 19 177z" />
    <glyph glyph-name="utilde" unicode="&#x169;" horiz-adv-x="816" vert-adv-y="0" 
d="M677 1138q-39 0 -68 -19q-44 -30 -51 -37q-10 -10 -22 -10q-36 0 -36 31q0 48 56 93q45 36 86 47q27 7 72 7q32 0 61 -18q43 -26 66 -52q36 -40 66 -40q6 0 22 6q31 12 61 36q18 15 36 15q10 0 18 -9q13 -14 13 -36q0 -35 -42 -70q-66 -55 -121 -55q-24 0 -72 19
q-22 8 -63 48q-45 44 -82 44zM647 407q-155 -196 -213 -262q-133 -151 -213 -151q-93 0 -93 122q0 119 85 334q16 39 126 265q53 111 78 126q11 7 26 7q24 0 45 -17q18 -15 18 -36q0 -10 -7 -22q-67 -110 -139 -261q-119 -249 -119 -346q0 -42 22 -42t82 60q97 96 218 254
q129 170 180 254q74 125 82 133q8 9 23 9q26 0 51 -25q24 -24 24 -51q0 -21 -49 -100q-68 -109 -113 -266q-31 -105 -31 -178q0 -111 65 -175q13 -13 13 -26q0 -15 -10 -23q-13 -10 -28 -10q-22 0 -42 16q-104 83 -104 249q0 63 23 162z" />
    <glyph glyph-name="Umacron" unicode="&#x16a;" horiz-adv-x="946" vert-adv-y="2457" 
d="M852 1708q9 0 22 -5q36 -14 95 -14q106 0 232 33q18 5 30 5q21 0 21 -16q0 -21 -25 -38q-67 -44 -172 -65q-63 -13 -125 -13q-112 0 -112 62q0 51 34 51zM772 424q-315 -431 -480 -431q-54 0 -89 43q-41 51 -41 143q0 118 74 311q58 152 179 415q176 383 197 490
q6 28 37 28q40 0 72 -34q19 -19 18 -38q-5 -98 -140 -320q-21 -35 -154 -333q-107 -242 -150 -456q-6 -27 -6 -60q0 -65 37 -65q47 0 138 81q186 168 371 477q75 128 213 417q88 185 109 239q28 73 39 83q12 11 30 11q24 0 44 -17q29 -23 29 -53q0 -56 -112 -245
q-73 -122 -193 -413q-51 -122 -76 -202q-47 -149 -47 -269q0 -89 28 -179q10 -30 24 -54q10 -16 10 -25q0 -24 -27 -24q-40 0 -74 34q-79 76 -79 269q0 73 19 177z" />
    <glyph glyph-name="umacron" unicode="&#x16b;" horiz-adv-x="826" vert-adv-y="2457" 
d="M563 1126q9 0 22 -5q36 -14 95 -14q106 0 232 33q17 5 30 5q21 0 21 -16q0 -21 -25 -38q-67 -44 -173 -65q-62 -13 -124 -13q-112 0 -112 62q0 51 34 51zM647 407q-155 -196 -213 -262q-133 -151 -213 -151q-93 0 -93 122q0 119 85 334q16 39 126 265q53 111 78 126
q11 7 26 7q24 0 45 -17q18 -15 18 -36q0 -10 -7 -22q-67 -110 -139 -261q-119 -249 -119 -346q0 -42 22 -42t82 60q97 96 218 254q129 170 180 254q74 125 82 133q8 9 23 9q26 0 51 -25q24 -24 24 -51q0 -21 -49 -100q-68 -109 -113 -266q-31 -105 -31 -178q0 -111 65 -175
q13 -13 13 -26q0 -15 -10 -23q-13 -10 -28 -10q-22 0 -42 16q-104 83 -104 249q0 63 23 162z" />
    <glyph glyph-name="Uring" unicode="&#x16e;" horiz-adv-x="946" vert-adv-y="2457" 
d="M1179 1758h5h4q11 0 26 -26q5 -9 5 -27q0 -20 -14 -57q-16 -41 -58 -71q-54 -38 -130 -38q-86 0 -124 54q-25 35 -25 80q0 64 64 124q65 61 151 61q60 0 92 -31q15 -15 15 -38q0 -9 -11 -31zM1163 1749h-4h-9h-5h-7q-6 0 -14 4q-11 7 -46 7q-43 0 -67 -22
q-4 -4 -14 -17.5t-10 -14.5v-17v-14q0 -40 67 -40q31 0 55 22q16 14 30 35t14 32v5q0 3 5 10q1 2 1 5q0 5 1 5h3zM772 424q-315 -431 -480 -431q-54 0 -89 43q-41 51 -41 143q0 118 74 311q58 152 179 415q176 383 197 490q6 28 37 28q40 0 72 -34q19 -19 18 -38
q-5 -98 -140 -320q-21 -35 -154 -333q-107 -242 -150 -456q-6 -27 -6 -60q0 -65 37 -65q47 0 138 81q186 168 371 477q75 128 213 417q88 185 109 239q28 73 39 83q12 11 30 11q24 0 44 -17q29 -23 29 -53q0 -56 -112 -245q-73 -122 -193 -413q-51 -122 -76 -202
q-47 -149 -47 -269q0 -89 28 -179q10 -30 24 -54q10 -16 10 -25q0 -24 -27 -24q-40 0 -74 34q-79 76 -79 269q0 73 19 177z" />
    <glyph glyph-name="uring" unicode="&#x16f;" horiz-adv-x="828" vert-adv-y="2457" 
d="M894 1237h5h4q12 0 26 -26q5 -9 5 -26q0 -20 -14 -57q-16 -41 -58 -71q-54 -38 -130 -38q-86 0 -124 53q-25 35 -25 81q0 64 64 124q65 61 150 61q60 0 92 -32q15 -14 15 -37q0 -9 -10 -32zM878 1228h-4h-9h-5h-7q-6 0 -14 5q-12 7 -46 7q-43 0 -67 -22q-4 -4 -14 -17.5
t-10 -15.5v-16v-15q0 -39 67 -39q31 0 55 21q16 14 29.5 35.5t13.5 31.5v5q0 3 6 10q1 2 1 5q0 5 2 5h2zM647 407q-155 -196 -213 -262q-133 -151 -213 -151q-93 0 -93 122q0 119 85 334q16 39 126 265q53 111 78 126q11 7 26 7q24 0 45 -17q18 -15 18 -36q0 -10 -7 -22
q-67 -110 -139 -261q-119 -249 -119 -346q0 -42 22 -42t82 60q97 96 218 254q129 170 180 254q74 125 82 133q8 9 23 9q26 0 51 -25q24 -24 24 -51q0 -21 -49 -100q-68 -109 -113 -266q-31 -105 -31 -178q0 -111 65 -175q13 -13 13 -26q0 -15 -10 -23q-13 -10 -28 -10
q-22 0 -42 16q-104 83 -104 249q0 63 23 162z" />
    <glyph glyph-name="Uhungarumlaut" unicode="&#x170;" horiz-adv-x="946" vert-adv-y="2457" 
d="M1024 1820q21 0 45 -17q32 -23 32 -48q0 -50 -118 -137q-30 -22 -66 -39q-21 -9 -27 -9h-2q-11 1 -15 2q-18 1 -39 12q-24 12 -24 29q0 6 15 17l23 20q43 32 58 48q7 7 51 54q29 43 30 45q12 23 37 23zM1278 1817q22 0 46 -17q32 -22 32 -47q0 -51 -118 -137
q-30 -22 -67 -39q-21 -9 -27 -9h-2q-11 1 -14 2q-19 0 -40 12q-24 12 -24 29q0 6 15 17l23 19q43 32 59 49q7 7 50 53q29 42 30 45q13 23 37 23zM772 424q-315 -431 -480 -431q-54 0 -89 43q-41 51 -41 143q0 118 74 311q58 152 179 415q176 383 197 490q6 28 37 28
q40 0 72 -34q19 -19 18 -38q-5 -98 -140 -320q-21 -35 -154 -333q-107 -242 -150 -456q-6 -27 -6 -60q0 -65 37 -65q47 0 138 81q186 168 371 477q75 128 213 417q88 185 109 239q28 73 39 83q12 11 30 11q24 0 44 -17q29 -23 29 -53q0 -56 -112 -245q-73 -122 -193 -413
q-51 -122 -76 -202q-47 -149 -47 -269q0 -89 28 -179q10 -30 24 -54q10 -16 10 -25q0 -24 -27 -24q-40 0 -74 34q-79 76 -79 269q0 73 19 177z" />
    <glyph glyph-name="uhungarumlaut" unicode="&#x171;" horiz-adv-x="828" vert-adv-y="2457" 
d="M745 1233q22 0 46 -17q32 -23 32 -47q0 -51 -118 -137q-30 -22 -67 -39q-21 -9 -27 -9h-2q-11 1 -14 2q-19 1 -40 12q-24 12 -24 29q0 5 15 17l23 19q43 32 59 49q7 7 51 53q29 44 29 45q13 23 37 23zM999 1231q22 0 46 -17q32 -23 32 -48q0 -50 -118 -137
q-30 -22 -67 -39q-21 -9 -27 -9h-2q-11 1 -14 2q-19 1 -40 12q-24 12 -24 29q0 6 15 17l23 20q100 75 139 147q13 23 37 23zM647 407q-155 -196 -213 -262q-133 -151 -213 -151q-93 0 -93 122q0 119 85 334q16 39 126 265q53 111 78 126q11 7 26 7q24 0 45 -17
q18 -15 18 -36q0 -10 -7 -22q-67 -110 -139 -261q-119 -249 -119 -346q0 -42 22 -42t82 60q97 96 218 254q129 170 180 254q74 125 82 133q8 9 23 9q26 0 51 -25q24 -24 24 -51q0 -21 -49 -100q-68 -109 -113 -266q-31 -105 -31 -178q0 -111 65 -175q13 -13 13 -26
q0 -15 -10 -23q-13 -10 -28 -10q-22 0 -42 16q-104 83 -104 249q0 63 23 162z" />
    <glyph glyph-name="Uogonek" unicode="&#x172;" horiz-adv-x="946" vert-adv-y="2457" 
d="M828 -20q-75 81 -75 267q0 74 19 177q-315 -431 -480 -431q-54 0 -89 43q-41 51 -41 143q0 118 74 311q58 152 179 415q176 383 197 490q6 28 37 28q40 0 72 -34q19 -19 18 -38q-5 -98 -140 -320q-21 -35 -154 -333q-107 -242 -150 -456q-6 -27 -6 -60q0 -65 37 -65
q47 0 138 81q186 168 371 477q75 128 213 417q88 185 109 239q28 73 39 83q12 11 30 11q24 0 44 -17q29 -23 29 -53q0 -56 -112 -245q-72 -120 -194 -413q-122 -294 -122 -472q0 -89 28 -179q10 -29 24 -53q10 -17 10 -28q0 -17 -14 -23t-30 -36q-20 -36 -20 -73
q0 -38 28 -66q20 -21 86 -49q16 -6 16 -23q0 -35 -63 -35q-42 0 -83 24q-43 24 -68 74q-20 40 -20 81q0 74 64 136l-4 5h3z" />
    <glyph glyph-name="uogonek" unicode="&#x173;" horiz-adv-x="828" vert-adv-y="2457" 
d="M647 407q-155 -196 -213 -262q-133 -151 -213 -151q-93 0 -93 122q0 119 85 334q16 39 126 265q53 111 78 126q11 7 26 7q24 0 45 -17q18 -15 18 -35q0 -11 -7 -23q-67 -111 -139 -261q-119 -249 -119 -345q0 -43 22 -43t82 60q97 96 218 254q129 170 180 254
q74 125 82 133q8 9 23 9q26 0 51 -25q24 -24 24 -51q0 -21 -49 -100q-68 -109 -113 -266q-31 -105 -31 -178q0 -111 64 -175q14 -13 14 -25q0 -13 -14 -33q-33 -48 -33 -88q0 -41 29 -70q20 -21 86 -49q16 -6 16 -23q0 -35 -61 -35q-44 0 -85 24q-43 24 -68 73
q-20 41 -20 83q0 63 48 119q-82 84 -82 230q0 70 23 162z" />
    <glyph glyph-name="Ydieresis" unicode="&#x178;" horiz-adv-x="542" vert-adv-y="2457" 
d="M932 1768q29 0 50 -28q22 -29 22 -49q0 -30 -31 -62q-35 -38 -72 -38q-30 0 -55 17q-31 19 -31 55q0 45 46 79q35 26 71 26zM685 1781q18 0 41 -17q27 -20 27 -52q0 -44 -27 -69q-38 -37 -75 -37q-29 0 -53 16q-33 21 -33 64q0 35 44 70q32 25 76 25zM431 689
q189 324 405 573q150 173 191 195q12 6 23 6q27 0 52 -30q16 -20 16 -40q0 -15 -14 -28q-142 -127 -226 -228q-253 -303 -453 -689q-159 -309 -205 -517q-6 -27 -22 -27q-14 0 -27 17q-17 23 -17 50q0 99 77 303q50 133 157 339q-38 66 -50 95q-40 103 -40 262l40 462v12
q0 26 26 26q44 0 79 -33q23 -21 23 -43q0 -13 -14 -99q-43 -269 -43 -454q0 -79 22 -152z" />
    <glyph glyph-name="Zacute" unicode="&#x179;" horiz-adv-x="895" vert-adv-y="2457" 
d="M1040 1822q20 0 37 -17q24 -24 24 -44q0 -50 -113 -107q-111 -56 -152 -56q-6 0 -40 10q-14 13 -18 16q-9 8 -9 25q0 9 22 19l29 16q121 56 183 121q17 17 37 17zM235 113q163 46 314 46q181 0 300 -63q36 -20 36 -49q0 -25 -35 -25q-11 0 -36 8q-97 30 -198 30
q-176 0 -338 -52q-45 -15 -56 -15q-30 0 -62 30q-49 46 -49 101q0 36 40 97t99 125q61 68 245 258q630 653 630 735q0 24 -32 24q-10 0 -64 -18q-191 -65 -324 -65q-76 0 -118 36q-37 31 -37 69q0 36 37 36q8 0 32 -7q50 -14 88 -14q63 0 211 30q130 27 209 27q56 0 85 -28
q24 -23 24 -61q0 -104 -186 -329q-56 -67 -174 -194q-167 -181 -252 -267q-325 -329 -379 -434q-6 -11 -10 -31z" />
    <glyph glyph-name="zacute" unicode="&#x17a;" horiz-adv-x="613" vert-adv-y="2457" 
d="M753 1223q19 0 37 -17q24 -24 24 -44q0 -50 -113 -107q-111 -56 -151 -56q-6 0 -40 10q-14 13 -18 16q-9 8 -9 25q0 9 22 19l29 16q52 24 72 37l66 44l26 23q17 15 23 21q14 13 32 13zM183 106q124 24 198 24q123 0 206 -42q71 -36 71 -75q0 -29 -26 -29q-10 0 -28 10
q-71 39 -191 39q-140 0 -244 -30q-32 -10 -49 -10q-35 0 -62 43q-14 22 -14 44q0 25 28 56q25 29 130 118q275 232 402 377q78 90 78 115q0 13 -19 13q-12 0 -52 -19q-59 -27 -132 -43q-32 -7 -52 -7q-37 0 -58 25q-20 23 -20 51q0 49 41 49q1 0 44 -8q14 -3 28 -3
q35 0 128 26q81 22 111 22q25 0 45 -13q40 -25 40 -83q0 -101 -158 -252q-103 -100 -332 -291q-68 -58 -113 -107z" />
    <glyph glyph-name="Zdotaccent" unicode="&#x17b;" horiz-adv-x="895" vert-adv-y="2457" 
d="M890 1785q29 0 50 -28q22 -28 22 -49q0 -29 -31 -61q-35 -38 -72 -38q-30 0 -56 17q-30 19 -30 54q0 45 46 79q35 26 71 26zM235 113q163 46 314 46q181 0 300 -63q36 -20 36 -49q0 -25 -35 -25q-11 0 -36 8q-97 30 -198 30q-176 0 -338 -52q-45 -15 -56 -15
q-30 0 -62 30q-49 46 -49 101q0 36 40 97t99 125q61 68 245 258q630 653 630 735q0 24 -32 24q-10 0 -64 -18q-191 -65 -324 -65q-76 0 -118 36q-37 31 -37 69q0 36 37 36q8 0 32 -7q50 -14 88 -14q63 0 211 30q130 27 209 27q56 0 85 -28q24 -23 24 -61q0 -104 -186 -329
q-56 -67 -174 -194q-167 -181 -252 -267q-325 -329 -379 -434q-6 -11 -10 -31z" />
    <glyph glyph-name="zdotaccent" unicode="&#x17c;" horiz-adv-x="613" vert-adv-y="2457" 
d="M609 1188q29 0 50 -28q22 -29 22 -49q0 -30 -31 -62q-35 -38 -72 -38q-30 0 -55 17q-31 20 -31 55q0 45 46 79q35 26 71 26zM183 106q124 24 198 24q123 0 206 -42q71 -36 71 -75q0 -29 -26 -29q-10 0 -28 10q-71 39 -191 39q-140 0 -244 -30q-32 -10 -49 -10
q-35 0 -62 43q-14 22 -14 44q0 25 28 56q25 29 130 118q275 232 402 377q78 90 78 115q0 13 -19 13q-12 0 -52 -19q-59 -27 -132 -43q-32 -7 -52 -7q-37 0 -58 25q-20 23 -20 51q0 49 41 49q1 0 44 -8q14 -3 28 -3q35 0 128 26q81 22 111 22q25 0 45 -13q40 -25 40 -83
q0 -101 -158 -252q-103 -100 -332 -291q-68 -58 -113 -107z" />
    <glyph glyph-name="Zcaron" unicode="&#x17d;" horiz-adv-x="895" vert-adv-y="2457" 
d="M906 1755q12 7 49 30q14 9 70 29q47 20 79 20q29 0 42 -11q17 -13 17 -25q0 -9 -11 -18q-13 -14 -40 -25q-8 -4 -89 -59l-39 -35q-38 -32 -57 -50q-21 -19 -51 -19q-34 0 -55 21q-12 12 -18 43q-9 52 -39 109q-19 37 -21 40q-8 18 -14 24q-10 9 -10 26q0 19 22 19
q35 0 62 -16q23 -13 53 -44q25 -23 30 -31q17 -30 20 -28zM235 113q163 46 314 46q181 0 300 -63q36 -20 36 -49q0 -25 -35 -25q-11 0 -36 8q-97 30 -198 30q-176 0 -338 -52q-45 -15 -56 -15q-30 0 -62 30q-49 46 -49 101q0 36 40 97t99 125q61 68 245 258q630 653 630 735
q0 24 -32 24q-10 0 -64 -18q-191 -65 -324 -65q-76 0 -118 36q-37 31 -37 69q0 36 37 36q8 0 32 -7q50 -14 88 -14q63 0 211 30q130 27 209 27q56 0 85 -28q24 -23 24 -61q0 -104 -186 -329q-56 -67 -174 -194q-167 -181 -252 -267q-325 -329 -379 -434q-6 -11 -10 -31z" />
    <glyph glyph-name="zcaron" unicode="&#x17e;" horiz-adv-x="613" vert-adv-y="2457" 
d="M609 1172q12 7 49 30q15 9 70 29q47 20 79 20q29 0 42 -11q17 -12 17 -24q0 -10 -12 -19q-12 -14 -39 -25q-8 -3 -89 -59l-39 -34l-39 -34q-22 -22 -26 -24q-17 -11 -42 -11q-47 0 -65 30q-3 5 -9 34q-9 52 -39 108q-19 37 -21 40q-8 18 -14 24q-10 9 -10 26q0 19 22 19
q35 0 62 -16q23 -13 53 -44q25 -23 30 -31q17 -30 20 -28zM183 106q124 24 198 24q123 0 206 -42q71 -36 71 -75q0 -29 -26 -29q-10 0 -28 10q-71 39 -191 39q-140 0 -244 -30q-32 -10 -49 -10q-35 0 -62 43q-14 22 -14 44q0 25 28 56q25 29 130 118q275 232 402 377
q78 90 78 115q0 13 -19 13q-12 0 -52 -19q-59 -27 -132 -43q-32 -7 -52 -7q-37 0 -58 25q-20 23 -20 51q0 49 41 49q1 0 44 -8q14 -3 28 -3q35 0 128 26q81 22 111 22q25 0 45 -13q40 -25 40 -83q0 -101 -158 -252q-103 -100 -332 -291q-68 -58 -113 -107z" />
    <glyph glyph-name="florin" unicode="&#x192;" horiz-adv-x="646" vert-adv-y="2457" 
d="M658 689l-137 -320q-140 -325 -202 -441q-89 -167 -152 -252q-56 -75 -97 -102q-35 -23 -73 -23t-62 34q-27 39 -27 102q0 99 67 203q45 69 88 90q8 4 16 4q11 0 11 -13q0 -11 -54 -99q-29 -48 -41 -117q-3 -21 -3 -38q0 -32 10 -53q8 -16 21 -16q28 0 90 105
q102 172 214 439l208 478q-29 -2 -43 -2q-92 0 -92 64q0 51 39 51q12 0 50 -3q18 -2 40 -2q15 0 55 2q117 253 209 407q142 237 242 237q39 0 63 -35q27 -38 27 -101q0 -99 -67 -204q-45 -69 -88 -90q-8 -4 -16 -4q-11 0 -11 13q0 11 54 99q29 49 41 118q3 21 3 38
q0 32 -10 53q-9 16 -21 16q-58 0 -307 -538q120 12 236 36q12 3 21 3q24 0 24 -16q0 -15 -22 -26q-112 -54 -304 -97z" />
    <glyph glyph-name="Ohorn" unicode="&#x1a0;" horiz-adv-x="809" vert-adv-y="0" 
d="M1031 1311q8 -24 15 -52q22 -88 22 -186q0 -291 -125 -569q-85 -191 -218 -330q-174 -181 -327 -181q-52 0 -101 31q-91 57 -91 193q0 117 67 318q62 189 170 387q117 217 197 320l3 3q2 4 5 5t3 3q53 239 195 239q78 0 134 -73q17 -22 31 -53q27 33 49 77q16 39 25 69
q7 24 31 24q15 0 29 -12q15 -14 15 -30q-3 -48 -85 -141q-22 -24 -44 -42zM640 1053q-141 -259 -214 -461q-93 -259 -93 -393q0 -60 28 -88q17 -16 37 -16q130 0 295 210q143 183 215 406q59 181 59 363q0 168 -51 259q-28 50 -63 50q-33 0 -65 -63q-50 -96 -50 -250
q0 -78 27 -178q4 -15 4 -22q0 -23 -22 -23q-85 0 -107 206z" />
    <glyph glyph-name="ohorn" unicode="&#x1a1;" horiz-adv-x="656" vert-adv-y="0" 
d="M738 728q16 -48 16 -104q0 -81 -37 -186q-72 -208 -219 -345q-108 -100 -213 -100q-97 0 -139 86q-20 41 -20 95q0 132 82 280q60 110 136 186q49 50 101 66q0 32 29 69q53 67 127 67q72 0 113 -64q28 34 50 78q16 39 25 69q7 24 31 24q15 0 29 -12q15 -14 15 -30
q-3 -48 -85 -141q-22 -24 -41 -38zM514 689q0 -22 -25 -42q-72 -56 -139 -166q-102 -169 -102 -303q0 -86 60 -86q89 0 205 163q131 184 131 345q0 66 -19 111q-16 38 -48 38t-44 -24q-14 -28 -19 -36z" />
    <glyph glyph-name="Uhorn" unicode="&#x1af;" horiz-adv-x="946" vert-adv-y="0" 
d="M1282 1291q-23 -60 -95 -181q-73 -122 -193 -413q-51 -122 -76 -202q-47 -149 -47 -269q0 -89 28 -179q10 -30 24 -54q10 -16 10 -25q0 -24 -27 -24q-40 0 -74 34q-79 76 -79 269q0 73 19 177q-315 -431 -480 -431q-54 0 -89 43q-41 51 -41 143q0 118 74 311
q58 152 179 415q176 383 197 490q6 28 37 28q40 0 72 -34q19 -19 18 -38q-5 -98 -140 -320q-21 -35 -154 -333q-107 -242 -150 -456q-6 -27 -6 -60q0 -65 37 -65q47 0 138 81q186 168 371 477q75 128 213 417q88 185 109 239q28 73 39 83q12 11 30 11q24 0 44 -17
q17 -14 24 -30q18 21 40 65q16 39 25 69q7 24 31 24q15 0 29 -12q15 -14 15 -30q-3 -48 -85 -141q-22 -24 -67 -62z" />
    <glyph glyph-name="uhorn" unicode="&#x1b0;" horiz-adv-x="816" vert-adv-y="0" 
d="M902 705q-12 -21 -28 -47q-68 -109 -113 -266q-31 -105 -31 -178q0 -111 65 -175q13 -13 13 -26q0 -15 -10 -23q-13 -10 -28 -10q-22 0 -42 16q-104 83 -104 249q0 63 23 162q-155 -196 -213 -262q-133 -151 -213 -151q-93 0 -93 122q0 119 85 334q16 39 126 265
q53 111 78 126q11 7 26 7q24 0 45 -17q18 -15 18 -36q0 -10 -7 -22q-67 -110 -139 -261q-119 -249 -119 -346q0 -42 22 -42t82 60q97 96 218 254q129 170 180 254q74 125 82 133q8 9 23 9q26 0 51 -25q9 -9 14 -17q19 20 41 64q16 39 25 69q7 24 31 24q15 0 29 -12
q15 -14 15 -30q-3 -48 -85 -141q-22 -24 -67 -61z" />
    <glyph glyph-name="uni01D3" unicode="&#x1d3;" horiz-adv-x="946" vert-adv-y="2457" 
d="M1018 1734q12 7 49 30q15 9 70 29q48 20 79 20q29 0 43 -11q16 -12 16 -24q0 -10 -11 -19q-13 -14 -40 -25q-8 -3 -89 -59l-39 -34l-39 -34q-24 -24 -30 -26q-20 -9 -44 -9q-17 0 -43 13q-17 8 -25 51q-9 52 -39 108q-19 37 -21 40q-8 18 -14 24q-10 9 -10 26q0 19 22 19
q35 0 62 -16q22 -13 53 -44q25 -23 30 -31q17 -30 20 -28zM772 424q-315 -431 -480 -431q-54 0 -89 43q-41 51 -41 143q0 118 74 311q58 152 179 415q176 383 197 490q6 28 37 28q40 0 72 -34q19 -19 18 -38q-5 -98 -140 -320q-21 -35 -154 -333q-107 -242 -150 -456
q-6 -27 -6 -60q0 -65 37 -65q47 0 138 81q186 168 371 477q75 128 213 417q88 185 109 239q28 73 39 83q12 11 30 11q24 0 44 -17q29 -23 29 -53q0 -56 -112 -245q-73 -122 -193 -413q-51 -122 -76 -202q-47 -149 -47 -269q0 -89 28 -179q10 -30 24 -54q10 -16 10 -25
q0 -24 -27 -24q-40 0 -74 34q-79 76 -79 269q0 73 19 177z" />
    <glyph glyph-name="Scommaaccent" unicode="&#x218;" horiz-adv-x="908" vert-adv-y="2457" 
d="M486 713q43 0 43 -32q0 -21 -34 -30q-54 -13 -106 -65q-70 -69 -70 -148q0 -114 81 -216q51 -65 133 -101q66 -30 130 -30q52 0 85 25q52 39 52 158q0 104 -32 428q-31 317 -31 455q0 375 169 375q99 0 153 -95q33 -59 33 -135q0 -59 -24 -89q-24 -29 -53 -29
q-27 0 -27 28q0 6 1 13q3 29 3 47q0 127 -66 127q-68 0 -68 -309q0 -124 44 -685q6 -76 6 -133q0 -163 -98 -237q-61 -47 -152 -47q-114 0 -216 59q-102 58 -158 156q-64 113 -64 244q0 110 111 196q90 70 155 70zM579 -151q23 0 43 -17q22 -19 21 -42q-4 -70 -121 -206
q-39 -46 -64 -59q-20 -11 -44 -11q-34 0 -34 20q0 10 32 48q42 51 86 139q23 48 37 93q11 35 44 35z" />
    <glyph glyph-name="scommaaccent" unicode="&#x219;" horiz-adv-x="517" vert-adv-y="2457" 
d="M230 -151q22 0 42 -17q22 -19 21 -42q-4 -70 -120 -206q-39 -46 -64 -59q-20 -11 -44 -11q-34 0 -34 20q0 10 31 48q43 52 86 139q24 47 38 93q11 35 44 35zM556 912q58 0 84 -58q14 -29 14 -63q0 -35 -17 -58q-19 -25 -40 -25q-13 0 -13 21q0 3 2 25q1 11 -5 24
q-7 14 -21 14q-23 0 -47 -56q-45 -103 -45 -270q0 -150 41 -306q17 -63 17 -86q0 -38 -32 -62q-25 -18 -69 -18q-100 0 -189 41q-71 33 -111 87q-30 42 -30 90q0 66 41 105q18 18 41 18t23 -24q0 -6 -4 -20q-8 -30 -8 -45q0 -64 61 -110q51 -37 125 -37q42 0 42 29
q0 10 -11 48q-54 178 -54 321q0 146 52 269q62 146 153 146z" />
    <glyph glyph-name="uni021A" unicode="&#x21a;" horiz-adv-x="1108" vert-adv-y="2457" 
d="M542 -151q22 0 42 -17q22 -19 21 -42q-4 -70 -121 -206q-39 -46 -64 -59q-20 -11 -44 -11q-34 0 -34 20q0 10 32 48q42 51 86 139q23 47 37 93q11 35 45 35zM1025 1323l-40 -12l-39 -12q-124 -36 -273 -90q-78 -28 -110 -63q-31 -33 -55 -44q-95 -40 -150 -40
q-29 0 -55 33q-28 36 -28 63q0 20 22 32q24 13 161 57t263 80q216 62 466 122q248 59 458 59q84 0 113 -23q11 -9 11 -18q0 -23 -54 -25q-37 -1 -199 -19q-197 -22 -417 -80q23 -32 23 -49q0 -13 -14 -41q-9 -20 -47 -112q-14 -32 -44 -101q-216 -483 -325 -823
q-26 -82 -34 -130q-16 -95 -57 -95q-17 0 -33 19q-17 21 -17 49q0 66 21 140q12 39 61 190q9 30 217 524l150 364q4 9 25 45z" />
    <glyph glyph-name="uni021B" unicode="&#x21b;" horiz-adv-x="306" vert-adv-y="2457" 
d="M74 -151q22 0 42 -17q22 -19 21 -42q-4 -70 -120 -206q-39 -46 -64 -59q-20 -11 -44 -11q-34 0 -34 20q0 10 31 48q43 52 86 139q24 47 38 93q11 35 44 35zM506 868q22 4 33 7q106 20 136 31q48 16 56 16q16 0 16 -12q0 -16 -19 -30q-87 -62 -271 -112
q-161 -339 -222 -514q-35 -103 -35 -169q0 -20 9 -42q6 -14 6 -21q0 -28 -30 -28q-22 0 -41 18q-32 29 -32 108q0 142 107 383q48 107 112 241q-39 -5 -84 -5q-59 0 -78 15q-13 10 -13 30q0 29 19 50q14 14 32 13q4 0 16 -2q21 -3 55 -3q33 0 104 7q62 131 95 195
q88 166 106 227q16 52 46 52q19 0 40 -16q34 -28 34 -61q0 -10 -52 -100q-43 -73 -145 -278z" />
    <glyph glyph-name="afii57929" unicode="&#x2bc;" horiz-adv-x="497" vert-adv-y="2457" 
d="M750 1623q22 0 42 -17q22 -20 21 -42q-4 -70 -120 -205q-39 -46 -64 -59q-20 -11 -44 -11q-34 0 -34 20q0 10 31 48q42 50 86 138q25 51 38 93q10 35 44 35z" />
    <glyph glyph-name="circumflex" unicode="&#x2c6;" horiz-adv-x="521" vert-adv-y="2457" 
d="M728 1083q-12 -7 -49 -30q-15 -9 -70 -29q-47 -20 -79 -20q-29 0 -43 11q-16 12 -16 24q0 10 11 19q13 14 40 25q8 3 89 59l39 34l39 34q25 24 30 26q20 9 44 9q17 0 43 -13q17 -8 25 -51q9 -51 39 -108q19 -37 21 -40q8 -18 14 -24q10 -9 10 -26q0 -19 -22 -19
q-35 0 -62 15q-23 14 -53 44q-25 24 -30 32q-17 29 -20 28z" />
    <glyph glyph-name="caron" unicode="&#x2c7;" horiz-adv-x="566" vert-adv-y="2457" 
d="M724 1129q13 7 49 30q15 9 71 29q47 20 78 20q29 0 43 -11q16 -12 16 -24q0 -10 -11 -19q-13 -14 -40 -25q-7 -3 -88 -59l-39 -34l-40 -34q-24 -24 -29 -26q-20 -9 -45 -9q-17 0 -42 12q-17 8 -25 52q-9 51 -39 108q-19 35 -21 40q-8 18 -14 24q-10 9 -10 26q0 19 22 19
q35 0 61 -16q23 -13 54 -44q25 -23 29 -31q17 -30 20 -28z" />
    <glyph glyph-name="uni02C9" unicode="&#x2c9;" horiz-adv-x="489" vert-adv-y="2457" 
d="M495 1089q9 0 22 -5q36 -14 94 -14q107 0 232 34q18 5 30 5q21 0 21 -16q0 -21 -25 -38q-68 -45 -172 -66q-63 -13 -125 -13q-111 0 -111 62q0 51 34 51z" />
    <glyph glyph-name="breve" unicode="&#x2d8;" horiz-adv-x="566" vert-adv-y="2457" 
d="M535 1201q33 0 51 -9q27 -14 65 -50q30 -29 63 -29q31 0 67 14q75 30 91 32q14 2 27 2q29 0 43 -10q16 -13 16 -28q0 -10 -12 -20q-4 -4 -78 -45q-23 -13 -50 -35q-40 -32 -58 -43q-23 -14 -55 -14q-38 0 -64 24q-38 34 -103 142q-12 20 -14 24q-10 16 -10 25q0 20 21 20
z" />
    <glyph glyph-name="dotaccent" unicode="&#x2d9;" horiz-adv-x="482" vert-adv-y="2457" 
d="M661 1149q29 0 50 -28q22 -29 22 -49q0 -30 -30 -62q-36 -38 -73 -38q-30 0 -55 17q-31 20 -31 55q0 45 46 79q35 26 71 26z" />
    <glyph glyph-name="ring" unicode="&#x2da;" horiz-adv-x="439" vert-adv-y="2457" 
d="M784 1175h4h4q12 0 26 -27q5 -9 5 -26q0 -20 -14 -57q-16 -41 -58 -71q-54 -38 -130 -38q-86 0 -124 54q-25 35 -25 80q0 64 64 124q65 61 150 61q61 0 93 -31q15 -15 15 -38q0 -10 -10 -31zM767 1165h-4h-9h-5h-7q-6 0 -14 5q-11 7 -45 7q-43 0 -68 -22q-5 -4 -14 -17
q-10 -15 -10 -16v-16v-14q0 -40 67 -40q31 0 56 21q12 12 26 32q17 24 17 35v5q0 4 5 11q1 1 1 5q0 5 2 5q1 0 2 -1z" />
    <glyph glyph-name="ogonek" unicode="&#x2db;" horiz-adv-x="403" vert-adv-y="2457" 
d="M216 53l70 -43q-61 -72 -61 -123q0 -40 29 -70q20 -21 86 -48q16 -7 16 -24q0 -35 -61 -35q-44 0 -85 24q-42 24 -68 74q-20 40 -20 82q0 59 38 108q16 20 56 55z" />
    <glyph glyph-name="tilde" unicode="&#x2dc;" horiz-adv-x="632" vert-adv-y="2457" 
d="M650 1089q-39 0 -68 -19q-44 -30 -51 -37q-10 -10 -22 -10q-36 0 -36 31q0 48 56 93q45 36 86 47q27 7 72 7q32 0 61 -18q43 -26 66 -52q36 -40 66 -40q6 0 22 6q31 12 61 36q18 15 36 15q10 0 18 -9q13 -14 13 -36q0 -35 -42 -70q-66 -55 -121 -55q-24 0 -72 19
q-22 8 -63 48q-45 44 -82 44z" />
    <glyph glyph-name="hungarumlaut" unicode="&#x2dd;" horiz-adv-x="520" vert-adv-y="2457" 
d="M645 1228q21 0 46 -17q32 -22 32 -47q0 -51 -118 -137q-30 -22 -67 -39q-21 -9 -27 -9h-2q-11 1 -14 2q-19 0 -40 12q-24 12 -24 29q0 5 15 17l23 19q99 75 139 147q13 23 37 23zM899 1226q22 0 46 -17q32 -23 32 -48q0 -50 -118 -137q-30 -22 -67 -39q-21 -9 -27 -9h-2
q-11 1 -14 2q-19 0 -40 12q-24 12 -24 29q0 6 15 17l23 20q42 32 59 48q7 7 50 54q29 43 30 45q13 23 37 23z" />
    <glyph glyph-name="uni1EA0" unicode="&#x1ea0;" horiz-adv-x="1019" vert-adv-y="0" 
d="M444 -182q40 0 71 -30q24 -23 24 -51q0 -53 -56 -53q-51 0 -78 38q-13 19 -13 39q0 14 10 32q14 25 42 25zM362 477l-115 -13q-39 -5 -48 -5q-30 0 -48 18q-21 23 -21 55q0 28 20 28h8q34 -4 48 -4q46 0 186 24l49 8l70 97q131 180 206 281q285 387 317 448q17 33 33 33
q36 0 77 -37q27 -25 27 -49q0 -19 -28 -96q-23 -64 -111 -389q-27 -100 -41 -159l63 18l22 7q46 14 56 14q18 0 18 -16q0 -35 -80 -64l-98 -36q-94 -420 -94 -618q0 -17 1 -29q4 -58 4 -63q0 -30 -27 -30q-68 0 -68 270q0 164 56 429q-147 -47 -339 -91q-250 -373 -304 -495
q-8 -21 -24 -21q-29 0 -53 22q-29 26 -29 51q0 20 32 64q6 8 45 70q46 74 190 278zM863 682q61 249 146 530q-139 -173 -432 -597q182 39 286 67z" />
    <glyph glyph-name="uni1EA1" unicode="&#x1ea1;" horiz-adv-x="760" vert-adv-y="0" 
d="M404 -182q40 0 71 -30q24 -23 24 -51q0 -53 -56 -53q-51 0 -78 38q-13 19 -13 39q0 14 10 32q14 25 42 25zM615 300q-90 -115 -171 -195q-114 -112 -200 -112q-88 0 -122 79q-17 39 -17 87q0 124 144 324q156 217 302 316q91 62 157 62q75 0 117 -58q25 -35 25 -84
q0 -77 -39 -96q8 -18 8 -30q0 -14 -22 -70q-82 -217 -82 -369q0 -58 25 -109q14 -28 14 -42q0 -34 -34 -34q-30 0 -60 30q-57 59 -57 194q0 49 12 107zM757 669v3v5q0 2 1 10q1 4 1 10q0 19 -9 33q-15 26 -48 26q-68 0 -178 -109q-78 -77 -156 -188q-142 -200 -142 -307
q0 -43 41 -43q35 0 116 71q123 109 230 269q54 82 67 119l28 79q9 26 32 26q7 0 17 -4z" />
    <glyph glyph-name="uni1EA2" unicode="&#x1ea2;" horiz-adv-x="1019" vert-adv-y="0" 
d="M1305 1900q46 0 67 -18q17 -16 17 -37q5 -47 -139 -164q-54 -38 -58 -63q-6 -15 -27 -18q-16 -2 -25 11q-13 34 36 74q62 50 111 95q33 34 31.5 50.5t-22.5 23.5q-48 5 -93 -27q-29 -21 -36 -48q0 -26 -26 -29q-29 4 -29 23q0 33 40 67q37 32 87 49q34 11 66 11zM362 477
l-115 -13q-39 -5 -48 -5q-30 0 -48 18q-21 23 -21 55q0 28 20 28h8q34 -4 48 -4q46 0 186 24l49 8l70 97q131 180 206 281q285 387 317 448q17 33 33 33q36 0 77 -37q27 -25 27 -49q0 -19 -28 -96q-23 -64 -111 -389q-27 -100 -41 -159l63 18l22 7q46 14 56 14q18 0 18 -16
q0 -35 -80 -64l-98 -36q-94 -420 -94 -618q0 -17 1 -29q4 -58 4 -63q0 -30 -27 -30q-68 0 -68 270q0 164 56 429q-147 -47 -339 -91q-250 -373 -304 -495q-8 -21 -24 -21q-29 0 -53 22q-29 26 -29 51q0 20 32 64q6 8 45 70q46 74 190 278zM863 682q61 249 146 530
q-139 -173 -432 -597q182 39 286 67z" />
    <glyph glyph-name="uni1EA3" unicode="&#x1ea3;" horiz-adv-x="760" vert-adv-y="0" 
d="M943 1300q46 0 67 -18q17 -16 17 -37q5 -47 -139 -164q-54 -38 -58 -63q-6 -15 -27 -18q-16 -2 -25 11q-13 34 36 74q62 50 111 95q33 34 31.5 50.5t-22.5 23.5q-48 5 -93 -27q-29 -21 -36 -48q0 -26 -26 -29q-29 4 -29 23q0 33 40 67q37 32 87 49q34 11 66 11zM615 300
q-90 -115 -171 -195q-114 -112 -200 -112q-88 0 -122 79q-17 39 -17 87q0 124 144 324q156 217 302 316q91 62 157 62q75 0 117 -58q25 -35 25 -84q0 -77 -39 -96q8 -18 8 -30q0 -14 -22 -70q-82 -217 -82 -369q0 -58 25 -109q14 -28 14 -42q0 -34 -34 -34q-30 0 -60 30
q-57 59 -57 194q0 49 12 107zM757 669v3v5q0 2 1 10q1 4 1 10q0 19 -9 33q-15 26 -48 26q-68 0 -178 -109q-78 -77 -156 -188q-142 -200 -142 -307q0 -43 41 -43q35 0 116 71q123 109 230 269q54 82 67 119l28 79q9 26 32 26q7 0 17 -4z" />
    <glyph glyph-name="uni1EA4" unicode="&#x1ea4;" horiz-adv-x="1019" vert-adv-y="0" 
d="M1214 1596q-12 -3 -49 -15q-15 -4 -71 -14q-46 -10 -78 -10q-29 0 -43 5q-16 6 -16 12q0 5 11 10q13 7 40 12q8 2 88 30l39 17l40 17q24 12 29 13q20 4 45 4q17 0 42 -6q17 -4 25 -26q9 -25 39 -54q20 -19 21 -20q8 -9 14 -12q10 -4 10 -13t-22 -9q-35 0 -61 7
q-23 7 -54 22q-25 12 -29 16q-17 15 -20 14zM362 477l-115 -13q-39 -5 -48 -5q-30 0 -48 18q-21 23 -21 55q0 28 20 28h8q34 -4 48 -4q46 0 186 24l49 8l70 97q131 180 206 281q285 387 317 448q17 33 33 33q36 0 77 -37q27 -25 27 -49q0 -19 -28 -96q-23 -64 -111 -389
q-27 -100 -41 -159l63 18l22 7q46 14 56 14q18 0 18 -16q0 -35 -80 -64l-98 -36q-94 -420 -94 -618q0 -17 1 -29q4 -58 4 -63q0 -30 -27 -30q-68 0 -68 270q0 164 56 429q-147 -47 -339 -91q-250 -373 -304 -495q-8 -21 -24 -21q-29 0 -53 22q-29 26 -29 51q0 20 32 64
q6 8 45 70q46 74 190 278zM863 682q61 249 146 530q-139 -173 -432 -597q182 39 286 67zM1385 1850q19 0 37 -9q24 -12 24 -22q0 -24 -113 -53q-110 -28 -152 -28q-6 0 -40 5q-14 7 -18 8q-9 4 -9 13q0 4 22 9l29 8q101 24 165 52q17 8 23 10q13 7 32 7z" />
    <glyph glyph-name="uni1EA5" unicode="&#x1ea5;" horiz-adv-x="760" vert-adv-y="0" 
d="M806 1088q-12 -7 -49 -30q-16 -9 -71 -29q-47 -20 -79 -20q-29 0 -42 11q-17 12 -17 24q0 10 12 19q12 14 39 25q9 3 89 59l39 34l39 34q25 24 30 26q20 9 44 9q17 0 43 -13q17 -8 25 -51q9 -52 39 -108q20 -38 21 -40q8 -18 14 -24q10 -9 10 -26q0 -19 -22 -19
q-34 0 -61 16q-23 13 -54 43q-25 24 -29 32q-17 29 -20 28zM615 300q-90 -115 -171 -195q-114 -112 -200 -112q-88 0 -122 79q-17 39 -17 87q0 124 144 324q156 217 302 316q91 62 157 62q75 0 117 -58q25 -35 25 -84q0 -77 -39 -96q8 -18 8 -30q0 -14 -22 -70
q-82 -217 -82 -369q0 -58 25 -109q14 -28 14 -42q0 -34 -34 -34q-30 0 -60 30q-57 59 -57 194q0 49 12 107zM757 669v3v5q0 2 1 10q1 4 1 10q0 19 -9 33q-15 26 -48 26q-68 0 -178 -109q-78 -77 -156 -188q-142 -200 -142 -307q0 -43 41 -43q35 0 116 71q123 109 230 269
q54 82 67 119l28 79q9 26 32 26q7 0 17 -4zM980 1573q19 0 37 -17q24 -24 24 -44q0 -49 -113 -106q-110 -56 -152 -56q-6 0 -40 10q-14 13 -18 16q-9 8 -9 25q0 9 22 19l29 15q101 48 165 105q17 15 23 20q13 13 32 13z" />
    <glyph glyph-name="uni1EA6" unicode="&#x1ea6;" horiz-adv-x="1019" vert-adv-y="0" 
d="M362 477l-115 -13q-39 -5 -48 -5q-30 0 -48 18q-21 23 -21 55q0 28 20 28h8q34 -4 48 -4q46 0 186 24l49 8l70 97q131 180 206 281q285 387 317 448q17 33 33 33q36 0 77 -37q27 -25 27 -49q0 -19 -28 -96q-23 -64 -111 -389q-27 -100 -41 -159l63 18l22 7q46 14 56 14
q18 0 18 -16q0 -35 -80 -64l-98 -36q-94 -420 -94 -618q0 -17 1 -29q4 -58 4 -63q0 -30 -27 -30q-68 0 -68 270q0 164 56 429q-147 -47 -339 -91q-250 -373 -304 -495q-8 -21 -24 -21q-29 0 -53 22q-29 26 -29 51q0 20 32 64q6 8 45 70q46 74 190 278zM863 682
q61 249 146 530q-139 -173 -432 -597q182 39 286 67zM1214 1596q-12 -3 -49 -15q-15 -4 -71 -14q-46 -10 -78 -10q-29 0 -43 5q-16 6 -16 12q0 5 11 10q13 7 40 12q8 2 88 30l39 17l40 17q24 12 29 13q20 4 45 4q17 0 42 -6q17 -4 25 -26q9 -25 39 -54q20 -19 21 -20
q8 -9 14 -12q10 -4 10 -13t-22 -9q-35 0 -61 7q-23 7 -54 22q-25 12 -29 16q-17 15 -20 14zM1162 1900q23 0 33 -3q5 -2 12 -9q10 -8 15 -16q5 -10 42 -42q23 -20 62 -43q32 -20 32 -24q0 -6 -11 -9q-16 -5 -30 -5q-35 0 -61 11q-50 21 -96 51q-60 40 -60 62q0 12 26 20
q20 7 36 7z" />
    <glyph glyph-name="uni1EA7" unicode="&#x1ea7;" horiz-adv-x="760" vert-adv-y="0" 
d="M763 1652q23 0 33 -6q5 -3 12 -17q10 -16 15 -33q5 -19 42 -84q23 -39 62 -86q32 -40 32 -47q0 -12 -11 -19q-16 -10 -30 -10q-35 0 -61 22q-50 42 -96 102q-60 81 -60 125q0 23 26 40q20 13 36 13zM806 1088q-12 -7 -49 -30q-16 -9 -71 -29q-47 -20 -79 -20
q-29 0 -42 11q-17 12 -17 24q0 10 12 19q12 14 39 25q9 3 89 59l39 34l39 34q25 24 30 26q20 9 44 9q17 0 43 -13q17 -8 25 -51q9 -52 39 -108q20 -38 21 -40q8 -18 14 -24q10 -9 10 -26q0 -19 -22 -19q-34 0 -61 16q-23 13 -54 43q-25 24 -29 32q-17 29 -20 28zM615 300
q-90 -115 -171 -195q-114 -112 -200 -112q-88 0 -122 79q-17 39 -17 87q0 124 144 324q156 217 302 316q91 62 157 62q75 0 117 -58q25 -35 25 -84q0 -77 -39 -96q8 -18 8 -30q0 -14 -22 -70q-82 -217 -82 -369q0 -58 25 -109q14 -28 14 -42q0 -34 -34 -34q-30 0 -60 30
q-57 59 -57 194q0 49 12 107zM757 669v3v5q0 2 1 10q1 4 1 10q0 19 -9 33q-15 26 -48 26q-68 0 -178 -109q-78 -77 -156 -188q-142 -200 -142 -307q0 -43 41 -43q35 0 116 71q123 109 230 269q54 82 67 119l28 79q9 26 32 26q7 0 17 -4z" />
    <glyph glyph-name="uni1EA8" unicode="&#x1ea8;" horiz-adv-x="1019" vert-adv-y="0" 
d="M362 477l-115 -13q-39 -5 -48 -5q-30 0 -48 18q-21 23 -21 55q0 28 20 28h8q34 -4 48 -4q46 0 186 24l49 8l70 97q131 180 206 281q285 387 317 448q17 33 33 33q36 0 77 -37q27 -25 27 -49q0 -19 -28 -96q-23 -64 -111 -389q-27 -100 -41 -159l63 18l22 7q46 14 56 14
q18 0 18 -16q0 -35 -80 -64l-98 -36q-94 -420 -94 -618q0 -17 1 -29q4 -58 4 -63q0 -30 -27 -30q-68 0 -68 270q0 164 56 429q-147 -47 -339 -91q-250 -373 -304 -495q-8 -21 -24 -21q-29 0 -53 22q-29 26 -29 51q0 20 32 64q6 8 45 70q46 74 190 278zM863 682
q61 249 146 530q-139 -173 -432 -597q182 39 286 67zM1214 1596q-12 -3 -49 -15q-15 -4 -71 -14q-46 -10 -78 -10q-29 0 -43 5q-16 6 -16 12q0 5 11 10q13 7 40 12q8 2 88 30l39 17l40 17q24 12 29 13q20 4 45 4q17 0 42 -6q17 -4 25 -26q9 -25 39 -54q20 -19 21 -20
q8 -9 14 -12q10 -4 10 -13t-22 -9q-35 0 -61 7q-23 7 -54 22q-25 12 -29 16q-17 15 -20 14zM1389 1900q46 0 67 -9q17 -8 17 -18q5 -24 -139 -83q-54 -19 -58 -32q-6 -7 -27 -9q-16 -1 -25 6q-13 17 36 37q62 25 111 48q33 17 31.5 25.5t-22.5 11.5q-48 3 -93 -13
q-29 -11 -36 -25q0 -13 -26 -14q-29 2 -29 11q0 17 40 34q37 16 87 25q34 5 66 5z" />
    <glyph glyph-name="uni1EA9" unicode="&#x1ea9;" horiz-adv-x="760" vert-adv-y="0" 
d="M806 1088q-12 -7 -49 -30q-16 -9 -71 -29q-47 -20 -79 -20q-29 0 -42 11q-17 12 -17 24q0 10 12 19q12 14 39 25q9 3 89 59l39 34l39 34q25 24 30 26q20 9 44 9q17 0 43 -13q17 -8 25 -51q9 -52 39 -108q20 -38 21 -40q8 -18 14 -24q10 -9 10 -26q0 -19 -22 -19
q-34 0 -61 16q-23 13 -54 43q-25 24 -29 32q-17 29 -20 28zM615 300q-90 -115 -171 -195q-114 -112 -200 -112q-88 0 -122 79q-17 39 -17 87q0 124 144 324q156 217 302 316q91 62 157 62q75 0 117 -58q25 -35 25 -84q0 -77 -39 -96q8 -18 8 -30q0 -14 -22 -70
q-82 -217 -82 -369q0 -58 25 -109q14 -28 14 -42q0 -34 -34 -34q-30 0 -60 30q-57 59 -57 194q0 49 12 107zM757 669v3v5q0 2 1 10q1 4 1 10q0 19 -9 33q-15 26 -48 26q-68 0 -178 -109q-78 -77 -156 -188q-142 -200 -142 -307q0 -43 41 -43q35 0 116 71q123 109 230 269
q54 82 67 119l28 79q9 26 32 26q7 0 17 -4zM979 1650q46 0 67 -18q17 -16 17 -37q5 -47 -139 -164q-54 -38 -58 -63q-6 -15 -27 -18q-16 -2 -25 11q-13 34 36 74q62 50 111 95q33 34 31.5 50.5t-22.5 23.5q-48 5 -93 -27q-29 -21 -36 -48q0 -26 -26 -29q-29 4 -29 23
q0 33 40 67q37 32 87 49q34 11 66 11z" />
    <glyph glyph-name="uni1EAA" unicode="&#x1eaa;" horiz-adv-x="1019" vert-adv-y="0" 
d="M362 477l-115 -13q-39 -5 -48 -5q-30 0 -48 18q-21 23 -21 55q0 28 20 28h8q34 -4 48 -4q46 0 186 24l49 8l70 97q131 180 206 281q285 387 317 448q17 33 33 33q36 0 77 -37q27 -25 27 -49q0 -19 -28 -96q-23 -64 -111 -389q-27 -100 -41 -159l63 18l22 7q46 14 56 14
q18 0 18 -16q0 -35 -80 -64l-98 -36q-94 -420 -94 -618q0 -17 1 -29q4 -58 4 -63q0 -30 -27 -30q-68 0 -68 270q0 164 56 429q-147 -47 -339 -91q-250 -373 -304 -495q-8 -21 -24 -21q-29 0 -53 22q-29 26 -29 51q0 20 32 64q6 8 45 70q46 74 190 278zM863 682
q61 249 146 530q-139 -173 -432 -597q182 39 286 67zM1214 1596q-12 -3 -49 -15q-15 -4 -71 -14q-46 -10 -78 -10q-29 0 -43 5q-16 6 -16 12q0 5 11 10q13 7 40 12q8 2 88 30l39 17l40 17q24 12 29 13q20 4 45 4q17 0 42 -6q17 -4 25 -26q9 -25 39 -54q20 -19 21 -20
q8 -9 14 -12q10 -4 10 -13t-22 -9q-35 0 -61 7q-23 7 -54 22q-25 12 -29 16q-17 15 -20 14zM1149 1795q-39 0 -68 -10q-44 -14 -51 -18q-10 -5 -22 -5q-36 0 -36 15q0 24 56 46q45 18 86 24q27 3 72 3q32 0 61 -9q43 -13 66 -26q36 -19 66 -19q6 0 22 3q31 6 61 17
q18 8 36 8q10 0 18 -5q13 -6 13 -17q0 -18 -42 -35q-66 -27 -121 -27q-24 0 -72 9q-22 4 -63 24q-45 22 -82 22z" />
    </font>
</defs>
</svg>
