<?xml version="1.0" standalone="no"?>
<!DOCTYPE svg PUBLIC "-//W3C//DTD SVG 1.1//EN" "http://www.w3.org/Graphics/SVG/1.1/DTD/svg11.dtd" >
<svg xmlns="http://www.w3.org/2000/svg" xmlns:xlink="http://www.w3.org/1999/xlink" version="1.1">
<metadata>
Created by FontForge 20170731 at Fri Apr 19 10:58:46 2013
 By Aleksey,,,
Copyright (c) 2013 by Guisela Mendoza &#38; Luciano Vergara. All rights reserved.
</metadata>
<defs>
<font id="UVFLoveStory" horiz-adv-x="400" >
  <font-face 
    font-family="UVF LoveStory"
    font-weight="400"
    font-stretch="normal"
    units-per-em="1000"
    panose-1="2 0 0 0 0 0 0 0 0 0"
    ascent="750"
    descent="-250"
    x-height="324"
    cap-height="698"
    bbox="-90 -254 1380.33 1027.89"
    underline-thickness="50"
    underline-position="-150"
    unicode-range="U+0020-FB06"
  />
<missing-glyph horiz-adv-x="200" 
 />
    <glyph glyph-name=".notdef" horiz-adv-x="200" 
 />
    <glyph glyph-name=".null" horiz-adv-x="0" 
 />
    <glyph glyph-name="nonmarkingreturn" horiz-adv-x="200" 
 />
    <glyph glyph-name="space" unicode=" " horiz-adv-x="200" 
 />
    <glyph glyph-name="exclam" unicode="!" horiz-adv-x="222" 
d="M108 700q0 3 3 3t3 -3v-577q0 -3 -3 -3t-3 3v577zM134 13q0 -7 -5 -11.5t-12 -4.5q-6 0 -11 4.5t-5 11.5t5 12t11 5q7 0 12 -5t5 -12z" />
    <glyph glyph-name="quotedbl" unicode="&#x22;" horiz-adv-x="214" 
d="M158 673q0 3 3 3t3 -3v-166q0 -3 -3 -3t-3 3v166zM50 673q0 3 3 3t3 -3v-166q0 -3 -3 -3t-3 3v166z" />
    <glyph glyph-name="numbersign" unicode="#" horiz-adv-x="712" 
d="M588 671q1 2 3.5 1.5t1.5 -3.5l-66 -196h152q3 0 3 -3t-3 -3h-154l-78 -233h151q3 0 3 -3t-3 -3h-153l-76 -229q-1 -3 -4.5 -2.5t-1.5 4.5l76 227h-248l-77 -229q-1 -3 -4 -2t-2 4l76 227h-151q-3 0 -3 3t3 3h153l78 233h-150q-3 0 -3 3t3 3h152l67 198q1 3 4.5 2.5
t1.5 -4.5l-66 -196h248zM193 234h248l78 233h-248z" />
    <glyph glyph-name="dollar" unicode="$" horiz-adv-x="572" 
d="M279 750q0 3 3 3t3 -3v-115h4q28 0 61.5 -4t62 -15.5t48 -33t19.5 -56.5q0 -29 -14.5 -45t-40.5 -16q-25 0 -40.5 13.5t-18.5 38.5q0 3 2.5 3.5t3.5 -2.5q3 -24 17.5 -35.5t35.5 -11.5q49 0 49 55q0 34 -20 54.5t-49 31t-60.5 14t-55.5 3.5h-4v-274q43 -6 85.5 -13
t76.5 -22.5t54.5 -42.5t20.5 -73q0 -39 -17.5 -70t-48.5 -52.5t-75 -34t-96 -13.5v-121q0 -3 -3 -3t-3 3v121h-8q-31 0 -69.5 4t-72 16.5t-56.5 35t-23 59.5q0 27 14 44t41 17q25 0 40.5 -13.5t18.5 -38.5q0 -3 -3 -3.5t-3 2.5q-6 47 -53 47q-49 0 -49 -55q0 -54 57 -81.5
t158 -27.5h8v311q-40 6 -77 14t-66 23t-46.5 40.5t-17.5 66.5q0 42 19 69t49 42.5t67 21.5t72 7v115zM516 204q0 43 -20 69t-52.5 41t-74 22.5t-84.5 13.5v-310q107 3 169 46.5t62 117.5zM78 495q0 -39 17 -63.5t44.5 -39.5t64 -22.5t75.5 -13.5v273q-37 -1 -73 -7
t-64.5 -21t-46 -41t-17.5 -65z" />
    <glyph glyph-name="percent" unicode="%" horiz-adv-x="674" 
d="M609 672q2 2 4 0t0 -4l-547 -670q-2 -2 -4.5 0t-0.5 4zM168 423q-60 0 -94 34.5t-34 90.5q0 57 35 91t93 34q60 0 93.5 -34.5t33.5 -90.5q0 -57 -34.5 -91t-92.5 -34zM168 667q-56 0 -89 -32.5t-33 -86.5t33 -86.5t89 -32.5t88.5 32.5t32.5 86.5t-32.5 86.5t-88.5 32.5z
M507 -4q-54 0 -91 32.5t-37 92.5t36 92.5t92 32.5q60 0 93.5 -35.5t33.5 -89.5q0 -30 -10 -53.5t-27.5 -39t-40.5 -24t-49 -8.5zM507 240q-56 0 -89 -32t-33 -87q0 -54 33 -86.5t89 -32.5t88.5 32.5t32.5 86.5q0 55 -32.5 87t-88.5 32z" />
    <glyph glyph-name="ampersand" unicode="&#x26;" horiz-adv-x="609" 
d="M552 -1q-11 39 -26.5 72t-33.5 62q-39 -59 -94.5 -97.5t-124.5 -38.5q-44 0 -84.5 9t-71.5 29t-49 50.5t-18 74.5q0 47 16.5 80.5t43 58t60 42.5t67.5 34q-21 16 -39.5 34t-33 38t-23 43t-8.5 49q0 30 10.5 55t29.5 42.5t44 27t55 9.5q66 -1 102 -38t36 -96
q0 -34 -13.5 -58.5t-36 -43.5t-51.5 -34t-60 -29q34 -27 68 -53t65.5 -54t59 -58t50.5 -65q21 35 32.5 70t11.5 67q0 3 3 3t3 -3q0 -33 -12 -70t-34 -72q42 -66 62 -139q1 -3 -2 -3.5t-4 2.5zM243 371q-35 -16 -68.5 -34t-60 -42t-42.5 -56.5t-16 -78.5q0 -44 19 -74
t50 -48.5t70 -26.5t78 -8q35 0 66.5 11t59 30t50 43t39.5 51q-25 39 -54.5 70.5t-61 59.5t-64 52.5t-65.5 50.5zM272 667q-59 0 -96 -35.5t-37 -92.5q0 -50 29 -87t75 -74q25 12 53.5 25.5t52.5 32t39.5 43.5t15.5 60q0 60 -35 94t-97 34z" />
    <glyph glyph-name="quotesingle" unicode="'" horiz-adv-x="106" 
d="M50 673q0 3 3 3t3 -3v-166q0 -3 -3 -3t-3 3v166z" />
    <glyph glyph-name="parenleft" unicode="(" horiz-adv-x="284" 
d="M62 301q0 69 9 140.5t32 133t63.5 109t103.5 68.5q2 1 3 -1.5t-2 -3.5q-65 -23 -105 -72.5t-61.5 -112t-29 -131.5t-7.5 -130q0 -62 7.5 -130.5t29 -131t61.5 -112t105 -72.5q3 -1 2 -3.5t-3 -1.5q-63 21 -103.5 68.5t-63.5 109t-32 133t-9 140.5z" />
    <glyph glyph-name="parenright" unicode=")" horiz-adv-x="284" 
d="M222 301q0 -69 -9 -140.5t-32 -133t-63.5 -109t-103.5 -68.5q-2 -1 -3 1.5t2 3.5q65 23 105 72.5t61.5 112t29 131t7.5 130.5q0 61 -7.5 130t-29 131.5t-61.5 112t-105 72.5q-3 1 -2 3.5t3 1.5q63 -21 103.5 -68.5t63.5 -109t32 -133t9 -140.5z" />
    <glyph glyph-name="asterisk" unicode="*" horiz-adv-x="441" 
d="M93 696q-2 2 0 4t4 0l121 -121v171q0 3 3 3t3 -3v-170l120 120q2 2 4.5 0t0.5 -4l-122 -121h171q3 0 3 -3t-3 -3h-170l121 -120q2 -2 -0.5 -4t-4.5 0l-120 119v-169q0 -3 -3 -3t-3 3v170l-121 -120q-2 -2 -4 0t0 4l120 120h-170q-3 0 -3 3t3 3h171z" />
    <glyph glyph-name="plus" unicode="+" horiz-adv-x="461" 
d="M228 409q0 3 3 3t3 -3v-175h174q3 0 3 -3t-3 -3h-174v-174q0 -3 -3 -3t-3 3v174h-175q-3 0 -3 3t3 3h175v175z" />
    <glyph glyph-name="comma" unicode="," horiz-adv-x="143" 
d="M48 -35q27 6 32 35q-5 -3 -9 -3q-6 0 -11 4.5t-5 11.5t5 12t11 5q7 0 12 -5t5 -12q0 -44 -38 -55q-3 -1 -4 2.5t2 4.5zM88 13q0 -7 -5 -11.5t-12 -4.5q-6 0 -11 4.5t-5 11.5t5 12t11 5q7 0 12 -5t5 -12z" />
    <glyph glyph-name="hyphen" unicode="-" horiz-adv-x="462" 
d="M53 228q-3 0 -3 3t3 3h356q3 0 3 -3t-3 -3h-356z" />
    <glyph glyph-name="period" unicode="." horiz-adv-x="143" 
d="M88 13q0 -7 -5 -11.5t-12 -4.5q-6 0 -11 4.5t-5 11.5t5 12t11 5q7 0 12 -5t5 -12z" />
    <glyph glyph-name="slash" unicode="/" horiz-adv-x="350" 
d="M343 751q2 3 4.5 1.5t1.5 -3.5l-342 -751q-2 -3 -5 -1.5t-1 4.5z" />
    <glyph glyph-name="zero" unicode="0" horiz-adv-x="686" 
d="M343 -3q-78 0 -131.5 25.5t-87 70t-48 105.5t-14.5 132q0 74 16 137t50 108.5t87 71.5t128 26q32 0 65 -4.5t61.5 -17.5t49.5 -35t29 -56q1 -3 -2 -3.5t-4 1.5q-7 34 -28.5 55.5t-50 33.5t-60.5 16t-60 4q-134 0 -204.5 -86t-70.5 -251q0 -70 14.5 -130t47 -103.5
t85 -68.5t128.5 -25q60 0 103.5 15t74 40t49.5 57.5t29.5 67.5t14.5 69.5t4 63.5q0 48 -11 86.5t-34.5 65t-60 39.5t-87.5 10q-4 0 -3.5 3t3.5 3q54 3 92 -11t62 -42t34.5 -67.5t10.5 -86.5q0 -68 -15.5 -126.5t-49.5 -101t-87 -67t-129 -24.5z" />
    <glyph glyph-name="one" unicode="1" horiz-adv-x="456" 
d="M414 -33q-22 0 -49.5 1t-54 5.5t-48 13.5t-31.5 25q-49 -6 -104.5 -10.5t-122.5 -4.5q-3 0 -3 3t3 3q66 0 120.5 4.5t102.5 10.5q-9 15 -9 36v563q-43 -42 -99.5 -67.5t-114.5 -42.5q-2 -1 -3 2t2 4q59 17 116.5 43.5t98.5 69.5v94q0 17 7.5 25t16.5 8q8 0 15.5 -7.5
t7.5 -24.5q0 -28 -11.5 -52.5t-29.5 -44.5v-570q0 -21 9 -36q17 2 39 4.5t46 5t48.5 4t47.5 1.5q22 0 31 -10t9 -23q0 -14 -10 -23.5t-30 -9.5zM238 13q11 -15 33 -23t48 -11.5t51.5 -4.5t43.5 -1t26 8.5t8 18.5t-8 18.5t-26 8.5q-24 0 -50.5 -2t-50.5 -4t-44 -4.5t-31 -3.5
zM242 747q-6 0 -12 -6t-6 -21v-87q35 41 35 88q0 14 -5.5 20t-11.5 6z" />
    <glyph glyph-name="two" unicode="2" horiz-adv-x="614" 
d="M550 -79q-22 31 -26 59q-56 1 -104.5 5.5t-94.5 11t-91.5 14t-94.5 13.5q-28 -23 -52.5 -35t-41.5 -12t-25 9t-8 20t8 20.5t25 9.5q45 0 92 -6q15 12 29 26l322 308q40 38 58.5 73.5t18.5 72.5q0 51 -24 81.5t-61 47.5t-80 22.5t-80 5.5q-64 0 -111.5 -9t-79 -23t-47 -33
t-15.5 -38q0 -22 11.5 -35.5t30.5 -13.5q40 0 45 40q0 3 3.5 3t2.5 -4q-5 -45 -51 -45q-21 0 -34.5 15t-13.5 40q0 20 15 39.5t46.5 35t80.5 25t117 9.5q43 0 87.5 -6.5t81 -24.5t59.5 -50t23 -82q0 -47 -24 -84.5t-55 -66.5l-322 -307l-25 -23q46 -6 88.5 -13t87.5 -13.5
t94 -11t108 -5.5q-2 22 9 38t34 16q20 0 29.5 -8.5t9.5 -21.5q0 -12 -9.5 -21.5t-29.5 -9.5h-36q2 -12 8 -26t17 -28q2 -3 -0.5 -4.5t-4.5 0.5zM45 30q-14 0 -20.5 -7.5t-6.5 -16.5q0 -8 6.5 -15.5t20.5 -7.5q16 0 38.5 11t47.5 31q-22 2 -43.5 3.5t-42.5 1.5zM566 -15
q17 0 25 7.5t8 17.5q0 11 -8 17.5t-25 6.5q-21 0 -30 -15t-7 -34h37z" />
    <glyph glyph-name="three" unicode="3" horiz-adv-x="644" 
d="M301 -3q-71 0 -119 7.5t-77 20.5t-42 30.5t-13 36.5q0 25 16 39t39 14q24 0 39.5 -11.5t19.5 -31.5q1 -3 -2 -3.5t-4 2.5q-3 17 -17 27.5t-36 10.5q-23 0 -36 -13t-13 -34q0 -43 64 -66t181 -23q62 0 114.5 13.5t91 39t60 63.5t21.5 88q0 175 -280 195
q-17 -23 -34.5 -37.5t-35.5 -14.5t-27 9.5t-9 20.5t9 20.5t29 9.5q17 0 33 -0.5t32 -1.5q16 21 31.5 48t32.5 56q19 33 37.5 64.5t38.5 56.5q-36 8 -73.5 17.5t-74 17.5t-70.5 13.5t-63 5.5q-36 0 -60 -18.5t-24 -51.5q0 -32 22.5 -50t52.5 -18q3 0 3 -3t-3 -3q-35 0 -58 21
t-23 53q0 35 25.5 55.5t64.5 20.5q33 0 67.5 -6t70.5 -14t73 -17.5t74 -16.5q19 23 39 37.5t40 14.5t28.5 -10.5t8.5 -22.5t-9.5 -22.5t-29.5 -10.5q-18 0 -36.5 2t-37.5 5q-20 -25 -39 -57t-38 -65q-17 -29 -32 -55t-31 -48q282 -20 282 -200q0 -50 -21.5 -89t-60 -66
t-92.5 -41t-119 -14zM240 404q-17 0 -24.5 -7.5t-7.5 -16.5t7.5 -16.5t22.5 -7.5q27 0 63 46q-15 1 -30 1.5t-31 0.5zM455 637q36 -6 71 -6q18 0 25.5 8.5t7.5 18.5t-7 18.5t-24 8.5q-19 0 -37.5 -13t-35.5 -35z" />
    <glyph glyph-name="four" unicode="4" horiz-adv-x="716" 
d="M543 193h-398q-66 -48 -106 -48q-17 0 -25 8.5t-8 18.5q0 11 8 19t25 8h104q60 51 111.5 102.5l102.5 102.5q106 106 186 214v35q0 46 5 73t31 27q12 0 19.5 -7.5t7.5 -21.5q0 -33 -57 -108v-417h159q3 0 3 -3t-3 -3h-159v-193q0 -3 -3 -3t-3 3v193zM39 193
q-14 0 -20.5 -6.5t-6.5 -14.5t6.5 -14.5t20.5 -6.5q36 0 95 42h-95zM543 199v409q-46 -62 -91 -112.5t-90 -95.5l-105 -105t-104 -96h390zM579 747q-20 0 -25 -22.5t-5 -71.5v-27q23 31 37 56t14 42q0 23 -21 23z" />
    <glyph glyph-name="five" unicode="5" horiz-adv-x="616" 
d="M291 -3q-131 0 -199 28t-68 76q0 25 13 40.5t34 15.5q46 0 51 -46q0 -3 -2.5 -3t-2.5 3q-6 40 -46 40q-19 0 -30 -13.5t-11 -36.5q0 -46 68.5 -72t192.5 -26q119 0 185.5 61.5t66.5 171.5q0 108 -65.5 165t-190.5 57q-51 0 -91 -3t-69 -8v-3q0 -70 -45 -70q-16 0 -23.5 9
t-7.5 19q0 22 22 33t48 17v215h-30q-15 0 -23 8t-8 19q0 10 8 18.5t23 8.5q16 0 26 -11.5t10 -29.5v-7h376q3 0 3 -3t-3 -3h-376v-214q29 5 69 8t91 3q58 0 106.5 -13.5t83 -41.5t53.5 -71t19 -102q0 -54 -16.5 -98t-49.5 -75.5t-81 -48.5t-111 -17zM121 446q-10 -3 -21 -6
t-20.5 -8t-16 -12.5t-6.5 -17.5q0 -8 6 -15t19 -7t20.5 6.5t11.5 16.5t5.5 21t1.5 20v2zM91 715q-13 0 -19 -6.5t-6 -14.5t6 -14.5t19 -6.5h30v7q0 16 -8 25.5t-22 9.5z" />
    <glyph glyph-name="six" unicode="6" horiz-adv-x="630" 
d="M320 -3q-127 0 -192.5 60.5t-65.5 184.5q0 60 24 128t72.5 129.5t122 108.5t171.5 65q3 1 3.5 -2t-2.5 -4q-92 -15 -163.5 -60t-121 -105t-75 -128.5t-25.5 -131.5q0 -239 252 -239q57 0 103 13.5t79 38.5t50.5 60.5t17.5 79.5q0 91 -62 140.5t-177 49.5
q-48 0 -84.5 -9.5t-61.5 -25t-38 -35.5t-13 -41q0 -54 54 -54q30 0 45.5 17t17.5 36q0 3 3 3t3 -3q-2 -26 -21.5 -42.5t-47.5 -16.5q-32 0 -46 17t-14 43q0 22 13 43t38.5 37.5t63.5 26.5t88 10q56 0 101 -12t77 -36.5t49.5 -61.5t17.5 -86q0 -45 -18.5 -81.5t-52 -62.5
t-80.5 -40t-105 -14z" />
    <glyph glyph-name="seven" unicode="7" horiz-adv-x="655" 
d="M300 346q-21 -78 -27 -165t5 -181q0 -3 -2 -3h-1q-3 0 -3 3q-21 188 21 346h-111q-3 0 -3 3t3 3h113q0 2 1 3q20 69 51 128.5t72 104.5q12 14 25 26t27 23q-59 4 -121 12q-55 5 -111.5 10t-117.5 7q-1 -7 -2 -13t-4 -12q-7 -14 -20.5 -22.5t-30.5 -8.5q-18 0 -30 9
q-10 10 -10 22t10 22t30 10h25.5t24.5 -1q-1 16 -8.5 32.5t-21.5 33.5q-3 1 0 4q2 2 4 0q30 -35 32 -70q62 -2 118.5 -7t111.5 -10q33 -4 64.5 -7t63.5 -5q34 24 68.5 37t68.5 13q14 0 21 -9.5t7 -20.5q0 -12 -8 -22q-10 -10 -24 -10q-67 0 -131 6q-29 -21 -57 -53
q-82 -93 -122 -232h113q3 0 3 -3t-3 -3h-114zM488 642q30 -2 60.5 -3.5t62.5 -1.5q11 0 19 8q7 9 7 18t-5.5 16.5t-16.5 7.5q-62 0 -127 -45zM64 667q-17 0 -25.5 -8t-8.5 -18q0 -11 8 -17q10 -8 26 -8q32 0 46 28q2 5 3 10.5t2 11.5q-13 1 -25.5 1h-25.5z" />
    <glyph glyph-name="eight" unicode="8" horiz-adv-x="713" 
d="M347 -3q-62 0 -116 10t-93.5 29.5t-62.5 49t-23 69.5q0 37 13.5 67.5t47.5 55t90 43.5t142 33q-40 7 -84 21.5t-80.5 37.5t-60 56.5t-23.5 80.5q0 60 36 91.5t110 31.5q28 0 57 -11.5t54 -32.5q23 21 54 32.5t65 11.5q67 0 102.5 -31.5t35.5 -91.5q0 -42 -25 -75t-61 -57
t-76.5 -40t-72.5 -24q51 -10 102 -24.5t91.5 -37.5t66 -57.5t25.5 -83.5q0 -43 -27.5 -72.5t-72.5 -47.5t-101 -26t-113 -8zM361 351q-81 -14 -138.5 -30.5t-94 -39.5t-53.5 -53.5t-17 -72.5q0 -37 21.5 -65t60 -47.5t91.5 -29.5t116 -10q67 0 123.5 9.5t97.5 28t64 46.5
t23 64q0 37 -15.5 65.5t-41 49t-57.5 35t-64.5 24t-63 15.5t-52.5 11zM243 667q-71 0 -105.5 -30t-34.5 -87q0 -48 27 -82t66.5 -56.5t84.5 -35.5t81 -19q36 9 78.5 25t79 40t61 55.5t24.5 72.5q0 57 -34 87t-98 30q-32 0 -62 -11t-53 -31q20 -18 30.5 -37.5t10.5 -37.5
q0 -22 -13.5 -32t-28.5 -10q-19 0 -31 11.5t-12 30.5q0 20 9 39t26 36q-23 20 -51 31t-55 11zM354 621q-17 -16 -25.5 -34.5t-8.5 -36.5q0 -17 11 -26.5t26 -9.5q14 0 25 8.5t11 27.5q0 17 -10.5 35.5t-28.5 35.5z" />
    <glyph glyph-name="nine" unicode="9" horiz-adv-x="639" 
d="M295 -3q-112 0 -171 25.5t-59 74.5q0 25 16 39.5t43 14.5q39 0 61 -28q2 -2 -0.5 -4.5t-4.5 0.5q-20 26 -56 26q-25 0 -39 -12.5t-14 -35.5q0 -33 27 -52t64 -28.5t74.5 -11.5t58.5 -2q63 0 108.5 16t76 43t48.5 64.5t27.5 79.5t12.5 88t3 91q0 137 -69 209.5t-200 72.5
q-67 0 -113.5 -16.5t-75 -43t-41 -59.5t-12.5 -67q0 -87 62.5 -132.5t180.5 -45.5q34 0 67 6.5t61.5 18.5t51 28.5t37.5 37.5q3 3 5 0.5t0 -4.5q-19 -25 -45 -42.5t-55.5 -29t-61 -16.5t-60.5 -5q-56 0 -101.5 11t-78.5 33.5t-51 57t-18 82.5q0 42 16 77t47 60.5t77.5 40
t107.5 14.5q137 0 206 -77t69 -211q0 -43 -2.5 -88.5t-12 -88.5t-27.5 -81.5t-49.5 -67t-78 -45.5t-112.5 -17z" />
    <glyph glyph-name="colon" unicode=":" horiz-adv-x="143" 
d="M88 14q0 -7 -5 -11.5t-12 -4.5q-6 0 -11 4.5t-5 11.5t5 12t11 5q7 0 12 -5t5 -12zM88 340q0 -7 -5 -12t-12 -5q-6 0 -11 5t-5 12t5 11.5t11 4.5q7 0 12 -4.5t5 -11.5z" />
    <glyph glyph-name="semicolon" unicode=";" horiz-adv-x="143" 
d="M48 -34q27 6 32 34q-2 -1 -4 -1.5t-5 -0.5q-6 0 -11 4.5t-5 11.5t5 12t11 5q7 0 12 -5t5 -12q0 -44 -38 -55q-3 -1 -4 2.5t2 4.5zM88 340q0 -7 -5 -12t-12 -5q-6 0 -11 5t-5 12t5 11.5t11 4.5q7 0 12 -4.5t5 -11.5z" />
    <glyph glyph-name="less" unicode="&#x3c;" horiz-adv-x="477" 
d="M424 34q3 -2 1.5 -4.5t-3.5 -0.5l-370 175q-4 2 0 5l370 175q3 2 4 -0.5t-2 -4.5l-364 -172z" />
    <glyph glyph-name="equal" unicode="=" horiz-adv-x="521" 
d="M53 417q-3 0 -3 3t3 3h415q3 0 3 -3t-3 -3h-415zM53 232q-3 0 -3 3t3 3h415q3 0 3 -3t-3 -3h-415z" />
    <glyph glyph-name="greater" unicode="&#x3e;" horiz-adv-x="477" 
d="M417 207l-364 172q-3 2 -2 4.5t4 0.5l370 -175q4 -3 0 -5l-370 -175q-3 -2 -4 0.5t2 4.5z" />
    <glyph glyph-name="question" unicode="?" horiz-adv-x="499" 
d="M242 123q0 -3 -3 -3t-3 3v56q0 46 15.5 75t38.5 49.5t49.5 37t49.5 38t38.5 52t15.5 79.5q0 77 -55 117t-150 40q-29 0 -62.5 -4.5t-62.5 -17.5t-48 -36t-19 -60q0 -22 11.5 -35.5t30.5 -13.5q41 0 45 40q0 2 3 2.5t3 -3.5q-2 -21 -15.5 -33t-35.5 -12q-21 0 -34.5 15.5
t-13.5 39.5q0 54 47.5 89t150.5 35q100 0 155.5 -42.5t55.5 -120.5q0 -50 -15.5 -81.5t-38.5 -53t-49.5 -38.5t-49.5 -37t-38.5 -48t-15.5 -73v-56zM254 12q0 -6 -4.5 -10.5t-10.5 -4.5t-10.5 4.5t-4.5 10.5t4.5 10.5t10.5 4.5t10.5 -4.5t4.5 -10.5z" />
    <glyph glyph-name="at" unicode="@" horiz-adv-x="1078" 
d="M555 -131q-125 0 -214.5 36t-147 101t-84.5 155t-27 198q0 96 32 175t91.5 135.5t144.5 87.5t190 31q99 0 183 -29t144.5 -84t94.5 -134t34 -179q0 -42 -9.5 -85.5t-30.5 -79t-54 -57.5t-80 -22q-41 0 -70.5 15t-50 41.5t-32 61t-16.5 73.5q-23 -51 -62.5 -87t-97.5 -36
q-36 0 -63 12.5t-45.5 35t-28 53t-9.5 66.5q0 37 12 67t33 51.5t50 33t63 11.5q33 0 60 -8t53 -25q3 -2 1.5 -5t-4.5 -1q-49 33 -110 33q-33 0 -61 -11.5t-48.5 -32t-31.5 -49.5t-11 -64q0 -77 38.5 -119t101.5 -42q31 0 56.5 11.5t45 30.5t33.5 41.5t23 45.5q-3 28 -4 57.5
t-1 71.5q0 40 7.5 51.5t17.5 11.5q20 0 20 -32q0 -11 -1.5 -28t-5.5 -38.5t-10.5 -46t-16.5 -48.5q4 -40 15.5 -75.5t31 -62.5t48.5 -42.5t70 -15.5q48 0 80 23t51.5 58t28 77t8.5 80q0 97 -33 174.5t-92.5 132t-142 84t-182.5 29.5q-104 0 -188 -31t-142.5 -87t-90 -133.5
t-31.5 -171.5q0 -120 31.5 -210.5t91 -151t146.5 -91.5t198 -31q44 0 85.5 6.5t76.5 16.5t62 23t44 25q2 2 4 -0.5t0 -4.5q-27 -19 -61.5 -32.5t-70.5 -22.5t-72.5 -13t-67.5 -4zM671 507q-7 0 -10.5 -6t-5.5 -15t-2.5 -19.5t-0.5 -19.5v-22.5t0.5 -31t1.5 -32.5t2 -28
q17 46 23 87t6 61q0 26 -14 26z" />
    <glyph glyph-name="A" unicode="A" horiz-adv-x="693" 
d="M162 289q-28 4 -54.5 6t-50.5 2q-57 0 -57 -40q0 -19 10 -27.5t26 -8.5q9 0 21 3q3 1 3.5 -2t-2.5 -4q-12 -3 -23 -3q-20 0 -30.5 11.5t-10.5 30.5q0 27 18.5 36.5t44.5 9.5q25 0 52 -2t56 -6l174 337q-12 22 -18 36t-6 29q0 14 8.5 21t19.5 7t19.5 -7t8.5 -21
q0 -15 -8.5 -33t-16.5 -31l242 -470q15 -8 40 -22t48 -31t40 -36t17 -37q0 -17 -9.5 -28.5t-27.5 -11.5q-12 0 -24.5 7.5t-21.5 24.5l-66 129q-106 53 -208.5 83.5t-207.5 47.5l-150 -291q-2 -2 -4.5 -1t-0.5 4zM656 31q8 -15 18.5 -21.5t21.5 -6.5q17 0 24 11t7 23
q0 16 -15.5 33.5t-37.5 33.5t-44.5 29t-36.5 21zM171 294q107 -17 206.5 -47t201.5 -80l-236 459zM343 719q-8 0 -15 -5.5t-7 -16.5q0 -14 5.5 -26.5t16.5 -32.5q10 18 16 31.5t6 27.5q0 11 -7 16.5t-15 5.5z" />
    <glyph glyph-name="B" unicode="B" horiz-adv-x="740" 
d="M375 -3q-95 0 -136 24t-41 57q0 23 13.5 35t36.5 12q21 0 34 -10.5t15 -28.5q0 -3 -2.5 -3t-3.5 3q-5 33 -43 33q-44 0 -44 -41q0 -35 45 -55t126 -20q49 0 100.5 8.5t93 29.5t68 57t26.5 92q0 72 -36 115t-111 60q-30 -17 -63 -27t-62 -10q-27 0 -33.5 11t-6.5 17
q0 28 40 28q71 0 124 -12q43 25 71.5 64t28.5 90q0 42 -17 69.5t-44.5 43t-62 22t-68.5 6.5q-66 0 -115.5 -27t-86 -70.5t-61 -98t-40.5 -108.5q8 -84 10.5 -165.5t2.5 -168.5q0 -18 -10 -25t-21 -7t-21 7t-10 25q0 91 10 172.5t33 162.5q-7 75 -19 156t-26 149q-1 4 2 4.5
t4 -2.5q15 -74 26 -148t18 -144q18 59 44.5 112t63.5 93.5t85.5 64.5t110.5 24q38 0 74 -7t63.5 -24.5t44 -45.5t16.5 -70q0 -53 -28.5 -92t-69.5 -64q72 -19 109 -61.5t37 -118.5q0 -93 -76.5 -143t-217.5 -50zM116 347q-19 -71 -29 -151t-10 -167q0 -14 8 -20t17 -6
q5 0 15 4t10 22q0 82 -2.5 160t-8.5 158zM391 378q-34 0 -34 -22t34 -22q26 0 57 9t59 24q-52 11 -116 11z" />
    <glyph glyph-name="C" unicode="C" horiz-adv-x="681" 
d="M370 -3q-78 0 -136 26t-96 72t-57 107.5t-19 132.5q0 76 23 138.5t64.5 107t98 68.5t122.5 24q57 0 101.5 -11t75 -29t46 -41.5t15.5 -48.5q0 -32 -15.5 -52.5t-44.5 -20.5q-26 0 -44.5 16t-18.5 45q0 3 3 3t3 -3q0 -25 15.5 -40t41.5 -15q25 0 39.5 18.5t14.5 48.5
q0 23 -15 45.5t-44 40t-72.5 28t-100.5 10.5q-67 0 -122.5 -24.5t-95.5 -68t-62 -105t-22 -134.5q0 -77 21 -138.5t60 -104.5t95 -66t126 -23q78 0 145 30.5t106 84.5q2 2 4.5 0t0.5 -4q-40 -54 -108.5 -85.5t-147.5 -31.5z" />
    <glyph glyph-name="D" unicode="D" horiz-adv-x="675" 
d="M298 -3q-53 0 -104 12.5t-92 27.5q-19 -40 -56 -40q-17 0 -26.5 7.5t-9.5 21.5q0 11 8.5 20.5t27.5 9.5q11 0 24 -3.5t28 -8.5q10 23 10 59v284q0 67 28 116q2 4 4.5 2t0.5 -5q-27 -47 -27 -113v-284q0 -37 -10 -61q46 -17 95 -28t99 -11q146 0 227.5 86t81.5 246
q0 76 -24.5 137t-69 104.5t-107.5 67t-140 23.5q-20 0 -48 -1t-58.5 -5.5t-60 -12t-53.5 -20.5t-38.5 -32t-14.5 -45q0 -21 11 -33.5t31 -12.5q18 0 30 9t15 29q1 4 4 3.5t2 -4.5q-3 -20 -16.5 -31.5t-34.5 -11.5q-22 0 -35 14.5t-13 37.5q0 40 30.5 64.5t74.5 37t91.5 16.5
t82.5 4q78 0 142 -24t109.5 -68.5t70.5 -107t25 -138.5q0 -82 -22 -145t-63 -106t-99.5 -65t-130.5 -22zM46 50q-14 0 -22 -6.5t-8 -17.5t8 -17t22 -6q33 0 50 36q-15 5 -27 8t-23 3z" />
    <glyph glyph-name="E" unicode="E" horiz-adv-x="696" 
d="M346 -3q-58 0 -110 9t-91 32t-62 62t-23 98q0 62 34 106.5t97 66.5q-17 9 -31 18.5t-24.5 22.5t-16 29.5t-5.5 39.5q0 38 9 79.5t9 83.5h-29q-17 0 -24.5 8t-7.5 19q0 14 10 20t21 6q20 0 27 -14.5t9 -32.5q61 1 109.5 4t93.5 7t87 6.5t95 2.5q38 0 59.5 -22t21.5 -54
q0 -24 -14.5 -48.5t-47.5 -37.5q-4 -2 -5 1.5t2 4.5q32 12 45.5 34.5t13.5 45.5q0 33 -21.5 51.5t-53.5 18.5q-52 0 -94 -2.5t-87 -6.5t-93.5 -7t-110.5 -4q-1 -45 -9.5 -86.5t-8.5 -76.5q0 -25 7 -42.5t18 -29.5t25 -20t28 -15q32 11 69 16.5t80 5.5q24 0 34 -8.5t10 -19.5
q0 -13 -12 -20.5t-32 -7.5q-90 0 -149 28q-62 -22 -97 -64.5t-35 -105.5q0 -195 280 -195q140 0 214 30t74 84q0 16 -6 26t-15 15.5t-19.5 7t-19.5 1.5q-23 0 -38.5 -10.5t-18.5 -29.5q-1 -3 -3.5 -3t-2.5 3q2 21 19.5 33.5t43.5 12.5q32 0 49 -14.5t17 -41.5
q0 -54 -71.5 -87t-222.5 -33zM206 370q28 -11 63.5 -17.5t77.5 -6.5q37 0 37 22t-37 22q-79 0 -141 -20zM102 691q-11 0 -18 -5.5t-7 -14.5q0 -8 6 -14.5t20 -6.5h29q-2 18 -7.5 29.5t-22.5 11.5z" />
    <glyph glyph-name="F" unicode="F" horiz-adv-x="604" 
d="M86 -3q-19 0 -29.5 13.5t-10.5 37.5q0 39 2 81t9.5 81t21.5 72t37 55v211v50.5t-4 44.5h-42q-18 0 -25.5 8t-7.5 19q0 14 10.5 20t21.5 6q21 0 32.5 -14.5t15.5 -31.5q58 1 106.5 5t94.5 9q48 5 94.5 9t99.5 4q39 0 60 -21t21 -53q1 -24 -13.5 -49t-48.5 -38
q-4 -2 -4.5 1.5t2.5 4.5q32 12 45 34t13 45q0 34 -21 52t-54 18q-52 0 -98.5 -4t-94.5 -9q-46 -5 -94.5 -8.5t-106.5 -5.5q4 -21 4 -46v-51v-205q26 21 62 31t87 10h125q12 17 31 33.5t39 16.5q11 0 16.5 -6.5t5.5 -15.5q0 -15 -9.5 -21.5t-23 -9t-29 -2.5t-27.5 -1
q-6 -9 -11.5 -19t-10.5 -22q-1 -3 -4.5 -2t-1.5 4q5 11 10 20.5t10 18.5h-120q-53 0 -88.5 -10t-60.5 -33v-283q0 -54 -36 -54zM116 328q-22 -21 -34.5 -55t-19 -72.5t-8.5 -78.5t-2 -74q0 -21 9 -33t25 -12q30 0 30 48v277zM466 427q-13 0 -29.5 -11t-33.5 -33q12 1 26 1
t25.5 2t19.5 7.5t8 17.5q0 16 -16 16zM69 690q-11 0 -18.5 -5t-7.5 -15q0 -8 5.5 -14.5t21.5 -6.5h41q-4 17 -14 29t-28 12z" />
    <glyph glyph-name="G" unicode="G" horiz-adv-x="709" 
d="M371 -3q-70 0 -127 23.5t-97.5 67t-62.5 105.5t-22 139q0 78 25 141t68.5 107.5t101 68.5t122.5 24q51 0 96.5 -9t79.5 -25.5t54 -40t20 -52.5q0 -36 -18.5 -54.5t-42.5 -18.5q-31 0 -48.5 17.5t-17.5 43.5q0 3 3 3t3 -3q0 -25 16.5 -40t43.5 -15q25 0 40 18t15 49
q0 25 -17.5 47t-49 38.5t-77 26t-100.5 9.5q-68 0 -125 -25t-98 -69.5t-64.5 -106t-23.5 -134.5q0 -75 21.5 -136t61 -103.5t95.5 -66t125 -23.5q36 0 73 8.5t70.5 22.5t60 33t40.5 40v211h-205q-23 -45 -66 -45q-25 0 -25 22q0 18 16.5 23.5t49.5 5.5h22q9 18 15 44
q1 3 4 2t2 -4q-6 -24 -15 -42h205q3 0 3 -3v-321q0 -3 -3 -3t-3 3v97q-20 -25 -49.5 -43.5t-63.5 -31t-68.5 -19t-62.5 -6.5zM388 318q-37 0 -50 -4.5t-13 -18.5q0 -16 19 -16q39 0 59 39h-15z" />
    <glyph glyph-name="H" unicode="H" horiz-adv-x="731" 
d="M617 399q-34 -35 -77.5 -45.5t-89.5 -10.5h-168q-58 0 -99.5 -17t-68.5 -54v-222q0 -23 -4.5 -38t-25.5 -15q-20 0 -24 14.5t-4 35.5q0 67 10.5 126t41.5 102v364q0 28 -22 28q-7 0 -15.5 -3t-16.5 -11q-2 -2 -4 0t0 4q8 8 18 12t18 4q19 0 23.5 -11t4.5 -23v-357
q55 67 168 67h168q116 0 167 60v210q0 24 4.5 39t24.5 15t24.5 -14.5t4.5 -36.5q0 -78 -12 -129.5t-40 -86.5v-406q0 -3 -3 -3t-3 3v399zM108 264q-24 -36 -35 -89.5t-11 -127.5q0 -23 4 -33.5t18 -10.5q16 0 20 11t4 36v214zM646 667q-15 0 -19 -11t-4 -37v-203
q23 32 34.5 82t11.5 124q0 23 -4 34t-19 11z" />
    <glyph glyph-name="I" unicode="I" horiz-adv-x="383" 
d="M60 -47q-54 0 -54 26q0 19 18 23.5t39 4.5h102q11 14 17 33t6 45v481q0 46 23 78h-179q-4 0 -3.5 3t3.5 3h183q21 25 49.5 36.5t58.5 11.5q54 0 54 -26q0 -19 -18 -23.5t-39 -4.5h-102q-11 -14 -17.5 -33t-6.5 -45v-481q0 -47 -22 -78h179q3 0 3 -3t-3 -3h-183
q-22 -26 -50 -37t-58 -11zM63 1q-27 0 -39 -5t-12 -17q0 -7 5.5 -11t13 -6t16 -2.5t13.5 -0.5q23 0 51 9t49 33h-97zM320 650q27 0 39 5.5t12 16.5q0 7 -5.5 11t-13 6t-16 2.5t-13.5 0.5q-23 0 -51 -9t-49 -33h97z" />
    <glyph glyph-name="J" unicode="J" horiz-adv-x="619" 
d="M281 -3q-45 0 -85 9.5t-71 29t-49 50.5t-18 73q0 30 9 55t26.5 43t42 28.5t54.5 10.5q26 0 44.5 -6t30.5 -16t18.5 -22.5t7.5 -25.5q3 -26 -10 -47t-39 -28q-4 -1 -4.5 2t2.5 4q22 5 35 24.5t10 43.5q-2 24 -24 44.5t-71 20.5q-56 0 -91 -36.5t-35 -94.5q0 -44 19.5 -74
t50.5 -48t69.5 -26t77.5 -8q111 0 173 50t62 139v449h-420q-3 0 -3 3t3 3h420v7q0 18 10 29.5t26 11.5q15 0 23 -8.5t8 -18.5q0 -11 -8 -19t-23 -8h-30v-449q0 -52 -20 -89t-53 -60.5t-76.5 -34.5t-91.5 -11zM522 647h30q13 0 19 6.5t6 14.5t-6 14.5t-19 6.5q-14 0 -22 -9.5
t-8 -25.5v-7z" />
    <glyph glyph-name="K" unicode="K" horiz-adv-x="688" 
d="M642 -3q-24 0 -37 14.5t-28 37.5l-130 208q-18 28 -37.5 43.5t-36.5 22t-30 7.5t-18 1q-30 -14 -61.5 -32.5t-60 -40.5t-52.5 -45.5t-37 -48.5v-135q0 -17 -7.5 -24.5t-16.5 -7.5q-5 0 -14.5 5t-9.5 27q0 29 11 64.5t31 72.5v504q0 3 3 3t3 -3v-494q11 21 36 45t56.5 47
t65 42.5t61.5 31.5q34 15 77.5 42t82 67.5t65 94.5t26.5 124q0 3 3 3t3 -3q0 -62 -21.5 -113.5t-56.5 -92.5t-80.5 -73t-94.5 -55q37 -2 65.5 -21.5t50.5 -54.5l129 -208q14 -23 26 -36t34 -13q25 0 39 11q2 2 4 0t0 -4q-17 -13 -43 -13zM108 153q-18 -35 -27 -67t-9 -57
q0 -26 18 -26t18 26v124z" />
    <glyph glyph-name="L" unicode="L" horiz-adv-x="597" 
d="M111 -3q-3 0 -3 3v574q-12 -8 -25 -14t-28 -12q-2 -1 -3.5 1.5t1.5 4.5q5 2 13 5.5l16 7t15 7.5t11 7q0 42 4.5 67t26.5 25q11 0 16.5 -8t5.5 -17q0 -18 -13 -36.5t-34 -33.5v-575h460q3 0 3 -3t-3 -3h-463zM139 667q-17 0 -21 -21t-4 -61q41 32 41 63q0 7 -4 13t-12 6z
" />
    <glyph glyph-name="M" unicode="M" horiz-adv-x="1136" 
d="M104 -3q-3 0 -3 3q3 44 4.5 92t2.5 96t1 95v89q-2 51 0 92v52.5t1 43.5q-11 -7 -24.5 -14t-28.5 -14q-3 -2 -4 0.5t1 4.5q35 16 57 31q1 17 2 31.5t3 25.5q4 26 12 37t22 11q26 0 26 -27q0 -42 -59 -81q-2 -20 -2 -45.5v-55.5q-1 -20 -0.5 -43t0.5 -49q0 -72 -0.5 -153.5
t-3.5 -159.5q16 99 37 195t53 180q42 112 96 170q63 69 143 69q95 0 133 -62q17 -28 24 -70.5t7 -107.5v-68l8 22q42 126 100 199q70 87 157 87q95 0 132 -62q17 -28 24.5 -70.5t7.5 -107.5v-402q0 -15 5 -21.5t19 -6.5q8 0 17.5 3t16.5 11q2 2 4 0t0 -4q-8 -8 -18.5 -12
t-19.5 -4q-20 0 -25 11t-5 23v402q0 64 -7.5 106t-23.5 69q-35 59 -127 59q-84 0 -152 -85q-56 -69 -100 -197q-3 -10 -6.5 -19.5t-6.5 -20.5v-314q0 -15 -8 -24.5t-22 -9.5q-33 0 -33 34q0 17 3.5 50t10 75t17.5 91t26 99v87q0 64 -7 106t-24 69q-35 59 -127 59
q-78 0 -139 -67q-53 -58 -94 -168q-37 -96 -60 -208t-40 -224q0 -3 -3 -3zM598 324q-13 -47 -22.5 -92.5t-16 -84.5t-9.5 -69.5t-3 -46.5q0 -28 27 -28q11 0 17.5 8t6.5 20v293zM150 667q-16 0 -23.5 -20.5t-9.5 -74.5q53 38 53 74q0 4 -3 12.5t-17 8.5z" />
    <glyph glyph-name="N" unicode="N" horiz-adv-x="764" 
d="M104 -3q-2 0 -2 3q3 44 4 92t1.5 96t0.5 95v89v92q0 29 0.5 52.5t1.5 43.5q-11 -7 -23 -14t-26 -14q-3 -2 -4 0.5t1 4.5q15 8 28 15.5t24 15.5q1 18 2.5 37t5 34t10.5 24.5t19 9.5q11 0 17.5 -7t6.5 -20q0 -41 -55 -81q-1 -20 -1.5 -45.5t-0.5 -55.5v-92v-155t-4 -162
q19 102 45.5 196t67.5 184q19 41 44.5 83t57 76.5t70 56.5t84.5 22q55 0 91 -19.5t57 -52.5t29.5 -76.5t8.5 -91.5v-402q0 -16 5 -22t16 -6q8 0 16.5 3t15.5 11q2 2 4 0t0 -4q-8 -9 -18 -12.5t-18 -3.5q-18 0 -22.5 11t-4.5 23v402q0 50 -8.5 92.5t-29.5 74t-55.5 49.5
t-86.5 18q-47 0 -85.5 -23t-69.5 -58.5t-55 -76.5t-41 -77q-20 -44 -38 -95t-34 -106.5t-28 -114t-20 -116.5q-2 -3 -3 -3h-1zM147 667q-15 0 -21.5 -21t-9.5 -74q49 37 49 74q0 4 -3 12.5t-15 8.5z" />
    <glyph glyph-name="O" unicode="O" horiz-adv-x="731" 
d="M365 -3q-75 0 -131.5 24.5t-95 67.5t-57.5 101t-19 126q0 41 10 80t30 72t49 58t67 37q2 49 46 79.5t132 30.5q85 0 140.5 -37.5t88.5 -103.5q50 37 76 96q2 3 4.5 1.5t1.5 -3.5q-14 -30 -34.5 -55t-44.5 -44q41 -87 41 -211q0 -71 -20 -129t-59 -100q-40 -45 -97 -67.5
t-128 -22.5zM218 556q-33 -10 -60.5 -32t-47.5 -53.5t-31 -71t-11 -83.5q0 -72 20.5 -130t59 -98.5t93.5 -62.5t124 -22t124 22t94 62.5t59.5 98.5t20.5 130q0 121 -40 207q-45 -35 -104 -51.5t-116 -16.5q-26 0 -57.5 3.5t-59 14.5t-46.5 31t-22 52zM224 558
q2 -47 48.5 -72t130.5 -25q27 0 55.5 4t57 12t55 20.5t49.5 30.5q-33 71 -91 105t-133 34q-79 0 -124.5 -27.5t-47.5 -75.5q22 6 46 6q47 0 80.5 -9.5t62.5 -31.5q2 -2 0 -4q-3 -3 -4 -1q-28 21 -61 30.5t-78 9.5q-24 0 -46 -6z" />
    <glyph glyph-name="P" unicode="P" horiz-adv-x="655" 
d="M102 -3q-11 0 -20.5 7t-9.5 25q0 91 10 172.5t33 162.5q-7 73 -18 148.5t-28 156.5q-1 4 2 4.5t4 -2.5q17 -78 27.5 -150t16.5 -142q19 60 46 113.5t64.5 93.5t85.5 63.5t108 23.5q94 0 148 -51t54 -150q0 -51 -17.5 -93t-50 -72t-78 -46t-102.5 -16q-85 0 -133.5 23.5
t-48.5 67.5q0 24 14.5 35.5t37.5 11.5t35 -12.5t14 -28.5q0 -3 -3 -3.5t-3 2.5q-2 17 -13.5 26.5t-29.5 9.5q-5 0 -13 -1t-15.5 -5.5t-12.5 -12.5t-5 -22q0 -35 42.5 -60t133.5 -25q55 0 100 15.5t76.5 44.5t48.5 70t17 91q0 94 -51 144.5t-145 50.5q-66 0 -115.5 -27
t-85.5 -70.5t-60.5 -97.5t-40.5 -109q8 -84 10 -165.5t2 -168.5q0 -18 -10 -25t-21 -7zM116 347q-38 -143 -38 -318q0 -14 7.5 -20t16.5 -6q5 0 15 4t10 22q0 82 -2 160t-9 158z" />
    <glyph glyph-name="Q" unicode="Q" horiz-adv-x="729" 
d="M607 -171q-40 0 -68 10t-56 23q-20 9 -42 18t-50 14q-4 -25 -18 -36.5t-31 -11.5q-14 0 -24.5 6t-10.5 22q0 13 9.5 21.5t27.5 8.5q22 0 42 -3v101h-21q-78 0 -135 25.5t-94.5 69t-55.5 101.5t-18 123q0 78 18.5 143.5t55 113t91.5 74t128 26.5q45 0 87 -13.5t71 -43.5
q2 -2 -0.5 -4.5t-4.5 0.5q-26 26 -65.5 40.5t-87.5 14.5q-68 0 -121 -24t-90 -69t-56.5 -110.5t-19.5 -147.5q0 -72 20.5 -130t59 -98.5t93.5 -62.5t124 -22h21v145q-8 -2 -17 -3t-19 -1q-39 0 -62.5 18t-36.5 45t-17 59.5t-4 61.5q0 115 56.5 178.5t165.5 63.5
q51 0 91 -18.5t67.5 -52t42 -80.5t14.5 -103q0 -66 -17.5 -122t-52.5 -98t-86.5 -67.5t-118.5 -31.5v-102q29 -5 51 -14t43 -19q27 -13 55 -22.5t66 -9.5q22 0 41 10t19 33q0 12 -5.5 22.5t-15.5 15.5q-4 2 -2.5 5t5.5 1q12 -7 18.5 -19t5.5 -26q0 -14 -6.5 -23t-16.5 -14.5
t-21.5 -8t-21.5 -2.5zM392 8q63 4 112.5 28t84.5 64.5t53.5 96.5t18.5 124q0 57 -14.5 103t-41.5 78t-65.5 49.5t-87.5 17.5q-106 0 -161 -60.5t-55 -175.5q0 -30 4 -61.5t16 -57.5t34.5 -42.5t59.5 -16.5q10 0 19 1t17 3v19q0 15 1.5 30t7 27t14.5 19.5t24 7.5q28 0 28 -30
q0 -31 -21 -50.5t-48 -26.5v-147zM433 256q-24 0 -32.5 -22t-8.5 -56v-17q26 8 44.5 26t18.5 45q0 6 -3.5 15t-18.5 9zM344 -102q-15 0 -23 -6.5t-8 -17.5q0 -14 10 -18t19 -4q14 0 26.5 9.5t16.5 33.5q-18 3 -41 3z" />
    <glyph glyph-name="R" unicode="R" horiz-adv-x="682" 
d="M624 -3q-23 0 -39 17.5t-33 40.5l-121 168q-8 11 -15 20.5t-14 17.5q-18 -3 -37.5 -4t-39.5 -1q-35 0 -35 27q0 7 6.5 17.5t32.5 10.5q19 0 36.5 -10.5t38.5 -33.5q49 8 90.5 25t72.5 44t48.5 65.5t17.5 89.5q0 83 -55.5 129.5t-154.5 46.5q-66 0 -116 -27.5t-86.5 -71
t-61 -98t-39.5 -107.5q8 -84 10.5 -165.5t2.5 -168.5q0 -18 -10 -25t-21 -7t-21 7t-10 25q0 181 43 335q-7 73 -18 151t-27 154q-1 3 2 4t4 -2q16 -78 26.5 -150t17.5 -142q17 55 42.5 108t62.5 94.5t86 66.5t113 25q59 0 100 -15.5t67 -41t37.5 -58.5t11.5 -67
q0 -51 -17 -90t-48 -67t-73 -46t-92 -26q6 -8 13 -16.5t14 -18.5l121 -168q19 -26 33 -41t34 -15q25 0 42 12q2 2 3.5 -0.5t-0.5 -4.5q-16 -13 -45 -13zM116 347q-19 -71 -29 -151t-10 -167q0 -14 8 -20t17 -6q5 0 15 4t10 22q0 82 -2.5 160t-8.5 158zM329 305
q-33 0 -33 -22q0 -21 29 -21q19 0 37 1t35 3q-19 21 -35 30t-33 9z" />
    <glyph glyph-name="S" unicode="S" horiz-adv-x="699" 
d="M637 -1q-16 22 -33 41t-36 36q-24 -23 -55 -38t-65 -24t-70 -12.5t-69 -3.5q-74 0 -125.5 8.5t-83.5 24.5t-47 39t-15 52q0 30 14 49.5t36 31.5t48.5 17t51.5 5q107 0 204.5 -35.5t175.5 -105.5q42 45 42 105q0 42 -17.5 69t-46 44t-64.5 26t-73 14l-160 23
q-99 14 -141.5 52t-42.5 98q0 72 63.5 115t202.5 43q63 0 107.5 -10t72.5 -27t41 -39t13 -46q0 -33 -16.5 -51t-48.5 -18q-60 0 -70 58q-1 4 2.5 4t3.5 -3q8 -53 64 -53q59 0 59 63q0 54 -59.5 85t-168.5 31q-42 0 -88 -6t-84.5 -22.5t-63 -46t-24.5 -77.5q0 -64 45 -97.5
t133 -46.5l160 -23q39 -6 76.5 -15.5t66.5 -27t46.5 -45.5t17.5 -71q0 -63 -44 -109q20 -17 37 -36.5t33 -40.5q2 -3 -0.5 -4.5t-4.5 0.5zM188 219q-25 0 -50.5 -5t-46.5 -16.5t-34 -30t-13 -45.5q0 -57 62.5 -87.5t202.5 -30.5q88 0 152.5 20t102.5 56q-75 67 -171 103
t-205 36z" />
    <glyph glyph-name="T" unicode="T" horiz-adv-x="638" 
d="M291 536q0 64 55 95q-51 5 -91 10.5t-72 10.5t-55 8t-41 3q-7 0 -20 -1.5t-25.5 -7t-22 -16.5t-9.5 -30q0 -21 10 -33t25 -16.5t32 -1t31 14.5q2 2 4 0t-1 -4q-16 -14 -34.5 -17.5t-34.5 2.5t-27 20t-11 35q0 18 8 29.5t20 18.5t26.5 10t28.5 3q18 0 41.5 -3t55.5 -8
q33 -5 75.5 -11t96.5 -11q25 11 55.5 17.5t62.5 10t64.5 4.5t62.5 1q17 0 25 -7.5t8 -16.5q0 -10 -8.5 -18t-23.5 -8q-74 0 -134 3t-111 8q-60 -30 -60 -94v-535q0 -3 -3 -3t-3 3v535zM369 635q48 -5 106 -7.5t127 -2.5q13 0 19.5 6t6.5 14q0 6 -6 12t-21 6q-163 0 -232 -28
z" />
    <glyph glyph-name="U" unicode="U" horiz-adv-x="700" 
d="M663 -1q-25 60 -46.5 142.5t-34.5 177.5q-15 -57 -40 -114.5t-62 -103.5t-86 -75t-112 -29q-96 0 -138 65t-42 195v336q0 25 -6 39.5t-15.5 22t-21 10t-21.5 2.5q-26 0 -42.5 -14.5t-16.5 -38.5q0 -19 13 -35t39 -16q10 0 19 3.5t14 7.5q2 2 4 -0.5t-1 -4.5
q-6 -5 -15.5 -8.5t-20.5 -3.5q-29 0 -43.5 18t-14.5 39q0 23 16.5 41t48.5 18q70 0 70 -80v-335q0 -60 9 -107.5t29 -80t53.5 -50t82.5 -17.5q65 0 114.5 31t85.5 79.5t60 107t38 113.5q-9 70 -14 142t-5 143q0 34 11.5 44t22.5 10q31 0 31 -53q0 -21 -2 -52.5t-6.5 -69
t-12 -79.5t-19.5 -85q12 -91 33 -178t50 -155q2 -3 -1 -4.5t-5 2.5zM595 667q-28 0 -28 -48q0 -60 4.5 -128.5t12.5 -140.5q21 83 28.5 155.5t7.5 114.5q0 31 -8.5 39t-16.5 8z" />
    <glyph glyph-name="V" unicode="V" horiz-adv-x="666" 
d="M57 571q-11 -11 -24 -20.5t-33 -20.5q-3 -2 -4.5 0.5t1.5 4.5q17 10 32 20.5t26 21.5q-10 23 -13.5 36t-3.5 25q0 13 7 24t21 11q28 0 28 -36q0 -28 -33 -61l287 -570l270 521q10 19 14 38t4 37q0 43 -25 66q-2 2 0 4t4 0q27 -24 27 -70q0 -17 -3.5 -36.5t-14.5 -40.5
l-273 -526q-1 -2 -3 -2t-3 2zM66 667q-14 0 -18 -10.5t-4 -18.5q0 -11 3 -23t12 -33q29 29 29 55q0 7 -3.5 18.5t-18.5 11.5z" />
    <glyph glyph-name="W" unicode="W" horiz-adv-x="1086" 
d="M779 -3q-57 0 -98 27.5t-69 70.5t-45 96t-27 104q-12 -51 -31 -103.5t-48.5 -96t-71 -71t-98.5 -27.5t-92.5 25t-56 64t-27.5 85.5t-7 90.5v331q0 42 -20 60q-17 14 -46 14q-26 0 -43 -15t-17 -38q0 -19 13.5 -35t39.5 -16q10 0 18.5 3.5t13.5 7.5q3 2 4.5 0t-0.5 -4
q-5 -5 -15 -9t-21 -4q-29 0 -44 18t-15 39q0 23 17 41t49 18q33 0 50 -16q22 -19 22 -64v-331q0 -44 7 -90t26.5 -83.5t54 -61.5t89.5 -24q54 0 94.5 25.5t70 68.5t49 98t32.5 115q-9 47 -13.5 94t-6.5 88t-2.5 74.5t-0.5 53.5q0 53 29 53t29 -53q0 -26 -1 -60.5t-4 -75
t-9 -85t-15 -89.5q9 -48 24.5 -102t43 -99.5t68.5 -75.5t100 -30q54 0 90.5 22.5t59.5 59.5t33 83t10 94v171q0 65 -7 127.5t-19 108.5q-1 2 2 4q2 0 4 -2q12 -47 19 -109.5t7 -128.5v-171q0 -51 -11 -99t-35 -85t-61.5 -59t-91.5 -22zM543 667q-2 0 -6 -0.5t-8 -5t-6.5 -14
t-2.5 -27.5q0 -19 0.5 -50.5t2 -70.5t5.5 -83t12 -89q8 43 13 86t8 81.5t4 70.5t1 55q0 18 -3 27.5t-6.5 14t-7.5 5t-6 0.5z" />
    <glyph glyph-name="X" unicode="X" horiz-adv-x="618" 
d="M-4 -3q-1 0 -1.5 0.5t-1.5 0.5q-2 2 0 4l616 670q2 2 4 0t0 -4l-615 -670q-1 0 -2 -1zM625 -3q-1 0 -2 1l-512 540q-11 12 -22 23.5t-20 23.5q-14 -18 -32.5 -33.5t-41.5 -28.5q-4 0 -5 1q0 4 2 5q48 26 73 60q-15 20 -24.5 40.5t-9.5 40.5q0 23 9.5 36.5t26.5 13.5
q35 0 35 -50q0 -41 -29 -81q9 -11 20 -23l22 -24l512 -540q2 -2 0 -4q0 -1 -2 -1zM67 714q-30 0 -30 -44q0 -19 9 -37.5t23 -38.5q27 38 27 76q0 6 -1 14t-4 14.5t-9 11t-15 4.5z" />
    <glyph glyph-name="Y" unicode="Y" horiz-adv-x="655" 
d="M315 -3q-67 0 -114.5 10t-78 26.5t-45 37.5t-14.5 42q0 25 15.5 39.5t38.5 14.5q21 0 35.5 -12t16.5 -32q0 -4 -3 -4t-3 3q-2 17 -14.5 28t-31.5 11q-17 0 -32.5 -10.5t-15.5 -37.5q0 -22 16 -42t47 -35t77 -24t106 -9q55 0 102 11t81.5 34t54 58.5t19.5 85.5
q0 63 -10.5 123.5t-20.5 116.5q-39 -84 -103 -129t-155 -45q-87 0 -135 40.5t-48 122.5v172q0 74 -67 74q-27 0 -43.5 -15.5t-16.5 -37.5q0 -19 13.5 -35t39.5 -16q10 0 19 3.5t14 7.5q2 2 4 0t0 -4q-6 -5 -16 -9t-21 -4q-29 0 -44 18t-15 39q0 26 18.5 42.5t47.5 16.5
q40 0 56.5 -22.5t16.5 -57.5v-172q0 -76 44.5 -116.5t132.5 -40.5q52 0 93 14.5t72 39.5t53.5 57.5t37.5 67.5q-8 42 -13 86t-5 90q0 54 31 54q29 0 29 -53q0 -47 -9.5 -92t-26.5 -86q11 -61 22 -124t11 -126q0 -93 -68 -144t-195 -51zM552 667q-25 0 -25 -48q0 -43 4.5 -84
t11.5 -82q17 45 24.5 88.5t7.5 78.5q0 18 -3 27.5t-6.5 14t-7.5 5t-6 0.5z" />
    <glyph glyph-name="Z" unicode="Z" horiz-adv-x="683" 
d="M587 -39q-22 0 -53.5 4t-69 10.5t-78.5 14.5l-82 16q-49 9 -94.5 18t-83.5 14q-23 -20 -42 -30.5t-37 -10.5q-15 0 -23 8t-8 19q0 12 9.5 20t24.5 8q14 0 32.5 -2t41.5 -5q47 44 97 125l206 329q20 32 44 65.5t50 59.5q-35 3 -76 8t-84 10q-36 4 -72 8.5t-69.5 8.5t-63 6
t-52.5 2q-29 0 -43 -16.5t-14 -34.5t12.5 -33.5t40.5 -15.5q3 0 3 -3t-3 -3q-26 0 -42.5 15t-16.5 40t17 41t46 16q23 0 52.5 -2t63 -6t69.5 -8.5t72 -8.5q45 -5 87 -10t79 -8q20 19 40.5 31t39.5 12q15 0 22.5 -8t7.5 -19q0 -14 -10 -20.5t-22 -6.5q-16 0 -35 1t-41 3
q-45 -45 -97 -127l-206 -330q-9 -14 -20.5 -31t-24.5 -33.5t-25.5 -32t-24.5 -26.5q38 -5 82 -13.5t92 -18.5l82 -16t78.5 -14t68.5 -10t53 -4q12 0 25 2t24 8t18 17t7 29q0 24 -14 38.5t-36 14.5q-23 0 -47 -16q-3 -2 -4.5 0.5t1.5 4.5q25 17 50 17q24 0 40 -16t16 -43
q0 -62 -80 -62zM50 46q-12 0 -20 -6t-8 -16q0 -8 6 -14.5t19 -6.5q30 0 71 36q-21 3 -38 5t-30 2zM535 629q20 -2 38 -3t32 -1q11 0 18.5 5.5t7.5 15.5q0 8 -5.5 14.5t-18.5 6.5q-31 0 -72 -38z" />
    <glyph glyph-name="bracketleft" unicode="[" horiz-adv-x="327" 
d="M111 -150q-3 0 -3 3v897q0 3 3 3h193q3 0 3 -3t-3 -3h-190v-891h190q3 0 3 -3t-3 -3h-193z" />
    <glyph glyph-name="backslash" unicode="\" horiz-adv-x="350" 
d="M349 1q2 -3 -1 -4.5t-5 1.5l-342 751q-1 2 1.5 3.5t4.5 -1.5z" />
    <glyph glyph-name="bracketright" unicode="]" horiz-adv-x="327" 
d="M23 -150q-3 0 -3 3t3 3h190v891h-190q-3 0 -3 3t3 3h193q3 0 3 -3v-897q0 -3 -3 -3h-193z" />
    <glyph glyph-name="asciicircum" unicode="^" horiz-adv-x="334" 
d="M167 744l-121 -140q-2 -2 -4.5 0t-0.5 4l124 143q2 2 4 0l124 -143q2 -2 -0.5 -4t-4.5 0z" />
    <glyph glyph-name="underscore" unicode="_" horiz-adv-x="611" 
d="M23 -83q-3 0 -3 3t3 3h565q3 0 3 -3t-3 -3h-565z" />
    <glyph glyph-name="grave" unicode="`" horiz-adv-x="216" 
d="M32 577q-2 2 0 4.5t4 0.5l148 -114q3 -2 1 -4.5t-4 -0.5z" />
    <glyph glyph-name="a" unicode="a" horiz-adv-x="463" 
d="M413 -2q-39 59 -57 149q-11 -29 -26.5 -56t-36.5 -48t-47.5 -33.5t-59.5 -12.5q-38 0 -65.5 13.5t-45.5 36.5t-26.5 52t-8.5 61q0 37 11.5 67.5t32.5 52t50 33t64 11.5q19 0 39.5 -3.5t37 -12t27 -23.5t10.5 -37q0 -23 -13.5 -35.5t-33.5 -12.5q-19 0 -31.5 11.5
t-14.5 28.5q0 3 3 3t3 -3q2 -15 12.5 -24.5t27.5 -9.5q14 0 27.5 9.5t13.5 32.5q0 33 -28 51.5t-80 18.5q-33 0 -61 -11t-48.5 -32t-31.5 -50t-11 -65q0 -72 38 -114.5t102 -42.5q34 0 61.5 14t48 36.5t35 50t22.5 53.5q-8 40 -10 75.5t-2 59.5q0 22 8 27t13 5q8 0 15 -7.5
t7 -24.5q0 -18 -5 -55.5t-19 -80.5q7 -38 21.5 -80t36.5 -74q2 -3 -0.5 -5t-4.5 1zM362 318q-10 0 -12.5 -9t-2.5 -17q0 -20 2 -52.5t8 -70.5q13 39 17 72.5t4 50.5q0 26 -16 26z" />
    <glyph glyph-name="b" unicode="b" horiz-adv-x="460" 
d="M258 -7q-56 0 -87 23q-27 19 -27 53q0 23 13.5 35.5t33.5 12.5t32 -11t14 -29q0 -3 -3 -3t-3 3q-1 15 -12 24.5t-28 9.5q-14 0 -27.5 -9.5t-13.5 -32.5q0 -33 28 -51.5t80 -18.5q34 0 63 12t49.5 33.5t32 51t11.5 65.5q0 73 -35.5 115t-98.5 42q-32 0 -58.5 -16
t-48 -39.5t-38 -50.5t-27.5 -49v-134q0 -17 -7 -24.5t-15 -7.5q-5 0 -13 5t-8 27q0 23 9 59t28 76v221q-10 -23 -21.5 -45.5t-22.5 -43.5q-2 -3 -4.5 -1.5t-0.5 4.5q26 49 49 101v299q0 54 37 54q18 0 28.5 -13.5t10.5 -37.5q0 -78 -21 -155t-49 -148v-222q12 24 29 49.5
t39 47.5t48 36t56 14q67 0 103.5 -45t36.5 -118q0 -37 -12 -68t-33.5 -53t-51.5 -34.5t-65 -12.5zM102 150q-16 -36 -23.5 -68t-7.5 -53q0 -8 2.5 -17t12.5 -9q16 0 16 26v121zM139 747q-31 0 -31 -48v-284q30 76 47 150t17 137q0 21 -8.5 33t-24.5 12z" />
    <glyph glyph-name="c" unicode="c" horiz-adv-x="361" 
d="M198 -3q-39 0 -69 12.5t-49.5 35t-29.5 52t-10 64.5q0 36 11.5 66t32.5 51.5t50 33.5t64 12q25 0 47.5 -5t39.5 -14.5t27 -23.5t10 -33q0 -24 -13 -38t-35 -14q-21 0 -34.5 11.5t-16.5 31.5q-1 3 2 3.5t4 -2.5q6 -38 45 -38q20 0 31 12.5t11 33.5q0 32 -32 51t-86 19
q-33 0 -61 -11.5t-48.5 -32.5t-31.5 -50t-11 -63q0 -74 40.5 -116t111.5 -42q83 0 123 54q2 3 4.5 1.5t0.5 -4.5q-43 -57 -128 -57z" />
    <glyph glyph-name="d" unicode="d" horiz-adv-x="446" 
d="M198 -3q-33 0 -62 11.5t-50.5 32.5t-33.5 51.5t-12 68.5q0 36 11.5 66t32.5 51.5t50 33.5t64 12q18 0 39.5 -3.5t40 -12t30.5 -23.5t12 -37q0 -23 -13.5 -35t-34.5 -12q-19 0 -31.5 11t-13.5 28q0 3 3 3t3 -3q1 -14 12 -23.5t27 -9.5q14 0 28 9t14 32q0 21 -12 35
t-30 21.5t-38 10.5t-36 3q-34 0 -62 -11.5t-48 -32.5t-31 -50t-11 -63q0 -35 11 -64t31 -50t48 -32.5t62 -11.5q72 0 112 41t40 114v490q-11 -8 -24 -15.5t-26 -14.5q-3 -2 -4.5 1t1.5 5q31 15 53 31v17q0 12 0.5 26.5t4 26.5t10 20t18.5 8q23 0 23 -26q0 -19 -13 -38.5
t-37 -36.5v-494q0 -75 -41.5 -118t-116.5 -43zM383 747q-11 0 -19 -14t-8 -57v-16q44 35 44 67q0 7 -3.5 13.5t-13.5 6.5z" />
    <glyph glyph-name="e" unicode="e" horiz-adv-x="364" 
d="M195 -3q-72 0 -113.5 44t-41.5 119q0 36 11.5 66.5t32.5 52t50 33.5t64 12q58 0 91 -22t33 -69q0 -34 -23 -48q-20 -14 -59 -17l-194 -16q3 -69 42.5 -109t106.5 -40q85 0 127 54q2 3 4 1t0 -4q-42 -57 -131 -57zM198 318q-33 0 -61 -11.5t-48.5 -32.5t-31.5 -50.5
t-11 -65.5l193 16q77 6 77 59q0 24 -9 40t-25 26t-37.5 14.5t-46.5 4.5z" />
    <glyph glyph-name="f" unicode="f" horiz-adv-x="326" 
d="M112 318v-318q0 -3 -3 -3t-3 3v318h-89q-3 0 -3 3t3 3h89v265q0 78 37 121t103 43q21 0 43 -4t40 -13t29.5 -23.5t11.5 -35.5q0 -24 -13 -38t-35 -14q-21 0 -35 11.5t-16 31.5q0 4 3 3.5t3 -2.5q5 -38 45 -38q19 0 30.5 12.5t11.5 33.5q0 19 -10.5 32.5t-27.5 22t-38 12
t-42 3.5q-63 0 -98.5 -41.5t-35.5 -116.5v-265h198q3 0 3 -3t-3 -3h-198z" />
    <glyph glyph-name="g" unicode="g" horiz-adv-x="461" 
d="M187 -253q-109 0 -146 56q-14 22 -14 51t14 60q2 3 5 1.5t1 -4.5q-14 -29 -14.5 -56.5t13.5 -48.5q36 -53 141 -53q83 0 131 45t48 123q0 42 -4.5 100t-9.5 115q-9 -23 -23 -47.5t-34 -45t-47 -33.5t-62 -13q-38 0 -65.5 14t-45.5 36.5t-26.5 52t-8.5 61.5q0 38 11.5 69
t32.5 52.5t50 33.5t64 12q19 0 39.5 -3.5t37 -12.5t27 -23.5t10.5 -36.5q0 -24 -13.5 -36t-33.5 -12q-19 0 -31.5 11.5t-14.5 28.5q0 3 3 3t3 -3q2 -15 12.5 -24.5t27.5 -9.5q14 0 27.5 9.5t13.5 32.5q0 33 -28 51.5t-80 18.5q-33 0 -61 -11.5t-48.5 -32.5t-31.5 -51
t-11 -66q0 -72 38 -115t102 -43q34 0 60 13t46 34t34 47t25 52q-4 45 -7 82.5t-3 60.5q0 22 8 27t13 5q8 0 15 -7.5t7 -24.5q0 -20 -5.5 -59.5t-21.5 -84.5q5 -60 10 -116t5 -111q0 -44 -14.5 -76.5t-40 -54t-59.5 -32.5t-71 -11zM362 318q-10 0 -12.5 -9t-2.5 -17
q0 -20 2.5 -54.5t5.5 -74.5q14 41 18.5 76.5t4.5 52.5q0 26 -16 26z" />
    <glyph glyph-name="h" unicode="h" horiz-adv-x="485" 
d="M102 385q-20 -46 -43 -89q-2 -3 -5 -1.5t-1 4.5q14 25 26 50t23 51v299q0 54 37 54q18 0 28.5 -13.5t10.5 -37.5q0 -39 -6 -79t-16 -78.5t-22.5 -75.5t-25.5 -70v-367q8 39 22 89.5t37 95.5t56 76t79 31q31 0 51 -9.5t31 -26t15.5 -37.5t4.5 -45v-175q0 -16 5 -22t16 -6
q8 0 16.5 3t15.5 11q2 2 4 0t0 -4q-7 -8 -17.5 -12t-18.5 -4q-18 0 -22.5 11t-4.5 23v175q0 53 -21 82.5t-75 29.5q-43 0 -74.5 -29t-55 -75t-39 -103t-25.5 -112q-1 -3 -3.5 -2t-2.5 3v385zM139 747q-31 0 -31 -48v-284q31 76 47.5 150t16.5 137q0 21 -8.5 33t-24.5 12z
" />
    <glyph glyph-name="i" unicode="i" horiz-adv-x="187" 
d="M123 -3q-19 0 -23.5 10t-4.5 24v196q-14 -11 -34 -20q-3 -2 -4.5 0.5t2.5 4.5q10 5 19 10.5t17 12.5q0 41 5 65t26 24q11 0 15.5 -7t4.5 -15q-1 -20 -15.5 -39t-29.5 -31v-201q0 -16 5 -22t17 -6q7 0 16 3t15 11q2 2 4 0t0 -4q-7 -8 -17 -12t-18 -4zM120 431
q-2 12 -7.5 19t-11.5 13t-10.5 13t-4.5 18q0 6 4.5 12.5t15.5 6.5q16 0 26 -19q10 16 24 16q8 0 14 -5.5t6 -13.5q0 -11 -7 -17.5t-15 -12.5t-16 -13t-14 -18q-1 -2 -2.5 -1.5t-1.5 2.5zM106 508q-11 0 -13 -6t-2 -8q0 -11 4 -16.5t10 -11.5q5 -5 10.5 -11.5t7.5 -16.5
q6 9 13.5 15.5t14.5 11.5q8 6 14 11.5t6 14.5q0 5 -3.5 9.5t-11.5 4.5q-12 0 -21 -16q-1 -2 -3 -2t-3 2q-10 19 -23 19zM126 318q-11 -1 -16 -10.5t-7 -22.5t-2 -26v-20q20 17 29.5 33.5t9.5 29.5q0 16 -14 16z" />
    <glyph glyph-name="j" unicode="j" horiz-adv-x="219" 
d="M124 450q-6 11 -13.5 18t-15.5 13q-9 6 -15.5 12.5t-6.5 17.5q0 19 19 19q14 0 25 -17q8 20 25 20q11 0 16 -6.5t5 -12.5q0 -11 -5 -18t-11 -13t-12 -14t-6 -18q0 -2 -2 -2.5t-3 1.5zM92 525q-8 0 -11 -4.5t-3 -9.5q0 -9 5.5 -14.5t13.5 -11.5q8 -5 15 -11.5t13 -15.5
q3 10 8 16.5t10 11.5q6 6 10.5 12t4.5 16q0 2 -2.5 8t-13.5 6q-14 0 -22 -19q-2 -6 -6 0q-9 16 -22 16zM14 -253q-48 0 -76 26.5t-28 68.5q0 19 6 38t18 33t30 23t42 9q31 0 45.5 -14.5t14.5 -35.5q0 -13 -8.5 -26.5t-25.5 -20.5q-3 -1 -4 1.5t3 4.5q13 5 21 16.5t8 25.5
q0 19 -13.5 31t-40.5 12q-40 0 -65 -27t-25 -70q0 -41 26.5 -65t71.5 -24q42 0 66 15.5t36.5 39.5t16 52.5t3.5 54.5q0 68 -5 128t-10 123q-28 -45 -68 -65q-3 -2 -4 0.5t1 4.5q21 11 39 29.5t31 41.5q-2 36 -4 66t-2 49q0 18 7.5 25t15.5 7t15 -7.5t7 -24.5
q0 -33 -9.5 -63.5t-22.5 -53.5q3 -68 9 -132t6 -128q0 -35 -5.5 -65.5t-19.5 -53.5t-39 -36t-64 -13zM137 318q-17 0 -17 -26q0 -17 2 -44.5t4 -60.5q13 26 20 53t7 52q0 26 -16 26z" />
    <glyph glyph-name="k" unicode="k" horiz-adv-x="445" 
d="M102 385q-10 -23 -22 -47.5t-22 -41.5q-2 -3 -4.5 -1.5t-0.5 4.5q14 25 26 50t23 51v299q0 54 37 54q18 0 28.5 -13.5t10.5 -37.5q0 -77 -21 -155t-49 -148v-367q5 26 13 57.5t19.5 64t26.5 63t35 54.5t44.5 38.5t55.5 14.5q28 0 45.5 -7t27 -17.5t12.5 -22.5t3 -22
q0 -20 -9 -37.5t-23 -31.5t-31 -24.5t-34 -16.5q9 -12 16 -26.5t12 -28.5q7 -17 13.5 -32.5t14 -27.5t17.5 -19.5t23 -7.5q21 0 35 11q2 2 4 0t0 -4q-13 -13 -39 -13q-15 0 -26 8t-19 21t-14.5 29t-13.5 33t-13.5 30t-15.5 25q-28 -11 -54 -11q-17 0 -30 6.5t-13 22.5
q0 11 10.5 19t25.5 8q18 0 35 -11t28 -27q19 6 36 17t30 24.5t21 29.5t8 34q0 11 -3.5 22t-12.5 20t-25 15t-41 6q-44 0 -76.5 -31t-55.5 -78t-38 -103t-24 -107q-1 -2 -3.5 -2t-2.5 3v385zM226 182q-11 0 -20.5 -6t-9.5 -15q0 -14 13 -18.5t24 -4.5t24 2.5t27 7.5
q-12 14 -26.5 24t-31.5 10zM139 747q-31 0 -31 -48v-284q31 76 47.5 150.5t16.5 136.5q0 21 -8.5 33t-24.5 12z" />
    <glyph glyph-name="l" unicode="l" horiz-adv-x="210" 
d="M102 385q-10 -23 -21 -45l-22 -44q-2 -3 -5 -1.5t-1 4.5q14 25 26 50t23 51v299q0 54 37 54q18 0 28.5 -13.5t10.5 -37.5q0 -78 -21 -157t-49 -146v-399q0 -3 -3 -3t-3 3v385zM139 747q-31 0 -31 -48v-284q31 76 47.5 150t16.5 137q0 21 -8.5 33t-24.5 12z" />
    <glyph glyph-name="m" unicode="m" horiz-adv-x="718" 
d="M91 0q4 50 4 91.5v80.5v47q-8 -6 -16.5 -12.5t-16.5 -11.5q-2 -2 -4 0.5t1 4.5q19 13 36 28v14q0 11 0.5 25t3.5 27t10 21.5t19 8.5q20 0 20 -22q0 -14 -12 -34.5t-35 -42.5v-53q0 -29 0.5 -59.5t-1.5 -62.5q5 22 13 51t20 59.5t27 60t33.5 52.5t41 37t49.5 14
q29 0 48 -9t31 -25.5t18 -40.5t9 -55q12 25 26.5 48.5t32 41.5t38.5 29t46 11q54 0 78 -29t24 -105v-159q0 -16 5 -22t17 -6q8 0 17 3t15 11q2 2 4 0q3 -2 1 -4q-8 -8 -18 -12t-19 -4q-18 0 -23 11t-5 23v159q0 71 -22 99.5t-74 28.5q-27 0 -49.5 -14t-40 -34.5t-30.5 -44
t-22 -43.5q2 -41 2 -78.5v-74.5q0 -16 -6.5 -24t-17.5 -8q-8 0 -15 7t-7 25q0 21 9 63t29 90q-5 73 -27 104.5t-74 31.5q-39 0 -71 -33t-55.5 -81.5t-38.5 -104t-22 -99.5q-1 -3 -3.5 -3t-2.5 3zM386 168q-17 -44 -25 -82t-8 -57q0 -26 16 -26q18 0 18 26q0 45 0.5 77.5
t-1.5 61.5zM128 318q-11 0 -16.5 -8.5t-7.5 -20.5t-2.5 -24.5t-0.5 -19.5v-12q41 41 41 69q0 16 -14 16z" />
    <glyph glyph-name="n" unicode="n" horiz-adv-x="460" 
d="M401 -3q-18 0 -22.5 10.5t-4.5 23.5v153q0 134 -113 134q-28 0 -51 -14.5t-42 -38.5t-33.5 -53.5t-24.5 -59.5q5 -36 8 -68t3 -55q0 -17 -7 -24.5t-15 -7.5q-5 0 -13 5t-8 27q0 18 6 51.5t20 72.5q-8 45 -17.5 89t-21.5 78q-1 3 2 4t4 -2q11 -32 20.5 -73.5t16.5 -83.5
q9 25 23 53t33 51.5t43 39t54 15.5q35 0 58 -11.5t36.5 -31t19 -45t5.5 -52.5v-153q0 -16 5 -22t16 -6q7 0 15.5 3t14.5 11q2 2 4.5 0t0.5 -4q-7 -8 -17 -12t-18 -4zM105 139q-11 -35 -16 -64.5t-5 -45.5q0 -8 2.5 -17t12.5 -9q16 0 16 26q0 20 -2.5 49t-7.5 61z" />
    <glyph glyph-name="o" unicode="o" 
d="M200 -3q-34 0 -63.5 11.5t-50.5 32.5t-33 49.5t-12 61.5q2 103 84 122q8 24 32 38t59 14q43 0 77 -25.5t49 -62.5q45 50 36 137q-1 4 2.5 3.5t3.5 -3.5q9 -90 -39 -143q15 -36 15 -80q0 -36 -13 -64.5t-35 -49t-51 -31t-61 -10.5zM124 267q-36 -8 -56.5 -38.5
t-20.5 -76.5q0 -32 11.5 -59.5t32 -47.5t48.5 -31t61 -11t61.5 11t49 31t32 47.5t11.5 59.5q0 41 -14 75q-17 -16 -34.5 -25.5t-34 -14.5t-30 -6.5t-21.5 -1.5q-29 0 -48 7.5t-30 19t-15.5 24t-4.5 23.5q0 4 0.5 7t1.5 7zM130 269q-2 -10 -2 -17q0 -11 5 -23t16 -21.5
t28.5 -16t42.5 -6.5q7 0 20.5 1.5t29.5 6t34 14t34 26.5q-17 40 -49 63.5t-73 23.5q-32 0 -54 -12t-30 -33q5 1 9.5 1h9.5q35 1 48.5 -16.5t2.5 -47.5q-1 -2 -4.5 -1.5t-1.5 4.5q12 30 -2 42.5t-43 12.5h-11t-10 -1z" />
    <glyph glyph-name="p" unicode="p" horiz-adv-x="487" 
d="M101 220q-7 -6 -15 -12.5t-17 -12.5q-3 -2 -4.5 0.5t0.5 4.5q11 7 19.5 14t16.5 15q0 9 1 25t4.5 31.5t10 27t18.5 11.5q11 0 14.5 -7t3.5 -15q0 -16 -12 -35t-34 -41v-153q6 39 24 83.5t44.5 81.5t60.5 61.5t72 24.5q65 0 101 -42.5t37 -120.5q0 -38 -12.5 -68.5
t-34.5 -53t-52 -34.5t-65 -12q-57 0 -85.5 21.5t-28.5 54.5q0 23 14 35.5t34 12.5q19 0 32 -11t14 -28q0 -5 -3 -4.5t-3 3.5q-1 14 -12 24t-28 10q-14 0 -28 -9.5t-14 -32.5q0 -33 28.5 -51.5t79.5 -18.5q35 0 64 12t50 33.5t32.5 51t11.5 65.5q0 74 -35 115.5t-97 41.5
q-40 0 -75.5 -28.5t-63 -72t-44.5 -95.5t-18 -99v-273q0 -3 -3 -3t-3 3v470zM135 318q-9 0 -14 -10t-8 -24t-4.5 -28t-1.5 -21q19 19 29.5 37t10.5 30q0 16 -12 16z" />
    <glyph glyph-name="q" unicode="q" horiz-adv-x="449" 
d="M280 -125q37 9 69 26q-5 51 -7.5 104t-2.5 103q-23 -47 -61.5 -78.5t-91.5 -32.5q-38 0 -65.5 13.5t-45.5 36.5t-26.5 52.5t-8.5 61.5q0 37 11.5 68t32.5 53t50 34t64 12q21 0 41.5 -3.5t36.5 -12.5t26 -23.5t10 -36.5q0 -23 -13.5 -35.5t-33.5 -12.5q-19 0 -31.5 11.5
t-14.5 28.5q0 3 3 3t3 -3q1 -15 12 -24.5t28 -9.5q14 0 27.5 9.5t13.5 32.5q0 33 -28 51.5t-80 18.5q-33 0 -61 -11.5t-48.5 -33t-31.5 -51t-11 -65.5q0 -72 38 -115t102 -43q30 0 54.5 11t43 28t32.5 37.5t23 40.5q0 52 0.5 92.5t1.5 79.5q1 22 8.5 27t12.5 5q8 0 15 -7.5
t7 -24.5q0 -11 -1.5 -29.5t-6 -41.5t-12 -49t-19.5 -52q0 -51 2.5 -106.5t7.5 -109.5q30 16 53 36t36 39q2 3 4.5 1t0.5 -4q-16 -25 -40.5 -44.5t-53.5 -34.5q5 -42 11.5 -79.5t17.5 -66.5q2 -3 -1 -4.5t-5 2.5q-11 29 -17.5 66t-11.5 79q-17 -8 -34 -14t-34 -11
q-3 -1 -3.5 2t2.5 4zM362 318q-10 0 -12.5 -9t-2.5 -17q-1 -45 -1.5 -82.5t-0.5 -74.5q10 24 16 47.5t10 44.5t5.5 38t1.5 27q0 26 -16 26z" />
    <glyph glyph-name="r" unicode="r" horiz-adv-x="330" 
d="M99 -3q-5 0 -13.5 5t-8.5 27q0 18 7 50t20 67q-7 46 -17 92.5t-22 81.5q-1 3 1 4t4 -2q12 -33 21.5 -76.5t16.5 -87.5q9 24 23.5 53t34 54t43 42t52.5 17q26 0 39.5 -19t13.5 -42q0 -21 -11 -37.5t-31 -19.5q-17 -4 -33 5t-22 26q-1 2 1.5 3.5t4.5 -1.5q7 -17 21 -23.5
t27 -4.5q14 3 25.5 15t11.5 37q0 21 -12 38t-35 17q-30 0 -54 -18.5t-43 -45t-32.5 -56t-21.5 -52.5q5 -35 8 -65t3 -52q0 -17 -7 -24.5t-15 -7.5zM106 133q-11 -32 -17 -59.5t-6 -44.5q0 -8 2.5 -17t13.5 -9q16 0 16 26q0 20 -2 47t-7 57z" />
    <glyph glyph-name="s" unicode="s" horiz-adv-x="402" 
d="M64 245q0 28 15 43.5t36.5 23.5t46 10t43.5 2q70 0 104 -19.5t34 -49.5q0 -23 -12.5 -36.5t-35.5 -13.5q-21 0 -34.5 11.5t-16.5 31.5q0 3 3 3t3 -2q5 -38 45 -38q20 0 31 11.5t11 32.5q0 17 -10.5 29t-28.5 19.5t-42 11t-51 3.5q-69 0 -102 -17.5t-33 -55.5
q0 -31 21.5 -46.5t53.5 -22.5t69 -10t69 -10.5t53.5 -23t21.5 -47.5q0 -41 -43 -64.5t-115 -23.5q-20 0 -43 3.5t-44.5 10.5t-39.5 18t-28 25q-2 3 0.5 4.5t4.5 -1.5q10 -13 27.5 -23t38 -17t42.5 -10.5t42 -3.5q69 0 110.5 22t41.5 60q0 30 -21.5 44.5t-53.5 21t-69 10
t-69 11t-53.5 24t-21.5 49.5z" />
    <glyph glyph-name="t" unicode="t" horiz-adv-x="315" 
d="M46 -3q-3 0 -3 3t3 3q27 0 47 14.5t33.5 37t20 48.5t7.5 50v155h-113q-3 0 -3 3t3 3h113v165q0 3 3 3t3 -3v-165h114q3 0 3 -3t-3 -3h-114v-155q0 -24 7 -50t20.5 -48.5t34 -37t47.5 -14.5q3 0 3 -3t-3 -3q-25 0 -44 11.5t-33 29.5t-22.5 40.5t-12.5 44.5
q-4 -24 -13 -46.5t-23 -40t-32.5 -28.5t-42.5 -11z" />
    <glyph glyph-name="u" unicode="u" horiz-adv-x="472" 
d="M401 -1q-14 26 -24 60.5t-17 73.5q-11 -29 -26 -53.5t-35 -43t-45 -29t-56 -10.5q-110 0 -110 129v101q-14 -11 -34 -20q-2 -2 -3.5 0.5t1.5 4.5q11 5 19.5 10.5t16.5 12.5q0 40 3.5 64.5t27.5 24.5q11 0 16 -7t5 -15q0 -20 -15 -39.5t-31 -30.5v-106q0 -59 25 -91
t79 -32q33 0 58.5 12.5t45 33t33.5 45.5t23 51q-12 70 -12 147q0 18 7.5 25t15.5 7t15 -7.5t7 -24.5q0 -22 -5.5 -62.5t-21.5 -85.5q7 -42 18 -79t25 -64q2 -2 -1 -3.5t-5 1.5zM369 318q-17 0 -17 -26q0 -35 2.5 -69t7.5 -66q14 42 18.5 78.5t4.5 56.5q0 26 -16 26zM119 318
q-18 0 -21.5 -20t-3.5 -59q20 17 30 33.5t10 29.5q0 16 -15 16z" />
    <glyph glyph-name="v" unicode="v" horiz-adv-x="366" 
d="M191 -2q-30 43 -56 86q-23 37 -46.5 78.5t-38.5 74.5q-19 -23 -55 -48q-3 -2 -4.5 0.5t1.5 4.5q36 26 55 49q-8 17 -13 30.5t-5 24.5q0 12 6.5 19t17.5 7q23 0 23 -27q0 -9 -4 -23.5t-18 -31.5q28 -60 65 -120t74 -116l137 234q8 14 11 26t3 25q0 17 -4 30q-1 4 2 4t4 -3
q2 -9 3 -16t1 -15q0 -14 -3 -26.5t-12 -27.5l-139 -239q-3 -5 -5 0zM53 318q-18 0 -18 -20q0 -10 4.5 -22.5t11.5 -27.5q11 16 15 28.5t4 20.5q0 5 -3 13t-14 8z" />
    <glyph glyph-name="w" unicode="w" horiz-adv-x="601" 
d="M301 319q-19 0 -19 -27q0 -26 3.5 -69t15.5 -88q12 44 15 88t3 70q0 11 -5 18.5t-13 7.5zM552 319q-9 0 -14 -7t-8 -17.5t-4 -23t-1 -24.5v-13q20 20 30.5 38t10.5 30q0 7 -3 12t-11 5zM76 218q0 32 -1 56.5t-9 45.5q-1 3 2 4t4 -2q8 -22 9 -47t1 -57v-92q0 -17 3 -38.5
t13 -40.5t27.5 -31.5t47.5 -12.5t51.5 13t36 31.5t23.5 39.5t14 37q-14 47 -18 93.5t-4 74.5q0 18 8 25.5t17 7.5q11 0 17.5 -9t6.5 -23q0 -29 -3.5 -75.5t-17.5 -93.5q7 -25 18 -47t26 -38.5t35 -26t45 -9.5q30 0 47.5 12.5t27.5 31.5t13 40.5t3 38.5v94q-16 -14 -32 -25
q-3 -2 -4 0.5t1 4.5q9 6 18 13t17 15v14q0 10 0.5 24.5t4 27.5t10 22t18.5 9q11 0 15.5 -7t4.5 -16q0 -14 -12 -34.5t-35 -42.5v-99q0 -61 -24 -95t-73 -34q-27 0 -48 10.5t-36 27t-25.5 37.5t-17.5 42q-6 -18 -16 -38.5t-25 -38t-36.5 -29t-50.5 -11.5q-28 0 -46.5 11.5
t-30 29.5t-16 41t-4.5 47v92z" />
    <glyph glyph-name="x" unicode="x" horiz-adv-x="381" 
d="M349 323q2 2 4.5 0t0.5 -4l-168 -167q15 -19 30 -38.5t29.5 -37t28.5 -32.5t26 -24q20 -17 39 -17q13 0 22.5 7.5t13.5 18.5q1 3 4 2.5t2 -3.5q-11 -31 -42 -31q-22 0 -43 18q-12 10 -26 24.5t-29 32t-30 37t-30 38.5l-149 -149q-2 -2 -4 0t0 4l149 149l-16 23
q-22 30 -40.5 53t-37.5 45q-13 -14 -36 -33q-2 -2 -4 0t0 4q12 11 21 18.5t16 15.5q-11 14 -17 26.5t-6 26.5q0 11 6.5 18.5t17.5 7.5q13 0 19.5 -9t6.5 -22q0 -14 -4.5 -24.5t-15.5 -24.5q22 -24 41 -48.5t38 -49.5q4 -5 8 -10.5t8 -11.5zM81 350q-8 0 -13 -6t-5 -14
q0 -13 5.5 -24.5t15.5 -24.5q10 12 13.5 22t3.5 22q0 10 -5 17.5t-15 7.5z" />
    <glyph glyph-name="y" unicode="y" horiz-adv-x="467" 
d="M205 -253q-73 0 -116 27t-43 79q0 14 3 29t11 31q2 3 4.5 1.5t1.5 -3.5q-14 -32 -14 -58q0 -27 12.5 -46t33 -31t48 -17.5t59.5 -5.5q82 0 128 44.5t46 123.5q0 42 -6 99l-12 114q-23 -60 -62 -98.5t-99 -38.5t-85.5 34.5t-25.5 94.5v101l-16 -10t-18 -10q-3 -2 -4.5 0.5
t1.5 4.5q11 5 20 10.5t17 12.5q0 40 3.5 64.5t27.5 24.5q11 0 15.5 -6.5t4.5 -15.5q0 -20 -15 -39t-30 -31v-106q0 -21 4 -43t15.5 -39.5t32 -29t53.5 -11.5q31 0 56 11.5t44.5 31.5t34 46t24.5 55q-5 45 -9 83.5t-4 61.5q0 18 7.5 25t15.5 7t15 -7.5t7 -24.5
q0 -21 -5.5 -61t-20.5 -84q2 -14 5.5 -42t6.5 -61t5.5 -66t2.5 -57q0 -44 -14 -76.5t-38 -54.5t-57 -32.5t-71 -10.5zM369 318q-17 0 -17 -26q0 -21 3.5 -55.5t8.5 -75.5q12 40 16.5 75.5t4.5 55.5q0 26 -16 26zM120 318q-18 0 -21.5 -20.5t-3.5 -58.5q19 17 29 33.5
t10 29.5q0 16 -14 16z" />
    <glyph glyph-name="z" unicode="z" horiz-adv-x="414" 
d="M351 -25q-31 1 -61 7t-59.5 15t-58.5 18t-58 16q-35 -34 -63 -34q-14 0 -20.5 7.5t-6.5 16.5q0 13 10 19.5t21 6.5t25.5 -2.5t31.5 -6.5q26 28 47.5 59t42 63t41.5 63t46 59q-52 11 -100.5 23.5t-96.5 12.5q-17 0 -30.5 -9t-13.5 -26q0 -12 10 -23t31 -11q4 0 3.5 -3
t-3.5 -3q-24 0 -35.5 13t-11.5 27q0 20 15.5 30.5t34.5 10.5q53 0 102.5 -14t99.5 -23q17 17 33 27t31 10t22.5 -7.5t7.5 -17.5q0 -9 -7.5 -17t-23.5 -8q-14 0 -28.5 2t-31.5 5q-26 -29 -48 -60.5t-42.5 -63.5t-42 -63t-46.5 -58q30 -8 59.5 -17.5t58.5 -17.5t57.5 -14
t57.5 -6q18 0 33.5 8.5t15.5 28.5q0 13 -5.5 21.5t-14.5 12t-19.5 2.5t-20.5 -7q-3 -2 -4.5 1t1.5 5q27 14 48 3.5t21 -38.5q0 -23 -18.5 -33t-36.5 -10zM55 41q-10 -1 -17.5 -6t-7.5 -14q0 -7 5 -12.5t16 -5.5q14 0 27.5 8t28.5 22q-34 8 -52 8zM302 286q30 -6 55 -6
q13 0 19 6t6 13t-6 13t-18 6q-24 0 -56 -32z" />
    <glyph glyph-name="braceleft" unicode="{" horiz-adv-x="351" 
d="M153 302q27 -20 47 -51t20 -69q0 -32 -9.5 -59t-21.5 -53t-21.5 -52.5t-9.5 -56.5q0 -49 25.5 -76t71.5 -27q43 0 81 22q3 2 4.5 -0.5t-1.5 -4.5q-18 -11 -40 -17t-44 -6q-49 0 -76 29t-27 80q0 30 9.5 56.5t21.5 53t21.5 53.5t9.5 58q0 34 -18 65t-47 51
q-20 -14 -44.5 -20t-50.5 -6q-17 0 -25.5 8.5t-8.5 19.5q0 16 13 23.5t26 7.5q48 0 89 -25q29 20 47.5 51.5t18.5 65.5q0 31 -9.5 58t-21.5 53.5t-21.5 53t-9.5 56.5q0 51 27 80t76 29q22 0 44 -6t40 -17q3 -2 1.5 -4.5t-4.5 -0.5q-38 22 -81 22q-46 0 -71.5 -27t-25.5 -76
q0 -30 9.5 -56.5t21.5 -52.5t21.5 -53t9.5 -59q0 -38 -20 -69.5t-47 -51.5zM59 325q-12 0 -22.5 -6t-10.5 -19q0 -8 7 -15t21 -7q29 0 51.5 6.5t38.5 17.5q-16 9 -37.5 16t-47.5 7z" />
    <glyph glyph-name="bar" unicode="|" horiz-adv-x="206" 
d="M100 750q0 3 3 3t3 -3v-837q0 -3 -3 -3t-3 3v837z" />
    <glyph glyph-name="braceright" unicode="}" horiz-adv-x="351" 
d="M198 302q-27 20 -47 51.5t-20 69.5q0 32 9.5 59t21.5 53t21.5 52.5t9.5 56.5q0 49 -25.5 76t-71.5 27q-43 0 -81 -22q-3 -2 -4.5 0.5t1.5 4.5q18 11 40 17t44 6q49 0 76 -29t27 -80q0 -30 -9.5 -56.5t-21.5 -53t-21.5 -53.5t-9.5 -58q0 -34 18.5 -65.5t47.5 -51.5
q41 25 89 25q13 0 26 -7.5t13 -23.5q0 -11 -8.5 -19.5t-25.5 -8.5q-26 0 -50.5 6t-44.5 20q-29 -20 -47 -51t-18 -65q0 -31 9.5 -58t21.5 -53.5t21.5 -53t9.5 -56.5q0 -51 -27 -80t-76 -29q-22 0 -44 6t-40 17q-3 2 -1.5 4.5t4.5 0.5q38 -22 81 -22q46 0 71.5 27t25.5 76
q0 30 -9.5 56.5t-21.5 52.5t-21.5 53t-9.5 59q0 38 20 69t47 51zM292 325q-26 0 -47.5 -7t-37.5 -16q16 -11 38.5 -17.5t51.5 -6.5q14 0 21 7t7 15q0 13 -10.5 19t-22.5 6z" />
    <glyph glyph-name="asciitilde" unicode="~" horiz-adv-x="442" 
d="M213 273q-23 18 -44 32t-43 14q-42 0 -79 -68q-2 -3 -5 -1.5t-1 4.5q20 35 40 53t44 18t46.5 -14.5t44.5 -32.5t44.5 -32.5t45.5 -14.5q24 0 45.5 18.5t44.5 60.5q2 3 4.5 1t0.5 -4q-45 -82 -95 -82q-13 0 -25.5 5t-24.5 12t-23 15.5t-20 15.5z" />
    <glyph glyph-name="uni00A0" unicode="&#xa0;" horiz-adv-x="200" 
 />
    <glyph glyph-name="exclamdown" unicode="&#xa1;" horiz-adv-x="222" 
d="M108 548q0 3 3 3t3 -3v-547q0 -3 -3 -3t-3 3v547zM134 689q0 -7 -5 -11.5t-12 -4.5q-6 0 -11 4.5t-5 11.5t5 12t11 5q7 0 12 -5t5 -12z" />
    <glyph glyph-name="cent" unicode="&#xa2;" horiz-adv-x="342" 
d="M180 23v-102q0 -3 -3 -3t-3 3v102q-61 3 -92.5 41.5t-31.5 95.5q0 60 34.5 97t89.5 40v111q0 3 3 3t3 -3v-110h3q35 0 60 -10.5t43 -35.5q2 -3 -0.5 -5t-4.5 1q-32 44 -98 44h-3v-263h3q70 0 103 45q2 3 4.5 1t0.5 -4q-35 -48 -108 -48h-3zM56 160q0 -59 31 -93.5
t87 -37.5v262q-53 -3 -85.5 -38.5t-32.5 -92.5z" />
    <glyph glyph-name="sterling" unicode="&#xa3;" horiz-adv-x="543" 
d="M78 -51q-15 0 -23 8t-8 19q0 10 7 18.5t24 8.5h30v275h-73q-3 0 -3 3t3 3h73v225q0 43 14 74t39.5 51t60 29.5t76.5 9.5q91 0 132.5 -24t41.5 -62q0 -24 -13 -38t-35 -14q-21 0 -34.5 11.5t-16.5 31.5q0 3 3 3t3 -2q5 -38 45 -38q19 0 30.5 12.5t11.5 33.5q0 38 -43.5 59
t-124.5 21q-90 0 -137 -40.5t-47 -117.5v-225h321q3 0 3 -3t-3 -3h-321v-275h382q3 0 3 -3t-3 -3h-382q2 -23 -9 -35.5t-27 -12.5zM53 -24q0 -8 6 -14.5t19 -6.5q14 0 23 10.5t7 31.5h-30q-13 0 -19 -6.5t-6 -14.5z" />
    <glyph glyph-name="currency" unicode="&#xa4;" horiz-adv-x="466" 
d="M144 124l-4 5l-2 -2q-17 17 -27 40.5t-10 50.5q0 26 9.5 49t26.5 41l-85 86q-3 3 -0.5 5t4.5 0l86 -87q18 17 41.5 27t49.5 10t49.5 -9.5t41.5 -26.5l86 86q2 2 4.5 0t-0.5 -5l-86 -86q17 -17 27 -40.5t10 -49.5q0 -27 -10 -50.5t-27 -41.5l86 -85q3 -3 0.5 -5t-4.5 0
l-86 86q-38 -36 -91 -36t-91 36zM233 343q-26 0 -49 -10t-40 -27t-27 -39.5t-10 -48.5t10 -49t27 -40t40 -27t49 -10t49 10t40 27t27 40t10 49t-10 48.5t-27 39.5t-40 27t-49 10zM138 127q2 -4 4 -5l-86 -86q-2 -2 -4.5 0t0.5 5z" />
    <glyph glyph-name="yen" unicode="&#xa5;" horiz-adv-x="574" 
d="M62 122q-3 0 -3 3t3 3h222v130h-222q-3 0 -3 3t3 3h222v90l-233 314q-2 3 0.5 5t4.5 -1l231 -312l231 312q2 3 4.5 1t0.5 -5l-233 -314v-90h222q3 0 3 -3t-3 -3h-222v-130h222q2 0 2.5 -3t-2.5 -3h-222v-122q0 -3 -3 -3t-3 3v122h-222z" />
    <glyph glyph-name="brokenbar" unicode="&#xa6;" horiz-adv-x="206" 
d="M100 750q0 3 3 3t3 -3v-292q0 -3 -3 -3t-3 3v292zM100 205q0 3 3 3t3 -3v-292q0 -3 -3 -3t-3 3v292z" />
    <glyph glyph-name="section" unicode="&#xa7;" horiz-adv-x="582" 
d="M278 -254q-35 0 -71.5 7.5t-70 21t-61.5 33t-46 43.5q-2 2 0.5 4.5t4.5 -0.5q17 -23 44 -41.5t59.5 -32.5t68.5 -21.5t72 -7.5q116 0 182 43t66 120q0 45 -20 72t-52 42.5t-73.5 23t-84.5 13t-84.5 13t-73.5 23.5t-52 43.5t-20 72.5q0 54 45.5 97.5t122.5 65.5
q-33 7 -63.5 16.5t-53 25.5t-36 39t-13.5 57q0 72 57 113t165 41q57 0 108 -15.5t84 -42.5q3 -2 0.5 -4.5t-4.5 -0.5q-19 16 -42.5 26.5t-48.5 17.5t-50 10t-47 3q-102 0 -159 -38t-57 -110q0 -39 18.5 -63t48.5 -39t68.5 -23.5t78.5 -16.5t78.5 -18t68.5 -27.5t48.5 -45
t18.5 -71.5q0 -58 -37 -97.5t-106 -55.5q35 -6 66.5 -15.5t55 -26t37.5 -42t14 -63.5q0 -79 -67 -124t-187 -45zM496 215q0 47 -22.5 75.5t-58.5 45t-80.5 25.5t-88.5 18q-81 -23 -127.5 -66t-46.5 -95q0 -50 25 -77.5t64.5 -42t88 -21t96.5 -13.5q72 16 111 55t39 96z" />
    <glyph glyph-name="dieresis" unicode="&#xa8;" horiz-adv-x="261" 
d="M231 556q0 -6 -4.5 -10.5t-10.5 -4.5t-10.5 4.5t-4.5 10.5t4.5 10.5t10.5 4.5t10.5 -4.5t4.5 -10.5zM60 556q0 -6 -4.5 -10.5t-10.5 -4.5t-10.5 4.5t-4.5 10.5t4.5 10.5t10.5 4.5t10.5 -4.5t4.5 -10.5z" />
    <glyph glyph-name="copyright" unicode="&#xa9;" horiz-adv-x="798" 
d="M399 -3q-79 0 -141.5 22t-106 64.5t-66.5 105.5t-23 145q0 80 22.5 142.5t65.5 106t106 66t143 22.5t143 -23t106 -66t65.5 -106t22.5 -142q0 -85 -25 -148.5t-69.5 -105.5t-106.5 -62.5t-136 -20.5zM399 665q-159 0 -245 -86t-86 -245q0 -158 86 -244.5t245 -86.5
q158 0 244.5 86.5t86.5 244.5q0 159 -86.5 245t-244.5 86zM399 142q-44 0 -75 16t-51.5 42.5t-30 61.5t-9.5 74t11 74t32 61.5t52 42.5t71 16q65 0 96 -24t31 -51q0 -20 -9.5 -31.5t-25.5 -11.5q-17 0 -27 9.5t-10 25.5q0 4 3 4t3 -3q0 -30 31 -30q29 0 29 37q0 25 -29.5 47
t-91.5 22q-35 0 -64.5 -14t-50.5 -39t-33 -59.5t-12 -75.5q0 -88 42.5 -138t117.5 -50q43 0 79.5 17.5t58.5 47.5q2 3 4.5 1t0.5 -4q-23 -32 -60.5 -50t-82.5 -18z" />
    <glyph glyph-name="ordfeminine" unicode="&#xaa;" horiz-adv-x="449" 
d="M413 331q-40 61 -60 152q-12 -32 -28.5 -60t-38 -48.5t-48.5 -32.5t-59 -12q-39 0 -67.5 14.5t-46.5 38t-26.5 54t-8.5 63.5q0 40 12 72t33.5 54.5t51 34.5t65.5 12q45 0 79.5 -15.5t66.5 -35.5v14q0 23 8.5 28t13.5 5q8 0 15.5 -8t7.5 -25q0 -20 -5.5 -58.5t-20.5 -83.5
q8 -41 22.5 -82t38.5 -77q2 -2 -0.5 -4.5t-4.5 0.5zM192 667q-71 0 -113.5 -45t-42.5 -122q0 -75 38.5 -119.5t104.5 -44.5q35 0 62 13.5t48 36t36 50.5t26 58q-7 34 -9.5 65t-3.5 55q-32 21 -66.5 37t-79.5 16zM360 663q-11 0 -13.5 -9.5t-2.5 -17.5q0 -21 1.5 -55t9.5 -75
q13 42 17.5 77t4.5 53q0 12 -4.5 19.5t-12.5 7.5z" />
    <glyph glyph-name="guillemotleft" unicode="&#xab;" horiz-adv-x="366" 
d="M324 40q2 -2 0.5 -4t-4.5 0l-127 122q-3 2 0 5l127 122q2 2 4 0t0 -4l-125 -121zM173 40q2 -2 0 -4t-4 0l-127 122q-3 2 0 5l127 122q3 2 4.5 0t-0.5 -4l-125 -121z" />
    <glyph glyph-name="logicalnot" unicode="&#xac;" horiz-adv-x="541" 
d="M475 318h-412q-3 0 -3 3t3 3h415q3 0 3 -3v-207q0 -3 -3 -3t-3 3v204z" />
    <glyph glyph-name="uni00AD" unicode="&#xad;" horiz-adv-x="489" 
d="M63 303q-3 0 -3 3t3 3h363q3 0 3 -3t-3 -3h-363z" />
    <glyph glyph-name="registered" unicode="&#xae;" horiz-adv-x="799" 
d="M400 -3q-90 0 -154 26.5t-105 72t-60 107t-19 131.5q0 77 21.5 139t64 106t106 68t146.5 24q82 0 144.5 -23.5t105.5 -67.5t65 -106t22 -140q0 -80 -22.5 -143t-66 -106t-106 -65.5t-142.5 -22.5zM400 665q-158 0 -245 -86.5t-87 -244.5q0 -78 22 -139.5t64.5 -104
t104 -65t141.5 -22.5q158 0 244.5 86.5t86.5 244.5q0 78 -22 139.5t-64.5 104t-104 65t-140.5 22.5zM529 142q-14 0 -21.5 10.5t-15.5 24.5l-62 120q-5 11 -14 22q-22 -5 -34 -5q-21 0 -21 18q0 6 4.5 11.5t16.5 5.5q19 0 37 -23q22 6 42 16t35.5 24.5t25 33.5t9.5 42
q0 38 -23.5 60t-63.5 22q-36 0 -63 -23.5t-46 -56.5t-31 -70t-18 -64v-148q0 -10 -4.5 -15t-9.5 -5q-2 0 -8 3t-6 17t5 56t17 92q3 66 -7.5 123.5t-21.5 92.5q-1 2 2 3t4 -1q3 -8 8.5 -29t10.5 -48t8 -58t2 -59q10 36 24 71t33.5 63t44 45t56.5 17q41 0 67 -23t26 -65
q0 -25 -10 -45.5t-26.5 -35.5t-37 -25t-41.5 -15q6 -8 13 -21l62 -121q8 -14 14.5 -22.5t17.5 -8.5t20 7q2 2 3.5 -0.5t-0.5 -4.5q-11 -8 -23 -8zM280 282q-9 -42 -12.5 -75t-3.5 -45q0 -4 1.5 -9t6.5 -5q8 0 8 14v120zM382 343q-15 0 -15 -11q0 -8 5 -10t10 -2t13 1t17 3
q-15 19 -30 19z" />
    <glyph glyph-name="macron" unicode="&#xaf;" horiz-adv-x="262" 
d="M33 513q-3 0 -3 3t3 3h196q3 0 3 -3t-3 -3h-196z" />
    <glyph glyph-name="degree" unicode="&#xb0;" horiz-adv-x="274" 
d="M137 445q-32 0 -54.5 22.5t-22.5 54.5t22.5 55t54.5 23t54.5 -23t22.5 -55t-22.5 -54.5t-54.5 -22.5zM137 594q-29 0 -50 -21t-21 -51q0 -29 21 -50t50 -21t50 21t21 50q0 30 -21 51t-50 21z" />
    <glyph glyph-name="plusminus" unicode="&#xb1;" horiz-adv-x="469" 
d="M231 537q0 3 3 3t3 -3v-178h179q3 0 3 -3t-3 -3h-179v-179q0 -3 -3 -3t-3 3v179h-178q-3 0 -3 3t3 3h178v178zM53 73q-3 0 -3 3t3 3h363q3 0 3 -3t-3 -3h-363z" />
    <glyph glyph-name="twosuperior" unicode="&#xb2;" horiz-adv-x="422" 
d="M344 317q-62 0 -119.5 9t-114.5 22q-16 -8 -29 -13t-22 -5q-11 0 -15 5t-4 10q0 9 7 12t15 3q17 0 47 -6q32 17 71 47t72.5 63.5t56 67.5t22.5 59q0 76 -128 76q-16 0 -36.5 -2.5t-39 -9.5t-31.5 -19.5t-13 -31.5t10 -35q2 -3 -0.5 -4t-4.5 1q-11 19 -11 38q0 22 14 35.5
t34 21t41.5 10t36.5 2.5q23 0 47 -3.5t43.5 -12.5t31.5 -25t12 -41q0 -28 -24 -63.5t-58.5 -69.5t-72 -63t-64.5 -43q53 -12 111 -20.5t115 -8.5q13 0 22.5 4.5t9.5 14.5q0 11 -6 15t-14 4q-11 0 -19 -4q-3 -2 -4.5 1t2.5 5q9 4 21 4q26 0 26 -25t-38 -25zM62 354
q-16 0 -16 -9t13 -9q8 0 19 4t24 10q-13 2 -23 3t-17 1z" />
    <glyph glyph-name="threesuperior" unicode="&#xb3;" horiz-adv-x="356" 
d="M164 331q-51 0 -86 14.5t-47 32.5q-2 2 0 4t4 -1q11 -15 45 -29.5t84 -14.5q22 0 49 3.5t51 13t40 27t16 44.5q0 32 -25.5 53t-71.5 31q-35 -16 -81 -16q-11 0 -15.5 4.5t-4.5 10.5q0 9 7 12t16 3q22 0 41 -2t36 -5q26 11 46 33.5t20 51.5q0 34 -33.5 50.5t-92.5 16.5
q-33 0 -63 -9t-46 -25q-2 -2 -4 0t0 4q17 17 47 26.5t66 9.5q20 0 43.5 -2.5t43 -10.5t32.5 -22.5t13 -37.5q0 -32 -19.5 -53t-43.5 -35q45 -11 70 -33.5t25 -54.5q0 -30 -17 -48.5t-42 -28.5t-53 -13.5t-50 -3.5zM145 517q-7 0 -12 -2t-5 -7q0 -9 14 -9q38 0 70 12
q-30 6 -67 6z" />
    <glyph glyph-name="acute" unicode="&#xb4;" horiz-adv-x="256" 
d="M201 582q2 2 3.5 -0.5t-0.5 -4.5l-148 -114q-2 -2 -4.5 0.5t1.5 4.5z" />
    <glyph glyph-name="mu" unicode="&#xb5;" horiz-adv-x="481" 
d="M-1 -185q29 49 56.5 120.5t48.5 152.5q-2 23 -2 50v53v48.5t2.5 42.5t7.5 30.5t15 11.5q14 0 16 -11t2 -20q0 -31 -9 -86t-25 -117q5 -43 27 -65t70 -22q36 0 62.5 14.5t45.5 35.5t31.5 46t20.5 46q-12 70 -12 147q0 18 7.5 25t15.5 7t15 -7.5t7 -24.5q0 -22 -5.5 -62.5
t-21.5 -85.5q7 -42 17.5 -78t24.5 -65q2 -3 -0.5 -3.5t-4.5 1.5q-13 26 -23.5 60t-17.5 74q-54 -136 -162 -136q-47 0 -70.5 20t-30.5 59q-22 -81 -48 -148.5t-54 -115.5q-3 -3 -5.5 -1t-0.5 4zM127 318q-13 0 -16.5 -36t-2.5 -91v-43t1 -40q16 64 23 112.5t7 72.5
q0 12 -2 18.5t-10 6.5zM379 318q-17 0 -17 -26q0 -35 2.5 -69t7.5 -66q13 42 18 78.5t5 56.5q0 26 -16 26z" />
    <glyph glyph-name="paragraph" unicode="&#xb6;" horiz-adv-x="600" 
d="M437 -163q49 49 49 127v703h-42v-703q0 -41 -16.5 -74.5t-46.5 -57.5q-2 -2 -4 0.5t0 4.5q29 23 45 55.5t16 71.5v354h-196q-96 0 -154 46t-58 132q0 88 45 132.5t133 44.5h335q3 0 3 -3t-3 -3h-51v-703q0 -80 -51 -131q-2 -2 -4 0t0 4z" />
    <glyph glyph-name="periodcentered" unicode="&#xb7;" horiz-adv-x="130" 
d="M80 290q0 -6 -4.5 -10.5t-10.5 -4.5t-10.5 4.5t-4.5 10.5t4.5 10.5t10.5 4.5t10.5 -4.5t4.5 -10.5z" />
    <glyph glyph-name="cedilla" unicode="&#xb8;" horiz-adv-x="221" 
d="M111 -136q-46 0 -70 29q-2 2 0 4t4 0q24 -27 66 -27q11 0 22.5 2t20.5 7.5t15 14t6 20.5q0 15 -8 23.5t-18.5 13t-21.5 5.5t-17 0q-4 0 -3 4l10 40q1 2 4 1.5t2 -2.5l-9 -37q12 0 23.5 -2.5t21.5 -8t16 -15t6 -22.5q0 -23 -19 -36.5t-51 -13.5z" />
    <glyph glyph-name="onesuperior" unicode="&#xb9;" horiz-adv-x="353" 
d="M43 331q-3 0 -3 3t3 3h129v269q-25 -20 -59.5 -34t-61.5 -21q-3 -1 -3.5 1.5t1.5 3.5q31 9 65.5 23t57.5 35v42q0 10 5.5 14t10.5 4t10 -4.5t5 -13.5q0 -25 -25 -45v-274h132q3 0 3 -3t-3 -3h-267zM188 668q-10 0 -10 -12v-37q8 8 13.5 17.5t5.5 19.5q0 12 -9 12z" />
    <glyph glyph-name="ordmasculine" unicode="&#xba;" horiz-adv-x="417" 
d="M196 332q-34 0 -63.5 11t-52 32t-36 51t-13.5 67q0 22 5.5 43t16.5 38t27.5 29t37.5 15q8 26 32.5 40.5t62.5 14.5q45 0 79.5 -26t51.5 -66q14 17 24.5 39t12.5 50q0 4 3 3t3 -3q-6 -57 -41 -95q15 -38 15 -82q0 -38 -13 -67.5t-35.5 -50.5t-52.5 -32t-64 -11zM117 612
q-42 -9 -61 -43.5t-19 -75.5q0 -34 12 -62.5t33 -49t50 -32t64 -11.5t64 11.5t50 32t33 49t12 62.5q0 44 -13 77q-52 -49 -126 -49q-48 0 -74.5 22.5t-26.5 54.5q0 4 0.5 7t1.5 7zM214 667q-48 0 -70.5 -20t-22.5 -49t24 -50t72 -21q26 0 61 10.5t62 39.5q-19 41 -51.5 65.5
t-74.5 24.5z" />
    <glyph glyph-name="guillemotright" unicode="&#xbb;" horiz-adv-x="366" 
d="M167 160l-125 121q-2 2 0 4t4 0l127 -122q2 -3 0 -5l-127 -122q-3 -2 -4.5 0t0.5 4zM318 160l-125 121q-2 2 -0.5 4t4.5 0l127 -122q2 -3 0 -5l-127 -122q-2 -2 -4 0t0 4z" />
    <glyph glyph-name="onequarter" unicode="&#xbc;" horiz-adv-x="716" 
d="M43 331q-3 0 -3 3t3 3h129v269q-25 -20 -59.5 -34t-61.5 -21q-3 -1 -3.5 1.5t1.5 3.5q31 9 65.5 23t57.5 35v42q0 10 5.5 14t10.5 4t10 -4.5t5 -13.5q0 -25 -25 -45v-274h132q3 0 3 -3t-3 -3h-267zM343 118q-2 0 -3 1.5t1 3.5l168 195q14 17 19 30t2 25q-1 3 2 4t4 -3
q3 -14 -2 -27.5t-21 -32.5l-164 -190h233v90q0 3 3 3t3 -3v-90h85q3 0 3 -3t-3 -3h-85v-96q0 -3 -3 -3t-3 3v96h-239zM188 668q-10 0 -10 -12v-37q8 8 13.5 17.5t5.5 19.5q0 12 -9 12zM542 731q2 3 4.5 1.5t1.5 -3.5l-342 -751q-2 -3 -5 -1.5t-1 4.5z" />
    <glyph glyph-name="onehalf" unicode="&#xbd;" horiz-adv-x="784" 
d="M706 38q-62 0 -119.5 9t-114.5 22q-16 -8 -29 -13t-22 -5q-11 0 -15 5t-4 10q0 9 7 12t15 3q17 0 47 -6q32 17 71 47t72.5 63.5t56 67.5t22.5 59q0 76 -128 76q-16 0 -36.5 -2.5t-39 -9.5t-31.5 -19.5t-13 -31.5t10 -35q2 -3 -0.5 -4t-4.5 1q-11 19 -11 38q0 22 14 35.5
t34 21t41.5 10t36.5 2.5q23 0 47 -3.5t43.5 -12.5t31.5 -25t12 -41q0 -28 -24 -63.5t-58.5 -69.5t-72 -63t-64.5 -43q53 -12 111 -20.5t115 -8.5q13 0 22.5 4.5t9.5 14.5q0 11 -6 15t-14 4q-11 0 -19 -4q-3 -2 -4.5 1t2.5 5q9 4 21 4q26 0 26 -25t-38 -25zM43 331q-3 0 -3 3
t3 3h129v269q-25 -20 -59.5 -34t-61.5 -21q-3 -1 -3.5 1.5t1.5 3.5q31 9 65.5 23t57.5 35v42q0 10 5.5 14t10.5 4t10 -4.5t5 -13.5q0 -25 -25 -45v-274h132q3 0 3 -3t-3 -3h-267zM424 75q-16 0 -16 -9t13 -9q8 0 19 4t24 10q-13 2 -23 3t-17 1zM188 668q-10 0 -10 -12v-37
q8 8 13.5 17.5t5.5 19.5q0 12 -9 12zM542 731q2 3 4.5 1.5t1.5 -3.5l-342 -751q-2 -3 -5 -1.5t-1 4.5z" />
    <glyph glyph-name="threequarters" unicode="&#xbe;" horiz-adv-x="736" 
d="M174 331q-51 0 -86 14.5t-47 32.5q-2 2 0 4t4 -1q11 -15 45 -29.5t84 -14.5q22 0 49 3.5t51 13t40 27t16 44.5q0 32 -25.5 53t-71.5 31q-35 -16 -81 -16q-11 0 -15.5 4.5t-4.5 10.5q0 9 7 12t16 3q22 0 41 -2t36 -5q26 11 46 33.5t20 51.5q0 34 -33.5 50.5t-92.5 16.5
q-33 0 -63 -9t-46 -25q-2 -2 -4 0t0 4q17 17 47 26.5t66 9.5q20 0 43.5 -2.5t43 -10.5t32.5 -22.5t13 -37.5q0 -32 -19.5 -53t-43.5 -35q45 -11 70 -33.5t25 -54.5q0 -30 -17 -48.5t-42 -28.5t-53 -13.5t-50 -3.5zM363 118q-2 0 -3 1.5t1 3.5l168 195q14 17 19 30t2 25
q-1 3 2 4t4 -3q3 -14 -2 -27.5t-21 -32.5l-164 -190h233v90q0 3 3 3t3 -3v-90h85q3 0 3 -3t-3 -3h-85v-96q0 -3 -3 -3t-3 3v96h-239zM155 517q-7 0 -12 -2t-5 -7q0 -9 14 -9q38 0 70 12q-30 6 -67 6zM562 731q2 3 4.5 1.5t1.5 -3.5l-342 -751q-2 -3 -5 -1.5t-1 4.5z" />
    <glyph glyph-name="questiondown" unicode="&#xbf;" horiz-adv-x="499" 
d="M257 547q0 3 3 3t3 -3v-56q0 -46 -15.5 -75t-38.5 -49.5t-49.5 -37t-49.5 -38t-38.5 -52t-15.5 -79.5q0 -77 55 -117t150 -40q29 0 62.5 4.5t62.5 17.5t48 36t19 60q0 22 -11.5 35.5t-30.5 13.5q-41 0 -45 -40q0 -2 -3 -2.5t-3 3.5q2 21 15.5 33t35.5 12q21 0 34.5 -15.5
t13.5 -39.5q0 -54 -47.5 -89t-150.5 -35q-100 0 -155.5 42.5t-55.5 120.5q0 50 15.5 81.5t38.5 53t49.5 38.5t49.5 37t38.5 48t15.5 73v56zM245 658q0 6 4.5 10.5t10.5 4.5t10.5 -4.5t4.5 -10.5t-4.5 -10.5t-10.5 -4.5t-10.5 4.5t-4.5 10.5z" />
    <glyph glyph-name="Agrave" unicode="&#xc0;" horiz-adv-x="620" 
d="M162 289q-28 4 -54.5 6t-50.5 2q-57 0 -57 -40q0 -19 10 -27.5t26 -8.5q9 0 21 3q3 1 3.5 -2t-2.5 -4q-12 -3 -23 -3q-20 0 -30.5 11.5t-10.5 30.5q0 27 18.5 36.5t44.5 9.5q25 0 52 -2t56 -6l174 337q-12 22 -18 36t-6 29q0 14 8.5 21t19.5 7t19.5 -7t8.5 -21
q0 -15 -8.5 -33t-16.5 -31l242 -470q15 -8 40 -22t48 -31t40 -36t17 -37q0 -17 -9.5 -28.5t-27.5 -11.5q-12 0 -24.5 7.5t-21.5 24.5l-66 129q-106 53 -208.5 83.5t-207.5 47.5l-150 -291q-2 -2 -4.5 -1t-0.5 4zM656 31q8 -15 18.5 -21.5t21.5 -6.5q17 0 24 11t7 23
q0 16 -15.5 33.5t-37.5 33.5t-44.5 29t-36.5 21zM171 294q107 -17 206.5 -47t201.5 -80l-236 459zM343 719q-8 0 -15 -5.5t-7 -16.5q0 -14 5.5 -26.5t16.5 -32.5q10 18 16 31.5t6 27.5q0 11 -7 16.5t-15 5.5zM198 867q-2 2 0 4.5t4 0.5l148 -114q3 -2 1 -4.5t-4 -0.5z" />
    <glyph glyph-name="Aacute" unicode="&#xc1;" horiz-adv-x="620" 
d="M162 289q-28 4 -54.5 6t-50.5 2q-57 0 -57 -40q0 -19 10 -27.5t26 -8.5q9 0 21 3q3 1 3.5 -2t-2.5 -4q-12 -3 -23 -3q-20 0 -30.5 11.5t-10.5 30.5q0 27 18.5 36.5t44.5 9.5q25 0 52 -2t56 -6l174 337q-12 22 -18 36t-6 29q0 14 8.5 21t19.5 7t19.5 -7t8.5 -21
q0 -15 -8.5 -33t-16.5 -31l242 -470q15 -8 40 -22t48 -31t40 -36t17 -37q0 -17 -9.5 -28.5t-27.5 -11.5q-12 0 -24.5 7.5t-21.5 24.5l-66 129q-106 53 -208.5 83.5t-207.5 47.5l-150 -291q-2 -2 -4.5 -1t-0.5 4zM656 31q8 -15 18.5 -21.5t21.5 -6.5q17 0 24 11t7 23
q0 16 -15.5 33.5t-37.5 33.5t-44.5 29t-36.5 21zM171 294q107 -17 206.5 -47t201.5 -80l-236 459zM343 719q-8 0 -15 -5.5t-7 -16.5q0 -14 5.5 -26.5t16.5 -32.5q10 18 16 31.5t6 27.5q0 11 -7 16.5t-15 5.5zM460 872q2 2 3.5 -0.5t-0.5 -4.5l-148 -114q-2 -2 -4.5 0.5
t1.5 4.5z" />
    <glyph glyph-name="Acircumflex" unicode="&#xc2;" horiz-adv-x="620" 
d="M162 289q-28 4 -54.5 6t-50.5 2q-57 0 -57 -40q0 -19 10 -27.5t26 -8.5q9 0 21 3q3 1 3.5 -2t-2.5 -4q-12 -3 -23 -3q-20 0 -30.5 11.5t-10.5 30.5q0 27 18.5 36.5t44.5 9.5q25 0 52 -2t56 -6l174 337q-12 22 -18 36t-6 29q0 14 8.5 21t19.5 7t19.5 -7t8.5 -21
q0 -15 -8.5 -33t-16.5 -31l242 -470q15 -8 40 -22t48 -31t40 -36t17 -37q0 -17 -9.5 -28.5t-27.5 -11.5q-12 0 -24.5 7.5t-21.5 24.5l-66 129q-106 53 -208.5 83.5t-207.5 47.5l-150 -291q-2 -2 -4.5 -1t-0.5 4zM656 31q8 -15 18.5 -21.5t21.5 -6.5q17 0 24 11t7 23
q0 16 -15.5 33.5t-37.5 33.5t-44.5 29t-36.5 21zM171 294q107 -17 206.5 -47t201.5 -80l-236 459zM343 719q-8 0 -15 -5.5t-7 -16.5q0 -14 5.5 -26.5t16.5 -32.5q10 18 16 31.5t6 27.5q0 11 -7 16.5t-15 5.5zM343 835l-96 -112q-2 -2 -4 0t0 4l98 114q2 2 4 0l98 -114
q2 -2 0 -4t-4 0z" />
    <glyph glyph-name="Atilde" unicode="&#xc3;" horiz-adv-x="620" 
d="M162 289q-28 4 -54.5 6t-50.5 2q-57 0 -57 -40q0 -19 10 -27.5t26 -8.5q9 0 21 3q3 1 3.5 -2t-2.5 -4q-12 -3 -23 -3q-20 0 -30.5 11.5t-10.5 30.5q0 27 18.5 36.5t44.5 9.5q25 0 52 -2t56 -6l174 337q-12 22 -18 36t-6 29q0 14 8.5 21t19.5 7t19.5 -7t8.5 -21
q0 -15 -8.5 -33t-16.5 -31l242 -470q15 -8 40 -22t48 -31t40 -36t17 -37q0 -17 -9.5 -28.5t-27.5 -11.5q-12 0 -24.5 7.5t-21.5 24.5l-66 129q-106 53 -208.5 83.5t-207.5 47.5l-150 -291q-2 -2 -4.5 -1t-0.5 4zM656 31q8 -15 18.5 -21.5t21.5 -6.5q17 0 24 11t7 23
q0 16 -15.5 33.5t-37.5 33.5t-44.5 29t-36.5 21zM171 294q107 -17 206.5 -47t201.5 -80l-236 459zM343 719q-8 0 -15 -5.5t-7 -16.5q0 -14 5.5 -26.5t16.5 -32.5q10 18 16 31.5t6 27.5q0 11 -7 16.5t-15 5.5zM390 750q-13 0 -25 6t-24 14t-23.5 14t-24.5 6q-11 0 -22.5 -6
t-24.5 -23q-2 -2 -4.5 0t-0.5 4q25 32 55 31q13 -2 25 -7.5t23 -13.5q12 -8 23.5 -13.5t22.5 -5.5q27 -2 50 33q2 2 4.5 0.5t0.5 -4.5q-11 -16 -24.5 -25.5t-30.5 -9.5z" />
    <glyph glyph-name="Adieresis" unicode="&#xc4;" horiz-adv-x="620" 
d="M162 289q-28 4 -54.5 6t-50.5 2q-57 0 -57 -40q0 -19 10 -27.5t26 -8.5q9 0 21 3q3 1 3.5 -2t-2.5 -4q-12 -3 -23 -3q-20 0 -30.5 11.5t-10.5 30.5q0 27 18.5 36.5t44.5 9.5q25 0 52 -2t56 -6l174 337q-12 22 -18 36t-6 29q0 14 8.5 21t19.5 7t19.5 -7t8.5 -21
q0 -15 -8.5 -33t-16.5 -31l242 -470q15 -8 40 -22t48 -31t40 -36t17 -37q0 -17 -9.5 -28.5t-27.5 -11.5q-12 0 -24.5 7.5t-21.5 24.5l-66 129q-106 53 -208.5 83.5t-207.5 47.5l-150 -291q-2 -2 -4.5 -1t-0.5 4zM656 31q8 -15 18.5 -21.5t21.5 -6.5q17 0 24 11t7 23
q0 16 -15.5 33.5t-37.5 33.5t-44.5 29t-36.5 21zM171 294q107 -17 206.5 -47t201.5 -80l-236 459zM343 719q-8 0 -15 -5.5t-7 -16.5q0 -14 5.5 -26.5t16.5 -32.5q10 18 16 31.5t6 27.5q0 11 -7 16.5t-15 5.5zM444 756q0 -6 -4.5 -10.5t-10.5 -4.5t-10.5 4.5t-4.5 10.5
t4.5 10.5t10.5 4.5t10.5 -4.5t4.5 -10.5zM273 756q0 -6 -4.5 -10.5t-10.5 -4.5t-10.5 4.5t-4.5 10.5t4.5 10.5t10.5 4.5t10.5 -4.5t4.5 -10.5z" />
    <glyph glyph-name="Aring" unicode="&#xc5;" horiz-adv-x="713" 
d="M162 289q-28 4 -54.5 6t-50.5 2q-57 0 -57 -40q0 -19 10 -27.5t26 -8.5q9 0 21 3q3 1 3.5 -2t-2.5 -4q-12 -3 -23 -3q-20 0 -30.5 11.5t-10.5 30.5q0 27 18.5 36.5t44.5 9.5q25 0 52 -2t56 -6l174 337q-12 22 -18 36t-6 29q0 14 8.5 21t19.5 7t19.5 -7t8.5 -21
q0 -15 -8.5 -33t-16.5 -31l242 -470q15 -8 40 -22t48 -31t40 -36t17 -37q0 -17 -9.5 -28.5t-27.5 -11.5q-12 0 -24.5 7.5t-21.5 24.5l-66 129q-106 53 -208.5 83.5t-207.5 47.5l-150 -291q-2 -2 -4.5 -1t-0.5 4zM656 31q8 -15 18.5 -21.5t21.5 -6.5q17 0 24 11t7 23
q0 16 -15.5 33.5t-37.5 33.5t-44.5 29t-36.5 21zM171 294q107 -17 206.5 -47t201.5 -80l-236 459zM343 719q-8 0 -15 -5.5t-7 -16.5q0 -14 5.5 -26.5t16.5 -32.5q10 18 16 31.5t6 27.5q0 11 -7 16.5t-15 5.5zM343 735q-32 0 -54.5 22.5t-22.5 54.5t22.5 54.5t54.5 22.5
t54.5 -22.5t22.5 -54.5t-22.5 -54.5t-54.5 -22.5zM343 883q-29 0 -50 -20.5t-21 -50.5q0 -29 21 -50t50 -21t50 21t21 50q0 30 -21 50.5t-50 20.5z" />
    <glyph glyph-name="AE" unicode="&#xc6;" horiz-adv-x="1003" 
d="M510 671q1 2 4 2h441q3 0 3 -3t-3 -3h-415v-326h374q3 0 3 -3t-3 -3h-374v-332h420q3 0 3 -3t-3 -3h-423q-3 0 -3 3v335h-272l-256 -337q-2 -2 -4.5 0t-0.5 4zM267 341h267v326h-19z" />
    <glyph glyph-name="Ccedilla" unicode="&#xc7;" horiz-adv-x="660" 
d="M370 -3q-78 0 -136 26t-96 72t-57 107.5t-19 132.5q0 76 23 138.5t64.5 107t98 68.5t122.5 24q57 0 101.5 -11t75 -29t46 -41.5t15.5 -48.5q0 -32 -15.5 -52.5t-44.5 -20.5q-26 0 -44.5 16t-18.5 45q0 3 3 3t3 -3q0 -25 15.5 -40t41.5 -15q25 0 39.5 18.5t14.5 48.5
q0 23 -15 45.5t-44 40t-72.5 28t-100.5 10.5q-67 0 -122.5 -24.5t-95.5 -68t-62 -105t-22 -134.5q0 -77 21 -138.5t60 -104.5t95 -66t126 -23q78 0 145 30.5t106 84.5q2 2 4.5 0t0.5 -4q-40 -54 -108.5 -85.5t-147.5 -31.5zM347 -136q-46 0 -70 29q-2 2 0 4t4 0
q24 -27 66 -27q11 0 22.5 2t20.5 7.5t15 14t6 20.5q0 15 -8 23.5t-18.5 13t-21.5 5.5t-17 0q-4 0 -3 4l10 40q1 2 4 1.5t2 -2.5l-9 -37q12 0 23.5 -2.5t21.5 -8t16 -15t6 -22.5q0 -23 -19 -36.5t-51 -13.5z" />
    <glyph glyph-name="Egrave" unicode="&#xc8;" horiz-adv-x="589" 
d="M346 -3q-58 0 -110 9t-91 32t-62 62t-23 98q0 62 34 106.5t97 66.5q-17 9 -31 18.5t-24.5 22.5t-16 29.5t-5.5 39.5q0 38 9 79.5t9 83.5h-29q-17 0 -24.5 8t-7.5 19q0 14 10 20t21 6q20 0 27 -14.5t9 -32.5q61 1 109.5 4t93.5 7t87 6.5t95 2.5q38 0 59.5 -22t21.5 -54
q0 -24 -14.5 -48.5t-47.5 -37.5q-4 -2 -5 1.5t2 4.5q32 12 45.5 34.5t13.5 45.5q0 33 -21.5 51.5t-53.5 18.5q-52 0 -94 -2.5t-87 -6.5t-93.5 -7t-110.5 -4q-1 -45 -9.5 -86.5t-8.5 -76.5q0 -25 7 -42.5t18 -29.5t25 -20t28 -15q32 11 69 16.5t80 5.5q24 0 34 -8.5t10 -19.5
q0 -13 -12 -20.5t-32 -7.5q-90 0 -149 28q-62 -22 -97 -64.5t-35 -105.5q0 -195 280 -195q140 0 214 30t74 84q0 16 -6 26t-15 15.5t-19.5 7t-19.5 1.5q-23 0 -38.5 -10.5t-18.5 -29.5q-1 -3 -3.5 -3t-2.5 3q2 21 19.5 33.5t43.5 12.5q32 0 49 -14.5t17 -41.5
q0 -54 -71.5 -87t-222.5 -33zM206 370q28 -11 63.5 -17.5t77.5 -6.5q37 0 37 22t-37 22q-79 0 -141 -20zM102 691q-11 0 -18 -5.5t-7 -14.5q0 -8 6 -14.5t20 -6.5h29q-2 18 -7.5 29.5t-22.5 11.5zM235 837q-2 2 0 4.5t4 0.5l148 -114q3 -2 1 -4.5t-4 -0.5z" />
    <glyph glyph-name="Eacute" unicode="&#xc9;" horiz-adv-x="589" 
d="M346 -3q-58 0 -110 9t-91 32t-62 62t-23 98q0 62 34 106.5t97 66.5q-17 9 -31 18.5t-24.5 22.5t-16 29.5t-5.5 39.5q0 38 9 79.5t9 83.5h-29q-17 0 -24.5 8t-7.5 19q0 14 10 20t21 6q20 0 27 -14.5t9 -32.5q61 1 109.5 4t93.5 7t87 6.5t95 2.5q38 0 59.5 -22t21.5 -54
q0 -24 -14.5 -48.5t-47.5 -37.5q-4 -2 -5 1.5t2 4.5q32 12 45.5 34.5t13.5 45.5q0 33 -21.5 51.5t-53.5 18.5q-52 0 -94 -2.5t-87 -6.5t-93.5 -7t-110.5 -4q-1 -45 -9.5 -86.5t-8.5 -76.5q0 -25 7 -42.5t18 -29.5t25 -20t28 -15q32 11 69 16.5t80 5.5q24 0 34 -8.5t10 -19.5
q0 -13 -12 -20.5t-32 -7.5q-90 0 -149 28q-62 -22 -97 -64.5t-35 -105.5q0 -195 280 -195q140 0 214 30t74 84q0 16 -6 26t-15 15.5t-19.5 7t-19.5 1.5q-23 0 -38.5 -10.5t-18.5 -29.5q-1 -3 -3.5 -3t-2.5 3q2 21 19.5 33.5t43.5 12.5q32 0 49 -14.5t17 -41.5
q0 -54 -71.5 -87t-222.5 -33zM206 370q28 -11 63.5 -17.5t77.5 -6.5q37 0 37 22t-37 22q-79 0 -141 -20zM102 691q-11 0 -18 -5.5t-7 -14.5q0 -8 6 -14.5t20 -6.5h29q-2 18 -7.5 29.5t-22.5 11.5zM465 852q2 2 3.5 -0.5t-0.5 -4.5l-148 -114q-2 -2 -4.5 0.5t1.5 4.5z" />
    <glyph glyph-name="Ecircumflex" unicode="&#xca;" horiz-adv-x="589" 
d="M346 -3q-58 0 -110 9t-91 32t-62 62t-23 98q0 62 34 106.5t97 66.5q-17 9 -31 18.5t-24.5 22.5t-16 29.5t-5.5 39.5q0 38 9 79.5t9 83.5h-29q-17 0 -24.5 8t-7.5 19q0 14 10 20t21 6q20 0 27 -14.5t9 -32.5q61 1 109.5 4t93.5 7t87 6.5t95 2.5q38 0 59.5 -22t21.5 -54
q0 -24 -14.5 -48.5t-47.5 -37.5q-4 -2 -5 1.5t2 4.5q32 12 45.5 34.5t13.5 45.5q0 33 -21.5 51.5t-53.5 18.5q-52 0 -94 -2.5t-87 -6.5t-93.5 -7t-110.5 -4q-1 -45 -9.5 -86.5t-8.5 -76.5q0 -25 7 -42.5t18 -29.5t25 -20t28 -15q32 11 69 16.5t80 5.5q24 0 34 -8.5t10 -19.5
q0 -13 -12 -20.5t-32 -7.5q-90 0 -149 28q-62 -22 -97 -64.5t-35 -105.5q0 -195 280 -195q140 0 214 30t74 84q0 16 -6 26t-15 15.5t-19.5 7t-19.5 1.5q-23 0 -38.5 -10.5t-18.5 -29.5q-1 -3 -3.5 -3t-2.5 3q2 21 19.5 33.5t43.5 12.5q32 0 49 -14.5t17 -41.5
q0 -54 -71.5 -87t-222.5 -33zM206 370q28 -11 63.5 -17.5t77.5 -6.5q37 0 37 22t-37 22q-79 0 -141 -20zM102 691q-11 0 -18 -5.5t-7 -14.5q0 -8 6 -14.5t20 -6.5h29q-2 18 -7.5 29.5t-22.5 11.5zM358 855l-96 -112q-2 -2 -4 0t0 4l98 114q2 2 4 0l98 -114q2 -2 0 -4t-4 0z
" />
    <glyph glyph-name="Edieresis" unicode="&#xcb;" horiz-adv-x="589" 
d="M346 -3q-58 0 -110 9t-91 32t-62 62t-23 98q0 62 34 106.5t97 66.5q-17 9 -31 18.5t-24.5 22.5t-16 29.5t-5.5 39.5q0 38 9 79.5t9 83.5h-29q-17 0 -24.5 8t-7.5 19q0 14 10 20t21 6q20 0 27 -14.5t9 -32.5q61 1 109.5 4t93.5 7t87 6.5t95 2.5q38 0 59.5 -22t21.5 -54
q0 -24 -14.5 -48.5t-47.5 -37.5q-4 -2 -5 1.5t2 4.5q32 12 45.5 34.5t13.5 45.5q0 33 -21.5 51.5t-53.5 18.5q-52 0 -94 -2.5t-87 -6.5t-93.5 -7t-110.5 -4q-1 -45 -9.5 -86.5t-8.5 -76.5q0 -25 7 -42.5t18 -29.5t25 -20t28 -15q32 11 69 16.5t80 5.5q24 0 34 -8.5t10 -19.5
q0 -13 -12 -20.5t-32 -7.5q-90 0 -149 28q-62 -22 -97 -64.5t-35 -105.5q0 -195 280 -195q140 0 214 30t74 84q0 16 -6 26t-15 15.5t-19.5 7t-19.5 1.5q-23 0 -38.5 -10.5t-18.5 -29.5q-1 -3 -3.5 -3t-2.5 3q2 21 19.5 33.5t43.5 12.5q32 0 49 -14.5t17 -41.5
q0 -54 -71.5 -87t-222.5 -33zM206 370q28 -11 63.5 -17.5t77.5 -6.5q37 0 37 22t-37 22q-79 0 -141 -20zM102 691q-11 0 -18 -5.5t-7 -14.5q0 -8 6 -14.5t20 -6.5h29q-2 18 -7.5 29.5t-22.5 11.5zM467 756q0 -6 -4.5 -10.5t-10.5 -4.5t-10.5 4.5t-4.5 10.5t4.5 10.5
t10.5 4.5t10.5 -4.5t4.5 -10.5zM296 756q0 -6 -4.5 -10.5t-10.5 -4.5t-10.5 4.5t-4.5 10.5t4.5 10.5t10.5 4.5t10.5 -4.5t4.5 -10.5z" />
    <glyph glyph-name="Igrave" unicode="&#xcc;" horiz-adv-x="383" 
d="M60 -47q-54 0 -54 26q0 19 18 23.5t39 4.5h102q11 14 17 33t6 45v481q0 46 23 78h-179q-4 0 -3.5 3t3.5 3h183q21 25 49.5 36.5t58.5 11.5q54 0 54 -26q0 -19 -18 -23.5t-39 -4.5h-102q-11 -14 -17.5 -33t-6.5 -45v-481q0 -47 -22 -78h179q3 0 3 -3t-3 -3h-183
q-22 -26 -50 -37t-58 -11zM63 1q-27 0 -39 -5t-12 -17q0 -7 5.5 -11t13 -6t16 -2.5t13.5 -0.5q23 0 51 9t49 33h-97zM320 650q27 0 39 5.5t12 16.5q0 7 -5.5 11t-13 6t-16 2.5t-13.5 0.5q-23 0 -51 -9t-49 -33h97zM43 867q-2 2 0 4.5t4 0.5l148 -114q3 -2 1 -4.5t-4 -0.5z
" />
    <glyph glyph-name="Iacute" unicode="&#xcd;" horiz-adv-x="383" 
d="M60 -47q-54 0 -54 26q0 19 18 23.5t39 4.5h102q11 14 17 33t6 45v481q0 46 23 78h-179q-4 0 -3.5 3t3.5 3h183q21 25 49.5 36.5t58.5 11.5q54 0 54 -26q0 -19 -18 -23.5t-39 -4.5h-102q-11 -14 -17.5 -33t-6.5 -45v-481q0 -47 -22 -78h179q3 0 3 -3t-3 -3h-183
q-22 -26 -50 -37t-58 -11zM63 1q-27 0 -39 -5t-12 -17q0 -7 5.5 -11t13 -6t16 -2.5t13.5 -0.5q23 0 51 9t49 33h-97zM320 650q27 0 39 5.5t12 16.5q0 7 -5.5 11t-13 6t-16 2.5t-13.5 0.5q-23 0 -51 -9t-49 -33h97zM356 872q2 2 3.5 -0.5t-0.5 -4.5l-148 -114q-2 -2 -4.5 0.5
t1.5 4.5z" />
    <glyph glyph-name="Icircumflex" unicode="&#xce;" horiz-adv-x="383" 
d="M60 -47q-54 0 -54 26q0 19 18 23.5t39 4.5h102q11 14 17 33t6 45v481q0 46 23 78h-179q-4 0 -3.5 3t3.5 3h183q21 25 49.5 36.5t58.5 11.5q54 0 54 -26q0 -19 -18 -23.5t-39 -4.5h-102q-11 -14 -17.5 -33t-6.5 -45v-481q0 -47 -22 -78h179q3 0 3 -3t-3 -3h-183
q-22 -26 -50 -37t-58 -11zM63 1q-27 0 -39 -5t-12 -17q0 -7 5.5 -11t13 -6t16 -2.5t13.5 -0.5q23 0 51 9t49 33h-97zM320 650q27 0 39 5.5t12 16.5q0 7 -5.5 11t-13 6t-16 2.5t-13.5 0.5q-23 0 -51 -9t-49 -33h97zM192 865l-96 -112q-2 -2 -4 0t0 4l98 114q2 2 4 0l98 -114
q2 -2 0 -4t-4 0z" />
    <glyph glyph-name="Idieresis" unicode="&#xcf;" horiz-adv-x="383" 
d="M60 -47q-54 0 -54 26q0 19 18 23.5t39 4.5h102q11 14 17 33t6 45v481q0 46 23 78h-179q-4 0 -3.5 3t3.5 3h183q21 25 49.5 36.5t58.5 11.5q54 0 54 -26q0 -19 -18 -23.5t-39 -4.5h-102q-11 -14 -17.5 -33t-6.5 -45v-481q0 -47 -22 -78h179q3 0 3 -3t-3 -3h-183
q-22 -26 -50 -37t-58 -11zM63 1q-27 0 -39 -5t-12 -17q0 -7 5.5 -11t13 -6t16 -2.5t13.5 -0.5q23 0 51 9t49 33h-97zM320 650q27 0 39 5.5t12 16.5q0 7 -5.5 11t-13 6t-16 2.5t-13.5 0.5q-23 0 -51 -9t-49 -33h97zM301 766q0 -6 -4.5 -10.5t-10.5 -4.5t-10.5 4.5t-4.5 10.5
t4.5 10.5t10.5 4.5t10.5 -4.5t4.5 -10.5zM130 766q0 -6 -4.5 -10.5t-10.5 -4.5t-10.5 4.5t-4.5 10.5t4.5 10.5t10.5 4.5t10.5 -4.5t4.5 -10.5z" />
    <glyph glyph-name="Eth" unicode="&#xd0;" horiz-adv-x="662" 
d="M20 318q-3 0 -3 3t3 3h88v63q0 67 28 116q2 4 4.5 2t0.5 -5q-27 -47 -27 -113v-63h173q3 0 3 -3t-3 -3h-173v-215q0 -37 -10 -61q46 -15 90 -27t94 -12q146 0 225.5 86.5t79.5 245.5q0 76 -24 137t-68 104.5t-106 67t-139 23.5q-20 0 -47.5 -1t-56.5 -5t-57.5 -11.5
t-51 -20.5t-36.5 -32t-14 -46q0 -21 11 -33.5t31 -12.5q37 0 45 38q1 4 4 3.5t2 -4.5q-8 -43 -51 -43q-22 0 -35 14.5t-13 37.5q0 28 14.5 47.5t38 33.5t53.5 22t59.5 12t57 5.5t46.5 1.5q78 0 142 -25t109 -69.5t69 -106.5t23 -137q-3 -166 -82.5 -252t-228.5 -86
q-48 1 -97 13t-89 27q-19 -40 -56 -40q-17 0 -26.5 7.5t-9.5 21.5q0 11 8.5 20.5t27.5 9.5q11 0 24 -3.5t28 -8.5q10 23 10 59v215h-88zM46 50q-14 0 -22 -6.5t-8 -17.5t8 -17t22 -6q33 0 50 36q-15 5 -27 8t-23 3z" />
    <glyph glyph-name="Ntilde" unicode="&#xd1;" horiz-adv-x="764" 
d="M104 -3q-2 0 -2 3q3 44 4 92t1.5 96t0.5 95v89v92q0 29 0.5 52.5t1.5 43.5q-11 -7 -23 -14t-26 -14q-3 -2 -4 0.5t1 4.5q15 8 28 15.5t24 15.5q1 18 2.5 37t5 34t10.5 24.5t19 9.5q11 0 17.5 -7t6.5 -20q0 -41 -55 -81q-1 -20 -1.5 -45.5t-0.5 -55.5v-92v-155t-4 -162
q19 102 45.5 196t67.5 184q19 41 44.5 83t57 76.5t70 56.5t84.5 22q55 0 91 -19.5t57 -52.5t29.5 -76.5t8.5 -91.5v-402q0 -16 5 -22t16 -6q8 0 16.5 3t15.5 11q2 2 4 0t0 -4q-8 -9 -18 -12.5t-18 -3.5q-18 0 -22.5 11t-4.5 23v402q0 50 -8.5 92.5t-29.5 74t-55.5 49.5
t-86.5 18q-47 0 -85.5 -23t-69.5 -58.5t-55 -76.5t-41 -77q-20 -44 -38 -95t-34 -106.5t-28 -114t-20 -116.5q-2 -3 -3 -3h-1zM147 667q-15 0 -21.5 -21t-9.5 -74q49 37 49 74q0 4 -3 12.5t-15 8.5zM524 704q-13 0 -25 6t-24 14t-23.5 14t-24.5 6q-11 0 -22.5 -6t-24.5 -23
q-2 -2 -4.5 0t-0.5 4q25 32 55 31q13 -2 25 -7.5t23 -13.5q12 -8 23.5 -13.5t22.5 -5.5q27 -2 50 33q2 2 4.5 0.5t0.5 -4.5q-11 -16 -24.5 -25.5t-30.5 -9.5z" />
    <glyph glyph-name="Ograve" unicode="&#xd2;" horiz-adv-x="700" 
d="M365 -3q-75 0 -131.5 24.5t-95 67.5t-57.5 101t-19 126q0 41 10 80t30 72t49 58t67 37q2 49 46 79.5t132 30.5q85 0 140.5 -37.5t88.5 -103.5q50 37 76 96q2 3 4.5 1.5t1.5 -3.5q-14 -30 -34.5 -55t-44.5 -44q41 -87 41 -211q0 -71 -20 -129t-59 -100q-40 -45 -97 -67.5
t-128 -22.5zM218 556q-33 -10 -60.5 -32t-47.5 -53.5t-31 -71t-11 -83.5q0 -72 20.5 -130t59 -98.5t93.5 -62.5t124 -22t124 22t94 62.5t59.5 98.5t20.5 130q0 121 -40 207q-45 -35 -104 -51.5t-116 -16.5q-26 0 -57.5 3.5t-59 14.5t-46.5 31t-22 52zM224 558
q2 -47 48.5 -72t130.5 -25q27 0 55.5 4t57 12t55 20.5t49.5 30.5q-33 71 -91 105t-133 34q-79 0 -124.5 -27.5t-47.5 -75.5q22 6 46 6q47 0 80.5 -9.5t62.5 -31.5q2 -2 0 -4q-3 -3 -4 -1q-28 21 -61 30.5t-78 9.5q-24 0 -46 -6zM257 817q-2 2 0 4.5t4 0.5l148 -114
q3 -2 1 -4.5t-4 -0.5z" />
    <glyph glyph-name="Oacute" unicode="&#xd3;" horiz-adv-x="700" 
d="M365 -3q-75 0 -131.5 24.5t-95 67.5t-57.5 101t-19 126q0 41 10 80t30 72t49 58t67 37q2 49 46 79.5t132 30.5q85 0 140.5 -37.5t88.5 -103.5q50 37 76 96q2 3 4.5 1.5t1.5 -3.5q-14 -30 -34.5 -55t-44.5 -44q41 -87 41 -211q0 -71 -20 -129t-59 -100q-40 -45 -97 -67.5
t-128 -22.5zM218 556q-33 -10 -60.5 -32t-47.5 -53.5t-31 -71t-11 -83.5q0 -72 20.5 -130t59 -98.5t93.5 -62.5t124 -22t124 22t94 62.5t59.5 98.5t20.5 130q0 121 -40 207q-45 -35 -104 -51.5t-116 -16.5q-26 0 -57.5 3.5t-59 14.5t-46.5 31t-22 52zM224 558
q2 -47 48.5 -72t130.5 -25q27 0 55.5 4t57 12t55 20.5t49.5 30.5q-33 71 -91 105t-133 34q-79 0 -124.5 -27.5t-47.5 -75.5q22 6 46 6q47 0 80.5 -9.5t62.5 -31.5q2 -2 0 -4q-3 -3 -4 -1q-28 21 -61 30.5t-78 9.5q-24 0 -46 -6zM530 822q2 2 3.5 -0.5t-0.5 -4.5l-148 -114
q-2 -2 -4.5 0.5t1.5 4.5z" />
    <glyph glyph-name="Ocircumflex" unicode="&#xd4;" horiz-adv-x="700" 
d="M365 -3q-75 0 -131.5 24.5t-95 67.5t-57.5 101t-19 126q0 41 10 80t30 72t49 58t67 37q2 49 46 79.5t132 30.5q85 0 140.5 -37.5t88.5 -103.5q50 37 76 96q2 3 4.5 1.5t1.5 -3.5q-14 -30 -34.5 -55t-44.5 -44q41 -87 41 -211q0 -71 -20 -129t-59 -100q-40 -45 -97 -67.5
t-128 -22.5zM218 556q-33 -10 -60.5 -32t-47.5 -53.5t-31 -71t-11 -83.5q0 -72 20.5 -130t59 -98.5t93.5 -62.5t124 -22t124 22t94 62.5t59.5 98.5t20.5 130q0 121 -40 207q-45 -35 -104 -51.5t-116 -16.5q-26 0 -57.5 3.5t-59 14.5t-46.5 31t-22 52zM224 558
q2 -47 48.5 -72t130.5 -25q27 0 55.5 4t57 12t55 20.5t49.5 30.5q-33 71 -91 105t-133 34q-79 0 -124.5 -27.5t-47.5 -75.5q22 6 46 6q47 0 80.5 -9.5t62.5 -31.5q2 -2 0 -4q-3 -3 -4 -1q-28 21 -61 30.5t-78 9.5q-24 0 -46 -6zM386 815l-96 -112q-2 -2 -4 0t0 4l98 114
q2 2 4 0l98 -114q2 -2 0 -4t-4 0z" />
    <glyph glyph-name="Otilde" unicode="&#xd5;" horiz-adv-x="700" 
d="M365 -3q-75 0 -131.5 24.5t-95 67.5t-57.5 101t-19 126q0 41 10 80t30 72t49 58t67 37q2 49 46 79.5t132 30.5q85 0 140.5 -37.5t88.5 -103.5q50 37 76 96q2 3 4.5 1.5t1.5 -3.5q-14 -30 -34.5 -55t-44.5 -44q41 -87 41 -211q0 -71 -20 -129t-59 -100q-40 -45 -97 -67.5
t-128 -22.5zM218 556q-33 -10 -60.5 -32t-47.5 -53.5t-31 -71t-11 -83.5q0 -72 20.5 -130t59 -98.5t93.5 -62.5t124 -22t124 22t94 62.5t59.5 98.5t20.5 130q0 121 -40 207q-45 -35 -104 -51.5t-116 -16.5q-26 0 -57.5 3.5t-59 14.5t-46.5 31t-22 52zM224 558
q2 -47 48.5 -72t130.5 -25q27 0 55.5 4t57 12t55 20.5t49.5 30.5q-33 71 -91 105t-133 34q-79 0 -124.5 -27.5t-47.5 -75.5q22 6 46 6q47 0 80.5 -9.5t62.5 -31.5q2 -2 0 -4q-3 -3 -4 -1q-28 21 -61 30.5t-78 9.5q-24 0 -46 -6zM433 735q-13 0 -25 6t-24 14t-23.5 14
t-24.5 6q-11 0 -22.5 -6t-24.5 -23q-2 -2 -4.5 0t-0.5 4q25 32 55 31q13 -2 25 -7.5t23 -13.5q12 -8 23.5 -13.5t22.5 -5.5q27 -2 50 33q2 2 4.5 0.5t0.5 -4.5q-11 -16 -24.5 -25.5t-30.5 -9.5z" />
    <glyph glyph-name="Odieresis" unicode="&#xd6;" horiz-adv-x="700" 
d="M365 -3q-75 0 -131.5 24.5t-95 67.5t-57.5 101t-19 126q0 41 10 80t30 72t49 58t67 37q2 49 46 79.5t132 30.5q85 0 140.5 -37.5t88.5 -103.5q50 37 76 96q2 3 4.5 1.5t1.5 -3.5q-14 -30 -34.5 -55t-44.5 -44q41 -87 41 -211q0 -71 -20 -129t-59 -100q-40 -45 -97 -67.5
t-128 -22.5zM218 556q-33 -10 -60.5 -32t-47.5 -53.5t-31 -71t-11 -83.5q0 -72 20.5 -130t59 -98.5t93.5 -62.5t124 -22t124 22t94 62.5t59.5 98.5t20.5 130q0 121 -40 207q-45 -35 -104 -51.5t-116 -16.5q-26 0 -57.5 3.5t-59 14.5t-46.5 31t-22 52zM224 558
q2 -47 48.5 -72t130.5 -25q27 0 55.5 4t57 12t55 20.5t49.5 30.5q-33 71 -91 105t-133 34q-79 0 -124.5 -27.5t-47.5 -75.5q22 6 46 6q47 0 80.5 -9.5t62.5 -31.5q2 -2 0 -4q-3 -3 -4 -1q-28 21 -61 30.5t-78 9.5q-24 0 -46 -6zM487 756q0 -6 -4.5 -10.5t-10.5 -4.5
t-10.5 4.5t-4.5 10.5t4.5 10.5t10.5 4.5t10.5 -4.5t4.5 -10.5zM316 756q0 -6 -4.5 -10.5t-10.5 -4.5t-10.5 4.5t-4.5 10.5t4.5 10.5t10.5 4.5t10.5 -4.5t4.5 -10.5z" />
    <glyph glyph-name="multiply" unicode="&#xd7;" horiz-adv-x="432" 
d="M382 481q2 2 4 0t0 -4l-166 -166l166 -165q2 -2 0 -4t-4 0l-166 165l-166 -165q-2 -2 -4 0t0 4l166 165l-166 166q-2 2 0 4t4 0l166 -166z" />
    <glyph glyph-name="Oslash" unicode="&#xd8;" horiz-adv-x="700" 
d="M365 -3q-75 0 -131.5 24.5t-95 67.5t-57.5 101t-19 126q0 41 10 80t30 72t49 58t67 37q2 49 46 79.5t132 30.5q85 0 140.5 -37.5t88.5 -103.5q50 37 76 96q2 3 4.5 1.5t1.5 -3.5q-14 -30 -34.5 -55t-44.5 -44q41 -87 41 -211q0 -71 -20 -129t-59 -100q-40 -45 -97 -67.5
t-128 -22.5zM218 556q-33 -10 -60.5 -32t-47.5 -53.5t-31 -71t-11 -83.5q0 -72 20.5 -130t59 -98.5t93.5 -62.5t124 -22t124 22t94 62.5t59.5 98.5t20.5 130q0 121 -40 207q-45 -35 -104 -51.5t-116 -16.5q-26 0 -57.5 3.5t-59 14.5t-46.5 31t-22 52zM224 558
q2 -47 48.5 -72t130.5 -25q27 0 55.5 4t57 12t55 20.5t49.5 30.5q-33 71 -91 105t-133 34q-79 0 -124.5 -27.5t-47.5 -75.5q22 6 46 6q47 0 80.5 -9.5t62.5 -31.5q2 -2 0 -4q-3 -3 -4 -1q-28 21 -61 30.5t-78 9.5q-24 0 -46 -6zM534 721q2 3 4.5 1.5t1.5 -3.5l-342 -751
q-2 -3 -5 -1.5t-1 4.5z" />
    <glyph glyph-name="Ugrave" unicode="&#xd9;" horiz-adv-x="655" 
d="M663 -1q-25 60 -46.5 142.5t-34.5 177.5q-15 -57 -40 -114.5t-62 -103.5t-86 -75t-112 -29q-96 0 -138 65t-42 195v336q0 25 -6 39.5t-15.5 22t-21 10t-21.5 2.5q-26 0 -42.5 -14.5t-16.5 -38.5q0 -19 13 -35t39 -16q10 0 19 3.5t14 7.5q2 2 4 -0.5t-1 -4.5
q-6 -5 -15.5 -8.5t-20.5 -3.5q-29 0 -43.5 18t-14.5 39q0 23 16.5 41t48.5 18q70 0 70 -80v-335q0 -60 9 -107.5t29 -80t53.5 -50t82.5 -17.5q65 0 114.5 31t85.5 79.5t60 107t38 113.5q-9 70 -14 142t-5 143q0 34 11.5 44t22.5 10q31 0 31 -53q0 -21 -2 -52.5t-6.5 -69
t-12 -79.5t-19.5 -85q12 -91 33 -178t50 -155q2 -3 -1 -4.5t-5 2.5zM595 667q-28 0 -28 -48q0 -60 4.5 -128.5t12.5 -140.5q21 83 28.5 155.5t7.5 114.5q0 31 -8.5 39t-16.5 8zM200 817q-2 2 0 4.5t4 0.5l148 -114q3 -2 1 -4.5t-4 -0.5z" />
    <glyph glyph-name="Uacute" unicode="&#xda;" horiz-adv-x="655" 
d="M663 -1q-25 60 -46.5 142.5t-34.5 177.5q-15 -57 -40 -114.5t-62 -103.5t-86 -75t-112 -29q-96 0 -138 65t-42 195v336q0 25 -6 39.5t-15.5 22t-21 10t-21.5 2.5q-26 0 -42.5 -14.5t-16.5 -38.5q0 -19 13 -35t39 -16q10 0 19 3.5t14 7.5q2 2 4 -0.5t-1 -4.5
q-6 -5 -15.5 -8.5t-20.5 -3.5q-29 0 -43.5 18t-14.5 39q0 23 16.5 41t48.5 18q70 0 70 -80v-335q0 -60 9 -107.5t29 -80t53.5 -50t82.5 -17.5q65 0 114.5 31t85.5 79.5t60 107t38 113.5q-9 70 -14 142t-5 143q0 34 11.5 44t22.5 10q31 0 31 -53q0 -21 -2 -52.5t-6.5 -69
t-12 -79.5t-19.5 -85q12 -91 33 -178t50 -155q2 -3 -1 -4.5t-5 2.5zM595 667q-28 0 -28 -48q0 -60 4.5 -128.5t12.5 -140.5q21 83 28.5 155.5t7.5 114.5q0 31 -8.5 39t-16.5 8zM460 822q2 2 3.5 -0.5t-0.5 -4.5l-148 -114q-2 -2 -4.5 0.5t1.5 4.5z" />
    <glyph glyph-name="Ucircumflex" unicode="&#xdb;" horiz-adv-x="655" 
d="M663 -1q-25 60 -46.5 142.5t-34.5 177.5q-15 -57 -40 -114.5t-62 -103.5t-86 -75t-112 -29q-96 0 -138 65t-42 195v336q0 25 -6 39.5t-15.5 22t-21 10t-21.5 2.5q-26 0 -42.5 -14.5t-16.5 -38.5q0 -19 13 -35t39 -16q10 0 19 3.5t14 7.5q2 2 4 -0.5t-1 -4.5
q-6 -5 -15.5 -8.5t-20.5 -3.5q-29 0 -43.5 18t-14.5 39q0 23 16.5 41t48.5 18q70 0 70 -80v-335q0 -60 9 -107.5t29 -80t53.5 -50t82.5 -17.5q65 0 114.5 31t85.5 79.5t60 107t38 113.5q-9 70 -14 142t-5 143q0 34 11.5 44t22.5 10q31 0 31 -53q0 -21 -2 -52.5t-6.5 -69
t-12 -79.5t-19.5 -85q12 -91 33 -178t50 -155q2 -3 -1 -4.5t-5 2.5zM595 667q-28 0 -28 -48q0 -60 4.5 -128.5t12.5 -140.5q21 83 28.5 155.5t7.5 114.5q0 31 -8.5 39t-16.5 8zM333 815l-96 -112q-2 -2 -4 0t0 4l98 114q2 2 4 0l98 -114q2 -2 0 -4t-4 0z" />
    <glyph glyph-name="Udieresis" unicode="&#xdc;" horiz-adv-x="655" 
d="M663 -1q-25 60 -46.5 142.5t-34.5 177.5q-15 -57 -40 -114.5t-62 -103.5t-86 -75t-112 -29q-96 0 -138 65t-42 195v336q0 25 -6 39.5t-15.5 22t-21 10t-21.5 2.5q-26 0 -42.5 -14.5t-16.5 -38.5q0 -19 13 -35t39 -16q10 0 19 3.5t14 7.5q2 2 4 -0.5t-1 -4.5
q-6 -5 -15.5 -8.5t-20.5 -3.5q-29 0 -43.5 18t-14.5 39q0 23 16.5 41t48.5 18q70 0 70 -80v-335q0 -60 9 -107.5t29 -80t53.5 -50t82.5 -17.5q65 0 114.5 31t85.5 79.5t60 107t38 113.5q-9 70 -14 142t-5 143q0 34 11.5 44t22.5 10q31 0 31 -53q0 -21 -2 -52.5t-6.5 -69
t-12 -79.5t-19.5 -85q12 -91 33 -178t50 -155q2 -3 -1 -4.5t-5 2.5zM595 667q-28 0 -28 -48q0 -60 4.5 -128.5t12.5 -140.5q21 83 28.5 155.5t7.5 114.5q0 31 -8.5 39t-16.5 8zM444 757q0 -6 -4.5 -10.5t-10.5 -4.5t-10.5 4.5t-4.5 10.5t4.5 10.5t10.5 4.5t10.5 -4.5
t4.5 -10.5zM273 757q0 -6 -4.5 -10.5t-10.5 -4.5t-10.5 4.5t-4.5 10.5t4.5 10.5t10.5 4.5t10.5 -4.5t4.5 -10.5z" />
    <glyph glyph-name="Yacute" unicode="&#xdd;" horiz-adv-x="625" 
d="M315 -3q-67 0 -114.5 10t-78 26.5t-45 37.5t-14.5 42q0 25 15.5 39.5t38.5 14.5q21 0 35.5 -12t16.5 -32q0 -4 -3 -4t-3 3q-2 17 -14.5 28t-31.5 11q-17 0 -32.5 -10.5t-15.5 -37.5q0 -22 16 -42t47 -35t77 -24t106 -9q55 0 102 11t81.5 34t54 58.5t19.5 85.5
q0 63 -10.5 123.5t-20.5 116.5q-39 -84 -103 -129t-155 -45q-87 0 -135 40.5t-48 122.5v172q0 74 -67 74q-27 0 -43.5 -15.5t-16.5 -37.5q0 -19 13.5 -35t39.5 -16q10 0 19 3.5t14 7.5q2 2 4 0t0 -4q-6 -5 -16 -9t-21 -4q-29 0 -44 18t-15 39q0 26 18.5 42.5t47.5 16.5
q40 0 56.5 -22.5t16.5 -57.5v-172q0 -76 44.5 -116.5t132.5 -40.5q52 0 93 14.5t72 39.5t53.5 57.5t37.5 67.5q-8 42 -13 86t-5 90q0 54 31 54q29 0 29 -53q0 -47 -9.5 -92t-26.5 -86q11 -61 22 -124t11 -126q0 -93 -68 -144t-195 -51zM552 667q-25 0 -25 -48q0 -43 4.5 -84
t11.5 -82q17 45 24.5 88.5t7.5 78.5q0 18 -3 27.5t-6.5 14t-7.5 5t-6 0.5zM432 822q2 2 3.5 -0.5t-0.5 -4.5l-148 -114q-2 -2 -4.5 0.5t1.5 4.5z" />
    <glyph glyph-name="Thorn" unicode="&#xde;" horiz-adv-x="530" 
d="M90 509q-23 16 -32.5 43.5t-9.5 67.5q0 21 4 37t20 16q8 0 16 -10t8 -43v-107q12 -8 32 -8q40 0 78 8.5t86 8.5q208 0 208 -198q0 -95 -60.5 -146t-169.5 -51q-76 0 -110 23t-34 52q0 15 9.5 24t25.5 9q32 0 37 -27q1 -5 -2.5 -5t-3.5 3q0 6 -6.5 14.5t-24.5 8.5
q-11 0 -20 -6t-9 -21q0 -13 7 -25.5t23.5 -22t43 -15.5t64.5 -6q107 0 165.5 49.5t58.5 141.5q0 192 -202 192q-24 0 -45 -2.5t-40.5 -6t-38.5 -6t-40 -2.5q-19 0 -32 7v-506q0 -3 -3 -3t-3 3v509zM72 667q-9 0 -13.5 -10.5t-4.5 -36.5q0 -76 36 -103v103q0 7 -0.5 15
t-2.5 15t-5.5 12t-9.5 5z" />
    <glyph glyph-name="germandbls" unicode="&#xdf;" horiz-adv-x="560" 
d="M108 318h-65q-3 0 -3 3t3 3h65v264q0 78 40 121t111 43t111.5 -26t40.5 -71q0 -29 -12.5 -52.5t-31.5 -44t-41 -38.5t-41 -36.5t-31.5 -38.5t-12.5 -43q0 -32 20 -49t50.5 -29t66 -23t66 -30.5t50.5 -51t20 -84.5q0 -31 -13 -56.5t-35.5 -43.5t-54 -28t-68.5 -10
q-22 0 -46.5 3.5t-47.5 10.5t-42.5 17.5t-31.5 25.5q-2 3 0.5 4.5t4.5 -0.5q11 -14 30 -24.5t41.5 -17t46.5 -10t45 -3.5q37 0 67.5 10t52.5 27.5t33.5 41.5t11.5 53q0 52 -20 83t-50.5 49.5t-66 29.5t-66 23t-50.5 30.5t-20 51.5q0 24 12.5 44.5t31.5 39.5t41 37t41 38
t31.5 43t12.5 51q0 42 -39 66.5t-107 24.5q-69 0 -107 -41.5t-38 -116.5v-589q0 -3 -3 -3t-3 3v319z" />
    <glyph glyph-name="agrave" unicode="&#xe0;" horiz-adv-x="483" 
d="M413 -2q-39 59 -57 149q-11 -29 -26.5 -56t-36.5 -48t-47.5 -33.5t-59.5 -12.5q-38 0 -65.5 13.5t-45.5 36.5t-26.5 52t-8.5 61q0 37 11.5 67.5t32.5 52t50 33t64 11.5q19 0 39.5 -3.5t37 -12t27 -23.5t10.5 -37q0 -23 -13.5 -35.5t-33.5 -12.5q-19 0 -31.5 11.5
t-14.5 28.5q0 3 3 3t3 -3q2 -15 12.5 -24.5t27.5 -9.5q14 0 27.5 9.5t13.5 32.5q0 33 -28 51.5t-80 18.5q-33 0 -61 -11t-48.5 -32t-31.5 -50t-11 -65q0 -72 38 -114.5t102 -42.5q34 0 61.5 14t48 36.5t35 50t22.5 53.5q-8 40 -10 75.5t-2 59.5q0 22 8 27t13 5q8 0 15 -7.5
t7 -24.5q0 -18 -5 -55.5t-19 -80.5q7 -38 21.5 -80t36.5 -74q2 -3 -0.5 -5t-4.5 1zM362 318q-10 0 -12.5 -9t-2.5 -17q0 -20 2 -52.5t8 -70.5q13 39 17 72.5t4 50.5q0 26 -16 26zM104 487q-2 2 0 4.5t4 0.5l148 -114q3 -2 1 -4.5t-4 -0.5z" />
    <glyph glyph-name="aacute" unicode="&#xe1;" horiz-adv-x="483" 
d="M413 -2q-39 59 -57 149q-11 -29 -26.5 -56t-36.5 -48t-47.5 -33.5t-59.5 -12.5q-38 0 -65.5 13.5t-45.5 36.5t-26.5 52t-8.5 61q0 37 11.5 67.5t32.5 52t50 33t64 11.5q19 0 39.5 -3.5t37 -12t27 -23.5t10.5 -37q0 -23 -13.5 -35.5t-33.5 -12.5q-19 0 -31.5 11.5
t-14.5 28.5q0 3 3 3t3 -3q2 -15 12.5 -24.5t27.5 -9.5q14 0 27.5 9.5t13.5 32.5q0 33 -28 51.5t-80 18.5q-33 0 -61 -11t-48.5 -32t-31.5 -50t-11 -65q0 -72 38 -114.5t102 -42.5q34 0 61.5 14t48 36.5t35 50t22.5 53.5q-8 40 -10 75.5t-2 59.5q0 22 8 27t13 5q8 0 15 -7.5
t7 -24.5q0 -18 -5 -55.5t-19 -80.5q7 -38 21.5 -80t36.5 -74q2 -3 -0.5 -5t-4.5 1zM362 318q-10 0 -12.5 -9t-2.5 -17q0 -20 2 -52.5t8 -70.5q13 39 17 72.5t4 50.5q0 26 -16 26zM344 497q2 2 3.5 -0.5t-0.5 -4.5l-148 -114q-2 -2 -4.5 0.5t1.5 4.5z" />
    <glyph glyph-name="acircumflex" unicode="&#xe2;" horiz-adv-x="483" 
d="M413 -2q-39 59 -57 149q-11 -29 -26.5 -56t-36.5 -48t-47.5 -33.5t-59.5 -12.5q-38 0 -65.5 13.5t-45.5 36.5t-26.5 52t-8.5 61q0 37 11.5 67.5t32.5 52t50 33t64 11.5q19 0 39.5 -3.5t37 -12t27 -23.5t10.5 -37q0 -23 -13.5 -35.5t-33.5 -12.5q-19 0 -31.5 11.5
t-14.5 28.5q0 3 3 3t3 -3q2 -15 12.5 -24.5t27.5 -9.5q14 0 27.5 9.5t13.5 32.5q0 33 -28 51.5t-80 18.5q-33 0 -61 -11t-48.5 -32t-31.5 -50t-11 -65q0 -72 38 -114.5t102 -42.5q34 0 61.5 14t48 36.5t35 50t22.5 53.5q-8 40 -10 75.5t-2 59.5q0 22 8 27t13 5q8 0 15 -7.5
t7 -24.5q0 -18 -5 -55.5t-19 -80.5q7 -38 21.5 -80t36.5 -74q2 -3 -0.5 -5t-4.5 1zM362 318q-10 0 -12.5 -9t-2.5 -17q0 -20 2 -52.5t8 -70.5q13 39 17 72.5t4 50.5q0 26 -16 26zM200 493l-96 -112q-2 -2 -4 0t0 4l98 114q2 2 4 0l98 -114q2 -2 0 -4t-4 0z" />
    <glyph glyph-name="atilde" unicode="&#xe3;" horiz-adv-x="483" 
d="M413 -2q-39 59 -57 149q-11 -29 -26.5 -56t-36.5 -48t-47.5 -33.5t-59.5 -12.5q-38 0 -65.5 13.5t-45.5 36.5t-26.5 52t-8.5 61q0 37 11.5 67.5t32.5 52t50 33t64 11.5q19 0 39.5 -3.5t37 -12t27 -23.5t10.5 -37q0 -23 -13.5 -35.5t-33.5 -12.5q-19 0 -31.5 11.5
t-14.5 28.5q0 3 3 3t3 -3q2 -15 12.5 -24.5t27.5 -9.5q14 0 27.5 9.5t13.5 32.5q0 33 -28 51.5t-80 18.5q-33 0 -61 -11t-48.5 -32t-31.5 -50t-11 -65q0 -72 38 -114.5t102 -42.5q34 0 61.5 14t48 36.5t35 50t22.5 53.5q-8 40 -10 75.5t-2 59.5q0 22 8 27t13 5q8 0 15 -7.5
t7 -24.5q0 -18 -5 -55.5t-19 -80.5q7 -38 21.5 -80t36.5 -74q2 -3 -0.5 -5t-4.5 1zM362 318q-10 0 -12.5 -9t-2.5 -17q0 -20 2 -52.5t8 -70.5q13 39 17 72.5t4 50.5q0 26 -16 26zM258 375q-13 0 -25 6t-24 14t-23.5 14t-24.5 6q-11 0 -22.5 -6t-24.5 -23q-2 -2 -4.5 0
t-0.5 4q25 32 55 31q13 -2 25 -7.5t23 -13.5q12 -8 23.5 -13.5t22.5 -5.5q27 -2 50 33q2 2 4.5 0.5t0.5 -4.5q-11 -16 -24.5 -25.5t-30.5 -9.5z" />
    <glyph glyph-name="adieresis" unicode="&#xe4;" horiz-adv-x="483" 
d="M413 -2q-39 59 -57 149q-11 -29 -26.5 -56t-36.5 -48t-47.5 -33.5t-59.5 -12.5q-38 0 -65.5 13.5t-45.5 36.5t-26.5 52t-8.5 61q0 37 11.5 67.5t32.5 52t50 33t64 11.5q19 0 39.5 -3.5t37 -12t27 -23.5t10.5 -37q0 -23 -13.5 -35.5t-33.5 -12.5q-19 0 -31.5 11.5
t-14.5 28.5q0 3 3 3t3 -3q2 -15 12.5 -24.5t27.5 -9.5q14 0 27.5 9.5t13.5 32.5q0 33 -28 51.5t-80 18.5q-33 0 -61 -11t-48.5 -32t-31.5 -50t-11 -65q0 -72 38 -114.5t102 -42.5q34 0 61.5 14t48 36.5t35 50t22.5 53.5q-8 40 -10 75.5t-2 59.5q0 22 8 27t13 5q8 0 15 -7.5
t7 -24.5q0 -18 -5 -55.5t-19 -80.5q7 -38 21.5 -80t36.5 -74q2 -3 -0.5 -5t-4.5 1zM362 318q-10 0 -12.5 -9t-2.5 -17q0 -20 2 -52.5t8 -70.5q13 39 17 72.5t4 50.5q0 26 -16 26zM312 386q0 -6 -4.5 -10.5t-10.5 -4.5t-10.5 4.5t-4.5 10.5t4.5 10.5t10.5 4.5t10.5 -4.5
t4.5 -10.5zM141 386q0 -6 -4.5 -10.5t-10.5 -4.5t-10.5 4.5t-4.5 10.5t4.5 10.5t10.5 4.5t10.5 -4.5t4.5 -10.5z" />
    <glyph glyph-name="aring" unicode="&#xe5;" horiz-adv-x="483" 
d="M413 -2q-39 59 -57 149q-11 -29 -26.5 -56t-36.5 -48t-47.5 -33.5t-59.5 -12.5q-38 0 -65.5 13.5t-45.5 36.5t-26.5 52t-8.5 61q0 37 11.5 67.5t32.5 52t50 33t64 11.5q19 0 39.5 -3.5t37 -12t27 -23.5t10.5 -37q0 -23 -13.5 -35.5t-33.5 -12.5q-19 0 -31.5 11.5
t-14.5 28.5q0 3 3 3t3 -3q2 -15 12.5 -24.5t27.5 -9.5q14 0 27.5 9.5t13.5 32.5q0 33 -28 51.5t-80 18.5q-33 0 -61 -11t-48.5 -32t-31.5 -50t-11 -65q0 -72 38 -114.5t102 -42.5q34 0 61.5 14t48 36.5t35 50t22.5 53.5q-8 40 -10 75.5t-2 59.5q0 22 8 27t13 5q8 0 15 -7.5
t7 -24.5q0 -18 -5 -55.5t-19 -80.5q7 -38 21.5 -80t36.5 -74q2 -3 -0.5 -5t-4.5 1zM362 318q-10 0 -12.5 -9t-2.5 -17q0 -20 2 -52.5t8 -70.5q13 39 17 72.5t4 50.5q0 26 -16 26zM208 375q-32 0 -54.5 22.5t-22.5 54.5t22.5 54.5t54.5 22.5t54.5 -22.5t22.5 -54.5
t-22.5 -54.5t-54.5 -22.5zM208 523q-29 0 -50 -20.5t-21 -50.5q0 -29 21 -50t50 -21t50 21t21 50q0 30 -21 50.5t-50 20.5z" />
    <glyph glyph-name="ae" unicode="&#xe6;" horiz-adv-x="671" 
d="M348 231q0 45 -31.5 66t-100.5 21q-62 0 -97 -17t-35 -47q0 -21 11 -32t31 -11q39 0 44 37q0 3 3 3t3 -3q-2 -20 -15 -31.5t-35 -11.5q-23 0 -35.5 13t-12.5 36q0 33 36.5 51.5t101.5 18.5q73 0 105.5 -22.5t32.5 -70.5v-17q14 51 55 80.5t102 29.5q39 0 62 -10.5
t35 -24.5t15.5 -29.5t3.5 -25.5q0 -32 -15.5 -47.5t-51.5 -17.5l-206 -8q1 -35 11.5 -64t29 -50t43.5 -32.5t55 -11.5t51.5 6t37 16t27 23.5t20.5 27.5q2 2 4.5 0.5t0.5 -3.5q-9 -15 -21 -29t-28.5 -24.5t-38.5 -16.5t-53 -6q-48 0 -83.5 27.5t-51.5 73.5q-12 -21 -32 -39.5
t-44.5 -32t-51.5 -21.5t-53 -8q-117 0 -117 82q0 28 12 45t33 26t49 12t60 3q12 0 28 -0.5t34 -1t36.5 0t35.5 2.5v65zM211 159q-30 0 -56.5 -2.5t-46 -11t-31 -24.5t-11.5 -42q0 -38 27 -57t84 -19q23 0 49 7t51 20.5t46 32.5t33 43q-8 27 -8 54q-38 -4 -71 -2.5t-66 1.5z
M511 318q-41 0 -71 -13t-49 -34.5t-28 -48.5t-9 -55l206 8q38 2 49.5 17.5t11.5 41.5q0 9 -3.5 23.5t-14.5 28t-33 23t-59 9.5z" />
    <glyph glyph-name="ccedilla" unicode="&#xe7;" horiz-adv-x="359" 
d="M198 -3q-39 0 -69 12.5t-49.5 35t-29.5 52t-10 64.5q0 36 11.5 66t32.5 51.5t50 33.5t64 12q25 0 47.5 -5t39.5 -14.5t27 -23.5t10 -33q0 -24 -13 -38t-35 -14q-21 0 -34.5 11.5t-16.5 31.5q-1 3 2 3.5t4 -2.5q6 -38 45 -38q20 0 31 12.5t11 33.5q0 32 -32 51t-86 19
q-33 0 -61 -11.5t-48.5 -32.5t-31.5 -50t-11 -63q0 -74 40.5 -116t111.5 -42q83 0 123 54q2 3 4.5 1.5t0.5 -4.5q-43 -57 -128 -57zM219 -136q-46 0 -70 29q-2 2 0 4t4 0q24 -27 66 -27q11 0 22.5 2t20.5 7.5t15 14t6 20.5q0 15 -8 23.5t-18.5 13t-21.5 5.5t-17 0q-4 0 -3 4
l10 40q1 2 4 1.5t2 -2.5l-9 -37q12 0 23.5 -2.5t21.5 -8t16 -15t6 -22.5q0 -23 -19 -36.5t-51 -13.5z" />
    <glyph glyph-name="egrave" unicode="&#xe8;" horiz-adv-x="363" 
d="M195 -3q-72 0 -113.5 44t-41.5 119q0 36 11.5 66.5t32.5 52t50 33.5t64 12q58 0 91 -22t33 -69q0 -34 -23 -48q-20 -14 -59 -17l-194 -16q3 -69 42.5 -109t106.5 -40q85 0 127 54q2 3 4 1t0 -4q-42 -57 -131 -57zM198 318q-33 0 -61 -11.5t-48.5 -32.5t-31.5 -50.5
t-11 -65.5l193 16q77 6 77 59q0 24 -9 40t-25 26t-37.5 14.5t-46.5 4.5zM88 490q-2 2 0 4.5t4 0.5l148 -114q3 -2 1 -4.5t-4 -0.5z" />
    <glyph glyph-name="eacute" unicode="&#xe9;" horiz-adv-x="363" 
d="M195 -3q-72 0 -113.5 44t-41.5 119q0 36 11.5 66.5t32.5 52t50 33.5t64 12q58 0 91 -22t33 -69q0 -34 -23 -48q-20 -14 -59 -17l-194 -16q3 -69 42.5 -109t106.5 -40q85 0 127 54q2 3 4 1t0 -4q-42 -57 -131 -57zM198 318q-33 0 -61 -11.5t-48.5 -32.5t-31.5 -50.5
t-11 -65.5l193 16q77 6 77 59q0 24 -9 40t-25 26t-37.5 14.5t-46.5 4.5zM298 498q2 2 3.5 -0.5t-0.5 -4.5l-148 -114q-2 -2 -4.5 0.5t1.5 4.5z" />
    <glyph glyph-name="ecircumflex" unicode="&#xea;" horiz-adv-x="363" 
d="M195 -3q-72 0 -113.5 44t-41.5 119q0 36 11.5 66.5t32.5 52t50 33.5t64 12q58 0 91 -22t33 -69q0 -34 -23 -48q-20 -14 -59 -17l-194 -16q3 -69 42.5 -109t106.5 -40q85 0 127 54q2 3 4 1t0 -4q-42 -57 -131 -57zM198 318q-33 0 -61 -11.5t-48.5 -32.5t-31.5 -50.5
t-11 -65.5l193 16q77 6 77 59q0 24 -9 40t-25 26t-37.5 14.5t-46.5 4.5zM199 485l-96 -112q-2 -2 -4 0t0 4l98 114q2 2 4 0l98 -114q2 -2 0 -4t-4 0z" />
    <glyph glyph-name="edieresis" unicode="&#xeb;" horiz-adv-x="363" 
d="M195 -3q-72 0 -113.5 44t-41.5 119q0 36 11.5 66.5t32.5 52t50 33.5t64 12q58 0 91 -22t33 -69q0 -34 -23 -48q-20 -14 -59 -17l-194 -16q3 -69 42.5 -109t106.5 -40q85 0 127 54q2 3 4 1t0 -4q-42 -57 -131 -57zM198 318q-33 0 -61 -11.5t-48.5 -32.5t-31.5 -50.5
t-11 -65.5l193 16q77 6 77 59q0 24 -9 40t-25 26t-37.5 14.5t-46.5 4.5zM297 377q0 -6 -4.5 -10.5t-10.5 -4.5t-10.5 4.5t-4.5 10.5t4.5 10.5t10.5 4.5t10.5 -4.5t4.5 -10.5zM126 377q0 -6 -4.5 -10.5t-10.5 -4.5t-10.5 4.5t-4.5 10.5t4.5 10.5t10.5 4.5t10.5 -4.5
t4.5 -10.5z" />
    <glyph glyph-name="igrave" unicode="&#xec;" horiz-adv-x="187" 
d="M17 492q-2 2 0 4.5t4 0.5l148 -114q3 -2 1 -4.5t-4 -0.5zM91 0q5 59 4.5 114.5t-1.5 111.5q-13 -10 -32 -19q-3 -2 -4 0.5t2 4.5q10 5 18 10.5t16 10.5q0 10 0.5 25.5t3.5 30t10 25t19 10.5q10 0 15 -6.5t5 -15.5q-1 -20 -15.5 -40t-31.5 -32q0 -13 0.5 -27.5t0.5 -30.5
q1 -39 0.5 -84.5t-4.5 -87.5q0 -4 -3 -3.5t-3 3.5zM127 318q-10 0 -15 -10t-7.5 -23.5t-3 -26.5t-0.5 -20q20 17 30 34t10 30q0 16 -14 16z" />
    <glyph glyph-name="iacute" unicode="&#xed;" horiz-adv-x="187" 
d="M216 497q2 2 3.5 -0.5t-0.5 -4.5l-148 -114q-2 -2 -4.5 0.5t1.5 4.5zM91 0q5 59 4.5 114.5t-1.5 111.5q-13 -10 -32 -19q-3 -2 -4 0.5t2 4.5q10 5 18 10.5t16 10.5q0 10 0.5 25.5t3.5 30t10 25t19 10.5q10 0 15 -6.5t5 -15.5q-1 -20 -15.5 -40t-31.5 -32q0 -13 0.5 -27.5
t0.5 -30.5q1 -39 0.5 -84.5t-4.5 -87.5q0 -4 -3 -3.5t-3 3.5zM127 318q-10 0 -15 -10t-7.5 -23.5t-3 -26.5t-0.5 -20q20 17 30 34t10 30q0 16 -14 16z" />
    <glyph glyph-name="icircumflex" unicode="&#xee;" horiz-adv-x="187" 
d="M111 493l-96 -112q-2 -2 -4 0t0 4l98 114q2 2 4 0l98 -114q2 -2 0 -4t-4 0zM91 0q5 59 4.5 114.5t-1.5 111.5q-13 -10 -32 -19q-3 -2 -4 0.5t2 4.5q10 5 18 10.5t16 10.5q0 10 0.5 25.5t3.5 30t10 25t19 10.5q10 0 15 -6.5t5 -15.5q-1 -20 -15.5 -40t-31.5 -32
q0 -13 0.5 -27.5t0.5 -30.5q1 -39 0.5 -84.5t-4.5 -87.5q0 -4 -3 -3.5t-3 3.5zM127 318q-10 0 -15 -10t-7.5 -23.5t-3 -26.5t-0.5 -20q20 17 30 34t10 30q0 16 -14 16z" />
    <glyph glyph-name="idieresis" unicode="&#xef;" horiz-adv-x="187" 
d="M179 376q0 -6 -4.5 -10.5t-10.5 -4.5t-10.5 4.5t-4.5 10.5t4.5 10.5t10.5 4.5t10.5 -4.5t4.5 -10.5zM68 377q0 -6 -4.5 -10.5t-10.5 -4.5t-10.5 4.5t-4.5 10.5t4.5 10.5t10.5 4.5t10.5 -4.5t4.5 -10.5zM91 0q5 59 4.5 114.5t-1.5 111.5q-13 -10 -32 -19q-3 -2 -4 0.5
t2 4.5q10 5 18 10.5t16 10.5q0 10 0.5 25.5t3.5 30t10 25t19 10.5q10 0 15 -6.5t5 -15.5q-1 -20 -15.5 -40t-31.5 -32q0 -13 0.5 -27.5t0.5 -30.5q1 -39 0.5 -84.5t-4.5 -87.5q0 -4 -3 -3.5t-3 3.5zM127 318q-10 0 -15 -10t-7.5 -23.5t-3 -26.5t-0.5 -20q20 17 30 34t10 30
q0 16 -14 16z" />
    <glyph glyph-name="eth" unicode="&#xf0;" horiz-adv-x="476" 
d="M365 678q2 2 4 0t0 -4l-65 -75q36 -31 61.5 -71.5t41.5 -87t23 -97t7 -101.5q-2 -245 -200 -245q-44 0 -80.5 14t-62.5 39.5t-40.5 61t-14.5 78.5q0 91 50.5 141t139.5 50q53 0 96.5 -26t71.5 -74q2 -3 -1 -4t-5 1q-24 46 -67 71.5t-95 25.5q-87 0 -135.5 -48.5
t-48.5 -136.5q0 -41 14 -75.5t39.5 -59.5t61 -38.5t77.5 -13.5q97 0 145.5 60.5t48.5 178.5q0 39 -5 85.5t-19.5 94.5t-40 93t-66.5 80l-60 -69q-2 -2 -4 0t0 4l60 68q-31 25 -70.5 43t-90.5 26q-3 1 -2 3.5t3 2.5q51 -8 91.5 -26t72.5 -44z" />
    <glyph glyph-name="ntilde" unicode="&#xf1;" horiz-adv-x="460" 
d="M401 -3q-18 0 -22.5 10.5t-4.5 23.5v153q0 134 -113 134q-28 0 -51 -14.5t-42 -38.5t-33.5 -53.5t-24.5 -59.5q5 -36 8 -68t3 -55q0 -17 -7 -24.5t-15 -7.5q-5 0 -13 5t-8 27q0 18 6 51.5t20 72.5q-8 45 -17.5 89t-21.5 78q-1 3 2 4t4 -2q11 -32 20.5 -73.5t16.5 -83.5
q9 25 23 53t33 51.5t43 39t54 15.5q35 0 58 -11.5t36.5 -31t19 -45t5.5 -52.5v-153q0 -16 5 -22t16 -6q7 0 15.5 3t14.5 11q2 2 4.5 0t0.5 -4q-7 -8 -17 -12t-18 -4zM105 139q-11 -35 -16 -64.5t-5 -45.5q0 -8 2.5 -17t12.5 -9q16 0 16 26q0 20 -2.5 49t-7.5 61zM295 375
q-13 0 -25 6t-24 14t-23.5 14t-24.5 6q-11 0 -22.5 -6t-24.5 -23q-2 -2 -4.5 0t-0.5 4q25 32 55 31q13 -2 25 -7.5t23 -13.5q12 -8 23.5 -13.5t22.5 -5.5q27 -2 50 33q2 2 4.5 0.5t0.5 -4.5q-11 -16 -24.5 -25.5t-30.5 -9.5z" />
    <glyph glyph-name="ograve" unicode="&#xf2;" 
d="M200 -3q-34 0 -63.5 11.5t-50.5 32.5t-33 49.5t-12 61.5q2 103 84 122q8 24 32 38t59 14q43 0 77 -25.5t49 -62.5q45 50 36 137q-1 4 2.5 3.5t3.5 -3.5q9 -90 -39 -143q15 -36 15 -80q0 -36 -13 -64.5t-35 -49t-51 -31t-61 -10.5zM124 267q-36 -8 -56.5 -38.5
t-20.5 -76.5q0 -32 11.5 -59.5t32 -47.5t48.5 -31t61 -11t61.5 11t49 31t32 47.5t11.5 59.5q0 41 -14 75q-17 -16 -34.5 -25.5t-34 -14.5t-30 -6.5t-21.5 -1.5q-29 0 -48 7.5t-30 19t-15.5 24t-4.5 23.5q0 4 0.5 7t1.5 7zM130 269q-2 -10 -2 -17q0 -11 5 -23t16 -21.5
t28.5 -16t42.5 -6.5q7 0 20.5 1.5t29.5 6t34 14t34 26.5q-17 40 -49 63.5t-73 23.5q-32 0 -54 -12t-30 -33q5 1 9.5 1h9.5q35 1 48.5 -16.5t2.5 -47.5q-1 -2 -4.5 -1.5t-1.5 4.5q12 30 -2 42.5t-43 12.5h-11t-10 -1zM106 492q-2 2 0 4.5t4 0.5l148 -114q3 -2 1 -4.5t-4 -0.5
z" />
    <glyph glyph-name="oacute" unicode="&#xf3;" 
d="M200 -3q-34 0 -63.5 11.5t-50.5 32.5t-33 49.5t-12 61.5q2 103 84 122q8 24 32 38t59 14q43 0 77 -25.5t49 -62.5q45 50 36 137q-1 4 2.5 3.5t3.5 -3.5q9 -90 -39 -143q15 -36 15 -80q0 -36 -13 -64.5t-35 -49t-51 -31t-61 -10.5zM124 267q-36 -8 -56.5 -38.5
t-20.5 -76.5q0 -32 11.5 -59.5t32 -47.5t48.5 -31t61 -11t61.5 11t49 31t32 47.5t11.5 59.5q0 41 -14 75q-17 -16 -34.5 -25.5t-34 -14.5t-30 -6.5t-21.5 -1.5q-29 0 -48 7.5t-30 19t-15.5 24t-4.5 23.5q0 4 0.5 7t1.5 7zM130 269q-2 -10 -2 -17q0 -11 5 -23t16 -21.5
t28.5 -16t42.5 -6.5q7 0 20.5 1.5t29.5 6t34 14t34 26.5q-17 40 -49 63.5t-73 23.5q-32 0 -54 -12t-30 -33q5 1 9.5 1h9.5q35 1 48.5 -16.5t2.5 -47.5q-1 -2 -4.5 -1.5t-1.5 4.5q12 30 -2 42.5t-43 12.5h-11t-10 -1zM336 496q2 2 3.5 -0.5t-0.5 -4.5l-148 -114
q-2 -2 -4.5 0.5t1.5 4.5z" />
    <glyph glyph-name="ocircumflex" unicode="&#xf4;" 
d="M200 -3q-34 0 -63.5 11.5t-50.5 32.5t-33 49.5t-12 61.5q2 103 84 122q8 24 32 38t59 14q43 0 77 -25.5t49 -62.5q45 50 36 137q-1 4 2.5 3.5t3.5 -3.5q9 -90 -39 -143q15 -36 15 -80q0 -36 -13 -64.5t-35 -49t-51 -31t-61 -10.5zM124 267q-36 -8 -56.5 -38.5
t-20.5 -76.5q0 -32 11.5 -59.5t32 -47.5t48.5 -31t61 -11t61.5 11t49 31t32 47.5t11.5 59.5q0 41 -14 75q-17 -16 -34.5 -25.5t-34 -14.5t-30 -6.5t-21.5 -1.5q-29 0 -48 7.5t-30 19t-15.5 24t-4.5 23.5q0 4 0.5 7t1.5 7zM130 269q-2 -10 -2 -17q0 -11 5 -23t16 -21.5
t28.5 -16t42.5 -6.5q7 0 20.5 1.5t29.5 6t34 14t34 26.5q-17 40 -49 63.5t-73 23.5q-32 0 -54 -12t-30 -33q5 1 9.5 1h9.5q35 1 48.5 -16.5t2.5 -47.5q-1 -2 -4.5 -1.5t-1.5 4.5q12 30 -2 42.5t-43 12.5h-11t-10 -1zM222 491l-96 -112q-2 -2 -4 0t0 4l98 114q2 2 4 0
l98 -114q2 -2 0 -4t-4 0z" />
    <glyph glyph-name="otilde" unicode="&#xf5;" 
d="M200 -3q-34 0 -63.5 11.5t-50.5 32.5t-33 49.5t-12 61.5q2 103 84 122q8 24 32 38t59 14q43 0 77 -25.5t49 -62.5q45 50 36 137q-1 4 2.5 3.5t3.5 -3.5q9 -90 -39 -143q15 -36 15 -80q0 -36 -13 -64.5t-35 -49t-51 -31t-61 -10.5zM124 267q-36 -8 -56.5 -38.5
t-20.5 -76.5q0 -32 11.5 -59.5t32 -47.5t48.5 -31t61 -11t61.5 11t49 31t32 47.5t11.5 59.5q0 41 -14 75q-17 -16 -34.5 -25.5t-34 -14.5t-30 -6.5t-21.5 -1.5q-29 0 -48 7.5t-30 19t-15.5 24t-4.5 23.5q0 4 0.5 7t1.5 7zM130 269q-2 -10 -2 -17q0 -11 5 -23t16 -21.5
t28.5 -16t42.5 -6.5q7 0 20.5 1.5t29.5 6t34 14t34 26.5q-17 40 -49 63.5t-73 23.5q-32 0 -54 -12t-30 -33q5 1 9.5 1h9.5q35 1 48.5 -16.5t2.5 -47.5q-1 -2 -4.5 -1.5t-1.5 4.5q12 30 -2 42.5t-43 12.5h-11t-10 -1zM269 385q-13 0 -25 6t-24 14t-23.5 14t-24.5 6
q-11 0 -22.5 -6t-24.5 -23q-2 -2 -4.5 0t-0.5 4q25 32 55 31q13 -2 25 -7.5t23 -13.5q12 -8 23.5 -13.5t22.5 -5.5q27 -2 50 33q2 2 4.5 0.5t0.5 -4.5q-11 -16 -24.5 -25.5t-30.5 -9.5z" />
    <glyph glyph-name="odieresis" unicode="&#xf6;" 
d="M200 -3q-34 0 -63.5 11.5t-50.5 32.5t-33 49.5t-12 61.5q2 103 84 122q8 24 32 38t59 14q43 0 77 -25.5t49 -62.5q45 50 36 137q-1 4 2.5 3.5t3.5 -3.5q9 -90 -39 -143q15 -36 15 -80q0 -36 -13 -64.5t-35 -49t-51 -31t-61 -10.5zM124 267q-36 -8 -56.5 -38.5
t-20.5 -76.5q0 -32 11.5 -59.5t32 -47.5t48.5 -31t61 -11t61.5 11t49 31t32 47.5t11.5 59.5q0 41 -14 75q-17 -16 -34.5 -25.5t-34 -14.5t-30 -6.5t-21.5 -1.5q-29 0 -48 7.5t-30 19t-15.5 24t-4.5 23.5q0 4 0.5 7t1.5 7zM130 269q-2 -10 -2 -17q0 -11 5 -23t16 -21.5
t28.5 -16t42.5 -6.5q7 0 20.5 1.5t29.5 6t34 14t34 26.5q-17 40 -49 63.5t-73 23.5q-32 0 -54 -12t-30 -33q5 1 9.5 1h9.5q35 1 48.5 -16.5t2.5 -47.5q-1 -2 -4.5 -1.5t-1.5 4.5q12 30 -2 42.5t-43 12.5h-11t-10 -1zM313 376q0 -6 -4.5 -10.5t-10.5 -4.5t-10.5 4.5
t-4.5 10.5t4.5 10.5t10.5 4.5t10.5 -4.5t4.5 -10.5zM142 376q0 -6 -4.5 -10.5t-10.5 -4.5t-10.5 4.5t-4.5 10.5t4.5 10.5t10.5 4.5t10.5 -4.5t4.5 -10.5z" />
    <glyph glyph-name="divide" unicode="&#xf7;" horiz-adv-x="291" 
d="M53 315q-3 0 -3 3t3 3h185q3 0 3 -3t-3 -3h-185zM160 209q0 -6 -4.5 -10.5t-10.5 -4.5t-10.5 4.5t-4.5 10.5t4.5 10.5t10.5 4.5t10.5 -4.5t4.5 -10.5zM160 427q0 -6 -4.5 -10.5t-10.5 -4.5t-10.5 4.5t-4.5 10.5t4.5 10.5t10.5 4.5t10.5 -4.5t4.5 -10.5z" />
    <glyph glyph-name="oslash" unicode="&#xf8;" 
d="M200 -3q-19 1 -35.5 4t-32.5 10l-45 -100q-2 -3 -5 -1.5t-1 4.5l45 99q-38 19 -62 55t-23 84q1 50 23 82t61 40q8 24 32 38t59 14q28 0 49 -10l43 95q2 3 5 2t1 -4l-44 -95q25 -12 43.5 -32t28.5 -44q45 50 36 137q-1 4 2.5 3.5t3.5 -3.5q9 -90 -39 -143q15 -36 15 -80
q0 -36 -13 -64.5t-35 -49t-51 -31t-61 -10.5zM200 3q33 0 61.5 11t49 31t32 47.5t11.5 59.5q0 41 -14 75q-17 -17 -35 -26t-35 -14t-30.5 -6.5t-19.5 -1.5h-11l-75 -163q29 -13 66 -13zM124 267q-36 -8 -56.5 -38.5t-20.5 -76.5t22 -81t60 -53l73 161q-18 2 -34 9t-27 18.5
t-16 27t-1 33.5zM130 269q-3 -19 2 -34t15.5 -25.5t25.5 -17t32 -7.5l57 126q-21 9 -46 9q-32 0 -54 -12t-30 -33q5 1 9.5 1h9.5q35 1 48.5 -16.5t2.5 -47.5q-1 -2 -4.5 -1.5t-1.5 4.5q12 30 -2 42.5t-43 12.5h-11t-10 -1zM220 185q6 0 19.5 1.5t30 6.5t34.5 14t34 26
q-23 53 -70 75l-57 -123h9z" />
    <glyph glyph-name="ugrave" unicode="&#xf9;" horiz-adv-x="472" 
d="M401 -1q-14 26 -24 60.5t-17 73.5q-11 -29 -26 -53.5t-35 -43t-45 -29t-56 -10.5q-110 0 -110 129v101q-14 -11 -34 -20q-2 -2 -3.5 0.5t1.5 4.5q11 5 19.5 10.5t16.5 12.5q0 40 3.5 64.5t27.5 24.5q11 0 16 -7t5 -15q0 -20 -15 -39.5t-31 -30.5v-106q0 -59 25 -91
t79 -32q33 0 58.5 12.5t45 33t33.5 45.5t23 51q-12 70 -12 147q0 18 7.5 25t15.5 7t15 -7.5t7 -24.5q0 -22 -5.5 -62.5t-21.5 -85.5q7 -42 18 -79t25 -64q2 -2 -1 -3.5t-5 1.5zM369 318q-17 0 -17 -26q0 -35 2.5 -69t7.5 -66q14 42 18.5 78.5t4.5 56.5q0 26 -16 26zM119 318
q-18 0 -21.5 -20t-3.5 -59q20 17 30 33.5t10 29.5q0 16 -15 16zM135 490q-2 2 0 4.5t4 0.5l148 -114q3 -2 1 -4.5t-4 -0.5z" />
    <glyph glyph-name="uacute" unicode="&#xfa;" horiz-adv-x="472" 
d="M401 -1q-14 26 -24 60.5t-17 73.5q-11 -29 -26 -53.5t-35 -43t-45 -29t-56 -10.5q-110 0 -110 129v101q-14 -11 -34 -20q-2 -2 -3.5 0.5t1.5 4.5q11 5 19.5 10.5t16.5 12.5q0 40 3.5 64.5t27.5 24.5q11 0 16 -7t5 -15q0 -20 -15 -39.5t-31 -30.5v-106q0 -59 25 -91
t79 -32q33 0 58.5 12.5t45 33t33.5 45.5t23 51q-12 70 -12 147q0 18 7.5 25t15.5 7t15 -7.5t7 -24.5q0 -22 -5.5 -62.5t-21.5 -85.5q7 -42 18 -79t25 -64q2 -2 -1 -3.5t-5 1.5zM369 318q-17 0 -17 -26q0 -35 2.5 -69t7.5 -66q14 42 18.5 78.5t4.5 56.5q0 26 -16 26zM119 318
q-18 0 -21.5 -20t-3.5 -59q20 17 30 33.5t10 29.5q0 16 -15 16zM355 500q2 2 3.5 -0.5t-0.5 -4.5l-148 -114q-2 -2 -4.5 0.5t1.5 4.5z" />
    <glyph glyph-name="ucircumflex" unicode="&#xfb;" horiz-adv-x="472" 
d="M401 -1q-14 26 -24 60.5t-17 73.5q-11 -29 -26 -53.5t-35 -43t-45 -29t-56 -10.5q-110 0 -110 129v101q-14 -11 -34 -20q-2 -2 -3.5 0.5t1.5 4.5q11 5 19.5 10.5t16.5 12.5q0 40 3.5 64.5t27.5 24.5q11 0 16 -7t5 -15q0 -20 -15 -39.5t-31 -30.5v-106q0 -59 25 -91
t79 -32q33 0 58.5 12.5t45 33t33.5 45.5t23 51q-12 70 -12 147q0 18 7.5 25t15.5 7t15 -7.5t7 -24.5q0 -22 -5.5 -62.5t-21.5 -85.5q7 -42 18 -79t25 -64q2 -2 -1 -3.5t-5 1.5zM369 318q-17 0 -17 -26q0 -35 2.5 -69t7.5 -66q14 42 18.5 78.5t4.5 56.5q0 26 -16 26zM119 318
q-18 0 -21.5 -20t-3.5 -59q20 17 30 33.5t10 29.5q0 16 -15 16zM241 495l-96 -112q-2 -2 -4 0t0 4l98 114q2 2 4 0l98 -114q2 -2 0 -4t-4 0z" />
    <glyph glyph-name="udieresis" unicode="&#xfc;" horiz-adv-x="472" 
d="M401 -1q-14 26 -24 60.5t-17 73.5q-11 -29 -26 -53.5t-35 -43t-45 -29t-56 -10.5q-110 0 -110 129v101q-14 -11 -34 -20q-2 -2 -3.5 0.5t1.5 4.5q11 5 19.5 10.5t16.5 12.5q0 40 3.5 64.5t27.5 24.5q11 0 16 -7t5 -15q0 -20 -15 -39.5t-31 -30.5v-106q0 -59 25 -91
t79 -32q33 0 58.5 12.5t45 33t33.5 45.5t23 51q-12 70 -12 147q0 18 7.5 25t15.5 7t15 -7.5t7 -24.5q0 -22 -5.5 -62.5t-21.5 -85.5q7 -42 18 -79t25 -64q2 -2 -1 -3.5t-5 1.5zM369 318q-17 0 -17 -26q0 -35 2.5 -69t7.5 -66q14 42 18.5 78.5t4.5 56.5q0 26 -16 26zM119 318
q-18 0 -21.5 -20t-3.5 -59q20 17 30 33.5t10 29.5q0 16 -15 16zM342 376q0 -6 -4.5 -10.5t-10.5 -4.5t-10.5 4.5t-4.5 10.5t4.5 10.5t10.5 4.5t10.5 -4.5t4.5 -10.5zM171 376q0 -6 -4.5 -10.5t-10.5 -4.5t-10.5 4.5t-4.5 10.5t4.5 10.5t10.5 4.5t10.5 -4.5t4.5 -10.5z" />
    <glyph glyph-name="yacute" unicode="&#xfd;" horiz-adv-x="472" 
d="M210 -253q-73 0 -116 27t-43 79q0 14 3 29t11 31q2 3 4.5 1.5t1.5 -3.5q-14 -32 -14 -58q0 -27 12.5 -46t33 -31t48 -17.5t59.5 -5.5q82 0 128 44.5t46 123.5q0 42 -6 99l-12 114q-23 -60 -62 -98.5t-99 -38.5t-85.5 34.5t-25.5 94.5v101l-16 -10t-18 -10q-3 -2 -4.5 0.5
t1.5 4.5q11 5 20 10.5t17 12.5q0 40 3.5 64.5t27.5 24.5q11 0 15.5 -6.5t4.5 -15.5q0 -20 -15 -39t-30 -31v-106q0 -21 4 -43t15.5 -39.5t32 -29t53.5 -11.5q31 0 56 11.5t44.5 31.5t34 46t24.5 55q-5 45 -9 83.5t-4 61.5q0 18 7.5 25t15.5 7t15 -7.5t7 -24.5
q0 -21 -5.5 -61t-20.5 -84q2 -14 5.5 -42t6.5 -61t5.5 -66t2.5 -57q0 -44 -14 -76.5t-38 -54.5t-57 -32.5t-71 -10.5zM374 318q-17 0 -17 -26q0 -21 3.5 -55.5t8.5 -75.5q12 40 16.5 75.5t4.5 55.5q0 26 -16 26zM125 318q-18 0 -21.5 -20.5t-3.5 -58.5q19 17 29 33.5
t10 29.5q0 16 -14 16zM371 492q2 2 3.5 -0.5t-0.5 -4.5l-148 -114q-2 -2 -4.5 0.5t1.5 4.5z" />
    <glyph glyph-name="thorn" unicode="&#xfe;" horiz-adv-x="487" 
d="M101 385q-3 -6 -9.5 -20t-13.5 -28.5t-13 -26.5t-8 -15q-2 -2 -4 -0.5t0 4.5q13 24 25 49.5t23 51.5v307q0 25 8.5 35.5t28.5 10.5q18 0 29 -13.5t11 -37.5q0 -32 -5 -68.5t-14 -76t-22.5 -79.5t-29.5 -79v-323q10 53 30.5 99.5t47.5 81t59 54.5t65 20q65 1 101.5 -42.5
t36.5 -120.5q0 -37 -12.5 -67.5t-34.5 -53t-52 -35t-65 -12.5q-53 0 -83.5 20t-30.5 57q0 21 13.5 34t34.5 13q19 0 32 -11.5t13 -28.5q0 -4 -2.5 -4t-2.5 3q0 9 -9.5 22t-30.5 13q-14 0 -28 -9t-14 -32q0 -34 28.5 -52.5t79.5 -18.5q35 0 64 12t50 33.5t32.5 51t11.5 65.5
q0 74 -35 115t-97 42q-39 0 -75 -28t-64.5 -73t-45.5 -102t-17 -115v-250q0 -3 -3 -3t-3 3v628zM138 747q-15 0 -23 -7t-8 -33v-292q31 76 48 150.5t17 136.5q0 21 -9 33t-25 12z" />
    <glyph glyph-name="ydieresis" unicode="&#xff;" horiz-adv-x="472" 
d="M210 -253q-73 0 -116 27t-43 79q0 14 3 29t11 31q2 3 4.5 1.5t1.5 -3.5q-14 -32 -14 -58q0 -27 12.5 -46t33 -31t48 -17.5t59.5 -5.5q82 0 128 44.5t46 123.5q0 42 -6 99l-12 114q-23 -60 -62 -98.5t-99 -38.5t-85.5 34.5t-25.5 94.5v101l-16 -10t-18 -10q-3 -2 -4.5 0.5
t1.5 4.5q11 5 20 10.5t17 12.5q0 40 3.5 64.5t27.5 24.5q11 0 15.5 -6.5t4.5 -15.5q0 -20 -15 -39t-30 -31v-106q0 -21 4 -43t15.5 -39.5t32 -29t53.5 -11.5q31 0 56 11.5t44.5 31.5t34 46t24.5 55q-5 45 -9 83.5t-4 61.5q0 18 7.5 25t15.5 7t15 -7.5t7 -24.5
q0 -21 -5.5 -61t-20.5 -84q2 -14 5.5 -42t6.5 -61t5.5 -66t2.5 -57q0 -44 -14 -76.5t-38 -54.5t-57 -32.5t-71 -10.5zM374 318q-17 0 -17 -26q0 -21 3.5 -55.5t8.5 -75.5q12 40 16.5 75.5t4.5 55.5q0 26 -16 26zM125 318q-18 0 -21.5 -20.5t-3.5 -58.5q19 17 29 33.5
t10 29.5q0 16 -14 16zM348 376q0 -6 -4.5 -10.5t-10.5 -4.5t-10.5 4.5t-4.5 10.5t4.5 10.5t10.5 4.5t10.5 -4.5t4.5 -10.5zM177 376q0 -6 -4.5 -10.5t-10.5 -4.5t-10.5 4.5t-4.5 10.5t4.5 10.5t10.5 4.5t10.5 -4.5t4.5 -10.5z" />
    <glyph glyph-name="Abreve" unicode="&#x102;" horiz-adv-x="693" 
d="M162 289q-28 4 -54.5 6t-50.5 2q-57 0 -57 -40q0 -19 10 -27.5t26 -8.5q9 0 21 3q3 1 3.5 -2t-2.5 -4q-12 -3 -23 -3q-20 0 -30.5 11.5t-10.5 30.5q0 27 18.5 36.5t44.5 9.5q25 0 52 -2t56 -6l174 337q-12 22 -18 36t-6 29q0 14 8.5 21t19.5 7t19.5 -7t8.5 -21
q0 -15 -8.5 -33t-16.5 -31l242 -470q15 -8 40 -22t48 -31t40 -36t17 -37q0 -17 -9.5 -28.5t-27.5 -11.5q-12 0 -24.5 7.5t-21.5 24.5l-66 129q-106 53 -208.5 83.5t-207.5 47.5l-150 -291q-2 -2 -4.5 -1t-0.5 4zM656 31q8 -15 18.5 -21.5t21.5 -6.5q17 0 24 11t7 23
q0 16 -15.5 33.5t-37.5 33.5t-44.5 29t-36.5 21zM171 294q107 -17 206.5 -47t201.5 -80l-236 459zM343 719q-8 0 -15 -5.5t-7 -16.5q0 -14 5.5 -26.5t16.5 -32.5q10 18 16 31.5t6 27.5q0 11 -7 16.5t-15 5.5zM346 819q-38 0 -62 26.5t-24 67.5q0 3 3 3t3 -3q0 -38 22.5 -63
t57.5 -25t57.5 25t22.5 63q0 3 3 3t3 -3q0 -41 -24 -67.5t-62 -26.5z" />
    <glyph glyph-name="abreve" unicode="&#x103;" horiz-adv-x="463" 
d="M413 -2q-39 59 -57 149q-11 -29 -26.5 -56t-36.5 -48t-47.5 -33.5t-59.5 -12.5q-38 0 -65.5 13.5t-45.5 36.5t-26.5 52t-8.5 61q0 37 11.5 67.5t32.5 52t50 33t64 11.5q19 0 39.5 -3.5t37 -12t27 -23.5t10.5 -37q0 -23 -13.5 -35.5t-33.5 -12.5q-19 0 -31.5 11.5
t-14.5 28.5q0 3 3 3t3 -3q2 -15 12.5 -24.5t27.5 -9.5q14 0 27.5 9.5t13.5 32.5q0 33 -28 51.5t-80 18.5q-33 0 -61 -11t-48.5 -32t-31.5 -50t-11 -65q0 -72 38 -114.5t102 -42.5q34 0 61.5 14t48 36.5t35 50t22.5 53.5q-8 40 -10 75.5t-2 59.5q0 22 8 27t13 5q8 0 15 -7.5
t7 -24.5q0 -18 -5 -55.5t-19 -80.5q7 -38 21.5 -80t36.5 -74q2 -3 -0.5 -5t-4.5 1zM362 318q-10 0 -12.5 -9t-2.5 -17q0 -20 2 -52.5t8 -70.5q13 39 17 72.5t4 50.5q0 26 -16 26zM231 467q-38 0 -62 26.5t-24 67.5q0 3 3 3t3 -3q0 -38 22.5 -63t57.5 -25t57.5 25t22.5 63
q0 3 3 3t3 -3q0 -41 -24 -67.5t-62 -26.5z" />
    <glyph glyph-name="Dcroat" unicode="&#x110;" horiz-adv-x="675" 
d="M8 293q-3 0 -3 3t3 3h196q3 0 3 -3t-3 -3h-196zM298 -3q-53 0 -104 12.5t-92 27.5q-19 -40 -56 -40q-17 0 -26.5 7.5t-9.5 21.5q0 11 8.5 20.5t27.5 9.5q11 0 24 -3.5t28 -8.5q10 23 10 59v284q0 67 28 116q2 4 4.5 2t0.5 -5q-27 -47 -27 -113v-284q0 -37 -10 -61
q46 -17 95 -28t99 -11q146 0 227.5 86t81.5 246q0 76 -24.5 137t-69 104.5t-107.5 67t-140 23.5q-20 0 -48 -1t-58.5 -5.5t-60 -12t-53.5 -20.5t-38.5 -32t-14.5 -45q0 -21 11 -33.5t31 -12.5q18 0 30 9t15 29q1 4 4 3.5t2 -4.5q-3 -20 -16.5 -31.5t-34.5 -11.5
q-22 0 -35 14.5t-13 37.5q0 40 30.5 64.5t74.5 37t91.5 16.5t82.5 4q78 0 142 -24t109.5 -68.5t70.5 -107t25 -138.5q0 -82 -22 -145t-63 -106t-99.5 -65t-130.5 -22zM46 50q-14 0 -22 -6.5t-8 -17.5t8 -17t22 -6q33 0 50 36q-15 5 -27 8t-23 3z" />
    <glyph glyph-name="dcroat" unicode="&#x111;" horiz-adv-x="446" 
d="M173 536q-3 0 -3 3t3 3h356q3 0 3 -3t-3 -3h-356zM198 -3q-33 0 -62 11.5t-50.5 32.5t-33.5 51.5t-12 68.5q0 36 11.5 66t32.5 51.5t50 33.5t64 12q18 0 39.5 -3.5t40 -12t30.5 -23.5t12 -37q0 -23 -13.5 -35t-34.5 -12q-19 0 -31.5 11t-13.5 28q0 3 3 3t3 -3
q1 -14 12 -23.5t27 -9.5q14 0 28 9t14 32q0 21 -12 35t-30 21.5t-38 10.5t-36 3q-34 0 -62 -11.5t-48 -32.5t-31 -50t-11 -63q0 -35 11 -64t31 -50t48 -32.5t62 -11.5q72 0 112 41t40 114v490q-11 -8 -24 -15.5t-26 -14.5q-3 -2 -4.5 1t1.5 5q31 15 53 31v17q0 12 0.5 26.5
t4 26.5t10 20t18.5 8q23 0 23 -26q0 -19 -13 -38.5t-37 -36.5v-494q0 -75 -41.5 -118t-116.5 -43zM383 747q-11 0 -19 -14t-8 -57v-16q44 35 44 67q0 7 -3.5 13.5t-13.5 6.5z" />
    <glyph glyph-name="Itilde" unicode="&#x128;" horiz-adv-x="383" 
d="M60 -47q-54 0 -54 26q0 19 18 23.5t39 4.5h102q11 14 17 33t6 45v481q0 46 23 78h-179q-4 0 -3.5 3t3.5 3h183q21 25 49.5 36.5t58.5 11.5q54 0 54 -26q0 -19 -18 -23.5t-39 -4.5h-102q-11 -14 -17.5 -33t-6.5 -45v-481q0 -47 -22 -78h179q3 0 3 -3t-3 -3h-183
q-22 -26 -50 -37t-58 -11zM63 1q-27 0 -39 -5t-12 -17q0 -7 5.5 -11t13 -6t16 -2.5t13.5 -0.5q23 0 51 9t49 33h-97zM320 650q27 0 39 5.5t12 16.5q0 7 -5.5 11t-13 6t-16 2.5t-13.5 0.5q-23 0 -51 -9t-49 -33h97zM238 867q-13 0 -25 6t-24 14t-23.5 14t-24.5 6
q-11 0 -22.5 -6t-24.5 -23q-2 -2 -4.5 0t-0.5 4q25 32 55 31q13 -2 25 -7.5t23 -13.5q12 -8 23.5 -13.5t22.5 -5.5q27 -2 50 33q2 2 4.5 0.5t0.5 -4.5q-11 -16 -24.5 -25.5t-30.5 -9.5z" />
    <glyph glyph-name="itilde" unicode="&#x129;" horiz-adv-x="187" 
d="M91 0q5 59 4.5 114.5t-1.5 111.5q-13 -10 -32 -19q-3 -2 -4 0.5t2 4.5q10 5 18 10.5t16 10.5q0 10 0.5 25.5t3.5 30t10 25t19 10.5q10 0 15 -6.5t5 -15.5q-1 -20 -15.5 -40t-31.5 -32q0 -13 0.5 -27.5t0.5 -30.5q1 -39 0.5 -84.5t-4.5 -87.5q0 -4 -3 -3.5t-3 3.5z
M127 318q-10 0 -15 -10t-7.5 -23.5t-3 -26.5t-0.5 -20q20 17 30 34t10 30q0 16 -14 16zM141 515q-13 0 -25 6t-24 14t-23.5 14t-24.5 6q-11 0 -22.5 -6t-24.5 -23q-2 -2 -4.5 0t-0.5 4q25 32 55 31q13 -2 25 -7.5t23 -13.5q12 -8 23.5 -13.5t22.5 -5.5q27 -2 50 33
q2 2 4.5 0.5t0.5 -4.5q-11 -16 -24.5 -25.5t-30.5 -9.5z" />
    <glyph glyph-name="dotlessi" unicode="&#x131;" horiz-adv-x="187" 
d="M91 0q5 59 4.5 114.5t-1.5 111.5q-13 -10 -32 -19q-3 -2 -4 0.5t2 4.5q10 5 18 10.5t16 10.5q0 10 0.5 25.5t3.5 30t10 25t19 10.5q10 0 15 -6.5t5 -15.5q-1 -20 -15.5 -40t-31.5 -32q0 -13 0.5 -27.5t0.5 -30.5q1 -39 0.5 -84.5t-4.5 -87.5q0 -4 -3 -3.5t-3 3.5z
M127 318q-10 0 -15 -10t-7.5 -23.5t-3 -26.5t-0.5 -20q20 17 30 34t10 30q0 16 -14 16z" />
    <glyph glyph-name="OE" unicode="&#x152;" horiz-adv-x="1029" 
d="M562 -3q-3 0 -3 3v83q-45 -35 -100.5 -60.5t-125.5 -25.5q-63 0 -113 20.5t-85 61t-54 100t-19 137.5q0 45 9.5 85t26.5 72.5t42 55t57 33.5q0 52 43.5 81.5t121.5 29.5q56 0 103 -18.5t94 -59.5v75q0 3 3 3h419q3 0 3 -3t-3 -3h-416v-305h375q3 0 3 -3t-3 -3h-375v-353
h421q3 0 3 -3t-3 -3h-424zM197 556q-30 -11 -54 -33.5t-40.5 -54t-25.5 -70.5t-9 -82q0 -150 69 -231.5t196 -81.5q39 0 72 8.5t61 21t51 28t42 29.5v497q-17 15 -37 29.5t-44 25.5t-52.5 18t-63.5 7q-74 0 -116.5 -27t-42.5 -76q19 6 43 6q36 0 68 -7.5t64 -33.5
q2 -2 0 -4.5t-4 -0.5q-31 25 -62 32.5t-66 7.5q-24 0 -43 -6q2 -47 44.5 -72t120.5 -25q77 0 146 33q3 2 4 -1t-1 -5q-69 -33 -149 -33q-78 0 -123.5 25.5t-47.5 75.5z" />
    <glyph glyph-name="oe" unicode="&#x153;" horiz-adv-x="672" 
d="M192 -3q-35 0 -63 11.5t-48 32.5t-30.5 49.5t-10.5 61.5q0 49 19.5 81.5t57.5 40.5q8 24 31.5 38t59.5 14q49 0 86 -35t48 -92q10 62 54 97t106 35q35 0 59 -7.5t39 -19.5t21.5 -27t6.5 -30q0 -30 -19.5 -49.5t-56 -30.5t-88.5 -15.5t-118 -4.5q5 -63 43.5 -100t96.5 -37
q98 0 144 73q2 2 4.5 1t0.5 -4q-46 -76 -149 -76q-53 0 -92 31t-50 86q-10 -56 -51 -90t-101 -34zM115 267q-33 -8 -51 -37.5t-18 -77.5q0 -67 40 -108t106 -41q31 0 58 10.5t46.5 29t31 45t12.5 59.5q-119 0 -172.5 24t-53.5 83v6.5t1 6.5zM121 268q-1 -5 -1 -14
q0 -54 51.5 -77.5t167.5 -23.5q1 35 -8 65.5t-26.5 53t-42.5 35.5t-54 13q-32 0 -54 -12t-30 -33q5 1 9 1h9q27 0 47.5 -14.5t27.5 -31.5q2 -4 -0.5 -5t-4.5 2q-8 16 -26.5 29.5t-43.5 13.5h-12t-9 -2zM346 153q64 0 115 4t87 14.5t55 28.5t19 47q0 14 -6 28t-20.5 25
t-37.5 18t-56 7q-41 0 -71.5 -14.5t-50 -38.5t-28.5 -55t-6 -64z" />
    <glyph glyph-name="Scaron" unicode="&#x160;" horiz-adv-x="644" 
d="M637 -1q-16 22 -33 41t-36 36q-24 -23 -55 -38t-65 -24t-70 -12.5t-69 -3.5q-74 0 -125.5 8.5t-83.5 24.5t-47 39t-15 52q0 30 14 49.5t36 31.5t48.5 17t51.5 5q107 0 204.5 -35.5t175.5 -105.5q42 45 42 105q0 42 -17.5 69t-46 44t-64.5 26t-73 14l-160 23
q-99 14 -141.5 52t-42.5 98q0 72 63.5 115t202.5 43q63 0 107.5 -10t72.5 -27t41 -39t13 -46q0 -33 -16.5 -51t-48.5 -18q-60 0 -70 58q-1 4 2.5 4t3.5 -3q8 -53 64 -53q59 0 59 63q0 54 -59.5 85t-168.5 31q-42 0 -88 -6t-84.5 -22.5t-63 -46t-24.5 -77.5q0 -64 45 -97.5
t133 -46.5l160 -23q39 -6 76.5 -15.5t66.5 -27t46.5 -45.5t17.5 -71q0 -63 -44 -109q20 -17 37 -36.5t33 -40.5q2 -3 -0.5 -4.5t-4.5 0.5zM188 219q-25 0 -50.5 -5t-46.5 -16.5t-34 -30t-13 -45.5q0 -57 62.5 -87.5t202.5 -30.5q88 0 152.5 20t102.5 56q-75 67 -171 103
t-205 36zM218 817q-2 2 0.5 4t4.5 0l96 -111l96 111q2 3 4 0.5t0 -4.5l-98 -114q-2 -2 -4 0z" />
    <glyph glyph-name="scaron" unicode="&#x161;" horiz-adv-x="402" 
d="M64 245q0 28 15 43.5t36.5 23.5t46 10t43.5 2q70 0 104 -19.5t34 -49.5q0 -23 -12.5 -36.5t-35.5 -13.5q-21 0 -34.5 11.5t-16.5 31.5q0 3 3 3t3 -2q5 -38 45 -38q20 0 31 11.5t11 32.5q0 17 -10.5 29t-28.5 19.5t-42 11t-51 3.5q-69 0 -102 -17.5t-33 -55.5
q0 -31 21.5 -46.5t53.5 -22.5t69 -10t69 -10.5t53.5 -23t21.5 -47.5q0 -41 -43 -64.5t-115 -23.5q-20 0 -43 3.5t-44.5 10.5t-39.5 18t-28 25q-2 3 0.5 4.5t4.5 -1.5q10 -13 27.5 -23t38 -17t42.5 -10.5t42 -3.5q69 0 110.5 22t41.5 60q0 30 -21.5 44.5t-53.5 21t-69 10
t-69 11t-53.5 24t-21.5 49.5zM94 493q-2 2 0.5 4t4.5 0l96 -111l96 111q2 3 4 0.5t0 -4.5l-98 -114q-2 -2 -4 0z" />
    <glyph glyph-name="Utilde" unicode="&#x168;" horiz-adv-x="700" 
d="M663 -1q-25 60 -46.5 142.5t-34.5 177.5q-15 -57 -40 -114.5t-62 -103.5t-86 -75t-112 -29q-96 0 -138 65t-42 195v336q0 25 -6 39.5t-15.5 22t-21 10t-21.5 2.5q-26 0 -42.5 -14.5t-16.5 -38.5q0 -19 13 -35t39 -16q10 0 19 3.5t14 7.5q2 2 4 -0.5t-1 -4.5
q-6 -5 -15.5 -8.5t-20.5 -3.5q-29 0 -43.5 18t-14.5 39q0 23 16.5 41t48.5 18q70 0 70 -80v-335q0 -60 9 -107.5t29 -80t53.5 -50t82.5 -17.5q65 0 114.5 31t85.5 79.5t60 107t38 113.5q-9 70 -14 142t-5 143q0 34 11.5 44t22.5 10q31 0 31 -53q0 -21 -2 -52.5t-6.5 -69
t-12 -79.5t-19.5 -85q12 -91 33 -178t50 -155q2 -3 -1 -4.5t-5 2.5zM595 667q-28 0 -28 -48q0 -60 4.5 -128.5t12.5 -140.5q21 83 28.5 155.5t7.5 114.5q0 31 -8.5 39t-16.5 8zM397 867q-13 0 -25 6t-24 14t-23.5 14t-24.5 6q-11 0 -22.5 -6t-24.5 -23q-2 -2 -4.5 0t-0.5 4
q25 32 55 31q13 -2 25 -7.5t23 -13.5q12 -8 23.5 -13.5t22.5 -5.5q27 -2 50 33q2 2 4.5 0.5t0.5 -4.5q-11 -16 -24.5 -25.5t-30.5 -9.5z" />
    <glyph glyph-name="utilde" unicode="&#x169;" horiz-adv-x="472" 
d="M401 -1q-14 26 -24 60.5t-17 73.5q-11 -29 -26 -53.5t-35 -43t-45 -29t-56 -10.5q-110 0 -110 129v101q-14 -11 -34 -20q-2 -2 -3.5 0.5t1.5 4.5q11 5 19.5 10.5t16.5 12.5q0 40 3.5 64.5t27.5 24.5q11 0 16 -7t5 -15q0 -20 -15 -39.5t-31 -30.5v-106q0 -59 25 -91
t79 -32q33 0 58.5 12.5t45 33t33.5 45.5t23 51q-12 70 -12 147q0 18 7.5 25t15.5 7t15 -7.5t7 -24.5q0 -22 -5.5 -62.5t-21.5 -85.5q7 -42 18 -79t25 -64q2 -2 -1 -3.5t-5 1.5zM369 318q-17 0 -17 -26q0 -35 2.5 -69t7.5 -66q14 42 18.5 78.5t4.5 56.5q0 26 -16 26zM119 318
q-18 0 -21.5 -20t-3.5 -59q20 17 30 33.5t10 29.5q0 16 -15 16zM283 515q-13 0 -25 6t-24 14t-23.5 14t-24.5 6q-11 0 -22.5 -6t-24.5 -23q-2 -2 -4.5 0t-0.5 4q25 32 55 31q13 -2 25 -7.5t23 -13.5q12 -8 23.5 -13.5t22.5 -5.5q27 -2 50 33q2 2 4.5 0.5t0.5 -4.5
q-11 -16 -24.5 -25.5t-30.5 -9.5z" />
    <glyph glyph-name="Ydieresis" unicode="&#x178;" horiz-adv-x="625" 
d="M315 -3q-67 0 -114.5 10t-78 26.5t-45 37.5t-14.5 42q0 25 15.5 39.5t38.5 14.5q21 0 35.5 -12t16.5 -32q0 -4 -3 -4t-3 3q-2 17 -14.5 28t-31.5 11q-17 0 -32.5 -10.5t-15.5 -37.5q0 -22 16 -42t47 -35t77 -24t106 -9q55 0 102 11t81.5 34t54 58.5t19.5 85.5
q0 63 -10.5 123.5t-20.5 116.5q-39 -84 -103 -129t-155 -45q-87 0 -135 40.5t-48 122.5v172q0 74 -67 74q-27 0 -43.5 -15.5t-16.5 -37.5q0 -19 13.5 -35t39.5 -16q10 0 19 3.5t14 7.5q2 2 4 0t0 -4q-6 -5 -16 -9t-21 -4q-29 0 -44 18t-15 39q0 26 18.5 42.5t47.5 16.5
q40 0 56.5 -22.5t16.5 -57.5v-172q0 -76 44.5 -116.5t132.5 -40.5q52 0 93 14.5t72 39.5t53.5 57.5t37.5 67.5q-8 42 -13 86t-5 90q0 54 31 54q29 0 29 -53q0 -47 -9.5 -92t-26.5 -86q11 -61 22 -124t11 -126q0 -93 -68 -144t-195 -51zM552 667q-25 0 -25 -48q0 -43 4.5 -84
t11.5 -82q17 45 24.5 88.5t7.5 78.5q0 18 -3 27.5t-6.5 14t-7.5 5t-6 0.5zM389 756q0 -6 -4.5 -10.5t-10.5 -4.5t-10.5 4.5t-4.5 10.5t4.5 10.5t10.5 4.5t10.5 -4.5t4.5 -10.5zM218 756q0 -6 -4.5 -10.5t-10.5 -4.5t-10.5 4.5t-4.5 10.5t4.5 10.5t10.5 4.5t10.5 -4.5
t4.5 -10.5z" />
    <glyph glyph-name="Zcaron" unicode="&#x17d;" horiz-adv-x="638" 
d="M587 -39q-22 0 -53.5 4t-69 10.5t-78.5 14.5l-82 16q-49 9 -94.5 18t-83.5 14q-23 -20 -42 -30.5t-37 -10.5q-15 0 -23 8t-8 19q0 12 9.5 20t24.5 8q14 0 32.5 -2t41.5 -5q47 44 97 125l206 329q20 32 44 65.5t50 59.5q-35 3 -76 8t-84 10q-36 4 -72 8.5t-69.5 8.5t-63 6
t-52.5 2q-29 0 -43 -16.5t-14 -34.5t12.5 -33.5t40.5 -15.5q3 0 3 -3t-3 -3q-26 0 -42.5 15t-16.5 40t17 41t46 16q23 0 52.5 -2t63 -6t69.5 -8.5t72 -8.5q45 -5 87 -10t79 -8q20 19 40.5 31t39.5 12q15 0 22.5 -8t7.5 -19q0 -14 -10 -20.5t-22 -6.5q-16 0 -35 1t-41 3
q-45 -45 -97 -127l-206 -330q-9 -14 -20.5 -31t-24.5 -33.5t-25.5 -32t-24.5 -26.5q38 -5 82 -13.5t92 -18.5l82 -16t78.5 -14t68.5 -10t53 -4q12 0 25 2t24 8t18 17t7 29q0 24 -14 38.5t-36 14.5q-23 0 -47 -16q-3 -2 -4.5 0.5t1.5 4.5q25 17 50 17q24 0 40 -16t16 -43
q0 -62 -80 -62zM50 46q-12 0 -20 -6t-8 -16q0 -8 6 -14.5t19 -6.5q30 0 71 36q-21 3 -38 5t-30 2zM535 629q20 -2 38 -3t32 -1q11 0 18.5 5.5t7.5 15.5q0 8 -5.5 14.5t-18.5 6.5q-31 0 -72 -38zM195 817q-2 2 0.5 4t4.5 0l96 -111l96 111q2 3 4 0.5t0 -4.5l-98 -114
q-2 -2 -4 0z" />
    <glyph glyph-name="zcaron" unicode="&#x17e;" horiz-adv-x="414" 
d="M351 -25q-31 1 -61 7t-59.5 15t-58.5 18t-58 16q-35 -34 -63 -34q-14 0 -20.5 7.5t-6.5 16.5q0 13 10 19.5t21 6.5t25.5 -2.5t31.5 -6.5q26 28 47.5 59t42 63t41.5 63t46 59q-52 11 -100.5 23.5t-96.5 12.5q-17 0 -30.5 -9t-13.5 -26q0 -12 10 -23t31 -11q4 0 3.5 -3
t-3.5 -3q-24 0 -35.5 13t-11.5 27q0 20 15.5 30.5t34.5 10.5q53 0 102.5 -14t99.5 -23q17 17 33 27t31 10t22.5 -7.5t7.5 -17.5q0 -9 -7.5 -17t-23.5 -8q-14 0 -28.5 2t-31.5 5q-26 -29 -48 -60.5t-42.5 -63.5t-42 -63t-46.5 -58q30 -8 59.5 -17.5t58.5 -17.5t57.5 -14
t57.5 -6q18 0 33.5 8.5t15.5 28.5q0 13 -5.5 21.5t-14.5 12t-19.5 2.5t-20.5 -7q-3 -2 -4.5 1t1.5 5q27 14 48 3.5t21 -38.5q0 -23 -18.5 -33t-36.5 -10zM55 41q-10 -1 -17.5 -6t-7.5 -14q0 -7 5 -12.5t16 -5.5q14 0 27.5 8t28.5 22q-34 8 -52 8zM302 286q30 -6 55 -6
q13 0 19 6t6 13t-6 13t-18 6q-24 0 -56 -32zM124 495q-2 2 0.5 4t4.5 0l96 -111l96 111q2 3 4 0.5t0 -4.5l-98 -114q-2 -2 -4 0z" />
    <glyph glyph-name="florin" unicode="&#x192;" horiz-adv-x="462" 
d="M51 315q-3 0 -3 3t3 3h90l25 188q11 76 53 119t108 43q51 0 83 -17.5t32 -51.5q0 -23 -14.5 -41t-39.5 -18q-22 0 -34 12t-12 32q0 3 3 3t3 -3q0 -38 40 -38q22 0 35 16.5t13 36.5q0 31 -29.5 47t-79.5 16q-63 0 -104 -41.5t-51 -115.5l-25 -187h198q3 0 3 -3t-3 -3h-199
l-42 -315q-11 -85 -44.5 -145.5t-93.5 -105.5q-2 -2 -4 0.5t0 4.5q59 43 92 103t44 144l42 314h-89z" />
    <glyph glyph-name="Ohorn" unicode="&#x1a0;" horiz-adv-x="731" 
d="M365 -3q-75 0 -131.5 24.5t-95 67.5t-57.5 101t-19 126q0 41 10 80t30 72t49 58t67 37q2 49 46 79.5t132 30.5q85 0 140.5 -37.5t88.5 -103.5q50 37 76 96q2 3 4.5 1.5t1.5 -3.5q-14 -30 -34.5 -55t-44.5 -44q41 -87 41 -211q0 -71 -20 -129t-59 -100q-40 -45 -97 -67.5
t-128 -22.5zM218 556q-33 -10 -60.5 -32t-47.5 -53.5t-31 -71t-11 -83.5q0 -72 20.5 -130t59 -98.5t93.5 -62.5t124 -22t124 22t94 62.5t59.5 98.5t20.5 130q0 121 -40 207q-45 -35 -104 -51.5t-116 -16.5q-26 0 -57.5 3.5t-59 14.5t-46.5 31t-22 52zM224 558
q2 -47 48.5 -72t130.5 -25q27 0 55.5 4t57 12t55 20.5t49.5 30.5q-33 71 -91 105t-133 34q-79 0 -124.5 -27.5t-47.5 -75.5q22 6 46 6q47 0 80.5 -9.5t62.5 -31.5q2 -2 0 -4q-3 -3 -4 -1q-28 21 -61 30.5t-78 9.5q-24 0 -46 -6zM577 604q27 6 32 35q-5 -3 -9 -3
q-6 0 -11 4.5t-5 11.5t5 12t11 5q7 0 12 -5t5 -12q0 -44 -38 -55q-3 -1 -4 2.5t2 4.5zM617 652q0 -7 -5 -11.5t-12 -4.5q-6 0 -11 4.5t-5 11.5t5 12t11 5q7 0 12 -5t5 -12z" />
    <glyph glyph-name="ohorn" unicode="&#x1a1;" 
d="M200 -3q-34 0 -63.5 11.5t-50.5 32.5t-33 49.5t-12 61.5q2 103 84 122q8 24 32 38t59 14q43 0 77 -25.5t49 -62.5q45 50 36 137q-1 4 2.5 3.5t3.5 -3.5q9 -90 -39 -143q15 -36 15 -80q0 -36 -13 -64.5t-35 -49t-51 -31t-61 -10.5zM124 267q-36 -8 -56.5 -38.5
t-20.5 -76.5q0 -32 11.5 -59.5t32 -47.5t48.5 -31t61 -11t61.5 11t49 31t32 47.5t11.5 59.5q0 41 -14 75q-17 -16 -34.5 -25.5t-34 -14.5t-30 -6.5t-21.5 -1.5q-29 0 -48 7.5t-30 19t-15.5 24t-4.5 23.5q0 4 0.5 7t1.5 7zM130 269q-2 -10 -2 -17q0 -11 5 -23t16 -21.5
t28.5 -16t42.5 -6.5q7 0 20.5 1.5t29.5 6t34 14t34 26.5q-17 40 -49 63.5t-73 23.5q-32 0 -54 -12t-30 -33q5 1 9.5 1h9.5q35 1 48.5 -16.5t2.5 -47.5q-1 -2 -4.5 -1.5t-1.5 4.5q12 30 -2 42.5t-43 12.5h-11t-10 -1zM310 287q27 6 32 35q-5 -3 -9 -3q-6 0 -11 4.5t-5 11.5
t5 12t11 5q7 0 12 -5t5 -12q0 -44 -38 -55q-3 -1 -4 2.5t2 4.5zM350 335q0 -7 -5 -11.5t-12 -4.5q-6 0 -11 4.5t-5 11.5t5 12t11 5q7 0 12 -5t5 -12z" />
    <glyph glyph-name="Uhorn" unicode="&#x1af;" horiz-adv-x="700" 
d="M663 -1q-25 60 -46.5 142.5t-34.5 177.5q-15 -57 -40 -114.5t-62 -103.5t-86 -75t-112 -29q-96 0 -138 65t-42 195v336q0 25 -6 39.5t-15.5 22t-21 10t-21.5 2.5q-26 0 -42.5 -14.5t-16.5 -38.5q0 -19 13 -35t39 -16q10 0 19 3.5t14 7.5q2 2 4 -0.5t-1 -4.5
q-6 -5 -15.5 -8.5t-20.5 -3.5q-29 0 -43.5 18t-14.5 39q0 23 16.5 41t48.5 18q70 0 70 -80v-335q0 -60 9 -107.5t29 -80t53.5 -50t82.5 -17.5q65 0 114.5 31t85.5 79.5t60 107t38 113.5q-9 70 -14 142t-5 143q0 34 11.5 44t22.5 10q31 0 31 -53q0 -21 -2 -52.5t-6.5 -69
t-12 -79.5t-19.5 -85q12 -91 33 -178t50 -155q2 -3 -1 -4.5t-5 2.5zM595 667q-28 0 -28 -48q0 -60 4.5 -128.5t12.5 -140.5q21 83 28.5 155.5t7.5 114.5q0 31 -8.5 39t-16.5 8zM625 645q27 6 32 35q-5 -3 -9 -3q-6 0 -11 4.5t-5 11.5t5 12t11 5q7 0 12 -5t5 -12
q0 -44 -38 -55q-3 -1 -4 2.5t2 4.5zM665 693q0 -7 -5 -11.5t-12 -4.5q-6 0 -11 4.5t-5 11.5t5 12t11 5q7 0 12 -5t5 -12z" />
    <glyph glyph-name="uhorn" unicode="&#x1b0;" horiz-adv-x="472" 
d="M401 -1q-14 26 -24 60.5t-17 73.5q-11 -29 -26 -53.5t-35 -43t-45 -29t-56 -10.5q-110 0 -110 129v101q-14 -11 -34 -20q-2 -2 -3.5 0.5t1.5 4.5q11 5 19.5 10.5t16.5 12.5q0 40 3.5 64.5t27.5 24.5q11 0 16 -7t5 -15q0 -20 -15 -39.5t-31 -30.5v-106q0 -59 25 -91
t79 -32q33 0 58.5 12.5t45 33t33.5 45.5t23 51q-12 70 -12 147q0 18 7.5 25t15.5 7t15 -7.5t7 -24.5q0 -22 -5.5 -62.5t-21.5 -85.5q7 -42 18 -79t25 -64q2 -2 -1 -3.5t-5 1.5zM369 318q-17 0 -17 -26q0 -35 2.5 -69t7.5 -66q14 42 18.5 78.5t4.5 56.5q0 26 -16 26zM119 318
q-18 0 -21.5 -20t-3.5 -59q20 17 30 33.5t10 29.5q0 16 -15 16zM393 297q27 6 32 35q-5 -3 -9 -3q-6 0 -11 4.5t-5 11.5t5 12t11 5q7 0 12 -5t5 -12q0 -44 -38 -55q-3 -1 -4 2.5t2 4.5zM433 345q0 -7 -5 -11.5t-12 -4.5q-6 0 -11 4.5t-5 11.5t5 12t11 5q7 0 12 -5t5 -12z
" />
    <glyph glyph-name="circumflex" unicode="&#x2c6;" horiz-adv-x="263" 
d="M131 575l-96 -112q-2 -2 -4 0t0 4l98 114q2 2 4 0l98 -114q2 -2 0 -4t-4 0z" />
    <glyph glyph-name="caron" unicode="&#x2c7;" horiz-adv-x="264" 
d="M31 577q-2 2 0.5 4t4.5 0l96 -111l96 111q2 3 4 0.5t0 -4.5l-98 -114q-2 -2 -4 0z" />
    <glyph glyph-name="breve" unicode="&#x2d8;" horiz-adv-x="232" 
d="M116 467q-38 0 -62 26.5t-24 67.5q0 3 3 3t3 -3q0 -38 22.5 -63t57.5 -25t57.5 25t22.5 63q0 3 3 3t3 -3q0 -41 -24 -67.5t-62 -26.5z" />
    <glyph glyph-name="ring" unicode="&#x2da;" horiz-adv-x="214" 
d="M107 445q-32 0 -54.5 22.5t-22.5 54.5t22.5 54.5t54.5 22.5t54.5 -22.5t22.5 -54.5t-22.5 -54.5t-54.5 -22.5zM107 593q-29 0 -50 -20.5t-21 -50.5q0 -29 21 -50t50 -21t50 21t21 50q0 30 -21 50.5t-50 20.5z" />
    <glyph glyph-name="ogonek" unicode="&#x2db;" horiz-adv-x="200" 
d="M91 -138q-61 0 -61 50q0 19 11.5 35t25.5 28t26 19.5t13 7.5q3 2 4 -0.5t-1 -4.5l-11.5 -7t-25 -18.5t-25 -26.5t-11.5 -33q0 -14 5 -22.5t13 -13.5t18 -6.5t19 -1.5q17 0 37.5 7.5t35.5 18.5q2 2 4 0t0 -4q-17 -14 -37.5 -21t-39.5 -7z" />
    <glyph glyph-name="tilde" unicode="&#x2dc;" horiz-adv-x="266" 
d="M180 515q-13 0 -25 6t-24 14t-23.5 14t-24.5 6q-11 0 -22.5 -6t-24.5 -23q-2 -2 -4.5 0t-0.5 4q25 32 55 31q13 -2 25 -7.5t23 -13.5q12 -8 23.5 -13.5t22.5 -5.5q27 -2 50 33q2 2 4.5 0.5t0.5 -4.5q-11 -16 -24.5 -25.5t-30.5 -9.5z" />
    <glyph glyph-name="hungarumlaut" unicode="&#x2dd;" horiz-adv-x="331" 
d="M160 581q2 2 4 0t0 -4l-128 -114q-3 -3 -5 0t1 5zM295 581q2 2 4 0t0 -4l-128 -114q-2 -2 -4 0.5t0 4.5z" />
    <glyph glyph-name="uni1EA0" unicode="&#x1ea0;" horiz-adv-x="693" 
d="M162 289q-28 4 -54.5 6t-50.5 2q-57 0 -57 -40q0 -19 10 -27.5t26 -8.5q9 0 21 3q3 1 3.5 -2t-2.5 -4q-12 -3 -23 -3q-20 0 -30.5 11.5t-10.5 30.5q0 27 18.5 36.5t44.5 9.5q25 0 52 -2t56 -6l174 337q-12 22 -18 36t-6 29q0 14 8.5 21t19.5 7t19.5 -7t8.5 -21
q0 -15 -8.5 -33t-16.5 -31l242 -470q15 -8 40 -22t48 -31t40 -36t17 -37q0 -17 -9.5 -28.5t-27.5 -11.5q-12 0 -24.5 7.5t-21.5 24.5l-66 129q-106 53 -208.5 83.5t-207.5 47.5l-150 -291q-2 -2 -4.5 -1t-0.5 4zM656 31q8 -15 18.5 -21.5t21.5 -6.5q17 0 24 11t7 23
q0 16 -15.5 33.5t-37.5 33.5t-44.5 29t-36.5 21zM171 294q107 -17 206.5 -47t201.5 -80l-236 459zM343 719q-8 0 -15 -5.5t-7 -16.5q0 -14 5.5 -26.5t16.5 -32.5q10 18 16 31.5t6 27.5q0 11 -7 16.5t-15 5.5zM360 -48q0 -7 -5 -11.5t-12 -4.5q-6 0 -11 4.5t-5 11.5t5 12
t11 5q7 0 12 -5t5 -12z" />
    <glyph glyph-name="uni1EA1" unicode="&#x1ea1;" horiz-adv-x="463" 
d="M413 -2q-39 59 -57 149q-11 -29 -26.5 -56t-36.5 -48t-47.5 -33.5t-59.5 -12.5q-38 0 -65.5 13.5t-45.5 36.5t-26.5 52t-8.5 61q0 37 11.5 67.5t32.5 52t50 33t64 11.5q19 0 39.5 -3.5t37 -12t27 -23.5t10.5 -37q0 -23 -13.5 -35.5t-33.5 -12.5q-19 0 -31.5 11.5
t-14.5 28.5q0 3 3 3t3 -3q2 -15 12.5 -24.5t27.5 -9.5q14 0 27.5 9.5t13.5 32.5q0 33 -28 51.5t-80 18.5q-33 0 -61 -11t-48.5 -32t-31.5 -50t-11 -65q0 -72 38 -114.5t102 -42.5q34 0 61.5 14t48 36.5t35 50t22.5 53.5q-8 40 -10 75.5t-2 59.5q0 22 8 27t13 5q8 0 15 -7.5
t7 -24.5q0 -18 -5 -55.5t-19 -80.5q7 -38 21.5 -80t36.5 -74q2 -3 -0.5 -5t-4.5 1zM362 318q-10 0 -12.5 -9t-2.5 -17q0 -20 2 -52.5t8 -70.5q13 39 17 72.5t4 50.5q0 26 -16 26z" />
    <glyph glyph-name="uni1EA2" unicode="&#x1ea2;" horiz-adv-x="693" 
d="M162 289q-28 4 -54.5 6t-50.5 2q-57 0 -57 -40q0 -19 10 -27.5t26 -8.5q9 0 21 3q3 1 3.5 -2t-2.5 -4q-12 -3 -23 -3q-20 0 -30.5 11.5t-10.5 30.5q0 27 18.5 36.5t44.5 9.5q25 0 52 -2t56 -6l174 337q-12 22 -18 36t-6 29q0 14 8.5 21t19.5 7t19.5 -7t8.5 -21
q0 -15 -8.5 -33t-16.5 -31l242 -470q15 -8 40 -22t48 -31t40 -36t17 -37q0 -17 -9.5 -28.5t-27.5 -11.5q-12 0 -24.5 7.5t-21.5 24.5l-66 129q-106 53 -208.5 83.5t-207.5 47.5l-150 -291q-2 -2 -4.5 -1t-0.5 4zM656 31q8 -15 18.5 -21.5t21.5 -6.5q17 0 24 11t7 23
q0 16 -15.5 33.5t-37.5 33.5t-44.5 29t-36.5 21zM171 294q107 -17 206.5 -47t201.5 -80l-236 459zM343 719q-8 0 -15 -5.5t-7 -16.5q0 -14 5.5 -26.5t16.5 -32.5q10 18 16 31.5t6 27.5q0 11 -7 16.5t-15 5.5zM351 777q0 -1 -0.5 -1t-0.5 1v13q0 16 9 23.5t19.5 13.5
t19.5 13.5t9 24.5t-15.5 26.5t-41.5 9.5q-8 0 -17 -1t-17 -4t-13.5 -8.5t-5.5 -14.5q0 -11 11 -11t13 9q0 1 0.5 1.5t0.5 -1.5q-2 -10 -14 -10q-13 0 -13 12q0 13 13 21t42 8q28 0 43.5 -10t15.5 -27t-9 -25.5t-20 -14.5t-20 -13t-9 -22v-13z" />
    <glyph glyph-name="uni1EA3" unicode="&#x1ea3;" horiz-adv-x="463" 
d="M413 -2q-39 59 -57 149q-11 -29 -26.5 -56t-36.5 -48t-47.5 -33.5t-59.5 -12.5q-38 0 -65.5 13.5t-45.5 36.5t-26.5 52t-8.5 61q0 37 11.5 67.5t32.5 52t50 33t64 11.5q19 0 39.5 -3.5t37 -12t27 -23.5t10.5 -37q0 -23 -13.5 -35.5t-33.5 -12.5q-19 0 -31.5 11.5
t-14.5 28.5q0 3 3 3t3 -3q2 -15 12.5 -24.5t27.5 -9.5q14 0 27.5 9.5t13.5 32.5q0 33 -28 51.5t-80 18.5q-33 0 -61 -11t-48.5 -32t-31.5 -50t-11 -65q0 -72 38 -114.5t102 -42.5q34 0 61.5 14t48 36.5t35 50t22.5 53.5q-8 40 -10 75.5t-2 59.5q0 22 8 27t13 5q8 0 15 -7.5
t7 -24.5q0 -18 -5 -55.5t-19 -80.5q7 -38 21.5 -80t36.5 -74q2 -3 -0.5 -5t-4.5 1zM362 318q-10 0 -12.5 -9t-2.5 -17q0 -20 2 -52.5t8 -70.5q13 39 17 72.5t4 50.5q0 26 -16 26zM218 407q0 -1 -0.5 -1t-0.5 1v13q0 16 9 23.5t19.5 13.5t19.5 13.5t9 24.5t-15.5 26.5
t-41.5 9.5q-8 0 -17 -1t-17 -4t-13.5 -8.5t-5.5 -14.5q0 -11 11 -11t13 9q0 1 0.5 1.5t0.5 -1.5q-2 -10 -14 -10q-13 0 -13 12q0 13 13 21t42 8q28 0 43.5 -10t15.5 -27t-9 -25.5t-20 -14.5t-20 -13t-9 -22v-13z" />
    <glyph glyph-name="uni1EA4" unicode="&#x1ea4;" horiz-adv-x="620" 
d="M162 289q-28 4 -54.5 6t-50.5 2q-57 0 -57 -40q0 -19 10 -27.5t26 -8.5q9 0 21 3q3 1 3.5 -2t-2.5 -4q-12 -3 -23 -3q-20 0 -30.5 11.5t-10.5 30.5q0 27 18.5 36.5t44.5 9.5q25 0 52 -2t56 -6l174 337q-12 22 -18 36t-6 29q0 14 8.5 21t19.5 7t19.5 -7t8.5 -21
q0 -15 -8.5 -33t-16.5 -31l242 -470q15 -8 40 -22t48 -31t40 -36t17 -37q0 -17 -9.5 -28.5t-27.5 -11.5q-12 0 -24.5 7.5t-21.5 24.5l-66 129q-106 53 -208.5 83.5t-207.5 47.5l-150 -291q-2 -2 -4.5 -1t-0.5 4zM656 31q8 -15 18.5 -21.5t21.5 -6.5q17 0 24 11t7 23
q0 16 -15.5 33.5t-37.5 33.5t-44.5 29t-36.5 21zM171 294q107 -17 206.5 -47t201.5 -80l-236 459zM343 719q-8 0 -15 -5.5t-7 -16.5q0 -14 5.5 -26.5t16.5 -32.5q10 18 16 31.5t6 27.5q0 11 -7 16.5t-15 5.5zM343 835l-96 -112q-2 -2 -4 0t0 4l98 114q2 2 4 0l98 -114
q2 -2 0 -4t-4 0zM383 934q2 2 3.5 -0.5t-0.5 -4.5l-148 -114q-2 -2 -4.5 0.5t1.5 4.5z" />
    <glyph glyph-name="uni1EA5" unicode="&#x1ea5;" horiz-adv-x="483" 
d="M413 -2q-39 59 -57 149q-11 -29 -26.5 -56t-36.5 -48t-47.5 -33.5t-59.5 -12.5q-38 0 -65.5 13.5t-45.5 36.5t-26.5 52t-8.5 61q0 37 11.5 67.5t32.5 52t50 33t64 11.5q19 0 39.5 -3.5t37 -12t27 -23.5t10.5 -37q0 -23 -13.5 -35.5t-33.5 -12.5q-19 0 -31.5 11.5
t-14.5 28.5q0 3 3 3t3 -3q2 -15 12.5 -24.5t27.5 -9.5q14 0 27.5 9.5t13.5 32.5q0 33 -28 51.5t-80 18.5q-33 0 -61 -11t-48.5 -32t-31.5 -50t-11 -65q0 -72 38 -114.5t102 -42.5q34 0 61.5 14t48 36.5t35 50t22.5 53.5q-8 40 -10 75.5t-2 59.5q0 22 8 27t13 5q8 0 15 -7.5
t7 -24.5q0 -18 -5 -55.5t-19 -80.5q7 -38 21.5 -80t36.5 -74q2 -3 -0.5 -5t-4.5 1zM362 318q-10 0 -12.5 -9t-2.5 -17q0 -20 2 -52.5t8 -70.5q13 39 17 72.5t4 50.5q0 26 -16 26zM200 493l-96 -112q-2 -2 -4 0t0 4l98 114q2 2 4 0l98 -114q2 -2 0 -4t-4 0zM426 603
q2 2 3.5 -0.5t-0.5 -4.5l-148 -114q-2 -2 -4.5 0.5t1.5 4.5z" />
    <glyph glyph-name="uni1EA6" unicode="&#x1ea6;" horiz-adv-x="620" 
d="M162 289q-28 4 -54.5 6t-50.5 2q-57 0 -57 -40q0 -19 10 -27.5t26 -8.5q9 0 21 3q3 1 3.5 -2t-2.5 -4q-12 -3 -23 -3q-20 0 -30.5 11.5t-10.5 30.5q0 27 18.5 36.5t44.5 9.5q25 0 52 -2t56 -6l174 337q-12 22 -18 36t-6 29q0 14 8.5 21t19.5 7t19.5 -7t8.5 -21
q0 -15 -8.5 -33t-16.5 -31l242 -470q15 -8 40 -22t48 -31t40 -36t17 -37q0 -17 -9.5 -28.5t-27.5 -11.5q-12 0 -24.5 7.5t-21.5 24.5l-66 129q-106 53 -208.5 83.5t-207.5 47.5l-150 -291q-2 -2 -4.5 -1t-0.5 4zM656 31q8 -15 18.5 -21.5t21.5 -6.5q17 0 24 11t7 23
q0 16 -15.5 33.5t-37.5 33.5t-44.5 29t-36.5 21zM171 294q107 -17 206.5 -47t201.5 -80l-236 459zM343 719q-8 0 -15 -5.5t-7 -16.5q0 -14 5.5 -26.5t16.5 -32.5q10 18 16 31.5t6 27.5q0 11 -7 16.5t-15 5.5zM343 835l-96 -112q-2 -2 -4 0t0 4l98 114q2 2 4 0l98 -114
q2 -2 0 -4t-4 0zM309 940q-2 2 0 4.5t4 0.5l148 -114q3 -2 1 -4.5t-4 -0.5z" />
    <glyph glyph-name="uni1EA7" unicode="&#x1ea7;" horiz-adv-x="483" 
d="M413 -2q-39 59 -57 149q-11 -29 -26.5 -56t-36.5 -48t-47.5 -33.5t-59.5 -12.5q-38 0 -65.5 13.5t-45.5 36.5t-26.5 52t-8.5 61q0 37 11.5 67.5t32.5 52t50 33t64 11.5q19 0 39.5 -3.5t37 -12t27 -23.5t10.5 -37q0 -23 -13.5 -35.5t-33.5 -12.5q-19 0 -31.5 11.5
t-14.5 28.5q0 3 3 3t3 -3q2 -15 12.5 -24.5t27.5 -9.5q14 0 27.5 9.5t13.5 32.5q0 33 -28 51.5t-80 18.5q-33 0 -61 -11t-48.5 -32t-31.5 -50t-11 -65q0 -72 38 -114.5t102 -42.5q34 0 61.5 14t48 36.5t35 50t22.5 53.5q-8 40 -10 75.5t-2 59.5q0 22 8 27t13 5q8 0 15 -7.5
t7 -24.5q0 -18 -5 -55.5t-19 -80.5q7 -38 21.5 -80t36.5 -74q2 -3 -0.5 -5t-4.5 1zM362 318q-10 0 -12.5 -9t-2.5 -17q0 -20 2 -52.5t8 -70.5q13 39 17 72.5t4 50.5q0 26 -16 26zM200 493l-96 -112q-2 -2 -4 0t0 4l98 114q2 2 4 0l98 -114q2 -2 0 -4t-4 0zM165 577
q-2 2 0 4.5t4 0.5l148 -114q3 -2 1 -4.5t-4 -0.5z" />
    <glyph glyph-name="uni1EA8" unicode="&#x1ea8;" horiz-adv-x="620" 
d="M352 880q0 -1 -0.5 -1t-0.5 1v13q0 16 9 23.5t19.5 13.5t19.5 13.5t9 24.5t-15.5 26.5t-41.5 9.5q-8 0 -17 -1t-17 -4t-13.5 -8.5t-5.5 -14.5q0 -11 11 -11t13 9q0 1 0.5 1.5t0.5 -1.5q-2 -10 -14 -10q-13 0 -13 12q0 13 13 21t42 8q28 0 43.5 -10t15.5 -27t-9 -25.5
t-20 -14.5t-20 -13t-9 -22v-13zM162 289q-28 4 -54.5 6t-50.5 2q-57 0 -57 -40q0 -19 10 -27.5t26 -8.5q9 0 21 3q3 1 3.5 -2t-2.5 -4q-12 -3 -23 -3q-20 0 -30.5 11.5t-10.5 30.5q0 27 18.5 36.5t44.5 9.5q25 0 52 -2t56 -6l174 337q-12 22 -18 36t-6 29q0 14 8.5 21
t19.5 7t19.5 -7t8.5 -21q0 -15 -8.5 -33t-16.5 -31l242 -470q15 -8 40 -22t48 -31t40 -36t17 -37q0 -17 -9.5 -28.5t-27.5 -11.5q-12 0 -24.5 7.5t-21.5 24.5l-66 129q-106 53 -208.5 83.5t-207.5 47.5l-150 -291q-2 -2 -4.5 -1t-0.5 4zM656 31q8 -15 18.5 -21.5t21.5 -6.5
q17 0 24 11t7 23q0 16 -15.5 33.5t-37.5 33.5t-44.5 29t-36.5 21zM171 294q107 -17 206.5 -47t201.5 -80l-236 459zM343 719q-8 0 -15 -5.5t-7 -16.5q0 -14 5.5 -26.5t16.5 -32.5q10 18 16 31.5t6 27.5q0 11 -7 16.5t-15 5.5zM343 835l-96 -112q-2 -2 -4 0t0 4l98 114
q2 2 4 0l98 -114q2 -2 0 -4t-4 0z" />
    <glyph glyph-name="uni1EA9" unicode="&#x1ea9;" horiz-adv-x="483" 
d="M413 -2q-39 59 -57 149q-11 -29 -26.5 -56t-36.5 -48t-47.5 -33.5t-59.5 -12.5q-38 0 -65.5 13.5t-45.5 36.5t-26.5 52t-8.5 61q0 37 11.5 67.5t32.5 52t50 33t64 11.5q19 0 39.5 -3.5t37 -12t27 -23.5t10.5 -37q0 -23 -13.5 -35.5t-33.5 -12.5q-19 0 -31.5 11.5
t-14.5 28.5q0 3 3 3t3 -3q2 -15 12.5 -24.5t27.5 -9.5q14 0 27.5 9.5t13.5 32.5q0 33 -28 51.5t-80 18.5q-33 0 -61 -11t-48.5 -32t-31.5 -50t-11 -65q0 -72 38 -114.5t102 -42.5q34 0 61.5 14t48 36.5t35 50t22.5 53.5q-8 40 -10 75.5t-2 59.5q0 22 8 27t13 5q8 0 15 -7.5
t7 -24.5q0 -18 -5 -55.5t-19 -80.5q7 -38 21.5 -80t36.5 -74q2 -3 -0.5 -5t-4.5 1zM362 318q-10 0 -12.5 -9t-2.5 -17q0 -20 2 -52.5t8 -70.5q13 39 17 72.5t4 50.5q0 26 -16 26zM200 493l-96 -112q-2 -2 -4 0t0 4l98 114q2 2 4 0l98 -114q2 -2 0 -4t-4 0zM277 491
q0 -1 -0.5 -1t-0.5 1v13q0 16 9 23.5t19.5 13.5t19.5 13.5t9 24.5t-15.5 26.5t-41.5 9.5q-8 0 -17 -1t-17 -4t-13.5 -8.5t-5.5 -14.5q0 -11 11 -11t13 9q0 1 0.5 1.5t0.5 -1.5q-2 -10 -14 -10q-13 0 -13 12q0 13 13 21t42 8q28 0 43.5 -10t15.5 -27t-9 -25.5t-20 -14.5
t-20 -13t-9 -22v-13z" />
    <glyph glyph-name="uni1EAA" unicode="&#x1eaa;" horiz-adv-x="620" 
d="M162 289q-28 4 -54.5 6t-50.5 2q-57 0 -57 -40q0 -19 10 -27.5t26 -8.5q9 0 21 3q3 1 3.5 -2t-2.5 -4q-12 -3 -23 -3q-20 0 -30.5 11.5t-10.5 30.5q0 27 18.5 36.5t44.5 9.5q25 0 52 -2t56 -6l174 337q-12 22 -18 36t-6 29q0 14 8.5 21t19.5 7t19.5 -7t8.5 -21
q0 -15 -8.5 -33t-16.5 -31l242 -470q15 -8 40 -22t48 -31t40 -36t17 -37q0 -17 -9.5 -28.5t-27.5 -11.5q-12 0 -24.5 7.5t-21.5 24.5l-66 129q-106 53 -208.5 83.5t-207.5 47.5l-150 -291q-2 -2 -4.5 -1t-0.5 4zM656 31q8 -15 18.5 -21.5t21.5 -6.5q17 0 24 11t7 23
q0 16 -15.5 33.5t-37.5 33.5t-44.5 29t-36.5 21zM171 294q107 -17 206.5 -47t201.5 -80l-236 459zM343 719q-8 0 -15 -5.5t-7 -16.5q0 -14 5.5 -26.5t16.5 -32.5q10 18 16 31.5t6 27.5q0 11 -7 16.5t-15 5.5zM343 835l-96 -112q-2 -2 -4 0t0 4l98 114q2 2 4 0l98 -114
q2 -2 0 -4t-4 0zM357 867q-13 0 -25 6t-24 14t-23.5 14t-24.5 6q-11 0 -22.5 -6t-24.5 -23q-2 -2 -4.5 0t-0.5 4q25 32 55 31q13 -2 25 -7.5t23 -13.5q12 -8 23.5 -13.5t22.5 -5.5q27 -2 50 33q2 2 4.5 0.5t0.5 -4.5q-11 -16 -24.5 -25.5t-30.5 -9.5z" />
    <glyph glyph-name="uni1EAB" unicode="&#x1eab;" horiz-adv-x="483" 
d="M413 -2q-39 59 -57 149q-11 -29 -26.5 -56t-36.5 -48t-47.5 -33.5t-59.5 -12.5q-38 0 -65.5 13.5t-45.5 36.5t-26.5 52t-8.5 61q0 37 11.5 67.5t32.5 52t50 33t64 11.5q19 0 39.5 -3.5t37 -12t27 -23.5t10.5 -37q0 -23 -13.5 -35.5t-33.5 -12.5q-19 0 -31.5 11.5
t-14.5 28.5q0 3 3 3t3 -3q2 -15 12.5 -24.5t27.5 -9.5q14 0 27.5 9.5t13.5 32.5q0 33 -28 51.5t-80 18.5q-33 0 -61 -11t-48.5 -32t-31.5 -50t-11 -65q0 -72 38 -114.5t102 -42.5q34 0 61.5 14t48 36.5t35 50t22.5 53.5q-8 40 -10 75.5t-2 59.5q0 22 8 27t13 5q8 0 15 -7.5
t7 -24.5q0 -18 -5 -55.5t-19 -80.5q7 -38 21.5 -80t36.5 -74q2 -3 -0.5 -5t-4.5 1zM362 318q-10 0 -12.5 -9t-2.5 -17q0 -20 2 -52.5t8 -70.5q13 39 17 72.5t4 50.5q0 26 -16 26zM200 493l-96 -112q-2 -2 -4 0t0 4l98 114q2 2 4 0l98 -114q2 -2 0 -4t-4 0zM288 515
q-13 0 -25 6t-24 14t-23.5 14t-24.5 6q-11 0 -22.5 -6t-24.5 -23q-2 -2 -4.5 0t-0.5 4q25 32 55 31q13 -2 25 -7.5t23 -13.5q12 -8 23.5 -13.5t22.5 -5.5q27 -2 50 33q2 2 4.5 0.5t0.5 -4.5q-11 -16 -24.5 -25.5t-30.5 -9.5z" />
    <glyph glyph-name="uni1EAC" unicode="&#x1eac;" horiz-adv-x="693" 
d="M162 289q-28 4 -54.5 6t-50.5 2q-57 0 -57 -40q0 -19 10 -27.5t26 -8.5q9 0 21 3q3 1 3.5 -2t-2.5 -4q-12 -3 -23 -3q-20 0 -30.5 11.5t-10.5 30.5q0 27 18.5 36.5t44.5 9.5q25 0 52 -2t56 -6l174 337q-12 22 -18 36t-6 29q0 14 8.5 21t19.5 7t19.5 -7t8.5 -21
q0 -15 -8.5 -33t-16.5 -31l242 -470q15 -8 40 -22t48 -31t40 -36t17 -37q0 -17 -9.5 -28.5t-27.5 -11.5q-12 0 -24.5 7.5t-21.5 24.5l-66 129q-106 53 -208.5 83.5t-207.5 47.5l-150 -291q-2 -2 -4.5 -1t-0.5 4zM656 31q8 -15 18.5 -21.5t21.5 -6.5q17 0 24 11t7 23
q0 16 -15.5 33.5t-37.5 33.5t-44.5 29t-36.5 21zM171 294q107 -17 206.5 -47t201.5 -80l-236 459zM343 719q-8 0 -15 -5.5t-7 -16.5q0 -14 5.5 -26.5t16.5 -32.5q10 18 16 31.5t6 27.5q0 11 -7 16.5t-15 5.5zM360 -48q0 -7 -5 -11.5t-12 -4.5q-6 0 -11 4.5t-5 11.5t5 12
t11 5q7 0 12 -5t5 -12zM346 927l-96 -112q-2 -2 -4 0t0 4l98 114q2 2 4 0l98 -114q2 -2 0 -4t-4 0z" />
    <glyph glyph-name="uni1EAD" unicode="&#x1ead;" horiz-adv-x="463" 
d="M413 -2q-39 59 -57 149q-11 -29 -26.5 -56t-36.5 -48t-47.5 -33.5t-59.5 -12.5q-38 0 -65.5 13.5t-45.5 36.5t-26.5 52t-8.5 61q0 37 11.5 67.5t32.5 52t50 33t64 11.5q19 0 39.5 -3.5t37 -12t27 -23.5t10.5 -37q0 -23 -13.5 -35.5t-33.5 -12.5q-19 0 -31.5 11.5
t-14.5 28.5q0 3 3 3t3 -3q2 -15 12.5 -24.5t27.5 -9.5q14 0 27.5 9.5t13.5 32.5q0 33 -28 51.5t-80 18.5q-33 0 -61 -11t-48.5 -32t-31.5 -50t-11 -65q0 -72 38 -114.5t102 -42.5q34 0 61.5 14t48 36.5t35 50t22.5 53.5q-8 40 -10 75.5t-2 59.5q0 22 8 27t13 5q8 0 15 -7.5
t7 -24.5q0 -18 -5 -55.5t-19 -80.5q7 -38 21.5 -80t36.5 -74q2 -3 -0.5 -5t-4.5 1zM362 318q-10 0 -12.5 -9t-2.5 -17q0 -20 2 -52.5t8 -70.5q13 39 17 72.5t4 50.5q0 26 -16 26zM231 575l-96 -112q-2 -2 -4 0t0 4l98 114q2 2 4 0l98 -114q2 -2 0 -4t-4 0zM209 -63
q0 -7 -5 -11.5t-12 -4.5q-6 0 -11 4.5t-5 11.5t5 12t11 5q7 0 12 -5t5 -12z" />
    <glyph glyph-name="uni1EAE" unicode="&#x1eae;" horiz-adv-x="693" 
d="M162 289q-28 4 -54.5 6t-50.5 2q-57 0 -57 -40q0 -19 10 -27.5t26 -8.5q9 0 21 3q3 1 3.5 -2t-2.5 -4q-12 -3 -23 -3q-20 0 -30.5 11.5t-10.5 30.5q0 27 18.5 36.5t44.5 9.5q25 0 52 -2t56 -6l174 337q-12 22 -18 36t-6 29q0 14 8.5 21t19.5 7t19.5 -7t8.5 -21
q0 -15 -8.5 -33t-16.5 -31l242 -470q15 -8 40 -22t48 -31t40 -36t17 -37q0 -17 -9.5 -28.5t-27.5 -11.5q-12 0 -24.5 7.5t-21.5 24.5l-66 129q-106 53 -208.5 83.5t-207.5 47.5l-150 -291q-2 -2 -4.5 -1t-0.5 4zM656 31q8 -15 18.5 -21.5t21.5 -6.5q17 0 24 11t7 23
q0 16 -15.5 33.5t-37.5 33.5t-44.5 29t-36.5 21zM171 294q107 -17 206.5 -47t201.5 -80l-236 459zM343 719q-8 0 -15 -5.5t-7 -16.5q0 -14 5.5 -26.5t16.5 -32.5q10 18 16 31.5t6 27.5q0 11 -7 16.5t-15 5.5zM346 819q-38 0 -62 26.5t-24 67.5q0 3 3 3t3 -3q0 -38 22.5 -63
t57.5 -25t57.5 25t22.5 63q0 3 3 3t3 -3q0 -41 -24 -67.5t-62 -26.5zM478 1026q2 2 3.5 -0.5t-0.5 -4.5l-148 -114q-2 -2 -4.5 0.5t1.5 4.5z" />
    <glyph glyph-name="uni1EAF" unicode="&#x1eaf;" horiz-adv-x="463" 
d="M413 -2q-39 59 -57 149q-11 -29 -26.5 -56t-36.5 -48t-47.5 -33.5t-59.5 -12.5q-38 0 -65.5 13.5t-45.5 36.5t-26.5 52t-8.5 61q0 37 11.5 67.5t32.5 52t50 33t64 11.5q19 0 39.5 -3.5t37 -12t27 -23.5t10.5 -37q0 -23 -13.5 -35.5t-33.5 -12.5q-19 0 -31.5 11.5
t-14.5 28.5q0 3 3 3t3 -3q2 -15 12.5 -24.5t27.5 -9.5q14 0 27.5 9.5t13.5 32.5q0 33 -28 51.5t-80 18.5q-33 0 -61 -11t-48.5 -32t-31.5 -50t-11 -65q0 -72 38 -114.5t102 -42.5q34 0 61.5 14t48 36.5t35 50t22.5 53.5q-8 40 -10 75.5t-2 59.5q0 22 8 27t13 5q8 0 15 -7.5
t7 -24.5q0 -18 -5 -55.5t-19 -80.5q7 -38 21.5 -80t36.5 -74q2 -3 -0.5 -5t-4.5 1zM362 318q-10 0 -12.5 -9t-2.5 -17q0 -20 2 -52.5t8 -70.5q13 39 17 72.5t4 50.5q0 26 -16 26zM231 467q-38 0 -62 26.5t-24 67.5q0 3 3 3t3 -3q0 -38 22.5 -63t57.5 -25t57.5 25t22.5 63
q0 3 3 3t3 -3q0 -41 -24 -67.5t-62 -26.5zM368 672q2 2 3.5 -0.5t-0.5 -4.5l-148 -114q-2 -2 -4.5 0.5t1.5 4.5z" />
    <glyph glyph-name="uni1EB0" unicode="&#x1eb0;" horiz-adv-x="693" 
d="M162 289q-28 4 -54.5 6t-50.5 2q-57 0 -57 -40q0 -19 10 -27.5t26 -8.5q9 0 21 3q3 1 3.5 -2t-2.5 -4q-12 -3 -23 -3q-20 0 -30.5 11.5t-10.5 30.5q0 27 18.5 36.5t44.5 9.5q25 0 52 -2t56 -6l174 337q-12 22 -18 36t-6 29q0 14 8.5 21t19.5 7t19.5 -7t8.5 -21
q0 -15 -8.5 -33t-16.5 -31l242 -470q15 -8 40 -22t48 -31t40 -36t17 -37q0 -17 -9.5 -28.5t-27.5 -11.5q-12 0 -24.5 7.5t-21.5 24.5l-66 129q-106 53 -208.5 83.5t-207.5 47.5l-150 -291q-2 -2 -4.5 -1t-0.5 4zM656 31q8 -15 18.5 -21.5t21.5 -6.5q17 0 24 11t7 23
q0 16 -15.5 33.5t-37.5 33.5t-44.5 29t-36.5 21zM171 294q107 -17 206.5 -47t201.5 -80l-236 459zM343 719q-8 0 -15 -5.5t-7 -16.5q0 -14 5.5 -26.5t16.5 -32.5q10 18 16 31.5t6 27.5q0 11 -7 16.5t-15 5.5zM346 819q-38 0 -62 26.5t-24 67.5q0 3 3 3t3 -3q0 -38 22.5 -63
t57.5 -25t57.5 25t22.5 63q0 3 3 3t3 -3q0 -41 -24 -67.5t-62 -26.5zM243 1022q-2 2 0 4.5t4 0.5l148 -114q3 -2 1 -4.5t-4 -0.5z" />
    <glyph glyph-name="uni1EB1" unicode="&#x1eb1;" horiz-adv-x="463" 
d="M413 -2q-39 59 -57 149q-11 -29 -26.5 -56t-36.5 -48t-47.5 -33.5t-59.5 -12.5q-38 0 -65.5 13.5t-45.5 36.5t-26.5 52t-8.5 61q0 37 11.5 67.5t32.5 52t50 33t64 11.5q19 0 39.5 -3.5t37 -12t27 -23.5t10.5 -37q0 -23 -13.5 -35.5t-33.5 -12.5q-19 0 -31.5 11.5
t-14.5 28.5q0 3 3 3t3 -3q2 -15 12.5 -24.5t27.5 -9.5q14 0 27.5 9.5t13.5 32.5q0 33 -28 51.5t-80 18.5q-33 0 -61 -11t-48.5 -32t-31.5 -50t-11 -65q0 -72 38 -114.5t102 -42.5q34 0 61.5 14t48 36.5t35 50t22.5 53.5q-8 40 -10 75.5t-2 59.5q0 22 8 27t13 5q8 0 15 -7.5
t7 -24.5q0 -18 -5 -55.5t-19 -80.5q7 -38 21.5 -80t36.5 -74q2 -3 -0.5 -5t-4.5 1zM362 318q-10 0 -12.5 -9t-2.5 -17q0 -20 2 -52.5t8 -70.5q13 39 17 72.5t4 50.5q0 26 -16 26zM231 467q-38 0 -62 26.5t-24 67.5q0 3 3 3t3 -3q0 -38 22.5 -63t57.5 -25t57.5 25t22.5 63
q0 3 3 3t3 -3q0 -41 -24 -67.5t-62 -26.5zM112 673q-2 2 0 4.5t4 0.5l148 -114q3 -2 1 -4.5t-4 -0.5z" />
    <glyph glyph-name="uni1EB2" unicode="&#x1eb2;" horiz-adv-x="693" 
d="M348 884q0 -1 -0.5 -1t-0.5 1v13q0 16 9 23.5t19.5 13.5t19.5 13.5t9 24.5t-15.5 26.5t-41.5 9.5q-8 0 -17 -1t-17 -4t-13.5 -8.5t-5.5 -14.5q0 -11 11 -11t13 9q0 1 0.5 1.5t0.5 -1.5q-2 -10 -14 -10q-13 0 -13 12q0 13 13 21t42 8q28 0 43.5 -10t15.5 -27t-9 -25.5
t-20 -14.5t-20 -13t-9 -22v-13zM162 289q-28 4 -54.5 6t-50.5 2q-57 0 -57 -40q0 -19 10 -27.5t26 -8.5q9 0 21 3q3 1 3.5 -2t-2.5 -4q-12 -3 -23 -3q-20 0 -30.5 11.5t-10.5 30.5q0 27 18.5 36.5t44.5 9.5q25 0 52 -2t56 -6l174 337q-12 22 -18 36t-6 29q0 14 8.5 21
t19.5 7t19.5 -7t8.5 -21q0 -15 -8.5 -33t-16.5 -31l242 -470q15 -8 40 -22t48 -31t40 -36t17 -37q0 -17 -9.5 -28.5t-27.5 -11.5q-12 0 -24.5 7.5t-21.5 24.5l-66 129q-106 53 -208.5 83.5t-207.5 47.5l-150 -291q-2 -2 -4.5 -1t-0.5 4zM656 31q8 -15 18.5 -21.5t21.5 -6.5
q17 0 24 11t7 23q0 16 -15.5 33.5t-37.5 33.5t-44.5 29t-36.5 21zM171 294q107 -17 206.5 -47t201.5 -80l-236 459zM343 719q-8 0 -15 -5.5t-7 -16.5q0 -14 5.5 -26.5t16.5 -32.5q10 18 16 31.5t6 27.5q0 11 -7 16.5t-15 5.5zM346 819q-38 0 -62 26.5t-24 67.5q0 3 3 3t3 -3
q0 -38 22.5 -63t57.5 -25t57.5 25t22.5 63q0 3 3 3t3 -3q0 -41 -24 -67.5t-62 -26.5z" />
    <glyph glyph-name="uni1EB3" unicode="&#x1eb3;" horiz-adv-x="463" 
d="M413 -2q-39 59 -57 149q-11 -29 -26.5 -56t-36.5 -48t-47.5 -33.5t-59.5 -12.5q-38 0 -65.5 13.5t-45.5 36.5t-26.5 52t-8.5 61q0 37 11.5 67.5t32.5 52t50 33t64 11.5q19 0 39.5 -3.5t37 -12t27 -23.5t10.5 -37q0 -23 -13.5 -35.5t-33.5 -12.5q-19 0 -31.5 11.5
t-14.5 28.5q0 3 3 3t3 -3q2 -15 12.5 -24.5t27.5 -9.5q14 0 27.5 9.5t13.5 32.5q0 33 -28 51.5t-80 18.5q-33 0 -61 -11t-48.5 -32t-31.5 -50t-11 -65q0 -72 38 -114.5t102 -42.5q34 0 61.5 14t48 36.5t35 50t22.5 53.5q-8 40 -10 75.5t-2 59.5q0 22 8 27t13 5q8 0 15 -7.5
t7 -24.5q0 -18 -5 -55.5t-19 -80.5q7 -38 21.5 -80t36.5 -74q2 -3 -0.5 -5t-4.5 1zM362 318q-10 0 -12.5 -9t-2.5 -17q0 -20 2 -52.5t8 -70.5q13 39 17 72.5t4 50.5q0 26 -16 26zM231 467q-38 0 -62 26.5t-24 67.5q0 3 3 3t3 -3q0 -38 22.5 -63t57.5 -25t57.5 25t22.5 63
q0 3 3 3t3 -3q0 -41 -24 -67.5t-62 -26.5zM230 546q0 -1 -0.5 -1t-0.5 1v13q0 16 9 23.5t19.5 13.5t19.5 13.5t9 24.5t-15.5 26.5t-41.5 9.5q-8 0 -17 -1t-17 -4t-13.5 -8.5t-5.5 -14.5q0 -11 11 -11t13 9q0 1 0.5 1.5t0.5 -1.5q-2 -10 -14 -10q-13 0 -13 12q0 13 13 21
t42 8q28 0 43.5 -10t15.5 -27t-9 -25.5t-20 -14.5t-20 -13t-9 -22v-13z" />
    <glyph glyph-name="uni1EB4" unicode="&#x1eb4;" horiz-adv-x="693" 
d="M162 289q-28 4 -54.5 6t-50.5 2q-57 0 -57 -40q0 -19 10 -27.5t26 -8.5q9 0 21 3q3 1 3.5 -2t-2.5 -4q-12 -3 -23 -3q-20 0 -30.5 11.5t-10.5 30.5q0 27 18.5 36.5t44.5 9.5q25 0 52 -2t56 -6l174 337q-12 22 -18 36t-6 29q0 14 8.5 21t19.5 7t19.5 -7t8.5 -21
q0 -15 -8.5 -33t-16.5 -31l242 -470q15 -8 40 -22t48 -31t40 -36t17 -37q0 -17 -9.5 -28.5t-27.5 -11.5q-12 0 -24.5 7.5t-21.5 24.5l-66 129q-106 53 -208.5 83.5t-207.5 47.5l-150 -291q-2 -2 -4.5 -1t-0.5 4zM656 31q8 -15 18.5 -21.5t21.5 -6.5q17 0 24 11t7 23
q0 16 -15.5 33.5t-37.5 33.5t-44.5 29t-36.5 21zM171 294q107 -17 206.5 -47t201.5 -80l-236 459zM343 719q-8 0 -15 -5.5t-7 -16.5q0 -14 5.5 -26.5t16.5 -32.5q10 18 16 31.5t6 27.5q0 11 -7 16.5t-15 5.5zM346 819q-38 0 -62 26.5t-24 67.5q0 3 3 3t3 -3q0 -38 22.5 -63
t57.5 -25t57.5 25t22.5 63q0 3 3 3t3 -3q0 -41 -24 -67.5t-62 -26.5zM401 947q-13 0 -25 6t-24 14t-23.5 14t-24.5 6q-11 0 -22.5 -6t-24.5 -23q-2 -2 -4.5 0t-0.5 4q25 32 55 31q13 -2 25 -7.5t23 -13.5q12 -8 23.5 -13.5t22.5 -5.5q27 -2 50 33q2 2 4.5 0.5t0.5 -4.5
q-11 -16 -24.5 -25.5t-30.5 -9.5z" />
    <glyph glyph-name="uni1EB5" unicode="&#x1eb5;" horiz-adv-x="463" 
d="M413 -2q-39 59 -57 149q-11 -29 -26.5 -56t-36.5 -48t-47.5 -33.5t-59.5 -12.5q-38 0 -65.5 13.5t-45.5 36.5t-26.5 52t-8.5 61q0 37 11.5 67.5t32.5 52t50 33t64 11.5q19 0 39.5 -3.5t37 -12t27 -23.5t10.5 -37q0 -23 -13.5 -35.5t-33.5 -12.5q-19 0 -31.5 11.5
t-14.5 28.5q0 3 3 3t3 -3q2 -15 12.5 -24.5t27.5 -9.5q14 0 27.5 9.5t13.5 32.5q0 33 -28 51.5t-80 18.5q-33 0 -61 -11t-48.5 -32t-31.5 -50t-11 -65q0 -72 38 -114.5t102 -42.5q34 0 61.5 14t48 36.5t35 50t22.5 53.5q-8 40 -10 75.5t-2 59.5q0 22 8 27t13 5q8 0 15 -7.5
t7 -24.5q0 -18 -5 -55.5t-19 -80.5q7 -38 21.5 -80t36.5 -74q2 -3 -0.5 -5t-4.5 1zM362 318q-10 0 -12.5 -9t-2.5 -17q0 -20 2 -52.5t8 -70.5q13 39 17 72.5t4 50.5q0 26 -16 26zM231 467q-38 0 -62 26.5t-24 67.5q0 3 3 3t3 -3q0 -38 22.5 -63t57.5 -25t57.5 25t22.5 63
q0 3 3 3t3 -3q0 -41 -24 -67.5t-62 -26.5zM281 594q-13 0 -25 6t-24 14t-23.5 14t-24.5 6q-11 0 -22.5 -6t-24.5 -23q-2 -2 -4.5 0t-0.5 4q25 32 55 31q13 -2 25 -7.5t23 -13.5q12 -8 23.5 -13.5t22.5 -5.5q27 -2 50 33q2 2 4.5 0.5t0.5 -4.5q-11 -16 -24.5 -25.5
t-30.5 -9.5z" />
    <glyph glyph-name="uni1EB6" unicode="&#x1eb6;" horiz-adv-x="693" 
d="M162 289q-28 4 -54.5 6t-50.5 2q-57 0 -57 -40q0 -19 10 -27.5t26 -8.5q9 0 21 3q3 1 3.5 -2t-2.5 -4q-12 -3 -23 -3q-20 0 -30.5 11.5t-10.5 30.5q0 27 18.5 36.5t44.5 9.5q25 0 52 -2t56 -6l174 337q-12 22 -18 36t-6 29q0 14 8.5 21t19.5 7t19.5 -7t8.5 -21
q0 -15 -8.5 -33t-16.5 -31l242 -470q15 -8 40 -22t48 -31t40 -36t17 -37q0 -17 -9.5 -28.5t-27.5 -11.5q-12 0 -24.5 7.5t-21.5 24.5l-66 129q-106 53 -208.5 83.5t-207.5 47.5l-150 -291q-2 -2 -4.5 -1t-0.5 4zM656 31q8 -15 18.5 -21.5t21.5 -6.5q17 0 24 11t7 23
q0 16 -15.5 33.5t-37.5 33.5t-44.5 29t-36.5 21zM171 294q107 -17 206.5 -47t201.5 -80l-236 459zM343 719q-8 0 -15 -5.5t-7 -16.5q0 -14 5.5 -26.5t16.5 -32.5q10 18 16 31.5t6 27.5q0 11 -7 16.5t-15 5.5zM360 -48q0 -7 -5 -11.5t-12 -4.5q-6 0 -11 4.5t-5 11.5t5 12
t11 5q7 0 12 -5t5 -12zM346 819q-38 0 -62 26.5t-24 67.5q0 3 3 3t3 -3q0 -38 22.5 -63t57.5 -25t57.5 25t22.5 63q0 3 3 3t3 -3q0 -41 -24 -67.5t-62 -26.5z" />
    <glyph glyph-name="uni1EB7" unicode="&#x1eb7;" horiz-adv-x="463" 
d="M413 -2q-39 59 -57 149q-11 -29 -26.5 -56t-36.5 -48t-47.5 -33.5t-59.5 -12.5q-38 0 -65.5 13.5t-45.5 36.5t-26.5 52t-8.5 61q0 37 11.5 67.5t32.5 52t50 33t64 11.5q19 0 39.5 -3.5t37 -12t27 -23.5t10.5 -37q0 -23 -13.5 -35.5t-33.5 -12.5q-19 0 -31.5 11.5
t-14.5 28.5q0 3 3 3t3 -3q2 -15 12.5 -24.5t27.5 -9.5q14 0 27.5 9.5t13.5 32.5q0 33 -28 51.5t-80 18.5q-33 0 -61 -11t-48.5 -32t-31.5 -50t-11 -65q0 -72 38 -114.5t102 -42.5q34 0 61.5 14t48 36.5t35 50t22.5 53.5q-8 40 -10 75.5t-2 59.5q0 22 8 27t13 5q8 0 15 -7.5
t7 -24.5q0 -18 -5 -55.5t-19 -80.5q7 -38 21.5 -80t36.5 -74q2 -3 -0.5 -5t-4.5 1zM362 318q-10 0 -12.5 -9t-2.5 -17q0 -20 2 -52.5t8 -70.5q13 39 17 72.5t4 50.5q0 26 -16 26zM231 467q-38 0 -62 26.5t-24 67.5q0 3 3 3t3 -3q0 -38 22.5 -63t57.5 -25t57.5 25t22.5 63
q0 3 3 3t3 -3q0 -41 -24 -67.5t-62 -26.5zM215 -73q0 -7 -5 -11.5t-12 -4.5q-6 0 -11 4.5t-5 11.5t5 12t11 5q7 0 12 -5t5 -12z" />
    <glyph glyph-name="uni1EB8" unicode="&#x1eb8;" horiz-adv-x="696" 
d="M346 -3q-58 0 -110 9t-91 32t-62 62t-23 98q0 62 34 106.5t97 66.5q-17 9 -31 18.5t-24.5 22.5t-16 29.5t-5.5 39.5q0 38 9 79.5t9 83.5h-29q-17 0 -24.5 8t-7.5 19q0 14 10 20t21 6q20 0 27 -14.5t9 -32.5q61 1 109.5 4t93.5 7t87 6.5t95 2.5q38 0 59.5 -22t21.5 -54
q0 -24 -14.5 -48.5t-47.5 -37.5q-4 -2 -5 1.5t2 4.5q32 12 45.5 34.5t13.5 45.5q0 33 -21.5 51.5t-53.5 18.5q-52 0 -94 -2.5t-87 -6.5t-93.5 -7t-110.5 -4q-1 -45 -9.5 -86.5t-8.5 -76.5q0 -25 7 -42.5t18 -29.5t25 -20t28 -15q32 11 69 16.5t80 5.5q24 0 34 -8.5t10 -19.5
q0 -13 -12 -20.5t-32 -7.5q-90 0 -149 28q-62 -22 -97 -64.5t-35 -105.5q0 -195 280 -195q140 0 214 30t74 84q0 16 -6 26t-15 15.5t-19.5 7t-19.5 1.5q-23 0 -38.5 -10.5t-18.5 -29.5q-1 -3 -3.5 -3t-2.5 3q2 21 19.5 33.5t43.5 12.5q32 0 49 -14.5t17 -41.5
q0 -54 -71.5 -87t-222.5 -33zM206 370q28 -11 63.5 -17.5t77.5 -6.5q37 0 37 22t-37 22q-79 0 -141 -20zM102 691q-11 0 -18 -5.5t-7 -14.5q0 -8 6 -14.5t20 -6.5h29q-2 18 -7.5 29.5t-22.5 11.5zM355 -74q0 -7 -5 -11.5t-12 -4.5q-6 0 -11 4.5t-5 11.5t5 12t11 5q7 0 12 -5
t5 -12z" />
    <glyph glyph-name="uni1EB9" unicode="&#x1eb9;" horiz-adv-x="364" 
d="M195 -3q-72 0 -113.5 44t-41.5 119q0 36 11.5 66.5t32.5 52t50 33.5t64 12q58 0 91 -22t33 -69q0 -34 -23 -48q-20 -14 -59 -17l-194 -16q3 -69 42.5 -109t106.5 -40q85 0 127 54q2 3 4 1t0 -4q-42 -57 -131 -57zM198 318q-33 0 -61 -11.5t-48.5 -32.5t-31.5 -50.5
t-11 -65.5l193 16q77 6 77 59q0 24 -9 40t-25 26t-37.5 14.5t-46.5 4.5zM215 -73q0 -7 -5 -11.5t-12 -4.5q-6 0 -11 4.5t-5 11.5t5 12t11 5q7 0 12 -5t5 -12z" />
    <glyph glyph-name="uni1EBA" unicode="&#x1eba;" horiz-adv-x="696" 
d="M346 -3q-58 0 -110 9t-91 32t-62 62t-23 98q0 62 34 106.5t97 66.5q-17 9 -31 18.5t-24.5 22.5t-16 29.5t-5.5 39.5q0 38 9 79.5t9 83.5h-29q-17 0 -24.5 8t-7.5 19q0 14 10 20t21 6q20 0 27 -14.5t9 -32.5q61 1 109.5 4t93.5 7t87 6.5t95 2.5q38 0 59.5 -22t21.5 -54
q0 -24 -14.5 -48.5t-47.5 -37.5q-4 -2 -5 1.5t2 4.5q32 12 45.5 34.5t13.5 45.5q0 33 -21.5 51.5t-53.5 18.5q-52 0 -94 -2.5t-87 -6.5t-93.5 -7t-110.5 -4q-1 -45 -9.5 -86.5t-8.5 -76.5q0 -25 7 -42.5t18 -29.5t25 -20t28 -15q32 11 69 16.5t80 5.5q24 0 34 -8.5t10 -19.5
q0 -13 -12 -20.5t-32 -7.5q-90 0 -149 28q-62 -22 -97 -64.5t-35 -105.5q0 -195 280 -195q140 0 214 30t74 84q0 16 -6 26t-15 15.5t-19.5 7t-19.5 1.5q-23 0 -38.5 -10.5t-18.5 -29.5q-1 -3 -3.5 -3t-2.5 3q2 21 19.5 33.5t43.5 12.5q32 0 49 -14.5t17 -41.5
q0 -54 -71.5 -87t-222.5 -33zM206 370q28 -11 63.5 -17.5t77.5 -6.5q37 0 37 22t-37 22q-79 0 -141 -20zM102 691q-11 0 -18 -5.5t-7 -14.5q0 -8 6 -14.5t20 -6.5h29q-2 18 -7.5 29.5t-22.5 11.5zM365 747q0 -1 -0.5 -1t-0.5 1v13q0 16 9 23.5t19.5 13.5t19.5 13.5t9 24.5
t-15.5 26.5t-41.5 9.5q-8 0 -17 -1t-17 -4t-13.5 -8.5t-5.5 -14.5q0 -11 11 -11t13 9q0 1 0.5 1.5t0.5 -1.5q-2 -10 -14 -10q-13 0 -13 12q0 13 13 21t42 8q28 0 43.5 -10t15.5 -27t-9 -25.5t-20 -14.5t-20 -13t-9 -22v-13z" />
    <glyph glyph-name="uni1EBB" unicode="&#x1ebb;" horiz-adv-x="364" 
d="M195 -3q-72 0 -113.5 44t-41.5 119q0 36 11.5 66.5t32.5 52t50 33.5t64 12q58 0 91 -22t33 -69q0 -34 -23 -48q-20 -14 -59 -17l-194 -16q3 -69 42.5 -109t106.5 -40q85 0 127 54q2 3 4 1t0 -4q-42 -57 -131 -57zM198 318q-33 0 -61 -11.5t-48.5 -32.5t-31.5 -50.5
t-11 -65.5l193 16q77 6 77 59q0 24 -9 40t-25 26t-37.5 14.5t-46.5 4.5zM218 407q0 -1 -0.5 -1t-0.5 1v13q0 16 9 23.5t19.5 13.5t19.5 13.5t9 24.5t-15.5 26.5t-41.5 9.5q-8 0 -17 -1t-17 -4t-13.5 -8.5t-5.5 -14.5q0 -11 11 -11t13 9q0 1 0.5 1.5t0.5 -1.5q-2 -10 -14 -10
q-13 0 -13 12q0 13 13 21t42 8q28 0 43.5 -10t15.5 -27t-9 -25.5t-20 -14.5t-20 -13t-9 -22v-13z" />
    <glyph glyph-name="uni1EBC" unicode="&#x1ebc;" horiz-adv-x="696" 
d="M346 -3q-58 0 -110 9t-91 32t-62 62t-23 98q0 62 34 106.5t97 66.5q-17 9 -31 18.5t-24.5 22.5t-16 29.5t-5.5 39.5q0 38 9 79.5t9 83.5h-29q-17 0 -24.5 8t-7.5 19q0 14 10 20t21 6q20 0 27 -14.5t9 -32.5q61 1 109.5 4t93.5 7t87 6.5t95 2.5q38 0 59.5 -22t21.5 -54
q0 -24 -14.5 -48.5t-47.5 -37.5q-4 -2 -5 1.5t2 4.5q32 12 45.5 34.5t13.5 45.5q0 33 -21.5 51.5t-53.5 18.5q-52 0 -94 -2.5t-87 -6.5t-93.5 -7t-110.5 -4q-1 -45 -9.5 -86.5t-8.5 -76.5q0 -25 7 -42.5t18 -29.5t25 -20t28 -15q32 11 69 16.5t80 5.5q24 0 34 -8.5t10 -19.5
q0 -13 -12 -20.5t-32 -7.5q-90 0 -149 28q-62 -22 -97 -64.5t-35 -105.5q0 -195 280 -195q140 0 214 30t74 84q0 16 -6 26t-15 15.5t-19.5 7t-19.5 1.5q-23 0 -38.5 -10.5t-18.5 -29.5q-1 -3 -3.5 -3t-2.5 3q2 21 19.5 33.5t43.5 12.5q32 0 49 -14.5t17 -41.5
q0 -54 -71.5 -87t-222.5 -33zM206 370q28 -11 63.5 -17.5t77.5 -6.5q37 0 37 22t-37 22q-79 0 -141 -20zM102 691q-11 0 -18 -5.5t-7 -14.5q0 -8 6 -14.5t20 -6.5h29q-2 18 -7.5 29.5t-22.5 11.5zM395 867q-13 0 -25 6t-24 14t-23.5 14t-24.5 6q-11 0 -22.5 -6t-24.5 -23
q-2 -2 -4.5 0t-0.5 4q25 32 55 31q13 -2 25 -7.5t23 -13.5q12 -8 23.5 -13.5t22.5 -5.5q27 -2 50 33q2 2 4.5 0.5t0.5 -4.5q-11 -16 -24.5 -25.5t-30.5 -9.5z" />
    <glyph glyph-name="uni1EBD" unicode="&#x1ebd;" horiz-adv-x="364" 
d="M195 -3q-72 0 -113.5 44t-41.5 119q0 36 11.5 66.5t32.5 52t50 33.5t64 12q58 0 91 -22t33 -69q0 -34 -23 -48q-20 -14 -59 -17l-194 -16q3 -69 42.5 -109t106.5 -40q85 0 127 54q2 3 4 1t0 -4q-42 -57 -131 -57zM198 318q-33 0 -61 -11.5t-48.5 -32.5t-31.5 -50.5
t-11 -65.5l193 16q77 6 77 59q0 24 -9 40t-25 26t-37.5 14.5t-46.5 4.5zM229 515q-13 0 -25 6t-24 14t-23.5 14t-24.5 6q-11 0 -22.5 -6t-24.5 -23q-2 -2 -4.5 0t-0.5 4q25 32 55 31q13 -2 25 -7.5t23 -13.5q12 -8 23.5 -13.5t22.5 -5.5q27 -2 50 33q2 2 4.5 0.5t0.5 -4.5
q-11 -16 -24.5 -25.5t-30.5 -9.5z" />
    <glyph glyph-name="uni1EBE" unicode="&#x1ebe;" horiz-adv-x="589" 
d="M346 -3q-58 0 -110 9t-91 32t-62 62t-23 98q0 62 34 106.5t97 66.5q-17 9 -31 18.5t-24.5 22.5t-16 29.5t-5.5 39.5q0 38 9 79.5t9 83.5h-29q-17 0 -24.5 8t-7.5 19q0 14 10 20t21 6q20 0 27 -14.5t9 -32.5q61 1 109.5 4t93.5 7t87 6.5t95 2.5q38 0 59.5 -22t21.5 -54
q0 -24 -14.5 -48.5t-47.5 -37.5q-4 -2 -5 1.5t2 4.5q32 12 45.5 34.5t13.5 45.5q0 33 -21.5 51.5t-53.5 18.5q-52 0 -94 -2.5t-87 -6.5t-93.5 -7t-110.5 -4q-1 -45 -9.5 -86.5t-8.5 -76.5q0 -25 7 -42.5t18 -29.5t25 -20t28 -15q32 11 69 16.5t80 5.5q24 0 34 -8.5t10 -19.5
q0 -13 -12 -20.5t-32 -7.5q-90 0 -149 28q-62 -22 -97 -64.5t-35 -105.5q0 -195 280 -195q140 0 214 30t74 84q0 16 -6 26t-15 15.5t-19.5 7t-19.5 1.5q-23 0 -38.5 -10.5t-18.5 -29.5q-1 -3 -3.5 -3t-2.5 3q2 21 19.5 33.5t43.5 12.5q32 0 49 -14.5t17 -41.5
q0 -54 -71.5 -87t-222.5 -33zM206 370q28 -11 63.5 -17.5t77.5 -6.5q37 0 37 22t-37 22q-79 0 -141 -20zM102 691q-11 0 -18 -5.5t-7 -14.5q0 -8 6 -14.5t20 -6.5h29q-2 18 -7.5 29.5t-22.5 11.5zM358 855l-96 -112q-2 -2 -4 0t0 4l98 114q2 2 4 0l98 -114q2 -2 0 -4t-4 0z
M368 934q2 2 3.5 -0.5t-0.5 -4.5l-148 -114q-2 -2 -4.5 0.5t1.5 4.5z" />
    <glyph glyph-name="uni1EBF" unicode="&#x1ebf;" horiz-adv-x="363" 
d="M195 -3q-72 0 -113.5 44t-41.5 119q0 36 11.5 66.5t32.5 52t50 33.5t64 12q58 0 91 -22t33 -69q0 -34 -23 -48q-20 -14 -59 -17l-194 -16q3 -69 42.5 -109t106.5 -40q85 0 127 54q2 3 4 1t0 -4q-42 -57 -131 -57zM198 318q-33 0 -61 -11.5t-48.5 -32.5t-31.5 -50.5
t-11 -65.5l193 16q77 6 77 59q0 24 -9 40t-25 26t-37.5 14.5t-46.5 4.5zM199 485l-96 -112q-2 -2 -4 0t0 4l98 114q2 2 4 0l98 -114q2 -2 0 -4t-4 0zM255 582q2 2 3.5 -0.5t-0.5 -4.5l-148 -114q-2 -2 -4.5 0.5t1.5 4.5z" />
    <glyph glyph-name="uni1EC0" unicode="&#x1ec0;" horiz-adv-x="589" 
d="M346 -3q-58 0 -110 9t-91 32t-62 62t-23 98q0 62 34 106.5t97 66.5q-17 9 -31 18.5t-24.5 22.5t-16 29.5t-5.5 39.5q0 38 9 79.5t9 83.5h-29q-17 0 -24.5 8t-7.5 19q0 14 10 20t21 6q20 0 27 -14.5t9 -32.5q61 1 109.5 4t93.5 7t87 6.5t95 2.5q38 0 59.5 -22t21.5 -54
q0 -24 -14.5 -48.5t-47.5 -37.5q-4 -2 -5 1.5t2 4.5q32 12 45.5 34.5t13.5 45.5q0 33 -21.5 51.5t-53.5 18.5q-52 0 -94 -2.5t-87 -6.5t-93.5 -7t-110.5 -4q-1 -45 -9.5 -86.5t-8.5 -76.5q0 -25 7 -42.5t18 -29.5t25 -20t28 -15q32 11 69 16.5t80 5.5q24 0 34 -8.5t10 -19.5
q0 -13 -12 -20.5t-32 -7.5q-90 0 -149 28q-62 -22 -97 -64.5t-35 -105.5q0 -195 280 -195q140 0 214 30t74 84q0 16 -6 26t-15 15.5t-19.5 7t-19.5 1.5q-23 0 -38.5 -10.5t-18.5 -29.5q-1 -3 -3.5 -3t-2.5 3q2 21 19.5 33.5t43.5 12.5q32 0 49 -14.5t17 -41.5
q0 -54 -71.5 -87t-222.5 -33zM206 370q28 -11 63.5 -17.5t77.5 -6.5q37 0 37 22t-37 22q-79 0 -141 -20zM102 691q-11 0 -18 -5.5t-7 -14.5q0 -8 6 -14.5t20 -6.5h29q-2 18 -7.5 29.5t-22.5 11.5zM358 855l-96 -112q-2 -2 -4 0t0 4l98 114q2 2 4 0l98 -114q2 -2 0 -4t-4 0z
M320 945q-2 2 0 4.5t4 0.5l148 -114q3 -2 1 -4.5t-4 -0.5z" />
    <glyph glyph-name="uni1EC1" unicode="&#x1ec1;" horiz-adv-x="363" 
d="M195 -3q-72 0 -113.5 44t-41.5 119q0 36 11.5 66.5t32.5 52t50 33.5t64 12q58 0 91 -22t33 -69q0 -34 -23 -48q-20 -14 -59 -17l-194 -16q3 -69 42.5 -109t106.5 -40q85 0 127 54q2 3 4 1t0 -4q-42 -57 -131 -57zM198 318q-33 0 -61 -11.5t-48.5 -32.5t-31.5 -50.5
t-11 -65.5l193 16q77 6 77 59q0 24 -9 40t-25 26t-37.5 14.5t-46.5 4.5zM199 485l-96 -112q-2 -2 -4 0t0 4l98 114q2 2 4 0l98 -114q2 -2 0 -4t-4 0zM164 579q-2 2 0 4.5t4 0.5l148 -114q3 -2 1 -4.5t-4 -0.5z" />
    <glyph glyph-name="uni1EC2" unicode="&#x1ec2;" horiz-adv-x="589" 
d="M437 841q0 -1 -0.5 -1t-0.5 1v13q0 16 9 23.5t19.5 13.5t19.5 13.5t9 24.5t-15.5 26.5t-41.5 9.5q-8 0 -17 -1t-17 -4t-13.5 -8.5t-5.5 -14.5q0 -11 11 -11t13 9q0 1 0.5 1.5t0.5 -1.5q-2 -10 -14 -10q-13 0 -13 12q0 13 13 21t42 8q28 0 43.5 -10t15.5 -27t-9 -25.5
t-20 -14.5t-20 -13t-9 -22v-13zM346 -3q-58 0 -110 9t-91 32t-62 62t-23 98q0 62 34 106.5t97 66.5q-17 9 -31 18.5t-24.5 22.5t-16 29.5t-5.5 39.5q0 38 9 79.5t9 83.5h-29q-17 0 -24.5 8t-7.5 19q0 14 10 20t21 6q20 0 27 -14.5t9 -32.5q61 1 109.5 4t93.5 7t87 6.5
t95 2.5q38 0 59.5 -22t21.5 -54q0 -24 -14.5 -48.5t-47.5 -37.5q-4 -2 -5 1.5t2 4.5q32 12 45.5 34.5t13.5 45.5q0 33 -21.5 51.5t-53.5 18.5q-52 0 -94 -2.5t-87 -6.5t-93.5 -7t-110.5 -4q-1 -45 -9.5 -86.5t-8.5 -76.5q0 -25 7 -42.5t18 -29.5t25 -20t28 -15
q32 11 69 16.5t80 5.5q24 0 34 -8.5t10 -19.5q0 -13 -12 -20.5t-32 -7.5q-90 0 -149 28q-62 -22 -97 -64.5t-35 -105.5q0 -195 280 -195q140 0 214 30t74 84q0 16 -6 26t-15 15.5t-19.5 7t-19.5 1.5q-23 0 -38.5 -10.5t-18.5 -29.5q-1 -3 -3.5 -3t-2.5 3q2 21 19.5 33.5
t43.5 12.5q32 0 49 -14.5t17 -41.5q0 -54 -71.5 -87t-222.5 -33zM206 370q28 -11 63.5 -17.5t77.5 -6.5q37 0 37 22t-37 22q-79 0 -141 -20zM102 691q-11 0 -18 -5.5t-7 -14.5q0 -8 6 -14.5t20 -6.5h29q-2 18 -7.5 29.5t-22.5 11.5zM358 855l-96 -112q-2 -2 -4 0t0 4l98 114
q2 2 4 0l98 -114q2 -2 0 -4t-4 0z" />
    <glyph glyph-name="uni1EC3" unicode="&#x1ec3;" horiz-adv-x="363" 
d="M195 -3q-72 0 -113.5 44t-41.5 119q0 36 11.5 66.5t32.5 52t50 33.5t64 12q58 0 91 -22t33 -69q0 -34 -23 -48q-20 -14 -59 -17l-194 -16q3 -69 42.5 -109t106.5 -40q85 0 127 54q2 3 4 1t0 -4q-42 -57 -131 -57zM198 318q-33 0 -61 -11.5t-48.5 -32.5t-31.5 -50.5
t-11 -65.5l193 16q77 6 77 59q0 24 -9 40t-25 26t-37.5 14.5t-46.5 4.5zM199 485l-96 -112q-2 -2 -4 0t0 4l98 114q2 2 4 0l98 -114q2 -2 0 -4t-4 0zM268 478q0 -1 -0.5 -1t-0.5 1v13q0 16 9 23.5t19.5 13.5t19.5 13.5t9 24.5t-15.5 26.5t-41.5 9.5q-8 0 -17 -1t-17 -4
t-13.5 -8.5t-5.5 -14.5q0 -11 11 -11t13 9q0 1 0.5 1.5t0.5 -1.5q-2 -10 -14 -10q-13 0 -13 12q0 13 13 21t42 8q28 0 43.5 -10t15.5 -27t-9 -25.5t-20 -14.5t-20 -13t-9 -22v-13z" />
    <glyph glyph-name="uni1EC4" unicode="&#x1ec4;" horiz-adv-x="589" 
d="M412 895q-13 0 -25 6t-24 14t-23.5 14t-24.5 6q-11 0 -22.5 -6t-24.5 -23q-2 -2 -4.5 0t-0.5 4q25 32 55 31q13 -2 25 -7.5t23 -13.5q12 -8 23.5 -13.5t22.5 -5.5q27 -2 50 33q2 2 4.5 0.5t0.5 -4.5q-11 -16 -24.5 -25.5t-30.5 -9.5zM346 -3q-58 0 -110 9t-91 32t-62 62
t-23 98q0 62 34 106.5t97 66.5q-17 9 -31 18.5t-24.5 22.5t-16 29.5t-5.5 39.5q0 38 9 79.5t9 83.5h-29q-17 0 -24.5 8t-7.5 19q0 14 10 20t21 6q20 0 27 -14.5t9 -32.5q61 1 109.5 4t93.5 7t87 6.5t95 2.5q38 0 59.5 -22t21.5 -54q0 -24 -14.5 -48.5t-47.5 -37.5
q-4 -2 -5 1.5t2 4.5q32 12 45.5 34.5t13.5 45.5q0 33 -21.5 51.5t-53.5 18.5q-52 0 -94 -2.5t-87 -6.5t-93.5 -7t-110.5 -4q-1 -45 -9.5 -86.5t-8.5 -76.5q0 -25 7 -42.5t18 -29.5t25 -20t28 -15q32 11 69 16.5t80 5.5q24 0 34 -8.5t10 -19.5q0 -13 -12 -20.5t-32 -7.5
q-90 0 -149 28q-62 -22 -97 -64.5t-35 -105.5q0 -195 280 -195q140 0 214 30t74 84q0 16 -6 26t-15 15.5t-19.5 7t-19.5 1.5q-23 0 -38.5 -10.5t-18.5 -29.5q-1 -3 -3.5 -3t-2.5 3q2 21 19.5 33.5t43.5 12.5q32 0 49 -14.5t17 -41.5q0 -54 -71.5 -87t-222.5 -33zM206 370
q28 -11 63.5 -17.5t77.5 -6.5q37 0 37 22t-37 22q-79 0 -141 -20zM102 691q-11 0 -18 -5.5t-7 -14.5q0 -8 6 -14.5t20 -6.5h29q-2 18 -7.5 29.5t-22.5 11.5zM358 855l-96 -112q-2 -2 -4 0t0 4l98 114q2 2 4 0l98 -114q2 -2 0 -4t-4 0z" />
    <glyph glyph-name="uni1EC5" unicode="&#x1ec5;" horiz-adv-x="363" 
d="M195 -3q-72 0 -113.5 44t-41.5 119q0 36 11.5 66.5t32.5 52t50 33.5t64 12q58 0 91 -22t33 -69q0 -34 -23 -48q-20 -14 -59 -17l-194 -16q3 -69 42.5 -109t106.5 -40q85 0 127 54q2 3 4 1t0 -4q-42 -57 -131 -57zM198 318q-33 0 -61 -11.5t-48.5 -32.5t-31.5 -50.5
t-11 -65.5l193 16q77 6 77 59q0 24 -9 40t-25 26t-37.5 14.5t-46.5 4.5zM199 485l-96 -112q-2 -2 -4 0t0 4l98 114q2 2 4 0l98 -114q2 -2 0 -4t-4 0zM228 515q-13 0 -25 6t-24 14t-23.5 14t-24.5 6q-11 0 -22.5 -6t-24.5 -23q-2 -2 -4.5 0t-0.5 4q25 32 55 31q13 -2 25 -7.5
t23 -13.5q12 -8 23.5 -13.5t22.5 -5.5q27 -2 50 33q2 2 4.5 0.5t0.5 -4.5q-11 -16 -24.5 -25.5t-30.5 -9.5z" />
    <glyph glyph-name="uni1EC6" unicode="&#x1ec6;" horiz-adv-x="696" 
d="M346 -3q-58 0 -110 9t-91 32t-62 62t-23 98q0 62 34 106.5t97 66.5q-17 9 -31 18.5t-24.5 22.5t-16 29.5t-5.5 39.5q0 38 9 79.5t9 83.5h-29q-17 0 -24.5 8t-7.5 19q0 14 10 20t21 6q20 0 27 -14.5t9 -32.5q61 1 109.5 4t93.5 7t87 6.5t95 2.5q38 0 59.5 -22t21.5 -54
q0 -24 -14.5 -48.5t-47.5 -37.5q-4 -2 -5 1.5t2 4.5q32 12 45.5 34.5t13.5 45.5q0 33 -21.5 51.5t-53.5 18.5q-52 0 -94 -2.5t-87 -6.5t-93.5 -7t-110.5 -4q-1 -45 -9.5 -86.5t-8.5 -76.5q0 -25 7 -42.5t18 -29.5t25 -20t28 -15q32 11 69 16.5t80 5.5q24 0 34 -8.5t10 -19.5
q0 -13 -12 -20.5t-32 -7.5q-90 0 -149 28q-62 -22 -97 -64.5t-35 -105.5q0 -195 280 -195q140 0 214 30t74 84q0 16 -6 26t-15 15.5t-19.5 7t-19.5 1.5q-23 0 -38.5 -10.5t-18.5 -29.5q-1 -3 -3.5 -3t-2.5 3q2 21 19.5 33.5t43.5 12.5q32 0 49 -14.5t17 -41.5
q0 -54 -71.5 -87t-222.5 -33zM206 370q28 -11 63.5 -17.5t77.5 -6.5q37 0 37 22t-37 22q-79 0 -141 -20zM102 691q-11 0 -18 -5.5t-7 -14.5q0 -8 6 -14.5t20 -6.5h29q-2 18 -7.5 29.5t-22.5 11.5zM355 -74q0 -7 -5 -11.5t-12 -4.5q-6 0 -11 4.5t-5 11.5t5 12t11 5q7 0 12 -5
t5 -12zM347 927l-96 -112q-2 -2 -4 0t0 4l98 114q2 2 4 0l98 -114q2 -2 0 -4t-4 0z" />
    <glyph glyph-name="uni1EC7" unicode="&#x1ec7;" horiz-adv-x="364" 
d="M195 -3q-72 0 -113.5 44t-41.5 119q0 36 11.5 66.5t32.5 52t50 33.5t64 12q58 0 91 -22t33 -69q0 -34 -23 -48q-20 -14 -59 -17l-194 -16q3 -69 42.5 -109t106.5 -40q85 0 127 54q2 3 4 1t0 -4q-42 -57 -131 -57zM198 318q-33 0 -61 -11.5t-48.5 -32.5t-31.5 -50.5
t-11 -65.5l193 16q77 6 77 59q0 24 -9 40t-25 26t-37.5 14.5t-46.5 4.5zM215 -73q0 -7 -5 -11.5t-12 -4.5q-6 0 -11 4.5t-5 11.5t5 12t11 5q7 0 12 -5t5 -12zM181 575l-96 -112q-2 -2 -4 0t0 4l98 114q2 2 4 0l98 -114q2 -2 0 -4t-4 0z" />
    <glyph glyph-name="uni1EC8" unicode="&#x1ec8;" horiz-adv-x="383" 
d="M60 -47q-54 0 -54 26q0 19 18 23.5t39 4.5h102q11 14 17 33t6 45v481q0 46 23 78h-179q-4 0 -3.5 3t3.5 3h183q21 25 49.5 36.5t58.5 11.5q54 0 54 -26q0 -19 -18 -23.5t-39 -4.5h-102q-11 -14 -17.5 -33t-6.5 -45v-481q0 -47 -22 -78h179q3 0 3 -3t-3 -3h-183
q-22 -26 -50 -37t-58 -11zM63 1q-27 0 -39 -5t-12 -17q0 -7 5.5 -11t13 -6t16 -2.5t13.5 -0.5q23 0 51 9t49 33h-97zM320 650q27 0 39 5.5t12 16.5q0 7 -5.5 11t-13 6t-16 2.5t-13.5 0.5q-23 0 -51 -9t-49 -33h97zM206 750q0 -1 -0.5 -1t-0.5 1v13q0 16 9 23.5t19.5 13.5
t19.5 13.5t9 24.5t-15.5 26.5t-41.5 9.5q-8 0 -17 -1t-17 -4t-13.5 -8.5t-5.5 -14.5q0 -11 11 -11t13 9q0 1 0.5 1.5t0.5 -1.5q-2 -10 -14 -10q-13 0 -13 12q0 13 13 21t42 8q28 0 43.5 -10t15.5 -27t-9 -25.5t-20 -14.5t-20 -13t-9 -22v-13z" />
    <glyph glyph-name="uni1EC9" unicode="&#x1ec9;" horiz-adv-x="187" 
d="M91 0q5 59 4.5 114.5t-1.5 111.5q-13 -10 -32 -19q-3 -2 -4 0.5t2 4.5q10 5 18 10.5t16 10.5q0 10 0.5 25.5t3.5 30t10 25t19 10.5q10 0 15 -6.5t5 -15.5q-1 -20 -15.5 -40t-31.5 -32q0 -13 0.5 -27.5t0.5 -30.5q1 -39 0.5 -84.5t-4.5 -87.5q0 -4 -3 -3.5t-3 3.5z
M127 318q-10 0 -15 -10t-7.5 -23.5t-3 -26.5t-0.5 -20q20 17 30 34t10 30q0 16 -14 16zM113 388q0 -1 -0.5 -1t-0.5 1v13q0 16 9 23.5t19.5 13.5t19.5 13.5t9 24.5t-15.5 26.5t-41.5 9.5q-8 0 -17 -1t-17 -4t-13.5 -8.5t-5.5 -14.5q0 -11 11 -11t13 9q0 1 0.5 1.5t0.5 -1.5
q-2 -10 -14 -10q-13 0 -13 12q0 13 13 21t42 8q28 0 43.5 -10t15.5 -27t-9 -25.5t-20 -14.5t-20 -13t-9 -22v-13z" />
    <glyph glyph-name="uni1ECA" unicode="&#x1eca;" horiz-adv-x="383" 
d="M60 -47q-54 0 -54 26q0 19 18 23.5t39 4.5h102q11 14 17 33t6 45v481q0 46 23 78h-179q-4 0 -3.5 3t3.5 3h183q21 25 49.5 36.5t58.5 11.5q54 0 54 -26q0 -19 -18 -23.5t-39 -4.5h-102q-11 -14 -17.5 -33t-6.5 -45v-481q0 -47 -22 -78h179q3 0 3 -3t-3 -3h-183
q-22 -26 -50 -37t-58 -11zM63 1q-27 0 -39 -5t-12 -17q0 -7 5.5 -11t13 -6t16 -2.5t13.5 -0.5q23 0 51 9t49 33h-97zM320 650q27 0 39 5.5t12 16.5q0 7 -5.5 11t-13 6t-16 2.5t-13.5 0.5q-23 0 -51 -9t-49 -33h97zM215 -73q0 -7 -5 -11.5t-12 -4.5q-6 0 -11 4.5t-5 11.5
t5 12t11 5q7 0 12 -5t5 -12z" />
    <glyph glyph-name="uni1ECB" unicode="&#x1ecb;" horiz-adv-x="187" 
d="M123 -3q-19 0 -23.5 10t-4.5 24v196q-14 -11 -34 -20q-3 -2 -4.5 0.5t2.5 4.5q10 5 19 10.5t17 12.5q0 41 5 65t26 24q11 0 15.5 -7t4.5 -15q-1 -20 -15.5 -39t-29.5 -31v-201q0 -16 5 -22t17 -6q7 0 16 3t15 11q2 2 4 0t0 -4q-7 -8 -17 -12t-18 -4zM120 431
q-2 12 -7.5 19t-11.5 13t-10.5 13t-4.5 18q0 6 4.5 12.5t15.5 6.5q16 0 26 -19q10 16 24 16q8 0 14 -5.5t6 -13.5q0 -11 -7 -17.5t-15 -12.5t-16 -13t-14 -18q-1 -2 -2.5 -1.5t-1.5 2.5zM106 508q-11 0 -13 -6t-2 -8q0 -11 4 -16.5t10 -11.5q5 -5 10.5 -11.5t7.5 -16.5
q6 9 13.5 15.5t14.5 11.5q8 6 14 11.5t6 14.5q0 5 -3.5 9.5t-11.5 4.5q-12 0 -21 -16q-1 -2 -3 -2t-3 2q-10 19 -23 19zM126 318q-11 -1 -16 -10.5t-7 -22.5t-2 -26v-20q20 17 29.5 33.5t9.5 29.5q0 16 -14 16zM116 -66q0 -7 -5 -11.5t-12 -4.5q-6 0 -11 4.5t-5 11.5t5 12
t11 5q7 0 12 -5t5 -12z" />
    <glyph glyph-name="uni1ECC" unicode="&#x1ecc;" horiz-adv-x="731" 
d="M365 -3q-75 0 -131.5 24.5t-95 67.5t-57.5 101t-19 126q0 41 10 80t30 72t49 58t67 37q2 49 46 79.5t132 30.5q85 0 140.5 -37.5t88.5 -103.5q50 37 76 96q2 3 4.5 1.5t1.5 -3.5q-14 -30 -34.5 -55t-44.5 -44q41 -87 41 -211q0 -71 -20 -129t-59 -100q-40 -45 -97 -67.5
t-128 -22.5zM218 556q-33 -10 -60.5 -32t-47.5 -53.5t-31 -71t-11 -83.5q0 -72 20.5 -130t59 -98.5t93.5 -62.5t124 -22t124 22t94 62.5t59.5 98.5t20.5 130q0 121 -40 207q-45 -35 -104 -51.5t-116 -16.5q-26 0 -57.5 3.5t-59 14.5t-46.5 31t-22 52zM224 558
q2 -47 48.5 -72t130.5 -25q27 0 55.5 4t57 12t55 20.5t49.5 30.5q-33 71 -91 105t-133 34q-79 0 -124.5 -27.5t-47.5 -75.5q22 6 46 6q47 0 80.5 -9.5t62.5 -31.5q2 -2 0 -4q-3 -3 -4 -1q-28 21 -61 30.5t-78 9.5q-24 0 -46 -6zM377 -79q0 -7 -5 -11.5t-12 -4.5
q-6 0 -11 4.5t-5 11.5t5 12t11 5q7 0 12 -5t5 -12z" />
    <glyph glyph-name="uni1ECD" unicode="&#x1ecd;" 
d="M200 -3q-34 0 -63.5 11.5t-50.5 32.5t-33 49.5t-12 61.5q2 103 84 122q8 24 32 38t59 14q43 0 77 -25.5t49 -62.5q45 50 36 137q-1 4 2.5 3.5t3.5 -3.5q9 -90 -39 -143q15 -36 15 -80q0 -36 -13 -64.5t-35 -49t-51 -31t-61 -10.5zM124 267q-36 -8 -56.5 -38.5
t-20.5 -76.5q0 -32 11.5 -59.5t32 -47.5t48.5 -31t61 -11t61.5 11t49 31t32 47.5t11.5 59.5q0 41 -14 75q-17 -16 -34.5 -25.5t-34 -14.5t-30 -6.5t-21.5 -1.5q-29 0 -48 7.5t-30 19t-15.5 24t-4.5 23.5q0 4 0.5 7t1.5 7zM130 269q-2 -10 -2 -17q0 -11 5 -23t16 -21.5
t28.5 -16t42.5 -6.5q7 0 20.5 1.5t29.5 6t34 14t34 26.5q-17 40 -49 63.5t-73 23.5q-32 0 -54 -12t-30 -33q5 1 9.5 1h9.5q35 1 48.5 -16.5t2.5 -47.5q-1 -2 -4.5 -1.5t-1.5 4.5q12 30 -2 42.5t-43 12.5h-11t-10 -1zM215 -73q0 -7 -5 -11.5t-12 -4.5q-6 0 -11 4.5t-5 11.5
t5 12t11 5q7 0 12 -5t5 -12z" />
    <glyph glyph-name="uni1ECE" unicode="&#x1ece;" horiz-adv-x="731" 
d="M365 -3q-75 0 -131.5 24.5t-95 67.5t-57.5 101t-19 126q0 41 10 80t30 72t49 58t67 37q2 49 46 79.5t132 30.5q85 0 140.5 -37.5t88.5 -103.5q50 37 76 96q2 3 4.5 1.5t1.5 -3.5q-14 -30 -34.5 -55t-44.5 -44q41 -87 41 -211q0 -71 -20 -129t-59 -100q-40 -45 -97 -67.5
t-128 -22.5zM218 556q-33 -10 -60.5 -32t-47.5 -53.5t-31 -71t-11 -83.5q0 -72 20.5 -130t59 -98.5t93.5 -62.5t124 -22t124 22t94 62.5t59.5 98.5t20.5 130q0 121 -40 207q-45 -35 -104 -51.5t-116 -16.5q-26 0 -57.5 3.5t-59 14.5t-46.5 31t-22 52zM224 558
q2 -47 48.5 -72t130.5 -25q27 0 55.5 4t57 12t55 20.5t49.5 30.5q-33 71 -91 105t-133 34q-79 0 -124.5 -27.5t-47.5 -75.5q22 6 46 6q47 0 80.5 -9.5t62.5 -31.5q2 -2 0 -4q-3 -3 -4 -1q-28 21 -61 30.5t-78 9.5q-24 0 -46 -6zM389 749q0 -1 -0.5 -1t-0.5 1v13q0 16 9 23.5
t19.5 13.5t19.5 13.5t9 24.5t-15.5 26.5t-41.5 9.5q-8 0 -17 -1t-17 -4t-13.5 -8.5t-5.5 -14.5q0 -11 11 -11t13 9q0 1 0.5 1.5t0.5 -1.5q-2 -10 -14 -10q-13 0 -13 12q0 13 13 21t42 8q28 0 43.5 -10t15.5 -27t-9 -25.5t-20 -14.5t-20 -13t-9 -22v-13z" />
    <glyph glyph-name="uni1ECF" unicode="&#x1ecf;" 
d="M200 -3q-34 0 -63.5 11.5t-50.5 32.5t-33 49.5t-12 61.5q2 103 84 122q8 24 32 38t59 14q43 0 77 -25.5t49 -62.5q45 50 36 137q-1 4 2.5 3.5t3.5 -3.5q9 -90 -39 -143q15 -36 15 -80q0 -36 -13 -64.5t-35 -49t-51 -31t-61 -10.5zM124 267q-36 -8 -56.5 -38.5
t-20.5 -76.5q0 -32 11.5 -59.5t32 -47.5t48.5 -31t61 -11t61.5 11t49 31t32 47.5t11.5 59.5q0 41 -14 75q-17 -16 -34.5 -25.5t-34 -14.5t-30 -6.5t-21.5 -1.5q-29 0 -48 7.5t-30 19t-15.5 24t-4.5 23.5q0 4 0.5 7t1.5 7zM130 269q-2 -10 -2 -17q0 -11 5 -23t16 -21.5
t28.5 -16t42.5 -6.5q7 0 20.5 1.5t29.5 6t34 14t34 26.5q-17 40 -49 63.5t-73 23.5q-32 0 -54 -12t-30 -33q5 1 9.5 1h9.5q35 1 48.5 -16.5t2.5 -47.5q-1 -2 -4.5 -1.5t-1.5 4.5q12 30 -2 42.5t-43 12.5h-11t-10 -1zM215 404q0 -1 -0.5 -1t-0.5 1v13q0 16 9 23.5t19.5 13.5
t19.5 13.5t9 24.5t-15.5 26.5t-41.5 9.5q-8 0 -17 -1t-17 -4t-13.5 -8.5t-5.5 -14.5q0 -11 11 -11t13 9q0 1 0.5 1.5t0.5 -1.5q-2 -10 -14 -10q-13 0 -13 12q0 13 13 21t42 8q28 0 43.5 -10t15.5 -27t-9 -25.5t-20 -14.5t-20 -13t-9 -22v-13z" />
    <glyph glyph-name="uni1ED0" unicode="&#x1ed0;" horiz-adv-x="700" 
d="M460 943q2 2 3.5 -0.5t-0.5 -4.5l-148 -114q-2 -2 -4.5 0.5t1.5 4.5zM365 -3q-75 0 -131.5 24.5t-95 67.5t-57.5 101t-19 126q0 41 10 80t30 72t49 58t67 37q2 49 46 79.5t132 30.5q85 0 140.5 -37.5t88.5 -103.5q50 37 76 96q2 3 4.5 1.5t1.5 -3.5q-14 -30 -34.5 -55
t-44.5 -44q41 -87 41 -211q0 -71 -20 -129t-59 -100q-40 -45 -97 -67.5t-128 -22.5zM218 556q-33 -10 -60.5 -32t-47.5 -53.5t-31 -71t-11 -83.5q0 -72 20.5 -130t59 -98.5t93.5 -62.5t124 -22t124 22t94 62.5t59.5 98.5t20.5 130q0 121 -40 207q-45 -35 -104 -51.5
t-116 -16.5q-26 0 -57.5 3.5t-59 14.5t-46.5 31t-22 52zM224 558q2 -47 48.5 -72t130.5 -25q27 0 55.5 4t57 12t55 20.5t49.5 30.5q-33 71 -91 105t-133 34q-79 0 -124.5 -27.5t-47.5 -75.5q22 6 46 6q47 0 80.5 -9.5t62.5 -31.5q2 -2 0 -4q-3 -3 -4 -1q-28 21 -61 30.5
t-78 9.5q-24 0 -46 -6zM386 815l-96 -112q-2 -2 -4 0t0 4l98 114q2 2 4 0l98 -114q2 -2 0 -4t-4 0z" />
    <glyph glyph-name="uni1ED1" unicode="&#x1ed1;" 
d="M200 -3q-34 0 -63.5 11.5t-50.5 32.5t-33 49.5t-12 61.5q2 103 84 122q8 24 32 38t59 14q43 0 77 -25.5t49 -62.5q45 50 36 137q-1 4 2.5 3.5t3.5 -3.5q9 -90 -39 -143q15 -36 15 -80q0 -36 -13 -64.5t-35 -49t-51 -31t-61 -10.5zM124 267q-36 -8 -56.5 -38.5
t-20.5 -76.5q0 -32 11.5 -59.5t32 -47.5t48.5 -31t61 -11t61.5 11t49 31t32 47.5t11.5 59.5q0 41 -14 75q-17 -16 -34.5 -25.5t-34 -14.5t-30 -6.5t-21.5 -1.5q-29 0 -48 7.5t-30 19t-15.5 24t-4.5 23.5q0 4 0.5 7t1.5 7zM130 269q-2 -10 -2 -17q0 -11 5 -23t16 -21.5
t28.5 -16t42.5 -6.5q7 0 20.5 1.5t29.5 6t34 14t34 26.5q-17 40 -49 63.5t-73 23.5q-32 0 -54 -12t-30 -33q5 1 9.5 1h9.5q35 1 48.5 -16.5t2.5 -47.5q-1 -2 -4.5 -1.5t-1.5 4.5q12 30 -2 42.5t-43 12.5h-11t-10 -1zM222 491l-96 -112q-2 -2 -4 0t0 4l98 114q2 2 4 0
l98 -114q2 -2 0 -4t-4 0zM273 582q2 2 3.5 -0.5t-0.5 -4.5l-148 -114q-2 -2 -4.5 0.5t1.5 4.5z" />
    <glyph glyph-name="uni1ED2" unicode="&#x1ed2;" horiz-adv-x="700" 
d="M365 -3q-75 0 -131.5 24.5t-95 67.5t-57.5 101t-19 126q0 41 10 80t30 72t49 58t67 37q2 49 46 79.5t132 30.5q85 0 140.5 -37.5t88.5 -103.5q50 37 76 96q2 3 4.5 1.5t1.5 -3.5q-14 -30 -34.5 -55t-44.5 -44q41 -87 41 -211q0 -71 -20 -129t-59 -100q-40 -45 -97 -67.5
t-128 -22.5zM218 556q-33 -10 -60.5 -32t-47.5 -53.5t-31 -71t-11 -83.5q0 -72 20.5 -130t59 -98.5t93.5 -62.5t124 -22t124 22t94 62.5t59.5 98.5t20.5 130q0 121 -40 207q-45 -35 -104 -51.5t-116 -16.5q-26 0 -57.5 3.5t-59 14.5t-46.5 31t-22 52zM224 558
q2 -47 48.5 -72t130.5 -25q27 0 55.5 4t57 12t55 20.5t49.5 30.5q-33 71 -91 105t-133 34q-79 0 -124.5 -27.5t-47.5 -75.5q22 6 46 6q47 0 80.5 -9.5t62.5 -31.5q2 -2 0 -4q-3 -3 -4 -1q-28 21 -61 30.5t-78 9.5q-24 0 -46 -6zM386 815l-96 -112q-2 -2 -4 0t0 4l98 114
q2 2 4 0l98 -114q2 -2 0 -4t-4 0zM343 927q-2 2 0 4.5t4 0.5l148 -114q3 -2 1 -4.5t-4 -0.5z" />
    <glyph glyph-name="uni1ED3" unicode="&#x1ed3;" 
d="M200 -3q-34 0 -63.5 11.5t-50.5 32.5t-33 49.5t-12 61.5q2 103 84 122q8 24 32 38t59 14q43 0 77 -25.5t49 -62.5q45 50 36 137q-1 4 2.5 3.5t3.5 -3.5q9 -90 -39 -143q15 -36 15 -80q0 -36 -13 -64.5t-35 -49t-51 -31t-61 -10.5zM124 267q-36 -8 -56.5 -38.5
t-20.5 -76.5q0 -32 11.5 -59.5t32 -47.5t48.5 -31t61 -11t61.5 11t49 31t32 47.5t11.5 59.5q0 41 -14 75q-17 -16 -34.5 -25.5t-34 -14.5t-30 -6.5t-21.5 -1.5q-29 0 -48 7.5t-30 19t-15.5 24t-4.5 23.5q0 4 0.5 7t1.5 7zM130 269q-2 -10 -2 -17q0 -11 5 -23t16 -21.5
t28.5 -16t42.5 -6.5q7 0 20.5 1.5t29.5 6t34 14t34 26.5q-17 40 -49 63.5t-73 23.5q-32 0 -54 -12t-30 -33q5 1 9.5 1h9.5q35 1 48.5 -16.5t2.5 -47.5q-1 -2 -4.5 -1.5t-1.5 4.5q12 30 -2 42.5t-43 12.5h-11t-10 -1zM222 491l-96 -112q-2 -2 -4 0t0 4l98 114q2 2 4 0
l98 -114q2 -2 0 -4t-4 0zM181 602q-2 2 0 4.5t4 0.5l148 -114q3 -2 1 -4.5t-4 -0.5z" />
    <glyph glyph-name="uni1ED4" unicode="&#x1ed4;" horiz-adv-x="700" 
d="M365 -3q-75 0 -131.5 24.5t-95 67.5t-57.5 101t-19 126q0 41 10 80t30 72t49 58t67 37q2 49 46 79.5t132 30.5q85 0 140.5 -37.5t88.5 -103.5q50 37 76 96q2 3 4.5 1.5t1.5 -3.5q-14 -30 -34.5 -55t-44.5 -44q41 -87 41 -211q0 -71 -20 -129t-59 -100q-40 -45 -97 -67.5
t-128 -22.5zM218 556q-33 -10 -60.5 -32t-47.5 -53.5t-31 -71t-11 -83.5q0 -72 20.5 -130t59 -98.5t93.5 -62.5t124 -22t124 22t94 62.5t59.5 98.5t20.5 130q0 121 -40 207q-45 -35 -104 -51.5t-116 -16.5q-26 0 -57.5 3.5t-59 14.5t-46.5 31t-22 52zM224 558
q2 -47 48.5 -72t130.5 -25q27 0 55.5 4t57 12t55 20.5t49.5 30.5q-33 71 -91 105t-133 34q-79 0 -124.5 -27.5t-47.5 -75.5q22 6 46 6q47 0 80.5 -9.5t62.5 -31.5q2 -2 0 -4q-3 -3 -4 -1q-28 21 -61 30.5t-78 9.5q-24 0 -46 -6zM386 815l-96 -112q-2 -2 -4 0t0 4l98 114
q2 2 4 0l98 -114q2 -2 0 -4t-4 0zM466 812q0 -1 -0.5 -1t-0.5 1v13q0 16 9 23.5t19.5 13.5t19.5 13.5t9 24.5t-15.5 26.5t-41.5 9.5q-8 0 -17 -1t-17 -4t-13.5 -8.5t-5.5 -14.5q0 -11 11 -11t13 9q0 1 0.5 1.5t0.5 -1.5q-2 -10 -14 -10q-13 0 -13 12q0 13 13 21t42 8
q28 0 43.5 -10t15.5 -27t-9 -25.5t-20 -14.5t-20 -13t-9 -22v-13z" />
    <glyph glyph-name="uni1ED5" unicode="&#x1ed5;" 
d="M200 -3q-34 0 -63.5 11.5t-50.5 32.5t-33 49.5t-12 61.5q2 103 84 122q8 24 32 38t59 14q43 0 77 -25.5t49 -62.5q45 50 36 137q-1 4 2.5 3.5t3.5 -3.5q9 -90 -39 -143q15 -36 15 -80q0 -36 -13 -64.5t-35 -49t-51 -31t-61 -10.5zM124 267q-36 -8 -56.5 -38.5
t-20.5 -76.5q0 -32 11.5 -59.5t32 -47.5t48.5 -31t61 -11t61.5 11t49 31t32 47.5t11.5 59.5q0 41 -14 75q-17 -16 -34.5 -25.5t-34 -14.5t-30 -6.5t-21.5 -1.5q-29 0 -48 7.5t-30 19t-15.5 24t-4.5 23.5q0 4 0.5 7t1.5 7zM130 269q-2 -10 -2 -17q0 -11 5 -23t16 -21.5
t28.5 -16t42.5 -6.5q7 0 20.5 1.5t29.5 6t34 14t34 26.5q-17 40 -49 63.5t-73 23.5q-32 0 -54 -12t-30 -33q5 1 9.5 1h9.5q35 1 48.5 -16.5t2.5 -47.5q-1 -2 -4.5 -1.5t-1.5 4.5q12 30 -2 42.5t-43 12.5h-11t-10 -1zM222 491l-96 -112q-2 -2 -4 0t0 4l98 114q2 2 4 0
l98 -114q2 -2 0 -4t-4 0zM296 482q0 -1 -0.5 -1t-0.5 1v13q0 16 9 23.5t19.5 13.5t19.5 13.5t9 24.5t-15.5 26.5t-41.5 9.5q-8 0 -17 -1t-17 -4t-13.5 -8.5t-5.5 -14.5q0 -11 11 -11t13 9q0 1 0.5 1.5t0.5 -1.5q-2 -10 -14 -10q-13 0 -13 12q0 13 13 21t42 8q28 0 43.5 -10
t15.5 -27t-9 -25.5t-20 -14.5t-20 -13t-9 -22v-13z" />
    <glyph glyph-name="uni1ED6" unicode="&#x1ed6;" horiz-adv-x="700" 
d="M365 -3q-75 0 -131.5 24.5t-95 67.5t-57.5 101t-19 126q0 41 10 80t30 72t49 58t67 37q2 49 46 79.5t132 30.5q85 0 140.5 -37.5t88.5 -103.5q50 37 76 96q2 3 4.5 1.5t1.5 -3.5q-14 -30 -34.5 -55t-44.5 -44q41 -87 41 -211q0 -71 -20 -129t-59 -100q-40 -45 -97 -67.5
t-128 -22.5zM218 556q-33 -10 -60.5 -32t-47.5 -53.5t-31 -71t-11 -83.5q0 -72 20.5 -130t59 -98.5t93.5 -62.5t124 -22t124 22t94 62.5t59.5 98.5t20.5 130q0 121 -40 207q-45 -35 -104 -51.5t-116 -16.5q-26 0 -57.5 3.5t-59 14.5t-46.5 31t-22 52zM224 558
q2 -47 48.5 -72t130.5 -25q27 0 55.5 4t57 12t55 20.5t49.5 30.5q-33 71 -91 105t-133 34q-79 0 -124.5 -27.5t-47.5 -75.5q22 6 46 6q47 0 80.5 -9.5t62.5 -31.5q2 -2 0 -4q-3 -3 -4 -1q-28 21 -61 30.5t-78 9.5q-24 0 -46 -6zM386 815l-96 -112q-2 -2 -4 0t0 4l98 114
q2 2 4 0l98 -114q2 -2 0 -4t-4 0zM451 855q-13 0 -25 6t-24 14t-23.5 14t-24.5 6q-11 0 -22.5 -6t-24.5 -23q-2 -2 -4.5 0t-0.5 4q25 32 55 31q13 -2 25 -7.5t23 -13.5q12 -8 23.5 -13.5t22.5 -5.5q27 -2 50 33q2 2 4.5 0.5t0.5 -4.5q-11 -16 -24.5 -25.5t-30.5 -9.5z" />
    <glyph glyph-name="uni1ED7" unicode="&#x1ed7;" 
d="M200 -3q-34 0 -63.5 11.5t-50.5 32.5t-33 49.5t-12 61.5q2 103 84 122q8 24 32 38t59 14q43 0 77 -25.5t49 -62.5q45 50 36 137q-1 4 2.5 3.5t3.5 -3.5q9 -90 -39 -143q15 -36 15 -80q0 -36 -13 -64.5t-35 -49t-51 -31t-61 -10.5zM124 267q-36 -8 -56.5 -38.5
t-20.5 -76.5q0 -32 11.5 -59.5t32 -47.5t48.5 -31t61 -11t61.5 11t49 31t32 47.5t11.5 59.5q0 41 -14 75q-17 -16 -34.5 -25.5t-34 -14.5t-30 -6.5t-21.5 -1.5q-29 0 -48 7.5t-30 19t-15.5 24t-4.5 23.5q0 4 0.5 7t1.5 7zM130 269q-2 -10 -2 -17q0 -11 5 -23t16 -21.5
t28.5 -16t42.5 -6.5q7 0 20.5 1.5t29.5 6t34 14t34 26.5q-17 40 -49 63.5t-73 23.5q-32 0 -54 -12t-30 -33q5 1 9.5 1h9.5q35 1 48.5 -16.5t2.5 -47.5q-1 -2 -4.5 -1.5t-1.5 4.5q12 30 -2 42.5t-43 12.5h-11t-10 -1zM222 491l-96 -112q-2 -2 -4 0t0 4l98 114q2 2 4 0
l98 -114q2 -2 0 -4t-4 0zM247 515q-13 0 -25 6t-24 14t-23.5 14t-24.5 6q-11 0 -22.5 -6t-24.5 -23q-2 -2 -4.5 0t-0.5 4q25 32 55 31q13 -2 25 -7.5t23 -13.5q12 -8 23.5 -13.5t22.5 -5.5q27 -2 50 33q2 2 4.5 0.5t0.5 -4.5q-11 -16 -24.5 -25.5t-30.5 -9.5z" />
    <glyph glyph-name="uni1ED8" unicode="&#x1ed8;" horiz-adv-x="731" 
d="M365 -3q-75 0 -131.5 24.5t-95 67.5t-57.5 101t-19 126q0 41 10 80t30 72t49 58t67 37q2 49 46 79.5t132 30.5q85 0 140.5 -37.5t88.5 -103.5q50 37 76 96q2 3 4.5 1.5t1.5 -3.5q-14 -30 -34.5 -55t-44.5 -44q41 -87 41 -211q0 -71 -20 -129t-59 -100q-40 -45 -97 -67.5
t-128 -22.5zM218 556q-33 -10 -60.5 -32t-47.5 -53.5t-31 -71t-11 -83.5q0 -72 20.5 -130t59 -98.5t93.5 -62.5t124 -22t124 22t94 62.5t59.5 98.5t20.5 130q0 121 -40 207q-45 -35 -104 -51.5t-116 -16.5q-26 0 -57.5 3.5t-59 14.5t-46.5 31t-22 52zM224 558
q2 -47 48.5 -72t130.5 -25q27 0 55.5 4t57 12t55 20.5t49.5 30.5q-33 71 -91 105t-133 34q-79 0 -124.5 -27.5t-47.5 -75.5q22 6 46 6q47 0 80.5 -9.5t62.5 -31.5q2 -2 0 -4q-3 -3 -4 -1q-28 21 -61 30.5t-78 9.5q-24 0 -46 -6zM377 -79q0 -7 -5 -11.5t-12 -4.5
q-6 0 -11 4.5t-5 11.5t5 12t11 5q7 0 12 -5t5 -12zM365 927l-96 -112q-2 -2 -4 0t0 4l98 114q2 2 4 0l98 -114q2 -2 0 -4t-4 0z" />
    <glyph glyph-name="uni1ED9" unicode="&#x1ed9;" 
d="M200 -3q-34 0 -63.5 11.5t-50.5 32.5t-33 49.5t-12 61.5q2 103 84 122q8 24 32 38t59 14q43 0 77 -25.5t49 -62.5q45 50 36 137q-1 4 2.5 3.5t3.5 -3.5q9 -90 -39 -143q15 -36 15 -80q0 -36 -13 -64.5t-35 -49t-51 -31t-61 -10.5zM124 267q-36 -8 -56.5 -38.5
t-20.5 -76.5q0 -32 11.5 -59.5t32 -47.5t48.5 -31t61 -11t61.5 11t49 31t32 47.5t11.5 59.5q0 41 -14 75q-17 -16 -34.5 -25.5t-34 -14.5t-30 -6.5t-21.5 -1.5q-29 0 -48 7.5t-30 19t-15.5 24t-4.5 23.5q0 4 0.5 7t1.5 7zM130 269q-2 -10 -2 -17q0 -11 5 -23t16 -21.5
t28.5 -16t42.5 -6.5q7 0 20.5 1.5t29.5 6t34 14t34 26.5q-17 40 -49 63.5t-73 23.5q-32 0 -54 -12t-30 -33q5 1 9.5 1h9.5q35 1 48.5 -16.5t2.5 -47.5q-1 -2 -4.5 -1.5t-1.5 4.5q12 30 -2 42.5t-43 12.5h-11t-10 -1zM215 -73q0 -7 -5 -11.5t-12 -4.5q-6 0 -11 4.5t-5 11.5
t5 12t11 5q7 0 12 -5t5 -12zM199 575l-96 -112q-2 -2 -4 0t0 4l98 114q2 2 4 0l98 -114q2 -2 0 -4t-4 0z" />
    <glyph glyph-name="uni1EDA" unicode="&#x1eda;" horiz-adv-x="731" 
d="M365 -3q-75 0 -131.5 24.5t-95 67.5t-57.5 101t-19 126q0 41 10 80t30 72t49 58t67 37q2 49 46 79.5t132 30.5q85 0 140.5 -37.5t88.5 -103.5q50 37 76 96q2 3 4.5 1.5t1.5 -3.5q-14 -30 -34.5 -55t-44.5 -44q41 -87 41 -211q0 -71 -20 -129t-59 -100q-40 -45 -97 -67.5
t-128 -22.5zM218 556q-33 -10 -60.5 -32t-47.5 -53.5t-31 -71t-11 -83.5q0 -72 20.5 -130t59 -98.5t93.5 -62.5t124 -22t124 22t94 62.5t59.5 98.5t20.5 130q0 121 -40 207q-45 -35 -104 -51.5t-116 -16.5q-26 0 -57.5 3.5t-59 14.5t-46.5 31t-22 52zM224 558
q2 -47 48.5 -72t130.5 -25q27 0 55.5 4t57 12t55 20.5t49.5 30.5q-33 71 -91 105t-133 34q-79 0 -124.5 -27.5t-47.5 -75.5q22 6 46 6q47 0 80.5 -9.5t62.5 -31.5q2 -2 0 -4q-3 -3 -4 -1q-28 21 -61 30.5t-78 9.5q-24 0 -46 -6zM577 604q27 6 32 35q-5 -3 -9 -3
q-6 0 -11 4.5t-5 11.5t5 12t11 5q7 0 12 -5t5 -12q0 -44 -38 -55q-3 -1 -4 2.5t2 4.5zM617 652q0 -7 -5 -11.5t-12 -4.5q-6 0 -11 4.5t-5 11.5t5 12t11 5q7 0 12 -5t5 -12zM439 934q2 2 3.5 -0.5t-0.5 -4.5l-148 -114q-2 -2 -4.5 0.5t1.5 4.5z" />
    <glyph glyph-name="uni1EDB" unicode="&#x1edb;" 
d="M200 -3q-34 0 -63.5 11.5t-50.5 32.5t-33 49.5t-12 61.5q2 103 84 122q8 24 32 38t59 14q43 0 77 -25.5t49 -62.5q45 50 36 137q-1 4 2.5 3.5t3.5 -3.5q9 -90 -39 -143q15 -36 15 -80q0 -36 -13 -64.5t-35 -49t-51 -31t-61 -10.5zM124 267q-36 -8 -56.5 -38.5
t-20.5 -76.5q0 -32 11.5 -59.5t32 -47.5t48.5 -31t61 -11t61.5 11t49 31t32 47.5t11.5 59.5q0 41 -14 75q-17 -16 -34.5 -25.5t-34 -14.5t-30 -6.5t-21.5 -1.5q-29 0 -48 7.5t-30 19t-15.5 24t-4.5 23.5q0 4 0.5 7t1.5 7zM130 269q-2 -10 -2 -17q0 -11 5 -23t16 -21.5
t28.5 -16t42.5 -6.5q7 0 20.5 1.5t29.5 6t34 14t34 26.5q-17 40 -49 63.5t-73 23.5q-32 0 -54 -12t-30 -33q5 1 9.5 1h9.5q35 1 48.5 -16.5t2.5 -47.5q-1 -2 -4.5 -1.5t-1.5 4.5q12 30 -2 42.5t-43 12.5h-11t-10 -1zM310 287q27 6 32 35q-5 -3 -9 -3q-6 0 -11 4.5t-5 11.5
t5 12t11 5q7 0 12 -5t5 -12q0 -44 -38 -55q-3 -1 -4 2.5t2 4.5zM350 335q0 -7 -5 -11.5t-12 -4.5q-6 0 -11 4.5t-5 11.5t5 12t11 5q7 0 12 -5t5 -12zM273 582q2 2 3.5 -0.5t-0.5 -4.5l-148 -114q-2 -2 -4.5 0.5t1.5 4.5z" />
    <glyph glyph-name="uni1EDC" unicode="&#x1edc;" horiz-adv-x="731" 
d="M365 -3q-75 0 -131.5 24.5t-95 67.5t-57.5 101t-19 126q0 41 10 80t30 72t49 58t67 37q2 49 46 79.5t132 30.5q85 0 140.5 -37.5t88.5 -103.5q50 37 76 96q2 3 4.5 1.5t1.5 -3.5q-14 -30 -34.5 -55t-44.5 -44q41 -87 41 -211q0 -71 -20 -129t-59 -100q-40 -45 -97 -67.5
t-128 -22.5zM218 556q-33 -10 -60.5 -32t-47.5 -53.5t-31 -71t-11 -83.5q0 -72 20.5 -130t59 -98.5t93.5 -62.5t124 -22t124 22t94 62.5t59.5 98.5t20.5 130q0 121 -40 207q-45 -35 -104 -51.5t-116 -16.5q-26 0 -57.5 3.5t-59 14.5t-46.5 31t-22 52zM224 558
q2 -47 48.5 -72t130.5 -25q27 0 55.5 4t57 12t55 20.5t49.5 30.5q-33 71 -91 105t-133 34q-79 0 -124.5 -27.5t-47.5 -75.5q22 6 46 6q47 0 80.5 -9.5t62.5 -31.5q2 -2 0 -4q-3 -3 -4 -1q-28 21 -61 30.5t-78 9.5q-24 0 -46 -6zM577 604q27 6 32 35q-5 -3 -9 -3
q-6 0 -11 4.5t-5 11.5t5 12t11 5q7 0 12 -5t5 -12q0 -44 -38 -55q-3 -1 -4 2.5t2 4.5zM617 652q0 -7 -5 -11.5t-12 -4.5q-6 0 -11 4.5t-5 11.5t5 12t11 5q7 0 12 -5t5 -12zM289 929q-2 2 0 4.5t4 0.5l148 -114q3 -2 1 -4.5t-4 -0.5z" />
    <glyph glyph-name="uni1EDD" unicode="&#x1edd;" 
d="M200 -3q-34 0 -63.5 11.5t-50.5 32.5t-33 49.5t-12 61.5q2 103 84 122q8 24 32 38t59 14q43 0 77 -25.5t49 -62.5q45 50 36 137q-1 4 2.5 3.5t3.5 -3.5q9 -90 -39 -143q15 -36 15 -80q0 -36 -13 -64.5t-35 -49t-51 -31t-61 -10.5zM124 267q-36 -8 -56.5 -38.5
t-20.5 -76.5q0 -32 11.5 -59.5t32 -47.5t48.5 -31t61 -11t61.5 11t49 31t32 47.5t11.5 59.5q0 41 -14 75q-17 -16 -34.5 -25.5t-34 -14.5t-30 -6.5t-21.5 -1.5q-29 0 -48 7.5t-30 19t-15.5 24t-4.5 23.5q0 4 0.5 7t1.5 7zM130 269q-2 -10 -2 -17q0 -11 5 -23t16 -21.5
t28.5 -16t42.5 -6.5q7 0 20.5 1.5t29.5 6t34 14t34 26.5q-17 40 -49 63.5t-73 23.5q-32 0 -54 -12t-30 -33q5 1 9.5 1h9.5q35 1 48.5 -16.5t2.5 -47.5q-1 -2 -4.5 -1.5t-1.5 4.5q12 30 -2 42.5t-43 12.5h-11t-10 -1zM310 287q27 6 32 35q-5 -3 -9 -3q-6 0 -11 4.5t-5 11.5
t5 12t11 5q7 0 12 -5t5 -12q0 -44 -38 -55q-3 -1 -4 2.5t2 4.5zM350 335q0 -7 -5 -11.5t-12 -4.5q-6 0 -11 4.5t-5 11.5t5 12t11 5q7 0 12 -5t5 -12zM123 577q-2 2 0 4.5t4 0.5l148 -114q3 -2 1 -4.5t-4 -0.5z" />
    <glyph glyph-name="uni1EDE" unicode="&#x1ede;" horiz-adv-x="731" 
d="M365 -3q-75 0 -131.5 24.5t-95 67.5t-57.5 101t-19 126q0 41 10 80t30 72t49 58t67 37q2 49 46 79.5t132 30.5q85 0 140.5 -37.5t88.5 -103.5q50 37 76 96q2 3 4.5 1.5t1.5 -3.5q-14 -30 -34.5 -55t-44.5 -44q41 -87 41 -211q0 -71 -20 -129t-59 -100q-40 -45 -97 -67.5
t-128 -22.5zM218 556q-33 -10 -60.5 -32t-47.5 -53.5t-31 -71t-11 -83.5q0 -72 20.5 -130t59 -98.5t93.5 -62.5t124 -22t124 22t94 62.5t59.5 98.5t20.5 130q0 121 -40 207q-45 -35 -104 -51.5t-116 -16.5q-26 0 -57.5 3.5t-59 14.5t-46.5 31t-22 52zM224 558
q2 -47 48.5 -72t130.5 -25q27 0 55.5 4t57 12t55 20.5t49.5 30.5q-33 71 -91 105t-133 34q-79 0 -124.5 -27.5t-47.5 -75.5q22 6 46 6q47 0 80.5 -9.5t62.5 -31.5q2 -2 0 -4q-3 -3 -4 -1q-28 21 -61 30.5t-78 9.5q-24 0 -46 -6zM577 604q27 6 32 35q-5 -3 -9 -3
q-6 0 -11 4.5t-5 11.5t5 12t11 5q7 0 12 -5t5 -12q0 -44 -38 -55q-3 -1 -4 2.5t2 4.5zM617 652q0 -7 -5 -11.5t-12 -4.5q-6 0 -11 4.5t-5 11.5t5 12t11 5q7 0 12 -5t5 -12zM397 748q0 -1 -0.5 -1t-0.5 1v13q0 16 9 23.5t19.5 13.5t19.5 13.5t9 24.5t-15.5 26.5t-41.5 9.5
q-8 0 -17 -1t-17 -4t-13.5 -8.5t-5.5 -14.5q0 -11 11 -11t13 9q0 1 0.5 1.5t0.5 -1.5q-2 -10 -14 -10q-13 0 -13 12q0 13 13 21t42 8q28 0 43.5 -10t15.5 -27t-9 -25.5t-20 -14.5t-20 -13t-9 -22v-13z" />
    <glyph glyph-name="uni1EDF" unicode="&#x1edf;" 
d="M200 -3q-34 0 -63.5 11.5t-50.5 32.5t-33 49.5t-12 61.5q2 103 84 122q8 24 32 38t59 14q43 0 77 -25.5t49 -62.5q45 50 36 137q-1 4 2.5 3.5t3.5 -3.5q9 -90 -39 -143q15 -36 15 -80q0 -36 -13 -64.5t-35 -49t-51 -31t-61 -10.5zM124 267q-36 -8 -56.5 -38.5
t-20.5 -76.5q0 -32 11.5 -59.5t32 -47.5t48.5 -31t61 -11t61.5 11t49 31t32 47.5t11.5 59.5q0 41 -14 75q-17 -16 -34.5 -25.5t-34 -14.5t-30 -6.5t-21.5 -1.5q-29 0 -48 7.5t-30 19t-15.5 24t-4.5 23.5q0 4 0.5 7t1.5 7zM130 269q-2 -10 -2 -17q0 -11 5 -23t16 -21.5
t28.5 -16t42.5 -6.5q7 0 20.5 1.5t29.5 6t34 14t34 26.5q-17 40 -49 63.5t-73 23.5q-32 0 -54 -12t-30 -33q5 1 9.5 1h9.5q35 1 48.5 -16.5t2.5 -47.5q-1 -2 -4.5 -1.5t-1.5 4.5q12 30 -2 42.5t-43 12.5h-11t-10 -1zM310 287q27 6 32 35q-5 -3 -9 -3q-6 0 -11 4.5t-5 11.5
t5 12t11 5q7 0 12 -5t5 -12q0 -44 -38 -55q-3 -1 -4 2.5t2 4.5zM350 335q0 -7 -5 -11.5t-12 -4.5q-6 0 -11 4.5t-5 11.5t5 12t11 5q7 0 12 -5t5 -12zM218 407q0 -1 -0.5 -1t-0.5 1v13q0 16 9 23.5t19.5 13.5t19.5 13.5t9 24.5t-15.5 26.5t-41.5 9.5q-8 0 -17 -1t-17 -4
t-13.5 -8.5t-5.5 -14.5q0 -11 11 -11t13 9q0 1 0.5 1.5t0.5 -1.5q-2 -10 -14 -10q-13 0 -13 12q0 13 13 21t42 8q28 0 43.5 -10t15.5 -27t-9 -25.5t-20 -14.5t-20 -13t-9 -22v-13z" />
    <glyph glyph-name="uni1EE0" unicode="&#x1ee0;" horiz-adv-x="731" 
d="M365 -3q-75 0 -131.5 24.5t-95 67.5t-57.5 101t-19 126q0 41 10 80t30 72t49 58t67 37q2 49 46 79.5t132 30.5q85 0 140.5 -37.5t88.5 -103.5q50 37 76 96q2 3 4.5 1.5t1.5 -3.5q-14 -30 -34.5 -55t-44.5 -44q41 -87 41 -211q0 -71 -20 -129t-59 -100q-40 -45 -97 -67.5
t-128 -22.5zM218 556q-33 -10 -60.5 -32t-47.5 -53.5t-31 -71t-11 -83.5q0 -72 20.5 -130t59 -98.5t93.5 -62.5t124 -22t124 22t94 62.5t59.5 98.5t20.5 130q0 121 -40 207q-45 -35 -104 -51.5t-116 -16.5q-26 0 -57.5 3.5t-59 14.5t-46.5 31t-22 52zM224 558
q2 -47 48.5 -72t130.5 -25q27 0 55.5 4t57 12t55 20.5t49.5 30.5q-33 71 -91 105t-133 34q-79 0 -124.5 -27.5t-47.5 -75.5q22 6 46 6q47 0 80.5 -9.5t62.5 -31.5q2 -2 0 -4q-3 -3 -4 -1q-28 21 -61 30.5t-78 9.5q-24 0 -46 -6zM577 604q27 6 32 35q-5 -3 -9 -3
q-6 0 -11 4.5t-5 11.5t5 12t11 5q7 0 12 -5t5 -12q0 -44 -38 -55q-3 -1 -4 2.5t2 4.5zM617 652q0 -7 -5 -11.5t-12 -4.5q-6 0 -11 4.5t-5 11.5t5 12t11 5q7 0 12 -5t5 -12zM412 867q-13 0 -25 6t-24 14t-23.5 14t-24.5 6q-11 0 -22.5 -6t-24.5 -23q-2 -2 -4.5 0t-0.5 4
q25 32 55 31q13 -2 25 -7.5t23 -13.5q12 -8 23.5 -13.5t22.5 -5.5q27 -2 50 33q2 2 4.5 0.5t0.5 -4.5q-11 -16 -24.5 -25.5t-30.5 -9.5z" />
    </font>
</defs>
</svg>
