<?xml version="1.0" standalone="no"?>
<!DOCTYPE svg PUBLIC "-//W3C//DTD SVG 1.1//EN" "http://www.w3.org/Graphics/SVG/1.1/DTD/svg11.dtd" >
<svg xmlns="http://www.w3.org/2000/svg" xmlns:xlink="http://www.w3.org/1999/xlink" version="1.1">
<metadata>
Created by FontForge 20170731 at Fri Aug  9 07:54:38 2013
 By Aleksey,,,
Copyright (c) 2008 by THType ( melodylife195@gmail.com ). All rights reserved.
</metadata>
<defs>
<font id="UVFMemoir" horiz-adv-x="289" >
  <font-face 
    font-family="UVF Memoir"
    font-weight="400"
    font-stretch="normal"
    units-per-em="1000"
    panose-1="2 0 0 0 0 0 0 0 0 0"
    ascent="800"
    descent="-200"
    x-height="158"
    cap-height="533"
    bbox="-1341 -788 2118 892"
    underline-thickness="50"
    underline-position="-200"
    unicode-range="U+0020-FB06"
  />
<missing-glyph horiz-adv-x="256" 
 />
    <glyph glyph-name="f_f" unicode="ff" horiz-adv-x="429" 
d="M188 41q-10 19 -10 35q1 4 1 20q1 3 11 18l7 14q7 13 43 13q18 0 30 -8l5 -4q5 -4 7 -5q10 9 16 17q9 31 14 43q1 3 5 10.5t10 20t11 25.5q7 12 13 27.5t9 24.5l2 10l1 5q1 5 1 6l28 37q6 4 12 17t8 16q10 8 11 9q11 21 25 21q9 0 12 -7t3 -29q0 -1 -1.5 -8t-1.5 -9
q-27 -68 -38 -83q-3 -4 -13 -21t-15 -24q-7 -10 -34.5 -44t-32.5 -43q0 -2 -2 -4l-5 -13l-22 -50q0 -1 -0.5 -2.5t-0.5 -3.5v-40l-1 -29l2 -4l5 1h6q11 0 32 7q3 1 16.5 7.5t15.5 7.5q1 3 20 12q6 4 18 14t21 18l8 9q3 3 6 3q4 0 4 -5q0 -4 -7 -11l-43 -37q-6 -4 -8 -5
q-6 -6 -24 -17t-25 -13q-20 -10 -38 -10q-7 0 -9 -2l-17 -105q-9 -36 -18 -63q-2 -13 -22 -53l-21 -58q-19 -55 -40 -55q-7 0 -14 7.5t-7 15.5q0 3 1 7t1 7q0 2 -2 7.5t-2 8.5t3.5 8.5t3.5 11.5q0 51 29 122q3 5 9 22q3 6 3 18q6 18 21 54.5t21 54.5l1 3q-1 3 -4.5 5t-8 3.5
t-6.5 2.5q-22 14 -33 28q-20 -20 -36 -29q-13 0 -21 -11q-8 -3 -38 -10q-2 0 -2 -7v-4q2 -7 2 -24q-3 -66 -4 -73q-2 -6 -3.5 -16.5t-2.5 -14.5q-11 -38 -23 -64q0 -9 -3 -14l-36 -68q-4 -4 -12.5 -14t-18.5 -20q-9 -9 -24 -9q-25 0 -31 24q-1 3 -1 10q0 4 0.5 11t0.5 10
q0 21 6 42l4 11q12 36 14 52q4 4 5.5 9.5t2 12.5t1.5 12q0 3 4 8t4 9q0 3 -0.5 9t-0.5 8v4q1 1 3.5 6.5t5 11.5t3.5 7q0 1 0.5 6.5t0.5 6.5l2 5l2 5q1 1 6 10t9.5 17.5t4.5 10.5q9 21 9 44q0 2 -1 7.5t-1 8.5q0 6 7 10t9 7q12 24 15 33q9 18 9 27h-4l-71 -67q-3 0 -3 5t2 7
l81 88q14 21 24 41l10 29l15 28q2 0 2 5l24 46q1 1 4 4.5t3 4.5q2 2 24 47l32 39q5 5 21 29l19 19q1 0 2.5 0.5l3 1l3 1t3.5 0.5q15 0 15 -14q0 -22 -13 -44q-3 -5 -38 -79q-61 -88 -84 -107l-24 -38l-17 -36q0 -5 -5 -15q-19 -33 -19 -67q0 -11 9 -21.5t20 -10.5q17 0 26 3
q27 7 58 35zM-29 -309q4 -6 14 -6q8 0 16 10l14 20q9 15 21 43t20 48l8 21q18 63 18 109l-1 28l-9 19q-1 3 -6.5 10.5t-8.5 7.5q-1 0 -3.5 -3.5t-4.5 -8t-3 -5.5l-17 -42l-1 -3q-2 -3 -2 -4l-12 -43l-7 -13l-24 -104q-6 -6 -7 -10v-5q0 -8 -4 -26t-4 -26q0 -13 3 -17z
M187 -272q0 -26 6 -26t13 18l11 33l28 62l27 103q1 7 5 29.5t4 32.5h-5l-4 1q-5 -2 -7 -7q-6 -9 -14.5 -35t-13.5 -47l-5 -21q-7 -11 -10.5 -20t-6 -19t-4.5 -16q-7 -21 -14 -48.5t-10 -39.5zM358 240l-24 -67q28 37 31 41q20 29 45 68l21 44q8 20 8 37q0 9 -6 9
q-7 -2 -14 -12l-11 -16zM137 214l2 -4l8 9q66 86 76 112q2 8 14 27.5t12 31.5q0 6 -3 6q-5 0 -15 -9t-14 -16l-41 -70l-7 -18zM213 47q6 -12 15 -19q15 -15 26 -18q5 0 5 6l3 10q7 4 7 19q0 2 -0.5 5t-0.5 4l4 15l6 22h-9q-4 -5 -21 -17q-8 -4 -11 -9q-3 -2 -10 -7.5
t-10 -7.5zM203 85q0 -6 3 -11q2 -16 3 -16l55 49q-8 11 -24 11q-13 0 -25 -11t-12 -22z" />
    <glyph glyph-name="fi" unicode="fi" horiz-adv-x="415" 
d="M77 -22l-17 -105q-9 -36 -18 -63q-2 -13 -22 -53l-21 -58q-19 -55 -40 -55q-7 0 -14 7.5t-7 15.5q0 3 1 7t1 7q0 2 -2 7.5t-2 8.5t3.5 8.5t3.5 11.5q0 51 29 122q3 5 9 22q3 6 3 18q6 18 21 54t21 55l1 3q-1 3 -4.5 5t-8 3.5t-6.5 2.5q-22 14 -33 28q-7 -5 -16 -7l-4 3
q0 3 3 5l11 10q-10 19 -10 35q1 4 1 20q1 3 11 18l7 14q7 13 43 13q18 0 30 -8l5 -4q5 -4 7 -5q11 9 16 17l14 43q1 4 5.5 13t11.5 25t13 31q8 15 16 34t12 31l4 11q0 1 1.5 6.5t1.5 7.5l28 45q7 5 14.5 20t9.5 18q9 8 12 14q9 18 31 18q10 0 13 -5.5t3 -30.5q0 -2 -2 -11
t-2 -10q-31 -84 -44 -102q-4 -5 -15.5 -25.5t-17.5 -30.5q-11 -17 -43.5 -54t-36.5 -44q0 -2 -2 -4l-5 -13l-22 -50q0 -1 -0.5 -2.5t-0.5 -3.5v-40l-1 -29l2 -4q1 0 6 1h5q13 0 31 6q24 8 62 41l29 26l34 35l18 21q12 19 16 23q4 6 13 6q12 0 12 -5q0 -8 -5 -13q-1 -2 -5 -8
l-4 -6q-12 -23 -13 -32q-7 -19 -7 -55q0 -35 29 -35q7 0 13.5 0.5t11 1t10.5 3t9 3.5t10 5t9 5.5t11 7.5l12 8q4 3 10 8.5t10 9.5t7 4q6 0 6 -6q-3 -6 -22 -21q-1 -1 -15.5 -11.5t-18 -13t-16.5 -10t-20.5 -10t-19 -5.5t-22.5 -3q-38 0 -42 32q0 4 1.5 10t1.5 8t-1 7t-1 9
q0 7 5 22q0 5 1 12.5t1 14.5l-32 -31l-26 -22q-44 -39 -68 -49q-26 -13 -39 -13q-7 0 -9 -2zM-32 -272q0 -26 6 -26t13 18l11 33l28 62l27 103q1 7 5 29.5t4 32.5h-4q-4 1 -5 1q-5 -2 -7 -7q-6 -9 -14.5 -35t-13.5 -47l-5 -21q-7 -11 -10.5 -20t-6 -19t-4.5 -16
q-7 -21 -14 -48.5t-10 -39.5zM147 253l-32 -80q36 43 40 48q34 53 52 84l25 54q9 27 9 45q0 12 -7 12q-8 -3 -16 -15l-13 -20zM-6 47q6 -12 15 -19q15 -15 26 -18q5 0 5 6l3 10q7 4 7 19q0 2 -0.5 5t-0.5 4l4 15l6 22h-9q-4 -5 -21 -17q-7 -4 -11 -9q-3 -2 -10 -7.5
t-10 -7.5zM-16 85q0 -6 3 -11q2 -16 3 -16l55 49q-8 11 -24 11q-13 0 -25 -11t-12 -22zM348 263h5q10 -8 10 -18q0 -13 -20 -13q-16 0 -16 12q0 3 1.5 5.5t3.5 3.5t2 2v1q1 1 2 2.5t2 3.5q1 1 10 1z" />
    <glyph glyph-name="fl" unicode="fl" horiz-adv-x="417" 
d="M250 100l-33 -35l-14 -13q-6 -6 -11 -10q-40 -38 -67 -49q-26 -13 -39 -13q-7 0 -9 -2l-17 -105q-9 -36 -18 -63q-2 -13 -22 -53l-21 -58q-19 -55 -40 -55q-7 0 -14 7.5t-7 15.5q0 3 1 7t1 7q0 2 -2 7.5t-2 8.5t3.5 8.5t3.5 11.5q0 51 29 122q3 5 9 22q3 6 3 18
q6 18 21 54t21 55l1 3q-1 3 -4.5 5t-8 3.5t-6.5 2.5q-22 14 -33 28q-7 -5 -16 -7l-4 3q0 3 3 5l11 10q-10 19 -10 35q1 4 1 20q1 3 11 18l7 14q7 13 43 13q18 0 30 -8l5 -4q5 -4 7 -5q11 9 16 17l14 43q1 4 5.5 13t11.5 25t13 31q8 15 16 34t12 31l4 11q0 1 1.5 6.5t1.5 7.5
l28 45q7 5 14.5 20t9.5 18q9 8 12 14q9 18 31 18q10 0 13 -5.5t3 -30.5q0 -2 -2 -11t-2 -10q-31 -84 -44 -102q-4 -5 -15.5 -25.5t-17.5 -30.5q-11 -17 -43.5 -54t-36.5 -44q0 -2 -2 -4l-5 -13l-22 -50q0 -1 -0.5 -2.5t-0.5 -3.5v-40l-1 -29l2 -4q1 0 6 1h5q13 0 31 6
q25 9 61 41l28 27l34 39l13 20l5 8l15 51q5 7 17 43l36 72q3 21 25 43l28 56q9 9 16 23l4 8q1 1 17.5 20.5t18.5 21.5q16 4 17 4q10 0 13 -6q2 -3 2 -16q0 -2 -1 -9v-6l-25 -60q-4 -6 -10 -22q-2 -2 -9.5 -14t-14.5 -22.5t-8 -13.5l-17 -36q-2 -5 -9.5 -13.5t-9.5 -15.5
q-54 -70 -74 -103l-12 -30q0 -9 -2 -13q-9 -36 -9 -60q0 -39 30 -39q7 0 13.5 0.5t11 1t10.5 3t9 3.5t10 5t9 5.5t11 7.5l12 8q4 3 10 8.5t10 9.5t7 4q6 0 6 -6q-3 -6 -22 -21q-1 -1 -15.5 -11.5t-18 -13t-16.5 -10t-20.5 -10t-19 -5.5t-22.5 -3q-8 0 -14 2t-9.5 4.5t-7 7.5
t-4.5 7.5t-3.5 8.5t-2.5 7q2 5 2 13q0 3 -1.5 8.5t-1.5 8.5q0 4 4 22q0 4 1.5 13t1.5 18zM-32 -272q0 -26 6 -26t13 18l11 33l28 62l27 103q1 7 5 29.5t4 32.5h-4q-4 1 -5 1q-5 -2 -7 -7q-6 -9 -14.5 -35t-13.5 -47l-5 -21q-7 -11 -10.5 -20t-6 -19t-4.5 -16
q-7 -21 -14 -48.5t-10 -39.5zM147 253l-32 -80q36 43 40 48q34 53 52 84l25 54q9 27 9 45q0 12 -7 12q-8 -3 -16 -15l-13 -20zM367 329l-2 -8q-11 -16 -35.5 -69.5t-28.5 -61.5q0 -4 1 -4t2.5 1.5t3.5 4.5l1 2l54 73q1 3 2.5 6.5t3 6t4.5 5.5l64 119q13 39 13 41q0 4 -4 4
q-8 0 -25 -24q-5 -6 -19.5 -32t-18.5 -39q-10 -7 -16 -25zM-6 47q6 -12 15 -19q15 -15 26 -18q5 0 5 6l3 10q7 4 7 19q0 2 -0.5 5t-0.5 4l4 15l6 22h-9q-4 -5 -21 -17q-7 -4 -11 -9q-3 -2 -10 -7.5t-10 -7.5zM-16 85q0 -6 3 -11q2 -16 3 -16l55 49q-8 11 -24 11
q-13 0 -25 -11t-12 -22z" />
    <glyph glyph-name="f_f_i" unicode="ffi" horiz-adv-x="634" 
d="M465 108l18 21q12 19 16 23q4 6 13 6q12 0 12 -5q0 -8 -5 -13q-1 -2 -5 -8l-4 -6q-12 -23 -13 -32q-7 -19 -7 -55q0 -35 29 -35q7 0 13.5 0.5t11 1t10.5 3t9 3.5t10 5t9 5.5t11 7.5l12 8q4 3 10 8.5t10 9.5t7 4q6 0 6 -6q-3 -6 -22 -21q-1 -1 -15.5 -11.5t-18 -13
t-16.5 -10t-20.5 -10t-19 -5.5t-22.5 -3q-38 0 -42 32q0 4 1.5 10t1.5 8t-1 7t-1 9q0 7 5 22q0 5 1 12.5t1 14.5l-32 -31l-26 -22q-44 -39 -68 -49q-26 -13 -39 -13q-7 0 -9 -2l-17 -105q-9 -36 -18 -63q-2 -13 -22 -53l-21 -58q-19 -55 -40 -55q-7 0 -14 7.5t-7 15.5
q0 3 1 7t1 7q0 2 -2 7.5t-2 8.5t3.5 8.5t3.5 11.5q0 51 29 122q3 5 9 22q3 6 3 18q6 18 21 54.5t21 54.5l1 3q-1 3 -4.5 5t-8 3.5t-6.5 2.5q-22 14 -33 28q-2 -2 -3 -2q-25 -23 -33 -27q-13 0 -21 -11q-8 -3 -38 -10q-2 0 -2 -7v-4q2 -7 2 -24q-3 -66 -4 -73
q-2 -6 -3.5 -16.5t-2.5 -14.5q-11 -38 -23 -64q0 -9 -3 -14l-36 -68q-4 -4 -12.5 -14t-18.5 -20q-9 -9 -24 -9q-25 0 -31 24q-1 3 -1 10q0 4 0.5 11t0.5 10q0 21 6 42l4 11q12 36 14 52q4 4 5.5 9.5t2 12.5t1.5 12q0 3 4 8t4 9q0 3 -0.5 9t-0.5 8v4q1 1 3.5 6.5t5 11.5
t3.5 7q0 1 0.5 6.5t0.5 6.5l2 5l2 5q1 1 6 10t9.5 17.5t4.5 10.5q9 21 9 44q0 2 -1 7.5t-1 8.5q0 6 7 10t9 7q12 24 15 33q9 18 9 27h-4l-71 -67q-3 0 -3 5t2 7l81 88q14 21 24 41l10 29l15 28q2 0 2 5l24 46q1 1 4 4.5t3 4.5q2 2 24 47l32 39q5 5 21 29l19 19q1 0 2.5 0.5
l3 1l3 1t3.5 0.5q15 0 15 -14q0 -22 -13 -44q-3 -5 -38 -79q-61 -88 -84 -107l-24 -38l-17 -36q0 -5 -5 -15q-19 -33 -19 -67q0 -11 9 -21.5t20 -10.5q17 0 26 3q27 7 58 35q-10 19 -10 35q1 4 1 20q1 3 11 18l7 14q7 13 43 13q18 0 30 -8l5 -4q5 -4 7 -5q10 9 16 17l14 43
q1 4 5.5 13t11.5 25t13 31q8 15 16 34t12 31l4 11q0 1 1.5 6.5t1.5 7.5l28 45q7 5 14.5 20t9.5 18q9 8 12 14q9 18 31 18q10 0 13 -5.5t3 -30.5q0 -2 -2 -11t-2 -10q-31 -84 -44 -102q-4 -5 -15.5 -25.5t-17.5 -30.5q-11 -17 -43.5 -54t-36.5 -44q0 -2 -2 -4l-5 -13l-22 -50
q0 -1 -0.5 -2.5t-0.5 -3.5v-40l-1 -29l2 -4l5 1h6q13 0 31 6q24 8 62 41l29 26zM-29 -309q4 -6 14 -6q8 0 16 10l14 20q9 15 21 43t20 48l8 21q18 63 18 109l-1 28l-9 19q-1 3 -6.5 10.5t-8.5 7.5q-1 0 -3.5 -3.5t-4.5 -8t-3 -5.5l-17 -42l-1 -3q-2 -3 -2 -4l-12 -43l-7 -13
l-24 -104q-6 -6 -7 -10v-5q0 -8 -4 -26t-4 -26q0 -13 3 -17zM187 -272q0 -26 6 -26t13 18l11 33l28 62l27 103q1 7 5 29.5t4 32.5h-5l-4 1q-5 -2 -7 -7q-6 -9 -14.5 -35t-13.5 -47l-5 -21q-7 -11 -10.5 -20t-6 -19t-4.5 -16q-7 -21 -14 -48.5t-10 -39.5zM366 253l-32 -80
q36 43 40 48q34 53 52 84l25 54q9 27 9 45q0 12 -7 12q-8 -3 -16 -15l-13 -20zM137 214l2 -4l8 9q66 86 76 112q2 8 14 27.5t12 31.5q0 6 -3 6q-5 0 -15 -9t-14 -16l-41 -70l-7 -18zM213 47q6 -12 15 -19q15 -15 26 -18q5 0 5 6l3 10q7 4 7 17q0 2 -0.5 6t-0.5 5l4 15l6 22
h-9q-4 -5 -21 -17q-8 -4 -11 -9q-3 -2 -10 -7.5t-10 -7.5zM203 85q0 -6 3 -11q2 -16 3 -16l55 49q-8 11 -24 11q-13 0 -25 -11t-12 -22zM567 263h5q10 -8 10 -18q0 -13 -20 -13q-16 0 -16 12q0 3 1.5 5.5t3.5 3.5t2 2l1 1q0 1 1 2.5t2 3.5q1 1 10 1z" />
    <glyph glyph-name="f_f_l" unicode="ffl" horiz-adv-x="634" 
d="M469 100l-33 -35l-14 -13q-6 -6 -11 -10q-40 -38 -67 -49q-26 -13 -39 -13q-7 0 -9 -2l-17 -105q-9 -36 -18 -63q-2 -13 -22 -53l-21 -58q-19 -55 -40 -55q-7 0 -14 7.5t-7 15.5q0 3 1 7t1 7q0 2 -2 7.5t-2 8.5t3.5 8.5t3.5 11.5q0 51 29 122q3 5 9 22q3 6 3 18
q6 18 21 54.5t21 54.5l1 3q-1 3 -4.5 5t-8 3.5t-6.5 2.5q-22 14 -33 28q-2 -2 -3 -2q-25 -23 -33 -27q-13 0 -21 -11q-8 -3 -38 -10q-2 0 -2 -7v-4q2 -7 2 -24q-3 -66 -4 -73q-2 -6 -3.5 -16.5t-2.5 -14.5q-11 -38 -23 -64q0 -9 -3 -14l-36 -68q-4 -4 -12.5 -14t-18.5 -20
q-9 -9 -24 -9q-25 0 -31 24q-1 3 -1 10q0 4 0.5 11t0.5 10q0 21 6 42l4 11q12 36 14 52q4 4 5.5 9.5t2 12.5t1.5 12q0 3 4 8t4 9q0 3 -0.5 9t-0.5 8v4q1 1 3.5 6.5t5 11.5t3.5 7q0 1 0.5 6.5t0.5 6.5l2 5l2 5q1 1 6 10t9.5 17.5t4.5 10.5q9 21 9 44q0 2 -1 7.5t-1 8.5
q0 6 7 10t9 7q12 24 15 33q9 18 9 27h-4l-71 -67q-3 0 -3 5t2 7l81 88q14 21 24 41l10 29l15 28q2 0 2 5l24 46q1 1 4 4.5t3 4.5q2 2 24 47l32 39q5 5 21 29l19 19q1 0 2.5 0.5l3 1l3 1t3.5 0.5q15 0 15 -14q0 -22 -13 -44q-3 -5 -38 -79q-61 -88 -84 -107l-24 -38l-17 -36
q0 -5 -5 -15q-19 -33 -19 -67q0 -11 9 -21.5t20 -10.5q17 0 26 3q27 7 58 35q-10 19 -10 35q1 4 1 20q1 3 11 18l7 14q7 13 43 13q18 0 30 -8l5 -4q5 -4 7 -5q10 9 16 17l14 43q1 4 5.5 13t11.5 25t13 31q8 15 16 34t12 31l4 11q0 1 1.5 6.5t1.5 7.5l28 45q7 5 14.5 20
t9.5 18q9 8 12 14q9 18 31 18q10 0 13 -5.5t3 -30.5q0 -2 -2 -11t-2 -10q-31 -84 -44 -102q-4 -5 -15.5 -25.5t-17.5 -30.5q-11 -17 -43.5 -54t-36.5 -44q0 -2 -2 -4l-5 -13l-22 -50q0 -1 -0.5 -2.5t-0.5 -3.5v-40l-1 -29l2 -4l5 1h6q13 0 31 6q25 9 61 41l28 27l34 39
l13 20l5 8l15 51q5 7 17 43l36 72q3 21 25 43l28 56q9 9 16 23l4 8q1 1 17.5 20.5t18.5 21.5q16 4 17 4q10 0 13 -6q2 -3 2 -16v-9l-1 -6l-25 -60q-4 -6 -10 -22q-2 -2 -9.5 -14t-14.5 -22.5t-8 -13.5l-17 -36q-2 -5 -9.5 -13.5t-9.5 -15.5q-54 -70 -74 -103l-12 -30
q0 -9 -2 -13q-9 -36 -9 -60q0 -39 30 -39q7 0 13.5 0.5t11 1t10.5 3t9 3.5t10 5t9 5.5t11 7.5l12 8q4 3 10 8.5t10 9.5t7 4q6 0 6 -6q-3 -6 -22 -21q-1 -1 -15.5 -11.5t-18 -13t-16.5 -10t-20.5 -10t-19 -5.5t-22.5 -3q-8 0 -14 2t-9.5 4.5t-7 7.5t-4.5 7.5t-3.5 8.5t-2.5 7
q2 5 2 13q0 3 -1.5 8.5t-1.5 8.5q0 4 4 22q0 4 1.5 13t1.5 18zM-29 -309q4 -6 14 -6q8 0 16 10l14 20q9 15 21 43t20 48l8 21q18 63 18 109l-1 28l-9 19q-1 3 -6.5 10.5t-8.5 7.5q-1 0 -3.5 -3.5t-4.5 -8t-3 -5.5l-17 -42l-1 -3q-2 -3 -2 -4l-12 -43l-7 -13l-24 -104
q-6 -6 -7 -10v-5q0 -8 -4 -26t-4 -26q0 -13 3 -17zM187 -272q0 -26 6 -26t13 18l11 33l28 62l27 103q1 7 5 29.5t4 32.5h-5l-4 1q-5 -2 -7 -7q-6 -9 -14.5 -35t-13.5 -47l-5 -21q-7 -11 -10.5 -20t-6 -19t-4.5 -16q-7 -21 -14 -48.5t-10 -39.5zM366 253l-32 -80q36 43 40 48
q34 53 52 84l25 54q9 27 9 45q0 12 -7 12q-8 -3 -16 -15l-13 -20zM586 329l-2 -8q-11 -16 -35.5 -69.5t-28.5 -61.5q0 -4 1 -4t2.5 1.5t2.5 4.5l2 2l54 73q1 3 2.5 6.5t3 6t4.5 5.5l64 119q13 39 13 41q0 4 -4 4q-8 0 -25 -24q-5 -6 -19.5 -32t-18.5 -39q-10 -7 -16 -25z
M137 214l2 -4l8 9q66 86 76 112q2 8 14 27.5t12 31.5q0 6 -3 6q-5 0 -15 -9t-14 -16l-41 -70l-7 -18zM213 47q6 -12 15 -19q15 -15 26 -18q5 0 5 6l3 10q7 4 7 17q0 2 -0.5 6t-0.5 5l4 15l6 22h-9q-4 -5 -21 -17q-8 -4 -11 -9q-3 -2 -10 -7.5t-10 -7.5zM203 85q0 -6 3 -11
q2 -16 3 -16l55 49q-8 11 -24 11q-13 0 -25 -11t-12 -22z" />
    <glyph glyph-name="C_h" unicode="Ch" horiz-adv-x="692" 
d="M54 266q32 81 52 98l26 21l-5 6q2 2 7 13t11 15l41 39v8q5 9 12 13l44 38h6l26 21q5 9 27.5 19t33.5 12q3 1 13.5 6.5t20 10t10.5 4.5t12 3t26.5 6.5t28.5 3.5q35 0 52 -22.5t17 -46.5q0 -9 -1.5 -17t-1.5 -15l-2 -11q0 -1 -4 -9t-7 -11q-1 -11 -10 -21.5t-19 -15.5
l-15 -14q-19 -18 -50 -22q-2 0 -5.5 -0.5t-5.5 -0.5q-40 0 -45 39q0 16 10.5 28.5t17.5 13.5q10 0 12 -8q0 -3 -8.5 -11.5t-8.5 -18.5q4 -29 26 -29h7q29 4 54 35q11 18 12 20l9 24l4 19q2 7 2 33q0 41 -51 44q-32 0 -74 -21q-15 -5 -41 -23.5t-27 -19.5l-38 -31l-5 -1
q-16 -20 -22 -22l-34 -39q-6 -2 -6 -4q-22 -30 -36 -64q-4 -8 -20 -24q-8 -5 -21 -22q-8 -32 -8 -34q0 -9 -7 -27q-16 -32 -16 -39l-3 -4q-3 -4 -5.5 -10.5t-2.5 -13.5v-4q-1 -10 -1 -25q0 -7 0.5 -22t0.5 -26q0 -40 4 -52q1 -2 7 -16t14 -19l4 -7q27 -36 98 -40q36 0 72 6
q5 1 6 3q4 6 14 6t22 8q2 0 5.5 2t8 4.5t8.5 4.5q1 1 12.5 9t13.5 9q15 8 36.5 29t28.5 27l6 6l7.5 7.5t3.5 4.5q44 42 69 81l5 8l16 38q18 35 18 37l16 32q0 2 3.5 7l7 10t3.5 6l8 19l3 10q0 3 6.5 14.5t7.5 14.5l15 30q1 3 4.5 10.5t6 14t3.5 10.5q2 4 10 15t11 18l10 17
q2 5 13 23q3 14 14 25q10 13 26 13q9 0 16 -9.5t7 -20.5q0 -24 -13 -76q-7 -10 -22 -42q-3 -17 -26 -49q-10 -19 -26 -41q-9 -8 -11 -12q0 -1 -3 -6.5t-6 -10t-5 -5.5l-17 -24q-18 -19 -24 -26q-6 -8 -20 -20.5t-22 -21.5q-3 -4 -7.5 -8.5l-7 -7t-2.5 -3.5q-16 -27 -19 -36
l-17 -34v-7l1 -2q2 -2 3 -2l7 7q38 35 72 55q7 5 18 5q9 0 13 -9q0 -1 0.5 -1.5t0.5 -1.5l4 -5q0 -5 1 -14q-6 -48 -16 -65l-2 -3q-2 -3 -2 -4v-10q-2 -18 -2 -24q1 -7 14 -7q22 0 50 20q7 4 19 14t20 18l9 8q2 3 5 3q5 0 5 -6q0 -5 -15 -17l-34 -28q-3 -4 -4 -5
q-15 -15 -21 -15q-7 0 -9 -6q-15 -13 -44 -13q-11 0 -23 10q-3 2 -6 16l-2 10q0 19 15 51t15 57q0 8 -6 9q-23 -4 -50 -33l-29 -33l-17 -21l-10 -20q-25 -56 -36 -69l-8 -14q-1 0 -3 -1l-2 -1q-11 0 -11 18q0 10 8 26l9 18q7 14 15.5 30.5t15 30t14.5 31.5q10 23 12 30
q-1 -1 -10.5 -12t-19.5 -22t-14 -14q-12 -14 -27 -26.5t-27 -25.5l-26 -22q-2 -1 -5 -2q-7 -8 -22 -16.5t-23 -9.5l-16 -9h-16q-9 -6 -14 -11q-5 -3 -31 -7t-44 -4q-40 0 -73 13l-30 20q-8 4 -9 5t-5 7t-7 8q-16 13 -28 42q-7 18 -8.5 29t-2.5 51q0 3 4 10t4 10q0 2 -3 5
t-3 4q0 42 13 71q3 6 6.5 20t5.5 20zM708 518q-14 0 -24 -15l-21 -43q-5 -7 -5 -8q0 -6 -6 -12q-4 -4 -14 -24l-24 -58l-11 -35l-7 -6q-16 -35 -18 -40q-1 -2 -7.5 -14t-8.5 -19q-1 -3 -6.5 -12.5t-5.5 -13.5q0 -2 2 -2q4 0 31 32q1 2 6 8t5 8q0 3 19 22q19 31 22 33
q3 7 10 14l12 18q1 1 10.5 19.5t13.5 22.5q37 66 38 105q0 20 -11 20z" />
    <glyph glyph-name="T_h" unicode="Th" horiz-adv-x="830" 
d="M-50 83v-12q0 -32 13 -45q17 -24 30 -34l28 -10l5 -5q3 0 7 -0.5t6 -0.5q40 -7 66 -7q6 0 17.5 1.5t16.5 1.5h8l46 12q89 41 114 64q2 1 5.5 6t4.5 6l18 17q2 0 2 5q-3 0 -7 2t-7 2q-2 0 -6.5 0.5t-8.5 1.5t-7 2q-23 9 -26 9q-30 5 -42 5q-4 6 -13 6q-8 2 -24.5 6.5
t-27.5 6.5l-74 16h-9q-4 0 -16.5 3t-23.5 3q-57 0 -86 -37q-6 -7 -9 -25zM228 501v-4q0 -14 9 -14q6 0 8 2t10 8.5t8 7.5l18 22l15 27q4 5 9.5 19t5.5 17v9h-7q-1 0 -29 -24q-33 -36 -47 -70zM900 623q-11 0 -28 -17l-23 -49q-6 -8 -6 -9q0 -5 -7 -14q-1 -1 -16 -27l-27 -65
l-12 -41l-8 -6q-19 -41 -21 -46q-1 -2 -8 -15.5t-10 -21.5q-1 -4 -7.5 -15t-6.5 -15q0 -2 3 -2t10 7.5t15 17t10 11.5q1 1 6.5 8.5t5.5 9.5q0 4 21 25q3 5 9.5 14.5t10.5 16t6 7.5q5 13 12 16q11 18 13 20q2 3 12.5 23t14.5 25q0 1 2 3q41 77 42 116q0 23 -13 23zM722 -18
q-30 0 -30 34q0 5 1 13t3 15l1 6q1 11 11 36.5t12 41.5q0 8 -2 9.5t-6 1.5q-11 0 -34 -19q-11 -9 -24.5 -23.5t-21.5 -24.5l-8 -11l-5 -7q-5 -8 -11.5 -18t-10.5 -17l-17 -29q-4 -5 -8 -5q-12 0 -12 16q0 8 7 19t8 15q8 22 27 51l27 65q12 14 12 28q-2 0 -15 -10
q-5 -5 -9 -5l-16 -15q-34 -25 -61 -39q-46 -28 -89 -33h-9q-32 -4 -49 -4q-2 0 -7 0.5t-7 0.5q-38 -38 -49 -47q0 -2 -5 -2q-3 -1 -10 -10.5t-12 -9.5q-44 -20 -55 -26q-7 -7 -11 -7q-7 -4 -36 -13q-14 -7 -15 -7q-30 -12 -53 -12q-3 0 -7 2t-6 2q-4 0 -11 -2t-10 -2
q-4 4 -61 9q-6 3 -19 7.5t-19 8.5l-27 19q-33 27 -35 33v5l-1 4q-1 0 -4 5l-2 3q-9 17 -9 47q0 31 22.5 51t46 26t44.5 6q32 0 37 -1q58 -7 71 -12l31 -13q1 0 10.5 -1.5t10.5 -1.5q30 -9 49 -13q5 -1 26 -7t29 -6q1 0 7.5 -2.5t7.5 -2.5q4 0 18.5 -2t20.5 -2q4 0 7 6l34 56
q64 116 72 128l25 31q7 12 14 31.5t11 27.5q3 4 14.5 17.5t13.5 23.5l81 114q0 9 -12 9q-68 -20 -102 -21q-3 0 -11.5 -1t-13.5 -1q-13 0 -25 4q-21 9 -37 25q-8 12 -14 33v47q-1 11 -18 11q-32 0 -50 -22q-1 -3 -16 -33q0 -2 -2.5 -12t-2.5 -11q-11 -33 -43 -78l-14 -14
t-18 -16.5t-18.5 -11.5t-23.5 -6q-24 0 -24 25q0 15 3 27q31 71 82 114q7 6 26 16.5t32.5 21t16.5 22.5q0 3 2.5 22t2.5 22l3 1q9 0 9 -17v-31q2 0 7 3.5t9 3.5h43q9 -4 11 -7q15 -19 15 -21v-52q0 -4 3.5 -15t7.5 -14l27 -14q8 -2 11 -2q1 0 7.5 0.5t9.5 0.5q45 0 76 4
q32 7 41 15q10 4 44 27.5t44 28.5q3 2 8 2h6q11 0 11 -15q0 -7 -6 -9l-52 -26q-8 -5 -21 -19t-22 -25l-9 -11q-8 -8 -25.5 -37.5t-30.5 -55.5l-14 -25l-15 -33l-10 -11l-136 -262h21q61 0 114 32q6 0 8 1q57 40 69 48l10 8l35 32l23 38l21 45q20 39 20 41l18 38q1 2 8 14
l8 11l9 21l4 12q0 2 3 8t7.5 14t5.5 11l17 34q2 7 8 21t8 19q2 4 11 16.5t12 20.5q1 3 4 7.5t5.5 8t2.5 4.5q3 11 15 26q1 4 4.5 11t7.5 13l4 5q11 14 28 14q10 0 18.5 -10.5t8.5 -24.5q0 -11 -14 -81q0 -1 -1 -3v-1q-13 -21 -24 -48q-1 -5 -12 -25.5t-18 -29.5
q-17 -31 -30 -47q-10 -10 -13 -14q0 -1 -3 -7t-6.5 -11t-5.5 -6l-19 -28q-22 -20 -25 -29q-7 -10 -26 -27.5t-28 -27.5l-10 -14q-8 -9 -22.5 -37t-25 -51t-10.5 -24q-3 -9 -3 -14q0 -3 2 -3t13.5 9t25 20t17.5 14q29 25 41 25q20 0 20 -17q0 -7 -2.5 -12.5t-8.5 -16
t-11 -23.5q-5 -12 -8 -31q-4 -16 -4 -25q0 -4 1 -8.5t1 -8.5q0 -9 0.5 -12.5t4 -7t10.5 -3.5q10 0 16 3q8 3 16.5 8t12.5 8l5 4l1 1q1 1 3 2.5t5.5 4.5t9 8t12.5 12q3 3 5 3q4 0 4 -5q0 -3 -8 -11l-46 -39q-26 -22 -55 -22z" />
    <glyph glyph-name="W_h" unicode="Wh" horiz-adv-x="890" 
d="M651 364q13 18 14 22l22 22q6 8 35 31q4 3 12.5 9.5t14 11t14.5 8t17 3.5q15 0 25.5 -10t10.5 -19q0 -6 -6.5 -11t-11.5 -5q-6 0 -6 2q0 10 -23 10q-17 -1 -30.5 -8.5t-16.5 -14.5h-5q-12 -12 -16 -13q-1 -1 -5 -5.5t-6 -7.5q-2 -7 -14.5 -20t-14.5 -17l-44 -73
q-2 -2 -4 -2l-6 -3q0 -2 -2 -6q-1 -1 -1 -5l-17 -29l-8 -3l-8 -15q-5 -8 -5 -15l-4 -8l-5 -5q-5 -4 -5 -10v-6q-2 -5 -3 -6l-5 -4q0 -2 -4 -6q-3 -12 -12 -29l-18 -35v-2l-1 -2l-4 -6q-20 -44 -26 -72l-24 -60q-6 -11 -21 -11q-6 0 -6 7v4l5 15t8 20l6 18q1 11 9 48
q5 12 5 21v8q0 4 2 10t2 9q0 10 2.5 30.5t3.5 31.5q0 6 1 20t1 22q0 6 2 16q0 3 0.5 8t1 8.5t0.5 4.5v40q2 4 2 5l2 27q0 4 -1 10t-1 9q0 4 0.5 6.5t1.5 4.5t1 4v28q-9 -7 -37 -45q-4 -4 -4 -7l-9 -11l-8 -6q0 -6 -5 -11l-23 -24q-13 -13 -17 -21q-2 -4 -2 -10l-2 -3
q-3 0 -8 -7q-4 -10 -17 -15q-5 -12 -17 -29l-32 -38l-26 -36l-8 -9q-21 -21 -25 -42q-15 -16 -37 -51q-1 -2 -6 -9t-6 -11q-9 -14 -16 -24q-8 -19 -18 -33q-3 -2 -5 -13q-4 -13 -10 -16h-9q-14 0 -14 14q0 13 27 49l11 15q5 16 13 26l2 5q2 6 2 7q0 10 3 13l24 34l11 28
q2 4 5 6q1 2 6 16q4 17 8 22l14 41q2 5 5 7q7 9 7 18l6 17q0 10 6 16l1 3v5q1 1 2 6t3 7q4 6 4 12l1 13q3 19 8 24q5 16 6 25q4 13 6 37q10 10 10 30v2q-1 2 -1 3q0 14 3 24l5 25q0 77 -15 94q-8 16 -30 26q-15 6 -21 6l-51 -11l-29 -20q-2 -2 -2 -6q0 -1 5 -6t6 -7l19 -41
q0 -1 2 -6t3.5 -9.5t1.5 -5.5q0 -16 1 -17l2 -3q2 -3 2 -4q9 -18 9 -55q-1 -16 -9 -50q-1 -3 -5 -7.5t-5 -7.5q0 -2 -9 -29q-1 -2 -1 -3l-25 -28q-3 -1 -7 -6.5t-6 -7.5l-23 -17q-9 -5 -29 -5q-11 0 -21.5 3t-14.5 3q0 1 -6.5 6.5t-13.5 16t-7 21.5q2 10 2 14h-4l1 29l-2 3
q0 9 4 21q4 16 4 17t-1 3.5t-1 4.5q4 14 4 26q1 1 5 8.5t4 8.5q6 18 18 48q2 3 9 11.5t10 14.5l1 4q2 4 2 5q7 7 12 7q5 17 32 42q-16 18 -46 18q-2 0 -5 -0.5t-5 -0.5q0 3 -4 3q-42 0 -65 -23q-3 -4 -8.5 -11t-7.5 -10l-6 -5v-14q0 -1 -1 -8l-2 -7q0 -35 1 -40q2 -6 2 -9
q0 -11 -9 -12q-3 1 -10 28.5t-9 29.5l1 30q6 5 6 20q4 3 8.5 11.5t7.5 10.5l17 14q1 1 8.5 4t9.5 7q22 6 47 6q35 0 65 -13q0 -1 3.5 -2.5l7 -3t4.5 -2.5l8 -6q1 0 3 1.5t4.5 3.5t3.5 3q38 28 94 28q26 -5 43 -15l17 -19q1 -2 7 -11.5t7 -12.5q0 -18 1 -20q4 -4 6 -17v-28
q-1 -47 -9 -94q-6 -8 -6 -19q0 -10 -6 -14q0 -1 -1 -3q-15 -65 -21 -82q-1 -2 -3 -14l-3 -15l-6 -11q-3 -3 -3 -13l-28 -68q0 -6 4 -6q2 0 4 3l3 2q3 3 6 3l39 46q5 5 7 11l15 19q14 16 28 34l21 29l11 11q9 11 14 16q2 2 8.5 11t11.5 13q3 3 7 11q2 2 2 5l10 10v5q0 3 1 5
t4 6t9 11t10 12l45 71q10 10 17 10q8 0 8 -10q-1 -7 -13 -19q-2 -2 -5 -6t-5.5 -7.5t-4.5 -7.5q-6 -18 -11 -55v-3l-1 -2v-39q0 -1 -1 -2v-2q-1 -2 -1 -11v-5q0 -3 0.5 -10.5t0.5 -11.5q0 -2 -2 -7.5t-2 -9.5q0 -2 2 -10q0 -2 0.5 -3.5t0.5 -2.5t-1.5 -3.5t-1.5 -4.5
q0 -4 2 -14q0 -1 0.5 -2.5t0.5 -2.5q0 -2 -2 -8v-41q0 -1 -0.5 -4t-0.5 -5v-6q-1 -7 -1 -29q0 -18 2 -18q4 0 26 44l5 15q0 6 7 13l13 28q4 9 12 18q3 5 4 6l5 5l11 25l16 19q3 3 3 5q5 12 17 20l12 13q1 3 1 4q6 22 20 34zM641 92q-15 -12 -17 -15q-6 -8 -14 -9l-5 -6
q-13 -8 -23 -8q-9 2 -9 9q0 11 6 11q4 0 4 -5q0 -3 3 -3l3 1q10 2 20 13q13 7 14 10l8 7l24 24q29 28 51 62l5 8l16 38q18 35 18 37l16 32q0 2 3.5 7l7 10t3.5 6l8 19l3 10q0 3 6.5 14.5t7.5 14.5l15 30q1 3 4.5 10.5t6 14t3.5 10.5q2 4 10 15t11 18l10 17q2 5 13 23
q3 14 14 25q10 13 26 13q9 0 16 -9.5t7 -20.5q0 -24 -13 -76q-7 -10 -22 -42q-3 -17 -26 -49q-10 -19 -26 -41q-9 -8 -11 -12q0 -1 -3 -6.5t-6 -10t-5 -5.5l-17 -24q-18 -19 -24 -26q-6 -8 -20 -20.5t-22 -21.5q-3 -4 -7.5 -8.5l-7 -7t-2.5 -3.5q-16 -27 -19 -36l-17 -34v-7
l2 -2l2 -2l7 7q38 35 72 55q7 5 18 5q9 0 13 -9q0 -1 0.5 -1.5t0.5 -1.5l4 -5q0 -5 1 -14q-6 -48 -16 -65l-2 -3q-2 -3 -2 -4v-10q-2 -18 -2 -24q1 -7 14 -7q22 0 50 20q7 4 19 14t21 18l8 8q2 3 5 3q5 0 5 -6q0 -5 -15 -17l-34 -28q-3 -4 -4 -5q-15 -15 -21 -15q-7 0 -9 -6
q-15 -13 -44 -13q-11 0 -23 10q-3 2 -6 16l-2 10q0 19 15 51t15 57q0 8 -6 9q-23 -4 -50 -33l-29 -33l-17 -21l-10 -20q-25 -56 -36 -69l-8 -14l-2 -1q-2 -1 -3 -1q-11 0 -11 18q0 10 8 26l9 18q7 14 15.5 30.5t15 30t14.5 31.5q10 23 12 30q-37 -37 -41 -40zM56 283
q3 -1 4 -7.5t3 -8.5q15 -20 43 -20q12 4 21 9t13.5 9.5t13 13.5t14.5 14l19 40q8 4 8 18q0 27 4 40v47q-19 90 -42 90q-5 0 -12 -7.5t-14.5 -19t-8.5 -12.5q-3 -3 -6 -5t-5 -4.5t-4 -6.5q0 -2 -7 -16q-2 -3 -8 -10.5t-7 -9.5q-3 -3 -3 -10q0 -1 -2 -4l-1 -3q-1 0 -3.5 -3.5
t-2.5 -4.5q-1 -1 -2 -7t-1 -7q-3 -4 -3 -5q-9 -27 -9 -32q0 -2 -2.5 -9.5t-3.5 -12.5q0 -1 0.5 -5t0.5 -5l-1 -22q0 -12 4 -24zM905 518q-14 0 -24 -15l-21 -43q-5 -7 -5 -8q0 -6 -6 -12q-4 -4 -14 -24l-24 -58l-11 -35l-7 -6q-16 -35 -18 -40q-1 -2 -7.5 -14t-8.5 -19
q-1 -3 -6.5 -12.5t-5.5 -13.5q0 -2 2 -2q4 0 31 32q1 2 6 8t5 8q0 3 19 22q19 31 22 33q3 7 10 14l12 18q1 1 10.5 19.5t13.5 22.5q37 66 38 105q0 20 -11 20z" />
    <glyph glyph-name="b_i" unicode="bi" horiz-adv-x="450" 
d="M118 214v-6l7 6l73 95q1 2 10.5 10.5t11.5 15.5q4 5 24 32.5t23 31.5l21 37q28 62 33 78q8 32 8 40q0 12 -7 12q-2 0 -19 -18q-28 -39 -46 -63q-3 -4 -3 -5l-1 -1l-1 -5q-2 -6 -2 -7q-7 -16 -33 -42q-2 -25 -31 -67v-11q-2 -3 -12.5 -25t-20.5 -30zM403 263h5
q10 -8 10 -18q0 -13 -20 -13q-16 0 -16 12q0 3 1.5 5.5t3.5 3.5t2 2l1 1q0 1 1 2.5t2 3.5q1 1 10 1zM247 56l19 18l32 36q8 0 8 10q0 5 10 10q3 4 3 11q0 2 3 5t7.5 6.5t5.5 4.5q1 0 5.5 4.5t8.5 4.5q7 0 7 -8q0 -9 -4 -13q-3 -12 -3 -13q0 -3 -4 -6.5t-6 -3.5q-8 0 -8 -6
q0 -4 1 -6v-3l-4 -15q0 -2 -1 -5l-2.5 -7.5l-2.5 -7.5q-4 -6 -4 -26l4 -13l1 -11l3 -1q6 -8 10 -11q10 -2 20 -2q12 0 24 6q3 0 17 8.5t17 11.5q7 4 19 14t21 18l8 9q2 3 5 3q4 0 4 -6q0 -3 -7 -10l-43 -37q-3 -2 -4 -3q-22 -20 -37 -22l-13 -8l-8 -2q-7 -2 -24 -2
q-16 0 -23 5q-9 5 -9 11q0 4 -6 4l-3 6l-4 15l3 17l-2 19q1 5 1 9q0 3 -3 3q-2 0 -26 -24q-8 -7 -12 -8l-5 -1q-1 -4 -4 -5q-14 -10 -35 -10q-30 0 -42 26q-1 -2 -5 -9.5t-7 -12.5l-2 -1q-2 -2 -3 -4l-2 -1l-9 -17q-34 -39 -55 -47h-5q-3 -1 -9 -4t-12 -3q-11 0 -17 15
t-6 28q0 33 14 75q5 10 5 17q0 6 -1 6l-60 -57h-4q-6 0 -6 6q65 62 84 101l34 86q22 44 30 68q2 1 3 3t1 3.5t0.5 4t1.5 3.5t3.5 5.5t6 10.5t4.5 8l1 1l4 4l1 2q21 35 21 36v7l20 38q5 10 5 14l50 76q3 3 13.5 11.5t12.5 14.5q10 16 16 35q18 24 39 24q20 0 20 -30v-10
q-7 -31 -28 -82l-3 -9q0 -1 -2 -8.5t-4 -9.5q0 -1 -22 -36q-2 -3 -4 -9.5t-3 -8.5l-50 -72q-3 -3 -7 -9l-33 -35l-3 -7l-73 -93l-12 -12q-7 -7 -24 -62q-6 -13 -16 -61q-7 -35 -7 -47q0 -20 13 -20t27 12q18 14 18 17v5q24 20 36 59q-2 11 -2 21q0 15 7 29q8 12 22 12
q10 0 10 -14l-5 -8q-5 -8 -5 -12v-8l-3 -7l3 -13q0 -10 6 -21q6 -12 25 -12q15 0 34 15z" />
    <glyph glyph-name="b_l" unicode="bl" horiz-adv-x="469" 
d="M340 -20q-8 0 -14 2t-9.5 4.5t-7 7.5t-4.5 7.5t-3.5 8.5t-2.5 7q2 5 2 13q0 3 -1.5 8.5t-1.5 8.5q0 4 4 22q0 4 1.5 15t1.5 20q-60 -49 -96 -49h-7l-8 1q-7 0 -9 2q-8 8 -17 8l-19 -33l-2 -1q-2 -2 -3 -4l-2 -1l-9 -17q-34 -39 -55 -47h-5q-3 -1 -9 -4t-12 -3
q-11 0 -17 15t-6 28q0 33 14 75q5 10 5 17q0 6 -1 6l-60 -57h-4q-6 0 -6 6q65 62 84 101l34 86q22 44 30 68q2 1 3 3t1 3.5t0.5 4t1.5 3.5t3.5 5.5t6 10.5t4.5 8l1 1l4 4l1 2q21 35 21 36v7l20 38q5 10 5 14l50 76q3 3 13.5 11.5t12.5 14.5q10 16 16 35q18 24 39 24
q20 0 20 -30v-10q-7 -31 -28 -82l-3 -9q0 -1 -2 -8.5t-4 -9.5q0 -1 -22 -36q-2 -3 -4 -9.5t-3 -8.5l-50 -72q-3 -3 -7 -9l-33 -35l-3 -7l-73 -93l-12 -12q-7 -7 -24 -62q-6 -13 -16 -61q-7 -35 -7 -47q0 -20 13 -20t27 12q18 14 18 17v5q24 20 36 59v4q0 4 -3 11t-3 14
q0 12 9.5 31.5t19.5 19.5q8 0 8 -6v-17q0 -6 -1 -17.5t-1 -18.5q0 -10 12 -16.5t24 -6.5q18 0 37 10t29 19t29 28l6 7l15 56q6 9 18 45l38 76q3 24 26 45l29 59q10 10 17 24q4 8 4 9q2 2 19 22.5t19 21.5q16 4 18 4q11 0 14 -6q2 -3 2 -17v-9l-1 -7l-26 -63q-4 -5 -11 -23
l-10 -15t-15 -23t-9 -15l-18 -37q-2 -5 -9.5 -14t-9.5 -17q-59 -73 -79 -106l-12 -30q0 -9 -2 -13q-9 -36 -9 -60q0 -39 30 -39q7 0 13.5 0.5t11 1t10.5 3t9 3.5t10 5t9 5.5t11 7.5l12 8q4 3 10 8.5t10 9.5t7 4q6 0 6 -6q-3 -6 -22 -21q-1 -1 -15.5 -11.5t-18 -13t-16.5 -10
t-20.5 -10t-19 -5.5t-22.5 -3zM114 214v-6l7 6l73 95q1 2 10.5 10.5t11.5 15.5q4 5 24 32.5t23 31.5l21 37q28 62 33 78q8 32 8 40q0 12 -7 12q-2 0 -19 -18q-28 -39 -46 -63q-3 -4 -3 -5l-1 -1l-1 -5q-2 -6 -2 -7q-7 -16 -33 -42q-2 -25 -31 -67v-11q-2 -3 -12.5 -25
t-20.5 -30zM427 336l-3 -8q-11 -17 -36 -72t-31 -66q0 -4 1 -4l8 8l56 77q2 3 5 9.5t6 9.5l67 125q14 41 14 43q0 4 -4 4q-5 0 -9.5 -4t-10.5 -12l-7 -9q-4 -6 -19.5 -33t-20.5 -41q-10 -8 -16 -27z" />
    <glyph glyph-name="b_s" unicode="bs" horiz-adv-x="473" 
d="M293 -16q0 11 6 11h5q4 -2 7 -7.5t8 -8.5t16 -3q1 0 2.5 0.5t2.5 0.5q6 9 8 26q0 1 -0.5 12t-0.5 15q0 3 3 8.5t3 7.5l-4 14q0 2 -2 12t-2 15q0 4 1.5 10.5t1.5 9.5q0 2 -0.5 6t-0.5 5q0 3 0.5 8t0.5 7q0 6 -2 6t-4 -2q-2 -1 -8 -9t-8 -9q-20 -23 -25 -27q-5 -12 -47 -46
l-8 -2q-1 -4 -4 -5q-14 -10 -35 -10q-30 0 -42 26q-1 -2 -5 -9.5t-7 -12.5l-2 -1q-2 -2 -3 -4l-2 -1l-9 -17q-34 -39 -55 -47h-5q-3 -1 -9 -4t-12 -3q-11 0 -17 15t-6 28q0 33 14 75q5 10 5 17q0 6 -1 6l-60 -57h-4q-6 0 -6 6q65 62 84 101l34 86q22 44 30 68q2 1 3 3t1 3.5
t0.5 4t1.5 3.5t3.5 5.5t6 10.5t4.5 8l1 1l4 4l1 2q21 35 21 36v7l20 38q5 10 5 14l50 76q3 3 13.5 11.5t12.5 14.5q10 16 16 35q18 24 39 24q20 0 20 -30v-10q-7 -31 -28 -82l-3 -9q0 -1 -2 -8.5t-4 -9.5q0 -1 -22 -36q-2 -3 -4 -9.5t-3 -8.5l-50 -72q-3 -3 -7 -9l-33 -35
l-3 -7l-73 -93l-12 -12q-7 -7 -24 -62q-6 -13 -16 -61q-7 -35 -7 -47q0 -20 13 -20t27 12q18 14 18 17v5q24 20 36 59q-2 11 -2 21q0 15 7 29q8 12 22 12q10 0 10 -14l-5 -8q-5 -8 -5 -12v-8l-3 -7l3 -13q0 -10 6 -21q6 -12 25 -12q15 0 33 14l28 25q14 14 15 18
q19 20 62 79l13 29q3 4 9.5 13t11 13t9.5 4q9 0 9 -8q-2 -7 -2 -8q-5 -14 -15.5 -29t-18.5 -35q0 -7 1.5 -16t1.5 -17q0 -3 -1.5 -8.5t-1.5 -8.5q0 -6 5 -16.5t5 -16.5l-1 -13l5 -14q0 -10 -4 -36q-1 -1 -6 -23q6 3 14.5 8.5t14.5 8.5q10 2 13 10q3 2 15 12q12 2 12 11
l42 38q3 3 6 3q4 0 4 -6q0 -3 -7 -10l-20 -21l-24 -22q-40 -35 -51 -43q-4 0 -7 -2t-5 -4.5t-4 -3.5q-10 -6 -23 -10q-13 -9 -25 -9q-19 0 -28 16q-3 4 -3 8q-2 4 -2 13zM118 214v-6l7 6l73 95q1 2 10.5 10.5t11.5 15.5q4 5 24 32.5t23 31.5l21 37q28 62 33 78q8 32 8 40
q0 12 -7 12q-2 0 -19 -18q-28 -39 -46 -63q-3 -4 -3 -5l-1 -1l-1 -5q-2 -6 -2 -7q-7 -16 -33 -42q-2 -25 -31 -67v-11q-2 -3 -12.5 -25t-20.5 -30z" />
    <glyph glyph-name="c_h" unicode="ch" horiz-adv-x="508" 
d="M29 18q-7 18 -7 41v9q-19 -18 -24 -21q-5 0 -5 7q0 6 5 8q9 9 20 23l4 4l5 5q1 8 13 27l27 26q12 14 33 25t39 11l25 -2q2 -2 6 -4t7.5 -3.5t3.5 -2.5q8 -8 8 -19v-9q-1 -11 -4 -14q-9 -6 -14 -6q-13 0 -13 13q0 1 1 1.5t3 2t3 2.5q3 3 3 11q0 17 -26 17q-32 -2 -48 -29
l-5 -12h-6q-4 -4 -4 -6l-2 -3q-2 -2 -4.5 -5t-4.5 -5l2 -9q0 -3 -6.5 -10t-6.5 -11l-4 -10q0 -2 3 -8l2 -5q0 -1 -1 -2t-1 -3q0 -1 0.5 -3t0.5 -4q0 -6 1 -10q0 -7 8 -15q16 -16 38 -16q18 2 27 5l13 6q14 4 27 14l10 5q22 18 26 22l4 2l18 18q3 3 9 8t9.5 8.5t4.5 6.5
q58 55 75 84l17 31q0 5 6 11l11 29q0 3 3 3l41 97l6 7q1 1 7.5 14t7.5 14q14 31 27 44l42 48q12 12 23 12h4q9 0 14 -5q0 -1 1 -8.5t1 -9.5q1 -4 1 -11q0 -23 -14 -42q-9 -11 -9 -15l-97 -131q-1 -3 -21 -26t-27 -30l-21 -23q-16 -35 -24 -56l-17 -34v-7q1 0 2 -2t2 -2l7 7
q38 35 72 55q7 5 18 5q9 0 13 -9q0 -1 0.5 -1.5t0.5 -1.5l4 -5q0 -5 1 -14q-6 -48 -16 -65l-2 -3q-2 -3 -2 -4v-10q-2 -18 -2 -24q1 -7 14 -7q22 0 50 20q7 4 19 14t20 18l9 8q2 3 5 3q5 0 5 -6q0 -5 -15 -17l-34 -28q-3 -4 -4 -5q-15 -15 -21 -15q-7 0 -9 -6
q-15 -13 -44 -13q-11 0 -23 10q-3 2 -6 16l-2 10q0 19 15 51t15 57q0 8 -6 9q-23 -4 -50 -33l-29 -33l-17 -21l-10 -20q-25 -56 -36 -69l-8 -14q-1 0 -3 -1l-2 -1q-11 0 -11 18q0 10 8 26l9 18q3 5 8.5 14t7.5 13q12 14 14 30l15 35q10 23 12 30l-40 -40q-34 -34 -45 -43
l-9 -9q-7 -6 -12.5 -10.5t-8 -6.5t-4.5 -3.5t-3 -2t-1 -1.5q-9 -7 -23 -12l-15 -4q-8 0 -9 -8q-16 -6 -35 -8q-31 0 -45 11q-2 1 -7 5.5t-5 5.5q0 5 -8 5zM514 465q-5 0 -20 -15q-8 -7 -16 -16t-13 -15.5t-12 -18.5t-10 -17t-10.5 -19.5t-9.5 -19.5q-1 -1 -6.5 -11l-11 -20
t-5.5 -12q-20 -31 -20 -57q1 0 12.5 12.5t16.5 20.5q6 9 39.5 54.5t37.5 51.5q1 4 16.5 28t15.5 41v5q0 8 -4 8z" />
    <glyph glyph-name="f_j" unicode="fj" horiz-adv-x="398" 
d="M200 34q-21 -21 -42 -33q-13 0 -21 -11q-8 -3 -38 -10q-2 0 -2 -7v-4q2 -7 2 -24q-3 -66 -4 -73q-2 -6 -3.5 -16.5t-2.5 -14.5q-11 -38 -23 -64q0 -9 -3 -14l-36 -68q-4 -4 -12.5 -14t-18.5 -20q-9 -9 -24 -9q-25 0 -31 24q-1 3 -1 10q0 4 0.5 11t0.5 10q0 21 6 42l4 11
q12 36 14 52q4 4 5.5 9.5t2 12.5t1.5 12q0 3 4 8t4 9q0 3 -0.5 9t-0.5 8v4q1 1 3.5 6.5t5 11.5t3.5 7q0 1 0.5 6.5t0.5 6.5l2 5l2 5q1 1 6 10t9.5 17.5t4.5 10.5q9 21 9 44q0 2 -1 7.5t-1 8.5q0 6 7 10t9 7q12 24 15 33q9 18 9 27h-4l-71 -67q-3 0 -3 5t2 7l81 88
q14 21 24 41l10 29l15 28q2 0 2 5l24 46q1 1 4 4.5t3 4.5q2 2 24 47l32 39q5 5 21 29l19 19q1 0 2.5 0.5l3 1l3 1t3.5 0.5q15 0 15 -14q0 -22 -13 -44q-3 -5 -38 -79q-61 -88 -84 -107l-24 -38l-17 -36q0 -5 -5 -15q-19 -33 -19 -67q0 -11 9 -21.5t20 -10.5q17 0 26 3
q27 7 58 35l18 16l23 21l34 31l13 22q12 19 36 19q4 0 7 -3.5t3 -6.5l-6 -8l-15 -9q-6 -5 -10 -9q-11 -5 -18 -32l-6 -24q-2 -7 -4 -36t-4 -37q0 -6 -2 -20q0 -12 -2 -22q4 3 10.5 8.5t10.5 9.5t5 4q5 3 13 11t14 11q15 10 34 27l28 26q4 2 13 11t12 9q6 0 6 -6
q-4 -6 -22 -21l-25 -26q-16 -7 -46 -37l-28 -22q-4 -4 -29 -31q-1 -1 -1.5 -4.5t-0.5 -5.5v-14q0 -6 -1 -9q0 -2 -2.5 -10t-2.5 -10q0 -3 -1.5 -11t-1.5 -9q-3 -9 -3 -13q0 -10 -3 -19t-8 -20t-8 -19q-7 -21 -7 -22q-1 -9 -10 -20l-8 -19l-12 -22l-26 -27q0 -2 -7.5 -5
t-12.5 -4h-6q-22 0 -24 38q1 19 2 28l10 34q3 13 8 18q4 7 9 16.5t10 18.5l17 29q11 14 13 18q3 9 12 20q16 21 26 32l5 5q3 3 5.5 11.5t4.5 10.5q2 7 4 21q0 21 9 48q6 16 6 19q3 4 3.5 18.5t2.5 22.5q3 12 6 19v5l-3 -2q-3 -2 -6.5 -4.5t-4.5 -2.5q-4 -2 -8 -7l-5 -5
l-14 -14q-10 -11 -17 -17zM-29 -309q4 -6 14 -6q8 0 16 10l14 20q9 15 21 43t20 48l8 21q18 63 18 109l-1 28l-9 19q-1 3 -6.5 10.5t-8.5 7.5q-1 0 -3.5 -3.5t-4.5 -8t-3 -5.5l-17 -42l-1 -3q-2 -3 -2 -4l-12 -43l-7 -13l-24 -104q-6 -6 -7 -10v-5q0 -8 -4 -26t-4 -26
q0 -13 3 -17zM218 -110q-14 -12 -20 -24q-4 -3 -16 -21q0 -1 -5.5 -11.5t-9.5 -16.5l-8 -14q-1 -3 -5 -9.5t-6 -11.5q-13 -23 -17 -43q-4 -17 -4 -30q0 -11 3 -24q2 -7 13 -7q6 0 15 14q1 3 5.5 13t5.5 12q3 0 5.5 5.5t2.5 9.5q11 17 11 31q4 8 7 19l1 2v2l12 43l10 30
q5 25 5 29zM137 214l2 -4l8 9q66 86 76 112q2 8 14 27.5t12 31.5q0 6 -3 6q-5 0 -15 -9t-14 -16l-41 -70l-7 -18zM373 284h-7q-8 0 -9 -2q-2 -2 -3 -5l-2 -3q-8 -8 -8 -12q0 -15 18 -15q23 0 23 17q0 4 -3 9t-6 8z" />
    <glyph glyph-name="k_l" unicode="kl" horiz-adv-x="516" 
d="M367 165l17 40l3 10l4 6q4 6 8 12.5t4 8.5l16 33q1 2 9 14l9 12l8 19l-1 8q0 1 10 28q3 8 13 22.5t13 15.5q4 3 12 30q0 9 6 12q1 2 7 9t6 11q7 16 9 18q8 8 9 22q2 11 18 27q13 13 28 13q10 0 18 -10t8 -21q0 -8 -4 -26.5t-8.5 -35.5t-4.5 -19q-2 -3 -10 -18t-10 -19
q-3 -19 -23 -51l-26 -36v-5q-11 -9 -13 -13q-6 -18 -14 -22l-18 -25q-19 -18 -23 -25q-7 -10 -23 -24q-14 -11 -21 -21l-9 -12l-5 -10q-4 -4 -9 -22t-6 -31q-6 -14 -6 -33q0 -22 2 -26q4 -10 6.5 -14t10.5 -8.5t20 -4.5q18 0 27.5 3t26.5 15t28 18q5 2 14 11t12 9q6 0 6 -6
q-3 -5 -12 -12.5t-10 -8.5l-31 -22q-3 -1 -17.5 -9.5t-21.5 -10.5q-19 -7 -35 -7q-9 0 -25 4q-4 1 -8.5 4.5t-7.5 6.5l-3 3q-4 5 -7 11q-7 11 -7 37q1 20 3.5 33t4.5 18t2 6q-3 0 -18 -15q-12 -15 -30 -33q-2 -2 -6.5 -5t-6.5 -5q-1 -1 -3 -4.5t-3 -4.5q-46 -46 -78 -46
q-11 0 -24.5 5t-17.5 11l-9 1q-7 11 -9 12l-13 10v5l-7 8l-9 6l-19 -4q-14 -12 -21 -21l-14 -27l-3 -1q-6 -20 -11 -20q-3 0 -9 3.5t-6 5.5t2 9.5t2 11.5l22 46q8 17 8 21q0 12 1 13q8 6 12 24q0 4 -4 4q-9 -7 -54 -52l-15 -13q-5 -7 -9 -7q-8 0 -8 5l6 7q3 1 7 5t7 8l2 4
l37 34l12 17q6 4 22 25q2 3 5.5 8t6 8.5t4.5 7.5l4 26l11 12l13 36q2 18 6 24q9 14 9 17l1 11q4 6 6 8q1 5 13 26l10 21v8q35 62 46 78l15 23l18 29l5 2q7 9 9 12q7 9 18 9q13 0 13 -26q0 -13 -25 -88l-18 -45q-21 -42 -25 -45q-6 -12 -8 -14q-7 -6 -9 -13l-10 -17l-2 -4
q-15 -20 -19 -24l-12 -18l-4 -1q-19 -24 -22 -28q-3 -1 -10.5 -12t-8.5 -14l-4 -10l-5 -7q-4 -1 -4 -18q0 -3 -4 -10t-5 -11l-4 -20l4 9l9 14q10 6 15 12q12 12 27 16q8 2 18 10l3 2q9 9 17 9q5 0 10 -9.5t5 -19.5q0 -11 -9 -29q-1 0 -11.5 -9.5t-14.5 -10.5l-18 -11l-3 -5
q11 -9 11 -15q0 -3 11 -14q2 -2 7 -9.5t10 -10.5q1 0 4 -2.5t6.5 -4t9.5 -1.5q16 1 35 13q3 2 11.5 8.5t14.5 10.5q2 0 4.5 2.5t4.5 5.5t3 4l24 24q17 17 20 25q24 23 46 60zM568 498q-16 0 -26 -15l-21 -44q-6 -7 -6 -8q0 -6 -6 -12q-4 -4 -13 -25q-9 -14 -24 -58l-11 -36
l-7 -6l-16 -40q-1 -4 -8.5 -19.5t-10.5 -18.5q-1 -2 -4 -7t-5 -9l-3 -5q0 -3 3 -3q4 0 31 32q1 2 6.5 8t5.5 8q0 1 7.5 10t10.5 12q4 5 9 13t9 14t6 7q9 15 9 17q0 6 10 16q2 2 13.5 20t14.5 22q39 70 39 103q0 24 -13 24zM267 489q-10 0 -18 -24q-13 -19 -14 -26
q-17 -28 -19 -39l-21 -50l-6 -7q-7 -16 -9 -22l-37 -82q-6 -12 -6 -17q0 -9 1 -9q2 0 8 8t6 10l5.5 5.5t6.5 7.5q1 4 8 10t10 10q18 27 54 99l20 47l1 7q7 10 9 22q5 15 5 34q0 16 -4 16zM166 136q-6 0 -12 -2t-9 -4.5t-6 -6t-4 -3.5l-29 -27l2 -12q10 -5 13 -5q2 0 7 2
t11 4l9 3l23 12l7 8l6 3l-5 19q-1 9 -13 9z" />
    <glyph glyph-name="l_e" unicode="le" horiz-adv-x="414" 
d="M186 351l-3 -8q-11 -17 -36.5 -74t-30.5 -67q0 -4 1 -4l8 8l56 79q2 3 5 9.5t6 9.5l68 128q14 42 14 44q0 4 -4 4q-5 0 -9.5 -4t-10.5 -12l-7 -9q-4 -5 -20 -33.5t-21 -42.5q-10 -8 -16 -28zM250 76l21 8q16 6 29 16q13 8 25 20q0 1 8 12t8 18q0 10 -7 10q-6 0 -12 -2
t-12.5 -6.5t-10.5 -7.5t-11.5 -9t-9.5 -8q-7 -10 -14 -16q-10 -10 -14 -35zM79 160l12 41q4 7 23 63q6 8 14.5 24t13.5 28l5 12q15 36 26 46l32 56q11 11 18 25q4 8 4 9q2 2 17.5 25t17.5 24q16 4 18 4q11 0 14 -6q2 -3 2 -18v-9l-1 -7l-26 -64q-4 -4 -11 -24
q-1 -2 -9.5 -15t-15.5 -24t-9 -15l-19 -38q-2 -4 -10 -18.5t-10 -22.5q-58 -65 -78 -99l-12 -30q0 -8 -3 -14q-10 -40 -10 -63q0 -43 27 -43q42 0 110 47q0 2 0.5 6.5t0.5 8.5l18 48q19 13 21 20q39 42 77 45q24 0 28 -23q0 -15 -13 -28q-1 -1 -4 -2.5t-4.5 -3.5t-1.5 -5
q-2 -6 -11 -12q-2 0 -25 -16l-30 -17l-27 -11l-1 -14q0 -16 11 -32q1 -2 7 -5l6 -3q7 -7 24 -7q2 0 7 1.5t9 1.5l12 -1l13 10q14 4 27 14l10 4q17 13 26 23l22 20q4 2 6 2q3 0 3 -5q0 -4 -7 -11l-22 -22q-7 -6 -12.5 -10.5t-8 -6.5t-4.5 -3.5t-3 -2t-1 -1.5q-2 -1 -23 -12
l-12 -6q-8 0 -16 -8q-5 -2 -27 -6q-26 0 -42 7q-2 2 -5 4l-1 1q-2 5 -6 6t-5 2l-7 9q-7 11 -9 27l-3 -2q-67 -51 -115 -51q-40 0 -47 29q4 10 4 21q0 3 -3 8.5t-3 8.5q0 8 1.5 15.5t4.5 18t5 19.5q-3 0 -5 -2t-5.5 -6t-7.5 -7q-40 -39 -48 -44q-2 -2 -5 -2q-6 0 -6 5
q0 1 3 4l27 26q1 1 5 4.5t6.5 6t3.5 5.5q25 23 48 63z" />
    <glyph glyph-name="l_l" unicode="ll" horiz-adv-x="412" 
d="M175 35q2 2 12.5 10.5t11.5 9.5q0 1 3 5t4 4l19 19q8 16 8 24q0 1 -1 4q0 4 4 10t4 9v15l4 7v5q1 5 1 6q2 4 2 5q12 28 17 42l12 38q1 2 10 15l8 13l12 13v8q0 4 10 31q16 31 25 35q2 1 12 29q0 4 2 6.5t5 6t5 6.5q1 2 8.5 12.5t13 15.5t12.5 5q10 0 12 -3q2 -2 2 -9
q2 -4 2 -5v-5q0 -10 -11 -52v-6l-1 -4l-2 -2l-2 -2l-1 -5l-2 -5q0 -1 -2.5 -6t-5.5 -9.5t-3 -5.5q0 -9 -5 -19q-7 -21 -17 -24q-4 -7 -9.5 -21t-7.5 -19q-17 -31 -26 -45q-1 0 -3 -2t-2 -3v-5l-6 -4q-5 -4 -8 -9t-6 -12.5t-5 -10.5q-4 -10 -14 -20q-14 -23 -15 -25l-4 -42
v-5q0 -2 1 -6l1 -4q9 -33 21 -38q10 -7 19 -7q14 0 25 3t17 6t20.5 12t24.5 15q5 2 14 11t12 9q6 0 6 -6q-3 -5 -12 -12.5t-10 -8.5l-31 -22q-3 -1 -17.5 -9.5t-21.5 -10.5q-19 -7 -35 -7q-31 0 -40 24q-1 0 -1 3t-1 4q0 6 -3 6l-2 -4q-4 5 -6 13.5t-4.5 20t-3.5 15.5l-7 -4
q-21 -23 -42 -38q-28 -17 -29 -19q-31 -14 -65 -14l-2 4q-4 -2 -5 -2q-5 0 -5 2q-1 1 -7 6t-7 6q-9 5 -10 7t-1 4v3.5t-1.5 3l-3.5 3.5q0 1 -3.5 16.5t-3.5 17.5l1 24q-2 1 -3 1l-8 -8q0 -2 -10 -12q-8 -9 -24 -21l-7 3l3 5l29 31q1 1 10.5 14.5t11.5 15.5l7 13l4 18l7 23
q6 23 12 33q1 6 6 18t6 19v10q0 1 9 19q2 6 7.5 12t7.5 12q1 2 1.5 14.5t2.5 15.5l3 4q2 3 4.5 6.5t2.5 4.5q2 4 5 12t5 12q7 7 7 11v3q0 1 8.5 17.5t8.5 20.5q7 7 7 9q2 3 4 7.5t5 7.5q8 10 21 43q2 4 7 11t6 10q3 3 14 16t19 19t16 6q17 0 17 -17q0 -8 -5 -46
q-2 -1 -6 -11.5t-9 -24t-6 -16.5t-4 -8t-4 -8q-1 -1 -2 -6t-2 -6q0 -3 -5 -8q0 -1 -1.5 -2t-1.5 -2l-2 -8q-1 -4 -4.5 -8t-4.5 -6q-3 -5 -12.5 -23t-13.5 -27q0 -11 -5 -16l-10 -10q-2 -3 -2 -4q-5 -9 -21 -43l-7 -14l-3 -5l-3 -5q-1 -2 -3 -7t-4 -7q-3 -6 -11 -14
q-11 -14 -19 -30q-1 -1 -12 -17l-11 -15q0 -1 -4 -22l-2 -5l-2 -5v-14q-3 -12 -3 -13t0.5 -2t0.5 -2q0 -2 -1 -3v-3l1 -2q2 -29 19 -43q2 -2 6 -2l3 -1h10q12 0 38 8q9 0 9 2q3 1 10 7t13 7zM164 375q-8 -11 -10 -17l-4 -7q-1 -2 -6 -7.5t-6 -9.5v-10l-1 -9q-3 -9 -10.5 -24
t-10.5 -25l-17 -52q0 -3 -6 -15q-1 -3 -5.5 -13t-7 -18.5t-2.5 -14.5q7 7 27 37q1 2 7 11l5 9q5 5 6 5q2 3 4.5 10t3.5 9q3 5 12 24.5t16 28.5q2 2 2 7q0 2 2.5 6.5t2.5 7.5q20 27 26 50v3q6 3 10 11q2 2 3 6t2 9t2 7q2 5 8 15.5t8 15.5q1 3 3 10t4 11q16 37 20 50q0 2 2 6
t2 6q0 11 -6 11q-10 0 -29 -28q-3 -5 -8.5 -15.5t-6.5 -12.5q-7 -7 -7 -10q-2 -4 -4 -11t-3 -10q-5 -8 -11 -14q-6 -7 -17 -43zM289 209q-2 -7 -9.5 -23t-9.5 -26q-2 -5 -2 -6l1 -7l11 14q5 5 5 10l7 7l2 6l2 6q3 7 11 19t11 18q4 6 10 18l9 18l21 39q0 4 1 6q2 5 6 14.5
t7.5 17.5t7.5 16q0 2 2.5 5t2.5 4q7 21 7 36v10q0 4 -3 4t-7.5 -5.5t-9.5 -14.5t-9 -17t-8.5 -17.5t-5.5 -11.5q-2 -3 -5.5 -7.5t-6 -8.5t-3.5 -8q-2 -2 -2 -12q-2 -5 -6.5 -12.5t-5.5 -11.5q0 -1 -3.5 -8.5t-6 -13.5t-2.5 -8q-4 -2 -7 -17q-1 -1 -7.5 -12t-6.5 -17
q0 -3 2 -4z" />
    <glyph glyph-name="o_f" unicode="of" horiz-adv-x="433" 
d="M296 148q1 1 7 16.5t9 20.5l11 31q18 31 18 35l25 48q7 3 7 10q3 3 26 49l33 41q2 2 12 16t11 15l20 20q1 0 2.5 0.5l3 1l3 1t3.5 0.5q16 0 16 -15q0 -25 -14 -46q-2 -4 -16.5 -36t-23.5 -47q-64 -93 -88 -113l-26 -40l-15 -30q0 -4 -8 -20q-2 -9 -6.5 -23t-7 -25
t-2.5 -23q0 -11 9 -21.5t20 -10.5q17 0 26 3q25 7 66 42q13 11 16 11t3 -4t-1 -5q0 2 -10.5 -10t-25.5 -25.5t-22 -13.5q-11 0 -19 -11q-8 -3 -38 -10q-2 0 -2 -7v-4q2 -7 2 -24q-3 -66 -4 -73q-2 -6 -3.5 -16.5t-2.5 -14.5q-11 -38 -23 -64q0 -9 -3 -14l-36 -68
q-4 -4 -12.5 -14t-18.5 -20q-9 -9 -24 -9q-25 0 -31 24q-1 3 -1 10q0 4 0.5 11t0.5 10q0 21 6 42l4 11q12 36 14 52q4 4 5.5 9.5t2 12.5t1.5 12q0 3 4 8t4 9q0 3 -0.5 9t-0.5 8v4q1 1 3.5 6.5t5 11.5t3.5 7q0 1 0.5 6.5t0.5 6.5q1 0 2 5t2 5q1 1 6 10t9.5 17.5t4.5 10.5
q9 21 9 44q0 2 -1 7.5t-1 8.5q0 6 7 10t9 7q13 25 27 76q-33 -30 -77 -40l-6 -1h-15h-12h-4l-19 6q-3 -8 -24 -29q-2 -3 -4.5 -8t-4.5 -7l-1 -2v-2q0 -3 1 -7l-6 -15q-22 -26 -32 -33q-14 -14 -38 -14t-36 15l-7 23q0 8 2 24q0 2 1 6q2 8 2 9q0 4 -5 4l-21 -17q-5 0 -7 5
q42 44 49 54q4 2 8.5 7.5t7.5 7.5q5 4 13.5 13.5t13.5 14.5q23 21 59 21q12 0 17.5 -6t9.5 -19.5t6 -16.5q1 -3 7 -6.5t7 -3.5q15 -5 32 -5l3 2q1 0 8.5 1t15.5 2.5t12 4.5t12 7t12.5 6.5t11.5 9t15 14.5zM192 -309q4 -6 14 -6q8 0 16 10l14 20q9 15 21 43t20 48l8 21
q18 63 18 109l-1 28l-9 19q-1 3 -6.5 10.5t-8.5 7.5q-1 0 -3.5 -3.5t-4.5 -8t-3 -5.5l-17 -42l-2 -3q-1 -3 -1 -4l-12 -43l-7 -13l-24 -104q-6 -6 -7 -10v-5q0 -8 -4 -26t-4 -26q0 -13 3 -17zM51 68q-12 -20 -12 -33q3 -8 3 -9v-7q0 -24 20 -24h8q3 5 10.5 11t13.5 10l7 3
q0 1 -1 3t-1 3q0 5 9 14t10 13l11 41q-9 28 -9 31t2 15q-2 3 -6 3q-6 0 -18 -12l-26 -33q-2 -3 -9 -6.5t-9 -7.5q-2 -2 -2 -7.5t-1 -7.5zM350 210l2 -4l8 9q78 101 88 128q2 8 15 28.5t13 33.5q0 7 -4 7q-5 0 -15.5 -10t-14.5 -17l-43 -73l-8 -19z" />
    <glyph glyph-name="o_f_f" unicode="off" horiz-adv-x="650" 
d="M564 -10q-20 -10 -38 -10q-7 0 -9 -2l-17 -105q-9 -36 -18 -63q-2 -13 -22 -53l-21 -58q-19 -55 -40 -55q-7 0 -14 7.5t-7 15.5q0 3 1 7t1 7q0 2 -2 7.5t-2 8.5t3.5 8.5t3.5 11.5q0 51 29 122q3 5 9 22q3 6 3 18q6 18 21 54t21 55l1 3q-1 3 -4.5 5t-8 3.5t-6.5 2.5
q-4 3 -12.5 10t-15 12t-7.5 5q-24 -28 -36 -28q-11 0 -19 -11q-8 -3 -38 -10q-2 0 -2 -7v-4q2 -7 2 -24q-3 -66 -4 -73q-2 -6 -3.5 -16.5t-2.5 -14.5q-11 -38 -23 -64q0 -9 -3 -14l-36 -68q-4 -4 -12.5 -14t-18.5 -20q-9 -9 -24 -9q-25 0 -31 24q-1 3 -1 10q0 4 0.5 11
t0.5 10q0 21 6 42l4 11q12 36 14 52q4 4 5.5 9.5t2 12.5t1.5 12q0 3 4 8t4 9q0 3 -0.5 9t-0.5 8v4q1 1 3.5 6.5t5 11.5t3.5 7q0 1 0.5 6.5t0.5 6.5q1 0 2 5t2 5q1 1 6 10t9.5 17.5t4.5 10.5q9 21 9 44q0 2 -1 7.5t-1 8.5q0 6 7 10t9 7q13 25 27 76q-33 -30 -77 -40l-6 -1
h-15h-12h-4l-19 6q-3 -8 -24 -29q-2 -3 -4.5 -8t-4.5 -7l-1 -2v-2q0 -3 1 -7l-6 -15q-22 -26 -32 -33q-14 -14 -38 -14t-36 15l-7 23q0 8 2 24q0 2 1 6q2 8 2 9q0 4 -5 4l-21 -17q-5 0 -7 5q42 44 49 54q4 2 8.5 7.5t7.5 7.5q5 4 13.5 13.5t13.5 14.5q23 21 59 21
q12 0 17.5 -6t9.5 -19.5t6 -16.5q1 -3 7 -6.5t7 -3.5q15 -5 32 -5l3 2q1 0 8.5 1t15.5 2.5t12 4.5t12 7t12.5 6.5t11.5 9t15 14.5q1 1 7 16.5t9 20.5l11 31q18 31 18 35l25 48q7 3 7 10q3 3 26 49l33 41q2 2 12 16t11 15l20 20q1 0 2.5 0.5l3 1l3 1t3.5 0.5q16 0 16 -15
q0 -25 -14 -46q-2 -4 -16.5 -36t-23.5 -47q-64 -93 -88 -113l-26 -40l-15 -30q0 -4 -8 -20q-2 -9 -6.5 -23t-7 -25t-2.5 -23q0 -11 9 -21.5t20 -10.5q17 0 26 3q27 7 58 35q-10 19 -10 35q1 4 1 20q1 3 11 18l7 14q7 13 43 13q18 0 30 -8l5 -4q5 -4 7 -5q11 9 16 17
q9 31 14 43q1 3 5 10.5t10 20t11 25.5q7 12 13 27.5t8 24.5l3 10l1 5q1 5 1 6l28 37q6 4 12 17t8 16q10 8 11 9q10 21 25 21q9 0 12 -7t3 -29q0 -1 -1.5 -8t-1.5 -9q-27 -68 -38 -83q-3 -4 -13 -21t-15 -24q-7 -10 -34.5 -44t-32.5 -43q0 -2 -2 -4l-5 -13l-22 -50
q0 -1 -0.5 -2.5t-0.5 -3.5v-40l-1 -29l2 -4q1 0 6 1h5q11 0 32 7q3 1 16.5 7.5t15.5 7.5q1 3 20 12q6 4 18 14t20 18l9 9q3 3 6 3q4 0 4 -5q0 -4 -7 -11l-43 -37q-6 -4 -8 -5q-21 -20 -49 -30zM192 -309q4 -6 14 -6q8 0 16 10l14 20q9 15 21 43t20 48l8 21q18 63 18 109
l-1 28l-9 19q-1 3 -6.5 10.5t-8.5 7.5q-1 0 -3.5 -3.5t-4.5 -8t-3 -5.5l-17 -42l-2 -3q-1 -3 -1 -4l-12 -43l-7 -13l-24 -104q-6 -6 -7 -10v-5q0 -8 -4 -26t-4 -26q0 -13 3 -17zM51 68q-12 -20 -12 -33q3 -8 3 -9v-7q0 -24 20 -24h8q3 5 10.5 11t13.5 10l7 3q0 1 -1 3t-1 3
q0 5 9 14t10 13l11 41q-9 28 -9 31t2 15q-2 3 -6 3q-6 0 -18 -12l-26 -33q-2 -3 -9 -6.5t-9 -7.5q-2 -2 -2 -7.5t-1 -7.5zM408 -272q0 -26 6 -26t13 18l11 33l28 62l27 103q1 7 5 29.5t4 32.5h-4q-4 1 -5 1q-5 -2 -7 -7q-6 -9 -14.5 -35t-13.5 -47l-5 -21q-7 -11 -10.5 -20
t-6 -19t-4.5 -16q-7 -21 -14 -48.5t-10 -39.5zM350 210l2 -4l8 9q78 101 88 128q2 8 15 28.5t13 33.5q0 7 -4 7q-5 0 -15.5 -10t-14.5 -17l-43 -73l-8 -19zM579 240l-24 -67q28 37 31 41q20 28 45 68l21 44q8 20 8 37q0 9 -6 9q-7 -2 -14 -12l-11 -16zM434 47q6 -12 15 -19
q15 -15 26 -18q5 0 5 6l3 10q7 4 7 19q0 2 -0.5 5t-0.5 4l4 15l6 22h-9q-4 -5 -21 -17q-7 -4 -11 -9q-3 -2 -10 -7.5t-10 -7.5zM424 85q0 -6 3 -11q2 -16 3 -16l55 49q-8 11 -24 11q-13 0 -25 -11t-12 -22z" />
    <glyph glyph-name="o_i" unicode="oi" horiz-adv-x="416" 
d="M370 263h5q10 -8 10 -18q0 -13 -20 -13q-16 0 -16 12q0 3 1.5 5.5t3.5 3.5t2 2v1q1 1 2 2.5t2 3.5q1 1 10 1zM116 171q6 0 9 -4l8 4q9 -2 14 -13v-8q0 -2 2.5 -3.5t2.5 -2.5q2 -6 9 -13q5 -4 22 -8h4q21 -3 25 -3q6 -1 20 -1q8 0 10 3q2 1 10.5 3.5t17 6.5t15.5 10
q0 2 2.5 4t6.5 5t5 4q1 0 7 5.5t10 5.5q7 0 7 -8q0 -9 -4 -13q-1 -4 -5 -12q-6 -11 -8 -11q-6 0 -7 -7v-8q-11 -29 -11 -31v-7q-6 -9 -6 -23l4 -13l1 -11l3 -1q6 -8 10 -11q10 -2 20 -2q12 0 24 6q3 0 17 8.5t17 11.5q7 4 19 14t21 18l8 9q2 3 5 3q4 0 4 -6q0 -4 -9 -13
q-22 -23 -34 -32q-8 -5 -9 -6q-20 -18 -33 -20l-19 -9l-8 -2q-7 -2 -24 -2q-16 0 -23 5q-9 5 -9 11q0 4 -6 4l-3 6l-4 15l3 17v21q1 3 2.5 8.5t3.5 10.5v7q0 4 4.5 12.5t5.5 10.5l-1 3q-36 -10 -49 -10l-17 -1q-4 2 -11 2q-2 0 -4 -0.5t-3 -0.5l-18 1q-5 1 -9 2.5t-7 2.5
l-2 1l-2 -1q-2 -1 -3 -1q0 -1 3 -16q0 -2 -0.5 -6.5t-0.5 -7.5q-1 -2 -1 -3l-7 -10q0 -2 -1 -6t-1 -6q-5 -7 -10.5 -17t-10 -17t-10.5 -11q-21 -19 -45 -19q-19 0 -30 9q-13 10 -14 26q0 5 -2 11q0 1 1 3v2l4 11l1 9l-2 8l-8 -8l-17 -14q-2 -2 -6 -2q-3 0 -3 1l2 4
q0 1 3.5 5t7.5 8.5t6 6.5q3 4 14 15l10 12q6 4 13 16l23 23q6 1 7 2l3 5q4 8 16.5 15.5t23.5 7.5zM75 20q16 1 19 6l10 10l5 2l15 30l2.5 5t3 5.5t3.5 4.5q0 1 -0.5 2.5t-1.5 2.5q0 7 6 34q-14 18 -15 23v8q0 4 -4 4l-7 -4q-8 -6 -14 -14l-8 -11l-6 -4q-2 -5 -13 -17l2 -8
q0 -4 -5.5 -11.5t-5.5 -12.5l-2 -7q-4 -4 -5 -8v-11l-3 -6l6 -8q5 -14 18 -15z" />
    <glyph glyph-name="o_l" unicode="ol" horiz-adv-x="466" 
d="M8 33l1 15q0 4 -5 4l-21 -17q-5 0 -7 5q43 42 50 52q14 18 16 20q3 1 6.5 6t7 11t4.5 8q28 33 64 33q3 0 16.5 -6.5t15.5 -9.5q10 -19 10 -43v-9q1 -3 3 -7t2.5 -6t2.5 -4.5t5 -3.5q10 -5 26 -5q12 0 28 4q44 19 71 53l7 12l21 59q7 11 23 60q6 8 14.5 24t13.5 28l5 12
q15 36 26 46l32 56q11 11 18 25q4 8 4 9q2 2 17.5 25t17.5 24q16 4 18 4q11 0 14 -6q2 -3 2 -18q0 -2 -1 -9v-7l-26 -64q-4 -4 -11 -24q-1 -2 -9.5 -15t-15.5 -24t-9 -15l-19 -38q-2 -4 -10 -18.5t-10 -22.5q-58 -65 -78 -99l-12 -30q0 -8 -3 -14q-12 -48 -12 -70
q0 -41 29 -41q10 0 18 1.5t13.5 2.5t14 5.5t11.5 6.5t14.5 9.5t15.5 10.5t10 8.5t10 9.5t7 4q6 0 6 -6q-3 -6 -22 -21q-2 -1 -17 -13.5t-21.5 -16t-20 -11.5t-26.5 -11t-28 -3q-35 0 -42 31q4 10 4 21q0 3 -3 8.5t-3 8.5q0 9 4 29q0 4 1 7.5t2.5 10.5t3.5 15
q-48 -42 -94 -51q-6 -1 -14 -1q-11 0 -20 1q-3 0 -5 1.5t-4 1.5t-6 -2q-6 -2 -13 -23l-26 -33q-6 -2 -14 -9.5t-14 -9.5q-21 -11 -45 -11q-18 0 -30 17q-2 4 -2 5q0 3 -4 11t-4 11v4l1 5v7zM44 44l-5 -10q0 -2 3 -6t3 -5q1 -2 2 -7t1.5 -6.5t2 -5t3.5 -4.5t5.5 -2t8.5 -1
q14 0 31 14.5t26 28.5q0 7 5 12q2 3 7.5 8.5t5.5 9.5t-4.5 12.5t-4.5 14.5q0 17 7 33l4 4q-1 4 -2 6t-2.5 4t-2 2.5t-4 2.5t-5.5 3q-1 1 -5 1l-10 -1q-11 0 -23.5 -13.5t-17.5 -25.5q-1 -8 -2 -8q0 -1 -4 -5l-4 -4q-2 -2 -3 -8t-2 -7l-2 -4q-12 -21 -12 -33zM427 351l-3 -8
q-11 -17 -36.5 -74t-30.5 -67q0 -4 1 -4l8 8l56 79q2 3 5 9.5t6 9.5l68 128q14 42 14 44q0 4 -4 4q-5 0 -9.5 -4t-11.5 -12l-6 -9q-4 -5 -20 -33.5t-21 -42.5q-10 -8 -16 -28z" />
    <glyph glyph-name="o_m" unicode="om" horiz-adv-x="655" 
d="M309 104q-3 -11 -3 -14q0 -1 -2 -5t-4 -8.5t-3 -6.5l-7 -16l3 -3l37 52l10 8l1 8l40 37q24 22 38 22q18 0 22 -19q-2 -26 -5 -40l-4 -16l-7 -24l4 -3l13 15l3 1q5 6 8 8q1 0 23 16.5t31 16.5q7 0 12.5 -4.5t7.5 -8.5l2 -5l-2 -9l7 -3q1 -9 3 -10v-17l5 -37q1 -10 7 -19
t15 -9t17.5 2.5t13 5t13.5 8t12 7.5q5 5 12.5 11t11.5 10l20 20q3 3 6 3q2 0 2 -5t-6 -11l-21 -22l-24 -20q-19 -16 -27 -19q-1 0 -5 -2.5t-8.5 -4.5t-11.5 -4t-14 -2q-19 0 -30.5 14.5t-11.5 23.5l-3 20l1 8q-5 19 -5 26q0 30 -17 30q-10 0 -24.5 -10.5t-22.5 -21.5
q-17 -24 -18 -26q-7 -14 -27 -46q-10 -15 -16 -15q-10 0 -10 12q0 13 5 18l9 21l4 14q7 18 8 22q0 10 6 22q9 18 9 47q0 10 -7 10t-25 -15.5t-21 -21.5l-14 -17l-3 -6q-15 -22 -23 -29q-4 -4 -17.5 -24.5t-14.5 -21.5l-21 -39h-18q-6 0 -6 13q0 3 8 21.5t11 24.5q1 2 3.5 9
t5 12.5t3.5 7.5q1 3 3 6.5t2 4.5l9 18l8 29l-2 5q-5 -2 -16.5 -7.5t-21.5 -9.5t-15 -4q-1 0 -2 1h-2q-12 -10 -24 -11l-19 -3q-5 -1 -14 -1q-11 0 -16 1l-9 2l-4 -3v-6l-1 -5l-4 -14q-1 -2 -1 -3l-6 -7q0 -1 -0.5 -6t-0.5 -6q-9 -7 -19.5 -20t-17.5 -18q-23 -19 -47 -19
q-31 0 -34 26l1 15l-2 3l-2 3l3 21q-2 1 -3 2l-1 1q-2 0 -6 -4q-2 -1 -5.5 -4t-6.5 -5.5t-4 -2.5q-5 0 -5 3q0 2 2 4l4 5q5 4 8.5 8t4.5 4l29 35q3 1 6.5 7t6.5 9q6 2 6 3l2 5q3 8 16.5 18t21.5 10q7 0 7 -5q0 -3 -1.5 -5.5t-4.5 -5t-4 -3.5q-9 -6 -12 -16l-4 -7
q-1 -8 -2 -8q0 -1 -4 -5l-4 -4q-2 -2 -3 -8t-2 -7l-2 -4q-9 -15 -9 -32l1 -14q0 -11 8 -15l10 -1q14 1 18 5l10 10l5 2l16 23q1 2 5.5 5t6.5 5q-1 2 -1 6t4 13t4 14l-13 11q-13 11 -13 21q0 6 4 11t10 5q9 0 16.5 -14t16.5 -20q16 -6 25 -6q25 0 47 8q9 0 15 6q30 7 63 32
q6 2 9 2q9 0 9 -12q0 -7 -5.5 -19.5t-6.5 -15.5l-2 -3z" />
    <glyph glyph-name="o_n" unicode="on" horiz-adv-x="525" 
d="M212 103l-19 -3q-5 -1 -14 -1q-11 0 -16 1l-9 2l-4 -3v-6l-1 -5l-4 -14q-1 -2 -1 -3l-6 -7q0 -1 -0.5 -6t-0.5 -6q-9 -7 -19.5 -20t-17.5 -18q-23 -19 -47 -19q-31 0 -34 26l1 15l-2 3l-2 3l3 21q-2 1 -3 2l-1 1q-2 0 -6 -4q-2 -1 -5.5 -4t-6.5 -5.5t-4 -2.5q-5 0 -5 3
q0 2 2 4l4 5q5 4 8.5 8t4.5 4l29 35q3 1 6.5 7t6.5 9q6 2 6 3l2 5q3 8 16.5 18t21.5 10q7 0 7 -5q0 -3 -1.5 -5.5t-4.5 -5t-4 -3.5q-9 -6 -12 -16l-4 -7q-1 -8 -2 -8q0 -1 -4 -5l-4 -4q-2 -2 -3 -8t-2 -7l-2 -4q-9 -15 -9 -32l1 -14q0 -11 8 -15l10 -1q14 1 18 5l10 10l5 2
l16 23q1 2 5.5 5t6.5 5q-1 2 -1 6t4 13t4 14l-13 11q-13 11 -13 21q0 6 4 11t10 5q9 0 16.5 -14t16.5 -20q16 -6 25 -6q25 0 47 8q9 0 15 6q30 7 63 32q6 2 9 2q9 0 9 -12q0 -7 -5.5 -19.5t-6.5 -15.5l-4 -5q-3 -5 -4 -7q0 -1 -0.5 -7t-0.5 -7q-6 -12 -5 -12q2 0 7 4.5
t12 11.5t12 11q2 1 5.5 4.5t3.5 4.5t7.5 7.5t10.5 8.5q3 4 14.5 12t16.5 8q17 0 17 -13q0 -5 -2 -13.5t-2 -10.5q0 -4 -1 -10.5t-1 -8.5q0 -4 1 -5q0 -1 -1.5 -9.5t-1.5 -9.5q-1 -4 -1 -10q0 -10 7 -24l1 -11l3 -1q6 -8 10 -11q10 -2 17 -2q6 0 18 6q3 0 17 8.5t17 11.5
q7 4 19 14t20 18l9 9q2 3 5 3q4 0 4 -6q0 -3 -7 -10q-37 -37 -44 -41q-26 -22 -56 -34q-7 -2 -18 -2q-13 0 -24 8q-3 1 -6 6.5t-8 8.5l-3 6l-5 15l3 20q2 4 2 6q0 3 -2.5 9t-2.5 9l3 17q-3 17 -3 18q0 7 -7 7q-10 0 -27 -17q-25 -25 -37 -46l-4 -4l-4 -4q-8 -17 -14 -19
q0 -3 -2 -9t-8.5 -19t-8.5 -19q-1 -3 -9 -3q-13 0 -13 11q1 5 7 16.5t7 16.5l12 29q0 7 3.5 15.5t9 18.5t7.5 14l10 33l-2 5q-5 -2 -16.5 -7.5t-21.5 -9.5t-15 -4q-1 0 -2 1h-2q-12 -10 -24 -11z" />
    <glyph glyph-name="o_o" unicode="oo" horiz-adv-x="443" 
d="M11 -14l-7 23q0 8 2 24q0 2 1 6q2 8 2 9q0 4 -5 4l-21 -17q-5 0 -7 5q42 44 49 54q4 2 8.5 7.5t7.5 7.5q5 4 13.5 13.5t13.5 14.5q23 21 59 21q12 0 17.5 -6t9.5 -19.5t6 -16.5q3 -7 14 -7q17 -5 34 -5l4 2q22 6 25 7q21 9 52 27q24 14 35 14q23 0 29 -21v-3q5 -22 5 -23
q0 -3 -4 -12.5t-4 -14.5q0 -4 1 -5l1 -17q4 -29 31 -29q6 0 11.5 1.5t11.5 5t9.5 6l10.5 7.5t10 7l4 -4l3 -3q-6 -7 -16 -14.5t-13 -10.5q-18 -11 -38 -11q-7 0 -13.5 2.5t-10 5t-10 7.5t-8.5 7l-10 -14q-2 -1 -3 -2t-4 -3q-3 -3 -8 -8.5t-8 -8.5t-7.5 -7t-8.5 -6t-9.5 -3.5
t-11.5 -1.5q-18 0 -32 11q-8 22 -8 45q1 6 1 7q2 4 2 13l19 40v4q-8 0 -21 -5t-19 -6l-10 -1q-9 -1 -12 -1h-28q-3 -8 -24 -29q-2 -3 -4.5 -8t-4.5 -7l-1 -2v-2q0 -3 1 -7l-6 -15q-22 -26 -32 -33q-14 -14 -38 -14t-36 15zM51 68q-12 -20 -12 -33q3 -8 3 -9v-7q0 -24 20 -24
h8q3 5 10.5 11t13.5 10l7 3q0 1 -1 3t-1 3q0 5 9 14t10 13l11 41q-9 28 -9 31t2 15q-2 3 -6 3q-6 0 -18 -12l-26 -33q-2 -3 -9 -6.5t-9 -7.5q-2 -2 -2 -7.5t-1 -7.5zM253 32l1 -3q1 -3 1 -5q2 -8 3.5 -11.5t6 -6t12.5 -2.5q13 0 23 12q24 26 24 68v11q1 8 12 25q2 2 2 5
q0 10 -14 10t-26 -14l-24 -27q-21 -32 -21 -62z" />
    <glyph glyph-name="o_o_m" unicode="oom" horiz-adv-x="869" 
d="M541 148q0 -7 -5.5 -19.5t-6.5 -15.5l-2 -3l-3 -6q-3 -11 -3 -14q0 -1 -2 -5t-4 -8.5t-3 -6.5l-7 -16l3 -3l37 52l10 8l1 8l40 37q24 22 38 22q18 0 22 -19q-2 -26 -5 -40l-4 -16l-7 -24l4 -3l13 15l3 1q5 6 8 8q1 0 23 16.5t31 16.5q7 0 12.5 -4.5t7.5 -8.5l2 -5l-2 -9
l7 -3q1 -9 3 -10v-17l5 -37q1 -10 7 -19t15 -9t17.5 2.5t13 5t13.5 8t12 7.5q5 5 12.5 11t11.5 10l20 20q3 3 6 3q2 0 2 -5t-6 -11l-21 -22l-24 -20q-19 -16 -27 -19q-1 0 -5 -2.5t-8.5 -4.5t-11.5 -4t-14 -2q-19 0 -30.5 14.5t-11.5 23.5l-3 20l1 8q-5 19 -5 26
q0 30 -17 30q-10 0 -24.5 -10.5t-22.5 -21.5q-17 -24 -18 -26q-7 -14 -27 -46q-10 -15 -16 -15q-10 0 -10 12q0 13 5 18l9 21l4 14q7 18 8 22q0 10 6 22q9 18 9 47q0 10 -7 10t-25 -15.5t-21 -21.5l-14 -17l-3 -6q-15 -22 -23 -29q-4 -4 -17.5 -24.5t-14.5 -21.5l-21 -39
h-18q-6 0 -6 13q0 3 8 21.5t11 24.5q1 2 3.5 9t5 12.5t3.5 7.5q1 3 3 6.5t2 4.5l9 18l9 30q0 4 -3 4q-5 -2 -16.5 -7.5t-21.5 -9.5t-15 -4q-1 0 -3 1h-1q-12 -10 -24 -11l-19 -3q-5 -1 -14 -1t-14 1l-9 2l-4 -3v-12l-4 -14q-1 -2 -1 -3l-5 -8q0 -1 -1.5 -5.5t-1.5 -5.5
q-6 -6 -10 -15t-9 -14l-12 -9q-4 -3 -14 -11.5t-14.5 -11t-13 -6t-17.5 -3.5q-18 0 -32 11v1q-1 1 -1 2q-8 21 -8 37q4 10 4 11v14l19 40v4q-8 0 -21 -5t-19 -6l-22 -2h-28q-3 -8 -24 -29q-2 -3 -4.5 -8t-4.5 -7l-1 -2v-2q0 -3 1 -7l-6 -15q-22 -26 -32 -33q-14 -14 -38 -14
t-36 15l-7 23q0 8 2 24q0 2 1 6q2 8 2 9q0 4 -5 4l-21 -17q-5 0 -7 5q42 44 49 54q4 2 8.5 7.5t7.5 7.5q5 4 13.5 13.5t13.5 14.5q23 21 59 21q12 0 17.5 -6t9.5 -19.5t6 -16.5q1 -3 14 -7q20 -5 34 -5l4 2q22 6 25 7q21 9 52 27q24 14 40 14q9 0 13 -3q6 -3 15 -15.5
t18 -17.5q17 -6 23 -6q25 0 47 8q9 0 15 6q30 7 63 32q6 2 9 2q9 0 9 -12zM51 68q-12 -20 -12 -33q3 -8 3 -9v-7q0 -24 20 -24h8q3 5 10.5 11t13.5 10l7 3q0 1 -1 3t-1 3q0 5 9 14t10 13l11 41q-9 28 -9 31t2 15q-2 3 -6 3q-6 0 -18 -12l-26 -33q-2 -3 -9 -6.5t-9 -7.5
q-2 -2 -2 -7.5t-1 -7.5zM305 16q11 11 15 18l6 10q11 15 13 20q7 14 9 39v4q-1 1 -5.5 5t-9 10t-6.5 13q-13 -1 -24 -14l-24 -27q-21 -32 -21 -62l1 -3q1 -3 1 -5q2 -8 3.5 -11.5t6 -6t12.5 -2.5q12 0 23 12z" />
    <glyph glyph-name="o_o_n" unicode="oon" horiz-adv-x="740" 
d="M184 88h-28q-3 -8 -24 -29q-2 -3 -4.5 -8t-4.5 -7l-1 -2v-2q0 -3 1 -7l-6 -15q-22 -26 -32 -33q-14 -14 -38 -14t-36 15l-7 23q0 8 2 24q0 2 1 6q2 8 2 9q0 4 -5 4l-21 -17q-5 0 -7 5q42 44 49 54q4 2 8.5 7.5t7.5 7.5q5 4 13.5 13.5t13.5 14.5q23 21 59 21q12 0 17.5 -6
t9.5 -19.5t6 -16.5q1 -3 14 -7q20 -5 34 -5l4 2q22 6 25 7q21 9 52 27q24 14 40 14q9 0 13 -3q6 -3 15 -15.5t18 -17.5q17 -6 23 -6q25 0 47 8q9 0 15 6q30 7 63 32q6 2 9 2q9 0 9 -12q0 -7 -5.5 -19.5t-6.5 -15.5l-3 -5q-4 -5 -5 -7q0 -1 -0.5 -7t-0.5 -7q-6 -12 -5 -12
q2 0 7 4.5t12 11.5t12 11q2 1 5.5 4.5t3.5 4.5t7.5 7.5t10.5 8.5q3 4 14.5 12t16.5 8q17 0 17 -13q0 -5 -2 -13.5t-2 -10.5q0 -4 -1 -10.5t-1 -8.5q0 -4 1 -5q0 -1 -1.5 -9.5t-1.5 -9.5q-1 -4 -1 -10q0 -10 7 -24l1 -11l3 -1q6 -8 10 -11q10 -2 17 -2q6 0 18 6q3 0 17 8.5
t17 11.5q7 4 19 14t21 18l8 9q2 3 5 3q4 0 4 -6q0 -3 -7 -10q-37 -37 -44 -41q-26 -22 -56 -34q-7 -2 -18 -2q-13 0 -24 8q-3 1 -6 6.5t-8 8.5l-3 6l-5 15l3 20q2 4 2 6q0 3 -2.5 9t-2.5 9l3 17q-3 17 -3 18q0 7 -7 7q-10 0 -27 -17q-25 -25 -37 -46l-4 -4l-4 -4
q-8 -17 -14 -19q0 -3 -2 -9t-8.5 -19t-8.5 -19q-1 -3 -9 -3q-13 0 -13 11q1 5 7 16.5t7 16.5l12 29q0 7 3.5 15.5t9 18.5t7.5 14l10 33l-2 5q-5 -2 -16.5 -7.5t-21.5 -9.5t-15 -4q-1 0 -3 1h-1q-12 -10 -24 -11l-19 -3q-5 -1 -14 -1t-14 1l-9 2l-4 -3v-12l-4 -14
q-1 -2 -1 -3l-5 -8q0 -1 -1.5 -5.5t-1.5 -5.5q-6 -6 -10 -15t-9 -14l-12 -9q-4 -3 -14 -11.5t-14.5 -11t-13 -6t-17.5 -3.5q-18 0 -32 11v1q-1 1 -1 2q-8 21 -8 37q4 10 4 11v14l19 40v4q-8 0 -21 -5t-19 -6zM305 16q11 11 15 18l6 10q11 15 13 20q7 14 9 39v4q-1 1 -5.5 5
t-9 10t-6.5 13q-13 -1 -24 -14l-24 -27q-21 -32 -21 -62l1 -3q1 -3 1 -5q2 -8 3.5 -11.5t6 -6t12.5 -2.5q12 0 23 12zM51 68q-12 -20 -12 -33q3 -8 3 -9v-7q0 -24 20 -24h8q3 5 10.5 11t13.5 10l7 3q0 1 -1 3t-1 3q0 5 9 14t10 13l11 41q-9 28 -9 31t2 15q-2 3 -6 3
q-6 0 -18 -12l-26 -33q-2 -3 -9 -6.5t-9 -7.5q-2 -2 -2 -7.5t-1 -7.5z" />
    <glyph glyph-name="o_p" unicode="op" horiz-adv-x="580" 
d="M45 -532q-20 0 -22 18v5q0 15 11 45q0 1 0.5 2.5t1.5 2.5q-2 4 -2 7t2 7q3 2 6.5 8.5t3.5 7.5t1 4t1 4q11 29 21 41l-1 7l4 4q11 11 15 23q0 8 4.5 17t11.5 19.5t9 14.5q1 2 8 17.5t11 22.5q6 0 6 7q2 2 2 10q1 6 6.5 10.5t6.5 7.5l4 8q2 7 9.5 18.5t9.5 17.5q5 2 6.5 4
t2.5 5.5t2 6.5q32 47 36 57l34 41q2 5 3 7q0 2 0.5 7t0.5 8q8 3 15.5 25.5t9.5 25.5q4 12 9 25.5t11.5 30t9.5 25.5l1 2q0 3 1 6t1 4q8 16 8 21q0 2 -2 2l-2 -1l-4 -4t-3 -2q-1 -2 -10 -4.5t-10 -5.5l-42 -12q-13 -5 -14 -5h-13q-1 0 -6.5 -2.5t-6.5 -2.5q-5 0 -29 -6
q-13 -1 -17 -10l-11 -17l-43 -49l-27 -13l-7 -1q-7 -1 -9 -1h-6q-6 0 -15.5 3.5t-11.5 3.5q-22 22 -24 34q-1 2 -1 7q0 3 0.5 7t0.5 6q0 10 -8 10h-4q-1 1 -1 3q0 1 8 9l33 33q4 4 10 14.5t12 14.5q2 1 8.5 1.5t8.5 3.5q1 0 1 3t-1 4q25 14 48 14h15l19 -10q0 -3 5 -13
q1 -2 5 -7t5 -8q1 0 2 -6.5t2 -7.5q0 -1 2 -3t3 -2h26q8 0 64 15q39 14 46 21l23 23l34 48q4 1 16.5 12t21.5 11q7 0 9 -6q0 -2 -5 -12l-17 -15q-19 -19 -30 -36q-30 -43 -33 -53l-5 -21q-7 -17 -7 -23q0 -3 2 -5q-6 -6 -6 -8q0 -1 1 -3.5t1 -4.5l-9 -32q1 2 7 9t8 11l71 72
q2 0 27 14q14 9 24 12h2q1 -1 2 -1q3 3 6 3q14 0 27 -10q4 -4 6.5 -8t3 -6.5t0.5 -9v-9.5q0 -1 1 -3l1 -3q0 -5 -2.5 -11t-2.5 -9q0 -1 0.5 -3t0.5 -4q-3 -10 -12 -23q0 -1 -4 -4t-4 -4l-4 -7l-19 -17v-6h7q7 0 28 9q12 6 27 14t24 12q0 3 2 3q1 1 10 6l9 5q5 3 12.5 9.5
t13.5 11.5l5 5q4 0 4 -5q0 -3 -4 -7l-36 -33q-1 -1 -4 -1.5t-5 -2.5q-3 -2 -8.5 -7.5t-8.5 -7.5q0 -1 -3 -3l-2 -1l-43 -20q-1 -1 -11.5 -4t-15.5 -3q-2 0 -4 1h-3q-3 0 -6 -2.5t-5 -2.5q-5 -1 -16 -1h-31q-4 1 -9.5 5.5t-5.5 7.5q0 12 19 12q3 0 8 -0.5t9 -0.5q16 0 34 30
l2 3q2 2 2 3q0 5 2 5q9 9 10 11v13q0 4 2.5 14t2.5 17q-8 11 -17 11q-2 0 -14 -2q-29 -14 -48 -31q-3 -2 -6.5 -8t-6.5 -8q-1 -2 -7 -5.5t-7 -7.5l-26 -30q-3 -1 -5.5 -4t-4 -6l-3.5 -7l-3 -6l-16 -16v-7q0 -7 -4 -7q0 -1 -2 -7.5t-2 -8.5t-2 -5.5t-2 -5.5q0 -1 -1 -5t-1 -5
t-0.5 -2t-0.5 -2l-6 -27q-2 1 -4 1q-5 0 -8 -9v-12q0 -27 -16 -56l-14 -22q-4 -8 -4 -13q0 -2 1 -6t1 -7q0 -6 -11 -28q-8 -16 -8 -29l-23 -49v-2l1 -2q0 -4 -7.5 -13.5t-7.5 -14.5l-9 -33l-3 -2l-21 -28q0 -11 -28 -34q-4 -4 -9 -12.5t-5 -9.5q-27 -40 -64 -43zM50 -488v-4
q3 -13 6 -13q22 1 40 43q1 2 5.5 3.5t5.5 3.5q16 28 17 38l18 37q7 2 9 7t2 12t1 10l13 29q4 3 10 23l10 24q0 2 6 8v10l29 83l8 12q1 2 2.5 9t4.5 9q-1 1 -1 3l1 3l8 25q4 7 4 10q-1 1 -3 1q-8 -7 -16 -18t-13 -19.5t-13.5 -23t-11.5 -19.5q-2 -7 -8 -14q-1 -2 -12 -25
t-13 -27q-9 -17 -16 -22l-16 -33q-3 -2 -12.5 -24.5t-19.5 -24.5q0 -7 -5.5 -20t-5.5 -19l-3 -5q-3 -4 -3 -6v-5q0 -2 -3 -5t-3 -4q-7 -13 -13 -37q-9 -29 -9 -35zM51 45q0 -31 22 -31q25 0 59 38q12 26 12 36q0 5 -2.5 15.5t-2.5 16.5q0 3 4.5 7.5t4.5 6.5q0 12 -19 12h-9
q0 -2 -2 -2l-5 -2l-5 -2q-1 0 -3.5 -3t-5.5 -7l-3 -3l-2 -1l-3 -3q-1 -2 -2 -3q-5 -14 -7 -16q-9 -4 -10 -5q-2 0 -2 -2q-14 -26 -19 -48v-4z" />
    <glyph glyph-name="o_r" unicode="or" horiz-adv-x="418" 
d="M26 92q14 18 17 21q3 1 4.5 3t3 5l2.5 5q27 30 57 30h6q10 0 17 -5q3 -3 9 -10t7.5 -10t3.5 -12t2 -22q0 -2 -0.5 -6t-0.5 -6q5 -10 24 -10q11 0 43 15q5 0 5 2q1 0 4 5l24 22q17 17 18 21q6 8 6 14q-4 3 -5 4.5t-1.5 3.5t-1.5 5q0 2 2 6.5t2 7.5q4 8 11 15q11 11 19 11
q5 0 9 -9l2 -10q0 -4 -6.5 -13.5t-6.5 -14.5q0 -2 4 -4q8 -8 24 -11q6 0 16 -10q2 -2 2 -8t-16 -33q-5 -10 -5 -11l-5 -3q-4 -4 -6.5 -7t-2.5 -6q0 -2 1 -5l1 -3q-1 -6 -7 -20.5t-6 -23.5q0 -4 9 -10l3 -1h4l10 1q2 0 11 5t10 6q3 0 7 2q15 8 37 27t30 24q3 3 10 3
q0 -5 -3 -9.5t-9.5 -9.5t-7.5 -6l-10 -12l-2 -1q-2 -1 -3 -2l-2 -1q-2 -1 -18 -17q0 -1 -4 -3l-2 -2l-6 -4q-4 1 -7 1q-1 0 -3 -4l-2 -2q-3 -5 -18 -12t-22 -7q-23 0 -38 19q-5 5 -5 10l3 12q0 1 -1.5 5t-1.5 6q0 5 3 13t4 10v6q0 5 3 8q2 4 11 13q3 5 4.5 13t2.5 11t5.5 10
t4.5 13q0 5 -1 7q-5 5 -15 10q-3 -3 -6 -8t-5 -7l-4 -4q-3 -4 -4 -5q-4 -2 -5 -3q-4 -3 -10.5 -14t-11.5 -14h-5q-2 -1 -4.5 -5.5t-4.5 -5.5q-42 -24 -45 -24q-1 0 -5 -1t-6 -1q-4 -1 -13.5 -1.5t-15.5 -3.5q-4 -1 -12 -22l-27 -28q-5 -2 -13 -8.5t-12 -8.5q-20 -9 -41 -9
q-18 0 -29 16q-2 4 -2 5q0 2 -2.5 9.5t-2.5 10.5v3l1 6v6l1 18q0 4 -5 4l-21 -17q-5 0 -7 5q43 42 50 52zM38 31q0 -1 3 -10q1 -2 2 -7.5t2 -7.5t3 -5.5t5.5 -4.5t8.5 -1q13 0 29.5 12t24.5 24q0 6 5 11q1 2 4 5t4.5 5.5t1.5 6.5q-11 14 -11 30q0 12 6 18q2 2 5 3.5t4 2.5
q-7 20 -16 25l-7 4q-10 0 -22.5 -13.5t-15.5 -24.5q0 -5 -2 -7q0 -2 -12 -14q-5 -5 -5 -6t1 -4t1 -5q0 -4 -7 -11l-5 -19z" />
    <glyph glyph-name="o_u" unicode="ou" horiz-adv-x="518" 
d="M21 42v14l1 6l-3 5l-4 -2l-11 -10q-1 -1 -6 -1q-2 1 -2 7q0 1 2 3t4.5 5t4.5 5q3 4 8.5 8.5t8.5 7.5l10 12q2 2 7 7.5t9 9.5q4 6 5 9l12 10l9 2v4q7 5 11 8q20 10 25 10q10 0 10 -12q0 -4 -8 -12l-12 -9h-5l-3 -3v-5q-6 -8 -17 -20l-13 -19l-4 -2q-2 -2 -2 -5
q0 -1 1 -4.5t1 -8.5q0 -17 -4 -21v-11l7 -6q8 -4 18 -4q15 0 28 11l13 18l7 4v6l5 5v10l7 8v5l6 4v5l-8 8v7l3 4q1 6 1 11q0 10 -8 20q-6 9 -6 16q0 13 5 20q6 8 11 8t12 -5q6 -5 6 -12l1 -7q7 -4 11 -8q6 -6 15 -9l7 -3l4 -4l12 -1q1 0 5.5 -1t11 -2t11.5 -1q8 0 24 4
q10 2 27 12q4 2 9.5 5.5t9.5 6t7 2.5q7 0 7 -5q0 -6 -5 -13l-2 -8l-7 -8q-2 -2 -5 -14l-8 -10q-2 -5 -2 -8l-7 -9v-9q-4 -4 -7 -12q-5 -13 -5 -24q0 -6 1 -9q3 -8 12 -8l8 3h12l14 10l44 41q8 12 9 16q1 2 5 14.5t5 14.5q6 18 15 18q4 0 7.5 -2.5t4.5 -4.5l2 -2v-13l-4 -3
q0 -5 -1 -8l-3 -13q-9 -10 -9 -13v-21l7 -16v-15l5 -2q1 -3 1 -8q6 -11 28 -11l16 3q2 2 7 4t7 5h5q4 0 5 1t2 3t3 4t4 3q4 2 10 8t10.5 10t6.5 4q6 0 6 -5q-6 -9 -23 -24q-13 -8 -18 -15q-2 -2 -10.5 -6t-11.5 -6q-4 -1 -7.5 -3t-6 -3t-6 -2t-8.5 -1q-23 0 -26 4l-6 8l-7 1
l-16 13v7l-6 8v16q-6 5 -10 5q-3 0 -9 -3l-15 -16h-4q-10 -5 -24 -14l-27 -23l-6 -3h-18q-8 4 -11 7q-9 14 -9 19q0 12 5 22q5 7 8 18l3 14q8 9 10 14q2 3 2 8q0 6 9 15q11 11 11 17h-7q-26 -8 -54 -8q-10 0 -19 4l-9 4q-2 0 -3.5 -1.5t-2.5 -1.5l-10 3h-9q-1 -12 -3 -17
q-1 -5 -8 -25t-9 -24l-13 -16q-1 -4 -1 -7q0 -2 -21 -21q-15 -12 -18 -12q-5 0 -7 -5l-6 -7h-8q-13 -5 -25 -5q-8 0 -14.5 3.5t-9.5 6.5l-2 3q-1 8 -1 10l-4 6v8l9 8z" />
    <glyph glyph-name="o_v" unicode="ov" horiz-adv-x="489" 
d="M388 55q-5 -6 -12 -16.5t-14 -18.5q-2 -8 -35 -40q-21 -19 -42 -19q-28 0 -35 30q-1 13 -1 18q0 3 2 9l5 25q2 8 13 36q1 3 4 13t5 15q8 10 13 26h-4q-5 -2 -20 -11t-22 -9q-1 0 -3 1h-1q-12 -10 -24 -11l-19 -3q-5 -1 -14 -1q-11 0 -16 1l-9 2l-4 -3q0 -1 -1 -6v-5
l-4 -14q-1 -2 -1 -3l-6 -7q0 -1 -0.5 -6t-0.5 -6q-9 -7 -19.5 -20t-17.5 -18q-23 -19 -47 -19q-31 0 -34 26l1 15l-2 3l-2 3l3 21q-2 1 -3 2l-1 1q-2 0 -6 -4q-2 -1 -5.5 -4t-6.5 -5.5t-4 -2.5q-5 0 -5 3q0 2 2 4l5 5q4 4 7.5 8t4.5 4l29 35q3 1 7 7l6 9q6 2 6 3l2 5
q3 8 16.5 18t21.5 10q7 0 7 -5q0 -3 -1.5 -5.5t-4.5 -5t-4 -3.5q-9 -6 -12 -16l-4 -7q-1 -8 -2 -8q0 -1 -4 -5l-4 -4q-2 -2 -3 -8t-2 -7l-2 -4q-9 -15 -9 -32l1 -14q0 -11 8 -15l10 -1q14 1 18 5l10 10l5 2l16 23q1 2 6 5t6 5q-1 2 -1 6t4 13t4 14l-13 11q-13 11 -13 21
q0 6 4 11t10 5q10 0 17 -14t16 -20q17 -6 25 -6q25 0 47 8q9 0 15 6q25 6 53 34q6 4 11 4q8 0 8 -12l-3 -12l-13 -28l-6 -12t-7 -15q-8 -16 -8 -25q0 -2 -2 -6.5t-3 -9.5l-2 -4q-4 -8 -4 -10q0 -1 3 -1l-1 -13q5 -28 18 -28t37 20.5t29 30.5q11 12 33 62q3 27 3 33q0 4 5 10
t11 6q4 0 9 -4.5t5 -9.5l-12 -40l-2 -9v-15q0 -17 9 -21q3 -8 17 -8q31 0 55 26q3 0 4.5 -1.5t1.5 -3.5v-2l-1 -4q-8 -8 -15 -13l-7 -1q-2 -4 -5 -5q-20 -10 -34 -10q-31 0 -44 29q-2 0 -5 -3z" />
    <glyph glyph-name="o_v_e" unicode="ove" horiz-adv-x="697" 
d="M314 164q8 0 8 -12l-3 -12l-13 -28l-6 -12t-7 -15q-8 -16 -8 -25q0 -2 -2 -6.5t-3 -9.5l-2 -4q-4 -8 -4 -10q0 -1 3 -1l-1 -13q5 -28 18 -28t37 20.5t29 30.5q13 14 34 62q-1 8 -1 22q0 5 2.5 15t2.5 12q0 13 20 13q3 0 6.5 -6t3.5 -8q0 -8 -6 -22t-6 -22q0 -41 42 -42
q6 0 18 2q2 0 4.5 -1t3.5 -1q5 0 7 4l3 4q6 3 18 11l4 13q2 7 14 30q9 5 20 21q4 4 12 10.5t12 10.5l19 15l16 9q10 5 21 5q10 0 17.5 -8.5t7.5 -20.5q-2 -13 -22 -30q-14 -9 -17 -11q-2 -2 -7.5 -7t-10 -9t-7.5 -4l-23 -10l-25 -13v-16q-1 -3 -3 -6t-2 -5q0 -5 4 -11
q1 -1 1 -5.5t1.5 -9.5t5.5 -10l12 -3l2 -3l3.5 -3.5t6.5 -3t12 -1.5q27 0 42 9q26 11 36 22l43 37q2 2 5 2t3 -5q0 -4 -7 -11l-17 -13l-5 -2l-3 -7l-11 -10q-12 -9 -13 -11q-37 -32 -77 -32q-21 0 -39 8q-1 2 -3 3t-3 2h-1q-1 5 -5.5 6t-5.5 2l-7 9q-9 15 -9 52l-6 -4
q-2 0 -7 -2t-11.5 -5t-9.5 -4q-16 -4 -25 -4q-19 0 -25 6q-2 1 -6.5 6t-10.5 5q-1 1 -2.5 3t-2.5 4.5t-2 3.5l-13 -21q-5 -6 -12 -16.5t-14 -18.5q-2 -8 -35 -40q-21 -19 -42 -19q-28 0 -35 30q-1 13 -1 18q0 3 2 9l5 25q2 8 13 36q1 3 4 13t5 15q9 11 10 26
q-5 -2 -20.5 -11t-22.5 -9q-1 0 -3 1h-1q-12 -10 -24 -11l-19 -3q-5 -1 -14 -1q-11 0 -16 1l-9 2l-4 -3q0 -1 -1 -6v-5l-4 -14q-1 -2 -1 -3l-6 -7q0 -1 -0.5 -6t-0.5 -6q-9 -7 -19.5 -20t-17.5 -18q-23 -19 -47 -19q-31 0 -34 26l1 15l-2 3l-2 3l3 21q-2 1 -3 2l-1 1
q-2 0 -6 -4q-2 -1 -5.5 -4t-6.5 -5.5t-4 -2.5q-5 0 -5 3q0 2 2 4l5 5q4 4 7.5 8t4.5 4l29 35q3 1 7 7l6 9q6 2 6 3l2 5q3 8 16.5 18t21.5 10q7 0 7 -5q0 -3 -1.5 -5.5t-4.5 -5t-4 -3.5q-9 -6 -12 -16l-4 -7q-1 -8 -2 -8q0 -1 -4 -5l-4 -4q-2 -2 -3 -8t-2 -7l-2 -4
q-9 -15 -9 -32l1 -14q0 -11 8 -15l10 -1q14 1 18 5l10 10l5 2l16 23q1 2 6 5t6 5q-1 2 -1 6t4 13t4 14l-13 11q-13 11 -13 21q0 6 4 11t10 5q10 0 17 -14t16 -20q17 -6 25 -6q25 0 47 8q9 0 15 6q25 6 53 34q6 4 11 4zM604 165q-12 -6 -19 -13q-11 -9 -11 -11
q-5 -14 -12 -17l-12 -17l-3 -11l7 4q18 10 26 13q3 2 16 10t15 10q17 17 17 30q0 10 -6 10q-2 0 -18 -8z" />
    <glyph glyph-name="o_w" unicode="ow" horiz-adv-x="615" 
d="M229 106q-10 0 -18 -2q-4 1 -8 1q-1 0 -10 -3q-7 -1 -15 -1q-4 0 -20 1l-4 -3v-6l-1 -5l-4 -14q-1 -2 -1 -3l-6 -7q0 -1 -0.5 -6t-0.5 -6q-9 -7 -19.5 -20t-17.5 -18q-23 -19 -47 -19q-31 0 -34 26l1 15l-2 3l-2 3l3 21q-1 1 -3 2l-1 1q-2 0 -6 -4q-2 -1 -5.5 -4
t-6.5 -5.5t-4 -2.5q-5 0 -5 3q0 2 2 4l4 5q5 4 8.5 8t4.5 4l29 35q3 1 6.5 7t6.5 9q6 2 6 3l2 5q3 8 16.5 18t21.5 10q7 0 7 -5q0 -3 -1.5 -5.5t-4.5 -5t-4 -3.5q-9 -6 -12 -16l-4 -7q-1 -8 -2 -8q0 -1 -4 -5l-4 -4q-2 -2 -3 -8t-2 -7l-2 -4q-9 -15 -9 -32l1 -14
q0 -11 8 -15l10 -1q14 1 18 5l10 10l5 2l16 23q2 2 6 5t6 5q-1 2 -1 6t3.5 13t3.5 14l-4 3q-5 3 -7 6q-1 0 -2.5 4.5t-6.5 4.5q-1 2 -2 6q0 5 -2 5q-1 1 -1 4q0 5 4 9.5t9 4.5q9 0 16 -10q-1 -2 -1 -4q0 -3 4 -5l4 -2q4 -7 11 -12q11 -4 29 -4q13 0 30 3q22 0 25 5q1 1 17 6
q16 7 22 13q2 3 6 8t6.5 9.5t6.5 7.5t7 3q10 0 10 -15q0 -6 -3 -11l-17 -31q-2 -4 -7.5 -12.5t-8.5 -16.5q-5 -10 -5 -17q-2 -4 -7.5 -13.5t-7.5 -21.5q-3 -12 -3 -28q0 -20 13 -20q15 0 36 14l3 1l7 3.5t3 3.5q5 5 5 8q9 7 18.5 17.5t14.5 17.5l5 7q2 4 10 12l31 56
q8 13 20 13q7 0 7 -6v-5q0 -5 -5 -18l-5 -13v-10q-5 -28 -5 -31q0 -50 26 -50l17 5q10 0 14 9q8 3 21 24q3 0 7.5 8t8.5 16l3 8q3 4 4 10.5t1 14.5v10q2 12 11.5 24t20.5 12q8 0 8 -7q0 -9 -9.5 -26t-9.5 -27q0 -8 5 -12q4 -3 5.5 -8.5t3.5 -5.5q8 -7 27 -7t38 19q6 2 7 2
q3 0 5 -5q-31 -33 -54 -33q-17 0 -29 6q-1 5 -13 11q-2 3 -5.5 7t-5.5 7q-1 -3 -5.5 -9.5t-6.5 -12.5q-28 -35 -29 -36t-3.5 -5t-4.5 -5q-1 -1 -2.5 -3.5t-3.5 -4.5l-2 -2q-20 -12 -30 -12q-5 0 -13 4q-4 2 -5 5t-4 5q0 2 -5 2q-1 1 -5 7l-5 6q0 1 -1.5 13.5t-2.5 14.5
q0 2 -2.5 5.5t-2.5 5.5q0 4 1.5 12.5t1.5 12.5l-4 -1q-6 -6 -18 -24l-53 -57q0 -1 -3 -3l-2 -1l-11 -9q0 -2 -5 -2q-10 -4 -10 -5q0 -2 -3 -4q-2 0 -8.5 -3t-8.5 -3q-15 0 -24.5 7.5t-9.5 15.5l-3 22l10 47q0 1 4 16t8 21q2 0 4.5 4t3.5 7.5t0 3.5l2 4l4 8l3 3l-1 3
q-30 -10 -43 -12z" />
    <glyph glyph-name="o_w_l" unicode="owl" horiz-adv-x="856" 
d="M367 43l-53 -57q0 -1 -3 -3l-2 -1l-11 -9q0 -2 -5 -2q-10 -4 -10 -5q0 -2 -3 -4q-2 0 -8.5 -3t-8.5 -3q-15 0 -24.5 7.5t-9.5 15.5q1 2 1 6l-4 16l10 47q8 22 13 30q2 4 4 9.5t3 8.5v4l12 20l-2 5q-13 -11 -42 -20q-13 -4 -22 -5q-4 1 -10 1q-1 0 -10 -3q-5 -1 -14 -1
q-4 0 -14 2l-4 -3v-4l-1 -4l-4 -14q-1 -2 -1 -3l-4 -7q0 -1 -3.5 -6.5t-3.5 -6.5q-2 -3 -10 -12.5t-11.5 -13.5t-11 -11t-13.5 -10t-14.5 -6t-17.5 -3q-29 0 -32 26l1 15l-2 3l-2 3l3 21q-1 1 -3 2l-1 1q-2 0 -6 -4q-2 -1 -5.5 -4t-6.5 -5.5t-4 -2.5q-5 0 -5 3q0 2 2 4l4 5
q5 4 8.5 8t4.5 4l29 35q3 1 6.5 7t6.5 9q6 2 6 3l2 5q3 8 16.5 18t21.5 10q7 0 7 -5q0 -3 -1.5 -5.5t-4.5 -5t-4 -3.5q-9 -6 -12 -16l-4 -7q-1 -8 -2 -8q0 -1 -4 -5l-4 -4q-2 -2 -3 -8t-2 -7l-2 -4q-9 -15 -9 -32l1 -14q0 -11 8 -15l8 -1q14 1 18 5l10 10l5 2l16 23l5 5l5 5
q-1 1 -1 6q6 21 6 26q0 3 -1 5l-4 2q-3 3 -5 6q-1 0 -2.5 3t-6.5 3q-1 2 -2 6q0 5 -2 5q-1 1 -1 4q0 5 4 9.5t9 4.5q9 0 16 -10q-1 -2 -1 -4q0 -3 8 -11q8 -13 32 -13q19 0 30 2q6 0 32 9q27 14 40 25q3 3 7 8.5t7.5 8.5t7.5 3q10 0 10 -15q0 -6 -3 -11l-17 -31
q-2 -4 -7.5 -12.5t-8.5 -16.5q-5 -10 -5 -17q-2 -4 -7.5 -13.5t-7.5 -21.5q-3 -12 -3 -28q0 -20 13 -20q15 0 36 14l3 1l7 3.5t3 3.5q5 5 5 8q9 7 18 16.5t13 14.5l4 6q2 4 10 12q20 28 27 40q2 5 4.5 10.5t2.5 7.5q10 16 20 16q7 0 7 -6v-5q0 -5 -5 -18l-5 -13v-10
q-5 -28 -5 -31q0 -50 26 -50l17 5q10 0 14 9q10 3 26 30q3 0 8 9.5t9 19.5l3 9q-4 7 -4 19q0 17 8 32t21 15q9 0 9 -7q0 -10 -5.5 -24t-6.5 -20q0 -15 21 -22q4 -1 12 -1q16 0 34 10q6 0 16.5 7t22 17t12.5 11q5 3 15 15l11 12l20 24l12 25l3 10q16 32 17 37l20 37
q0 2 3 6.5t6 8.5t3 5l11 18q16 41 21 53q4 9 15 26.5t15 33.5q33 49 41 75q7 13 20 25t24 12q10 0 17 -8t7 -19q0 -9 -3 -28t-7 -37t-4 -19q-2 -3 -10.5 -18.5t-10.5 -19.5q-3 -20 -23 -52l-27 -33v-5q-11 -13 -13 -17q-1 -3 -7.5 -12t-9.5 -10l-19 -25q-18 -28 -73 -86
l-8 -9l-4 -12q-12 -26 -13 -48q-6 -14 -6 -33t2 -23q4 -10 6.5 -14t10.5 -8.5t20 -4.5q18 0 27.5 3t26.5 15t28 18q5 2 14 11t12 9q6 0 6 -6q-3 -5 -12 -12.5t-10 -8.5l-31 -22q-3 -1 -17.5 -9.5t-21.5 -10.5q-19 -7 -35 -7q-9 0 -25 4q-4 1 -8.5 4.5t-7.5 6.5l-3 3
q-4 5 -7 11q-8 13 -8 34q0 25 6 47q5 14 6 17q0 7 -2 7t-11.5 -7.5t-24 -17.5t-24.5 -15q-26 -15 -51 -16q-30 0 -40 11q-1 -3 -7 -11.5t-8 -14.5q-4 -4 -14.5 -19t-16.5 -21q-1 -1 -3.5 -5t-4.5 -5q-1 -1 -2.5 -3.5t-3.5 -4.5l-2 -2q-20 -12 -30 -12q-5 0 -13 4q-4 2 -5 5
t-4 5q0 2 -5 2q-1 1 -5 7l-5 6q0 1 -1.5 13.5t-2.5 14.5q0 2 -1.5 5.5t-1.5 5.5q0 4 0.5 12.5t0.5 12.5l-4 -1q-6 -6 -18 -24zM905 510q-15 0 -26 -16l-22 -45q-4 -4 -25 -46q-12 -19 -25 -59l-11 -37l-7 -6q-14 -35 -16 -41q-11 -27 -17 -33l-3.5 -7t-5.5 -9.5t-3 -5.5
q-5 -5 -5 -10q0 -2 2 -2q3 0 10 7.5t15 17.5t10 12q1 2 6.5 8t5.5 8q0 1 7.5 10.5t10.5 12.5q3 4 9 12.5t10 14.5t6 7q1 2 4 6.5t5 8.5l2 3q0 6 10 16q2 2 13 20.5t14 22.5q40 72 40 105q0 25 -14 25z" />
    <glyph glyph-name="o_w_n" unicode="own" horiz-adv-x="915" 
d="M428 136q7 0 7 -6v-4q0 -4 -2 -10t-4.5 -13t-3.5 -9l-2 -10q-3 -17 -3 -31q0 -51 27 -51t31 15q6 4 15.5 17.5t16.5 24.5l6 11q8 15 8 17t-2.5 7.5t-2.5 10.5q0 15 10 32t24 17h4q2 -3 2 -9q0 -14 -18 -47l8 -8q2 -3 16 -7q2 -2 8 -2q3 0 7 0.5t5 0.5q27 0 61 27
q8 2 13 10q26 19 41 39q3 2 9 2q9 0 9 -12q0 -7 -5.5 -19.5t-6.5 -15.5l-4 -5q-3 -5 -4 -7q0 -1 -0.5 -7t-0.5 -7q-6 -12 -5 -12q2 0 7 4.5t12 11.5t12 11q2 1 5.5 4.5t3.5 4.5t7.5 7.5t10.5 8.5q3 4 14.5 12t16.5 8q17 0 17 -13q0 -5 -2 -13.5t-2 -10.5q0 -4 -1 -10.5
t-1 -8.5q0 -4 1 -5q0 -1 -1.5 -9.5t-1.5 -9.5q-1 -4 -1 -10q0 -10 7 -24l1 -11l3 -1q6 -8 10 -11q10 -2 17 -2q6 0 18 6q3 0 17 8.5t17 11.5q7 4 19 14t20 18l9 9q2 3 5 3q4 0 4 -6q0 -3 -7 -10q-37 -37 -44 -41q-26 -22 -56 -34q-7 -2 -18 -2q-13 0 -24 8q-3 1 -6 6.5
t-8 8.5l-3 6l-5 15l3 20q2 4 2 6q0 3 -2.5 9t-2.5 9l3 17q-3 17 -3 18q0 7 -7 7q-10 0 -27 -17q-25 -25 -37 -46l-4 -4l-4 -4q-8 -17 -14 -19q0 -3 -2 -9t-8.5 -19t-8.5 -19q-1 -3 -9 -3q-13 0 -13 11q1 5 7 16.5t7 16.5l12 29q0 7 3.5 15.5t9 18.5t7.5 14l9 27l-1 3
q-5 -3 -19 -15.5t-23 -17.5l-3 -3q-13 -4 -17 -8l-18 -9l-5 -1q-5 0 -7 -2q-15 -3 -21 -3q-1 0 -8 0.5t-8 0.5q-2 2 -10.5 5t-12.5 6q-1 -1 -8 -15q-3 -3 -5.5 -8l-6.5 -13l-7 -14q-2 -3 -10 -12.5t-11 -16.5q-20 -24 -44 -24q-8 0 -14 3q-4 2 -5 5t-4 5q0 2 -5 2q-1 1 -5 7
l-5 6q0 1 -1.5 13.5t-2.5 14.5q0 2 -2.5 5.5t-2.5 5.5q0 4 1.5 12.5t1.5 12.5l-4 -1q-6 -6 -18 -24l-53 -57q0 -1 -3 -3l-2 -1l-11 -9q0 -2 -5 -2q-10 -4 -10 -5q0 -2 -3 -4q-2 0 -8.5 -3t-8.5 -3q-15 0 -24.5 7.5t-9.5 15.5l-3 22l10 47q0 1 4 16t8 21q2 0 4.5 4t3.5 7.5
t0 3.5l2 4l4 8l3 3l-1 3q-30 -10 -43 -12q-5 0 -17 -3q-4 1 -8 1q-1 0 -10 -3q-7 -1 -17 -1q-1 0 -2 0.5t-5.5 1t-11.5 0.5l-4 -3v-6l-1 -5l-4 -14q-1 -2 -1 -3l-6 -7q0 -1 -0.5 -6t-0.5 -6q-9 -7 -19.5 -20t-17.5 -18q-23 -19 -47 -19q-31 0 -34 26l1 15l-2 3l-2 3l3 21
q-1 1 -3 2l-1 1q-2 0 -6 -4q-2 -1 -5.5 -4t-6.5 -5.5t-4 -2.5q-5 0 -5 3q0 2 2 4l4 5q5 4 8.5 8t4.5 4l29 35q3 1 6.5 7t6.5 9q6 2 6 3l2 5q3 8 16.5 18t21.5 10q7 0 7 -5q0 -3 -1.5 -5.5t-4.5 -5t-4 -3.5q-9 -6 -12 -16l-4 -7q-1 -8 -2 -8q0 -1 -4 -5l-4 -4q-2 -2 -3 -8
t-2 -7l-2 -4q-9 -15 -9 -32l1 -14q0 -11 8 -15l10 -1q14 1 18 5l10 10l5 2l16 23q2 2 6 5t6 5q-1 2 -1 6t3.5 13t3.5 14l-4 3q-5 3 -7 6q-1 0 -2.5 4.5t-6.5 4.5q-1 2 -2 6q0 5 -2 5q-1 1 -1 4q0 5 4 9.5t9 4.5q9 0 16 -10q-1 -2 -1 -4q0 -3 4 -5l4 -2q4 -7 11 -12
q14 -5 30 -5q15 0 26 2q25 5 28 7q26 6 39 19q2 3 6 8t6.5 9.5t6.5 7.5t7 3q10 0 10 -15q0 -6 -3 -11l-17 -31q-2 -4 -7.5 -12.5t-8.5 -16.5q-5 -10 -5 -17q-2 -4 -7.5 -13.5t-7.5 -21.5q-3 -12 -3 -28q0 -20 13 -20q15 0 36 14l3 1l7 3.5t3 3.5q5 5 5 8q9 7 18.5 17.5
t14.5 17.5l5 7q2 4 10 12l31 56q8 13 20 13z" />
    <glyph glyph-name="s_p" unicode="sp" horiz-adv-x="538" 
d="M40 -16q0 11 6 11h5q4 -2 7 -7.5t8 -8.5t16 -3q1 0 2.5 0.5t2.5 0.5q6 9 8 26q0 1 -0.5 12t-0.5 15q0 3 3 8.5t3 7.5t-0.5 4t-1.5 4.5t-2 5.5q0 2 -2 12t-2 15q0 4 0.5 9.5t0.5 8.5q0 2 0.5 7t0.5 6q0 3 0.5 8t0.5 7q0 6 -2 6t-4 -2q-1 -1 -8 -9t-8 -9q-21 -25 -25 -27
q-40 -39 -48 -44q-2 -2 -5 -2q-6 0 -6 5q0 1 3 4l27 26q15 15 15 16q24 24 64 80l13 29q3 4 9.5 13t11 13t9.5 4q9 0 9 -8q-2 -7 -2 -8q-5 -14 -15.5 -29t-18.5 -35q0 -7 1.5 -16t1.5 -17q0 -3 -1.5 -8.5t-1.5 -8.5q0 -6 5 -16.5t5 -16.5l-1 -13l5 -14q0 -10 -4 -36
q0 -1 -6 -23q6 3 14.5 8.5t14.5 8.5q10 2 13 10q3 2 15 12q12 2 12 11q18 15 22 19q3 2 7.5 7t6.5 6q7 7 9 10l46 53l23 32l34 48q4 1 16.5 12t21.5 11q7 0 9 -6q0 -2 -5 -12l-17 -15q-19 -19 -30 -36q-25 -37 -31 -51l-7 -21q-1 -2 -3 -7.5t-4 -10.5l-2 -4q0 -3 2 -5
q-7 -7 -7 -8t1 -3.5t1 -4.5l-9 -30q7 5 14 18l76 66l5 3q5 4 11.5 8t9.5 6q14 9 24 12q1 0 2 -0.5t2 -0.5q3 3 6 3q14 0 27 -10q4 -4 6.5 -8t3 -6.5t0.5 -9v-9.5q0 -1 1 -3l1 -3q0 -5 -2.5 -11t-2.5 -9q0 -1 0.5 -3t0.5 -4q-3 -10 -12 -23q0 -1 -4 -4t-4 -4l-4 -7l-19 -17
v-6h7q7 0 28 9q12 6 27 14t24 12q0 3 2 3q1 1 10 6l9 5q5 3 12.5 9.5t13.5 11.5l5 5q4 0 4 -5q0 -3 -4 -7l-36 -33q-1 -1 -4 -1.5t-5 -2.5q-3 -2 -8.5 -7.5t-8.5 -7.5q0 -1 -3 -3l-2 -1l-43 -20q-1 -1 -11.5 -4t-15.5 -3q-2 0 -4 1h-3q-3 0 -6 -2.5t-5 -2.5q-5 -1 -16 -1
h-31q-4 1 -9.5 5.5t-5.5 7.5q0 12 19 12q3 0 8 -0.5t9 -0.5q8 0 23 14t15 22q0 5 2 5q9 9 10 11v13q0 4 2.5 14t2.5 17q-8 11 -17 11q-2 0 -14 -2q-18 -9 -50 -33q-3 -2 -7 -7.5t-7 -7.5q-1 -1 -7 -4.5t-8 -7.5l-25 -27q-5 -1 -9.5 -9.5t-5.5 -9.5q-13 -12 -14 -19
q-32 -84 -36 -98q-10 -25 -13 -42q-1 -7 -6.5 -17t-6.5 -14q-6 -16 -6 -28l-17 -34v-2q1 -1 1 -2q0 -4 -6 -13t-6 -14l-9 -35q-21 -35 -21 -38q0 -14 -21 -35q-1 -1 -5 -8t-7 -11.5t-3 -2.5q-2 -8 -9.5 -19t-9.5 -12q-16 -16 -34 -16q-13 0 -23.5 6.5t-11.5 18.5v5
q0 14 5.5 36t12 40t6.5 20q1 4 10 21.5t10 21.5q0 7 8 28.5t14 31.5l26 43v5q14 13 15 18q0 3 5.5 14t8.5 13l18 29q20 24 24 31q6 9 24 31q17 17 22 26l10 15l5 11q19 58 36 94l6 10l-1 3q-24 -24 -26 -28q-6 -2 -8 -5l-4 -8l-6 -6l-20 -21l-24 -22q-40 -35 -51 -43
q-4 0 -7 -2t-5 -4.5t-4 -3.5q-10 -6 -23 -10q-13 -9 -25 -9q-19 0 -28 16q-3 5 -3 8q-2 4 -2 13zM57 -422q17 3 26 22l22 45q7 6 7 8q0 8 6 14q1 3 5.5 18t6.5 19q4 9 26 70l10 41l8 8q12 42 13 48q1 5 7.5 23.5t9.5 21.5q13 22 13 24q0 5 -4 5q-3 -1 -9.5 -9.5t-13.5 -19
t-8 -11.5q-1 -2 -7 -10.5t-7 -10.5q0 -1 -2.5 -6t-7 -11.5t-7.5 -8.5q-3 -5 -9 -16t-10 -17.5t-6 -8.5q-7 -9 -7 -20q-2 -5 -13 -20q0 -1 -6.5 -12l-13 -22t-9.5 -15q-8 -16 -22 -56.5t-14 -64.5q2 -28 16 -28z" />
    <glyph glyph-name="t_t" unicode="tt" horiz-adv-x="444" 
d="M43 21q0 3 1 10t1 10q0 2 -1 6.5t-1 6.5l2 2l5 2.5t4 2.5q0 3 -2 9l-2 5q1 4 5 11t4 13v7q-9 -9 -11 -10l-3 -2l-45 -45q-2 -2 -5 -2q-7 0 -7 6q48 51 67 75q6 7 35 54q12 20 15 36l10 15q0 1 8 13.5t12 19.5q-1 0 -2 -0.5t-2 -0.5h-34q-6 2 -13 2h-14q-4 1 -17 2.5
t-19 4.5l-8 1l-8 1q-2 0 -16 2t-16 2h-14q-27 0 -42 -4q-2 0 -18 -8q-1 0 -3.5 -2.5t-3.5 -2.5q-12 0 -12 8q0 2 4 10q8 6 20 10l17 -1q3 0 20.5 1t19.5 1q25 0 41 -4q1 0 13 -1.5t16 -2.5h21q1 0 9 -2l8 -3h28q3 0 10 1l8 2l4 -1q4 -1 5 -1q3 0 5 2l3 8l1 2q1 2 1 3
q15 13 24 34l3 8q4 8 4 10v5q21 34 26 46q5 8 13 8q7 -7 7 -9q0 -23 -29 -69q-2 -2 -3.5 -4t-1.5 -3.5t-1 -4.5t-2 -5q-3 -7 -19 -29q4 0 22 -3t32 -3h14l10 -1q2 0 22.5 1t24.5 2q3 0 9 0.5t8 0.5h32q1 1 2 3t1.5 3.5t1.5 3t2 1.5q6 3 6 9q0 7 14 25q6 11 11 23q2 5 10 10
t15 6q7 0 7 -5v-5l-1 -3q-1 -4 -2 -6t-13 -14q-10 -10 -25 -38q0 -5 -6 -11l-1 -2q-1 -2 -2 -3h7q9 0 13 1h21q3 -1 18 -1l18 1l22 -3l4 -4q0 -2 -2 -3l-5 -1h-6t-4 0.5t-5 0.5q-10 0 -27.5 -1.5t-19.5 -1.5l-17 1h-24l-8 -15l-9 -20l-6 -14q-5 -10 -7 -12q-6 -8 -6 -15
l-7 -18q-1 -2 -3 -9.5t-3 -9.5q-6 -9 -6 -22l-8 -17v-26q0 -2 -5 -9l-5 -8l5 -10l-4 -17q4 -2 7 -10l8 -16l6 -5q2 -5 7 -8q4 -3 11 -3q23 0 47 13l20 10q11 4 17 10q6 4 18 14t20 18l9 9q3 3 6 3q4 0 4 -6q0 -3 -7 -10l-22 -21l-24 -20q-3 -1 -4 -3q-14 -14 -25 -17
l-21 -11q-25 -17 -53 -17q-24 0 -35 13q-6 4 -13 26q-1 2 -1.5 5.5t-1 6.5t-1.5 3l-5 19l4 5l1 9q-2 15 -2 18q-5 0 -8 -3l-26 -24q-27 -30 -48 -43l-6 -4q-4 -2 -10.5 -7.5t-11.5 -7.5q-1 -1 -5 -1t-4 -1l-8 -4t-8 -4.5t-7 -4.5q-4 1 -9 1q-2 0 -6 -1.5t-6 -1.5h-3l-3 1
q-41 6 -41 48zM163 266h-5q-15 -24 -17 -39q-6 -6 -7 -9q0 -1 -2 -9l-1 -8q-10 -14 -13 -21q0 -1 -1.5 -2.5t-2.5 -3.5l-2 -4l-1 -2q-9 -28 -10 -29q-1 -3 -4.5 -4.5t-3.5 -3.5q0 -1 0.5 -4t0.5 -4q0 -6 -1.5 -10.5t-4 -9.5t-3.5 -10q-1 -3 -2 -13.5t-1 -12.5q-5 -12 -5 -32
q0 -18 5.5 -26t22.5 -8q31 0 80 35l33 31l6 7l20 21q22 30 25 43l14 29q8 5 8 16q1 5 1 8q0 1 1.5 3.5t3.5 5t3 3.5l3 10l12 20q4 6 6 9.5l4 7t4 7.5l5 8q-20 -2 -34 -2q-48 0 -58 -2h-46q-1 0 -16 2.5t-17 2.5z" />
    <glyph glyph-name="v_e" unicode="ve" horiz-adv-x="462" 
d="M16 18l5 25q2 9 13 36q0 3 -2 3l-2 -2q-1 -1 -3 -3.5t-3 -3.5q-21 -21 -27 -26q-3 0 -5 1l-2 4l34 39q2 2 5 5.5t6.5 8.5t4.5 6q7 8 17 31q9 22 22 22q8 0 8 -14q0 -7 -3 -10l-13 -28l-6 -12t-7 -15q-8 -16 -8 -25q0 -2 -2 -6.5t-4 -9.5l-1 -4q-4 -8 -4 -10q0 -1 3 -1
l-1 -13q5 -28 18 -28t37 20.5t29 30.5q13 14 34 62q-1 8 -1 22q0 5 2.5 15t2.5 12q0 13 20 13q3 0 6.5 -6t3.5 -8q0 -8 -6 -22t-6 -22q0 -41 42 -42q6 0 18 2q2 0 4.5 -1t3.5 -1q5 0 7 4l3 4q6 3 18 11l4 13q2 7 14 30q9 5 20 21q4 4 12 10.5t12 10.5l19 15l16 9q10 5 21 5
q10 0 17.5 -8.5t7.5 -20.5q-2 -13 -22 -30q-14 -9 -17 -11q-2 -2 -7.5 -7t-10 -9t-7.5 -4l-23 -10l-25 -13v-16q-1 -3 -3 -6t-2 -5q0 -5 4 -11q1 -1 1 -5.5t1.5 -9.5t5.5 -10l12 -3l2 -3l3.5 -3.5t6.5 -3t12 -1.5q27 0 42 9q26 11 36 22l43 37q2 2 5 2t3 -5q0 -4 -7 -11
l-17 -13l-5 -2l-3 -7l-11 -10q-12 -9 -13 -11q-37 -32 -77 -32q-21 0 -39 8q-1 2 -3 3t-3 2h-1q-1 5 -5.5 6t-5.5 2l-7 9q-9 15 -9 52l-6 -4q-2 0 -7 -2t-11.5 -5t-9.5 -4q-16 -4 -25 -4q-19 0 -25 6q-2 1 -6.5 6t-10.5 5q-1 1 -2.5 3t-2.5 4.5t-2 3.5l-13 -21
q-5 -6 -12 -16.5t-14 -18.5q-3 -8 -35 -40q-21 -19 -42 -19q-28 0 -35 30q-1 13 -1 18q0 3 2 9zM369 165q-12 -6 -19 -13q-11 -9 -11 -11q-5 -14 -12 -17l-12 -17l-3 -11l7 4q18 10 26 13q3 2 16 10t15 10q17 17 17 30q0 10 -6 10q-2 0 -18 -8z" />
    <glyph glyph-name="v_i" unicode="vi" horiz-adv-x="404" 
d="M60 142q12 23 24 23q7 0 7 -17q-2 -7 -10 -25t-12 -31.5t-4 -26.5q-4 -6 -4 -10q0 -6 5 -8v-11q0 -13 6 -19t24 -6q21 0 35 19q43 58 43 94q0 2 -2.5 13t-2.5 17q4 7 13 12q6 6 7 6t5 -2.5t4 -4.5v-29q0 -3 9.5 -7t12.5 -4l3 -1q3 0 7 -0.5t7 -0.5q31 0 62 21
q1 1 6.5 5.5t6.5 4.5t3.5 0.5t7.5 0.5q9 0 9 -5q-14 -17 -24 -38q-6 -6 -6 -18q-6 -18 -7 -38l-1 -3q-1 -3 -1 -4t3 -6q0 -9 4 -17q6 -10 24 -10q19 0 44 18q7 4 19 14t21 18l8 8q2 3 5 3q5 0 5 -6q0 -5 -15 -17l-34 -28q-3 -4 -4 -5q-11 -11 -16 -11q-8 0 -9 -6
q-2 -9 -43 -9q-19 0 -28.5 12.5t-9.5 27.5v15q0 2 2 10q4 14 4 20q0 5 9 23q4 15 4 21q-1 0 -2.5 -0.5t-2.5 -0.5q-44 -11 -60 -11q-4 0 -14.5 2t-14.5 2q-32 -77 -79 -118q-11 -11 -34 -11q-3 0 -7.5 1.5t-8 2.5t-3.5 2q0 3 -3 5.5t-7 4.5l-4 2q-4 6 -8 13q2 5 2 13v13
q0 25 1 37l-4 2l-30 -27q-6 -7 -10 -7q-8 0 -8 6l7 6l15 14q35 39 38 45zM349 245v5l13 13h4q14 0 14 -17q0 -14 -15 -14q-16 0 -16 13z" />
    <glyph glyph-name="w_h" unicode="wh" horiz-adv-x="685" 
d="M607 382l-3 -8q-11 -16 -75 -141q0 -4 1 -4l9 9l57 78q3 3 6.5 10t6.5 10l72 127q17 41 17 43q0 4 -4 4t-9 -4t-10 -11t-7 -9q-13 -13 -42 -66q-1 -1 -5 -7.5t-7.5 -14.5t-6.5 -16zM217 -25q-21 0 -31 17q-1 0 -1 3l-1 4q-1 1 -3.5 2.5t-3.5 4.5q1 10 1 18q0 10 -2 12
t-2.5 9.5t-1.5 8.5l1 14l-4 -3l-23 -24q-2 0 -7 -7q-1 -1 -3.5 -5.5t-6.5 -6.5l-35 -36q-5 0 -23.5 -14.5t-29.5 -14.5t-20 7t-9 15l-3 22l10 47q8 22 16 31q0 3 -2 3l-1 -2q-2 -1 -4 -3.5t-3 -3.5q-21 -21 -27 -26q-3 0 -5 1l-2 4l34 39q2 2 6 9.5t6 9.5q5 3 11.5 16.5
t10.5 18.5q1 2 5 9.5t6 10t6.5 5.5t10.5 3q11 0 11 -16q0 -7 -3 -12l-19 -33q-2 -4 -7.5 -12.5t-8.5 -16.5q-5 -10 -5 -17q-2 -4 -7.5 -13.5t-7.5 -21.5q-3 -9 -3 -26l1 -5v-5q4 -10 16 -10q18 0 37 17l6 3q15 14 55 61l8 12q7 11 23 33q2 3 4.5 8t4 7t5.5 3.5t11 1.5
q4 0 4 -14q-4 -13 -9 -20v-5q0 -3 -3 -13.5t-4 -27.5q0 -1 0.5 -4t0.5 -5q0 -3 -1 -5q0 -8 5 -12q5 -21 23 -21q23 0 39 19q20 18 32 54q1 2 2.5 6t2.5 7t1 5l-3 7q-3 7 -4 13q0 17 10.5 36.5t25.5 19.5q10 0 10 -7q0 -11 -8 -28t-9 -24v-4q0 -5 5 -10q1 -2 8 -2.5t10 -3.5
q2 0 6 -0.5t6 -0.5q47 0 110 68l19 22l19 55q8 11 18 40q1 2 7.5 13t7.5 18l39 69q7 9 15 24t19 27q1 3 15 23.5t15 23.5q1 2 14.5 23.5t17.5 27.5q19 22 33 23q9 0 13 -7q2 -4 2 -10q-2 -6 -2 -8q-3 -12 -3 -16l-29 -64q-1 -2 -5 -10.5t-7 -12.5q-31 -46 -33 -52l-24 -41
q-1 -2 -9 -12t-11 -19q-60 -74 -81 -107l-13 -31q0 -4 -8 -20q-9 -21 -12 -31l-3 -5q-4 -4 -4 -6l-1 -13q-1 -1 -1.5 -2.5t-1.5 -4t-2 -4.5v-1q2 0 6.5 4.5t11.5 11t11 10.5q2 1 5.5 4t3.5 4t7 7t10 8q2 3 13 11t16 8t10.5 -3.5t5.5 -8.5t-2 -13t-2 -10q0 -4 -1 -10t-1 -8
q0 -3 1 -4q0 -1 -1.5 -9t-1.5 -9q-1 -4 -1 -10q0 -10 7 -22l1 -11l3 -1q5 -7 9 -10q1 0 2 -0.5t4 -1t9 -0.5q8 0 20 6q3 0 14.5 8t15.5 12q7 4 19 14t21 18l8 9q2 3 5 3q4 0 4 -6q0 -3 -7 -10q-37 -37 -44 -41q-25 -21 -52 -32q-10 -3 -18 -3q-12 0 -23 8q-2 1 -5 6t-8 8
l-3 6l-4 14l2 19q2 4 2 5q0 3 -2 9t-2 8l2 16q-2 16 -2 17q0 7 -7 7q-12 0 -25 -16q-23 -21 -35 -43l-4 -4l-4 -4q0 -1 -3.5 -7t-8.5 -14.5t-7 -11.5l-9 -21q-3 -6 -7 -6q-12 0 -12 17q0 7 5.5 17t6.5 13q7 30 19 49q27 61 27 73q-12 -13 -26 -26q-15 -15 -17 -15
q-32 -13 -32 -22q-24 -13 -53 -15q-27 0 -38 12l-11 -32q-2 -2 -8 -14.5t-10 -18.5q-4 -5 -10 -10.5t-9 -9.5q-20 -25 -46 -25z" />
    <glyph glyph-name="w_i" unicode="wi" horiz-adv-x="502" 
d="M169 63v10q0 23 7 50q2 5 5 10.5t3 6.5l2 7q0 3 -4 7.5t-5 4.5q-3 0 -7.5 -4.5t-7.5 -8.5l-3 -4l-10 -26l-8 -9q-10 -18 -11 -24q-4 -3 -11.5 -16.5t-8.5 -14.5q-22 -33 -31 -39q-19 -17 -29 -17t-10 18v4q7 35 8 36l22 56v8l7 7q2 11 6 16l8 17q0 3 -2.5 9t-3.5 6
q-3 0 -5 -0.5t-3.5 -2t-2.5 -1.5q-1 -1 -5 -6t-7 -5q-1 0 -2.5 -3.5t-3 -8t-2.5 -6.5l-6 -19l-8 -10q-7 -7 -15 -18l-18 -19q-11 -15 -16 -18l-7 -6q0 -6 8 -6l10 7l30 32q1 0 3 -3q-17 -34 -17 -39q0 -1 0.5 -4t0.5 -5l-6 -9q-2 -8 -2 -13q0 -13 2 -19q6 -17 23 -17
q14 1 24 7q3 3 8.5 6t6.5 4q7 12 19 22q41 57 47 65h4q-1 -5 -1 -15t2.5 -23.5t2.5 -15.5v-4q5 -13 6 -15l4 -2q4 -2 7 -5t3 -6q0 -1 3 -2t7.5 -2t7.5 -1q20 0 32 11q43 37 74 113q5 0 14 -1.5t13 -1.5q21 0 59 10q1 0 2.5 0.5t2.5 0.5q0 -7 -4 -20q-9 -18 -9 -22
q0 -6 -4 -20q-2 -8 -2 -9v-15q0 -14 9.5 -26.5t27.5 -12.5q40 0 42 10q1 6 9 6q5 0 16 11l4 5l34 28q15 12 15 17q0 6 -5 6l-5 -3q-33 -32 -48 -40q-27 -19 -44 -19t-23 9q-4 8 -4 17q-3 4 -3 6q0 1 1 3t1 3q1 20 7 37q0 12 6 17q11 24 23 37q0 5 -9 5q-5 0 -7 -0.5t-3 -0.5
t-6.5 -4.5t-6.5 -5.5q-30 -20 -60 -20q-2 0 -6 0.5t-7 1.5h-3q-3 0 -12 4t-9 7v28q0 2 -4 4t-5 2l-7 -5q-8 -4 -12 -12q0 -6 2.5 -16.5t2.5 -12.5q0 -34 -42 -91q-15 -20 -37 -20q-18 0 -25 23l-1 15q-5 2 -5 7t3 10zM445 245v5l13 13h4q14 0 14 -17q0 -14 -15 -14
q-16 0 -16 13z" />
    <glyph glyph-name="w_l" unicode="wl" horiz-adv-x="634" 
d="M692 520q-15 0 -26 -16l-22 -45q-4 -4 -25 -46q-12 -19 -25 -59l-11 -37l-7 -6q-14 -35 -16 -41q-11 -27 -17 -33l-3.5 -7t-5.5 -9.5t-3 -5.5q-5 -5 -5 -10q0 -2 2 -2q3 0 10 7.5t15 17.5t10 12q1 2 6.5 8t5.5 8q0 1 7.5 10.5t10.5 12.5q3 4 9 12.5t10 14.5t6 7
q9 15 9 18q0 6 10 16q2 2 14 20.5t15 22.5q40 72 40 105q0 25 -14 25zM349 73q-27 0 -38 12l-11 -32q-2 -2 -8 -14.5t-10 -18.5q-4 -5 -10 -10.5t-9 -9.5q-20 -25 -46 -25q-21 0 -31 17q-1 0 -1 3l-1 4q-1 1 -3.5 2.5t-3.5 4.5q1 10 1 18q0 10 -2 12t-2.5 9.5t-1.5 8.5l1 14
l-4 -3l-23 -24q-2 0 -7 -7q-1 -1 -3.5 -5.5t-6.5 -6.5l-35 -36q-5 0 -23.5 -14.5t-29.5 -14.5t-20 7t-9 15l-3 22l10 47q8 22 16 31q0 3 -2 3l-1 -2q-2 -1 -4 -3.5t-3 -3.5q-21 -21 -27 -26q-3 0 -5 1l-2 4l34 39q2 2 6 9.5t6 9.5q5 3 11.5 16.5t10.5 18.5q1 2 5 9.5t6 10
t6.5 5.5t10.5 3q11 0 11 -16q0 -7 -3 -12l-19 -33q-2 -4 -7.5 -12.5t-8.5 -16.5q-5 -10 -5 -17q-2 -4 -7.5 -13.5t-7.5 -21.5q-3 -9 -3 -26l1 -5v-5q4 -10 16 -10q18 0 37 17l6 3q15 14 55 61l8 12q7 11 23 33q2 3 4.5 8t4 7t5.5 3.5t11 1.5q4 0 4 -14q-4 -13 -9 -20v-5
q0 -3 -3 -13.5t-4 -27.5q0 -1 0.5 -4t0.5 -5q0 -3 -1 -5q0 -8 5 -12q5 -21 23 -21q23 0 39 19q20 18 32 54q1 2 2.5 6t2.5 7t1 5l-3 7q-3 7 -4 13q0 17 10.5 36.5t25.5 19.5q10 0 10 -7q0 -11 -8 -28t-9 -24v-4q0 -5 5 -10q1 -3 15 -8q4 -1 12 -1q16 0 38 10q6 0 16 6.5
t21 16t12 10.5q5 3 16 15l10 12l20 24l12 25l3 10q16 32 17 37l20 37q1 2 10 14l8 12l9 20l-1 8q0 2 2 7t4.5 12t3.5 10q4 10 19 31t19 37q33 49 41 75q7 13 20 25t24 12q10 0 17 -8t7 -19q0 -9 -3 -28t-7 -37t-4 -19q-2 -3 -10.5 -18.5t-10.5 -19.5q-3 -20 -23 -52l-27 -33
v-5q-11 -13 -13 -17q-1 -3 -7.5 -12t-9.5 -10l-19 -25q-18 -28 -73 -86l-8 -9l-4 -12q-11 -24 -13 -55q-6 -14 -6 -33q0 -22 2 -26q4 -10 6.5 -14t10.5 -8.5t20 -4.5q18 0 27.5 3t26.5 15t28 18q5 2 14 11t12 9q6 0 6 -6q-3 -5 -12 -12.5t-10 -8.5l-31 -22q-3 -1 -17.5 -9.5
t-21.5 -10.5q-19 -7 -35 -7q-9 0 -25 4q-4 1 -9 4.5t-7 6.5l-3 3q-4 5 -7 11q-8 13 -8 34q0 35 6 57q5 14 6 17q0 7 -2 7t-11.5 -7.5t-24 -17.5t-24.5 -15q-24 -13 -53 -15z" />
    <glyph glyph-name="w_n" unicode="wn" horiz-adv-x="690" 
d="M43 -44q-15 0 -24.5 7.5t-9.5 15.5l-3 22l10 47q8 22 16 31q0 3 -2 3l-2 -2q-1 -1 -3 -3.5t-3 -3.5q-22 -21 -27 -26q-3 0 -5 1l-2 4l34 39q2 2 6 9.5t6 9.5q5 3 11 13.5t11 15.5q3 3 8 11.5t10 13.5t9 5q10 0 10 -15q0 -6 -3 -11l-17 -31q-2 -4 -7.5 -12.5t-8.5 -16.5
q-5 -10 -5 -17q-2 -4 -7.5 -13.5t-7.5 -21.5q-3 -12 -3 -28q0 -20 13 -20q15 0 36 14l3 1l7 3.5t3 3.5q5 5 5 8q9 7 18.5 17.5t14.5 17.5l5 7q2 4 10 12l31 56q8 13 20 13q7 0 7 -6v-5q0 -5 -5 -18l-5 -13v-10q-5 -27 -5 -31q0 -51 27 -51t31 15q6 4 15.5 17.5t16.5 24.5
l6 11q8 15 8 17t-2.5 7.5t-2.5 10.5q0 15 10 32t24 17h4q2 -3 2 -9q0 -14 -18 -47l8 -8q2 -3 16 -7q2 -2 8 -2q3 0 7 0.5t5 0.5q28 0 62 27q8 2 13 10q26 19 41 39q3 2 9 2q9 0 9 -12q0 -7 -5.5 -19.5t-6.5 -15.5l-3 -5q-4 -5 -5 -7q0 -1 -0.5 -7t-0.5 -7q-6 -12 -5 -12
q2 0 7 4.5t12 11.5t12 11q2 1 5.5 4.5t3.5 4.5t7.5 7.5t10.5 8.5q3 4 14.5 12t16.5 8q17 0 17 -13q0 -5 -2 -13.5t-2 -10.5q0 -4 -1 -10.5t-1 -8.5q0 -4 1 -5q0 -1 -1.5 -9.5t-1.5 -9.5q-1 -4 -1 -10q0 -10 7 -24l1 -11l3 -1q6 -8 10 -11q10 -2 17 -2q6 0 18 6q3 0 17 8.5
t17 11.5q7 4 19 14t21 18l8 9q2 3 5 3q4 0 4 -6q0 -3 -7 -10q-37 -37 -44 -41q-26 -22 -56 -34q-7 -2 -18 -2q-13 0 -24 8q-3 1 -6 6.5t-8 8.5l-3 6l-5 15l3 20q2 4 2 6q0 3 -2.5 9t-2.5 9l3 17q-3 17 -3 18q0 7 -7 7q-10 0 -27 -17q-25 -25 -37 -46l-4 -4l-4 -4
q-8 -17 -14 -19q0 -3 -2 -9t-8.5 -19t-8.5 -19q-1 -3 -9 -3q-13 0 -13 11q1 5 7 16.5t7 16.5l12 29q0 7 3.5 15.5t9 18.5t7.5 14l9 27l-1 3q-5 -3 -19 -15.5t-23 -17.5l-3 -3q-13 -4 -17 -8l-18 -9l-5 -1q-5 0 -7 -2q-15 -3 -22 -3q-1 0 -8 0.5t-8 0.5q-2 2 -10.5 5t-12.5 6
q-1 -1 -8 -15q-3 -3 -5.5 -8l-6.5 -13l-7 -14q-2 -3 -10 -12.5t-11 -16.5q-20 -24 -44 -24q-8 0 -14 3q-4 2 -5 5l-4 5q0 2 -5 2q-1 1 -5 7l-5 6q0 1 -1.5 13.5t-2.5 14.5q0 2 -2.5 5.5t-2.5 5.5q0 4 1.5 12.5t1.5 12.5l-4 -1q-6 -6 -18 -24l-53 -57q0 -1 -3 -3l-2 -1
l-11 -9q0 -2 -5 -2q-10 -4 -10 -5q0 -2 -3 -4q-2 0 -8.5 -3t-8.5 -3z" />
    <glyph glyph-name="w_w_w" unicode="www" horiz-adv-x="983" 
d="M662 92q6 -1 20 -1q6 0 10 1q16 4 23 10q9 4 21 11q14 9 20 16q2 2 7 10.5t9 13t8 4.5q9 0 9 -15q0 -9 -2 -11l-18 -27q-12 -21 -14 -29q-5 -10 -5 -15q-3 -6 -4 -21q-2 -8 -2 -12v-14q0 -1 2 -5l1 -5q4 -8 12 -8h4q17 2 33 17l6 4q23 29 47 67l18 30q4 31 23 31
q12 0 12 -7q0 -5 -6.5 -25t-8.5 -22q0 -20 -5 -42q-4 -4 -4 -9q0 -2 2 -9l2 -7q2 -30 19 -30q20 0 44 26q25 26 46.5 71.5t21.5 85.5q0 24 -13 42t-34 18q-16 0 -19 -14t-11 -14q-10 0 -10 7l-1 14q0 9 13.5 15t22.5 6t25 -4q2 0 5 -3l3 -1.5l3 -1.5q34 -24 36 -78
q0 -8 -4 -20q-2 -2 -6 -15t-5 -15q-4 -7 -11 -27t-17 -32q-8 -7 -9 -12q-6 -6 -25 -29.5t-39 -34.5q-10 -8 -25 -8q-16 0 -26 17t-11 36q0 24 6 47v11l-13 -20l-8 -8q-1 -1 -3 -6t-4 -8l-33 -41q-4 -3 -14.5 -13t-19.5 -15.5t-19 -6.5q-28 0 -33 18l-2 19q4 20 8 29
q6 17 10 42q0 3 2.5 7.5t3.5 8.5l2 3l2 3q1 4 2 7l2 3l-1 3q-31 -19 -43 -22q-18 -7 -32 -7q-22 0 -35 11l-12 -31q-2 -2 -6.5 -11l-10 -20l-7.5 -15q-4 -6 -22 -24q-20 -20 -41 -20q-31 0 -37 21l-5 14l2 6q0 3 -2 9l-1 6l3 20v5q2 4 2 5l1 8l2 19l-4 -4
q-9 -12 -14.5 -20.5t-6.5 -11.5l-1 -3q-4 0 -6 -7l-39 -38q-1 -1 -6.5 -5.5t-8 -6.5t-8 -5t-11 -4.5t-12.5 -1.5q-36 0 -36 40q0 19 8 38q2 5 6.5 18t7.5 20q1 3 5.5 10t4.5 9l10 22q-1 0 -5.5 -1t-5.5 -1q-42 -11 -60 -11q-4 0 -13 2t-14 2q-32 -81 -78 -123
q-11 -11 -34 -11q-4 0 -11 2t-7 4q0 3 -3 5.5t-7 4.5l-4 2q-9 12 -9 34l1 13q0 9 3.5 26t3.5 27v7q-87 -80 -95 -90l-25 -17q-1 -1 -7 -4t-6 -4q-4 -3 -10 -9t-12 -9.5t-13 -3.5t-14.5 4t-7.5 11q0 5 4 5h13q36 10 60 61q1 3 4.5 7.5t5 9.5t1.5 11q0 3 1.5 5l4.5 6t5 8
q16 27 16 65q0 24 -7 34.5t-26 10.5q-48 0 -85 -52q-7 -11 -7 -30q0 -5 3.5 -14.5t3.5 -13.5v-5q-17 5 -17 37q0 37 36 63t72 26q53 0 53 -51q0 -16 -5 -33.5t-10 -29.5t-15 -32t-14 -30l4 -4q4 0 16.5 9.5t17.5 15.5l70 79q11 25 24 25q10 0 10 -18q-3 -9 -11 -28
t-13 -34.5t-5 -28.5q-4 -6 -4 -11t5 -7v-12q0 -13 5 -17.5t24 -4.5q22 0 34 20q14 19 28.5 49t14.5 49q0 2 -2.5 13t-2.5 18q5 9 12 13q7 5 8 5t5 -2t4 -4v-30q0 -3 9 -7.5t12 -4.5l3 -1q3 -1 7 -1.5t7 -0.5q28 0 63 22l6.5 6.5t6.5 5.5q3 1 12 1q10 0 10 -7
q-18 -22 -26 -41q-5 -6 -10 -21.5t-8 -21.5q-10 -19 -11 -22q0 -1 0.5 -6t0.5 -6q-4 -18 -4 -22l1 -5q1 -4 1 -5q5 -9 15 -9q19 0 33 16l12 9q37 42 39 45l22 35q8 11 12 24q1 2 2 6t1.5 5t1.5 3.5t2.5 3.5t3.5 2t4.5 1.5t6.5 0.5q7 0 7 -15q-7 -22 -8 -23v-4
q0 -7 -3.5 -17.5t-3.5 -21.5q0 -2 -1 -10.5t-1 -12.5v-5q-2 -5 -2 -9q0 -2 3 -2v-16q3 -19 24 -19q18 0 34 20q18 15 36 64l6 21q-3 13 -4 21q0 47 26 47q9 0 9 -6q0 -10 -4.5 -24t-5.5 -22q0 -6 5 -9q5 -9 14 -12z" />
    <glyph glyph-name=".notdef" horiz-adv-x="256" 
 />
    <glyph glyph-name=".null" horiz-adv-x="0" 
 />
    <glyph glyph-name="nonmarkingreturn" horiz-adv-x="333" 
 />
    <glyph glyph-name="space" unicode=" " horiz-adv-x="182" 
 />
    <glyph glyph-name="exclam" unicode="!" horiz-adv-x="390" 
d="M143 40q14 -4 14 -16q0 -17 -8 -28q-2 -2 -5 -3.5t-6 -1.5h-2q-10 1 -13 5q-5 4 -5 13l-2 4q0 9 3 16q5 11 24 11zM304 545q4 0 10 -7.5t6 -13.5t-8 -20.5t-8 -16.5q-7 -20 -8 -22q-8 -19 -8 -21q0 -3 -5 -16t-12 -29.5t-9 -20.5l-26 -65v-8l-19 -44v-5
q-32 -102 -33 -111q-8 -32 -8 -46q0 -3 -2 -7t-4 -4l-3 2q-3 2 -4 2q-2 0 -7 2l-5 1q-7 0 -7 7l9 27l25 73l24 77l3 15q6 20 10 28l3 24l16 41q13 31 16 37q2 2 5.5 16.5t7 30.5t5.5 20l19 49q10 5 17 5z" />
    <glyph glyph-name="quotedbl" unicode="&#x22;" horiz-adv-x="303" 
d="M183 416q10 0 10 -28q0 -11 -5 -25.5t-10 -17.5l-10 -15l-16 -15q-11 -11 -12 -11q-4 0 -4 5l12 12q11 15 19 31l5 20l-6 12q-4 6 -4 16q1 14 21 16zM233 413q10 0 13 -25l-2 -9l-4 -3l4 -2q-1 -6 -3.5 -11.5t-5 -9t-2.5 -4.5q-7 -14 -16 -25q-12 -9 -14 -9q-4 0 -4 3
l1 1q1 1 2.5 3t3.5 4.5t5 7t6 8.5q8 15 8 30l-3 11q-3 2 -3 8q0 3 1 6q3 16 13 16z" />
    <glyph glyph-name="numbersign" unicode="#" horiz-adv-x="342" 
d="M207 211q-5 -7 -14 -29l-9 -28l-1 -15q0 -2 -1 -5l-1 -4q-5 -9 -8 -10q-7 2 -8 3v4q0 4 1 7l10 48q0 7 2 9q0 2 2 7.5t2 8.5q0 2 -3.5 3t-10 1.5t-7.5 0.5h-10q-3 0 -7 -1h-34q-3 -5 -7.5 -10.5t-8.5 -11.5l-22 -55l-6 -18q-2 -5 -17 -5q-2 2 -2 5l1 10q0 2 40 86h-20
q-6 0 -19.5 -0.5t-21.5 -0.5h-11q-4 2 -4 7q6 11 20 11h4l17 1h4t9.5 0.5t14.5 0.5q1 0 2 0.5t2 0.5q4 0 14 -2q8 14 8 17q1 1 4 9q1 3 4 6l-1 1v2l7 15q11 23 11 27h-8l-39 -1h-1q-2 -1 -3 -1h-6q-1 0 -4 -0.5t-5 -0.5q-4 0 -4 8q5 5 11 5l10 2l12 1q9 0 14 1t17 1q1 0 4 1
t4 1q10 0 10 5q8 12 8 19q2 3 3 5l31 50q2 10 12 10q3 0 3 -9l-11 -26l-23 -42q-1 -1 -3 -10q0 -4 4 -4q12 0 22 3q16 -2 39 -2l1 -1h4l13 29q3 3 3 5q2 11 4 14q2 9 10 17l10 23q0 1 0.5 3t0.5 3q6 18 17 22q3 -2 3 -8q-1 -7 -6.5 -19.5t-5.5 -17.5l-12 -32l-9 -18
q-3 -5 -3 -11l-5 -11q10 -1 22 -1h5q11 0 25 3l11 2q4 -6 4 -9q-3 -13 -60 -13h-16l-1 -3q-6 -17 -17 -35l-12 -29l-1 -1v-2q0 -2 -2 -6h16q18 -2 29 -2q10 0 15 1h7q1 0 4.5 0.5t5.5 0.5q5 0 5 -6q-2 -4 -27 -7zM131 254l-11 -27h14q2 0 5.5 1t4.5 1t7 1h16q3 0 7.5 -0.5
t6.5 -0.5q2 -2 10 -2q3 0 3 2l7 18q0 6 5 11l19 48h-13q-4 -1 -13 -1q-8 0 -11 1h-10l-12 -2h-12l-5 -12l-16 -30q0 -4 -2 -8zM182 131l-1 -1q1 0 1 1z" />
    <glyph glyph-name="dollar" unicode="$" horiz-adv-x="270" 
d="M33 117v4l30 54q4 7 5 11q-2 4 -11 11t-11 10q-13 17 -13 35q0 15 9 15q6 0 11 -7.5t5 -13.5q0 -1 -1 -4.5t-1 -5.5q0 -4 3.5 -9.5t7 -9t4.5 -3.5t10 17.5t19 41t15 38.5q0 3 -3 8.5t-3 8.5q-22 44 -22 62v8q0 11 3 16l16 26q0 2 2 2l46 26l30 7l34 77q2 2 7 2q9 0 9 -7
q0 -6 -4 -10q0 -1 -4.5 -7.5t-9.5 -13t-5 -7.5q-8 -20 -8 -30q0 -4 7 -4q4 -2 10 -2q2 0 5 3q8 29 16 47q2 10 10 10t9 -6q-19 -54 -19 -56t13.5 -17t13.5 -28q0 -19 -5 -26q-19 -24 -37 -24q-4 0 -4 3t13 14.5t13 24.5q0 7 -5 17t-11 10q-3 0 -3 -1q-63 -156 -63 -159
t11 -19q12 -19 12 -39v-6q0 -10 -4 -14l-22 -22l-12 -6q-2 0 -13 -1.5t-14 -1.5q-5 -2 -5 -4l-18 -44q-2 -7 -9 -7t-7 7q0 14 16 46l2 4q-3 2 -9.5 4.5t-10.5 4.5q0 -7 -6.5 -18t-6.5 -19l-14 -29q-4 -7 -11 -7q-12 0 -12 13zM126 187l2 -3q15 0 24.5 9.5t9.5 23.5
q0 25 -9 25q-3 0 -4 -2zM90 195q0 -10 17 -10q2 0 4 5l28 62q2 8 2 10q0 4 -6 13.5t-9 9.5l-3 -2q-4 -14 -15.5 -42.5t-17.5 -45.5zM139 317q0 -4 6 -15.5t9 -11.5l37 85q1 7 11.5 28.5t10.5 33.5q0 7 -3 7h-16l-3 -3q-1 -1 -5.5 -9.5t-11 -20.5t-8.5 -17q-5 -10 -12 -36.5
t-15 -40.5zM109 393q4 -8 4 -15q0 -15 2 -19q0 -3 7 -10q4 -9 6 -9q11 13 13 30q18 51 31 72q1 1 -0.5 1.5t-2.5 0.5q-18 0 -39 -17t-21 -34z" />
    <glyph glyph-name="percent" unicode="%" horiz-adv-x="456" 
d="M321 118q-9 0 -23.5 -13.5t-14.5 -17.5q0 -13 -7 -20l-12 -17q0 -3 -1 -6.5t-3 -6.5t-2 -4q-3 -5 -3 -8q0 -5 7 -15t17 -10q20 0 33 11q10 10 23 32.5t13 35.5q0 21 -6 27q-9 12 -21 12zM146 398q-6 0 -14.5 -6t-9.5 -12q-1 -5 -9 -14q-20 -15 -20 -21q0 -3 1 -8t1 -9
t-3 -13.5t-3 -11.5q0 -5 5.5 -13.5t14.5 -8.5q24 0 38 16q28 28 28 50q0 33 -8 35l-10 7q-5 9 -11 9zM344 139q10 0 21.5 -12.5t11.5 -22.5q0 -13 -7 -20q-1 -1 -1 -15q0 -5 -12 -25t-19 -23q-4 -2 -39 -31q-14 -13 -33 -13t-33 17v16q-13 7 -13 17q0 5 14 36q2 3 5.5 6
t6 6.5t3.5 9.5q0 6 2.5 9.5t6.5 6t5 3.5q8 8 25 20q2 2 27 9q11 6 29 6zM437 451q10 0 10 -12q0 -9 -9 -18t-15 -12l-4 -4t-7 -7.5t-5 -5.5q-3 -4 -22 -32q-2 -3 -9 -11t-9 -9q-2 0 -6.5 -5t-9.5 -11.5t-7 -8.5q-2 -4 -16 -18.5t-16 -15.5l-3 -8l-12 -12q-31 -37 -38 -46
q-4 -8 -12.5 -17t-13.5 -11q-8 -5 -8 -12q0 -5 -8 -13q-12 -12 -13 -17q-6 -11 -19 -29l-13 -20q0 -3 -15 -23q-9 -6 -9 -15q0 -5 -21 -20q-10 -9 -39 -61l-23 -29q-17 -20 -21 -25q-6 -8 -9 -8q-6 0 -6 5q0 1 19 33l59 103q11 14 19 16l6 15q7 12 10 13t10.5 13t8.5 16
q14 18 19 22q4 3 10 16.5t7 15.5q5 10 11 13l10 17q5 7 9 8q3 1 18 23q2 8 11 13l45 46q14 10 37 37q17 18 19 20q2 3 8.5 7.5t8.5 6.5l7 12q0 7 -6 7q-3 0 -12 -4.5t-15 -6.5q-6 -1 -28 -5.5t-25 -4.5l-12 -4l-5 -5h-6q-1 -2 -19 -2q-25 0 -36 7h-13l-4 4h-6l-2 -3v-13
q0 -15 -8 -41q-2 -6 -9 -15t-13 -15l-5 -6l-2 -4q-3 -2 -8 -6q-27 -16 -46 -16q-9 0 -17 3.5t-12 7.5l-4 3l-2 3q-13 17 -13 27q0 19 5 26q3 5 10 26q2 12 6 16q17 17 21 24l16 18q12 12 24 12l16 -1h20q10 0 17 -9q1 -1 2.5 -4.5t7.5 -8.5t16.5 -9t11.5 -5l24 -4l20 -2l2 4
l14 1q11 4 17 4q8 0 26 8l3 1q18 7 25 7q4 0 24 10q13 8 15 8q3 1 5 2.5t5.5 4.5t7.5 6q17 19 23 19z" />
    <glyph glyph-name="ampersand" unicode="&#x26;" horiz-adv-x="474" 
d="M293 433q24 0 40 -12t16 -28q-1 -10 -6.5 -18.5t-10.5 -12.5l-6 -4h-7q-6 -5 -12 -5t-11 2t-8 4l-2 2l1 4l6 1q2 -1 15 -1q20 0 20 30q0 25 -44 25q-23 0 -45.5 -9t-32.5 -20q-7 -5 -22 -22q-13 -16 -15 -41l4 -5v-4q-5 -11 -5 -12q0 -6 4 -8q1 -1 1.5 -4.5t2.5 -7
t5 -7.5q6 -8 13.5 -14.5t11.5 -8.5l4 -2h32q9 0 9 -8q-1 -4 -5.5 -9t-8.5 -5t-10 2t-24 2q-24 0 -49 -13q-27 -15 -57 -47l-23 -21q-2 -6 -2 -8q0 -1 -2 -5.5l-6 -13.5t-7 -18l-4 -34v-8q-1 -4 -1 -5q0 -4 4 -19v-9q0 -3 7 -16q6 -12 25.5 -27t30.5 -16q22 -4 48 -4
q11 0 32 6t26 6q11 4 34 17.5t30 20.5q5 4 7 6.5t4 7.5t2 6l11 8q12 14 25 42q9 24 11 50l-2 7q0 1 -1.5 5.5t-5 10t-7.5 5.5l-6 5h-13l-4 -1l-8 1l-6 -1q-1 -2 -1 -4q0 -1 -5 -3.5t-12 -7t-12 -10.5q-9 -11 -12 -24l1 -7q0 -8 -6 -8t-6 18l6 21l3 2q-1 3 -1 4q0 3 5 8
q1 3 12 16l3 3q20 16 46 21h8l4 -3l2 7q15 1 39 1q30 0 54 -8q10 0 13 1q1 0 8 -0.5t11 -0.5h6q8 1 12.5 6t4.5 9v14q0 9 8 9q5 0 5 -11v-6q-1 -16 -23 -31q-8 -7 -71 -7l-28 1l-7 -2l5 -6q1 -1 4 -12t3 -15q-8 -45 -18 -68q-7 -16 -16 -29.5t-15 -19.5t-8 -7q-6 -2 -11 -10
q-4 -8 -13 -10l-9 -7q-10 -8 -30 -21h-14l-7 -7h-4l-16 -5q-22 -7 -56 -7l-7 1h-24q-37 0 -66 24q-28 20 -30 22q-2 11 -5 13l-2 4q-7 9 -7 51v20q3 43 43 81q6 3 20.5 15.5t15.5 15.5q6 6 45 24l21 12h8l9 7h5l4 1v4q-5 3 -15 12q-19 17 -22 30l-2 12q-3 4 -3 20q1 14 6 21
l10 11l1 9q16 25 44 42q46 22 86 22z" />
    <glyph glyph-name="quotesingle" unicode="'" horiz-adv-x="149" 
d="M87 390q10 0 13 -25l-2 -9l-4 -3l4 -2q-1 -6 -3.5 -11.5t-5 -9t-2.5 -4.5q-7 -14 -16 -25q-12 -9 -14 -9q-4 0 -4 3l1 1q1 1 2.5 3t3.5 4.5t5 7t6 8.5q8 15 8 30l-3 11q-3 2 -3 8q0 3 1 6q3 16 13 16z" />
    <glyph glyph-name="parenleft" unicode="(" horiz-adv-x="212" 
d="M323 578q4 -2 4 -4q0 -4 -12 -9q-25 -14 -60.5 -50t-48.5 -62l-7 -14q-2 -5 -3 -6q0 -1 -5 -6.5t-5 -6.5q0 -7 -6 -13q-1 -2 -5 -7.5t-4 -8.5l-13 -27v-6q-11 -23 -21 -46l-19 -43l-5 -5q0 -3 4 -5q-7 -7 -13 -53l-9 -45q-1 -2 -5 -16t-7 -26t-3 -15l5 -22l-5 -37
q-1 -13 -1 -53q0 -17 5 -24q0 -1 0.5 -5t1 -11t1.5 -13q8 -30 8 -33q0 -6 -3 -6t-14 23t-11 27v10l-5 8v19q-2 5 -3 14l-4 57l4 9v57q0 14 15 89q4 35 17 62q19 50 42 96l4 4l10 25l27 44q4 4 10 17q11 22 57 68q18 18 24 18q2 0 13 7t12 7q2 0 16.5 8.5t16.5 8.5z" />
    <glyph glyph-name="parenright" unicode=")" horiz-adv-x="263" 
d="M9 -137q-2 2 -2 3t10 11q26 20 47 47q38 44 48 76l8 22q2 1 5 6.5t3 7.5t2 6.5t2 6.5q1 1 4.5 6t3.5 9l11 29v6l29 94l5 5q-1 3 -5 4q1 2 12 101q0 4 3.5 29t3.5 28l-7 22q0 1 0.5 15t0.5 22t-2.5 30t-2.5 23q0 16 -7 23l-7 28q-8 30 -13 33q0 7 4 7q2 0 15.5 -22
t13.5 -26l3 -10l6 -8l2 -19q1 -4 5 -13l8 -55l-1 -11l6 -55v-17q0 -17 -2.5 -45t-2.5 -29q0 -28 -11 -64l-19 -63l-11 -37l-4 -3q-7 -20 -8 -26l-12 -24v-5l-9 -20q-4 -3 -9 -16q-1 -6 -8.5 -18t-14.5 -22.5t-15.5 -22.5t-9.5 -13q-15 -18 -23 -18q-2 0 -12 -9t-11 -9
q-2 0 -16 -10t-16 -10z" />
    <glyph glyph-name="asterisk" unicode="*" horiz-adv-x="283" 
d="M138 232q9 0 9 -22q0 -9 -0.5 -35t-0.5 -27q0 -8 8 -8t17 3q1 0 19 5t20 5q1 0 11.5 3.5t13.5 3.5q8 0 8 -9q0 -3 -2.5 -6.5t-4.5 -5.5l-3 -2q-16 -2 -33 -8q-44 -14 -44 -19q0 -3 37 -32q19 -15 19 -20q0 -4 -4.5 -9t-7.5 -5q-4 0 -15 14q-1 3 -11 9.5t-11 7.5
q-2 1 -14.5 11t-14.5 10t-25.5 -23.5t-26.5 -27.5q-2 -5 -9 -5t-7 10l20 23v5l8 8q11 11 11 20l-3 10q-7 2 -11 3l-6 6q-23 6 -30 6q-20 0 -20 9q0 8 5 13l13 3q12 -8 20 -12q32 -12 40 -12q3 0 5.5 2t3.5 2l4 5v41q0 2 -1 15t-1 18q0 6 4.5 11.5t9.5 5.5z" />
    <glyph glyph-name="plus" unicode="+" horiz-adv-x="382" 
d="M243 316q10 0 10 -12q0 -4 -9 -29t-12 -31q-5 -10 -5 -18l-8 -32l6 -6q12 -2 19 -2q3 0 9 0.5t11 1.5h6q1 0 7.5 -2t8.5 -2t17 3t19 3q16 0 16 -12q0 -13 -23 -13q-3 0 -10.5 2t-9.5 2l-19 -3l-16 2h-11l-4 -2h-18q-10 0 -15 -4q-6 -3 -21 -40l-10 -20v-16
q-14 -24 -16 -32l-4 -13q-8 -11 -15 -11q-4 0 -8.5 4t-4.5 7q0 1 1 3.5t2 6t2 5.5q15 38 15 39l9 20l3 17l4 9v15l-3 6h-26q-19 6 -24 6l-16 -3l-5 1h-20q-15 0 -15 11l10 7q14 0 58 1l8 -1h39l7 7q2 3 2 8q0 7 15 31l12 22v19q8 9 9 21q0 5 8 14.5t15 9.5z" />
    <glyph glyph-name="comma" unicode="," horiz-adv-x="147" 
d="M85 45q17 0 17 -31q0 -12 -8 -30.5t-12 -21.5l-8 -14l-4 -3l-15 -16q-13 -10 -15 -10t-2 4l4 3q3 4 4 5q2 1 11 18q6 6 6 12q0 2 11 21q3 7 3 25l-12 -1q-7 2 -7 16q0 9 10 16t17 7z" />
    <glyph glyph-name="hyphen" unicode="-" horiz-adv-x="321" 
d="M89 118l11 1q1 0 6.5 -2.5t13.5 -3.5q4 0 14 2.5t16 2.5q4 0 6 -2.5t4 -2.5t5.5 1.5t6.5 1.5q16 -2 35 -2l35 1q1 0 2 0.5t3 0.5q4 0 8.5 1t7 2.5t3.5 1.5q5 0 5 -6v-4l-10 -10l-12 -1l-7 -3q-4 -1 -21 -1q-4 -2 -18 -2l-25 5q-3 0 -9 -0.5t-11 -1.5l-5 -1q-15 2 -33 2
q-41 0 -47 -4q-17 0 -21 -4q-3 -4 -6 -4q-3 2 -3 8q0 7 13 14.5t33 9.5z" />
    <glyph glyph-name="period" unicode="." horiz-adv-x="183" 
d="M92 44q11 0 11 -7l3 -8q0 -7 -3 -14q-3 -12 -19 -12q-13 1 -13 20q0 7 6 14t15 7z" />
    <glyph glyph-name="slash" unicode="/" horiz-adv-x="260" 
d="M299 543l5 9q7 5 15 5q5 0 5 -12q-1 -4 -6.5 -15.5t-6.5 -15.5l-21 -46q-1 -4 -10 -24t-10 -27q0 -4 -5 -14.5t-11.5 -22t-7.5 -14.5q-31 -74 -39 -88q-16 -29 -22 -52q-1 -2 -3.5 -6t-4 -8t-2.5 -9q-2 -11 -15 -32q-2 -6 -11.5 -28.5t-12.5 -29.5q-19 -37 -26 -53
q-1 -3 -7.5 -21t-13.5 -35.5t-10 -23.5q-3 -3 -7.5 -13.5t-10.5 -25.5t-11 -24q-6 -15 -15 -15t-9 8q0 9 6 21q3 7 17 43q1 4 6.5 10.5t6.5 11.5q2 1 3.5 5.5t2 11t1.5 8.5q9 24 15 31l13 34q8 17 9 25l8 23l21 41l16 28l7 23l8 12l4 21q5 12 15.5 28.5t12.5 28.5l30 60
q17 39 17 42l15 23l5 21l23 49z" />
    <glyph glyph-name="zero" unicode="0" horiz-adv-x="381" 
d="M291 394q5 0 5 -9v-10q14 -5 28 -17q5 -5 10 -13t8 -14l2 -6l-1 -28l-1 -5v-36l-7 -13q5 -10 5 -19q0 -3 -3 -11.5t-7 -18t-5 -11.5l-10 -27q0 -3 -4.5 -11t-11 -17.5t-7.5 -12.5l-22 -33l-6 -5q-14 -20 -18 -24q-1 -2 -6 -9l-5 -7q0 -1 -7 -6t-16.5 -11.5t-12.5 -9.5
q-9 -6 -35.5 -13.5t-41.5 -7.5t-32 8t-24 20q-17 26 -17 68v5q6 47 13 69l20 35q11 17 14 39q1 3 9 15t11 13l11 19q3 12 13 18l12 16l17 14l21 18q3 2 10 7t8 5q2 2 6.5 4.5t7.5 4t3 3.5q-9 -2 -16 -4l-28 -4q-1 -2 -4 -3t-8 -3t-9 -4q-6 -3 -11.5 -7t-8.5 -7l-2 -2
q-10 -7 -16 -7q-4 0 -4 7q0 8 49 32q34 14 73 17h25q14 9 26 9zM305 338l-14 16l-1 9l-12 -1l-15 2q-14 -10 -24 -15q-22 -12 -36 -30l-25 -27q0 -10 -4 -12l-16 -1l-17 -23l-1 -26q-12 -18 -13 -18q-5 -2 -5 -12q0 -7 -8 -15q-8 -6 -17 -24l3 -19q-8 -15 -8 -18l-1 -13
l-4 -3v-45l-5 -5v-8l5 -12v-3q0 -14 5 -18l9 -8q6 -6 21 -6q44 0 63 14q26 21 45 48q0 3 1.5 5.5t2.5 4.5l2 2l3 7l10 16l3 8q20 21 21 33l4 23l12 5q2 10 3 17l8 17l5 34l2 5l1 14q-7 7 -7 13l15 23l-4 3q-1 11 -1 23q0 4 -1 8t-3 7.5t-2 4.5z" />
    <glyph glyph-name="one" unicode="1" horiz-adv-x="266" 
d="M57 6l1 2q1 3 1 4l37 63q3 17 30 61q6 9 18.5 39.5t28.5 44.5l8 29q0 1 1 3l1 3q-10 0 -28 -18t-22 -21l-53 -52q-4 -2 -20.5 -19t-28.5 -17q-9 0 -9 5q2 5 14 12t14 13q2 2 9.5 10t12 12.5t12 10t14.5 7.5l71 76l7 6l54 65q2 2 2.5 5.5t2.5 5.5q3 13 11 21q8 21 19 21
q5 0 9.5 -4t4.5 -9l-1 -3l-19 -35l-10 -10q-1 -1 -1.5 -5t-1.5 -6l-17 -35q-1 -1 -3.5 -8.5t-4.5 -10.5q-3 -4 -8 -10.5t-8.5 -11.5t-6.5 -13q0 -1 -2.5 -9t-4.5 -15t-3 -8q-1 -4 -5 -9.5t-8.5 -10.5t-5.5 -7v-16q-2 -2 -6.5 -10t-9.5 -17.5t-6 -11.5q0 -1 -3.5 -12
t-7.5 -16l-29 -69q0 -11 -7.5 -28t-17.5 -17q-9 0 -17 7.5t-8 17.5z" />
    <glyph glyph-name="two" unicode="2" horiz-adv-x="330" 
d="M32 16q-7 0 -18.5 -7.5t-19.5 -7.5q-5 0 -10 4t-5 10q11 22 18 22q34 10 42 15q1 0 14.5 9.5t14.5 9.5l30 28l13 6q3 4 43 37l15 10l46 42q4 5 9 9.5t12 9t11 7.5l13 13l11 7l39 47q4 3 16 23.5t14 26.5q6 10 6 18q0 28 -25 28t-51 -9l-15 -7q-10 -2 -22.5 -10.5
t-17.5 -10.5q-5 -4 -15 -14t-17 -18l-7 -8q-10 -10 -10 -30q0 -11 11 -15t11 -9q0 -19 -27 -19t-27 37q0 21 5 28q33 41 47 51l29 21q4 3 14 6.5t14 5.5q61 23 87 23q21 0 36.5 -10.5t15.5 -30.5q0 -28 -23 -55q-1 -2 -6.5 -4.5t-6.5 -5.5q-8 -17 -22.5 -34.5t-31.5 -34
t-21 -21.5l-26 -16q-4 -3 -17 -18q-15 -20 -39 -31l-55 -48q-1 -1 -10.5 -6.5t-10.5 -6.5q-1 0 -4 -4t-4 -4q-7 -7 -9 -7l-14 -9l-5 -3l-5 -4q-1 -1 -4 -2.5l-6 -3t-5 -3t-2 -3.5t3 -2.5t7.5 -1t6.5 -2.5l13 -9q1 -1 6 -7t10.5 -11.5t7.5 -6.5q7 -9 22.5 -19.5t21.5 -15.5
l3 -1h5q17 -7 33 -7q47 3 47 69q3 3 4 3q7 0 11.5 -9.5t4.5 -17.5q0 -11 -6.5 -20t-18.5 -18t-13 -10l-7 -4q-15 -5 -38 -5q-11 0 -18 1.5t-16.5 6t-14.5 6.5q-1 0 -5 0.5t-5 0.5q-4 1 -6 6.5t-4 5.5h-9l-10 8q-28 23 -49 35q-3 1 -9 1z" />
    <glyph glyph-name="three" unicode="3" horiz-adv-x="349" 
d="M305 418q18 -3 27 -17q5 -6 5 -15v-4q0 -2 -1 -10q0 -6 8 -14q0 -1 0.5 -2.5t0.5 -2.5t-0.5 -3.5t-0.5 -4.5v-12l-5 -22q-1 -9 -7 -18.5t-21.5 -28t-19.5 -23.5q-9 -11 -23 -22t-24.5 -16.5t-12.5 -5.5q-3 0 -11.5 -7t-8.5 -11q-1 0 2 -1.5t9.5 -3.5t10.5 -4
q35 -14 36 -14t1 -7l12 -12l1 -14q3 -2 5 -4l1 -3q1 -3 1.5 -8.5t0.5 -10.5v-10q-2 -10 -10.5 -25.5t-9.5 -20.5q-1 -4 -6.5 -12t-10.5 -14l-4 -6q-2 0 -12 -8t-14 -13l-20 -18l-5 -1q-41 -21 -44 -21q-16 0 -19 -1q-12 -6 -51 -6h-11l-56 6l-8 3l-10 1q-2 0 -8.5 6.5
t-13.5 20.5t-7 29q4 18 10 32.5t10.5 20.5t5.5 6q2 0 6.5 4t5.5 6q0 4 18 15l23 10l7 -4q7 5 11 5q6 0 6 -9q-1 -4 -14 -10q-14 -9 -24 -10l-16 -10q-12 -16 -13 -18q-1 0 -4 -4.5t-6.5 -11t-3.5 -10.5l-1 -16q0 -13 6 -16l26 -22q20 -10 58 -10h8q8 0 23 4t22 4q22 6 27 11
q8 8 35 17q17 9 17 18l16 21l3 15q10 13 17 50v5q0 29 -32 52q-10 8 -43 13q-5 0 -23 -7.5t-23 -7.5q-11 0 -11 28l7 7h34l8 2q31 5 59 18q12 5 23.5 15t17.5 18l6 7l6 9q3 8 4 8q2 0 4.5 5t4.5 10l1 5q11 17 13 30q0 2 1.5 11t1.5 16v22q0 14 -6.5 27.5t-21.5 13.5
q-43 0 -93 -50q-21 -25 -21 -29q-1 -6 -1 -15q0 -7 2 -7q1 -4 2.5 -6t3.5 -3h1l13 1l9 9q2 4 2 7q0 1 4.5 4.5t7.5 3.5t3 -8q0 -1 -0.5 -5t-0.5 -6q-1 -7 -4 -11.5t-6 -5.5l-3 -1h-5l-3 -4l-2 -8q-13 -7 -25 -7q-23 0 -23 28v6q12 70 85 105q36 18 78 18z" />
    <glyph glyph-name="four" unicode="4" horiz-adv-x="342" 
d="M176 -28q0 4 5.5 13.5t5.5 10.5q2 2 4.5 11.5t3.5 10.5q12 23 13 27v4l28 65v10q2 5 8 15t10.5 18.5t4.5 12.5t-3 5h-5q-5 0 -12 1t-12 1q-9 0 -26 -1t-25 -1h-21q-23 0 -31 2q-1 0 -6 1l-6 2h-8q-1 0 -10.5 -1.5t-10.5 -1.5h-17l-12 -5q-2 0 -6 1.5t-7 1.5q-6 -4 -21 -4
q-5 0 -8.5 6.5t-3.5 10.5q1 5 10 14q15 7 42 25.5t47 33.5l20 15l21 17q2 2 7 3.5t7 2.5q17 21 35 33q28 13 51 50q5 9 6 25t8 21q7 4 14 4q14 0 14 -23q0 -25 -12 -37l-66 -67l-37 -22q-4 -2 -7 -8t-5 -7l-16 -8l-60 -40q-9 -7 -9 -15q0 -7 20 -7h12q2 0 21 -2t22 -2
t7.5 -1.5t8.5 -2.5l4 -2q1 0 10.5 1t10.5 1h29q6 1 18.5 2.5t21.5 2.5l9 1l15 22l7 7l3 10l12 19q5 9 12 9t7 -8q0 -4 -3.5 -17t-3.5 -26q0 -4 2 -9t2 -10q-1 -10 -17 -12.5t-18 -8.5q-18 -25 -29 -50q-20 -61 -22 -64q-1 -2 -6 -22l-5 -21l-6 -9l-8 -44q-2 -10 -12 -10
q-26 0 -26 20z" />
    <glyph glyph-name="five" unicode="5" horiz-adv-x="345" 
d="M162 367q-7 0 -21 -29.5t-14 -38.5q0 -10 4.5 -17t8.5 -9l5 -2l32 -7q4 0 8.5 -2.5t7.5 -5.5l3 -2l19 -4q23 -17 33 -18q2 -2 4 -6t4 -6q1 -6 20 -20q9 -11 9 -19l3 -9q3 -10 6.5 -22t3.5 -19q-1 -12 -7 -28t-11 -19q-5 -5 -5 -15v-13q0 -5 -13.5 -30.5t-19.5 -29.5
l-12 -14q-13 -14 -26 -26t-23 -19q-8 -9 -19.5 -15.5t-19.5 -9.5l-7 -2l-3 -3h-8q-15 -7 -31 -7q-24 0 -40 8h-5q-15 0 -22 17.5t-7 37.5v6q3 23 16 40t20 17q13 0 13 -8q0 -2 -2 -4.5t-6 -7t-8 -10.5t-6 -30q-3 -2 -4 -11v-4q0 -18 6 -26q13 -11 39 -11l37 8h6l24 22
q4 3 8.5 5t9.5 3l4 1l6 8v8q10 6 13 11q5 8 16 23.5t17.5 27.5t10.5 24l14 18v13q-3 10 -3 20l3 28l5 16q-1 5 -10 9q-5 2 -5 18l-10 13q0 6 -34 33q-7 6 -19 11t-20 8l-8 2q0 1 -2 3t-7.5 5t-13.5 4q-6 4 -23 4q-9 0 -12 -2q-2 0 -2 5q0 1 1 3q7 16 22 59l2 14l7 9l3 26v5
l-1 12v8q0 1 1 2t3 4.5t4.5 7l5 7t5 6.5t5 4.5t3.5 1.5q3 0 12 -1l9 -1q2 -2 6 -7.5t8 -8t11 -2.5q4 0 7 -3q28 -19 63 -19q18 2 20 6t5 4q4 0 4 -10q-1 -34 -51 -34q-22 0 -41 9q-7 1 -13 1h-8q-5 0 -13 0.5t-10 0.5z" />
    <glyph glyph-name="six" unicode="6" horiz-adv-x="367" 
d="M55 -91q0 2 -0.5 8.5t-0.5 7.5l1 9v8q0 5 2 9v12q2 1 2 7q0 5 3 8q2 2 2 11q2 4 2 9q-4 3 -13 14q-7 9 -7 17q-5 20 -5 23v5l-2 3v13l-1 3q0 8 1 16q4 8 4 14q6 20 9 23q0 11 5 18q8 8 8 12v18q1 0 2 3q1 0 5 4l5 5q0 7 5 17v6q6 5 17 21t20 22q1 3 7.5 13t7.5 14l21 20
q2 2 3 6.5t2 5.5q7 6 8 7l26 28q2 6 18 17q3 3 7 9t6 8l6 3l23 17q3 1 5 8q1 3 6 4.5t6 5.5q7 4 21 14t25.5 18t15.5 8q10 0 15 -9v-7q0 -6 -1 -8q-2 0 -5.5 -4t-6.5 -4h-9q-2 0 -6 -3l-3 -3q-15 -7 -16 -9q-1 0 -2 -3l-12 -8l-26 -23q-1 -2 -9 -8l-22 -24q-10 -8 -18 -8
q-5 -5 -6 -5l-4 -3q-4 -3 -5 -5v-7q0 -2 -7 -14q-1 -3 -9 -13q-13 -13 -16 -23l-2 -2q-2 -1 -4 -3.5t-4 -3.5q-3 -3 -8 -14.5t-10 -18.5q-5 -4 -6 -6q-2 -2 -6 -4q-2 -3 -5.5 -9t-6.5 -10.5t-5 -6.5l-2 -6q-5 -5 -7 -11q-2 -3 -2 -17q-12 -20 -14 -21q-1 -3 -1 -12
q0 -3 -2.5 -7t-3.5 -8q-1 -2 -1 -7v-10q-4 0 -4 -3t1.5 -9t1.5 -8q-1 -5 -1 -6v-14q0 -3 5 -21q0 -2 3 -2q2 0 5 6t6 13.5t3 8.5l4 2q2 2 3 5t2 4q7 16 15 25l11 16q9 9 13 11q0 4 9 16l4 3l8 6t4 4l8 8t8 9l15 14q3 1 12 6.5t17 10.5t9 5q19 6 34 6q2 2 3 2q4 -3 5 -3h9
q8 0 23 -15q15 -23 15 -34q0 -1 -0.5 -5t-0.5 -6t1 -4q0 -18 -5 -33q-1 -2 -7 -10.5t-6 -14.5q0 -3 -8.5 -13t-9.5 -13q-4 -3 -8 -8.5t-7 -10t-4 -4.5q-6 0 -12 -6l-9 -9q-1 -1 -5 -3t-6 -4q-10 -10 -22 -13l-22 -9q-3 -1 -8 -4t-8 -4q-25 -5 -40 -5h-25q-11 0 -12 1
q-3 0 -9.5 3.5t-10.5 3.5l-4 -4q-2 -2 -2 -12l-1 -2q-1 -3 -1 -4q-2 -4 -2 -13v-5l-2 -6l-2 -5q0 -3 -1 -14t-2.5 -17.5t-5.5 -6.5q-1 0 -4 10zM93 13q0 -2 7 -7q5 -4 6 -4q9 -5 13 -6q1 0 10 -1t11 -1h4q4 0 5 2h15l35 13l24 18q1 0 5 2t4 3l2 5q23 20 29 28q2 1 7 2.5t8 3
t3 5.5q0 2 -0.5 4t-0.5 3q0 6 8 14q12 13 12 47v9q-2 4 -3 10.5t-2 8.5l-5 4q-2 1 -2.5 2.5t-1.5 2.5l-7 4h-27q-1 -1 -5.5 -1.5t-6.5 -2.5q-2 -1 -8.5 -4.5t-10.5 -5.5q-5 -1 -12.5 -7.5t-12.5 -7.5q-9 -14 -20 -19l-1 -4l-4 -3q0 -4 -9.5 -11t-10.5 -8q-3 -4 -9 -12.5
t-9 -12.5q-2 -2 -3.5 -6t-2.5 -5l-6 -6t-5 -6q-2 0 -2 -5q-9 -9 -9 -14q-4 -4 -4 -9q-6 -8 -8 -22z" />
    <glyph glyph-name="seven" unicode="7" horiz-adv-x="309" 
d="M-64 -224l104 181q1 2 6.5 8.5t5.5 7.5q2 0 2 6q2 3 13.5 23.5t13.5 24.5q0 8 5 13q17 30 22 35l13 13q2 0 2 6l1 3q1 2 9.5 13.5t10.5 13.5l1 3q1 3 1 4q19 36 40 52q0 15 4 21l35 48q0 5 6 11q0 1 1 3l2 2q3 3 19.5 25.5t27.5 31.5h-8q-1 0 -11 -0.5t-12 -0.5
q-23 0 -35 6q-1 1 -14 15.5t-23 14.5q-33 0 -54 -25q-2 -8 -13 -31q-6 -15 -19 -15q-9 0 -9 11q0 7 1 11q29 38 29 71q0 16 -3 25q0 5 8 5q11 0 13.5 -25t5.5 -25q1 0 3 2l31 21q4 4 14 4h7q16 0 22.5 -17.5t10.5 -19.5l9 -1q22 -11 29 -11h14q14 0 20 5q7 5 20.5 19t26 22
t26.5 8q10 0 10 -15q0 -13 -16 -27l-53 -28l-38 -40q-5 -5 -5 -7l-10 -19l-22 -25q-2 -3 -8 -16t-14 -17l-20 -33q-2 -3 -3 -7.5t-5 -7.5q-3 -4 -8.5 -9.5t-8.5 -10.5l-8 -14q-1 -3 -9 -12t-10 -10q-3 -4 -3.5 -7t-0.5 -8t-1 -10q-9 -23 -29 -43l-41 -84l-15 -24l-3 -3
l-1 -5v-7l-12 -25q-4 -9 -14 -17q-2 -2 -2 -9l-1 -6q-3 -16 -16 -29l-19 -49q-2 -5 -9.5 -10t-13.5 -5q-9 0 -17 6t-8 15z" />
    <glyph glyph-name="eight" unicode="8" horiz-adv-x="342" 
d="M84 -20q-1 0 -4 1l-4 1q-21 7 -28.5 18.5t-8.5 40.5q0 7 6 19q2 6 2 8l2 8q1 4 5 8.5t4 5.5q1 1 2.5 4.5t4.5 6.5l7 11q6 12 11 17q4 4 4 5l9 8l9 10l1 2q1 2 1 3l13 11q2 0 4.5 3.5t3.5 4.5l7 8q5 10 5 11q0 13 -11 26q-3 3 -3 7v5l-9 25q-1 3 -1 4v37l1 8q0 1 2 6t2 10
v6q1 1 1 5q2 4 3 5q-3 3 22 41l12 16l22 23l8 4q4 4 18.5 11t15.5 7h9q5 0 9 -2t6 -4.5t5 -7t5 -6.5q0 -1 1 -3.5t1 -4.5t-2.5 -6t-2.5 -6l-14 -15q-3 -1 -7 -4t-9 -3h-3q-15 10 -21 12h-6q-1 -1 -4 -1t-4 -2q-4 -1 -9 -4.5t-8 -4.5l-9 -8q-11 -22 -12 -26v-10q-1 -1 -1 -5
q0 -3 -2 -4l3 -39q1 -1 1 -6l4 -14q0 -2 1.5 -5.5t1.5 -6.5q3 -3 3 -11l2 -4l3 -6q3 -6 6 -8t8 -2q11 11 15 11l8 9q6 3 6 6l15 9l9 8q2 1 4.5 2.5t5.5 2.5t4 2l11 10q2 1 4 3t3 2l5 2q9 9 13 9l8 8q2 1 6 5t5 4l9 4q1 1 17 14l19 12l20 15l35 20q25 12 30 12q6 0 6 -6
q-4 -5 -17 -12q-3 -1 -11 -6l-18 -9l-32 -24q-1 0 -2.5 -0.5t-2.5 -1.5q-27 -22 -29 -23q-2 -2 -13 -7q-9 -9 -13 -10l-21 -17q-3 -3 -17 -11l-2 -2q-3 -2 -4 -2l-8 -8l-14 -12q-4 -4 -12.5 -10t-11.5 -9l-5 -6l-10 -7l-7 -7q0 -2 -2 -4t-2 -4q0 -4 3.5 -10.5t4.5 -8.5
q8 -20 9 -24q5 -6 5 -23q0 -5 4 -12.5t4 -13.5v-5q0 -5 1 -7v-9q0 -1 0.5 -3t1.5 -3v-9q0 -5 -1 -5v-8q-4 0 -4 -6l-6 -17q-4 -4 -4 -6l-2 -4l-16 -14l-10 -10l-4 -2q-4 -2 -5 -2q-11 -5 -12 -6q-2 0 -7 -2t-6 -2q-2 0 -7 -1l-10 -2l-5 -1l-12 -1l-16 1h-4zM66 47v-15
q0 -7 2 -13q6 -15 23 -22q1 0 4 -1.5t5 -1.5l19 2q14 2 19 5l5 3q8 3 16 11q1 1 5.5 8.5t7.5 8.5q2 2 4 12l3 5q0 3 1 4l-1 9v24q-3 0 -3 10q0 6 -1 7q0 4 -3 10t-3 7t-1 3t-1.5 4t-1.5 2v8q-2 1 -2 4l-4 9q-1 0 -3 7.5t-7 7.5q-3 0 -6 -3l-22 -21q0 -1 -2.5 -4t-3.5 -5
l-14 -16l-9 -14q-7 -7 -10 -16q0 -2 -1 -4l-6 -11q-1 -2 -2.5 -5.5t-2.5 -6t-2.5 -6t-1.5 -6.5z" />
    <glyph glyph-name="nine" unicode="9" horiz-adv-x="309" 
d="M-6 -146q0 22 16 27l52 51l15 22l24 29q4 16 23 33v8q2 1 7 6.5l10 11t6 6.5l14 17l4 3q3 3 9 3q1 1 1 6q0 17 18 41q2 2 6 5t6 5q3 3 4 6.5t1.5 8.5t1.5 8q2 7 11.5 19t9.5 19l-37 3q-4 -4 -13 -4q-3 0 -12 2l-9 2l-2 -1l-2 -1q-17 0 -53 19q-1 0 -1 1l-2 1l-1 1h-2
q-5 2 -5 10q-17 25 -18 31q0 2 2 7l2 4q0 4 -3 13t-3 15l20 46l26 23q9 0 13 7t8 9q23 17 43 23q1 1 7.5 1.5t7.5 0.5q6 1 13.5 3t13.5 3t15 1q45 0 54 -11q2 -5 2 -6t10 -7q11 -8 16 -31v-19q0 -16 -9 -46l-3 -3l-2 -14l-4 -7l-4 -7q-1 -3 -7.5 -8.5t-7.5 -7.5q-1 0 -2 -3
t-2 -6.5t-1 -4.5t-1.5 -4t-1.5 -6q0 -1 1 -4t1 -5q0 -4 -9 -8.5t-11 -6.5l-1 -6q-3 -3 -3 -4q-17 -27 -24 -36q-2 -2 -2.5 -6t-2.5 -6q0 -4 -7 -14q-8 -11 -8 -12t-12 -16l-16 -30l-14 -17q-1 0 -4 -6q0 -7 -8 -15q-1 -2 -8 -6.5t-7 -9.5v-7q0 -1 -1 -2l-1 -2l-10 -9
q-6 -8 -16 -25t-16 -25l-12 -14l-12 -18l-11 -11q0 -1 -1 -4t-1 -4q-13 -13 -14 -16q-2 -2 -7 -10.5t-8 -12t-9.5 -7.5t-13.5 -4q-5 0 -10.5 5t-5.5 10zM116 262q7 -23 16 -30q24 -24 60 -24h13l11 1q24 0 32 8q23 32 36 57q5 14 5 15l4 9q4 8 4 10v16q2 2 2 5t-2 13
q-15 38 -38 44q-1 0 -3 1t-3 1h-26q-6 0 -9 -2q-31 -10 -51 -23.5t-43 -43.5l1 -12q0 -4 -5 -9q-4 -32 -4 -36z" />
    <glyph glyph-name="colon" unicode=":" horiz-adv-x="149" 
d="M96 54q10 0 14 -9l4 -8q0 -5 -4 -19t-19 -14h-4q-16 1 -16 24q0 8 8 17t17 9zM114 178q5 0 12 -2l6 -1q6 0 6 -14l-9 -30l-12 -3l-3 3l-11 4q-7 1 -7 23q0 20 18 20z" />
    <glyph glyph-name="semicolon" unicode=";" horiz-adv-x="202" 
d="M88 44q16 0 16 -30q0 -13 -7.5 -31.5t-12.5 -20.5l-8 -14l-18 -19q-13 -11 -15 -11q-1 0 -1 4l8 8q8 17 9 19q7 2 7 12l2 4l4.5 9t3.5 8l6 22l-3 3l-10 -3q-7 4 -7 17q0 10 9 16.5t17 6.5zM115 179q5 0 11 -2l7 -2q2 0 4.5 -5t2.5 -10l-11 -29l-12 -4l-2 4l-12 3
q-7 1 -7 25q0 20 19 20z" />
    <glyph glyph-name="less" unicode="&#x3c;" horiz-adv-x="314" 
d="M174 234l59 43l11 -9l3 -8q-25 -19 -40 -30l-87 -65h-15v-11q0 -3 -2 -9l-12 -4q-11 -6 -11 -13q0 -6 19 -29t33 -32q8 -4 25.5 -17.5t30.5 -23.5t12 -9l28 -17l16 -9v-14q-8 -6 -11 -6q-11 0 -22 9q-15 15 -30 25q-12 6 -57 41q-64 51 -66 54l-12 12l-3 7q0 6 3 12
q3 4 33.5 29.5t43.5 34.5q21 16 29 27z" />
    <glyph glyph-name="equal" unicode="=" horiz-adv-x="331" 
d="M132 94l87 1q8 -1 19 -1q5 0 20.5 2.5t18.5 2.5q19 0 19 -10q0 -4 -3 -7.5t-7 -4.5l-3 -1h-18q-3 0 -8.5 2.5t-6.5 2.5q-2 0 -8.5 -2.5t-9.5 -2.5q-2 0 -9.5 2.5t-11.5 2.5l-13 -5q-32 1 -38 1l-27 -1l-10 1h-82q-7 0 -16.5 3.5t-9.5 8.5t18 5h8l22 1h32zM331 167
q0 -12 -19 -12l-56 2q-12 4 -16 4l-16 -4q-25 0 -25 -2q0 -1 -1.5 0t-4 2.5t-3.5 1.5l-12 -4h-49q-7 0 -13.5 2.5t-9.5 2.5q-4 0 -16 -2.5t-21 -2.5q-29 0 -29 12q0 3 6.5 6.5t10.5 3.5q2 0 25.5 -2t27.5 -2l39 5q5 0 13.5 -2.5t11.5 -2.5l20 4h38l15 1l13 -3q9 2 29 2
q42 0 42 -10z" />
    <glyph glyph-name="greater" unicode="&#x3e;" horiz-adv-x="305" 
d="M56 277l59 -43l21 -12q2 -3 26 -20q13 -9 45 -38t35 -33l4 -12l-4 -7q-10 -8 -12 -12l-66 -54q-36 -30 -56 -41q-19 -11 -31 -25q-11 -9 -21 -9l-12 6v14l16 9q2 1 5 3t9.5 6t10.5 6l4 2l6 5q47 37 61 45q13 9 32 32t19 29q0 3 -2.5 6.5t-4.5 5.5l-3 1q-9 3 -11 4
q-4 6 -4 9v11h-14q-72 53 -86 65l-40 30l2 8z" />
    <glyph glyph-name="question" unicode="?" horiz-adv-x="339" 
d="M268 406h11q5 1 8 1q2 0 14 -3t14 -3l27 -16q1 -2 1 -4l8 -7q4 -7 7 -11t3 -21q0 -2 -6 -17q-1 -2 -1.5 -6t-1.5 -7.5t-3 -4.5q-7 -5 -7 -12q0 -2 -5.5 -5.5t-5.5 -5.5q0 -3 -14.5 -15.5t-18.5 -15.5l-15 -15q-2 -2 -9.5 -10t-14 -14.5l-8.5 -8.5q-2 -1 -6.5 -4.5
t-6.5 -5.5q-1 -1 -4.5 -5t-7.5 -8t-6 -5t-5 -4.5l-6 -7t-4 -4.5q-9 -9 -20 -17q-3 -2 -6 -6.5t-4 -7.5l-1 -4q-4 -3 -11 -9q-6 -5 -12.5 -16.5t-6.5 -19.5q0 -6 1 -10.5t1 -5.5q0 -4 -13 -4q-3 0 -6 1.5t-6.5 7.5t-3.5 16q0 8 8.5 19t16.5 17l8 7l11 15q7 7 8 9t13 8l3 2
l3 3q2 3 5 6l3 2l4 2q3 3 8 7t7 5q9 5 9 13l17 15q7 6 12 13q2 3 16.5 18.5t20.5 22.5l23 31l2 1q2 1 4.5 2.5t3.5 3.5q2 4 2 6l-1 6q8 9 8 29q0 16 -18.5 30t-42.5 14q-15 0 -29 -2.5t-20 -5.5l-7 -3l-8 -5l-8 -3q-9 -6 -14 -10q-17 -14 -17 -29q0 -9 4.5 -14.5t8 -6.5
t6.5 -1l7 -2q0 -2 -0.5 -4.5t-5.5 -7t-14 -4.5q-11 0 -19 7.5t-10.5 14t-2.5 9.5l2 15q4 6 5 11l5 9q5 3 8 6q7 7 10 12q3 6 18 12q16 7 18 7h7q11 4 14 6l15 4q19 -2 24 -2zM124 24q9 0 15.5 -7.5t6.5 -14.5q0 -5 -4 -11t-6 -6l-7 2h-10q-13 8 -13 19q0 8 5.5 13t12.5 5z
" />
    <glyph glyph-name="at" unicode="@" horiz-adv-x="479" 
d="M419 60q-12 -13 -49 -36q-17 -12 -40 -12q-7 0 -13 1.5t-9 3.5l-2 2q-10 5 -13 8q-5 5 -5 14l1 23l-5 9v5q-1 6 -7 6q-1 0 -15 -11q-11 -7 -23 -19q-1 -1 -3.5 -1.5t-5.5 -2.5t-7 -6q-3 -4 -18 -16l-7 -6q-8 -7 -12 -7q-6 0 -11 7t-5 13l2 19v10l1 6q0 1 5 7.5t6 9.5
q2 11 5 14l8 12q4 6 18 18q22 16 23 17l10 7q6 1 16 9q15 11 24 11q3 0 6.5 -1.5t5.5 -3.5l2 -2v-11l-6 -5h-5q-2 7 -15 7q-16 0 -34 -27q-5 -5 -16 -20.5t-13 -17.5l-8 -9v-11q-3 -1 -3 -9l4 -11h11l2 4h10q13 8 26 19q6 4 28 29q5 6 6 13.5t2 8.5q12 12 15 18q9 23 15 23
q3 0 3 -10q0 -15 -2 -21q0 -2 -6.5 -23t-6.5 -28l1 -33q3 -1 4 -3q0 -6 7 -13t22 -7q26 0 44 16q10 7 21 21q5 6 8 13.5t4 9.5l8 16q3 17 5 23q5 15 5 46q0 13 -5 33l-3 7q-4 8 -5 13q-2 7 -17 22l-16 24h-5q-7 7 -15 12q-3 1 -14.5 7t-20.5 10t-11 4q-7 0 -27 2.5t-37 2.5
q-7 0 -18 -4t-18 -8l-8 -4h-9q-13 -4 -50 -35l-6 -2q-9 -6 -16 -13q-11 -15 -26 -38q-13 -21 -14 -28q-1 -5 -4.5 -11.5t-6.5 -10.5l-3 -4v-5l4 -8q-8 -18 -8 -44q0 -19 8 -33v-17q9 -27 60 -82h4l13 -14h8q16 -16 67 -16q45 0 84 11q1 0 3 1l17 6q4 1 6 5q2 5 17 7
q3 1 7.5 7t6.5 6q7 0 7 -4t-7 -4q-2 0 -5 -3l-3 -3l-11 -10q-2 0 -27 -14q-48 -26 -105 -26q-51 0 -93 23l-26 21l-4 2q-1 -1 -4 3t-6 9t-2 5h-8l-9 14v12q-17 15 -20 28l-5 28l-6 6q-2 8 -2 40q0 7 0.5 12t1.5 8v2q0 1 -1 4.5t-1 5.5q0 5 10 30l4 16q16 21 19 25l4 14
q31 32 46 41l3 6q4 5 14 10q3 1 28 17q14 10 35 14.5t22 5.5l10 4l5 -1q18 2 44 2q38 0 67 -10t40 -19l5 -6q1 -4 13 -9q3 -1 10 -8t13 -14l5 -6q0 -5 1 -11q16 -24 16 -60q0 -48 -12 -74q-2 -14 -27 -45z" />
    <glyph glyph-name="A" unicode="A" horiz-adv-x="520" 
d="M479 599q-36 0 -99 -38q-29 -17 -56 -40t-31 -30l-48 -68q0 -3 -10 -15q-4 -2 -18.5 -19.5t-21.5 -29.5l-12 -25l-8 -6l-2 -10q-12 -13 -17 -21q-3 -3 -5 -10.5t-3 -13.5l-1 -6l-5 -3q-8 -20 -10 -26q-6 -23 -12 -28q-4 -4 -10.5 -16t-7.5 -18q-1 -5 -4.5 -17t-4.5 -14
q-3 -3 -6.5 -19.5t-5.5 -18.5q-4 -7 -7 -28q-2 -26 -2 -60q0 -16 11 -29t30 -13q11 0 25 7.5t22 15.5l9 7q8 1 13 4q2 1 11 9.5t11 10.5q2 9 17 17q6 1 12 17l12 13q15 21 19 25q3 2 19.5 22.5t17.5 21.5t7.5 9t7.5 12q4 11 29 49t32 41q1 0 3 5.5t5.5 13.5t4.5 11l34 53
q1 6 14 33t17 33l16 18l-2 4l-37 -26l-7 -2q-5 -6 -7 -6l-2 -1q-2 -1 -5.5 -2t-8 -2t-9.5 -2t-10 -1q-37 0 -48 9l-13 42q0 38 22 65l22 19l10 4q4 0 4 -4q0 -7 -7 -7q-1 0 -4.5 -3t-8.5 -7.5t-8 -8.5q-1 -3 -3 -8.5t-3.5 -13.5t-1.5 -20q0 -18 11.5 -32t31.5 -14
q37 0 51 17l13 7l3 6q15 10 18 15l14 17l19 34q11 40 11 55q0 19 -10.5 29.5t-26.5 10.5zM409 -18q-19 0 -33 7.5t-18 13.5t-6 12q-7 11 -10 27l-3 25l-7 25l3 8l4 29q6 21 6 26q0 9 -3 9q-1 0 -9 -8l-3 -6q-2 -5 -6.5 -11t-9.5 -9q-1 -1 -26 -33q-4 -7 -13 -18t-17 -19
l-7 -7l-5 -4q-11 -12 -36 -30q-28 -26 -57 -37q-4 -3 -21 -11.5t-21 -9.5q-12 -7 -37 -7q-15 0 -29 13t-14 46q0 23 3.5 47.5t6.5 37.5l3 13l14 41q1 2 5.5 19.5t5.5 21.5q11 22 16 26q2 2 11 29t10 29q15 30 31 41q15 28 19 31q1 0 3.5 4t5.5 9.5t5 8.5q28 44 29 45
q8 6 8 12q0 1 1.5 3.5t6 6t9.5 6.5q4 3 13.5 16.5t16.5 25.5l7 13h6l17 12q9 12 13 15q4 1 16 10q20 20 26 24l58 37h13q8 5 11 6l22 8l23 3q21 4 49 4q22 0 33 -17q6 -11 6 -45q0 -3 -2.5 -7t-5.5 -7l-2 -2q0 -7 -2 -13l-9 -24q-5 -7 -6 -10q-14 -14 -15 -19l-16 -18l3 -3
q6 1 9 1q4 0 4 -14q0 -7 -9 -28.5t-19 -36.5l-31 -51l-2 -4l-6 -2q-30 -48 -32 -54l-9 -34q-16 -19 -16 -40q0 -18 -8 -37q-1 -9 -1 -54q0 -10 -0.5 -22t-0.5 -14v-4l4 -17l1 -11q13 -26 34 -26t41 13l5 3q29 18 37 29l43 34q2 2 5 2t3 -3q0 -5 -8 -13l-15 -15l-5 -1l-3 -4
l-30 -29q-28 -20 -30 -21q-4 -2 -11.5 -6t-12 -6t-12 -4t-15.5 -2z" />
    <glyph glyph-name="B" unicode="B" horiz-adv-x="548" 
d="M213 477q26 0 26 -27q0 -25 -21 -46q-6 -7 -17.5 -11.5t-16.5 -4.5h-20l-1 -17q0 -14 12 -14q6 0 12 3l1 1q3 0 3 -4q0 -10 -20 -10q-9 0 -14 7t-5 14l-1 7l1 15q-5 1 -13 6q-8 6 -18.5 21.5t-13.5 26.5q-5 14 -5 33v6l-4 23q5 10 8 13q4 2 5 17q0 7 5.5 16.5t11.5 15.5
l5 6l2 8q5 4 16 16q22 20 29 21q2 1 13.5 7.5t18.5 8.5q43 23 132 23q55 0 94.5 -14t53 -26.5t18.5 -23.5q13 -13 16 -13q5 0 24 -46q11 -61 11 -80q0 -27 -12 -48l-26 -46q-8 -13 -18.5 -23.5t-24.5 -22t-21 -18.5q-9 -6 -22 -12t-22 -9l-9 -3l4 -8q15 -2 20 -4l18 -20h6
q13 -16 14 -19q1 -1 8 -10.5t7 -10.5t4 -5t4 -7q0 -6 -3 -9q-2 -6 -2 -15q0 -2 3.5 -12.5t3.5 -13.5q7 -3 7 -20q0 -6 -2.5 -17.5t-6.5 -26t-5 -20.5q-3 -6 -10 -16t-13.5 -19t-7.5 -10q-20 -20 -26 -25l-23 -10l-8 -9q-30 -16 -70 -16q-29 0 -43 14.5t-14 36.5q1 21 12 33
t20 15q1 0 3 1q12 12 30 12q10 0 16.5 -9.5t6.5 -13.5q0 -12 -7 -12q-2 0 -6.5 4t-5.5 6q-6 6 -19 6q-9 0 -21 -11.5t-12 -20.5v-7q0 -38 37 -38q17 0 39.5 8.5t29.5 14.5q11 9 29 33q10 15 19 20l7 7l6 29l-4 5q8 27 8 31v16q0 14 -1 20l-3 40l-5 5q-3 8 -6 14q-3 9 -11 17
l-23 21v5l-2 5l-15 1l-15 7q-29 2 -37 2q-15 0 -15 10q0 2 3.5 8t7.5 6q17 0 19 -5l31 -3q15 3 36 15q35 20 62 56q4 6 8.5 16.5t9 22t5.5 13.5q12 24 14 59v6q0 34 -15 82q-3 11 -8.5 21t-12.5 17t-12 11t-12 8l-7 5l-17 10l-7 1l-9 8h-12q-20 6 -25 6l-16 7l-9 -3
q-8 2 -28 2q-34 0 -55 -6q-26 0 -41 -11q-2 -2 -25 -16q-8 -3 -26.5 -15.5t-20.5 -16.5q-7 -11 -26 -29q-17 -34 -18 -63v-11q0 -36 11 -51q4 -8 9.5 -14t9.5 -7l3 -2q4 13 7 23q2 7 14 27q17 23 39 23zM209 460q-16 0 -29 -26q-13 -21 -13 -27l-2 -6q14 -3 19 -3
q14 0 26 18q10 18 10 30q0 8 -1.5 11t-9.5 3zM431 506q9 -7 9 -9q0 -1 -13 -14q-8 -2 -45 -48q-9 -11 -31.5 -45t-24.5 -40l-23 -43l-23 -61l-23 -39l-2 -17q-10 -15 -13 -20q0 -3 -11 -26.5t-11 -27.5l-14 -33l-14 -18l-7 -23q-9 -3 -10 -5l-3 -11q-18 -15 -20 -21l-38 -39
l-14 -8l-12 -9q-35 -12 -40 -16q-3 -6 -46 -6q-14 0 -24.5 10t-10.5 26q0 13 4 21.5t7 11t6 2.5q8 0 8 -9q0 -4 -4.5 -7.5t-4.5 -8.5v-4q3 -26 37 -26q27 0 54 27q4 4 21.5 24.5t19.5 22.5q1 3 6 10.5t10 13.5t6 6l14 14v6q14 24 16 31q11 18 25 31q6 6 16 28t12 29l5 35
q10 17 12 23l17 21q13 17 21 49q2 4 7 16.5t9 23t6 12.5q5 12 12 18q4 2 25 36q3 4 13 15.5t22.5 25.5t13.5 15z" />
    <glyph glyph-name="C" unicode="C" horiz-adv-x="491" 
d="M456 585q35 0 52.5 -16.5t17.5 -41.5q0 -4 -3.5 -7.5t-3.5 -4.5q0 -2 -2.5 -9t-2.5 -11l4 -10v-12q0 -4 -16 -20q-6 -20 -37 -34l-12 -11q-17 -14 -47 -14q-26 0 -41.5 10.5t-15.5 30.5q0 17 12.5 30t20.5 13q4 0 8 -3t4 -7q0 -3 -10.5 -10.5t-10.5 -18.5q0 -31 33 -31
q14 0 23 2.5t12.5 5t9.5 8.5l9 9q13 21 14 23l13 16v13q7 22 7 47q0 33 -58 39q-29 0 -63 -18q-14 -5 -39 -23t-27 -19l-36 -30l-5 -1q-16 -20 -21 -22l-33 -38q-6 -2 -6 -4q-18 -23 -35 -62q-5 -10 -19 -24q-6 -2 -20 -21q-8 -32 -8 -34q0 -9 -7 -26q-3 -3 -6 -12.5
t-5 -16.5l-1 -8l1 -7l-19 -58q-2 -9 -2 -63q0 -29 5 -33q2 -1 3 -5.5t2.5 -11.5t3.5 -13l19 -35l1 -7q8 -5 22 -19t32 -21t57 -10q12 0 22.5 1.5t19.5 6t13.5 6.5t12.5 8l9 6l8 5q3 2 9.5 5.5t11.5 6.5t6 4q5 1 13 8t11 14q5 7 16 17t14 11q2 2 4 11q1 1 7 13t7 13
q3 5 11 25.5t8 32.5q-3 32 -13 42.5t-38 11.5q-16 0 -34 -7t-24 -13q-16 -10 -21 -10q-8 0 -8 -9q0 -1 -2 -4t-4.5 -7t-4.5 -7q-3 -2 -9 -14t-7 -13v-20q21 -15 21 -21q0 -3 -4 -7.5t-6 -4.5l-1 1q-1 1 -3 2.5t-4.5 3.5t-6.5 6t-8 7l-1 21q-4 4 -4 17t6.5 27.5t10.5 17.5
q4 0 11 16q16 20 32 20q2 0 5.5 2.5t5.5 5.5l2 3h9l3 6q34 9 50 9q20 0 43 -21q9 -5 14.5 -20t5.5 -21v-33l-2 -30q0 -12 -12 -20q-3 -1 -5.5 -5t-3.5 -7l-1 -3v-8l-13 -18q-20 -26 -29 -31q-10 -3 -10 -10q0 -2 -7 -7t-13 -6q-16 -7 -16 -11q0 -1 -5.5 -4t-12.5 -6t-10 -3
q-4 0 -20 -12q-2 -1 -12 -4t-27.5 -6t-31.5 -3q-54 0 -86 25q-8 4 -9 5q-12 12 -12 15q0 2 -13 6q-4 2 -10.5 16t-9.5 15l-5 13l-9 9q-10 19 -12 31q0 4 -3 18.5t-5.5 32.5t-2.5 34q0 18 7 45t16 52t10 30q7 17 25 50.5t28 43.5l25 20l-5 6q2 2 7 12.5t11 14.5l39 39v7
q5 9 12 13l42 37h6l25 21q5 8 26.5 18t32.5 12q40 20 42 20q1 0 12 2t26.5 4t27.5 2z" />
    <glyph glyph-name="D" unicode="D" horiz-adv-x="735" 
d="M61 33q-38 0 -65.5 -13.5t-27.5 -36.5q0 -37 28 -53q28 -14 62 -14q29 0 61.5 8t46.5 17q9 4 20.5 11.5t21 14t10.5 7.5l26 22q-30 14 -39 14q-17 0 -27 3l-23 11h-16q-19 5 -24 5h-15q-14 4 -39 4zM279 332q-12 0 -25.5 -9.5t-19.5 -18.5t-9.5 -18.5t-4.5 -14.5l-1 -5
q9 -6 21 -6q25 0 41 24q12 14 12 34q0 14 -14 14zM419 551q90 0 155 -43q9 -5 19.5 -14t17 -14.5t8.5 -5.5t7 -6.5t10 -13.5l4 -6v-9q0 -1 12 -15l13 -8q11 -21 16 -38q2 -7 3.5 -11t2 -5.5t1.5 -5.5t4 -11l8 -13q5 -41 5 -55l1 -56l-5 -25q0 -15 -1 -23l-6 -17l-5 -7v-4
l3 -5q-3 -6 -4 -10q-1 0 -7.5 -13l-16 -32t-14.5 -28q-19 -34 -82 -73l-58 -21l-6 3l-52 -8h-41l-7 5q-34 6 -38 6q-8 0 -27 8l-33 6l-33 7l-9 -10l-9 -2q-13 -8 -27 -17q-17 -14 -75 -40q-8 -4 -42 -12t-44 -8q-16 0 -44 4l-27 12h-6l-10 12h-5q-8 9 -11 13l-4 3
q-3 3 -6 7.5t-6 14.5t-3 24q0 18 9.5 31t19.5 18l9 4l8 -1q13 10 16 11q3 7 49 7q56 0 84 -13q6 -4 22 -4q3 0 12.5 -6.5t11.5 -6.5q1 0 2 0.5t2 1.5t3 2q12 0 13 -2q3 -2 21 -2l34 -15q31 32 39 40l21 33l9 6v7q9 12 12 17q2 7 8 11q4 3 8 11l4 8q2 11 16 16q4 0 4 4l-3 7
l18 45q13 33 19 43l21 32l-1 8l18 25q1 2 6.5 13.5t10.5 23.5t6 13q0 2 8.5 19.5t9.5 22.5q1 6 9 18.5t12 12.5q7 0 7 -8l-1 -15l-6 -6q-1 -8 -1 -12q0 -2 -6.5 -17.5t-8.5 -18.5l-30 -76q-7 -12 -7 -25q0 -3 -2.5 -5.5t-5.5 -3.5l-3 -1l-2 -10q-26 -49 -31 -60
q-11 -24 -22 -41q-3 -8 -9 -14l-13 -11l-5 -19q-1 -3 -8 -12.5t-9 -13.5l-16 -22v-7l-43 -43l10 -4q12 -9 17 -9h8q8 0 26 -8q27 -10 46 -10l11 -2q11 -2 29.5 -3.5t36.5 -1.5q67 0 128 56q14 16 29.5 47.5t20.5 46.5l11 53l2 5v62q7 7 7 15l-11 29q2 16 2 20
q0 6 -10.5 32.5t-10.5 30.5l-4 16q-19 17 -23 22q-2 2 -3.5 6t-1.5 7l-1 3l-12 4q-7 13 -12 17q-1 1 -7 8t-11.5 12.5t-8.5 6.5q-8 4 -11 10q-4 10 -57 23q-12 5 -19 6q-18 9 -76 9q-23 0 -91 -15q-11 -3 -43.5 -20.5t-49.5 -35.5q-42 -45 -42 -106q0 -18 3 -28t10 -19
t8 -11q4 -6 7.5 -9t5.5 -4h2q2 7 9 25q10 26 20 33l10 13l7 2q12 4 13 5q6 3 23 3q19 0 19 -35q0 -10 -2 -18t-4 -12l-3 -3l-13 -19q-2 -5 -17.5 -10t-26.5 -5l-29 3v-21l6 -14h5q2 -4 6 -4q15 0 16 3q1 0 3 2q1 1 3 1q4 0 4 -6q0 -2 -1.5 -4.5t-8.5 -5.5t-17 -3
q-11 0 -17 9t-7 18l-1 9l1 20q-13 6 -18 12l-8 9q-8 10 -13 17q-13 15 -13 63q0 39 15.5 66t44.5 56q14 12 31.5 22.5t21.5 10.5q12 0 29 14q9 7 24 7l12 4q12 4 35 8t51 4z" />
    <glyph glyph-name="E" unicode="E" horiz-adv-x="488" 
d="M43 125l19 37q4 10 13 22t13 14q2 2 9 5t9 4q2 0 8.5 4.5t17 11t19.5 10.5q35 13 37 13l24 8v4l-11 7l-7 9l-6 2l-16 17v5l-14 20q-4 2 -4 17v10q0 1 -3.5 10t-3.5 23q1 13 8 27t13 21l7 7l-3 6q16 24 19 25q8 15 17 23q12 10 45 23l33 15q4 3 10 5t10 2h4l9 5q5 1 10 1
l23 2l7 -4l9 1q13 6 26 6q9 0 28 -10l22 -17q4 -9 4 -12q0 -1 6.5 -6.5t6.5 -12.5q0 -2 -6 -26l-5 -15l-22 -30h-7l-4 -3l-7 -1q-3 -5 -20 -5q-19 1 -32 10.5t-13 27.5q0 31 11 31q9 0 9 -8q0 -2 -3 -6t-3 -14q0 -13 6.5 -17t22.5 -6q13 0 26 14t13 34t-15 35t-44 16h-11
q-42 0 -80 -17q-30 -18 -37 -29q-15 -11 -19 -13l-26 -46l-9 -39l6 -7q-4 -20 -5 -24l-3 -13l4 -3l3 -7l8 -4q1 -2 4.5 -11t7 -15.5t9.5 -12.5q19 -19 29 -19h37q18 0 18 -10q0 -3 -3.5 -8t-7 -8.5t-4.5 -3.5q-7 0 -11 4q-2 7 -26 7q-32 0 -44 -3q-16 -2 -44 -20
q-37 -28 -52 -49q-15 -13 -20 -16q-10 -5 -23 -63l-4 -55q4 -8 7 -20q1 -10 9.5 -26t20.5 -26q2 -2 12 -10.5t16.5 -12t22.5 -7.5t38 -4q45 0 86 15l5 1q34 15 50 35q22 20 27 20q1 0 9 13l22 15l2 9q22 33 25 42l5 40q3 4 3 8l-7 9v11q-1 6 -9 13.5t-19 7.5q-29 0 -51 -20
q-9 -7 -24 -33l-3 -1q-10 -15 -10 -28q0 -10 -7 -10q-5 0 -5 13q1 21 39 70q34 34 72 34q26 0 33 -26q0 -2 8 -10t8 -15q-5 -32 -7 -33q-5 -28 -7 -30l-15 -38q-7 -4 -10 -4l-21 -39l-4.5 -9t-7.5 -12t-9 -6q-6 0 -10.5 -2t-6.5 -4l-1 -2l-2 -5q-33 -14 -39 -21
q-6 -8 -20 -8q-4 0 -11.5 -6t-9.5 -6q-24 -6 -65 -6l-17 3l-29 2q-17 0 -33 12q-5 1 -11 4t-10 6l-4 3h-7q-24 24 -28 33q-17 23 -25 28l-5 19q-6 18 -6 41t13 47z" />
    <glyph glyph-name="F" unicode="F" horiz-adv-x="421" 
d="M618 523q-6 0 -23 -4.5t-22 -8.5q-3 -3 -13.5 -11t-14.5 -12l-18 -15q20 -7 50 -7h9q22 2 43.5 15.5t21.5 24.5q0 18 -33 18zM155 304v5q8 4 10 4q11 0 19 -8t8 -21q0 -19 -14.5 -33t-36.5 -14q-15 0 -23.5 2t-13 5t-7.5 3q-6 2 -31 27q-7 7 -13.5 26.5t-6.5 25.5l3 53
l16 29l1 13l13 10l3 6q9 15 17 27q8 13 32 13l12 -2l12 16h14q4 4 12 8t14 6l6 2l24 3q33 8 48 10h14q14 0 30 -4.5t22 -4.5q7 0 11 3q12 0 108 -24l48 -13q14 14 24 21q14 12 34 25q4 3 15.5 6.5t20.5 4.5l10 2h40l16 -13q13 -7 13 -16q0 -22 -20 -30q-7 -3 -16 -8.5
t-17 -8.5t-21 -4q-13 -2 -36 -2q-15 0 -30 1.5t-20 1.5q-20 -29 -22 -36q-15 -25 -19 -26q-10 -7 -13 -20q-1 -5 -21 -45q-11 -11 -11 -14q0 -4 -7.5 -18.5t-12.5 -20.5q-11 -13 -11 -30q0 -9 -11 -20l-5 -16q13 -3 16 -3l18 2h16q11 4 15 4q3 0 10 3t11 4q6 3 13 14.5
t10 11.5t3 -6q0 -22 -23 -35l-7 -2l-4 -4l-35 -8l-51 -4v-8l-23 -48l-6 -4q-3 -5 -7 -14q-2 -5 -9 -10.5t-7 -6.5q-2 -3 -2 -23v-17l-8 -4q-29 -49 -33 -51q-1 -2 -9.5 -16t-10.5 -17q-3 -5 -26.5 -30.5t-42.5 -41.5q-58 -47 -112 -47q-15 0 -26.5 8t-15.5 16l-4 9l-5 13
l-2 20q4 6 4 8t4.5 9t4.5 11q0 5 15 15t29 10q4 0 12 -3.5t8 -4.5q0 -3 -4.5 -4.5t-12.5 -4t-14 -5.5q-13 -10 -18 -23l-4 -39q19 -19 30 -19q31 0 55 18q18 15 30 21q13 18 16 19l33 26q1 5 1 11q0 5 9 14q1 1 6 7.5t12 16.5t13 21l18 40l8 4q12 23 12 33q0 6 8 17
q6 7 6 26l20 46h-34q-56 0 -56 -34q-1 -2 -2 -13.5t-3 -20t-6 -8.5q-5 0 -11.5 20t-6.5 37q0 9 12.5 19t25.5 15l13 5q22 5 27 5q3 0 8 1.5t9 3.5l3 1l32 -3l41 69q14 17 35 59l3 5q8 18 15 23q3 3 15.5 24t13.5 23l29 45l-25 8q-2 1 -21.5 3.5t-22.5 3.5l-13 6l-23 -1
l-14 9q-21 4 -61 4q-31 0 -92 -11q-14 -3 -30 -8.5t-25 -9.5l-9 -5l-16 -13l-22 -4l-3 -8l-8 -11l-5 -1l-1 -7q-16 -19 -17 -22q-1 -2 -2 -6.5t-2.5 -9t-3.5 -6.5q-5 -9 -5 -24q0 -42 3 -45l5 -12q5 -11 13 -16q22 -18 48 -18q10 0 21.5 5.5t11.5 15.5q0 25 -19 25z" />
    <glyph glyph-name="G" unicode="G" horiz-adv-x="518" 
d="M369 -75l-20 -42q-2 -6 -15 -35t-14 -33q-1 -3 -3.5 -9.5t-4 -10.5t-3.5 -6q-19 -48 -26 -60q-1 -1 -8.5 -15t-15 -28.5t-9.5 -19.5q-3 -11 -11 -16q-1 0 -3 -3t-4 -7t-2 -7l-21 -45l-8 -1q-11 -19 -13 -25q-1 -2 -27 -28q-10 -6 -10 -13q0 -2 -3 -6t-7.5 -8t-5.5 -5
l-20 -9q-12 -13 -18 -18l-24 -16l-1 -5q-14 -12 -23 -12q-2 0 -10 -8q-2 -2 -16.5 -6.5t-23.5 -4.5q-7 0 -15 5t-13 10l-5 5v20q0 14 14 50t24 42l7 24l16 9q10 6 10 29q0 2 7 11.5t8 11.5l8 12q8 13 12 15q10 12 13 19l25 32l6 2q4 8 7.5 13t9 12t12.5 17q8 10 45 47
q6 5 15 14l15 15t9 6l9 7h4l16 17l30 26l11 4q4 7 6 10l8 4l7 4q6 6 8 6l12 8q14 26 15 32q3 5 11 31q4 19 18 47q2 4 9 18.5t7 15.5q12 24 12 34q0 8 5 16l8 26q-1 0 -20 -22t-21 -24q-6 -11 -15 -13l-7 -10l-9 -10q-6 -6 -7 -9l-33 -36l-8 -1q-10 -9 -16 -16
q-2 -3 -10 -9.5t-19 -14.5t-14 -10l-56 -37l-15 -1q-23 -19 -60 -19q-28 0 -45 25.5t-17 65.5q0 23 2.5 45t6 37t3.5 16l8 28l10 38q14 14 15 18l1 14q20 38 27 47l17 20q1 5 1 8l17 22l2 11q31 26 35 29q3 0 11.5 9t20 21t12.5 13q3 4 16.5 15t25.5 20l12 8h5l27 21l37 20
q4 4 46 19q3 1 11.5 4.5t17 6.5t14.5 4l33 4q20 4 36 4q36 -1 49 -23.5t13 -49.5q0 -10 -3.5 -21.5t-6.5 -18.5l-3 -6v-8q-7 -18 -12 -26q-2 -4 -8 -9.5t-11 -9.5l-5 -4l-2 -9l-14 -13q-2 -3 -34 -24q-26 -17 -61 -17l-12 7l-7 1q-8 4 -15 16q-7 10 -7 35q0 3 9 14t14 11
q14 0 14 -8q0 -9 -4 -17q-5 -5 -5 -21q0 -21 21 -21q5 0 12 2t11 4l5 2l5 1q21 15 40 32q8 7 13 14t7 10l1 4l4 1l5 7l2 15q9 16 11 18l4 18q7 9 7 27q0 47 -50 47q-30 0 -98 -26q-24 -7 -26 -16q-7 -9 -27 -17l-6 -2l-28 -19h-9q-11 -12 -15 -14l-14 -13l-8 -1l-15 -13
q-2 -3 -10.5 -13t-9.5 -11q-4 -13 -14 -20q-10 -6 -16 -22q-5 -11 -39 -47q-18 -17 -26 -50l-30 -68q0 -3 -3.5 -10l-7.5 -15l-5 -10q-5 -8 -5 -20q0 -10 -5 -23v-27l-3 -5v-50l1 -4v-13q0 -3 9 -13.5t15 -10.5q9 0 16 2t9 4l3 1h13l12 9h8q8 6 13 8q2 0 11.5 7t16.5 10
q16 5 20 16q0 2 3.5 4.5t8.5 5t6 3.5l21 17l3 7l26 26q3 3 16.5 13t16.5 11l8 9q0 1 8.5 9t18 16.5t11.5 10.5l18 17q2 6 4 8q24 24 31 41l16 26l8 8l-1 7l8 9l5 8q13 16 24 25q10 9 26 9q8 0 8 -9q0 -8 -8 -13q-2 -2 -12 -9.5t-12 -9.5l-18 -20q-17 -34 -21 -44
q-3 -11 -19 -33q-9 -18 -9 -30q0 -14 -11 -33l-10 -18v-11q-13 -39 -16 -42l-13 -41l-4 -18l-2 -3l3 -1q19 12 21 14q13 13 28 21q3 2 33 27l29 28q4 2 13 10.5t12 8.5q7 0 7 -5q-7 -10 -23 -21l-25 -26q-4 -3 -15 -12.5t-20 -17t-14 -11.5l-25 -19q-8 -7 -31 -22zM309 -137
l12 31l-9 -6h-9q-24 -24 -32 -29q-19 -11 -44 -36q-41 -37 -49 -51q-7 -16 -22 -21q-3 -1 -5 -11q-12 -18 -23 -29q-2 -3 -12 -17.5t-19 -27.5t-11 -14q-6 -6 -20 -27q-4 -10 -18 -37t-17 -28q-11 -2 -14 -18q-2 -20 -7 -30l-6 -16q-5 -10 -5 -33q0 -2 9 -11t11 -9l18 11h9
q18 9 31 26l38 45q1 0 13.5 17t15.5 18q15 12 17 20q1 4 6 11t5 8q2 2 6 16q1 2 4 5.5t6.5 7.5t5.5 6q0 6 8 18.5t9 18.5l3 21q16 22 21 31q18 24 20 34q3 15 13 27q3 3 19 38q1 8 11 20.5t11 20.5z" />
    <glyph glyph-name="H" unicode="H" horiz-adv-x="604" 
d="M141 416q-12 -4 -15 -8q-9 -7 -13 -7q-13 0 -14 -7q-1 -1 -4.5 -8.5t-5.5 -9.5q-1 -1 -7 -5t-6 -6l-2 -13l-6 -9l-1 -24l7 -10l1 -7q7 -16 24 -16q22 0 30 16q19 27 19 33l3 28q0 29 -2 33zM-29 -19q8 0 8 -8q0 -1 -3 -4t-3 -14q0 -32 33 -36q31 0 37 3q12 8 20 10l25 8
q17 15 20 17l17 10q5 1 15 15.5t9 18.5h9q4 16 8 22q1 8 9 16q1 1 5 9.5t7 11.5q2 3 6 6.5t7 5.5l4 2l16 26q-1 12 -1 19q1 6 13 18l22 38q-27 3 -39 3q-25 0 -41 -7q-7 -3 -10.5 -10.5t-12.5 -7.5q-11 0 -11 12q1 23 54 23l45 -3l25 3l35 63q3 8 18.5 36.5t18.5 31.5
q1 0 4.5 7t7 15.5t5.5 10.5q1 2 4 13q15 23 15 35l12 27l12 19q-27 0 -32 -1h-7q-8 0 -25 1h-16h-30q-32 0 -36 -4q-9 -3 -29 -3q-6 0 -26 -5q-15 -5 -22 -5l-15 -7q4 -9 7 -14q1 -6 1 -39q0 -26 -12 -59q-5 -15 -22.5 -26t-36.5 -11q-26 1 -42 33l-1 1v2l-2 6q-3 11 -3 37
l3 16l5 4q1 4 1 9l20 12q7 13 9 20q1 3 27 16l4 1q4 1 8.5 2t7.5 1l6 2q-5 7 -9 10l-13 14q-11 8 -11 9q0 4 10 4q6 0 18 -12l16 -21l17 8l8 2q13 3 21 5l24 1l5 4q21 -1 33 -1q7 0 15.5 0.5t10.5 0.5q1 0 12 -0.5t19 -0.5l24 1l2 -4v-1q4 1 17 1q30 0 51 7q2 1 7 7t12 11
q6 8 19 14t17 6q7 0 7 -8q0 -5 -8 -14.5t-8 -10.5q-4 -5 -29 -15q-3 0 -11.5 -9t-9.5 -12q-15 -30 -15 -38q0 -10 -10 -18q-4 -6 -4 -25l-15 -27l-4 -3q-7 -18 -10 -26q-18 -49 -26 -59q-9 -18 -9 -24l-10 -24l50 -4l58 -5l6 -4q55 1 65 3l36 4l1 6q19 37 24 46q12 16 12 21
q0 6 17 30l18 31l2 8q0 2 12 19q12 25 18 26q4 3 9.5 13t6.5 15q11 22 24 37l18 21v4q7 8 9 13q4 3 16 16.5t15 19.5q1 3 8 9.5t14 11.5l7 6q10 14 14 14q11 0 11 -4q0 -11 -12 -16q-15 -10 -20 -17l-75 -118q-4 -5 -14 -26.5t-12 -26.5q-10 -10 -11 -13q0 -1 -3.5 -5.5
t-3.5 -8.5t-3 -10.5t-8.5 -15t-7.5 -11.5l-12 -22l-4 -3q-20 -36 -23 -43l-4 -25h44q22 -1 22 -12q-2 -2 -15 -2l-27 1q-24 0 -29 -1q-2 -1 -5.5 -10.5t-7 -20.5t-4.5 -13l-3 -21q-4 -5 -5 -11l-1 -14q-14 -25 -14 -33q0 -5 1.5 -10.5t2.5 -7.5l2 -3q-6 -27 -6 -31v-21
q0 -41 3 -62l7 -22l-2 -16l4 -5l3 -10l5 -5q2 -12 10 -26q15 -21 36 -21q24 0 30 8q2 2 2 14l-2 8v4q0 8 15 8q4 0 6 -0.5t3.5 -3.5t1.5 -9q-1 -27 -21 -35q-1 0 -10 -4t-15 -4q-5 0 -10 1l-5 1h-4q-4 1 -9 1.5t-8 0.5q-5 0 -11.5 7t-8.5 11l-6 2q-8 12 -12 16l-20 42
q-6 15 -13 55.5t-7 58.5l11 63l14 28v7l-4 6v17q0 3 4 15.5t6 15.5l6 29h-6l-4 -4q-23 -2 -29 -2q-44 0 -53 -1q-19 1 -40 4h-49l-21 9h-17l-7 -16q-3 -14 -23 -43l-10 -25q-4 -8 -7 -11q-3 -1 -7.5 -5.5t-4.5 -7.5q0 -1 -14 -17q0 -1 -11 -18.5t-12 -25.5q-2 -6 -5.5 -11
t-6.5 -7l-2 -3l-6 -1q-19 -16 -30 -27q-7 -8 -28 -21t-32 -17l-33 -12q-20 -1 -25 -1l-29 -4l-21 11l-7 1l-6 10q-11 7 -11 33q0 7 3.5 13t6.5 8.5t5 2.5z" />
    <glyph glyph-name="I" unicode="I" horiz-adv-x="301" 
d="M497 533q8 0 15 -7q6 -6 11 -6q9 0 9 -23q0 -9 -9 -16t-19 -9l-9 -2l-13 -7h-18q-27 -8 -37 -8q-14 0 -32 -6l-20 -2q-13 -13 -17 -18l-21 -28v-7l-5 -4l-14 -21l-29 -50v-8q-8 -20 -8 -22q0 -12 -5 -16q-4 -1 -4 -17q0 -7 -6 -13l-8 -19l-6 -22q14 0 29 4q11 4 19 11
t8 12q0 1 -2 3.5t-2 6.5q0 5 4 8.5t9 3.5q17 -4 17 -22q-1 -7 -4.5 -12t-7 -7.5t-11 -6t-9.5 -5.5l-1 -3q-6 -3 -19.5 -5t-24.5 -2l-11 -1l-12 -31l-4 -3q-12 -27 -12 -32q0 -3 -9 -20.5t-9 -20.5q0 -8 -6 -13q-9 -18 -9 -21q0 -6 -17 -40q-1 -4 -8 -16t-7 -15
q0 -12 -24 -33.5t-27 -26.5l-21 -14q-9 -6 -13 -6l-7 -5l-5 2q-18 -11 -48 -11q-22 1 -30 13.5t-8 23.5q0 8 6 20l7 10l9 3q8 10 16 10q15 0 15 -14q0 -11 -14 -11q-6 0 -11.5 -6.5t-5.5 -16.5q0 -18 16 -18q13 0 34.5 15t36.5 30l15 16l4 8l4 4l10 13q20 22 58 102l11 20
l5 31q4 11 4 14q0 2 4 11t4 10l12 23q-13 6 -17 6q-13 0 -16 6l-12 8l-12 -1q-2 3 -2 5q0 4 -7 4q-1 0 -13 20l-3 33q-1 5 -1 7q-7 14 -7 23q0 4 4 11.5t4 8.5q4 4 16 28q2 5 15.5 15.5t18.5 12.5q4 1 8 5l3 2q3 1 7 3.5t9 4.5l1 7q8 8 20 13q10 0 26 8q4 1 31.5 10.5
t30.5 10.5l29 7q11 12 15 17q27 27 36 30q0 1 26 16q30 15 40 15q5 0 17 2.5t20 2.5zM297 376l33 54q-2 0 -14 -3t-14 -4q-4 0 -19.5 -6t-18.5 -8q-1 -2 -14 -8.5t-16 -10.5q-4 -3 -9.5 -5.5t-6.5 -3.5l-24 -20q-4 0 -8 -5q-6 -6 -16.5 -23.5t-10.5 -26.5v-17l-5 -6l1 -7
q0 -13 2 -19v-4q6 -23 24 -37q9 -6 17 -9.5t12 -4.5h3q6 9 6 10q0 2 4.5 13t7.5 12l8 10v9q7 9 8 17q1 3 7.5 21t9.5 23q4 4 17.5 30.5t15.5 28.5zM467 516q-13 0 -23 -7l-10 -8l-5 -1q-18 -12 -22 -17l-23 -21l4 -2q19 3 29 7q6 1 20 5t17 4q4 0 17.5 3t15.5 3
q4 0 11.5 4.5t7.5 10.5q0 7 -12 11q-8 8 -27 8z" />
    <glyph glyph-name="J" unicode="J" horiz-adv-x="405" 
d="M194 -126l13 32l-12 -12h-9q-5 -5 -17 -14t-17 -14q-24 -18 -39 -33q-41 -36 -45 -43q-7 -14 -21 -19q-2 -1 -5 -11q-14 -21 -21 -27q-2 -2 -18.5 -28t-19.5 -27q-1 -1 -19 -25q-3 -9 -15.5 -34t-16.5 -27q-9 -2 -12 -16q-2 -22 -5 -28l-6 -15q0 -1 -1.5 -14.5
t-1.5 -15.5t7.5 -8t9.5 -6l24 6h9q16 8 29 23l35 42q1 0 13 15.5t15 16.5q15 12 16 18q1 4 6 10t5 8q4 3 6 15l15 18q0 5 7 16.5t8 16.5q2 5 2 20q15 20 20 28q19 30 19 32q0 13 11 24q3 3 5.5 9.5t5 15t3.5 10.5q1 7 8.5 20.5t8.5 20.5zM191 279l-17 24h-7l-3 -12
q-12 -8 -12 -13q0 -8 -7 -22l-12 -27q-8 -9 -8 -13q0 -10 -5 -13q-7 -9 -7 -24l-1 -12q0 -66 22 -66q7 0 21.5 10t18.5 15l13 25l3 12q2 2 6 12.5t4 16.5v27q3 5 3 13q0 10 -3 17q-2 20 -9 30zM622 559l-41 -6l-23 -12h-6l-29 -20v-4q42 4 46 5l24 8h14q9 7 17 7
q4 0 9.5 3.5t5.5 9.5q0 9 -17 9zM269 -30l-4 -16q14 7 26 17.5t18 13.5q10 6 33 25l36 30q4 2 13 10.5t12 8.5q7 0 7 -5q-7 -10 -23 -21l-32 -29q-31 -26 -45 -36l-52 -37l-16 -48q-1 -5 -14 -29t-13 -27q-2 -3 -4 -9t-3.5 -10t-2.5 -5q-17 -44 -25 -55q-1 -3 -14.5 -27.5
t-15.5 -30.5q-1 -6 -10 -15q-8 0 -8 -16l-19 -41l-8 -1q-10 -18 -12 -23t-24 -24q-2 -2 -3 -2q-3 -1 -6 -6t-3 -6q0 -2 -15 -17l-20 -9q-11 -12 -17 -16l-16 -12l-7 -7q-14 -12 -23 -12q-3 0 -10 -7q-2 -2 -16.5 -6t-23.5 -4q-7 0 -15.5 4.5t-13.5 9.5l-5 4l-2 19
q0 13 12 45.5t22 38.5l4 23l16 8q9 4 9 24v4q0 1 6 9.5t7 11.5q3 2 25.5 34.5t28.5 37.5l6 2q1 2 25 39q12 15 44 44q32 27 36 28l9 7h4l14 15l28 25l11 4q5 7 8 9q4 2 29 20q13 37 14 44q3 17 12 33q1 2 3.5 12.5t5.5 20t5 13.5t5 19t4 17q9 9 11 21l7 18q-2 8 -2 11t20 39
q9 20 9 33q0 15 10 27q13 19 15 37q1 3 5.5 11.5t10 19t7.5 13.5q0 7 8 22t9 22q1 8 24 45l22 32l2 6l19 20l20 21l-1 4q-32 -5 -53 -10l-46 -16h-12q-41 -25 -44 -27q-13 -7 -21 -12q-27 -19 -62 -54l-43 -52l-2 -6q6 -5 8 -5q4 0 4 -8l6 -8v-5l9 -13l1 -12l4 -5
q1 -3 1 -10l-1 -30q0 -5 0.5 -20t0.5 -16q0 -2 -3 -9.5t-3 -10.5q-6 -16 -8 -31q-2 -11 -14.5 -26.5t-13.5 -18.5q-3 -6 -13.5 -13.5t-15.5 -7.5q-9 0 -14 9q-3 8 -15 12q-5 4 -8 17l-4 16q-1 0 -3 5t-2 8l-4 29v23l8 5q0 1 -2.5 11.5t-2.5 13.5q0 6 14 29l9 25l21 25l2 7
l6 10v4l-19 2q-10 0 -28 -3q-15 -7 -31 -17q-8 -8 -13 -8q-2 0 -2 5q1 2 5 6t4 5q5 5 13.5 9t12.5 7q1 0 16.5 4.5t20.5 4.5l32 -2q9 12 13 15q1 1 8 17q2 4 21 27l33 27q4 4 19 13t18 11l3 1q11 4 29 18l22 10l6 5l35 7l4 4q4 1 31.5 6.5t41.5 10.5q5 2 23.5 4t21.5 3l9 12
l24 14q31 20 33 20l19 8l28 6q21 8 36 8q11 0 21 -5t10 -14q0 -6 -2 -11t-4 -7l-1 -2h-7l-4 -7l-13 -6q-6 -4 -23 -4q-5 0 -18.5 -4t-15.5 -6l-32 -1q-8 -5 -10 -5h-21l-15 -3q-14 -13 -18 -18q-2 -3 -14 -18t-14 -17q-4 -4 -21 -34t-19 -36q-1 -2 -13.5 -29.5t-17.5 -33.5
q-10 -15 -10 -33q0 -11 -11 -26q-4 -7 -9.5 -26.5t-5.5 -24.5q0 -8 -7 -15l-9 -32q-2 -9 -13 -43.5t-16 -42.5q-3 -5 -6 -12.5t-5.5 -14.5t-2.5 -8q-1 -3 -4.5 -17t-5.5 -19q-3 -14 -6 -21z" />
    <glyph glyph-name="K" unicode="K" horiz-adv-x="634" 
d="M338 554h6q7 -1 11 -1l32 1l23 24q23 23 34 23q4 0 6 -2t2 -12q0 -9 -17.5 -24.5t-28.5 -20.5q-9 -4 -16.5 -15t-7.5 -14l-5 -10q-9 -15 -10 -24l-27 -54v-9q-7 -15 -13 -21q-2 -3 -9 -25.5t-8 -24.5q-5 -8 -13 -33q-3 -3 -13.5 -23.5t-10.5 -22.5t-2.5 -6.5t-5.5 -10
t-4 -8.5q-12 -18 -12 -34t-16 -64l-28 -50l-2 -14q-12 -27 -16 -32l-25 -36q-2 -5 -19 -21q-6 -16 -14 -18l-5 -4q-6 -5 -7 -7q-13 -13 -17 -14l-30 -21q-13 0 -17 -3l-10 -6h-8l-5 3q-13 0 -22 8q-14 10 -14 52q0 9 7 20t13 18l7 7h4q4 6 10 6q7 0 7 -5t-4 -9l-3 -1
q-3 -1 -5.5 -4t-5.5 -8q-11 -11 -11 -37q0 -13 9 -21t17 -8q9 0 20 4.5t14 8.5q5 3 17 13.5t15 15.5l10 14l11 9q16 19 37.5 76.5t32.5 75.5q7 10 15 37q1 2 2 10t2.5 21t4.5 23q10 33 29 57q12 14 21 42q4 13 12.5 31.5t11.5 20.5q6 6 11 16l20 37h5q3 7 4 9q6 2 6 13
q0 3 14 31l21 37q-4 4 -21 4q-4 0 -11 -0.5t-9 -0.5q-1 0 -9.5 1t-11.5 1l-15 4l-22 1q-9 6 -13 6l-27 13q-10 0 -14 1l-2 2l-7.5 2.5l-10.5 3.5t-15 3.5t-19 1.5q-53 0 -90 -26q-28 -21 -40 -34q-17 -21 -17 -50q0 -35 27 -51q2 -4 17 -4q9 0 25 11q6 4 6 13q0 2 5 6.5
t9 4.5q10 0 10 -20q0 -11 -9 -18.5t-17 -9.5t-12 -2q-3 0 -9 -3t-8 -3q-3 0 -29 10q-9 5 -12 15l-12 18q-1 2 -1.5 10t-2.5 9l-5 7l2 5v8q0 2 -2 7l-2 5l4 11l2 15q0 8 17 25q23 23 28 29q7 8 33 19t32 11l24 1q1 0 22 1.5t27 1.5q16 0 28 -9l15 -3q9 -8 11 -8q1 0 4.5 -1
t5.5 -1l13 -7h10q7 -6 10 -8l21 -8q9 -1 12 -1t18 -5zM528 -13q-17 0 -36 10t-25 18l-7 13l-2 9q-5 9 -8 15l-6 26q-2 5 -3 11.5t-2 8.5q-4 4 -4 14l4 20l-6 3q-9 13 -9 33l-6 12l-2 16q-2 8 -5 15q-2 2 -2 12q0 11 -12 28l-7 5q-5 4 -6 7q-1 2 -10 6t-13 4q-5 0 -24.5 -4
t-20.5 -4q-17 6 -17 14q0 11 29 11l6 -3h8q11 6 19 10q3 4 7.5 7t7.5 4l3 2l2 6l56 42q4 3 29.5 26t28.5 24l46 47q2 2 8 14t7 16q0 1 4 4.5t9 7t6 4.5q3 2 12 14.5t12 15.5q2 2 5 5.5t4.5 5.5t5 4.5t6.5 3.5t7.5 2t10.5 1q6 -1 6 -7q0 -3 -5 -13q-8 -11 -28 -25l-35 -46
q-6 -2 -19 -19l-10 -10t-16.5 -16t-7.5 -8q-13 -22 -40 -38q-23 -15 -26 -19q-5 -10 -66 -47q-2 -2 -6.5 -5.5t-7.5 -6.5t-3 -4q0 -4 23 -7l21 -6q18 -22 23 -28q11 -9 11 -34q0 -21 5 -29l6 -22q0 -6 3 -18q1 -4 1.5 -12t1.5 -14.5t3 -10.5q2 -8 2 -17q0 -11 2 -17l4 -17
l6 -6l11 -15q5 -9 20 -17.5t27 -8.5q13 0 26 8q14 7 32 19q3 2 10 8.5t12.5 10.5t7.5 4q7 0 7 -5q-5 -6 -23 -22l-27 -22q-13 -6 -22 -13q-22 -11 -39 -11z" />
    <glyph glyph-name="L" unicode="L" horiz-adv-x="465" 
d="M626 608q4 0 9.5 -7.5t5.5 -18.5l-8 -36l-3 -21l-4 -9v-15q0 -12 -25 -68q-6 -14 -16.5 -28t-18.5 -21l-8 -7v-6q-10 -11 -15 -14q-8 -2 -8 -9l-5 -5q-5 -5 -12 -11t-9 -8l-25 -10q-13 -11 -16 -16l-45 -17q-12 -27 -18 -39l-22 -29v-17q-1 -6 -5 -10q-2 -3 -2 -16
q0 -2 -4 -9.5t-9 -16.5t-6 -12q-20 -40 -20 -48q0 -2 -14 -30q-11 -15 -25 -46q-4 -8 -15 -20t-19 -20l-9 -7l6 -9h6l20 -16q16 -6 19 -13q1 -4 17 -11q28 -18 34 -19q12 -6 15 -6q2 0 17 -5q1 -1 11 -3t11 -2t6.5 -2t13 -4t13.5 -2q44 0 57 7l24 11l5 2q5 10 8 14q4 6 4 24
q0 13 6 13t6 -12q0 -33 -17 -55q-10 -13 -27.5 -21.5t-29.5 -9.5l-12 -2h-46l-6 3h-11q-28 6 -36 10l-36 16h-6q-3 4 -11 14q-14 19 -24 19q-8 0 -26 14q-5 10 -16 14q-1 0 -6.5 4t-10 8t-4.5 3q-11 -9 -16 -10q-1 0 -12 -5.5t-27 -10.5t-31 -5q-40 0 -63 14l-20 17h-7
l-18 15q-5 0 -7 1l-6 4v4l-5 6q-4 0 -9.5 4t-6.5 7l-23 25l-2 4q-3 4 -6 9t-6 11.5t-5 14.5t-2 14q0 19 14 27.5t23 8.5q13 0 16 -1q4 -2 14 -2q9 0 19 -4q5 -1 26 -8q5 -1 23 -9.5t22 -11.5q3 -3 9 -5.5t7 -3.5q3 -1 22 -15.5t22 -18.5q1 -3 10 -8.5t9 -6.5q4 -8 19 -14
l16 -11q6 5 8 8q1 2 7.5 8.5l7.5 7.5t9.5 16t10.5 20q5 14 17 31l24 52l2 6q11 13 15 16l11 15v17q0 3 5 13t5 12l10 25v4l5 3l13 29v4q-20 -12 -64 -12q-31 0 -47 14.5t-16 32.5q0 9 3.5 20t7.5 17l3 7l17 16q10 10 13 10q2 0 4.5 2t4.5 4l3 2q5 0 5 -4q0 -2 -21 -20
q-9 -6 -14.5 -20t-5.5 -21q0 -18 10 -31q11 -15 42 -15q19 0 50 11q8 2 12.5 5.5t4.5 5.5l1 3l8 10v9q16 16 20 22l17 37q6 1 7 4l16 33q6 16 16 24q18 22 23 38q0 1 23 29q9 21 17 27l25 27v7q34 46 63 46zM608 566q-20 0 -44 -28l-16 -18l-6 -14q-7 -8 -19 -27.5
t-15 -28.5l-6 -3l-1 -7l-22 -46l-4 -4v-9q-11 -7 -11 -12q0 -13 -5 -16l-24 -46q0 -1 3 -1q10 0 31 16q51 35 54 45q1 1 8.5 10.5t10.5 11.5q14 11 14 17q0 3 12 15q10 7 35 60q0 1 0.5 2t0.5 2q17 54 17 62q0 11 -2 15t-11 4zM30 81q-17 0 -28 -9t-11 -21q0 -19 16 -46
l17 -27l12 -10v-5l11 -7h9q11 -9 13 -11q6 -3 14 -3l15 -4q16 -3 25 -3q22 0 43 7.5t32 15.5l10 7q-13 15 -20 20q-20 13 -22 17q-12 15 -17 19q-5 2 -10 6t-8.5 7.5t-6.5 7.5l-3 4q-9 2 -15 8q-11 11 -23 13q-4 0 -8 2t-7 4t-4 2q-3 6 -34 6z" />
    <glyph glyph-name="M" unicode="M" horiz-adv-x="756" 
d="M680 -15l-18 -8l-13 -9q-30 -27 -33 -31t-13 -9.5t-16 -5.5q-10 0 -10 6q0 2 3.5 6t7.5 8l4 3l27 20q8 9 13 19q3 5 7.5 22.5t4.5 20.5l5 40v42l4 41l7 55v20q6 13 6 17t5 13t6 14q0 2 0.5 7t1 8.5t1.5 4.5l6 18v9q11 23 13 25t5 8.5t5.5 14t3.5 8.5l4 8q4 7 7 9t5.5 6
t4.5 7l2 4l7 19l8 10q1 5 1 7t9 12q4 3 18.5 18.5t17.5 18.5l5 4q5 4 10 7l5 4q0 7 -7 7q-4 0 -14.5 -9t-12.5 -12q-23 -23 -26 -25q-5 -3 -13 -15q-1 -3 -7.5 -8.5t-8.5 -5.5q-1 0 -5.5 -6t-11 -14t-9.5 -11q-6 -7 -24.5 -32t-21.5 -30l-37 -48q-3 -4 -3 -8l-12 -12
q-8 -15 -8 -16q0 -3 -35 -56l-8 -23q-5 -7 -8 -11q-5 -4 -5 -16q0 -6 -10 -23l-19 -36l-3 -9q-11 -23 -15 -28q-1 -2 -4.5 -12.5l-6.5 -19.5t-4 -10q-10 -10 -10 -20q0 -5 -5 -17t-11 -22l-5 -10l-21 -30l-4 -11q-6 -3 -9 -3q-7 0 -7 10q0 3 8 22.5t8 22.5l5 18
q3 3 8.5 26.5t6.5 32.5l9 36l-2 15l6 12l5 26q2 25 2 34q0 12 9 42l4 31q3 13 4 22q6 51 7 54l2 28l-1 4l-5 -1q-23 -40 -24 -44l-3 -12l-9 -6q-10 -6 -12 -23q0 -3 -7 -12.5t-14 -17.5l-7 -8v-5q-15 -19 -26 -41q-15 -30 -25 -40q-7 -7 -7 -12l-14 -18l-4 -9
q-13 -12 -25 -27q-7 -9 -34.5 -34t-33.5 -29q-2 -1 -6 -5.5t-7 -5.5l-16 -12q-19 -13 -26 -18l-36 -16l-8 -3q-25 -6 -33 -7l-31 -6l-8 4q-9 -4 -21 -4q-9 0 -23.5 12t-24.5 27q-13 18 -13 58q0 15 13 33q10 15 17 38q4 9 19 24t21 19l26 24l6 2l11 13q30 17 61 17
q21 0 32.5 -14.5t13.5 -25t2 -17.5l-4 -8l-7 -8l3 -6q-8 -14 -16 -23q-25 -22 -55 -22q-28 0 -28 25q0 7 4 14.5t10 7.5q12 0 12 -6l-12 -16q0 -16 11 -16q6 0 15 3t15 7l6 3l2 9l11 14l2 10l3 6l1 26q-4 21 -27 21q-15 0 -36.5 -11t-29.5 -17q-4 -1 -12.5 -8t-9.5 -8
q-5 -5 -20 -23t-16 -21l-14 -20q-10 -21 -10 -53q0 -28 17.5 -52.5t49.5 -24.5q21 0 40.5 6t28.5 11.5t9 6.5t2 1.5l4 1t3 0.5q2 1 15.5 11t16.5 11t12 9l9 8q14 14 50 44q15 13 31.5 36t18.5 30l19 20l1 5q1 1 8 11.5t9 12.5q1 1 3 4t3 5q0 1 0.5 1.5t2.5 3t4.5 5.5t7 9.5
t10 14t15 19.5t19.5 26q1 7 3 10l9 13l16 26l1 12l7 7q3 2 6.5 9.5t7.5 17t5 11.5q8 6 12 14q0 1 2.5 6.5l5 11t5.5 9.5l18 28l1 6q5 12 8 17l20 40l23 34l2 7l37 45q19 16 25 16t6 -4q0 -8 -8 -16q0 -1 -3.5 -5t-7.5 -8l-3 -4q0 -8 -11 -19q-15 -25 -29 -53
q-2 -3 -5.5 -13.5t-6.5 -16.5l-6 -26l-5 -4q-8 -14 -10 -18q0 -1 -2 -3.5t-3 -4.5t-1 -3t-2 -13t-2 -15q0 -2 -4 -22t-4 -24l-3 -28q-5 -17 -5 -21l-1 -25l-6 -17q-1 -14 -1 -19q0 -11 -7 -46v-42l3 -2l33 64q1 3 10 16t10 14l1 15q9 7 9 11q0 2 9 14.5t11 13.5q4 7 28 41.5
t25 35.5q7 14 20 25q3 2 7.5 9.5t5.5 7.5q4 5 20 26t24 29q3 2 10 12t8 11q33 33 46 45q17 16 40 16q17 0 17 -20q0 -4 -7.5 -13t-16 -17t-9.5 -10q-17 -17 -18 -24q-1 -3 -24 -38l-2 -10q-11 -16 -14 -24q-21 -47 -26 -65q-4 -7 -4 -20l-11 -27l-3 -28l-6 -16
q-3 -11 -3 -30q0 -5 -3.5 -48.5t-4.5 -46.5l-2 -31l-3 -9q-1 -4 -1 -20q0 -4 -3 -11t-6 -12l-3 -5v-9q8 6 18 6q4 0 7.5 -4t3.5 -8q0 -6 -4 -6q-2 0 -4 1.5t-5 1.5z" />
    <glyph glyph-name="N" unicode="N" horiz-adv-x="460" 
d="M284 78q2 7 4 22t5 21q4 5 8 16.5t7 16.5q20 32 29 50q3 6 14 22.5t16 26.5l36 86l10 15q13 26 13 38q0 10 -12 10q-19 0 -49 -24.5t-40 -28.5q-1 -1 -4 -6t-4 -6q-5 -3 -13 -10.5t-12 -11.5l-21 -19q-26 -21 -31 -28q-3 -4 -9 -12.5t-9.5 -14t-10 -11.5t-13.5 -10
q-12 -21 -26 -38q-2 -3 -4.5 -8.5t-3.5 -7.5q-4 -5 -16.5 -15.5t-16.5 -17.5l-19 -28q-4 -8 -13.5 -21t-13.5 -21q-4 -6 -12.5 -17.5t-9.5 -13.5q-7 -11 -16 -33t-20 -36.5t-30 -22.5q-7 0 -12 5.5t-5 13.5q0 5 7 13.5t8 10.5q13 26 39.5 68t35.5 58q2 3 7 15t8 16
q3 6 11.5 14.5t11.5 13.5l20 32q1 2 1 4q0 7 1 9q1 3 4.5 8t3.5 6q6 10 15.5 30.5t14.5 30.5l19 28q0 8 3.5 14.5t8 13.5t7.5 13q8 17 12 34q4 4 4 7q12 21 14 32q3 18 5 22q1 3 5 9t5 10q1 2 2.5 12t5.5 14q0 15 6 29q0 4 -0.5 13.5t-0.5 14.5l1 4q1 4 1 5v5q0 33 -10 50
l-5 5q-12 12 -14 13l-7 2q-7 1 -8 1q-18 0 -32 -3q-17 -11 -37 -11q-17 -8 -19 -12q-16 -8 -31 -20.5t-23.5 -21.5t-24.5 -28l-5 -5q-2 -3 -4.5 -9.5t-3.5 -9.5q-2 -4 -7 -10t-7 -10q-9 -24 -9 -56q0 -25 7 -33.5t24 -12.5h10q23 0 33 9l4 4t5.5 5t5.5 2l13 13q1 5 7 14
t8 13l3 9q3 10 6 16.5t5 6.5q7 0 7 -8q0 -9 -4.5 -28t-9.5 -24q-1 -1 -29 -23q-34 -27 -75 -27q-22 0 -44 22q0 4 -4 18t-4 27q4 7 8.5 32t7.5 33l4 2q2 2 3 6t2 6q39 62 111 101q2 1 6.5 5t7.5 5q6 1 39 13t54 12q32 0 51 -28q14 -18 15 -24q0 -1 2.5 -12.5t4.5 -15.5
q0 -14 -2 -22v-24q-4 -5 -7 -28q-5 -29 -29 -76q-5 -10 -10.5 -27.5t-10.5 -27.5l-7 -18q-12 -15 -23 -42q-4 -12 -16 -36q-23 -49 -24 -53l1 -4q5 1 19 15.5t29.5 32t19.5 21.5q9 6 24.5 22.5t25.5 23.5q10 5 25 19t22 19q3 2 6.5 7t5.5 7q8 5 21 9q3 1 30.5 16.5
t40.5 15.5t23 -8t10 -20q0 -13 -20.5 -38t-23.5 -42q-1 -3 -12 -19q-4 -5 -7 -16.5t-6 -16.5q-1 -3 -5.5 -6t-5.5 -6q-14 -28 -15 -31v-3l-1 -3v-7q0 -1 -3 -3l-3 -2q-3 -5 -5 -14.5t-4 -13.5q-23 -36 -23 -54q0 -2 0.5 -6.5t0.5 -5.5q0 -3 -3 -6t-3 -6q-1 -5 -3.5 -15
t-4 -17.5t-1.5 -12.5q0 -17 2 -26q5 -14 10 -15q7 -8 25 -8q14 0 26 7q6 3 12.5 7t17.5 10q7 4 19 14t21 18l8 8q2 3 5 3q5 0 5 -6q0 -5 -15 -17l-35 -31l-10 -10q-5 -4 -19 -13t-19 -14l-13 -6l-8 -2q-14 -4 -27 -4q-55 0 -55 91v5l3 4z" />
    <glyph glyph-name="O" unicode="O" horiz-adv-x="427" 
d="M324 534q112 0 112 -167q0 -69 -25 -136q-2 -7 -7.5 -27t-9 -30t-10 -24.5t-14.5 -24.5v-7q-12 -18 -15 -26q-1 -4 -25 -42q-4 -6 -15.5 -20t-23.5 -27.5t-13 -14.5q-2 -3 -24 -16.5t-27 -14.5l-30 -13h-18q-2 0 -16 -2.5t-17 -2.5t-7.5 1.5t-8 2.5t-3.5 2t-11 4t-14 3
q-2 0 -11.5 10t-12.5 15l-18 27l-2 9q0 4 -3 6q-6 8 -6 18l-2 19q-7 33 -7 60q0 4 1 6.5t3 3.5h1v10l4 21v25q0 2 3.5 10.5t3.5 9.5q1 1 6 22q7 18 23 36q6 6 10 11.5t5 8.5l1 3v16l12 13q0 7 1 8q5 10 26 36q34 41 52 51l34 31v28q0 10 10.5 25t16.5 19q15 8 18 10
q6 4 24 9t29 5zM328 521q-38 0 -56 -24q-21 -27 -21 -37l2 -8l10 7q19 12 20 12v-11l-25 -26q0 -8 4 -9l9 -12v-4q1 -7 8.5 -16t17.5 -13q24 -12 32 -12q10 0 22 5.5t12 15.5q0 12 -9 12q-12 0 -12 8q0 13 10 13q2 0 5 -0.5t4 -0.5q5 0 12.5 -6.5t7.5 -18.5q0 -9 -6 -16.5
t-12 -11.5l-6 -3q-25 -4 -35 -4q-6 0 -20 6t-16 6q-3 0 -10 5t-12 10l-6 5q-8 5 -9 8l-4 10l-7 3q-17 -16 -24 -25q-2 -3 -12 -14.5t-18 -22t-9 -12.5l-3 -10q-11 -4 -15 -14q-2 -3 -4 -8.5t-3 -9.5t-3 -5l-7 -12q-9 -12 -12 -17l-1 -14l-18 -31q-10 -20 -10 -27l2 -10
q-10 -13 -10 -32l-5 -14q-6 -6 -6 -12q0 -3 1 -9t1 -10l4 -62l-4 -9q3 -15 6 -21l13 -20v-7l10 -12l16 -13q5 -4 7 -4l4 -1q3 -1 9.5 -2t12.5 -1q46 0 71 20q45 34 64 60l3 3q30 45 39 63l26 67l6 3q16 54 16 59l3 22q14 37 16 65q7 49 7 54q0 44 -13 90q-9 32 -27 47
q-13 15 -43 15z" />
    <glyph glyph-name="P" unicode="P" horiz-adv-x="323" 
d="M320 279q-22 0 -31 -12q-7 -8 -7 -20t26 -12q6 0 13 1.5t13 3.5t11 4.5t8 3.5l3 2v2q-1 2 -3.5 6t-5.5 8q-16 13 -27 13zM382 505l-26 -28q-3 -3 -8 -8.5t-9 -9.5t-4 -6q-6 -15 -8 -18q-9 -12 -29 -48.5t-24 -48.5l-5 -5l-17 -41q-1 -4 -3 -8l-3.5 -7t-1.5 -5
q0 -3 -4 -10t-4 -8q-1 -2 -6 -7t-9.5 -11.5t-7.5 -13.5q-2 -8 -11.5 -28t-9.5 -22q-2 -9 -12 -21q-6 -18 -6 -19v-4q0 -5 -5 -17t-5 -14q-2 -17 -19 -45l-21 -39q0 -1 -3.5 -7t-8.5 -13.5t-6 -9.5q-3 -8 -18 -30q-12 -20 -28 -29l-8 -12q-12 -4 -17 -11q-7 -10 -21 -17
l-26 -16h-10q-6 -8 -22 -8q-34 0 -40 39q0 17 8.5 32.5t14.5 15.5t6 -9q0 -4 -5 -14l-4 -17q0 -25 19 -27h5q14 0 41 17q21 12 43.5 42t34.5 57l41 82q2 5 4 9t4 7.5t3 4.5q2 3 7 32q10 50 67 145l32 60l11 11q4 11 8 15l11 24l10 2q10 18 13 24l5.5 11t7 13.5t7 13.5
t8 14.5t8 11.5t9 10.5t9.5 7.5q6 4 20 17q17 13 33 13q5 0 5 -5q0 -1 -3.5 -3.5t-9 -5.5t-7.5 -5zM327 289q22 0 28 -9q2 -7 11 -12l8 -9q29 13 36 16q8 5 22 24q22 33 36 47q4 4 10.5 20.5t6.5 25.5q0 4 4 21.5t4 31.5q-1 38 -10 60q-3 6 -17.5 24.5t-17.5 21.5
q-21 21 -26 22q-2 1 -12 9t-13 10q-7 4 -32 11t-41 7q-26 0 -68 -8q-34 -7 -57 -20q-17 -9 -26 -18q-2 -2 -11 -8t-16.5 -12t-8.5 -12q-1 -2 -11.5 -12.5t-18 -22.5t-7.5 -23l-6 -4v-9q-2 -11 -2 -20q0 -21 8 -37l1 -4l13 -13q5 -8 13 -8l14 1q6 0 6 -5q0 -8 -17 -8
q-27 3 -42 20q-8 8 -11.5 12.5t-6 15.5t-2.5 29q0 30 14.5 57t25.5 38q3 2 10 9t12 11q22 16 37 25q9 3 17 12q16 10 48 15q58 14 90 14q53 0 79 -12q22 -9 33 -17l6 -10q7 -10 12 -13q6 -2 9 -2l7 1q15 -16 21 -23q4 -4 8 -13l4 -10l17 -20v-15l7 -8q1 -9 2 -13l6 -30
q0 -15 -7 -29q-1 -4 -1 -11v-13q-2 -3 -17.5 -35.5t-22.5 -39.5l-20 -23l-13 -8q-20 -19 -25 -19q-3 0 -13 -7.5t-12 -8.5l-25 -12q0 -33 -3 -42q-1 -4 -5.5 -9.5t-7.5 -5.5q-8 0 -8 7q0 2 4 2.5t4 1.5q3 3 3 22l-3 19q-18 -11 -26 -11l-15 4q-9 -4 -13 -4l-20 5
q-2 2 -9 4.5t-11.5 7t-4.5 12.5q0 13 19 27.5t46 14.5z" />
    <glyph glyph-name="Q" unicode="Q" horiz-adv-x="489" 
d="M135 -20l50 20l-3 2q-29 5 -46 5q-40 0 -54 -7l-9 -5l-3 -5l4 -4l1 -7q4 -6 15 -6q27 0 45 7zM436 588q9 0 22 -4t21 -8l8 -4l8 -11q5 0 19 -16l21 -38v-41q0 -5 3 -17.5t3 -15.5q0 -14 -5 -24q-5 -5 -5 -26q0 -16 -8 -28q-2 -4 -5.5 -21.5t-3.5 -24.5t-11.5 -28.5
t-17.5 -29.5q-4 -5 -8.5 -14.5t-5.5 -10.5q-6 -17 -23 -40q-25 -28 -33 -45l-27 -34l-9 -1l-16 -19q-30 -26 -45 -34l-16.5 -11t-19.5 -14l-10 -7l-21 -13l-3 -2l10 -6h9l6 -6q9 -10 23 -14q3 -1 12.5 -8t15.5 -9q4 -1 20 -13t27 -17q6 -3 16.5 -10.5t18.5 -10.5t19 -3
q5 0 29 8l23 19q6 0 6 -7q0 -11 -6 -15q-4 -6 -21 -15.5t-32 -9.5q-37 0 -75 20q-15 7 -39 25.5t-26 19.5q-22 14 -24 19q-12 7 -23 11.5t-17 5.5l-5 2q-24 -14 -62 -19q-15 -8 -17 -10q0 -1 -6.5 -1.5t-16 -1t-14.5 -1.5q-55 0 -55 27q0 19 24 29t40 10q51 0 66 -2l45 -8
q33 14 36 20q4 5 25 14q30 17 49 36l43 43q7 5 27.5 31.5t23.5 33.5q3 15 19 28q3 3 13.5 24.5t13.5 25.5t8 17t8.5 23t3.5 11l7 10l-5 6l7 24q9 22 9 61q-1 16 -2 31t-1.5 23.5t-0.5 11.5q-3 18 -12 27l-4 19h-5q-33 33 -81 33q-15 0 -40.5 -10t-44.5 -19.5t-20 -11.5
q-11 -11 -16 -11t-40 -33l-64 -68l-3 -8q-11 -5 -14 -9q-5 -2 -10.5 -11t-5.5 -13q0 -2 -7.5 -14t-17.5 -29.5t-15 -29.5q-7 -19 -14 -49.5t-7 -34.5q0 -2 -0.5 -15.5t-0.5 -21.5q0 -15 1 -19l12 -33v-8q1 -3 4 -7.5t17.5 -12t36.5 -7.5q45 0 78 20q13 7 17 7q1 0 13 8.5
t13 12.5q3 6 25 23q3 1 8.5 9.5t11 18.5t7.5 12l10 22q11 17 18 29q2 4 5 13.5t5.5 18t5 16.5t2.5 9v8t1 12t4 5q8 0 8 -23q0 -13 -5 -38t-8 -28q-12 -20 -12 -25q0 -4 -7 -16.5t-9 -13.5l-6 -5q-12 -15 -13 -23q-1 -5 -14 -16l-14 -11q-2 -3 -10 -9t-17 -13.5t-11 -8.5
l-39 -18q-26 -14 -80 -14q-13 0 -13 4q0 3 -26 7q-6 1 -30 25q-7 7 -13.5 28t-6.5 29q0 6 -0.5 20.5t-0.5 16.5q0 1 2 19t2 26q0 22 7 29q3 13 9 20q2 3 3.5 7.5t3.5 12t3 11.5q1 5 5 10.5t8 7.5l3 3v10q17 21 25 29q4 4 10.5 15t10.5 16q12 11 32 45q12 21 83 61l5 3
l17.5 10.5t21 13t10.5 7.5q4 7 47 17q14 4 27 4q19 0 21 3q12 3 31 3z" />
    <glyph glyph-name="R" unicode="R" horiz-adv-x="675" 
d="M577 -13q-1 0 -9 1.5t-11 1.5q-8 0 -13.5 -1t-6.5 -1q-3 0 -17 6.5t-16 6.5q-3 1 -13.5 14.5t-11.5 17.5l-1 16q-6 6 -7 9q-4 4 -4 17q0 2 -4 22q-3 4 -3 51l-2 12v38q-8 14 -12 18q-3 3 -15 3q-4 0 -21.5 4.5t-19.5 5.5t-4 2.5l-4 3t-3 1.5q-5 0 -12 -10q-2 -1 -7 -12.5
t-11.5 -25t-8.5 -17.5q-2 -3 -8.5 -15.5t-12 -23t-5.5 -12.5q-2 -10 -11 -19q-2 -2 -7 -11t-10 -18.5t-6 -10.5q-3 -2 -13.5 -18t-12.5 -21q-10 -15 -21 -24q-25 -22 -26 -29q0 -1 -14 -10.5t-18 -10.5q-1 0 -11 -7t-25 -13t-30 -6q-22 0 -33.5 13t-11.5 27q0 16 15 44
q7 11 16.5 17t13.5 6q6 0 6 -4q0 -1 -11 -12q-15 -24 -15 -40q0 -27 22 -27q4 0 14.5 3t11.5 5l5 2q6 3 12.5 6t13 8.5t9.5 10.5q3 8 7.5 14.5t7.5 9.5l3 3h8q5 6 5 12q0 2 5 10.5t13 19.5t10 14l37 55q9 15 10 15q3 2 10 14.5t9 14.5q3 4 17 33.5t15 30.5l12 22l3 16
q9 15 16 17q2 1 7 9t7 10l9 17v7l10 25q7 18 32 63q14 25 24 36l31 43l11 4l16 16q4 6 13 11t12 5q7 0 7 -7q0 -2 -1.5 -4t-4.5 -3l-2 -2l-7 -9q-12 -8 -13 -8q-2 0 -7 -9.5t-5 -10.5t-3.5 -5.5t-8 -9.5t-7.5 -7q-7 -8 -13 -24q-4 -18 -14 -28q-12 -10 -12 -17q0 -6 -8 -20
q-3 -5 -8 -19.5t-5 -17.5q0 -6 -9.5 -16.5t-9.5 -15.5l-12 -29l4 -7q6 -3 10 -3q15 0 22 -7l24 -12q45 7 96 30q31 14 54 40.5t27 39.5q17 34 17 36q0 12 6 21q3 6 3 45q0 21 -5.5 42t-11.5 32l-5 11l-7 2q-18 25 -51 46q-37 25 -81 25l-25 5l-5 6h-16l-7 -7q-30 -3 -42 -4
q-52 -5 -73 -13q-7 -3 -38 -14t-34 -13l-15 -11l-6 -2q-21 -12 -44 -41q-20 -25 -27 -41.5t-7 -44.5q0 -22 6 -52q1 -3 7.5 -11t6.5 -9l7 -11h6q10 -10 26 -10q8 0 18 4l10 5q5 0 5 -7q0 -6 -10.5 -12t-22.5 -6t-42 18q-18 11 -30 37l-15 33l-1 16l4 8q-2 3 -2 16
q0 10 13 38t24 39q11 13 76 57q45 31 85 35l24 4q23 9 46 9q6 0 35.5 2t40.5 2q35 0 63 -7q5 -1 11 -3.5t7 -2.5l10 -1l6 -6q19 -5 24 -6q2 -1 7 -5.5t10 -8.5l4 -5q1 0 13 -12l7 -2l5 -11h7l22 -24q4 -12 6 -15l11 -27q10 -30 10 -54q0 -15 -2 -20q-5 -2 -5 -22
q0 -10 -7 -24q-8 -25 -27 -49q-12 -15 -60 -55q-2 -3 -14 -8.5t-25 -11.5t-15 -7l-18 -7q-18 -7 -25 -9q-27 -7 -27 -11q0 -3 8 -19q3 -5 5 -25q1 -4 2.5 -16.5t3.5 -24.5q3 -28 20 -67q10 -26 27 -35q16 -7 21 -12q9 -3 31 -3q28 5 49 19q4 3 12 9.5t13.5 10.5t6.5 4
q6 0 6 -5q-6 -10 -47 -43q-14 -12 -19 -14q-17 -10 -34 -10z" />
    <glyph glyph-name="S" unicode="S" horiz-adv-x="422" 
d="M613 606q5 0 12.5 -7t7.5 -13l-8 -20v-7l-5 -6v-8l-7 -11l-13 -12q-8 -13 -12 -15l-15 -20l-2 -7l-38 -38q-1 0 -4 -4t-7 -9t-7 -7l-66 -58l-27 -21q-3 -9 -3 -15l-5 -21q0 -13 -2 -17q-5 -4 -5 -21l-8 -15v-14q-5 -8 -6 -11q-1 -1 -10 -12q-1 -7 -1 -39q0 -21 -5 -31
q-2 -2 -4 -26l-40 -88q-2 -3 -19.5 -25t-34.5 -43t-17 -23q-1 -3 -7 -7t-14 -9.5t-12 -9.5q-23 -13 -53 -23q-10 -10 -38 -10q-39 0 -63 12q-20 10 -33 25l-15 23q-3 6 -3 9l-4 8l-2 25l-3 7v47l4 6v19q9 14 12 16q0 3 4 12.5t4 12.5q0 13 20 29q13 15 25 19l29 21
q6 4 38 17q22 9 48 9q29 0 31 -4l2 -4q3 -3 6 -5q3 0 5 -2t4 -6t4 -6q7 -7 7 -57q0 -4 -0.5 -12t-0.5 -11q0 -2 -15 -22l-17 -24q-1 0 -8 -1l-32 -27l-21 -6h-5q-3 -5 -7 -5q-8 0 -8 6q0 4 7 4q3 0 15 4l26 25q4 2 10 9t10 13l5 6l7 3q5 3 5 21q0 7 3 12q1 1 3 14t2 16
q0 5 -3.5 20.5t-8.5 21.5q-14 8 -25 8l-17 -4l-9 3q-37 -17 -41 -20q-2 -2 -11 -9t-11 -8q-16 -10 -39 -40l-19 -33v-8q-6 -1 -9 -17q-5 -17 -5 -37q0 -6 -0.5 -20.5t-0.5 -15.5l2 -10l-1 -11l5 -6q3 -20 16 -33q21 -23 53 -23q37 0 53 4q29 12 64 42q34 30 57 80
q7 16 12.5 33t7.5 26l2 9l10 8v10l8 7l6 3q2 3 2 13q0 5 1.5 7.5t3.5 3.5t2 2l-5 7v7q0 1 2.5 7.5t2.5 8.5q2 2 2 19t9 40q2 6 9 24t8 22l9 21l2 15l-4 2q-27 -13 -31 -15q-2 -1 -19.5 -6.5t-20.5 -7.5q-15 -4 -16 -6q-1 -1 -4.5 -2l-10.5 -3t-12 -4q-7 -3 -31.5 -7
t-28.5 -4l-33 3q-7 6 -14 6l-23 9q-8 4 -18 17t-10 30q0 14 2 25.5t4 16.5l2 5l17 5l3 4q0 1 11 8q13 7 20 7l20 3l1 -3h7q13 0 13 -7q0 -2 -2 -3.5t-4 -1.5h-2h-18q-27 -1 -42 -26q-10 -14 -10 -35q0 -16 10 -18q1 0 3 -6t4 -6q1 0 3.5 -1t7 -3.5t9.5 -4.5q17 -8 41 -8
q14 0 24 2q14 4 24 4q2 0 8 1.5t10 1.5l37 12l7 5q1 1 6.5 2t7.5 2l32 19l16 10l16 7l17 57q8 20 17 31l25 35q0 1 4 7.5t4 10.5q0 2 3.5 6.5t9 11t8.5 10.5q21 25 30 25l8 10q6 9 14 11q2 1 6 7t8 9q2 1 11.5 4.5t12.5 3.5q6 0 22 13q9 7 20 7zM587 529q6 16 8 17l4 7v14
l-4 6h-4l-4 2q-7 -1 -12 -4l-15 -12h-6q-15 -12 -16 -14l-11 -12q-1 -1 -10.5 -9.5t-15.5 -16.5q-4 -7 -12 -18t-9 -14l-19 -33q-5 -18 -12 -21l-6 -12l2 -8l-5 -15l-8 -13q4 0 10.5 4.5t9.5 4.5q6 3 19 16.5t18 16.5q9 7 13 18q1 0 2.5 2t2.5 4t4 5t7 6q5 4 26.5 27
t23.5 26l9 13z" />
    <glyph glyph-name="T" unicode="T" horiz-adv-x="395" 
d="M581 555q-21 0 -38 -14q-5 -3 -15 -8t-14 -9q-10 -10 -12 -10t-6.5 -7.5t-5.5 -8.5l-6 -11q35 2 62 9q28 7 41 15l7 8l6 5v20q-11 11 -19 11zM592 572q16 0 26.5 -11t10.5 -28q0 -22 -36 -39q-25 -12 -57 -12q-18 0 -34 -7l-33 -4q-26 -50 -34 -62q-4 -4 -9 -15
t-10.5 -23.5t-7.5 -16.5q-26 -66 -34 -78q-4 -6 -9.5 -24.5t-8.5 -22.5q-4 -6 -7 -15.5t-4 -10.5q0 -17 -8 -25q-5 -3 -5 -12q0 -2 -7.5 -19t-11.5 -21q-17 -31 -20 -39q-1 -4 -8 -17t-7 -16q-5 -14 -6 -16q0 -2 -4 -5.5t-5 -7.5q-2 -4 -20 -28.5t-23 -30.5q-9 -10 -22 -12
q-8 -1 -13 -15q-1 -6 -43 -31q-7 -5 -28 -12t-29 -7q-9 0 -19.5 4t-12.5 7l-12 5q-21 20 -21 44q0 26 23 46q15 10 37 10q6 0 12.5 -4t6.5 -9q0 -10 -10 -10l-4 2q-4 2 -12 2q-10 0 -18 -12t-8 -27q0 -19 9 -27q12 -14 32 -14q15 0 38 14q7 5 19 16.5t14 12.5l8 16
q0 1 17.5 16.5t19.5 18.5q4 19 14 32l21 29q19 16 21 20q2 2 7.5 15.5t11.5 29.5t7 17l25 50q0 2 8.5 12t9.5 13t11.5 29t11.5 29q5 19 19 46q1 2 7.5 12t8.5 13q7 14 7 16q0 10 9 19q8 8 8 23q0 1 12 23l17 45h-84q-13 0 -52 -6l-45 -2l-8 -4q-16 0 -41 -5.5t-29 -9.5
l-29 -14h-8q-5 0 -13.5 -3t-9.5 -6l-2 -10q0 1 -7.5 -7.5t-15 -18t-7.5 -12.5q0 -1 -1 -16q-7 -18 -7 -24q0 -20 7 -33l18 -21v-5q16 -12 29 -12q5 0 32 9q5 2 9 10.5t4 12.5v8l-1 5q0 8 2 8q11 0 11 -33q0 -14 -16 -27t-28 -14q-8 0 -14 -3l-6 4q-14 0 -17 3l-12 11l-1 6
h-6q-14 16 -18 25l-9 19q0 19 -4 27q-1 4 -1 32q0 12 7 26t13 15l8 12l1 8q9 12 32 22.5t31 10.5q1 0 9 8q12 6 36 6q4 0 8 1.5t6 3.5l2 2l11 -1l6 1h37q7 3 11 4q1 1 33 1l93 -1l10 -4l4 4h33q5 7 6 8q2 1 5 7t4 7q7 14 14 16q6 3 6 9q0 2 5 8.5t11 9.5q28 5 40 10
q21 11 50 11z" />
    <glyph glyph-name="U" unicode="U" horiz-adv-x="614" 
d="M232 274q6 12 9 14l11 19v6l7 15q28 57 31 67q1 2 7.5 11.5t7.5 17.5l22 64q5 27 5 55q0 27 -6 36q-1 6 -11 15.5t-17 13.5q-20 8 -21 8l-58 -5l-36 -16q-3 -3 -3 -7q0 -1 5 -6.5t6 -7.5l15 -41q1 -3 1 -26q0 -1 -1 -9l-2 -7q0 -1 1.5 -4t1.5 -4q2 -5 2 -22q0 -23 -3 -36
q-2 -9 -10 -27.5t-9 -21.5t-7 -7.5t-7 -7.5q0 -6 -8 -17.5t-9 -13.5l-32 -26q-4 -1 -9 -6t-8 -6q-32 -16 -31 -16q-22 -10 -38 -10q-17 2 -36 14q0 1 -4 7t-9 16.5t-5 20.5q0 6 1 9q0 1 1 3q0 1 -1 3t-1 4v1q1 2 1 3l6 30l-1 3q0 9 8 21q1 2 1.5 7t1.5 7q0 1 4.5 6t4.5 7
q9 18 9 22q2 2 6 10t4 9q2 4 12.5 20.5t17.5 25.5q3 4 12.5 11.5t13.5 12.5q0 1 2.5 5t2.5 5q1 1 6.5 3.5t6.5 1.5q13 20 45 39q-16 20 -41 22h-6q-3 0 -5 1q0 4 -16 4q-6 1 -18 1q-33 0 -55 -15q-5 -4 -12 -11l-9 -9l-8 -5l-2 -14q0 -8 -7 -15l-7 -40q2 -6 2 -10
q-2 -13 -10 -13q-7 2 -10 55l7 37q7 3 10 20q5 2 11.5 10.5t11.5 10.5l21 12q1 1 9 3t12 6q20 2 32 2q14 0 21 -1q36 -3 68 -21q0 -1 3 -3t7 -4t5 -3l6 -7q7 0 15 8q39 19 88 19q13 0 19 -1q30 -9 43 -21l15 -21q12 -18 12 -26q0 -3 -1 -9.5t-1 -10.5q3 -6 3 -13v-5
q-3 -26 -5 -33q-4 -26 -30 -91l-13 -21l-2 -18l-1 -6l-24 -55l-6 -8q-9 -14 -11 -14l-1 -9q0 -2 -5 -6l-10 -19q-1 -4 -7.5 -16.5t-9.5 -19.5q-1 -3 -11 -16.5t-11 -17.5q-2 -5 -7 -16.5t-6 -14.5q-4 -3 -9.5 -19.5t-7.5 -18.5q-5 -6 -11 -28q-5 -24 -10 -60v-7
q0 -33 31 -33q11 0 28 7t28 14l11 7q10 5 15 8q2 1 11 9.5t11 10.5q1 5 15 13q6 1 12 17l12 13q15 21 19 25q3 2 19.5 22.5t17.5 21.5t7.5 9t7.5 12q2 5 23 35t26 39l3 7q4 7 8 14.5t6 11.5l7.5 15t7.5 14.5t5 8.5q1 1 4 9.5t7 15.5q10 18 16 23q4 3 4 7v4q5 7 11 21t11 23
q2 7 11 14q5 2 5 7v6q0 3 14 23q3 6 11 15t10 9t6.5 1t7.5 1q6 0 6 -10q0 -12 -9 -21q-10 -10 -15 -23q0 -2 -12 -25t-14 -29q-5 -12 -9 -18q-13 -22 -14 -26q-5 -6 -22 -39q-18 -34 -20 -39l-8 -32q-15 -19 -15 -40q0 -18 -8 -37q-5 -45 -5 -54q0 -1 3 -28v-12l4 -17l1 -11
q13 -26 34 -26t41 13l5 3q29 18 37 29q5 3 15.5 12.5t18.5 17.5l7 7q2 3 5 3t3 -5q0 -3 -7 -12l-14 -15l-5 -4l-3 -4l-30 -29q-28 -20 -30 -21q-4 -2 -11.5 -6t-12 -6t-12 -4t-15.5 -2q-19 0 -33 7.5t-18 13.5t-6 12q-10 12 -13 28q-1 3 -1 11l1 13l-7 25l3 8l4 29
q6 21 6 26q0 9 -3 9q-1 0 -9 -8l-3 -6q-2 -5 -6.5 -11t-9.5 -9q-1 -1 -26 -33q-4 -7 -13.5 -18t-16.5 -19l-7 -7l-5 -4q-11 -12 -36 -30q-32 -30 -56 -39q-38 -30 -82 -30q-21 0 -32 7q-1 2 -2 6.5t-3 6t-7 1.5q-6 14 -6 30q1 21 16 60.5t17 49.5l20 41q1 1 5.5 13t6.5 16
q6 7 11 14.5t7.5 13t4.5 11.5t3 7q4 7 14.5 24.5t12.5 22.5zM5 361v-24q3 -1 3 -7v-5q0 -4 1 -5q12 -21 44 -25q17 3 28 7.5t25.5 16t22.5 16.5l28 38q4 1 7 5.5t4.5 8t1.5 4.5q1 6 14 40l6 48q0 15 -1.5 34t-9 41t-18.5 22q-7 0 -25 -17.5t-20 -18.5q-4 -3 -9.5 -6.5
t-9.5 -8.5l-3 -4q-2 -4 -4.5 -7.5t-2.5 -4.5l-20 -18q-5 -5 -5 -11l-3 -3l-3 -3q-1 0 -8 -7q0 -1 -1.5 -4t-2.5 -5.5t-2 -3.5q-4 -4 -4 -5q-1 -1 -15 -33q-10 -18 -11 -21v-6l-1 -5z" />
    <glyph glyph-name="V" unicode="V" horiz-adv-x="416" 
d="M727 578q-37 0 -57 -17q-11 -10 -27 -14l-19 -11l-28 -28q-4 0 -4 2l-4 -5l-13 -15q-5 -3 -5 -9v-4q0 -7 -17 -21l-31 -39l-11 -22q-1 -2 -8.5 -10t-10.5 -15q-6 -15 -29 -38q-14 -10 -17 -27q0 -2 -5.5 -11t-12.5 -22t-11 -22q-5 -10 -14 -24.5t-15 -23.5t-7 -10
q-2 -4 -2 -12q0 -1 -2.5 -4t-5.5 -7t-4 -5q-2 -2 -20 -31t-20 -31l-26 -42q-15 -19 -27 -47l-17 -17q-13 -14 -17 -17q-23 -18 -29 -29q-2 -4 -9.5 -10t-11.5 -7q-14 -7 -25 -7q-21 0 -21 28l1 45l4 4q5 22 6 33q3 18 14 40q4 8 5 13.5t2 12.5t2 13l20 57q1 2 3 8t4 10.5
t2 6.5t4 12.5t4 11.5q4 19 5 20q2 2 8.5 23t6.5 25q0 3 3.5 6.5l6.5 6.5l3 2v5q-4 4 -4 9q0 2 8.5 21t9.5 22q2 2 2 8v14q8 34 18 53l17 30q0 4 -4 4q-23 0 -45 -14q-13 -13 -26 -16q-4 -2 -11.5 -6.5t-17 -11t-14.5 -9.5l-59 -37l-18 -11l-1 -4l-15 -14l-3 -6l-9 -11
q-4 -2 -14 -22q-7 -9 -7 -23l-16 -22l-1 -5l4 -11q-3 -3 -3 -17q0 -15 7.5 -27.5t23.5 -12.5q23 0 35 28q3 6 4 13t1 10t2 3q9 0 9 -11q0 -14 -4 -20q0 -1 -2 -6t-3.5 -8t-5.5 -7.5t-9 -7t-13.5 -4.5t-19.5 -2q-30 0 -40.5 15.5t-10.5 32.5l4 18v12q0 4 8 20l6 16l11 12l1 6
q33 40 42 48q1 1 13 12t26 21q38 29 47 33q3 2 9 7t8 6q3 3 27 12q3 2 13.5 7.5t14.5 7.5q17 11 43 17q13 2 54 22q24 17 28 17q8 0 8 -8q0 -5 -20 -18q-13 -11 -24 -28q-18 -32 -25 -64q-2 -24 -12 -39q-2 -5 -2 -16q0 -10 -9.5 -28t-9.5 -27t-24 -59q-17 -54 -26 -66
q-14 -27 -21 -55l-9 -14q0 -12 -4 -24l-12 -25q-1 -6 -1 -8l-3 -9q-4 -25 -4 -30q0 -3 -2.5 -13t-2.5 -14q0 -18 17 -18q8 0 15.5 3.5t12.5 7t11 9t7 6.5q4 4 8 10t8 10l26 33q4 7 6 12q1 3 4 9t3 8l30 47q2 4 26.5 46t25.5 46q3 8 10 14q4 4 17.5 26t15.5 28q2 4 2.5 11.5
t3.5 11.5q10 12 11 14q3 9 6 13l12 23q1 4 4 7.5t5 4.5l2 1v5l5 11l11 16q10 19 17 27q20 33 26 37q14 9 20 27q8 20 26 29q24 12 45 33q5 6 22 15t19 9t20 9q8 4 28.5 10t30.5 6q11 0 32 -6l12 -1q8 -5 14 -11l24 -18v-11q8 -6 8 -22q0 -12 -8 -24q-3 -6 -13 -16
q-1 0 -7 -4t-9 -4q-10 0 -10 6t9 6q5 0 11.5 9t6.5 23q0 18 -18 40q-18 19 -49 19z" />
    <glyph glyph-name="W" unicode="W" horiz-adv-x="709" 
d="M240 336q9 0 14 -7q6 -15 6 -45q-4 -42 -24 -59q-21 -25 -33 -29q-14 -11 -21 -11l-14 -9v-7q0 -20 4 -31q10 -22 23 -22q2 0 6 2.5t4 4.5q0 8 4 8q2 0 2 -11q0 -15 -17 -15l-12 5l-12 9l-1 8l-7 13v7q-1 10 -4 13l3 13q-32 -1 -39 -1l-30 7l-3 7h-10l-6 10q-15 7 -17 17
q-12 21 -12 51q0 17 12 37q3 18 3 19q16 16 18 21l1 5q11 8 12 11l12 17l27 13l14 13h5q4 7 9 10l24 13h9l66 29l44 10h9l106 45q27 21 27 27t10 6t10 -13q0 -7 -6.5 -14t-13.5 -11l-6 -4l-7 -3q-17 -16 -24 -21l-13 -18q-6 -17 -9 -27q-7 -19 -7 -30q0 -3 -3.5 -22
t-4.5 -22l-1 -29l-4 -6q-1 -12 -3 -17l-7 -27q-7 -16 -7 -22l3 -24q0 -10 -7 -18q-8 -11 -8 -28q0 -6 -8.5 -50t-8.5 -48l-4 -26l54 72q1 4 20 32t21 32q4 4 18 30q4 5 9.5 9t8.5 6l4 2l1 12l13 13l9 13l48 74l5 2q16 33 20 42q1 6 18 20q17 17 36 49q11 13 15 14l5 -1
q5 0 5 -13l1 -10q0 -1 -2.5 -5.5t-6 -10.5t-4.5 -9q0 -3 -5 -17t-11 -30t-6 -17l-3 -19l3 -4v-5l-5 -8v-53l-6 -22l-2 -7v-20l-3 -18l-3 -41l2 -3l-3 -16v-17l3 -18q0 -24 -2 -31q1 -3 2.5 -16.5t3.5 -17.5q2 -12 2 -33l6 -28l9 29q3 9 13 33t12 40v20l5 2q16 28 21 44
q2 9 17.5 39.5t15.5 34.5q15 26 25 36l15 25l12 12q0 13 5 14q0 1 1.5 6l3 10t2.5 7l9 9l1 9q11 11 12 15q1 1 11 18q0 2 3 5t7 5l3 2q6 8 16 20q6 4 37 38q14 14 48 33l37 21h37q9 0 21 -3.5t12 -9.5q-2 -7 -6 -7q-2 0 -7 4.5t-9 5.5q-57 0 -160 -114l-51 -67l-13 -15
q-3 -2 -4.5 -7t-2.5 -9v-4l-12 -10q-3 -3 -3 -7l-5 -12q0 -2 -10 -9l-8 -12q-1 -2 -7 -9t-7 -12q0 -4 -6.5 -16t-14.5 -25t-10 -18q-13 -22 -23 -53l-6 -23l-7 -4l-1 -17l-5 -5l-6 -22q-5 -32 -16 -53l-5 -25q0 -15 -1 -21q0 -15 -5 -15q-8 0 -22 36l-9 34v7l-8 33l-6 30
l1 21l-3 8v36q0 10 6 17l1 13l-12 17q4 9 4 12l7 7v4l-7 9l1 16q3 2 7 13v5q0 25 5 45l-5 13l3 6q4 26 4 33q0 3 3 14t3 13l7 27l-4 1q-42 -71 -45 -73l-6 -8q-6 -8 -12.5 -16.5t-8.5 -9.5l-19 -26q-7 -6 -8 -6q-3 0 -8 -18l-13 -13q-8 -6 -8 -16q0 -2 -4.5 -8t-11.5 -14.5
t-9 -10.5l-35 -50v-7q-22 -28 -33 -47q-7 -10 -14.5 -23t-10.5 -21l-4 -9q-26 -41 -26 -45l-9 -15l-2 -8l-19 -22l-7 -1q-7 -8 -11 -8q-9 2 -9 9l7 11v6q9 8 13 9q3 4 12 30t10 34l8 39l10 20l1 27q0 13 5 15l3 12q5 57 6 61l4 9l11 4q3 17 3 23v22q0 14 6 32q0 26 7 45
l4 33l6 13q3 3 6 18q2 15 5 18q5 5 5 15q4 17 9 24l11 16l8 13l1 3l-58 -21l-63 -19q-3 -1 -21 -8.5t-22 -7.5q-7 0 -10 -8l-10 -5q-11 -5 -22.5 -11.5t-17.5 -12.5q-4 -2 -48 -39q-2 -3 -7.5 -6t-9.5 -5l-4 -1v-9q0 -3 -2.5 -7.5t-4.5 -6.5l-3 -3q-1 1 -2.5 -1t-3.5 -6
t-4 -9t-3.5 -10.5t-2.5 -10.5v-36q0 -6 6 -9q7 -10 8 -17q1 -3 6 -7t9 -7l5 -2q5 0 9 -3q9 -4 31 -4h15l4 37q0 8 2 15l4 14l4 3l-2 6l6 6q1 1 1.5 3t0.5 3q1 1 14 19.5t17 21.5q16 19 31 19zM240 313l-6 -2l-13 2q-16 -10 -23 -24q-15 -27 -26 -63l-4 -36q14 3 22 7
q16 7 34 28q19 19 20 50v29z" />
    <glyph glyph-name="X" unicode="X" horiz-adv-x="440" 
d="M321 -18q-18 0 -32 7.5t-20 15t-6 12.5q-12 12 -16 29q-1 1 -1 6l1 20l-6 28l4 9v32q1 2 4 20q0 1 0.5 3t0.5 3l-1 2q-1 -1 -8.5 -14.5t-17.5 -29.5t-15 -22q-4 -5 -12 -17t-13 -18q-5 -7 -14 -18.5t-12 -15.5l-24 -28q-9 -7 -19.5 -19t-14.5 -16l-33 -25l-11 -1
q-8 -13 -29 -14q-1 0 -4 -0.5t-4 -0.5q-34 0 -43 46l1 7q2 18 10.5 35t15.5 20q3 0 6 -3t3 -6l-1 -3q-2 -2 -2 -5q0 -5 -3 -14l-6 -26q6 -26 26 -26q26 3 56 29q57 50 116 134q8 11 15.5 25.5t11.5 23.5l3 9q13 13 25 57l-20 2l-26 4l-37 -2q-1 0 -4 -0.5t-4 -0.5q-8 0 -8 4
q0 2 9 6.5t12 4.5l4 -3l5 4q11 1 14 4l22 2h39l10 33l7 39l7 18q-2 0 -2 6q0 3 1 8q3 33 3 36q4 17 4 33v16q0 18 -4 22q-1 3 -1 11v10q0 12 -7 27q0 5 -4 12.5t-8 12.5l-3 5h-27l-14 -8q-16 -10 -21 -17q-5 -5 -8.5 -14t-4.5 -11q2 -13 12 -13q9 0 9 -16q-2 -9 -17 -9
q-12 0 -23 14q-5 6 -5 20v5q5 15 7 17q8 15 12 22q29 34 69 34q24 0 30 -6v-1q1 -1 2 -2.5t3 -4t5 -4.5q4 -2 10.5 -7.5t8.5 -6.5l1 -18l7 -22l-3 -15v-6q0 -14 1 -23l-4 -55l-8 -36l1 -9l-5 -28q9 16 12 23q1 2 7 10.5t9 14.5q8 14 37 50q42 52 51 58l50 39l1 7q15 8 38 22
q44 25 91 25q16 0 34.5 -13t18.5 -26q0 -12 -4 -34q-6 -22 -24.5 -37t-32.5 -15q-24 0 -24 21q7 15 16 15q3 0 4.5 -6.5t10.5 -6.5q11 0 21 12t13 35q0 33 -44 33q-19 0 -39 -4q-4 0 -10 -3.5t-11 -6.5l-4 -4h-9q-12 -7 -31.5 -24t-23.5 -20q-2 0 -10 -7.5t-13 -9.5l-19 -14
l-13 -19q-42 -57 -55 -76q-10 -13 -25.5 -41.5t-19.5 -39.5l-5 -31l28 -4l26 1q8 0 12 1l17 2q10 0 10 -1q-3 -6 -20 -11q-23 -10 -34 -10q-2 0 -13 3.5t-15 3.5q-7 0 -23 -7q-11 -39 -11 -46q-2 -15 -2 -42q0 -24 1 -36v-4q0 -4 1 -13t1 -13q1 -6 1 -13l4 -19l9 -22
q11 -19 46 -19q23 0 43 13l5 3q29 18 37 29l43 34q2 2 5 2t3 -5q0 -3 -8 -11l-15 -15l-5 -1l-3 -4l-30 -29q-28 -20 -30 -21q-30 -18 -58 -18z" />
    <glyph glyph-name="Y" unicode="Y" horiz-adv-x="437" 
d="M319 -3l-1 -3l19 10l11 4q12 4 13 5q1 0 4.5 2t8 5t7.5 4q3 0 9 3.5t12 7.5l5 4q6 4 17 13t19 16l8 7q3 3 6 3q4 0 4 -5q0 -4 -7 -11l-23 -20l-21 -16l-6 -2q-16 -16 -32 -22l-31 -15l-29 -15l-6 -16q-5 -9 -7 -11q-1 -1 -6.5 -15t-5.5 -17q0 -7 -10 -20
q-2 -1 -11.5 -24.5t-20 -49t-11.5 -28.5l-33 -62l-9 -24q-6 -2 -10 -5q-6 -12 -6 -17t-14 -24l-9 -18l-5 -2q-27 -44 -40 -52l-5 -5l-5 -5t-2 -4t-2 -4.5t-4.5 -5.5t-3.5 -5l-26 -15q-6 -5 -7 -8q-1 -1 -12 -8q-5 -2 -18 -15.5t-14 -14.5l-15 -5l-11 -8h-5q-27 -13 -35 -13
q-14 0 -20 6q-12 9 -12 29q0 19 11 45q8 29 23 54l11 28h5l12 15v7l2 6l-2 7q2 6 5 10l12 19l7 13l7 1l1 10l12 9q2 6 6 11t8 8.5t4 4.5q5 1 16 29l28 34q27 23 40 39q1 3 10 11.5t19.5 17.5t12.5 11q11 8 28 15q4 3 9 10q4 6 20 14l36 24h6q6 8 10 12l15 9l8 17q6 12 12 20
q3 2 11 20.5t10 25.5l20 46l5 6q2 5 2 6l13 20v7l12 25l6 17q0 4 -1 4l-7 -6q-33 -26 -41 -34l-43 -41q-12 -6 -15 -8l-20 -16l-20 -17q-6 -9 -14 -11q-6 -2 -29 -20q-22 -12 -29 -19l-9 -4l-8 -5q-9 -1 -12 -1l-8 -2q-7 -1 -9 -1q-3 0 -8 5.5t-5 8.5q0 10 6 22q1 2 8.5 14
t8.5 16q6 10 19 25q9 9 12 20l9 14h9q7 16 7 21q0 10 16 20q4 3 7 7t4 7l2 3l-5 3q12 13 13 17l4 23l5 6h5q18 25 28 35l25 43v9l7 16v7q8 16 8 22q0 3 12 24q1 3 1 16q5 5 9 13l7 28l-4 9l8 9l-4 4v13q4 7 4 16q0 29 -28 50q-7 5 -19.5 7.5t-21.5 3.5h-8l-6 4q-20 0 -23 -4
q-7 -5 -22 -8q-26 -6 -29 -13l-18 -8l-13 -4q-43 -41 -49 -48q-12 -14 -19 -14q-3 0 -25 -26q-10 -12 -20 -33q-3 -6 -5.5 -15.5t-2.5 -15.5l-1 -6v-22l-3 -5l5 -2l12 -14q13 -4 25 -4q18 0 48 14q10 4 27.5 18t19.5 19q11 14 12 25l1 5q2 5 2 9l-2 12q-2 7 -9 7q-4 0 -4 -3
q0 -7 -5 -7q-3 0 -3 7q0 13 16 13q9 0 16 -7.5t7 -22.5q0 -14 -6 -23l-10 -21q-2 -4 -18 -18t-22 -17q-8 -7 -17 -7q-2 0 -11 -6t-12 -7q-2 -3 -18 -7t-29 -4q-7 0 -11 0.5t-5.5 1.5t-2.5 1l-2 1q-2 0 -19 20q-5 7 -5 30l5 18q2 11 2 18q0 5 10 20t15 20q16 13 34 41
q10 13 24 25l14 15l7 2l14 13l3 5l9 7l12 1q15 13 20 17q25 15 34 16q5 2 11.5 6.5t7.5 4.5q23 6 25 6l21 6q4 0 7.5 -3t5.5 -3l15 -10l20 2q2 0 5.5 2t7.5 2q3 0 8 -3t9 -7l3 -3q17 -16 17 -22q0 -2 2 -12l3 -12l4 -4v-11l-3 -5v-16q0 -9 -21 -83l-17 -39l-1 -10
q-11 -14 -13 -18q-3 -3 -12 -20.5t-10 -27.5q-1 -8 -18 -27q-5 -5 -11.5 -17.5t-10.5 -22.5t-4 -11q0 -5 -15 -25q-7 -4 -7 -14q0 -3 -3 -7t-3 -5l-16 -9v-8l-12 -5l-1 -4q1 -4 1 -8l-4 -14l-6 -1q-14 -13 -14 -17l-31 -42q-6 -9 -6 -17t7 -8q15 0 25 6l33 21q3 1 53 40l1 4
q1 1 9.5 5.5t16 9t7.5 7.5q0 2 2.5 3.5t5.5 3.5t4 3l25 23l5 3q11 11 15 16q2 4 15.5 17.5t17.5 15.5q4 3 26 28t27 33q19 35 42 56q33 28 46 28q19 0 19 -9q0 -6 -7 -11t-13 -6q-18 -5 -20 -10q-3 -6 -12 -6q-1 0 -11 -12.5t-11 -14.5l-24 -29l3 -6l-10 -9l-22 -32
q-5 -6 -16.5 -28t-23 -45.5t-12.5 -26.5l-26 -59q0 -14 -1 -18l-12 -21zM259 -77l8 23h-4l-17 -12q-49 -31 -59 -40q-4 -3 -16.5 -12.5t-22 -17t-10.5 -9.5q-19 -14 -20 -20q-5 -8 -17 -18q-7 -7 -15 -20q-1 -1 -3 -6t-5 -10t-5 -7q-13 -7 -28 -36q-3 -11 -19 -27
q-5 -3 -20 -22l-15 -37q-2 -3 -7 -18.5t-7 -17.5l-11 -14v-8l-3 -1l-1 -16q-17 -29 -17 -41q0 -25 4 -27q7 -14 14 -14l20 8l11 2q19 12 22 17q1 1 8 10.5t13.5 17.5t8.5 10q23 23 23 24q0 6 27 33q11 8 11 17q13 20 20 34l2 11q18 13 20 21q11 22 11 29q0 16 2 19
q4 4 16 21t15 25l18 38q3 3 7 9z" />
    <glyph glyph-name="Z" unicode="Z" horiz-adv-x="627" 
d="M315 491l8 20h-31q-20 -5 -22 -5l-18 -2l-13 -6l-8 -1q-13 -6 -24 -22t-11 -31l2 -16q2 -15 21 -15q12 0 28.5 7t22.5 12q16 11 16 13q0 4 9 13q2 2 6 7.5t7 9.5l3 4q0 4 4 12zM664 518q-15 0 -45 -15q-16 -9 -19 -9q-6 0 -11 -7l-8 -9v-4q23 -3 50 -3h13q46 3 46 26
q0 4 -10 14q-14 7 -16 7zM322 602q6 0 16 -10l6 -25v-24l10 -1q9 -2 19 -4t12 -2q27 -9 29 -9q4 0 7 -1t8 -3t10 -3q22 -2 37 -8l45 -15l5 -7q10 -4 16 -4l16 -5q7 9 8 9l2 1q1 1 3 2t3 1l8 7q11 3 24 13q35 25 55 25q35 0 44 -15q8 -20 8 -26q0 -13 -8 -27q-3 -3 -9 -6
t-10 -4l-5 -1q-9 -6 -17 -6l-37 4l-5 3h-16l-21 4l-14 3l-5 -7h-7l-39 -48q-7 -13 -11 -15l-16 -19q-2 -8 -21 -24q-8 -5 -18 -22q-10 -16 -21 -25q-5 -3 -14.5 -20t-12.5 -25q-2 -3 -6 -10t-7.5 -12.5t-3.5 -6.5l40 -4l17 1q9 -2 13 -2q17 0 17 -7q0 -2 -5 -3.5t-11 -1.5
h-5l-13 1l-5 -3h-36l-30 -5q-41 -62 -43 -66q-14 -21 -19 -26q-10 -5 -12 -12q0 -1 -4.5 -11t-6.5 -12q-1 -2 -3.5 -5.5t-6.5 -8.5t-7 -9l-25 -28q25 -13 33 -13q4 0 21 -8t20 -8q58 -25 70 -27l49 -15l17 -2l6 -5q22 -3 48 -3q34 0 51 15q15 15 15 40q0 24 -15 36
q-11 10 -38 10q-12 0 -12 4q0 6 24 6t40 -10q25 -14 25 -48q0 -25 -27 -57q-10 -10 -33 -18t-35 -8l-69 16l-5 -3l-19 7q-13 13 -14 13h-25q-2 0 -29.5 13t-28.5 13q-7 7 -18 7q-7 0 -27 9.5t-25 10.5h-10l-9 5q-51 -47 -59 -54q-33 -29 -52 -33l-22 -11q-16 0 -19 -1l-4 -1
q-5 -2 -11 -3t-10 -1t-8.5 1.5t-11 4t-9.5 3.5q-4 0 -9 4t-8 7l-3 4h-5q-12 15 -13 19l-1 10l-6 9l2 16l5 1q0 -11 1 -16q11 -41 57 -41q30 0 75 21q6 3 16.5 12t17.5 16l7 7h7l6 10q7 2 11 4l20 25l-4 6h-8q-12 6 -33 14q-14 5 -46.5 11t-40.5 6q-17 0 -41 -12
q-26 -12 -33 -25q-1 0 -5 -7t-6 -7t-2 8q0 5 7.5 17t18.5 20q33 23 70 23q34 0 49 -6q36 -9 41 -9l13 -8h12l4 -4h9l11 -7q4 5 5 8t10 12l15 18q11 27 13 29q12 19 16 23q27 36 32 39l27 37q-15 0 -19 3l-4 3h-7q-7 -6 -9 -6l-4 6l-27 -2q-13 2 -13 8q0 3 2.5 5t4.5 2l3 1
h21l15 3q7 -7 8 -7l6 8q13 -1 17 -1l25 1l58 78l4 8q16 18 21 25l33 41l15 15q9 17 13 18q6 1 17 12l4 6q5 6 9.5 12t6.5 7l14 14q-5 7 -6 7q-26 0 -39 9q-1 3 -20.5 7.5t-23.5 4.5q-17 8 -64 12l-55 1q-7 -9 -8 -14q-5 -6 -5 -19q0 -2 -6 -10.5t-11 -15.5l-6 -7
q0 -1 -6.5 -8t-16.5 -15.5t-17 -14.5q-24 -14 -33 -14l-6 1h-12l-8 5h-10l-22 25q-1 3 -1 21q0 17 6 33.5t12 24.5l6 7l6 1l26 20q5 -1 7 -1t9 2.5t10 2.5l20 1l6 6h25q1 0 7 -2t8 -2l13 4l1 9q0 7 -6 13l-9 8q-18 9 -18 12l1 1l2.5 5l2.5 5q6 6 17 6z" />
    <glyph glyph-name="bracketleft" unicode="[" horiz-adv-x="223" 
d="M240 502q0 -1 -10 -23l-8 -21l-9 -14l-6 -15q-19 -58 -26 -71q-7 -15 -7 -25q0 -1 -12 -25q-13 -32 -13 -36q0 -6 -14 -43q-6 -12 -11 -29.5t-6 -19.5l-3 -23q-9 -15 -9 -19q0 -3 -4 -10.5t-8 -13.5l-4 -6v-11q-8 -23 -31 -89l-1 -21q-6 -18 -12 -34q-10 -27 -10 -44
q0 -16 21 -16q5 0 9.5 -3.5t4.5 -8.5q0 -2 -12 -2q-1 0 -5 0.5t-8 0.5h-20q-19 7 -19 23q0 17 37 122q3 10 6.5 27t5.5 22q1 11 25 69q0 1 1 3v1q1 1 1 2q3 4 7.5 25.5t7.5 27.5l20 50v11l21 59q3 8 7 14t6 8l3 1v13q0 3 22 62q2 6 18 38l18 36v10l17 39q10 6 16 14
q2 8 14 8q5 0 18 -4.5t15 -4.5q13 -2 13 -8q0 -4 -5 -4q-31 0 -45 -14q-4 -4 -16 -28z" />
    <glyph glyph-name="backslash" unicode="\" horiz-adv-x="235" 
d="M36 657q4 0 7.5 -5t4.5 -10l2 -5l13 -61l2 -3l10 -47q2 -11 8.5 -37t6.5 -28q0 -3 0.5 -10.5t1.5 -9.5l4 -6q4 -6 5 -11l-1 -9l1 -8l5 -5q10 -45 15 -75.5t6.5 -42.5t1.5 -13l7 -17l18 -85v-13l5 -10l4 -21v-12l8 -39l4 -7l2 -8l-7 -14l1 -4l9 -7q4 -24 8 -47q2 -7 2 -20
q0 -20 -9 -20q-2 0 -5 4.5t-5.5 11.5t-4.5 13.5t-4 14.5t-3 10l-23 109q-1 5 -2.5 15t-2.5 19.5t-1 11.5q0 3 -2.5 6.5t-4.5 5.5l-2 2q-9 50 -10 57v4q0 3 0.5 12t0.5 13q0 6 -1 7q-1 3 -6 14.5t-6 14.5l-11 41q-2 2 -5 15q-2 10 -2 23v11l-6 15l-1 13l-10 48l-1 9l-4 19
l-8 57l-5 3l-13 61q2 1 2 7q0 1 -2 13q-2 14 -2 18q0 11 5 12z" />
    <glyph glyph-name="bracketright" unicode="]" horiz-adv-x="253" 
d="M354 540q0 -4 -3.5 -16.5t-4.5 -14.5l-16 -47q-1 -4 -9 -24.5t-8 -27.5q0 -8 -4.5 -20t-4.5 -13q-2 -7 -21 -52t-26 -57q-10 -21 -10 -33q0 -4 -4 -10.5t-5 -9.5q-1 -2 -4 -9.5t-4 -14.5q-3 -12 -14 -33q-1 -4 -5 -14.5t-9 -24t-7 -20.5q-12 -25 -18 -52q-2 -9 -16 -40.5
t-19 -34.5q-3 -1 -9 -17t-13.5 -35.5t-10.5 -25.5q-11 -17 -29 -17l-10 1h-33q-11 0 -11 7q0 8 40 8q8 0 16 6.5t10 11.5q10 6 24 45q2 16 11 28q6 4 6 20q0 4 9 21.5t14 23.5l2 21q7 17 8 26l6 23l19 42l17 38v13l8 12v11q14 35 18 42q13 26 13 28t26 62q15 38 15 42l14 24
l4 22l17 49l6 33l-8 8l-24 1q-17 0 -17 8t43 8q16 0 23.5 -7.5t7.5 -14.5z" />
    <glyph glyph-name="asciicircum" unicode="^" horiz-adv-x="395" 
d="M44 302l42 49l13 19q12 5 26 22q9 12 33.5 39t28.5 29l12 3l7 -3q8 -9 12 -11l52 -56q30 -30 41 -47q11 -16 24 -26q9 -9 9 -18l-6 -10h-14l-8 13q-1 1 -1.5 2t-3 4.5t-4.5 6.5l-4 6t-3 4l-1 2q-36 36 -49 57q-9 11 -31.5 27t-28.5 16q-3 0 -8 -5t-8 -11l-4 -5
q-3 -7 -4 -9q-5 -3 -8 -3h-11v-12q-45 -49 -57 -61l-29 -34l-8 2z" />
    <glyph glyph-name="underscore" unicode="_" horiz-adv-x="400" 
d="M-9 -76q0 5 4 8t9 4h4h134q20 -5 30 -5q9 0 19.5 2.5t14.5 2.5t7.5 -2t6.5 -2l13 4h92l11 1h46q28 0 28 -13q0 -5 -4 -7.5t-8 -2.5l-5 -1l-2 3h-8l-6 -4q-3 0 -11 0.5t-14 0.5l-114 -1q-3 0 -9.5 0.5t-7.5 0.5h-54q-3 0 -67.5 -1t-76.5 -1q-32 0 -32 13z" />
    <glyph glyph-name="grave" unicode="`" horiz-adv-x="251" 
d="M74 490q22 0 29 -18q1 -4 19 -22l14 -15l2 -6q12 -2 13 -4l5 -3q4 -4 9 -8t6 -6l6 -10l-2 -4q-23 8 -25 10q-3 1 -11 6q-1 5 -9 7l-33 17l-3 7q-7 2 -8 6q-1 2 -4 3l-5 3q-4 1 -10.5 6.5t-6.5 8.5q0 22 14 22z" />
    <glyph glyph-name="a" unicode="a" 
d="M162 -1l-6 3q-5 1 -9 6t-4 8l-3 9l-1 12q-4 11 -4 17q0 12 -7 12l-17 -10h-5l-26 -21l-3 -1l-16 -9l-2 -5q-9 -7 -12 -8q-1 -4 -10 -4l-5 -6q-5 -6 -14 -6q-6 0 -11 6t-7 12l-1 5l2 20l7 14l-1 3l-6 -5q-2 -1 -4 -1q-4 0 -4 7q22 24 28 36q23 20 32 25q2 0 9.5 4.5
t14.5 9.5l7 4q5 0 15 7q23 13 33 13q7 0 12.5 -4.5t5.5 -8.5q0 -3 -3.5 -7t-5.5 -4q-3 0 -9 4q-2 3 -9 3q-13 0 -21 -3q-6 -2 -13.5 -10t-8.5 -8q-1 -3 -15.5 -20.5t-17.5 -20.5l-7 -8l-3 -1l1 -12q-5 -11 -5 -14q0 -1 6 -5t7 -4l8 6h16l8 6q2 1 6 4q1 2 8 7t14.5 10.5
t9.5 6.5q5 4 12.5 13.5t7.5 14.5q0 3 2 5.5t4 5.5t3 4q10 7 13 20q1 1 3 5t4.5 7.5t4.5 3.5q6 0 6 -14q0 -20 -7 -39l-7 -37l2 -4v-13l-2 -3l2 -3q4 -6 7 -9q6 -21 31 -21q17 4 23 7q5 3 8 5l9 6t14 10q30 23 31 23q6 0 6 -6q-3 -5 -12 -12.5t-10 -8.5l-28 -22
q-19 -12 -21 -13q-21 -7 -31 -7q-21 0 -22 3z" />
    <glyph glyph-name="b" unicode="b" horiz-adv-x="242" 
d="M33 78l-27 -23q-5 -6 -9 -6q-7 0 -7 6l22 21q7 6 17.5 20.5t13.5 18.5l8 27q14 28 19 48q9 12 24 57q3 24 12 29q2 2 14.5 22t14.5 24l46 77q14 18 17 20l9 16l4 6q12 11 15 16q3 12 16 25q13 15 18 25q14 28 37 28q6 0 11 -8q1 -7 1 -18t-5 -24q-1 -3 -12 -21
q0 -2 -0.5 -4.5t-1 -4t-0.5 -3.5l-10 -15l-1 -14l-34 -63q-3 -11 -5 -19q0 -5 -35 -58q-14 -19 -14 -22q0 -1 -2.5 -4.5t-5.5 -3.5v-6q-7 -6 -8 -7l-3 -8l-7 -7l-9 -16q-17 -22 -19 -24t-12 -14t-18 -18q-2 -5 -12 -13t-16 -16l-5 -7l-8 -26q-7 -21 -8 -26q-5 -7 -5 -38
q0 -23 1 -25q4 -15 15 -15q16 0 31 15q7 6 13.5 14t10.5 14l3 5l6 12l11 30q-1 8 -1 18q0 15 7 29q8 12 22 12q10 0 10 -14l-5 -8q-5 -8 -5 -12v-8l-3 -7l3 -13q0 -10 6 -21q6 -12 25 -12q26 0 46 27l8 -4l-1 -4l-14 -14l-6 -2q-1 -4 -4 -5q-14 -10 -35 -10q-32 0 -44 28
q-3 -8 -5 -12q-12 -27 -31 -45q-4 -7 -25 -21q-18 -13 -33 -13q-28 0 -31 49q0 24 2 46zM280 494q-15 0 -33 -41q-20 -31 -31 -39l-13 -15l-2 -15l-23 -34q-1 -3 -8 -15t-9 -17l-22 -44l-8 -19l1 -6q-7 -7 -12 -11q-2 -2 -13 -31t-15 -35q-11 -24 -11 -26q5 3 13 10.5
t10 10.5l18 21q0 1 3 3.5t6 6t4 4.5l3 6q4 5 7.5 10t5.5 6l3 7l2 3l18 31l4 11l7 5l1 6l21 26q1 2 4.5 7.5t6 10t2.5 8.5q0 1 3 5q5 14 5 16q7 4 7 9q0 3 2.5 7.5t4.5 7.5l2 3l7 26l8 7l1 7q21 39 21 51q0 2 1.5 6.5t1.5 5.5q0 4 -4 4z" />
    <glyph glyph-name="c" unicode="c" horiz-adv-x="246" 
d="M16 85l9 9v5q8 21 10 23q0 1 11.5 13t13.5 16q1 4 6.5 8.5t8.5 5.5q12 2 36 19q19 13 41 13q6 0 11 -2t7 -4l3 -2l1 -4q10 -5 10 -7l2 -10q2 -9 2 -11l2 -13q-6 -12 -12 -17q-5 -4 -17 -4q-3 0 -5.5 6.5t-2.5 9.5q0 2 1.5 3.5t3.5 2.5t3 2q7 3 7 22q0 9 -7 13t-14 4
q-5 0 -17.5 -6t-18.5 -11q-4 -3 -11.5 -10.5t-10.5 -9.5q-7 -4 -7 -10q0 -2 -16 -23q-3 -6 -5.5 -23t-3.5 -19q0 -2 -1 -6.5t-1.5 -8t-0.5 -6.5t2 -6.5t4 -4.5l1 -2v-8q13 -12 18 -13q5 -3 10 -10q9 -2 13 -6q5 -3 24 -3h14q4 1 5 3q5 5 12 5q10 0 17 7q1 0 4 1.5t7 4t7 3.5
q1 2 17 10q6 4 18 14t21 18l8 9q3 3 6 3q4 0 4 -5q0 -4 -7 -11l-23 -20l-21 -16l-4 -2q-22 -22 -37 -24l-13 -8h-13q-7 -5 -11 -9q-12 -7 -50 -7q-17 0 -19 6q-1 1 -20 6q-4 2 -5 6t-1.5 8.5t-0.5 5.5q-1 5 -10 12q-6 3 -16 24q-1 12 -3 18q-11 -12 -16 -15q-5 0 -5 7
q0 6 5 8q9 9 20 23z" />
    <glyph glyph-name="d" unicode="d" horiz-adv-x="305" 
d="M359 555q-2 0 -7 -4.5t-6 -4.5l-11 -10q-10 -14 -15 -20q-3 -2 -8.5 -11.5t-6.5 -14.5q-1 -9 -12 -22l-22 -47v-11q-20 -29 -20 -36l-1 -11l-11 -2q-3 -25 -5 -27l-3 -13l-8 -6q-17 -57 -22 -68q-2 -5 -7 -20.5t-6 -16.5l-7 -16l-1 -10h4l9 17l4 3q4 10 6 13l8 6l20 43
l15 25l1 5l9 9l1 6l8 13l2 5l17 29l1 5q19 39 24 44t11 22q1 4 7.5 16t7.5 15l2 13q5 3 6 7l7 13l1 8q17 34 17 39q0 6 -2 9.5t-4 4.5zM114 144q-3 0 -8.5 -4t-9.5 -8l-4 -4l-6 -2q-9 -7 -12 -11q-6 -3 -14 -16q-1 -1 -12 -19l-2 -6l-5 -1l-4 -7l-3 -1q-5 -7 -5 -12v-12
l-3 -8l4 -1l3 -4h8l7 4h15l24 21q20 15 32 33q0 1 5 8.5t8 16t3 17.5q0 8 -7.5 12t-13.5 4zM-5 49v7q2 8 5 13l9 13l7 3l7 8q7 7 7 8l7 4l7 6l15 11l4 2q14 14 20 18q5 4 22.5 11t19.5 7l20 -1l10 42l18 55q1 2 5 7.5t7 10t3 6.5q9 12 10 17l1 28q7 12 8 13q7 7 7 16l13 20
l7 8v9l5 9q2 4 4.5 11.5t3.5 9.5q10 18 16 35q1 11 6 13q2 1 6.5 10.5t4.5 15.5q0 9 9 20.5t21 22.5t15 14h4q1 4 8 13q16 20 33 20q5 0 12 -8t7 -16q0 -20 -5 -31q-10 -34 -26 -69l-9 -13q-6 -1 -7 -12q-2 -8 -9 -17.5t-7 -16.5t-26 -53l-21 -34l-2 -7l-5 -7h-5l-74 -126
q-7 -16 -7 -18t-3 -6t-7 -9t-6 -8q-12 -19 -12 -25q0 -1 -2.5 -17t-2.5 -20q0 -13 4 -19l1 -14l-3 -3l18 -20v-6h5q2 -7 19 -7q8 0 35 11q7 0 36 21q3 2 12 9t14 12l22 20q4 2 6 2q3 0 3 -5q0 -4 -7 -11l-22 -22l-25 -21q-3 -1 -4 -3q-9 -8 -25 -18l-19 -8q-32 -8 -34 -8
q-26 0 -46 24q-4 4 -6.5 9.5t-2.5 8.5l-1 3l3 2l-1 7l-8 13l-5 16l-10 -5l-9 -11h-4l-24 -21q-8 -3 -9 -5l-13 -8l-13 -12q-5 0 -10 -4q-11 -9 -17 -9t-11.5 4t-8.5 8l-3 4v33z" />
    <glyph glyph-name="e" unicode="e" horiz-adv-x="210" 
d="M119 165q-12 -6 -19 -13q-11 -9 -11 -11q-5 -14 -12 -17l-12 -17l-1 -7h5q18 10 26 13q3 2 16 10t15 10q17 17 17 30q0 10 -6 10q-2 0 -18 -8zM12 76l17 21q1 6 3.5 10.5t6.5 9t6 8.5q9 5 20 21q4 4 12 10.5t12 10.5l19 15l16 9q10 5 21 5q10 0 17.5 -9t7.5 -20
q-2 -13 -22 -30q-14 -9 -17 -11q-2 -2 -7.5 -7t-10 -9t-7.5 -4l-23 -10l-23 -12q-2 -8 -2 -17q-1 -3 -3 -6t-2 -5q0 -5 4 -11q1 -1 1 -5.5t1.5 -9.5t5.5 -10l12 -3l2 -3l3.5 -3.5t6.5 -3t12 -1.5q27 0 42 9q26 11 36 22l43 37q2 2 5 2t3 -5q0 -4 -7 -11l-17 -13l-5 -2l-3 -7
l-11 -10q-12 -9 -13 -11q-37 -32 -77 -32q-21 0 -39 8q-1 2 -3 3t-3 2h-1q-1 5 -5.5 6t-5.5 2l-7 9q-9 17 -9 55l-18 -15q-5 -6 -9 -6q-7 0 -7 6z" />
    <glyph glyph-name="f" unicode="f" horiz-adv-x="214" 
d="M180 35q3 3 11 9t13 11l20 20q3 3 6 3q2 0 2 -5t-6 -11l-21 -22l-24 -21q-15 -14 -24 -18q-9 0 -20 -11q-8 -3 -38 -10q-2 0 -2 -4q0 -2 1 -4v-3q1 -7 1 -24q-3 -66 -4 -73q-2 -6 -3.5 -16.5t-2.5 -14.5q-11 -38 -23 -64q0 -9 -3 -14l-36 -68q-4 -4 -12.5 -14t-18.5 -20
q-9 -9 -24 -9q-31 0 -31 44q0 33 6 53l4 11q12 36 14 52q4 4 5.5 9.5t2 12.5t1.5 12q0 3 4 8t4 9q0 3 -0.5 9t-0.5 8v4q1 1 3.5 6.5t5 11.5t3.5 7q0 1 0.5 6.5t0.5 6.5l2 5l2 5q1 1 6 10t9.5 17.5t4.5 10.5q9 21 9 44q0 2 -1 7.5t-1 8.5q0 6 7 10t9 7q12 24 15 33q9 18 9 27
h-4l-71 -67q-3 0 -3 5t2 7l81 88q14 21 24 41l10 29l15 28q2 0 2 5l24 46q1 1 4 4.5t3 4.5q2 2 24 47l32 39q5 5 21 29l19 19q1 0 2.5 0.5l3 1l3 1t3.5 0.5q15 0 15 -14q0 -22 -13 -44q-3 -5 -38 -79q-61 -88 -84 -107l-24 -38l-17 -36q0 -5 -5 -15q-19 -33 -19 -67
q0 -11 9 -21.5t20 -10.5q17 0 26 3q21 6 50 29zM-29 -309q4 -6 14 -6q8 0 16 10l14 20q9 15 21 43t20 48l8 21q18 63 18 109l-1 28l-9 19q-1 3 -6.5 10.5t-8.5 7.5q-1 0 -3.5 -3.5t-4.5 -8t-3 -5.5l-17 -42l-1 -3q-2 -3 -2 -4l-12 -43l-7 -13l-24 -104q-6 -6 -7 -10v-5
q0 -8 -4 -26t-4 -26q0 -13 3 -17zM137 214l2 -4l8 9q66 86 76 112q2 8 14 27.5t12 31.5q0 6 -3 6q-5 0 -15 -9t-14 -16l-41 -70l-7 -18z" />
    <glyph glyph-name="g" unicode="g" horiz-adv-x="258" 
d="M109 -6l11 33l9 27l-5 1l-7 -10l-8 -6q-20 -11 -24 -18q-2 -4 -11.5 -13.5t-15.5 -12.5q-13 -8 -25 -8l-9 5l-7 2l-3 5l-4 1q-2 12 -2 15l6 35l-1 7l-4 1q-8 -7 -11 -7q-4 0 -4 8l3 3q3 3 6.5 6t4.5 5l8 8q1 1 7 8t9 9q2 1 7 6q19 18 26 21q1 0 9 4.5t12 7.5q13 13 20 13
l13 9h5q9 5 12 8q5 5 24 5q2 0 6 -2.5t5 -2.5q6 -6 6 -8q0 -1 -4.5 -6t-5.5 -5q-3 0 -7 4q-4 2 -20 2q-12 0 -21 -6q-2 -1 -6.5 -5t-5.5 -5q-1 -2 -8 -9.5t-8 -9.5l-9 -9q-2 -5 -6 -11t-8 -9l-3 -4h-6l-2 -5v-10q-4 -4 -4 -5q0 -5 -6 -9q-1 -4 -1 -29q0 -1 2.5 -4.5
t4.5 -3.5l9 5h9l21 21q2 2 8.5 6t12 7.5t5.5 5.5q5 10 13 18q3 1 6 5.5t6.5 10.5t5.5 9q3 5 13.5 15.5t12.5 10.5q12 0 12 -7l-2 -11l-1 -6l-13 -20v-8l-6 -5q0 -1 -2.5 -3t-2.5 -4q0 -7 -5 -14q-18 -23 -18 -43q0 -3 -2 -13.5t-2 -12.5q0 -7 -2 -13l-2 -10l3 -1
q17 10 20 13t23 17t29 22l26 25q5 2 15 12t13 10q6 0 6 -5l-24 -24l-29 -27q-5 -2 -16.5 -14t-17.5 -15l-25 -17q-14 -10 -29 -25q-7 -14 -7 -24l-10 -20l-3 -14q-4 -6 -5 -9l-8 -24q0 -3 -1.5 -8t-3.5 -10t-2 -6q-3 -3 -5 -15q0 -1 -5 -14t-9 -25t-5 -16q-4 -18 -31 -66
q-1 -2 -3 -24q-1 -13 -12 -26q-3 -4 -12 -20.5t-11 -19.5q-1 -3 -7.5 -11t-6.5 -9l-4 -15l-8 -5l-22 -24q-8 -8 -42 -8q-9 0 -17.5 12t-8.5 29q0 34 6 58q1 2 3.5 12t5.5 19t4 10l6 9l2 17q8 18 12 22l13 11l15 29q1 3 8 13t10 13q3 2 15.5 18.5t13.5 18.5q5 19 11 19l9 4
q6 9 10 13q1 1 9 8.5t16 15.5l10 10q1 3 10.5 13t18.5 19l9 9q7 16 8 29q2 20 10 41zM-100 -393q-3 -15 -3 -31q0 -24 13 -24q9 0 27 21l22 25q1 5 11.5 21.5t10.5 24.5q0 2 19 35q14 28 14 34v20q11 12 11 14q0 4 2.5 11t4.5 8q24 48 29 63q5 9 5 13l8 20l9 36
q-22 -21 -25 -27q-2 -1 -9 -10.5t-14 -18.5l-7 -10q-1 -1 -6.5 -6t-7.5 -6q-1 -1 -7 -8.5t-6 -8.5l-1 -5q-11 -11 -15 -14q-3 -2 -12 -17t-10 -16q-1 -3 -11.5 -20t-12.5 -18q-1 -1 -8.5 -13.5t-8.5 -15.5l-1 -16q-6 -13 -12 -16q-1 -1 -2.5 -8t-4 -18t-2.5 -19z" />
    <glyph glyph-name="h" unicode="h" horiz-adv-x="290" 
d="M310 560q-6 0 -18 -7.5t-14 -12.5q-1 -2 -11 -17q-1 -1 -8.5 -11.5t-13.5 -19.5t-6 -11q0 -1 -10.5 -18t-12.5 -24l-29 -58q-2 -14 -15 -40q-5 -4 -7 -14q-2 -13 -11 -22l-15 -38q0 -3 -10 -21.5t-10 -20.5l-4 -11q1 0 10.5 10.5t10.5 12.5l21 30q1 2 9.5 14.5t10.5 17.5
q2 7 14 22q8 15 8 17q1 2 6.5 8.5t5.5 7.5l5 7v5q14 19 15 23q1 3 5 8.5t4 6.5q8 6 13 27q2 2 6.5 8t4.5 8q0 11 8 19l17 27v6l16 32q8 14 8 25q0 4 -3 4zM80 90q3 1 10.5 8t9.5 8q3 1 3 7q0 1 13 17t16 18q3 4 14.5 13t16.5 9q6 0 11.5 -4.5t5.5 -11.5q0 -6 -4 -20.5
t-4 -17.5q0 -4 3 -11.5t3 -9.5q0 -3 -5 -8q-1 -2 -1 -8q0 -10 -5 -14q-5 -18 -5 -21l6 -7v-7q0 -9 6 -11q6 -9 25 -9q15 0 28 8q14 7 32 19q3 2 10 8.5t12.5 10.5t7.5 4q7 0 7 -5q-5 -6 -23 -22l-28 -24q-13 -6 -22 -13q-20 -10 -37 -10q-12 0 -23.5 5.5t-16.5 10.5l-6 5
l-1 23q-8 7 -8 9l5 5v12q0 7 6 19q8 8 8 20l-4 9q-2 21 -2 22q0 7 -8 7q-2 0 -23 -21q-2 -3 -17 -21.5t-17 -21.5q-3 -4 -14 -24t-12 -26l-6 -15l-5 -1q-2 -6 -2 -12q0 -4 -3.5 -7t-6.5 -3q-2 0 -7.5 3.5t-5.5 6.5q0 4 4.5 15.5t6.5 13.5q3 18 18 44q3 6 3 20l10 22l-1 3
q-21 -24 -41 -44l-14 -13q-6 -7 -10 -7q-8 0 -8 6l7 6l16 17l36 39l11 18q19 26 24 40l4 18q6 12 9 15q1 1 5.5 15.5t4.5 17.5q0 6 5 21q0 1 3 8t3 9q6 19 23 50.5t21 40.5l21 32v6l13 22l12 11v4l8 11l7 18q9 22 14 31q33 59 35 59t6 7.5t5 12.5q4 13 18 18q12 12 23 12
q7 0 12 -8q6 -6 6 -29q0 -15 -4 -19l-14 -35q-2 -6 -12.5 -29t-13.5 -25q-4 -5 -4 -14l-5 -4q-20 -36 -25 -47q-2 -3 -20 -34t-21 -34t-16 -22.5t-15 -21.5q-5 -10 -17 -25l-10 -16l-35 -42l-4 -7q-9 -10 -14 -19q-3 -4 -6 -12t-5 -11l-4 -8l-2 -9q0 -6 -4 -20l-9 -14
q0 -15 3 -15z" />
    <glyph glyph-name="i" unicode="i" horiz-adv-x="195" 
d="M142 249h6q11 -8 11 -20q0 -5 -6.5 -9.5t-15.5 -4.5q-8 0 -13 4.5t-5 8.5q0 5 4 9l4 4l1 1q0 1 1 2.5t2 3.5q1 1 11 1zM17 64l-15 -13q-5 -6 -9 -6q-8 0 -8 5l7 6l17 18l14 13q5 6 11 13q16 16 16 20q0 5 10 10q3 4 3 11q0 2 3 5t7.5 6.5t5.5 4.5q1 0 5.5 4.5t8.5 4.5
q7 0 7 -8q0 -9 -4 -13q-3 -12 -3 -13q0 -3 -4 -6.5t-6 -3.5q-8 0 -8 -6q0 -4 1 -6v-3l-4 -15q0 -2 -1 -5l-2.5 -7.5l-2.5 -7.5q-4 -6 -4 -26l4 -13l1 -11l3 -1q6 -8 10 -11q10 -2 20 -2q12 0 24 6q3 0 17 8.5t17 11.5q7 4 19 14t21 18l8 8q2 3 5 3q5 0 5 -6q0 -5 -15 -17
l-34 -28q-3 -4 -4 -5q-21 -19 -39 -21l-13 -8l-8 -2q-7 -2 -24 -2q-16 0 -23 5q-9 5 -9 11q0 4 -6 4l-3 6l-4 15l3 18q-3 15 -3 21t-4 6q-11 -6 -13 -10z" />
    <glyph glyph-name="j" unicode="j" horiz-adv-x="166" 
d="M-32 -146q-1 0 -14 -17q-12 -18 -17 -23q-2 -2 -9.5 -11.5t-7.5 -10.5q0 -10 -11 -21q-4 -8 -12 -14l-9 -16q-10 -16 -13 -20q-5 -6 -11 -18l-10.5 -21t-5.5 -9q-2 -1 -8 -11q-8 -9 -11 -23q-15 -21 -15 -47q0 -11 11 -11q8 0 19 18q12 16 18 20q2 1 7.5 8.5t6.5 11.5
q0 2 10.5 19.5t10.5 19.5q0 9 12 23q4 4 9.5 14t5.5 12l2 24q8 6 8 9q0 12 1 13q8 10 14 27q1 3 8 18t9 19q4 12 4 13zM132 284h7q12 -10 12 -20q0 -17 -23 -17q-18 0 -18 15q0 4 8 12l2 3q1 3 3 5q1 2 9 2zM46 26l-4 -18q0 -2 -2 -10l-3 -8q-4 -12 -4 -13q0 -10 -4 -18
l-1 -6l3 -1q17 11 19 13q5 3 13 11t14 11q14 10 34 27l28 26q5 2 14 11t11 9q6 0 6 -6q-4 -6 -22 -21l-25 -26q-16 -7 -46 -37l-28 -22q-21 -18 -25 -22q-8 -18 -8 -26q0 -1 -1 -2.5t-3 -4t-4 -4.5l-3 -14q-4 -3 -5 -8q0 -1 -4 -10t-4 -12l-6 -24q-3 -5 -6 -15
q-12 -65 -38 -99q-8 -8 -8 -25q0 -11 -25 -41l-14 -25v-4l-31 -30l-20 -16q-1 -2 -9 -5.5t-14 -3.5q-16 0 -19 9q-6 6 -6 11q0 22 1 25q0 2 2.5 7t3.5 10q8 33 19 46l1 9l4 4q4 11 4 13q0 1 5.5 5t5.5 6q0 8 12 20q8 15 13 17q19 19 26 33l20 26q13 16 16 22q1 2 5 8t7.5 11
t5.5 6q6 2 6 8l5 6q6 6 12.5 13.5t8.5 10.5q4 5 13 32q5 6 11 27q1 10 15 52q7 21 7 24l13 44q3 12 6 19v5l-3 -2q-3 -2 -6.5 -4.5t-4.5 -2.5q-4 -2 -8 -7l-5 -5l-14 -14q-5 -6 -9 -6q-8 0 -8 6l6 6l23 21l34 31l13 22q12 19 36 19q4 0 7 -3.5t3 -6.5l-6 -8l-15 -9
q-6 -5 -10 -9q-11 -5 -18 -32l-6 -24q-7 -28 -7 -32z" />
    <glyph glyph-name="k" unicode="k" horiz-adv-x="300" 
d="M79 150q2 3 5.5 8t6 8.5t4.5 7.5l4 26l11 12l13 36q2 18 6 24q9 14 9 17l1 11q4 6 6 8q1 5 13 26l10 21v8q35 62 46 78l15 23l18 29l5 2q7 9 9 12q7 9 18 9q13 0 13 -26q0 -13 -25 -88l-18 -45q-21 -42 -25 -45q-6 -12 -8 -14q-7 -6 -9 -13l-10 -17l-2 -4
q-15 -20 -19 -24l-12 -18l-4 -1q-19 -24 -22 -28q-3 -1 -10.5 -12t-8.5 -14l-4 -10l-5 -7q-4 -1 -4 -18q0 -3 -4 -10t-5 -11l-4 -20l4 9l9 14q10 6 15 12q12 12 27 16q8 2 18 10l3 2q9 9 17 9q5 0 10 -9.5t5 -19.5q0 -11 -9 -29q-1 0 -11.5 -9.5t-14.5 -10.5l-18 -11l-3 -5
q11 -9 11 -15t14 -10q11 -3 14 -24q6 -12 26 -12q14 1 36 13q10 5 25 17q25 21 28 21q4 0 4 -7q-8 -8 -26 -23q-46 -41 -81 -41q-9 0 -21 7.5t-16 14.5l-9 1q-7 11 -9 12l-13 10v5l-7 8l-9 6l-19 -4q-14 -12 -21 -21l-14 -27l-3 -1q-6 -20 -11 -20q-3 0 -9 3.5t-6 5.5t2 9.5
t2 11.5l22 46q8 17 8 21q0 12 1 13q8 6 12 24q0 4 -4 4q-9 -7 -54 -52l-15 -13q-5 -7 -9 -7q-8 0 -8 5l6 7q3 1 7 5t7 8l2 4l37 34l12 17q6 4 22 25zM267 489q-10 0 -18 -24q-13 -19 -14 -26q-17 -28 -19 -39l-21 -50l-6 -7q-7 -16 -9 -22l-37 -82q-6 -12 -6 -17q0 -9 1 -9
q2 0 8 8t6 10l5.5 5.5t6.5 7.5q1 4 8 10t10 10q18 27 54 99l20 47l1 7q7 10 9 22q5 15 5 34q0 16 -4 16zM166 136q-6 0 -12 -2t-9 -4.5t-6 -6t-4 -3.5l-29 -27l2 -12q10 -5 13 -5q2 0 7 2t11 4l9 3l23 12l7 8l6 3l-5 19q-1 9 -13 9z" />
    <glyph glyph-name="l" unicode="l" horiz-adv-x="233" 
d="M84 165l17 40l3 10l4 6q4 6 8 12.5t4 8.5l16 33q1 2 10 14l8 12l8 19l-1 8q0 1 10 28q3 8 13 22.5t13 15.5q4 3 12 30q0 9 6 12q1 2 7 9t6 11q7 16 9 18q8 8 9 22q2 11 18 27q13 13 28 13q10 0 18 -10t8 -21q0 -8 -4 -26.5t-8.5 -35.5t-4.5 -19q-2 -3 -10 -18t-10 -19
q-3 -19 -23 -51l-26 -36v-5q-11 -9 -13 -13q-6 -18 -14 -22l-18 -25q-19 -18 -23 -25q-7 -10 -23 -24q-14 -11 -21 -21l-9 -12l-5 -10q-4 -4 -9 -22t-6 -31q-6 -14 -6 -33q0 -22 2 -26q4 -10 6.5 -14t10.5 -8.5t20 -4.5q18 0 27.5 3t26.5 15t28 18q5 2 14 11t12 9q6 0 6 -6
q-3 -5 -12 -12.5t-10 -8.5l-31 -22q-3 -1 -17.5 -9.5t-21.5 -10.5q-19 -7 -35 -7q-9 0 -25 4q-4 1 -9 4.5t-7 6.5l-3 3q-4 5 -7 11q-7 11 -7 37q2 26 10 57q-3 0 -5 -2t-5.5 -6t-7.5 -7q-40 -39 -48 -44q-2 -2 -5 -2q-6 0 -6 5q0 1 3 4l27 26q1 1 5 4.5t6.5 6t3.5 5.5
q29 28 53 68zM285 498q-16 0 -26 -15l-21 -44q-6 -7 -6 -8q0 -6 -6 -12q-4 -4 -13 -25q-9 -14 -24 -58l-11 -36l-7 -6l-16 -40q-1 -4 -8.5 -19.5t-10.5 -18.5q-1 -2 -4 -7t-6 -9l-2 -5q0 -3 3 -3q4 0 31 32q1 2 6.5 8t5.5 8q0 1 7.5 10t10.5 12q4 5 9 13t9 14t6 7q9 15 9 17
q0 6 10 16q2 2 13.5 20t14.5 22q39 70 39 103q0 24 -13 24z" />
    <glyph glyph-name="m" unicode="m" horiz-adv-x="455" 
d="M365 11q9 0 17.5 2.5t13 5t13.5 8t12 7.5q5 5 12.5 11t11.5 10l20 20q3 3 6 3q2 0 2 -5t-6 -11l-21 -22l-24 -20q-19 -16 -27 -19q-1 0 -5 -2.5t-8.5 -4.5t-11.5 -4t-14 -2q-19 0 -30.5 14.5t-11.5 23.5l-3 20l1 8q-5 19 -5 26q0 30 -17 30q-10 0 -24.5 -10.5
t-22.5 -21.5q-17 -24 -18 -26q-7 -14 -27 -46q-10 -15 -16 -15q-10 0 -10 12q0 13 5 18l9 21l4 14q7 18 8 22q0 10 6 22q9 18 9 47q0 10 -7 10t-25 -15.5t-21 -21.5l-14 -17l-3 -6q-15 -22 -23 -29q-4 -4 -17.5 -24.5t-14.5 -21.5l-21 -39h-18q-6 0 -6 13q0 3 8 21.5
t11 24.5q1 2 3.5 9t5 12.5t3.5 7.5q2 10 2 12l14 24q5 6 5 27q0 8 -4 8q-3 0 -7 -3t-8.5 -7.5t-8 -9t-6.5 -8.5l-3 -3l-29 -32l-4 -1l-16 -19q-13 -13 -16 -13q-9 0 -9 3q0 1 8 9q14 12 33 37q8 8 14 13q4 7 9 12l6 6l8 14q4 6 17.5 16.5t20.5 10.5q9 0 14.5 -6.5t5.5 -14.5
q0 -4 -1 -9t-2.5 -10t-1.5 -7l-7 -16q-1 -11 -1 -14q0 -1 -2 -5t-4 -8.5t-3 -6.5l-7 -15l3 -4l37 52l10 8l1 8l40 37q24 22 38 22q18 0 22 -19q-2 -26 -5 -40l-4 -16l-7 -24l4 -3l13 15l3 1q5 6 8 8q1 0 23 16.5t31 16.5q7 0 12.5 -4.5t7.5 -8.5l2 -5l-2 -9l7 -3q1 -9 3 -10
v-17l5 -37q1 -10 7 -19t15 -9z" />
    <glyph glyph-name="n" unicode="n" horiz-adv-x="346" 
d="M70 111l-4 -1l-62 -57q-7 -7 -11 -7q-7 0 -7 5l7 7l17 16q5 6 26 26.5t30 31.5q22 28 29 28q3 0 7 -5t4 -6q0 -4 -17 -49l-6 -21h4q5 5 13.5 14.5t15.5 16.5l6 7q9 10 27 25t28 15q20 0 30 -48q3 -30 3 -33q0 -6 7 -25q10 -17 10 -20q3 -5 11.5 -12.5t16.5 -7.5
q17 0 27 6q8 4 32 20q3 2 10 8.5t12.5 10.5t7.5 4q7 0 7 -5q-5 -6 -23 -22l-27 -22q-11 -5 -20 -12q-17 -10 -36 -10q-24 0 -42 21q-6 1 -10.5 12.5t-4.5 19.5l-6 9v5q0 8 -4 10q0 1 -0.5 6.5t-1.5 10.5t-3 9v22q0 20 -10 20q-13 0 -63 -54q-7 -9 -16 -22.5l-11 -16.5
q-1 -6 -15 -34q-11 -15 -18 -15q-4 0 -8.5 3.5t-4.5 7.5q1 9 11 33q8 10 15 31l1 9q11 21 14 27l1 3q1 3 1 5z" />
    <glyph glyph-name="o" unicode="o" horiz-adv-x="243" 
d="M151 54l-4 4q-8 -16 -13 -20q-3 -9 -17 -23q-29 -23 -44 -23h-18l-14 3q-6 4 -12 9q-12 10 -12 26q0 2 -0.5 6t-0.5 5q0 4 1 5l6 9l1 6l-4 6l-4 -2l-10 -10q-1 -1 -6 -1q-2 1 -2 7q0 1 2.5 3.5l5.5 5.5l5 5q3 4 14 15l10 12q6 4 13 16l29 27q34 34 60 34q19 0 32 -16
q5 -7 8 -32q1 -5 1 -15q0 -6 -4 -14.5t-4 -11.5q-1 -4 -1 -12q0 -14 6 -25q5 -12 25 -12q13 0 29 10t22 19q2 0 4 -1.5t3 -2.5l1 -2l-2 -4q-6 -8 -14 -15l-6 -1q-1 -4 -3 -6q-22 -12 -40 -12q-31 0 -43 28zM134 164q-5 0 -15.5 -8t-16.5 -17l-6 -13h-6q-4 -4 -4 -6l-2 -2
l-6 -6t-4 -5l1 -8q0 -3 -6.5 -12.5t-6.5 -11.5l2 -9q-12 -1 -12 -5l1 -12l-3 -6l5 -8l6 -17q7 -7 15 -7q18 0 35 17q4 4 6 8t2 6v2q2 3 7.5 10.5t8.5 13.5t3 13q0 12 -1 22q0 13 8 23l4 9l1 8q4 1 4 5q-1 6 -7.5 11t-12.5 5z" />
    <glyph glyph-name="p" unicode="p" horiz-adv-x="309" 
d="M194 0l3 1q26 0 65 28q26 16 33 24q6 4 12 9.5t9 9.5l2 3q4 1 6 1q3 0 3 -6q0 -3 -8 -11l-25 -21l-29 -24q-36 -19 -45 -22q-1 0 -7 -2.5t-14.5 -5t-16.5 -4.5l-20 -4l-4 -1q-3 -1 -7 -1.5t-7 -0.5q-16 0 -16 11q0 16 20 17l15 -1q15 9 27 34l8 23v22q1 8 1 17
q0 7 -6.5 14t-14.5 7t-20 -6q-3 -7 -20 -15q-25 -25 -26 -29l-34 -39q-10 -7 -16 -20q-2 -2 -12 -27t-11 -30q-1 -4 -7.5 -30.5t-6.5 -27.5q-1 -2 -7.5 -16.5t-8.5 -16.5q0 -1 -5.5 -17.5t-10.5 -32.5t-5 -19l-13 -53q-1 -4 -10.5 -27t-10.5 -27l-7 -14l-5 -4
q-6 -17 -10 -28l-17 -26l-5 -3q-4 -6 -7.5 -11.5t-5 -8.5t-2.5 -4q-5 -5 -5 -6q0 -2 -5.5 -8.5t-8.5 -7.5l-23 -23q-10 -1 -16 -1q-3 0 -8.5 10.5t-5.5 16.5q0 13 8 29q1 2 2.5 8.5t3.5 14.5l3 12q1 7 9.5 29.5t10.5 23.5l2 9q20 36 24 39q2 2 6.5 13t4.5 12q3 3 10 25
q8 4 12 21q4 22 16 34q8 8 8 17q0 2 2.5 6.5t6.5 9.5l3 5q0 2 4.5 8.5t10 13.5t6.5 9l36 59q8 12 14 24l7 24q6 9 6 12q0 4 -1 6q0 3 4 11.5t4 9.5l7 23l5 5l6 21l7 16l-3 1l-33 -31l-1 -4l-22 -20q-11 -12 -16 -15q-5 0 -5 7q0 6 5 8l5 4q5 4 7 6q22 22 31 33l24 27
q5 4 8 6.5t7 8.5t8 10l7 10q10 15 11 23q0 8 13 8q7 0 7 -19q0 -7 -24 -55l-10 -28l-4 -2l-2 -4l-1 -12q-5 -7 -7 -11q-7 -7 -10 -22l-6 -19l4 -1q7 12 7 13t10 12.5t11 14.5l20 19h4l7 6v4q0 3 6 5q4 1 4 10q0 2 12.5 12t16.5 12q3 3 13 9.5t14 6.5q6 0 22 -7q3 -2 5 -5
t3.5 -7t2.5 -6q0 -2 5 -8.5t5 -8.5q0 -7 -3 -11l-4 -20q4 -2 4 -9q0 -5 -7 -22q-1 -2 -4.5 -8t-6 -10t-4.5 -5q-7 -5 -8 -9l-8 -8v-4zM9 -78l5 18l-12 -11q-6 -3 -6 -4q0 -2 -4 -10t-4 -9q0 -2 -4 -9l-8 -14l-4 -7q-2 -1 -9 -11t-8 -12l-20 -38l-8 -21l-1 -7q-9 -16 -11 -19
q-5 -21 -12 -26l-4 -11l-2 -7q-9 -12 -23 -46q-17 -30 -17 -39q0 -11 -2 -19q-2 -3 -6.5 -18t-4.5 -19q0 -12 5 -12q12 0 21 14l14 20l5 1q8 19 12 30q1 4 7.5 19t8.5 23l1 2v2q17 61 21 66q2 2 6 11.5t5 10.5q22 43 23 54l10 27l5 22q13 21 14 27q1 2 2.5 7t3 9.5t1.5 5.5z
" />
    <glyph glyph-name="q" unicode="q" horiz-adv-x="316" 
d="M-5 59l5 8l5 11q4 2 6 7t6 7h9l10 11l6 3q7 4 11 4q7 0 10 3l18 10q1 1 11 6q1 2 19 16q2 2 16 6.5t17 6.5l42 10h25l3 1h7q7 -5 14 -5q17 -8 17 -23q0 -20 -13 -20q-12 0 -12 12q0 10 -1 12q-1 0 -3 2.5t-4.5 4t-4.5 1.5l-20 3l-21 -4q-12 -3 -21 -6q-14 -4 -21 -14
q-2 -2 -12.5 -8t-12.5 -8l-16 -3q-8 -6 -8 -11t-8 -10q-8 -4 -8 -6l-5 -11l-12 -12q-5 -6 -7 -9q0 -1 -2.5 -4t-4.5 -7t-2 -10q0 -17 24 -17q4 0 8.5 2.5t6.5 5.5l2 2h7q6 0 14 11q2 3 17 16l15 13l8 1l17 12l13 17l5 3q10 16 14 16q2 0 4.5 -3t2.5 -6q0 -4 -3 -9l-3 -5
l-19 -35q-6 -20 -11 -24l-7 -11l-7 -15l4 -4h4q3 -4 7 -7q6 -3 14 -3q5 0 8.5 1l7 2t5.5 1l19 4l16 6q14 9 33 17q1 1 9 6l8 4q6 4 18 14t20 18l9 9q3 3 6 3q4 0 4 -5q0 -4 -7 -11l-22 -20l-21 -16q-3 -1 -4 -2q-22 -22 -37 -24l-15 -8l-8 -3q-18 -9 -25 -9l-24 -5h-15v-7
l5 -5q8 -26 10 -41q2 -14 2 -20l1 -4v-19l5 -4v-32l-4 -36l-2 -4q1 -12 1 -18q0 -3 -8 -27q-5 -20 -10 -27q-7 -14 -7 -19q0 -6 -11 -21q-7 -9 -15 -29l-4 -11q-10 -6 -12 -11q-1 -1 -7.5 -10.5t-12 -17t-5.5 -9.5q-7 -13 -18 -15q-6 -1 -7 -8q-1 -2 -2.5 -3.5t-5 -3.5
t-6.5 -5q-12 -9 -33 -9q-3 0 -12 6.5t-9 14.5q0 29 3 53q1 3 2 11.5t2 15t1 7.5q4 16 4 21q0 6 -2 11t-2 8t3.5 8.5t7.5 8.5l4 4l-2 25q0 2 1 5.5t2.5 8l2.5 7.5q1 5 7 21l7 16q0 1 3.5 5.5t3.5 6.5t3 7.5t3 7.5q1 1 12 16.5t13 17.5q8 13 8 20q0 2 4 13.5t4 12.5l9 23v9
q12 20 14 24l8 22q0 5 -2 5q-1 0 -1 10l4 9h7l3 -3l8 19v5l6 9l-4 3l-16 -17q0 -1 -6 -3t-7 -5q-9 -14 -24 -14q-10 0 -42 -21q-17 -12 -40 -12q-6 0 -11 5t-7 10l-2 5v19l4 6v10l8 14zM148 -49l-4 12l-13 17l-12 -32v-5l-4 -5q-4 -5 -7.5 -10.5t-3.5 -9.5l2 -4l-11 -12v-4
l-8 -8q-5 -8 -5 -11q0 -1 -3.5 -7t-3.5 -9q0 -18 -6 -24l-10 -21l-2 -8q-3 -11 -4 -17l-3 -13q-10 -29 -20 -48l-1 -8q-12 -30 -12 -33q0 -18 -2 -22l-4 -11q-3 -6 -3 -10v-23l1 -5q0 -15 2 -17q1 -1 3 -2t2 -2q0 -7 10 -7q16 0 23 4q12 10 13 12t7 6.5t6 5.5l8 12
q5 1 19 22l5 20q11 4 11 8q0 3 1 10t1 8l8 19q0 8 3 12l16 35l1 19l4 5l6 29l3 44l-3 8q-1 52 -3 59l-3 15q-1 2 -4 6z" />
    <glyph glyph-name="r" unicode="r" horiz-adv-x="233" 
d="M122 4q11 0 33 8t41 23q3 3 12.5 9t14.5 12l21 20q4 2 7 2q2 0 2 -5t-6 -11l-23 -22l-25 -20q-3 -1 -4 -3q-13 -13 -29 -17l-12 -9q-4 -1 -12 -5t-16.5 -6t-17.5 -2q-17 0 -22 8q-10 6 -10 17l-12 10q-2 4 -2 12q0 3 -2 10t-2 8q0 7 1 11l5 23l7 5l1 12l6 4l5 17l1 12
q-12 8 -14 8l-6 -3l-7 -14q-2 -6 -18 -27l-15 -18q-21 -21 -27 -26q-3 0 -5 1l-2 4l16 18q16 18 17 21q0 1 4.5 8t6.5 10l12 27l-12 8l-4 8l1 9q12 16 20 16q6 0 12.5 -5.5t7.5 -10.5l8 -8l9 -1l4 -5h19q3 0 9 -8.5t6 -11.5l-4 -12l-21 -41q-5 -6 -5 -12v-5l4 -8v-12l-4 -2
l-1 -11q0 -2 5.5 -9t7.5 -7q1 0 6 -2t8 -2z" />
    <glyph glyph-name="s" unicode="s" horiz-adv-x="180" 
d="M97 -15q-13 -20 -24 -20q-8 0 -12 8.5t-6 10.5q-1 1 -6 2t-7.5 3.5t-2.5 9.5t10 7q2 0 6 -1t8 -1q2 0 6 2q2 8 2 21q0 5 -0.5 13.5t-0.5 13.5q0 8 1 19t1 15t-1 16t-1 21q-3 -1 -7.5 -6.5t-10.5 -13t-8 -10.5l-13 -14l-15 -16l-14 -13q-8 -9 -12 -9q-7 0 -7 5l5 5l26 27
q15 16 42 51q3 2 8 11t7 11l9 20q5 5 7 11.5t3 8.5q19 30 31 30q9 0 9 -7q0 -3 -2.5 -7.5t-5.5 -8.5t-4 -5q-15 -16 -23 -44q0 -3 -1.5 -10.5t-1.5 -9.5q0 -3 -0.5 -7.5t-0.5 -8.5q0 -3 1 -5q0 -4 -1 -12t-1 -13q0 -3 5 -38q0 -7 2.5 -15t2.5 -12q0 -5 -2 -13q12 1 38 20
q5 1 9.5 4.5t9 9t7.5 7.5q13 4 13 11l39 38q3 3 6 3q4 0 4 -6q0 -3 -7 -10l-21 -21q-49 -48 -69 -62q-19 -12 -30 -16z" />
    <glyph glyph-name="t" unicode="t" horiz-adv-x="227" 
d="M28 75l-26 -24q-6 -6 -10 -6q-8 0 -8 5l7 7l16 17l20 21q15 21 25 43q4 9 10 20.5t9 17.5t2 6h4q2 4 2 8q0 2 6 7t6 6l2 13l4 11l-26 4h-38q-16 0 -16 4q0 1 8 4.5t11 3.5l6 -2l4 3q10 0 14 3l23 1h31l14 28q6 3 12 12l11 6l6 19q3 2 8.5 11t8.5 12q5 4 10.5 13t7.5 11
q3 4 8.5 14.5t7.5 13.5q11 17 25 17q10 0 10 -7q0 -3 -1 -6l-2 -4l-1 -1q-1 -1 -2.5 -3t-1.5 -5q0 -4 -7 -8l-6 -4q-1 -4 -9 -8q-10 -6 -20.5 -25.5t-15.5 -25.5q-1 -5 -6 -15t-8 -12l-12 -21l-11 -16q3 -3 20 -3l28 -6l15 1q1 0 10 -0.5t14 -0.5l16 1q11 0 11 -1
q0 -5 -19 -8q-14 -7 -35 -7q-2 0 -12.5 3.5t-14.5 3.5q-3 0 -15 -2t-17 -2l-11 1q-7 -14 -10 -17q-16 -16 -16 -17l-7 -13q-1 -2 -4.5 -12.5t-4.5 -12.5q-12 -17 -16 -54q0 -2 -2 -14l-2 -12l2 -12l-4 -17q4 -2 7 -10l7 -19l9 -3q1 -3 6 -6q7 -5 19 -5q18 2 27 8q1 0 7 3
t7 3t3.5 2t6.5 4.5t7 3.5q1 1 9 6l8 4q6 4 18 14t21 18l8 9q3 3 6 3q4 0 4 -6q0 -3 -7 -10l-22 -21l-24 -20q-3 -1 -4 -3q-13 -13 -32 -18l-14 -11l-19 -6q-19 -7 -34 -7q-22 0 -32 12q-1 2 -8 11.5t-8 12.5q-5 13 -9 34l4 5l1 9q-2 15 -2 18q-5 0 -8 -3z" />
    <glyph glyph-name="u" unicode="u" horiz-adv-x="295" 
d="M29 71l-3 3l-19 -18q-6 -7 -10 -7q-8 0 -8 6l7 6l15 15q31 35 35 41q3 3 11.5 15t16.5 19t17 7t9 -7q0 -2 -3 -7t-4 -8q-1 -2 -7 -8.5t-7 -11.5q-1 -10 -5 -12q-5 -2 -5 -10l-8 -9v-10q-4 -1 -6 -7q-7 -11 -7 -37q0 -5 4.5 -8.5t7.5 -3.5l9 4h10q16 7 19 11q1 1 7 8
t11 11.5t6 4.5q5 0 9 4q1 2 8 9l12 15q2 7 6 8q1 2 4 11t4 11q6 17 16 17q4 0 7 -2t4 -4l2 -2v-13l-3 -2q0 -5 -1 -8l-3 -12q-9 -9 -9 -12v-19l7 -15l-2 -13l5 -2q1 -3 1 -7q4 -9 25 -9q24 5 47 22q4 3 12 9.5t13.5 10.5t6.5 4q6 0 6 -5q-3 -5 -50 -43l-19 -13
q-24 -8 -31 -8q-15 0 -18 5l-6 7l-6 1l-14 11v7l-5 7v15q-11 4 -13 4l-11 -3l-13 -14l-7 -2q-27 -16 -29 -19l-3 -3q-4 -2 -6.5 -4t-2.5 -3t-4 -3t-9.5 -4.5t-7.5 -2.5q-13 0 -20 5q-3 3 -3 8q-2 0 -3 1q-4 12 -4 15q0 22 5 33z" />
    <glyph glyph-name="v" unicode="v" horiz-adv-x="251" 
d="M153 55l-15 -19l-21 -22l-7 -4l-1 -6l-12 -4l-13 -4v-6q-10 -9 -23 -9q-18 0 -27 22q-2 8 -2 17q0 4 1 15t1 19q1 4 2 8.5t6 17.5l-3 3l-30 -27q-6 -7 -10 -7q-8 0 -8 6l7 6l15 14q34 42 38 48l3 3l4 8q9 15 10 15q2 1 4 4.5t5 6.5q12 3 19 3q4 0 4 -14l-12 -26l-6 -15
l-9 -8l-3 -11q-6 -15 -8 -28q-1 -4 -1 -15l1 -21q5 -11 13 -13q8 -1 16 -1q7 0 13 6t12 15t8 11l4 1l1 7l21 33l9 21q2 23 2 29q0 4 5 10t11 6q4 0 9 -4.5t5 -9.5l-12 -40l-2 -9v-15q0 -17 9 -21q3 -8 17 -8q31 0 55 26q3 0 4.5 -1.5t1.5 -3.5v-2l-1 -4q-8 -8 -15 -13l-7 -1
q-2 -4 -5 -5q-20 -10 -34 -10q-31 0 -44 29q-2 0 -5 -3z" />
    <glyph glyph-name="w" unicode="w" horiz-adv-x="391" 
d="M21 73q-21 -21 -27 -26q-3 0 -5 1l-2 4l34 39q2 2 6 9.5t6 9.5q5 3 11.5 16.5t10.5 18.5q1 2 5 9.5t6 10t6.5 5.5t10.5 3q11 0 11 -16q0 -7 -3 -12l-19 -33q-2 -4 -7.5 -12.5t-8.5 -16.5q-5 -10 -5 -17q-2 -4 -7.5 -13.5t-7.5 -21.5q-3 -9 -3 -26l1 -5v-5q4 -10 16 -10
q18 0 37 17l6 3q15 14 55 61l8 12q7 11 23 33q2 3 4.5 8t4 7t5.5 3.5t11 1.5q4 0 4 -14q-4 -13 -9 -20v-5q0 -3 -3 -13.5t-4 -27.5q0 -1 0.5 -4t0.5 -5q0 -3 -1 -5q0 -8 5 -12q5 -21 24 -21l17 4q10 0 14 9q8 3 21 24q3 0 7.5 8t7.5 16l4 8q3 4 4 10.5t1 14.5v10
q2 12 11.5 24t20.5 12q8 0 8 -7q0 -9 -9.5 -26t-9.5 -27q0 -8 5 -12q4 -3 5.5 -8.5t3.5 -5.5q8 -7 27 -7t38 19q6 2 7 2q3 0 5 -5q-31 -33 -54 -33q-17 0 -29 6q-1 5 -13 11q-2 3 -5.5 7t-5.5 7q-1 -3 -5.5 -9.5t-6.5 -12.5q-28 -35 -29 -36t-3.5 -5t-4.5 -5
q-1 -1 -2.5 -3.5t-3.5 -4.5l-2 -2l-25 -11q-3 -1 -7 -1q-21 0 -31 17q-1 0 -1 3l-1 4q-1 1 -3.5 2.5t-3.5 4.5q1 10 1 18q0 10 -2 12t-2.5 9.5t-1.5 8.5l1 14l-4 -3l-23 -24q-2 0 -7 -7q-1 -1 -3.5 -5.5t-6.5 -6.5l-35 -36q-5 0 -23.5 -14.5t-29.5 -14.5t-20 7t-9 15l-3 22
l10 47q8 22 16 31q0 3 -2 3l-1 -2q-2 -1 -4 -3.5t-3 -3.5z" />
    <glyph glyph-name="x" unicode="x" horiz-adv-x="273" 
d="M181 10q19 0 41 11l22 18q14 11 27 22q8 0 8 -7l-29 -26q-10 -7 -19 -15q-1 -1 -8 -1q-1 0 -2 -3.5t-3 -5.5q-30 -18 -40 -18q-31 0 -51 32l-3 2q-5 6 -9 14q-1 10 -7 12l-2 3q-1 3 -2 5.5t-2 2.5l-19 -14q-16 -10 -37 -36l-17 -26l-5 -2q-8 -15 -8 -19q0 -6 -5 -6
q-4 0 -4 8q0 15 13 35q5 9 20 24q5 9 14 13l13 12q5 6 16 8q3 1 6 5.5l5 7.5l1 4l5 2l-1 11l-2 6l2 6l-5 15v10q0 14 -13 14q-3 0 -6.5 -2.5t-7.5 -6t-6.5 -6.5t-4.5 -6l-3 -3l-24 -27l-5 -8l-15 -15q-13 -14 -15 -14q-10 0 -10 3q0 1 8 9q17 15 33 37q7 10 13 15
q4 11 14 16l5 10q15 25 38 25q8 0 16 -8t8 -18q0 -3 -3.5 -6.5t-3.5 -5.5l3 -8l11 -10l1 -7h4l14 17q8 1 12 1q2 0 4 3.5t3 4.5l6 10h8q3 9 10 10q11 0 11 -14q0 -7 -11 -7q-5 -2 -14 -8l-4 -5h-9q-6 -5 -8 -8q-2 -11 -12 -13l-9 -8v-7q1 -9 1 -12q0 -13 4 -20l10 -10l5 -3
q11 -12 14 -14q8 -5 15 -5z" />
    <glyph glyph-name="y" unicode="y" horiz-adv-x="252" 
d="M71 -116l-4 3q-5 -7 -8 -9q-25 -25 -26 -28l-13 -20l-11 -16q-26 -27 -32 -31q-2 -1 -9.5 -14t-15.5 -27t-9 -16q-2 -6 -18 -34t-20 -32q-20 -34 -21 -44l-19 -54q-7 -24 -7 -32q0 -5 5.5 -11.5t8.5 -6.5q16 0 26 16q24 31 26 39l18 36q0 1 26 40l15 30l14 26l5 24l20 33
q1 1 13 32l19 39zM17 60l-5 -1q-12 -11 -16 -11q-8 0 -8 6l7 6l42 39v4l12 17q24 31 30 31q7 0 7 -19q0 -4 -3 -10.5t-6 -11.5l-3 -5l-2 -8l-9 -12q-3 -11 -7 -16q-7 -14 -7 -36q0 -2 1.5 -3.5t3.5 -1.5l2 -1l6 4h10q7 2 10 5l4 8h5q39 39 42 45q1 1 19.5 30t23.5 35l3 6
q12 14 18 14q2 0 3.5 -1.5t1.5 -2.5l1 -2v-21l-17 -29l-2 -6l-15 -22v-10q-5 -6 -6 -6q-2 0 -10 -20t-9 -25q-10 -17 -10 -30q0 -4 -4 -14q0 -3 -5 -18l-3 -9l3 -1q17 12 20 13q10 6 19.5 14t29.5 27t35 32q3 2 8 7.5t8 8t6 2.5q5 0 5 -7q-2 -3 -21 -22l-20 -20
q-5 -2 -22 -18.5t-20 -18.5l-29 -21q-22 -16 -29 -24q-11 -19 -11 -21l-7 -22q-2 -20 -5 -27q-2 -3 -6 -15t-6 -15q-1 -5 -13.5 -22.5t-12.5 -20.5q-1 -6 -14.5 -44t-16.5 -42l-7 -28q0 -7 -6 -21t-13 -21l-22 -33q-3 -2 -5.5 -7t-3.5 -9l-2 -5l-3 -12q-20 -32 -25 -36
q-1 -2 -4.5 -4t-4.5 -4q-7 -9 -30 -24q-1 0 -6.5 -3t-11 -4.5t-11.5 -1.5q-25 0 -25 36q0 21 1 32q1 5 9 29.5t8 25.5q0 2 4.5 12t11 24.5t8.5 20.5l18 29v4l35 58q27 39 33 43q17 17 17 18l9 15l12 8q3 12 7 15q2 3 21 20.5t22 22.5q5 9 23 27l9 25q2 2 13 29q2 8 8.5 17.5
t6.5 12.5t2.5 9t2.5 10v13l9 17l-3 3l-19 -21q-26 -13 -33 -24q-9 -13 -19 -15l-16 -13h-12l-5 3h-6l-4 5l-4 19z" />
    </font>
</defs>
</svg>
