<?xml version="1.0" standalone="no"?>
<!DOCTYPE svg PUBLIC "-//W3C//DTD SVG 1.1//EN" "http://www.w3.org/Graphics/SVG/1.1/DTD/svg11.dtd" >
<svg xmlns="http://www.w3.org/2000/svg" xmlns:xlink="http://www.w3.org/1999/xlink" version="1.1">
<metadata>
Created by FontForge 20170731 at Thu Mar 14 14:35:37 2013
 By Aleksey,,,
Bythebutterflycom
</metadata>
<defs>
<font id="ByTheButterfly" horiz-adv-x="600" >
  <font-face 
    font-family="ByTheButterfly"
    font-weight="500"
    font-stretch="normal"
    units-per-em="1000"
    panose-1="2 0 6 3 0 0 0 0 0 0"
    ascent="800"
    descent="-200"
    x-height="470"
    cap-height="715"
    bbox="-119.056 -217.528 827.533 932.286"
    underline-thickness="50"
    underline-position="-250"
    unicode-range="U+0020-3000"
  />
<missing-glyph horiz-adv-x="364" 
d="M66 633v-600h199v600h-199zM298 0h-265v666h265v-666z" />
    <glyph glyph-name=".notdef" horiz-adv-x="364" 
d="M66 633v-600h199v600h-199zM298 0h-265v666h265v-666z" />
    <glyph glyph-name=".null" horiz-adv-x="0" 
 />
    <glyph glyph-name="nonmarkingreturn" horiz-adv-x="333" 
 />
    <glyph glyph-name="space" unicode=" " horiz-adv-x="300" 
 />
    <glyph glyph-name="exclam" unicode="!" horiz-adv-x="100" 
d="M129 673q-27 -76 -36 -241l-3 -51l-3 -57q-4 -82 -16 -151q-4 -19 -23 -15t-17 23q12 64 16 145l3 56l3 52q9 169 38 253q8 17 26.5 11t11.5 -25zM66 68q6 -6 5.5 -14.5t-6 -13t-13 -6t-14.5 5.5q-4 4 -5 8.5t0 8.5t3 7.5t5.5 5.5t7.5 3t8.5 0t8.5 -5z" />
    <glyph glyph-name="quotedbl" unicode="&#x22;" horiz-adv-x="192" 
d="M110 666l-3 -35l-5 -41l-3 -36q-6 -68 -6 -111q0 -19 -20 -19t-20 19q0 47 6 114q6 43 11 113q1 12 12 16t20 -1.5t8 -18.5zM200 677q-7 -41 -7 -121q1 -87 -2 -126q-1 -12 -12 -16t-20 1.5t-8 18.5q3 38 2 122q0 84 7 127q1 12 12 15.5t20 -3t8 -18.5z" />
    <glyph glyph-name="numbersign" unicode="#" horiz-adv-x="508" 
d="M330 428q-20 0 -29 1q-8 1 -86 10q-26 -99 -34 -141q-2 -6 -4.5 -19t-3.5 -17h75q24 0 38 1q4 22 11 47q9 36 33 118zM36 485q49 9 136 -1l13 -1l6 20q31 116 46 194q4 19 23 15t17 -23q-13 -67 -48 -197l-4 -14q54 -8 78 -9l39 -2q34 113 43 190q1 13 12 16.5t20 -2.5
t8 -18q-9 -74 -41 -186q50 2 153 10q11 1 17 -8t2 -20t-17 -12q-110 -8 -167 -10q-24 -76 -37 -127q-2 -6 -4.5 -19t-3.5 -17q142 2 153 2q12 0 17 -10t0 -20t-17 -10q-7 0 -161 -2q-1 -12 -8 -49l-5 -22q-20 -99 -44 -149q-6 -10 -17 -10.5t-18 8.5t-1 20q25 51 41 138
l11 63q-11 -1 -30 -1h-82q-8 -51 -15 -83q-4 -26 -18 -74q-15 -49 -29 -79q-5 -12 -16.5 -12t-18.5 9t-1 19q16 33 26 73q13 46 17 69q6 29 15 79q-59 1 -112 6q-12 1 -16 12t2 20t18 8q52 -4 115 -6q0 3 3 19t5 24q14 64 34 138h-7q-81 10 -124 1q-19 -2 -23 17t15 23z" />
    <glyph glyph-name="dollar" unicode="$" horiz-adv-x="386" 
d="M386 533q0 9 3 26q4 23 4 26q5 29 0 41q-12 33 -36 44q-21 7 -49 -3q-29 -11 -52.5 -37.5t-28.5 -54.5q-3 -13 -3 -42q2 -30 14 -75l8 -26q7 -26 18 -56l11 -30q2 -6 4.5 -12.5t4 -10.5t1.5 -6q34 -94 41 -142q13 -76 -16 -124q-27 -45 -74 -51q-40 -5 -83 17
q-37 18 -70.5 50t-49.5 64q-8 19 -8 37q0 4 0.5 12t0.5 14v7q0 11 10 16t20 0t10 -18q0 -4 -0.5 -16t-0.5 -14q0 -13 4 -20q12 -25 41 -53t60 -43q36 -17 61 -14q29 5 45 32q21 35 11 98q-7 47 -39 135l-13 34l-13 38q-5 13 -12 35l-11 38q-6 24 -8 34q-11 51 -4 100
q8 38 38.5 72.5t67.5 48.5q43 18 79 3q41 -17 59 -69q7 -18 2 -58q0 -4 -4 -27q-3 -15 -3 -22q0 -12 -10 -16.5t-20 1t-10 17.5zM267 -51q6 -6 5.5 -14.5t-6 -13t-13 -6t-14.5 5.5q-13 13 1 27t27 1zM290 769q8 -9 4.5 -19.5t-13 -13t-19.5 4.5q-8 9 -4.5 19.5t13 13
t19.5 -4.5z" />
    <glyph glyph-name="percent" unicode="%" 
d="M89 561q-3 -5 -9 -19q-8 -21 -10 -46q-2 -24 4 -31q2 -5 11 0q13 4 24.5 21.5t12.5 35.5q0 18 -10 28q-6 6 -23 11zM125 590q5 -3 15 -11q23 -23 21 -59q-1 -29 -19 -56.5t-43 -36.5q-40 -14 -59 16q-13 19 -10 55q1 29 12 58q4 10 7 15q-4 4 -4 12t6 14t14 6q9 0 14 -1
q8 3 16 2q5 0 7 -1h3q15 2 20 -13zM558 175l-8 5l-13 7q-3 -6 -4 -19q-3 -19 -3 -32q12 12 22 29q4 4 6 10zM556 227l3 -7l11 -5l16 -11q10 -7 13 -16q4 -7 1 -17l-3 -8q-6 -12 -11 -19q-15 -25 -31 -40q-11 -11 -21 -14q-19 -7 -33 8q-10 11 -11 31q-2 17 3 45t11 37l24 20
q6 5 14.5 4t13.5 -8zM512 675q-50 -75 -114 -204q-98 -195 -108 -212q-22 -40 -85 -140q-56 -90 -78 -139q-5 -12 -16.5 -12t-18.5 9t-1 19q27 61 80 145q84 136 85 138q24 45 107 210q70 139 115 208q11 16 27 5.5t7 -27.5z" />
    <glyph glyph-name="ampersand" unicode="&#x26;" horiz-adv-x="251" 
d="M212 354h-1h1zM301 677q-34 -131 -62 -191q-5 -12 -16.5 -12t-18.5 9t-1 19q25 55 60 185q2 7 7 11t11 3.5t11 -3t8 -8.5t1 -13zM225 404q-33 29 -85 8q-13 -5 -24 -16l-4 -4q3 -1 8 -1q32 -7 67 -1h1q2 1 4.5 1.5t4.5 0.5l10 2q8 1 16 -2q13 -6 13 -21q0 -9 -8 -17
l-6 -3t-7 -3l-21 -6q-39 -10 -60 -18q-41 -15 -57 -26q-20 -12 -20 -19q0 -11 2 -13h1q5 -3 16 -2q21 3 57 19q19 9 34 14l31 6q19 2 22 -17t-16 -23q-23 -4 -26 -4l-29 -12q-43 -19 -68 -22q-27 -4 -44 8q-22 13 -20 48q1 29 39 51q15 9 43 21l-1 1q-14 3 -22 12
q-20 24 4 52q16 19 45 31q22 8 40 11q50 6 86 -26q9 -8 6 -19t-12.5 -14t-19.5 3zM115 160q-5 -13 -13 -54q-8 -43 -14 -58q-8 -17 -26.5 -11t-11.5 25q5 14 13 52q6 33 14 58q4 12 15.5 13.5t19 -6.5t3.5 -19z" />
    <glyph glyph-name="quotesingle" unicode="'" horiz-adv-x="78" 
d="M69 677q-6 -38 -1 -104q7 -84 7 -110q0 -19 -20 -19t-20 19t-7 107q-5 69 1 113q1 12 12 15.5t20 -3t8 -18.5z" />
    <glyph glyph-name="parenleft" unicode="(" horiz-adv-x="210" 
d="M259 702q-21 -21 -37 -52l-14 -28l-16 -32l-15 -31q-76 -156 -87 -288q-10 -140 75 -284q2 -2 9.5 -15.5t9.5 -15.5l9 -15l10 -16q11 -19 21 -29l10 -13l12 -13q2 -2 7 -6.5t8 -8.5t3 -9q2 -13 -10.5 -20t-22.5 3q-18 15 -30 31q-14 16 -26 35l-13 19l-11 18q-2 5 -11 19
l-9 16q-93 152 -81 306q11 143 91 304l13 29l17 34q30 60 60 90q8 9 19 5.5t14 -13.5t-5 -20z" />
    <glyph glyph-name="parenright" unicode=")" horiz-adv-x="113" 
d="M23 704q68 -83 104 -198q36 -117 35 -232q0 -115 -41 -230q-41 -114 -117 -190q-6 -6 -14.5 -5.5t-13 6t-6 13t5.5 14.5q70 70 108 177q38 108 38 215q2 110 -33 218q-33 110 -96 186q-8 10 -3.5 20.5t14.5 12t19 -6.5z" />
    <glyph glyph-name="asterisk" unicode="*" horiz-adv-x="300" 
d="M201 698q5 -46 3 -108q50 38 60 51q8 12 21.5 9t18 -14.5t-3.5 -22.5q-18 -23 -80 -69q43 -31 80 -45q21 -9 13 -30t-29 -14q-39 14 -82 45q-1 -29 -1 -71q0 -14 -11.5 -20t-23 0t-11.5 20q0 42 1 71q-62 -43 -86 -50q-13 -4 -22 5t-7 22t15 17q21 6 87 52q-56 45 -79 60
q-13 6 -11 19.5t12.5 19.5t22.5 -1q25 -15 70 -51q1 58 -3 101q-1 14 9.5 20.5t23 2t13.5 -18.5z" />
    <glyph glyph-name="plus" unicode="+" horiz-adv-x="635" 
d="M319 443q34 -73 53 -159q19 -17 34 -26q24 -15 69 -30q100 -30 133 18q16 17 7 53t-43 70q-59 63 -197 73h-3t-4 0.5t-5.5 1t-6.5 0.5q-16 2 -19 2q-11 0 -18 -3zM303 280q-32 71 -45 149l-3 -1q-3 -2 -10 -9l-13 -12q-113 -101 -113 -217q0 -78 44 -85q45 -7 88 57
q23 33 36 63q10 25 16 55zM249 443l6 4q-5 32 -7 69l-6 8q-72 96 -128 102q-44 5 -59 -43q-15 -50 15.5 -99t99.5 -49q26 0 79 8zM268 532l1 -2q23 -33 38 -64q62 8 93 53q32 47 32 105q0 62 -28 91q-15 15 -29 16q-18 1 -38 -14q-35 -23 -49.5 -55t-17.5 -82q-2 -42 -2 -48
zM231 588l6 -13q-15 52 -20 103q-6 52 6 82q13 39 55 39q5 0 7 -4t0 -8t-7 -4q-29 0 -40 -29q-10 -24 -5 -75q4 -44 21 -103v4q3 54 19.5 89t53.5 62q26 17 50 15q23 -2 39 -20q32 -35 32 -102q0 -54 -25 -98.5t-71 -64.5q4 0 6 -1q3 0 6.5 -0.5t5.5 -1t4 -0.5h3
q142 -12 207 -77q36 -39 46 -78t-9 -66q-41 -60 -152 -25q-48 17 -71 32l-20 15q7 -41 16 -106q0 -3 -2 -7q-2 -2 -5 -2t-7 2q-25 27 -44 70q-11 17 -22 40q-3 -13 -13 -37q-15 -34 -36 -67q-52 -71 -104 -63q-27 4 -42.5 30.5t-15.5 70.5q0 125 119 229l5 5q-35 -5 -57 -5
q-79 1 -113.5 57t-16.5 112q8 27 28.5 42t47.5 12q46 -4 102 -65l-1 3q-23 44 -44 76q-28 42 -52 61q-28 22 -52 15q-9 -2 -17.5 -11.5t-10.5 -18.5q-3 -10 -12 -6q-6 3 -4 10q4 14 15 26t25 16q31 9 66 -18q27 -22 55 -65q22 -35 45 -77z" />
    <glyph glyph-name="comma" unicode="," horiz-adv-x="100" 
d="M46 89q42 -38 34 -105q-12 -68 -70 -84q-3 -1 -5.5 0t-3.5 3.5t-1.5 5t1.5 4.5t5 3q24 6 39 25t19 46q4 25 -3.5 50t-24.5 40q-4 3 -3 7.5t5 6t8 -1.5z" />
    <glyph glyph-name="hyphen" unicode="-" horiz-adv-x="300" 
d="M43 283q43 -9 108 -6q62 3 110 14q3 1 5.5 0t3.5 -3.5t1.5 -5t-1.5 -4.5t-5 -3q-49 -11 -113 -14q-66 -3 -113 6q-7 2 -5.5 9.5t9.5 6.5z" />
    <glyph glyph-name="period" unicode="." horiz-adv-x="112" 
d="M90 54q15 -13 9 -30.5t-22.5 -22t-31.5 7.5q-14 13 -7.5 31t22.5 22.5t30 -8.5z" />
    <glyph glyph-name="slash" unicode="/" horiz-adv-x="306" 
d="M357 710q-8 -29 -30 -71q-13 -23 -32 -62q-40 -93 -79 -193q-14 -37 -27.5 -70.5t-21.5 -52.5t-9 -23q-24 -59 -60 -175q-45 -142 -58 -180q-9 -21 -30 -13t-14 29q12 32 58 177q31 97 62 180l57 146q50 126 80 193q4 11 34 66q18 33 26 61q3 14 16 16.5t23 -6t5 -22.5z
" />
    <glyph glyph-name="zero" unicode="0" horiz-adv-x="398" 
d="M291 669q0 7 5 12q14 16 28 2q98 -86 80 -264q-13 -133 -80 -268q-35 -69 -81 -106q-65 -55 -137 -29q-43 16 -64 69q-17 41 -18 101q-3 102 24 186q35 109 103 203q40 55 83 80q31 18 57 14zM309 606q-11 22 -24 23q-13 2 -31 -8q-37 -22 -71 -70q-66 -92 -97 -191
q-25 -77 -22 -172q2 -116 56 -134q49 -18 98 22q40 32 70 93q62 126 76 254q11 108 -25 176l-3 -2q-7 -4 -15 -1t-12 10z" />
    <glyph glyph-name="one" unicode="1" horiz-adv-x="181" 
d="M170 675q-30 -122 -52 -336q-24 -231 -55 -342q-2 -7 -7 -11t-11 -3.5t-11 3t-8 8.5t-1 13q27 97 53 336q26 233 54 342q2 7 7 11t11 3.5t11 -3t8 -8.5t1 -13z" />
    <glyph glyph-name="two" unicode="2" horiz-adv-x="474" 
d="M81 527q23 30 94 77q64 43 133 70q85 32 126 11q57 -27 30 -126q-18 -68 -104 -192q-21 -30 -130 -175l-23 -31q25 9 54 16q48 12 75 7q26 -7 42 -17q11 -6 37 -25l18 -14l14 -13q9 -8 6.5 -19t-12 -14.5t-20.5 3.5l-15 12l-17 13l-14 12q-9 7 -16 10l-14 7q-5 3 -17 5
q-18 4 -58 -6q-46 -11 -85 -29l-31 -16l-6 -7q-41 -49 -52 -59l-4 -5l-7 -8q-5 -5 -11 -9q-13 -6 -23 3q-9 6 -8 18q1 34 43 69q18 16 42 29l70 92q110 146 129 174q83 119 99 179q17 65 -10 80t-94 -12q-61 -23 -125 -66q-66 -45 -84 -68q-8 -10 -19 -7.5t-15 12t2 19.5z
" />
    <glyph glyph-name="three" unicode="3" horiz-adv-x="466" 
d="M55 486q23 66 112 130q85 61 157 69q2 0 4 1l8 2q19 4 30 -8q13 -13 10 -38q-1 -16 -12 -40q-16 -36 -51 -94l-19 -32q40 19 76 14q66 -10 83 -105q9 -56 2 -106q-12 -52 -64 -110q-54 -60 -116 -96q-71 -41 -129 -41q-72 0 -102 63q-6 12 1.5 21t18.5 8.5t16 -11.5
q18 -41 66 -41.5t108 36.5q60 35 107 86q47 52 54 93q3 17 2 45q-2 34 -4 47q-10 66 -49 72q-35 5 -93 -34q-11 -7 -35 -25l-23 -33q-41 -57 -67 -83l-3 -4l-6 -7l-11 -8q-13 -5 -22 2q-8 8 -8 18q0 14 15 38q17 25 34 44q27 30 62 60q33 47 72 109q35 56 48 90q7 16 9 29
l-8 -2q-62 -8 -138 -62q-79 -57 -97 -109q-4 -12 -15.5 -13.5t-19 6.5t-3.5 19z" />
    <glyph glyph-name="four" unicode="4" horiz-adv-x="442" 
d="M352 284l8 -1q9 145 21 287q-39 -60 -139 -199q-45 -61 -74 -95q38 10 60 12q51 2 124 -4zM413 703h1l9 10q8 9 19.5 6t14.5 -13t-4 -19q-12 -13 -25 -36q-19 -204 -28 -371q42 -3 72 -3q12 0 17 -10t0 -20t-17 -10q-30 0 -74 3q-4 -74 -10 -206q0 -12 -10 -16.5t-20 1
t-10 17.5q6 135 10 207l-9 1q-69 6 -119 4q-27 -2 -85 -21l-39 -13l-14 -4q-3 -1 -8 -1q-12 0 -18 11q-5 9 -4 16q1 5 7 13q4 4 14 9q1 0 5 2l4 1l3 1q18 13 36 34q36 40 79 99q109 150 152 220l15 27l12 22l2 21q1 8 7.5 13.5t14.5 4.5z" />
    <glyph glyph-name="five" unicode="5" horiz-adv-x="506" 
d="M411 643q-28 -12 -74 -40q-60 -35 -78 -44l-26 -12q56 4 112.5 -17.5t98.5 -60.5q42 -40 62.5 -97t10.5 -117q-11 -60 -58.5 -109t-116.5 -76q-59 -25 -131 -23q-71 3 -117 39q-22 19 -32 33l-9 14q-14 34 -15 36q-6 10 1 19t18.5 9t16.5 -12q2 -4 7 -15t6 -13l5 -11
q8 -13 26 -28q37 -28 94.5 -30.5t114.5 20.5q60 24 101 64.5t49 88.5q15 80 -33.5 146t-127.5 91q-52 16 -105 6q-55 -11 -89 -39l-10 -13q-13 -15 -24 -19t-22 2q-11 8 -9 22q1 7 6 18q3 6 17 27q10 16 19 23q27 22 72 41l30 12q14 5 40 17q21 11 75 42q51 30 79 42
q11 6 20 -1.5t8 -19t-12 -15.5z" />
    <glyph glyph-name="six" unicode="6" horiz-adv-x="475" 
d="M413 664q-102 -34 -184.5 -115.5t-122 -190.5t-14.5 -212q9 -39 32.5 -71.5t53.5 -48.5q74 -41 146 10q66 45 93 133q24 83 -17 127q-49 49 -179 12q-59 -16 -96 -54q-14 -12 -28 2t0 28q46 43 112 62q152 45 220 -23q28 -28 35 -76t-9 -89q-13 -46 -42 -88
q-28 -39 -66 -67q-95 -65 -189 -13q-38 21 -66 61t-38 85q-22 90 -1 179.5t70.5 166t122.5 135t155 85.5q11 4 19 -3.5t6.5 -19t-13.5 -15.5z" />
    <glyph glyph-name="seven" unicode="7" horiz-adv-x="506" 
d="M50 647q20 2 56 0q39 -1 54 0q15 0 68 7q81 10 107 12q68 6 104 5q27 0 40 -4q23 -5 32 -18q7 -11 3 -27q-4 -11 -10 -21q-10 -18 -30 -45q-29 -35 -56 -67q-57 -66 -84 -102q-143 -187 -161 -336q-4 -20 -23 -16t-17 22q24 136 97 250q39 62 72 104q27 36 86 104
q36 42 54 66q20 25 27 40q3 3 4 7h-3q-11 3 -32 3q-32 1 -99 -5q-15 -1 -107 -11q-61 -8 -70 -8q-18 -2 -56 0q-36 1 -54 0q-12 0 -17 9.5t-1 19.5t16 11z" />
    <glyph glyph-name="eight" unicode="8" horiz-adv-x="409" 
d="M411 578q13 3 21 -7.5t1 -21.5q-10 -18 -17 -27l-19 -25q-9 -13 -23 -28l-23 -26q-5 -6 -28 -29q-21 -21 -25 -26l-29 -28l-26 -26q52 -58 73 -107t8 -102q-10 -48 -60 -83q-49 -32 -103 -40q-63 -8 -96 20q-42 34 -27 102q19 79 150 211l-1 1q-62 66 -82 99
q-37 61 -16 115q33 83 97 123q64 42 128 34q67 -10 89 -70q10 -23 8 -59zM215 306q-123 -126 -137 -190q-10 -45 12 -63q22 -16 65 -12q46 6 84 32q40 27 47 60q9 42 -8.5 82t-62.5 91zM347 500q36 76 19 123q-14 38 -58 44q-46 7 -101 -28q-53 -35 -80 -103q-15 -36 12 -80
q14 -24 77 -92q94 93 130 134q1 1 1 2z" />
    <glyph glyph-name="nine" unicode="9" horiz-adv-x="400" 
d="M334 470q9 66 23 99q1 1 1 3q5 8 13 9v1q-7 33 -34 66q-43 53 -89 34q-45 -20 -87 -99q-40 -73 -58 -162q-19 -87 -6 -130q10 -34 42 -43t64 12q49 35 95 123q14 24 36 87zM312 328q-43 -70 -87 -100q-44 -33 -96.5 -18t-69.5 69q-16 52 4 150q21 93 63 173
q50 91 106 116q72 34 137 -44q26 -33 37 -69.5t9.5 -69t-3.5 -71.5q-2 -21 -21 -19q-14 2 -18 13l-12 -93q-15 -78 -32 -173q-23 -130 -34 -180q-4 -19 -23 -15t-17 23q9 40 32 168q5 28 11 62t9.5 51.5t4.5 26.5z" />
    <glyph glyph-name="colon" unicode=":" horiz-adv-x="95" 
d="M86 471q15 -13 9 -30.5t-22.5 -22t-31.5 7.5q-14 13 -7.5 31t22.5 22.5t30 -8.5zM90 74q15 -13 9 -30.5t-22.5 -22t-31.5 7.5q-14 13 -7.5 31t22.5 22.5t30 -8.5z" />
    <glyph glyph-name="semicolon" unicode=";" horiz-adv-x="140" 
d="M86 79q39 -56 31 -109q-8 -48 -57 -94q-13 -14 -31 -7.5t-22 22.5t9 31q33 32 38 59q4 25 -20 62q-12 16 -2.5 32t26 17.5t28.5 -13.5zM94 471q15 -13 9 -30.5t-22.5 -22t-31.5 7.5q-14 13 -7.5 31t22.5 22.5t30 -8.5z" />
    <glyph glyph-name="less" unicode="&#x3c;" horiz-adv-x="467" 
d="M506 439q-45 -24 -153 -76q-101 -48 -145 -71q-2 -1 -53 -29l-34 -18q27 -12 57 -31l58 -35q61 -32 140 -69q73 -34 124 -59q10 -7 10.5 -17.5t-9 -17.5t-19.5 -1l-125 60q-105 50 -139 68q-16 9 -61 37q-35 21 -57 30q-2 2 -18 3q-22 1 -33 16q-13 17 4 32q6 5 15 6
l14 3q32 16 53 28l55 30q56 29 144 71q116 56 154 76q10 6 20 -1t9.5 -17.5t-11.5 -17.5z" />
    <glyph glyph-name="equal" unicode="=" horiz-adv-x="512" 
d="M27 377q52 2 99 -4q20 -1 51 -6l47 -4l132 -6q85 -3 136 -12q20 -4 16 -23t-22 -17q-50 9 -131 12l-135 6l-48 5q-18 2 -50 5q-45 6 -93 4q-13 0 -18 10t0 20t16 10zM67 167q1 0 127 -2q117 -2 164 -5q71 -3 127 -10q13 -1 16.5 -12t-2.5 -20t-18 -8q-71 8 -127 11
q-48 2 -161 4q-24 0 -54 0.5t-47 1t-27 0.5q-11 0 -16 10t0 20t18 10z" />
    <glyph glyph-name="greater" unicode="&#x3e;" horiz-adv-x="456" 
d="M41 488q55 -14 112 -40q73 -36 126 -65q58 -31 102 -52q1 0 4 -1.5t9 -4t13 -5.5q30 -12 38 -16q30 -13 37 -17q8 -4 13 -9l7 -6q8 -10 4 -20q-3 -9 -14 -17q-10 -7 -16 -10l-43 -18l-43 -16l-25 -9q-40 -20 -145 -83q-83 -50 -151 -80q-19 -7 -26 10.5t10 27.5
q50 21 146 77q109 65 148 84q8 4 29 11l43 16q26 10 32 13l-22 10l-38 16l-26 11q-43 19 -107 54q-148 81 -227 101q-7 2 -11 7t-3.5 11t3 11t8.5 8t13 1z" />
    <glyph glyph-name="question" unicode="?" horiz-adv-x="369" 
d="M32 542q53 86 130 126q59 30 124 31q40 0 66 -15q33 -21 33 -63q0 -56 -41 -129q-2 -3 -34 -57q-26 -38 -33 -52q-61 -109 -72 -214q-1 -12 -12 -16t-20 2t-8 18q10 111 78 230q9 17 33 54l34 55q35 64 35 109q0 20 -14 29q-15 9 -44 9q-58 -2 -107 -27
q-68 -35 -114 -110q-7 -10 -17.5 -9.5t-16.5 10t0 19.5zM207 68v-28q0 -12 -10 -17t-20 0t-10 17v28q0 12 10 17t20 0t10 -17z" />
    <glyph glyph-name="at" unicode="@" horiz-adv-x="635" 
d="M397 373v14q0 13 1 18q1 13 6 19l3 5h1q-2 19 -4 27q-7 30 -34 37q-52 12 -94 -19t-64 -91q-20 -56 -14 -103q8 -44 31 -51q39 -13 86 26q39 31 69 84q8 15 13 34zM406 299q-30 -47 -66 -75q-64 -52 -123 -33q-49 16 -58 84q-7 57 15 121q26 70 78 110q52 42 126 25
q51 -10 65 -65q5 -23 5 -81q0 -12 -11 -18v-5v-5q0 -49 20.5 -71.5t58.5 -7.5q23 8 44 45q21 36 33 90t11 97q-2 47 -13 67q-22 42 -64 64q-41 23 -93 24q-114 5 -209 -71q-95 -74 -139 -189q-36 -97 -2 -186q28 -75 85 -109q58 -34 133 -31q72 3 142 36q72 35 120 86
q14 14 28 0t2 -28q-55 -57 -134 -93.5t-157 -40.5q-89 -3 -157 39t-100 127q-39 103 2 214q46 125 153 207q106 84 235 79q134 -7 191 -108q15 -29 17 -87q1 -55 -12 -106q-14 -62 -37 -100q-29 -51 -65 -64q-66 -24 -104 21q-12 13 -20 38z" />
    <glyph glyph-name="A" unicode="A" 
d="M370 155q2 -13 8 -30q10 -34 36.5 -65.5t58.5 -48.5q37 -19 72 -9q38 10 61 57q3 7 2 13t-6 10t-10.5 5t-12 -1.5t-9.5 -8.5q-15 -31 -36 -37q-27 -10 -67 23.5t-51 73.5q-22 69 -8 169l13 64q5 20 15 65l28 112q0 2 0.5 5t1 4.5t0.5 2.5q1 2 1 5l-1 7q-2 6 -6 9
q-7 7 -18 5l-1 -1q-17 91 -73 116q-40 20 -90 0q-48 -18 -101 -71q-47 -49 -85 -133q-38 -86 -51 -174q-14 -99 9 -182q22 -82 92 -126q25 -14 44 -14h21q109 4 163 152v3zM407 519q0 -8 4 -12v-3q-2 -8 -13 -53q-22 -87 -29 -135q-20 -103 -37 -150q-45 -123 -127 -126
q-27 -1 -41 8q-111 69 -83 268q12 82 47 163q33 77 77 122q91 89 146.5 63.5t55.5 -145.5z" />
    <glyph glyph-name="B" unicode="B" 
d="M203 329q1 0 12 7l33 17l25 13l10 5q3 1 35 24l43 31l38 31q29 25 38 37q38 47 44 81q8 37 -18 65q-39 39 -104 16q-49 -16 -90 -60q-1 -10 -5 -32l-9 -40l-10 -40q-2 -10 -7 -24q-21 -85 -35 -131zM492 173q16 30 21 62q7 49 -22 89q-24 33 -56 39q-28 5 -64 -8
q-24 -9 -74 -34q-49 -24 -77 -30q-7 -2 -10 -1q-6 0 -10 4q-4 2 -6 6q-29 -93 -56 -158q10 10 24 18q58 40 125 51q109 15 205 -38zM470 140q-86 45 -177 31q-55 -9 -109 -44q-58 -39 -46 -81q6 -20 48 -23q33 -2 76 5q60 8 116 38t92 74zM37 615q37 29 96 58q37 19 66 25
q42 7 60 -17q8 -13 11 -30q40 31 76 43q88 31 145 -26q19 -19 27 -47t3 -54q-18 -81 -126 -165q25 4 48 0q45 -9 80 -54q41 -53 30 -119q-6 -39 -27 -77q83 -59 98 -149q2 -19 -17 -22t-23 16q-12 71 -80 121q-40 -51 -104.5 -85.5t-131.5 -44.5q-55 -8 -85 -5q-69 4 -83 51
l-3 15l-28 -56q-7 -11 -17.5 -11.5t-17.5 9.5t-1 20q102 193 167 459q1 3 6 22t10.5 41.5t7.5 37.5l3 14q-9 13 0 25l3 3q1 5 1 15q1 20 -4 29q-3 4 -20 1q-24 -5 -56 -20q-56 -28 -90 -55q-9 -8 -19.5 -2.5t-12 15.5t7.5 19z" />
    <glyph glyph-name="C" unicode="C" horiz-adv-x="618" 
d="M502 518l-6 23q-12 47 -21 61q-40 58 -100 64q-55 5 -116 -31q-60 -36 -107 -91q-48 -58 -64 -113q-20 -69 -8 -173q6 -58 37 -109q33 -54 78 -88q103 -76 215 -25q17 8 46 32q31 25 47 41q79 79 85 175q1 13 11 17t19.5 -2t9.5 -17q-8 -112 -97 -201l-51 -45
q-34 -26 -52 -36q-131 -63 -257 29q-53 40 -88 100t-43 125q-13 109 10 189q18 61 71 125q52 63 118 102q74 42 140 35q79 -8 128 -81q12 -18 22 -49q5 -15 11 -47q2 -7 -1 -13t-8 -8.5t-11 -3t-11 3.5t-7 11z" />
    <glyph glyph-name="D" unicode="D" horiz-adv-x="663" 
d="M87 174v14q-15 -22 -11 -50q1 -18 11 -36q1 12 0 36v36zM462 48q-25 -14 -60 -26q-93 -32 -208 -20q-39 6 -72 20q-1 -14 -7 -36q-2 -7 -7 -11t-11 -3.5t-11 3t-8 8.5t-1 13q5 27 8 49q-41 33 -49 87q-9 71 50 109l-4 99q-1 25 -2.5 63.5t-1.5 41.5q-2 134 2 203l-36 -9
q-7 -2 -13 1t-8.5 8t-3 11t3.5 11t11 7q34 10 50 13v3q1 8 7.5 13.5t14.5 4.5q13 -1 17 -13q104 18 191 -6q64 -18 125 -58q64 -41 110 -96q110 -131 88 -266q-14 -81 -101 -167q-18 -19 -39 -35q42 -38 76 -75q8 -9 3.5 -19.5t-14.5 -12.5t-19 6q-30 34 -81 79zM466 97
q18 13 42 36q78 77 89 145q20 119 -79 234q-42 49 -101 88q-57 37 -113 54q-81 22 -183 3q-6 -76 -4 -196l5 -105l4 -98q41 10 84 -2q103 -28 256 -159zM429 76q-141 117 -229 142q-40 11 -73 -2v-42q0 -103 -1 -109q29 -17 73 -23q54 -6 103 0q48 4 86 18q31 10 41 16z" />
    <glyph glyph-name="E" unicode="E" horiz-adv-x="569" 
d="M393 484q-30 8 -88 -34q-35 -25 -64 -54q32 6 68 24q51 25 77 54q7 9 7 10zM457 659q-35 10 -87 -9.5t-103 -59.5q-51 -42 -77.5 -88.5t-18.5 -82.5q3 -14 13 -20l2 -2q52 55 96 85q74 54 124 40q30 -9 29 -36q-2 -19 -19 -38q-32 -34 -90 -63q-63 -32 -112 -33
q-9 0 -14 1l-16 -20q-65 -77 -97 -142q-35 -71 -26 -100q12 -40 63 -52q46 -12 96 0q116 29 206 122t120 210q2 7 7 11t11 3.5t11 -3t8 -8.5t1 -13q-32 -127 -129 -228t-225 -132q-59 -15 -116 -1q-73 18 -91 79q-14 47 29 130q35 72 101 150l6 8q-20 14 -28 44
q-11 50 20 106t91 104q59 46 116 67q62 23 109 9q13 -3 14.5 -14.5t-6.5 -19.5t-18 -4z" />
    <glyph glyph-name="F" unicode="F" horiz-adv-x="534" 
d="M104 654q104 -26 260 12l35 10l50 14l51 12q16 2 20 2q4 2 9 0q13 -2 17 -12q3 -5 2 -11q0 -1 -2 -7l-3 -7l-9 -21l-30 -61l-21 -41l-18 -38l-9 -17q-47 -109 -87 -220q54 7 110 56q8 8 19 4t13 -14.5t-6 -19.5q-71 -62 -150 -67q-25 -71 -26 -73q-29 -79 -66 -119
q-76 -87 -215 -37q-12 4 -13.5 15.5t7 19t20.5 3.5q113 -41 171 25q23 25 40 62t40 105l-12 2q-12 2 -42 6t-64 9q-12 1 -15.5 12t3 20t18.5 8l44 -8q70 -9 81 -10q45 129 94 237q2 7 8 17l19 40l21 41l28 57l-37 -9q-10 -2 -51 -14l-34 -9q-167 -42 -280 -12q-7 2 -11 7
t-3.5 11t3 11t8.5 8t13 1z" />
    <glyph glyph-name="G" unicode="G" 
d="M379 303q25 19 47 25q29 9 83 9q25 -1 38 0q40 2 75 26q9 8 19.5 2t11.5 -16.5t-9 -17.5q-41 -29 -89 -33v-2q-7 -113 -84 -205q-64 -78 -140 -97t-137 15q-62 32 -103 101t-50 157q-21 214 84 347q31 39 72.5 67.5t83.5 38.5q52 13 96.5 -5.5t73.5 -69.5q14 -23 24 -77
l4 -20q3 -13 -5.5 -20t-19.5 -4t-14 14q-2 18 -9 48q-5 18 -14 39q-43 76 -126 56q-37 -7 -73 -33q-33 -23 -61 -58q-96 -121 -76 -319q8 -78 43.5 -139t87.5 -88q118 -57 229 73q66 78 74 180h-7q-29 0 -38 -1q-33 0 -67 -25q-9 -8 -19.5 -2.5t-12 15.5t7.5 19z" />
    <glyph glyph-name="H" unicode="H" horiz-adv-x="469" 
d="M464 678q-5 -36 -21 -107q-16 -70 -21 -104q-5 -23 -6 -46l23 9q11 5 19.5 -2.5t7.5 -19t-13 -16.5q-25 -10 -41 -13q-13 -160 13 -374q1 -12 -8 -18t-20 -2.5t-12 16.5q-25 200 -14 369q-40 -6 -63 -7l-76 -3q-49 0 -61 -1l-5 -85q-11 -186 -22 -267q-1 -12 -12 -15.5
t-20 2.5t-8 19q12 93 22 264l5 81q-13 3 -15 17q-1 8 4.5 14.5t13.5 7.5q6 83 15 147q3 18 5.5 37t4 26.5t1.5 8.5q3 28 3 46v1l-21 -15l-29 -23l-11 -9q-2 -1 -5.5 -3.5t-5.5 -3.5q-4 -2 -15 -4.5t-20 -4.5l-9 -1q-19 -2 -23 17t15 23l16 2l11 1l9 3l2 2l11 9l30 24
q17 13 33 22q16 7 17 7q15 3 25 -6q9 -9 10 -22q2 -8 0 -20q0 -22 -4 -50q0 -7 -10 -73q-9 -64 -15 -139q14 1 65 1q91 2 135 11l8 62q3 26 22 107q16 72 20 104q1 12 12 15.5t20 -3t8 -18.5z" />
    <glyph glyph-name="I" unicode="I" horiz-adv-x="294" 
d="M75 315l6 -2q32 -8 71 -9q-6 121 12 224q9 52 20 93q12 41 20 57q6 14 13 22q11 14 23 15q19 5 30 -11q6 -7 11 -24q6 -29 7 -61q1 -7 1 -108q0 -124 -17 -262q-10 -86 -29 -147q-5 -13 -6 -19q18 -40 37 -65q8 -9 2.5 -19.5t-15.5 -12t-19 7.5q-16 20 -27 43
q-14 -21 -29 -31q-23 -14 -46 -9q-20 5 -36 24q-24 27 -41 89q-11 44 -16 96q-4 46 1 82q-3 5 -1 13q5 17 21 15q5 0 7 -1zM86 271q-6 -70 16 -151q14 -53 32 -73q8 -10 15 -11q7 -2 15 4q17 9 30 43q-28 72 -38 172l-1 9q-41 2 -69 7zM201 263h-5v-4q6 -61 19 -108
q10 43 18 104q16 124 16 256v106q-2 32 -6 50l-3 -6q-10 -22 -17 -51q-12 -49 -19 -90q-18 -100 -12 -217h9q19 0 19 -20t-19 -20z" />
    <glyph glyph-name="J" unicode="J" horiz-adv-x="463" 
d="M432 350q44 14 56 19q11 5 19.5 -2.5t7.5 -19t-13 -16.5l-122 -39l-11 -4q-23 -112 -65 -190q-37 -67 -88 -101q-36 -23 -67 -19q-39 5 -64 45q-48 78 -3 147q34 52 125 97q58 28 128 52v3q-47 -4 -120 -2q-66 1 -118 10q-23 4 -43 13q-23 11 -28 29q-3 11 4 21q3 6 9 12
q11 11 30 24q32 24 90 59l102 63q61 39 74 49q47 37 66 55q18 41 45 63l4 3q8 5 16 3q17 -5 16 -22l-2 -7l-8 -14q-11 -18 -38 -49q-14 -30 -25 -83q-6 -29 -13 -89l-10 -80l-2 -14q4 0 22 4q8 3 15.5 -1t9.5 -12q1 -3 1 -7zM325 273q-55 -20 -101 -42q-82 -42 -109 -83
q-31 -46 4 -103q17 -27 35 -28q19 -2 40 14q42 27 74 87q34 63 57 155zM71 379q18 -7 34 -10q42 -7 111 -9q75 -2 126 2l4 24l10 79q9 70 14 92q4 16 5 24l-16 -13q-19 -15 -77 -51l-102 -63q-37 -23 -88 -58q-18 -14 -21 -17zM64 372l1 2q-1 -1 -1 -2z" />
    <glyph glyph-name="K" unicode="K" horiz-adv-x="400" 
d="M60 604q16 22 54 54q23 19 33 25t17 7q17 4 28 -10q11 -18 7 -56q-1 -27 -12 -69q-4 -16 -17 -66q-3 -11 -5.5 -21t-4.5 -16l-1 -7l-6 -26l53 63l61 72q19 23 46 64q29 43 44 75q9 17 27 8.5t9 -26.5q-20 -41 -48 -82q-21 -31 -53 -71l-62 -74l11 4q52 19 88 0
q35 -20 51 -74q16 -48 20 -127q6 -95 6 -252q0 -19 -20 -19t-20 19q0 157 -6 250q-4 75 -18 117q-14 40 -33 51q-21 11 -54 -2q-45 -18 -103 -65l-15 -14l-3 -4q-46 -205 -50 -318q0 -12 -10 -16.5t-20 1t-10 17.5q5 109 35 252l-11 -11l-4 -4l-7 -3q-12 -3 -20 6
q-7 6 -5 17l2 6l2 3l9 11l22 26l13 13l17 20l22 101l13 45l16 66q10 44 11 64q1 6 1 16q-12 -8 -20 -16q-34 -28 -48 -48q-8 -10 -19 -7.5t-15 12t2 19.5z" />
    <glyph glyph-name="L" unicode="L" horiz-adv-x="400" 
d="M139 209q-26 -19 -43 -36q-30 -30 -44 -60q-12 -28 -1 -46q6 -10 9 -14t5 -3q9 1 22 22q20 32 39 91q3 9 13 46zM191 507l3 19q-41 -23 -88 -23q-12 0 -17 10t0 20t17 10q54 0 103 42q11 37 19 55q30 69 73 79q15 3 25 0q16 -6 18 -24q1 -15 -14 -38q-15 -22 -37 -45
q-40 -42 -49 -50q-3 -13 -14 -63q-10 -54 -21 -137l-12 -86q12 2 16 2q84 2 142 -86q37 -58 63 -152q2 -7 -1 -13t-8 -8.5t-11 -3t-11 3.5t-7 11q-24 87 -58 139q-46 70 -107 68q-11 0 -28 -6q-21 -79 -23 -86q-42 -131 -90 -141q-34 -7 -59 36q-19 37 0 83q16 37 53 74
q40 40 85 63l3 14q3 14 13 93q9 70 22 140z" />
    <glyph glyph-name="M" unicode="M" horiz-adv-x="637" 
d="M33 542q35 14 98 78l21 20l21 22q12 12 17 15q6 4 9 5q10 4 18 1q23 -9 24 -43q0 -9 -1 -14l19 16q38 29 68 27q40 -1 57 -52q15 -45 6 -124l7 14q47 89 88 122q28 23 55 25q32 2 58 -24q34 -34 40 -104q5 -56 -7 -132q-7 -47 -26 -132l-22 -100q-11 -61 -11 -156
q0 -12 -10 -17t-20 0t-10 17q0 98 11 164l23 101q20 86 26 129q11 78 7 123q-4 54 -29 79q-14 14 -27 12q-14 0 -32 -15q-37 -31 -78 -111q-37 -71 -74 -174l-5 -30l-16 -117v-6v-11q0 -10 -3 -16q-4 -7 -13 -12q-8 -3 -17 0.5t-13 12.5q-2 6 -2 9q-1 4 -1 16q0 14 3 40
l8 61q3 15 20 63l10 56q8 33 14 73q17 107 2 152q-8 24 -21 24q-14 1 -41 -19q-33 -24 -63 -66l-5 -15q-1 -6 -3 -8q-20 -88 -43 -252q-32 -229 -37 -256q-5 -18 -23.5 -15t-16.5 23q5 23 37 253q20 145 41 242q-2 2 -3 4t-1 4.5v4.5t1 5t2 5t3 5.5t3.5 5.5l4.5 6t4 6l10 38
q5 20 6 33l-41 -41q-70 -72 -113 -88q-12 -4 -20.5 3.5t-7 19t13.5 15.5z" />
    <glyph glyph-name="N" unicode="N" horiz-adv-x="469" 
d="M23 553l27 30l39 40q57 51 102 37q10 -3 14 -12l3 -9q2 -10 2 -18q2 -22 2 -46v-10q21 45 45 75q51 64 115 60q58 -5 80 -88q9 -38 15 -111q7 -80 -10 -249q-17 -170 -14 -241q0 -12 -10 -17.5t-20 -1t-10 16.5q-3 75 14 247q16 155 10 243q-4 65 -14 102q-15 58 -43 59
q-43 3 -82 -45q-36 -45 -64 -127q-13 -37 -20 -64q-6 -79 -29 -287q0 -3 -6 -55l-5 -36q0 -2 -0.5 -6.5t-1.5 -6.5t-1 -5l-2 -4l-4 -5q-6 -6 -14 -6q-10 0 -16 9q-3 3 -4 7t-1 5v12q-1 11 -1 41q0 72 7 138q11 101 39 206q4 53 5 75q2 38 2 69t-1 41q-2 -1 -14 -3.5t-23 -7
t-19 -12.5q-17 -16 -35 -36q-1 -1 -12.5 -14.5t-14.5 -17.5q-14 -14 -28 0t-2 28z" />
    <glyph glyph-name="O" unicode="O" horiz-adv-x="466" 
d="M247 649q-39 -31 -74 -84q-58 -86 -82 -174q-18 -68 -20 -178q-1 -94 38 -150q44 -62 127 -43q69 15 123 115q55 99 65 220q10 127 -33 207q-47 84 -144 87zM308 680q78 -23 118 -99q50 -92 38 -230q-12 -130 -69 -235q-65 -117 -151 -136q-110 -24 -168 61
q-46 67 -45 172q2 113 22 188q26 96 87 187q76 114 160 132q19 2 23 -17t-15 -23z" />
    <glyph glyph-name="P" unicode="P" horiz-adv-x="566" 
d="M169 276q9 3 17 -2q22 -11 48 -14t49 0.5t57 11.5q75 20 127 69q29 26 45 75t14 101q-2 55 -25 93.5t-62 51.5q-46 16 -142 -19q-61 -23 -79 -40v-2l-8 -49l-3 -12l-2 -12q-1 -3 -1 -6q-7 -41 -18 -127q-9 -72 -17 -119zM124 685l41 13l15 4q2 1 5 1h5q8 0 13 -5
q16 -14 17 -44q18 10 63 27q106 39 168 19q55 -18 84 -68q28 -49 31 -114q3 -60 -16 -117t-55 -90q-60 -54 -145 -77q-38 -10 -61 -14q-74 -11 -123 20q-1 0 -2 1q-22 -139 -60 -240q-4 -12 -15.5 -13.5t-19 7t-3.5 20.5q26 68 44 152q14 64 32 200q20 145 22 161q0 1 1 7
t2.5 13t3.5 12l3 20q-10 10 -4 24q8 14 10 16q1 12 1 31l-2 9l-2 -1l-40 -12q-60 -20 -75 -23q-8 -1 -15 4t-8 13q-1 6 4 15q4 6 13 8t68 21z" />
    <glyph glyph-name="Q" unicode="Q" horiz-adv-x="477" 
d="M361 134q52 94 63 212q11 125 -33 203q-45 83 -143 86q-39 -31 -74 -82q-60 -87 -83 -170q-18 -67 -20 -175q-1 -93 38 -146q43 -60 127 -42q56 10 102 78q-28 39 -79 43q-12 1 -16 12t1.5 20t18.5 8q60 -4 98 -47zM371 27l-12 32q-53 -65 -115 -79q-109 -22 -167 58
q-47 66 -46 170q2 113 22 185q26 94 88 183q41 59 86 93l5 4q36 25 68 32q19 2 24 -16q2 -18 -15 -23q76 -22 117 -97q49 -88 37 -226q-12 -129 -69 -231l-9 -15q9 -17 24 -57q19 -52 33 -67q21 -22 61 -13q19 2 23 -17t-15 -23q-62 -14 -98 26q-19 21 -42 81z" />
    <glyph glyph-name="R" unicode="R" horiz-adv-x="412" 
d="M152 300l49 29q-36 -5 -61 -13l-9 -4l-6 -25q4 1 27 13zM80 599q20 36 67 63t101 35q57 9 104 -10t62 -73q22 -79 -41 -172q-34 -47 -79 -89q68 -39 96 -151q24 -94 18 -222q0 -12 -10 -16.5t-20 1t-10 17.5q5 125 -17 210q-25 106 -89 132l-8 -6q-22 -18 -83 -53
q-33 -17 -52 -24q-1 -1 -4 -1q-14 -74 -19 -113q-2 -12 -7 -68q-5 -48 -9 -71q-4 -19 -23 -15t-17 23q6 26 9 66l7 71q5 37 19 109q-4 3 -7 7q-24 38 1 69q10 11 27 22q41 166 98 290q5 12 16.5 12t18.5 -9t1 -19q-49 -108 -88 -256q68 20 108 12l3 -1q54 49 87 96
q53 77 36 139q-10 33 -42 47t-80 7q-46 -8 -85.5 -30.5t-54.5 -48.5q-6 -10 -18 -9t-17 9.5t1 19.5z" />
    <glyph glyph-name="S" unicode="S" horiz-adv-x="527" 
d="M406 494l12 23q20 39 35 100q8 37 8 56q-1 21 -9 27l-5 3q-1 0 -4 -3q-10 -11 -19 -45q-12 -48 -16 -102q-2 -30 -2 -59zM175 143l48 61l-26 76q-17 45 -33 52q-14 7 -23 2q-11 -8 -15 -29q-13 -52 7 -135q8 -31 18 -55zM205 117l-34 -40q12 -18 25 -31q43 -39 95 -3
l10 9q-36 42 -62 107zM369 346q-46 -76 -101 -149l3 -9q26 -68 56 -104q35 63 41 190q1 22 1 72zM33 -19q37 46 71 83l18 19q-18 38 -28 77q-23 93 -7 155q9 37 32 52q27 18 63 1q29 -13 52 -73l18 -52q65 90 116 180l-1 5q-2 98 1 129q4 60 17 108q10 41 27 61q14 16 29 17
q20 2 35 -11q22 -18 24 -57q2 -31 -8 -68q-13 -58 -38 -108q-30 -58 -46 -87q1 -88 0 -139q-8 -149 -52 -217q28 -22 61 -29q66 -14 130 20q11 7 20.5 0.5t9.5 -17t-10 -17.5q-42 -23 -76 -29q-37 -5 -82 5q-43 9 -78 36q-9 -9 -18 -14q-78 -55 -144 6q-15 15 -26 30
l-10 -10q-51 -56 -68 -80q-8 -10 -19 -7.5t-15 12t2 19.5z" />
    <glyph glyph-name="T" unicode="T" horiz-adv-x="351" 
d="M120 599q48 0 89 22q12 6 41 24q28 17 50 27l24 11q1 1 2 1q1 1 3 1l5 1l16 6l2 2l4 2l3 4q8 5 13 6q9 2 16 -1q8 -5 11 -12q8 -17 -5 -35l-9 -12q-38 -90 -48 -137q-12 -57 -12 -153v-70q-1 -68 -15 -123q-12 -54 -46 -103t-78 -58q-40 -9 -78 17q-32 21 -54.5 61.5
t-28.5 84.5q-1 13 8 19t20 2.5t12 -15.5q4 -35 22.5 -68t43.5 -51q23 -16 47 -11q29 6 54 43q48 68 53 203v68q0 102 12 162q12 51 45 129q-1 0 -2 -1q-3 0 -4 -1h-1l-17 -8q-30 -15 -47 -26q-34 -20 -43 -24q-51 -27 -108 -27q-12 0 -17 10t0 20t17 10z" />
    <glyph glyph-name="U" unicode="U" horiz-adv-x="500" 
d="M151 677q-84 -223 -84 -464q0 -46 11 -103q8 -36 17 -53q9 -15 16 -15q32 0 76 53q38 47 81 134q23 47 48 110q10 65 31 143q40 152 90 217l3 3q4 4 12 6q15 2 21 -13q3 -5 -1 -22t-18 -54l-19 -53l-1 -1v-2l-3 -10l-21 -69q-26 -83 -55 -156q-12 -74 -12 -133
q-1 -138 48 -172q59 -39 192 70q10 8 20.5 3.5t12 -14.5t-6.5 -19q-157 -129 -240 -73q-67 46 -66 205v15q-43 -87 -85 -140q-55 -67 -107 -68q-31 0 -51 36q-14 24 -21 64q-12 57 -12 111q0 247 86 478q4 12 15.5 13.5t19 -7t3.5 -20.5z" />
    <glyph glyph-name="V" unicode="V" horiz-adv-x="432" 
d="M22 503q-1 33 18 73.5t49 74.5q29 33 56 46q18 8 32 4q19 -5 27 -24q11 -26 6 -74l-4 -36l-3 -30l-11 -98l-12 -105q-3 -42 -2 -93q2 -59 11 -99q11 -56 32 -89q34 -48 72 -4q25 28 46 87q1 2 16 61q16 61 16 63q19 86 30 150q8 44 19 130q11 88 23 132q1 11 12 14t20 -4
t6 -20q-13 -60 -22 -127q-13 -103 -18 -131q-11 -61 -30 -152l-17 -66q-9 -36 -17 -64q-25 -66 -54 -100q-33 -37 -70 -34.5t-65 43.5q-25 37 -39 103q-10 49 -11 105q-1 58 3 98l12 107q9 84 10 97q0 3 2 16.5l4 27t2 21.5q3 38 -5 56l-2 -1q-2 -1 -3 -1q-17 -7 -42 -35
q-25 -30 -41.5 -63.5t-15.5 -56.5q0 -13 -10 -18t-20 0t-10 16z" />
    <glyph glyph-name="W" unicode="W" horiz-adv-x="700" 
d="M26 450q15 40 70 125q21 33 46 63q13 15 22 20q17 14 32 6q17 -8 24 -28q4 -10 6 -27q3 -26 -9 -103l-6 -36l-6 -37l-4 -24q-10 -84 -10 -227q0 -11 -1 -25q-2 -48 3 -73q5 -26 13 -36q7 -9 23 -4q12 5 30 43q17 33 36 100q6 19 29 110q16 67 19 75q10 31 26 87
q11 42 16 56l2 6q0 2 1 3l1 2l2 3q5 5 12 6q16 1 22 -13q1 -2 1 -7v-3l-4 -13q-8 -23 -23 -112q-12 -72 -17 -160q-4 -95 11 -146q7 -24 20 -35q11 -9 25 -5q30 6 51 64q4 11 10 33q4 13 9.5 39.5t6.5 29.5l13 65q21 91 25 107q13 49 28 91q68 185 180 197q12 1 18 -8t2 -20
t-16 -12q-88 -9 -146 -171q-16 -45 -27 -88q-13 -50 -24 -104l-15 -67q0 -1 -5 -26q-13 -56 -21 -80q-29 -79 -81 -90q-35 -8 -59 15q-21 17 -32 53q-15 48 -13 136l-8 -29q-18 -63 -38 -106q-25 -55 -55 -64q-40 -12 -64 15q-17 20 -23 56q-6 34 -4 83l1 22q0 145 10 231
q0 6 7 44.5t9 54.5q12 70 9 93l-3 17l-11 -10q-14 -16 -43 -59q-50 -76 -65 -117q-8 -17 -26.5 -11t-11.5 25z" />
    <glyph glyph-name="X" unicode="X" horiz-adv-x="543" 
d="M544 680q-9 -11 -32 -42l-35 -51l-31 -47l-129 -182q119 -202 210 -327q7 -10 1.5 -20.5t-15.5 -11.5t-18 8q-92 125 -203 315l-222 -304q-6 -10 -17.5 -8t-16 11.5t1.5 20.5l223 306l9 12l-57 99q-22 38 -56 110q-31 66 -56 105q-9 17 7 27.5t27 -5.5q21 -34 58 -110
q39 -81 54 -107l48 -83l119 168l29 44l36 54q16 22 35 44q8 9 19.5 6t14.5 -13t-4 -19z" />
    <glyph glyph-name="Y" unicode="Y" horiz-adv-x="473" 
d="M321 292l6 36q-65 -88 -106 -186q-10 -24 -12 -62q-1 -22 3 -32q2 -6 5 -6q24 -2 41 24q12 18 26 59q17 54 37 167zM35 597l21 19l24 23q28 26 51 38q18 11 33 17l14 5q3 1 8 1q4 1 8 0q12 -3 15 -16q1 -3 -1 -11q0 -1 -2 -7q-1 -6 -6 -17l-22 -49q-35 -77 -55 -137
q-25 -81 -18 -124q4 -22 16 -32q15 -12 43 -12q15 0 43 28q28 27 62 75l37 55l37 61l20 33q12 19 40 72l5 13q1 5 4 8l4 5q12 11 25 2q7 -4 9 -13v-5q0 -5 -3 -15q-1 -6 -6 -19l-18 -53l-24 -72q43 41 91 76q16 11 27 -4.5t-3 -27.5q-71 -51 -134 -122q-1 -4 -4 -21
t-7 -39.5t-8 -46.5q-19 -108 -39 -172q-13 -43 -31 -70q-30 -44 -76 -41q-30 2 -41 32q-7 17 -5 48q3 46 16 76q56 134 158 253l9 41q-29 -47 -51 -77q-36 -53 -66 -81q-41 -39 -71 -39q-42 0 -68 21q-24 19 -30 56q-10 51 19 144q17 53 56 140l13 28l-3 -1q-14 -8 -44 -33
l-23 -22l-21 -21q-14 -12 -28 2t0 28z" />
    <glyph glyph-name="Z" unicode="Z" horiz-adv-x="718" 
d="M598 402q-224 -38 -357 -183q-38 -41 -61 -97q-26 -66 9 -89q26 -18 85 0q34 11 93 42q60 32 114 83q52 49 83 109q36 67 34 135zM189 351h4q4 -1 8 -1q21 -3 56 17q36 22 67 56q64 67 84 123q-79 -33 -157 -107q-27 -27 -44 -49q-11 -15 -16 -29q-2 -8 -2 -10zM27 494
q9 47 53 94q45 47 104 77q40 20 79 29t80.5 2.5t70.5 -33.5q27 -25 36 -62q98 20 145 -58q27 -45 38 -95q47 6 115 8q19 0 19.5 -20t-19.5 -20q-66 -2 -110 -8q3 -80 -38 -160q-33 -63 -90.5 -118t-124.5 -91q-64 -33 -99 -44q-77 -24 -119 4q-62 42 -24 137q24 64 68 111
q144 155 382 195q-7 41 -32 81q-34 55 -108 38q-2 -12 -4 -17q-7 -29 -34 -70.5t-62 -77.5q-42 -44 -76 -64q-44 -27 -82 -22q-3 0 -6 1q-6 0 -9 1q-17 3 -24 16q-12 20 -3 46q6 19 22 39q17 23 48 54q82 82 174 118l14 6q-4 23 -25 42q-66 57 -184 -3q-53 -27 -91 -67
t-44 -77q-5 -18 -23.5 -15t-16.5 23z" />
    <glyph glyph-name="bracketleft" unicode="[" horiz-adv-x="178" 
d="M211 663h-20q-23 1 -51 0q-44 -2 -58 -11q-3 -3 -5 -11q-5 -12 -6 -33q-5 -39 0 -102q1 -35 8 -108q7 -59 7 -72q2 -62 2 -166q0 -2 -0.5 -12.5t-1.5 -28.5t-1 -38l-2 -59q-2 -70 -2 -84v-28q0 -4 1 -5q10 -13 49 -16q22 -2 40 -2q4 1 17 1h17q19 0 19 -20t-19 -20h-16
q-13 0 -18 -1q-18 0 -44 2q-61 6 -81 36q-2 3 -4 13q0 6 -1 11v30q0 11 2 85q0 10 0.5 23t1 21.5t0.5 13.5q0 19 1 37t1.5 28.5t0.5 12.5q0 104 -2 164q0 8 -6 70q-7 78 -9 110q-5 68 0 108q1 24 8 42q7 21 21 32q23 15 79 17q11 1 27 1q7 0 24.5 -0.5t20.5 -0.5
q19 0 19 -20t-19 -20z" />
    <glyph glyph-name="backslash" unicode="\" horiz-adv-x="303" 
d="M48 678q35 -67 150 -331q52 -120 62 -145q22 -56 47 -126q28 -76 46 -151q3 -13 -6 -20t-20 -4t-12 14q-17 70 -46 148q-26 74 -47 124l-60 144q-103 240 -150 329q-6 10 1 20t17.5 9.5t17.5 -11.5z" />
    <glyph glyph-name="bracketright" unicode="]" horiz-adv-x="174" 
d="M-12 666q62 6 81 7q30 1 49 0l20 -3q16 -5 20 -16q8 -19 -2 -58t-10 -43q-1 -6 -1 -46v-44l6 -203l6 -189q3 -146 6 -179v-1q1 -1 3 -8q5 -20 -8 -30q-7 -5 -17 -8l-19 -4l-44 -3q-13 -1 -75 -1q-19 0 -19 20t19 20q61 0 74 1l40 3q5 0 7 1q-1 3 -1 6q-3 34 -6 183
l-6 187l-6 205v44q0 43 1 50q0 2 11 49q5 18 5 27h-7q-16 1 -44 0q-19 -1 -79 -7q-12 -1 -18 8t-2.5 20t16.5 12z" />
    <glyph glyph-name="asciicircum" unicode="^" horiz-adv-x="356" 
d="M28 303q6 38 53 145q39 89 70 140l23 40l17 26l9 10q2 3 5 5q9 5 17 4q9 -1 17 -12l7 -13q4 -9 9 -28q3 -9 7 -27l2 -8v-3q19 -58 55 -150q45 -114 55 -152q4 -12 -4.5 -20t-19.5 -6t-14 14q-17 55 -55 150q-36 94 -55 153q0 1 -1 2v1v2l-2 8l-6 25l-3 8l-6 -10l-23 -39
q-31 -53 -68 -137q-45 -104 -49 -134q-1 -12 -12 -15.5t-20 3t-8 18.5z" />
    <glyph glyph-name="underscore" unicode="_" horiz-adv-x="521" 
d="M12 -89q31 0 269 2q119 1 269 1q12 0 17 -10t0 -20t-17 -10q-150 0 -269 -1q-238 -2 -269 -2q-12 0 -17 10t0 20t17 10z" />
    <glyph glyph-name="grave" unicode="`" horiz-adv-x="127" 
d="M71 690q20 -31 28 -46l23 -37q8 -12 0.5 -23t-19.5 -11.5t-21 10.5q-1 1 -4 7t-8 14l-10 16q-18 31 -27 44q-8 11 -1.5 23t18.5 13t21 -10z" />
    <glyph glyph-name="a" unicode="a" horiz-adv-x="366" 
d="M302 356q13 44 -4 71t-65 9q-36 -10 -73.5 -54.5t-60 -99.5t-33 -111.5t7.5 -90.5q13 -31 32 -38q22 -9 59.5 17t61.5 64q15 23 29 56l5 20t11.5 45t15.5 60v4q0 2 0.5 8t0.5 11q1 19 13 29zM339 343v-1v-1v-1v-1l-1 -2l-1 -7l-5 -24q-10 -51 -14 -64q-12 -48 -23 -75
q-6 -35 -7 -48q-5 -53 8 -75q10 -21 43 -16q19 2 22 -17t-16 -23q-61 -10 -85 38q-12 25 -13 56q-41 -53 -88 -73q-36 -16 -68 -4q-34 13 -53 59q-34 99 24 233q28 64 70 112t87 65q78 29 112 -25q28 -41 8 -106z" />
    <glyph glyph-name="b" unicode="b" horiz-adv-x="423" 
d="M121 213q-16 -112 -23 -147q62 -45 124 -35q70 12 120 83q68 101 31 208q-19 54 -69 92q-39 30 -72 11t-62 -76q-26 -52 -49 -136zM81 221l5 37l60 424q1 12 12 15.5t20 -3t8 -18.5l-42 -292q32 56 68 76q55 31 116 -14q58 -43 82 -108t12 -130q-10 -63 -47 -116
q-59 -87 -146 -100q-71 -12 -141 32q-6 -22 -9 -26q-6 -8 -15 -9q-15 -1 -21 12q-3 7 -3 18q0 12 1 19l3 20l-6 6q-10 8 -4 21t19 13q1 5 5 22l5 20q2 10 2 12q10 46 16 69z" />
    <glyph glyph-name="c" unicode="c" horiz-adv-x="400" 
d="M329 373q25 45 -1 77q-26 31 -79 14q-52 -18 -97 -69q-44 -51 -63 -109q-16 -57 -11.5 -113t30.5 -97.5t63 -42.5q46 -6 105 38q75 57 103 129q5 12 16.5 13t19 -7.5t2.5 -19.5q-35 -86 -117 -147q-73 -53 -133 -46q-57 6 -93 61q-29 45 -37 115q-6 68 14 129
q21 65 72 124q52 59 114 80q49 16 89.5 -3t50 -58t-13.5 -88q-7 -10 -17.5 -9.5t-16.5 10t0 19.5z" />
    <glyph glyph-name="d" unicode="d" horiz-adv-x="431" 
d="M349 30l5 -9l15 10q10 6 19.5 -1t9 -17.5t-10.5 -17.5q-4 -4 -11 -8q-17 -11 -31 -7q-19 4 -33 36q-8 22 -14 51q-7 43 -9 83q-1 16 0 33l-55 -86q-57 -87 -107 -104q-26 -9 -49 2q-18 10 -32 34q-21 43 -20 108q2 68 22 125q49 139 122 185q35 22 81 16q36 -6 56 -35
q4 -5 10 -19q20 101 67 269q3 13 14.5 14.5t19.5 -6.5t4 -18q-65 -227 -85 -380q16 -12 4 -28l-8 -12q-6 -49 -4 -96q1 -38 9 -78q4 -24 11 -44zM270 267q15 71 14 101q-1 25 -10 38q-9 14 -29 17q-31 5 -53 -10q-63 -38 -106 -165q-18 -50 -20 -112q0 -60 16 -88
q12 -25 32 -17q36 12 86 88l82 126q-15 7 -12 22z" />
    <glyph glyph-name="e" unicode="e" horiz-adv-x="394" 
d="M73 185q53 36 97 91t67 115q19 48 8 69q-3 4 -10 4q-17 -2 -43 -19q-54 -35 -86 -109q-31 -73 -33 -151zM75 138v-3q12 -79 56 -93q53 -17 144 68l25 23q13 12 30 33l14 20l20 27q12 14 27.5 3t4.5 -27l-17 -23l-13 -19q-21 -27 -40 -44l-23 -23q-109 -100 -184 -76
q-68 21 -83 125q-13 91 23 196q36 104 111 154q38 24 63 25q31 1 46 -24q22 -35 -4 -103q-28 -71 -81.5 -135t-118.5 -104z" />
    <glyph glyph-name="f" unicode="f" horiz-adv-x="237" 
d="M53 476q26 -2 56 0q10 73 26 125q16 54 34 81q26 38 67 36q21 -1 37.5 -14t22.5 -36q4 -18 0 -57q-1 -7 -4 -25.5t-3 -20.5q-1 -13 -12 -16.5t-20 2.5t-8 18q0 2 2 11.5t3.5 19.5t1.5 16q5 33 2 42q-6 18 -23 20q-19 2 -33 -18q-15 -21 -29 -71q-11 -37 -23 -108
q23 3 100 22q7 2 13 -1t8.5 -8t3 -11t-3.5 -11t-11 -7q-68 -18 -116 -25q-3 -18 -13 -109q-6 -67 -14 -118l-6 -40q-5 -38 -7 -45q-1 -12 -9 -38q-12 -48 -38 -82q-6 -10 -17.5 -8t-16 11.5t1.5 20.5q23 32 32 70q7 27 8 33l6 43l6 41q7 44 14 112q10 89 13 105
q-29 -2 -55 0q-12 1 -16 12t1.5 20t18.5 8z" />
    <glyph glyph-name="g" unicode="g" horiz-adv-x="337" 
d="M314 374q2 18 0 32q-1 33 -28 44q-25 9 -61 -8q-33 -16 -64 -58q-31 -43 -47 -87q-20 -51 -32 -136q-6 -48 -3 -78q3 -27 11 -32q20 -11 49 7q28 16 64 60q30 36 54 78q25 43 34 68q3 7 12 59q1 1 1 5v8v11q0 11 3 17q1 4 7 10zM281 159l-47 -67q-39 -48 -75 -69
q-47 -28 -87 -8q-29 15 -33 64q-4 31 4 88q12 90 33 144q20 51 54 98q34 48 77 69q51 26 93 9q50 -18 54 -79q2 -27 -2 -58v-3q1 -5 -1 -25l-3 -24v-7q0 -4 -2 -10l-4 -24l-21 -106q-7 -32 -14 -76q-19 -124 -43 -181q-30 -68 -82 -89q-61 -24 -150 17q-12 5 -12 16.5
t9 18.5t19 1q73 -34 119 -16q37 15 60 68q14 33 23 74q10 44 18 96q4 28 13 79z" />
    <glyph glyph-name="h" unicode="h" horiz-adv-x="343" 
d="M169 681q-12 -47 -20 -98q0 -3 -6 -42l-9 -59l-19 -100q30 27 62 43q28 14 55 20.5t56 -1t46 -33.5q17 -23 14 -80q-2 -46 -11 -109q-7 -44 -9 -62l-6 -50q-5 -59 2 -93q2 -19 -17 -23t-23 15q-10 51 11 204q0 3 0.5 6t1 5.5t0.5 3.5q9 62 11 104q2 44 -6 57
q-30 40 -106 1q-35 -19 -62.5 -46.5t-34.5 -50.5l-3 -7q-14 -68 -56 -278q-4 -19 -23 -15t-17 23l44 220q26 123 50 252l6 32l5 38l5 31q9 61 21 102q2 7 7 11t11 3.5t11 -3t8 -8.5t1 -13z" />
    <glyph glyph-name="i" unicode="i" horiz-adv-x="163" 
d="M147 462q-12 -45 -20 -105q-15 -108 -16 -109l-6 -38q-3 -18 -6 -35.5t-5 -26.5q-4 -30 -5 -58q-1 -30 0 -69q0 -12 -10 -17.5t-20 -1t-10 16.5q-2 47 2 104q1 9 4.5 31t3.5 28l6 35q1 6 3 14t3 13.5t1 9.5q2 7 16 108q11 70 21 110q2 7 7 11t11 3.5t11 -3t8 -8.5t1 -13z
M178 606q6 -6 5.5 -14.5t-6 -13t-13 -6t-14.5 5.5q-8 8 -4.5 19t13 13.5t19.5 -4.5z" />
    <glyph glyph-name="j" unicode="j" horiz-adv-x="154" 
d="M-79 -36q-1 -25 13 -59t33 -52q16 -14 25 -10q16 7 29 52q12 51 19 122q4 59 4 68l3 63q7 110 34 279q4 19 23 16t17 -22q-27 -168 -34 -275l-3 -62q0 -5 -4 -70q-7 -79 -21 -129q-17 -63 -51.5 -79t-67.5 18q-27 25 -43 66q-17 43 -16 76q0 11 10 16t20 0t10 -18z
M129 574q8 -8 4.5 -19t-13 -13.5t-19.5 4.5q-8 8 -4.5 19t13 13.5t19.5 -4.5z" />
    <glyph glyph-name="k" unicode="k" horiz-adv-x="369" 
d="M234 618q-10 -52 -35 -149q-11 -41 -20.5 -77.5t-13.5 -52t-4 -16.5q0 -2 -6 -30.5t-11 -52.5q43 44 96 115l47 65l44 61q7 10 18.5 8t15.5 -11.5t-2 -20.5l-40 -55l-50 -69l-45 -58l20 3q44 5 67 -29q17 -23 20 -66q2 -23 0 -71q-1 -33 1 -51q1 -13 2.5 -16t10.5 -14
l10 -15q9 -17 -7 -27.5t-27 5.5l-18 28q-7 11 -11 33q-2 23 -1 59q1 45 0 66q-2 33 -12 46.5t-31 11.5q-48 -5 -106 -54l-6 -4l-10 -9q-28 -121 -63 -184q-6 -10 -17.5 -9.5t-16.5 9t0 20.5q29 52 56 166q-4 10 4 20l14 67q13 61 16 71q9 43 37 148q22 85 34 147q4 19 23 15
t17 -23z" />
    <glyph glyph-name="l" unicode="l" horiz-adv-x="206" 
d="M149 669l-2 4q-6 -4 -14 -21q-8 -20 -14 -47t-12 -92q-19 -193 -12 -291q51 147 63 296q4 49 0 100q-2 36 -9 51zM76 72q-22 -42 -33 -61q-7 -10 -17.5 -9.5t-16.5 10t0 19.5q32 57 55 110q-10 64 -11 122q-1 56 2 115q3 55 12 139q8 71 13 97q8 35 16 54q14 31 33 41
t36 1q12 -7 20 -25q10 -20 13 -64q4 -55 0 -107q-16 -195 -93 -378q7 -48 21 -106q2 -7 -1 -13t-8 -8.5t-11 -3t-11 3.5t-7 11q-7 25 -12 52z" />
    <glyph glyph-name="m" unicode="m" horiz-adv-x="497" 
d="M281 309l1 6q6 55 1 88q-5 24 -9 24h-2q-17 0 -45 -31q-25 -25 -59 -83q-45 -75 -75 -150l-8 -40q-9 -49 -13 -75l-5 -33l-2 -10v-2v-1q0 -1 -1 -2v-1v-1q-1 -1 -1 -3l-3 -4q-6 -6 -15 -6q-13 0 -19 12l-3 9v14q0 16 3 40q7 57 24 104l4 11q10 45 12 57q26 126 27 175
q0 11 10 16t20 0t10 -18q-2 -39 -9 -88l9 17q36 60 64 89q41 44 75 44q41 0 51 -58q2 -16 2 -27q24 35 50 58q32 29 59 27q34 -1 51 -42q14 -36 14 -103q0 -38 -10 -112q-12 -86 -53 -198q-4 -12 -15.5 -13.5t-19 7t-3.5 20.5q40 106 51 190q10 73 10 106q0 58 -11 88
q-8 17 -15 17q-11 0 -31 -17q-18 -15 -47 -55q-19 -29 -35 -59q-7 -57 -29 -153l-18 -73q0 -2 -1 -5l-2 -10q-1 -6 -5 -12q-7 -11 -20 -10q-11 2 -17 12q-25 49 9 157q16 51 44 107z" />
    <glyph glyph-name="n" unicode="n" horiz-adv-x="400" 
d="M148 463q-13 -24 -17 -48q-4 -20 -7 -63q0 -12 -4 -58q-1 -2 -1 -8q42 62 91 116q38 38 77 61q29 19 54 22q37 5 54 -23q31 -47 10 -168q-4 -29 -18 -89q-13 -54 -14 -69q-9 -64 -9 -140q0 -12 -10 -17t-20 0t-10 17q0 78 9 146q3 20 15 72q14 57 18 87q18 104 -5 139
q-4 7 -15 5q-13 -1 -39 -16q-38 -23 -67 -55q-76 -80 -129 -175l-15 -30l-3 -13l-27 -118q0 -2 -3 -29l-3 -15l-3 -6q-9 -15 -25 -8q-9 5 -10 9l-1 2l-2 6q-16 73 38 186q17 73 23 117q3 20 4 52q6 84 28 129q7 10 17.5 10.5t17.5 -9t1 -19.5z" />
    <glyph glyph-name="o" unicode="o" horiz-adv-x="357" 
d="M316 427q8 2 15.5 -2t8.5 -12q15 -60 17 -131q2 -68 -20 -136q-23 -71 -70 -117q-57 -50 -133 -44q-40 4 -68.5 26.5t-37.5 61.5q-22 90 9 195t99 170q36 33 73.5 41t68.5 -11q24 -14 38 -41zM296 337q4 70 -39 96q-40 25 -93 -25q-60 -56 -89 -151t-9 -174
q14 -54 72 -58q28 -3 54 7q27 9 47 27q46 43 64 111q18 69 12 146q-8 0 -13.5 6.5t-5.5 14.5z" />
    <glyph glyph-name="p" unicode="p" horiz-adv-x="419" 
d="M169 381l-28 -142q-22 -114 -31 -154l9 -11q5 -4 36 -23q76 -43 140 -8q42 24 64 72t21 100t-17 104q-29 77 -79 96q-54 20 -115 -34zM132 401q14 65 20 89q1 12 12 15t20 -4t6 -19l-9 -43q63 35 117 13q68 -27 102 -120q15 -40 18 -86q7 -74 -18.5 -139.5t-84.5 -97.5
q-57 -34 -123 -15q-32 8 -57 23l-35 21l-18 -86q-3 -17 -19 -74q-13 -46 -30 -84q-5 -11 -16 -11.5t-18.5 8t-1.5 19.5q21 52 35 106l12 50q4 14 12 58l12 54l-6 11q-8 18 9 27q1 0 2.5 0.5t2.5 1.5l53 266q-3 9 3 17z" />
    <glyph glyph-name="q" unicode="q" horiz-adv-x="369" 
d="M270 384q0 46 -13.5 73t-32.5 31q-20 4 -46 -13.5t-49 -57.5q-38 -66 -52 -160q-14 -92 6 -169q14 -53 67 -53q24 -1 48 11t40 33q29 38 42 86l15 95q3 47 -5 104q-8 0 -14 6t-6 14zM371 461q-6 -20 -9 -41l-8 -50q-1 -8 -2.5 -17.5t-3 -16.5t-1.5 -11l-12 -69
q-1 -50 -16 -100q-17 -113 -26 -188q-3 -29 -16 -82q-13 -55 -14 -79q-1 -12 -12 -16t-20 2t-8 18q3 31 15 83q12 55 15 80l10 72q-48 -53 -114 -51q-38 0 -66.5 21.5t-37.5 61.5q-22 83 -8 184q13 96 58 175q29 50 65 74q37 24 73 16q35 -8 56 -45q15 1 20 -14
q7 -22 12 -47q5 30 12 52q3 12 14 14t19.5 -6t4.5 -20z" />
    <glyph glyph-name="r" unicode="r" horiz-adv-x="337" 
d="M78 255l10 101q-5 11 1 21l2 3q7 58 15 102q5 18 23.5 15t16.5 -23q-3 -15 -7 -40q25 23 38 32q77 56 129 24q26 -17 31 -73q1 -9 1 -37q1 -15 1 -28q1 -11 -8 -17t-20 -2t-12 17q0 13 -1 29q0 26 -1 35q-3 36 -13 42q-28 18 -84 -23q-39 -27 -70 -68l-13 -114
q-18 -154 -32 -223q-2 -12 -13.5 -15t-20.5 4t-6 19q17 75 33 219z" />
    <glyph glyph-name="s" unicode="s" horiz-adv-x="295" 
d="M266 410q-10 31 -30 40q-18 8 -40 -1q-23 -9 -41 -35q-19 -26 -20 -57q-1 -14 20 -35q10 -10 26 -23l32 -26q45 -39 63.5 -77.5t7.5 -87.5q-6 -29 -30 -55t-56 -41q-28 -16 -66.5 -12.5t-62.5 28.5q-39 42 -46 152q-1 11 8 17t20 2t12 -17q7 -96 36 -126q29 -33 82 -7
q52 24 65 67q8 36 -6.5 64.5t-52.5 61.5l-31 26q-17 13 -29 25q-34 34 -32 66q3 44 27.5 79t58.5 48q38 17 71 0q35 -16 52 -64q4 -11 -3.5 -19t-19 -6.5t-15.5 13.5z" />
    <glyph glyph-name="t" unicode="t" horiz-adv-x="246" 
d="M121 460q-45 -5 -73 -5q-12 0 -17 10t0 20t17 10q37 0 85 7q27 92 46 127q7 11 17.5 11.5t17.5 -9.5t1 -20q-15 -27 -38 -103q64 8 98 8q19 0 19 -20t-19 -20q-41 0 -111 -10q-20 -70 -36 -151q-23 -107 -30 -181q-9 -83 2 -114q2 -3 3 -3q12 -2 25 11q15 14 29 44
q18 35 35 103q2 7 7 11t11 3.5t11 -3t8 -8.5t1 -13q-17 -68 -37 -110q-15 -34 -37 -56q-27 -27 -59 -22q-26 5 -35 29q-13 38 -4 132q7 72 31 185q12 60 32 137z" />
    <glyph glyph-name="u" unicode="u" horiz-adv-x="426" 
d="M119 459q-31 -137 -38 -240q-7 -77 1 -130q7 -52 28 -61q25 -10 49 15q25 25 48 85q17 48 32 110q7 25 11 48l8 32l9 44q4 16 13 51q0 3 1 6q1 5 1 10q2 8 5 13q8 11 19 10q10 0 17 -9q10 -13 7 -43q-1 -17 -9 -52l-31 -132q-14 -78 -3 -120q13 -47 63 -55q27 -4 58 12
q10 6 20 -1t9.5 -17.5t-11.5 -17.5q-41 -22 -82 -16q-75 10 -95 84q-5 14 -6 28q-26 -68 -55 -98q-43 -46 -94 -23q-42 19 -52 91q-8 57 -1 139q9 104 38 245q4 19 23 15t17 -23z" />
    <glyph glyph-name="v" unicode="v" horiz-adv-x="308" 
d="M84 448q-7 -164 16 -305q4 -24 5 -35l2 6l6 27q72 234 174 350q8 9 18.5 6t14 -12.5t-2.5 -19.5q-95 -109 -166 -336l-5 -23l-10 -43l-11 -42l-7 -16q-11 -19 -27 -17.5t-19 17.5q-1 7 0 16q0 9 2 11v4q-4 43 -14 101q-23 140 -16 313q0 11 10 16t20 0t10 -18z" />
    <glyph glyph-name="w" unicode="w" horiz-adv-x="417" 
d="M239 296v-1l-40 4v1v1l1 1v3q14 27 34 7q5 -5 5 -13v-3zM199 295h40v-1v-1v-1q-1 0 -1 -1v-2l-2 -15l-7 -44q-7 -43 -13 -90q-5 -55 -2 -83q3 -31 12 -35q5 -2 11 1q8 6 21 23q7 8 32 62q89 183 89 364q0 12 10 17t20 0t10 -17q0 -194 -93 -382q-33 -64 -35 -67
q-18 -24 -33 -34q-26 -17 -52 -1q-26 14 -32 65q-1 11 -1 38l-2 -4q-19 -46 -38 -71q-11 -17 -22 -25q-18 -12 -35 -6q-46 15 -53 90q-5 57 7 142q17 125 53 235q7 20 25 13q11 -3 13 -14l1 -1v-1v-1v-1v-1v-1v-1v-1v-1l-1 -1v-1q-33 -102 -51 -229q-24 -169 17 -187h1
q8 8 13 15q14 20 34 64q21 50 45 124l16 54h1z" />
    <glyph glyph-name="x" unicode="x" horiz-adv-x="372" 
d="M319 479q-8 -20 -16 -58q-11 -48 -15 -63q-17 -60 -56 -136q48 -74 135 -189q12 -16 -4 -28t-28 4q-79 105 -125 173l-4 -9q-68 -117 -125 -162q-9 -8 -19.5 -2.5t-12 15.5t7.5 19q51 41 114 150l15 27q-82 128 -122 234q-4 12 3.5 20.5t19 7t15.5 -13.5q36 -97 105 -206
q28 57 43 106q1 2 14 61q9 39 17 64q4 12 15.5 13.5t19 -7t3.5 -20.5z" />
    <glyph glyph-name="y" unicode="y" horiz-adv-x="400" 
d="M95 486l-11 -72l-7 -54q-10 -80 -11 -130q-5 -92 6 -142q7 -32 19 -43t25.5 -6t31.5 23q24 22 48 66q33 60 52 122q9 89 31 155q0 1 1 3t1 3q3 4 7 7q8 5 16 2q8 -2 12 -9q3 -5 3 -9v-4q0 -1 -0.5 -2t-1 -3.5t-0.5 -4.5q0 -4 -1.5 -12.5t-1.5 -10.5q-6 -42 -21 -103
l-5 -20q-4 -38 -6 -81q55 55 103 56q12 0 17.5 -10t1 -20t-16.5 -10q-35 -1 -78 -45q-20 -22 -28 -33q-1 -7 -1 -73q1 -42 1 -72q0 -63 -4 -86q-4 -33 -19 -51q-21 -30 -57 -8q-48 28 -43 102q3 60 40 131q22 42 43 71v15l-10 -20q-28 -49 -55 -75q-37 -35 -73 -35
q-54 2 -70 81q-12 54 -7 153q2 44 5 66l6 66q7 49 8 54l6 46q4 21 4 28q1 12 12 15.5t20 -3t8 -18.5zM227 -158q6 6 11 32q3 22 3 80v46v38l-8 -14q-32 -65 -36 -115q-3 -49 24 -66q6 -4 6 -1zM227 -159h-1h1z" />
    <glyph glyph-name="z" unicode="z" horiz-adv-x="400" 
d="M122 442q14 1 129 22q29 5 80 6q22 1 45 -1l18 -3q3 -1 9 -5q9 -6 10 -16q1 -13 -9 -27q-6 -10 -15 -19l-27 -24q-52 -43 -100 -99l-40 -46l-49 -58l-43 -53q-20 -25 -40 -53l-15 -21h26l56 3l62 3q101 4 176 -3q12 -1 16 -12t-2 -20t-18 -8q-35 3 -76 3q-42 1 -63 0
q-22 0 -80 -3t-69 -3h-31q-14 0 -19 1q-3 1 -9 1q-1 0 -2.5 0.5t-2.5 1.5q-5 1 -10 6q-6 7 -4 18q0 3 2 9l8 14q9 16 22 33q29 40 43 56l42 51l48 60l42 48q54 60 104 101l24 22l3 3q-13 1 -31 0q-50 -2 -75 -6l-53 -10q-52 -10 -80 -12q-13 0 -18 10t0 20t16 10z" />
    <glyph glyph-name="braceleft" unicode="{" horiz-adv-x="800" 
d="M376 474l7 -9q19 -23 27 -36q83 -135 141 -320q107 21 138 32q45 17 61 40q20 26 10 64q-9 36 -40 58q-43 31 -113 28h-1q-1 0 -9 -2l-22 -4l-23 -4q-5 -1 -11 -1q-10 0 -18 5q-6 5 -10 14q-4 10 0 20q3 11 15 18l16 10q14 8 16 10q37 22 32 48q-1 7 -7 11q-5 2 -17 3
q-2 0 -8 1h-6l-17 2q-25 5 -36 20q-7 8 -7 24l3 20q0 2 13 44q9 33 10 42q2 18 1 19q-4 5 -11 4q-14 -1 -38 -16q-44 -27 -66 -57q-23 -34 -26 -77q-2 -8 -4 -11zM384 665l4 4q6 10 8 16q7 22 -2 37q-11 17 -46 14q-36 -4 -36 -93q0 -35 8 -75q4 -24 11 -39q6 -4 8 -7
q7 33 29 66q26 37 79 70q32 20 57 23q41 5 57 -28q9 -16 4 -48q-1 -16 -11 -48l-12 -41q-1 -3 -1 -8q1 -1 4 -1q3 -1 12 -1h6q4 -1 9 -1q22 -1 37 -10q21 -12 27 -40q11 -44 -26 -78q82 1 136 -36q44 -31 58 -84q16 -60 -17 -104q-25 -33 -82 -55q-41 -16 -141 -33
q1 -7 0 -14q2 -12 -7 -21q-17 -15 -33 1l-8 9q-67 -55 -109 -76q-51 -26 -93 -21q-52 4 -88 52q-36 47 -35 95q2 46 56 115l8 11q-1 -1 -4 -1q-32 -3 -49 3q-34 13 -43 38q-8 20 3 46q0 2 1.5 4.5t3 6.5t2.5 7l7 15l3 14l-6 3l-40 18q-24 10 -45 22q-28 17 -35 32
q-11 22 -3 42q4 16 24 30q26 19 76 25q87 9 149 -21l-1 3q-1 5 1 11q-6 20 -25.5 47t-44.5 48q-27 23 -53 31t-44 -6q-23 -18 -23 -49q0 -29 23 -29q18 -1 19 6q2 8 -10 17q-5 4 -4 9.5t5.5 7.5t10.5 -1q23 -18 18 -38q-6 -23 -39 -21q-23 2 -33 16q-10 13 -10 33
q0 41 31 65q27 20 61 10q30 -9 61 -36q36 -32 61 -71l-3 11q-8 42 -8 78q0 47 10 74q13 37 44 40q48 5 65 -24q14 -23 4 -53q-5 -15 -11 -22q-8 -11 -18 -12q-13 -3 -20 12q-5 12 -5 31q0 10 10 10t10 -10q0 -16 3 -23zM293 451q-19 14 -58.5 21t-79.5 3q-40 -5 -55 -17
q-6 -3 -7 -7q0 -1 2 -7q1 -4 16 -12q20 -11 40 -20l42 -18q6 -3 16 -10q13 -7 15 -20q5 -21 -5 -45q-1 -4 -8 -18l-6 -15q-5 -11 -3 -14q2 -5 16 -10q6 -3 29 -1l39 5l2 1l4 1q4 2 5 2q10 4 17 3q9 0 17 -8q7 -7 7 -18q0 -9 -3 -12l-1 -1l-1 -1v-1l-1 -1h-1v-1h-1l-3 -3
l-11 -12q-23 -24 -33 -38q-46 -58 -46 -87q-1 -33 25 -67q26 -33 56 -34q30 -3 68 16q42 22 100 70q-121 144 -175 371q-10 -1 -18 5z" />
    <glyph glyph-name="bar" unicode="|" horiz-adv-x="117" 
d="M94 690q-2 -13 -4 -39q0 -13 -0.5 -46.5t-1.5 -43.5q0 -7 -3 -67q-1 -58 -3 -75q0 -31 -1 -64t-1 -75q0 -91 3 -136l9 -137q8 -131 8 -187q0 -12 -10 -17t-20 0t-10 17q0 56 -8 186l-9 136l-2 59q-1 19 -1 62v57l2 64q1 27 1 57l3 63q0 12 0.5 26t1 22t0.5 11v39
q2 65 6 94q4 19 23 16t17 -22z" />
    <glyph glyph-name="braceright" unicode="}" horiz-adv-x="829" 
d="M400 441l45 -118q29 -93 43 -159q109 -51 231 0q26 11 32 12q3 1 10 1q-4 4 -5 6q-10 17 -27 48q-17 35 -24 45q-29 48 -66 61q-31 12 -90 19q-40 5 -53 10q-4 2 -8 5q-8 8 -8 17q0 4 2 10l3 4l5 8l14 18q21 27 22 32q13 30 19 84q12 83 13 90q1 1 1 2l-22 -11
q-63 -32 -89 -67q-24 -33 -40 -104q-2 -9 -8 -13zM406 147q-58 138 -71 275l-2 32q-42 40 -76 53q-38 16 -115 14q-19 0 -28 -1l57 -71q31 -40 59 -60q4 -3 37 -17l23 -10q3 -1 5.5 -2.5t3.5 -2l2 -1t2 -0.5q5 -3 6 -7q8 -11 3 -22q-1 -8 -12 -16l-27 -14q-46 -22 -90 -67
q-26 -28 -34 -75q-3 -19 -2 -51q1 -40 0 -58l-3 -10q38 12 49 13q139 13 213 98zM329 633q7 44 29 88q16 31 37 46q27 18 54 -2q12 -9 20.5 -28.5t9.5 -38.5q2 -24 -10 -34q-14 -14 -40 -3q-6 2 -6.5 7.5t4 9t10.5 1.5q13 -5 18 -0.5t4 18.5q0 15 -7 30.5t-15 21.5
q-29 22 -61 -37q-29 -56 -29 -97q0 -17 7 -39q12 -5 13 -16l2 -23l10 -36q16 51 37 80q31 43 103 80l57 29l12 6q1 0 2.5 0.5t2.5 1.5q2 0 3 1h6q12 -1 17 -14q6 -20 -10 -42q-11 -16 -11 -17q-2 -8 -13 -88q-7 -57 -21 -92q-3 -9 -28 -42l-4 -5q3 -1 23 -3q66 -9 98 -21
q51 -19 86 -78q10 -16 26 -48q12 -26 25 -44q0 -1 15 -10q26 -17 22 -39q-3 -14 -18 -18q-8 -2 -13 -1q-1 1 -4 1l-3 1h-1l-29 -2l-24 -9q-125 -52 -237 -12q9 -48 15 -92v-1q5 -8 2 -16q1 -12 -8 -18t-20 -2.5t-12 16.5l-1 8q-24 42 -50 97q-83 -84 -227 -99
q-15 -2 -46 -13l-22 -8l-7 -3l-2 -1h-2h-1q-1 -1 -3 -1h-4q-7 1 -13 6q-10 11 -7 28q1 6 8 18q9 13 9 15q1 15 0 52q-1 35 2 59q11 60 46 97q46 47 100 75l-3 2q-38 15 -46 22q-30 21 -66 67q-48 60 -56 68l-17 17l-8 1q-21 4 -26 23q-1 9 5 17q2 3 5 5q1 1 5 1l8 2
q9 0 16 1q8 1 32.5 1.5t35.5 0.5q86 2 132 -17q30 -12 59 -35q0 16 -1 23l-4 20q-1 7 3 13q0 1 1 2q-5 29 -15 50q-21 40 -56 72q-43 36 -60 3q-5 -9 -6 -27.5t4 -36.5q4 -15 9 -17t16 10q4 4 9.5 2.5t7 -6t-2.5 -10.5q-20 -23 -38 -14q-14 6 -21 30q-5 19 -4 42.5t8 36.5
q17 30 45 27q21 -3 46 -25q31 -28 57 -71z" />
    <glyph glyph-name="Agrave" unicode="&#xc0;" 
d="M370 155v-3q-54 -148 -163 -152h-21q-19 0 -44 14q-70 44 -92 126q-23 83 -9 182q13 88 51 174q38 84 85 133q53 53 101 71q50 20 90 0q56 -25 73 -116l1 1q11 2 18 -5q4 -3 6 -9l1 -7q0 -3 -1 -5l-2 -12l-28 -112q-10 -45 -15 -65l-13 -64q-14 -100 8 -169
q11 -40 51 -73.5t67 -23.5q21 6 36 37q3 6 9.5 8.5t12 1.5t10.5 -5t6 -10t-2 -13q-23 -47 -61 -57q-35 -10 -72 9q-32 17 -58.5 48.5t-36.5 65.5q-6 17 -8 30zM407 519q0 120 -55.5 145.5t-146.5 -63.5q-44 -45 -77 -122q-35 -81 -47 -163q-28 -199 83 -268q14 -9 41 -8
q82 3 127 126q17 47 37 150q7 48 29 135q11 45 13 53v3q-4 4 -4 12zM325 847q20 -31 28 -46l23 -37q8 -12 0.5 -23t-19.5 -11.5t-21 10.5q-1 1 -4 7t-8 14l-10 16q-18 31 -27 44q-8 11 -1.5 23t18.5 13t21 -10z" />
    <glyph glyph-name="Aacute" unicode="&#xc1;" 
d="M407 847q7 12 20.5 10t19 -13t-1.5 -23q-2 -3 -28 -44l-21 -37q-8 -12 -21.5 -11t-19 11.5t0.5 23.5q20 33 22 37q4 8 29 46zM370 155v-3q-54 -148 -163 -152h-21q-19 0 -44 14q-70 44 -92 126q-23 83 -9 182q13 88 51 174q38 84 85 133q53 53 101 71q50 20 90 0
q56 -25 73 -116l1 1q11 2 18 -5q4 -3 6 -9l1 -7q0 -3 -1 -5l-2 -12l-28 -112q-10 -45 -15 -65l-13 -64q-14 -100 8 -169q11 -40 51 -73.5t67 -23.5q21 6 36 37q3 6 9.5 8.5t12 1.5t10.5 -5t6 -10t-2 -13q-23 -47 -61 -57q-35 -10 -72 9q-32 17 -58.5 48.5t-36.5 65.5
q-6 17 -8 30zM407 519q0 120 -55.5 145.5t-146.5 -63.5q-44 -45 -77 -122q-35 -81 -47 -163q-28 -199 83 -268q14 -9 41 -8q82 3 127 126q17 47 37 150q7 48 29 135q11 45 13 53v3q-4 4 -4 12z" />
    <glyph glyph-name="Acircumflex" unicode="&#xc2;" 
d="M370 155v-3q-54 -148 -163 -152h-21q-19 0 -44 14q-70 44 -92 126q-23 83 -9 182q13 88 51 174q38 84 85 133q53 53 101 71q50 20 90 0q56 -25 73 -116l1 1q11 2 18 -5q4 -3 6 -9l1 -7q0 -3 -1 -5l-2 -12l-28 -112q-10 -45 -15 -65l-13 -64q-14 -100 8 -169
q11 -40 51 -73.5t67 -23.5q21 6 36 37q3 6 9.5 8.5t12 1.5t10.5 -5t6 -10t-2 -13q-23 -47 -61 -57q-35 -10 -72 9q-32 17 -58.5 48.5t-36.5 65.5q-6 17 -8 30zM407 519q0 120 -55.5 145.5t-146.5 -63.5q-44 -45 -77 -122q-35 -81 -47 -163q-28 -199 83 -268q14 -9 41 -8
q82 3 127 126q17 47 37 150q7 48 29 135q11 45 13 53v3q-4 4 -4 12zM512 683q8 -8 -12 -15q-18 -6 -24 0q-3 4 -12.5 15t-14.5 17t-13 19t-10 16q-4 7 -13 21t-15 25t-9 22q18 -2 27 -2q0 -1 2 1l-4 -3l-6 -6q-5 -5 -19 -13q-6 -4 -17 -10t-16 -9q-41 -20 -78 -29
q-18 -4 -21 3q-2 5 4 9t12 5q4 1 9.5 2t9.5 3t5 2l-1 -1q1 0 2 1q7 2 8 3l17 8l-1 -1q1 0 2 1t2.5 2t2.5 1q5 2 7 4l34 19q2 1 3 2l4 3q3 2 5 5q12 8 19 12q5 3 14.5 3t12.5 -5q3 -11 8.5 -22t14.5 -24.5t13 -20.5q21 -34 48 -63z" />
    <glyph glyph-name="Atilde" unicode="&#xc3;" 
d="M370 155q2 -13 8 -30q10 -34 36.5 -65.5t58.5 -48.5q37 -19 72 -9q38 10 61 57q3 7 2 13t-6 10t-10.5 5t-12 -1.5t-9.5 -8.5q-15 -31 -36 -37q-27 -10 -67 23.5t-51 73.5q-22 69 -8 169l13 64q5 20 15 65l28 112q0 2 0.5 5t1 4.5t0.5 2.5q1 2 1 5l-1 7q-2 6 -6 9
q-7 7 -18 5l-1 -1q-17 91 -73 116q-40 20 -90 0q-48 -18 -101 -71q-47 -49 -85 -133q-38 -86 -51 -174q-14 -99 9 -182q22 -82 92 -126q25 -14 44 -14h21q109 4 163 152v3zM407 519q0 -8 4 -12v-3q-2 -8 -13 -53q-22 -87 -29 -135q-20 -103 -37 -150q-45 -123 -127 -126
q-27 -1 -41 8q-111 69 -83 268q12 82 47 163q33 77 77 122q91 89 146.5 63.5t55.5 -145.5zM285 744q-15 -10 -28 -7q-6 1 -7 4.5t4 7.5q50 31 71 37q41 12 82 -5q3 -1 32 -17q5 -4 15 -7q5 -2 13 -2h16l3 1v0l-1 -1l2 1q-1 0 -3 -1l3 2h1l3 2l1 1l3 3q1 2 5 6q7 10 25 10
q3 0 6 -1t5 -3t-1 -6q-13 -17 -27 -23q-23 -10 -42 -11q-27 0 -39 4q-12 3 -32 15q-15 10 -35 15q-1 1 -3.5 1.5t-3.5 0.5h-5h-1h-9q-3 0 -4 -1q-3 0 -4 -1q-1 0 -2 -1h-2l-4 -2h-1q-6 -3 -7 -4l-16 -9l-7 -5l-2 -1z" />
    <glyph glyph-name="Egrave" unicode="&#xc8;" horiz-adv-x="569" 
d="M393 484q-30 8 -88 -34q-35 -25 -64 -54q32 6 68 24q51 25 77 54q7 9 7 10zM457 659q-35 10 -87 -9.5t-103 -59.5q-51 -42 -77.5 -88.5t-18.5 -82.5q3 -14 13 -20l2 -2q52 55 96 85q74 54 124 40q30 -9 29 -36q-2 -19 -19 -38q-32 -34 -90 -63q-63 -32 -112 -33
q-9 0 -14 1l-16 -20q-65 -77 -97 -142q-35 -71 -26 -100q12 -40 63 -52q46 -12 96 0q116 29 206 122t120 210q2 7 7 11t11 3.5t11 -3t8 -8.5t1 -13q-32 -127 -129 -228t-225 -132q-59 -15 -116 -1q-73 18 -91 79q-14 47 29 130q35 72 101 150l6 8q-20 14 -28 44
q-11 50 20 106t91 104q59 46 116 67q62 23 109 9q13 -3 14.5 -14.5t-6.5 -19.5t-18 -4zM372 849q20 -31 28 -46l23 -37q8 -12 0.5 -23t-19.5 -11.5t-21 10.5q-1 1 -4 7t-8 14l-10 16q-18 31 -27 44q-8 11 -1.5 23t18.5 13t21 -10z" />
    <glyph glyph-name="Eacute" unicode="&#xc9;" horiz-adv-x="569" 
d="M393 484q-30 8 -88 -34q-35 -25 -64 -54q32 6 68 24q51 25 77 54q7 9 7 10zM457 659q-35 10 -87 -9.5t-103 -59.5q-51 -42 -77.5 -88.5t-18.5 -82.5q3 -14 13 -20l2 -2q52 55 96 85q74 54 124 40q30 -9 29 -36q-2 -19 -19 -38q-32 -34 -90 -63q-63 -32 -112 -33
q-9 0 -14 1l-16 -20q-65 -77 -97 -142q-35 -71 -26 -100q12 -40 63 -52q46 -12 96 0q116 29 206 122t120 210q2 7 7 11t11 3.5t11 -3t8 -8.5t1 -13q-32 -127 -129 -228t-225 -132q-59 -15 -116 -1q-73 18 -91 79q-14 47 29 130q35 72 101 150l6 8q-20 14 -28 44
q-11 50 20 106t91 104q59 46 116 67q62 23 109 9q13 -3 14.5 -14.5t-6.5 -19.5t-18 -4zM407 847q7 12 20.5 10t19 -13t-1.5 -23q-2 -3 -28 -44l-21 -37q-8 -12 -21.5 -11t-19 11.5t0.5 23.5q20 33 22 37q4 8 29 46z" />
    <glyph glyph-name="Ecircumflex" unicode="&#xca;" horiz-adv-x="569" 
d="M393 484q-30 8 -88 -34q-35 -25 -64 -54q32 6 68 24q51 25 77 54q7 9 7 10zM457 659q-35 10 -87 -9.5t-103 -59.5q-51 -42 -77.5 -88.5t-18.5 -82.5q3 -14 13 -20l2 -2q52 55 96 85q74 54 124 40q30 -9 29 -36q-2 -19 -19 -38q-32 -34 -90 -63q-63 -32 -112 -33
q-9 0 -14 1l-16 -20q-65 -77 -97 -142q-35 -71 -26 -100q12 -40 63 -52q46 -12 96 0q116 29 206 122t120 210q2 7 7 11t11 3.5t11 -3t8 -8.5t1 -13q-32 -127 -129 -228t-225 -132q-59 -15 -116 -1q-73 18 -91 79q-14 47 29 130q35 72 101 150l6 8q-20 14 -28 44
q-11 50 20 106t91 104q59 46 116 67q62 23 109 9q13 -3 14.5 -14.5t-6.5 -19.5t-18 -4zM570 699q8 -8 -12 -15q-18 -6 -24 0q-3 4 -12.5 15t-14.5 17t-13 19t-10 16q-4 7 -13 21t-15 25t-9 22q18 -2 27 -2q0 -1 2 1l-4 -3l-6 -6q-5 -5 -19 -13q-6 -4 -16.5 -10t-16.5 -9
q-41 -20 -78 -29q-18 -4 -21 3q-2 5 4 9t12 5q4 1 10 2t9 3q4 2 5 2l-1 -1q1 0 2 1q7 2 8 3l17 8l-1 -1q1 0 2 1l2 2t3 1q4 2 7 4l34 19q2 1 3 2l4 3q3 2 5 5q12 8 19 12q5 3 14.5 3t12.5 -5q3 -11 8.5 -22t14.5 -24.5t13 -20.5q21 -34 48 -63z" />
    <glyph glyph-name="Igrave" unicode="&#xcc;" horiz-adv-x="294" 
d="M75 315l6 -2q32 -8 71 -9q-6 121 12 224q9 52 20 93q12 41 20 57q6 14 13 22q11 14 23 15q19 5 30 -11q6 -7 11 -24q6 -29 7 -61q1 -7 1 -108q0 -124 -17 -262q-10 -86 -29 -147q-5 -13 -6 -19q18 -40 37 -65q8 -9 2.5 -19.5t-15.5 -12t-19 7.5q-16 20 -27 43
q-14 -21 -29 -31q-23 -14 -46 -9q-20 5 -36 24q-24 27 -41 89q-11 44 -16 96q-4 46 1 82q-3 5 -1 13q5 17 21 15q5 0 7 -1zM86 271q-6 -70 16 -151q14 -53 32 -73q8 -10 15 -11q7 -2 15 4q17 9 30 43q-28 72 -38 172l-1 9q-41 2 -69 7zM201 263h-5v-4q6 -61 19 -108
q10 43 18 104q16 124 16 256v106q-2 32 -6 50l-3 -6q-10 -22 -17 -51q-12 -49 -19 -90q-18 -100 -12 -217h9q19 0 19 -20t-19 -20zM216 911q20 -31 28 -46l23 -37q8 -12 0.5 -23t-19.5 -11.5t-21 10.5q-1 1 -4 7t-8 14l-10 16q-18 31 -27 44q-8 11 -1.5 23t18.5 13t21 -10z
" />
    <glyph glyph-name="Iacute" unicode="&#xcd;" horiz-adv-x="294" 
d="M75 315l6 -2q32 -8 71 -9q-6 121 12 224q9 52 20 93q12 41 20 57q6 14 13 22q11 14 23 15q19 5 30 -11q6 -7 11 -24q6 -29 7 -61q1 -7 1 -108q0 -124 -17 -262q-10 -86 -29 -147q-5 -13 -6 -19q18 -40 37 -65q8 -9 2.5 -19.5t-15.5 -12t-19 7.5q-16 20 -27 43
q-14 -21 -29 -31q-23 -14 -46 -9q-20 5 -36 24q-24 27 -41 89q-11 44 -16 96q-4 46 1 82q-3 5 -1 13q5 17 21 15q5 0 7 -1zM86 271q-6 -70 16 -151q14 -53 32 -73q8 -10 15 -11q7 -2 15 4q17 9 30 43q-28 72 -38 172l-1 9q-41 2 -69 7zM201 263h-5v-4q6 -61 19 -108
q10 43 18 104q16 124 16 256v106q-2 32 -6 50l-3 -6q-10 -22 -17 -51q-12 -49 -19 -90q-18 -100 -12 -217h9q19 0 19 -20t-19 -20zM297 881q7 12 20.5 10t19 -13t-1.5 -23q-2 -3 -28 -44l-21 -37q-8 -12 -21.5 -11t-19 11.5t0.5 23.5q20 33 22 37q4 7 29 46z" />
    <glyph glyph-name="Ograve" unicode="&#xd2;" horiz-adv-x="466" 
d="M247 649q-39 -31 -74 -84q-58 -86 -82 -174q-18 -68 -20 -178q-1 -94 38 -150q44 -62 127 -43q69 15 123 115q55 99 65 220q10 127 -33 207q-47 84 -144 87zM308 680q78 -23 118 -99q50 -92 38 -230q-12 -130 -69 -235q-65 -117 -151 -136q-110 -24 -168 61
q-46 67 -45 172q2 113 22 188q26 96 87 187q76 114 160 132q19 2 23 -17t-15 -23zM290 881q20 -31 28 -46l23 -37q8 -12 0.5 -23t-19.5 -11.5t-21 10.5q-1 1 -4 7t-8 14l-10 16q-18 31 -27 44q-8 11 -1.5 23t18.5 13t21 -10z" />
    <glyph glyph-name="Oacute" unicode="&#xd3;" horiz-adv-x="466" 
d="M247 649q-39 -31 -74 -84q-58 -86 -82 -174q-18 -68 -20 -178q-1 -94 38 -150q44 -62 127 -43q69 15 123 115q55 99 65 220q10 127 -33 207q-47 84 -144 87zM308 680q78 -23 118 -99q50 -92 38 -230q-12 -130 -69 -235q-65 -117 -151 -136q-110 -24 -168 61
q-46 67 -45 172q2 113 22 188q26 96 87 187q76 114 160 132q19 2 23 -17t-15 -23zM407 847q7 12 20.5 10t19 -13t-1.5 -23q-2 -3 -28 -44l-21 -37q-8 -12 -21.5 -11t-19 11.5t0.5 23.5q20 33 22 37q4 8 29 46z" />
    <glyph glyph-name="Ocircumflex" unicode="&#xd4;" horiz-adv-x="466" 
d="M247 649q-39 -31 -74 -84q-58 -86 -82 -174q-18 -68 -20 -178q-1 -94 38 -150q44 -62 127 -43q69 15 123 115q55 99 65 220q10 127 -33 207q-47 84 -144 87zM308 680q78 -23 118 -99q50 -92 38 -230q-12 -130 -69 -235q-65 -117 -151 -136q-110 -24 -168 61
q-46 67 -45 172q2 113 22 188q26 96 87 187q76 114 160 132q19 2 23 -17t-15 -23zM475 709q8 -8 -12 -15q-18 -6 -24 0q-3 4 -12.5 15t-14.5 17t-13 19t-10 16q-4 7 -13 21t-15 25t-9 22q18 -2 27 -2q0 -1 2 1l-4 -3q-1 -1 -2.5 -3t-3.5 -3q-5 -5 -19 -13q-6 -3 -17 -9.5
t-16 -9.5q-41 -20 -78 -29q-18 -4 -21 3q-2 5 4 9t12 5q3 1 9 2t10 3t5 2l-1 -1q1 0 2 1q7 2 8 3l17 8l-1 -1q1 0 2 1l2 2t3 1q4 2 7 4l34 19q2 1 3 2l4 3q3 2 5 5q12 8 19 12q5 3 14.5 3t12.5 -5q3 -11 8.5 -22t14.5 -24.5t13 -20.5q21 -34 48 -63z" />
    <glyph glyph-name="Otilde" unicode="&#xd5;" horiz-adv-x="466" 
d="M247 649q97 -3 144 -87q43 -80 33 -207q-10 -121 -65 -220q-54 -100 -123 -115q-83 -19 -127 43q-39 56 -38 150q2 110 20 178q24 88 82 174q35 53 74 84zM308 680q19 4 15 23t-23 17q-84 -18 -160 -132q-61 -91 -87 -187q-20 -75 -22 -188q-1 -105 45 -172
q58 -85 168 -61q86 19 151 136q57 105 69 235q12 138 -38 230q-40 76 -118 99zM237 761q-15 -10 -28 -7q-6 1 -7 4.5t4 7.5q50 31 71 37q41 12 82 -5q3 -1 32 -17q5 -4 15 -7q5 -2 13 -2h16l3 1v-1h-1l2 1q-1 0 -3 -1l3 2h1l3 2l1 1l3 3q1 2 5 6q7 10 25 10q3 0 6 -1t5 -3
t-1 -6q-13 -17 -27 -23q-23 -10 -42 -11q-27 0 -39 4q-12 3 -32 15q-15 10 -35 15q-1 1 -3.5 1.5t-3.5 0.5h-5h-1h-9q-3 0 -4 -1q-3 0 -4 -1h-2l-2 -1l-4 -2h-1q-6 -3 -7 -4l-16 -9l-7 -5l-2 -1z" />
    <glyph glyph-name="Ugrave" unicode="&#xd9;" horiz-adv-x="500" 
d="M151 677q-84 -223 -84 -464q0 -46 11 -103q8 -36 17 -53q9 -15 16 -15q32 0 76 53q38 47 81 134q23 47 48 110q10 65 31 143q40 152 90 217l3 3q4 4 12 6q15 2 21 -13q3 -5 -1 -22t-18 -54l-19 -53l-1 -1v-2l-3 -10l-21 -69q-26 -83 -55 -156q-12 -74 -12 -133
q-1 -138 48 -172q59 -39 192 70q10 8 20.5 3.5t12 -14.5t-6.5 -19q-157 -129 -240 -73q-67 46 -66 205v15q-43 -87 -85 -140q-55 -67 -107 -68q-31 0 -51 36q-14 24 -21 64q-12 57 -12 111q0 247 86 478q4 12 15.5 13.5t19 -7t3.5 -20.5zM277 841q20 -31 28 -46l23 -37
q8 -12 0.5 -23t-19.5 -11.5t-21 10.5q-1 1 -4 7t-8 14l-10 16q-18 31 -27 44q-8 11 -1.5 23t18.5 13t21 -10z" />
    <glyph glyph-name="Uacute" unicode="&#xda;" horiz-adv-x="500" 
d="M151 677q-84 -223 -84 -464q0 -46 11 -103q8 -36 17 -53q9 -15 16 -15q32 0 76 53q38 47 81 134q23 47 48 110q10 65 31 143q40 152 90 217l3 3q4 4 12 6q15 2 21 -13q3 -5 -1 -22t-18 -54l-19 -53l-1 -1v-2l-3 -10l-21 -69q-26 -83 -55 -156q-12 -74 -12 -133
q-1 -138 48 -172q59 -39 192 70q10 8 20.5 3.5t12 -14.5t-6.5 -19q-157 -129 -240 -73q-67 46 -66 205v15q-43 -87 -85 -140q-55 -67 -107 -68q-31 0 -51 36q-14 24 -21 64q-12 57 -12 111q0 247 86 478q4 12 15.5 13.5t19 -7t3.5 -20.5zM337 845q7 12 20.5 10t19 -13
t-1.5 -23q-2 -3 -28 -44l-21 -37q-8 -12 -21.5 -11t-19 11.5t0.5 23.5q20 33 22 37q5 8 29 46z" />
    <glyph glyph-name="Yacute" unicode="&#xdd;" horiz-adv-x="473" 
d="M321 292l6 36q-65 -88 -106 -186q-10 -24 -12 -62q-1 -22 3 -32q2 -6 5 -6q24 -2 41 24q12 18 26 59q17 54 37 167zM35 597l21 19l24 23q28 26 51 38q18 11 33 17l14 5q3 1 8 1q4 1 8 0q12 -3 15 -16q1 -3 -1 -11q0 -1 -2 -7q-1 -6 -6 -17l-22 -49q-35 -77 -55 -137
q-25 -81 -18 -124q4 -22 16 -32q15 -12 43 -12q15 0 43 28q28 27 62 75l37 55l37 61l20 33q12 19 40 72l5 13q1 5 4 8l4 5q12 11 25 2q7 -4 9 -13v-5q0 -5 -3 -15q-1 -6 -6 -19l-18 -53l-24 -72q43 41 91 76q16 11 27 -4.5t-3 -27.5q-71 -51 -134 -122q-1 -4 -4 -21
t-7 -39.5t-8 -46.5q-19 -108 -39 -172q-13 -43 -31 -70q-30 -44 -76 -41q-30 2 -41 32q-7 17 -5 48q3 46 16 76q56 134 158 253l9 41q-29 -47 -51 -77q-36 -53 -66 -81q-41 -39 -71 -39q-42 0 -68 21q-24 19 -30 56q-10 51 19 144q17 53 56 140l13 28l-3 -1q-14 -8 -44 -33
l-23 -22l-21 -21q-14 -12 -28 2t0 28zM407 847q7 12 20.5 10t19 -13t-1.5 -23q-2 -3 -28 -44l-21 -37q-8 -12 -21.5 -11t-19 11.5t0.5 23.5q20 33 22 37q4 8 29 46z" />
    <glyph glyph-name="agrave" unicode="&#xe0;" horiz-adv-x="366" 
d="M302 356q13 44 -4 71t-65 9q-36 -10 -73.5 -54.5t-60 -99.5t-33 -111.5t7.5 -90.5q13 -31 32 -38q22 -9 59.5 17t61.5 64q15 23 29 56l5 20t11.5 45t15.5 60v4q0 2 0.5 8t0.5 11q1 19 13 29zM339 343v-1v-1v-1v-1l-1 -2l-1 -7l-5 -24q-10 -51 -14 -64q-12 -48 -23 -75
q-6 -35 -7 -48q-5 -53 8 -75q10 -21 43 -16q19 2 22 -17t-16 -23q-61 -10 -85 38q-12 25 -13 56q-41 -53 -88 -73q-36 -16 -68 -4q-34 13 -53 59q-34 99 24 233q28 64 70 112t87 65q78 29 112 -25q28 -41 8 -106zM257 629q20 -31 28 -46l23 -37q8 -12 0.5 -23t-19.5 -11.5
t-21 10.5q-1 1 -4 7t-8 14l-10 16q-18 31 -27 44q-8 11 -1.5 23t18.5 13t21 -10z" />
    <glyph glyph-name="aacute" unicode="&#xe1;" horiz-adv-x="366" 
d="M302 356q13 44 -4 71t-65 9q-36 -10 -73.5 -54.5t-60 -99.5t-33 -111.5t7.5 -90.5q13 -31 32 -38q22 -9 59.5 17t61.5 64q15 23 29 56l5 20t11.5 45t15.5 60v4q0 2 0.5 8t0.5 11q1 19 13 29zM339 343v-1v-1v-1v-1l-1 -2l-1 -7l-5 -24q-10 -51 -14 -64q-12 -48 -23 -75
q-6 -35 -7 -48q-5 -53 8 -75q10 -21 43 -16q19 2 22 -17t-16 -23q-61 -10 -85 38q-12 25 -13 56q-41 -53 -88 -73q-36 -16 -68 -4q-34 13 -53 59q-34 99 24 233q28 64 70 112t87 65q78 29 112 -25q28 -41 8 -106zM339 631q7 12 20.5 10t19 -13t-1.5 -23q-2 -3 -28 -44
l-21 -37q-8 -12 -21.5 -11t-19 11.5t0.5 23.5q20 33 22 37q5 8 29 46z" />
    <glyph glyph-name="acircumflex" unicode="&#xe2;" horiz-adv-x="366" 
d="M302 356q13 44 -4 71t-65 9q-36 -10 -73.5 -54.5t-60 -99.5t-33 -111.5t7.5 -90.5q13 -31 32 -38q22 -9 59.5 17t61.5 64q15 23 29 56l5 20t11.5 45t15.5 60v4q0 2 0.5 8t0.5 11q1 19 13 29zM339 343v-1v-1v-1v-1l-1 -2l-1 -7l-5 -24q-10 -51 -14 -64q-12 -48 -23 -75
q-6 -35 -7 -48q-5 -53 8 -75q10 -21 43 -16q19 2 22 -17t-16 -23q-61 -10 -85 38q-12 25 -13 56q-41 -53 -88 -73q-36 -16 -68 -4q-34 13 -53 59q-34 99 24 233q28 64 70 112t87 65q78 29 112 -25q28 -41 8 -106zM431 467q8 -8 -12 -15q-18 -6 -24 0q-3 4 -12.5 15t-14.5 17
t-13 19t-10 16q-4 7 -13 21t-15 25t-9 22q18 -2 27 -2q0 -1 2 1l-4 -3l-6 -6q-5 -5 -19 -13q-6 -4 -17 -10t-16 -9q-41 -20 -78 -29q-18 -4 -21 3q-2 5 4 9t12 5q4 1 10 2t9 3l5 2l-1 -1q1 0 2 1q7 2 8 3l17 8l-1 -1q1 0 2 1t2.5 2t2.5 1q5 2 7 4l34 19q2 1 3 2l4 3q3 2 5 5
q12 8 19 12q5 3 14.5 3t12.5 -5q3 -11 8.5 -22t14.5 -24.5t13 -20.5q21 -34 48 -63z" />
    <glyph glyph-name="atilde" unicode="&#xe3;" horiz-adv-x="366" 
d="M302 356q-12 -10 -13 -29q0 -5 -0.5 -11t-0.5 -8v-4q-8 -31 -15.5 -60t-11.5 -45l-5 -20q-14 -33 -29 -56q-24 -38 -61.5 -64t-59.5 -17q-19 7 -32 38q-18 34 -7.5 90.5t33 111.5t60 99.5t73.5 54.5q48 18 65 -9t4 -71zM339 342v1q20 65 -8 106q-34 54 -112 25
q-45 -17 -87 -65t-70 -112q-58 -134 -24 -233q19 -46 53 -59q32 -12 68 4q47 20 88 73q1 -31 13 -56q24 -48 85 -38q19 4 16 23t-22 17q-33 -5 -43 16q-13 22 -8 75q1 13 7 48q11 27 23 75q4 13 14 64l5 24l1 7l1 2v1v1v1zM181 523q-15 -10 -28 -7q-6 1 -7 4.5t4 7.5
q50 31 71 37q41 12 82 -5q2 -1 32 -17q5 -4 15 -7q5 -2 13 -2h16l3 1v-1h-1l2 1q-1 0 -3 -1l3 2h1l3 2l1 1l3 3q1 2 5 6q7 10 25 10q3 0 6 -1t5 -3t-1 -6q-13 -17 -27 -23q-23 -10 -42 -11q-27 0 -39 4q-12 3 -32 15q-15 10 -35 15q-1 1 -3.5 1.5t-3.5 0.5h-5h-1h-9
q-3 0 -4 -1q-3 0 -4 -1h-2l-2 -1l-4 -2h-1q-6 -3 -7 -4l-16 -9l-7 -5l-2 -1z" />
    <glyph glyph-name="egrave" unicode="&#xe8;" horiz-adv-x="394" 
d="M73 185q53 36 97 91t67 115q19 48 8 69q-3 4 -10 4q-17 -2 -43 -19q-54 -35 -86 -109q-31 -73 -33 -151zM75 138v-3q12 -79 56 -93q53 -17 144 68l25 23q13 12 30 33l14 20l20 27q12 14 27.5 3t4.5 -27l-17 -23l-13 -19q-21 -27 -40 -44l-23 -23q-109 -100 -184 -76
q-68 21 -83 125q-13 91 23 196q36 104 111 154q38 24 63 25q31 1 46 -24q22 -35 -4 -103q-28 -71 -81.5 -135t-118.5 -104zM190 690q20 -31 28 -46l23 -37q8 -12 0.5 -23t-19.5 -11.5t-21 10.5q-1 1 -4 7t-8 14l-10 16q-18 31 -27 44q-8 11 -1.5 23t18.5 13t21 -10z" />
    <glyph glyph-name="eacute" unicode="&#xe9;" horiz-adv-x="394" 
d="M73 185q53 36 97 91t67 115q19 48 8 69q-3 4 -10 4q-17 -2 -43 -19q-54 -35 -86 -109q-31 -73 -33 -151zM75 138v-3q12 -79 56 -93q53 -17 144 68l25 23q13 12 30 33l14 20l20 27q12 14 27.5 3t4.5 -27l-17 -23l-13 -19q-21 -27 -40 -44l-23 -23q-109 -100 -184 -76
q-68 21 -83 125q-13 91 23 196q36 104 111 154q38 24 63 25q31 1 46 -24q22 -35 -4 -103q-28 -71 -81.5 -135t-118.5 -104zM295 663q7 12 20.5 10t19 -13t-1.5 -23q-2 -3 -28 -44l-21 -37q-8 -12 -21.5 -11t-19 11.5t0.5 23.5q20 33 22 37q5 7 29 46z" />
    <glyph glyph-name="ecircumflex" unicode="&#xea;" horiz-adv-x="394" 
d="M73 185q53 36 97 91t67 115q19 48 8 69q-3 4 -10 4q-17 -2 -43 -19q-54 -35 -86 -109q-31 -73 -33 -151zM75 138v-3q12 -79 56 -93q53 -17 144 68l25 23q13 12 30 33l14 20l20 27q12 14 27.5 3t4.5 -27l-17 -23l-13 -19q-21 -27 -40 -44l-23 -23q-109 -100 -184 -76
q-68 21 -83 125q-13 91 23 196q36 104 111 154q38 24 63 25q31 1 46 -24q22 -35 -4 -103q-28 -71 -81.5 -135t-118.5 -104zM384 479q8 -8 -12 -15q-18 -6 -24 0q-3 4 -12.5 15t-14.5 17t-13 19t-10 16q-4 7 -13 21t-15 25t-9 22q18 -2 27 -2q0 -1 2 1l-4 -3q-1 -1 -2.5 -3
t-3.5 -3q-5 -5 -19 -13q-5 -4 -16 -10t-17 -9q-41 -20 -78 -29q-18 -4 -21 3q-2 5 4 9t12 5q3 1 9 2t10 3t5 2l-1 -1q1 0 2 1q7 2 8 3l17 8l-1 -1q1 0 2 1q2 1 2.5 2t2.5 1q4 2 7 4l34 19q2 1 3 2l4 3q3 2 5 5q12 8 19 12q5 3 14.5 3t12.5 -5q3 -11 8.5 -22t14.5 -24.5
t13 -20.5q21 -34 48 -63z" />
    <glyph glyph-name="igrave" unicode="&#xec;" horiz-adv-x="163" 
d="M147 462q-12 -45 -20 -105q-15 -108 -16 -109l-6 -38q-3 -18 -6 -35.5t-5 -26.5q-4 -30 -5 -58q-1 -30 0 -69q0 -12 -10 -17.5t-20 -1t-10 16.5q-2 47 2 104q1 9 4.5 31t3.5 28l6 35q1 6 3 14t3 13.5t1 9.5q2 7 16 108q11 70 21 110q2 7 7 11t11 3.5t11 -3t8 -8.5t1 -13z
M100 633q20 -31 28 -46l23 -37q8 -12 0.5 -23t-19.5 -11.5t-21 10.5q-1 1 -4 7t-8 14l-10 16q-18 31 -27 44q-8 11 -1.5 23t18.5 13t21 -10z" />
    <glyph glyph-name="iacute" unicode="&#xed;" horiz-adv-x="198" 
d="M180 632q7 12 20.5 10t19 -13t-1.5 -23q-2 -3 -28 -44l-21 -37q-8 -12 -21.5 -11t-19 11.5t0.5 23.5q20 33 22 37q5 8 29 46zM147 462q-12 -45 -20 -105q-15 -108 -16 -109l-6 -38q-3 -18 -6 -35.5t-5 -26.5q-4 -30 -5 -58q-1 -30 0 -69q0 -12 -10 -17.5t-20 -1t-10 16.5
q-2 47 2 104q1 9 4.5 31t3.5 28l6 35q1 6 3 14t3 13.5t1 9.5q2 7 16 108q11 70 21 110q2 7 7 11t11 3.5t11 -3t8 -8.5t1 -13z" />
    <glyph glyph-name="ograve" unicode="&#xf2;" horiz-adv-x="357" 
d="M316 427q8 2 15.5 -2t8.5 -12q15 -60 17 -131q2 -68 -20 -136q-23 -71 -70 -117q-57 -50 -133 -44q-40 4 -68.5 26.5t-37.5 61.5q-22 90 9 195t99 170q36 33 73.5 41t68.5 -11q24 -14 38 -41zM296 337q4 70 -39 96q-40 25 -93 -25q-60 -56 -89 -151t-9 -174
q14 -54 72 -58q28 -3 54 7q27 9 47 27q46 43 64 111q18 69 12 146q-8 0 -13.5 6.5t-5.5 14.5zM234 625q20 -31 28 -46l23 -37q8 -12 0.5 -23t-19.5 -11.5t-21 10.5q-1 1 -4 7t-8 14l-10 16q-18 31 -27 44q-8 11 -1.5 23t18.5 13t21 -10z" />
    <glyph glyph-name="oacute" unicode="&#xf3;" horiz-adv-x="357" 
d="M316 427q8 2 15.5 -2t8.5 -12q15 -60 17 -131q2 -68 -20 -136q-23 -71 -70 -117q-57 -50 -133 -44q-40 4 -68.5 26.5t-37.5 61.5q-22 90 9 195t99 170q36 33 73.5 41t68.5 -11q24 -14 38 -41zM296 337q4 70 -39 96q-40 25 -93 -25q-60 -56 -89 -151t-9 -174
q14 -54 72 -58q28 -3 54 7q27 9 47 27q46 43 64 111q18 69 12 146q-8 0 -13.5 6.5t-5.5 14.5zM303 623q7 12 20.5 10t19 -13t-1.5 -23q-2 -3 -28 -44l-21 -37q-8 -12 -21.5 -11t-19 11.5t0.5 23.5q20 33 22 37q5 7 29 46z" />
    <glyph glyph-name="ocircumflex" unicode="&#xf4;" horiz-adv-x="357" 
d="M316 427q8 2 15.5 -2t8.5 -12q15 -60 17 -131q2 -68 -20 -136q-23 -71 -70 -117q-57 -50 -133 -44q-40 4 -68.5 26.5t-37.5 61.5q-22 90 9 195t99 170q36 33 73.5 41t68.5 -11q24 -14 38 -41zM296 337q4 70 -39 96q-40 25 -93 -25q-60 -56 -89 -151t-9 -174
q14 -54 72 -58q28 -3 54 7q27 9 47 27q46 43 64 111q18 69 12 146q-8 0 -13.5 6.5t-5.5 14.5zM406 467q8 -8 -12 -15q-18 -6 -24 0q-3 4 -12.5 15t-14.5 17t-13 19t-10 16q-4 7 -13 21t-15 25t-9 22q18 -2 27 -2q0 -1 2 1l-4 -3q-1 -1 -2.5 -3t-3.5 -3q-5 -5 -19 -13
q-5 -4 -16 -10t-17 -9q-41 -20 -78 -29q-18 -4 -21 3q-2 5 4 9t12 5q3 1 9.5 2t9.5 3q4 2 5 2l-1 -1q1 0 2 1q7 2 8 3l17 8l-1 -1q1 0 2 1l2 1q2 2 3 2q5 2 7 4l34 19q2 1 3 2l4 3q3 2 5 5q12 8 19 12q5 3 14.5 3t12.5 -5q3 -11 8.5 -22t14.5 -24.5t13 -20.5q21 -34 48 -63z
" />
    <glyph glyph-name="otilde" unicode="&#xf5;" horiz-adv-x="357" 
d="M316 427q-14 27 -38 41q-31 19 -68.5 11t-73.5 -41q-68 -65 -99 -170t-9 -195q9 -39 37.5 -61.5t68.5 -26.5q76 -6 133 44q47 46 70 117q22 68 20 136q-2 71 -17 131q-1 8 -8.5 12t-15.5 2zM296 337q0 -8 5.5 -14.5t13.5 -6.5q6 -77 -12 -146q-18 -68 -64 -111
q-20 -18 -47 -27q-26 -10 -54 -7q-58 4 -72 58q-20 79 9 174t89 151q53 50 93 25q43 -26 39 -96zM161 517q-15 -10 -28 -7q-6 1 -7 4.5t4 7.5q50 31 71 37q41 12 82 -5q3 -1 32 -17q5 -4 15 -7q5 -2 13 -2h16l3 1v-1h-1l2 1q-1 0 -3 -1l3 2h1l3 2l1 1l3 3q1 2 5 6
q7 10 25 10q3 0 6 -1t5 -3t-1 -6q-13 -17 -27 -23q-23 -10 -42 -11q-27 0 -39 4q-12 3 -32 15q-15 10 -35 15q-1 1 -3.5 1.5t-3.5 0.5h-5h-1h-9q-3 0 -4 -1q-3 0 -4 -1h-2l-2 -1l-4 -2h-1q-6 -3 -7 -4l-16 -9l-7 -5l-2 -1z" />
    <glyph glyph-name="ugrave" unicode="&#xf9;" horiz-adv-x="426" 
d="M119 459q-31 -137 -38 -240q-7 -77 1 -130q7 -52 28 -61q25 -10 49 15q25 25 48 85q17 48 32 110q7 25 11 48l8 32l9 44q4 16 13 51q0 3 1 6q1 5 1 10q2 8 5 13q8 11 19 10q10 0 17 -9q10 -13 7 -43q-1 -17 -9 -52l-31 -132q-14 -78 -3 -120q13 -47 63 -55q27 -4 58 12
q10 6 20 -1t9.5 -17.5t-11.5 -17.5q-41 -22 -82 -16q-75 10 -95 84q-5 14 -6 28q-26 -68 -55 -98q-43 -46 -94 -23q-42 19 -52 91q-8 57 -1 139q9 104 38 245q4 19 23 15t17 -23zM196 627q20 -31 28 -46l23 -37q8 -12 0.5 -23t-19.5 -11.5t-21 10.5q-1 1 -4 7t-8 14l-10 16
q-18 31 -27 44q-8 11 -1.5 23t18.5 13t21 -10z" />
    <glyph glyph-name="uacute" unicode="&#xfa;" horiz-adv-x="426" 
d="M119 459q-31 -137 -38 -240q-7 -77 1 -130q7 -52 28 -61q25 -10 49 15q25 25 48 85q17 48 32 110q7 25 11 48l8 32l9 44q4 16 13 51q0 3 1 6q1 5 1 10q2 8 5 13q8 11 19 10q10 0 17 -9q10 -13 7 -43q-1 -17 -9 -52l-31 -132q-14 -78 -3 -120q13 -47 63 -55q27 -4 58 12
q10 6 20 -1t9.5 -17.5t-11.5 -17.5q-41 -22 -82 -16q-75 10 -95 84q-5 14 -6 28q-26 -68 -55 -98q-43 -46 -94 -23q-42 19 -52 91q-8 57 -1 139q9 104 38 245q4 19 23 15t17 -23zM265 627q7 12 20.5 10t19 -13t-1.5 -23q-2 -3 -28 -44l-21 -37q-8 -12 -21.5 -11t-19 11.5
t0.5 23.5q20 33 22 37q4 8 29 46z" />
    <glyph glyph-name="yacute" unicode="&#xfd;" horiz-adv-x="400" 
d="M95 486l-11 -72l-7 -54q-10 -80 -11 -130q-5 -92 6 -142q7 -32 19 -43t25.5 -6t31.5 23q24 22 48 66q33 60 52 122q9 89 31 155q0 1 1 3t1 3q3 4 7 7q8 5 16 2q8 -2 12 -9q3 -5 3 -9v-4q0 -1 -0.5 -2t-1 -3.5t-0.5 -4.5q0 -4 -1.5 -12.5t-1.5 -10.5q-6 -42 -21 -103
l-5 -20q-4 -38 -6 -81q55 55 103 56q12 0 17.5 -10t1 -20t-16.5 -10q-35 -1 -78 -45q-20 -22 -28 -33q-1 -7 -1 -73q1 -42 1 -72q0 -63 -4 -86q-4 -33 -19 -51q-21 -30 -57 -8q-48 28 -43 102q3 60 40 131q22 42 43 71v15l-10 -20q-28 -49 -55 -75q-37 -35 -73 -35
q-54 2 -70 81q-12 54 -7 153q2 44 5 66l6 66q7 49 8 54l6 46q4 21 4 28q1 12 12 15.5t20 -3t8 -18.5zM227 -158q6 6 11 32q3 22 3 80v46v38l-8 -14q-32 -65 -36 -115q-3 -49 24 -66q6 -4 6 -1zM227 -159h-1h1zM262 625q7 12 20.5 10t19 -13t-1.5 -23q-2 -3 -28 -44l-21 -37
q-8 -12 -21.5 -11t-19 11.5t0.5 23.5q20 33 22 37q5 8 29 46z" />
    <glyph glyph-name="Abreve" unicode="&#x102;" 
d="M370 155v-3q-54 -148 -163 -152h-21q-19 0 -44 14q-70 44 -92 126q-23 83 -9 182q13 88 51 174q38 84 85 133q53 53 101 71q50 20 90 0q56 -25 73 -116l1 1q11 2 18 -5q4 -3 6 -9l1 -7q0 -3 -1 -5l-2 -12l-28 -112q-10 -45 -15 -65l-13 -64q-14 -100 8 -169
q11 -40 51 -73.5t67 -23.5q21 6 36 37q3 6 9.5 8.5t12 1.5t10.5 -5t6 -10t-2 -13q-23 -47 -61 -57q-35 -10 -72 9q-32 17 -58.5 48.5t-36.5 65.5q-6 17 -8 30zM407 519q0 120 -55.5 145.5t-146.5 -63.5q-44 -45 -77 -122q-35 -81 -47 -163q-28 -199 83 -268q14 -9 41 -8
q82 3 127 126q17 47 37 150q7 48 29 135q11 45 13 53v3q-4 4 -4 12zM313 808q0 5 8 8q6 3 14 5q17 2 17 -7q-2 -21 16 -31l16 -9h4l1 -1q0 -1 3 -1q8 -2 9 -2h3l2 -1h2h12h7h2q3 0 11 2v-1l3 1h-1q2 0 2 1q-1 -1 2 0q2 0 2 2q2 0 3 1l1 1h1l1 1l3 3l8 9q7 10 25 10
q6 0 9.5 -2t0.5 -7q-39 -53 -120 -40q-27 3 -47 18q-22 13 -20 40z" />
    <glyph glyph-name="abreve" unicode="&#x103;" horiz-adv-x="366" 
d="M302 356q13 44 -4 71t-65 9q-36 -10 -73.5 -54.5t-60 -99.5t-33 -111.5t7.5 -90.5q13 -31 32 -38q22 -9 59.5 17t61.5 64q15 23 29 56l5 20t11.5 45t15.5 60v4q0 2 0.5 8t0.5 11q1 19 13 29zM339 343v-1v-1v-1v-1l-1 -2l-1 -7l-5 -24q-10 -51 -14 -64q-12 -48 -23 -75
q-6 -35 -7 -48q-5 -53 8 -75q10 -21 43 -16q19 2 22 -17t-16 -23q-61 -10 -85 38q-12 25 -13 56q-41 -53 -88 -73q-36 -16 -68 -4q-34 13 -53 59q-34 99 24 233q28 64 70 112t87 65q78 29 112 -25q28 -41 8 -106zM237 567q0 5 8 8q5 3 14 5q17 2 17 -7q-2 -21 16 -31l16 -9
q2 0 4 -1h1q0 -1 3 -1q8 -2 9 -2q2 0 3 -1h2h2h12h7h2q3 0 11 2v-1l3 1h-1q2 0 2 1q-1 -1 2 0q2 1 2.5 2t2.5 1h1v1l1 1h1l3 3l8 9q7 10 25 10q6 0 9.5 -2t0.5 -7q-39 -53 -120 -40q-27 3 -47 18q-22 13 -20 40z" />
    <glyph glyph-name="Dcroat" unicode="&#x110;" horiz-adv-x="663" 
d="M87 174v14q-15 -22 -11 -50q1 -18 11 -36q1 12 0 36v36zM462 48q-25 -14 -60 -26q-93 -32 -208 -20q-39 6 -72 20q-1 -14 -7 -36q-2 -7 -7 -11t-11 -3.5t-11 3t-8 8.5t-1 13q5 27 8 49q-41 33 -49 87q-9 71 50 109l-4 99q-1 25 -2.5 63.5t-1.5 41.5q-2 134 2 203l-36 -9
q-7 -2 -13 1t-8.5 8t-3 11t3.5 11t11 7q34 10 50 13v3q1 8 7.5 13.5t14.5 4.5q13 -1 17 -13q104 18 191 -6q64 -18 125 -58q64 -41 110 -96q110 -131 88 -266q-14 -81 -101 -167q-18 -19 -39 -35q42 -38 76 -75q8 -9 3.5 -19.5t-14.5 -12.5t-19 6q-30 34 -81 79zM466 97
q18 13 42 36q78 77 89 145q20 119 -79 234q-42 49 -101 88q-57 37 -113 54q-81 22 -183 3q-6 -76 -4 -196l5 -105l4 -98q41 10 84 -2q103 -28 256 -159zM429 76q-141 117 -229 142q-40 11 -73 -2v-42q0 -103 -1 -109q29 -17 73 -23q54 -6 103 0q48 4 86 18q31 10 41 16z
M-16 354q-8 0 -14.5 4.5t-0.5 11.5q12 15 38 15q37 1 104.5 -0.5t93.5 -1.5q8 0 14 -4.5t1 -11.5q-11 -15 -38 -15q-26 0 -93.5 1.5t-104.5 0.5z" />
    <glyph glyph-name="dcroat" unicode="&#x111;" horiz-adv-x="431" 
d="M349 30l5 -9l15 10q10 6 19.5 -1t9 -17.5t-10.5 -17.5q-4 -4 -11 -8q-17 -11 -31 -7q-19 4 -33 36q-8 22 -14 51q-7 43 -9 83q-1 16 0 33l-55 -86q-57 -87 -107 -104q-26 -9 -49 2q-18 10 -32 34q-21 43 -20 108q2 68 22 125q49 139 122 185q35 22 81 16q36 -6 56 -35
q4 -5 10 -19q20 101 67 269q3 13 14.5 14.5t19.5 -6.5t4 -18q-65 -227 -85 -380q16 -12 4 -28l-8 -12q-6 -49 -4 -96q1 -38 9 -78q4 -24 11 -44zM270 267q15 71 14 101q-1 25 -10 38q-9 14 -29 17q-31 5 -53 -10q-63 -38 -106 -165q-18 -50 -20 -112q0 -60 16 -88
q12 -25 32 -17q36 12 86 88l82 126q-15 7 -12 22zM258 593q44 -9 108 -6q62 3 110 14q3 1 5.5 0t3.5 -3.5t1.5 -5t-1.5 -4.5t-5 -3q-49 -11 -113 -14q-66 -3 -113 6q-7 2 -5.5 9.5t9.5 6.5z" />
    <glyph glyph-name="Itilde" unicode="&#x128;" horiz-adv-x="294" 
d="M81 313l-6 2q-2 1 -7 1q-16 2 -21 -15q-2 -8 1 -13q-5 -36 -1 -82q5 -52 16 -96q17 -62 41 -89q16 -19 36 -24q23 -5 46 9q15 10 29 31q11 -23 27 -43q8 -10 19 -7.5t15 12t-2 19.5q-19 25 -37 65q1 6 6 19q19 61 29 147q17 138 17 262q0 101 -1 108q-1 32 -7 61
q-5 17 -11 24q-11 16 -30 11q-12 -1 -23 -15q-7 -8 -13 -22q-8 -16 -20 -57q-11 -41 -20 -93q-18 -103 -12 -224q-39 1 -71 9zM86 271q28 -5 69 -7l1 -9q10 -100 38 -172q-13 -34 -30 -43q-8 -6 -15 -4q-7 1 -15 11q-18 20 -32 73q-22 81 -16 151zM196 263h5q19 0 19 20
t-19 20h-9q-6 117 12 217q7 41 19 90q7 29 17 51l3 6q4 -18 6 -50v-106q0 -132 -16 -256q-8 -61 -18 -104q-13 47 -19 108v4zM146 763q-15 -10 -28 -7q-6 1 -7 4.5t4 7.5q50 31 71 37q41 12 82 -5q2 -1 32 -17q5 -4 15 -7q5 -2 13 -2h16l3 1l-1 -1l2 1q-1 0 -3 -1l3 2h1l3 2
l1 1l3 3q1 2 5 6q7 10 25 10q3 0 6 -1t5 -3t-1 -6q-13 -17 -27 -23q-23 -10 -42 -11q-27 0 -39 4q-12 3 -32 15q-15 10 -35 15q-1 1 -3.5 1.5t-3.5 0.5h-5h-1h-9q-3 0 -4 -1q-3 0 -4 -1h-3l-1 -1l-4 -2h-1q-6 -3 -7 -4l-16 -9l-7 -5l-2 -1z" />
    <glyph glyph-name="itilde" unicode="&#x129;" horiz-adv-x="184" 
d="M23 520q-15 -10 -28 -7q-6 1 -7 4.5t4 7.5q50 31 71 37q41 12 82 -5q2 -1 32 -17q5 -4 15 -7q5 -2 13 -2h16l3 1v0l-1 -1l2 1q-1 0 -3 -1l3 2h1l3 2l1 1l3 3q1 2 5 6q7 10 25 10q3 0 6 -1t5 -3t-1 -6q-13 -17 -27 -23q-23 -10 -42 -11q-27 0 -39 4q-12 3 -32 15
q-15 10 -35 15q-1 1 -3.5 1.5t-3.5 0.5h-5h-1h-9q-3 0 -4 -1q-3 0 -4 -1q-1 0 -2 -1h-2l-4 -2h-1q-6 -3 -7 -4l-16 -9l-7 -5l-2 -1zM147 462q2 7 -1 13t-8 8.5t-11 3t-11 -3.5t-7 -11q-10 -40 -21 -110q-14 -101 -16 -108q0 -4 -1 -9.5t-3 -13.5t-3 -14l-6 -35
q0 -6 -3.5 -28t-4.5 -31q-4 -57 -2 -104q0 -12 10 -16.5t20 1t10 17.5q-1 39 0 69q1 28 5 58q2 9 5 26.5t6 35.5l6 38q1 1 16 109q8 60 20 105z" />
    <glyph glyph-name="Utilde" unicode="&#x168;" horiz-adv-x="500" 
d="M237 761q-15 -10 -28 -7q-6 1 -7 4.5t4 7.5q50 31 71 37q41 12 82 -5q3 -1 32 -17q5 -4 15 -7q5 -2 13 -2h16l3 1v-1h-1l2 1q-1 0 -3 -1l3 2h1l3 2l1 1l3 3q1 2 5 6q7 10 25 10q3 0 6 -1t5 -3t-1 -6q-13 -17 -27 -23q-23 -10 -42 -11q-27 0 -39 4q-12 3 -32 15
q-15 10 -35 15q-1 1 -3.5 1.5t-3.5 0.5h-5h-1h-9q-3 0 -4 -1q-3 0 -4 -1h-2l-2 -1l-4 -2h-1q-6 -3 -7 -4l-16 -9l-7 -5l-2 -1zM151 677q4 12 -3.5 20.5t-19 7t-15.5 -13.5q-86 -231 -86 -478q0 -54 12 -111q7 -40 21 -64q20 -36 51 -36q52 1 107 68q42 53 85 140v-15
q-1 -159 66 -205q83 -56 240 73q9 8 6.5 19t-12 14.5t-20.5 -3.5q-133 -109 -192 -70q-49 34 -48 172q0 59 12 133q29 73 55 156l21 69l3 10v2l1 1l19 53q14 37 18 54t1 22q-6 15 -21 13q-8 -2 -12 -6l-3 -3q-50 -65 -90 -217q-21 -78 -31 -143q-25 -63 -48 -110
q-43 -87 -81 -134q-44 -53 -76 -53q-7 0 -16 15q-9 17 -17 53q-11 57 -11 103q0 241 84 464z" />
    <glyph glyph-name="utilde" unicode="&#x169;" horiz-adv-x="426" 
d="M119 459q2 19 -17 23t-23 -15q-29 -141 -38 -245q-7 -82 1 -139q10 -72 52 -91q51 -23 94 23q29 30 55 98q1 -14 6 -28q20 -74 95 -84q41 -6 82 16q11 7 11.5 17.5t-9.5 17.5t-20 1q-31 -16 -58 -12q-50 8 -63 55q-11 42 3 120l31 132q8 35 9 52q3 30 -7 43q-8 9 -17 9
q-11 1 -19 -10q-3 -5 -5 -13q0 -5 -1 -10q-1 -3 -1 -6q-9 -35 -13 -51l-9 -44l-8 -32q-4 -23 -11 -48q-15 -62 -32 -110q-23 -60 -48 -85q-24 -25 -49 -15q-21 9 -28 61q-8 53 -1 130q7 103 38 240zM159 519q-15 -10 -28 -7q-6 1 -7 4.5t4 7.5q50 31 71 37q41 12 82 -5
q2 -1 32 -17q5 -4 15 -7q5 -2 13 -2h16l3 1v-1h-1l2 1q-1 0 -3 -1l3 2h1l3 2l1 1l3 3q1 2 5 6q7 10 25 10q3 0 6 -1t5 -3t-1 -6q-13 -17 -27 -23q-23 -10 -42 -11q-27 0 -39 4q-12 3 -32 15q-15 10 -35 15q-1 1 -3.5 1.5t-3.5 0.5h-5h-1h-9q-3 0 -4 -1q-3 0 -4 -1h-2l-2 -1
l-4 -2h-1q-6 -3 -7 -4l-16 -9l-7 -5l-2 -1z" />
    <glyph glyph-name="Ohorn" unicode="&#x1a0;" horiz-adv-x="466" 
d="M247 649q97 -3 144 -87q43 -80 33 -207q-10 -121 -65 -220q-54 -100 -123 -115q-83 -19 -127 43q-39 56 -38 150q2 110 20 178q24 88 82 174q35 53 74 84zM308 680q19 4 15 23t-23 17q-84 -18 -160 -132q-61 -91 -87 -187q-20 -75 -22 -188q-1 -105 45 -172
q58 -85 168 -61q86 19 151 136q57 105 69 235q12 138 -38 230q-40 76 -118 99zM408 704q-7 -11 -25 -11q-18 3 -11 12q7 11 20.5 16t25.5 0q14 -5 16 -22q4 -29 -41 -48q-17 -8 -25 0q-8 9 10 16l1 1q2 0 4 2l2 1l3 3l2 2l3 3l2 6q2 8 -3 13l-3 3h-1q12 -4 21 5v-1z" />
    <glyph glyph-name="ohorn" unicode="&#x1a1;" horiz-adv-x="357" 
d="M316 427q-14 27 -38 41q-31 19 -68.5 11t-73.5 -41q-68 -65 -99 -170t-9 -195q9 -39 37.5 -61.5t68.5 -26.5q76 -6 133 44q47 46 70 117q22 68 20 136q-2 71 -17 131q-1 8 -8.5 12t-15.5 2zM296 337q0 -8 5.5 -14.5t13.5 -6.5q6 -77 -12 -146q-18 -68 -64 -111
q-20 -18 -47 -27q-26 -10 -54 -7q-58 4 -72 58q-20 79 9 174t89 151q53 50 93 25q43 -26 39 -96zM358 487q-7 -11 -25 -11q-18 3 -11 12q7 11 20.5 16t25.5 0q14 -5 16 -22q4 -29 -41 -48q-17 -8 -25 0q-8 9 10 16l1 1q2 0 4 2l2 1l3 3l2 2l3 3l2 6q2 8 -3 13l-3 3h-1
q12 -4 21 5v-1z" />
    <glyph glyph-name="Uhorn" unicode="&#x1af;" horiz-adv-x="500" 
d="M151 677q4 12 -3.5 20.5t-19 7t-15.5 -13.5q-86 -231 -86 -478q0 -54 12 -111q7 -40 21 -64q20 -36 51 -36q52 1 107 68q42 53 85 140v-15q-1 -159 66 -205q83 -56 240 73q9 8 6.5 19t-12 14.5t-20.5 -3.5q-133 -109 -192 -70q-49 34 -48 172q0 59 12 133q29 73 55 156
l21 69l3 10v2l1 1l19 53q14 37 18 54t1 22q-6 15 -21 13q-8 -2 -12 -6l-3 -3q-50 -65 -90 -217q-21 -78 -31 -143q-25 -63 -48 -110q-43 -87 -81 -134q-44 -53 -76 -53q-7 0 -16 15q-9 17 -17 53q-11 57 -11 103q0 241 84 464zM513 739q-7 -11 -25 -11q-18 3 -11 12
q7 11 20.5 16t25.5 0q14 -5 16 -22q4 -29 -41 -48q-17 -8 -25 0q-8 9 10 16l1 1q2 0 4 2l2 1l3 3l2 2l3 3l2 6q2 8 -3 13l-3 3h-1q12 -4 21 5v-1z" />
    <glyph glyph-name="uhorn" unicode="&#x1b0;" horiz-adv-x="426" 
d="M119 459q2 19 -17 23t-23 -15q-29 -141 -38 -245q-7 -82 1 -139q10 -72 52 -91q51 -23 94 23q29 30 55 98q1 -14 6 -28q20 -74 95 -84q41 -6 82 16q11 7 11.5 17.5t-9.5 17.5t-20 1q-31 -16 -58 -12q-50 8 -63 55q-11 42 3 120l31 132q8 35 9 52q3 30 -7 43q-8 9 -17 9
q-11 1 -19 -10q-3 -5 -5 -13q0 -5 -1 -10q-1 -3 -1 -6q-9 -35 -13 -51l-9 -44l-8 -32q-4 -23 -11 -48q-15 -62 -32 -110q-23 -60 -48 -85q-24 -25 -49 -15q-21 9 -28 61q-8 53 -1 130q7 103 38 240zM368 486q-7 -11 -25 -11q-18 3 -11 12q7 11 20.5 16t25.5 0q14 -5 16 -22
q4 -29 -41 -48q-17 -8 -25 0q-8 9 10 16l1 1q2 0 4 2l2 1l3 3l2 2l3 3l2 6q2 8 -3 13l-3 3h-1q12 -4 21 5v-1z" />
    <glyph glyph-name="uni1EA0" unicode="&#x1ea0;" 
d="M370 155q2 -13 8 -30q10 -34 36.5 -65.5t58.5 -48.5q37 -19 72 -9q38 10 61 57q3 7 2 13t-6 10t-10.5 5t-12 -1.5t-9.5 -8.5q-15 -31 -36 -37q-27 -10 -67 23.5t-51 73.5q-22 69 -8 169l13 64q5 20 15 65l28 112q0 2 0.5 5t1 4.5t0.5 2.5q1 2 1 5l-1 7q-2 6 -6 9
q-7 7 -18 5l-1 -1q-17 91 -73 116q-40 20 -90 0q-48 -18 -101 -71q-47 -49 -85 -133q-38 -86 -51 -174q-14 -99 9 -182q22 -82 92 -126q25 -14 44 -14h21q109 4 163 152v3zM407 519q0 -8 4 -12v-3q-2 -8 -13 -53q-22 -87 -29 -135q-20 -103 -37 -150q-45 -123 -127 -126
q-27 -1 -41 8q-111 69 -83 268q12 82 47 163q33 77 77 122q91 89 146.5 63.5t55.5 -145.5zM160 -72q0 9 6.5 15.5t15.5 6.5t15.5 -6.5t6.5 -15.5t-6.5 -15.5t-15.5 -6.5t-15.5 6.5t-6.5 15.5z" />
    <glyph glyph-name="uni1EA1" unicode="&#x1ea1;" horiz-adv-x="366" 
d="M302 356q13 44 -4 71t-65 9q-36 -10 -73.5 -54.5t-60 -99.5t-33 -111.5t7.5 -90.5q13 -31 32 -38q22 -9 59.5 17t61.5 64q15 23 29 56l5 20t11.5 45t15.5 60v4q0 2 0.5 8t0.5 11q1 19 13 29zM339 343v-1v-1v-1v-1l-1 -2l-1 -7l-5 -24q-10 -51 -14 -64q-12 -48 -23 -75
q-6 -35 -7 -48q-5 -53 8 -75q10 -21 43 -16q19 2 22 -17t-16 -23q-61 -10 -85 38q-12 25 -13 56q-41 -53 -88 -73q-36 -16 -68 -4q-34 13 -53 59q-34 99 24 233q28 64 70 112t87 65q78 29 112 -25q28 -41 8 -106zM160 -72q0 9 6.5 15.5t15.5 6.5t15.5 -6.5t6.5 -15.5
t-6.5 -15.5t-15.5 -6.5t-15.5 6.5t-6.5 15.5z" />
    <glyph glyph-name="uni1EA2" unicode="&#x1ea2;" 
d="M370 155q2 -13 8 -30q10 -34 36.5 -65.5t58.5 -48.5q37 -19 72 -9q38 10 61 57q3 7 2 13t-6 10t-10.5 5t-12 -1.5t-9.5 -8.5q-15 -31 -36 -37q-27 -10 -67 23.5t-51 73.5q-22 69 -8 169l13 64q5 20 15 65l28 112q0 2 0.5 5t1 4.5t0.5 2.5q1 2 1 5l-1 7q-2 6 -6 9
q-7 7 -18 5l-1 -1q-17 91 -73 116q-40 20 -90 0q-48 -18 -101 -71q-47 -49 -85 -133q-38 -86 -51 -174q-14 -99 9 -182q22 -82 92 -126q25 -14 44 -14h21q109 4 163 152v3zM407 519q0 -8 4 -12v-3q-2 -8 -13 -53q-22 -87 -29 -135q-20 -103 -37 -150q-45 -123 -127 -126
q-27 -1 -41 8q-111 69 -83 268q12 82 47 163q33 77 77 122q91 89 146.5 63.5t55.5 -145.5zM401 785q-7 -11 -25 -11q-18 3 -11 12q7 11 20.5 16t25.5 0q14 -5 16 -22q4 -29 -41 -48q-17 -8 -25 0q-8 9 10 16l1 1q2 0 4 2l2 1l3 3l2 2l3 3l2 6q2 8 -3 13l-3 3h-1q12 -4 21 5
v-1z" />
    <glyph glyph-name="uni1EA3" unicode="&#x1ea3;" horiz-adv-x="366" 
d="M302 356q-12 -10 -13 -29q0 -5 -0.5 -11t-0.5 -8v-4q-8 -31 -15.5 -60t-11.5 -45l-5 -20q-14 -33 -29 -56q-24 -38 -61.5 -64t-59.5 -17q-19 7 -32 38q-18 34 -7.5 90.5t33 111.5t60 99.5t73.5 54.5q48 18 65 -9t4 -71zM339 342v1q20 65 -8 106q-34 54 -112 25
q-45 -17 -87 -65t-70 -112q-58 -134 -24 -233q19 -46 53 -59q32 -12 68 4q47 20 88 73q1 -31 13 -56q24 -48 85 -38q19 4 16 23t-22 17q-33 -5 -43 16q-13 22 -8 75q1 13 7 48q11 27 23 75q4 13 14 64l5 24l1 7l1 2v1v1v1zM339 573q-7 -11 -25 -11q-18 3 -11 12
q7 11 20.5 16t25.5 0q14 -5 16 -22q4 -29 -41 -48q-17 -8 -25 0q-8 9 10 16l1 1q2 0 4 2l2 1l3 3l2 2l3 3l2 6q2 8 -3 13l-3 3h-1q12 -4 21 5v-1z" />
    <glyph glyph-name="uni1EA4" unicode="&#x1ea4;" 
d="M370 155v-3q-54 -148 -163 -152h-21q-19 0 -44 14q-70 44 -92 126q-23 83 -9 182q13 88 51 174q38 84 85 133q53 53 101 71q50 20 90 0q56 -25 73 -116l1 1q11 2 18 -5q4 -3 6 -9l1 -7q0 -3 -1 -5l-2 -12l-28 -112q-10 -45 -15 -65l-13 -64q-14 -100 8 -169
q11 -40 51 -73.5t67 -23.5q21 6 36 37q3 6 9.5 8.5t12 1.5t10.5 -5t6 -10t-2 -13q-23 -47 -61 -57q-35 -10 -72 9q-32 17 -58.5 48.5t-36.5 65.5q-6 17 -8 30zM407 519q0 120 -55.5 145.5t-146.5 -63.5q-44 -45 -77 -122q-35 -81 -47 -163q-28 -199 83 -268q14 -9 41 -8
q82 3 127 126q17 47 37 150q7 48 29 135q11 45 13 53v3q-4 4 -4 12zM512 683q8 -8 -12 -15q-18 -6 -24 0q-3 4 -12.5 15t-14.5 17t-13 19t-10 16q-4 7 -13 21t-15 25t-9 22q18 -2 27 -2q0 -1 2 1l-4 -3l-6 -6q-5 -5 -19 -13q-6 -4 -17 -10t-16 -9q-41 -20 -78 -29
q-18 -4 -21 3q-2 5 4 9t12 5q4 1 9.5 2t9.5 3t5 2l-1 -1q1 0 2 1q7 2 8 3l17 8l-1 -1q1 0 2 1t2.5 2t2.5 1q5 2 7 4l34 19q2 1 3 2l4 3q3 2 5 5q12 8 19 12q5 3 14.5 3t12.5 -5q3 -11 8.5 -22t14.5 -24.5t13 -20.5q21 -34 48 -63zM539 886q7 12 20.5 10t19 -13t-1.5 -23
q-2 -3 -28 -44l-21 -37q-8 -12 -21.5 -11t-19 11.5t0.5 23.5q20 33 22 37q4 7 29 46z" />
    <glyph glyph-name="uni1EA5" unicode="&#x1ea5;" horiz-adv-x="366" 
d="M302 356q13 44 -4 71t-65 9q-36 -10 -73.5 -54.5t-60 -99.5t-33 -111.5t7.5 -90.5q13 -31 32 -38q22 -9 59.5 17t61.5 64q15 23 29 56l5 20t11.5 45t15.5 60v4q0 2 0.5 8t0.5 11q1 19 13 29zM339 343v-1v-1v-1v-1l-1 -2l-1 -7l-5 -24q-10 -51 -14 -64q-12 -48 -23 -75
q-6 -35 -7 -48q-5 -53 8 -75q10 -21 43 -16q19 2 22 -17t-16 -23q-61 -10 -85 38q-12 25 -13 56q-41 -53 -88 -73q-36 -16 -68 -4q-34 13 -53 59q-34 99 24 233q28 64 70 112t87 65q78 29 112 -25q28 -41 8 -106zM431 467q8 -8 -12 -15q-18 -6 -24 0q-3 4 -12.5 15t-14.5 17
t-13 19t-10 16q-4 7 -13 21t-15 25t-9 22q18 -2 27 -2q0 -1 2 1l-4 -3l-6 -6q-5 -5 -19 -13q-6 -4 -17 -10t-16 -9q-41 -20 -78 -29q-18 -4 -21 3q-2 5 4 9t12 5q4 1 10 2t9 3l5 2l-1 -1q1 0 2 1q7 2 8 3l17 8l-1 -1q1 0 2 1t2.5 2t2.5 1q5 2 7 4l34 19q2 1 3 2l4 3q3 2 5 5
q12 8 19 12q5 3 14.5 3t12.5 -5q3 -11 8.5 -22t14.5 -24.5t13 -20.5q21 -34 48 -63zM453 687q7 12 20.5 10t19 -13t-1.5 -23q-2 -3 -28 -44l-21 -37q-8 -12 -21.5 -11t-19 11.5t0.5 23.5q20 33 22 37q4 8 29 46z" />
    <glyph glyph-name="uni1EA6" unicode="&#x1ea6;" 
d="M370 155v-3q-54 -148 -163 -152h-21q-19 0 -44 14q-70 44 -92 126q-23 83 -9 182q13 88 51 174q38 84 85 133q53 53 101 71q50 20 90 0q56 -25 73 -116l1 1q11 2 18 -5q4 -3 6 -9l1 -7q0 -3 -1 -5l-2 -12l-28 -112q-10 -45 -15 -65l-13 -64q-14 -100 8 -169
q11 -40 51 -73.5t67 -23.5q21 6 36 37q3 6 9.5 8.5t12 1.5t10.5 -5t6 -10t-2 -13q-23 -47 -61 -57q-35 -10 -72 9q-32 17 -58.5 48.5t-36.5 65.5q-6 17 -8 30zM407 519q0 120 -55.5 145.5t-146.5 -63.5q-44 -45 -77 -122q-35 -81 -47 -163q-28 -199 83 -268q14 -9 41 -8
q82 3 127 126q17 47 37 150q7 48 29 135q11 45 13 53v3q-4 4 -4 12zM512 683q8 -8 -12 -15q-18 -6 -24 0q-3 4 -12.5 15t-14.5 17t-13 19t-10 16q-4 7 -13 21t-15 25t-9 22q18 -2 27 -2q0 -1 2 1l-4 -3l-6 -6q-5 -5 -19 -13q-6 -4 -17 -10t-16 -9q-41 -20 -78 -29
q-18 -4 -21 3q-2 5 4 9t12 5q4 1 9.5 2t9.5 3t5 2l-1 -1q1 0 2 1q7 2 8 3l17 8l-1 -1q1 0 2 1t2.5 2t2.5 1q5 2 7 4l34 19q2 1 3 2l4 3q3 2 5 5q12 8 19 12q5 3 14.5 3t12.5 -5q3 -11 8.5 -22t14.5 -24.5t13 -20.5q21 -34 48 -63zM509 847q20 -31 28 -46l23 -37
q8 -12 0.5 -23t-19.5 -11.5t-21 10.5q-1 1 -4 7t-8 14l-10 16q-18 31 -27 44q-8 11 -1.5 23t18.5 13t21 -10z" />
    <glyph glyph-name="uni1EA7" unicode="&#x1ea7;" horiz-adv-x="366" 
d="M302 356q13 44 -4 71t-65 9q-36 -10 -73.5 -54.5t-60 -99.5t-33 -111.5t7.5 -90.5q13 -31 32 -38q22 -9 59.5 17t61.5 64q15 23 29 56l5 20t11.5 45t15.5 60v4q0 2 0.5 8t0.5 11q1 19 13 29zM339 343v-1v-1v-1v-1l-1 -2l-1 -7l-5 -24q-10 -51 -14 -64q-12 -48 -23 -75
q-6 -35 -7 -48q-5 -53 8 -75q10 -21 43 -16q19 2 22 -17t-16 -23q-61 -10 -85 38q-12 25 -13 56q-41 -53 -88 -73q-36 -16 -68 -4q-34 13 -53 59q-34 99 24 233q28 64 70 112t87 65q78 29 112 -25q28 -41 8 -106zM431 467q8 -8 -12 -15q-18 -6 -24 0q-3 4 -12.5 15t-14.5 17
t-13 19t-10 16q-4 7 -13 21t-15 25t-9 22q18 -2 27 -2q0 -1 2 1l-4 -3l-6 -6q-5 -5 -19 -13q-6 -4 -17 -10t-16 -9q-41 -20 -78 -29q-18 -4 -21 3q-2 5 4 9t12 5q4 1 10 2t9 3l5 2l-1 -1q1 0 2 1q7 2 8 3l17 8l-1 -1q1 0 2 1t2.5 2t2.5 1q5 2 7 4l34 19q2 1 3 2l4 3q3 2 5 5
q12 8 19 12q5 3 14.5 3t12.5 -5q3 -11 8.5 -22t14.5 -24.5t13 -20.5q21 -34 48 -63zM417 639q20 -31 28 -46l23 -37q8 -12 0.5 -23t-19.5 -11.5t-21 10.5q-1 1 -4 7t-8 14l-10 16q-18 31 -27 44q-8 11 -1.5 23t18.5 13t21 -10z" />
    <glyph glyph-name="uni1EA8" unicode="&#x1ea8;" 
d="M370 155q2 -13 8 -30q10 -34 36.5 -65.5t58.5 -48.5q37 -19 72 -9q38 10 61 57q3 7 2 13t-6 10t-10.5 5t-12 -1.5t-9.5 -8.5q-15 -31 -36 -37q-27 -10 -67 23.5t-51 73.5q-22 69 -8 169l13 64q5 20 15 65l28 112q0 2 0.5 5t1 4.5t0.5 2.5q1 2 1 5l-1 7q-2 6 -6 9
q-7 7 -18 5l-1 -1q-17 91 -73 116q-40 20 -90 0q-48 -18 -101 -71q-47 -49 -85 -133q-38 -86 -51 -174q-14 -99 9 -182q22 -82 92 -126q25 -14 44 -14h21q109 4 163 152v3zM407 519q0 -8 4 -12v-3q-2 -8 -13 -53q-22 -87 -29 -135q-20 -103 -37 -150q-45 -123 -127 -126
q-27 -1 -41 8q-111 69 -83 268q12 82 47 163q33 77 77 122q91 89 146.5 63.5t55.5 -145.5zM512 683q-27 29 -48 63q-4 7 -13 20.5t-14.5 24.5t-8.5 22q-3 5 -12.5 5t-14.5 -3q-7 -4 -19 -12q-2 -3 -5 -5l-4 -3q-1 -1 -3 -2l-34 -19q-2 -2 -7 -4q-1 0 -2.5 -1t-2.5 -2t-2 -1
l1 1l-17 -8q-1 -1 -8 -3q-1 -1 -2 -1l1 1q-1 0 -5 -2t-9.5 -3t-9.5 -2q-6 -1 -12 -5t-4 -9q3 -7 21 -3q37 9 78 29q5 3 16 9t17 10q14 8 19 13q1 0 2 1t2 2.5t2 2.5l4 3l1 1l-3 -2q-9 0 -27 2q3 -11 9 -22t15 -25t13 -21q2 -3 10 -16t13 -19t14.5 -17t12.5 -15q8 -8 28 2
q15 6 8 13zM533 822q-7 -11 -25 -11q-18 3 -11 12q7 11 20.5 16t25.5 0q14 -5 16 -22q4 -29 -41 -48q-17 -8 -25 0q-8 9 10 16l1 1q2 0 4 2l2 1l3 3l2 2l3 3l2 6q2 8 -3 13l-3 3h-1q12 -4 21 5v-1z" />
    <glyph glyph-name="uni1EA9" unicode="&#x1ea9;" horiz-adv-x="366" 
d="M302 356q-12 -10 -13 -29q0 -5 -0.5 -11t-0.5 -8v-4q-8 -31 -15.5 -60t-11.5 -45l-5 -20q-14 -33 -29 -56q-24 -38 -61.5 -64t-59.5 -17q-19 7 -32 38q-18 34 -7.5 90.5t33 111.5t60 99.5t73.5 54.5q48 18 65 -9t4 -71zM339 342v1q20 65 -8 106q-34 54 -112 25
q-45 -17 -87 -65t-70 -112q-58 -134 -24 -233q19 -46 53 -59q32 -12 68 4q47 20 88 73q1 -31 13 -56q24 -48 85 -38q19 4 16 23t-22 17q-33 -5 -43 16q-13 22 -8 75q1 13 7 48q11 27 23 75q4 13 14 64l5 24l1 7l1 2v1v1v1zM431 467q-27 29 -48 63q-4 7 -13 20.5t-14.5 24.5
t-8.5 22q-3 5 -12.5 5t-14.5 -3q-7 -4 -19 -12q-2 -3 -5 -5l-4 -3q-1 -1 -3 -2l-34 -19q-3 -2 -7 -4q-1 0 -2.5 -1t-2.5 -2t-2 -1l1 1l-17 -8q-1 -1 -8 -3q-1 -1 -2 -1l1 1l-5 -2q-3 -2 -9 -3t-10 -2q-6 -1 -12 -5t-4 -9q3 -7 21 -3q37 9 78 29q5 3 16 9t17 10q14 8 19 13
q1 0 2 1t2 2.5t2 2.5l4 3l1 1l-3 -2q-9 0 -27 2q3 -11 9 -22t15 -25t13 -21q2 -3 10 -16t13 -19t14.5 -17t12.5 -15q8 -8 28 2q15 6 8 13zM459 610q-7 -11 -25 -11q-18 3 -11 12q7 11 20.5 16t25.5 0q14 -5 16 -22q4 -29 -41 -48q-17 -8 -25 0q-8 9 10 16l1 1q2 0 4 2l2 1
l3 3l2 2l3 3l2 6q2 8 -3 13l-3 3h-1q12 -4 21 5v-1z" />
    <glyph glyph-name="uni1EAA" unicode="&#x1eaa;" 
d="M370 155q2 -13 8 -30q10 -34 36.5 -65.5t58.5 -48.5q37 -19 72 -9q38 10 61 57q3 7 2 13t-6 10t-10.5 5t-12 -1.5t-9.5 -8.5q-15 -31 -36 -37q-27 -10 -67 23.5t-51 73.5q-22 69 -8 169l13 64q5 20 15 65l28 112q0 2 0.5 5t1 4.5t0.5 2.5q1 2 1 5l-1 7q-2 6 -6 9
q-7 7 -18 5l-1 -1q-17 91 -73 116q-40 20 -90 0q-48 -18 -101 -71q-47 -49 -85 -133q-38 -86 -51 -174q-14 -99 9 -182q22 -82 92 -126q25 -14 44 -14h21q109 4 163 152v3zM407 519q0 -8 4 -12v-3q-2 -8 -13 -53q-22 -87 -29 -135q-20 -103 -37 -150q-45 -123 -127 -126
q-27 -1 -41 8q-111 69 -83 268q12 82 47 163q33 77 77 122q91 89 146.5 63.5t55.5 -145.5zM512 683q-27 29 -48 63q-4 7 -13 20.5t-14.5 24.5t-8.5 22q-3 5 -12.5 5t-14.5 -3q-7 -4 -19 -12q-2 -3 -5 -5l-4 -3q-1 -1 -3 -2l-34 -19q-2 -2 -7 -4q-1 0 -2.5 -1t-2.5 -2t-2 -1
l1 1l-17 -8q-1 -1 -8 -3q-1 -1 -2 -1l1 1q-1 0 -5 -2t-9.5 -3t-9.5 -2q-6 -1 -12 -5t-4 -9q3 -7 21 -3q37 9 78 29q5 3 16 9t17 10q14 8 19 13q1 0 2 1t2 2.5t2 2.5l4 3l1 1l-3 -2q-9 0 -27 2q3 -11 9 -22t15 -25t13 -21q2 -3 10 -16t13 -19t14.5 -17t12.5 -15q8 -8 28 2
q15 6 8 13zM339 833q-15 -10 -28 -7q-6 1 -7 4.5t4 7.5q50 31 71 37q41 12 82 -5q2 -1 32 -17q5 -4 15 -7q5 -2 13 -2h16l3 1v-1h-1l2 1q-1 0 -3 -1l3 2h1l3 2l1 1l3 3q1 2 5 6q7 10 25 10q3 0 6 -1t5 -3t-1 -6q-13 -17 -27 -23q-23 -10 -42 -11q-27 0 -39 4q-12 3 -32 15
q-15 10 -35 15q-1 1 -3.5 1.5t-3.5 0.5h-5h-1h-9q-3 0 -4 -1q-3 0 -4 -1h-2l-2 -1l-4 -2h-1q-6 -3 -7 -4l-16 -9l-7 -5l-2 -1z" />
    <glyph glyph-name="uni1EAB" unicode="&#x1eab;" horiz-adv-x="366" 
d="M302 356q-12 -10 -13 -29q0 -5 -0.5 -11t-0.5 -8v-4q-8 -31 -15.5 -60t-11.5 -45l-5 -20q-14 -33 -29 -56q-24 -38 -61.5 -64t-59.5 -17q-19 7 -32 38q-18 34 -7.5 90.5t33 111.5t60 99.5t73.5 54.5q48 18 65 -9t4 -71zM339 342v1q20 65 -8 106q-34 54 -112 25
q-45 -17 -87 -65t-70 -112q-58 -134 -24 -233q19 -46 53 -59q32 -12 68 4q47 20 88 73q1 -31 13 -56q24 -48 85 -38q19 4 16 23t-22 17q-33 -5 -43 16q-13 22 -8 75q1 13 7 48q11 27 23 75q4 13 14 64l5 24l1 7l1 2v1v1v1zM431 467q-27 29 -48 63q-4 7 -13 20.5t-14.5 24.5
t-8.5 22q-3 5 -12.5 5t-14.5 -3q-7 -4 -19 -12q-2 -3 -5 -5l-4 -3q-1 -1 -3 -2l-34 -19q-3 -2 -7 -4q-1 0 -2.5 -1t-2.5 -2t-2 -1l1 1l-17 -8q-1 -1 -8 -3q-1 -1 -2 -1l1 1l-5 -2q-3 -2 -9 -3t-10 -2q-6 -1 -12 -5t-4 -9q3 -7 21 -3q37 9 78 29q5 3 16 9t17 10q14 8 19 13
q1 0 2 1t2 2.5t2 2.5l4 3l1 1l-3 -2q-9 0 -27 2q3 -11 9 -22t15 -25t13 -21q2 -3 10 -16t13 -19t14.5 -17t12.5 -15q8 -8 28 2q15 6 8 13zM253 617q-15 -10 -28 -7q-6 1 -7 4.5t4 7.5q50 31 71 37q41 12 82 -5q2 -1 32 -17q5 -4 15 -7q5 -2 13 -2h16l3 1v-1h-1l2 1
q-1 0 -3 -1l3 2h1l3 2l1 1l3 3q1 2 5 6q7 10 25 10q3 0 6 -1t5 -3t-1 -6q-13 -17 -27 -23q-23 -10 -42 -11q-27 0 -39 4q-12 3 -32 15q-15 10 -35 15q-1 1 -3.5 1.5t-3.5 0.5h-5h-1h-9q-3 0 -4 -1q-3 0 -4 -1h-2l-2 -1l-4 -2h-1q-6 -3 -7 -4l-16 -9l-7 -5l-2 -1z" />
    <glyph glyph-name="uni1EAC" unicode="&#x1eac;" 
d="M370 155v-3q-54 -148 -163 -152h-21q-19 0 -44 14q-70 44 -92 126q-23 83 -9 182q13 88 51 174q38 84 85 133q53 53 101 71q50 20 90 0q56 -25 73 -116l1 1q11 2 18 -5q4 -3 6 -9l1 -7q0 -3 -1 -5l-2 -12l-28 -112q-10 -45 -15 -65l-13 -64q-14 -100 8 -169
q11 -40 51 -73.5t67 -23.5q21 6 36 37q3 6 9.5 8.5t12 1.5t10.5 -5t6 -10t-2 -13q-23 -47 -61 -57q-35 -10 -72 9q-32 17 -58.5 48.5t-36.5 65.5q-6 17 -8 30zM407 519q0 120 -55.5 145.5t-146.5 -63.5q-44 -45 -77 -122q-35 -81 -47 -163q-28 -199 83 -268q14 -9 41 -8
q82 3 127 126q17 47 37 150q7 48 29 135q11 45 13 53v3q-4 4 -4 12zM160 -72q0 9 6.5 15.5t15.5 6.5t15.5 -6.5t6.5 -15.5t-6.5 -15.5t-15.5 -6.5t-15.5 6.5t-6.5 15.5zM500 684q8 -8 -12 -15q-18 -6 -24 0q-3 4 -12.5 15t-14.5 17t-13 19t-10 16q-4 7 -13 21t-15 25t-9 22
q18 -2 27 -2q0 -1 2 1l-4 -3l-6 -6q-5 -5 -19 -13q-6 -4 -17 -10t-16 -9q-41 -20 -78 -29q-18 -4 -21 3q-2 5 4 9t12 5q4 2 10 3t9 2q4 1 5 2l-1 -1q1 0 2 1q7 2 8 3l17 8l-1 -1q1 0 2 1q1 0 2.5 1t2.5 2q5 1 7 4l34 19q2 1 3 2l4 3q3 2 5 5q12 8 19 12q5 3 14.5 3t12.5 -5
q3 -11 8.5 -22t14.5 -24.5t13 -20.5q21 -35 48 -63z" />
    <glyph glyph-name="uni1EAD" unicode="&#x1ead;" horiz-adv-x="366" 
d="M302 356q13 44 -4 71t-65 9q-36 -10 -73.5 -54.5t-60 -99.5t-33 -111.5t7.5 -90.5q13 -31 32 -38q22 -9 59.5 17t61.5 64q15 23 29 56l5 20t11.5 45t15.5 60v4q0 2 0.5 8t0.5 11q1 19 13 29zM339 343v-1v-1v-1v-1l-1 -2l-1 -7l-5 -24q-10 -51 -14 -64q-12 -48 -23 -75
q-6 -35 -7 -48q-5 -53 8 -75q10 -21 43 -16q19 2 22 -17t-16 -23q-61 -10 -85 38q-12 25 -13 56q-41 -53 -88 -73q-36 -16 -68 -4q-34 13 -53 59q-34 99 24 233q28 64 70 112t87 65q78 29 112 -25q28 -41 8 -106zM160 -72q0 9 6.5 15.5t15.5 6.5t15.5 -6.5t6.5 -15.5
t-6.5 -15.5t-15.5 -6.5t-15.5 6.5t-6.5 15.5zM430 466q8 -8 -12 -15q-18 -6 -24 0q-3 4 -12.5 15t-14.5 17t-13 19t-10 16q-4 7 -13 21t-15 25t-9 22q18 -2 27 -2q0 -1 2 1l-4 -3q-1 -1 -2.5 -3t-3.5 -3q-5 -5 -19 -13q-5 -3 -16 -9t-17 -10q-41 -20 -78 -29q-18 -4 -21 3
q-2 5 4 9t12 5q3 2 9.5 3t9.5 2q4 1 5 2l-1 -1q1 0 2 1q7 2 8 3l17 8l-1 -1q1 0 2 1q2 0 2 2q2 0 3 1q5 1 7 4l34 19q2 1 3 2l4 3q3 2 5 5q12 8 19 12q5 3 14.5 3t12.5 -5q3 -11 8.5 -22t14.5 -24.5t13 -20.5q21 -35 48 -63z" />
    <glyph glyph-name="uni1EAE" unicode="&#x1eae;" 
d="M370 155v-3q-54 -148 -163 -152h-21q-19 0 -44 14q-70 44 -92 126q-23 83 -9 182q13 88 51 174q38 84 85 133q53 53 101 71q50 20 90 0q56 -25 73 -116l1 1q11 2 18 -5q4 -3 6 -9l1 -7q0 -3 -1 -5l-2 -12l-28 -112q-10 -45 -15 -65l-13 -64q-14 -100 8 -169
q11 -40 51 -73.5t67 -23.5q21 6 36 37q3 6 9.5 8.5t12 1.5t10.5 -5t6 -10t-2 -13q-23 -47 -61 -57q-35 -10 -72 9q-32 17 -58.5 48.5t-36.5 65.5q-6 17 -8 30zM407 519q0 120 -55.5 145.5t-146.5 -63.5q-44 -45 -77 -122q-35 -81 -47 -163q-28 -199 83 -268q14 -9 41 -8
q82 3 127 126q17 47 37 150q7 48 29 135q11 45 13 53v3q-4 4 -4 12zM313 808q0 5 8 8q6 3 14 5q17 2 17 -7q-2 -21 16 -31l16 -9h4l1 -1q0 -1 3 -1q8 -2 9 -2h3l2 -1h2h12h7h2q3 0 11 2v-1l3 1h-1q2 0 2 1q-1 -1 2 0q2 0 2 2q2 0 3 1l1 1h1l1 1l3 3l8 9q7 10 25 10
q6 0 9.5 -2t0.5 -7q-39 -53 -120 -40q-27 3 -47 18q-22 13 -20 40zM450 922q7 12 20.5 10t19 -13t-1.5 -23q-2 -3 -28 -44l-21 -37q-8 -12 -21.5 -11t-19 11.5t0.5 23.5q20 33 22 37q5 7 29 46z" />
    <glyph glyph-name="uni1EAF" unicode="&#x1eaf;" horiz-adv-x="366" 
d="M302 356q13 44 -4 71t-65 9q-36 -10 -73.5 -54.5t-60 -99.5t-33 -111.5t7.5 -90.5q13 -31 32 -38q22 -9 59.5 17t61.5 64q15 23 29 56l5 20t11.5 45t15.5 60v4q0 2 0.5 8t0.5 11q1 19 13 29zM339 343v-1v-1v-1v-1l-1 -2l-1 -7l-5 -24q-10 -51 -14 -64q-12 -48 -23 -75
q-6 -35 -7 -48q-5 -53 8 -75q10 -21 43 -16q19 2 22 -17t-16 -23q-61 -10 -85 38q-12 25 -13 56q-41 -53 -88 -73q-36 -16 -68 -4q-34 13 -53 59q-34 99 24 233q28 64 70 112t87 65q78 29 112 -25q28 -41 8 -106zM237 567q0 5 8 8q5 3 14 5q17 2 17 -7q-2 -21 16 -31l16 -9
q2 0 4 -1h1q0 -1 3 -1q8 -2 9 -2q2 0 3 -1h2h2h12h7h2q3 0 11 2v-1l3 1h-1q2 0 2 1q-1 -1 2 0q2 1 2.5 2t2.5 1h1v1l1 1h1l3 3l8 9q7 10 25 10q6 0 9.5 -2t0.5 -7q-39 -53 -120 -40q-27 3 -47 18q-22 13 -20 40zM379 683q7 12 20.5 10t19 -13t-1.5 -23q-2 -3 -28 -44
l-21 -37q-8 -12 -21.5 -11t-19 11.5t0.5 23.5q20 33 22 37q5 7 29 46z" />
    <glyph glyph-name="uni1EB0" unicode="&#x1eb0;" 
d="M370 155v-3q-54 -148 -163 -152h-21q-19 0 -44 14q-70 44 -92 126q-23 83 -9 182q13 88 51 174q38 84 85 133q53 53 101 71q50 20 90 0q56 -25 73 -116l1 1q11 2 18 -5q4 -3 6 -9l1 -7q0 -3 -1 -5l-2 -12l-28 -112q-10 -45 -15 -65l-13 -64q-14 -100 8 -169
q11 -40 51 -73.5t67 -23.5q21 6 36 37q3 6 9.5 8.5t12 1.5t10.5 -5t6 -10t-2 -13q-23 -47 -61 -57q-35 -10 -72 9q-32 17 -58.5 48.5t-36.5 65.5q-6 17 -8 30zM407 519q0 120 -55.5 145.5t-146.5 -63.5q-44 -45 -77 -122q-35 -81 -47 -163q-28 -199 83 -268q14 -9 41 -8
q82 3 127 126q17 47 37 150q7 48 29 135q11 45 13 53v3q-4 4 -4 12zM313 808q0 5 8 8q6 3 14 5q17 2 17 -7q-2 -21 16 -31l16 -9h4l1 -1q0 -1 3 -1q8 -2 9 -2h3l2 -1h2h12h7h2q3 0 11 2v-1l3 1h-1q2 0 2 1q-1 -1 2 0q2 0 2 2q2 0 3 1l1 1h1l1 1l3 3l8 9q7 10 25 10
q6 0 9.5 -2t0.5 -7q-39 -53 -120 -40q-27 3 -47 18q-22 13 -20 40zM391 919q20 -31 28 -46l23 -37q8 -12 0.5 -23t-19.5 -11.5t-21 10.5q-1 1 -4 7t-8 14l-10 16q-18 31 -27 44q-8 11 -1.5 23t18.5 13t21 -10z" />
    <glyph glyph-name="uni1EB1" unicode="&#x1eb1;" horiz-adv-x="366" 
d="M302 356q13 44 -4 71t-65 9q-36 -10 -73.5 -54.5t-60 -99.5t-33 -111.5t7.5 -90.5q13 -31 32 -38q22 -9 59.5 17t61.5 64q15 23 29 56l5 20t11.5 45t15.5 60v4q0 2 0.5 8t0.5 11q1 19 13 29zM339 343v-1v-1v-1v-1l-1 -2l-1 -7l-5 -24q-10 -51 -14 -64q-12 -48 -23 -75
q-6 -35 -7 -48q-5 -53 8 -75q10 -21 43 -16q19 2 22 -17t-16 -23q-61 -10 -85 38q-12 25 -13 56q-41 -53 -88 -73q-36 -16 -68 -4q-34 13 -53 59q-34 99 24 233q28 64 70 112t87 65q78 29 112 -25q28 -41 8 -106zM237 567q0 5 8 8q5 3 14 5q17 2 17 -7q-2 -21 16 -31l16 -9
q2 0 4 -1h1q0 -1 3 -1q8 -2 9 -2q2 0 3 -1h2h2h12h7h2q3 0 11 2v-1l3 1h-1q2 0 2 1q-1 -1 2 0q2 1 2.5 2t2.5 1h1v1l1 1h1l3 3l8 9q7 10 25 10q6 0 9.5 -2t0.5 -7q-39 -53 -120 -40q-27 3 -47 18q-22 13 -20 40zM314 682q20 -31 28 -46l23 -37q8 -12 0.5 -23t-19.5 -11.5
t-21 10.5q-1 1 -4 7t-8 14l-10 16q-18 31 -27 44q-8 11 -1.5 23t18.5 13t21 -10z" />
    <glyph glyph-name="uni1EB2" unicode="&#x1eb2;" 
d="M370 155q2 -13 8 -30q10 -34 36.5 -65.5t58.5 -48.5q37 -19 72 -9q38 10 61 57q3 7 2 13t-6 10t-10.5 5t-12 -1.5t-9.5 -8.5q-15 -31 -36 -37q-27 -10 -67 23.5t-51 73.5q-22 69 -8 169l13 64q5 20 15 65l28 112q0 2 0.5 5t1 4.5t0.5 2.5q1 2 1 5l-1 7q-2 6 -6 9
q-7 7 -18 5l-1 -1q-17 91 -73 116q-40 20 -90 0q-48 -18 -101 -71q-47 -49 -85 -133q-38 -86 -51 -174q-14 -99 9 -182q22 -82 92 -126q25 -14 44 -14h21q109 4 163 152v3zM407 519q0 -8 4 -12v-3q-2 -8 -13 -53q-22 -87 -29 -135q-20 -103 -37 -150q-45 -123 -127 -126
q-27 -1 -41 8q-111 69 -83 268q12 82 47 163q33 77 77 122q91 89 146.5 63.5t55.5 -145.5zM313 808q-2 -27 20 -40q20 -15 47 -18q81 -13 120 40q3 5 -0.5 7t-9.5 2q-18 0 -25 -10l-8 -9l-3 -3l-1 -1h-1l-1 -1l-2 -2t-3 -1q3 2 1 1l-3 -1q0 -1 -2 -1h1q-1 1 -3 0
q-8 -2 -11 -2h-2h-7h-12h-2l-2 1h-3q-1 0 -9 2h1q-3 0 -4 1l-1 1h-4l-16 9q-18 10 -16 31q0 9 -17 7q-9 -2 -14 -5q-8 -3 -8 -8zM447 859q-7 -11 -25 -11q-18 3 -11 12q7 11 20.5 16t25.5 0q14 -5 16 -22q4 -29 -41 -48q-17 -8 -25 0q-8 9 10 16l1 1q2 0 4 2l2 1l3 3l2 2
l3 3l2 6q2 8 -3 13l-3 3h-1q12 -4 21 5v-1z" />
    <glyph glyph-name="uni1EB3" unicode="&#x1eb3;" horiz-adv-x="366" 
d="M302 356q-12 -10 -13 -29q0 -5 -0.5 -11t-0.5 -8v-4q-8 -31 -15.5 -60t-11.5 -45l-5 -20q-14 -33 -29 -56q-24 -38 -61.5 -64t-59.5 -17q-19 7 -32 38q-18 34 -7.5 90.5t33 111.5t60 99.5t73.5 54.5q48 18 65 -9t4 -71zM339 342v1q20 65 -8 106q-34 54 -112 25
q-45 -17 -87 -65t-70 -112q-58 -134 -24 -233q19 -46 53 -59q32 -12 68 4q47 20 88 73q1 -31 13 -56q24 -48 85 -38q19 4 16 23t-22 17q-33 -5 -43 16q-13 22 -8 75q1 13 7 48q11 27 23 75q4 13 14 64l5 24l1 7l1 2v1v1v1zM237 567q-2 -27 20 -40q20 -15 47 -18
q81 -13 120 40q3 5 -0.5 7t-9.5 2q-18 0 -25 -10l-8 -9l-3 -3h-1l-1 -1v-1h-1q-2 0 -2.5 -1t-2.5 -2q3 2 1 1l-3 -1q0 -1 -2 -1h1q-1 1 -3 0q-8 -2 -11 -2h-2h-7h-12h-2h-2q-1 1 -3 1q-1 0 -9 2h1q-3 0 -4 1h-1q-2 1 -4 1l-16 9q-18 10 -16 31q0 9 -17 7q-8 -2 -14 -5
q-8 -3 -8 -8zM371 626q-7 -11 -25 -11q-18 3 -11 12q7 11 20.5 16t25.5 0q14 -5 16 -22q4 -29 -41 -48q-17 -8 -25 0q-8 9 10 16l1 1q2 0 4 2l2 1l3 3l2 2l3 3l2 6q2 8 -3 13l-3 3h-1q12 -4 21 5v-1z" />
    <glyph glyph-name="uni1EB4" unicode="&#x1eb4;" 
d="M370 155q2 -13 8 -30q10 -34 36.5 -65.5t58.5 -48.5q37 -19 72 -9q38 10 61 57q3 7 2 13t-6 10t-10.5 5t-12 -1.5t-9.5 -8.5q-15 -31 -36 -37q-27 -10 -67 23.5t-51 73.5q-22 69 -8 169l13 64q5 20 15 65l28 112q0 2 0.5 5t1 4.5t0.5 2.5q1 2 1 5l-1 7q-2 6 -6 9
q-7 7 -18 5l-1 -1q-17 91 -73 116q-40 20 -90 0q-48 -18 -101 -71q-47 -49 -85 -133q-38 -86 -51 -174q-14 -99 9 -182q22 -82 92 -126q25 -14 44 -14h21q109 4 163 152v3zM407 519q0 -8 4 -12v-3q-2 -8 -13 -53q-22 -87 -29 -135q-20 -103 -37 -150q-45 -123 -127 -126
q-27 -1 -41 8q-111 69 -83 268q12 82 47 163q33 77 77 122q91 89 146.5 63.5t55.5 -145.5zM313 808q-2 -27 20 -40q20 -15 47 -18q81 -13 120 40q3 5 -0.5 7t-9.5 2q-18 0 -25 -10l-8 -9l-3 -3l-1 -1h-1l-1 -1l-2 -2t-3 -1q3 2 1 1l-3 -1q0 -1 -2 -1h1q-1 1 -3 0
q-8 -2 -11 -2h-2h-7h-12h-2l-2 1h-3q-1 0 -9 2h1q-3 0 -4 1l-1 1h-4l-16 9q-18 10 -16 31q0 9 -17 7q-9 -2 -14 -5q-8 -3 -8 -8zM323 855q-15 -10 -28 -7q-6 1 -7 4.5t4 7.5q50 31 71 37q41 12 82 -5q3 -1 32 -17q5 -4 15 -7q5 -2 13 -2h16l3 1v-1h-1l2 1q-1 0 -3 -1l3 2h1
l3 2l1 1l3 3q1 2 5 6q7 10 25 10q3 0 6 -1t5 -3t-1 -6q-13 -17 -27 -23q-23 -10 -42 -11q-27 0 -39 4q-12 3 -32 15q-15 10 -35 15q-1 1 -3.5 1.5t-3.5 0.5h-5h-1h-9q-3 0 -4 -1q-3 0 -4 -1h-2l-2 -1l-4 -2h-1q-6 -3 -7 -4l-16 -9l-7 -5l-2 -1z" />
    <glyph glyph-name="uni1EB5" unicode="&#x1eb5;" horiz-adv-x="366" 
d="M302 356q-12 -10 -13 -29q0 -5 -0.5 -11t-0.5 -8v-4q-8 -31 -15.5 -60t-11.5 -45l-5 -20q-14 -33 -29 -56q-24 -38 -61.5 -64t-59.5 -17q-19 7 -32 38q-18 34 -7.5 90.5t33 111.5t60 99.5t73.5 54.5q48 18 65 -9t4 -71zM339 342v1q20 65 -8 106q-34 54 -112 25
q-45 -17 -87 -65t-70 -112q-58 -134 -24 -233q19 -46 53 -59q32 -12 68 4q47 20 88 73q1 -31 13 -56q24 -48 85 -38q19 4 16 23t-22 17q-33 -5 -43 16q-13 22 -8 75q1 13 7 48q11 27 23 75q4 13 14 64l5 24l1 7l1 2v1v1v1zM237 567q-2 -27 20 -40q20 -15 47 -18
q81 -13 120 40q3 5 -0.5 7t-9.5 2q-18 0 -25 -10l-8 -9l-3 -3h-1l-1 -1v-1h-1q-2 0 -2.5 -1t-2.5 -2q3 2 1 1l-3 -1q0 -1 -2 -1h1q-1 1 -3 0q-8 -2 -11 -2h-2h-7h-12h-2h-2q-1 1 -3 1q-1 0 -9 2h1q-3 0 -4 1h-1q-2 1 -4 1l-16 9q-18 10 -16 31q0 9 -17 7q-8 -2 -14 -5
q-8 -3 -8 -8zM224 609q-15 -10 -28 -7q-6 1 -7 4.5t4 7.5q50 31 71 37q41 12 82 -5q2 -1 32 -17q5 -4 15 -7q5 -2 13 -2h16l3 1l-1 -1l2 1q-1 0 -3 -1l3 2h1l3 2l1 1l3 3q1 2 5 6q7 10 25 10q3 0 6 -1t5 -3t-1 -6q-13 -17 -27 -23q-23 -10 -42 -11q-27 0 -39 4q-12 3 -32 15
q-15 10 -35 15q-1 1 -3.5 1.5t-3.5 0.5h-5h-1h-9q-3 0 -4 -1q-3 0 -4 -1h-3l-1 -1l-4 -2h-1q-6 -3 -7 -4l-16 -9l-7 -5l-2 -1z" />
    <glyph glyph-name="uni1EB6" unicode="&#x1eb6;" 
d="M370 155v-3q-54 -148 -163 -152h-21q-19 0 -44 14q-70 44 -92 126q-23 83 -9 182q13 88 51 174q38 84 85 133q53 53 101 71q50 20 90 0q56 -25 73 -116l1 1q11 2 18 -5q4 -3 6 -9l1 -7q0 -3 -1 -5l-2 -12l-28 -112q-10 -45 -15 -65l-13 -64q-14 -100 8 -169
q11 -40 51 -73.5t67 -23.5q21 6 36 37q3 6 9.5 8.5t12 1.5t10.5 -5t6 -10t-2 -13q-23 -47 -61 -57q-35 -10 -72 9q-32 17 -58.5 48.5t-36.5 65.5q-6 17 -8 30zM407 519q0 120 -55.5 145.5t-146.5 -63.5q-44 -45 -77 -122q-35 -81 -47 -163q-28 -199 83 -268q14 -9 41 -8
q82 3 127 126q17 47 37 150q7 48 29 135q11 45 13 53v3q-4 4 -4 12zM160 -72q0 9 6.5 15.5t15.5 6.5t15.5 -6.5t6.5 -15.5t-6.5 -15.5t-15.5 -6.5t-15.5 6.5t-6.5 15.5zM313 808q0 5 8 8q6 3 14 5q17 2 17 -7q-2 -21 16 -31l16 -9h4l1 -1q0 -1 3 -1q8 -2 9 -2h3l2 -1h2h12h7
h2q3 0 11 2v-1l3 1h-1q2 0 2 1q-1 -1 2 0q2 0 2 2q2 0 3 1l1 1h1l1 1l3 3l8 9q7 10 25 10q6 0 9.5 -2t0.5 -7q-39 -53 -120 -40q-27 3 -47 18q-22 13 -20 40z" />
    <glyph glyph-name="uni1EB7" unicode="&#x1eb7;" horiz-adv-x="366" 
d="M302 356q13 44 -4 71t-65 9q-36 -10 -73.5 -54.5t-60 -99.5t-33 -111.5t7.5 -90.5q13 -31 32 -38q22 -9 59.5 17t61.5 64q15 23 29 56l5 20t11.5 45t15.5 60v4q0 2 0.5 8t0.5 11q1 19 13 29zM339 343v-1v-1v-1v-1l-1 -2l-1 -7l-5 -24q-10 -51 -14 -64q-12 -48 -23 -75
q-6 -35 -7 -48q-5 -53 8 -75q10 -21 43 -16q19 2 22 -17t-16 -23q-61 -10 -85 38q-12 25 -13 56q-41 -53 -88 -73q-36 -16 -68 -4q-34 13 -53 59q-34 99 24 233q28 64 70 112t87 65q78 29 112 -25q28 -41 8 -106zM72 -60q0 9 6.5 15.5t15.5 6.5t15.5 -6.5t6.5 -15.5
t-6.5 -15.5t-15.5 -6.5t-15.5 6.5t-6.5 15.5zM253 568q0 5 8 8q6 3 14 5q17 2 17 -7q-2 -21 16 -31l16 -9h4l1 -1q0 -1 3 -1q8 -2 9 -2h3l2 -1h2h12h7h2q3 0 11 2v-1l3 1h-1q2 0 2 1q-1 -1 2 0q2 0 2 2q2 0 3 1l1 1h1l1 1l3 3l8 9q7 10 25 10q6 0 9.5 -2t0.5 -7
q-39 -53 -120 -40q-27 3 -47 18q-22 13 -20 40z" />
    <glyph glyph-name="uni1EB8" unicode="&#x1eb8;" horiz-adv-x="569" 
d="M393 484q-30 8 -88 -34q-35 -25 -64 -54q32 6 68 24q51 25 77 54q7 9 7 10zM457 659q-35 10 -87 -9.5t-103 -59.5q-51 -42 -77.5 -88.5t-18.5 -82.5q3 -14 13 -20l2 -2q52 55 96 85q74 54 124 40q30 -9 29 -36q-2 -19 -19 -38q-32 -34 -90 -63q-63 -32 -112 -33
q-9 0 -14 1l-16 -20q-65 -77 -97 -142q-35 -71 -26 -100q12 -40 63 -52q46 -12 96 0q116 29 206 122t120 210q2 7 7 11t11 3.5t11 -3t8 -8.5t1 -13q-32 -127 -129 -228t-225 -132q-59 -15 -116 -1q-73 18 -91 79q-14 47 29 130q35 72 101 150l6 8q-20 14 -28 44
q-11 50 20 106t91 104q59 46 116 67q62 23 109 9q13 -3 14.5 -14.5t-6.5 -19.5t-18 -4zM160 -72q0 9 6.5 15.5t15.5 6.5t15.5 -6.5t6.5 -15.5t-6.5 -15.5t-15.5 -6.5t-15.5 6.5t-6.5 15.5z" />
    <glyph glyph-name="uni1EB9" unicode="&#x1eb9;" horiz-adv-x="394" 
d="M73 185q53 36 97 91t67 115q19 48 8 69q-3 4 -10 4q-17 -2 -43 -19q-54 -35 -86 -109q-31 -73 -33 -151zM75 138v-3q12 -79 56 -93q53 -17 144 68l25 23q13 12 30 33l14 20l20 27q12 14 27.5 3t4.5 -27l-17 -23l-13 -19q-21 -27 -40 -44l-23 -23q-109 -100 -184 -76
q-68 21 -83 125q-13 91 23 196q36 104 111 154q38 24 63 25q31 1 46 -24q22 -35 -4 -103q-28 -71 -81.5 -135t-118.5 -104zM160 -72q0 9 6.5 15.5t15.5 6.5t15.5 -6.5t6.5 -15.5t-6.5 -15.5t-15.5 -6.5t-15.5 6.5t-6.5 15.5z" />
    <glyph glyph-name="uni1EBA" unicode="&#x1eba;" horiz-adv-x="569" 
d="M393 484q0 -1 -7 -10q-26 -29 -77 -54q-36 -18 -68 -24q29 29 64 54q58 42 88 34zM457 659q10 -4 18 4t6.5 19.5t-14.5 14.5q-47 14 -109 -9q-57 -21 -116 -67q-60 -48 -91 -104t-20 -106q8 -30 28 -44l-6 -8q-66 -78 -101 -150q-43 -83 -29 -130q18 -61 91 -79
q57 -14 116 1q128 31 225 132t129 228q2 7 -1 13t-8 8.5t-11 3t-11 -3.5t-7 -11q-30 -117 -120 -210t-206 -122q-50 -12 -96 0q-51 12 -63 52q-9 29 26 100q32 65 97 142l16 20q5 -1 14 -1q49 1 112 33q58 29 90 63q17 19 19 38q1 27 -29 36q-50 14 -124 -40
q-44 -30 -96 -85l-2 2q-10 6 -13 20q-8 36 18.5 82.5t77.5 88.5q51 40 103 59.5t87 9.5zM401 785q-7 -11 -25 -11q-18 3 -11 12q7 11 20.5 16t25.5 0q14 -5 16 -22q4 -29 -41 -48q-17 -8 -25 0q-8 9 10 16l1 1q2 0 4 2l2 1l3 3l2 2l3 3l2 6q2 8 -3 13l-3 3h-1q12 -4 21 5v-1
z" />
    <glyph glyph-name="uni1EBB" unicode="&#x1ebb;" horiz-adv-x="394" 
d="M73 185q2 78 33 151q32 74 86 109q26 17 43 19q7 0 10 -4q11 -21 -8 -69q-23 -60 -67 -115t-97 -91zM75 138q65 40 118.5 104t81.5 135q26 68 4 103q-15 25 -46 24q-25 -1 -63 -25q-75 -50 -111 -154q-36 -105 -23 -196q15 -104 83 -125q75 -24 184 76l23 23q19 17 40 44
l13 19l17 23q11 16 -4.5 27t-27.5 -3l-20 -27l-14 -20q-17 -21 -30 -33l-25 -23q-91 -85 -144 -68q-44 14 -56 93v3zM259 604q-7 -11 -25 -11q-18 3 -11 12q7 11 20.5 16t25.5 0q14 -5 16 -22q4 -29 -41 -48q-17 -8 -25 0q-8 9 10 16l1 1q2 0 4 2l2 1l3 3l2 2l3 3l2 6
q2 8 -3 13l-3 3h-1q12 -4 21 5v-1z" />
    <glyph glyph-name="uni1EBC" unicode="&#x1ebc;" horiz-adv-x="569" 
d="M393 484q0 -1 -7 -10q-26 -29 -77 -54q-36 -18 -68 -24q29 29 64 54q58 42 88 34zM457 659q10 -4 18 4t6.5 19.5t-14.5 14.5q-47 14 -109 -9q-57 -21 -116 -67q-60 -48 -91 -104t-20 -106q8 -30 28 -44l-6 -8q-66 -78 -101 -150q-43 -83 -29 -130q18 -61 91 -79
q57 -14 116 1q128 31 225 132t129 228q2 7 -1 13t-8 8.5t-11 3t-11 -3.5t-7 -11q-30 -117 -120 -210t-206 -122q-50 -12 -96 0q-51 12 -63 52q-9 29 26 100q32 65 97 142l16 20q5 -1 14 -1q49 1 112 33q58 29 90 63q17 19 19 38q1 27 -29 36q-50 14 -124 -40
q-44 -30 -96 -85l-2 2q-10 6 -13 20q-8 36 18.5 82.5t77.5 88.5q51 40 103 59.5t87 9.5zM289 761q-15 -10 -28 -7q-6 1 -7 4.5t4 7.5q50 31 71 37q41 12 82 -5q2 -1 32 -17q5 -4 15 -7q5 -2 13 -2h16l3 1v-1h-1l2 1q-1 0 -3 -1l3 2h1l3 2l1 1l3 3q1 2 5 6q7 10 25 10
q3 0 6 -1t5 -3t-1 -6q-13 -17 -27 -23q-23 -10 -42 -11q-27 0 -39 4q-12 3 -32 15q-15 10 -35 15q-1 1 -3.5 1.5t-3.5 0.5h-5h-1h-9q-3 0 -4 -1q-3 0 -4 -1h-2l-2 -1l-4 -2h-1q-6 -3 -7 -4l-16 -9l-7 -5l-2 -1z" />
    <glyph glyph-name="uni1EBD" unicode="&#x1ebd;" horiz-adv-x="394" 
d="M73 185q2 78 33 151q32 74 86 109q26 17 43 19q7 0 10 -4q11 -21 -8 -69q-23 -60 -67 -115t-97 -91zM75 138q65 40 118.5 104t81.5 135q26 68 4 103q-15 25 -46 24q-25 -1 -63 -25q-75 -50 -111 -154q-36 -105 -23 -196q15 -104 83 -125q75 -24 184 76l23 23q19 17 40 44
l13 19l17 23q11 16 -4.5 27t-27.5 -3l-20 -27l-14 -20q-17 -21 -30 -33l-25 -23q-91 -85 -144 -68q-44 14 -56 93v3zM135 543q-15 -10 -28 -7q-6 1 -7 4.5t4 7.5q50 31 71 37q41 12 82 -5q2 -1 32 -17q5 -4 15 -7q5 -2 13 -2h16l3 1v-1h-1l2 1q-1 0 -3 -1l3 2h1l3 2l1 1l3 3
q1 2 5 6q7 10 25 10q3 0 6 -1t5 -3t-1 -6q-13 -17 -27 -23q-23 -10 -42 -11q-27 0 -39 4q-12 3 -32 15q-15 10 -35 15q-1 1 -3.5 1.5t-3.5 0.5h-5h-1h-9q-3 0 -4 -1q-3 0 -4 -1h-2l-2 -1l-4 -2h-1q-6 -3 -7 -4l-16 -9l-7 -5l-2 -1z" />
    <glyph glyph-name="uni1EBE" unicode="&#x1ebe;" horiz-adv-x="569" 
d="M393 484q-30 8 -88 -34q-35 -25 -64 -54q32 6 68 24q51 25 77 54q7 9 7 10zM457 659q-35 10 -87 -9.5t-103 -59.5q-51 -42 -77.5 -88.5t-18.5 -82.5q3 -14 13 -20l2 -2q52 55 96 85q74 54 124 40q30 -9 29 -36q-2 -19 -19 -38q-32 -34 -90 -63q-63 -32 -112 -33
q-9 0 -14 1l-16 -20q-65 -77 -97 -142q-35 -71 -26 -100q12 -40 63 -52q46 -12 96 0q116 29 206 122t120 210q2 7 7 11t11 3.5t11 -3t8 -8.5t1 -13q-32 -127 -129 -228t-225 -132q-59 -15 -116 -1q-73 18 -91 79q-14 47 29 130q35 72 101 150l6 8q-20 14 -28 44
q-11 50 20 106t91 104q59 46 116 67q62 23 109 9q13 -3 14.5 -14.5t-6.5 -19.5t-18 -4zM570 699q8 -8 -12 -15q-18 -6 -24 0q-3 4 -12.5 15t-14.5 17t-13 19t-10 16q-4 7 -13 21t-15 25t-9 22q18 -2 27 -2q0 -1 2 1l-4 -3l-6 -6q-5 -5 -19 -13q-6 -4 -16.5 -10t-16.5 -9
q-41 -20 -78 -29q-18 -4 -21 3q-2 5 4 9t12 5q4 1 10 2t9 3q4 2 5 2l-1 -1q1 0 2 1q7 2 8 3l17 8l-1 -1q1 0 2 1l2 2t3 1q4 2 7 4l34 19q2 1 3 2l4 3q3 2 5 5q12 8 19 12q5 3 14.5 3t12.5 -5q3 -11 8.5 -22t14.5 -24.5t13 -20.5q21 -34 48 -63zM597 921q7 12 20.5 10t19 -13
t-1.5 -23q-2 -3 -28 -44l-21 -37q-8 -12 -21.5 -11t-19 11.5t0.5 23.5q20 33 22 37q5 8 29 46z" />
    <glyph glyph-name="uni1EBF" unicode="&#x1ebf;" horiz-adv-x="394" 
d="M73 185q53 36 97 91t67 115q19 48 8 69q-3 4 -10 4q-17 -2 -43 -19q-54 -35 -86 -109q-31 -73 -33 -151zM75 138v-3q12 -79 56 -93q53 -17 144 68l25 23q13 12 30 33l14 20l20 27q12 14 27.5 3t4.5 -27l-17 -23l-13 -19q-21 -27 -40 -44l-23 -23q-109 -100 -184 -76
q-68 21 -83 125q-13 91 23 196q36 104 111 154q38 24 63 25q31 1 46 -24q22 -35 -4 -103q-28 -71 -81.5 -135t-118.5 -104zM384 479q8 -8 -12 -15q-18 -6 -24 0q-3 4 -12.5 15t-14.5 17t-13 19t-10 16q-4 7 -13 21t-15 25t-9 22q18 -2 27 -2q0 -1 2 1l-4 -3q-1 -1 -2.5 -3
t-3.5 -3q-5 -5 -19 -13q-5 -4 -16 -10t-17 -9q-41 -20 -78 -29q-18 -4 -21 3q-2 5 4 9t12 5q3 1 9 2t10 3t5 2l-1 -1q1 0 2 1q7 2 8 3l17 8l-1 -1q1 0 2 1q2 1 2.5 2t2.5 1q4 2 7 4l34 19q2 1 3 2l4 3q3 2 5 5q12 8 19 12q5 3 14.5 3t12.5 -5q3 -11 8.5 -22t14.5 -24.5
t13 -20.5q21 -34 48 -63zM404 701q7 12 20.5 10t19 -13t-1.5 -23q-2 -3 -28 -44l-21 -37q-8 -12 -21.5 -11t-19 11.5t0.5 23.5q20 33 22 37q4 7 29 46z" />
    <glyph glyph-name="uni1EC0" unicode="&#x1ec0;" horiz-adv-x="569" 
d="M393 484q-30 8 -88 -34q-35 -25 -64 -54q32 6 68 24q51 25 77 54q7 9 7 10zM457 659q-35 10 -87 -9.5t-103 -59.5q-51 -42 -77.5 -88.5t-18.5 -82.5q3 -14 13 -20l2 -2q52 55 96 85q74 54 124 40q30 -9 29 -36q-2 -19 -19 -38q-32 -34 -90 -63q-63 -32 -112 -33
q-9 0 -14 1l-16 -20q-65 -77 -97 -142q-35 -71 -26 -100q12 -40 63 -52q46 -12 96 0q116 29 206 122t120 210q2 7 7 11t11 3.5t11 -3t8 -8.5t1 -13q-32 -127 -129 -228t-225 -132q-59 -15 -116 -1q-73 18 -91 79q-14 47 29 130q35 72 101 150l6 8q-20 14 -28 44
q-11 50 20 106t91 104q59 46 116 67q62 23 109 9q13 -3 14.5 -14.5t-6.5 -19.5t-18 -4zM570 699q8 -8 -12 -15q-18 -6 -24 0q-3 4 -12.5 15t-14.5 17t-13 19t-10 16q-4 7 -13 21t-15 25t-9 22q18 -2 27 -2q0 -1 2 1l-4 -3l-6 -6q-5 -5 -19 -13q-6 -4 -16.5 -10t-16.5 -9
q-41 -20 -78 -29q-18 -4 -21 3q-2 5 4 9t12 5q4 1 10 2t9 3q4 2 5 2l-1 -1q1 0 2 1q7 2 8 3l17 8l-1 -1q1 0 2 1l2 2t3 1q4 2 7 4l34 19q2 1 3 2l4 3q3 2 5 5q12 8 19 12q5 3 14.5 3t12.5 -5q3 -11 8.5 -22t14.5 -24.5t13 -20.5q21 -34 48 -63zM554 881q20 -31 28 -46
l23 -37q8 -12 0.5 -23t-19.5 -11.5t-21 10.5q-1 1 -4 7t-8 14l-10 16q-18 31 -27 44q-8 11 -1.5 23t18.5 13t21 -10z" />
    <glyph glyph-name="uni1EC1" unicode="&#x1ec1;" horiz-adv-x="394" 
d="M73 185q53 36 97 91t67 115q19 48 8 69q-3 4 -10 4q-17 -2 -43 -19q-54 -35 -86 -109q-31 -73 -33 -151zM75 138v-3q12 -79 56 -93q53 -17 144 68l25 23q13 12 30 33l14 20l20 27q12 14 27.5 3t4.5 -27l-17 -23l-13 -19q-21 -27 -40 -44l-23 -23q-109 -100 -184 -76
q-68 21 -83 125q-13 91 23 196q36 104 111 154q38 24 63 25q31 1 46 -24q22 -35 -4 -103q-28 -71 -81.5 -135t-118.5 -104zM384 479q8 -8 -12 -15q-18 -6 -24 0q-3 4 -12.5 15t-14.5 17t-13 19t-10 16q-4 7 -13 21t-15 25t-9 22q18 -2 27 -2q0 -1 2 1l-4 -3q-1 -1 -2.5 -3
t-3.5 -3q-5 -5 -19 -13q-5 -4 -16 -10t-17 -9q-41 -20 -78 -29q-18 -4 -21 3q-2 5 4 9t12 5q3 1 9 2t10 3t5 2l-1 -1q1 0 2 1q7 2 8 3l17 8l-1 -1q1 0 2 1q2 1 2.5 2t2.5 1q4 2 7 4l34 19q2 1 3 2l4 3q3 2 5 5q12 8 19 12q5 3 14.5 3t12.5 -5q3 -11 8.5 -22t14.5 -24.5
t13 -20.5q21 -34 48 -63zM364 674q20 -31 28 -46l23 -37q8 -12 0.5 -23t-19.5 -11.5t-21 10.5q-1 1 -4 7t-8 14l-10 16q-18 31 -27 44q-8 11 -1.5 23t18.5 13t21 -10z" />
    <glyph glyph-name="uni1EC2" unicode="&#x1ec2;" horiz-adv-x="569" 
d="M393 484q0 -1 -7 -10q-26 -29 -77 -54q-36 -18 -68 -24q29 29 64 54q58 42 88 34zM457 659q10 -4 18 4t6.5 19.5t-14.5 14.5q-47 14 -109 -9q-57 -21 -116 -67q-60 -48 -91 -104t-20 -106q8 -30 28 -44l-6 -8q-66 -78 -101 -150q-43 -83 -29 -130q18 -61 91 -79
q57 -14 116 1q128 31 225 132t129 228q2 7 -1 13t-8 8.5t-11 3t-11 -3.5t-7 -11q-30 -117 -120 -210t-206 -122q-50 -12 -96 0q-51 12 -63 52q-9 29 26 100q32 65 97 142l16 20q5 -1 14 -1q49 1 112 33q58 29 90 63q17 19 19 38q1 27 -29 36q-50 14 -124 -40
q-44 -30 -96 -85l-2 2q-10 6 -13 20q-8 36 18.5 82.5t77.5 88.5q51 40 103 59.5t87 9.5zM570 699q-27 29 -48 63q-4 7 -13 20.5t-14.5 24.5t-8.5 22q-3 5 -12.5 5t-14.5 -3q-7 -4 -19 -12q-2 -3 -5 -5l-4 -3q-1 -1 -3 -2l-34 -19q-3 -2 -7 -4q-2 0 -3 -2l-2 -1q-1 -1 -2 -1
l1 1l-17 -8q-1 -1 -8 -3q-1 -1 -2 -1l1 1q-1 0 -5 -2q-3 -2 -9 -3t-10 -2q-6 -1 -12 -5t-4 -9q3 -7 21 -3q37 9 78 29q6 3 16.5 9t16.5 10q14 8 19 13l6 6l4 3l1 1l-3 -2q-9 0 -27 2q3 -11 9 -22t15 -25t13 -21q2 -3 10 -16t13 -19t14.5 -17t12.5 -15q8 -8 28 2q15 6 8 13z
M594 833q-7 -11 -25 -11q-18 3 -11 12q7 11 20.5 16t25.5 0q14 -5 16 -22q4 -29 -41 -48q-17 -8 -25 0q-8 9 10 16l1 1q2 0 4 2l2 1l3 3l2 2l3 3l2 6q2 8 -3 13l-3 3h-1q12 -4 21 5v-1z" />
    <glyph glyph-name="uni1EC3" unicode="&#x1ec3;" horiz-adv-x="394" 
d="M73 185q2 78 33 151q32 74 86 109q26 17 43 19q7 0 10 -4q11 -21 -8 -69q-23 -60 -67 -115t-97 -91zM75 138q65 40 118.5 104t81.5 135q26 68 4 103q-15 25 -46 24q-25 -1 -63 -25q-75 -50 -111 -154q-36 -105 -23 -196q15 -104 83 -125q75 -24 184 76l23 23q19 17 40 44
l13 19l17 23q11 16 -4.5 27t-27.5 -3l-20 -27l-14 -20q-17 -21 -30 -33l-25 -23q-91 -85 -144 -68q-44 14 -56 93v3zM384 479q-27 29 -48 63q-4 7 -13 20.5t-14.5 24.5t-8.5 22q-3 5 -12.5 5t-14.5 -3q-7 -4 -19 -12q-2 -3 -5 -5l-4 -3q-1 -1 -3 -2l-34 -19q-3 -2 -7 -4
q-2 0 -2.5 -1t-2.5 -2q-1 -1 -2 -1l1 1l-17 -8q-1 -1 -8 -3q-1 -1 -2 -1l1 1q-1 0 -5 -2t-10 -3t-9 -2q-6 -1 -12 -5t-4 -9q3 -7 21 -3q37 9 78 29q6 3 17 9t16 10q14 8 19 13l6 6l4 3l1 1l-3 -2q-9 0 -27 2q3 -11 9 -22t15 -25t13 -21q2 -3 10 -16t13 -19t14.5 -17
t12.5 -15q8 -8 28 2q15 6 8 13zM407 621q-7 -11 -25 -11q-18 3 -11 12q7 11 20.5 16t25.5 0q14 -5 16 -22q4 -29 -41 -48q-17 -8 -25 0q-8 9 10 16l1 1q2 0 4 2l2 1l3 3l2 2l3 3l2 6q2 8 -3 13l-3 3h-1q12 -4 21 5v-1z" />
    <glyph glyph-name="uni1EC4" unicode="&#x1ec4;" horiz-adv-x="569" 
d="M393 484q0 -1 -7 -10q-26 -29 -77 -54q-36 -18 -68 -24q29 29 64 54q58 42 88 34zM457 659q10 -4 18 4t6.5 19.5t-14.5 14.5q-47 14 -109 -9q-57 -21 -116 -67q-60 -48 -91 -104t-20 -106q8 -30 28 -44l-6 -8q-66 -78 -101 -150q-43 -83 -29 -130q18 -61 91 -79
q57 -14 116 1q128 31 225 132t129 228q2 7 -1 13t-8 8.5t-11 3t-11 -3.5t-7 -11q-30 -117 -120 -210t-206 -122q-50 -12 -96 0q-51 12 -63 52q-9 29 26 100q32 65 97 142l16 20q5 -1 14 -1q49 1 112 33q58 29 90 63q17 19 19 38q1 27 -29 36q-50 14 -124 -40
q-44 -30 -96 -85l-2 2q-10 6 -13 20q-8 36 18.5 82.5t77.5 88.5q51 40 103 59.5t87 9.5zM570 699q-27 29 -48 63q-4 7 -13 20.5t-14.5 24.5t-8.5 22q-3 5 -12.5 5t-14.5 -3q-7 -4 -19 -12q-2 -3 -5 -5l-4 -3q-1 -1 -3 -2l-34 -19q-3 -2 -7 -4q-2 0 -3 -2l-2 -1q-1 -1 -2 -1
l1 1l-17 -8q-1 -1 -8 -3q-1 -1 -2 -1l1 1q-1 0 -5 -2q-3 -2 -9 -3t-10 -2q-6 -1 -12 -5t-4 -9q3 -7 21 -3q37 9 78 29q6 3 16.5 9t16.5 10q14 8 19 13l6 6l4 3l1 1l-3 -2q-9 0 -27 2q3 -11 9 -22t15 -25t13 -21q2 -3 10 -16t13 -19t14.5 -17t12.5 -15q8 -8 28 2q15 6 8 13z
M395 848q-15 -10 -28 -7q-6 1 -7 4.5t4 7.5q50 31 71 37q41 12 82 -5q3 -1 32 -17q5 -4 15 -7q5 -2 13 -2h16l3 1v0l-1 -1l2 1q-1 0 -3 -1l3 2h1l3 2l1 1l3 3q1 2 5 6q7 10 25 10q3 0 6 -1t5 -3t-1 -6q-13 -17 -27 -23q-23 -10 -42 -11q-27 0 -39 4q-12 3 -32 15
q-15 10 -35 15q-1 1 -3.5 1.5t-3.5 0.5h-5h-1h-9q-3 0 -4 -1q-3 0 -4 -1q-1 0 -2 -1h-2l-4 -2h-1q-6 -3 -7 -4l-16 -9l-7 -5l-2 -1z" />
    <glyph glyph-name="uni1EC5" unicode="&#x1ec5;" horiz-adv-x="394" 
d="M73 185q2 78 33 151q32 74 86 109q26 17 43 19q7 0 10 -4q11 -21 -8 -69q-23 -60 -67 -115t-97 -91zM75 138q65 40 118.5 104t81.5 135q26 68 4 103q-15 25 -46 24q-25 -1 -63 -25q-75 -50 -111 -154q-36 -105 -23 -196q15 -104 83 -125q75 -24 184 76l23 23q19 17 40 44
l13 19l17 23q11 16 -4.5 27t-27.5 -3l-20 -27l-14 -20q-17 -21 -30 -33l-25 -23q-91 -85 -144 -68q-44 14 -56 93v3zM384 479q-27 29 -48 63q-4 7 -13 20.5t-14.5 24.5t-8.5 22q-3 5 -12.5 5t-14.5 -3q-7 -4 -19 -12q-2 -3 -5 -5l-4 -3q-1 -1 -3 -2l-34 -19q-3 -2 -7 -4
q-2 0 -2.5 -1t-2.5 -2q-1 -1 -2 -1l1 1l-17 -8q-1 -1 -8 -3q-1 -1 -2 -1l1 1q-1 0 -5 -2t-10 -3t-9 -2q-6 -1 -12 -5t-4 -9q3 -7 21 -3q37 9 78 29q6 3 17 9t16 10q14 8 19 13l6 6l4 3l1 1l-3 -2q-9 0 -27 2q3 -11 9 -22t15 -25t13 -21q2 -3 10 -16t13 -19t14.5 -17
t12.5 -15q8 -8 28 2q15 6 8 13zM217 633q-15 -10 -28 -7q-6 1 -7 4.5t4 7.5q50 31 71 37q41 12 82 -5q3 -1 32 -17q5 -4 15 -7q5 -2 13 -2h16l3 1v-1h-1l2 1q-1 0 -3 -1l3 2h1l3 2l1 1l3 3q1 2 5 6q7 10 25 10q3 0 6 -1t5 -3t-1 -6q-13 -17 -27 -23q-23 -10 -42 -11
q-27 0 -39 4q-12 3 -32 15q-15 10 -35 15q-1 1 -3.5 1.5t-3.5 0.5h-5h-1h-9q-3 0 -4 -1q-3 0 -4 -1h-2l-2 -1l-4 -2h-1q-6 -3 -7 -4l-16 -9l-7 -5l-2 -1z" />
    <glyph glyph-name="uni1EC6" unicode="&#x1ec6;" horiz-adv-x="569" 
d="M393 484q-30 8 -88 -34q-35 -25 -64 -54q32 6 68 24q51 25 77 54q7 9 7 10zM457 659q-35 10 -87 -9.5t-103 -59.5q-51 -42 -77.5 -88.5t-18.5 -82.5q3 -14 13 -20l2 -2q52 55 96 85q74 54 124 40q30 -9 29 -36q-2 -19 -19 -38q-32 -34 -90 -63q-63 -32 -112 -33
q-9 0 -14 1l-16 -20q-65 -77 -97 -142q-35 -71 -26 -100q12 -40 63 -52q46 -12 96 0q116 29 206 122t120 210q2 7 7 11t11 3.5t11 -3t8 -8.5t1 -13q-32 -127 -129 -228t-225 -132q-59 -15 -116 -1q-73 18 -91 79q-14 47 29 130q35 72 101 150l6 8q-20 14 -28 44
q-11 50 20 106t91 104q59 46 116 67q62 23 109 9q13 -3 14.5 -14.5t-6.5 -19.5t-18 -4zM160 -72q0 9 6.5 15.5t15.5 6.5t15.5 -6.5t6.5 -15.5t-6.5 -15.5t-15.5 -6.5t-15.5 6.5t-6.5 15.5zM569 686q8 -8 -12 -15q-18 -6 -24 0q-3 4 -12.5 15t-14.5 17t-13 19t-10 16
q-4 7 -13 21t-15 25t-9 22q18 -2 27 -2q0 -1 2 1l-4 -3l-6 -6q-5 -5 -19 -13q-6 -3 -16.5 -9t-16.5 -10q-41 -20 -78 -29q-18 -4 -21 3q-2 5 4 9t12 5q4 2 10 3t9 2q4 1 5 2l-1 -1q1 0 2 1q7 2 8 3l17 8l-1 -1q1 0 2 1q1 0 2 1t3 2q4 1 7 4l34 19q2 1 3 2l4 3q3 2 5 5
q12 8 19 12q5 3 14.5 3t12.5 -5q3 -11 8.5 -22t14.5 -24.5t13 -20.5q21 -35 48 -63z" />
    <glyph glyph-name="uni1EC7" unicode="&#x1ec7;" horiz-adv-x="394" 
d="M73 185q53 36 97 91t67 115q19 48 8 69q-3 4 -10 4q-17 -2 -43 -19q-54 -35 -86 -109q-31 -73 -33 -151zM75 138v-3q12 -79 56 -93q53 -17 144 68l25 23q13 12 30 33l14 20l20 27q12 14 27.5 3t4.5 -27l-17 -23l-13 -19q-21 -27 -40 -44l-23 -23q-109 -100 -184 -76
q-68 21 -83 125q-13 91 23 196q36 104 111 154q38 24 63 25q31 1 46 -24q22 -35 -4 -103q-28 -71 -81.5 -135t-118.5 -104zM160 -72q0 9 6.5 15.5t15.5 6.5t15.5 -6.5t6.5 -15.5t-6.5 -15.5t-15.5 -6.5t-15.5 6.5t-6.5 15.5zM387 497q8 -8 -12 -15q-18 -6 -24 0
q-3 4 -12.5 15t-14.5 17t-13 19t-10 16q-4 7 -13 21t-15 25t-9 22q18 -2 27 -2q0 -1 2 1l-4 -3q-1 -1 -2.5 -3t-3.5 -3q-5 -5 -19 -13q-6 -4 -17 -10t-16 -9q-41 -20 -78 -29q-18 -4 -21 3q-2 5 4 9t12 5q4 1 9.5 2t9.5 3l5 2l-1 -1q1 0 2 1q7 2 8 3l17 8l-1 -1q1 0 2 1l2 2
t3 1q4 2 7 4l34 19q2 1 3 2l4 3q3 2 5 5q12 8 19 12q5 3 14.5 3t12.5 -5q3 -11 8.5 -22t14.5 -24.5t13 -20.5q21 -34 48 -63z" />
    <glyph glyph-name="uni1EC8" unicode="&#x1ec8;" horiz-adv-x="294" 
d="M81 313l-6 2q-2 1 -7 1q-16 2 -21 -15q-2 -8 1 -13q-5 -36 -1 -82q5 -52 16 -96q17 -62 41 -89q16 -19 36 -24q23 -5 46 9q15 10 29 31q11 -23 27 -43q8 -10 19 -7.5t15 12t-2 19.5q-19 25 -37 65q1 6 6 19q19 61 29 147q17 138 17 262q0 101 -1 108q-1 32 -7 61
q-5 17 -11 24q-11 16 -30 11q-12 -1 -23 -15q-7 -8 -13 -22q-8 -16 -20 -57q-11 -41 -20 -93q-18 -103 -12 -224q-39 1 -71 9zM86 271q28 -5 69 -7l1 -9q10 -100 38 -172q-13 -34 -30 -43q-8 -6 -15 -4q-7 1 -15 11q-18 20 -32 73q-22 81 -16 151zM196 263h5q19 0 19 20
t-19 20h-9q-6 117 12 217q7 41 19 90q7 29 17 51l3 6q4 -18 6 -50v-106q0 -132 -16 -256q-8 -61 -18 -104q-13 47 -19 108v4zM274 800q-7 -11 -25 -11q-18 3 -11 12q7 11 20.5 16t25.5 0q14 -5 16 -22q4 -29 -41 -48q-17 -8 -25 0q-8 9 10 16l1 1q2 0 4 2l2 1l3 3l2 2l3 3
l2 6q2 8 -3 13l-3 3h-1q12 -4 21 5v-1z" />
    <glyph glyph-name="uni1EC9" unicode="&#x1ec9;" horiz-adv-x="176" 
d="M174 571q-7 -11 -25 -11q-18 3 -11 12q7 11 20.5 16t25.5 0q14 -5 16 -22q4 -29 -41 -48q-17 -8 -25 0q-8 9 10 16l1 1q2 0 4 2l2 1l3 3l2 2l3 3l2 6q2 8 -3 13l-3 3h-1q12 -4 21 5v-1zM147 462q2 7 -1 13t-8 8.5t-11 3t-11 -3.5t-7 -11q-10 -40 -21 -110
q-14 -101 -16 -108q0 -4 -1 -9.5t-3 -13.5t-3 -14l-6 -35q0 -6 -3.5 -28t-4.5 -31q-4 -57 -2 -104q0 -12 10 -16.5t20 1t10 17.5q-1 39 0 69q1 28 5 58q2 9 5 26.5t6 35.5l6 38q1 1 16 109q8 60 20 105z" />
    <glyph glyph-name="uni1ECA" unicode="&#x1eca;" horiz-adv-x="294" 
d="M75 315l6 -2q32 -8 71 -9q-6 121 12 224q9 52 20 93q12 41 20 57q6 14 13 22q11 14 23 15q19 5 30 -11q6 -7 11 -24q6 -29 7 -61q1 -7 1 -108q0 -124 -17 -262q-10 -86 -29 -147q-5 -13 -6 -19q18 -40 37 -65q8 -9 2.5 -19.5t-15.5 -12t-19 7.5q-16 20 -27 43
q-14 -21 -29 -31q-23 -14 -46 -9q-20 5 -36 24q-24 27 -41 89q-11 44 -16 96q-4 46 1 82q-3 5 -1 13q5 17 21 15q5 0 7 -1zM86 271q-6 -70 16 -151q14 -53 32 -73q8 -10 15 -11q7 -2 15 4q17 9 30 43q-28 72 -38 172l-1 9q-41 2 -69 7zM201 263h-5v-4q6 -61 19 -108
q10 43 18 104q16 124 16 256v106q-2 32 -6 50l-3 -6q-10 -22 -17 -51q-12 -49 -19 -90q-18 -100 -12 -217h9q19 0 19 -20t-19 -20zM182 -66q6 -6 5.5 -14.5t-6 -13t-13 -6t-14.5 5.5q-6 6 -5.5 14.5t6 13t13 6t14.5 -5.5z" />
    <glyph glyph-name="uni1ECB" unicode="&#x1ecb;" horiz-adv-x="163" 
d="M147 462q-12 -45 -20 -105q-15 -108 -16 -109l-6 -38q-3 -18 -6 -35.5t-5 -26.5q-4 -30 -5 -58q-1 -30 0 -69q0 -12 -10 -17.5t-20 -1t-10 16.5q-2 47 2 104q1 9 4.5 31t3.5 28l6 35q1 6 3 14t3 13.5t1 9.5q2 7 16 108q11 70 21 110q2 7 7 11t11 3.5t11 -3t8 -8.5t1 -13z
M178 606q6 -6 5.5 -14.5t-6 -13t-13 -6t-14.5 5.5q-8 8 -4.5 19t13 13.5t19.5 -4.5zM76 -44q6 -6 5.5 -14.5t-6 -13t-13 -6t-14.5 5.5q-6 6 -5.5 14.5t6 13t13 6t14.5 -5.5z" />
    <glyph glyph-name="uni1ECC" unicode="&#x1ecc;" horiz-adv-x="466" 
d="M247 649q-39 -31 -74 -84q-58 -86 -82 -174q-18 -68 -20 -178q-1 -94 38 -150q44 -62 127 -43q69 15 123 115q55 99 65 220q10 127 -33 207q-47 84 -144 87zM308 680q78 -23 118 -99q50 -92 38 -230q-12 -130 -69 -235q-65 -117 -151 -136q-110 -24 -168 61
q-46 67 -45 172q2 113 22 188q26 96 87 187q76 114 160 132q19 2 23 -17t-15 -23zM160 -72q0 9 6.5 15.5t15.5 6.5t15.5 -6.5t6.5 -15.5t-6.5 -15.5t-15.5 -6.5t-15.5 6.5t-6.5 15.5z" />
    <glyph glyph-name="uni1ECD" unicode="&#x1ecd;" horiz-adv-x="357" 
d="M316 427q8 2 15.5 -2t8.5 -12q15 -60 17 -131q2 -68 -20 -136q-23 -71 -70 -117q-57 -50 -133 -44q-40 4 -68.5 26.5t-37.5 61.5q-22 90 9 195t99 170q36 33 73.5 41t68.5 -11q24 -14 38 -41zM296 337q4 70 -39 96q-40 25 -93 -25q-60 -56 -89 -151t-9 -174
q14 -54 72 -58q28 -3 54 7q27 9 47 27q46 43 64 111q18 69 12 146q-8 0 -13.5 6.5t-5.5 14.5zM90 -68q0 9 6.5 15.5t15.5 6.5t15.5 -6.5t6.5 -15.5t-6.5 -15.5t-15.5 -6.5t-15.5 6.5t-6.5 15.5z" />
    <glyph glyph-name="uni1ECE" unicode="&#x1ece;" horiz-adv-x="466" 
d="M247 649q97 -3 144 -87q43 -80 33 -207q-10 -121 -65 -220q-54 -100 -123 -115q-83 -19 -127 43q-39 56 -38 150q2 110 20 178q24 88 82 174q35 53 74 84zM308 680q19 4 15 23t-23 17q-84 -18 -160 -132q-61 -91 -87 -187q-20 -75 -22 -188q-1 -105 45 -172
q58 -85 168 -61q86 19 151 136q57 105 69 235q12 138 -38 230q-40 76 -118 99zM401 785q-7 -11 -25 -11q-18 3 -11 12q7 11 20.5 16t25.5 0q14 -5 16 -22q4 -29 -41 -48q-17 -8 -25 0q-8 9 10 16l1 1q2 0 4 2l2 1l3 3l2 2l3 3l2 6q2 8 -3 13l-3 3h-1q12 -4 21 5v-1z" />
    <glyph glyph-name="uni1ECF" unicode="&#x1ecf;" horiz-adv-x="357" 
d="M316 427q-14 27 -38 41q-31 19 -68.5 11t-73.5 -41q-68 -65 -99 -170t-9 -195q9 -39 37.5 -61.5t68.5 -26.5q76 -6 133 44q47 46 70 117q22 68 20 136q-2 71 -17 131q-1 8 -8.5 12t-15.5 2zM296 337q0 -8 5.5 -14.5t13.5 -6.5q6 -77 -12 -146q-18 -68 -64 -111
q-20 -18 -47 -27q-26 -10 -54 -7q-58 4 -72 58q-20 79 9 174t89 151q53 50 93 25q43 -26 39 -96zM291 569q-7 -11 -25 -11q-18 3 -11 12q7 11 20.5 16t25.5 0q14 -5 16 -22q4 -29 -41 -48q-17 -8 -25 0q-8 9 10 16l1 1q2 0 4 2l2 1l3 3l2 2l3 3l2 6q2 8 -3 13l-3 3h-1
q12 -4 21 5v-1z" />
    <glyph glyph-name="uni1ED0" unicode="&#x1ed0;" horiz-adv-x="466" 
d="M247 649q-39 -31 -74 -84q-58 -86 -82 -174q-18 -68 -20 -178q-1 -94 38 -150q44 -62 127 -43q69 15 123 115q55 99 65 220q10 127 -33 207q-47 84 -144 87zM308 680q78 -23 118 -99q50 -92 38 -230q-12 -130 -69 -235q-65 -117 -151 -136q-110 -24 -168 61
q-46 67 -45 172q2 113 22 188q26 96 87 187q76 114 160 132q19 2 23 -17t-15 -23zM475 709q8 -8 -12 -15q-18 -6 -24 0q-3 4 -12.5 15t-14.5 17t-13 19t-10 16q-4 7 -13 21t-15 25t-9 22q18 -2 27 -2q0 -1 2 1l-4 -3q-1 -1 -2.5 -3t-3.5 -3q-5 -5 -19 -13q-6 -3 -17 -9.5
t-16 -9.5q-41 -20 -78 -29q-18 -4 -21 3q-2 5 4 9t12 5q3 1 9 2t10 3t5 2l-1 -1q1 0 2 1q7 2 8 3l17 8l-1 -1q1 0 2 1l2 2t3 1q4 2 7 4l34 19q2 1 3 2l4 3q3 2 5 5q12 8 19 12q5 3 14.5 3t12.5 -5q3 -11 8.5 -22t14.5 -24.5t13 -20.5q21 -34 48 -63zM493 919q7 12 20.5 10
t19 -13t-1.5 -23q-2 -3 -28 -44l-21 -37q-8 -12 -21.5 -11t-19 11.5t0.5 23.5q20 33 22 37q5 7 29 46z" />
    <glyph glyph-name="uni1ED1" unicode="&#x1ed1;" horiz-adv-x="357" 
d="M316 427q8 2 15.5 -2t8.5 -12q15 -60 17 -131q2 -68 -20 -136q-23 -71 -70 -117q-57 -50 -133 -44q-40 4 -68.5 26.5t-37.5 61.5q-22 90 9 195t99 170q36 33 73.5 41t68.5 -11q24 -14 38 -41zM296 337q4 70 -39 96q-40 25 -93 -25q-60 -56 -89 -151t-9 -174
q14 -54 72 -58q28 -3 54 7q27 9 47 27q46 43 64 111q18 69 12 146q-8 0 -13.5 6.5t-5.5 14.5zM406 467q8 -8 -12 -15q-18 -6 -24 0q-3 4 -12.5 15t-14.5 17t-13 19t-10 16q-4 7 -13 21t-15 25t-9 22q18 -2 27 -2q0 -1 2 1l-4 -3q-1 -1 -2.5 -3t-3.5 -3q-5 -5 -19 -13
q-5 -4 -16 -10t-17 -9q-41 -20 -78 -29q-18 -4 -21 3q-2 5 4 9t12 5q3 1 9.5 2t9.5 3q4 2 5 2l-1 -1q1 0 2 1q7 2 8 3l17 8l-1 -1q1 0 2 1l2 1q2 2 3 2q5 2 7 4l34 19q2 1 3 2l4 3q3 2 5 5q12 8 19 12q5 3 14.5 3t12.5 -5q3 -11 8.5 -22t14.5 -24.5t13 -20.5q21 -34 48 -63z
M423 675q7 12 20.5 10t19 -13t-1.5 -23q-2 -3 -28 -44l-21 -37q-8 -12 -21.5 -11t-19 11.5t0.5 23.5q20 33 22 37q5 8 29 46z" />
    <glyph glyph-name="uni1ED2" unicode="&#x1ed2;" horiz-adv-x="466" 
d="M247 649q-39 -31 -74 -84q-58 -86 -82 -174q-18 -68 -20 -178q-1 -94 38 -150q44 -62 127 -43q69 15 123 115q55 99 65 220q10 127 -33 207q-47 84 -144 87zM308 680q78 -23 118 -99q50 -92 38 -230q-12 -130 -69 -235q-65 -117 -151 -136q-110 -24 -168 61
q-46 67 -45 172q2 113 22 188q26 96 87 187q76 114 160 132q19 2 23 -17t-15 -23zM475 709q8 -8 -12 -15q-18 -6 -24 0q-3 4 -12.5 15t-14.5 17t-13 19t-10 16q-4 7 -13 21t-15 25t-9 22q18 -2 27 -2q0 -1 2 1l-4 -3q-1 -1 -2.5 -3t-3.5 -3q-5 -5 -19 -13q-6 -3 -17 -9.5
t-16 -9.5q-41 -20 -78 -29q-18 -4 -21 3q-2 5 4 9t12 5q3 1 9 2t10 3t5 2l-1 -1q1 0 2 1q7 2 8 3l17 8l-1 -1q1 0 2 1l2 2t3 1q4 2 7 4l34 19q2 1 3 2l4 3q3 2 5 5q12 8 19 12q5 3 14.5 3t12.5 -5q3 -11 8.5 -22t14.5 -24.5t13 -20.5q21 -34 48 -63zM452 901q20 -31 28 -46
l23 -37q8 -12 0.5 -23t-19.5 -11.5t-21 10.5q-1 1 -4 7t-8 14l-10 16q-18 31 -27 44q-8 11 -1.5 23t18.5 13t21 -10z" />
    <glyph glyph-name="uni1ED3" unicode="&#x1ed3;" horiz-adv-x="357" 
d="M316 427q8 2 15.5 -2t8.5 -12q15 -60 17 -131q2 -68 -20 -136q-23 -71 -70 -117q-57 -50 -133 -44q-40 4 -68.5 26.5t-37.5 61.5q-22 90 9 195t99 170q36 33 73.5 41t68.5 -11q24 -14 38 -41zM296 337q4 70 -39 96q-40 25 -93 -25q-60 -56 -89 -151t-9 -174
q14 -54 72 -58q28 -3 54 7q27 9 47 27q46 43 64 111q18 69 12 146q-8 0 -13.5 6.5t-5.5 14.5zM406 467q8 -8 -12 -15q-18 -6 -24 0q-3 4 -12.5 15t-14.5 17t-13 19t-10 16q-4 7 -13 21t-15 25t-9 22q18 -2 27 -2q0 -1 2 1l-4 -3q-1 -1 -2.5 -3t-3.5 -3q-5 -5 -19 -13
q-5 -4 -16 -10t-17 -9q-41 -20 -78 -29q-18 -4 -21 3q-2 5 4 9t12 5q3 1 9.5 2t9.5 3q4 2 5 2l-1 -1q1 0 2 1q7 2 8 3l17 8l-1 -1q1 0 2 1l2 1q2 2 3 2q5 2 7 4l34 19q2 1 3 2l4 3q3 2 5 5q12 8 19 12q5 3 14.5 3t12.5 -5q3 -11 8.5 -22t14.5 -24.5t13 -20.5q21 -34 48 -63z
M384 645q20 -31 28 -46l23 -37q8 -12 0.5 -23t-19.5 -11.5t-21 10.5q-1 1 -4 7t-8 14l-10 16q-18 31 -27 44q-8 11 -1.5 23t18.5 13t21 -10z" />
    <glyph glyph-name="uni1ED4" unicode="&#x1ed4;" horiz-adv-x="466" 
d="M247 649q97 -3 144 -87q43 -80 33 -207q-10 -121 -65 -220q-54 -100 -123 -115q-83 -19 -127 43q-39 56 -38 150q2 110 20 178q24 88 82 174q35 53 74 84zM308 680q19 4 15 23t-23 17q-84 -18 -160 -132q-61 -91 -87 -187q-20 -75 -22 -188q-1 -105 45 -172
q58 -85 168 -61q86 19 151 136q57 105 69 235q12 138 -38 230q-40 76 -118 99zM475 709q-27 29 -48 63q-4 7 -13 20.5t-14.5 24.5t-8.5 22q-3 5 -12.5 5t-14.5 -3q-7 -4 -19 -12q-2 -3 -5 -5l-4 -3q-1 -1 -3 -2l-34 -19q-3 -2 -7 -4q-2 0 -2 -2q-2 0 -3 -1t-2 -1l1 1l-17 -8
q-1 -1 -8 -3q-1 -1 -2 -1l1 1q-1 0 -5 -2t-10 -3t-9 -2q-6 -1 -12 -5t-4 -9q3 -7 21 -3q37 9 78 29q5 3 16 9.5t17 9.5q14 8 19 13l6 6l4 3l1 1l-3 -2q-9 0 -27 2q3 -11 9 -22t15 -25t13 -21q2 -3 10 -16t13 -19t14.5 -17t12.5 -15q8 -8 28 2q15 6 8 13zM496 848
q-7 -11 -25 -11q-18 3 -11 12q7 11 20.5 16t25.5 0q14 -5 16 -22q4 -29 -41 -48q-17 -8 -25 0q-8 9 10 16l1 1q2 0 4 2l2 1l3 3l2 2l3 3l2 6q2 8 -3 13l-3 3h-1q12 -4 21 5v-1z" />
    <glyph glyph-name="uni1ED5" unicode="&#x1ed5;" horiz-adv-x="357" 
d="M316 427q-14 27 -38 41q-31 19 -68.5 11t-73.5 -41q-68 -65 -99 -170t-9 -195q9 -39 37.5 -61.5t68.5 -26.5q76 -6 133 44q47 46 70 117q22 68 20 136q-2 71 -17 131q-1 8 -8.5 12t-15.5 2zM296 337q0 -8 5.5 -14.5t13.5 -6.5q6 -77 -12 -146q-18 -68 -64 -111
q-20 -18 -47 -27q-26 -10 -54 -7q-58 4 -72 58q-20 79 9 174t89 151q53 50 93 25q43 -26 39 -96zM406 467q-27 29 -48 63q-4 7 -13 20.5t-14.5 24.5t-8.5 22q-3 5 -12.5 5t-14.5 -3q-7 -4 -19 -12q-2 -3 -5 -5l-4 -3q-1 -1 -3 -2l-34 -19q-2 -2 -7 -4q-1 0 -2 -1t-3 -2
q-1 -1 -2 -1l1 1l-17 -8q-1 -1 -8 -3q-1 -1 -2 -1l1 1q-1 0 -5 -2q-3 -2 -9.5 -3t-9.5 -2q-6 -1 -12 -5t-4 -9q3 -7 21 -3q37 9 78 29q6 3 17 9t16 10q14 8 19 13l6 6l4 3l1 1l-3 -2q-9 0 -27 2q3 -11 9 -22t15 -25t13 -21q2 -3 10 -16t13 -19t14.5 -17t12.5 -15q8 -8 28 2
q15 6 8 13zM427 609q-7 -11 -25 -11q-18 3 -11 12q7 11 20.5 16t25.5 0q14 -5 16 -22q4 -29 -41 -48q-17 -8 -25 0q-8 9 10 16l1 1q2 0 4 2l2 1l3 3l2 2l3 3l2 6q2 8 -3 13l-3 3h-1q12 -4 21 5v-1z" />
    <glyph glyph-name="uni1ED6" unicode="&#x1ed6;" horiz-adv-x="466" 
d="M247 649q97 -3 144 -87q43 -80 33 -207q-10 -121 -65 -220q-54 -100 -123 -115q-83 -19 -127 43q-39 56 -38 150q2 110 20 178q24 88 82 174q35 53 74 84zM308 680q19 4 15 23t-23 17q-84 -18 -160 -132q-61 -91 -87 -187q-20 -75 -22 -188q-1 -105 45 -172
q58 -85 168 -61q86 19 151 136q57 105 69 235q12 138 -38 230q-40 76 -118 99zM475 709q-27 29 -48 63q-4 7 -13 20.5t-14.5 24.5t-8.5 22q-3 5 -12.5 5t-14.5 -3q-7 -4 -19 -12q-2 -3 -5 -5l-4 -3q-1 -1 -3 -2l-34 -19q-3 -2 -7 -4q-2 0 -2 -2q-2 0 -3 -1t-2 -1l1 1l-17 -8
q-1 -1 -8 -3q-1 -1 -2 -1l1 1q-1 0 -5 -2t-10 -3t-9 -2q-6 -1 -12 -5t-4 -9q3 -7 21 -3q37 9 78 29q5 3 16 9.5t17 9.5q14 8 19 13l6 6l4 3l1 1l-3 -2q-9 0 -27 2q3 -11 9 -22t15 -25t13 -21q2 -3 10 -16t13 -19t14.5 -17t12.5 -15q8 -8 28 2q15 6 8 13zM305 853
q-15 -10 -28 -7q-6 1 -7 4.5t4 7.5q50 31 71 37q41 12 82 -5q3 -1 32 -17q5 -4 15 -7q5 -2 13 -2h16l3 1v-1h-1l2 1q-1 0 -3 -1l3 2h1l3 2l1 1l3 3q1 2 5 6q7 10 25 10q3 0 6 -1t5 -3t-1 -6q-13 -17 -27 -23q-23 -10 -42 -11q-27 0 -39 4q-12 3 -32 15q-15 10 -35 15
q-1 1 -3.5 1.5t-3.5 0.5h-5h-1h-9q-3 0 -4 -1q-3 0 -4 -1h-2l-2 -1l-4 -2h-1q-6 -3 -7 -4l-16 -9l-7 -5l-2 -1z" />
    <glyph glyph-name="uni1ED7" unicode="&#x1ed7;" horiz-adv-x="357" 
d="M316 427q-14 27 -38 41q-31 19 -68.5 11t-73.5 -41q-68 -65 -99 -170t-9 -195q9 -39 37.5 -61.5t68.5 -26.5q76 -6 133 44q47 46 70 117q22 68 20 136q-2 71 -17 131q-1 8 -8.5 12t-15.5 2zM296 337q0 -8 5.5 -14.5t13.5 -6.5q6 -77 -12 -146q-18 -68 -64 -111
q-20 -18 -47 -27q-26 -10 -54 -7q-58 4 -72 58q-20 79 9 174t89 151q53 50 93 25q43 -26 39 -96zM406 467q-27 29 -48 63q-4 7 -13 20.5t-14.5 24.5t-8.5 22q-3 5 -12.5 5t-14.5 -3q-7 -4 -19 -12q-2 -3 -5 -5l-4 -3q-1 -1 -3 -2l-34 -19q-2 -2 -7 -4q-1 0 -2 -1t-3 -2
q-1 -1 -2 -1l1 1l-17 -8q-1 -1 -8 -3q-1 -1 -2 -1l1 1q-1 0 -5 -2q-3 -2 -9.5 -3t-9.5 -2q-6 -1 -12 -5t-4 -9q3 -7 21 -3q37 9 78 29q6 3 17 9t16 10q14 8 19 13l6 6l4 3l1 1l-3 -2q-9 0 -27 2q3 -11 9 -22t15 -25t13 -21q2 -3 10 -16t13 -19t14.5 -17t12.5 -15q8 -8 28 2
q15 6 8 13zM223 619q-15 -10 -28 -7q-6 1 -7 4.5t4 7.5q50 31 71 37q41 12 82 -5q2 -1 32 -17q5 -4 15 -7q5 -2 13 -2h16l3 1v-1h-1l2 1q-1 0 -3 -1l3 2h1l3 2l1 1l3 3q1 2 5 6q7 10 25 10q3 0 6 -1t5 -3t-1 -6q-13 -17 -27 -23q-23 -10 -42 -11q-27 0 -39 4q-12 3 -32 15
q-15 10 -35 15q-1 1 -3.5 1.5t-3.5 0.5h-5h-1h-9q-3 0 -4 -1q-3 0 -4 -1h-2l-2 -1l-4 -2h-1q-6 -3 -7 -4l-16 -9l-7 -5l-2 -1z" />
    <glyph glyph-name="uni1ED8" unicode="&#x1ed8;" horiz-adv-x="466" 
d="M247 649q-39 -31 -74 -84q-58 -86 -82 -174q-18 -68 -20 -178q-1 -94 38 -150q44 -62 127 -43q69 15 123 115q55 99 65 220q10 127 -33 207q-47 84 -144 87zM308 680q78 -23 118 -99q50 -92 38 -230q-12 -130 -69 -235q-65 -117 -151 -136q-110 -24 -168 61
q-46 67 -45 172q2 113 22 188q26 96 87 187q76 114 160 132q19 2 23 -17t-15 -23zM160 -72q0 9 6.5 15.5t15.5 6.5t15.5 -6.5t6.5 -15.5t-6.5 -15.5t-15.5 -6.5t-15.5 6.5t-6.5 15.5zM475 709q8 -8 -12 -15q-18 -6 -24 0q-3 4 -12.5 15t-14.5 17t-13 19t-10 16q-4 7 -13 21
t-15 25t-9 22q18 -2 27 -2q0 -1 2 1l-4 -3q-1 -1 -2.5 -3t-3.5 -3q-5 -5 -19 -13q-6 -3 -17 -9.5t-16 -9.5q-41 -20 -78 -29q-18 -4 -21 3q-2 5 4 9t12 5q3 1 9 2t10 3t5 2l-1 -1q1 0 2 1q7 2 8 3l17 8l-1 -1q1 0 2 1l2 2t3 1q4 2 7 4l34 19q2 1 3 2l4 3q3 2 5 5q12 8 19 12
q5 3 14.5 3t12.5 -5q3 -11 8.5 -22t14.5 -24.5t13 -20.5q21 -34 48 -63z" />
    <glyph glyph-name="uni1ED9" unicode="&#x1ed9;" horiz-adv-x="357" 
d="M316 427q8 2 15.5 -2t8.5 -12q15 -60 17 -131q2 -68 -20 -136q-23 -71 -70 -117q-57 -50 -133 -44q-40 4 -68.5 26.5t-37.5 61.5q-22 90 9 195t99 170q36 33 73.5 41t68.5 -11q24 -14 38 -41zM296 337q4 70 -39 96q-40 25 -93 -25q-60 -56 -89 -151t-9 -174
q14 -54 72 -58q28 -3 54 7q27 9 47 27q46 43 64 111q18 69 12 146q-8 0 -13.5 6.5t-5.5 14.5zM90 -68q0 9 6.5 15.5t15.5 6.5t15.5 -6.5t6.5 -15.5t-6.5 -15.5t-15.5 -6.5t-15.5 6.5t-6.5 15.5zM412 467q8 -8 -12 -15q-18 -6 -24 0q-3 4 -12.5 15t-14.5 17t-13 19t-10 16
q-4 7 -13 21t-15 25t-9 22q18 -2 27 -2q0 -1 2 1l-4 -3q-1 -1 -2.5 -3t-3.5 -3q-5 -5 -19 -13q-6 -4 -17 -10t-16 -9q-41 -20 -78 -29q-18 -4 -21 3q-2 5 4 9t12 5q3 1 9 2t10 3t5 2l-1 -1q1 0 2 1q7 2 8 3l17 8l-1 -1q1 0 2 1l2 1q2 2 3 2q5 2 7 4l34 19q2 1 3 2l4 3
q3 2 5 5q12 8 19 12q5 3 14.5 3t12.5 -5q3 -11 8.5 -22t14.5 -24.5t13 -20.5q21 -34 48 -63z" />
    <glyph glyph-name="uni1EDA" unicode="&#x1eda;" horiz-adv-x="466" 
d="M247 649q-39 -31 -74 -84q-58 -86 -82 -174q-18 -68 -20 -178q-1 -94 38 -150q44 -62 127 -43q69 15 123 115q55 99 65 220q10 127 -33 207q-47 84 -144 87zM308 680q78 -23 118 -99q50 -92 38 -230q-12 -130 -69 -235q-65 -117 -151 -136q-110 -24 -168 61
q-46 67 -45 172q2 113 22 188q26 96 87 187q76 114 160 132q19 2 23 -17t-15 -23zM408 704q-7 -11 -25 -11q-18 3 -11 12q7 11 20.5 16t25.5 0q14 -5 16 -22q4 -29 -41 -48q-17 -8 -25 0q-8 9 10 16l1 1q2 0 4 2l2 1l3 3l2 2l3 3l2 6q2 8 -3 13l-3 3h-1q12 -4 21 5v-1z
M357 871q7 12 20.5 10t19 -13t-1.5 -23q-2 -3 -28 -44l-21 -37q-8 -12 -21.5 -11t-19 11.5t0.5 23.5q20 33 22 37q5 7 29 46z" />
    <glyph glyph-name="uni1EDB" unicode="&#x1edb;" horiz-adv-x="357" 
d="M316 427q8 2 15.5 -2t8.5 -12q15 -60 17 -131q2 -68 -20 -136q-23 -71 -70 -117q-57 -50 -133 -44q-40 4 -68.5 26.5t-37.5 61.5q-22 90 9 195t99 170q36 33 73.5 41t68.5 -11q24 -14 38 -41zM296 337q4 70 -39 96q-40 25 -93 -25q-60 -56 -89 -151t-9 -174
q14 -54 72 -58q28 -3 54 7q27 9 47 27q46 43 64 111q18 69 12 146q-8 0 -13.5 6.5t-5.5 14.5zM358 487q-7 -11 -25 -11q-18 3 -11 12q7 11 20.5 16t25.5 0q14 -5 16 -22q4 -29 -41 -48q-17 -8 -25 0q-8 9 10 16l1 1q2 0 4 2l2 1l3 3l2 2l3 3l2 6q2 8 -3 13l-3 3h-1
q12 -4 21 5v-1zM289 627q7 12 20.5 10t19 -13t-1.5 -23q-2 -3 -28 -44l-21 -37q-8 -12 -21.5 -11t-19 11.5t0.5 23.5q20 33 22 37q5 8 29 46z" />
    <glyph glyph-name="uni1EDC" unicode="&#x1edc;" horiz-adv-x="466" 
d="M247 649q-39 -31 -74 -84q-58 -86 -82 -174q-18 -68 -20 -178q-1 -94 38 -150q44 -62 127 -43q69 15 123 115q55 99 65 220q10 127 -33 207q-47 84 -144 87zM308 680q78 -23 118 -99q50 -92 38 -230q-12 -130 -69 -235q-65 -117 -151 -136q-110 -24 -168 61
q-46 67 -45 172q2 113 22 188q26 96 87 187q76 114 160 132q19 2 23 -17t-15 -23zM408 704q-7 -11 -25 -11q-18 3 -11 12q7 11 20.5 16t25.5 0q14 -5 16 -22q4 -29 -41 -48q-17 -8 -25 0q-8 9 10 16l1 1q2 0 4 2l2 1l3 3l2 2l3 3l2 6q2 8 -3 13l-3 3h-1q12 -4 21 5v-1z
M293 877q20 -31 28 -46l23 -37q8 -12 0.5 -23t-19.5 -11.5t-21 10.5q-1 1 -4 7t-8 14l-10 16q-18 31 -27 44q-8 11 -1.5 23t18.5 13t21 -10z" />
    <glyph glyph-name="uni1EDD" unicode="&#x1edd;" horiz-adv-x="357" 
d="M316 427q8 2 15.5 -2t8.5 -12q15 -60 17 -131q2 -68 -20 -136q-23 -71 -70 -117q-57 -50 -133 -44q-40 4 -68.5 26.5t-37.5 61.5q-22 90 9 195t99 170q36 33 73.5 41t68.5 -11q24 -14 38 -41zM296 337q4 70 -39 96q-40 25 -93 -25q-60 -56 -89 -151t-9 -174
q14 -54 72 -58q28 -3 54 7q27 9 47 27q46 43 64 111q18 69 12 146q-8 0 -13.5 6.5t-5.5 14.5zM358 487q-7 -11 -25 -11q-18 3 -11 12q7 11 20.5 16t25.5 0q14 -5 16 -22q4 -29 -41 -48q-17 -8 -25 0q-8 9 10 16l1 1q2 0 4 2l2 1l3 3l2 2l3 3l2 6q2 8 -3 13l-3 3h-1
q12 -4 21 5v-1zM216 627q20 -31 28 -46l23 -37q8 -12 0.5 -23t-19.5 -11.5t-21 10.5q-1 1 -4 7t-8 14l-10 16q-18 31 -27 44q-8 11 -1.5 23t18.5 13t21 -10z" />
    <glyph glyph-name="uni1EDE" unicode="&#x1ede;" horiz-adv-x="466" 
d="M247 649q97 -3 144 -87q43 -80 33 -207q-10 -121 -65 -220q-54 -100 -123 -115q-83 -19 -127 43q-39 56 -38 150q2 110 20 178q24 88 82 174q35 53 74 84zM308 680q19 4 15 23t-23 17q-84 -18 -160 -132q-61 -91 -87 -187q-20 -75 -22 -188q-1 -105 45 -172
q58 -85 168 -61q86 19 151 136q57 105 69 235q12 138 -38 230q-40 76 -118 99zM408 704q-7 -11 -25 -11q-18 3 -11 12q7 11 20.5 16t25.5 0q14 -5 16 -22q4 -29 -41 -48q-17 -8 -25 0q-8 9 10 16l1 1q2 0 4 2l2 1l3 3l2 2l3 3l2 6q2 8 -3 13l-3 3h-1q12 -4 21 5v-1zM339 801
q-7 -11 -25 -11q-18 3 -11 12q7 11 20.5 16t25.5 0q14 -5 16 -22q4 -29 -41 -48q-17 -8 -25 0q-8 9 10 16l1 1q2 0 4 2l2 1l3 3l2 2l3 3l2 6q2 8 -3 13l-3 3h-1q12 -4 21 5v-1z" />
    <glyph glyph-name="uni1EDF" unicode="&#x1edf;" horiz-adv-x="357" 
d="M316 427q-14 27 -38 41q-31 19 -68.5 11t-73.5 -41q-68 -65 -99 -170t-9 -195q9 -39 37.5 -61.5t68.5 -26.5q76 -6 133 44q47 46 70 117q22 68 20 136q-2 71 -17 131q-1 8 -8.5 12t-15.5 2zM296 337q0 -8 5.5 -14.5t13.5 -6.5q6 -77 -12 -146q-18 -68 -64 -111
q-20 -18 -47 -27q-26 -10 -54 -7q-58 4 -72 58q-20 79 9 174t89 151q53 50 93 25q43 -26 39 -96zM358 487q-7 -11 -25 -11q-18 3 -11 12q7 11 20.5 16t25.5 0q14 -5 16 -22q4 -29 -41 -48q-17 -8 -25 0q-8 9 10 16l1 1q2 0 4 2l2 1l3 3l2 2l3 3l2 6q2 8 -3 13l-3 3h-1
q12 -4 21 5v-1zM284 568q-7 -11 -25 -11q-18 3 -11 12q7 11 20.5 16t25.5 0q14 -5 16 -22q4 -29 -41 -48q-17 -8 -25 0q-8 9 10 16l1 1q2 0 4 2l2 1l3 3l2 2l3 3l2 6q2 8 -3 13l-3 3h-1q12 -4 21 5v-1z" />
    <glyph glyph-name="uni1EE0" unicode="&#x1ee0;" horiz-adv-x="466" 
d="M247 649q97 -3 144 -87q43 -80 33 -207q-10 -121 -65 -220q-54 -100 -123 -115q-83 -19 -127 43q-39 56 -38 150q2 110 20 178q24 88 82 174q35 53 74 84zM308 680q19 4 15 23t-23 17q-84 -18 -160 -132q-61 -91 -87 -187q-20 -75 -22 -188q-1 -105 45 -172
q58 -85 168 -61q86 19 151 136q57 105 69 235q12 138 -38 230q-40 76 -118 99zM408 704q-7 -11 -25 -11q-18 3 -11 12q7 11 20.5 16t25.5 0q14 -5 16 -22q4 -29 -41 -48q-17 -8 -25 0q-8 9 10 16l1 1q2 0 4 2l2 1l3 3l2 2l3 3l2 6q2 8 -3 13l-3 3h-1q12 -4 21 5v-1zM237 761
q-15 -10 -28 -7q-6 1 -7 4.5t4 7.5q50 31 71 37q41 12 82 -5q3 -1 32 -17q5 -4 15 -7q5 -2 13 -2h16l3 1v-1h-1l2 1q-1 0 -3 -1l3 2h1l3 2l1 1l3 3q1 2 5 6q7 10 25 10q3 0 6 -1t5 -3t-1 -6q-13 -17 -27 -23q-23 -10 -42 -11q-27 0 -39 4q-12 3 -32 15q-15 10 -35 15
q-1 1 -3.5 1.5t-3.5 0.5h-5h-1h-9q-3 0 -4 -1q-3 0 -4 -1h-2l-2 -1l-4 -2h-1q-6 -3 -7 -4l-16 -9l-7 -5l-2 -1z" />
    <glyph glyph-name="uni1EE1" unicode="&#x1ee1;" horiz-adv-x="357" 
d="M316 427q-14 27 -38 41q-31 19 -68.5 11t-73.5 -41q-68 -65 -99 -170t-9 -195q9 -39 37.5 -61.5t68.5 -26.5q76 -6 133 44q47 46 70 117q22 68 20 136q-2 71 -17 131q-1 8 -8.5 12t-15.5 2zM296 337q0 -8 5.5 -14.5t13.5 -6.5q6 -77 -12 -146q-18 -68 -64 -111
q-20 -18 -47 -27q-26 -10 -54 -7q-58 4 -72 58q-20 79 9 174t89 151q53 50 93 25q43 -26 39 -96zM358 487q-7 -11 -25 -11q-18 3 -11 12q7 11 20.5 16t25.5 0q14 -5 16 -22q4 -29 -41 -48q-17 -8 -25 0q-8 9 10 16l1 1q2 0 4 2l2 1l3 3l2 2l3 3l2 6q2 8 -3 13l-3 3h-1
q12 -4 21 5v-1zM153 539q-15 -10 -28 -7q-6 1 -7 4.5t4 7.5q50 31 71 37q41 12 82 -5q3 -1 32 -17q5 -4 15 -7q5 -2 13 -2h16l3 1v-1h-1l2 1q-1 0 -3 -1l3 2h1l3 2l1 1l3 3q1 2 5 6q7 10 25 10q3 0 6 -1t5 -3t-1 -6q-13 -17 -27 -23q-23 -10 -42 -11q-27 0 -39 4
q-12 3 -32 15q-15 10 -35 15q-1 1 -3.5 1.5t-3.5 0.5h-5h-1h-9q-3 0 -4 -1q-3 0 -4 -1h-2l-2 -1l-4 -2h-1q-6 -3 -7 -4l-16 -9l-7 -5l-2 -1z" />
    <glyph glyph-name="uni1EE2" unicode="&#x1ee2;" horiz-adv-x="466" 
d="M247 649q97 -3 144 -87q43 -80 33 -207q-10 -121 -65 -220q-54 -100 -123 -115q-83 -19 -127 43q-39 56 -38 150q2 110 20 178q24 88 82 174q35 53 74 84zM308 680q19 4 15 23t-23 17q-84 -18 -160 -132q-61 -91 -87 -187q-20 -75 -22 -188q-1 -105 45 -172
q58 -85 168 -61q86 19 151 136q57 105 69 235q12 138 -38 230q-40 76 -118 99zM408 704q-7 -11 -25 -11q-18 3 -11 12q7 11 20.5 16t25.5 0q14 -5 16 -22q4 -29 -41 -48q-17 -8 -25 0q-8 9 10 16l1 1q2 0 4 2l2 1l3 3l2 2l3 3l2 6q2 8 -3 13l-3 3h-1q12 -4 21 5v-1zM160 -72
q0 9 6.5 15.5t15.5 6.5t15.5 -6.5t6.5 -15.5t-6.5 -15.5t-15.5 -6.5t-15.5 6.5t-6.5 15.5z" />
    <glyph glyph-name="uni1EE3" unicode="&#x1ee3;" horiz-adv-x="357" 
d="M316 427q-14 27 -38 41q-31 19 -68.5 11t-73.5 -41q-68 -65 -99 -170t-9 -195q9 -39 37.5 -61.5t68.5 -26.5q76 -6 133 44q47 46 70 117q22 68 20 136q-2 71 -17 131q-1 8 -8.5 12t-15.5 2zM296 337q0 -8 5.5 -14.5t13.5 -6.5q6 -77 -12 -146q-18 -68 -64 -111
q-20 -18 -47 -27q-26 -10 -54 -7q-58 4 -72 58q-20 79 9 174t89 151q53 50 93 25q43 -26 39 -96zM358 487q-7 -11 -25 -11q-18 3 -11 12q7 11 20.5 16t25.5 0q14 -5 16 -22q4 -29 -41 -48q-17 -8 -25 0q-8 9 10 16l1 1q2 0 4 2l2 1l3 3l2 2l3 3l2 6q2 8 -3 13l-3 3h-1
q12 -4 21 5v-1zM86 -66q0 9 6.5 15.5t15.5 6.5t15.5 -6.5t6.5 -15.5t-6.5 -15.5t-15.5 -6.5t-15.5 6.5t-6.5 15.5z" />
    <glyph glyph-name="uni1EE4" unicode="&#x1ee4;" horiz-adv-x="500" 
d="M151 677q-84 -223 -84 -464q0 -46 11 -103q8 -36 17 -53q9 -15 16 -15q32 0 76 53q38 47 81 134q23 47 48 110q10 65 31 143q40 152 90 217l3 3q4 4 12 6q15 2 21 -13q3 -5 -1 -22t-18 -54l-19 -53l-1 -1v-2l-3 -10l-21 -69q-26 -83 -55 -156q-12 -74 -12 -133
q-1 -138 48 -172q59 -39 192 70q10 8 20.5 3.5t12 -14.5t-6.5 -19q-157 -129 -240 -73q-67 46 -66 205v15q-43 -87 -85 -140q-55 -67 -107 -68q-31 0 -51 36q-14 24 -21 64q-12 57 -12 111q0 247 86 478q4 12 15.5 13.5t19 -7t3.5 -20.5zM160 -72q0 9 6.5 15.5t15.5 6.5
t15.5 -6.5t6.5 -15.5t-6.5 -15.5t-15.5 -6.5t-15.5 6.5t-6.5 15.5z" />
    <glyph glyph-name="uni1EE5" unicode="&#x1ee5;" horiz-adv-x="426" 
d="M119 459q-31 -137 -38 -240q-7 -77 1 -130q7 -52 28 -61q25 -10 49 15q25 25 48 85q17 48 32 110q7 25 11 48l8 32l9 44q4 16 13 51q0 3 1 6q1 5 1 10q2 8 5 13q8 11 19 10q10 0 17 -9q10 -13 7 -43q-1 -17 -9 -52l-31 -132q-14 -78 -3 -120q13 -47 63 -55q27 -4 58 12
q10 6 20 -1t9.5 -17.5t-11.5 -17.5q-41 -22 -82 -16q-75 10 -95 84q-5 14 -6 28q-26 -68 -55 -98q-43 -46 -94 -23q-42 19 -52 91q-8 57 -1 139q9 104 38 245q4 19 23 15t17 -23zM160 -72q0 9 6.5 15.5t15.5 6.5t15.5 -6.5t6.5 -15.5t-6.5 -15.5t-15.5 -6.5t-15.5 6.5
t-6.5 15.5z" />
    <glyph glyph-name="uni1EE6" unicode="&#x1ee6;" horiz-adv-x="500" 
d="M151 677q4 12 -3.5 20.5t-19 7t-15.5 -13.5q-86 -231 -86 -478q0 -54 12 -111q7 -40 21 -64q20 -36 51 -36q52 1 107 68q42 53 85 140v-15q-1 -159 66 -205q83 -56 240 73q9 8 6.5 19t-12 14.5t-20.5 -3.5q-133 -109 -192 -70q-49 34 -48 172q0 59 12 133q29 73 55 156
l21 69l3 10v2l1 1l19 53q14 37 18 54t1 22q-6 15 -21 13q-8 -2 -12 -6l-3 -3q-50 -65 -90 -217q-21 -78 -31 -143q-25 -63 -48 -110q-43 -87 -81 -134q-44 -53 -76 -53q-7 0 -16 15q-9 17 -17 53q-11 57 -11 103q0 241 84 464zM323 785q-7 -11 -25 -11q-18 3 -11 12
q7 11 20.5 16t25.5 0q14 -5 16 -22q4 -29 -41 -48q-17 -8 -25 0q-8 9 10 16l1 1q2 0 4 2l2 1l3 3l2 2l3 3l2 6q2 8 -3 13l-3 3h-1q12 -4 21 5v-1z" />
    <glyph glyph-name="uni1EE7" unicode="&#x1ee7;" horiz-adv-x="426" 
d="M119 459q2 19 -17 23t-23 -15q-29 -141 -38 -245q-7 -82 1 -139q10 -72 52 -91q51 -23 94 23q29 30 55 98q1 -14 6 -28q20 -74 95 -84q41 -6 82 16q11 7 11.5 17.5t-9.5 17.5t-20 1q-31 -16 -58 -12q-50 8 -63 55q-11 42 3 120l31 132q8 35 9 52q3 30 -7 43q-8 9 -17 9
q-11 1 -19 -10q-3 -5 -5 -13q0 -5 -1 -10q-1 -3 -1 -6q-9 -35 -13 -51l-9 -44l-8 -32q-4 -23 -11 -48q-15 -62 -32 -110q-23 -60 -48 -85q-24 -25 -49 -15q-21 9 -28 61q-8 53 -1 130q7 103 38 240zM259 565q-7 -11 -25 -11q-18 3 -11 12q7 11 20.5 16t25.5 0q14 -5 16 -22
q4 -29 -41 -48q-17 -8 -25 0q-8 9 10 16l1 1q2 0 4 2l2 1l3 3l2 2l3 3l2 6q2 8 -3 13l-3 3h-1q12 -4 21 5v-1z" />
    <glyph glyph-name="uni1EE8" unicode="&#x1ee8;" horiz-adv-x="500" 
d="M151 677q-84 -223 -84 -464q0 -46 11 -103q8 -36 17 -53q9 -15 16 -15q32 0 76 53q38 47 81 134q23 47 48 110q10 65 31 143q40 152 90 217l3 3q4 4 12 6q15 2 21 -13q3 -5 -1 -22t-18 -54l-19 -53l-1 -1v-2l-3 -10l-21 -69q-26 -83 -55 -156q-12 -74 -12 -133
q-1 -138 48 -172q59 -39 192 70q10 8 20.5 3.5t12 -14.5t-6.5 -19q-157 -129 -240 -73q-67 46 -66 205v15q-43 -87 -85 -140q-55 -67 -107 -68q-31 0 -51 36q-14 24 -21 64q-12 57 -12 111q0 247 86 478q4 12 15.5 13.5t19 -7t3.5 -20.5zM513 739q-7 -11 -25 -11
q-18 3 -11 12q7 11 20.5 16t25.5 0q14 -5 16 -22q4 -29 -41 -48q-17 -8 -25 0q-8 9 10 16l1 1q2 0 4 2l2 1l3 3l2 2l3 3l2 6q2 8 -3 13l-3 3h-1q12 -4 21 5v-1zM346 839q7 12 20.5 10t19 -13t-1.5 -23q-2 -3 -28 -44l-21 -37q-8 -12 -21.5 -11t-19 11.5t0.5 23.5
q20 33 22 37q5 8 29 46z" />
    <glyph glyph-name="uni1EE9" unicode="&#x1ee9;" horiz-adv-x="426" 
d="M119 459q-31 -137 -38 -240q-7 -77 1 -130q7 -52 28 -61q25 -10 49 15q25 25 48 85q17 48 32 110q7 25 11 48l8 32l9 44q4 16 13 51q0 3 1 6q1 5 1 10q2 8 5 13q8 11 19 10q10 0 17 -9q10 -13 7 -43q-1 -17 -9 -52l-31 -132q-14 -78 -3 -120q13 -47 63 -55q27 -4 58 12
q10 6 20 -1t9.5 -17.5t-11.5 -17.5q-41 -22 -82 -16q-75 10 -95 84q-5 14 -6 28q-26 -68 -55 -98q-43 -46 -94 -23q-42 19 -52 91q-8 57 -1 139q9 104 38 245q4 19 23 15t17 -23zM368 486q-7 -11 -25 -11q-18 3 -11 12q7 11 20.5 16t25.5 0q14 -5 16 -22q4 -29 -41 -48
q-17 -8 -25 0q-8 9 10 16l1 1q2 0 4 2l2 1l3 3l2 2l3 3l2 6q2 8 -3 13l-3 3h-1q12 -4 21 5v-1zM267 623q7 12 20.5 10t19 -13t-1.5 -23q-2 -3 -28 -44l-21 -37q-8 -12 -21.5 -11t-19 11.5t0.5 23.5q20 33 22 37q5 7 29 46z" />
    <glyph glyph-name="uni1EEA" unicode="&#x1eea;" horiz-adv-x="500" 
d="M151 677q-84 -223 -84 -464q0 -46 11 -103q8 -36 17 -53q9 -15 16 -15q32 0 76 53q38 47 81 134q23 47 48 110q10 65 31 143q40 152 90 217l3 3q4 4 12 6q15 2 21 -13q3 -5 -1 -22t-18 -54l-19 -53l-1 -1v-2l-3 -10l-21 -69q-26 -83 -55 -156q-12 -74 -12 -133
q-1 -138 48 -172q59 -39 192 70q10 8 20.5 3.5t12 -14.5t-6.5 -19q-157 -129 -240 -73q-67 46 -66 205v15q-43 -87 -85 -140q-55 -67 -107 -68q-31 0 -51 36q-14 24 -21 64q-12 57 -12 111q0 247 86 478q4 12 15.5 13.5t19 -7t3.5 -20.5zM513 739q-7 -11 -25 -11
q-18 3 -11 12q7 11 20.5 16t25.5 0q14 -5 16 -22q4 -29 -41 -48q-17 -8 -25 0q-8 9 10 16l1 1q2 0 4 2l2 1l3 3l2 2l3 3l2 6q2 8 -3 13l-3 3h-1q12 -4 21 5v-1zM295 841q20 -31 28 -46l23 -37q8 -12 0.5 -23t-19.5 -11.5t-21 10.5q-1 1 -4 7t-8 14l-10 16q-18 31 -27 44
q-8 11 -1.5 23t18.5 13t21 -10z" />
    <glyph glyph-name="uni1EEB" unicode="&#x1eeb;" horiz-adv-x="426" 
d="M119 459q-31 -137 -38 -240q-7 -77 1 -130q7 -52 28 -61q25 -10 49 15q25 25 48 85q17 48 32 110q7 25 11 48l8 32l9 44q4 16 13 51q0 3 1 6q1 5 1 10q2 8 5 13q8 11 19 10q10 0 17 -9q10 -13 7 -43q-1 -17 -9 -52l-31 -132q-14 -78 -3 -120q13 -47 63 -55q27 -4 58 12
q10 6 20 -1t9.5 -17.5t-11.5 -17.5q-41 -22 -82 -16q-75 10 -95 84q-5 14 -6 28q-26 -68 -55 -98q-43 -46 -94 -23q-42 19 -52 91q-8 57 -1 139q9 104 38 245q4 19 23 15t17 -23zM368 486q-7 -11 -25 -11q-18 3 -11 12q7 11 20.5 16t25.5 0q14 -5 16 -22q4 -29 -41 -48
q-17 -8 -25 0q-8 9 10 16l1 1q2 0 4 2l2 1l3 3l2 2l3 3l2 6q2 8 -3 13l-3 3h-1q12 -4 21 5v-1zM202 625q20 -31 28 -46l23 -37q8 -12 0.5 -23t-19.5 -11.5t-21 10.5q-1 1 -4 7t-8 14l-10 16q-18 31 -27 44q-8 11 -1.5 23t18.5 13t21 -10z" />
    <glyph glyph-name="uni1EEC" unicode="&#x1eec;" horiz-adv-x="500" 
d="M151 677q4 12 -3.5 20.5t-19 7t-15.5 -13.5q-86 -231 -86 -478q0 -54 12 -111q7 -40 21 -64q20 -36 51 -36q52 1 107 68q42 53 85 140v-15q-1 -159 66 -205q83 -56 240 73q9 8 6.5 19t-12 14.5t-20.5 -3.5q-133 -109 -192 -70q-49 34 -48 172q0 59 12 133q29 73 55 156
l21 69l3 10v2l1 1l19 53q14 37 18 54t1 22q-6 15 -21 13q-8 -2 -12 -6l-3 -3q-50 -65 -90 -217q-21 -78 -31 -143q-25 -63 -48 -110q-43 -87 -81 -134q-44 -53 -76 -53q-7 0 -16 15q-9 17 -17 53q-11 57 -11 103q0 241 84 464zM513 739q-7 -11 -25 -11q-18 3 -11 12
q7 11 20.5 16t25.5 0q14 -5 16 -22q4 -29 -41 -48q-17 -8 -25 0q-8 9 10 16l1 1q2 0 4 2l2 1l3 3l2 2l3 3l2 6q2 8 -3 13l-3 3h-1q12 -4 21 5v-1zM331 783q-7 -11 -25 -11q-18 3 -11 12q7 11 20.5 16t25.5 0q14 -5 16 -22q4 -29 -41 -48q-17 -8 -25 0q-8 9 10 16l1 1
q2 0 4 2l2 1l3 3l2 2l3 3l2 6q2 8 -3 13l-3 3h-1q12 -4 21 5v-1z" />
    <glyph glyph-name="uni1EED" unicode="&#x1eed;" horiz-adv-x="426" 
d="M119 459q2 19 -17 23t-23 -15q-29 -141 -38 -245q-7 -82 1 -139q10 -72 52 -91q51 -23 94 23q29 30 55 98q1 -14 6 -28q20 -74 95 -84q41 -6 82 16q11 7 11.5 17.5t-9.5 17.5t-20 1q-31 -16 -58 -12q-50 8 -63 55q-11 42 3 120l31 132q8 35 9 52q3 30 -7 43q-8 9 -17 9
q-11 1 -19 -10q-3 -5 -5 -13q0 -5 -1 -10q-1 -3 -1 -6q-9 -35 -13 -51l-9 -44l-8 -32q-4 -23 -11 -48q-15 -62 -32 -110q-23 -60 -48 -85q-24 -25 -49 -15q-21 9 -28 61q-8 53 -1 130q7 103 38 240zM368 486q-7 -11 -25 -11q-18 3 -11 12q7 11 20.5 16t25.5 0q14 -5 16 -22
q4 -29 -41 -48q-17 -8 -25 0q-8 9 10 16l1 1q2 0 4 2l2 1l3 3l2 2l3 3l2 6q2 8 -3 13l-3 3h-1q12 -4 21 5v-1zM269 565q-7 -11 -25 -11q-18 3 -11 12q7 11 20.5 16t25.5 0q14 -5 16 -22q4 -29 -41 -48q-17 -8 -25 0q-8 9 10 16l1 1q2 0 4 2l2 1l3 3l2 2l3 3l2 6q2 8 -3 13
l-3 3h-1q12 -4 21 5v-1z" />
    <glyph glyph-name="uni1EEE" unicode="&#x1eee;" horiz-adv-x="500" 
d="M151 677q4 12 -3.5 20.5t-19 7t-15.5 -13.5q-86 -231 -86 -478q0 -54 12 -111q7 -40 21 -64q20 -36 51 -36q52 1 107 68q42 53 85 140v-15q-1 -159 66 -205q83 -56 240 73q9 8 6.5 19t-12 14.5t-20.5 -3.5q-133 -109 -192 -70q-49 34 -48 172q0 59 12 133q29 73 55 156
l21 69l3 10v2l1 1l19 53q14 37 18 54t1 22q-6 15 -21 13q-8 -2 -12 -6l-3 -3q-50 -65 -90 -217q-21 -78 -31 -143q-25 -63 -48 -110q-43 -87 -81 -134q-44 -53 -76 -53q-7 0 -16 15q-9 17 -17 53q-11 57 -11 103q0 241 84 464zM513 739q-7 -11 -25 -11q-18 3 -11 12
q7 11 20.5 16t25.5 0q14 -5 16 -22q4 -29 -41 -48q-17 -8 -25 0q-8 9 10 16l1 1q2 0 4 2l2 1l3 3l2 2l3 3l2 6q2 8 -3 13l-3 3h-1q12 -4 21 5v-1zM237 761q-15 -10 -28 -7q-6 1 -7 4.5t4 7.5q50 31 71 37q41 12 82 -5q3 -1 32 -17q5 -4 15 -7q5 -2 13 -2h16l3 1v-1h-1l2 1
q-1 0 -3 -1l3 2h1l3 2l1 1l3 3q1 2 5 6q7 10 25 10q3 0 6 -1t5 -3t-1 -6q-13 -17 -27 -23q-23 -10 -42 -11q-27 0 -39 4q-12 3 -32 15q-15 10 -35 15q-1 1 -3.5 1.5t-3.5 0.5h-5h-1h-9q-3 0 -4 -1q-3 0 -4 -1h-2l-2 -1l-4 -2h-1q-6 -3 -7 -4l-16 -9l-7 -5l-2 -1z" />
    <glyph glyph-name="uni1EEF" unicode="&#x1eef;" horiz-adv-x="426" 
d="M119 459q2 19 -17 23t-23 -15q-29 -141 -38 -245q-7 -82 1 -139q10 -72 52 -91q51 -23 94 23q29 30 55 98q1 -14 6 -28q20 -74 95 -84q41 -6 82 16q11 7 11.5 17.5t-9.5 17.5t-20 1q-31 -16 -58 -12q-50 8 -63 55q-11 42 3 120l31 132q8 35 9 52q3 30 -7 43q-8 9 -17 9
q-11 1 -19 -10q-3 -5 -5 -13q0 -5 -1 -10q-1 -3 -1 -6q-9 -35 -13 -51l-9 -44l-8 -32q-4 -23 -11 -48q-15 -62 -32 -110q-23 -60 -48 -85q-24 -25 -49 -15q-21 9 -28 61q-8 53 -1 130q7 103 38 240zM368 486q-7 -11 -25 -11q-18 3 -11 12q7 11 20.5 16t25.5 0q14 -5 16 -22
q4 -29 -41 -48q-17 -8 -25 0q-8 9 10 16l1 1q2 0 4 2l2 1l3 3l2 2l3 3l2 6q2 8 -3 13l-3 3h-1q12 -4 21 5v-1zM142 539q-15 -10 -28 -7q-6 1 -7 4.5t4 7.5q50 31 71 37q41 12 82 -5q2 -1 32 -17q5 -4 15 -7q5 -2 13 -2h16l3 1l-1 -1l2 1q-1 0 -3 -1l3 2h1l3 2l1 1l3 3
q1 2 5 6q7 10 25 10q3 0 6 -1t5 -3t-1 -6q-13 -17 -27 -23q-23 -10 -42 -11q-27 0 -39 4q-12 3 -32 15q-15 10 -35 15q-1 1 -3.5 1.5t-3.5 0.5h-5h-1h-9q-3 0 -4 -1q-3 0 -4 -1h-3l-1 -1l-4 -2h-1q-6 -3 -7 -4l-16 -9l-7 -5l-2 -1z" />
    <glyph glyph-name="uni1EF0" unicode="&#x1ef0;" horiz-adv-x="500" 
d="M151 677q4 12 -3.5 20.5t-19 7t-15.5 -13.5q-86 -231 -86 -478q0 -54 12 -111q7 -40 21 -64q20 -36 51 -36q52 1 107 68q42 53 85 140v-15q-1 -159 66 -205q83 -56 240 73q9 8 6.5 19t-12 14.5t-20.5 -3.5q-133 -109 -192 -70q-49 34 -48 172q0 59 12 133q29 73 55 156
l21 69l3 10v2l1 1l19 53q14 37 18 54t1 22q-6 15 -21 13q-8 -2 -12 -6l-3 -3q-50 -65 -90 -217q-21 -78 -31 -143q-25 -63 -48 -110q-43 -87 -81 -134q-44 -53 -76 -53q-7 0 -16 15q-9 17 -17 53q-11 57 -11 103q0 241 84 464zM513 739q-7 -11 -25 -11q-18 3 -11 12
q7 11 20.5 16t25.5 0q14 -5 16 -22q4 -29 -41 -48q-17 -8 -25 0q-8 9 10 16l1 1q2 0 4 2l2 1l3 3l2 2l3 3l2 6q2 8 -3 13l-3 3h-1q12 -4 21 5v-1zM160 -72q0 9 6.5 15.5t15.5 6.5t15.5 -6.5t6.5 -15.5t-6.5 -15.5t-15.5 -6.5t-15.5 6.5t-6.5 15.5z" />
    <glyph glyph-name="uni1EF1" unicode="&#x1ef1;" horiz-adv-x="426" 
d="M119 459q2 19 -17 23t-23 -15q-29 -141 -38 -245q-7 -82 1 -139q10 -72 52 -91q51 -23 94 23q29 30 55 98q1 -14 6 -28q20 -74 95 -84q41 -6 82 16q11 7 11.5 17.5t-9.5 17.5t-20 1q-31 -16 -58 -12q-50 8 -63 55q-11 42 3 120l31 132q8 35 9 52q3 30 -7 43q-8 9 -17 9
q-11 1 -19 -10q-3 -5 -5 -13q0 -5 -1 -10q-1 -3 -1 -6q-9 -35 -13 -51l-9 -44l-8 -32q-4 -23 -11 -48q-15 -62 -32 -110q-23 -60 -48 -85q-24 -25 -49 -15q-21 9 -28 61q-8 53 -1 130q7 103 38 240zM368 486q-7 -11 -25 -11q-18 3 -11 12q7 11 20.5 16t25.5 0q14 -5 16 -22
q4 -29 -41 -48q-17 -8 -25 0q-8 9 10 16l1 1q2 0 4 2l2 1l3 3l2 2l3 3l2 6q2 8 -3 13l-3 3h-1q12 -4 21 5v-1zM160 -72q0 9 6.5 15.5t15.5 6.5t15.5 -6.5t6.5 -15.5t-6.5 -15.5t-15.5 -6.5t-15.5 6.5t-6.5 15.5z" />
    <glyph glyph-name="Ygrave" unicode="&#x1ef2;" horiz-adv-x="473" 
d="M321 292l6 36q-65 -88 -106 -186q-10 -24 -12 -62q-1 -22 3 -32q2 -6 5 -6q24 -2 41 24q12 18 26 59q17 54 37 167zM35 597l21 19l24 23q28 26 51 38q18 11 33 17l14 5q3 1 8 1q4 1 8 0q12 -3 15 -16q1 -3 -1 -11q0 -1 -2 -7q-1 -6 -6 -17l-22 -49q-35 -77 -55 -137
q-25 -81 -18 -124q4 -22 16 -32q15 -12 43 -12q15 0 43 28q28 27 62 75l37 55l37 61l20 33q12 19 40 72l5 13q1 5 4 8l4 5q12 11 25 2q7 -4 9 -13v-5q0 -5 -3 -15q-1 -6 -6 -19l-18 -53l-24 -72q43 41 91 76q16 11 27 -4.5t-3 -27.5q-71 -51 -134 -122q-1 -4 -4 -21
t-7 -39.5t-8 -46.5q-19 -108 -39 -172q-13 -43 -31 -70q-30 -44 -76 -41q-30 2 -41 32q-7 17 -5 48q3 46 16 76q56 134 158 253l9 41q-29 -47 -51 -77q-36 -53 -66 -81q-41 -39 -71 -39q-42 0 -68 21q-24 19 -30 56q-10 51 19 144q17 53 56 140l13 28l-3 -1q-14 -8 -44 -33
l-23 -22l-21 -21q-14 -12 -28 2t0 28zM304 843q20 -31 28 -46l23 -37q8 -12 0.5 -23t-19.5 -11.5t-21 10.5q-1 1 -4 7t-8 14l-10 16q-18 31 -27 44q-8 11 -1.5 23t18.5 13t21 -10z" />
    <glyph glyph-name="ygrave" unicode="&#x1ef3;" horiz-adv-x="400" 
d="M95 486l-11 -72l-7 -54q-10 -80 -11 -130q-5 -92 6 -142q7 -32 19 -43t25.5 -6t31.5 23q24 22 48 66q33 60 52 122q9 89 31 155q0 1 1 3t1 3q3 4 7 7q8 5 16 2q8 -2 12 -9q3 -5 3 -9v-4q0 -1 -0.5 -2t-1 -3.5t-0.5 -4.5q0 -4 -1.5 -12.5t-1.5 -10.5q-6 -42 -21 -103
l-5 -20q-4 -38 -6 -81q55 55 103 56q12 0 17.5 -10t1 -20t-16.5 -10q-35 -1 -78 -45q-20 -22 -28 -33q-1 -7 -1 -73q1 -42 1 -72q0 -63 -4 -86q-4 -33 -19 -51q-21 -30 -57 -8q-48 28 -43 102q3 60 40 131q22 42 43 71v15l-10 -20q-28 -49 -55 -75q-37 -35 -73 -35
q-54 2 -70 81q-12 54 -7 153q2 44 5 66l6 66q7 49 8 54l6 46q4 21 4 28q1 12 12 15.5t20 -3t8 -18.5zM227 -158q6 6 11 32q3 22 3 80v46v38l-8 -14q-32 -65 -36 -115q-3 -49 24 -66q6 -4 6 -1zM227 -159h-1h1zM190 627q20 -31 28 -46l23 -37q8 -12 0.5 -23t-19.5 -11.5
t-21 10.5q-1 1 -4 7t-8 14l-10 16q-18 31 -27 44q-8 11 -1.5 23t18.5 13t21 -10z" />
    <glyph glyph-name="uni1EF4" unicode="&#x1ef4;" horiz-adv-x="473" 
d="M321 292l6 36q-65 -88 -106 -186q-10 -24 -12 -62q-1 -22 3 -32q2 -6 5 -6q24 -2 41 24q12 18 26 59q17 54 37 167zM35 597l21 19l24 23q28 26 51 38q18 11 33 17l14 5q3 1 8 1q4 1 8 0q12 -3 15 -16q1 -3 -1 -11q0 -1 -2 -7q-1 -6 -6 -17l-22 -49q-35 -77 -55 -137
q-25 -81 -18 -124q4 -22 16 -32q15 -12 43 -12q15 0 43 28q28 27 62 75l37 55l37 61l20 33q12 19 40 72l5 13q1 5 4 8l4 5q12 11 25 2q7 -4 9 -13v-5q0 -5 -3 -15q-1 -6 -6 -19l-18 -53l-24 -72q43 41 91 76q16 11 27 -4.5t-3 -27.5q-71 -51 -134 -122q-1 -4 -4 -21
t-7 -39.5t-8 -46.5q-19 -108 -39 -172q-13 -43 -31 -70q-30 -44 -76 -41q-30 2 -41 32q-7 17 -5 48q3 46 16 76q56 134 158 253l9 41q-29 -47 -51 -77q-36 -53 -66 -81q-41 -39 -71 -39q-42 0 -68 21q-24 19 -30 56q-10 51 19 144q17 53 56 140l13 28l-3 -1q-14 -8 -44 -33
l-23 -22l-21 -21q-14 -12 -28 2t0 28zM88 192q0 9 6.5 15.5t15.5 6.5t15.5 -6.5t6.5 -15.5t-6.5 -15.5t-15.5 -6.5t-15.5 6.5t-6.5 15.5z" />
    <glyph glyph-name="uni1EF5" unicode="&#x1ef5;" horiz-adv-x="400" 
d="M95 486l-11 -72l-7 -54q-10 -80 -11 -130q-5 -92 6 -142q7 -32 19 -43t25.5 -6t31.5 23q24 22 48 66q33 60 52 122q9 89 31 155q0 1 1 3t1 3q3 4 7 7q8 5 16 2q8 -2 12 -9q3 -5 3 -9v-4q0 -1 -0.5 -2t-1 -3.5t-0.5 -4.5q0 -4 -1.5 -12.5t-1.5 -10.5q-6 -42 -21 -103
l-5 -20q-4 -38 -6 -81q55 55 103 56q12 0 17.5 -10t1 -20t-16.5 -10q-35 -1 -78 -45q-20 -22 -28 -33q-1 -7 -1 -73q1 -42 1 -72q0 -63 -4 -86q-4 -33 -19 -51q-21 -30 -57 -8q-48 28 -43 102q3 60 40 131q22 42 43 71v15l-10 -20q-28 -49 -55 -75q-37 -35 -73 -35
q-54 2 -70 81q-12 54 -7 153q2 44 5 66l6 66q7 49 8 54l6 46q4 21 4 28q1 12 12 15.5t20 -3t8 -18.5zM227 -158q6 6 11 32q3 22 3 80v46v38l-8 -14q-32 -65 -36 -115q-3 -49 24 -66q6 -4 6 -1zM227 -159h-1h1zM68 -69q0 9 6 15t14 6t14 -6t6 -15t-6 -15t-14 -6t-14 6t-6 15z
" />
    <glyph glyph-name="uni1EF6" unicode="&#x1ef6;" horiz-adv-x="473" 
d="M327 328l-6 -36q-20 -113 -37 -167q-14 -41 -26 -59q-17 -26 -41 -24q-3 0 -5 6q-4 10 -3 32q2 38 12 62q41 98 106 186zM35 597q-14 -14 0 -28t28 -2l21 21l23 22q30 25 44 33l3 1l-13 -28q-39 -87 -56 -140q-29 -93 -19 -144q6 -37 30 -56q26 -21 68 -21q30 0 71 39
q30 28 66 81q22 30 51 77l-9 -41q-102 -119 -158 -253q-13 -30 -16 -76q-2 -31 5 -48q11 -30 41 -32q46 -3 76 41q18 27 31 70q20 64 39 172q4 24 8 46.5t7 39.5t4 21q63 71 134 122q14 12 3 27.5t-27 4.5q-48 -35 -91 -76l24 72l18 53q5 13 6 19q3 10 3 15v5q-2 9 -9 13
q-13 9 -25 -2l-4 -5q-3 -3 -4 -8l-5 -13q-28 -53 -40 -72l-20 -33l-37 -61l-37 -55q-34 -48 -62 -75q-28 -28 -43 -28q-28 0 -43 12q-12 10 -16 32q-7 43 18 124q20 60 55 137l22 49q5 11 6 17q2 6 2 7q2 8 1 11q-3 13 -15 16q-4 1 -8 0q-5 0 -8 -1l-14 -5q-15 -6 -33 -17
q-23 -12 -51 -38l-24 -23zM401 785q-7 -11 -25 -11q-18 3 -11 12q7 11 20.5 16t25.5 0q14 -5 16 -22q4 -29 -41 -48q-17 -8 -25 0q-8 9 10 16l1 1q2 0 4 2l2 1l3 3l2 2l3 3l2 6q2 8 -3 13l-3 3h-1q12 -4 21 5v-1z" />
    <glyph glyph-name="uni1EF7" unicode="&#x1ef7;" horiz-adv-x="400" 
d="M95 486q1 12 -8 18.5t-20 3t-12 -15.5q0 -7 -4 -28l-6 -46q-1 -5 -8 -54l-6 -66q-3 -22 -5 -66q-5 -99 7 -153q16 -79 70 -81q36 0 73 35q27 26 55 75l10 20v-15q-21 -29 -43 -71q-37 -71 -40 -131q-5 -74 43 -102q36 -22 57 8q15 18 19 51q4 23 4 86q0 30 -1 72
q0 66 1 73q8 11 28 33q43 44 78 45q12 0 16.5 10t-1 20t-17.5 10q-48 -1 -103 -56q2 43 6 81l5 20q15 61 21 103q0 2 1.5 10.5t1.5 12.5q0 2 1 5l1 5v4q0 4 -3 9q-4 7 -12 9q-8 3 -16 -2q-4 -3 -7 -7q0 -1 -1 -3t-1 -3q-22 -66 -31 -155q-19 -62 -52 -122q-24 -44 -48 -66
q-18 -18 -31.5 -23t-25.5 6t-19 43q-11 50 -6 142q1 50 11 130l7 54zM227 -158q0 -3 -6 1q-27 17 -24 66q4 50 36 115l8 14v-38v-46q0 -58 -3 -80q-5 -26 -11 -32zM226 -159h1h-1zM253 566q-7 -11 -25 -11q-18 3 -11 12q7 11 20.5 16t25.5 0q14 -5 16 -22q4 -29 -41 -48
q-17 -8 -25 0q-8 9 10 16l1 1q2 0 4 2l2 1l3 3l2 2l3 3l2 6q2 8 -3 13l-3 3h-1q12 -4 21 5v-1z" />
    <glyph glyph-name="uni1EF8" unicode="&#x1ef8;" horiz-adv-x="473" 
d="M327 328l-6 -36q-20 -113 -37 -167q-14 -41 -26 -59q-17 -26 -41 -24q-3 0 -5 6q-4 10 -3 32q2 38 12 62q41 98 106 186zM35 597q-14 -14 0 -28t28 -2l21 21l23 22q30 25 44 33l3 1l-13 -28q-39 -87 -56 -140q-29 -93 -19 -144q6 -37 30 -56q26 -21 68 -21q30 0 71 39
q30 28 66 81q22 30 51 77l-9 -41q-102 -119 -158 -253q-13 -30 -16 -76q-2 -31 5 -48q11 -30 41 -32q46 -3 76 41q18 27 31 70q20 64 39 172q4 24 8 46.5t7 39.5t4 21q63 71 134 122q14 12 3 27.5t-27 4.5q-48 -35 -91 -76l24 72l18 53q5 13 6 19q3 10 3 15v5q-2 9 -9 13
q-13 9 -25 -2l-4 -5q-3 -3 -4 -8l-5 -13q-28 -53 -40 -72l-20 -33l-37 -61l-37 -55q-34 -48 -62 -75q-28 -28 -43 -28q-28 0 -43 12q-12 10 -16 32q-7 43 18 124q20 60 55 137l22 49q5 11 6 17q2 6 2 7q2 8 1 11q-3 13 -15 16q-4 1 -8 0q-5 0 -8 -1l-14 -5q-15 -6 -33 -17
q-23 -12 -51 -38l-24 -23zM255 739q-15 -10 -28 -7q-6 1 -7 4.5t4 7.5q50 31 71 37q41 12 82 -5q2 -1 32 -17q5 -4 15 -7q5 -2 13 -2h16l3 1v-1h-1l2 1q-1 0 -3 -1l3 2h1l3 2l1 1l3 3q1 2 5 6q7 10 25 10q3 0 6 -1t5 -3t-1 -6q-13 -17 -27 -23q-23 -10 -42 -11q-27 0 -39 4
q-12 3 -32 15q-15 10 -35 15q-1 1 -3.5 1.5t-3.5 0.5h-5h-1h-9q-3 0 -4 -1q-3 0 -4 -1h-2l-2 -1l-4 -2h-1q-6 -3 -7 -4l-16 -9l-7 -5l-2 -1z" />
    <glyph glyph-name="uni1EF9" unicode="&#x1ef9;" horiz-adv-x="400" 
d="M95 486q1 12 -8 18.5t-20 3t-12 -15.5q0 -7 -4 -28l-6 -46q-1 -5 -8 -54l-6 -66q-3 -22 -5 -66q-5 -99 7 -153q16 -79 70 -81q36 0 73 35q27 26 55 75l10 20v-15q-21 -29 -43 -71q-37 -71 -40 -131q-5 -74 43 -102q36 -22 57 8q15 18 19 51q4 23 4 86q0 30 -1 72
q0 66 1 73q8 11 28 33q43 44 78 45q12 0 16.5 10t-1 20t-17.5 10q-48 -1 -103 -56q2 43 6 81l5 20q15 61 21 103q0 2 1.5 10.5t1.5 12.5q0 2 1 5l1 5v4q0 4 -3 9q-4 7 -12 9q-8 3 -16 -2q-4 -3 -7 -7q0 -1 -1 -3t-1 -3q-22 -66 -31 -155q-19 -62 -52 -122q-24 -44 -48 -66
q-18 -18 -31.5 -23t-25.5 6t-19 43q-11 50 -6 142q1 50 11 130l7 54zM227 -158q0 -3 -6 1q-27 17 -24 66q4 50 36 115l8 14v-38v-46q0 -58 -3 -80q-5 -26 -11 -32zM226 -159h1h-1zM123 559q-15 -10 -28 -7q-6 1 -7 4.5t4 7.5q50 31 71 37q41 12 82 -5q2 -1 32 -17
q5 -4 15 -7q5 -2 13 -2h16l3 1v-1h-1l2 1q-1 0 -3 -1l3 2h1l3 2l1 1l3 3q1 2 5 6q7 10 25 10q3 0 6 -1t5 -3t-1 -6q-13 -17 -27 -23q-23 -10 -42 -11q-27 0 -39 4q-12 3 -32 15q-15 10 -35 15q-1 1 -3.5 1.5t-3.5 0.5h-5h-1h-9q-3 0 -4 -1q-3 0 -4 -1h-2l-2 -1l-4 -2h-1
q-6 -3 -7 -4l-16 -9l-7 -5l-2 -1z" />
    <glyph glyph-name="quoteleft" unicode="&#x2018;" horiz-adv-x="131" 
d="M88 669q-32 -50 -35 -92q-4 -46 35 -63q11 -5 11.5 -16t-8 -18.5t-19.5 -1.5q-66 27 -59 102q5 54 41 111q11 16 27 5.5t7 -27.5z" />
    <glyph glyph-name="quoteright" unicode="&#x2019;" horiz-adv-x="137" 
d="M77 690l7 -13l8 -13l7 -14q10 -16 14 -26q13 -31 17 -53q10 -67 -56 -124q-8 -8 -19 -4t-13 14.5t6 19.5q49 43 43 88q-1 12 -11 33q-6 17 -14 30l-23 42q-6 10 0 19.5t16.5 10t17.5 -9.5z" />
    <glyph glyph-name="quotedblleft" unicode="&#x201c;" horiz-adv-x="332" 
d="M133 671q-38 -57 -56 -122q-7 -33 0 -45q8 -11 42 -2q7 2 13 -1t8.5 -8t3 -11t-3.5 -11t-11 -7q-62 -17 -85 18q-18 26 -6 77q10 38 28 74q20 39 33 60q11 16 27 5.5t7 -27.5zM289 679q-1 -1 -3 -4.5t-5.5 -9t-7.5 -11.5l-23 -36q-12 -20 -19 -34q-28 -60 -10 -84
q1 -1 16 -6h3q4 -1 11 -2.5t15 -2.5q18 -5 15 -23.5t-23 -16.5q-28 6 -31 6q-27 7 -38 21q-33 43 6 125l20 37q7 11 16 25.5t16 25t8 12.5q7 10 17.5 9.5t16.5 -10.5t0 -21z" />
    <glyph glyph-name="quotedblright" unicode="&#x201d;" horiz-adv-x="260" 
d="M74 682q48 -48 46 -104t-53 -102q-9 -8 -19.5 -3.5t-12.5 14.5t6 19q38 34 39.5 73t-34.5 75q-8 8 -4.5 19t13 13.5t19.5 -4.5zM212 691q48 -64 55 -116q9 -69 -51 -121q-8 -8 -19 -4t-13 14.5t6 19.5q44 38 37 86q-4 41 -47 97q-7 10 -1.5 20.5t15.5 11.5t18 -8z" />
    <glyph glyph-name="uni3000" unicode="&#x3000;" horiz-adv-x="1000" 
 />
    <glyph glyph-name="NULL" horiz-adv-x="0" 
 />
    <glyph glyph-name="CR" horiz-adv-x="333" 
 />
  </font>
</defs>
</svg>
