<?xml version="1.0" standalone="no"?>
<!DOCTYPE svg PUBLIC "-//W3C//DTD SVG 1.1//EN" "http://www.w3.org/Graphics/SVG/1.1/DTD/svg11.dtd" >
<svg xmlns="http://www.w3.org/2000/svg" xmlns:xlink="http://www.w3.org/1999/xlink" version="1.1">
<metadata>
Created by FontForge 20170731 at Fri Jan  1 02:30:17 1904
 By Aleksey,,,
(c)1997 Uddi Uddi
</metadata>
<defs>
<font id="CaptainPodd" horiz-adv-x="1582" >
  <font-face 
    font-family="Captain Podd"
    font-weight="400"
    font-variant="small-caps"
    font-stretch="normal"
    units-per-em="2048"
    panose-1="2 11 6 3 5 3 2 2 2 4"
    ascent="1638"
    descent="-410"
    x-height="574"
    cap-height="574"
    bbox="0 -182 1523.11 729"
    underline-thickness="0"
    underline-position="0"
    unicode-range="U+0020-007A"
  />
<missing-glyph horiz-adv-x="2048" 
d="M65 130q65 0 65 -65t-65 -65t-65 65t65 65z" />
    <glyph glyph-name=".notdef" horiz-adv-x="2048" 
d="M65 130q65 0 65 -65t-65 -65t-65 65t65 65z" />
    <glyph glyph-name="glyph1" horiz-adv-x="0" 
 />
    <glyph glyph-name="glyph2" horiz-adv-x="2048" 
 />
    <glyph glyph-name="space" unicode=" " horiz-adv-x="800" 
 />
    <glyph glyph-name="ampersand" unicode="&#x26;" horiz-adv-x="1579" 
d="M819 57v0v0q-8 -57 -65 -57q-64 0 -64 65q0 2 -0.5 4.5t-0.5 5.5v149h-343h-284h-1v0v0v0h-2v0q-59 1 -59 61v1v2v0.5v1.5q0 59 59 61v0h2v0v0v0h1h284h343v150v4v5q0 65 65 65q58 0 65 -57v0v0v0q1 -3 1 -8t-1 -7v-152h606q29 0 54 -12.5t25 -48.5v-1.5v-0.5v-2v-1
q0 -37 -25 -49t-54 -12h-606v-152q1 -2 1 -7t-1 -7v-1z" />
    <glyph glyph-name="quotesingle" unicode="'" horiz-adv-x="136" 
d="M0 419v310h130v-310h-130z" />
    <glyph glyph-name="comma" unicode="," horiz-adv-x="136" 
d="M0 -182v309h130v-309h-130z" />
    <glyph glyph-name="hyphen" unicode="-" horiz-adv-x="324" 
d="M309 219h-309v130h309v-130z" />
    <glyph glyph-name="period" unicode="." horiz-adv-x="136" 
d="M65 130q65 0 65 -65t-65 -65t-65 65t65 65z" />
    <glyph glyph-name="zero" unicode="0" 
d="M479 452h-179q-95 0 -132 -42q-35 -42 -35 -123q0 -93 58 -134q24 -17 51 -24q28 -6 78 -6h159h548h160q50 0 77 6q27 7 52 24q57 42 57 134q0 83 -35 123q-38 42 -132 42h-179v0h-548v0zM1027 0h-548h-177q-87 0 -138 18q-51 17 -90 62q-74 83 -74 209q0 154 89 230
q35 31 85 43q47 13 128 13h177v0h269v0h10v0h269v0h177q81 0 129 -13q47 -12 85 -43q89 -77 89 -230q0 -126 -74 -209q-42 -46 -91 -62q-51 -18 -138 -18h-177z" />
    <glyph glyph-name="one" unicode="1" horiz-adv-x="1579" 
d="M59 123h630v0h-27.5t27.5 0v328h-343h-284h-1v0v0v0h-2v0q-59 3 -59 62t59 61v0h699v0q-126 0 -87 0h150l-2 -451h615q70 1 70 -61q0 -38 -25 -50t-54 -12h-667v0h-696h-1v0v0v0h-2v0q-59 3 -59 61t59 62v0z" />
    <glyph glyph-name="two" unicode="2" horiz-adv-x="1580" 
d="M62 575v0v0h64v0h451q78 0 121 -11q42 -12 69 -42q52 -55 52 -156v-66v0v-66q0 -44 4 -58q3 -18 16 -29q24 -24 75 -24h69h146.5h170h139.5h-0.5h-0.5h-61v0h34.5h27.5h2h3q61 0 61 -61q0 -62 -60 -62v0h-1v0v0v0v0h-67v0h-446q-81 0 -121 12q-42 10 -69 41
q-52 56 -52 155v0v134q0 43 -4 57q-3 15 -16 30q-23 23 -74 23h-71h-146.5h-170h-140.5v0h1h58v0h-33h-26q-67 0 -67 62q0 57 58 61v0h3v0h1z" />
    <glyph glyph-name="three" unicode="3" 
d="M517 452v0h-455v0h-0.5h-0.5q-61 0 -61 62q0 61 61 61h0.5h0.5v0h424h31h240v0h508q77 0 120 -11q42 -12 69 -42q40 -44 49 -109h4v-47v-157v-47h-4q-9 -65 -49 -109q-28 -31 -69 -41q-41 -12 -120 -12h-508v0h-240h-31h-424v0h-0.5h-0.5q-61 0 -61 61q0 62 61 62h0.5
h0.5v0h455v0h240v0q-158 0 -99.5 0h193.5h277.5h153.5q50 0 74 24q12 10 17 29q3 24 3 16v31l-898 -1q-61 0 -61 61v2v3v1v3q0 62 61 62q174 0 449 -0.5t449 -0.5v30q0 -5 -3 16q-5 17 -17 30q-23 23 -74 23h-153.5h-277.5h-193.5t99.5 0v0h-240z" />
    <glyph glyph-name="four" unicode="4" horiz-adv-x="1584" 
d="M1509 517v-7v-510h-130v190h-67h-31h-239v0h-800q-81 0 -121 12q-42 10 -69 41q-52 56 -52 156v110v0v0.5v0.5q0 65 65 65t65 -65v-0.5v-0.5v0v-85q0 -44 4 -58q2 -16 16 -30q24 -23 75 -23h1154v204v0q5 58 64 58t65 -58h1z" />
    <glyph glyph-name="five" unicode="5" horiz-adv-x="1580" 
d="M1444 575v0v0h3v0q58 -4 58 -61q0 -62 -66 -62h-26.5h-32.5v0h58h0.5h0.5h-141.5h-170h-146.5h-70q-51 0 -74 -23q-13 -13 -17 -30q-3 -15 -3 -57v-134v0q0 -97 -52 -155q-30 -31 -69 -41q-42 -12 -121 -12h-447v0h-66v0v0h-1v0v0v0q-61 0 -61 62q0 61 62 61h1.5h3.5h27
h34v0h-60h-1v0h138h169.5h146.5h71q51 0 75 24q11 11 16 29q4 22 4 58v66v0v66q0 101 52 156q27 30 69 42q42 11 120 11h452v0h64v0v0z" />
    <glyph glyph-name="six" unicode="6" horiz-adv-x="1583" 
d="M990 123v0h275q116 0 118.5 66.5t-107.5 66.5h-995q-3 -1 -9 -1q-62 0 -62 62q0 58 59 62v0h3l1022 -2q103 -2 157.5 -61t55.5 -129.5t-54.5 -128.5t-170.5 -58h-261h-31h-240v0h-508q-81 0 -121 12q-42 10 -69 41q-52 56 -52 156v366h130v-341q0 -44 4 -58q2 -16 16 -29
q24 -24 75 -24h152.5h277.5h193.5t-98.5 0v0h240z" />
    <glyph glyph-name="seven" unicode="7" 
d="M61 452v0v0q-61 1 -61 62t61 61v0v0h347.5h348.5v0h508q77 0 120 -11q42 -12 69 -42q53 -57 53 -156v-366h-131v342q0 42 -3 57q-5 17 -17 30q-23 23 -74 23h-153.5h-277.5h-193.5t99.5 0v0h-696z" />
    <glyph glyph-name="eight" unicode="8" horiz-adv-x="1623" 
d="M1335 346q66 0 68 55t-66 55h-1133q-69 0 -67.5 -55t69.5 -55h1129zM1331 118q66 0 68.5 53.5t-61.5 56.5h-4h-4h-1119h-6h-6q-68 0 -66 -55t69 -55h1129zM1478 287q67 -74 26.5 -180.5t-178.5 -106.5h-1119q-141 0 -179.5 109.5t31.5 181.5q-63 75 -28.5 178.5
t178.5 103.5h1123q145 0 179.5 -106t-33.5 -180z" />
    <glyph glyph-name="nine" unicode="9" horiz-adv-x="1587" 
d="M522 452v0h-275q-117 0 -119.5 -88.5t108.5 -87.5h800q3 1 9 1q62 0 62 -62q0 -59 -59 -62v0h-3l-828 2q-103 1 -157.5 67t-55 144t54.5 143.5t171 65.5h261h31h240v0h508q77 0 121 -11q40 -12 69 -42q52 -57 52 -156v-366h-130v342q0 37 -4 57q-5 17 -16 30
q-23 23 -75 23h-153.5h-277.5h-193.5t99.5 0v0h-240z" />
    <glyph glyph-name="colon" unicode=":" horiz-adv-x="136" 
d="M65 130q65 0 65 -65t-65 -65t-65 65t65 65zM65 310q65 0 65 -64q0 -65 -65 -65t-65 65q0 64 65 64z" />
    <glyph glyph-name="question" unicode="?" horiz-adv-x="1581" 
d="M57 452v1q-57 3 -57 61q0 57 57 61v0h4h143h546h292h3v0h246q111 0 163 -55.5t49.5 -121t-56 -120t-152.5 -52.5l-472 -1v-53h-130v111v1v3v1v2v0v0q3 58 61 58h4h5l561 -1q54 6 50.5 55t-52.5 50h-271h-5h-4h-5h-4h-43v0h-240v0q157 0 92.5 0h-206.5h-290.5h-158.5h-126
h-2.5h-1.5zM757 130q64 0 64 -65t-64 -65q-65 0 -65 65t65 65z" />
    <glyph glyph-name="A" unicode="A" horiz-adv-x="1583" 
d="M519 452v0h-219q-95 0 -132 -42q-35 -42 -35 -123q0 -93 58 -134q24 -17 51 -24q28 -6 78 -6h713h4h5q62 0 62 -61q0 -59 -59 -62v0h-3h-740q-87 0 -138 18q-51 17 -90 62q-74 83 -74 209q0 154 89 230q35 31 85 43q47 13 128 13h185h32h239v0h509q77 0 120 -11
q42 -12 69 -42q52 -55 52 -156v-366h-130v342q0 43 -4 57q-4 17 -16 30q-23 23 -74 23h-153.5h-277.5h-194t99 0v0h-239z" />
    <glyph glyph-name="B" unicode="B" horiz-adv-x="1583" 
d="M990 123v0h275q116 0 118.5 88.5t-107.5 88.5l-800 -1q-3 0 -5 -0.5t-4 -0.5q-62 0 -62 62q0 58 59 62v0h3l827 -2q103 -2 157.5 -67.5t55.5 -144t-54.5 -143.5t-170.5 -65h-261h-31h-240v0h-508q-81 0 -121 12q-42 10 -69 41q-52 56 -52 156v366h130v-341q0 -44 4 -58
q2 -16 16 -29q24 -24 75 -24h152.5h277.5h193.5t-98.5 0v0h240z" />
    <glyph glyph-name="C" unicode="C" horiz-adv-x="1580" 
d="M519 123h239v0q-151 0 -77.5 0h229h322h202.5q71 1 71 -61q0 -38 -25.5 -50t-54.5 -12h-667v0h-239h-31h-186q-81 0 -128 13q-53 14 -85 44q-89 74 -89 229q0 126 74 210q38 43 90 62q52 17 138 17h740h3v0q59 -2 59 -62q0 -61 -62 -61h-5h-4h-713q-50 0 -78 -6
q-26 -6 -51 -23q-58 -42 -58 -135q0 -81 35 -122q37 -43 132 -43h219v0z" />
    <glyph glyph-name="D" unicode="D" horiz-adv-x="1587" 
d="M522 123h240v0q-158 0 -99.5 0h193.5h277.5h153.5q51 0 75 24q11 11 16 29q4 22 4 58v341h130v-366q0 -98 -52 -156q-30 -31 -69 -41q-42 -12 -121 -12h-508v0h-240h-31h-261q-116 0 -171 65t-54.5 143.5t55 144t157.5 67.5l828 2h3v0q59 -4 59 -62q0 -62 -62 -62
q-3 0 -5 0.5t-4 0.5l-800 1q-111 0 -108.5 -88.5t119.5 -88.5h275v0z" />
    <glyph glyph-name="E" unicode="E" horiz-adv-x="1581" 
d="M519 123h239v0q-151 0 -77.5 0h229h322h202.5q71 1 71 -61q0 -38 -25.5 -50t-54.5 -12h-667v0h-239h-32h-185q-81 0 -128 13q-53 14 -85 44q-89 74 -89 229q0 126 74 210q38 43 90 62q52 17 138 17h160h288h292h3v0h246q111 0 163 -55.5t49.5 -121t-56.5 -120t-153 -52.5
l-827 -1h-3v0q-59 3 -59 62q0 61 62 61h4h5l847 -1q54 6 51 55t-52 50h-271h-5h-4h-5h-4h-43v0h-240v0q157 0 133 0h-118h-202h-118h-125q-50 0 -78 -6q-26 -6 -51 -23q-58 -42 -58 -135q0 -81 35 -122q37 -43 132 -43h219v0z" />
    <glyph glyph-name="F" unicode="F" 
d="M990 452h-240v0q157 0 98.5 0h-193.5h-277.5h-152.5q-52 0 -75 -23q-14 -15 -16 -30q-4 -14 -4 -57v-67l898 2h3v0q59 -4 59 -62q0 -62 -62 -62q-174 0 -449 0.5t-449 0.5v-154h-130v366q0 101 52 156q27 30 69 42q42 11 121 11h508v0h240h31h424v0v0v0q62 0 62 -61
q0 -62 -62 -62v0v0v0h-455v0z" />
    <glyph glyph-name="G" unicode="G" horiz-adv-x="1581" 
d="M519 452v0h-219q-95 0 -132 -42q-35 -42 -35 -123q0 -93 58 -134q24 -17 51 -24q28 -6 78 -6h125h118h202h118t-133 0v0h240v0h43h4h5h4h5h271q49 1 52 50t-51 55h-587q-70 -2 -70 61q0 59 59 61v0h2l567 -1q99 1 153 -53t56.5 -120t-49.5 -121t-163 -55h-246v0h-3h-292
h-288h-160q-87 0 -138 18q-51 17 -90 62q-74 83 -74 209q0 154 89 230q35 31 85 43q47 13 128 13h185h32h239v0h667q29 0 54.5 -12.5t25.5 -49.5q0 -63 -71 -61h-202.5h-322h-229t77.5 0v0h-239z" />
    <glyph glyph-name="H" unicode="H" horiz-adv-x="1584" 
d="M0 59v6v510h130v-190h66h31h240v0h800q77 0 121 -11q40 -12 69 -42q52 -57 52 -156v-110v0v-0.5v-0.5q0 -65 -66 -65q-64 0 -64 65v0.5v0.5v0v86q0 37 -4 57q-5 17 -17 30q-24 24 -74 24h-1154v-204v0q-6 -59 -65 -59q-60 0 -65 59v0z" />
    <glyph glyph-name="I" unicode="I" horiz-adv-x="1579" 
d="M59 123h286h344v0h-27.5t27.5 0v328h-343h-284h-1v0v0v0h-2v0q-59 3 -59 62t59 61v0h139.5h209h209.5h141v0q-151 0 -77.5 0h229h322h202.5q70 1 70 -61q0 -37 -25 -49.5t-54 -12.5h-606v-328h365.5h249.5q70 1 70 -61q0 -38 -25 -50t-54 -12h-667v0h-140.5h-208.5h-208
h-139h-1v0v0v0h-2v0q-59 3 -59 61t59 62v0z" />
    <glyph glyph-name="J" unicode="J" horiz-adv-x="1587" 
d="M522 123h240v0q-158 0 -99.5 0h193.5h277.5h153.5q51 0 75 24q11 11 16 29q4 22 4 58v341h130v-366q0 -98 -52 -156q-30 -31 -69 -41q-42 -12 -121 -12h-508v0h-240h-31h-261q-116 0 -171 65t-54.5 143.5t55 144t157.5 67.5l234 2h2v0q59 -4 59 -62q0 -62 -61 -62
q-3 0 -5.5 0.5t-3.5 0.5l-206 1q-111 0 -108.5 -88.5t119.5 -88.5h275v0z" />
    <glyph glyph-name="K" unicode="K" horiz-adv-x="1584" 
d="M0 59v6v510h130v-227h66h31h240v0h360q40 1 66 25q12 12 17 30q3 15 3 57v49v0v0.5v0.5q0 65 65 65t65 -65v-0.5v-0.5v0v-73q0 -52 -13 -88h237q73 0 121 -12q40 -12 69 -42q52 -57 52 -156v-72v0v-0.5v-0.5q0 -65 -66 -65q-64 0 -64 65v0.5v0.5v0v48q0 37 -4 57
q-5 17 -17 30q-24 24 -74 24h-1154v-166v0q-6 -59 -65 -59q-60 0 -65 59v0z" />
    <glyph glyph-name="L" unicode="L" 
d="M1446 123v0v0q61 -2 61 -62q0 -61 -62 -61v0v0h-348h-347v0h-508q-81 0 -121 12q-42 10 -69 41q-52 56 -52 156v366h130v-341q0 -44 4 -58q2 -16 16 -29q24 -24 75 -24h152.5h277.5h193.5t-98.5 0v0h696z" />
    <glyph glyph-name="M" unicode="M" 
d="M1116 452h-148h-148v0h39.5t-39.5 0v-385v-1.5v-0.5q0 -65 -65 -65t-65 65v0v387q-48 0 -43.5 0h43.5v0h-161h-156h-65v0h-58h-25q-52 0 -75 -23q-14 -15 -16 -30q-4 -14 -4 -57v-67v-121v-88q1 -66 -65 -66q-65 0 -65 65v0.5v0.5v0v300q0 101 52 156q27 30 69 42
q42 11 121 11h66h442v0h7v0h442h66q77 0 120 -11q42 -12 69 -42q53 -57 53 -156v-300v0v-0.5v-0.5q0 -65 -66 -65q-65 0 -65 65v0.5v0.5v0v88v121v67q0 42 -3 57q-5 17 -17 30q-23 23 -74 23h-26.5h-57.5v0h-82z" />
    <glyph glyph-name="N" unicode="N" 
d="M1116 452h-986v-386q1 -66 -65 -66q-65 0 -65 65v0.5v0.5v0v300v209h242h66h442v0h7v0h442h66q77 0 120 -11q42 -12 69 -42q53 -57 53 -156v-300v0v-0.5v-0.5q0 -65 -66 -65q-65 0 -65 65v0.5v0.5v0v88v121v67q0 42 -3 57q-5 17 -17 30q-23 23 -74 23h-26.5h-57.5v0h-82z
" />
    <glyph glyph-name="O" unicode="O" 
d="M479 452h-179q-95 0 -132 -42q-35 -42 -35 -123q0 -93 58 -134q24 -17 51 -24q28 -6 78 -6h159h548h160q50 0 77 6q27 7 52 24q57 42 57 134q0 83 -35 123q-38 42 -132 42h-179v0h-548v0zM1027 0h-548h-177q-87 0 -138 18q-51 17 -90 62q-74 83 -74 209q0 154 89 230
q35 31 85 43q47 13 128 13h177v0h269v0h10v0h269v0h177q81 0 129 -13q47 -12 85 -43q89 -77 89 -230q0 -126 -74 -209q-42 -46 -91 -62q-51 -18 -138 -18h-177z" />
    <glyph glyph-name="P" unicode="P" horiz-adv-x="1583" 
d="M990 452h-240v0q157 0 98.5 0h-193.5h-277.5h-152.5q-52 0 -75 -23q-14 -15 -16 -30q-4 -14 -4 -57v-342h-130v366q0 101 52 156q27 30 69 42q42 11 121 11h508v0h240h31h261q115 0 170.5 -65.5t54.5 -143.5t-55.5 -144t-157.5 -67l-827 -2h-3v0q-59 3 -59 62q0 62 62 62
q6 0 9 -1h800q110 -1 107.5 87.5t-118.5 88.5h-275v0z" />
    <glyph glyph-name="Q" unicode="Q" 
d="M479 452h-179q-95 0 -132 -42q-35 -42 -35 -123q0 -93 58 -134q24 -17 51 -24q28 -6 78 -6h159h359h159q49 0 78 6q27 7 51 24q35 25 49 70h-361v0h-1.5h-0.5q-65 0 -65 65t65 65h0.5h1.5v0h363q-9 32 -28 57q-38 42 -133 42h-178v0h-359v0zM1449 353q58 -8 58 -65
q0 -60 -59 -65v0h-137q-14 -83 -68 -143q-40 -46 -91 -62q-50 -18 -137 -18h-177h-359h-177q-87 0 -138 18q-51 17 -90 62q-74 83 -74 209q0 154 89 230q35 31 85 43q47 13 128 13h177v0h269v0h10v0h80v0h177q80 0 128 -13q49 -12 85 -43q70 -62 85 -166h136z" />
    <glyph glyph-name="R" unicode="R" 
d="M1446 452h-696v0q157 0 98.5 0h-193.5h-277.5h-152.5q-52 0 -75 -23q-14 -15 -16 -30q-4 -14 -4 -57v-342h-130v366q0 101 52 156q27 30 69 42q42 11 121 11h508v0h347h348v0v0q62 0 62 -61t-61 -62v0v0z" />
    <glyph glyph-name="S" unicode="S" horiz-adv-x="1580" 
d="M1444 575v0v0h3v0q58 -4 58 -61q0 -62 -66 -62h-26.5h-32.5v0h58h0.5h0.5h-141.5h-170h-146.5h-70q-51 0 -74 -23q-13 -13 -17 -30q-3 -15 -3 -57v-134v0q0 -97 -52 -155q-30 -31 -69 -41q-42 -12 -121 -12h-447v0h-66v0v0h-1v0v0v0q-61 0 -61 62q0 61 62 61h1.5h3.5h27
h34v0h-60h-1v0h138h169.5h146.5h71q51 0 75 24q11 11 16 29q4 22 4 58v66v0v66q0 101 52 156q27 30 69 42q42 11 120 11h452v0h64v0v0z" />
    <glyph glyph-name="T" unicode="T" 
d="M990 123v0h455v0v0v0q62 0 62 -62q0 -61 -62 -61v0v0v0h-424h-31h-240v0h-508q-81 0 -121 12q-42 10 -69 41q-52 56 -52 156v366h130v-154q174 0 449 0.5t449 0.5q62 0 62 -62q0 -60 -59 -61v-1h-3l-898 2v-66q0 -44 4 -58q2 -16 16 -29q24 -24 75 -24h152.5h277.5h193.5
t-98.5 0v0h240z" />
    <glyph glyph-name="U" unicode="U" 
d="M390 123h986v386q0 66 65 66q66 0 66 -65v-0.5v-0.5v0v-300v-209h-242h-66h-442v0h-7v0h-442h-66q-81 0 -121 12q-42 10 -69 41q-52 56 -52 156v300v0v0.5v0.5q0 65 65 65t65 -65v-0.5v-0.5v0v-88v-121v-66q0 -44 4 -58q2 -16 16 -29q24 -24 75 -24h25h58v0h82z" />
    <glyph glyph-name="V" unicode="V" horiz-adv-x="1584" 
d="M1078 575h212h160v0q59 -4 59 -62t-59 -61v0h-2h-1v0v0v0h-152.5h-200.5q-5 -1 -17 -1q-17 -6 -29 -18q-14 -16 -31 -49l-202 -359l-1 1q-17 -23 -45 -26h-3.5h-3.5q-32 0 -51 26l-1 -1l-202 360q-23 38 -32 48q-13 14 -28 18q-12 0 -18 1h-208.5h-159.5h-1v0v0v0h-2v0
q-59 3 -59 62t59 61v0h167h220h31h1h1h3h4v0q40 -5 77.5 -42t61.5 -78l137 -254l138 254q23 41 60.5 78t78.5 41q4 1 39 1z" />
    <glyph glyph-name="W" unicode="W" 
d="M1116 123h82v0h57.5h26.5q50 0 74 24q12 10 17 29q3 16 3 58v66v121v88v0v0.5v0.5q0 65 65 65q66 0 66 -65v-0.5v-0.5v0v-300q0 -99 -53 -156q-28 -31 -69 -41q-41 -12 -120 -12h-66h-442v0h-7v0h-442h-66q-81 0 -121 12q-42 10 -69 41q-52 56 -52 156v300v0v0.5v0.5
q0 65 65 65q66 0 65 -66v-88v-121v-66q0 -44 4 -58q2 -16 16 -29q24 -24 75 -24h25h58v0h65h156h161v0h-43.5t43.5 0v388v0q0 64 65 64t65 -65v-1v-1v-385q43 0 39.5 0h-39.5v0h148h148z" />
    <glyph glyph-name="X" unicode="X" horiz-adv-x="1581" 
d="M953 574h272.5h221.5v0q59 -2 59 -61t-59 -62v0h-3v0v0v0v0h-214h-261q-6 -1 -17 -1q-17 -5 -29 -18q-10 -10 -32 -48l-54 -96l54 -96q23 -41 32 -49q10 -12 29 -18q5 1 17 -1h261h214v0v0v0v0h3v0q59 -4 59 -62t-59 -61v0h-221.5h-272.5q-8 0 -21 -0.5t-19 0.5
q-41 4 -78.5 41t-59.5 79l-18 33l-18 -33q-24 -42 -61.5 -79t-77.5 -41q-7 -1 -20 -0.5t-20 0.5q-86 0 -277 -0.5t-224 -0.5v0q-59 3 -59 61t59 62v0h2v0v0v0h1q31 0 216 0.5t266 0.5q12 2 18 1q17 6 28 18q8 8 32 49l54 96l-54 96q-23 38 -32 48q-12 13 -28 18q-12 0 -18 1
q-81 0 -266 -0.5t-216 -0.5h-1v0v0v0h-2v0q-59 3 -59 62t59 61v0q33 0 224 0.5t277 0.5h20h20q40 -5 77.5 -42t61.5 -78l18 -33l18 33q22 41 59.5 78t78.5 42h19h21z" />
    <glyph glyph-name="Y" unicode="Y" horiz-adv-x="1583" 
d="M1507 266v-266v0v209q0 -100 -52 -156q-28 -31 -69 -41q-41 -12 -121 -12h-534v0h-334.5h-333.5v0v0q-61 0 -61 61q0 60 60 62v0v0h669v0q-158 0 -95.5 0h202.5h286.5h157.5q51 0 75 24q20 24 20 63v-63v0v100h-66h-31h-266v0h-772q-79 0 -121 11q-42 12 -69 42
q-52 56 -52 156v53v0v0.5v0.5q0 65 65 65t65 -65v-0.5v-0.5v0v-29q0 -43 4 -57q2 -16 16 -30q23 -23 75 -23h1152v205h65h66v-309h-1z" />
    <glyph glyph-name="Z" unicode="Z" horiz-adv-x="1580" 
d="M62 575v0v0h64v0h451q78 0 121 -11q42 -12 69 -42q52 -55 52 -156v-66v0v-66q0 -44 4 -58q3 -18 16 -29q24 -24 75 -24h69h146.5h170h139.5h-0.5h-0.5h-61v0h34.5h27.5h2h3q61 0 61 -61q0 -62 -60 -62v0h-1v0v0v0v0h-67v0h-446q-81 0 -121 12q-42 10 -69 41
q-52 56 -52 155v0v134q0 43 -4 57q-3 15 -16 30q-23 23 -74 23h-71h-146.5h-170h-140.5v0h1h58v0h-33h-26q-67 0 -67 62q0 57 58 61v0h3v0h1z" />
    <glyph glyph-name="a" unicode="a" horiz-adv-x="1583" 
d="M519 452v0h-219q-95 0 -132 -42q-35 -42 -35 -123q0 -93 58 -134q24 -17 51 -24q28 -6 78 -6h713h4h5q62 0 62 -61q0 -59 -59 -62v0h-3h-740q-87 0 -138 18q-51 17 -90 62q-74 83 -74 209q0 154 89 230q35 31 85 43q47 13 128 13h185h32h239v0h509q77 0 120 -11
q42 -12 69 -42q52 -55 52 -156v-366h-130v342q0 43 -4 57q-4 17 -16 30q-23 23 -74 23h-153.5h-277.5h-194t99 0v0h-239z" />
    <glyph glyph-name="b" unicode="b" horiz-adv-x="1583" 
d="M990 123v0h275q116 0 118.5 88.5t-107.5 88.5l-800 -1q-3 0 -5 -0.5t-4 -0.5q-62 0 -62 62q0 58 59 62v0h3l827 -2q103 -2 157.5 -67.5t55.5 -144t-54.5 -143.5t-170.5 -65h-261h-31h-240v0h-508q-81 0 -121 12q-42 10 -69 41q-52 56 -52 156v366h130v-341q0 -44 4 -58
q2 -16 16 -29q24 -24 75 -24h152.5h277.5h193.5t-98.5 0v0h240z" />
    <glyph glyph-name="c" unicode="c" horiz-adv-x="1580" 
d="M519 123h239v0q-151 0 -77.5 0h229h322h202.5q71 1 71 -61q0 -38 -25.5 -50t-54.5 -12h-667v0h-239h-31h-186q-81 0 -128 13q-53 14 -85 44q-89 74 -89 229q0 126 74 210q38 43 90 62q52 17 138 17h740h3v0q59 -2 59 -62q0 -61 -62 -61h-5h-4h-713q-50 0 -78 -6
q-26 -6 -51 -23q-58 -42 -58 -135q0 -81 35 -122q37 -43 132 -43h219v0z" />
    <glyph glyph-name="d" unicode="d" horiz-adv-x="1587" 
d="M522 123h240v0q-158 0 -99.5 0h193.5h277.5h153.5q51 0 75 24q11 11 16 29q4 22 4 58v341h130v-366q0 -98 -52 -156q-30 -31 -69 -41q-42 -12 -121 -12h-508v0h-240h-31h-261q-116 0 -171 65t-54.5 143.5t55 144t157.5 67.5l828 2h3v0q59 -4 59 -62q0 -62 -62 -62
q-3 0 -5 0.5t-4 0.5l-800 1q-111 0 -108.5 -88.5t119.5 -88.5h275v0z" />
    <glyph glyph-name="e" unicode="e" horiz-adv-x="1581" 
d="M519 123h239v0q-151 0 -77.5 0h229h322h202.5q71 1 71 -61q0 -38 -25.5 -50t-54.5 -12h-667v0h-239h-32h-185q-81 0 -128 13q-53 14 -85 44q-89 74 -89 229q0 126 74 210q38 43 90 62q52 17 138 17h160h288h292h3v0h246q111 0 163 -55.5t49.5 -121t-56.5 -120t-153 -52.5
l-827 -1h-3v0q-59 3 -59 62q0 61 62 61h4h5l847 -1q54 6 51 55t-52 50h-271h-5h-4h-5h-4h-43v0h-240v0q157 0 133 0h-118h-202h-118h-125q-50 0 -78 -6q-26 -6 -51 -23q-58 -42 -58 -135q0 -81 35 -122q37 -43 132 -43h219v0z" />
    <glyph glyph-name="f" unicode="f" 
d="M990 452h-240v0q157 0 98.5 0h-193.5h-277.5h-152.5q-52 0 -75 -23q-14 -15 -16 -30q-4 -14 -4 -57v-67l898 2h3v0q59 -4 59 -62q0 -62 -62 -62q-174 0 -449 0.5t-449 0.5v-154h-130v366q0 101 52 156q27 30 69 42q42 11 121 11h508v0h240h31h424v0v0v0q62 0 62 -61
q0 -62 -62 -62v0v0v0h-455v0z" />
    <glyph glyph-name="g" unicode="g" horiz-adv-x="1581" 
d="M519 452v0h-219q-95 0 -132 -42q-35 -42 -35 -123q0 -93 58 -134q24 -17 51 -24q28 -6 78 -6h125h118h202h118t-133 0v0h240v0h43h4h5h4h5h271q49 1 52 50t-51 55h-587q-70 -2 -70 61q0 59 59 61v0h2l567 -1q99 1 153 -53t56.5 -120t-49.5 -121t-163 -55h-246v0h-3h-292
h-288h-160q-87 0 -138 18q-51 17 -90 62q-74 83 -74 209q0 154 89 230q35 31 85 43q47 13 128 13h185h32h239v0h667q29 0 54.5 -12.5t25.5 -49.5q0 -63 -71 -61h-202.5h-322h-229t77.5 0v0h-239z" />
    <glyph glyph-name="h" unicode="h" horiz-adv-x="1584" 
d="M0 59v6v510h130v-190h66h31h240v0h800q77 0 121 -11q40 -12 69 -42q52 -57 52 -156v-110v0v-0.5v-0.5q0 -65 -66 -65q-64 0 -64 65v0.5v0.5v0v86q0 37 -4 57q-5 17 -17 30q-24 24 -74 24h-1154v-204v0q-6 -59 -65 -59q-60 0 -65 59v0z" />
    <glyph glyph-name="i" unicode="i" horiz-adv-x="1579" 
d="M59 123h286h344v0h-27.5t27.5 0v328h-343h-284h-1v0v0v0h-2v0q-59 3 -59 62t59 61v0h139.5h209h209.5h141v0q-151 0 -77.5 0h229h322h202.5q70 1 70 -61q0 -37 -25 -49.5t-54 -12.5h-606v-328h365.5h249.5q70 1 70 -61q0 -38 -25 -50t-54 -12h-667v0h-140.5h-208.5h-208
h-139h-1v0v0v0h-2v0q-59 3 -59 61t59 62v0z" />
    <glyph glyph-name="j" unicode="j" horiz-adv-x="1587" 
d="M522 123h240v0q-158 0 -99.5 0h193.5h277.5h153.5q51 0 75 24q11 11 16 29q4 22 4 58v341h130v-366q0 -98 -52 -156q-30 -31 -69 -41q-42 -12 -121 -12h-508v0h-240h-31h-261q-116 0 -171 65t-54.5 143.5t55 144t157.5 67.5l234 2h2v0q59 -4 59 -62q0 -62 -61 -62
q-3 0 -5.5 0.5t-3.5 0.5l-206 1q-111 0 -108.5 -88.5t119.5 -88.5h275v0z" />
    <glyph glyph-name="k" unicode="k" horiz-adv-x="1584" 
d="M0 59v6v510h130v-227h66h31h240v0h360q40 1 66 25q12 12 17 30q3 15 3 57v49v0v0.5v0.5q0 65 65 65t65 -65v-0.5v-0.5v0v-73q0 -52 -13 -88h237q73 0 121 -12q40 -12 69 -42q52 -57 52 -156v-72v0v-0.5v-0.5q0 -65 -66 -65q-64 0 -64 65v0.5v0.5v0v48q0 37 -4 57
q-5 17 -17 30q-24 24 -74 24h-1154v-166v0q-6 -59 -65 -59q-60 0 -65 59v0z" />
    <glyph glyph-name="l" unicode="l" 
d="M1446 123v0v0q61 -2 61 -62q0 -61 -62 -61v0v0h-348h-347v0h-508q-81 0 -121 12q-42 10 -69 41q-52 56 -52 156v366h130v-341q0 -44 4 -58q2 -16 16 -29q24 -24 75 -24h152.5h277.5h193.5t-98.5 0v0h696z" />
    <glyph glyph-name="m" unicode="m" 
d="M1116 452h-148h-148v0h39.5t-39.5 0v-385v-1.5v-0.5q0 -65 -65 -65t-65 65v0v387q-48 0 -43.5 0h43.5v0h-161h-156h-65v0h-58h-25q-52 0 -75 -23q-14 -15 -16 -30q-4 -14 -4 -57v-67v-121v-88q1 -66 -65 -66q-65 0 -65 65v0.5v0.5v0v300q0 101 52 156q27 30 69 42
q42 11 121 11h66h442v0h7v0h442h66q77 0 120 -11q42 -12 69 -42q53 -57 53 -156v-300v0v-0.5v-0.5q0 -65 -66 -65q-65 0 -65 65v0.5v0.5v0v88v121v67q0 42 -3 57q-5 17 -17 30q-23 23 -74 23h-26.5h-57.5v0h-82z" />
    <glyph glyph-name="n" unicode="n" 
d="M1116 452h-986v-386q1 -66 -65 -66q-65 0 -65 65v0.5v0.5v0v300v209h242h66h442v0h7v0h442h66q77 0 120 -11q42 -12 69 -42q53 -57 53 -156v-300v0v-0.5v-0.5q0 -65 -66 -65q-65 0 -65 65v0.5v0.5v0v88v121v67q0 42 -3 57q-5 17 -17 30q-23 23 -74 23h-26.5h-57.5v0h-82z
" />
    <glyph glyph-name="o" unicode="o" 
d="M479 452h-179q-95 0 -132 -42q-35 -42 -35 -123q0 -93 58 -134q24 -17 51 -24q28 -6 78 -6h159h548h160q50 0 77 6q27 7 52 24q57 42 57 134q0 83 -35 123q-38 42 -132 42h-179v0h-548v0zM1027 0h-548h-177q-87 0 -138 18q-51 17 -90 62q-74 83 -74 209q0 154 89 230
q35 31 85 43q47 13 128 13h177v0h269v0h10v0h269v0h177q81 0 129 -13q47 -12 85 -43q89 -77 89 -230q0 -126 -74 -209q-42 -46 -91 -62q-51 -18 -138 -18h-177z" />
    <glyph glyph-name="p" unicode="p" horiz-adv-x="1583" 
d="M990 452h-240v0q157 0 98.5 0h-193.5h-277.5h-152.5q-52 0 -75 -23q-14 -15 -16 -30q-4 -14 -4 -57v-342h-130v366q0 101 52 156q27 30 69 42q42 11 121 11h508v0h240h31h261q115 0 170.5 -65.5t54.5 -143.5t-55.5 -144t-157.5 -67l-827 -2h-3v0q-59 3 -59 62q0 62 62 62
q6 0 9 -1h800q110 -1 107.5 87.5t-118.5 88.5h-275v0z" />
    <glyph glyph-name="q" unicode="q" 
d="M479 452h-179q-95 0 -132 -42q-35 -42 -35 -123q0 -93 58 -134q24 -17 51 -24q28 -6 78 -6h159h359h159q49 0 78 6q27 7 51 24q35 25 49 70h-361v0h-1.5h-0.5q-65 0 -65 65t65 65h0.5h1.5v0h363q-9 32 -28 57q-38 42 -133 42h-178v0h-359v0zM1449 353q58 -8 58 -65
q0 -60 -59 -65v0h-137q-14 -83 -68 -143q-40 -46 -91 -62q-50 -18 -137 -18h-177h-359h-177q-87 0 -138 18q-51 17 -90 62q-74 83 -74 209q0 154 89 230q35 31 85 43q47 13 128 13h177v0h269v0h10v0h80v0h177q80 0 128 -13q49 -12 85 -43q70 -62 85 -166h136z" />
    <glyph glyph-name="r" unicode="r" 
d="M1446 452h-696v0q157 0 98.5 0h-193.5h-277.5h-152.5q-52 0 -75 -23q-14 -15 -16 -30q-4 -14 -4 -57v-342h-130v366q0 101 52 156q27 30 69 42q42 11 121 11h508v0h347h348v0v0q62 0 62 -61t-61 -62v0v0z" />
    <glyph glyph-name="s" unicode="s" horiz-adv-x="1580" 
d="M1444 575v0v0h3v0q58 -4 58 -61q0 -62 -66 -62h-26.5h-32.5v0h58h0.5h0.5h-141.5h-170h-146.5h-70q-51 0 -74 -23q-13 -13 -17 -30q-3 -15 -3 -57v-134v0q0 -97 -52 -155q-30 -31 -69 -41q-42 -12 -121 -12h-447v0h-66v0v0h-1v0v0v0q-61 0 -61 62q0 61 62 61h1.5h3.5h27
h34v0h-60h-1v0h138h169.5h146.5h71q51 0 75 24q11 11 16 29q4 22 4 58v66v0v66q0 101 52 156q27 30 69 42q42 11 120 11h452v0h64v0v0z" />
    <glyph glyph-name="t" unicode="t" 
d="M990 123v0h455v0v0v0q62 0 62 -62q0 -61 -62 -61v0v0v0h-424h-31h-240v0h-508q-81 0 -121 12q-42 10 -69 41q-52 56 -52 156v366h130v-154q174 0 449 0.5t449 0.5q62 0 62 -62q0 -60 -59 -61v-1h-3l-898 2v-66q0 -44 4 -58q2 -16 16 -29q24 -24 75 -24h152.5h277.5h193.5
t-98.5 0v0h240z" />
    <glyph glyph-name="u" unicode="u" 
d="M390 123h986v386q0 66 65 66q66 0 66 -65v-0.5v-0.5v0v-300v-209h-242h-66h-442v0h-7v0h-442h-66q-81 0 -121 12q-42 10 -69 41q-52 56 -52 156v300v0v0.5v0.5q0 65 65 65t65 -65v-0.5v-0.5v0v-88v-121v-66q0 -44 4 -58q2 -16 16 -29q24 -24 75 -24h25h58v0h82z" />
    <glyph glyph-name="v" unicode="v" horiz-adv-x="1584" 
d="M1078 575h212h160v0q59 -4 59 -62t-59 -61v0h-2h-1v0v0v0h-152.5h-200.5q-5 -1 -17 -1q-17 -6 -29 -18q-14 -16 -31 -49l-202 -359l-1 1q-17 -23 -45 -26h-3.5h-3.5q-32 0 -51 26l-1 -1l-202 360q-23 38 -32 48q-13 14 -28 18q-12 0 -18 1h-208.5h-159.5h-1v0v0v0h-2v0
q-59 3 -59 62t59 61v0h167h220h31h1h1h3h4v0q40 -5 77.5 -42t61.5 -78l137 -254l138 254q23 41 60.5 78t78.5 41q4 1 39 1z" />
    <glyph glyph-name="w" unicode="w" 
d="M1116 123h82v0h57.5h26.5q50 0 74 24q12 10 17 29q3 16 3 58v66v121v88v0v0.5v0.5q0 65 65 65q66 0 66 -65v-0.5v-0.5v0v-300q0 -99 -53 -156q-28 -31 -69 -41q-41 -12 -120 -12h-66h-442v0h-7v0h-442h-66q-81 0 -121 12q-42 10 -69 41q-52 56 -52 156v300v0v0.5v0.5
q0 65 65 65q66 0 65 -66v-88v-121v-66q0 -44 4 -58q2 -16 16 -29q24 -24 75 -24h25h58v0h65h156h161v0h-43.5t43.5 0v388v0q0 64 65 64t65 -65v-1v-1v-385q43 0 39.5 0h-39.5v0h148h148z" />
    <glyph glyph-name="x" unicode="x" horiz-adv-x="1581" 
d="M953 574h272.5h221.5v0q59 -2 59 -61t-59 -62v0h-3v0v0v0v0h-214h-261q-6 -1 -17 -1q-17 -5 -29 -18q-10 -10 -32 -48l-54 -96l54 -96q23 -41 32 -49q10 -12 29 -18q5 1 17 -1h261h214v0v0v0v0h3v0q59 -4 59 -62t-59 -61v0h-221.5h-272.5q-8 0 -21 -0.5t-19 0.5
q-41 4 -78.5 41t-59.5 79l-18 33l-18 -33q-24 -42 -61.5 -79t-77.5 -41q-7 -1 -20 -0.5t-20 0.5q-86 0 -277 -0.5t-224 -0.5v0q-59 3 -59 61t59 62v0h2v0v0v0h1q31 0 216 0.5t266 0.5q12 2 18 1q17 6 28 18q8 8 32 49l54 96l-54 96q-23 38 -32 48q-12 13 -28 18q-12 0 -18 1
q-81 0 -266 -0.5t-216 -0.5h-1v0v0v0h-2v0q-59 3 -59 62t59 61v0q33 0 224 0.5t277 0.5h20h20q40 -5 77.5 -42t61.5 -78l18 -33l18 33q22 41 59.5 78t78.5 42h19h21z" />
    <glyph glyph-name="y" unicode="y" horiz-adv-x="1583" 
d="M1507 266v-266v0v209q0 -100 -52 -156q-28 -31 -69 -41q-41 -12 -121 -12h-534v0h-334.5h-333.5v0v0q-61 0 -61 61q0 60 60 62v0v0h669v0q-158 0 -95.5 0h202.5h286.5h157.5q51 0 75 24q20 24 20 63v-63v0v100h-66h-31h-266v0h-772q-79 0 -121 11q-42 12 -69 42
q-52 56 -52 156v53v0v0.5v0.5q0 65 65 65t65 -65v-0.5v-0.5v0v-29q0 -43 4 -57q2 -16 16 -30q23 -23 75 -23h1152v205h65h66v-309h-1z" />
    <glyph glyph-name="z" unicode="z" horiz-adv-x="1580" 
d="M62 575v0v0h64v0h451q78 0 121 -11q42 -12 69 -42q52 -55 52 -156v-66v0v-66q0 -44 4 -58q3 -18 16 -29q24 -24 75 -24h69h146.5h170h139.5h-0.5h-0.5h-61v0h34.5h27.5h2h3q61 0 61 -61q0 -62 -60 -62v0h-1v0v0v0v0h-67v0h-446q-81 0 -121 12q-42 10 -69 41
q-52 56 -52 155v0v134q0 43 -4 57q-3 15 -16 30q-23 23 -74 23h-71h-146.5h-170h-140.5v0h1h58v0h-33h-26q-67 0 -67 62q0 57 58 61v0h3v0h1z" />
  </font>
</defs>
</svg>
