<?xml version="1.0" standalone="no"?>
<!DOCTYPE svg PUBLIC "-//W3C//DTD SVG 1.1//EN" "http://www.w3.org/Graphics/SVG/1.1/DTD/svg11.dtd" >
<svg xmlns="http://www.w3.org/2000/svg" xmlns:xlink="http://www.w3.org/1999/xlink" version="1.1">
<metadata>
Created by FontForge 20170731 at Fri Jan  6 02:07:24 2012
 By Aleksey,,,
Copyright (c) 2012 by Mans Greba:ck. All rights reserved.
</metadata>
<defs>
<font id="DelinquenteDemo" horiz-adv-x="568" >
  <font-face 
    font-family="Delinquente Demo"
    font-weight="400"
    font-stretch="normal"
    units-per-em="1000"
    panose-1="2 0 0 0 0 0 0 0 0 0"
    ascent="750"
    descent="-250"
    x-height="494"
    cap-height="825"
    bbox="-4289.51 -655.439 1216 1247"
    underline-thickness="50"
    underline-position="-150"
    unicode-range="U+0020-FB02"
  />
<missing-glyph horiz-adv-x="500" 
 />
    <glyph glyph-name=".notdef" horiz-adv-x="500" 
 />
    <glyph glyph-name=".null" horiz-adv-x="0" 
 />
    <glyph glyph-name="nonmarkingreturn" horiz-adv-x="500" 
 />
    <glyph glyph-name="space" unicode=" " horiz-adv-x="500" 
 />
    <glyph glyph-name="space" unicode="&#xa0;" horiz-adv-x="500" 
 />
    <glyph glyph-name="exclam" unicode="!" horiz-adv-x="240" 
d="M57 220l19 315q-5 12 -12 22.5t-16 15.5q8 0 16 9.5t16 22.5l18 300q19 -5 41 -5q19 0 42.5 3.5t47.5 15.5q-12 -11 -23.5 -41.5t-22 -75t-20 -99t-17.5 -111.5q5 -18 13.5 -32t20.5 -14q-16 -3 -26.5 -12.5t-18.5 -20.5q-8 -60 -14 -115.5t-11 -97.5q-5 -50 -9 -93z
M66 14q16 0 25.5 -6t14.5 -15.5t6 -21.5t0 -25q-2 -26 -18.5 -44t-41.5 -18q-24 0 -34.5 20t-6.5 47q3 28 19.5 45.5t35.5 17.5zM97 647q-2 0 -2 -9q2 10 2 9zM184 547q-1 0 -2 -0.5t-2 -0.5q1 0 2 0.5t2 0.5z" />
    <glyph glyph-name="quotedbl" unicode="&#x22;" horiz-adv-x="332" 
d="M70 654q16 0 25.5 -6t14.5 -15.5t6 -21.5t0 -25q-1 -5 -1.5 -9t-2.5 -9q-5 -22 -13.5 -46t-17 -44t-15.5 -33l-7 -13q-2 2 -8.5 6t-6.5 5l1.5 9t3.5 21.5t4.5 26t4.5 24.5h-2q-24 0 -34.5 20t-6.5 47q3 28 19.5 45.5t35.5 17.5zM200 654q16 0 25.5 -6t14.5 -15.5t6 -21.5
t0 -25q-1 -5 -1.5 -9t-2.5 -9q-5 -22 -13.5 -46t-17 -44t-15.5 -33l-7 -13q-2 2 -8.5 6t-6.5 5l1.5 9t3.5 21.5t4.5 26t4.5 24.5h-2q-24 0 -34.5 20t-6.5 47q3 28 19.5 45.5t35.5 17.5z" />
    <glyph glyph-name="numbersign" unicode="#" horiz-adv-x="1083" 
d="M878 549l-18 -15l13 -20l-21 -13l13 -21l-21 -12l9 -21l-23 -10l8 -24l-22 -7l4 -22l-24 -5l2 -25l-23 -2v-23h-20l-3 -21l-22 2l-5 -22l-24 4l-7 -23l-22 7l-8 -23l-24 10l-11 -22l-21 11l-13 -20l-21 13l-14 -18l-18 15l-17 -16l-15 14l-16 -14l-14 18l-20 -13l-14 21
l-21 -12l-11 20l-22 -9l-10 23l-23 -7l-7 22l-23 -5l-5 24l-24 -2l-3 23h-23v21l-20 2l2 23l-23 4l5 24l-24 7l7 22l-22 9l9 23l-22 12l11 20l-19 13l14 21l-19 15l14 18l-16 17l15 14l-14 16l18 15l-13 19l20 14l-11 21l19 11l-8 22l22 10l-7 23l23 7l-5 23l24 5l-3 25
l23 2v23h21l2 21l23 -3l4 23l25 -4l6 23l22 -6l9 21l23 -9l12 22l21 -11l12 20l21 -14l15 19l19 -15l16 16l15 -14l15 13l15 -17l20 13l13 -21l22 12l11 -20l21 9l10 -23l24 7l7 -22l22 5l5 -24l25 2l2 -23h23v-21l21 -2l-2 -23l22 -4l-4 -24l24 -7l-7 -22l22 -9l-10 -23
l23 -12l-12 -20l20 -13l-13 -21l18 -15l-15 -18l16 -16l-13 -15zM128 137q0 2 1 4.5t1 4.5q1 7 8 14q2 3 5.5 5.5t7.5 4.5q5 2 9.5 3t9.5 1h3q3 0 9 -2q3 0 5 -1l4 -2q7 -4 12 -11q2 -3 4 -7q1 -2 1 -6h-19q0 3 -2 5q-1 3 -6 6t-10 3q-3 0 -5 -1h-4q-2 -2 -8 -6
q-2 -2 -3.5 -4t-2.5 -5q-2 -5 -2 -16q0 -9 3 -16q1 -7 7 -9q3 -2 5.5 -3t5.5 -2h3q7 0 10 3q4 0 7 5q2 3 3.5 5.5t1.5 5.5h-21v16h37v-48h-12l-2 11q-3 -5 -8 -8q-3 -2 -5.5 -2.5t-4.5 -2.5q-3 0 -5.5 -0.5t-5.5 -0.5q-9 0 -14 4q-8 3 -12 9q-6 6 -9 15t-3 19q0 6 1 9z
M345 3h16v-10q6 12 19 12q7 0 10 -3q5 -2 8 -8q2 5 7 8q4 3 10 3q8 0 13 -4q4 -3 7 -8q2 -2 2 -10v-45h-16v39q0 13 -10 13q-11 0 -11 -13v-39h-18v39v6q0 3 -3 6q-2 1 -7 1q-11 0 -11 -12v-40h-16v65zM932 3h16v-10q7 12 19 12q8 0 11 -3q4 -2 7 -8q2 4 8 8q3 3 10 3
q8 0 12 -4q6 -3 7 -8q3 -3 3 -10v-45h-17v39q0 13 -10 13q-11 0 -11 -13v-39h-17v39q0 5 -1 6q0 3 -3 6q-2 1 -6 1q-11 0 -11 -12v-40h-17v65zM856 -17q1 4 2.5 6.5t3.5 5.5q6 6 11 7q4 3 14 3q8 0 14 -3q4 -1 11 -6q2 -2 3 -5t3 -6q2 -4 2 -15q0 -10 -4 -17q-3 -7 -11 -12
q-7 -4 -18 -4q-13 0 -19 5q-7 5 -11 12q-3 7 -3 16t2 13zM615 129q1 6 6 11q6 6 11 8q4 2 14 2t15 -2q2 -2 4.5 -3t4.5 -3q5 -6 7 -12t2 -14q0 -10 -4 -17q-3 -7 -11 -12t-18 -5q-11 0 -19 5q-6 5 -11 13q-3 7 -3 16q0 5 2 13zM125 1v2h17l11 -47l9 47h17l10 -47l10 47h18
l-18 -62l-1 -3h-17l-11 47l-10 -47h-18zM514 1v2h18l10 -47l9 47h17l10 -47l11 47h17l-18 -62v-3h-18l-10 47l-10 -47h-18zM30 1v2h18l10 -47l9 47h18l9 -47l11 47h17l-18 -62v-3h-18l-10 47l-10 -47h-18zM219 1v2h18l10 -47l9 47h18l9 -47l10 47h18l-18 -62l-1 -3h-17
l-10 47l-11 -47h-17zM840 116q6 4 14 6l15 2q6 1 6 5q0 8 -10 8q-4 0 -8 -2q-3 -1 -4 -8h-16q1 9 4 14q2 4 9 7q4 2 7 2h8q13 0 18 -2l4 -4t3 -4q2 -6 2 -8v-35v-7q0 -3 4 -3v-3h-19q-1 0 -1 1v1v1q0 2 -0.5 3t-0.5 2q-2 -3 -5 -5q-2 -1 -3.5 -2t-2.5 -1l-4.5 -1.5
t-4.5 -0.5t-9 2q-2 2 -4 3t-4 3q-3 4 -3 12q0 10 5 14zM454 -30q4 4 13 6l16 2q5 2 5 5q0 8 -10 8q-2 0 -4 -0.5t-4 -0.5l-2 -4t-1 -4h-16q0 7 3 13q6 6 10 7l6 2q2 0 4 0.5t4 0.5q13 0 18 -4q5 -3 8 -7q1 -3 1 -8v-35q0 -5 1 -7q0 -3 3 -3v-3h-18q0 1 -1 2v1q-1 2 -1 5
q-4 -4 -6 -5l-3 -1.5l-3 -1.5t-8 -1q-7 0 -9 1q-5 1 -8 7q-4 3 -4 10q0 10 6 15zM222 134q3 8 10 12q4 3 8.5 3.5t9.5 0.5q13 0 17 -4q6 -4 10 -13q2 -5 2.5 -9t0.5 -9v-4h-45q0 -6 5 -11q3 -4 11 -4q3 0 7 2q4 4 4 5h18q-2 -5 -6 -11q-3 -2 -5.5 -4t-4.5 -3q-4 -1 -6.5 -2
t-6.5 -1q-32 0 -32 36q0 5 0.5 8.5t2.5 7.5zM553 591q5 0 9 1t7 2q7 4 12 11q4 5 4 14q0 7 -2 9q-1 6 -6 9q-4 6 -11 7q-4 3 -14 3q-5 0 -15 -4q-6 -3 -12 -10q-4 -7 -4 -14t2 -10q3 -6 7 -10t11 -6q6 -2 12 -2zM560 510q4 5 4 14q0 6 -2 10t-6 9q-5 5 -11 6q-6 3 -13 3
q-11 0 -16 -4q-5 -2 -7.5 -4.5t-4.5 -5.5q-4 -7 -4 -14q0 -8 2 -11q4 -6 7 -9q2 -2 5 -3t6 -3q8 -2 12 -2q11 0 16 4q6 3 12 10zM702 -41q0 -9 15 -9q5 0 8 1q2 4 2 5q0 4 -7 5l-15 4q-3 1 -6.5 2.5t-5.5 3.5q-6 4 -6 12q0 6 3 11q2 4 9 8q4 3 14 3q6 0 10.5 -1t8.5 -3
q6 -3 8 -8q1 -2 1 -2.5t1 -2.5v-5h-17q0 5 -3 7q-1 1 -8 1q-10 0 -10 -6q0 -3 6 -4l15 -4q6 -1 14 -6q5 -3 5 -12q0 -6 -3 -12q-4 -5 -10 -8q-4 -2 -15 -2h-6q-4 0 -6 1q-6 2 -10 4q-6 4 -7 7q-2 6 -2 10h17zM614 3h17v-10q7 12 20 12q6 0 12 -3q5 -2 7 -7q3 -6 3 -12v-45
h-17v39q0 8 -2 10q-1 3 -9 3q-7 0 -10 -4q-3 -5 -3 -11v-37h-18v65zM691 149h16v-9q7 10 20 10q9 0 12 -2q2 -2 4 -3.5t4 -3.5q3 -6 3 -12v-45h-17v39q0 4 -2 10q-3 3 -10 3t-10 -4q-2 -3 -2 -11v-37h-18v65zM464 84h-16v9q-3 -5 -8 -7q-8 -4 -12 -4q-10 0 -16 7q-6 6 -6 17
v43h17v-40q0 -12 11 -12q4 0 6 1t6 5q0 2 1 4t1 4v38h16v-65zM793 -6q8 11 23 11q9 0 15 -3q7 -2 10 -9q5 -5 5 -13h-18q0 3 -2 7q-2 3 -8 3q-8 0 -10 -5q-4 -4 -4 -13t1 -12q1 -5 4 -7q2 -2 8 -2q5 0 8 2q3 3 3 9h18q0 -5 -4 -13q-3 -5 -10 -9q-6 -3 -16 -3q-13 0 -21 7
q-4 4 -7 10q-1 4 -1 15q0 14 6 25zM378 592h35v2h-2q-6 0 -8 2q-2 1 -2 3v4v15h12l19 -26h20v2h-2q-5 0 -7 1l-3 3q-1 2 -2 3t-2 3l-2 2q0 1 -2 3v2q-3 1 -6 1q-4 2 -5 3l-6 3h9q2 1 4 1t4 1q3 0 7 2q6 4 6 11q0 2 -1 3q-2 4 -3 5q-3 3 -8 3q-6 2 -13 2h-42v-2h2q5 0 7 -2
q3 -2 3 -8v-31q0 -2 -0.5 -4t-2.5 -3q-2 -2 -7 -2h-2v-2zM368 137h-9v12h9v5q0 18 19 18h9v-13h-5q-3 0 -4 -1q-2 0 -2 -2v-7h11v-12h-11v-53h-17v53zM579 137h-9v12h9v5q0 18 19 18h8v-13h-4q-4 0 -4 -1q-1 0 -2 -2v-7h12v-12h-12v-53h-17v53zM908 137h-8v12h8v17h18v-17
h11v-12h-11v-35q0 -2 0.5 -3t0.5 -2q1 0 2 -0.5t3 -0.5l3 1h2v-13h-11q-8 0 -11 2q-4 0 -5 4q0 2 -1 3.5t-1 3.5v40zM294 137h-9v12h9v17h17v-17h10v-12h-10v-35q0 -4 1 -5q1 0 2.5 -0.5t3.5 -0.5l2 1h1v-13h-10q-8 0 -11 2q-4 0 -5 4q-1 2 -1 7v40zM280 592v2h-3
q-10 0 -10 9v14h14h11q6 2 7 3q5 2 5 5q2 2 2 6t-3 9q-4 4 -10 4q-1 1 -4 1h-6q-3 1 -7 1h-32v-2h2q10 0 10 -10v-31q0 -9 -10 -9h-2v-2h36zM768 137h-10v12h10v17h16v-17h11v-12h-11v-35q0 -2 0.5 -3t0.5 -2q2 0 3 -0.5t3 -0.5l2 1h2v-13h-11q-8 0 -10 2q-5 0 -6 4v7v40z
M546 543l2 -4t2 -5q0 -2 0.5 -4.5t0.5 -5.5q0 -6 -2 -14q-3 -6 -7 -10q-3 -2 -10 -2q-6 0 -7 2q-4 0 -7 5q-1 2 -3 8t-2 11q0 2 0.5 4.5t0.5 4.5q1 2 1.5 3.5t1.5 3.5q3 5 4 6q0 1 5 3q4 2 7 2q1 0 1.5 -0.5t2.5 -0.5l4 -2zM567 638l2 -4t2 -5q0 -2 0.5 -4.5t0.5 -5.5
q0 -8 -3 -14q-2 -6 -6 -9q-5 -3 -10 -3t-8 1q-2 2 -3 2.5t-2 2.5q-2 3 -4 9q-1 3 -1.5 5.5t-0.5 5.5q0 2 0.5 4.5t0.5 4.5q1 2 1.5 3.5t1.5 3.5q2 4 4 6q3 3 5 3q2 1 7 1h4q1 -1 1.5 -1t1.5 -1q4 -1 6 -5zM480 172h17v-88h-17v88zM510 172h16v-88h-16v88zM320 642q3 -2 3 -8
v-31q0 -9 -10 -9h-1v-2h58v22h-1q-1 -2 -1 -3.5t-2 -3.5q-2 -5 -5 -8t-5 -3l-6 -2h-16v24h2q7 0 10 -5l3 -3q0 -1 0.5 -1.5t0.5 -2.5q0 -4 1 -5h1v35h-1q-1 -2 -1 -5q0 -5 -3 -6q-3 -6 -10 -6h-3v25h11q8 0 11 -2q4 0 5 -4q2 -1 4 -5q1 -2 1 -4t2 -4h1v21h-57v-2h1q6 0 7 -2
zM464 519q-2 -2 -2 -3.5t-1 -3.5q-4 -6 -6 -8q-3 -3 -5 -3l-5 -2q-3 -1 -7 -1h-9v24h1q7 0 11 -4q1 -1 1 -1.5t1 -1.5q0 -1 0.5 -1.5t0.5 -2.5q1 -2 1 -5h1v35h-1v-5l-1.5 -3l-1.5 -3q-5 -6 -10 -6h-3v25h10q9 0 12 -1q2 -2 2.5 -2t2.5 -2l3 -6q2 -4 3 -8h2v21h-58v-2h2
q5 0 6 -2q3 -2 3 -7v-32q0 -10 -9 -10h-2v-1h58v22zM646 551h-27v-2h5q0 -1 2 -1q4 -4 4 -5q2 -2 2 -8v-23l-38 39h-21v-2h1q4 0 5 -1q2 0 2.5 -1t1.5 -1q1 -2 1 -5v-31q0 -4 -1 -6q-1 -3 -4 -4q-4 -2 -7 -2v-1h28v1q-3 0 -5 1q-2 0 -2.5 0.5t-2.5 0.5q-1 1 -3 5q-1 1 -1 7
v32l46 -47h2v38q0 6 3 11q1 3 9 3v2zM670 592h22v2h-3h-1q-2 1 -2 1.5t-1 1.5q0 1 -0.5 1.5t-0.5 2.5q0 1 0.5 2t0.5 2l1 4h23l1 -2l1 -1v-1l1.5 -3t0.5 -3q1 -1 1 -2q0 -3 -1 -3h-4h-5v-2h32v2h-2h-4q-1 0 -1.5 1t-1.5 1l-2 4l-21 47h-2l-17 -38q-5 -11 -8 -13
q-2 0 -2.5 -1t-1.5 -1h-3v-2zM400 513v5q-1 1 -1.5 2t-1.5 2q-3 2 -7 4q-2 1 -4.5 1.5t-5.5 2.5h-4h-2l-1 1l-8 2q-2 1 -3 1t-2 1q-1 0 -3 2t-2 4q0 3 1 4q0 -1 2 3l4 2q2 0 3 0.5t3 0.5q4 0 8 -2q5 0 8 -3q4 -2 6 -4t2.5 -4.5t2.5 -5.5h2v18h-2q-1 -4 -4 -4t-5 1
q-10 5 -18 5q-5 0 -11 -2q-2 -2 -3.5 -3t-3.5 -2q-3 -5 -3 -9q0 -3 3 -6q0 -1 3 -4q4 -2 7 -3q1 -1 4 -1.5t8 -2.5l4 -1q6 -2 8 -2t4 -2q1 0 2 -1q3 -3 3 -6q0 -1 -2 -5q-1 -1 -5 -4h-6q-6 0 -9 1q-6 2 -10 4l-6 6q-5 7 -5 12h-2v-25h2q0 4 2 4q2 2 5 2q1 0 1 -0.5t2 -0.5
q1 0 1.5 -0.5t2.5 -0.5q3 -2 4.5 -2t3.5 -1t8 -1q3 0 9 2q2 0 3.5 1t3.5 3q2 1 2 2t2 3v6zM491 591q4 0 10 2q4 1 7 4q1 1 1.5 2.5t1.5 2.5q1 2 1 5v5q-2 2 -2 3t-2 2q-2 2 -6 4q-2 1 -4.5 1.5t-6.5 2.5l-5 1h-2q-2 0 -4 1t-4 1t-4 2q-1 0 -3 2q-2 1 -2 4q0 2 1 3q0 1 2 3
q1 2 4 2q2 1 6 1q5 0 8 -1q2 0 4 -1t4 -1q2 -2 3 -2.5t2 -2.5q4 -6 6 -11h1v19h-1q-1 -4 -5 -4h-1q-2 0 -3 1q-10 5 -18 5t-11 -2q-4 -1 -7 -6q-3 -3 -3 -8q0 -4 2 -6q1 -2 2 -2.5t2 -1.5t2.5 -1.5t3.5 -1.5t5 -1.5t8 -2.5l4 -1q2 -1 3.5 -1t3.5 -1l4 -2q3 0 3 -2q3 -2 3 -5
t-2 -5q-3 -3 -5 -3q-2 -1 -7 -1t-9 1q-3 0 -9 4q-3 2 -7 6q-4 8 -5 13h-1v-26h1q2 3 3 4t4 1h3q3 0 5 -2q2 -1 4 -1t4 -1t7 -1zM593 592h28v2h-5q-3 0 -5 2q-3 0 -3 4q-2 4 -2 7v32l47 -48h1v39q0 3 1 6t2 5q3 3 10 3v2h-27v-2h4l4 -2q2 0 4 -4q1 -2 1 -8v-23l-37 39h-22v-2
h6q2 -2 2.5 -2t1.5 -1q1 -2 1 -5v-31q0 -4 -1 -6q-1 -3 -4 -4q-2 -1 -7 -1v-2zM658 130q-3 6 -12 6t-12 -6q-4 -6 -4 -14q0 -7 4 -13q2 -6 12 -6t12 6q4 4 4 13q0 10 -4 14zM899 -15q-3 5 -12 5t-12 -5q-3 -6 -3 -15q0 -7 3 -13t12 -6t12 6q2 3 2.5 6.5t0.5 6.5q0 11 -3 15z
M800 616h-2q0 -2 -1 -3.5t-1 -3.5q-1 -2 -1 -2.5t-1 -2.5l-3 -3q-3 -5 -7 -5q-2 -2 -7 -2h-14v40q0 6 2 8q1 2 8 2h3v2h-36v-2h2q10 0 10 -10v-31q0 -9 -10 -9h-2v-2h60v24zM779 551h-27v-2h3q5 0 6 -1q2 -1 2 -4q0 -2 -3 -6l-11 -15l-14 18l-2 4v1q0 2 1 2q0 1 3 1h5v2h-35
v-2h1q6 0 8 -1l3 -3t2 -3l17 -22v-12q0 -5 -2 -7l-4 -2t-4 -1h-3v-1h38v1h-4q-4 0 -7 3q-3 1 -3 7v13l14 19q2 2 3 4q4 2 5 2q1 2 3 2q2 1 5 1v2zM710 521h-1q-2 -2 -2 -3.5t-1 -3.5q-2 -2 -2 -5q-1 -1 -3 -4q-4 -4 -7 -5q-2 -2 -8 -2h-14v42q0 5 3 7q2 2 7 2h4v2h-37v-2h3
q9 0 9 -9v-32q0 -10 -9 -10h-3v-1h61v24zM340 551h-27v-2h6q1 0 1.5 -0.5t1.5 -0.5q6 -3 6 -13v-19q0 -8 -5 -13q-1 -1 -7 -5h-9q-7 0 -10 2q-2 0 -6 4q-2 2 -2 9v27q0 6 2 7q2 2 8 2h4v2h-37v-2h1q11 0 11 -9v-27q0 -7 6 -13q3 -2 9 -3q3 -1 11 -1t14 2q4 2 6 4q5 4 5 13
v21v7l5 5h1l1 1h4v2zM425 621q-2 -1 -9 -1h-15v24h15q16 0 16 -11q0 -6 -2 -8q0 -2 -5 -4zM289 621q-1 -3 -11 -3h-11v26h16q3 0 5 -2q6 -2 6 -11q0 -7 -5 -10zM482 -33l-8 -1l-6 -3q-3 -3 -3 -7t3 -5q2 -2 6 -2h3q1 0 1.5 0.5t1.5 0.5q2 1 3 2t3 2q2 2 2 7v9q-3 -3 -6 -3z
M868 113l-8 -2q-3 0 -6 -3q-2 -1 -2 -6t2 -5q2 -2 6 -2h4h1q1 0 2 1q4 2 6 4q2 4 2 8v8q-3 -3 -7 -3zM757 -44h18v-18h-18v18zM311 -44h18v-18h-18v18zM263 123q-2 6 -4 10q-2 2 -4 3t-5 1q-11 0 -13 -14h26zM709 610h-22l11 24z" />
    <glyph glyph-name="dollar" unicode="$" horiz-adv-x="1083" 
d="M878 549l-18 -15l13 -20l-21 -13l13 -21l-21 -12l9 -21l-23 -10l8 -24l-22 -7l4 -22l-24 -5l2 -25l-23 -2v-23h-20l-3 -21l-22 2l-5 -22l-24 4l-7 -23l-22 7l-8 -23l-24 10l-11 -22l-21 11l-13 -20l-21 13l-14 -18l-18 15l-17 -16l-15 14l-16 -14l-14 18l-20 -13l-14 21
l-21 -12l-11 20l-22 -9l-10 23l-23 -7l-7 22l-23 -5l-5 24l-24 -2l-3 23h-23v21l-20 2l2 23l-23 4l5 24l-24 7l7 22l-22 9l9 23l-22 12l11 20l-19 13l14 21l-19 15l14 18l-16 17l15 14l-14 16l18 15l-13 19l20 14l-11 21l19 11l-8 22l22 10l-7 23l23 7l-5 23l24 5l-3 25
l23 2v23h21l2 21l23 -3l4 23l25 -4l6 23l22 -6l9 21l23 -9l12 22l21 -11l12 20l21 -14l15 19l19 -15l16 16l15 -14l15 13l15 -17l20 13l13 -21l22 12l11 -20l21 9l10 -23l24 7l7 -22l22 5l5 -24l25 2l2 -23h23v-21l21 -2l-2 -23l22 -4l-4 -24l24 -7l-7 -22l22 -9l-10 -23
l23 -12l-12 -20l20 -13l-13 -21l18 -15l-15 -18l16 -16l-13 -15zM128 137q0 2 1 4.5t1 4.5q1 7 8 14q2 3 5.5 5.5t7.5 4.5q5 2 9.5 3t9.5 1h3q3 0 9 -2q3 0 5 -1l4 -2q7 -4 12 -11q2 -3 4 -7q1 -2 1 -6h-19q0 3 -2 5q-1 3 -6 6t-10 3q-3 0 -5 -1h-4q-2 -2 -8 -6
q-2 -2 -3.5 -4t-2.5 -5q-2 -5 -2 -16q0 -9 3 -16q1 -7 7 -9q3 -2 5.5 -3t5.5 -2h3q7 0 10 3q4 0 7 5q2 3 3.5 5.5t1.5 5.5h-21v16h37v-48h-12l-2 11q-3 -5 -8 -8q-3 -2 -5.5 -2.5t-4.5 -2.5q-3 0 -5.5 -0.5t-5.5 -0.5q-9 0 -14 4q-8 3 -12 9q-6 6 -9 15t-3 19q0 6 1 9z
M345 3h16v-10q6 12 19 12q7 0 10 -3q5 -2 8 -8q2 5 7 8q4 3 10 3q8 0 13 -4q4 -3 7 -8q2 -2 2 -10v-45h-16v39q0 13 -10 13q-11 0 -11 -13v-39h-18v39v6q0 3 -3 6q-2 1 -7 1q-11 0 -11 -12v-40h-16v65zM932 3h16v-10q7 12 19 12q8 0 11 -3q4 -2 7 -8q2 4 8 8q3 3 10 3
q8 0 12 -4q6 -3 7 -8q3 -3 3 -10v-45h-17v39q0 13 -10 13q-11 0 -11 -13v-39h-17v39q0 5 -1 6q0 3 -3 6q-2 1 -6 1q-11 0 -11 -12v-40h-17v65zM856 -17q1 4 2.5 6.5t3.5 5.5q6 6 11 7q4 3 14 3q8 0 14 -3q4 -1 11 -6q2 -2 3 -5t3 -6q2 -4 2 -15q0 -10 -4 -17q-3 -7 -11 -12
q-7 -4 -18 -4q-13 0 -19 5q-7 5 -11 12q-3 7 -3 16t2 13zM615 129q1 6 6 11q6 6 11 8q4 2 14 2t15 -2q2 -2 4.5 -3t4.5 -3q5 -6 7 -12t2 -14q0 -10 -4 -17q-3 -7 -11 -12t-18 -5q-11 0 -19 5q-6 5 -11 13q-3 7 -3 16q0 5 2 13zM125 1v2h17l11 -47l9 47h17l10 -47l10 47h18
l-18 -62l-1 -3h-17l-11 47l-10 -47h-18zM514 1v2h18l10 -47l9 47h17l10 -47l11 47h17l-18 -62v-3h-18l-10 47l-10 -47h-18zM30 1v2h18l10 -47l9 47h18l9 -47l11 47h17l-18 -62v-3h-18l-10 47l-10 -47h-18zM219 1v2h18l10 -47l9 47h18l9 -47l10 47h18l-18 -62l-1 -3h-17
l-10 47l-11 -47h-17zM840 116q6 4 14 6l15 2q6 1 6 5q0 8 -10 8q-4 0 -8 -2q-3 -1 -4 -8h-16q1 9 4 14q2 4 9 7q4 2 7 2h8q13 0 18 -2l4 -4t3 -4q2 -6 2 -8v-35v-7q0 -3 4 -3v-3h-19q-1 0 -1 1v1v1q0 2 -0.5 3t-0.5 2q-2 -3 -5 -5q-2 -1 -3.5 -2t-2.5 -1l-4.5 -1.5
t-4.5 -0.5t-9 2q-2 2 -4 3t-4 3q-3 4 -3 12q0 10 5 14zM454 -30q4 4 13 6l16 2q5 2 5 5q0 8 -10 8q-2 0 -4 -0.5t-4 -0.5l-2 -4t-1 -4h-16q0 7 3 13q6 6 10 7l6 2q2 0 4 0.5t4 0.5q13 0 18 -4q5 -3 8 -7q1 -3 1 -8v-35q0 -5 1 -7q0 -3 3 -3v-3h-18q0 1 -1 2v1q-1 2 -1 5
q-4 -4 -6 -5l-3 -1.5l-3 -1.5t-8 -1q-7 0 -9 1q-5 1 -8 7q-4 3 -4 10q0 10 6 15zM222 134q3 8 10 12q4 3 8.5 3.5t9.5 0.5q13 0 17 -4q6 -4 10 -13q2 -5 2.5 -9t0.5 -9v-4h-45q0 -6 5 -11q3 -4 11 -4q3 0 7 2q4 4 4 5h18q-2 -5 -6 -11q-3 -2 -5.5 -4t-4.5 -3q-4 -1 -6.5 -2
t-6.5 -1q-32 0 -32 36q0 5 0.5 8.5t2.5 7.5zM553 591q5 0 9 1t7 2q7 4 12 11q4 5 4 14q0 7 -2 9q-1 6 -6 9q-4 6 -11 7q-4 3 -14 3q-5 0 -15 -4q-6 -3 -12 -10q-4 -7 -4 -14t2 -10q3 -6 7 -10t11 -6q6 -2 12 -2zM560 510q4 5 4 14q0 6 -2 10t-6 9q-5 5 -11 6q-6 3 -13 3
q-11 0 -16 -4q-5 -2 -7.5 -4.5t-4.5 -5.5q-4 -7 -4 -14q0 -8 2 -11q4 -6 7 -9q2 -2 5 -3t6 -3q8 -2 12 -2q11 0 16 4q6 3 12 10zM702 -41q0 -9 15 -9q5 0 8 1q2 4 2 5q0 4 -7 5l-15 4q-3 1 -6.5 2.5t-5.5 3.5q-6 4 -6 12q0 6 3 11q2 4 9 8q4 3 14 3q6 0 10.5 -1t8.5 -3
q6 -3 8 -8q1 -2 1 -2.5t1 -2.5v-5h-17q0 5 -3 7q-1 1 -8 1q-10 0 -10 -6q0 -3 6 -4l15 -4q6 -1 14 -6q5 -3 5 -12q0 -6 -3 -12q-4 -5 -10 -8q-4 -2 -15 -2h-6q-4 0 -6 1q-6 2 -10 4q-6 4 -7 7q-2 6 -2 10h17zM614 3h17v-10q7 12 20 12q6 0 12 -3q5 -2 7 -7q3 -6 3 -12v-45
h-17v39q0 8 -2 10q-1 3 -9 3q-7 0 -10 -4q-3 -5 -3 -11v-37h-18v65zM691 149h16v-9q7 10 20 10q9 0 12 -2q2 -2 4 -3.5t4 -3.5q3 -6 3 -12v-45h-17v39q0 4 -2 10q-3 3 -10 3t-10 -4q-2 -3 -2 -11v-37h-18v65zM464 84h-16v9q-3 -5 -8 -7q-8 -4 -12 -4q-10 0 -16 7q-6 6 -6 17
v43h17v-40q0 -12 11 -12q4 0 6 1t6 5q0 2 1 4t1 4v38h16v-65zM793 -6q8 11 23 11q9 0 15 -3q7 -2 10 -9q5 -5 5 -13h-18q0 3 -2 7q-2 3 -8 3q-8 0 -10 -5q-4 -4 -4 -13t1 -12q1 -5 4 -7q2 -2 8 -2q5 0 8 2q3 3 3 9h18q0 -5 -4 -13q-3 -5 -10 -9q-6 -3 -16 -3q-13 0 -21 7
q-4 4 -7 10q-1 4 -1 15q0 14 6 25zM378 592h35v2h-2q-6 0 -8 2q-2 1 -2 3v4v15h12l19 -26h20v2h-2q-5 0 -7 1l-3 3q-1 2 -2 3t-2 3l-2 2q0 1 -2 3v2q-3 1 -6 1q-4 2 -5 3l-6 3h9q2 1 4 1t4 1q3 0 7 2q6 4 6 11q0 2 -1 3q-2 4 -3 5q-3 3 -8 3q-6 2 -13 2h-42v-2h2q5 0 7 -2
q3 -2 3 -8v-31q0 -2 -0.5 -4t-2.5 -3q-2 -2 -7 -2h-2v-2zM368 137h-9v12h9v5q0 18 19 18h9v-13h-5q-3 0 -4 -1q-2 0 -2 -2v-7h11v-12h-11v-53h-17v53zM579 137h-9v12h9v5q0 18 19 18h8v-13h-4q-4 0 -4 -1q-1 0 -2 -2v-7h12v-12h-12v-53h-17v53zM908 137h-8v12h8v17h18v-17
h11v-12h-11v-35q0 -2 0.5 -3t0.5 -2q1 0 2 -0.5t3 -0.5l3 1h2v-13h-11q-8 0 -11 2q-4 0 -5 4q0 2 -1 3.5t-1 3.5v40zM294 137h-9v12h9v17h17v-17h10v-12h-10v-35q0 -4 1 -5q1 0 2.5 -0.5t3.5 -0.5l2 1h1v-13h-10q-8 0 -11 2q-4 0 -5 4q-1 2 -1 7v40zM280 592v2h-3
q-10 0 -10 9v14h14h11q6 2 7 3q5 2 5 5q2 2 2 6t-3 9q-4 4 -10 4q-1 1 -4 1h-6q-3 1 -7 1h-32v-2h2q10 0 10 -10v-31q0 -9 -10 -9h-2v-2h36zM768 137h-10v12h10v17h16v-17h11v-12h-11v-35q0 -2 0.5 -3t0.5 -2q2 0 3 -0.5t3 -0.5l2 1h2v-13h-11q-8 0 -10 2q-5 0 -6 4v7v40z
M546 543l2 -4t2 -5q0 -2 0.5 -4.5t0.5 -5.5q0 -6 -2 -14q-3 -6 -7 -10q-3 -2 -10 -2q-6 0 -7 2q-4 0 -7 5q-1 2 -3 8t-2 11q0 2 0.5 4.5t0.5 4.5q1 2 1.5 3.5t1.5 3.5q3 5 4 6q0 1 5 3q4 2 7 2q1 0 1.5 -0.5t2.5 -0.5l4 -2zM567 638l2 -4t2 -5q0 -2 0.5 -4.5t0.5 -5.5
q0 -8 -3 -14q-2 -6 -6 -9q-5 -3 -10 -3t-8 1q-2 2 -3 2.5t-2 2.5q-2 3 -4 9q-1 3 -1.5 5.5t-0.5 5.5q0 2 0.5 4.5t0.5 4.5q1 2 1.5 3.5t1.5 3.5q2 4 4 6q3 3 5 3q2 1 7 1h4q1 -1 1.5 -1t1.5 -1q4 -1 6 -5zM480 172h17v-88h-17v88zM510 172h16v-88h-16v88zM320 642q3 -2 3 -8
v-31q0 -9 -10 -9h-1v-2h58v22h-1q-1 -2 -1 -3.5t-2 -3.5q-2 -5 -5 -8t-5 -3l-6 -2h-16v24h2q7 0 10 -5l3 -3q0 -1 0.5 -1.5t0.5 -2.5q0 -4 1 -5h1v35h-1q-1 -2 -1 -5q0 -5 -3 -6q-3 -6 -10 -6h-3v25h11q8 0 11 -2q4 0 5 -4q2 -1 4 -5q1 -2 1 -4t2 -4h1v21h-57v-2h1q6 0 7 -2
zM464 519q-2 -2 -2 -3.5t-1 -3.5q-4 -6 -6 -8q-3 -3 -5 -3l-5 -2q-3 -1 -7 -1h-9v24h1q7 0 11 -4q1 -1 1 -1.5t1 -1.5q0 -1 0.5 -1.5t0.5 -2.5q1 -2 1 -5h1v35h-1v-5l-1.5 -3l-1.5 -3q-5 -6 -10 -6h-3v25h10q9 0 12 -1q2 -2 2.5 -2t2.5 -2l3 -6q2 -4 3 -8h2v21h-58v-2h2
q5 0 6 -2q3 -2 3 -7v-32q0 -10 -9 -10h-2v-1h58v22zM646 551h-27v-2h5q0 -1 2 -1q4 -4 4 -5q2 -2 2 -8v-23l-38 39h-21v-2h1q4 0 5 -1q2 0 2.5 -1t1.5 -1q1 -2 1 -5v-31q0 -4 -1 -6q-1 -3 -4 -4q-4 -2 -7 -2v-1h28v1q-3 0 -5 1q-2 0 -2.5 0.5t-2.5 0.5q-1 1 -3 5q-1 1 -1 7
v32l46 -47h2v38q0 6 3 11q1 3 9 3v2zM670 592h22v2h-3h-1q-2 1 -2 1.5t-1 1.5q0 1 -0.5 1.5t-0.5 2.5q0 1 0.5 2t0.5 2l1 4h23l1 -2l1 -1v-1l1.5 -3t0.5 -3q1 -1 1 -2q0 -3 -1 -3h-4h-5v-2h32v2h-2h-4q-1 0 -1.5 1t-1.5 1l-2 4l-21 47h-2l-17 -38q-5 -11 -8 -13
q-2 0 -2.5 -1t-1.5 -1h-3v-2zM400 513v5q-1 1 -1.5 2t-1.5 2q-3 2 -7 4q-2 1 -4.5 1.5t-5.5 2.5h-4h-2l-1 1l-8 2q-2 1 -3 1t-2 1q-1 0 -3 2t-2 4q0 3 1 4q0 -1 2 3l4 2q2 0 3 0.5t3 0.5q4 0 8 -2q5 0 8 -3q4 -2 6 -4t2.5 -4.5t2.5 -5.5h2v18h-2q-1 -4 -4 -4t-5 1
q-10 5 -18 5q-5 0 -11 -2q-2 -2 -3.5 -3t-3.5 -2q-3 -5 -3 -9q0 -3 3 -6q0 -1 3 -4q4 -2 7 -3q1 -1 4 -1.5t8 -2.5l4 -1q6 -2 8 -2t4 -2q1 0 2 -1q3 -3 3 -6q0 -1 -2 -5q-1 -1 -5 -4h-6q-6 0 -9 1q-6 2 -10 4l-6 6q-5 7 -5 12h-2v-25h2q0 4 2 4q2 2 5 2q1 0 1 -0.5t2 -0.5
q1 0 1.5 -0.5t2.5 -0.5q3 -2 4.5 -2t3.5 -1t8 -1q3 0 9 2q2 0 3.5 1t3.5 3q2 1 2 2t2 3v6zM491 591q4 0 10 2q4 1 7 4q1 1 1.5 2.5t1.5 2.5q1 2 1 5v5q-2 2 -2 3t-2 2q-2 2 -6 4q-2 1 -4.5 1.5t-6.5 2.5l-5 1h-2q-2 0 -4 1t-4 1t-4 2q-1 0 -3 2q-2 1 -2 4q0 2 1 3q0 1 2 3
q1 2 4 2q2 1 6 1q5 0 8 -1q2 0 4 -1t4 -1q2 -2 3 -2.5t2 -2.5q4 -6 6 -11h1v19h-1q-1 -4 -5 -4h-1q-2 0 -3 1q-10 5 -18 5t-11 -2q-4 -1 -7 -6q-3 -3 -3 -8q0 -4 2 -6q1 -2 2 -2.5t2 -1.5t2.5 -1.5t3.5 -1.5t5 -1.5t8 -2.5l4 -1q2 -1 3.5 -1t3.5 -1l4 -2q3 0 3 -2q3 -2 3 -5
t-2 -5q-3 -3 -5 -3q-2 -1 -7 -1t-9 1q-3 0 -9 4q-3 2 -7 6q-4 8 -5 13h-1v-26h1q2 3 3 4t4 1h3q3 0 5 -2q2 -1 4 -1t4 -1t7 -1zM593 592h28v2h-5q-3 0 -5 2q-3 0 -3 4q-2 4 -2 7v32l47 -48h1v39q0 3 1 6t2 5q3 3 10 3v2h-27v-2h4l4 -2q2 0 4 -4q1 -2 1 -8v-23l-37 39h-22v-2
h6q2 -2 2.5 -2t1.5 -1q1 -2 1 -5v-31q0 -4 -1 -6q-1 -3 -4 -4q-2 -1 -7 -1v-2zM658 130q-3 6 -12 6t-12 -6q-4 -6 -4 -14q0 -7 4 -13q2 -6 12 -6t12 6q4 4 4 13q0 10 -4 14zM899 -15q-3 5 -12 5t-12 -5q-3 -6 -3 -15q0 -7 3 -13t12 -6t12 6q2 3 2.5 6.5t0.5 6.5q0 11 -3 15z
M800 616h-2q0 -2 -1 -3.5t-1 -3.5q-1 -2 -1 -2.5t-1 -2.5l-3 -3q-3 -5 -7 -5q-2 -2 -7 -2h-14v40q0 6 2 8q1 2 8 2h3v2h-36v-2h2q10 0 10 -10v-31q0 -9 -10 -9h-2v-2h60v24zM779 551h-27v-2h3q5 0 6 -1q2 -1 2 -4q0 -2 -3 -6l-11 -15l-14 18l-2 4v1q0 2 1 2q0 1 3 1h5v2h-35
v-2h1q6 0 8 -1l3 -3t2 -3l17 -22v-12q0 -5 -2 -7l-4 -2t-4 -1h-3v-1h38v1h-4q-4 0 -7 3q-3 1 -3 7v13l14 19q2 2 3 4q4 2 5 2q1 2 3 2q2 1 5 1v2zM710 521h-1q-2 -2 -2 -3.5t-1 -3.5q-2 -2 -2 -5q-1 -1 -3 -4q-4 -4 -7 -5q-2 -2 -8 -2h-14v42q0 5 3 7q2 2 7 2h4v2h-37v-2h3
q9 0 9 -9v-32q0 -10 -9 -10h-3v-1h61v24zM340 551h-27v-2h6q1 0 1.5 -0.5t1.5 -0.5q6 -3 6 -13v-19q0 -8 -5 -13q-1 -1 -7 -5h-9q-7 0 -10 2q-2 0 -6 4q-2 2 -2 9v27q0 6 2 7q2 2 8 2h4v2h-37v-2h1q11 0 11 -9v-27q0 -7 6 -13q3 -2 9 -3q3 -1 11 -1t14 2q4 2 6 4q5 4 5 13
v21v7l5 5h1l1 1h4v2zM425 621q-2 -1 -9 -1h-15v24h15q16 0 16 -11q0 -6 -2 -8q0 -2 -5 -4zM289 621q-1 -3 -11 -3h-11v26h16q3 0 5 -2q6 -2 6 -11q0 -7 -5 -10zM482 -33l-8 -1l-6 -3q-3 -3 -3 -7t3 -5q2 -2 6 -2h3q1 0 1.5 0.5t1.5 0.5q2 1 3 2t3 2q2 2 2 7v9q-3 -3 -6 -3z
M868 113l-8 -2q-3 0 -6 -3q-2 -1 -2 -6t2 -5q2 -2 6 -2h4h1q1 0 2 1q4 2 6 4q2 4 2 8v8q-3 -3 -7 -3zM757 -44h18v-18h-18v18zM311 -44h18v-18h-18v18zM263 123q-2 6 -4 10q-2 2 -4 3t-5 1q-11 0 -13 -14h26zM709 610h-22l11 24z" />
    <glyph glyph-name="percent" unicode="%" horiz-adv-x="1083" 
d="M878 549l-18 -15l13 -20l-21 -13l13 -21l-21 -12l9 -21l-23 -10l8 -24l-22 -7l4 -22l-24 -5l2 -25l-23 -2v-23h-20l-3 -21l-22 2l-5 -22l-24 4l-7 -23l-22 7l-8 -23l-24 10l-11 -22l-21 11l-13 -20l-21 13l-14 -18l-18 15l-17 -16l-15 14l-16 -14l-14 18l-20 -13l-14 21
l-21 -12l-11 20l-22 -9l-10 23l-23 -7l-7 22l-23 -5l-5 24l-24 -2l-3 23h-23v21l-20 2l2 23l-23 4l5 24l-24 7l7 22l-22 9l9 23l-22 12l11 20l-19 13l14 21l-19 15l14 18l-16 17l15 14l-14 16l18 15l-13 19l20 14l-11 21l19 11l-8 22l22 10l-7 23l23 7l-5 23l24 5l-3 25
l23 2v23h21l2 21l23 -3l4 23l25 -4l6 23l22 -6l9 21l23 -9l12 22l21 -11l12 20l21 -14l15 19l19 -15l16 16l15 -14l15 13l15 -17l20 13l13 -21l22 12l11 -20l21 9l10 -23l24 7l7 -22l22 5l5 -24l25 2l2 -23h23v-21l21 -2l-2 -23l22 -4l-4 -24l24 -7l-7 -22l22 -9l-10 -23
l23 -12l-12 -20l20 -13l-13 -21l18 -15l-15 -18l16 -16l-13 -15zM128 137q0 2 1 4.5t1 4.5q1 7 8 14q2 3 5.5 5.5t7.5 4.5q5 2 9.5 3t9.5 1h3q3 0 9 -2q3 0 5 -1l4 -2q7 -4 12 -11q2 -3 4 -7q1 -2 1 -6h-19q0 3 -2 5q-1 3 -6 6t-10 3q-3 0 -5 -1h-4q-2 -2 -8 -6
q-2 -2 -3.5 -4t-2.5 -5q-2 -5 -2 -16q0 -9 3 -16q1 -7 7 -9q3 -2 5.5 -3t5.5 -2h3q7 0 10 3q4 0 7 5q2 3 3.5 5.5t1.5 5.5h-21v16h37v-48h-12l-2 11q-3 -5 -8 -8q-3 -2 -5.5 -2.5t-4.5 -2.5q-3 0 -5.5 -0.5t-5.5 -0.5q-9 0 -14 4q-8 3 -12 9q-6 6 -9 15t-3 19q0 6 1 9z
M345 3h16v-10q6 12 19 12q7 0 10 -3q5 -2 8 -8q2 5 7 8q4 3 10 3q8 0 13 -4q4 -3 7 -8q2 -2 2 -10v-45h-16v39q0 13 -10 13q-11 0 -11 -13v-39h-18v39v6q0 3 -3 6q-2 1 -7 1q-11 0 -11 -12v-40h-16v65zM932 3h16v-10q7 12 19 12q8 0 11 -3q4 -2 7 -8q2 4 8 8q3 3 10 3
q8 0 12 -4q6 -3 7 -8q3 -3 3 -10v-45h-17v39q0 13 -10 13q-11 0 -11 -13v-39h-17v39q0 5 -1 6q0 3 -3 6q-2 1 -6 1q-11 0 -11 -12v-40h-17v65zM856 -17q1 4 2.5 6.5t3.5 5.5q6 6 11 7q4 3 14 3q8 0 14 -3q4 -1 11 -6q2 -2 3 -5t3 -6q2 -4 2 -15q0 -10 -4 -17q-3 -7 -11 -12
q-7 -4 -18 -4q-13 0 -19 5q-7 5 -11 12q-3 7 -3 16t2 13zM615 129q1 6 6 11q6 6 11 8q4 2 14 2t15 -2q2 -2 4.5 -3t4.5 -3q5 -6 7 -12t2 -14q0 -10 -4 -17q-3 -7 -11 -12t-18 -5q-11 0 -19 5q-6 5 -11 13q-3 7 -3 16q0 5 2 13zM125 1v2h17l11 -47l9 47h17l10 -47l10 47h18
l-18 -62l-1 -3h-17l-11 47l-10 -47h-18zM514 1v2h18l10 -47l9 47h17l10 -47l11 47h17l-18 -62v-3h-18l-10 47l-10 -47h-18zM30 1v2h18l10 -47l9 47h18l9 -47l11 47h17l-18 -62v-3h-18l-10 47l-10 -47h-18zM219 1v2h18l10 -47l9 47h18l9 -47l10 47h18l-18 -62l-1 -3h-17
l-10 47l-11 -47h-17zM840 116q6 4 14 6l15 2q6 1 6 5q0 8 -10 8q-4 0 -8 -2q-3 -1 -4 -8h-16q1 9 4 14q2 4 9 7q4 2 7 2h8q13 0 18 -2l4 -4t3 -4q2 -6 2 -8v-35v-7q0 -3 4 -3v-3h-19q-1 0 -1 1v1v1q0 2 -0.5 3t-0.5 2q-2 -3 -5 -5q-2 -1 -3.5 -2t-2.5 -1l-4.5 -1.5
t-4.5 -0.5t-9 2q-2 2 -4 3t-4 3q-3 4 -3 12q0 10 5 14zM454 -30q4 4 13 6l16 2q5 2 5 5q0 8 -10 8q-2 0 -4 -0.5t-4 -0.5l-2 -4t-1 -4h-16q0 7 3 13q6 6 10 7l6 2q2 0 4 0.5t4 0.5q13 0 18 -4q5 -3 8 -7q1 -3 1 -8v-35q0 -5 1 -7q0 -3 3 -3v-3h-18q0 1 -1 2v1q-1 2 -1 5
q-4 -4 -6 -5l-3 -1.5l-3 -1.5t-8 -1q-7 0 -9 1q-5 1 -8 7q-4 3 -4 10q0 10 6 15zM222 134q3 8 10 12q4 3 8.5 3.5t9.5 0.5q13 0 17 -4q6 -4 10 -13q2 -5 2.5 -9t0.5 -9v-4h-45q0 -6 5 -11q3 -4 11 -4q3 0 7 2q4 4 4 5h18q-2 -5 -6 -11q-3 -2 -5.5 -4t-4.5 -3q-4 -1 -6.5 -2
t-6.5 -1q-32 0 -32 36q0 5 0.5 8.5t2.5 7.5zM553 591q5 0 9 1t7 2q7 4 12 11q4 5 4 14q0 7 -2 9q-1 6 -6 9q-4 6 -11 7q-4 3 -14 3q-5 0 -15 -4q-6 -3 -12 -10q-4 -7 -4 -14t2 -10q3 -6 7 -10t11 -6q6 -2 12 -2zM560 510q4 5 4 14q0 6 -2 10t-6 9q-5 5 -11 6q-6 3 -13 3
q-11 0 -16 -4q-5 -2 -7.5 -4.5t-4.5 -5.5q-4 -7 -4 -14q0 -8 2 -11q4 -6 7 -9q2 -2 5 -3t6 -3q8 -2 12 -2q11 0 16 4q6 3 12 10zM702 -41q0 -9 15 -9q5 0 8 1q2 4 2 5q0 4 -7 5l-15 4q-3 1 -6.5 2.5t-5.5 3.5q-6 4 -6 12q0 6 3 11q2 4 9 8q4 3 14 3q6 0 10.5 -1t8.5 -3
q6 -3 8 -8q1 -2 1 -2.5t1 -2.5v-5h-17q0 5 -3 7q-1 1 -8 1q-10 0 -10 -6q0 -3 6 -4l15 -4q6 -1 14 -6q5 -3 5 -12q0 -6 -3 -12q-4 -5 -10 -8q-4 -2 -15 -2h-6q-4 0 -6 1q-6 2 -10 4q-6 4 -7 7q-2 6 -2 10h17zM614 3h17v-10q7 12 20 12q6 0 12 -3q5 -2 7 -7q3 -6 3 -12v-45
h-17v39q0 8 -2 10q-1 3 -9 3q-7 0 -10 -4q-3 -5 -3 -11v-37h-18v65zM691 149h16v-9q7 10 20 10q9 0 12 -2q2 -2 4 -3.5t4 -3.5q3 -6 3 -12v-45h-17v39q0 4 -2 10q-3 3 -10 3t-10 -4q-2 -3 -2 -11v-37h-18v65zM464 84h-16v9q-3 -5 -8 -7q-8 -4 -12 -4q-10 0 -16 7q-6 6 -6 17
v43h17v-40q0 -12 11 -12q4 0 6 1t6 5q0 2 1 4t1 4v38h16v-65zM793 -6q8 11 23 11q9 0 15 -3q7 -2 10 -9q5 -5 5 -13h-18q0 3 -2 7q-2 3 -8 3q-8 0 -10 -5q-4 -4 -4 -13t1 -12q1 -5 4 -7q2 -2 8 -2q5 0 8 2q3 3 3 9h18q0 -5 -4 -13q-3 -5 -10 -9q-6 -3 -16 -3q-13 0 -21 7
q-4 4 -7 10q-1 4 -1 15q0 14 6 25zM378 592h35v2h-2q-6 0 -8 2q-2 1 -2 3v4v15h12l19 -26h20v2h-2q-5 0 -7 1l-3 3q-1 2 -2 3t-2 3l-2 2q0 1 -2 3v2q-3 1 -6 1q-4 2 -5 3l-6 3h9q2 1 4 1t4 1q3 0 7 2q6 4 6 11q0 2 -1 3q-2 4 -3 5q-3 3 -8 3q-6 2 -13 2h-42v-2h2q5 0 7 -2
q3 -2 3 -8v-31q0 -2 -0.5 -4t-2.5 -3q-2 -2 -7 -2h-2v-2zM368 137h-9v12h9v5q0 18 19 18h9v-13h-5q-3 0 -4 -1q-2 0 -2 -2v-7h11v-12h-11v-53h-17v53zM579 137h-9v12h9v5q0 18 19 18h8v-13h-4q-4 0 -4 -1q-1 0 -2 -2v-7h12v-12h-12v-53h-17v53zM908 137h-8v12h8v17h18v-17
h11v-12h-11v-35q0 -2 0.5 -3t0.5 -2q1 0 2 -0.5t3 -0.5l3 1h2v-13h-11q-8 0 -11 2q-4 0 -5 4q0 2 -1 3.5t-1 3.5v40zM294 137h-9v12h9v17h17v-17h10v-12h-10v-35q0 -4 1 -5q1 0 2.5 -0.5t3.5 -0.5l2 1h1v-13h-10q-8 0 -11 2q-4 0 -5 4q-1 2 -1 7v40zM280 592v2h-3
q-10 0 -10 9v14h14h11q6 2 7 3q5 2 5 5q2 2 2 6t-3 9q-4 4 -10 4q-1 1 -4 1h-6q-3 1 -7 1h-32v-2h2q10 0 10 -10v-31q0 -9 -10 -9h-2v-2h36zM768 137h-10v12h10v17h16v-17h11v-12h-11v-35q0 -2 0.5 -3t0.5 -2q2 0 3 -0.5t3 -0.5l2 1h2v-13h-11q-8 0 -10 2q-5 0 -6 4v7v40z
M546 543l2 -4t2 -5q0 -2 0.5 -4.5t0.5 -5.5q0 -6 -2 -14q-3 -6 -7 -10q-3 -2 -10 -2q-6 0 -7 2q-4 0 -7 5q-1 2 -3 8t-2 11q0 2 0.5 4.5t0.5 4.5q1 2 1.5 3.5t1.5 3.5q3 5 4 6q0 1 5 3q4 2 7 2q1 0 1.5 -0.5t2.5 -0.5l4 -2zM567 638l2 -4t2 -5q0 -2 0.5 -4.5t0.5 -5.5
q0 -8 -3 -14q-2 -6 -6 -9q-5 -3 -10 -3t-8 1q-2 2 -3 2.5t-2 2.5q-2 3 -4 9q-1 3 -1.5 5.5t-0.5 5.5q0 2 0.5 4.5t0.5 4.5q1 2 1.5 3.5t1.5 3.5q2 4 4 6q3 3 5 3q2 1 7 1h4q1 -1 1.5 -1t1.5 -1q4 -1 6 -5zM480 172h17v-88h-17v88zM510 172h16v-88h-16v88zM320 642q3 -2 3 -8
v-31q0 -9 -10 -9h-1v-2h58v22h-1q-1 -2 -1 -3.5t-2 -3.5q-2 -5 -5 -8t-5 -3l-6 -2h-16v24h2q7 0 10 -5l3 -3q0 -1 0.5 -1.5t0.5 -2.5q0 -4 1 -5h1v35h-1q-1 -2 -1 -5q0 -5 -3 -6q-3 -6 -10 -6h-3v25h11q8 0 11 -2q4 0 5 -4q2 -1 4 -5q1 -2 1 -4t2 -4h1v21h-57v-2h1q6 0 7 -2
zM464 519q-2 -2 -2 -3.5t-1 -3.5q-4 -6 -6 -8q-3 -3 -5 -3l-5 -2q-3 -1 -7 -1h-9v24h1q7 0 11 -4q1 -1 1 -1.5t1 -1.5q0 -1 0.5 -1.5t0.5 -2.5q1 -2 1 -5h1v35h-1v-5l-1.5 -3l-1.5 -3q-5 -6 -10 -6h-3v25h10q9 0 12 -1q2 -2 2.5 -2t2.5 -2l3 -6q2 -4 3 -8h2v21h-58v-2h2
q5 0 6 -2q3 -2 3 -7v-32q0 -10 -9 -10h-2v-1h58v22zM646 551h-27v-2h5q0 -1 2 -1q4 -4 4 -5q2 -2 2 -8v-23l-38 39h-21v-2h1q4 0 5 -1q2 0 2.5 -1t1.5 -1q1 -2 1 -5v-31q0 -4 -1 -6q-1 -3 -4 -4q-4 -2 -7 -2v-1h28v1q-3 0 -5 1q-2 0 -2.5 0.5t-2.5 0.5q-1 1 -3 5q-1 1 -1 7
v32l46 -47h2v38q0 6 3 11q1 3 9 3v2zM670 592h22v2h-3h-1q-2 1 -2 1.5t-1 1.5q0 1 -0.5 1.5t-0.5 2.5q0 1 0.5 2t0.5 2l1 4h23l1 -2l1 -1v-1l1.5 -3t0.5 -3q1 -1 1 -2q0 -3 -1 -3h-4h-5v-2h32v2h-2h-4q-1 0 -1.5 1t-1.5 1l-2 4l-21 47h-2l-17 -38q-5 -11 -8 -13
q-2 0 -2.5 -1t-1.5 -1h-3v-2zM400 513v5q-1 1 -1.5 2t-1.5 2q-3 2 -7 4q-2 1 -4.5 1.5t-5.5 2.5h-4h-2l-1 1l-8 2q-2 1 -3 1t-2 1q-1 0 -3 2t-2 4q0 3 1 4q0 -1 2 3l4 2q2 0 3 0.5t3 0.5q4 0 8 -2q5 0 8 -3q4 -2 6 -4t2.5 -4.5t2.5 -5.5h2v18h-2q-1 -4 -4 -4t-5 1
q-10 5 -18 5q-5 0 -11 -2q-2 -2 -3.5 -3t-3.5 -2q-3 -5 -3 -9q0 -3 3 -6q0 -1 3 -4q4 -2 7 -3q1 -1 4 -1.5t8 -2.5l4 -1q6 -2 8 -2t4 -2q1 0 2 -1q3 -3 3 -6q0 -1 -2 -5q-1 -1 -5 -4h-6q-6 0 -9 1q-6 2 -10 4l-6 6q-5 7 -5 12h-2v-25h2q0 4 2 4q2 2 5 2q1 0 1 -0.5t2 -0.5
q1 0 1.5 -0.5t2.5 -0.5q3 -2 4.5 -2t3.5 -1t8 -1q3 0 9 2q2 0 3.5 1t3.5 3q2 1 2 2t2 3v6zM491 591q4 0 10 2q4 1 7 4q1 1 1.5 2.5t1.5 2.5q1 2 1 5v5q-2 2 -2 3t-2 2q-2 2 -6 4q-2 1 -4.5 1.5t-6.5 2.5l-5 1h-2q-2 0 -4 1t-4 1t-4 2q-1 0 -3 2q-2 1 -2 4q0 2 1 3q0 1 2 3
q1 2 4 2q2 1 6 1q5 0 8 -1q2 0 4 -1t4 -1q2 -2 3 -2.5t2 -2.5q4 -6 6 -11h1v19h-1q-1 -4 -5 -4h-1q-2 0 -3 1q-10 5 -18 5t-11 -2q-4 -1 -7 -6q-3 -3 -3 -8q0 -4 2 -6q1 -2 2 -2.5t2 -1.5t2.5 -1.5t3.5 -1.5t5 -1.5t8 -2.5l4 -1q2 -1 3.5 -1t3.5 -1l4 -2q3 0 3 -2q3 -2 3 -5
t-2 -5q-3 -3 -5 -3q-2 -1 -7 -1t-9 1q-3 0 -9 4q-3 2 -7 6q-4 8 -5 13h-1v-26h1q2 3 3 4t4 1h3q3 0 5 -2q2 -1 4 -1t4 -1t7 -1zM593 592h28v2h-5q-3 0 -5 2q-3 0 -3 4q-2 4 -2 7v32l47 -48h1v39q0 3 1 6t2 5q3 3 10 3v2h-27v-2h4l4 -2q2 0 4 -4q1 -2 1 -8v-23l-37 39h-22v-2
h6q2 -2 2.5 -2t1.5 -1q1 -2 1 -5v-31q0 -4 -1 -6q-1 -3 -4 -4q-2 -1 -7 -1v-2zM658 130q-3 6 -12 6t-12 -6q-4 -6 -4 -14q0 -7 4 -13q2 -6 12 -6t12 6q4 4 4 13q0 10 -4 14zM899 -15q-3 5 -12 5t-12 -5q-3 -6 -3 -15q0 -7 3 -13t12 -6t12 6q2 3 2.5 6.5t0.5 6.5q0 11 -3 15z
M800 616h-2q0 -2 -1 -3.5t-1 -3.5q-1 -2 -1 -2.5t-1 -2.5l-3 -3q-3 -5 -7 -5q-2 -2 -7 -2h-14v40q0 6 2 8q1 2 8 2h3v2h-36v-2h2q10 0 10 -10v-31q0 -9 -10 -9h-2v-2h60v24zM779 551h-27v-2h3q5 0 6 -1q2 -1 2 -4q0 -2 -3 -6l-11 -15l-14 18l-2 4v1q0 2 1 2q0 1 3 1h5v2h-35
v-2h1q6 0 8 -1l3 -3t2 -3l17 -22v-12q0 -5 -2 -7l-4 -2t-4 -1h-3v-1h38v1h-4q-4 0 -7 3q-3 1 -3 7v13l14 19q2 2 3 4q4 2 5 2q1 2 3 2q2 1 5 1v2zM710 521h-1q-2 -2 -2 -3.5t-1 -3.5q-2 -2 -2 -5q-1 -1 -3 -4q-4 -4 -7 -5q-2 -2 -8 -2h-14v42q0 5 3 7q2 2 7 2h4v2h-37v-2h3
q9 0 9 -9v-32q0 -10 -9 -10h-3v-1h61v24zM340 551h-27v-2h6q1 0 1.5 -0.5t1.5 -0.5q6 -3 6 -13v-19q0 -8 -5 -13q-1 -1 -7 -5h-9q-7 0 -10 2q-2 0 -6 4q-2 2 -2 9v27q0 6 2 7q2 2 8 2h4v2h-37v-2h1q11 0 11 -9v-27q0 -7 6 -13q3 -2 9 -3q3 -1 11 -1t14 2q4 2 6 4q5 4 5 13
v21v7l5 5h1l1 1h4v2zM425 621q-2 -1 -9 -1h-15v24h15q16 0 16 -11q0 -6 -2 -8q0 -2 -5 -4zM289 621q-1 -3 -11 -3h-11v26h16q3 0 5 -2q6 -2 6 -11q0 -7 -5 -10zM482 -33l-8 -1l-6 -3q-3 -3 -3 -7t3 -5q2 -2 6 -2h3q1 0 1.5 0.5t1.5 0.5q2 1 3 2t3 2q2 2 2 7v9q-3 -3 -6 -3z
M868 113l-8 -2q-3 0 -6 -3q-2 -1 -2 -6t2 -5q2 -2 6 -2h4h1q1 0 2 1q4 2 6 4q2 4 2 8v8q-3 -3 -7 -3zM757 -44h18v-18h-18v18zM311 -44h18v-18h-18v18zM263 123q-2 6 -4 10q-2 2 -4 3t-5 1q-11 0 -13 -14h26zM709 610h-22l11 24z" />
    <glyph glyph-name="ampersand" unicode="&#x26;" horiz-adv-x="632" 
d="M587 367q-2 0 -0.5 -6l3.5 -14l6 -20q-19 -3 -39 -3q-17 -1 -37.5 1t-39.5 9q5 -63 13.5 -108.5t19 -78t22 -53t22.5 -32.5q26 -28 55 -22q0 -3 -1 -8l-2.5 -12.5t-3.5 -19.5q-27 -3 -49 5.5t-40.5 25t-34 39t-27.5 49.5q-5 -25 -16 -48t-29 -40t-45 -27.5t-64 -10.5
q-57 0 -102.5 13t-79.5 35.5t-57 51.5t-34 62q-11 19 -28 39.5t-43 31.5q23 3 40.5 15t28.5 27q14 44 51 78.5t100 50.5q-52 0 -86 30.5t-47 76.5q-11 19 -28.5 40t-43.5 32q26 4 44.5 18.5t30.5 31.5q10 30 30.5 57.5t52 48t74 33t97.5 12.5q63 0 104.5 -14t65.5 -37.5
t33 -53.5t7 -62q4 -15 14 -30t32 -26q-24 -2 -41 -13t-28 -25q-7 -17 -15 -31.5t-16 -27.5q-12 9 -25.5 18t-24.5 17q-13 9 -26 17q32 66 38 118q2 22 -1 43.5t-15.5 38t-36 26.5t-61.5 10q-51 0 -88 -24.5t-58 -61.5t-24 -80t13.5 -81.5t54 -65.5t98.5 -31q2 -5 2 -10.5
t1 -10.5q0 -6 1 -11q-61 0 -104 -26t-66 -64.5t-25.5 -83.5t17.5 -83.5t63 -64.5t111 -26q39 0 64.5 11.5t41 31t22.5 44.5t9 52q-11 29 -20 58.5t-16.5 56.5t-14 51t-12.5 41q12 -5 32.5 -6.5t44.5 -1.5t48.5 1t44 2.5t32 3t11.5 1.5z" />
    <glyph glyph-name="quotesingle" unicode="'" horiz-adv-x="51" 
d="M-64 654q16 0 25.5 -6t14.5 -15.5t6 -21.5t0 -25q-1 -5 -1.5 -9t-2.5 -9q-5 -22 -13.5 -46t-17 -44t-15.5 -33l-7 -13q-2 2 -8.5 6t-6.5 5l1.5 9t3.5 21.5t4.5 26t4.5 24.5h-2q-24 0 -34.5 20t-6.5 47q3 28 19.5 45.5t35.5 17.5z" />
    <glyph glyph-name="parenleft" unicode="(" horiz-adv-x="548" 
d="M658 194q-34 37 -68.5 70t-69.5 60q-30 15 -66.5 23t-74 6t-74.5 -17.5t-68 -46.5q-15 -15 -32.5 -16.5t-29 6t-13.5 20.5t14 27q38 32 76 46.5t75 17t71 -5t64 -19.5q-71 45 -139.5 56t-131.5 -24q-40 -22 -58.5 -57.5t-20 -72t13 -69.5t40.5 -51t61.5 -16t77.5 35
q-41 -43 -86.5 -47t-84.5 18t-65.5 64t-29.5 91t23.5 99t94.5 89q74 42 139.5 39t121 -33t99.5 -77t75 -93t48 -81t18 -41z" />
    <glyph glyph-name="parenright" unicode=")" horiz-adv-x="605" 
d="M-25 194q1 6 18 41t48 81t75 93t99.5 77t121 33t139.5 -39q67 -39 94 -89t24 -99t-29.5 -91t-65.5 -64t-84.5 -18t-86.5 47q41 -33 77 -35t62 16t40.5 51t13 69.5t-20 72t-58.5 57.5q-63 35 -131.5 24t-139.5 -56q29 12 63.5 19.5t71 5t75 -17t76.5 -46.5q16 -14 14 -27
t-13.5 -20.5t-29 -6t-32.5 16.5q-32 31 -69 46.5t-74.5 17.5t-73.5 -6t-66 -23q-35 -27 -69.5 -60t-68.5 -70z" />
    <glyph glyph-name="asterisk" unicode="*" horiz-adv-x="1083" 
d="M878 549l-18 -15l13 -20l-21 -13l13 -21l-21 -12l9 -21l-23 -10l8 -24l-22 -7l4 -22l-24 -5l2 -25l-23 -2v-23h-20l-3 -21l-22 2l-5 -22l-24 4l-7 -23l-22 7l-8 -23l-24 10l-11 -22l-21 11l-13 -20l-21 13l-14 -18l-18 15l-17 -16l-15 14l-16 -14l-14 18l-20 -13l-14 21
l-21 -12l-11 20l-22 -9l-10 23l-23 -7l-7 22l-23 -5l-5 24l-24 -2l-3 23h-23v21l-20 2l2 23l-23 4l5 24l-24 7l7 22l-22 9l9 23l-22 12l11 20l-19 13l14 21l-19 15l14 18l-16 17l15 14l-14 16l18 15l-13 19l20 14l-11 21l19 11l-8 22l22 10l-7 23l23 7l-5 23l24 5l-3 25
l23 2v23h21l2 21l23 -3l4 23l25 -4l6 23l22 -6l9 21l23 -9l12 22l21 -11l12 20l21 -14l15 19l19 -15l16 16l15 -14l15 13l15 -17l20 13l13 -21l22 12l11 -20l21 9l10 -23l24 7l7 -22l22 5l5 -24l25 2l2 -23h23v-21l21 -2l-2 -23l22 -4l-4 -24l24 -7l-7 -22l22 -9l-10 -23
l23 -12l-12 -20l20 -13l-13 -21l18 -15l-15 -18l16 -16l-13 -15zM128 137q0 2 1 4.5t1 4.5q1 7 8 14q2 3 5.5 5.5t7.5 4.5q5 2 9.5 3t9.5 1h3q3 0 9 -2q3 0 5 -1l4 -2q7 -4 12 -11q2 -3 4 -7q1 -2 1 -6h-19q0 3 -2 5q-1 3 -6 6t-10 3q-3 0 -5 -1h-4q-2 -2 -8 -6
q-2 -2 -3.5 -4t-2.5 -5q-2 -5 -2 -16q0 -9 3 -16q1 -7 7 -9q3 -2 5.5 -3t5.5 -2h3q7 0 10 3q4 0 7 5q2 3 3.5 5.5t1.5 5.5h-21v16h37v-48h-12l-2 11q-3 -5 -8 -8q-3 -2 -5.5 -2.5t-4.5 -2.5q-3 0 -5.5 -0.5t-5.5 -0.5q-9 0 -14 4q-8 3 -12 9q-6 6 -9 15t-3 19q0 6 1 9z
M345 3h16v-10q6 12 19 12q7 0 10 -3q5 -2 8 -8q2 5 7 8q4 3 10 3q8 0 13 -4q4 -3 7 -8q2 -2 2 -10v-45h-16v39q0 13 -10 13q-11 0 -11 -13v-39h-18v39v6q0 3 -3 6q-2 1 -7 1q-11 0 -11 -12v-40h-16v65zM932 3h16v-10q7 12 19 12q8 0 11 -3q4 -2 7 -8q2 4 8 8q3 3 10 3
q8 0 12 -4q6 -3 7 -8q3 -3 3 -10v-45h-17v39q0 13 -10 13q-11 0 -11 -13v-39h-17v39q0 5 -1 6q0 3 -3 6q-2 1 -6 1q-11 0 -11 -12v-40h-17v65zM856 -17q1 4 2.5 6.5t3.5 5.5q6 6 11 7q4 3 14 3q8 0 14 -3q4 -1 11 -6q2 -2 3 -5t3 -6q2 -4 2 -15q0 -10 -4 -17q-3 -7 -11 -12
q-7 -4 -18 -4q-13 0 -19 5q-7 5 -11 12q-3 7 -3 16t2 13zM615 129q1 6 6 11q6 6 11 8q4 2 14 2t15 -2q2 -2 4.5 -3t4.5 -3q5 -6 7 -12t2 -14q0 -10 -4 -17q-3 -7 -11 -12t-18 -5q-11 0 -19 5q-6 5 -11 13q-3 7 -3 16q0 5 2 13zM125 1v2h17l11 -47l9 47h17l10 -47l10 47h18
l-18 -62l-1 -3h-17l-11 47l-10 -47h-18zM514 1v2h18l10 -47l9 47h17l10 -47l11 47h17l-18 -62v-3h-18l-10 47l-10 -47h-18zM30 1v2h18l10 -47l9 47h18l9 -47l11 47h17l-18 -62v-3h-18l-10 47l-10 -47h-18zM219 1v2h18l10 -47l9 47h18l9 -47l10 47h18l-18 -62l-1 -3h-17
l-10 47l-11 -47h-17zM840 116q6 4 14 6l15 2q6 1 6 5q0 8 -10 8q-4 0 -8 -2q-3 -1 -4 -8h-16q1 9 4 14q2 4 9 7q4 2 7 2h8q13 0 18 -2l4 -4t3 -4q2 -6 2 -8v-35v-7q0 -3 4 -3v-3h-19q-1 0 -1 1v1v1q0 2 -0.5 3t-0.5 2q-2 -3 -5 -5q-2 -1 -3.5 -2t-2.5 -1l-4.5 -1.5
t-4.5 -0.5t-9 2q-2 2 -4 3t-4 3q-3 4 -3 12q0 10 5 14zM454 -30q4 4 13 6l16 2q5 2 5 5q0 8 -10 8q-2 0 -4 -0.5t-4 -0.5l-2 -4t-1 -4h-16q0 7 3 13q6 6 10 7l6 2q2 0 4 0.5t4 0.5q13 0 18 -4q5 -3 8 -7q1 -3 1 -8v-35q0 -5 1 -7q0 -3 3 -3v-3h-18q0 1 -1 2v1q-1 2 -1 5
q-4 -4 -6 -5l-3 -1.5l-3 -1.5t-8 -1q-7 0 -9 1q-5 1 -8 7q-4 3 -4 10q0 10 6 15zM222 134q3 8 10 12q4 3 8.5 3.5t9.5 0.5q13 0 17 -4q6 -4 10 -13q2 -5 2.5 -9t0.5 -9v-4h-45q0 -6 5 -11q3 -4 11 -4q3 0 7 2q4 4 4 5h18q-2 -5 -6 -11q-3 -2 -5.5 -4t-4.5 -3q-4 -1 -6.5 -2
t-6.5 -1q-32 0 -32 36q0 5 0.5 8.5t2.5 7.5zM553 591q5 0 9 1t7 2q7 4 12 11q4 5 4 14q0 7 -2 9q-1 6 -6 9q-4 6 -11 7q-4 3 -14 3q-5 0 -15 -4q-6 -3 -12 -10q-4 -7 -4 -14t2 -10q3 -6 7 -10t11 -6q6 -2 12 -2zM560 510q4 5 4 14q0 6 -2 10t-6 9q-5 5 -11 6q-6 3 -13 3
q-11 0 -16 -4q-5 -2 -7.5 -4.5t-4.5 -5.5q-4 -7 -4 -14q0 -8 2 -11q4 -6 7 -9q2 -2 5 -3t6 -3q8 -2 12 -2q11 0 16 4q6 3 12 10zM702 -41q0 -9 15 -9q5 0 8 1q2 4 2 5q0 4 -7 5l-15 4q-3 1 -6.5 2.5t-5.5 3.5q-6 4 -6 12q0 6 3 11q2 4 9 8q4 3 14 3q6 0 10.5 -1t8.5 -3
q6 -3 8 -8q1 -2 1 -2.5t1 -2.5v-5h-17q0 5 -3 7q-1 1 -8 1q-10 0 -10 -6q0 -3 6 -4l15 -4q6 -1 14 -6q5 -3 5 -12q0 -6 -3 -12q-4 -5 -10 -8q-4 -2 -15 -2h-6q-4 0 -6 1q-6 2 -10 4q-6 4 -7 7q-2 6 -2 10h17zM614 3h17v-10q7 12 20 12q6 0 12 -3q5 -2 7 -7q3 -6 3 -12v-45
h-17v39q0 8 -2 10q-1 3 -9 3q-7 0 -10 -4q-3 -5 -3 -11v-37h-18v65zM691 149h16v-9q7 10 20 10q9 0 12 -2q2 -2 4 -3.5t4 -3.5q3 -6 3 -12v-45h-17v39q0 4 -2 10q-3 3 -10 3t-10 -4q-2 -3 -2 -11v-37h-18v65zM464 84h-16v9q-3 -5 -8 -7q-8 -4 -12 -4q-10 0 -16 7q-6 6 -6 17
v43h17v-40q0 -12 11 -12q4 0 6 1t6 5q0 2 1 4t1 4v38h16v-65zM793 -6q8 11 23 11q9 0 15 -3q7 -2 10 -9q5 -5 5 -13h-18q0 3 -2 7q-2 3 -8 3q-8 0 -10 -5q-4 -4 -4 -13t1 -12q1 -5 4 -7q2 -2 8 -2q5 0 8 2q3 3 3 9h18q0 -5 -4 -13q-3 -5 -10 -9q-6 -3 -16 -3q-13 0 -21 7
q-4 4 -7 10q-1 4 -1 15q0 14 6 25zM378 592h35v2h-2q-6 0 -8 2q-2 1 -2 3v4v15h12l19 -26h20v2h-2q-5 0 -7 1l-3 3q-1 2 -2 3t-2 3l-2 2q0 1 -2 3v2q-3 1 -6 1q-4 2 -5 3l-6 3h9q2 1 4 1t4 1q3 0 7 2q6 4 6 11q0 2 -1 3q-2 4 -3 5q-3 3 -8 3q-6 2 -13 2h-42v-2h2q5 0 7 -2
q3 -2 3 -8v-31q0 -2 -0.5 -4t-2.5 -3q-2 -2 -7 -2h-2v-2zM368 137h-9v12h9v5q0 18 19 18h9v-13h-5q-3 0 -4 -1q-2 0 -2 -2v-7h11v-12h-11v-53h-17v53zM579 137h-9v12h9v5q0 18 19 18h8v-13h-4q-4 0 -4 -1q-1 0 -2 -2v-7h12v-12h-12v-53h-17v53zM908 137h-8v12h8v17h18v-17
h11v-12h-11v-35q0 -2 0.5 -3t0.5 -2q1 0 2 -0.5t3 -0.5l3 1h2v-13h-11q-8 0 -11 2q-4 0 -5 4q0 2 -1 3.5t-1 3.5v40zM294 137h-9v12h9v17h17v-17h10v-12h-10v-35q0 -4 1 -5q1 0 2.5 -0.5t3.5 -0.5l2 1h1v-13h-10q-8 0 -11 2q-4 0 -5 4q-1 2 -1 7v40zM280 592v2h-3
q-10 0 -10 9v14h14h11q6 2 7 3q5 2 5 5q2 2 2 6t-3 9q-4 4 -10 4q-1 1 -4 1h-6q-3 1 -7 1h-32v-2h2q10 0 10 -10v-31q0 -9 -10 -9h-2v-2h36zM768 137h-10v12h10v17h16v-17h11v-12h-11v-35q0 -2 0.5 -3t0.5 -2q2 0 3 -0.5t3 -0.5l2 1h2v-13h-11q-8 0 -10 2q-5 0 -6 4v7v40z
M546 543l2 -4t2 -5q0 -2 0.5 -4.5t0.5 -5.5q0 -6 -2 -14q-3 -6 -7 -10q-3 -2 -10 -2q-6 0 -7 2q-4 0 -7 5q-1 2 -3 8t-2 11q0 2 0.5 4.5t0.5 4.5q1 2 1.5 3.5t1.5 3.5q3 5 4 6q0 1 5 3q4 2 7 2q1 0 1.5 -0.5t2.5 -0.5l4 -2zM567 638l2 -4t2 -5q0 -2 0.5 -4.5t0.5 -5.5
q0 -8 -3 -14q-2 -6 -6 -9q-5 -3 -10 -3t-8 1q-2 2 -3 2.5t-2 2.5q-2 3 -4 9q-1 3 -1.5 5.5t-0.5 5.5q0 2 0.5 4.5t0.5 4.5q1 2 1.5 3.5t1.5 3.5q2 4 4 6q3 3 5 3q2 1 7 1h4q1 -1 1.5 -1t1.5 -1q4 -1 6 -5zM480 172h17v-88h-17v88zM510 172h16v-88h-16v88zM320 642q3 -2 3 -8
v-31q0 -9 -10 -9h-1v-2h58v22h-1q-1 -2 -1 -3.5t-2 -3.5q-2 -5 -5 -8t-5 -3l-6 -2h-16v24h2q7 0 10 -5l3 -3q0 -1 0.5 -1.5t0.5 -2.5q0 -4 1 -5h1v35h-1q-1 -2 -1 -5q0 -5 -3 -6q-3 -6 -10 -6h-3v25h11q8 0 11 -2q4 0 5 -4q2 -1 4 -5q1 -2 1 -4t2 -4h1v21h-57v-2h1q6 0 7 -2
zM464 519q-2 -2 -2 -3.5t-1 -3.5q-4 -6 -6 -8q-3 -3 -5 -3l-5 -2q-3 -1 -7 -1h-9v24h1q7 0 11 -4q1 -1 1 -1.5t1 -1.5q0 -1 0.5 -1.5t0.5 -2.5q1 -2 1 -5h1v35h-1v-5l-1.5 -3l-1.5 -3q-5 -6 -10 -6h-3v25h10q9 0 12 -1q2 -2 2.5 -2t2.5 -2l3 -6q2 -4 3 -8h2v21h-58v-2h2
q5 0 6 -2q3 -2 3 -7v-32q0 -10 -9 -10h-2v-1h58v22zM646 551h-27v-2h5q0 -1 2 -1q4 -4 4 -5q2 -2 2 -8v-23l-38 39h-21v-2h1q4 0 5 -1q2 0 2.5 -1t1.5 -1q1 -2 1 -5v-31q0 -4 -1 -6q-1 -3 -4 -4q-4 -2 -7 -2v-1h28v1q-3 0 -5 1q-2 0 -2.5 0.5t-2.5 0.5q-1 1 -3 5q-1 1 -1 7
v32l46 -47h2v38q0 6 3 11q1 3 9 3v2zM670 592h22v2h-3h-1q-2 1 -2 1.5t-1 1.5q0 1 -0.5 1.5t-0.5 2.5q0 1 0.5 2t0.5 2l1 4h23l1 -2l1 -1v-1l1.5 -3t0.5 -3q1 -1 1 -2q0 -3 -1 -3h-4h-5v-2h32v2h-2h-4q-1 0 -1.5 1t-1.5 1l-2 4l-21 47h-2l-17 -38q-5 -11 -8 -13
q-2 0 -2.5 -1t-1.5 -1h-3v-2zM400 513v5q-1 1 -1.5 2t-1.5 2q-3 2 -7 4q-2 1 -4.5 1.5t-5.5 2.5h-4h-2l-1 1l-8 2q-2 1 -3 1t-2 1q-1 0 -3 2t-2 4q0 3 1 4q0 -1 2 3l4 2q2 0 3 0.5t3 0.5q4 0 8 -2q5 0 8 -3q4 -2 6 -4t2.5 -4.5t2.5 -5.5h2v18h-2q-1 -4 -4 -4t-5 1
q-10 5 -18 5q-5 0 -11 -2q-2 -2 -3.5 -3t-3.5 -2q-3 -5 -3 -9q0 -3 3 -6q0 -1 3 -4q4 -2 7 -3q1 -1 4 -1.5t8 -2.5l4 -1q6 -2 8 -2t4 -2q1 0 2 -1q3 -3 3 -6q0 -1 -2 -5q-1 -1 -5 -4h-6q-6 0 -9 1q-6 2 -10 4l-6 6q-5 7 -5 12h-2v-25h2q0 4 2 4q2 2 5 2q1 0 1 -0.5t2 -0.5
q1 0 1.5 -0.5t2.5 -0.5q3 -2 4.5 -2t3.5 -1t8 -1q3 0 9 2q2 0 3.5 1t3.5 3q2 1 2 2t2 3v6zM491 591q4 0 10 2q4 1 7 4q1 1 1.5 2.5t1.5 2.5q1 2 1 5v5q-2 2 -2 3t-2 2q-2 2 -6 4q-2 1 -4.5 1.5t-6.5 2.5l-5 1h-2q-2 0 -4 1t-4 1t-4 2q-1 0 -3 2q-2 1 -2 4q0 2 1 3q0 1 2 3
q1 2 4 2q2 1 6 1q5 0 8 -1q2 0 4 -1t4 -1q2 -2 3 -2.5t2 -2.5q4 -6 6 -11h1v19h-1q-1 -4 -5 -4h-1q-2 0 -3 1q-10 5 -18 5t-11 -2q-4 -1 -7 -6q-3 -3 -3 -8q0 -4 2 -6q1 -2 2 -2.5t2 -1.5t2.5 -1.5t3.5 -1.5t5 -1.5t8 -2.5l4 -1q2 -1 3.5 -1t3.5 -1l4 -2q3 0 3 -2q3 -2 3 -5
t-2 -5q-3 -3 -5 -3q-2 -1 -7 -1t-9 1q-3 0 -9 4q-3 2 -7 6q-4 8 -5 13h-1v-26h1q2 3 3 4t4 1h3q3 0 5 -2q2 -1 4 -1t4 -1t7 -1zM593 592h28v2h-5q-3 0 -5 2q-3 0 -3 4q-2 4 -2 7v32l47 -48h1v39q0 3 1 6t2 5q3 3 10 3v2h-27v-2h4l4 -2q2 0 4 -4q1 -2 1 -8v-23l-37 39h-22v-2
h6q2 -2 2.5 -2t1.5 -1q1 -2 1 -5v-31q0 -4 -1 -6q-1 -3 -4 -4q-2 -1 -7 -1v-2zM658 130q-3 6 -12 6t-12 -6q-4 -6 -4 -14q0 -7 4 -13q2 -6 12 -6t12 6q4 4 4 13q0 10 -4 14zM899 -15q-3 5 -12 5t-12 -5q-3 -6 -3 -15q0 -7 3 -13t12 -6t12 6q2 3 2.5 6.5t0.5 6.5q0 11 -3 15z
M800 616h-2q0 -2 -1 -3.5t-1 -3.5q-1 -2 -1 -2.5t-1 -2.5l-3 -3q-3 -5 -7 -5q-2 -2 -7 -2h-14v40q0 6 2 8q1 2 8 2h3v2h-36v-2h2q10 0 10 -10v-31q0 -9 -10 -9h-2v-2h60v24zM779 551h-27v-2h3q5 0 6 -1q2 -1 2 -4q0 -2 -3 -6l-11 -15l-14 18l-2 4v1q0 2 1 2q0 1 3 1h5v2h-35
v-2h1q6 0 8 -1l3 -3t2 -3l17 -22v-12q0 -5 -2 -7l-4 -2t-4 -1h-3v-1h38v1h-4q-4 0 -7 3q-3 1 -3 7v13l14 19q2 2 3 4q4 2 5 2q1 2 3 2q2 1 5 1v2zM710 521h-1q-2 -2 -2 -3.5t-1 -3.5q-2 -2 -2 -5q-1 -1 -3 -4q-4 -4 -7 -5q-2 -2 -8 -2h-14v42q0 5 3 7q2 2 7 2h4v2h-37v-2h3
q9 0 9 -9v-32q0 -10 -9 -10h-3v-1h61v24zM340 551h-27v-2h6q1 0 1.5 -0.5t1.5 -0.5q6 -3 6 -13v-19q0 -8 -5 -13q-1 -1 -7 -5h-9q-7 0 -10 2q-2 0 -6 4q-2 2 -2 9v27q0 6 2 7q2 2 8 2h4v2h-37v-2h1q11 0 11 -9v-27q0 -7 6 -13q3 -2 9 -3q3 -1 11 -1t14 2q4 2 6 4q5 4 5 13
v21v7l5 5h1l1 1h4v2zM425 621q-2 -1 -9 -1h-15v24h15q16 0 16 -11q0 -6 -2 -8q0 -2 -5 -4zM289 621q-1 -3 -11 -3h-11v26h16q3 0 5 -2q6 -2 6 -11q0 -7 -5 -10zM482 -33l-8 -1l-6 -3q-3 -3 -3 -7t3 -5q2 -2 6 -2h3q1 0 1.5 0.5t1.5 0.5q2 1 3 2t3 2q2 2 2 7v9q-3 -3 -6 -3z
M868 113l-8 -2q-3 0 -6 -3q-2 -1 -2 -6t2 -5q2 -2 6 -2h4h1q1 0 2 1q4 2 6 4q2 4 2 8v8q-3 -3 -7 -3zM757 -44h18v-18h-18v18zM311 -44h18v-18h-18v18zM263 123q-2 6 -4 10q-2 2 -4 3t-5 1q-11 0 -13 -14h26zM709 610h-22l11 24z" />
    <glyph glyph-name="plus" unicode="+" horiz-adv-x="1083" 
d="M878 549l-18 -15l13 -20l-21 -13l13 -21l-21 -12l9 -21l-23 -10l8 -24l-22 -7l4 -22l-24 -5l2 -25l-23 -2v-23h-20l-3 -21l-22 2l-5 -22l-24 4l-7 -23l-22 7l-8 -23l-24 10l-11 -22l-21 11l-13 -20l-21 13l-14 -18l-18 15l-17 -16l-15 14l-16 -14l-14 18l-20 -13l-14 21
l-21 -12l-11 20l-22 -9l-10 23l-23 -7l-7 22l-23 -5l-5 24l-24 -2l-3 23h-23v21l-20 2l2 23l-23 4l5 24l-24 7l7 22l-22 9l9 23l-22 12l11 20l-19 13l14 21l-19 15l14 18l-16 17l15 14l-14 16l18 15l-13 19l20 14l-11 21l19 11l-8 22l22 10l-7 23l23 7l-5 23l24 5l-3 25
l23 2v23h21l2 21l23 -3l4 23l25 -4l6 23l22 -6l9 21l23 -9l12 22l21 -11l12 20l21 -14l15 19l19 -15l16 16l15 -14l15 13l15 -17l20 13l13 -21l22 12l11 -20l21 9l10 -23l24 7l7 -22l22 5l5 -24l25 2l2 -23h23v-21l21 -2l-2 -23l22 -4l-4 -24l24 -7l-7 -22l22 -9l-10 -23
l23 -12l-12 -20l20 -13l-13 -21l18 -15l-15 -18l16 -16l-13 -15zM128 137q0 2 1 4.5t1 4.5q1 7 8 14q2 3 5.5 5.5t7.5 4.5q5 2 9.5 3t9.5 1h3q3 0 9 -2q3 0 5 -1l4 -2q7 -4 12 -11q2 -3 4 -7q1 -2 1 -6h-19q0 3 -2 5q-1 3 -6 6t-10 3q-3 0 -5 -1h-4q-2 -2 -8 -6
q-2 -2 -3.5 -4t-2.5 -5q-2 -5 -2 -16q0 -9 3 -16q1 -7 7 -9q3 -2 5.5 -3t5.5 -2h3q7 0 10 3q4 0 7 5q2 3 3.5 5.5t1.5 5.5h-21v16h37v-48h-12l-2 11q-3 -5 -8 -8q-3 -2 -5.5 -2.5t-4.5 -2.5q-3 0 -5.5 -0.5t-5.5 -0.5q-9 0 -14 4q-8 3 -12 9q-6 6 -9 15t-3 19q0 6 1 9z
M345 3h16v-10q6 12 19 12q7 0 10 -3q5 -2 8 -8q2 5 7 8q4 3 10 3q8 0 13 -4q4 -3 7 -8q2 -2 2 -10v-45h-16v39q0 13 -10 13q-11 0 -11 -13v-39h-18v39v6q0 3 -3 6q-2 1 -7 1q-11 0 -11 -12v-40h-16v65zM932 3h16v-10q7 12 19 12q8 0 11 -3q4 -2 7 -8q2 4 8 8q3 3 10 3
q8 0 12 -4q6 -3 7 -8q3 -3 3 -10v-45h-17v39q0 13 -10 13q-11 0 -11 -13v-39h-17v39q0 5 -1 6q0 3 -3 6q-2 1 -6 1q-11 0 -11 -12v-40h-17v65zM856 -17q1 4 2.5 6.5t3.5 5.5q6 6 11 7q4 3 14 3q8 0 14 -3q4 -1 11 -6q2 -2 3 -5t3 -6q2 -4 2 -15q0 -10 -4 -17q-3 -7 -11 -12
q-7 -4 -18 -4q-13 0 -19 5q-7 5 -11 12q-3 7 -3 16t2 13zM615 129q1 6 6 11q6 6 11 8q4 2 14 2t15 -2q2 -2 4.5 -3t4.5 -3q5 -6 7 -12t2 -14q0 -10 -4 -17q-3 -7 -11 -12t-18 -5q-11 0 -19 5q-6 5 -11 13q-3 7 -3 16q0 5 2 13zM125 1v2h17l11 -47l9 47h17l10 -47l10 47h18
l-18 -62l-1 -3h-17l-11 47l-10 -47h-18zM514 1v2h18l10 -47l9 47h17l10 -47l11 47h17l-18 -62v-3h-18l-10 47l-10 -47h-18zM30 1v2h18l10 -47l9 47h18l9 -47l11 47h17l-18 -62v-3h-18l-10 47l-10 -47h-18zM219 1v2h18l10 -47l9 47h18l9 -47l10 47h18l-18 -62l-1 -3h-17
l-10 47l-11 -47h-17zM840 116q6 4 14 6l15 2q6 1 6 5q0 8 -10 8q-4 0 -8 -2q-3 -1 -4 -8h-16q1 9 4 14q2 4 9 7q4 2 7 2h8q13 0 18 -2l4 -4t3 -4q2 -6 2 -8v-35v-7q0 -3 4 -3v-3h-19q-1 0 -1 1v1v1q0 2 -0.5 3t-0.5 2q-2 -3 -5 -5q-2 -1 -3.5 -2t-2.5 -1l-4.5 -1.5
t-4.5 -0.5t-9 2q-2 2 -4 3t-4 3q-3 4 -3 12q0 10 5 14zM454 -30q4 4 13 6l16 2q5 2 5 5q0 8 -10 8q-2 0 -4 -0.5t-4 -0.5l-2 -4t-1 -4h-16q0 7 3 13q6 6 10 7l6 2q2 0 4 0.5t4 0.5q13 0 18 -4q5 -3 8 -7q1 -3 1 -8v-35q0 -5 1 -7q0 -3 3 -3v-3h-18q0 1 -1 2v1q-1 2 -1 5
q-4 -4 -6 -5l-3 -1.5l-3 -1.5t-8 -1q-7 0 -9 1q-5 1 -8 7q-4 3 -4 10q0 10 6 15zM222 134q3 8 10 12q4 3 8.5 3.5t9.5 0.5q13 0 17 -4q6 -4 10 -13q2 -5 2.5 -9t0.5 -9v-4h-45q0 -6 5 -11q3 -4 11 -4q3 0 7 2q4 4 4 5h18q-2 -5 -6 -11q-3 -2 -5.5 -4t-4.5 -3q-4 -1 -6.5 -2
t-6.5 -1q-32 0 -32 36q0 5 0.5 8.5t2.5 7.5zM553 591q5 0 9 1t7 2q7 4 12 11q4 5 4 14q0 7 -2 9q-1 6 -6 9q-4 6 -11 7q-4 3 -14 3q-5 0 -15 -4q-6 -3 -12 -10q-4 -7 -4 -14t2 -10q3 -6 7 -10t11 -6q6 -2 12 -2zM560 510q4 5 4 14q0 6 -2 10t-6 9q-5 5 -11 6q-6 3 -13 3
q-11 0 -16 -4q-5 -2 -7.5 -4.5t-4.5 -5.5q-4 -7 -4 -14q0 -8 2 -11q4 -6 7 -9q2 -2 5 -3t6 -3q8 -2 12 -2q11 0 16 4q6 3 12 10zM702 -41q0 -9 15 -9q5 0 8 1q2 4 2 5q0 4 -7 5l-15 4q-3 1 -6.5 2.5t-5.5 3.5q-6 4 -6 12q0 6 3 11q2 4 9 8q4 3 14 3q6 0 10.5 -1t8.5 -3
q6 -3 8 -8q1 -2 1 -2.5t1 -2.5v-5h-17q0 5 -3 7q-1 1 -8 1q-10 0 -10 -6q0 -3 6 -4l15 -4q6 -1 14 -6q5 -3 5 -12q0 -6 -3 -12q-4 -5 -10 -8q-4 -2 -15 -2h-6q-4 0 -6 1q-6 2 -10 4q-6 4 -7 7q-2 6 -2 10h17zM614 3h17v-10q7 12 20 12q6 0 12 -3q5 -2 7 -7q3 -6 3 -12v-45
h-17v39q0 8 -2 10q-1 3 -9 3q-7 0 -10 -4q-3 -5 -3 -11v-37h-18v65zM691 149h16v-9q7 10 20 10q9 0 12 -2q2 -2 4 -3.5t4 -3.5q3 -6 3 -12v-45h-17v39q0 4 -2 10q-3 3 -10 3t-10 -4q-2 -3 -2 -11v-37h-18v65zM464 84h-16v9q-3 -5 -8 -7q-8 -4 -12 -4q-10 0 -16 7q-6 6 -6 17
v43h17v-40q0 -12 11 -12q4 0 6 1t6 5q0 2 1 4t1 4v38h16v-65zM793 -6q8 11 23 11q9 0 15 -3q7 -2 10 -9q5 -5 5 -13h-18q0 3 -2 7q-2 3 -8 3q-8 0 -10 -5q-4 -4 -4 -13t1 -12q1 -5 4 -7q2 -2 8 -2q5 0 8 2q3 3 3 9h18q0 -5 -4 -13q-3 -5 -10 -9q-6 -3 -16 -3q-13 0 -21 7
q-4 4 -7 10q-1 4 -1 15q0 14 6 25zM378 592h35v2h-2q-6 0 -8 2q-2 1 -2 3v4v15h12l19 -26h20v2h-2q-5 0 -7 1l-3 3q-1 2 -2 3t-2 3l-2 2q0 1 -2 3v2q-3 1 -6 1q-4 2 -5 3l-6 3h9q2 1 4 1t4 1q3 0 7 2q6 4 6 11q0 2 -1 3q-2 4 -3 5q-3 3 -8 3q-6 2 -13 2h-42v-2h2q5 0 7 -2
q3 -2 3 -8v-31q0 -2 -0.5 -4t-2.5 -3q-2 -2 -7 -2h-2v-2zM368 137h-9v12h9v5q0 18 19 18h9v-13h-5q-3 0 -4 -1q-2 0 -2 -2v-7h11v-12h-11v-53h-17v53zM579 137h-9v12h9v5q0 18 19 18h8v-13h-4q-4 0 -4 -1q-1 0 -2 -2v-7h12v-12h-12v-53h-17v53zM908 137h-8v12h8v17h18v-17
h11v-12h-11v-35q0 -2 0.5 -3t0.5 -2q1 0 2 -0.5t3 -0.5l3 1h2v-13h-11q-8 0 -11 2q-4 0 -5 4q0 2 -1 3.5t-1 3.5v40zM294 137h-9v12h9v17h17v-17h10v-12h-10v-35q0 -4 1 -5q1 0 2.5 -0.5t3.5 -0.5l2 1h1v-13h-10q-8 0 -11 2q-4 0 -5 4q-1 2 -1 7v40zM280 592v2h-3
q-10 0 -10 9v14h14h11q6 2 7 3q5 2 5 5q2 2 2 6t-3 9q-4 4 -10 4q-1 1 -4 1h-6q-3 1 -7 1h-32v-2h2q10 0 10 -10v-31q0 -9 -10 -9h-2v-2h36zM768 137h-10v12h10v17h16v-17h11v-12h-11v-35q0 -2 0.5 -3t0.5 -2q2 0 3 -0.5t3 -0.5l2 1h2v-13h-11q-8 0 -10 2q-5 0 -6 4v7v40z
M546 543l2 -4t2 -5q0 -2 0.5 -4.5t0.5 -5.5q0 -6 -2 -14q-3 -6 -7 -10q-3 -2 -10 -2q-6 0 -7 2q-4 0 -7 5q-1 2 -3 8t-2 11q0 2 0.5 4.5t0.5 4.5q1 2 1.5 3.5t1.5 3.5q3 5 4 6q0 1 5 3q4 2 7 2q1 0 1.5 -0.5t2.5 -0.5l4 -2zM567 638l2 -4t2 -5q0 -2 0.5 -4.5t0.5 -5.5
q0 -8 -3 -14q-2 -6 -6 -9q-5 -3 -10 -3t-8 1q-2 2 -3 2.5t-2 2.5q-2 3 -4 9q-1 3 -1.5 5.5t-0.5 5.5q0 2 0.5 4.5t0.5 4.5q1 2 1.5 3.5t1.5 3.5q2 4 4 6q3 3 5 3q2 1 7 1h4q1 -1 1.5 -1t1.5 -1q4 -1 6 -5zM480 172h17v-88h-17v88zM510 172h16v-88h-16v88zM320 642q3 -2 3 -8
v-31q0 -9 -10 -9h-1v-2h58v22h-1q-1 -2 -1 -3.5t-2 -3.5q-2 -5 -5 -8t-5 -3l-6 -2h-16v24h2q7 0 10 -5l3 -3q0 -1 0.5 -1.5t0.5 -2.5q0 -4 1 -5h1v35h-1q-1 -2 -1 -5q0 -5 -3 -6q-3 -6 -10 -6h-3v25h11q8 0 11 -2q4 0 5 -4q2 -1 4 -5q1 -2 1 -4t2 -4h1v21h-57v-2h1q6 0 7 -2
zM464 519q-2 -2 -2 -3.5t-1 -3.5q-4 -6 -6 -8q-3 -3 -5 -3l-5 -2q-3 -1 -7 -1h-9v24h1q7 0 11 -4q1 -1 1 -1.5t1 -1.5q0 -1 0.5 -1.5t0.5 -2.5q1 -2 1 -5h1v35h-1v-5l-1.5 -3l-1.5 -3q-5 -6 -10 -6h-3v25h10q9 0 12 -1q2 -2 2.5 -2t2.5 -2l3 -6q2 -4 3 -8h2v21h-58v-2h2
q5 0 6 -2q3 -2 3 -7v-32q0 -10 -9 -10h-2v-1h58v22zM646 551h-27v-2h5q0 -1 2 -1q4 -4 4 -5q2 -2 2 -8v-23l-38 39h-21v-2h1q4 0 5 -1q2 0 2.5 -1t1.5 -1q1 -2 1 -5v-31q0 -4 -1 -6q-1 -3 -4 -4q-4 -2 -7 -2v-1h28v1q-3 0 -5 1q-2 0 -2.5 0.5t-2.5 0.5q-1 1 -3 5q-1 1 -1 7
v32l46 -47h2v38q0 6 3 11q1 3 9 3v2zM670 592h22v2h-3h-1q-2 1 -2 1.5t-1 1.5q0 1 -0.5 1.5t-0.5 2.5q0 1 0.5 2t0.5 2l1 4h23l1 -2l1 -1v-1l1.5 -3t0.5 -3q1 -1 1 -2q0 -3 -1 -3h-4h-5v-2h32v2h-2h-4q-1 0 -1.5 1t-1.5 1l-2 4l-21 47h-2l-17 -38q-5 -11 -8 -13
q-2 0 -2.5 -1t-1.5 -1h-3v-2zM400 513v5q-1 1 -1.5 2t-1.5 2q-3 2 -7 4q-2 1 -4.5 1.5t-5.5 2.5h-4h-2l-1 1l-8 2q-2 1 -3 1t-2 1q-1 0 -3 2t-2 4q0 3 1 4q0 -1 2 3l4 2q2 0 3 0.5t3 0.5q4 0 8 -2q5 0 8 -3q4 -2 6 -4t2.5 -4.5t2.5 -5.5h2v18h-2q-1 -4 -4 -4t-5 1
q-10 5 -18 5q-5 0 -11 -2q-2 -2 -3.5 -3t-3.5 -2q-3 -5 -3 -9q0 -3 3 -6q0 -1 3 -4q4 -2 7 -3q1 -1 4 -1.5t8 -2.5l4 -1q6 -2 8 -2t4 -2q1 0 2 -1q3 -3 3 -6q0 -1 -2 -5q-1 -1 -5 -4h-6q-6 0 -9 1q-6 2 -10 4l-6 6q-5 7 -5 12h-2v-25h2q0 4 2 4q2 2 5 2q1 0 1 -0.5t2 -0.5
q1 0 1.5 -0.5t2.5 -0.5q3 -2 4.5 -2t3.5 -1t8 -1q3 0 9 2q2 0 3.5 1t3.5 3q2 1 2 2t2 3v6zM491 591q4 0 10 2q4 1 7 4q1 1 1.5 2.5t1.5 2.5q1 2 1 5v5q-2 2 -2 3t-2 2q-2 2 -6 4q-2 1 -4.5 1.5t-6.5 2.5l-5 1h-2q-2 0 -4 1t-4 1t-4 2q-1 0 -3 2q-2 1 -2 4q0 2 1 3q0 1 2 3
q1 2 4 2q2 1 6 1q5 0 8 -1q2 0 4 -1t4 -1q2 -2 3 -2.5t2 -2.5q4 -6 6 -11h1v19h-1q-1 -4 -5 -4h-1q-2 0 -3 1q-10 5 -18 5t-11 -2q-4 -1 -7 -6q-3 -3 -3 -8q0 -4 2 -6q1 -2 2 -2.5t2 -1.5t2.5 -1.5t3.5 -1.5t5 -1.5t8 -2.5l4 -1q2 -1 3.5 -1t3.5 -1l4 -2q3 0 3 -2q3 -2 3 -5
t-2 -5q-3 -3 -5 -3q-2 -1 -7 -1t-9 1q-3 0 -9 4q-3 2 -7 6q-4 8 -5 13h-1v-26h1q2 3 3 4t4 1h3q3 0 5 -2q2 -1 4 -1t4 -1t7 -1zM593 592h28v2h-5q-3 0 -5 2q-3 0 -3 4q-2 4 -2 7v32l47 -48h1v39q0 3 1 6t2 5q3 3 10 3v2h-27v-2h4l4 -2q2 0 4 -4q1 -2 1 -8v-23l-37 39h-22v-2
h6q2 -2 2.5 -2t1.5 -1q1 -2 1 -5v-31q0 -4 -1 -6q-1 -3 -4 -4q-2 -1 -7 -1v-2zM658 130q-3 6 -12 6t-12 -6q-4 -6 -4 -14q0 -7 4 -13q2 -6 12 -6t12 6q4 4 4 13q0 10 -4 14zM899 -15q-3 5 -12 5t-12 -5q-3 -6 -3 -15q0 -7 3 -13t12 -6t12 6q2 3 2.5 6.5t0.5 6.5q0 11 -3 15z
M800 616h-2q0 -2 -1 -3.5t-1 -3.5q-1 -2 -1 -2.5t-1 -2.5l-3 -3q-3 -5 -7 -5q-2 -2 -7 -2h-14v40q0 6 2 8q1 2 8 2h3v2h-36v-2h2q10 0 10 -10v-31q0 -9 -10 -9h-2v-2h60v24zM779 551h-27v-2h3q5 0 6 -1q2 -1 2 -4q0 -2 -3 -6l-11 -15l-14 18l-2 4v1q0 2 1 2q0 1 3 1h5v2h-35
v-2h1q6 0 8 -1l3 -3t2 -3l17 -22v-12q0 -5 -2 -7l-4 -2t-4 -1h-3v-1h38v1h-4q-4 0 -7 3q-3 1 -3 7v13l14 19q2 2 3 4q4 2 5 2q1 2 3 2q2 1 5 1v2zM710 521h-1q-2 -2 -2 -3.5t-1 -3.5q-2 -2 -2 -5q-1 -1 -3 -4q-4 -4 -7 -5q-2 -2 -8 -2h-14v42q0 5 3 7q2 2 7 2h4v2h-37v-2h3
q9 0 9 -9v-32q0 -10 -9 -10h-3v-1h61v24zM340 551h-27v-2h6q1 0 1.5 -0.5t1.5 -0.5q6 -3 6 -13v-19q0 -8 -5 -13q-1 -1 -7 -5h-9q-7 0 -10 2q-2 0 -6 4q-2 2 -2 9v27q0 6 2 7q2 2 8 2h4v2h-37v-2h1q11 0 11 -9v-27q0 -7 6 -13q3 -2 9 -3q3 -1 11 -1t14 2q4 2 6 4q5 4 5 13
v21v7l5 5h1l1 1h4v2zM425 621q-2 -1 -9 -1h-15v24h15q16 0 16 -11q0 -6 -2 -8q0 -2 -5 -4zM289 621q-1 -3 -11 -3h-11v26h16q3 0 5 -2q6 -2 6 -11q0 -7 -5 -10zM482 -33l-8 -1l-6 -3q-3 -3 -3 -7t3 -5q2 -2 6 -2h3q1 0 1.5 0.5t1.5 0.5q2 1 3 2t3 2q2 2 2 7v9q-3 -3 -6 -3z
M868 113l-8 -2q-3 0 -6 -3q-2 -1 -2 -6t2 -5q2 -2 6 -2h4h1q1 0 2 1q4 2 6 4q2 4 2 8v8q-3 -3 -7 -3zM757 -44h18v-18h-18v18zM311 -44h18v-18h-18v18zM263 123q-2 6 -4 10q-2 2 -4 3t-5 1q-11 0 -13 -14h26zM709 610h-22l11 24z" />
    <glyph glyph-name="comma" unicode="," horiz-adv-x="175" 
d="M46 134q16 0 25.5 -6t14.5 -15.5t6 -21.5t0 -25q-1 -5 -1.5 -9t-2.5 -9q-5 -22 -13.5 -46t-17 -44t-15.5 -33l-7 -13q-2 2 -8.5 6t-6.5 5l1.5 9t3.5 21.5t4.5 26t4.5 24.5h-2q-24 0 -34.5 20t-6.5 47q3 28 19.5 45.5t35.5 17.5z" />
    <glyph glyph-name="hyphen" unicode="-" horiz-adv-x="412" 
d="M12 208l26 52q19 -5 40 -7.5t47.5 -2.5t59.5 3t77 11q2 -6 2 -16t-1 -19q-1 -11 -3 -23z" />
    <glyph glyph-name="hyphen" unicode="&#xad;" horiz-adv-x="412" 
d="M12 208l26 52q19 -5 40 -7.5t47.5 -2.5t59.5 3t77 11q2 -6 2 -16t-1 -19q-1 -11 -3 -23z" />
    <glyph glyph-name="period" unicode="." horiz-adv-x="175" 
d="M46 134q16 0 25.5 -6t14.5 -15.5t6 -21.5t0 -25q-2 -26 -18.5 -44t-41.5 -18q-24 0 -34.5 20t-6.5 47q3 28 19.5 45.5t35.5 17.5z" />
    <glyph glyph-name="slash" unicode="/" horiz-adv-x="527" 
d="M32 -48q40 67 86.5 152t93.5 173.5t90.5 172.5t77.5 150t54.5 106.5t21.5 40.5q2 0 7.5 -5t13.5 -11q8 -7 19 -16q-119 -217 -211 -388q-40 -73 -78 -142.5t-67.5 -124t-48 -87.5t-19.5 -33q-2 0 -7 -1.5t-11.5 -1.5t-12.5 3t-9 12z" />
    <glyph glyph-name="zero" unicode="0" horiz-adv-x="8" 
d="M-551 717q-60 -9 -95.5 -26t-54 -36.5t-24.5 -37t-6 -27.5q-3 10 -3.5 29.5t13.5 42t50 44.5t106 37q55 12 132 6.5t165.5 -19.5t184 -32.5t189.5 -34.5q25 -3 60 -5t74.5 -3t81.5 1t80.5 8t70.5 17t52 29q-14 -22 -42.5 -35.5t-65 -21t-78 -10t-81.5 -2.5
q78 -8 145.5 -7.5t119.5 16.5q76 22 104 51t20 51t-46.5 30t-95.5 -10q38 20 80.5 22.5t77.5 -7.5t56 -30.5t14.5 -46t-46 -53.5t-125.5 -53q-94 -27 -200.5 -24.5t-216 21t-218.5 45.5t-207 47q-63 8 -108 5t-77.5 -12t-55 -22t-40.5 -26q-14 -10 -27.5 -12t-20.5 2
t-5.5 12t16.5 19q47 32 106 42.5t117 8.5q-50 8 -94 10t-82 -3zM-729 581q0 -1 -1 1.5t-1 7.5q3 -9 2 -9z" />
    <glyph glyph-name="one" unicode="1" horiz-adv-x="26" 
d="M26 187q-18 -44 -43.5 -95t-66 -100t-99 -93t-141 -75t-192.5 -45.5t-253 -5.5q-119 8 -223 12t-196 5q-83 -4 -153 -13.5t-131 -25t-115 -36.5t-104 -49q49 47 111 75t124 44q-5 -1 -10 -1t-10 -1q-65 -11 -135.5 -31.5t-133.5 -54t-111 -82.5t-67 -116q3 43 16 78.5
t34 65t48.5 52t57.5 40.5q-42 -13 -73.5 -29t-55.5 -36q-39 -32 -62.5 -71t-33 -77t-5.5 -71.5t20.5 -55t45 -27.5t68.5 11q-29 -31 -68 -34t-74.5 14.5t-62.5 53.5t-33 83t15 103t82 114q38 37 84.5 63t100.5 44q-28 0 -58 1.5t-58 5.5t-52.5 10.5t-40.5 16.5
q-17 11 -21.5 27.5t1.5 26.5t20.5 8.5t35.5 -25.5q12 -14 38.5 -24t60.5 -16t71 -9t71 -4q94 21 207 26t243.5 0t278.5 -16.5t311 -21.5q141 -9 245 8t179 49.5t125 75.5t82 86.5t51 82.5t32 63q1 2 5 2t8 -1t7 -2.5t3 -2.5zM-1646 -159q-2 3 -19 -2q21 0 19 2z" />
    <glyph glyph-name="two" unicode="2" horiz-adv-x="27" 
d="M26 187q-18 -51 -56.5 -104t-98 -102t-140 -91t-181.5 -71t-223.5 -42t-265.5 -4q-204 14 -409 23.5t-394 12.5q-94 -3 -172.5 -12t-146.5 -24.5t-127 -38t-113 -52.5q53 50 120 79t133 44q-44 -6 -93.5 -16.5t-98.5 -26.5t-96 -38.5t-86 -52.5t-68 -69t-43 -87
q3 56 24 99.5t53 76.5t72 56.5t82 39.5q-64 -9 -109 -22.5t-68 -32.5q-39 -32 -64.5 -71t-38 -77.5t-12 -72.5t14 -55.5t40 -27.5t66.5 11q-29 -31 -69 -33t-77 17.5t-66 57.5t-36.5 87t12.5 106t81 115q42 41 114.5 65t167.5 36t208.5 13t238 -4.5t256 -15.5t262.5 -21
t258 -21t242 -15q162 -7 286.5 11t218.5 50.5t160 74.5t110.5 85t70 81.5t38.5 62.5q1 2 5 2t8 -1t7 -2.5t3 -2.5z" />
    <glyph glyph-name="three" unicode="3" horiz-adv-x="27" 
d="M26 187q-18 -51 -52 -106t-98.5 -106.5t-168 -96t-261 -73.5t-376.5 -39t-514 7q-130 7 -278.5 14t-303.5 12t-310.5 7.5t-299.5 1.5q-87 -4 -161 -13t-138.5 -24.5t-120.5 -37.5t-108 -51q48 46 109 74t122 44q-5 -1 -9 -1h-9q-65 -11 -135.5 -31.5t-133 -54t-110 -82.5
t-66.5 -116q3 52 21.5 93.5t47 73.5t64.5 55.5t75 40.5q-57 -9 -96.5 -20t-57.5 -26q-39 -32 -64.5 -71t-38 -77.5t-12 -72.5t14 -55.5t40 -27.5t66.5 11q-29 -31 -69 -33t-77 17.5t-66 57.5t-36.5 87t12.5 106t81 115q26 24 67 42.5t96 32.5q-27 0 -56 2t-56 5.5t-50 10
t-38 16.5q-17 11 -21.5 27.5t1.5 26.5t20.5 8.5t35.5 -25.5q13 -15 42 -25t65 -16t75 -9t73 -3q87 14 192.5 20t223 7t244.5 -3t256 -11t257 -16t248 -18.5t229.5 -18.5t200.5 -16q225 -17 402.5 -14t314.5 20t237 45t171.5 62t118 70.5t75.5 71t44.5 63.5t25.5 47q1 2 5 2
t8 -1t7 -2.5t3 -2.5zM-3146 -115q-2 3 -19 -2q21 0 19 2z" />
    <glyph glyph-name="four" unicode="4" horiz-adv-x="27" 
d="M26 187q-18 -51 -59 -108t-119 -110.5t-200 -99.5t-301.5 -75t-424 -36.5t-566.5 15.5q-99 7 -222.5 13.5t-262.5 12t-289 9t-302 5.5t-301.5 2t-286.5 -3q-33 -5 -71.5 -12.5t-74 -18.5t-62.5 -24.5t-38 -30.5q-18 -26 -32.5 -29.5t-21.5 6t-5 26t18 30.5q20 17 55.5 29
t75.5 20q-52 -2 -100 -4.5t-93 -5.5q-65 -11 -134.5 -32t-131 -54.5t-108 -82t-65.5 -114.5q3 51 20.5 91t45 71.5t62 55.5t72.5 41q-55 -8 -92 -18.5t-54 -23.5q-40 -31 -66 -70t-38.5 -77t-11.5 -72t15 -56.5t40.5 -28.5t66.5 11q-29 -31 -69.5 -32.5t-78.5 19t-67 58.5
t-36.5 87.5t13 105.5t83.5 112q42 37 124 62.5t194.5 42t250.5 24t291.5 8.5t317 -4t326.5 -13t321 -19t301 -22.5t265 -22t214 -19.5q251 -24 450.5 -24.5t355.5 15t272 44t199.5 64t139 75t90.5 76t53.5 67t28.5 48.5q1 2 5 2t8 -1t7 -2.5t3 -2.5zM-3217 -181
q1 1 -4.5 1.5t-14.5 -0.5q17 -3 19 -1z" />
    <glyph glyph-name="five" unicode="5" horiz-adv-x="12" 
d="M-389 -106q21 16 47.5 22t56.5 4t62 -10.5t64 -20.5q41 61 79.5 136t82.5 166l23 -4q-12 -23 -27 -57t-34.5 -75t-43.5 -86t-54 -90q11 -5 22.5 -10.5t22.5 -10.5q31 -15 75.5 -33.5t89 -34t83 -24.5t58.5 -5q-17 -14 -48 -14.5t-73 9.5t-92.5 29t-106.5 45
q-26 13 -50 22l-21 -27q151 -60 260 -93t187 -34.5t131 32.5t94 108q-39 -96 -105.5 -140.5t-158.5 -49t-209.5 25t-258.5 80.5l-4 2q-63 -59 -144.5 -96.5t-189.5 -37.5q-105 0 -155 19.5t-57.5 48t22 61.5t85.5 60q-22 -3 -42 -1t-36.5 11t-28.5 26t-19 44q-3 14 -1 25.5
t6.5 15.5t11 -2.5t12.5 -28.5q9 -33 27.5 -49t40 -22t42 -4t33.5 5q43 16 93.5 26.5t106 13t114 -6t116.5 -29.5q11 13 22 28q-37 14 -66 22t-54 11t-47 2t-44 -4zM-601 -351q113 0 193.5 29t143.5 87q-91 28 -172.5 30.5t-145 -10.5t-104 -36t-47.5 -45t23.5 -38.5
t108.5 -16.5z" />
    <glyph glyph-name="six" unicode="6" horiz-adv-x="12" 
d="M-573 -109q35 16 79.5 21.5t95 3t104 -11.5t105.5 -21q53 62 100 138.5t92 169.5l23 -4q-2 -1 -13 -29t-33 -72t-55.5 -99.5t-80.5 -111.5q18 -5 35.5 -9.5t34.5 -9.5q34 -10 77.5 -21.5t91.5 -23t97 -21.5t92.5 -17t79.5 -10.5t57 -0.5q-28 -13 -78.5 -13.5t-118 9
t-149.5 28t-172 43.5q-19 5 -36.5 10t-34.5 9q-7 -7 -13.5 -14t-13.5 -14q160 -38 290 -65t234.5 -41t186.5 -14.5t147.5 14t117 44.5t94.5 78q-62 -92 -166.5 -134.5t-250 -48t-330 21t-405.5 74.5q-78 -58 -177 -94t-225 -33q-113 3 -174 26.5t-74.5 55.5t16.5 66t99 60
q-36 -3 -68.5 -1.5t-59.5 10.5t-47 25.5t-31 42.5q-6 13 -2.5 24.5t11.5 15.5t18.5 -2t19.5 -28q13 -30 40 -45.5t58.5 -22t63.5 -6t55 3.5q91 23 222 22.5t297 -40.5q2 0 3.5 -0.5t3.5 -0.5l13.5 13.5t13.5 14.5q-64 15 -114 23.5t-92.5 12t-79.5 3t-74 -3.5zM-691 -351
q109 0 198.5 26.5t166.5 80.5q-151 32 -258.5 37t-175 -7t-95 -35t-18 -45.5t55.5 -39.5t126 -17z" />
    <glyph glyph-name="seven" unicode="7" horiz-adv-x="12" 
d="M-751 -119q50 15 114.5 20t137 2t149 -12t150.5 -21q109 124 203 321l23 -4q-2 -1 -13.5 -30t-34.5 -75t-58.5 -103.5t-85.5 -114.5q21 -4 41.5 -7.5t40.5 -7.5q46 -9 106 -19.5t125.5 -20.5t132.5 -19.5t127 -16t108.5 -9t78.5 -0.5q-38 -12 -107 -12.5t-162 8
t-205 25.5t-236 40q-20 4 -38 7t-35 6l-27 -27q214 -33 387 -56.5t312.5 -35.5t249.5 -12t198 13.5t157.5 40.5t127.5 70q-82 -81 -220.5 -120t-329.5 -45.5t-433 15t-531 61.5q-77 -55 -174 -89t-219 -31q-125 3 -207 29.5t-114 60.5t-10 69.5t106.5 57t235.5 21.5t375 -35
q14 -2 26.5 -4t26.5 -4q8 6 14.5 13t13.5 14q-96 16 -170.5 24.5t-136 12t-114.5 3t-106 -2.5zM-406 -243q-156 22 -264 29.5t-176.5 4t-100 -15t-34.5 -27.5t19.5 -33.5t62.5 -32t94 -24t114 -9.5q104 0 190.5 25t161.5 74q-17 2 -33.5 4.5t-33.5 4.5zM-964 -154
q-1 0 8.5 1t20.5 2t19.5 1.5t6 -0.5t-20.5 -4.5t-61 -9.5q-64 -9 -125.5 -12t-113.5 3t-90.5 22t-56.5 46q-8 12 -3.5 22.5t15.5 14t25.5 -2t26.5 -25.5q15 -24 47.5 -38t72 -20.5t80.5 -7t75 1t54.5 4t19.5 2.5z" />
    <glyph glyph-name="eight" unicode="8" horiz-adv-x="8" 
d="M-33 726q-40 38 -45 57.5t10 23t43.5 -7.5t54.5 -34q28 -25 63 -45.5t68 -36.5t59.5 -25.5t37.5 -11.5q-11 0 -43.5 -1t-75 5t-88.5 23t-84 53zM82 566q-25 0 -36.5 12.5t-10.5 26t13 22.5t34 2q23 -8 54 -11t61.5 -3t57 1.5t39.5 3.5q-13 -4 -40 -13t-58 -18.5t-62 -16
t-52 -6.5zM304 623q-1 -1 -3 -1q-2 -1 -3.5 -1t-3.5 -1q10 2 10 3zM264 646h-6h6z" />
    <glyph glyph-name="nine" unicode="9" horiz-adv-x="8" 
d="M389 747q-30 -42 -71.5 -67.5t-81.5 -39.5t-72.5 -19.5t-44.5 -7.5q11 4 35.5 19t53.5 36.5t59 49t53 56.5q21 27 46.5 43.5t41.5 15.5t14.5 -21t-33.5 -65zM307 568q-21 -4 -53 -3t-64 4t-60.5 6.5t-41.5 5.5q12 1 38 4.5t56.5 9.5t61 14.5t51.5 20.5q20 11 33.5 4.5
t17 -19.5t-5 -27.5t-33.5 -19.5zM78 582h2q2 0 3.5 -0.5t4.5 -0.5q-10 0 -10 1zM113 612q-1 0 1 0.5t5 0.5q-3 -1 -6 -1z" />
    <glyph glyph-name="colon" unicode=":" horiz-adv-x="1083" 
d="M878 549l-18 -15l13 -20l-21 -13l13 -21l-21 -12l9 -21l-23 -10l8 -24l-22 -7l4 -22l-24 -5l2 -25l-23 -2v-23h-20l-3 -21l-22 2l-5 -22l-24 4l-7 -23l-22 7l-8 -23l-24 10l-11 -22l-21 11l-13 -20l-21 13l-14 -18l-18 15l-17 -16l-15 14l-16 -14l-14 18l-20 -13l-14 21
l-21 -12l-11 20l-22 -9l-10 23l-23 -7l-7 22l-23 -5l-5 24l-24 -2l-3 23h-23v21l-20 2l2 23l-23 4l5 24l-24 7l7 22l-22 9l9 23l-22 12l11 20l-19 13l14 21l-19 15l14 18l-16 17l15 14l-14 16l18 15l-13 19l20 14l-11 21l19 11l-8 22l22 10l-7 23l23 7l-5 23l24 5l-3 25
l23 2v23h21l2 21l23 -3l4 23l25 -4l6 23l22 -6l9 21l23 -9l12 22l21 -11l12 20l21 -14l15 19l19 -15l16 16l15 -14l15 13l15 -17l20 13l13 -21l22 12l11 -20l21 9l10 -23l24 7l7 -22l22 5l5 -24l25 2l2 -23h23v-21l21 -2l-2 -23l22 -4l-4 -24l24 -7l-7 -22l22 -9l-10 -23
l23 -12l-12 -20l20 -13l-13 -21l18 -15l-15 -18l16 -16l-13 -15zM128 137q0 2 1 4.5t1 4.5q1 7 8 14q2 3 5.5 5.5t7.5 4.5q5 2 9.5 3t9.5 1h3q3 0 9 -2q3 0 5 -1l4 -2q7 -4 12 -11q2 -3 4 -7q1 -2 1 -6h-19q0 3 -2 5q-1 3 -6 6t-10 3q-3 0 -5 -1h-4q-2 -2 -8 -6
q-2 -2 -3.5 -4t-2.5 -5q-2 -5 -2 -16q0 -9 3 -16q1 -7 7 -9q3 -2 5.5 -3t5.5 -2h3q7 0 10 3q4 0 7 5q2 3 3.5 5.5t1.5 5.5h-21v16h37v-48h-12l-2 11q-3 -5 -8 -8q-3 -2 -5.5 -2.5t-4.5 -2.5q-3 0 -5.5 -0.5t-5.5 -0.5q-9 0 -14 4q-8 3 -12 9q-6 6 -9 15t-3 19q0 6 1 9z
M345 3h16v-10q6 12 19 12q7 0 10 -3q5 -2 8 -8q2 5 7 8q4 3 10 3q8 0 13 -4q4 -3 7 -8q2 -2 2 -10v-45h-16v39q0 13 -10 13q-11 0 -11 -13v-39h-18v39v6q0 3 -3 6q-2 1 -7 1q-11 0 -11 -12v-40h-16v65zM932 3h16v-10q7 12 19 12q8 0 11 -3q4 -2 7 -8q2 4 8 8q3 3 10 3
q8 0 12 -4q6 -3 7 -8q3 -3 3 -10v-45h-17v39q0 13 -10 13q-11 0 -11 -13v-39h-17v39q0 5 -1 6q0 3 -3 6q-2 1 -6 1q-11 0 -11 -12v-40h-17v65zM856 -17q1 4 2.5 6.5t3.5 5.5q6 6 11 7q4 3 14 3q8 0 14 -3q4 -1 11 -6q2 -2 3 -5t3 -6q2 -4 2 -15q0 -10 -4 -17q-3 -7 -11 -12
q-7 -4 -18 -4q-13 0 -19 5q-7 5 -11 12q-3 7 -3 16t2 13zM615 129q1 6 6 11q6 6 11 8q4 2 14 2t15 -2q2 -2 4.5 -3t4.5 -3q5 -6 7 -12t2 -14q0 -10 -4 -17q-3 -7 -11 -12t-18 -5q-11 0 -19 5q-6 5 -11 13q-3 7 -3 16q0 5 2 13zM125 1v2h17l11 -47l9 47h17l10 -47l10 47h18
l-18 -62l-1 -3h-17l-11 47l-10 -47h-18zM514 1v2h18l10 -47l9 47h17l10 -47l11 47h17l-18 -62v-3h-18l-10 47l-10 -47h-18zM30 1v2h18l10 -47l9 47h18l9 -47l11 47h17l-18 -62v-3h-18l-10 47l-10 -47h-18zM219 1v2h18l10 -47l9 47h18l9 -47l10 47h18l-18 -62l-1 -3h-17
l-10 47l-11 -47h-17zM840 116q6 4 14 6l15 2q6 1 6 5q0 8 -10 8q-4 0 -8 -2q-3 -1 -4 -8h-16q1 9 4 14q2 4 9 7q4 2 7 2h8q13 0 18 -2l4 -4t3 -4q2 -6 2 -8v-35v-7q0 -3 4 -3v-3h-19q-1 0 -1 1v1v1q0 2 -0.5 3t-0.5 2q-2 -3 -5 -5q-2 -1 -3.5 -2t-2.5 -1l-4.5 -1.5
t-4.5 -0.5t-9 2q-2 2 -4 3t-4 3q-3 4 -3 12q0 10 5 14zM454 -30q4 4 13 6l16 2q5 2 5 5q0 8 -10 8q-2 0 -4 -0.5t-4 -0.5l-2 -4t-1 -4h-16q0 7 3 13q6 6 10 7l6 2q2 0 4 0.5t4 0.5q13 0 18 -4q5 -3 8 -7q1 -3 1 -8v-35q0 -5 1 -7q0 -3 3 -3v-3h-18q0 1 -1 2v1q-1 2 -1 5
q-4 -4 -6 -5l-3 -1.5l-3 -1.5t-8 -1q-7 0 -9 1q-5 1 -8 7q-4 3 -4 10q0 10 6 15zM222 134q3 8 10 12q4 3 8.5 3.5t9.5 0.5q13 0 17 -4q6 -4 10 -13q2 -5 2.5 -9t0.5 -9v-4h-45q0 -6 5 -11q3 -4 11 -4q3 0 7 2q4 4 4 5h18q-2 -5 -6 -11q-3 -2 -5.5 -4t-4.5 -3q-4 -1 -6.5 -2
t-6.5 -1q-32 0 -32 36q0 5 0.5 8.5t2.5 7.5zM553 591q5 0 9 1t7 2q7 4 12 11q4 5 4 14q0 7 -2 9q-1 6 -6 9q-4 6 -11 7q-4 3 -14 3q-5 0 -15 -4q-6 -3 -12 -10q-4 -7 -4 -14t2 -10q3 -6 7 -10t11 -6q6 -2 12 -2zM560 510q4 5 4 14q0 6 -2 10t-6 9q-5 5 -11 6q-6 3 -13 3
q-11 0 -16 -4q-5 -2 -7.5 -4.5t-4.5 -5.5q-4 -7 -4 -14q0 -8 2 -11q4 -6 7 -9q2 -2 5 -3t6 -3q8 -2 12 -2q11 0 16 4q6 3 12 10zM702 -41q0 -9 15 -9q5 0 8 1q2 4 2 5q0 4 -7 5l-15 4q-3 1 -6.5 2.5t-5.5 3.5q-6 4 -6 12q0 6 3 11q2 4 9 8q4 3 14 3q6 0 10.5 -1t8.5 -3
q6 -3 8 -8q1 -2 1 -2.5t1 -2.5v-5h-17q0 5 -3 7q-1 1 -8 1q-10 0 -10 -6q0 -3 6 -4l15 -4q6 -1 14 -6q5 -3 5 -12q0 -6 -3 -12q-4 -5 -10 -8q-4 -2 -15 -2h-6q-4 0 -6 1q-6 2 -10 4q-6 4 -7 7q-2 6 -2 10h17zM614 3h17v-10q7 12 20 12q6 0 12 -3q5 -2 7 -7q3 -6 3 -12v-45
h-17v39q0 8 -2 10q-1 3 -9 3q-7 0 -10 -4q-3 -5 -3 -11v-37h-18v65zM691 149h16v-9q7 10 20 10q9 0 12 -2q2 -2 4 -3.5t4 -3.5q3 -6 3 -12v-45h-17v39q0 4 -2 10q-3 3 -10 3t-10 -4q-2 -3 -2 -11v-37h-18v65zM464 84h-16v9q-3 -5 -8 -7q-8 -4 -12 -4q-10 0 -16 7q-6 6 -6 17
v43h17v-40q0 -12 11 -12q4 0 6 1t6 5q0 2 1 4t1 4v38h16v-65zM793 -6q8 11 23 11q9 0 15 -3q7 -2 10 -9q5 -5 5 -13h-18q0 3 -2 7q-2 3 -8 3q-8 0 -10 -5q-4 -4 -4 -13t1 -12q1 -5 4 -7q2 -2 8 -2q5 0 8 2q3 3 3 9h18q0 -5 -4 -13q-3 -5 -10 -9q-6 -3 -16 -3q-13 0 -21 7
q-4 4 -7 10q-1 4 -1 15q0 14 6 25zM378 592h35v2h-2q-6 0 -8 2q-2 1 -2 3v4v15h12l19 -26h20v2h-2q-5 0 -7 1l-3 3q-1 2 -2 3t-2 3l-2 2q0 1 -2 3v2q-3 1 -6 1q-4 2 -5 3l-6 3h9q2 1 4 1t4 1q3 0 7 2q6 4 6 11q0 2 -1 3q-2 4 -3 5q-3 3 -8 3q-6 2 -13 2h-42v-2h2q5 0 7 -2
q3 -2 3 -8v-31q0 -2 -0.5 -4t-2.5 -3q-2 -2 -7 -2h-2v-2zM368 137h-9v12h9v5q0 18 19 18h9v-13h-5q-3 0 -4 -1q-2 0 -2 -2v-7h11v-12h-11v-53h-17v53zM579 137h-9v12h9v5q0 18 19 18h8v-13h-4q-4 0 -4 -1q-1 0 -2 -2v-7h12v-12h-12v-53h-17v53zM908 137h-8v12h8v17h18v-17
h11v-12h-11v-35q0 -2 0.5 -3t0.5 -2q1 0 2 -0.5t3 -0.5l3 1h2v-13h-11q-8 0 -11 2q-4 0 -5 4q0 2 -1 3.5t-1 3.5v40zM294 137h-9v12h9v17h17v-17h10v-12h-10v-35q0 -4 1 -5q1 0 2.5 -0.5t3.5 -0.5l2 1h1v-13h-10q-8 0 -11 2q-4 0 -5 4q-1 2 -1 7v40zM280 592v2h-3
q-10 0 -10 9v14h14h11q6 2 7 3q5 2 5 5q2 2 2 6t-3 9q-4 4 -10 4q-1 1 -4 1h-6q-3 1 -7 1h-32v-2h2q10 0 10 -10v-31q0 -9 -10 -9h-2v-2h36zM768 137h-10v12h10v17h16v-17h11v-12h-11v-35q0 -2 0.5 -3t0.5 -2q2 0 3 -0.5t3 -0.5l2 1h2v-13h-11q-8 0 -10 2q-5 0 -6 4v7v40z
M546 543l2 -4t2 -5q0 -2 0.5 -4.5t0.5 -5.5q0 -6 -2 -14q-3 -6 -7 -10q-3 -2 -10 -2q-6 0 -7 2q-4 0 -7 5q-1 2 -3 8t-2 11q0 2 0.5 4.5t0.5 4.5q1 2 1.5 3.5t1.5 3.5q3 5 4 6q0 1 5 3q4 2 7 2q1 0 1.5 -0.5t2.5 -0.5l4 -2zM567 638l2 -4t2 -5q0 -2 0.5 -4.5t0.5 -5.5
q0 -8 -3 -14q-2 -6 -6 -9q-5 -3 -10 -3t-8 1q-2 2 -3 2.5t-2 2.5q-2 3 -4 9q-1 3 -1.5 5.5t-0.5 5.5q0 2 0.5 4.5t0.5 4.5q1 2 1.5 3.5t1.5 3.5q2 4 4 6q3 3 5 3q2 1 7 1h4q1 -1 1.5 -1t1.5 -1q4 -1 6 -5zM480 172h17v-88h-17v88zM510 172h16v-88h-16v88zM320 642q3 -2 3 -8
v-31q0 -9 -10 -9h-1v-2h58v22h-1q-1 -2 -1 -3.5t-2 -3.5q-2 -5 -5 -8t-5 -3l-6 -2h-16v24h2q7 0 10 -5l3 -3q0 -1 0.5 -1.5t0.5 -2.5q0 -4 1 -5h1v35h-1q-1 -2 -1 -5q0 -5 -3 -6q-3 -6 -10 -6h-3v25h11q8 0 11 -2q4 0 5 -4q2 -1 4 -5q1 -2 1 -4t2 -4h1v21h-57v-2h1q6 0 7 -2
zM464 519q-2 -2 -2 -3.5t-1 -3.5q-4 -6 -6 -8q-3 -3 -5 -3l-5 -2q-3 -1 -7 -1h-9v24h1q7 0 11 -4q1 -1 1 -1.5t1 -1.5q0 -1 0.5 -1.5t0.5 -2.5q1 -2 1 -5h1v35h-1v-5l-1.5 -3l-1.5 -3q-5 -6 -10 -6h-3v25h10q9 0 12 -1q2 -2 2.5 -2t2.5 -2l3 -6q2 -4 3 -8h2v21h-58v-2h2
q5 0 6 -2q3 -2 3 -7v-32q0 -10 -9 -10h-2v-1h58v22zM646 551h-27v-2h5q0 -1 2 -1q4 -4 4 -5q2 -2 2 -8v-23l-38 39h-21v-2h1q4 0 5 -1q2 0 2.5 -1t1.5 -1q1 -2 1 -5v-31q0 -4 -1 -6q-1 -3 -4 -4q-4 -2 -7 -2v-1h28v1q-3 0 -5 1q-2 0 -2.5 0.5t-2.5 0.5q-1 1 -3 5q-1 1 -1 7
v32l46 -47h2v38q0 6 3 11q1 3 9 3v2zM670 592h22v2h-3h-1q-2 1 -2 1.5t-1 1.5q0 1 -0.5 1.5t-0.5 2.5q0 1 0.5 2t0.5 2l1 4h23l1 -2l1 -1v-1l1.5 -3t0.5 -3q1 -1 1 -2q0 -3 -1 -3h-4h-5v-2h32v2h-2h-4q-1 0 -1.5 1t-1.5 1l-2 4l-21 47h-2l-17 -38q-5 -11 -8 -13
q-2 0 -2.5 -1t-1.5 -1h-3v-2zM400 513v5q-1 1 -1.5 2t-1.5 2q-3 2 -7 4q-2 1 -4.5 1.5t-5.5 2.5h-4h-2l-1 1l-8 2q-2 1 -3 1t-2 1q-1 0 -3 2t-2 4q0 3 1 4q0 -1 2 3l4 2q2 0 3 0.5t3 0.5q4 0 8 -2q5 0 8 -3q4 -2 6 -4t2.5 -4.5t2.5 -5.5h2v18h-2q-1 -4 -4 -4t-5 1
q-10 5 -18 5q-5 0 -11 -2q-2 -2 -3.5 -3t-3.5 -2q-3 -5 -3 -9q0 -3 3 -6q0 -1 3 -4q4 -2 7 -3q1 -1 4 -1.5t8 -2.5l4 -1q6 -2 8 -2t4 -2q1 0 2 -1q3 -3 3 -6q0 -1 -2 -5q-1 -1 -5 -4h-6q-6 0 -9 1q-6 2 -10 4l-6 6q-5 7 -5 12h-2v-25h2q0 4 2 4q2 2 5 2q1 0 1 -0.5t2 -0.5
q1 0 1.5 -0.5t2.5 -0.5q3 -2 4.5 -2t3.5 -1t8 -1q3 0 9 2q2 0 3.5 1t3.5 3q2 1 2 2t2 3v6zM491 591q4 0 10 2q4 1 7 4q1 1 1.5 2.5t1.5 2.5q1 2 1 5v5q-2 2 -2 3t-2 2q-2 2 -6 4q-2 1 -4.5 1.5t-6.5 2.5l-5 1h-2q-2 0 -4 1t-4 1t-4 2q-1 0 -3 2q-2 1 -2 4q0 2 1 3q0 1 2 3
q1 2 4 2q2 1 6 1q5 0 8 -1q2 0 4 -1t4 -1q2 -2 3 -2.5t2 -2.5q4 -6 6 -11h1v19h-1q-1 -4 -5 -4h-1q-2 0 -3 1q-10 5 -18 5t-11 -2q-4 -1 -7 -6q-3 -3 -3 -8q0 -4 2 -6q1 -2 2 -2.5t2 -1.5t2.5 -1.5t3.5 -1.5t5 -1.5t8 -2.5l4 -1q2 -1 3.5 -1t3.5 -1l4 -2q3 0 3 -2q3 -2 3 -5
t-2 -5q-3 -3 -5 -3q-2 -1 -7 -1t-9 1q-3 0 -9 4q-3 2 -7 6q-4 8 -5 13h-1v-26h1q2 3 3 4t4 1h3q3 0 5 -2q2 -1 4 -1t4 -1t7 -1zM593 592h28v2h-5q-3 0 -5 2q-3 0 -3 4q-2 4 -2 7v32l47 -48h1v39q0 3 1 6t2 5q3 3 10 3v2h-27v-2h4l4 -2q2 0 4 -4q1 -2 1 -8v-23l-37 39h-22v-2
h6q2 -2 2.5 -2t1.5 -1q1 -2 1 -5v-31q0 -4 -1 -6q-1 -3 -4 -4q-2 -1 -7 -1v-2zM658 130q-3 6 -12 6t-12 -6q-4 -6 -4 -14q0 -7 4 -13q2 -6 12 -6t12 6q4 4 4 13q0 10 -4 14zM899 -15q-3 5 -12 5t-12 -5q-3 -6 -3 -15q0 -7 3 -13t12 -6t12 6q2 3 2.5 6.5t0.5 6.5q0 11 -3 15z
M800 616h-2q0 -2 -1 -3.5t-1 -3.5q-1 -2 -1 -2.5t-1 -2.5l-3 -3q-3 -5 -7 -5q-2 -2 -7 -2h-14v40q0 6 2 8q1 2 8 2h3v2h-36v-2h2q10 0 10 -10v-31q0 -9 -10 -9h-2v-2h60v24zM779 551h-27v-2h3q5 0 6 -1q2 -1 2 -4q0 -2 -3 -6l-11 -15l-14 18l-2 4v1q0 2 1 2q0 1 3 1h5v2h-35
v-2h1q6 0 8 -1l3 -3t2 -3l17 -22v-12q0 -5 -2 -7l-4 -2t-4 -1h-3v-1h38v1h-4q-4 0 -7 3q-3 1 -3 7v13l14 19q2 2 3 4q4 2 5 2q1 2 3 2q2 1 5 1v2zM710 521h-1q-2 -2 -2 -3.5t-1 -3.5q-2 -2 -2 -5q-1 -1 -3 -4q-4 -4 -7 -5q-2 -2 -8 -2h-14v42q0 5 3 7q2 2 7 2h4v2h-37v-2h3
q9 0 9 -9v-32q0 -10 -9 -10h-3v-1h61v24zM340 551h-27v-2h6q1 0 1.5 -0.5t1.5 -0.5q6 -3 6 -13v-19q0 -8 -5 -13q-1 -1 -7 -5h-9q-7 0 -10 2q-2 0 -6 4q-2 2 -2 9v27q0 6 2 7q2 2 8 2h4v2h-37v-2h1q11 0 11 -9v-27q0 -7 6 -13q3 -2 9 -3q3 -1 11 -1t14 2q4 2 6 4q5 4 5 13
v21v7l5 5h1l1 1h4v2zM425 621q-2 -1 -9 -1h-15v24h15q16 0 16 -11q0 -6 -2 -8q0 -2 -5 -4zM289 621q-1 -3 -11 -3h-11v26h16q3 0 5 -2q6 -2 6 -11q0 -7 -5 -10zM482 -33l-8 -1l-6 -3q-3 -3 -3 -7t3 -5q2 -2 6 -2h3q1 0 1.5 0.5t1.5 0.5q2 1 3 2t3 2q2 2 2 7v9q-3 -3 -6 -3z
M868 113l-8 -2q-3 0 -6 -3q-2 -1 -2 -6t2 -5q2 -2 6 -2h4h1q1 0 2 1q4 2 6 4q2 4 2 8v8q-3 -3 -7 -3zM757 -44h18v-18h-18v18zM311 -44h18v-18h-18v18zM263 123q-2 6 -4 10q-2 2 -4 3t-5 1q-11 0 -13 -14h26zM709 610h-22l11 24z" />
    <glyph glyph-name="semicolon" unicode=";" horiz-adv-x="1083" 
d="M878 549l-18 -15l13 -20l-21 -13l13 -21l-21 -12l9 -21l-23 -10l8 -24l-22 -7l4 -22l-24 -5l2 -25l-23 -2v-23h-20l-3 -21l-22 2l-5 -22l-24 4l-7 -23l-22 7l-8 -23l-24 10l-11 -22l-21 11l-13 -20l-21 13l-14 -18l-18 15l-17 -16l-15 14l-16 -14l-14 18l-20 -13l-14 21
l-21 -12l-11 20l-22 -9l-10 23l-23 -7l-7 22l-23 -5l-5 24l-24 -2l-3 23h-23v21l-20 2l2 23l-23 4l5 24l-24 7l7 22l-22 9l9 23l-22 12l11 20l-19 13l14 21l-19 15l14 18l-16 17l15 14l-14 16l18 15l-13 19l20 14l-11 21l19 11l-8 22l22 10l-7 23l23 7l-5 23l24 5l-3 25
l23 2v23h21l2 21l23 -3l4 23l25 -4l6 23l22 -6l9 21l23 -9l12 22l21 -11l12 20l21 -14l15 19l19 -15l16 16l15 -14l15 13l15 -17l20 13l13 -21l22 12l11 -20l21 9l10 -23l24 7l7 -22l22 5l5 -24l25 2l2 -23h23v-21l21 -2l-2 -23l22 -4l-4 -24l24 -7l-7 -22l22 -9l-10 -23
l23 -12l-12 -20l20 -13l-13 -21l18 -15l-15 -18l16 -16l-13 -15zM128 137q0 2 1 4.5t1 4.5q1 7 8 14q2 3 5.5 5.5t7.5 4.5q5 2 9.5 3t9.5 1h3q3 0 9 -2q3 0 5 -1l4 -2q7 -4 12 -11q2 -3 4 -7q1 -2 1 -6h-19q0 3 -2 5q-1 3 -6 6t-10 3q-3 0 -5 -1h-4q-2 -2 -8 -6
q-2 -2 -3.5 -4t-2.5 -5q-2 -5 -2 -16q0 -9 3 -16q1 -7 7 -9q3 -2 5.5 -3t5.5 -2h3q7 0 10 3q4 0 7 5q2 3 3.5 5.5t1.5 5.5h-21v16h37v-48h-12l-2 11q-3 -5 -8 -8q-3 -2 -5.5 -2.5t-4.5 -2.5q-3 0 -5.5 -0.5t-5.5 -0.5q-9 0 -14 4q-8 3 -12 9q-6 6 -9 15t-3 19q0 6 1 9z
M345 3h16v-10q6 12 19 12q7 0 10 -3q5 -2 8 -8q2 5 7 8q4 3 10 3q8 0 13 -4q4 -3 7 -8q2 -2 2 -10v-45h-16v39q0 13 -10 13q-11 0 -11 -13v-39h-18v39v6q0 3 -3 6q-2 1 -7 1q-11 0 -11 -12v-40h-16v65zM932 3h16v-10q7 12 19 12q8 0 11 -3q4 -2 7 -8q2 4 8 8q3 3 10 3
q8 0 12 -4q6 -3 7 -8q3 -3 3 -10v-45h-17v39q0 13 -10 13q-11 0 -11 -13v-39h-17v39q0 5 -1 6q0 3 -3 6q-2 1 -6 1q-11 0 -11 -12v-40h-17v65zM856 -17q1 4 2.5 6.5t3.5 5.5q6 6 11 7q4 3 14 3q8 0 14 -3q4 -1 11 -6q2 -2 3 -5t3 -6q2 -4 2 -15q0 -10 -4 -17q-3 -7 -11 -12
q-7 -4 -18 -4q-13 0 -19 5q-7 5 -11 12q-3 7 -3 16t2 13zM615 129q1 6 6 11q6 6 11 8q4 2 14 2t15 -2q2 -2 4.5 -3t4.5 -3q5 -6 7 -12t2 -14q0 -10 -4 -17q-3 -7 -11 -12t-18 -5q-11 0 -19 5q-6 5 -11 13q-3 7 -3 16q0 5 2 13zM125 1v2h17l11 -47l9 47h17l10 -47l10 47h18
l-18 -62l-1 -3h-17l-11 47l-10 -47h-18zM514 1v2h18l10 -47l9 47h17l10 -47l11 47h17l-18 -62v-3h-18l-10 47l-10 -47h-18zM30 1v2h18l10 -47l9 47h18l9 -47l11 47h17l-18 -62v-3h-18l-10 47l-10 -47h-18zM219 1v2h18l10 -47l9 47h18l9 -47l10 47h18l-18 -62l-1 -3h-17
l-10 47l-11 -47h-17zM840 116q6 4 14 6l15 2q6 1 6 5q0 8 -10 8q-4 0 -8 -2q-3 -1 -4 -8h-16q1 9 4 14q2 4 9 7q4 2 7 2h8q13 0 18 -2l4 -4t3 -4q2 -6 2 -8v-35v-7q0 -3 4 -3v-3h-19q-1 0 -1 1v1v1q0 2 -0.5 3t-0.5 2q-2 -3 -5 -5q-2 -1 -3.5 -2t-2.5 -1l-4.5 -1.5
t-4.5 -0.5t-9 2q-2 2 -4 3t-4 3q-3 4 -3 12q0 10 5 14zM454 -30q4 4 13 6l16 2q5 2 5 5q0 8 -10 8q-2 0 -4 -0.5t-4 -0.5l-2 -4t-1 -4h-16q0 7 3 13q6 6 10 7l6 2q2 0 4 0.5t4 0.5q13 0 18 -4q5 -3 8 -7q1 -3 1 -8v-35q0 -5 1 -7q0 -3 3 -3v-3h-18q0 1 -1 2v1q-1 2 -1 5
q-4 -4 -6 -5l-3 -1.5l-3 -1.5t-8 -1q-7 0 -9 1q-5 1 -8 7q-4 3 -4 10q0 10 6 15zM222 134q3 8 10 12q4 3 8.5 3.5t9.5 0.5q13 0 17 -4q6 -4 10 -13q2 -5 2.5 -9t0.5 -9v-4h-45q0 -6 5 -11q3 -4 11 -4q3 0 7 2q4 4 4 5h18q-2 -5 -6 -11q-3 -2 -5.5 -4t-4.5 -3q-4 -1 -6.5 -2
t-6.5 -1q-32 0 -32 36q0 5 0.5 8.5t2.5 7.5zM553 591q5 0 9 1t7 2q7 4 12 11q4 5 4 14q0 7 -2 9q-1 6 -6 9q-4 6 -11 7q-4 3 -14 3q-5 0 -15 -4q-6 -3 -12 -10q-4 -7 -4 -14t2 -10q3 -6 7 -10t11 -6q6 -2 12 -2zM560 510q4 5 4 14q0 6 -2 10t-6 9q-5 5 -11 6q-6 3 -13 3
q-11 0 -16 -4q-5 -2 -7.5 -4.5t-4.5 -5.5q-4 -7 -4 -14q0 -8 2 -11q4 -6 7 -9q2 -2 5 -3t6 -3q8 -2 12 -2q11 0 16 4q6 3 12 10zM702 -41q0 -9 15 -9q5 0 8 1q2 4 2 5q0 4 -7 5l-15 4q-3 1 -6.5 2.5t-5.5 3.5q-6 4 -6 12q0 6 3 11q2 4 9 8q4 3 14 3q6 0 10.5 -1t8.5 -3
q6 -3 8 -8q1 -2 1 -2.5t1 -2.5v-5h-17q0 5 -3 7q-1 1 -8 1q-10 0 -10 -6q0 -3 6 -4l15 -4q6 -1 14 -6q5 -3 5 -12q0 -6 -3 -12q-4 -5 -10 -8q-4 -2 -15 -2h-6q-4 0 -6 1q-6 2 -10 4q-6 4 -7 7q-2 6 -2 10h17zM614 3h17v-10q7 12 20 12q6 0 12 -3q5 -2 7 -7q3 -6 3 -12v-45
h-17v39q0 8 -2 10q-1 3 -9 3q-7 0 -10 -4q-3 -5 -3 -11v-37h-18v65zM691 149h16v-9q7 10 20 10q9 0 12 -2q2 -2 4 -3.5t4 -3.5q3 -6 3 -12v-45h-17v39q0 4 -2 10q-3 3 -10 3t-10 -4q-2 -3 -2 -11v-37h-18v65zM464 84h-16v9q-3 -5 -8 -7q-8 -4 -12 -4q-10 0 -16 7q-6 6 -6 17
v43h17v-40q0 -12 11 -12q4 0 6 1t6 5q0 2 1 4t1 4v38h16v-65zM793 -6q8 11 23 11q9 0 15 -3q7 -2 10 -9q5 -5 5 -13h-18q0 3 -2 7q-2 3 -8 3q-8 0 -10 -5q-4 -4 -4 -13t1 -12q1 -5 4 -7q2 -2 8 -2q5 0 8 2q3 3 3 9h18q0 -5 -4 -13q-3 -5 -10 -9q-6 -3 -16 -3q-13 0 -21 7
q-4 4 -7 10q-1 4 -1 15q0 14 6 25zM378 592h35v2h-2q-6 0 -8 2q-2 1 -2 3v4v15h12l19 -26h20v2h-2q-5 0 -7 1l-3 3q-1 2 -2 3t-2 3l-2 2q0 1 -2 3v2q-3 1 -6 1q-4 2 -5 3l-6 3h9q2 1 4 1t4 1q3 0 7 2q6 4 6 11q0 2 -1 3q-2 4 -3 5q-3 3 -8 3q-6 2 -13 2h-42v-2h2q5 0 7 -2
q3 -2 3 -8v-31q0 -2 -0.5 -4t-2.5 -3q-2 -2 -7 -2h-2v-2zM368 137h-9v12h9v5q0 18 19 18h9v-13h-5q-3 0 -4 -1q-2 0 -2 -2v-7h11v-12h-11v-53h-17v53zM579 137h-9v12h9v5q0 18 19 18h8v-13h-4q-4 0 -4 -1q-1 0 -2 -2v-7h12v-12h-12v-53h-17v53zM908 137h-8v12h8v17h18v-17
h11v-12h-11v-35q0 -2 0.5 -3t0.5 -2q1 0 2 -0.5t3 -0.5l3 1h2v-13h-11q-8 0 -11 2q-4 0 -5 4q0 2 -1 3.5t-1 3.5v40zM294 137h-9v12h9v17h17v-17h10v-12h-10v-35q0 -4 1 -5q1 0 2.5 -0.5t3.5 -0.5l2 1h1v-13h-10q-8 0 -11 2q-4 0 -5 4q-1 2 -1 7v40zM280 592v2h-3
q-10 0 -10 9v14h14h11q6 2 7 3q5 2 5 5q2 2 2 6t-3 9q-4 4 -10 4q-1 1 -4 1h-6q-3 1 -7 1h-32v-2h2q10 0 10 -10v-31q0 -9 -10 -9h-2v-2h36zM768 137h-10v12h10v17h16v-17h11v-12h-11v-35q0 -2 0.5 -3t0.5 -2q2 0 3 -0.5t3 -0.5l2 1h2v-13h-11q-8 0 -10 2q-5 0 -6 4v7v40z
M546 543l2 -4t2 -5q0 -2 0.5 -4.5t0.5 -5.5q0 -6 -2 -14q-3 -6 -7 -10q-3 -2 -10 -2q-6 0 -7 2q-4 0 -7 5q-1 2 -3 8t-2 11q0 2 0.5 4.5t0.5 4.5q1 2 1.5 3.5t1.5 3.5q3 5 4 6q0 1 5 3q4 2 7 2q1 0 1.5 -0.5t2.5 -0.5l4 -2zM567 638l2 -4t2 -5q0 -2 0.5 -4.5t0.5 -5.5
q0 -8 -3 -14q-2 -6 -6 -9q-5 -3 -10 -3t-8 1q-2 2 -3 2.5t-2 2.5q-2 3 -4 9q-1 3 -1.5 5.5t-0.5 5.5q0 2 0.5 4.5t0.5 4.5q1 2 1.5 3.5t1.5 3.5q2 4 4 6q3 3 5 3q2 1 7 1h4q1 -1 1.5 -1t1.5 -1q4 -1 6 -5zM480 172h17v-88h-17v88zM510 172h16v-88h-16v88zM320 642q3 -2 3 -8
v-31q0 -9 -10 -9h-1v-2h58v22h-1q-1 -2 -1 -3.5t-2 -3.5q-2 -5 -5 -8t-5 -3l-6 -2h-16v24h2q7 0 10 -5l3 -3q0 -1 0.5 -1.5t0.5 -2.5q0 -4 1 -5h1v35h-1q-1 -2 -1 -5q0 -5 -3 -6q-3 -6 -10 -6h-3v25h11q8 0 11 -2q4 0 5 -4q2 -1 4 -5q1 -2 1 -4t2 -4h1v21h-57v-2h1q6 0 7 -2
zM464 519q-2 -2 -2 -3.5t-1 -3.5q-4 -6 -6 -8q-3 -3 -5 -3l-5 -2q-3 -1 -7 -1h-9v24h1q7 0 11 -4q1 -1 1 -1.5t1 -1.5q0 -1 0.5 -1.5t0.5 -2.5q1 -2 1 -5h1v35h-1v-5l-1.5 -3l-1.5 -3q-5 -6 -10 -6h-3v25h10q9 0 12 -1q2 -2 2.5 -2t2.5 -2l3 -6q2 -4 3 -8h2v21h-58v-2h2
q5 0 6 -2q3 -2 3 -7v-32q0 -10 -9 -10h-2v-1h58v22zM646 551h-27v-2h5q0 -1 2 -1q4 -4 4 -5q2 -2 2 -8v-23l-38 39h-21v-2h1q4 0 5 -1q2 0 2.5 -1t1.5 -1q1 -2 1 -5v-31q0 -4 -1 -6q-1 -3 -4 -4q-4 -2 -7 -2v-1h28v1q-3 0 -5 1q-2 0 -2.5 0.5t-2.5 0.5q-1 1 -3 5q-1 1 -1 7
v32l46 -47h2v38q0 6 3 11q1 3 9 3v2zM670 592h22v2h-3h-1q-2 1 -2 1.5t-1 1.5q0 1 -0.5 1.5t-0.5 2.5q0 1 0.5 2t0.5 2l1 4h23l1 -2l1 -1v-1l1.5 -3t0.5 -3q1 -1 1 -2q0 -3 -1 -3h-4h-5v-2h32v2h-2h-4q-1 0 -1.5 1t-1.5 1l-2 4l-21 47h-2l-17 -38q-5 -11 -8 -13
q-2 0 -2.5 -1t-1.5 -1h-3v-2zM400 513v5q-1 1 -1.5 2t-1.5 2q-3 2 -7 4q-2 1 -4.5 1.5t-5.5 2.5h-4h-2l-1 1l-8 2q-2 1 -3 1t-2 1q-1 0 -3 2t-2 4q0 3 1 4q0 -1 2 3l4 2q2 0 3 0.5t3 0.5q4 0 8 -2q5 0 8 -3q4 -2 6 -4t2.5 -4.5t2.5 -5.5h2v18h-2q-1 -4 -4 -4t-5 1
q-10 5 -18 5q-5 0 -11 -2q-2 -2 -3.5 -3t-3.5 -2q-3 -5 -3 -9q0 -3 3 -6q0 -1 3 -4q4 -2 7 -3q1 -1 4 -1.5t8 -2.5l4 -1q6 -2 8 -2t4 -2q1 0 2 -1q3 -3 3 -6q0 -1 -2 -5q-1 -1 -5 -4h-6q-6 0 -9 1q-6 2 -10 4l-6 6q-5 7 -5 12h-2v-25h2q0 4 2 4q2 2 5 2q1 0 1 -0.5t2 -0.5
q1 0 1.5 -0.5t2.5 -0.5q3 -2 4.5 -2t3.5 -1t8 -1q3 0 9 2q2 0 3.5 1t3.5 3q2 1 2 2t2 3v6zM491 591q4 0 10 2q4 1 7 4q1 1 1.5 2.5t1.5 2.5q1 2 1 5v5q-2 2 -2 3t-2 2q-2 2 -6 4q-2 1 -4.5 1.5t-6.5 2.5l-5 1h-2q-2 0 -4 1t-4 1t-4 2q-1 0 -3 2q-2 1 -2 4q0 2 1 3q0 1 2 3
q1 2 4 2q2 1 6 1q5 0 8 -1q2 0 4 -1t4 -1q2 -2 3 -2.5t2 -2.5q4 -6 6 -11h1v19h-1q-1 -4 -5 -4h-1q-2 0 -3 1q-10 5 -18 5t-11 -2q-4 -1 -7 -6q-3 -3 -3 -8q0 -4 2 -6q1 -2 2 -2.5t2 -1.5t2.5 -1.5t3.5 -1.5t5 -1.5t8 -2.5l4 -1q2 -1 3.5 -1t3.5 -1l4 -2q3 0 3 -2q3 -2 3 -5
t-2 -5q-3 -3 -5 -3q-2 -1 -7 -1t-9 1q-3 0 -9 4q-3 2 -7 6q-4 8 -5 13h-1v-26h1q2 3 3 4t4 1h3q3 0 5 -2q2 -1 4 -1t4 -1t7 -1zM593 592h28v2h-5q-3 0 -5 2q-3 0 -3 4q-2 4 -2 7v32l47 -48h1v39q0 3 1 6t2 5q3 3 10 3v2h-27v-2h4l4 -2q2 0 4 -4q1 -2 1 -8v-23l-37 39h-22v-2
h6q2 -2 2.5 -2t1.5 -1q1 -2 1 -5v-31q0 -4 -1 -6q-1 -3 -4 -4q-2 -1 -7 -1v-2zM658 130q-3 6 -12 6t-12 -6q-4 -6 -4 -14q0 -7 4 -13q2 -6 12 -6t12 6q4 4 4 13q0 10 -4 14zM899 -15q-3 5 -12 5t-12 -5q-3 -6 -3 -15q0 -7 3 -13t12 -6t12 6q2 3 2.5 6.5t0.5 6.5q0 11 -3 15z
M800 616h-2q0 -2 -1 -3.5t-1 -3.5q-1 -2 -1 -2.5t-1 -2.5l-3 -3q-3 -5 -7 -5q-2 -2 -7 -2h-14v40q0 6 2 8q1 2 8 2h3v2h-36v-2h2q10 0 10 -10v-31q0 -9 -10 -9h-2v-2h60v24zM779 551h-27v-2h3q5 0 6 -1q2 -1 2 -4q0 -2 -3 -6l-11 -15l-14 18l-2 4v1q0 2 1 2q0 1 3 1h5v2h-35
v-2h1q6 0 8 -1l3 -3t2 -3l17 -22v-12q0 -5 -2 -7l-4 -2t-4 -1h-3v-1h38v1h-4q-4 0 -7 3q-3 1 -3 7v13l14 19q2 2 3 4q4 2 5 2q1 2 3 2q2 1 5 1v2zM710 521h-1q-2 -2 -2 -3.5t-1 -3.5q-2 -2 -2 -5q-1 -1 -3 -4q-4 -4 -7 -5q-2 -2 -8 -2h-14v42q0 5 3 7q2 2 7 2h4v2h-37v-2h3
q9 0 9 -9v-32q0 -10 -9 -10h-3v-1h61v24zM340 551h-27v-2h6q1 0 1.5 -0.5t1.5 -0.5q6 -3 6 -13v-19q0 -8 -5 -13q-1 -1 -7 -5h-9q-7 0 -10 2q-2 0 -6 4q-2 2 -2 9v27q0 6 2 7q2 2 8 2h4v2h-37v-2h1q11 0 11 -9v-27q0 -7 6 -13q3 -2 9 -3q3 -1 11 -1t14 2q4 2 6 4q5 4 5 13
v21v7l5 5h1l1 1h4v2zM425 621q-2 -1 -9 -1h-15v24h15q16 0 16 -11q0 -6 -2 -8q0 -2 -5 -4zM289 621q-1 -3 -11 -3h-11v26h16q3 0 5 -2q6 -2 6 -11q0 -7 -5 -10zM482 -33l-8 -1l-6 -3q-3 -3 -3 -7t3 -5q2 -2 6 -2h3q1 0 1.5 0.5t1.5 0.5q2 1 3 2t3 2q2 2 2 7v9q-3 -3 -6 -3z
M868 113l-8 -2q-3 0 -6 -3q-2 -1 -2 -6t2 -5q2 -2 6 -2h4h1q1 0 2 1q4 2 6 4q2 4 2 8v8q-3 -3 -7 -3zM757 -44h18v-18h-18v18zM311 -44h18v-18h-18v18zM263 123q-2 6 -4 10q-2 2 -4 3t-5 1q-11 0 -13 -14h26zM709 610h-22l11 24z" />
    <glyph glyph-name="less" unicode="&#x3c;" horiz-adv-x="1083" 
d="M878 549l-18 -15l13 -20l-21 -13l13 -21l-21 -12l9 -21l-23 -10l8 -24l-22 -7l4 -22l-24 -5l2 -25l-23 -2v-23h-20l-3 -21l-22 2l-5 -22l-24 4l-7 -23l-22 7l-8 -23l-24 10l-11 -22l-21 11l-13 -20l-21 13l-14 -18l-18 15l-17 -16l-15 14l-16 -14l-14 18l-20 -13l-14 21
l-21 -12l-11 20l-22 -9l-10 23l-23 -7l-7 22l-23 -5l-5 24l-24 -2l-3 23h-23v21l-20 2l2 23l-23 4l5 24l-24 7l7 22l-22 9l9 23l-22 12l11 20l-19 13l14 21l-19 15l14 18l-16 17l15 14l-14 16l18 15l-13 19l20 14l-11 21l19 11l-8 22l22 10l-7 23l23 7l-5 23l24 5l-3 25
l23 2v23h21l2 21l23 -3l4 23l25 -4l6 23l22 -6l9 21l23 -9l12 22l21 -11l12 20l21 -14l15 19l19 -15l16 16l15 -14l15 13l15 -17l20 13l13 -21l22 12l11 -20l21 9l10 -23l24 7l7 -22l22 5l5 -24l25 2l2 -23h23v-21l21 -2l-2 -23l22 -4l-4 -24l24 -7l-7 -22l22 -9l-10 -23
l23 -12l-12 -20l20 -13l-13 -21l18 -15l-15 -18l16 -16l-13 -15zM128 137q0 2 1 4.5t1 4.5q1 7 8 14q2 3 5.5 5.5t7.5 4.5q5 2 9.5 3t9.5 1h3q3 0 9 -2q3 0 5 -1l4 -2q7 -4 12 -11q2 -3 4 -7q1 -2 1 -6h-19q0 3 -2 5q-1 3 -6 6t-10 3q-3 0 -5 -1h-4q-2 -2 -8 -6
q-2 -2 -3.5 -4t-2.5 -5q-2 -5 -2 -16q0 -9 3 -16q1 -7 7 -9q3 -2 5.5 -3t5.5 -2h3q7 0 10 3q4 0 7 5q2 3 3.5 5.5t1.5 5.5h-21v16h37v-48h-12l-2 11q-3 -5 -8 -8q-3 -2 -5.5 -2.5t-4.5 -2.5q-3 0 -5.5 -0.5t-5.5 -0.5q-9 0 -14 4q-8 3 -12 9q-6 6 -9 15t-3 19q0 6 1 9z
M345 3h16v-10q6 12 19 12q7 0 10 -3q5 -2 8 -8q2 5 7 8q4 3 10 3q8 0 13 -4q4 -3 7 -8q2 -2 2 -10v-45h-16v39q0 13 -10 13q-11 0 -11 -13v-39h-18v39v6q0 3 -3 6q-2 1 -7 1q-11 0 -11 -12v-40h-16v65zM932 3h16v-10q7 12 19 12q8 0 11 -3q4 -2 7 -8q2 4 8 8q3 3 10 3
q8 0 12 -4q6 -3 7 -8q3 -3 3 -10v-45h-17v39q0 13 -10 13q-11 0 -11 -13v-39h-17v39q0 5 -1 6q0 3 -3 6q-2 1 -6 1q-11 0 -11 -12v-40h-17v65zM856 -17q1 4 2.5 6.5t3.5 5.5q6 6 11 7q4 3 14 3q8 0 14 -3q4 -1 11 -6q2 -2 3 -5t3 -6q2 -4 2 -15q0 -10 -4 -17q-3 -7 -11 -12
q-7 -4 -18 -4q-13 0 -19 5q-7 5 -11 12q-3 7 -3 16t2 13zM615 129q1 6 6 11q6 6 11 8q4 2 14 2t15 -2q2 -2 4.5 -3t4.5 -3q5 -6 7 -12t2 -14q0 -10 -4 -17q-3 -7 -11 -12t-18 -5q-11 0 -19 5q-6 5 -11 13q-3 7 -3 16q0 5 2 13zM125 1v2h17l11 -47l9 47h17l10 -47l10 47h18
l-18 -62l-1 -3h-17l-11 47l-10 -47h-18zM514 1v2h18l10 -47l9 47h17l10 -47l11 47h17l-18 -62v-3h-18l-10 47l-10 -47h-18zM30 1v2h18l10 -47l9 47h18l9 -47l11 47h17l-18 -62v-3h-18l-10 47l-10 -47h-18zM219 1v2h18l10 -47l9 47h18l9 -47l10 47h18l-18 -62l-1 -3h-17
l-10 47l-11 -47h-17zM840 116q6 4 14 6l15 2q6 1 6 5q0 8 -10 8q-4 0 -8 -2q-3 -1 -4 -8h-16q1 9 4 14q2 4 9 7q4 2 7 2h8q13 0 18 -2l4 -4t3 -4q2 -6 2 -8v-35v-7q0 -3 4 -3v-3h-19q-1 0 -1 1v1v1q0 2 -0.5 3t-0.5 2q-2 -3 -5 -5q-2 -1 -3.5 -2t-2.5 -1l-4.5 -1.5
t-4.5 -0.5t-9 2q-2 2 -4 3t-4 3q-3 4 -3 12q0 10 5 14zM454 -30q4 4 13 6l16 2q5 2 5 5q0 8 -10 8q-2 0 -4 -0.5t-4 -0.5l-2 -4t-1 -4h-16q0 7 3 13q6 6 10 7l6 2q2 0 4 0.5t4 0.5q13 0 18 -4q5 -3 8 -7q1 -3 1 -8v-35q0 -5 1 -7q0 -3 3 -3v-3h-18q0 1 -1 2v1q-1 2 -1 5
q-4 -4 -6 -5l-3 -1.5l-3 -1.5t-8 -1q-7 0 -9 1q-5 1 -8 7q-4 3 -4 10q0 10 6 15zM222 134q3 8 10 12q4 3 8.5 3.5t9.5 0.5q13 0 17 -4q6 -4 10 -13q2 -5 2.5 -9t0.5 -9v-4h-45q0 -6 5 -11q3 -4 11 -4q3 0 7 2q4 4 4 5h18q-2 -5 -6 -11q-3 -2 -5.5 -4t-4.5 -3q-4 -1 -6.5 -2
t-6.5 -1q-32 0 -32 36q0 5 0.5 8.5t2.5 7.5zM553 591q5 0 9 1t7 2q7 4 12 11q4 5 4 14q0 7 -2 9q-1 6 -6 9q-4 6 -11 7q-4 3 -14 3q-5 0 -15 -4q-6 -3 -12 -10q-4 -7 -4 -14t2 -10q3 -6 7 -10t11 -6q6 -2 12 -2zM560 510q4 5 4 14q0 6 -2 10t-6 9q-5 5 -11 6q-6 3 -13 3
q-11 0 -16 -4q-5 -2 -7.5 -4.5t-4.5 -5.5q-4 -7 -4 -14q0 -8 2 -11q4 -6 7 -9q2 -2 5 -3t6 -3q8 -2 12 -2q11 0 16 4q6 3 12 10zM702 -41q0 -9 15 -9q5 0 8 1q2 4 2 5q0 4 -7 5l-15 4q-3 1 -6.5 2.5t-5.5 3.5q-6 4 -6 12q0 6 3 11q2 4 9 8q4 3 14 3q6 0 10.5 -1t8.5 -3
q6 -3 8 -8q1 -2 1 -2.5t1 -2.5v-5h-17q0 5 -3 7q-1 1 -8 1q-10 0 -10 -6q0 -3 6 -4l15 -4q6 -1 14 -6q5 -3 5 -12q0 -6 -3 -12q-4 -5 -10 -8q-4 -2 -15 -2h-6q-4 0 -6 1q-6 2 -10 4q-6 4 -7 7q-2 6 -2 10h17zM614 3h17v-10q7 12 20 12q6 0 12 -3q5 -2 7 -7q3 -6 3 -12v-45
h-17v39q0 8 -2 10q-1 3 -9 3q-7 0 -10 -4q-3 -5 -3 -11v-37h-18v65zM691 149h16v-9q7 10 20 10q9 0 12 -2q2 -2 4 -3.5t4 -3.5q3 -6 3 -12v-45h-17v39q0 4 -2 10q-3 3 -10 3t-10 -4q-2 -3 -2 -11v-37h-18v65zM464 84h-16v9q-3 -5 -8 -7q-8 -4 -12 -4q-10 0 -16 7q-6 6 -6 17
v43h17v-40q0 -12 11 -12q4 0 6 1t6 5q0 2 1 4t1 4v38h16v-65zM793 -6q8 11 23 11q9 0 15 -3q7 -2 10 -9q5 -5 5 -13h-18q0 3 -2 7q-2 3 -8 3q-8 0 -10 -5q-4 -4 -4 -13t1 -12q1 -5 4 -7q2 -2 8 -2q5 0 8 2q3 3 3 9h18q0 -5 -4 -13q-3 -5 -10 -9q-6 -3 -16 -3q-13 0 -21 7
q-4 4 -7 10q-1 4 -1 15q0 14 6 25zM378 592h35v2h-2q-6 0 -8 2q-2 1 -2 3v4v15h12l19 -26h20v2h-2q-5 0 -7 1l-3 3q-1 2 -2 3t-2 3l-2 2q0 1 -2 3v2q-3 1 -6 1q-4 2 -5 3l-6 3h9q2 1 4 1t4 1q3 0 7 2q6 4 6 11q0 2 -1 3q-2 4 -3 5q-3 3 -8 3q-6 2 -13 2h-42v-2h2q5 0 7 -2
q3 -2 3 -8v-31q0 -2 -0.5 -4t-2.5 -3q-2 -2 -7 -2h-2v-2zM368 137h-9v12h9v5q0 18 19 18h9v-13h-5q-3 0 -4 -1q-2 0 -2 -2v-7h11v-12h-11v-53h-17v53zM579 137h-9v12h9v5q0 18 19 18h8v-13h-4q-4 0 -4 -1q-1 0 -2 -2v-7h12v-12h-12v-53h-17v53zM908 137h-8v12h8v17h18v-17
h11v-12h-11v-35q0 -2 0.5 -3t0.5 -2q1 0 2 -0.5t3 -0.5l3 1h2v-13h-11q-8 0 -11 2q-4 0 -5 4q0 2 -1 3.5t-1 3.5v40zM294 137h-9v12h9v17h17v-17h10v-12h-10v-35q0 -4 1 -5q1 0 2.5 -0.5t3.5 -0.5l2 1h1v-13h-10q-8 0 -11 2q-4 0 -5 4q-1 2 -1 7v40zM280 592v2h-3
q-10 0 -10 9v14h14h11q6 2 7 3q5 2 5 5q2 2 2 6t-3 9q-4 4 -10 4q-1 1 -4 1h-6q-3 1 -7 1h-32v-2h2q10 0 10 -10v-31q0 -9 -10 -9h-2v-2h36zM768 137h-10v12h10v17h16v-17h11v-12h-11v-35q0 -2 0.5 -3t0.5 -2q2 0 3 -0.5t3 -0.5l2 1h2v-13h-11q-8 0 -10 2q-5 0 -6 4v7v40z
M546 543l2 -4t2 -5q0 -2 0.5 -4.5t0.5 -5.5q0 -6 -2 -14q-3 -6 -7 -10q-3 -2 -10 -2q-6 0 -7 2q-4 0 -7 5q-1 2 -3 8t-2 11q0 2 0.5 4.5t0.5 4.5q1 2 1.5 3.5t1.5 3.5q3 5 4 6q0 1 5 3q4 2 7 2q1 0 1.5 -0.5t2.5 -0.5l4 -2zM567 638l2 -4t2 -5q0 -2 0.5 -4.5t0.5 -5.5
q0 -8 -3 -14q-2 -6 -6 -9q-5 -3 -10 -3t-8 1q-2 2 -3 2.5t-2 2.5q-2 3 -4 9q-1 3 -1.5 5.5t-0.5 5.5q0 2 0.5 4.5t0.5 4.5q1 2 1.5 3.5t1.5 3.5q2 4 4 6q3 3 5 3q2 1 7 1h4q1 -1 1.5 -1t1.5 -1q4 -1 6 -5zM480 172h17v-88h-17v88zM510 172h16v-88h-16v88zM320 642q3 -2 3 -8
v-31q0 -9 -10 -9h-1v-2h58v22h-1q-1 -2 -1 -3.5t-2 -3.5q-2 -5 -5 -8t-5 -3l-6 -2h-16v24h2q7 0 10 -5l3 -3q0 -1 0.5 -1.5t0.5 -2.5q0 -4 1 -5h1v35h-1q-1 -2 -1 -5q0 -5 -3 -6q-3 -6 -10 -6h-3v25h11q8 0 11 -2q4 0 5 -4q2 -1 4 -5q1 -2 1 -4t2 -4h1v21h-57v-2h1q6 0 7 -2
zM464 519q-2 -2 -2 -3.5t-1 -3.5q-4 -6 -6 -8q-3 -3 -5 -3l-5 -2q-3 -1 -7 -1h-9v24h1q7 0 11 -4q1 -1 1 -1.5t1 -1.5q0 -1 0.5 -1.5t0.5 -2.5q1 -2 1 -5h1v35h-1v-5l-1.5 -3l-1.5 -3q-5 -6 -10 -6h-3v25h10q9 0 12 -1q2 -2 2.5 -2t2.5 -2l3 -6q2 -4 3 -8h2v21h-58v-2h2
q5 0 6 -2q3 -2 3 -7v-32q0 -10 -9 -10h-2v-1h58v22zM646 551h-27v-2h5q0 -1 2 -1q4 -4 4 -5q2 -2 2 -8v-23l-38 39h-21v-2h1q4 0 5 -1q2 0 2.5 -1t1.5 -1q1 -2 1 -5v-31q0 -4 -1 -6q-1 -3 -4 -4q-4 -2 -7 -2v-1h28v1q-3 0 -5 1q-2 0 -2.5 0.5t-2.5 0.5q-1 1 -3 5q-1 1 -1 7
v32l46 -47h2v38q0 6 3 11q1 3 9 3v2zM670 592h22v2h-3h-1q-2 1 -2 1.5t-1 1.5q0 1 -0.5 1.5t-0.5 2.5q0 1 0.5 2t0.5 2l1 4h23l1 -2l1 -1v-1l1.5 -3t0.5 -3q1 -1 1 -2q0 -3 -1 -3h-4h-5v-2h32v2h-2h-4q-1 0 -1.5 1t-1.5 1l-2 4l-21 47h-2l-17 -38q-5 -11 -8 -13
q-2 0 -2.5 -1t-1.5 -1h-3v-2zM400 513v5q-1 1 -1.5 2t-1.5 2q-3 2 -7 4q-2 1 -4.5 1.5t-5.5 2.5h-4h-2l-1 1l-8 2q-2 1 -3 1t-2 1q-1 0 -3 2t-2 4q0 3 1 4q0 -1 2 3l4 2q2 0 3 0.5t3 0.5q4 0 8 -2q5 0 8 -3q4 -2 6 -4t2.5 -4.5t2.5 -5.5h2v18h-2q-1 -4 -4 -4t-5 1
q-10 5 -18 5q-5 0 -11 -2q-2 -2 -3.5 -3t-3.5 -2q-3 -5 -3 -9q0 -3 3 -6q0 -1 3 -4q4 -2 7 -3q1 -1 4 -1.5t8 -2.5l4 -1q6 -2 8 -2t4 -2q1 0 2 -1q3 -3 3 -6q0 -1 -2 -5q-1 -1 -5 -4h-6q-6 0 -9 1q-6 2 -10 4l-6 6q-5 7 -5 12h-2v-25h2q0 4 2 4q2 2 5 2q1 0 1 -0.5t2 -0.5
q1 0 1.5 -0.5t2.5 -0.5q3 -2 4.5 -2t3.5 -1t8 -1q3 0 9 2q2 0 3.5 1t3.5 3q2 1 2 2t2 3v6zM491 591q4 0 10 2q4 1 7 4q1 1 1.5 2.5t1.5 2.5q1 2 1 5v5q-2 2 -2 3t-2 2q-2 2 -6 4q-2 1 -4.5 1.5t-6.5 2.5l-5 1h-2q-2 0 -4 1t-4 1t-4 2q-1 0 -3 2q-2 1 -2 4q0 2 1 3q0 1 2 3
q1 2 4 2q2 1 6 1q5 0 8 -1q2 0 4 -1t4 -1q2 -2 3 -2.5t2 -2.5q4 -6 6 -11h1v19h-1q-1 -4 -5 -4h-1q-2 0 -3 1q-10 5 -18 5t-11 -2q-4 -1 -7 -6q-3 -3 -3 -8q0 -4 2 -6q1 -2 2 -2.5t2 -1.5t2.5 -1.5t3.5 -1.5t5 -1.5t8 -2.5l4 -1q2 -1 3.5 -1t3.5 -1l4 -2q3 0 3 -2q3 -2 3 -5
t-2 -5q-3 -3 -5 -3q-2 -1 -7 -1t-9 1q-3 0 -9 4q-3 2 -7 6q-4 8 -5 13h-1v-26h1q2 3 3 4t4 1h3q3 0 5 -2q2 -1 4 -1t4 -1t7 -1zM593 592h28v2h-5q-3 0 -5 2q-3 0 -3 4q-2 4 -2 7v32l47 -48h1v39q0 3 1 6t2 5q3 3 10 3v2h-27v-2h4l4 -2q2 0 4 -4q1 -2 1 -8v-23l-37 39h-22v-2
h6q2 -2 2.5 -2t1.5 -1q1 -2 1 -5v-31q0 -4 -1 -6q-1 -3 -4 -4q-2 -1 -7 -1v-2zM658 130q-3 6 -12 6t-12 -6q-4 -6 -4 -14q0 -7 4 -13q2 -6 12 -6t12 6q4 4 4 13q0 10 -4 14zM899 -15q-3 5 -12 5t-12 -5q-3 -6 -3 -15q0 -7 3 -13t12 -6t12 6q2 3 2.5 6.5t0.5 6.5q0 11 -3 15z
M800 616h-2q0 -2 -1 -3.5t-1 -3.5q-1 -2 -1 -2.5t-1 -2.5l-3 -3q-3 -5 -7 -5q-2 -2 -7 -2h-14v40q0 6 2 8q1 2 8 2h3v2h-36v-2h2q10 0 10 -10v-31q0 -9 -10 -9h-2v-2h60v24zM779 551h-27v-2h3q5 0 6 -1q2 -1 2 -4q0 -2 -3 -6l-11 -15l-14 18l-2 4v1q0 2 1 2q0 1 3 1h5v2h-35
v-2h1q6 0 8 -1l3 -3t2 -3l17 -22v-12q0 -5 -2 -7l-4 -2t-4 -1h-3v-1h38v1h-4q-4 0 -7 3q-3 1 -3 7v13l14 19q2 2 3 4q4 2 5 2q1 2 3 2q2 1 5 1v2zM710 521h-1q-2 -2 -2 -3.5t-1 -3.5q-2 -2 -2 -5q-1 -1 -3 -4q-4 -4 -7 -5q-2 -2 -8 -2h-14v42q0 5 3 7q2 2 7 2h4v2h-37v-2h3
q9 0 9 -9v-32q0 -10 -9 -10h-3v-1h61v24zM340 551h-27v-2h6q1 0 1.5 -0.5t1.5 -0.5q6 -3 6 -13v-19q0 -8 -5 -13q-1 -1 -7 -5h-9q-7 0 -10 2q-2 0 -6 4q-2 2 -2 9v27q0 6 2 7q2 2 8 2h4v2h-37v-2h1q11 0 11 -9v-27q0 -7 6 -13q3 -2 9 -3q3 -1 11 -1t14 2q4 2 6 4q5 4 5 13
v21v7l5 5h1l1 1h4v2zM425 621q-2 -1 -9 -1h-15v24h15q16 0 16 -11q0 -6 -2 -8q0 -2 -5 -4zM289 621q-1 -3 -11 -3h-11v26h16q3 0 5 -2q6 -2 6 -11q0 -7 -5 -10zM482 -33l-8 -1l-6 -3q-3 -3 -3 -7t3 -5q2 -2 6 -2h3q1 0 1.5 0.5t1.5 0.5q2 1 3 2t3 2q2 2 2 7v9q-3 -3 -6 -3z
M868 113l-8 -2q-3 0 -6 -3q-2 -1 -2 -6t2 -5q2 -2 6 -2h4h1q1 0 2 1q4 2 6 4q2 4 2 8v8q-3 -3 -7 -3zM757 -44h18v-18h-18v18zM311 -44h18v-18h-18v18zM263 123q-2 6 -4 10q-2 2 -4 3t-5 1q-11 0 -13 -14h26zM709 610h-22l11 24z" />
    <glyph glyph-name="equal" unicode="=" horiz-adv-x="1083" 
d="M878 549l-18 -15l13 -20l-21 -13l13 -21l-21 -12l9 -21l-23 -10l8 -24l-22 -7l4 -22l-24 -5l2 -25l-23 -2v-23h-20l-3 -21l-22 2l-5 -22l-24 4l-7 -23l-22 7l-8 -23l-24 10l-11 -22l-21 11l-13 -20l-21 13l-14 -18l-18 15l-17 -16l-15 14l-16 -14l-14 18l-20 -13l-14 21
l-21 -12l-11 20l-22 -9l-10 23l-23 -7l-7 22l-23 -5l-5 24l-24 -2l-3 23h-23v21l-20 2l2 23l-23 4l5 24l-24 7l7 22l-22 9l9 23l-22 12l11 20l-19 13l14 21l-19 15l14 18l-16 17l15 14l-14 16l18 15l-13 19l20 14l-11 21l19 11l-8 22l22 10l-7 23l23 7l-5 23l24 5l-3 25
l23 2v23h21l2 21l23 -3l4 23l25 -4l6 23l22 -6l9 21l23 -9l12 22l21 -11l12 20l21 -14l15 19l19 -15l16 16l15 -14l15 13l15 -17l20 13l13 -21l22 12l11 -20l21 9l10 -23l24 7l7 -22l22 5l5 -24l25 2l2 -23h23v-21l21 -2l-2 -23l22 -4l-4 -24l24 -7l-7 -22l22 -9l-10 -23
l23 -12l-12 -20l20 -13l-13 -21l18 -15l-15 -18l16 -16l-13 -15zM128 137q0 2 1 4.5t1 4.5q1 7 8 14q2 3 5.5 5.5t7.5 4.5q5 2 9.5 3t9.5 1h3q3 0 9 -2q3 0 5 -1l4 -2q7 -4 12 -11q2 -3 4 -7q1 -2 1 -6h-19q0 3 -2 5q-1 3 -6 6t-10 3q-3 0 -5 -1h-4q-2 -2 -8 -6
q-2 -2 -3.5 -4t-2.5 -5q-2 -5 -2 -16q0 -9 3 -16q1 -7 7 -9q3 -2 5.5 -3t5.5 -2h3q7 0 10 3q4 0 7 5q2 3 3.5 5.5t1.5 5.5h-21v16h37v-48h-12l-2 11q-3 -5 -8 -8q-3 -2 -5.5 -2.5t-4.5 -2.5q-3 0 -5.5 -0.5t-5.5 -0.5q-9 0 -14 4q-8 3 -12 9q-6 6 -9 15t-3 19q0 6 1 9z
M345 3h16v-10q6 12 19 12q7 0 10 -3q5 -2 8 -8q2 5 7 8q4 3 10 3q8 0 13 -4q4 -3 7 -8q2 -2 2 -10v-45h-16v39q0 13 -10 13q-11 0 -11 -13v-39h-18v39v6q0 3 -3 6q-2 1 -7 1q-11 0 -11 -12v-40h-16v65zM932 3h16v-10q7 12 19 12q8 0 11 -3q4 -2 7 -8q2 4 8 8q3 3 10 3
q8 0 12 -4q6 -3 7 -8q3 -3 3 -10v-45h-17v39q0 13 -10 13q-11 0 -11 -13v-39h-17v39q0 5 -1 6q0 3 -3 6q-2 1 -6 1q-11 0 -11 -12v-40h-17v65zM856 -17q1 4 2.5 6.5t3.5 5.5q6 6 11 7q4 3 14 3q8 0 14 -3q4 -1 11 -6q2 -2 3 -5t3 -6q2 -4 2 -15q0 -10 -4 -17q-3 -7 -11 -12
q-7 -4 -18 -4q-13 0 -19 5q-7 5 -11 12q-3 7 -3 16t2 13zM615 129q1 6 6 11q6 6 11 8q4 2 14 2t15 -2q2 -2 4.5 -3t4.5 -3q5 -6 7 -12t2 -14q0 -10 -4 -17q-3 -7 -11 -12t-18 -5q-11 0 -19 5q-6 5 -11 13q-3 7 -3 16q0 5 2 13zM125 1v2h17l11 -47l9 47h17l10 -47l10 47h18
l-18 -62l-1 -3h-17l-11 47l-10 -47h-18zM514 1v2h18l10 -47l9 47h17l10 -47l11 47h17l-18 -62v-3h-18l-10 47l-10 -47h-18zM30 1v2h18l10 -47l9 47h18l9 -47l11 47h17l-18 -62v-3h-18l-10 47l-10 -47h-18zM219 1v2h18l10 -47l9 47h18l9 -47l10 47h18l-18 -62l-1 -3h-17
l-10 47l-11 -47h-17zM840 116q6 4 14 6l15 2q6 1 6 5q0 8 -10 8q-4 0 -8 -2q-3 -1 -4 -8h-16q1 9 4 14q2 4 9 7q4 2 7 2h8q13 0 18 -2l4 -4t3 -4q2 -6 2 -8v-35v-7q0 -3 4 -3v-3h-19q-1 0 -1 1v1v1q0 2 -0.5 3t-0.5 2q-2 -3 -5 -5q-2 -1 -3.5 -2t-2.5 -1l-4.5 -1.5
t-4.5 -0.5t-9 2q-2 2 -4 3t-4 3q-3 4 -3 12q0 10 5 14zM454 -30q4 4 13 6l16 2q5 2 5 5q0 8 -10 8q-2 0 -4 -0.5t-4 -0.5l-2 -4t-1 -4h-16q0 7 3 13q6 6 10 7l6 2q2 0 4 0.5t4 0.5q13 0 18 -4q5 -3 8 -7q1 -3 1 -8v-35q0 -5 1 -7q0 -3 3 -3v-3h-18q0 1 -1 2v1q-1 2 -1 5
q-4 -4 -6 -5l-3 -1.5l-3 -1.5t-8 -1q-7 0 -9 1q-5 1 -8 7q-4 3 -4 10q0 10 6 15zM222 134q3 8 10 12q4 3 8.5 3.5t9.5 0.5q13 0 17 -4q6 -4 10 -13q2 -5 2.5 -9t0.5 -9v-4h-45q0 -6 5 -11q3 -4 11 -4q3 0 7 2q4 4 4 5h18q-2 -5 -6 -11q-3 -2 -5.5 -4t-4.5 -3q-4 -1 -6.5 -2
t-6.5 -1q-32 0 -32 36q0 5 0.5 8.5t2.5 7.5zM553 591q5 0 9 1t7 2q7 4 12 11q4 5 4 14q0 7 -2 9q-1 6 -6 9q-4 6 -11 7q-4 3 -14 3q-5 0 -15 -4q-6 -3 -12 -10q-4 -7 -4 -14t2 -10q3 -6 7 -10t11 -6q6 -2 12 -2zM560 510q4 5 4 14q0 6 -2 10t-6 9q-5 5 -11 6q-6 3 -13 3
q-11 0 -16 -4q-5 -2 -7.5 -4.5t-4.5 -5.5q-4 -7 -4 -14q0 -8 2 -11q4 -6 7 -9q2 -2 5 -3t6 -3q8 -2 12 -2q11 0 16 4q6 3 12 10zM702 -41q0 -9 15 -9q5 0 8 1q2 4 2 5q0 4 -7 5l-15 4q-3 1 -6.5 2.5t-5.5 3.5q-6 4 -6 12q0 6 3 11q2 4 9 8q4 3 14 3q6 0 10.5 -1t8.5 -3
q6 -3 8 -8q1 -2 1 -2.5t1 -2.5v-5h-17q0 5 -3 7q-1 1 -8 1q-10 0 -10 -6q0 -3 6 -4l15 -4q6 -1 14 -6q5 -3 5 -12q0 -6 -3 -12q-4 -5 -10 -8q-4 -2 -15 -2h-6q-4 0 -6 1q-6 2 -10 4q-6 4 -7 7q-2 6 -2 10h17zM614 3h17v-10q7 12 20 12q6 0 12 -3q5 -2 7 -7q3 -6 3 -12v-45
h-17v39q0 8 -2 10q-1 3 -9 3q-7 0 -10 -4q-3 -5 -3 -11v-37h-18v65zM691 149h16v-9q7 10 20 10q9 0 12 -2q2 -2 4 -3.5t4 -3.5q3 -6 3 -12v-45h-17v39q0 4 -2 10q-3 3 -10 3t-10 -4q-2 -3 -2 -11v-37h-18v65zM464 84h-16v9q-3 -5 -8 -7q-8 -4 -12 -4q-10 0 -16 7q-6 6 -6 17
v43h17v-40q0 -12 11 -12q4 0 6 1t6 5q0 2 1 4t1 4v38h16v-65zM793 -6q8 11 23 11q9 0 15 -3q7 -2 10 -9q5 -5 5 -13h-18q0 3 -2 7q-2 3 -8 3q-8 0 -10 -5q-4 -4 -4 -13t1 -12q1 -5 4 -7q2 -2 8 -2q5 0 8 2q3 3 3 9h18q0 -5 -4 -13q-3 -5 -10 -9q-6 -3 -16 -3q-13 0 -21 7
q-4 4 -7 10q-1 4 -1 15q0 14 6 25zM378 592h35v2h-2q-6 0 -8 2q-2 1 -2 3v4v15h12l19 -26h20v2h-2q-5 0 -7 1l-3 3q-1 2 -2 3t-2 3l-2 2q0 1 -2 3v2q-3 1 -6 1q-4 2 -5 3l-6 3h9q2 1 4 1t4 1q3 0 7 2q6 4 6 11q0 2 -1 3q-2 4 -3 5q-3 3 -8 3q-6 2 -13 2h-42v-2h2q5 0 7 -2
q3 -2 3 -8v-31q0 -2 -0.5 -4t-2.5 -3q-2 -2 -7 -2h-2v-2zM368 137h-9v12h9v5q0 18 19 18h9v-13h-5q-3 0 -4 -1q-2 0 -2 -2v-7h11v-12h-11v-53h-17v53zM579 137h-9v12h9v5q0 18 19 18h8v-13h-4q-4 0 -4 -1q-1 0 -2 -2v-7h12v-12h-12v-53h-17v53zM908 137h-8v12h8v17h18v-17
h11v-12h-11v-35q0 -2 0.5 -3t0.5 -2q1 0 2 -0.5t3 -0.5l3 1h2v-13h-11q-8 0 -11 2q-4 0 -5 4q0 2 -1 3.5t-1 3.5v40zM294 137h-9v12h9v17h17v-17h10v-12h-10v-35q0 -4 1 -5q1 0 2.5 -0.5t3.5 -0.5l2 1h1v-13h-10q-8 0 -11 2q-4 0 -5 4q-1 2 -1 7v40zM280 592v2h-3
q-10 0 -10 9v14h14h11q6 2 7 3q5 2 5 5q2 2 2 6t-3 9q-4 4 -10 4q-1 1 -4 1h-6q-3 1 -7 1h-32v-2h2q10 0 10 -10v-31q0 -9 -10 -9h-2v-2h36zM768 137h-10v12h10v17h16v-17h11v-12h-11v-35q0 -2 0.5 -3t0.5 -2q2 0 3 -0.5t3 -0.5l2 1h2v-13h-11q-8 0 -10 2q-5 0 -6 4v7v40z
M546 543l2 -4t2 -5q0 -2 0.5 -4.5t0.5 -5.5q0 -6 -2 -14q-3 -6 -7 -10q-3 -2 -10 -2q-6 0 -7 2q-4 0 -7 5q-1 2 -3 8t-2 11q0 2 0.5 4.5t0.5 4.5q1 2 1.5 3.5t1.5 3.5q3 5 4 6q0 1 5 3q4 2 7 2q1 0 1.5 -0.5t2.5 -0.5l4 -2zM567 638l2 -4t2 -5q0 -2 0.5 -4.5t0.5 -5.5
q0 -8 -3 -14q-2 -6 -6 -9q-5 -3 -10 -3t-8 1q-2 2 -3 2.5t-2 2.5q-2 3 -4 9q-1 3 -1.5 5.5t-0.5 5.5q0 2 0.5 4.5t0.5 4.5q1 2 1.5 3.5t1.5 3.5q2 4 4 6q3 3 5 3q2 1 7 1h4q1 -1 1.5 -1t1.5 -1q4 -1 6 -5zM480 172h17v-88h-17v88zM510 172h16v-88h-16v88zM320 642q3 -2 3 -8
v-31q0 -9 -10 -9h-1v-2h58v22h-1q-1 -2 -1 -3.5t-2 -3.5q-2 -5 -5 -8t-5 -3l-6 -2h-16v24h2q7 0 10 -5l3 -3q0 -1 0.5 -1.5t0.5 -2.5q0 -4 1 -5h1v35h-1q-1 -2 -1 -5q0 -5 -3 -6q-3 -6 -10 -6h-3v25h11q8 0 11 -2q4 0 5 -4q2 -1 4 -5q1 -2 1 -4t2 -4h1v21h-57v-2h1q6 0 7 -2
zM464 519q-2 -2 -2 -3.5t-1 -3.5q-4 -6 -6 -8q-3 -3 -5 -3l-5 -2q-3 -1 -7 -1h-9v24h1q7 0 11 -4q1 -1 1 -1.5t1 -1.5q0 -1 0.5 -1.5t0.5 -2.5q1 -2 1 -5h1v35h-1v-5l-1.5 -3l-1.5 -3q-5 -6 -10 -6h-3v25h10q9 0 12 -1q2 -2 2.5 -2t2.5 -2l3 -6q2 -4 3 -8h2v21h-58v-2h2
q5 0 6 -2q3 -2 3 -7v-32q0 -10 -9 -10h-2v-1h58v22zM646 551h-27v-2h5q0 -1 2 -1q4 -4 4 -5q2 -2 2 -8v-23l-38 39h-21v-2h1q4 0 5 -1q2 0 2.5 -1t1.5 -1q1 -2 1 -5v-31q0 -4 -1 -6q-1 -3 -4 -4q-4 -2 -7 -2v-1h28v1q-3 0 -5 1q-2 0 -2.5 0.5t-2.5 0.5q-1 1 -3 5q-1 1 -1 7
v32l46 -47h2v38q0 6 3 11q1 3 9 3v2zM670 592h22v2h-3h-1q-2 1 -2 1.5t-1 1.5q0 1 -0.5 1.5t-0.5 2.5q0 1 0.5 2t0.5 2l1 4h23l1 -2l1 -1v-1l1.5 -3t0.5 -3q1 -1 1 -2q0 -3 -1 -3h-4h-5v-2h32v2h-2h-4q-1 0 -1.5 1t-1.5 1l-2 4l-21 47h-2l-17 -38q-5 -11 -8 -13
q-2 0 -2.5 -1t-1.5 -1h-3v-2zM400 513v5q-1 1 -1.5 2t-1.5 2q-3 2 -7 4q-2 1 -4.5 1.5t-5.5 2.5h-4h-2l-1 1l-8 2q-2 1 -3 1t-2 1q-1 0 -3 2t-2 4q0 3 1 4q0 -1 2 3l4 2q2 0 3 0.5t3 0.5q4 0 8 -2q5 0 8 -3q4 -2 6 -4t2.5 -4.5t2.5 -5.5h2v18h-2q-1 -4 -4 -4t-5 1
q-10 5 -18 5q-5 0 -11 -2q-2 -2 -3.5 -3t-3.5 -2q-3 -5 -3 -9q0 -3 3 -6q0 -1 3 -4q4 -2 7 -3q1 -1 4 -1.5t8 -2.5l4 -1q6 -2 8 -2t4 -2q1 0 2 -1q3 -3 3 -6q0 -1 -2 -5q-1 -1 -5 -4h-6q-6 0 -9 1q-6 2 -10 4l-6 6q-5 7 -5 12h-2v-25h2q0 4 2 4q2 2 5 2q1 0 1 -0.5t2 -0.5
q1 0 1.5 -0.5t2.5 -0.5q3 -2 4.5 -2t3.5 -1t8 -1q3 0 9 2q2 0 3.5 1t3.5 3q2 1 2 2t2 3v6zM491 591q4 0 10 2q4 1 7 4q1 1 1.5 2.5t1.5 2.5q1 2 1 5v5q-2 2 -2 3t-2 2q-2 2 -6 4q-2 1 -4.5 1.5t-6.5 2.5l-5 1h-2q-2 0 -4 1t-4 1t-4 2q-1 0 -3 2q-2 1 -2 4q0 2 1 3q0 1 2 3
q1 2 4 2q2 1 6 1q5 0 8 -1q2 0 4 -1t4 -1q2 -2 3 -2.5t2 -2.5q4 -6 6 -11h1v19h-1q-1 -4 -5 -4h-1q-2 0 -3 1q-10 5 -18 5t-11 -2q-4 -1 -7 -6q-3 -3 -3 -8q0 -4 2 -6q1 -2 2 -2.5t2 -1.5t2.5 -1.5t3.5 -1.5t5 -1.5t8 -2.5l4 -1q2 -1 3.5 -1t3.5 -1l4 -2q3 0 3 -2q3 -2 3 -5
t-2 -5q-3 -3 -5 -3q-2 -1 -7 -1t-9 1q-3 0 -9 4q-3 2 -7 6q-4 8 -5 13h-1v-26h1q2 3 3 4t4 1h3q3 0 5 -2q2 -1 4 -1t4 -1t7 -1zM593 592h28v2h-5q-3 0 -5 2q-3 0 -3 4q-2 4 -2 7v32l47 -48h1v39q0 3 1 6t2 5q3 3 10 3v2h-27v-2h4l4 -2q2 0 4 -4q1 -2 1 -8v-23l-37 39h-22v-2
h6q2 -2 2.5 -2t1.5 -1q1 -2 1 -5v-31q0 -4 -1 -6q-1 -3 -4 -4q-2 -1 -7 -1v-2zM658 130q-3 6 -12 6t-12 -6q-4 -6 -4 -14q0 -7 4 -13q2 -6 12 -6t12 6q4 4 4 13q0 10 -4 14zM899 -15q-3 5 -12 5t-12 -5q-3 -6 -3 -15q0 -7 3 -13t12 -6t12 6q2 3 2.5 6.5t0.5 6.5q0 11 -3 15z
M800 616h-2q0 -2 -1 -3.5t-1 -3.5q-1 -2 -1 -2.5t-1 -2.5l-3 -3q-3 -5 -7 -5q-2 -2 -7 -2h-14v40q0 6 2 8q1 2 8 2h3v2h-36v-2h2q10 0 10 -10v-31q0 -9 -10 -9h-2v-2h60v24zM779 551h-27v-2h3q5 0 6 -1q2 -1 2 -4q0 -2 -3 -6l-11 -15l-14 18l-2 4v1q0 2 1 2q0 1 3 1h5v2h-35
v-2h1q6 0 8 -1l3 -3t2 -3l17 -22v-12q0 -5 -2 -7l-4 -2t-4 -1h-3v-1h38v1h-4q-4 0 -7 3q-3 1 -3 7v13l14 19q2 2 3 4q4 2 5 2q1 2 3 2q2 1 5 1v2zM710 521h-1q-2 -2 -2 -3.5t-1 -3.5q-2 -2 -2 -5q-1 -1 -3 -4q-4 -4 -7 -5q-2 -2 -8 -2h-14v42q0 5 3 7q2 2 7 2h4v2h-37v-2h3
q9 0 9 -9v-32q0 -10 -9 -10h-3v-1h61v24zM340 551h-27v-2h6q1 0 1.5 -0.5t1.5 -0.5q6 -3 6 -13v-19q0 -8 -5 -13q-1 -1 -7 -5h-9q-7 0 -10 2q-2 0 -6 4q-2 2 -2 9v27q0 6 2 7q2 2 8 2h4v2h-37v-2h1q11 0 11 -9v-27q0 -7 6 -13q3 -2 9 -3q3 -1 11 -1t14 2q4 2 6 4q5 4 5 13
v21v7l5 5h1l1 1h4v2zM425 621q-2 -1 -9 -1h-15v24h15q16 0 16 -11q0 -6 -2 -8q0 -2 -5 -4zM289 621q-1 -3 -11 -3h-11v26h16q3 0 5 -2q6 -2 6 -11q0 -7 -5 -10zM482 -33l-8 -1l-6 -3q-3 -3 -3 -7t3 -5q2 -2 6 -2h3q1 0 1.5 0.5t1.5 0.5q2 1 3 2t3 2q2 2 2 7v9q-3 -3 -6 -3z
M868 113l-8 -2q-3 0 -6 -3q-2 -1 -2 -6t2 -5q2 -2 6 -2h4h1q1 0 2 1q4 2 6 4q2 4 2 8v8q-3 -3 -7 -3zM757 -44h18v-18h-18v18zM311 -44h18v-18h-18v18zM263 123q-2 6 -4 10q-2 2 -4 3t-5 1q-11 0 -13 -14h26zM709 610h-22l11 24z" />
    <glyph glyph-name="greater" unicode="&#x3e;" horiz-adv-x="1083" 
d="M878 549l-18 -15l13 -20l-21 -13l13 -21l-21 -12l9 -21l-23 -10l8 -24l-22 -7l4 -22l-24 -5l2 -25l-23 -2v-23h-20l-3 -21l-22 2l-5 -22l-24 4l-7 -23l-22 7l-8 -23l-24 10l-11 -22l-21 11l-13 -20l-21 13l-14 -18l-18 15l-17 -16l-15 14l-16 -14l-14 18l-20 -13l-14 21
l-21 -12l-11 20l-22 -9l-10 23l-23 -7l-7 22l-23 -5l-5 24l-24 -2l-3 23h-23v21l-20 2l2 23l-23 4l5 24l-24 7l7 22l-22 9l9 23l-22 12l11 20l-19 13l14 21l-19 15l14 18l-16 17l15 14l-14 16l18 15l-13 19l20 14l-11 21l19 11l-8 22l22 10l-7 23l23 7l-5 23l24 5l-3 25
l23 2v23h21l2 21l23 -3l4 23l25 -4l6 23l22 -6l9 21l23 -9l12 22l21 -11l12 20l21 -14l15 19l19 -15l16 16l15 -14l15 13l15 -17l20 13l13 -21l22 12l11 -20l21 9l10 -23l24 7l7 -22l22 5l5 -24l25 2l2 -23h23v-21l21 -2l-2 -23l22 -4l-4 -24l24 -7l-7 -22l22 -9l-10 -23
l23 -12l-12 -20l20 -13l-13 -21l18 -15l-15 -18l16 -16l-13 -15zM128 137q0 2 1 4.5t1 4.5q1 7 8 14q2 3 5.5 5.5t7.5 4.5q5 2 9.5 3t9.5 1h3q3 0 9 -2q3 0 5 -1l4 -2q7 -4 12 -11q2 -3 4 -7q1 -2 1 -6h-19q0 3 -2 5q-1 3 -6 6t-10 3q-3 0 -5 -1h-4q-2 -2 -8 -6
q-2 -2 -3.5 -4t-2.5 -5q-2 -5 -2 -16q0 -9 3 -16q1 -7 7 -9q3 -2 5.5 -3t5.5 -2h3q7 0 10 3q4 0 7 5q2 3 3.5 5.5t1.5 5.5h-21v16h37v-48h-12l-2 11q-3 -5 -8 -8q-3 -2 -5.5 -2.5t-4.5 -2.5q-3 0 -5.5 -0.5t-5.5 -0.5q-9 0 -14 4q-8 3 -12 9q-6 6 -9 15t-3 19q0 6 1 9z
M345 3h16v-10q6 12 19 12q7 0 10 -3q5 -2 8 -8q2 5 7 8q4 3 10 3q8 0 13 -4q4 -3 7 -8q2 -2 2 -10v-45h-16v39q0 13 -10 13q-11 0 -11 -13v-39h-18v39v6q0 3 -3 6q-2 1 -7 1q-11 0 -11 -12v-40h-16v65zM932 3h16v-10q7 12 19 12q8 0 11 -3q4 -2 7 -8q2 4 8 8q3 3 10 3
q8 0 12 -4q6 -3 7 -8q3 -3 3 -10v-45h-17v39q0 13 -10 13q-11 0 -11 -13v-39h-17v39q0 5 -1 6q0 3 -3 6q-2 1 -6 1q-11 0 -11 -12v-40h-17v65zM856 -17q1 4 2.5 6.5t3.5 5.5q6 6 11 7q4 3 14 3q8 0 14 -3q4 -1 11 -6q2 -2 3 -5t3 -6q2 -4 2 -15q0 -10 -4 -17q-3 -7 -11 -12
q-7 -4 -18 -4q-13 0 -19 5q-7 5 -11 12q-3 7 -3 16t2 13zM615 129q1 6 6 11q6 6 11 8q4 2 14 2t15 -2q2 -2 4.5 -3t4.5 -3q5 -6 7 -12t2 -14q0 -10 -4 -17q-3 -7 -11 -12t-18 -5q-11 0 -19 5q-6 5 -11 13q-3 7 -3 16q0 5 2 13zM125 1v2h17l11 -47l9 47h17l10 -47l10 47h18
l-18 -62l-1 -3h-17l-11 47l-10 -47h-18zM514 1v2h18l10 -47l9 47h17l10 -47l11 47h17l-18 -62v-3h-18l-10 47l-10 -47h-18zM30 1v2h18l10 -47l9 47h18l9 -47l11 47h17l-18 -62v-3h-18l-10 47l-10 -47h-18zM219 1v2h18l10 -47l9 47h18l9 -47l10 47h18l-18 -62l-1 -3h-17
l-10 47l-11 -47h-17zM840 116q6 4 14 6l15 2q6 1 6 5q0 8 -10 8q-4 0 -8 -2q-3 -1 -4 -8h-16q1 9 4 14q2 4 9 7q4 2 7 2h8q13 0 18 -2l4 -4t3 -4q2 -6 2 -8v-35v-7q0 -3 4 -3v-3h-19q-1 0 -1 1v1v1q0 2 -0.5 3t-0.5 2q-2 -3 -5 -5q-2 -1 -3.5 -2t-2.5 -1l-4.5 -1.5
t-4.5 -0.5t-9 2q-2 2 -4 3t-4 3q-3 4 -3 12q0 10 5 14zM454 -30q4 4 13 6l16 2q5 2 5 5q0 8 -10 8q-2 0 -4 -0.5t-4 -0.5l-2 -4t-1 -4h-16q0 7 3 13q6 6 10 7l6 2q2 0 4 0.5t4 0.5q13 0 18 -4q5 -3 8 -7q1 -3 1 -8v-35q0 -5 1 -7q0 -3 3 -3v-3h-18q0 1 -1 2v1q-1 2 -1 5
q-4 -4 -6 -5l-3 -1.5l-3 -1.5t-8 -1q-7 0 -9 1q-5 1 -8 7q-4 3 -4 10q0 10 6 15zM222 134q3 8 10 12q4 3 8.5 3.5t9.5 0.5q13 0 17 -4q6 -4 10 -13q2 -5 2.5 -9t0.5 -9v-4h-45q0 -6 5 -11q3 -4 11 -4q3 0 7 2q4 4 4 5h18q-2 -5 -6 -11q-3 -2 -5.5 -4t-4.5 -3q-4 -1 -6.5 -2
t-6.5 -1q-32 0 -32 36q0 5 0.5 8.5t2.5 7.5zM553 591q5 0 9 1t7 2q7 4 12 11q4 5 4 14q0 7 -2 9q-1 6 -6 9q-4 6 -11 7q-4 3 -14 3q-5 0 -15 -4q-6 -3 -12 -10q-4 -7 -4 -14t2 -10q3 -6 7 -10t11 -6q6 -2 12 -2zM560 510q4 5 4 14q0 6 -2 10t-6 9q-5 5 -11 6q-6 3 -13 3
q-11 0 -16 -4q-5 -2 -7.5 -4.5t-4.5 -5.5q-4 -7 -4 -14q0 -8 2 -11q4 -6 7 -9q2 -2 5 -3t6 -3q8 -2 12 -2q11 0 16 4q6 3 12 10zM702 -41q0 -9 15 -9q5 0 8 1q2 4 2 5q0 4 -7 5l-15 4q-3 1 -6.5 2.5t-5.5 3.5q-6 4 -6 12q0 6 3 11q2 4 9 8q4 3 14 3q6 0 10.5 -1t8.5 -3
q6 -3 8 -8q1 -2 1 -2.5t1 -2.5v-5h-17q0 5 -3 7q-1 1 -8 1q-10 0 -10 -6q0 -3 6 -4l15 -4q6 -1 14 -6q5 -3 5 -12q0 -6 -3 -12q-4 -5 -10 -8q-4 -2 -15 -2h-6q-4 0 -6 1q-6 2 -10 4q-6 4 -7 7q-2 6 -2 10h17zM614 3h17v-10q7 12 20 12q6 0 12 -3q5 -2 7 -7q3 -6 3 -12v-45
h-17v39q0 8 -2 10q-1 3 -9 3q-7 0 -10 -4q-3 -5 -3 -11v-37h-18v65zM691 149h16v-9q7 10 20 10q9 0 12 -2q2 -2 4 -3.5t4 -3.5q3 -6 3 -12v-45h-17v39q0 4 -2 10q-3 3 -10 3t-10 -4q-2 -3 -2 -11v-37h-18v65zM464 84h-16v9q-3 -5 -8 -7q-8 -4 -12 -4q-10 0 -16 7q-6 6 -6 17
v43h17v-40q0 -12 11 -12q4 0 6 1t6 5q0 2 1 4t1 4v38h16v-65zM793 -6q8 11 23 11q9 0 15 -3q7 -2 10 -9q5 -5 5 -13h-18q0 3 -2 7q-2 3 -8 3q-8 0 -10 -5q-4 -4 -4 -13t1 -12q1 -5 4 -7q2 -2 8 -2q5 0 8 2q3 3 3 9h18q0 -5 -4 -13q-3 -5 -10 -9q-6 -3 -16 -3q-13 0 -21 7
q-4 4 -7 10q-1 4 -1 15q0 14 6 25zM378 592h35v2h-2q-6 0 -8 2q-2 1 -2 3v4v15h12l19 -26h20v2h-2q-5 0 -7 1l-3 3q-1 2 -2 3t-2 3l-2 2q0 1 -2 3v2q-3 1 -6 1q-4 2 -5 3l-6 3h9q2 1 4 1t4 1q3 0 7 2q6 4 6 11q0 2 -1 3q-2 4 -3 5q-3 3 -8 3q-6 2 -13 2h-42v-2h2q5 0 7 -2
q3 -2 3 -8v-31q0 -2 -0.5 -4t-2.5 -3q-2 -2 -7 -2h-2v-2zM368 137h-9v12h9v5q0 18 19 18h9v-13h-5q-3 0 -4 -1q-2 0 -2 -2v-7h11v-12h-11v-53h-17v53zM579 137h-9v12h9v5q0 18 19 18h8v-13h-4q-4 0 -4 -1q-1 0 -2 -2v-7h12v-12h-12v-53h-17v53zM908 137h-8v12h8v17h18v-17
h11v-12h-11v-35q0 -2 0.5 -3t0.5 -2q1 0 2 -0.5t3 -0.5l3 1h2v-13h-11q-8 0 -11 2q-4 0 -5 4q0 2 -1 3.5t-1 3.5v40zM294 137h-9v12h9v17h17v-17h10v-12h-10v-35q0 -4 1 -5q1 0 2.5 -0.5t3.5 -0.5l2 1h1v-13h-10q-8 0 -11 2q-4 0 -5 4q-1 2 -1 7v40zM280 592v2h-3
q-10 0 -10 9v14h14h11q6 2 7 3q5 2 5 5q2 2 2 6t-3 9q-4 4 -10 4q-1 1 -4 1h-6q-3 1 -7 1h-32v-2h2q10 0 10 -10v-31q0 -9 -10 -9h-2v-2h36zM768 137h-10v12h10v17h16v-17h11v-12h-11v-35q0 -2 0.5 -3t0.5 -2q2 0 3 -0.5t3 -0.5l2 1h2v-13h-11q-8 0 -10 2q-5 0 -6 4v7v40z
M546 543l2 -4t2 -5q0 -2 0.5 -4.5t0.5 -5.5q0 -6 -2 -14q-3 -6 -7 -10q-3 -2 -10 -2q-6 0 -7 2q-4 0 -7 5q-1 2 -3 8t-2 11q0 2 0.5 4.5t0.5 4.5q1 2 1.5 3.5t1.5 3.5q3 5 4 6q0 1 5 3q4 2 7 2q1 0 1.5 -0.5t2.5 -0.5l4 -2zM567 638l2 -4t2 -5q0 -2 0.5 -4.5t0.5 -5.5
q0 -8 -3 -14q-2 -6 -6 -9q-5 -3 -10 -3t-8 1q-2 2 -3 2.5t-2 2.5q-2 3 -4 9q-1 3 -1.5 5.5t-0.5 5.5q0 2 0.5 4.5t0.5 4.5q1 2 1.5 3.5t1.5 3.5q2 4 4 6q3 3 5 3q2 1 7 1h4q1 -1 1.5 -1t1.5 -1q4 -1 6 -5zM480 172h17v-88h-17v88zM510 172h16v-88h-16v88zM320 642q3 -2 3 -8
v-31q0 -9 -10 -9h-1v-2h58v22h-1q-1 -2 -1 -3.5t-2 -3.5q-2 -5 -5 -8t-5 -3l-6 -2h-16v24h2q7 0 10 -5l3 -3q0 -1 0.5 -1.5t0.5 -2.5q0 -4 1 -5h1v35h-1q-1 -2 -1 -5q0 -5 -3 -6q-3 -6 -10 -6h-3v25h11q8 0 11 -2q4 0 5 -4q2 -1 4 -5q1 -2 1 -4t2 -4h1v21h-57v-2h1q6 0 7 -2
zM464 519q-2 -2 -2 -3.5t-1 -3.5q-4 -6 -6 -8q-3 -3 -5 -3l-5 -2q-3 -1 -7 -1h-9v24h1q7 0 11 -4q1 -1 1 -1.5t1 -1.5q0 -1 0.5 -1.5t0.5 -2.5q1 -2 1 -5h1v35h-1v-5l-1.5 -3l-1.5 -3q-5 -6 -10 -6h-3v25h10q9 0 12 -1q2 -2 2.5 -2t2.5 -2l3 -6q2 -4 3 -8h2v21h-58v-2h2
q5 0 6 -2q3 -2 3 -7v-32q0 -10 -9 -10h-2v-1h58v22zM646 551h-27v-2h5q0 -1 2 -1q4 -4 4 -5q2 -2 2 -8v-23l-38 39h-21v-2h1q4 0 5 -1q2 0 2.5 -1t1.5 -1q1 -2 1 -5v-31q0 -4 -1 -6q-1 -3 -4 -4q-4 -2 -7 -2v-1h28v1q-3 0 -5 1q-2 0 -2.5 0.5t-2.5 0.5q-1 1 -3 5q-1 1 -1 7
v32l46 -47h2v38q0 6 3 11q1 3 9 3v2zM670 592h22v2h-3h-1q-2 1 -2 1.5t-1 1.5q0 1 -0.5 1.5t-0.5 2.5q0 1 0.5 2t0.5 2l1 4h23l1 -2l1 -1v-1l1.5 -3t0.5 -3q1 -1 1 -2q0 -3 -1 -3h-4h-5v-2h32v2h-2h-4q-1 0 -1.5 1t-1.5 1l-2 4l-21 47h-2l-17 -38q-5 -11 -8 -13
q-2 0 -2.5 -1t-1.5 -1h-3v-2zM400 513v5q-1 1 -1.5 2t-1.5 2q-3 2 -7 4q-2 1 -4.5 1.5t-5.5 2.5h-4h-2l-1 1l-8 2q-2 1 -3 1t-2 1q-1 0 -3 2t-2 4q0 3 1 4q0 -1 2 3l4 2q2 0 3 0.5t3 0.5q4 0 8 -2q5 0 8 -3q4 -2 6 -4t2.5 -4.5t2.5 -5.5h2v18h-2q-1 -4 -4 -4t-5 1
q-10 5 -18 5q-5 0 -11 -2q-2 -2 -3.5 -3t-3.5 -2q-3 -5 -3 -9q0 -3 3 -6q0 -1 3 -4q4 -2 7 -3q1 -1 4 -1.5t8 -2.5l4 -1q6 -2 8 -2t4 -2q1 0 2 -1q3 -3 3 -6q0 -1 -2 -5q-1 -1 -5 -4h-6q-6 0 -9 1q-6 2 -10 4l-6 6q-5 7 -5 12h-2v-25h2q0 4 2 4q2 2 5 2q1 0 1 -0.5t2 -0.5
q1 0 1.5 -0.5t2.5 -0.5q3 -2 4.5 -2t3.5 -1t8 -1q3 0 9 2q2 0 3.5 1t3.5 3q2 1 2 2t2 3v6zM491 591q4 0 10 2q4 1 7 4q1 1 1.5 2.5t1.5 2.5q1 2 1 5v5q-2 2 -2 3t-2 2q-2 2 -6 4q-2 1 -4.5 1.5t-6.5 2.5l-5 1h-2q-2 0 -4 1t-4 1t-4 2q-1 0 -3 2q-2 1 -2 4q0 2 1 3q0 1 2 3
q1 2 4 2q2 1 6 1q5 0 8 -1q2 0 4 -1t4 -1q2 -2 3 -2.5t2 -2.5q4 -6 6 -11h1v19h-1q-1 -4 -5 -4h-1q-2 0 -3 1q-10 5 -18 5t-11 -2q-4 -1 -7 -6q-3 -3 -3 -8q0 -4 2 -6q1 -2 2 -2.5t2 -1.5t2.5 -1.5t3.5 -1.5t5 -1.5t8 -2.5l4 -1q2 -1 3.5 -1t3.5 -1l4 -2q3 0 3 -2q3 -2 3 -5
t-2 -5q-3 -3 -5 -3q-2 -1 -7 -1t-9 1q-3 0 -9 4q-3 2 -7 6q-4 8 -5 13h-1v-26h1q2 3 3 4t4 1h3q3 0 5 -2q2 -1 4 -1t4 -1t7 -1zM593 592h28v2h-5q-3 0 -5 2q-3 0 -3 4q-2 4 -2 7v32l47 -48h1v39q0 3 1 6t2 5q3 3 10 3v2h-27v-2h4l4 -2q2 0 4 -4q1 -2 1 -8v-23l-37 39h-22v-2
h6q2 -2 2.5 -2t1.5 -1q1 -2 1 -5v-31q0 -4 -1 -6q-1 -3 -4 -4q-2 -1 -7 -1v-2zM658 130q-3 6 -12 6t-12 -6q-4 -6 -4 -14q0 -7 4 -13q2 -6 12 -6t12 6q4 4 4 13q0 10 -4 14zM899 -15q-3 5 -12 5t-12 -5q-3 -6 -3 -15q0 -7 3 -13t12 -6t12 6q2 3 2.5 6.5t0.5 6.5q0 11 -3 15z
M800 616h-2q0 -2 -1 -3.5t-1 -3.5q-1 -2 -1 -2.5t-1 -2.5l-3 -3q-3 -5 -7 -5q-2 -2 -7 -2h-14v40q0 6 2 8q1 2 8 2h3v2h-36v-2h2q10 0 10 -10v-31q0 -9 -10 -9h-2v-2h60v24zM779 551h-27v-2h3q5 0 6 -1q2 -1 2 -4q0 -2 -3 -6l-11 -15l-14 18l-2 4v1q0 2 1 2q0 1 3 1h5v2h-35
v-2h1q6 0 8 -1l3 -3t2 -3l17 -22v-12q0 -5 -2 -7l-4 -2t-4 -1h-3v-1h38v1h-4q-4 0 -7 3q-3 1 -3 7v13l14 19q2 2 3 4q4 2 5 2q1 2 3 2q2 1 5 1v2zM710 521h-1q-2 -2 -2 -3.5t-1 -3.5q-2 -2 -2 -5q-1 -1 -3 -4q-4 -4 -7 -5q-2 -2 -8 -2h-14v42q0 5 3 7q2 2 7 2h4v2h-37v-2h3
q9 0 9 -9v-32q0 -10 -9 -10h-3v-1h61v24zM340 551h-27v-2h6q1 0 1.5 -0.5t1.5 -0.5q6 -3 6 -13v-19q0 -8 -5 -13q-1 -1 -7 -5h-9q-7 0 -10 2q-2 0 -6 4q-2 2 -2 9v27q0 6 2 7q2 2 8 2h4v2h-37v-2h1q11 0 11 -9v-27q0 -7 6 -13q3 -2 9 -3q3 -1 11 -1t14 2q4 2 6 4q5 4 5 13
v21v7l5 5h1l1 1h4v2zM425 621q-2 -1 -9 -1h-15v24h15q16 0 16 -11q0 -6 -2 -8q0 -2 -5 -4zM289 621q-1 -3 -11 -3h-11v26h16q3 0 5 -2q6 -2 6 -11q0 -7 -5 -10zM482 -33l-8 -1l-6 -3q-3 -3 -3 -7t3 -5q2 -2 6 -2h3q1 0 1.5 0.5t1.5 0.5q2 1 3 2t3 2q2 2 2 7v9q-3 -3 -6 -3z
M868 113l-8 -2q-3 0 -6 -3q-2 -1 -2 -6t2 -5q2 -2 6 -2h4h1q1 0 2 1q4 2 6 4q2 4 2 8v8q-3 -3 -7 -3zM757 -44h18v-18h-18v18zM311 -44h18v-18h-18v18zM263 123q-2 6 -4 10q-2 2 -4 3t-5 1q-11 0 -13 -14h26zM709 610h-22l11 24z" />
    <glyph glyph-name="question" unicode="?" horiz-adv-x="249" 
d="M336 672q2 -25 10 -44q7 -17 21 -30.5t38 -14.5q-31 -2 -51 -17.5t-32 -32.5q-20 -52 -54 -85t-66 -52q-39 -23 -80 -34q-12 -32 -21 -62q-8 -26 -13.5 -54t-1.5 -47h-30l12 214q48 9 88 35q34 23 64 66t37 117q4 49 -9.5 81.5t-37.5 48.5t-54 16.5t-57 -14.5t-48 -44
t-27 -73q-6 -2 -11.5 -3t-10.5 -3t-11 -3q0 62 26 102t65 58.5t84 17t84 -22t65 -60t26 -95.5q0 -30 -5 -55.5t-14 -48.5q-8 -11 -12 -19l-5 -10zM66 14q16 0 25.5 -6t14.5 -15.5t6 -21.5t0 -25q-2 -26 -18.5 -44t-41.5 -18q-24 0 -34.5 20t-6.5 47q3 28 19.5 45.5
t35.5 17.5z" />
    <glyph glyph-name="at" unicode="@" horiz-adv-x="1083" 
d="M878 549l-18 -15l13 -20l-21 -13l13 -21l-21 -12l9 -21l-23 -10l8 -24l-22 -7l4 -22l-24 -5l2 -25l-23 -2v-23h-20l-3 -21l-22 2l-5 -22l-24 4l-7 -23l-22 7l-8 -23l-24 10l-11 -22l-21 11l-13 -20l-21 13l-14 -18l-18 15l-17 -16l-15 14l-16 -14l-14 18l-20 -13l-14 21
l-21 -12l-11 20l-22 -9l-10 23l-23 -7l-7 22l-23 -5l-5 24l-24 -2l-3 23h-23v21l-20 2l2 23l-23 4l5 24l-24 7l7 22l-22 9l9 23l-22 12l11 20l-19 13l14 21l-19 15l14 18l-16 17l15 14l-14 16l18 15l-13 19l20 14l-11 21l19 11l-8 22l22 10l-7 23l23 7l-5 23l24 5l-3 25
l23 2v23h21l2 21l23 -3l4 23l25 -4l6 23l22 -6l9 21l23 -9l12 22l21 -11l12 20l21 -14l15 19l19 -15l16 16l15 -14l15 13l15 -17l20 13l13 -21l22 12l11 -20l21 9l10 -23l24 7l7 -22l22 5l5 -24l25 2l2 -23h23v-21l21 -2l-2 -23l22 -4l-4 -24l24 -7l-7 -22l22 -9l-10 -23
l23 -12l-12 -20l20 -13l-13 -21l18 -15l-15 -18l16 -16l-13 -15zM128 137q0 2 1 4.5t1 4.5q1 7 8 14q2 3 5.5 5.5t7.5 4.5q5 2 9.5 3t9.5 1h3q3 0 9 -2q3 0 5 -1l4 -2q7 -4 12 -11q2 -3 4 -7q1 -2 1 -6h-19q0 3 -2 5q-1 3 -6 6t-10 3q-3 0 -5 -1h-4q-2 -2 -8 -6
q-2 -2 -3.5 -4t-2.5 -5q-2 -5 -2 -16q0 -9 3 -16q1 -7 7 -9q3 -2 5.5 -3t5.5 -2h3q7 0 10 3q4 0 7 5q2 3 3.5 5.5t1.5 5.5h-21v16h37v-48h-12l-2 11q-3 -5 -8 -8q-3 -2 -5.5 -2.5t-4.5 -2.5q-3 0 -5.5 -0.5t-5.5 -0.5q-9 0 -14 4q-8 3 -12 9q-6 6 -9 15t-3 19q0 6 1 9z
M345 3h16v-10q6 12 19 12q7 0 10 -3q5 -2 8 -8q2 5 7 8q4 3 10 3q8 0 13 -4q4 -3 7 -8q2 -2 2 -10v-45h-16v39q0 13 -10 13q-11 0 -11 -13v-39h-18v39v6q0 3 -3 6q-2 1 -7 1q-11 0 -11 -12v-40h-16v65zM932 3h16v-10q7 12 19 12q8 0 11 -3q4 -2 7 -8q2 4 8 8q3 3 10 3
q8 0 12 -4q6 -3 7 -8q3 -3 3 -10v-45h-17v39q0 13 -10 13q-11 0 -11 -13v-39h-17v39q0 5 -1 6q0 3 -3 6q-2 1 -6 1q-11 0 -11 -12v-40h-17v65zM856 -17q1 4 2.5 6.5t3.5 5.5q6 6 11 7q4 3 14 3q8 0 14 -3q4 -1 11 -6q2 -2 3 -5t3 -6q2 -4 2 -15q0 -10 -4 -17q-3 -7 -11 -12
q-7 -4 -18 -4q-13 0 -19 5q-7 5 -11 12q-3 7 -3 16t2 13zM615 129q1 6 6 11q6 6 11 8q4 2 14 2t15 -2q2 -2 4.5 -3t4.5 -3q5 -6 7 -12t2 -14q0 -10 -4 -17q-3 -7 -11 -12t-18 -5q-11 0 -19 5q-6 5 -11 13q-3 7 -3 16q0 5 2 13zM125 1v2h17l11 -47l9 47h17l10 -47l10 47h18
l-18 -62l-1 -3h-17l-11 47l-10 -47h-18zM514 1v2h18l10 -47l9 47h17l10 -47l11 47h17l-18 -62v-3h-18l-10 47l-10 -47h-18zM30 1v2h18l10 -47l9 47h18l9 -47l11 47h17l-18 -62v-3h-18l-10 47l-10 -47h-18zM219 1v2h18l10 -47l9 47h18l9 -47l10 47h18l-18 -62l-1 -3h-17
l-10 47l-11 -47h-17zM840 116q6 4 14 6l15 2q6 1 6 5q0 8 -10 8q-4 0 -8 -2q-3 -1 -4 -8h-16q1 9 4 14q2 4 9 7q4 2 7 2h8q13 0 18 -2l4 -4t3 -4q2 -6 2 -8v-35v-7q0 -3 4 -3v-3h-19q-1 0 -1 1v1v1q0 2 -0.5 3t-0.5 2q-2 -3 -5 -5q-2 -1 -3.5 -2t-2.5 -1l-4.5 -1.5
t-4.5 -0.5t-9 2q-2 2 -4 3t-4 3q-3 4 -3 12q0 10 5 14zM454 -30q4 4 13 6l16 2q5 2 5 5q0 8 -10 8q-2 0 -4 -0.5t-4 -0.5l-2 -4t-1 -4h-16q0 7 3 13q6 6 10 7l6 2q2 0 4 0.5t4 0.5q13 0 18 -4q5 -3 8 -7q1 -3 1 -8v-35q0 -5 1 -7q0 -3 3 -3v-3h-18q0 1 -1 2v1q-1 2 -1 5
q-4 -4 -6 -5l-3 -1.5l-3 -1.5t-8 -1q-7 0 -9 1q-5 1 -8 7q-4 3 -4 10q0 10 6 15zM222 134q3 8 10 12q4 3 8.5 3.5t9.5 0.5q13 0 17 -4q6 -4 10 -13q2 -5 2.5 -9t0.5 -9v-4h-45q0 -6 5 -11q3 -4 11 -4q3 0 7 2q4 4 4 5h18q-2 -5 -6 -11q-3 -2 -5.5 -4t-4.5 -3q-4 -1 -6.5 -2
t-6.5 -1q-32 0 -32 36q0 5 0.5 8.5t2.5 7.5zM553 591q5 0 9 1t7 2q7 4 12 11q4 5 4 14q0 7 -2 9q-1 6 -6 9q-4 6 -11 7q-4 3 -14 3q-5 0 -15 -4q-6 -3 -12 -10q-4 -7 -4 -14t2 -10q3 -6 7 -10t11 -6q6 -2 12 -2zM560 510q4 5 4 14q0 6 -2 10t-6 9q-5 5 -11 6q-6 3 -13 3
q-11 0 -16 -4q-5 -2 -7.5 -4.5t-4.5 -5.5q-4 -7 -4 -14q0 -8 2 -11q4 -6 7 -9q2 -2 5 -3t6 -3q8 -2 12 -2q11 0 16 4q6 3 12 10zM702 -41q0 -9 15 -9q5 0 8 1q2 4 2 5q0 4 -7 5l-15 4q-3 1 -6.5 2.5t-5.5 3.5q-6 4 -6 12q0 6 3 11q2 4 9 8q4 3 14 3q6 0 10.5 -1t8.5 -3
q6 -3 8 -8q1 -2 1 -2.5t1 -2.5v-5h-17q0 5 -3 7q-1 1 -8 1q-10 0 -10 -6q0 -3 6 -4l15 -4q6 -1 14 -6q5 -3 5 -12q0 -6 -3 -12q-4 -5 -10 -8q-4 -2 -15 -2h-6q-4 0 -6 1q-6 2 -10 4q-6 4 -7 7q-2 6 -2 10h17zM614 3h17v-10q7 12 20 12q6 0 12 -3q5 -2 7 -7q3 -6 3 -12v-45
h-17v39q0 8 -2 10q-1 3 -9 3q-7 0 -10 -4q-3 -5 -3 -11v-37h-18v65zM691 149h16v-9q7 10 20 10q9 0 12 -2q2 -2 4 -3.5t4 -3.5q3 -6 3 -12v-45h-17v39q0 4 -2 10q-3 3 -10 3t-10 -4q-2 -3 -2 -11v-37h-18v65zM464 84h-16v9q-3 -5 -8 -7q-8 -4 -12 -4q-10 0 -16 7q-6 6 -6 17
v43h17v-40q0 -12 11 -12q4 0 6 1t6 5q0 2 1 4t1 4v38h16v-65zM793 -6q8 11 23 11q9 0 15 -3q7 -2 10 -9q5 -5 5 -13h-18q0 3 -2 7q-2 3 -8 3q-8 0 -10 -5q-4 -4 -4 -13t1 -12q1 -5 4 -7q2 -2 8 -2q5 0 8 2q3 3 3 9h18q0 -5 -4 -13q-3 -5 -10 -9q-6 -3 -16 -3q-13 0 -21 7
q-4 4 -7 10q-1 4 -1 15q0 14 6 25zM378 592h35v2h-2q-6 0 -8 2q-2 1 -2 3v4v15h12l19 -26h20v2h-2q-5 0 -7 1l-3 3q-1 2 -2 3t-2 3l-2 2q0 1 -2 3v2q-3 1 -6 1q-4 2 -5 3l-6 3h9q2 1 4 1t4 1q3 0 7 2q6 4 6 11q0 2 -1 3q-2 4 -3 5q-3 3 -8 3q-6 2 -13 2h-42v-2h2q5 0 7 -2
q3 -2 3 -8v-31q0 -2 -0.5 -4t-2.5 -3q-2 -2 -7 -2h-2v-2zM368 137h-9v12h9v5q0 18 19 18h9v-13h-5q-3 0 -4 -1q-2 0 -2 -2v-7h11v-12h-11v-53h-17v53zM579 137h-9v12h9v5q0 18 19 18h8v-13h-4q-4 0 -4 -1q-1 0 -2 -2v-7h12v-12h-12v-53h-17v53zM908 137h-8v12h8v17h18v-17
h11v-12h-11v-35q0 -2 0.5 -3t0.5 -2q1 0 2 -0.5t3 -0.5l3 1h2v-13h-11q-8 0 -11 2q-4 0 -5 4q0 2 -1 3.5t-1 3.5v40zM294 137h-9v12h9v17h17v-17h10v-12h-10v-35q0 -4 1 -5q1 0 2.5 -0.5t3.5 -0.5l2 1h1v-13h-10q-8 0 -11 2q-4 0 -5 4q-1 2 -1 7v40zM280 592v2h-3
q-10 0 -10 9v14h14h11q6 2 7 3q5 2 5 5q2 2 2 6t-3 9q-4 4 -10 4q-1 1 -4 1h-6q-3 1 -7 1h-32v-2h2q10 0 10 -10v-31q0 -9 -10 -9h-2v-2h36zM768 137h-10v12h10v17h16v-17h11v-12h-11v-35q0 -2 0.5 -3t0.5 -2q2 0 3 -0.5t3 -0.5l2 1h2v-13h-11q-8 0 -10 2q-5 0 -6 4v7v40z
M546 543l2 -4t2 -5q0 -2 0.5 -4.5t0.5 -5.5q0 -6 -2 -14q-3 -6 -7 -10q-3 -2 -10 -2q-6 0 -7 2q-4 0 -7 5q-1 2 -3 8t-2 11q0 2 0.5 4.5t0.5 4.5q1 2 1.5 3.5t1.5 3.5q3 5 4 6q0 1 5 3q4 2 7 2q1 0 1.5 -0.5t2.5 -0.5l4 -2zM567 638l2 -4t2 -5q0 -2 0.5 -4.5t0.5 -5.5
q0 -8 -3 -14q-2 -6 -6 -9q-5 -3 -10 -3t-8 1q-2 2 -3 2.5t-2 2.5q-2 3 -4 9q-1 3 -1.5 5.5t-0.5 5.5q0 2 0.5 4.5t0.5 4.5q1 2 1.5 3.5t1.5 3.5q2 4 4 6q3 3 5 3q2 1 7 1h4q1 -1 1.5 -1t1.5 -1q4 -1 6 -5zM480 172h17v-88h-17v88zM510 172h16v-88h-16v88zM320 642q3 -2 3 -8
v-31q0 -9 -10 -9h-1v-2h58v22h-1q-1 -2 -1 -3.5t-2 -3.5q-2 -5 -5 -8t-5 -3l-6 -2h-16v24h2q7 0 10 -5l3 -3q0 -1 0.5 -1.5t0.5 -2.5q0 -4 1 -5h1v35h-1q-1 -2 -1 -5q0 -5 -3 -6q-3 -6 -10 -6h-3v25h11q8 0 11 -2q4 0 5 -4q2 -1 4 -5q1 -2 1 -4t2 -4h1v21h-57v-2h1q6 0 7 -2
zM464 519q-2 -2 -2 -3.5t-1 -3.5q-4 -6 -6 -8q-3 -3 -5 -3l-5 -2q-3 -1 -7 -1h-9v24h1q7 0 11 -4q1 -1 1 -1.5t1 -1.5q0 -1 0.5 -1.5t0.5 -2.5q1 -2 1 -5h1v35h-1v-5l-1.5 -3l-1.5 -3q-5 -6 -10 -6h-3v25h10q9 0 12 -1q2 -2 2.5 -2t2.5 -2l3 -6q2 -4 3 -8h2v21h-58v-2h2
q5 0 6 -2q3 -2 3 -7v-32q0 -10 -9 -10h-2v-1h58v22zM646 551h-27v-2h5q0 -1 2 -1q4 -4 4 -5q2 -2 2 -8v-23l-38 39h-21v-2h1q4 0 5 -1q2 0 2.5 -1t1.5 -1q1 -2 1 -5v-31q0 -4 -1 -6q-1 -3 -4 -4q-4 -2 -7 -2v-1h28v1q-3 0 -5 1q-2 0 -2.5 0.5t-2.5 0.5q-1 1 -3 5q-1 1 -1 7
v32l46 -47h2v38q0 6 3 11q1 3 9 3v2zM670 592h22v2h-3h-1q-2 1 -2 1.5t-1 1.5q0 1 -0.5 1.5t-0.5 2.5q0 1 0.5 2t0.5 2l1 4h23l1 -2l1 -1v-1l1.5 -3t0.5 -3q1 -1 1 -2q0 -3 -1 -3h-4h-5v-2h32v2h-2h-4q-1 0 -1.5 1t-1.5 1l-2 4l-21 47h-2l-17 -38q-5 -11 -8 -13
q-2 0 -2.5 -1t-1.5 -1h-3v-2zM400 513v5q-1 1 -1.5 2t-1.5 2q-3 2 -7 4q-2 1 -4.5 1.5t-5.5 2.5h-4h-2l-1 1l-8 2q-2 1 -3 1t-2 1q-1 0 -3 2t-2 4q0 3 1 4q0 -1 2 3l4 2q2 0 3 0.5t3 0.5q4 0 8 -2q5 0 8 -3q4 -2 6 -4t2.5 -4.5t2.5 -5.5h2v18h-2q-1 -4 -4 -4t-5 1
q-10 5 -18 5q-5 0 -11 -2q-2 -2 -3.5 -3t-3.5 -2q-3 -5 -3 -9q0 -3 3 -6q0 -1 3 -4q4 -2 7 -3q1 -1 4 -1.5t8 -2.5l4 -1q6 -2 8 -2t4 -2q1 0 2 -1q3 -3 3 -6q0 -1 -2 -5q-1 -1 -5 -4h-6q-6 0 -9 1q-6 2 -10 4l-6 6q-5 7 -5 12h-2v-25h2q0 4 2 4q2 2 5 2q1 0 1 -0.5t2 -0.5
q1 0 1.5 -0.5t2.5 -0.5q3 -2 4.5 -2t3.5 -1t8 -1q3 0 9 2q2 0 3.5 1t3.5 3q2 1 2 2t2 3v6zM491 591q4 0 10 2q4 1 7 4q1 1 1.5 2.5t1.5 2.5q1 2 1 5v5q-2 2 -2 3t-2 2q-2 2 -6 4q-2 1 -4.5 1.5t-6.5 2.5l-5 1h-2q-2 0 -4 1t-4 1t-4 2q-1 0 -3 2q-2 1 -2 4q0 2 1 3q0 1 2 3
q1 2 4 2q2 1 6 1q5 0 8 -1q2 0 4 -1t4 -1q2 -2 3 -2.5t2 -2.5q4 -6 6 -11h1v19h-1q-1 -4 -5 -4h-1q-2 0 -3 1q-10 5 -18 5t-11 -2q-4 -1 -7 -6q-3 -3 -3 -8q0 -4 2 -6q1 -2 2 -2.5t2 -1.5t2.5 -1.5t3.5 -1.5t5 -1.5t8 -2.5l4 -1q2 -1 3.5 -1t3.5 -1l4 -2q3 0 3 -2q3 -2 3 -5
t-2 -5q-3 -3 -5 -3q-2 -1 -7 -1t-9 1q-3 0 -9 4q-3 2 -7 6q-4 8 -5 13h-1v-26h1q2 3 3 4t4 1h3q3 0 5 -2q2 -1 4 -1t4 -1t7 -1zM593 592h28v2h-5q-3 0 -5 2q-3 0 -3 4q-2 4 -2 7v32l47 -48h1v39q0 3 1 6t2 5q3 3 10 3v2h-27v-2h4l4 -2q2 0 4 -4q1 -2 1 -8v-23l-37 39h-22v-2
h6q2 -2 2.5 -2t1.5 -1q1 -2 1 -5v-31q0 -4 -1 -6q-1 -3 -4 -4q-2 -1 -7 -1v-2zM658 130q-3 6 -12 6t-12 -6q-4 -6 -4 -14q0 -7 4 -13q2 -6 12 -6t12 6q4 4 4 13q0 10 -4 14zM899 -15q-3 5 -12 5t-12 -5q-3 -6 -3 -15q0 -7 3 -13t12 -6t12 6q2 3 2.5 6.5t0.5 6.5q0 11 -3 15z
M800 616h-2q0 -2 -1 -3.5t-1 -3.5q-1 -2 -1 -2.5t-1 -2.5l-3 -3q-3 -5 -7 -5q-2 -2 -7 -2h-14v40q0 6 2 8q1 2 8 2h3v2h-36v-2h2q10 0 10 -10v-31q0 -9 -10 -9h-2v-2h60v24zM779 551h-27v-2h3q5 0 6 -1q2 -1 2 -4q0 -2 -3 -6l-11 -15l-14 18l-2 4v1q0 2 1 2q0 1 3 1h5v2h-35
v-2h1q6 0 8 -1l3 -3t2 -3l17 -22v-12q0 -5 -2 -7l-4 -2t-4 -1h-3v-1h38v1h-4q-4 0 -7 3q-3 1 -3 7v13l14 19q2 2 3 4q4 2 5 2q1 2 3 2q2 1 5 1v2zM710 521h-1q-2 -2 -2 -3.5t-1 -3.5q-2 -2 -2 -5q-1 -1 -3 -4q-4 -4 -7 -5q-2 -2 -8 -2h-14v42q0 5 3 7q2 2 7 2h4v2h-37v-2h3
q9 0 9 -9v-32q0 -10 -9 -10h-3v-1h61v24zM340 551h-27v-2h6q1 0 1.5 -0.5t1.5 -0.5q6 -3 6 -13v-19q0 -8 -5 -13q-1 -1 -7 -5h-9q-7 0 -10 2q-2 0 -6 4q-2 2 -2 9v27q0 6 2 7q2 2 8 2h4v2h-37v-2h1q11 0 11 -9v-27q0 -7 6 -13q3 -2 9 -3q3 -1 11 -1t14 2q4 2 6 4q5 4 5 13
v21v7l5 5h1l1 1h4v2zM425 621q-2 -1 -9 -1h-15v24h15q16 0 16 -11q0 -6 -2 -8q0 -2 -5 -4zM289 621q-1 -3 -11 -3h-11v26h16q3 0 5 -2q6 -2 6 -11q0 -7 -5 -10zM482 -33l-8 -1l-6 -3q-3 -3 -3 -7t3 -5q2 -2 6 -2h3q1 0 1.5 0.5t1.5 0.5q2 1 3 2t3 2q2 2 2 7v9q-3 -3 -6 -3z
M868 113l-8 -2q-3 0 -6 -3q-2 -1 -2 -6t2 -5q2 -2 6 -2h4h1q1 0 2 1q4 2 6 4q2 4 2 8v8q-3 -3 -7 -3zM757 -44h18v-18h-18v18zM311 -44h18v-18h-18v18zM263 123q-2 6 -4 10q-2 2 -4 3t-5 1q-11 0 -13 -14h26zM709 610h-22l11 24z" />
    <glyph glyph-name="A" unicode="A" horiz-adv-x="914" 
d="M437 337q-1 1 1 20q25 61 47 123t38.5 116t28 95.5t17.5 61.5v28l122 56q-5 -47 -9 -101q-4 -46 -6.5 -106t-4.5 -126q1 -8 4 -24t10 -33t19.5 -31t33.5 -19q-24 -7 -36 -25t-17.5 -38t-6.5 -37.5t-2 -23.5q4 -54 11.5 -101.5t20 -81.5t30.5 -53t43 -16q21 2 38 10.5
t30 21t23 28.5t18 32q17 38 25 84l24 -16q-11 -53 -33 -94q-9 -18 -22 -34.5t-29.5 -30t-37.5 -21.5t-46 -8q-54 0 -89.5 46t-58.5 120q-13 12 -32 29t-43 36.5t-52.5 39.5t-58.5 39q-26 -59 -55.5 -112.5t-61.5 -94.5t-66 -65.5t-68 -24.5q-62 0 -98 30t-49.5 74.5t-6 96.5
t32.5 96.5t66.5 74.5t96.5 30q48 0 99.5 -20.5t101.5 -51.5l9 21q1 19 -5.5 48t-31.5 52q27 -4 46 6.5t31.5 25t19 27.5t7.5 13q2 -2 -3.5 -19.5t-12.5 -37.5q-8 -24 -19 -54q-8 -23 -15 -41q-6 -15 -11.5 -28t-6.5 -12zM231 381q-33 0 -59 -23.5t-42 -59.5t-21 -77t3 -77
t30.5 -59.5t61.5 -23.5q30 0 58.5 20t56 54.5t53 80.5t48.5 98q-48 29 -96 48t-93 19zM569 665q-9 -29 -21 -68t-28 -83t-34 -92t-39 -96q51 -33 93.5 -68.5t71.5 -61.5q-14 54 -22 115.5t-12.5 123.5t-6.5 121t-2 109z" />
    <glyph glyph-name="B" unicode="B" horiz-adv-x="625" 
d="M250 807q-7 -15 -15 -45.5t-17 -72.5q14 6 28.5 11.5t30.5 10.5q60 18 103.5 13.5t73 -24t44.5 -51t18 -67.5q9 -17 23.5 -34.5t37.5 -28.5q-24 -2 -42.5 -13.5t-32.5 -25.5q-14 -38 -41 -65t-63 -31q47 -5 74.5 -45.5t32.5 -96.5q7 -15 18.5 -29t31.5 -23
q-22 -4 -36 -14.5t-23 -22.5q-9 -33 -28 -62.5t-48 -52.5t-69 -36.5t-91 -13.5q-48 0 -81 24.5t-53 65.5t-29.5 96t-11.5 115q-32 19 -50.5 57.5t-18 85.5t23 97t72.5 94q5 31 10 56t9 44q4 21 8 39zM286 684q-41 -12 -75 -30q-12 -59 -22.5 -129.5t-16.5 -142t-6 -138
t9.5 -118.5t30.5 -83t57 -31q41 0 76 26.5t57 66.5t29 87t-7 87t-52 66.5t-106 26.5q1 5 1 9q0 10 -1 12q50 0 85.5 25.5t55.5 62.5t23 78.5t-11 73.5t-45.5 48.5t-81.5 2.5zM104 574q-35 -40 -53.5 -84t-15.5 -86q23 7 36 23t20 33q2 30 5.5 58.5t7.5 55.5zM85 327
q-5 17 -16.5 36t-32.5 32q4 -26 15.5 -48.5t33.5 -40.5v21z" />
    <glyph glyph-name="C" unicode="C" 
d="M328 447q43 84 60 150q7 28 9.5 55t-4.5 48t-24.5 34t-49.5 13q-36 0 -69.5 -30.5t-60.5 -80.5t-47 -113.5t-28.5 -130.5t-5.5 -130.5t21.5 -113.5t54 -80.5t90.5 -30.5q36 0 68 8t60 21t51 29.5t42 33.5q44 40 75 92l24 -4q-32 -60 -80 -108q-21 -20 -47.5 -39.5
t-59.5 -34.5t-72 -24.5t-85 -9.5q-60 0 -104 25t-73 67.5t-44 98t-16 116.5q-7 17 -20.5 35t-36.5 29q29 4 43.5 20.5t22.5 35.5q12 67 37.5 130t63.5 112t88.5 78t111.5 29q45 0 75 -12t47.5 -32.5t24.5 -48t7 -57.5q6 -18 19.5 -39t39.5 -34q-32 -3 -51.5 -20t-30.5 -35
q-8 -25 -16 -45.5t-15 -36.5q-8 -18 -15 -34z" />
    <glyph glyph-name="D" unicode="D" horiz-adv-x="678" 
d="M134 777l120 56q-4 -13 -8 -30q-4 -14 -8.5 -34t-9.5 -44q23 9 47.5 17t50.5 13q57 12 98.5 -5t69.5 -54t41.5 -90t15.5 -114q4 -18 17.5 -42t44.5 -37q-31 -5 -47.5 -22.5t-25.5 -35.5q-12 -68 -37 -131.5t-61.5 -113t-83 -79.5t-102.5 -30q-44 0 -74 22t-50 59.5
t-30.5 88t-13.5 106.5q-5 19 -19 45t-45 40q28 4 44 22q-33 24 -45 56.5t-5.5 69t30.5 74.5t64 71q4 27 8 49.5t7 38.5q4 18 7 34zM256 37q46 0 81 30.5t59 80t37.5 112.5t17 128.5t-2 127.5t-20 110t-37.5 76t-53 25q-65 -7 -116 -29q-12 -57 -25.5 -128t-22.5 -144.5
t-12 -143.5t4.5 -124.5t29 -87.5t60.5 -33zM107 617q-25 -29 -38.5 -60t-16.5 -60t4.5 -54t25.5 -42q2 3 3 5.5t2 4.5q6 112 20 206z" />
    <glyph glyph-name="E" unicode="E" horiz-adv-x="585" 
d="M380 509q32 66 38 118q2 22 -1 43.5t-15.5 38t-36 26.5t-61.5 10q-51 0 -88 -24.5t-58 -61.5t-24 -80t13.5 -81.5t54 -65.5t98.5 -31q2 -5 2 -10.5t1 -10.5q0 -6 1 -11q-61 0 -104 -26t-66 -64.5t-25.5 -83.5t17.5 -83.5t63 -64.5t111 -26q40 0 73 9.5t61 24.5t50 34.5
t39 39.5q40 48 65 108l24 -8q-26 -66 -68 -118q-18 -22 -42 -43.5t-54 -38t-67 -26.5t-81 -10q-57 0 -102.5 13t-79.5 35.5t-57 51.5t-34 62q-11 19 -28 39.5t-43 31.5q23 3 40.5 15t28.5 27q14 44 51 78.5t100 50.5q-52 0 -86 30.5t-47 76.5q-11 19 -28.5 40t-43.5 32
q26 4 44.5 18.5t30.5 31.5q10 30 30.5 57.5t52 48t74 33t97.5 12.5q63 0 104.5 -14t65.5 -37.5t33 -53.5t7 -62q4 -15 14 -30t32 -26q-24 -2 -41 -13t-28 -25q-7 -17 -15 -31.5t-16 -27.5q-12 9 -25.5 18t-24.5 17q-13 9 -26 17z" />
    <glyph glyph-name="F" unicode="F" horiz-adv-x="523" 
d="M422 509q23 66 25 118q1 22 -3 43.5t-15.5 38t-31.5 26.5t-51 10q-42 0 -76.5 -25.5t-57 -63.5t-29 -83t7 -83t50 -63.5t101.5 -25.5q0 -5 0.5 -10.5t1.5 -10.5q1 -6 2 -11q-48 -22 -90 -56q-37 -29 -74 -76.5t-60 -115.5t-41.5 -129t-31.5 -107q-16 -55 -27 -100l-30 8
q11 85 19.5 150.5t16.5 118.5q-3 19 -13.5 40.5t-36.5 32.5q30 4 50 22t31 36q11 33 26 58.5t35 46t46.5 37.5t61.5 32q-61 10 -97 47t-47 87q-11 17 -27.5 35t-39.5 29q25 3 43 16.5t30 29.5q10 33 31 63t52.5 53t73.5 36.5t95 13.5t88 -12.5t57 -33.5t31.5 -48t11.5 -56
q8 -17 23 -38t43 -35q-33 -3 -53.5 -22t-31.5 -37q-3 -9 -5 -16t-4 -12q-2 -6 -4 -10z" />
    <glyph glyph-name="G" unicode="G" horiz-adv-x="623" 
d="M371 339q14 0 30 2q14 1 29.5 3t30.5 4q-2 -29 -4 -57.5t-7 -54.5q4 -20 15.5 -41.5t39.5 -29.5q-35 -3 -56 -23.5t-32 -38.5q-46 -124 -133.5 -190t-211.5 -66v9q0 9 3 12q58 0 101.5 24t75.5 63t53 87t34 96q-23 -23 -58 -40.5t-86 -17.5q-42 0 -74 17t-54.5 47
t-35.5 70t-17 86q-6 19 -19.5 42t-42.5 36q29 4 44 21t23 37q10 63 33 123.5t59 107t83.5 75t105.5 28.5q43 0 77 -12t58.5 -32.5t39.5 -48t22 -59.5q10 -16 26 -31t40 -22q-26 -2 -41 -14t-23 -27q-2 -16 -6.5 -31.5t-9.5 -31.5q-11 3 -26.5 6.5t-29.5 5.5l-34 6
q21 72 20 129q0 24 -5.5 47t-18.5 41.5t-34.5 29.5t-54.5 11q-35 0 -65.5 -27t-54 -71t-40 -100.5t-25 -115.5t-9 -115.5t9.5 -100.5t29.5 -71t50.5 -27q38 0 65.5 9.5t46 23.5t29.5 31t17 32q11 57 14 95q2 21 3 39z" />
    <glyph glyph-name="H" unicode="H" horiz-adv-x="812" 
d="M594 783l126 42q-9 -44 -20 -95q-9 -44 -19.5 -100.5t-20.5 -119.5q1 -6 4 -18.5t9.5 -27t19 -28.5t32.5 -23q-21 -3 -36.5 -14t-26.5 -24t-17.5 -26.5t-10.5 -22.5q-7 -60 -10.5 -114t-1.5 -94.5t10.5 -64t25.5 -23.5q42 0 71.5 23t48.5 52q22 33 36 75l18 -9
q-19 -50 -47 -89q-24 -33 -62 -60.5t-92 -27.5q-27 0 -43 33.5t-23.5 88t-8.5 124.5t2 144q-82 -20 -156.5 -51t-137.5 -67q-12 -57 -27.5 -107t-36.5 -87.5t-48 -59t-61 -21.5q-57 0 -74 25t0 64.5t64.5 88t120.5 95.5v3q-2 8 -6 21t-11.5 27t-19 26.5t-29.5 20.5
q24 3 38.5 16.5t22.5 29t11.5 29.5t4.5 20q2 65 0.5 125t-3.5 106q-3 54 -5 101l102 30q2 -82 -2 -169q-3 -75 -10.5 -165.5t-22.5 -178.5q62 32 134 59t153 44q4 72 9.5 138.5t11.5 119.5q6 62 14 116zM88 18q22 0 39.5 15.5t30.5 43t22.5 65t15.5 81.5
q-55 -38 -92.5 -74.5t-53.5 -65.5t-8 -47t46 -18z" />
    <glyph glyph-name="I" unicode="I" horiz-adv-x="346" 
d="M32 765l132 60q-9 -46 -18 -99q-8 -45 -17 -104t-17 -124q2 -9 5.5 -20.5t11 -23.5t18.5 -23t28 -18q-19 -3 -32.5 -12t-22.5 -20t-14.5 -24t-8.5 -23q-4 -60 -3.5 -114t7 -94.5t21 -64.5t38.5 -24q28 0 51.5 8t42.5 21.5t33.5 30t25.5 34.5q26 41 39 94l24 -8
q-17 -63 -49 -112q-14 -21 -31.5 -41t-41 -36t-52 -25.5t-62.5 -9.5q-31 0 -52.5 26.5t-36 71.5t-22 103.5t-10.5 122.5q-2 6 -6 18.5t-12 26t-21.5 26t-34.5 19.5q21 5 34 17t21 26t11.5 28t5.5 23q1 54 4 102t5 84q3 42 6 78z" />
    <glyph glyph-name="J" unicode="J" horiz-adv-x="525" 
d="M85 601l284 212q2 -42 4 -91q2 -42 2.5 -99t-0.5 -123q2 -9 6 -21t12 -24t20 -23t30 -17q-20 -4 -33.5 -15t-22.5 -24t-13.5 -27t-6.5 -24q-5 -71 -14.5 -142t-24.5 -136.5t-36 -122t-49.5 -98t-65.5 -65.5t-84 -24h-76l-4 21h76q44 0 78.5 47.5t59 126t39.5 180.5
t19 211q-2 8 -7 20t-13 24t-21 23t-32 17q21 5 34 17t21 26.5t11.5 28.5t5.5 23q-2 50 -7 98t-12 93q-17 -11 -44 -30t-53 -37l-63 -45z" />
    <glyph glyph-name="K" unicode="K" horiz-adv-x="656" 
d="M207 822q5 -80 7 -165q2 -73 0 -162t-10 -177q50 62 101.5 127.5t94 129t72 122t35.5 107.5l105 15q1 -37 -25.5 -89t-71 -113t-101 -127t-114.5 -130l177 75q2 -22 6 -48q3 -22 8.5 -51.5t13.5 -62.5q4 -7 11 -16.5t17.5 -17.5t25.5 -13t36 -4q-17 -12 -25 -27
t-10.5 -30.5t-1.5 -30t3 -24.5q17 -36 39 -68.5t49.5 -57t61 -39t72.5 -14.5q0 -11 1 -14t2 -4q-68 0 -121 19.5t-93.5 51.5t-69.5 73t-49 84q-47 100 -60 229l-133 -55q-17 -19 -33 -37t-32 -35q-8 -53 -20.5 -99.5t-30 -81t-40.5 -54.5t-53 -20q-36 0 -43 18.5t7.5 51
t46 77t72.5 96.5q1 20 1 41v43q-2 4 -5.5 16.5t-11.5 26.5t-22 28t-36 21q32 8 47 30.5t20 43.5q-4 57 -8.5 108.5t-9.5 90.5q-5 46 -10 85zM57 15q32 0 49 43t24 111q-30 -34 -51.5 -62.5t-32.5 -48.5t-9 -31.5t20 -11.5z" />
    <glyph glyph-name="L" unicode="L" horiz-adv-x="496" 
d="M187 829q3 -42 6 -91q2 -42 4 -97.5t3 -117.5q2 -8 6.5 -20t12.5 -24t20.5 -22.5t30.5 -16.5q-20 -5 -33.5 -16.5t-21.5 -25.5t-12 -28t-6 -24q-3 -67 -10.5 -128.5t-21.5 -109.5q48 -3 109 -22.5t135 -64.5q57 -35 102.5 -57.5t81 -37t62 -21t45.5 -8.5q44 -4 63 14
l4 -24q-36 -21 -94 -18q-25 1 -56.5 7t-71 20t-86.5 37t-102 58q-63 39 -113.5 58.5t-89.5 24.5q-14 -36 -33.5 -56.5t-45.5 -20.5q-41 0 -56.5 16.5t-7.5 37t39 38.5t82 20q7 42 7 98.5t-5 119.5q-3 7 -8.5 18.5t-15 23.5t-24 22t-34.5 14q19 7 30.5 19t18.5 26.5t9.5 28.5
t3.5 25q-8 57 -16 108t-15 89q-8 45 -16 84zM75 25q33 0 49 52q-36 1 -57.5 -7t-28.5 -18t2 -18.5t35 -8.5z" />
    <glyph glyph-name="M" unicode="M" horiz-adv-x="860" 
d="M51 782l133 46q1 -18 2 -41q1 -20 1.5 -47.5t1.5 -60.5q10 -41 24.5 -97t32 -116.5t37 -120t40 -107t41 -76.5t39.5 -29q12 0 26.5 13.5t31.5 37.5t35 56.5t36 71.5q-9 63 -11.5 130t2 130.5t15.5 119.5t29.5 98t45 66.5t60.5 24.5q22 0 32.5 -22t11 -59.5t-8 -87.5
t-23 -106.5t-35 -116.5t-43.5 -116q0 -5 0.5 -10t0.5 -10q7 -13 22.5 -29t45.5 -26q-17 -4 -27 -14t-15.5 -23t-7.5 -27.5t-2 -26.5q13 -78 33 -128t48 -50q45 0 75 27.5t48 60.5q21 39 33 88l24 -4q-11 -57 -34 -102q-10 -19 -24 -37.5t-32 -32.5t-41.5 -23t-52.5 -9
q-28 0 -51.5 18.5t-43 51.5t-35 77.5t-26.5 96.5q-36 -66 -72 -107t-66 -41q-35 0 -66 40t-59 102t-51.5 137.5t-41.5 146.5q-1 -92 -10 -186t-28.5 -171t-51 -129.5t-78.5 -61.5q-7 7 -8 12q-2 3 -2 6q25 5 42 35t27.5 76t15 105t4.5 122q-3 7 -7.5 19t-13.5 24t-22 22.5
t-32 15.5q20 6 32.5 17t20 24.5t11 27.5t5.5 24q-4 52 -9 99.5t-11 85t-12 63t-11 33.5zM663 835q-16 0 -27.5 -29.5t-19 -78t-11 -112t-2.5 -132.5q24 66 43 129t28.5 112.5t7.5 80t-19 30.5z" />
    <glyph glyph-name="N" unicode="N" horiz-adv-x="672" 
d="M55 782l120 55q1 -20 2 -46q1 -22 1.5 -52t1.5 -66q14 -48 34.5 -112.5t44 -134.5t48.5 -138t49 -122t45 -87.5t36 -33.5t18 32.5t1 86t-6.5 121.5t-6 139.5t3 140.5t21 124t48.5 89.5t84 37.5q1 -2 2 -3.5t1 -3.5v-4q-30 -9 -47.5 -39.5t-26 -76.5t-9.5 -103t1 -119
q5 -12 20.5 -31t50.5 -30q-17 -4 -28 -14.5t-18.5 -23.5t-12 -27.5t-6.5 -27.5q2 -63 1 -120.5t-9.5 -101t-27 -69t-50.5 -25.5q-18 0 -40 28.5t-46 76t-48 108.5t-47 125.5t-43.5 128t-36.5 115.5q-1 -62 -3.5 -129t-9.5 -132.5t-18 -125.5t-28 -107t-41 -77.5t-55 -36.5
q-7 7 -8 12q-2 3 -2 6q25 5 41.5 34t27 74t15.5 102.5t5 120.5q-2 5 -6 17t-12.5 26t-22.5 26.5t-36 18.5q22 6 35.5 19.5t20.5 29t10 30.5t4 23q-4 51 -9 97t-11 82t-11.5 60.5t-10.5 32.5z" />
    <glyph glyph-name="O" unicode="O" horiz-adv-x="742" 
d="M284 815q70 0 121.5 -27.5t86 -74t53.5 -107t24 -127.5q5 -18 18 -40.5t43 -35.5q-27 -5 -42 -20.5t-22 -32.5q-8 -70 -30 -135t-55 -114.5t-77 -79.5t-96 -30q-74 0 -127.5 29.5t-89 78.5t-54.5 113t-22 133q-6 19 -19 42t-42 35q32 5 47.5 25t22.5 40q10 65 33 124.5
t56 104.5t76.5 72t94.5 27zM308 15q39 0 70.5 33t54.5 87t36.5 123t16 141t-7.5 141t-34 123t-62.5 87t-93.5 33q-37 0 -67.5 -33t-52.5 -87t-35 -123t-15 -141t7.5 -141t32.5 -123t60 -87t90 -33z" />
    <glyph glyph-name="P" unicode="P" horiz-adv-x="696" 
d="M122 -125v24q24 0 41.5 24t29.5 66t18 99.5t6 123.5q-3 8 -8 20t-13.5 24t-21.5 21.5t-31 12.5q16 7 27.5 17.5t19 23t12 25t7.5 23.5q-2 10 -2.5 20t-1.5 21q-40 -17 -73.5 -10.5t-59 29.5t-41 57.5t-18.5 74t7 78.5t36 70.5t69 51.5t105 20q97 0 170.5 -19t125.5 -50.5
t83.5 -73t43.5 -86.5q10 -15 27 -31t43 -25q-26 -6 -41.5 -20.5t-24.5 -31.5q-10 -49 -40 -91.5t-77.5 -70.5t-111.5 -37t-142 9q-6 -74 -17.5 -144t-31 -124.5t-48 -87.5t-67.5 -33zM170 623l120 60q3 -59 4 -125q1 -57 -0.5 -128t-6.5 -146q93 -15 154.5 14t91 81.5
t26 117.5t-41 122.5t-109 96.5t-178.5 39q-62 0 -100.5 -28.5t-57.5 -70t-18.5 -87.5t18 -81.5t51 -52.5t80.5 1q-12 97 -33 187z" />
    <glyph glyph-name="Q" unicode="Q" horiz-adv-x="813" 
d="M-2 366q29 4 44 22t23 37q10 60 32.5 114.5t55 96t75 66.5t93.5 25q70 0 122 -24t87.5 -65t55.5 -94.5t25 -112.5q2 -9 6 -20.5t11 -23.5t18 -22.5t28 -17.5q-31 -5 -46.5 -23.5t-22.5 -36.5q-14 -80 -49.5 -148t-89.5 -107q46 -62 83 -98.5t67 -56t53.5 -25t41.5 -5.5
l1 -18q-64 0 -114 16t-88.5 40.5t-66.5 54.5t-47 58q-12 -3 -24.5 -5t-26.5 -2q-87 0 -145.5 37t-92.5 96q-21 -8 -44.5 -20t-49.5 -26q-2 1 -3 2.5t-3 3.5t-4 3q11 8 25 19q12 8 29 19t38 22q-15 32 -24 67.5t-12 73.5q-5 19 -18.5 42t-42.5 36zM321 706q-36 0 -65.5 -25
t-52.5 -67.5t-37.5 -97t-19.5 -113.5t-0.5 -118t20.5 -109q31 10 65 13t67.5 -5t65.5 -29.5t59 -61.5q2 -4 4.5 -7.5t5.5 -7.5q29 41 48 103.5t26 132.5t0.5 140t-28.5 126t-61 91t-97 35zM341 20q18 0 36 8q-7 13 -12.5 23.5t-9.5 18.5q-8 16 -21 33t-34 29t-51 17t-72 -4
q23 -56 63.5 -90.5t100.5 -34.5z" />
    <glyph glyph-name="R" unicode="R" horiz-adv-x="784" 
d="M630 295q1 -13 3 -29q2 -14 4.5 -32.5t7.5 -41.5q4 -6 11 -17.5t18.5 -22t27 -18t35.5 -6.5q-15 -10 -23.5 -23.5t-13.5 -27.5t-7 -27.5t-2 -24.5q17 -45 39.5 -87t52.5 -74.5t68 -52.5t85 -20q0 -11 1 -14t2 -4q-68 0 -121.5 21t-94 55t-70 77.5t-49.5 89.5
q-48 106 -63 243l-163 16q-13 -2 -26 -2.5t-27 -1.5q-6 -75 -17 -146t-30.5 -126.5t-48 -89.5t-68.5 -34v24q24 0 41.5 24t29.5 66.5t18 100.5t6 125q-3 9 -8.5 20.5t-14 23t-21 20t-29.5 11.5q32 13 46 39t19 47q-1 11 -2 22.5t-2 22.5q-42 -18 -80.5 -11.5t-69.5 29
t-52.5 57.5t-29 74.5t1.5 78.5t39 70.5t83 51.5t133 20q108 0 190 -17.5t138 -46.5t88.5 -67.5t41.5 -80.5q11 -14 27 -29.5t42 -24.5q-29 -7 -48.5 -23t-31.5 -32q-24 -55 -82.5 -101.5t-149.5 -72.5zM209 623l120 60q3 -58 4 -121q1 -55 0 -124t-6 -143q97 13 162 52.5
t96.5 90.5t28.5 107t-42 102.5t-114.5 77t-188.5 30.5q-60 0 -101 -16.5t-65.5 -43t-34 -60t-6 -66.5t18.5 -63t38.5 -50t55 -26.5t67.5 6.5q-12 97 -33 187z" />
    <glyph glyph-name="S" unicode="S" horiz-adv-x="567" 
d="M302 541q47 64 65 114q7 21 9 41.5t-6.5 36.5t-29 26t-57.5 10q-63 0 -103 -25.5t-53.5 -65.5t0.5 -88.5t60 -93.5q8 -3 20.5 -7t27.5 -4.5t31 3.5t30 17q-9 -32 2 -59t24 -44q54 -40 83.5 -85.5t36 -91.5t-8 -88.5t-47.5 -75.5t-82.5 -52.5t-112.5 -19.5q-46 0 -78.5 9
t-54 24.5t-33 37t-15.5 46.5q-9 15 -26.5 31.5t-43.5 26.5q32 8 52.5 26t31.5 35q11 35 28 67.5t35 56.5q15 -7 31 -15t30 -16q16 -9 31 -17q-52 -81 -71 -144q-8 -27 -10.5 -53t6 -46t30 -32.5t60.5 -12.5q73 0 122.5 32.5t64.5 81t-9 104t-99 102.5q-20 4 -46.5 1.5
t-47.5 -25.5q5 31 -7.5 56t-27.5 41q-44 35 -71.5 77.5t-36.5 86t0.5 85t38.5 73.5t78 51.5t119 19.5q55 0 92.5 -10.5t60 -28.5t32 -42t9.5 -51q11 -12 25.5 -23.5t34.5 -18.5q-34 -8 -55 -27.5t-32 -36.5q-10 -23 -22 -43t-24 -37q-11 9 -26.5 19.5t-29.5 19.5
q-17 11 -35 21z" />
    <glyph glyph-name="T" unicode="T" horiz-adv-x="606" 
d="M100 763q36 -23 84 -41q41 -16 97.5 -30t128.5 -17q29 36 65.5 57.5t73 31.5t71.5 10t62.5 -6t44 -17.5t17.5 -23.5q1 -25 -24.5 -43.5t-66 -31t-91 -19.5t-99.5 -9q-14 -23 -25.5 -52.5t-19.5 -65.5q2 -8 7 -20.5t13.5 -26t22 -25.5t32.5 -19q-23 -5 -38.5 -19
t-25.5 -31t-15.5 -33t-8.5 -24q-2 -132 -14.5 -223.5t-37.5 -147.5t-63 -81t-92 -25v16q24 0 50 25t46 81t32.5 145.5t9.5 219.5l-6 18t-12.5 25.5t-21.5 26t-34 19.5q18 4 31 14t22 22t14.5 25t8.5 24q5 39 14.5 71.5t23.5 59.5q-52 2 -110.5 8t-111 17t-92 27.5
t-54.5 39.5l28 14t30 16zM716 723q0 7 -20.5 13t-51.5 3.5t-68.5 -17t-71.5 -47.5q60 1 100.5 4.5t65.5 9.5t35.5 14.5t10.5 19.5z" />
    <glyph glyph-name="U" unicode="U" horiz-adv-x="669" 
d="M45 757l120 42q-47 -215 -55 -383q-3 -72 1.5 -140.5t22.5 -122t52 -86.5t89 -33q47 0 81.5 32t58.5 84t39 118.5t23 135.5q19 163 12 371l42 12q0 -145 -6 -265q2 -9 6 -20.5t11.5 -23t19 -22t28.5 -17.5q-19 -3 -32.5 -12.5t-22.5 -21t-15 -24.5t-10 -23
q-24 -176 -85.5 -266.5t-181.5 -90.5q-56 0 -95 25.5t-65.5 70.5t-40.5 107.5t-18 136.5q-3 9 -8.5 20.5t-14 23.5t-20 22t-27.5 16q19 4 32 14t20.5 23t11 26t5.5 23q2 60 8 122t14 126z" />
    <glyph glyph-name="V" unicode="V" horiz-adv-x="567" 
d="M12 751l120 48l182 -708l250 672l48 24q-14 -38 -30 -82q-14 -38 -32.5 -87.5t-38.5 -105.5v-20t4 -26t13 -28t26 -26q-23 1 -41 -8t-31.5 -22t-22 -26t-12.5 -20q-20 -56 -37.5 -107t-31.5 -93t-23 -71t-11 -40q-14 -2 -29 -15.5t-27 -28.5q-15 -18 -28 -40
q-14 58 -30 123q-14 56 -32 127t-39 147q-11 16 -33 35t-55 22q18 9 27 23t12.5 29t3 29t-1.5 23q-27 89 -53.5 157.5t-46.5 94.5z" />
    <glyph glyph-name="W" unicode="W" horiz-adv-x="900" 
d="M347 757l120 42q-23 -215 -24 -383q0 -72 4 -140.5t15.5 -122t31.5 -86.5t52 -33q31 0 56 32t43.5 84t32.5 118.5t23 135.5q22 163 29 371l42 12q-5 -84 -11 -155.5t-14 -134.5q5 -18 18 -39t41 -32q-18 -3 -31.5 -11.5t-23.5 -20t-16 -24t-10 -22.5
q-18 -99 -39.5 -165.5t-48 -107t-57 -57.5t-66.5 -17q-45 0 -81 51t-60 138q-33 -105 -76.5 -147t-97.5 -42q-32 0 -59 25.5t-49 71t-38 109t-25 138.5q-3 9 -8.5 20.5t-14.5 23.5t-21.5 22t-29.5 16q17 4 28.5 13t19 20.5t11 23.5t5.5 23q-1 60 2.5 123t11.5 127l120 42
q-23 -215 -24 -383q0 -72 4 -140.5t15.5 -122t31.5 -86.5t52 -33q22 0 41 16.5t35 45.5t28.5 68t23.5 84q-22 106 -26 237.5t14 271.5z" />
    <glyph glyph-name="X" unicode="X" horiz-adv-x="761" 
d="M523 813l72 24l-228 -361q2 -17 10 -34t32 -27q-32 -5 -44 -25t-16 -40q32 -60 65 -114t66 -95.5t64.5 -65.5t60.5 -24q45 0 75 25t49 55q21 35 34 80l28 -4q-19 -55 -47 -98q-12 -18 -28 -36t-35 -31.5t-42 -22t-50 -8.5q-35 0 -74.5 25t-81 68t-83 98.5t-81.5 117.5
l-222 -353l-24 12l191 319q1 9 0 20t-5.5 21t-13 19.5t-22.5 15.5q17 2 27.5 9t17.5 17q-44 72 -81 140.5t-64 122.5q-32 63 -58 120l124 48q21 -58 47 -121q22 -54 51.5 -123.5t64.5 -141.5z" />
    <glyph glyph-name="Y" unicode="Y" horiz-adv-x="638" 
d="M7 763l116 56q-38 -210 -25 -342q6 -56 23 -101t52 -64t90.5 -4t138.5 78q0 84 -5 179.5t-14 205.5l120 48q-1 -81 -2.5 -155t-4.5 -142q7 -18 21 -37.5t43 -29.5q-32 -8 -49 -31t-24 -44q-12 -126 -36 -223t-68.5 -165t-111.5 -106.5t-164 -46.5q0 1 -2 11q-1 4 -2 9
q82 7 138.5 40.5t91.5 94.5t51 150t18 206q-84 -57 -144.5 -73.5t-103 -3t-69.5 52t-42 91.5q-5 8 -12.5 18t-17.5 19t-22.5 16t-27.5 10q17 7 27 18t16 23.5t8 25t2 23.5q-5 50 -6 99t-3 94z" />
    <glyph glyph-name="Z" unicode="Z" horiz-adv-x="511" 
d="M175 799q46 -41 91.5 -62.5t88.5 -30t82 -5t73 12.5q79 22 149 77q2 -7 6 -15q2 -7 5 -15.5t5 -17.5q-36 -14 -71 -44t-70 -71t-69.5 -91t-67.5 -104q-2 -9 -2.5 -21t1 -25.5t7 -27t17.5 -26.5q-34 9 -60 -4.5t-43 -28.5q-29 -50 -57.5 -95.5t-54.5 -83.5
q36 -7 72.5 -23.5t69.5 -46.5q75 -69 138.5 -97.5t111.5 -35.5q55 -8 102 5v-32q-63 -13 -132 -8q-29 2 -62.5 8.5t-69 19.5t-72.5 34t-73 51q-35 28 -67 44.5t-60 24.5q-35 -42 -66.5 -58t-57.5 4q-28 21 -27 43t22.5 39t59 26.5t82.5 6.5q22 33 46 74.5t51 88.5
q2 9 3.5 21.5t0.5 27t-6.5 30t-18.5 29.5q18 -5 34 -3t30 8.5t25 15.5t19 17q42 66 87 130t95 118q-48 -27 -94.5 -39t-90 -13t-83.5 6.5t-74 19.5q-80 28 -149 82zM67 31q14 -8 31.5 3t38.5 37q-27 4 -47 1.5t-30 -9t-9 -15.5t16 -17z" />
    <glyph glyph-name="bracketleft" unicode="[" horiz-adv-x="957" 
d="M753 313q52 0 90.5 10.5t65.5 25t42.5 29.5t22.5 24q-6 -10 -24 -33t-46.5 -46.5t-69 -41.5t-91.5 -18q-40 0 -85 13.5t-93 32.5q-38 9 -84 17.5t-91.5 11.5t-86 -2.5t-67.5 -23.5q15 19 37 30t48.5 16t56.5 4.5t60 -4.5q-66 23 -128 28.5t-113 -26.5q-28 -18 -44 -45
t-18.5 -55.5t10 -55.5t41.5 -44.5t75.5 -22.5t112.5 10q-62 -27 -119 -26t-101 22t-72 56.5t-33 77t16.5 83.5t75.5 76q45 28 88.5 35.5t88.5 0.5q-20 11 -39.5 24.5t-36 29t-27.5 33t-14 37.5q-5 31 1 45t15.5 13.5t20.5 -14t16 -37.5q6 -26 21.5 -48.5t36 -42t43.5 -34.5
t43 -26q49 -17 96 -41t92 -45.5t87 -37t80 -15.5zM450 430q0 1 -7 1q7 -2 7 -1zM974 402q2 2 2.5 3.5t1.5 2.5l2 2z" />
    <glyph glyph-name="backslash" unicode="\" horiz-adv-x="527" 
d="M496 -48q-3 -9 -9 -12t-12.5 -3t-12 1.5t-6.5 1.5t-19.5 33t-48.5 87.5t-68.5 124t-77.5 142.5q-93 171 -210 388q9 9 18 16q7 6 13.5 11t8.5 5q1 0 21.5 -40.5t54.5 -106.5t77.5 -150t90.5 -172.5t93.5 -173.5t86.5 -152z" />
    <glyph glyph-name="bracketright" unicode="]" horiz-adv-x="977" 
d="M221 313q38 0 80 15.5t87 37t92 45.5t95 41q20 11 43 26t44 34.5t36.5 42t21.5 48.5q5 24 16 37.5t20.5 14t15.5 -13.5t1 -45q-3 -20 -14.5 -37.5t-28 -33t-36 -29t-39.5 -24.5q45 7 89 -0.5t89 -35.5q54 -34 75.5 -76t16.5 -83.5t-33 -77t-72 -56.5t-101 -22t-119 26
q66 -15 112.5 -10t75.5 22.5t41.5 44.5t10 55.5t-18.5 55.5t-44 45q-51 32 -113.5 26.5t-128.5 -28.5q30 4 60 4.5t57 -4.5t49 -16t37 -30q-28 18 -68.5 23.5t-85.5 2.5t-91 -11.5t-84 -17.5q-48 -19 -93.5 -32.5t-84.5 -13.5q-52 0 -92 18t-69 41.5t-46.5 46.5t-23.5 33
q6 -9 22 -24t42.5 -29.5t65 -25t91.5 -10.5zM524 430q0 -1 6 1q-6 0 -6 -1zM-6 410q0 -1 1 -2t2 -2.5t3 -3.5z" />
    <glyph glyph-name="asciicircum" unicode="^" horiz-adv-x="397" 
d="M34 508l10.5 10.5t27 26t35 33.5t35 33.5t27 25.5t10.5 11t11 0t25 -3q16 -2 37 -5q15 -32 32 -60q14 -25 33 -50t40 -40q-26 4 -50 19.5t-42.5 33t-29.5 32t-11 15.5t-18 -8.5t-40.5 -27t-44.5 -42t-29 -52.5q-11 6 -21 13.5t-18.5 15t-13.5 13t-5 6.5z" />
    <glyph glyph-name="underscore" unicode="_" horiz-adv-x="501" 
d="M-28 -92l26 52q12 -3 40.5 -5.5t66 -3.5t81 -1t86.5 1.5t82 4.5t68 8q2 -6 2 -16t-1 -19q-1 -11 -3 -23z" />
    <glyph glyph-name="grave" unicode="`" horiz-adv-x="333" 
d="M280 623q-28 -6 -58 -2.5t-58 12t-52.5 20t-43 22.5t-29 19t-9.5 9t2 13t4 27.5t9.5 30t18.5 22.5q25 -57 63.5 -91t73.5 -52t59 -23.5t20 -6.5z" />
    <glyph glyph-name="a" unicode="a" horiz-adv-x="614" 
d="M322 494q18 -1 38 -2q17 -1 39 -1.5t45 -0.5q-23 -45 -37 -88.5t-21 -84.5q5 -23 18 -47.5t44 -32.5q-20 -6 -32.5 -17t-19 -24t-9.5 -27t-3 -26q8 -46 22.5 -72.5t27.5 -28.5t28 5t30 19t29.5 28.5t28.5 33.5q32 40 64 94l22 -14q-37 -59 -73 -105q-16 -20 -33 -39
t-34.5 -33.5t-34.5 -23.5t-33 -9q-49 0 -84 40.5t-52 109.5q-11 -24 -25.5 -50.5t-33 -48.5t-40.5 -36.5t-47 -14.5q-34 0 -60 13.5t-45.5 36.5t-31.5 54t-18 66q-6 19 -21 39t-45 28q26 8 42 28t25 42q6 38 19 72t32.5 59.5t44.5 40.5t56 15q28 0 51 -10.5t41 -26.5
t31.5 -35.5t22.5 -38.5q9 50 20 82q5 18 12 31zM153 38q21 0 41.5 19.5t37.5 46t30 55t20 46.5q-1 9 -1.5 17.5t-0.5 17.5q-2 23 -1 45t3 42q-4 12 -12 29.5t-20 34t-27.5 28t-34.5 11.5q-25 0 -47 -29t-37.5 -72.5t-22.5 -94.5t-2.5 -94.5t22 -72.5t52.5 -29z" />
    <glyph glyph-name="b" unicode="b" horiz-adv-x="488" 
d="M106 1016q23 1 49 3q21 1 46.5 2t48.5 1q-20 -37 -44 -105.5t-47 -155.5q50 -8 103.5 -18.5t110.5 -25.5q37 -6 86 -12t99.5 -5.5t95.5 10t75 32.5q10 8 16.5 9t9.5 -2.5t1.5 -10t-7.5 -12.5q-15 -15 -40 -24t-55 -13t-63.5 -4t-66.5 2q46 -5 94 -6t93.5 4t85 17t67.5 34
q13 10 22 11t12.5 -3.5t1.5 -12.5t-10 -16q-17 -17 -41.5 -27.5t-54.5 -16.5t-64 -7.5t-70 -0.5q49 -3 98.5 -2.5t95.5 7t85.5 19.5t68.5 36q15 12 25 13t13.5 -4t1.5 -14t-11 -18q-28 -28 -76 -41.5t-105.5 -17t-120 1t-119.5 12.5q93 -19 171 -26t138 -1.5t99.5 23.5
t53.5 50q-10 -45 -57 -71t-131 -30.5t-203.5 15t-274.5 64.5q-73 21 -137.5 35.5t-121.5 22.5q-19 -75 -36.5 -156.5t-30.5 -160t-20 -149t-5.5 -123.5t13 -84.5t35.5 -31.5t44 16.5t36 44t27.5 62.5t19.5 73q-35 27 -57 71.5t-27 87t9.5 73.5t52.5 31q49 0 80.5 -22.5
t47 -59.5t15.5 -84.5t-13 -95.5q31 -1 57.5 9t45.5 21q22 13 40 31l15 -24q-19 -19 -44 -34q-22 -13 -52.5 -23.5t-71.5 -10.5q-15 -40 -38 -76.5t-53 -64.5t-67 -44.5t-79 -16.5q-46 0 -71 39.5t-34.5 105t-6 150.5t14.5 175q-1 5 -3 18.5t-8.5 29t-19 30.5t-33.5 23
q24 5 41 21.5t28.5 36t18 36.5t9.5 23q3 17 6 33l6 32h-12t-12 1q-20 -32 -43.5 -59.5t-48 -43t-51 -15t-52.5 24.5q-31 27 -32.5 49t21.5 37t67 23t105 8q17 25 33 53t30 54t25.5 49t18.5 40q2 11 4.5 19t4.5 14q2 7 3 13zM198 439q-8 -3 -10 -21.5t3.5 -44t18 -53
t33.5 -49.5q5 37 5 70t-5.5 57t-16.5 35.5t-28 5.5zM-146 682q24 -17 54.5 4.5t61.5 63.5q-88 -2 -119.5 -22.5t3.5 -45.5zM50 771q2 13 4.5 24.5t4.5 22.5q-5 -11 -11 -22.5t-13 -23.5q10 0 15 -1zM106 999q-1 0 -1 -1v-2q0 1 0.5 1t0.5 1v1zM306 724l-2 1q1 0 2 -1z
M302 732q1 0 2 -1z" />
    <glyph glyph-name="c" unicode="c" horiz-adv-x="469" 
d="M490 197q-42 -57 -92 -102q-21 -19 -47 -37.5t-55 -32.5t-61 -23t-66 -9q-41 0 -71.5 13t-52.5 35t-35.5 51.5t-19.5 63.5q-7 19 -22 40t-45 29q29 8 46.5 32t27.5 48q10 38 27 72t41 60t54 41.5t65 15.5q65 0 98.5 -16t45 -40t5.5 -52t-20 -52t-31 -41t-28 -18l-28 27
q11 2 25 14t25 29t17.5 36.5t3 36t-20 28t-50.5 12.5q-26 1 -54 -31.5t-50.5 -81t-36 -105.5t-11.5 -106t23.5 -81.5t68.5 -32.5q35 0 67 8.5t60 22t51.5 31t43.5 35.5q46 43 81 98z" />
    <glyph glyph-name="d" unicode="d" horiz-adv-x="607" 
d="M521 1038q50 -46 87 -95.5t57 -96t20 -86t-25 -65.5q-29 -30 -89 -30.5t-144 14.5q-2 -9 -3.5 -17.5t-3.5 -16.5q1 -8 3.5 -21t9.5 -27t18.5 -26t30.5 -19q-22 -4 -38.5 -17.5t-29 -30t-20.5 -33.5t-12 -27q-13 -79 -19.5 -151.5t-2.5 -128t20 -90t49 -37.5
q24 -3 44.5 4.5t37.5 21t30.5 31.5t24.5 37q25 45 41 103l16 -28q-17 -58 -44 -104q-12 -20 -27.5 -38.5t-35 -33t-43.5 -23.5t-52 -9q-57 0 -88 46.5t-44 122.5q-9 -29 -22 -59.5t-31 -56t-40.5 -41.5t-50.5 -16q-36 0 -63 12.5t-46.5 34t-31.5 51t-17 62.5q-6 19 -21.5 41
t-46.5 30q28 8 45.5 32t27.5 47q8 39 23.5 74t36.5 62t47.5 42.5t57.5 15.5q25 0 45 -7t35.5 -18t26.5 -25t19 -29q5 71 14 142.5t20 139.5q-69 15 -146.5 32.5t-159.5 32t-167 23t-169.5 6.5t-166.5 -17.5t-159 -49.5q35 36 79 59.5t94.5 36.5t106.5 16.5t115 0.5
q-68 7 -134 8t-124.5 -6.5t-108 -23.5t-85.5 -44q-17 -14 -33 -16t-25 4t-7.5 19.5t19.5 31.5q31 31 84.5 47t121.5 20t147 -1.5t161.5 -17.5t164 -29t155.5 -35t136.5 -36t105.5 -31q11 63 22 117t20 95q11 48 21 87zM137 30q31 0 55 27t42 63.5t29.5 74t16.5 59.5
q-2 46 0 96q-4 12 -10.5 28t-16 30t-22.5 24t-30 10q-22 0 -44.5 -30.5t-40.5 -76.5t-29.5 -99t-11 -99t14.5 -76.5t47 -30.5zM489 924q-12 -44 -26.5 -99t-28.5 -118q69 -13 119.5 -13.5t76.5 19.5q17 13 11 36.5t-27.5 52t-54.5 60.5t-70 62z" />
    <glyph glyph-name="e" unicode="e" horiz-adv-x="495" 
d="M328 338q-15 -49 -47.5 -79t-70 -47t-72.5 -23t-54 -7q-3 -33 0 -62.5t12 -51.5t25.5 -35t40.5 -13q27 0 56 9t58 23t56.5 32.5t51.5 37.5q57 45 111 102l24 -18q-54 -59 -112 -105q-25 -20 -53.5 -39t-58.5 -33.5t-61.5 -23.5t-62.5 -9q-38 0 -68 15t-53 40.5t-37.5 59
t-20.5 71.5q-7 18 -21 36.5t-43 25.5q24 8 41.5 30.5t28.5 46.5q9 35 27 66.5t45 55t63.5 37.5t83.5 14q33 0 58.5 -10.5t41 -30.5t19 -49t-7.5 -66zM220 452q-24 -8 -45 -32t-38.5 -57t-30 -72.5t-18.5 -78.5q20 3 49.5 11t59 23t55 39t37.5 59q8 22 6.5 44.5t-11 39
t-26 24t-38.5 0.5z" />
    <glyph glyph-name="f" unicode="f" horiz-adv-x="206" 
d="M-475 1002q-46 35 -91.5 42.5t-84 -9t-66 -55.5t-38.5 -96q-6 -30 1.5 -62t29.5 -63t59 -57.5t91 -45.5q-20 14 -42.5 33t-43 40.5t-36 45.5t-21.5 48.5t0 49.5t30 49q18 18 37 21t30.5 -4.5t11.5 -23.5t-20 -36q-26 -26 -22 -61t26.5 -69.5t57.5 -65t73 -48.5
q7 -2 13.5 -2.5t13.5 -1.5q-25 10 -54.5 27.5t-52 43t-33.5 59.5t1 78q9 -41 31 -76.5t52 -63.5t65.5 -47t70.5 -28q84 -2 187 11.5t231 48.5q12 67 29.5 128.5t44 108t63 74t84.5 27.5q78 0 116 -24.5t49 -59.5t2 -73.5t-25 -66.5q55 21 124.5 44.5t144.5 43.5t150.5 33
t142.5 13q-53 -2 -107.5 -12t-105 -23.5t-93.5 -28.5t-73 -27q116 30 205.5 45t154 12t104.5 -27t57 -72q16 -47 11.5 -81.5t-23 -58t-47 -36t-61 -14.5t-65 6.5t-57.5 26.5q17 -9 42.5 -12.5t52.5 -0.5t51.5 13.5t38.5 29t14 44.5t-21 61q-1 1 -5 7q10 -25 12 -53.5
t-17 -48.5q-16 -17 -36.5 -23.5t-41.5 -6t-39 8t-28 19.5t-9 21t8.5 13t19 3t22.5 -10q23 -17 48 -21t39 9q8 7 11.5 22t2 33t-8.5 37t-19 35q-40 29 -106.5 34.5t-167.5 -11t-241 -54.5t-327 -95q-8 -42 -15 -89t-14 -100q1 -8 4.5 -21t10.5 -26t19 -25t31 -18
q-21 -5 -36.5 -19.5t-26 -32t-17 -34t-10.5 -26.5q-11 -89 -24 -176.5t-30 -166t-40 -145t-53.5 -114t-70.5 -73t-91 -20.5l-4 14q43 -5 73.5 19t52 69.5t35 110.5t22.5 141.5t15 162t12 173.5q-2 7 -5.5 20.5t-11.5 27.5t-20.5 26.5t-32.5 18.5q20 6 34.5 20t24.5 31
t16.5 33.5t9.5 27.5q3 38 7 76.5t10 76.5q-147 -42 -270 -56.5t-220.5 -7.5t-170 32.5t-119 64.5t-66.5 88.5t-13 104.5q7 56 30 96.5t54.5 65t69.5 34t75 4t70.5 -26t57.5 -55.5zM289 990q-47 -8 -77.5 -76t-54.5 -193q43 13 83.5 25t79.5 23q5 2 9.5 4t9.5 4
q18 14 29.5 37t16 48.5t1 50.5t-15 43.5t-32 28.5t-49.5 5z" />
    <glyph glyph-name="g" unicode="g" horiz-adv-x="509" 
d="M432 494q-1 -23 -4 -50q-2 -23 -5 -56t-8 -71q1 -12 4.5 -25t9.5 -26t16 -23.5t25 -17.5q-33 -4 -51.5 -22.5t-28.5 -38.5q-14 -77 -42 -143.5t-67 -120.5q44 -15 89 -30.5t92 -31.5q52 -14 114.5 -27.5t125 -21t119 -6t96.5 16.5q-21 -15 -50 -23t-62 -10.5t-69.5 0
t-72.5 7.5q72 -21 129 -32.5t89 -7.5q52 7 86.5 28.5t53 49t21 56t-7.5 49.5q13 -11 24.5 -32t17 -46t3 -53t-17 -52t-43.5 -43t-76 -27q-38 -6 -89.5 -1t-110.5 18.5t-123.5 33.5t-129.5 43t-128.5 47.5t-120.5 46.5q-51 -53 -114 -78.5t-133 -15.5q-2 0 -4 0.5t-4 0.5
q-46 7 -73 28.5t-37.5 48t-5 54.5t24.5 50t51 33.5t75 4.5q35 -6 89.5 -22t120.5 -39q51 89 64 219q-12 -20 -26.5 -39t-31.5 -34t-37 -24t-43 -9q-36 0 -63.5 11t-48 30.5t-34 46t-19.5 56.5q-6 19 -21 41t-47 30q24 8 40.5 26.5t27.5 39.5q7 37 23 71t39 60t53 41t66 15
q27 0 49 -8t38.5 -21.5t28.5 -30.5t21 -34q0 21 -0.5 38t-0.5 30v26zM169 67q24 0 45 19.5t38.5 46t30.5 55t20 46.5q2 21 2.5 41t1.5 39q-2 6 -8 27t-18.5 43.5t-31.5 40t-45 17.5q-14 0 -30.5 -16t-32.5 -42.5t-30 -60t-22 -69t-9.5 -69t7 -60t28 -42.5t54.5 -16z
M-10 -214q62 -11 114 11.5t93 71.5q-62 24 -108.5 40t-72.5 21q-49 8 -79.5 -10t-37 -45t14.5 -53.5t76 -35.5z" />
    <glyph glyph-name="h" unicode="h" horiz-adv-x="544" 
d="M158 986q-1 -8 -2 -18q-1 -9 -1.5 -21t-2.5 -28q0 -70 19.5 -129.5t60 -95.5t102.5 -41t147 34q163 75 301.5 100.5t238 10t151.5 -67t42 -130.5q-5 45 -33.5 73.5t-73 43t-101 17t-117.5 -3.5t-122 -18t-114 -27q39 7 85.5 13.5t94.5 10t95.5 3t89.5 -6.5t76.5 -18.5
t56.5 -34.5q9 -9 11 -18t-1.5 -14t-13.5 -4t-25 13q-29 22 -68.5 35.5t-85.5 20t-95.5 7t-98.5 -2.5q36 1 70 -1t64 -8t54.5 -16.5t41.5 -26.5q8 -8 10 -16t-1.5 -12.5t-12.5 -3.5t-22 11q-28 22 -67.5 34t-85 16.5t-93.5 3t-94 -5.5q33 3 66.5 3t63.5 -4t55 -13t40 -24
q6 -6 7.5 -12.5t-1.5 -10t-9.5 -2.5t-16.5 9q-26 20 -65 29.5t-82.5 12t-88 -1t-82.5 -9.5q-5 -2 -13 -6q-54 -25 -112 -31.5t-110 11.5t-92.5 63t-58.5 123q-5 -46 -11.5 -98.5t-14 -108t-17 -113t-19.5 -112.5q25 28 50 52.5t48 42.5t43 28t36 10q46 0 73.5 -12.5
t41 -34.5t15 -51t-4.5 -62q0 -9 1.5 -22.5t6.5 -27.5t14.5 -27.5t26.5 -22.5q-22 -1 -40 -13t-32 -28t-23.5 -31.5t-14.5 -23.5q-9 -25 -14.5 -46.5t-5.5 -37t7 -24t23 -8.5q25 0 47 8.5t42 22.5t37 32t31 37q33 44 59 100l24 -12q-23 -62 -57 -110q-15 -21 -34 -40.5
t-42.5 -35t-52 -25t-62.5 -9.5t-51 19t-23.5 50.5t-4 72t8 82.5t12 82t8 71.5t-4 51t-23.5 19.5q-15 0 -35.5 -12t-44.5 -33t-49.5 -48.5t-50.5 -58.5q-14 -62 -29 -115t-32 -92.5t-35.5 -62t-39.5 -22.5q-29 0 -35 22t5.5 58.5t37 82.5t58.5 94q5 48 8.5 101.5t6.5 109.5
q-2 7 -5.5 20t-11.5 27t-21.5 26t-34.5 18q19 6 33 20t24 31t16 34t9 28q2 63 3 118t2 97q1 48 1 89zM-67 34q17 0 29 42t22 111q-21 -31 -36.5 -59t-23 -49t-6 -33t14.5 -12zM418 627h2h-2zM416 620h2h-2z" />
    <glyph glyph-name="i" unicode="i" horiz-adv-x="376" 
d="M21 494l121 -9l-8 -24q-4 -11 -8 -27.5t-9 -35.5q1 -10 4.5 -22.5t10 -24.5t17 -23t26.5 -17q-21 -4 -37 -17.5t-28 -30t-19.5 -32.5t-11.5 -26q-3 -28 -4 -53.5t1 -46t8.5 -35t17.5 -20.5q16 -9 36 -5.5t42 15.5t45 30t45 38q51 48 106 114l12 -28q-5 -5 -23 -25.5
t-44 -47.5t-58.5 -55.5t-67 -49.5t-69 -30t-64.5 4q-21 9 -35.5 27.5t-23.5 44t-13 56.5t-4 64q-2 7 -5.5 20.5t-10.5 27.5t-19.5 27t-31.5 20q17 4 30.5 14.5t23.5 24t16.5 28t11.5 26.5q3 23 6.5 42t6.5 33q4 16 7 29zM144 798q19 0 30.5 -7t16.5 -19t4.5 -27t-4.5 -31
q-7 -32 -29.5 -54t-53.5 -22q-29 0 -38.5 24.5t-1.5 58.5t30.5 55.5t45.5 21.5z" />
    <glyph glyph-name="j" unicode="j" horiz-adv-x="230" 
d="M6 500q0 -13 -1 -30q-1 -14 -1.5 -34t-2.5 -45q-4 -12 -11 -26.5t-17 -28t-23.5 -24.5t-30.5 -15q17 -6 28.5 -16t19 -22t11.5 -24.5t6 -21.5q-13 -92 -36 -182.5t-61 -164.5q-75 13 -136 21.5t-99 8.5q-43 0 -72.5 -16.5t-44.5 -42t-15 -54.5t15 -54.5t45.5 -42
t77.5 -16.5q80 0 142 35.5t110 93.5q60 -14 125.5 -28.5t132.5 -27.5t132 -22.5t123.5 -12.5t107.5 1t84 19q52 22 74.5 51.5t24 59.5t-15 56t-43 40.5t-59.5 14t-65 -23.5q52 16 79.5 2t29.5 -40t-22 -55.5t-75 -45.5q-32 -10 -95 -6.5t-143 14.5q38 0 77 2.5t74 9.5t64 19
t48 32q-40 -24 -101.5 -33.5t-130 -10t-136.5 5t-122 12.5q-32 5 -64 11.5t-63 11.5q49 79 81.5 174t52.5 189q5 12 13 26.5t19 28t25.5 24.5t32.5 14q-18 7 -29.5 20t-17.5 27t-8.5 27t-3.5 21q2 20 4 36.5t4 27.5q2 13 2 24zM-342 -300q-56 0 -81.5 23t-24 51t28 51
t75.5 23q27 0 78.5 -10t119.5 -26q-36 -51 -84.5 -81.5t-111.5 -30.5zM106 798q19 0 31.5 -7t18.5 -19t7.5 -27t-0.5 -31q-4 -32 -23.5 -54t-51.5 -22q-29 0 -41.5 24.5t-8.5 58.5q5 34 25 55.5t43 21.5zM-29 -152h-4h4z" />
    <glyph glyph-name="k" unicode="k" horiz-adv-x="417" 
d="M-6 1010l124 40q-1 -45 -4 -99q-2 -46 -6 -107.5t-9 -131.5q63 -4 131 -14.5t140 -28.5q27 -8 54 -14t53 -11q57 -7 118.5 -7t121 12t112 38.5t91.5 72.5q13 15 26.5 17t22.5 -4.5t9.5 -18.5t-11.5 -24q-33 -33 -73 -54.5t-84 -34.5t-90 -17.5t-91 -4.5q117 -12 206.5 3
t141.5 67q-13 -59 -46.5 -99.5t-103.5 -54t-183.5 5t-286.5 77.5q-75 26 -139.5 41t-120.5 23q-5 -63 -11 -129.5t-14 -131.5t-17 -125.5t-20 -112.5q39 34 79.5 72t75 79.5t57 86.5t25.5 92q2 -2 15 -5.5t30 -7.5q18 -4 43 -10q-2 -33 -27 -70t-63.5 -76t-84.5 -78t-91 -75
l178 69q3 -17 8 -37q4 -17 10.5 -40t14.5 -49q14 -14 35.5 -27.5t50.5 -8.5q-23 -19 -29 -47t-5 -53q16 -35 35 -66t40.5 -54.5t45.5 -37.5t51 -14q2 -2 1.5 -5.5t-0.5 -6.5q-1 -4 -1 -8q-32 0 -64.5 16.5t-64 44t-61 62.5t-54.5 71q-60 85 -115 194l-134 -49
q-3 -2 -6.5 -4.5t-6.5 -5.5q-9 -36 -19.5 -64.5t-22.5 -46.5t-25 -24t-28 2q-19 10 -22.5 24t5.5 31t27.5 37t44.5 43q8 64 11.5 151t5.5 183q-2 7 -6.5 19.5t-13.5 26t-22.5 25t-34.5 16.5q20 7 33.5 22.5t22.5 33.5t14 35.5t7 28.5v13q-10 1 -18.5 1h-17.5
q-20 -39 -45 -71t-52.5 -50t-56.5 -18t-59 26q-28 24 -27 45.5t25 39t69.5 30t106.5 18.5q14 28 25.5 59t20.5 60.5t15.5 55.5t10.5 45q-1 18 -1.5 32.5t-0.5 24.5q-1 11 -1 21zM-218 607q40 -17 72.5 8.5t58.5 73.5q-48 -5 -80.5 -16t-48.5 -23.5t-16.5 -24.5t14.5 -18z
M-61 26q13 -8 22 11.5t16 57.5q-28 -26 -39.5 -43.5t1.5 -25.5zM0 773q-5 -14 -11.5 -29t-13.5 -29h25v58zM303 681l1 -1z" />
    <glyph glyph-name="l" unicode="l" horiz-adv-x="322" 
d="M70 1006l130 24q-15 -55 -31 -118q-14 -54 -30 -125.5t-31 -149.5q1 -9 4 -21.5t10 -26t18.5 -25t29.5 -18.5q-21 -4 -37 -17.5t-27.5 -30.5t-19 -33.5t-11.5 -26.5q-11 -80 -16 -152t0.5 -127.5t23 -88t51.5 -32.5q17 0 34 7.5t33.5 20t31.5 28t29 32.5q32 39 60 88
l32 -8q-32 -57 -70 -102q-16 -19 -35 -37.5t-39.5 -32.5t-42.5 -23t-45 -9q-50 0 -79.5 38.5t-44 102.5t-16 146.5t4.5 171.5q-2 8 -5.5 21t-11 27t-20 26.5t-31.5 18.5q22 5 38 20.5t26.5 33.5t16.5 35.5t9 26.5q2 19 5 37.5t6 35.5q-44 -48 -102 -66t-119.5 -14.5
t-120.5 23.5t-104 49q-37 23 -86.5 53t-103 57t-107.5 47t-98.5 23t-75.5 -16t-40 -68q-1 73 32 109.5t93.5 39t146 -29.5t189.5 -97q-24 20 -54.5 42t-64 42.5t-69 37t-70.5 25.5q48 -8 94.5 -28.5t91.5 -46.5t87.5 -56t82.5 -57t77.5 -49t71.5 -32q45 -8 86 -3t75.5 21
t61.5 42t44 61q6 35 11.5 63t10.5 48q5 24 10 43z" />
    <glyph glyph-name="m" unicode="m" horiz-adv-x="703" 
d="M-26 474l108 40q0 -19 -1 -42q-1 -20 -2 -46t-3 -56q19 28 39.5 52t40 42t38 28t34.5 10q28 0 44.5 -16t25 -42.5t9 -62t-3.5 -74.5q16 34 34.5 67.5t39.5 60t44 43t47 16.5q23 0 36.5 -14t19.5 -38t6.5 -55.5t-2.5 -65.5q6 -20 20 -42.5t44 -31.5q-20 -5 -34.5 -18.5
t-24.5 -30t-16.5 -33t-10.5 -27.5q-5 -41 -2 -66.5t20 -25.5q29 0 60 22t58 48q31 31 62 70l28 -12q-40 -48 -80 -86q-18 -16 -37.5 -31.5t-40 -27.5t-41.5 -19.5t-41 -7.5q-27 0 -39.5 31.5t-16.5 79.5t-2.5 103t2.5 103t-1.5 79.5t-14.5 31.5t-28 -20.5t-34 -52.5
t-36.5 -71t-33.5 -76q-9 -43 -19 -81.5t-19 -68.5q-11 -35 -20 -66l-48 8q19 122 27 218q3 41 4.5 80t-1.5 70t-10.5 49.5t-21.5 18.5q-11 0 -23.5 -9.5t-26.5 -25.5t-28.5 -37.5t-28.5 -46.5q-5 -56 -13 -113.5t-21 -104.5t-31.5 -77t-43.5 -30q-18 0 -25 16t-4 43.5
t14.5 63.5t28.5 76q-7 17 -20 35t-39 26q27 6 44.5 26.5t28.5 43.5q-3 43 -7.5 82t-10.5 68zM-28 46q12 0 18 32.5t7 83.5q-10 -24 -17 -45.5t-10.5 -37t-3 -24.5t5.5 -9z" />
    <glyph glyph-name="n" unicode="n" horiz-adv-x="573" 
d="M93 506q0 -18 -2 -40q-2 -19 -4 -45t-5 -55q24 28 48 52t46 42t41.5 28t35.5 10q51 0 81 -14t43.5 -37t13.5 -54.5t-7 -65.5q1 -20 9.5 -45t36.5 -41q-17 -1 -32 -8.5t-28 -18t-23 -23.5t-17 -24q-10 -27 -17.5 -51t-9 -41.5t4.5 -27.5t24 -10q25 0 48.5 8t45 21
t40.5 29.5t36 33.5q39 40 71 93l34 -12q-39 -59 -86 -106q-20 -20 -44 -39t-51 -34t-56.5 -24t-60.5 -9q-32 0 -45 19.5t-15 51.5t5 73t15.5 84t16.5 84t8 73t-10.5 51.5t-38.5 19.5q-17 0 -37 -11t-42 -30t-45 -45t-45 -55q-8 -55 -19.5 -112.5t-29 -104t-41.5 -76.5
t-55 -30q-24 0 -31 18t-0.5 48t25 69t44.5 82q-3 18 -13 35t-36 25q32 8 48.5 30.5t24.5 43.5q1 29 1 53.5v43.5q0 22 -1 40zM-61 26q9 0 16.5 11.5t13 32t9.5 47.5t7 58q-18 -31 -30.5 -58t-19.5 -47.5t-6 -32t10 -11.5z" />
    <glyph glyph-name="o" unicode="o" 
d="M-6 129l-10 30t-13.5 27.5t-21 22.5t-30.5 16q23 7 38 24t25 37q7 41 23.5 79t43.5 66.5t63 45.5t82 17q42 0 68.5 -7.5t42.5 -16.5q18 -11 27 -24l-18 -9q-21 16 -44 25q-20 8 -45 9t-52 -13q-18 -10 -38 -46.5t-35 -85.5t-22.5 -104t-1.5 -101t28.5 -76t68.5 -30
q30 0 54 13.5t41.5 36.5t29.5 52.5t19 61.5q-22 9 -38.5 30.5t-26 48t-11.5 54.5t4 51t21.5 38t41.5 15t45 -26.5t28 -67.5q7 -18 21.5 -35t41.5 -24q-20 -6 -33.5 -20t-23.5 -31q32 10 64 31.5t58 44.5q31 26 60 56l21 -12q-32 -37 -66 -68q-30 -27 -67.5 -52t-75.5 -35
q-8 -36 -24 -69.5t-41 -59t-60.5 -40.5t-82.5 -15q-71 0 -115 39t-64 97zM303 383q-16 0 -22 -21.5t-3 -50t14 -56.5t31 -41q5 32 5.5 62.5t-2.5 54t-9 38t-14 14.5z" />
    <glyph glyph-name="p" unicode="p" horiz-adv-x="527" 
d="M98 494q-1 -26 -3 -59q-2 -28 -4 -66t-5 -83q25 45 51.5 83.5t53.5 66t54.5 43t54.5 15.5q39 0 67.5 -15t47 -40t28 -59t10.5 -71q5 -19 17 -41t41 -33q-30 -6 -50 -29t-31 -46q-12 -33 -28.5 -62t-37 -50t-45 -33.5t-51.5 -12.5q-36 0 -61.5 8t-42 21.5t-26.5 31
t-14 35.5q-11 42 0 96l28 4q-6 -43 1 -76q3 -14 8.5 -28t15.5 -24.5t24.5 -17t34.5 -6.5q40 0 66 30t39 75t13.5 96.5t-9.5 95.5t-30.5 71.5t-50.5 23.5q-22 -3 -45.5 -21.5t-46.5 -48.5t-46.5 -70t-45.5 -87q-6 -73 -14.5 -153.5t-19.5 -159.5t-25 -151.5t-31.5 -128.5
t-39 -91.5t-46.5 -40.5q-20 -4 -29 17t-9 60.5t8 94t23 118t35.5 133t46.5 138.5q-3 9 -7.5 21t-13 23t-20.5 20.5t-29 13.5q17 5 29.5 16t21.5 24.5t15.5 28.5t10.5 27q2 55 3 101.5t2 81.5q1 40 2 74zM-90 -482q11 0 20.5 34.5t17.5 92t14 133t11 156.5q-26 -80 -45 -155
t-28 -133t-7 -93t17 -35z" />
    <glyph glyph-name="q" unicode="q" horiz-adv-x="511" 
d="M-138 -238q-70 0 -94 22.5t-11 49.5t56.5 49.5t108.5 22.5q45 0 122 -11.5t170 -28.5v9t1 8l3 28q3 44 8 87t10 87q-22 -35 -50.5 -61t-63.5 -26q-33 0 -58.5 13t-43 35.5t-28 52.5t-14.5 64q-7 24 -21.5 48.5t-41.5 35.5q17 3 29.5 10.5t21.5 18t15 21.5t9 20
q9 36 24 67.5t35.5 55.5t45.5 38t55 14q24 0 44.5 -8t37 -20.5t29.5 -29t23 -32.5q4 20 7.5 37t5.5 29q3 14 5 26l108 24q-8 -36 -18 -80q-8 -38 -19 -88.5t-22 -109.5q1 -12 2.5 -29.5t7 -36t16.5 -35.5t29 -27q-21 -1 -36.5 -9.5t-26.5 -20t-18 -23t-10 -18.5
q-6 -32 -10.5 -65t-9.5 -65l-4 -28q-2 -8 -2.5 -15t-1.5 -15l30 -6t31 -5q53 -7 121.5 -12.5t137 -5t130 10t101.5 33.5q-19 -20 -48 -32t-64 -19t-74 -9.5t-77 -2.5q80 -11 143 -14.5t95 6.5q34 10 56 28.5t32.5 39t9.5 39.5t-13.5 31t-36.5 13.5t-60 -12.5q32 23 65 25.5
t60 -9t44 -34t16 -49.5t-23.5 -54.5t-74.5 -49.5q-42 -18 -104.5 -21t-136.5 3t-155.5 19t-160.5 29q23 -23 41.5 -57.5t28.5 -71.5t10 -72t-13 -60t-41.5 -35t-74.5 4q-24 7 -38.5 34t-22.5 69.5t-10 97.5t1 117q-50 10 -94.5 20t-82 17t-66.5 11.5t-47 4.5q-49 0 -85 -15
t-49 -32.5t3 -32.5t72 -15zM129 38q18 0 35.5 14t33 35.5t29 46t22.5 45.5q7 49 14 93.5t13 82.5q-6 13 -14 26t-18.5 24t-22.5 18t-27 7q-25 0 -49 -29t-43 -72.5t-30 -94.5t-10 -94.5t16.5 -72.5t50.5 -29zM314 -465q28 0 41 18t15 46t-5.5 61t-20.5 63t-29.5 52.5
t-33.5 28.5q-6 -57 -8 -106t1.5 -85.5t13 -57t26.5 -20.5z" />
    <glyph glyph-name="r" unicode="r" horiz-adv-x="494" 
d="M71 506v-45q0 -21 -0.5 -50t-2.5 -61q23 30 48 55.5t51 44.5t52.5 30t52.5 11q41 0 58.5 -14t20.5 -35.5t-2.5 -46.5t-10.5 -46.5t-3.5 -35.5t18.5 -14q26 0 54.5 7.5t53.5 17.5q29 11 57 26l3 -27q-58 -24 -109 -40q-22 -7 -44.5 -12.5t-42.5 -8.5t-37 -2.5t-27 6.5
q-14 7 -17.5 24t-1.5 37.5t6.5 42.5t5 39.5t-5.5 28t-24 8.5q-19 -2 -39 -14.5t-40.5 -32t-40.5 -45.5t-39 -54q-3 -53 -9.5 -106.5t-17 -96.5t-26 -70.5t-36.5 -27.5q-23 0 -32 17.5t-6.5 47t14.5 67.5t32 80q-9 16 -24 32t-40 24q18 4 30 14.5t19.5 23t11.5 25.5t6 24
q-2 26 -4 48t-4 39q-2 19 -4 35zM-22 34q6 0 10 11t6.5 30t3 44.5t-0.5 54.5q-13 -29 -21.5 -54.5t-11.5 -44.5t0 -30t14 -11z" />
    <glyph glyph-name="s" unicode="s" horiz-adv-x="348" 
d="M178 491q-24 -11 -46 -34t-36 -52.5t-18 -63.5t8 -67q4 -5 11 -11.5t17.5 -11t24.5 -6t33 4.5q-20 -23 -20 -50q51 13 88.5 31.5t62.5 35.5q29 20 49 41l12 -21q-23 -22 -55 -42q-27 -17 -66 -36.5t-89 -33.5q33 -55 35.5 -111t-19 -97.5t-64.5 -60.5t-102 0
q-41 13 -65.5 35.5t-34 49t-5 55t23 54.5t49 47t73.5 33q-2 5 -2.5 8.5t-2.5 7.5q-1 0 -1 1q-45 47 -56 94t0 87.5t37.5 70.5t55.5 42h102zM-11 -47q27 -14 52.5 -10t43.5 21.5t26 46.5t-1 65q-3 3 -9 10t-17 13t-26 8.5t-36 -3.5q21 21 24 46q-48 -17 -74.5 -45t-33 -58
t6.5 -56t44 -38z" />
    <glyph glyph-name="t" unicode="t" horiz-adv-x="388" 
d="M26 983l128 30q-16 -76 -29 -152t-24 -154q75 -35 146.5 -58.5t138.5 -36.5q10 -1 21.5 -1.5t25.5 -1.5q92 -8 153.5 8.5t98 45.5t51 65.5t12.5 69.5q17 -41 6 -76.5t-39 -62.5t-66.5 -43.5t-76.5 -19.5q66 2 116 15.5t79 37.5q30 24 39 53.5t1.5 58t-29.5 54t-54 42.5
q16 -1 37 -11t39.5 -27.5t32 -41t15 -51.5t-12 -59.5t-49.5 -63.5q-31 -29 -80 -43.5t-109 -18.5t-127 1.5t-134 17.5t-130 29.5t-115 37.5q-6 -48 -10 -94.5t-7 -93.5q3 -9 8.5 -20.5t14 -22t20.5 -19.5t29 -12q-21 -8 -34.5 -24t-22.5 -34t-13.5 -36t-7.5 -28
q1 -51 7 -93.5t16.5 -73t27.5 -48t41 -17.5q31 0 57 9t48 23t39.5 32.5t31.5 37.5q32 45 52 102l30 -12q-23 -67 -62 -120q-17 -23 -38 -44.5t-47.5 -38t-58.5 -27t-70 -10.5q-35 0 -61.5 22t-45.5 61t-31 92.5t-18 116.5q-3 8 -8.5 20.5t-15 24.5t-23.5 22t-33 13
q21 9 34.5 26t21.5 36t11.5 37t5.5 28q1 54 3 106t7 105q-14 6 -27 11t-26 8q-26 -37 -55.5 -70t-60.5 -54t-61 -26t-55 14q-23 17 -30 42.5t1.5 53t31 53.5t57 43.5t81.5 24t103 -5.5q20 34 37 67.5t28 64.5l6 42t7 42zM-269 589q12 -16 31 -13t42 19t48 43.5t50 60.5
q-48 7 -86 -2.5t-61.5 -27.5t-30.5 -40t7 -40zM-22 759q5 -1 8.5 -2.5t8.5 -3.5q2 13 3 25t3 25q-5 -11 -10.5 -21.5t-12.5 -22.5z" />
    <glyph glyph-name="u" unicode="u" horiz-adv-x="594" 
d="M274 482l132 28q-6 -23 -12 -49q-5 -23 -11.5 -53.5t-11.5 -64.5q1 -9 4 -24.5t10 -32t19.5 -30.5t33.5 -19q-26 -8 -41 -24t-22.5 -34.5t-9.5 -35.5t-2 -27q6 -33 21.5 -53t42.5 -20t48.5 8t38.5 21.5t30 30.5t22 35q21 42 31 96l25 -12q-14 -60 -42 -108
q-12 -20 -29 -39.5t-39 -34.5t-50 -24.5t-62 -9.5q-29 0 -50 14t-36 38t-24.5 55.5t-14.5 67.5q-11 -33 -26 -65.5t-35.5 -57.5t-46.5 -40.5t-58 -15.5q-29 0 -49.5 11t-34.5 30t-22 44.5t-12 54.5q-2 6 -6 19t-12 28t-22 28t-36 18q19 6 33 20t24 30.5t16 33t9 28.5
q3 26 7 48.5t8 39.5q4 19 8 35l117 36q-44 -130 -63 -231q-8 -44 -11.5 -85.5t1 -73.5t19 -52t43.5 -20q30 0 52.5 24.5t40 61.5t29 79.5t18.5 77.5q-2 38 -0.5 73.5t3.5 62.5q2 32 5 59z" />
    <glyph glyph-name="v" unicode="v" horiz-adv-x="522" 
d="M-44 490h132q1 -116 8 -208q3 -39 7.5 -76.5t11.5 -66.5t16 -47t21 -18q11 0 26.5 15t32.5 40.5t35 58t34 67.5q-29 29 -37.5 70.5t0.5 80t33 65.5t60 27q22 0 29 -19.5t2 -52t-19 -74.5t-34 -86q23 -20 65 -23q44 -4 73 7.5t46 26.5q20 18 32 41l20 -24q-11 -22 -32 -40
q-18 -15 -49 -27.5t-79 -12.5q-28 0 -50.5 6.5t-39.5 17.5q-21 -44 -45.5 -86t-47.5 -74.5t-42.5 -52t-32.5 -19.5q-26 0 -54 42.5t-53 109.5q-4 6 -11.5 17.5t-19.5 22.5t-28 18.5t-37 6.5q16 11 25.5 26.5t14 32.5t5.5 33.5t1 28.5q-8 37 -12.5 74t-6.5 72zM331 460
q-11 0 -23.5 -18t-20.5 -44.5t-8 -56.5t15 -54q14 33 25 64.5t16.5 55.5t5 38.5t-9.5 14.5z" />
    <glyph glyph-name="w" unicode="w" horiz-adv-x="730" 
d="M225 482l132 28q-19 -130 -20 -232q0 -44 3.5 -85.5t13.5 -74t27.5 -52.5t44.5 -20q20 0 36 18t28 47t21 65.5t15 73.5q-35 22 -55 60.5t-23.5 75.5t10 64.5t43.5 27.5q27 0 41 -12t20 -28.5t6 -33.5t-1 -27v-10q5 -19 19 -41t43 -30q-16 -4 -28.5 -13.5t-22.5 -21.5
q9 -3 19 -3q45 -4 72 7t41 25q17 17 23 40l20 -16q-4 -24 -22 -42q-15 -16 -46.5 -29t-87.5 -13q-17 0 -37 5q-2 -5 -4 -9t-4 -9q-7 -38 -19 -76t-30 -68t-43 -48.5t-59 -18.5q-49 0 -80 38.5t-51 95.5q-8 -28 -20 -53t-28.5 -44t-38 -30t-48.5 -11q-32 0 -55 13t-40 35.5
t-27.5 53t-16.5 64.5q-9 18 -26.5 37t-48.5 23q29 13 43.5 41t20.5 54q2 64 6 104q2 23 5 43l117 36q-30 -130 -38 -231q-3 -44 -2.5 -85.5t9 -73.5t25 -52t45.5 -20q22 0 38 14t28 36.5t20 52t13 59.5q-11 49 -16.5 98t-7.5 89q-3 47 -2 89zM541 364v2q0 7 -0.5 21.5
t-4.5 28t-12 24t-23 10.5q-16 0 -22 -18.5t-2 -44.5t17.5 -54t37.5 -48q3 23 5 42.5t4 36.5z" />
    <glyph glyph-name="x" unicode="x" horiz-adv-x="577" 
d="M120 494q16 -39 34 -82q16 -37 36.5 -82.5t45.5 -91.5q26 49 47 98.5t37 90.5q18 48 33 91l110 -24q-7 -16 -17 -35q-8 -17 -20 -39.5t-26 -48.5q-2 -20 1.5 -43.5t26.5 -43.5q-31 5 -58 -10t-47 -32q-12 -18 -24.5 -35.5t-25.5 -34.5q35 -57 70 -95.5t65 -38.5
q42 0 73.5 27t53.5 60q26 38 44 87l24 -9q-22 -57 -53 -102q-13 -19 -29.5 -37.5t-35.5 -32.5t-41.5 -23t-47.5 -9q-42 0 -84.5 33t-83.5 84q-42 -48 -84.5 -78t-84.5 -30q-27 0 -44 15.5t-26 41t-12 58.5t-2 67q3 80 24 182l25 -36q-10 -82 -10 -145q0 -27 2 -53.5t7 -46.5
t14 -32.5t23 -12.5q34 0 68 33t66 84q-28 40 -52 81q-16 12 -39.5 21.5t-52.5 0.5q12 14 16.5 32t4.5 36.5t-3.5 35.5t-6.5 29q-11 21 -19 39t-13 31q-6 15 -11 28z" />
    <glyph glyph-name="y" unicode="y" horiz-adv-x="513" 
d="M110 506q-30 -130 -38 -231q-3 -44 -2.5 -85.5t9 -73.5t25 -52t45.5 -20q22 0 41 19t35.5 50t30 70.5t24 80t18.5 79t13 68.5q1 20 1.5 36t1.5 28q1 14 1 25l120 -6q-1 -18 -4 -40q-2 -19 -5 -45.5t-8 -58.5q1 -10 4.5 -22.5t10 -24.5t17.5 -23t28 -17q-20 -3 -36 -15.5
t-28 -27.5t-20 -31t-13 -27q-18 -75 -42 -142.5t-56 -124.5l62 -12t63 -11q54 -7 122 -12.5t136.5 -5t130 10t101.5 33.5q-19 -20 -48 -32t-64 -19t-74 -9.5t-77 -2.5q80 -11 143 -14.5t95 6.5q51 16 75 45.5t22 55.5t-29.5 40t-79.5 -2q32 23 65 23.5t59.5 -14t43 -40.5
t15 -56t-24 -59.5t-74.5 -51.5t-134.5 -21.5t-178.5 14t-197 35t-190 42.5q-46 -58 -107 -92t-146 -36h-6q-47 0 -77.5 16.5t-45 42t-14.5 54.5t15.5 54.5t45 42t72.5 16.5q38 0 98.5 -8t135.5 -21q25 55 41.5 122t28.5 142q-13 -35 -29 -65.5t-35 -53.5t-41.5 -36.5
t-48.5 -13.5q-31 0 -54 12.5t-39.5 34.5t-27.5 50.5t-17 61.5q-4 9 -10.5 19.5t-16 20.5t-22.5 17.5t-29 9.5q16 7 27.5 19.5t19 27.5t12.5 30t8 28q1 29 2.5 53.5t3.5 43.5q2 22 4 40zM-13 -260q69 0 117 30t82 82q-69 16 -121 26t-79 10q-49 0 -76 -23t-28.5 -51t24 -51
t81.5 -23zM300 -112h-3h3z" />
    <glyph glyph-name="z" unicode="z" horiz-adv-x="496" 
d="M232 346q19 34 35 62.5t27 49.5q-39 -23 -86 -40.5t-90.5 -28t-78 -13t-49.5 6.5q6 19 12 36q5 14 12 28t15 20q51 -23 101.5 -21t92.5 13q48 13 92 37q18 -1 37 -2q16 -1 35 -1.5t36 -0.5q-32 -54 -62.5 -103t-60.5 -93q-5 -19 -5 -45.5t18 -52.5q-18 8 -34 7
t-29.5 -6.5t-24.5 -14t-18 -15.5q-17 -21 -33.5 -39.5t-31.5 -35.5q23 -11 47 -22.5t47.5 -20.5t45.5 -15t41 -6q48 0 81 23t54 51q24 33 39 74l28 -8q-19 -49 -48 -87q-25 -33 -63 -60t-92 -27q-30 0 -58.5 6t-55.5 16t-51.5 22t-45.5 23q-65 -60 -103.5 -64t-40.5 59
q-1 35 8.5 53t26 23t39 0t49.5 -16q11 15 22.5 32t22.5 36q2 9 4 21.5t1.5 27.5t-5.5 31t-17 30q23 -8 42.5 -3t34 15.5t24 22t13.5 15.5zM3 58q2 -26 19.5 -15.5t43.5 43.5q-32 16 -49.5 13.5t-13.5 -41.5z" />
    <glyph glyph-name="braceleft" unicode="{" horiz-adv-x="957" 
d="M753 363q-38 0 -80 -15.5t-87 -37.5t-92 -46t-96 -41q-20 -11 -43 -26t-43.5 -34t-36 -42t-21.5 -48q-5 -24 -16 -37.5t-20.5 -14t-15.5 13.5t-1 45q3 19 14 36.5t27.5 33t36 29t39.5 24.5q-45 -6 -88.5 1.5t-88.5 35.5q-54 34 -75.5 76t-16.5 83.5t33 77t72 56.5t101 22
t119 -26q-66 15 -112.5 10t-75.5 -22.5t-41.5 -44.5t-10 -55.5t18.5 -55.5t44 -45q25 -17 53.5 -22.5t59 -4t63 9.5t65.5 19q-30 -4 -60 -4.5t-56.5 4t-48.5 15.5t-37 31q27 -18 67.5 -23.5t86 -3t91.5 11t84 18.5q48 19 93 32.5t85 13.5q51 0 91.5 -18t69 -41.5t46.5 -46.5
t24 -33q-7 9 -22.5 24t-42.5 29.5t-65.5 25t-90.5 10.5zM450 246h-2q-1 0 -5 -2q7 0 7 2zM980 266l-2 2l-4 6z" />
    <glyph glyph-name="bar" unicode="|" horiz-adv-x="160" 
d="M55 824h29v-873h-29v873z" />
    <glyph glyph-name="braceright" unicode="}" horiz-adv-x="977" 
d="M221 363q-53 0 -91.5 -10.5t-65 -25t-42.5 -29.5t-22 -24q6 10 23.5 33t46.5 46.5t69 41.5t92 18q39 0 84.5 -13.5t93.5 -32.5q38 -10 84 -18.5t91 -11t85.5 3t68.5 23.5q-15 -20 -37 -31t-49 -15.5t-57 -4t-60 4.5q33 -11 65.5 -19t63 -9.5t59 4t54.5 22.5q28 18 44 45
t18.5 55.5t-10 55.5t-41.5 44.5t-75.5 22.5t-112.5 -10q62 27 119 26t101 -22t72 -56.5t33 -77t-16.5 -83.5t-75.5 -76q-45 -28 -89 -35.5t-89 -1.5q20 -11 39.5 -24.5t36 -29t28 -33t14.5 -36.5q5 -31 -1 -45t-15.5 -13.5t-20.5 14t-16 37.5q-6 25 -21.5 48t-36.5 42
t-44 34t-43 26q-48 17 -95 41t-92 46t-87 37.5t-80 15.5zM524 246q0 -2 6 -2q-4 2 -5 2h-1zM-6 266q0 1 1 2q3 3 5 6z" />
    <glyph glyph-name="asciitilde" unicode="~" horiz-adv-x="397" 
d="M18 225q-4 11 2 26.5t18 30t30 25.5t38.5 14.5t43.5 -3.5t45 -29t37.5 -28t26 -2.5t16.5 13.5t9 20.5t4 18.5t1 7t7.5 -3t19 -6.5t24 -11.5t22.5 -19q-12 -29 -33.5 -47.5t-47 -23t-54.5 5.5t-56 38q-14 14 -25 19.5t-20 5t-15.5 -6t-11.5 -13.5q-11 -18 -17 -51z" />
    <glyph glyph-name="exclamdown" unicode="&#xa1;" horiz-adv-x="240" 
d="M192 423l-19 -316q5 -11 11.5 -21.5t16.5 -15.5q-8 0 -16.5 -10t-15.5 -23l-18 -299q-20 5 -42 5q-19 0 -42 -4t-47 -15q12 10 23 41t21.5 75.5t20 99t18.5 111.5q-5 18 -13.5 31.5t-21.5 13.5q16 3 27 13t19 21q8 60 14 115t11 98q5 49 9 93zM183 629q-16 0 -25.5 6
t-14.5 15.5t-6.5 21.5t0.5 25q2 26 18.5 44t41.5 18q24 0 34.5 -20t6.5 -47q-3 -28 -19.5 -45.5t-35.5 -17.5zM152 -4q1 0 1 2q0 4 1 7q-3 -8 -2 -9z" />
    <glyph glyph-name="cent" unicode="&#xa2;" horiz-adv-x="1083" 
d="M878 549l-18 -15l13 -20l-21 -13l13 -21l-21 -12l9 -21l-23 -10l8 -24l-22 -7l4 -22l-24 -5l2 -25l-23 -2v-23h-20l-3 -21l-22 2l-5 -22l-24 4l-7 -23l-22 7l-8 -23l-24 10l-11 -22l-21 11l-13 -20l-21 13l-14 -18l-18 15l-17 -16l-15 14l-16 -14l-14 18l-20 -13l-14 21
l-21 -12l-11 20l-22 -9l-10 23l-23 -7l-7 22l-23 -5l-5 24l-24 -2l-3 23h-23v21l-20 2l2 23l-23 4l5 24l-24 7l7 22l-22 9l9 23l-22 12l11 20l-19 13l14 21l-19 15l14 18l-16 17l15 14l-14 16l18 15l-13 19l20 14l-11 21l19 11l-8 22l22 10l-7 23l23 7l-5 23l24 5l-3 25
l23 2v23h21l2 21l23 -3l4 23l25 -4l6 23l22 -6l9 21l23 -9l12 22l21 -11l12 20l21 -14l15 19l19 -15l16 16l15 -14l15 13l15 -17l20 13l13 -21l22 12l11 -20l21 9l10 -23l24 7l7 -22l22 5l5 -24l25 2l2 -23h23v-21l21 -2l-2 -23l22 -4l-4 -24l24 -7l-7 -22l22 -9l-10 -23
l23 -12l-12 -20l20 -13l-13 -21l18 -15l-15 -18l16 -16l-13 -15zM128 137q0 2 1 4.5t1 4.5q1 7 8 14q2 3 5.5 5.5t7.5 4.5q5 2 9.5 3t9.5 1h3q3 0 9 -2q3 0 5 -1l4 -2q7 -4 12 -11q2 -3 4 -7q1 -2 1 -6h-19q0 3 -2 5q-1 3 -6 6t-10 3q-3 0 -5 -1h-4q-2 -2 -8 -6
q-2 -2 -3.5 -4t-2.5 -5q-2 -5 -2 -16q0 -9 3 -16q1 -7 7 -9q3 -2 5.5 -3t5.5 -2h3q7 0 10 3q4 0 7 5q2 3 3.5 5.5t1.5 5.5h-21v16h37v-48h-12l-2 11q-3 -5 -8 -8q-3 -2 -5.5 -2.5t-4.5 -2.5q-3 0 -5.5 -0.5t-5.5 -0.5q-9 0 -14 4q-8 3 -12 9q-6 6 -9 15t-3 19q0 6 1 9z
M345 3h16v-10q6 12 19 12q7 0 10 -3q5 -2 8 -8q2 5 7 8q4 3 10 3q8 0 13 -4q4 -3 7 -8q2 -2 2 -10v-45h-16v39q0 13 -10 13q-11 0 -11 -13v-39h-18v39v6q0 3 -3 6q-2 1 -7 1q-11 0 -11 -12v-40h-16v65zM932 3h16v-10q7 12 19 12q8 0 11 -3q4 -2 7 -8q2 4 8 8q3 3 10 3
q8 0 12 -4q6 -3 7 -8q3 -3 3 -10v-45h-17v39q0 13 -10 13q-11 0 -11 -13v-39h-17v39q0 5 -1 6q0 3 -3 6q-2 1 -6 1q-11 0 -11 -12v-40h-17v65zM856 -17q1 4 2.5 6.5t3.5 5.5q6 6 11 7q4 3 14 3q8 0 14 -3q4 -1 11 -6q2 -2 3 -5t3 -6q2 -4 2 -15q0 -10 -4 -17q-3 -7 -11 -12
q-7 -4 -18 -4q-13 0 -19 5q-7 5 -11 12q-3 7 -3 16t2 13zM615 129q1 6 6 11q6 6 11 8q4 2 14 2t15 -2q2 -2 4.5 -3t4.5 -3q5 -6 7 -12t2 -14q0 -10 -4 -17q-3 -7 -11 -12t-18 -5q-11 0 -19 5q-6 5 -11 13q-3 7 -3 16q0 5 2 13zM125 1v2h17l11 -47l9 47h17l10 -47l10 47h18
l-18 -62l-1 -3h-17l-11 47l-10 -47h-18zM514 1v2h18l10 -47l9 47h17l10 -47l11 47h17l-18 -62v-3h-18l-10 47l-10 -47h-18zM30 1v2h18l10 -47l9 47h18l9 -47l11 47h17l-18 -62v-3h-18l-10 47l-10 -47h-18zM219 1v2h18l10 -47l9 47h18l9 -47l10 47h18l-18 -62l-1 -3h-17
l-10 47l-11 -47h-17zM840 116q6 4 14 6l15 2q6 1 6 5q0 8 -10 8q-4 0 -8 -2q-3 -1 -4 -8h-16q1 9 4 14q2 4 9 7q4 2 7 2h8q13 0 18 -2l4 -4t3 -4q2 -6 2 -8v-35v-7q0 -3 4 -3v-3h-19q-1 0 -1 1v1v1q0 2 -0.5 3t-0.5 2q-2 -3 -5 -5q-2 -1 -3.5 -2t-2.5 -1l-4.5 -1.5
t-4.5 -0.5t-9 2q-2 2 -4 3t-4 3q-3 4 -3 12q0 10 5 14zM454 -30q4 4 13 6l16 2q5 2 5 5q0 8 -10 8q-2 0 -4 -0.5t-4 -0.5l-2 -4t-1 -4h-16q0 7 3 13q6 6 10 7l6 2q2 0 4 0.5t4 0.5q13 0 18 -4q5 -3 8 -7q1 -3 1 -8v-35q0 -5 1 -7q0 -3 3 -3v-3h-18q0 1 -1 2v1q-1 2 -1 5
q-4 -4 -6 -5l-3 -1.5l-3 -1.5t-8 -1q-7 0 -9 1q-5 1 -8 7q-4 3 -4 10q0 10 6 15zM222 134q3 8 10 12q4 3 8.5 3.5t9.5 0.5q13 0 17 -4q6 -4 10 -13q2 -5 2.5 -9t0.5 -9v-4h-45q0 -6 5 -11q3 -4 11 -4q3 0 7 2q4 4 4 5h18q-2 -5 -6 -11q-3 -2 -5.5 -4t-4.5 -3q-4 -1 -6.5 -2
t-6.5 -1q-32 0 -32 36q0 5 0.5 8.5t2.5 7.5zM553 591q5 0 9 1t7 2q7 4 12 11q4 5 4 14q0 7 -2 9q-1 6 -6 9q-4 6 -11 7q-4 3 -14 3q-5 0 -15 -4q-6 -3 -12 -10q-4 -7 -4 -14t2 -10q3 -6 7 -10t11 -6q6 -2 12 -2zM560 510q4 5 4 14q0 6 -2 10t-6 9q-5 5 -11 6q-6 3 -13 3
q-11 0 -16 -4q-5 -2 -7.5 -4.5t-4.5 -5.5q-4 -7 -4 -14q0 -8 2 -11q4 -6 7 -9q2 -2 5 -3t6 -3q8 -2 12 -2q11 0 16 4q6 3 12 10zM702 -41q0 -9 15 -9q5 0 8 1q2 4 2 5q0 4 -7 5l-15 4q-3 1 -6.5 2.5t-5.5 3.5q-6 4 -6 12q0 6 3 11q2 4 9 8q4 3 14 3q6 0 10.5 -1t8.5 -3
q6 -3 8 -8q1 -2 1 -2.5t1 -2.5v-5h-17q0 5 -3 7q-1 1 -8 1q-10 0 -10 -6q0 -3 6 -4l15 -4q6 -1 14 -6q5 -3 5 -12q0 -6 -3 -12q-4 -5 -10 -8q-4 -2 -15 -2h-6q-4 0 -6 1q-6 2 -10 4q-6 4 -7 7q-2 6 -2 10h17zM614 3h17v-10q7 12 20 12q6 0 12 -3q5 -2 7 -7q3 -6 3 -12v-45
h-17v39q0 8 -2 10q-1 3 -9 3q-7 0 -10 -4q-3 -5 -3 -11v-37h-18v65zM691 149h16v-9q7 10 20 10q9 0 12 -2q2 -2 4 -3.5t4 -3.5q3 -6 3 -12v-45h-17v39q0 4 -2 10q-3 3 -10 3t-10 -4q-2 -3 -2 -11v-37h-18v65zM464 84h-16v9q-3 -5 -8 -7q-8 -4 -12 -4q-10 0 -16 7q-6 6 -6 17
v43h17v-40q0 -12 11 -12q4 0 6 1t6 5q0 2 1 4t1 4v38h16v-65zM793 -6q8 11 23 11q9 0 15 -3q7 -2 10 -9q5 -5 5 -13h-18q0 3 -2 7q-2 3 -8 3q-8 0 -10 -5q-4 -4 -4 -13t1 -12q1 -5 4 -7q2 -2 8 -2q5 0 8 2q3 3 3 9h18q0 -5 -4 -13q-3 -5 -10 -9q-6 -3 -16 -3q-13 0 -21 7
q-4 4 -7 10q-1 4 -1 15q0 14 6 25zM378 592h35v2h-2q-6 0 -8 2q-2 1 -2 3v4v15h12l19 -26h20v2h-2q-5 0 -7 1l-3 3q-1 2 -2 3t-2 3l-2 2q0 1 -2 3v2q-3 1 -6 1q-4 2 -5 3l-6 3h9q2 1 4 1t4 1q3 0 7 2q6 4 6 11q0 2 -1 3q-2 4 -3 5q-3 3 -8 3q-6 2 -13 2h-42v-2h2q5 0 7 -2
q3 -2 3 -8v-31q0 -2 -0.5 -4t-2.5 -3q-2 -2 -7 -2h-2v-2zM368 137h-9v12h9v5q0 18 19 18h9v-13h-5q-3 0 -4 -1q-2 0 -2 -2v-7h11v-12h-11v-53h-17v53zM579 137h-9v12h9v5q0 18 19 18h8v-13h-4q-4 0 -4 -1q-1 0 -2 -2v-7h12v-12h-12v-53h-17v53zM908 137h-8v12h8v17h18v-17
h11v-12h-11v-35q0 -2 0.5 -3t0.5 -2q1 0 2 -0.5t3 -0.5l3 1h2v-13h-11q-8 0 -11 2q-4 0 -5 4q0 2 -1 3.5t-1 3.5v40zM294 137h-9v12h9v17h17v-17h10v-12h-10v-35q0 -4 1 -5q1 0 2.5 -0.5t3.5 -0.5l2 1h1v-13h-10q-8 0 -11 2q-4 0 -5 4q-1 2 -1 7v40zM280 592v2h-3
q-10 0 -10 9v14h14h11q6 2 7 3q5 2 5 5q2 2 2 6t-3 9q-4 4 -10 4q-1 1 -4 1h-6q-3 1 -7 1h-32v-2h2q10 0 10 -10v-31q0 -9 -10 -9h-2v-2h36zM768 137h-10v12h10v17h16v-17h11v-12h-11v-35q0 -2 0.5 -3t0.5 -2q2 0 3 -0.5t3 -0.5l2 1h2v-13h-11q-8 0 -10 2q-5 0 -6 4v7v40z
M546 543l2 -4t2 -5q0 -2 0.5 -4.5t0.5 -5.5q0 -6 -2 -14q-3 -6 -7 -10q-3 -2 -10 -2q-6 0 -7 2q-4 0 -7 5q-1 2 -3 8t-2 11q0 2 0.5 4.5t0.5 4.5q1 2 1.5 3.5t1.5 3.5q3 5 4 6q0 1 5 3q4 2 7 2q1 0 1.5 -0.5t2.5 -0.5l4 -2zM567 638l2 -4t2 -5q0 -2 0.5 -4.5t0.5 -5.5
q0 -8 -3 -14q-2 -6 -6 -9q-5 -3 -10 -3t-8 1q-2 2 -3 2.5t-2 2.5q-2 3 -4 9q-1 3 -1.5 5.5t-0.5 5.5q0 2 0.5 4.5t0.5 4.5q1 2 1.5 3.5t1.5 3.5q2 4 4 6q3 3 5 3q2 1 7 1h4q1 -1 1.5 -1t1.5 -1q4 -1 6 -5zM480 172h17v-88h-17v88zM510 172h16v-88h-16v88zM320 642q3 -2 3 -8
v-31q0 -9 -10 -9h-1v-2h58v22h-1q-1 -2 -1 -3.5t-2 -3.5q-2 -5 -5 -8t-5 -3l-6 -2h-16v24h2q7 0 10 -5l3 -3q0 -1 0.5 -1.5t0.5 -2.5q0 -4 1 -5h1v35h-1q-1 -2 -1 -5q0 -5 -3 -6q-3 -6 -10 -6h-3v25h11q8 0 11 -2q4 0 5 -4q2 -1 4 -5q1 -2 1 -4t2 -4h1v21h-57v-2h1q6 0 7 -2
zM464 519q-2 -2 -2 -3.5t-1 -3.5q-4 -6 -6 -8q-3 -3 -5 -3l-5 -2q-3 -1 -7 -1h-9v24h1q7 0 11 -4q1 -1 1 -1.5t1 -1.5q0 -1 0.5 -1.5t0.5 -2.5q1 -2 1 -5h1v35h-1v-5l-1.5 -3l-1.5 -3q-5 -6 -10 -6h-3v25h10q9 0 12 -1q2 -2 2.5 -2t2.5 -2l3 -6q2 -4 3 -8h2v21h-58v-2h2
q5 0 6 -2q3 -2 3 -7v-32q0 -10 -9 -10h-2v-1h58v22zM646 551h-27v-2h5q0 -1 2 -1q4 -4 4 -5q2 -2 2 -8v-23l-38 39h-21v-2h1q4 0 5 -1q2 0 2.5 -1t1.5 -1q1 -2 1 -5v-31q0 -4 -1 -6q-1 -3 -4 -4q-4 -2 -7 -2v-1h28v1q-3 0 -5 1q-2 0 -2.5 0.5t-2.5 0.5q-1 1 -3 5q-1 1 -1 7
v32l46 -47h2v38q0 6 3 11q1 3 9 3v2zM670 592h22v2h-3h-1q-2 1 -2 1.5t-1 1.5q0 1 -0.5 1.5t-0.5 2.5q0 1 0.5 2t0.5 2l1 4h23l1 -2l1 -1v-1l1.5 -3t0.5 -3q1 -1 1 -2q0 -3 -1 -3h-4h-5v-2h32v2h-2h-4q-1 0 -1.5 1t-1.5 1l-2 4l-21 47h-2l-17 -38q-5 -11 -8 -13
q-2 0 -2.5 -1t-1.5 -1h-3v-2zM400 513v5q-1 1 -1.5 2t-1.5 2q-3 2 -7 4q-2 1 -4.5 1.5t-5.5 2.5h-4h-2l-1 1l-8 2q-2 1 -3 1t-2 1q-1 0 -3 2t-2 4q0 3 1 4q0 -1 2 3l4 2q2 0 3 0.5t3 0.5q4 0 8 -2q5 0 8 -3q4 -2 6 -4t2.5 -4.5t2.5 -5.5h2v18h-2q-1 -4 -4 -4t-5 1
q-10 5 -18 5q-5 0 -11 -2q-2 -2 -3.5 -3t-3.5 -2q-3 -5 -3 -9q0 -3 3 -6q0 -1 3 -4q4 -2 7 -3q1 -1 4 -1.5t8 -2.5l4 -1q6 -2 8 -2t4 -2q1 0 2 -1q3 -3 3 -6q0 -1 -2 -5q-1 -1 -5 -4h-6q-6 0 -9 1q-6 2 -10 4l-6 6q-5 7 -5 12h-2v-25h2q0 4 2 4q2 2 5 2q1 0 1 -0.5t2 -0.5
q1 0 1.5 -0.5t2.5 -0.5q3 -2 4.5 -2t3.5 -1t8 -1q3 0 9 2q2 0 3.5 1t3.5 3q2 1 2 2t2 3v6zM491 591q4 0 10 2q4 1 7 4q1 1 1.5 2.5t1.5 2.5q1 2 1 5v5q-2 2 -2 3t-2 2q-2 2 -6 4q-2 1 -4.5 1.5t-6.5 2.5l-5 1h-2q-2 0 -4 1t-4 1t-4 2q-1 0 -3 2q-2 1 -2 4q0 2 1 3q0 1 2 3
q1 2 4 2q2 1 6 1q5 0 8 -1q2 0 4 -1t4 -1q2 -2 3 -2.5t2 -2.5q4 -6 6 -11h1v19h-1q-1 -4 -5 -4h-1q-2 0 -3 1q-10 5 -18 5t-11 -2q-4 -1 -7 -6q-3 -3 -3 -8q0 -4 2 -6q1 -2 2 -2.5t2 -1.5t2.5 -1.5t3.5 -1.5t5 -1.5t8 -2.5l4 -1q2 -1 3.5 -1t3.5 -1l4 -2q3 0 3 -2q3 -2 3 -5
t-2 -5q-3 -3 -5 -3q-2 -1 -7 -1t-9 1q-3 0 -9 4q-3 2 -7 6q-4 8 -5 13h-1v-26h1q2 3 3 4t4 1h3q3 0 5 -2q2 -1 4 -1t4 -1t7 -1zM593 592h28v2h-5q-3 0 -5 2q-3 0 -3 4q-2 4 -2 7v32l47 -48h1v39q0 3 1 6t2 5q3 3 10 3v2h-27v-2h4l4 -2q2 0 4 -4q1 -2 1 -8v-23l-37 39h-22v-2
h6q2 -2 2.5 -2t1.5 -1q1 -2 1 -5v-31q0 -4 -1 -6q-1 -3 -4 -4q-2 -1 -7 -1v-2zM658 130q-3 6 -12 6t-12 -6q-4 -6 -4 -14q0 -7 4 -13q2 -6 12 -6t12 6q4 4 4 13q0 10 -4 14zM899 -15q-3 5 -12 5t-12 -5q-3 -6 -3 -15q0 -7 3 -13t12 -6t12 6q2 3 2.5 6.5t0.5 6.5q0 11 -3 15z
M800 616h-2q0 -2 -1 -3.5t-1 -3.5q-1 -2 -1 -2.5t-1 -2.5l-3 -3q-3 -5 -7 -5q-2 -2 -7 -2h-14v40q0 6 2 8q1 2 8 2h3v2h-36v-2h2q10 0 10 -10v-31q0 -9 -10 -9h-2v-2h60v24zM779 551h-27v-2h3q5 0 6 -1q2 -1 2 -4q0 -2 -3 -6l-11 -15l-14 18l-2 4v1q0 2 1 2q0 1 3 1h5v2h-35
v-2h1q6 0 8 -1l3 -3t2 -3l17 -22v-12q0 -5 -2 -7l-4 -2t-4 -1h-3v-1h38v1h-4q-4 0 -7 3q-3 1 -3 7v13l14 19q2 2 3 4q4 2 5 2q1 2 3 2q2 1 5 1v2zM710 521h-1q-2 -2 -2 -3.5t-1 -3.5q-2 -2 -2 -5q-1 -1 -3 -4q-4 -4 -7 -5q-2 -2 -8 -2h-14v42q0 5 3 7q2 2 7 2h4v2h-37v-2h3
q9 0 9 -9v-32q0 -10 -9 -10h-3v-1h61v24zM340 551h-27v-2h6q1 0 1.5 -0.5t1.5 -0.5q6 -3 6 -13v-19q0 -8 -5 -13q-1 -1 -7 -5h-9q-7 0 -10 2q-2 0 -6 4q-2 2 -2 9v27q0 6 2 7q2 2 8 2h4v2h-37v-2h1q11 0 11 -9v-27q0 -7 6 -13q3 -2 9 -3q3 -1 11 -1t14 2q4 2 6 4q5 4 5 13
v21v7l5 5h1l1 1h4v2zM425 621q-2 -1 -9 -1h-15v24h15q16 0 16 -11q0 -6 -2 -8q0 -2 -5 -4zM289 621q-1 -3 -11 -3h-11v26h16q3 0 5 -2q6 -2 6 -11q0 -7 -5 -10zM482 -33l-8 -1l-6 -3q-3 -3 -3 -7t3 -5q2 -2 6 -2h3q1 0 1.5 0.5t1.5 0.5q2 1 3 2t3 2q2 2 2 7v9q-3 -3 -6 -3z
M868 113l-8 -2q-3 0 -6 -3q-2 -1 -2 -6t2 -5q2 -2 6 -2h4h1q1 0 2 1q4 2 6 4q2 4 2 8v8q-3 -3 -7 -3zM757 -44h18v-18h-18v18zM311 -44h18v-18h-18v18zM263 123q-2 6 -4 10q-2 2 -4 3t-5 1q-11 0 -13 -14h26zM709 610h-22l11 24z" />
    <glyph glyph-name="sterling" unicode="&#xa3;" horiz-adv-x="1083" 
d="M878 549l-18 -15l13 -20l-21 -13l13 -21l-21 -12l9 -21l-23 -10l8 -24l-22 -7l4 -22l-24 -5l2 -25l-23 -2v-23h-20l-3 -21l-22 2l-5 -22l-24 4l-7 -23l-22 7l-8 -23l-24 10l-11 -22l-21 11l-13 -20l-21 13l-14 -18l-18 15l-17 -16l-15 14l-16 -14l-14 18l-20 -13l-14 21
l-21 -12l-11 20l-22 -9l-10 23l-23 -7l-7 22l-23 -5l-5 24l-24 -2l-3 23h-23v21l-20 2l2 23l-23 4l5 24l-24 7l7 22l-22 9l9 23l-22 12l11 20l-19 13l14 21l-19 15l14 18l-16 17l15 14l-14 16l18 15l-13 19l20 14l-11 21l19 11l-8 22l22 10l-7 23l23 7l-5 23l24 5l-3 25
l23 2v23h21l2 21l23 -3l4 23l25 -4l6 23l22 -6l9 21l23 -9l12 22l21 -11l12 20l21 -14l15 19l19 -15l16 16l15 -14l15 13l15 -17l20 13l13 -21l22 12l11 -20l21 9l10 -23l24 7l7 -22l22 5l5 -24l25 2l2 -23h23v-21l21 -2l-2 -23l22 -4l-4 -24l24 -7l-7 -22l22 -9l-10 -23
l23 -12l-12 -20l20 -13l-13 -21l18 -15l-15 -18l16 -16l-13 -15zM128 137q0 2 1 4.5t1 4.5q1 7 8 14q2 3 5.5 5.5t7.5 4.5q5 2 9.5 3t9.5 1h3q3 0 9 -2q3 0 5 -1l4 -2q7 -4 12 -11q2 -3 4 -7q1 -2 1 -6h-19q0 3 -2 5q-1 3 -6 6t-10 3q-3 0 -5 -1h-4q-2 -2 -8 -6
q-2 -2 -3.5 -4t-2.5 -5q-2 -5 -2 -16q0 -9 3 -16q1 -7 7 -9q3 -2 5.5 -3t5.5 -2h3q7 0 10 3q4 0 7 5q2 3 3.5 5.5t1.5 5.5h-21v16h37v-48h-12l-2 11q-3 -5 -8 -8q-3 -2 -5.5 -2.5t-4.5 -2.5q-3 0 -5.5 -0.5t-5.5 -0.5q-9 0 -14 4q-8 3 -12 9q-6 6 -9 15t-3 19q0 6 1 9z
M345 3h16v-10q6 12 19 12q7 0 10 -3q5 -2 8 -8q2 5 7 8q4 3 10 3q8 0 13 -4q4 -3 7 -8q2 -2 2 -10v-45h-16v39q0 13 -10 13q-11 0 -11 -13v-39h-18v39v6q0 3 -3 6q-2 1 -7 1q-11 0 -11 -12v-40h-16v65zM932 3h16v-10q7 12 19 12q8 0 11 -3q4 -2 7 -8q2 4 8 8q3 3 10 3
q8 0 12 -4q6 -3 7 -8q3 -3 3 -10v-45h-17v39q0 13 -10 13q-11 0 -11 -13v-39h-17v39q0 5 -1 6q0 3 -3 6q-2 1 -6 1q-11 0 -11 -12v-40h-17v65zM856 -17q1 4 2.5 6.5t3.5 5.5q6 6 11 7q4 3 14 3q8 0 14 -3q4 -1 11 -6q2 -2 3 -5t3 -6q2 -4 2 -15q0 -10 -4 -17q-3 -7 -11 -12
q-7 -4 -18 -4q-13 0 -19 5q-7 5 -11 12q-3 7 -3 16t2 13zM615 129q1 6 6 11q6 6 11 8q4 2 14 2t15 -2q2 -2 4.5 -3t4.5 -3q5 -6 7 -12t2 -14q0 -10 -4 -17q-3 -7 -11 -12t-18 -5q-11 0 -19 5q-6 5 -11 13q-3 7 -3 16q0 5 2 13zM125 1v2h17l11 -47l9 47h17l10 -47l10 47h18
l-18 -62l-1 -3h-17l-11 47l-10 -47h-18zM514 1v2h18l10 -47l9 47h17l10 -47l11 47h17l-18 -62v-3h-18l-10 47l-10 -47h-18zM30 1v2h18l10 -47l9 47h18l9 -47l11 47h17l-18 -62v-3h-18l-10 47l-10 -47h-18zM219 1v2h18l10 -47l9 47h18l9 -47l10 47h18l-18 -62l-1 -3h-17
l-10 47l-11 -47h-17zM840 116q6 4 14 6l15 2q6 1 6 5q0 8 -10 8q-4 0 -8 -2q-3 -1 -4 -8h-16q1 9 4 14q2 4 9 7q4 2 7 2h8q13 0 18 -2l4 -4t3 -4q2 -6 2 -8v-35v-7q0 -3 4 -3v-3h-19q-1 0 -1 1v1v1q0 2 -0.5 3t-0.5 2q-2 -3 -5 -5q-2 -1 -3.5 -2t-2.5 -1l-4.5 -1.5
t-4.5 -0.5t-9 2q-2 2 -4 3t-4 3q-3 4 -3 12q0 10 5 14zM454 -30q4 4 13 6l16 2q5 2 5 5q0 8 -10 8q-2 0 -4 -0.5t-4 -0.5l-2 -4t-1 -4h-16q0 7 3 13q6 6 10 7l6 2q2 0 4 0.5t4 0.5q13 0 18 -4q5 -3 8 -7q1 -3 1 -8v-35q0 -5 1 -7q0 -3 3 -3v-3h-18q0 1 -1 2v1q-1 2 -1 5
q-4 -4 -6 -5l-3 -1.5l-3 -1.5t-8 -1q-7 0 -9 1q-5 1 -8 7q-4 3 -4 10q0 10 6 15zM222 134q3 8 10 12q4 3 8.5 3.5t9.5 0.5q13 0 17 -4q6 -4 10 -13q2 -5 2.5 -9t0.5 -9v-4h-45q0 -6 5 -11q3 -4 11 -4q3 0 7 2q4 4 4 5h18q-2 -5 -6 -11q-3 -2 -5.5 -4t-4.5 -3q-4 -1 -6.5 -2
t-6.5 -1q-32 0 -32 36q0 5 0.5 8.5t2.5 7.5zM553 591q5 0 9 1t7 2q7 4 12 11q4 5 4 14q0 7 -2 9q-1 6 -6 9q-4 6 -11 7q-4 3 -14 3q-5 0 -15 -4q-6 -3 -12 -10q-4 -7 -4 -14t2 -10q3 -6 7 -10t11 -6q6 -2 12 -2zM560 510q4 5 4 14q0 6 -2 10t-6 9q-5 5 -11 6q-6 3 -13 3
q-11 0 -16 -4q-5 -2 -7.5 -4.5t-4.5 -5.5q-4 -7 -4 -14q0 -8 2 -11q4 -6 7 -9q2 -2 5 -3t6 -3q8 -2 12 -2q11 0 16 4q6 3 12 10zM702 -41q0 -9 15 -9q5 0 8 1q2 4 2 5q0 4 -7 5l-15 4q-3 1 -6.5 2.5t-5.5 3.5q-6 4 -6 12q0 6 3 11q2 4 9 8q4 3 14 3q6 0 10.5 -1t8.5 -3
q6 -3 8 -8q1 -2 1 -2.5t1 -2.5v-5h-17q0 5 -3 7q-1 1 -8 1q-10 0 -10 -6q0 -3 6 -4l15 -4q6 -1 14 -6q5 -3 5 -12q0 -6 -3 -12q-4 -5 -10 -8q-4 -2 -15 -2h-6q-4 0 -6 1q-6 2 -10 4q-6 4 -7 7q-2 6 -2 10h17zM614 3h17v-10q7 12 20 12q6 0 12 -3q5 -2 7 -7q3 -6 3 -12v-45
h-17v39q0 8 -2 10q-1 3 -9 3q-7 0 -10 -4q-3 -5 -3 -11v-37h-18v65zM691 149h16v-9q7 10 20 10q9 0 12 -2q2 -2 4 -3.5t4 -3.5q3 -6 3 -12v-45h-17v39q0 4 -2 10q-3 3 -10 3t-10 -4q-2 -3 -2 -11v-37h-18v65zM464 84h-16v9q-3 -5 -8 -7q-8 -4 -12 -4q-10 0 -16 7q-6 6 -6 17
v43h17v-40q0 -12 11 -12q4 0 6 1t6 5q0 2 1 4t1 4v38h16v-65zM793 -6q8 11 23 11q9 0 15 -3q7 -2 10 -9q5 -5 5 -13h-18q0 3 -2 7q-2 3 -8 3q-8 0 -10 -5q-4 -4 -4 -13t1 -12q1 -5 4 -7q2 -2 8 -2q5 0 8 2q3 3 3 9h18q0 -5 -4 -13q-3 -5 -10 -9q-6 -3 -16 -3q-13 0 -21 7
q-4 4 -7 10q-1 4 -1 15q0 14 6 25zM378 592h35v2h-2q-6 0 -8 2q-2 1 -2 3v4v15h12l19 -26h20v2h-2q-5 0 -7 1l-3 3q-1 2 -2 3t-2 3l-2 2q0 1 -2 3v2q-3 1 -6 1q-4 2 -5 3l-6 3h9q2 1 4 1t4 1q3 0 7 2q6 4 6 11q0 2 -1 3q-2 4 -3 5q-3 3 -8 3q-6 2 -13 2h-42v-2h2q5 0 7 -2
q3 -2 3 -8v-31q0 -2 -0.5 -4t-2.5 -3q-2 -2 -7 -2h-2v-2zM368 137h-9v12h9v5q0 18 19 18h9v-13h-5q-3 0 -4 -1q-2 0 -2 -2v-7h11v-12h-11v-53h-17v53zM579 137h-9v12h9v5q0 18 19 18h8v-13h-4q-4 0 -4 -1q-1 0 -2 -2v-7h12v-12h-12v-53h-17v53zM908 137h-8v12h8v17h18v-17
h11v-12h-11v-35q0 -2 0.5 -3t0.5 -2q1 0 2 -0.5t3 -0.5l3 1h2v-13h-11q-8 0 -11 2q-4 0 -5 4q0 2 -1 3.5t-1 3.5v40zM294 137h-9v12h9v17h17v-17h10v-12h-10v-35q0 -4 1 -5q1 0 2.5 -0.5t3.5 -0.5l2 1h1v-13h-10q-8 0 -11 2q-4 0 -5 4q-1 2 -1 7v40zM280 592v2h-3
q-10 0 -10 9v14h14h11q6 2 7 3q5 2 5 5q2 2 2 6t-3 9q-4 4 -10 4q-1 1 -4 1h-6q-3 1 -7 1h-32v-2h2q10 0 10 -10v-31q0 -9 -10 -9h-2v-2h36zM768 137h-10v12h10v17h16v-17h11v-12h-11v-35q0 -2 0.5 -3t0.5 -2q2 0 3 -0.5t3 -0.5l2 1h2v-13h-11q-8 0 -10 2q-5 0 -6 4v7v40z
M546 543l2 -4t2 -5q0 -2 0.5 -4.5t0.5 -5.5q0 -6 -2 -14q-3 -6 -7 -10q-3 -2 -10 -2q-6 0 -7 2q-4 0 -7 5q-1 2 -3 8t-2 11q0 2 0.5 4.5t0.5 4.5q1 2 1.5 3.5t1.5 3.5q3 5 4 6q0 1 5 3q4 2 7 2q1 0 1.5 -0.5t2.5 -0.5l4 -2zM567 638l2 -4t2 -5q0 -2 0.5 -4.5t0.5 -5.5
q0 -8 -3 -14q-2 -6 -6 -9q-5 -3 -10 -3t-8 1q-2 2 -3 2.5t-2 2.5q-2 3 -4 9q-1 3 -1.5 5.5t-0.5 5.5q0 2 0.5 4.5t0.5 4.5q1 2 1.5 3.5t1.5 3.5q2 4 4 6q3 3 5 3q2 1 7 1h4q1 -1 1.5 -1t1.5 -1q4 -1 6 -5zM480 172h17v-88h-17v88zM510 172h16v-88h-16v88zM320 642q3 -2 3 -8
v-31q0 -9 -10 -9h-1v-2h58v22h-1q-1 -2 -1 -3.5t-2 -3.5q-2 -5 -5 -8t-5 -3l-6 -2h-16v24h2q7 0 10 -5l3 -3q0 -1 0.5 -1.5t0.5 -2.5q0 -4 1 -5h1v35h-1q-1 -2 -1 -5q0 -5 -3 -6q-3 -6 -10 -6h-3v25h11q8 0 11 -2q4 0 5 -4q2 -1 4 -5q1 -2 1 -4t2 -4h1v21h-57v-2h1q6 0 7 -2
zM464 519q-2 -2 -2 -3.5t-1 -3.5q-4 -6 -6 -8q-3 -3 -5 -3l-5 -2q-3 -1 -7 -1h-9v24h1q7 0 11 -4q1 -1 1 -1.5t1 -1.5q0 -1 0.5 -1.5t0.5 -2.5q1 -2 1 -5h1v35h-1v-5l-1.5 -3l-1.5 -3q-5 -6 -10 -6h-3v25h10q9 0 12 -1q2 -2 2.5 -2t2.5 -2l3 -6q2 -4 3 -8h2v21h-58v-2h2
q5 0 6 -2q3 -2 3 -7v-32q0 -10 -9 -10h-2v-1h58v22zM646 551h-27v-2h5q0 -1 2 -1q4 -4 4 -5q2 -2 2 -8v-23l-38 39h-21v-2h1q4 0 5 -1q2 0 2.5 -1t1.5 -1q1 -2 1 -5v-31q0 -4 -1 -6q-1 -3 -4 -4q-4 -2 -7 -2v-1h28v1q-3 0 -5 1q-2 0 -2.5 0.5t-2.5 0.5q-1 1 -3 5q-1 1 -1 7
v32l46 -47h2v38q0 6 3 11q1 3 9 3v2zM670 592h22v2h-3h-1q-2 1 -2 1.5t-1 1.5q0 1 -0.5 1.5t-0.5 2.5q0 1 0.5 2t0.5 2l1 4h23l1 -2l1 -1v-1l1.5 -3t0.5 -3q1 -1 1 -2q0 -3 -1 -3h-4h-5v-2h32v2h-2h-4q-1 0 -1.5 1t-1.5 1l-2 4l-21 47h-2l-17 -38q-5 -11 -8 -13
q-2 0 -2.5 -1t-1.5 -1h-3v-2zM400 513v5q-1 1 -1.5 2t-1.5 2q-3 2 -7 4q-2 1 -4.5 1.5t-5.5 2.5h-4h-2l-1 1l-8 2q-2 1 -3 1t-2 1q-1 0 -3 2t-2 4q0 3 1 4q0 -1 2 3l4 2q2 0 3 0.5t3 0.5q4 0 8 -2q5 0 8 -3q4 -2 6 -4t2.5 -4.5t2.5 -5.5h2v18h-2q-1 -4 -4 -4t-5 1
q-10 5 -18 5q-5 0 -11 -2q-2 -2 -3.5 -3t-3.5 -2q-3 -5 -3 -9q0 -3 3 -6q0 -1 3 -4q4 -2 7 -3q1 -1 4 -1.5t8 -2.5l4 -1q6 -2 8 -2t4 -2q1 0 2 -1q3 -3 3 -6q0 -1 -2 -5q-1 -1 -5 -4h-6q-6 0 -9 1q-6 2 -10 4l-6 6q-5 7 -5 12h-2v-25h2q0 4 2 4q2 2 5 2q1 0 1 -0.5t2 -0.5
q1 0 1.5 -0.5t2.5 -0.5q3 -2 4.5 -2t3.5 -1t8 -1q3 0 9 2q2 0 3.5 1t3.5 3q2 1 2 2t2 3v6zM491 591q4 0 10 2q4 1 7 4q1 1 1.5 2.5t1.5 2.5q1 2 1 5v5q-2 2 -2 3t-2 2q-2 2 -6 4q-2 1 -4.5 1.5t-6.5 2.5l-5 1h-2q-2 0 -4 1t-4 1t-4 2q-1 0 -3 2q-2 1 -2 4q0 2 1 3q0 1 2 3
q1 2 4 2q2 1 6 1q5 0 8 -1q2 0 4 -1t4 -1q2 -2 3 -2.5t2 -2.5q4 -6 6 -11h1v19h-1q-1 -4 -5 -4h-1q-2 0 -3 1q-10 5 -18 5t-11 -2q-4 -1 -7 -6q-3 -3 -3 -8q0 -4 2 -6q1 -2 2 -2.5t2 -1.5t2.5 -1.5t3.5 -1.5t5 -1.5t8 -2.5l4 -1q2 -1 3.5 -1t3.5 -1l4 -2q3 0 3 -2q3 -2 3 -5
t-2 -5q-3 -3 -5 -3q-2 -1 -7 -1t-9 1q-3 0 -9 4q-3 2 -7 6q-4 8 -5 13h-1v-26h1q2 3 3 4t4 1h3q3 0 5 -2q2 -1 4 -1t4 -1t7 -1zM593 592h28v2h-5q-3 0 -5 2q-3 0 -3 4q-2 4 -2 7v32l47 -48h1v39q0 3 1 6t2 5q3 3 10 3v2h-27v-2h4l4 -2q2 0 4 -4q1 -2 1 -8v-23l-37 39h-22v-2
h6q2 -2 2.5 -2t1.5 -1q1 -2 1 -5v-31q0 -4 -1 -6q-1 -3 -4 -4q-2 -1 -7 -1v-2zM658 130q-3 6 -12 6t-12 -6q-4 -6 -4 -14q0 -7 4 -13q2 -6 12 -6t12 6q4 4 4 13q0 10 -4 14zM899 -15q-3 5 -12 5t-12 -5q-3 -6 -3 -15q0 -7 3 -13t12 -6t12 6q2 3 2.5 6.5t0.5 6.5q0 11 -3 15z
M800 616h-2q0 -2 -1 -3.5t-1 -3.5q-1 -2 -1 -2.5t-1 -2.5l-3 -3q-3 -5 -7 -5q-2 -2 -7 -2h-14v40q0 6 2 8q1 2 8 2h3v2h-36v-2h2q10 0 10 -10v-31q0 -9 -10 -9h-2v-2h60v24zM779 551h-27v-2h3q5 0 6 -1q2 -1 2 -4q0 -2 -3 -6l-11 -15l-14 18l-2 4v1q0 2 1 2q0 1 3 1h5v2h-35
v-2h1q6 0 8 -1l3 -3t2 -3l17 -22v-12q0 -5 -2 -7l-4 -2t-4 -1h-3v-1h38v1h-4q-4 0 -7 3q-3 1 -3 7v13l14 19q2 2 3 4q4 2 5 2q1 2 3 2q2 1 5 1v2zM710 521h-1q-2 -2 -2 -3.5t-1 -3.5q-2 -2 -2 -5q-1 -1 -3 -4q-4 -4 -7 -5q-2 -2 -8 -2h-14v42q0 5 3 7q2 2 7 2h4v2h-37v-2h3
q9 0 9 -9v-32q0 -10 -9 -10h-3v-1h61v24zM340 551h-27v-2h6q1 0 1.5 -0.5t1.5 -0.5q6 -3 6 -13v-19q0 -8 -5 -13q-1 -1 -7 -5h-9q-7 0 -10 2q-2 0 -6 4q-2 2 -2 9v27q0 6 2 7q2 2 8 2h4v2h-37v-2h1q11 0 11 -9v-27q0 -7 6 -13q3 -2 9 -3q3 -1 11 -1t14 2q4 2 6 4q5 4 5 13
v21v7l5 5h1l1 1h4v2zM425 621q-2 -1 -9 -1h-15v24h15q16 0 16 -11q0 -6 -2 -8q0 -2 -5 -4zM289 621q-1 -3 -11 -3h-11v26h16q3 0 5 -2q6 -2 6 -11q0 -7 -5 -10zM482 -33l-8 -1l-6 -3q-3 -3 -3 -7t3 -5q2 -2 6 -2h3q1 0 1.5 0.5t1.5 0.5q2 1 3 2t3 2q2 2 2 7v9q-3 -3 -6 -3z
M868 113l-8 -2q-3 0 -6 -3q-2 -1 -2 -6t2 -5q2 -2 6 -2h4h1q1 0 2 1q4 2 6 4q2 4 2 8v8q-3 -3 -7 -3zM757 -44h18v-18h-18v18zM311 -44h18v-18h-18v18zM263 123q-2 6 -4 10q-2 2 -4 3t-5 1q-11 0 -13 -14h26zM709 610h-22l11 24z" />
    <glyph glyph-name="currency" unicode="&#xa4;" horiz-adv-x="527" 
d="M60 263q2 39 19.5 74t45.5 61l-61 55l75 45l39 -63q21 10 43.5 15.5t46.5 5.5q29 0 55.5 -8.5t48.5 -24.5l57 78l56 -61l-70 -62q17 -24 25.5 -53.5t6.5 -61.5q-2 -34 -15.5 -64.5t-34.5 -55.5l56 -74l-56 -56l-60 82q-46 -26 -99 -26q-38 0 -70 13.5t-56 36.5l-69 -66
l-54 67l87 51q-19 44 -16 92zM112 263q-5 -31 3 -58t24.5 -47t40.5 -31.5t52 -11.5q30 0 56 11.5t46.5 31.5t34 47t16.5 58t-5.5 58t-25.5 47t-40.5 31.5t-51.5 11.5q-30 0 -56 -11.5t-46.5 -31.5t-33 -47t-14.5 -58z" />
    <glyph glyph-name="yen" unicode="&#xa5;" horiz-adv-x="1083" 
d="M878 549l-18 -15l13 -20l-21 -13l13 -21l-21 -12l9 -21l-23 -10l8 -24l-22 -7l4 -22l-24 -5l2 -25l-23 -2v-23h-20l-3 -21l-22 2l-5 -22l-24 4l-7 -23l-22 7l-8 -23l-24 10l-11 -22l-21 11l-13 -20l-21 13l-14 -18l-18 15l-17 -16l-15 14l-16 -14l-14 18l-20 -13l-14 21
l-21 -12l-11 20l-22 -9l-10 23l-23 -7l-7 22l-23 -5l-5 24l-24 -2l-3 23h-23v21l-20 2l2 23l-23 4l5 24l-24 7l7 22l-22 9l9 23l-22 12l11 20l-19 13l14 21l-19 15l14 18l-16 17l15 14l-14 16l18 15l-13 19l20 14l-11 21l19 11l-8 22l22 10l-7 23l23 7l-5 23l24 5l-3 25
l23 2v23h21l2 21l23 -3l4 23l25 -4l6 23l22 -6l9 21l23 -9l12 22l21 -11l12 20l21 -14l15 19l19 -15l16 16l15 -14l15 13l15 -17l20 13l13 -21l22 12l11 -20l21 9l10 -23l24 7l7 -22l22 5l5 -24l25 2l2 -23h23v-21l21 -2l-2 -23l22 -4l-4 -24l24 -7l-7 -22l22 -9l-10 -23
l23 -12l-12 -20l20 -13l-13 -21l18 -15l-15 -18l16 -16l-13 -15zM128 137q0 2 1 4.5t1 4.5q1 7 8 14q2 3 5.5 5.5t7.5 4.5q5 2 9.5 3t9.5 1h3q3 0 9 -2q3 0 5 -1l4 -2q7 -4 12 -11q2 -3 4 -7q1 -2 1 -6h-19q0 3 -2 5q-1 3 -6 6t-10 3q-3 0 -5 -1h-4q-2 -2 -8 -6
q-2 -2 -3.5 -4t-2.5 -5q-2 -5 -2 -16q0 -9 3 -16q1 -7 7 -9q3 -2 5.5 -3t5.5 -2h3q7 0 10 3q4 0 7 5q2 3 3.5 5.5t1.5 5.5h-21v16h37v-48h-12l-2 11q-3 -5 -8 -8q-3 -2 -5.5 -2.5t-4.5 -2.5q-3 0 -5.5 -0.5t-5.5 -0.5q-9 0 -14 4q-8 3 -12 9q-6 6 -9 15t-3 19q0 6 1 9z
M345 3h16v-10q6 12 19 12q7 0 10 -3q5 -2 8 -8q2 5 7 8q4 3 10 3q8 0 13 -4q4 -3 7 -8q2 -2 2 -10v-45h-16v39q0 13 -10 13q-11 0 -11 -13v-39h-18v39v6q0 3 -3 6q-2 1 -7 1q-11 0 -11 -12v-40h-16v65zM932 3h16v-10q7 12 19 12q8 0 11 -3q4 -2 7 -8q2 4 8 8q3 3 10 3
q8 0 12 -4q6 -3 7 -8q3 -3 3 -10v-45h-17v39q0 13 -10 13q-11 0 -11 -13v-39h-17v39q0 5 -1 6q0 3 -3 6q-2 1 -6 1q-11 0 -11 -12v-40h-17v65zM856 -17q1 4 2.5 6.5t3.5 5.5q6 6 11 7q4 3 14 3q8 0 14 -3q4 -1 11 -6q2 -2 3 -5t3 -6q2 -4 2 -15q0 -10 -4 -17q-3 -7 -11 -12
q-7 -4 -18 -4q-13 0 -19 5q-7 5 -11 12q-3 7 -3 16t2 13zM615 129q1 6 6 11q6 6 11 8q4 2 14 2t15 -2q2 -2 4.5 -3t4.5 -3q5 -6 7 -12t2 -14q0 -10 -4 -17q-3 -7 -11 -12t-18 -5q-11 0 -19 5q-6 5 -11 13q-3 7 -3 16q0 5 2 13zM125 1v2h17l11 -47l9 47h17l10 -47l10 47h18
l-18 -62l-1 -3h-17l-11 47l-10 -47h-18zM514 1v2h18l10 -47l9 47h17l10 -47l11 47h17l-18 -62v-3h-18l-10 47l-10 -47h-18zM30 1v2h18l10 -47l9 47h18l9 -47l11 47h17l-18 -62v-3h-18l-10 47l-10 -47h-18zM219 1v2h18l10 -47l9 47h18l9 -47l10 47h18l-18 -62l-1 -3h-17
l-10 47l-11 -47h-17zM840 116q6 4 14 6l15 2q6 1 6 5q0 8 -10 8q-4 0 -8 -2q-3 -1 -4 -8h-16q1 9 4 14q2 4 9 7q4 2 7 2h8q13 0 18 -2l4 -4t3 -4q2 -6 2 -8v-35v-7q0 -3 4 -3v-3h-19q-1 0 -1 1v1v1q0 2 -0.5 3t-0.5 2q-2 -3 -5 -5q-2 -1 -3.5 -2t-2.5 -1l-4.5 -1.5
t-4.5 -0.5t-9 2q-2 2 -4 3t-4 3q-3 4 -3 12q0 10 5 14zM454 -30q4 4 13 6l16 2q5 2 5 5q0 8 -10 8q-2 0 -4 -0.5t-4 -0.5l-2 -4t-1 -4h-16q0 7 3 13q6 6 10 7l6 2q2 0 4 0.5t4 0.5q13 0 18 -4q5 -3 8 -7q1 -3 1 -8v-35q0 -5 1 -7q0 -3 3 -3v-3h-18q0 1 -1 2v1q-1 2 -1 5
q-4 -4 -6 -5l-3 -1.5l-3 -1.5t-8 -1q-7 0 -9 1q-5 1 -8 7q-4 3 -4 10q0 10 6 15zM222 134q3 8 10 12q4 3 8.5 3.5t9.5 0.5q13 0 17 -4q6 -4 10 -13q2 -5 2.5 -9t0.5 -9v-4h-45q0 -6 5 -11q3 -4 11 -4q3 0 7 2q4 4 4 5h18q-2 -5 -6 -11q-3 -2 -5.5 -4t-4.5 -3q-4 -1 -6.5 -2
t-6.5 -1q-32 0 -32 36q0 5 0.5 8.5t2.5 7.5zM553 591q5 0 9 1t7 2q7 4 12 11q4 5 4 14q0 7 -2 9q-1 6 -6 9q-4 6 -11 7q-4 3 -14 3q-5 0 -15 -4q-6 -3 -12 -10q-4 -7 -4 -14t2 -10q3 -6 7 -10t11 -6q6 -2 12 -2zM560 510q4 5 4 14q0 6 -2 10t-6 9q-5 5 -11 6q-6 3 -13 3
q-11 0 -16 -4q-5 -2 -7.5 -4.5t-4.5 -5.5q-4 -7 -4 -14q0 -8 2 -11q4 -6 7 -9q2 -2 5 -3t6 -3q8 -2 12 -2q11 0 16 4q6 3 12 10zM702 -41q0 -9 15 -9q5 0 8 1q2 4 2 5q0 4 -7 5l-15 4q-3 1 -6.5 2.5t-5.5 3.5q-6 4 -6 12q0 6 3 11q2 4 9 8q4 3 14 3q6 0 10.5 -1t8.5 -3
q6 -3 8 -8q1 -2 1 -2.5t1 -2.5v-5h-17q0 5 -3 7q-1 1 -8 1q-10 0 -10 -6q0 -3 6 -4l15 -4q6 -1 14 -6q5 -3 5 -12q0 -6 -3 -12q-4 -5 -10 -8q-4 -2 -15 -2h-6q-4 0 -6 1q-6 2 -10 4q-6 4 -7 7q-2 6 -2 10h17zM614 3h17v-10q7 12 20 12q6 0 12 -3q5 -2 7 -7q3 -6 3 -12v-45
h-17v39q0 8 -2 10q-1 3 -9 3q-7 0 -10 -4q-3 -5 -3 -11v-37h-18v65zM691 149h16v-9q7 10 20 10q9 0 12 -2q2 -2 4 -3.5t4 -3.5q3 -6 3 -12v-45h-17v39q0 4 -2 10q-3 3 -10 3t-10 -4q-2 -3 -2 -11v-37h-18v65zM464 84h-16v9q-3 -5 -8 -7q-8 -4 -12 -4q-10 0 -16 7q-6 6 -6 17
v43h17v-40q0 -12 11 -12q4 0 6 1t6 5q0 2 1 4t1 4v38h16v-65zM793 -6q8 11 23 11q9 0 15 -3q7 -2 10 -9q5 -5 5 -13h-18q0 3 -2 7q-2 3 -8 3q-8 0 -10 -5q-4 -4 -4 -13t1 -12q1 -5 4 -7q2 -2 8 -2q5 0 8 2q3 3 3 9h18q0 -5 -4 -13q-3 -5 -10 -9q-6 -3 -16 -3q-13 0 -21 7
q-4 4 -7 10q-1 4 -1 15q0 14 6 25zM378 592h35v2h-2q-6 0 -8 2q-2 1 -2 3v4v15h12l19 -26h20v2h-2q-5 0 -7 1l-3 3q-1 2 -2 3t-2 3l-2 2q0 1 -2 3v2q-3 1 -6 1q-4 2 -5 3l-6 3h9q2 1 4 1t4 1q3 0 7 2q6 4 6 11q0 2 -1 3q-2 4 -3 5q-3 3 -8 3q-6 2 -13 2h-42v-2h2q5 0 7 -2
q3 -2 3 -8v-31q0 -2 -0.5 -4t-2.5 -3q-2 -2 -7 -2h-2v-2zM368 137h-9v12h9v5q0 18 19 18h9v-13h-5q-3 0 -4 -1q-2 0 -2 -2v-7h11v-12h-11v-53h-17v53zM579 137h-9v12h9v5q0 18 19 18h8v-13h-4q-4 0 -4 -1q-1 0 -2 -2v-7h12v-12h-12v-53h-17v53zM908 137h-8v12h8v17h18v-17
h11v-12h-11v-35q0 -2 0.5 -3t0.5 -2q1 0 2 -0.5t3 -0.5l3 1h2v-13h-11q-8 0 -11 2q-4 0 -5 4q0 2 -1 3.5t-1 3.5v40zM294 137h-9v12h9v17h17v-17h10v-12h-10v-35q0 -4 1 -5q1 0 2.5 -0.5t3.5 -0.5l2 1h1v-13h-10q-8 0 -11 2q-4 0 -5 4q-1 2 -1 7v40zM280 592v2h-3
q-10 0 -10 9v14h14h11q6 2 7 3q5 2 5 5q2 2 2 6t-3 9q-4 4 -10 4q-1 1 -4 1h-6q-3 1 -7 1h-32v-2h2q10 0 10 -10v-31q0 -9 -10 -9h-2v-2h36zM768 137h-10v12h10v17h16v-17h11v-12h-11v-35q0 -2 0.5 -3t0.5 -2q2 0 3 -0.5t3 -0.5l2 1h2v-13h-11q-8 0 -10 2q-5 0 -6 4v7v40z
M546 543l2 -4t2 -5q0 -2 0.5 -4.5t0.5 -5.5q0 -6 -2 -14q-3 -6 -7 -10q-3 -2 -10 -2q-6 0 -7 2q-4 0 -7 5q-1 2 -3 8t-2 11q0 2 0.5 4.5t0.5 4.5q1 2 1.5 3.5t1.5 3.5q3 5 4 6q0 1 5 3q4 2 7 2q1 0 1.5 -0.5t2.5 -0.5l4 -2zM567 638l2 -4t2 -5q0 -2 0.5 -4.5t0.5 -5.5
q0 -8 -3 -14q-2 -6 -6 -9q-5 -3 -10 -3t-8 1q-2 2 -3 2.5t-2 2.5q-2 3 -4 9q-1 3 -1.5 5.5t-0.5 5.5q0 2 0.5 4.5t0.5 4.5q1 2 1.5 3.5t1.5 3.5q2 4 4 6q3 3 5 3q2 1 7 1h4q1 -1 1.5 -1t1.5 -1q4 -1 6 -5zM480 172h17v-88h-17v88zM510 172h16v-88h-16v88zM320 642q3 -2 3 -8
v-31q0 -9 -10 -9h-1v-2h58v22h-1q-1 -2 -1 -3.5t-2 -3.5q-2 -5 -5 -8t-5 -3l-6 -2h-16v24h2q7 0 10 -5l3 -3q0 -1 0.5 -1.5t0.5 -2.5q0 -4 1 -5h1v35h-1q-1 -2 -1 -5q0 -5 -3 -6q-3 -6 -10 -6h-3v25h11q8 0 11 -2q4 0 5 -4q2 -1 4 -5q1 -2 1 -4t2 -4h1v21h-57v-2h1q6 0 7 -2
zM464 519q-2 -2 -2 -3.5t-1 -3.5q-4 -6 -6 -8q-3 -3 -5 -3l-5 -2q-3 -1 -7 -1h-9v24h1q7 0 11 -4q1 -1 1 -1.5t1 -1.5q0 -1 0.5 -1.5t0.5 -2.5q1 -2 1 -5h1v35h-1v-5l-1.5 -3l-1.5 -3q-5 -6 -10 -6h-3v25h10q9 0 12 -1q2 -2 2.5 -2t2.5 -2l3 -6q2 -4 3 -8h2v21h-58v-2h2
q5 0 6 -2q3 -2 3 -7v-32q0 -10 -9 -10h-2v-1h58v22zM646 551h-27v-2h5q0 -1 2 -1q4 -4 4 -5q2 -2 2 -8v-23l-38 39h-21v-2h1q4 0 5 -1q2 0 2.5 -1t1.5 -1q1 -2 1 -5v-31q0 -4 -1 -6q-1 -3 -4 -4q-4 -2 -7 -2v-1h28v1q-3 0 -5 1q-2 0 -2.5 0.5t-2.5 0.5q-1 1 -3 5q-1 1 -1 7
v32l46 -47h2v38q0 6 3 11q1 3 9 3v2zM670 592h22v2h-3h-1q-2 1 -2 1.5t-1 1.5q0 1 -0.5 1.5t-0.5 2.5q0 1 0.5 2t0.5 2l1 4h23l1 -2l1 -1v-1l1.5 -3t0.5 -3q1 -1 1 -2q0 -3 -1 -3h-4h-5v-2h32v2h-2h-4q-1 0 -1.5 1t-1.5 1l-2 4l-21 47h-2l-17 -38q-5 -11 -8 -13
q-2 0 -2.5 -1t-1.5 -1h-3v-2zM400 513v5q-1 1 -1.5 2t-1.5 2q-3 2 -7 4q-2 1 -4.5 1.5t-5.5 2.5h-4h-2l-1 1l-8 2q-2 1 -3 1t-2 1q-1 0 -3 2t-2 4q0 3 1 4q0 -1 2 3l4 2q2 0 3 0.5t3 0.5q4 0 8 -2q5 0 8 -3q4 -2 6 -4t2.5 -4.5t2.5 -5.5h2v18h-2q-1 -4 -4 -4t-5 1
q-10 5 -18 5q-5 0 -11 -2q-2 -2 -3.5 -3t-3.5 -2q-3 -5 -3 -9q0 -3 3 -6q0 -1 3 -4q4 -2 7 -3q1 -1 4 -1.5t8 -2.5l4 -1q6 -2 8 -2t4 -2q1 0 2 -1q3 -3 3 -6q0 -1 -2 -5q-1 -1 -5 -4h-6q-6 0 -9 1q-6 2 -10 4l-6 6q-5 7 -5 12h-2v-25h2q0 4 2 4q2 2 5 2q1 0 1 -0.5t2 -0.5
q1 0 1.5 -0.5t2.5 -0.5q3 -2 4.5 -2t3.5 -1t8 -1q3 0 9 2q2 0 3.5 1t3.5 3q2 1 2 2t2 3v6zM491 591q4 0 10 2q4 1 7 4q1 1 1.5 2.5t1.5 2.5q1 2 1 5v5q-2 2 -2 3t-2 2q-2 2 -6 4q-2 1 -4.5 1.5t-6.5 2.5l-5 1h-2q-2 0 -4 1t-4 1t-4 2q-1 0 -3 2q-2 1 -2 4q0 2 1 3q0 1 2 3
q1 2 4 2q2 1 6 1q5 0 8 -1q2 0 4 -1t4 -1q2 -2 3 -2.5t2 -2.5q4 -6 6 -11h1v19h-1q-1 -4 -5 -4h-1q-2 0 -3 1q-10 5 -18 5t-11 -2q-4 -1 -7 -6q-3 -3 -3 -8q0 -4 2 -6q1 -2 2 -2.5t2 -1.5t2.5 -1.5t3.5 -1.5t5 -1.5t8 -2.5l4 -1q2 -1 3.5 -1t3.5 -1l4 -2q3 0 3 -2q3 -2 3 -5
t-2 -5q-3 -3 -5 -3q-2 -1 -7 -1t-9 1q-3 0 -9 4q-3 2 -7 6q-4 8 -5 13h-1v-26h1q2 3 3 4t4 1h3q3 0 5 -2q2 -1 4 -1t4 -1t7 -1zM593 592h28v2h-5q-3 0 -5 2q-3 0 -3 4q-2 4 -2 7v32l47 -48h1v39q0 3 1 6t2 5q3 3 10 3v2h-27v-2h4l4 -2q2 0 4 -4q1 -2 1 -8v-23l-37 39h-22v-2
h6q2 -2 2.5 -2t1.5 -1q1 -2 1 -5v-31q0 -4 -1 -6q-1 -3 -4 -4q-2 -1 -7 -1v-2zM658 130q-3 6 -12 6t-12 -6q-4 -6 -4 -14q0 -7 4 -13q2 -6 12 -6t12 6q4 4 4 13q0 10 -4 14zM899 -15q-3 5 -12 5t-12 -5q-3 -6 -3 -15q0 -7 3 -13t12 -6t12 6q2 3 2.5 6.5t0.5 6.5q0 11 -3 15z
M800 616h-2q0 -2 -1 -3.5t-1 -3.5q-1 -2 -1 -2.5t-1 -2.5l-3 -3q-3 -5 -7 -5q-2 -2 -7 -2h-14v40q0 6 2 8q1 2 8 2h3v2h-36v-2h2q10 0 10 -10v-31q0 -9 -10 -9h-2v-2h60v24zM779 551h-27v-2h3q5 0 6 -1q2 -1 2 -4q0 -2 -3 -6l-11 -15l-14 18l-2 4v1q0 2 1 2q0 1 3 1h5v2h-35
v-2h1q6 0 8 -1l3 -3t2 -3l17 -22v-12q0 -5 -2 -7l-4 -2t-4 -1h-3v-1h38v1h-4q-4 0 -7 3q-3 1 -3 7v13l14 19q2 2 3 4q4 2 5 2q1 2 3 2q2 1 5 1v2zM710 521h-1q-2 -2 -2 -3.5t-1 -3.5q-2 -2 -2 -5q-1 -1 -3 -4q-4 -4 -7 -5q-2 -2 -8 -2h-14v42q0 5 3 7q2 2 7 2h4v2h-37v-2h3
q9 0 9 -9v-32q0 -10 -9 -10h-3v-1h61v24zM340 551h-27v-2h6q1 0 1.5 -0.5t1.5 -0.5q6 -3 6 -13v-19q0 -8 -5 -13q-1 -1 -7 -5h-9q-7 0 -10 2q-2 0 -6 4q-2 2 -2 9v27q0 6 2 7q2 2 8 2h4v2h-37v-2h1q11 0 11 -9v-27q0 -7 6 -13q3 -2 9 -3q3 -1 11 -1t14 2q4 2 6 4q5 4 5 13
v21v7l5 5h1l1 1h4v2zM425 621q-2 -1 -9 -1h-15v24h15q16 0 16 -11q0 -6 -2 -8q0 -2 -5 -4zM289 621q-1 -3 -11 -3h-11v26h16q3 0 5 -2q6 -2 6 -11q0 -7 -5 -10zM482 -33l-8 -1l-6 -3q-3 -3 -3 -7t3 -5q2 -2 6 -2h3q1 0 1.5 0.5t1.5 0.5q2 1 3 2t3 2q2 2 2 7v9q-3 -3 -6 -3z
M868 113l-8 -2q-3 0 -6 -3q-2 -1 -2 -6t2 -5q2 -2 6 -2h4h1q1 0 2 1q4 2 6 4q2 4 2 8v8q-3 -3 -7 -3zM757 -44h18v-18h-18v18zM311 -44h18v-18h-18v18zM263 123q-2 6 -4 10q-2 2 -4 3t-5 1q-11 0 -13 -14h26zM709 610h-22l11 24z" />
    <glyph glyph-name="brokenbar" unicode="&#xa6;" horiz-adv-x="160" 
d="M55 338h29v-387h-29v387zM84 466h-29v358h29v-358z" />
    <glyph glyph-name="dieresis" unicode="&#xa8;" horiz-adv-x="310" 
d="M82 789q28 0 35.5 -19t4.5 -42q-4 -23 -18.5 -39t-36.5 -16q-21 0 -30 18t-5 42q3 25 18 40.5t32 15.5zM232 789q28 0 35.5 -19t4.5 -42q-4 -23 -18.5 -39t-36.5 -16q-21 0 -30 18t-5 42q3 25 18 40.5t32 15.5z" />
    <glyph glyph-name="ordfeminine" unicode="&#xaa;" horiz-adv-x="400" 
d="M243 722q11 -1 23 -2q11 -1 24 -1h27q-14 -27 -22.5 -53t-12.5 -51q2 -14 10 -28.5t27 -19.5q-24 -7 -31 -24.5t-7 -31.5q5 -28 13.5 -44t16.5 -17q16 -2 34.5 14.5t35.5 37.5q19 25 38 56l13 -8q-22 -36 -44 -63q-19 -24 -40.5 -43.5t-40.5 -19.5q-29 0 -50 24t-32 66
q-6 -15 -14.5 -30.5t-20 -29t-24.5 -22t-28 -8.5q-41 0 -63.5 30t-29.5 72q-4 11 -13 23t-27 17q15 5 25 17t15 25q8 46 31 79.5t60 33.5q17 0 31 -6.5t24.5 -16t18.5 -21.5t14 -23q2 15 5.5 27.5t6.5 21.5q4 11 7 19zM142 448q13 0 25 11.5t22 27.5t18 33t12 28
q0 5 -0.5 10.5t-0.5 10.5q-1 14 -0.5 27t1.5 25q-2 7 -7 17.5t-12 20.5t-16 17t-21 7q-15 0 -28 -17.5t-22.5 -43.5t-13.5 -56.5t-1.5 -56.5t13 -43.5t31.5 -17.5z" />
    <glyph glyph-name="guillemotleft" unicode="&#xab;" horiz-adv-x="534" 
d="M242 478q1 0 6.5 -5t13 -13.5t15 -19t13.5 -20.5q-19 -5 -41 -21.5t-44.5 -38.5t-43 -46t-36 -44.5t-25 -33.5t-8.5 -13t14 -12t32.5 -31t42.5 -43.5t43.5 -49.5t34.5 -49t17 -41q-8 10 -22 24t-32 30t-38 33t-40 33q-48 38 -102 78q-3 20 -5 36q-2 14 -3 25.5t0 11.5
l15.5 15.5t38.5 39t50 50.5t50 50.5t38 39t16 15.5zM382 478q1 0 6.5 -5t13 -13.5t15 -19t13.5 -20.5q-19 -5 -41 -21.5t-44.5 -38.5t-43 -46t-36 -44.5t-25 -33.5t-8.5 -13t14 -12t32.5 -31t42.5 -43.5t43.5 -49.5t34.5 -49t17 -41q-8 10 -22 24t-32 30t-38 33t-40 33
q-48 38 -102 78q-3 20 -5 36q-2 14 -3 25.5t0 11.5t16 15.5t38 39t50 50.5t50 50.5t38 39t16 15.5z" />
    <glyph glyph-name="macron" unicode="&#xaf;" horiz-adv-x="402" 
d="M32 692q-2 12 3.5 24t12.5 21.5t12.5 15t4.5 4.5t18.5 -6.5t56.5 -9t89.5 -3.5t117.5 11q1 -12 3.5 -22l4.5 -18l5 -15q-75 4 -140 6q-28 1 -56 1t-53.5 -1t-46 -3t-32.5 -5z" />
    <glyph glyph-name="macron" unicode="&#x2c9;" horiz-adv-x="402" 
d="M32 692q-2 12 3.5 24t12.5 21.5t12.5 15t4.5 4.5t18.5 -6.5t56.5 -9t89.5 -3.5t117.5 11q1 -12 3.5 -22l4.5 -18l5 -15q-75 4 -140 6q-28 1 -56 1t-53.5 -1t-46 -3t-32.5 -5z" />
    <glyph glyph-name="degree" unicode="&#xb0;" horiz-adv-x="323" 
d="M18 624q1 28 13.5 52.5t32 42.5t44.5 28.5t53 10.5q27 0 50.5 -10.5t40.5 -28.5t25.5 -42.5t7.5 -52.5q-2 -28 -14.5 -52.5t-32 -42.5t-45 -28.5t-52.5 -10.5q-28 0 -51.5 10.5t-40 28.5t-25 42.5t-6.5 52.5zM64 625q-4 -36 18.5 -62t58.5 -26q17 0 33 7t29 19t21.5 28
t11.5 34q1 18 -4 34t-15.5 28.5t-25.5 19.5t-33 7t-34.5 -7t-29 -19.5t-21 -28.5t-9.5 -34z" />
    <glyph glyph-name="plusminus" unicode="&#xb1;" horiz-adv-x="326" 
d="M150 105l-48 32q5 15 10 32t9 38l-109 1l26 52q19 -5 40 -7.5t48 -2.5q2 23 2.5 49.5t-1.5 60.5q6 2 15.5 0t18.5 -4q11 -3 23 -6l-14 -98q37 3 92 12q2 -6 2 -16t-1 -19q-1 -11 -3 -23h-96zM2 18l26 52q19 -5 40 -7.5t47.5 -2.5t59.5 3t77 11q2 -6 2 -16t-1 -19
q-1 -11 -3 -23z" />
    <glyph glyph-name="acute" unicode="&#xb4;" horiz-adv-x="333" 
d="M30 623q-4 1 20 6.5t59 23.5t73.5 52t63.5 91q12 -8 18.5 -22.5t9.5 -30t4 -27.5t2 -13t-9.5 -9t-29 -19t-43 -22.5t-52.5 -20t-58 -12t-58 2.5z" />
    <glyph glyph-name="mu" unicode="&#xb5;" horiz-adv-x="594" 
d="M274 482l132 28q-6 -23 -12 -49q-5 -23 -11.5 -53.5t-11.5 -64.5q1 -9 4 -24.5t10 -32t19.5 -30.5t33.5 -19q-26 -8 -41 -24t-22.5 -34.5t-9.5 -35.5t-2 -27q6 -33 21.5 -53t42.5 -20t48.5 8t38.5 21.5t30 30.5t22 35q21 42 31 96l25 -12q-14 -60 -42 -108
q-12 -20 -29 -39.5t-39 -34.5t-50 -24.5t-62 -9.5q-29 0 -50 14t-36 38t-24.5 55.5t-14.5 67.5q-11 -33 -26 -65.5t-35.5 -57.5t-46.5 -40.5t-58 -15.5q-43 0 -70 25q-6 -66 -12 -129.5t-11 -114.5q-5 -60 -10 -115q-24 0 -42 1q-17 1 -31 2t-19 3q-2 1 0 28t6.5 70t11.5 97
t14.5 110.5t15.5 110t14 94.5q-8 16 -22.5 30.5t-38.5 20.5q19 6 33 20t24 30.5t16 33t9 28.5q3 26 7 48.5t8 39.5q4 19 8 35l117 36q-44 -130 -63 -231q-8 -44 -11.5 -85.5t1 -73.5t19 -52t43.5 -20q30 0 52.5 24.5t40 61.5t29 79.5t18.5 77.5q-2 38 -0.5 73.5t3.5 62.5
q2 32 5 59z" />
    </font>
</defs>
</svg>
