<?xml version="1.0" standalone="no"?>
<!DOCTYPE svg PUBLIC "-//W3C//DTD SVG 1.1//EN" "http://www.w3.org/Graphics/SVG/1.1/DTD/svg11.dtd" >
<svg xmlns="http://www.w3.org/2000/svg" xmlns:xlink="http://www.w3.org/1999/xlink" version="1.1">
<metadata>
Created by FontForge 20170731 at Mon Aug 19 04:31:55 2013
 By Aleksey,,,
Get the latest version at http://www.weygandt.de/aw_siam.htm
</metadata>
<defs>
<font id="DVFSiam" horiz-adv-x="322" >
  <font-face 
    font-family="DVF Siam"
    font-weight="400"
    font-stretch="normal"
    units-per-em="1000"
    panose-1="0 0 4 0 0 0 0 0 0 0"
    ascent="800"
    descent="-200"
    x-height="599"
    cap-height="1198"
    bbox="-306 -444 7836 1463"
    underline-thickness="20"
    underline-position="-163"
    unicode-range="U+0020-F001"
  />
<missing-glyph horiz-adv-x="500" 
d="M63 0v800h375v-800h-375zM125 63h250v675h-250v-675z" />
    <glyph glyph-name=".notdef" horiz-adv-x="500" 
d="M63 0v800h375v-800h-375zM125 63h250v675h-250v-675z" />
    <glyph glyph-name=".null" horiz-adv-x="0" 
 />
    <glyph glyph-name="nonmarkingreturn" 
 />
    <glyph glyph-name="space" unicode=" " 
 />
    <glyph glyph-name="exclam" unicode="!" horiz-adv-x="259" 
d="M197 501l-62 -278l-52 278v484q22 45 57 45t57 -45v-484zM235 99q0 -43 -27 -70t-69 -27q-43 0 -70.5 27.5t-27.5 69.5t28 69.5t70 27.5t69 -27t27 -70zM192 99q0 23 -15.5 38t-37.5 15q-24 0 -39 -14.5t-15 -38.5q0 -23 15 -38t39 -15q23 0 38 15t15 38z" />
    <glyph glyph-name="quotedbl" unicode="&#x22;" horiz-adv-x="385" 
d="M371 849q0 -67 -32 -104q-35 -40 -100 -40v47q60 0 77.5 29t17.5 50q-19 -14 -40 -14q-29 0 -45.5 19.5t-16.5 49.5q0 28 19.5 47t47.5 19q72 0 72 -103zM149 849q0 -67 -32 -104q-34 -40 -99 -40v47q60 0 77.5 29t17.5 50q-20 -14 -40 -14q-29 0 -45.5 19.5t-16.5 49.5
q0 28 19 47t47 19q72 0 72 -103zM328 886q0 31 -33 31q-32 0 -32 -31q0 -33 32 -33q33 0 33 33zM107 886q0 31 -33 31q-32 0 -32 -31q0 -33 32 -33q33 0 33 33z" />
    <glyph glyph-name="numbersign" unicode="#" horiz-adv-x="705" 
d="M702 490l-25 -71h-148l-45 -128h157l-25 -72h-157l-79 -221h-81l79 221h-126l-80 -221h-80l78 221h-151l26 72h151l45 128h-161l25 71h162l79 222h81l-79 -222h125l80 222h80l-78 -222h147zM449 419h-127l-46 -129h128z" />
    <glyph glyph-name="dollar" unicode="$" horiz-adv-x="531" 
d="M494 193q0 -165 -195 -190v-110h-62v109h-8q-86 0 -193 73v128q109 -96 201 -102v209q-197 49 -197 186q0 79 60 129q54 45 137 52v74h62v-73q88 -7 160 -59v-108q-93 73 -160 76v-194q195 -60 195 -200zM237 411l-1 176q-43 -1 -70 -20q-30 -23 -30 -64q0 -65 101 -92z
M393 184q0 73 -94 102v-186q94 6 94 84z" />
    <glyph glyph-name="percent" unicode="%" horiz-adv-x="955" 
d="M930 191q0 -85 -59 -144t-144 -59q-86 0 -145 58.5t-59 144.5t59 145t145 59t144.5 -59t58.5 -145zM751 695l-463 -707h-80l461 707h82zM435 490q0 -85 -59.5 -144t-144.5 -59q-86 0 -144.5 58.5t-58.5 144.5t58.5 145t144.5 59q85 0 144.5 -59t59.5 -145zM841 191
q0 48 -33 81.5t-81 33.5t-81.5 -33.5t-33.5 -81.5t33.5 -81t81.5 -33t81 33t33 81zM345 491q0 48 -33 81t-81 33t-81 -33t-33 -81t33 -81.5t81 -33.5t81 33.5t33 81.5z" />
    <glyph glyph-name="ampersand" unicode="&#x26;" horiz-adv-x="649" 
d="M639 0h-127l-82 98q-99 -110 -218 -110q-82 0 -133 44q-54 47 -54 128q0 68 57 125q38 39 115 83q-80 79 -80 166q0 75 51 119q48 42 125 42q74 0 123 -39q53 -42 53 -114q0 -106 -129 -189l100 -116q39 44 74 115h102q-37 -102 -114 -187zM379 541q0 35 -24.5 55
t-59.5 20q-34 0 -58.5 -20.5t-24.5 -53.5q0 -52 70 -126q97 64 97 125zM371 166l-115 137q-129 -78 -129 -137q0 -39 28 -61q25 -21 65 -21q60 0 151 82z" />
    <glyph glyph-name="quotesingle" unicode="'" horiz-adv-x="172" 
d="M185 972q0 -26 -12 -49q-13 -26 -34 -35l9 -9t5 -11q0 -11 -9 -15l-18 -8q3 -8 10 -8q2 0 7 2t8 2q2 0 4.5 -1.5t3.5 -1.5v-12l-4 -8q-22 5 -25 5h-3q3 -2 8 -6v-8q-8 -4 -25 -12h-1l-6 -3l-5 1q1 2 2 5l-4 3q-2 -6 -6 -16q-1 1 -8 16q-1 -3 -4 -9q-7 1 -20 8q-5 4 -14 7
v9q6 2 8 5q-12 0 -28 -6q-3 5 -3 21q1 0 4 1h4q3 0 7.5 -1.5t6.5 -1.5q5 0 11 8q-10 4 -19 8.5t-9 15.5q0 7 14 19q-23 9 -36 36q-13 24 -13 50q0 9 5 20t12 10q-3 -6 -3 -13q0 -13 12 -27q3 2 3 6v4q-1 2 -1 3l1 2l1.5 -1t3.5 -1l4.5 3t8.5 3q5 0 11 -5q-18 -7 -18 -18
q0 -9 12 -18q10 -5 20 -11h5q1 3 1 7q0 3 -1 7.5t-1 7.5q0 6 5 9q13 9 15 26l8 -16t12 -10q1 -5 1 -9t-1 -11v-10q0 -1 1 -1q11 0 24 10t13 20q0 11 -17 17q5 5 10 5q3 0 10 -2.5t11 -2.5q0 -1 -2 -3t-2 -3q0 -4 4 -7q1 3 4 8q9 5 9 18q0 5 -5 15q13 -3 13 -15v-2
q5 -19 5 -16zM179 992h-2l-4 -21h2zM180 965h-2l-3 -7h2zM174 970h-2l-6 -10l2 -1zM175 957l-2 1l-8 -9l2 -2zM155 958q-1 8 -1 15l-6 -2q2 0 -5 2q5 -5 5 -15h2.5h3h1.5zM168 920v1l-3 -1v-2zM158 918v2h-4v-2h4zM149 941q-3 3 -8 3q-1 0 -7 -5.5t-8 -6.5v-14q12 8 23 23z
M92 971q-3 6 -3 10q-1 -4 -3 -10h6zM159 913q-10 0 -15 -3h8q2 0 4 1.5t3 1.5zM154 903v2h-7v-2h7zM90 964h-2l-2 -3l2 -1zM153 898v2h-6v-2h6zM145 901v3h-12v-3h12zM137 895v2h-7v-2h7zM102 920l-1 1l-3 -3l1 -1zM95 923v2h-13v-2h13zM130 881q0 3 -2 4q0 -7 -5 -15
q1 1 7 11zM115 909v17q-3 -6 -9 -15q-2 0 -5 1v-1q0 -2 -3 -4l-4 2q-2 -2 -5 -6q-1 1 -4 1q0 4 -1 5q-3 -2 -4 -2q-3 0 -2 5q-1 0 -3 -1h-3t-2 1q1 1 1 5h-1q-3 0 -4 1q0 4 2 5q-5 2 -7 2l-1 -1l2 -15q0 4 2 4q2 -2 4 -12q1 -4 13 -4h17q8 0 10.5 5.5t5.5 12.5q1 -2 1 -6z
M121 885q-2 -1 -5 -3q3 -3 3 -6q2 4 2 9zM83 915l-3 4l-1 -2l3 -3zM2 997h-2l-3 -10h2zM31 969q-2 0 -5 2t-4 2q1 -2 1 -6q0 -1 -1 -5v-5h6zM154 836l-6 2q-2 0 -5 -3q2 0 5 1h6zM153 831l-5 2q-4 0 -4 -3l1 -1q4 0 8 2zM2 973l-1 10h-3l2 -10h2zM118 876h-6v-2q1 -3 -1 -4
h-1q-4 0 -7 -2v-1q0 -2 -1 -3h-4l6 -2zM106 884v8q-6 -3 -6 -6l-6 2q-2 0 -3 -1.5t-2 -1.5q-2 0 -2.5 1.5t-2.5 1.5q-3 0 -5 -3q-3 4 -7 5q0 -9 9 -12q3 3 8 3q2 0 5 -1t5 -1t7 5zM4 966l-1 7h-2l1 -7h2zM52 931q-1 0 -8 6t-8 6q-2 0 -4 -1t-4 -1q6 -11 23 -24q0 8 1 14z
M11 958l-4 8l-2 -1l4 -7h2zM118 864l-1 1l-18 -9v-2zM92 879l-5 2v-2l4 -2zM12 947q-10 12 -18 35v-12q0 -15 18 -23zM141 825q-4 1 -6 5q2 1 4 3q-4 0 -6 -1q-8 6 -24 17q10 -12 18 -19q-4 -2 -4 -3q6 -1 18 -2zM37 916l-5 1v-1l4 -2zM113 839h-3v-4h2zM134 816l-2 1l-2 -5
l2 -1zM19 927l-3 2l-1 -2l4 -1v1zM120 833q-6 0 -7 1q-1 -4 -5 -4q2 -2 10 -6q0 6 2 9zM45 900v2l-8 1v-2zM28 915v2l-6 2v-2zM94 851q0 1 -1 5v5q-1 -2 -3 -4q-2 3 -4 3q-2 -7 -2 -8q0 -3 2 -9h7q1 4 1 8zM82 864h-6q-4 2 -11 7v3v2h-2q-2 0 -3 1q1 2 1 6q-1 0 -5 1
q3 -10 13 -21q-1 0 -2 2v1q5 -2 8 -6q1 2 7 4zM22 918v2l-8 1v-2zM36 908v2l-19 4v-2zM48 891v2h-8v-2h8zM49 896h-4q-3 -1 -5 -1q2 0 -17 5q12 -6 17 -6q1 0 4.5 1t4.5 1zM121 810v2l-6 1v-2zM79 855l-20 12v-2l19 -11zM54 871l-4 13l-2 -1l4 -12h2zM15 915l-6 6l-1 -1
l5 -6zM58 866l-2 5h-2l2 -5h2zM114 804h-2l-2 -5h2zM45 857h-2l-1 -3l2 -1zM33 866v2h-3v-2h3zM92 809q0 4 -1 8q0 -12 -1 -17q-1 5 -1 17q-4 -7 -4 -11q0 -5 4 -12q3 6 3 15zM70 829q-6 3 -11 3v-9q8 3 11 6zM69 848q-1 0 -11 -10q-8 -6 -13 -6q3 0 -12 5l-9 -2q18 0 20 -8
h6q4 -1 6 -1l1 1q-1 1 -3 4q10 10 15 17zM69 813v1l-8 -2v-2zM76 796v6h-2v-6h2zM68 799l-1 6h-2l1 -6h2zM57 805v8h-3v-8h3zM49 816h-2l-2 -6h3zM34 828v2l-8 1v-2zM41 824v2l-14 -2v-2z" />
    <glyph glyph-name="parenleft" unicode="(" horiz-adv-x="408" 
d="M392 698q0 -34 -21.5 -56t-55.5 -22q-38 0 -60 26q-146 -198 -146 -423q0 -224 161 -451h-57q-189 220 -189 456q0 126 58 245q47 97 145 208l7 8q-1 2 1 4.5t2 4.5q0 34 22 55.5t56 21.5q33 0 55 -21.5t22 -55.5zM357 698q0 18 -12.5 30t-29.5 12q-19 0 -31 -11.5
t-12 -30.5q0 -14 5 -19q0 -10 14 -16.5t24 -6.5q42 0 42 42z" />
    <glyph glyph-name="parenright" unicode=")" horiz-adv-x="438" 
d="M399 230q0 -235 -190 -456h-57q161 230 161 451q0 226 -135 418q-21 -27 -61 -27q-34 0 -56 22t-22 56q0 33 22.5 55t55.5 22q34 0 56 -21.5t22 -55.5q204 -235 204 -464zM160 694q0 17 -12.5 29.5t-30.5 12.5t-30.5 -12t-12.5 -30q0 -19 12.5 -31t30.5 -12q28 0 39 23
l3 11z" />
    <glyph glyph-name="asterisk" unicode="*" horiz-adv-x="471" 
d="M432 461l-171 23l138 -106l-49 -48l-106 138l23 -172h-68l22 172l-105 -138l-47 48l137 106l-172 -23v68l172 -22l-137 105l47 48l105 -138l-22 172h68l-23 -172l106 138l49 -48l-138 -106l171 23v-68z" />
    <glyph glyph-name="plus" unicode="+" horiz-adv-x="678" 
d="M672 266h-280v-279h-95v279h-279v95h279v279h95v-279h280v-95z" />
    <glyph glyph-name="comma" unicode="," horiz-adv-x="216" 
d="M173 -86h-43v88q-12 -2 -21 -2q-26 0 -42.5 17t-16.5 44q0 28 17 45t45 17q26 0 43.5 -17t17.5 -44v-148zM142 61q0 31 -30 31q-33 0 -33 -31t33 -31q30 0 30 31z" />
    <glyph glyph-name="hyphen" unicode="-" horiz-adv-x="437" 
d="M380 325h-320v99h320v-99z" />
    <glyph glyph-name="hyphen" unicode="&#x2010;" horiz-adv-x="437" 
d="M380 325h-320v99h320v-99z" />
    <glyph glyph-name="period" unicode="." horiz-adv-x="258" 
d="M212 78q0 -34 -21.5 -56t-55.5 -22t-56 22t-22 56t22 55.5t56 21.5t55.5 -21.5t21.5 -55.5zM177 78q0 18 -12 30t-30 12q-43 0 -43 -42q0 -18 12 -30t31 -12q42 0 42 42z" />
    <glyph glyph-name="slash" unicode="/" horiz-adv-x="345" 
d="M369 957l-320 -987h-74l321 987h73z" />
    <glyph glyph-name="zero" unicode="0" horiz-adv-x="556" 
d="M502 138q0 -31 -42 -69q-32 -28 -70 -47q-47 -23 -93 -23q-63 0 -131 39q-77 45 -77 103v413q0 43 33.5 76t76.5 33q41 0 69.5 -26t28.5 -66t-27 -66.5t-68 -26.5q-15 0 -28 4v-345q0 -43 35 -71.5t79 -28.5q46 0 85 25q45 27 45 70v497q0 80 -88 111q-48 16 -94 16
q-52 0 -97 -28.5t-64 -75.5q-6 -17 -11 -17q-8 0 -28 17q0 32 44 76q40 41 73 54q48 18 117 18q86 0 153 -40q79 -48 79 -129v-493zM262 574q0 21 -17 34t-38 13q-22 0 -37 -14.5t-15 -36.5q0 -23 16 -38.5t38 -15.5q23 0 38 17.5t15 40.5z" />
    <glyph glyph-name="one" unicode="1" horiz-adv-x="424" 
d="M412 95q0 -37 -26 -66.5t-63 -29.5q-40 0 -67.5 26.5t-27.5 65.5q0 47 21 77v501q0 60 -64 74q-73 0 -102 -65q-9 -21 -9 -41q0 -29 19.5 -56t47.5 -27q19 0 40 17q5 6 5 20q0 21 -11 42q-13 25 -32 25l18 20q56 -18 56 -84q0 -62 -61 -77q-50 0 -83.5 37t-33.5 88
q0 76 41.5 115.5t117.5 39.5q83 0 116 -57q19 -35 19 -68v-494q34 0 56.5 -24t22.5 -59zM379 91q0 58 -67 58q-22 -2 -37 -17t-15 -37q0 -26 17 -46t43 -20q59 0 59 62z" />
    <glyph glyph-name="two" unicode="2" horiz-adv-x="655" 
d="M631 543q-89 41 -255 61q-29 4 -59 4q-20 0 -46 -1q-29 -1 -34 -1q-47 0 -133 -15q16 98 86 153.5t159 55.5q105 0 159 -27q61 -30 94 -97q29 -60 29 -133zM628 490q-8 -38 -17 -76q-11 -46 -28 -65q-41 -47 -88 -54q-54 0 -120 19q-75 22 -101 22q-172 0 -172 -135
q0 -68 58 -110q4 24 10.5 49.5t23.5 35.5t48 10q28 0 90 -53q26 -22 52 -45q22 -18 36 -24q32 -13 51 -13q24 0 38 19q4 6 6 7q-27 0 -51.5 24t-28.5 51q0 32 21.5 52.5t53.5 20.5q38 0 62 -37q21 -32 21 -72q0 -49 -34.5 -83t-83.5 -34q-46 0 -106 30q-5 3 -55 38
q-43 30 -67 30q-40 0 -40 -41q0 -34 15 -57q-79 10 -132 70.5t-53 140.5q0 89 59 148.5t148 59.5q35 0 106 -24q66 -22 101 -22q73 0 99 51q10 19 11 39q3 35 6 45q30 1 61 -17zM591 599q-26 69 -79 105q-23 16 -76 27q-43 9 -72 9q-148 0 -210 -96q64 7 106 7q60 0 122 -8
q141 -19 209 -44z" />
    <glyph glyph-name="three" unicode="3" horiz-adv-x="545" 
d="M363 707q-57 39 -129 32q36 -28 40 -70q8 -99 -113 -109q-34 0 -65 26.5t-34 59.5q-6 75 52 115q50 35 126 35q59 0 115 -26zM502 204q-2 -94 -70 -151q-33 -27 -89 -42q-52 -14 -101 -12q-91 4 -152 76q-54 64 -54 128q-2 137 111 150q40 5 68 -28q16 -19 16 -50
q0 -27 -23 -51t-50 -21q-23 3 -51 36q-15 -33 -15 -56q0 -32 34 -72q41 -50 106 -48q96 3 139 39q55 46 68 110q4 18 4 30q0 25 -24 54t-54 47q-11 7 -62 32.5t-64.5 41t-1.5 25.5q4 4 19 4q53 2 102 44q5 3 7 5q1 1 1 0q0 2 2 5q7 12 15 24q8 18 11 45q2 20 3 40
q4 26 16 36q4 4 15 5q46 2 46 -55q0 -25 -8.5 -61.5t-15.5 -43.5q-18 -15 -36 -29q-36 -30 -69 -44q61 -22 97 -66q33 -40 46 -69q15 -34 14 -78zM232 666q-2 27 -22.5 43t-47.5 13q-24 -2 -41 -21t-15 -43q2 -27 22.5 -44.5t46.5 -15.5q27 2 43.5 22t13.5 46z" />
    <glyph glyph-name="four" unicode="4" horiz-adv-x="587" 
d="M558 710q0 -44 -25 -71t-68 -27q-26 3 -52 17v-628h-83v320h-241q-18 0 -49.5 24.5t-31.5 105.5v302h84v-294q0 -38 10 -52q27 -28 60 -28h167v302q0 56 30 88.5t86 32.5q44 0 76 -24.5t37 -67.5zM524 707q0 18 -18 32.5t-36 14.5q-24 0 -38.5 -16t-14.5 -40
q0 -21 16 -36t38 -15q20 0 36.5 20t16.5 40z" />
    <glyph glyph-name="five" unicode="5" horiz-adv-x="508" 
d="M480 747q-57 -58 -178 -58q-28 0 -53 3q-114 19 -168 63q-8 7 -8 15q0 10 10.5 18t21.5 8q5 0 9 -2q27 -23 69 -36q67 -19 99 -19q80 0 133 30q14 10 31 25q7 4 14 4q12 0 20 -9.5t8 -21.5t-8 -20zM481 205q-8 -92 -76 -152.5t-160 -52.5q-70 7 -134 58q-71 57 -65 124
q4 42 28 70q28 31 68 27q29 -2 49 -25.5t18 -51.5q-4 -38 -23 -50.5t-59 -8.5q31 -84 118 -92q61 -5 107 39.5t51 106.5q6 63 -24 118q-34 62 -94 67q-36 3 -71 -5q-13 -3 -66.5 -20.5t-75.5 -16.5q-22 9 -21 15q0 3 13 18q36 39 42 103q4 48 -3.5 74.5t-49 76t-39.5 66.5
q0 6 7 15q15 17 32 16q34 -3 77 -73.5t36 -155.5q-4 -47 -18 -80q59 27 115 23q94 -9 158 -73q68 -68 60 -160z" />
    <glyph glyph-name="six" unicode="6" horiz-adv-x="501" 
d="M464 158q0 -74 -59 -116t-146 -42q-91 0 -150.5 39.5t-59.5 110.5v504q1 24 25 52l31 31q33 29 94 48q54 16 100 16q50 0 97 -28q54 -31 54 -78q0 -46 -51.5 -68t-130.5 -22q-78 0 -135 41v-505q0 -42 30 -71.5t93 -29.5q58 0 91 25.5t33 71.5v143q-22 -13 -50 -13
q-37 0 -64.5 20t-27.5 62q0 47 20.5 69t66.5 28q53 0 94 -28q45 -31 45 -82v-178zM417 692q0 26 -44 44q-35 14 -65 14q-46 0 -90 -15q-50 -18 -66 -46q20 -24 71 -39q45 -13 88 -13q30 0 63 13q43 17 43 42zM383 353q0 24 -14 40t-38 16q-57 0 -57 -56q0 -21 15 -37t36 -16
q23 0 40.5 15t17.5 38z" />
    <glyph glyph-name="seven" unicode="7" horiz-adv-x="537" 
d="M522 654l-120 -656h-84l120 651q4 25 -32 57q-31 29 -71 29q-9 0 -15 -7l-57 -61l-48 52q-20 22 -39 22q-22 0 -58 -32q-32 -29 -45 -52q-15 -26 -15 -65q0 -34 18.5 -58t51.5 -24q19 0 26 12q7 7 7 17q0 14 -10 31.5t-23 20.5l34 27q25 -7 39 -29.5t14 -49.5
q0 -66 -66 -66q-55 0 -90 31t-35 85q0 58 22 98q21 37 71 71q58 41 80 41l66 -77l66 77q15 0 61 -20q76 -33 98 -60q37 -45 34 -65z" />
    <glyph glyph-name="eight" unicode="8" horiz-adv-x="520" 
d="M473 487q1 -46 -70 -46q-21 0 -29 4q-24 14 -24 23q0 6 19.5 20t19.5 29v144q0 42 -30 71.5t-93 29.5q-68 0 -101 -25.5t-33 -71.5v-69q22 13 51 13q36 0 63 -20q33 -23 33 -59q0 -89 -91 -100q-54 0 -94 28q-46 31 -46 82v104q0 74 59 116t156 42q92 0 151 -39.5
t59 -110.5v-165zM473 158q0 -74 -59 -115.5t-156 -41.5q-91 0 -150.5 39.5t-59.5 110.5v215q0 46 71 46q21 0 29 -5q24 -14 24 -23q0 -6 -19.5 -20t-19.5 -29l-1 -194q0 -42 30 -71.5t93 -29.5q68 0 101 26t33 71v110q-22 -14 -50 -14q-37 0 -64 20q-32 24 -32 59
q0 89 91 100q53 0 94 -27q45 -32 45 -83v-144zM238 523q0 21 -15 37t-35 16q-23 0 -41 -15t-18 -38q0 -24 14.5 -40t37.5 -16q57 0 57 56zM392 319q0 24 -14 40t-38 16q-57 0 -57 -56q0 -20 15.5 -36t35.5 -16q23 0 40.5 15t17.5 37z" />
    <glyph glyph-name="nine" unicode="9" horiz-adv-x="525" 
d="M476 148q-5 -67 -47 -104q-50 -43 -172 -43q-66 0 -123 28q-63 30 -66 64q-3 25 16 25q10 0 15 -8q11 -18 55 -42q29 -16 94 -16q51 0 92 22q52 29 52 82v504q0 42 -30 71.5t-93 29.5q-68 0 -101 -25.5t-33 -71.5v-157q22 13 51 13q36 0 63 -20q33 -23 33 -59
q0 -89 -91 -100q-54 0 -94 28q-46 31 -46 82v192q0 74 59 116t156 42q92 0 151 -39.5t59 -110.5v-503zM241 434q0 21 -15 37t-35 16q-23 0 -40.5 -15t-17.5 -38q0 -24 14 -40t37 -16q57 0 57 56z" />
    <glyph glyph-name="colon" unicode=":" horiz-adv-x="308" 
d="M291 616q0 -66 -38.5 -99t-105.5 -33q-103 0 -103 72q0 28 19.5 47.5t47.5 19.5q29 0 48.5 -16.5t19.5 -45.5q0 -21 -13 -40q20 0 49 17.5t29 77.5h47zM291 271q0 -132 -144 -132q-40 0 -68 15q-35 19 -35 57q0 28 19.5 47t47.5 19q29 0 48.5 -16.5t19.5 -45.5
q0 -21 -13 -39q20 0 49 17.5t29 77.5h47zM143 559q0 33 -32 33t-32 -33q0 -32 32 -32t32 32zM143 214q0 33 -32 33t-32 -33q0 -32 32 -32t32 32z" />
    <glyph glyph-name="semicolon" unicode=";" horiz-adv-x="246" 
d="M224 402q0 -43 -26.5 -70.5t-69.5 -27.5q-42 0 -70 28t-28 70t28 69.5t70 27.5t69 -27t27 -70zM205 37q0 -144 -132 -144v47q60 0 77.5 29t17.5 50q-18 -14 -39 -14q-29 0 -45.5 20t-16.5 49q0 28 19 47t47 19q38 0 57 -35q15 -28 15 -68zM181 402q0 22 -15.5 37.5
t-37.5 15.5q-23 0 -38.5 -15t-15.5 -38t15.5 -38t38.5 -15q24 0 38.5 15t14.5 38zM162 74q0 32 -32 32q-33 0 -33 -32q0 -33 33 -33q32 0 32 33z" />
    <glyph glyph-name="less" unicode="&#x3c;" horiz-adv-x="711" 
d="M689 -13l-660 279v95l660 279v-109l-534 -217l534 -219v-108z" />
    <glyph glyph-name="equal" unicode="=" horiz-adv-x="681" 
d="M673 381h-654v94h654v-94zM673 151h-654v94h654v-94z" />
    <glyph glyph-name="greater" unicode="&#x3e;" horiz-adv-x="672" 
d="M672 266l-662 -279v108l531 219l-531 217v109l662 -279v-95z" />
    <glyph glyph-name="question" unicode="?" horiz-adv-x="548" 
d="M516 592q0 -67 -39 -123q-23 -34 -91 -96q-29 -26 -43.5 -47.5t-17.5 -55.5v-59h-99v65q0 57 50 113q46 46 93 92q50 56 50 116q0 54 -40 87q-36 32 -92 32q-135 0 -142 -130q0 -14 -2 -42h-94q0 121 62 187.5t182 66.5q99 0 159 -53q64 -56 64 -153zM376 98
q0 -43 -27 -70.5t-70 -27.5q-42 0 -69.5 27.5t-27.5 70.5q0 42 28 69t69 27q42 0 69.5 -27t27.5 -69zM333 98q0 22 -16 37t-38 15q-23 0 -38.5 -14.5t-15.5 -37.5t15.5 -38t38.5 -15q24 0 39 14.5t15 38.5z" />
    <glyph glyph-name="at" unicode="@" horiz-adv-x="1050" 
d="M1021 411q0 -63 -12 -106q-24 -80 -72 -143q-56 -72 -126 -93q-35 -11 -81 -11q-110 0 -124 81q-69 -76 -156 -76q-79 0 -127 61q-46 55 -46 136q0 116 81 208q84 96 198 96q44 0 83.5 -28t50.5 -69l23 72h91l-105 -324q-7 -22 -7 -33q0 -48 66 -48q31 0 81 39
q97 79 97 245q0 27 -32 94q-24 51 -54 81q-50 53 -138 88t-163 35q-108 0 -202.5 -56.5t-154.5 -151.5q-69 -106 -69 -209q0 -93 38 -171q27 -55 93 -107q59 -47 123 -72.5t145 -25.5q104 0 214 34q21 38 68 38q34 0 55.5 -21.5t21.5 -55.5t-21 -56t-56 -22q-47 0 -68 38
q-110 -36 -216 -36q-95 0 -170 26q-68 24 -151 81q-169 117 -169 336q0 124 85 266q68 114 199 181q125 65 262 65q84 0 192 -45t178 -134q75 -97 75 -207zM650 400q0 36 -14.5 52t-50.5 28q-16 5 -32 5q-77 0 -130 -76q-47 -69 -47 -149q0 -49 28 -87q32 -41 78 -41
q76 0 126 100q42 83 42 168zM847 -82q0 18 -12.5 30t-30.5 12q-43 0 -43 -42q0 -18 12.5 -30t30.5 -12q43 0 43 42z" />
    <glyph glyph-name="A" unicode="A" horiz-adv-x="699" 
d="M661 0h-92v486h-45q-19 1 -45 1q-124 0 -137 -9q-48 -35 -48 -150q0 -25 2.5 -76.5t2.5 -77.5q0 -89 -25 -131q-33 -56 -117 -56q-61 0 -99.5 39t-38.5 101q0 61 38.5 99t99.5 38q29 0 45 -10q0 15 -1 43v41q0 72 18 110q25 51 93 76q-12 10 -90 32t-101 24q17 24 58 58
q52 42 63 54q57 57 79 73q49 35 103 35q91 0 166 -100q71 -94 71 -191v-509zM572 573q-12 35 -59 88q-50 56 -76 56q-49 0 -97 -40q-39 -38 -77 -75q32 -14 73 -28q52 -3 236 -1zM228 127q0 30 -20.5 48.5t-50.5 18.5q-28 0 -49.5 -19.5t-21.5 -47.5q0 -30 20.5 -50.5
t50.5 -20.5q32 0 51.5 19.5t19.5 51.5z" />
    <glyph glyph-name="B" unicode="B" horiz-adv-x="629" 
d="M873 -108l-68 -83q-23 59 -139 59h-397q-137 0 -195 65q-54 61 -54 201v464q0 107 38 154q43 52 148 52h235q67 0 114 -50t48 -117q1 -97 -51 -145q-34 -33 -107 -50q164 -51 153 -234q-4 -80 -78 -143.5t-166 -63.5q-75 0 -120 37q-48 39 -48 111q0 62 38.5 99t100.5 37
q61 0 99 -38t38 -98q0 -36 -21 -59q30 11 49 49q9 19 26 73q5 17 5 33q0 78 -124 134q-37 17 -190 63q155 39 210 63q132 57 99 127q-35 74 -104 74h-206q-57 0 -78 -27q-18 -23 -18 -81v-469q0 -161 154 -161h451q112 0 158 -76zM392 149q0 30 -19 49t-50 19
q-30 0 -49 -19.5t-19 -48.5t19.5 -48.5t48.5 -19.5q31 0 50 18.5t19 49.5z" />
    <glyph glyph-name="C" unicode="C" horiz-adv-x="640" 
d="M628 608q0 -56 -40.5 -94.5t-96.5 -38.5q-62 0 -100.5 38t-38.5 99q0 67 42 97q-92 0 -187 -100t-95 -193q0 -104 77 -212q80 -113 167 -113q36 0 113 27q74 27 107 49q2 -39 12 -90q-40 -26 -126 -54q-91 -29 -140 -29q-14 0 -22 2q-117 34 -204 167q-83 126 -83 253
q0 142 125 265t266 123q84 0 152 -55q72 -58 72 -141zM552 610q0 27 -17.5 45t-43.5 18q-27 0 -44 -18t-17 -45q0 -26 17.5 -43t43.5 -17q25 0 43 17.5t18 42.5z" />
    <glyph glyph-name="D" unicode="D" horiz-adv-x="676" 
d="M633 322q-17 -132 -44 -188q-63 -132 -191 -133l-225 -1q-92 -1 -121 37q-25 32 -25 128v469q0 98 24 128q28 35 122 36l164 1q62 0 101 -40t39 -102q0 -61 -38 -99.5t-99 -38.5q-62 0 -101 38.5t-39 99.5q0 12 9 47q-62 -2 -71 -6q-20 -10 -20 -64v-469q0 -46 7 -56
q9 -15 48 -14l225 1q80 0 115 76q16 35 37 155q7 39 7 73q0 105 -75 201l47 68q110 -115 110 -261q0 -38 -6 -86zM407 659q0 31 -18 50.5t-49 19.5q-32 0 -51.5 -19.5t-19.5 -50.5q0 -29 20 -49t48 -20q32 0 51 19t19 50z" />
    <glyph glyph-name="E" unicode="E" horiz-adv-x="613" 
d="M592 53q-101 -54 -272 -54q-115 0 -202 61q-98 69 -98 185q0 50 37 100t79 51q-116 48 -116 183q0 104 85 168q78 57 185 57q300 0 300 -161q0 -67 -37 -109t-101 -42q-62 0 -100 36.5t-38 97.5q0 48 24 82q-100 0 -153 -21q-82 -31 -82 -113q0 -63 45 -100
q41 -35 106 -35h93v-99h-93q-151 0 -151 -95q0 -69 80 -114q66 -38 136 -38q71 0 143 14q93 17 130 49v-103zM517 631q0 28 -19.5 47t-47.5 19q-29 0 -47 -19t-18 -47q0 -30 17.5 -47.5t47.5 -17.5t48.5 17.5t18.5 47.5z" />
    <glyph glyph-name="F" unicode="F" horiz-adv-x="616" 
d="M614 649l-60 -54q-89 124 -241 124q-90 0 -147 -41q-63 -47 -63 -132v-235q39 93 94 152q72 77 159 77q61 0 99 -37t38 -98t-38.5 -102.5t-98.5 -41.5q-43 0 -77 21.5t-48 61.5q-50 -61 -89 -164.5t-39 -179.5h-95v546q0 124 92 192q82 61 211 61q89 0 171 -38
q89 -41 132 -112zM426 398q0 30 -20 48.5t-50 18.5t-48.5 -18t-18.5 -49q0 -30 18.5 -50t48.5 -20t50 20t20 50z" />
    <glyph glyph-name="G" unicode="G" horiz-adv-x="618" 
d="M624 650l-56 -45q-95 126 -246 126q-91 0 -153 -51q-66 -55 -66 -146v-387q0 -44 17 -58q14 -11 57 -11h242q42 0 57.5 12.5t15.5 56.5v80q-39 -9 -51 -9q-61 0 -99.5 39t-38.5 100t38.5 99.5t99.5 38.5q63 0 102.5 -38.5t39.5 -101.5v-208q0 -95 -35 -123
q-31 -24 -129 -24h-242q-97 0 -129 25q-36 29 -36 122v387q0 126 92 199q85 67 214 67q89 0 172 -38q90 -41 134 -112zM518 357q0 33 -21 52t-54 19t-53 -20t-20 -53q0 -30 21.5 -51t51.5 -21q33 0 54 20.5t21 53.5z" />
    <glyph glyph-name="H" unicode="H" horiz-adv-x="826" 
d="M776 676q0 -84 -73 -122q71 -32 71 -153v-401h-93v401q0 26 -6 55q-10 40 -27 40q-5 0 -13.5 -5.5t-13.5 -6.5q-98 -49 -127 -68q-65 -43 -102 -101q-83 -130 -83 -315h-94v543q-20 -7 -43 -7q-61 0 -100.5 39.5t-39.5 100.5q0 60 39.5 98.5t100.5 38.5q60 0 98.5 -39.5
t38.5 -99.5v-350q32 75 134 151q26 19 67 39q36 16 71 31q-14 20 -40.5 42t-34.5 37q-14 24 -14 65q0 52 47 89q44 35 97 35q62 0 101 -38t39 -99zM705 676q0 30 -19.5 49.5t-49.5 19.5t-50 -19.5t-20 -49.5q0 -29 20.5 -50t49.5 -21q30 0 49.5 20.5t19.5 50.5zM241 674
q0 30 -19.5 49.5t-49.5 19.5q-31 0 -51 -19.5t-20 -49.5t20.5 -50.5t50.5 -20.5t49.5 20t19.5 51z" />
    <glyph glyph-name="I" unicode="I" horiz-adv-x="351" 
d="M454 900q-156 59 -316 59q-95 0 -168 -12q14 89 89 146q72 54 164 54q31 0 77 -22.5t67 -45.5v119h65v-223q12 -25 22 -75zM324 138q0 -61 -38.5 -99.5t-99.5 -38.5t-100 37t-39 98v663q36 -2 94 0v-528q19 7 48 7q61 0 98 -39t37 -100zM379 966q-23 55 -66 89
q-48 37 -104 37q-46 0 -88 -22q-49 -24 -61 -64q35 5 104 5q152 0 215 -45zM256 140q0 29 -20 48t-50 19q-29 0 -49.5 -19t-20.5 -48q0 -32 19.5 -51.5t50.5 -19.5t50.5 20t19.5 51z" />
    <glyph glyph-name="J" unicode="J" horiz-adv-x="614" 
d="M566 798v-570q0 -114 -79 -175q-73 -56 -190 -56q-96 0 -160 43q-58 40 -104 129l67 32q27 -62 78.5 -99t118.5 -37q78 0 125 40q51 42 51 118v575h93z" />
    <glyph glyph-name="K" unicode="K" horiz-adv-x="789" 
d="M768 0h-107l-180 441l-87 -101v-340h-90v395q0 52 29.5 114t29.5 111q0 51 -38 76q-22 14 -85 30q-23 6 -51 4q82 -27 84 -114q1 -55 -45 -92t-104 -31q-55 6 -87 52t-28 105q3 58 70.5 104.5t143.5 45.5q93 -1 156 -43q72 -48 72 -130q0 -91 -50 -145l252 318h116
l-218 -278zM215 624q-1 29 -21.5 49t-49.5 20q-28 0 -48.5 -20t-20.5 -49t20 -49.5t49 -20.5q29 -1 50 20t21 50z" />
    <glyph glyph-name="L" unicode="L" horiz-adv-x="379" 
d="M900 -102l-66 -81q-21 56 -119 56h-265q-120 0 -173 64q-47 57 -47 177v522q0 89 -66 89q-54 0 -63 -29q44 -2 72 -25q31 -26 31 -71q0 -41 -26 -68t-67 -27q-102 0 -102 130q0 72 40.5 118.5t112.5 46.5q71 0 114 -46t43 -120v-520q0 -154 127 -154h312q104 0 142 -62z
M150 600q0 41 -41 41t-41 -41t41 -41t41 41z" />
    <glyph glyph-name="M" unicode="M" horiz-adv-x="906" 
d="M869 -2h-89v543l-237 -543l-238 540v-405q0 -63 -40 -104t-103 -41q-64 0 -105 40t-41 103q0 64 41 105t105 41q37 0 55 -7v527h88q5 -56 19 -89l219 -510l218 510q19 45 19 89h89v-799zM234 131q0 32 -20 53t-52 21q-33 0 -53.5 -20.5t-20.5 -53.5q0 -31 21.5 -50.5
t52.5 -19.5q30 0 51 20t21 50z" />
    <glyph glyph-name="N" unicode="N" horiz-adv-x="833" 
d="M807 138q0 -61 -39 -100t-99 -39q-61 0 -100.5 38t-39.5 99v4l-418 519q0 -2 1 -389q19 8 58 8q61 0 98 -39t37 -101q0 -60 -38.5 -99t-99.5 -39t-100 37.5t-39 98.5v619q0 19 13 32.5t34 13.5q39 0 79 -49l375 -470v519q37 -2 95 0v-531q19 8 47 8q62 0 99 -39t37 -101z
M738 140q0 29 -20 48t-49 19q-30 0 -50 -18.5t-20 -48.5q0 -31 19.5 -50.5t50.5 -19.5t50 19.5t19 50.5zM237 140q0 30 -20 48.5t-50 18.5t-50 -18.5t-20 -48.5q0 -31 19.5 -50.5t50.5 -19.5t50.5 19.5t19.5 50.5zM529 136z" />
    <glyph glyph-name="O" unicode="O" horiz-adv-x="585" 
d="M226 474q0 32 -20 52t-52 20q-31 0 -51.5 -19t-20.5 -51t20 -52t52 -20q30 0 51 20.5t21 49.5zM346 10h-110q-85 0 -144 51q-62 54 -62 139v274q0 56 35.5 90t90.5 34q54 0 88 -34t34 -88t-33.5 -89t-88.5 -35q-11 0 -42 8v-160q0 -37 42.5 -77.5t79.5 -40.5h110
q37 0 79.5 40.5t42.5 77.5v368q0 77 -57 121q-52 39 -131 39q-122 0 -207 -135l-57 30q24 79 107 131q76 46 154 46q114 0 190 -58q85 -64 85 -174v-368q0 -84 -63 -138q-59 -52 -143 -52z" />
    <glyph glyph-name="P" unicode="P" horiz-adv-x="649" 
d="M617 588q0 -89 -57 -142t-149 -53h-111v-258q0 -64 -33 -99.5t-94 -35.5q-60 0 -100 39t-40 99q0 59 39 99t99 40q10 0 37 -8v531h171q238 0 238 -212zM525 596q0 116 -148 116h-78v-229h109q46 0 81.5 34t35.5 79zM243 140q0 30 -19.5 48.5t-50.5 18.5q-28 0 -49 -19.5
t-21 -47.5q0 -30 20 -50.5t50 -20.5q32 0 51 19.5t19 51.5z" />
    <glyph glyph-name="Q" unicode="Q" horiz-adv-x="705" 
d="M958 -122q0 -66 -36 -105t-102 -39q-112 0 -155 90q-12 27 -40 173q-19 97 -70 106q-89 -101 -212 -102q-136 -1 -229 119q-88 111 -95 266q-7 164 81 288q94 134 243 134q148 0 241 -133q85 -123 83 -289q-1 -116 -69 -225q45 -21 69 -85q14 -36 30 -124q14 -80 29 -108
q20 -38 70 -48q-47 20 -47 82q0 44 29.5 73.5t73.5 29.5t75 -29.5t31 -73.5zM566 386q8 132 -45 230q-60 112 -171 115q-113 4 -178 -110q-58 -101 -51 -235q6 -125 58 -209q61 -98 164 -98t164 98q52 84 59 209zM897 -122q0 19 -14 34t-33 15q-21 0 -34 -14t-13 -35
q0 -47 47 -47q20 0 33.5 13.5t13.5 33.5z" />
    <glyph glyph-name="R" unicode="R" horiz-adv-x="706" 
d="M680 128q0 -62 -38.5 -102t-101.5 -40q-84 0 -117 53q-26 42 -26 130q0 28 4 89q3 58 2 89q-1 83 -23 129q-30 63 -103 81q71 63 160 82l-44 38.5t-52.5 33.5t-64.5 9q-159 0 -159 -175v-545h-90v545q0 134 65 196q61 58 186 58q98 0 169 -47q61 -40 126 -132
q-106 -10 -177 -71q82 -29 95 -133q4 -31 3 -76q-1 -9 -2 -43q-1 -26 -1 -42q20 12 49 12q62 0 101 -38.5t39 -100.5zM616 128q0 30 -22.5 51t-53.5 21q-32 0 -54 -20t-22 -52q0 -34 21 -54.5t55 -20.5q32 0 54 21.5t22 53.5z" />
    <glyph glyph-name="S" unicode="S" horiz-adv-x="637" 
d="M619 225q0 -104 -91 -170q-82 -61 -190 -61q-310 0 -310 162q0 65 41.5 108t106.5 43q62 0 100 -36.5t38 -98.5q0 -47 -23 -81q99 0 152 20q82 31 82 113q0 47 -56 96q-141 58 -376 162q-19 9 -37 39q-22 35 -22 72q0 114 99 167q78 42 202 42q49 0 93 -4l57 155
q23 -6 76 -25l-52 -144q55 -13 97 -36v-103q-36 32 -130 49q-72 14 -143 14q-203 0 -205 -115q-1 -27 101 -74l202 -84q119 -52 146 -87q15 -20 28.5 -59t13.5 -64zM243 168q0 29 -17.5 47t-47.5 18t-48.5 -17.5t-18.5 -47.5q0 -28 19.5 -47t47.5 -19q29 0 47 18.5t18 47.5z
" />
    <glyph glyph-name="T" unicode="T" horiz-adv-x="618" 
d="M608 688q-55 -22 -101 -22t-133.5 29.5t-133.5 29.5q-26 0 -69 -13q-56 -17 -69 -19q29 5 52 5q91 0 127 -20q70 -38 88 -125q8 -38 8 -165v-277q0 -45 -39.5 -78t-84.5 -33q-43 0 -72 28.5t-29 71.5t32.5 72.5t77.5 29.5q11 0 32 -5q0 38 1 113q1 72 1 114q0 70 -9 119
q-20 113 -235 113q-4 0 -68 -1q37 58 116 101.5t147 43.5q45 0 132 -26t132 -26q41 0 79 19zM305 102q0 49 -52 49q-20 0 -35 -14.5t-15 -34.5q0 -22 14.5 -36.5t35.5 -14.5q52 0 52 51z" />
    <glyph glyph-name="U" unicode="U" horiz-adv-x="842" 
d="M790 153q0 -98 -38 -128q-32 -25 -133 -25h-388v527q-18 -7 -45 -7q-63 0 -104 41t-41 105q0 63 41 103t104 40t103.5 -41.5t40.5 -104.5v-578h289q42 0 57 12t15 56v646h99v-646zM790 -444h-78v131q-17 -5 -38 -5q-49 0 -79 31.5t-30 80.5q0 51 31 82.5t82 31.5
q49 0 80.5 -31t31.5 -80v-241zM735 -206q0 56 -57 56q-25 0 -42 -15.5t-17 -40.5t17 -40t42 -15q24 0 40.5 15.5t16.5 39.5zM259 663q0 32 -20.5 52.5t-52.5 20.5t-52.5 -20t-20.5 -53q0 -31 21 -52t52 -21q32 0 52.5 20.5t20.5 52.5z" />
    <glyph glyph-name="V" unicode="V" horiz-adv-x="671" 
d="M620 61q0 -30 -23 -46.5t-55 -16.5q-34 0 -61 17q-30 18 -38 49q-10 26 -172 509q-39 -42 -91 -42q-51 0 -93 36q-45 40 -45 96q0 63 38 101.5t100 38.5q43 0 84.5 -27t57.5 -73l200 -582l-1 679h98zM249 663q0 32 -19 51.5t-50 19.5q-30 0 -49.5 -20t-19.5 -51
q0 -29 20 -49t49 -20q30 0 49.5 19.5t19.5 49.5z" />
    <glyph glyph-name="W" unicode="W" horiz-adv-x="711" 
d="M658 0h-96q0 90 -44 140l-165 185l-164 -185q-47 -54 -47 -140h-96l1 660q0 62 38 101t99 39q62 0 101 -38t39 -100t-38.5 -100.5t-101.5 -38.5q-21 0 -42 9v-324l211 230l209 -230v589h96v-797zM257 660q0 32 -20.5 51t-52.5 19q-30 0 -49.5 -20t-19.5 -50
q0 -29 20.5 -49.5t48.5 -20.5q31 0 52 20t21 50z" />
    <glyph glyph-name="X" unicode="X" horiz-adv-x="553" 
d="M563 1108q-27 -89 -120 -150q-89 -58 -185 -58q-86 0 -152 27q-91 36 -91 109q0 53 27.5 87t78.5 34q47 0 78.5 -29.5t31.5 -75.5q0 -45 -34 -79q45 -8 65 -8q79 0 147.5 49t89.5 125zM505 231q0 -93 -42 -156q-47 -71 -132 -71q-60 0 -98 38t-38 98t38 97t98 37
q75 0 102 -43q0 70 -56 108q-50 34 -121 29q-68 -5 -112 -55t-44 -121v-192h-87v192q0 75 25 131q31 70 94 89q-120 39 -120 160q0 93 42 156q47 71 131 71q60 0 98.5 -38t38.5 -98t-38.5 -97t-98.5 -37q-74 0 -101 43q0 -68 55 -98q45 -25 117 -20q69 4 113 45
q48 44 48 112v189h87v-189q0 -68 -25 -118q-31 -63 -95 -82q121 -39 121 -180zM172 1050q0 54 -51 54q-53 0 -53 -54q0 -22 15 -37t38 -15q51 0 51 52zM252 665q0 30 -18.5 48t-48.5 18t-48 -18t-18 -48q0 -29 19 -48.5t47 -19.5q67 0 67 68zM398 138q0 29 -19 48.5
t-48 19.5q-66 0 -66 -68q0 -30 18 -48t48 -18t48.5 18t18.5 48z" />
    <glyph glyph-name="Y" unicode="Y" horiz-adv-x="704" 
d="M656 261q0 -128 -92 -199q-83 -63 -215 -63q-91 0 -176 40q-93 43 -138 116l63 48q93 -127 247 -127q91 0 149 45q65 51 65 140v269q-60 -141 -110 -204q-83 -102 -196 -102q-93 0 -139 99q-35 74 -35 178q0 141 18 200q34 113 142 113q63 0 102 -40t39 -103
q0 -62 -40 -101.5t-101 -39.5q-38 0 -67 19q-5 -43 -5 -72q0 -64 18 -109q26 -63 81 -63q67 0 141 101q61 86 108 212q44 117 44 182h97v-539zM310 673q0 31 -20 51.5t-51 20.5t-51.5 -20.5t-20.5 -51.5q0 -32 20 -51.5t52 -19.5t51.5 19.5t19.5 51.5z" />
    <glyph glyph-name="Z" unicode="Z" horiz-adv-x="602" 
d="M603 0h-583q0 68 11 95l30 48l344 561h-121q9 -21 9 -42q0 -62 -38.5 -101t-101.5 -39q-62 0 -100 39t-38 101q0 61 39.5 99.5t100.5 38.5h448v-96q-46 0 -69 -7q-33 -10 -51 -40l-308 -518q-8 -12 -8 -23q0 -19 19 -19l417 -1v-96zM226 662q0 29 -21 49t-50 20
q-30 0 -49.5 -19.5t-19.5 -49.5q0 -31 19 -51.5t50 -20.5t51 21t20 51z" />
    <glyph glyph-name="bracketleft" unicode="[" horiz-adv-x="280" 
d="M250 -209h-219v892h219v-68h-136v-756h136v-68z" />
    <glyph glyph-name="backslash" unicode="\" horiz-adv-x="276" 
d="M296 -93h-67l-239 787h70z" />
    <glyph glyph-name="bracketright" unicode="]" horiz-adv-x="333" 
d="M278 -210h-219v68h137v756h-137v68h219v-892z" />
    <glyph glyph-name="asciicircum" unicode="^" horiz-adv-x="618" 
d="M611 440h-88l-206 205l-207 -205h-88l249 272h91z" />
    <glyph glyph-name="underscore" unicode="_" horiz-adv-x="438" 
d="M469 -236h-500v70h500v-70z" />
    <glyph glyph-name="grave" unicode="`" horiz-adv-x="164" 
d="M175 864q0 -61 -64 -61q-19 0 -32.5 14t-13.5 33q0 20 13 33t33 13q28 0 36 -21q-5 24 -19.5 30.5t-55 10.5t-57.5 13q-26 13 -26 47h31q0 -28 40 -34q72 -10 75 -11q40 -15 40 -67zM132 851q0 21 -21 21q-22 0 -22 -21t22 -21q21 0 21 21z" />
    <glyph glyph-name="a" unicode="a" horiz-adv-x="528" 
d="M493 0h-73q0 81 -68 205q-76 136 -151 136q-74 0 -74 -99q0 -22 3 -54q22 14 51 14q46 0 75.5 -29.5t29.5 -75.5q0 -47 -29 -77t-76 -30q-81 0 -107 84q-13 44 -13 150q0 73 26 119q33 59 104 59q87 0 147 -62q43 -45 82 -138v202q0 67 -48 104q-43 33 -112 33
q-55 0 -94 -24q-35 -21 -71 -70l-47 36q70 115 215 115q100 0 161 -46q69 -52 69 -148v-404zM234 95q0 24 -15 38.5t-38 14.5q-54 0 -54 -53q0 -23 15 -38.5t39 -15.5q23 0 38 15.5t15 38.5z" />
    <glyph glyph-name="b" unicode="b" horiz-adv-x="523" 
d="M497 281q-21 -106 -103 -190q-86 -88 -183 -88q-68 0 -124 46q-59 49 -59 116q0 45 29.5 75.5t75.5 30.5q45 0 77.5 -28.5t32.5 -73.5q0 -69 -63 -97q13 -2 25 -2q76 0 145 77q63 70 78 147q3 17 3 36q0 84 -55 147q-62 71 -155 65q-63 -5 -197 -67q-1 3 -1 325h75
l-1 -225q50 27 144 27q37 0 62 -4q85 -17 143 -101q55 -79 55 -171q0 -23 -4 -45zM189 168q0 23 -16 38t-39 15t-39 -16t-16 -39q0 -24 16.5 -39t40.5 -15q23 0 38 16.5t15 39.5z" />
    <glyph glyph-name="c" unicode="c" horiz-adv-x="569" 
d="M549 454q0 -42 -32.5 -70.5t-79.5 -28.5q-49 0 -81 28.5t-32 74.5q0 49 34 72q-75 0 -152 -74.5t-77 -144.5q0 -77 62 -158q66 -85 137 -85q29 0 92 21q60 19 87 36q2 -30 10 -67q-33 -20 -103 -41q-74 -22 -114 -22q-11 0 -18 2q-95 26 -166 125q-68 94 -68 189
q0 106 102 198t217 92q69 0 124 -41q58 -44 58 -106zM488 456q0 20 -14.5 33.5t-36.5 13.5q-21 0 -35 -13.5t-14 -33.5q0 -19 14 -32t35 -13t36 13t15 32z" />
    <glyph glyph-name="d" unicode="d" horiz-adv-x="520" 
d="M22 281q21 -106 103 -190q87 -88 184 -88q68 0 125.5 48t57.5 114q0 46 -29.5 76t-75.5 30t-77 -27q-33 -30 -33 -75q0 -68 62 -96q-12 -3 -25 -3q-76 0 -145 77q-62 70 -77 148q-4 17 -4 35q0 84 56 148q61 71 155 64q63 -4 197 -66v325l-74 -1v-225q-50 28 -144 28
q-36 0 -61 -5q-85 -16 -144 -100q-55 -80 -55 -172q0 -23 4 -45zM330 168q0 23 16.5 38t38.5 15q24 0 39.5 -16t15.5 -39q0 -24 -16.5 -39t-39.5 -15t-38.5 16.5t-15.5 39.5z" />
    <glyph glyph-name="e" unicode="e" horiz-adv-x="482" 
d="M467 76q-44 -54 -79 -67q-27 -10 -108 -10q-108 0 -185 100q-73 93 -73 208q0 92 68 189q74 104 159 104t148 -56t63 -140q0 -69 -52 -133q-54 -67 -120 -67q-51 0 -79.5 28.5t-28.5 80.5q0 43 29 71t73 28q28 1 54 -31t26 -68q37 63 37 98q0 46 -47.5 85t-94.5 39
q-66 0 -122 -81q-51 -74 -51 -147q0 -89 55 -165q59 -81 141 -81q66 0 87 6q31 10 65 50zM315 313q0 19 -13 32t-32 13q-45 0 -45 -45q0 -46 45 -46q19 0 32 13t13 33z" />
    <glyph glyph-name="f" unicode="f" horiz-adv-x="241" 
d="M437 787q0 -45 -25.5 -74.5t-68.5 -29.5q-97 0 -97 97q0 32 21 62q-32 0 -77 -27q-25 -15 -32 -54q-2 -15 -2 -68v-291h60v-75h-60v-327l-74 1l-1 326h-68v75h68l1 291q0 207 203 207q64 0 103 -23q49 -29 49 -90zM393 782q0 22 -14 36.5t-36 14.5q-51 0 -51 -51t51 -51
q50 0 50 51z" />
    <glyph glyph-name="g" unicode="g" horiz-adv-x="433" 
d="M392 86q0 -41 -25 -64.5t-66 -23.5q-66 0 -97 52l-193 328l57 31l195 -326q12 -20 32 -20q25 0 25 28v308q-12 -7 -35 -7q-46 0 -75.5 30.5t-29.5 76.5q0 48 29 77t76 29q48 0 77.5 -30t29.5 -77v-412zM341 499q0 23 -16.5 37.5t-39.5 14.5q-21 0 -37 -15t-16 -37
q0 -23 15 -38.5t38 -15.5q24 0 40 15.5t16 38.5z" />
    <glyph glyph-name="h" unicode="h" horiz-adv-x="499" 
d="M461 0h-74v465q0 69 -43 69q-56 0 -136 -159q-58 -116 -86 -213q-25 -91 -25 -162h-75v686q-13 -5 -33 -5q-48 0 -79 31t-31 79q0 47 31 77.5t79 30.5q47 0 77.5 -31t30.5 -79v-501q65 145 95 192q76 121 156 121q54 0 85 -42q28 -38 28 -94v-465zM43 789q0 24 -15 39
t-39 15q-56 0 -56 -54q0 -24 16 -39.5t40 -15.5t39 15.5t15 39.5z" />
    <glyph glyph-name="i" unicode="i" horiz-adv-x="252" 
d="M339 673q-116 44 -237 44q-70 0 -125 -9q11 67 67 109q53 40 122 40q23 0 58 -16.5t50 -33.5v89h49v-167q9 -19 16 -56zM242 103q0 -45 -29 -74t-74 -29q-46 0 -75.5 28t-29.5 73v495q28 -1 71 0v-394q14 5 36 5q45 0 73 -29t28 -75zM283 722q-40 95 -127 95
q-34 0 -66 -17q-36 -18 -46 -48q27 4 78 4q114 0 161 -34zM191 104q0 22 -15 36.5t-37 14.5t-37.5 -14t-15.5 -37t15 -37.5t38 -14.5t37.5 14.5t14.5 37.5z" />
    <glyph glyph-name="j" unicode="j" horiz-adv-x="202" 
d="M176 722q0 -34 -21.5 -56t-55.5 -22t-56 22t-22 56t22.5 55.5t55.5 21.5q34 0 55.5 -21.5t21.5 -55.5zM136 -23q0 -102 -60.5 -154.5t-163.5 -52.5q-65 0 -108 23q-54 30 -54 90q0 44 30.5 74t73.5 30q47 0 77.5 -25.5t30.5 -71.5q0 -32 -22 -62q32 0 77 27t45 122v625
l74 -1v-624zM142 722q0 18 -12.5 30t-30.5 12q-43 0 -43 -42q0 -18 12.5 -30t30.5 -12q43 0 43 42zM-95 -112q0 51 -51 51q-50 0 -50 -51q0 -22 14.5 -36.5t35.5 -14.5q51 0 51 51z" />
    <glyph glyph-name="k" unicode="k" horiz-adv-x="425" 
d="M409 0h-81l-143 332l-66 -76v-256h-68v297q0 47 1 231v228q0 47 -7 62q-9 20 -42 28q-17 4 -38 3q61 -20 63 -86q1 -42 -34 -69.5t-78 -23.5q-41 5 -65 39.5t-22 79.5q3 43 53.5 78t108.5 35q130 -2 131 -141l2 -408l191 250h87l-164 -210zM-16 769q0 22 -15.5 37
t-37.5 15q-21 0 -36.5 -15t-15.5 -37t15 -37.5t37 -15.5t37.5 15.5t15.5 37.5z" />
    <glyph glyph-name="l" unicode="l" horiz-adv-x="264" 
d="M238 102q0 -45 -29 -74t-74 -29q-46 0 -75.5 28t-29.5 74v700q28 -2 71 0v-600q14 6 36 6q46 0 73.5 -29t27.5 -76zM187 104q0 22 -15 36t-37 14t-37.5 -14t-15.5 -36q0 -24 14.5 -38.5t38.5 -14.5q23 0 37.5 15t14.5 38z" />
    <glyph glyph-name="m" unicode="m" horiz-adv-x="1028" 
d="M978 1h-74v465q0 68 -43 68q-56 0 -136 -158q-58 -117 -86 -213q-25 -91 -25 -162q0 -21 -1 -2v27q0 12 0 -26h-74v465q0 69 -43 69q-56 0 -136 -159q-58 -116 -86 -213q-25 -91 -25 -162h-75v396q-13 -5 -33 -5q-48 0 -79 31t-31 79q0 47 31 77.5t79 30.5q47 0 77.5 -31
t30.5 -79v-211q65 145 95 192q76 121 156 121q54 0 85 -42q28 -38 28 -94v-106q1 -10 1 -70q65 145 95 192q76 121 156 121q54 0 85 -42q28 -38 28 -94v-465zM195 499q0 24 -15 39t-39 15q-56 0 -56 -54q0 -24 16 -39.5t40 -15.5t39 15.5t15 39.5z" />
    <glyph glyph-name="n" unicode="n" horiz-adv-x="644" 
d="M608 787q0 -105 -120 -105q29 40 29 63q0 40 -25 40q-18 0 -27 -19q-16 19 -36 19q-26 0 -26 -31q12 6 22 6q40 0 40 -42q0 -15 -12.5 -26.5t-27.5 -11.5q-25 0 -41 24q-13 21 -13 47q0 25 15 43t39 18q23 0 38 -17q11 17 35 17q46 0 46 -61q0 -23 -12 -43q46 22 46 69
q0 14 -3 26l29 11q4 -13 4 -27zM613 0h-70v465q0 71 -45 71q-58 0 -139 -160q-59 -118 -87 -215q-26 -90 -26 -161h-70v399q-16 -6 -37 -6q-47 0 -77.5 30t-30.5 77t30.5 76.5t77.5 29.5t77 -30.5t30 -76.5v-224q14 33 45 100q105 223 211 223q53 0 84 -41q27 -37 27 -92
v-465zM447 720q0 22 -22 22t-22 -22t22 -22t22 22zM197 499q0 25 -16 41t-42 16q-25 0 -41.5 -16t-16.5 -41t16.5 -41.5t41.5 -16.5q26 0 42 16t16 42z" />
    <glyph glyph-name="o" unicode="o" horiz-adv-x="499" 
d="M188 356q0 54 -54 54t-54 -53q0 -24 15 -39t39 -15q22 0 38 15.5t16 37.5zM278 8h-83q-63 0 -107 38q-47 40 -47 104v206q0 41 26.5 67t68.5 26q40 0 65.5 -25.5t25.5 -66.5t-25 -67t-66 -26q-9 0 -32 6v-120q0 -28 32 -58t59 -30h83q28 0 60 30t32 58v276q0 58 -43 91
q-39 29 -99 29q-91 0 -155 -101l-43 22q19 60 81 99q56 34 115 34q86 0 143 -43q64 -48 64 -131v-276q0 -63 -46 -102.5t-109 -39.5z" />
    <glyph glyph-name="p" unicode="p" horiz-adv-x="556" 
d="M515 320q-20 106 -102 190q-87 88 -184 88q-68 0 -124 -46q-59 -49 -59 -116q0 -45 29.5 -75.5t75.5 -30.5q45 0 77.5 28.5t32.5 73.5q0 68 -62 97q12 2 25 2q75 0 145 -77q62 -70 77 -147q3 -17 3 -36q0 -84 -55 -148q-62 -70 -155 -64q-63 5 -197 67v-325h74v225
q50 -28 143 -28q37 0 62 5q85 17 143 100q56 80 56 172q0 23 -5 45zM208 433q0 -23 -16.5 -38t-38.5 -15q-24 0 -39.5 16t-15.5 39q0 24 16 39t40 15q23 0 38.5 -16.5t15.5 -39.5z" />
    <glyph glyph-name="q" unicode="q" horiz-adv-x="519" 
d="M22 319q21 106 103 190q86 88 183 88q68 0 124 -46q59 -49 59 -116q0 -45 -29.5 -75.5t-75.5 -30.5q-45 0 -77.5 28.5t-32.5 73.5q0 69 63 97q-13 2 -25 2q-76 0 -145 -77q-63 -70 -78 -147q-3 -17 -3 -35q0 -84 55 -148q62 -71 155 -65q63 5 197 67q1 -3 1 -325h-75
l1 225q-50 -27 -144 -27q-37 0 -62 5q-85 16 -143 100q-55 79 -55 171q0 24 4 45zM330 432q0 -23 16 -38t39 -15t39 16t16 39q0 24 -16.5 39.5t-40.5 15.5q-23 0 -38 -17t-15 -40z" />
    <glyph glyph-name="r" unicode="r" horiz-adv-x="500" 
d="M487 464q-98 -15 -146 -25q-101 -20 -135 -40q-40 -22 -40 -106v-88q23 6 34 6q46 0 75.5 -30.5t29.5 -76.5q0 -45 -30.5 -75t-76.5 -30q-45 0 -74.5 29t-29.5 74v194q0 83 22 116q26 37 103 56q54 12 161 39q-5 15 -39 28q-30 12 -50 12q-35 0 -101 -26.5t-101 -26.5
q-36 0 -77 16l13 61q29 -14 60 -14q34 0 101 23.5t105 23.5q115 0 196 -140zM251 106q0 21 -15.5 36t-37.5 15q-53 0 -53 -51q0 -54 53 -54q23 0 38 15.5t15 38.5z" />
    <glyph glyph-name="s" unicode="s" horiz-adv-x="503" 
d="M476 168q0 -78 -68 -127q-61 -45 -142 -45q-232 0 -232 121q0 48 31 80t80 32q46 0 74.5 -27t28.5 -73q0 -36 -17 -61q175 0 175 100q0 34 -42 71q-105 44 -281 121q-14 7 -28 29q-16 27 -16 54q0 85 74 125q58 32 151 32q37 0 70 -4l42 117q17 -5 57 -19l-39 -108
q41 -10 73 -27v-77q-27 24 -97 37q-54 10 -107 10q-152 0 -154 -86q0 -25 149 -86q163 -66 187 -97q11 -15 21 -44t10 -48zM195 126q0 48 -48 48q-50 0 -50 -48q0 -21 14.5 -35.5t35.5 -14.5t34.5 14t13.5 36z" />
    <glyph glyph-name="t" unicode="t" horiz-adv-x="391" 
d="M358 102q0 -45 -29 -74t-74 -29q-46 0 -75.5 28t-29.5 74v700q28 -2 71 0v-600q14 6 36 6q46 0 73.5 -29t27.5 -76zM307 104q0 22 -15 36t-37 14t-37.5 -14t-15.5 -36q0 -24 15 -38.5t38 -14.5t37.5 15t14.5 38zM328 530h-297v72h297v-72z" />
    <glyph glyph-name="u" unicode="u" horiz-adv-x="637" 
d="M611 99q0 -47 -31 -77.5t-79 -30.5q-47 0 -77.5 31t-30.5 79v211q-65 -145 -95 -192q-76 -121 -156 -121q-54 0 -85 42q-28 38 -28 94v465h74v-465q0 -69 43 -69q56 0 136 159q58 116 86 213q25 91 25 162h75v-396q13 5 33 5q48 0 79 -31t31 -79zM557 101q0 24 -16 39.5
t-40 15.5t-39 -15.5t-15 -39.5t15 -39t39 -15q56 0 56 54z" />
    <glyph glyph-name="v" unicode="v" horiz-adv-x="517" 
d="M467 46q0 -47 -59 -48q-61 0 -73 50q-8 19 -129 380q-28 -31 -68 -31q-38 0 -69 27q-34 30 -34 72q0 46 28.5 75t74.5 29q32 0 63 -20t43 -54l149 -436v508h74v-552zM190 496q0 53 -52 53q-23 0 -37.5 -15t-14.5 -38q0 -22 15 -37t37 -15q23 0 37.5 14.5t14.5 37.5z" />
    <glyph glyph-name="w" unicode="w" horiz-adv-x="975" 
d="M12 600h75v-465q0 -68 42 -68q57 0 136 158q58 117 86 213q26 91 26 162q0 21 0 2v-27q0 -12 0 26h75v-465q0 -68 42 -68q57 0 136 158q58 116 86 213q26 91 26 162h74v-396q13 5 34 5q47 0 78 -31t31 -79q0 -47 -31 -77.5t-78 -30.5q-48 0 -78 31t-30 79v211
q-65 -145 -95 -192q-76 -121 -156 -121q-55 0 -86 42q-27 38 -28 94v106v70q-65 -145 -95 -192q-76 -120 -156 -120q-55 0 -86 41q-28 38 -28 94v465zM795 102q0 -24 15 -39t40 -15q55 0 55 54q0 24 -15.5 39.5t-39.5 15.5t-39.5 -15.5t-15.5 -39.5z" />
    <glyph glyph-name="x" unicode="x" horiz-adv-x="424" 
d="M438 831q-19 -66 -87.5 -111t-140.5 -45q-64 0 -114 20q-69 28 -69 83q0 39 20.5 64.5t59.5 25.5q35 0 59 -22t24 -56q0 -35 -26 -60q34 -6 49 -6q59 0 110.5 37t67.5 94zM395 173q0 -69 -31 -117q-36 -53 -99 -53q-45 0 -73.5 28.5t-28.5 73.5t28.5 73t73.5 28
q56 0 76 -33q0 53 -42 81q-37 26 -90 22q-52 -3 -85 -40.5t-33 -91.5v-144h-65v144q0 56 19 98q23 53 71 67q-91 30 -91 121q0 69 31 116q36 54 99 54q45 0 74 -29t29 -74t-29 -72.5t-74 -27.5q-55 0 -76 33q0 -96 130 -90q51 3 85.5 35t34.5 84l1 141h64v-141
q0 -123 -89 -151q90 -29 90 -135zM146 788q0 41 -39 41q-40 0 -40 -41q0 -39 40 -39q39 0 39 39zM205 499q0 50 -50 50t-50 -50q0 -22 14.5 -36.5t35.5 -14.5q50 0 50 51zM315 104q0 21 -14.5 35.5t-35.5 14.5q-50 0 -50 -50t50 -50t50 50z" />
    <glyph glyph-name="y" unicode="y" horiz-adv-x="542" 
d="M490 196q0 -96 -69 -149q-62 -48 -161 -48q-69 0 -133 30q-70 32 -103 88l47 36q69 -96 185 -96q69 0 113 34q48 38 48 105v202q-45 -106 -83 -153q-62 -77 -147 -77q-70 0 -104 74q-27 57 -27 134q0 107 14 151q26 84 107 84q47 0 76 -29.5t29 -77.5q0 -46 -29.5 -76
t-75.5 -30q-29 0 -51 15q-3 -32 -3 -55q0 -47 13 -81q20 -48 61 -48q74 0 151 152q69 136 69 220h73v-405zM230 506q0 23 -15 38.5t-38 15.5q-24 0 -39 -15.5t-15 -38.5q0 -54 54 -54q23 0 38 15t15 39z" />
    <glyph glyph-name="z" unicode="z" horiz-adv-x="502" 
d="M481 0h-437q0 51 9.5 70t21.5 37l257 420h-90q6 -16 6 -31q0 -47 -29 -76t-76 -29q-46 0 -74 29t-28 76q0 46 29 74.5t75 28.5h336v-72q-69 0 -90 -35l-231 -388q-6 -9 -6 -17q0 -15 14 -15h313v-72zM198 496q0 21 -15.5 36.5t-37.5 15.5t-37 -15t-15 -37
q0 -24 14.5 -39.5t37.5 -15.5t38 16t15 39z" />
    <glyph glyph-name="braceleft" unicode="{" horiz-adv-x="276" 
d="M296 -288l-99 2q-32 1 -71 48t-39 116v232q0 83 -15 121q-23 58 -92 70v95q70 15 92 72q15 37 15 123v229q0 70 39 116.5t71 48.5l99 4v-90q-27 -2 -54 -5q-34 -5 -44 -24.5t-10 -62.5v-241q0 -72 -22 -122t-77 -95q99 -68 99 -216v-239q0 -46 10 -65t45 -25q26 -2 53 -4
v-88z" />
    <glyph glyph-name="bar" unicode="|" horiz-adv-x="195" 
d="M141 -290h-82v1275h82v-1275z" />
    <glyph glyph-name="braceright" unicode="}" horiz-adv-x="397" 
d="M361 301q-69 -12 -92 -69q-15 -37 -15 -122v-232q0 -89 -62 -141q-28 -23 -48 -23l-99 -2v88l61 6q47 6 47 88v239q0 92 35 144t64 72q-99 93 -99 217v241q0 43 -10 62.5t-44 24.5q-27 3 -54 5v90l99 -4q21 -1 48 -23q62 -52 62 -142v-229q0 -86 15 -123q23 -57 92 -72
v-95z" />
    <glyph glyph-name="asciitilde" unicode="~" horiz-adv-x="668" 
d="M628 557q0 -75 -32 -130q-39 -66 -110 -66q-55 0 -106 33l-145 92q-32 21 -47 21q-37 0 -56 -40q-15 -32 -15 -73h-73q3 82 32 133q38 66 112 66q39 0 71 -19l178 -105q26 -16 54 -16q41 0 57 33q10 23 10 71h70z" />
    <glyph glyph-name="exclamdown" unicode="&#xa1;" horiz-adv-x="208" 
d="M172 632q0 -26 -18 -43.5t-44 -17.5t-43.5 17.5t-17.5 43.5t17.5 44t43.5 18q27 0 44.5 -18t17.5 -44zM166 107q0 -116 -57 -116q-56 0 -56 122q0 235 50 360h13q50 -169 50 -366z" />
    <glyph glyph-name="cent" unicode="&#xa2;" horiz-adv-x="456" 
d="M438 627l-63 -169q18 -4 32 -14v-97q-30 18 -63 30l-106 -285q29 -6 52 -6q63 0 125 31v-91q-55 -24 -137 -24q-30 0 -70 10l-70 -188h-54l75 200q-127 67 -127 208q0 108 74 176q71 66 180 66q20 0 40 -3l58 156h54zM294 387q-6 1 -21 1q-65 0 -105.5 -46t-40.5 -112
q0 -75 63 -122z" />
    <glyph glyph-name="sterling" unicode="&#xa3;" horiz-adv-x="458" 
d="M457 598q-32 8 -57 8q-131 0 -187 -225h73v-88h-103l-50 -191q28 2 54 2q28 0 82.5 -9.5t82.5 -9.5q33 0 93 19v-97q-62 -16 -103 -16q-31 0 -93 9t-94 9q-53 0 -150 -15l79 299h-66v88h96q90 315 247 315q24 0 49 -6z" />
    <glyph glyph-name="currency" unicode="&#xa4;" horiz-adv-x="596" 
d="M570 209l-40 -40l-99 100q-57 -42 -124 -42q-70 0 -125 42l-101 -100l-40 40l101 100q-41 51 -41 123q0 69 41 123l-101 101l40 39l101 -100q55 42 124 42q68 0 125 -42l99 100l40 -39l-100 -101q40 -54 40 -123q0 -71 -40 -123zM454 433q0 61 -43 104.5t-104 43.5
q-62 0 -105.5 -43t-43.5 -105t43.5 -105.5t105.5 -43.5q61 0 104 43.5t43 105.5z" />
    <glyph glyph-name="yen" unicode="&#xa5;" horiz-adv-x="576" 
d="M594 683l-148 -195h97v-54h-138l-61 -81h199v-53h-213v-300h-95v300h-212v53h204l-60 81h-144v53h105l-147 196h107l197 -267l199 267h110z" />
    <glyph glyph-name="brokenbar" unicode="&#xa6;" horiz-adv-x="182" 
d="M129 329h-73v370h73v-370zM129 -171h-73v370h73v-370z" />
    <glyph glyph-name="section" unicode="&#xa7;" horiz-adv-x="500" 
d="M463 281q0 -90 -106 -133q62 -43 62 -111q0 -71 -53 -108q-46 -32 -120 -32q-84 0 -160 42v90q88 -55 160 -55q80 0 80 58q0 38 -74 81q-69 40 -139 79q-74 54 -74 119q0 90 105 134q-61 41 -61 110q0 70 53 107q47 33 120 33q84 0 149 -36v-88q-82 47 -144 47
q-83 0 -83 -60q0 -41 119 -102q85 -43 111 -65q55 -46 55 -110zM371 272q0 49 -67 84l-99 52q-74 -33 -74 -87q0 -50 68 -85l99 -51q73 32 73 87z" />
    <glyph glyph-name="dieresis" unicode="&#xa8;" horiz-adv-x="397" 
d="M342 590q0 -21 -14.5 -35t-35.5 -14q-20 0 -33.5 14.5t-13.5 34.5t14 34.5t33 14.5q20 0 35 -15t15 -34zM156 590q0 -21 -14.5 -35t-34.5 -14q-21 0 -34.5 14t-13.5 35q0 20 14 34.5t34 14.5q19 0 34 -15t15 -34z" />
    <glyph glyph-name="copyright" unicode="&#xa9;" horiz-adv-x="7826" 
d="M7836 207h-301q0 -74 34 -121q39 -52 111 -52q74 0 148 56v-47q-71 -52 -146 -52q-88 0 -141 61q-51 57 -51 147q0 85 46 138q50 57 133 57q77 0 122 -53.5t45 -130.5v-3zM7404 0h-41v28q-47 -34 -109 -34q-86 0 -137 55.5t-51 143.5t50.5 144.5t137.5 56.5q62 0 109 -35
v225h41v-584zM6961 0h-55v86h55v-86zM6825 9q-35 -18 -71 -18q-52 0 -71 28q-17 23 -17 77v255h-81v34h83v90l32 36h11v-126h103v-34h-103v-257q0 -33 8 -46q10 -18 41 -18q22 0 65 21v-42zM6542 0h-40v28q-48 -34 -110 -34q-86 0 -137 55.5t-51 143.5t50.5 144.5
t137.5 56.5q62 0 110 -35v225h40v-584zM6127 0h-43v214q0 139 -98 139q-85 0 -128 -81v-272h-43v385h43v-60q55 69 132 69q70 0 105 -46q32 -41 32 -113v-235zM5759 28q-43 -37 -62 -37q-33 0 -38 47q-59 -47 -118 -47q-45 0 -76 27t-31 72q0 75 79 112q59 29 146 31v41
q0 83 -86 83q-46 0 -120 -47v41q67 43 122 43q68 0 97.5 -31.5t29.5 -99.5v-201q0 -26 12 -26q16 0 45 30v-38zM5406 349h-83q47 -47 47 -101q0 -71 -57 -107q-23 -14 -106 -40q-57 -18 -57 -43q0 -26 65 -35q100 -13 122 -20q65 -24 65 -86q0 -112 -175 -112
q-167 0 -167 103q0 41 33 66q28 22 72 28q-54 13 -54 54q0 44 69 64q-97 38 -97 128q0 46 32 85.5t77 47.5q24 4 69 4h145v-36zM5051 385l-284 -580h-43l133 270l-163 310h47l137 -261l128 261h45zM4658 207h-302q0 -74 35 -121q38 -52 111 -52q74 0 147 56v-47
q-71 -52 -145 -52q-89 0 -142 61q-51 57 -51 147q0 85 47 138q49 57 133 57q76 0 123 -55q44 -52 44 -129v-3zM4341 584l-218 -595h-9l-179 492l-180 -492h-9l-222 595h51l176 -486l173 486h17l178 -486l173 486h49zM3485 325q0 -107 -59 -185q-66 -87 -169 -87
q-44 0 -62.5 17t-17.5 60q-41 -77 -119 -77q-133 0 -133 135q0 88 51 156q56 73 142 73q81 0 107 -70l25 53h34l-57 -231q-9 -34 -9 -45q0 -38 49 -38q80 0 132 80q46 71 46 155q0 122 -92 191q-83 61 -210 61q-159 0 -263.5 -100t-104.5 -259q0 -145 100 -225
q92 -75 240 -75q147 0 259 80l13 -20q-122 -90 -269 -90q-85 0 -144 18q-112 32 -176.5 116.5t-64.5 199.5q0 173 122 282q118 105 293 105q135 0 231 -71q106 -78 106 -209zM2653 103q0 -55 -36 -83.5t-92 -28.5q-57 0 -111 35v45q57 -39 115 -39q80 0 80 66q0 38 -51 61
q-47 20 -94 41q-50 31 -50 89q0 51 35 78t87 27q47 0 105 -33v-44q-58 38 -107 38q-31 0 -55 -18t-24 -48q0 -37 51 -61l96 -42q51 -31 51 -83zM2380 28q-44 -37 -62 -37q-34 0 -39 47q-58 -47 -118 -47q-45 0 -75.5 27t-30.5 72q0 75 79 112q59 29 145 31v41q0 83 -85 83
q-47 0 -120 -47v41q67 43 122 43q67 0 96.5 -31.5t29.5 -99.5v-201q0 -26 13 -26q16 0 45 30v-38zM1999 207h-302q0 -74 35 -121q39 -52 111 -52q74 0 147 56v-47q-70 -52 -145 -52q-88 0 -142 61q-51 57 -51 147q0 85 47 138q49 57 133 57q76 0 123 -55q44 -52 44 -129v-3z
M1635 364l-21 -41q-41 28 -60 28q-32 0 -66 -40q-15 -17 -47 -67v-244h-43v385h43v-94q66 103 126 103q38 0 68 -30zM1284 0h-40v28q-48 -34 -109 -34q-87 0 -137.5 55.5t-50.5 143.5t50.5 144.5t137.5 56.5q61 0 109 -35v225h40v-584zM870 0h-43v214q0 139 -99 139
q-84 0 -128 -81v-272h-43v385h43v-60q56 69 133 69q69 0 105 -46q32 -41 32 -113v-235zM529 0h-49l-87 203h-257l-86 -203h-49l255 590h19zM7785 244q-6 49 -38.5 81t-81.5 32q-47 0 -82.5 -33t-41.5 -80h244zM7363 75v237q-42 43 -104 43q-69 0 -109 -47q-37 -43 -37 -113
t38 -115q40 -48 108 -48q62 0 104 43zM6502 75v237q-43 43 -105 43q-69 0 -107.5 -45t-38.5 -115t38 -115q40 -48 108 -48q62 0 105 43zM5659 77v122q-180 -7 -180 -107q0 -64 75 -64q49 0 105 49zM5327 248q0 45 -28 73t-72 28q-41 0 -71 -30t-30 -71q0 -42 29.5 -70
t71.5 -28q44 0 72 27t28 71zM5361 -86q0 67 -130 67q-131 0 -131 -75q0 -66 127 -66q134 0 134 74zM4606 244q-6 49 -38.5 81t-80.5 32t-83 -33t-42 -80h244zM3216 302q-19 83 -96 83q-72 0 -114 -66q-36 -56 -36 -133q0 -45 23 -74t67 -29q79 0 115 75q14 27 41 144z
M2279 77v122q-180 -7 -180 -107q0 -64 75 -64q50 0 105 49zM1948 244q-7 49 -39 81t-81 32q-47 0 -82.5 -33t-41.5 -80h244zM1244 75v237q-43 43 -105 43q-69 0 -107 -45t-38 -115t37 -115q40 -48 108 -48q62 0 105 43zM378 244l-114 265l-111 -265h225z" />
    <glyph glyph-name="ordfeminine" unicode="&#xaa;" horiz-adv-x="369" 
d="M343 390q-39 -29 -76 -29q-38 0 -40 32q-48 -32 -99 -32q-40 0 -66 17q-30 21 -30 60q0 53 75 88q13 6 117 38q1 7 1 14q0 53 -64 53q-58 0 -118 -44v62q51 40 127 40q124 0 124 -113v-134q0 -31 14 -31q12 0 35 18v-39zM224 431v93q-120 -34 -120 -76q0 -40 51 -40
q38 0 69 23z" />
    <glyph glyph-name="guillemotleft" unicode="&#xab;" horiz-adv-x="451" 
d="M408 79h-77l-118 147l118 155h77l-115 -155zM239 79h-77l-117 147l117 155h77l-115 -155z" />
    <glyph glyph-name="logicalnot" unicode="&#xac;" horiz-adv-x="706" 
d="M651 175h-67v177h-518v68h585v-245z" />
    <glyph glyph-name="minus" unicode="&#xad;" horiz-adv-x="732" 
d="M662 264h-585v69h585v-69z" />
    <glyph glyph-name="minus" unicode="&#x2212;" horiz-adv-x="732" 
d="M662 264h-585v69h585v-69z" />
    <glyph glyph-name="registered" unicode="&#xae;" horiz-adv-x="795" 
d="M754 355q0 -149 -106 -254.5t-255 -105.5q-147 0 -253 106.5t-106 253.5q0 149 105.5 254.5t253.5 105.5q150 0 255.5 -105t105.5 -255zM706 352q0 133 -89.5 224.5t-222.5 91.5q-129 0 -221 -92t-92 -221q0 -126 92 -219t218 -93q130 0 222.5 90t92.5 219zM573 454
q0 -91 -93 -110l91 -186h-86l-83 174h-76v-174h-77v408h154q170 0 170 -112zM494 446q0 70 -105 70h-63v-135h65q103 0 103 65z" />
    <glyph glyph-name="overscore.001" unicode="&#xaf;" 
 />
    <glyph glyph-name="degree" unicode="&#xb0;" horiz-adv-x="377" 
d="M329 570q0 -59 -41 -99.5t-100 -40.5q-60 0 -100 40.5t-40 99.5t41 100t100 41q58 0 99 -41.5t41 -99.5zM282 571q0 40 -27 67t-66 27q-40 0 -68 -27t-28 -67t28 -68t68 -28q39 0 66 28t27 68z" />
    <glyph glyph-name="plusminus" unicode="&#xb1;" horiz-adv-x="609" 
d="M598 348h-258v-166h-69v166h-258v68h258v166h69v-166h258v-68zM598 14h-585v69h585v-69z" />
    <glyph glyph-name="twosuperior" unicode="&#xb2;" horiz-adv-x="311" 
d="M300 273h-287q57 69 114 137q77 98 77 149q0 35 -21.5 55t-56.5 20q-47 0 -101 -51v70q53 37 110 37q58 0 95.5 -33.5t37.5 -90.5q0 -56 -49 -127q-27 -39 -89 -107h170v-59z" />
    <glyph glyph-name="threesuperior" unicode="&#xb3;" horiz-adv-x="335" 
d="M287 394q0 -60 -44 -95q-40 -33 -101 -33q-47 0 -95 24v62q51 -25 97 -25q32 0 52.5 17t20.5 48q0 63 -95 68v52q92 0 92 65q0 30 -28 47q-23 13 -55 13q-25 0 -77 -19v53q49 19 88 19q55 0 92 -25q43 -30 43 -83q0 -58 -54 -90q64 -28 64 -98z" />
    <glyph glyph-name="acute" unicode="&#xb4;" horiz-adv-x="267" 
d="M223 685l-137 -170h-52l102 170h87z" />
    <glyph glyph-name="mu1" unicode="&#xb5;" 
 />
    <glyph glyph-name="paragraph" unicode="&#xb6;" horiz-adv-x="436" 
d="M437 680h-59v-680h-54v680h-86v-680h-55v382q-79 4 -129 46q-53 46 -53 124q0 81 57 127q52 43 135 43h244v-42z" />
    <glyph glyph-name="middot.001" unicode="&#xb7;" 
 />
    <glyph glyph-name="cedilla" unicode="&#xb8;" horiz-adv-x="214" 
d="M230 -138q0 -89 -122 -89q-45 0 -123 20v43q80 -18 122 -18q59 0 59 41q0 49 -67 49q-11 0 -26 -2l-1 94h36v-52q122 0 122 -86z" />
    <glyph glyph-name="onesuperior" unicode="&#xb9;" horiz-adv-x="179" 
d="M125 273h-64v410h64v-410z" />
    <glyph glyph-name="ordmasculine" unicode="&#xba;" horiz-adv-x="432" 
d="M404 525q0 -71 -53.5 -117.5t-125.5 -46.5t-126 46t-54 118t55 120q52 45 125 45q71 0 125 -47.5t54 -117.5zM333 525q0 44 -32 75t-77 31q-44 0 -76 -30.5t-32 -75.5t31.5 -75.5t76.5 -30.5t77 31t32 75z" />
    <glyph glyph-name="guillemotright" unicode="&#xbb;" horiz-adv-x="451" 
d="M409 226l-118 -147h-76l115 147l-115 155h76zM241 226l-118 -147h-77l115 147l-115 155h77z" />
    <glyph glyph-name="onequarter" unicode="&#xbc;" horiz-adv-x="710" 
d="M685 128h-48v-128h-59v128h-184v23l217 238h26v-216h48v-45zM552 694l-426 -706h-74l426 706h74zM90 300h-61v382h61v-382zM580 288l-104 -115h102z" />
    <glyph glyph-name="onehalf" unicode="&#xbd;" horiz-adv-x="672" 
d="M671 0h-275q34 43 77 92q49 55 67 81q39 54 39 94q0 32 -21 51t-53 19q-45 0 -96 -47v65q52 34 104 34q55 0 91.5 -31t36.5 -85q0 -52 -48 -118q-26 -37 -85 -100h163v-55zM537 694l-425 -706h-75l427 706h73zM76 300h-61v382h61v-382z" />
    <glyph glyph-name="threequarters" unicode="&#xbe;" horiz-adv-x="795" 
d="M770 128h-48v-128h-59v128h-184v23l217 238h26v-216h48v-45zM637 694l-426 -706h-74l426 706h74zM257 413q0 -57 -40.5 -88.5t-98.5 -31.5q-44 0 -90 23v58q51 -24 92 -24q71 0 71 61q0 58 -91 64v48q34 0 58 13q29 16 29 47q0 29 -26 44q-22 12 -53 12q-25 0 -72 -17v49
q42 18 83 18q53 0 88 -23q40 -28 40 -78q0 -55 -51 -84q61 -24 61 -91zM665 288l-104 -115h102z" />
    <glyph glyph-name="questiondown" unicode="&#xbf;" 
d="M247 634q0 -26 -17.5 -43.5t-43.5 -17.5q-25 0 -43 17.5t-18 43.5q0 25 18 42.5t43 17.5q26 0 43.5 -17.5t17.5 -42.5zM301 123l-19 -106q-49 -27 -105 -27q-65 0 -106.5 43t-41.5 108q0 60 41 123q3 4 76 97q41 52 41 86q0 14 -6 31l23 10q40 -41 40 -91q0 -48 -53 -129
t-53 -117q0 -29 17.5 -46.5t46.5 -17.5q38 0 99 36z" />
    <glyph glyph-name="Agrave" unicode="&#xc0;" horiz-adv-x="742" 
d="M664 0h-92v486h-45q-19 1 -45 1q-124 0 -137 -9q-48 -35 -48 -150q0 -25 2.5 -76.5t2.5 -77.5q0 -89 -25 -131q-33 -56 -117 -56q-61 0 -99.5 39t-38.5 101q0 61 38.5 99t99.5 38q29 0 45 -10q0 15 -1 43v41q0 72 18 110q25 51 93 76q-12 10 -90 32t-101 24q17 24 58 58
q52 42 63 54q57 57 79 73q49 35 103 35q91 0 166 -100q71 -94 71 -191v-509zM575 573q-12 35 -59 88q-50 56 -76 56q-49 0 -97 -40q-39 -38 -77 -75q32 -14 73 -28q52 -3 236 -1zM231 127q0 30 -20.5 48.5t-50.5 18.5q-28 0 -49.5 -19.5t-21.5 -47.5q0 -30 20.5 -50.5
t50.5 -20.5q32 0 51.5 19.5t19.5 51.5zM489 926q0 -61 -64 -61q-19 0 -32.5 14t-13.5 33q0 20 13 33t33 13q28 0 36 -21q-5 24 -19.5 30.5t-55 10.5t-57.5 13q-26 13 -26 47h31q0 -28 40 -34q72 -10 75 -11q40 -15 40 -67zM446 913q0 21 -21 21q-22 0 -22 -21t22 -21
q21 0 21 21z" />
    <glyph glyph-name="Aacute" unicode="&#xc1;" horiz-adv-x="699" 
d="M685 907q0 -52 -40 -67q-3 -1 -75 -11q-40 -6 -40 -34h-31q0 34 26 47q17 9 57.5 13t55 10.5t19.5 30.5q-8 -21 -36 -21q-20 0 -33 13t-13 33q0 19 13.5 33t32.5 14q64 0 64 -61zM642 920q0 21 -21 21q-22 0 -22 -21t22 -21q21 0 21 21zM661 0h-92v486h-45q-19 1 -45 1
q-124 0 -137 -9q-48 -35 -48 -150q0 -25 2.5 -76.5t2.5 -77.5q0 -89 -25 -131q-33 -56 -117 -56q-61 0 -99.5 39t-38.5 101q0 61 38.5 99t99.5 38q29 0 45 -10q0 15 -1 43v41q0 72 18 110q25 51 93 76q-12 10 -90 32t-101 24q17 24 58 58q52 42 63 54q57 57 79 73
q49 35 103 35q91 0 166 -100q71 -94 71 -191v-509zM572 573q-12 35 -59 88q-50 56 -76 56q-49 0 -97 -40q-39 -38 -77 -75q32 -14 73 -28q52 -3 236 -1zM228 127q0 30 -20.5 48.5t-50.5 18.5q-28 0 -49.5 -19.5t-21.5 -47.5q0 -30 20.5 -50.5t50.5 -20.5q32 0 51.5 19.5
t19.5 51.5z" />
    <glyph glyph-name="Acircumflex" unicode="&#xc2;" horiz-adv-x="742" 
d="M664 0h-92v486h-45q-19 1 -45 1q-124 0 -137 -9q-48 -35 -48 -150q0 -25 2.5 -76.5t2.5 -77.5q0 -89 -25 -131q-33 -56 -117 -56q-61 0 -99.5 39t-38.5 101q0 61 38.5 99t99.5 38q29 0 45 -10q0 15 -1 43v41q0 72 18 110q25 51 93 76q-12 10 -90 32t-101 24q17 24 58 58
q52 42 63 54q57 57 79 73q49 35 103 35q91 0 166 -100q71 -94 71 -191v-509zM575 573q-12 35 -59 88q-50 56 -76 56q-49 0 -97 -40q-39 -38 -77 -75q32 -14 73 -28q52 -3 236 -1zM231 127q0 30 -20.5 48.5t-50.5 18.5q-28 0 -49.5 -19.5t-21.5 -47.5q0 -30 20.5 -50.5
t50.5 -20.5q32 0 51.5 19.5t19.5 51.5zM568 830h-52l-87 118l-88 -118h-52l96 170h87z" />
    <glyph glyph-name="Atilde" unicode="&#xc3;" horiz-adv-x="743" 
d="M665 0h-92v486h-45q-19 1 -45 1q-124 0 -137 -9q-48 -35 -48 -150q0 -25 2.5 -76.5t2.5 -77.5q0 -89 -25 -131q-33 -56 -117 -56q-61 0 -99.5 39t-38.5 101q0 61 38.5 99t99.5 38q29 0 45 -10q0 15 -1 43v41q0 72 18 110q25 51 93 76q-12 10 -90 32t-101 24q17 24 58 58
q52 42 63 54q57 57 79 73q49 35 103 35q91 0 166 -100q71 -94 71 -191v-509zM576 573q-12 35 -59 88q-50 56 -76 56q-49 0 -97 -40q-39 -38 -77 -75q32 -14 73 -28q52 -3 236 -1zM232 127q0 30 -20.5 48.5t-50.5 18.5q-28 0 -49.5 -19.5t-21.5 -47.5q0 -30 20.5 -50.5
t50.5 -20.5q32 0 51.5 19.5t19.5 51.5zM573 957q-24 -94 -97 -94q-17 0 -48.5 11t-48.5 11q-33 0 -47 -31h-43q22 91 97 91q17 0 48.5 -11.5t48.5 -11.5q34 0 47 35h43z" />
    <glyph glyph-name="Adieresis" unicode="&#xc4;" horiz-adv-x="678" 
d="M599 0h-92v486h-45q-18 1 -45 1q-124 0 -137 -9q-48 -35 -48 -150q0 -25 2.5 -76.5t2.5 -77.5q0 -89 -25 -131q-33 -56 -117 -56q-61 0 -99 39t-38 101q0 61 38 99t99 38q30 0 45 -10v43q-1 28 -1 41q0 72 18 110q25 51 93 76q-12 10 -90 32t-101 24q17 24 58 58
q52 42 63 54q58 57 79 73q49 35 103 35q91 0 166 -100q71 -94 71 -191v-509zM510 573q-11 35 -60 89.5t-74 54.5q-50 0 -97 -40q-39 -38 -78 -75q32 -14 73 -28q52 -3 236 -1zM167 127q0 30 -21 48.5t-51 18.5q-28 0 -49 -19.5t-21 -47.5q0 -30 20 -50.5t50 -20.5
q32 0 52 19.5t20 51.5zM693 1032q0 -65 -38.5 -98.5t-104.5 -33.5q-42 0 -69 15q-35 19 -35 57q0 28 19.5 47.5t47.5 19.5q30 0 49.5 -16.5t19.5 -45.5q0 -21 -14 -40q22 0 50 18t28 77h47zM332 1032q0 -65 -38.5 -98.5t-104.5 -33.5q-42 0 -69 15q-35 19 -35 57
q0 28 19.5 47.5t47.5 19.5q29 0 48.5 -16.5t19.5 -45.5q0 -21 -13 -40q22 0 50 18t28 77h47zM545 975q0 33 -32 33t-32 -33q0 -32 32 -32t32 32zM184 975q0 33 -32 33t-32 -33q0 -32 32 -32t32 32z" />
    <glyph glyph-name="Aring" unicode="&#xc5;" horiz-adv-x="614" 
d="M431 836q0 -51 -35.5 -86t-86.5 -35q-52 0 -86.5 35t-34.5 86q0 52 34.5 86.5t86.5 34.5q51 0 86.5 -35t35.5 -86zM645 0h-101l-88 201h-291l-87 -201h-100l296 683h71zM379 836q0 29 -20 49.5t-49 20.5q-30 0 -50 -20t-20 -50q0 -29 20 -49.5t50 -20.5q29 0 49 20.5
t20 49.5zM416 289l-108 246l-105 -246h213z" />
    <glyph glyph-name="AE" unicode="&#xc6;" horiz-adv-x="957" 
d="M946 0h-426v197h-270l-131 -197h-106l453 683h471v-88h-317v-206h307v-88h-307v-213h326v-88zM520 289v306h-5l-202 -306h207z" />
    <glyph glyph-name="Ccedilla" unicode="&#xc7;" horiz-adv-x="768" 
d="M657 608q0 -56 -40.5 -94.5t-96.5 -38.5q-62 0 -100.5 38t-38.5 99q0 67 42 97q-92 0 -187 -100t-95 -193q0 -104 77 -212q80 -113 167 -113q36 0 113 27q74 27 107 49q2 -39 12 -90q-40 -26 -126 -54q-91 -29 -140 -29q-14 0 -22 2q-117 34 -204 167q-83 126 -83 253
q0 142 125 265t266 123q84 0 152 -55q72 -58 72 -141zM581 610q0 27 -17.5 45t-43.5 18q-27 0 -44 -18t-17 -45q0 -26 17.5 -43t43.5 -17q25 0 43 17.5t18 42.5zM377 -138q0 -89 -122 -89q-45 0 -123 20v43q80 -18 122 -18q59 0 59 41q0 49 -67 49q-11 0 -26 -2l-1 94h36
v-52q122 0 122 -86z" />
    <glyph glyph-name="Egrave" unicode="&#xc8;" horiz-adv-x="601" 
d="M594 53q-101 -54 -272 -54q-115 0 -202 61q-98 69 -98 185q0 50 37 100t79 51q-116 48 -116 183q0 104 85 168q78 57 185 57q300 0 300 -161q0 -67 -37 -109t-101 -42q-62 0 -100 36.5t-38 97.5q0 48 24 82q-100 0 -153 -21q-82 -31 -82 -113q0 -63 45 -100
q41 -35 106 -35h93v-99h-93q-151 0 -151 -95q0 -69 80 -114q66 -38 136 -38q71 0 143 14q93 17 130 49v-103zM519 631q0 28 -19.5 47t-47.5 19q-29 0 -47 -19t-18 -47q0 -30 17.5 -47.5t47.5 -17.5t48.5 17.5t18.5 47.5zM398 928q0 -61 -64 -61q-19 0 -32.5 14t-13.5 33
q0 20 13 33t33 13q28 0 36 -21q-5 24 -19.5 30.5t-55 10.5t-57.5 13q-26 13 -26 47h31q0 -28 40 -34q72 -10 75 -11q40 -15 40 -67zM355 915q0 21 -21 21q-22 0 -22 -21t22 -21q21 0 21 21z" />
    <glyph glyph-name="Eacute" unicode="&#xc9;" horiz-adv-x="613" 
d="M469 958q0 -51 -42 -64q-3 -2 -78 -12q-42 -5 -42 -32h-32q0 32 27 45q18 8 60 12.5t57 10t21 29.5q-9 -21 -38 -21q-21 0 -34.5 13t-13.5 32q0 18 14.5 31.5t33.5 13.5q67 0 67 -58zM424 970q0 20 -22 20q-23 0 -23 -20q0 -21 23 -21q22 0 22 21zM594 53
q-101 -54 -272 -54q-115 0 -202 61q-98 69 -98 185q0 50 37 100t79 51q-116 48 -116 183q0 104 85 168q78 57 185 57q300 0 300 -161q0 -67 -37 -109t-101 -42q-62 0 -100 36.5t-38 97.5q0 48 24 82q-100 0 -153 -21q-82 -31 -82 -113q0 -63 45 -100q41 -35 106 -35h93v-99
h-93q-151 0 -151 -95q0 -69 80 -114q66 -38 136 -38q71 0 143 14q93 17 130 49v-103zM519 631q0 28 -19.5 47t-47.5 19q-29 0 -47 -19t-18 -47q0 -30 17.5 -47.5t47.5 -17.5t48.5 17.5t18.5 47.5z" />
    <glyph glyph-name="Ecircumflex" unicode="&#xca;" horiz-adv-x="613" 
d="M594 53q-101 -54 -272 -54q-115 0 -202 61q-98 69 -98 185q0 50 37 100t79 51q-116 48 -116 183q0 104 85 168q78 57 185 57q300 0 300 -161q0 -67 -37 -109t-101 -42q-62 0 -100 36.5t-38 97.5q0 48 24 82q-100 0 -153 -21q-82 -31 -82 -113q0 -63 45 -100
q41 -35 106 -35h93v-99h-93q-151 0 -151 -95q0 -69 80 -114q66 -38 136 -38q71 0 143 14q93 17 130 49v-103zM519 631q0 28 -19.5 47t-47.5 19q-29 0 -47 -19t-18 -47q0 -30 17.5 -47.5t47.5 -17.5t48.5 17.5t18.5 47.5zM477 855h-52l-87 118l-88 -118h-52l96 170h87z" />
    <glyph glyph-name="Edieresis" unicode="&#xcb;" horiz-adv-x="616" 
d="M594 53q-101 -54 -272 -54q-115 0 -202 61q-98 69 -98 185q0 50 37 100t79 51q-116 48 -116 183q0 104 85 168q78 57 185 57q300 0 300 -161q0 -67 -37 -109t-101 -42q-62 0 -100 36.5t-38 97.5q0 48 24 82q-100 0 -153 -21q-82 -31 -82 -113q0 -63 45 -100
q41 -35 106 -35h93v-99h-93q-151 0 -151 -95q0 -69 80 -114q66 -38 136 -38q71 0 143 14q93 17 130 49v-103zM519 631q0 28 -19.5 47t-47.5 19q-29 0 -47 -19t-18 -47q0 -30 17.5 -47.5t47.5 -17.5t48.5 17.5t18.5 47.5zM372 824q0 -21 -14.5 -35t-35.5 -14
q-20 0 -33.5 14.5t-13.5 34.5t14 34.5t33 14.5q20 0 35 -15t15 -34zM186 824q0 -21 -14.5 -35t-34.5 -14q-21 0 -34.5 14t-13.5 35q0 20 14 34.5t34 14.5q19 0 34 -15t15 -34z" />
    <glyph glyph-name="Igrave" unicode="&#xcc;" horiz-adv-x="579" 
d="M547 900q-156 59 -316 59q-95 0 -168 -12q14 89 89 146q72 54 164 54q31 0 77 -22.5t67 -45.5v119h65v-223q12 -25 22 -75zM417 138q0 -61 -38.5 -99.5t-99.5 -38.5t-100 37t-39 98v663q36 -2 94 0v-528q19 7 48 7q61 0 98 -39t37 -100zM472 966q-23 55 -66 89
q-48 37 -104 37q-46 0 -88 -22q-49 -24 -61 -64q35 5 104 5q152 0 215 -45zM349 140q0 29 -20 48t-50 19q-29 0 -49.5 -19t-20.5 -48q0 -32 19.5 -51.5t50.5 -19.5t50.5 20t19.5 51zM418.92 1266.92q0 -65.583 -87.7422 -65.583q-26.0488 0 -44.5566 15.0518
t-18.5078 35.4795q0 21.5029 17.8223 35.4795q17.8232 13.9766 45.2422 13.9766q38.3877 0 49.3555 -22.5781q-6.85547 25.8037 -26.7344 32.792t-75.4033 11.2891q-55.5244 4.2998 -78.8311 13.9766q-35.6455 13.9766 -35.6455 50.5312h42.501q0 -30.1035 54.8379 -36.5547
q98.7109 -10.751 102.823 -11.8262q54.8389 -16.127 54.8389 -72.0342zM359.969 1252.94q0 22.5781 -28.791 22.5781q-30.1611 0 -30.1611 -22.5781t30.1611 -22.5781q28.791 0 28.791 22.5781z" />
    <glyph glyph-name="Iacute" unicode="&#xcd;" horiz-adv-x="484" 
d="M391 1322q0 -51 -43 -65q-2 -2 -77 -12q-43 -5 -43 -33h-32q0 33 27 46q18 9 60 13.5t57.5 10t21.5 30.5q-9 -22 -39 -22q-21 0 -34.5 13t-13.5 33q0 18 15 32t33 14q68 0 68 -60zM346 1335q0 20 -23 20t-23 -20q0 -21 23 -21t23 21zM519 900q-156 59 -316 59
q-95 0 -168 -12q14 89 89 146q72 54 164 54q31 0 77 -22.5t67 -45.5v119h65v-223q12 -25 22 -75zM389 138q0 -61 -38.5 -99.5t-99.5 -38.5t-100 37t-39 98v663q36 -2 94 0v-528q19 7 48 7q61 0 98 -39t37 -100zM444 966q-23 55 -66 89q-48 37 -104 37q-46 0 -88 -22
q-49 -24 -61 -64q35 5 104 5q152 0 215 -45zM321 140q0 29 -20 48t-50 19q-29 0 -49.5 -19t-20.5 -48q0 -32 19.5 -51.5t50.5 -19.5t50.5 20t19.5 51z" />
    <glyph glyph-name="Icircumflex" unicode="&#xce;" horiz-adv-x="464" 
d="M498 900q-156 59 -316 59q-95 0 -168 -12q14 89 89 146q72 54 164 54q31 0 77 -22.5t67 -45.5v119h65v-223q12 -25 22 -75zM368 138q0 -61 -38.5 -99.5t-99.5 -38.5t-100 37t-39 98v663q36 -2 94 0v-528q19 7 48 7q61 0 98 -39t37 -100zM423 966q-23 55 -66 89
q-48 37 -104 37q-46 0 -88 -22q-49 -24 -61 -64q35 5 104 5q152 0 215 -45zM300 140q0 29 -20 48t-50 19q-29 0 -49.5 -19t-20.5 -48q0 -32 19.5 -51.5t50.5 -19.5t50.5 20t19.5 51zM250 864h-52l-87 118l-88 -118h-52l96 170h87z" />
    <glyph glyph-name="Idieresis" unicode="&#xcf;" horiz-adv-x="456" 
d="M489 900q-156 59 -316 59q-95 0 -168 -12q14 89 89 146q72 54 164 54q31 0 77 -22.5t67 -45.5v119h65v-223q12 -25 22 -75zM359 138q0 -61 -38.5 -99.5t-99.5 -38.5t-100 37t-39 98v663q36 -2 94 0v-528q19 7 48 7q61 0 98 -39t37 -100zM414 966q-23 55 -66 89
q-48 37 -104 37q-46 0 -88 -22q-49 -24 -61 -64q35 5 104 5q152 0 215 -45zM291 140q0 29 -20 48t-50 19q-29 0 -49.5 -19t-20.5 -48q0 -32 19.5 -51.5t50.5 -19.5t50.5 20t19.5 51zM253 824q0 -21 -14.5 -35t-35.5 -14q-20 0 -33.5 14.5t-13.5 34.5t14 34.5t33 14.5
q20 0 35 -15t15 -34zM67 824q0 -21 -14.5 -35t-34.5 -14q-21 0 -34.5 14t-13.5 35q0 20 14 34.5t34 14.5q19 0 34 -15t15 -34z" />
    <glyph glyph-name="Eth" unicode="&#xd0;" horiz-adv-x="788" 
d="M748 342q0 -127 -77 -220.5t-202 -114.5q-42 -7 -96 -7h-251v304h-80v78h80v301h251q76 0 130 -14q112 -29 178.5 -119.5t66.5 -207.5zM644 341q0 120 -77 186q-72 63 -194 63h-154v-208h178v-78h-178v-211h154q122 0 194 62q77 66 77 186z" />
    <glyph glyph-name="Ntilde" unicode="&#xd1;" horiz-adv-x="833" 
d="M807 138q0 -61 -39 -100t-99 -39q-61 0 -100.5 38t-39.5 99v4l-418 519q0 -2 1 -389q19 8 58 8q61 0 98 -39t37 -101q0 -60 -38.5 -99t-99.5 -39t-100 37.5t-39 98.5v619q0 19 13 32.5t34 13.5q39 0 79 -49l375 -470v519q37 -2 95 0v-531q19 8 47 8q62 0 99 -39t37 -101z
M738 140q0 29 -20 48t-49 19q-30 0 -50 -18.5t-20 -48.5q0 -31 19.5 -50.5t50.5 -19.5t50 19.5t19 50.5zM237 140q0 30 -20 48.5t-50 18.5t-50 -18.5t-20 -48.5q0 -31 19.5 -50.5t50.5 -19.5t50.5 19.5t19.5 50.5zM529 136zM422 1046q-24 -94 -97 -94q-17 0 -48.5 11
t-48.5 11q-33 0 -47 -31h-43q22 91 97 91q17 0 48.5 -11.5t48.5 -11.5q34 0 47 35h43z" />
    <glyph glyph-name="Ograve" unicode="&#xd2;" horiz-adv-x="605" 
d="M202 474q0 32 -20 52t-52 20q-31 0 -51.5 -19t-20.5 -51t20 -52t52 -20q30 0 51 20.5t21 49.5zM322 10h-110q-85 0 -144 51q-62 54 -62 139v274q0 56 35.5 90t90.5 34q54 0 88 -34t34 -88t-33.5 -89t-88.5 -35q-11 0 -42 8v-160q0 -37 42.5 -77.5t79.5 -40.5h110
q37 0 79.5 40.5t42.5 77.5v368q0 77 -57 121q-52 39 -131 39q-122 0 -207 -135l-57 30q24 79 107 131q76 46 154 46q114 0 190 -58q85 -64 85 -174v-368q0 -84 -63 -138q-59 -52 -143 -52zM300 1098q0 -61 -64 -61q-19 0 -32.5 14t-13.5 33q0 20 13 33t33 13q28 0 36 -21
q-5 24 -19.5 30.5t-55 10.5t-57.5 13q-26 13 -26 47h31q0 -28 40 -34q72 -10 75 -11q40 -15 40 -67zM257 1085q0 21 -21 21q-22 0 -22 -21t22 -21q21 0 21 21z" />
    <glyph glyph-name="Oacute" unicode="&#xd3;" horiz-adv-x="605" 
d="M399 952q0 -52 -40 -67q-3 -1 -75 -11q-40 -6 -40 -34h-31q0 34 26 47q17 9 57.5 13t55 10.5t19.5 30.5q-8 -21 -36 -21q-20 0 -33 13t-13 33q0 19 13.5 33t32.5 14q64 0 64 -61zM356 965q0 21 -21 21q-22 0 -22 -21t22 -21q21 0 21 21zM200 474q0 32 -20 52t-52 20
q-31 0 -51.5 -19t-20.5 -51t20 -52t52 -20q30 0 51 20.5t21 49.5zM320 10h-110q-85 0 -144 51q-62 54 -62 139v274q0 56 35.5 90t90.5 34q54 0 88 -34t34 -88t-33.5 -89t-88.5 -35q-11 0 -42 8v-160q0 -37 42.5 -77.5t79.5 -40.5h110q37 0 79.5 40.5t42.5 77.5v368
q0 77 -57 121q-52 39 -131 39q-122 0 -207 -135l-57 30q24 79 107 131q76 46 154 46q114 0 190 -58q85 -64 85 -174v-368q0 -84 -63 -138q-59 -52 -143 -52z" />
    <glyph glyph-name="Ocircumflex" unicode="&#xd4;" horiz-adv-x="606" 
d="M231 475q0 32 -20 52t-52 20q-31 0 -51.5 -19t-20.5 -51t20 -52t52 -20q30 0 51 20.5t21 49.5zM351 11h-110q-85 0 -144 51q-62 54 -62 139v274q0 56 35.5 90t90.5 34q54 0 88 -34t34 -88t-33.5 -89t-88.5 -35q-11 0 -42 8v-160q0 -37 42.5 -77.5t79.5 -40.5h110
q37 0 79.5 40.5t42.5 77.5v368q0 77 -57 121q-52 39 -131 39q-122 0 -207 -135l-57 30q24 79 107 131q76 46 154 46q114 0 190 -58q85 -64 85 -174v-368q0 -84 -63 -138q-59 -52 -143 -52zM456 864h-52l-87 118l-88 -118h-52l96 170h87z" />
    <glyph glyph-name="Otilde" unicode="&#xd5;" horiz-adv-x="605" 
d="M202 474q0 32 -20 52t-52 20q-31 0 -51.5 -19t-20.5 -51t20 -52t52 -20q30 0 51 20.5t21 49.5zM322 10h-110q-85 0 -144 51q-62 54 -62 139v274q0 56 35.5 90t90.5 34q54 0 88 -34t34 -88t-33.5 -89t-88.5 -35q-11 0 -42 8v-160q0 -37 42.5 -77.5t79.5 -40.5h110
q37 0 79.5 40.5t42.5 77.5v368q0 77 -57 121q-52 39 -131 39q-122 0 -207 -135l-57 30q24 79 107 131q76 46 154 46q114 0 190 -58q85 -64 85 -174v-368q0 -84 -63 -138q-59 -52 -143 -52zM408 1046q-24 -94 -97 -94q-17 0 -48.5 11t-48.5 11q-33 0 -47 -31h-43q22 91 97 91
q17 0 48.5 -11.5t48.5 -11.5q34 0 47 35h43z" />
    <glyph glyph-name="Odieresis" unicode="&#xd6;" horiz-adv-x="611" 
d="M243 474q0 32 -19.5 52t-51.5 20t-52.5 -19t-20.5 -51t20.5 -52t52.5 -20q29 0 50 20.5t21 49.5zM363 10h-110q-85 0 -143 51q-62 54 -62 139v274q0 56 35.5 90t90.5 34q54 0 88 -34t34 -88t-34 -89t-88 -35q-11 0 -42 8v-160q0 -37 42.5 -77.5t78.5 -40.5h110
q37 0 80 40.5t43 77.5v368q0 77 -58 121q-51 39 -131 39q-122 0 -207 -135l-57 30q25 79 108 131q75 46 153 46q114 0 191 -58q85 -64 85 -174v-368q0 -84 -61.5 -137t-145.5 -53zM628 1000q0 -45 -37 -52q26 -37 32 -82q-89 34 -182 34q-54 0 -96 -7q7 46 45 81.5t84 35.5
q17 0 46 -9q0 22 16 37.5t38 15.5q23 0 38.5 -15t15.5 -39zM267 1000q0 -45 -37 -52q25 -37 32 -82q-90 34 -182 34q-55 0 -97 -7q8 46 45.5 81.5t83.5 35.5q17 0 47 -9q0 22 15.5 37.5t37.5 15.5q24 0 39.5 -15t15.5 -39zM600 1002q0 25 -25 25q-27 0 -27 -25t27 -25
q25 0 25 25zM580 904q-12 30 -39 51.5t-59 21.5q-26 0 -52 -13.5t-34 -36.5q21 3 60 3q88 0 124 -26zM238 1002q0 25 -25 25q-26 0 -26 -25t26 -25q25 0 25 25zM219 904q-13 30 -40 51.5t-58 21.5q-27 0 -51 -13q-28 -14 -35 -37q21 3 60 3q87 0 124 -26z" />
    <glyph glyph-name="multiply" unicode="&#xd7;" horiz-adv-x="624" 
d="M589 69l-48 -47l-229 228l-229 -228l-48 47l229 229l-229 229l48 48l229 -229l229 229l48 -48l-229 -229z" />
    <glyph glyph-name="Oslash" unicode="&#xd8;" horiz-adv-x="800" 
d="M784 647l-89 -85q83 -92 83 -215q0 -151 -105.5 -255t-256.5 -104q-132 0 -239 83l-95 -91l-51 51l96 94q-79 84 -79 213q0 148 106 252.5t254 104.5q138 0 236 -81l88 84zM571 544q-68 58 -159 58q-108 0 -184 -77t-76 -184q0 -84 47 -148zM673 348q0 84 -52 146
l-372 -354q69 -59 163 -59q113 0 187 77t74 190z" />
    <glyph glyph-name="Ugrave" unicode="&#xd9;" horiz-adv-x="880" 
d="M827 153q0 -98 -38 -128q-32 -25 -133 -25h-388v527q-18 -7 -45 -7q-63 0 -104 41t-41 105q0 63 41 103t104 40t103.5 -41.5t40.5 -104.5v-578h289q42 0 57 12t15 56v646h99v-646zM827 -444h-78v131q-17 -5 -38 -5q-49 0 -79 31.5t-30 80.5q0 51 31 82.5t82 31.5
q49 0 80.5 -31t31.5 -80v-241zM772 -206q0 56 -57 56q-25 0 -42 -15.5t-17 -40.5t17 -40t42 -15q24 0 40.5 15.5t16.5 39.5zM296 663q0 32 -20.5 52.5t-52.5 20.5t-52.5 -20t-20.5 -53q0 -31 21 -52t52 -21q32 0 52.5 20.5t20.5 52.5zM654.811 941.818
q0 -71.5771 -82.582 -71.5771q-24.5166 0 -41.9365 16.4277q-17.4199 16.4268 -17.4199 38.7217q0 23.4678 16.7744 38.7227q16.7744 15.2539 42.582 15.2539q36.1289 0 46.4521 -24.6416q-6.45215 28.1621 -25.1621 35.7891t-70.9688 12.3203
q-52.2588 4.69434 -74.1943 15.2549q-33.5488 15.2539 -33.5488 55.1494h40q0 -32.8555 51.6143 -39.8955q92.9043 -11.7344 96.7754 -12.9072q51.6143 -17.6016 51.6143 -78.6182zM599.325 926.564q0 24.6406 -27.0967 24.6406q-28.3877 0 -28.3877 -24.6406
q0 -24.6416 28.3877 -24.6416q27.0967 0 27.0967 24.6416z" />
    <glyph glyph-name="Uacute" unicode="&#xda;" horiz-adv-x="878" 
d="M631 979q0 -63 -51 -81q-4 -2 -95 -14q-51 -7 -51 -41h-39q0 41 33 57q22 11 73.5 16t69.5 12.5t25 37.5q-11 -26 -46 -26q-26 0 -42.5 16t-16.5 40q0 23 17.5 40t41.5 17q81 0 81 -74zM576 995q0 25 -26 25q-28 0 -28 -25q0 -26 28 -26q26 0 26 26zM827 153
q0 -98 -38 -128q-32 -25 -133 -25h-388v527q-18 -7 -45 -7q-63 0 -104 41t-41 105q0 63 41 103t104 40t103.5 -41.5t40.5 -104.5v-578h289q42 0 57 12t15 56v646h99v-646zM827 -444h-78v131q-17 -5 -38 -5q-49 0 -79 31.5t-30 80.5q0 51 31 82.5t82 31.5q49 0 80.5 -31
t31.5 -80v-241zM772 -206q0 56 -57 56q-25 0 -42 -15.5t-17 -40.5t17 -40t42 -15q24 0 40.5 15.5t16.5 39.5zM296 663q0 32 -20.5 52.5t-52.5 20.5t-52.5 -20t-20.5 -53q0 -31 21 -52t52 -21q32 0 52.5 20.5t20.5 52.5z" />
    <glyph glyph-name="Ucircumflex" unicode="&#xdb;" horiz-adv-x="879" 
d="M826 153q0 -98 -38 -128q-32 -25 -133 -25h-388v527q-18 -7 -45 -7q-63 0 -104 41t-41 105q0 63 41 103t104 40t103.5 -41.5t40.5 -104.5v-578h289q42 0 57 12t15 56v646h99v-646zM826 -444h-78v131q-17 -5 -38 -5q-49 0 -79 31.5t-30 80.5q0 51 31 82.5t82 31.5
q49 0 80.5 -31t31.5 -80v-241zM771 -206q0 56 -57 56q-25 0 -42 -15.5t-17 -40.5t17 -40t42 -15q24 0 40.5 15.5t16.5 39.5zM295 663q0 32 -20.5 52.5t-52.5 20.5t-52.5 -20t-20.5 -53q0 -31 21 -52t52 -21q32 0 52.5 20.5t20.5 52.5zM480 864h-52l-87 118l-88 -118h-52
l96 170h87z" />
    <glyph glyph-name="Udieresis" unicode="&#xdc;" horiz-adv-x="832" 
d="M779 153q0 -98 -38 -128q-32 -25 -133 -25h-388v527q-18 -7 -44 -7q-64 0 -105 41t-41 105q0 63 41 103t105 40q62 0 102.5 -41.5t40.5 -104.5v-578h289q42 0 57.5 12t15.5 56v646h98v-646zM779 -444h-77v131q-18 -5 -39 -5q-49 0 -79 31.5t-30 80.5q0 51 31.5 82.5
t82.5 31.5q49 0 80 -31t31 -80v-241zM724 -206q0 56 -56 56q-26 0 -42.5 -15.5t-16.5 -40.5t17 -40t42 -15q24 0 40 15.5t16 39.5zM248 663q0 32 -20 52.5t-52 20.5q-33 0 -53.5 -20t-20.5 -53q0 -31 21 -52t53 -21q31 0 51.5 20.5t20.5 52.5zM794 866q-90 34 -182 34
q-55 0 -97 -7q7 46 46 81.5t86 35.5q11 0 22 -3v41h38v-53q23 -9 37 -27v80h37v-140q6 -15 13 -42zM355 866q-89 34 -182 34q-54 0 -97 -7q7 46 46 81.5t86 35.5q12 0 22 -3v41h38v-53q24 -9 37 -27v80h38v-140q6 -15 12 -42zM751 904q-14 30 -41 51.5t-57 21.5
q-27 0 -51 -13q-29 -14 -35 -37q21 3 60 3q87 0 124 -26zM312 904q-13 30 -39 50q-29 23 -59 23q-26 0 -51 -13q-28 -14 -35 -37q21 3 60 3q87 0 124 -26z" />
    <glyph glyph-name="Yacute" unicode="&#xdd;" horiz-adv-x="690" 
d="M643 261q0 -128 -92 -199q-83 -63 -215 -63q-91 0 -176 40q-93 43 -138 116l63 48q93 -127 247 -127q91 0 149 45q65 51 65 140v269q-60 -141 -110 -204q-83 -102 -196 -102q-93 0 -139 99q-35 74 -35 178q0 141 18 200q34 113 142 113q63 0 102 -40t39 -103
q0 -62 -40 -101.5t-101 -39.5q-38 0 -67 19q-5 -43 -5 -72q0 -64 18 -109q26 -63 81 -63q67 0 141 101q61 86 108 212q44 117 44 182h97v-539zM297 673q0 31 -20 51.5t-51 20.5t-51.5 -20.5t-20.5 -51.5q0 -32 20 -51.5t52 -19.5t51.5 19.5t19.5 51.5zM251 919l-137 -170
h-52l102 170h87z" />
    <glyph glyph-name="Thorn" unicode="&#xde;" horiz-adv-x="501" 
d="M479 346q0 -97 -67 -148q-59 -46 -160 -46h-116v-152h-97v683h97v-142h116q100 0 160 -46q67 -51 67 -149zM377 346q0 107 -135 107h-106v-214h106q135 0 135 107z" />
    <glyph glyph-name="germandbls" unicode="&#xdf;" horiz-adv-x="565" 
d="M591 629q-102 -8 -169 -66q90 -37 90 -155v-281q0 -64 -39.5 -102t-102.5 -38q-60 0 -96.5 39.5t-36.5 100.5q0 60 36.5 98.5t96.5 38.5q33 0 47 -10v159q0 58 -32 100.5t-89 55.5q70 64 155 82q-88 75 -209 75q-78 0 -123 -40q-47 -44 -47 -127v-857h-95v857
q0 127 75 191q68 58 192 58q103 0 195.5 -47.5t151.5 -131.5zM443 127q0 29 -20.5 48t-50.5 19q-29 0 -49 -19t-20 -48q0 -31 19 -51t50 -20t51 19.5t20 51.5z" />
    <glyph glyph-name="agrave" unicode="&#xe0;" horiz-adv-x="504" 
d="M481 0h-73q0 81 -68 205q-76 136 -151 136q-74 0 -74 -99q0 -22 3 -54q22 14 51 14q46 0 75.5 -29.5t29.5 -75.5q0 -47 -29 -77t-76 -30q-81 0 -107 84q-13 44 -13 150q0 73 26 119q33 59 104 59q87 0 147 -62q43 -45 82 -138v202q0 67 -48 104q-43 33 -112 33
q-55 0 -94 -24q-35 -21 -71 -70l-47 36q70 115 215 115q100 0 161 -46q69 -52 69 -148v-404zM222 95q0 24 -15 38.5t-38 14.5q-54 0 -54 -53q0 -23 15 -38.5t39 -15.5q23 0 38 15.5t15 38.5zM333 705q0 -61 -64 -61q-19 0 -32.5 14t-13.5 33q0 20 13 33t33 13q28 0 36 -21
q-5 24 -19.5 30.5t-55 10.5t-57.5 13q-26 13 -26 47h31q0 -28 40 -34q72 -10 75 -11q40 -15 40 -67zM290 692q0 21 -21 21q-22 0 -22 -21t22 -21q21 0 21 21z" />
    <glyph glyph-name="aacute" unicode="&#xe1;" horiz-adv-x="528" 
d="M470 731q0 -52 -40 -67q-3 -1 -75 -11q-40 -6 -40 -34h-31q0 34 26 47q17 9 57.5 13t55 10.5t19.5 30.5q-8 -21 -36 -21q-20 0 -33 13t-13 33q0 19 13.5 33t32.5 14q64 0 64 -61zM427 744q0 21 -21 21q-22 0 -22 -21t22 -21q21 0 21 21zM493 0h-73q0 81 -68 205
q-76 136 -151 136q-74 0 -74 -99q0 -22 3 -54q22 14 51 14q46 0 75.5 -29.5t29.5 -75.5q0 -47 -29 -77t-76 -30q-81 0 -107 84q-13 44 -13 150q0 73 26 119q33 59 104 59q87 0 147 -62q43 -45 82 -138v202q0 67 -48 104q-43 33 -112 33q-55 0 -94 -24q-35 -21 -71 -70
l-47 36q70 115 215 115q100 0 161 -46q69 -52 69 -148v-404zM234 95q0 24 -15 38.5t-38 14.5q-54 0 -54 -53q0 -23 15 -38.5t39 -15.5q23 0 38 15.5t15 38.5z" />
    <glyph glyph-name="acircumflex" unicode="&#xe2;" horiz-adv-x="565" 
d="M529 0h-73q0 81 -68 205q-76 136 -151 136q-74 0 -74 -99q0 -22 3 -54q22 14 51 14q46 0 75.5 -29.5t29.5 -75.5q0 -47 -29 -77t-76 -30q-81 0 -107 84q-13 44 -13 150q0 73 26 119q33 59 104 59q87 0 147 -62q43 -45 82 -138v202q0 67 -48 104q-43 33 -112 33
q-55 0 -94 -24q-35 -21 -71 -70l-47 36q70 115 215 115q100 0 161 -46q69 -52 69 -148v-404zM270 95q0 24 -15 38.5t-38 14.5q-54 0 -54 -53q0 -23 15 -38.5t39 -15.5q23 0 38 15.5t15 38.5zM446 619h-52l-87 118l-88 -118h-52l96 170h87z" />
    <glyph glyph-name="atilde" unicode="&#xe3;" horiz-adv-x="618" 
d="M586 0h-73q0 81 -68 205q-76 136 -151 136q-74 0 -74 -99q0 -22 3 -54q22 14 51 14q46 0 75.5 -29.5t29.5 -75.5q0 -47 -29 -77t-76 -30q-81 0 -107 84q-13 44 -13 150q0 73 26 119q33 59 104 59q87 0 147 -62q43 -45 82 -138v202q0 67 -48 104q-43 33 -112 33
q-55 0 -94 -24q-35 -21 -71 -70l-47 36q70 115 215 115q100 0 161 -46q69 -52 69 -148v-404zM327 95q0 24 -15 38.5t-38 14.5q-54 0 -54 -53q0 -23 15 -38.5t39 -15.5q23 0 38 15.5t15 38.5zM493 765q-24 -94 -97 -94q-17 0 -48.5 11t-48.5 11q-33 0 -47 -31h-43
q22 91 97 91q17 0 48.5 -11.5t48.5 -11.5q34 0 47 35h43z" />
    <glyph glyph-name="adieresis" unicode="&#xe4;" horiz-adv-x="533" 
d="M448 0h-72q0 81 -69 205q-76 136 -151 136q-74 0 -74 -99q0 -22 3 -54q23 14 51 14q46 0 76 -29.5t30 -75.5q0 -47 -29.5 -77t-76.5 -30q-81 0 -106 84q-14 44 -14 150q0 73 26 119q34 59 104 59q87 0 147 -62q43 -45 83 -138v202q0 67 -49 104q-43 33 -112 33
q-55 0 -94 -24q-35 -21 -70 -70l-48 36q70 115 216 115q99 0 161 -46q68 -52 68 -148v-404zM189 95q0 24 -14.5 38.5t-38.5 14.5q-54 0 -54 -53q0 -23 15.5 -38.5t38.5 -15.5t38 15.5t15 38.5zM571 802q0 -65 -39 -98.5t-105 -33.5q-42 0 -69 15q-34 19 -34 57q0 28 19 47.5
t47 19.5q30 0 49.5 -16.5t19.5 -45.5q0 -21 -14 -40q22 0 50 18t28 77h48zM209 802q0 -65 -38.5 -98.5t-104.5 -33.5q-42 0 -69 15q-35 19 -35 57q0 28 19.5 47.5t47.5 19.5q30 0 49.5 -16.5t19.5 -45.5q0 -21 -14 -40q22 0 50 18t28 77h47zM571 802h-48q0 -59 -28 -77
t-50 -18q14 19 14 40q0 29 -19.5 45.5t-49.5 16.5q-28 0 -47 -19.5t-19 -47.5q0 -38 34 -57q27 -15 69 -15q66 0 105 33.5t39 98.5zM209 802h-47q0 -59 -28 -77t-50 -18q14 19 14 40q0 29 -19.5 45.5t-49.5 16.5q-28 0 -47.5 -19.5t-19.5 -47.5q0 -38 35 -57q27 -15 69 -15
q66 0 104.5 33.5t38.5 98.5zM423 745q0 -32 -33 -32q-32 0 -32 32q0 33 32 33q33 0 33 -33zM61 745q0 -32 -32 -32t-32 32q0 33 32 33t32 -33zM423 745q0 33 -33 33q-32 0 -32 -33q0 -32 32 -32q33 0 33 32zM61 745q0 33 -32 33t-32 -33q0 -32 32 -32t32 32z" />
    <glyph glyph-name="aring" unicode="&#xe5;" horiz-adv-x="455" 
d="M337 615q0 -51 -35.5 -86t-86.5 -35q-52 0 -86.5 35t-34.5 86q0 52 34.5 86t86.5 34q51 0 86.5 -34.5t35.5 -85.5zM440 33q-48 -41 -101 -41q-50 0 -54 45q-64 -45 -130 -45q-57 0 -91 26q-38 29 -38 83t48 94q36 30 105 54q51 16 103 33q1 8 1 19q0 76 -85 76
q-77 0 -158 -63v89q70 57 169 57q86 0 126 -38t40 -124v-191q0 -44 18 -44q15 0 47 25v-55zM285 614q0 29 -20 49.5t-49 20.5q-30 0 -50 -20t-20 -50q0 -29 20 -49.5t50 -20.5q29 0 49 20t20 50zM282 92v132q-69 -21 -98 -36q-62 -32 -62 -72q0 -58 68 -58q47 0 92 34z" />
    <glyph glyph-name="ae" unicode="&#xe6;" horiz-adv-x="778" 
d="M740 211h-338q4 -64 42.5 -100.5t102.5 -36.5q82 0 185 65v-91q-91 -59 -193 -59q-108 0 -181 78q-102 -78 -183 -78q-55 0 -90 28q-39 31 -39 85q0 130 255 173q1 8 1 22q0 80 -80 80q-82 0 -163 -63v89q74 59 177 59q88 0 137 -61q60 61 155 61q109 0 163 -74
q49 -65 49 -177zM642 276q-4 48 -35.5 78.5t-79.5 30.5q-105 0 -125 -109h240zM301 92v124q-160 -27 -160 -100q0 -58 68 -58q47 0 92 34z" />
    <glyph glyph-name="ccedilla" unicode="&#xe7;" horiz-adv-x="612" 
d="M592 454q0 -42 -32.5 -70.5t-79.5 -28.5q-49 0 -81 28.5t-32 74.5q0 49 34 72q-75 0 -152 -74.5t-77 -144.5q0 -77 62 -158q66 -85 137 -85q29 0 92 21q60 19 87 36q2 -30 10 -67q-33 -20 -103 -41q-74 -22 -114 -22q-11 0 -18 2q-95 26 -166 125q-68 94 -68 189
q0 106 102 198t217 92q69 0 124 -41q58 -44 58 -106zM531 456q0 20 -14.5 33.5t-36.5 13.5q-21 0 -35 -13.5t-14 -33.5q0 -19 14 -32t35 -13t36 13t15 32zM266 -138q0 -89 -122 -89q-45 0 -123 20v43q80 -18 122 -18q59 0 59 41q0 49 -67 49q-11 0 -26 -2l-1 94h36v-52
q122 0 122 -86z" />
    <glyph glyph-name="egrave" unicode="&#xe8;" horiz-adv-x="508" 
d="M494 76q-44 -54 -79 -67q-27 -10 -108 -10q-108 0 -185 100q-73 93 -73 208q0 92 68 189q74 104 159 104t148 -56t63 -140q0 -69 -52 -133q-54 -67 -120 -67q-51 0 -79.5 28.5t-28.5 80.5q0 43 29 71t73 28q28 1 54 -31t26 -68q37 63 37 98q0 46 -47.5 85t-94.5 39
q-66 0 -122 -81q-51 -74 -51 -147q0 -89 55 -165q59 -81 141 -81q66 0 87 6q31 10 65 50zM342 313q0 19 -13 32t-32 13q-45 0 -45 -45q0 -46 45 -46q19 0 32 13t13 33zM381 695q0 -61 -64 -61q-19 0 -32.5 14t-13.5 33q0 20 13 33t33 13q28 0 36 -21q-5 24 -19.5 30.5
t-55 10.5t-57.5 13q-26 13 -26 47h31q0 -28 40 -34q72 -10 75 -11q40 -15 40 -67zM338 682q0 21 -21 21q-22 0 -22 -21t22 -21q21 0 21 21z" />
    <glyph glyph-name="eacute" unicode="&#xe9;" horiz-adv-x="514" 
d="M486 76q-44 -54 -79 -67q-27 -10 -108 -10q-108 0 -185 100q-73 93 -73 208q0 92 68 189q74 104 159 104t148 -56t63 -140q0 -69 -52 -133q-54 -67 -120 -67q-51 0 -79.5 28.5t-28.5 80.5q0 43 29 71t73 28q28 1 54 -31t26 -68q37 63 37 98q0 46 -47.5 85t-94.5 39
q-66 0 -122 -81q-51 -74 -51 -147q0 -89 55 -165q59 -81 141 -81q66 0 87 6q31 10 65 50zM334 313q0 19 -13 32t-32 13q-45 0 -45 -45q0 -46 45 -46q19 0 32 13t13 33zM237 685l-137 -170h-52l102 170h87z" />
    <glyph glyph-name="ecircumflex" unicode="&#xea;" horiz-adv-x="501" 
d="M474 76q-44 -54 -79 -67q-27 -10 -108 -10q-108 0 -185 100q-73 93 -73 208q0 92 68 189q74 104 159 104t148 -56t63 -140q0 -69 -52 -133q-54 -67 -120 -67q-51 0 -79.5 28.5t-28.5 80.5q0 43 29 71t73 28q28 1 54 -31t26 -68q37 63 37 98q0 46 -47.5 85t-94.5 39
q-66 0 -122 -81q-51 -74 -51 -147q0 -89 55 -165q59 -81 141 -81q66 0 87 6q31 10 65 50zM322 313q0 19 -13 32t-32 13q-45 0 -45 -45q0 -46 45 -46q19 0 32 13t13 33zM400 625h-52l-87 118l-88 -118h-52l96 170h87z" />
    <glyph glyph-name="edieresis" unicode="&#xeb;" horiz-adv-x="500" 
d="M481 76q-44 -54 -79 -67q-27 -10 -108 -10q-108 0 -185 100q-73 93 -73 208q0 92 68 189q74 104 159 104t148 -56t63 -140q0 -69 -52 -133q-54 -67 -120 -67q-51 0 -79.5 28.5t-28.5 80.5q0 43 29 71t73 28q28 1 54 -31t26 -68q37 63 37 98q0 46 -47.5 85t-94.5 39
q-66 0 -122 -81q-51 -74 -51 -147q0 -89 55 -165q59 -81 141 -81q66 0 87 6q31 10 65 50zM329 313q0 19 -13 32t-32 13q-45 0 -45 -45q0 -46 45 -46q19 0 32 13t13 33zM350 670q0 -21 -14.5 -35t-35.5 -14q-20 0 -33.5 14.5t-13.5 34.5t14 34.5t33 14.5q20 0 35 -15t15 -34z
M164 670q0 -21 -14.5 -35t-34.5 -14q-21 0 -34.5 14t-13.5 35q0 20 14 34.5t34 14.5q19 0 34 -15t15 -34z" />
    <glyph glyph-name="igrave" unicode="&#xec;" horiz-adv-x="430" 
d="M410 673q-116 44 -237 44q-70 0 -125 -9q11 67 67 109q53 40 122 40q23 0 58 -16.5t50 -33.5v89h49v-167q9 -19 16 -56zM313 103q0 -45 -29 -74t-74 -29q-46 0 -75.5 28t-29.5 73v495q28 -1 71 0v-394q14 5 36 5q45 0 73 -29t28 -75zM354 722q-40 95 -127 95
q-34 0 -66 -17q-36 -18 -46 -48q27 4 78 4q114 0 161 -34zM262 104q0 22 -15 36.5t-37 14.5t-37.5 -14t-15.5 -37t15 -37.5t38 -14.5t37.5 14.5t14.5 37.5zM327 963q0 -64 -75 -64q-23 0 -38.5 14.5t-15.5 34.5q0 21 15 35t39 14q33 0 42 -22q-6 25 -23 31.5t-64.5 11
t-67.5 13.5q-31 14 -31 50h37q0 -30 47 -36q84 -11 88 -12q47 -15 47 -70zM276 949q0 22 -24 22q-26 0 -26 -22t26 -22q24 0 24 22z" />
    <glyph glyph-name="iacute" unicode="&#xed;" horiz-adv-x="409" 
d="M348 1044q0 -52 -46 -67q-4 -1 -86 -12q-46 -5 -46 -33h-34q0 33 29 47q19 8 66 12t62.5 10.5t22.5 30.5q-10 -20 -41 -20q-23 0 -38.5 13t-15.5 33q0 18 16 32t38 14q73 0 73 -60zM298 1057q0 20 -23 20q-25 0 -25 -20q0 -21 25 -21q23 0 23 21zM389 673
q-116 44 -237 44q-70 0 -125 -9q11 67 67 109q53 40 122 40q23 0 58 -16.5t50 -33.5v89h49v-167q9 -19 16 -56zM292 103q0 -45 -29 -74t-74 -29q-46 0 -75.5 28t-29.5 73v495q28 -1 71 0v-394q14 5 36 5q45 0 73 -29t28 -75zM333 722q-40 95 -127 95q-34 0 -66 -17
q-36 -18 -46 -48q27 4 78 4q114 0 161 -34zM241 104q0 22 -15 36.5t-37 14.5t-37.5 -14t-15.5 -37t15 -37.5t38 -14.5t37.5 14.5t14.5 37.5z" />
    <glyph glyph-name="icircumflex" unicode="&#xee;" horiz-adv-x="289" 
d="M252 0h-90v451h90v-451zM289 630h-52l-87 118l-88 -118h-52l96 170h87z" />
    <glyph glyph-name="idieresis" unicode="&#xef;" horiz-adv-x="315" 
d="M248 0h-90v451h90v-451zM297 590q0 -21 -14.5 -35t-35.5 -14q-20 0 -33.5 14.5t-13.5 34.5t14 34.5t33 14.5q20 0 35 -15t15 -34zM111 590q0 -21 -14.5 -35t-34.5 -14q-21 0 -34.5 14t-13.5 35q0 20 14 34.5t34 14.5q19 0 34 -15t15 -34z" />
    <glyph glyph-name="eth" unicode="&#xf0;" horiz-adv-x="567" 
d="M542 588l-95 -27q79 -119 79 -278q0 -127 -58 -204q-65 -86 -188 -86q-98 0 -167 62q-73 64 -73 161t73 161q69 62 167 62q86 0 149 -66q-13 92 -67 164l-154 -45l-19 55l130 38q-40 38 -78 65l54 44q59 -30 112 -83l113 31zM424 215q0 59 -42.5 99t-102.5 40
q-59 0 -102 -40t-43 -99t43 -99t102 -40q60 0 102.5 40t42.5 99z" />
    <glyph glyph-name="ntilde" unicode="&#xf1;" horiz-adv-x="679" 
d="M643 787q0 -105 -120 -105q29 40 29 63q0 40 -25 40q-18 0 -27 -19q-16 19 -36 19q-26 0 -26 -31q12 6 22 6q40 0 40 -42q0 -15 -12.5 -26.5t-27.5 -11.5q-25 0 -41 24q-13 21 -13 47q0 25 15 43t39 18q23 0 38 -17q11 17 35 17q46 0 46 -61q0 -23 -12 -43q46 22 46 69
q0 14 -3 26l29 11q4 -13 4 -27zM648 0h-70v465q0 71 -45 71q-58 0 -139 -160q-59 -118 -87 -215q-26 -90 -26 -161h-70v399q-16 -6 -37 -6q-47 0 -77.5 30t-30.5 77t30.5 76.5t77.5 29.5t77 -30.5t30 -76.5v-224q14 33 45 100q105 223 211 223q53 0 84 -41q27 -37 27 -92
v-465zM482 720q0 22 -22 22t-22 -22t22 -22t22 22zM232 499q0 25 -16 41t-42 16q-25 0 -41.5 -16t-16.5 -41t16.5 -41.5t41.5 -16.5q26 0 42 16t16 42zM318 812q-24 -94 -97 -94q-17 0 -48.5 11t-48.5 11q-33 0 -47 -31h-43q22 91 97 91q17 0 48.5 -11.5t48.5 -11.5
q34 0 47 35h43z" />
    <glyph glyph-name="ograve" unicode="&#xf2;" horiz-adv-x="464" 
d="M169 356q0 54 -54 54t-54 -53q0 -24 15 -39t39 -15q22 0 38 15.5t16 37.5zM259 8h-83q-63 0 -107 38q-47 40 -47 104v206q0 41 26.5 67t68.5 26q40 0 65.5 -25.5t25.5 -66.5t-25 -67t-66 -26q-9 0 -32 6v-120q0 -28 32 -58t59 -30h83q28 0 60 30t32 58v276q0 58 -43 91
q-39 29 -99 29q-91 0 -155 -101l-43 22q19 60 81 99q56 34 115 34q86 0 143 -43q64 -48 64 -131v-276q0 -63 -46 -102.5t-109 -39.5zM293 695q0 -61 -64 -61q-19 0 -32.5 14t-13.5 33q0 20 13 33t33 13q28 0 36 -21q-5 24 -19.5 30.5t-55 10.5t-57.5 13q-26 13 -26 47h31
q0 -28 40 -34q72 -10 75 -11q40 -15 40 -67zM250 682q0 21 -21 21q-22 0 -22 -21t22 -21q21 0 21 21z" />
    <glyph glyph-name="oacute" unicode="&#xf3;" horiz-adv-x="464" 
d="M312 750q0 -52 -40 -67q-3 -1 -75 -11q-40 -6 -40 -34h-31q0 34 26 47q17 9 57.5 13t55 10.5t19.5 30.5q-8 -21 -36 -21q-20 0 -33 13t-13 33q0 19 13.5 33t32.5 14q64 0 64 -61zM269 763q0 21 -21 21q-22 0 -22 -21t22 -21q21 0 21 21zM157 356q0 54 -54 54t-54 -53
q0 -24 15 -39t39 -15q22 0 38 15.5t16 37.5zM247 8h-83q-63 0 -107 38q-47 40 -47 104v206q0 41 26.5 67t68.5 26q40 0 65.5 -25.5t25.5 -66.5t-25 -67t-66 -26q-9 0 -32 6v-120q0 -28 32 -58t59 -30h83q28 0 60 30t32 58v276q0 58 -43 91q-39 29 -99 29q-91 0 -155 -101
l-43 22q19 60 81 99q56 34 115 34q86 0 143 -43q64 -48 64 -131v-276q0 -63 -46 -102.5t-109 -39.5z" />
    <glyph glyph-name="ocircumflex" unicode="&#xf4;" horiz-adv-x="472" 
d="M161 356q0 54 -54 54t-54 -53q0 -24 15 -39t39 -15q22 0 38 15.5t16 37.5zM251 8h-83q-63 0 -107 38q-47 40 -47 104v206q0 41 26.5 67t68.5 26q40 0 65.5 -25.5t25.5 -66.5t-25 -67t-66 -26q-9 0 -32 6v-120q0 -28 32 -58t59 -30h83q28 0 60 30t32 58v276q0 58 -43 91
q-39 29 -99 29q-91 0 -155 -101l-43 22q19 60 81 99q56 34 115 34q86 0 143 -43q64 -48 64 -131v-276q0 -63 -46 -102.5t-109 -39.5zM358 625h-52l-87 118l-88 -118h-52l96 170h87z" />
    <glyph glyph-name="otilde" unicode="&#xf5;" horiz-adv-x="479" 
d="M176 356q0 54 -54 54t-54 -53q0 -24 15 -39t39 -15q22 0 38 15.5t16 37.5zM266 8h-83q-63 0 -107 38q-47 40 -47 104v206q0 41 26.5 67t68.5 26q40 0 65.5 -25.5t25.5 -66.5t-25 -67t-66 -26q-9 0 -32 6v-120q0 -28 32 -58t59 -30h83q28 0 60 30t32 58v276q0 58 -43 91
q-39 29 -99 29q-91 0 -155 -101l-43 22q19 60 81 99q56 34 115 34q86 0 143 -43q64 -48 64 -131v-276q0 -63 -46 -102.5t-109 -39.5zM367 773q-24 -94 -97 -94q-17 0 -48.5 11t-48.5 11q-33 0 -47 -31h-43q22 91 97 91q17 0 48.5 -11.5t48.5 -11.5q34 0 47 35h43z" />
    <glyph glyph-name="odieresis" unicode="&#xf6;" horiz-adv-x="434" 
d="M162 332q0 50 -50 50q-51 0 -51 -49q0 -22 14.5 -36t36.5 -14q21 0 35.5 14t14.5 35zM246 7h-77q-59 0 -101.5 37t-42.5 96v192q0 39 25 63t63 24t62 -24t24 -62t-24 -62t-62 -24q-8 0 -29 5v-112q0 -26 30 -54t55 -28h77q26 0 56 28t30 54v257q0 55 -38.5 84t-93.5 29
q-86 0 -145 -95l-40 21q17 56 75 92q53 32 108 32q79 0 133 -41q59 -45 59 -122v-257q0 -58 -42.5 -95.5t-101.5 -37.5zM431 700q0 -32 -25 -36q18 -26 22 -58q-63 24 -127 24q-38 0 -68 -5q5 32 31.5 57t58.5 25q12 0 33 -6q0 15 11 26t26 11q38 0 38 -38zM178 700
q0 -32 -26 -37q18 -25 23 -57q-63 24 -128 24q-38 0 -67 -5q5 32 31.5 57t58.5 25q12 0 33 -6q0 15 11 26t26 11q38 0 38 -38zM411 702q0 17 -17 17q-19 0 -19 -17q0 -18 19 -18q17 0 17 18zM398 633q-22 51 -69 51q-49 0 -60 -35q15 2 42 2q61 0 87 -18zM158 701
q0 18 -17 18q-19 0 -19 -18q0 -17 19 -17q17 0 17 17zM145 633q-22 51 -69 51q-49 0 -60 -35q15 2 42 2q61 0 87 -18z" />
    <glyph glyph-name="divide" unicode="&#xf7;" horiz-adv-x="599" 
d="M369 478q0 -25 -17.5 -43t-43.5 -18q-25 0 -43 18t-18 43t18 43.5t43 18.5q26 0 43.5 -18.5t17.5 -43.5zM600 264h-585v68h585v-68zM369 118q0 -25 -17.5 -43t-43.5 -18t-43.5 17.5t-17.5 43.5q0 25 18 43t43 18t43 -18t18 -43z" />
    <glyph glyph-name="oslash" unicode="&#xf8;" horiz-adv-x="576" 
d="M540 419l-57 -55q48 -60 48 -133q0 -105 -70.5 -172.5t-176.5 -67.5q-76 0 -135 46l-60 -58l-45 48l59 54q-51 64 -51 145q0 101 70 167.5t172 66.5q89 0 146 -49l56 54zM378 345q-34 32 -86 32q-61 0 -103.5 -45.5t-42.5 -106.5q0 -46 23 -80zM440 232q0 37 -24 68
l-205 -197q36 -29 78 -29q63 0 107 47t44 111z" />
    <glyph glyph-name="ugrave" unicode="&#xf9;" horiz-adv-x="626" 
d="M621 99q0 -47 -31 -77.5t-79 -30.5q-47 0 -77.5 31t-30.5 79v211q-65 -145 -95 -192q-76 -121 -156 -121q-54 0 -85 42q-28 38 -28 94v465h74v-465q0 -69 43 -69q56 0 136 159q58 116 86 213q25 91 25 162h75v-396q13 5 33 5q48 0 79 -31t31 -79zM567 101q0 24 -16 39.5
t-40 15.5t-39 -15.5t-15 -39.5t15 -39t39 -15q56 0 56 54zM327 700q0 -61 -64 -61q-19 0 -32.5 14t-13.5 33q0 20 13 33t33 13q28 0 36 -21q-5 24 -19.5 30.5t-55 10.5t-57.5 13q-26 13 -26 47h31q0 -28 40 -34q72 -10 75 -11q40 -15 40 -67zM284 687q0 21 -21 21
q-22 0 -22 -21t22 -21q21 0 21 21z" />
    <glyph glyph-name="uacute" unicode="&#xfa;" horiz-adv-x="635" 
d="M372 748q0 -52 -40 -67q-3 -1 -75 -11q-40 -6 -40 -34h-31q0 34 26 47q17 9 57.5 13t55 10.5t19.5 30.5q-8 -21 -36 -21q-20 0 -33 13t-13 33q0 19 13.5 33t32.5 14q64 0 64 -61zM329 761q0 21 -21 21q-22 0 -22 -21t22 -21q21 0 21 21zM615 99q0 -47 -31 -77.5
t-79 -30.5q-47 0 -77.5 31t-30.5 79v211q-65 -145 -95 -192q-76 -121 -156 -121q-54 0 -85 42q-28 38 -28 94v465h74v-465q0 -69 43 -69q56 0 136 159q58 116 86 213q25 91 25 162h75v-396q13 5 33 5q48 0 79 -31t31 -79zM561 101q0 24 -16 39.5t-40 15.5t-39 -15.5
t-15 -39.5t15 -39t39 -15q56 0 56 54z" />
    <glyph glyph-name="ucircumflex" unicode="&#xfb;" horiz-adv-x="630" 
d="M608 99q0 -47 -31 -77.5t-79 -30.5q-47 0 -77.5 31t-30.5 79v211q-65 -145 -95 -192q-76 -121 -156 -121q-54 0 -85 42q-28 38 -28 94v465h74v-465q0 -69 43 -69q56 0 136 159q58 116 86 213q25 91 25 162h75v-396q13 5 33 5q48 0 79 -31t31 -79zM554 101q0 24 -16 39.5
t-40 15.5t-39 -15.5t-15 -39.5t15 -39t39 -15q56 0 56 54zM384 652h-52l-87 118l-88 -118h-52l96 170h87z" />
    <glyph glyph-name="udieresis" unicode="&#xfc;" horiz-adv-x="640" 
d="M586 107q0 -68 -27 -89q-22 -18 -93 -18h-271v369q-13 -5 -32 -5q-44 0 -73 29t-29 73t29 72t73 28t72.5 -29t28.5 -73v-405h202q30 0 40.5 8.5t10.5 39.5v452h69v-452zM586 -311h-55v92q-11 -4 -27 -4q-34 0 -55 22t-21 57t22 57t58 22q34 0 56 -21.5t22 -55.5v-169z
M547 -144q0 39 -39 39q-42 0 -42 -39q0 -38 42 -38q39 0 39 38zM214 464q0 23 -14 37t-37 14q-51 0 -51 -51q0 -22 14.5 -36.5t36.5 -14.5t36.5 14.5t14.5 36.5zM596 606q-63 24 -128 24q-38 0 -67 -5q5 33 32 57.5t60 24.5q8 0 15 -2v29h27v-38q16 -6 26 -18v56h26v-98
q4 -11 9 -30zM289 606q-63 24 -128 24q-38 0 -67 -5q5 33 32 57.5t60 24.5q8 0 15 -2v29h27v-38q16 -6 26 -18v56h26v-98q4 -11 9 -30zM566 633q-23 51 -69 51q-18 0 -36.5 -9.5t-23.5 -25.5q15 2 42 2q61 0 87 -18zM259 633q-23 51 -69 51q-18 0 -36.5 -9.5t-23.5 -25.5
q15 2 42 2q61 0 87 -18z" />
    <glyph glyph-name="yacute" unicode="&#xfd;" horiz-adv-x="503" 
d="M384 764q0 -52 -40 -67q-3 -1 -75 -11q-40 -6 -40 -34h-31q0 34 26 47q17 9 57.5 13t55 10.5t19.5 30.5q-8 -21 -36 -21q-20 0 -33 13t-13 33q0 19 13.5 33t32.5 14q64 0 64 -61zM341 777q0 21 -21 21q-22 0 -22 -21t22 -21q21 0 21 21zM467 196q0 -96 -69 -149
q-62 -48 -161 -48q-69 0 -133 30q-70 32 -103 88l47 36q69 -96 185 -96q69 0 113 34q48 38 48 105v202q-45 -106 -83 -153q-62 -77 -147 -77q-70 0 -104 74q-27 57 -27 134q0 107 14 151q26 84 107 84q47 0 76 -29.5t29 -77.5q0 -46 -29.5 -76t-75.5 -30q-29 0 -51 15
q-3 -32 -3 -55q0 -47 13 -81q20 -48 61 -48q74 0 151 152q69 136 69 220h73v-405zM207 506q0 23 -15 38.5t-38 15.5q-24 0 -39 -15.5t-15 -38.5q0 -54 54 -54q23 0 38 15t15 39z" />
    <glyph glyph-name="thorn" unicode="&#xfe;" horiz-adv-x="481" 
d="M455 226q0 -102 -59 -167q-61 -68 -161 -68q-69 0 -117 34v-252h-90v910h90v-257q50 35 117 35q100 0 160 -66.5t60 -168.5zM360 226q0 72 -38.5 114.5t-109.5 42.5q-52 0 -94 -31v-253q43 -31 94 -31q71 0 109.5 43t38.5 115z" />
    <glyph glyph-name="ydieresis" unicode="&#xff;" horiz-adv-x="518" 
d="M472 196q0 -96 -69 -149q-62 -48 -161 -48q-69 0 -133 30q-70 32 -103 88l47 36q69 -96 185 -96q69 0 113 34q48 38 48 105v202q-45 -106 -83 -153q-62 -77 -147 -77q-70 0 -104 74q-27 57 -27 134q0 107 14 151q26 84 107 84q47 0 76 -29.5t29 -77.5q0 -46 -29.5 -76
t-75.5 -30q-29 0 -51 15q-3 -32 -3 -55q0 -47 13 -81q20 -48 61 -48q74 0 151 152q69 136 69 220h73v-405zM212 506q0 23 -15 38.5t-38 15.5q-24 0 -39 -15.5t-15 -38.5q0 -54 54 -54q23 0 38 15t15 39zM375 690q0 -21 -14.5 -35t-35.5 -14q-20 0 -33.5 14.5t-13.5 34.5
t14 34.5t33 14.5q20 0 35 -15t15 -34zM189 690q0 -21 -14.5 -35t-34.5 -14q-21 0 -34.5 14t-13.5 35q0 20 14 34.5t34 14.5q19 0 34 -15t15 -34z" />
    <glyph glyph-name="Amacron" unicode="&#x100;" 
 />
    <glyph glyph-name="amacron" unicode="&#x101;" 
 />
    <glyph glyph-name="Abreve" unicode="&#x102;" horiz-adv-x="741" 
d="M443 858q-65 0 -98.5 32t-33.5 69l31 9q21 -67 102 -67q82 0 100 67l31 -9q0 -37 -33 -69t-99 -32zM687 23h-92v486h-45q-19 1 -45 1q-124 0 -137 -9q-48 -35 -48 -150q0 -25 2.5 -76.5t2.5 -77.5q0 -89 -25 -131q-33 -56 -117 -56q-61 0 -99.5 39t-38.5 101
q0 61 38.5 99t99.5 38q29 0 45 -10q0 15 -1 43v41q0 72 18 110q25 51 93 76q-12 10 -90 32t-101 24q17 24 58 58q52 42 63 54q57 57 79 73q49 35 103 35q91 0 166 -100q71 -94 71 -191v-509zM598 596q-12 35 -59 88q-50 56 -76 56q-49 0 -97 -40q-39 -38 -77 -75
q32 -14 73 -28q52 -3 236 -1zM254 150q0 30 -20.5 48.5t-50.5 18.5q-28 0 -49.5 -19.5t-21.5 -47.5q0 -30 20.5 -50.5t50.5 -20.5q32 0 51.5 19.5t19.5 51.5z" />
    <glyph glyph-name="abreve" unicode="&#x103;" horiz-adv-x="528" 
d="M292 626q-66 0 -99 32t-33 69l31 9q18 -67 100 -67q81 0 102 67l31 -9q0 -37 -33.5 -69t-98.5 -32zM292 626q-66 0 -99 32t-33 69l31 9q18 -67 100 -67q81 0 102 67l31 -9q0 -37 -33.5 -69t-98.5 -32zM292 626q-66 0 -99 32t-33 69l31 9q18 -67 100 -67q81 0 102 67
l31 -9q0 -37 -33.5 -69t-98.5 -32zM493 0h-73q0 81 -68 205q-76 136 -151 136q-74 0 -74 -99q0 -22 3 -54q22 14 51 14q46 0 75.5 -29.5t29.5 -75.5q0 -47 -29 -77t-76 -30q-81 0 -107 84q-13 44 -13 150q0 73 26 119q33 59 104 59q87 0 147 -62q43 -45 82 -138v202
q0 67 -48 104q-43 33 -112 33q-55 0 -94 -24q-35 -21 -71 -70l-47 36q70 115 215 115q100 0 161 -46q69 -52 69 -148v-404zM234 95q0 24 -15 38.5t-38 14.5q-54 0 -54 -53q0 -23 15 -38.5t39 -15.5q23 0 38 15.5t15 38.5z" />
    <glyph glyph-name="Aogonek" unicode="&#x104;" 
 />
    <glyph glyph-name="aogonek" unicode="&#x105;" 
 />
    <glyph glyph-name="Cacute" unicode="&#x106;" horiz-adv-x="664" 
d="M652 608q0 -56 -40.5 -94.5t-96.5 -38.5q-62 0 -100.5 38t-38.5 99q0 67 42 97q-92 0 -187 -100t-95 -193q0 -104 77 -212q80 -113 167 -113q36 0 113 27q74 27 107 49q2 -39 12 -90q-40 -26 -126 -54q-91 -29 -140 -29q-14 0 -22 2q-117 34 -204 167q-83 126 -83 253
q0 142 125 265t266 123q84 0 152 -55q72 -58 72 -141zM576 610q0 27 -17.5 45t-43.5 18q-27 0 -44 -18t-17 -45q0 -26 17.5 -43t43.5 -17q25 0 43 17.5t18 42.5zM394 999l-137 -170h-52l102 170h87z" />
    <glyph glyph-name="cacute" unicode="&#x107;" horiz-adv-x="587" 
d="M572 454q0 -42 -32.5 -70.5t-79.5 -28.5q-49 0 -81 28.5t-32 74.5q0 49 34 72q-75 0 -152 -74.5t-77 -144.5q0 -77 62 -158q66 -85 137 -85q29 0 92 21q60 19 87 36q2 -30 10 -67q-33 -20 -103 -41q-74 -22 -114 -22q-11 0 -18 2q-95 26 -166 125q-68 94 -68 189
q0 106 102 198t217 92q69 0 124 -41q58 -44 58 -106zM511 456q0 20 -14.5 33.5t-36.5 13.5q-21 0 -35 -13.5t-14 -33.5q0 -19 14 -32t35 -13t36 13t15 32zM237 685l-137 -170h-52l102 170h87z" />
    <glyph glyph-name="Ccircumflex" unicode="&#x108;" 
 />
    <glyph glyph-name="ccircumflex" unicode="&#x109;" 
 />
    <glyph glyph-name="Cdot" unicode="&#x10a;" 
 />
    <glyph glyph-name="cdot" unicode="&#x10b;" 
 />
    <glyph glyph-name="Ccaron" unicode="&#x10c;" horiz-adv-x="665" 
d="M651 608q0 -56 -40.5 -94.5t-96.5 -38.5q-62 0 -100.5 38t-38.5 99q0 67 42 97q-92 0 -187 -100t-95 -193q0 -104 77 -212q80 -113 167 -113q36 0 113 27q74 27 107 49q2 -39 12 -90q-40 -26 -126 -54q-91 -29 -140 -29q-14 0 -22 2q-117 34 -204 167q-83 126 -83 253
q0 142 125 265t266 123q84 0 152 -55q72 -58 72 -141zM575 610q0 27 -17.5 45t-43.5 18q-27 0 -44 -18t-17 -45q0 -26 17.5 -43t43.5 -17q25 0 43 17.5t18 42.5zM439 1039l-97 -170h-87l-96 170h53l87 -119l87 119h53z" />
    <glyph glyph-name="ccaron" unicode="&#x10d;" horiz-adv-x="601" 
d="M591 454q0 -42 -32.5 -70.5t-79.5 -28.5q-49 0 -81 28.5t-32 74.5q0 49 34 72q-75 0 -152 -74.5t-77 -144.5q0 -77 62 -158q66 -85 137 -85q29 0 92 21q60 19 87 36q2 -30 10 -67q-33 -20 -103 -41q-74 -22 -114 -22q-11 0 -18 2q-95 26 -166 125q-68 94 -68 189
q0 106 102 198t217 92q69 0 124 -41q58 -44 58 -106zM530 456q0 20 -14.5 33.5t-36.5 13.5q-21 0 -35 -13.5t-14 -33.5q0 -19 14 -32t35 -13t36 13t15 32zM302 805l-97 -170h-87l-96 170h53l87 -119l87 119h53z" />
    <glyph glyph-name="Dcaron" unicode="&#x10e;" 
 />
    <glyph glyph-name="dcaron" unicode="&#x10f;" 
 />
    <glyph glyph-name="Dslash" unicode="&#x110;" horiz-adv-x="816" 
d="M773 322q-17 -132 -44 -188q-63 -132 -191 -133l-225 -1q-92 -1 -121 37q-25 32 -25 128v469q0 98 24 128q28 35 122 36l164 1q62 0 101 -40t39 -102q0 -61 -38 -99.5t-99 -38.5q-62 0 -101 38.5t-39 99.5q0 12 9 47q-62 -2 -71 -6q-20 -10 -20 -64v-469q0 -46 7 -56
q9 -15 48 -14l225 1q80 0 115 76q16 35 37 155q7 39 7 73q0 105 -75 201l47 68q110 -115 110 -261q0 -38 -6 -86zM547 659q0 31 -18 50.5t-49 19.5q-32 0 -51.5 -19.5t-19.5 -50.5q0 -29 20 -49t48 -20q32 0 51 19t19 50zM373 409q-10 -21 -18 -33q-15 -22 -30 -29
q-23 -10 -65 -10q-22 0 -66 0.5t-66 0.5q-56 0 -91 -7q16 48 38.5 59t77.5 11q19 0 58 -0.5t59 -0.5q70 0 103 9z" />
    <glyph glyph-name="dcroat" unicode="&#x111;" horiz-adv-x="520" 
d="M22 281q-4 22 -4 45q0 92 55 172q59 84 144 100q25 5 61 5q94 0 144 -28v225l74 1v-325q-134 62 -197 66q-94 7 -155 -64q-56 -64 -56 -148q0 -18 4 -35q15 -78 77 -148q69 -77 145 -77q13 0 25 3q-62 28 -62 96q0 45 33 75q31 27 77 27t75.5 -30t29.5 -76
q0 -66 -57.5 -114t-125.5 -48q-97 0 -184 88q-82 84 -103 190zM330 168q0 -23 15.5 -39.5t38.5 -16.5t39.5 15t16.5 39q0 23 -15.5 39t-39.5 16q-22 0 -38.5 -15t-16.5 -38zM628 731q-10 -21 -18 -33q-15 -22 -30 -29q-23 -10 -65 -10q-22 0 -66 0.5t-66 0.5q-56 0 -91 -7
q16 48 38.5 59t77.5 11q19 0 58 -0.5t59 -0.5q70 0 103 9z" />
    <glyph glyph-name="Emacron" unicode="&#x112;" 
 />
    <glyph glyph-name="emacron" unicode="&#x113;" 
 />
    <glyph glyph-name="Ebreve" unicode="&#x114;" 
 />
    <glyph glyph-name="ebreve" unicode="&#x115;" 
 />
    <glyph glyph-name="Edot" unicode="&#x116;" 
 />
    <glyph glyph-name="edot" unicode="&#x117;" 
 />
    <glyph glyph-name="Eogonek" unicode="&#x118;" 
 />
    <glyph glyph-name="eogonek" unicode="&#x119;" 
 />
    <glyph glyph-name="Ecaron" unicode="&#x11a;" 
 />
    <glyph glyph-name="ecaron" unicode="&#x11b;" 
 />
    <glyph glyph-name="Gcircumflex" unicode="&#x11c;" 
 />
    <glyph glyph-name="gcircumflex" unicode="&#x11d;" 
 />
    <glyph glyph-name="Gbreve" unicode="&#x11e;" horiz-adv-x="621" 
d="M627 650l-56 -45q-95 126 -246 126q-91 0 -153 -51q-66 -55 -66 -146v-387q0 -44 17 -58q14 -11 57 -11h242q42 0 57.5 12.5t15.5 56.5v80q-39 -9 -51 -9q-61 0 -99.5 39t-38.5 100t38.5 99.5t99.5 38.5q63 0 102.5 -38.5t39.5 -101.5v-208q0 -95 -35 -123
q-31 -24 -129 -24h-242q-97 0 -129 25q-36 29 -36 122v387q0 126 92 199q85 67 214 67q89 0 172 -38q90 -41 134 -112zM521 357q0 33 -21 52t-54 19t-53 -20t-20 -53q0 -30 21.5 -51t51.5 -21q33 0 54 20.5t21 53.5zM420 1034q-11 -133 -139 -133t-138 133h44q7 -71 94 -71
q88 0 95 71h44z" />
    <glyph glyph-name="gbreve" unicode="&#x11f;" horiz-adv-x="539" 
d="M449 86q0 -41 -25 -64.5t-66 -23.5q-66 0 -97 52l-193 328l57 31l195 -326q12 -20 32 -20q25 0 25 28v308q-12 -7 -35 -7q-46 0 -75.5 30.5t-29.5 76.5q0 48 29 77t76 29q48 0 77.5 -30t29.5 -77v-412zM398 499q0 23 -16.5 37.5t-39.5 14.5q-21 0 -37 -15t-16 -37
q0 -23 15 -38.5t38 -15.5q24 0 40 15.5t16 38.5zM345 800q-11 -133 -139 -133t-138 133h44q7 -71 94 -71q88 0 95 71h44z" />
    <glyph glyph-name="Gdot" unicode="&#x120;" 
 />
    <glyph glyph-name="gdot" unicode="&#x121;" 
 />
    <glyph glyph-name="Gcedilla" unicode="&#x122;" 
 />
    <glyph glyph-name="gcedilla" unicode="&#x123;" 
 />
    <glyph glyph-name="Hcircumflex" unicode="&#x124;" 
 />
    <glyph glyph-name="hcircumflex" unicode="&#x125;" 
 />
    <glyph glyph-name="Hbar" unicode="&#x126;" 
 />
    <glyph glyph-name="hbar" unicode="&#x127;" 
 />
    <glyph glyph-name="Itilde" unicode="&#x128;" horiz-adv-x="572" 
d="M400 1348h53q-26 -97 -99 -97q-18 0 -54.5 10t-53.5 10q-29 0 -41 -30h-53q25 95 98 95q19 0 55.5 -10.5t53.5 -10.5q30 0 41 33zM509 900q-156 59 -316 59q-95 0 -168 -12q14 89 89 146q72 54 164 54q31 0 77 -22.5t67 -45.5v119h65v-223q12 -25 22 -75zM379 138
q0 -61 -38.5 -99.5t-99.5 -38.5t-100 37t-39 98v663q36 -2 94 0v-528q19 7 48 7q61 0 98 -39t37 -100zM434 966q-23 55 -66 89q-48 37 -104 37q-46 0 -88 -22q-49 -24 -61 -64q35 5 104 5q152 0 215 -45zM311 140q0 29 -20 48t-50 19q-29 0 -49.5 -19t-20.5 -48
q0 -32 19.5 -51.5t50.5 -19.5t50.5 20t19.5 51z" />
    <glyph glyph-name="itilde" unicode="&#x129;" horiz-adv-x="461" 
d="M333 1035h53q-26 -97 -99 -97q-18 0 -54.5 10t-53.5 10q-29 0 -41 -30h-53q25 95 98 95q19 0 55.5 -10.5t53.5 -10.5q30 0 41 33zM397 673q-116 44 -237 44q-70 0 -125 -9q11 67 67 109q53 40 122 40q23 0 58 -16.5t50 -33.5v89h49v-167q9 -19 16 -56zM300 103
q0 -45 -29 -74t-74 -29q-46 0 -75.5 28t-29.5 73v495q28 -1 71 0v-394q14 5 36 5q45 0 73 -29t28 -75zM341 722q-40 95 -127 95q-34 0 -66 -17q-36 -18 -46 -48q27 4 78 4q114 0 161 -34zM249 104q0 22 -15 36.5t-37 14.5t-37.5 -14t-15.5 -37t15 -37.5t38 -14.5t37.5 14.5
t14.5 37.5z" />
    <glyph glyph-name="Imacron" unicode="&#x12a;" 
 />
    <glyph glyph-name="imacron" unicode="&#x12b;" 
 />
    <glyph glyph-name="Ibreve" unicode="&#x12c;" 
 />
    <glyph glyph-name="ibreve" unicode="&#x12d;" 
 />
    <glyph glyph-name="Iogonek" unicode="&#x12e;" 
 />
    <glyph glyph-name="iogonek" unicode="&#x12f;" 
 />
    <glyph glyph-name="Idotaccent" unicode="&#x130;" horiz-adv-x="489" 
d="M524 900q-156 59 -316 59q-95 0 -168 -12q14 89 89 146q72 54 164 54q31 0 77 -22.5t67 -45.5v119h65v-223q12 -25 22 -75zM394 138q0 -61 -38.5 -99.5t-99.5 -38.5t-100 37t-39 98v663q36 -2 94 0v-528q19 7 48 7q61 0 98 -39t37 -100zM449 966q-23 55 -66 89
q-48 37 -104 37q-46 0 -88 -22q-49 -24 -61 -64q35 5 104 5q152 0 215 -45zM326 140q0 29 -20 48t-50 19q-29 0 -49.5 -19t-20.5 -48q0 -32 19.5 -51.5t50.5 -19.5t50.5 20t19.5 51zM89 980q0 -22 -16 -37.5t-38 -15.5q-23 0 -38 15t-15 38q0 21 15.5 37.5t37.5 16.5t38 -16
t16 -38z" />
    <glyph glyph-name="dotlessi" unicode="&#x131;" horiz-adv-x="204" 
d="M150 0h-90v451h90v-451z" />
    <glyph glyph-name="IJ" unicode="&#x132;" 
 />
    <glyph glyph-name="ij" unicode="&#x133;" 
 />
    <glyph glyph-name="Jcircumflex" unicode="&#x134;" 
 />
    <glyph glyph-name="jcircumflex" unicode="&#x135;" 
 />
    <glyph glyph-name="Kcedilla" unicode="&#x136;" 
 />
    <glyph glyph-name="kcedilla" unicode="&#x137;" 
 />
    <glyph glyph-name="kgreenlandic" unicode="&#x138;" 
 />
    <glyph glyph-name="Lacute" unicode="&#x139;" 
 />
    <glyph glyph-name="lacute" unicode="&#x13a;" 
 />
    <glyph glyph-name="Lcedilla" unicode="&#x13b;" 
 />
    <glyph glyph-name="lcedilla" unicode="&#x13c;" 
 />
    <glyph glyph-name="Lcaron" unicode="&#x13d;" 
 />
    <glyph glyph-name="lcaron" unicode="&#x13e;" 
 />
    <glyph glyph-name="Ldot" unicode="&#x13f;" 
 />
    <glyph glyph-name="ldot" unicode="&#x140;" 
 />
    <glyph glyph-name="Lslash" unicode="&#x141;" horiz-adv-x="488" 
d="M501 0h-422v261l-83 -57v90l83 57v332h97v-281l160 108v-90l-160 -108v-224h325v-88z" />
    <glyph glyph-name="lslash" unicode="&#x142;" horiz-adv-x="279" 
d="M247 381l-69 -48v-333h-90v289l-68 -48v71l68 48v323h90v-279l69 48v-71z" />
    <glyph glyph-name="Nacute" unicode="&#x143;" 
 />
    <glyph glyph-name="nacute" unicode="&#x144;" 
 />
    <glyph glyph-name="Ncedilla" unicode="&#x145;" 
 />
    <glyph glyph-name="ncedilla" unicode="&#x146;" 
 />
    <glyph glyph-name="Ncaron" unicode="&#x147;" 
 />
    <glyph glyph-name="ncaron" unicode="&#x148;" 
 />
    <glyph glyph-name="napostrophe" unicode="&#x149;" 
 />
    <glyph glyph-name="Eng" unicode="&#x14a;" 
 />
    <glyph glyph-name="eng" unicode="&#x14b;" 
 />
    <glyph glyph-name="Omacron" unicode="&#x14c;" 
 />
    <glyph glyph-name="omacron" unicode="&#x14d;" 
 />
    <glyph glyph-name="Obreve" unicode="&#x14e;" 
 />
    <glyph glyph-name="obreve" unicode="&#x14f;" 
 />
    <glyph glyph-name="Odblacute" unicode="&#x150;" 
 />
    <glyph glyph-name="odblacute" unicode="&#x151;" 
 />
    <glyph glyph-name="OE" unicode="&#x152;" horiz-adv-x="911" 
d="M901 0h-480q-109 0 -160 11q-119 25 -185 118q-63 87 -63 212q0 124 63 212q66 94 184 119q51 11 160 11h470v-87h-315v-207h306v-88h-306v-213h326v-88zM480 88v509h-43q-112 0 -167 -17q-83 -27 -125 -105q-30 -57 -30 -132t30 -133q41 -78 125 -105q55 -17 167 -17h43
z" />
    <glyph glyph-name="oe" unicode="&#x153;" horiz-adv-x="901" 
d="M862 211h-338q4 -64 42.5 -100t102.5 -36q85 0 185 64v-91q-86 -57 -193 -57q-119 0 -188 91q-80 -91 -187 -91q-101 0 -171 67.5t-70 167.5t70.5 167.5t171.5 67.5q118 0 184 -89q62 89 179 89q109 0 164 -73q48 -64 48 -177zM764 276q-4 48 -35.5 78.5t-79.5 30.5
q-105 0 -125 -109h240zM429 226q0 62 -42 105.5t-103 43.5t-103 -43.5t-42 -105.5t41.5 -106.5t103.5 -44.5t103.5 44.5t41.5 106.5z" />
    <glyph glyph-name="Racute" unicode="&#x154;" 
 />
    <glyph glyph-name="racute" unicode="&#x155;" 
 />
    <glyph glyph-name="Rcedilla" unicode="&#x156;" 
 />
    <glyph glyph-name="rcedilla" unicode="&#x157;" 
 />
    <glyph glyph-name="Rcaron" unicode="&#x158;" 
 />
    <glyph glyph-name="rcaron" unicode="&#x159;" 
 />
    <glyph glyph-name="Sacute" unicode="&#x15a;" 
 />
    <glyph glyph-name="sacute" unicode="&#x15b;" 
 />
    <glyph glyph-name="Scircumflex" unicode="&#x15c;" 
 />
    <glyph glyph-name="scircumflex" unicode="&#x15d;" 
 />
    <glyph glyph-name="Scedilla" unicode="&#x15e;" horiz-adv-x="695" 
d="M673 225q0 -104 -91 -170q-82 -61 -190 -61q-310 0 -310 162q0 65 41.5 108t106.5 43q62 0 100 -36.5t38 -98.5q0 -47 -23 -81q99 0 152 20q82 31 82 113q0 47 -56 96q-141 58 -376 162q-19 9 -37 39q-22 35 -22 72q0 114 99 167q78 42 202 42q49 0 93 -4l57 155
q23 -6 76 -25l-52 -144q55 -13 97 -36v-103q-36 32 -130 49q-72 14 -143 14q-203 0 -205 -115q-1 -27 101 -74l202 -84q119 -52 146 -87q15 -20 28.5 -59t13.5 -64zM297 168q0 29 -17.5 47t-47.5 18t-48.5 -17.5t-18.5 -47.5q0 -28 19.5 -47t47.5 -19q29 0 47 18.5t18 47.5z
M265 -167q0 -89 -122 -89q-45 0 -123 20v43q80 -18 122 -18q59 0 59 41q0 49 -67 49q-11 0 -26 -2l-1 94h36v-52q122 0 122 -86z" />
    <glyph glyph-name="scedilla" unicode="&#x15f;" horiz-adv-x="607" 
d="M580 168q0 -78 -68 -127q-61 -45 -142 -45q-232 0 -232 121q0 48 31 80t80 32q46 0 74.5 -27t28.5 -73q0 -36 -17 -61q175 0 175 100q0 34 -42 71q-105 44 -281 121q-14 7 -28 29q-16 27 -16 54q0 85 74 125q58 32 151 32q37 0 70 -4l42 117q17 -5 57 -19l-39 -108
q41 -10 73 -27v-77q-27 24 -97 37q-54 10 -107 10q-152 0 -154 -86q0 -25 149 -86q163 -66 187 -97q11 -15 21 -44t10 -48zM299 126q0 48 -48 48q-50 0 -50 -48q0 -21 14.5 -35.5t35.5 -14.5t34.5 14t13.5 36zM272 -187q0 -89 -122 -89q-45 0 -123 20v43q80 -18 122 -18
q59 0 59 41q0 49 -67 49q-11 0 -26 -2l-1 94h36v-52q122 0 122 -86z" />
    <glyph glyph-name="Scaron" unicode="&#x160;" horiz-adv-x="695" 
d="M677 225q0 -104 -91 -170q-82 -61 -190 -61q-310 0 -310 162q0 65 41.5 108t106.5 43q62 0 100 -36.5t38 -98.5q0 -47 -23 -81q99 0 152 20q82 31 82 113q0 47 -56 96q-141 58 -376 162q-19 9 -37 39q-22 35 -22 72q0 114 99 167q78 42 202 42q49 0 93 -4l57 155
q23 -6 76 -25l-52 -144q55 -13 97 -36v-103q-36 32 -130 49q-72 14 -143 14q-203 0 -205 -115q-1 -27 101 -74l202 -84q119 -52 146 -87q15 -20 28.5 -59t13.5 -64zM301 168q0 29 -17.5 47t-47.5 18t-48.5 -17.5t-18.5 -47.5q0 -28 19.5 -47t47.5 -19q29 0 47 18.5t18 47.5z
M308 1039l-97 -170h-87l-96 170h53l87 -119l87 119h53z" />
    <glyph glyph-name="scaron" unicode="&#x161;" horiz-adv-x="613" 
d="M582 168q0 -78 -68 -127q-61 -45 -142 -45q-232 0 -232 121q0 48 31 80t80 32q46 0 74.5 -27t28.5 -73q0 -36 -17 -61q175 0 175 100q0 34 -42 71q-105 44 -281 121q-14 7 -28 29q-16 27 -16 54q0 85 74 125q58 32 151 32q37 0 70 -4l42 117q17 -5 57 -19l-39 -108
q41 -10 73 -27v-77q-27 24 -97 37q-54 10 -107 10q-152 0 -154 -86q0 -25 149 -86q163 -66 187 -97q11 -15 21 -44t10 -48zM301 126q0 48 -48 48q-50 0 -50 -48q0 -21 14.5 -35.5t35.5 -14.5t34.5 14t13.5 36zM313 805l-97 -170h-87l-96 170h53l87 -119l87 119h53z" />
    <glyph glyph-name="Tcedilla" unicode="&#x162;" 
 />
    <glyph glyph-name="tcedilla" unicode="&#x163;" 
 />
    <glyph glyph-name="Tcaron" unicode="&#x164;" 
 />
    <glyph glyph-name="tcaron" unicode="&#x165;" 
 />
    <glyph glyph-name="Tbar" unicode="&#x166;" 
 />
    <glyph glyph-name="tbar" unicode="&#x167;" 
 />
    <glyph glyph-name="Utilde" unicode="&#x168;" horiz-adv-x="842" 
d="M591 971h53q-26 -97 -99 -97q-18 0 -54.5 10t-53.5 10q-29 0 -41 -30h-53q25 95 98 95q19 0 55.5 -10.5t53.5 -10.5q30 0 41 33zM790 153q0 -98 -38 -128q-32 -25 -133 -25h-388v527q-18 -7 -45 -7q-63 0 -104 41t-41 105q0 63 41 103t104 40t103.5 -41.5t40.5 -104.5
v-578h289q42 0 57 12t15 56v646h99v-646zM790 -444h-78v131q-17 -5 -38 -5q-49 0 -79 31.5t-30 80.5q0 51 31 82.5t82 31.5q49 0 80.5 -31t31.5 -80v-241zM735 -206q0 56 -57 56q-25 0 -42 -15.5t-17 -40.5t17 -40t42 -15q24 0 40.5 15.5t16.5 39.5zM259 663
q0 32 -20.5 52.5t-52.5 20.5t-52.5 -20t-20.5 -53q0 -31 21 -52t52 -21q32 0 52.5 20.5t20.5 52.5z" />
    <glyph glyph-name="utilde" unicode="&#x169;" horiz-adv-x="654" 
d="M611 99q0 -47 -31 -77.5t-79 -30.5q-47 0 -77.5 31t-30.5 79v211q-65 -145 -95 -192q-76 -121 -156 -121q-54 0 -85 42q-28 38 -28 94v465h74v-465q0 -69 43 -69q56 0 136 159q58 116 86 213q25 91 25 162h75v-396q13 5 33 5q48 0 79 -31t31 -79zM557 101q0 24 -16 39.5
t-40 15.5t-39 -15.5t-15 -39.5t15 -39t39 -15q56 0 56 54zM348 784h53q-26 -97 -99 -97q-18 0 -54.5 10t-53.5 10q-29 0 -41 -30h-53q25 95 98 95q19 0 55.5 -10.5t53.5 -10.5q30 0 41 33z" />
    <glyph glyph-name="Umacron" unicode="&#x16a;" 
 />
    <glyph glyph-name="umacron" unicode="&#x16b;" 
 />
    <glyph glyph-name="Ubreve" unicode="&#x16c;" 
 />
    <glyph glyph-name="ubreve" unicode="&#x16d;" 
 />
    <glyph glyph-name="Uring" unicode="&#x16e;" 
 />
    <glyph glyph-name="uring" unicode="&#x16f;" 
 />
    <glyph glyph-name="Udblacute" unicode="&#x170;" 
 />
    <glyph glyph-name="udblacute" unicode="&#x171;" 
 />
    <glyph glyph-name="Uogonek" unicode="&#x172;" 
 />
    <glyph glyph-name="uogonek" unicode="&#x173;" 
 />
    <glyph glyph-name="Wcircumflex" unicode="&#x174;" 
 />
    <glyph glyph-name="wcircumflex" unicode="&#x175;" 
 />
    <glyph glyph-name="Ycircumflex" unicode="&#x176;" 
 />
    <glyph glyph-name="ycircumflex" unicode="&#x177;" 
 />
    <glyph glyph-name="Ydieresis" unicode="&#x178;" horiz-adv-x="691" 
d="M644 261q0 -128 -92 -199q-83 -63 -215 -63q-91 0 -176 40q-93 43 -138 116l63 48q93 -127 247 -127q91 0 149 45q65 51 65 140v269q-60 -141 -110 -204q-83 -102 -196 -102q-93 0 -139 99q-35 74 -35 178q0 141 18 200q34 113 142 113q63 0 102 -40t39 -103
q0 -62 -40 -101.5t-101 -39.5q-38 0 -67 19q-5 -43 -5 -72q0 -64 18 -109q26 -63 81 -63q67 0 141 101q61 86 108 212q44 117 44 182h97v-539zM298 673q0 31 -20 51.5t-51 20.5t-51.5 -20.5t-20.5 -51.5q0 -32 20 -51.5t52 -19.5t51.5 19.5t19.5 51.5zM491 904
q0 -21 -14.5 -35t-35.5 -14q-20 0 -33.5 14.5t-13.5 34.5t14 34.5t33 14.5q20 0 35 -15t15 -34zM305 904q0 -21 -14.5 -35t-34.5 -14q-21 0 -34.5 14t-13.5 35q0 20 14 34.5t34 14.5q19 0 34 -15t15 -34z" />
    <glyph glyph-name="Zacute" unicode="&#x179;" 
 />
    <glyph glyph-name="zacute" unicode="&#x17a;" 
 />
    <glyph glyph-name="Zdot" unicode="&#x17b;" 
 />
    <glyph glyph-name="zdot" unicode="&#x17c;" 
 />
    <glyph glyph-name="Zcaron" unicode="&#x17d;" horiz-adv-x="617" 
d="M618 0h-583q0 68 11 95l30 48l344 561h-121q9 -21 9 -42q0 -62 -38.5 -101t-101.5 -39q-62 0 -100 39t-38 101q0 61 39.5 99.5t100.5 38.5h448v-96q-46 0 -69 -7q-33 -10 -51 -40l-308 -518q-8 -12 -8 -23q0 -19 19 -19l417 -1v-96zM241 662q0 29 -21 49t-50 20
q-30 0 -49.5 -19.5t-19.5 -49.5q0 -31 19 -51.5t50 -20.5t51 21t20 51zM353 1039l-97 -170h-87l-96 170h53l87 -119l87 119h53z" />
    <glyph glyph-name="zcaron" unicode="&#x17e;" horiz-adv-x="558" 
d="M550 0h-437q0 51 9.5 70t21.5 37l257 420h-90q6 -16 6 -31q0 -47 -29 -76t-76 -29q-46 0 -74 29t-28 76q0 46 29 74.5t75 28.5h336v-72q-69 0 -90 -35l-231 -388q-6 -9 -6 -17q0 -15 14 -15h313v-72zM267 496q0 21 -15.5 36.5t-37.5 15.5t-37 -15t-15 -37
q0 -24 14.5 -39.5t37.5 -15.5t38 16t15 39zM309 805l-97 -170h-87l-96 170h53l87 -119l87 119h53z" />
    <glyph glyph-name="longs" unicode="&#x17f;" 
 />
    <glyph glyph-name="florin" unicode="&#x192;" horiz-adv-x="506" 
d="M474 680l-13 -94q-23 10 -42 10q-50 0 -69 -56q-3 -9 -18 -98h90l-13 -87h-89l-54 -359q-14 -101 -42 -142q-39 -59 -127 -59q-37 0 -66 14l16 90q25 -8 38 -8q46 0 68 51q11 25 21 90l48 327h-83l14 83h82q19 128 38 168q40 83 136 83q26 0 65 -13z" />
    <glyph glyph-name="Ohorn" unicode="&#x1a0;" horiz-adv-x="661" 
d="M633 825q0 -52 -40 -67q-3 -1 -75 -11q-40 -6 -55.5 -3t10.5 16q17 9 57.5 13t55 10.5t19.5 30.5q-8 -21 -36 -21q-20 0 -33 13t-13 33q0 19 13.5 33t32.5 14q64 0 64 -61zM590 838q0 21 -21 21q-22 0 -22 -21t22 -21q21 0 21 21zM231 475q0 32 -20 52t-52 20
q-31 0 -51.5 -19t-20.5 -51t20 -52t52 -20q30 0 51 20.5t21 49.5zM351 11h-110q-85 0 -144 51q-62 54 -62 139v274q0 56 35.5 90t90.5 34q54 0 88 -34t34 -88t-33.5 -89t-88.5 -35q-11 0 -42 8v-160q0 -37 42.5 -77.5t79.5 -40.5h110q37 0 79.5 40.5t42.5 77.5v368
q0 77 -57 121q-52 39 -131 39q-122 0 -207 -135l-57 30q24 79 107 131q76 46 154 46q114 0 190 -58q85 -64 85 -174v-368q0 -84 -63 -138q-59 -52 -143 -52z" />
    <glyph glyph-name="ohorn" unicode="&#x1a1;" horiz-adv-x="501" 
d="M475 640q0 -52 -40 -67q-3 -1 -75 -11q-40 -6 -55.5 -3t10.5 16q17 9 57.5 13t55 10.5t19.5 30.5q-8 -21 -36 -21q-20 0 -33 13t-13 33q0 19 13.5 33t32.5 14q64 0 64 -61zM432 653q0 21 -21 21q-22 0 -22 -21t22 -21q21 0 21 21zM160 356q0 54 -54 54t-54 -53
q0 -24 15 -39t39 -15q22 0 38 15.5t16 37.5zM250 8h-83q-63 0 -107 38q-47 40 -47 104v206q0 41 26.5 67t68.5 26q40 0 65.5 -25.5t25.5 -66.5t-25 -67t-66 -26q-9 0 -32 6v-120q0 -28 32 -58t59 -30h83q28 0 60 30t32 58v276q0 58 -43 91q-39 29 -99 29q-91 0 -155 -101
l-43 22q19 60 81 99q56 34 115 34q86 0 143 -43q64 -48 64 -131v-276q0 -63 -46 -102.5t-109 -39.5z" />
    <glyph glyph-name="Uhorn" unicode="&#x1af;" horiz-adv-x="920" 
d="M884 880q0 -52 -40 -67q-3 -1 -75 -11q-40 -6 -55.5 -3t10.5 16q17 9 57.5 13t55 10.5t19.5 30.5q-8 -21 -36 -21q-20 0 -33 13t-13 33q0 19 13.5 33t32.5 14q64 0 64 -61zM841 893q0 21 -21 21q-22 0 -22 -21t22 -21q21 0 21 21zM790 153q0 -98 -38 -128
q-32 -25 -133 -25h-388v527q-18 -7 -45 -7q-63 0 -104 41t-41 105q0 63 41 103t104 40t103.5 -41.5t40.5 -104.5v-578h289q42 0 57 12t15 56v646h99v-646zM790 -444h-78v131q-17 -5 -38 -5q-49 0 -79 31.5t-30 80.5q0 51 31 82.5t82 31.5q49 0 80.5 -31t31.5 -80v-241z
M735 -206q0 56 -57 56q-25 0 -42 -15.5t-17 -40.5t17 -40t42 -15q24 0 40.5 15.5t16.5 39.5zM259 663q0 32 -20.5 52.5t-52.5 20.5t-52.5 -20t-20.5 -53q0 -31 21 -52t52 -21q32 0 52.5 20.5t20.5 52.5z" />
    <glyph glyph-name="uhorn" unicode="&#x1b0;" horiz-adv-x="637" 
d="M575 685q0 -52 -40 -67q-3 -1 -75 -11q-40 -6 -55.5 -3t10.5 16q17 9 57.5 13t55 10.5t19.5 30.5q-8 -21 -36 -21q-20 0 -33 13t-13 33q0 19 13.5 33t32.5 14q64 0 64 -61zM532 698q0 21 -21 21q-22 0 -22 -21t22 -21q21 0 21 21zM611 99q0 -47 -31 -77.5t-79 -30.5
q-47 0 -77.5 31t-30.5 79v211q-65 -145 -95 -192q-76 -121 -156 -121q-54 0 -85 42q-28 38 -28 94v465h74v-465q0 -69 43 -69q56 0 136 159q58 116 86 213q25 91 25 162h75v-396q13 5 33 5q48 0 79 -31t31 -79zM557 101q0 24 -16 39.5t-40 15.5t-39 -15.5t-15 -39.5t15 -39
t39 -15q56 0 56 54z" />
    <glyph glyph-name="uni01EB" unicode="&#x1eb;" horiz-adv-x="499" 
d="M188 356q0 54 -54 54t-54 -53q0 -24 15 -39t39 -15q22 0 38 15.5t16 37.5zM278 8h-83q-63 0 -107 38q-47 40 -47 104v206q0 41 26.5 67t68.5 26q40 0 65.5 -25.5t25.5 -66.5t-25 -67t-66 -26q-9 0 -32 6v-120q0 -28 32 -58t59 -30h83q28 0 60 30t32 58v276q0 58 -43 91
q-39 29 -99 29q-91 0 -155 -101l-43 22q19 60 81 99q56 34 115 34q86 0 143 -43q64 -48 64 -131v-276q0 -63 -46 -102.5t-109 -39.5zM433 -212h-39q-108 0 -108 80q0 58 92 132h35q-67 -61 -67 -109q0 -32 30 -39q5 -1 57 -1v-63z" />
    <glyph glyph-name="Aringacute" unicode="&#x1fa;" 
 />
    <glyph glyph-name="aringacute" unicode="&#x1fb;" 
 />
    <glyph glyph-name="AEacute" unicode="&#x1fc;" 
 />
    <glyph glyph-name="aeacute" unicode="&#x1fd;" 
 />
    <glyph glyph-name="Oslashacute" unicode="&#x1fe;" 
 />
    <glyph glyph-name="oslashacute" unicode="&#x1ff;" 
 />
    <glyph glyph-name="circumflex" unicode="&#x2c6;" horiz-adv-x="382" 
d="M330 630h-52l-87 118l-88 -118h-52l96 170h87z" />
    <glyph glyph-name="caron" unicode="&#x2c7;" horiz-adv-x="259" 
d="M269 805l-97 -170h-87l-96 170h53l87 -119l87 119h53z" />
    <glyph glyph-name="macron" unicode="&#x2c9;" horiz-adv-x="311" 
d="M270 744h-252v61h252v-61z" />
    <glyph glyph-name="breve" unicode="&#x2d8;" horiz-adv-x="363" 
d="M313 800q-11 -133 -139 -133t-138 133h44q7 -71 94 -71q88 0 95 71h44z" />
    <glyph glyph-name="dotaccent" unicode="&#x2d9;" horiz-adv-x="134" 
d="M143 746q0 -22 -16 -37.5t-38 -15.5q-23 0 -38 15t-15 38q0 21 15.5 37.5t37.5 16.5t38 -16t16 -38z" />
    <glyph glyph-name="ring" unicode="&#x2da;" horiz-adv-x="345" 
d="M290 680q0 -51 -35 -86t-86 -35t-86 35t-35 86t35 85.5t86 34.5t86 -34.5t35 -85.5zM239 679q0 29 -20 49.5t-50 20.5t-49.5 -20t-19.5 -50t20 -50t49 -20q30 0 50 20t20 50z" />
    <glyph glyph-name="ogonek" unicode="&#x2db;" horiz-adv-x="130" 
d="M139 -212h-39q-108 0 -108 80q0 58 92 132h35q-67 -61 -67 -109q0 -32 30 -39q5 -1 57 -1v-63z" />
    <glyph glyph-name="tilde" unicode="&#x2dc;" horiz-adv-x="297" 
d="M283 812q-24 -94 -97 -94q-17 0 -48.5 11t-48.5 11q-33 0 -47 -31h-43q22 91 97 91q17 0 48.5 -11.5t48.5 -11.5q34 0 47 35h43z" />
    <glyph glyph-name="hungarumlaut" unicode="&#x2dd;" horiz-adv-x="308" 
d="M296 800l-117 -170h-41l82 170h76zM161 800l-108 -170h-41l72 170h77z" />
    <glyph glyph-name="tonos" unicode="&#x384;" 
 />
    <glyph glyph-name="dieresistonos" unicode="&#x385;" 
 />
    <glyph glyph-name="Alphatonos" unicode="&#x386;" 
 />
    <glyph glyph-name="anoteleia" unicode="&#x387;" 
 />
    <glyph glyph-name="Epsilontonos" unicode="&#x388;" 
 />
    <glyph glyph-name="Etatonos" unicode="&#x389;" 
 />
    <glyph glyph-name="Iotatonos" unicode="&#x38a;" 
 />
    <glyph glyph-name="Omicrontonos" unicode="&#x38c;" 
 />
    <glyph glyph-name="Upsilontonos" unicode="&#x38e;" 
 />
    <glyph glyph-name="Omegatonos" unicode="&#x38f;" 
 />
    <glyph glyph-name="iotadieresistonos" unicode="&#x390;" 
 />
    <glyph glyph-name="Alpha" unicode="&#x391;" horiz-adv-x="850" 
d="M818 646q0 -10 -22 -275q-1 -7 -18 -26q-22 -24 -27 -32q-51 -75 -117 -129q-41 -34 -123 -83q-89 -53 -133 -86q-5 -4 -45 -11q-3 60 -63 116q-45 18 -89 36q-85 39 -85 71q0 3 6.5 17t6.5 17q0 2 -18 29q0 7 -4 21q-13 22 -13 35q0 5 2 10.5t2 7.5q0 12 -25 26.5
t-25 30.5q0 15 29 54q34 47 37.5 54.5t3.5 19.5q0 8 -2.5 28t-1.5 28l36 171q-5 7 -17 7h-17v43q17 20 33.5 41t21.5 37l46 14q29 10 29 28q13 2 96 7q78 4 94 4q3 0 7 -2.5t8 -2.5q3 0 25 9t25 9q4 0 17 -4t16 -4t5 1.5t5 1.5q32 0 82 -14q22 -18 71 -51q17 -3 52 -23
q43 -41 68 -114q21 -62 21 -117z" />
    <glyph glyph-name="Beta" unicode="&#x392;" 
 />
    <glyph glyph-name="Gamma" unicode="&#x393;" 
 />
    <glyph glyph-name="increment.001" unicode="&#x394;" horiz-adv-x="648" 
d="M671 0h-675l283 719h109zM537 87l-204 529l-204 -529h408z" />
    <glyph glyph-name="Epsilon" unicode="&#x395;" 
 />
    <glyph glyph-name="Zeta" unicode="&#x396;" 
 />
    <glyph glyph-name="Eta" unicode="&#x397;" 
 />
    <glyph glyph-name="Theta" unicode="&#x398;" 
 />
    <glyph glyph-name="Theta" unicode="&#x472;" 
 />
    <glyph glyph-name="Iota" unicode="&#x399;" 
 />
    <glyph glyph-name="Kappa" unicode="&#x39a;" 
 />
    <glyph glyph-name="Lambda" unicode="&#x39b;" 
 />
    <glyph glyph-name="Mu" unicode="&#x39c;" 
 />
    <glyph glyph-name="Nu" unicode="&#x39d;" horiz-adv-x="971" 
d="M930 203q-2 -9 -21 -40q-16 -26 -14 -39q-1 1 -2.5 3.5t-3.5 3.5q-4 -6 -2 -14q4 -12 4 -13q0 -6 -4 -11q-12 -8 -32 -26q-16 -27 -32 -53q-32 -46 -61 -46q-19 0 -35 51q-24 81 -25 81q0 -1 -16 -61q-10 -37 -39 -37h-395q-15 42 -25 83q-4 15 -11 17q-41 9 -83 17
q-71 22 -71 67q0 3 5.5 21t5.5 20q0 3 -10.5 17.5t-10.5 18.5q0 3 13 23q-16 21 -16 34q0 3 10.5 19.5t13.5 24.5q-13 10 -25 21t-12 22q0 13 29 31q38 25 52 40q-20 18 -28 40q9 -6 30 -15v11q-28 16 -44 71q-13 43 -13 83q0 42 32 92.5t85 89.5l-8 -12q-6 -10 -4 -16
q23 49 75 73q28 12 86 22q-22 -10 -44 -21q-30 -15 -42 -35q93 54 138 71q61 23 137 23q100 0 188 -62q85 -58 116 -142q15 -38 29 -125q11 -61 33 -80q-1 -30 -6 -75t-5 -49q0 -11 17 -33q27 -33 32 -40q1 -2 1 -14q0 -1 -15 -54q-3 17 -7 34q-7 22 -26 39z" />
    <glyph glyph-name="Xi" unicode="&#x39e;" 
 />
    <glyph glyph-name="Omicron" unicode="&#x39f;" horiz-adv-x="738" 
d="M717 722q0 -34 -21 -56t-56 -22q-34 0 -56 22t-22 56t22.5 55.5t55.5 21.5q34 0 55.5 -21.5t21.5 -55.5zM678 373q0 -171 -80 -268q-87 -105 -252 -105t-251 105q-81 98 -81 268q0 178 80 295q90 132 252 132q147 0 234 -97q98 -111 98 -330zM683 722q0 18 -12.5 30
t-30.5 12q-43 0 -43 -42q0 -18 12.5 -30t30.5 -12q43 0 43 42zM581 373q0 136 -56 230q-64 107 -179 107q-114 0 -178 -108q-56 -93 -56 -229q0 -285 234 -285q235 0 235 285z" />
    <glyph glyph-name="Pi" unicode="&#x3a0;" 
 />
    <glyph glyph-name="Rho" unicode="&#x3a1;" 
 />
    <glyph glyph-name="Sigma" unicode="&#x3a3;" 
 />
    <glyph glyph-name="Tau" unicode="&#x3a4;" 
 />
    <glyph glyph-name="Upsilon" unicode="&#x3a5;" 
 />
    <glyph glyph-name="Phi" unicode="&#x3a6;" 
 />
    <glyph glyph-name="Chi" unicode="&#x3a7;" 
 />
    <glyph glyph-name="Psi" unicode="&#x3a8;" 
 />
    <glyph glyph-name="Psi" unicode="&#x470;" 
 />
    <glyph glyph-name="Omega" unicode="&#x3a9;" horiz-adv-x="753" 
d="M726 0h-293v87q87 47 135 128.5t48 179.5q0 112 -60 183q-63 76 -174 76q-110 0 -174 -76q-61 -71 -61 -183q0 -99 48.5 -180t135.5 -128v-87h-293v87h156q-148 130 -148 303q0 153 92 250.5t244 97.5q150 0 243 -96.5t93 -246.5q0 -97 -37 -172q-35 -69 -111 -136h156
v-87z" />
    <glyph glyph-name="Iotadieresis" unicode="&#x3aa;" 
 />
    <glyph glyph-name="Upsilondieresis" unicode="&#x3ab;" 
 />
    <glyph glyph-name="alphatonos" unicode="&#x3ac;" 
 />
    <glyph glyph-name="epsilontonos" unicode="&#x3ad;" 
 />
    <glyph glyph-name="etatonos" unicode="&#x3ae;" 
 />
    <glyph glyph-name="iotatonos" unicode="&#x3af;" 
 />
    <glyph glyph-name="upsilondieresistonos" unicode="&#x3b0;" 
 />
    <glyph glyph-name="alpha" unicode="&#x3b1;" 
 />
    <glyph glyph-name="beta" unicode="&#x3b2;" 
 />
    <glyph glyph-name="gamma" unicode="&#x3b3;" 
 />
    <glyph glyph-name="delta" unicode="&#x3b4;" 
 />
    <glyph glyph-name="epsilon" unicode="&#x3b5;" 
 />
    <glyph glyph-name="zeta" unicode="&#x3b6;" 
 />
    <glyph glyph-name="eta" unicode="&#x3b7;" 
 />
    <glyph glyph-name="theta" unicode="&#x3b8;" 
 />
    <glyph glyph-name="theta" unicode="&#x473;" 
 />
    <glyph glyph-name="iota" unicode="&#x3b9;" 
 />
    <glyph glyph-name="kappa" unicode="&#x3ba;" 
 />
    <glyph glyph-name="lambda" unicode="&#x3bb;" 
 />
    <glyph glyph-name="mu" unicode="&#x3bc;" horiz-adv-x="659" 
d="M616 523l-76 -357q-11 -51 -11 -65q0 -33 34 -33q7 0 17 1l-15 -70q-24 -5 -53 -5q-57 0 -73 63q-43 -64 -132 -64q-77 0 -125 57l-54 -259h-88l155 732h88l-63 -293q-7 -32 -7 -65q0 -101 98 -101q75 0 116 64q27 43 46 133l56 262h87z" />
    <glyph glyph-name="nu" unicode="&#x3bd;" 
 />
    <glyph glyph-name="xi" unicode="&#x3be;" 
 />
    <glyph glyph-name="omicron" unicode="&#x3bf;" 
 />
    <glyph glyph-name="pi" unicode="&#x3c0;" horiz-adv-x="658" 
d="M628 523l-17 -77h-89l-51 -238q-15 -68 -15 -92q0 -52 50 -52q13 0 49 5l-15 -69q-29 -8 -54 -8q-117 0 -117 99q0 52 28 187l38 168h-159l-95 -446h-88l95 446h-20q-52 0 -60 -65h-78q13 80 48 111t116 31h434z" />
    <glyph glyph-name="rho" unicode="&#x3c1;" 
 />
    <glyph glyph-name="sigma1" unicode="&#x3c2;" 
 />
    <glyph glyph-name="sigma" unicode="&#x3c3;" 
 />
    <glyph glyph-name="tau" unicode="&#x3c4;" 
 />
    <glyph glyph-name="upsilon" unicode="&#x3c5;" 
 />
    <glyph glyph-name="phi" unicode="&#x3c6;" 
 />
    <glyph glyph-name="chi" unicode="&#x3c7;" 
 />
    <glyph glyph-name="psi" unicode="&#x3c8;" 
 />
    <glyph glyph-name="psi" unicode="&#x471;" 
 />
    <glyph glyph-name="omega" unicode="&#x3c9;" 
 />
    <glyph glyph-name="iotadieresis" unicode="&#x3ca;" 
 />
    <glyph glyph-name="upsilondieresis" unicode="&#x3cb;" 
 />
    <glyph glyph-name="omicrontonos" unicode="&#x3cc;" 
 />
    <glyph glyph-name="upsilontonos" unicode="&#x3cd;" 
 />
    <glyph glyph-name="omegatonos" unicode="&#x3ce;" 
 />
    <glyph glyph-name="afii10023" unicode="&#x401;" 
 />
    <glyph glyph-name="afii10051" unicode="&#x402;" 
 />
    <glyph glyph-name="afii10052" unicode="&#x403;" 
 />
    <glyph glyph-name="afii10053" unicode="&#x404;" 
 />
    <glyph glyph-name="afii10054" unicode="&#x405;" 
 />
    <glyph glyph-name="afii10055" unicode="&#x406;" 
 />
    <glyph glyph-name="afii10056" unicode="&#x407;" 
 />
    <glyph glyph-name="afii10057" unicode="&#x408;" 
 />
    <glyph glyph-name="afii10058" unicode="&#x409;" 
 />
    <glyph glyph-name="afii10059" unicode="&#x40a;" 
 />
    <glyph glyph-name="afii10060" unicode="&#x40b;" 
 />
    <glyph glyph-name="afii10061" unicode="&#x40c;" 
 />
    <glyph glyph-name="afii10062" unicode="&#x40e;" 
 />
    <glyph glyph-name="afii10145" unicode="&#x40f;" 
 />
    <glyph glyph-name="afii10017" unicode="&#x410;" 
 />
    <glyph glyph-name="afii10018" unicode="&#x411;" 
 />
    <glyph glyph-name="afii10019" unicode="&#x412;" 
 />
    <glyph glyph-name="afii10020" unicode="&#x413;" 
 />
    <glyph glyph-name="afii10021" unicode="&#x414;" 
 />
    <glyph glyph-name="afii10022" unicode="&#x415;" 
 />
    <glyph glyph-name="afii10024" unicode="&#x416;" 
 />
    <glyph glyph-name="afii10025" unicode="&#x417;" 
 />
    <glyph glyph-name="afii10026" unicode="&#x418;" 
 />
    <glyph glyph-name="afii10027" unicode="&#x419;" 
 />
    <glyph glyph-name="afii10028" unicode="&#x41a;" 
 />
    <glyph glyph-name="afii10029" unicode="&#x41b;" 
 />
    <glyph glyph-name="afii10030" unicode="&#x41c;" 
 />
    <glyph glyph-name="afii10031" unicode="&#x41d;" 
 />
    <glyph glyph-name="afii10032" unicode="&#x41e;" 
 />
    <glyph glyph-name="afii10033" unicode="&#x41f;" 
 />
    <glyph glyph-name="afii10034" unicode="&#x420;" 
 />
    <glyph glyph-name="afii10035" unicode="&#x421;" 
 />
    <glyph glyph-name="afii10036" unicode="&#x422;" 
 />
    <glyph glyph-name="afii10037" unicode="&#x423;" 
 />
    <glyph glyph-name="afii10038" unicode="&#x424;" 
 />
    <glyph glyph-name="afii10039" unicode="&#x425;" 
 />
    <glyph glyph-name="afii10040" unicode="&#x426;" 
 />
    <glyph glyph-name="afii10041" unicode="&#x427;" 
 />
    <glyph glyph-name="afii10042" unicode="&#x428;" 
 />
    <glyph glyph-name="afii10043" unicode="&#x429;" 
 />
    <glyph glyph-name="afii10044" unicode="&#x42a;" 
 />
    <glyph glyph-name="afii10045" unicode="&#x42b;" 
 />
    <glyph glyph-name="afii10046" unicode="&#x42c;" 
 />
    <glyph glyph-name="afii10047" unicode="&#x42d;" 
 />
    <glyph glyph-name="afii10048" unicode="&#x42e;" 
 />
    <glyph glyph-name="afii10049" unicode="&#x42f;" 
 />
    <glyph glyph-name="afii10065" unicode="&#x430;" 
 />
    <glyph glyph-name="afii10066" unicode="&#x431;" 
 />
    <glyph glyph-name="afii10067" unicode="&#x432;" 
 />
    <glyph glyph-name="afii10068" unicode="&#x433;" 
 />
    <glyph glyph-name="afii10069" unicode="&#x434;" 
 />
    <glyph glyph-name="afii10070" unicode="&#x435;" 
 />
    <glyph glyph-name="afii10072" unicode="&#x436;" 
 />
    <glyph glyph-name="afii10073" unicode="&#x437;" 
 />
    <glyph glyph-name="afii10074" unicode="&#x438;" 
 />
    <glyph glyph-name="afii10075" unicode="&#x439;" 
 />
    <glyph glyph-name="afii10076" unicode="&#x43a;" 
 />
    <glyph glyph-name="afii10077" unicode="&#x43b;" 
 />
    <glyph glyph-name="afii10078" unicode="&#x43c;" 
 />
    <glyph glyph-name="afii10079" unicode="&#x43d;" 
 />
    <glyph glyph-name="afii10080" unicode="&#x43e;" 
 />
    <glyph glyph-name="afii10081" unicode="&#x43f;" 
 />
    <glyph glyph-name="afii10082" unicode="&#x440;" 
 />
    <glyph glyph-name="afii10083" unicode="&#x441;" 
 />
    <glyph glyph-name="afii10084" unicode="&#x442;" 
 />
    <glyph glyph-name="afii10085" unicode="&#x443;" 
 />
    <glyph glyph-name="afii10086" unicode="&#x444;" 
 />
    <glyph glyph-name="afii10087" unicode="&#x445;" 
 />
    <glyph glyph-name="afii10088" unicode="&#x446;" 
 />
    <glyph glyph-name="afii10089" unicode="&#x447;" 
 />
    <glyph glyph-name="afii10090" unicode="&#x448;" 
 />
    <glyph glyph-name="afii10091" unicode="&#x449;" 
 />
    <glyph glyph-name="afii10092" unicode="&#x44a;" 
 />
    <glyph glyph-name="afii10093" unicode="&#x44b;" 
 />
    <glyph glyph-name="afii10094" unicode="&#x44c;" 
 />
    <glyph glyph-name="afii10095" unicode="&#x44d;" 
 />
    <glyph glyph-name="afii10096" unicode="&#x44e;" 
 />
    <glyph glyph-name="afii10097" unicode="&#x44f;" 
 />
    <glyph glyph-name="afii10071" unicode="&#x451;" 
 />
    <glyph glyph-name="afii10099" unicode="&#x452;" 
 />
    <glyph glyph-name="afii10100" unicode="&#x453;" 
 />
    <glyph glyph-name="afii10101" unicode="&#x454;" 
 />
    <glyph glyph-name="afii10102" unicode="&#x455;" 
 />
    <glyph glyph-name="afii10103" unicode="&#x456;" 
 />
    <glyph glyph-name="afii10104" unicode="&#x457;" 
 />
    <glyph glyph-name="afii10105" unicode="&#x458;" 
 />
    <glyph glyph-name="afii10106" unicode="&#x459;" 
 />
    <glyph glyph-name="afii10107" unicode="&#x45a;" 
 />
    <glyph glyph-name="afii10108" unicode="&#x45b;" 
 />
    <glyph glyph-name="afii10109" unicode="&#x45c;" 
 />
    <glyph glyph-name="afii10110" unicode="&#x45e;" 
 />
    <glyph glyph-name="afii10193" unicode="&#x45f;" 
 />
    <glyph glyph-name="afii10050" unicode="&#x490;" 
 />
    <glyph glyph-name="afii10098" unicode="&#x491;" 
 />
    <glyph glyph-name="Wgrave" unicode="&#x1e80;" 
 />
    <glyph glyph-name="wgrave" unicode="&#x1e81;" 
 />
    <glyph glyph-name="Wacute" unicode="&#x1e82;" 
 />
    <glyph glyph-name="wacute" unicode="&#x1e83;" 
 />
    <glyph glyph-name="Wdieresis" unicode="&#x1e84;" 
 />
    <glyph glyph-name="wdieresis" unicode="&#x1e85;" 
 />
    <glyph glyph-name="uni1EA0" unicode="&#x1ea0;" horiz-adv-x="699" 
d="M345 -82q0 -15 12.5 -26.5t29.5 -11.5t29.5 11.5t12.5 26.5t-12.5 26t-29.5 11t-29.5 -11t-12.5 -26zM661 0h-92v486h-45q-19 1 -45 1q-124 0 -137 -9q-48 -35 -48 -150q0 -25 2.5 -76.5t2.5 -77.5q0 -89 -25 -131q-33 -56 -117 -56q-61 0 -99.5 39t-38.5 101
q0 61 38.5 99t99.5 38q29 0 45 -10q0 15 -1 43v41q0 72 18 110q25 51 93 76q-12 10 -90 32t-101 24q17 24 58 58q52 42 63 54q57 57 79 73q49 35 103 35q91 0 166 -100q71 -94 71 -191v-509zM572 573q-12 35 -59 88q-50 56 -76 56q-49 0 -97 -40q-39 -38 -77 -75
q32 -14 73 -28q52 -3 236 -1zM228 127q0 30 -20.5 48.5t-50.5 18.5q-28 0 -49.5 -19.5t-21.5 -47.5q0 -30 20.5 -50.5t50.5 -20.5q32 0 51.5 19.5t19.5 51.5z" />
    <glyph glyph-name="uni1EA1" unicode="&#x1ea1;" horiz-adv-x="528" 
d="M260 -68q0 -14 9 -23.5t23 -9.5t23.5 9.5t9.5 23.5t-9.5 23t-23.5 9t-23 -9t-9 -23zM493 0h-73q0 81 -68 205q-76 136 -151 136q-74 0 -74 -99q0 -22 3 -54q22 14 51 14q46 0 75.5 -29.5t29.5 -75.5q0 -47 -29 -77t-76 -30q-81 0 -107 84q-13 44 -13 150q0 73 26 119
q33 59 104 59q87 0 147 -62q43 -45 82 -138v202q0 67 -48 104q-43 33 -112 33q-55 0 -94 -24q-35 -21 -71 -70l-47 36q70 115 215 115q100 0 161 -46q69 -52 69 -148v-404zM234 95q0 24 -15 38.5t-38 14.5q-54 0 -54 -53q0 -23 15 -38.5t39 -15.5q23 0 38 15.5t15 38.5z" />
    <glyph glyph-name="uni1EA2" unicode="&#x1ea2;" horiz-adv-x="699" 
d="M390 855q2 59 67 124q14 16 13 30q-2 11 -16 19q-8 4 -19.5 3.5t-25 -4t-26 -9.5t-22.5 -12l-40 52q5 3 16.5 9.5t27 12.5t33.5 11t38 5q13 0 27 -3t28 -11q42 -24 45 -67q8 -45 -30 -81v0q-46 -43 -48 -79h-68zM661 0h-92v486h-45q-19 1 -45 1q-124 0 -137 -9
q-48 -35 -48 -150q0 -25 2.5 -76.5t2.5 -77.5q0 -89 -25 -131q-33 -56 -117 -56q-61 0 -99.5 39t-38.5 101q0 61 38.5 99t99.5 38q29 0 45 -10q0 15 -1 43v41q0 72 18 110q25 51 93 76q-12 10 -90 32t-101 24q17 24 58 58q52 42 63 54q57 57 79 73q49 35 103 35
q91 0 166 -100q71 -94 71 -191v-509zM572 573q-12 35 -59 88q-50 56 -76 56q-49 0 -97 -40q-39 -38 -77 -75q32 -14 73 -28q52 -3 236 -1zM228 127q0 30 -20.5 48.5t-50.5 18.5q-28 0 -49.5 -19.5t-21.5 -47.5q0 -30 20.5 -50.5t50.5 -20.5q32 0 51.5 19.5t19.5 51.5z" />
    <glyph glyph-name="uni1EA3" unicode="&#x1ea3;" horiz-adv-x="528" 
d="M263 640q2 44 46 92q10 12 9 23q-1 8 -11 14q-5 3 -13 2.5t-17.5 -3t-18 -7t-15.5 -9.5l-27 39q3 2 11 7t18.5 9.5t23 8t26.5 3.5q9 0 18.5 -2t19.5 -8q28 -18 31 -50q5 -33 -21 -60v0q-32 -32 -33 -59h-47zM493 0h-73q0 81 -68 205q-76 136 -151 136q-74 0 -74 -99
q0 -22 3 -54q22 14 51 14q46 0 75.5 -29.5t29.5 -75.5q0 -47 -29 -77t-76 -30q-81 0 -107 84q-13 44 -13 150q0 73 26 119q33 59 104 59q87 0 147 -62q43 -45 82 -138v202q0 67 -48 104q-43 33 -112 33q-55 0 -94 -24q-35 -21 -71 -70l-47 36q70 115 215 115q100 0 161 -46
q69 -52 69 -148v-404zM234 95q0 24 -15 38.5t-38 14.5q-54 0 -54 -53q0 -23 15 -38.5t39 -15.5q23 0 38 15.5t15 38.5z" />
    <glyph glyph-name="uni1EA4" unicode="&#x1ea4;" horiz-adv-x="760" 
d="M535 955q0 52 40 67q3 1 75 11q40 6 40 34h31q0 -34 -26 -47q-17 -9 -57.5 -13t-55 -10.5t-19.5 -30.5q8 21 36 21q20 0 33 -13t13 -33q0 -19 -13.5 -33t-32.5 -14q-64 0 -64 61zM578 942q0 -21 21 -21q22 0 22 21t-22 21q-21 0 -21 -21zM661 0h-92v486h-45q-19 1 -45 1
q-124 0 -137 -9q-48 -35 -48 -150q0 -25 2.5 -76.5t2.5 -77.5q0 -89 -25 -131q-33 -56 -117 -56q-61 0 -99.5 39t-38.5 101q0 61 38.5 99t99.5 38q29 0 45 -10q0 15 -1 43v41q0 72 18 110q25 51 93 76q-12 10 -90 32t-101 24q17 24 58 58q52 42 63 54q57 57 79 73
q49 35 103 35q91 0 166 -100q71 -94 71 -191v-509zM572 573q-12 35 -59 88q-50 56 -76 56q-49 0 -97 -40q-39 -38 -77 -75q32 -14 73 -28q52 -3 236 -1zM228 127q0 30 -20.5 48.5t-50.5 18.5q-28 0 -49.5 -19.5t-21.5 -47.5q0 -30 20.5 -50.5t50.5 -20.5q32 0 51.5 19.5
t19.5 51.5zM570 818h-52l-87 118l-88 -118h-52l96 170h87z" />
    <glyph glyph-name="uni1EA5" unicode="&#x1ea5;" horiz-adv-x="608" 
d="M391 733q0 52 40 67q3 1 75 11q40 6 40 34h31q0 -34 -26 -47q-17 -9 -57.5 -13t-55 -10.5t-19.5 -30.5q8 21 36 21q20 0 33 -13t13 -33q0 -19 -13.5 -33t-32.5 -14q-64 0 -64 61zM434 720q0 -21 21 -21q22 0 22 21t-22 21q-21 0 -21 -21zM508 9h-73q0 81 -68 205
q-76 136 -151 136q-74 0 -74 -99q0 -22 3 -54q22 14 51 14q46 0 75.5 -29.5t29.5 -75.5q0 -47 -29 -77t-76 -30q-81 0 -107 84q-13 44 -13 150q0 73 26 119q33 59 104 59q87 0 147 -62q43 -45 82 -138v202q0 67 -48 104q-43 33 -112 33q-55 0 -94 -24q-35 -21 -71 -70
l-47 36q70 115 215 115q100 0 161 -46q69 -52 69 -148v-404zM249 104q0 24 -15 38.5t-38 14.5q-54 0 -54 -53q0 -23 15 -38.5t39 -15.5q23 0 38 15.5t15 38.5zM417 629h-52l-87 118l-88 -118h-52l96 170h87z" />
    <glyph glyph-name="uni1EA6" unicode="&#x1ea6;" horiz-adv-x="738" 
d="M662 0h-92v486h-45q-19 1 -45 1q-124 0 -137 -9q-48 -35 -48 -150q0 -25 2.5 -76.5t2.5 -77.5q0 -89 -25 -131q-33 -56 -117 -56q-61 0 -99.5 39t-38.5 101q0 61 38.5 99t99.5 38q29 0 45 -10q0 15 -1 43v41q0 72 18 110q25 51 93 76q-12 10 -90 32t-101 24q17 24 58 58
q52 42 63 54q57 57 79 73q49 35 103 35q91 0 166 -100q71 -94 71 -191v-509zM573 573q-12 35 -59 88q-50 56 -76 56q-49 0 -97 -40q-39 -38 -77 -75q32 -14 73 -28q52 -3 236 -1zM229 127q0 30 -20.5 48.5t-50.5 18.5q-28 0 -49.5 -19.5t-21.5 -47.5q0 -30 20.5 -50.5
t50.5 -20.5q32 0 51.5 19.5t19.5 51.5zM569 821h-52l-87 118l-88 -118h-52l96 170h87zM697.301 970.996q0 -62.7646 -62.2812 -62.7646q-18.4902 0 -31.6279 14.4053q-13.1377 14.4043 -13.1377 33.9541q0 20.5791 12.6514 33.9551t32.1143 13.376
q27.248 0 35.0332 -21.6074q-4.86621 24.6943 -18.9766 31.3818q-14.1113 6.68848 -53.5234 10.8037q-39.4121 4.11621 -55.9551 13.377q-25.3027 13.376 -25.3027 48.3594h30.168q0 -28.8105 38.9258 -34.9834q70.0664 -10.29 72.9863 -11.3184
q38.9258 -15.4346 38.9258 -68.9385zM655.455 957.62q0 21.6074 -20.4355 21.6074q-21.4102 0 -21.4102 -21.6074t21.4102 -21.6074q20.4355 0 20.4355 21.6074z" />
    <glyph glyph-name="uni1EA7" unicode="&#x1ea7;" horiz-adv-x="565" 
d="M529 0h-73q0 81 -68 205q-76 136 -151 136q-74 0 -74 -99q0 -22 3 -54q22 14 51 14q46 0 75.5 -29.5t29.5 -75.5q0 -47 -29 -77t-76 -30q-81 0 -107 84q-13 44 -13 150q0 73 26 119q33 59 104 59q87 0 147 -62q43 -45 82 -138v202q0 67 -48 104q-43 33 -112 33
q-55 0 -94 -24q-35 -21 -71 -70l-47 36q70 115 215 115q100 0 161 -46q69 -52 69 -148v-404zM270 95q0 24 -15 38.5t-38 14.5q-54 0 -54 -53q0 -23 15 -38.5t39 -15.5q23 0 38 15.5t15 38.5zM431 615h-52l-87 118l-88 -118h-52l96 170h87zM535 754q0 -61 -64 -61
q-19 0 -32.5 14t-13.5 33q0 20 13 33t33 13q28 0 36 -21q-5 24 -19.5 30.5t-55 10.5t-57.5 13q-26 13 -26 47h31q0 -28 40 -34q72 -10 75 -11q40 -15 40 -67zM492 741q0 21 -21 21q-22 0 -22 -21t22 -21q21 0 21 21z" />
    <glyph glyph-name="uni1EA8" unicode="&#x1ea8;" horiz-adv-x="734" 
d="M554 910q1 55 71 114q16 15 14 28q-2 11 -17 18q-8 4 -21 3.5t-27 -3.5t-27.5 -9.5t-24.5 -12.5l-44 48q6 4 18 10t29 12t36.5 10.5t39.5 4.5q15 0 30.5 -3t29.5 -9q45 -22 50 -62q8 -42 -32 -75v1q-50 -42 -52 -75h-73zM664 0h-92v486h-45q-19 1 -45 1q-124 0 -137 -9
q-48 -35 -48 -150q0 -25 2.5 -76.5t2.5 -77.5q0 -89 -25 -131q-33 -56 -117 -56q-61 0 -99.5 39t-38.5 101q0 61 38.5 99t99.5 38q29 0 45 -10q0 15 -1 43v41q0 72 18 110q25 51 93 76q-12 10 -90 32t-101 24q17 24 58 58q52 42 63 54q57 57 79 73q49 35 103 35
q91 0 166 -100q71 -94 71 -191v-509zM575 573q-12 35 -59 88q-50 56 -76 56q-49 0 -97 -40q-39 -38 -77 -75q32 -14 73 -28q52 -3 236 -1zM231 127q0 30 -20.5 48.5t-50.5 18.5q-28 0 -49.5 -19.5t-21.5 -47.5q0 -30 20.5 -50.5t50.5 -20.5q32 0 51.5 19.5t19.5 51.5z
M575 813h-52l-87 118l-88 -118h-52l96 170h87z" />
    <glyph glyph-name="uni1EA9" unicode="&#x1ea9;" horiz-adv-x="613" 
d="M423 696q2 59 67 124q14 16 13 30q-2 11 -16 19q-8 4 -19.5 3.5t-25 -4t-26 -9.5t-22.5 -12l-40 52q5 3 16.5 9.5t27 12.5t33.5 11t38 5q13 0 27 -3t28 -11q42 -24 45 -67q8 -45 -30 -81v0q-46 -43 -48 -79h-68zM527 0h-73q0 81 -68 205q-76 136 -151 136q-74 0 -74 -99
q0 -22 3 -54q22 14 51 14q46 0 75.5 -29.5t29.5 -75.5q0 -47 -29 -77t-76 -30q-81 0 -107 84q-13 44 -13 150q0 73 26 119q33 59 104 59q87 0 147 -62q43 -45 82 -138v202q0 67 -48 104q-43 33 -112 33q-55 0 -94 -24q-35 -21 -71 -70l-47 36q70 115 215 115q100 0 161 -46
q69 -52 69 -148v-404zM268 95q0 24 -15 38.5t-38 14.5q-54 0 -54 -53q0 -23 15 -38.5t39 -15.5q23 0 38 15.5t15 38.5zM431 610h-52l-87 118l-88 -118h-52l96 170h87z" />
    <glyph glyph-name="uni1EAA" unicode="&#x1eaa;" horiz-adv-x="883" 
d="M661 0h-92v486h-45q-19 1 -45 1q-124 0 -137 -9q-48 -35 -48 -150q0 -25 2.5 -76.5t2.5 -77.5q0 -89 -25 -131q-33 -56 -117 -56q-61 0 -99.5 39t-38.5 101q0 61 38.5 99t99.5 38q29 0 45 -10q0 15 -1 43v41q0 72 18 110q25 51 93 76q-12 10 -90 32t-101 24q17 24 58 58
q52 42 63 54q57 57 79 73q49 35 103 35q91 0 166 -100q71 -94 71 -191v-509zM572 573q-12 35 -59 88q-50 56 -76 56q-49 0 -97 -40q-39 -38 -77 -75q32 -14 73 -28q52 -3 236 -1zM228 127q0 30 -20.5 48.5t-50.5 18.5q-28 0 -49.5 -19.5t-21.5 -47.5q0 -30 20.5 -50.5
t50.5 -20.5q32 0 51.5 19.5t19.5 51.5zM563 806h-52l-87 118l-88 -118h-52l96 170h87zM829 997q-24 -94 -97 -94q-17 0 -48.5 11t-48.5 11q-33 0 -47 -31h-43q22 91 97 91q17 0 48.5 -11.5t48.5 -11.5q34 0 47 35h43z" />
    <glyph glyph-name="uni1EAB" unicode="&#x1eab;" horiz-adv-x="688" 
d="M529 0h-73q0 81 -68 205q-76 136 -151 136q-74 0 -74 -99q0 -22 3 -54q22 14 51 14q46 0 75.5 -29.5t29.5 -75.5q0 -47 -29 -77t-76 -30q-81 0 -107 84q-13 44 -13 150q0 73 26 119q33 59 104 59q87 0 147 -62q43 -45 82 -138v202q0 67 -48 104q-43 33 -112 33
q-55 0 -94 -24q-35 -21 -71 -70l-47 36q70 115 215 115q100 0 161 -46q69 -52 69 -148v-404zM270 95q0 24 -15 38.5t-38 14.5q-54 0 -54 -53q0 -23 15 -38.5t39 -15.5q23 0 38 15.5t15 38.5zM441 608h-52l-87 118l-88 -118h-52l96 170h87zM652 852q-24 -94 -97 -94
q-17 0 -48.5 11t-48.5 11q-33 0 -47 -31h-43q22 91 97 91q17 0 48.5 -11.5t48.5 -11.5q34 0 47 35h43z" />
    <glyph glyph-name="uni1EAC" unicode="&#x1eac;" horiz-adv-x="742" 
d="M387 -85q0 -19 12 -32.5t30 -13.5t30.5 13.5t12.5 32.5t-12.5 32t-30.5 13t-30 -13t-12 -32zM664 0h-92v486h-45q-19 1 -45 1q-124 0 -137 -9q-48 -35 -48 -150q0 -25 2.5 -76.5t2.5 -77.5q0 -89 -25 -131q-33 -56 -117 -56q-61 0 -99.5 39t-38.5 101q0 61 38.5 99
t99.5 38q29 0 45 -10q0 15 -1 43v41q0 72 18 110q25 51 93 76q-12 10 -90 32t-101 24q17 24 58 58q52 42 63 54q57 57 79 73q49 35 103 35q91 0 166 -100q71 -94 71 -191v-509zM575 573q-12 35 -59 88q-50 56 -76 56q-49 0 -97 -40q-39 -38 -77 -75q32 -14 73 -28
q52 -3 236 -1zM231 127q0 30 -20.5 48.5t-50.5 18.5q-28 0 -49.5 -19.5t-21.5 -47.5q0 -30 20.5 -50.5t50.5 -20.5q32 0 51.5 19.5t19.5 51.5zM572 825h-52l-87 118l-88 -118h-52l96 170h87z" />
    <glyph glyph-name="uni1EAD" unicode="&#x1ead;" horiz-adv-x="571" 
d="M313 -53q0 -15 8.5 -25.5t21.5 -10.5t21.5 10.5t8.5 25.5t-8.5 25.5t-21.5 10.5t-21.5 -10.5t-8.5 -25.5zM529 0h-73q0 81 -68 205q-76 136 -151 136q-74 0 -74 -99q0 -22 3 -54q22 14 51 14q46 0 75.5 -29.5t29.5 -75.5q0 -47 -29 -77t-76 -30q-81 0 -107 84
q-13 44 -13 150q0 73 26 119q33 59 104 59q87 0 147 -62q43 -45 82 -138v202q0 67 -48 104q-43 33 -112 33q-55 0 -94 -24q-35 -21 -71 -70l-47 36q70 115 215 115q100 0 161 -46q69 -52 69 -148v-404zM270 95q0 24 -15 38.5t-38 14.5q-54 0 -54 -53q0 -23 15 -38.5
t39 -15.5q23 0 38 15.5t15 38.5zM441 607h-52l-87 118l-88 -118h-52l96 170h87z" />
    <glyph glyph-name="uni1EAE" unicode="&#x1eae;" horiz-adv-x="742" 
d="M605 1038q0 -52 -40 -67q-3 -1 -75 -11q-40 -6 -40 -34h-31q0 34 26 47q17 9 57.5 13t55 10.5t19.5 30.5q-8 -21 -36 -21q-20 0 -33 13t-13 33q0 19 13.5 33t32.5 14q64 0 64 -61zM562 1051q0 21 -21 21q-22 0 -22 -21t22 -21q21 0 21 21zM424 819q-66 0 -99 32t-33 69
l31 9q18 -67 100 -67q81 0 102 67l31 -9q0 -37 -33.5 -69t-98.5 -32zM605 1038q0 -52 -40 -67q-3 -1 -75 -11q-40 -6 -40 -34h-31q0 34 26 47q17 9 57.5 13t55 10.5t19.5 30.5q-8 -21 -36 -21q-20 0 -33 13t-13 33q0 19 13.5 33t32.5 14q64 0 64 -61zM562 1051q0 21 -21 21
q-22 0 -22 -21t22 -21q21 0 21 21zM424 819q-66 0 -99 32t-33 69l31 9q18 -67 100 -67q81 0 102 67l31 -9q0 -37 -33.5 -69t-98.5 -32zM605 1038q0 -52 -40 -67q-3 -1 -75 -11q-40 -6 -40 -34h-31q0 34 26 47q17 9 57.5 13t55 10.5t19.5 30.5q-8 -21 -36 -21q-20 0 -33 13
t-13 33q0 19 13.5 33t32.5 14q64 0 64 -61zM562 1051q0 21 -21 21q-22 0 -22 -21t22 -21q21 0 21 21zM424 819q-66 0 -99 32t-33 69l31 9q18 -67 100 -67q81 0 102 67l31 -9q0 -37 -33.5 -69t-98.5 -32zM661 0h-92v486h-45q-19 1 -45 1q-124 0 -137 -9q-48 -35 -48 -150
q0 -25 2.5 -76.5t2.5 -77.5q0 -89 -25 -131q-33 -56 -117 -56q-61 0 -99.5 39t-38.5 101q0 61 38.5 99t99.5 38q29 0 45 -10q0 15 -1 43v41q0 72 18 110q25 51 93 76q-12 10 -90 32t-101 24q17 24 58 58q52 42 63 54q57 57 79 73q49 35 103 35q91 0 166 -100q71 -94 71 -191
v-509zM572 573q-12 35 -59 88q-50 56 -76 56q-49 0 -97 -40q-39 -38 -77 -75q32 -14 73 -28q52 -3 236 -1zM228 127q0 30 -20.5 48.5t-50.5 18.5q-28 0 -49.5 -19.5t-21.5 -47.5q0 -30 20.5 -50.5t50.5 -20.5q32 0 51.5 19.5t19.5 51.5z" />
    <glyph glyph-name="uni1EAF" unicode="&#x1eaf;" horiz-adv-x="554" 
d="M473 845q0 -52 -40 -67q-3 -1 -75 -11q-40 -6 -40 -34h-31q0 34 26 47q17 9 57.5 13t55 10.5t19.5 30.5q-8 -21 -36 -21q-20 0 -33 13t-13 33q0 19 13.5 33t32.5 14q64 0 64 -61zM430 858q0 21 -21 21q-22 0 -22 -21t22 -21q21 0 21 21zM292 626q-66 0 -99 32t-33 69
l31 9q18 -67 100 -67q81 0 102 67l31 -9q0 -37 -33.5 -69t-98.5 -32zM473 845q0 -52 -40 -67q-3 -1 -75 -11q-40 -6 -40 -34h-31q0 34 26 47q17 9 57.5 13t55 10.5t19.5 30.5q-8 -21 -36 -21q-20 0 -33 13t-13 33q0 19 13.5 33t32.5 14q64 0 64 -61zM430 858q0 -21 -21 -21
q-22 0 -22 21t22 21q21 0 21 -21zM292 626q65 0 98.5 32t33.5 69l-31 9q-21 -67 -102 -67q-82 0 -100 67l-31 -9q0 -37 33 -69t99 -32zM473 845q0 61 -64 61q-19 0 -32.5 -14t-13.5 -33q0 -20 13 -33t33 -13q28 0 36 21q-5 -24 -19.5 -30.5t-55 -10.5t-57.5 -13
q-26 -13 -26 -47h31q0 28 40 34q72 10 75 11q40 15 40 67zM430 858q0 -21 -21 -21q-22 0 -22 21t22 21q21 0 21 -21zM292 626q-66 0 -99 32t-33 69l31 9q18 -67 100 -67q81 0 102 67l31 -9q0 -37 -33.5 -69t-98.5 -32zM493 0h-73q0 81 -68 205q-76 136 -151 136
q-74 0 -74 -99q0 -22 3 -54q22 14 51 14q46 0 75.5 -29.5t29.5 -75.5q0 -47 -29 -77t-76 -30q-81 0 -107 84q-13 44 -13 150q0 73 26 119q33 59 104 59q87 0 147 -62q43 -45 82 -138v202q0 67 -48 104q-43 33 -112 33q-55 0 -94 -24q-35 -21 -71 -70l-47 36q70 115 215 115
q100 0 161 -46q69 -52 69 -148v-404zM234 95q0 24 -15 38.5t-38 14.5q-54 0 -54 -53q0 -23 15 -38.5t39 -15.5q23 0 38 15.5t15 38.5z" />
    <glyph glyph-name="uni1EB0" unicode="&#x1eb0;" horiz-adv-x="699" 
d="M416 830q-66 0 -99 32t-33 69l31 9q18 -67 100 -67q81 0 102 67l31 -9q0 -37 -33.5 -69t-98.5 -32zM416 830q-66 0 -99 32t-33 69l31 9q18 -67 100 -67q81 0 102 67l31 -9q0 -37 -33.5 -69t-98.5 -32zM416 830q-66 0 -99 32t-33 69l31 9q18 -67 100 -67q81 0 102 67
l31 -9q0 -37 -33.5 -69t-98.5 -32zM291 1068q0 61 64 61q19 0 32.5 -14t13.5 -33q0 -20 -13 -33t-33 -13q-28 0 -36 21q5 -24 19.5 -30.5t55 -10.5t57.5 -13q26 -13 26 -47h-31q0 28 -40 34q-72 10 -75 11q-40 15 -40 67zM334 1081q0 -21 21 -21q22 0 22 21t-22 21
q-21 0 -21 -21zM661 0h-92v486h-45q-19 1 -45 1q-124 0 -137 -9q-48 -35 -48 -150q0 -25 2.5 -76.5t2.5 -77.5q0 -89 -25 -131q-33 -56 -117 -56q-61 0 -99.5 39t-38.5 101q0 61 38.5 99t99.5 38q29 0 45 -10q0 15 -1 43v41q0 72 18 110q25 51 93 76q-12 10 -90 32t-101 24
q17 24 58 58q52 42 63 54q57 57 79 73q49 35 103 35q91 0 166 -100q71 -94 71 -191v-509zM572 573q-12 35 -59 88q-50 56 -76 56q-49 0 -97 -40q-39 -38 -77 -75q32 -14 73 -28q52 -3 236 -1zM228 127q0 30 -20.5 48.5t-50.5 18.5q-28 0 -49.5 -19.5t-21.5 -47.5
q0 -30 20.5 -50.5t50.5 -20.5q32 0 51.5 19.5t19.5 51.5z" />
    <glyph glyph-name="uni1EB1" unicode="&#x1eb1;" horiz-adv-x="573" 
d="M296 623q-66 0 -99 32t-33 69l31 9q18 -67 100 -67q81 0 102 67l31 -9q0 -37 -33.5 -69t-99 -32t-98.5 32t-33 69l31 9q18 -67 100 -67q81 0 102 67l31 -9q0 -37 -33.5 -69t-99 -32t-98.5 32t-33 69l31 9q18 -67 100 -67q81 0 102 67l31 -9q0 -37 -33.5 -69t-98.5 -32z
M171 861q0 61 64 61q19 0 32.5 -14t13.5 -33q0 -20 -13 -33t-33 -13q-28 0 -36 21q5 -24 19.5 -30.5t55 -10.5t57.5 -13q26 -13 26 -47h-31q0 28 -40 34q-72 10 -75 11q-40 15 -40 67zM214 874q0 -21 21 -21q22 0 22 21t-22 21q-21 0 -21 -21zM493 0h-73q0 81 -68 205
q-76 136 -151 136q-74 0 -74 -99q0 -22 3 -54q22 14 51 14q46 0 75.5 -29.5t29.5 -75.5q0 -47 -29 -77t-76 -30q-81 0 -107 84q-13 44 -13 150q0 73 26 119q33 59 104 59q87 0 147 -62q43 -45 82 -138v202q0 67 -48 104q-43 33 -112 33q-55 0 -94 -24q-35 -21 -71 -70
l-47 36q70 115 215 115q100 0 161 -46q69 -52 69 -148v-404zM234 95q0 24 -15 38.5t-38 14.5q-54 0 -54 -53q0 -23 15 -38.5t39 -15.5q23 0 38 15.5t15 38.5z" />
    <glyph glyph-name="uni1EB2" unicode="&#x1eb2;" horiz-adv-x="699" 
d="M416 830q-66 0 -99 32t-33 69l31 9q18 -67 100 -67q81 0 102 67l31 -9q0 -37 -33.5 -69t-98.5 -32zM416 830q-66 0 -99 32t-33 69l31 9q18 -67 100 -67q81 0 102 67l31 -9q0 -37 -33.5 -69t-98.5 -32zM416 830q-66 0 -99 32t-33 69l31 9q18 -67 100 -67q81 0 102 67
l31 -9q0 -37 -33.5 -69t-98.5 -32zM469 1062q0 11 -4 20t-10.5 14.5t-14 8.5t-15.5 3q-12 0 -23 -7.5t-17 -21.5q-4 -6 -13 -11t-20 -5q-18 0 -26 9t-8 16q0 3 2 6q2 16 13.5 29.5t24.5 21.5t30.5 13t36.5 5q24 0 47 -8.5t39 -25.5t21.5 -33.5t5.5 -33.5t-7 -32.5
t-20.5 -28.5t-34 -22.5t-53.5 -9.5q0 -16 -18.5 -17.5t-27 8t-7 26t15 23t28.5 6.5t24 3t16 10t11 15.5t4 18.5zM661 0h-92v486h-45q-19 1 -45 1q-124 0 -137 -9q-48 -35 -48 -150q0 -25 2.5 -76.5t2.5 -77.5q0 -89 -25 -131q-33 -56 -117 -56q-61 0 -99.5 39t-38.5 101
q0 61 38.5 99t99.5 38q29 0 45 -10q0 15 -1 43v41q0 72 18 110q25 51 93 76q-12 10 -90 32t-101 24q17 24 58 58q52 42 63 54q57 57 79 73q49 35 103 35q91 0 166 -100q71 -94 71 -191v-509zM572 573q-12 35 -59 88q-50 56 -76 56q-49 0 -97 -40q-39 -38 -77 -75
q32 -14 73 -28q52 -3 236 -1zM228 127q0 30 -20.5 48.5t-50.5 18.5q-28 0 -49.5 -19.5t-21.5 -47.5q0 -30 20.5 -50.5t50.5 -20.5q32 0 51.5 19.5t19.5 51.5z" />
    <glyph glyph-name="uni1EB3" unicode="&#x1eb3;" horiz-adv-x="582" 
d="M296 623q-66 0 -99 32t-33 69l31 9q18 -67 100 -67q81 0 102 67l31 -9q0 -37 -33.5 -69t-99 -32t-98.5 32t-33 69l31 9q18 -67 100 -67q81 0 102 67l31 -9q0 -37 -33.5 -69t-99 -32t-98.5 32t-33 69l31 9q18 -67 100 -67q81 0 102 67l31 -9q0 -37 -33.5 -69t-98.5 -32z
M493 0h-73q0 81 -68 205q-76 136 -151 136q-74 0 -74 -99q0 -22 3 -54q22 14 51 14q46 0 75.5 -29.5t29.5 -75.5q0 -47 -29 -77t-76 -30q-81 0 -107 84q-13 44 -13 150q0 73 26 119q33 59 104 59q87 0 147 -62q43 -45 82 -138v202q0 67 -48 104q-43 33 -112 33
q-55 0 -94 -24q-35 -21 -71 -70l-47 36q70 115 215 115q100 0 161 -46q69 -52 69 -148v-404zM234 95q0 24 -15 38.5t-38 14.5q-54 0 -54 -53q0 -23 15 -38.5t39 -15.5q23 0 38 15.5t15 38.5zM351 856q0 11 -4 20t-10.5 14.5t-14 8.5t-15.5 3q-12 0 -23 -7.5t-17 -21.5
q-4 -6 -13 -11t-20 -5q-18 0 -26 9t-8 16q0 3 2 6q2 16 13.5 29.5t24.5 21.5t30.5 13t36.5 5q24 0 47 -8.5t39 -25.5t21.5 -33.5t5.5 -33.5t-7 -32.5t-20.5 -28.5t-34 -22.5t-53.5 -9.5q0 -16 -18.5 -17.5t-27 8t-7 26t15 23t28.5 6.5t24 3t16 10t11 15.5t4 18.5z" />
    <glyph glyph-name="uni1EB4" unicode="&#x1eb4;" horiz-adv-x="699" 
d="M416 830q-66 0 -99 32t-33 69l31 9q18 -67 100 -67q81 0 102 67l31 -9q0 -37 -33.5 -69t-98.5 -32zM416 830q-66 0 -99 32t-33 69l31 9q18 -67 100 -67q81 0 102 67l31 -9q0 -37 -33.5 -69t-98.5 -32zM416 830q-66 0 -99 32t-33 69l31 9q18 -67 100 -67q81 0 102 67
l31 -9q0 -37 -33.5 -69t-98.5 -32zM636 1007q-39 -40 -76 -40q-19 0 -55.5 19t-56.5 19q-30 0 -74 -44v44q42 41 75 41q20 0 57 -19.5t55 -19.5q31 0 75 44v-44zM661 0h-92v486h-45q-19 1 -45 1q-124 0 -137 -9q-48 -35 -48 -150q0 -25 2.5 -76.5t2.5 -77.5q0 -89 -25 -131
q-33 -56 -117 -56q-61 0 -99.5 39t-38.5 101q0 61 38.5 99t99.5 38q29 0 45 -10q0 15 -1 43v41q0 72 18 110q25 51 93 76q-12 10 -90 32t-101 24q17 24 58 58q52 42 63 54q57 57 79 73q49 35 103 35q91 0 166 -100q71 -94 71 -191v-509zM572 573q-12 35 -59 88
q-50 56 -76 56q-49 0 -97 -40q-39 -38 -77 -75q32 -14 73 -28q52 -3 236 -1zM228 127q0 30 -20.5 48.5t-50.5 18.5q-28 0 -49.5 -19.5t-21.5 -47.5q0 -30 20.5 -50.5t50.5 -20.5q32 0 51.5 19.5t19.5 51.5z" />
    <glyph glyph-name="Ygrave" unicode="&#x1eb5;" horiz-adv-x="582" 
d="M296 623q-66 0 -99 32t-33 69l31 9q18 -67 100 -67q81 0 102 67l31 -9q0 -37 -33.5 -69t-99 -32t-98.5 32t-33 69l31 9q18 -67 100 -67q81 0 102 67l31 -9q0 -37 -33.5 -69t-99 -32t-98.5 32t-33 69l31 9q18 -67 100 -67q81 0 102 67l31 -9q0 -37 -33.5 -69t-98.5 -32z
M493 0h-73q0 81 -68 205q-76 136 -151 136q-74 0 -74 -99q0 -22 3 -54q22 14 51 14q46 0 75.5 -29.5t29.5 -75.5q0 -47 -29 -77t-76 -30q-81 0 -107 84q-13 44 -13 150q0 73 26 119q33 59 104 59q87 0 147 -62q43 -45 82 -138v202q0 67 -48 104q-43 33 -112 33
q-55 0 -94 -24q-35 -21 -71 -70l-47 36q70 115 215 115q100 0 161 -46q69 -52 69 -148v-404zM234 95q0 24 -15 38.5t-38 14.5q-54 0 -54 -53q0 -23 15 -38.5t39 -15.5q23 0 38 15.5t15 38.5zM500 800q-39 -40 -76 -40q-19 0 -55.5 19t-56.5 19q-30 0 -74 -44v44q42 41 75 41
q20 0 57 -19.5t55 -19.5q31 0 75 44v-44z" />
    <glyph glyph-name="uni1EB6" unicode="&#x1eb6;" horiz-adv-x="699" 
d="M416 830q-66 0 -99 32t-33 69l31 9q18 -67 100 -67q81 0 102 67l31 -9q0 -37 -33.5 -69t-98.5 -32zM416 830q-66 0 -99 32t-33 69l31 9q18 -67 100 -67q81 0 102 67l31 -9q0 -37 -33.5 -69t-98.5 -32zM416 830q-66 0 -99 32t-33 69l31 9q18 -67 100 -67q81 0 102 67
l31 -9q0 -37 -33.5 -69t-98.5 -32zM377 -67q0 -16 12.5 -27.5t29.5 -11.5t29.5 11.5t12.5 27.5t-12.5 27t-29.5 11t-29.5 -11t-12.5 -27zM661 0h-92v486h-45q-19 1 -45 1q-124 0 -137 -9q-48 -35 -48 -150q0 -25 2.5 -76.5t2.5 -77.5q0 -89 -25 -131q-33 -56 -117 -56
q-61 0 -99.5 39t-38.5 101q0 61 38.5 99t99.5 38q29 0 45 -10q0 15 -1 43v41q0 72 18 110q25 51 93 76q-12 10 -90 32t-101 24q17 24 58 58q52 42 63 54q57 57 79 73q49 35 103 35q91 0 166 -100q71 -94 71 -191v-509zM572 573q-12 35 -59 88q-50 56 -76 56q-49 0 -97 -40
q-39 -38 -77 -75q32 -14 73 -28q52 -3 236 -1zM228 127q0 30 -20.5 48.5t-50.5 18.5q-28 0 -49.5 -19.5t-21.5 -47.5q0 -30 20.5 -50.5t50.5 -20.5q32 0 51.5 19.5t19.5 51.5z" />
    <glyph glyph-name="uni1EB7" unicode="&#x1eb7;" horiz-adv-x="586" 
d="M296 623q-66 0 -99 32t-33 69l31 9q18 -67 100 -67q81 0 102 67l31 -9q0 -37 -33.5 -69t-99 -32t-98.5 32t-33 69l31 9q18 -67 100 -67q81 0 102 67l31 -9q0 -37 -33.5 -69t-99 -32t-98.5 32t-33 69l31 9q18 -67 100 -67q81 0 102 67l31 -9q0 -37 -33.5 -69t-98.5 -32z
M493 0h-73q0 81 -68 205q-76 136 -151 136q-74 0 -74 -99q0 -22 3 -54q22 14 51 14q46 0 75.5 -29.5t29.5 -75.5q0 -47 -29 -77t-76 -30q-81 0 -107 84q-13 44 -13 150q0 73 26 119q33 59 104 59q87 0 147 -62q43 -45 82 -138v202q0 67 -48 104q-43 33 -112 33
q-55 0 -94 -24q-35 -21 -71 -70l-47 36q70 115 215 115q100 0 161 -46q69 -52 69 -148v-404zM234 95q0 24 -15 38.5t-38 14.5q-54 0 -54 -53q0 -23 15 -38.5t39 -15.5q23 0 38 15.5t15 38.5zM302 -54q0 -15 12 -26t29 -11t29 11t12 26t-12 25.5t-29 10.5t-29 -10.5
t-12 -25.5z" />
    <glyph glyph-name="uni1EB8" unicode="&#x1eb8;" horiz-adv-x="613" 
d="M298 -72q0 -17 13 -28t32 -11t32.5 11t13.5 28t-13.5 28t-32.5 11t-32 -11t-13 -28zM592 53q-101 -54 -272 -54q-115 0 -202 61q-98 69 -98 185q0 50 37 100t79 51q-116 48 -116 183q0 104 85 168q78 57 185 57q300 0 300 -161q0 -67 -37 -109t-101 -42q-62 0 -100 36.5
t-38 97.5q0 48 24 82q-100 0 -153 -21q-82 -31 -82 -113q0 -63 45 -100q41 -35 106 -35h93v-99h-93q-151 0 -151 -95q0 -69 80 -114q66 -38 136 -38q71 0 143 14q93 17 130 49v-103zM517 631q0 28 -19.5 47t-47.5 19q-29 0 -47 -19t-18 -47q0 -30 17.5 -47.5t47.5 -17.5
t48.5 17.5t18.5 47.5z" />
    <glyph glyph-name="uni1EB9" unicode="&#x1eb9;" horiz-adv-x="482" 
d="M253 -48q0 -11 8 -19t20 -8t20.5 8t8.5 19t-8.5 18.5t-20.5 7.5t-20 -7.5t-8 -18.5zM467 76q-44 -54 -79 -67q-27 -10 -108 -10q-108 0 -185 100q-73 93 -73 208q0 92 68 189q74 104 159 104t148 -56t63 -140q0 -69 -52 -133q-54 -67 -120 -67q-51 0 -79.5 28.5
t-28.5 80.5q0 43 29 71t73 28q28 1 54 -31t26 -68q37 63 37 98q0 46 -47.5 85t-94.5 39q-66 0 -122 -81q-51 -74 -51 -147q0 -89 55 -165q59 -81 141 -81q66 0 87 6q31 10 65 50zM315 313q0 19 -13 32t-32 13q-45 0 -45 -45q0 -46 45 -46q19 0 32 13t13 33z" />
    <glyph glyph-name="uni1EBA" unicode="&#x1eba;" horiz-adv-x="613" 
d="M301 845q2 59 67 124q14 16 13 30q-2 11 -16 19q-8 4 -19.5 3.5t-25 -4t-26 -9.5t-22.5 -12l-40 52q5 3 16.5 9.5t27 12.5t33.5 11t38 5q13 0 27 -3t28 -11q42 -24 45 -67q8 -45 -30 -81v0q-46 -43 -48 -79h-68zM592 53q-101 -54 -272 -54q-115 0 -202 61q-98 69 -98 185
q0 50 37 100t79 51q-116 48 -116 183q0 104 85 168q78 57 185 57q300 0 300 -161q0 -67 -37 -109t-101 -42q-62 0 -100 36.5t-38 97.5q0 48 24 82q-100 0 -153 -21q-82 -31 -82 -113q0 -63 45 -100q41 -35 106 -35h93v-99h-93q-151 0 -151 -95q0 -69 80 -114q66 -38 136 -38
q71 0 143 14q93 17 130 49v-103zM517 631q0 28 -19.5 47t-47.5 19q-29 0 -47 -19t-18 -47q0 -30 17.5 -47.5t47.5 -17.5t48.5 17.5t18.5 47.5z" />
    <glyph glyph-name="uni1EBB" unicode="&#x1ebb;" horiz-adv-x="482" 
d="M262 655q2 59 67 124q14 16 13 30q-2 11 -16 19q-8 4 -19.5 3.5t-25 -4t-26 -9.5t-22.5 -12l-40 52q5 3 16.5 9.5t27 12.5t33.5 11t38 5q13 0 27 -3t28 -11q42 -24 45 -67q8 -45 -30 -81v0q-46 -43 -48 -79h-68zM467 76q-44 -54 -79 -67q-27 -10 -108 -10
q-108 0 -185 100q-73 93 -73 208q0 92 68 189q74 104 159 104t148 -56t63 -140q0 -69 -52 -133q-54 -67 -120 -67q-51 0 -79.5 28.5t-28.5 80.5q0 43 29 71t73 28q28 1 54 -31t26 -68q37 63 37 98q0 46 -47.5 85t-94.5 39q-66 0 -122 -81q-51 -74 -51 -147q0 -89 55 -165
q59 -81 141 -81q66 0 87 6q31 10 65 50zM315 313q0 19 -13 32t-32 13q-45 0 -45 -45q0 -46 45 -46q19 0 32 13t13 33z" />
    <glyph glyph-name="uni1EBC" unicode="&#x1ebc;" horiz-adv-x="613" 
d="M592 53q-101 -54 -272 -54q-115 0 -202 61q-98 69 -98 185q0 50 37 100t79 51q-116 48 -116 183q0 104 85 168q78 57 185 57q300 0 300 -161q0 -67 -37 -109t-101 -42q-62 0 -100 36.5t-38 97.5q0 48 24 82q-100 0 -153 -21q-82 -31 -82 -113q0 -63 45 -100
q41 -35 106 -35h93v-99h-93q-151 0 -151 -95q0 -69 80 -114q66 -38 136 -38q71 0 143 14q93 17 130 49v-103zM517 631q0 28 -19.5 47t-47.5 19q-29 0 -47 -19t-18 -47q0 -30 17.5 -47.5t47.5 -17.5t48.5 17.5t18.5 47.5zM482 964q-24 -94 -97 -94q-17 0 -48.5 11t-48.5 11
q-33 0 -47 -31h-43q22 91 97 91q17 0 48.5 -11.5t48.5 -11.5q34 0 47 35h43z" />
    <glyph glyph-name="uni1EBD" unicode="&#x1ebd;" horiz-adv-x="482" 
d="M467 76q-44 -54 -79 -67q-27 -10 -108 -10q-108 0 -185 100q-73 93 -73 208q0 92 68 189q74 104 159 104t148 -56t63 -140q0 -69 -52 -133q-54 -67 -120 -67q-51 0 -79.5 28.5t-28.5 80.5q0 43 29 71t73 28q28 1 54 -31t26 -68q37 63 37 98q0 46 -47.5 85t-94.5 39
q-66 0 -122 -81q-51 -74 -51 -147q0 -89 55 -165q59 -81 141 -81q66 0 87 6q31 10 65 50zM315 313q0 19 -13 32t-32 13q-45 0 -45 -45q0 -46 45 -46q19 0 32 13t13 33zM428 776q-24 -94 -97 -94q-17 0 -48.5 11t-48.5 11q-33 0 -47 -31h-43q22 91 97 91q17 0 48.5 -11.5
t48.5 -11.5q34 0 47 35h43z" />
    <glyph glyph-name="uni1EBE" unicode="&#x1ebe;" horiz-adv-x="652" 
d="M620 1101q0 -52 -40 -67q-3 -1 -75 -11q-40 -6 -40 -34h-31q0 34 26 47q17 9 57.5 13t55 10.5t19.5 30.5q-8 -21 -36 -21q-20 0 -33 13t-13 33q0 19 13.5 33t32.5 14q64 0 64 -61zM577 1114q0 21 -21 21q-22 0 -22 -21t22 -21q21 0 21 21zM594 53q-101 -54 -272 -54
q-115 0 -202 61q-98 69 -98 185q0 50 37 100t79 51q-116 48 -116 183q0 104 85 168q78 57 185 57q300 0 300 -161q0 -67 -37 -109t-101 -42q-62 0 -100 36.5t-38 97.5q0 48 24 82q-100 0 -153 -21q-82 -31 -82 -113q0 -63 45 -100q41 -35 106 -35h93v-99h-93
q-151 0 -151 -95q0 -69 80 -114q66 -38 136 -38q71 0 143 14q93 17 130 49v-103zM519 631q0 28 -19.5 47t-47.5 19q-29 0 -47 -19t-18 -47q0 -30 17.5 -47.5t47.5 -17.5t48.5 17.5t18.5 47.5zM479 849h-52l-87 118l-88 -118h-52l96 170h87z" />
    <glyph glyph-name="uni1EBF" unicode="&#x1ebf;" horiz-adv-x="580" 
d="M565 807q0 -52 -40 -67q-3 -1 -75 -11q-40 -6 -40 -34h-31q0 34 26 47q17 9 57.5 13t55 10.5t19.5 30.5q-8 -21 -36 -21q-20 0 -33 13t-13 33q0 19 13.5 33t32.5 14q64 0 64 -61zM522 820q0 21 -21 21q-22 0 -22 -21t22 -21q21 0 21 21zM474 76q-44 -54 -79 -67
q-27 -10 -108 -10q-108 0 -185 100q-73 93 -73 208q0 92 68 189q74 104 159 104t148 -56t63 -140q0 -69 -52 -133q-54 -67 -120 -67q-51 0 -79.5 28.5t-28.5 80.5q0 43 29 71t73 28q28 1 54 -31t26 -68q37 63 37 98q0 46 -47.5 85t-94.5 39q-66 0 -122 -81q-51 -74 -51 -147
q0 -89 55 -165q59 -81 141 -81q66 0 87 6q31 10 65 50zM322 313q0 19 -13 32t-32 13q-45 0 -45 -45q0 -46 45 -46q19 0 32 13t13 33zM405 621h-52l-87 118l-88 -118h-52l96 170h87z" />
    <glyph glyph-name="uni1EC0" unicode="&#x1ec0;" horiz-adv-x="664" 
d="M615 53q-101 -54 -272 -54q-115 0 -202 61q-98 69 -98 185q0 50 37 100t79 51q-116 48 -116 183q0 104 85 168q78 57 185 57q300 0 300 -161q0 -67 -37 -109t-101 -42q-62 0 -100 36.5t-38 97.5q0 48 24 82q-100 0 -153 -21q-82 -31 -82 -113q0 -63 45 -100
q41 -35 106 -35h93v-99h-93q-151 0 -151 -95q0 -69 80 -114q66 -38 136 -38q71 0 143 14q93 17 130 49v-103zM540 631q0 28 -19.5 47t-47.5 19q-29 0 -47 -19t-18 -47q0 -30 17.5 -47.5t47.5 -17.5t48.5 17.5t18.5 47.5zM511 840h-52l-87 118l-88 -118h-52l96 170h87z
M616 983q0 -61 -64 -61q-19 0 -32.5 14t-13.5 33q0 20 13 33t33 13q28 0 36 -21q-5 24 -19.5 30.5t-55 10.5t-57.5 13q-26 13 -26 47h31q0 -28 40 -34q72 -10 75 -11q40 -15 40 -67zM573 970q0 21 -21 21q-22 0 -22 -21t22 -21q21 0 21 21z" />
    <glyph glyph-name="uni1EC1" unicode="&#x1ec1;" horiz-adv-x="546" 
d="M474 76q-44 -54 -79 -67q-27 -10 -108 -10q-108 0 -185 100q-73 93 -73 208q0 92 68 189q74 104 159 104t148 -56t63 -140q0 -69 -52 -133q-54 -67 -120 -67q-51 0 -79.5 28.5t-28.5 80.5q0 43 29 71t73 28q28 1 54 -31t26 -68q37 63 37 98q0 46 -47.5 85t-94.5 39
q-66 0 -122 -81q-51 -74 -51 -147q0 -89 55 -165q59 -81 141 -81q66 0 87 6q31 10 65 50zM322 313q0 19 -13 32t-32 13q-45 0 -45 -45q0 -46 45 -46q19 0 32 13t13 33zM414 617h-52l-87 118l-88 -118h-52l96 170h87zM502 800q0 -61 -64 -61q-19 0 -32.5 14t-13.5 33
q0 20 13 33t33 13q28 0 36 -21q-5 24 -19.5 30.5t-55 10.5t-57.5 13q-26 13 -26 47h31q0 -28 40 -34q72 -10 75 -11q40 -15 40 -67zM459 787q0 21 -21 21q-22 0 -22 -21t22 -21q21 0 21 21z" />
    <glyph glyph-name="uni1EC2" unicode="&#x1ec2;" horiz-adv-x="613" 
d="M432 971q2 59 67 124q14 16 13 30q-2 11 -16 19q-8 4 -19.5 3.5t-25 -4t-26 -9.5t-22.5 -12l-40 52q5 3 16.5 9.5t27 12.5t33.5 11t38 5q13 0 27 -3t28 -11q42 -24 45 -67q8 -45 -30 -81v0q-46 -43 -48 -79h-68zM594 53q-101 -54 -272 -54q-115 0 -202 61q-98 69 -98 185
q0 50 37 100t79 51q-116 48 -116 183q0 104 85 168q78 57 185 57q300 0 300 -161q0 -67 -37 -109t-101 -42q-62 0 -100 36.5t-38 97.5q0 48 24 82q-100 0 -153 -21q-82 -31 -82 -113q0 -63 45 -100q41 -35 106 -35h93v-99h-93q-151 0 -151 -95q0 -69 80 -114q66 -38 136 -38
q71 0 143 14q93 17 130 49v-103zM519 631q0 28 -19.5 47t-47.5 19q-29 0 -47 -19t-18 -47q0 -30 17.5 -47.5t47.5 -17.5t48.5 17.5t18.5 47.5zM458 848h-52l-87 118l-88 -118h-52l96 170h87z" />
    <glyph glyph-name="uni1EC3" unicode="&#x1ec3;" horiz-adv-x="589" 
d="M400 738q2 59 67 124q14 16 13 30q-2 11 -16 19q-8 4 -19.5 3.5t-25 -4t-26 -9.5t-22.5 -12l-40 52q5 3 16.5 9.5t27 12.5t33.5 11t38 5q13 0 27 -3t28 -11q42 -24 45 -67q8 -45 -30 -81v0q-46 -43 -48 -79h-68zM474 76q-44 -54 -79 -67q-27 -10 -108 -10
q-108 0 -185 100q-73 93 -73 208q0 92 68 189q74 104 159 104t148 -56t63 -140q0 -69 -52 -133q-54 -67 -120 -67q-51 0 -79.5 28.5t-28.5 80.5q0 43 29 71t73 28q28 1 54 -31t26 -68q37 63 37 98q0 46 -47.5 85t-94.5 39q-66 0 -122 -81q-51 -74 -51 -147q0 -89 55 -165
q59 -81 141 -81q66 0 87 6q31 10 65 50zM322 313q0 19 -13 32t-32 13q-45 0 -45 -45q0 -46 45 -46q19 0 32 13t13 33zM405 621h-52l-87 118l-88 -118h-52l96 170h87z" />
    <glyph glyph-name="uni1EC4" unicode="&#x1ec4;" horiz-adv-x="724" 
d="M592 53q-101 -54 -272 -54q-115 0 -202 61q-98 69 -98 185q0 50 37 100t79 51q-116 48 -116 183q0 104 85 168q78 57 185 57q300 0 300 -161q0 -67 -37 -109t-101 -42q-62 0 -100 36.5t-38 97.5q0 48 24 82q-100 0 -153 -21q-82 -31 -82 -113q0 -63 45 -100
q41 -35 106 -35h93v-99h-93q-151 0 -151 -95q0 -69 80 -114q66 -38 136 -38q71 0 143 14q93 17 130 49v-103zM517 631q0 28 -19.5 47t-47.5 19q-29 0 -47 -19t-18 -47q0 -30 17.5 -47.5t47.5 -17.5t48.5 17.5t18.5 47.5zM469 833h-52l-87 118l-88 -118h-52l96 170h87z
M683 1092q-24 -94 -97 -94q-17 0 -48.5 11t-48.5 11q-33 0 -47 -31h-43q22 91 97 91q17 0 48.5 -11.5t48.5 -11.5q34 0 47 35h43z" />
    <glyph glyph-name="uni1EC5" unicode="&#x1ec5;" horiz-adv-x="685" 
d="M474 76q-44 -54 -79 -67q-27 -10 -108 -10q-108 0 -185 100q-73 93 -73 208q0 92 68 189q74 104 159 104t148 -56t63 -140q0 -69 -52 -133q-54 -67 -120 -67q-51 0 -79.5 28.5t-28.5 80.5q0 43 29 71t73 28q28 1 54 -31t26 -68q37 63 37 98q0 46 -47.5 85t-94.5 39
q-66 0 -122 -81q-51 -74 -51 -147q0 -89 55 -165q59 -81 141 -81q66 0 87 6q31 10 65 50zM322 313q0 19 -13 32t-32 13q-45 0 -45 -45q0 -46 45 -46q19 0 32 13t13 33zM407 604h-52l-87 118l-88 -118h-52l96 170h87zM640 848q-24 -94 -97 -94q-17 0 -48.5 11t-48.5 11
q-33 0 -47 -31h-43q22 91 97 91q17 0 48.5 -11.5t48.5 -11.5q34 0 47 35h43z" />
    <glyph glyph-name="uni1EC6" unicode="&#x1ec6;" horiz-adv-x="687" 
d="M291 -72q0 -15 10.5 -26t27.5 -11t28 11t11 26t-11 25.5t-28 10.5t-27.5 -10.5t-10.5 -25.5zM592 53q-101 -54 -272 -54q-115 0 -202 61q-98 69 -98 185q0 50 37 100t79 51q-116 48 -116 183q0 104 85 168q78 57 185 57q300 0 300 -161q0 -67 -37 -109t-101 -42
q-62 0 -100 36.5t-38 97.5q0 48 24 82q-100 0 -153 -21q-82 -31 -82 -113q0 -63 45 -100q41 -35 106 -35h93v-99h-93q-151 0 -151 -95q0 -69 80 -114q66 -38 136 -38q71 0 143 14q93 17 130 49v-103zM517 631q0 28 -19.5 47t-47.5 19q-29 0 -47 -19t-18 -47
q0 -30 17.5 -47.5t47.5 -17.5t48.5 17.5t18.5 47.5zM469 833h-52l-87 118l-88 -118h-52l96 170h87z" />
    <glyph glyph-name="uni1EC7" unicode="&#x1ec7;" horiz-adv-x="567" 
d="M252 -62q0 -11 10 -19.5t24 -8.5t24.5 8.5t10.5 19.5t-10.5 19.5t-24.5 8.5t-24 -8.5t-10 -19.5zM474 76q-44 -54 -79 -67q-27 -10 -108 -10q-108 0 -185 100q-73 93 -73 208q0 92 68 189q74 104 159 104t148 -56t63 -140q0 -69 -52 -133q-54 -67 -120 -67
q-51 0 -79.5 28.5t-28.5 80.5q0 43 29 71t73 28q28 1 54 -31t26 -68q37 63 37 98q0 46 -47.5 85t-94.5 39q-66 0 -122 -81q-51 -74 -51 -147q0 -89 55 -165q59 -81 141 -81q66 0 87 6q31 10 65 50zM322 313q0 19 -13 32t-32 13q-45 0 -45 -45q0 -46 45 -46q19 0 32 13t13 33
zM407 603h-52l-87 118l-88 -118h-52l96 170h87z" />
    <glyph glyph-name="uni1EC8" unicode="&#x1ec8;" horiz-adv-x="572" 
d="M311 1222q2 59 67 124q14 16 13 30q-2 11 -16 19q-8 4 -19.5 3.5t-25 -4t-26 -9.5t-22.5 -12l-40 52q5 3 16.5 9.5t27 12.5t33.5 11t38 5q13 0 27 -3t28 -11q42 -24 45 -67q8 -45 -30 -81v0q-46 -43 -48 -79h-68zM509 900q-156 59 -316 59q-95 0 -168 -12q14 89 89 146
q72 54 164 54q31 0 77 -22.5t67 -45.5v119h65v-223q12 -25 22 -75zM379 138q0 -61 -38.5 -99.5t-99.5 -38.5t-100 37t-39 98v663q36 -2 94 0v-528q19 7 48 7q61 0 98 -39t37 -100zM434 966q-23 55 -66 89q-48 37 -104 37q-46 0 -88 -22q-49 -24 -61 -64q35 5 104 5
q152 0 215 -45zM311 140q0 29 -20 48t-50 19q-29 0 -49.5 -19t-20.5 -48q0 -32 19.5 -51.5t50.5 -19.5t50.5 20t19.5 51z" />
    <glyph glyph-name="uni1EC9" unicode="&#x1ec9;" horiz-adv-x="461" 
d="M227 937q1 46 55 97q12 12 11 23q-1 9 -13 15q-7 3 -16.5 2.5t-20.5 -3t-21.5 -7.5t-19.5 -9l-33 40q4 3 13.5 8t22.5 9.5t28 8.5t32 4q11 0 22.5 -2.5t23.5 -8.5q35 -19 37 -52q7 -35 -25 -63v0q-38 -34 -40 -62h-56zM397 673q-116 44 -237 44q-70 0 -125 -9
q11 67 67 109q53 40 122 40q23 0 58 -16.5t50 -33.5v89h49v-167q9 -19 16 -56zM300 103q0 -45 -29 -74t-74 -29q-46 0 -75.5 28t-29.5 73v495q28 -1 71 0v-394q14 5 36 5q45 0 73 -29t28 -75zM341 722q-40 95 -127 95q-34 0 -66 -17q-36 -18 -46 -48q27 4 78 4
q114 0 161 -34zM249 104q0 22 -15 36.5t-37 14.5t-37.5 -14t-15.5 -37t15 -37.5t38 -14.5t37.5 14.5t14.5 37.5z" />
    <glyph glyph-name="uni1ECA" unicode="&#x1eca;" horiz-adv-x="538" 
d="M216 -77q0 -15 10 -26t25 -11t25.5 11t10.5 26t-10.5 26t-25.5 11t-25 -11t-10 -26zM507 900q-156 59 -316 59q-95 0 -168 -12q14 89 89 146q72 54 164 54q31 0 77 -22.5t67 -45.5v119h65v-223q12 -25 22 -75zM377 138q0 -61 -38.5 -99.5t-99.5 -38.5t-100 37t-39 98v663
q36 -2 94 0v-528q19 7 48 7q61 0 98 -39t37 -100zM432 966q-23 55 -66 89q-48 37 -104 37q-46 0 -88 -22q-49 -24 -61 -64q35 5 104 5q152 0 215 -45zM309 140q0 29 -20 48t-50 19q-29 0 -49.5 -19t-20.5 -48q0 -32 19.5 -51.5t50.5 -19.5t50.5 20t19.5 51z" />
    <glyph glyph-name="uni1ECB" unicode="&#x1ecb;" horiz-adv-x="409" 
d="M154 -62q0 -14 10.5 -23.5t25.5 -9.5t25.5 9.5t10.5 23.5t-10.5 23.5t-25.5 9.5t-25.5 -9.5t-10.5 -23.5zM375 673q-116 44 -237 44q-70 0 -125 -9q11 67 67 109q53 40 122 40q23 0 58 -16.5t50 -33.5v89h49v-167q9 -19 16 -56zM278 103q0 -45 -29 -74t-74 -29
q-46 0 -75.5 28t-29.5 73v495q28 -1 71 0v-394q14 5 36 5q45 0 73 -29t28 -75zM319 722q-40 95 -127 95q-34 0 -66 -17q-36 -18 -46 -48q27 4 78 4q114 0 161 -34zM227 104q0 22 -15 36.5t-37 14.5t-37.5 -14t-15.5 -37t15 -37.5t38 -14.5t37.5 14.5t14.5 37.5z" />
    <glyph glyph-name="uni1ECC" unicode="&#x1ecc;" horiz-adv-x="585" 
d="M253 -56q0 -13 10.5 -22t25.5 -9t25.5 9t10.5 22t-10.5 21.5t-25.5 8.5t-25.5 -8.5t-10.5 -21.5zM226 474q0 32 -20 52t-52 20q-31 0 -51.5 -19t-20.5 -51t20 -52t52 -20q30 0 51 20.5t21 49.5zM346 10h-110q-85 0 -144 51q-62 54 -62 139v274q0 56 35.5 90t90.5 34
q54 0 88 -34t34 -88t-33.5 -89t-88.5 -35q-11 0 -42 8v-160q0 -37 42.5 -77.5t79.5 -40.5h110q37 0 79.5 40.5t42.5 77.5v368q0 77 -57 121q-52 39 -131 39q-122 0 -207 -135l-57 30q24 79 107 131q76 46 154 46q114 0 190 -58q85 -64 85 -174v-368q0 -84 -63 -138
q-59 -52 -143 -52z" />
    <glyph glyph-name="uni1ECD" unicode="&#x1ecd;" horiz-adv-x="499" 
d="M207 -62q0 -13 9.5 -22.5t23.5 -9.5t24 9.5t10 22.5t-10 22t-24 9t-23.5 -9t-9.5 -22zM188 356q0 54 -54 54t-54 -53q0 -24 15 -39t39 -15q22 0 38 15.5t16 37.5zM278 8h-83q-63 0 -107 38q-47 40 -47 104v206q0 41 26.5 67t68.5 26q40 0 65.5 -25.5t25.5 -66.5t-25 -67
t-66 -26q-9 0 -32 6v-120q0 -28 32 -58t59 -30h83q28 0 60 30t32 58v276q0 58 -43 91q-39 29 -99 29q-91 0 -155 -101l-43 22q19 60 81 99q56 34 115 34q86 0 143 -43q64 -48 64 -131v-276q0 -63 -46 -102.5t-109 -39.5z" />
    <glyph glyph-name="uni1ECE" unicode="&#x1ece;" horiz-adv-x="585" 
d="M280 857q2 58 60 122q12 16 11 30q-1 11 -14 19q-7 4 -17 3.5t-22 -4t-23.5 -9.5t-19.5 -12l-36 51q4 3 14.5 9.5t24 12.5t29.5 11t34 5q12 0 24.5 -3t24.5 -11q37 -24 40 -66q7 -44 -27 -80v0q-41 -42 -42 -78h-61zM226 474q0 32 -20 52t-52 20q-31 0 -51.5 -19
t-20.5 -51t20 -52t52 -20q30 0 51 20.5t21 49.5zM346 10h-110q-85 0 -144 51q-62 54 -62 139v274q0 56 35.5 90t90.5 34q54 0 88 -34t34 -88t-33.5 -89t-88.5 -35q-11 0 -42 8v-160q0 -37 42.5 -77.5t79.5 -40.5h110q37 0 79.5 40.5t42.5 77.5v368q0 77 -57 121
q-52 39 -131 39q-122 0 -207 -135l-57 30q24 79 107 131q76 46 154 46q114 0 190 -58q85 -64 85 -174v-368q0 -84 -63 -138q-59 -52 -143 -52z" />
    <glyph glyph-name="uni1ECF" unicode="&#x1ecf;" horiz-adv-x="499" 
d="M210 649q2 59 67 124q14 16 13 30q-2 11 -16 19q-8 4 -19.5 3.5t-25 -4t-26 -9.5t-22.5 -12l-40 52q5 3 16.5 9.5t27 12.5t33.5 11t38 5q13 0 27 -3t28 -11q42 -24 45 -67q8 -45 -30 -81v0q-46 -43 -48 -79h-68zM188 356q0 54 -54 54t-54 -53q0 -24 15 -39t39 -15
q22 0 38 15.5t16 37.5zM278 8h-83q-63 0 -107 38q-47 40 -47 104v206q0 41 26.5 67t68.5 26q40 0 65.5 -25.5t25.5 -66.5t-25 -67t-66 -26q-9 0 -32 6v-120q0 -28 32 -58t59 -30h83q28 0 60 30t32 58v276q0 58 -43 91q-39 29 -99 29q-91 0 -155 -101l-43 22q19 60 81 99
q56 34 115 34q86 0 143 -43q64 -48 64 -131v-276q0 -63 -46 -102.5t-109 -39.5z" />
    <glyph glyph-name="uni1ED0" unicode="&#x1ed0;" horiz-adv-x="606" 
d="M574 1093q0 -52 -40 -67q-3 -1 -75 -11q-40 -6 -40 -34h-31q0 34 26 47q17 9 57.5 13t55 10.5t19.5 30.5q-8 -21 -36 -21q-20 0 -33 13t-13 33q0 19 13.5 33t32.5 14q64 0 64 -61zM531 1106q0 21 -21 21q-22 0 -22 -21t22 -21q21 0 21 21zM231 475q0 32 -20 52t-52 20
q-31 0 -51.5 -19t-20.5 -51t20 -52t52 -20q30 0 51 20.5t21 49.5zM351 11h-110q-85 0 -144 51q-62 54 -62 139v274q0 56 35.5 90t90.5 34q54 0 88 -34t34 -88t-33.5 -89t-88.5 -35q-11 0 -42 8v-160q0 -37 42.5 -77.5t79.5 -40.5h110q37 0 79.5 40.5t42.5 77.5v368
q0 77 -57 121q-52 39 -131 39q-122 0 -207 -135l-57 30q24 79 107 131q76 46 154 46q114 0 190 -58q85 -64 85 -174v-368q0 -84 -63 -138q-59 -52 -143 -52zM444 841h-52l-87 118l-88 -118h-52l96 170h87z" />
    <glyph glyph-name="uni1ED1" unicode="&#x1ed1;" horiz-adv-x="556" 
d="M536 837q0 -52 -40 -67q-3 -1 -75 -11q-40 -6 -40 -34h-31q0 34 26 47q17 9 57.5 13t55 10.5t19.5 30.5q-8 -21 -36 -21q-20 0 -33 13t-13 33q0 19 13.5 33t32.5 14q64 0 64 -61zM493 850q0 21 -21 21q-22 0 -22 -21t22 -21q21 0 21 21zM160 356q0 54 -54 54t-54 -53
q0 -24 15 -39t39 -15q22 0 38 15.5t16 37.5zM250 8h-83q-63 0 -107 38q-47 40 -47 104v206q0 41 26.5 67t68.5 26q40 0 65.5 -25.5t25.5 -66.5t-25 -67t-66 -26q-9 0 -32 6v-120q0 -28 32 -58t59 -30h83q28 0 60 30t32 58v276q0 58 -43 91q-39 29 -99 29q-91 0 -155 -101
l-43 22q19 60 81 99q56 34 115 34q86 0 143 -43q64 -48 64 -131v-276q0 -63 -46 -102.5t-109 -39.5zM362 624h-52l-87 118l-88 -118h-52l96 170h87z" />
    <glyph glyph-name="uni1ED2" unicode="&#x1ed2;" horiz-adv-x="606" 
d="M231 475q0 32 -20 52t-52 20q-31 0 -51.5 -19t-20.5 -51t20 -52t52 -20q30 0 51 20.5t21 49.5zM351 11h-110q-85 0 -144 51q-62 54 -62 139v274q0 56 35.5 90t90.5 34q54 0 88 -34t34 -88t-33.5 -89t-88.5 -35q-11 0 -42 8v-160q0 -37 42.5 -77.5t79.5 -40.5h110
q37 0 79.5 40.5t42.5 77.5v368q0 77 -57 121q-52 39 -131 39q-122 0 -207 -135l-57 30q24 79 107 131q76 46 154 46q114 0 190 -58q85 -64 85 -174v-368q0 -84 -63 -138q-59 -52 -143 -52zM456 864h-52l-87 118l-88 -118h-52l96 170h87zM577 1016q0 -61 -64 -61
q-19 0 -32.5 14t-13.5 33q0 20 13 33t33 13q28 0 36 -21q-5 24 -19.5 30.5t-55 10.5t-57.5 13q-26 13 -26 47h31q0 -28 40 -34q72 -10 75 -11q40 -15 40 -67zM534 1003q0 21 -21 21q-22 0 -22 -21t22 -21q21 0 21 21z" />
    <glyph glyph-name="uni1ED3" unicode="&#x1ed3;" horiz-adv-x="472" 
d="M161 356q0 54 -54 54t-54 -53q0 -24 15 -39t39 -15q22 0 38 15.5t16 37.5zM251 8h-83q-63 0 -107 38q-47 40 -47 104v206q0 41 26.5 67t68.5 26q40 0 65.5 -25.5t25.5 -66.5t-25 -67t-66 -26q-9 0 -32 6v-120q0 -28 32 -58t59 -30h83q28 0 60 30t32 58v276q0 58 -43 91
q-39 29 -99 29q-91 0 -155 -101l-43 22q19 60 81 99q56 34 115 34q86 0 143 -43q64 -48 64 -131v-276q0 -63 -46 -102.5t-109 -39.5zM322 630h-52l-87 118l-88 -118h-52l96 170h87zM442 750q0 -61 -64 -61q-19 0 -32.5 14t-13.5 33q0 20 13 33t33 13q28 0 36 -21
q-5 24 -19.5 30.5t-55 10.5t-57.5 13q-26 13 -26 47h31q0 -28 40 -34q72 -10 75 -11q40 -15 40 -67zM399 737q0 21 -21 21q-22 0 -22 -21t22 -21q21 0 21 21z" />
    <glyph glyph-name="uni1ED4" unicode="&#x1ed4;" horiz-adv-x="606" 
d="M423 975q2 59 67 124q14 16 13 30q-2 11 -16 19q-8 4 -19.5 3.5t-25 -4t-26 -9.5t-22.5 -12l-40 52q5 3 16.5 9.5t27 12.5t33.5 11t38 5q13 0 27 -3t28 -11q42 -24 45 -67q8 -45 -30 -81v0q-46 -43 -48 -79h-68zM231 475q0 32 -20 52t-52 20q-31 0 -51.5 -19t-20.5 -51
t20 -52t52 -20q30 0 51 20.5t21 49.5zM351 11h-110q-85 0 -144 51q-62 54 -62 139v274q0 56 35.5 90t90.5 34q54 0 88 -34t34 -88t-33.5 -89t-88.5 -35q-11 0 -42 8v-160q0 -37 42.5 -77.5t79.5 -40.5h110q37 0 79.5 40.5t42.5 77.5v368q0 77 -57 121q-52 39 -131 39
q-122 0 -207 -135l-57 30q24 79 107 131q76 46 154 46q114 0 190 -58q85 -64 85 -174v-368q0 -84 -63 -138q-59 -52 -143 -52zM456 864h-52l-87 118l-88 -118h-52l96 170h87z" />
    <glyph glyph-name="uni1ED5" unicode="&#x1ed5;" horiz-adv-x="528" 
d="M341 744q2 59 67 124q14 16 13 30q-2 11 -16 19q-8 4 -19.5 3.5t-25 -4t-26 -9.5t-22.5 -12l-40 52q5 3 16.5 9.5t27 12.5t33.5 11t38 5q13 0 27 -3t28 -11q42 -24 45 -67q8 -45 -30 -81v0q-46 -43 -48 -79h-68zM160 356q0 54 -54 54t-54 -53q0 -24 15 -39t39 -15
q22 0 38 15.5t16 37.5zM250 8h-83q-63 0 -107 38q-47 40 -47 104v206q0 41 26.5 67t68.5 26q40 0 65.5 -25.5t25.5 -66.5t-25 -67t-66 -26q-9 0 -32 6v-120q0 -28 32 -58t59 -30h83q28 0 60 30t32 58v276q0 58 -43 91q-39 29 -99 29q-91 0 -155 -101l-43 22q19 60 81 99
q56 34 115 34q86 0 143 -43q64 -48 64 -131v-276q0 -63 -46 -102.5t-109 -39.5zM351 621h-52l-87 118l-88 -118h-52l96 170h87z" />
    <glyph glyph-name="uni1ED6" unicode="&#x1ed6;" horiz-adv-x="710" 
d="M231 475q0 32 -20 52t-52 20q-31 0 -51.5 -19t-20.5 -51t20 -52t52 -20q30 0 51 20.5t21 49.5zM351 11h-110q-85 0 -144 51q-62 54 -62 139v274q0 56 35.5 90t90.5 34q54 0 88 -34t34 -88t-33.5 -89t-88.5 -35q-11 0 -42 8v-160q0 -37 42.5 -77.5t79.5 -40.5h110
q37 0 79.5 40.5t42.5 77.5v368q0 77 -57 121q-52 39 -131 39q-122 0 -207 -135l-57 30q24 79 107 131q76 46 154 46q114 0 190 -58q85 -64 85 -174v-368q0 -84 -63 -138q-59 -52 -143 -52zM444 837h-52l-87 118l-88 -118h-52l96 170h87zM678 1082q-24 -94 -97 -94
q-17 0 -48.5 11t-48.5 11q-33 0 -47 -31h-43q22 91 97 91q17 0 48.5 -11.5t48.5 -11.5q34 0 47 35h43z" />
    <glyph glyph-name="uni1ED7" unicode="&#x1ed7;" horiz-adv-x="297" 
d="M-148 356q0 54 -54 54t-54 -53q0 -24 15 -39t39 -15q22 0 38 15.5t16 37.5zM-58 8h-83q-63 0 -107 38q-47 40 -47 104v206q0 41 26.5 67t68.5 26q40 0 65.5 -25.5t25.5 -66.5t-25 -67t-66 -26q-9 0 -32 6v-120q0 -28 32 -58t59 -30h83q28 0 60 30t32 58v276q0 58 -43 91
q-39 29 -99 29q-91 0 -155 -101l-43 22q19 60 81 99q56 34 115 34q86 0 143 -43q64 -48 64 -131v-276q0 -63 -46 -102.5t-109 -39.5zM42 622h-52l-87 118l-88 -118h-52l96 170h87zM283 845q-24 -94 -97 -94q-17 0 -48.5 11t-48.5 11q-33 0 -47 -31h-43q22 91 97 91
q17 0 48.5 -11.5t48.5 -11.5q34 0 47 35h43z" />
    <glyph glyph-name="uni1ED8" unicode="&#x1ed8;" horiz-adv-x="627" 
d="M255 -55q0 -14 10.5 -24t27.5 -10t28 10t11 24t-11 23.5t-28 9.5t-27.5 -9.5t-10.5 -23.5zM231 475q0 32 -20 52t-52 20q-31 0 -51.5 -19t-20.5 -51t20 -52t52 -20q30 0 51 20.5t21 49.5zM351 11h-110q-85 0 -144 51q-62 54 -62 139v274q0 56 35.5 90t90.5 34
q54 0 88 -34t34 -88t-33.5 -89t-88.5 -35q-11 0 -42 8v-160q0 -37 42.5 -77.5t79.5 -40.5h110q37 0 79.5 40.5t42.5 77.5v368q0 77 -57 121q-52 39 -131 39q-122 0 -207 -135l-57 30q24 79 107 131q76 46 154 46q114 0 190 -58q85 -64 85 -174v-368q0 -84 -63 -138
q-59 -52 -143 -52zM444 837h-52l-87 118l-88 -118h-52l96 170h87z" />
    <glyph glyph-name="uni1ED9" unicode="&#x1ed9;" horiz-adv-x="476" 
d="M154 -56q0 -14 10.5 -24.5t24.5 -10.5t24.5 10.5t10.5 24.5t-10.5 24t-24.5 10t-24.5 -10t-10.5 -24zM160 356q0 54 -54 54t-54 -53q0 -24 15 -39t39 -15q22 0 38 15.5t16 37.5zM250 8h-83q-63 0 -107 38q-47 40 -47 104v206q0 41 26.5 67t68.5 26q40 0 65.5 -25.5
t25.5 -66.5t-25 -67t-66 -26q-9 0 -32 6v-120q0 -28 32 -58t59 -30h83q28 0 60 30t32 58v276q0 58 -43 91q-39 29 -99 29q-91 0 -155 -101l-43 22q19 60 81 99q56 34 115 34q86 0 143 -43q64 -48 64 -131v-276q0 -63 -46 -102.5t-109 -39.5zM350 621h-52l-87 118l-88 -118
h-52l96 170h87z" />
    <glyph glyph-name="uni1EDA" unicode="&#x1eda;" horiz-adv-x="661" 
d="M633 825q0 -52 -40 -67q-3 -1 -75 -11q-40 -6 -55.5 -3t10.5 16q17 9 57.5 13t55 10.5t19.5 30.5q-8 -21 -36 -21q-20 0 -33 13t-13 33q0 19 13.5 33t32.5 14q64 0 64 -61zM590 838q0 21 -21 21q-22 0 -22 -21t22 -21q21 0 21 21zM420 989q0 -52 -40 -67q-3 -1 -75 -11
q-40 -6 -40 -34h-31q0 34 26 47q17 9 57.5 13t55 10.5t19.5 30.5q-8 -21 -36 -21q-20 0 -33 13t-13 33q0 19 13.5 33t32.5 14q64 0 64 -61zM377 1002q0 21 -21 21q-22 0 -22 -21t22 -21q21 0 21 21zM231 475q0 32 -20 52t-52 20q-31 0 -51.5 -19t-20.5 -51t20 -52t52 -20
q30 0 51 20.5t21 49.5zM351 11h-110q-85 0 -144 51q-62 54 -62 139v274q0 56 35.5 90t90.5 34q54 0 88 -34t34 -88t-33.5 -89t-88.5 -35q-11 0 -42 8v-160q0 -37 42.5 -77.5t79.5 -40.5h110q37 0 79.5 40.5t42.5 77.5v368q0 77 -57 121q-52 39 -131 39q-122 0 -207 -135
l-57 30q24 79 107 131q76 46 154 46q114 0 190 -58q85 -64 85 -174v-368q0 -84 -63 -138q-59 -52 -143 -52z" />
    <glyph glyph-name="ygrave" unicode="&#x1edb;" horiz-adv-x="501" 
d="M475 640q0 -52 -40 -67q-3 -1 -75 -11q-40 -6 -55.5 -3t10.5 16q17 9 57.5 13t55 10.5t19.5 30.5q-8 -21 -36 -21q-20 0 -33 13t-13 33q0 19 13.5 33t32.5 14q64 0 64 -61zM432 653q0 21 -21 21q-22 0 -22 -21t22 -21q21 0 21 21zM301 803q0 -52 -40 -67q-3 -1 -75 -11
q-40 -6 -40 -34h-31q0 34 26 47q17 9 57.5 13t55 10.5t19.5 30.5q-8 -21 -36 -21q-20 0 -33 13t-13 33q0 19 13.5 33t32.5 14q64 0 64 -61zM258 816q0 21 -21 21q-22 0 -22 -21t22 -21q21 0 21 21zM160 356q0 54 -54 54t-54 -53q0 -24 15 -39t39 -15q22 0 38 15.5t16 37.5z
M250 8h-83q-63 0 -107 38q-47 40 -47 104v206q0 41 26.5 67t68.5 26q40 0 65.5 -25.5t25.5 -66.5t-25 -67t-66 -26q-9 0 -32 6v-120q0 -28 32 -58t59 -30h83q28 0 60 30t32 58v276q0 58 -43 91q-39 29 -99 29q-91 0 -155 -101l-43 22q19 60 81 99q56 34 115 34q86 0 143 -43
q64 -48 64 -131v-276q0 -63 -46 -102.5t-109 -39.5z" />
    <glyph glyph-name="uni1EDC" unicode="&#x1edc;" horiz-adv-x="666" 
d="M633 825q0 61 -64 61q-19 0 -32.5 -14t-13.5 -33q0 -20 13 -33t33 -13q28 0 36 21q-5 -24 -19.5 -30.5t-55 -10.5t-57.5 -13q-26 -13 -10.5 -16t55.5 3q72 10 75 11q40 15 40 67zM590 838q0 -21 -21 -21q-22 0 -22 21t22 21q21 0 21 -21zM193 989q0 61 64 61
q19 0 32.5 -14t13.5 -33q0 -20 -13 -33t-33 -13q-28 0 -36 21q5 -24 19.5 -30.5t55 -10.5t57.5 -13q26 -13 26 -47h-31q0 28 -40 34q-72 10 -75 11q-40 15 -40 67zM236 1002q0 -21 21 -21q22 0 22 21t-22 21q-21 0 -21 -21zM231 475q0 32 -20 52t-52 20q-31 0 -51.5 -19
t-20.5 -51t20 -52t52 -20q30 0 51 20.5t21 49.5zM351 11h-110q-85 0 -144 51q-62 54 -62 139v274q0 56 35.5 90t90.5 34q54 0 88 -34t34 -88t-33.5 -89t-88.5 -35q-11 0 -42 8v-160q0 -37 42.5 -77.5t79.5 -40.5h110q37 0 79.5 40.5t42.5 77.5v368q0 77 -57 121
q-52 39 -131 39q-122 0 -207 -135l-57 30q24 79 107 131q76 46 154 46q114 0 190 -58q85 -64 85 -174v-368q0 -84 -63 -138q-59 -52 -143 -52z" />
    <glyph glyph-name="uni1EDD" unicode="&#x1edd;" horiz-adv-x="501" 
d="M475 640q0 61 -64 61q-19 0 -32.5 -14t-13.5 -33q0 -20 13 -33t33 -13q28 0 36 21q-5 -24 -19.5 -30.5t-55 -10.5t-57.5 -13q-26 -13 -10.5 -16t55.5 3q72 10 75 11q40 15 40 67zM432 653q0 -21 -21 -21q-22 0 -22 21t22 21q21 0 21 -21zM92 791q0 61 64 61
q19 0 32.5 -14t13.5 -33q0 -20 -13 -33t-33 -13q-28 0 -36 21q5 -24 19.5 -30.5t55 -10.5t57.5 -13q26 -13 26 -47h-31q0 28 -40 34q-72 10 -75 11q-40 15 -40 67zM135 804q0 -21 21 -21q22 0 22 21t-22 21q-21 0 -21 -21zM160 356q0 54 -54 54t-54 -53q0 -24 15 -39t39 -15
q22 0 38 15.5t16 37.5zM250 8h-83q-63 0 -107 38q-47 40 -47 104v206q0 41 26.5 67t68.5 26q40 0 65.5 -25.5t25.5 -66.5t-25 -67t-66 -26q-9 0 -32 6v-120q0 -28 32 -58t59 -30h83q28 0 60 30t32 58v276q0 58 -43 91q-39 29 -99 29q-91 0 -155 -101l-43 22q19 60 81 99
q56 34 115 34q86 0 143 -43q64 -48 64 -131v-276q0 -63 -46 -102.5t-109 -39.5z" />
    <glyph glyph-name="uni1EDE" unicode="&#x1ede;" horiz-adv-x="666" 
d="M633 825q0 61 -64 61q-19 0 -32.5 -14t-13.5 -33q0 -20 13 -33t33 -13q28 0 36 21q-5 -24 -19.5 -30.5t-55 -10.5t-57.5 -13q-26 -13 -10.5 -16t55.5 3q72 10 75 11q40 15 40 67zM590 838q0 -21 -21 -21q-22 0 -22 21t22 21q21 0 21 -21zM298 880q2 59 67 124
q14 16 13 30q-2 11 -16 19q-8 4 -19.5 3.5t-25 -4t-26 -9.5t-22.5 -12l-40 52q5 3 16.5 9.5t27 12.5t33.5 11t38 5q13 0 27 -3t28 -11q42 -24 45 -67q8 -45 -30 -81v0q-46 -43 -48 -79h-68zM231 475q0 32 -20 52t-52 20q-31 0 -51.5 -19t-20.5 -51t20 -52t52 -20
q30 0 51 20.5t21 49.5zM351 11h-110q-85 0 -144 51q-62 54 -62 139v274q0 56 35.5 90t90.5 34q54 0 88 -34t34 -88t-33.5 -89t-88.5 -35q-11 0 -42 8v-160q0 -37 42.5 -77.5t79.5 -40.5h110q37 0 79.5 40.5t42.5 77.5v368q0 77 -57 121q-52 39 -131 39q-122 0 -207 -135
l-57 30q24 79 107 131q76 46 154 46q114 0 190 -58q85 -64 85 -174v-368q0 -84 -63 -138q-59 -52 -143 -52z" />
    <glyph glyph-name="uni1EDF" unicode="&#x1edf;" horiz-adv-x="501" 
d="M475 640q0 61 -64 61q-19 0 -32.5 -14t-13.5 -33q0 -20 13 -33t33 -13q28 0 36 21q-5 -24 -19.5 -30.5t-55 -10.5t-57.5 -13q-26 -13 -10.5 -16t55.5 3q72 10 75 11q40 15 40 67zM432 653q0 -21 -21 -21q-22 0 -22 21t22 21q21 0 21 -21zM189 683q2 48 53 102
q11 13 10 25q-2 9 -13 15q-6 3 -15 3t-19.5 -3t-20.5 -8t-18 -10l-31 43q4 2 13 7.5t21 10.5t26.5 9t29.5 4q10 0 21 -2.5t22 -9.5q33 -19 36 -55q6 -37 -24 -66v0q-36 -35 -37 -65h-54zM160 356q0 54 -54 54t-54 -53q0 -24 15 -39t39 -15q22 0 38 15.5t16 37.5zM250 8h-83
q-63 0 -107 38q-47 40 -47 104v206q0 41 26.5 67t68.5 26q40 0 65.5 -25.5t25.5 -66.5t-25 -67t-66 -26q-9 0 -32 6v-120q0 -28 32 -58t59 -30h83q28 0 60 30t32 58v276q0 58 -43 91q-39 29 -99 29q-91 0 -155 -101l-43 22q19 60 81 99q56 34 115 34q86 0 143 -43
q64 -48 64 -131v-276q0 -63 -46 -102.5t-109 -39.5z" />
    <glyph glyph-name="uni1EE0" unicode="&#x1ee0;" horiz-adv-x="666" 
d="M633 825q0 61 -64 61q-19 0 -32.5 -14t-13.5 -33q0 -20 13 -33t33 -13q28 0 36 21q-5 -24 -19.5 -30.5t-55 -10.5t-57.5 -13q-26 -13 -10.5 -16t55.5 3q72 10 75 11q40 15 40 67zM590 838q0 -21 -21 -21q-22 0 -22 21t22 21q21 0 21 -21zM231 475q0 32 -20 52t-52 20
q-31 0 -51.5 -19t-20.5 -51t20 -52t52 -20q30 0 51 20.5t21 49.5zM351 11h-110q-85 0 -144 51q-62 54 -62 139v274q0 56 35.5 90t90.5 34q54 0 88 -34t34 -88t-33.5 -89t-88.5 -35q-11 0 -42 8v-160q0 -37 42.5 -77.5t79.5 -40.5h110q37 0 79.5 40.5t42.5 77.5v368
q0 77 -57 121q-52 39 -131 39q-122 0 -207 -135l-57 30q24 79 107 131q76 46 154 46q114 0 190 -58q85 -64 85 -174v-368q0 -84 -63 -138q-59 -52 -143 -52zM447 1011q-24 -94 -97 -94q-17 0 -48.5 11t-48.5 11q-33 0 -47 -31h-43q22 91 97 91q17 0 48.5 -11.5t48.5 -11.5
q34 0 47 35h43z" />
    <glyph glyph-name="uni1EE1" unicode="&#x1ee1;" horiz-adv-x="677" 
d="M551 634q0 61 -64 61q-19 0 -32.5 -14t-13.5 -33q0 -20 13 -33t33 -13q28 0 36 21q-5 -24 -19.5 -30.5t-55 -10.5t-57.5 -13q-26 -13 -10.5 -16t55.5 3q72 10 75 11q40 15 40 67zM508 647q0 -21 -21 -21q-22 0 -22 21t22 21q21 0 21 -21zM231 356q0 54 -54 54t-54 -53
q0 -24 15 -39t39 -15q22 0 38 15.5t16 37.5zM321 8h-83q-63 0 -107 38q-47 40 -47 104v206q0 41 26.5 67t68.5 26q40 0 65.5 -25.5t25.5 -66.5t-25 -67t-66 -26q-9 0 -32 6v-120q0 -28 32 -58t59 -30h83q28 0 60 30t32 58v276q0 58 -43 91q-39 29 -99 29q-91 0 -155 -101
l-43 22q19 60 81 99q56 34 115 34q86 0 143 -43q64 -48 64 -131v-276q0 -63 -46 -102.5t-109 -39.5zM663 845q-24 -94 -97 -94q-17 0 -48.5 11t-48.5 11q-33 0 -47 -31h-43q22 91 97 91q17 0 48.5 -11.5t48.5 -11.5q34 0 47 35h43z" />
    <glyph glyph-name="uni1EE2" unicode="&#x1ee2;" horiz-adv-x="666" 
d="M633 825q0 -52 -40 -67q-3 -1 -75 -11q-40 -6 -55.5 -3t10.5 16q17 9 57.5 13t55 10.5t19.5 30.5q-8 -21 -36 -21q-20 0 -33 13t-13 33q0 19 13.5 33t32.5 14q64 0 64 -61zM590 838q0 21 -21 21q-22 0 -22 -21t22 -21q21 0 21 21zM268 -68q0 17 12 29.5t30 12.5
t30.5 -12.5t12.5 -29.5t-12.5 -30t-30.5 -13t-30 13t-12 30zM231 475q0 32 -20 52t-52 20q-31 0 -51.5 -19t-20.5 -51t20 -52t52 -20q30 0 51 20.5t21 49.5zM351 11h-110q-85 0 -144 51q-62 54 -62 139v274q0 56 35.5 90t90.5 34q54 0 88 -34t34 -88t-33.5 -89t-88.5 -35
q-11 0 -42 8v-160q0 -37 42.5 -77.5t79.5 -40.5h110q37 0 79.5 40.5t42.5 77.5v368q0 77 -57 121q-52 39 -131 39q-122 0 -207 -135l-57 30q24 79 107 131q76 46 154 46q114 0 190 -58q85 -64 85 -174v-368q0 -84 -63 -138q-59 -52 -143 -52z" />
    <glyph glyph-name="uni1EE3" unicode="&#x1ee3;" horiz-adv-x="677" 
d="M551 634q0 -52 -40 -67q-3 -1 -75 -11q-40 -6 -55.5 -3t10.5 16q17 9 57.5 13t55 10.5t19.5 30.5q-8 -21 -36 -21q-20 0 -33 13t-13 33q0 19 13.5 33t32.5 14q64 0 64 -61zM508 647q0 21 -21 21q-22 0 -22 -21t22 -21q21 0 21 21zM257 -49q0 13 8.5 21.5t20.5 8.5
t20.5 -8.5t8.5 -21.5t-8.5 -21.5t-20.5 -8.5t-20.5 8.5t-8.5 21.5zM231 356q0 54 -54 54t-54 -53q0 -24 15 -39t39 -15q22 0 38 15.5t16 37.5zM321 8h-83q-63 0 -107 38q-47 40 -47 104v206q0 41 26.5 67t68.5 26q40 0 65.5 -25.5t25.5 -66.5t-25 -67t-66 -26q-9 0 -32 6
v-120q0 -28 32 -58t59 -30h83q28 0 60 30t32 58v276q0 58 -43 91q-39 29 -99 29q-91 0 -155 -101l-43 22q19 60 81 99q56 34 115 34q86 0 143 -43q64 -48 64 -131v-276q0 -63 -46 -102.5t-109 -39.5z" />
    <glyph glyph-name="uni1EE4" unicode="&#x1ee4;" horiz-adv-x="842" 
d="M392 -109q0 -21 16.5 -36.5t39.5 -15.5t40 15.5t17 36.5t-17 36t-40 15t-39.5 -15t-16.5 -36zM790 153q0 -98 -38 -128q-32 -25 -133 -25h-388v527q-18 -7 -45 -7q-63 0 -104 41t-41 105q0 63 41 103t104 40t103.5 -41.5t40.5 -104.5v-578h289q42 0 57 12t15 56v646h99
v-646zM790 -444h-78v131q-17 -5 -38 -5q-49 0 -79 31.5t-30 80.5q0 51 31 82.5t82 31.5q49 0 80.5 -31t31.5 -80v-241zM735 -206q0 56 -57 56q-25 0 -42 -15.5t-17 -40.5t17 -40t42 -15q24 0 40.5 15.5t16.5 39.5zM259 663q0 32 -20.5 52.5t-52.5 20.5t-52.5 -20t-20.5 -53
q0 -31 21 -52t52 -21q32 0 52.5 20.5t20.5 52.5z" />
    <glyph glyph-name="uni1EE5" unicode="&#x1ee5;" horiz-adv-x="637" 
d="M197 -51q0 -14 9.5 -23.5t23.5 -9.5t23.5 9.5t9.5 23.5t-9.5 23.5t-23.5 9.5t-23.5 -9.5t-9.5 -23.5zM611 99q0 -47 -31 -77.5t-79 -30.5q-47 0 -77.5 31t-30.5 79v211q-65 -145 -95 -192q-76 -121 -156 -121q-54 0 -85 42q-28 38 -28 94v465h74v-465q0 -69 43 -69
q56 0 136 159q58 116 86 213q25 91 25 162h75v-396q13 5 33 5q48 0 79 -31t31 -79zM557 101q0 24 -16 39.5t-40 15.5t-39 -15.5t-15 -39.5t15 -39t39 -15q56 0 56 54z" />
    <glyph glyph-name="uni1EE6" unicode="&#x1ee6;" horiz-adv-x="842" 
d="M451 873q2 59 67 124q14 16 13 30q-2 11 -16 19q-8 4 -19.5 3.5t-25 -4t-26 -9.5t-22.5 -12l-40 52q5 3 16.5 9.5t27 12.5t33.5 11t38 5q13 0 27 -3t28 -11q42 -24 45 -67q8 -45 -30 -81v0q-46 -43 -48 -79h-68zM790 153q0 -98 -38 -128q-32 -25 -133 -25h-388v527
q-18 -7 -45 -7q-63 0 -104 41t-41 105q0 63 41 103t104 40t103.5 -41.5t40.5 -104.5v-578h289q42 0 57 12t15 56v646h99v-646zM790 -444h-78v131q-17 -5 -38 -5q-49 0 -79 31.5t-30 80.5q0 51 31 82.5t82 31.5q49 0 80.5 -31t31.5 -80v-241zM735 -206q0 56 -57 56
q-25 0 -42 -15.5t-17 -40.5t17 -40t42 -15q24 0 40.5 15.5t16.5 39.5zM259 663q0 32 -20.5 52.5t-52.5 20.5t-52.5 -20t-20.5 -53q0 -31 21 -52t52 -21q32 0 52.5 20.5t20.5 52.5z" />
    <glyph glyph-name="uni1EE7" unicode="&#x1ee7;" horiz-adv-x="637" 
d="M210 649q2 59 67 124q14 16 13 30q-2 11 -16 19q-8 4 -19.5 3.5t-25 -4t-26 -9.5t-22.5 -12l-40 52q5 3 16.5 9.5t27 12.5t33.5 11t38 5q13 0 27 -3t28 -11q42 -24 45 -67q8 -45 -30 -81v0q-46 -43 -48 -79h-68zM611 99q0 -47 -31 -77.5t-79 -30.5q-47 0 -77.5 31
t-30.5 79v211q-65 -145 -95 -192q-76 -121 -156 -121q-54 0 -85 42q-28 38 -28 94v465h74v-465q0 -69 43 -69q56 0 136 159q58 116 86 213q25 91 25 162h75v-396q13 5 33 5q48 0 79 -31t31 -79zM557 101q0 24 -16 39.5t-40 15.5t-39 -15.5t-15 -39.5t15 -39t39 -15
q56 0 56 54z" />
    <glyph glyph-name="uni1EE8" unicode="&#x1ee8;" horiz-adv-x="919" 
d="M884 880q0 -52 -40 -67q-3 -1 -75 -11q-40 -6 -55.5 -3t10.5 16q17 9 57.5 13t55 10.5t19.5 30.5q-8 -21 -36 -21q-20 0 -33 13t-13 33q0 19 13.5 33t32.5 14q64 0 64 -61zM841 893q0 21 -21 21q-22 0 -22 -21t22 -21q21 0 21 21zM626 1013q0 -63 -58 -81q-4 -2 -108 -14
q-58 -7 -58 -41h-44q0 41 37 57q25 11 83.5 16t79 12.5t28.5 37.5q-12 -26 -52 -26q-29 0 -48 16t-19 40q0 23 20 40t47 17q92 0 92 -74zM564 1029q0 25 -30 25q-32 0 -32 -25q0 -26 32 -26q30 0 30 26zM790 153q0 -98 -38 -128q-32 -25 -133 -25h-388v527q-18 -7 -45 -7
q-63 0 -104 41t-41 105q0 63 41 103t104 40t103.5 -41.5t40.5 -104.5v-578h289q42 0 57 12t15 56v646h99v-646zM790 -444h-78v131q-17 -5 -38 -5q-49 0 -79 31.5t-30 80.5q0 51 31 82.5t82 31.5q49 0 80.5 -31t31.5 -80v-241zM735 -206q0 56 -57 56q-25 0 -42 -15.5
t-17 -40.5t17 -40t42 -15q24 0 40.5 15.5t16.5 39.5zM259 663q0 32 -20.5 52.5t-52.5 20.5t-52.5 -20t-20.5 -53q0 -31 21 -52t52 -21q32 0 52.5 20.5t20.5 52.5z" />
    <glyph glyph-name="uni1EE9" unicode="&#x1ee9;" horiz-adv-x="637" 
d="M575 685q0 -52 -40 -67q-3 -1 -75 -11q-40 -6 -55.5 -3t10.5 16q17 9 57.5 13t55 10.5t19.5 30.5q-8 -21 -36 -21q-20 0 -33 13t-13 33q0 19 13.5 33t32.5 14q64 0 64 -61zM532 698q0 21 -21 21q-22 0 -22 -21t22 -21q21 0 21 21zM400 822q0 -53 -55 -67q-3 -2 -101 -12
q-55 -6 -55 -34h-41q0 34 35 47q23 9 78 13.5t74.5 10.5t26.5 31q-11 -22 -49 -22q-27 0 -45 13.5t-18 33.5q0 19 19 33t44 14q87 0 87 -61zM342 835q0 21 -29 21q-30 0 -30 -21q0 -22 30 -22q29 0 29 22zM611 99q0 -47 -31 -77.5t-79 -30.5q-47 0 -77.5 31t-30.5 79v211
q-65 -145 -95 -192q-76 -121 -156 -121q-54 0 -85 42q-28 38 -28 94v465h74v-465q0 -69 43 -69q56 0 136 159q58 116 86 213q25 91 25 162h75v-396q13 5 33 5q48 0 79 -31t31 -79zM557 101q0 24 -16 39.5t-40 15.5t-39 -15.5t-15 -39.5t15 -39t39 -15q56 0 56 54z" />
    <glyph glyph-name="uni1EEA" unicode="&#x1eea;" horiz-adv-x="916" 
d="M884 880q0 61 -64 61q-19 0 -32.5 -14t-13.5 -33q0 -20 13 -33t33 -13q28 0 36 21q-5 -24 -19.5 -30.5t-55 -10.5t-57.5 -13q-26 -13 -10.5 -16t55.5 3q72 10 75 11q40 15 40 67zM841 893q0 -21 -21 -21q-22 0 -22 21t22 21q21 0 21 -21zM358 1013q0 74 92 74
q27 0 47 -17t20 -40q0 -24 -19 -40t-48 -16q-40 0 -52 26q8 -30 28.5 -37.5t79 -12.5t83.5 -16q37 -16 37 -57h-44q0 34 -58 41q-104 12 -108 14q-58 18 -58 81zM420 1029q0 -26 30 -26q32 0 32 26q0 25 -32 25q-30 0 -30 -25zM790 153q0 -98 -38 -128q-32 -25 -133 -25
h-388v527q-18 -7 -45 -7q-63 0 -104 41t-41 105q0 63 41 103t104 40t103.5 -41.5t40.5 -104.5v-578h289q42 0 57 12t15 56v646h99v-646zM790 -444h-78v131q-17 -5 -38 -5q-49 0 -79 31.5t-30 80.5q0 51 31 82.5t82 31.5q49 0 80.5 -31t31.5 -80v-241zM735 -206q0 56 -57 56
q-25 0 -42 -15.5t-17 -40.5t17 -40t42 -15q24 0 40.5 15.5t16.5 39.5zM259 663q0 32 -20.5 52.5t-52.5 20.5t-52.5 -20t-20.5 -53q0 -31 21 -52t52 -21q32 0 52.5 20.5t20.5 52.5z" />
    <glyph glyph-name="uni1EEB" unicode="&#x1eeb;" horiz-adv-x="637" 
d="M575 685q0 61 -64 61q-19 0 -32.5 -14t-13.5 -33q0 -20 13 -33t33 -13q28 0 36 21q-5 -24 -19.5 -30.5t-55 -10.5t-57.5 -13q-26 -13 -10.5 -16t55.5 3q72 10 75 11q40 15 40 67zM532 698q0 -21 -21 -21q-22 0 -22 21t22 21q21 0 21 -21zM148 822q0 61 87 61q25 0 44 -14
t19 -33q0 -20 -18 -33.5t-45 -13.5q-38 0 -49 22q7 -25 26.5 -31t74.5 -10.5t78 -13.5q35 -13 35 -47h-41q0 28 -55 34q-98 10 -101 12q-55 14 -55 67zM206 835q0 -22 29 -22q30 0 30 22q0 21 -30 21q-29 0 -29 -21zM611 99q0 -47 -31 -77.5t-79 -30.5q-47 0 -77.5 31
t-30.5 79v211q-65 -145 -95 -192q-76 -121 -156 -121q-54 0 -85 42q-28 38 -28 94v465h74v-465q0 -69 43 -69q56 0 136 159q58 116 86 213q25 91 25 162h75v-396q13 5 33 5q48 0 79 -31t31 -79zM557 101q0 24 -16 39.5t-40 15.5t-39 -15.5t-15 -39.5t15 -39t39 -15
q56 0 56 54z" />
    <glyph glyph-name="uni1EEC" unicode="&#x1eec;" horiz-adv-x="920" 
d="M884 880q0 61 -64 61q-19 0 -32.5 -14t-13.5 -33q0 -20 13 -33t33 -13q28 0 36 21q-5 -24 -19.5 -30.5t-55 -10.5t-57.5 -13q-26 -13 -10.5 -16t55.5 3q72 10 75 11q40 15 40 67zM841 893q0 -21 -21 -21q-22 0 -22 21t22 21q21 0 21 -21zM461 885q2 61 64 130
q13 17 12 32q-2 12 -16 19q-7 4 -18 4t-23.5 -3.5t-24.5 -10t-22 -13.5l-37 55q5 3 15.5 10t25 13.5t32 11.5t35.5 5q12 0 25.5 -3t26.5 -12q40 -25 44 -71q7 -47 -29 -84v0q-44 -45 -45 -83h-65zM790 153q0 -98 -38 -128q-32 -25 -133 -25h-388v527q-18 -7 -45 -7
q-63 0 -104 41t-41 105q0 63 41 103t104 40t103.5 -41.5t40.5 -104.5v-578h289q42 0 57 12t15 56v646h99v-646zM790 -444h-78v131q-17 -5 -38 -5q-49 0 -79 31.5t-30 80.5q0 51 31 82.5t82 31.5q49 0 80.5 -31t31.5 -80v-241zM735 -206q0 56 -57 56q-25 0 -42 -15.5
t-17 -40.5t17 -40t42 -15q24 0 40.5 15.5t16.5 39.5zM259 663q0 32 -20.5 52.5t-52.5 20.5t-52.5 -20t-20.5 -53q0 -31 21 -52t52 -21q32 0 52.5 20.5t20.5 52.5z" />
    <glyph glyph-name="uni1EED" unicode="&#x1eed;" horiz-adv-x="637" 
d="M575 685q0 61 -64 61q-19 0 -32.5 -14t-13.5 -33q0 -20 13 -33t33 -13q28 0 36 21q-5 -24 -19.5 -30.5t-55 -10.5t-57.5 -13q-26 -13 -10.5 -16t55.5 3q72 10 75 11q40 15 40 67zM532 698q0 -21 -21 -21q-22 0 -22 21t22 21q21 0 21 -21zM226 713q1 48 53 103
q11 13 10 25q-1 10 -13 15q-6 3 -15 3t-19.5 -2.5t-21 -8t-18.5 -10.5l-31 43q4 3 13 8.5t21 10.5t27 9t30 4q10 0 21 -2.5t22 -9.5q34 -20 37 -56q6 -37 -24 -66v0q-37 -36 -38 -66h-54zM611 99q0 -47 -31 -77.5t-79 -30.5q-47 0 -77.5 31t-30.5 79v211q-65 -145 -95 -192
q-76 -121 -156 -121q-54 0 -85 42q-28 38 -28 94v465h74v-465q0 -69 43 -69q56 0 136 159q58 116 86 213q25 91 25 162h75v-396q13 5 33 5q48 0 79 -31t31 -79zM557 101q0 24 -16 39.5t-40 15.5t-39 -15.5t-15 -39.5t15 -39t39 -15q56 0 56 54z" />
    <glyph glyph-name="uni1EEE" unicode="&#x1eee;" horiz-adv-x="936" 
d="M884 880q0 61 -64 61q-19 0 -32.5 -14t-13.5 -33q0 -20 13 -33t33 -13q28 0 36 21q-5 -24 -19.5 -30.5t-55 -10.5t-57.5 -13q-26 -13 -10.5 -16t55.5 3q72 10 75 11q40 15 40 67zM841 893q0 -21 -21 -21q-22 0 -22 21t22 21q21 0 21 -21zM589 1002h53q-26 -97 -99 -97
q-18 0 -54.5 10t-53.5 10q-29 0 -41 -30h-53q25 95 98 95q19 0 55.5 -10.5t53.5 -10.5q30 0 41 33zM790 153q0 -98 -38 -128q-32 -25 -133 -25h-388v527q-18 -7 -45 -7q-63 0 -104 41t-41 105q0 63 41 103t104 40t103.5 -41.5t40.5 -104.5v-578h289q42 0 57 12t15 56v646h99
v-646zM790 -444h-78v131q-17 -5 -38 -5q-49 0 -79 31.5t-30 80.5q0 51 31 82.5t82 31.5q49 0 80.5 -31t31.5 -80v-241zM735 -206q0 56 -57 56q-25 0 -42 -15.5t-17 -40.5t17 -40t42 -15q24 0 40.5 15.5t16.5 39.5zM259 663q0 32 -20.5 52.5t-52.5 20.5t-52.5 -20t-20.5 -53
q0 -31 21 -52t52 -21q32 0 52.5 20.5t20.5 52.5z" />
    <glyph glyph-name="uni1EEF" unicode="&#x1eef;" horiz-adv-x="637" 
d="M575 685q0 61 -64 61q-19 0 -32.5 -14t-13.5 -33q0 -20 13 -33t33 -13q28 0 36 21q-5 -24 -19.5 -30.5t-55 -10.5t-57.5 -13q-26 -13 -10.5 -16t55.5 3q72 10 75 11q40 15 40 67zM532 698q0 -21 -21 -21q-22 0 -22 21t22 21q21 0 21 -21zM330 799h44q-22 -78 -83 -78
q-15 0 -46 8t-45 8q-24 0 -34 -24h-45q21 77 82 77q16 0 47 -8.5t45 -8.5q25 0 35 26zM611 99q0 -47 -31 -77.5t-79 -30.5q-47 0 -77.5 31t-30.5 79v211q-65 -145 -95 -192q-76 -121 -156 -121q-54 0 -85 42q-28 38 -28 94v465h74v-465q0 -69 43 -69q56 0 136 159
q58 116 86 213q25 91 25 162h75v-396q13 5 33 5q48 0 79 -31t31 -79zM557 101q0 24 -16 39.5t-40 15.5t-39 -15.5t-15 -39.5t15 -39t39 -15q56 0 56 54z" />
    <glyph glyph-name="uni1EF0" unicode="&#x1ef0;" horiz-adv-x="920" 
d="M884 880q0 -52 -40 -67q-3 -1 -75 -11q-40 -6 -55.5 -3t10.5 16q17 9 57.5 13t55 10.5t19.5 30.5q-8 -21 -36 -21q-20 0 -33 13t-13 33q0 19 13.5 33t32.5 14q64 0 64 -61zM841 893q0 21 -21 21q-22 0 -22 -21t22 -21q21 0 21 21zM403 -127q0 21 14.5 35.5t36.5 14.5
t37 -14.5t15 -35.5t-15 -36t-37 -15t-36.5 15t-14.5 36zM790 153q0 -98 -38 -128q-32 -25 -133 -25h-388v527q-18 -7 -45 -7q-63 0 -104 41t-41 105q0 63 41 103t104 40t103.5 -41.5t40.5 -104.5v-578h289q42 0 57 12t15 56v646h99v-646zM790 -444h-78v131q-17 -5 -38 -5
q-49 0 -79 31.5t-30 80.5q0 51 31 82.5t82 31.5q49 0 80.5 -31t31.5 -80v-241zM735 -206q0 56 -57 56q-25 0 -42 -15.5t-17 -40.5t17 -40t42 -15q24 0 40.5 15.5t16.5 39.5zM259 663q0 32 -20.5 52.5t-52.5 20.5t-52.5 -20t-20.5 -53q0 -31 21 -52t52 -21q32 0 52.5 20.5
t20.5 52.5z" />
    <glyph glyph-name="uni1EF1" unicode="&#x1ef1;" horiz-adv-x="637" 
d="M575 685q0 -52 -40 -67q-3 -1 -75 -11q-40 -6 -55.5 -3t10.5 16q17 9 57.5 13t55 10.5t19.5 30.5q-8 -21 -36 -21q-20 0 -33 13t-13 33q0 19 13.5 33t32.5 14q64 0 64 -61zM532 698q0 21 -21 21q-22 0 -22 -21t22 -21q21 0 21 21zM117 -57q0 12 9 20.5t23 8.5t23 -8.5
t9 -20.5t-9 -20.5t-23 -8.5t-23 8.5t-9 20.5zM611 99q0 -47 -31 -77.5t-79 -30.5q-47 0 -77.5 31t-30.5 79v211q-65 -145 -95 -192q-76 -121 -156 -121q-54 0 -85 42q-28 38 -28 94v465h74v-465q0 -69 43 -69q56 0 136 159q58 116 86 213q25 91 25 162h75v-396q13 5 33 5
q48 0 79 -31t31 -79zM557 101q0 24 -16 39.5t-40 15.5t-39 -15.5t-15 -39.5t15 -39t39 -15q56 0 56 54z" />
    <glyph glyph-name="Ygrave" unicode="&#x1ef2;" horiz-adv-x="704" 
d="M656 261q0 -128 -92 -199q-83 -63 -215 -63q-91 0 -176 40q-93 43 -138 116l63 48q93 -127 247 -127q91 0 149 45q65 51 65 140v269q-60 -141 -110 -204q-83 -102 -196 -102q-93 0 -139 99q-35 74 -35 178q0 141 18 200q34 113 142 113q63 0 102 -40t39 -103
q0 -62 -40 -101.5t-101 -39.5q-38 0 -67 19q-5 -43 -5 -72q0 -64 18 -109q26 -63 81 -63q67 0 141 101q61 86 108 212q44 117 44 182h97v-539zM310 673q0 31 -20 51.5t-51 20.5t-51.5 -20.5t-20.5 -51.5q0 -32 20 -51.5t52 -19.5t51.5 19.5t19.5 51.5zM479 930
q0 -61 -64 -61q-19 0 -32.5 14t-13.5 33q0 20 13 33t33 13q28 0 36 -21q-5 24 -19.5 30.5t-55 10.5t-57.5 13q-26 13 -26 47h31q0 -28 40 -34q72 -10 75 -11q40 -15 40 -67zM436 917q0 21 -21 21q-22 0 -22 -21t22 -21q21 0 21 21z" />
    <glyph glyph-name="ygrave" unicode="&#x1ef3;" horiz-adv-x="542" 
d="M490 196q0 -96 -69 -149q-62 -48 -161 -48q-69 0 -133 30q-70 32 -103 88l47 36q69 -96 185 -96q69 0 113 34q48 38 48 105v202q-45 -106 -83 -153q-62 -77 -147 -77q-70 0 -104 74q-27 57 -27 134q0 107 14 151q26 84 107 84q47 0 76 -29.5t29 -77.5q0 -46 -29.5 -76
t-75.5 -30q-29 0 -51 15q-3 -32 -3 -55q0 -47 13 -81q20 -48 61 -48q74 0 151 152q69 136 69 220h73v-405zM230 506q0 23 -15 38.5t-38 15.5q-24 0 -39 -15.5t-15 -38.5q0 -54 54 -54q23 0 38 15t15 39zM384 723q0 -61 -64 -61q-19 0 -32.5 14t-13.5 33q0 20 13 33t33 13
q28 0 36 -21q-5 24 -19.5 30.5t-55 10.5t-57.5 13q-26 13 -26 47h31q0 -28 40 -34q72 -10 75 -11q40 -15 40 -67zM341 710q0 21 -21 21q-22 0 -22 -21t22 -21q21 0 21 21z" />
    <glyph glyph-name="uni1EF4" unicode="&#x1ef4;" horiz-adv-x="704" 
d="M331 -77q0 -17 12 -28.5t29 -11.5t29.5 11.5t12.5 28.5t-12.5 28.5t-29.5 11.5t-29 -11.5t-12 -28.5zM656 261q0 -128 -92 -199q-83 -63 -215 -63q-91 0 -176 40q-93 43 -138 116l63 48q93 -127 247 -127q91 0 149 45q65 51 65 140v269q-60 -141 -110 -204
q-83 -102 -196 -102q-93 0 -139 99q-35 74 -35 178q0 141 18 200q34 113 142 113q63 0 102 -40t39 -103q0 -62 -40 -101.5t-101 -39.5q-38 0 -67 19q-5 -43 -5 -72q0 -64 18 -109q26 -63 81 -63q67 0 141 101q61 86 108 212q44 117 44 182h97v-539zM310 673q0 31 -20 51.5
t-51 20.5t-51.5 -20.5t-20.5 -51.5q0 -32 20 -51.5t52 -19.5t51.5 19.5t19.5 51.5z" />
    <glyph glyph-name="uni1EF5" unicode="&#x1ef5;" horiz-adv-x="542" 
d="M248 -59q0 -11 9 -19t23 -8t23 8t9 19t-9 18.5t-23 7.5t-23 -7.5t-9 -18.5zM490 196q0 -96 -69 -149q-62 -48 -161 -48q-69 0 -133 30q-70 32 -103 88l47 36q69 -96 185 -96q69 0 113 34q48 38 48 105v202q-45 -106 -83 -153q-62 -77 -147 -77q-70 0 -104 74
q-27 57 -27 134q0 107 14 151q26 84 107 84q47 0 76 -29.5t29 -77.5q0 -46 -29.5 -76t-75.5 -30q-29 0 -51 15q-3 -32 -3 -55q0 -47 13 -81q20 -48 61 -48q74 0 151 152q69 136 69 220h73v-405zM230 506q0 23 -15 38.5t-38 15.5q-24 0 -39 -15.5t-15 -38.5q0 -54 54 -54
q23 0 38 15t15 39z" />
    <glyph glyph-name="uni1EF6" unicode="&#x1ef6;" horiz-adv-x="704" 
d="M369 883q2 56 59 120q12 15 11 29q0 11 -14 17q-6 3 -16 3t-22 -3t-23.5 -9t-20.5 -12l-35 50q4 4 14 10t23.5 12t30 10.5t33.5 4.5q11 0 23.5 -3t24.5 -11q38 -23 42 -65q6 -43 -27 -76v0q-41 -43 -43 -77h-60zM656 261q0 -128 -92 -199q-83 -63 -215 -63q-91 0 -176 40
q-93 43 -138 116l63 48q93 -127 247 -127q91 0 149 45q65 51 65 140v269q-60 -141 -110 -204q-83 -102 -196 -102q-93 0 -139 99q-35 74 -35 178q0 141 18 200q34 113 142 113q63 0 102 -40t39 -103q0 -62 -40 -101.5t-101 -39.5q-38 0 -67 19q-5 -43 -5 -72q0 -64 18 -109
q26 -63 81 -63q67 0 141 101q61 86 108 212q44 117 44 182h97v-539zM310 673q0 31 -20 51.5t-51 20.5t-51.5 -20.5t-20.5 -51.5q0 -32 20 -51.5t52 -19.5t51.5 19.5t19.5 51.5z" />
    </font>
</defs>
</svg>
