<?xml version="1.0" standalone="no"?>
<!DOCTYPE svg PUBLIC "-//W3C//DTD SVG 1.1//EN" "http://www.w3.org/Graphics/SVG/1.1/DTD/svg11.dtd" >
<svg xmlns="http://www.w3.org/2000/svg" xmlns:xlink="http://www.w3.org/1999/xlink" version="1.1">
<metadata>
Created by FontForge 20170731 at Tue Dec 24 03:18:43 2013
 By Aleksey,,,
Copyright (c) 2012 by Viet hoa by UhThiLaHuVo - chipquay@gmail.com. All rights reserved.
</metadata>
<defs>
<font id="HLTAireLightPro" horiz-adv-x="452" >
  <font-face 
    font-family="HLT Aire Light Pro"
    font-weight="400"
    font-stretch="normal"
    units-per-em="1000"
    panose-1="2 0 0 0 0 0 0 0 0 0"
    ascent="750"
    descent="-250"
    x-height="455"
    cap-height="694"
    bbox="-1510.49 -601 3337.33 1013"
    underline-thickness="50"
    underline-position="-150"
    unicode-range="U+0020-FB02"
  />
<missing-glyph horiz-adv-x="279" 
 />
    <glyph glyph-name="fi" unicode="fi" horiz-adv-x="398" 
d="M34 2q0 2 2 2h38q10 0 10 10v427q0 10 -10 10h-47q-2 0 -2 2t2 2h47q10 0 10 10v19q0 50 19 93t50.5 71t71.5 38.5t83 -4.5q11 -4 14.5 -9t1.5 -9.5t-9 -6.5t-16 1q-57 18 -94 10t-59 -33.5t-31 -65t-9 -85.5v-19q0 -10 10 -10h67q3 0 3 -2t-3 -2h-67q-10 0 -10 -10v-427
q0 -10 10 -10h38q2 0 2 -2t-2 -2h-118q-2 0 -2 2zM320 37q0 -16 9 -25.5t23 -9.5q11 0 21 9t10 28q0 3 2.5 3t2.5 -3q0 -22 -13 -32t-30 -10q-21 0 -34 14.5t-13 43.5v370q0 23 -20 26h-30q-2 0 -2 2t2 2h87q2 0 2 -2t-2 -2h-15v-414z" />
    <glyph glyph-name="fl" unicode="fl" horiz-adv-x="426" 
d="M34 2q0 2 2 2h41q7 0 7 7v433q0 7 -7 7h-50q-2 0 -2 2t2 2h50q7 0 7 7v32q0 109 51 171t147 62h55v-669q0 -29 13 -41.5t33 -12.5q14 0 25 9.5t11 28.5q0 4 2.5 4t2.5 -4q0 -22 -15 -34t-38 -11q-56 2 -56 73v627q-1 0 -1 1q-67 16 -108 6t-63 -38.5t-29.5 -73
t-7.5 -98.5v-32q0 -7 7 -7h70q3 0 3 -2t-3 -2h-70q-7 0 -7 -7v-433q0 -7 7 -7h41q2 0 2 -2t-2 -2h-118q-2 0 -2 2z" />
    <glyph glyph-name="afii10066_afii10082" unicode="&#x431;&#x440;" horiz-adv-x="954" 
d="M484 -248q0 2 2 2h30q10 0 10 10v652q0 45 9.5 93.5t29.5 81.5q-17 -1 -36 -0.5t-40 0.5q-42 0 -89 4.5t-94 3.5t-91 -11t-79.5 -38.5t-60 -81t-32.5 -136.5q23 69 75 102t115 33q40 0 77 -14t65 -41.5t44.5 -70t16.5 -99.5v-11q0 -49 -13 -91.5t-38.5 -74.5t-64 -50.5
t-88.5 -18.5t-87.5 18.5t-63 50.5t-38.5 74.5t-13 91.5v23q0 118 27.5 191.5t72.5 113.5t103.5 54t120.5 14q30 0 60.5 -4.5t59 -9.5t54 -9t45.5 -2q11 14 24 23t30 9q11 0 15 -6t0.5 -13.5t-13.5 -14t-27 -7.5h-20q-1 0 -1.5 -0.5t-1.5 -0.5q-14 -15 -22.5 -57t-8.5 -117
v-81q10 33 28 57.5t41.5 40.5t49.5 24t53 8q40 0 77 -14t65 -41.5t44.5 -70t16.5 -99.5v-11q0 -49 -12.5 -91.5t-37.5 -74.5t-61.5 -50.5t-84.5 -18.5q-28 0 -55 6t-51 22t-43 42.5t-30 67.5v-370q0 -10 10 -10h29q2 0 2 -2t-2 -2h-101q-2 0 -2 2zM233 463q-35 0 -67 -12
t-57 -38.5t-39.5 -68.5t-14.5 -102v-11q0 -50 10 -92t31 -72.5t54.5 -48.5t81.5 -18t82 17.5t55.5 48.5t31.5 73t10 92v11q0 60 -14.5 102t-39.5 68.5t-57 38.5t-67 12zM720 463q-65 0 -111.5 -41t-60.5 -111v-148q6 -36 19.5 -65.5t35.5 -51.5t52.5 -34t71.5 -12
q45 0 77.5 17.5t53 48.5t30.5 73t10 92v11q0 60 -14.5 102t-39.5 68.5t-57 38.5t-67 12z" />
    <glyph glyph-name="afii10070_afii10077" unicode="&#x435;&#x43b;" horiz-adv-x="867" 
d="M551 319q3 48 1 75t-7.5 40t-12 16t-11.5 3h-24q-3 0 -2.5 2t2.5 2h324v-4h-14q-15 0 -15 -15v-428q0 -6 6 -6h39q3 0 3 -2t-3 -2h-113q-4 0 -4 2t4 2h39q7 0 7 6v430q0 13 -11 13h-172q-12 0 -17 -6.5t-6 -17.5l-14 -203q-5 -77 -17.5 -122t-28 -68.5t-32 -30
t-31.5 -6.5q-32 0 -49.5 16.5t-25.5 37.5q-25 -26 -61 -41.5t-74 -15.5h-1q-50 1 -87 19.5t-62.5 50.5t-38 74.5t-12.5 90.5v11q0 57 16.5 99t44 70t64 42t77.5 14h1q34 0 64 -11.5t53 -32.5t37 -50.5t17 -65.5q1 -19 -21 -19h-326q-1 -11 -1.5 -22.5t-0.5 -23.5v-11
q0 -50 10 -92t31.5 -73t55.5 -48.5t82 -17.5q45 1 78 19.5t51 44.5q-2 10 -2.5 19t0.5 17q2 13 7 17.5t12 4.5q14 0 16.5 -15t-5.5 -27q0 -40 14 -57.5t37 -17.5q16 0 32 8t30 32.5t25 69.5t16 119zM380 309q0 31 -8.5 59t-26.5 49t-46 33.5t-66 12.5q-31 0 -60 -9.5
t-52.5 -30t-40 -53t-22.5 -78.5h306q16 0 16 17z" />
    <glyph glyph-name="afii10083_afii10077" unicode="&#x441;&#x43b;" horiz-adv-x="870" 
d="M556 319q3 48 1 75t-7.5 40t-12 16t-11.5 3h-24q-3 0 -2.5 2t2.5 2h324v-4h-14q-15 0 -15 -15v-428q0 -6 6 -6h39q3 0 3 -2t-3 -2h-113q-4 0 -4 2t4 2h39q7 0 7 6v430q0 13 -11 13h-172q-12 0 -17 -6.5t-6 -17.5l-14 -203q-5 -77 -17.5 -122t-28 -68.5t-32 -30
t-31.5 -6.5q-32 0 -49.5 16.5t-25.5 37.5q-25 -26 -61 -41.5t-74 -15.5h-1q-53 0 -91.5 17.5t-63.5 48.5t-37 73t-12 91v11q0 57 18.5 100t47.5 72t66 43.5t74 14.5h7q32 -1 59 -11t46 -26.5t28.5 -38.5t7.5 -49q-1 -10 -6 -13.5t-10.5 -2t-9.5 6t-1 11.5q7 22 3 43t-19 38
t-41.5 27.5t-64.5 10.5q-37 0 -69.5 -14t-57 -41.5t-38.5 -70t-14 -100.5v-11q0 -50 9 -91.5t30 -71.5t55 -46.5t85 -16.5q46 0 80 18.5t52 45.5q-2 10 -2.5 19t0.5 17q2 13 7 17.5t12 4.5q14 0 16.5 -15t-5.5 -27q0 -40 14 -57.5t37 -17.5q16 0 32 8t30 32.5t25 69.5
t16 119z" />
    <glyph glyph-name="afii10076_afii10077" unicode="&#x43a;&#x43b;" horiz-adv-x="855" 
d="M136 252h6q38 9 65.5 -6t48 -42.5t37.5 -61.5t34 -64.5t36.5 -51t47.5 -20.5q21 0 41.5 12.5t37.5 39.5t29 70.5t16 105.5l6 85q3 48 -0.5 75t-13.5 40t-24 16t-32 3h-24q-3 0 -2.5 2t2.5 2h364v-4h-14q-15 0 -15 -15v-428q0 -6 6 -6h39q3 0 3 -2t-3 -2h-113q-4 0 -4 2
t4 2h39q7 0 7 6v430q0 13 -11 13h-172q-12 0 -17.5 -10.5t-6.5 -21.5l-13 -195q-5 -68 -19 -113t-34 -72t-44.5 -38t-48.5 -11q-30 0 -51 19t-38 47t-32.5 61.5t-33.5 61.5t-41.5 47t-56.5 19h-28v5h16l193 198q4 3 -1 3h-31q-3 0 -3 2t3 2h78q2 0 2 -2t-2 -2h-11
q-8 0 -19.5 -3t-16.5 -8zM64 448q0 5 -3 5h-34q-2 0 -2 2t2 2h96q2 0 2.5 -2t-2.5 -2h-33q-4 0 -4 -5v-440q-1 -1 0 -2q0 -2 4 -2h31q2 0 2 -2t-2 -2h-92q-2 0 -2 2t2 2h30q5 0 5 4v440z" />
    <glyph glyph-name="afii10071_afii10077" unicode="&#x451;&#x43b;" horiz-adv-x="877" 
d="M564 319q3 48 1 75t-7.5 40t-12 16t-11.5 3h-24q-3 0 -2.5 2t2.5 2h324q3 0 3 -2t-3 -2h-14q-15 0 -15 -15v-428q0 -6 6 -6h39q3 0 3 -2t-3 -2h-113q-4 0 -4 2t4 2h39q7 0 7 6v430q0 13 -11 13h-172q-12 0 -17 -6.5t-6 -17.5l-14 -203q-5 -77 -17.5 -122t-28 -68.5
t-32 -30t-31.5 -6.5q-32 0 -49.5 16.5t-25.5 37.5q-25 -26 -61 -41.5t-74 -15.5h-1q-50 0 -88 18.5t-63.5 50.5t-38.5 74.5t-13 91.5v11q0 57 16.5 99t44 70t64 42t77.5 14h1q34 0 64 -11.5t53 -32.5t37 -50.5t17 -65.5q1 -19 -21 -19h-326q-1 -11 -1.5 -22.5t-0.5 -23.5
v-11q0 -50 10 -92t31 -73t55 -48.5t82 -17.5h1q46 0 80 18.5t52 45.5q-2 10 -2.5 19t0.5 17q2 13 7 17.5t12 4.5q14 0 16.5 -15t-5.5 -27q0 -40 14 -57.5t37 -17.5q16 0 32 8t30 32.5t25 69.5t16 119zM242 463q-31 0 -59.5 -10t-52 -30.5t-40 -52.5t-22.5 -78h306
q16 0 16 17q0 31 -8.5 59t-26.5 49t-46 33.5t-66 12.5h-1zM308 568q-8 0 -13 5t-5 13t5 13t13 5t13 -5t5 -13t-5 -13t-13 -5zM146 568q-8 0 -13 5t-5 13t5 13t13 5t13 -5t5 -13t-5 -13t-13 -5z" />
    <glyph glyph-name="l_i" unicode="li" horiz-adv-x="359" 
d="M76 696q0 23 -20 23h-38q-2 0 -2 2t2 2h95q2 0 2 -2t-2 -2h-15v-661q0 -29 13 -41.5t33 -12.5q14 0 25 9.5t11 28.5q0 4 2.5 4t2.5 -4q0 -22 -15 -34t-38 -11q-56 2 -56 73v626zM207 453q0 2 2 2h87q2 0 2 -2t-2 -2h-15v-414q0 -16 9 -25.5t23 -9.5q11 0 21 9t10 28
q0 3 2.5 3t2.5 -3q0 -22 -13 -32t-30 -10q-21 0 -34 14.5t-13 43.5v370q0 23 -20 26h-30q-2 0 -2 2zM252 646q0 17 17 17t17 -17t-17 -17t-17 17z" />
    <glyph glyph-name="d_i" unicode="di" horiz-adv-x="662" 
d="M386 289q-6 -47 -22.5 -98.5t-42.5 -95t-61.5 -71.5t-79.5 -28q-24 0 -48.5 9t-43.5 31t-31 60t-12 97v21q0 61 21 108t55.5 79.5t78.5 48.5t91 16l95 -1v228q0 23 -20 26h-52q-2 0 -2 2t2 2h109q2 0 2 -2t-2 -2h-15v-682q0 -16 9 -25.5t23 -9.5q11 0 21 9t10 28
q0 3 2.5 3t2.5 -3q0 -22 -13 -32t-30 -10q-21 0 -34 14.5t-13 43.5v234zM68 195q0 -62 10 -100.5t26 -59.5t35 -28t37 -7h4q32 0 60 16.5t50.5 43t40 61.5t29.5 72t18.5 73.5t7.5 67.5v128h-91q-52 0 -94 -18t-71.5 -50t-45.5 -78t-16 -101v-20zM584 37q0 -16 9 -25.5
t23 -9.5q11 0 21 9t10 28q0 3 2.5 3t2.5 -3q0 -22 -13 -32t-30 -10q-21 0 -34 14t-13 43v371q0 23 -20 26h-30q-2 0 -2 2t2 2h87q2 0 2 -2t-2 -2h-15v-414zM555 646q0 17 17 17t17 -17t-17 -17t-17 17z" />
    <glyph glyph-name=".notdef" horiz-adv-x="279" 
 />
    <glyph glyph-name=".null" horiz-adv-x="0" 
 />
    <glyph glyph-name="nonmarkingreturn" horiz-adv-x="230" 
 />
    <glyph glyph-name="space" unicode=" " horiz-adv-x="230" 
 />
    <glyph glyph-name="space" unicode="&#xa0;" horiz-adv-x="230" 
 />
    <glyph glyph-name="exclam" unicode="!" horiz-adv-x="184" 
d="M71 677v2q0 7 4.5 11t10.5 4t10.5 -4t4.5 -11v-2l-12 -483v-116q0 -4 -3 -4t-3 4v116zM68 14q0 8 5 13t13 5t13 -5t5 -13t-5 -13t-13 -5t-13 5t-5 13z" />
    <glyph glyph-name="quotedbl" unicode="&#x22;" horiz-adv-x="160" 
d="M64 665q0 -12 -5.5 -25.5t-5.5 -29.5v-12q0 -1 -1 -1t-1 1v12q0 16 -5.5 29.5t-5.5 25.5q0 5 2 11t10 6t10 -6t2 -11zM120 665q0 -12 -5.5 -25.5t-5.5 -29.5v-12q0 -1 -1 -1t-1 1v12q0 16 -5.5 29.5t-5.5 25.5q0 5 2 11t10 6t10 -6t2 -11z" />
    <glyph glyph-name="numbersign" unicode="#" horiz-adv-x="532" 
d="M219 315v-131q0 -6 -3.5 -8.5t-8 -2.5t-8 3t-3.5 8l18 93v38l-128 -7q-11 0 -11 10.5t11 10.5l128 -7v94l-128 -7q-11 0 -11 10.5t11 10.5l128 -7v48l-18 94q0 6 3.5 8.5t8 2.5t8 -3t3.5 -8v-143h84l16 1v142q0 11 11 11t11 -11l-17 -94v-48l122 7q11 0 11 -10.5
t-11 -10.5l-122 6v-93l122 7q11 0 11 -10.5t-11 -10.5l-122 6v-37l17 -93q0 -11 -11 -11t-11 11v131l-16 1h-74zM219 416v-95h84l16 1v94l-16 1h-74z" />
    <glyph glyph-name="dollar" unicode="$" horiz-adv-x="464" 
d="M251 746q0 6 6 6t6 -6v-1l-2 -151q26 -4 46 -14t33.5 -24.5t19.5 -31.5t5 -35q-1 -11 -6 -15t-10 -3t-8.5 6t-1.5 13q4 15 2.5 30.5t-10.5 29.5t-26 24.5t-44 14.5l-1 -82v-116q24 -9 46 -20t39.5 -26t28 -36t10.5 -50q0 -22 -8.5 -43.5t-24 -40t-38.5 -32t-52 -17.5
l2 -138v-1q0 -6 -6 -6t-6 6v37.5t2 100.5q-5 -1 -10 -1h-10h-12l2 -136v-1q0 -6 -6 -6t-6 6v1l2 137q-33 3 -59 16t-43 32t-24.5 42.5t-5.5 48.5q1 12 7 16t12 3t9.5 -6.5t0.5 -14.5q-6 -20 -2.5 -41.5t16 -40.5t34.5 -32.5t55 -17.5l1 76v171q-22 9 -42.5 19t-36 23.5
t-24.5 30.5t-9 41q0 17 7 34t21 31.5t34.5 25t48.5 13.5l-2 150v1q0 6 6 6t6 -6v-1l-2 -150q3 0 6 0.5t6 0.5q5 0 10 -0.5t10 -0.5l-2 150v1zM372 243q0 24 -9 41.5t-24.5 31t-36 24t-42.5 19.5v-153l1 -75q25 4 45.5 15t35 26.5t22.5 34t8 36.5zM115 505q0 -20 8 -35
t21.5 -26.5t31.5 -20.5t38 -16v100l-1 83q-51 -5 -74.5 -30.5t-23.5 -54.5zM235 129h9t9 1v35.5t1 40.5v155l-34 14v-169l1 -77h14zM233 591q-3 0 -6 -0.5t-6 -0.5l-1 -83v-102l34 -12v114l-1 83q-5 0 -10 0.5t-10 0.5z" />
    <glyph glyph-name="percent" unicode="%" horiz-adv-x="744" 
d="M201 308q-49 0 -83 40.5t-34 124.5q0 40 10 69.5t26.5 49t38 29t44.5 9.5h1q23 -1 44 -10.5t37 -29t25.5 -49t9.5 -68.5q0 -42 -9 -73t-25 -51.5t-37.5 -30.5t-46.5 -10h-1zM202 313q20 0 37.5 9t30 28.5t20 49.5t7.5 73q0 75 -27.5 112.5t-66.5 39.5h-3
q-38 -2 -65.5 -40.5t-27.5 -111.5q0 -43 7.5 -73t20 -49.5t29.5 -28.5t37 -9h1zM150 -26q-5 -8 -10.5 -4t-0.5 12l176 263l85 133l169 268q5 8 11 4t1 -12l-178 -262l-85 -133zM527 16q-49 0 -83 40.5t-34 124.5q0 40 10 69.5t26.5 49t38 29t44.5 9.5h1q23 -1 44 -10.5
t37 -29t25.5 -49t9.5 -68.5q0 -42 -9 -73t-25 -51.5t-37.5 -30.5t-46.5 -10h-1zM528 21q20 0 37.5 9t30 28.5t20 49.5t7.5 73q0 75 -27.5 112.5t-66.5 39.5h-3q-38 -2 -65.5 -40.5t-27.5 -111.5q0 -43 7.5 -73t20 -49.5t29.5 -28.5t37 -9h1z" />
    <glyph glyph-name="ampersand" unicode="&#x26;" horiz-adv-x="898" 
d="M835 309q0 37 -11 70.5t-31 58t-49.5 39t-65.5 14.5q-31 0 -58 -6t-47.5 -18.5t-32 -31.5t-11.5 -46q0 -21 -2 -53.5t-9 -71t-20.5 -79.5t-36.5 -78q28 -34 54.5 -56t52.5 -34.5t52 -17t53 -4.5q24 0 43 9.5t32.5 24t22 32t11.5 33.5q2 9 7 12t9.5 1.5t7 -7t-0.5 -14.5
q-8 -24 -26 -43t-41.5 -32.5t-51 -21t-54.5 -7.5q-43 0 -89.5 22.5t-95.5 82.5q-35 -46 -89 -75.5t-136 -29.5q-32 1 -66.5 14t-63 37.5t-47.5 60t-19 81.5v2q0 43 17 76.5t44.5 61.5t62 51t69.5 44l-16 23q-29 39 -42.5 72t-13.5 71q0 22 9 43.5t26 38t42.5 27t58.5 10.5
q26 0 48 -9.5t37.5 -25.5t24.5 -36.5t9 -42.5q0 -29 -13 -52t-35 -42.5t-50.5 -36.5t-58.5 -34l189 -272q12 -18 22 -30q20 31 33 67t20.5 71.5t10.5 69.5t3 62q0 25 -4.5 38t-15.5 17.5t-30 4t-49 -1.5l-2 7h24q34 0 62.5 7.5t55.5 16t54 16t59 7.5q33 0 65.5 -11.5
t58.5 -35t42.5 -58.5t16.5 -82q0 -38 -14.5 -72t-39 -59t-57.5 -39.5t-70 -14.5q-25 0 -46 7t-38 18t-29.5 25.5t-20.5 28.5q-5 9 -3.5 15t5.5 8t9 -0.5t8 -11.5q13 -37 40 -61.5t75 -24.5q32 0 60.5 15t49.5 39.5t33.5 57.5t12.5 69zM50 173q1 -35 16 -66t40.5 -54.5
t59.5 -38t73 -17.5q72 0 121.5 26.5t81.5 69.5q-6 7 -11.5 15t-11.5 16l-196 280q-33 -19 -64 -40.5t-55 -48.5t-39 -62t-15 -80zM385 586q0 21 -8 40.5t-21.5 33.5t-32.5 22.5t-40 8.5q-31 0 -52.5 -11t-35 -27t-20 -34.5t-6.5 -34.5q0 -37 12 -66t39 -66l20 -29
q29 17 55 34.5t46 37t32 42t12 49.5z" />
    <glyph glyph-name="quotesingle" unicode="'" horiz-adv-x="107" 
d="M76 665q0 -12 -5.5 -25.5t-5.5 -29.5v-12q0 -1 -1 -1t-1 1v12q0 16 -5.5 29.5t-5.5 25.5q0 5 2 11t10 6t10 -6t2 -11z" />
    <glyph glyph-name="parenleft" unicode="(" horiz-adv-x="369" 
d="M129 281q1 -104 11.5 -172.5t30 -115.5t46.5 -79t60 -61q1 -2 0.5 -3t-2.5 1q-85 66 -130.5 179t-45.5 256t45.5 256t130.5 179q2 2 2.5 1t-0.5 -3q-33 -29 -60 -61t-46.5 -79t-30 -116t-11.5 -172v-10v0z" />
    <glyph glyph-name="parenright" unicode=")" horiz-adv-x="367" 
d="M245 291q-1 103 -11.5 172t-30 116t-46.5 79t-60 61q-1 2 -0.5 3t2.5 -1q85 -66 130.5 -179t45.5 -256t-45.5 -256t-130.5 -179q-2 -2 -2.5 -1t0.5 3q33 29 60 61t46.5 79t30 115.5t11.5 172.5v10z" />
    <glyph glyph-name="asterisk" unicode="*" horiz-adv-x="307" 
d="M143 580q-40 22 -60.5 26.5t-30.5 9.5q-6 4 -9 10t1 14q5 7 12 8t13 -3q4 -3 9 -8.5t13.5 -13.5t21 -17.5t32.5 -21.5l5 -3l2 -2v10q0 23 -2 39t-4.5 27t-4.5 18t-2 13t4 12t12 6t12.5 -6t4.5 -12t-2.5 -13t-5.5 -18t-5.5 -27t-2.5 -39v-10l3 2l5 3q20 12 33 21.5
t21.5 17.5t13.5 13.5t10 8.5q6 4 13 3t12 -8q4 -8 1 -14t-9 -10q-10 -5 -31.5 -9.5t-61.5 -26.5l-5 -3l-4 -2l6 -3l5 -3q20 -11 35 -16.5t25.5 -8.5t18 -4.5t12.5 -4.5q6 -3 9 -9.5t-1 -13.5q-5 -8 -12 -8.5t-13 3.5q-9 5 -25 21.5t-56 39.5l-5 3v-8q0 -23 2.5 -39t5.5 -27
t5.5 -18t2.5 -13q0 -7 -4.5 -12.5t-12.5 -5.5t-12 5.5t-4 12.5q0 6 2 13t4.5 18t4.5 27t2 39v7l-4 -2q-40 -23 -55 -39.5t-24 -21.5q-6 -4 -13 -3.5t-12 8.5q-4 7 -1 13.5t9 9.5q5 3 13 5t19 5.5t26.5 9.5t35.5 17l5 3l-3 2l-5 3v0z" />
    <glyph glyph-name="plus" unicode="+" horiz-adv-x="720" 
d="M111 310q-11 0 -11 10.5t11 10.5l143 -8h104v104l-8 143q0 11 10.5 11t10.5 -11l-8 -143v-104h103l143 8q11 0 11 -10.5t-11 -10.5l-143 8h-103v-103l8 -143q0 -11 -10.5 -11t-10.5 11l8 143v103h-104z" />
    <glyph glyph-name="comma" unicode="," horiz-adv-x="122" 
d="M59 -55q-2 -2 -3 -1t1 3q10 14 14 29t-4 21q-12 5 -12 17q0 8 5 13t13 5t13 -5t5 -13q0 -11 -3.5 -21.5t-9 -20t-11 -16.5t-8.5 -11z" />
    <glyph glyph-name="hyphen" unicode="-" horiz-adv-x="407" 
d="M63 260h275v-5h-275v5z" />
    <glyph glyph-name="period" unicode="." horiz-adv-x="121" 
d="M54 14q0 8 5 13t13 5t13 -5t5 -13t-5 -13t-13 -5t-13 5t-5 13z" />
    <glyph glyph-name="slash" unicode="/" horiz-adv-x="428" 
d="M85 -24q-2 -5 -4 -4.5t0 5.5l262 746q2 4 4 3.5t0 -4.5z" />
    <glyph glyph-name="zero" unicode="0" horiz-adv-x="617" 
d="M306 -16q-55 0 -103 22.5t-84 68.5t-56.5 115.5t-20.5 163.5q0 91 22.5 157.5t59.5 110t85.5 65t101.5 21.5h1q51 -2 98 -24t83 -66t57.5 -109.5t21.5 -154.5q0 -94 -20.5 -163.5t-56.5 -115.5t-84 -68.5t-103 -22.5h-2zM308 -11q50 0 93 20t74.5 63.5t49.5 113t18 168.5
q0 86 -18 150.5t-49.5 108t-74 65.5t-90.5 24h-10q-48 -2 -90 -25t-73 -66.5t-49 -107.5t-18 -149q0 -99 18 -168.5t49.5 -113t74.5 -63.5t93 -20h2z" />
    <glyph glyph-name="one" unicode="1" horiz-adv-x="251" 
d="M60 643q-10 0 -10 6t6 5q38 -4 59 11.5t26 35.5h3v-688q0 -7 7 -7h47q3 0 3 -3t-3 -3h-140q-4 0 -4 3t4 3h57q7 0 7 7v654q-12 -11 -28.5 -17.5t-33.5 -6.5z" />
    <glyph glyph-name="two" unicode="2" horiz-adv-x="529" 
d="M60 22q4 77 34.5 133t74 98.5t93 76.5t91.5 68.5t70 73t28 90.5q0 27 -9.5 52t-30.5 45t-54 32t-79 12q-58 0 -96 -19t-58 -47.5t-25 -61t3 -59.5q3 -10 -0.5 -15.5t-9 -6.5t-11.5 3.5t-7 15.5q-4 34 7 69t37 63t66 45.5t94 17.5q49 0 86 -13.5t62 -36t37 -52t12 -60.5
q0 -35 -17.5 -64.5t-46 -55t-65 -50t-74.5 -50.5t-74.5 -55t-65 -64.5t-45.5 -79t-17 -98.5q0 -7 7 -7h389q7 0 7 7v51q0 3 3 3t3 -3v-80h-419v22z" />
    <glyph glyph-name="three" unicode="3" horiz-adv-x="582" 
d="M289 421q-11 0 -16.5 4t-6 8.5t4.5 8.5t16 4q18 0 36.5 -2.5t36.5 -7.5q47 17 69.5 52t22.5 82q0 22 -8 46t-26 43.5t-48 32.5t-74 13q-50 0 -83 -17t-51 -41.5t-22.5 -53t1.5 -52.5q2 -7 -2 -12t-10 -5.5t-11 3.5t-6 14q-2 28 7.5 58t32 54.5t58.5 40.5t86 16
q46 0 80 -14t56.5 -35t33.5 -45.5t11 -45.5q0 -41 -28 -78.5t-81 -57.5q36 -10 67.5 -29t55 -46t37.5 -62.5t14 -77.5q0 -36 -16.5 -78t-48 -78t-79 -59.5t-108.5 -23.5q-60 0 -104.5 19.5t-73 51t-41.5 71t-10 79.5q1 10 6.5 14.5t11 4t9.5 -5.5t1 -14q-9 -30 -3 -67.5
t29.5 -70t66.5 -55t108 -22.5q63 0 106 22t69 56t37.5 75.5t11.5 79.5q0 34 -9.5 68t-29 63t-48.5 50.5t-68 31.5q-30 -10 -70 -10z" />
    <glyph glyph-name="four" unicode="4" horiz-adv-x="450" 
d="M261 0q-3 0 -3 2.5t3 2.5h46q5 0 5 5v194q0 7 -7 7h-243q-35 0 -22 34q27 69 67.5 139t85 131.5t88 109t75.5 69.5q12 9 22 9t10 -9q0 -8 -11 -17q-44 -35 -90 -77t-89.5 -95t-83 -118t-70.5 -146q-10 -25 18 -25h243q7 0 7 7v99l-5 173q0 7 7 7h19q7 0 7 -7l-6 -174v-98
q0 -7 7 -7h85q3 0 3 -2.5t-3 -2.5h-85q-7 0 -7 -7v-194q0 -5 5 -5h44q3 0 3 -2.5t-3 -2.5h-122z" />
    <glyph glyph-name="five" unicode="5" horiz-adv-x="548" 
d="M251 491q-28 -1 -68 -11.5t-73 -37.5v-11q0 -12 -4.5 -18.5t-9.5 -7.5t-8.5 3t-1.5 12q1 5 4.5 11t11.5 11l3 2v241q0 9 8 9h318q7 0 7 7v37q0 4 2.5 4t2.5 -4v-56q0 -10 -9 -10h-324v-224q26 19 61 32.5t80 15.5h7q54 0 103 -17t85.5 -48.5t58.5 -78t22 -104.5
t-20.5 -107t-56 -84.5t-84 -55.5t-103.5 -20q-59 0 -103.5 19t-73.5 49t-43 66t-12 69q1 13 5.5 18.5t9.5 5t8.5 -6.5t2.5 -17q-4 -29 4 -63.5t31.5 -64.5t65.5 -50t105 -20q54 0 98 21t75 56.5t48 82.5t17 100q0 54 -17 99.5t-49 77.5t-77 50t-100 18h-7z" />
    <glyph glyph-name="six" unicode="6" horiz-adv-x="583" 
d="M320 500q52 0 97 -17t78 -48.5t51.5 -76t18.5 -99.5q0 -59 -21 -109t-57 -86.5t-85 -57.5t-104 -22q-52 1 -98 20t-80 59.5t-54 103.5t-20 150v18l1 19q2 91 26 157.5t62.5 110t87.5 65t102 21.5h5q50 0 86.5 -13t60 -34t35 -47.5t11.5 -53.5q0 -11 -4.5 -16t-10.5 -5
q-13 0 -13 14v10q0 69 -45 104t-123 36h-2q-50 0 -94 -19t-77.5 -59t-54 -103t-23.5 -150l-1 -37v-27v-15q8 42 30 79.5t53.5 65t70 44t79.5 18.5h12zM306 494q-47 -2 -88 -22t-72 -52.5t-49.5 -74t-20.5 -85.5v-10v-9q0 -52 16.5 -97.5t45.5 -79.5t70 -54t90 -21
q55 1 99.5 22.5t76 58.5t48.5 85.5t17 102.5q0 51 -15.5 94t-44 74.5t-69.5 49.5t-92 18h-12z" />
    <glyph glyph-name="seven" unicode="7" horiz-adv-x="483" 
d="M218 2q1 -8 -2 -12.5t-7 -5t-8.5 2.5t-5.5 11q-14 70 -2.5 130t37.5 114t60 104t64.5 101t51.5 104.5t21 113.5q0 7 -7 7h-379q-7 0 -7 -7v-51q0 -3 -2.5 -3t-2.5 3v80h408v-22q0 -65 -20 -117t-48.5 -98t-60.5 -91t-56 -97.5t-35.5 -117t1.5 -149.5z" />
    <glyph glyph-name="eight" unicode="8" horiz-adv-x="552" 
d="M106 570q0 21 10.5 45.5t31.5 45.5t53 35t76 14q43 0 75 -14t53 -35t31.5 -45.5t10.5 -45.5q0 -23 -9.5 -46.5t-28 -43t-45 -33t-60.5 -17.5q41 -5 79.5 -22.5t68 -47t47.5 -69t18 -87.5q0 -36 -15.5 -75.5t-46 -72.5t-75.5 -54.5t-103 -21.5q-59 0 -104 21.5t-75.5 54.5
t-46 72.5t-15.5 75.5q0 48 17.5 87.5t47 69t68 47t79.5 22.5q-34 4 -60.5 17.5t-44.5 33t-27.5 43t-9.5 46.5zM274 428q-49 0 -88 -17.5t-66 -48.5t-41.5 -72t-14.5 -87q0 -38 11 -76.5t36 -70t65.5 -51.5t100.5 -20t100.5 20t65 51.5t35.5 70t11 76.5q0 46 -14.5 87
t-41.5 72t-66 48.5t-88 17.5h-5zM275 705q-41 0 -68.5 -13t-44.5 -33t-24 -43.5t-7 -45.5q0 -61 36.5 -99.5t99.5 -38.5h18q64 0 100.5 38.5t36.5 99.5q0 22 -7.5 45.5t-24 43.5t-44.5 33t-68 13h-3z" />
    <glyph glyph-name="nine" unicode="9" horiz-adv-x="609" 
d="M314 202q-52 -2 -97.5 14t-79 47t-53 76.5t-19.5 101.5q0 57 19 106t52 84.5t78 55.5t96 21q53 -1 100.5 -19.5t83 -59.5t56.5 -105.5t21 -156.5v-2q0 -91 -22.5 -162t-59.5 -119.5t-86 -74t-101 -25.5h-5q-50 0 -86.5 13t-61 34t-36.5 47.5t-13 53.5q0 10 4 15t9.5 5.5
t10 -3t4.5 -10.5q-2 -73 44.5 -111t127.5 -39h2q50 0 93.5 23t76 68t51.5 112t19 154v11q0 8 -0.5 24t-0.5 27q-7 -40 -27.5 -76.5t-51.5 -65t-69 -46t-79 -18.5zM316 208q46 2 86.5 23t70.5 54t47.5 74t18.5 83v10q0 53 -16 99t-45.5 79.5t-72 53t-95.5 19.5
q-50 -1 -90.5 -22t-69 -56.5t-44 -82.5t-15.5 -99t15.5 -96t45 -75.5t71 -48.5t93.5 -15z" />
    <glyph glyph-name="colon" unicode=":" horiz-adv-x="209" 
d="M88 124q0 8 5 13t13 5t13 -5t5 -13t-5 -13t-13 -5t-13 5t-5 13zM88 330q0 8 5 13t13 5t13 -5t5 -13t-5 -13t-13 -5t-13 5t-5 13z" />
    <glyph glyph-name="semicolon" unicode=";" horiz-adv-x="209" 
d="M92 -55q-2 -2 -3 -1t1 3q10 14 14 29t-4 21q-12 5 -12 17q0 8 5 13t13 5t13 -5t5 -13q0 -11 -3.5 -21.5t-9 -20t-11 -16.5t-8.5 -11zM88 330q0 8 5 13t13 5t13 -5t5 -13t-5 -13t-13 -5t-13 5t-5 13z" />
    <glyph glyph-name="less" unicode="&#x3c;" horiz-adv-x="531" 
d="M126 323q0 -21 28 -42l249 -191q7 -5 7.5 -11t-2.5 -10t-9 -4.5t-13 5.5l-236 206q-30 24 -30 47t30 47l236 206q7 6 13 5.5t9 -4.5t2.5 -10t-7.5 -11l-249 -191q-28 -21 -28 -42z" />
    <glyph glyph-name="equal" unicode="=" horiz-adv-x="711" 
d="M111 371q-11 0 -11 10.5t11 10.5l143 -8h203l143 8q11 0 11 -10.5t-11 -10.5l-143 8h-203zM111 251q-11 0 -11 10.5t11 10.5l143 -8h203l143 8q11 0 11 -10.5t-11 -10.5l-143 8h-203z" />
    <glyph glyph-name="greater" unicode="&#x3e;" horiz-adv-x="531" 
d="M405 323q0 21 -28 42l-249 191q-7 5 -7.5 11t2.5 10t9 4.5t13 -5.5l236 -206q30 -24 30 -47t-30 -47l-236 -206q-7 -6 -13 -5.5t-9 4.5t-2.5 10t7.5 11l249 191q28 21 28 42z" />
    <glyph glyph-name="question" unicode="?" horiz-adv-x="553" 
d="M252 82q0 -3 -3 -3.5t-3 3.5v111q0 53 12.5 88.5t32 62t41.5 48t41.5 45.5t32 55t12.5 77q0 27 -8.5 52t-27 45t-49 32t-73.5 12q-52 0 -85 -18.5t-50.5 -46t-21.5 -60.5t1 -62q2 -10 -1.5 -16t-9 -6.5t-11 4t-6.5 15.5q-4 34 6 69t33.5 63t60 45.5t84.5 17.5
q47 0 81.5 -12t57 -32.5t33 -48t10.5 -57.5q0 -42 -14 -71t-35 -52t-46 -45t-46 -49t-35 -63t-14 -89v-114zM231 14q0 8 5 13t13 5t13 -5t5 -13t-5 -13t-13 -5t-13 5t-5 13z" />
    <glyph glyph-name="at" unicode="@" horiz-adv-x="866" 
d="M553 551v-256q0 -58 31 -89t74 -31q35 0 60.5 17t42 43.5t24 59t7.5 64.5q0 62 -16.5 111.5t-44.5 86.5t-64.5 63.5t-76 43.5t-79.5 24.5t-75 7.5q-75 0 -140 -28.5t-114 -77t-77 -114t-28 -140.5q0 -74 28.5 -139.5t77 -114.5t114 -77.5t139.5 -28.5q70 0 131.5 25
t109.5 68l4 -5q-49 -44 -111.5 -69t-133.5 -25q-76 0 -142.5 29t-116 78.5t-78.5 116t-29 142.5t29 142.5t79 116t116.5 78.5t141.5 29q54 0 118 -18.5t118.5 -60t91 -106.5t36.5 -158q0 -33 -8.5 -67t-25.5 -61.5t-44 -44.5t-64 -17q-30 0 -53.5 12.5t-40 32.5t-25.5 46
t-9 53v51q-8 -34 -22 -68.5t-34 -62.5t-46 -45.5t-57 -17.5q-20 0 -40 7t-36.5 24t-26.5 46.5t-10 74.5v17q0 49 17 86.5t45.5 63t65 38.5t74.5 13l70 -1v12h23zM282 323q0 -48 8 -77t20.5 -45t28 -21t29.5 -5h3q33 0 59.5 19.5t46.5 50t33.5 68t19.5 72.5v150h-67
q-41 0 -74.5 -14t-57 -39.5t-36.5 -61.5t-13 -80v-17z" />
    <glyph glyph-name="A" unicode="A" horiz-adv-x="632" 
d="M263 688q-4 0 -4 3t4 3h70l258 -688h53q3 0 3 -3t-3 -3h-137q-4 0 -4 3t4 3h57l-106 282h-293l-103 -282h56q3 0 3 -3t-3 -3h-115q-4 0 -4 3t4 3h52l249 682h-41zM167 294h288l-146 390z" />
    <glyph glyph-name="B" unicode="B" horiz-adv-x="571" 
d="M49 0q-4 0 -4 3t4 3h47q7 0 7 7v668q0 7 -7 7h-47q-4 0 -4 3t4 3h233q36 0 72.5 -9.5t66 -28.5t48 -48.5t18.5 -71.5q0 -32 -14.5 -59t-38.5 -47t-54.5 -33.5t-61.5 -17.5l-4 -3q41 1 81 -10.5t72 -35t52 -58t20 -79.5q0 -48 -20.5 -84.5t-53.5 -60.5t-75 -36t-86 -12
h-255zM137 374q-7 0 -7 -7v-354q0 -7 7 -7h167q42 0 79 10.5t65 33t44 58t16 85.5q0 53 -18 88t-50.5 55.5t-77.5 29t-98 8.5h-127zM460 536q0 43 -15 72t-40.5 47t-58 25.5t-67.5 7.5h-142q-7 0 -7 -7v-294q0 -7 7 -7h117q47 0 85 9t65 27.5t41.5 48t14.5 71.5z" />
    <glyph glyph-name="C" unicode="C" horiz-adv-x="599" 
d="M338 -16q-60 0 -112.5 22t-91.5 67.5t-61.5 115.5t-22.5 165q0 90 25 156.5t66 110.5t95 65.5t112 21.5q42 0 80.5 -11.5t67.5 -31t46 -46t16 -55.5q0 -12 -6 -17t-12 -4.5t-11 6.5t-3 17q3 26 -7 50.5t-32.5 43t-57 30.5t-79.5 12h-2q-56 0 -104.5 -19.5t-84.5 -61.5
t-57 -108t-21 -159q0 -101 20 -170t54.5 -112.5t81.5 -63t101 -19.5h1q47 0 84.5 13.5t63 35t37.5 48.5t9 53q-2 10 3 16.5t11 7t12 -4.5t6 -17q1 -29 -18 -57.5t-50.5 -50.5t-73 -35.5t-84.5 -13.5h-1z" />
    <glyph glyph-name="D" unicode="D" horiz-adv-x="598" 
d="M50 688q-4 0 -4 3t4 3h206q54 0 108 -19t98 -60t71.5 -104.5t27.5 -153.5t-24.5 -157t-65.5 -111.5t-94 -66.5t-110 -22h-217q-4 0 -4 3t4 3h44q10 0 10 10v662q0 10 -10 10h-44zM141 688q-10 0 -10 -10v-662q0 -10 10 -10h126q54 0 102 20.5t84 63t56.5 109t20.5 158.5
t-23.5 155.5t-62.5 102.5t-88 56t-100 17h-115z" />
    <glyph glyph-name="E" unicode="E" horiz-adv-x="538" 
d="M137 397q-7 0 -7 -7v-377q0 -7 7 -7h312q18 2 34.5 18.5t16.5 41.5v39h6v-105h-457q-4 0 -4 3t4 3h47q7 0 7 7v668q0 7 -7 7h-47q-4 0 -4 3t4 3h418v-117h-6v62q0 20 -13.5 34.5t-39.5 14.5h-271q-7 0 -7 -7v-271q0 -7 7 -7h201q17 1 30.5 10.5t13.5 27.5v31h6v-144h-6
v29q0 20 -15 30t-34 10h-196z" />
    <glyph glyph-name="F" unicode="F" horiz-adv-x="471" 
d="M126 13q0 -7 7 -7h49v-6h-137v6h47q7 0 7 7v668q0 7 -7 7h-47v6h403v-117h-6v62q0 18 -12.5 33.5t-35.5 15.5h-261q-7 0 -7 -7v-271q0 -7 7 -7h186q17 1 30.5 10.5t13.5 27.5v31h6v-144h-6v29q0 18 -13.5 28t-30.5 12h-186q-7 0 -7 -7v-377z" />
    <glyph glyph-name="G" unicode="G" horiz-adv-x="667" 
d="M328 702q-51 0 -95.5 -19t-78 -60.5t-52.5 -108t-19 -160.5t18.5 -163t51 -114t76.5 -66.5t96 -21.5q39 0 77 11t68 36.5t48.5 65.5t18.5 99v86h-70v6h159v-6h-62v-287q0 -5 -3 -5t-3 5v118q0 7 -3.5 9t-6.5 -6q-28 -67 -88 -101.5t-135 -34.5q-56 0 -106 23t-87 69
t-58.5 115.5t-21.5 161.5t23 158.5t61.5 110t88 64.5t103.5 21h1q55 0 96.5 -17t69 -43t41 -56.5t12.5 -57.5q0 -11 -5.5 -15.5t-11 -4t-10 6t-2.5 15.5q3 24 -5 53t-30 54.5t-60.5 42t-95.5 16.5z" />
    <glyph glyph-name="H" unicode="H" horiz-adv-x="629" 
d="M48 0q-4 0 -4 3t4 3h45q7 0 7 7v668q0 7 -7 7h-45q-4 0 -4 3t4 3h131q3 0 3 -3t-3 -3h-45q-7 0 -7 -7v-285q0 -7 7 -7h363q7 0 7 7v285q0 7 -7 7h-46q-4 0 -4 3t4 3h131q3 0 3 -3t-3 -3h-44q-7 0 -7 -7v-668q0 -7 7 -7h44q3 0 3 -3t-3 -3h-131q-4 0 -4 3t4 3h46q7 0 7 7
v363q0 7 -7 7h-363q-7 0 -7 -7v-363q0 -7 7 -7h45q3 0 3 -3t-3 -3h-131v0z" />
    <glyph glyph-name="I" unicode="I" horiz-adv-x="223" 
d="M44 0q-4 0 -4 3t4 3h47q7 0 7 7v668q0 7 -7 7h-43q-4 0 -4 3t4 3h128q3 0 3 -3t-3 -3h-45q-7 0 -7 -7v-668q0 -7 7 -7h46q4 0 4 -3t-4 -3h-133z" />
    <glyph glyph-name="J" unicode="J" horiz-adv-x="473" 
d="M317 688q-3 0 -3 3t3 3h121q3 0 3 -3t-3 -3h-39q-7 0 -7 -7v-504q0 -36 -13.5 -69.5t-38.5 -60t-60.5 -42t-79.5 -15.5q-40 0 -74.5 14t-59.5 38t-37.5 55.5t-9.5 66.5q1 15 8.5 21t15 4.5t12 -9.5t0.5 -20q-10 -28 -4.5 -57t24 -53t50.5 -39.5t75 -15.5q46 0 77.5 16
t51 42t28 59t8.5 67v502q0 7 -7 7h-41z" />
    <glyph glyph-name="K" unicode="K" horiz-adv-x="589" 
d="M445 0q-3 0 -3 3t3 3h48q7 0 3 6l-279 390l-87 -90v-299q0 -7 7 -7h46q4 0 4 -3t-4 -3h-131q-4 0 -4 3t4 3h47q7 0 7 7v668q0 7 -7 7h-49q-5 0 -5 3t5 3h137q3 0 3 -3t-3 -3h-50q-7 0 -7 -7v-359l346 361q7 5 -2 5h-47q-5 0 -5 3t5 3h119q3 0 3 -3t-3 -3h-47q-5 0 -12 -5
l-254 -264l291 -407q4 -6 11 -6h45q4 0 4 -3t-4 -3h-135z" />
    <glyph glyph-name="L" unicode="L" horiz-adv-x="519" 
d="M92 6q10 0 10 10v665q0 7 -7 7h-41q-3 0 -3 3t3 3h121q3 0 3 -3t-3 -3h-39q-7 0 -7 -7v-665q0 -10 10 -10h276q30 2 49 23.5t19 58.5v109h6v-197h-441q-3 0 -3 3t3 3h44v0z" />
    <glyph glyph-name="M" unicode="M" horiz-adv-x="775" 
d="M27 688q-4 0 -4 3t4 3h87l267 -664l268 664h86q3 0 3 -3t-3 -3h-46q-10 0 -10 -10v-662q0 -10 10 -10h46q3 0 3 -3t-3 -3h-137q-4 0 -4 3t4 3h44q10 0 10 10v671l-278 -691h-6l-279 692v-672q0 -10 10 -10h45q3 0 3 -3t-3 -3h-115q-4 0 -4 3t4 3h44q10 0 10 10v672h-56v0
z" />
    <glyph glyph-name="N" unicode="N" horiz-adv-x="618" 
d="M25 688q-3 0 -3 3t3 3h88l419 -649v633q0 10 -10 10h-44q-3 0 -3 3t3 3h115q4 0 4 -3t-4 -3h-45q-10 0 -10 -10v-684h-6l-445 691v-669q0 -10 10 -10h44q3 0 3 -3t-3 -3h-115q-4 0 -4 3t4 3h45q10 0 10 10v672h-56z" />
    <glyph glyph-name="O" unicode="O" horiz-adv-x="678" 
d="M338 -16q-60 0 -112.5 22.5t-91.5 68.5t-61.5 115.5t-22.5 163.5q0 89 23.5 154.5t62.5 109.5t90.5 66t107.5 24h10q55 -2 106.5 -24t91 -66t63 -109.5t23.5 -154.5q0 -94 -22.5 -163.5t-61.5 -115.5t-91.5 -68.5t-112.5 -22.5h-2zM340 -11q54 0 101 20t81.5 63.5
t54.5 113t20 168.5q0 92 -19.5 157.5t-54 107.5t-80.5 61.5t-98 21.5h-10q-53 -1 -99.5 -21t-81 -61.5t-54 -107t-19.5 -158.5q0 -99 20 -168.5t54.5 -113t81.5 -63.5t101 -20h2z" />
    <glyph glyph-name="P" unicode="P" horiz-adv-x="508" 
d="M50 688q-5 0 -5 3t5 3h226q40 0 80.5 -10.5t73.5 -33t53.5 -58t20.5 -84.5q0 -50 -19.5 -86.5t-51.5 -61.5t-73 -37t-83 -12h-146v-295q0 -10 10 -10h46q3 0 3 -3t-3 -3h-137q-4 0 -4.5 3t4.5 3h44q10 0 10 10v662q0 10 -10 10h-44zM141 688q-10 0 -10 -10v-361h146
q41 0 77 11t63 34t42.5 59t15.5 87t-17 85.5t-44.5 55.5t-63.5 30t-74 9h-135z" />
    <glyph glyph-name="Q" unicode="Q" horiz-adv-x="678" 
d="M628 352q0 -172 -79 -271.5t-236 -143.5q33 -9 62 -30t53.5 -42t45.5 -35.5t39 -11.5q5 1 8 2t6 3t6 -0.5t-2 -5.5t-8 -4.5t-8 -2.5q-24 -4 -44.5 1.5t-38.5 17t-34.5 27t-33.5 30t-35 26.5t-38 17q-11 -5 -24 -7.5t-19 -3.5q-14 -2 -21.5 3t-8.5 12t6.5 12.5t23.5 5.5
q17 0 31.5 -4.5t22.5 -6.5q33 9 59 18t47 19.5t39 21.5t37 25l-2 3q-37 -21 -73.5 -30.5t-68.5 -9.5h-2q-60 0 -112.5 22t-91.5 67.5t-61.5 114t-22.5 161.5q0 90 23.5 156.5t62.5 111t90.5 67t107.5 24.5h1q57 0 110 -21.5t93.5 -66t65 -112t24.5 -159.5zM340 -8
q54 0 101 20t81.5 63t54.5 111t20 166q0 96 -20.5 163.5t-56 109.5t-83.5 61t-102 19h-2q-53 -2 -99 -22t-80 -62.5t-53.5 -108.5t-19.5 -160q0 -98 20 -166t54.5 -111t81.5 -63t101 -20h2z" />
    <glyph glyph-name="R" unicode="R" horiz-adv-x="572" 
d="M50 0q-4 0 -4.5 3t4.5 3h44q10 0 10 10v662q0 10 -10 10h-44q-5 0 -5 3t5 3h215q36 0 73 -9t67 -28t49 -49t19 -72q0 -40 -16.5 -70.5t-43.5 -51.5t-62.5 -32t-72.5 -13q46 -14 84 -55.5t72 -107.5q19 -38 37 -75t34 -66t28.5 -47.5t21.5 -18.5q5 0 8 1.5t6 3.5t6 -0.5
t-2 -5.5q-9 -5 -18 -5q-15 0 -29.5 8.5t-31.5 30.5t-37.5 59.5t-46.5 96.5q-39 86 -76.5 130.5t-82.5 50.5h-120v-353q0 -10 10 -10h46q3 0 3 -3t-3 -3h-137zM131 688v-313h134q37 0 70 9t58 28.5t39 50t14 73.5t-15 72t-40.5 47t-58 25.5t-67.5 7.5h-134z" />
    <glyph glyph-name="S" unicode="S" horiz-adv-x="533" 
d="M269 704q-47 0 -81.5 -12t-57 -31t-34 -43.5t-11.5 -49.5q0 -52 30.5 -83.5t76.5 -53.5t99.5 -40t99.5 -43t76.5 -62.5t30.5 -98.5q0 -37 -16 -74t-46 -67t-73.5 -48.5t-98.5 -18.5q-59 0 -104.5 18.5t-75.5 49t-44 69.5t-11 80q1 14 8 18.5t14.5 3t12.5 -8.5t2 -16
q-10 -33 -3.5 -69.5t31 -67.5t67.5 -51t105 -20q48 0 87 15.5t67 41t43.5 57.5t15.5 64q0 61 -30.5 98.5t-76.5 63t-100 44t-100 41t-76.5 54t-30.5 83.5q0 28 12.5 57.5t38 52.5t64 38t89.5 15t89.5 -14.5t64.5 -38t38.5 -53t10.5 -60.5q-1 -13 -7 -17.5t-12.5 -3t-11 7.5
t-1.5 15q8 25 4 53t-24 51t-57 38.5t-94 15.5z" />
    <glyph glyph-name="T" unicode="T" horiz-adv-x="579" 
d="M219 0q-5 0 -5 3t5 3h44q10 0 10 10v662q0 10 -10 10h-184q-24 -2 -36 -16.5t-12 -32.5v-62h-6v117h529v-117h-6v62q0 20 -13.5 34.5t-39.5 14.5h-185q-10 0 -10 -10v-662q0 -10 10 -10h46q3 0 3 -3t-3 -3h-137v0z" />
    <glyph glyph-name="U" unicode="U" horiz-adv-x="631" 
d="M553 244q0 -71 -16.5 -120t-46 -79.5t-71 -44t-90.5 -13.5t-92.5 13.5t-76 44t-51.5 80.5t-19 124v429q0 10 -10 10h-35q-4 0 -4.5 2.5t3.5 3.5h114q3 0 3 -3t-3 -3h-31q-10 0 -10 -10v-438q0 -78 17.5 -126.5t47 -75.5t67.5 -36.5t80 -9.5q46 0 86.5 12.5t69.5 42t46 78
t17 119.5v434q0 10 -10 10h-39q-4 0 -4.5 3t4.5 3h102q3 0 3 -3t-3 -3h-38q-10 0 -10 -10v-434z" />
    <glyph glyph-name="V" unicode="V" horiz-adv-x="625" 
d="M327 -6h-6l-256 694h-43q-4 0 -4 3t4 3h113q3 0 3 -3t-3 -3h-41l240 -649l214 649h-50q-4 0 -4.5 3t4.5 3h113q3 0 3 -3t-3 -3h-56z" />
    <glyph glyph-name="W" unicode="W" horiz-adv-x="945" 
d="M685 -6l-197 546l-166 -546h-7l-250 694h-47q-4 0 -4 3t4 3h120q3 0 3 -3t-3 -3h-44l234 -648l156 511l-49 137h-45q-4 0 -4 3t4 3h121q3 0 3 -3t-3 -3h-47l234 -647l206 647h-54q-4 0 -4 3t4 3h113q3 0 3 -3t-3 -3h-53l-218 -694h-7z" />
    <glyph glyph-name="X" unicode="X" horiz-adv-x="572" 
d="M276 347l-205 341h-51q-4 0 -4 3t4 3h129q3 0 3 -3t-3 -3h-47l190 -314l190 314h-58q-4 0 -4.5 3t4.5 3h128q3 0 3 -3t-3 -3h-63l-193 -320l220 -362h46q4 0 4 -3t-4 -3h-129q-3 0 -3 3t3 3h48l-202 335l-202 -335h60q4 0 4 -3t-4 -3h-126q-3 0 -3 3t3 3h59z" />
    <glyph glyph-name="Y" unicode="Y" horiz-adv-x="547" 
d="M285 317l-212 371h-53q-4 0 -4 3t4 3h129q3 0 3 -3t-3 -3h-47l207 -356l203 356h-58q-4 0 -4.5 3t4.5 3h128q3 0 3 -3t-3 -3h-63l-208 -364v-308q0 -10 10 -10h44q4 0 4 -3t-4 -3h-135q-3 0 -3 3t3 3h45q10 0 10 10v301z" />
    <glyph glyph-name="Z" unicode="Z" horiz-adv-x="572" 
d="M488 688h-352q-32 0 -45.5 -17.5t-13.5 -45.5v-64h-5v133h452l-446 -688h379q30 0 45 21t15 54v43h6v-124h-480z" />
    <glyph glyph-name="bracketleft" unicode="[" horiz-adv-x="193" 
d="M92 -168q0 -4 3 -4h55q2 0 2 -2t-2 -2h-76q-3 0 -3 3l4 462l-5 428q0 3 3 3h77q2 0 2 -2t-2 -2h-55q-3 0 -3 -4l-5 -423l5 -457v0z" />
    <glyph glyph-name="backslash" unicode="\" horiz-adv-x="428" 
d="M81 722q-2 4 0 4.5t4 -3.5l262 -746q2 -5 0 -5.5t-4 4.5z" />
    <glyph glyph-name="bracketright" unicode="]" horiz-adv-x="193" 
d="M136 289l-5 423q0 4 -3 4h-55q-2 0 -2 2t2 2h77q3 0 3 -3l-5 -428l4 -462q0 -3 -3 -3h-76q-2 0 -2 2t2 2h55q3 0 3 4z" />
    <glyph glyph-name="asciicircum" unicode="^" horiz-adv-x="718" 
d="M359 530q-21 0 -42 -28l-191 -312q-5 -7 -11 -7.5t-10 2.5t-4.5 9t5.5 13l206 299q24 30 47 30t47 -30l206 -299q6 -6 5.5 -12t-4.5 -9t-10 -2.5t-11 7.5l-191 311q-21 28 -42 28z" />
    <glyph glyph-name="underscore" unicode="_" horiz-adv-x="500" 
d="M63 -22h359v-5h-359v5z" />
    <glyph glyph-name="grave" unicode="`" horiz-adv-x="254" 
d="M161 579h-2l-52 50q-5 5 -4.5 12.5t9.5 7.5t13.5 -5t7.5 -11z" />
    <glyph glyph-name="a" unicode="a" horiz-adv-x="460" 
d="M382 37q0 -16 9 -25.5t23 -9.5q11 0 21 9t10 28q0 3 2.5 3t2.5 -3q0 -22 -13 -32t-30 -10q-21 0 -34 14.5t-13 43.5v226q-7 -49 -24 -100t-44 -92t-63.5 -67.5t-81.5 -26.5q-26 0 -47 8.5t-35.5 23t-22 33.5t-7.5 40q0 41 20 64.5t52 38t72 23.5t81 22q34 10 54 21.5
t30.5 25.5t13.5 30t3 35q0 15 -6 32.5t-20.5 33.5t-38 26.5t-59.5 10.5t-63.5 -12.5t-44 -31.5t-21.5 -43t3 -46q3 -7 -1 -11.5t-9.5 -6t-11 2t-6.5 13.5q-2 28 9.5 53.5t33 44.5t50.5 30t61 11q37 0 64 -9.5t45 -25.5t27 -36.5t9 -42.5v-316zM152 2q48 0 85.5 31.5
t63.5 78.5t40.5 101.5t18.5 101.5q-7 -22 -28 -38.5t-67 -31.5q-30 -10 -66 -18.5t-66.5 -23t-51 -37.5t-20.5 -63v-9q0 -37 24.5 -64.5t66.5 -27.5z" />
    <glyph glyph-name="b" unicode="b" horiz-adv-x="523" 
d="M8 721q0 2 2 2h98q2 0 2 -2t-2 -2h-15v-401q9 37 27.5 65t43 47t53.5 28t58 9q40 0 77 -14t65 -41.5t44.5 -70t16.5 -99.5v-11q0 -49 -13.5 -91.5t-39.5 -74.5t-64.5 -50.5t-88.5 -18.5q-63 0 -110.5 29t-69.5 86q-4 10 -10.5 9t-6.5 -15v-105h-4v693q0 23 -20 26h-41
q-2 0 -2 2zM275 463q-38 0 -71 -14t-57 -39.5t-38.5 -61.5t-15.5 -81v-43q0 -104 43 -164t136 -60q48 0 82.5 17.5t56 48.5t32 73t10.5 92v11q0 60 -14.5 102t-39.5 68.5t-57 38.5t-67 12z" />
    <glyph glyph-name="c" unicode="c" 
d="M251 463q-37 0 -70 -13.5t-57.5 -41.5t-38.5 -70.5t-14 -100.5v-11q0 -50 8.5 -91.5t29 -71.5t54.5 -47t85 -17q38 0 67 13.5t46.5 34t23.5 45t-1 46.5q-3 7 1 11.5t9.5 6t10.5 -2t6 -13.5q2 -27 -10.5 -53t-35 -46.5t-53 -33t-63.5 -12.5q-53 0 -91.5 17.5t-63.5 48.5
t-37 73.5t-12 91.5v11q0 57 18.5 100t47.5 72t66 43.5t74 14.5h7q34 0 62 -9.5t48.5 -26t30.5 -39.5t8 -50q-1 -10 -6 -13.5t-10.5 -2t-9.5 6t-1 11.5q7 22 3 43t-19 38t-41.5 27.5t-64.5 10.5h-7z" />
    <glyph glyph-name="d" unicode="d" horiz-adv-x="488" 
d="M312 721q0 2 2 2h109q2 0 2 -2t-2 -2h-15v-682q0 -16 9 -25.5t23 -9.5q11 0 21 9t10 28q0 3 2.5 3t2.5 -3q0 -22 -13 -32t-30 -10q-21 0 -34 14.5t-13 43.5v234q-6 -47 -22.5 -98.5t-42.5 -95t-61.5 -71.5t-79.5 -28q-24 0 -48.5 9t-43.5 31t-31 60t-12 97v21
q0 61 21 108t55.5 79.5t78.5 48.5t91 16l95 -1v228q0 23 -20 26h-52q-2 0 -2 2zM68 195q0 -62 10 -100.5t26 -59.5t35 -28t37 -7h4q50 0 88.5 36.5t64.5 90t39.5 112.5t13.5 104v119h-91q-52 0 -94 -18t-71.5 -50t-45.5 -78t-16 -101v-20z" />
    <glyph glyph-name="e" unicode="e" 
d="M238 -5q-53 0 -90.5 19.5t-60.5 53t-33 79.5t-8 99q2 57 22 98.5t50 69t66 40.5t70 13q74 0 114.5 -30.5t40.5 -83.5q0 -18 -8 -35.5t-22.5 -32.5t-34 -26.5t-43.5 -17.5q-39 -9 -81 -20.5t-74 -28t-48.5 -40.5t-4.5 -58q10 -22 22 -39.5t29 -30t39.5 -19t54.5 -6.5
q38 0 68.5 13.5t50 34t27 45t0.5 46.5q-3 7 1 11.5t9.5 6t10.5 -2t6 -13.5q2 -27 -12 -53.5t-38.5 -46.5t-56.5 -32.5t-66 -12.5zM387 354q0 23 -6.5 43t-22 34.5t-41 23t-63.5 8.5q-33 0 -65.5 -12t-58.5 -38.5t-43 -67.5t-19 -99q-2 -32 2 -65.5t15 -64.5q0 32 20 52.5
t51.5 35t69.5 24t73 18.5q37 10 62.5 37t25.5 71z" />
    <glyph glyph-name="f" unicode="f" horiz-adv-x="224" 
d="M34 2q0 2 2 2h41q7 0 7 7v433q0 7 -7 7h-50q-2 0 -2 2t2 2h50q7 0 7 7v32q0 115 52.5 177.5t152.5 54.5q20 -2 27.5 -7t7 -10.5t-7.5 -9t-17 -1.5q-63 14 -101 4t-58.5 -38t-27 -72t-6.5 -98v-32q0 -7 7 -7h70q3 0 3 -2t-3 -2h-70q-7 0 -7 -7v-433q0 -7 7 -7h41q2 0 2 -2
t-2 -2h-118q-2 0 -2 2z" />
    <glyph glyph-name="g" unicode="g" horiz-adv-x="499" 
d="M264 467q38 0 73 -11t61 -32q-16 27 -12.5 53.5t19 47t39.5 31t50 5.5q9 -2 12.5 -7t2 -10t-6.5 -8t-12 -1q-19 6 -37 3t-32 -13t-22 -26t-8 -35q0 -25 17 -48q23 -22 36.5 -52.5t13.5 -72.5v-9q0 -38 -12.5 -71.5t-37 -58.5t-61 -39.5t-84.5 -14.5q-41 0 -72.5 10
t-55.5 28q-37 -3 -55 -28t-17 -53.5t21 -52t61 -23.5h227q41 0 69 -19t40.5 -47.5t9 -62t-26.5 -62t-66.5 -47.5t-109.5 -19h-49q-66 0 -109.5 16t-67 41t-29.5 54.5t2.5 56.5t29 47t49.5 26q-41 9 -57 36t-12 57t26.5 54.5t59.5 28.5q-32 26 -47.5 62.5t-15.5 80.5v9
q0 45 16 78t43 54.5t62.5 32.5t74.5 11zM264 463q-33 0 -64 -9.5t-54.5 -30t-38 -53t-14.5 -79.5v-9q0 -39 9.5 -72t30 -57t53 -37.5t77.5 -13.5t77.5 13.5t53 37.5t30 57t9.5 72v9q0 47 -14 79.5t-37.5 53t-54 30t-63.5 9.5zM146 -41q-5 0 -8.5 0.5t-7.5 0.5
q-25 0 -43.5 -17.5t-26.5 -43.5t-3.5 -56.5t25 -56t59 -43t98.5 -17.5h49q61 0 100.5 17.5t60.5 43t24.5 56t-7.5 56t-35.5 43t-58.5 17.5h-226z" />
    <glyph glyph-name="h" unicode="h" horiz-adv-x="490" 
d="M101 275q6 36 20.5 70.5t37 61.5t53 43t67.5 16q34 0 59 -9.5t41.5 -25.5t24.5 -36t8 -42v-316q0 -16 9 -25.5t23 -9.5q11 0 21 9t10 28q0 3 2.5 3t2.5 -3q0 -22 -13 -32t-30 -10q-21 0 -34 14.5t-13 43.5v292q0 22 -8 44t-24 38.5t-40.5 25t-57.5 5.5
q-35 -4 -63.5 -24.5t-49.5 -52t-33 -70t-13 -77.5v-222q0 -10 10 -10h39q2 0 2 -2t-2 -2h-118q-2 0 -2 2t2 2h37q10 0 10 10v679q0 23 -20 26h-41q-2 0 -2 2t2 2h98q2 0 2 -2t-2 -2h-15v-444v0z" />
    <glyph glyph-name="i" unicode="i" horiz-adv-x="174" 
d="M22 453q0 2 2 2h87q2 0 2 -2t-2 -2h-15v-414q0 -16 9 -25.5t23 -9.5q11 0 21 9t10 28q0 3 2.5 3t2.5 -3q0 -22 -13 -32t-30 -10q-21 0 -34 14.5t-13 43.5v370q0 23 -20 26h-30q-2 0 -2 2zM67 646q0 17 17 17t17 -17t-17 -17t-17 17z" />
    <glyph glyph-name="j" unicode="j" horiz-adv-x="166" 
d="M82 425q0 11 -5 18.5t-15 7.5h-30q-2 0 -2 2t2 2h87q2 0 2 -2t-2 -2h-15v-430q0 -135 -50.5 -206t-143.5 -71q-20 0 -30.5 4.5t-13 9.5t2 8.5t14.5 2.5q66 -9 105.5 4.5t60 46.5t27 84t6.5 117v404zM75 646q0 17 17 17t17 -17t-17 -17t-17 17z" />
    <glyph glyph-name="k" unicode="k" horiz-adv-x="441" 
d="M76 696q0 23 -20 23h-38q-2 0 -2 2t2 2h95q2 0 2 -2t-2 -2h-15v-705q0 -10 10 -10h36q2 0 2 -2t-2 -2h-117q-2 0 -2 2t2 2h39q10 0 10 10v682zM357 4l-232 265l184 155q14 12 9 19.5t-17 7.5h-47q-2 0 -2 2t2 2h173q2 0 2 -2t-2 -2h-39q-23 0 -36 -3.5t-30 -17.5
l-178 -151l246 -275h55q2 0 2 -2t-2 -2h-147q-2 0 -2 2t2 2h59z" />
    <glyph glyph-name="l" unicode="l" horiz-adv-x="185" 
d="M76 696q0 23 -20 23h-38q-2 0 -2 2t2 2h95q2 0 2 -2t-2 -2h-15v-661q0 -29 13 -41.5t33 -12.5q14 0 25 9.5t11 28.5q0 4 2.5 4t2.5 -4q0 -22 -15 -34t-38 -11q-56 2 -56 73v626v0z" />
    <glyph glyph-name="m" unicode="m" horiz-adv-x="805" 
d="M25 453q0 2 2 2h89q2 0 2 -2t-2 -2h-15v-145q9 32 26 61t39.5 51t51 35t61.5 13q34 0 59.5 -9.5t42 -25.5t25 -36t8.5 -42v-47q9 32 26 61t39.5 51t51 35t61.5 13q34 0 59.5 -9.5t42 -25.5t25 -36t8.5 -42v-316q0 -16 9 -25.5t23 -9.5q11 0 21 9t10 28q0 3 2.5 3t2.5 -3
q0 -22 -13 -32t-30 -10q-21 0 -34 14.5t-13 43.5v292q0 22 -8.5 44t-25 38.5t-41 25t-57.5 5.5q-29 -3 -54 -17.5t-46 -37.5t-36 -52t-23 -61v-278q0 -10 10 -10h39q2 0 2 -2t-2 -2h-118q-2 0 -2 2t2 2h37q10 0 10 10v333q0 22 -8.5 44t-25 38.5t-41 25t-57.5 5.5
q-29 -3 -54 -17.5t-46 -37.5t-36 -52t-23 -61v-278q0 -10 10 -10h36q2 0 2 -2t-2 -2h-118q-2 0 -2 2t2 2h40q10 0 10 10v411q0 26 -23 26h-29q-2 0 -2 2z" />
    <glyph glyph-name="n" unicode="n" horiz-adv-x="490" 
d="M26 2q0 2 2 2h39q10 0 10 10v411q0 26 -23 26h-27q-2 0 -2 2t2 2h87q2 0 2 -2t-2 -2h-15v-145q9 32 26 61t39.5 51t51 35t61.5 13q34 0 59.5 -9.5t42 -25.5t25 -36t8.5 -42v-316q0 -16 9 -25.5t23 -9.5q11 0 21 9t10 28q0 3 2.5 3t2.5 -3q0 -22 -13 -32t-30 -10
q-21 0 -34 14.5t-13 43.5v292q0 22 -8.5 44t-25 38.5t-41 25t-57.5 5.5q-29 -3 -54 -17.5t-46 -37.5t-36 -52t-23 -61v-278q0 -10 10 -10h37q2 0 2 -2t-2 -2h-118q-2 0 -2 2z" />
    <glyph glyph-name="o" unicode="o" horiz-adv-x="491" 
d="M246 467q40 0 77 -14t65 -41.5t44.5 -70t16.5 -99.5v-11q0 -49 -13 -91.5t-38.5 -74.5t-64 -50.5t-88.5 -18.5t-88 18.5t-63.5 50.5t-38.5 74.5t-13 91.5v11q0 30 10 64t30 58q4 23 19.5 42t38 32.5t50 21t56.5 7.5zM246 463q-36 0 -65 -10.5t-47.5 -27.5t-26 -38
t-0.5 -43q3 -7 -0.5 -11.5t-9 -6t-10.5 2t-6 13.5q-1 6 0 13l-2 -1l-3 -23q-10 -37 -10 -89v-11q0 -50 10 -92t32 -73t55.5 -48.5t81.5 -17.5t82 17.5t55.5 48.5t31.5 73t10 92v11q0 60 -14.5 102t-39.5 68.5t-57 38.5t-67 12z" />
    <glyph glyph-name="p" unicode="p" horiz-adv-x="513" 
d="M21 453q0 2 2 2h65q4 0 4.5 -2t0.5 -3v-113q10 33 28 57.5t41.5 40.5t49.5 24t53 8q40 0 77 -14t65 -41.5t44.5 -70t16.5 -99.5v-11q0 -49 -12.5 -91.5t-37.5 -74.5t-61.5 -50.5t-84.5 -18.5q-28 0 -55 6t-51 22t-43 42.5t-30 67.5v-370q0 -10 10 -10h29q2 0 2 -2t-2 -2
h-101q-2 0 -2 2t2 2h30q10 0 10 10v661q0 26 -23 26h-25q-2 0 -2 2zM265 463q-65 0 -111.5 -41t-60.5 -111v-148q6 -36 19.5 -65.5t35.5 -51.5t52.5 -34t71.5 -12q45 0 77.5 17.5t53 48.5t30.5 73t10 92v11q0 60 -14.5 102t-39.5 68.5t-57 38.5t-67 12z" />
    <glyph glyph-name="q" unicode="q" horiz-adv-x="475" 
d="M45 215q0 61 19.5 110t53.5 81.5t78.5 46t94.5 4.5l91 -17v10q0 1 0.5 3t4.5 2h65q2 0 2 -2t-2 -2h-25q-23 0 -23 -26v-661q0 -10 10 -10h30q2 0 2 -2t-2 -2h-103q-2 0 -2 2t2 2h31q10 0 10 10v496q-8 -45 -24.5 -90.5t-40.5 -83t-56.5 -61t-73.5 -23.5q-24 0 -49.5 8
t-46 29t-33.5 58t-13 96v22zM68 195q0 -62 11 -99.5t28.5 -57.5t37.5 -26t38 -6h4q43 0 76.5 27t58 68t39.5 91t21 95v150l-87 16q-56 10 -98 -5t-71 -48t-43.5 -81.5t-14.5 -103.5v-20z" />
    <glyph glyph-name="r" unicode="r" horiz-adv-x="343" 
d="M25 453q0 2 2 2h87q2 0 2 -2t-2 -2h-15v-176q12 39 34 73.5t50.5 61t62 42t68.5 15.5q9 0 14 -4.5t5.5 -9.5t-4 -9t-14.5 -3q-35 3 -70 -9.5t-65 -38t-51.5 -62.5t-29.5 -82v-235q0 -10 10 -10h37q2 0 2 -2t-2 -2h-118q-2 0 -2 2t2 2h39q10 0 10 10v411q0 23 -20 26h-30
q-2 0 -2 2z" />
    <glyph glyph-name="s" unicode="s" horiz-adv-x="403" 
d="M204 463q-33 0 -57 -8t-39.5 -21t-23.5 -29.5t-8 -33.5q0 -32 21.5 -51t54 -32.5t70.5 -24.5t70.5 -27t54 -40t21.5 -63q0 -24 -11.5 -49t-33 -45t-52.5 -32.5t-71 -12.5q-42 0 -74.5 12.5t-54.5 32.5t-32 46.5t-8 53.5q1 10 6 13.5t10.5 2t9.5 -6t1 -11.5
q-7 -22 -2.5 -46.5t22 -45t48 -34t75.5 -13.5q33 0 60 10.5t46.5 27.5t30 38.5t10.5 42.5q0 39 -21.5 63t-54 39.5t-70 26t-70 24t-54 33.5t-21.5 54q0 19 9 39t27.5 35.5t46 25.5t64.5 10q73 0 112.5 -35t32.5 -90q-2 -10 -7 -13.5t-10.5 -2t-9 6t-0.5 11.5q7 22 5 43
t-16 38t-40 27.5t-67 10.5z" />
    <glyph glyph-name="t" unicode="t" horiz-adv-x="196" 
d="M27 453q0 2 2 2h21q18 1 28 11.5t15.5 25.5t6.5 32t1 31h4v-79q0 -7 -5 -13t-16 -8h120q4 0 4 -2t-4 -2h-82q-22 0 -22 -26v-367q0 -29 13 -41.5t33 -12.5q14 0 25 9.5t11 28.5q0 4 2.5 4t2.5 -4q0 -22 -15 -34t-38 -11q-56 2 -56 73v381h-49q-2 0 -2 2z" />
    <glyph glyph-name="u" unicode="u" horiz-adv-x="496" 
d="M408 455q10 0 10 -10v-408q0 -16 9 -25.5t23 -9.5q11 0 21 9t10 28q0 3 2.5 3t2.5 -3q0 -22 -13 -32t-30 -10q-21 0 -34 14.5t-13 43.5v249q-6 -57 -22.5 -112t-42 -99t-60.5 -71t-79 -27q-24 0 -47 7t-40 23.5t-27.5 45t-10.5 72.5v282q0 23 -20 26h-30q-2 0 -2 2t2 2
h102q2 0 2 -2t-2 -2h-30v-311q0 -47 9.5 -75t25 -42t34.5 -18t39 -4q48 0 85 35.5t62.5 90.5t38.5 120.5t13 125.5v72q0 10 10 10h2z" />
    <glyph glyph-name="v" unicode="v" horiz-adv-x="492" 
d="M238 -1q-2 -6 -6 -6h-1q-5 0 -6 6l-176 452h-56q-2 0 -2 2t2 2h140q2 0 2 -2t-2 -2h-58l166 -428l143 388q6 16 6 24.5t-4.5 12t-13.5 3.5h-20h-27q-2 0 -2 2t2 2h151q3 0 3 -2t-3 -2h-40q-16 0 -27 -7t-20 -31z" />
    <glyph glyph-name="w" unicode="w" horiz-adv-x="723" 
d="M494 -1q-2 -6 -6 -6h-1q-5 0 -6 6l-130 348l-117 -349q-2 -5 -6 -5t-6 5l-173 453h-56q-2 0 -2 2t2 2h140q2 0 2 -2t-2 -2h-58l163 -428l111 331l-36 97h-56q-2 0 -2 2t2 2h140q2 0 2 -2t-2 -2h-58l158 -427l120 387q4 15 4 23.5t-4 12t-12 4t-19 0.5h-27q-2 0 -2 2t2 2
h149q3 0 3 -2t-3 -2h-38q-16 0 -27 -7t-20 -31z" />
    <glyph glyph-name="x" unicode="x" horiz-adv-x="463" 
d="M299 0q-2 0 -2 2t2 2h63l-138 221l-123 -189q-14 -23 -6.5 -27.5t22.5 -4.5h55q3 0 3 -2t-3 -2h-167q-2 0 -2 2t2 2h44q11 0 23 4.5t26 28.5l124 191l-139 223h-63q-3 0 -3 2t3 2h150q3 0 3 -2t-3 -2h-58l125 -200l109 168q14 23 6.5 27.5t-22.5 4.5h-55q-3 0 -3 2t3 2
h167q3 0 3 -2t-3 -2h-44q-11 0 -23 -4.5t-26 -28.5l-110 -171l152 -243h52q3 0 3 -2t-3 -2h-144z" />
    <glyph glyph-name="y" unicode="y" horiz-adv-x="484" 
d="M233 -2l-10 -29q-47 -128 -118 -177.5t-159 -17.5q-19 7 -25.5 15t-5 14t8.5 8t16 -3q56 -31 100.5 -26.5t78.5 31t58.5 69.5t40.5 88l11 33q-8 -7 -13 8l-171 440h-56q-2 0 -2 2t2 2h140q2 0 2 -2t-2 -2h-58l166 -428l143 388q6 16 6 24.5t-4.5 12t-13.5 3.5h-20h-27
q-2 0 -2 2t2 2h151q3 0 3 -2t-3 -2h-40q-16 0 -27 -7t-20 -31z" />
    <glyph glyph-name="z" unicode="z" horiz-adv-x="399" 
d="M337 451h-227q-21 0 -34.5 -13.5t-13.5 -31.5v-38h-4v87h306l-298 -451h243q20 0 33.5 16.5t13.5 38.5v22h4v-81h-320z" />
    <glyph glyph-name="braceleft" unicode="{" horiz-adv-x="289" 
d="M252 -178q-42 0 -71.5 14t-49 39.5t-28.5 61t-9 77.5q0 36 6.5 68.5t14 61.5t14 53.5t6.5 44.5q0 11 -6.5 19.5t-20.5 8.5q-32 0 -43 -2.5t-18 -2.5q-11 0 -11 7.5t11 7.5q7 0 18 -2.5t43 -2.5q11 0 19 8.5t8 20.5q0 20 -6.5 44.5t-14 53t-14 61t-6.5 68.5q0 42 9 77
t27.5 60.5t47 40t67.5 14.5h7q3 0 3 -1.5t-3 -1.5h-7q-56 0 -91.5 -35t-35.5 -115q0 -33 5.5 -65t12.5 -61.5t12.5 -57.5t5.5 -54q0 -20 -9.5 -39t-24.5 -19q-3 0 -3 -1t3 -1q16 0 25 -17.5t9 -37.5q0 -26 -6.5 -55.5t-14 -60.5t-14 -63t-6.5 -63q0 -80 38.5 -115t100.5 -35
q3 0 2.5 -1.5t-2.5 -1.5z" />
    <glyph glyph-name="bar" unicode="|" horiz-adv-x="149" 
d="M79 -23q0 -5 -2.5 -5t-2.5 5v745q0 5 2.5 5t2.5 -5v-745v0z" />
    <glyph glyph-name="braceright" unicode="}" horiz-adv-x="289" 
d="M36 -178q-2 0 -2.5 1.5t2.5 1.5q31 0 56.5 8.5t44 26.5t28.5 46.5t10 68.5q0 31 -6.5 63t-14 63t-14 60.5t-6.5 55.5q0 20 9 37.5t25 17.5q3 0 3 1t-3 1q-15 0 -24.5 19t-9.5 39q0 26 5.5 54t12.5 57.5t12.5 61.5t5.5 65q0 40 -9.5 68.5t-26.5 46.5t-40 26.5t-51 8.5h-7
q-3 0 -3 1.5t3 1.5h7q39 0 67.5 -14.5t47 -40t27.5 -60.5t9 -77q0 -36 -6.5 -68.5t-14 -61t-14 -53t-6.5 -44.5q0 -12 8 -20.5t19 -8.5q32 0 43 2.5t18 2.5q11 0 11 -7.5t-11 -7.5q-7 0 -18 2.5t-43 2.5q-14 0 -20.5 -8.5t-6.5 -19.5q0 -20 6.5 -44.5t14 -53.5t14 -61.5
t6.5 -68.5q0 -42 -9 -77.5t-28.5 -61t-49 -39.5t-71.5 -14z" />
    <glyph glyph-name="asciitilde" unicode="~" horiz-adv-x="542" 
d="M449 330q-3 -46 -29 -75t-74 -26q-25 2 -46 16t-40.5 30.5t-39 30t-42.5 15.5q-35 2 -56.5 -24t-23.5 -69q0 -3 -3 -3t-3 3q3 53 33 80t78 25q24 -2 43 -15t37 -28t37 -28.5t44 -14.5q36 -2 56 20.5t23 63.5q0 3 3 3t3 -4z" />
    <glyph glyph-name="exclamdown" unicode="&#xa1;" horiz-adv-x="184" 
d="M83 267v116q0 4 3 4t3 -4v-116l12 -483v-2q0 -7 -4.5 -11t-10.5 -4t-10.5 4t-4.5 11v2zM68 447q0 8 5 13t13 5t13 -5t5 -13t-5 -13t-13 -5t-13 5t-5 13z" />
    <glyph glyph-name="cent" unicode="&#xa2;" horiz-adv-x="521" 
d="M273 746q0 6 6 6t6 -6v-1l-2 -149h9q27 0 52 -7.5t44 -20.5t30 -30t10 -36q0 -8 -4.5 -11.5t-9.5 -3t-9 4.5t-2 11q4 35 -25 62t-86 27h-9l-1 -85v-301l1 -79h2q30 0 53.5 9t39.5 23t23.5 31t5.5 34q-2 7 2 11t9 5t10 -2.5t5 -11.5q0 -19 -12 -37.5t-33 -33t-48 -23.5
t-55 -9h-2l2 -135v-1q0 -6 -6 -6t-6 6v12.5v24.5t0.5 40t1.5 59q-38 1 -70.5 16.5t-56.5 45.5t-38 74.5t-14 104.5q0 55 14.5 97t39.5 70.5t57 44.5t68 19l-2 150v1zM122 364q0 -63 11.5 -107.5t32 -72.5t48.5 -42t61 -15v36.5t1 42.5v301l-1 84q-32 -3 -60 -17t-48.5 -42
t-32.5 -69.5t-12 -98.5z" />
    <glyph glyph-name="sterling" unicode="&#xa3;" horiz-adv-x="529" 
d="M249 249q-5 -42 -25.5 -71.5t-47.5 -46.5h218q22 0 35.5 15.5t13.5 38.5v71h6v-130h-282q-34 -17 -75 -14q-13 1 -17.5 4.5t-3.5 7.5t6.5 6t12.5 1h69q36 12 52.5 48.5t21.5 85.5l7 79h-30l-112 -3q-6 0 -6 5.5t6 5.5l112 -3h30l7 71q4 37 18.5 67t37 50t51 30t61.5 7
q13 -1 17.5 -5t3.5 -7.5t-6.5 -6t-11.5 -1.5q-40 10 -67 3.5t-44.5 -25t-26.5 -47.5t-12 -65l-8 -71h20l114 3q6 0 6 -5.5t-6 -5.5l-114 3h-21z" />
    <glyph glyph-name="currency" unicode="&#xa4;" horiz-adv-x="355" 
d="M94 373q0 19 7 35t19 28l-9 11l-41 33q-3 3 -3 6t2.5 5.5t5.5 2.5t6 -3l33 -41l10 -10q26 21 58 21q33 0 57 -21l11 10l33 41q3 3 6 3t5.5 -2.5t2.5 -5.5t-3 -6l-41 -33l-10 -11q12 -12 19 -28t7 -35q0 -39 -26 -63l10 -11l41 -33q3 -3 3 -6t-2.5 -5.5t-5.5 -2.5t-6 3
l-33 41l-11 10q-23 -20 -57 -20t-57 20l-11 -10l-33 -41q-3 -3 -6 -3t-5.5 2.5t-2.5 5.5t3 6l41 33l10 10q-27 25 -27 64zM99 373q0 -35 24 -58.5t59 -23.5t58.5 23.5t23.5 58.5t-23.5 59t-58.5 24t-59 -24t-24 -59z" />
    <glyph glyph-name="yen" unicode="&#xa5;" horiz-adv-x="530" 
d="M254 299h-24l-112 -3q-6 0 -6 5.5t6 5.5l112 -3h24v28l-2 3h-22l-112 -3q-6 0 -6 5.5t6 5.5l112 -3h19l-136 237h-35q-2 0 -2 2t2 2h88q2 0 2 -2t-2 -2h-31l136 -235l135 235h-38q-3 0 -3 2t3 2h84q2 0 2 -2t-2 -2h-41l-136 -237h28l114 3q6 0 6 -5.5t-6 -5.5l-114 3h-30
v-31h30l114 3q6 0 6 -5.5t-6 -5.5l-114 3h-30v-155q0 -10 10 -10h24q2 0 2 -2t-2 -2h-85q-2 0 -2 2t2 2h22q10 0 10 10v155z" />
    <glyph glyph-name="brokenbar" unicode="&#xa6;" horiz-adv-x="289" 
d="M145 171q0 -16 3 -41t6.5 -50t6.5 -45.5t3 -26.5q0 -20 -20 -20q-8 0 -13.5 6t-5.5 14q0 7 2.5 27.5t5 45t5 49.5t2.5 41v137h5v-137zM140 507v22q0 16 -2.5 41t-5 49.5t-5 45t-2.5 27.5q0 8 5.5 14t13.5 6q20 0 20 -20q0 -6 -3 -26.5t-6.5 -45.5t-6.5 -50t-3 -41v-22h-5
zM145 507v-111h-5v111h5z" />
    <glyph glyph-name="section" unicode="&#xa7;" horiz-adv-x="605" 
d="M540 199q0 -16 -5 -36t-14 -40t-22 -40t-28 -36q27 -22 43.5 -50t16.5 -68q0 -35 -15 -69t-43.5 -60.5t-70 -42.5t-94.5 -16q-56 0 -99.5 20.5t-71.5 54t-37.5 75.5t3.5 85q4 13 11 17t14 2.5t10.5 -7.5t-0.5 -15q-17 -37 -14 -77t24.5 -73t62 -54.5t99.5 -21.5
q45 0 82.5 13.5t64.5 35.5t41.5 50.5t14.5 59.5q0 56 -30 91.5t-75 60.5t-98 43t-98 40t-75 52.5t-30 78.5q0 42 27 83t72 72q-43 21 -71 51.5t-28 80.5q0 28 12.5 57.5t38 52.5t64 38t89.5 15t89.5 -14.5t64.5 -38t38.5 -53t10.5 -60.5q-1 -13 -7 -17.5t-12.5 -3t-11 7.5
t-1.5 15q8 25 4 53t-24 51t-57 38.5t-94 15.5q-47 0 -81.5 -12t-57 -31t-34 -43.5t-11.5 -49.5q0 -52 30.5 -83.5t76.5 -53.5t99.5 -40t99.5 -43t76.5 -62.5t30.5 -98.5zM521 175q0 42 -14.5 73t-38.5 53.5t-55.5 39t-66 30t-69.5 26t-65 27.5q-42 -29 -63.5 -64t-21.5 -67
q0 -36 17 -62t45 -45.5t64 -35t73.5 -30t73.5 -31t65 -37.5q29 30 42.5 64t13.5 59z" />
    <glyph glyph-name="dieresis" unicode="&#xa8;" horiz-adv-x="372" 
d="M274 568q-8 0 -13 5t-5 13t5 13t13 5t13 -5t5 -13t-5 -13t-13 -5zM112 568q-8 0 -13 5t-5 13t5 13t13 5t13 -5t5 -13t-5 -13t-13 -5z" />
    <glyph glyph-name="copyright" unicode="&#xa9;" horiz-adv-x="820" 
d="M100 357q0 64 24.5 120.5t66.5 98.5t98.5 66.5t120.5 24.5t120.5 -24.5t98.5 -66.5t66.5 -98.5t24.5 -120.5t-24.5 -120.5t-66.5 -98.5t-98.5 -66.5t-120.5 -24.5t-120.5 24.5t-98.5 66.5t-66.5 98.5t-24.5 120.5zM105 357q0 -63 24 -118.5t65.5 -97t97 -65.5t118.5 -24
t118.5 24t97 65.5t65.5 97t24 118.5t-24 118.5t-65.5 97t-97 65.5t-118.5 24t-118.5 -24t-97 -65.5t-65.5 -97t-24 -118.5zM424 194q-38 0 -67.5 12.5t-49.5 34.5t-30 52t-10 65v8q0 40 13 70.5t34.5 50.5t48.5 30.5t54 10.5h2q29 -2 49 -11t37 -27q7 -7 15 -4.5t8 21.5v13
h6v-124h-6v7q0 22 -6.5 43t-20 37.5t-33.5 27.5t-47 12h-4q-27 0 -50 -10t-40.5 -29.5t-27.5 -49t-10 -68.5v-8q0 -69 33 -114t104 -45q25 2 44.5 13t32 28t19 38t6.5 42v6h6v-123h-6v13q0 18 -8 20.5t-15 -3.5q-17 -17 -36 -27t-45 -12z" />
    <glyph glyph-name="ordfeminine" unicode="&#xaa;" horiz-adv-x="369" 
d="M283 425q0 -12 5.5 -18t12.5 -6q8 0 14 5.5t6 16.5q0 2 1.5 2t1.5 -2q0 -14 -8.5 -23t-20.5 -9q-17 0 -27 10t-10 30v141q-5 -33 -15 -65.5t-26.5 -58.5t-39.5 -42t-52 -16q-38 0 -59 21t-21 49q0 29 13.5 45.5t35 26t48.5 15.5t55 15q21 7 33.5 14.5t18.5 16.5t8 19.5
t2 22.5q0 9 -4 20.5t-13 22t-24 17.5t-37 7q-23 0 -39.5 -8t-27 -21t-14 -28t0.5 -30q2 -9 -1.5 -15.5t-9.5 -7.5t-11.5 4t-6.5 18q-2 19 6.5 35.5t23.5 29.5t35.5 20.5t43.5 7.5q52 0 77 -22.5t25 -54.5v-205zM133 400q31 0 53.5 20.5t37.5 51t23.5 66.5t10.5 67
q-5 -15 -17 -26t-41 -21q-20 -7 -42.5 -12.5t-41.5 -15t-31.5 -25.5t-12.5 -43q0 -28 17.5 -45t43.5 -17z" />
    <glyph glyph-name="guillemotleft" unicode="&#xab;" horiz-adv-x="530" 
d="M448 513q3 3 5.5 1t-0.5 -5l-210 -211l-1 -1v-1l1 -1l210 -225q3 -3 0.5 -5t-5.5 1l-216 213q-10 8 -10 17.5t10 17.5zM276 513q3 3 5.5 1t-0.5 -5l-210 -211l-1 -1v-1l1 -1l210 -225q3 -3 0.5 -5t-5.5 1l-216 213q-10 8 -10 17.5t10 17.5z" />
    <glyph glyph-name="logicalnot" unicode="&#xac;" horiz-adv-x="388" 
d="M59 255h229q25 0 25 -23v-71h-6v71q0 17 -19 17h-229v6z" />
    <glyph glyph-name="uni00AD" unicode="&#xad;" horiz-adv-x="424" 
d="M63 260h275v-5h-275v5z" />
    <glyph glyph-name="registered" unicode="&#xae;" horiz-adv-x="833" 
d="M100 357q0 64 24.5 120.5t66.5 98.5t98.5 66.5t120.5 24.5t120.5 -24.5t98.5 -66.5t66.5 -98.5t24.5 -120.5t-24.5 -120.5t-66.5 -98.5t-98.5 -66.5t-120.5 -24.5t-120.5 24.5t-98.5 66.5t-66.5 98.5t-24.5 120.5zM105 357q0 -63 24 -118.5t65.5 -97t97 -65.5t118.5 -24
t118.5 24t97 65.5t65.5 97t24 118.5t-24 118.5t-65.5 97t-97 65.5t-118.5 24t-118.5 -24t-97 -65.5t-65.5 -97t-24 -118.5zM301 196q-4 0 -4 2.5t4 2.5h15q10 0 10 10v300q0 10 -10 10h-15q-3 0 -3 2.5t3 2.5h114q17 0 34.5 -4.5t32 -13.5t23.5 -23t9 -34q0 -38 -27 -58
t-61 -23q42 -15 74 -76q9 -18 16.5 -36t14.5 -32.5t13 -23.5t11 -9q2 0 6 2q2 2 3.5 -0.5t-1.5 -4.5t-8 -2q-15 0 -33 20.5t-43 76.5q-12 26 -21 42.5t-18 26t-18.5 13t-20.5 3.5h-56v-159q0 -10 10 -10h16q4 0 4 -2.5t-4 -2.5h-70zM491 451q0 20 -6.5 33.5t-17 21.5
t-24 11.5t-28.5 3.5h-60q-10 0 -10 -10v-136h70q31 0 53.5 17t22.5 59z" />
    <glyph glyph-name="macron" unicode="&#xaf;" horiz-adv-x="400" 
d="M59 556h278v-6h-278v6z" />
    <glyph glyph-name="degree" unicode="&#xb0;" horiz-adv-x="304" 
d="M69 575q0 37 25.5 62.5t62.5 25.5t62 -25.5t25 -62.5t-25 -62t-62 -25t-62.5 25t-25.5 62zM74 575q0 -35 24 -58.5t59 -23.5t58.5 23.5t23.5 58.5t-23.5 59t-58.5 24t-59 -24t-24 -59z" />
    <glyph glyph-name="plusminus" unicode="&#xb1;" horiz-adv-x="577" 
d="M111 310q-11 0 -11 10.5t11 10.5l143 -8h32v32l-8 143q0 11 10.5 11t10.5 -11l-8 -143v-32h32l143 8q11 0 11 -10.5t-11 -10.5l-143 8h-32v-33l8 -143q0 -11 -10.5 -11t-10.5 11l8 143v33h-32zM111 47q-11 0 -11 10.5t11 10.5l143 -8h69l143 8q11 0 11 -10.5t-11 -10.5
l-143 8h-69z" />
    <glyph glyph-name="twosuperior" unicode="&#xb2;" horiz-adv-x="298" 
d="M61 412q2 33 14.5 57t30 42.5t38 33.5t37.5 29.5t28.5 31.5t11.5 39t-16 40t-54 18q-22 0 -37 -8.5t-23 -20.5t-9.5 -25.5t3.5 -23.5q3 -7 0.5 -11.5t-7 -5t-9.5 3t-6 12.5q-3 15 2 30t16 27t29 19.5t41 7.5q45 0 67.5 -21.5t22.5 -48.5q0 -21 -13 -37t-32 -30.5t-42 -29
t-42 -32.5t-32 -41t-13 -53q0 -3 3 -3h166q3 0 3 3v22q0 3 2.5 3t2.5 -3v-45h-183v20z" />
    <glyph glyph-name="threesuperior" unicode="&#xb3;" horiz-adv-x="285" 
d="M142 575q-14 0 -14.5 10.5t13.5 10.5q8 0 16 -1.5t16 -6.5q41 15 41 59q0 18 -15 37t-54 19q-22 0 -36.5 -7.5t-22.5 -18t-10.5 -22.5t0.5 -22q2 -7 -1 -11t-7.5 -4.5t-9 3t-4.5 12.5q0 12 4.5 25.5t15.5 24.5t28.5 18t42.5 7q21 0 37 -6t26.5 -15t15.5 -20t5 -20
q0 -18 -12.5 -34.5t-38.5 -25.5q37 -8 55.5 -32.5t18.5 -62.5q0 -16 -6.5 -34.5t-20.5 -34t-35.5 -26t-51.5 -10.5q-26 0 -46 8.5t-32.5 22.5t-18.5 31.5t-4 35.5q1 9 5.5 13.5t9 4t7.5 -5t1 -13.5q-3 -13 -1 -29t11 -30t25.5 -23.5t42.5 -9.5q28 0 45.5 9.5t28 24.5
t14.5 32.5t4 33.5q0 15 -2.5 29.5t-9 27.5t-17.5 22.5t-28 13.5q-13 -10 -31 -10z" />
    <glyph glyph-name="acute" unicode="&#xb4;" horiz-adv-x="158" 
d="M128 633q3 6 7.5 11t13.5 5t9.5 -7.5t-4.5 -12.5l-52 -50h-2l28 54v0z" />
    <glyph glyph-name="mu" unicode="&#xb5;" horiz-adv-x="503" 
d="M425 455v-418q0 -16 9 -25.5t23 -9.5q11 0 21 9t10 28q0 3 2.5 3t2.5 -3q0 -22 -13 -32t-30 -10q-21 0 -34 14.5t-13 43.5v249q-6 -57 -22.5 -112t-42 -99t-60.5 -71t-79 -27q-19 0 -36.5 4t-33 13t-27.5 24.5t-19 38.5v-44q0 -16 2 -41t4.5 -49.5t4.5 -45t2 -27.5
q0 -8 -5.5 -14t-13.5 -6q-20 0 -20 20q0 6 2.5 26.5t6 45.5t6 50t2.5 41v424h22v-315q0 -47 9.5 -75t25 -42t34.5 -18t39 -4q48 0 85 35.5t62.5 90.5t38.5 120.5t13 125.5v82h22z" />
    <glyph glyph-name="mu" unicode="&#x3bc;" horiz-adv-x="503" 
d="M425 455v-418q0 -16 9 -25.5t23 -9.5q11 0 21 9t10 28q0 3 2.5 3t2.5 -3q0 -22 -13 -32t-30 -10q-21 0 -34 14.5t-13 43.5v249q-6 -57 -22.5 -112t-42 -99t-60.5 -71t-79 -27q-19 0 -36.5 4t-33 13t-27.5 24.5t-19 38.5v-44q0 -16 2 -41t4.5 -49.5t4.5 -45t2 -27.5
q0 -8 -5.5 -14t-13.5 -6q-20 0 -20 20q0 6 2.5 26.5t6 45.5t6 50t2.5 41v424h22v-315q0 -47 9.5 -75t25 -42t34.5 -18t39 -4q48 0 85 35.5t62.5 90.5t38.5 120.5t13 125.5v82h22z" />
    <glyph glyph-name="paragraph" unicode="&#xb6;" horiz-adv-x="505" 
d="M246 -222h45q7 0 7 7v537q-41 0 -77 15.5t-63 42.5t-42.5 63t-15.5 77t15.5 77t42.5 63t63 42.5t77 15.5h119v-5h-47q-7 0 -7 -7v-921q0 -7 7 -7h40v-5h-164v5zM303 -215q0 -7 7 -7h41q7 0 7 7v921q0 7 -7 7h-48v-928z" />
    <glyph glyph-name="periodcentered" unicode="&#xb7;" horiz-adv-x="186" 
d="M75 236q0 8 5 13t13 5t13 -5t5 -13t-5 -13t-13 -5t-13 5t-5 13z" />
    <glyph glyph-name="cedilla" unicode="&#xb8;" horiz-adv-x="240" 
d="M119 -3q0 -15 10 -26t22 -21.5t22 -23.5t10 -31q0 -32 -24 -50t-52 -17q-14 0 -27.5 7.5t-22.5 23.5q-1 2 0 3t2 -1q8 -16 21 -23t27 -7q21 0 39 15t18 46q0 14 -7.5 26.5t-16.5 24.5t-16.5 25t-7.5 28v1h3z" />
    <glyph glyph-name="onesuperior" unicode="&#xb9;" horiz-adv-x="251" 
d="M77 661q-10 0 -10 6t6 5q19 -2 31.5 1.5t20 10.5t11.5 16t7 19h3v-315q0 -7 7 -7h22q3 0 3 -2.5t-3 -2.5h-79q-4 0 -4 2.5t4 2.5h21q7 0 7 7v274q-11 -6 -20.5 -11.5t-26.5 -5.5z" />
    <glyph glyph-name="ordmasculine" unicode="&#xba;" horiz-adv-x="385" 
d="M193 388q-26 0 -48.5 10t-39.5 30t-26.5 51.5t-9.5 73.5q0 41 10.5 71.5t28 50t40 29t47.5 9.5q24 -1 46 -11t39 -29.5t27 -49.5t10 -70q0 -42 -9.5 -73.5t-26.5 -51.5t-39.5 -30t-48.5 -10zM193 393q43 1 72 37.5t29 122.5q0 76 -28.5 115t-70.5 40h-5q-42 -2 -70 -41
t-28 -114q0 -86 29 -122.5t72 -37.5z" />
    <glyph glyph-name="guillemotright" unicode="&#xbb;" horiz-adv-x="530" 
d="M298 314q10 -8 10 -17.5t-10 -17.5l-216 -213q-3 -3 -5.5 -1t0.5 5l210 225l1 1v1l-1 1l-210 211q-3 3 -0.5 5t5.5 -1zM470 314q10 -8 10 -17.5t-10 -17.5l-216 -213q-3 -3 -5.5 -1t0.5 5l210 225l1 1v1l-1 1l-210 211q-3 3 -0.5 5t5.5 -1z" />
    <glyph glyph-name="onequarter" unicode="&#xbc;" horiz-adv-x="651" 
d="M115 -26q-5 -8 -10.5 -4t-0.5 12l176 263l85 133l169 268q5 8 11 4t1 -12l-178 -262l-85 -133zM465 27q-3 0 -3 2.5t3 2.5h16q2 0 2 2v85q0 4 -3 4h-105q-16 0 -10 15q12 31 30.5 63t39 60t40 49.5t33.5 31.5q5 4 10 4q7 0 10 -5t-5 -10q-20 -16 -41 -35t-42 -43
t-39.5 -53t-31.5 -64q-3 -8 6 -8h105q3 0 3 3v42l-2 79q0 3 3 3h19q3 0 3 -3l-3 -79v-42q0 -3 4 -3h33q2 0 2 -2.5t-2 -2.5h-33q-4 0 -4 -4v-85q0 -2 3 -2h15q3 0 3 -2.5t-3 -2.5h-56zM121 580q-10 0 -10 6t6 5q19 -2 31.5 1.5t20 10.5t11.5 16t7 19h3v-315q0 -7 7 -7h22
q3 0 3 -2.5t-3 -2.5h-79q-4 0 -4 2.5t4 2.5h21q7 0 7 7v274q-11 -6 -20.5 -11.5t-26.5 -5.5z" />
    <glyph glyph-name="onehalf" unicode="&#xbd;" horiz-adv-x="699" 
d="M115 -26q-5 -8 -10.5 -4t-0.5 12l176 263l85 133l169 268q5 8 11 4t1 -12l-178 -262l-85 -133zM121 580q-10 0 -10 6t6 5q19 -2 31.5 1.5t20 10.5t11.5 16t7 19h3v-315q0 -7 7 -7h22q3 0 3 -2.5t-3 -2.5h-79q-4 0 -4 2.5t4 2.5h21q7 0 7 7v274q-11 -6 -20.5 -11.5
t-26.5 -5.5zM412 46q2 33 14.5 57t30 42.5t38 33.5t37.5 29.5t28.5 31.5t11.5 39t-16 40t-54 18q-22 0 -37 -8.5t-23 -20.5t-9.5 -25.5t3.5 -23.5q3 -7 0.5 -11.5t-7 -5t-9.5 3t-6 12.5q-3 15 2 30t16 27t29 19.5t41 7.5q45 0 67.5 -21.5t22.5 -48.5q0 -20 -13 -36.5
t-32 -31t-42 -29t-42 -32.5t-32 -41t-13 -53q0 -3 3 -3h166q3 0 3 3v22q0 3 2.5 3t2.5 -3v-45h-183v20z" />
    <glyph glyph-name="threequarters" unicode="&#xbe;" horiz-adv-x="649" 
d="M115 -26q-5 -8 -10.5 -4t-0.5 12l176 263l85 133l169 268q5 8 11 4t1 -12l-178 -262l-85 -133zM465 27q-3 0 -3 2.5t3 2.5h16q2 0 2 2v85q0 4 -3 4h-105q-16 0 -10 15q12 31 30.5 63t39 60t40 49.5t33.5 31.5q5 4 10 4q7 0 10 -5t-5 -10q-20 -16 -41 -35t-42 -43
t-39.5 -53t-31.5 -64q-3 -8 6 -8h105q3 0 3 3v42l-2 79q0 3 3 3h19q3 0 3 -3l-3 -79v-42q0 -3 4 -3h33q2 0 2 -2.5t-2 -2.5h-33q-4 0 -4 -4v-85q0 -2 3 -2h15q3 0 3 -2.5t-3 -2.5h-56zM176 496q-14 0 -14.5 10.5t13.5 10.5q8 0 16 -1.5t16 -6.5q41 15 41 59q0 18 -15 37
t-54 19q-22 0 -36.5 -7.5t-22.5 -18t-10.5 -22.5t0.5 -22q2 -7 -1 -11t-7.5 -4.5t-9 3t-4.5 12.5q0 12 4.5 25.5t15.5 24.5t28.5 18t42.5 7q21 0 37 -6t26.5 -15t15.5 -20t5 -20q0 -18 -12.5 -34.5t-38.5 -25.5q37 -8 55.5 -32.5t18.5 -62.5q0 -16 -6.5 -34.5t-20.5 -34
t-35.5 -26t-51.5 -10.5q-26 0 -46 8.5t-32.5 22.5t-18.5 31.5t-4 35.5q1 9 5.5 13.5t9 4t7.5 -5t1 -13.5q-3 -13 -1 -29t11 -30t25.5 -23.5t42.5 -9.5q28 0 45.5 9.5t28 24.5t14.5 32.5t4 33.5q0 15 -2.5 29.5t-9 27.5t-17.5 22.5t-28 13.5q-13 -10 -31 -10z" />
    <glyph glyph-name="questiondown" unicode="&#xbf;" horiz-adv-x="553" 
d="M301 379q0 3 3 3.5t3 -3.5v-111q0 -52 -12.5 -88t-32 -62.5t-41.5 -48t-41.5 -45.5t-32 -55t-12.5 -77q0 -27 8.5 -52t27 -45t48.5 -32t74 -12q52 0 85 18.5t50.5 46t21.5 60.5t-1 62q-2 10 1.5 16t9 6.5t10.5 -4t7 -15.5q4 -34 -6 -69t-33.5 -63t-60 -45.5t-84.5 -17.5
q-47 0 -81.5 12t-57 32.5t-33 48t-10.5 57.5q0 42 14 71t35 52t46 45t46 49t35 63t14 89v114zM322 447q0 -8 -5 -13t-13 -5t-13 5t-5 13t5 13t13 5t13 -5t5 -13z" />
    <glyph glyph-name="Agrave" unicode="&#xc0;" horiz-adv-x="632" 
d="M263 688q-4 0 -4 3t4 3h70l258 -688h53q3 0 3 -3t-3 -3h-137q-4 0 -4 3t4 3h57l-106 282h-293l-103 -282h56q3 0 3 -3t-3 -3h-115q-4 0 -4 3t4 3h52l249 682h-41zM167 294h288l-146 390zM337 773h-2l-52 50q-5 5 -4.5 12.5t9.5 7.5t13.5 -5t7.5 -11z" />
    <glyph glyph-name="Aacute" unicode="&#xc1;" horiz-adv-x="632" 
d="M263 688q-4 0 -4 3t4 3h70l258 -688h53q3 0 3 -3t-3 -3h-137q-4 0 -4 3t4 3h57l-106 282h-293l-103 -282h56q3 0 3 -3t-3 -3h-115q-4 0 -4 3t4 3h52l249 682h-41zM167 294h288l-146 390zM338 825q3 6 7.5 11t13.5 5t9.5 -7.5t-4.5 -12.5l-52 -50h-2z" />
    <glyph glyph-name="Acircumflex" unicode="&#xc2;" horiz-adv-x="632" 
d="M263 688q-4 0 -4 3t4 3h70l258 -688h53q3 0 3 -3t-3 -3h-137q-4 0 -4 3t4 3h57l-106 282h-293l-103 -282h56q3 0 3 -3t-3 -3h-115q-4 0 -4 3t4 3h52l249 682h-41zM167 294h288l-146 390zM310 841l-120 -100q-4 -2 -4.5 -0.5t1.5 3.5q21 21 38 37.5t31 31t27 27.5t26 27
q1 1 3 0q13 -14 26 -27t27 -27.5t31 -31t38 -37.5q2 -2 0.5 -3.5t-3.5 0.5z" />
    <glyph glyph-name="Atilde" unicode="&#xc3;" horiz-adv-x="632" 
d="M263 688q-4 0 -4 3t4 3h70l258 -688h53q3 0 3 -3t-3 -3h-137q-4 0 -4 3t4 3h57l-106 282h-293l-103 -282h56q3 0 3 -3t-3 -3h-115q-4 0 -4 3t4 3h52l249 682h-41zM167 294h288l-146 390zM438 848q0 -32 -17 -53.5t-50 -21.5q-18 0 -33 9t-29.5 19.5t-29 19.5t-30.5 9
q-24 0 -38 -19.5t-14 -49.5q0 -2 -2 -2t-2 2q0 37 20 57.5t53 20.5q17 0 30.5 -8.5t27 -18t27.5 -18t31 -8.5q26 0 39 16.5t13 45.5q0 3 2 3t2 -3z" />
    <glyph glyph-name="Adieresis" unicode="&#xc4;" horiz-adv-x="632" 
d="M263 688q-4 0 -4 3t4 3h70l258 -688h53q3 0 3 -3t-3 -3h-137q-4 0 -4 3t4 3h57l-106 282h-293l-103 -282h56q3 0 3 -3t-3 -3h-115q-4 0 -4 3t4 3h52l249 682h-41zM167 294h288l-146 390zM397 805q-8 0 -13 5t-5 13t5 13t13 5t13 -5t5 -13t-5 -13t-13 -5zM235 805
q-8 0 -13 5t-5 13t5 13t13 5t13 -5t5 -13t-5 -13t-13 -5z" />
    <glyph glyph-name="Aring" unicode="&#xc5;" horiz-adv-x="632" 
d="M263 688q-4 0 -4 3t4 3h70l258 -688h53q3 0 3 -3t-3 -3h-137q-4 0 -4 3t4 3h57l-106 282h-293l-103 -282h56q3 0 3 -3t-3 -3h-115q-4 0 -4 3t4 3h52l249 682h-41zM167 294h288l-146 390zM250 834q0 28 19 47t47 19t47 -19t19 -47t-19 -47t-47 -19t-47 19t-19 47zM255 834
q0 -25 18 -43t43 -18t43 18t18 43t-18 43t-43 18t-43 -18t-18 -43z" />
    <glyph glyph-name="AE" unicode="&#xc6;" horiz-adv-x="945" 
d="M142 6q3 0 3 -3t-3 -3h-115q-4 0 -4 3t4 3h37q8 1 15 6t12 11l3 4q3 6 3 5l407 656h-73q-4 0 -4 3t4 3h425v-117h-6v62q0 20 -13.5 34.5t-39.5 14.5h-245q-7 0 -7 -7v-301q0 -7 7 -7h175q17 1 30.5 10.5t13.5 27.5v31h6v-144h-6v29q0 20 -15 30t-34 10h-170q-7 0 -7 -7
v-347q0 -7 7 -7h286q18 2 34.5 18.5t16.5 41.5v39h6v-105h-447q-4 0 -4 3t4 3h63q7 0 7 7v327h-223l-194 -312q-1 -1 -1 -2q-4 -8 -3.5 -13.5t8.5 -6.5h37zM518 681q0 7 -7 7l-213 -342h220v335z" />
    <glyph glyph-name="Ccedilla" unicode="&#xc7;" horiz-adv-x="599" 
d="M336 -16q1 -14 11 -24.5t22 -21t21.5 -23t9.5 -30.5q0 -32 -24 -50t-52 -17q-14 0 -27.5 7.5t-22.5 23.5q-1 2 0 3t2 -1q8 -16 21 -23t27 -7q21 0 39 15t18 46q0 14 -7.5 26.5t-16.5 24.5t-16.5 24t-7.5 27q-59 1 -110.5 23.5t-90 68t-60.5 114.5t-22 164q0 90 25 156.5
t66 110.5t95 65.5t112 21.5q42 0 80.5 -11.5t67.5 -31t46 -46t16 -55.5q0 -12 -6 -17t-12 -4.5t-11 6.5t-3 17q3 26 -7 50.5t-32.5 43t-57 30.5t-79.5 12h-2q-56 0 -104.5 -19.5t-84.5 -61.5t-57 -108t-21 -159q0 -101 20 -170t54.5 -112.5t81.5 -63t101 -19.5h1
q47 0 84.5 13.5t63 35t37.5 48.5t9 53q-2 10 3 16.5t11 7t12 -4.5t6 -17q1 -29 -18 -57.5t-50.5 -50.5t-73 -35.5t-84.5 -13.5h-3z" />
    <glyph glyph-name="Egrave" unicode="&#xc8;" horiz-adv-x="538" 
d="M137 397q-7 0 -7 -7v-377q0 -7 7 -7h312q18 2 34.5 18.5t16.5 41.5v39h6v-105h-457q-4 0 -4 3t4 3h47q7 0 7 7v668q0 7 -7 7h-47q-4 0 -4 3t4 3h418v-117h-6v62q0 20 -13.5 34.5t-39.5 14.5h-271q-7 0 -7 -7v-271q0 -7 7 -7h201q17 1 30.5 10.5t13.5 27.5v31h6v-144h-6
v29q0 20 -15 30t-34 10h-196zM299 772h-2l-52 50q-5 5 -4.5 12.5t9.5 7.5t13.5 -5t7.5 -11z" />
    <glyph glyph-name="Eacute" unicode="&#xc9;" horiz-adv-x="538" 
d="M137 397q-7 0 -7 -7v-377q0 -7 7 -7h312q18 2 34.5 18.5t16.5 41.5v39h6v-105h-457q-4 0 -4 3t4 3h47q7 0 7 7v668q0 7 -7 7h-47q-4 0 -4 3t4 3h418v-117h-6v62q0 20 -13.5 34.5t-39.5 14.5h-271q-7 0 -7 -7v-271q0 -7 7 -7h201q17 1 30.5 10.5t13.5 27.5v31h6v-144h-6
v29q0 20 -15 30t-34 10h-196zM289 824q3 6 7.5 11t13.5 5t9.5 -7.5t-4.5 -12.5l-52 -50h-2z" />
    <glyph glyph-name="Ecircumflex" unicode="&#xca;" horiz-adv-x="538" 
d="M137 397q-7 0 -7 -7v-377q0 -7 7 -7h312q18 2 34.5 18.5t16.5 41.5v39h6v-105h-457q-4 0 -4 3t4 3h47q7 0 7 7v668q0 7 -7 7h-47q-4 0 -4 3t4 3h418v-117h-6v62q0 20 -13.5 34.5t-39.5 14.5h-271q-7 0 -7 -7v-271q0 -7 7 -7h201q17 1 30.5 10.5t13.5 27.5v31h6v-144h-6
v29q0 20 -15 30t-34 10h-196zM277 841l-120 -100q-4 -2 -4.5 -0.5t1.5 3.5q21 21 38 37.5t31 31t27 27.5t26 27q1 1 3 0q13 -14 26 -27t27 -27.5t31 -31t38 -37.5q2 -2 0.5 -3.5t-3.5 0.5z" />
    <glyph glyph-name="Edieresis" unicode="&#xcb;" horiz-adv-x="538" 
d="M137 397q-7 0 -7 -7v-377q0 -7 7 -7h312q18 2 34.5 18.5t16.5 41.5v39h6v-105h-457q-4 0 -4 3t4 3h47q7 0 7 7v668q0 7 -7 7h-47q-4 0 -4 3t4 3h418v-117h-6v62q0 20 -13.5 34.5t-39.5 14.5h-271q-7 0 -7 -7v-271q0 -7 7 -7h201q17 1 30.5 10.5t13.5 27.5v31h6v-144h-6
v29q0 20 -15 30t-34 10h-196zM350 805q-8 0 -13 5t-5 13t5 13t13 5t13 -5t5 -13t-5 -13t-13 -5zM188 805q-8 0 -13 5t-5 13t5 13t13 5t13 -5t5 -13t-5 -13t-13 -5z" />
    <glyph glyph-name="Igrave" unicode="&#xcc;" horiz-adv-x="207" 
d="M47 0q-4 0 -4 3t4 3h47q7 0 7 7v668q0 7 -7 7h-43q-4 0 -4 3t4 3h128q3 0 3 -3t-3 -3h-45q-7 0 -7 -7v-668q0 -7 7 -7h46q4 0 4 -3t-4 -3h-133zM142 770h-2l-52 50q-5 5 -4.5 12.5t9.5 7.5t13.5 -5t7.5 -11z" />
    <glyph glyph-name="Iacute" unicode="&#xcd;" horiz-adv-x="207" 
d="M47 0q-4 0 -4 3t4 3h47q7 0 7 7v668q0 7 -7 7h-43q-4 0 -4 3t4 3h128q3 0 3 -3t-3 -3h-45q-7 0 -7 -7v-668q0 -7 7 -7h46q4 0 4 -3t-4 -3h-133zM128 827q3 6 7.5 11t13.5 5t9.5 -7.5t-4.5 -12.5l-52 -50h-2z" />
    <glyph glyph-name="Icircumflex" unicode="&#xce;" horiz-adv-x="207" 
d="M47 0q-4 0 -4 3t4 3h47q7 0 7 7v668q0 7 -7 7h-43q-4 0 -4 3t4 3h128q3 0 3 -3t-3 -3h-45q-7 0 -7 -7v-668q0 -7 7 -7h46q4 0 4 -3t-4 -3h-133zM116 878l-120 -100q-4 -2 -4.5 -0.5t1.5 3.5q21 21 38 37.5t31 31t27 27.5t26 27q1 1 3 0q13 -14 26 -27t27 -27.5t31 -31
t38 -37.5q2 -2 0.5 -3.5t-3.5 0.5z" />
    <glyph glyph-name="Idieresis" unicode="&#xcf;" horiz-adv-x="207" 
d="M47 0q-4 0 -4 3t4 3h47q7 0 7 7v668q0 7 -7 7h-43q-4 0 -4 3t4 3h128q3 0 3 -3t-3 -3h-45q-7 0 -7 -7v-668q0 -7 7 -7h46q4 0 4 -3t-4 -3h-133zM198 805q-8 0 -13 5t-5 13t5 13t13 5t13 -5t5 -13t-5 -13t-13 -5zM36 805q-8 0 -13 5t-5 13t5 13t13 5t13 -5t5 -13t-5 -13
t-13 -5z" />
    <glyph glyph-name="Eth" unicode="&#xd0;" horiz-adv-x="589" 
d="M50 688q-4 0 -4 3t4 3h197q54 0 108 -19t98 -60t71.5 -104.5t27.5 -153.5t-24.5 -157t-65.5 -111.5t-94 -66.5t-110 -22h-208q-4 0 -4 3t4 3h44q10 0 10 10v345h-56q-5 0 -5 3t5 3h56v311q0 10 -10 10h-44zM131 361v-345q0 -10 10 -10h117q54 0 102 20.5t84 63t56.5 109
t20.5 158.5t-23.5 155.5t-62.5 102.5t-88 56t-100 17h-106q-10 0 -10 -10v-311h114q4 0 4 -3t-4 -3h-114z" />
    <glyph glyph-name="Ntilde" unicode="&#xd1;" horiz-adv-x="599" 
d="M25 688q-3 0 -3 3t3 3h88l419 -649v633q0 10 -10 10h-44q-3 0 -3 3t3 3h115q4 0 4 -3t-4 -3h-45q-10 0 -10 -10v-684h-6l-445 691v-669q0 -10 10 -10h44q3 0 3 -3t-3 -3h-115q-4 0 -4 3t4 3h45q10 0 10 10v672h-56zM452 874q0 -32 -17 -53.5t-50 -21.5q-18 0 -33 9
t-29.5 19.5t-29 19.5t-30.5 9q-24 0 -38 -19.5t-14 -49.5q0 -2 -2 -2t-2 2q0 37 20 57.5t53 20.5q17 0 30.5 -8.5t27 -18t27.5 -18t31 -8.5q26 0 39 16.5t13 45.5q0 3 2 3t2 -3z" />
    <glyph glyph-name="Ograve" unicode="&#xd2;" horiz-adv-x="678" 
d="M338 -16q-60 0 -112.5 22.5t-91.5 68.5t-61.5 115.5t-22.5 163.5q0 89 23.5 154.5t62.5 109.5t90.5 66t107.5 24h10q55 -2 106.5 -24t91 -66t63 -109.5t23.5 -154.5q0 -94 -22.5 -163.5t-61.5 -115.5t-91.5 -68.5t-112.5 -22.5h-2zM340 -11q54 0 101 20t81.5 63.5
t54.5 113t20 168.5q0 92 -19.5 157.5t-54 107.5t-80.5 61.5t-98 21.5h-10q-53 -1 -99.5 -21t-81 -61.5t-54 -107t-19.5 -158.5q0 -99 20 -168.5t54.5 -113t81.5 -63.5t101 -20h2zM369 773h-2l-52 50q-5 5 -4.5 12.5t9.5 7.5t13.5 -5t7.5 -11z" />
    <glyph glyph-name="Oacute" unicode="&#xd3;" horiz-adv-x="678" 
d="M338 -16q-60 0 -112.5 22.5t-91.5 68.5t-61.5 115.5t-22.5 163.5q0 89 23.5 154.5t62.5 109.5t90.5 66t107.5 24h10q55 -2 106.5 -24t91 -66t63 -109.5t23.5 -154.5q0 -94 -22.5 -163.5t-61.5 -115.5t-91.5 -68.5t-112.5 -22.5h-2zM340 -11q54 0 101 20t81.5 63.5
t54.5 113t20 168.5q0 92 -19.5 157.5t-54 107.5t-80.5 61.5t-98 21.5h-10q-53 -1 -99.5 -21t-81 -61.5t-54 -107t-19.5 -158.5q0 -99 20 -168.5t54.5 -113t81.5 -63.5t101 -20h2zM366 824q3 6 7.5 11t13.5 5t9.5 -7.5t-4.5 -12.5l-52 -50h-2z" />
    <glyph glyph-name="Ocircumflex" unicode="&#xd4;" horiz-adv-x="678" 
d="M338 -16q-60 0 -112.5 22.5t-91.5 68.5t-61.5 115.5t-22.5 163.5q0 89 23.5 154.5t62.5 109.5t90.5 66t107.5 24h10q55 -2 106.5 -24t91 -66t63 -109.5t23.5 -154.5q0 -94 -22.5 -163.5t-61.5 -115.5t-91.5 -68.5t-112.5 -22.5h-2zM340 -11q54 0 101 20t81.5 63.5
t54.5 113t20 168.5q0 92 -19.5 157.5t-54 107.5t-80.5 61.5t-98 21.5h-10q-53 -1 -99.5 -21t-81 -61.5t-54 -107t-19.5 -158.5q0 -99 20 -168.5t54.5 -113t81.5 -63.5t101 -20h2zM340 840l-120 -100q-4 -2 -4.5 -0.5t1.5 3.5q21 21 38 37.5t31 31t27 27.5t26 27q1 1 3 0
q13 -14 26 -27t27 -27.5t31 -31t38 -37.5q2 -2 0.5 -3.5t-3.5 0.5z" />
    <glyph glyph-name="Otilde" unicode="&#xd5;" horiz-adv-x="678" 
d="M338 -16q-60 0 -112.5 22.5t-91.5 68.5t-61.5 115.5t-22.5 163.5q0 89 23.5 154.5t62.5 109.5t90.5 66t107.5 24h10q55 -2 106.5 -24t91 -66t63 -109.5t23.5 -154.5q0 -94 -22.5 -163.5t-61.5 -115.5t-91.5 -68.5t-112.5 -22.5h-2zM340 -11q54 0 101 20t81.5 63.5
t54.5 113t20 168.5q0 92 -19.5 157.5t-54 107.5t-80.5 61.5t-98 21.5h-10q-53 -1 -99.5 -21t-81 -61.5t-54 -107t-19.5 -158.5q0 -99 20 -168.5t54.5 -113t81.5 -63.5t101 -20h2zM477 847q0 -32 -17 -53.5t-50 -21.5q-18 0 -33 9t-29.5 19.5t-29 19.5t-30.5 9
q-24 0 -38 -19.5t-14 -49.5q0 -2 -2 -2t-2 2q0 37 20 57.5t53 20.5q17 0 30.5 -8.5t27 -18t27.5 -18t31 -8.5q26 0 39 16.5t13 45.5q0 3 2 3t2 -3z" />
    <glyph glyph-name="Odieresis" unicode="&#xd6;" horiz-adv-x="678" 
d="M338 -16q-60 0 -112.5 22.5t-91.5 68.5t-61.5 115.5t-22.5 163.5q0 89 23.5 154.5t62.5 109.5t90.5 66t107.5 24h10q55 -2 106.5 -24t91 -66t63 -109.5t23.5 -154.5q0 -94 -22.5 -163.5t-61.5 -115.5t-91.5 -68.5t-112.5 -22.5h-2zM340 -11q54 0 101 20t81.5 63.5
t54.5 113t20 168.5q0 92 -19.5 157.5t-54 107.5t-80.5 61.5t-98 21.5h-10q-53 -1 -99.5 -21t-81 -61.5t-54 -107t-19.5 -158.5q0 -99 20 -168.5t54.5 -113t81.5 -63.5t101 -20h2zM420 805q-8 0 -13 5t-5 13t5 13t13 5t13 -5t5 -13t-5 -13t-13 -5zM258 805q-8 0 -13 5t-5 13
t5 13t13 5t13 -5t5 -13t-5 -13t-13 -5z" />
    <glyph glyph-name="multiply" unicode="&#xd7;" horiz-adv-x="575" 
d="M104 490q-8 8 -0.5 15.5t15.5 -0.5l95 -107l74 -74l73 73l95 107q8 8 15.5 0.5t-0.5 -15.5l-107 -95l-73 -73l73 -73l107 -95q4 -4 3.5 -8.5t-3.5 -7t-7 -3t-8 3.5l-95 107l-73 73l-74 -74l-95 -107q-4 -4 -8.5 -3.5t-7 3.5t-3 7t3.5 8l107 95l74 74l-74 74z" />
    <glyph glyph-name="Oslash" unicode="&#xd8;" horiz-adv-x="678" 
d="M338 -16q-64 0 -116 24l-9 -34q-3 -12 -10 -10t-2 13l16 34q-74 36 -120.5 121t-46.5 222q0 89 23.5 154.5t62.5 109.5t90.5 66t107.5 24h10q59 -3 109 -25l12 43q2 8 8.5 6t2.5 -10l-19 -41q37 -18 68 -46.5t54 -69t36 -93.5t13 -118q0 -94 -22.5 -163.5t-61.5 -115.5
t-91.5 -68.5t-112.5 -22.5h-2zM340 -11q54 0 101 20t81.5 63.5t54.5 113t20 168.5q0 132 -39.5 210t-102.5 111l-231 -660q49 -24 114 -26h2zM81 354q0 -140 38 -221t101 -116l231 660q-47 23 -106 25h-10q-53 -1 -99.5 -21t-81 -61.5t-54 -107t-19.5 -158.5z" />
    <glyph glyph-name="Ugrave" unicode="&#xd9;" horiz-adv-x="654" 
d="M564 244q0 -71 -16.5 -120t-46 -79.5t-71 -44t-90.5 -13.5t-92.5 13.5t-76 44t-51.5 80.5t-19 124v429q0 10 -10 10h-35q-4 0 -4.5 2.5t3.5 3.5h114q3 0 3 -3t-3 -3h-31q-10 0 -10 -10v-438q0 -78 17.5 -126.5t47 -75.5t67.5 -36.5t80 -9.5q46 0 86.5 12.5t69.5 42t46 78
t17 119.5v434q0 10 -10 10h-39q-4 0 -4.5 3t4.5 3h102q3 0 3 -3t-3 -3h-38q-10 0 -10 -10v-434zM367 771h-2l-52 50q-5 5 -4.5 12.5t9.5 7.5t13.5 -5t7.5 -11z" />
    <glyph glyph-name="Uacute" unicode="&#xda;" horiz-adv-x="654" 
d="M564 244q0 -71 -16.5 -120t-46 -79.5t-71 -44t-90.5 -13.5t-92.5 13.5t-76 44t-51.5 80.5t-19 124v429q0 10 -10 10h-35q-4 0 -4.5 2.5t3.5 3.5h114q3 0 3 -3t-3 -3h-31q-10 0 -10 -10v-438q0 -78 17.5 -126.5t47 -75.5t67.5 -36.5t80 -9.5q46 0 86.5 12.5t69.5 42t46 78
t17 119.5v434q0 10 -10 10h-39q-4 0 -4.5 3t4.5 3h102q3 0 3 -3t-3 -3h-38q-10 0 -10 -10v-434zM359 824q3 6 7.5 11t13.5 5t9.5 -7.5t-4.5 -12.5l-52 -50h-2z" />
    <glyph glyph-name="Ucircumflex" unicode="&#xdb;" horiz-adv-x="654" 
d="M564 244q0 -71 -16.5 -120t-46 -79.5t-71 -44t-90.5 -13.5t-92.5 13.5t-76 44t-51.5 80.5t-19 124v429q0 10 -10 10h-35q-4 0 -4.5 2.5t3.5 3.5h114q3 0 3 -3t-3 -3h-31q-10 0 -10 -10v-438q0 -78 17.5 -126.5t47 -75.5t67.5 -36.5t80 -9.5q46 0 86.5 12.5t69.5 42t46 78
t17 119.5v434q0 10 -10 10h-39q-4 0 -4.5 3t4.5 3h102q3 0 3 -3t-3 -3h-38q-10 0 -10 -10v-434zM346 878l-120 -100q-4 -2 -4.5 -0.5t1.5 3.5q21 21 38 37.5t31 31t27 27.5t26 27q1 1 3 0q13 -14 26 -27t27 -27.5t31 -31t38 -37.5q2 -2 0.5 -3.5t-3.5 0.5z" />
    <glyph glyph-name="Udieresis" unicode="&#xdc;" horiz-adv-x="654" 
d="M564 244q0 -71 -16.5 -120t-46 -79.5t-71 -44t-90.5 -13.5t-92.5 13.5t-76 44t-51.5 80.5t-19 124v429q0 10 -10 10h-35q-4 0 -4.5 2.5t3.5 3.5h114q3 0 3 -3t-3 -3h-31q-10 0 -10 -10v-438q0 -78 17.5 -126.5t47 -75.5t67.5 -36.5t80 -9.5q46 0 86.5 12.5t69.5 42t46 78
t17 119.5v434q0 10 -10 10h-39q-4 0 -4.5 3t4.5 3h102q3 0 3 -3t-3 -3h-38q-10 0 -10 -10v-434zM424 805q-8 0 -13 5t-5 13t5 13t13 5t13 -5t5 -13t-5 -13t-13 -5zM262 805q-8 0 -13 5t-5 13t5 13t13 5t13 -5t5 -13t-5 -13t-13 -5z" />
    <glyph glyph-name="Yacute" unicode="&#xdd;" horiz-adv-x="539" 
d="M285 317l-212 371h-53q-4 0 -4 3t4 3h129q3 0 3 -3t-3 -3h-47l207 -356l203 356h-58q-4 0 -4.5 3t4.5 3h128q3 0 3 -3t-3 -3h-63l-208 -364v-308q0 -10 10 -10h44q4 0 4 -3t-4 -3h-135q-3 0 -3 3t3 3h45q10 0 10 10v301zM327 826q3 6 7.5 11t13.5 5t9.5 -7.5t-4.5 -12.5
l-52 -50h-2z" />
    <glyph glyph-name="Thorn" unicode="&#xde;" horiz-adv-x="525" 
d="M50 0q-4 0 -4.5 3t4.5 3h44q10 0 10 10v662q0 10 -10 10h-44q-5 0 -5 3t5 3h137q3 0 3 -3t-3 -3h-46q-10 0 -10 -10v-70h145q40 0 80.5 -10.5t73.5 -33t53.5 -58t20.5 -84.5q0 -50 -19.5 -86.5t-51.5 -61.5t-73 -37t-83 -12h-146v-209q0 -10 10 -10h46q3 0 3 -3t-3 -3
h-137zM475 422q0 51 -17 85.5t-44.5 55.5t-63.5 30t-74 9h-145v-371h146q41 0 77 11t63 34t42.5 59t15.5 87z" />
    <glyph glyph-name="germandbls" unicode="&#xdf;" horiz-adv-x="553" 
d="M168 118q1 10 6 13.5t10.5 2t9 -6t0.5 -11.5q-6 -23 0.5 -45t24 -39.5t44 -28.5t60.5 -11q35 0 65 14t52.5 41.5t35 68t12.5 92.5v11q0 88 -37 142t-119 62q-14 -6 -29 -10t-32 -6q-16 0 -16 11t18 11h33q6 0 12 -0.5t12 -0.5q35 18 51.5 54t16.5 75q0 79 -37 121.5
t-108 42.5q-35 0 -63 -13.5t-47.5 -37.5t-30 -56.5t-10.5 -70.5v-532q0 -7 7 -7h41q2 0 2 -2t-2 -2h-118q-2 0 -2 2t2 2h41q7 0 7 7v532q0 43 14 77t37.5 57.5t55 36t66.5 12.5q37 0 68 -12t53 -34t34 -52.5t12 -67.5q0 -38 -20.5 -75t-60.5 -58q85 -10 129.5 -66.5
t44.5 -141.5v-11q0 -50 -14.5 -90.5t-39.5 -69.5t-59.5 -44.5t-74.5 -15.5q-30 0 -59 9t-51.5 26t-35.5 41t-11 54z" />
    <glyph glyph-name="agrave" unicode="&#xe0;" horiz-adv-x="460" 
d="M382 37q0 -16 9 -25.5t23 -9.5q11 0 21 9t10 28q0 3 2.5 3t2.5 -3q0 -22 -13 -32t-30 -10q-21 0 -34 14.5t-13 43.5v226q-7 -49 -24 -100t-44 -92t-63.5 -67.5t-81.5 -26.5q-26 0 -47 8.5t-35.5 23t-22 33.5t-7.5 40q0 41 20 64.5t52 38t72 23.5t81 22q34 10 54 21.5
t30.5 25.5t13.5 30t3 35q0 15 -6 32.5t-20.5 33.5t-38 26.5t-59.5 10.5t-63.5 -12.5t-44 -31.5t-21.5 -43t3 -46q3 -7 -1 -11.5t-9.5 -6t-11 2t-6.5 13.5q-2 28 9.5 53.5t33 44.5t50.5 30t61 11q37 0 64 -9.5t45 -25.5t27 -36.5t9 -42.5v-316zM152 2q48 0 85.5 31.5
t63.5 78.5t40.5 101.5t18.5 101.5q-7 -22 -28 -38.5t-67 -31.5q-30 -10 -66 -18.5t-66.5 -23t-51 -37.5t-20.5 -63v-9q0 -37 24.5 -64.5t66.5 -27.5zM260 542h-2l-52 50q-5 5 -4.5 12.5t9.5 7.5t13.5 -5t7.5 -11z" />
    <glyph glyph-name="aacute" unicode="&#xe1;" horiz-adv-x="460" 
d="M382 37q0 -16 9 -25.5t23 -9.5q11 0 21 9t10 28q0 3 2.5 3t2.5 -3q0 -22 -13 -32t-30 -10q-21 0 -34 14.5t-13 43.5v226q-7 -49 -24 -100t-44 -92t-63.5 -67.5t-81.5 -26.5q-26 0 -47 8.5t-35.5 23t-22 33.5t-7.5 40q0 41 20 64.5t52 38t72 23.5t81 22q34 10 54 21.5
t30.5 25.5t13.5 30t3 35q0 15 -6 32.5t-20.5 33.5t-38 26.5t-59.5 10.5t-63.5 -12.5t-44 -31.5t-21.5 -43t3 -46q3 -7 -1 -11.5t-9.5 -6t-11 2t-6.5 13.5q-2 28 9.5 53.5t33 44.5t50.5 30t61 11q37 0 64 -9.5t45 -25.5t27 -36.5t9 -42.5v-316zM152 2q48 0 85.5 31.5
t63.5 78.5t40.5 101.5t18.5 101.5q-7 -22 -28 -38.5t-67 -31.5q-30 -10 -66 -18.5t-66.5 -23t-51 -37.5t-20.5 -63v-9q0 -37 24.5 -64.5t66.5 -27.5zM255 595q3 6 7.5 11t13.5 5t9.5 -7.5t-4.5 -12.5l-52 -50h-2z" />
    <glyph glyph-name="acircumflex" unicode="&#xe2;" horiz-adv-x="460" 
d="M382 37q0 -16 9 -25.5t23 -9.5q11 0 21 9t10 28q0 3 2.5 3t2.5 -3q0 -22 -13 -32t-30 -10q-21 0 -34 14.5t-13 43.5v226q-7 -49 -24 -100t-44 -92t-63.5 -67.5t-81.5 -26.5q-26 0 -47 8.5t-35.5 23t-22 33.5t-7.5 40q0 41 20 64.5t52 38t72 23.5t81 22q34 10 54 21.5
t30.5 25.5t13.5 30t3 35q0 15 -6 32.5t-20.5 33.5t-38 26.5t-59.5 10.5t-63.5 -12.5t-44 -31.5t-21.5 -43t3 -46q3 -7 -1 -11.5t-9.5 -6t-11 2t-6.5 13.5q-2 28 9.5 53.5t33 44.5t50.5 30t61 11q37 0 64 -9.5t45 -25.5t27 -36.5t9 -42.5v-316zM152 2q48 0 85.5 31.5
t63.5 78.5t40.5 101.5t18.5 101.5q-7 -22 -28 -38.5t-67 -31.5q-30 -10 -66 -18.5t-66.5 -23t-51 -37.5t-20.5 -63v-9q0 -37 24.5 -64.5t66.5 -27.5zM233 620l-120 -100q-4 -2 -4.5 -0.5t1.5 3.5q21 21 38 37.5t31 31t27 27.5t26 27q1 1 3 0q13 -14 26 -27t27 -27.5t31 -31
t38 -37.5q2 -2 0.5 -3.5t-3.5 0.5z" />
    <glyph glyph-name="atilde" unicode="&#xe3;" horiz-adv-x="460" 
d="M382 37q0 -16 9 -25.5t23 -9.5q11 0 21 9t10 28q0 3 2.5 3t2.5 -3q0 -22 -13 -32t-30 -10q-21 0 -34 14.5t-13 43.5v226q-7 -49 -24 -100t-44 -92t-63.5 -67.5t-81.5 -26.5q-26 0 -47 8.5t-35.5 23t-22 33.5t-7.5 40q0 41 20 64.5t52 38t72 23.5t81 22q34 10 54 21.5
t30.5 25.5t13.5 30t3 35q0 15 -6 32.5t-20.5 33.5t-38 26.5t-59.5 10.5t-63.5 -12.5t-44 -31.5t-21.5 -43t3 -46q3 -7 -1 -11.5t-9.5 -6t-11 2t-6.5 13.5q-2 28 9.5 53.5t33 44.5t50.5 30t61 11q37 0 64 -9.5t45 -25.5t27 -36.5t9 -42.5v-316zM152 2q48 0 85.5 31.5
t63.5 78.5t40.5 101.5t18.5 101.5q-7 -22 -28 -38.5t-67 -31.5q-30 -10 -66 -18.5t-66.5 -23t-51 -37.5t-20.5 -63v-9q0 -37 24.5 -64.5t66.5 -27.5zM359 615q0 -32 -17 -53.5t-50 -21.5q-18 0 -33 9t-29.5 19.5t-29 19.5t-30.5 9q-24 0 -38 -19.5t-14 -49.5q0 -2 -2 -2
t-2 2q0 37 20 57.5t53 20.5q17 0 30.5 -8.5t27 -18t27.5 -18t31 -8.5q26 0 39 16.5t13 45.5q0 3 2 3t2 -3z" />
    <glyph glyph-name="adieresis" unicode="&#xe4;" horiz-adv-x="460" 
d="M382 37q0 -16 9 -25.5t23 -9.5q11 0 21 9t10 28q0 3 2.5 3t2.5 -3q0 -22 -13 -32t-30 -10q-21 0 -34 14.5t-13 43.5v226q-7 -49 -24 -100t-44 -92t-63.5 -67.5t-81.5 -26.5q-26 0 -47 8.5t-35.5 23t-22 33.5t-7.5 40q0 41 20 64.5t52 38t72 23.5t81 22q34 10 54 21.5
t30.5 25.5t13.5 30t3 35q0 15 -6 32.5t-20.5 33.5t-38 26.5t-59.5 10.5t-63.5 -12.5t-44 -31.5t-21.5 -43t3 -46q3 -7 -1 -11.5t-9.5 -6t-11 2t-6.5 13.5q-2 28 9.5 53.5t33 44.5t50.5 30t61 11q37 0 64 -9.5t45 -25.5t27 -36.5t9 -42.5v-316zM152 2q48 0 85.5 31.5
t63.5 78.5t40.5 101.5t18.5 101.5q-7 -22 -28 -38.5t-67 -31.5q-30 -10 -66 -18.5t-66.5 -23t-51 -37.5t-20.5 -63v-9q0 -37 24.5 -64.5t66.5 -27.5zM325 568q-8 0 -13 5t-5 13t5 13t13 5t13 -5t5 -13t-5 -13t-13 -5zM163 568q-8 0 -13 5t-5 13t5 13t13 5t13 -5t5 -13
t-5 -13t-13 -5z" />
    <glyph glyph-name="aring" unicode="&#xe5;" horiz-adv-x="460" 
d="M382 37q0 -16 9 -25.5t23 -9.5q11 0 21 9t10 28q0 3 2.5 3t2.5 -3q0 -22 -13 -32t-30 -10q-21 0 -34 14.5t-13 43.5v226q-7 -49 -24 -100t-44 -92t-63.5 -67.5t-81.5 -26.5q-26 0 -47 8.5t-35.5 23t-22 33.5t-7.5 40q0 41 20 64.5t52 38t72 23.5t81 22q34 10 54 21.5
t30.5 25.5t13.5 30t3 35q0 15 -6 32.5t-20.5 33.5t-38 26.5t-59.5 10.5t-63.5 -12.5t-44 -31.5t-21.5 -43t3 -46q3 -7 -1 -11.5t-9.5 -6t-11 2t-6.5 13.5q-2 28 9.5 53.5t33 44.5t50.5 30t61 11q37 0 64 -9.5t45 -25.5t27 -36.5t9 -42.5v-316zM152 2q48 0 85.5 31.5
t63.5 78.5t40.5 101.5t18.5 101.5q-7 -22 -28 -38.5t-67 -31.5q-30 -10 -66 -18.5t-66.5 -23t-51 -37.5t-20.5 -63v-9q0 -37 24.5 -64.5t66.5 -27.5zM164 597q0 28 19 47t47 19t47 -19t19 -47t-19 -47t-47 -19t-47 19t-19 47zM169 597q0 -25 18 -43t43 -18t43 18t18 43
t-18 43t-43 18t-43 -18t-18 -43z" />
    <glyph glyph-name="ae" unicode="&#xe6;" horiz-adv-x="764" 
d="M550 -1q38 0 68.5 13.5t50 34t27 45t0.5 46.5q-3 7 1 11.5t9.5 6t10.5 -2t6 -13.5q2 -27 -12 -53.5t-38.5 -46.5t-56.5 -32.5t-65 -12.5q-53 0 -90.5 19t-61 53t-33.5 80t-8 99v35q-7 -49 -24 -100t-44 -92t-63.5 -67.5t-81.5 -26.5q-26 0 -47 8.5t-35.5 23t-22 33.5
t-7.5 40q0 41 20 64.5t52 38t72 23.5t81 22q34 10 54 21.5t30.5 25.5t13.5 30t3 35q0 15 -6 32.5t-20.5 33.5t-38 26.5t-59.5 10.5t-63.5 -12.5t-44 -31.5t-21.5 -43t3 -46q3 -7 -1 -11.5t-9.5 -6t-11 2t-6.5 13.5q-2 28 9.5 53.5t33 44.5t50.5 30t61 11q37 0 64 -9.5
t45 -25.5t27 -36.5t9 -42.5v-9q14 31 35.5 54.5t46 38.5t51.5 22.5t53 7.5q74 0 114.5 -30.5t40.5 -83.5q0 -18 -8 -35.5t-22.5 -32.5t-34 -26.5t-43.5 -17.5q-39 -9 -81 -20.5t-74 -28t-48.5 -40.5t-4.5 -58q10 -22 22 -39.5t29 -30t39.5 -19t54.5 -6.5zM379 215
q1 -51 18 -99q0 32 20 52.5t51.5 35t69.5 24t73 18.5q37 10 62.5 37t25.5 71q0 23 -6.5 43t-22 34.5t-41 23t-63.5 8.5q-33 0 -65.5 -12t-58.5 -38.5t-43 -67.5t-19 -99v-31h-1zM150 2q48 0 85.5 31.5t63.5 78.5t40.5 101.5t18.5 101.5q-7 -22 -28 -38.5t-67 -31.5
q-30 -10 -66 -18.5t-66.5 -23t-51 -37.5t-20.5 -63v-9q0 -37 24.5 -64.5t66.5 -27.5z" />
    <glyph glyph-name="ccedilla" unicode="&#xe7;" 
d="M251 463q-37 0 -70 -13.5t-57.5 -41.5t-38.5 -70.5t-14 -100.5v-11q0 -50 8.5 -91.5t29 -71.5t54.5 -47t85 -17q38 0 67 13.5t46.5 34t23.5 45t-1 46.5q-3 7 1 11.5t9.5 6t10.5 -2t6 -13.5q2 -27 -10.5 -53t-35 -46.5t-53 -33t-63.5 -12.5h-8q1 -14 11 -25t22 -21.5
t21.5 -23t9.5 -30.5q0 -32 -24 -50t-52 -17q-14 0 -27.5 7.5t-22.5 23.5q-1 2 0 3t2 -1q8 -16 21 -23t27 -7q21 0 39 15t18 46q0 14 -7.5 26.5t-16.5 24.5t-16.5 24.5t-7.5 27.5q-50 2 -86.5 20.5t-60 49t-35 72t-11.5 89.5v11q0 57 18.5 100t47.5 72t66 43.5t74 14.5h7
q34 0 62 -9.5t48.5 -26t30.5 -39.5t8 -50q-1 -10 -6 -13.5t-10.5 -2t-9.5 6t-1 11.5q7 22 3 43t-19 38t-41.5 27.5t-64.5 10.5h-7z" />
    <glyph glyph-name="egrave" unicode="&#xe8;" 
d="M238 -5q-53 0 -90.5 19.5t-60.5 53t-33 79.5t-8 99q2 57 22 98.5t50 69t66 40.5t70 13q74 0 114.5 -30.5t40.5 -83.5q0 -18 -8 -35.5t-22.5 -32.5t-34 -26.5t-43.5 -17.5q-39 -9 -81 -20.5t-74 -28t-48.5 -40.5t-4.5 -58q10 -22 22 -39.5t29 -30t39.5 -19t54.5 -6.5
q38 0 68.5 13.5t50 34t27 45t0.5 46.5q-3 7 1 11.5t9.5 6t10.5 -2t6 -13.5q2 -27 -12 -53.5t-38.5 -46.5t-56.5 -32.5t-66 -12.5zM387 354q0 23 -6.5 43t-22 34.5t-41 23t-63.5 8.5q-33 0 -65.5 -12t-58.5 -38.5t-43 -67.5t-19 -99q-2 -32 2 -65.5t15 -64.5q0 32 20 52.5
t51.5 35t69.5 24t73 18.5q37 10 62.5 37t25.5 71zM272 542h-2l-52 50q-5 5 -4.5 12.5t9.5 7.5t13.5 -5t7.5 -11z" />
    <glyph glyph-name="eacute" unicode="&#xe9;" 
d="M238 -5q-53 0 -90.5 19.5t-60.5 53t-33 79.5t-8 99q2 57 22 98.5t50 69t66 40.5t70 13q74 0 114.5 -30.5t40.5 -83.5q0 -18 -8 -35.5t-22.5 -32.5t-34 -26.5t-43.5 -17.5q-39 -9 -81 -20.5t-74 -28t-48.5 -40.5t-4.5 -58q10 -22 22 -39.5t29 -30t39.5 -19t54.5 -6.5
q38 0 68.5 13.5t50 34t27 45t0.5 46.5q-3 7 1 11.5t9.5 6t10.5 -2t6 -13.5q2 -27 -12 -53.5t-38.5 -46.5t-56.5 -32.5t-66 -12.5zM387 354q0 23 -6.5 43t-22 34.5t-41 23t-63.5 8.5q-33 0 -65.5 -12t-58.5 -38.5t-43 -67.5t-19 -99q-2 -32 2 -65.5t15 -64.5q0 32 20 52.5
t51.5 35t69.5 24t73 18.5q37 10 62.5 37t25.5 71zM273 595q3 6 7.5 11t13.5 5t9.5 -7.5t-4.5 -12.5l-52 -50h-2z" />
    <glyph glyph-name="ecircumflex" unicode="&#xea;" 
d="M238 -5q-53 0 -90.5 19.5t-60.5 53t-33 79.5t-8 99q2 57 22 98.5t50 69t66 40.5t70 13q74 0 114.5 -30.5t40.5 -83.5q0 -18 -8 -35.5t-22.5 -32.5t-34 -26.5t-43.5 -17.5q-39 -9 -81 -20.5t-74 -28t-48.5 -40.5t-4.5 -58q10 -22 22 -39.5t29 -30t39.5 -19t54.5 -6.5
q38 0 68.5 13.5t50 34t27 45t0.5 46.5q-3 7 1 11.5t9.5 6t10.5 -2t6 -13.5q2 -27 -12 -53.5t-38.5 -46.5t-56.5 -32.5t-66 -12.5zM387 354q0 23 -6.5 43t-22 34.5t-41 23t-63.5 8.5q-33 0 -65.5 -12t-58.5 -38.5t-43 -67.5t-19 -99q-2 -32 2 -65.5t15 -64.5q0 32 20 52.5
t51.5 35t69.5 24t73 18.5q37 10 62.5 37t25.5 71zM247 619l-120 -100q-4 -2 -4.5 -0.5t1.5 3.5q21 21 38 37.5t31 31t27 27.5t26 27q1 1 3 0q13 -14 26 -27t27 -27.5t31 -31t38 -37.5q2 -2 0.5 -3.5t-3.5 0.5z" />
    <glyph glyph-name="edieresis" unicode="&#xeb;" 
d="M238 -5q-53 0 -90.5 19.5t-60.5 53t-33 79.5t-8 99q2 57 22 98.5t50 69t66 40.5t70 13q74 0 114.5 -30.5t40.5 -83.5q0 -18 -8 -35.5t-22.5 -32.5t-34 -26.5t-43.5 -17.5q-39 -9 -81 -20.5t-74 -28t-48.5 -40.5t-4.5 -58q10 -22 22 -39.5t29 -30t39.5 -19t54.5 -6.5
q38 0 68.5 13.5t50 34t27 45t0.5 46.5q-3 7 1 11.5t9.5 6t10.5 -2t6 -13.5q2 -27 -12 -53.5t-38.5 -46.5t-56.5 -32.5t-66 -12.5zM387 354q0 23 -6.5 43t-22 34.5t-41 23t-63.5 8.5q-33 0 -65.5 -12t-58.5 -38.5t-43 -67.5t-19 -99q-2 -32 2 -65.5t15 -64.5q0 32 20 52.5
t51.5 35t69.5 24t73 18.5q37 10 62.5 37t25.5 71zM321 568q-8 0 -13 5t-5 13t5 13t13 5t13 -5t5 -13t-5 -13t-13 -5zM159 568q-8 0 -13 5t-5 13t5 13t13 5t13 -5t5 -13t-5 -13t-13 -5z" />
    <glyph glyph-name="igrave" unicode="&#xec;" horiz-adv-x="174" 
d="M22 453q0 2 2 2h87q2 0 2 -2t-2 -2h-15v-414q0 -16 9 -25.5t23 -9.5q11 0 21 9t10 28q0 3 2.5 3t2.5 -3q0 -22 -13 -32t-30 -10q-21 0 -34 14.5t-13 43.5v370q0 23 -20 26h-30q-2 0 -2 2zM112 540h-2l-52 50q-5 5 -4.5 12.5t9.5 7.5t13.5 -5t7.5 -11z" />
    <glyph glyph-name="iacute" unicode="&#xed;" horiz-adv-x="174" 
d="M22 453q0 2 2 2h87q2 0 2 -2t-2 -2h-15v-414q0 -16 9 -25.5t23 -9.5q11 0 21 9t10 28q0 3 2.5 3t2.5 -3q0 -22 -13 -32t-30 -10q-21 0 -34 14.5t-13 43.5v370q0 23 -20 26h-30q-2 0 -2 2zM88 593q3 6 7.5 11t13.5 5t9.5 -7.5t-4.5 -12.5l-52 -50h-2z" />
    <glyph glyph-name="icircumflex" unicode="&#xee;" horiz-adv-x="174" 
d="M22 453q0 2 2 2h87q2 0 2 -2t-2 -2h-15v-414q0 -16 9 -25.5t23 -9.5q11 0 21 9t10 28q0 3 2.5 3t2.5 -3q0 -22 -13 -32t-30 -10q-21 0 -34 14.5t-13 43.5v370q0 23 -20 26h-30q-2 0 -2 2zM82 641l-120 -100q-4 -2 -4.5 -0.5t1.5 3.5q21 21 38 37.5t31 31t27 27.5t26 27
q1 1 3 0q13 -14 26 -27t27 -27.5t31 -31t38 -37.5q2 -2 0.5 -3.5t-3.5 0.5z" />
    <glyph glyph-name="idieresis" unicode="&#xef;" horiz-adv-x="174" 
d="M22 453q0 2 2 2h87q2 0 2 -2t-2 -2h-15v-414q0 -16 9 -25.5t23 -9.5q11 0 21 9t10 28q0 3 2.5 3t2.5 -3q0 -22 -13 -32t-30 -10q-21 0 -34 14.5t-13 43.5v370q0 23 -20 26h-30q-2 0 -2 2zM164 629q-8 0 -13 5t-5 13t5 13t13 5t13 -5t5 -13t-5 -13t-13 -5zM2 629
q-8 0 -13 5t-5 13t5 13t13 5t13 -5t5 -13t-5 -13t-13 -5z" />
    <glyph glyph-name="eth" unicode="&#xf0;" horiz-adv-x="496" 
d="M451 222q0 -51 -14.5 -92.5t-41 -71.5t-63.5 -46.5t-83 -16.5t-83.5 16.5t-64.5 46.5t-41.5 71.5t-14.5 92.5v12q0 51 14 93.5t41 73.5t65.5 48.5t87.5 17.5q60 0 104 -29t68 -79q-5 34 -19 66.5t-35.5 60.5t-48.5 50t-58 37l-49 -48q-3 -3 -4.5 -1t0.5 4l48 47
q-47 22 -94 22h-5q-5 0 -5 2.5t5 2.5h5q51 0 100 -20l47 46q3 3 4.5 1t-0.5 -4l-46 -45q38 -16 71 -43.5t57.5 -65t38.5 -84t14 -100.5v-65zM69 219q0 -102 47 -160.5t132 -58.5h2q85 0 131 58.5t46 160.5v18q0 51 -11.5 92.5t-33 71t-54 45.5t-74.5 16h-2q-45 0 -79 -16
t-57 -45.5t-35 -71t-12 -92.5v-18z" />
    <glyph glyph-name="ntilde" unicode="&#xf1;" horiz-adv-x="490" 
d="M26 2q0 2 2 2h39q10 0 10 10v411q0 26 -23 26h-27q-2 0 -2 2t2 2h87q2 0 2 -2t-2 -2h-15v-145q9 32 26 61t39.5 51t51 35t61.5 13q34 0 59.5 -9.5t42 -25.5t25 -36t8.5 -42v-316q0 -16 9 -25.5t23 -9.5q11 0 21 9t10 28q0 3 2.5 3t2.5 -3q0 -22 -13 -32t-30 -10
q-21 0 -34 14.5t-13 43.5v292q0 22 -8.5 44t-25 38.5t-41 25t-57.5 5.5q-29 -3 -54 -17.5t-46 -37.5t-36 -52t-23 -61v-278q0 -10 10 -10h37q2 0 2 -2t-2 -2h-118q-2 0 -2 2zM371 637q0 -32 -17 -53.5t-50 -21.5q-18 0 -33 9t-29.5 19.5t-29 19.5t-30.5 9q-24 0 -38 -19.5
t-14 -49.5q0 -2 -2 -2t-2 2q0 37 20 57.5t53 20.5q17 0 30.5 -8.5t27 -18t27.5 -18t31 -8.5q26 0 39 16.5t13 45.5q0 3 2 3t2 -3z" />
    <glyph glyph-name="ograve" unicode="&#xf2;" horiz-adv-x="497" 
d="M249 467q40 0 77 -14t65 -41.5t44.5 -70t16.5 -99.5v-11q0 -49 -13 -91.5t-38.5 -74.5t-64 -50.5t-88.5 -18.5t-88 18.5t-63.5 50.5t-38.5 74.5t-13 91.5v11q0 30 10 64t30 58q4 23 19.5 42t38 32.5t50 21t56.5 7.5zM249 463q-36 0 -65 -10.5t-47.5 -27.5t-26 -38
t-0.5 -43q3 -7 -0.5 -11.5t-9 -6t-10.5 2t-6 13.5q-1 6 0 13l-2 -1l-3 -23q-10 -37 -10 -89v-11q0 -50 10 -92t32 -73t55.5 -48.5t81.5 -17.5t82 17.5t55.5 48.5t31.5 73t10 92v11q0 60 -14.5 102t-39.5 68.5t-57 38.5t-67 12zM277 540h-2l-52 50q-5 5 -4.5 12.5t9.5 7.5
t13.5 -5t7.5 -11z" />
    <glyph glyph-name="oacute" unicode="&#xf3;" horiz-adv-x="497" 
d="M249 467q40 0 77 -14t65 -41.5t44.5 -70t16.5 -99.5v-11q0 -49 -13 -91.5t-38.5 -74.5t-64 -50.5t-88.5 -18.5t-88 18.5t-63.5 50.5t-38.5 74.5t-13 91.5v11q0 30 10 64t30 58q4 23 19.5 42t38 32.5t50 21t56.5 7.5zM249 463q-36 0 -65 -10.5t-47.5 -27.5t-26 -38
t-0.5 -43q3 -7 -0.5 -11.5t-9 -6t-10.5 2t-6 13.5q-1 6 0 13l-2 -1l-3 -23q-10 -37 -10 -89v-11q0 -50 10 -92t32 -73t55.5 -48.5t81.5 -17.5t82 17.5t55.5 48.5t31.5 73t10 92v11q0 60 -14.5 102t-39.5 68.5t-57 38.5t-67 12zM276 595q3 6 7.5 11t13.5 5t9.5 -7.5
t-4.5 -12.5l-52 -50h-2z" />
    <glyph glyph-name="ocircumflex" unicode="&#xf4;" horiz-adv-x="497" 
d="M249 467q40 0 77 -14t65 -41.5t44.5 -70t16.5 -99.5v-11q0 -49 -13 -91.5t-38.5 -74.5t-64 -50.5t-88.5 -18.5t-88 18.5t-63.5 50.5t-38.5 74.5t-13 91.5v11q0 30 10 64t30 58q4 23 19.5 42t38 32.5t50 21t56.5 7.5zM249 463q-36 0 -65 -10.5t-47.5 -27.5t-26 -38
t-0.5 -43q3 -7 -0.5 -11.5t-9 -6t-10.5 2t-6 13.5q-1 6 0 13l-2 -1l-3 -23q-10 -37 -10 -89v-11q0 -50 10 -92t32 -73t55.5 -48.5t81.5 -17.5t82 17.5t55.5 48.5t31.5 73t10 92v11q0 60 -14.5 102t-39.5 68.5t-57 38.5t-67 12zM248 620l-120 -100q-4 -2 -4.5 -0.5t1.5 3.5
q21 21 38 37.5t31 31t27 27.5t26 27q1 1 3 0q13 -14 26 -27t27 -27.5t31 -31t38 -37.5q2 -2 0.5 -3.5t-3.5 0.5z" />
    <glyph glyph-name="otilde" unicode="&#xf5;" horiz-adv-x="497" 
d="M249 467q40 0 77 -14t65 -41.5t44.5 -70t16.5 -99.5v-11q0 -49 -13 -91.5t-38.5 -74.5t-64 -50.5t-88.5 -18.5t-88 18.5t-63.5 50.5t-38.5 74.5t-13 91.5v11q0 30 10 64t30 58q4 23 19.5 42t38 32.5t50 21t56.5 7.5zM249 463q-36 0 -65 -10.5t-47.5 -27.5t-26 -38
t-0.5 -43q3 -7 -0.5 -11.5t-9 -6t-10.5 2t-6 13.5q-1 6 0 13l-2 -1l-3 -23q-10 -37 -10 -89v-11q0 -50 10 -92t32 -73t55.5 -48.5t81.5 -17.5t82 17.5t55.5 48.5t31.5 73t10 92v11q0 60 -14.5 102t-39.5 68.5t-57 38.5t-67 12zM381 615q0 -32 -17 -53.5t-50 -21.5
q-18 0 -33 9t-29.5 19.5t-29 19.5t-30.5 9q-24 0 -38 -19.5t-14 -49.5q0 -2 -2 -2t-2 2q0 37 20 57.5t53 20.5q17 0 30.5 -8.5t27 -18t27.5 -18t31 -8.5q26 0 39 16.5t13 45.5q0 3 2 3t2 -3z" />
    <glyph glyph-name="odieresis" unicode="&#xf6;" horiz-adv-x="497" 
d="M249 467q40 0 77 -14t65 -41.5t44.5 -70t16.5 -99.5v-11q0 -49 -13 -91.5t-38.5 -74.5t-64 -50.5t-88.5 -18.5t-88 18.5t-63.5 50.5t-38.5 74.5t-13 91.5v11q0 30 10 64t30 58q4 23 19.5 42t38 32.5t50 21t56.5 7.5zM249 463q-36 0 -65 -10.5t-47.5 -27.5t-26 -38
t-0.5 -43q3 -7 -0.5 -11.5t-9 -6t-10.5 2t-6 13.5q-1 6 0 13l-2 -1l-3 -23q-10 -37 -10 -89v-11q0 -50 10 -92t32 -73t55.5 -48.5t81.5 -17.5t82 17.5t55.5 48.5t31.5 73t10 92v11q0 60 -14.5 102t-39.5 68.5t-57 38.5t-67 12zM324 568q-8 0 -13 5t-5 13t5 13t13 5t13 -5
t5 -13t-5 -13t-13 -5zM162 568q-8 0 -13 5t-5 13t5 13t13 5t13 -5t5 -13t-5 -13t-13 -5z" />
    <glyph glyph-name="divide" unicode="&#xf7;" horiz-adv-x="720" 
d="M111 310q-11 0 -11 10.5t11 10.5l143 -8h212l143 8q11 0 11 -10.5t-11 -10.5l-143 8h-212zM343 115q0 8 5 13t13 5t13 -5t5 -13t-5 -13t-13 -5t-13 5t-5 13zM342 527q0 8 5 13t13 5t13 -5t5 -13t-5 -13t-13 -5t-13 5t-5 13z" />
    <glyph glyph-name="oslash" unicode="&#xf8;" horiz-adv-x="497" 
d="M249 467q37 0 72 -12l14 52q3 9 9.5 6.5t2.5 -10.5l-22 -49q55 -21 91 -73.5t36 -138.5v-11q0 -49 -13 -91.5t-38.5 -74.5t-64 -50.5t-88.5 -18.5q-47 0 -82 16l-16 -58q-2 -7 -8.5 -5t-3.5 9l24 55q-58 26 -87.5 85t-29.5 133v11q0 30 10 64t30 58q4 23 19.5 42t38 32.5
t50 21t56.5 7.5zM427 242q0 87 -30 136.5t-75 69.5l-155 -431q17 -8 37 -12.5t44 -4.5q48 0 82 17.5t55.5 48.5t31.5 73t10 92v11zM249 463q-36 0 -65 -10.5t-47.5 -27.5t-26 -38t-0.5 -43q3 -7 -0.5 -11.5t-9 -6t-10.5 2t-6 13.5q-1 6 0 13l-2 -1l-3 -23q-10 -37 -10 -89
v-11q0 -74 22.5 -130.5t72.5 -82.5l155 431q-34 14 -70 14z" />
    <glyph glyph-name="ugrave" unicode="&#xf9;" horiz-adv-x="503" 
d="M415 455q10 0 10 -10v-408q0 -16 9 -25.5t23 -9.5q11 0 21 9t10 28q0 3 2.5 3t2.5 -3q0 -22 -13 -32t-30 -10q-21 0 -34 14.5t-13 43.5v249q-6 -57 -22.5 -112t-42 -99t-60.5 -71t-79 -27q-24 0 -47 7t-40 23.5t-27.5 45t-10.5 72.5v282q0 23 -20 26h-30q-2 0 -2 2t2 2
h102q2 0 2 -2t-2 -2h-30v-311q0 -47 9.5 -75t25 -42t34.5 -18t39 -4q48 0 85 35.5t62.5 90.5t38.5 120.5t13 125.5v72q0 10 10 10h2zM282 539h-2l-52 50q-5 5 -4.5 12.5t9.5 7.5t13.5 -5t7.5 -11z" />
    <glyph glyph-name="uacute" unicode="&#xfa;" horiz-adv-x="503" 
d="M415 455q10 0 10 -10v-408q0 -16 9 -25.5t23 -9.5q11 0 21 9t10 28q0 3 2.5 3t2.5 -3q0 -22 -13 -32t-30 -10q-21 0 -34 14.5t-13 43.5v249q-6 -57 -22.5 -112t-42 -99t-60.5 -71t-79 -27q-24 0 -47 7t-40 23.5t-27.5 45t-10.5 72.5v282q0 23 -20 26h-30q-2 0 -2 2t2 2
h102q2 0 2 -2t-2 -2h-30v-311q0 -47 9.5 -75t25 -42t34.5 -18t39 -4q48 0 85 35.5t62.5 90.5t38.5 120.5t13 125.5v72q0 10 10 10h2zM274 597q3 6 7.5 11t13.5 5t9.5 -7.5t-4.5 -12.5l-52 -50h-2z" />
    <glyph glyph-name="ucircumflex" unicode="&#xfb;" horiz-adv-x="503" 
d="M415 455q10 0 10 -10v-408q0 -16 9 -25.5t23 -9.5q11 0 21 9t10 28q0 3 2.5 3t2.5 -3q0 -22 -13 -32t-30 -10q-21 0 -34 14.5t-13 43.5v249q-6 -57 -22.5 -112t-42 -99t-60.5 -71t-79 -27q-24 0 -47 7t-40 23.5t-27.5 45t-10.5 72.5v282q0 23 -20 26h-30q-2 0 -2 2t2 2
h102q2 0 2 -2t-2 -2h-30v-311q0 -47 9.5 -75t25 -42t34.5 -18t39 -4q48 0 85 35.5t62.5 90.5t38.5 120.5t13 125.5v72q0 10 10 10h2zM249 641l-120 -100q-4 -2 -4.5 -0.5t1.5 3.5q21 21 38 37.5t31 31t27 27.5t26 27q1 1 3 0q13 -14 26 -27t27 -27.5t31 -31t38 -37.5
q2 -2 0.5 -3.5t-3.5 0.5z" />
    <glyph glyph-name="udieresis" unicode="&#xfc;" horiz-adv-x="503" 
d="M415 455q10 0 10 -10v-408q0 -16 9 -25.5t23 -9.5q11 0 21 9t10 28q0 3 2.5 3t2.5 -3q0 -22 -13 -32t-30 -10q-21 0 -34 14.5t-13 43.5v249q-6 -57 -22.5 -112t-42 -99t-60.5 -71t-79 -27q-24 0 -47 7t-40 23.5t-27.5 45t-10.5 72.5v282q0 23 -20 26h-30q-2 0 -2 2t2 2
h102q2 0 2 -2t-2 -2h-30v-311q0 -47 9.5 -75t25 -42t34.5 -18t39 -4q48 0 85 35.5t62.5 90.5t38.5 120.5t13 125.5v72q0 10 10 10h2zM332 568q-8 0 -13 5t-5 13t5 13t13 5t13 -5t5 -13t-5 -13t-13 -5zM170 568q-8 0 -13 5t-5 13t5 13t13 5t13 -5t5 -13t-5 -13t-13 -5z" />
    <glyph glyph-name="yacute" unicode="&#xfd;" horiz-adv-x="488" 
d="M237 -2l-10 -29q-47 -128 -118 -177.5t-159 -17.5q-19 7 -25.5 15t-5 14t8.5 8t16 -3q56 -31 100.5 -26.5t78.5 31t58.5 69.5t40.5 88l11 33q-8 -7 -13 8l-171 440h-56q-2 0 -2 2t2 2h140q2 0 2 -2t-2 -2h-58l166 -428l143 388q6 16 6 24.5t-4.5 12t-13.5 3.5h-20h-27
q-2 0 -2 2t2 2h151q3 0 3 -2t-3 -2h-40q-16 0 -27 -7t-20 -31zM256 596q3 6 7.5 11t13.5 5t9.5 -7.5t-4.5 -12.5l-52 -50h-2z" />
    <glyph glyph-name="thorn" unicode="&#xfe;" horiz-adv-x="516" 
d="M24 721q0 2 2 2h65q4 0 4.5 -2t0.5 -3v-381q10 33 28 57.5t41.5 40.5t49.5 24t53 8q40 0 77 -14t65 -41.5t44.5 -70t16.5 -99.5v-11q0 -49 -12.5 -91.5t-37.5 -74.5t-61.5 -50.5t-84.5 -18.5q-28 0 -55 6t-51 22t-43 42.5t-30 67.5v-370q0 -10 10 -10h29q2 0 2 -2t-2 -2
h-101q-2 0 -2 2t2 2h30q10 0 10 10v929q0 26 -23 26h-25q-2 0 -2 2zM268 463q-65 0 -111.5 -41t-60.5 -111v-148q6 -36 19.5 -65.5t35.5 -51.5t52.5 -34t71.5 -12q45 0 77.5 17.5t53 48.5t30.5 73t10 92v11q0 60 -14.5 102t-39.5 68.5t-57 38.5t-67 12z" />
    <glyph glyph-name="ydieresis" unicode="&#xff;" horiz-adv-x="488" 
d="M237 -2l-10 -29q-47 -128 -118 -177.5t-159 -17.5q-19 7 -25.5 15t-5 14t8.5 8t16 -3q56 -31 100.5 -26.5t78.5 31t58.5 69.5t40.5 88l11 33q-8 -7 -13 8l-171 440h-56q-2 0 -2 2t2 2h140q2 0 2 -2t-2 -2h-58l166 -428l143 388q6 16 6 24.5t-4.5 12t-13.5 3.5h-20h-27
q-2 0 -2 2t2 2h151q3 0 3 -2t-3 -2h-40q-16 0 -27 -7t-20 -31zM325 568q-8 0 -13 5t-5 13t5 13t13 5t13 -5t5 -13t-5 -13t-13 -5zM163 568q-8 0 -13 5t-5 13t5 13t13 5t13 -5t5 -13t-5 -13t-13 -5z" />
    <glyph glyph-name="Amacron" unicode="&#x100;" horiz-adv-x="632" 
d="M263 688q-4 0 -4 3t4 3h70l258 -688h53q3 0 3 -3t-3 -3h-137q-4 0 -4 3t4 3h57l-106 282h-293l-103 -282h56q3 0 3 -3t-3 -3h-115q-4 0 -4 3t4 3h52l249 682h-41zM167 294h288l-146 390zM177 793h278v-6h-278v6z" />
    <glyph glyph-name="amacron" unicode="&#x101;" horiz-adv-x="460" 
d="M382 37q0 -16 9 -25.5t23 -9.5q11 0 21 9t10 28q0 3 2.5 3t2.5 -3q0 -22 -13 -32t-30 -10q-21 0 -34 14.5t-13 43.5v226q-7 -49 -24 -100t-44 -92t-63.5 -67.5t-81.5 -26.5q-26 0 -47 8.5t-35.5 23t-22 33.5t-7.5 40q0 41 20 64.5t52 38t72 23.5t81 22q34 10 54 21.5
t30.5 25.5t13.5 30t3 35q0 15 -6 32.5t-20.5 33.5t-38 26.5t-59.5 10.5t-63.5 -12.5t-44 -31.5t-21.5 -43t3 -46q3 -7 -1 -11.5t-9.5 -6t-11 2t-6.5 13.5q-2 28 9.5 53.5t33 44.5t50.5 30t61 11q37 0 64 -9.5t45 -25.5t27 -36.5t9 -42.5v-316zM152 2q48 0 85.5 31.5
t63.5 78.5t40.5 101.5t18.5 101.5q-7 -22 -28 -38.5t-67 -31.5q-30 -10 -66 -18.5t-66.5 -23t-51 -37.5t-20.5 -63v-9q0 -37 24.5 -64.5t66.5 -27.5zM101 556h278v-6h-278v6z" />
    <glyph glyph-name="Abreve" unicode="&#x102;" horiz-adv-x="632" 
d="M263 688q-4 0 -4 3t4 3h70l258 -688h53q3 0 3 -3t-3 -3h-137q-4 0 -4 3t4 3h57l-106 282h-293l-103 -282h56q3 0 3 -3t-3 -3h-115q-4 0 -4 3t4 3h52l249 682h-41zM167 294h288l-146 390zM313 740q-16 0 -31.5 7t-28 20.5t-20.5 33t-8 44.5q0 5 3 8.5t6.5 3.5t6.5 -2.5
t3 -9.5q0 -10 -5.5 -18.5t-2.5 -16.5q9 -23 29 -36.5t48 -13.5h4q28 0 48 13.5t29 36.5q3 8 -2.5 16.5t-5.5 18.5q0 7 3 9.5t6.5 2.5t6.5 -3.5t3 -8.5q0 -25 -8 -44.5t-20.5 -33t-28 -20.5t-31.5 -7h-4z" />
    <glyph glyph-name="abreve" unicode="&#x103;" horiz-adv-x="460" 
d="M382 37q0 -16 9 -25.5t23 -9.5q11 0 21 9t10 28q0 3 2.5 3t2.5 -3q0 -22 -13 -32t-30 -10q-21 0 -34 14.5t-13 43.5v226q-7 -49 -24 -100t-44 -92t-63.5 -67.5t-81.5 -26.5q-26 0 -47 8.5t-35.5 23t-22 33.5t-7.5 40q0 41 20 64.5t52 38t72 23.5t81 22q34 10 54 21.5
t30.5 25.5t13.5 30t3 35q0 15 -6 32.5t-20.5 33.5t-38 26.5t-59.5 10.5t-63.5 -12.5t-44 -31.5t-21.5 -43t3 -46q3 -7 -1 -11.5t-9.5 -6t-11 2t-6.5 13.5q-2 28 9.5 53.5t33 44.5t50.5 30t61 11q37 0 64 -9.5t45 -25.5t27 -36.5t9 -42.5v-316zM152 2q48 0 85.5 31.5
t63.5 78.5t40.5 101.5t18.5 101.5q-7 -22 -28 -38.5t-67 -31.5q-30 -10 -66 -18.5t-66.5 -23t-51 -37.5t-20.5 -63v-9q0 -37 24.5 -64.5t66.5 -27.5zM236 519q-16 0 -31.5 7t-28 20.5t-20.5 33t-8 44.5q0 5 3 8.5t6.5 3.5t6.5 -2.5t3 -9.5q0 -10 -5.5 -18.5t-2.5 -16.5
q9 -23 29 -36.5t48 -13.5h4q28 0 48 13.5t29 36.5q3 8 -2.5 16.5t-5.5 18.5q0 7 3 9.5t6.5 2.5t6.5 -3.5t3 -8.5q0 -25 -8 -44.5t-20.5 -33t-28 -20.5t-31.5 -7h-4z" />
    <glyph glyph-name="Aogonek" unicode="&#x104;" horiz-adv-x="632" 
d="M624 -136l2 1q1 0 1 1q1 0 1 -1q0 -3 -5 -6.5t-12.5 -6.5t-16 -5.5t-16.5 -2.5q-9 0 -21 2.5t-23 9t-19 19t-8 33.5q0 38 20.5 59.5t46.5 32.5h-67q-4 0 -4 3t4 3h57l-106 282h-293l-103 -282h56q3 0 3 -3t-3 -3h-115q-4 0 -4 3t4 3h52l249 682h-41q-4 0 -4 3t4 3h70
l258 -688h53q3 0 3 -3t-3 -3h-63q-29 -14 -40 -42t-11 -51q0 -27 13.5 -42.5t39.5 -15.5q23 0 41 15zM167 294h288l-146 390z" />
    <glyph glyph-name="aogonek" unicode="&#x105;" horiz-adv-x="460" 
d="M435 -140l2 1q1 0 1 1q1 0 1 -1q0 -3 -5 -6.5t-12.5 -6.5t-16 -5.5t-16.5 -2.5q-9 0 -21 2.5t-23 9t-19 19t-8 33.5q0 20 6.5 35t17 26.5t23.5 19.5t27 14q-32 10 -32 56v226q-7 -49 -24 -100t-44 -92t-63.5 -67.5t-81.5 -26.5q-26 0 -47 8.5t-35.5 23t-22 33.5t-7.5 40
q0 41 20 64.5t52 38t72 23.5t81 22q34 10 54 21.5t30.5 25.5t13.5 30t3 35q0 15 -6 32.5t-20.5 33.5t-38 26.5t-59.5 10.5t-63.5 -12.5t-44 -31.5t-21.5 -43t3 -46q3 -7 -1 -11.5t-9.5 -6t-11 2t-6.5 13.5q-2 28 9.5 53.5t33 44.5t50.5 30t61 11q37 0 64 -9.5t45 -25.5
t27 -36.5t9 -42.5v-316q0 -16 9 -25.5t23 -9.5q11 0 21 9t10 28q0 3 2.5 3t2.5 -3q0 -22 -13 -32t-30 -10q-3 0 -5.5 0.5t-4.5 0.5q-16 -6 -27 -17t-17.5 -24.5t-9 -27.5t-2.5 -26q0 -27 13.5 -42.5t39.5 -15.5q23 0 41 15zM152 2q48 0 85.5 31.5t63.5 78.5t40.5 101.5
t18.5 101.5q-7 -22 -28 -38.5t-67 -31.5q-30 -10 -66 -18.5t-66.5 -23t-51 -37.5t-20.5 -63v-9q0 -37 24.5 -64.5t66.5 -27.5z" />
    <glyph glyph-name="Cacute" unicode="&#x106;" horiz-adv-x="599" 
d="M338 -16q-60 0 -112.5 22t-91.5 67.5t-61.5 115.5t-22.5 165q0 90 25 156.5t66 110.5t95 65.5t112 21.5q42 0 80.5 -11.5t67.5 -31t46 -46t16 -55.5q0 -12 -6 -17t-12 -4.5t-11 6.5t-3 17q3 26 -7 50.5t-32.5 43t-57 30.5t-79.5 12h-2q-56 0 -104.5 -19.5t-84.5 -61.5
t-57 -108t-21 -159q0 -101 20 -170t54.5 -112.5t81.5 -63t101 -19.5h1q47 0 84.5 13.5t63 35t37.5 48.5t9 53q-2 10 3 16.5t11 7t12 -4.5t6 -17q1 -29 -18 -57.5t-50.5 -50.5t-73 -35.5t-84.5 -13.5h-1zM344 870q3 6 7.5 11t13.5 5t9.5 -7.5t-4.5 -12.5l-52 -50h-2z" />
    <glyph glyph-name="cacute" unicode="&#x107;" 
d="M251 463q-37 0 -70 -13.5t-57.5 -41.5t-38.5 -70.5t-14 -100.5v-11q0 -50 8.5 -91.5t29 -71.5t54.5 -47t85 -17q38 0 67 13.5t46.5 34t23.5 45t-1 46.5q-3 7 1 11.5t9.5 6t10.5 -2t6 -13.5q2 -27 -10.5 -53t-35 -46.5t-53 -33t-63.5 -12.5q-53 0 -91.5 17.5t-63.5 48.5
t-37 73.5t-12 91.5v11q0 57 18.5 100t47.5 72t66 43.5t74 14.5h7q34 0 62 -9.5t48.5 -26t30.5 -39.5t8 -50q-1 -10 -6 -13.5t-10.5 -2t-9.5 6t-1 11.5q7 22 3 43t-19 38t-41.5 27.5t-64.5 10.5h-7zM248 633q3 6 7.5 11t13.5 5t9.5 -7.5t-4.5 -12.5l-52 -50h-2z" />
    <glyph glyph-name="Ccircumflex" unicode="&#x108;" horiz-adv-x="599" 
d="M338 -16q-60 0 -112.5 22t-91.5 67.5t-61.5 115.5t-22.5 165q0 90 25 156.5t66 110.5t95 65.5t112 21.5q42 0 80.5 -11.5t67.5 -31t46 -46t16 -55.5q0 -12 -6 -17t-12 -4.5t-11 6.5t-3 17q3 26 -7 50.5t-32.5 43t-57 30.5t-79.5 12h-2q-56 0 -104.5 -19.5t-84.5 -61.5
t-57 -108t-21 -159q0 -101 20 -170t54.5 -112.5t81.5 -63t101 -19.5h1q47 0 84.5 13.5t63 35t37.5 48.5t9 53q-2 10 3 16.5t11 7t12 -4.5t6 -17q1 -29 -18 -57.5t-50.5 -50.5t-73 -35.5t-84.5 -13.5h-1zM345 878l-120 -100q-4 -2 -4.5 -0.5t1.5 3.5q21 21 38 37.5t31 31
t27 27.5t26 27q1 1 3 0q13 -14 26 -27t27 -27.5t31 -31t38 -37.5q2 -2 0.5 -3.5t-3.5 0.5z" />
    <glyph glyph-name="Ccaron" unicode="&#x10c;" horiz-adv-x="599" 
d="M338 -16q-60 0 -112.5 22t-91.5 67.5t-61.5 115.5t-22.5 165q0 90 25 156.5t66 110.5t95 65.5t112 21.5q42 0 80.5 -11.5t67.5 -31t46 -46t16 -55.5q0 -12 -6 -17t-12 -4.5t-11 6.5t-3 17q3 26 -7 50.5t-32.5 43t-57 30.5t-79.5 12h-2q-56 0 -104.5 -19.5t-84.5 -61.5
t-57 -108t-21 -159q0 -101 20 -170t54.5 -112.5t81.5 -63t101 -19.5h1q47 0 84.5 13.5t63 35t37.5 48.5t9 53q-2 10 3 16.5t11 7t12 -4.5t6 -17q1 -29 -18 -57.5t-50.5 -50.5t-73 -35.5t-84.5 -13.5h-1zM348 775q-1 0 -1 1q-13 14 -26 27t-27 27.5t-31 31t-38 37.5
q-2 2 -1.5 3.5t4.5 -0.5l120 -100l121 100q2 2 3.5 0.5t-0.5 -3.5q-21 -21 -38 -37.5t-31 -31t-27 -27.5t-26 -27q-1 -1 -2 -1z" />
    <glyph glyph-name="ccaron" unicode="&#x10d;" 
d="M251 463q-37 0 -70 -13.5t-57.5 -41.5t-38.5 -70.5t-14 -100.5v-11q0 -50 8.5 -91.5t29 -71.5t54.5 -47t85 -17q38 0 67 13.5t46.5 34t23.5 45t-1 46.5q-3 7 1 11.5t9.5 6t10.5 -2t6 -13.5q2 -27 -10.5 -53t-35 -46.5t-53 -33t-63.5 -12.5q-53 0 -91.5 17.5t-63.5 48.5
t-37 73.5t-12 91.5v11q0 57 18.5 100t47.5 72t66 43.5t74 14.5h7q34 0 62 -9.5t48.5 -26t30.5 -39.5t8 -50q-1 -10 -6 -13.5t-10.5 -2t-9.5 6t-1 11.5q7 22 3 43t-19 38t-41.5 27.5t-64.5 10.5h-7zM252 538q-1 0 -1 1q-13 14 -26 27t-27 27.5t-31 31t-38 37.5q-2 2 -1.5 3.5
t4.5 -0.5l120 -100l121 100q2 2 3.5 0.5t-0.5 -3.5q-21 -21 -38 -37.5t-31 -31t-27 -27.5t-26 -27q-1 -1 -2 -1z" />
    <glyph glyph-name="Dcaron" unicode="&#x10e;" horiz-adv-x="597" 
d="M49 688q-4 0 -4 3t4 3h206q54 0 108 -19t98 -60t71.5 -104.5t27.5 -153.5t-24.5 -157t-65.5 -111.5t-94 -66.5t-110 -22h-217q-4 0 -4 3t4 3h44q10 0 10 10v662q0 10 -10 10h-44zM140 688q-10 0 -10 -10v-662q0 -10 10 -10h126q54 0 102 20.5t84 63t56.5 109t20.5 158.5
t-23.5 155.5t-62.5 102.5t-88 56t-100 17h-115zM256 775q-1 0 -1 1q-13 14 -26 27t-27 27.5t-31 31t-38 37.5q-2 2 -1.5 3.5t4.5 -0.5l120 -100l121 100q2 2 3.5 0.5t-0.5 -3.5q-21 -21 -38 -37.5t-31 -31t-27 -27.5t-26 -27q-1 -1 -2 -1z" />
    <glyph glyph-name="dcaron" unicode="&#x10f;" horiz-adv-x="665" 
d="M312 721q0 2 2 2h109q2 0 2 -2t-2 -2h-15v-682q0 -16 9 -25.5t23 -9.5q11 0 21 9t10 28q0 3 2.5 3t2.5 -3q0 -22 -13 -32t-30 -10q-21 0 -34 14.5t-13 43.5v234q-6 -47 -22.5 -98.5t-42.5 -95t-61.5 -71.5t-79.5 -28q-24 0 -48.5 9t-43.5 31t-31 60t-12 97v21
q0 61 21 108t55.5 79.5t78.5 48.5t91 16l95 -1v228q0 23 -20 26h-52q-2 0 -2 2zM68 195q0 -62 10 -100.5t26 -59.5t35 -28t37 -7h4q50 0 88.5 36.5t64.5 90t39.5 112.5t13.5 104v119h-91q-52 0 -94 -18t-71.5 -50t-45.5 -78t-16 -101v-20zM557 591q-3 -2 -3.5 -0.5t1.5 3.5
q11 8 18 18.5t7 22.5q0 13 -8 20t-8 18q0 14 14 14q6 0 11.5 -5.5t5.5 -19.5q0 -17 -8.5 -36t-29.5 -35z" />
    <glyph glyph-name="Dcroat" unicode="&#x110;" horiz-adv-x="589" 
d="M50 688q-4 0 -4 3t4 3h197q54 0 108 -19t98 -60t71.5 -104.5t27.5 -153.5t-24.5 -157t-65.5 -111.5t-94 -66.5t-110 -22h-208q-4 0 -4 3t4 3h44q10 0 10 10v345h-56q-5 0 -5 3t5 3h56v311q0 10 -10 10h-44zM131 361v-345q0 -10 10 -10h117q54 0 102 20.5t84 63t56.5 109
t20.5 158.5t-23.5 155.5t-62.5 102.5t-88 56t-100 17h-106q-10 0 -10 -10v-311h114q4 0 4 -3t-4 -3h-114z" />
    <glyph glyph-name="dcroat" unicode="&#x111;" horiz-adv-x="488" 
d="M386 289q-6 -47 -22.5 -98.5t-42.5 -95t-61.5 -71.5t-79.5 -28q-24 0 -48.5 9t-43.5 31t-31 60t-12 97v21q0 61 21 108t55.5 79.5t78.5 48.5t91 16l95 -1v73h-138v5h138v150q0 23 -20 26h-52q-2 0 -2 2t2 2h109q2 0 2 -2t-2 -2h-15v-176h43v-5h-43v-501q0 -16 9 -25.5
t23 -9.5q11 0 21 9t10 28q0 3 2.5 3t2.5 -3q0 -22 -13 -32t-30 -10q-21 0 -34 14.5t-13 43.5v234zM68 195q0 -62 10 -100.5t26 -59.5t35 -28t37 -7h4q32 0 60 16.5t50.5 43t40 61.5t29.5 72t18.5 73.5t7.5 67.5v128h-91q-52 0 -94 -18t-71.5 -50t-45.5 -78t-16 -101v-20z
" />
    <glyph glyph-name="Emacron" unicode="&#x112;" horiz-adv-x="538" 
d="M137 397q-7 0 -7 -7v-377q0 -7 7 -7h312q18 2 34.5 18.5t16.5 41.5v39h6v-105h-457q-4 0 -4 3t4 3h47q7 0 7 7v668q0 7 -7 7h-47q-4 0 -4 3t4 3h418v-117h-6v62q0 20 -13.5 34.5t-39.5 14.5h-271q-7 0 -7 -7v-271q0 -7 7 -7h201q17 1 30.5 10.5t13.5 27.5v31h6v-144h-6
v29q0 20 -15 30t-34 10h-196zM130 793h278v-6h-278v6z" />
    <glyph glyph-name="emacron" unicode="&#x113;" 
d="M238 -5q-53 0 -90.5 19.5t-60.5 53t-33 79.5t-8 99q2 57 22 98.5t50 69t66 40.5t70 13q74 0 114.5 -30.5t40.5 -83.5q0 -18 -8 -35.5t-22.5 -32.5t-34 -26.5t-43.5 -17.5q-39 -9 -81 -20.5t-74 -28t-48.5 -40.5t-4.5 -58q10 -22 22 -39.5t29 -30t39.5 -19t54.5 -6.5
q38 0 68.5 13.5t50 34t27 45t0.5 46.5q-3 7 1 11.5t9.5 6t10.5 -2t6 -13.5q2 -27 -12 -53.5t-38.5 -46.5t-56.5 -32.5t-66 -12.5zM387 354q0 23 -6.5 43t-22 34.5t-41 23t-63.5 8.5q-33 0 -65.5 -12t-58.5 -38.5t-43 -67.5t-19 -99q-2 -32 2 -65.5t15 -64.5q0 32 20 52.5
t51.5 35t69.5 24t73 18.5q37 10 62.5 37t25.5 71zM106 556h278v-6h-278v6z" />
    <glyph glyph-name="Ebreve" unicode="&#x114;" horiz-adv-x="538" 
d="M137 397q-7 0 -7 -7v-377q0 -7 7 -7h312q18 2 34.5 18.5t16.5 41.5v39h6v-105h-457q-4 0 -4 3t4 3h47q7 0 7 7v668q0 7 -7 7h-47q-4 0 -4 3t4 3h418v-117h-6v62q0 20 -13.5 34.5t-39.5 14.5h-271q-7 0 -7 -7v-271q0 -7 7 -7h201q17 1 30.5 10.5t13.5 27.5v31h6v-144h-6
v29q0 20 -15 30t-34 10h-196zM266 769q-16 0 -31.5 7t-28 20.5t-20.5 33t-8 44.5q0 5 3 8.5t6.5 3.5t6.5 -2.5t3 -9.5q0 -10 -5.5 -18.5t-2.5 -16.5q9 -23 29 -36.5t48 -13.5h4q28 0 48 13.5t29 36.5q3 8 -2.5 16.5t-5.5 18.5q0 7 3 9.5t6.5 2.5t6.5 -3.5t3 -8.5
q0 -25 -8 -44.5t-20.5 -33t-28 -20.5t-31.5 -7h-4z" />
    <glyph glyph-name="ebreve" unicode="&#x115;" 
d="M238 -5q-53 0 -90.5 19.5t-60.5 53t-33 79.5t-8 99q2 57 22 98.5t50 69t66 40.5t70 13q74 0 114.5 -30.5t40.5 -83.5q0 -18 -8 -35.5t-22.5 -32.5t-34 -26.5t-43.5 -17.5q-39 -9 -81 -20.5t-74 -28t-48.5 -40.5t-4.5 -58q10 -22 22 -39.5t29 -30t39.5 -19t54.5 -6.5
q38 0 68.5 13.5t50 34t27 45t0.5 46.5q-3 7 1 11.5t9.5 6t10.5 -2t6 -13.5q2 -27 -12 -53.5t-38.5 -46.5t-56.5 -32.5t-66 -12.5zM387 354q0 23 -6.5 43t-22 34.5t-41 23t-63.5 8.5q-33 0 -65.5 -12t-58.5 -38.5t-43 -67.5t-19 -99q-2 -32 2 -65.5t15 -64.5q0 32 20 52.5
t51.5 35t69.5 24t73 18.5q37 10 62.5 37t25.5 71zM233 532q-16 0 -31.5 7t-28 20.5t-20.5 33t-8 44.5q0 5 3 8.5t6.5 3.5t6.5 -2.5t3 -9.5q0 -10 -5.5 -18.5t-2.5 -16.5q9 -23 29 -36.5t48 -13.5h4q28 0 48 13.5t29 36.5q3 8 -2.5 16.5t-5.5 18.5q0 7 3 9.5t6.5 2.5
t6.5 -3.5t3 -8.5q0 -25 -8 -44.5t-20.5 -33t-28 -20.5t-31.5 -7h-4z" />
    <glyph glyph-name="Edotaccent" unicode="&#x116;" horiz-adv-x="538" 
d="M137 397q-7 0 -7 -7v-377q0 -7 7 -7h312q18 2 34.5 18.5t16.5 41.5v39h6v-105h-457q-4 0 -4 3t4 3h47q7 0 7 7v668q0 7 -7 7h-47q-4 0 -4 3t4 3h418v-117h-6v62q0 20 -13.5 34.5t-39.5 14.5h-271q-7 0 -7 -7v-271q0 -7 7 -7h201q17 1 30.5 10.5t13.5 27.5v31h6v-144h-6
v29q0 20 -15 30t-34 10h-196zM264 883q0 17 17 17t17 -17t-17 -17t-17 17z" />
    <glyph glyph-name="edotaccent" unicode="&#x117;" 
d="M238 -5q-53 0 -90.5 19.5t-60.5 53t-33 79.5t-8 99q2 57 22 98.5t50 69t66 40.5t70 13q74 0 114.5 -30.5t40.5 -83.5q0 -18 -8 -35.5t-22.5 -32.5t-34 -26.5t-43.5 -17.5q-39 -9 -81 -20.5t-74 -28t-48.5 -40.5t-4.5 -58q10 -22 22 -39.5t29 -30t39.5 -19t54.5 -6.5
q38 0 68.5 13.5t50 34t27 45t0.5 46.5q-3 7 1 11.5t9.5 6t10.5 -2t6 -13.5q2 -27 -12 -53.5t-38.5 -46.5t-56.5 -32.5t-66 -12.5zM387 354q0 23 -6.5 43t-22 34.5t-41 23t-63.5 8.5q-33 0 -65.5 -12t-58.5 -38.5t-43 -67.5t-19 -99q-2 -32 2 -65.5t15 -64.5q0 32 20 52.5
t51.5 35t69.5 24t73 18.5q37 10 62.5 37t25.5 71zM225 646q0 17 17 17t17 -17t-17 -17t-17 17z" />
    <glyph glyph-name="Eogonek" unicode="&#x118;" horiz-adv-x="538" 
d="M336 -137l2 1q1 0 1 1q1 0 1 -1q0 -3 -5 -6.5t-12.5 -6.5t-16 -5.5t-16.5 -2.5q-9 0 -21 2.5t-23 9t-19 19t-8 33.5q0 38 21.5 60t47.5 33h-239q-4 0 -4 3t4 3h47q7 0 7 7v668q0 7 -7 7h-47q-4 0 -4 3t4 3h418v-117h-6v62q0 20 -13.5 34.5t-39.5 14.5h-271q-7 0 -7 -7
v-271q0 -7 7 -7h201q17 1 30.5 10.5t13.5 27.5v31h6v-144h-6v29q0 20 -15 30t-34 10h-196q-7 0 -7 -7v-377q0 -7 7 -7h312q18 2 34.5 18.5t16.5 41.5v39h6v-105h-210q-15 -6 -25.5 -17.5t-17 -24.5t-9 -26.5t-2.5 -25.5q0 -27 13.5 -42.5t39.5 -15.5q23 0 41 15z" />
    <glyph glyph-name="eogonek" unicode="&#x119;" 
d="M291 -143l2 1q1 0 1 1q1 0 1 -1q0 -3 -5 -6.5t-12.5 -6.5t-16 -5.5t-16.5 -2.5q-9 0 -21 2.5t-23 9t-19 19t-8 33.5q0 39 22.5 61t49.5 33h-8q-53 0 -90.5 19.5t-60.5 53t-33 79.5t-8 99q2 57 22 98.5t50 69t66 40.5t70 13q74 0 114.5 -30.5t40.5 -83.5q0 -18 -8 -35.5
t-22.5 -32.5t-34 -26.5t-43.5 -17.5q-39 -9 -81 -20.5t-74 -28t-48.5 -40.5t-4.5 -58q10 -22 22 -39.5t29 -30t39.5 -19t54.5 -6.5q38 0 68.5 13.5t50 34t27 45t0.5 46.5q-3 7 1 11.5t9.5 6t10.5 -2t6 -13.5q2 -26 -10.5 -50t-34 -44t-50.5 -33.5t-60 -16.5
q-17 -6 -28.5 -17t-18 -24.5t-9.5 -28t-3 -26.5q0 -27 13.5 -42.5t39.5 -15.5q23 0 41 15zM387 354q0 23 -6.5 43t-22 34.5t-41 23t-63.5 8.5q-33 0 -65.5 -12t-58.5 -38.5t-43 -67.5t-19 -99q-2 -32 2 -65.5t15 -64.5q0 32 20 52.5t51.5 35t69.5 24t73 18.5q37 10 62.5 37
t25.5 71z" />
    <glyph glyph-name="Ecaron" unicode="&#x11a;" horiz-adv-x="538" 
d="M137 397q-7 0 -7 -7v-377q0 -7 7 -7h312q18 2 34.5 18.5t16.5 41.5v39h6v-105h-457q-4 0 -4 3t4 3h47q7 0 7 7v668q0 7 -7 7h-47q-4 0 -4 3t4 3h418v-117h-6v62q0 20 -13.5 34.5t-39.5 14.5h-271q-7 0 -7 -7v-271q0 -7 7 -7h201q17 1 30.5 10.5t13.5 27.5v31h6v-144h-6
v29q0 20 -15 30t-34 10h-196zM268 775q-1 0 -1 1q-13 14 -26 27t-27 27.5t-31 31t-38 37.5q-2 2 -1.5 3.5t4.5 -0.5l120 -100l121 100q2 2 3.5 0.5t-0.5 -3.5q-21 -21 -38 -37.5t-31 -31t-27 -27.5t-26 -27q-1 -1 -2 -1z" />
    <glyph glyph-name="ecaron" unicode="&#x11b;" 
d="M238 -5q-53 0 -90.5 19.5t-60.5 53t-33 79.5t-8 99q2 57 22 98.5t50 69t66 40.5t70 13q74 0 114.5 -30.5t40.5 -83.5q0 -18 -8 -35.5t-22.5 -32.5t-34 -26.5t-43.5 -17.5q-39 -9 -81 -20.5t-74 -28t-48.5 -40.5t-4.5 -58q10 -22 22 -39.5t29 -30t39.5 -19t54.5 -6.5
q38 0 68.5 13.5t50 34t27 45t0.5 46.5q-3 7 1 11.5t9.5 6t10.5 -2t6 -13.5q2 -27 -12 -53.5t-38.5 -46.5t-56.5 -32.5t-66 -12.5zM387 354q0 23 -6.5 43t-22 34.5t-41 23t-63.5 8.5q-33 0 -65.5 -12t-58.5 -38.5t-43 -67.5t-19 -99q-2 -32 2 -65.5t15 -64.5q0 32 20 52.5
t51.5 35t69.5 24t73 18.5q37 10 62.5 37t25.5 71zM234 538q-1 0 -1 1q-13 14 -26 27t-27 27.5t-31 31t-38 37.5q-2 2 -1.5 3.5t4.5 -0.5l120 -100l121 100q2 2 3.5 0.5t-0.5 -3.5q-21 -21 -38 -37.5t-31 -31t-27 -27.5t-26 -27q-1 -1 -2 -1z" />
    <glyph glyph-name="Gcircumflex" unicode="&#x11c;" horiz-adv-x="667" 
d="M328 702q-51 0 -95.5 -19t-78 -60.5t-52.5 -108t-19 -160.5t18.5 -163t51 -114t76.5 -66.5t96 -21.5q39 0 77 11t68 36.5t48.5 65.5t18.5 99v86h-70v6h159v-6h-62v-287q0 -5 -3 -5t-3 5v118q0 7 -3.5 9t-6.5 -6q-28 -67 -88 -101.5t-135 -34.5q-56 0 -106 23t-87 69
t-58.5 115.5t-21.5 161.5t23 158.5t61.5 110t88 64.5t103.5 21h1q55 0 96.5 -17t69 -43t41 -56.5t12.5 -57.5q0 -11 -5.5 -15.5t-11 -4t-10 6t-2.5 15.5q3 24 -5 53t-30 54.5t-60.5 42t-95.5 16.5zM341 878l-120 -100q-4 -2 -4.5 -0.5t1.5 3.5q21 21 38 37.5t31 31t27 27.5
t26 27q1 1 3 0q13 -14 26 -27t27 -27.5t31 -31t38 -37.5q2 -2 0.5 -3.5t-3.5 0.5z" />
    <glyph glyph-name="Gbreve" unicode="&#x11e;" horiz-adv-x="667" 
d="M328 702q-51 0 -95.5 -19t-78 -60.5t-52.5 -108t-19 -160.5t18.5 -163t51 -114t76.5 -66.5t96 -21.5q39 0 77 11t68 36.5t48.5 65.5t18.5 99v86h-70v6h159v-6h-62v-287q0 -5 -3 -5t-3 5v118q0 7 -3.5 9t-6.5 -6q-28 -67 -88 -101.5t-135 -34.5q-56 0 -106 23t-87 69
t-58.5 115.5t-21.5 161.5t23 158.5t61.5 110t88 64.5t103.5 21h1q55 0 96.5 -17t69 -43t41 -56.5t12.5 -57.5q0 -11 -5.5 -15.5t-11 -4t-10 6t-2.5 15.5q3 24 -5 53t-30 54.5t-60.5 42t-95.5 16.5zM331 769q-16 0 -31.5 7t-28 20.5t-20.5 33t-8 44.5q0 5 3 8.5t6.5 3.5
t6.5 -2.5t3 -9.5q0 -10 -5.5 -18.5t-2.5 -16.5q9 -23 29 -36.5t48 -13.5h4q28 0 48 13.5t29 36.5q3 8 -2.5 16.5t-5.5 18.5q0 7 3 9.5t6.5 2.5t6.5 -3.5t3 -8.5q0 -25 -8 -44.5t-20.5 -33t-28 -20.5t-31.5 -7h-4z" />
    <glyph glyph-name="gbreve" unicode="&#x11f;" horiz-adv-x="499" 
d="M264 467q38 0 73 -11t61 -32q-16 27 -12.5 53.5t19 47t39.5 31t50 5.5q9 -2 12.5 -7t2 -10t-6.5 -8t-12 -1q-19 6 -37 3t-32 -13t-22 -26t-8 -35q0 -25 17 -48q23 -22 36.5 -52.5t13.5 -72.5v-9q0 -38 -12.5 -71.5t-37 -58.5t-61 -39.5t-84.5 -14.5q-41 0 -72.5 10
t-55.5 28q-37 -3 -55 -28t-17 -53.5t21 -52t61 -23.5h227q41 0 69 -19t40.5 -47.5t9 -62t-26.5 -62t-66.5 -47.5t-109.5 -19h-49q-66 0 -109.5 16t-67 41t-29.5 54.5t2.5 56.5t29 47t49.5 26q-41 9 -57 36t-12 57t26.5 54.5t59.5 28.5q-32 26 -47.5 62.5t-15.5 80.5v9
q0 45 16 78t43 54.5t62.5 32.5t74.5 11zM264 463q-33 0 -64 -9.5t-54.5 -30t-38 -53t-14.5 -79.5v-9q0 -39 9.5 -72t30 -57t53 -37.5t77.5 -13.5t77.5 13.5t53 37.5t30 57t9.5 72v9q0 47 -14 79.5t-37.5 53t-54 30t-63.5 9.5zM146 -41q-5 0 -8.5 0.5t-7.5 0.5
q-25 0 -43.5 -17.5t-26.5 -43.5t-3.5 -56.5t25 -56t59 -43t98.5 -17.5h49q61 0 100.5 17.5t60.5 43t24.5 56t-7.5 56t-35.5 43t-58.5 17.5h-226zM270 532q-16 0 -31.5 7t-28 20.5t-20.5 33t-8 44.5q0 5 3 8.5t6.5 3.5t6.5 -2.5t3 -9.5q0 -10 -5.5 -18.5t-2.5 -16.5
q9 -23 29 -36.5t48 -13.5h4q28 0 48 13.5t29 36.5q3 8 -2.5 16.5t-5.5 18.5q0 7 3 9.5t6.5 2.5t6.5 -3.5t3 -8.5q0 -25 -8 -44.5t-20.5 -33t-28 -20.5t-31.5 -7h-4z" />
    <glyph glyph-name="Gcommaaccent" unicode="&#x122;" horiz-adv-x="667" 
d="M328 702q-51 0 -95.5 -19t-78 -60.5t-52.5 -108t-19 -160.5t18.5 -163t51 -114t76.5 -66.5t96 -21.5q39 0 77 11t68 36.5t48.5 65.5t18.5 99v86h-70v6h159v-6h-62v-287q0 -5 -3 -5t-3 5v118q0 7 -3.5 9t-6.5 -6q-28 -67 -88 -101.5t-135 -34.5q-56 0 -106 23t-87 69
t-58.5 115.5t-21.5 161.5t23 158.5t61.5 110t88 64.5t103.5 21h1q55 0 96.5 -17t69 -43t41 -56.5t12.5 -57.5q0 -11 -5.5 -15.5t-11 -4t-10 6t-2.5 15.5q3 24 -5 53t-30 54.5t-60.5 42t-95.5 16.5zM326 -166q-2 -2 -3 -1t1 3q10 14 14 29t-4 21q-12 5 -12 17q0 8 5 13t13 5
t13 -5t5 -13q0 -11 -3.5 -21.5t-9 -20t-11 -16.5t-8.5 -11z" />
    <glyph glyph-name="gcommaaccent" unicode="&#x123;" horiz-adv-x="499" 
d="M264 467q38 0 73 -11t61 -32q-16 27 -12.5 53.5t19 47t39.5 31t50 5.5q9 -2 12.5 -7t2 -10t-6.5 -8t-12 -1q-19 6 -37 3t-32 -13t-22 -26t-8 -35q0 -25 17 -48q23 -22 36.5 -52.5t13.5 -72.5v-9q0 -38 -12.5 -71.5t-37 -58.5t-61 -39.5t-84.5 -14.5q-41 0 -72.5 10
t-55.5 28q-37 -3 -55 -28t-17 -53.5t21 -52t61 -23.5h227q41 0 69 -19t40.5 -47.5t9 -62t-26.5 -62t-66.5 -47.5t-109.5 -19h-49q-66 0 -109.5 16t-67 41t-29.5 54.5t2.5 56.5t29 47t49.5 26q-41 9 -57 36t-12 57t26.5 54.5t59.5 28.5q-32 26 -47.5 62.5t-15.5 80.5v9
q0 45 16 78t43 54.5t62.5 32.5t74.5 11zM264 463q-33 0 -64 -9.5t-54.5 -30t-38 -53t-14.5 -79.5v-9q0 -39 9.5 -72t30 -57t53 -37.5t77.5 -13.5t77.5 13.5t53 37.5t30 57t9.5 72v9q0 47 -14 79.5t-37.5 53t-54 30t-63.5 9.5zM146 -41q-5 0 -8.5 0.5t-7.5 0.5
q-25 0 -43.5 -17.5t-26.5 -43.5t-3.5 -56.5t25 -56t59 -43t98.5 -17.5h49q61 0 100.5 17.5t60.5 43t24.5 56t-7.5 56t-35.5 43t-58.5 17.5h-226zM299 724q3 2 3.5 0.5t-1.5 -3.5q-11 -8 -18 -18.5t-7 -22.5q0 -7 2.5 -11.5t5.5 -8.5t5.5 -8t2.5 -10q0 -14 -14 -14
q-6 0 -11.5 5.5t-5.5 19.5q0 17 8.5 36t29.5 35z" />
    <glyph glyph-name="Hcircumflex" unicode="&#x124;" horiz-adv-x="609" 
d="M48 0q-4 0 -4 3t4 3h45q7 0 7 7v668q0 7 -7 7h-45q-4 0 -4 3t4 3h131q3 0 3 -3t-3 -3h-45q-7 0 -7 -7v-285q0 -7 7 -7h363q7 0 7 7v285q0 7 -7 7h-46q-4 0 -4 3t4 3h131q3 0 3 -3t-3 -3h-44q-7 0 -7 -7v-668q0 -7 7 -7h44q3 0 3 -3t-3 -3h-131q-4 0 -4 3t4 3h46q7 0 7 7
v363q0 7 -7 7h-363q-7 0 -7 -7v-363q0 -7 7 -7h45q3 0 3 -3t-3 -3h-131zM318 878l-120 -100q-4 -2 -4.5 -0.5t1.5 3.5q21 21 38 37.5t31 31t27 27.5t26 27q1 1 3 0q13 -14 26 -27t27 -27.5t31 -31t38 -37.5q2 -2 0.5 -3.5t-3.5 0.5z" />
    <glyph glyph-name="Itilde" unicode="&#x128;" horiz-adv-x="223" 
d="M44 0q-4 0 -4 3t4 3h47q7 0 7 7v668q0 7 -7 7h-43q-4 0 -4 3t4 3h128q3 0 3 -3t-3 -3h-45q-7 0 -7 -7v-668q0 -7 7 -7h46q4 0 4 -3t-4 -3h-133zM234 845q0 -32 -17 -53.5t-50 -21.5q-18 0 -33 9t-29.5 19.5t-29 19.5t-30.5 9q-24 0 -38 -19.5t-14 -49.5q0 -2 -2 -2t-2 2
q0 37 20 57.5t53 20.5q17 0 30.5 -8.5t27 -18t27.5 -18t31 -8.5q26 0 39 16.5t13 45.5q0 3 2 3t2 -3z" />
    <glyph glyph-name="itilde" unicode="&#x129;" horiz-adv-x="174" 
d="M22 453q0 2 2 2h87q2 0 2 -2t-2 -2h-15v-414q0 -16 9 -25.5t23 -9.5q11 0 21 9t10 28q0 3 2.5 3t2.5 -3q0 -22 -13 -32t-30 -10q-21 0 -34 14.5t-13 43.5v370q0 23 -20 26h-30q-2 0 -2 2zM210 614q0 -32 -17 -53.5t-50 -21.5q-18 0 -33 9t-29.5 19.5t-29 19.5t-30.5 9
q-24 0 -38 -19.5t-14 -49.5q0 -2 -2 -2t-2 2q0 37 20 57.5t53 20.5q17 0 30.5 -8.5t27 -18t27.5 -18t31 -8.5q26 0 39 16.5t13 45.5q0 3 2 3t2 -3z" />
    <glyph glyph-name="Imacron" unicode="&#x12a;" horiz-adv-x="207" 
d="M47 0q-4 0 -4 3t4 3h47q7 0 7 7v668q0 7 -7 7h-43q-4 0 -4 3t4 3h128q3 0 3 -3t-3 -3h-45q-7 0 -7 -7v-668q0 -7 7 -7h46q4 0 4 -3t-4 -3h-133zM-26 793h278v-6h-278v6z" />
    <glyph glyph-name="imacron" unicode="&#x12b;" horiz-adv-x="174" 
d="M22 453q0 2 2 2h87q2 0 2 -2t-2 -2h-15v-414q0 -16 9 -25.5t23 -9.5q11 0 21 9t10 28q0 3 2.5 3t2.5 -3q0 -22 -13 -32t-30 -10q-21 0 -34 14.5t-13 43.5v370q0 23 -20 26h-30q-2 0 -2 2zM-52 556h278v-6h-278v6z" />
    <glyph glyph-name="Ibreve" unicode="&#x12c;" horiz-adv-x="207" 
d="M47 0q-4 0 -4 3t4 3h47q7 0 7 7v668q0 7 -7 7h-43q-4 0 -4 3t4 3h128q3 0 3 -3t-3 -3h-45q-7 0 -7 -7v-668q0 -7 7 -7h46q4 0 4 -3t-4 -3h-133zM113 769q-16 0 -31.5 7t-28 20.5t-20.5 33t-8 44.5q0 5 3 8.5t6.5 3.5t6.5 -2.5t3 -9.5q0 -10 -5.5 -18.5t-2.5 -16.5
q9 -23 29 -36.5t48 -13.5h4q28 0 48 13.5t29 36.5q3 8 -2.5 16.5t-5.5 18.5q0 7 3 9.5t6.5 2.5t6.5 -3.5t3 -8.5q0 -25 -8 -44.5t-20.5 -33t-28 -20.5t-31.5 -7h-4z" />
    <glyph glyph-name="ibreve" unicode="&#x12d;" horiz-adv-x="174" 
d="M22 453q0 2 2 2h87q2 0 2 -2t-2 -2h-15v-414q0 -16 9 -25.5t23 -9.5q11 0 21 9t10 28q0 3 2.5 3t2.5 -3q0 -22 -13 -32t-30 -10q-21 0 -34 14.5t-13 43.5v370q0 23 -20 26h-30q-2 0 -2 2zM85 532q-16 0 -31.5 7t-28 20.5t-20.5 33t-8 44.5q0 5 3 8.5t6.5 3.5t6.5 -2.5
t3 -9.5q0 -10 -5.5 -18.5t-2.5 -16.5q9 -23 29 -36.5t48 -13.5h4q28 0 48 13.5t29 36.5q3 8 -2.5 16.5t-5.5 18.5q0 7 3 9.5t6.5 2.5t6.5 -3.5t3 -8.5q0 -25 -8 -44.5t-20.5 -33t-28 -20.5t-31.5 -7h-4z" />
    <glyph glyph-name="Iogonek" unicode="&#x12e;" horiz-adv-x="207" 
d="M161 -137l2 1q1 0 1 1q1 0 1 -1q0 -3 -5 -6.5t-12.5 -6.5t-16 -5.5t-16.5 -2.5q-9 0 -21 2.5t-23 9t-19 19t-8 33.5q0 38 21.5 60t47.5 33h-66q-4 0 -4 3t4 3h47q7 0 7 7v668q0 7 -7 7h-43q-4 0 -4 3t4 3h128q3 0 3 -3t-3 -3h-45q-7 0 -7 -7v-668q0 -7 7 -7h46q4 0 4 -3
t-4 -3h-59q-15 -6 -25.5 -17.5t-17 -24.5t-9 -26.5t-2.5 -25.5q0 -27 13.5 -42.5t39.5 -15.5q23 0 41 15z" />
    <glyph glyph-name="iogonek" unicode="&#x12f;" horiz-adv-x="174" 
d="M146 -138l2 1q1 0 1 1q1 0 1 -1q0 -3 -5 -6.5t-12.5 -6.5t-16 -5.5t-16.5 -2.5q-9 0 -21 2.5t-23 9t-19 19t-8 33.5q0 40 23 61.5t50 32.5q-28 13 -28 55v370q0 23 -20 26h-30q-2 0 -2 2t2 2h87q2 0 2 -2t-2 -2h-15v-414q0 -16 9 -25.5t23 -9.5q11 0 21 9t10 28
q0 3 2.5 3t2.5 -3q0 -22 -13 -32t-30 -10q-5 0 -15 2q-15 -6 -25.5 -17.5t-17 -24.5t-9 -26.5t-2.5 -25.5q0 -27 13.5 -42.5t39.5 -15.5q23 0 41 15zM67 646q0 17 17 17t17 -17t-17 -17t-17 17z" />
    <glyph glyph-name="Idotaccent" unicode="&#x130;" horiz-adv-x="207" 
d="M47 0q-4 0 -4 3t4 3h47q7 0 7 7v668q0 7 -7 7h-43q-4 0 -4 3t4 3h128q3 0 3 -3t-3 -3h-45q-7 0 -7 -7v-668q0 -7 7 -7h46q4 0 4 -3t-4 -3h-133zM97 883q0 17 17 17t17 -17t-17 -17t-17 17z" />
    <glyph glyph-name="dotlessi" unicode="&#x131;" horiz-adv-x="174" 
d="M22 453q0 2 2 2h87q2 0 2 -2t-2 -2h-15v-414q0 -16 9 -25.5t23 -9.5q11 0 21 9t10 28q0 3 2.5 3t2.5 -3q0 -22 -13 -32t-30 -10q-21 0 -34 14.5t-13 43.5v370q0 23 -20 26h-30q-2 0 -2 2z" />
    <glyph glyph-name="Jcircumflex" unicode="&#x134;" horiz-adv-x="464" 
d="M308 688q-3 0 -3 3t3 3h121q3 0 3 -3t-3 -3h-39q-7 0 -7 -7v-504q0 -36 -13.5 -69.5t-38.5 -60t-60.5 -42t-79.5 -15.5q-40 0 -74.5 14t-59.5 38t-37.5 55.5t-9.5 66.5q1 15 8.5 21t15 4.5t12 -9.5t0.5 -20q-10 -28 -4.5 -57t24 -53t50.5 -39.5t75 -15.5q46 0 77.5 16
t51 42t28 59t8.5 67v502q0 7 -7 7h-41zM371 878l-120 -100q-4 -2 -4.5 -0.5t1.5 3.5q21 21 38 37.5t31 31t27 27.5t26 27q1 1 3 0q13 -14 26 -27t27 -27.5t31 -31t38 -37.5q2 -2 0.5 -3.5t-3.5 0.5z" />
    <glyph glyph-name="Kcommaaccent" unicode="&#x136;" horiz-adv-x="585" 
d="M441 0q-3 0 -3 3t3 3h48q7 0 3 6l-279 390l-87 -90v-299q0 -7 7 -7h46q4 0 4 -3t-4 -3h-131q-4 0 -4 3t4 3h47q7 0 7 7v668q0 7 -7 7h-49q-5 0 -5 3t5 3h137q3 0 3 -3t-3 -3h-50q-7 0 -7 -7v-359l346 361q7 5 -2 5h-47q-5 0 -5 3t5 3h119q3 0 3 -3t-3 -3h-47q-5 0 -12 -5
l-254 -264l291 -407q4 -6 11 -6h45q4 0 4 -3t-4 -3h-135zM278 -166q-2 -2 -3 -1t1 3q10 14 14 29t-4 21q-12 5 -12 17q0 8 5 13t13 5t13 -5t5 -13q0 -11 -3.5 -21.5t-9 -20t-11 -16.5t-8.5 -11z" />
    <glyph glyph-name="kcommaaccent" unicode="&#x137;" horiz-adv-x="441" 
d="M76 696q0 23 -20 23h-38q-2 0 -2 2t2 2h95q2 0 2 -2t-2 -2h-15v-705q0 -10 10 -10h36q2 0 2 -2t-2 -2h-117q-2 0 -2 2t2 2h39q10 0 10 10v682zM357 4l-232 265l184 155q14 12 9 19.5t-17 7.5h-47q-2 0 -2 2t2 2h173q2 0 2 -2t-2 -2h-39q-23 0 -36 -3.5t-30 -17.5
l-178 -151l246 -275h55q2 0 2 -2t-2 -2h-147q-2 0 -2 2t2 2h59zM206 -166q-2 -2 -3 -1t1 3q10 14 14 29t-4 21q-12 5 -12 17q0 8 5 13t13 5t13 -5t5 -13q0 -11 -3.5 -21.5t-9 -20t-11 -16.5t-8.5 -11z" />
    <glyph glyph-name="kgreenlandic" unicode="&#x138;" horiz-adv-x="436" 
d="M64 448q0 5 -3 5h-34q-2 0 -2 2t2 2h96q2 0 2.5 -2t-2.5 -2h-33q-4 0 -4 -5v-440q-1 -1 0 -2q0 -2 4 -2h31q2 0 2 -2t-2 -2h-92q-2 0 -2 2t2 2h30q5 0 5 4v440zM113 252h16l193 198q4 3 -1 3h-31q-3 0 -3 2t3 2h78q2 0 2 -2t-2 -2h-11q-8 0 -19.5 -3t-16.5 -8l-185 -190
h6q40 0 82.5 -27t77.5 -84q15 -25 29 -50t25.5 -45t21 -32.5t16.5 -12.5q5 0 7 1l4 2q3 2 5 0t-1 -4q-5 -2 -7.5 -2.5t-7.5 -0.5q-12 0 -23 6t-23.5 20.5t-28 39t-36.5 62.5q-32 58 -68 90t-74 32h-28v5z" />
    <glyph glyph-name="Lacute" unicode="&#x139;" horiz-adv-x="519" 
d="M92 6q10 0 10 10v665q0 7 -7 7h-41q-3 0 -3 3t3 3h121q3 0 3 -3t-3 -3h-39q-7 0 -7 -7v-665q0 -10 10 -10h276q30 2 49 23.5t19 58.5v109h6v-197h-441q-3 0 -3 3t3 3h44zM257 870q3 6 7.5 11t13.5 5t9.5 -7.5t-4.5 -12.5l-52 -50h-2z" />
    <glyph glyph-name="lacute" unicode="&#x13a;" horiz-adv-x="185" 
d="M76 696q0 23 -20 23h-38q-2 0 -2 2t2 2h95q2 0 2 -2t-2 -2h-15v-661q0 -29 13 -41.5t33 -12.5q14 0 25 9.5t11 28.5q0 4 2.5 4t2.5 -4q0 -22 -15 -34t-38 -11q-56 2 -56 73v626zM90 858q3 6 7.5 11t13.5 5t9.5 -7.5t-4.5 -12.5l-52 -50h-2z" />
    <glyph glyph-name="Lcommaaccent" unicode="&#x13b;" horiz-adv-x="519" 
d="M92 6q10 0 10 10v665q0 7 -7 7h-41q-3 0 -3 3t3 3h121q3 0 3 -3t-3 -3h-39q-7 0 -7 -7v-665q0 -10 10 -10h276q30 2 49 23.5t19 58.5v109h6v-197h-441q-3 0 -3 3t3 3h44zM245 -166q-2 -2 -3 -1t1 3q10 14 14 29t-4 21q-12 5 -12 17q0 8 5 13t13 5t13 -5t5 -13
q0 -11 -3.5 -21.5t-9 -20t-11 -16.5t-8.5 -11z" />
    <glyph glyph-name="lcommaaccent" unicode="&#x13c;" horiz-adv-x="185" 
d="M76 696q0 23 -20 23h-38q-2 0 -2 2t2 2h95q2 0 2 -2t-2 -2h-15v-661q0 -29 13 -41.5t33 -12.5q14 0 25 9.5t11 28.5q0 4 2.5 4t2.5 -4q0 -22 -15 -34t-38 -11q-56 2 -56 73v626zM107 -166q-2 -2 -3 -1t1 3q10 14 14 29t-4 21q-12 5 -12 17q0 8 5 13t13 5t13 -5t5 -13
q0 -11 -3.5 -21.5t-9 -20t-11 -16.5t-8.5 -11z" />
    <glyph glyph-name="Lcaron" unicode="&#x13d;" horiz-adv-x="519" 
d="M92 6q10 0 10 10v665q0 7 -7 7h-41q-3 0 -3 3t3 3h121q3 0 3 -3t-3 -3h-39q-7 0 -7 -7v-665q0 -10 10 -10h276q30 2 49 23.5t19 58.5v109h6v-197h-441q-3 0 -3 3t3 3h44zM243 828q-3 -2 -3.5 -0.5t1.5 3.5q11 8 18 18.5t7 22.5q0 13 -8 20t-8 18q0 14 14 14
q6 0 11.5 -5.5t5.5 -19.5q0 -17 -8.5 -36t-29.5 -35z" />
    <glyph glyph-name="lcaron" unicode="&#x13e;" horiz-adv-x="362" 
d="M76 696q0 23 -20 23h-38q-2 0 -2 2t2 2h95q2 0 2 -2t-2 -2h-15v-661q0 -29 13 -41.5t33 -12.5q14 0 25 9.5t11 28.5q0 4 2.5 4t2.5 -4q0 -22 -15 -34t-38 -11q-56 2 -56 73v626zM254 591q-3 -2 -3.5 -0.5t1.5 3.5q11 8 18 18.5t7 22.5q0 13 -8 20t-8 18q0 14 14 14
q6 0 11.5 -5.5t5.5 -19.5q0 -17 -8.5 -36t-29.5 -35z" />
    <glyph glyph-name="Lslash" unicode="&#x141;" horiz-adv-x="582" 
d="M111 688q-5 0 -5 3t5 3h136q3 0 3 -3t-3 -3h-45q-10 0 -10 -10v-342l33 33l99 103q4 5 8 1t-1 -9l-103 -99l-36 -37v-312q0 -10 10 -10h276q30 2 49 23.5t19 58.5v109h6v-197h-441q-3 0 -3 3t3 3h44q10 0 10 10v285l-31 -30l-98 -103q-4 -5 -8 -0.5t0 8.5l103 99l34 34
v369q0 10 -10 10h-44z" />
    <glyph glyph-name="lslash" unicode="&#x142;" horiz-adv-x="185" 
d="M76 696q0 23 -20 23h-38q-2 0 -2 2t2 2h95q2 0 2 -2t-2 -2h-15v-387l19 20l63 66q3 4 6.5 1t-0.5 -7l-66 -64l-22 -22v-268q0 -29 13 -41.5t33 -12.5q14 0 25 9.5t11 28.5q0 4 2.5 4t2.5 -4q0 -22 -15 -34t-38 -11q-56 2 -56 73v234l-17 -17l-62 -66q-5 -5 -8.5 -2t1.5 8
l66 64l20 19v386v0z" />
    <glyph glyph-name="Nacute" unicode="&#x143;" horiz-adv-x="599" 
d="M25 688q-3 0 -3 3t3 3h88l419 -649v633q0 10 -10 10h-44q-3 0 -3 3t3 3h115q4 0 4 -3t-4 -3h-45q-10 0 -10 -10v-684h-6l-445 691v-669q0 -10 10 -10h44q3 0 3 -3t-3 -3h-115q-4 0 -4 3t4 3h45q10 0 10 10v672h-56zM320 870q3 6 7.5 11t13.5 5t9.5 -7.5t-4.5 -12.5
l-52 -50h-2z" />
    <glyph glyph-name="nacute" unicode="&#x144;" horiz-adv-x="490" 
d="M26 2q0 2 2 2h39q10 0 10 10v411q0 26 -23 26h-27q-2 0 -2 2t2 2h87q2 0 2 -2t-2 -2h-15v-145q9 32 26 61t39.5 51t51 35t61.5 13q34 0 59.5 -9.5t42 -25.5t25 -36t8.5 -42v-316q0 -16 9 -25.5t23 -9.5q11 0 21 9t10 28q0 3 2.5 3t2.5 -3q0 -22 -13 -32t-30 -10
q-21 0 -34 14.5t-13 43.5v292q0 22 -8.5 44t-25 38.5t-41 25t-57.5 5.5q-29 -3 -54 -17.5t-46 -37.5t-36 -52t-23 -61v-278q0 -10 10 -10h37q2 0 2 -2t-2 -2h-118q-2 0 -2 2zM259 633q3 6 7.5 11t13.5 5t9.5 -7.5t-4.5 -12.5l-52 -50h-2z" />
    <glyph glyph-name="Ncommaaccent" unicode="&#x145;" horiz-adv-x="599" 
d="M25 688q-3 0 -3 3t3 3h88l419 -649v633q0 10 -10 10h-44q-3 0 -3 3t3 3h115q4 0 4 -3t-4 -3h-45q-10 0 -10 -10v-684h-6l-445 691v-669q0 -10 10 -10h44q3 0 3 -3t-3 -3h-115q-4 0 -4 3t4 3h45q10 0 10 10v672h-56zM285 -166q-2 -2 -3 -1t1 3q10 14 14 29t-4 21
q-12 5 -12 17q0 8 5 13t13 5t13 -5t5 -13q0 -11 -3.5 -21.5t-9 -20t-11 -16.5t-8.5 -11z" />
    <glyph glyph-name="ncommaaccent" unicode="&#x146;" horiz-adv-x="490" 
d="M26 2q0 2 2 2h39q10 0 10 10v411q0 26 -23 26h-27q-2 0 -2 2t2 2h87q2 0 2 -2t-2 -2h-15v-145q9 32 26 61t39.5 51t51 35t61.5 13q34 0 59.5 -9.5t42 -25.5t25 -36t8.5 -42v-316q0 -16 9 -25.5t23 -9.5q11 0 21 9t10 28q0 3 2.5 3t2.5 -3q0 -22 -13 -32t-30 -10
q-21 0 -34 14.5t-13 43.5v292q0 22 -8.5 44t-25 38.5t-41 25t-57.5 5.5q-29 -3 -54 -17.5t-46 -37.5t-36 -52t-23 -61v-278q0 -10 10 -10h37q2 0 2 -2t-2 -2h-118q-2 0 -2 2zM248 -166q-2 -2 -3 -1t1 3q10 14 14 29t-4 21q-12 5 -12 17q0 8 5 13t13 5t13 -5t5 -13
q0 -11 -3.5 -21.5t-9 -20t-11 -16.5t-8.5 -11z" />
    <glyph glyph-name="Ncaron" unicode="&#x147;" horiz-adv-x="599" 
d="M25 688q-3 0 -3 3t3 3h88l419 -649v633q0 10 -10 10h-44q-3 0 -3 3t3 3h115q4 0 4 -3t-4 -3h-45q-10 0 -10 -10v-684h-6l-445 691v-669q0 -10 10 -10h44q3 0 3 -3t-3 -3h-115q-4 0 -4 3t4 3h45q10 0 10 10v672h-56zM314 775q-1 0 -1 1q-13 14 -26 27t-27 27.5t-31 31
t-38 37.5q-2 2 -1.5 3.5t4.5 -0.5l120 -100l121 100q2 2 3.5 0.5t-0.5 -3.5q-21 -21 -38 -37.5t-31 -31t-27 -27.5t-26 -27q-1 -1 -2 -1z" />
    <glyph glyph-name="ncaron" unicode="&#x148;" horiz-adv-x="490" 
d="M26 2q0 2 2 2h39q10 0 10 10v411q0 26 -23 26h-27q-2 0 -2 2t2 2h87q2 0 2 -2t-2 -2h-15v-145q9 32 26 61t39.5 51t51 35t61.5 13q34 0 59.5 -9.5t42 -25.5t25 -36t8.5 -42v-316q0 -16 9 -25.5t23 -9.5q11 0 21 9t10 28q0 3 2.5 3t2.5 -3q0 -22 -13 -32t-30 -10
q-21 0 -34 14.5t-13 43.5v292q0 22 -8.5 44t-25 38.5t-41 25t-57.5 5.5q-29 -3 -54 -17.5t-46 -37.5t-36 -52t-23 -61v-278q0 -10 10 -10h37q2 0 2 -2t-2 -2h-118q-2 0 -2 2zM256 538q-1 0 -1 1q-13 14 -26 27t-27 27.5t-31 31t-38 37.5q-2 2 -1.5 3.5t4.5 -0.5l120 -100
l121 100q2 2 3.5 0.5t-0.5 -3.5q-21 -21 -38 -37.5t-31 -31t-27 -27.5t-26 -27q-1 -1 -2 -1z" />
    <glyph glyph-name="Eng" unicode="&#x14a;" horiz-adv-x="618" 
d="M25 694h88l419 -649v633q0 10 -10 10h-44v6h115v-6h-45q-10 0 -10 -10v-648q18 -35 19.5 -69.5t-8.5 -66t-29 -58t-40 -45.5q-29 -26 -71 -41.5t-91 -13.5q-12 0 -18 5.5t-6 11.5t5 10t14 3q62 -11 100 -2t63 31q19 16 32.5 45.5t18.5 64t-1 71t-25 66.5l-414 643v-669
q0 -10 10 -10h45v-6h-115v6h44q10 0 10 10v672h-56v6z" />
    <glyph glyph-name="eng" unicode="&#x14b;" horiz-adv-x="475" 
d="M26 2q0 2 2 2h39q10 0 10 10v411q0 26 -23 26h-27q-2 0 -2 2t2 2h87q2 0 2 -2t-2 -2h-15v-145q9 32 26 61t39.5 51t51 35t61.5 13q34 0 59.5 -9.5t42 -25.5t25 -36t8.5 -42v-200q0 -75 -24 -134.5t-69 -98.5q-29 -26 -71 -41.5t-91 -13.5q-12 0 -18 5.5t-6 11.5t5 10
t14 3q62 -11 100 -2t63 31q42 35 58.5 94.5t16.5 134.5v194q0 22 -8.5 44t-25 38.5t-41 25t-57.5 5.5q-29 -3 -54 -17.5t-46 -37.5t-36 -52t-23 -61v-278q0 -10 10 -10h37q2 0 2 -2t-2 -2h-118q-2 0 -2 2z" />
    <glyph glyph-name="Omacron" unicode="&#x14c;" horiz-adv-x="678" 
d="M338 -16q-60 0 -112.5 22.5t-91.5 68.5t-61.5 115.5t-22.5 163.5q0 89 23.5 154.5t62.5 109.5t90.5 66t107.5 24h10q55 -2 106.5 -24t91 -66t63 -109.5t23.5 -154.5q0 -94 -22.5 -163.5t-61.5 -115.5t-91.5 -68.5t-112.5 -22.5h-2zM340 -11q54 0 101 20t81.5 63.5
t54.5 113t20 168.5q0 92 -19.5 157.5t-54 107.5t-80.5 61.5t-98 21.5h-10q-53 -1 -99.5 -21t-81 -61.5t-54 -107t-19.5 -158.5q0 -99 20 -168.5t54.5 -113t81.5 -63.5t101 -20h2zM200 793h278v-6h-278v6z" />
    <glyph glyph-name="omacron" unicode="&#x14d;" horiz-adv-x="497" 
d="M249 467q40 0 77 -14t65 -41.5t44.5 -70t16.5 -99.5v-11q0 -49 -13 -91.5t-38.5 -74.5t-64 -50.5t-88.5 -18.5t-88 18.5t-63.5 50.5t-38.5 74.5t-13 91.5v11q0 30 10 64t30 58q4 23 19.5 42t38 32.5t50 21t56.5 7.5zM249 463q-36 0 -65 -10.5t-47.5 -27.5t-26 -38
t-0.5 -43q3 -7 -0.5 -11.5t-9 -6t-10.5 2t-6 13.5q-1 6 0 13l-2 -1l-3 -23q-10 -37 -10 -89v-11q0 -50 10 -92t32 -73t55.5 -48.5t81.5 -17.5t82 17.5t55.5 48.5t31.5 73t10 92v11q0 60 -14.5 102t-39.5 68.5t-57 38.5t-67 12zM109 556h278v-6h-278v6z" />
    <glyph glyph-name="Ohungarumlaut" unicode="&#x150;" horiz-adv-x="678" 
d="M338 -16q-60 0 -112.5 22.5t-91.5 68.5t-61.5 115.5t-22.5 163.5q0 89 23.5 154.5t62.5 109.5t90.5 66t107.5 24h10q55 -2 106.5 -24t91 -66t63 -109.5t23.5 -154.5q0 -94 -22.5 -163.5t-61.5 -115.5t-91.5 -68.5t-112.5 -22.5h-2zM340 -11q54 0 101 20t81.5 63.5
t54.5 113t20 168.5q0 92 -19.5 157.5t-54 107.5t-80.5 61.5t-98 21.5h-10q-53 -1 -99.5 -21t-81 -61.5t-54 -107t-19.5 -158.5q0 -99 20 -168.5t54.5 -113t81.5 -63.5t101 -20h2zM314 870q3 6 7.5 11t13.5 5t9.5 -7.5t-4.5 -12.5l-52 -50h-2zM415 870q3 6 7.5 11t13.5 5
t9.5 -7.5t-4.5 -12.5l-52 -50h-2z" />
    <glyph glyph-name="ohungarumlaut" unicode="&#x151;" horiz-adv-x="497" 
d="M249 467q40 0 77 -14t65 -41.5t44.5 -70t16.5 -99.5v-11q0 -49 -13 -91.5t-38.5 -74.5t-64 -50.5t-88.5 -18.5t-88 18.5t-63.5 50.5t-38.5 74.5t-13 91.5v11q0 30 10 64t30 58q4 23 19.5 42t38 32.5t50 21t56.5 7.5zM249 463q-36 0 -65 -10.5t-47.5 -27.5t-26 -38
t-0.5 -43q3 -7 -0.5 -11.5t-9 -6t-10.5 2t-6 13.5q-1 6 0 13l-2 -1l-3 -23q-10 -37 -10 -89v-11q0 -50 10 -92t32 -73t55.5 -48.5t81.5 -17.5t82 17.5t55.5 48.5t31.5 73t10 92v11q0 60 -14.5 102t-39.5 68.5t-57 38.5t-67 12zM208 633q3 6 7.5 11t13.5 5t9.5 -7.5
t-4.5 -12.5l-52 -50h-2zM309 633q3 6 7.5 11t13.5 5t9.5 -7.5t-4.5 -12.5l-52 -50h-2z" />
    <glyph glyph-name="OE" unicode="&#x152;" horiz-adv-x="859" 
d="M488 397q-7 0 -7 -7v-377q0 -7 7 -7h265q18 2 34.5 18.5t16.5 41.5v39h6v-105h-363l-128 -5q-58 0 -108.5 22t-88 66.5t-59.5 112t-22 159.5q0 86 22.5 150.5t60.5 107.5t87.5 64.5t103.5 21.5l131 -5h325v-117h-6v62q0 20 -13.5 34.5t-39.5 14.5h-224q-7 0 -7 -7v-271
q0 -7 7 -7h154q17 1 30.5 10.5t13.5 27.5v31h6v-144h-6v29q0 20 -15 30t-34 10h-149zM447 6q7 0 7 7v668q0 7 -7 7l-131 5q-51 0 -96 -19t-78 -60t-52 -105t-19 -154q0 -96 19 -163.5t52.5 -109.5t78.5 -61.5t98 -19.5z" />
    <glyph glyph-name="oe" unicode="&#x153;" horiz-adv-x="837" 
d="M623 -5q-78 1 -122.5 41t-60.5 106q-20 -65 -68 -105.5t-124 -40.5q-50 0 -88 18.5t-63.5 50.5t-38.5 74.5t-13 91.5v11q0 30 10 64t30 58q4 23 19.5 42t38 32.5t50 21t56.5 7.5q33 0 63.5 -9t56 -28t45 -47t29.5 -65q12 38 33.5 66t48.5 46.5t56.5 27.5t57.5 9
q74 0 114.5 -30.5t40.5 -83.5q0 -18 -8 -35.5t-22.5 -32.5t-34 -26.5t-43.5 -17.5q-39 -9 -81 -20.5t-74 -28t-48.5 -40.5t-4.5 -58q10 -22 22 -39.5t29 -30t39.5 -19t54.5 -6.5q38 0 68.5 13.5t50 34t27 45t0.5 46.5q-3 7 1 11.5t9.5 6t10.5 -2t6 -13.5q2 -27 -12 -53.5
t-38.5 -46.5t-56.5 -32.5t-66 -12.5zM249 463q-36 0 -65 -10.5t-47.5 -27.5t-26 -38t-0.5 -43q3 -7 -0.5 -11.5t-9 -6t-10.5 2t-6 13.5q-1 6 0 13l-2 -1l-3 -23q-10 -37 -10 -89v-11q0 -50 10 -92t32 -73t55.5 -48.5t81.5 -17.5t82 17.5t55.5 48.5t31.5 73t10 92v11
q0 60 -14.5 102t-39.5 68.5t-57 38.5t-67 12zM772 354q0 23 -6.5 43t-22 34.5t-41 23t-63.5 8.5q-33 0 -65.5 -12t-58.5 -38.5t-43 -67.5t-19 -99q-2 -32 2 -65.5t15 -64.5q0 32 20 52.5t51.5 35t69.5 24t73 18.5q37 10 62.5 37t25.5 71z" />
    <glyph glyph-name="Racute" unicode="&#x154;" horiz-adv-x="564" 
d="M42 0q-4 0 -4.5 3t4.5 3h44q10 0 10 10v662q0 10 -10 10h-44q-5 0 -5 3t5 3h215q36 0 73 -9t67 -28t49 -49t19 -72q0 -40 -16.5 -70.5t-43.5 -51.5t-62.5 -32t-72.5 -13q46 -14 84 -55.5t72 -107.5q19 -38 37 -75t34 -66t28.5 -47.5t21.5 -18.5q5 0 8 1.5t6 3.5t6 -0.5
t-2 -5.5q-9 -5 -18 -5q-15 0 -29.5 8.5t-31.5 30.5t-37.5 59.5t-46.5 96.5q-39 86 -76.5 130.5t-82.5 50.5h-120v-353q0 -10 10 -10h46q3 0 3 -3t-3 -3h-137zM123 688v-313h134q37 0 70 9t58 28.5t39 50t14 73.5t-15 72t-40.5 47t-58 25.5t-67.5 7.5h-134zM279 870
q3 6 7.5 11t13.5 5t9.5 -7.5t-4.5 -12.5l-52 -50h-2z" />
    <glyph glyph-name="racute" unicode="&#x155;" horiz-adv-x="343" 
d="M25 453q0 2 2 2h87q2 0 2 -2t-2 -2h-15v-176q12 39 34 73.5t50.5 61t62 42t68.5 15.5q9 0 14 -4.5t5.5 -9.5t-4 -9t-14.5 -3q-35 3 -70 -9.5t-65 -38t-51.5 -62.5t-29.5 -82v-235q0 -10 10 -10h37q2 0 2 -2t-2 -2h-118q-2 0 -2 2t2 2h39q10 0 10 10v411q0 23 -20 26h-30
q-2 0 -2 2zM201 633q3 6 7.5 11t13.5 5t9.5 -7.5t-4.5 -12.5l-52 -50h-2z" />
    <glyph glyph-name="Rcommaaccent" unicode="&#x156;" horiz-adv-x="564" 
d="M42 0q-4 0 -4.5 3t4.5 3h44q10 0 10 10v662q0 10 -10 10h-44q-5 0 -5 3t5 3h215q36 0 73 -9t67 -28t49 -49t19 -72q0 -40 -16.5 -70.5t-43.5 -51.5t-62.5 -32t-72.5 -13q46 -14 84 -55.5t72 -107.5q19 -38 37 -75t34 -66t28.5 -47.5t21.5 -18.5q5 0 8 1.5t6 3.5t6 -0.5
t-2 -5.5q-9 -5 -18 -5q-15 0 -29.5 8.5t-31.5 30.5t-37.5 59.5t-46.5 96.5q-39 86 -76.5 130.5t-82.5 50.5h-120v-353q0 -10 10 -10h46q3 0 3 -3t-3 -3h-137zM123 688v-313h134q37 0 70 9t58 28.5t39 50t14 73.5t-15 72t-40.5 47t-58 25.5t-67.5 7.5h-134zM283 -166
q-2 -2 -3 -1t1 3q10 14 14 29t-4 21q-12 5 -12 17q0 8 5 13t13 5t13 -5t5 -13q0 -11 -3.5 -21.5t-9 -20t-11 -16.5t-8.5 -11z" />
    <glyph glyph-name="rcommaaccent" unicode="&#x157;" horiz-adv-x="343" 
d="M25 453q0 2 2 2h87q2 0 2 -2t-2 -2h-15v-176q12 39 34 73.5t50.5 61t62 42t68.5 15.5q9 0 14 -4.5t5.5 -9.5t-4 -9t-14.5 -3q-35 3 -70 -9.5t-65 -38t-51.5 -62.5t-29.5 -82v-235q0 -10 10 -10h37q2 0 2 -2t-2 -2h-118q-2 0 -2 2t2 2h39q10 0 10 10v411q0 23 -20 26h-30
q-2 0 -2 2zM74 -166q-2 -2 -3 -1t1 3q10 14 14 29t-4 21q-12 5 -12 17q0 8 5 13t13 5t13 -5t5 -13q0 -11 -3.5 -21.5t-9 -20t-11 -16.5t-8.5 -11z" />
    <glyph glyph-name="Rcaron" unicode="&#x158;" horiz-adv-x="564" 
d="M42 0q-4 0 -4.5 3t4.5 3h44q10 0 10 10v662q0 10 -10 10h-44q-5 0 -5 3t5 3h215q36 0 73 -9t67 -28t49 -49t19 -72q0 -40 -16.5 -70.5t-43.5 -51.5t-62.5 -32t-72.5 -13q46 -14 84 -55.5t72 -107.5q19 -38 37 -75t34 -66t28.5 -47.5t21.5 -18.5q5 0 8 1.5t6 3.5t6 -0.5
t-2 -5.5q-9 -5 -18 -5q-15 0 -29.5 8.5t-31.5 30.5t-37.5 59.5t-46.5 96.5q-39 86 -76.5 130.5t-82.5 50.5h-120v-353q0 -10 10 -10h46q3 0 3 -3t-3 -3h-137zM123 688v-313h134q37 0 70 9t58 28.5t39 50t14 73.5t-15 72t-40.5 47t-58 25.5t-67.5 7.5h-134zM240 775
q-1 0 -1 1q-13 14 -26 27t-27 27.5t-31 31t-38 37.5q-2 2 -1.5 3.5t4.5 -0.5l120 -100l121 100q2 2 3.5 0.5t-0.5 -3.5q-21 -21 -38 -37.5t-31 -31t-27 -27.5t-26 -27q-1 -1 -2 -1z" />
    <glyph glyph-name="rcaron" unicode="&#x159;" horiz-adv-x="343" 
d="M25 453q0 2 2 2h87q2 0 2 -2t-2 -2h-15v-176q12 39 34 73.5t50.5 61t62 42t68.5 15.5q9 0 14 -4.5t5.5 -9.5t-4 -9t-14.5 -3q-35 3 -70 -9.5t-65 -38t-51.5 -62.5t-29.5 -82v-235q0 -10 10 -10h37q2 0 2 -2t-2 -2h-118q-2 0 -2 2t2 2h39q10 0 10 10v411q0 23 -20 26h-30
q-2 0 -2 2zM171 538q-1 0 -1 1q-13 14 -26 27t-27 27.5t-31 31t-38 37.5q-2 2 -1.5 3.5t4.5 -0.5l120 -100l121 100q2 2 3.5 0.5t-0.5 -3.5q-21 -21 -38 -37.5t-31 -31t-27 -27.5t-26 -27q-1 -1 -2 -1z" />
    <glyph glyph-name="Sacute" unicode="&#x15a;" horiz-adv-x="527" 
d="M269 704q-47 0 -81.5 -12t-57 -31t-34 -43.5t-11.5 -49.5q0 -52 30.5 -83.5t76.5 -53.5t99.5 -40t99.5 -43t76.5 -62.5t30.5 -98.5q0 -37 -16 -74t-46 -67t-73.5 -48.5t-98.5 -18.5q-59 0 -104.5 18.5t-75.5 49t-44 69.5t-11 80q1 14 8 18.5t14.5 3t12.5 -8.5t2 -16
q-10 -33 -3.5 -69.5t31 -67.5t67.5 -51t105 -20q48 0 87 15.5t67 41t43.5 57.5t15.5 64q0 61 -30.5 98.5t-76.5 63t-100 44t-100 41t-76.5 54t-30.5 83.5q0 28 12.5 57.5t38 52.5t64 38t89.5 15t89.5 -14.5t64.5 -38t38.5 -53t10.5 -60.5q-1 -13 -7 -17.5t-12.5 -3t-11 7.5
t-1.5 15q8 25 4 53t-24 51t-57 38.5t-94 15.5zM261 870q3 6 7.5 11t13.5 5t9.5 -7.5t-4.5 -12.5l-52 -50h-2z" />
    <glyph glyph-name="sacute" unicode="&#x15b;" horiz-adv-x="403" 
d="M204 463q-33 0 -57 -8t-39.5 -21t-23.5 -29.5t-8 -33.5q0 -32 21.5 -51t54 -32.5t70.5 -24.5t70.5 -27t54 -40t21.5 -63q0 -24 -11.5 -49t-33 -45t-52.5 -32.5t-71 -12.5q-42 0 -74.5 12.5t-54.5 32.5t-32 46.5t-8 53.5q1 10 6 13.5t10.5 2t9.5 -6t1 -11.5
q-7 -22 -2.5 -46.5t22 -45t48 -34t75.5 -13.5q33 0 60 10.5t46.5 27.5t30 38.5t10.5 42.5q0 39 -21.5 63t-54 39.5t-70 26t-70 24t-54 33.5t-21.5 54q0 19 9 39t27.5 35.5t46 25.5t64.5 10q73 0 112.5 -35t32.5 -90q-2 -10 -7 -13.5t-10.5 -2t-9 6t-0.5 11.5q7 22 5 43
t-16 38t-40 27.5t-67 10.5zM221 633q3 6 7.5 11t13.5 5t9.5 -7.5t-4.5 -12.5l-52 -50h-2z" />
    <glyph glyph-name="Scircumflex" unicode="&#x15c;" horiz-adv-x="527" 
d="M269 704q-47 0 -81.5 -12t-57 -31t-34 -43.5t-11.5 -49.5q0 -52 30.5 -83.5t76.5 -53.5t99.5 -40t99.5 -43t76.5 -62.5t30.5 -98.5q0 -37 -16 -74t-46 -67t-73.5 -48.5t-98.5 -18.5q-59 0 -104.5 18.5t-75.5 49t-44 69.5t-11 80q1 14 8 18.5t14.5 3t12.5 -8.5t2 -16
q-10 -33 -3.5 -69.5t31 -67.5t67.5 -51t105 -20q48 0 87 15.5t67 41t43.5 57.5t15.5 64q0 61 -30.5 98.5t-76.5 63t-100 44t-100 41t-76.5 54t-30.5 83.5q0 28 12.5 57.5t38 52.5t64 38t89.5 15t89.5 -14.5t64.5 -38t38.5 -53t10.5 -60.5q-1 -13 -7 -17.5t-12.5 -3t-11 7.5
t-1.5 15q8 25 4 53t-24 51t-57 38.5t-94 15.5zM275 878l-120 -100q-4 -2 -4.5 -0.5t1.5 3.5q21 21 38 37.5t31 31t27 27.5t26 27q1 1 3 0q13 -14 26 -27t27 -27.5t31 -31t38 -37.5q2 -2 0.5 -3.5t-3.5 0.5z" />
    <glyph glyph-name="scircumflex" unicode="&#x15d;" horiz-adv-x="403" 
d="M204 463q-33 0 -57 -8t-39.5 -21t-23.5 -29.5t-8 -33.5q0 -32 21.5 -51t54 -32.5t70.5 -24.5t70.5 -27t54 -40t21.5 -63q0 -24 -11.5 -49t-33 -45t-52.5 -32.5t-71 -12.5q-42 0 -74.5 12.5t-54.5 32.5t-32 46.5t-8 53.5q1 10 6 13.5t10.5 2t9.5 -6t1 -11.5
q-7 -22 -2.5 -46.5t22 -45t48 -34t75.5 -13.5q33 0 60 10.5t46.5 27.5t30 38.5t10.5 42.5q0 39 -21.5 63t-54 39.5t-70 26t-70 24t-54 33.5t-21.5 54q0 19 9 39t27.5 35.5t46 25.5t64.5 10q73 0 112.5 -35t32.5 -90q-2 -10 -7 -13.5t-10.5 -2t-9 6t-0.5 11.5q7 22 5 43
t-16 38t-40 27.5t-67 10.5zM201 641l-120 -100q-4 -2 -4.5 -0.5t1.5 3.5q21 21 38 37.5t31 31t27 27.5t26 27q1 1 3 0q13 -14 26 -27t27 -27.5t31 -31t38 -37.5q2 -2 0.5 -3.5t-3.5 0.5z" />
    <glyph glyph-name="Scedilla" unicode="&#x15e;" horiz-adv-x="527" 
d="M269 704q-47 0 -81.5 -12t-57 -31t-34 -43.5t-11.5 -49.5q0 -52 30.5 -83.5t76.5 -53.5t99.5 -40t99.5 -43t76.5 -62.5t30.5 -98.5q0 -37 -16 -74t-46 -67t-73.5 -48.5t-98.5 -18.5h-1q1 -14 11.5 -24t22 -20.5t21 -23t9.5 -30.5q0 -32 -24 -50t-52 -17q-14 0 -27.5 7.5
t-22.5 23.5q-1 2 0 3t2 -1q8 -16 21 -23t27 -7q21 0 39 15t18 46q0 14 -7 26t-16 24t-16.5 24.5t-8.5 26.5q-58 1 -102.5 19.5t-74.5 49t-43.5 69t-10.5 79.5q1 14 8 18.5t14.5 3t12.5 -8.5t2 -16q-10 -33 -3.5 -69.5t31 -67.5t67.5 -51t105 -20q48 0 87 15.5t67 41
t43.5 57.5t15.5 64q0 61 -30.5 98.5t-76.5 63t-100 44t-100 41t-76.5 54t-30.5 83.5q0 28 12.5 57.5t38 52.5t64 38t89.5 15t89.5 -14.5t64.5 -38t38.5 -53t10.5 -60.5q-1 -13 -7 -17.5t-12.5 -3t-11 7.5t-1.5 15q8 25 4 53t-24 51t-57 38.5t-94 15.5z" />
    <glyph glyph-name="scedilla" unicode="&#x15f;" horiz-adv-x="403" 
d="M204 463q-33 0 -57 -8t-39.5 -21t-23.5 -29.5t-8 -33.5q0 -32 21.5 -51t54 -32.5t70.5 -24.5t70.5 -27t54 -40t21.5 -63q0 -24 -11.5 -49t-33 -44.5t-52.5 -32.5t-70 -13q1 -14 11 -24.5t22 -21t21.5 -23t9.5 -30.5q0 -32 -24 -50t-52 -17q-14 0 -27.5 7.5t-22.5 23.5
q-1 2 0 3t2 -1q8 -16 21 -23t27 -7q21 0 39 15t18 46q0 14 -7.5 26.5t-16.5 24.5t-16.5 24t-7.5 27q-42 0 -74 12.5t-53.5 33t-31.5 46.5t-8 53q1 10 6 13.5t10.5 2t9.5 -6t1 -11.5q-7 -22 -2.5 -46.5t22 -45t48 -34t75.5 -13.5q33 0 60 10.5t46.5 27.5t30 38.5t10.5 42.5
q0 39 -21.5 63t-54 39.5t-70 26t-70 24t-54 33.5t-21.5 54q0 19 9 39t27.5 35.5t46 25.5t64.5 10q73 0 112.5 -35t32.5 -90q-2 -10 -7 -13.5t-10.5 -2t-9 6t-0.5 11.5q7 22 5 43t-16 38t-40 27.5t-67 10.5z" />
    <glyph glyph-name="Scaron" unicode="&#x160;" horiz-adv-x="527" 
d="M269 704q-47 0 -81.5 -12t-57 -31t-34 -43.5t-11.5 -49.5q0 -52 30.5 -83.5t76.5 -53.5t99.5 -40t99.5 -43t76.5 -62.5t30.5 -98.5q0 -37 -16 -74t-46 -67t-73.5 -48.5t-98.5 -18.5q-59 0 -104.5 18.5t-75.5 49t-44 69.5t-11 80q1 14 8 18.5t14.5 3t12.5 -8.5t2 -16
q-10 -33 -3.5 -69.5t31 -67.5t67.5 -51t105 -20q48 0 87 15.5t67 41t43.5 57.5t15.5 64q0 61 -30.5 98.5t-76.5 63t-100 44t-100 41t-76.5 54t-30.5 83.5q0 28 12.5 57.5t38 52.5t64 38t89.5 15t89.5 -14.5t64.5 -38t38.5 -53t10.5 -60.5q-1 -13 -7 -17.5t-12.5 -3t-11 7.5
t-1.5 15q8 25 4 53t-24 51t-57 38.5t-94 15.5zM275 775q-1 0 -1 1q-13 14 -26 27t-27 27.5t-31 31t-38 37.5q-2 2 -1.5 3.5t4.5 -0.5l120 -100l121 100q2 2 3.5 0.5t-0.5 -3.5q-21 -21 -38 -37.5t-31 -31t-27 -27.5t-26 -27q-1 -1 -2 -1z" />
    <glyph glyph-name="scaron" unicode="&#x161;" horiz-adv-x="403" 
d="M204 463q-33 0 -57 -8t-39.5 -21t-23.5 -29.5t-8 -33.5q0 -32 21.5 -51t54 -32.5t70.5 -24.5t70.5 -27t54 -40t21.5 -63q0 -24 -11.5 -49t-33 -45t-52.5 -32.5t-71 -12.5q-42 0 -74.5 12.5t-54.5 32.5t-32 46.5t-8 53.5q1 10 6 13.5t10.5 2t9.5 -6t1 -11.5
q-7 -22 -2.5 -46.5t22 -45t48 -34t75.5 -13.5q33 0 60 10.5t46.5 27.5t30 38.5t10.5 42.5q0 39 -21.5 63t-54 39.5t-70 26t-70 24t-54 33.5t-21.5 54q0 19 9 39t27.5 35.5t46 25.5t64.5 10q73 0 112.5 -35t32.5 -90q-2 -10 -7 -13.5t-10.5 -2t-9 6t-0.5 11.5q7 22 5 43
t-16 38t-40 27.5t-67 10.5zM201 538q-1 0 -1 1q-13 14 -26 27t-27 27.5t-31 31t-38 37.5q-2 2 -1.5 3.5t4.5 -0.5l120 -100l121 100q2 2 3.5 0.5t-0.5 -3.5q-21 -21 -38 -37.5t-31 -31t-27 -27.5t-26 -27q-1 -1 -2 -1z" />
    <glyph glyph-name="Tcommaaccent" unicode="&#x162;" horiz-adv-x="601" 
d="M235 0q-5 0 -5 3t5 3h44q10 0 10 10v662q0 10 -10 10h-184q-24 -2 -36 -16.5t-12 -32.5v-62h-6v117h529v-117h-6v62q0 20 -13.5 34.5t-39.5 14.5h-185q-10 0 -10 -10v-662q0 -10 10 -10h46q3 0 3 -3t-3 -3h-137zM286 -166q-2 -2 -3 -1t1 3q10 14 14 29t-4 21
q-12 5 -12 17q0 8 5 13t13 5t13 -5t5 -13q0 -11 -3.5 -21.5t-9 -20t-11 -16.5t-8.5 -11z" />
    <glyph glyph-name="tcommaaccent" unicode="&#x163;" horiz-adv-x="196" 
d="M27 453q0 2 2 2h21q18 1 28 11.5t15.5 25.5t6.5 32t1 31h4v-79q0 -7 -5 -13t-16 -8h120q4 0 4 -2t-4 -2h-82q-22 0 -22 -26v-367q0 -29 13 -41.5t33 -12.5q14 0 25 9.5t11 28.5q0 4 2.5 4t2.5 -4q0 -22 -15 -34t-38 -11q-56 2 -56 73v381h-49q-2 0 -2 2zM95 -166
q-2 -2 -3 -1t1 3q10 14 14 29t-4 21q-12 5 -12 17q0 8 5 13t13 5t13 -5t5 -13q0 -11 -3.5 -21.5t-9 -20t-11 -16.5t-8.5 -11z" />
    <glyph glyph-name="Tcaron" unicode="&#x164;" horiz-adv-x="601" 
d="M235 0q-5 0 -5 3t5 3h44q10 0 10 10v662q0 10 -10 10h-184q-24 -2 -36 -16.5t-12 -32.5v-62h-6v117h529v-117h-6v62q0 20 -13.5 34.5t-39.5 14.5h-185q-10 0 -10 -10v-662q0 -10 10 -10h46q3 0 3 -3t-3 -3h-137zM300 775q-1 0 -1 1q-13 14 -26 27t-27 27.5t-31 31
t-38 37.5q-2 2 -1.5 3.5t4.5 -0.5l120 -100l121 100q2 2 3.5 0.5t-0.5 -3.5q-21 -21 -38 -37.5t-31 -31t-27 -27.5t-26 -27q-1 -1 -2 -1z" />
    <glyph glyph-name="tcaron" unicode="&#x165;" horiz-adv-x="343" 
d="M27 453q0 2 2 2h21q18 1 28 11.5t15.5 25.5t6.5 32t1 31h4v-79q0 -7 -5 -13t-16 -8h120q4 0 4 -2t-4 -2h-82q-22 0 -22 -26v-367q0 -29 13 -41.5t33 -12.5q14 0 25 9.5t11 28.5q0 4 2.5 4t2.5 -4q0 -22 -15 -34t-38 -11q-56 2 -56 73v381h-49q-2 0 -2 2zM265 591
q-3 -2 -3.5 -0.5t1.5 3.5q11 8 18 18.5t7 22.5q0 13 -8 20t-8 18q0 14 14 14q6 0 11.5 -5.5t5.5 -19.5q0 -17 -8.5 -36t-29.5 -35z" />
    <glyph glyph-name="Tbar" unicode="&#x166;" horiz-adv-x="579" 
d="M147 384h126v294q0 10 -10 10h-184q-24 -2 -36 -16.5t-12 -32.5v-62h-6v117h529v-117h-6v62q0 20 -13.5 34.5t-39.5 14.5h-185q-10 0 -10 -10v-294h125v-6h-125v-362q0 -10 10 -10h46q3 0 3 -3t-3 -3h-137q-5 0 -5 3t5 3h44q10 0 10 10v362h-126v6z" />
    <glyph glyph-name="tbar" unicode="&#x167;" horiz-adv-x="196" 
d="M27 453q0 2 2 2h21q18 1 28 11.5t15.5 25.5t6.5 32t1 31h4v-79q0 -7 -5 -13t-16 -8h120q4 0 4 -2t-4 -2h-82q-22 0 -22 -26v-114h94v-6h-94v-247q0 -29 13 -41.5t33 -12.5q14 0 25 9.5t11 28.5q0 4 2.5 4t2.5 -4q0 -22 -15 -34t-38 -11q-56 2 -56 73v235h-45v6h45v140
h-49q-2 0 -2 2z" />
    <glyph glyph-name="Utilde" unicode="&#x168;" horiz-adv-x="631" 
d="M553 244q0 -71 -16.5 -120t-46 -79.5t-71 -44t-90.5 -13.5t-92.5 13.5t-76 44t-51.5 80.5t-19 124v429q0 10 -10 10h-35q-4 0 -4.5 2.5t3.5 3.5h114q3 0 3 -3t-3 -3h-31q-10 0 -10 -10v-438q0 -78 17.5 -126.5t47 -75.5t67.5 -36.5t80 -9.5q46 0 86.5 12.5t69.5 42t46 78
t17 119.5v434q0 10 -10 10h-39q-4 0 -4.5 3t4.5 3h102q3 0 3 -3t-3 -3h-38q-10 0 -10 -10v-434zM468 844q0 -32 -17 -53.5t-50 -21.5q-18 0 -33 9t-29.5 19.5t-29 19.5t-30.5 9q-24 0 -38 -19.5t-14 -49.5q0 -2 -2 -2t-2 2q0 37 20 57.5t53 20.5q17 0 30.5 -8.5t27 -18
t27.5 -18t31 -8.5q26 0 39 16.5t13 45.5q0 3 2 3t2 -3z" />
    <glyph glyph-name="utilde" unicode="&#x169;" horiz-adv-x="503" 
d="M415 455q10 0 10 -10v-408q0 -16 9 -25.5t23 -9.5q11 0 21 9t10 28q0 3 2.5 3t2.5 -3q0 -22 -13 -32t-30 -10q-21 0 -34 14.5t-13 43.5v249q-6 -57 -22.5 -112t-42 -99t-60.5 -71t-79 -27q-24 0 -47 7t-40 23.5t-27.5 45t-10.5 72.5v282q0 23 -20 26h-30q-2 0 -2 2t2 2
h102q2 0 2 -2t-2 -2h-30v-311q0 -47 9.5 -75t25 -42t34.5 -18t39 -4q48 0 85 35.5t62.5 90.5t38.5 120.5t13 125.5v72q0 10 10 10h2zM384 615q0 -32 -17 -53.5t-50 -21.5q-18 0 -33 9t-29.5 19.5t-29 19.5t-30.5 9q-24 0 -38 -19.5t-14 -49.5q0 -2 -2 -2t-2 2q0 37 20 57.5
t53 20.5q17 0 30.5 -8.5t27 -18t27.5 -18t31 -8.5q26 0 39 16.5t13 45.5q0 3 2 3t2 -3z" />
    <glyph glyph-name="Umacron" unicode="&#x16a;" horiz-adv-x="654" 
d="M564 244q0 -71 -16.5 -120t-46 -79.5t-71 -44t-90.5 -13.5t-92.5 13.5t-76 44t-51.5 80.5t-19 124v429q0 10 -10 10h-35q-4 0 -4.5 2.5t3.5 3.5h114q3 0 3 -3t-3 -3h-31q-10 0 -10 -10v-438q0 -78 17.5 -126.5t47 -75.5t67.5 -36.5t80 -9.5q46 0 86.5 12.5t69.5 42t46 78
t17 119.5v434q0 10 -10 10h-39q-4 0 -4.5 3t4.5 3h102q3 0 3 -3t-3 -3h-38q-10 0 -10 -10v-434zM203 793h278v-6h-278v6z" />
    <glyph glyph-name="umacron" unicode="&#x16b;" horiz-adv-x="503" 
d="M415 455q10 0 10 -10v-408q0 -16 9 -25.5t23 -9.5q11 0 21 9t10 28q0 3 2.5 3t2.5 -3q0 -22 -13 -32t-30 -10q-21 0 -34 14.5t-13 43.5v249q-6 -57 -22.5 -112t-42 -99t-60.5 -71t-79 -27q-24 0 -47 7t-40 23.5t-27.5 45t-10.5 72.5v282q0 23 -20 26h-30q-2 0 -2 2t2 2
h102q2 0 2 -2t-2 -2h-30v-311q0 -47 9.5 -75t25 -42t34.5 -18t39 -4q48 0 85 35.5t62.5 90.5t38.5 120.5t13 125.5v72q0 10 10 10h2zM112 556h278v-6h-278v6z" />
    <glyph glyph-name="ubreve" unicode="&#x16d;" horiz-adv-x="503" 
d="M415 455q10 0 10 -10v-408q0 -16 9 -25.5t23 -9.5q11 0 21 9t10 28q0 3 2.5 3t2.5 -3q0 -22 -13 -32t-30 -10q-21 0 -34 14.5t-13 43.5v249q-6 -57 -22.5 -112t-42 -99t-60.5 -71t-79 -27q-24 0 -47 7t-40 23.5t-27.5 45t-10.5 72.5v282q0 23 -20 26h-30q-2 0 -2 2t2 2
h102q2 0 2 -2t-2 -2h-30v-311q0 -47 9.5 -75t25 -42t34.5 -18t39 -4q48 0 85 35.5t62.5 90.5t38.5 120.5t13 125.5v72q0 10 10 10h2zM249 532q-16 0 -31.5 7t-28 20.5t-20.5 33t-8 44.5q0 5 3 8.5t6.5 3.5t6.5 -2.5t3 -9.5q0 -10 -5.5 -18.5t-2.5 -16.5q9 -23 29 -36.5
t48 -13.5h4q28 0 48 13.5t29 36.5q3 8 -2.5 16.5t-5.5 18.5q0 7 3 9.5t6.5 2.5t6.5 -3.5t3 -8.5q0 -25 -8 -44.5t-20.5 -33t-28 -20.5t-31.5 -7h-4z" />
    <glyph glyph-name="Uring" unicode="&#x16e;" horiz-adv-x="654" 
d="M564 244q0 -71 -16.5 -120t-46 -79.5t-71 -44t-90.5 -13.5t-92.5 13.5t-76 44t-51.5 80.5t-19 124v429q0 10 -10 10h-35q-4 0 -4.5 2.5t3.5 3.5h114q3 0 3 -3t-3 -3h-31q-10 0 -10 -10v-438q0 -78 17.5 -126.5t47 -75.5t67.5 -36.5t80 -9.5q46 0 86.5 12.5t69.5 42t46 78
t17 119.5v434q0 10 -10 10h-39q-4 0 -4.5 3t4.5 3h102q3 0 3 -3t-3 -3h-38q-10 0 -10 -10v-434zM283 834q0 28 19 47t47 19t47 -19t19 -47t-19 -47t-47 -19t-47 19t-19 47zM288 834q0 -25 18 -43t43 -18t43 18t18 43t-18 43t-43 18t-43 -18t-18 -43z" />
    <glyph glyph-name="uring" unicode="&#x16f;" horiz-adv-x="503" 
d="M415 455q10 0 10 -10v-408q0 -16 9 -25.5t23 -9.5q11 0 21 9t10 28q0 3 2.5 3t2.5 -3q0 -22 -13 -32t-30 -10q-21 0 -34 14.5t-13 43.5v249q-6 -57 -22.5 -112t-42 -99t-60.5 -71t-79 -27q-24 0 -47 7t-40 23.5t-27.5 45t-10.5 72.5v282q0 23 -20 26h-30q-2 0 -2 2t2 2
h102q2 0 2 -2t-2 -2h-30v-311q0 -47 9.5 -75t25 -42t34.5 -18t39 -4q48 0 85 35.5t62.5 90.5t38.5 120.5t13 125.5v72q0 10 10 10h2zM185 597q0 28 19 47t47 19t47 -19t19 -47t-19 -47t-47 -19t-47 19t-19 47zM190 597q0 -25 18 -43t43 -18t43 18t18 43t-18 43t-43 18
t-43 -18t-18 -43z" />
    <glyph glyph-name="Uhungarumlaut" unicode="&#x170;" horiz-adv-x="654" 
d="M564 244q0 -71 -16.5 -120t-46 -79.5t-71 -44t-90.5 -13.5t-92.5 13.5t-76 44t-51.5 80.5t-19 124v429q0 10 -10 10h-35q-4 0 -4.5 2.5t3.5 3.5h114q3 0 3 -3t-3 -3h-31q-10 0 -10 -10v-438q0 -78 17.5 -126.5t47 -75.5t67.5 -36.5t80 -9.5q46 0 86.5 12.5t69.5 42t46 78
t17 119.5v434q0 10 -10 10h-39q-4 0 -4.5 3t4.5 3h102q3 0 3 -3t-3 -3h-38q-10 0 -10 -10v-434zM303 870q3 6 7.5 11t13.5 5t9.5 -7.5t-4.5 -12.5l-52 -50h-2zM404 870q3 6 7.5 11t13.5 5t9.5 -7.5t-4.5 -12.5l-52 -50h-2z" />
    <glyph glyph-name="uhungarumlaut" unicode="&#x171;" horiz-adv-x="503" 
d="M415 455q10 0 10 -10v-408q0 -16 9 -25.5t23 -9.5q11 0 21 9t10 28q0 3 2.5 3t2.5 -3q0 -22 -13 -32t-30 -10q-21 0 -34 14.5t-13 43.5v249q-6 -57 -22.5 -112t-42 -99t-60.5 -71t-79 -27q-24 0 -47 7t-40 23.5t-27.5 45t-10.5 72.5v282q0 23 -20 26h-30q-2 0 -2 2t2 2
h102q2 0 2 -2t-2 -2h-30v-311q0 -47 9.5 -75t25 -42t34.5 -18t39 -4q48 0 85 35.5t62.5 90.5t38.5 120.5t13 125.5v72q0 10 10 10h2zM215 633q3 6 7.5 11t13.5 5t9.5 -7.5t-4.5 -12.5l-52 -50h-2zM316 633q3 6 7.5 11t13.5 5t9.5 -7.5t-4.5 -12.5l-52 -50h-2z" />
    <glyph glyph-name="Uogonek" unicode="&#x172;" horiz-adv-x="654" 
d="M393 -151l2 1q1 0 1 1q1 0 1 -1q0 -3 -5 -6.5t-12.5 -6.5t-16 -5.5t-16.5 -2.5q-9 0 -21 2.5t-23 9t-19 19t-8 33.5q0 39 22.5 61t48.5 33h-7q-49 0 -92.5 13.5t-76 44t-51.5 80.5t-19 124v429q0 10 -10 10h-35q-4 0 -4.5 2.5t3.5 3.5h114q3 0 3 -3t-3 -3h-31
q-10 0 -10 -10v-438q0 -78 17.5 -126.5t47 -75.5t67.5 -36.5t80 -9.5q46 0 86.5 12.5t69.5 42t46 78t17 119.5v434q0 10 -10 10h-39q-4 0 -4.5 3t4.5 3h102q3 0 3 -3t-3 -3h-38q-10 0 -10 -10v-434q0 -68 -15 -115.5t-42.5 -78.5t-66 -45.5t-84.5 -16.5q-16 -6 -27 -17.5
t-17.5 -25t-9.5 -27.5t-3 -26q0 -27 13.5 -42.5t39.5 -15.5q23 0 41 15z" />
    <glyph glyph-name="uogonek" unicode="&#x173;" horiz-adv-x="503" 
d="M484 -140l2 1q1 0 1 1q1 0 1 -1q0 -3 -5 -6.5t-12.5 -6.5t-16 -5.5t-16.5 -2.5q-9 0 -21 2.5t-23 9t-19 19t-8 33.5q0 39 22.5 61t49.5 33q-17 3 -26.5 17.5t-9.5 39.5v249q-6 -57 -22.5 -112t-42 -99t-60.5 -71t-79 -27q-24 0 -47 7t-40 23.5t-27.5 45t-10.5 72.5v282
q0 23 -20 26h-30q-2 0 -2 2t2 2h102q2 0 2 -2t-2 -2h-30v-311q0 -47 9.5 -75t25 -42t34.5 -18t39 -4q48 0 85 35.5t62.5 90.5t38.5 120.5t13 125.5v82h22v-418q0 -16 9 -25.5t23 -9.5q11 0 21 9t10 28q0 3 2.5 3t2.5 -3q0 -22 -13 -32t-30 -10h-6q-15 -6 -25.5 -17.5
t-17 -24.5t-9 -26.5t-2.5 -25.5q0 -27 13.5 -42.5t39.5 -15.5q23 0 41 15z" />
    <glyph glyph-name="Wcircumflex" unicode="&#x174;" horiz-adv-x="945" 
d="M685 -6l-197 546l-166 -546h-7l-250 694h-47q-4 0 -4 3t4 3h120q3 0 3 -3t-3 -3h-44l234 -648l156 511l-49 137h-45q-4 0 -4 3t4 3h121q3 0 3 -3t-3 -3h-47l234 -647l206 647h-54q-4 0 -4 3t4 3h113q3 0 3 -3t-3 -3h-53l-218 -694h-7zM478 878l-120 -100q-4 -2 -4.5 -0.5
t1.5 3.5q21 21 38 37.5t31 31t27 27.5t26 27q1 1 3 0q13 -14 26 -27t27 -27.5t31 -31t38 -37.5q2 -2 0.5 -3.5t-3.5 0.5z" />
    <glyph glyph-name="Ycircumflex" unicode="&#x176;" horiz-adv-x="539" 
d="M285 317l-212 371h-53q-4 0 -4 3t4 3h129q3 0 3 -3t-3 -3h-47l207 -356l203 356h-58q-4 0 -4.5 3t4.5 3h128q3 0 3 -3t-3 -3h-63l-208 -364v-308q0 -10 10 -10h44q4 0 4 -3t-4 -3h-135q-3 0 -3 3t3 3h45q10 0 10 10v301zM302 878l-120 -100q-4 -2 -4.5 -0.5t1.5 3.5
q21 21 38 37.5t31 31t27 27.5t26 27q1 1 3 0q13 -14 26 -27t27 -27.5t31 -31t38 -37.5q2 -2 0.5 -3.5t-3.5 0.5z" />
    <glyph glyph-name="Ydieresis" unicode="&#x178;" horiz-adv-x="539" 
d="M285 317l-212 371h-53q-4 0 -4 3t4 3h129q3 0 3 -3t-3 -3h-47l207 -356l203 356h-58q-4 0 -4.5 3t4.5 3h128q3 0 3 -3t-3 -3h-63l-208 -364v-308q0 -10 10 -10h44q4 0 4 -3t-4 -3h-135q-3 0 -3 3t3 3h45q10 0 10 10v301zM381 805q-8 0 -13 5t-5 13t5 13t13 5t13 -5t5 -13
t-5 -13t-13 -5zM219 805q-8 0 -13 5t-5 13t5 13t13 5t13 -5t5 -13t-5 -13t-13 -5z" />
    <glyph glyph-name="Zacute" unicode="&#x179;" horiz-adv-x="572" 
d="M488 688h-352q-32 0 -45.5 -17.5t-13.5 -45.5v-64h-5v133h452l-446 -688h379q30 0 45 21t15 54v43h6v-124h-480zM316 870q3 6 7.5 11t13.5 5t9.5 -7.5t-4.5 -12.5l-52 -50h-2z" />
    <glyph glyph-name="zacute" unicode="&#x17a;" horiz-adv-x="399" 
d="M337 451h-227q-21 0 -34.5 -13.5t-13.5 -31.5v-38h-4v87h306l-298 -451h243q20 0 33.5 16.5t13.5 38.5v22h4v-81h-320zM216 633q3 6 7.5 11t13.5 5t9.5 -7.5t-4.5 -12.5l-52 -50h-2z" />
    <glyph glyph-name="Zdotaccent" unicode="&#x17b;" horiz-adv-x="572" 
d="M488 688h-352q-32 0 -45.5 -17.5t-13.5 -45.5v-64h-5v133h452l-446 -688h379q30 0 45 21t15 54v43h6v-124h-480zM269 883q0 17 17 17t17 -17t-17 -17t-17 17z" />
    <glyph glyph-name="zdotaccent" unicode="&#x17c;" horiz-adv-x="399" 
d="M337 451h-227q-21 0 -34.5 -13.5t-13.5 -31.5v-38h-4v87h306l-298 -451h243q20 0 33.5 16.5t13.5 38.5v22h4v-81h-320zM197 646q0 17 17 17t17 -17t-17 -17t-17 17z" />
    <glyph glyph-name="Zcaron" unicode="&#x17d;" horiz-adv-x="572" 
d="M488 688h-352q-32 0 -45.5 -17.5t-13.5 -45.5v-64h-5v133h452l-446 -688h379q30 0 45 21t15 54v43h6v-124h-480zM298 775q-1 0 -1 1q-13 14 -26 27t-27 27.5t-31 31t-38 37.5q-2 2 -1.5 3.5t4.5 -0.5l120 -100l121 100q2 2 3.5 0.5t-0.5 -3.5q-21 -21 -38 -37.5t-31 -31
t-27 -27.5t-26 -27q-1 -1 -2 -1z" />
    <glyph glyph-name="zcaron" unicode="&#x17e;" horiz-adv-x="399" 
d="M337 451h-227q-21 0 -34.5 -13.5t-13.5 -31.5v-38h-4v87h306l-298 -451h243q20 0 33.5 16.5t13.5 38.5v22h4v-81h-320zM207 538q-1 0 -1 1q-13 14 -26 27t-27 27.5t-31 31t-38 37.5q-2 2 -1.5 3.5t4.5 -0.5l120 -100l121 100q2 2 3.5 0.5t-0.5 -3.5q-21 -21 -38 -37.5
t-31 -31t-27 -27.5t-26 -27q-1 -1 -2 -1z" />
    <glyph glyph-name="florin" unicode="&#x192;" horiz-adv-x="224" 
d="M84 444q0 7 -7 7h-50q-2 0 -2 2t2 2h50q7 0 7 7v32q0 115 52.5 177.5t152.5 54.5q20 -2 27.5 -7t7 -10.5t-7.5 -9t-17 -1.5q-63 14 -101 4t-58.5 -38t-27 -72t-6.5 -98v-32q0 -7 7 -7h70q3 0 3 -2t-3 -2h-70q-7 0 -7 -7v-366q0 -75 -24 -134.5t-69 -98.5
q-35 -31 -89 -44.5t-111 -10.5q-20 1 -28.5 6.5t-8.5 11.5t6.5 10t15.5 1q31 -9 62 -10.5t59 3t51 14t39 23.5q42 35 58.5 94.5t16.5 134.5v366v0z" />
    <glyph glyph-name="Ohorn" unicode="&#x1a0;" horiz-adv-x="678" 
d="M338 -16q-60 0 -112.5 22.5t-91.5 68.5t-61.5 115.5t-22.5 163.5q0 89 23.5 154.5t62.5 109.5t90.5 66t107.5 24h10q55 -2 106 -24q48 -21 85 -60l1 1q13 10 26.5 27.5t6.5 35.5q-5 2 -11 6.5t-6 10.5q0 8 5 13t13 5t13 -5t5 -13q0 -22 -5.5 -36.5t-13.5 -24t-16.5 -15
t-14.5 -8.5l3 -3q40 -44 63.5 -109.5t23.5 -154.5q0 -94 -22.5 -163.5t-61.5 -115.5t-91.5 -68.5t-112.5 -22.5h-2zM340 -11q54 0 101 20t81.5 63.5t54.5 113t20 168.5q0 92 -19.5 157.5t-54 107.5t-80.5 61.5t-98 21.5h-10q-53 -1 -99.5 -21t-81 -61.5t-54 -107
t-19.5 -158.5q0 -99 20 -168.5t54.5 -113t81.5 -63.5t101 -20h2z" />
    <glyph glyph-name="ohorn" unicode="&#x1a1;" horiz-adv-x="497" 
d="M249 467q40 0 77 -14t65 -42q8 -8 15 -17q7 5 14.5 12t13 15.5t7.5 17.5t-2 18q-5 2 -11 6.5t-6 10.5q0 8 5 13t13 5t13 -5t5 -13q0 -22 -5.5 -36.5t-13.5 -24t-16.5 -15t-13.5 -8.5q15 -21 26 -49q17 -42 17 -99v-11q0 -49 -13 -91.5t-38.5 -74.5t-64 -50.5t-88.5 -18.5
t-88 18.5t-63.5 50.5t-38.5 74.5t-13 91.5v11q0 30 10 64t30 58q4 23 19.5 42t38 32.5t50 21t56.5 7.5zM249 463q-36 0 -65 -10.5t-47.5 -27.5t-26 -38t-0.5 -43q3 -7 -0.5 -11.5t-9 -6t-10.5 2t-6 13.5q-1 6 0 13l-2 -1l-3 -23q-10 -37 -10 -89v-11q0 -50 10 -92t32 -73
t55.5 -48.5t81.5 -17.5t82 17.5t55.5 48.5t31.5 73t10 92v11q0 60 -14.5 102t-39.5 68.5t-57 38.5t-67 12z" />
    <glyph glyph-name="Uhorn" unicode="&#x1af;" horiz-adv-x="654" 
d="M565 644l-1 -1v-399q0 -71 -16.5 -120t-46 -79.5t-71 -44t-90.5 -13.5t-92.5 13.5t-76 44t-51.5 80.5t-19 124v429q0 10 -10 10h-35q-4 0 -4.5 2.5t3.5 3.5h114q3 0 3 -3t-3 -3h-31q-10 0 -10 -10v-438q0 -78 17.5 -126.5t47 -75.5t67.5 -36.5t80 -9.5q46 0 86.5 12.5
t69.5 42t46 78t17 119.5v434q0 10 -10 10h-39q-4 0 -4.5 3t4.5 3h59q3 0 3 -3t-3 -3h-2q-3 0 -3 -2v-38q8 7 16 13.5t13 14t6.5 16t-3.5 19.5q-5 2 -11 6.5t-6 10.5q0 8 5 13t13 5t13 -5t5 -13q0 -22 -5.5 -36.5t-13.5 -24t-16.5 -15t-14.5 -8.5z" />
    <glyph glyph-name="uhorn" unicode="&#x1b0;" horiz-adv-x="503" 
d="M426 407l-1 -1v-369q0 -16 9 -25.5t23 -9.5q11 0 21 9t10 28q0 3 2.5 3t2.5 -3q0 -22 -13 -32t-30 -10q-21 0 -34 14.5t-13 43.5v249q-6 -57 -22.5 -112t-42 -99t-60.5 -71t-79 -27q-24 0 -47 7t-40 23.5t-27.5 45t-10.5 72.5v282q0 23 -20 26h-30q-2 0 -2 2t2 2h102
q2 0 2 -2t-2 -2h-30v-311q0 -47 9.5 -75t25 -42t34.5 -18t39 -4q48 0 85 35.5t62.5 90.5t38.5 120.5t13 125.5v72q0 10 10 10h2q10 0 10 -10v-34q8 7 16 13.5t13 14t6.5 16t-3.5 19.5q-5 2 -11 6.5t-6 10.5q0 8 5 13t13 5t13 -5t5 -13q0 -22 -5.5 -36.5t-13.5 -24t-16.5 -15
t-14.5 -8.5z" />
    <glyph glyph-name="AEacute" unicode="&#x1fc;" horiz-adv-x="945" 
d="M142 6q3 0 3 -3t-3 -3h-115q-4 0 -4 3t4 3h37q8 1 15 6t12 11l3 4q3 6 3 5l407 656h-73q-4 0 -4 3t4 3h425v-117h-6v62q0 20 -13.5 34.5t-39.5 14.5h-245q-7 0 -7 -7v-301q0 -7 7 -7h175q17 1 30.5 10.5t13.5 27.5v31h6v-144h-6v29q0 20 -15 30t-34 10h-170q-7 0 -7 -7
v-347q0 -7 7 -7h286q18 2 34.5 18.5t16.5 41.5v39h6v-105h-447q-4 0 -4 3t4 3h63q7 0 7 7v327h-223l-194 -312q-1 -1 -1 -2q-4 -8 -3.5 -13.5t8.5 -6.5h37zM518 681q0 7 -7 7l-213 -342h220v335zM594 870q3 6 7.5 11t13.5 5t9.5 -7.5t-4.5 -12.5l-52 -50h-2z" />
    <glyph glyph-name="aeacute" unicode="&#x1fd;" horiz-adv-x="764" 
d="M550 -1q38 0 68.5 13.5t50 34t27 45t0.5 46.5q-3 7 1 11.5t9.5 6t10.5 -2t6 -13.5q2 -27 -12 -53.5t-38.5 -46.5t-56.5 -32.5t-65 -12.5q-53 0 -90.5 19t-61 53t-33.5 80t-8 99v35q-7 -49 -24 -100t-44 -92t-63.5 -67.5t-81.5 -26.5q-26 0 -47 8.5t-35.5 23t-22 33.5
t-7.5 40q0 41 20 64.5t52 38t72 23.5t81 22q34 10 54 21.5t30.5 25.5t13.5 30t3 35q0 15 -6 32.5t-20.5 33.5t-38 26.5t-59.5 10.5t-63.5 -12.5t-44 -31.5t-21.5 -43t3 -46q3 -7 -1 -11.5t-9.5 -6t-11 2t-6.5 13.5q-2 28 9.5 53.5t33 44.5t50.5 30t61 11q37 0 64 -9.5
t45 -25.5t27 -36.5t9 -42.5v-9q14 31 35.5 54.5t46 38.5t51.5 22.5t53 7.5q74 0 114.5 -30.5t40.5 -83.5q0 -18 -8 -35.5t-22.5 -32.5t-34 -26.5t-43.5 -17.5q-39 -9 -81 -20.5t-74 -28t-48.5 -40.5t-4.5 -58q10 -22 22 -39.5t29 -30t39.5 -19t54.5 -6.5zM379 215
q1 -51 18 -99q0 32 20 52.5t51.5 35t69.5 24t73 18.5q37 10 62.5 37t25.5 71q0 23 -6.5 43t-22 34.5t-41 23t-63.5 8.5q-33 0 -65.5 -12t-58.5 -38.5t-43 -67.5t-19 -99v-31h-1zM150 2q48 0 85.5 31.5t63.5 78.5t40.5 101.5t18.5 101.5q-7 -22 -28 -38.5t-67 -31.5
q-30 -10 -66 -18.5t-66.5 -23t-51 -37.5t-20.5 -63v-9q0 -37 24.5 -64.5t66.5 -27.5zM397 633q3 6 7.5 11t13.5 5t9.5 -7.5t-4.5 -12.5l-52 -50h-2z" />
    <glyph glyph-name="Scommaaccent" unicode="&#x218;" horiz-adv-x="527" 
d="M269 704q-47 0 -81.5 -12t-57 -31t-34 -43.5t-11.5 -49.5q0 -52 30.5 -83.5t76.5 -53.5t99.5 -40t99.5 -43t76.5 -62.5t30.5 -98.5q0 -37 -16 -74t-46 -67t-73.5 -48.5t-98.5 -18.5q-59 0 -104.5 18.5t-75.5 49t-44 69.5t-11 80q1 14 8 18.5t14.5 3t12.5 -8.5t2 -16
q-10 -33 -3.5 -69.5t31 -67.5t67.5 -51t105 -20q48 0 87 15.5t67 41t43.5 57.5t15.5 64q0 61 -30.5 98.5t-76.5 63t-100 44t-100 41t-76.5 54t-30.5 83.5q0 28 12.5 57.5t38 52.5t64 38t89.5 15t89.5 -14.5t64.5 -38t38.5 -53t10.5 -60.5q-1 -13 -7 -17.5t-12.5 -3t-11 7.5
t-1.5 15q8 25 4 53t-24 51t-57 38.5t-94 15.5z" />
    <glyph glyph-name="scommaaccent" unicode="&#x219;" horiz-adv-x="403" 
d="M204 463q-33 0 -57 -8t-39.5 -21t-23.5 -29.5t-8 -33.5q0 -32 21.5 -51t54 -32.5t70.5 -24.5t70.5 -27t54 -40t21.5 -63q0 -24 -11.5 -49t-33 -45t-52.5 -32.5t-71 -12.5q-42 0 -74.5 12.5t-54.5 32.5t-32 46.5t-8 53.5q1 10 6 13.5t10.5 2t9.5 -6t1 -11.5
q-7 -22 -2.5 -46.5t22 -45t48 -34t75.5 -13.5q33 0 60 10.5t46.5 27.5t30 38.5t10.5 42.5q0 39 -21.5 63t-54 39.5t-70 26t-70 24t-54 33.5t-21.5 54q0 19 9 39t27.5 35.5t46 25.5t64.5 10q73 0 112.5 -35t32.5 -90q-2 -10 -7 -13.5t-10.5 -2t-9 6t-0.5 11.5q7 22 5 43
t-16 38t-40 27.5t-67 10.5zM187 -166q-2 -2 -3 -1t1 3q10 14 14 29t-4 21q-12 5 -12 17q0 8 5 13t13 5t13 -5t5 -13q0 -11 -3.5 -21.5t-9 -20t-11 -16.5t-8.5 -11z" />
    <glyph glyph-name="circumflex" unicode="&#x2c6;" horiz-adv-x="408" 
d="M205 641l-120 -100q-4 -2 -4.5 -0.5t1.5 3.5q21 21 38 37.5t31 31t27 27.5t26 27q1 1 3 0q13 -14 26 -27t27 -27.5t31 -31t38 -37.5q2 -2 0.5 -3.5t-3.5 0.5z" />
    <glyph glyph-name="caron" unicode="&#x2c7;" horiz-adv-x="419" 
d="M205 538q-1 0 -1 1q-13 14 -26 27t-27 27.5t-31 31t-38 37.5q-2 2 -1.5 3.5t4.5 -0.5l120 -100l121 100q2 2 3.5 0.5t-0.5 -3.5q-21 -21 -38 -37.5t-31 -31t-27 -27.5t-26 -27q-1 -1 -2 -1z" />
    <glyph glyph-name="breve" unicode="&#x2d8;" horiz-adv-x="300" 
d="M152 532q-16 0 -31.5 7t-28 20.5t-20.5 33t-8 44.5q0 5 3 8.5t6.5 3.5t6.5 -2.5t3 -9.5q0 -10 -5.5 -18.5t-2.5 -16.5q9 -23 29 -36.5t48 -13.5h4q28 0 48 13.5t29 36.5q3 8 -2.5 16.5t-5.5 18.5q0 7 3 9.5t6.5 2.5t6.5 -3.5t3 -8.5q0 -25 -8 -44.5t-20.5 -33t-28 -20.5
t-31.5 -7h-4v0z" />
    <glyph glyph-name="dotaccent" unicode="&#x2d9;" horiz-adv-x="170" 
d="M67 646q0 17 17 17t17 -17t-17 -17t-17 17z" />
    <glyph glyph-name="ring" unicode="&#x2da;" horiz-adv-x="465" 
d="M177 597q0 28 19 47t47 19t47 -19t19 -47t-19 -47t-47 -19t-47 19t-19 47zM182 597q0 -25 18 -43t43 -18t43 18t18 43t-18 43t-43 18t-43 -18t-18 -43z" />
    <glyph glyph-name="ogonek" unicode="&#x2db;" horiz-adv-x="273" 
d="M197 -143l2 1q1 0 1 1q1 0 1 -1q0 -3 -5 -6.5t-12.5 -6.5t-16 -5.5t-16.5 -2.5q-9 0 -21 2.5t-23 9t-19 19t-8 33.5t7.5 37t19.5 28t26.5 20t28.5 13l4 -2q-18 -5 -30 -16.5t-19.5 -25t-10.5 -28.5t-3 -27q0 -27 13.5 -42.5t39.5 -15.5q23 0 41 15z" />
    <glyph glyph-name="tilde" unicode="&#x2dc;" horiz-adv-x="467" 
d="M342 637q0 -32 -17 -53.5t-50 -21.5q-18 0 -33 9t-29.5 19.5t-29 19.5t-30.5 9q-24 0 -38 -19.5t-14 -49.5q0 -2 -2 -2t-2 2q0 37 20 57.5t53 20.5q17 0 30.5 -8.5t27 -18t27.5 -18t31 -8.5q26 0 39 16.5t13 45.5q0 3 2 3t2 -3z" />
    <glyph glyph-name="hungarumlaut" unicode="&#x2dd;" horiz-adv-x="329" 
d="M128 633q3 6 7.5 11t13.5 5t9.5 -7.5t-4.5 -12.5l-52 -50h-2zM229 633q3 6 7.5 11t13.5 5t9.5 -7.5t-4.5 -12.5l-52 -50h-2z" />
    <glyph glyph-name="gravecomb" unicode="&#x300;" horiz-adv-x="254" 
d="M161 579h-2l-52 50q-5 5 -4.5 12.5t9.5 7.5t13.5 -5t7.5 -11z" />
    <glyph glyph-name="acutecomb" unicode="&#x301;" horiz-adv-x="158" 
d="M128 633q3 6 7.5 11t13.5 5t9.5 -7.5t-4.5 -12.5l-52 -50h-2l28 54v0z" />
    <glyph glyph-name="tildecomb" unicode="&#x303;" horiz-adv-x="467" 
d="M342 637q0 -32 -17 -53.5t-50 -21.5q-18 0 -33 9t-29.5 19.5t-29 19.5t-30.5 9q-24 0 -38 -19.5t-14 -49.5q0 -2 -2 -2t-2 2q0 37 20 57.5t53 20.5q17 0 30.5 -8.5t27 -18t27.5 -18t31 -8.5q26 0 39 16.5t13 45.5q0 3 2 3t2 -3z" />
    <glyph glyph-name="hookabovecomb" unicode="&#x309;" horiz-adv-x="833" 
 />
    <glyph glyph-name="dotbelowcomb" unicode="&#x323;" horiz-adv-x="158" 
d="M54 -98q0 8 5 13t13 5t13 -5t5 -13t-5 -13t-13 -5t-13 5t-5 13z" />
    <glyph glyph-name="afii10023" unicode="&#x401;" horiz-adv-x="538" 
d="M137 397q-7 0 -7 -7v-377q0 -7 7 -7h312q18 2 34.5 18.5t16.5 41.5v39h6v-105h-457q-4 0 -4 3t4 3h47q7 0 7 7v668q0 7 -7 7h-47q-4 0 -4 3t4 3h418v-117h-6v62q0 20 -13.5 34.5t-39.5 14.5h-271q-7 0 -7 -7v-271q0 -7 7 -7h201q17 1 30.5 10.5t13.5 27.5v31h6v-144h-6
v29q0 20 -15 30t-34 10h-196zM365 805q-8 0 -13 5t-5 13t5 13t13 5t13 -5t5 -13t-5 -13t-13 -5zM203 805q-8 0 -13 5t-5 13t5 13t13 5t13 -5t5 -13t-5 -13t-13 -5z" />
    <glyph glyph-name="afii10051" unicode="&#x402;" horiz-adv-x="741" 
d="M439 -159q-12 0 -18 5.5t-6 11.5t5 10t14 3q62 -11 100 -2t63 31q42 35 58.5 94.5t16.5 134.5v161q0 68 -37 108.5t-112 40.5q-44 0 -82 -20.5t-67.5 -54.5t-49 -78.5t-24.5 -91.5v-178q0 -10 10 -10h46q3 0 3 -3t-3 -3h-137q-5 0 -5 3t5 3h44q10 0 10 10v662
q0 10 -10 10h-184q-24 -2 -36 -16.5t-12 -32.5v-62h-6v117h529v-117h-6v62q0 18 -12.5 32.5t-35.5 16.5h-190q-10 0 -10 -10v-453q9 42 28.5 82t48.5 70.5t66 49t81 18.5q43 0 75.5 -12.5t54.5 -34t32.5 -51.5t10.5 -66v-152q0 -75 -25.5 -134.5t-70.5 -98.5
q-29 -26 -71 -41.5t-91 -13.5z" />
    <glyph glyph-name="afii10052" unicode="&#x403;" horiz-adv-x="503" 
d="M174 6q4 0 4 -3t-4 -3h-141q-4 0 -4 3t4 3h47q7 0 7 7v668q0 7 -7 7h-47q-4 0 -4 3t4 3h422v-117h-6v62q0 20 -13.5 34.5t-39.5 14.5h-275q-7 0 -7 -7v-668q0 -7 7 -7h53zM242 870q3 6 7.5 11t13.5 5t9.5 -7.5t-4.5 -12.5l-52 -50h-2z" />
    <glyph glyph-name="afii10053" unicode="&#x404;" horiz-adv-x="562" 
d="M307 707q42 0 80.5 -11.5t67.5 -31t46 -46t16 -55.5q0 -12 -6 -17t-12 -4.5t-11 6.5t-3 17q3 26 -7 50.5t-32.5 43t-57 30.5t-79.5 12h-2q-53 0 -97 -19t-76 -60t-50 -106t-19 -156h211q17 1 34 12.5t17 29.5v27h6v-144h-6v24q0 20 -17 32.5t-34 12.5h-211v-9
q0 -95 18 -162t50 -109.5t76.5 -62t97.5 -19.5q46 0 80.5 11.5t57.5 30.5t33 43.5t7 50.5q-2 10 3 16.5t11 7t12 -4.5t6 -17q1 -29 -16 -55.5t-46 -46t-67.5 -31t-80.5 -11.5q-56 0 -105.5 22t-87 66.5t-59 112t-21.5 158.5v8q0 90 21.5 156.5t59 110.5t87 65.5t105.5 21.5z
" />
    <glyph glyph-name="afii10054" unicode="&#x405;" horiz-adv-x="533" 
d="M269 704q-47 0 -81.5 -12t-57 -31t-34 -43.5t-11.5 -49.5q0 -52 30.5 -83.5t76.5 -53.5t99.5 -40t99.5 -43t76.5 -62.5t30.5 -98.5q0 -37 -16 -74t-46 -67t-73.5 -48.5t-98.5 -18.5q-59 0 -104.5 18.5t-75.5 49t-44 69.5t-11 80q1 14 8 18.5t14.5 3t12.5 -8.5t2 -16
q-10 -33 -3.5 -69.5t31 -67.5t67.5 -51t105 -20q48 0 87 15.5t67 41t43.5 57.5t15.5 64q0 61 -30.5 98.5t-76.5 63t-100 44t-100 41t-76.5 54t-30.5 83.5q0 28 12.5 57.5t38 52.5t64 38t89.5 15t89.5 -14.5t64.5 -38t38.5 -53t10.5 -60.5q-1 -13 -7 -17.5t-12.5 -3t-11 7.5
t-1.5 15q8 25 4 53t-24 51t-57 38.5t-94 15.5z" />
    <glyph glyph-name="afii10055" unicode="&#x406;" horiz-adv-x="223" 
d="M44 0q-4 0 -4 3t4 3h47q7 0 7 7v668q0 7 -7 7h-43q-4 0 -4 3t4 3h128q3 0 3 -3t-3 -3h-45q-7 0 -7 -7v-668q0 -7 7 -7h46q4 0 4 -3t-4 -3h-133z" />
    <glyph glyph-name="afii10056" unicode="&#x407;" horiz-adv-x="223" 
d="M44 0q-4 0 -4 3t4 3h47q7 0 7 7v668q0 7 -7 7h-43q-4 0 -4 3t4 3h128q3 0 3 -3t-3 -3h-45q-7 0 -7 -7v-668q0 -7 7 -7h46q4 0 4 -3t-4 -3h-133zM193 805q-8 0 -13 5t-5 13t5 13t13 5t13 -5t5 -13t-5 -13t-13 -5zM31 805q-8 0 -13 5t-5 13t5 13t13 5t13 -5t5 -13t-5 -13
t-13 -5z" />
    <glyph glyph-name="afii10057" unicode="&#x408;" horiz-adv-x="473" 
d="M317 688q-3 0 -3 3t3 3h121q3 0 3 -3t-3 -3h-39q-7 0 -7 -7v-504q0 -36 -13.5 -69.5t-38.5 -60t-60.5 -42t-79.5 -15.5q-40 0 -74.5 14t-59.5 38t-37.5 55.5t-9.5 66.5q1 15 8.5 21t15 4.5t12 -9.5t0.5 -20q-10 -28 -4.5 -57t24 -53t50.5 -39.5t75 -15.5q46 0 77.5 16
t51 42t28 59t8.5 67v502q0 7 -7 7h-41z" />
    <glyph glyph-name="afii10058" unicode="&#x409;" horiz-adv-x="927" 
d="M503 405q0 -5 7 -5h136q42 0 86 -7t79.5 -27.5t58 -57t22.5 -95.5q0 -53 -20.5 -93t-53.5 -66.5t-75 -40t-86 -13.5h-235q-4 0 -4 3t4 3h49q5 0 5 4v658q0 11 -6 15t-14 4h-195q-26 0 -29 -25l-6 -70q-11 -133 -26.5 -229.5t-33 -162.5t-35.5 -106.5t-35.5 -62.5
t-33.5 -29t-28 -7q-31 0 -31 19q0 14 11.5 16.5t21.5 1.5q28 -2 54 28t49.5 97t43.5 174t35 260l5 50q2 17 -3.5 31.5t-20.5 14.5h-7q-4 0 -4 3.5t4 3.5h311v-289zM510 394q-7 0 -7 -7v-377q0 -4 4 -4h150q42 0 79 11.5t65 36t44 64t16 95.5q0 53 -14 88t-41.5 55.5t-68 29
t-93.5 8.5h-134z" />
    <glyph glyph-name="afii10059" unicode="&#x40a;" horiz-adv-x="952" 
d="M48 0q-4 0 -4 3t4 3h45q7 0 7 7v668q0 7 -7 7h-45q-4 0 -4 3t4 3h131q3 0 3 -3t-3 -3h-45q-7 0 -7 -7v-284q0 -7 7 -7h363q7 0 7 7v275q-3 16 -20 16h-33q-4 0 -4 3t4 3h131q3 0 3 -3t-3 -3h-44q-7 0 -7 -5v-288q0 -5 7 -5h136q42 0 86 -7t79.5 -27.5t58 -57t22.5 -95.5
q0 -51 -20.5 -89t-53.5 -63.5t-75 -38t-86 -12.5h-235q-4 0 -4 3t4 3h47q7 0 7 6v365q0 7 -7 7h-363q-7 0 -7 -7v-364q0 -7 7 -7h45q3 0 3 -3t-3 -3h-131zM538 384q-7 0 -7 -6v-366q0 -6 4 -6h150q42 0 79 11t65 34.5t44 61t16 90.5t-14 88t-41.5 55.5t-68 29t-93.5 8.5
h-134z" />
    <glyph glyph-name="afii10060" unicode="&#x40b;" horiz-adv-x="776" 
d="M672 290q0 68 -37 108.5t-112 40.5q-44 0 -82 -20.5t-67.5 -54.5t-49 -78.5t-24.5 -91.5v-178q0 -10 10 -10h46q3 0 3 -3t-3 -3h-137q-5 0 -5 3t5 3h44q10 0 10 10v662q0 10 -10 10h-184q-24 -2 -36 -16.5t-12 -32.5v-62h-6v117h529v-117h-6v62q0 20 -13.5 34.5
t-39.5 14.5h-185q-10 0 -10 -10v-453q9 42 28.5 82t48.5 70.5t66 49t81 18.5q43 0 75.5 -12.5t54.5 -34t32.5 -51.5t10.5 -66v-266q0 -9 9 -9h43q4 0 4 -3t-4 -3h-136q-5 0 -5 3t5 3h50q9 0 9 7v277v0z" />
    <glyph glyph-name="afii10061" unicode="&#x40c;" horiz-adv-x="597" 
d="M163 381q66 -20 123.5 -62t99.5 -112q23 -37 44.5 -73.5t40.5 -66t34.5 -47.5t25.5 -18q7 0 10 1.5l7 3.5t7 -0.5t-2 -5.5q-11 -5 -22 -5q-18 0 -35 8.5t-36 30.5t-43 59.5t-55 95.5q-26 43 -51 74t-50 53t-51 35.5t-54 21.5l-14 -13v-350q0 -5 4 -5h50q4 0 4 -3t-4 -3
h-132q-4 0 -4 3t4 3h47q7 0 7 7v670q0 5 -5 5h-52q-3 0 -3 3t3 3h138q3 0 3 -3t-3 -3h-53q-4 0 -4 -7v-311l328 313q7 5 -2 5h-47v6h119v-6h-16q-13 0 -30 -4.5t-25 -12.5zM322 870q3 6 7.5 11t13.5 5t9.5 -7.5t-4.5 -12.5l-52 -50h-2z" />
    <glyph glyph-name="afii10062" unicode="&#x40e;" horiz-adv-x="547" 
d="M169 -3q-9 0 -13.5 4t-5 9.5t3 9.5t11.5 4q27 0 49.5 16.5t40.5 41.5t32 54t24 53h-9l-229 499h-53q-4 0 -4 3t4 3h129q3 0 3 -3t-3 -3h-47l219 -474l191 474h-58q-4 0 -4.5 3t4.5 3h128q3 0 3 -3t-3 -3h-63l-192 -478q-11 -27 -27 -63.5t-36.5 -69.5t-44.5 -56.5
t-50 -23.5zM316 769q-16 0 -31.5 7t-28 20.5t-20.5 33t-8 44.5q0 5 3 8.5t6.5 3.5t6.5 -2.5t3 -9.5q0 -10 -5.5 -18.5t-2.5 -16.5q9 -23 29 -36.5t48 -13.5h4q28 0 48 13.5t29 36.5q3 8 -2.5 16.5t-5.5 18.5q0 7 3 9.5t6.5 2.5t6.5 -3.5t3 -8.5q0 -25 -8 -44.5t-20.5 -33
t-28 -20.5t-31.5 -7h-4z" />
    <glyph glyph-name="afii10145" unicode="&#x40f;" horiz-adv-x="645" 
d="M127 16q0 -7 7 -7h379q7 0 7 7v665q0 7 -7 7h-46q-4 0 -4 3t4 3h131q3 0 3 -3t-3 -3h-44q-7 0 -7 -7v-665q0 -7 7 -7h44q3 0 3 -4.5t-3 -4.5h-217q-26 0 -39.5 -17t-13.5 -47v-35h-9v35q0 29 -12.5 45.5t-35.5 18.5h-223q-4 0 -4 4.5t4 4.5h45q7 0 7 7v665q0 7 -7 7h-45
q-4 0 -4 3t4 3h131q3 0 3 -3t-3 -3h-45q-7 0 -7 -7v-665z" />
    <glyph glyph-name="afii10017" unicode="&#x410;" horiz-adv-x="632" 
d="M263 688q-4 0 -4 3t4 3h70l258 -688h53q3 0 3 -3t-3 -3h-137q-4 0 -4 3t4 3h57l-106 282h-293l-103 -282h56q3 0 3 -3t-3 -3h-115q-4 0 -4 3t4 3h52l249 682h-41zM167 294h288l-146 390z" />
    <glyph glyph-name="afii10018" unicode="&#x411;" horiz-adv-x="555" 
d="M137 688q-7 0 -7 -7v-274q0 -7 7 -7h136q42 0 86 -7t79.5 -27.5t58 -57t22.5 -95.5q0 -53 -20.5 -93t-53.5 -66.5t-75 -40t-86 -13.5h-235q-4 0 -4 3t4 3h47q7 0 7 7v668q0 7 -7 7h-47q-4 0 -4 3t4 3h374v-117h-6v62q0 20 -13.5 34.5t-39.5 14.5h-227zM137 394
q-7 0 -7 -7v-374q0 -7 7 -7h147q42 0 79 11.5t65 36t44 64t16 95.5q0 53 -14 88t-41.5 55.5t-68 29t-93.5 8.5h-134z" />
    <glyph glyph-name="afii10019" unicode="&#x412;" horiz-adv-x="571" 
d="M49 0q-4 0 -4 3t4 3h47q7 0 7 7v668q0 7 -7 7h-47q-4 0 -4 3t4 3h233q36 0 72.5 -9.5t66 -28.5t48 -48.5t18.5 -71.5q0 -32 -14.5 -59t-38.5 -47t-54.5 -33.5t-61.5 -17.5l-4 -3q41 1 81 -10.5t72 -35t52 -58t20 -79.5q0 -48 -20.5 -84.5t-53.5 -60.5t-75 -36t-86 -12
h-255zM137 374q-7 0 -7 -7v-354q0 -7 7 -7h167q42 0 79 10.5t65 33t44 58t16 85.5q0 53 -18 88t-50.5 55.5t-77.5 29t-98 8.5h-127zM460 536q0 43 -15 72t-40.5 47t-58 25.5t-67.5 7.5h-142q-7 0 -7 -7v-294q0 -7 7 -7h117q47 0 85 9t65 27.5t41.5 48t14.5 71.5z" />
    <glyph glyph-name="afii10020" unicode="&#x413;" horiz-adv-x="517" 
d="M190 6q4 0 4 -3t-4 -3h-141q-4 0 -4 3t4 3h47q7 0 7 7v668q0 7 -7 7h-47q-4 0 -4 3t4 3h422v-117h-6v62q0 20 -13.5 34.5t-39.5 14.5h-275q-7 0 -7 -7v-668q0 -7 7 -7h53z" />
    <glyph glyph-name="afii10021" unicode="&#x414;" horiz-adv-x="631" 
d="M59 0q-26 0 -41.5 -14.5t-14.5 -34.5l3 -62h-6l-6 120h44q12 4 26.5 29t27.5 69t23 106t13 142l11 307q0 25 -25 25h-11q-4 0 -3.5 3.5t4.5 3.5h464q3 0 3 -3.5t-3 -3.5h-22q-22 0 -22 -22v-649q0 -7 7 -7h57l-9 -120h-6l3 62q1 20 -14.5 34.5t-41.5 14.5h-461zM136 355
q-3 -86 -12.5 -147.5t-21.5 -102t-25 -63.5t-23 -33h436q7 0 7 7v651q0 9 -5 14t-12 6h-308q-25 0 -25 -25z" />
    <glyph glyph-name="afii10022" unicode="&#x415;" horiz-adv-x="538" 
d="M137 397q-7 0 -7 -7v-377q0 -7 7 -7h312q18 2 34.5 18.5t16.5 41.5v39h6v-105h-457q-4 0 -4 3t4 3h47q7 0 7 7v668q0 7 -7 7h-47q-4 0 -4 3t4 3h418v-117h-6v62q0 20 -13.5 34.5t-39.5 14.5h-271q-7 0 -7 -7v-271q0 -7 7 -7h201q17 1 30.5 10.5t13.5 27.5v31h6v-144h-6
v29q0 20 -15 30t-34 10h-196z" />
    <glyph glyph-name="afii10024" unicode="&#x416;" horiz-adv-x="889" 
d="M475 381q63 -20 118 -62t95 -112q23 -37 44.5 -73.5t40.5 -66t34.5 -47.5t25.5 -18q7 0 10 1.5l7 3.5t7 -0.5t-2 -5.5q-11 -5 -22 -5q-18 0 -35 8.5t-36 30.5t-43 59.5t-55 95.5q-24 43 -48 74t-48 53t-49 35.5t-51 21.5l-14 -13v-348q0 -7 4 -7h50v-6h-132v6h47q7 0 7 7
v349l-13 12q-26 -8 -51 -21.5t-49 -35.5t-48 -53t-48 -74q-32 -58 -55.5 -95.5t-42.5 -59.5t-36 -30.5t-35 -8.5q-11 0 -22 5q4 3 4.5 5.5t0.5 0.5q5 -2 7.5 -3.5t9.5 -1.5q10 0 25.5 18t34.5 47.5t40.5 66t44.5 73.5q40 70 95 112t118 62l-296 290q-8 8 -25 12.5t-30 4.5
h-16q-4 0 -4 3t4 3h119q4 0 4 -3t-4 -3h-47q-9 0 -2 -5l317 -311v311q0 5 -5 5h-54q-5 2 0 5q1 1 2 1h138q3 0 3 -3t-3 -3h-53q-4 0 -4 -7v-310l318 312q7 5 -2 5h-47q-4 0 -4 3t4 3h119q4 0 4 -3t-4 -3h-16q-13 0 -30 -4.5t-25 -12.5z" />
    <glyph glyph-name="afii10025" unicode="&#x417;" horiz-adv-x="526" 
d="M61 122q6 -27 18.5 -51.5t33.5 -43.5t52.5 -30.5t76.5 -11.5q63 0 106 21t69 53.5t37.5 72.5t11.5 78q0 30 -10 60.5t-29.5 56.5t-49 46t-69.5 29q-31 -11 -67 -11q-11 0 -16.5 4t-6 8.5t4.5 8.5t16 4h10q33 -2 64 -9q47 22 74 65t27 98q0 22 -8 46t-26 43.5t-48 32.5
t-74 13q-50 0 -83 -17t-51 -41.5t-22.5 -53t1.5 -52.5q2 -7 -2 -12t-10 -5.5t-11 3.5t-6 14q-2 28 7.5 58t32 54.5t58.5 40.5t86 16q46 0 80 -14t56.5 -35t33.5 -45.5t11 -45.5q0 -24 -8.5 -48.5t-24 -46.5t-38 -40.5t-50.5 -29.5q36 -9 68 -26.5t56 -42.5t38 -56.5
t14 -68.5q0 -36 -16.5 -77t-48 -75t-79 -56.5t-108.5 -22.5q-81 0 -134.5 35t-73.5 87q-6 15 -3 23.5t9 11t12.5 -1.5t8.5 -13z" />
    <glyph glyph-name="afii10026" unicode="&#x418;" horiz-adv-x="690" 
d="M181 694q4 0 4 -3t-4 -3h-44q-10 0 -10 -10v-668l428 684h86q3 0 3 -3t-3 -3h-46q-10 0 -10 -10v-662q0 -10 10 -10h46q3 0 3 -3t-3 -3h-137q-4 0 -4 3t4 3h44q10 0 10 10v672h-1l-430 -688h-83q-3 0 -3 3t3 3h46q10 0 10 10v662q0 10 -10 10h-46q-3 0 -3 3t3 3h137v0z
" />
    <glyph glyph-name="afii10027" unicode="&#x419;" horiz-adv-x="690" 
d="M361 768q-16 0 -31.5 7t-28 20.5t-20.5 33t-8 44.5q0 5 3 8.5t6.5 3.5t6.5 -2.5t3 -9.5q0 -10 -5.5 -18.5t-2.5 -16.5q9 -23 29 -35.5t48 -12.5h4q28 0 48 12.5t29 35.5q3 8 -2.5 16.5t-5.5 18.5q0 7 3 9.5t6.5 2.5t6.5 -3.5t3 -8.5q0 -25 -8 -44.5t-20.5 -33t-28 -20.5
t-31.5 -7h-4zM181 694q4 0 4 -3t-4 -3h-44q-10 0 -10 -10v-668l428 684h86q3 0 3 -3t-3 -3h-46q-10 0 -10 -10v-662q0 -10 10 -10h46q3 0 3 -3t-3 -3h-137q-4 0 -4 3t4 3h44q10 0 10 10v672h-1l-430 -688h-83q-3 0 -3 3t3 3h46q10 0 10 10v662q0 10 -10 10h-46q-3 0 -3 3
t3 3h137z" />
    <glyph glyph-name="afii10028" unicode="&#x41a;" horiz-adv-x="597" 
d="M163 381q66 -20 123.5 -62t99.5 -112q23 -37 44.5 -73.5t40.5 -66t34.5 -47.5t25.5 -18q7 0 10 1.5l7 3.5t7 -0.5t-2 -5.5q-11 -5 -22 -5q-18 0 -35 8.5t-36 30.5t-43 59.5t-55 95.5q-26 43 -51 74t-50 53t-51 35.5t-54 21.5l-14 -13v-348q0 -7 4 -7h50q5 0 5 -3t-5 -3
h-132q-5 0 -5 3t5 3h47q7 0 7 7v668q0 7 -5 7h-54q-5 2 0 5q1 1 2 1h138q3 0 3 -3t-3 -3h-50q-7 0 -7 -7v-311l328 313q7 5 -2 5h-47q-4 0 -4 3t4 3h119q4 0 4 -3t-4 -3h-16q-13 0 -30 -4.5t-25 -12.5z" />
    <glyph glyph-name="afii10029" unicode="&#x41b;" horiz-adv-x="624" 
d="M438 0q-5 0 -5 4.5t5 4.5h32q7 0 7 7v651q0 9 -5 14t-12 6h-288q-25 0 -25 -25v-454q0 -75 -13 -117.5t-30.5 -64t-36.5 -26.5t-31 -5q-16 0 -25 7t-9 15q0 5 4.5 10t15.5 2q55 -16 86 29t31 149v455q0 25 -25 25h-11q-4 0 -4 3.5t4 3.5h445q3 0 3 -3.5t-3 -3.5h-22
q-22 0 -22 -22v-649q0 -7 7 -7h37q5 0 5 -4.5t-5 -4.5h-110z" />
    <glyph glyph-name="afii10030" unicode="&#x41c;" horiz-adv-x="779" 
d="M27 688q-4 0 -4 3t4 3h87l267 -664l268 664h86q3 0 3 -3t-3 -3h-46q-10 0 -10 -10v-662q0 -10 10 -10h46q3 0 3 -3t-3 -3h-137q-4 0 -4 3t4 3h44q10 0 10 10v671l-278 -691h-6l-279 692v-672q0 -10 10 -10h45q3 0 3 -3t-3 -3h-115q-4 0 -4 3t4 3h44q10 0 10 10v672h-56v0
z" />
    <glyph glyph-name="afii10031" unicode="&#x41d;" horiz-adv-x="625" 
d="M48 0q-4 0 -4 3t4 3h45q7 0 7 7v668q0 7 -7 7h-45q-4 0 -4 3t4 3h131q3 0 3 -3t-3 -3h-45q-7 0 -7 -7v-285q0 -7 7 -7h363q7 0 7 7v285q0 7 -7 7h-46q-4 0 -4 3t4 3h131q3 0 3 -3t-3 -3h-44q-7 0 -7 -7v-668q0 -7 7 -7h44q3 0 3 -3t-3 -3h-131q-4 0 -4 3t4 3h46q7 0 7 7
v363q0 7 -7 7h-363q-7 0 -7 -7v-363q0 -7 7 -7h45q3 0 3 -3t-3 -3h-131v0z" />
    <glyph glyph-name="afii10032" unicode="&#x41e;" horiz-adv-x="678" 
d="M338 -16q-60 0 -112.5 22.5t-91.5 68.5t-61.5 115.5t-22.5 163.5q0 89 23.5 154.5t62.5 109.5t90.5 66t107.5 24h10q55 -2 106.5 -24t91 -66t63 -109.5t23.5 -154.5q0 -94 -22.5 -163.5t-61.5 -115.5t-91.5 -68.5t-112.5 -22.5h-2zM340 -11q54 0 101 20t81.5 63.5
t54.5 113t20 168.5q0 92 -19.5 157.5t-54 107.5t-80.5 61.5t-98 21.5h-10q-53 -1 -99.5 -21t-81 -61.5t-54 -107t-19.5 -158.5q0 -99 20 -168.5t54.5 -113t81.5 -63.5t101 -20h2z" />
    <glyph glyph-name="afii10033" unicode="&#x41f;" horiz-adv-x="642" 
d="M127 13q0 -7 7 -7h45q3 0 3 -3t-3 -3h-131q-4 0 -4 3t4 3h45q7 0 7 7v668q0 7 -7 7h-45q-4 0 -4 3t4 3h548q3 0 3 -3t-3 -3h-44q-7 0 -7 -7v-668q0 -7 7 -7h44q3 0 3 -3t-3 -3h-131q-4 0 -4 3t4 3h46q7 0 7 7v668q0 7 -7 7h-377q-7 0 -7 -7v-668z" />
    <glyph glyph-name="afii10034" unicode="&#x420;" horiz-adv-x="508" 
d="M50 688q-5 0 -5 3t5 3h226q40 0 80.5 -10.5t73.5 -33t53.5 -58t20.5 -84.5q0 -50 -19.5 -86.5t-51.5 -61.5t-73 -37t-83 -12h-146v-295q0 -10 10 -10h46q3 0 3 -3t-3 -3h-137q-4 0 -4.5 3t4.5 3h44q10 0 10 10v662q0 10 -10 10h-44zM141 688q-10 0 -10 -10v-361h146
q41 0 77 11t63 34t42.5 59t15.5 87t-17 85.5t-44.5 55.5t-63.5 30t-74 9h-135z" />
    <glyph glyph-name="afii10035" unicode="&#x421;" horiz-adv-x="599" 
d="M338 -16q-60 0 -112.5 22t-91.5 67.5t-61.5 115.5t-22.5 165q0 90 25 156.5t66 110.5t95 65.5t112 21.5q42 0 80.5 -11.5t67.5 -31t46 -46t16 -55.5q0 -12 -6 -17t-12 -4.5t-11 6.5t-3 17q3 26 -7 50.5t-32.5 43t-57 30.5t-79.5 12h-2q-56 0 -104.5 -19.5t-84.5 -61.5
t-57 -108t-21 -159q0 -101 20 -170t54.5 -112.5t81.5 -63t101 -19.5h1q47 0 84.5 13.5t63 35t37.5 48.5t9 53q-2 10 3 16.5t11 7t12 -4.5t6 -17q1 -29 -18 -57.5t-50.5 -50.5t-73 -35.5t-84.5 -13.5h-1z" />
    <glyph glyph-name="afii10036" unicode="&#x422;" horiz-adv-x="579" 
d="M219 0q-5 0 -5 3t5 3h44q10 0 10 10v662q0 10 -10 10h-184q-24 -2 -36 -16.5t-12 -32.5v-62h-6v117h529v-117h-6v62q0 20 -13.5 34.5t-39.5 14.5h-185q-10 0 -10 -10v-662q0 -10 10 -10h46q3 0 3 -3t-3 -3h-137v0z" />
    <glyph glyph-name="afii10037" unicode="&#x423;" horiz-adv-x="547" 
d="M169 -3q-9 0 -13.5 4t-5 9.5t3 9.5t11.5 4q27 0 49.5 16.5t40.5 41.5t32 54t24 53h-9l-229 499h-53q-4 0 -4 3t4 3h129q3 0 3 -3t-3 -3h-47l219 -474l191 474h-58q-4 0 -4.5 3t4.5 3h128q3 0 3 -3t-3 -3h-63l-192 -478q-11 -27 -27 -63.5t-36.5 -69.5t-44.5 -56.5
t-50 -23.5z" />
    <glyph glyph-name="afii10038" unicode="&#x424;" horiz-adv-x="678" 
d="M271 0q-4 0 -4 3t4 3h47q7 0 7 7v64h-20q-59 0 -105.5 14t-79 47t-50 86t-17.5 131q0 75 19 125.5t52.5 81t79.5 43.5t101 13h20v63q0 7 -7 7h-43q-4 0 -4 3t4 3h128q3 0 3 -3t-3 -3h-45q-7 0 -7 -7v-63h23q55 0 101 -13t79.5 -43.5t52 -81t18.5 -125.5q0 -78 -17.5 -131
t-50 -86t-79 -47t-105.5 -14h-22v-64q0 -7 7 -7h46q4 0 4 -3t-4 -3h-133zM373 83q48 0 89 12.5t71 43.5t47 83.5t17 132.5q0 76 -17 125.5t-46.5 78.5t-70.5 41t-89 12h-23v-529h22zM81 355q0 -80 17 -132.5t47 -83.5t71 -43.5t89 -12.5h20v529h-20q-48 0 -89 -12t-71 -41
t-47 -78.5t-17 -125.5z" />
    <glyph glyph-name="afii10039" unicode="&#x425;" horiz-adv-x="572" 
d="M276 347l-205 341h-51q-4 0 -4 3t4 3h129q3 0 3 -3t-3 -3h-47l190 -314l190 314h-58q-4 0 -4.5 3t4.5 3h128q3 0 3 -3t-3 -3h-63l-193 -320l220 -362h46q4 0 4 -3t-4 -3h-129q-3 0 -3 3t3 3h48l-202 335l-202 -335h60q4 0 4 -3t-4 -3h-126q-3 0 -3 3t3 3h59z" />
    <glyph glyph-name="afii10040" unicode="&#x426;" horiz-adv-x="651" 
d="M48 0q-4 0 -4 4.5t4 4.5h45q7 0 7 7v665q0 7 -7 7h-45q-4 0 -4 3t4 3h131q3 0 3 -3t-3 -3h-45q-7 0 -7 -7v-665q0 -7 7 -7h379q7 0 7 7v665q0 7 -7 7h-46q-4 0 -4 3t4 3h131q3 0 3 -3t-3 -3h-44q-7 0 -7 -7v-665q0 -7 7 -7h69l-9 -120h-6l3 62q1 20 -14.5 34.5
t-41.5 14.5h-507z" />
    <glyph glyph-name="afii10041" unicode="&#x427;" horiz-adv-x="572" 
d="M209 249q-44 0 -76 12.5t-54 34t-32.5 51.5t-10.5 66v268q0 7 -9 7h-43q-5 0 -5 3t5 3h136q4 0 4 -3t-4 -3h-50q-9 0 -9 -7v-277q0 -68 37 -108.5t112 -40.5q48 0 89.5 21.5t73.5 57t52 81.5t24 95v171q0 7 -7 7h-43q-4 0 -4 3t4 3h126q3 0 3 -3t-3 -3h-45q-7 0 -7 -7
v-665q0 -10 10 -10h49q3 0 3 -3t-3 -3h-137q-4 0 -4 3t4 3h44q10 0 10 10v460q-9 -43 -29.5 -84t-51.5 -72.5t-71 -51t-88 -19.5z" />
    <glyph glyph-name="afii10042" unicode="&#x428;" horiz-adv-x="839" 
d="M127 16q0 -7 7 -7h269q5 0 5 7v665q0 7 -5 7h-48q-4 0 -4 3t4 3h132q3 0 3 -3t-3 -3h-46q-6 0 -6 -7v-664q0 -8 7 -8h267q7 0 7 7v665q0 7 -7 7h-46q-4 0 -4 3t4 3h131q3 0 3 -3t-3 -3h-44q-7 0 -7 -7v-665q0 -7 7 -7h44q3 0 3 -4.5t-3 -4.5h-746q-4 0 -4 4.5t4 4.5h45
q7 0 7 7v665q0 7 -7 7h-45q-4 0 -4 3t4 3h131q3 0 3 -3t-3 -3h-45q-7 0 -7 -7v-665z" />
    <glyph glyph-name="afii10043" unicode="&#x429;" horiz-adv-x="839" 
d="M48 0q-4 0 -4 4.5t4 4.5h45q7 0 7 7v665q0 7 -7 7h-45q-4 0 -4 3t4 3h131q3 0 3 -3t-3 -3h-45q-7 0 -7 -7v-665q0 -7 7 -7h269q5 0 5 6v666q0 7 -5 7h-48q-4 0 -4 3t4 3h132q3 0 3 -3t-3 -3h-46q-6 0 -6 -7v-666q0 -6 7 -6h267q7 0 7 7v665q0 7 -7 7h-46q-4 0 -4 3t4 3
h131q3 0 3 -3t-3 -3h-44q-7 0 -7 -7v-665q0 -7 7 -7h74l-9 -120h-6l3 62q1 20 -14.5 34.5t-41.5 14.5h-708z" />
    <glyph glyph-name="afii10044" unicode="&#x42a;" horiz-adv-x="720" 
d="M330 694q4 0 4 -3t-4 -3h-19q-7 0 -7 -7v-274q0 -7 7 -7h136q42 0 86 -7t79.5 -27.5t58 -57t22.5 -95.5q0 -53 -20.5 -93t-53.5 -66.5t-75 -40t-86 -13.5h-235q-4 0 -4 3t4 3h47q7 0 7 7v668q0 5 -5 7h-194q-26 0 -39.5 -14.5t-13.5 -34.5v-62h-6v117h311zM311 394
q-7 0 -7 -7v-374q0 -7 7 -7h147q42 0 79 11.5t65 36t44 64t16 95.5q0 53 -14 88t-41.5 55.5t-68 29t-93.5 8.5h-134z" />
    <glyph glyph-name="afii10045" unicode="&#x42b;" horiz-adv-x="705" 
d="M136 394q-7 0 -7 -7v-374q0 -7 7 -7h147q42 0 79 11.5t65 36t44 64t16 95.5q0 53 -14 88t-41.5 55.5t-68 29t-93.5 8.5h-134zM173 694q4 0 4 -3t-4 -3h-37q-7 0 -7 -7v-274q0 -7 7 -7h136q42 0 86 -7t79.5 -27.5t58 -57t22.5 -95.5q0 -53 -20.5 -93t-53.5 -66.5t-75 -40
t-86 -13.5h-235q-4 0 -4 3t4 3h47q7 0 7 7v668q0 7 -7 7h-35q-4 0 -4 3t4 3h113zM525 6h47q7 0 7 7v668q0 7 -7 7h-43q-4 0 -4 3t4 3h129q3 0 3 -3t-3 -3h-45q-7 0 -7 -7v-668q0 -7 7 -7h46v-6h-134v6z" />
    <glyph glyph-name="afii10046" unicode="&#x42c;" horiz-adv-x="553" 
d="M136 394q-7 0 -7 -7v-374q0 -7 7 -7h147q42 0 79 11.5t65 36t44 64t16 95.5q0 53 -14 88t-41.5 55.5t-68 29t-93.5 8.5h-134zM173 694q4 0 4 -3t-4 -3h-37q-7 0 -7 -7v-274q0 -7 7 -7h136q42 0 86 -7t79.5 -27.5t58 -57t22.5 -95.5q0 -53 -20.5 -93t-53.5 -66.5t-75 -40
t-86 -13.5h-235q-4 0 -4 3t4 3h47q7 0 7 7v668q0 7 -7 7h-35q-4 0 -4 3t4 3h113z" />
    <glyph glyph-name="afii10047" unicode="&#x42d;" horiz-adv-x="560" 
d="M246 707q56 0 105.5 -21.5t87 -65.5t59 -110.5t21.5 -156.5v-8q0 -91 -21.5 -158.5t-59 -112t-87 -66.5t-105.5 -22q-42 0 -80.5 11.5t-67.5 31t-46 46t-16 55.5q0 12 6 17t12 4.5t10.5 -7t3.5 -16.5q-3 -26 7 -50.5t33 -43.5t57.5 -30.5t80.5 -11.5q53 0 97.5 19.5
t76.5 62t50 109.5t18 162v5h-211q-17 0 -34 -12.5t-17 -32.5v-24h-6v144h6v-27q0 -18 17 -29.5t34 -12.5h211q0 92 -18 157.5t-50.5 107.5t-76.5 61t-97 19h-2q-45 0 -79.5 -12t-57 -30.5t-32.5 -43t-7 -50.5q1 -11 -3.5 -17t-10.5 -6.5t-12 4.5t-6 17q-1 29 16 55.5t46 46
t67.5 31t80.5 11.5z" />
    <glyph glyph-name="afii10048" unicode="&#x42e;" horiz-adv-x="851" 
d="M523 -16q-60 0 -112.5 22.5t-91.5 68.5t-61.5 115.5t-22.5 163.5h-105v-341q0 -7 7 -7h46q4 0 4 -3t-4 -3h-134q-4 0 -4 3t4 3h47q7 0 7 7v668q0 7 -7 7h-43q-4 0 -4 3t4 3h129q3 0 3 -3t-3 -3h-45q-7 0 -7 -7v-321h105q1 87 24.5 152.5t63 109t90.5 65t107 21.5h8
q56 0 107.5 -22t91 -66t63 -110.5t23.5 -155.5q0 -94 -22.5 -163.5t-62 -115.5t-92.5 -68.5t-113 -22.5zM525 -11q54 0 101 20t81.5 63.5t54.5 113t20 168.5q0 92 -19.5 158t-54 108t-81 62t-99.5 20h-8q-53 -1 -99.5 -21t-81 -61.5t-54 -107t-19.5 -158.5q0 -99 20 -168.5
t54.5 -113t81.5 -63.5t101 -20h2z" />
    <glyph glyph-name="afii10049" unicode="&#x42f;" horiz-adv-x="578" 
d="M529 695q5 0 5 -3t-5 -3h-44q-10 0 -10 -10v-663q0 -10 10 -10h44q5 0 4.5 -3t-4.5 -3h-137q-3 0 -3 3t3 3h46q10 0 10 10v353h-120q-45 -6 -82.5 -50.5t-76.5 -130.5q-26 -59 -46.5 -96.5t-37.5 -59.5t-31.5 -30.5t-29.5 -8.5q-9 0 -18 5q-5 3 -2 5.5t6 0.5t6 -3.5
t8 -1.5q9 0 21.5 18.5t28.5 47.5t34 66t37 75q33 66 71.5 107.5t83.5 55.5q-37 2 -72 13t-62 32t-43.5 51.5t-16.5 70.5q0 42 19 72t49 49.5t67 28.5t73 9h215zM448 375v304q0 10 -10 10h-124q-35 0 -67.5 -8t-58 -26t-40.5 -47t-15 -72t14 -73.5t39 -50t57.5 -28.5t70.5 -9
h134z" />
    <glyph glyph-name="afii10065" unicode="&#x430;" horiz-adv-x="460" 
d="M382 37q0 -16 9 -25.5t23 -9.5q11 0 21 9t10 28q0 3 2.5 3t2.5 -3q0 -22 -12 -32t-29 -10q-21 0 -35 14.5t-14 43.5v226q-7 -49 -24 -100t-44 -92t-63.5 -67.5t-81.5 -26.5q-26 0 -47 8.5t-35.5 23t-22 33.5t-7.5 40q0 41 20 64.5t52 38t72 23.5t81 22q34 10 54 21.5
t30.5 25.5t13.5 30t3 35q0 15 -6 32.5t-20.5 33.5t-38 26.5t-59.5 10.5t-63.5 -12.5t-44 -31.5t-21.5 -43t3 -46q3 -7 -1 -11.5t-9.5 -6t-11 2t-6.5 13.5q-2 28 9.5 53.5t33 44.5t50.5 30t61 11q37 0 64 -9.5t45 -25.5t27 -36.5t9 -42.5v-316zM152 2q48 0 85.5 31.5
t63.5 78.5t40.5 101.5t18.5 101.5q-7 -22 -28 -38.5t-67 -31.5q-30 -10 -66 -18.5t-66.5 -23t-51 -37.5t-20.5 -63v-9q0 -37 24.5 -64.5t66.5 -27.5z" />
    <glyph glyph-name="afii10066" unicode="&#x431;" horiz-adv-x="466" 
d="M233 467q40 0 77 -14t65 -41.5t44.5 -70t16.5 -99.5v-11q0 -49 -13 -91.5t-38.5 -74.5t-64 -50.5t-88.5 -18.5t-87.5 18.5t-63 50.5t-38.5 74.5t-13 91.5v23q0 97 16 162.5t42.5 107.5t59.5 63.5t68 31.5t68 12t59 3.5t42 7t16 22.5q0 2 1.5 2t1.5 -7v-10
q-1 -21 -16 -29.5t-38.5 -11t-54 -3t-62.5 -6t-63.5 -20t-57.5 -44t-44.5 -78.5t-24.5 -125q23 69 75 102t115 33zM233 463q-35 0 -67 -12t-57 -38.5t-39.5 -68.5t-14.5 -102v-11q0 -50 10 -92t31 -73t54.5 -48.5t81.5 -17.5t82 17.5t55.5 48.5t31.5 73t10 92v11
q0 60 -14.5 102t-39.5 68.5t-57 38.5t-67 12z" />
    <glyph glyph-name="afii10067" unicode="&#x432;" horiz-adv-x="404" 
d="M30 0q-3 0 -3 2t3 2h26q5 0 5 4v441q0 4 -5 4h-26q-3 0 -3 2t3 2h176q25 0 50 -6t45.5 -19t33.5 -32.5t13 -46.5q0 -21 -10 -39t-25.5 -31.5t-35.5 -21.5t-41 -11l-3 -2q27 0 54 -7.5t48 -23t34 -38t13 -52.5q0 -32 -13.5 -55.5t-35 -39.5t-49.5 -24t-57 -8h-197zM88 247
q-5 0 -5 -4v-235q0 -4 5 -4h127q27 0 52.5 7t45.5 22t32 38t12 56q0 35 -13.5 58t-37.5 37t-56 19.5t-68 5.5h-94zM325 353q0 28 -10.5 47t-28 31t-39 17t-43.5 5h-116q-5 0 -5 -4v-194q0 -4 5 -4h100q60 0 98.5 24t38.5 78z" />
    <glyph glyph-name="afii10068" unicode="&#x433;" horiz-adv-x="326" 
d="M39 453q-3 0 -3 2t3 2h272v-107h-4v58q0 18 -12.5 31.5t-36.5 13.5h-155q-6 0 -6 -6v-437q0 -6 6 -6h39q3 0 3 -2t-3 -2h-113q-4 0 -4 2t4 2h39q7 0 7 6v437q0 6 -7 6h-29z" />
    <glyph glyph-name="afii10069" unicode="&#x434;" horiz-adv-x="436" 
d="M46 0q-17 -1 -30 -13t-11 -29l2 -32h-4l-6 80h30q9 4 20.5 25t23 59t22 94.5t16.5 132.5l9 113q0 10 -4 16.5t-12 6.5h-7q-3 0 -3 2t3 2h296q2 0 2 -2t-2 -2h-14q-15 0 -15 -15v-427q0 -5 3 -5h31l-6 -80h-4l2 32q2 18 -12.5 30t-32.5 12h-297zM114 317
q-6 -79 -16.5 -134.5t-21.5 -92t-22 -56.5t-19 -28h300q5 0 5 5v429q0 13 -11 13h-188q-9 0 -13.5 -6.5t-4.5 -16.5z" />
    <glyph glyph-name="afii10070" unicode="&#x435;" horiz-adv-x="445" 
d="M57 288q-1 -11 -1.5 -22.5t-0.5 -23.5v-11q0 -49 10 -91t31 -73t54.5 -49t80.5 -18h3q33 0 60.5 11t46.5 27.5t29.5 37.5t10.5 41q0 4 -1.5 11t-1.5 13.5t2.5 11t10.5 4.5q14 0 14 -23q0 -27 -14.5 -51.5t-38.5 -43.5t-55 -31t-63 -12q-50 0 -88.5 18.5t-64 50.5
t-38.5 74.5t-13 91.5v11q0 57 16.5 99t44 70t64 42t77.5 14h1q34 0 64 -11.5t53 -32.5t37 -50.5t17 -65.5q1 -19 -21 -19h-326zM380 309q0 31 -8.5 59t-26.5 49t-46 33.5t-66 12.5q-31 0 -60 -9.5t-52.5 -30t-40 -53t-22.5 -78.5h306q16 0 16 17z" />
    <glyph glyph-name="afii10072" unicode="&#x436;" horiz-adv-x="549" 
d="M295 251q42 -14 80 -39.5t65 -70.5q15 -25 28.5 -50t25.5 -45t21.5 -32.5t16.5 -12.5q5 0 7 1l4 2q3 2 5 0t-1 -4q-5 -2 -7.5 -2.5t-7.5 -0.5q-12 0 -23 6t-23.5 20.5t-28 39t-36.5 62.5q-32 58 -64 84t-66 37l-6 -5v-233q-1 -1 0 -2q0 -2 4 -2h31q2 0 2 -2t-2 -2h-92
q-2 0 -2 2t2 2h30q5 0 5 4v233l-6 5q-34 -11 -65.5 -37t-63.5 -84q-21 -38 -36.5 -62.5t-28 -39t-23.5 -20.5t-23 -6q-5 0 -7.5 0.5t-7.5 2.5q-3 2 -1 4t5 0l4 -2t7 -1q7 0 16.5 12.5t21.5 32.5t25.5 45t28.5 50q27 45 64.5 70.5t79.5 39.5l-196 191q-5 5 -16.5 8t-19.5 3
h-10q-3 0 -3 2t3 2h78q2 0 2 -2t-2 -2h-31q-6 0 -1 -3l206 -202v200q0 5 -3 5h-34q-2 0 -2 2t2 2h96q2 0 2.5 -2t-2.5 -2h-33q-4 0 -4 -5v-200l207 202q4 3 -1 3h-31q-3 0 -3 2t3 2h78q2 0 2 -2t-2 -2h-11q-8 0 -19.5 -3t-16.5 -8z" />
    <glyph glyph-name="afii10073" unicode="&#x437;" horiz-adv-x="379" 
d="M49 86q8 -41 36.5 -66t86.5 -25q45 0 76 13.5t50 34.5t27 47t8 51q0 19 -6 38.5t-18.5 36t-32 29.5t-46.5 19q-20 -7 -46 -7q-14 0 -15 8.5t13 9.5h6q2 0 3.5 -0.5t3.5 -0.5q17 0 37 -5q32 14 50.5 42t18.5 63q0 14 -5.5 29.5t-19 28t-36 21t-55.5 8.5q-23 0 -44.5 -6.5
t-38.5 -18t-27.5 -27.5t-11.5 -35v-22q0 -6 -2.5 -6t-2.5 6v107q0 5 3 5t3 -5v-6q0 -17 13 -17q7 0 16 4.5t21.5 10t29.5 10t41 4.5q34 0 59.5 -9t43 -22.5t26 -29.5t8.5 -30q0 -30 -22.5 -60.5t-60.5 -46.5q24 -6 45.5 -17.5t37.5 -27.5t25 -36.5t9 -44.5q0 -23 -12 -49.5
t-35.5 -48.5t-57.5 -36.5t-79 -14.5q-53 0 -91 19.5t-52 59.5q-5 11 -3 17.5t6.5 8.5t9.5 -1t7 -10z" />
    <glyph glyph-name="afii10074" unicode="&#x438;" horiz-adv-x="480" 
d="M97 10q0 -6 6 -6h39q3 0 3 -2t-3 -2h-113q-4 0 -4 2t4 2h39q7 0 7 6v437q0 6 -7 6h-39q-4 0 -4 2t4 2h113q3 0 3 -2t-3 -2h-39q-6 0 -6 -6v-409l288 391v18q0 6 -7 6h-39q-2 0 -2.5 2t2.5 2h113q3 0 3 -2t-3 -2h-37q-8 0 -8 -6v-437q0 -6 6 -6h39q3 0 3 -2t-3 -2h-113
q-4 0 -4 2t4 2h39q7 0 7 6v409l-288 -391v-18v0z" />
    <glyph glyph-name="afii10075" unicode="&#x439;" horiz-adv-x="480" 
d="M243 532q-16 0 -31.5 7t-28 20.5t-20.5 33t-8 44.5q0 5 3 8.5t6.5 3.5t6.5 -2.5t3 -9.5q0 -10 -5.5 -18.5t-2.5 -16.5q9 -23 29 -36.5t48 -13.5h4q28 0 48 13.5t29 36.5q3 8 -2.5 16.5t-5.5 18.5q0 7 3 9.5t6.5 2.5t6.5 -3.5t3 -8.5q0 -25 -8 -44.5t-20.5 -33t-28 -20.5
t-31.5 -7h-4zM97 10q0 -6 6 -6h39q3 0 3 -2t-3 -2h-113q-4 0 -4 2t4 2h39q7 0 7 6v437q0 6 -7 6h-39q-4 0 -4 2t4 2h113q3 0 3 -2t-3 -2h-39q-6 0 -6 -6v-409l288 391v18q0 6 -7 6h-39q-2 0 -2.5 2t2.5 2h113q3 0 3 -2t-3 -2h-37q-8 0 -8 -6v-437q0 -6 6 -6h39q3 0 3 -2
t-3 -2h-113q-4 0 -4 2t4 2h39q7 0 7 6v409l-288 -391v-18z" />
    <glyph glyph-name="afii10076" unicode="&#x43a;" horiz-adv-x="420" 
d="M64 448q0 5 -3 5h-34q-2 0 -2 2t2 2h96q2 0 2.5 -2t-2.5 -2h-33q-4 0 -4 -5v-440q-1 -1 0 -2q0 -2 4 -2h31q2 0 2 -2t-2 -2h-92q-2 0 -2 2t2 2h30q5 0 5 4v440zM113 252h16l193 198q4 3 -1 3h-31q-3 0 -3 2t3 2h78q2 0 2 -2t-2 -2h-11q-8 0 -19.5 -3t-16.5 -8l-185 -190
h6q40 0 82.5 -27t77.5 -84q15 -25 29 -50t25.5 -45t21 -32.5t16.5 -12.5q5 0 7 1l4 2q3 2 5 0t-1 -4q-5 -2 -7.5 -2.5t-7.5 -0.5q-12 0 -23 6t-23.5 20.5t-28 39t-36.5 62.5q-32 58 -68 90t-74 32h-28v5z" />
    <glyph glyph-name="afii10077" unicode="&#x43b;" horiz-adv-x="463" 
d="M146 429q1 10 -4.5 17t-16.5 7h-15q-3 0 -3 2t3 2h309q2 0 2 -2t-2 -2h-14q-15 0 -15 -15v-428q0 -6 6 -6h39q3 0 3 -2t-3 -2h-113q-4 0 -4 2t4 2h39q7 0 7 6v430q0 13 -11 13h-180q-12 0 -18.5 -7.5t-7.5 -16.5l-11 -176q-5 -82 -18 -132.5t-28.5 -78.5t-31.5 -37.5
t-28 -9.5q-13 0 -18 6t-5 12q0 5 4 8.5t13 1.5q22 -6 40.5 9.5t32 47.5t22.5 76.5t12 96.5z" />
    <glyph glyph-name="afii10078" unicode="&#x43c;" horiz-adv-x="591" 
d="M43 0q-3 0 -3 2t3 2h30q10 0 10 10v439h-40q-3 0 -3 2t3 2h69l188 -430l1 2l191 428h71q3 0 3 -2t-3 -2h-39q-6 0 -6 -6v-437q0 -6 6 -6h39q3 0 3 -2t-3 -2h-113q-4 0 -4 2t4 2h39q7 0 7 6v442l-202 -455h-4l-202 457v-440q0 -10 10 -10h30q3 0 3 -2t-3 -2h-85z" />
    <glyph glyph-name="afii10079" unicode="&#x43d;" horiz-adv-x="470" 
d="M97 10q0 -6 6 -6h39q3 0 3 -2t-3 -2h-113q-4 0 -4 2t4 2h39q7 0 7 6v437q0 6 -7 6h-39q-4 0 -4 2t4 2h113q3 0 3 -2t-3 -2h-39q-6 0 -6 -6v-198h278v198q0 6 -7 6h-39q-4 0 -4 2t4 2h113q3 0 3 -2t-3 -2h-39q-6 0 -6 -6v-437q0 -6 6 -6h39q3 0 3 -2t-3 -2h-113q-4 0 -4 2
t4 2h39q7 0 7 6v234h-278v-234v0z" />
    <glyph glyph-name="afii10080" unicode="&#x43e;" horiz-adv-x="467" 
d="M234 467q40 0 77 -14t65 -41.5t44.5 -70t16.5 -99.5v-11q0 -49 -13 -91.5t-38.5 -74.5t-64 -50.5t-88.5 -18.5t-88 18.5t-63.5 50.5t-38.5 74.5t-13 91.5v11q0 30 10 64t30 58q4 23 19.5 42t38 32.5t50 21t56.5 7.5zM234 463q-36 0 -65 -10.5t-47.5 -27.5t-26 -38
t-0.5 -43q3 -7 -0.5 -11.5t-9 -6t-10.5 2t-6 13.5q-1 6 0 13l-2 -1l-3 -23q-10 -37 -10 -89v-11q0 -50 10 -92t32 -73t55.5 -48.5t81.5 -17.5t82 17.5t55.5 48.5t31.5 73t10 92v11q0 60 -14.5 102t-39.5 68.5t-57 38.5t-67 12z" />
    <glyph glyph-name="afii10081" unicode="&#x43f;" 
d="M357 440q0 13 -11 13h-241q-7 -1 -9 -11v-432q0 -6 6 -6h39q3 0 3 -2t-3 -2h-113q-4 0 -4 2t4 2h39q7 0 7 6v431q-2 10 -12 12h-34q-4 0 -4 2t4 2h396q3 0 3 -2t-3 -2h-30q-15 0 -15 -15v-428q0 -6 6 -6h39q3 0 3 -2t-3 -2h-113q-4 0 -4 2t4 2h39q7 0 7 6v430v0z" />
    <glyph glyph-name="afii10082" unicode="&#x440;" horiz-adv-x="498" 
d="M21 453q0 2 2 2h65q4 0 4.5 -2t0.5 -3v-113q10 33 28 57.5t41.5 40.5t49.5 24t53 8q40 0 77 -14t65 -41.5t44.5 -70t16.5 -99.5v-11q0 -49 -12.5 -91.5t-37.5 -74.5t-61.5 -50.5t-84.5 -18.5q-28 0 -55 6t-51 22t-43 42.5t-30 67.5v-370q0 -10 10 -10h29q2 0 2 -2t-2 -2
h-101q-2 0 -2 2t2 2h30q10 0 10 10v661q0 26 -23 26h-25q-2 0 -2 2zM265 463q-65 0 -111.5 -41t-60.5 -111v-148q6 -36 19.5 -65.5t35.5 -51.5t52.5 -34t71.5 -12q45 0 77.5 17.5t53 48.5t30.5 73t10 92v11q0 60 -14.5 102t-39.5 68.5t-57 38.5t-67 12z" />
    <glyph glyph-name="afii10083" unicode="&#x441;" horiz-adv-x="429" 
d="M236 463q-37 0 -70 -13.5t-57.5 -41.5t-38.5 -70.5t-14 -100.5v-11q0 -50 8.5 -91.5t29 -71.5t54.5 -47t85 -17q38 0 67 13.5t46.5 34t23.5 45t-1 46.5q-3 7 1 11.5t9.5 6t10.5 -2t6 -13.5q2 -27 -10.5 -53.5t-35 -46.5t-53 -32.5t-63.5 -12.5q-53 0 -91.5 17.5
t-63.5 48.5t-37 73.5t-12 91.5v11q0 57 18.5 100t47.5 72t66 43.5t74 14.5h7q34 0 62 -9.5t48.5 -26t30.5 -39.5t8 -50q-1 -10 -6 -13.5t-10.5 -2t-9.5 6t-1 11.5q7 22 3 43t-19 38t-41.5 27.5t-64.5 10.5h-7z" />
    <glyph glyph-name="afii10084" unicode="&#x442;" horiz-adv-x="433" 
d="M233 451q-5 0 -5 -5v-437q0 -5 6 -5h40q4 0 4 -2t-4 -2h-114q-4 0 -4 2t4 2h41q5 0 5 5v437q0 5 -5 5h-108q-29 0 -44 -16t-15 -38v-49h-4v107h373v-107h-4v49q0 22 -15 38t-44 16h-107v0z" />
    <glyph glyph-name="afii10085" unicode="&#x443;" horiz-adv-x="468" 
d="M241 18l-8 -20l-10 -29q-47 -128 -118 -177.5t-159 -17.5q-19 7 -25.5 15t-5 14t8.5 8t16 -3q56 -31 100.5 -26.5t78.5 31t58.5 69.5t40.5 88l11 33q-8 -7 -13 8l-171 442h-56q-2 0 -2 2t2 2h140q2 0 2 -2t-2 -2h-58l166 -430l143 390q6 16 6 24.5t-4.5 12t-13.5 3.5h-20
h-27q-2 0 -2 2t2 2h151q3 0 3 -2t-3 -2h-40q-16 0 -27 -7t-20 -31z" />
    <glyph glyph-name="afii10086" unicode="&#x444;" horiz-adv-x="760" 
d="M430 -246q2 0 2 -2t-2 -2h-101q-2 0 -2 2t2 2h30q10 0 10 10v363q-11 -39 -28 -64.5t-39 -40t-46.5 -20.5t-49.5 -6q-44 0 -76.5 18.5t-55 50.5t-33.5 74.5t-11 91.5v11q0 57 15 99.5t40.5 70t58.5 41.5t69 14q50 0 93 -30t63 -92v351q0 23 -20 23h-38q-2 0 -2 2t2 2h95
q2 0 2 -2t-2 -2h-15v-374q20 62 63 92t93 30q36 0 69 -14t58.5 -41.5t40.5 -70t15 -99.5v-11q0 -49 -11 -91.5t-33.5 -74.5t-55.5 -50.5t-76 -18.5q-26 0 -50.5 6t-46 20.5t-39 40t-27.5 64.5v-363q0 -10 10 -10h29zM547 463q-57 0 -99.5 -38.5t-56.5 -105.5v-163
q6 -34 18.5 -62.5t32.5 -49.5t47.5 -32.5t64.5 -11.5q39 0 67.5 17.5t47 48.5t27.5 73t9 92v11q0 60 -14 102t-36.5 68.5t-50.5 38.5t-57 12zM206 0q36 0 64 11.5t47.5 32.5t32.5 49.5t19 62.5v163q-14 67 -56.5 105.5t-99.5 38.5q-29 0 -57 -12t-50.5 -38.5t-36.5 -68.5
t-14 -102v-11q0 -50 9 -92t27.5 -73t47 -48.5t67.5 -17.5z" />
    <glyph glyph-name="afii10087" unicode="&#x445;" horiz-adv-x="463" 
d="M299 0q-2 0 -2 2t2 2h63l-138 221l-123 -189q-14 -23 -6.5 -27.5t22.5 -4.5h55q3 0 3 -2t-3 -2h-167q-2 0 -2 2t2 2h44q11 0 23 4.5t26 28.5l124 191l-139 223h-63q-3 0 -3 2t3 2h150q3 0 3 -2t-3 -2h-58l125 -200l109 168q14 23 6.5 27.5t-22.5 4.5h-55q-3 0 -3 2t3 2
h167q3 0 3 -2t-3 -2h-44q-11 0 -23 -4.5t-26 -28.5l-110 -171l152 -243h52q3 0 3 -2t-3 -2h-144z" />
    <glyph glyph-name="afii10088" unicode="&#x446;" horiz-adv-x="478" 
d="M29 0q-4 0 -4 3t4 3h35q7 0 7 7v433q0 7 -7 7h-35q-4 0 -4 2t4 2h105q3 0 3 -2t-3 -2h-34q-7 0 -7 -7v-433q0 -7 7 -7h266q7 0 7 7v433q0 7 -7 7h-36q-4 0 -4 2t4 2h110q3 0 3 -2t-3 -2h-38q-7 0 -7 -7v-433q0 -7 7 -7h27l-6 -80h-4l2 32q2 18 -12 30t-32 12h-348z" />
    <glyph glyph-name="afii10089" unicode="&#x447;" horiz-adv-x="443" 
d="M371 11q0 -7 7 -7h38q3 0 3 -2t-3 -2h-110q-4 0 -4 2t4 2h36q7 0 7 7v284q-7 -29 -22 -56t-36 -48t-48.5 -33.5t-59.5 -12.5q-62 0 -94 32t-32 83v186q0 7 -7 7h-36q-4 0 -4 2t4 2h110q3 0 3 -2t-3 -2h-38q-7 0 -7 -5v-194q0 -48 26 -76.5t78 -28.5q32 0 60 14t50 37
t36.5 53t19.5 63v130q0 7 -7 7h-36q-4 0 -4 2t4 2h110q3 0 3 -2t-3 -2h-38q-7 0 -7 -7v-435v0z" />
    <glyph glyph-name="afii10090" unicode="&#x448;" horiz-adv-x="660" 
d="M93 13q0 -7 7 -7h213q5 0 5 6v434q0 7 -7 7h-36q-4 0 -4 2t4 2h110q3 0 3 -2t-3 -2h-38q-7 0 -7 -7v-433q0 -7 7 -7h211q7 0 7 7v433q0 7 -7 7h-36q-4 0 -4 2t4 2h110q3 0 3 -2t-3 -2h-38q-7 0 -7 -7v-433q0 -7 7 -7h38q3 0 3 -3t-3 -3h-603q-4 0 -4 3t4 3h35q7 0 7 7
v433q0 7 -7 7h-35q-4 0 -4 2t4 2h105q3 0 3 -2t-3 -2h-34q-7 0 -7 -7v-433z" />
    <glyph glyph-name="afii10091" unicode="&#x449;" horiz-adv-x="670" 
d="M93 13q0 -7 7 -7h212q6 0 6 6v434q0 7 -7 7h-36q-4 0 -4 2t4 2h110q3 0 3 -2t-3 -2h-38q-7 0 -7 -7v-434q0 -6 7 -6h211q7 0 7 7v433q0 7 -7 7h-36q-4 0 -4 2t4 2h110q3 0 3 -2t-3 -2h-38q-7 0 -7 -7v-433q0 -7 7 -7h27l-6 -80h-4l2 32q2 17 -11 29t-30 13h-543
q-4 0 -4 3t4 3h35q7 0 7 7v433q0 7 -7 7h-35q-4 0 -4 2t4 2h105q3 0 3 -2t-3 -2h-34q-7 0 -7 -7v-433z" />
    <glyph glyph-name="afii10092" unicode="&#x44a;" horiz-adv-x="477" 
d="M192 275q0 -4 5 -4h92q29 0 59 -4.5t54.5 -18t40 -38.5t15.5 -65q0 -36 -14 -63t-37 -45.5t-51.5 -27.5t-58.5 -9h-173q-4 0 -4 2t4 2h39q7 0 7 7v432q0 10 -10 10h-72q-29 0 -44 -16t-15 -38v-49h-4v107h167v-182zM197 266q-5 0 -5 -5v-252q0 -5 5 -5h99q28 0 53 8
t43.5 25t29.5 43.5t11 64.5q0 71 -37 96t-109 25h-90z" />
    <glyph glyph-name="afii10093" unicode="&#x44b;" horiz-adv-x="520" 
d="M67 4q7 0 7 7v435q0 7 -7 7h-36q-4 0 -4 2t4 2h110q3 0 3 -2t-3 -2h-38q-7 0 -7 -5v-173q0 -4 5 -4h92q29 0 59 -4.5t54.5 -18t40 -38.5t15.5 -65q0 -36 -14 -63t-37 -45.5t-51.5 -27.5t-58.5 -9h-173q-4 0 -4 2t4 2h39zM101 266q-5 0 -5 -5v-252q0 -5 5 -5h99q28 0 53 8
t43.5 25t29.5 43.5t11 64.5q0 71 -37 96t-109 25h-90zM447 10q0 -6 6 -6h39q3 0 3 -2t-3 -2h-113q-4 0 -4 2t4 2h39q7 0 7 6v437q0 6 -7 6h-39q-4 0 -4 2t4 2h113q3 0 3 -2t-3 -2h-39q-6 0 -6 -6v-437z" />
    <glyph glyph-name="afii10094" unicode="&#x44c;" horiz-adv-x="381" 
d="M67 4q7 0 7 7v435q0 7 -7 7h-36q-4 0 -4 2t4 2h110q3 0 3 -2t-3 -2h-38q-7 0 -7 -5v-173q0 -4 5 -4h92q29 0 59 -4.5t54.5 -18t40 -38.5t15.5 -65q0 -36 -14 -63t-37 -45.5t-51.5 -27.5t-58.5 -9h-173q-4 0 -4 2t4 2h39zM101 266q-5 0 -5 -5v-252q0 -5 5 -5h99q28 0 53 8
t43.5 25t29.5 43.5t11 64.5q0 71 -37 96t-109 25h-90z" />
    <glyph glyph-name="afii10095" unicode="&#x44d;" horiz-adv-x="418" 
d="M185 467q40 0 77 -14t65 -41.5t44.5 -70t16.5 -99.5v-11q0 -50 -13 -93.5t-38.5 -76t-64 -51.5t-88.5 -19q-30 0 -58.5 9.5t-51 26t-35 39.5t-10.5 50q1 10 6 13.5t10.5 2t9 -6t0.5 -11.5q-6 -22 0.5 -43t24 -38t44 -27.5t60.5 -10.5q48 0 82 18t55.5 49.5t31.5 74.5
t10 94v10h-145q-17 0 -34 -11t-17 -34v-21h-5v138h5v-24q0 -21 17 -31.5t34 -11.5h145q-1 59 -16 100t-39.5 67t-56.5 38t-66 12h-10q-23 0 -44.5 -6.5t-38.5 -18t-27.5 -27.5t-11.5 -35v-22q0 -6 -2.5 -6t-2.5 6v107q0 5 3 5t3 -5v-6q0 -17 13 -17q7 0 16 4.5t21.5 10
t29.5 10t41 4.5h10v0z" />
    <glyph glyph-name="afii10096" unicode="&#x44e;" horiz-adv-x="612" 
d="M376 -9q-42 0 -78.5 14.5t-63.5 44.5t-43 76t-16 109v1h-78v-226q0 -6 7 -6h39q4 0 4 -2t-4 -2h-113q-3 0 -3 2t3 2h39q6 0 6 6v437q0 6 -7 6h-39q-4 0 -4 2t4 2h113q3 0 3 -2t-3 -2h-39q-6 0 -6 -6v-207h78q1 57 17.5 99t44 70.5t63 42.5t74.5 14h6q39 0 75.5 -14.5
t64.5 -43t45 -72t17 -101.5q0 -63 -16.5 -109t-44.5 -76t-65.5 -44.5t-79.5 -14.5zM378 -6q38 0 70.5 13t56.5 42t38 74.5t14 111.5q0 60 -13.5 103t-37.5 70.5t-56.5 40.5t-69.5 13h-6q-37 -1 -69 -14t-55.5 -40t-37 -70t-13.5 -103q0 -66 13.5 -111.5t37 -74t56 -42
t70.5 -13.5h2z" />
    <glyph glyph-name="afii10097" unicode="&#x44f;" horiz-adv-x="420" 
d="M263 219h-39q-21 0 -37.5 -16.5t-30.5 -41.5t-27 -54.5t-28 -54.5t-33 -41.5t-41 -16.5q-9 0 -18 6q-3 2 -1.5 3t4.5 0q2 -1 5 -2t8 -1q6 0 16 10.5t22 28.5t26 42t28 52q14 33 34.5 56.5t46.5 31.5q-24 3 -47 12.5t-41 24t-28.5 34.5t-10.5 46q0 31 12 53t31.5 36.5
t44.5 21.5t51 8h182q3 0 3 -2t-3 -2h-37q-10 0 -10 -10v-429q0 -10 10 -10h34q4 0 4 -2t-4 -2h-112q-4 0 -4 2t4 2h36q10 0 10 10v429q0 10 -10 10h-100q-23 -1 -44.5 -8t-38 -20.5t-26 -35t-9.5 -51.5t12 -52t31.5 -35.5t44.5 -20t51 -6.5h29v-5z" />
    <glyph glyph-name="afii10071" unicode="&#x451;" horiz-adv-x="455" 
d="M240 -4q-50 1 -87 19.5t-62.5 50.5t-38 74.5t-12.5 90.5v11q0 57 16.5 99t44 70t64 42t77.5 14h1q34 0 64 -11.5t53 -32.5t37 -50.5t17 -65.5q1 -19 -21 -19h-326q-1 -11 -1.5 -22.5t-0.5 -23.5v-11q0 -50 10 -92t31.5 -73t55.5 -48.5t82 -17.5q33 0 60 10.5t46 27
t29.5 37.5t10.5 41q0 4 -1.5 11t-1.5 13.5t2.5 11t10.5 4.5q14 0 14 -23q0 -27 -15 -51.5t-39 -44t-55.5 -30.5t-64.5 -11zM390 309q0 31 -8.5 59t-26.5 49t-46 33.5t-66 12.5q-31 0 -60 -9.5t-52.5 -30t-40 -53t-22.5 -78.5h306q16 0 16 17zM146 568q-8 0 -13 5t-5 13t5 13
t13 5t13 -5t5 -13t-5 -13t-13 -5zM308 568q-8 0 -13 5t-5 13t5 13t13 5t13 -5t5 -13t-5 -13t-13 -5z" />
    <glyph glyph-name="afii10099" unicode="&#x452;" horiz-adv-x="457" 
d="M16 721q0 2 2 2h98q2 0 2 -2t-2 -2h-15v-163h207v-6h-207v-275q6 36 20.5 70.5t37 61.5t53 43t67.5 16q34 0 59 -9.5t41.5 -25.5t24.5 -36t8 -42v-224q0 -75 -24 -134.5t-69 -98.5q-29 -26 -71 -41.5t-91 -13.5q-12 0 -18 5.5t-6 11.5t5 10t14 3q62 -11 100 -2t63 31
q42 35 58.5 94.5t16.5 134.5v218q0 22 -8 44t-24 38.5t-40.5 25t-57.5 5.5q-35 -4 -63.5 -24.5t-49.5 -52t-33 -70t-13 -77.5v-222q0 -10 10 -10h39q3 0 3 -2t-3 -2h-118q-2 0 -2 2t2 2h37q10 0 10 10v536h-49v6h49v137q0 23 -20 26h-41q-2 0 -2 2z" />
    <glyph glyph-name="afii10100" unicode="&#x453;" horiz-adv-x="326" 
d="M39 453q-3 0 -3 2t3 2h272v-107h-4v58q0 18 -12.5 31.5t-36.5 13.5h-155q-6 0 -6 -6v-437q0 -6 6 -6h39q3 0 3 -2t-3 -2h-113q-4 0 -4 2t4 2h39q7 0 7 6v437q0 6 -7 6h-29zM160 633q3 6 7.5 11t13.5 5t9.5 -7.5t-4.5 -12.5l-52 -50h-2z" />
    </font>
</defs>
</svg>
