<?xml version="1.0" standalone="no"?>
<!DOCTYPE svg PUBLIC "-//W3C//DTD SVG 1.1//EN" "http://www.w3.org/Graphics/SVG/1.1/DTD/svg11.dtd" >
<svg xmlns="http://www.w3.org/2000/svg" xmlns:xlink="http://www.w3.org/1999/xlink" version="1.1">
<metadata>
Created by FontForge 20170731 at Tue Dec 24 03:30:12 2013
 By Aleksey,,,
Copyright (c) 2012 by Viet hoa by UhThilahuvo - chipquay@gmail.com. All rights reserved.
</metadata>
<defs>
<font id="HLTAquus" horiz-adv-x="380" >
  <font-face 
    font-family="HLT Aquus"
    font-weight="400"
    font-stretch="normal"
    units-per-em="1000"
    panose-1="0 0 5 0 0 0 0 0 0 0"
    ascent="831"
    descent="-169"
    x-height="668"
    cap-height="668"
    bbox="-65 -193 1312 936"
    underline-thickness="50"
    underline-position="-150"
    unicode-range="U+0020-E000"
  />
<missing-glyph horiz-adv-x="487" 
d="M428 668v-668h-368v668h368zM305 614l-63 -262l-64 262l-8 -2l68 -278l-68 -278l8 -2l64 263l63 -263l8 2l-67 278l67 278z" />
    <glyph glyph-name="uniE000" unicode="&#x2d;&#x2d;" horiz-adv-x="760" 
d="M781 294l-91 86l-289 -86l-91 86l-289 -86l-2 8l293 88l91 -86l289 86l95 -90z" />
    <glyph glyph-name="D_C" unicode="DC" horiz-adv-x="818" 
d="M790 146q0 -32 -12 -60t-33 -49t-49 -33t-60 -12q-51 0 -90 29t-55 74q-5 12 -7 29.5t-2 53.5v178l-103 -31v-169q0 -32 -12.5 -60.5t-34 -49.5t-50 -33.5t-60.5 -12.5h-198v8h60v652h-60v8h144v-9q25 9 53 9q33 0 61.5 -12.5t50 -34t34 -50t12.5 -61.5v-176l103 31v136
q0 33 3.5 52.5t8.5 32.5q17 40 53.5 65t82.5 25q49 0 87 -28t53 -72v96h8v-153h-8v9q0 38 -18 69t-48 50q-19 11 -45 11t-47 -12.5t-33 -33.5q-6 -11 -9.5 -25t-3.5 -39v-418q0 -32 4.5 -49.5t11.5 -28.5q13 -20 33.5 -32.5t46.5 -12.5q13 0 24.5 3.5t21.5 8.5
q33 19 53.5 52.5t20.5 74.5h8zM372 324l-101 -30l-2 8l103 31v179q0 31 -12 58.5t-32 47.5t-47.5 32t-58.5 12q-26 0 -51 -9l-3 -1v-643h54q62 0 105 43q44 44 44 104z" />
    <glyph glyph-name="D_E" unicode="DE" horiz-adv-x="803" 
d="M765 519v141h-174v-322l166 50l2 -8l-168 -50v-322h174v141h8v-149h-326v8h60v297l-128 -38v-111q0 -32 -12.5 -60.5t-34 -49.5t-50 -33.5t-60.5 -12.5h-198v8h60v652h-60v8h144v-9q25 9 53 9q33 0 61.5 -12.5t50 -34t34 -50t12.5 -61.5v-235l128 38v347h-60v8h326v-149
h-8zM372 265l-101 -30l-2 8l103 31v238q0 31 -12 58.5t-32 47.5t-47.5 32t-58.5 12q-26 0 -51 -9l-3 -1v-643h54q62 0 105 43q44 44 44 104z" />
    <glyph glyph-name="D_E_E" unicode="DEE" horiz-adv-x="1183" 
d="M1145 518v141h-174v-322l166 50l2 -8l-168 -50v-322h174v141h8v-149h-326v8h60v297l-41 -12l-91 86l-164 -49v-322h174v141h8v-149h-326v8h60v297l-128 -38v-111q0 -32 -12.5 -60.5t-34 -49.5t-50 -33.5t-60.5 -12.5h-198v8h60v652h-60v8h144v-9q25 9 53 9
q33 0 61.5 -12.5t50 -34t34 -50t12.5 -61.5v-235l128 38v347h-60v8h326v-149h-8v141h-174v-322l166 50l91 -86l39 12v347h-60v8h326v-149zM372 264l-101 -30l-2 8l103 31v238q0 31 -12 58.5t-32 47.5t-47.5 32t-58.5 12q-26 0 -51 -9l-3 -1v-643h54q62 0 105 43
q44 44 44 104z" />
    <glyph glyph-name="D_E_F" unicode="DEF" horiz-adv-x="1182" 
d="M1153 667v-149h-8v141h-174v-322l166 50l2 -8l-168 -50v-322h60v-8h-204v8h60v297l-41 -12l-91 86l-164 -49v-322h174v141h8v-149h-326v8h60v297l-128 -38v-111q0 -32 -12.5 -60.5t-34 -49.5t-50 -33.5t-60.5 -12.5h-198v8h60v652h-60v8h144v-9q25 9 53 9
q33 0 61.5 -12.5t50 -34t34 -50t12.5 -61.5v-235l128 38v347h-60v8h326v-149h-8v141h-174v-322l166 50l91 -86l39 12v347h-60v8zM372 264l-101 -30l-2 8l103 31v238q0 31 -12 58.5t-32 47.5t-47.5 32t-58.5 12q-26 0 -51 -9l-3 -1v-643h54q62 0 105 43q44 44 44 104z" />
    <glyph glyph-name="D_E_H" unicode="DEH" horiz-adv-x="1299" 
d="M1215 659v-652h60v-8h-204v8h60v370l-160 -48v-322h60v-8h-204v8h60v297l-41 -12l-91 86l-164 -49v-322h174v141h8v-149h-326v8h60v297l-128 -38v-111q0 -32 -12.5 -60.5t-34 -49.5t-50 -33.5t-60.5 -12.5h-198v8h60v652h-60v8h144v-9q25 9 53 9q33 0 61.5 -12.5t50 -34
t34 -50t12.5 -61.5v-235l128 38v347h-60v8h326v-149h-8v141h-174v-322l166 50l91 -86l39 12v347h-60v8h204v-8h-60v-322l160 48v274h-60v8h204v-8zM372 264l-101 -30l-2 8l103 31v238q0 31 -12 58.5t-32 47.5t-47.5 32t-58.5 12q-26 0 -51 -9l-3 -1v-643h54q62 0 105 43
q44 44 44 104z" />
    <glyph glyph-name="D_E_Z" unicode="DEZ" horiz-adv-x="1177" 
d="M1040 351l-118 -343h208v141h8v-149h-308l113 322l-90 -27l-98 84l-164 -49v-322h174v141h8v-149h-326v8h60v297l-128 -38v-111q0 -32 -12.5 -60.5t-34 -49.5t-50 -33.5t-60.5 -12.5h-198v8h60v652h-60v8h144v-9q25 9 53 9q33 0 61.5 -12.5t50 -34t34 -50t12.5 -61.5
v-235l128 38v347h-60v8h326v-149h-8v141h-174v-322l166 50l98 -84l91 27l116 329h-203v-141h-8v149h299l-106 -308l93 28l2 -8zM372 265l-101 -30l-2 8l103 31v238q0 31 -12 58.5t-32 47.5t-47.5 32t-58.5 12q-26 0 -51 -9l-3 -1v-643h54q62 0 105 43q44 44 44 104z" />
    <glyph glyph-name="D_F" unicode="DF" horiz-adv-x="802" 
d="M773 668v-149h-8v141h-174v-322l166 50l2 -8l-168 -50v-322h60v-8h-204v8h60v297l-128 -38v-111q0 -32 -12.5 -60.5t-34 -49.5t-50 -33.5t-60.5 -12.5h-198v8h60v652h-60v8h144v-9q25 9 53 9q33 0 61.5 -12.5t50 -34t34 -50t12.5 -61.5v-235l128 38v347h-60v8h326z
M372 265l-101 -30l-2 8l103 31v238q0 31 -12 58.5t-32 47.5t-47.5 32t-58.5 12q-26 0 -51 -9l-3 -1v-643h54q62 0 105 43q44 44 44 104z" />
    <glyph glyph-name="D_G" unicode="DG" horiz-adv-x="831" 
d="M796 351v-203q0 -33 -12.5 -61.5t-33.5 -49.5t-49.5 -33.5t-61.5 -12.5q-51 0 -91 29t-57 74q-5 13 -7 30t-2 53v178l-103 -31v-169q0 -32 -12.5 -60.5t-34 -49.5t-50 -33.5t-60.5 -12.5h-198v8h60v652h-60v8h144v-9q25 9 53 9q33 0 61.5 -12.5t50 -34t34 -50t12.5 -61.5
v-176l103 31v125q0 36 2 53.5t7 29.5q16 45 55 74t89 29q51 0 90.5 -29.5t54.5 -74.5v100h8v-153h-8v4q0 40 -20 73t-52 52q-21 12 -46 12q-26 0 -46.5 -12t-34.5 -32q-8 -11 -11.5 -27t-3.5 -51v-408q0 -32 3.5 -49.5t11.5 -28.5q14 -20 35.5 -32.5t47.5 -12.5t47 12
q35 19 56 53.5t21 76.5v193l-113 -30l-2 8zM372 323l-101 -30l-2 8l103 31v179q0 31 -12 58.5t-32 47.5t-47.5 32t-58.5 12q-26 0 -51 -9l-3 -1v-643h54q62 0 105 43q44 44 44 104z" />
    <glyph glyph-name="D_H" unicode="DH" horiz-adv-x="919" 
d="M835 660v-652h60v-8h-204v8h60v370l-160 -48v-322h60v-8h-204v8h60v297l-128 -38v-111q0 -32 -12.5 -60.5t-34 -49.5t-50 -33.5t-60.5 -12.5h-198v8h60v652h-60v8h144v-9q25 9 53 9q33 0 61.5 -12.5t50 -34t34 -50t12.5 -61.5v-235l128 38v347h-60v8h204v-8h-60v-322
l160 48v274h-60v8h204v-8h-60zM372 265l-101 -30l-2 8l103 31v238q0 31 -12 58.5t-32 47.5t-47.5 32t-58.5 12q-26 0 -51 -9l-3 -1v-643h54q62 0 105 43q44 44 44 104z" />
    <glyph glyph-name="D_O" unicode="DO" horiz-adv-x="850" 
d="M796 397q20 -2 34.5 -17t14.5 -36t-14.5 -36t-34.5 -17v-142q0 -33 -12.5 -61.5t-33.5 -49.5t-49.5 -33.5t-61.5 -12.5q-51 0 -91 29t-57 74q-5 13 -7 30t-2 53v178l-103 -31v-169q0 -32 -12.5 -60.5t-34 -49.5t-50 -33.5t-60.5 -12.5h-198v8h60v652h-60v8h144v-9
q25 9 53 9q33 0 61.5 -12.5t50 -34t34 -50t12.5 -61.5v-176l103 31v125q0 35 2 52.5t7 30.5q17 45 57 74t91 29q33 0 61.5 -12.5t49.5 -33.5t33.5 -49.5t12.5 -61.5v-122zM788 291q-20 2 -34.5 17t-14.5 36t14.5 36t34.5 17v122q0 42 -21 76.5t-56 53.5q-21 12 -47 12
t-47.5 -12.5t-34.5 -32.5q-8 -11 -12 -28.5t-4 -49.5v-408q0 -32 3.5 -49.5t11.5 -28.5q14 -20 35.5 -32.5t47.5 -12.5t47 12q35 19 56 53t21 77v142zM372 324l-101 -30l-2 8l103 31v179q0 31 -12 58.5t-32 47.5t-47.5 32t-58.5 12q-26 0 -51 -9l-3 -1v-643h54q62 0 105 43
q44 44 44 104zM793 300q19 0 32 13t13 32t-13 32t-32 13t-32 -13t-13 -32t13 -32t32 -13z" />
    <glyph glyph-name="D_O_C" unicode="DOC" horiz-adv-x="1235" 
d="M1207 146q0 -32 -12 -60t-33 -49t-49 -33t-60 -12q-51 0 -90 29t-55 74q-5 12 -7 29.5t-2 53.5v181l-103 -31v-179q0 -33 -12.5 -61.5t-33.5 -49.5t-49.5 -33.5t-61.5 -12.5q-51 0 -91 29t-57 74q-5 13 -7 30t-2 53v178l-103 -31v-169q0 -32 -12.5 -60.5t-34 -49.5
t-50 -33.5t-60.5 -12.5h-198v8h60v652h-60v8h144v-9q25 9 53 9q33 0 61.5 -12.5t50 -34t34 -50t12.5 -61.5v-176l103 31v125q0 35 2 52.5t7 30.5q17 45 57 74t91 29q33 0 61.5 -12.5t49.5 -33.5t33.5 -49.5t12.5 -61.5v-182l103 31v133q0 33 3.5 52.5t8.5 32.5
q17 40 53.5 65t82.5 25q49 0 87 -28t53 -72v96h8v-153h-8v9q0 38 -18 69t-48 50q-19 11 -45 11t-47 -12.5t-33 -33.5q-6 -11 -9.5 -25t-3.5 -39v-418q0 -32 4.5 -49.5t11.5 -28.5q13 -20 33.5 -32.5t46.5 -12.5q13 0 24.5 3.5t21.5 8.5q33 19 53.5 52.5t20.5 74.5h8z
M788 325l-111 -33l-2 8l113 34v185q0 42 -21 76.5t-56 53.5q-21 12 -47 12t-47.5 -12.5t-34.5 -32.5q-8 -11 -12 -28.5t-4 -49.5v-408q0 -32 3.5 -49.5t11.5 -28.5q14 -20 35.5 -32.5t47.5 -12.5t47 12q35 19 56 53t21 77v176zM372 323l-101 -30l-2 8l103 31v179
q0 31 -12 58.5t-32 47.5t-47.5 32t-58.5 12q-26 0 -51 -9l-3 -1v-643h54q62 0 105 43q44 44 44 104z" />
    <glyph glyph-name="D_O_E" unicode="DOE" horiz-adv-x="1220" 
d="M1182 519v141h-174v-322l166 50l2 -8l-168 -50v-322h174v141h8v-149h-326v8h60v297l-128 -38v-118q0 -33 -12.5 -61.5t-33.5 -49.5t-49.5 -33.5t-61.5 -12.5q-51 0 -91 29t-57 74q-5 13 -7 30t-2 53v178l-103 -31v-169q0 -32 -12.5 -60.5t-34 -49.5t-50 -33.5
t-60.5 -12.5h-198v8h60v652h-60v8h144v-9q25 9 53 9q33 0 61.5 -12.5t50 -34t34 -50t12.5 -61.5v-176l103 31v125q0 35 2 52.5t7 30.5q17 45 57 74t91 29q33 0 61.5 -12.5t49.5 -33.5t33.5 -49.5t12.5 -61.5v-244l128 38v347h-60v8h326v-149h-8zM788 263l-111 -33l-2 8
l113 34v247q0 42 -21 76.5t-56 53.5q-21 12 -47 12t-47.5 -12.5t-34.5 -32.5q-8 -11 -12 -28.5t-4 -49.5v-408q0 -32 3.5 -49.5t11.5 -28.5q14 -20 35.5 -32.5t47.5 -12.5t47 12q35 19 56 53t21 77v114zM372 323l-101 -30l-2 8l103 31v179q0 31 -12 58.5t-32 47.5t-47.5 32
t-58.5 12q-26 0 -51 -9l-3 -1v-643h54q62 0 105 43q44 44 44 104z" />
    <glyph glyph-name="D_O_F" unicode="DOF" horiz-adv-x="1219" 
d="M1190 668v-149h-8v141h-174v-322l166 50l2 -8l-168 -50v-322h60v-8h-204v8h60v297l-128 -38v-118q0 -33 -12.5 -61.5t-33.5 -49.5t-49.5 -33.5t-61.5 -12.5q-51 0 -91 29t-57 74q-5 13 -7 30t-2 53v178l-103 -31v-169q0 -32 -12.5 -60.5t-34 -49.5t-50 -33.5t-60.5 -12.5
h-198v8h60v652h-60v8h144v-9q25 9 53 9q33 0 61.5 -12.5t50 -34t34 -50t12.5 -61.5v-176l103 31v125q0 35 2 52.5t7 30.5q17 45 57 74t91 29q33 0 61.5 -12.5t49.5 -33.5t33.5 -49.5t12.5 -61.5v-244l128 38v347h-60v8h326zM788 263l-111 -33l-2 8l113 34v247q0 42 -21 76.5
t-56 53.5q-21 12 -47 12t-47.5 -12.5t-34.5 -32.5q-8 -11 -12 -28.5t-4 -49.5v-408q0 -32 3.5 -49.5t11.5 -28.5q14 -20 35.5 -32.5t47.5 -12.5t47 12q35 19 56 53t21 77v114zM372 323l-101 -30l-2 8l103 31v179q0 31 -12 58.5t-32 47.5t-47.5 32t-58.5 12q-26 0 -51 -9
l-3 -1v-643h54q62 0 105 43q44 44 44 104z" />
    <glyph glyph-name="D_O_G" unicode="DOG" horiz-adv-x="1248" 
d="M1213 351v-203q0 -33 -12.5 -61.5t-33.5 -49.5t-49.5 -33.5t-61.5 -12.5q-51 0 -91 29t-57 74q-5 13 -7 30t-2 53v181l-103 -31v-179q0 -33 -12.5 -61.5t-33.5 -49.5t-49.5 -33.5t-61.5 -12.5q-51 0 -91 29t-57 74q-5 13 -7 30t-2 53v178l-103 -31v-169
q0 -32 -12.5 -60.5t-34 -49.5t-50 -33.5t-60.5 -12.5h-198v8h60v652h-60v8h144v-9q25 9 53 9q33 0 61.5 -12.5t50 -34t34 -50t12.5 -61.5v-176l103 31v125q0 35 2 52.5t7 30.5q17 45 57 74t91 29q33 0 61.5 -12.5t49.5 -33.5t33.5 -49.5t12.5 -61.5v-182l103 31v122
q0 36 2 53.5t7 29.5q16 45 55 74t89 29q51 0 90.5 -29.5t54.5 -74.5v100h8v-153h-8v4q0 40 -20 73t-52 52q-21 12 -46 12q-26 0 -46.5 -12t-34.5 -32q-8 -11 -11.5 -27t-3.5 -51v-408q0 -32 3.5 -49.5t11.5 -28.5q14 -20 35.5 -32.5t47.5 -12.5t47 12q35 19 56 53.5t21 76.5
v193l-113 -30l-2 8zM788 324l-111 -33l-2 8l113 34v185q0 42 -21 76.5t-56 53.5q-21 12 -47 12t-47.5 -12.5t-34.5 -32.5q-8 -11 -12 -28.5t-4 -49.5v-408q0 -32 3.5 -49.5t11.5 -28.5q14 -20 35.5 -32.5t47.5 -12.5t47 12q35 19 56 53t21 77v176zM372 322l-101 -30l-2 8
l103 31v179q0 31 -12 58.5t-32 47.5t-47.5 32t-58.5 12q-26 0 -51 -9l-3 -1v-643h54q62 0 105 43q44 44 44 104z" />
    <glyph glyph-name="D_O_H" unicode="DOH" horiz-adv-x="1336" 
d="M1252 660v-652h60v-8h-204v8h60v370l-160 -48v-322h60v-8h-204v8h60v297l-128 -38v-118q0 -33 -12.5 -61.5t-33.5 -49.5t-49.5 -33.5t-61.5 -12.5q-51 0 -91 29t-57 74q-5 13 -7 30t-2 53v178l-103 -31v-169q0 -32 -12.5 -60.5t-34 -49.5t-50 -33.5t-60.5 -12.5h-198v8
h60v652h-60v8h144v-9q25 9 53 9q33 0 61.5 -12.5t50 -34t34 -50t12.5 -61.5v-176l103 31v125q0 35 2 52.5t7 30.5q17 45 57 74t91 29q33 0 61.5 -12.5t49.5 -33.5t33.5 -49.5t12.5 -61.5v-244l128 38v347h-60v8h204v-8h-60v-322l160 48v274h-60v8h204v-8h-60zM788 263
l-111 -33l-2 8l113 34v247q0 42 -21 76.5t-56 53.5q-21 12 -47 12t-47.5 -12.5t-34.5 -32.5q-8 -11 -12 -28.5t-4 -49.5v-408q0 -32 3.5 -49.5t11.5 -28.5q14 -20 35.5 -32.5t47.5 -12.5t47 12q35 19 56 53t21 77v114zM372 323l-101 -30l-2 8l103 31v179q0 31 -12 58.5
t-32 47.5t-47.5 32t-58.5 12q-26 0 -51 -9l-3 -1v-643h54q62 0 105 43q44 44 44 104z" />
    <glyph glyph-name="D_O_O" unicode="DOO" horiz-adv-x="1267" 
d="M1213 397q20 -2 34.5 -17t14.5 -36t-14.5 -36t-34.5 -17v-142q0 -33 -12.5 -61.5t-33.5 -49.5t-49.5 -33.5t-61.5 -12.5q-51 0 -91 29t-57 74q-5 13 -7 30t-2 53v181l-103 -31v-179q0 -33 -12.5 -61.5t-33.5 -49.5t-49.5 -33.5t-61.5 -12.5q-51 0 -91 29t-57 74
q-5 13 -7 30t-2 53v178l-103 -31v-169q0 -32 -12.5 -60.5t-34 -49.5t-50 -33.5t-60.5 -12.5h-198v8h60v652h-60v8h144v-9q25 9 53 9q33 0 61.5 -12.5t50 -34t34 -50t12.5 -61.5v-176l103 31v125q0 35 2 52.5t7 30.5q17 45 57 74t91 29q33 0 61.5 -12.5t49.5 -33.5
t33.5 -49.5t12.5 -61.5v-182l103 31v122q0 35 2 52.5t7 30.5q17 45 57 74t91 29q33 0 61.5 -12.5t49.5 -33.5t33.5 -49.5t12.5 -61.5v-122zM788 325l-111 -33l-2 8l113 34v185q0 42 -21 76.5t-56 53.5q-21 12 -47 12t-47.5 -12.5t-34.5 -32.5q-8 -11 -12 -28.5t-4 -49.5
v-408q0 -32 3.5 -49.5t11.5 -28.5q14 -20 35.5 -32.5t47.5 -12.5t47 12q35 19 56 53t21 77v176zM1205 290q-20 2 -34.5 17t-14.5 36t14.5 36t34.5 17v122q0 42 -21 76.5t-56 53.5q-21 12 -47 12t-47.5 -12.5t-34.5 -32.5q-8 -11 -12 -28.5t-4 -49.5v-408q0 -32 3.5 -49.5
t11.5 -28.5q14 -20 35.5 -32.5t47.5 -12.5t47 12q35 19 56 53t21 77v142zM372 323l-101 -30l-2 8l103 31v179q0 31 -12 58.5t-32 47.5t-47.5 32t-58.5 12q-26 0 -51 -9l-3 -1v-643h54q62 0 105 43q44 44 44 104zM1210 299q19 0 32 13t13 32t-13 32t-32 13t-32 -13t-13 -32
t13 -32t32 -13z" />
    <glyph glyph-name="D_O_U" unicode="DOU" horiz-adv-x="1302" 
d="M1289 667v-8h-60v-514q0 -32 -12 -60t-33 -49t-49 -33t-60 -12q-51 0 -90 29t-55 74q-5 12 -7 29.5t-2 53.5v188l-125 -37v-179q0 -33 -12.5 -61.5t-33.5 -49.5t-49.5 -33.5t-61.5 -12.5q-51 0 -91 29t-57 74q-5 13 -7 30t-2 53v178l-103 -31v-169q0 -32 -12.5 -60.5
t-34 -49.5t-50 -33.5t-60.5 -12.5h-198v8h60v652h-60v8h144v-9q25 9 53 9q33 0 61.5 -12.5t50 -34t34 -50t12.5 -61.5v-176l103 31v125q0 35 2 52.5t7 30.5q17 45 57 74t91 29q33 0 61.5 -12.5t49.5 -33.5t33.5 -49.5t12.5 -61.5v-182l125 37v286h-60v8h204v-8h-60v-532
q0 -30 4 -47.5t11 -28.5q13 -20 34 -32.5t47 -12.5q13 0 24.5 3.5t21.5 8.5q33 19 53.5 52.5t20.5 74.5v514h-60v8zM788 324l-111 -33l-2 8l113 34v185q0 42 -21 76.5t-56 53.5q-21 12 -47 12t-47.5 -12.5t-34.5 -32.5q-8 -11 -12 -28.5t-4 -49.5v-408q0 -32 3.5 -49.5
t11.5 -28.5q14 -20 35.5 -32.5t47.5 -12.5t47 12q35 19 56 53t21 77v176zM372 322l-101 -30l-2 8l103 31v179q0 31 -12 58.5t-32 47.5t-47.5 32t-58.5 12q-26 0 -51 -9l-3 -1v-643h54q62 0 105 43q44 44 44 104z" />
    <glyph glyph-name="D_O_Z" unicode="DOZ" horiz-adv-x="1214" 
d="M1077 351l-118 -343h208v141h8v-149h-308l113 322l-184 -55v-118q0 -33 -12.5 -61.5t-33.5 -49.5t-49.5 -33.5t-61.5 -12.5q-51 0 -91 29t-57 74q-5 13 -7 30t-2 53v178l-103 -31v-169q0 -32 -12.5 -60.5t-34 -49.5t-50 -33.5t-60.5 -12.5h-198v8h60v652h-60v8h144v-9
q25 9 53 9q33 0 61.5 -12.5t50 -34t34 -50t12.5 -61.5v-176l103 31v125q0 35 2 52.5t7 30.5q17 45 57 74t91 29q33 0 61.5 -12.5t49.5 -33.5t33.5 -49.5t12.5 -61.5v-244l187 56l116 329h-203v-141h-8v149h299l-106 -308l93 28l2 -8zM788 263l-111 -33l-2 8l113 34v247
q0 42 -21 76.5t-56 53.5q-21 12 -47 12t-47.5 -12.5t-34.5 -32.5q-8 -11 -12 -28.5t-4 -49.5v-408q0 -32 3.5 -49.5t11.5 -28.5q14 -20 35.5 -32.5t47.5 -12.5t47 12q35 19 56 53t21 77v114zM372 323l-101 -30l-2 8l103 31v179q0 31 -12 58.5t-32 47.5t-47.5 32t-58.5 12
q-26 0 -51 -9l-3 -1v-643h54q62 0 105 43q44 44 44 104z" />
    <glyph glyph-name="D_Q" unicode="DQ" horiz-adv-x="843" 
d="M894 -36q0 -35 -25 -60t-60 -25t-60 25t-25 60v52q-23 -14 -45.5 -19.5t-39.5 -5.5q-51 0 -91 29t-57 74q-5 13 -7 30t-2 53v178l-103 -31v-169q0 -32 -12.5 -60.5t-34 -49.5t-50 -33.5t-60.5 -12.5h-198v8h60v652h-60v8h144v-9q25 9 53 9q33 0 61.5 -12.5t50 -34t34 -50
t12.5 -61.5v-176l103 31v125q0 35 2 52.5t7 30.5q17 45 57 74t91 29q33 0 61.5 -12.5t49.5 -33.5t33.5 -49.5t12.5 -61.5v-370q0 -39 -17.5 -72.5t-46.5 -53.5v-57q0 -32 22.5 -54.5t54.5 -22.5t54.5 22.5t22.5 54.5zM566 102q8 26 30 42.5t51 16.5q35 0 60 -25t25 -60v-45
q26 20 41 50.5t15 66.5v370q0 42 -21 76.5t-56 53.5q-21 12 -47 12t-47.5 -12.5t-34.5 -32.5q-8 -11 -12 -28.5t-4 -49.5v-435zM372 323l-101 -30l-2 8l103 31v179q0 31 -12 58.5t-32 47.5t-47.5 32t-58.5 12q-26 0 -51 -9l-3 -1v-643h54q62 0 105 43q44 44 44 104zM726 77
q0 32 -22.5 54.5t-54.5 22.5t-54.5 -22.5t-22.5 -54.5t22.5 -54.5t54.5 -22.5q14 0 34.5 6.5t41.5 20.5z" />
    <glyph glyph-name="D_U" unicode="DU" horiz-adv-x="885" 
d="M872 667v-8h-60v-514q0 -32 -12 -60t-33 -49t-49 -33t-60 -12q-51 0 -90 29t-55 74q-5 12 -7 29.5t-2 53.5v185l-125 -37v-169q0 -32 -12.5 -60.5t-34 -49.5t-50 -33.5t-60.5 -12.5h-198v8h60v652h-60v8h144v-9q25 9 53 9q33 0 61.5 -12.5t50 -34t34 -50t12.5 -61.5v-176
l125 37v289h-60v8h204v-8h-60v-532q0 -30 4 -47.5t11 -28.5q13 -20 34 -32.5t47 -12.5q13 0 24.5 3.5t21.5 8.5q33 19 53.5 52.5t20.5 74.5v514h-60v8zM372 323l-101 -30l-2 8l103 31v179q0 31 -12 58.5t-32 47.5t-47.5 32t-58.5 12q-26 0 -51 -9l-3 -1v-643h54q62 0 105 43
q44 44 44 104z" />
    <glyph glyph-name="D_U_C" unicode="DUC" horiz-adv-x="1270" 
d="M1242 146q0 -32 -12 -60t-33 -49t-49 -33t-60 -12q-51 0 -90 29t-55 74q-5 12 -7 29.5t-2 53.5v185l-122 -36v-181q0 -32 -12 -60t-33 -49t-49 -33t-60 -12q-51 0 -90 29t-55 74q-5 12 -7 29.5t-2 53.5v185l-125 -37v-169q0 -32 -12.5 -60.5t-34 -49.5t-50 -33.5
t-60.5 -12.5h-198v8h60v652h-60v8h144v-9q25 9 53 9q33 0 61.5 -12.5t50 -34t34 -50t12.5 -61.5v-176l125 37v289h-60v8h204v-8h-60v-532q0 -30 4 -47.5t11 -28.5q13 -20 34 -32.5t47 -12.5q13 0 24.5 3.5t21.5 8.5q33 19 53.5 52.5t20.5 74.5v179l-106 -32l-2 8l108 32v327
h-60v8h128v-8h-60v-325l122 36v129q0 33 3.5 52.5t8.5 32.5q17 40 53.5 65t82.5 25q49 0 87 -28t53 -72v96h8v-153h-8v9q0 38 -18 69t-48 50q-19 11 -45 11t-47 -12.5t-33 -33.5q-6 -11 -9.5 -25t-3.5 -39v-418q0 -32 4.5 -49.5t11.5 -28.5q13 -20 33.5 -32.5t46.5 -12.5
q13 0 24.5 3.5t21.5 8.5q33 19 53.5 52.5t20.5 74.5h8zM372 324l-101 -30l-2 8l103 31v179q0 31 -12 58.5t-32 47.5t-47.5 32t-58.5 12q-26 0 -51 -9l-3 -1v-643h54q62 0 105 43q44 44 44 104z" />
    <glyph glyph-name="D_U_E" unicode="DUE" horiz-adv-x="1255" 
d="M1217 519v141h-174v-322l166 50l2 -8l-168 -50v-322h174v141h8v-149h-326v8h60v297l-147 -44v-115q0 -32 -12 -60t-33 -49t-49 -33t-60 -12q-51 0 -90 29t-55 74q-5 12 -7 29.5t-2 53.5v185l-125 -37v-169q0 -32 -12.5 -60.5t-34 -49.5t-50 -33.5t-60.5 -12.5h-198v8h60
v652h-60v8h144v-9q25 9 53 9q33 0 61.5 -12.5t50 -34t34 -50t12.5 -61.5v-176l125 37v289h-60v8h204v-8h-60v-532q0 -30 4 -47.5t11 -28.5q13 -20 34 -32.5t47 -12.5q13 0 24.5 3.5t21.5 8.5q33 19 53.5 52.5t20.5 74.5v112l-106 -32l-2 8l108 32v393h-60v8h128v-8h-60v-391
l147 44v347h-60v8h326v-149h-8zM372 324l-101 -30l-2 8l103 31v179q0 31 -12 58.5t-32 47.5t-47.5 32t-58.5 12q-26 0 -51 -9l-3 -1v-643h54q62 0 105 43q44 44 44 104z" />
    <glyph glyph-name="D_U_F" unicode="DUF" horiz-adv-x="1254" 
d="M1225 668v-149h-8v141h-174v-322l166 50l2 -8l-168 -50v-322h60v-8h-204v8h60v297l-147 -44v-115q0 -32 -12 -60t-33 -49t-49 -33t-60 -12q-51 0 -90 29t-55 74q-5 12 -7 29.5t-2 53.5v185l-125 -37v-169q0 -32 -12.5 -60.5t-34 -49.5t-50 -33.5t-60.5 -12.5h-198v8h60
v652h-60v8h144v-9q25 9 53 9q33 0 61.5 -12.5t50 -34t34 -50t12.5 -61.5v-176l125 37v289h-60v8h204v-8h-60v-532q0 -30 4 -47.5t11 -28.5q13 -20 34 -32.5t47 -12.5q13 0 24.5 3.5t21.5 8.5q33 19 53.5 52.5t20.5 74.5v112l-106 -32l-2 8l108 32v393h-60v8h128v-8h-60v-391
l147 44v347h-60v8h326zM372 324l-101 -30l-2 8l103 31v179q0 31 -12 58.5t-32 47.5t-47.5 32t-58.5 12q-26 0 -51 -9l-3 -1v-643h54q62 0 105 43q44 44 44 104z" />
    <glyph glyph-name="D_U_G" unicode="DUG" horiz-adv-x="1283" 
d="M1248 351v-203q0 -33 -12.5 -61.5t-33.5 -49.5t-49.5 -33.5t-61.5 -12.5q-51 0 -91 29t-57 74q-5 13 -7 30t-2 53v185l-122 -36v-181q0 -32 -12 -60t-33 -49t-49 -33t-60 -12q-51 0 -90 29t-55 74q-5 12 -7 29.5t-2 53.5v185l-125 -37v-169q0 -32 -12.5 -60.5t-34 -49.5
t-50 -33.5t-60.5 -12.5h-198v8h60v652h-60v8h144v-9q25 9 53 9q33 0 61.5 -12.5t50 -34t34 -50t12.5 -61.5v-176l125 37v289h-60v8h204v-8h-60v-532q0 -30 4 -47.5t11 -28.5q13 -20 34 -32.5t47 -12.5q13 0 24.5 3.5t21.5 8.5q33 19 53.5 52.5t20.5 74.5v179l-106 -32l-2 8
l108 32v327h-60v8h128v-8h-60v-325l122 36v118q0 36 2 53.5t7 29.5q16 45 55 74t89 29q51 0 90.5 -29.5t54.5 -74.5v100h8v-153h-8v4q0 40 -20 73t-52 52q-21 12 -46 12q-26 0 -46.5 -12t-34.5 -32q-8 -11 -11.5 -27t-3.5 -51v-408q0 -32 3.5 -49.5t11.5 -28.5
q14 -20 35.5 -32.5t47.5 -12.5t47 12q35 19 56 53.5t21 76.5v193l-113 -30l-2 8zM372 323l-101 -30l-2 8l103 31v179q0 31 -12 58.5t-32 47.5t-47.5 32t-58.5 12q-26 0 -51 -9l-3 -1v-643h54q62 0 105 43q44 44 44 104z" />
    <glyph glyph-name="D_U_O" unicode="DUO" horiz-adv-x="1302" 
d="M1248 397q20 -2 34.5 -17t14.5 -36t-14.5 -36t-34.5 -17v-142q0 -33 -12.5 -61.5t-33.5 -49.5t-49.5 -33.5t-61.5 -12.5q-51 0 -91 29t-57 74q-5 13 -7 30t-2 53v185l-122 -36v-181q0 -32 -12 -60t-33 -49t-49 -33t-60 -12q-51 0 -90 29t-55 74q-5 12 -7 29.5t-2 53.5
v185l-125 -37v-169q0 -32 -12.5 -60.5t-34 -49.5t-50 -33.5t-60.5 -12.5h-198v8h60v652h-60v8h144v-9q25 9 53 9q33 0 61.5 -12.5t50 -34t34 -50t12.5 -61.5v-176l125 37v289h-60v8h204v-8h-60v-532q0 -30 4 -47.5t11 -28.5q13 -20 34 -32.5t47 -12.5q13 0 24.5 3.5
t21.5 8.5q33 19 53.5 52.5t20.5 74.5v179l-106 -32l-2 8l108 32v327h-60v8h128v-8h-60v-325l122 36v118q0 35 2 52.5t7 30.5q17 45 57 74t91 29q33 0 61.5 -12.5t49.5 -33.5t33.5 -49.5t12.5 -61.5v-122zM1240 291q-20 2 -34.5 17t-14.5 36t14.5 36t34.5 17v122
q0 42 -21 76.5t-56 53.5q-21 12 -47 12t-47.5 -12.5t-34.5 -32.5q-8 -11 -12 -28.5t-4 -49.5v-408q0 -32 3.5 -49.5t11.5 -28.5q14 -20 35.5 -32.5t47.5 -12.5t47 12q35 19 56 53t21 77v142zM372 324l-101 -30l-2 8l103 31v179q0 31 -12 58.5t-32 47.5t-47.5 32t-58.5 12
q-26 0 -51 -9l-3 -1v-643h54q62 0 105 43q44 44 44 104zM1245 300q19 0 32 13t13 32t-13 32t-32 13t-32 -13t-13 -32t13 -32t32 -13z" />
    <glyph glyph-name="D_U_Z" unicode="DUZ" horiz-adv-x="1249" 
d="M1112 351l-118 -343h208v141h8v-149h-308l113 322l-203 -61v-115q0 -32 -12 -60t-33 -49t-49 -33t-60 -12q-51 0 -90 29t-55 74q-5 12 -7 29.5t-2 53.5v185l-125 -37v-169q0 -32 -12.5 -60.5t-34 -49.5t-50 -33.5t-60.5 -12.5h-198v8h60v652h-60v8h144v-9q25 9 53 9
q33 0 61.5 -12.5t50 -34t34 -50t12.5 -61.5v-176l125 37v289h-60v8h204v-8h-60v-532q0 -30 4 -47.5t11 -28.5q13 -20 34 -32.5t47 -12.5q13 0 24.5 3.5t21.5 8.5q33 19 53.5 52.5t20.5 74.5v112l-103 -31l-2 8l105 31v393h-60v8h128v-8h-60v-391l206 62l116 329h-203v-141
h-8v149h299l-106 -308l93 28l2 -8zM372 324l-101 -30l-2 8l103 31v179q0 31 -12 58.5t-32 47.5t-47.5 32t-58.5 12q-26 0 -51 -9l-3 -1v-643h54q62 0 105 43q44 44 44 104z" />
    <glyph glyph-name="D_Z" unicode="DZ" horiz-adv-x="797" 
d="M660 351l-118 -343h208v141h8v-149h-308l113 322l-184 -55v-111q0 -32 -12.5 -60.5t-34 -49.5t-50 -33.5t-60.5 -12.5h-198v8h60v652h-60v8h144v-9q25 9 53 9q33 0 61.5 -12.5t50 -34t34 -50t12.5 -61.5v-235l187 56l116 329h-203v-141h-8v149h299l-106 -308l93 28l2 -8z
M372 266l-101 -30l-2 8l103 31v237q0 31 -12 58.5t-32 47.5t-47.5 32t-58.5 12q-26 0 -51 -9l-3 -1v-643h54q62 0 105 43q44 44 44 104z" />
    <glyph glyph-name="D_hyphen" unicode="D&#x2d;" horiz-adv-x="759" 
d="M378 275v-118q0 -32 -12.5 -60.5t-34 -49.5t-50 -33.5t-60.5 -12.5h-198v8h60v652h-60v8h144v-9q25 9 54 9q33 0 61.5 -12.5t50 -34t34 -50t12.5 -61.5v-228l358 107l2 -8zM370 271l-101 -30l-2 8l103 31v230q0 31 -12 58.5t-32 47.5t-47.5 32t-58.5 12q-29 0 -53 -9
v-642h54q30 0 57.5 11.5t47.5 31.5t32 47t12 58v114z" />
    <glyph glyph-name="E_E" unicode="EE" horiz-adv-x="760" 
d="M722 517v141h-174v-322l166 50l2 -8l-168 -50v-322h174v141h8v-149h-326v8h60v297l-41 -12l-91 86l-164 -49v-322h174v141h8v-149h-326v8h60v297l-41 -12l-2 8l43 13v347h-60v8h326v-149h-8v141h-174v-322l166 50l91 -86l39 12v347h-60v8h326v-149z" />
    <glyph glyph-name="E_E_F" unicode="EEF" horiz-adv-x="1139" 
d="M1110 665v-149h-8v141h-174v-322l166 50l2 -8l-168 -50v-322h60v-8h-204v8h60v297l-41 -12l-91 86l-164 -49v-322h174v141h8v-149h-326v8h60v297l-41 -12l-91 86l-164 -49v-322h174v141h8v-149h-326v8h60v297l-41 -12l-2 8l43 13v347h-60v8h326v-149h-8v141h-174v-322
l166 50l91 -86l39 12v347h-60v8h326v-149h-8v141h-174v-322l166 50l91 -86l39 12v347h-60v8z" />
    <glyph glyph-name="E_E_H" unicode="EEH" horiz-adv-x="1256" 
d="M1172 657v-652h60v-8h-204v8h60v370l-160 -48v-322h60v-8h-204v8h60v297l-41 -12l-91 86l-164 -49v-322h174v141h8v-149h-326v8h60v297l-41 -12l-91 86l-164 -49v-322h174v141h8v-149h-326v8h60v297l-41 -12l-2 8l43 13v347h-60v8h326v-149h-8v141h-174v-322l166 50
l91 -86l39 12v347h-60v8h326v-149h-8v141h-174v-322l166 50l91 -86l39 12v347h-60v8h204v-8h-60v-322l160 48v274h-60v8h204v-8z" />
    <glyph glyph-name="E_E_Z" unicode="EEZ" horiz-adv-x="1134" 
d="M997 349l-118 -343h208v141h8v-149h-308l113 322l-90 -27l-98 84l-164 -49v-322h174v141h8v-149h-326v8h60v297l-41 -12l-91 86l-164 -49v-322h174v141h8v-149h-326v8h60v297l-41 -12l-2 8l43 13v347h-60v8h326v-149h-8v141h-174v-322l166 50l91 -86l39 12v347h-60v8h326
v-149h-8v141h-174v-322l166 50l98 -84l91 27l116 329h-203v-141h-8v149h299l-106 -308l93 28l2 -8z" />
    <glyph glyph-name="E_F" unicode="EF" horiz-adv-x="759" 
d="M722 517v141h-174v-322l166 50l2 -8l-168 -50v-322h60v-8h-204v8h60v297l-41 -12l-91 86l-164 -49v-322h174v141h8v-149h-326v8h60v297l-41 -12l-2 8l43 13v347h-60v8h326v-149h-8v141h-174v-322l166 50l91 -86l39 12v347h-60v8h326v-149z" />
    <glyph glyph-name="E_H" unicode="EH" horiz-adv-x="876" 
d="M792 658v-652h60v-8h-204v8h60v370l-160 -48v-322h60v-8h-204v8h60v297l-41 -12l-91 86l-164 -49v-322h174v141h8v-149h-326v8h60v297l-41 -12l-2 8l43 13v347h-60v8h326v-149h-8v141h-174v-322l166 50l91 -86l39 12v347h-60v8h204v-8h-60v-322l160 48v274h-60v8h204v-8z
" />
    <glyph glyph-name="E_Z" unicode="EZ" horiz-adv-x="754" 
d="M617 350l-118 -343h208v141h8v-149h-308l113 322l-90 -27l-98 84l-164 -49v-322h174v141h8v-149h-326v8h60v297l-41 -12l-2 8l43 13v347h-60v8h326v-149h-8v141h-174v-322l166 50l98 -84l91 27l116 329h-203v-141h-8v149h299l-106 -308l93 28l2 -8z" />
    <glyph glyph-name="E_Z_Z" unicode="EZZ" horiz-adv-x="1128" 
d="M991 350l-118 -343h208v141h8v-149h-308l113 322l-90 -27l-92 84l-95 -28l-118 -343h208v141h8v-149h-308l113 322l-90 -27l-98 84l-164 -49v-322h174v141h8v-149h-326v8h60v297l-41 -12l-2 8l43 13v347h-60v8h326v-149h-8v141h-174v-322l166 50l98 -84l91 27l116 329
h-203v-141h-8v149h299l-106 -308l93 28l92 -84l91 27l116 329h-203v-141h-8v149h299l-106 -308l93 28l2 -8z" />
    <glyph glyph-name="F_E" unicode="FE" horiz-adv-x="760" 
d="M722 517v141h-174v-322l166 50l2 -8l-168 -50v-322h174v141h8v-149h-326v8h60v297l-41 -12l-91 86l-164 -49v-322h60v-8h-204v8h60v297l-41 -12l-2 8l43 13v347h-60v8h326v-149h-8v141h-174v-322l166 50l91 -86l39 12v347h-60v8h326v-149z" />
    <glyph glyph-name="F_E_E" unicode="FEE" horiz-adv-x="1139" 
d="M1101 516v141h-174v-322l166 50l2 -8l-168 -50v-322h174v141h8v-149h-326v8h60v297l-41 -12l-91 86l-164 -49v-322h174v141h8v-149h-326v8h60v297l-41 -12l-90 86l-164 -49v-322h60v-8h-204v8h60v297l-41 -12l-2 8l43 13v347h-60v8h326v-149h-8v141h-174v-322l166 50
l90 -86l39 12v347h-60v8h326v-149h-8v141h-174v-322l166 50l91 -86l39 12v347h-60v8h326v-149z" />
    <glyph glyph-name="F_E_F" unicode="FEF" horiz-adv-x="1138" 
d="M1109 665v-149h-8v141h-174v-322l166 50l2 -8l-168 -50v-322h60v-8h-204v8h60v297l-41 -12l-91 86l-164 -49v-322h174v141h8v-149h-326v8h60v297l-41 -12l-90 86l-164 -49v-322h60v-8h-204v8h60v297l-41 -12l-2 8l43 13v347h-60v8h326v-149h-8v141h-174v-322l166 50
l90 -86l39 12v347h-60v8h326v-149h-8v141h-174v-322l166 50l91 -86l39 12v347h-60v8z" />
    <glyph glyph-name="F_E_H" unicode="FEH" horiz-adv-x="1255" 
d="M1171 657v-652h60v-8h-204v8h60v370l-160 -48v-322h60v-8h-204v8h60v297l-41 -12l-91 86l-164 -49v-322h174v141h8v-149h-326v8h60v297l-41 -12l-90 86l-164 -49v-322h60v-8h-204v8h60v297l-41 -12l-2 8l43 13v347h-60v8h326v-149h-8v141h-174v-322l166 50l90 -86l39 12
v347h-60v8h326v-149h-8v141h-174v-322l166 50l91 -86l39 12v347h-60v8h204v-8h-60v-322l160 48v274h-60v8h204v-8z" />
    <glyph glyph-name="F_E_Z" unicode="FEZ" horiz-adv-x="1133" 
d="M996 349l-118 -343h208v141h8v-149h-308l113 322l-90 -27l-98 84l-164 -49v-322h174v141h8v-149h-326v8h60v297l-41 -12l-90 86l-164 -49v-322h60v-8h-204v8h60v297l-41 -12l-2 8l43 13v347h-60v8h326v-149h-8v141h-174v-322l166 50l90 -86l39 12v347h-60v8h326v-149h-8
v141h-174v-322l166 50l98 -84l91 27l116 329h-203v-141h-8v149h299l-106 -308l93 28l2 -8z" />
    <glyph glyph-name="F_F" unicode="FF" horiz-adv-x="758" 
d="M721 517v141h-174v-322l166 50l2 -8l-168 -50v-322h60v-8h-204v8h60v297l-41 -12l-90 86l-164 -49v-322h60v-8h-204v8h60v297l-41 -12l-2 8l43 13v347h-60v8h326v-149h-8v141h-174v-322l166 50l90 -86l39 12v347h-60v8h326v-149z" />
    <glyph glyph-name="F_H" unicode="FH" horiz-adv-x="875" 
d="M791 658v-652h60v-8h-204v8h60v370l-160 -48v-322h60v-8h-204v8h60v297l-41 -12l-90 86l-164 -49v-322h60v-8h-204v8h60v297l-41 -12l-2 8l43 13v347h-60v8h326v-149h-8v141h-174v-322l166 50l90 -86l39 12v347h-60v8h204v-8h-60v-322l160 48v274h-60v8h204v-8z" />
    <glyph glyph-name="F_Z" unicode="FZ" horiz-adv-x="753" 
d="M616 350l-118 -343h208v141h8v-149h-308l113 322l-90 -27l-97 84l-164 -49v-322h60v-8h-204v8h60v297l-41 -12l-2 8l43 13v347h-60v8h326v-149h-8v141h-174v-322l166 50l97 -84l91 27l116 329h-203v-141h-8v149h299l-106 -308l93 28l2 -8z" />
    <glyph glyph-name="O_C" unicode="OC" horiz-adv-x="812" 
d="M784 146q0 -32 -12 -60t-33 -49t-49 -33t-60 -12q-51 0 -90 29t-55 74q-5 12 -7 29.5t-2 53.5v181l-103 -31v-179q0 -33 -12.5 -61.5t-33.5 -49.5t-49.5 -33.5t-61.5 -12.5q-51 0 -91 29t-57 74q-5 13 -7 30t-2 53v312q0 35 2 52.5t7 30.5q17 45 57 74t91 29
q33 0 61.5 -12.5t49.5 -33.5t33.5 -49.5t12.5 -61.5v-182l103 31v133q0 33 3.5 52.5t8.5 32.5q17 40 53.5 65t82.5 25q49 0 87 -28t53 -72v96h8v-153h-8v9q0 38 -18 69t-48 50q-19 11 -45 11t-47 -12.5t-33 -33.5q-6 -11 -9.5 -25t-3.5 -39v-418q0 -32 4.5 -49.5t11.5 -28.5
q13 -20 33.5 -32.5t46.5 -12.5q13 0 24.5 3.5t21.5 8.5q33 19 53.5 52.5t20.5 74.5h8zM365 325l-111 -33l-2 8l113 34v185q0 42 -21 76.5t-56 53.5q-21 12 -47 12t-47.5 -12.5t-34.5 -32.5q-8 -11 -12 -28.5t-4 -49.5v-408q0 -32 3.5 -49.5t11.5 -28.5q14 -20 35.5 -32.5
t47.5 -12.5t47 12q35 19 56 53t21 77v176z" />
    <glyph glyph-name="O_E" unicode="OE" horiz-adv-x="791" 
d="M759 519v141h-174v-322l166 50l2 -8l-168 -50v-322h174v141h8v-149h-326v8h60v297l-128 -38v-118q0 -33 -12.5 -61.5t-33.5 -49.5t-49.5 -33.5t-61.5 -12.5q-51 0 -91 29t-57 74q-5 13 -7 30t-2 53v312q0 35 2 52.5t7 30.5q17 45 57 74t91 29q33 0 61.5 -12.5t49.5 -33.5
t33.5 -49.5t12.5 -61.5v-244l128 38v347h-60v8h326v-149h-8zM365 263l-111 -33l-2 8l113 34v247q0 42 -21 76.5t-56 53.5q-21 12 -47 12t-47.5 -12.5t-34.5 -32.5q-8 -11 -12 -28.5t-4 -49.5v-408q0 -32 3.5 -49.5t11.5 -28.5q14 -20 35.5 -32.5t47.5 -12.5t47 12
q35 19 56 53t21 77v114z" />
    <glyph glyph-name="O_F" unicode="OF" horiz-adv-x="796" 
d="M767 668v-149h-8v141h-174v-322l166 50l2 -8l-168 -50v-322h60v-8h-204v8h60v297l-128 -38v-118q0 -33 -12.5 -61.5t-33.5 -49.5t-49.5 -33.5t-61.5 -12.5q-51 0 -91 29t-57 74q-5 13 -7 30t-2 53v312q0 35 2 52.5t7 30.5q17 45 57 74t91 29q33 0 61.5 -12.5t49.5 -33.5
t33.5 -49.5t12.5 -61.5v-244l128 38v347h-60v8h326zM365 263l-111 -33l-2 8l113 34v247q0 42 -21 76.5t-56 53.5q-21 12 -47 12t-47.5 -12.5t-34.5 -32.5q-8 -11 -12 -28.5t-4 -49.5v-408q0 -32 3.5 -49.5t11.5 -28.5q14 -20 35.5 -32.5t47.5 -12.5t47 12q35 19 56 53t21 77
v114z" />
    <glyph glyph-name="O_G" unicode="OG" horiz-adv-x="825" 
d="M790 351v-203q0 -33 -12.5 -61.5t-33.5 -49.5t-49.5 -33.5t-61.5 -12.5q-51 0 -91 29t-57 74q-5 13 -7 30t-2 53v181l-103 -31v-179q0 -33 -12.5 -61.5t-33.5 -49.5t-49.5 -33.5t-61.5 -12.5q-51 0 -91 29t-57 74q-5 13 -7 30t-2 53v312q0 35 2 52.5t7 30.5q17 45 57 74
t91 29q33 0 61.5 -12.5t49.5 -33.5t33.5 -49.5t12.5 -61.5v-182l103 31v122q0 36 2 53.5t7 29.5q16 45 55 74t89 29q51 0 90.5 -29.5t54.5 -74.5v100h8v-153h-8v4q0 40 -20 73t-52 52q-21 12 -46 12q-26 0 -46.5 -12t-34.5 -32q-8 -11 -11.5 -27t-3.5 -51v-408
q0 -32 3.5 -49.5t11.5 -28.5q14 -20 35.5 -32.5t47.5 -12.5t47 12q35 19 56 53.5t21 76.5v193l-113 -30l-2 8zM365 324l-111 -33l-2 8l113 34v185q0 42 -21 76.5t-56 53.5q-21 12 -47 12t-47.5 -12.5t-34.5 -32.5q-8 -11 -12 -28.5t-4 -49.5v-408q0 -32 3.5 -49.5
t11.5 -28.5q14 -20 35.5 -32.5t47.5 -12.5t47 12q35 19 56 53t21 77v176z" />
    <glyph glyph-name="O_H" unicode="OH" horiz-adv-x="913" 
d="M829 660v-652h60v-8h-204v8h60v370l-160 -48v-322h60v-8h-204v8h60v297l-128 -38v-118q0 -33 -12.5 -61.5t-33.5 -49.5t-49.5 -33.5t-61.5 -12.5q-51 0 -91 29t-57 74q-5 13 -7 30t-2 53v312q0 35 2 52.5t7 30.5q17 45 57 74t91 29q33 0 61.5 -12.5t49.5 -33.5
t33.5 -49.5t12.5 -61.5v-244l128 38v347h-60v8h204v-8h-60v-322l160 48v274h-60v8h204v-8h-60zM365 263l-111 -33l-2 8l113 34v247q0 42 -21 76.5t-56 53.5q-21 12 -47 12t-47.5 -12.5t-34.5 -32.5q-8 -11 -12 -28.5t-4 -49.5v-408q0 -32 3.5 -49.5t11.5 -28.5
q14 -20 35.5 -32.5t47.5 -12.5t47 12q35 19 56 53t21 77v114z" />
    <glyph glyph-name="O_O" unicode="OO" horiz-adv-x="844" 
d="M790 397q20 -2 34.5 -17t14.5 -36t-14.5 -36t-34.5 -17v-142q0 -33 -12.5 -61.5t-33.5 -49.5t-49.5 -33.5t-61.5 -12.5q-51 0 -91 29t-57 74q-5 13 -7 30t-2 53v181l-103 -31v-179q0 -33 -12.5 -61.5t-33.5 -49.5t-49.5 -33.5t-61.5 -12.5q-51 0 -91 29t-57 74
q-5 13 -7 30t-2 53v312q0 35 2 52.5t7 30.5q17 45 57 74t91 29q33 0 61.5 -12.5t49.5 -33.5t33.5 -49.5t12.5 -61.5v-182l103 31v122q0 35 2 52.5t7 30.5q17 45 57 74t91 29q33 0 61.5 -12.5t49.5 -33.5t33.5 -49.5t12.5 -61.5v-122zM365 325l-111 -33l-2 8l113 34v185
q0 42 -21 76.5t-56 53.5q-21 12 -47 12t-47.5 -12.5t-34.5 -32.5q-8 -11 -12 -28.5t-4 -49.5v-408q0 -32 3.5 -49.5t11.5 -28.5q14 -20 35.5 -32.5t47.5 -12.5t47 12q35 19 56 53t21 77v176zM782 290q-20 2 -34.5 17t-14.5 36t14.5 36t34.5 17v122q0 42 -21 76.5t-56 53.5
q-21 12 -47 12t-47.5 -12.5t-34.5 -32.5q-8 -11 -12 -28.5t-4 -49.5v-408q0 -32 3.5 -49.5t11.5 -28.5q14 -20 35.5 -32.5t47.5 -12.5t47 12q35 19 56 53t21 77v142zM786 298q19 0 32 13t13 32t-13 32t-32 13t-32 -13t-13 -32t13 -32t32 -13z" />
    <glyph glyph-name="O_Q" unicode="OQ" horiz-adv-x="837" 
d="M888 -36q0 -35 -25 -60t-60 -25t-60 25t-25 60v52q-23 -14 -45.5 -19.5t-39.5 -5.5q-51 0 -91 29t-57 74q-5 13 -7 30t-2 53v181l-103 -31v-179q0 -33 -12.5 -61.5t-33.5 -49.5t-49.5 -33.5t-61.5 -12.5q-51 0 -91 29t-57 74q-5 13 -7 30t-2 53v312q0 35 2 52.5t7 30.5
q17 45 57 74t91 29q33 0 61.5 -12.5t49.5 -33.5t33.5 -49.5t12.5 -61.5v-182l103 31v122q0 35 2 52.5t7 30.5q17 45 57 74t91 29q33 0 61.5 -12.5t49.5 -33.5t33.5 -49.5t12.5 -61.5v-370q0 -39 -17.5 -72.5t-46.5 -53.5v-57q0 -32 22.5 -54.5t54.5 -22.5t54.5 22.5
t22.5 54.5zM365 324l-111 -33l-2 8l113 34v185q0 42 -21 76.5t-56 53.5q-21 12 -47 12t-47.5 -12.5t-34.5 -32.5q-8 -11 -12 -28.5t-4 -49.5v-408q0 -32 3.5 -49.5t11.5 -28.5q14 -20 35.5 -32.5t47.5 -12.5t47 12q35 19 56 53t21 77v176zM560 101q8 26 30 42.5t51 16.5
q35 0 60 -25t25 -60v-45q26 20 41 50.5t15 66.5v370q0 42 -21 76.5t-56 53.5q-21 12 -47 12t-47.5 -12.5t-34.5 -32.5q-8 -11 -12 -28.5t-4 -49.5v-435zM719 75q0 32 -22.5 54.5t-54.5 22.5t-54.5 -22.5t-22.5 -54.5t22.5 -54.5t54.5 -22.5q14 0 34.5 6.5t41.5 20.5z" />
    <glyph glyph-name="O_U" unicode="OU" horiz-adv-x="879" 
d="M806 659v-263q20 -2 34.5 -17t14.5 -36t-14.5 -36t-34.5 -17v-145q0 -32 -12 -60t-33 -49t-49 -33t-60 -12q-51 0 -90 29t-55 74q-5 12 -7 29.5t-2 53.5v188l-125 -37v-179q0 -33 -12.5 -61.5t-33.5 -49.5t-49.5 -33.5t-61.5 -12.5q-51 0 -91 29t-57 74q-5 13 -7 30
t-2 53v312q0 35 2 52.5t7 30.5q17 45 57 74t91 29q33 0 61.5 -12.5t49.5 -33.5t33.5 -49.5t12.5 -61.5v-182l125 37v286h-60v8h204v-8h-60v-532q0 -30 4 -47.5t11 -28.5q13 -20 34 -32.5t47 -12.5q13 0 24.5 3.5t21.5 8.5q33 19 53.5 52.5t20.5 74.5v145q-20 2 -34.5 17
t-14.5 36t14.5 36t34.5 17v263h-60v8h128v-8zM365 324l-111 -33l-2 8l113 34v185q0 42 -21 76.5t-56 53.5q-21 12 -47 12t-47.5 -12.5t-34.5 -32.5q-8 -11 -12 -28.5t-4 -49.5v-408q0 -32 3.5 -49.5t11.5 -28.5q14 -20 35.5 -32.5t47.5 -12.5t47 12q35 19 56 53t21 77v176z
M847 342q0 19 -13 32t-32 13t-32 -13t-13 -32t13 -32t32 -13t32 13t13 32z" />
    <glyph glyph-name="O_U_C" unicode="OUC" horiz-adv-x="1264" 
d="M1236 146q0 -32 -12 -60t-33 -49t-49 -33t-60 -12q-51 0 -90 29t-55 74q-5 12 -7 29.5t-2 53.5v185l-122 -36v-181q0 -32 -12 -60t-33 -49t-49 -33t-60 -12q-51 0 -90 29t-55 74q-5 12 -7 29.5t-2 53.5v188l-125 -37v-179q0 -33 -12.5 -61.5t-33.5 -49.5t-49.5 -33.5
t-61.5 -12.5q-51 0 -91 29t-57 74q-5 13 -7 30t-2 53v312q0 35 2 52.5t7 30.5q17 45 57 74t91 29q33 0 61.5 -12.5t49.5 -33.5t33.5 -49.5t12.5 -61.5v-182l125 37v286h-60v8h204v-8h-60v-532q0 -30 4 -47.5t11 -28.5q13 -20 34 -32.5t47 -12.5q13 0 24.5 3.5t21.5 8.5
q33 19 53.5 52.5t20.5 74.5v179l-106 -32l-2 8l108 32v327h-60v8h128v-8h-60v-325l122 36v129q0 33 3.5 52.5t8.5 32.5q17 40 53.5 65t82.5 25q49 0 87 -28t53 -72v96h8v-153h-8v9q0 38 -18 69t-48 50q-19 11 -45 11t-47 -12.5t-33 -33.5q-6 -11 -9.5 -25t-3.5 -39v-418
q0 -32 4.5 -49.5t11.5 -28.5q13 -20 33.5 -32.5t46.5 -12.5q13 0 24.5 3.5t21.5 8.5q33 19 53.5 52.5t20.5 74.5h8zM365 325l-111 -33l-2 8l113 34v185q0 42 -21 76.5t-56 53.5q-21 12 -47 12t-47.5 -12.5t-34.5 -32.5q-8 -11 -12 -28.5t-4 -49.5v-408q0 -32 3.5 -49.5
t11.5 -28.5q14 -20 35.5 -32.5t47.5 -12.5t47 12q35 19 56 53t21 77v176z" />
    <glyph glyph-name="O_U_G" unicode="OUG" horiz-adv-x="1277" 
d="M1242 351v-203q0 -33 -12.5 -61.5t-33.5 -49.5t-49.5 -33.5t-61.5 -12.5q-51 0 -91 29t-57 74q-5 13 -7 30t-2 53v185l-122 -36v-181q0 -32 -12 -60t-33 -49t-49 -33t-60 -12q-51 0 -90 29t-55 74q-5 12 -7 29.5t-2 53.5v188l-125 -37v-179q0 -33 -12.5 -61.5
t-33.5 -49.5t-49.5 -33.5t-61.5 -12.5q-51 0 -91 29t-57 74q-5 13 -7 30t-2 53v312q0 35 2 52.5t7 30.5q17 45 57 74t91 29q33 0 61.5 -12.5t49.5 -33.5t33.5 -49.5t12.5 -61.5v-182l125 37v286h-60v8h204v-8h-60v-532q0 -30 4 -47.5t11 -28.5q13 -20 34 -32.5t47 -12.5
q13 0 24.5 3.5t21.5 8.5q33 19 53.5 52.5t20.5 74.5v179l-106 -32l-2 8l108 32v327h-60v8h128v-8h-60v-325l122 36v118q0 36 2 53.5t7 29.5q16 45 55 74t89 29q51 0 90.5 -29.5t54.5 -74.5v100h8v-153h-8v4q0 40 -20 73t-52 52q-21 12 -46 12q-26 0 -46.5 -12t-34.5 -32
q-8 -11 -11.5 -27t-3.5 -51v-408q0 -32 3.5 -49.5t11.5 -28.5q14 -20 35.5 -32.5t47.5 -12.5t47 12q35 19 56 53.5t21 76.5v193l-113 -30l-2 8zM365 324l-111 -33l-2 8l113 34v185q0 42 -21 76.5t-56 53.5q-21 12 -47 12t-47.5 -12.5t-34.5 -32.5q-8 -11 -12 -28.5t-4 -49.5
v-408q0 -32 3.5 -49.5t11.5 -28.5q14 -20 35.5 -32.5t47.5 -12.5t47 12q35 19 56 53t21 77v176z" />
    <glyph glyph-name="O_Z" unicode="OZ" horiz-adv-x="791" 
d="M654 351l-118 -343h208v141h8v-149h-308l113 322l-184 -55v-118q0 -33 -12.5 -61.5t-33.5 -49.5t-49.5 -33.5t-61.5 -12.5q-51 0 -91 29t-57 74q-5 13 -7 30t-2 53v312q0 35 2 52.5t7 30.5q17 45 57 74t91 29q33 0 61.5 -12.5t49.5 -33.5t33.5 -49.5t12.5 -61.5v-244
l187 56l116 329h-203v-141h-8v149h299l-106 -308l93 28l2 -8zM365 263l-111 -33l-2 8l113 34v247q0 42 -21 76.5t-56 53.5q-21 12 -47 12t-47.5 -12.5t-34.5 -32.5q-8 -11 -12 -28.5t-4 -49.5v-408q0 -32 3.5 -49.5t11.5 -28.5q14 -20 35.5 -32.5t47.5 -12.5t47 12
q35 19 56 53t21 77v114z" />
    <glyph glyph-name="O_hyphen" unicode="O&#x2d;" horiz-adv-x="743" 
d="M373 278v-128q0 -33 -12.5 -61.5t-33.5 -49.5t-49.5 -33.5t-61.5 -12.5q-51 0 -91 29t-57 74q-5 13 -7 30t-2 53v312q0 35 2 52.5t7 30.5q17 45 57 74t91 29q33 0 61.5 -12.5t49.5 -33.5t33.5 -49.5t12.5 -61.5v-234l348 104l2 -8zM365 275l-111 -33l-2 8l113 34v236
q0 42 -21 76.5t-56 53.5q-21 12 -47 12t-47.5 -12.5t-34.5 -32.5q-8 -11 -12 -28.5t-4 -49.5v-408q0 -32 3.5 -49.5t11.5 -28.5q14 -20 35.5 -32.5t47.5 -12.5t47 12q35 19 56 53t21 77v125z" />
    <glyph glyph-name="P_T" unicode="PT" horiz-adv-x="773" 
d="M740 668v-149h-8v141h-127v-652h60v-8h-204v8h60v652h-127v-152q2 -35 -11.5 -68t-40.5 -59l-132 -123l-5 6l132 123q48 45 50 110v11q-2 58 -42 102q-45 48 -110 50h-6q-32 0 -60 -12v-640h60v-8h-204v8h60v652h-60v8h144v-11q30 11 60 11h6q68 -3 115 -53
q26 -27 36 -64v117h354z" />
    <glyph glyph-name="T_T" unicode="TT" horiz-adv-x="766" 
d="M733 668v-149h-8v141h-127v-652h60v-8h-204v8h60v652h-127v-141h-8v141h-127v-652h60v-8h-204v8h60v652h-127v-141h-8v149h700z" />
    <glyph glyph-name="U_C" unicode="UC" horiz-adv-x="847" 
d="M819 147q0 -32 -12 -60t-33 -49t-49 -33t-60 -12q-51 0 -90 29t-55 74q-5 12 -7 29.5t-2 53.5v185l-122 -36v-181q0 -32 -12 -60t-33 -49t-49 -33t-60 -12q-51 0 -90 29t-55 74q-5 12 -7 29.5t-2 53.5v482h-60v8h204v-8h-60v-532q0 -30 4 -47.5t11 -28.5q13 -20 34 -32.5
t47 -12.5q13 0 24.5 3.5t21.5 8.5q33 19 53.5 52.5t20.5 74.5v179l-106 -32l-2 8l108 32v327h-60v8h128v-8h-60v-325l122 36v129q0 33 3.5 52.5t8.5 32.5q17 40 53.5 65t82.5 25q49 0 87 -28t53 -72v96h8v-153h-8v9q0 38 -18 69t-48 50q-19 11 -45 11t-47 -12.5t-33 -33.5
q-6 -11 -9.5 -25t-3.5 -39v-418q0 -32 4.5 -49.5t11.5 -28.5q13 -20 33.5 -32.5t46.5 -12.5q13 0 24.5 3.5t21.5 8.5q33 19 53.5 52.5t20.5 74.5z" />
    <glyph glyph-name="U_E" unicode="UE" horiz-adv-x="832" 
d="M794 520v141h-174v-322l166 50l2 -8l-168 -50v-322h174v141h8v-149h-326v8h60v297l-147 -44v-115q0 -32 -12 -60t-33 -49t-49 -33t-60 -12q-51 0 -90 29t-55 74q-5 12 -7 29.5t-2 53.5v482h-60v8h204v-8h-60v-532q0 -30 4 -47.5t11 -28.5q13 -20 34 -32.5t47 -12.5
q13 0 24.5 3.5t21.5 8.5q33 19 53.5 52.5t20.5 74.5v112l-106 -32l-2 8l108 32v393h-60v8h128v-8h-60v-391l147 44v347h-60v8h326v-149z" />
    <glyph glyph-name="U_F" unicode="UF" horiz-adv-x="831" 
d="M802 669v-149h-8v141h-174v-322l166 50l2 -8l-168 -50v-322h60v-8h-204v8h60v297l-147 -44v-115q0 -32 -12 -60t-33 -49t-49 -33t-60 -12q-51 0 -90 29t-55 74q-5 12 -7 29.5t-2 53.5v482h-60v8h204v-8h-60v-532q0 -30 4 -47.5t11 -28.5q13 -20 34 -32.5t47 -12.5
q13 0 24.5 3.5t21.5 8.5q33 19 53.5 52.5t20.5 74.5v112l-106 -32l-2 8l108 32v393h-60v8h128v-8h-60v-391l147 44v347h-60v8z" />
    <glyph glyph-name="U_G" unicode="UG" horiz-adv-x="860" 
d="M825 352v-203q0 -33 -12.5 -61.5t-33.5 -49.5t-49.5 -33.5t-61.5 -12.5q-51 0 -91 29t-57 74q-5 13 -7 30t-2 53v185l-122 -36v-181q0 -32 -12 -60t-33 -49t-49 -33t-60 -12q-51 0 -90 29t-55 74q-5 12 -7 29.5t-2 53.5v482h-60v8h204v-8h-60v-532q0 -30 4 -47.5
t11 -28.5q13 -20 34 -32.5t47 -12.5q13 0 24.5 3.5t21.5 8.5q33 19 53.5 52.5t20.5 74.5v179l-106 -32l-2 8l108 32v327h-60v8h128v-8h-60v-325l122 36v118q0 36 2 53.5t7 29.5q16 45 55 74t89 29q51 0 90.5 -29.5t54.5 -74.5v100h8v-153h-8v4q0 40 -20 73t-52 52
q-21 12 -46 12q-26 0 -46.5 -12t-34.5 -32q-8 -11 -11.5 -27t-3.5 -51v-408q0 -32 3.5 -49.5t11.5 -28.5q14 -20 35.5 -32.5t47.5 -12.5t47 12q35 19 56 53.5t21 76.5v193l-113 -30l-2 8z" />
    <glyph glyph-name="U_H" unicode="UH" horiz-adv-x="948" 
d="M864 661v-652h60v-8h-204v8h60v370l-160 -48v-322h60v-8h-204v8h60v297l-147 -44v-115q0 -32 -12 -60t-33 -49t-49 -33t-60 -12q-51 0 -90 29t-55 74q-5 12 -7 29.5t-2 53.5v482h-60v8h204v-8h-60v-532q0 -30 4 -47.5t11 -28.5q13 -20 34 -32.5t47 -12.5q13 0 24.5 3.5
t21.5 8.5q33 19 53.5 52.5t20.5 74.5v112l-106 -32l-2 8l108 32v393h-60v8h128v-8h-60v-391l147 44v347h-60v8h204v-8h-60v-322l160 48v274h-60v8h204v-8z" />
    <glyph glyph-name="U_O" unicode="UO" horiz-adv-x="879" 
d="M825 398q20 -2 34.5 -17t14.5 -36t-14.5 -36t-34.5 -17v-142q0 -33 -12.5 -61.5t-33.5 -49.5t-49.5 -33.5t-61.5 -12.5q-51 0 -91 29t-57 74q-5 13 -7 30t-2 53v185l-122 -36v-181q0 -32 -12 -60t-33 -49t-49 -33t-60 -12q-51 0 -90 29t-55 74q-5 12 -7 29.5t-2 53.5v482
h-60v8h204v-8h-60v-532q0 -30 4 -47.5t11 -28.5q13 -20 34 -32.5t47 -12.5q13 0 24.5 3.5t21.5 8.5q33 19 53.5 52.5t20.5 74.5v179l-106 -32l-2 8l108 32v327h-60v8h128v-8h-60v-325l122 36v118q0 35 2 52.5t7 30.5q17 45 57 74t91 29q33 0 61.5 -12.5t49.5 -33.5
t33.5 -49.5t12.5 -61.5v-121zM817 292q-20 2 -34.5 17t-14.5 36t14.5 36t34.5 17v122q0 42 -21 76.5t-56 53.5q-21 12 -47 12t-47.5 -12.5t-34.5 -32.5q-8 -11 -12 -28.5t-4 -49.5v-408q0 -32 3.5 -49.5t11.5 -28.5q14 -20 35.5 -32.5t47.5 -12.5t47 12q35 19 56 53t21 77
v142zM821 300q19 0 32 13t13 32t-13 32t-32 13t-32 -13t-13 -32t13 -32t32 -13z" />
    <glyph glyph-name="U_Q" unicode="UQ" horiz-adv-x="872" 
d="M923 -35q0 -35 -25 -60t-60 -25t-60 25t-25 60v52q-23 -14 -45.5 -19.5t-39.5 -5.5q-51 0 -91 29t-57 74q-5 13 -7 30t-2 53v185l-122 -36v-181q0 -32 -12 -60t-33 -49t-49 -33t-60 -12q-51 0 -90 29t-55 74q-5 12 -7 29.5t-2 53.5v482h-60v8h204v-8h-60v-532
q0 -30 4 -47.5t11 -28.5q13 -20 34 -32.5t47 -12.5q13 0 24.5 3.5t21.5 8.5q33 19 53.5 52.5t20.5 74.5v179l-106 -32l-2 8l108 32v327h-60v8h128v-8h-60v-325l122 36v118q0 35 2 52.5t7 30.5q17 45 57 74t91 29q33 0 61.5 -12.5t49.5 -33.5t33.5 -49.5t12.5 -61.5v-370
q0 -39 -17.5 -72.5t-46.5 -53.5v-57q0 -32 22.5 -54.5t54.5 -22.5t54.5 22.5t22.5 54.5h8zM595 103q8 26 30 42.5t51 16.5q35 0 60 -25t25 -60v-45q26 20 41 50.5t15 66.5v370q0 42 -21 76.5t-56 53.5q-21 12 -47 12t-47.5 -12.5t-34.5 -32.5q-8 -11 -12 -28.5t-4 -49.5
v-435zM754 77q0 32 -22.5 54.5t-54.5 22.5t-54.5 -22.5t-22.5 -54.5t22.5 -54.5t54.5 -22.5q14 0 34.5 6.5t41.5 20.5z" />
    <glyph glyph-name="U_U" unicode="UU" horiz-adv-x="914" 
d="M841 660v-263q20 -2 34.5 -17t14.5 -36t-14.5 -36t-34.5 -17v-145q0 -32 -12 -60t-33 -49t-49 -33t-60 -12q-51 0 -90 29t-55 74q-5 12 -7 29.5t-2 53.5v192l-144 -43v-181q0 -32 -12 -60t-33 -49t-49 -33t-60 -12q-51 0 -90 29t-55 74q-5 12 -7 29.5t-2 53.5v482h-60v8
h204v-8h-60v-532q0 -30 4 -47.5t11 -28.5q13 -20 34 -32.5t47 -12.5q13 0 24.5 3.5t21.5 8.5q33 19 53.5 52.5t20.5 74.5v179l-106 -32l-2 8l108 32v327h-60v8h128v-8h-60v-325l144 43v282h-60v8h204v-8h-60v-532q0 -30 4 -47.5t11 -28.5q13 -20 34 -32.5t47 -12.5
q13 0 24.5 3.5t21.5 8.5q33 19 53.5 52.5t20.5 74.5v145q-20 2 -34.5 17t-14.5 36t14.5 36t34.5 17v263h-60v8h128v-8h-60zM882 344q0 19 -13 32t-32 13t-32 -13t-13 -32t13 -32t32 -13t32 13t13 32z" />
    <glyph glyph-name="U_Z" unicode="UZ" horiz-adv-x="826" 
d="M689 352l-118 -343h208v141h8v-149h-308l113 322l-203 -61v-115q0 -32 -12 -60t-33 -49t-49 -33t-60 -12q-51 0 -90 29t-55 74q-5 12 -7 29.5t-2 53.5v482h-60v8h204v-8h-60v-532q0 -30 4 -47.5t11 -28.5q13 -20 34 -32.5t47 -12.5q13 0 24.5 3.5t21.5 8.5
q33 19 53.5 52.5t20.5 74.5v112l-106 -32l-2 8l108 32v393h-60v8h128v-8h-60v-391l206 62l116 329h-203v-141h-8v149h299l-106 -308l93 28l2 -8z" />
    <glyph glyph-name="U_hyphen" unicode="U&#x2d;" horiz-adv-x="764" 
d="M389 276v-129q0 -32 -12 -60t-33 -49t-49 -33t-60 -12q-51 0 -90 29t-55 74q-5 12 -7 29.5t-2 53.5v482h-60v8h204v-8h-60v-532q0 -30 4 -47.5t11 -28.5q13 -20 34 -32.5t47 -12.5q13 0 24.5 3.5t21.5 8.5q33 19 53.5 52.5t20.5 74.5v127l-106 -32l-2 8l108 32v379h-60v8
h128v-8h-60v-377l353 106l2 -8z" />
    <glyph glyph-name="Z_E" unicode="ZE" horiz-adv-x="754" 
d="M715 517v141h-174v-322l166 50l2 -8l-168 -50v-322h174v141h8v-149h-326v8h60v297l-41 -12l-85 86l-94 -28l-118 -343h208v141h8v-149h-308l113 322l-90 -27l-2 8l95 29l116 329h-203v-141h-8v149h299l-106 -308l93 28l85 -86l39 12v347h-60v8h326v-149z" />
    <glyph glyph-name="Z_E_E" unicode="ZEE" horiz-adv-x="1134" 
d="M1095 516v141h-174v-322l166 50l2 -8l-168 -50v-322h174v141h8v-149h-326v8h60v297l-41 -12l-91 86l-164 -49v-322h174v141h8v-149h-326v8h60v297l-41 -12l-85 86l-94 -28l-118 -343h208v141h8v-149h-308l113 322l-90 -27l-2 8l95 29l116 329h-203v-141h-8v149h299
l-106 -308l93 28l85 -86l39 12v347h-60v8h326v-149h-8v141h-174v-322l166 50l91 -86l39 12v347h-60v8h326v-149z" />
    <glyph glyph-name="Z_E_F" unicode="ZEF" horiz-adv-x="1133" 
d="M1103 665v-149h-8v141h-174v-322l166 50l2 -8l-168 -50v-322h60v-8h-204v8h60v297l-41 -12l-91 86l-164 -49v-322h174v141h8v-149h-326v8h60v297l-41 -12l-85 86l-94 -28l-118 -343h208v141h8v-149h-308l113 322l-90 -27l-2 8l95 29l116 329h-203v-141h-8v149h299
l-106 -308l93 28l85 -86l39 12v347h-60v8h326v-149h-8v141h-174v-322l166 50l91 -86l39 12v347h-60v8z" />
    <glyph glyph-name="Z_E_H" unicode="ZEH" horiz-adv-x="1250" 
d="M1165 657v-652h60v-8h-204v8h60v370l-160 -48v-322h60v-8h-204v8h60v297l-41 -12l-91 86l-164 -49v-322h174v141h8v-149h-326v8h60v297l-41 -12l-85 86l-94 -28l-118 -343h208v141h8v-149h-308l113 322l-90 -27l-2 8l95 29l116 329h-203v-141h-8v149h299l-106 -308l93 28
l85 -86l39 12v347h-60v8h326v-149h-8v141h-174v-322l166 50l91 -86l39 12v347h-60v8h204v-8h-60v-322l160 48v274h-60v8h204v-8z" />
    <glyph glyph-name="Z_F" unicode="ZF" horiz-adv-x="753" 
d="M723 666v-149h-8v141h-174v-322l166 50l2 -8l-168 -50v-322h60v-8h-204v8h60v297l-41 -12l-85 86l-94 -28l-118 -343h208v141h8v-149h-308l113 322l-90 -27l-2 8l95 29l116 329h-203v-141h-8v149h299l-106 -308l93 28l85 -86l39 12v347h-60v8z" />
    <glyph glyph-name="Z_H" unicode="ZH" horiz-adv-x="870" 
d="M785 658v-652h60v-8h-204v8h60v370l-160 -48v-322h60v-8h-204v8h60v297l-41 -12l-85 86l-94 -28l-118 -343h208v141h8v-149h-308l113 322l-90 -27l-2 8l95 29l116 329h-203v-141h-8v149h299l-106 -308l93 28l85 -86l39 12v347h-60v8h204v-8h-60v-322l160 48v274h-60v8
h204v-8z" />
    <glyph glyph-name="Z_Z" unicode="ZZ" horiz-adv-x="748" 
d="M611 350l-118 -343h208v141h8v-149h-308l113 322l-90 -27l-92 84l-95 -28l-118 -343h208v141h8v-149h-308l113 322l-90 -27l-2 8l95 29l116 329h-203v-141h-8v149h299l-106 -308l93 28l92 -84l91 27l116 329h-203v-141h-8v149h299l-106 -308l93 28l2 -8z" />
    <glyph glyph-name="d_c" unicode="Dc" horiz-adv-x="818" 
d="M790 146q0 -32 -12 -60t-33 -49t-49 -33t-60 -12q-51 0 -90 29t-55 74q-5 12 -7 29.5t-2 53.5v178l-103 -31v-169q0 -32 -12.5 -60.5t-34 -49.5t-50 -33.5t-60.5 -12.5h-198v8h60v652h-60v8h144v-9q25 9 53 9q33 0 61.5 -12.5t50 -34t34 -50t12.5 -61.5v-176l103 31v136
q0 33 3.5 52.5t8.5 32.5q17 40 53.5 65t82.5 25q49 0 87 -28t53 -72v96h8v-153h-8v9q0 38 -18 69t-48 50q-19 11 -45 11t-47 -12.5t-33 -33.5q-6 -11 -9.5 -25t-3.5 -39v-418q0 -32 4.5 -49.5t11.5 -28.5q13 -20 33.5 -32.5t46.5 -12.5q13 0 24.5 3.5t21.5 8.5
q33 19 53.5 52.5t20.5 74.5h8zM271 294l-2 8l103 31v179q0 31 -12 58.5t-32 47.5t-47.5 32t-58.5 12q-26 0 -51 -9l-3 -1v-643h54q62 0 105 43q44 44 44 104v167z" />
    <glyph glyph-name="d_e" unicode="De" horiz-adv-x="803" 
d="M765 660h-174v-322l166 50l2 -8l-168 -50v-322h174v141h8v-149h-326v8h60v297l-128 -38v-111q0 -32 -12.5 -60.5t-34 -49.5t-50 -33.5t-60.5 -12.5h-198v8h60v652h-60v8h144v-9q25 9 53 9q33 0 61.5 -12.5t50 -34t34 -50t12.5 -61.5v-235l128 38v347h-60v8h326v-149h-8
v141zM271 235l-2 8l103 31v238q0 31 -12 58.5t-32 47.5t-47.5 32t-58.5 12q-26 0 -51 -9l-3 -1v-643h54q62 0 105 43q44 44 44 104v108z" />
    <glyph glyph-name="d_e_e" unicode="Dee" horiz-adv-x="1183" 
d="M1145 659h-174v-322l166 50l2 -8l-168 -50v-322h174v141h8v-149h-326v8h60v297l-41 -12l-91 86l-164 -49v-322h174v141h8v-149h-326v8h60v297l-128 -38v-111q0 -32 -12.5 -60.5t-34 -49.5t-50 -33.5t-60.5 -12.5h-198v8h60v652h-60v8h144v-9q25 9 53 9q33 0 61.5 -12.5
t50 -34t34 -50t12.5 -61.5v-235l128 38v347h-60v8h326v-149h-8v141h-174v-322l166 50l91 -86l39 12v347h-60v8h326v-149h-8v140zM271 234l-2 8l103 31v238q0 31 -12 58.5t-32 47.5t-47.5 32t-58.5 12q-26 0 -51 -9l-3 -1v-643h54q62 0 105 43q44 44 44 104v108z" />
    <glyph glyph-name="d_e_f" unicode="Def" horiz-adv-x="1182" 
d="M1153 518h-8v141h-174v-322l166 50l2 -8l-168 -50v-322h60v-8h-204v8h60v297l-41 -12l-91 86l-164 -49v-322h174v141h8v-149h-326v8h60v297l-128 -38v-111q0 -32 -12.5 -60.5t-34 -49.5t-50 -33.5t-60.5 -12.5h-198v8h60v652h-60v8h144v-9q25 9 53 9q33 0 61.5 -12.5
t50 -34t34 -50t12.5 -61.5v-235l128 38v347h-60v8h326v-149h-8v141h-174v-322l166 50l91 -86l39 12v347h-60v8h326v-150zM271 234l-2 8l103 31v238q0 31 -12 58.5t-32 47.5t-47.5 32t-58.5 12q-26 0 -51 -9l-3 -1v-643h54q62 0 105 43q44 44 44 104v108z" />
    <glyph glyph-name="d_e_h" unicode="Deh" horiz-adv-x="1299" 
d="M1215 7h60v-8h-204v8h60v370l-160 -48v-322h60v-8h-204v8h60v297l-41 -12l-91 86l-164 -49v-322h174v141h8v-149h-326v8h60v297l-128 -38v-111q0 -32 -12.5 -60.5t-34 -49.5t-50 -33.5t-60.5 -12.5h-198v8h60v652h-60v8h144v-9q25 9 53 9q33 0 61.5 -12.5t50 -34t34 -50
t12.5 -61.5v-235l128 38v347h-60v8h326v-149h-8v141h-174v-322l166 50l91 -86l39 12v347h-60v8h204v-8h-60v-322l160 48v274h-60v8h204v-8h-60v-653zM271 234l-2 8l103 31v238q0 31 -12 58.5t-32 47.5t-47.5 32t-58.5 12q-26 0 -51 -9l-3 -1v-643h54q62 0 105 43
q44 44 44 104v108z" />
    <glyph glyph-name="d_e_z" unicode="Dez" horiz-adv-x="1177" 
d="M922 9h208v141h8v-149h-308l113 322l-90 -27l-98 84l-164 -49v-322h174v141h8v-149h-326v8h60v297l-128 -38v-111q0 -32 -12.5 -60.5t-34 -49.5t-50 -33.5t-60.5 -12.5h-198v8h60v652h-60v8h144v-9q25 9 53 9q33 0 61.5 -12.5t50 -34t34 -50t12.5 -61.5v-235l128 38v347
h-60v8h326v-149h-8v141h-174v-322l166 50l98 -84l91 27l116 329h-203v-141h-8v149h299l-106 -308l93 28l2 -8l-99 -30zM271 236l-2 8l103 31v238q0 31 -12 58.5t-32 47.5t-47.5 32t-58.5 12q-26 0 -51 -9l-3 -1v-643h54q62 0 105 43q44 44 44 104v108z" />
    <glyph glyph-name="d_f" unicode="Df" horiz-adv-x="802" 
d="M773 519h-8v141h-174v-322l166 50l2 -8l-168 -50v-322h60v-8h-204v8h60v297l-128 -38v-111q0 -32 -12.5 -60.5t-34 -49.5t-50 -33.5t-60.5 -12.5h-198v8h60v652h-60v8h144v-9q25 9 53 9q33 0 61.5 -12.5t50 -34t34 -50t12.5 -61.5v-235l128 38v347h-60v8h326v-149z
M271 235l-2 8l103 31v238q0 31 -12 58.5t-32 47.5t-47.5 32t-58.5 12q-26 0 -51 -9l-3 -1v-643h54q62 0 105 43q44 44 44 104v108z" />
    <glyph glyph-name="d_g" unicode="Dg" horiz-adv-x="831" 
d="M796 148q0 -33 -12.5 -61.5t-33.5 -49.5t-49.5 -33.5t-61.5 -12.5q-51 0 -91 29t-57 74q-5 13 -7 30t-2 53v178l-103 -31v-169q0 -32 -12.5 -60.5t-34 -49.5t-50 -33.5t-60.5 -12.5h-198v8h60v652h-60v8h144v-9q25 9 53 9q33 0 61.5 -12.5t50 -34t34 -50t12.5 -61.5v-176
l103 31v125q0 36 2 53.5t7 29.5q16 45 55 74t89 29q51 0 90.5 -29.5t54.5 -74.5v100h8v-153h-8v4q0 40 -20 73t-52 52q-21 12 -46 12q-26 0 -46.5 -12t-34.5 -32q-8 -11 -11.5 -27t-3.5 -51v-408q0 -32 3.5 -49.5t11.5 -28.5q14 -20 35.5 -32.5t47.5 -12.5t47 12
q35 19 56 53.5t21 76.5v193l-113 -30l-2 8l123 33v-204zM271 293l-2 8l103 31v179q0 31 -12 58.5t-32 47.5t-47.5 32t-58.5 12q-26 0 -51 -9l-3 -1v-643h54q62 0 105 43q44 44 44 104v167z" />
    <glyph glyph-name="d_h" unicode="Dh" horiz-adv-x="919" 
d="M835 8h60v-8h-204v8h60v370l-160 -48v-322h60v-8h-204v8h60v297l-128 -38v-111q0 -32 -12.5 -60.5t-34 -49.5t-50 -33.5t-60.5 -12.5h-198v8h60v652h-60v8h144v-9q25 9 53 9q33 0 61.5 -12.5t50 -34t34 -50t12.5 -61.5v-235l128 38v347h-60v8h204v-8h-60v-322l160 48v274
h-60v8h204v-8h-60v-652zM271 235l-2 8l103 31v238q0 31 -12 58.5t-32 47.5t-47.5 32t-58.5 12q-26 0 -51 -9l-3 -1v-643h54q62 0 105 43q44 44 44 104v108z" />
    <glyph glyph-name="d_hyphen" unicode="d&#x2d;" horiz-adv-x="759" 
d="M378 275v-119q0 -32 -12.5 -60.5t-34 -49.5t-50 -33.5t-60.5 -12.5h-198v8h60v652h-60v8h144v-9q25 9 54 9q33 0 61.5 -12.5t50 -34t34 -50t12.5 -61.5v-227l358 107l2 -8zM370 271l-99 -29l-2 7l101 30v230q0 31 -12 58.5t-32 47.5t-47.5 32t-58.5 12q-29 0 -53 -9v-642
h54q30 0 57.5 11.5t47.5 31.5t32 47t12 58v115z" />
    <glyph glyph-name="d_o" unicode="Do" horiz-adv-x="850" 
d="M796 397q20 -2 34.5 -17t14.5 -36t-14.5 -36t-34.5 -17v-142q0 -33 -12.5 -61.5t-33.5 -49.5t-49.5 -33.5t-61.5 -12.5q-51 0 -91 29t-57 74q-5 13 -7 30t-2 53v178l-103 -31v-169q0 -32 -12.5 -60.5t-34 -49.5t-50 -33.5t-60.5 -12.5h-198v8h60v652h-60v8h144v-9
q25 9 53 9q33 0 61.5 -12.5t50 -34t34 -50t12.5 -61.5v-176l103 31v125q0 35 2 52.5t7 30.5q17 45 57 74t91 29q33 0 61.5 -12.5t49.5 -33.5t33.5 -49.5t12.5 -61.5v-122zM788 291q-20 2 -34.5 17t-14.5 36t14.5 36t34.5 17v122q0 42 -21 76.5t-56 53.5q-21 12 -47 12
t-47.5 -12.5t-34.5 -32.5q-8 -11 -12 -28.5t-4 -49.5v-408q0 -32 3.5 -49.5t11.5 -28.5q14 -20 35.5 -32.5t47.5 -12.5t47 12q35 19 56 53t21 77v142zM271 294l-2 8l103 31v179q0 31 -12 58.5t-32 47.5t-47.5 32t-58.5 12q-26 0 -51 -9l-3 -1v-643h54q62 0 105 43
q44 44 44 104v167zM793 300q19 0 32 13t13 32t-13 32t-32 13t-32 -13t-13 -32t13 -32t32 -13z" />
    <glyph glyph-name="d_o_c" unicode="Doc" horiz-adv-x="1235" 
d="M1207 146q0 -32 -12 -60t-33 -49t-49 -33t-60 -12q-51 0 -90 29t-55 74q-5 12 -7 29.5t-2 53.5v181l-103 -31v-179q0 -33 -12.5 -61.5t-33.5 -49.5t-49.5 -33.5t-61.5 -12.5q-51 0 -91 29t-57 74q-5 13 -7 30t-2 53v178l-103 -31v-169q0 -32 -12.5 -60.5t-34 -49.5
t-50 -33.5t-60.5 -12.5h-198v8h60v652h-60v8h144v-9q25 9 53 9q33 0 61.5 -12.5t50 -34t34 -50t12.5 -61.5v-176l103 31v125q0 35 2 52.5t7 30.5q17 45 57 74t91 29q33 0 61.5 -12.5t49.5 -33.5t33.5 -49.5t12.5 -61.5v-182l103 31v133q0 33 3.5 52.5t8.5 32.5
q17 40 53.5 65t82.5 25q49 0 87 -28t53 -72v96h8v-153h-8v9q0 38 -18 69t-48 50q-19 11 -45 11t-47 -12.5t-33 -33.5q-6 -11 -9.5 -25t-3.5 -39v-418q0 -32 4.5 -49.5t11.5 -28.5q13 -20 33.5 -32.5t46.5 -12.5q13 0 24.5 3.5t21.5 8.5q33 19 53.5 52.5t20.5 74.5h8z
M677 292l-2 8l113 34v185q0 42 -21 76.5t-56 53.5q-21 12 -47 12t-47.5 -12.5t-34.5 -32.5q-8 -11 -12 -28.5t-4 -49.5v-408q0 -32 3.5 -49.5t11.5 -28.5q14 -20 35.5 -32.5t47.5 -12.5t47 12q35 19 56 53t21 77v177zM271 293l-2 8l103 31v179q0 31 -12 58.5t-32 47.5
t-47.5 32t-58.5 12q-26 0 -51 -9l-3 -1v-643h54q62 0 105 43q44 44 44 104v167z" />
    <glyph glyph-name="d_o_e" unicode="Doe" horiz-adv-x="1220" 
d="M1182 660h-174v-322l166 50l2 -8l-168 -50v-322h174v141h8v-149h-326v8h60v297l-128 -38v-118q0 -33 -12.5 -61.5t-33.5 -49.5t-49.5 -33.5t-61.5 -12.5q-51 0 -91 29t-57 74q-5 13 -7 30t-2 53v178l-103 -31v-169q0 -32 -12.5 -60.5t-34 -49.5t-50 -33.5t-60.5 -12.5
h-198v8h60v652h-60v8h144v-9q25 9 53 9q33 0 61.5 -12.5t50 -34t34 -50t12.5 -61.5v-176l103 31v125q0 35 2 52.5t7 30.5q17 45 57 74t91 29q33 0 61.5 -12.5t49.5 -33.5t33.5 -49.5t12.5 -61.5v-244l128 38v347h-60v8h326v-149h-8v141zM677 230l-2 8l113 34v247
q0 42 -21 76.5t-56 53.5q-21 12 -47 12t-47.5 -12.5t-34.5 -32.5q-8 -11 -12 -28.5t-4 -49.5v-408q0 -32 3.5 -49.5t11.5 -28.5q14 -20 35.5 -32.5t47.5 -12.5t47 12q35 19 56 53t21 77v115zM271 293l-2 8l103 31v179q0 31 -12 58.5t-32 47.5t-47.5 32t-58.5 12
q-26 0 -51 -9l-3 -1v-643h54q62 0 105 43q44 44 44 104v167z" />
    <glyph glyph-name="d_o_f" unicode="Dof" horiz-adv-x="1219" 
d="M1190 519h-8v141h-174v-322l166 50l2 -8l-168 -50v-322h60v-8h-204v8h60v297l-128 -38v-118q0 -33 -12.5 -61.5t-33.5 -49.5t-49.5 -33.5t-61.5 -12.5q-51 0 -91 29t-57 74q-5 13 -7 30t-2 53v178l-103 -31v-169q0 -32 -12.5 -60.5t-34 -49.5t-50 -33.5t-60.5 -12.5h-198
v8h60v652h-60v8h144v-9q25 9 53 9q33 0 61.5 -12.5t50 -34t34 -50t12.5 -61.5v-176l103 31v125q0 35 2 52.5t7 30.5q17 45 57 74t91 29q33 0 61.5 -12.5t49.5 -33.5t33.5 -49.5t12.5 -61.5v-244l128 38v347h-60v8h326v-149zM677 230l-2 8l113 34v247q0 42 -21 76.5t-56 53.5
q-21 12 -47 12t-47.5 -12.5t-34.5 -32.5q-8 -11 -12 -28.5t-4 -49.5v-408q0 -32 3.5 -49.5t11.5 -28.5q14 -20 35.5 -32.5t47.5 -12.5t47 12q35 19 56 53t21 77v115zM271 293l-2 8l103 31v179q0 31 -12 58.5t-32 47.5t-47.5 32t-58.5 12q-26 0 -51 -9l-3 -1v-643h54
q62 0 105 43q44 44 44 104v167z" />
    <glyph glyph-name="d_o_g" unicode="Dog" horiz-adv-x="1248" 
d="M1213 148q0 -33 -12.5 -61.5t-33.5 -49.5t-49.5 -33.5t-61.5 -12.5q-51 0 -91 29t-57 74q-5 13 -7 30t-2 53v181l-103 -31v-179q0 -33 -12.5 -61.5t-33.5 -49.5t-49.5 -33.5t-61.5 -12.5q-51 0 -91 29t-57 74q-5 13 -7 30t-2 53v178l-103 -31v-169q0 -32 -12.5 -60.5
t-34 -49.5t-50 -33.5t-60.5 -12.5h-198v8h60v652h-60v8h144v-9q25 9 53 9q33 0 61.5 -12.5t50 -34t34 -50t12.5 -61.5v-176l103 31v125q0 35 2 52.5t7 30.5q17 45 57 74t91 29q33 0 61.5 -12.5t49.5 -33.5t33.5 -49.5t12.5 -61.5v-182l103 31v122q0 36 2 53.5t7 29.5
q16 45 55 74t89 29q51 0 90.5 -29.5t54.5 -74.5v100h8v-153h-8v4q0 40 -20 73t-52 52q-21 12 -46 12q-26 0 -46.5 -12t-34.5 -32q-8 -11 -11.5 -27t-3.5 -51v-408q0 -32 3.5 -49.5t11.5 -28.5q14 -20 35.5 -32.5t47.5 -12.5t47 12q35 19 56 53.5t21 76.5v193l-113 -30l-2 8
l123 33v-204zM677 291l-2 8l113 34v185q0 42 -21 76.5t-56 53.5q-21 12 -47 12t-47.5 -12.5t-34.5 -32.5q-8 -11 -12 -28.5t-4 -49.5v-408q0 -32 3.5 -49.5t11.5 -28.5q14 -20 35.5 -32.5t47.5 -12.5t47 12q35 19 56 53t21 77v177zM271 292l-2 8l103 31v179q0 31 -12 58.5
t-32 47.5t-47.5 32t-58.5 12q-26 0 -51 -9l-3 -1v-643h54q62 0 105 43q44 44 44 104v167z" />
    <glyph glyph-name="d_o_h" unicode="Doh" horiz-adv-x="1336" 
d="M1252 8h60v-8h-204v8h60v370l-160 -48v-322h60v-8h-204v8h60v297l-128 -38v-118q0 -33 -12.5 -61.5t-33.5 -49.5t-49.5 -33.5t-61.5 -12.5q-51 0 -91 29t-57 74q-5 13 -7 30t-2 53v178l-103 -31v-169q0 -32 -12.5 -60.5t-34 -49.5t-50 -33.5t-60.5 -12.5h-198v8h60v652
h-60v8h144v-9q25 9 53 9q33 0 61.5 -12.5t50 -34t34 -50t12.5 -61.5v-176l103 31v125q0 35 2 52.5t7 30.5q17 45 57 74t91 29q33 0 61.5 -12.5t49.5 -33.5t33.5 -49.5t12.5 -61.5v-244l128 38v347h-60v8h204v-8h-60v-322l160 48v274h-60v8h204v-8h-60v-652zM677 230l-2 8
l113 34v247q0 42 -21 76.5t-56 53.5q-21 12 -47 12t-47.5 -12.5t-34.5 -32.5q-8 -11 -12 -28.5t-4 -49.5v-408q0 -32 3.5 -49.5t11.5 -28.5q14 -20 35.5 -32.5t47.5 -12.5t47 12q35 19 56 53t21 77v115zM271 293l-2 8l103 31v179q0 31 -12 58.5t-32 47.5t-47.5 32t-58.5 12
q-26 0 -51 -9l-3 -1v-643h54q62 0 105 43q44 44 44 104v167z" />
    <glyph glyph-name="d_o_o" unicode="Doo" horiz-adv-x="1267" 
d="M1213 397q20 -2 34.5 -17t14.5 -36t-14.5 -36t-34.5 -17v-142q0 -33 -12.5 -61.5t-33.5 -49.5t-49.5 -33.5t-61.5 -12.5q-51 0 -91 29t-57 74q-5 13 -7 30t-2 53v181l-103 -31v-179q0 -33 -12.5 -61.5t-33.5 -49.5t-49.5 -33.5t-61.5 -12.5q-51 0 -91 29t-57 74
q-5 13 -7 30t-2 53v178l-103 -31v-169q0 -32 -12.5 -60.5t-34 -49.5t-50 -33.5t-60.5 -12.5h-198v8h60v652h-60v8h144v-9q25 9 53 9q33 0 61.5 -12.5t50 -34t34 -50t12.5 -61.5v-176l103 31v125q0 35 2 52.5t7 30.5q17 45 57 74t91 29q33 0 61.5 -12.5t49.5 -33.5
t33.5 -49.5t12.5 -61.5v-182l103 31v122q0 35 2 52.5t7 30.5q17 45 57 74t91 29q33 0 61.5 -12.5t49.5 -33.5t33.5 -49.5t12.5 -61.5v-122zM677 292l-2 8l113 34v185q0 42 -21 76.5t-56 53.5q-21 12 -47 12t-47.5 -12.5t-34.5 -32.5q-8 -11 -12 -28.5t-4 -49.5v-408
q0 -32 3.5 -49.5t11.5 -28.5q14 -20 35.5 -32.5t47.5 -12.5t47 12q35 19 56 53t21 77v177zM1205 290q-20 2 -34.5 17t-14.5 36t14.5 36t34.5 17v122q0 42 -21 76.5t-56 53.5q-21 12 -47 12t-47.5 -12.5t-34.5 -32.5q-8 -11 -12 -28.5t-4 -49.5v-408q0 -32 3.5 -49.5
t11.5 -28.5q14 -20 35.5 -32.5t47.5 -12.5t47 12q35 19 56 53t21 77v142zM271 293l-2 8l103 31v179q0 31 -12 58.5t-32 47.5t-47.5 32t-58.5 12q-26 0 -51 -9l-3 -1v-643h54q62 0 105 43q44 44 44 104v167zM1210 299q19 0 32 13t13 32t-13 32t-32 13t-32 -13t-13 -32t13 -32
t32 -13z" />
    <glyph glyph-name="d_o_u" unicode="Dou" horiz-adv-x="1302" 
d="M1289 659h-60v-514q0 -32 -12 -60t-33 -49t-49 -33t-60 -12q-51 0 -90 29t-55 74q-5 12 -7 29.5t-2 53.5v188l-125 -37v-179q0 -33 -12.5 -61.5t-33.5 -49.5t-49.5 -33.5t-61.5 -12.5q-51 0 -91 29t-57 74q-5 13 -7 30t-2 53v178l-103 -31v-169q0 -32 -12.5 -60.5
t-34 -49.5t-50 -33.5t-60.5 -12.5h-198v8h60v652h-60v8h144v-9q25 9 53 9q33 0 61.5 -12.5t50 -34t34 -50t12.5 -61.5v-176l103 31v125q0 35 2 52.5t7 30.5q17 45 57 74t91 29q33 0 61.5 -12.5t49.5 -33.5t33.5 -49.5t12.5 -61.5v-182l125 37v286h-60v8h204v-8h-60v-532
q0 -30 4 -47.5t11 -28.5q13 -20 34 -32.5t47 -12.5q13 0 24.5 3.5t21.5 8.5q33 19 53.5 52.5t20.5 74.5v514h-60v8h128v-9zM677 291l-2 8l113 34v185q0 42 -21 76.5t-56 53.5q-21 12 -47 12t-47.5 -12.5t-34.5 -32.5q-8 -11 -12 -28.5t-4 -49.5v-408q0 -32 3.5 -49.5
t11.5 -28.5q14 -20 35.5 -32.5t47.5 -12.5t47 12q35 19 56 53t21 77v177zM271 292l-2 8l103 31v179q0 31 -12 58.5t-32 47.5t-47.5 32t-58.5 12q-26 0 -51 -9l-3 -1v-643h54q62 0 105 43q44 44 44 104v167z" />
    <glyph glyph-name="d_o_z" unicode="Doz" horiz-adv-x="1214" 
d="M959 9h208v141h8v-149h-308l113 322l-184 -55v-118q0 -33 -12.5 -61.5t-33.5 -49.5t-49.5 -33.5t-61.5 -12.5q-51 0 -91 29t-57 74q-5 13 -7 30t-2 53v178l-103 -31v-169q0 -32 -12.5 -60.5t-34 -49.5t-50 -33.5t-60.5 -12.5h-198v8h60v652h-60v8h144v-9q25 9 53 9
q33 0 61.5 -12.5t50 -34t34 -50t12.5 -61.5v-176l103 31v125q0 35 2 52.5t7 30.5q17 45 57 74t91 29q33 0 61.5 -12.5t49.5 -33.5t33.5 -49.5t12.5 -61.5v-244l187 56l116 329h-203v-141h-8v149h299l-106 -308l93 28l2 -8l-99 -30zM677 231l-2 8l113 34v247q0 42 -21 76.5
t-56 53.5q-21 12 -47 12t-47.5 -12.5t-34.5 -32.5q-8 -11 -12 -28.5t-4 -49.5v-408q0 -32 3.5 -49.5t11.5 -28.5q14 -20 35.5 -32.5t47.5 -12.5t47 12q35 19 56 53t21 77v115zM271 294l-2 8l103 31v179q0 31 -12 58.5t-32 47.5t-47.5 32t-58.5 12q-26 0 -51 -9l-3 -1v-643
h54q62 0 105 43q44 44 44 104v167z" />
    <glyph glyph-name="d_q" unicode="Dq" horiz-adv-x="843" 
d="M894 -36q0 -35 -25 -60t-60 -25t-60 25t-25 60v52q-23 -14 -45.5 -19.5t-39.5 -5.5q-51 0 -91 29t-57 74q-5 13 -7 30t-2 53v178l-103 -31v-169q0 -32 -12.5 -60.5t-34 -49.5t-50 -33.5t-60.5 -12.5h-198v8h60v652h-60v8h144v-9q25 9 53 9q33 0 61.5 -12.5t50 -34t34 -50
t12.5 -61.5v-176l103 31v125q0 35 2 52.5t7 30.5q17 45 57 74t91 29q33 0 61.5 -12.5t49.5 -33.5t33.5 -49.5t12.5 -61.5v-370q0 -39 -17.5 -72.5t-46.5 -53.5v-57q0 -32 22.5 -54.5t54.5 -22.5t54.5 22.5t22.5 54.5zM566 102q8 26 30 42.5t51 16.5q35 0 60 -25t25 -60v-45
q26 20 41 50.5t15 66.5v370q0 42 -21 76.5t-56 53.5q-21 12 -47 12t-47.5 -12.5t-34.5 -32.5q-8 -11 -12 -28.5t-4 -49.5v-435zM271 293l-2 8l103 31v179q0 31 -12 58.5t-32 47.5t-47.5 32t-58.5 12q-26 0 -51 -9l-3 -1v-643h54q62 0 105 43q44 44 44 104v167zM726 77
q0 32 -22.5 54.5t-54.5 22.5t-54.5 -22.5t-22.5 -54.5t22.5 -54.5t54.5 -22.5q14 0 34.5 6.5t41.5 20.5z" />
    <glyph glyph-name="d_u" unicode="Du" horiz-adv-x="885" 
d="M872 659h-60v-514q0 -32 -12 -60t-33 -49t-49 -33t-60 -12q-51 0 -90 29t-55 74q-5 12 -7 29.5t-2 53.5v185l-125 -37v-169q0 -32 -12.5 -60.5t-34 -49.5t-50 -33.5t-60.5 -12.5h-198v8h60v652h-60v8h144v-9q25 9 53 9q33 0 61.5 -12.5t50 -34t34 -50t12.5 -61.5v-176
l125 37v289h-60v8h204v-8h-60v-532q0 -30 4 -47.5t11 -28.5q13 -20 34 -32.5t47 -12.5q13 0 24.5 3.5t21.5 8.5q33 19 53.5 52.5t20.5 74.5v514h-60v8h128v-9zM271 293l-2 8l103 31v179q0 31 -12 58.5t-32 47.5t-47.5 32t-58.5 12q-26 0 -51 -9l-3 -1v-643h54q62 0 105 43
q44 44 44 104v167z" />
    <glyph glyph-name="d_u_c" unicode="Duc" horiz-adv-x="1270" 
d="M1242 146q0 -32 -12 -60t-33 -49t-49 -33t-60 -12q-51 0 -90 29t-55 74q-5 12 -7 29.5t-2 53.5v185l-122 -36v-181q0 -32 -12 -60t-33 -49t-49 -33t-60 -12q-51 0 -90 29t-55 74q-5 12 -7 29.5t-2 53.5v185l-125 -37v-169q0 -32 -12.5 -60.5t-34 -49.5t-50 -33.5
t-60.5 -12.5h-198v8h60v652h-60v8h144v-9q25 9 53 9q33 0 61.5 -12.5t50 -34t34 -50t12.5 -61.5v-176l125 37v289h-60v8h204v-8h-60v-532q0 -30 4 -47.5t11 -28.5q13 -20 34 -32.5t47 -12.5q13 0 24.5 3.5t21.5 8.5q33 19 53.5 52.5t20.5 74.5v179l-106 -32l-2 8l108 32v327
h-60v8h128v-8h-60v-325l122 36v129q0 33 3.5 52.5t8.5 32.5q17 40 53.5 65t82.5 25q49 0 87 -28t53 -72v96h8v-153h-8v9q0 38 -18 69t-48 50q-19 11 -45 11t-47 -12.5t-33 -33.5q-6 -11 -9.5 -25t-3.5 -39v-418q0 -32 4.5 -49.5t11.5 -28.5q13 -20 33.5 -32.5t46.5 -12.5
q13 0 24.5 3.5t21.5 8.5q33 19 53.5 52.5t20.5 74.5h8zM271 294l-2 8l103 31v179q0 31 -12 58.5t-32 47.5t-47.5 32t-58.5 12q-26 0 -51 -9l-3 -1v-643h54q62 0 105 43q44 44 44 104v167z" />
    <glyph glyph-name="d_u_e" unicode="Due" horiz-adv-x="1255" 
d="M1217 660h-174v-322l166 50l2 -8l-168 -50v-322h174v141h8v-149h-326v8h60v297l-147 -44v-115q0 -32 -12 -60t-33 -49t-49 -33t-60 -12q-51 0 -90 29t-55 74q-5 12 -7 29.5t-2 53.5v185l-125 -37v-169q0 -32 -12.5 -60.5t-34 -49.5t-50 -33.5t-60.5 -12.5h-198v8h60v652
h-60v8h144v-9q25 9 53 9q33 0 61.5 -12.5t50 -34t34 -50t12.5 -61.5v-176l125 37v289h-60v8h204v-8h-60v-532q0 -30 4 -47.5t11 -28.5q13 -20 34 -32.5t47 -12.5q13 0 24.5 3.5t21.5 8.5q33 19 53.5 52.5t20.5 74.5v112l-106 -32l-2 8l108 32v393h-60v8h128v-8h-60v-391
l147 44v347h-60v8h326v-149h-8v141zM271 294l-2 8l103 31v179q0 31 -12 58.5t-32 47.5t-47.5 32t-58.5 12q-26 0 -51 -9l-3 -1v-643h54q62 0 105 43q44 44 44 104v167z" />
    <glyph glyph-name="d_u_f" unicode="Duf" horiz-adv-x="1254" 
d="M1225 519h-8v141h-174v-322l166 50l2 -8l-168 -50v-322h60v-8h-204v8h60v297l-147 -44v-115q0 -32 -12 -60t-33 -49t-49 -33t-60 -12q-51 0 -90 29t-55 74q-5 12 -7 29.5t-2 53.5v185l-125 -37v-169q0 -32 -12.5 -60.5t-34 -49.5t-50 -33.5t-60.5 -12.5h-198v8h60v652
h-60v8h144v-9q25 9 53 9q33 0 61.5 -12.5t50 -34t34 -50t12.5 -61.5v-176l125 37v289h-60v8h204v-8h-60v-532q0 -30 4 -47.5t11 -28.5q13 -20 34 -32.5t47 -12.5q13 0 24.5 3.5t21.5 8.5q33 19 53.5 52.5t20.5 74.5v112l-106 -32l-2 8l108 32v393h-60v8h128v-8h-60v-391
l147 44v347h-60v8h326v-149zM271 294l-2 8l103 31v179q0 31 -12 58.5t-32 47.5t-47.5 32t-58.5 12q-26 0 -51 -9l-3 -1v-643h54q62 0 105 43q44 44 44 104v167z" />
    <glyph glyph-name="d_u_g" unicode="Dug" horiz-adv-x="1283" 
d="M1248 148q0 -33 -12.5 -61.5t-33.5 -49.5t-49.5 -33.5t-61.5 -12.5q-51 0 -91 29t-57 74q-5 13 -7 30t-2 53v185l-122 -36v-181q0 -32 -12 -60t-33 -49t-49 -33t-60 -12q-51 0 -90 29t-55 74q-5 12 -7 29.5t-2 53.5v185l-125 -37v-169q0 -32 -12.5 -60.5t-34 -49.5
t-50 -33.5t-60.5 -12.5h-198v8h60v652h-60v8h144v-9q25 9 53 9q33 0 61.5 -12.5t50 -34t34 -50t12.5 -61.5v-176l125 37v289h-60v8h204v-8h-60v-532q0 -30 4 -47.5t11 -28.5q13 -20 34 -32.5t47 -12.5q13 0 24.5 3.5t21.5 8.5q33 19 53.5 52.5t20.5 74.5v179l-106 -32l-2 8
l108 32v327h-60v8h128v-8h-60v-325l122 36v118q0 36 2 53.5t7 29.5q16 45 55 74t89 29q51 0 90.5 -29.5t54.5 -74.5v100h8v-153h-8v4q0 40 -20 73t-52 52q-21 12 -46 12q-26 0 -46.5 -12t-34.5 -32q-8 -11 -11.5 -27t-3.5 -51v-408q0 -32 3.5 -49.5t11.5 -28.5
q14 -20 35.5 -32.5t47.5 -12.5t47 12q35 19 56 53.5t21 76.5v193l-113 -30l-2 8l123 33v-204zM271 293l-2 8l103 31v179q0 31 -12 58.5t-32 47.5t-47.5 32t-58.5 12q-26 0 -51 -9l-3 -1v-643h54q62 0 105 43q44 44 44 104v167z" />
    <glyph glyph-name="d_u_o" unicode="Duo" horiz-adv-x="1302" 
d="M1248 397q20 -2 34.5 -17t14.5 -36t-14.5 -36t-34.5 -17v-142q0 -33 -12.5 -61.5t-33.5 -49.5t-49.5 -33.5t-61.5 -12.5q-51 0 -91 29t-57 74q-5 13 -7 30t-2 53v185l-122 -36v-181q0 -32 -12 -60t-33 -49t-49 -33t-60 -12q-51 0 -90 29t-55 74q-5 12 -7 29.5t-2 53.5
v185l-125 -37v-169q0 -32 -12.5 -60.5t-34 -49.5t-50 -33.5t-60.5 -12.5h-198v8h60v652h-60v8h144v-9q25 9 53 9q33 0 61.5 -12.5t50 -34t34 -50t12.5 -61.5v-176l125 37v289h-60v8h204v-8h-60v-532q0 -30 4 -47.5t11 -28.5q13 -20 34 -32.5t47 -12.5q13 0 24.5 3.5
t21.5 8.5q33 19 53.5 52.5t20.5 74.5v179l-106 -32l-2 8l108 32v327h-60v8h128v-8h-60v-325l122 36v118q0 35 2 52.5t7 30.5q17 45 57 74t91 29q33 0 61.5 -12.5t49.5 -33.5t33.5 -49.5t12.5 -61.5v-122zM1240 291q-20 2 -34.5 17t-14.5 36t14.5 36t34.5 17v122
q0 42 -21 76.5t-56 53.5q-21 12 -47 12t-47.5 -12.5t-34.5 -32.5q-8 -11 -12 -28.5t-4 -49.5v-408q0 -32 3.5 -49.5t11.5 -28.5q14 -20 35.5 -32.5t47.5 -12.5t47 12q35 19 56 53t21 77v142zM271 294l-2 8l103 31v179q0 31 -12 58.5t-32 47.5t-47.5 32t-58.5 12
q-26 0 -51 -9l-3 -1v-643h54q62 0 105 43q44 44 44 104v167zM1245 300q19 0 32 13t13 32t-13 32t-32 13t-32 -13t-13 -32t13 -32t32 -13z" />
    <glyph glyph-name="d_u_z" unicode="Duz" horiz-adv-x="1249" 
d="M994 9h208v141h8v-149h-308l113 322l-203 -61v-115q0 -32 -12 -60t-33 -49t-49 -33t-60 -12q-51 0 -90 29t-55 74q-5 12 -7 29.5t-2 53.5v185l-125 -37v-169q0 -32 -12.5 -60.5t-34 -49.5t-50 -33.5t-60.5 -12.5h-198v8h60v652h-60v8h144v-9q25 9 53 9q33 0 61.5 -12.5
t50 -34t34 -50t12.5 -61.5v-176l125 37v289h-60v8h204v-8h-60v-532q0 -30 4 -47.5t11 -28.5q13 -20 34 -32.5t47 -12.5q13 0 24.5 3.5t21.5 8.5q33 19 53.5 52.5t20.5 74.5v112l-103 -31l-2 8l105 31v393h-60v8h128v-8h-60v-391l206 62l116 329h-203v-141h-8v149h299
l-106 -308l93 28l2 -8l-99 -30zM271 295l-2 8l103 31v179q0 31 -12 58.5t-32 47.5t-47.5 32t-58.5 12q-26 0 -51 -9l-3 -1v-643h54q62 0 105 43q44 44 44 104v167z" />
    <glyph glyph-name="d_z" unicode="Dz" horiz-adv-x="797" 
d="M542 9h208v141h8v-149h-308l113 322l-184 -55v-111q0 -32 -12.5 -60.5t-34 -49.5t-50 -33.5t-60.5 -12.5h-198v8h60v652h-60v8h144v-9q25 9 53 9q33 0 61.5 -12.5t50 -34t34 -50t12.5 -61.5v-235l187 56l116 329h-203v-141h-8v149h299l-106 -308l93 28l2 -8l-99 -30z
M271 237l-2 8l103 31v237q0 31 -12 58.5t-32 47.5t-47.5 32t-58.5 12q-26 0 -51 -9l-3 -1v-643h54q62 0 105 43q44 44 44 104v108z" />
    <glyph glyph-name="e_e" unicode="Ee" horiz-adv-x="760" 
d="M722 658h-174v-322l166 50l2 -8l-168 -50v-322h174v141h8v-149h-326v8h60v297l-41 -12l-91 86l-164 -49v-322h174v141h8v-149h-326v8h60v297l-41 -12l-2 8l43 13v347h-60v8h326v-149h-8v141h-174v-322l166 50l91 -86l39 12v347h-60v8h326v-149h-8v139z" />
    <glyph glyph-name="e_e_f" unicode="Eef" horiz-adv-x="1139" 
d="M1110 516h-8v141h-174v-322l166 50l2 -8l-168 -50v-322h60v-8h-204v8h60v297l-41 -12l-91 86l-164 -49v-322h174v141h8v-149h-326v8h60v297l-41 -12l-91 86l-164 -49v-322h174v141h8v-149h-326v8h60v297l-41 -12l-2 8l43 13v347h-60v8h326v-149h-8v141h-174v-322l166 50
l91 -86l39 12v347h-60v8h326v-149h-8v141h-174v-322l166 50l91 -86l39 12v347h-60v8h326v-152z" />
    <glyph glyph-name="e_e_h" unicode="Eeh" horiz-adv-x="1256" 
d="M1172 5h60v-8h-204v8h60v370l-160 -48v-322h60v-8h-204v8h60v297l-41 -12l-91 86l-164 -49v-322h174v141h8v-149h-326v8h60v297l-41 -12l-91 86l-164 -49v-322h174v141h8v-149h-326v8h60v297l-41 -12l-2 8l43 13v347h-60v8h326v-149h-8v141h-174v-322l166 50l91 -86
l39 12v347h-60v8h326v-149h-8v141h-174v-322l166 50l91 -86l39 12v347h-60v8h204v-8h-60v-322l160 48v274h-60v8h204v-8h-60v-655z" />
    <glyph glyph-name="e_e_z" unicode="Eez" horiz-adv-x="1134" 
d="M879 7h208v141h8v-149h-308l113 322l-90 -27l-98 84l-164 -49v-322h174v141h8v-149h-326v8h60v297l-41 -12l-91 86l-164 -49v-322h174v141h8v-149h-326v8h60v297l-41 -12l-2 8l43 13v347h-60v8h326v-149h-8v141h-174v-322l166 50l91 -86l39 12v347h-60v8h326v-149h-8v141
h-174v-322l166 50l98 -84l91 27l116 329h-203v-141h-8v149h299l-106 -308l93 28l2 -8l-99 -30z" />
    <glyph glyph-name="e_f" unicode="Ef" horiz-adv-x="759" 
d="M722 658h-174v-322l166 50l2 -8l-168 -50v-322h60v-8h-204v8h60v297l-41 -12l-91 86l-164 -49v-322h174v141h8v-149h-326v8h60v297l-41 -12l-2 8l43 13v347h-60v8h326v-149h-8v141h-174v-322l166 50l91 -86l39 12v347h-60v8h326v-149h-8v139z" />
    <glyph glyph-name="e_h" unicode="Eh" horiz-adv-x="876" 
d="M792 6h60v-8h-204v8h60v370l-160 -48v-322h60v-8h-204v8h60v297l-41 -12l-91 86l-164 -49v-322h174v141h8v-149h-326v8h60v297l-41 -12l-2 8l43 13v347h-60v8h326v-149h-8v141h-174v-322l166 50l91 -86l39 12v347h-60v8h204v-8h-60v-322l160 48v274h-60v8h204v-8h-60
v-654z" />
    <glyph glyph-name="e_z" unicode="Ez" horiz-adv-x="754" 
d="M499 8h208v141h8v-149h-308l113 322l-90 -27l-98 84l-164 -49v-322h174v141h8v-149h-326v8h60v297l-41 -12l-2 8l43 13v347h-60v8h326v-149h-8v141h-174v-322l166 50l98 -84l91 27l116 329h-203v-141h-8v149h299l-106 -308l93 28l2 -8l-99 -30z" />
    <glyph glyph-name="e_z_z" unicode="Ezz" horiz-adv-x="1128" 
d="M873 8h208v141h8v-149h-308l113 322l-90 -27l-92 84l-95 -28l-118 -343h208v141h8v-149h-308l113 322l-90 -27l-98 84l-164 -49v-322h174v141h8v-149h-326v8h60v297l-41 -12l-2 8l43 13v347h-60v8h326v-149h-8v141h-174v-322l166 50l98 -84l91 27l116 329h-203v-141h-8
v149h299l-106 -308l93 28l92 -84l91 27l116 329h-203v-141h-8v149h299l-106 -308l93 28l2 -8l-99 -30z" />
    <glyph glyph-name="f_e" unicode="Fe" horiz-adv-x="760" 
d="M722 658h-174v-322l166 50l2 -8l-168 -50v-322h174v141h8v-149h-326v8h60v297l-41 -12l-91 86l-164 -49v-322h60v-8h-204v8h60v297l-41 -12l-2 8l43 13v347h-60v8h326v-149h-8v141h-174v-322l166 50l91 -86l39 12v347h-60v8h326v-149h-8v139z" />
    <glyph glyph-name="f_e_e" unicode="Fee" horiz-adv-x="1139" 
d="M1101 657h-174v-322l166 50l2 -8l-168 -50v-322h174v141h8v-149h-326v8h60v297l-41 -12l-91 86l-164 -49v-322h174v141h8v-149h-326v8h60v297l-41 -12l-90 86l-164 -49v-322h60v-8h-204v8h60v297l-41 -12l-2 8l43 13v347h-60v8h326v-149h-8v141h-174v-322l166 50l90 -86
l39 12v347h-60v8h326v-149h-8v141h-174v-322l166 50l91 -86l39 12v347h-60v8h326v-149h-8v138z" />
    <glyph glyph-name="f_e_f" unicode="Fef" horiz-adv-x="1138" 
d="M1109 516h-8v141h-174v-322l166 50l2 -8l-168 -50v-322h60v-8h-204v8h60v297l-41 -12l-91 86l-164 -49v-322h174v141h8v-149h-326v8h60v297l-41 -12l-90 86l-164 -49v-322h60v-8h-204v8h60v297l-41 -12l-2 8l43 13v347h-60v8h326v-149h-8v141h-174v-322l166 50l90 -86
l39 12v347h-60v8h326v-149h-8v141h-174v-322l166 50l91 -86l39 12v347h-60v8h326v-152z" />
    <glyph glyph-name="f_e_h" unicode="Feh" horiz-adv-x="1255" 
d="M1171 5h60v-8h-204v8h60v370l-160 -48v-322h60v-8h-204v8h60v297l-41 -12l-91 86l-164 -49v-322h174v141h8v-149h-326v8h60v297l-41 -12l-90 86l-164 -49v-322h60v-8h-204v8h60v297l-41 -12l-2 8l43 13v347h-60v8h326v-149h-8v141h-174v-322l166 50l90 -86l39 12v347h-60
v8h326v-149h-8v141h-174v-322l166 50l91 -86l39 12v347h-60v8h204v-8h-60v-322l160 48v274h-60v8h204v-8h-60v-655z" />
    <glyph glyph-name="f_e_z" unicode="Fez" horiz-adv-x="1133" 
d="M878 7h208v141h8v-149h-308l113 322l-90 -27l-98 84l-164 -49v-322h174v141h8v-149h-326v8h60v297l-41 -12l-90 86l-164 -49v-322h60v-8h-204v8h60v297l-41 -12l-2 8l43 13v347h-60v8h326v-149h-8v141h-174v-322l166 50l90 -86l39 12v347h-60v8h326v-149h-8v141h-174
v-322l166 50l98 -84l91 27l116 329h-203v-141h-8v149h299l-106 -308l93 28l2 -8l-99 -30z" />
    <glyph glyph-name="f_f" unicode="Ff" horiz-adv-x="758" 
d="M721 658h-174v-322l166 50l2 -8l-168 -50v-322h60v-8h-204v8h60v297l-41 -12l-90 86l-164 -49v-322h60v-8h-204v8h60v297l-41 -12l-2 8l43 13v347h-60v8h326v-149h-8v141h-174v-322l166 50l90 -86l39 12v347h-60v8h326v-149h-8v139z" />
    <glyph glyph-name="f_h" unicode="Fh" horiz-adv-x="875" 
d="M791 6h60v-8h-204v8h60v370l-160 -48v-322h60v-8h-204v8h60v297l-41 -12l-90 86l-164 -49v-322h60v-8h-204v8h60v297l-41 -12l-2 8l43 13v347h-60v8h326v-149h-8v141h-174v-322l166 50l90 -86l39 12v347h-60v8h204v-8h-60v-322l160 48v274h-60v8h204v-8h-60v-654z" />
    <glyph glyph-name="f_z" unicode="Fz" horiz-adv-x="753" 
d="M498 8h208v141h8v-149h-308l113 322l-90 -27l-97 84l-164 -49v-322h60v-8h-204v8h60v297l-41 -12l-2 8l43 13v347h-60v8h326v-149h-8v141h-174v-322l166 50l97 -84l91 27l116 329h-203v-141h-8v149h299l-106 -308l93 28l2 -8l-99 -30z" />
    <glyph glyph-name="o_c" unicode="Oc" horiz-adv-x="812" 
d="M784 146q0 -32 -12 -60t-33 -49t-49 -33t-60 -12q-51 0 -90 29t-55 74q-5 12 -7 29.5t-2 53.5v181l-103 -31v-179q0 -33 -12.5 -61.5t-33.5 -49.5t-49.5 -33.5t-61.5 -12.5q-51 0 -91 29t-57 74q-5 13 -7 30t-2 53v312q0 35 2 52.5t7 30.5q17 45 57 74t91 29
q33 0 61.5 -12.5t49.5 -33.5t33.5 -49.5t12.5 -61.5v-182l103 31v133q0 33 3.5 52.5t8.5 32.5q17 40 53.5 65t82.5 25q49 0 87 -28t53 -72v96h8v-153h-8v9q0 38 -18 69t-48 50q-19 11 -45 11t-47 -12.5t-33 -33.5q-6 -11 -9.5 -25t-3.5 -39v-418q0 -32 4.5 -49.5t11.5 -28.5
q13 -20 33.5 -32.5t46.5 -12.5q13 0 24.5 3.5t21.5 8.5q33 19 53.5 52.5t20.5 74.5h8zM254 292l-2 8l113 34v185q0 42 -21 76.5t-56 53.5q-21 12 -47 12t-47.5 -12.5t-34.5 -32.5q-8 -11 -12 -28.5t-4 -49.5v-408q0 -32 3.5 -49.5t11.5 -28.5q14 -20 35.5 -32.5t47.5 -12.5
t47 12q35 19 56 53t21 77v177z" />
    <glyph glyph-name="o_e" unicode="Oe" horiz-adv-x="791" 
d="M759 660h-174v-322l166 50l2 -8l-168 -50v-322h174v141h8v-149h-326v8h60v297l-128 -38v-118q0 -33 -12.5 -61.5t-33.5 -49.5t-49.5 -33.5t-61.5 -12.5q-51 0 -91 29t-57 74q-5 13 -7 30t-2 53v312q0 35 2 52.5t7 30.5q17 45 57 74t91 29q33 0 61.5 -12.5t49.5 -33.5
t33.5 -49.5t12.5 -61.5v-244l128 38v347h-60v8h326v-149h-8v141zM254 230l-2 8l113 34v247q0 42 -21 76.5t-56 53.5q-21 12 -47 12t-47.5 -12.5t-34.5 -32.5q-8 -11 -12 -28.5t-4 -49.5v-408q0 -32 3.5 -49.5t11.5 -28.5q14 -20 35.5 -32.5t47.5 -12.5t47 12q35 19 56 53
t21 77v115z" />
    <glyph glyph-name="o_f" unicode="Of" horiz-adv-x="796" 
d="M767 519h-8v141h-174v-322l166 50l2 -8l-168 -50v-322h60v-8h-204v8h60v297l-128 -38v-118q0 -33 -12.5 -61.5t-33.5 -49.5t-49.5 -33.5t-61.5 -12.5q-51 0 -91 29t-57 74q-5 13 -7 30t-2 53v312q0 35 2 52.5t7 30.5q17 45 57 74t91 29q33 0 61.5 -12.5t49.5 -33.5
t33.5 -49.5t12.5 -61.5v-244l128 38v347h-60v8h326v-149zM254 230l-2 8l113 34v247q0 42 -21 76.5t-56 53.5q-21 12 -47 12t-47.5 -12.5t-34.5 -32.5q-8 -11 -12 -28.5t-4 -49.5v-408q0 -32 3.5 -49.5t11.5 -28.5q14 -20 35.5 -32.5t47.5 -12.5t47 12q35 19 56 53t21 77v115
z" />
    <glyph glyph-name="o_g" unicode="Og" horiz-adv-x="825" 
d="M790 148q0 -33 -12.5 -61.5t-33.5 -49.5t-49.5 -33.5t-61.5 -12.5q-51 0 -91 29t-57 74q-5 13 -7 30t-2 53v181l-103 -31v-179q0 -33 -12.5 -61.5t-33.5 -49.5t-49.5 -33.5t-61.5 -12.5q-51 0 -91 29t-57 74q-5 13 -7 30t-2 53v312q0 35 2 52.5t7 30.5q17 45 57 74t91 29
q33 0 61.5 -12.5t49.5 -33.5t33.5 -49.5t12.5 -61.5v-182l103 31v122q0 36 2 53.5t7 29.5q16 45 55 74t89 29q51 0 90.5 -29.5t54.5 -74.5v100h8v-153h-8v4q0 40 -20 73t-52 52q-21 12 -46 12q-26 0 -46.5 -12t-34.5 -32q-8 -11 -11.5 -27t-3.5 -51v-408q0 -32 3.5 -49.5
t11.5 -28.5q14 -20 35.5 -32.5t47.5 -12.5t47 12q35 19 56 53.5t21 76.5v193l-113 -30l-2 8l123 33v-204zM254 291l-2 8l113 34v185q0 42 -21 76.5t-56 53.5q-21 12 -47 12t-47.5 -12.5t-34.5 -32.5q-8 -11 -12 -28.5t-4 -49.5v-408q0 -32 3.5 -49.5t11.5 -28.5
q14 -20 35.5 -32.5t47.5 -12.5t47 12q35 19 56 53t21 77v177z" />
    <glyph glyph-name="o_h" unicode="Oh" horiz-adv-x="913" 
d="M829 8h60v-8h-204v8h60v370l-160 -48v-322h60v-8h-204v8h60v297l-128 -38v-118q0 -33 -12.5 -61.5t-33.5 -49.5t-49.5 -33.5t-61.5 -12.5q-51 0 -91 29t-57 74q-5 13 -7 30t-2 53v312q0 35 2 52.5t7 30.5q17 45 57 74t91 29q33 0 61.5 -12.5t49.5 -33.5t33.5 -49.5
t12.5 -61.5v-244l128 38v347h-60v8h204v-8h-60v-322l160 48v274h-60v8h204v-8h-60v-652zM254 230l-2 8l113 34v247q0 42 -21 76.5t-56 53.5q-21 12 -47 12t-47.5 -12.5t-34.5 -32.5q-8 -11 -12 -28.5t-4 -49.5v-408q0 -32 3.5 -49.5t11.5 -28.5q14 -20 35.5 -32.5
t47.5 -12.5t47 12q35 19 56 53t21 77v115z" />
    <glyph glyph-name="o_hyphen" unicode="o&#x2d;" horiz-adv-x="743" 
d="M373 150q0 -33 -12.5 -61.5t-33.5 -49.5t-49.5 -33.5t-61.5 -12.5q-51 0 -91 29t-57 74q-5 13 -7 30t-2 53v312q0 35 2 52.5t7 30.5q17 45 57 74t91 29q33 0 61.5 -12.5t49.5 -33.5t33.5 -49.5t12.5 -61.5v-234l348 104l2 -8l-350 -105v-127zM254 242l-2 8l113 34v236
q0 42 -21 76.5t-56 53.5q-21 12 -47 12t-47.5 -12.5t-34.5 -32.5q-8 -11 -12 -28.5t-4 -49.5v-408q0 -32 3.5 -49.5t11.5 -28.5q14 -20 35.5 -32.5t47.5 -12.5t47 12q35 19 56 53t21 77v125z" />
    <glyph glyph-name="o_o" unicode="Oo" horiz-adv-x="844" 
d="M790 397q20 -2 34.5 -17t14.5 -36t-14.5 -36t-34.5 -17v-142q0 -33 -12.5 -61.5t-33.5 -49.5t-49.5 -33.5t-61.5 -12.5q-51 0 -91 29t-57 74q-5 13 -7 30t-2 53v181l-103 -31v-179q0 -33 -12.5 -61.5t-33.5 -49.5t-49.5 -33.5t-61.5 -12.5q-51 0 -91 29t-57 74
q-5 13 -7 30t-2 53v312q0 35 2 52.5t7 30.5q17 45 57 74t91 29q33 0 61.5 -12.5t49.5 -33.5t33.5 -49.5t12.5 -61.5v-182l103 31v122q0 35 2 52.5t7 30.5q17 45 57 74t91 29q33 0 61.5 -12.5t49.5 -33.5t33.5 -49.5t12.5 -61.5v-122zM254 292l-2 8l113 34v185q0 42 -21 76.5
t-56 53.5q-21 12 -47 12t-47.5 -12.5t-34.5 -32.5q-8 -11 -12 -28.5t-4 -49.5v-408q0 -32 3.5 -49.5t11.5 -28.5q14 -20 35.5 -32.5t47.5 -12.5t47 12q35 19 56 53t21 77v177zM782 290q-20 2 -34.5 17t-14.5 36t14.5 36t34.5 17v122q0 42 -21 76.5t-56 53.5q-21 12 -47 12
t-47.5 -12.5t-34.5 -32.5q-8 -11 -12 -28.5t-4 -49.5v-408q0 -32 3.5 -49.5t11.5 -28.5q14 -20 35.5 -32.5t47.5 -12.5t47 12q35 19 56 53t21 77v142zM786 298q19 0 32 13t13 32t-13 32t-32 13t-32 -13t-13 -32t13 -32t32 -13z" />
    <glyph glyph-name="o_q" unicode="Oq" horiz-adv-x="837" 
d="M888 -36q0 -35 -25 -60t-60 -25t-60 25t-25 60v52q-23 -14 -45.5 -19.5t-39.5 -5.5q-51 0 -91 29t-57 74q-5 13 -7 30t-2 53v181l-103 -31v-179q0 -33 -12.5 -61.5t-33.5 -49.5t-49.5 -33.5t-61.5 -12.5q-51 0 -91 29t-57 74q-5 13 -7 30t-2 53v312q0 35 2 52.5t7 30.5
q17 45 57 74t91 29q33 0 61.5 -12.5t49.5 -33.5t33.5 -49.5t12.5 -61.5v-182l103 31v122q0 35 2 52.5t7 30.5q17 45 57 74t91 29q33 0 61.5 -12.5t49.5 -33.5t33.5 -49.5t12.5 -61.5v-370q0 -39 -17.5 -72.5t-46.5 -53.5v-57q0 -32 22.5 -54.5t54.5 -22.5t54.5 22.5
t22.5 54.5zM254 291l-2 8l113 34v185q0 42 -21 76.5t-56 53.5q-21 12 -47 12t-47.5 -12.5t-34.5 -32.5q-8 -11 -12 -28.5t-4 -49.5v-408q0 -32 3.5 -49.5t11.5 -28.5q14 -20 35.5 -32.5t47.5 -12.5t47 12q35 19 56 53t21 77v177zM560 101q8 26 30 42.5t51 16.5q35 0 60 -25
t25 -60v-45q26 20 41 50.5t15 66.5v370q0 42 -21 76.5t-56 53.5q-21 12 -47 12t-47.5 -12.5t-34.5 -32.5q-8 -11 -12 -28.5t-4 -49.5v-435zM719 75q0 32 -22.5 54.5t-54.5 22.5t-54.5 -22.5t-22.5 -54.5t22.5 -54.5t54.5 -22.5q14 0 34.5 6.5t41.5 20.5z" />
    <glyph glyph-name="o_u" unicode="Ou" horiz-adv-x="879" 
d="M806 396q20 -2 34.5 -17t14.5 -36t-14.5 -36t-34.5 -17v-145q0 -32 -12 -60t-33 -49t-49 -33t-60 -12q-51 0 -90 29t-55 74q-5 12 -7 29.5t-2 53.5v188l-125 -37v-179q0 -33 -12.5 -61.5t-33.5 -49.5t-49.5 -33.5t-61.5 -12.5q-51 0 -91 29t-57 74q-5 13 -7 30t-2 53v312
q0 35 2 52.5t7 30.5q17 45 57 74t91 29q33 0 61.5 -12.5t49.5 -33.5t33.5 -49.5t12.5 -61.5v-182l125 37v286h-60v8h204v-8h-60v-532q0 -30 4 -47.5t11 -28.5q13 -20 34 -32.5t47 -12.5q13 0 24.5 3.5t21.5 8.5q33 19 53.5 52.5t20.5 74.5v145q-20 2 -34.5 17t-14.5 36
t14.5 36t34.5 17v263h-60v8h128v-8h-60v-264zM254 291l-2 8l113 34v185q0 42 -21 76.5t-56 53.5q-21 12 -47 12t-47.5 -12.5t-34.5 -32.5q-8 -11 -12 -28.5t-4 -49.5v-408q0 -32 3.5 -49.5t11.5 -28.5q14 -20 35.5 -32.5t47.5 -12.5t47 12q35 19 56 53t21 77v177zM847 342
q0 19 -13 32t-32 13t-32 -13t-13 -32t13 -32t32 -13t32 13t13 32z" />
    <glyph glyph-name="o_u_c" unicode="Ouc" horiz-adv-x="1264" 
d="M1236 146q0 -32 -12 -60t-33 -49t-49 -33t-60 -12q-51 0 -90 29t-55 74q-5 12 -7 29.5t-2 53.5v185l-122 -36v-181q0 -32 -12 -60t-33 -49t-49 -33t-60 -12q-51 0 -90 29t-55 74q-5 12 -7 29.5t-2 53.5v188l-125 -37v-179q0 -33 -12.5 -61.5t-33.5 -49.5t-49.5 -33.5
t-61.5 -12.5q-51 0 -91 29t-57 74q-5 13 -7 30t-2 53v312q0 35 2 52.5t7 30.5q17 45 57 74t91 29q33 0 61.5 -12.5t49.5 -33.5t33.5 -49.5t12.5 -61.5v-182l125 37v286h-60v8h204v-8h-60v-532q0 -30 4 -47.5t11 -28.5q13 -20 34 -32.5t47 -12.5q13 0 24.5 3.5t21.5 8.5
q33 19 53.5 52.5t20.5 74.5v179l-106 -32l-2 8l108 32v327h-60v8h128v-8h-60v-325l122 36v129q0 33 3.5 52.5t8.5 32.5q17 40 53.5 65t82.5 25q49 0 87 -28t53 -72v96h8v-153h-8v9q0 38 -18 69t-48 50q-19 11 -45 11t-47 -12.5t-33 -33.5q-6 -11 -9.5 -25t-3.5 -39v-418
q0 -32 4.5 -49.5t11.5 -28.5q13 -20 33.5 -32.5t46.5 -12.5q13 0 24.5 3.5t21.5 8.5q33 19 53.5 52.5t20.5 74.5h8zM254 292l-2 8l113 34v185q0 42 -21 76.5t-56 53.5q-21 12 -47 12t-47.5 -12.5t-34.5 -32.5q-8 -11 -12 -28.5t-4 -49.5v-408q0 -32 3.5 -49.5t11.5 -28.5
q14 -20 35.5 -32.5t47.5 -12.5t47 12q35 19 56 53t21 77v177z" />
    <glyph glyph-name="o_u_g" unicode="Oug" horiz-adv-x="1277" 
d="M1242 148q0 -33 -12.5 -61.5t-33.5 -49.5t-49.5 -33.5t-61.5 -12.5q-51 0 -91 29t-57 74q-5 13 -7 30t-2 53v185l-122 -36v-181q0 -32 -12 -60t-33 -49t-49 -33t-60 -12q-51 0 -90 29t-55 74q-5 12 -7 29.5t-2 53.5v188l-125 -37v-179q0 -33 -12.5 -61.5t-33.5 -49.5
t-49.5 -33.5t-61.5 -12.5q-51 0 -91 29t-57 74q-5 13 -7 30t-2 53v312q0 35 2 52.5t7 30.5q17 45 57 74t91 29q33 0 61.5 -12.5t49.5 -33.5t33.5 -49.5t12.5 -61.5v-182l125 37v286h-60v8h204v-8h-60v-532q0 -30 4 -47.5t11 -28.5q13 -20 34 -32.5t47 -12.5q13 0 24.5 3.5
t21.5 8.5q33 19 53.5 52.5t20.5 74.5v179l-106 -32l-2 8l108 32v327h-60v8h128v-8h-60v-325l122 36v118q0 36 2 53.5t7 29.5q16 45 55 74t89 29q51 0 90.5 -29.5t54.5 -74.5v100h8v-153h-8v4q0 40 -20 73t-52 52q-21 12 -46 12q-26 0 -46.5 -12t-34.5 -32q-8 -11 -11.5 -27
t-3.5 -51v-408q0 -32 3.5 -49.5t11.5 -28.5q14 -20 35.5 -32.5t47.5 -12.5t47 12q35 19 56 53.5t21 76.5v193l-113 -30l-2 8l123 33v-204zM254 291l-2 8l113 34v185q0 42 -21 76.5t-56 53.5q-21 12 -47 12t-47.5 -12.5t-34.5 -32.5q-8 -11 -12 -28.5t-4 -49.5v-408
q0 -32 3.5 -49.5t11.5 -28.5q14 -20 35.5 -32.5t47.5 -12.5t47 12q35 19 56 53t21 77v177z" />
    <glyph glyph-name="o_z" unicode="Oz" horiz-adv-x="791" 
d="M536 9h208v141h8v-149h-308l113 322l-184 -55v-118q0 -33 -12.5 -61.5t-33.5 -49.5t-49.5 -33.5t-61.5 -12.5q-51 0 -91 29t-57 74q-5 13 -7 30t-2 53v312q0 35 2 52.5t7 30.5q17 45 57 74t91 29q33 0 61.5 -12.5t49.5 -33.5t33.5 -49.5t12.5 -61.5v-244l187 56l116 329
h-203v-141h-8v149h299l-106 -308l93 28l2 -8l-99 -30zM254 231l-2 8l113 34v247q0 42 -21 76.5t-56 53.5q-21 12 -47 12t-47.5 -12.5t-34.5 -32.5q-8 -11 -12 -28.5t-4 -49.5v-408q0 -32 3.5 -49.5t11.5 -28.5q14 -20 35.5 -32.5t47.5 -12.5t47 12q35 19 56 53t21 77v115z
" />
    <glyph glyph-name="p_t" unicode="Pt" horiz-adv-x="773" 
d="M740 519h-8v141h-127v-652h60v-8h-204v8h60v652h-127v-152q2 -35 -11.5 -68t-40.5 -59l-132 -123l-5 6l132 123q48 45 50 110v11q-2 58 -42 102q-45 48 -110 50h-6q-32 0 -60 -12v-640h60v-8h-204v8h60v652h-60v8h144v-11q30 11 60 11h6q68 -3 115 -53q26 -27 36 -64v117
h354v-149z" />
    <glyph glyph-name="t_t" unicode="Tt" horiz-adv-x="766" 
d="M733 519h-8v141h-127v-652h60v-8h-204v8h60v652h-127v-141h-8v141h-127v-652h60v-8h-204v8h60v652h-127v-141h-8v149h700v-149z" />
    <glyph glyph-name="u_c" unicode="Uc" horiz-adv-x="847" 
d="M819 147q0 -32 -12 -60t-33 -49t-49 -33t-60 -12q-51 0 -90 29t-55 74q-5 12 -7 29.5t-2 53.5v185l-122 -36v-181q0 -32 -12 -60t-33 -49t-49 -33t-60 -12q-51 0 -90 29t-55 74q-5 12 -7 29.5t-2 53.5v482h-60v8h204v-8h-60v-532q0 -30 4 -47.5t11 -28.5q13 -20 34 -32.5
t47 -12.5q13 0 24.5 3.5t21.5 8.5q33 19 53.5 52.5t20.5 74.5v179l-106 -32l-2 8l108 32v327h-60v8h128v-8h-60v-325l122 36v129q0 33 3.5 52.5t8.5 32.5q17 40 53.5 65t82.5 25q49 0 87 -28t53 -72v96h8v-153h-8v9q0 38 -18 69t-48 50q-19 11 -45 11t-47 -12.5t-33 -33.5
q-6 -11 -9.5 -25t-3.5 -39v-418q0 -32 4.5 -49.5t11.5 -28.5q13 -20 33.5 -32.5t46.5 -12.5q13 0 24.5 3.5t21.5 8.5q33 19 53.5 52.5t20.5 74.5z" />
    <glyph glyph-name="u_e" unicode="Ue" horiz-adv-x="832" 
d="M794 661h-174v-322l166 50l2 -8l-168 -50v-322h174v141h8v-149h-326v8h60v297l-147 -44v-115q0 -32 -12 -60t-33 -49t-49 -33t-60 -12q-51 0 -90 29t-55 74q-5 12 -7 29.5t-2 53.5v482h-60v8h204v-8h-60v-532q0 -30 4 -47.5t11 -28.5q13 -20 34 -32.5t47 -12.5
q13 0 24.5 3.5t21.5 8.5q33 19 53.5 52.5t20.5 74.5v112l-106 -32l-2 8l108 32v393h-60v8h128v-8h-60v-391l147 44v347h-60v8h326v-149h-8v142z" />
    <glyph glyph-name="u_f" unicode="Uf" horiz-adv-x="831" 
d="M802 520h-8v141h-174v-322l166 50l2 -8l-168 -50v-322h60v-8h-204v8h60v297l-147 -44v-115q0 -32 -12 -60t-33 -49t-49 -33t-60 -12q-51 0 -90 29t-55 74q-5 12 -7 29.5t-2 53.5v482h-60v8h204v-8h-60v-532q0 -30 4 -47.5t11 -28.5q13 -20 34 -32.5t47 -12.5
q13 0 24.5 3.5t21.5 8.5q33 19 53.5 52.5t20.5 74.5v112l-106 -32l-2 8l108 32v393h-60v8h128v-8h-60v-391l147 44v347h-60v8h326v-148z" />
    <glyph glyph-name="u_g" unicode="Ug" horiz-adv-x="860" 
d="M825 149q0 -33 -12.5 -61.5t-33.5 -49.5t-49.5 -33.5t-61.5 -12.5q-51 0 -91 29t-57 74q-5 13 -7 30t-2 53v185l-122 -36v-181q0 -32 -12 -60t-33 -49t-49 -33t-60 -12q-51 0 -90 29t-55 74q-5 12 -7 29.5t-2 53.5v482h-60v8h204v-8h-60v-532q0 -30 4 -47.5t11 -28.5
q13 -20 34 -32.5t47 -12.5q13 0 24.5 3.5t21.5 8.5q33 19 53.5 52.5t20.5 74.5v179l-106 -32l-2 8l108 32v327h-60v8h128v-8h-60v-325l122 36v118q0 36 2 53.5t7 29.5q16 45 55 74t89 29q51 0 90.5 -29.5t54.5 -74.5v100h8v-153h-8v4q0 40 -20 73t-52 52q-21 12 -46 12
q-26 0 -46.5 -12t-34.5 -32q-8 -11 -11.5 -27t-3.5 -51v-408q0 -32 3.5 -49.5t11.5 -28.5q14 -20 35.5 -32.5t47.5 -12.5t47 12q35 19 56 53.5t21 76.5v193l-113 -30l-2 8l123 33v-203z" />
    <glyph glyph-name="u_h" unicode="Uh" horiz-adv-x="948" 
d="M864 9h60v-8h-204v8h60v370l-160 -48v-322h60v-8h-204v8h60v297l-147 -44v-115q0 -32 -12 -60t-33 -49t-49 -33t-60 -12q-51 0 -90 29t-55 74q-5 12 -7 29.5t-2 53.5v482h-60v8h204v-8h-60v-532q0 -30 4 -47.5t11 -28.5q13 -20 34 -32.5t47 -12.5q13 0 24.5 3.5t21.5 8.5
q33 19 53.5 52.5t20.5 74.5v112l-106 -32l-2 8l108 32v393h-60v8h128v-8h-60v-391l147 44v347h-60v8h204v-8h-60v-322l160 48v274h-60v8h204v-8h-60v-651z" />
    <glyph glyph-name="u_hyphen" unicode="u&#x2d;" horiz-adv-x="764" 
d="M389 146q0 -32 -12 -60t-33 -49t-49 -33t-60 -12q-51 0 -90 29t-55 74q-5 12 -7 29.5t-2 53.5v482h-60v8h204v-8h-60v-532q0 -30 4 -47.5t11 -28.5q13 -20 34 -32.5t47 -12.5q13 0 24.5 3.5t21.5 8.5q33 19 53.5 52.5t20.5 74.5v127l-106 -32l-2 8l108 32v379h-60v8h128
v-8h-60v-377l353 106l2 -8l-355 -106v-129z" />
    <glyph glyph-name="u_o" unicode="Uo" horiz-adv-x="879" 
d="M825 398q20 -2 34.5 -17t14.5 -36t-14.5 -36t-34.5 -17v-142q0 -33 -12.5 -61.5t-33.5 -49.5t-49.5 -33.5t-61.5 -12.5q-51 0 -91 29t-57 74q-5 13 -7 30t-2 53v185l-122 -36v-181q0 -32 -12 -60t-33 -49t-49 -33t-60 -12q-51 0 -90 29t-55 74q-5 12 -7 29.5t-2 53.5v482
h-60v8h204v-8h-60v-532q0 -30 4 -47.5t11 -28.5q13 -20 34 -32.5t47 -12.5q13 0 24.5 3.5t21.5 8.5q33 19 53.5 52.5t20.5 74.5v179l-106 -32l-2 8l108 32v327h-60v8h128v-8h-60v-325l122 36v118q0 35 2 52.5t7 30.5q17 45 57 74t91 29q33 0 61.5 -12.5t49.5 -33.5
t33.5 -49.5t12.5 -61.5v-121zM817 292q-20 2 -34.5 17t-14.5 36t14.5 36t34.5 17v122q0 42 -21 76.5t-56 53.5q-21 12 -47 12t-47.5 -12.5t-34.5 -32.5q-8 -11 -12 -28.5t-4 -49.5v-408q0 -32 3.5 -49.5t11.5 -28.5q14 -20 35.5 -32.5t47.5 -12.5t47 12q35 19 56 53t21 77
v142zM821 300q19 0 32 13t13 32t-13 32t-32 13t-32 -13t-13 -32t13 -32t32 -13z" />
    <glyph glyph-name="u_q" unicode="Uq" horiz-adv-x="872" 
d="M923 -35q0 -35 -25 -60t-60 -25t-60 25t-25 60v52q-23 -14 -45.5 -19.5t-39.5 -5.5q-51 0 -91 29t-57 74q-5 13 -7 30t-2 53v185l-122 -36v-181q0 -32 -12 -60t-33 -49t-49 -33t-60 -12q-51 0 -90 29t-55 74q-5 12 -7 29.5t-2 53.5v482h-60v8h204v-8h-60v-532
q0 -30 4 -47.5t11 -28.5q13 -20 34 -32.5t47 -12.5q13 0 24.5 3.5t21.5 8.5q33 19 53.5 52.5t20.5 74.5v179l-106 -32l-2 8l108 32v327h-60v8h128v-8h-60v-325l122 36v118q0 35 2 52.5t7 30.5q17 45 57 74t91 29q33 0 61.5 -12.5t49.5 -33.5t33.5 -49.5t12.5 -61.5v-370
q0 -39 -17.5 -72.5t-46.5 -53.5v-57q0 -32 22.5 -54.5t54.5 -22.5t54.5 22.5t22.5 54.5h8zM595 103q8 26 30 42.5t51 16.5q35 0 60 -25t25 -60v-45q26 20 41 50.5t15 66.5v370q0 42 -21 76.5t-56 53.5q-21 12 -47 12t-47.5 -12.5t-34.5 -32.5q-8 -11 -12 -28.5t-4 -49.5
v-435zM754 77q0 32 -22.5 54.5t-54.5 22.5t-54.5 -22.5t-22.5 -54.5t22.5 -54.5t54.5 -22.5q14 0 34.5 6.5t41.5 20.5z" />
    <glyph glyph-name="u_u" unicode="Uu" horiz-adv-x="914" 
d="M841 397q20 -2 34.5 -17t14.5 -36t-14.5 -36t-34.5 -17v-145q0 -32 -12 -60t-33 -49t-49 -33t-60 -12q-51 0 -90 29t-55 74q-5 12 -7 29.5t-2 53.5v192l-144 -43v-181q0 -32 -12 -60t-33 -49t-49 -33t-60 -12q-51 0 -90 29t-55 74q-5 12 -7 29.5t-2 53.5v482h-60v8h204
v-8h-60v-532q0 -30 4 -47.5t11 -28.5q13 -20 34 -32.5t47 -12.5q13 0 24.5 3.5t21.5 8.5q33 19 53.5 52.5t20.5 74.5v179l-106 -32l-2 8l108 32v327h-60v8h128v-8h-60v-325l144 43v282h-60v8h204v-8h-60v-532q0 -30 4 -47.5t11 -28.5q13 -20 34 -32.5t47 -12.5
q13 0 24.5 3.5t21.5 8.5q33 19 53.5 52.5t20.5 74.5v145q-20 2 -34.5 17t-14.5 36t14.5 36t34.5 17v263h-60v8h128v-8h-60v-263zM882 344q0 19 -13 32t-32 13t-32 -13t-13 -32t13 -32t32 -13t32 13t13 32z" />
    <glyph glyph-name="u_z" unicode="Uz" horiz-adv-x="826" 
d="M571 10h208v141h8v-149h-308l113 322l-203 -61v-115q0 -32 -12 -60t-33 -49t-49 -33t-60 -12q-51 0 -90 29t-55 74q-5 12 -7 29.5t-2 53.5v482h-60v8h204v-8h-60v-532q0 -30 4 -47.5t11 -28.5q13 -20 34 -32.5t47 -12.5q13 0 24.5 3.5t21.5 8.5q33 19 53.5 52.5
t20.5 74.5v112l-106 -32l-2 8l108 32v393h-60v8h128v-8h-60v-391l206 62l116 329h-203v-141h-8v149h299l-106 -308l93 28l2 -8l-99 -30z" />
    <glyph glyph-name="z_e" unicode="Ze" horiz-adv-x="754" 
d="M715 658h-174v-322l166 50l2 -8l-168 -50v-322h174v141h8v-149h-326v8h60v297l-41 -12l-85 86l-94 -28l-118 -343h208v141h8v-149h-308l113 322l-90 -27l-2 8l95 29l116 329h-203v-141h-8v149h299l-106 -308l93 28l85 -86l39 12v347h-60v8h326v-149h-8z" />
    <glyph glyph-name="z_e_e" unicode="Zee" horiz-adv-x="1134" 
d="M1095 657h-174v-322l166 50l2 -8l-168 -50v-322h174v141h8v-149h-326v8h60v297l-41 -12l-91 86l-164 -49v-322h174v141h8v-149h-326v8h60v297l-41 -12l-85 86l-94 -28l-118 -343h208v141h8v-149h-308l113 322l-90 -27l-2 8l95 29l116 329h-203v-141h-8v149h299l-106 -308
l93 28l85 -86l39 12v347h-60v8h326v-149h-8v141h-174v-322l166 50l91 -86l39 12v347h-60v8h326v-149h-8z" />
    <glyph glyph-name="z_e_f" unicode="Zef" horiz-adv-x="1133" 
d="M1103 516h-8v141h-174v-322l166 50l2 -8l-168 -50v-322h60v-8h-204v8h60v297l-41 -12l-91 86l-164 -49v-322h174v141h8v-149h-326v8h60v297l-41 -12l-85 86l-94 -28l-118 -343h208v141h8v-149h-308l113 322l-90 -27l-2 8l95 29l116 329h-203v-141h-8v149h299l-106 -308
l93 28l85 -86l39 12v347h-60v8h326v-149h-8v141h-174v-322l166 50l91 -86l39 12v347h-60v8h326z" />
    <glyph glyph-name="z_e_h" unicode="Zeh" horiz-adv-x="1250" 
d="M1165 5h60v-8h-204v8h60v370l-160 -48v-322h60v-8h-204v8h60v297l-41 -12l-91 86l-164 -49v-322h174v141h8v-149h-326v8h60v297l-41 -12l-85 86l-94 -28l-118 -343h208v141h8v-149h-308l113 322l-90 -27l-2 8l95 29l116 329h-203v-141h-8v149h299l-106 -308l93 28l85 -86
l39 12v347h-60v8h326v-149h-8v141h-174v-322l166 50l91 -86l39 12v347h-60v8h204v-8h-60v-322l160 48v274h-60v8h204v-8h-60z" />
    <glyph glyph-name="z_f" unicode="Zf" horiz-adv-x="753" 
d="M723 517h-8v141h-174v-322l166 50l2 -8l-168 -50v-322h60v-8h-204v8h60v297l-41 -12l-85 86l-94 -28l-118 -343h208v141h8v-149h-308l113 322l-90 -27l-2 8l95 29l116 329h-203v-141h-8v149h299l-106 -308l93 28l85 -86l39 12v347h-60v8h326z" />
    <glyph glyph-name="z_h" unicode="Zh" horiz-adv-x="870" 
d="M785 6h60v-8h-204v8h60v370l-160 -48v-322h60v-8h-204v8h60v297l-41 -12l-85 86l-94 -28l-118 -343h208v141h8v-149h-308l113 322l-90 -27l-2 8l95 29l116 329h-203v-141h-8v149h299l-106 -308l93 28l85 -86l39 12v347h-60v8h204v-8h-60v-322l160 48v274h-60v8h204v-8
h-60z" />
    <glyph glyph-name="z_z" unicode="Zz" horiz-adv-x="748" 
d="M493 8h208v141h8v-149h-308l113 322l-90 -27l-92 84l-95 -28l-118 -343h208v141h8v-149h-308l113 322l-90 -27l-2 8l95 29l116 329h-203v-141h-8v149h299l-106 -308l93 28l92 -84l91 27l116 329h-203v-141h-8v149h299l-106 -308l93 28l2 -8l-99 -30z" />
    <glyph glyph-name=".notdef" horiz-adv-x="487" 
d="M428 668v-668h-368v668h368zM305 614l-63 -262l-64 262l-8 -2l68 -278l-68 -278l8 -2l64 263l63 -263l8 2l-67 278l67 278z" />
    <glyph glyph-name=".null" horiz-adv-x="0" 
 />
    <glyph glyph-name="nonmarkingreturn" horiz-adv-x="333" 
 />
    <glyph glyph-name="space" unicode=" " horiz-adv-x="200" 
 />
    <glyph glyph-name="exclam" unicode="!" horiz-adv-x="170" 
d="M94 672v-516h-8v516h8zM130 34q0 -17 -11.5 -28.5t-28.5 -11.5t-28.5 11.5t-11.5 28.5t11.5 28.5t28.5 11.5t28.5 -11.5t11.5 -28.5z" />
    <glyph glyph-name="quotedbl" unicode="&#x22;" horiz-adv-x="241" 
d="M94 519h-8v153h8v-153zM155 519h-8v153h8v-153z" />
    <glyph glyph-name="numbersign" unicode="#" horiz-adv-x="316" 
d="M306 300l-75 -22v-278h-8v276l-131 -39v-237h-8v234l-72 -22l-2 8l74 22v153l-72 -22l-2 8l74 22v264h8v-261l131 39v222h8v-220l73 22l2 -8l-75 -22v-153l73 22zM223 283v153l-131 -39v-153z" />
    <glyph glyph-name="dollar" unicode="$" horiz-adv-x="383" 
d="M196 405l29 -36q31 -38 54 -68.5t38 -57t22 -50t7 -47.5q0 -32 -12 -60t-33 -49t-49 -33t-60 -12h-1v-93h-8v93q-30 2 -56.5 14.5t-46 33.5t-31 48t-11.5 58h8q0 -50 29.5 -88t74.5 -52q16 -5 33 -3v289l-22 28q-31 39 -53 68.5t-36.5 54t-21 46t-6.5 44.5q0 30 11.5 56
t31 45.5t45.5 31t56 11.5v92h8v-92q45 -2 79 -29t48 -68v93h8v-153h-8v13q0 27 -10 51t-27.5 42t-40.5 29t-50 13zM188 668q-35 0 -59.5 -24.5t-24.5 -59.5q0 -19 4 -36.5t14 -37t26 -42.5t40 -53v253zM191 2q18 3 34 11.5t28 21.5t19.5 30t7.5 37q0 19 -4 36.5t-14.5 38
t-27.5 45.5t-43 59v-279z" />
    <glyph glyph-name="percent" unicode="%" horiz-adv-x="585" 
d="M491 771l-402 -877l-7 3l402 877zM38 557q0 29 8 50q12 31 40 50.5t63 19.5q23 0 43 -9t35 -24t24 -35t9 -43v-120q0 -23 -9 -43t-24 -35t-35 -24t-43 -9q-39 0 -68.5 23.5t-38.5 59.5q-2 7 -2.5 16t-0.5 30zM102 438q0 -18 0.5 -28t2.5 -15q7 -20 24.5 -33t40.5 -13
q19 0 33 8q23 14 36.5 37t13.5 51v120q0 29 -13.5 52.5t-36.5 36.5q-14 8 -33 8q-21 0 -38 -11t-25 -29q-6 -14 -6 -37zM322 215q0 29 8 50q12 31 40 50.5t63 19.5q23 0 43 -9t35 -24t24 -35t9 -43v-120q0 -23 -9 -43t-24 -35t-35 -24t-43 -9q-39 0 -68.5 23.5t-38.5 59.5
q-2 7 -2.5 16t-0.5 30zM386 96q0 -18 0.5 -28t2.5 -15q7 -20 24.5 -33t40.5 -13q19 0 33 8q23 14 36.5 37t13.5 52v120q0 28 -13.5 51.5t-36.5 36.5q-14 8 -33 8q-21 0 -38 -11t-25 -29q-6 -14 -6 -37z" />
    <glyph glyph-name="ampersand" unicode="&#x26;" horiz-adv-x="417" 
d="M362 408v-259q0 -33 -12.5 -61.5t-33.5 -49.5t-49.5 -33.5t-61.5 -12.5q-49 0 -87.5 26t-56.5 68q-6 14 -9.5 33t-3.5 53v13q0 29 2 44.5t7 28.5q12 34 37.5 59.5t60.5 36.5q-24 31 -41 55.5t-27.5 45t-15.5 39t-5 38.5q0 30 11.5 56t31 45.5t45.5 31t56 11.5
q48 0 84.5 -27.5t51.5 -69.5v93h8v-153h-8v13q0 28 -10.5 53t-29 43.5t-43.5 29t-53 10.5q-35 0 -59.5 -24.5t-24.5 -59.5q0 -23 6 -43.5t20 -44.5t37 -54.5t58 -72.5l107 -129v166l-56 -17l-2 8l119 35l2 -8zM131 127q0 -26 2 -38.5t6 -20.5q11 -27 35.5 -44t55.5 -17
q26 0 47 12q27 14 46 39t27 55l-189 234q-13 -8 -21 -22t-8 -34z" />
    <glyph glyph-name="quotesingle" unicode="'" horiz-adv-x="180" 
d="M94 519h-8v153h8v-153z" />
    <glyph glyph-name="parenleft" unicode="(" horiz-adv-x="177" 
d="M158 769q-48 -48 -74.5 -112t-28.5 -137q-5 -185 0 -369q2 -73 28.5 -137t74.5 -112l-6 -6q-49 49 -76 114.5t-29 140.5q-5 184 0 369q2 75 29 140t76 114z" />
    <glyph glyph-name="parenright" unicode=")" horiz-adv-x="177" 
d="M26 773q49 -49 76 -114t29 -140q4 -185 0 -369q-2 -75 -29 -140.5t-76 -114.5l-6 6q48 48 74.5 112t28.5 137q4 184 0 369q-2 73 -28.5 137t-74.5 112z" />
    <glyph glyph-name="asterisk" unicode="*" horiz-adv-x="197" 
d="M150 524l-6 -5l-45 61l-45 -61l-6 5l45 61l-72 23l2 8l72 -23v76h8v-76l72 23l2 -8l-72 -23z" />
    <glyph glyph-name="plus" unicode="+" horiz-adv-x="335" 
d="M172 341v-177h-8v175l-142 -43l-2 8l144 43v155h8v-153l142 42l2 -8z" />
    <glyph glyph-name="comma" unicode="," horiz-adv-x="146" 
d="M105 3q-11 -9 -25 -9q-17 0 -28.5 11.5t-11.5 28.5t11.5 28.5t28.5 11.5t28.5 -11.5t11.5 -28.5q0 -5 -2 -13l-24 -99l-8 2z" />
    <glyph glyph-name="hyphen" unicode="-" horiz-adv-x="335" 
d="M313 389l2 -8l-294 -87l-2 8z" />
    <glyph glyph-name="period" unicode="." horiz-adv-x="146" 
d="M120 34q0 -17 -11.5 -28.5t-28.5 -11.5t-28.5 11.5t-11.5 28.5t11.5 28.5t28.5 11.5t28.5 -11.5t11.5 -28.5z" />
    <glyph glyph-name="slash" unicode="/" horiz-adv-x="236" 
d="M225 772l-212 -878l-8 2l212 878z" />
    <glyph glyph-name="zero" unicode="0" horiz-adv-x="417" 
d="M373 149q0 -33 -12.5 -61.5t-33.5 -49.5t-49.5 -33.5t-61.5 -12.5q-51 0 -91 29t-57 74q-5 13 -7 30t-2 53v312q0 35 2 52.5t7 30.5q17 45 57 74t91 29q33 0 61.5 -12.5t49.5 -33.5t33.5 -49.5t12.5 -61.5v-370zM143 130q0 -32 3.5 -49.5t11.5 -28.5q14 -20 35.5 -32.5
t47.5 -12.5t47 12q35 19 56 53t21 77v370q0 42 -21 76.5t-56 53.5q-21 12 -47 12t-47.5 -12.5t-34.5 -32.5q-8 -11 -12 -28.5t-4 -49.5v-408z" />
    <glyph glyph-name="one" unicode="1" horiz-adv-x="267" 
d="M243 0h-204v8h60v480l-56 -125l-7 3l138 310h9v-668h60v-8z" />
    <glyph glyph-name="two" unicode="2" horiz-adv-x="359" 
d="M316 150v-149h-297l228 507q11 23 14.5 40t3.5 32q0 18 -7 34t-19.5 28t-28.5 19.5t-34 7.5q-30 0 -56.5 -11.5t-46 -31t-31 -46t-11.5 -56.5q0 -45 23.5 -80.5t61.5 -52.5l-3 -7q-10 4 -25.5 14.5t-29.5 27.5t-24.5 41.5t-10.5 55.5t12 59t33 49t48.5 33t59.5 12
q31 0 59 -12t49 -33t33 -49t12 -59q0 -21 -8.5 -45.5t-23.5 -56.5l-182 -413h194v141z" />
    <glyph glyph-name="three" unicode="3" horiz-adv-x="367" 
d="M189 328q20 -14 39.5 -27.5t39.5 -27.5q32 -23 49 -57t17 -70q0 -32 -12 -60t-33 -49t-49 -33t-60 -12t-60 12t-49 33t-33 49t-12 60h8q0 -30 11.5 -57t31 -46.5t46.5 -31t57 -11.5t57 11.5t46.5 31t31 46.5t11.5 57q0 35 -16 66.5t-46 53.5q-37 27 -74 52t-73 50
l131 292h-200v-141h-8v149h300z" />
    <glyph glyph-name="four" unicode="4" horiz-adv-x="349" 
d="M325 8v-8h-204v8h60v141h-168l243 527h9v-510l53 118l7 -3l-60 -134v-139h60zM181 494l-155 -337h155v337z" />
    <glyph glyph-name="five" unicode="5" horiz-adv-x="363" 
d="M274 284q23 -28 38.5 -51t20.5 -43q6 -21 6 -42q0 -32 -12.5 -60.5t-34 -49.5t-50 -33.5t-60.5 -12.5q-33 0 -61.5 12.5t-49.5 34t-33.5 50t-12.5 60.5h8q0 -31 11.5 -58t32 -47.5t47.5 -32t58 -11.5q20 0 40 6q17 5 31 17t22.5 27t11 33t-1.5 35q-4 14 -12 29.5
t-25 35.5l-210 262v223h273v-149h-8v141h-257v-97z" />
    <glyph glyph-name="six" unicode="6" horiz-adv-x="374" 
d="M160 357q13 3 27 3q32 0 60 -12t49 -33t33 -49t12 -60v-60q0 -32 -12 -60t-33 -49t-49 -33t-60 -12q-27 0 -49 7.5t-39 19.5t-30 26.5t-20 28.5q-21 43 -21 87q0 45 18 104l126 403h85zM332 209q0 60 -42 102t-102 42q-15 0 -30 -3l-60 -193q-8 -25 -9.5 -42.5t0.5 -32.5
q5 -35 34.5 -57t65.5 -22q60 0 102 42t42 102z" />
    <glyph glyph-name="seven" unicode="7" horiz-adv-x="363" 
d="M60 0l207 660h-215v-141h-8v149h310l-209 -668h-85z" />
    <glyph glyph-name="eight" unicode="8" 
d="M219 370q32 -38 55.5 -69t39 -57.5t23.5 -50t9 -47.5q0 -32 -12 -60t-33 -49t-49 -33t-60 -12t-60 12t-49 33t-33 49t-12 60q0 31 12 58t32 49q16 17 33.5 35t35.5 35q-29 37 -50.5 65.5t-35.5 53t-21 47t-8 48.5q0 29 11.5 54.5t31.5 44t46 29.5t55 11q30 0 56 -11.5
t45.5 -31t31 -45.5t11.5 -56q0 -25 -10.5 -47.5t-26.5 -40.5q-17 -20 -34 -37.5t-34 -34.5v-2zM179 668q-38 0 -62.5 -24.5t-23.5 -59.5q0 -14 3 -29t14.5 -37.5t35.5 -55.5t66 -84l34 34t34 37q15 17 25 38t10 45q0 28 -10.5 53t-29 43.5t-43.5 29t-53 10.5zM46 146
q0 -50 29.5 -88t74.5 -52q25 -7 48.5 -2.5t42.5 18t30 34t10 46.5q0 20 -7.5 41t-23 46.5t-39 56.5t-55.5 71q-18 -17 -35.5 -35t-33.5 -35q-18 -20 -29.5 -46t-11.5 -55z" />
    <glyph glyph-name="nine" unicode="9" horiz-adv-x="356" 
d="M16 521q0 32 12 60t33 49t49 33t60 12q26 0 48 -7.5t39 -19.5t29.5 -26.5t20.5 -28.5q22 -44 22 -91q0 -23 -5 -47t-14 -52l-126 -403h-85l97 313q-14 -3 -27 -3q-32 0 -59.5 12t-48.5 33t-33 48.5t-12 59.5v58zM259 512q8 25 9.5 42.5t-0.5 32.5q-4 35 -33.5 57
t-66.5 22q-61 0 -102 -43q-42 -42 -42 -102v-60q0 -29 11 -55.5t32 -46.5q41 -43 102 -43q15 0 30 3z" />
    <glyph glyph-name="colon" unicode=":" horiz-adv-x="146" 
d="M120 344q0 -17 -11.5 -28.5t-28.5 -11.5t-28.5 11.5t-11.5 28.5t11.5 28.5t28.5 11.5t28.5 -11.5t11.5 -28.5zM120 34q0 -17 -11.5 -28.5t-28.5 -11.5t-28.5 11.5t-11.5 28.5t11.5 28.5t28.5 11.5t28.5 -11.5t11.5 -28.5z" />
    <glyph glyph-name="semicolon" unicode=";" horiz-adv-x="146" 
d="M120 344q0 -17 -11.5 -28.5t-28.5 -11.5t-28.5 11.5t-11.5 28.5t11.5 28.5t28.5 11.5t28.5 -11.5t11.5 -28.5zM105 3q-11 -9 -25 -9q-17 0 -28.5 11.5t-11.5 28.5t11.5 28.5t28.5 11.5t28.5 -11.5t11.5 -28.5q0 -5 -2 -13l-24 -99l-8 2z" />
    <glyph glyph-name="less" unicode="&#x3c;" horiz-adv-x="335" 
d="M20 348l294 87l2 -8l-281 -83l281 -83l-2 -8l-294 87v8z" />
    <glyph glyph-name="equal" unicode="=" horiz-adv-x="335" 
d="M314 435l2 -8l-294 -87l-2 8zM314 348l2 -8l-294 -87l-2 8z" />
    <glyph glyph-name="greater" unicode="&#x3e;" horiz-adv-x="335" 
d="M316 340l-294 -87l-2 8l281 83l-281 83l2 8l294 -87v-8z" />
    <glyph glyph-name="question" unicode="?" horiz-adv-x="356" 
d="M115 384q-40 18 -65 55t-25 84q0 31 12 59t33 49t48.5 33t59.5 12q31 0 59 -12t49 -33t33 -49t12 -59q0 -21 -8.5 -45.5t-23.5 -56.5l-117 -265h-8l-42 96l118 255q10 23 13.5 40t3.5 32q0 18 -7 34t-19.5 28t-28.5 19.5t-34 7.5q-30 0 -56.5 -11.5t-46 -31t-31 -46
t-11.5 -56.5q0 -45 23.5 -80t61.5 -52zM178 74q17 0 28.5 -11.5t11.5 -28.5t-11.5 -28.5t-28.5 -11.5t-28.5 11.5t-11.5 28.5t11.5 28.5t28.5 11.5z" />
    <glyph glyph-name="at" unicode="@" horiz-adv-x="453" 
d="M57 500q0 36 14 68t37.5 55.5t55.5 37.5t68 14t68 -14t55.5 -37.5t37.5 -55.5t14 -68v-238q0 -24 -2 -36t-5 -18q-8 -17 -24 -26.5t-36 -9.5q-24 0 -42 14.5t-23 37.5q-10 -23 -30.5 -37.5t-46.5 -14.5q-35 0 -59 24t-24 59q0 28 16.5 49.5t41.5 29.5l100 30v63
q0 16 -1 23t-3 12q-7 17 -21.5 27t-33.5 10q-18 0 -35 -12l-3 -2q-16 -13 -25 -31.5t-9 -40.5h-8v97h8v-58q12 28 36.5 45t56.5 17t57.5 -17.5t36.5 -46.5q3 -8 5 -18t2 -30v-174q0 -14 1.5 -19t3.5 -8q9 -12 23 -12q10 0 17.5 7t12.5 16q3 5 5 16t2 35v238q0 33 -12.5 63.5
t-36.5 54.5t-54.5 36.5t-63.5 12.5t-63.5 -12.5t-54.5 -36.5t-36.5 -54.5t-12.5 -63.5v-330q0 -33 12.5 -63.5t36.5 -54.5t54.5 -36.5t63.5 -12.5t63.5 12.5t54.5 36.5q39 39 47 93h8q-5 -32 -20 -59t-38 -47.5t-52.5 -32t-62.5 -11.5q-36 0 -68 14t-55.5 37.5t-37.5 55.5
t-14 68zM273 355l-97 -29q-23 -7 -38 -26.5t-15 -44.5q0 -31 21.5 -53t53.5 -22q31 0 53 22t22 53v100z" />
    <glyph glyph-name="A" unicode="A" 
d="M404 8v-8h-137l-122 503l-51 -212l70 -291h-202v8h55l162 668h8l165 -668h52zM90 274l-64 -266h128z" />
    <glyph glyph-name="B" unicode="B" horiz-adv-x="408" 
d="M342 279q48 -48 48 -116t-48 -116q-46 -46 -113 -48h-205v8h60v652h-60v8h144v-9q25 9 53 9q32 0 60.5 -11.5t51.5 -34.5t34.5 -52t11.5 -59t-11.5 -59t-34.5 -52l-55 -55zM227 10q65 0 110 45t45 110t-45 110l-65 65l-67 -67v145l67 -67l55 55q22 22 33 49t11 56t-11 56
t-33 49q-44 44 -106 44q-29 0 -54 -9v-643zM214 293l53 53l-53 53v-106z" />
    <glyph glyph-name="C" unicode="C" horiz-adv-x="395" 
d="M367 146q0 -32 -12 -60t-33 -49t-49 -33t-60 -12q-51 0 -90 29t-55 74q-5 12 -7 29.5t-2 53.5v323q0 33 3.5 52.5t8.5 32.5q17 40 53.5 65t82.5 25q49 0 87 -28t53 -72v96h8v-153h-8v9q0 38 -18 69t-48 50q-19 11 -45 11t-47 -12.5t-33 -33.5q-6 -11 -9.5 -25t-3.5 -39
v-418q0 -32 4.5 -49.5t11.5 -28.5q13 -20 33.5 -32.5t46.5 -12.5q13 0 24.5 3.5t21.5 8.5q33 19 53.5 52.5t20.5 74.5h8z" />
    <glyph glyph-name="D" unicode="D" horiz-adv-x="433" 
d="M379 396q20 -2 34.5 -17t14.5 -36t-14.5 -36t-34.5 -17v-134q0 -32 -12.5 -60.5t-34 -49.5t-50 -33.5t-60.5 -12.5h-198v8h60v652h-60v8h144v-9q25 9 53 9q33 0 61.5 -12.5t50 -34t34 -50t12.5 -61.5v-114zM223 10q62 0 105 43q44 44 44 104v134q-20 2 -34.5 17t-14.5 36
t14.5 36t34.5 17v114q0 31 -12 58.5t-32 47.5t-47.5 32t-58.5 12q-26 0 -51 -9l-3 -1v-643zM376 300q19 0 32 13t13 32t-13 32t-32 13t-32 -13t-13 -32t13 -32t32 -13z" />
    <glyph glyph-name="E" unicode="E" 
d="M342 518v141h-174v-322l166 50l2 -8l-168 -50v-322h174v141h8v-149h-326v8h60v297l-41 -12l-2 8l43 13v347h-60v8h326v-149z" />
    <glyph glyph-name="F" unicode="F" horiz-adv-x="379" 
d="M350 667v-149h-8v141h-174v-322l166 50l2 -8l-168 -50v-322h60v-8h-204v8h60v297l-41 -12l-2 8l43 13v347h-60v8z" />
    <glyph glyph-name="G" unicode="G" horiz-adv-x="408" 
d="M373 148q0 -33 -12.5 -61.5t-33.5 -49.5t-49.5 -33.5t-61.5 -12.5q-51 0 -91 29t-57 74q-5 13 -7 30t-2 53v312q0 36 2 53.5t7 29.5q16 45 55 74t89 29q51 0 90.5 -29.5t54.5 -74.5v100h8v-153h-8v4q0 40 -20 73t-52 52q-21 12 -46 12q-26 0 -46.5 -12t-34.5 -32
q-8 -11 -11.5 -27t-3.5 -51v-408q0 -32 3.5 -49.5t11.5 -28.5q14 -20 35.5 -32.5t47.5 -12.5t47 12q35 19 56 53.5t21 76.5v193l-113 -30l-2 8l123 33v-204z" />
    <glyph glyph-name="H" unicode="H" horiz-adv-x="496" 
d="M412 7h60v-8h-204v8h60v370l-160 -48v-322h60v-8h-204v8h60v297l-41 -12l-2 8l43 13v347h-60v8h204v-8h-60v-322l160 48v274h-60v8h204v-8h-60v-653z" />
    <glyph glyph-name="I" unicode="I" horiz-adv-x="252" 
d="M168 8h60v-8h-204v8h60v652h-60v8h204v-8h-60v-652z" />
    <glyph glyph-name="J" unicode="J" horiz-adv-x="405" 
d="M324 660v-484q0 -41 -2.5 -58t-6.5 -29q-15 -42 -53 -69.5t-86 -27.5q-31 0 -58 11.5t-47 31.5t-31.5 47t-11.5 58h8q0 -25 9 -48.5t24 -41.5t35 -28.5t42 -10.5q28 0 50.5 15t34.5 38q5 9 7 22t2 40v534h-192v-141h-8v149h344v-8h-60z" />
    <glyph glyph-name="K" unicode="K" horiz-adv-x="441" 
d="M228 8v-8h-204v8h60v652h-60v8h204v-8h-60v-652h60zM466 0h-138l-122 331l142 329h-59v8h128v-8h-60l-101 -233l159 -419h51v-8z" />
    <glyph glyph-name="L" unicode="L" horiz-adv-x="367" 
d="M348 0h-324v8h60v652h-60v8h204v-8h-60v-652h172v141h8v-149z" />
    <glyph glyph-name="M" unicode="M" horiz-adv-x="566" 
d="M482 8h60v-8h-204v8h60v415l-146 -423h-8l-158 433v-425h60v-8h-128v8h60v652h-60v8h68l201 -543l187 543h68v-8h-60v-652z" />
    <glyph glyph-name="N" unicode="N" horiz-adv-x="442" 
d="M427 660h-60v-668h-8l-273 508v-492h60v-8h-128v8h60v652h-60v8h68l273 -502v494h-60v8h128v-8z" />
    <glyph glyph-name="O" unicode="O" horiz-adv-x="427" 
d="M373 397q20 -2 34.5 -17t14.5 -36t-14.5 -36t-34.5 -17v-142q0 -33 -12.5 -61.5t-33.5 -49.5t-49.5 -33.5t-61.5 -12.5q-51 0 -91 29t-57 74q-5 13 -7 30t-2 53v312q0 35 2 52.5t7 30.5q17 45 57 74t91 29q33 0 61.5 -12.5t49.5 -33.5t33.5 -49.5t12.5 -61.5v-122z
M143 130q0 -32 3.5 -49.5t11.5 -28.5q14 -20 35.5 -32.5t47.5 -12.5t47 12q35 19 56 53t21 77v142q-20 2 -34.5 17t-14.5 36t14.5 36t34.5 17v122q0 42 -21 76.5t-56 53.5q-21 12 -47 12t-47.5 -12.5t-34.5 -32.5q-8 -11 -12 -28.5t-4 -49.5v-408zM369 299q19 0 32 13t13 32
t-13 32t-32 13t-32 -13t-13 -32t13 -32t32 -13z" />
    <glyph glyph-name="P" unicode="P" horiz-adv-x="400" 
d="M166 658q30 11 60 11q37 0 68 -14.5t54 -38.5t34 -53.5t11 -60.5q0 -33 -13.5 -64.5t-39.5 -56.5l-132 -123l-5 6l132 123q26 25 38 55.5t12 60.5q0 62 -42 107q-22 23 -51 36.5t-64 13.5q-32 0 -60 -12v-640h60v-8h-204v8h60v652h-60v8h144z" />
    <glyph glyph-name="Q" unicode="Q" horiz-adv-x="420" 
d="M471 -36q0 -35 -25 -60t-60 -25t-60 25t-25 60v52q-23 -14 -45.5 -19.5t-39.5 -5.5q-51 0 -91 29t-57 74q-5 13 -7 30t-2 53v312q0 35 2 52.5t7 30.5q17 45 57 74t91 29q33 0 61.5 -12.5t49.5 -33.5t33.5 -49.5t12.5 -61.5v-370q0 -39 -17.5 -72.5t-46.5 -53.5v-57
q0 -32 22.5 -54.5t54.5 -22.5t54.5 22.5t22.5 54.5zM143 102q8 26 30 42.5t51 16.5q35 0 60 -25t25 -60v-45q26 20 41 50.5t15 66.5v370q0 42 -21 76.5t-56 53.5q-21 12 -47 12t-47.5 -12.5t-34.5 -32.5q-8 -11 -12 -28.5t-4 -49.5v-435zM302 76q0 32 -22.5 54.5t-54.5 22.5
t-54.5 -22.5t-22.5 -54.5t22.5 -54.5t54.5 -22.5q14 0 34.5 6.5t41.5 20.5z" />
    <glyph glyph-name="R" unicode="R" horiz-adv-x="439" 
d="M465 1h-138l-122 283l126 117q24 23 36 51.5t12 58.5q0 28 -10 54.5t-30 48.5q-27 29 -57 38t-53 9q-31 0 -61 -14v-639h60v-8h-204v8h60v652h-60v8h144v-12q28 12 61 12q23 0 55 -10t61 -41q21 -23 31.5 -51t10.5 -57q0 -32 -12.5 -62t-37.5 -53l-64 -60l142 -326h51z
" />
    <glyph glyph-name="S" unicode="S" horiz-adv-x="383" 
d="M323 532q0 28 -10.5 53t-29 43.5t-43.5 29t-53 10.5q-35 0 -59.5 -24.5t-24.5 -59.5q0 -23 6 -43.5t20 -44.5t37 -54.5t58 -72.5q31 -38 54 -68.5t38 -57t22 -50t7 -47.5q0 -32 -12 -60t-33 -49t-49 -33t-60 -12t-60 12t-49 33t-33 49t-12 60h8q0 -50 29.5 -88t74.5 -52
q23 -7 46 -2.5t42 18t30.5 34t11.5 46.5q0 21 -5.5 41t-19 44.5t-36.5 56t-58 75.5q-31 39 -53 68.5t-36.5 54t-21 46t-6.5 44.5q0 30 11.5 56t31 45.5t45.5 31t56 11.5q48 0 84.5 -27.5t51.5 -69.5v93h8v-153h-8v13z" />
    <glyph glyph-name="T" unicode="T" horiz-adv-x="420" 
d="M387 519h-8v141h-127v-652h60v-8h-204v8h60v652h-127v-141h-8v149h354v-149z" />
    <glyph glyph-name="U" unicode="U" horiz-adv-x="462" 
d="M389 660v-263q20 -2 34.5 -17t14.5 -36t-14.5 -36t-34.5 -17v-145q0 -32 -12 -60t-33 -49t-49 -33t-60 -12q-51 0 -90 29t-55 74q-5 12 -7 29.5t-2 53.5v482h-60v8h204v-8h-60v-532q0 -30 4 -47.5t11 -28.5q13 -20 34 -32.5t47 -12.5q13 0 24.5 3.5t21.5 8.5
q33 19 53.5 52.5t20.5 74.5v145q-20 2 -34.5 17t-14.5 36t14.5 36t34.5 17v263h-60v8h128v-8h-60zM430 344q0 19 -13 32t-32 13t-32 -13t-13 -32t13 -32t32 -13t32 13t13 32z" />
    <glyph glyph-name="V" unicode="V" horiz-adv-x="401" 
d="M368 661l-161 -668h-8l-160 668h-56v8h137l122 -497l53 220l-66 276h199v-8zM239 661l60 -251l61 251h-121z" />
    <glyph glyph-name="W" unicode="W" horiz-adv-x="574" 
d="M601 660h-59l-162 -668h-8l-82 343l-83 -343h-8l-160 668h-56v8h406l-48 -197l74 -300l118 489h-60v8h128v-8zM286 352l-74 308h-90l120 -489zM295 660l42 -172l42 172h-84z" />
    <glyph glyph-name="X" unicode="X" horiz-adv-x="436" 
d="M434 7v-8h-138l-97 286l-104 -278h59v-8h-128v8h60l109 290l-123 362h-56v8h138l94 -274l41 110l-57 165h179v-8h-55l-105 -278l129 -374zM294 514l54 145h-104z" />
    <glyph glyph-name="Y" unicode="Y" horiz-adv-x="409" 
d="M426 668v-8h-57l-117 -372v-280h60v-8h-204v8h60v278l-128 374h-57v8h139l126 -367l51 163l-70 204h197zM360 660h-120l63 -183z" />
    <glyph glyph-name="Z" unicode="Z" horiz-adv-x="374" 
d="M119 8h208v141h8v-149h-308l113 322l-90 -27l-2 8l95 29l116 329h-203v-141h-8v149h299l-106 -308l93 28l2 -8l-99 -30z" />
    <glyph glyph-name="bracketleft" unicode="[" horiz-adv-x="177" 
d="M68 -98h112v-8h-120v880h120v-8h-112v-864z" />
    <glyph glyph-name="backslash" unicode="\" horiz-adv-x="235" 
d="M13 774l212 -878l-8 -2l-212 878z" />
    <glyph glyph-name="bracketright" unicode="]" horiz-adv-x="177" 
d="M117 -106h-120v8h112v864h-112v8h120v-880z" />
    <glyph glyph-name="asciicircum" unicode="^" horiz-adv-x="124" 
d="M62 655l-37 -154l-8 2l41 169h8l41 -169l-8 -2z" />
    <glyph glyph-name="underscore" unicode="_" horiz-adv-x="250" 
d="M1 -76v8h248v-8h-248z" />
    <glyph glyph-name="grave" unicode="`" horiz-adv-x="100" 
d="M42 724l-22 90l8 2l22 -90z" />
    <glyph glyph-name="a" unicode="a" 
d="M404 0h-137l-122 503l-51 -212l70 -291h-202v8h55l162 668h8l165 -668h52v-8zM26 8h128l-64 266z" />
    <glyph glyph-name="b" unicode="b" horiz-adv-x="408" 
d="M342 279q48 -48 48 -116t-48 -116q-46 -46 -113 -48h-205v8h60v652h-60v8h144v-9q25 9 53 9q32 0 60.5 -11.5t51.5 -34.5t34.5 -52t11.5 -59t-11.5 -59t-34.5 -52l-55 -55zM227 10q65 0 110 45t45 110t-45 110l-65 65l-67 -67v145l67 -67l55 55q22 22 33 49t11 56t-11 56
t-33 49q-44 44 -106 44q-29 0 -54 -9v-643zM267 346l-53 53v-106z" />
    <glyph glyph-name="c" unicode="c" horiz-adv-x="395" 
d="M367 146q0 -32 -12 -60t-33 -49t-49 -33t-60 -12q-51 0 -90 29t-55 74q-5 12 -7 29.5t-2 53.5v323q0 33 3.5 52.5t8.5 32.5q17 40 53.5 65t82.5 25q49 0 87 -28t53 -72v96h8v-153h-8v9q0 38 -18 69t-48 50q-19 11 -45 11t-47 -12.5t-33 -33.5q-6 -11 -9.5 -25t-3.5 -39
v-418q0 -32 4.5 -49.5t11.5 -28.5q13 -20 33.5 -32.5t46.5 -12.5q13 0 24.5 3.5t21.5 8.5q33 19 53.5 52.5t20.5 74.5h8z" />
    <glyph glyph-name="d" unicode="d" horiz-adv-x="433" 
d="M379 396q20 -2 34.5 -17t14.5 -36t-14.5 -36t-34.5 -17v-134q0 -32 -12.5 -60.5t-34 -49.5t-50 -33.5t-60.5 -12.5h-198v8h60v652h-60v8h144v-9q25 9 53 9q33 0 61.5 -12.5t50 -34t34 -50t12.5 -61.5v-114zM223 10q62 0 105 43q44 44 44 104v134q-20 2 -34.5 17t-14.5 36
t14.5 36t34.5 17v114q0 31 -12 58.5t-32 47.5t-47.5 32t-58.5 12q-26 0 -51 -9l-3 -1v-643zM376 300q19 0 32 13t13 32t-13 32t-32 13t-32 -13t-13 -32t13 -32t32 -13z" />
    <glyph glyph-name="e" unicode="e" 
d="M342 659h-174v-322l166 50l2 -8l-168 -50v-322h174v141h8v-149h-326v8h60v297l-41 -12l-2 8l43 13v347h-60v8h326v-149h-8v140z" />
    <glyph glyph-name="f" unicode="f" horiz-adv-x="379" 
d="M350 518h-8v141h-174v-322l166 50l2 -8l-168 -50v-322h60v-8h-204v8h60v297l-41 -12l-2 8l43 13v347h-60v8h326v-150z" />
    <glyph glyph-name="g" unicode="g" horiz-adv-x="408" 
d="M373 148q0 -33 -12.5 -61.5t-33.5 -49.5t-49.5 -33.5t-61.5 -12.5q-51 0 -91 29t-57 74q-5 13 -7 30t-2 53v312q0 36 2 53.5t7 29.5q16 45 55 74t89 29q51 0 90.5 -29.5t54.5 -74.5v100h8v-153h-8v4q0 40 -20 73t-52 52q-21 12 -46 12q-26 0 -46.5 -12t-34.5 -32
q-8 -11 -11.5 -27t-3.5 -51v-408q0 -32 3.5 -49.5t11.5 -28.5q14 -20 35.5 -32.5t47.5 -12.5t47 12q35 19 56 53.5t21 76.5v193l-113 -30l-2 8l123 33v-204z" />
    <glyph glyph-name="h" unicode="h" horiz-adv-x="496" 
d="M472 7v-8h-204v8h60v370l-160 -48v-322h60v-8h-204v8h60v297l-41 -12l-2 8l43 13v347h-60v8h204v-8h-60v-322l160 48v274h-60v8h204v-8h-60v-652z" />
    <glyph glyph-name="i" unicode="i" horiz-adv-x="252" 
d="M228 8v-8h-204v8h60v652h-60v8h204v-8h-60v-652h60z" />
    <glyph glyph-name="j" unicode="j" horiz-adv-x="405" 
d="M324 176q0 -41 -2.5 -58t-6.5 -29q-15 -42 -53 -69.5t-86 -27.5q-31 0 -58 11.5t-47 31.5t-31.5 47t-11.5 58h8q0 -25 9 -48.5t24 -41.5t35 -28.5t42 -10.5q28 0 50.5 15t34.5 38q5 9 7 22t2 40v534h-192v-141h-8v149h344v-8h-60v-484z" />
    <glyph glyph-name="k" unicode="k" horiz-adv-x="441" 
d="M228 0h-204v8h60v652h-60v8h204v-8h-60v-652h60v-8zM328 0l-122 331l142 329h-59v8h128v-8h-60l-101 -233l159 -419h51v-8h-138z" />
    <glyph glyph-name="l" unicode="l" horiz-adv-x="367" 
d="M24 0v8h60v652h-60v8h204v-8h-60v-652h172v141h8v-149h-324z" />
    <glyph glyph-name="m" unicode="m" horiz-adv-x="566" 
d="M542 8v-8h-204v8h60v415l-146 -423h-8l-158 433v-425h60v-8h-128v8h60v652h-60v8h68l201 -543l187 543h68v-8h-60v-652h60z" />
    <glyph glyph-name="n" unicode="n" horiz-adv-x="442" 
d="M367 660v-668h-8l-273 508v-492h60v-8h-128v8h60v652h-60v8h68l273 -502v494h-60v8h128v-8h-60z" />
    <glyph glyph-name="o" unicode="o" horiz-adv-x="427" 
d="M373 397q20 -2 34.5 -17t14.5 -36t-14.5 -36t-34.5 -17v-142q0 -33 -12.5 -61.5t-33.5 -49.5t-49.5 -33.5t-61.5 -12.5q-51 0 -91 29t-57 74q-5 13 -7 30t-2 53v312q0 35 2 52.5t7 30.5q17 45 57 74t91 29q33 0 61.5 -12.5t49.5 -33.5t33.5 -49.5t12.5 -61.5v-122z
M143 130q0 -32 3.5 -49.5t11.5 -28.5q14 -20 35.5 -32.5t47.5 -12.5t47 12q35 19 56 53t21 77v142q-20 2 -34.5 17t-14.5 36t14.5 36t34.5 17v122q0 42 -21 76.5t-56 53.5q-21 12 -47 12t-47.5 -12.5t-34.5 -32.5q-8 -11 -12 -28.5t-4 -49.5v-408zM369 299q19 0 32 13t13 32
t-13 32t-32 13t-32 -13t-13 -32t13 -32t32 -13z" />
    <glyph glyph-name="p" unicode="p" horiz-adv-x="400" 
d="M166 658q30 11 60 11q37 0 68 -14.5t54 -38.5t34 -53.5t11 -60.5q0 -33 -13.5 -64.5t-39.5 -56.5l-132 -123l-5 6l132 123q26 25 38 55.5t12 60.5q0 62 -42 107q-22 23 -51 36.5t-64 13.5q-32 0 -60 -12v-640h60v-8h-204v8h60v652h-60v8h144z" />
    <glyph glyph-name="q" unicode="q" horiz-adv-x="420" 
d="M471 -36q0 -35 -25 -60t-60 -25t-60 25t-25 60v52q-23 -14 -45.5 -19.5t-39.5 -5.5q-51 0 -91 29t-57 74q-5 13 -7 30t-2 53v312q0 35 2 52.5t7 30.5q17 45 57 74t91 29q33 0 61.5 -12.5t49.5 -33.5t33.5 -49.5t12.5 -61.5v-370q0 -39 -17.5 -72.5t-46.5 -53.5v-57
q0 -32 22.5 -54.5t54.5 -22.5t54.5 22.5t22.5 54.5zM143 102q8 26 30 42.5t51 16.5q35 0 60 -25t25 -60v-45q26 20 41 50.5t15 66.5v370q0 42 -21 76.5t-56 53.5q-21 12 -47 12t-47.5 -12.5t-34.5 -32.5q-8 -11 -12 -28.5t-4 -49.5v-435zM302 76q0 32 -22.5 54.5t-54.5 22.5
t-54.5 -22.5t-22.5 -54.5t22.5 -54.5t54.5 -22.5q14 0 34.5 6.5t41.5 20.5z" />
    <glyph glyph-name="r" unicode="r" horiz-adv-x="439" 
d="M327 1l-122 283l126 117q24 23 36 51.5t12 58.5q0 28 -10 54.5t-30 48.5q-27 29 -57 38t-53 9q-31 0 -61 -14v-639h60v-8h-204v8h60v652h-60v8h144v-12q28 12 61 12q23 0 55 -10t61 -41q21 -23 31.5 -51t10.5 -57q0 -32 -12.5 -62t-37.5 -53l-64 -60l142 -326h51v-8z" />
    <glyph glyph-name="s" unicode="s" horiz-adv-x="383" 
d="M323 532q0 28 -10.5 53t-29 43.5t-43.5 29t-53 10.5q-35 0 -59.5 -24.5t-24.5 -59.5q0 -23 6 -43.5t20 -44.5t37 -54.5t58 -72.5q31 -38 54 -68.5t38 -57t22 -50t7 -47.5q0 -32 -12 -60t-33 -49t-49 -33t-60 -12t-60 12t-49 33t-33 49t-12 60h8q0 -50 29.5 -88t74.5 -52
q23 -7 46 -2.5t42 18t30.5 34t11.5 46.5q0 21 -5.5 41t-19 44.5t-36.5 56t-58 75.5q-31 39 -53 68.5t-36.5 54t-21 46t-6.5 44.5q0 30 11.5 56t31 45.5t45.5 31t56 11.5q48 0 84.5 -27.5t51.5 -69.5v93h8v-153h-8v13z" />
    <glyph glyph-name="t" unicode="t" horiz-adv-x="420" 
d="M379 519v141h-127v-652h60v-8h-204v8h60v652h-127v-141h-8v149h354v-149h-8z" />
    <glyph glyph-name="u" unicode="u" horiz-adv-x="462" 
d="M389 397q20 -2 34.5 -17t14.5 -36t-14.5 -36t-34.5 -17v-145q0 -32 -12 -60t-33 -49t-49 -33t-60 -12q-51 0 -90 29t-55 74q-5 12 -7 29.5t-2 53.5v482h-60v8h204v-8h-60v-532q0 -30 4 -47.5t11 -28.5q13 -20 34 -32.5t47 -12.5q13 0 24.5 3.5t21.5 8.5q33 19 53.5 52.5
t20.5 74.5v145q-20 2 -34.5 17t-14.5 36t14.5 36t34.5 17v263h-60v8h128v-8h-60v-263zM430 344q0 19 -13 32t-32 13t-32 -13t-13 -32t13 -32t32 -13t32 13t13 32z" />
    <glyph glyph-name="v" unicode="v" horiz-adv-x="401" 
d="M207 -7h-8l-160 668h-56v8h137l122 -497l53 220l-66 276h199v-8h-60zM299 410l61 251h-121z" />
    <glyph glyph-name="w" unicode="w" horiz-adv-x="574" 
d="M542 660l-162 -668h-8l-82 343l-83 -343h-8l-160 668h-56v8h406l-48 -197l74 -300l118 489h-60v8h128v-8h-59zM212 661h-90l120 -489l44 180zM337 489l42 172h-84z" />
    <glyph glyph-name="x" unicode="x" horiz-adv-x="436" 
d="M434 -1h-138l-97 286l-104 -278h59v-8h-128v8h60l109 290l-123 362h-56v8h138l94 -274l41 110l-57 165h179v-8h-55l-105 -278l129 -374h53zM348 659h-104l50 -145z" />
    <glyph glyph-name="y" unicode="y" horiz-adv-x="409" 
d="M426 660h-57l-117 -372v-280h60v-8h-204v8h60v278l-128 374h-57v8h139l126 -367l51 163l-70 204h197v-8zM240 660l63 -183l58 183h-121z" />
    <glyph glyph-name="z" unicode="z" horiz-adv-x="374" 
d="M327 8v141h8v-149h-308l113 322l-90 -27l-2 8l95 29l116 329h-203v-141h-8v149h299l-106 -308l93 28l2 -8l-99 -30l-118 -343h208z" />
    <glyph glyph-name="braceleft" unicode="{" horiz-adv-x="177" 
d="M133 -106q-31 28 -48 66t-17 80q0 12 4.5 41.5t10 62.5t10 62t4.5 38q0 26 -12.5 47.5t-34.5 36.5v10q22 14 34.5 36.5t12.5 48.5q0 9 -4.5 38t-10 62.5t-10 63.5t-4.5 41q0 42 17 80t48 66l6 -6q-30 -27 -46.5 -63.5t-16.5 -76.5q0 -6 2 -22.5t5.5 -37.5t7 -44.5
t7 -44.5t5.5 -36t2 -20q0 -26 -12 -49.5t-35 -40.5q47 -34 47 -89q0 -7 -4.5 -36.5t-10 -64t-10 -65t-4.5 -38.5q0 -40 16.5 -77t46.5 -63z" />
    <glyph glyph-name="bar" unicode="|" horiz-adv-x="178" 
d="M93 774v-880h-8v880h8z" />
    <glyph glyph-name="braceright" unicode="}" horiz-adv-x="177" 
d="M38 -100q30 26 46.5 63t16.5 77q0 8 -4.5 38.5t-10 65t-10 64t-4.5 36.5q0 55 47 89q-23 17 -35 40.5t-12 49.5q0 5 2 20t5.5 36t7 44.5t7 44.5t5.5 37.5t2 22.5q0 40 -16.5 76.5t-46.5 63.5l6 6q31 -28 48 -66t17 -80q0 -11 -4.5 -41t-10 -63.5t-10 -62.5t-4.5 -38
q0 -26 12.5 -48.5t34.5 -36.5v-10q-22 -15 -34.5 -36.5t-12.5 -47.5q0 -9 4.5 -38t10 -62t10 -62.5t4.5 -41.5q0 -42 -17 -80t-48 -66z" />
    <glyph glyph-name="exclamdown" unicode="&#xa1;" horiz-adv-x="170" 
d="M50 636q0 17 11.5 28.5t28.5 11.5t28.5 -11.5t11.5 -28.5t-11.5 -28.5t-28.5 -11.5t-28.5 11.5t-11.5 28.5zM86 514h8v-516h-8v516z" />
    <glyph glyph-name="cent" unicode="&#xa2;" horiz-adv-x="318" 
d="M290 191q0 -43 -27 -74.5t-68 -38.5v-84h-8v83l-12 -1q-35 0 -62.5 18.5t-41.5 48.5q-5 11 -8 25.5t-3 41.5v249q0 24 1.5 36t5.5 21q12 32 40 52.5t64 20.5q11 0 16 -1v82h8v-84q27 -6 47.5 -23.5t31.5 -42.5v67h8v-115h-8v7q0 29 -13.5 52t-36.5 37q-13 7 -29 8v-485
q17 0 31 8q25 14 40.5 39t15.5 55zM122 180q0 -25 2 -36.5t7 -19.5q8 -14 22.5 -23.5t32.5 -11.5v485q-19 -2 -33.5 -11.5t-22.5 -24.5q-4 -8 -6 -18.5t-2 -33.5v-306z" />
    <glyph glyph-name="sterling" unicode="&#xa3;" horiz-adv-x="405" 
d="M367 519v16q0 36 -17 66t-46 47q-17 11 -42 11q-24 0 -43.5 -11.5t-30.5 -31.5q-5 -10 -8 -24t-3 -49v-204l167 49l2 -8l-169 -50v-143q0 -34 -1.5 -47.5t-3.5 -23.5q-11 -39 -38.5 -68.5t-68.5 -40.5h302v141h8v-149h-355v8q24 0 39 7t23 18q5 6 8 17t3 32v224l-41 -12
l-2 8l43 13v203q0 28 2.5 43.5t7.5 28.5q16 38 51 62.5t80 24.5q47 0 83.5 -27.5t49.5 -67.5v91h8v-153h-8z" />
    <glyph glyph-name="brokenbar" unicode="&#xa6;" horiz-adv-x="178" 
d="M93 774v-385h-8v385h8zM93 299v-405h-8v405h8z" />
    <glyph glyph-name="section" unicode="&#xa7;" horiz-adv-x="385" 
d="M317 531q0 28 -11 53t-29 43.5t-42 29t-50 10.5q-43 0 -69.5 -27t-26.5 -66q0 -18 7 -36t23 -39t42.5 -46t65.5 -56q19 -15 40 -33t39 -39t29.5 -46t11.5 -56q0 -26 -8 -48.5t-22 -39.5q16 -22 23 -43.5t7 -46.5q0 -33 -12 -61.5t-33 -49.5t-49 -33t-60 -12t-60 12
t-49 33t-33 49t-12 60h8q0 -32 11.5 -58t29.5 -44t39.5 -29t41.5 -13q25 -3 47.5 4.5t38.5 22.5t25.5 36t9.5 45q0 15 -5 31t-19.5 35.5t-40.5 44.5t-68 59q-19 15 -40 33t-39 39t-29.5 46t-11.5 56q0 26 8 48.5t22 39.5q-30 43 -30 90q0 31 11.5 58t31 46.5t45.5 31
t56 11.5q48 0 84.5 -27.5t51.5 -69.5v93h8v-153h-8v12zM207 240q35 -28 61 -51.5t44 -46.5q6 12 6 31q0 20 -8.5 36.5t-26 34.5t-44 39.5t-62.5 50.5q-34 27 -61 51t-45 48q-5 -13 -5 -29q0 -21 9.5 -39.5t27.5 -37t44 -39.5t60 -48z" />
    <glyph glyph-name="dieresis" unicode="&#xa8;" horiz-adv-x="300" 
d="M128 762q0 -16 -10.5 -26.5t-25.5 -10.5q-16 0 -26.5 10.5t-10.5 26.5q0 15 10.5 25.5t26.5 10.5q15 0 25.5 -10.5t10.5 -25.5zM245 762q0 -16 -10.5 -26.5t-25.5 -10.5q-16 0 -26.5 10.5t-10.5 26.5q0 15 10.5 25.5t26.5 10.5q15 0 25.5 -10.5t10.5 -25.5z" />
    <glyph glyph-name="copyright" unicode="&#xa9;" horiz-adv-x="301" 
d="M151 676q27 0 50.5 -10.5t41.5 -28t28 -41.5t10 -51t-10 -50.5t-28 -41.5t-41.5 -28t-50.5 -10t-51 10t-42 28t-28 41.5t-10 50.5t10 51t28 41.5t42 28t51 10.5zM151 423q25 0 47 10t38.5 26.5t26.5 38.5t10 47t-10 47.5t-26.5 39t-38.5 26.5t-47 10t-47.5 -10t-39 -26.5
t-26.5 -39t-10 -47.5t10 -47t26.5 -38.5t39 -26.5t47.5 -10zM119 504q0 -13 9 -22t22 -9q14 0 23 9t9 22h8q0 -16 -11.5 -27.5t-28.5 -11.5q-16 0 -27.5 11.5t-11.5 27.5v88q0 16 11 27t27 11q20 0 30 -16v15h8v-41h-8v4q0 13 -8.5 21.5t-21.5 8.5q-12 0 -21 -8.5t-9 -21.5
v-88z" />
    <glyph glyph-name="guillemotleft" unicode="&#xab;" horiz-adv-x="280" 
d="M49 344l95 96l6 -6l-90 -90l90 -90l-6 -6zM119 344l95 96l6 -6l-90 -90l90 -90l-6 -6z" />
    <glyph glyph-name="registered" unicode="&#xae;" horiz-adv-x="311" 
d="M156 676q27 0 50.5 -10.5t41.5 -28t28 -41.5t10 -51t-10 -50.5t-28 -41.5t-41.5 -28t-50.5 -10t-51 10t-42 28t-28 41.5t-10 50.5t10 51t28 41.5t42 28t51 10.5zM156 423q25 0 47 10t38.5 26.5t26.5 38.5t10 47t-10 47.5t-26.5 39t-38.5 26.5t-47 10t-47.5 -10t-39 -26.5
t-26.5 -39t-10 -47.5t10 -47t26.5 -38.5t39 -26.5t47.5 -10zM208 474v-8h-25l-38 65l35 34q10 9 10.5 24.5t-8.5 24.5q-11 11 -23 11q-13 0 -23 -9l-2 -2v-140h18v-8h-44v8h18v150h-18v8h26v-8q11 8 26 8q17 0 28 -13q11 -12 10.5 -30t-12.5 -30l-31 -29l34 -56h19z" />
    <glyph glyph-name="macron" unicode="&#xaf;" horiz-adv-x="200" 
d="M165 755v-8h-130v8h130z" />
    <glyph glyph-name="degree" unicode="&#xb0;" horiz-adv-x="156" 
d="M25 623q0 22 15.5 37.5t37.5 15.5t37.5 -15.5t15.5 -37.5q0 -23 -15.5 -38t-37.5 -15t-37.5 15t-15.5 38zM123 623q0 18 -13 31.5t-32 13.5t-32 -13.5t-13 -31.5q0 -19 13 -32t32 -13t32 13t13 32z" />
    <glyph glyph-name="plusminus" unicode="&#xb1;" horiz-adv-x="335" 
d="M20 304l144 43v155h8v-153l142 42l2 -8l-144 -43v-177h-8v175l-142 -43zM314 89l2 -8l-294 -88l-2 8z" />
    <glyph glyph-name="acute" unicode="&#xb4;" horiz-adv-x="100" 
d="M72 816l8 -2l-22 -90l-8 2z" />
    <glyph glyph-name="paragraph" unicode="&#xb6;" horiz-adv-x="339" 
d="M255 661v-652h60v-8h-68v660h-68v-660h-68v8h60v349l-119 112q-18 17 -27.5 39.5t-9.5 45.5q0 43 30 76q34 35 81 37h189v-8z" />
    <glyph glyph-name="periodcentered" unicode="&#xb7;" horiz-adv-x="146" 
d="M120 344q0 -17 -11.5 -28.5t-28.5 -11.5t-28.5 11.5t-11.5 28.5t11.5 28.5t28.5 11.5t28.5 -11.5t11.5 -28.5z" />
    <glyph glyph-name="cedilla" unicode="&#xb8;" horiz-adv-x="200" 
d="M82 -46q19 -2 32 -17t13 -35q0 -22 -15 -37.5t-38 -15.5v8q19 0 32 13t13 32t-13 32t-32 13v53h8v-46z" />
    <glyph glyph-name="guillemotright" unicode="&#xbb;" horiz-adv-x="280" 
d="M60 254l90 90l-90 90l6 6l95 -96l-95 -96zM130 254l90 90l-90 90l6 6l95 -96l-95 -96z" />
    <glyph glyph-name="questiondown" unicode="&#xbf;" horiz-adv-x="356" 
d="M178 596q-17 0 -28.5 11.5t-11.5 28.5t11.5 28.5t28.5 11.5t28.5 -11.5t11.5 -28.5t-11.5 -28.5t-28.5 -11.5zM241 286q40 -18 65 -55t25 -84q0 -32 -12 -59.5t-33 -48.5t-49 -33t-59 -12q-32 0 -59.5 12t-48.5 33t-33 48.5t-12 59.5q0 21 8.5 45.5t23.5 56.5l117 265h8
l42 -96l-118 -255q-10 -23 -13.5 -40t-3.5 -32q0 -18 7 -34t19.5 -28t28.5 -19.5t34 -7.5q30 0 56.5 11.5t46 31t31 46t11.5 56.5q0 45 -23.5 80t-61.5 52z" />
    <glyph glyph-name="Agrave" unicode="&#xc0;" 
d="M183 724l-60 71l6 5l60 -70zM404 0h-137l-122 503l-51 -212l70 -291h-202v8h55l162 668h8l165 -668h52v-8zM26 8h128l-64 266z" />
    <glyph glyph-name="Aacute" unicode="&#xc1;" 
d="M234 804l5 -4l-53 -76l-6 5zM404 1h-137l-122 503l-51 -212l70 -291h-202v8h55l162 668h8l165 -668h52v-8zM26 9h128l-64 266z" />
    <glyph glyph-name="Acircumflex" unicode="&#xc2;" 
d="M188 769l58 -58l-6 -6l-53 53l-53 -53l-6 6zM406 0h-137l-122 503l-51 -212l70 -291h-202v8h55l162 668h8l165 -668h52v-8zM28 8h128l-64 266z" />
    <glyph glyph-name="Atilde" unicode="&#xc3;" 
d="M404 0h-137l-122 503l-51 -212l70 -291h-202v8h55l162 668h8l165 -668h52v-8zM26 8h128l-64 266zM149 746l-22 -20l-5 6l25 23l80 -24l22 20l5 -6l-25 -23z" />
    <glyph glyph-name="Adieresis" unicode="&#xc4;" 
d="M161 762q0 -16 -10.5 -26.5t-25.5 -10.5q-16 0 -26.5 10.5t-10.5 26.5q0 15 10.5 25.5t26.5 10.5q15 0 25.5 -10.5t10.5 -25.5zM278 762q0 -16 -10.5 -26.5t-25.5 -10.5q-16 0 -26.5 10.5t-10.5 26.5q0 15 10.5 25.5t26.5 10.5q15 0 25.5 -10.5t10.5 -25.5zM404 0h-137
l-122 503l-51 -212l70 -291h-202v8h55l162 668h8l165 -668h52v-8zM26 8h128l-64 266z" />
    <glyph glyph-name="Aring" unicode="&#xc5;" 
d="M130 778q0 22 15.5 37.5t37.5 15.5t37.5 -15.5t15.5 -37.5q0 -23 -15.5 -38t-37.5 -15t-37.5 15t-15.5 38zM228 778q0 18 -13 31.5t-32 13.5t-32 -13.5t-13 -31.5q0 -19 13 -32t32 -13t32 13t13 32zM404 0h-137l-122 503l-51 -212l70 -291h-202v8h55l162 668h8l165 -668
h52v-8zM26 8h128l-64 266z" />
    <glyph glyph-name="AE" unicode="&#xc6;" horiz-adv-x="513" 
d="M301 338l166 50l2 -8l-168 -50v-322h174v141h8v-149h-326v8h60v297l-41 -12l-2 8l43 13v330l-107 -312v-332h-175v8h55l224 652h-57v8h326v-149h-8v141h-174v-322zM-1 8h103v300z" />
    <glyph glyph-name="Ccedilla" unicode="&#xc7;" horiz-adv-x="395" 
d="M367 146q0 -32 -12 -59.5t-32 -48.5t-47.5 -33t-58.5 -13v-38q19 -2 32 -17t13 -35q0 -22 -15 -37.5t-38 -15.5v8q19 0 32 13t13 32t-13 32t-32 13v45q-49 2 -87 30t-54 73q-5 12 -7 29.5t-2 53.5v323q0 33 3.5 52.5t8.5 32.5q17 40 53.5 65t82.5 25q49 0 87 -28t53 -72
v96h8v-153h-8v9q0 38 -18 69t-48 50q-19 11 -45 11t-47 -12.5t-33 -33.5q-6 -11 -9.5 -25t-3.5 -39v-418q0 -32 4.5 -49.5t11.5 -28.5q13 -20 33.5 -32.5t46.5 -12.5q13 0 24.5 3.5t21.5 8.5q33 19 53.5 52.5t20.5 74.5h8z" />
    <glyph glyph-name="Egrave" unicode="&#xc8;" 
d="M342 659h-174v-322l166 50l2 -8l-168 -50v-322h174v141h8v-149h-326v8h60v297l-41 -12l-2 8l43 13v347h-60v8h326v-149h-8v140zM226 724l-60 71l6 5l60 -70z" />
    <glyph glyph-name="Eacute" unicode="&#xc9;" 
d="M342 660h-174v-322l166 50l2 -8l-168 -50v-322h174v141h8v-149h-326v8h60v297l-41 -12l-2 8l43 13v347h-60v8h326v-149h-8v140zM258 804l5 -4l-53 -76l-6 5z" />
    <glyph glyph-name="Ecircumflex" unicode="&#xca;" 
d="M215 769l58 -58l-6 -6l-53 53l-53 -53l-6 6zM344 659h-174v-322l166 50l2 -8l-168 -50v-322h174v141h8v-149h-326v8h60v297l-41 -12l-2 8l43 13v347h-60v8h326v-149h-8v140z" />
    <glyph glyph-name="Edieresis" unicode="&#xcb;" 
d="M191 762q0 -16 -10.5 -26.5t-25.5 -10.5q-16 0 -26.5 10.5t-10.5 26.5q0 15 10.5 25.5t26.5 10.5q15 0 25.5 -10.5t10.5 -25.5zM308 762q0 -16 -10.5 -26.5t-25.5 -10.5q-16 0 -26.5 10.5t-10.5 26.5q0 15 10.5 25.5t26.5 10.5q15 0 25.5 -10.5t10.5 -25.5zM342 659h-174
v-322l166 50l2 -8l-168 -50v-322h174v141h8v-149h-326v8h60v297l-41 -12l-2 8l43 13v347h-60v8h326v-149h-8v140z" />
    <glyph glyph-name="Igrave" unicode="&#xcc;" horiz-adv-x="252" 
d="M228 8v-8h-204v8h60v652h-60v8h204v-8h-60v-652h60zM140 724l-60 71l6 5l60 -70z" />
    <glyph glyph-name="Iacute" unicode="&#xcd;" horiz-adv-x="252" 
d="M228 9v-8h-204v8h60v652h-60v8h204v-8h-60v-652h60zM180 804l5 -4l-53 -76l-6 5z" />
    <glyph glyph-name="Icircumflex" unicode="&#xce;" horiz-adv-x="252" 
d="M128 789l58 -58l-6 -6l-53 53l-53 -53l-6 6zM230 8v-8h-204v8h60v652h-60v8h204v-8h-60v-652h60z" />
    <glyph glyph-name="Idieresis" unicode="&#xcf;" horiz-adv-x="252" 
d="M104 762q0 -16 -10.5 -26.5t-25.5 -10.5q-16 0 -26.5 10.5t-10.5 26.5q0 15 10.5 25.5t26.5 10.5q15 0 25.5 -10.5t10.5 -25.5zM221 762q0 -16 -10.5 -26.5t-25.5 -10.5q-16 0 -26.5 10.5t-10.5 26.5q0 15 10.5 25.5t26.5 10.5q15 0 25.5 -10.5t10.5 -25.5zM228 8v-8
h-204v8h60v652h-60v8h204v-8h-60v-652h60z" />
    <glyph glyph-name="Eth" unicode="&#xd0;" horiz-adv-x="423" 
d="M168 658q25 9 53 9q33 0 61.5 -12.5t50 -34t34 -50t12.5 -61.5v-354q0 -32 -12.5 -60.5t-34 -49.5t-50 -33.5t-60.5 -12.5h-198v8h60v297l-41 -12l-2 8l43 13v347h-60v8h144v-10zM372 510q0 31 -12 58.5t-32 47.5t-47.5 32t-58.5 12q-26 0 -51 -9l-3 -1v-312l100 30l2 -8
l-102 -30v-322h54q62 0 105 43q44 44 44 104z" />
    <glyph glyph-name="Ntilde" unicode="&#xd1;" horiz-adv-x="442" 
d="M183 760l-22 -20l-5 6l25 23l80 -24l22 20l5 -6l-25 -23zM367 660v-668h-8l-273 508v-492h60v-8h-128v8h60v652h-60v8h68l273 -502v494h-60v8h128v-8h-60z" />
    <glyph glyph-name="Ograve" unicode="&#xd2;" horiz-adv-x="427" 
d="M373 397q20 -2 34.5 -17t14.5 -36t-14.5 -36t-34.5 -17v-142q0 -33 -12.5 -61.5t-33.5 -49.5t-49.5 -33.5t-61.5 -12.5q-51 0 -91 29t-57 74q-5 13 -7 30t-2 53v312q0 35 2 52.5t7 30.5q17 45 57 74t91 29q33 0 61.5 -12.5t49.5 -33.5t33.5 -49.5t12.5 -61.5v-122z
M143 130q0 -32 3.5 -49.5t11.5 -28.5q14 -20 35.5 -32.5t47.5 -12.5t47 12q35 19 56 53t21 77v142q-20 2 -34.5 17t-14.5 36t14.5 36t34.5 17v122q0 42 -21 76.5t-56 53.5q-21 12 -47 12t-47.5 -12.5t-34.5 -32.5q-8 -11 -12 -28.5t-4 -49.5v-408zM369 299q19 0 32 13t13 32
t-13 32t-32 13t-32 -13t-13 -32t13 -32t32 -13zM237 724l-60 71l6 5l60 -70z" />
    <glyph glyph-name="Oacute" unicode="&#xd3;" horiz-adv-x="427" 
d="M373 398q20 -2 34.5 -17t14.5 -36t-14.5 -36t-34.5 -17v-142q0 -33 -12.5 -61.5t-33.5 -49.5t-49.5 -33.5t-61.5 -12.5q-51 0 -91 29t-57 74q-5 13 -7 30t-2 53v312q0 35 2 52.5t7 30.5q17 45 57 74t91 29q33 0 61.5 -12.5t49.5 -33.5t33.5 -49.5t12.5 -61.5v-122z
M143 131q0 -32 3.5 -49.5t11.5 -28.5q14 -20 35.5 -32.5t47.5 -12.5t47 12q35 19 56 53t21 77v142q-20 2 -34.5 17t-14.5 36t14.5 36t34.5 17v122q0 42 -21 76.5t-56 53.5q-21 12 -47 12t-47.5 -12.5t-34.5 -32.5q-8 -11 -12 -28.5t-4 -49.5v-408zM369 300q19 0 32 13t13 32
t-13 32t-32 13t-32 -13t-13 -32t13 -32t32 -13zM264 804l5 -4l-53 -76l-6 5z" />
    <glyph glyph-name="Ocircumflex" unicode="&#xd4;" horiz-adv-x="427" 
d="M227 769l58 -58l-6 -6l-53 53l-53 -53l-6 6zM375 397q20 -2 34.5 -17t14.5 -36t-14.5 -36t-34.5 -17v-142q0 -33 -12.5 -61.5t-33.5 -49.5t-49.5 -33.5t-61.5 -12.5q-51 0 -91 29t-57 74q-5 13 -7 30t-2 53v312q0 35 2 52.5t7 30.5q17 45 57 74t91 29q33 0 61.5 -12.5
t49.5 -33.5t33.5 -49.5t12.5 -61.5v-122zM145 130q0 -32 3.5 -49.5t11.5 -28.5q14 -20 35.5 -32.5t47.5 -12.5t47 12q35 19 56 53t21 77v142q-20 2 -34.5 17t-14.5 36t14.5 36t34.5 17v122q0 42 -21 76.5t-56 53.5q-21 12 -47 12t-47.5 -12.5t-34.5 -32.5q-8 -11 -12 -28.5
t-4 -49.5v-408zM371 299q19 0 32 13t13 32t-13 32t-32 13t-32 -13t-13 -32t13 -32t32 -13z" />
    <glyph glyph-name="Otilde" unicode="&#xd5;" horiz-adv-x="427" 
d="M178 760l-22 -20l-5 6l25 23l80 -24l22 20l5 -6l-25 -23zM373 397q20 -2 34.5 -17t14.5 -36t-14.5 -36t-34.5 -17v-142q0 -33 -12.5 -61.5t-33.5 -49.5t-49.5 -33.5t-61.5 -12.5q-51 0 -91 29t-57 74q-5 13 -7 30t-2 53v312q0 35 2 52.5t7 30.5q17 45 57 74t91 29
q33 0 61.5 -12.5t49.5 -33.5t33.5 -49.5t12.5 -61.5v-122zM143 130q0 -32 3.5 -49.5t11.5 -28.5q14 -20 35.5 -32.5t47.5 -12.5t47 12q35 19 56 53t21 77v142q-20 2 -34.5 17t-14.5 36t14.5 36t34.5 17v122q0 42 -21 76.5t-56 53.5q-21 12 -47 12t-47.5 -12.5t-34.5 -32.5
q-8 -11 -12 -28.5t-4 -49.5v-408zM369 299q19 0 32 13t13 32t-13 32t-32 13t-32 -13t-13 -32t13 -32t32 -13z" />
    <glyph glyph-name="Odieresis" unicode="&#xd6;" horiz-adv-x="427" 
d="M196 762q0 -16 -10.5 -26.5t-25.5 -10.5q-16 0 -26.5 10.5t-10.5 26.5q0 15 10.5 25.5t26.5 10.5q15 0 25.5 -10.5t10.5 -25.5zM313 762q0 -16 -10.5 -26.5t-25.5 -10.5q-16 0 -26.5 10.5t-10.5 26.5q0 15 10.5 25.5t26.5 10.5q15 0 25.5 -10.5t10.5 -25.5zM373 397
q20 -2 34.5 -17t14.5 -36t-14.5 -36t-34.5 -17v-142q0 -33 -12.5 -61.5t-33.5 -49.5t-49.5 -33.5t-61.5 -12.5q-51 0 -91 29t-57 74q-5 13 -7 30t-2 53v312q0 35 2 52.5t7 30.5q17 45 57 74t91 29q33 0 61.5 -12.5t49.5 -33.5t33.5 -49.5t12.5 -61.5v-122zM143 130
q0 -32 3.5 -49.5t11.5 -28.5q14 -20 35.5 -32.5t47.5 -12.5t47 12q35 19 56 53t21 77v142q-20 2 -34.5 17t-14.5 36t14.5 36t34.5 17v122q0 42 -21 76.5t-56 53.5q-21 12 -47 12t-47.5 -12.5t-34.5 -32.5q-8 -11 -12 -28.5t-4 -49.5v-408zM369 299q19 0 32 13t13 32t-13 32
t-32 13t-32 -13t-13 -32t13 -32t32 -13z" />
    <glyph glyph-name="multiply" unicode="&#xd7;" horiz-adv-x="200" 
d="M179 166l-7 -3l-73 160l-73 -160l-7 3l76 166l-76 166l8 3l73 -159l73 159l8 -3l-76 -166z" />
    <glyph glyph-name="Oslash" unicode="&#xd8;" horiz-adv-x="417" 
d="M320 637q24 -22 38 -52.5t14 -65.5v-370q0 -33 -12.5 -61.5t-33.5 -49.5t-49.5 -33.5t-61.5 -12.5q-24 0 -48 8l-25 -106l-8 2l26 106q-32 12 -56 36.5t-36 56.5q-5 13 -7 30t-2 53v312q0 35 2 52.5t7 30.5q17 45 57 74t91 29q28 0 53 -9t45 -25l32 132l8 -2zM142 131
q0 -32 4 -49.5t11 -28.5q2 -4 5 -7l6 -6l143 594q-9 8 -24 16q-21 12 -47 12t-47.5 -12.5t-34.5 -32.5q-8 -11 -12 -28.5t-4 -49.5v-408zM365 522q0 32 -12.5 59.5t-34.5 47.5l-144 -595q13 -12 29.5 -19t36.5 -7q26 0 47 12q35 19 56 53t21 77z" />
    <glyph glyph-name="Ugrave" unicode="&#xd9;" horiz-adv-x="462" 
d="M389 397q20 -2 34.5 -17t14.5 -36t-14.5 -36t-34.5 -17v-145q0 -32 -12 -60t-33 -49t-49 -33t-60 -12q-51 0 -90 29t-55 74q-5 12 -7 29.5t-2 53.5v482h-60v8h204v-8h-60v-532q0 -30 4 -47.5t11 -28.5q13 -20 34 -32.5t47 -12.5q13 0 24.5 3.5t21.5 8.5q33 19 53.5 52.5
t20.5 74.5v145q-20 2 -34.5 17t-14.5 36t14.5 36t34.5 17v263h-60v8h128v-8h-60v-263zM430 344q0 19 -13 32t-32 13t-32 -13t-13 -32t13 -32t32 -13t32 13t13 32zM271 724l-60 71l6 5l60 -70z" />
    <glyph glyph-name="Uacute" unicode="&#xda;" horiz-adv-x="462" 
d="M389 398q20 -2 34.5 -17t14.5 -36t-14.5 -36t-34.5 -17v-145q0 -32 -12 -60t-33 -49t-49 -33t-60 -12q-51 0 -90 29t-55 74q-5 12 -7 29.5t-2 53.5v482h-60v8h204v-8h-60v-532q0 -30 4 -47.5t11 -28.5q13 -20 34 -32.5t47 -12.5q13 0 24.5 3.5t21.5 8.5q33 19 53.5 52.5
t20.5 74.5v145q-20 2 -34.5 17t-14.5 36t14.5 36t34.5 17v263h-60v8h128v-8h-60v-263zM430 345q0 19 -13 32t-32 13t-32 -13t-13 -32t13 -32t32 -13t32 13t13 32zM310 804l5 -4l-53 -76l-6 5z" />
    <glyph glyph-name="Ucircumflex" unicode="&#xdb;" horiz-adv-x="462" 
d="M275 789l58 -58l-6 -6l-53 53l-53 -53l-6 6zM391 397q20 -2 34.5 -17t14.5 -36t-14.5 -36t-34.5 -17v-145q0 -32 -12 -60t-33 -49t-49 -33t-60 -12q-51 0 -90 29t-55 74q-5 12 -7 29.5t-2 53.5v482h-60v8h204v-8h-60v-532q0 -30 4 -47.5t11 -28.5q13 -20 34 -32.5
t47 -12.5q13 0 24.5 3.5t21.5 8.5q33 19 53.5 52.5t20.5 74.5v145q-20 2 -34.5 17t-14.5 36t14.5 36t34.5 17v263h-60v8h128v-8h-60v-263zM432 344q0 19 -13 32t-32 13t-32 -13t-13 -32t13 -32t32 -13t32 13t13 32z" />
    <glyph glyph-name="Udieresis" unicode="&#xdc;" horiz-adv-x="462" 
d="M251 762q0 -16 -10.5 -26.5t-25.5 -10.5q-16 0 -26.5 10.5t-10.5 26.5q0 15 10.5 25.5t26.5 10.5q15 0 25.5 -10.5t10.5 -25.5zM368 762q0 -16 -10.5 -26.5t-25.5 -10.5q-16 0 -26.5 10.5t-10.5 26.5q0 15 10.5 25.5t26.5 10.5q15 0 25.5 -10.5t10.5 -25.5zM389 397
q20 -2 34.5 -17t14.5 -36t-14.5 -36t-34.5 -17v-145q0 -32 -12 -60t-33 -49t-49 -33t-60 -12q-51 0 -90 29t-55 74q-5 12 -7 29.5t-2 53.5v482h-60v8h204v-8h-60v-532q0 -30 4 -47.5t11 -28.5q13 -20 34 -32.5t47 -12.5q13 0 24.5 3.5t21.5 8.5q33 19 53.5 52.5t20.5 74.5
v145q-20 2 -34.5 17t-14.5 36t14.5 36t34.5 17v263h-60v8h128v-8h-60v-263zM430 344q0 19 -13 32t-32 13t-32 -13t-13 -32t13 -32t32 -13t32 13t13 32z" />
    <glyph glyph-name="Yacute" unicode="&#xdd;" horiz-adv-x="409" 
d="M426 661h-57l-117 -372v-280h60v-8h-204v8h60v278l-128 374h-57v8h139l126 -367l51 163l-70 204h197v-8zM240 661l63 -183l58 183h-121zM249 804l5 -4l-53 -76l-6 5z" />
    <glyph glyph-name="Thorn" unicode="&#xde;" horiz-adv-x="385" 
d="M168 539q25 9 53 9q33 0 61.5 -12.5t50 -34t34 -50t12.5 -61.5v-72q0 -32 -12.5 -60.5t-34 -49.5t-50 -33.5t-60.5 -12.5h-54v-154h60v-8h-204v8h60v652h-60v8h204v-8h-60v-121zM372 392q0 31 -12 58.5t-32 47.5t-47.5 32t-58.5 12q-26 0 -51 -9l-3 -1v-361h54
q62 0 105 43q44 44 44 104z" />
    <glyph glyph-name="germandbls" unicode="&#xdf;" horiz-adv-x="462" 
d="M285 328q20 -14 39.5 -27.5t39.5 -27.5q32 -23 49.5 -57t17.5 -70q0 -32 -12 -60t-33 -49t-49 -33t-60 -12q-31 0 -62 13l3 7q27 -12 59 -12q30 0 57 11.5t46.5 31t31 46.5t11.5 57q0 35 -16 66.5t-46 53.5q-37 27 -74 52t-73 50l131 292h-64q-12 0 -25 -0.5t-26 -4.5
q-16 -5 -29.5 -14t-21.5 -23q-8 -15 -10.5 -36t-2.5 -55v-528h-144v8h60v473q0 37 3.5 57t10.5 36q20 43 60 69t89 26h191z" />
    <glyph glyph-name="agrave" unicode="&#xe0;" 
d="M267 0l-122 503l-51 -212l70 -291h-202v8h55l162 668h8l165 -668h52v-8h-137zM154 8l-64 266l-64 -266h128zM183 724l-60 71l6 5l60 -70z" />
    <glyph glyph-name="aacute" unicode="&#xe1;" 
d="M267 1l-122 503l-51 -212l70 -291h-202v8h55l162 668h8l165 -668h52v-8h-137zM154 9l-64 266l-64 -266h128zM234 804l5 -4l-53 -76l-6 5z" />
    <glyph glyph-name="acircumflex" unicode="&#xe2;" 
d="M188 769l58 -58l-6 -6l-53 53l-53 -53l-6 6zM406 0h-137l-122 503l-51 -212l70 -291h-202v8h55l162 668h8l165 -668h52v-8zM28 8h128l-64 266z" />
    <glyph glyph-name="atilde" unicode="&#xe3;" 
d="M267 0l-122 503l-51 -212l70 -291h-202v8h55l162 668h8l165 -668h52v-8h-137zM154 8l-64 266l-64 -266h128zM149 746l-22 -20l-5 6l25 23l80 -24l22 20l5 -6l-25 -23z" />
    <glyph glyph-name="adieresis" unicode="&#xe4;" 
d="M161 762q0 -16 -10.5 -26.5t-25.5 -10.5q-16 0 -26.5 10.5t-10.5 26.5q0 15 10.5 25.5t26.5 10.5q15 0 25.5 -10.5t10.5 -25.5zM278 762q0 -16 -10.5 -26.5t-25.5 -10.5q-16 0 -26.5 10.5t-10.5 26.5q0 15 10.5 25.5t26.5 10.5q15 0 25.5 -10.5t10.5 -25.5zM267 0
l-122 503l-51 -212l70 -291h-202v8h55l162 668h8l165 -668h52v-8h-137zM154 8l-64 266l-64 -266h128z" />
    <glyph glyph-name="aring" unicode="&#xe5;" 
d="M130 778q0 22 15.5 37.5t37.5 15.5t37.5 -15.5t15.5 -37.5q0 -23 -15.5 -38t-37.5 -15t-37.5 15t-15.5 38zM228 778q0 18 -13 31.5t-32 13.5t-32 -13.5t-13 -31.5q0 -19 13 -32t32 -13t32 13t13 32zM267 0l-122 503l-51 -212l70 -291h-202v8h55l162 668h8l165 -668h52v-8
h-137zM154 8l-64 266l-64 -266h128z" />
    <glyph glyph-name="ae" unicode="&#xe6;" horiz-adv-x="513" 
d="M467 388l2 -8l-168 -50v-322h174v141h8v-149h-326v8h60v297l-41 -12l-2 8l43 13v330l-107 -312v-332h-175v8h55l224 652h-57v8h326v-149h-8v141h-174v-322zM102 8v300l-103 -300h103z" />
    <glyph glyph-name="ccedilla" unicode="&#xe7;" horiz-adv-x="395" 
d="M368 147q0 -31 -11.5 -58.5t-31.5 -48.5t-46.5 -34t-57.5 -14v-38q19 -2 32 -17t13 -35q0 -22 -15 -37.5t-38 -15.5v8q19 0 32 13t13 32t-13 32t-32 13v45q-51 0 -90 29t-55 74q-5 12 -7 29.5t-2 53.5v323q0 33 3.5 52.5t8.5 32.5q17 40 53.5 65t82.5 25q49 0 87 -28
t53 -72v96h8v-153h-8v9q0 38 -18 69t-48 50q-19 11 -45 11t-47 -12.5t-33 -33.5q-6 -11 -9.5 -25t-3.5 -39v-418q0 -32 4.5 -49.5t11.5 -28.5q13 -20 33.5 -32.5t46.5 -12.5q13 0 24.5 3.5t21.5 8.5q33 19 53.5 52.5t20.5 74.5z" />
    <glyph glyph-name="egrave" unicode="&#xe8;" 
d="M168 659v-322l166 50l2 -8l-168 -50v-322h174v141h8v-149h-326v8h60v297l-41 -12l-2 8l43 13v347h-60v8h326v-149h-8v141zM220 724l-60 71l6 5l60 -70z" />
    <glyph glyph-name="eacute" unicode="&#xe9;" 
d="M168 660v-322l166 50l2 -8l-168 -50v-322h174v141h8v-149h-326v8h60v297l-41 -12l-2 8l43 13v347h-60v8h326v-149h-8v141zM248 804l5 -4l-53 -76l-6 5z" />
    <glyph glyph-name="ecircumflex" unicode="&#xea;" 
d="M215 769l58 -58l-6 -6l-53 53l-53 -53l-6 6zM344 659h-174v-322l166 50l2 -8l-168 -50v-322h174v141h8v-149h-326v8h60v297l-41 -12l-2 8l43 13v347h-60v8h326v-149h-8v140z" />
    <glyph glyph-name="edieresis" unicode="&#xeb;" 
d="M190 762q0 -16 -10.5 -26.5t-25.5 -10.5q-16 0 -26.5 10.5t-10.5 26.5q0 15 10.5 25.5t26.5 10.5q15 0 25.5 -10.5t10.5 -25.5zM307 762q0 -16 -10.5 -26.5t-25.5 -10.5q-16 0 -26.5 10.5t-10.5 26.5q0 15 10.5 25.5t26.5 10.5q15 0 25.5 -10.5t10.5 -25.5zM168 659v-322
l166 50l2 -8l-168 -50v-322h174v141h8v-149h-326v8h60v297l-41 -12l-2 8l43 13v347h-60v8h326v-149h-8v141z" />
    <glyph glyph-name="igrave" unicode="&#xec;" horiz-adv-x="252" 
d="M228 0h-204v8h60v652h-60v8h204v-8h-60v-652h60v-8zM131 724l-60 71l6 5l60 -70z" />
    <glyph glyph-name="iacute" unicode="&#xed;" horiz-adv-x="252" 
d="M228 1h-204v8h60v652h-60v8h204v-8h-60v-652h60v-8zM174 804l5 -4l-53 -76l-6 5z" />
    <glyph glyph-name="icircumflex" unicode="&#xee;" horiz-adv-x="252" 
d="M127 789l58 -58l-6 -6l-53 53l-53 -53l-6 6zM230 0h-204v8h60v652h-60v8h204v-8h-60v-652h60v-8z" />
    <glyph glyph-name="idieresis" unicode="&#xef;" horiz-adv-x="252" 
d="M103 762q0 -16 -10.5 -26.5t-25.5 -10.5q-16 0 -26.5 10.5t-10.5 26.5q0 15 10.5 25.5t26.5 10.5q15 0 25.5 -10.5t10.5 -25.5zM220 762q0 -16 -10.5 -26.5t-25.5 -10.5q-16 0 -26.5 10.5t-10.5 26.5q0 15 10.5 25.5t26.5 10.5q15 0 25.5 -10.5t10.5 -25.5zM228 0h-204v8
h60v652h-60v8h204v-8h-60v-652h60v-8z" />
    <glyph glyph-name="eth" unicode="&#xf0;" horiz-adv-x="423" 
d="M168 658q25 9 53 9q33 0 61.5 -12.5t50 -34t34 -50t12.5 -61.5v-354q0 -32 -12.5 -60.5t-34 -49.5t-50 -33.5t-60.5 -12.5h-198v8h60v297l-41 -12l-2 8l43 13v347h-60v8h144v-10zM372 510q0 31 -12 58.5t-32 47.5t-47.5 32t-58.5 12q-26 0 -51 -9l-3 -1v-312l100 30l2 -8
l-102 -30v-322h54q62 0 105 43q44 44 44 104z" />
    <glyph glyph-name="ntilde" unicode="&#xf1;" horiz-adv-x="442" 
d="M183 760l-22 -20l-5 6l25 23l80 -24l22 20l5 -6l-25 -23zM367 -8h-8l-273 508v-492h60v-8h-128v8h60v652h-60v8h68l273 -502v494h-60v8h128v-8h-60v-668z" />
    <glyph glyph-name="ograve" unicode="&#xf2;" horiz-adv-x="427" 
d="M373 397q20 -2 34.5 -17t14.5 -36t-14.5 -36t-34.5 -17v-142q0 -33 -12.5 -61.5t-33.5 -49.5t-49.5 -33.5t-61.5 -12.5q-51 0 -91 29t-57 74q-5 13 -7 30t-2 53v312q0 35 2 52.5t7 30.5q17 45 57 74t91 29q33 0 61.5 -12.5t49.5 -33.5t33.5 -49.5t12.5 -61.5v-122z
M143 130q0 -32 3.5 -49.5t11.5 -28.5q14 -20 35.5 -32.5t47.5 -12.5t47 12q35 19 56 53t21 77v142q-20 2 -34.5 17t-14.5 36t14.5 36t34.5 17v122q0 42 -21 76.5t-56 53.5q-21 12 -47 12t-47.5 -12.5t-34.5 -32.5q-8 -11 -12 -28.5t-4 -49.5v-408zM369 299q19 0 32 13t13 32
t-13 32t-32 13t-32 -13t-13 -32t13 -32t32 -13zM232 724l-60 71l6 5l60 -70z" />
    <glyph glyph-name="oacute" unicode="&#xf3;" horiz-adv-x="427" 
d="M373 398q20 -2 34.5 -17t14.5 -36t-14.5 -36t-34.5 -17v-142q0 -33 -12.5 -61.5t-33.5 -49.5t-49.5 -33.5t-61.5 -12.5q-51 0 -91 29t-57 74q-5 13 -7 30t-2 53v312q0 35 2 52.5t7 30.5q17 45 57 74t91 29q33 0 61.5 -12.5t49.5 -33.5t33.5 -49.5t12.5 -61.5v-122z
M143 131q0 -32 3.5 -49.5t11.5 -28.5q14 -20 35.5 -32.5t47.5 -12.5t47 12q35 19 56 53t21 77v142q-20 2 -34.5 17t-14.5 36t14.5 36t34.5 17v122q0 42 -21 76.5t-56 53.5q-21 12 -47 12t-47.5 -12.5t-34.5 -32.5q-8 -11 -12 -28.5t-4 -49.5v-408zM369 300q19 0 32 13t13 32
t-13 32t-32 13t-32 -13t-13 -32t13 -32t32 -13zM266 804l5 -4l-53 -76l-6 5z" />
    <glyph glyph-name="ocircumflex" unicode="&#xf4;" horiz-adv-x="427" 
d="M227 769l58 -58l-6 -6l-53 53l-53 -53l-6 6zM375 397q20 -2 34.5 -17t14.5 -36t-14.5 -36t-34.5 -17v-142q0 -33 -12.5 -61.5t-33.5 -49.5t-49.5 -33.5t-61.5 -12.5q-51 0 -91 29t-57 74q-5 13 -7 30t-2 53v312q0 35 2 52.5t7 30.5q17 45 57 74t91 29q33 0 61.5 -12.5
t49.5 -33.5t33.5 -49.5t12.5 -61.5v-122zM145 130q0 -32 3.5 -49.5t11.5 -28.5q14 -20 35.5 -32.5t47.5 -12.5t47 12q35 19 56 53t21 77v142q-20 2 -34.5 17t-14.5 36t14.5 36t34.5 17v122q0 42 -21 76.5t-56 53.5q-21 12 -47 12t-47.5 -12.5t-34.5 -32.5q-8 -11 -12 -28.5
t-4 -49.5v-408zM371 299q19 0 32 13t13 32t-13 32t-32 13t-32 -13t-13 -32t13 -32t32 -13z" />
    <glyph glyph-name="otilde" unicode="&#xf5;" horiz-adv-x="427" 
d="M178 760l-22 -20l-5 6l25 23l80 -24l22 20l5 -6l-25 -23zM373 397q20 -2 34.5 -17t14.5 -36t-14.5 -36t-34.5 -17v-142q0 -33 -12.5 -61.5t-33.5 -49.5t-49.5 -33.5t-61.5 -12.5q-51 0 -91 29t-57 74q-5 13 -7 30t-2 53v312q0 35 2 52.5t7 30.5q17 45 57 74t91 29
q33 0 61.5 -12.5t49.5 -33.5t33.5 -49.5t12.5 -61.5v-122zM143 130q0 -32 3.5 -49.5t11.5 -28.5q14 -20 35.5 -32.5t47.5 -12.5t47 12q35 19 56 53t21 77v142q-20 2 -34.5 17t-14.5 36t14.5 36t34.5 17v122q0 42 -21 76.5t-56 53.5q-21 12 -47 12t-47.5 -12.5t-34.5 -32.5
q-8 -11 -12 -28.5t-4 -49.5v-408zM369 299q19 0 32 13t13 32t-13 32t-32 13t-32 -13t-13 -32t13 -32t32 -13z" />
    <glyph glyph-name="odieresis" unicode="&#xf6;" horiz-adv-x="427" 
d="M196 762q0 -16 -10.5 -26.5t-25.5 -10.5q-16 0 -26.5 10.5t-10.5 26.5q0 15 10.5 25.5t26.5 10.5q15 0 25.5 -10.5t10.5 -25.5zM313 762q0 -16 -10.5 -26.5t-25.5 -10.5q-16 0 -26.5 10.5t-10.5 26.5q0 15 10.5 25.5t26.5 10.5q15 0 25.5 -10.5t10.5 -25.5zM373 397
q20 -2 34.5 -17t14.5 -36t-14.5 -36t-34.5 -17v-142q0 -33 -12.5 -61.5t-33.5 -49.5t-49.5 -33.5t-61.5 -12.5q-51 0 -91 29t-57 74q-5 13 -7 30t-2 53v312q0 35 2 52.5t7 30.5q17 45 57 74t91 29q33 0 61.5 -12.5t49.5 -33.5t33.5 -49.5t12.5 -61.5v-122zM143 130
q0 -32 3.5 -49.5t11.5 -28.5q14 -20 35.5 -32.5t47.5 -12.5t47 12q35 19 56 53t21 77v142q-20 2 -34.5 17t-14.5 36t14.5 36t34.5 17v122q0 42 -21 76.5t-56 53.5q-21 12 -47 12t-47.5 -12.5t-34.5 -32.5q-8 -11 -12 -28.5t-4 -49.5v-408zM369 299q19 0 32 13t13 32t-13 32
t-32 13t-32 -13t-13 -32t13 -32t32 -13z" />
    <glyph glyph-name="divide" unicode="&#xf7;" horiz-adv-x="335" 
d="M204 465q0 -17 -11.5 -28.5t-28.5 -11.5t-28.5 11.5t-11.5 28.5t11.5 28.5t28.5 11.5t28.5 -11.5t11.5 -28.5zM314 389l2 -8l-294 -87l-2 8zM204 213q0 -17 -11.5 -28.5t-28.5 -11.5t-28.5 11.5t-11.5 28.5t11.5 28.5t28.5 11.5t28.5 -11.5t11.5 -28.5z" />
    <glyph glyph-name="oslash" unicode="&#xf8;" horiz-adv-x="417" 
d="M321 637q24 -22 38 -52.5t14 -65.5v-370q0 -33 -12.5 -61.5t-33.5 -49.5t-49.5 -33.5t-61.5 -12.5q-24 0 -48 8l-26 -106l-8 2l26 106q-32 12 -56 36.5t-36 56.5q-5 13 -7 30t-2 53v312q0 35 2 52.5t7 30.5q17 45 57 74t91 29q28 0 53 -9t45 -25l32 132l8 -2zM143 131
q0 -32 3.5 -49.5t11.5 -28.5q2 -4 5 -7l6 -6l143 594q-9 8 -24 16q-21 12 -47 12t-47.5 -12.5t-34.5 -32.5q-8 -11 -12 -28.5t-4 -49.5v-408zM366 522q0 32 -12.5 59.5t-34.5 47.5l-144 -595q13 -12 29.5 -19t36.5 -7q26 0 47 12q35 19 56 53t21 77z" />
    <glyph glyph-name="ugrave" unicode="&#xf9;" horiz-adv-x="462" 
d="M389 397q20 -2 34.5 -17t14.5 -36t-14.5 -36t-34.5 -17v-145q0 -32 -12 -60t-33 -49t-49 -33t-60 -12q-51 0 -90 29t-55 74q-5 12 -7 29.5t-2 53.5v482h-60v8h204v-8h-60v-532q0 -30 4 -47.5t11 -28.5q13 -20 34 -32.5t47 -12.5q13 0 24.5 3.5t21.5 8.5q33 19 53.5 52.5
t20.5 74.5v145q-20 2 -34.5 17t-14.5 36t14.5 36t34.5 17v263h-60v8h128v-8h-60v-263zM430 344q0 19 -13 32t-32 13t-32 -13t-13 -32t13 -32t32 -13t32 13t13 32zM270 724l-60 71l6 5l60 -70z" />
    <glyph glyph-name="uacute" unicode="&#xfa;" horiz-adv-x="462" 
d="M389 398q20 -2 34.5 -17t14.5 -36t-14.5 -36t-34.5 -17v-145q0 -32 -12 -60t-33 -49t-49 -33t-60 -12q-51 0 -90 29t-55 74q-5 12 -7 29.5t-2 53.5v482h-60v8h204v-8h-60v-532q0 -30 4 -47.5t11 -28.5q13 -20 34 -32.5t47 -12.5q13 0 24.5 3.5t21.5 8.5q33 19 53.5 52.5
t20.5 74.5v145q-20 2 -34.5 17t-14.5 36t14.5 36t34.5 17v263h-60v8h128v-8h-60v-263zM430 345q0 19 -13 32t-32 13t-32 -13t-13 -32t13 -32t32 -13t32 13t13 32zM317 804l5 -4l-53 -76l-6 5z" />
    <glyph glyph-name="ucircumflex" unicode="&#xfb;" horiz-adv-x="462" 
d="M275 789l58 -58l-6 -6l-53 53l-53 -53l-6 6zM391 397q20 -2 34.5 -17t14.5 -36t-14.5 -36t-34.5 -17v-145q0 -32 -12 -60t-33 -49t-49 -33t-60 -12q-51 0 -90 29t-55 74q-5 12 -7 29.5t-2 53.5v482h-60v8h204v-8h-60v-532q0 -30 4 -47.5t11 -28.5q13 -20 34 -32.5
t47 -12.5q13 0 24.5 3.5t21.5 8.5q33 19 53.5 52.5t20.5 74.5v145q-20 2 -34.5 17t-14.5 36t14.5 36t34.5 17v263h-60v8h128v-8h-60v-263zM432 344q0 19 -13 32t-32 13t-32 -13t-13 -32t13 -32t32 -13t32 13t13 32z" />
    <glyph glyph-name="udieresis" unicode="&#xfc;" horiz-adv-x="462" 
d="M251 762q0 -16 -10.5 -26.5t-25.5 -10.5q-16 0 -26.5 10.5t-10.5 26.5q0 15 10.5 25.5t26.5 10.5q15 0 25.5 -10.5t10.5 -25.5zM368 762q0 -16 -10.5 -26.5t-25.5 -10.5q-16 0 -26.5 10.5t-10.5 26.5q0 15 10.5 25.5t26.5 10.5q15 0 25.5 -10.5t10.5 -25.5zM389 397
q20 -2 34.5 -17t14.5 -36t-14.5 -36t-34.5 -17v-145q0 -32 -12 -60t-33 -49t-49 -33t-60 -12q-51 0 -90 29t-55 74q-5 12 -7 29.5t-2 53.5v482h-60v8h204v-8h-60v-532q0 -30 4 -47.5t11 -28.5q13 -20 34 -32.5t47 -12.5q13 0 24.5 3.5t21.5 8.5q33 19 53.5 52.5t20.5 74.5
v145q-20 2 -34.5 17t-14.5 36t14.5 36t34.5 17v263h-60v8h128v-8h-60v-263zM430 344q0 19 -13 32t-32 13t-32 -13t-13 -32t13 -32t32 -13t32 13t13 32z" />
    <glyph glyph-name="yacute" unicode="&#xfd;" horiz-adv-x="409" 
d="M369 661l-117 -372v-280h60v-8h-204v8h60v278l-128 374h-57v8h139l126 -367l51 163l-70 204h197v-8h-57zM302 478l58 183h-120zM242 804l5 -4l-53 -76l-6 5z" />
    <glyph glyph-name="thorn" unicode="&#xfe;" horiz-adv-x="385" 
d="M168 539q25 9 53 9q33 0 61.5 -12.5t50 -34t34 -50t12.5 -61.5v-72q0 -32 -12.5 -60.5t-34 -49.5t-50 -33.5t-60.5 -12.5h-54v-154h60v-8h-204v8h60v652h-60v8h204v-8h-60v-121zM372 392q0 31 -12 58.5t-32 47.5t-47.5 32t-58.5 12q-26 0 -51 -9l-3 -1v-361h54
q62 0 105 43q44 44 44 104z" />
    <glyph glyph-name="ydieresis" unicode="&#xff;" horiz-adv-x="409" 
d="M188 762q0 -16 -10.5 -26.5t-25.5 -10.5q-16 0 -26.5 10.5t-10.5 26.5q0 15 10.5 25.5t26.5 10.5q15 0 25.5 -10.5t10.5 -25.5zM305 762q0 -16 -10.5 -26.5t-25.5 -10.5q-16 0 -26.5 10.5t-10.5 26.5q0 15 10.5 25.5t26.5 10.5q15 0 25.5 -10.5t10.5 -25.5zM369 660
l-117 -372v-280h60v-8h-204v8h60v278l-128 374h-57v8h139l126 -367l51 163l-70 204h197v-8h-57zM302 477l58 183h-120z" />
    <glyph glyph-name="Amacron" unicode="&#x100;" 
d="M248 755v-8h-130v8h130zM404 0h-137l-122 503l-51 -212l70 -291h-202v8h55l162 668h8l165 -668h52v-8zM26 8h128l-64 266z" />
    <glyph glyph-name="amacron" unicode="&#x101;" 
d="M248 755v-8h-130v8h130zM267 0l-122 503l-51 -212l70 -291h-202v8h55l162 668h8l165 -668h52v-8h-137zM154 8l-64 266l-64 -266h128z" />
    <glyph glyph-name="Abreve" unicode="&#x102;" 
d="M404 0h-137l-122 503l-51 -212l70 -291h-202v8h55l162 668h8l165 -668h52v-8zM26 8h128l-64 266zM138 758q0 -19 13 -32t32 -13t32 13t13 32h8q0 -23 -15.5 -38t-37.5 -15t-37.5 15t-15.5 38h8z" />
    <glyph glyph-name="abreve" unicode="&#x103;" 
d="M138 758q0 -19 13 -32t32 -13t32 13t13 32h8q0 -23 -15.5 -38t-37.5 -15t-37.5 15t-15.5 38h8zM267 0l-122 503l-51 -212l70 -291h-202v8h55l162 668h8l165 -668h52v-8h-137zM154 8l-64 266l-64 -266h128z" />
    <glyph glyph-name="Aogonek" unicode="&#x104;" 
d="M211 -60q-13 -13 -13 -32t13 -32t32 -13q20 0 32 14l6 -6q-16 -16 -38 -16t-37.5 15t-15.5 38q0 22 16 38l59 59l-120 498l-51 -212l70 -291h-202v8h55l162 668h8l165 -668h52v-8h-133zM88 273l-64 -266h128z" />
    <glyph glyph-name="aogonek" unicode="&#x105;" 
d="M222 -59q-13 -13 -13 -32t13 -32t32 -13q20 0 32 14l6 -6q-16 -16 -38 -16t-37.5 15t-15.5 38q0 22 16 38l53 53h-3l-122 503l-51 -212l70 -291h-202v8h55l162 668h8l165 -668h52v-8h-123zM89 274l-64 -266h128z" />
    <glyph glyph-name="Cacute" unicode="&#x106;" horiz-adv-x="395" 
d="M220 816l8 -2l-22 -90l-8 2zM367 147q0 -32 -12 -60t-33 -49t-49 -33t-60 -12q-51 0 -90 29t-55 74q-5 12 -7 29.5t-2 53.5v323q0 33 3.5 52.5t8.5 32.5q17 40 53.5 65t82.5 25q49 0 87 -28t53 -72v96h8v-153h-8v9q0 38 -18 69t-48 50q-19 11 -45 11t-47 -12.5t-33 -33.5
q-6 -11 -9.5 -25t-3.5 -39v-418q0 -32 4.5 -49.5t11.5 -28.5q13 -20 33.5 -32.5t46.5 -12.5q13 0 24.5 3.5t21.5 8.5q33 19 53.5 52.5t20.5 74.5h8z" />
    <glyph glyph-name="cacute" unicode="&#x107;" horiz-adv-x="395" 
d="M223 816l8 -2l-22 -90l-8 2zM367 147q0 -32 -12 -60t-33 -49t-49 -33t-60 -12q-51 0 -90 29t-55 74q-5 12 -7 29.5t-2 53.5v323q0 33 3.5 52.5t8.5 32.5q17 40 53.5 65t82.5 25q49 0 87 -28t53 -72v96h8v-153h-8v9q0 38 -18 69t-48 50q-19 11 -45 11t-47 -12.5t-33 -33.5
q-6 -11 -9.5 -25t-3.5 -39v-418q0 -32 4.5 -49.5t11.5 -28.5q13 -20 33.5 -32.5t46.5 -12.5q13 0 24.5 3.5t21.5 8.5q33 19 53.5 52.5t20.5 74.5h8z" />
    <glyph glyph-name="Cdotaccent" unicode="&#x10a;" horiz-adv-x="395" 
d="M246 762q0 -16 -10.5 -26.5t-25.5 -10.5q-16 0 -26.5 10.5t-10.5 26.5q0 15 10.5 25.5t26.5 10.5q15 0 25.5 -10.5t10.5 -25.5zM367 146q0 -32 -12 -60t-33 -49t-49 -33t-60 -12q-51 0 -90 29t-55 74q-5 12 -7 29.5t-2 53.5v323q0 33 3.5 52.5t8.5 32.5q17 40 53.5 65
t82.5 25q49 0 87 -28t53 -72v96h8v-153h-8v9q0 38 -18 69t-48 50q-19 11 -45 11t-47 -12.5t-33 -33.5q-6 -11 -9.5 -25t-3.5 -39v-418q0 -32 4.5 -49.5t11.5 -28.5q13 -20 33.5 -32.5t46.5 -12.5q13 0 24.5 3.5t21.5 8.5q33 19 53.5 52.5t20.5 74.5h8z" />
    <glyph glyph-name="cdotaccent" unicode="&#x10b;" horiz-adv-x="395" 
d="M249 762q0 -16 -10.5 -26.5t-25.5 -10.5q-16 0 -26.5 10.5t-10.5 26.5q0 15 10.5 25.5t26.5 10.5q15 0 25.5 -10.5t10.5 -25.5zM367 146q0 -32 -12 -60t-33 -49t-49 -33t-60 -12q-51 0 -90 29t-55 74q-5 12 -7 29.5t-2 53.5v323q0 33 3.5 52.5t8.5 32.5q17 40 53.5 65
t82.5 25q49 0 87 -28t53 -72v96h8v-153h-8v9q0 38 -18 69t-48 50q-19 11 -45 11t-47 -12.5t-33 -33.5q-6 -11 -9.5 -25t-3.5 -39v-418q0 -32 4.5 -49.5t11.5 -28.5q13 -20 33.5 -32.5t46.5 -12.5q13 0 24.5 3.5t21.5 8.5q33 19 53.5 52.5t20.5 74.5h8z" />
    <glyph glyph-name="Ccaron" unicode="&#x10c;" horiz-adv-x="395" 
d="M209 725l-58 58l6 6l53 -53l53 53l6 -6zM365 146q0 -32 -12 -60t-33 -49t-49 -33t-60 -12q-51 0 -90 29t-55 74q-5 12 -7 29.5t-2 53.5v323q0 33 3.5 52.5t8.5 32.5q17 40 53.5 65t82.5 25q49 0 87 -28t53 -72v96h8v-153h-8v9q0 38 -18 69t-48 50q-19 11 -45 11
t-47 -12.5t-33 -33.5q-6 -11 -9.5 -25t-3.5 -39v-418q0 -32 4.5 -49.5t11.5 -28.5q13 -20 33.5 -32.5t46.5 -12.5q13 0 24.5 3.5t21.5 8.5q33 19 53.5 52.5t20.5 74.5h8z" />
    <glyph glyph-name="ccaron" unicode="&#x10d;" horiz-adv-x="395" 
d="M212 725l-58 58l6 6l53 -53l53 53l6 -6zM365 146q0 -32 -12 -60t-33 -49t-49 -33t-60 -12q-51 0 -90 29t-55 74q-5 12 -7 29.5t-2 53.5v323q0 33 3.5 52.5t8.5 32.5q17 40 53.5 65t82.5 25q49 0 87 -28t53 -72v96h8v-153h-8v9q0 38 -18 69t-48 50q-19 11 -45 11
t-47 -12.5t-33 -33.5q-6 -11 -9.5 -25t-3.5 -39v-418q0 -32 4.5 -49.5t11.5 -28.5q13 -20 33.5 -32.5t46.5 -12.5q13 0 24.5 3.5t21.5 8.5q33 19 53.5 52.5t20.5 74.5h8z" />
    <glyph glyph-name="Dcaron" unicode="&#x10e;" horiz-adv-x="433" 
d="M219 725l-58 58l6 6l53 -53l53 53l6 -6zM377 396q20 -2 34.5 -17t14.5 -36t-14.5 -36t-34.5 -17v-134q0 -32 -12.5 -60.5t-34 -49.5t-50 -33.5t-60.5 -12.5h-198v8h60v652h-60v8h144v-9q25 9 53 9q33 0 61.5 -12.5t50 -34t34 -50t12.5 -61.5v-114zM221 10q62 0 105 43
q44 44 44 104v134q-20 2 -34.5 17t-14.5 36t14.5 36t34.5 17v114q0 31 -12 58.5t-32 47.5t-47.5 32t-58.5 12q-26 0 -51 -9l-3 -1v-643zM374 300q19 0 32 13t13 32t-13 32t-32 13t-32 -13t-13 -32t13 -32t32 -13z" />
    <glyph glyph-name="dcaron" unicode="&#x10f;" horiz-adv-x="433" 
d="M218 725l-58 58l6 6l53 -53l53 53l6 -6zM377 396q20 -2 34.5 -17t14.5 -36t-14.5 -36t-34.5 -17v-134q0 -32 -12.5 -60.5t-34 -49.5t-50 -33.5t-60.5 -12.5h-198v8h60v652h-60v8h144v-9q25 9 53 9q33 0 61.5 -12.5t50 -34t34 -50t12.5 -61.5v-114zM221 10q62 0 105 43
q44 44 44 104v134q-20 2 -34.5 17t-14.5 36t14.5 36t34.5 17v114q0 31 -12 58.5t-32 47.5t-47.5 32t-58.5 12q-26 0 -51 -9l-3 -1v-643zM374 300q19 0 32 13t13 32t-13 32t-32 13t-32 -13t-13 -32t13 -32t32 -13z" />
    <glyph glyph-name="Dcroat" unicode="&#x110;" horiz-adv-x="423" 
d="M168 658q25 9 53 9q33 0 61.5 -12.5t50 -34t34 -50t12.5 -61.5v-354q0 -32 -12.5 -60.5t-34 -49.5t-50 -33.5t-60.5 -12.5h-198v8h60v297l-41 -12l-2 8l43 13v347h-60v8h144v-10zM372 510q0 31 -12 58.5t-32 47.5t-47.5 32t-58.5 12q-26 0 -51 -9l-3 -1v-312l100 30l2 -8
l-102 -30v-322h54q62 0 105 43q44 44 44 104z" />
    <glyph glyph-name="dcroat" unicode="&#x111;" horiz-adv-x="423" 
d="M168 658q25 9 53 9q33 0 61.5 -12.5t50 -34t34 -50t12.5 -61.5v-354q0 -32 -12.5 -60.5t-34 -49.5t-50 -33.5t-60.5 -12.5h-198v8h60v297l-41 -12l-2 8l43 13v347h-60v8h144v-10zM372 510q0 31 -12 58.5t-32 47.5t-47.5 32t-58.5 12q-26 0 -51 -9l-3 -1v-312l100 30l2 -8
l-102 -30v-322h54q62 0 105 43q44 44 44 104z" />
    <glyph glyph-name="Emacron" unicode="&#x112;" 
d="M278 755v-8h-130v8h130zM342 659h-174v-322l166 50l2 -8l-168 -50v-322h174v141h8v-149h-326v8h60v297l-41 -12l-2 8l43 13v347h-60v8h326v-149h-8v140z" />
    <glyph glyph-name="emacron" unicode="&#x113;" 
d="M277 755v-8h-130v8h130zM168 659v-322l166 50l2 -8l-168 -50v-322h174v141h8v-149h-326v8h60v297l-41 -12l-2 8l43 13v347h-60v8h326v-149h-8v141z" />
    <glyph glyph-name="Edotaccent" unicode="&#x116;" 
d="M248 762q0 -16 -10.5 -26.5t-25.5 -10.5q-16 0 -26.5 10.5t-10.5 26.5q0 15 10.5 25.5t26.5 10.5q15 0 25.5 -10.5t10.5 -25.5zM342 659h-174v-322l166 50l2 -8l-168 -50v-322h174v141h8v-149h-326v8h60v297l-41 -12l-2 8l43 13v347h-60v8h326v-149h-8v140z" />
    <glyph glyph-name="edotaccent" unicode="&#x117;" 
d="M247 762q0 -16 -10.5 -26.5t-25.5 -10.5q-16 0 -26.5 10.5t-10.5 26.5q0 15 10.5 25.5t26.5 10.5q15 0 25.5 -10.5t10.5 -25.5zM168 659v-322l166 50l2 -8l-168 -50v-322h174v141h8v-149h-326v8h60v297l-41 -12l-2 8l43 13v347h-60v8h326v-149h-8v141z" />
    <glyph glyph-name="Eogonek" unicode="&#x118;" 
d="M342 518v141h-174v-322l166 50l2 -8l-168 -50v-322h174v141h8v-149h-111l-59 -59q-13 -13 -13 -32t13 -32t32 -13q20 0 32 14l6 -6q-16 -16 -38 -16t-37.5 15t-15.5 38q0 22 16 38l53 53h-204v8h60v297l-41 -12l-2 8l43 13v347h-60v8h326v-149z" />
    <glyph glyph-name="eogonek" unicode="&#x119;" 
d="M342 518v141h-174v-322l166 50l2 -8l-168 -50v-322h174v141h8v-149h-111l-59 -59q-13 -13 -13 -32t13 -32t32 -13q20 0 32 14l6 -6q-16 -16 -38 -16t-37.5 15t-15.5 38q0 22 16 38l53 53h-204v8h60v297l-41 -12l-2 8l43 13v347h-60v8h326v-149z" />
    <glyph glyph-name="Ecaron" unicode="&#x11a;" 
d="M211 725l-58 58l6 6l53 -53l53 53l6 -6zM340 659h-174v-322l166 50l2 -8l-168 -50v-322h174v141h8v-149h-326v8h60v297l-41 -12l-2 8l43 13v347h-60v8h326v-149h-8v140z" />
    <glyph glyph-name="ecaron" unicode="&#x11b;" 
d="M210 725l-58 58l6 6l53 -53l53 53l6 -6zM166 659v-322l166 50l2 -8l-168 -50v-322h174v141h8v-149h-326v8h60v297l-41 -12l-2 8l43 13v347h-60v8h326v-149h-8v141z" />
    <glyph glyph-name="Gbreve" unicode="&#x11e;" horiz-adv-x="408" 
d="M171 783q0 -19 13 -32t32 -13t32 13t13 32h8q0 -23 -15.5 -38t-37.5 -15t-37.5 15t-15.5 38h8zM373 148q0 -33 -12.5 -61.5t-33.5 -49.5t-49.5 -33.5t-61.5 -12.5q-51 0 -91 29t-57 74q-5 13 -7 30t-2 53v312q0 36 2 53.5t7 29.5q16 45 55 74t89 29q51 0 90.5 -29.5
t54.5 -74.5v100h8v-153h-8v4q0 40 -20 73t-52 52q-21 12 -46 12q-26 0 -46.5 -12t-34.5 -32q-8 -11 -11.5 -27t-3.5 -51v-408q0 -32 3.5 -49.5t11.5 -28.5q14 -20 35.5 -32.5t47.5 -12.5t47 12q35 19 56 53.5t21 76.5v193l-113 -30l-2 8l123 33v-204z" />
    <glyph glyph-name="gbreve" unicode="&#x11f;" horiz-adv-x="408" 
d="M171 783q0 -19 13 -32t32 -13t32 13t13 32h8q0 -23 -15.5 -38t-37.5 -15t-37.5 15t-15.5 38h8zM373 148q0 -33 -12.5 -61.5t-33.5 -49.5t-49.5 -33.5t-61.5 -12.5q-51 0 -91 29t-57 74q-5 13 -7 30t-2 53v312q0 36 2 53.5t7 29.5q16 45 55 74t89 29q51 0 90.5 -29.5
t54.5 -74.5v100h8v-153h-8v4q0 40 -20 73t-52 52q-21 12 -46 12q-26 0 -46.5 -12t-34.5 -32q-8 -11 -11.5 -27t-3.5 -51v-408q0 -32 3.5 -49.5t11.5 -28.5q14 -20 35.5 -32.5t47.5 -12.5t47 12q35 19 56 53.5t21 76.5v193l-113 -30l-2 8l123 33v-204z" />
    <glyph glyph-name="Gdotaccent" unicode="&#x120;" horiz-adv-x="408" 
d="M251 762q0 -16 -10.5 -26.5t-25.5 -10.5q-16 0 -26.5 10.5t-10.5 26.5q0 15 10.5 25.5t26.5 10.5q15 0 25.5 -10.5t10.5 -25.5zM373 148q0 -33 -12.5 -61.5t-33.5 -49.5t-49.5 -33.5t-61.5 -12.5q-51 0 -91 29t-57 74q-5 13 -7 30t-2 53v312q0 36 2 53.5t7 29.5
q16 45 55 74t89 29q51 0 90.5 -29.5t54.5 -74.5v100h8v-153h-8v4q0 40 -20 73t-52 52q-21 12 -46 12q-26 0 -46.5 -12t-34.5 -32q-8 -11 -11.5 -27t-3.5 -51v-408q0 -32 3.5 -49.5t11.5 -28.5q14 -20 35.5 -32.5t47.5 -12.5t47 12q35 19 56 53.5t21 76.5v193l-113 -30l-2 8
l123 33v-204z" />
    <glyph glyph-name="gdotaccent" unicode="&#x121;" horiz-adv-x="408" 
d="M251 762q0 -16 -10.5 -26.5t-25.5 -10.5q-16 0 -26.5 10.5t-10.5 26.5q0 15 10.5 25.5t26.5 10.5q15 0 25.5 -10.5t10.5 -25.5zM373 148q0 -33 -12.5 -61.5t-33.5 -49.5t-49.5 -33.5t-61.5 -12.5q-51 0 -91 29t-57 74q-5 13 -7 30t-2 53v312q0 36 2 53.5t7 29.5
q16 45 55 74t89 29q51 0 90.5 -29.5t54.5 -74.5v100h8v-153h-8v4q0 40 -20 73t-52 52q-21 12 -46 12q-26 0 -46.5 -12t-34.5 -32q-8 -11 -11.5 -27t-3.5 -51v-408q0 -32 3.5 -49.5t11.5 -28.5q14 -20 35.5 -32.5t47.5 -12.5t47 12q35 19 56 53.5t21 76.5v193l-113 -30l-2 8
l123 33v-204z" />
    <glyph glyph-name="Gcommaaccent" unicode="&#x122;" horiz-adv-x="408" 
d="M373 148q0 -33 -12.5 -61.5t-33.5 -49.5t-49.5 -33.5t-61.5 -12.5q-51 0 -91 29t-57 74q-5 13 -7 30t-2 53v312q0 36 2 53.5t7 29.5q16 45 55 74t89 29q51 0 90.5 -29.5t54.5 -74.5v100h8v-153h-8v4q0 40 -20 73t-52 52q-21 12 -46 12q-26 0 -46.5 -12t-34.5 -32
q-8 -11 -11.5 -27t-3.5 -51v-408q0 -32 3.5 -49.5t11.5 -28.5q14 -20 35.5 -32.5t47.5 -12.5t47 12q35 19 56 53.5t21 76.5v193l-113 -30l-2 8l123 33v-204zM241 -112q-11 -9 -25 -9q-17 0 -28.5 11.5t-11.5 28.5t11.5 28.5t28.5 11.5t28.5 -11.5t11.5 -28.5q0 -5 -2 -13
l-24 -99l-8 2z" />
    <glyph glyph-name="gcommaaccent" unicode="&#x123;" horiz-adv-x="408" 
d="M373 148q0 -33 -12.5 -61.5t-33.5 -49.5t-49.5 -33.5t-61.5 -12.5q-51 0 -91 29t-57 74q-5 13 -7 30t-2 53v312q0 36 2 53.5t7 29.5q16 45 55 74t89 29q51 0 90.5 -29.5t54.5 -74.5v100h8v-153h-8v4q0 40 -20 73t-52 52q-21 12 -46 12q-26 0 -46.5 -12t-34.5 -32
q-8 -11 -11.5 -27t-3.5 -51v-408q0 -32 3.5 -49.5t11.5 -28.5q14 -20 35.5 -32.5t47.5 -12.5t47 12q35 19 56 53.5t21 76.5v193l-113 -30l-2 8l123 33v-204zM241 -112q-11 -9 -25 -9q-17 0 -28.5 11.5t-11.5 28.5t11.5 28.5t28.5 11.5t28.5 -11.5t11.5 -28.5q0 -5 -2 -13
l-24 -99l-8 2z" />
    <glyph glyph-name="Itilde" unicode="&#x128;" horiz-adv-x="252" 
d="M168 8h60v-8h-204v8h60v652h-60v8h204v-8h-60v-652zM94 748l-22 -20l-5 6l25 23l80 -24l22 20l5 -6l-25 -23z" />
    <glyph glyph-name="itilde" unicode="&#x129;" horiz-adv-x="252" 
d="M228 8v-8h-204v8h60v652h-60v8h204v-8h-60v-652h60zM94 748l-22 -20l-5 6l25 23l80 -24l22 20l5 -6l-25 -23z" />
    <glyph glyph-name="Imacron" unicode="&#x12a;" horiz-adv-x="252" 
d="M191 755v-8h-130v8h130zM228 8v-8h-204v8h60v652h-60v8h204v-8h-60v-652h60z" />
    <glyph glyph-name="imacron" unicode="&#x12b;" horiz-adv-x="252" 
d="M190 755v-8h-130v8h130zM228 0h-204v8h60v652h-60v8h204v-8h-60v-652h60v-8z" />
    <glyph glyph-name="Iogonek" unicode="&#x12e;" horiz-adv-x="252" 
d="M168 660v-652h60v-8h-64l-59 -59q-13 -13 -13 -32t13 -32t32 -13q20 0 32 14l6 -6q-16 -16 -38 -16t-37.5 15t-15.5 38q0 22 16 38l53 53h-129v8h60v652h-60v8h204v-8h-60z" />
    <glyph glyph-name="iogonek" unicode="&#x12f;" horiz-adv-x="252" 
d="M168 660v-652h60v-8h-63l-59 -59q-13 -13 -13 -32t13 -32t32 -13q20 0 32 14l6 -6q-16 -16 -38 -16t-37.5 15t-15.5 38q0 22 16 38l53 53h-130v8h60v652h-60v8h204v-8h-60z" />
    <glyph glyph-name="Idotaccent" unicode="&#x130;" horiz-adv-x="252" 
d="M161 762q0 -16 -10.5 -26.5t-25.5 -10.5q-16 0 -26.5 10.5t-10.5 26.5q0 15 10.5 25.5t26.5 10.5q15 0 25.5 -10.5t10.5 -25.5zM228 8v-8h-204v8h60v652h-60v8h204v-8h-60v-652h60z" />
    <glyph glyph-name="dotlessi" unicode="&#x131;" horiz-adv-x="252" 
d="M228 8v-8h-204v8h60v652h-60v8h204v-8h-60v-652h60z" />
    <glyph glyph-name="Kcommaaccent" unicode="&#x136;" horiz-adv-x="441" 
d="M228 0h-204v8h60v652h-60v8h204v-8h-60v-652h60v-8zM328 0l-122 331l142 329h-59v8h128v-8h-60l-101 -233l159 -419h51v-8h-138zM263 -111q-11 -9 -25 -9q-17 0 -28.5 11.5t-11.5 28.5t11.5 28.5t28.5 11.5t28.5 -11.5t11.5 -28.5q0 -5 -2 -13l-24 -99l-8 2z" />
    <glyph glyph-name="kcommaaccent" unicode="&#x137;" horiz-adv-x="441" 
d="M24 0v8h60v652h-60v8h204v-8h-60v-652h60v-8h-204zM206 331l142 329h-59v8h128v-8h-60l-101 -233l159 -419h51v-8h-138zM252 -111q-11 -9 -25 -9q-17 0 -28.5 11.5t-11.5 28.5t11.5 28.5t28.5 11.5t28.5 -11.5t11.5 -28.5q0 -5 -2 -13l-24 -99l-8 2z" />
    <glyph glyph-name="Lacute" unicode="&#x139;" horiz-adv-x="367" 
d="M135 816l8 -2l-22 -90l-8 2zM24 1v8h60v652h-60v8h204v-8h-60v-652h172v141h8v-149h-324z" />
    <glyph glyph-name="lacute" unicode="&#x13a;" horiz-adv-x="367" 
d="M134 816l8 -2l-22 -90l-8 2zM24 9h60v652h-60v8h204v-8h-60v-652h172v141h8v-149h-324v8z" />
    <glyph glyph-name="Lcommaaccent" unicode="&#x13b;" horiz-adv-x="367" 
d="M24 0v8h60v652h-60v8h204v-8h-60v-652h172v141h8v-149h-324zM222 -111q-11 -9 -25 -9q-17 0 -28.5 11.5t-11.5 28.5t11.5 28.5t28.5 11.5t28.5 -11.5t11.5 -28.5q0 -5 -2 -13l-24 -99l-8 2z" />
    <glyph glyph-name="lcommaaccent" unicode="&#x13c;" horiz-adv-x="367" 
d="M24 8h60v652h-60v8h204v-8h-60v-652h172v141h8v-149h-324v8zM221 -111q-11 -9 -25 -9q-17 0 -28.5 11.5t-11.5 28.5t11.5 28.5t28.5 11.5t28.5 -11.5t11.5 -28.5q0 -5 -2 -13l-24 -99l-8 2z" />
    <glyph glyph-name="Lcaron" unicode="&#x13d;" horiz-adv-x="367" 
d="M335 605q-11 -9 -25 -9q-17 0 -28.5 11.5t-11.5 28.5t11.5 28.5t28.5 11.5t28.5 -11.5t11.5 -28.5q0 -5 -2 -13l-24 -99l-8 2zM24 0v8h60v652h-60v8h204v-8h-60v-652h172v141h8v-149h-324z" />
    <glyph glyph-name="lcaron" unicode="&#x13e;" horiz-adv-x="367" 
d="M335 605q-11 -9 -25 -9q-17 0 -28.5 11.5t-11.5 28.5t11.5 28.5t28.5 11.5t28.5 -11.5t11.5 -28.5q0 -5 -2 -13l-24 -99l-8 2zM24 8h60v652h-60v8h204v-8h-60v-652h172v141h8v-149h-324v8z" />
    <glyph glyph-name="Ldot" unicode="&#x13f;" horiz-adv-x="367" 
d="M24 0v8h60v652h-60v8h204v-8h-60v-652h172v141h8v-149h-324zM350 344q0 -17 -11.5 -28.5t-28.5 -11.5t-28.5 11.5t-11.5 28.5t11.5 28.5t28.5 11.5t28.5 -11.5t11.5 -28.5z" />
    <glyph glyph-name="ldot" unicode="&#x140;" horiz-adv-x="367" 
d="M24 8h60v652h-60v8h204v-8h-60v-652h172v141h8v-149h-324v8zM349 344q0 -17 -11.5 -28.5t-28.5 -11.5t-28.5 11.5t-11.5 28.5t11.5 28.5t28.5 11.5t28.5 -11.5t11.5 -28.5z" />
    <glyph glyph-name="Lslash" unicode="&#x141;" horiz-adv-x="367" 
d="M348 149v-149h-324v8h60v296l-38 -11l-2 7l40 12v348h-60v8h204v-8h-60v-322l100 30l3 -8l-103 -31v-321h172v141h8z" />
    <glyph glyph-name="lslash" unicode="&#x142;" horiz-adv-x="367" 
d="M348 0h-324v8h60v296l-38 -11l-2 7l40 12v348h-60v8h204v-8h-60v-322l100 30l3 -8l-103 -31v-321h172v141h8v-149z" />
    <glyph glyph-name="Nacute" unicode="&#x143;" horiz-adv-x="442" 
d="M232 816l8 -2l-22 -90l-8 2zM367 661v-668h-8l-273 508v-492h60v-8h-128v8h60v652h-60v8h68l273 -502v494h-60v8h128v-8h-60z" />
    <glyph glyph-name="nacute" unicode="&#x144;" horiz-adv-x="442" 
d="M232 816l8 -2l-22 -90l-8 2zM367 -7h-8l-273 508v-492h60v-8h-128v8h60v652h-60v8h68l273 -502v494h-60v8h128v-8h-60v-668z" />
    <glyph glyph-name="Ncommaaccent" unicode="&#x145;" horiz-adv-x="442" 
d="M367 660v-668h-8l-273 508v-492h60v-8h-128v8h60v652h-60v8h68l273 -502v494h-60v8h128v-8h-60zM248 -111q-11 -9 -25 -9q-17 0 -28.5 11.5t-11.5 28.5t11.5 28.5t28.5 11.5t28.5 -11.5t11.5 -28.5q0 -5 -2 -13l-24 -99l-8 2z" />
    <glyph glyph-name="ncommaaccent" unicode="&#x146;" horiz-adv-x="442" 
d="M367 -8h-8l-273 508v-492h60v-8h-128v8h60v652h-60v8h68l273 -502v494h-60v8h128v-8h-60v-668zM248 -111q-11 -9 -25 -9q-17 0 -28.5 11.5t-11.5 28.5t11.5 28.5t28.5 11.5t28.5 -11.5t11.5 -28.5q0 -5 -2 -13l-24 -99l-8 2z" />
    <glyph glyph-name="Ncaron" unicode="&#x147;" horiz-adv-x="442" 
d="M221 725l-58 58l6 6l53 -53l53 53l6 -6zM365 660v-668h-8l-273 508v-492h60v-8h-128v8h60v652h-60v8h68l273 -502v494h-60v8h128v-8h-60z" />
    <glyph glyph-name="ncaron" unicode="&#x148;" horiz-adv-x="442" 
d="M221 725l-58 58l6 6l53 -53l53 53l6 -6zM365 -8h-8l-273 508v-492h60v-8h-128v8h60v652h-60v8h68l273 -502v494h-60v8h128v-8h-60v-668z" />
    <glyph glyph-name="Omacron" unicode="&#x14c;" horiz-adv-x="427" 
d="M283 755v-8h-130v8h130zM373 397q20 -2 34.5 -17t14.5 -36t-14.5 -36t-34.5 -17v-142q0 -33 -12.5 -61.5t-33.5 -49.5t-49.5 -33.5t-61.5 -12.5q-51 0 -91 29t-57 74q-5 13 -7 30t-2 53v312q0 35 2 52.5t7 30.5q17 45 57 74t91 29q33 0 61.5 -12.5t49.5 -33.5t33.5 -49.5
t12.5 -61.5v-122zM143 130q0 -32 3.5 -49.5t11.5 -28.5q14 -20 35.5 -32.5t47.5 -12.5t47 12q35 19 56 53t21 77v142q-20 2 -34.5 17t-14.5 36t14.5 36t34.5 17v122q0 42 -21 76.5t-56 53.5q-21 12 -47 12t-47.5 -12.5t-34.5 -32.5q-8 -11 -12 -28.5t-4 -49.5v-408zM369 299
q19 0 32 13t13 32t-13 32t-32 13t-32 -13t-13 -32t13 -32t32 -13z" />
    <glyph glyph-name="omacron" unicode="&#x14d;" horiz-adv-x="427" 
d="M283 755v-8h-130v8h130zM373 397q20 -2 34.5 -17t14.5 -36t-14.5 -36t-34.5 -17v-142q0 -33 -12.5 -61.5t-33.5 -49.5t-49.5 -33.5t-61.5 -12.5q-51 0 -91 29t-57 74q-5 13 -7 30t-2 53v312q0 35 2 52.5t7 30.5q17 45 57 74t91 29q33 0 61.5 -12.5t49.5 -33.5t33.5 -49.5
t12.5 -61.5v-122zM143 130q0 -32 3.5 -49.5t11.5 -28.5q14 -20 35.5 -32.5t47.5 -12.5t47 12q35 19 56 53t21 77v142q-20 2 -34.5 17t-14.5 36t14.5 36t34.5 17v122q0 42 -21 76.5t-56 53.5q-21 12 -47 12t-47.5 -12.5t-34.5 -32.5q-8 -11 -12 -28.5t-4 -49.5v-408zM369 299
q19 0 32 13t13 32t-13 32t-32 13t-32 -13t-13 -32t13 -32t32 -13z" />
    <glyph glyph-name="Ohungarumlaut" unicode="&#x150;" horiz-adv-x="427" 
d="M215 816l8 -2l-22 -90l-8 2zM255 816l8 -2l-22 -90l-8 2zM373 398q20 -2 34.5 -17t14.5 -36t-14.5 -36t-34.5 -17v-142q0 -33 -12.5 -61.5t-33.5 -49.5t-49.5 -33.5t-61.5 -12.5q-51 0 -91 29t-57 74q-5 13 -7 30t-2 53v312q0 35 2 52.5t7 30.5q17 45 57 74t91 29
q33 0 61.5 -12.5t49.5 -33.5t33.5 -49.5t12.5 -61.5v-122zM143 131q0 -32 3.5 -49.5t11.5 -28.5q14 -20 35.5 -32.5t47.5 -12.5t47 12q35 19 56 53t21 77v142q-20 2 -34.5 17t-14.5 36t14.5 36t34.5 17v122q0 42 -21 76.5t-56 53.5q-21 12 -47 12t-47.5 -12.5t-34.5 -32.5
q-8 -11 -12 -28.5t-4 -49.5v-408zM369 300q19 0 32 13t13 32t-13 32t-32 13t-32 -13t-13 -32t13 -32t32 -13z" />
    <glyph glyph-name="ohungarumlaut" unicode="&#x151;" horiz-adv-x="427" 
d="M215 816l8 -2l-22 -90l-8 2zM255 816l8 -2l-22 -90l-8 2zM373 398q20 -2 34.5 -17t14.5 -36t-14.5 -36t-34.5 -17v-142q0 -33 -12.5 -61.5t-33.5 -49.5t-49.5 -33.5t-61.5 -12.5q-51 0 -91 29t-57 74q-5 13 -7 30t-2 53v312q0 35 2 52.5t7 30.5q17 45 57 74t91 29
q33 0 61.5 -12.5t49.5 -33.5t33.5 -49.5t12.5 -61.5v-122zM143 131q0 -32 3.5 -49.5t11.5 -28.5q14 -20 35.5 -32.5t47.5 -12.5t47 12q35 19 56 53t21 77v142q-20 2 -34.5 17t-14.5 36t14.5 36t34.5 17v122q0 42 -21 76.5t-56 53.5q-21 12 -47 12t-47.5 -12.5t-34.5 -32.5
q-8 -11 -12 -28.5t-4 -49.5v-408zM369 300q19 0 32 13t13 32t-13 32t-32 13t-32 -13t-13 -32t13 -32t32 -13z" />
    <glyph glyph-name="OE" unicode="&#x152;" horiz-adv-x="661" 
d="M623 519v141h-174v-322l166 50l2 -8l-168 -50v-322h174v141h8v-149h-266v99q-16 -47 -56.5 -77t-93.5 -30q-51 0 -91 29t-57 74q-5 13 -7 30t-2 53v312q0 35 2 52.5t7 30.5q17 45 57 74t91 29q53 0 93.5 -30t56.5 -77v99h266v-149h-8zM143 130q0 -32 3.5 -49.5
t11.5 -28.5q14 -20 35.5 -32.5t47.5 -12.5t47 12q35 19 56 53t21 77v156l-112 -34l-2 8l114 34v206q0 42 -21 76.5t-56 53.5q-21 12 -47 12t-47.5 -12.5t-34.5 -32.5q-8 -11 -12 -28.5t-4 -49.5v-408z" />
    <glyph glyph-name="oe" unicode="&#x153;" horiz-adv-x="661" 
d="M623 660h-174v-322l166 50l2 -8l-168 -50v-322h174v141h8v-149h-266v99q-16 -47 -56.5 -77t-93.5 -30q-51 0 -91 29t-57 74q-5 13 -7 30t-2 53v312q0 35 2 52.5t7 30.5q17 45 57 74t91 29q53 0 93.5 -30t56.5 -77v99h266v-149h-8v141zM143 130q0 -32 3.5 -49.5
t11.5 -28.5q14 -20 35.5 -32.5t47.5 -12.5t47 12q35 19 56 53t21 77v156l-112 -34l-2 8l114 34v206q0 42 -21 76.5t-56 53.5q-21 12 -47 12t-47.5 -12.5t-34.5 -32.5q-8 -11 -12 -28.5t-4 -49.5v-408z" />
    <glyph glyph-name="Racute" unicode="&#x154;" horiz-adv-x="439" 
d="M244 816l8 -2l-22 -90l-8 2zM327 2l-122 283l126 117q24 23 36 51.5t12 58.5q0 28 -10 54.5t-30 48.5q-27 29 -57 38t-53 9q-31 0 -61 -14v-639h60v-8h-204v8h60v652h-60v8h144v-12q28 12 61 12q23 0 55 -10t61 -41q21 -23 31.5 -51t10.5 -57q0 -32 -12.5 -62t-37.5 -53
l-64 -60l142 -326h51v-8z" />
    <glyph glyph-name="racute" unicode="&#x155;" horiz-adv-x="439" 
d="M243 816l8 -2l-22 -90l-8 2zM205 285l126 117q24 23 36 51.5t12 58.5q0 28 -10 54.5t-30 48.5q-27 29 -57 38t-53 9q-31 0 -61 -14v-639h60v-8h-204v8h60v652h-60v8h144v-12q28 12 61 12q23 0 55 -10t61 -41q21 -23 31.5 -51t10.5 -57q0 -32 -12.5 -62t-37.5 -53l-64 -60
l142 -326h51v-8h-138z" />
    <glyph glyph-name="Rcommaaccent" unicode="&#x156;" horiz-adv-x="439" 
d="M327 1l-122 283l126 117q24 23 36 51.5t12 58.5q0 28 -10 54.5t-30 48.5q-27 29 -57 38t-53 9q-31 0 -61 -14v-639h60v-8h-204v8h60v652h-60v8h144v-12q28 12 61 12q23 0 55 -10t61 -41q21 -23 31.5 -51t10.5 -57q0 -32 -12.5 -62t-37.5 -53l-64 -60l142 -326h51v-8z
M252 -110q-11 -9 -25 -9q-17 0 -28.5 11.5t-11.5 28.5t11.5 28.5t28.5 11.5t28.5 -11.5t11.5 -28.5q0 -5 -2 -13l-24 -99l-8 2z" />
    <glyph glyph-name="rcommaaccent" unicode="&#x157;" horiz-adv-x="439" 
d="M205 284l126 117q24 23 36 51.5t12 58.5q0 28 -10 54.5t-30 48.5q-27 29 -57 38t-53 9q-31 0 -61 -14v-639h60v-8h-204v8h60v652h-60v8h144v-12q28 12 61 12q23 0 55 -10t61 -41q21 -23 31.5 -51t10.5 -57q0 -32 -12.5 -62t-37.5 -53l-64 -60l142 -326h51v-8h-138z
M251 -110q-11 -9 -25 -9q-17 0 -28.5 11.5t-11.5 28.5t11.5 28.5t28.5 11.5t28.5 -11.5t11.5 -28.5q0 -5 -2 -13l-24 -99l-8 2z" />
    <glyph glyph-name="Rcaron" unicode="&#x158;" horiz-adv-x="439" 
d="M233 725l-58 58l6 6l53 -53l53 53l6 -6zM325 1l-122 283l126 117q24 23 36 51.5t12 58.5q0 28 -10 54.5t-30 48.5q-27 29 -57 38t-53 9q-31 0 -61 -14v-639h60v-8h-204v8h60v652h-60v8h144v-12q28 12 61 12q23 0 55 -10t61 -41q21 -23 31.5 -51t10.5 -57q0 -32 -12.5 -62
t-37.5 -53l-64 -60l142 -326h51v-8z" />
    <glyph glyph-name="rcaron" unicode="&#x159;" horiz-adv-x="439" 
d="M232 725l-58 58l6 6l53 -53l53 53l6 -6zM203 284l126 117q24 23 36 51.5t12 58.5q0 28 -10 54.5t-30 48.5q-27 29 -57 38t-53 9q-31 0 -61 -14v-639h60v-8h-204v8h60v652h-60v8h144v-12q28 12 61 12q23 0 55 -10t61 -41q21 -23 31.5 -51t10.5 -57q0 -32 -12.5 -62
t-37.5 -53l-64 -60l142 -326h51v-8h-138z" />
    <glyph glyph-name="Sacute" unicode="&#x15a;" horiz-adv-x="383" 
d="M196 816l8 -2l-22 -90l-8 2zM323 533q0 28 -10.5 53t-29 43.5t-43.5 29t-53 10.5q-35 0 -59.5 -24.5t-24.5 -59.5q0 -23 6 -43.5t20 -44.5t37 -54.5t58 -72.5q31 -38 54 -68.5t38 -57t22 -50t7 -47.5q0 -32 -12 -60t-33 -49t-49 -33t-60 -12t-60 12t-49 33t-33 49t-12 60
h8q0 -50 29.5 -88t74.5 -52q23 -7 46 -2.5t42 18t30.5 34t11.5 46.5q0 21 -5.5 41t-19 44.5t-36.5 56t-58 75.5q-31 39 -53 68.5t-36.5 54t-21 46t-6.5 44.5q0 30 11.5 56t31 45.5t45.5 31t56 11.5q48 0 84.5 -27.5t51.5 -69.5v93h8v-153h-8v13z" />
    <glyph glyph-name="sacute" unicode="&#x15b;" horiz-adv-x="383" 
d="M196 816l8 -2l-22 -90l-8 2zM323 533q0 28 -10.5 53t-29 43.5t-43.5 29t-53 10.5q-35 0 -59.5 -24.5t-24.5 -59.5q0 -23 6 -43.5t20 -44.5t37 -54.5t58 -72.5q31 -38 54 -68.5t38 -57t22 -50t7 -47.5q0 -32 -12 -60t-33 -49t-49 -33t-60 -12t-60 12t-49 33t-33 49t-12 60
h8q0 -50 29.5 -88t74.5 -52q23 -7 46 -2.5t42 18t30.5 34t11.5 46.5q0 21 -5.5 41t-19 44.5t-36.5 56t-58 75.5q-31 39 -53 68.5t-36.5 54t-21 46t-6.5 44.5q0 30 11.5 56t31 45.5t45.5 31t56 11.5q48 0 84.5 -27.5t51.5 -69.5v93h8v-153h-8v13z" />
    <glyph glyph-name="Scedilla" unicode="&#x15e;" horiz-adv-x="383" 
d="M323 532q0 28 -10.5 53t-29 43.5t-43.5 29t-53 10.5q-35 0 -59.5 -24.5t-24.5 -59.5q0 -23 6 -43.5t20 -44.5t37 -54.5t58 -72.5q31 -38 54 -68.5t38 -57t22 -50t7 -47.5q0 -31 -11.5 -58.5t-32 -48.5t-47.5 -33.5t-58 -13.5v-38q19 -2 32 -17t13 -35q0 -22 -15 -37.5
t-38 -15.5v8q19 0 32 13t13 32t-13 32t-32 13v45q-32 1 -59.5 13t-47.5 33t-32 48.5t-12 59.5h8q0 -50 29.5 -88t74.5 -52q23 -7 46 -2.5t42 18t30.5 34t11.5 46.5q0 21 -5.5 41t-19 44.5t-36.5 56t-58 75.5q-31 39 -53 68.5t-36.5 54t-21 46t-6.5 44.5q0 30 11.5 56
t31 45.5t45.5 31t56 11.5q48 0 84.5 -27.5t51.5 -69.5v93h8v-153h-8v13z" />
    <glyph glyph-name="scedilla" unicode="&#x15f;" horiz-adv-x="383" 
d="M323 532q0 28 -10.5 53t-29 43.5t-43.5 29t-53 10.5q-35 0 -59.5 -24.5t-24.5 -59.5q0 -23 6 -43.5t20 -44.5t37 -54.5t58 -72.5q31 -38 54 -68.5t38 -57t22 -50t7 -47.5q0 -32 -12 -59.5t-32 -48.5t-47.5 -33t-58.5 -13v-38q19 -2 32 -17t13 -35q0 -22 -15 -37.5
t-38 -15.5v8q19 0 32 13t13 32t-13 32t-32 13v45q-31 1 -58.5 13t-47.5 33t-32 48.5t-12 59.5h8q0 -50 29.5 -88t74.5 -52q23 -7 46 -2.5t42 18t30.5 34t11.5 46.5q0 21 -5.5 41t-19 44.5t-36.5 56t-58 75.5q-31 39 -53 68.5t-36.5 54t-21 46t-6.5 44.5q0 30 11.5 56
t31 45.5t45.5 31t56 11.5q48 0 84.5 -27.5t51.5 -69.5v93h8v-153h-8v13z" />
    <glyph glyph-name="Scaron" unicode="&#x160;" horiz-adv-x="383" 
d="M185 725l-58 58l6 6l53 -53l53 53l6 -6zM321 532q0 28 -10.5 53t-29 43.5t-43.5 29t-53 10.5q-35 0 -59.5 -24.5t-24.5 -59.5q0 -23 6 -43.5t20 -44.5t37 -54.5t58 -72.5q31 -38 54 -68.5t38 -57t22 -50t7 -47.5q0 -32 -12 -60t-33 -49t-49 -33t-60 -12t-60 12t-49 33
t-33 49t-12 60h8q0 -50 29.5 -88t74.5 -52q23 -7 46 -2.5t42 18t30.5 34t11.5 46.5q0 21 -5.5 41t-19 44.5t-36.5 56t-58 75.5q-31 39 -53 68.5t-36.5 54t-21 46t-6.5 44.5q0 30 11.5 56t31 45.5t45.5 31t56 11.5q48 0 84.5 -27.5t51.5 -69.5v93h8v-153h-8v13z" />
    <glyph glyph-name="scaron" unicode="&#x161;" horiz-adv-x="383" 
d="M185 725l-58 58l6 6l53 -53l53 53l6 -6zM321 532q0 28 -10.5 53t-29 43.5t-43.5 29t-53 10.5q-35 0 -59.5 -24.5t-24.5 -59.5q0 -23 6 -43.5t20 -44.5t37 -54.5t58 -72.5q31 -38 54 -68.5t38 -57t22 -50t7 -47.5q0 -32 -12 -60t-33 -49t-49 -33t-60 -12t-60 12t-49 33
t-33 49t-12 60h8q0 -50 29.5 -88t74.5 -52q23 -7 46 -2.5t42 18t30.5 34t11.5 46.5q0 21 -5.5 41t-19 44.5t-36.5 56t-58 75.5q-31 39 -53 68.5t-36.5 54t-21 46t-6.5 44.5q0 30 11.5 56t31 45.5t45.5 31t56 11.5q48 0 84.5 -27.5t51.5 -69.5v93h8v-153h-8v13z" />
    <glyph glyph-name="Tcedilla" unicode="&#x162;" horiz-adv-x="420" 
d="M387 668v-149h-8v141h-127v-652h60v-8h-98v-46q19 -2 32 -17t13 -35q0 -22 -15 -37.5t-38 -15.5v8q19 0 32 13t13 32t-13 32t-32 13v53h-98v8h60v652h-127v-141h-8v149h354z" />
    <glyph glyph-name="tcedilla" unicode="&#x163;" horiz-adv-x="420" 
d="M387 668v-149h-8v141h-127v-652h60v-8h-100v-46q19 -2 32 -17t13 -35q0 -22 -15 -37.5t-38 -15.5v8q19 0 32 13t13 32t-13 32t-32 13v53h-96v8h60v652h-127v-141h-8v149h354z" />
    <glyph glyph-name="Tcaron" unicode="&#x164;" horiz-adv-x="420" 
d="M208 725l-58 58l6 6l53 -53l53 53l6 -6zM377 519v141h-127v-652h60v-8h-204v8h60v652h-127v-141h-8v149h354v-149h-8z" />
    <glyph glyph-name="tcaron" unicode="&#x165;" horiz-adv-x="420" 
d="M150 783l6 6l53 -53l53 53l6 -6l-58 -58zM377 660h-127v-652h60v-8h-204v8h60v652h-127v-141h-8v149h354v-149h-8v141z" />
    <glyph glyph-name="Tbar" unicode="&#x166;" horiz-adv-x="420" 
d="M386 668v-149h-8v141h-127v-313l71 21l2 -8l-73 -22v-331h60v-8h-204v8h60v306l-70 -21l-2 8l73 22v338h-127v-141h-8v149h353z" />
    <glyph glyph-name="tbar" unicode="&#x167;" horiz-adv-x="420" 
d="M386 519h-8v141h-127v-313l71 21l2 -8l-73 -22v-331h60v-8h-204v8h60v306l-70 -21l-2 8l73 22v338h-127v-141h-8v149h354z" />
    <glyph glyph-name="Utilde" unicode="&#x168;" horiz-adv-x="462" 
d="M389 660v-263q20 -2 34.5 -17t14.5 -36t-14.5 -36t-34.5 -17v-145q0 -32 -12 -60t-33 -49t-49 -33t-60 -12q-51 0 -90 29t-55 74q-5 12 -7 29.5t-2 53.5v482h-60v8h204v-8h-60v-532q0 -30 4 -47.5t11 -28.5q13 -20 34 -32.5t47 -12.5q13 0 24.5 3.5t21.5 8.5
q33 19 53.5 52.5t20.5 74.5v145q-20 2 -34.5 17t-14.5 36t14.5 36t34.5 17v263h-60v8h128v-8h-60zM430 344q0 19 -13 32t-32 13t-32 -13t-13 -32t13 -32t32 -13t32 13t13 32zM217 748l-22 -20l-5 6l25 23l80 -24l22 20l5 -6l-25 -23z" />
    <glyph glyph-name="utilde" unicode="&#x169;" horiz-adv-x="462" 
d="M389 397q20 -2 34.5 -17t14.5 -36t-14.5 -36t-34.5 -17v-145q0 -32 -12 -60t-33 -49t-49 -33t-60 -12q-51 0 -90 29t-55 74q-5 12 -7 29.5t-2 53.5v482h-60v8h204v-8h-60v-532q0 -30 4 -47.5t11 -28.5q13 -20 34 -32.5t47 -12.5q13 0 24.5 3.5t21.5 8.5q33 19 53.5 52.5
t20.5 74.5v145q-20 2 -34.5 17t-14.5 36t14.5 36t34.5 17v263h-60v8h128v-8h-60v-263zM430 344q0 19 -13 32t-32 13t-32 -13t-13 -32t13 -32t32 -13t32 13t13 32zM217 748l-22 -20l-5 6l25 23l80 -24l22 20l5 -6l-25 -23z" />
    <glyph glyph-name="Umacron" unicode="&#x16a;" horiz-adv-x="462" 
d="M338 755v-8h-130v8h130zM389 397q20 -2 34.5 -17t14.5 -36t-14.5 -36t-34.5 -17v-145q0 -32 -12 -60t-33 -49t-49 -33t-60 -12q-51 0 -90 29t-55 74q-5 12 -7 29.5t-2 53.5v482h-60v8h204v-8h-60v-532q0 -30 4 -47.5t11 -28.5q13 -20 34 -32.5t47 -12.5q13 0 24.5 3.5
t21.5 8.5q33 19 53.5 52.5t20.5 74.5v145q-20 2 -34.5 17t-14.5 36t14.5 36t34.5 17v263h-60v8h128v-8h-60v-263zM430 344q0 19 -13 32t-32 13t-32 -13t-13 -32t13 -32t32 -13t32 13t13 32z" />
    <glyph glyph-name="umacron" unicode="&#x16b;" horiz-adv-x="462" 
d="M338 755v-8h-130v8h130zM389 397q20 -2 34.5 -17t14.5 -36t-14.5 -36t-34.5 -17v-145q0 -32 -12 -60t-33 -49t-49 -33t-60 -12q-51 0 -90 29t-55 74q-5 12 -7 29.5t-2 53.5v482h-60v8h204v-8h-60v-532q0 -30 4 -47.5t11 -28.5q13 -20 34 -32.5t47 -12.5q13 0 24.5 3.5
t21.5 8.5q33 19 53.5 52.5t20.5 74.5v145q-20 2 -34.5 17t-14.5 36t14.5 36t34.5 17v263h-60v8h128v-8h-60v-263zM430 344q0 19 -13 32t-32 13t-32 -13t-13 -32t13 -32t32 -13t32 13t13 32z" />
    <glyph glyph-name="Uring" unicode="&#x16e;" horiz-adv-x="462" 
d="M220 778q0 22 15.5 37.5t37.5 15.5t37.5 -15.5t15.5 -37.5q0 -23 -15.5 -38t-37.5 -15t-37.5 15t-15.5 38zM318 778q0 18 -13 31.5t-32 13.5t-32 -13.5t-13 -31.5q0 -19 13 -32t32 -13t32 13t13 32zM389 397q20 -2 34.5 -17t14.5 -36t-14.5 -36t-34.5 -17v-145
q0 -32 -12 -60t-33 -49t-49 -33t-60 -12q-51 0 -90 29t-55 74q-5 12 -7 29.5t-2 53.5v482h-60v8h204v-8h-60v-532q0 -30 4 -47.5t11 -28.5q13 -20 34 -32.5t47 -12.5q13 0 24.5 3.5t21.5 8.5q33 19 53.5 52.5t20.5 74.5v145q-20 2 -34.5 17t-14.5 36t14.5 36t34.5 17v263
h-60v8h128v-8h-60v-263zM430 344q0 19 -13 32t-32 13t-32 -13t-13 -32t13 -32t32 -13t32 13t13 32z" />
    <glyph glyph-name="uring" unicode="&#x16f;" horiz-adv-x="462" 
d="M220 778q0 22 15.5 37.5t37.5 15.5t37.5 -15.5t15.5 -37.5q0 -23 -15.5 -38t-37.5 -15t-37.5 15t-15.5 38zM318 778q0 18 -13 31.5t-32 13.5t-32 -13.5t-13 -31.5q0 -19 13 -32t32 -13t32 13t13 32zM389 397q20 -2 34.5 -17t14.5 -36t-14.5 -36t-34.5 -17v-145
q0 -32 -12 -60t-33 -49t-49 -33t-60 -12q-51 0 -90 29t-55 74q-5 12 -7 29.5t-2 53.5v482h-60v8h204v-8h-60v-532q0 -30 4 -47.5t11 -28.5q13 -20 34 -32.5t47 -12.5q13 0 24.5 3.5t21.5 8.5q33 19 53.5 52.5t20.5 74.5v145q-20 2 -34.5 17t-14.5 36t14.5 36t34.5 17v263
h-60v8h128v-8h-60v-263zM430 344q0 19 -13 32t-32 13t-32 -13t-13 -32t13 -32t32 -13t32 13t13 32z" />
    <glyph glyph-name="Uhungarumlaut" unicode="&#x170;" horiz-adv-x="462" 
d="M270 816l8 -2l-22 -90l-8 2zM310 816l8 -2l-22 -90l-8 2zM389 398q20 -2 34.5 -17t14.5 -36t-14.5 -36t-34.5 -17v-145q0 -32 -12 -60t-33 -49t-49 -33t-60 -12q-51 0 -90 29t-55 74q-5 12 -7 29.5t-2 53.5v482h-60v8h204v-8h-60v-532q0 -30 4 -47.5t11 -28.5
q13 -20 34 -32.5t47 -12.5q13 0 24.5 3.5t21.5 8.5q33 19 53.5 52.5t20.5 74.5v145q-20 2 -34.5 17t-14.5 36t14.5 36t34.5 17v263h-60v8h128v-8h-60v-263zM430 345q0 19 -13 32t-32 13t-32 -13t-13 -32t13 -32t32 -13t32 13t13 32z" />
    <glyph glyph-name="uhungarumlaut" unicode="&#x171;" horiz-adv-x="462" 
d="M270 816l8 -2l-22 -90l-8 2zM310 816l8 -2l-22 -90l-8 2zM389 398q20 -2 34.5 -17t14.5 -36t-14.5 -36t-34.5 -17v-145q0 -32 -12 -60t-33 -49t-49 -33t-60 -12q-51 0 -90 29t-55 74q-5 12 -7 29.5t-2 53.5v482h-60v8h204v-8h-60v-532q0 -30 4 -47.5t11 -28.5
q13 -20 34 -32.5t47 -12.5q13 0 24.5 3.5t21.5 8.5q33 19 53.5 52.5t20.5 74.5v145q-20 2 -34.5 17t-14.5 36t14.5 36t34.5 17v263h-60v8h128v-8h-60v-263zM430 345q0 19 -13 32t-32 13t-32 -13t-13 -32t13 -32t32 -13t32 13t13 32z" />
    <glyph glyph-name="Uogonek" unicode="&#x172;" horiz-adv-x="462" 
d="M388 398q20 -2 34.5 -17t14.5 -36t-14.5 -36t-34.5 -17v-145q0 -35 -13 -62.5t-33 -48.5l-93 -95q-13 -13 -13 -32t13 -32t32 -13q20 0 32 14l6 -6q-16 -16 -38 -16t-37.5 15t-15.5 38q0 22 16 38l63 63q-16 -8 -34 -13t-38 -5q-51 0 -90 29t-55 74q-5 12 -7 29.5
t-2 53.5v482h-60v8h204v-8h-60v-532q0 -30 4 -47.5t11 -28.5q13 -20 34 -32.5t47 -12.5q13 0 24.5 3.5t21.5 8.5q33 19 53.5 52.5t20.5 74.5v145q-20 2 -34.5 17t-14.5 36t14.5 36t34.5 17v263h-60v8h128v-8h-60zM429 345q0 19 -13 32t-32 13t-32 -13t-13 -32t13 -32t32 -13
t32 13t13 32z" />
    <glyph glyph-name="uogonek" unicode="&#x173;" horiz-adv-x="462" 
d="M388 398q20 -2 34.5 -17t14.5 -36t-14.5 -36t-34.5 -17v-145q0 -35 -13 -62.5t-33 -48.5l-93 -95q-13 -13 -13 -32t13 -32t32 -13q20 0 32 14l6 -6q-16 -16 -38 -16t-37.5 15t-15.5 38q0 22 16 38l63 63q-16 -8 -34 -13t-38 -5q-51 0 -90 29t-55 74q-5 12 -7 29.5
t-2 53.5v482h-60v8h204v-8h-60v-532q0 -30 4 -47.5t11 -28.5q13 -20 34 -32.5t47 -12.5q13 0 24.5 3.5t21.5 8.5q33 19 53.5 52.5t20.5 74.5v145q-20 2 -34.5 17t-14.5 36t14.5 36t34.5 17v263h-60v8h128v-8h-60zM429 345q0 19 -13 32t-32 13t-32 -13t-13 -32t13 -32t32 -13
t32 13t13 32z" />
    <glyph glyph-name="Wcircumflex" unicode="&#x174;" horiz-adv-x="574" 
d="M302 789l58 -58l-6 -6l-53 53l-53 -53l-6 6zM544 660l-162 -668h-8l-82 343l-83 -343h-8l-160 668h-56v8h406l-48 -197l74 -300l118 489h-60v8h128v-8h-59zM214 661h-90l120 -489l44 180zM339 489l42 172h-84z" />
    <glyph glyph-name="wcircumflex" unicode="&#x175;" horiz-adv-x="574" 
d="M302 789l58 -58l-6 -6l-53 53l-53 -53l-6 6zM382 -8h-8l-82 343l-83 -343h-8l-160 668h-56v8h406l-48 -197l74 -300l118 489h-60v8h128v-8h-59zM124 661l120 -489l44 180l-74 308zM381 661h-84l42 -172z" />
    <glyph glyph-name="Ycircumflex" unicode="&#x176;" horiz-adv-x="409" 
d="M212 789l58 -58l-6 -6l-53 53l-53 -53l-6 6zM428 660h-57l-117 -372v-280h60v-8h-204v8h60v278l-128 374h-57v8h139l126 -367l51 163l-70 204h197v-8zM242 660l63 -183l58 183h-121z" />
    <glyph glyph-name="ycircumflex" unicode="&#x177;" horiz-adv-x="409" 
d="M212 789l58 -58l-6 -6l-53 53l-53 -53l-6 6zM371 660l-117 -372v-280h60v-8h-204v8h60v278l-128 374h-57v8h139l126 -367l51 163l-70 204h197v-8h-57zM304 477l58 183h-120z" />
    <glyph glyph-name="Ydieresis" unicode="&#x178;" horiz-adv-x="409" 
d="M188 762q0 -16 -10.5 -26.5t-25.5 -10.5q-16 0 -26.5 10.5t-10.5 26.5q0 15 10.5 25.5t26.5 10.5q15 0 25.5 -10.5t10.5 -25.5zM305 762q0 -16 -10.5 -26.5t-25.5 -10.5q-16 0 -26.5 10.5t-10.5 26.5q0 15 10.5 25.5t26.5 10.5q15 0 25.5 -10.5t10.5 -25.5zM426 660h-57
l-117 -372v-280h60v-8h-204v8h60v278l-128 374h-57v8h139l126 -367l51 163l-70 204h197v-8zM240 660l63 -183l58 183h-121z" />
    <glyph glyph-name="Zacute" unicode="&#x179;" horiz-adv-x="374" 
d="M205 816l8 -2l-22 -90l-8 2zM327 9v141h8v-149h-308l113 322l-90 -27l-2 8l95 29l116 329h-203v-141h-8v149h299l-106 -308l93 28l2 -8l-99 -30l-118 -343h208z" />
    <glyph glyph-name="zacute" unicode="&#x17a;" horiz-adv-x="374" 
d="M205 816l8 -2l-22 -90l-8 2zM327 150h8v-149h-308l113 322l-90 -27l-2 8l95 29l116 329h-203v-141h-8v149h299l-106 -308l93 28l2 -8l-99 -30l-118 -343h208v141z" />
    <glyph glyph-name="Zdotaccent" unicode="&#x17b;" horiz-adv-x="374" 
d="M231 762q0 -16 -10.5 -26.5t-25.5 -10.5q-16 0 -26.5 10.5t-10.5 26.5q0 15 10.5 25.5t26.5 10.5q15 0 25.5 -10.5t10.5 -25.5zM327 8v141h8v-149h-308l113 322l-90 -27l-2 8l95 29l116 329h-203v-141h-8v149h299l-106 -308l93 28l2 -8l-99 -30l-118 -343h208z" />
    <glyph glyph-name="zdotaccent" unicode="&#x17c;" horiz-adv-x="374" 
d="M231 762q0 -16 -10.5 -26.5t-25.5 -10.5q-16 0 -26.5 10.5t-10.5 26.5q0 15 10.5 25.5t26.5 10.5q15 0 25.5 -10.5t10.5 -25.5zM327 149h8v-149h-308l113 322l-90 -27l-2 8l95 29l116 329h-203v-141h-8v149h299l-106 -308l93 28l2 -8l-99 -30l-118 -343h208v141z" />
    <glyph glyph-name="Zcaron" unicode="&#x17d;" horiz-adv-x="374" 
d="M194 725l-58 58l6 6l53 -53l53 53l6 -6zM325 8v141h8v-149h-308l113 322l-90 -27l-2 8l95 29l116 329h-203v-141h-8v149h299l-106 -308l93 28l2 -8l-99 -30l-118 -343h208z" />
    <glyph glyph-name="zcaron" unicode="&#x17e;" horiz-adv-x="374" 
d="M194 725l-58 58l6 6l53 -53l53 53l6 -6zM325 149h8v-149h-308l113 322l-90 -27l-2 8l95 29l116 329h-203v-141h-8v149h299l-106 -308l93 28l2 -8l-99 -30l-118 -343h208v141z" />
    <glyph glyph-name="Ohorn" unicode="&#x1a0;" horiz-adv-x="427" 
d="M373 397q20 -2 34.5 -17t14.5 -36t-14.5 -36t-34.5 -17v-142q0 -33 -12.5 -61.5t-33.5 -49.5t-49.5 -33.5t-61.5 -12.5q-51 0 -91 29t-57 74q-5 13 -7 30t-2 53v312q0 35 2 52.5t7 30.5q17 45 57 74t91 29q33 0 61.5 -12.5t49.5 -33.5t33 -50q2 -3 3 -6l40 63
q-12 -6 -26 -1q-16 6 -23 21t-2 30q5 16 20 23t31 2t23 -20t2 -31q-2 -5 -7 -12l-55 -85q7 -21 7 -45v-122zM143 130q0 -32 3.5 -49.5t11.5 -28.5q14 -20 35.5 -32.5t47.5 -12.5t47 12q35 19 56 53t21 77v142q-20 2 -34.5 17t-14.5 36t14.5 36t34.5 17v122q0 42 -21 76.5
t-56 53.5q-21 12 -47 12t-47.5 -12.5t-34.5 -32.5q-8 -11 -12 -28.5t-4 -49.5v-408zM369 299q19 0 32 13t13 32t-13 32t-32 13t-32 -13t-13 -32t13 -32t32 -13z" />
    <glyph glyph-name="ohorn" unicode="&#x1a1;" horiz-adv-x="427" 
d="M373 397q20 -2 34.5 -17t14.5 -36t-14.5 -36t-34.5 -17v-142q0 -33 -12.5 -61.5t-33.5 -49.5t-49.5 -33.5t-61.5 -12.5q-51 0 -91 29t-57 74q-5 13 -7 30t-2 53v312q0 35 2 52.5t7 30.5q17 45 57 74t91 29q33 0 61.5 -12.5t49.5 -33.5t33 -50q2 -3 3 -6l40 63
q-12 -6 -26 -1q-16 6 -23 21t-2 30q5 16 20 23t31 2t23 -20t2 -31q-2 -5 -7 -12l-55 -85q7 -21 7 -45v-122zM143 130q0 -32 3.5 -49.5t11.5 -28.5q14 -20 35.5 -32.5t47.5 -12.5t47 12q35 19 56 53t21 77v142q-20 2 -34.5 17t-14.5 36t14.5 36t34.5 17v122q0 42 -21 76.5
t-56 53.5q-21 12 -47 12t-47.5 -12.5t-34.5 -32.5q-8 -11 -12 -28.5t-4 -49.5v-408zM369 299q19 0 32 13t13 32t-13 32t-32 13t-32 -13t-13 -32t13 -32t32 -13z" />
    <glyph glyph-name="Uhorn" unicode="&#x1af;" horiz-adv-x="462" 
d="M425 637q-12 -6 -26 -1q-16 6 -23 21t-2 30q5 16 20 23t31 2t23 -20t2 -31q-2 -5 -7 -12l-54 -84v-168q20 -2 34.5 -17t14.5 -36t-14.5 -36t-34.5 -17v-145q0 -32 -12 -60t-33 -49t-49 -33t-60 -12q-51 0 -90 29t-55 74q-5 12 -7 29.5t-2 53.5v482h-60v8h204v-8h-60v-532
q0 -30 4 -47.5t11 -28.5q13 -20 34 -32.5t47 -12.5q13 0 24.5 3.5t21.5 8.5q33 19 53.5 52.5t20.5 74.5v145q-20 2 -34.5 17t-14.5 36t14.5 36t34.5 17v171zM430 344q0 19 -13 32t-32 13t-32 -13t-13 -32t13 -32t32 -13t32 13t13 32z" />
    <glyph glyph-name="uhorn" unicode="&#x1b0;" horiz-adv-x="462" 
d="M425 637q-12 -6 -26 -1q-16 6 -23 21t-2 30q5 16 20 23t31 2t23 -20t2 -31q-2 -5 -7 -12l-54 -84v-168q20 -2 34.5 -17t14.5 -36t-14.5 -36t-34.5 -17v-145q0 -32 -12 -60t-33 -49t-49 -33t-60 -12q-51 0 -90 29t-55 74q-5 12 -7 29.5t-2 53.5v482h-60v8h204v-8h-60v-532
q0 -30 4 -47.5t11 -28.5q13 -20 34 -32.5t47 -12.5q13 0 24.5 3.5t21.5 8.5q33 19 53.5 52.5t20.5 74.5v145q-20 2 -34.5 17t-14.5 36t14.5 36t34.5 17v171zM430 344q0 19 -13 32t-32 13t-32 -13t-13 -32t13 -32t32 -13t32 13t13 32z" />
    <glyph glyph-name="Scommaaccent" unicode="&#x218;" horiz-adv-x="383" 
d="M323 532q0 28 -10.5 53t-29 43.5t-43.5 29t-53 10.5q-35 0 -59.5 -24.5t-24.5 -59.5q0 -23 6 -43.5t20 -44.5t37 -54.5t58 -72.5q31 -38 54 -68.5t38 -57t22 -50t7 -47.5q0 -32 -12 -60t-33 -49t-49 -33t-60 -12t-60 12t-49 33t-33 49t-12 60h8q0 -50 29.5 -88t74.5 -52
q23 -7 46 -2.5t42 18t30.5 34t11.5 46.5q0 21 -5.5 41t-19 44.5t-36.5 56t-58 75.5q-31 39 -53 68.5t-36.5 54t-21 46t-6.5 44.5q0 30 11.5 56t31 45.5t45.5 31t56 11.5q48 0 84.5 -27.5t51.5 -69.5v93h8v-153h-8v13zM217 -111q-11 -9 -25 -9q-17 0 -28.5 11.5t-11.5 28.5
t11.5 28.5t28.5 11.5t28.5 -11.5t11.5 -28.5q0 -5 -2 -13l-24 -99l-8 2z" />
    <glyph glyph-name="scommaaccent" unicode="&#x219;" horiz-adv-x="383" 
d="M323 532q0 28 -10.5 53t-29 43.5t-43.5 29t-53 10.5q-35 0 -59.5 -24.5t-24.5 -59.5q0 -23 6 -43.5t20 -44.5t37 -54.5t58 -72.5q31 -38 54 -68.5t38 -57t22 -50t7 -47.5q0 -32 -12 -60t-33 -49t-49 -33t-60 -12t-60 12t-49 33t-33 49t-12 60h8q0 -50 29.5 -88t74.5 -52
q23 -7 46 -2.5t42 18t30.5 34t11.5 46.5q0 21 -5.5 41t-19 44.5t-36.5 56t-58 75.5q-31 39 -53 68.5t-36.5 54t-21 46t-6.5 44.5q0 30 11.5 56t31 45.5t45.5 31t56 11.5q48 0 84.5 -27.5t51.5 -69.5v93h8v-153h-8v13zM216 -111q-11 -9 -25 -9q-17 0 -28.5 11.5t-11.5 28.5
t11.5 28.5t28.5 11.5t28.5 -11.5t11.5 -28.5q0 -5 -2 -13l-24 -99l-8 2z" />
    <glyph glyph-name="uni021A" unicode="&#x21a;" horiz-adv-x="420" 
d="M379 519v141h-127v-652h60v-8h-204v8h60v652h-127v-141h-8v149h354v-149h-8zM235 -111q-11 -9 -25 -9q-17 0 -28.5 11.5t-11.5 28.5t11.5 28.5t28.5 11.5t28.5 -11.5t11.5 -28.5q0 -5 -2 -13l-24 -99l-8 2z" />
    <glyph glyph-name="uni021B" unicode="&#x21b;" horiz-adv-x="420" 
d="M379 660h-127v-652h60v-8h-204v8h60v652h-127v-141h-8v149h354v-149h-8v141zM233 -111q-11 -9 -25 -9q-17 0 -28.5 11.5t-11.5 28.5t11.5 28.5t28.5 11.5t28.5 -11.5t11.5 -28.5q0 -5 -2 -13l-24 -99l-8 2z" />
    <glyph glyph-name="circumflex" unicode="&#x2c6;" horiz-adv-x="200" 
d="M102 789l58 -58l-6 -6l-53 53l-53 -53l-6 6z" />
    <glyph glyph-name="caron" unicode="&#x2c7;" horiz-adv-x="200" 
d="M98 725l-58 58l6 6l53 -53l53 53l6 -6z" />
    <glyph glyph-name="breve" unicode="&#x2d8;" horiz-adv-x="200" 
d="M55 783q0 -19 13 -32t32 -13t32 13t13 32h8q0 -23 -15.5 -38t-37.5 -15t-37.5 15t-15.5 38h8z" />
    <glyph glyph-name="dotaccent" unicode="&#x2d9;" horiz-adv-x="200" 
d="M136 762q0 -16 -10.5 -26.5t-25.5 -10.5q-16 0 -26.5 10.5t-10.5 26.5q0 15 10.5 25.5t26.5 10.5q15 0 25.5 -10.5t10.5 -25.5z" />
    <glyph glyph-name="ring" unicode="&#x2da;" horiz-adv-x="200" 
d="M47 778q0 22 15.5 37.5t37.5 15.5t37.5 -15.5t15.5 -37.5q0 -23 -15.5 -38t-37.5 -15t-37.5 15t-15.5 38zM145 778q0 18 -13 31.5t-32 13.5t-32 -13.5t-13 -31.5q0 -19 13 -32t32 -13t32 13t13 32z" />
    <glyph glyph-name="ogonek" unicode="&#x2db;" horiz-adv-x="200" 
d="M142 -128q-16 -16 -38 -16t-37.5 15t-15.5 38q0 22 16 38l59 59l6 -6l-59 -59q-13 -13 -13 -32t13 -32t32 -13q20 0 32 14z" />
    <glyph glyph-name="tilde" unicode="&#x2dc;" horiz-adv-x="200" 
d="M61 760l-22 -20l-5 6l25 23l80 -24l22 20l5 -6l-25 -23z" />
    <glyph glyph-name="hungarumlaut" unicode="&#x2dd;" horiz-adv-x="200" 
d="M87 816l8 -2l-22 -90l-8 2zM127 816l8 -2l-22 -90l-8 2z" />
    <glyph glyph-name="commaaccentcomb" unicode="&#x326;" horiz-adv-x="0" 
d="M125 -111q-11 -9 -25 -9q-17 0 -28.5 11.5t-11.5 28.5t11.5 28.5t28.5 11.5t28.5 -11.5t11.5 -28.5q0 -5 -2 -13l-24 -99l-8 2z" />
    <glyph glyph-name="Wgrave" unicode="&#x1e80;" horiz-adv-x="574" 
d="M304 724l-22 90l8 2l22 -90zM542 660l-162 -668h-8l-82 343l-83 -343h-8l-160 668h-56v8h406l-48 -197l74 -300l118 489h-60v8h128v-8h-59zM212 661h-90l120 -489l44 180zM337 489l42 172h-84z" />
    <glyph glyph-name="wgrave" unicode="&#x1e81;" horiz-adv-x="574" 
d="M304 724l-22 90l8 2l22 -90zM380 -8h-8l-82 343l-83 -343h-8l-160 668h-56v8h406l-48 -197l74 -300l118 489h-60v8h128v-8h-59zM122 661l120 -489l44 180l-74 308zM379 661h-84l42 -172z" />
    <glyph glyph-name="Wacute" unicode="&#x1e82;" horiz-adv-x="574" 
d="M309 816l8 -2l-22 -90l-8 2zM542 661l-162 -668h-8l-82 343l-83 -343h-8l-160 668h-56v8h406l-48 -197l74 -300l118 489h-60v8h128v-8h-59zM212 662h-90l120 -489l44 180zM337 490l42 172h-84z" />
    <glyph glyph-name="wacute" unicode="&#x1e83;" horiz-adv-x="574" 
d="M309 816l8 -2l-22 -90l-8 2zM380 -7h-8l-82 343l-83 -343h-8l-160 668h-56v8h406l-48 -197l74 -300l118 489h-60v8h128v-8h-59zM122 662l120 -489l44 180l-74 308zM379 662h-84l42 -172z" />
    <glyph glyph-name="Wdieresis" unicode="&#x1e84;" horiz-adv-x="574" 
d="M278 762q0 -16 -10.5 -26.5t-25.5 -10.5q-16 0 -26.5 10.5t-10.5 26.5q0 15 10.5 25.5t26.5 10.5q15 0 25.5 -10.5t10.5 -25.5zM395 762q0 -16 -10.5 -26.5t-25.5 -10.5q-16 0 -26.5 10.5t-10.5 26.5q0 15 10.5 25.5t26.5 10.5q15 0 25.5 -10.5t10.5 -25.5zM542 660
l-162 -668h-8l-82 343l-83 -343h-8l-160 668h-56v8h406l-48 -197l74 -300l118 489h-60v8h128v-8h-59zM212 661h-90l120 -489l44 180zM337 489l42 172h-84z" />
    <glyph glyph-name="wdieresis" unicode="&#x1e85;" horiz-adv-x="574" 
d="M278 762q0 -16 -10.5 -26.5t-25.5 -10.5q-16 0 -26.5 10.5t-10.5 26.5q0 15 10.5 25.5t26.5 10.5q15 0 25.5 -10.5t10.5 -25.5zM395 762q0 -16 -10.5 -26.5t-25.5 -10.5q-16 0 -26.5 10.5t-10.5 26.5q0 15 10.5 25.5t26.5 10.5q15 0 25.5 -10.5t10.5 -25.5zM380 -8h-8
l-82 343l-83 -343h-8l-160 668h-56v8h406l-48 -197l74 -300l118 489h-60v8h128v-8h-59zM122 661l120 -489l44 180l-74 308zM379 661h-84l42 -172z" />
    <glyph glyph-name="uni1E9E" unicode="&#x1e9e;" horiz-adv-x="462" 
d="M285 328q20 -14 39.5 -27.5t39.5 -27.5q32 -23 49.5 -57t17.5 -70q0 -32 -12 -60t-33 -49t-49 -33t-60 -12q-31 0 -62 13l3 7q27 -12 59 -12q30 0 57 11.5t46.5 31t31 46.5t11.5 57q0 35 -16 66.5t-46 53.5q-37 27 -74 52t-73 50l131 292h-64q-12 0 -25 -0.5t-26 -4.5
q-16 -5 -29.5 -14t-21.5 -23q-8 -15 -10.5 -36t-2.5 -55v-528h-144v8h60v473q0 37 3.5 57t10.5 36q20 43 60 69t89 26h191z" />
    <glyph glyph-name="uni1EA0" unicode="&#x1ea0;" 
d="M202 -61q0 -10 -7.5 -17.5t-18.5 -7.5q-10 0 -17.5 7.5t-7.5 17.5q0 11 7.5 18.5t17.5 7.5q11 0 18.5 -7.5t7.5 -18.5zM404 8v-8h-137l-122 503l-51 -212l70 -291h-202v8h55l162 668h8l165 -668h52zM90 274l-64 -266h128z" />
    <glyph glyph-name="uni1EA1" unicode="&#x1ea1;" 
d="M202 -61q0 -10 -7.5 -17.5t-18.5 -7.5q-10 0 -17.5 7.5t-7.5 17.5q0 11 7.5 18.5t17.5 7.5q11 0 18.5 -7.5t7.5 -18.5zM404 0h-137l-122 503l-51 -212l70 -291h-202v8h55l162 668h8l165 -668h52v-8zM26 8h128l-64 266z" />
    <glyph glyph-name="uni1EA2" unicode="&#x1ea2;" 
d="M173 762q-15 7 -15 23q0 11 7 18t18 7t20 -7t9 -18q0 -5 -5 -17l-20 -44h-5l-6 16l19 42q2 5 2 7.5v4.5q0 10 -14 10q-10 0 -14.5 -7t-4.5 -12q0 -11 9 -16v-7zM404 8v-8h-137l-122 503l-51 -212l70 -291h-202v8h55l162 668h8l165 -668h52zM90 274l-64 -266h128z" />
    <glyph glyph-name="uni1EA3" unicode="&#x1ea3;" 
d="M173 762q-15 7 -15 23q0 11 7 18t18 7t20 -7t9 -18q0 -5 -5 -17l-20 -44h-5l-6 16l19 42q2 5 2 7.5v4.5q0 10 -14 10q-10 0 -14.5 -7t-4.5 -12q0 -11 9 -16v-7zM404 0h-137l-122 503l-51 -212l70 -291h-202v8h55l162 668h8l165 -668h52v-8zM26 8h128l-64 266z" />
    <glyph glyph-name="uni1EA4" unicode="&#x1ea4;" 
d="M272 843l5 -4l-53 -76l-6 5zM188 769l58 -58l-6 -6l-53 53l-53 -53l-6 6zM406 0h-137l-122 503l-51 -212l70 -291h-202v8h55l162 668h8l165 -668h52v-8zM28 8h128l-64 266z" />
    <glyph glyph-name="uni1EA5" unicode="&#x1ea5;" 
d="M272 843l5 -4l-53 -76l-6 5zM188 769l58 -58l-6 -6l-53 53l-53 -53l-6 6zM406 0h-137l-122 503l-51 -212l70 -291h-202v8h55l162 668h8l165 -668h52v-8zM28 8h128l-64 266z" />
    <glyph glyph-name="uni1EA6" unicode="&#x1ea6;" 
d="M212 779l-60 71l6 5l60 -70zM188 769l58 -58l-6 -6l-53 53l-53 -53l-6 6zM406 0h-137l-122 503l-51 -212l70 -291h-202v8h55l162 668h8l165 -668h52v-8zM28 8h128l-64 266z" />
    <glyph glyph-name="uni1EA7" unicode="&#x1ea7;" 
d="M212 779l-60 71l6 5l60 -70zM188 769l58 -58l-6 -6l-53 53l-53 -53l-6 6zM406 0h-137l-122 503l-51 -212l70 -291h-202v8h55l162 668h8l165 -668h52v-8zM28 8h128l-64 266z" />
    <glyph glyph-name="uni1EA8" unicode="&#x1ea8;" 
d="M203 813q-15 7 -15 23q0 11 7 18t18 7t20 -7t9 -18q0 -5 -5 -17l-20 -44h-5l-6 16l19 42q2 5 2 7.5v4.5q0 10 -14 10q-10 0 -14.5 -7t-4.5 -12q0 -11 9 -16v-7zM188 769l58 -58l-6 -6l-53 53l-53 -53l-6 6zM406 0h-137l-122 503l-51 -212l70 -291h-202v8h55l162 668h8
l165 -668h52v-8zM28 8h128l-64 266z" />
    <glyph glyph-name="uni1EA9" unicode="&#x1ea9;" 
d="M203 813q-15 7 -15 23q0 11 7 18t18 7t20 -7t9 -18q0 -5 -5 -17l-20 -44h-5l-6 16l19 42q2 5 2 7.5v4.5q0 10 -14 10q-10 0 -14.5 -7t-4.5 -12q0 -11 9 -16v-7zM188 769l58 -58l-6 -6l-53 53l-53 -53l-6 6zM406 0h-137l-122 503l-51 -212l70 -291h-202v8h55l162 668h8
l165 -668h52v-8zM28 8h128l-64 266z" />
    <glyph glyph-name="uni1EAA" unicode="&#x1eaa;" 
d="M188 769l58 -58l-6 -6l-53 53l-53 -53l-6 6zM406 0h-137l-122 503l-51 -212l70 -291h-202v8h55l162 668h8l165 -668h52v-8zM28 8h128l-64 266zM158 802l-22 -20l-5 6l25 23l80 -24l22 20l5 -6l-25 -23z" />
    <glyph glyph-name="uni1EAB" unicode="&#x1eab;" 
d="M188 769l58 -58l-6 -6l-53 53l-53 -53l-6 6zM406 0h-137l-122 503l-51 -212l70 -291h-202v8h55l162 668h8l165 -668h52v-8zM28 8h128l-64 266zM152 802l-22 -20l-5 6l25 23l80 -24l22 20l5 -6l-25 -23z" />
    <glyph glyph-name="uni1EAC" unicode="&#x1eac;" 
d="M202 -61q0 -10 -7.5 -17.5t-18.5 -7.5q-10 0 -17.5 7.5t-7.5 17.5q0 11 7.5 18.5t17.5 7.5q11 0 18.5 -7.5t7.5 -18.5zM188 769l58 -58l-6 -6l-53 53l-53 -53l-6 6zM406 0h-137l-122 503l-51 -212l70 -291h-202v8h55l162 668h8l165 -668h52v-8zM28 8h128l-64 266z" />
    <glyph glyph-name="uni1EAD" unicode="&#x1ead;" 
d="M202 -61q0 -10 -7.5 -17.5t-18.5 -7.5q-10 0 -17.5 7.5t-7.5 17.5q0 11 7.5 18.5t17.5 7.5q11 0 18.5 -7.5t7.5 -18.5zM188 769l58 -58l-6 -6l-53 53l-53 -53l-6 6zM406 0h-137l-122 503l-51 -212l70 -291h-202v8h55l162 668h8l165 -668h52v-8zM28 8h128l-64 266z" />
    <glyph glyph-name="uni1EAE" unicode="&#x1eae;" 
d="M241 843l5 -4l-53 -76l-6 5zM404 0h-137l-122 503l-51 -212l70 -291h-202v8h55l162 668h8l165 -668h52v-8zM26 8h128l-64 266zM138 758q0 -19 13 -32t32 -13t32 13t13 32h8q0 -23 -15.5 -38t-37.5 -15t-37.5 15t-15.5 38h8z" />
    </font>
</defs>
</svg>
