<?xml version="1.0" standalone="no"?>
<!DOCTYPE svg PUBLIC "-//W3C//DTD SVG 1.1//EN" "http://www.w3.org/Graphics/SVG/1.1/DTD/svg11.dtd" >
<svg xmlns="http://www.w3.org/2000/svg" xmlns:xlink="http://www.w3.org/1999/xlink" version="1.1">
<metadata>
Created by FontForge 20170731 at Fri Jul 26 03:57:13 2013
 By Aleksey,,,
Copyright (c) 2011 by Daniel Hernandez (main) &#38; HoangDesign ( melodylife195@gmail.com ). All rights reserved.
</metadata>
<defs>
<font id="UVFMerced" horiz-adv-x="444" >
  <font-face 
    font-family="UVF Merced"
    font-weight="300"
    font-stretch="normal"
    units-per-em="1000"
    panose-1="2 0 0 0 0 0 0 0 0 0"
    ascent="750"
    descent="-250"
    x-height="500"
    cap-height="700"
    bbox="-74 -364 1427 1028"
    underline-thickness="50"
    underline-position="-150"
    unicode-range="U+0020-FB04"
  />
<missing-glyph horiz-adv-x="256" 
 />
    <glyph glyph-name="N_E" unicode="NE" horiz-adv-x="915" 
d="M471 36v664h384v-17h-366v-314h307v-17h-307v-335h366v-17h-384l-393 665v-665h-18v700h18z" />
    <glyph glyph-name="H_E" unicode="HE" horiz-adv-x="927" 
d="M483 352h-405v-352h-18v700h18v-331h405v331h384v-17h-366v-314h307v-17h-307v-335h366v-17h-384v352z" />
    <glyph glyph-name="N_R" unicode="NR" horiz-adv-x="979" 
d="M940 0q-27 0 -47 23.5t-36.5 58.5t-33 76.5t-35 76.5t-42.5 58.5t-57 23.5h-200v-317h-18l-393 665v-665h-18v700h18l393 -664v664h195q90 0 145.5 -50t55.5 -153q0 -73 -36 -117t-96 -58q27 -14 46.5 -42.5t36 -62t30 -69t27.5 -65t30 -48t36 -18.5h23v-17h-24zM849 497
q0 40 -11.5 74t-34.5 59t-57.5 39t-79.5 14h-177v-349h200q75 0 117.5 43t42.5 120z" />
    <glyph glyph-name="N_F" unicode="NF" horiz-adv-x="900" 
d="M78 665v-665h-18v700h18l393 -664v664h369v-17h-351v-314h324v-17h-324v-352h-18z" />
    <glyph glyph-name="O_O" unicode="OO" horiz-adv-x="957" 
d="M60 334q0 105 18 177.5t50.5 117.5t77 65.5t98.5 20.5q53 0 97.5 -19t76.5 -63q32 43 76 62t97 20q54 0 99 -20t77.5 -65t51 -118t18.5 -178q0 -100 -22 -167t-57 -107.5t-78.5 -57.5t-86.5 -17q-46 1 -92 20t-82 65q-35 -47 -81.5 -66t-91.5 -19q-43 0 -86.5 17.5
t-79 58t-58 107.5t-22.5 166zM407 334q0 98 15.5 167.5t44.5 114.5q-31 44 -72.5 63t-90.5 19t-90.5 -19.5t-71.5 -62.5t-47 -112.5t-17 -169.5q0 -95 21.5 -158.5t54.5 -102t73.5 -55t78.5 -16.5q41 0 84 19t77 65q-28 42 -44 102.5t-16 145.5zM879 334q0 100 -17.5 169
t-48 112.5t-72 63t-90.5 19.5q-50 0 -91 -19.5t-71 -62.5q29 -45 45 -114.5t16 -167.5q0 -86 -16.5 -146.5t-43.5 -101.5q35 -46 78 -65t85 -19q38 0 78 16.5t73 55t54 102t21 158.5zM532 334q0 91 -14 155.5t-40 108.5q-26 -44 -39.5 -108.5t-13.5 -155.5
q0 -78 14.5 -134.5t38.5 -95.5q24 39 39 95.5t15 134.5z" />
    <glyph glyph-name="O_G" unicode="OG" horiz-adv-x="922" 
d="M60 334q0 105 18 177.5t50.5 117.5t77 65.5t98.5 20.5t98 -19.5t77 -64.5q32 45 76.5 64.5t98.5 19.5q52 0 89 -18t60.5 -45t34.5 -59.5t11 -61.5q0 -19 -1 -32t-3 -21q-2 -10 -4 -16h-18q2 7 4 17q2 8 3 20t1 28q0 27 -10 57.5t-31.5 55.5t-55 41.5t-80.5 16.5
q-50 0 -91.5 -19.5t-72.5 -64.5q29 -45 44.5 -114t15.5 -166q0 -86 -16.5 -146.5t-43.5 -101.5q34 -46 76 -65t84 -19q32 0 57.5 6.5t45 17t34 24t24.5 27.5q24 33 33 76v147h-184v16h202v-316h-18v108q-13 -35 -39 -62q-22 -23 -59 -42t-96 -19q-46 0 -91 19t-80 65
q-36 -46 -82 -65t-91 -19q-43 0 -86.5 17.5t-79 58t-58 107.5t-22.5 166zM409 334q0 97 15.5 166t43.5 114q-31 45 -73 64.5t-91 19.5t-90.5 -19.5t-71.5 -62.5t-47 -112.5t-17 -169.5q0 -95 21.5 -158.5t54.5 -102t73.5 -55t78.5 -16.5q41 0 84 19t77 65q-26 42 -42 102.5
t-16 145.5zM532 334q0 90 -14 154t-39 108q-25 -44 -38.5 -108t-13.5 -154q0 -78 14 -134.5t37 -95.5q24 39 39 95.5t15 134.5z" />
    <glyph glyph-name="N_B" unicode="NB" horiz-adv-x="975" 
d="M78 665v-665h-18v700h18l393 -664v664h202q41 0 77.5 -9t64 -30t43.5 -56t16 -86q0 -44 -13 -73.5t-30.5 -46.5t-36 -24t-30.5 -7v-2q18 0 44 -8.5t49.5 -29t40.5 -55.5t17 -89q0 -51 -21 -86.5t-55 -57t-77.5 -31t-88.5 -9.5h-202zM489 359v-342h184q37 0 76.5 6.5
t72.5 25t54 51t21 84.5q0 91 -50.5 133t-139.5 42h-218zM856 519q0 81 -46 122.5t-137 41.5h-184v-307h218q44 0 73 10.5t46 29.5t23.5 45t6.5 58z" />
    <glyph glyph-name="N_P" unicode="NP" horiz-adv-x="889" 
d="M78 665v-665h-18v700h18l393 -664v664h202q90 0 145.5 -53t55.5 -156q0 -44 -13.5 -79t-37.5 -60t-57.5 -38.5t-74.5 -13.5h-202v-300h-18zM856 491q0 40 -11.5 75t-34.5 61t-57.5 41t-79.5 15h-184v-366h202q78 0 121.5 48t43.5 126z" />
    <glyph glyph-name="N_D" unicode="ND" horiz-adv-x="975" 
d="M471 0l-393 665v-665h-18v700h18l393 -664v664h141q62 0 117 -20t96.5 -64t65.5 -114.5t24 -170.5q0 -90 -23 -153t-59.5 -102.5t-81 -57.5t-86.5 -18h-194zM489 683v-666h176q38 0 79 16.5t75 53.5t56 97t22 147q0 95 -23 162t-62 109t-90.5 61.5t-109.5 19.5h-123z" />
    <glyph glyph-name="N_N" unicode="NN" horiz-adv-x="960" 
d="M900 0h-18l-393 665v-665h-18l-393 665v-665h-18v700h18l393 -664v664h18l393 -664v664h18v-700z" />
    <glyph glyph-name="A_N_D" unicode="AND" horiz-adv-x="1446" 
d="M942 0l-392 663l-1 -663h-17v229h-329l-174 -229h-22l525 698v2h18v-2l392 -662v664h141q62 0 117 -20t96.5 -64t65.5 -114.5t24 -170.5q0 -90 -23 -153t-59.5 -102.5t-81 -57.5t-86.5 -18h-194zM960 683v-666h176q38 0 79 16.5t75 53.5t56 97t22 147q0 95 -23 162
t-62 109t-90.5 61.5t-109.5 19.5h-123zM215 246h317v417z" />
    <glyph glyph-name="A_N" unicode="AN" horiz-adv-x="1075" 
d="M586 700h18l393 -664v664h18v-700h-18l-393 665v-665h-19v229h-329l-174 -229h-22zM268 246h317v417z" />
    <glyph glyph-name="A_F" unicode="AF" horiz-adv-x="961" 
d="M533 700h368v-17h-351v-314h324v-17h-324v-352h-18v229h-329l-174 -229h-22zM215 246h317v420z" />
    <glyph glyph-name="A_D" unicode="AD" horiz-adv-x="1036" 
d="M532 0v229h-329l-174 -229h-22l526 700h140q62 0 117 -20t96.5 -64t65.5 -114.5t24 -170.5q0 -90 -23 -153t-59.5 -102.5t-81 -57.5t-86.5 -18h-194zM550 683v-666h176q38 0 79 16.5t75 53.5t56 97t22 147q0 95 -23 162t-62 109t-90.5 61.5t-109.5 19.5h-123zM215 246
h317v420z" />
    <glyph glyph-name="A_B" unicode="AB" horiz-adv-x="1036" 
d="M532 229h-329l-174 -229h-22l526 700h201q41 0 77.5 -9t64 -30t43.5 -56t16 -86q0 -44 -13 -73.5t-30.5 -46.5t-36 -24t-30.5 -7v-2q18 0 44 -8.5t49.5 -29t40.5 -55.5t17 -89q0 -51 -21 -86.5t-55 -57t-77.5 -31t-88.5 -9.5h-202v229zM550 359v-342h184q37 0 76.5 6.5
t72.5 25t54 51t21 84.5q0 91 -50.5 133t-139.5 42h-218zM917 519q0 81 -46 122.5t-137 41.5h-184v-307h218q44 0 73 10.5t46 29.5t23.5 45t6.5 58zM215 246h317v420z" />
    <glyph glyph-name="A_L" unicode="AL" horiz-adv-x="913" 
d="M532 229h-329l-174 -229h-22l525 698v2h18l-1 -683h342v-17h-359v229zM215 246h317v420z" />
    <glyph glyph-name="A_L_L" unicode="ALL" horiz-adv-x="1005" 
d="M532 229h-329l-174 -229h-22l526 700h17v-683h412v-17h-430v229zM215 246h317v420zM743 227h250v-17h-268v490h18v-473z" />
    <glyph glyph-name="A_R" unicode="AR" horiz-adv-x="1085" 
d="M1001 0q-27 0 -47 23.5t-36.5 58.5t-33 76.5t-35 76.5t-42.5 58.5t-57 23.5h-200v-317h-18v229h-329l-174 -229h-22l526 700h194q90 0 145.5 -50t55.5 -153q0 -73 -36 -117t-96 -58q26 -14 46 -42.5t36.5 -62t30 -69t27.5 -65t30 -48t36 -18.5h23v-17h-24zM910 497
q0 40 -11.5 74t-34.5 59t-57.5 39t-79.5 14h-177v-349h200q75 0 117.5 43t42.5 120zM215 246h317v420z" />
    <glyph glyph-name="N_A" unicode="NA" horiz-adv-x="1021" 
d="M1014 0h-22l-174 229h-329v-229h-18l-393 665v-665h-18v700h18l393 -664v664h17zM489 666v-420h317z" />
    <glyph glyph-name="H_A" unicode="HA" horiz-adv-x="1033" 
d="M1026 0h-22l-174 229h-329v-229h-18v352h-405v-352h-18v700h18v-331h405v331h17zM501 666v-420h317z" />
    <glyph glyph-name="A_H" unicode="AH" horiz-adv-x="1032" 
d="M972 0h-18v352h-405v-352h-17v229h-329l-174 -229h-22l525 698v2h18l-1 -331h405v331h18v-700zM215 246h317v420z" />
    <glyph glyph-name="A_R_A" unicode="ARA" horiz-adv-x="1369" 
d="M533 700h181q90 0 145.5 -50t55.5 -153q0 -80 -42.5 -125.5t-112.5 -53.5l36 -60q40 -67 69 -113t64 -74.5t84 -41.5t129 -13h130v-16h-131q-55 0 -95.5 5.5t-71.5 18t-55 32t-46 48t-44.5 65.5t-51.5 85l-38 63h-188v-317h-19v229h-329l-174 -229h-22zM897 497
q0 40 -11.5 74t-34.5 59t-57.5 39t-79.5 14h-163v-349h181q78 0 121.5 42.5t43.5 120.5zM215 246h317v420zM1145 700h18l176 -490h-19l-58 162h-218l-58 -162h-19zM1050 389h206l-102 286z" />
    <glyph glyph-name="A_R_E" unicode="ARE" horiz-adv-x="1339" 
d="M532 698v2h181q90 0 145.5 -50t55.5 -153q0 -80 -42.5 -125.5t-112.5 -53.5l36 -60q40 -67 69 -113t64 -74.5t84 -41.5t129 -13h104v-16h-105q-55 0 -95.5 5.5t-71.5 18t-55 32t-46 48t-44.5 65.5t-51.5 85l-38 63h-188v-317h-18v229h-329l-174 -229h-22zM896 497
q0 40 -11.5 74t-34.5 59t-57.5 39t-79.5 14h-163v-349h181q78 0 121.5 42.5t43.5 120.5zM215 246h317v420zM1304 684h-250v-216h209v-16h-209v-226h250v-16h-268v490h268v-16z" />
    <glyph glyph-name="A_R_I" unicode="ARI" horiz-adv-x="1177" 
d="M532 698v2h181q90 0 145.5 -50t55.5 -153q0 -80 -42.5 -125.5t-112.5 -53.5l36 -60q40 -67 67 -113t58 -74.5t74.5 -41.5t116.5 -13h21v-16h-22q-54 0 -91.5 5.5t-65 18t-48 32t-39.5 48t-40 65.5t-50 85l-38 63h-188v-317h-18v229h-329l-174 -229h-22zM896 497
q0 40 -11.5 74t-34.5 59t-57.5 39t-79.5 14h-163v-349h181q78 0 121.5 42.5t43.5 120.5zM215 246h317v420zM1085 210h-18v490h18v-490z" />
    <glyph glyph-name="A_R_O" unicode="ARO" horiz-adv-x="1419" 
d="M532 698v2h181q90 0 145.5 -50t55.5 -153q0 -80 -42.5 -125.5t-112.5 -53.5l36 -60q40 -67 69 -113t64 -74.5t84 -41.5t129 -13h146v-16h-147q-55 0 -95.5 5.5t-71.5 18t-55 32t-46 48t-44.5 65.5t-51.5 85l-38 63h-188v-317h-18v229h-329l-174 -229h-22zM1011 449
q0 73 12.5 124t35.5 82.5t54 45.5t69 14q37 0 69 -14t54.5 -45.5t35.5 -82.5t13 -124q0 -70 -15.5 -116.5t-40 -75t-54.5 -40.5t-60 -12t-61 12t-55.5 40.5t-40.5 75t-16 116.5zM1337 449q0 70 -11.5 117.5t-32 76.5t-49 41.5t-62.5 12.5t-62 -12.5t-48.5 -41.5t-31.5 -76.5
t-11 -117.5q0 -66 14 -110t36.5 -69.5t50 -36t54.5 -10.5q26 0 53.5 10.5t49.5 36t36 69.5t14 110zM896 497q0 40 -11.5 74t-34.5 59t-57.5 39t-79.5 14h-163v-349h181q78 0 121.5 42.5t43.5 120.5zM215 246h317v420z" />
    <glyph glyph-name="A_R_U" unicode="ARU" horiz-adv-x="1392" 
d="M532 698v2h181q90 0 145.5 -50t55.5 -153q0 -80 -42.5 -125.5t-112.5 -53.5l36 -60q40 -67 69 -113t64 -74.5t84 -41.5t129 -13h123v-16h-124q-55 0 -95.5 5.5t-71.5 18t-55 32t-46 48t-44.5 65.5t-51.5 85l-38 63h-188v-317h-18v229h-329l-174 -229h-22zM896 497
q0 40 -11.5 74t-34.5 59t-57.5 39t-79.5 14h-163v-349h181q78 0 121.5 42.5t43.5 120.5zM215 246h317v420zM1039 433q0 -63 9.5 -103.5t27.5 -64.5t42.5 -33t54.5 -9q29 0 53 9t41.5 32.5t27 63.5t9.5 103v269h18v-269q0 -67 -11.5 -110.5t-31.5 -69t-47.5 -36t-58.5 -10.5
q-32 0 -60 10.5t-48.5 36.5t-32 70t-11.5 111v267h18v-267z" />
    <glyph glyph-name="A_R_Y" unicode="ARY" horiz-adv-x="1361" 
d="M532 698v2h181q90 0 145.5 -50t55.5 -153q0 -80 -42.5 -125.5t-112.5 -53.5l36 -60q40 -67 69 -113t64 -74.5t84 -41.5t129 -13h125v-16h-126q-55 0 -95.5 5.5t-71.5 18t-55 32t-46 48t-44.5 65.5t-51.5 85l-38 63h-188v-317h-18v229h-329l-174 -229h-22zM896 497
q0 40 -11.5 74t-34.5 59t-57.5 39t-79.5 14h-163v-349h181q78 0 121.5 42.5t43.5 120.5zM215 246h317v420zM1143 427l1 -217h-19v217l-178 273h22l165 -259l164 259h22z" />
    <glyph glyph-name="A_K_A" unicode="AKA" horiz-adv-x="1385" 
d="M532 698v2h18v-346h190q31 0 60.5 29.5t53 77.5t38 110.5t14.5 128.5h20q0 -68 -14.5 -130t-38.5 -111t-55 -81t-63 -39l35 -58q44 -73 78 -123.5t72.5 -82t90 -45.5t129.5 -14h130v-16h-131q-82 0 -135 13.5t-93.5 46t-76.5 85.5t-83 132l-36 60h-185v-337h-18v229h-329
l-174 -229h-22zM215 246h317v420zM1161 700h18l176 -490h-19l-58 162h-218l-58 -162h-19zM1066 389h206l-102 286z" />
    <glyph glyph-name="A_K_E" unicode="AKE" horiz-adv-x="1346" 
d="M1159 0q-82 0 -135 13.5t-93.5 46t-76.5 85.5t-83 132l-36 60h-185v-337h-18v229h-329l-174 -229h-22l526 700h17v-346h190q31 0 60.5 29.5t53 77.5t38 110.5t14.5 128.5h20q0 -68 -14.5 -130t-38.5 -111t-55 -81t-63 -39l35 -58q44 -73 78 -123.5t72.5 -82t90 -45.5
t129.5 -14h94v-16h-95zM215 246h317v420zM1038 700h268v-16h-250v-216h209v-16h-209v-226h250v-16h-268v490z" />
    <glyph glyph-name="A_K_I" unicode="AKI" horiz-adv-x="1206" 
d="M1111 0q-73 0 -117 13t-77 45t-65 85t-80 134l-36 60h-185v-337h-19v229h-329l-174 -229h-22l526 700h18v-346h190q31 0 60.5 29.5t53 77.5t38 110.5t14.5 128.5h20q0 -68 -14.5 -130t-38.5 -111t-55 -81t-63 -39l35 -58q46 -76 75.5 -127t61 -81.5t73.5 -43.5t111 -13
h24v-16h-25zM215 246h317v420zM1087 210h-18v490h18v-490z" />
    <glyph glyph-name="A_K_O" unicode="AKO" horiz-adv-x="1418" 
d="M1010 449q0 73 12.5 124t35.5 82.5t54 45.5t69 14q37 0 69 -14t54.5 -45.5t35.5 -82.5t13 -124q0 -70 -15.5 -116.5t-40 -75t-54.5 -40.5t-60 -12t-61 12t-55.5 40.5t-40.5 75t-16 116.5zM1159 0q-82 0 -135 13.5t-93.5 46t-76.5 85.5t-83 132l-36 60h-185v-337h-18v229
h-329l-174 -229h-22l525 700h18v-346h190q31 0 60.5 29.5t53 77.5t38 110.5t14.5 128.5h20q0 -68 -14.5 -130t-38.5 -111t-55 -81t-63 -39l35 -58q44 -73 78 -123.5t72.5 -82t90 -45.5t129.5 -14h130v-16h-131zM1336 449q0 70 -11.5 117.5t-32 76.5t-49 41.5t-62.5 12.5
t-62 -12.5t-48.5 -41.5t-31.5 -76.5t-11 -117.5q0 -66 14 -110t36.5 -69.5t50 -36t54.5 -10.5q26 0 53.5 10.5t49.5 36t36 69.5t14 110zM215 246h317v420z" />
    <glyph glyph-name="A_K_U" unicode="AKU" horiz-adv-x="1399" 
d="M1159 0q-82 0 -135 13.5t-93.5 46t-76.5 85.5t-83 132l-36 60h-185v-337h-18v229h-329l-174 -229h-22l525 700h18v-346h190q31 0 60.5 29.5t53 77.5t38 110.5t14.5 128.5h20q0 -68 -14.5 -130t-38.5 -111t-55 -81t-63 -39l35 -58q44 -73 78 -123.5t72.5 -82t90 -45.5
t129.5 -14h130v-16h-131zM215 246h317v420zM1037 433q0 -63 9.5 -103.5t27.5 -64.5t42.5 -33t54.5 -9q29 0 53 9t41.5 32.5t27 63.5t9.5 103v269h18v-269q0 -67 -11.5 -110.5t-31.5 -69t-47.5 -36t-58.5 -10.5q-32 0 -60 10.5t-48.5 36.5t-32 70t-11.5 111v267h18v-267z" />
    <glyph glyph-name="A_K_Y" unicode="AKY" horiz-adv-x="1395" 
d="M1159 0q-93 0 -153 22.5t-101 60.5t-71 88t-64 106l-36 60h-184v-337h-18v229h-329l-174 -229h-22l525 700h18v-346h190q31 0 60.5 29.5t53 77.5t38 110.5t14.5 128.5h20q0 -68 -14.5 -130t-38.5 -111t-55 -81t-63 -39l34 -58q38 -65 71 -114.5t73.5 -83t94 -50.5
t132.5 -17h125v-16h-126zM215 246h317v420zM1191 427l1 -217h-19v217l-178 273h22l165 -259l164 259h22z" />
    <glyph glyph-name="A_R_R" unicode="ARR" horiz-adv-x="1385" 
d="M1141 0q-55 0 -95.5 5.5t-71.5 18t-55 32t-46 48t-44.5 65.5t-51.5 85l-38 63h-188v-317h-19v229h-329l-174 -229h-22l526 700h181q90 0 145.5 -50t55.5 -153q0 -80 -42.5 -125.5t-112.5 -53.5l36 -60q40 -67 69 -113t64 -74.5t84 -41.5t129 -13h161v-16h-162zM897 497
q0 40 -11.5 74t-34.5 59t-57.5 39t-79.5 14h-163v-349h181q78 0 121.5 42.5t43.5 120.5zM215 246h317v420zM1361 210q-22 0 -35 17t-27 50l-27 63q-11 26 -21 43.5t-20 28.5t-21 15.5t-24 4.5h-129v-222h-18v490h130q66 0 103.5 -35t37.5 -107q0 -31 -9 -53.5t-22.5 -37.5
t-28.5 -22t-27 -7v-2q8 0 16.5 -7.5t17 -20t16.5 -27.5t14 -30l31 -73q8 -20 19 -36t25 -16h16v-16h-17zM1293 558q0 57 -29 91.5t-95 34.5h-112v-236h125q54 0 82.5 28t28.5 82z" />
    <glyph glyph-name="A_L_A" unicode="ALA" horiz-adv-x="1101" 
d="M532 229h-329l-174 -229h-22l525 700h18v-683h392v-17h-410v229zM215 246h317v420zM877 700h18l176 -490h-19l-58 162h-218l-58 -162h-19zM782 389h206l-102 286z" />
    <glyph glyph-name="A_L_E" unicode="ALE" horiz-adv-x="1054" 
d="M532 229h-329l-174 -229h-22l525 700h18v-683h392v-17h-410v229zM215 246h317v420zM726 700h268v-16h-250v-216h209v-16h-209v-226h250v-16h-268v490z" />
    <glyph glyph-name="A_L_I" unicode="ALI" horiz-adv-x="915" 
d="M532 229h-329l-174 -229h-22l525 700h18v-683h320v-17h-338v229zM215 246h317v420zM792 210h-18v490h18v-490z" />
    <glyph glyph-name="A_L_O" unicode="ALO" horiz-adv-x="1112" 
d="M532 229h-329l-174 -229h-22l525 700h18v-683h392v-17h-410v229zM215 246h317v420zM704 449q0 73 12.5 124t35.5 82.5t54 45.5t69 14q37 0 69 -14t54.5 -45.5t35.5 -82.5t13 -124q0 -70 -15.5 -116.5t-40 -75t-54.5 -40.5t-60 -12t-61 12t-55.5 40.5t-40.5 75t-16 116.5z
M1030 449q0 70 -11.5 117.5t-32 76.5t-49 41.5t-62.5 12.5t-62 -12.5t-48.5 -41.5t-31.5 -76.5t-11 -117.5q0 -66 14 -110t36.5 -69.5t50 -36t54.5 -10.5q26 0 53.5 10.5t49.5 36t36 69.5t14 110z" />
    <glyph glyph-name="A_L_U" unicode="ALU" horiz-adv-x="1088" 
d="M532 700h18v-683h392v-17h-410v229h-329l-174 -229h-22zM215 246h317v420zM735 433q0 -63 9.5 -103.5t27.5 -64.5t42.5 -33t54.5 -9q29 0 53 9t41.5 32.5t27 63.5t9.5 103v269h18v-269q0 -67 -11.5 -110.5t-31.5 -69t-47.5 -36t-58.5 -10.5q-32 0 -60 10.5t-48.5 36.5
t-32 70t-11.5 111v267h18v-267z" />
    <glyph glyph-name="A_L_AE" unicode="AL&#xc6;" horiz-adv-x="1286" 
d="M532 229h-329l-174 -229h-22l525 700h18v-683h641v-17h-659v229zM215 246h317v420zM866 697h360v-16h-342l80 -216h221v-16h-213l84 -228h170v-14h-183l-60 160h-224l-60 -160h-18zM767 386h209l-104 283z" />
    <glyph glyph-name="A_L_OE" unicode="AL&#x152;" horiz-adv-x="1342" 
d="M532 698v2h18v-683h703v-17h-721v229h-329l-174 -229h-22zM215 246h317v420zM1014 327q-11 -34 -28.5 -57.5t-37.5 -37.5t-42.5 -20.5t-44.5 -6.5q-30 0 -61 12t-55.5 40.5t-40.5 75t-16 116.5q0 73 12.5 124t35.5 82.5t54 45.5t69 14q54 0 94.5 -29t60.5 -98v112h268
v-16h-250v-216h209v-16h-209v-226h250v-16h-268v117zM1014 462q-1 66 -13 111t-32.5 72.5t-48.5 39.5t-61 12q-34 0 -62 -12.5t-48.5 -41.5t-31.5 -76.5t-11 -117.5q0 -66 14 -110t36.5 -69.5t50 -36t54.5 -10.5q26 0 53.5 10.5t49.5 36t36 69.5t14 110v13z" />
    <glyph glyph-name=".notdef" horiz-adv-x="256" 
 />
    <glyph glyph-name=".null" horiz-adv-x="0" 
 />
    <glyph glyph-name="nonmarkingreturn" horiz-adv-x="256" 
 />
    <glyph glyph-name="space" unicode=" " horiz-adv-x="256" 
 />
    <glyph glyph-name="space" unicode="&#xa0;" horiz-adv-x="256" 
 />
    <glyph glyph-name="exclam" unicode="!" horiz-adv-x="182" 
d="M60 16q0 12 9.5 21.5t21.5 9.5t21.5 -9.5t9.5 -21.5t-9.5 -21.5t-21.5 -9.5t-21.5 9.5t-9.5 21.5zM92 168h-17v98l-3 432h24l-4 -432v-98z" />
    <glyph glyph-name="quotedbl" unicode="&#x22;" horiz-adv-x="189" 
d="M80 647h-17v22l-3 104h24l-4 -104v-22zM125 647h-17v22l-3 104h24l-4 -104v-22z" />
    <glyph glyph-name="numbersign" unicode="#" horiz-adv-x="541" 
d="M105 358h80l34 157h21l-34 -157h184l32 149h21l-32 -149h70v-18h-74l-38 -177h67v-18h-71l-33 -153h-21l33 153h-184l-31 -145h-21l31 145h-79v18h83l38 177h-76v18zM164 163h184l38 177h-184z" />
    <glyph glyph-name="dollar" unicode="$" horiz-adv-x="522" 
d="M462 181q0 -85 -52 -138t-140 -58v-93h-16v93q-63 1 -101 27t-59 57q-25 36 -34 82l18 3q11 -43 34 -76q19 -29 54 -52.5t91 -23.5q39 0 73 12.5t59.5 35.5t40 56.5t14.5 74.5q0 53 -27.5 87.5t-68 58.5t-88.5 43.5t-88.5 43t-68 55.5t-27.5 83q0 33 11 62.5t33 52
t54.5 35.5t75.5 13h4v63h16v-64q43 -3 73.5 -19.5t49.5 -39t28 -48.5t9 -50q0 -19 -1 -32.5t-3 -22.5q-2 -11 -4 -17h-18q2 6 4 16q2 8 3 21t1 31q0 24 -9.5 50t-29 47t-50 34.5t-73.5 13.5q-38 0 -67 -12.5t-49 -32.5t-30 -46.5t-10 -54.5q0 -46 27.5 -75.5t68 -51.5
t88.5 -41.5t88.5 -45t68 -63t27.5 -94.5z" />
    <glyph glyph-name="percent" unicode="%" horiz-adv-x="623" 
d="M124 -15l359 767h20l-359 -767h-20zM60 525q0 101 26.5 145.5t80.5 44.5t81.5 -44.5t27.5 -145.5q0 -49 -9 -82.5t-24 -54t-34.5 -29.5t-40.5 -9t-40.5 9t-34.5 29.5t-24 54t-9 82.5zM260 525q0 50 -6.5 83.5t-18.5 54t-29.5 29t-38.5 8.5t-38 -8.5t-29 -29t-18 -54
t-6 -83.5q0 -47 8 -78t20.5 -49t29 -25t34.5 -7t34.5 7.5t29.5 25.5t20.5 48.5t7.5 77.5zM347 160q0 101 26.5 145.5t80.5 44.5t81.5 -44.5t27.5 -145.5q0 -49 -9 -82.5t-24 -54t-34.5 -29.5t-40.5 -9t-40.5 9t-34.5 29.5t-24 54t-9 82.5zM547 160q0 50 -6.5 83.5t-18.5 54
t-29.5 29t-38.5 8.5t-38 -8.5t-29 -29t-18 -54t-6 -83.5q0 -47 8 -78t20.5 -49t29 -25t34.5 -7t34.5 7.5t29.5 25.5t20.5 48.5t7.5 77.5z" />
    <glyph glyph-name="ampersand" unicode="&#x26;" horiz-adv-x="664" 
d="M546 -72q0 35 -12 68t-32 67q-38 -36 -92 -57t-124 -21q-47 0 -88 15.5t-72 43t-48.5 64.5t-17.5 81q0 56 17 97.5t40.5 70t48 45t39.5 23.5q-25 40 -40 80t-15 82q0 33 9.5 62.5t30 52t51.5 35.5t74 13q49 0 81 -15.5t51 -38.5t26.5 -51t7.5 -53q0 -19 -1 -32.5
t-3 -22.5q-2 -11 -4 -17h-18q2 6 4 16q2 8 3 21t1 31q0 24 -7 50t-24 47t-45.5 34.5t-71.5 13.5q-38 0 -65.5 -12.5t-45.5 -32.5t-27 -46.5t-9 -54.5q0 -65 37 -127.5t90 -124t110.5 -122t99.5 -122.5q40 44 60 101.5t22 118.5l1 33h16v-33q0 -63 -21.5 -125.5t-67.5 -110.5
q23 -36 36 -72.5t13 -74.5h-18zM492 78q-27 42 -63 83t-74.5 83t-75.5 84t-66 85q-10 -6 -32.5 -21.5t-45 -43t-40 -67t-17.5 -92.5q0 -44 18 -78.5t47.5 -58.5t66.5 -37t76 -13q68 0 119 20.5t87 55.5z" />
    <glyph glyph-name="quotesingle" unicode="'" horiz-adv-x="144" 
d="M80 647h-17v22l-3 104h24l-4 -104v-22z" />
    <glyph glyph-name="parenleft" unicode="(" horiz-adv-x="289" 
d="M78 338q0 -105 22.5 -179t50.5 -122t51.5 -71t26.5 -26h-24q-41 35 -73 91q-27 48 -49.5 123.5t-22.5 183.5t22.5 185.5t49.5 128.5q32 59 73 98h23q-3 -2 -26.5 -27t-51 -75t-50 -127t-22.5 -183z" />
    <glyph glyph-name="parenright" unicode=")" horiz-adv-x="289" 
d="M211 329q0 106 -22.5 184.5t-50.5 130t-51.5 77.5t-26.5 29h24q40 -42 72 -103q27 -52 50 -131t23 -187t-23 -184t-50 -125q-32 -57 -72 -94h-24q3 3 26.5 27t51.5 72.5t50.5 123.5t22.5 180z" />
    <glyph glyph-name="asterisk" unicode="*" horiz-adv-x="430" 
d="M168 750l48 -136l86 118l17 -16l-92 -108l143 -16l-5 -22l-141 26l57 -133l-21 -7l-47 132l-85 -113l-17 14l94 110l-145 17l4 22l139 -26l-56 130z" />
    <glyph glyph-name="plus" unicode="+" horiz-adv-x="476" 
d="M252 262h164v-18h-164v-187h-18v187h-174v18h174v174h18v-174z" />
    <glyph glyph-name="comma" unicode="," horiz-adv-x="142" 
d="M30 11q0 11 7.5 18.5t18.5 7.5t18.5 -8.5t7.5 -20.5q0 -15 -3 -27.5t-7 -22.5q-4 -11 -9 -21h-17q3 9 7 18q3 8 5.5 16t2.5 14h-5q-11 0 -18.5 7.5t-7.5 18.5z" />
    <glyph glyph-name="hyphen" unicode="-" horiz-adv-x="365" 
d="M60 281h245v-18h-245v18z" />
    <glyph glyph-name="period" unicode="." horiz-adv-x="142" 
d="M30 11q0 11 8 18.5t18 7.5t18 -7.5t8 -18.5t-8 -18.5t-18 -7.5t-18 7.5t-8 18.5z" />
    <glyph glyph-name="slash" unicode="/" horiz-adv-x="401" 
d="M321 752h20l-260 -877h-21z" />
    <glyph glyph-name="zero" unicode="0" horiz-adv-x="552" 
d="M60 334q0 105 13.5 177.5t40.5 117.5t67 65.5t94 20.5t94.5 -20t67.5 -65t41 -118t14 -178q0 -100 -17.5 -167t-47 -107.5t-68.5 -57.5t-82 -17t-82 17.5t-69 58t-48 107.5t-18 166zM474 334q0 100 -13 169t-38 112.5t-62 63t-86 19.5t-86 -19.5t-61.5 -62.5t-37 -112.5
t-12.5 -169.5q0 -95 17 -158.5t44.5 -102t63.5 -55t74 -16.5t73.5 16.5t63 55t44 102t16.5 158.5z" />
    <glyph glyph-name="one" unicode="1" horiz-adv-x="506" 
d="M80 17h186v634q-14 -21 -36.5 -42.5t-49 -39t-53.5 -28t-50 -10.5v15q24 0 56.5 17t62 40.5t50 49t20.5 43.5v4h18v-683h162v-17h-366v17z" />
    <glyph glyph-name="two" unicode="2" horiz-adv-x="518" 
d="M436 515q0 87 -43 135t-124 48q-52 0 -88.5 -16.5t-59 -41.5t-33 -55.5t-10.5 -57.5q0 -16 1 -28t3 -20q2 -10 4 -17h-18q-2 6 -4 16q-2 8 -3 21t-1 32q0 29 10.5 61.5t35.5 59.5t64.5 45t98.5 18q47 0 81.5 -14.5t57.5 -41t34.5 -63.5t11.5 -81q0 -70 -27 -126
t-67.5 -102t-88 -83.5t-88 -69.5t-68 -60.5t-27.5 -56.5h370v-17h-390v17q0 32 27.5 62.5t68 63.5t88.5 70t88.5 81.5t68 99t27.5 121.5z" />
    <glyph glyph-name="three" unicode="3" horiz-adv-x="539" 
d="M445 549q0 -63 -37 -108.5t-98 -63.5q33 -6 63.5 -19t54 -35.5t37.5 -55t14 -78.5q0 -44 -16 -81t-45 -64.5t-68.5 -43t-86.5 -15.5q-32 0 -58.5 7t-48.5 18.5t-39 26.5t-30 31q-31 36 -50 83l17 3q19 -43 49 -76q25 -29 64.5 -52.5t95.5 -23.5q39 0 74.5 13t63 37
t44 58.5t16.5 78.5q0 53 -21 87.5t-53.5 54.5t-71 28t-74.5 8h-32v16h37q33 1 65.5 11.5t58 31.5t41.5 51.5t16 71.5q0 28 -11.5 55t-32.5 48t-51.5 33.5t-68.5 12.5q-40 0 -71.5 -13.5t-53 -34.5t-33 -47t-11.5 -50q0 -18 0.5 -29t1.5 -18q1 -8 3 -11h-18q-2 4 -3 12
q-1 7 -1.5 19t-0.5 31q0 25 12.5 53t36 51t58.5 38.5t80 15.5q43 0 77 -13.5t57 -36.5t35.5 -53t12.5 -63z" />
    <glyph glyph-name="four" unicode="4" horiz-adv-x="522" 
d="M242 700h20l-201 -455h316v456h18v-456h67v-17h-67v-228h-18v228h-337v17z" />
    <glyph glyph-name="five" unicode="5" horiz-adv-x="552" 
d="M276 419q-36 0 -68.5 -5t-58.5 -10q-30 -6 -56 -14l20 310h337v-17h-317l-20 -270q19 6 45 11q22 5 52 8.5t66 3.5q47 0 87 -14.5t68.5 -43.5t44.5 -72t16 -99q0 -50 -15.5 -91t-45.5 -70t-72.5 -45t-96.5 -16q-32 0 -58 7t-47 18.5t-37 26.5t-28 31q-28 36 -43 83l17 3
q15 -43 41 -76q23 -29 60 -52.5t95 -23.5q98 0 155 55t57 150q0 53 -15 92.5t-41.5 66t-62.5 40t-79 13.5z" />
    <glyph glyph-name="six" unicode="6" horiz-adv-x="565" 
d="M505 216q0 -58 -16 -101.5t-44.5 -72t-66.5 -43t-81 -14.5q-47 0 -89.5 20t-75.5 62.5t-52.5 108.5t-19.5 158q0 105 17.5 178t49 118t75 65t94.5 20q30 0 53.5 -6t42 -15.5t32 -21.5t23.5 -25q23 -30 32 -68l-14 -3q-11 34 -33 61q-19 23 -51.5 42t-84.5 19
q-46 0 -85 -19t-68.5 -61t-46.5 -109.5t-18 -163.5q23 25 55 44q26 17 64 31t85 14q45 0 85 -12.5t71 -38.5t49 -67.5t18 -99.5zM282 417q-43 0 -80 -14.5t-65 -31.5q-33 -20 -59 -45q1 -87 20 -148.5t49.5 -100.5t69.5 -57t80 -18q89 0 140 56.5t51 157.5q0 50 -15.5 88
t-42.5 63t-65 37.5t-83 12.5z" />
    <glyph glyph-name="seven" unicode="7" horiz-adv-x="518" 
d="M9 700h468v-17q0 -37 -22 -83t-54.5 -99.5t-71 -112.5t-71 -122.5t-54.5 -130.5t-22 -135h-20q0 70 22 138t54.5 131.5t71 122t71 111t54.5 98t22 82.5h-448v17z" />
    <glyph glyph-name="eight" unicode="8" horiz-adv-x="582" 
d="M86 538q0 39 14 71.5t39.5 55.5t62 36.5t80.5 13.5q52 0 92.5 -14.5t67.5 -39t41 -56.5t14 -67q0 -34 -11 -65.5t-30 -56t-43.5 -41.5t-52.5 -22q33 -9 62 -21.5t51.5 -33t35.5 -51t13 -75.5q0 -47 -18 -82t-50 -58t-75.5 -35t-95.5 -12q-50 0 -91 11.5t-70 36t-45.5 63
t-16.5 92.5t18 89t42 56t47 30.5t33 12.5q-24 9 -45 21.5t-36.5 31.5t-24 45.5t-8.5 63.5zM503 172q0 42 -12.5 70.5t-33 47.5t-48.5 30t-59 19t-64 14t-63 15q-11 -3 -35 -12t-48 -29.5t-42.5 -54t-18.5 -84.5q0 -50 14.5 -85t41.5 -57.5t64.5 -33t83.5 -10.5q49 0 90 11
t69.5 32.5t44.5 53t16 73.5zM479 538q0 33 -14.5 62t-40 51t-62 34.5t-79.5 12.5q-39 0 -72 -12t-57 -33.5t-37 -51t-13 -63.5q0 -50 18.5 -80t49 -48t69 -28t78.5 -19q35 0 64.5 15t50.5 40t33 56.5t12 63.5z" />
    <glyph glyph-name="nine" unicode="9" horiz-adv-x="568" 
d="M61 483q0 58 16.5 101.5t45 72.5t66.5 43.5t82 14.5q46 0 89 -20t76 -63t52.5 -109t19.5 -159q0 -105 -18 -177t-49.5 -117t-73 -65t-88.5 -20q-32 0 -57.5 7t-46.5 19t-37 27t-28 30q-28 36 -43 83l17 3q14 -43 40 -76q23 -29 60.5 -52.5t94.5 -23.5q44 0 82 18.5t66 60
t44.5 108t17.5 162.5q-25 -25 -57 -43q-27 -16 -64 -29t-82 -13t-85.5 12t-71.5 38.5t-49.5 67.5t-18.5 99zM286 283q44 0 80.5 13.5t63.5 30.5q32 19 58 45q-1 87 -20 149t-49.5 101.5t-69 57.5t-78.5 18q-44 0 -80 -15t-61 -42.5t-38.5 -67.5t-13.5 -90t15.5 -87.5
t43.5 -62.5t66 -37.5t83 -12.5z" />
    <glyph glyph-name="colon" unicode=":" horiz-adv-x="172" 
d="M60 11q0 11 8 18.5t18 7.5t18 -7.5t8 -18.5t-8 -18.5t-18 -7.5t-18 7.5t-8 18.5zM60 432q0 11 8 18.5t18 7.5t18 -7.5t8 -18.5t-8 -18.5t-18 -7.5t-18 7.5t-8 18.5z" />
    <glyph glyph-name="semicolon" unicode=";" horiz-adv-x="172" 
d="M60 432q0 11 8 18.5t18 7.5t18 -7.5t8 -18.5t-8 -18.5t-18 -7.5t-18 7.5t-8 18.5zM60 11q0 11 7.5 18.5t18.5 7.5t18.5 -8.5t7.5 -20.5q0 -15 -3 -27.5t-7 -22.5q-4 -11 -9 -21h-17q3 9 7 18q3 8 5.5 16t2.5 14h-5q-11 0 -18.5 7.5t-7.5 18.5z" />
    <glyph glyph-name="less" unicode="&#x3c;" horiz-adv-x="426" 
d="M60 255v18l306 184v-21l-289 -172l289 -172v-21z" />
    <glyph glyph-name="equal" unicode="=" horiz-adv-x="479" 
d="M60 163h359v-18h-359v18zM60 371h359v-18h-359v18z" />
    <glyph glyph-name="greater" unicode="&#x3e;" horiz-adv-x="426" 
d="M60 71v21l289 172l-289 172v21l306 -184v-18z" />
    <glyph glyph-name="question" unicode="?" horiz-adv-x="461" 
d="M383 533q0 87 -43 126t-124 39q-42 0 -73.5 -12.5t-52 -32.5t-30.5 -46.5t-10 -53.5q0 -16 1 -26t3 -16q2 -7 4 -11h-18q-2 3 -4 10q-2 6 -3 17t-1 30q0 33 12.5 61.5t36.5 50t58 34t77 12.5q94 0 139.5 -46.5t45.5 -135.5q0 -45 -13 -75.5t-33 -54.5t-43 -45t-43 -47
t-33 -60t-13 -84h-20q0 51 13.5 86.5t33.5 61.5t43 47t43 45t33.5 53.5t13.5 72.5zM182 16q0 12 9.5 21.5t21.5 9.5t21.5 -9.5t9.5 -21.5t-9.5 -21.5t-21.5 -9.5t-21.5 9.5t-9.5 21.5z" />
    <glyph glyph-name="at" unicode="@" horiz-adv-x="827" 
d="M767 123q-42 -53 -97 -94q-23 -18 -51.5 -34.5t-61.5 -29.5t-70 -21t-78 -8q-75 0 -139 27.5t-110.5 76t-73 113.5t-26.5 140q0 78 27 149t77 126t120.5 87.5t158.5 32.5q70 0 128 -22.5t99.5 -60t64.5 -87.5t23 -105q0 -71 -21 -127.5t-52 -95.5t-66.5 -60t-64.5 -21
t-43.5 17t-6.5 49l11 43q-10 -17 -24 -35.5t-32 -33.5t-40.5 -25t-49.5 -10q-60 0 -92.5 37t-32.5 111q0 46 19 91.5t49 82t68 59t76 22.5q28 0 48.5 -7.5t35 -18.5t23.5 -22.5t14 -19.5l14 51h17l-87 -327q-6 -24 5 -35.5t28 -11.5q27 0 59.5 20t61 57.5t47.5 90.5t19 119
q0 53 -22.5 100t-62.5 82t-94.5 55.5t-118.5 20.5q-80 0 -147.5 -30t-116 -81.5t-75.5 -120t-27 -146.5q0 -70 25 -132t69.5 -108t105 -73t132.5 -27q40 0 76 7.5t67.5 20.5t58.5 29.5t50 33.5q53 40 93 91zM262 262q0 -27 6 -50.5t18.5 -41.5t33 -28.5t49.5 -10.5
q35 0 62.5 17.5t48 41t33 47.5t17.5 37l41 154q-4 9 -12.5 21.5t-22 23.5t-33.5 19t-47 8q-36 0 -71 -22t-62 -56.5t-44 -76.5t-17 -83z" />
    <glyph glyph-name="A" unicode="A" horiz-adv-x="577" 
d="M281 700h18l261 -700h-19l-85 229h-334l-86 -229h-19zM128 246h321l-159 430z" />
    <glyph glyph-name="B" unicode="B" horiz-adv-x="564" 
d="M60 700h202q41 0 77.5 -9t64 -30t43.5 -56t16 -86q0 -44 -13 -73.5t-30.5 -46.5t-36 -24t-30.5 -7v-2q18 0 44 -8.5t49.5 -29t40.5 -55.5t17 -89q0 -51 -21 -86.5t-55 -57t-77.5 -31t-88.5 -9.5h-202v700zM78 359v-342h184q37 0 76.5 6.5t72.5 25t54 51t21 84.5
q0 91 -50.5 133t-139.5 42h-218zM445 519q0 81 -46 122.5t-137 41.5h-184v-307h218q44 0 73 10.5t46 29.5t23.5 45t6.5 58z" />
    <glyph glyph-name="C" unicode="C" horiz-adv-x="575" 
d="M78 334q0 -95 22 -158.5t56.5 -102t75.5 -55t79 -16.5q60 0 97 23t57 52q24 33 34 76l16 -3q-8 -47 -33 -83q-21 -31 -62 -56.5t-109 -25.5q-43 0 -87.5 17t-81 57.5t-59.5 107.5t-23 167q0 105 19.5 178t54 118t81 65t100.5 20q52 0 89 -18t60.5 -45.5t34.5 -60
t11 -60.5q0 -19 -1 -32t-3 -21q-2 -10 -4 -16h-18q2 7 4 17q2 8 3 20t1 28q0 27 -10 57.5t-32 55.5t-55.5 41.5t-79.5 16.5q-49 0 -92 -19.5t-75.5 -62.5t-51 -112.5t-18.5 -169.5z" />
    <glyph glyph-name="D" unicode="D" horiz-adv-x="563" 
d="M77 683v-666h176q38 0 79 16.5t75 53.5t56 97t22 147q0 95 -23 162t-62 109t-90.5 61.5t-109.5 19.5h-123zM60 0v700h140q62 0 117 -20t96.5 -64t65.5 -114.5t24 -170.5q0 -90 -23 -153t-59.5 -102.5t-81 -57.5t-86.5 -18h-193z" />
    <glyph glyph-name="E" unicode="E" horiz-adv-x="504" 
d="M60 700h384v-17h-366v-314h307v-17h-307v-335h366v-17h-384v700z" />
    <glyph glyph-name="F" unicode="F" horiz-adv-x="441" 
d="M60 700h369v-17h-351v-314h324v-17h-324v-352h-18v700z" />
    <glyph glyph-name="G" unicode="G" horiz-adv-x="573" 
d="M311 316h202v-316h-18v108q-13 -35 -39 -62q-22 -23 -59 -42t-96 -19q-43 0 -86 17t-77.5 57.5t-56 107.5t-21.5 167q0 105 18 178t50.5 118t77.5 65t99 20q52 0 89 -18t60.5 -45t34.5 -59.5t11 -61.5q0 -19 -1 -32t-3 -21q-2 -10 -4 -16h-18q2 7 4 17q2 8 3 20t1 28
q0 27 -10 57.5t-31.5 55.5t-55 41.5t-80.5 16.5q-49 0 -90.5 -19.5t-72 -62.5t-47.5 -112.5t-17 -169.5q0 -95 20.5 -158.5t53 -102t72 -55t77.5 -16.5q32 0 57.5 6.5t45 17t34 24t24.5 27.5q24 33 33 76v147h-184v16z" />
    <glyph glyph-name="H" unicode="H" horiz-adv-x="561" 
d="M501 0h-18v352h-405v-352h-18v700h18v-331h405v331h18v-700z" />
    <glyph glyph-name="I" unicode="I" horiz-adv-x="138" 
d="M78 0h-18v700h18v-700z" />
    <glyph glyph-name="J" unicode="J" horiz-adv-x="271" 
d="M193 700h18v-559q0 -63 -33.5 -102t-96.5 -39h-71v17h71q52 0 82 33.5t30 90.5v559z" />
    <glyph glyph-name="K" unicode="K" horiz-adv-x="558" 
d="M519 0q-27 0 -47 25t-36.5 62.5t-33 81t-35 81t-42.5 62.5t-57 25h-190v-337h-18v700h18v-346h190q31 0 60.5 29.5t53 77.5t38 110.5t14.5 128.5h20q0 -62 -12.5 -120t-33 -105.5t-47.5 -81t-57 -47.5q29 -13 50.5 -42t38.5 -65.5t31 -75.5t28.5 -71.5t30.5 -53.5t37 -21
h23v-17h-24z" />
    <glyph glyph-name="L" unicode="L" horiz-adv-x="442" 
d="M60 700h18v-683h342v-17h-360v700z" />
    <glyph glyph-name="M" unicode="M" horiz-adv-x="737" 
d="M610 660l-232 -560h-19l-233 560l-37 -660h-19l40 700h19l239 -577l240 577h19l40 -700h-19z" />
    <glyph glyph-name="N" unicode="N" horiz-adv-x="549" 
d="M489 0h-18l-393 665v-665h-18v700h18l393 -664v664h18v-700z" />
    <glyph glyph-name="O" unicode="O" horiz-adv-x="596" 
d="M46 334q0 105 18 177.5t50.5 117.5t77 65.5t98.5 20.5t99 -20t77.5 -65t51 -118t18.5 -178q0 -100 -22 -167t-57 -107.5t-78.5 -57.5t-86.5 -17t-86.5 17.5t-79 58t-58 107.5t-22.5 166zM518 334q0 100 -17.5 169t-48 112.5t-72 63t-90.5 19.5t-90.5 -19.5t-71.5 -62.5
t-47 -112.5t-17 -169.5q0 -95 21.5 -158.5t54.5 -102t73.5 -55t78.5 -16.5t78 16.5t73 55t54 102t21 158.5z" />
    <glyph glyph-name="P" unicode="P" horiz-adv-x="478" 
d="M60 700h202q90 0 145.5 -53t55.5 -156q0 -44 -13.5 -79t-37.5 -60t-57.5 -38.5t-74.5 -13.5h-202v-300h-18v700zM445 491q0 40 -11.5 75t-34.5 61t-57.5 41t-79.5 15h-184v-366h202q78 0 121.5 48t43.5 126z" />
    <glyph glyph-name="Q" unicode="Q" horiz-adv-x="628" 
d="M247 -7q-53 14 -94 55q-18 18 -34.5 43t-29.5 59.5t-21 80t-8 103.5q0 105 18 177.5t50.5 117.5t77 65.5t98.5 20.5t99 -20t77.5 -65t51 -118t18.5 -178q0 -100 -22 -167t-57 -107.5t-78.5 -57.5t-86.5 -17h-6t-7 1q-4 0 -8 1q23 -13 51 -24q24 -9 57 -16t72 -7
q17 0 34.5 2.5t33.5 6.5q18 4 36 10l6 -15q-15 -6 -33 -10q-15 -4 -35 -7t-42 -3q-54 0 -94 10.5t-68 23.5q-33 15 -56 35zM532 334q0 100 -17.5 169t-48 112.5t-72 63t-90.5 19.5t-90.5 -19.5t-71.5 -62.5t-47 -112.5t-17 -169.5q0 -95 21.5 -158.5t54.5 -102t73.5 -55
t78.5 -16.5t78 16.5t73 55t54 102t21 158.5z" />
    <glyph glyph-name="R" unicode="R" horiz-adv-x="568" 
d="M529 0q-27 0 -47 23.5t-36.5 58.5t-33 76.5t-35 76.5t-42.5 58.5t-57 23.5h-200v-317h-18v700h195q90 0 145.5 -50t55.5 -153q0 -73 -36 -117t-96 -58q26 -14 46 -42.5t36.5 -62t30 -69t27.5 -65t30 -48t36 -18.5h23v-17h-24zM438 497q0 40 -11.5 74t-34.5 59t-57.5 39
t-79.5 14h-177v-349h200q75 0 117.5 43t42.5 120z" />
    <glyph glyph-name="S" unicode="S" horiz-adv-x="532" 
d="M472 181q0 -44 -14.5 -80t-41 -61.5t-64.5 -40t-85 -14.5q-38 0 -67.5 9t-52 23t-38.5 32.5t-27 37.5q-26 45 -33 102l18 3q8 -54 33 -95q10 -18 25 -35t35 -30.5t46.5 -21.5t60.5 -8q40 0 74 12.5t59 35.5t39.5 56.5t14.5 74.5q0 53 -27 88t-67.5 61t-88 47t-88 46
t-67.5 58t-27 84q0 32 11.5 59.5t34 47.5t56 31.5t76.5 11.5q49 0 83 -15.5t55.5 -38.5t31.5 -51t10 -53q0 -19 -1 -32.5t-3 -22.5q-2 -11 -4 -17h-18q2 6 4 16q2 8 3 21t1 31q0 24 -9.5 50t-29 47t-50 34.5t-73.5 13.5q-38 0 -67.5 -11t-50 -29.5t-31.5 -42.5t-11 -50
q0 -46 27 -76.5t67.5 -54t88 -44.5t88 -48t67.5 -65.5t27 -95.5z" />
    <glyph glyph-name="T" unicode="T" horiz-adv-x="511" 
d="M496 683h-232v-683h-18v683h-231v17h481v-17z" />
    <glyph glyph-name="U" unicode="U" horiz-adv-x="549" 
d="M78 310q0 -90 15 -149.5t41.5 -94.5t63 -49.5t78.5 -14.5t77.5 14t62 49t41 94t14.5 149v392h18v-392q0 -96 -16.5 -158t-45 -99t-67.5 -51.5t-84 -14.5q-46 0 -85.5 15t-68.5 52t-45.5 100t-16.5 158v390h18v-390z" />
    <glyph glyph-name="V" unicode="V" horiz-adv-x="532" 
d="M276 0h-18l-243 700h19l233 -674l231 674h19z" />
    <glyph glyph-name="W" unicode="W" horiz-adv-x="883" 
d="M441 667l-194 -667h-18l-210 700h19l200 -670l194 670h19l193 -670l201 670h19l-211 -700h-18z" />
    <glyph glyph-name="X" unicode="X" horiz-adv-x="541" 
d="M270 368l191 332h20l-201 -350l200 -348h-20l-190 331l-190 -331h-20l200 348l-200 350h20z" />
    <glyph glyph-name="Y" unicode="Y" horiz-adv-x="553" 
d="M287 310v-310h-18v310l-254 390h23l240 -371l239 371h21z" />
    <glyph glyph-name="Z" unicode="Z" horiz-adv-x="510" 
d="M60 700h390v-17l-370 -666h370v-17h-390v17l370 666h-370v17z" />
    <glyph glyph-name="bracketleft" unicode="[" horiz-adv-x="190" 
d="M60 750h70v-17h-53v-748h53v-17h-70v782z" />
    <glyph glyph-name="backslash" unicode="\" horiz-adv-x="401" 
d="M341 -125h-21l-260 877h20z" />
    <glyph glyph-name="bracketright" unicode="]" horiz-adv-x="190" 
d="M130 -32h-70v17h53v747h-53v18h70v-782z" />
    <glyph glyph-name="underscore" unicode="_" horiz-adv-x="403" 
d="M60 -8h283v-20h-283v20z" />
    <glyph glyph-name="grave" unicode="`" horiz-adv-x="237" 
d="M161 558l-101 130l18 11l99 -141h-16z" />
    <glyph glyph-name="a" unicode="a" 
d="M350 45q0 -19 4.5 -23.5t14.5 -4.5h14v-17h-15q-17 0 -26 10.5t-9 35.5v56q-2 -4 -9.5 -23t-24 -40t-43.5 -37.5t-67 -16.5q-63 0 -96.5 39t-33.5 102q0 32 12 60.5t36 49.5t60 33.5t84 12.5h82v81q-1 62 -27.5 98.5t-90.5 36.5q-33 0 -57 -10.5t-39 -27.5t-22 -38.5
t-7 -43.5q0 -26 3 -38q1 -8 3 -13h-18q-2 5 -3 13q-3 13 -3 41q0 24 8 47.5t25 43t44 31.5t66 12t65 -11.5t41.5 -31.5t22 -48.5t6.5 -62.5v-316zM189 2q37 0 62.5 18t42.5 42.5t26.5 49t12.5 37.5v115h-83q-38 0 -70 -9.5t-55 -27.5t-36 -43.5t-13 -57.5q0 -57 30.5 -90.5
t82.5 -33.5z" />
    <glyph glyph-name="b" unicode="b" horiz-adv-x="429" 
d="M60 752h17v-333q1 3 7.5 18.5t22 33t41.5 31t65 13.5q76 0 116 -65t40 -212q0 -74 -12.5 -122.5t-33.5 -77.5t-49.5 -41t-59.5 -12q-38 0 -64 13.5t-41.5 30.5t-23 32t-8.5 18v-79h-17v752zM352 238q0 71 -10 120.5t-28.5 80.5t-44 45t-56.5 14q-42 0 -68 -18t-41 -40
q-18 -26 -27 -57v-266q9 -32 27 -58q15 -22 41.5 -39.5t68.5 -17.5q28 0 53 10.5t44 37.5t30 72.5t11 115.5z" />
    <glyph glyph-name="c" unicode="c" horiz-adv-x="423" 
d="M77 238q0 -70 12.5 -115.5t33 -72.5t46.5 -37.5t54 -10.5q41 0 65 16.5t38 36.5q16 24 22 54l15 -3q-6 -35 -24 -61q-15 -23 -42.5 -41.5t-73.5 -18.5q-32 0 -61 12t-52 41t-36.5 77.5t-13.5 122.5q0 77 11 130t32 85.5t52 47t71 14.5q39 0 64.5 -14.5t40.5 -37
t21.5 -48.5t6.5 -50q0 -14 -1 -26t-2 -20l-3 -18h-16q1 8 3 18q1 8 2 19t1 24q0 22 -6 46t-19.5 44t-36 33t-55.5 13q-35 0 -62.5 -13t-47 -43.5t-29.5 -80.5t-10 -123z" />
    <glyph glyph-name="d" unicode="d" horiz-adv-x="460" 
d="M367 45q0 -19 4.5 -23.5t14.5 -4.5h14v-17h-15q-17 0 -26 10.5t-9 35.5v39q-7 -15 -17.5 -32.5t-27 -32.5t-38.5 -25t-52 -10q-32 0 -60 12t-49 41t-33.5 77.5t-12.5 122.5q0 147 40 212t116 65q31 0 54 -8.5t38.5 -21t25.5 -26.5t16 -25v316h17v-705zM77 238
q0 -70 11 -115.5t30 -72.5t44 -37.5t53 -10.5q31 0 53.5 13.5t39 33t26.5 41.5t16 39v270q-4 10 -12.5 27t-24 33t-39.5 27.5t-58 11.5q-31 0 -56.5 -14t-44 -45t-28.5 -80.5t-10 -120.5z" />
    <glyph glyph-name="e" unicode="e" horiz-adv-x="423" 
d="M78 278q-1 -6 -1 -13v-27q0 -70 12.5 -115.5t33 -72.5t46.5 -37.5t54 -10.5q43 0 67.5 16.5t37.5 36.5q15 24 20 54l15 -3q-4 -35 -20 -61q-14 -23 -42 -41.5t-78 -18.5q-32 0 -61 12t-52 41t-36.5 77.5t-13.5 122.5q0 77 11 130t32 85.5t50.5 47t66.5 14.5
q36 0 62.5 -14t43.5 -37.5t25.5 -53.5t8.5 -61q0 -13 -0.5 -25.5t-0.5 -22.5q-1 -12 -1 -23h-280zM220 498q-29 0 -53 -10.5t-42.5 -34.5t-30.5 -63t-16 -96h265v15q0 7 0.5 16.5t0.5 20.5q0 28 -7.5 55t-22.5 48.5t-38.5 35t-55.5 13.5z" />
    <glyph glyph-name="f" unicode="f" horiz-adv-x="321" 
d="M96 621q0 65 30 99.5t84 34.5q32 0 52.5 -12.5t33.5 -27.5q15 -18 23 -39l-14 -4q-8 19 -20 34q-11 13 -29 23.5t-46 10.5q-42 0 -69.5 -28.5t-27.5 -90.5v-121h188v-16h-188v-484h-17v484h-73v16h73v121z" />
    <glyph glyph-name="g" unicode="g" horiz-adv-x="482" 
d="M111 0q-10 -9 -17 -21q-7 -11 -12 -27t-5 -38q0 -64 43.5 -103.5t118.5 -39.5q39 0 69.5 10.5t52 28.5t33 43.5t11.5 55.5q0 66 -41 98t-109 31l-67 -1q-44 -1 -73.5 16t-29.5 58q0 22 7.5 36.5t17.5 22.5q11 10 26 14q-19 14 -33 35q-13 18 -23 45.5t-10 66.5
q0 38 11.5 71.5t33 58.5t52.5 39.5t71 14.5q39 0 74 -16q19 2 35 11q13 8 24 22t11 39h17q0 -27 -10.5 -43t-23.5 -25q-15 -11 -33 -15q36 -24 56.5 -65.5t20.5 -91.5q0 -38 -12 -71t-34 -57t-53.5 -38t-70.5 -14q-51 0 -88 23q-14 -4 -25 -12q-9 -7 -16.5 -19t-7.5 -32
q0 -17 7 -28t19 -17.5t27.5 -9t32.5 -2.5l67 1q77 1 122 -35.5t45 -110.5q0 -35 -13.5 -64t-37.5 -49t-57.5 -31t-74.5 -11q-86 0 -132.5 43.5t-46.5 116.5q0 27 5.5 45.5t13.5 30.5q8 14 19 23zM392 331q0 36 -10.5 66.5t-30.5 53t-48.5 35t-64.5 12.5t-64 -12.5t-47.5 -35
t-29.5 -53t-10 -66.5t10.5 -65.5t30 -51.5t48 -34t63.5 -12t63.5 12t48.5 33.5t30.5 51.5t10.5 66z" />
    <glyph glyph-name="h" unicode="h" 
d="M60 750h17v-393q1 5 8 30.5t23.5 54t44 51t68.5 22.5q61 0 95.5 -39t34.5 -102v-329q0 -19 4.5 -23.5t14.5 -4.5h14v-17h-15q-17 0 -26 10.5t-9 35.5v328q0 57 -29.5 90.5t-83.5 33.5q-20 0 -36.5 -7.5t-30 -20t-24.5 -28.5t-20 -32q-20 -39 -33 -88v-322h-17v750z" />
    <glyph glyph-name="i" unicode="i" horiz-adv-x="170" 
d="M77 45q0 -19 4.5 -23.5t14.5 -4.5h14v-17h-15q-17 0 -26 10.5t-9 35.5v454h17v-455zM37 652q0 12 9.5 21.5t21.5 9.5t21.5 -9.5t9.5 -21.5t-9.5 -21.5t-21.5 -9.5t-21.5 9.5t-9.5 21.5z" />
    <glyph glyph-name="j" unicode="j" horiz-adv-x="204" 
d="M104 500h17v-610q0 -63 -33.5 -102t-96.5 -39h-65v17h65q52 0 82.5 33.5t30.5 90.5v610zM82 652q0 12 9.5 21.5t21.5 9.5t21.5 -9.5t9.5 -21.5t-9.5 -21.5t-21.5 -9.5t-21.5 9.5t-9.5 21.5z" />
    <glyph glyph-name="k" unicode="k" horiz-adv-x="499" 
d="M339 500q0 -17 -10.5 -44t-28 -55.5t-40.5 -53.5t-48 -38q28 -10 48.5 -35.5t37 -57.5t30.5 -67.5t27.5 -64.5t28.5 -48t35 -19h20v-17h-21q-25 0 -44 22t-35 55t-31.5 72t-33.5 72t-40.5 55t-52.5 22h-104v-298h-17v750h17v-435h95q25 0 51 21.5t47.5 51t35 61
t13.5 51.5h20z" />
    <glyph glyph-name="l" unicode="l" horiz-adv-x="197" 
d="M87 750h17v-705q0 -19 4.5 -23.5t14.5 -4.5h14v-17h-15q-17 0 -26 10t-9 35v705z" />
    <glyph glyph-name="m" unicode="m" horiz-adv-x="746" 
d="M636 374q0 57 -29.5 90.5t-83.5 33.5q-19 0 -35 -7t-29 -18t-24 -25t-19 -29q-19 -35 -32 -79v-295q0 -19 4.5 -23.5t14.5 -4.5h14v-17h-15q-17 0 -26 10.5t-9 35.5v328q0 57 -29.5 90.5t-83.5 33.5q-20 0 -36.5 -7.5t-30 -20t-24.5 -28.5t-20 -32q-20 -39 -33 -88v-322
h-17v455q0 19 -4.5 23.5t-14.5 4.5h-14v17h15q17 0 26 -10.5t9 -35.5v-97q1 5 8.5 30.5t24 54t43.5 51t68 22.5q60 0 94 -38t36 -99q1 3 4.5 14.5t10 26.5t17.5 32t26 31t35 23.5t46 9.5q61 0 95.5 -39t34.5 -102v-329q0 -19 4.5 -23.5t14.5 -4.5h14v-17h-15q-17 0 -26 10.5
t-9 35.5v328z" />
    <glyph glyph-name="n" unicode="n" horiz-adv-x="477" 
d="M110 357q1 5 8 30.5t23.5 54t44 51t68.5 22.5q61 0 95.5 -39t34.5 -102v-329q0 -19 4.5 -23.5t14.5 -4.5h14v-17h-15q-17 0 -26 10.5t-9 35.5v328q0 57 -29.5 90.5t-83.5 33.5q-41 0 -69 -27.5t-44 -60.5q-19 -39 -31 -88v-322h-17v455q0 19 -4.5 23.5t-14.5 4.5h-15v17
h16q17 0 26 -10t9 -35v-98z" />
    <glyph glyph-name="o" unicode="o" horiz-adv-x="442" 
d="M55 238q0 77 11 129.5t32 85.5t51.5 47.5t70.5 14.5t71 -14.5t52.5 -47t32.5 -85.5t11 -130q0 -73 -14.5 -121.5t-37.5 -78t-53 -41.5t-61 -12q-32 0 -61.5 12t-53 41t-37.5 77.5t-14 122.5zM370 238q0 73 -10.5 122.5t-30 80t-47.5 44t-62 13.5q-35 0 -62.5 -13
t-46.5 -43.5t-29 -80.5t-10 -123q0 -70 13 -115.5t34 -72.5t47.5 -37.5t54.5 -10.5q27 0 54 11t48 38t34 72.5t13 114.5z" />
    <glyph glyph-name="p" unicode="p" horiz-adv-x="462" 
d="M110 415q1 3 7 19t21 34t41 32.5t67 14.5q76 0 116 -65t40 -212q0 -74 -12.5 -122.5t-33.5 -77.5t-49.5 -41t-59.5 -12q-40 0 -66 13t-41.5 29.5t-22 32t-7.5 19.5v-329h-17v705q0 19 -4.5 23.5t-14.5 4.5h-14v17h15q17 0 26 -10t9 -35v-40zM385 238q0 71 -10 120.5
t-28.5 80.5t-44 45t-56.5 14q-42 0 -68.5 -18t-41.5 -40q-18 -26 -26 -57v-266q8 -32 26 -58q15 -22 42 -39.5t69 -17.5q28 0 53 10.5t44 37.5t30 72.5t11 115.5z" />
    <glyph glyph-name="q" unicode="q" horiz-adv-x="460" 
d="M350 87q-2 -3 -9.5 -19.5t-23 -35t-40.5 -33t-62 -14.5q-32 0 -60 12t-49 41t-33.5 77.5t-12.5 122.5q0 147 40 212t116 65q38 0 63 -12t40.5 -27.5t22.5 -29t8 -16.5v25q0 25 9 35t26 10h15v-17h-14q-10 0 -14.5 -4.5t-4.5 -23.5v-705h-17v337zM77 238q0 -70 11 -115.5
t30 -72.5t44 -37.5t53 -10.5q38 0 63.5 19.5t41.5 43.5q18 28 30 64v270q-9 27 -27 49q-15 19 -41 34.5t-66 15.5q-31 0 -56.5 -14t-44 -45t-28.5 -80.5t-10 -120.5z" />
    <glyph glyph-name="r" unicode="r" horiz-adv-x="319" 
d="M110 356q1 5 8 30.5t23.5 54t44 51.5t68.5 23q11 0 19.5 -1t15.5 -3q8 -2 15 -4l-8 -16l-12 3q-6 2 -14 3t-16 1q-39 0 -66.5 -27.5t-44.5 -60.5q-20 -39 -33 -88v-322h-17v455q0 19 -4.5 23.5t-14.5 4.5h-14v17h15q17 0 26 -10t9 -35v-99z" />
    <glyph glyph-name="s" unicode="s" horiz-adv-x="421" 
d="M361 128q0 -31 -10.5 -57.5t-29.5 -45.5t-46 -29.5t-60 -10.5q-47 0 -77 18t-47 41q-20 26 -31 59l16 3q11 -29 29 -52q16 -20 42.5 -36t67.5 -16q27 0 51 9t41 25.5t27 39.5t10 52q0 38 -19 63t-47.5 42.5t-62 31.5t-62 31t-47.5 40t-19 60q0 24 7.5 45.5t23 38t38.5 26
t54 9.5q36 0 60.5 -11t39.5 -27.5t22 -37t7 -38.5q0 -14 -1 -24t-2 -16l-3 -12h-16l3 12q1 6 2 15t1 22q0 16 -6 34t-19.5 32.5t-35 24t-52.5 9.5q-27 0 -47 -8t-33 -22t-19.5 -32.5t-6.5 -39.5q0 -33 19 -54.5t47.5 -37t62 -29.5t62 -33t47.5 -45.5t19 -68.5z" />
    <glyph glyph-name="t" unicode="t" horiz-adv-x="377" 
d="M150 119q0 -62 27.5 -90.5t69.5 -28.5q28 0 46 10.5t29 23.5q12 15 20 34l14 -4q-8 -22 -23 -40q-13 -15 -33.5 -27t-52.5 -12q-54 0 -84 34.5t-30 99.5v365h-73v16h73v80l18 1l-1 -81h205v-16h-205v-365z" />
    <glyph glyph-name="u" unicode="u" 
d="M351 45q0 -19 4.5 -23.5t14.5 -4.5h14v-17h-15q-17 0 -26 10t-9 35v58q-1 -2 -7.5 -21t-22.5 -40.5t-43.5 -39t-70.5 -17.5q-63 0 -96.5 39t-33.5 102v374h17v-374q0 -57 30.5 -90.5t82.5 -33.5q42 0 69.5 22.5t44.5 50.5q19 33 30 74v351h17v-455z" />
    <glyph glyph-name="v" unicode="v" horiz-adv-x="389" 
d="M200 29l158 471h19l-167 -500h-20l-170 500h19z" />
    <glyph glyph-name="w" unicode="w" horiz-adv-x="623" 
d="M181 35l122 465h17l123 -465l141 465h19l-150 -500h-20l-122 471l-120 -471h-20l-151 500h19z" />
    <glyph glyph-name="x" unicode="x" horiz-adv-x="409" 
d="M204 269l124 231h21l-134 -251l133 -249h-22l-122 229l-122 -229h-22l133 249l-133 251h21z" />
    <glyph glyph-name="y" unicode="y" horiz-adv-x="408" 
d="M208 0l-180 500h21l168 -471l152 471h19l-160 -500l-38 -110q-9 -27 -19 -52t-24 -45t-35 -32t-52 -12h-40v17h40q26 0 43 8.5t29 25t20.5 39t18.5 51.5z" />
    <glyph glyph-name="z" unicode="z" horiz-adv-x="389" 
d="M60 500h269v-16l-248 -468h248v-16h-269v16l249 468h-249v16z" />
    <glyph glyph-name="braceleft" unicode="{" horiz-adv-x="305" 
d="M144 490q0 -34 -9.5 -59.5t-20.5 -43.5q-13 -21 -29 -36v-12q17 -16 30 -36q11 -17 21 -43t10 -59v-132q0 -24 8 -40.5t21.5 -26t31.5 -13.5t38 -4v-17q-23 0 -43.5 4t-37 15t-26 30.5t-9.5 51.5v133q0 28 -8 52.5t-19.5 41.5t-23 27t-18.5 10v25q7 0 18.5 9.5t23 26.5
t19.5 41.5t8 53.5v131q0 36 9.5 61t26 40t37 22t43.5 7v-16q-44 0 -72.5 -29.5t-28.5 -84.5v-130z" />
    <glyph glyph-name="bar" unicode="|" horiz-adv-x="136" 
d="M76 -123h-16v886h16v-886z" />
    <glyph glyph-name="braceright" unicode="}" horiz-adv-x="305" 
d="M161 620q0 55 -28.5 84.5t-72.5 29.5v16q22 0 43 -7t37.5 -22t26 -40t9.5 -61v-131q0 -29 8 -53.5t19.5 -41.5t23 -26.5t18.5 -9.5v-25q-7 0 -18.5 -10t-23 -27t-19.5 -41.5t-8 -52.5v-133q0 -32 -9.5 -51.5t-26 -30.5t-37.5 -15t-43 -4v17q20 0 38 4t31.5 13.5t21.5 26
t8 40.5v132q0 33 9.5 59t20.5 43q13 20 31 36v12q-17 15 -30 36q-11 18 -20 43.5t-9 59.5v130z" />
    <glyph glyph-name="asciitilde" unicode="~" horiz-adv-x="366" 
d="M301 666q1 -5 2 -9t2 -8.5t1 -9.5q0 -22 -14 -38.5t-44 -16.5q-19 0 -36.5 11.5t-34 25t-31.5 25t-28 11.5q-16 0 -29 -7.5t-13 -32.5q0 -7 0.5 -11.5t1.5 -8.5t3 -7h-16q-2 5 -3 9q-2 10 -2 18q0 22 14 38.5t44 16.5q17 0 33.5 -11.5t32.5 -25t32 -25t32 -11.5
q17 0 29.5 7.5t12.5 32.5q0 6 -1 11t-2 9t-2 7h16z" />
    <glyph glyph-name="exclamdown" unicode="&#xa1;" horiz-adv-x="182" 
d="M60 484q0 12 9.5 21.5t21.5 9.5t21.5 -9.5t9.5 -21.5t-9.5 -21.5t-21.5 -9.5t-21.5 9.5t-9.5 21.5zM92 234l4 -432h-24l3 432v98h17v-98z" />
    <glyph glyph-name="cent" unicode="&#xa2;" horiz-adv-x="452" 
d="M77 272q0 -62 15 -104t39 -67.5t53 -37t57 -11.5q41 0 66.5 16.5t41.5 36.5q18 24 28 54l15 -3q-10 -32 -28 -58q-16 -23 -43 -42t-70 -21v-53h-16v53q-31 1 -62.5 13.5t-56.5 40t-40.5 72.5t-15.5 111q0 75 13 127t36 85t55.5 48t70.5 17v58h16v-58q37 -2 63 -17
t42.5 -37t24 -47.5t7.5 -48.5q0 -14 -1 -26t-2 -20l-3 -18h-16q1 8 3 18q1 8 2 19t1 24q0 22 -7.5 46t-23 44t-40 33t-57.5 13q-35 0 -65.5 -13t-53 -43.5t-35.5 -80.5t-13 -123z" />
    <glyph glyph-name="yen" unicode="&#xa5;" horiz-adv-x="643" 
d="M155 251h159v59l-51 78h-108v18h96l-191 294h23l238 -373h4l237 373h21l-190 -294h100v-18h-111l-50 -78v-59h161v-18h-161v-233h-18v233h-159v18z" />
    <glyph glyph-name="brokenbar" unicode="&#xa6;" horiz-adv-x="136" 
d="M76 257v-380h-16v381zM60 404v359h16v-359h-16z" />
    <glyph glyph-name="section" unicode="&#xa7;" horiz-adv-x="568" 
d="M461 54q8 -17 13 -36t5 -42q0 -44 -14.5 -80t-41 -61.5t-64.5 -40t-85 -14.5q-34 0 -61.5 8.5t-48.5 23t-37 32.5t-28 37q-27 44 -39 101l18 3q12 -53 38 -94q11 -18 25.5 -34.5t34 -30t44 -21.5t54.5 -8q40 0 74 12.5t59 35.5t39.5 56.5t14.5 74.5q0 53 -26.5 87.5
t-67 60t-87 45.5t-87 44t-67 56.5t-26.5 83.5q0 36 14 67.5t42 53.5q-13 17 -20 37.5t-7 46.5q0 32 11 60.5t33 50t54.5 34t75.5 12.5q49 0 83 -15.5t55.5 -38.5t31.5 -51t10 -53h-18q0 20 -9.5 44.5t-29 46t-50 36t-73.5 14.5q-38 0 -67 -12t-49 -32t-30 -45t-10 -51
q0 -46 26.5 -76t67 -52.5t87 -42.5t87 -46.5t67 -64.5t26.5 -95q0 -38 -11.5 -71t-32.5 -58zM490 181q0 42 -17 72.5t-45 53t-63 40t-71 34.5t-69 35t-56 43q-26 -20 -38.5 -48.5t-12.5 -57.5q0 -39 19 -66t49.5 -47.5t68 -38t75 -36t70 -41.5t53.5 -56q37 46 37 113z" />
    <glyph glyph-name="dieresis" unicode="&#xa8;" horiz-adv-x="276" 
d="M60 606q0 12 8 20t20 8t20 -8t8 -20t-8 -20t-20 -8t-20 8t-8 20zM160 606q0 12 8 20t20 8t20 -8t8 -20t-8 -20t-20 -8t-20 8t-8 20z" />
    <glyph glyph-name="copyright" unicode="&#xa9;" horiz-adv-x="870" 
d="M60 313q0 78 29 147t80 120.5t119.5 81t146.5 29.5t146.5 -29.5t119.5 -81t80 -120.5t29 -147t-29 -147t-80 -120.5t-119.5 -81t-146.5 -29.5t-146.5 29.5t-119.5 81t-80 120.5t-29 147zM79 313q0 -75 27.5 -140t75.5 -114t113 -77t140 -28t140 28t113 77t75.5 114
t27.5 140t-27.5 140t-75.5 114t-113 77t-140 28t-140 -28t-113 -77t-75.5 -114t-27.5 -140zM281 289q0 -66 14.5 -110t37 -70t50 -36.5t53.5 -10.5q45 0 70 15.5t38 35.5q15 22 19 51l16 -4q-5 -32 -23 -58q-15 -22 -43.5 -39.5t-76.5 -17.5q-30 0 -60.5 12t-55 40.5
t-40.5 75t-16 116.5q0 73 13.5 124t36.5 82.5t55 45.5t70 14q37 0 63 -12.5t42.5 -31.5t24 -41.5t7.5 -42.5q0 -14 -1 -23t-2 -15q-2 -7 -3 -11h-18q1 5 2 12q1 6 2 14.5t1 19.5q0 19 -6 39.5t-20 37t-36.5 27t-55.5 10.5q-34 0 -63 -12.5t-50 -42t-33 -77t-12 -117.5z" />
    <glyph glyph-name="ordfeminine" unicode="&#xaa;" horiz-adv-x="350" 
d="M267 390q0 -13 3 -14.5t11 -1.5h9v-15h-14q-25 0 -25 32v36q-3 -10 -10 -23.5t-19 -25.5t-29.5 -20.5t-41.5 -8.5q-45 0 -68 26.5t-23 71.5t33 77t101 32h57v57q-1 43 -19 65t-63 22q-47 0 -66 -23t-19 -53q0 -9 0.5 -15.5t1.5 -11.5t2 -9h-15q-1 4 -2 9t-1.5 12t-0.5 17
q0 16 5.5 32.5t17.5 29t31 20.5t46 8q55 0 76.5 -28t21.5 -76v-222zM151 366q25 0 43 11.5t29.5 27t18 31.5t9.5 25v78h-58q-54 0 -86 -23.5t-32 -68.5q0 -39 19.5 -60t56.5 -21z" />
    <glyph glyph-name="guillemotleft" unicode="&#xab;" horiz-adv-x="281" 
d="M20 255v18l168 166v-23l-151 -152l151 -155v-23zM93 255v18l168 166v-23l-151 -152l151 -155v-23z" />
    <glyph glyph-name="logicalnot" unicode="&#xac;" horiz-adv-x="391" 
d="M60 280h271v-147h-18v129h-253v18z" />
    <glyph glyph-name="registered" unicode="&#xae;" horiz-adv-x="870" 
d="M60 313q0 78 29 147t80 120.5t119.5 81t146.5 29.5t146.5 -29.5t119.5 -81t80 -120.5t29 -147t-29 -147t-80 -120.5t-119.5 -81t-146.5 -29.5t-146.5 29.5t-119.5 81t-80 120.5t-29 147zM79 313q0 -75 27.5 -140t75.5 -114t113 -77t140 -28t140 28t113 77t75.5 114
t27.5 140t-27.5 140t-75.5 114t-113 77t-140 28t-140 -28t-113 -77t-75.5 -114t-27.5 -140zM633 65q-22 0 -38 16.5t-29.5 41t-25 53.5t-24 53.5t-27 41t-33.5 16.5h-135v-222h-17v490h135q63 0 102 -35t39 -107q0 -51 -25.5 -82.5t-67.5 -40.5q26 -15 43 -49.5t32 -70
t31.5 -62.5t40.5 -27h16v-16h-17zM563 413q0 57 -30 91.5t-94 34.5h-118v-234l131 -1q54 -1 82.5 27t28.5 82z" />
    <glyph glyph-name="macron" unicode="&#xaf;" horiz-adv-x="400" 
d="M60 619h280v-17h-280v17z" />
    <glyph glyph-name="plusminus" unicode="&#xb1;" horiz-adv-x="476" 
d="M252 343h164v-18h-164v-187h-18v187h-174v18h174v174h18v-174zM60 79h356v-18h-356v18z" />
    <glyph glyph-name="twosuperior" unicode="&#xb2;" horiz-adv-x="319" 
d="M243 615q0 38 -23 61t-55 23q-24 0 -41 -7t-27.5 -18t-15.5 -25t-5 -28t2 -24q1 -5 2 -8h-16l-2 8t-1.5 10t-0.5 16q0 15 5.5 31t18 29.5t32.5 22.5t49 9q39 0 66 -27.5t27 -72.5q0 -35 -13 -63.5t-33 -51.5t-42.5 -42t-42.5 -34t-33 -27.5t-13 -22.5h178v-16h-199v8
q0 16 13.5 31.5t34 32t44 35t44 40.5t34 49t13.5 61z" />
    <glyph glyph-name="threesuperior" unicode="&#xb3;" horiz-adv-x="341" 
d="M264 632q0 -31 -18.5 -54t-48.5 -32q33 -6 58.5 -27t25.5 -67q0 -44 -30 -73t-78 -29q-32 0 -53 12.5t-35 28.5q-16 18 -25 42l15 6q8 -21 21 -37q11 -14 30 -25t47 -11q39 0 66 22.5t27 63.5q0 24 -9.5 40t-24.5 26.5t-33.5 15t-36.5 4.5h-16v14h19q33 1 58 21.5
t25 58.5q0 29 -18.5 48.5t-56.5 19.5q-43 0 -60.5 -20.5t-17.5 -45.5q0 -9 0.5 -15t1.5 -11t2 -8h-15q-1 4 -2 9t-1.5 11t-0.5 16q0 13 5.5 27t16.5 25.5t29 19t42 7.5q48 0 69.5 -25t21.5 -58z" />
    <glyph glyph-name="acute" unicode="&#xb4;" horiz-adv-x="237" 
d="M60 558l99 141l18 -11l-101 -130h-16z" />
    <glyph glyph-name="paragraph" unicode="&#xb6;" horiz-adv-x="561" 
d="M501 700v-700h-18v683h-92v-683h-18v300h-130q-41 0 -74.5 13.5t-57.5 38.5t-37.5 60t-13.5 79q0 103 55.5 156t145.5 53h240z" />
    <glyph glyph-name="periodcentered" unicode="&#xb7;" horiz-adv-x="172" 
d="M60 304q0 11 8 18.5t18 7.5t18 -7.5t8 -18.5t-8 -18.5t-18 -7.5t-18 7.5t-8 18.5z" />
    <glyph glyph-name="cedilla" unicode="&#xb8;" horiz-adv-x="269" 
d="M193 -97q0 20 -17.5 31t-60.5 11l22 56h18l-17 -44q1 0 12.5 -0.5t24.5 -5t23.5 -15.5t10.5 -32q0 -32 -24 -51.5t-60 -19.5q-15 0 -27 3.5t-20 8.5q-10 5 -18 13l11 12q7 -7 16 -11q8 -5 17.5 -8t22.5 -3q26 0 46 14.5t20 40.5z" />
    <glyph glyph-name="onesuperior" unicode="&#xb9;" horiz-adv-x="313" 
d="M62 374h93v302q-7 -11 -18.5 -21.5t-24.5 -19t-26.5 -14t-25.5 -5.5v15q12 0 28.5 9t31 21t25 24.5t10.5 20.5v2h16v-334h82v-16h-191v16z" />
    <glyph glyph-name="ordmasculine" unicode="&#xba;" horiz-adv-x="352" 
d="M60 522q0 107 29.5 150t85.5 43q28 0 49.5 -10t36.5 -32.5t23 -59.5t8 -91q0 -51 -10 -84.5t-26.5 -53t-37 -27t-42.5 -7.5t-43 7.5t-37 27t-26 52.5t-10 85zM277 522q0 51 -7 85t-20 54.5t-32 29.5t-43 9t-43 -8.5t-31.5 -29.5t-19 -55t-6.5 -85q0 -49 8.5 -79.5
t22.5 -47.5t32 -23t38 -6q19 0 37 6t32.5 23t23 47.5t8.5 79.5z" />
    <glyph glyph-name="guillemotright" unicode="&#xbb;" horiz-adv-x="281" 
d="M93 86v23l151 155l-151 152v23l168 -166v-18zM20 86v23l151 155l-151 152v23l168 -166v-18z" />
    <glyph glyph-name="onequarter" unicode="&#xbc;" horiz-adv-x="648" 
d="M62 374h93v302q-7 -11 -18.5 -21.5t-24.5 -19t-26.5 -14t-25.5 -5.5v15q12 0 28.5 9t31 21t25 24.5t10.5 20.5v2h16v-334h82v-16h-191v16zM139 -15l359 767h20l-359 -767h-20zM571 273q0 -31 -18.5 -54t-48.5 -32q33 -6 58.5 -27t25.5 -67q0 -44 -30 -73t-78 -29
q-32 0 -53 12.5t-35 28.5q-16 18 -25 42l15 6q8 -21 21 -37q11 -14 30 -25t47 -11q39 0 66 22.5t27 63.5q0 24 -9.5 40t-24.5 26.5t-33.5 15t-36.5 4.5h-16v14h19q33 1 58 21.5t25 58.5q0 29 -18.5 48.5t-56.5 19.5q-43 0 -60.5 -20.5t-17.5 -45.5q0 -9 0.5 -15t1.5 -11
t2 -8h-15q-1 4 -2 9t-1.5 11t-0.5 16q0 13 5.5 27t16.5 25.5t29 19t42 7.5q48 0 69.5 -25t21.5 -58z" />
    <glyph glyph-name="onehalf" unicode="&#xbd;" horiz-adv-x="616" 
d="M62 374h93v302q-7 -11 -18.5 -21.5t-24.5 -19t-26.5 -14t-25.5 -5.5v15q12 0 28.5 9t31 21t25 24.5t10.5 20.5v2h16v-334h82v-16h-191v16zM139 -15l359 767h20l-359 -767h-20zM540 250q0 38 -23 61t-55 23q-24 0 -41 -7t-27.5 -18t-15.5 -25t-5 -28t2 -24q1 -5 2 -8h-16
l-2 8t-1.5 10t-0.5 16q0 15 5.5 31t18 29.5t32.5 22.5t49 9q39 0 66 -27.5t27 -72.5q0 -35 -13 -63t-33 -50.5t-42.5 -40t-42.5 -32t-33 -26.5t-13 -22h178v-16h-199v8q0 16 13.5 31t34 30.5t44 33t44 39t34 48t13.5 60.5z" />
    <glyph glyph-name="threequarters" unicode="&#xbe;" horiz-adv-x="613" 
d="M139 -15l359 767h20l-359 -767h-20zM436 350h17l-100 -227h151v228h16v-228h33v-15h-33v-108h-16v108h-169v15zM264 632q0 -31 -18.5 -54t-48.5 -32q33 -6 58.5 -27t25.5 -67q0 -44 -30 -73t-78 -29q-32 0 -53 12.5t-35 28.5q-16 18 -25 42l15 6q8 -21 21 -37
q11 -14 30 -25t47 -11q39 0 66 22.5t27 63.5q0 24 -9.5 40t-24.5 26.5t-33.5 15t-36.5 4.5h-16v14h19q33 1 58 21.5t25 58.5q0 29 -18.5 48.5t-56.5 19.5q-43 0 -60.5 -20.5t-17.5 -45.5q0 -9 0.5 -15t1.5 -11t2 -8h-15q-1 4 -2 9t-1.5 11t-0.5 16q0 13 5.5 27t16.5 25.5
t29 19t42 7.5q48 0 69.5 -25t21.5 -58z" />
    <glyph glyph-name="questiondown" unicode="&#xbf;" horiz-adv-x="489" 
d="M78 -33q0 -87 43 -126t124 -39q42 0 73.5 12.5t52 32.5t30.5 46.5t10 53.5q0 15 -1 25.5t-3 16.5q-2 7 -4 11h18q2 -3 4 -10q2 -6 3 -17t1 -30q0 -33 -12.5 -61.5t-36.5 -50t-58 -34t-77 -12.5q-94 0 -139.5 46.5t-45.5 135.5q0 45 13 75.5t33 54.5t43 45t43 47t33 60
t13 84h20q0 -52 -13.5 -87t-33.5 -61t-43 -47t-43 -45t-33.5 -53.5t-13.5 -72.5zM279 484q0 -12 -9.5 -21.5t-21.5 -9.5t-21.5 9.5t-9.5 21.5t9.5 21.5t21.5 9.5t21.5 -9.5t9.5 -21.5z" />
    <glyph glyph-name="Agrave" unicode="&#xc0;" horiz-adv-x="577" 
d="M281 700h18l261 -700h-19l-85 229h-334l-86 -229h-19zM128 246h321l-159 430zM289 758l-101 130l18 11l99 -141h-16z" />
    <glyph glyph-name="Aacute" unicode="&#xc1;" horiz-adv-x="577" 
d="M281 700h18l261 -700h-19l-85 229h-334l-86 -229h-19zM128 246h321l-159 430zM253 758l99 141l18 -11l-101 -130h-16z" />
    <glyph glyph-name="Acircumflex" unicode="&#xc2;" horiz-adv-x="577" 
d="M281 700h18l261 -700h-19l-85 229h-334l-86 -229h-19zM128 246h321l-159 430zM297 899l90 -128h-17l-82 110l-82 -110h-17l90 128h18z" />
    <glyph glyph-name="Atilde" unicode="&#xc3;" horiz-adv-x="577" 
d="M281 700h18l261 -700h-19l-85 229h-334l-86 -229h-19zM128 246h321l-159 430zM406 866q1 -5 2 -9t2 -8.5t1 -9.5q0 -22 -14 -38.5t-44 -16.5q-19 0 -36.5 11.5t-34 25t-31.5 25t-28 11.5q-16 0 -29 -7.5t-13 -32.5q0 -7 0.5 -11.5t1.5 -8.5t3 -7h-16q-2 5 -3 9
q-2 10 -2 18q0 22 14 38.5t44 16.5q17 0 33.5 -11.5t32.5 -25t32 -25t32 -11.5q17 0 29.5 7.5t12.5 32.5q0 6 -1 11t-2 9t-2 7h16z" />
    <glyph glyph-name="Adieresis" unicode="&#xc4;" horiz-adv-x="577" 
d="M281 700h18l261 -700h-19l-85 229h-334l-86 -229h-19zM128 246h321l-159 430zM210 806q0 12 8 20t20 8t20 -8t8 -20t-8 -20t-20 -8t-20 8t-8 20zM310 806q0 12 8 20t20 8t20 -8t8 -20t-8 -20t-20 -8t-20 8t-8 20z" />
    <glyph glyph-name="Aring" unicode="&#xc5;" horiz-adv-x="577" 
d="M281 700h18l261 -700h-19l-85 229h-334l-86 -229h-19zM128 246h321l-159 430zM241 831q0 22 12 36t34 14t35 -14t13 -36t-13 -35.5t-35 -13.5t-34 13.5t-12 35.5zM255 831q0 -16 8 -25.5t24 -9.5t25 9.5t9 25.5t-9 26t-25 10t-24 -10t-8 -26z" />
    <glyph glyph-name="AE" unicode="&#xc6;" horiz-adv-x="899" 
d="M324 700h515v-17h-491l117 -314h315v-17h-308l124 -335h243v-17h-255l-85 229h-334l-86 -229h-19zM171 246h321l-159 430z" />
    <glyph glyph-name="Ccedilla" unicode="&#xc7;" horiz-adv-x="575" 
d="M78 334q0 -95 22 -158.5t56.5 -102t75.5 -55t79 -16.5q60 0 97 23t57 52q24 33 34 76l16 -3q-8 -47 -33 -83q-21 -31 -62 -56.5t-109 -25.5l-11 -28q1 0 12.5 -0.5t24.5 -5t23.5 -15.5t10.5 -32q0 -32 -24 -51.5t-60 -19.5q-15 0 -27 3.5t-20 8.5q-10 5 -18 13l11 12
q7 -7 16 -11q8 -5 17.5 -8t22.5 -3q26 0 46 14.5t20 40.5q0 20 -17.5 31t-60.5 11l16 41q-41 3 -82.5 22t-75 60t-54.5 106t-21 160q0 105 19.5 178t54 118t81 65t100.5 20q52 0 89 -18t60.5 -45.5t34.5 -60t11 -60.5q0 -19 -1 -32t-3 -21q-2 -10 -4 -16h-18q2 7 4 17
q2 8 3 20t1 28q0 27 -10 57.5t-32 55.5t-55.5 41.5t-79.5 16.5q-49 0 -92 -19.5t-75.5 -62.5t-51 -112.5t-18.5 -169.5z" />
    <glyph glyph-name="Egrave" unicode="&#xc8;" horiz-adv-x="504" 
d="M60 700h384v-17h-366v-314h307v-17h-307v-335h366v-17h-384v700zM276 758l-101 130l18 11l99 -141h-16z" />
    <glyph glyph-name="Eacute" unicode="&#xc9;" horiz-adv-x="504" 
d="M60 700h384v-17h-366v-314h307v-17h-307v-335h366v-17h-384v700zM240 758l99 141l18 -11l-101 -130h-16z" />
    <glyph glyph-name="Ecircumflex" unicode="&#xca;" horiz-adv-x="504" 
d="M60 700h384v-17h-366v-314h307v-17h-307v-335h366v-17h-384v700zM278 899l90 -128h-17l-82 110l-82 -110h-17l90 128h18z" />
    <glyph glyph-name="Edieresis" unicode="&#xcb;" horiz-adv-x="504" 
d="M60 700h384v-17h-366v-314h307v-17h-307v-335h366v-17h-384v700zM184 806q0 12 8 20t20 8t20 -8t8 -20t-8 -20t-20 -8t-20 8t-8 20zM284 806q0 12 8 20t20 8t20 -8t8 -20t-8 -20t-20 -8t-20 8t-8 20z" />
    <glyph glyph-name="Igrave" unicode="&#xcc;" horiz-adv-x="138" 
d="M78 0h-18v700h18v-700zM67 758l-101 130l18 11l99 -141h-16z" />
    <glyph glyph-name="Iacute" unicode="&#xcd;" horiz-adv-x="138" 
d="M78 0h-18v700h18v-700zM60 758l99 141l18 -11l-101 -130h-16z" />
    <glyph glyph-name="Icircumflex" unicode="&#xce;" horiz-adv-x="138" 
d="M78 0h-18v700h18v-700zM78 899l90 -128h-17l-82 110l-82 -110h-17l90 128h18z" />
    <glyph glyph-name="Idieresis" unicode="&#xcf;" horiz-adv-x="138" 
d="M78 0h-18v700h18v-700zM-9 806q0 12 8 20t20 8t20 -8t8 -20t-8 -20t-20 -8t-20 8t-8 20zM91 806q0 12 8 20t20 8t20 -8t8 -20t-8 -20t-20 -8t-20 8t-8 20z" />
    <glyph glyph-name="Eth" unicode="&#xd0;" horiz-adv-x="563" 
d="M15 364h45v336h140q62 0 117 -20t96.5 -64t65.5 -114.5t24 -170.5q0 -90 -23 -153t-59.5 -102.5t-81 -57.5t-86.5 -18h-193v347h-45v17zM77 683v-319h218v-17h-218v-330h176q38 0 79 16.5t75 53.5t56 97t22 147q0 95 -23 162t-62 109t-90.5 61.5t-109.5 19.5h-123z" />
    <glyph glyph-name="Ntilde" unicode="&#xd1;" horiz-adv-x="549" 
d="M489 0h-18l-393 665v-665h-18v700h18l393 -664v664h18v-700zM404 866q1 -5 2 -9t2 -8.5t1 -9.5q0 -22 -14 -38.5t-44 -16.5q-19 0 -36.5 11.5t-34 25t-31.5 25t-28 11.5q-16 0 -29 -7.5t-13 -32.5q0 -7 0.5 -11.5t1.5 -8.5t3 -7h-16q-2 5 -3 9q-2 10 -2 18q0 22 14 38.5
t44 16.5q17 0 33.5 -11.5t32.5 -25t32 -25t32 -11.5q17 0 29.5 7.5t12.5 32.5q0 6 -1 11t-2 9t-2 7h16z" />
    <glyph glyph-name="Ograve" unicode="&#xd2;" horiz-adv-x="610" 
d="M60 334q0 105 18 177.5t50.5 117.5t77 65.5t98.5 20.5t99 -20t77.5 -65t51 -118t18.5 -178q0 -100 -22 -167t-57 -107.5t-78.5 -57.5t-86.5 -17t-86.5 17.5t-79 58t-58 107.5t-22.5 166zM532 334q0 100 -17.5 169t-48 112.5t-72 63t-90.5 19.5t-90.5 -19.5t-71.5 -62.5
t-47 -112.5t-17 -169.5q0 -95 21.5 -158.5t54.5 -102t73.5 -55t78.5 -16.5t78 16.5t73 55t54 102t21 158.5zM315 758l-101 130l18 11l99 -141h-16z" />
    <glyph glyph-name="Oacute" unicode="&#xd3;" horiz-adv-x="610" 
d="M60 334q0 105 18 177.5t50.5 117.5t77 65.5t98.5 20.5t99 -20t77.5 -65t51 -118t18.5 -178q0 -100 -22 -167t-57 -107.5t-78.5 -57.5t-86.5 -17t-86.5 17.5t-79 58t-58 107.5t-22.5 166zM532 334q0 100 -17.5 169t-48 112.5t-72 63t-90.5 19.5t-90.5 -19.5t-71.5 -62.5
t-47 -112.5t-17 -169.5q0 -95 21.5 -158.5t54.5 -102t73.5 -55t78.5 -16.5t78 16.5t73 55t54 102t21 158.5zM271 758l99 141l18 -11l-101 -130h-16z" />
    <glyph glyph-name="Ocircumflex" unicode="&#xd4;" horiz-adv-x="610" 
d="M60 334q0 105 18 177.5t50.5 117.5t77 65.5t98.5 20.5t99 -20t77.5 -65t51 -118t18.5 -178q0 -100 -22 -167t-57 -107.5t-78.5 -57.5t-86.5 -17t-86.5 17.5t-79 58t-58 107.5t-22.5 166zM532 334q0 100 -17.5 169t-48 112.5t-72 63t-90.5 19.5t-90.5 -19.5t-71.5 -62.5
t-47 -112.5t-17 -169.5q0 -95 21.5 -158.5t54.5 -102t73.5 -55t78.5 -16.5t78 16.5t73 55t54 102t21 158.5zM309 899l90 -128h-17l-82 110l-82 -110h-17l90 128h18z" />
    <glyph glyph-name="Otilde" unicode="&#xd5;" horiz-adv-x="610" 
d="M60 334q0 105 18 177.5t50.5 117.5t77 65.5t98.5 20.5t99 -20t77.5 -65t51 -118t18.5 -178q0 -100 -22 -167t-57 -107.5t-78.5 -57.5t-86.5 -17t-86.5 17.5t-79 58t-58 107.5t-22.5 166zM532 334q0 100 -17.5 169t-48 112.5t-72 63t-90.5 19.5t-90.5 -19.5t-71.5 -62.5
t-47 -112.5t-17 -169.5q0 -95 21.5 -158.5t54.5 -102t73.5 -55t78.5 -16.5t78 16.5t73 55t54 102t21 158.5zM416 866q1 -5 2 -9t2 -8.5t1 -9.5q0 -22 -14 -38.5t-44 -16.5q-19 0 -36.5 11.5t-34 25t-31.5 25t-28 11.5q-16 0 -29 -7.5t-13 -32.5q0 -7 0.5 -11.5t1.5 -8.5
t3 -7h-16q-2 5 -3 9q-2 10 -2 18q0 22 14 38.5t44 16.5q17 0 33.5 -11.5t32.5 -25t32 -25t32 -11.5q17 0 29.5 7.5t12.5 32.5q0 6 -1 11t-2 9t-2 7h16z" />
    <glyph glyph-name="Odieresis" unicode="&#xd6;" horiz-adv-x="610" 
d="M60 334q0 105 18 177.5t50.5 117.5t77 65.5t98.5 20.5t99 -20t77.5 -65t51 -118t18.5 -178q0 -100 -22 -167t-57 -107.5t-78.5 -57.5t-86.5 -17t-86.5 17.5t-79 58t-58 107.5t-22.5 166zM532 334q0 100 -17.5 169t-48 112.5t-72 63t-90.5 19.5t-90.5 -19.5t-71.5 -62.5
t-47 -112.5t-17 -169.5q0 -95 21.5 -158.5t54.5 -102t73.5 -55t78.5 -16.5t78 16.5t73 55t54 102t21 158.5zM226 806q0 12 8 20t20 8t20 -8t8 -20t-8 -20t-20 -8t-20 8t-8 20zM326 806q0 12 8 20t20 8t20 -8t8 -20t-8 -20t-20 -8t-20 8t-8 20z" />
    <glyph glyph-name="multiply" unicode="&#xd7;" horiz-adv-x="388" 
d="M194 314l120 142l14 -11l-122 -145l122 -143l-14 -13l-120 142l-120 -142l-14 13l122 143l-122 145l14 11z" />
    <glyph glyph-name="Oslash" unicode="&#xd8;" horiz-adv-x="610" 
d="M60 334q0 105 18 177.5t50.5 117.5t77 65.5t98.5 20.5q51 0 93.5 -17.5t74.5 -56.5l43 74l17 -8l-48 -83q31 -45 48.5 -116t17.5 -174q0 -100 -22 -167t-57 -107.5t-78.5 -57.5t-86.5 -17q-40 1 -80.5 15.5t-75.5 49.5l-37 -64l-17 10l40 69q-34 42 -55 107t-21 162z
M78 334q0 -90 19 -151.5t49 -100.5l315 541q-30 39 -70 57t-87 18q-49 0 -90.5 -19.5t-71.5 -62.5t-47 -112.5t-17 -169.5zM532 334q0 94 -15.5 161t-43.5 111l-313 -539q32 -35 70.5 -50t75.5 -15q38 0 78 16.5t73 55t54 102t21 158.5z" />
    <glyph glyph-name="Ugrave" unicode="&#xd9;" horiz-adv-x="549" 
d="M78 310q0 -90 15 -149.5t41.5 -94.5t63 -49.5t78.5 -14.5t77.5 14t62 49t41 94t14.5 149v392h18v-392q0 -96 -16.5 -158t-45 -99t-67.5 -51.5t-84 -14.5q-46 0 -85.5 15t-68.5 52t-45.5 100t-16.5 158v390h18v-390zM270 758l-101 130l18 11l99 -141h-16z" />
    <glyph glyph-name="Uacute" unicode="&#xda;" horiz-adv-x="549" 
d="M78 310q0 -90 15 -149.5t41.5 -94.5t63 -49.5t78.5 -14.5t77.5 14t62 49t41 94t14.5 149v392h18v-392q0 -96 -16.5 -158t-45 -99t-67.5 -51.5t-84 -14.5q-46 0 -85.5 15t-68.5 52t-45.5 100t-16.5 158v390h18v-390zM254 758l99 141l18 -11l-101 -130h-16z" />
    <glyph glyph-name="Ucircumflex" unicode="&#xdb;" horiz-adv-x="549" 
d="M78 310q0 -90 15 -149.5t41.5 -94.5t63 -49.5t78.5 -14.5t77.5 14t62 49t41 94t14.5 149v392h18v-392q0 -96 -16.5 -158t-45 -99t-67.5 -51.5t-84 -14.5q-46 0 -85.5 15t-68.5 52t-45.5 100t-16.5 158v390h18v-390zM278 899l90 -128h-17l-82 110l-82 -110h-17l90 128h18z
" />
    <glyph glyph-name="Udieresis" unicode="&#xdc;" horiz-adv-x="549" 
d="M78 310q0 -90 15 -149.5t41.5 -94.5t63 -49.5t78.5 -14.5t77.5 14t62 49t41 94t14.5 149v392h18v-392q0 -96 -16.5 -158t-45 -99t-67.5 -51.5t-84 -14.5q-46 0 -85.5 15t-68.5 52t-45.5 100t-16.5 158v390h18v-390zM191 806q0 12 8 20t20 8t20 -8t8 -20t-8 -20t-20 -8
t-20 8t-8 20zM291 806q0 12 8 20t20 8t20 -8t8 -20t-8 -20t-20 -8t-20 8t-8 20z" />
    <glyph glyph-name="Yacute" unicode="&#xdd;" horiz-adv-x="553" 
d="M287 310v-310h-18v310l-254 390h23l240 -371l239 371h21zM261 758l99 141l18 -11l-101 -130h-16z" />
    <glyph glyph-name="Thorn" unicode="&#xde;" horiz-adv-x="556" 
d="M111 588h184q90 0 145.5 -49.5t55.5 -152.5q0 -88 -50.5 -136t-132.5 -48h-202v-202h-18v655q0 19 -4.5 23.5t-14.5 4.5h-14v17h15q17 0 26.5 -10.5t9.5 -35.5v-66zM478 386q0 40 -11.5 74t-34.5 58.5t-57.5 38.5t-79.5 14h-184v-352h202q78 0 121.5 44.5t43.5 122.5z
" />
    <glyph glyph-name="germandbls" unicode="&#xdf;" horiz-adv-x="546" 
d="M180 23q19 -10 41.5 -15.5t48.5 -5.5q39 0 74.5 13t63 37t44 58.5t16.5 78.5q0 58 -21 96t-53 61t-70 32.5t-71 9.5h-7v16h7q33 0 65 10.5t56.5 32.5t39.5 56t15 80q0 31 -12 61t-35 53t-56.5 37t-75.5 14q-43 0 -75 -15.5t-53.5 -42t-32.5 -60t-11 -69.5v-561h-18v563
q0 36 11.5 72t35 65t59.5 47t84 18q50 0 87 -17t61.5 -43.5t36.5 -58.5t12 -63q0 -69 -34.5 -118t-95.5 -67q33 -6 63.5 -22.5t54 -42.5t37.5 -62t14 -82q0 -44 -16 -81t-45 -64.5t-68.5 -43t-86.5 -15.5q-29 0 -54.5 6t-46.5 17z" />
    <glyph glyph-name="agrave" unicode="&#xe0;" 
d="M350 45q0 -19 4.5 -23.5t14.5 -4.5h14v-17h-15q-17 0 -26 10.5t-9 35.5v56q-2 -4 -9.5 -23t-24 -40t-43.5 -37.5t-67 -16.5q-63 0 -96.5 39t-33.5 102q0 32 12 60.5t36 49.5t60 33.5t84 12.5h82v81q-1 62 -27.5 98.5t-90.5 36.5q-33 0 -57 -10.5t-39 -27.5t-22 -38.5
t-7 -43.5q0 -26 3 -38q1 -8 3 -13h-18q-2 5 -3 13q-3 13 -3 41q0 24 8 47.5t25 43t44 31.5t66 12t65 -11.5t41.5 -31.5t22 -48.5t6.5 -62.5v-316zM189 2q37 0 62.5 18t42.5 42.5t26.5 49t12.5 37.5v115h-83q-38 0 -70 -9.5t-55 -27.5t-36 -43.5t-13 -57.5q0 -57 30.5 -90.5
t82.5 -33.5zM233 558l-101 130l18 11l99 -141h-16z" />
    <glyph glyph-name="aacute" unicode="&#xe1;" 
d="M350 45q0 -19 4.5 -23.5t14.5 -4.5h14v-17h-15q-17 0 -26 10.5t-9 35.5v56q-2 -4 -9.5 -23t-24 -40t-43.5 -37.5t-67 -16.5q-63 0 -96.5 39t-33.5 102q0 32 12 60.5t36 49.5t60 33.5t84 12.5h82v81q-1 62 -27.5 98.5t-90.5 36.5q-33 0 -57 -10.5t-39 -27.5t-22 -38.5
t-7 -43.5q0 -26 3 -38q1 -8 3 -13h-18q-2 5 -3 13q-3 13 -3 41q0 24 8 47.5t25 43t44 31.5t66 12t65 -11.5t41.5 -31.5t22 -48.5t6.5 -62.5v-316zM189 2q37 0 62.5 18t42.5 42.5t26.5 49t12.5 37.5v115h-83q-38 0 -70 -9.5t-55 -27.5t-36 -43.5t-13 -57.5q0 -57 30.5 -90.5
t82.5 -33.5zM198 558l99 141l18 -11l-101 -130h-16z" />
    <glyph glyph-name="acircumflex" unicode="&#xe2;" 
d="M350 45q0 -19 4.5 -23.5t14.5 -4.5h14v-17h-15q-17 0 -26 10.5t-9 35.5v56q-2 -4 -9.5 -23t-24 -40t-43.5 -37.5t-67 -16.5q-63 0 -96.5 39t-33.5 102q0 32 12 60.5t36 49.5t60 33.5t84 12.5h82v81q-1 62 -27.5 98.5t-90.5 36.5q-33 0 -57 -10.5t-39 -27.5t-22 -38.5
t-7 -43.5q0 -26 3 -38q1 -8 3 -13h-18q-2 5 -3 13q-3 13 -3 41q0 24 8 47.5t25 43t44 31.5t66 12t65 -11.5t41.5 -31.5t22 -48.5t6.5 -62.5v-316zM189 2q37 0 62.5 18t42.5 42.5t26.5 49t12.5 37.5v115h-83q-38 0 -70 -9.5t-55 -27.5t-36 -43.5t-13 -57.5q0 -57 30.5 -90.5
t82.5 -33.5zM233 699l90 -128h-17l-82 110l-82 -110h-17l90 128h18z" />
    <glyph glyph-name="atilde" unicode="&#xe3;" 
d="M350 45q0 -19 4.5 -23.5t14.5 -4.5h14v-17h-15q-17 0 -26 10.5t-9 35.5v56q-2 -4 -9.5 -23t-24 -40t-43.5 -37.5t-67 -16.5q-63 0 -96.5 39t-33.5 102q0 32 12 60.5t36 49.5t60 33.5t84 12.5h82v81q-1 62 -27.5 98.5t-90.5 36.5q-33 0 -57 -10.5t-39 -27.5t-22 -38.5
t-7 -43.5q0 -26 3 -38q1 -8 3 -13h-18q-2 5 -3 13q-3 13 -3 41q0 24 8 47.5t25 43t44 31.5t66 12t65 -11.5t41.5 -31.5t22 -48.5t6.5 -62.5v-316zM189 2q37 0 62.5 18t42.5 42.5t26.5 49t12.5 37.5v115h-83q-38 0 -70 -9.5t-55 -27.5t-36 -43.5t-13 -57.5q0 -57 30.5 -90.5
t82.5 -33.5zM342 666q1 -5 2 -9t2 -8.5t1 -9.5q0 -22 -14 -38.5t-44 -16.5q-19 0 -36.5 11.5t-34 25t-31.5 25t-28 11.5q-16 0 -29 -7.5t-13 -32.5q0 -7 0.5 -11.5t1.5 -8.5t3 -7h-16q-2 5 -3 9q-2 10 -2 18q0 22 14 38.5t44 16.5q17 0 33.5 -11.5t32.5 -25t32 -25t32 -11.5
q17 0 29.5 7.5t12.5 32.5q0 6 -1 11t-2 9t-2 7h16z" />
    <glyph glyph-name="adieresis" unicode="&#xe4;" 
d="M350 45q0 -19 4.5 -23.5t14.5 -4.5h14v-17h-15q-17 0 -26 10.5t-9 35.5v56q-2 -4 -9.5 -23t-24 -40t-43.5 -37.5t-67 -16.5q-63 0 -96.5 39t-33.5 102q0 32 12 60.5t36 49.5t60 33.5t84 12.5h82v81q-1 62 -27.5 98.5t-90.5 36.5q-33 0 -57 -10.5t-39 -27.5t-22 -38.5
t-7 -43.5q0 -26 3 -38q1 -8 3 -13h-18q-2 5 -3 13q-3 13 -3 41q0 24 8 47.5t25 43t44 31.5t66 12t65 -11.5t41.5 -31.5t22 -48.5t6.5 -62.5v-316zM189 2q37 0 62.5 18t42.5 42.5t26.5 49t12.5 37.5v115h-83q-38 0 -70 -9.5t-55 -27.5t-36 -43.5t-13 -57.5q0 -57 30.5 -90.5
t82.5 -33.5zM149 606q0 12 8 20t20 8t20 -8t8 -20t-8 -20t-20 -8t-20 8t-8 20zM249 606q0 12 8 20t20 8t20 -8t8 -20t-8 -20t-20 -8t-20 8t-8 20z" />
    <glyph glyph-name="aring" unicode="&#xe5;" 
d="M350 45q0 -19 4.5 -23.5t14.5 -4.5h14v-17h-15q-17 0 -26 10.5t-9 35.5v56q-2 -4 -9.5 -23t-24 -40t-43.5 -37.5t-67 -16.5q-63 0 -96.5 39t-33.5 102q0 32 12 60.5t36 49.5t60 33.5t84 12.5h82v81q-1 62 -27.5 98.5t-90.5 36.5q-33 0 -57 -10.5t-39 -27.5t-22 -38.5
t-7 -43.5q0 -26 3 -38q1 -8 3 -13h-18q-2 5 -3 13q-3 13 -3 41q0 24 8 47.5t25 43t44 31.5t66 12t65 -11.5t41.5 -31.5t22 -48.5t6.5 -62.5v-316zM189 2q37 0 62.5 18t42.5 42.5t26.5 49t12.5 37.5v115h-83q-38 0 -70 -9.5t-55 -27.5t-36 -43.5t-13 -57.5q0 -57 30.5 -90.5
t82.5 -33.5zM177 631q0 22 12 36t34 14t35 -14t13 -36t-13 -35.5t-35 -13.5t-34 13.5t-12 35.5zM191 631q0 -16 8 -25.5t24 -9.5t25 9.5t9 25.5t-9 26t-25 10t-24 -10t-8 -26z" />
    <glyph glyph-name="ae" unicode="&#xe6;" horiz-adv-x="697" 
d="M351 225q1 -66 14 -109t33 -68.5t46 -35.5t53 -10q43 0 67.5 16.5t37.5 36.5q15 24 20 54l15 -3q-4 -35 -20 -61q-14 -23 -42 -41.5t-78 -18.5q-48 0 -77.5 20.5t-46 46.5t-22 49t-6.5 28q-1 -5 -9 -28t-25.5 -49t-47 -46.5t-73.5 -20.5q-63 0 -96.5 39t-33.5 102
q0 32 12 60.5t36 49.5t60 33.5t84 12.5h82v79q0 62 -27 99.5t-91 37.5q-33 0 -57 -10.5t-39 -27.5t-22 -38.5t-7 -43.5q0 -26 3 -38q1 -8 3 -13h-18q-2 5 -3 13q-3 13 -3 41q0 24 8 47.5t25 43t44 31.5t66 12q48 0 74.5 -17.5t38.5 -42.5t14 -51t2 -43h2q0 18 7.5 44.5
t24.5 51t45 41.5t70 17q37 0 64 -14t43.5 -37.5t24.5 -53.5t8 -61q0 -14 -0.5 -28.5t-0.5 -26.5q-1 -14 -1 -28v-1h-281v-40zM339 158q-2 8 -3 19q-1 9 -1.5 21.5t-0.5 27.5v38h-83q-38 0 -70 -9.5t-55 -27.5t-36 -43.5t-13 -57.5q0 -57 30.5 -90.5t82.5 -33.5q37 0 64 19.5
t44.5 46t27.5 52.5t13 38zM494 498q-30 0 -54.5 -11.5t-43 -37t-30 -67t-14.5 -101.5h265q0 12 0.5 30t0.5 35q0 28 -7.5 55t-22.5 48.5t-38.5 35t-55.5 13.5z" />
    <glyph glyph-name="ccedilla" unicode="&#xe7;" horiz-adv-x="423" 
d="M268 -97q0 20 -17.5 31t-60.5 11l16 41q-29 3 -55.5 17t-46.5 43.5t-32 76t-12 115.5q0 77 11 130t32 85.5t52 47t71 14.5q39 0 64.5 -14.5t40.5 -37t21.5 -48.5t6.5 -50q0 -14 -1 -26t-2 -20l-3 -18h-16q1 8 3 18q1 8 2 19t1 24q0 22 -6 46t-19.5 44t-36 33t-55.5 13
q-35 0 -62.5 -13t-47 -43.5t-29.5 -80.5t-10 -123q0 -70 12.5 -115.5t33 -72.5t46.5 -37.5t54 -10.5q41 0 65 16.5t38 36.5q16 24 22 54l15 -3q-7 -34 -24 -60q-15 -23 -42 -42t-73 -19l-11 -28q1 0 12.5 -0.5t24.5 -5t23.5 -15.5t10.5 -32q0 -32 -24 -51.5t-60 -19.5
q-15 0 -27 3.5t-20 8.5q-10 5 -18 13l11 12q7 -7 16 -11q8 -5 17.5 -8t22.5 -3q26 0 46 14.5t20 40.5z" />
    <glyph glyph-name="egrave" unicode="&#xe8;" horiz-adv-x="423" 
d="M78 278q-1 -6 -1 -13v-27q0 -70 12.5 -115.5t33 -72.5t46.5 -37.5t54 -10.5q43 0 67.5 16.5t37.5 36.5q15 24 20 54l15 -3q-4 -35 -20 -61q-14 -23 -42 -41.5t-78 -18.5q-32 0 -61 12t-52 41t-36.5 77.5t-13.5 122.5q0 77 11 130t32 85.5t50.5 47t66.5 14.5
q36 0 62.5 -14t43.5 -37.5t25.5 -53.5t8.5 -61q0 -13 -0.5 -25.5t-0.5 -22.5q-1 -12 -1 -23h-280zM220 498q-29 0 -53 -10.5t-42.5 -34.5t-30.5 -63t-16 -96h265v15q0 7 0.5 16.5t0.5 20.5q0 28 -7.5 55t-22.5 48.5t-38.5 35t-55.5 13.5zM242 558l-101 130l18 11l99 -141
h-16z" />
    <glyph glyph-name="eacute" unicode="&#xe9;" horiz-adv-x="423" 
d="M78 278q-1 -6 -1 -13v-27q0 -70 12.5 -115.5t33 -72.5t46.5 -37.5t54 -10.5q43 0 67.5 16.5t37.5 36.5q15 24 20 54l15 -3q-4 -35 -20 -61q-14 -23 -42 -41.5t-78 -18.5q-32 0 -61 12t-52 41t-36.5 77.5t-13.5 122.5q0 77 11 130t32 85.5t50.5 47t66.5 14.5
q36 0 62.5 -14t43.5 -37.5t25.5 -53.5t8.5 -61q0 -13 -0.5 -25.5t-0.5 -22.5q-1 -12 -1 -23h-280zM220 498q-29 0 -53 -10.5t-42.5 -34.5t-30.5 -63t-16 -96h265v15q0 7 0.5 16.5t0.5 20.5q0 28 -7.5 55t-22.5 48.5t-38.5 35t-55.5 13.5zM196 558l99 141l18 -11l-101 -130
h-16z" />
    <glyph glyph-name="ecircumflex" unicode="&#xea;" horiz-adv-x="423" 
d="M78 278q-1 -6 -1 -13v-27q0 -70 12.5 -115.5t33 -72.5t46.5 -37.5t54 -10.5q43 0 67.5 16.5t37.5 36.5q15 24 20 54l15 -3q-4 -35 -20 -61q-14 -23 -42 -41.5t-78 -18.5q-32 0 -61 12t-52 41t-36.5 77.5t-13.5 122.5q0 77 11 130t32 85.5t50.5 47t66.5 14.5
q36 0 62.5 -14t43.5 -37.5t25.5 -53.5t8.5 -61q0 -13 -0.5 -25.5t-0.5 -22.5q-1 -12 -1 -23h-280zM220 498q-29 0 -53 -10.5t-42.5 -34.5t-30.5 -63t-16 -96h265v15q0 7 0.5 16.5t0.5 20.5q0 28 -7.5 55t-22.5 48.5t-38.5 35t-55.5 13.5zM233 699l90 -128h-17l-82 110
l-82 -110h-17l90 128h18z" />
    <glyph glyph-name="edieresis" unicode="&#xeb;" horiz-adv-x="423" 
d="M78 278q-1 -6 -1 -13v-27q0 -70 12.5 -115.5t33 -72.5t46.5 -37.5t54 -10.5q43 0 67.5 16.5t37.5 36.5q15 24 20 54l15 -3q-4 -35 -20 -61q-14 -23 -42 -41.5t-78 -18.5q-32 0 -61 12t-52 41t-36.5 77.5t-13.5 122.5q0 77 11 130t32 85.5t50.5 47t66.5 14.5
q36 0 62.5 -14t43.5 -37.5t25.5 -53.5t8.5 -61q0 -13 -0.5 -25.5t-0.5 -22.5q-1 -12 -1 -23h-280zM220 498q-29 0 -53 -10.5t-42.5 -34.5t-30.5 -63t-16 -96h265v15q0 7 0.5 16.5t0.5 20.5q0 28 -7.5 55t-22.5 48.5t-38.5 35t-55.5 13.5zM146 606q0 12 8 20t20 8t20 -8
t8 -20t-8 -20t-20 -8t-20 8t-8 20zM246 606q0 12 8 20t20 8t20 -8t8 -20t-8 -20t-20 -8t-20 8t-8 20z" />
    <glyph glyph-name="igrave" unicode="&#xec;" horiz-adv-x="170" 
d="M77 45q0 -19 4.5 -23.5t14.5 -4.5h14v-17h-15q-17 0 -26 10.5t-9 35.5v454h17v-455zM60 558l-101 130l18 11l99 -141h-16z" />
    <glyph glyph-name="iacute" unicode="&#xed;" horiz-adv-x="170" 
d="M77 45q0 -19 4.5 -23.5t14.5 -4.5h14v-17h-15q-17 0 -26 10.5t-9 35.5v454h17v-455zM56 558l99 141l18 -11l-101 -130h-16z" />
    <glyph glyph-name="icircumflex" unicode="&#xee;" horiz-adv-x="170" 
d="M77 45q0 -19 4.5 -23.5t14.5 -4.5h14v-17h-15q-17 0 -26 10.5t-9 35.5v454h17v-455zM77 699l90 -128h-17l-82 110l-82 -110h-17l90 128h18z" />
    <glyph glyph-name="idieresis" unicode="&#xef;" horiz-adv-x="170" 
d="M77 45q0 -19 4.5 -23.5t14.5 -4.5h14v-17h-15q-17 0 -26 10.5t-9 35.5v454h17v-455zM-11 606q0 12 8 20t20 8t20 -8t8 -20t-8 -20t-20 -8t-20 8t-8 20zM89 606q0 12 8 20t20 8t20 -8t8 -20t-8 -20t-20 -8t-20 8t-8 20z" />
    <glyph glyph-name="eth" unicode="&#xf0;" horiz-adv-x="565" 
d="M406 640q-28 30 -63 44t-74 14q-40 0 -68.5 -11t-47.5 -27l-11 13q20 18 51 30t76 12t83.5 -15.5t69.5 -49.5l59 38l12 -9l-62 -40q35 -45 54.5 -119t19.5 -186q0 -92 -19.5 -158t-52.5 -108.5t-76 -62.5t-89 -20q-44 0 -81.5 14.5t-66 43t-44.5 72t-16 101.5t18 99.5
t49 67.5t71 38.5t85 12.5q37 0 69.5 -10t59 -23.5t45.5 -28.5t30 -25q-2 103 -21 171t-51 110l-108 -71l-12 11zM268 2q40 0 79 18t70 57t50 100.5t20 148.5q-3 3 -20.5 17.5t-44.5 31t-63 29.5t-76 13q-45 0 -83 -12.5t-65 -37.5t-42.5 -63t-15.5 -88q0 -101 51 -157.5
t140 -56.5z" />
    <glyph glyph-name="ntilde" unicode="&#xf1;" horiz-adv-x="477" 
d="M110 357q1 5 8 30.5t23.5 54t44 51t68.5 22.5q61 0 95.5 -39t34.5 -102v-329q0 -19 4.5 -23.5t14.5 -4.5h14v-17h-15q-17 0 -26 10.5t-9 35.5v328q0 57 -29.5 90.5t-83.5 33.5q-41 0 -69 -27.5t-44 -60.5q-19 -39 -31 -88v-322h-17v455q0 19 -4.5 23.5t-14.5 4.5h-15v17
h16q17 0 26 -10t9 -35v-98zM354 666q1 -5 2 -9t2 -8.5t1 -9.5q0 -22 -14 -38.5t-44 -16.5q-19 0 -36.5 11.5t-34 25t-31.5 25t-28 11.5q-16 0 -29 -7.5t-13 -32.5q0 -7 0.5 -11.5t1.5 -8.5t3 -7h-16q-2 5 -3 9q-2 10 -2 18q0 22 14 38.5t44 16.5q17 0 33.5 -11.5t32.5 -25
t32 -25t32 -11.5q17 0 29.5 7.5t12.5 32.5q0 6 -1 11t-2 9t-2 7h16z" />
    <glyph glyph-name="ograve" unicode="&#xf2;" horiz-adv-x="442" 
d="M55 238q0 77 11 129.5t32 85.5t51.5 47.5t70.5 14.5t71 -14.5t52.5 -47t32.5 -85.5t11 -130q0 -73 -14.5 -121.5t-37.5 -78t-53 -41.5t-61 -12q-32 0 -61.5 12t-53 41t-37.5 77.5t-14 122.5zM370 238q0 73 -10.5 122.5t-30 80t-47.5 44t-62 13.5q-35 0 -62.5 -13
t-46.5 -43.5t-29 -80.5t-10 -123q0 -70 13 -115.5t34 -72.5t47.5 -37.5t54.5 -10.5q27 0 54 11t48 38t34 72.5t13 114.5zM233 558l-101 130l18 11l99 -141h-16z" />
    <glyph glyph-name="oacute" unicode="&#xf3;" horiz-adv-x="442" 
d="M55 238q0 77 11 129.5t32 85.5t51.5 47.5t70.5 14.5t71 -14.5t52.5 -47t32.5 -85.5t11 -130q0 -73 -14.5 -121.5t-37.5 -78t-53 -41.5t-61 -12q-32 0 -61.5 12t-53 41t-37.5 77.5t-14 122.5zM370 238q0 73 -10.5 122.5t-30 80t-47.5 44t-62 13.5q-35 0 -62.5 -13
t-46.5 -43.5t-29 -80.5t-10 -123q0 -70 13 -115.5t34 -72.5t47.5 -37.5t54.5 -10.5q27 0 54 11t48 38t34 72.5t13 114.5zM195 558l99 141l18 -11l-101 -130h-16z" />
    <glyph glyph-name="ocircumflex" unicode="&#xf4;" horiz-adv-x="442" 
d="M55 238q0 77 11 129.5t32 85.5t51.5 47.5t70.5 14.5t71 -14.5t52.5 -47t32.5 -85.5t11 -130q0 -73 -14.5 -121.5t-37.5 -78t-53 -41.5t-61 -12q-32 0 -61.5 12t-53 41t-37.5 77.5t-14 122.5zM370 238q0 73 -10.5 122.5t-30 80t-47.5 44t-62 13.5q-35 0 -62.5 -13
t-46.5 -43.5t-29 -80.5t-10 -123q0 -70 13 -115.5t34 -72.5t47.5 -37.5t54.5 -10.5q27 0 54 11t48 38t34 72.5t13 114.5zM229 699l90 -128h-17l-82 110l-82 -110h-17l90 128h18z" />
    <glyph glyph-name="otilde" unicode="&#xf5;" horiz-adv-x="442" 
d="M55 238q0 77 11 129.5t32 85.5t51.5 47.5t70.5 14.5t71 -14.5t52.5 -47t32.5 -85.5t11 -130q0 -73 -14.5 -121.5t-37.5 -78t-53 -41.5t-61 -12q-32 0 -61.5 12t-53 41t-37.5 77.5t-14 122.5zM370 238q0 73 -10.5 122.5t-30 80t-47.5 44t-62 13.5q-35 0 -62.5 -13
t-46.5 -43.5t-29 -80.5t-10 -123q0 -70 13 -115.5t34 -72.5t47.5 -37.5t54.5 -10.5q27 0 54 11t48 38t34 72.5t13 114.5zM348 666q1 -5 2 -9t2 -8.5t1 -9.5q0 -22 -14 -38.5t-44 -16.5q-19 0 -36.5 11.5t-34 25t-31.5 25t-28 11.5q-16 0 -29 -7.5t-13 -32.5q0 -7 0.5 -11.5
t1.5 -8.5t3 -7h-16q-2 5 -3 9q-2 10 -2 18q0 22 14 38.5t44 16.5q17 0 33.5 -11.5t32.5 -25t32 -25t32 -11.5q17 0 29.5 7.5t12.5 32.5q0 6 -1 11t-2 9t-2 7h16z" />
    <glyph glyph-name="odieresis" unicode="&#xf6;" horiz-adv-x="442" 
d="M55 238q0 77 11 129.5t32 85.5t51.5 47.5t70.5 14.5t71 -14.5t52.5 -47t32.5 -85.5t11 -130q0 -73 -14.5 -121.5t-37.5 -78t-53 -41.5t-61 -12q-32 0 -61.5 12t-53 41t-37.5 77.5t-14 122.5zM370 238q0 73 -10.5 122.5t-30 80t-47.5 44t-62 13.5q-35 0 -62.5 -13
t-46.5 -43.5t-29 -80.5t-10 -123q0 -70 13 -115.5t34 -72.5t47.5 -37.5t54.5 -10.5q27 0 54 11t48 38t34 72.5t13 114.5zM147 606q0 12 8 20t20 8t20 -8t8 -20t-8 -20t-20 -8t-20 8t-8 20zM247 606q0 12 8 20t20 8t20 -8t8 -20t-8 -20t-20 -8t-20 8t-8 20z" />
    <glyph glyph-name="oslash" unicode="&#xf8;" horiz-adv-x="452" 
d="M60 238q0 77 11 129.5t32 85.5t51.5 47.5t70.5 14.5q37 0 66 -12t50 -40l25 43l15 -6l-30 -51q20 -33 30.5 -84.5t10.5 -126.5q0 -73 -14.5 -121.5t-37.5 -78t-53 -41.5t-61 -12q-32 0 -62 12t-53 41l-26 -46l-15 8l31 53q-19 29 -30 74t-11 111zM77 238q0 -59 9 -100
t25 -69l220 377q-20 28 -46.5 40t-59.5 12q-35 0 -62.5 -13t-46.5 -43.5t-29 -80.5t-10 -123zM375 238q0 67 -9 114t-26 78l-219 -376q21 -29 48.5 -40.5t56.5 -11.5q27 0 54 11t48 38t34 72.5t13 114.5z" />
    <glyph glyph-name="ugrave" unicode="&#xf9;" 
d="M351 45q0 -19 4.5 -23.5t14.5 -4.5h14v-17h-15q-17 0 -26 10t-9 35v58q-1 -2 -7.5 -21t-22.5 -40.5t-43.5 -39t-70.5 -17.5q-63 0 -96.5 39t-33.5 102v374h17v-374q0 -57 30.5 -90.5t82.5 -33.5q42 0 69.5 22.5t44.5 50.5q19 33 30 74v351h17v-455zM225 558l-101 130
l18 11l99 -141h-16z" />
    <glyph glyph-name="uacute" unicode="&#xfa;" 
d="M351 45q0 -19 4.5 -23.5t14.5 -4.5h14v-17h-15q-17 0 -26 10t-9 35v58q-1 -2 -7.5 -21t-22.5 -40.5t-43.5 -39t-70.5 -17.5q-63 0 -96.5 39t-33.5 102v374h17v-374q0 -57 30.5 -90.5t82.5 -33.5q42 0 69.5 22.5t44.5 50.5q19 33 30 74v351h17v-455zM177 558l99 141
l18 -11l-101 -130h-16z" />
    <glyph glyph-name="ucircumflex" unicode="&#xfb;" 
d="M351 45q0 -19 4.5 -23.5t14.5 -4.5h14v-17h-15q-17 0 -26 10t-9 35v58q-1 -2 -7.5 -21t-22.5 -40.5t-43.5 -39t-70.5 -17.5q-63 0 -96.5 39t-33.5 102v374h17v-374q0 -57 30.5 -90.5t82.5 -33.5q42 0 69.5 22.5t44.5 50.5q19 33 30 74v351h17v-455zM221 699l90 -128h-17
l-82 110l-82 -110h-17l90 128h18z" />
    <glyph glyph-name="udieresis" unicode="&#xfc;" 
d="M351 45q0 -19 4.5 -23.5t14.5 -4.5h14v-17h-15q-17 0 -26 10t-9 35v58q-1 -2 -7.5 -21t-22.5 -40.5t-43.5 -39t-70.5 -17.5q-63 0 -96.5 39t-33.5 102v374h17v-374q0 -57 30.5 -90.5t82.5 -33.5q42 0 69.5 22.5t44.5 50.5q19 33 30 74v351h17v-455zM129 606q0 12 8 20
t20 8t20 -8t8 -20t-8 -20t-20 -8t-20 8t-8 20zM229 606q0 12 8 20t20 8t20 -8t8 -20t-8 -20t-20 -8t-20 8t-8 20z" />
    <glyph glyph-name="yacute" unicode="&#xfd;" horiz-adv-x="408" 
d="M208 0l-180 500h21l168 -471l152 471h19l-160 -500l-38 -110q-9 -27 -19 -52t-24 -45t-35 -32t-52 -12h-40v17h40q26 0 43 8.5t29 25t20.5 39t18.5 51.5zM190 558l99 141l18 -11l-101 -130h-16z" />
    <glyph glyph-name="thorn" unicode="&#xfe;" horiz-adv-x="462" 
d="M110 420q4 12 13.5 28.5t25.5 31t39.5 25t57.5 10.5q76 0 116 -65t40 -212q0 -74 -12.5 -122.5t-33.5 -77.5t-49.5 -41t-59.5 -12q-33 0 -57 10t-40.5 24.5t-26 30t-13.5 27.5v-327h-17v971q0 19 -4.5 23.5t-14.5 4.5h-14v17h15q17 0 26 -10.5t9 -35.5v-300zM385 238
q0 71 -10 120.5t-28.5 80.5t-44 45t-56.5 14q-36 0 -61 -14.5t-41 -33.5t-23.5 -38t-10.5 -29v-266q2 -9 10 -28t23.5 -38.5t41 -34t62.5 -14.5q28 0 53 10.5t44 37.5t30 72.5t11 115.5z" />
    <glyph glyph-name="ydieresis" unicode="&#xff;" horiz-adv-x="408" 
d="M208 0l-180 500h21l168 -471l152 471h19l-160 -500l-38 -110q-9 -27 -19 -52t-24 -45t-35 -32t-52 -12h-40v17h40q26 0 43 8.5t29 25t20.5 39t18.5 51.5zM140 606q0 12 8 20t20 8t20 -8t8 -20t-8 -20t-20 -8t-20 8t-8 20zM240 606q0 12 8 20t20 8t20 -8t8 -20t-8 -20
t-20 -8t-20 8t-8 20z" />
    <glyph glyph-name="Amacron" unicode="&#x100;" horiz-adv-x="577" 
d="M281 700h18l261 -700h-19l-85 229h-334l-86 -229h-19zM128 246h321l-159 430zM148 819h280v-17h-280v17z" />
    <glyph glyph-name="amacron" unicode="&#x101;" 
d="M350 45q0 -19 4.5 -23.5t14.5 -4.5h14v-17h-15q-17 0 -26 10.5t-9 35.5v56q-2 -4 -9.5 -23t-24 -40t-43.5 -37.5t-67 -16.5q-63 0 -96.5 39t-33.5 102q0 32 12 60.5t36 49.5t60 33.5t84 12.5h82v81q-1 62 -27.5 98.5t-90.5 36.5q-33 0 -57 -10.5t-39 -27.5t-22 -38.5
t-7 -43.5q0 -26 3 -38q1 -8 3 -13h-18q-2 5 -3 13q-3 13 -3 41q0 24 8 47.5t25 43t44 31.5t66 12t65 -11.5t41.5 -31.5t22 -48.5t6.5 -62.5v-316zM189 2q37 0 62.5 18t42.5 42.5t26.5 49t12.5 37.5v115h-83q-38 0 -70 -9.5t-55 -27.5t-36 -43.5t-13 -57.5q0 -57 30.5 -90.5
t82.5 -33.5zM84 619h280v-17h-280v17z" />
    <glyph glyph-name="Abreve" unicode="&#x102;" horiz-adv-x="577" 
d="M281 700h18l261 -700h-19l-85 229h-334l-86 -229h-19zM128 246h321l-159 430zM289 787q34 0 48 20.5t14 58.5h17q0 -44 -18 -70t-62 -26t-62 26t-18 70h17q0 -38 15 -58.5t49 -20.5z" />
    <glyph glyph-name="abreve" unicode="&#x103;" 
d="M350 45q0 -19 4.5 -23.5t14.5 -4.5h14v-17h-15q-17 0 -26 10.5t-9 35.5v56q-2 -4 -9.5 -23t-24 -40t-43.5 -37.5t-67 -16.5q-63 0 -96.5 39t-33.5 102q0 32 12 60.5t36 49.5t60 33.5t84 12.5h82v81q-1 62 -27.5 98.5t-90.5 36.5q-33 0 -57 -10.5t-39 -27.5t-22 -38.5
t-7 -43.5q0 -26 3 -38q1 -8 3 -13h-18q-2 5 -3 13q-3 13 -3 41q0 24 8 47.5t25 43t44 31.5t66 12t65 -11.5t41.5 -31.5t22 -48.5t6.5 -62.5v-316zM189 2q37 0 62.5 18t42.5 42.5t26.5 49t12.5 37.5v115h-83q-38 0 -70 -9.5t-55 -27.5t-36 -43.5t-13 -57.5q0 -57 30.5 -90.5
t82.5 -33.5zM225 587q34 0 48 20.5t14 58.5h17q0 -44 -18 -70t-62 -26t-62 26t-18 70h17q0 -38 15 -58.5t49 -20.5z" />
    <glyph glyph-name="Aogonek" unicode="&#x104;" horiz-adv-x="583" 
d="M468 -83q0 -22 12.5 -37.5t34.5 -15.5q13 0 22 3t15 7q7 4 11 10l10 -10q-5 -8 -13 -13q-7 -5 -18 -8.5t-25 -3.5q-28 0 -46.5 17.5t-18.5 51.5q0 21 9.5 36t23 25.5t28 17t25.5 9.5l-82 223h-334l-86 -229h-19l264 700h18l261 -700h-9q-8 -2 -21.5 -7t-27.5 -15t-24 -25
t-10 -36zM128 246h321l-159 430z" />
    <glyph glyph-name="aogonek" unicode="&#x105;" horiz-adv-x="449" 
d="M292 -83q0 -22 12.5 -37.5t34.5 -15.5q13 0 22 3t15 7q7 4 11 10l10 -10q-5 -8 -13 -13q-7 -5 -18 -8.5t-25 -3.5q-28 0 -46.5 17.5t-18.5 51.5q0 19 7.5 33t19 24.5t25 17t24.5 10.5q-19 8 -19 43v56q-2 -4 -9.5 -23t-24 -40t-43.5 -37.5t-67 -16.5q-63 0 -96.5 39
t-33.5 102q0 32 12 60.5t36 49.5t60 33.5t84 12.5h82v81q-1 62 -27.5 98.5t-90.5 36.5q-33 0 -57 -10.5t-39 -27.5t-22 -38.5t-7 -43.5q0 -26 3 -38q1 -8 3 -13h-18q-2 5 -3 13q-3 13 -3 41q0 24 8 47.5t25 43t44 31.5t66 12t65 -11.5t41.5 -31.5t22 -48.5t6.5 -62.5v-316
q0 -19 4.5 -23.5t14.5 -4.5h14v-17h-8q-8 -2 -21.5 -7t-27.5 -15t-24 -25t-10 -36zM189 2q37 0 62.5 18t42.5 42.5t26.5 49t12.5 37.5v115h-83q-38 0 -70 -9.5t-55 -27.5t-36 -43.5t-13 -57.5q0 -57 30.5 -90.5t82.5 -33.5z" />
    <glyph glyph-name="Cacute" unicode="&#x106;" horiz-adv-x="575" 
d="M78 334q0 -95 22 -158.5t56.5 -102t75.5 -55t79 -16.5q60 0 97 23t57 52q24 33 34 76l16 -3q-8 -47 -33 -83q-21 -31 -62 -56.5t-109 -25.5q-43 0 -87.5 17t-81 57.5t-59.5 107.5t-23 167q0 105 19.5 178t54 118t81 65t100.5 20q52 0 89 -18t60.5 -45.5t34.5 -60
t11 -60.5q0 -19 -1 -32t-3 -21q-2 -10 -4 -16h-18q2 7 4 17q2 8 3 20t1 28q0 27 -10 57.5t-32 55.5t-55.5 41.5t-79.5 16.5q-49 0 -92 -19.5t-75.5 -62.5t-51 -112.5t-18.5 -169.5zM291 758l99 141l18 -11l-101 -130h-16z" />
    <glyph glyph-name="cacute" unicode="&#x107;" horiz-adv-x="423" 
d="M77 238q0 -70 12.5 -115.5t33 -72.5t46.5 -37.5t54 -10.5q41 0 65 16.5t38 36.5q16 24 22 54l15 -3q-6 -35 -24 -61q-15 -23 -42.5 -41.5t-73.5 -18.5q-32 0 -61 12t-52 41t-36.5 77.5t-13.5 122.5q0 77 11 130t32 85.5t52 47t71 14.5q39 0 64.5 -14.5t40.5 -37
t21.5 -48.5t6.5 -50q0 -14 -1 -26t-2 -20l-3 -18h-16q1 8 3 18q1 8 2 19t1 24q0 22 -6 46t-19.5 44t-36 33t-55.5 13q-35 0 -62.5 -13t-47 -43.5t-29.5 -80.5t-10 -123zM198 558l99 141l18 -11l-101 -130h-16z" />
    <glyph glyph-name="Ccircumflex" unicode="&#x108;" horiz-adv-x="575" 
d="M78 334q0 -95 22 -158.5t56.5 -102t75.5 -55t79 -16.5q60 0 97 23t57 52q24 33 34 76l16 -3q-8 -47 -33 -83q-21 -31 -62 -56.5t-109 -25.5q-43 0 -87.5 17t-81 57.5t-59.5 107.5t-23 167q0 105 19.5 178t54 118t81 65t100.5 20q52 0 89 -18t60.5 -45.5t34.5 -60
t11 -60.5q0 -19 -1 -32t-3 -21q-2 -10 -4 -16h-18q2 7 4 17q2 8 3 20t1 28q0 27 -10 57.5t-32 55.5t-55.5 41.5t-79.5 16.5q-49 0 -92 -19.5t-75.5 -62.5t-51 -112.5t-18.5 -169.5zM321 899l90 -128h-17l-82 110l-82 -110h-17l90 128h18z" />
    <glyph glyph-name="ccircumflex" unicode="&#x109;" horiz-adv-x="423" 
d="M77 238q0 -70 12.5 -115.5t33 -72.5t46.5 -37.5t54 -10.5q41 0 65 16.5t38 36.5q16 24 22 54l15 -3q-6 -35 -24 -61q-15 -23 -42.5 -41.5t-73.5 -18.5q-32 0 -61 12t-52 41t-36.5 77.5t-13.5 122.5q0 77 11 130t32 85.5t52 47t71 14.5q39 0 64.5 -14.5t40.5 -37
t21.5 -48.5t6.5 -50q0 -14 -1 -26t-2 -20l-3 -18h-16q1 8 3 18q1 8 2 19t1 24q0 22 -6 46t-19.5 44t-36 33t-55.5 13q-35 0 -62.5 -13t-47 -43.5t-29.5 -80.5t-10 -123zM238 699l90 -128h-17l-82 110l-82 -110h-17l90 128h18z" />
    <glyph glyph-name="Cdotaccent" unicode="&#x10a;" horiz-adv-x="575" 
d="M78 334q0 -95 22 -158.5t56.5 -102t75.5 -55t79 -16.5q60 0 97 23t57 52q24 33 34 76l16 -3q-8 -47 -33 -83q-21 -31 -62 -56.5t-109 -25.5q-43 0 -87.5 17t-81 57.5t-59.5 107.5t-23 167q0 105 19.5 178t54 118t81 65t100.5 20q52 0 89 -18t60.5 -45.5t34.5 -60
t11 -60.5q0 -19 -1 -32t-3 -21q-2 -10 -4 -16h-18q2 7 4 17q2 8 3 20t1 28q0 27 -10 57.5t-32 55.5t-55.5 41.5t-79.5 16.5q-49 0 -92 -19.5t-75.5 -62.5t-51 -112.5t-18.5 -169.5zM284 806q0 12 8 20t20 8t20 -8t8 -20t-8 -20t-20 -8t-20 8t-8 20z" />
    <glyph glyph-name="cdotaccent" unicode="&#x10b;" horiz-adv-x="423" 
d="M77 238q0 -70 12.5 -115.5t33 -72.5t46.5 -37.5t54 -10.5q41 0 65 16.5t38 36.5q16 24 22 54l15 -3q-6 -35 -24 -61q-15 -23 -42.5 -41.5t-73.5 -18.5q-32 0 -61 12t-52 41t-36.5 77.5t-13.5 122.5q0 77 11 130t32 85.5t52 47t71 14.5q39 0 64.5 -14.5t40.5 -37
t21.5 -48.5t6.5 -50q0 -14 -1 -26t-2 -20l-3 -18h-16q1 8 3 18q1 8 2 19t1 24q0 22 -6 46t-19.5 44t-36 33t-55.5 13q-35 0 -62.5 -13t-47 -43.5t-29.5 -80.5t-10 -123zM198 606q0 12 8 20t20 8t20 -8t8 -20t-8 -20t-20 -8t-20 8t-8 20z" />
    <glyph glyph-name="Ccaron" unicode="&#x10c;" horiz-adv-x="575" 
d="M78 334q0 -95 22 -158.5t56.5 -102t75.5 -55t79 -16.5q60 0 97 23t57 52q24 33 34 76l16 -3q-8 -47 -33 -83q-21 -31 -62 -56.5t-109 -25.5q-43 0 -87.5 17t-81 57.5t-59.5 107.5t-23 167q0 105 19.5 178t54 118t81 65t100.5 20q52 0 89 -18t60.5 -45.5t34.5 -60
t11 -60.5q0 -19 -1 -32t-3 -21q-2 -10 -4 -16h-18q2 7 4 17q2 8 3 20t1 28q0 27 -10 57.5t-32 55.5t-55.5 41.5t-79.5 16.5q-49 0 -92 -19.5t-75.5 -62.5t-51 -112.5t-18.5 -169.5zM303 775l-90 128h17l82 -110l82 110h17l-90 -128h-18z" />
    <glyph glyph-name="ccaron" unicode="&#x10d;" horiz-adv-x="423" 
d="M77 238q0 -70 12.5 -115.5t33 -72.5t46.5 -37.5t54 -10.5q41 0 65 16.5t38 36.5q16 24 22 54l15 -3q-6 -35 -24 -61q-15 -23 -42.5 -41.5t-73.5 -18.5q-32 0 -61 12t-52 41t-36.5 77.5t-13.5 122.5q0 77 11 130t32 85.5t52 47t71 14.5q39 0 64.5 -14.5t40.5 -37
t21.5 -48.5t6.5 -50q0 -14 -1 -26t-2 -20l-3 -18h-16q1 8 3 18q1 8 2 19t1 24q0 22 -6 46t-19.5 44t-36 33t-55.5 13q-35 0 -62.5 -13t-47 -43.5t-29.5 -80.5t-10 -123zM221 575l-90 128h17l82 -110l82 110h17l-90 -128h-18z" />
    <glyph glyph-name="Dcaron" unicode="&#x10e;" horiz-adv-x="563" 
d="M77 683v-666h176q38 0 79 16.5t75 53.5t56 97t22 147q0 95 -23 162t-62 109t-90.5 61.5t-109.5 19.5h-123zM60 0v700h140q62 0 117 -20t96.5 -64t65.5 -114.5t24 -170.5q0 -90 -23 -153t-59.5 -102.5t-81 -57.5t-86.5 -18h-193zM219 775l-90 128h17l82 -110l82 110h17
l-90 -128h-18z" />
    <glyph glyph-name="dcaron" unicode="&#x10f;" horiz-adv-x="460" 
d="M367 45q0 -19 4.5 -23.5t14.5 -4.5h14v-17h-15q-17 0 -26 10.5t-9 35.5v39q-7 -15 -17.5 -32.5t-27 -32.5t-38.5 -25t-52 -10q-32 0 -60 12t-49 41t-33.5 77.5t-12.5 122.5q0 147 40 212t116 65q31 0 54 -8.5t38.5 -21t25.5 -26.5t16 -25v316h17v-705zM77 238
q0 -70 11 -115.5t30 -72.5t44 -37.5t53 -10.5q31 0 53.5 13.5t39 33t26.5 41.5t16 39v270q-4 10 -12.5 27t-24 33t-39.5 27.5t-58 11.5q-31 0 -56.5 -14t-44 -45t-28.5 -80.5t-10 -120.5zM388 730q0 11 7.5 18.5t18.5 7.5t18.5 -8.5t7.5 -20.5q0 -15 -3 -27.5t-7 -22.5
q-4 -11 -9 -21h-17q3 9 7 18q3 8 5.5 16t2.5 14h-5q-11 0 -18.5 7.5t-7.5 18.5z" />
    <glyph glyph-name="Dcroat" unicode="&#x110;" horiz-adv-x="563" 
d="M15 364h45v336h140q62 0 117 -20t96.5 -64t65.5 -114.5t24 -170.5q0 -90 -23 -153t-59.5 -102.5t-81 -57.5t-86.5 -18h-193v347h-45v17zM77 683v-319h218v-17h-218v-330h176q38 0 79 16.5t75 53.5t56 97t22 147q0 95 -23 162t-62 109t-90.5 61.5t-109.5 19.5h-123z" />
    <glyph glyph-name="dcroat" unicode="&#x111;" horiz-adv-x="460" 
d="M176 646h174v104h17v-104h54v-14h-54v-587q0 -19 4.5 -23.5t14.5 -4.5h14v-17h-15q-17 0 -26 10.5t-9 35.5v39q-7 -15 -17.5 -32.5t-27 -32.5t-38.5 -25t-52 -10q-32 0 -60 12t-49 41t-33.5 77.5t-12.5 122.5q0 147 40 212t116 65q31 0 54 -8.5t38.5 -21t25.5 -26.5
t16 -25v198h-174v14zM77 238q0 -70 11 -115.5t30 -72.5t44 -37.5t53 -10.5q31 0 53.5 13.5t39 33t26.5 41.5t16 39v270q-4 10 -12.5 27t-24 33t-39.5 27.5t-58 11.5q-31 0 -56.5 -14t-44 -45t-28.5 -80.5t-10 -120.5z" />
    <glyph glyph-name="Emacron" unicode="&#x112;" horiz-adv-x="504" 
d="M60 700h384v-17h-366v-314h307v-17h-307v-335h366v-17h-384v700zM114 819h280v-17h-280v17z" />
    <glyph glyph-name="emacron" unicode="&#x113;" horiz-adv-x="424" 
d="M78 278q-1 -6 -1 -13v-27q0 -70 12.5 -115.5t33 -72.5t46.5 -37.5t54 -10.5q43 0 67.5 16.5t37.5 36.5q15 24 20 54l15 -3q-4 -35 -20 -61q-14 -23 -42 -41.5t-78 -18.5q-32 0 -61 12t-52 41t-36.5 77.5t-13.5 122.5q0 77 11 130t32 85.5t50.5 47t66.5 14.5
q36 0 62.5 -14t43.5 -37.5t25.5 -53.5t8.5 -61q0 -13 -0.5 -25.5t-0.5 -22.5q-1 -12 -1 -23h-280zM220 498q-29 0 -53 -10.5t-42.5 -34.5t-30.5 -63t-16 -96h265v15q0 7 0.5 16.5t0.5 20.5q0 28 -7.5 55t-22.5 48.5t-38.5 35t-55.5 13.5zM84 619h280v-17h-280v17z" />
    <glyph glyph-name="Ebreve" unicode="&#x114;" horiz-adv-x="504" 
d="M60 700h384v-17h-366v-314h307v-17h-307v-335h366v-17h-384v700zM276 787q34 0 48 20.5t14 58.5h17q0 -44 -18 -70t-62 -26t-62 26t-18 70h17q0 -38 15 -58.5t49 -20.5z" />
    <glyph glyph-name="ebreve" unicode="&#x115;" horiz-adv-x="423" 
d="M78 278q-1 -6 -1 -13v-27q0 -70 12.5 -115.5t33 -72.5t46.5 -37.5t54 -10.5q43 0 67.5 16.5t37.5 36.5q15 24 20 54l15 -3q-4 -35 -20 -61q-14 -23 -42 -41.5t-78 -18.5q-32 0 -61 12t-52 41t-36.5 77.5t-13.5 122.5q0 77 11 130t32 85.5t50.5 47t66.5 14.5
q36 0 62.5 -14t43.5 -37.5t25.5 -53.5t8.5 -61q0 -13 -0.5 -25.5t-0.5 -22.5q-1 -12 -1 -23h-280zM220 498q-29 0 -53 -10.5t-42.5 -34.5t-30.5 -63t-16 -96h265v15q0 7 0.5 16.5t0.5 20.5q0 28 -7.5 55t-22.5 48.5t-38.5 35t-55.5 13.5zM233 587q34 0 48 20.5t14 58.5h17
q0 -44 -18 -70t-62 -26t-62 26t-18 70h17q0 -38 15 -58.5t49 -20.5z" />
    <glyph glyph-name="Edotaccent" unicode="&#x116;" horiz-adv-x="504" 
d="M60 700h384v-17h-366v-314h307v-17h-307v-335h366v-17h-384v700zM237 806q0 12 8 20t20 8t20 -8t8 -20t-8 -20t-20 -8t-20 8t-8 20z" />
    <glyph glyph-name="edotaccent" unicode="&#x117;" horiz-adv-x="423" 
d="M78 278q-1 -6 -1 -13v-27q0 -70 12.5 -115.5t33 -72.5t46.5 -37.5t54 -10.5q43 0 67.5 16.5t37.5 36.5q15 24 20 54l15 -3q-4 -35 -20 -61q-14 -23 -42 -41.5t-78 -18.5q-32 0 -61 12t-52 41t-36.5 77.5t-13.5 122.5q0 77 11 130t32 85.5t50.5 47t66.5 14.5
q36 0 62.5 -14t43.5 -37.5t25.5 -53.5t8.5 -61q0 -13 -0.5 -25.5t-0.5 -22.5q-1 -12 -1 -23h-280zM220 498q-29 0 -53 -10.5t-42.5 -34.5t-30.5 -63t-16 -96h265v15q0 7 0.5 16.5t0.5 20.5q0 28 -7.5 55t-22.5 48.5t-38.5 35t-55.5 13.5zM196 606q0 12 8 20t20 8t20 -8
t8 -20t-8 -20t-20 -8t-20 8t-8 20z" />
    <glyph glyph-name="Eogonek" unicode="&#x118;" horiz-adv-x="516" 
d="M60 700h384v-17h-366v-314h307v-17h-307v-335h366v-17h-8q-8 -2 -21.5 -7t-27.5 -15t-24 -25t-10 -36q0 -22 12.5 -37.5t34.5 -15.5q13 0 22 3t15 7q7 4 11 10l10 -10q-5 -8 -13 -13q-7 -5 -18 -8.5t-25 -3.5q-28 0 -46.5 17.5t-18.5 51.5q0 17 6.5 30.5t16.5 23.5
t22.5 16.5t23.5 11.5h-346v700z" />
    <glyph glyph-name="eogonek" unicode="&#x119;" horiz-adv-x="423" 
d="M196 -83q0 -22 12.5 -37.5t34.5 -15.5q13 0 22 3t15 7q7 4 11 10l10 -10q-5 -8 -13 -13q-7 -5 -18 -8.5t-25 -3.5q-28 0 -46.5 17.5t-18.5 51.5q0 24 11.5 40t27.5 27q-31 1 -59.5 13t-50.5 41.5t-35.5 77.5t-13.5 121q0 77 11 130t32 85.5t50.5 47t66.5 14.5
q36 0 62.5 -14t43.5 -37.5t25.5 -53.5t8.5 -61q0 -13 -0.5 -25.5t-0.5 -22.5q-1 -12 -1 -23h-280q-1 -6 -1 -13v-27q0 -70 12.5 -115.5t33 -72.5t46.5 -37.5t54 -10.5q43 0 67.5 16.5t37.5 36.5q15 24 20 54l15 -3q-3 -30 -17 -55q-12 -21 -35.5 -40t-65.5 -24
q-19 -10 -34 -26.5t-15 -43.5zM220 498q-29 0 -53 -10.5t-42.5 -34.5t-30.5 -63t-16 -96h265v15q0 7 0.5 16.5t0.5 20.5q0 28 -7.5 55t-22.5 48.5t-38.5 35t-55.5 13.5z" />
    <glyph glyph-name="Ecaron" unicode="&#x11a;" horiz-adv-x="504" 
d="M60 700h384v-17h-366v-314h307v-17h-307v-335h366v-17h-384v700zM263 775l-90 128h17l82 -110l82 110h17l-90 -128h-18z" />
    <glyph glyph-name="ecaron" unicode="&#x11b;" horiz-adv-x="423" 
d="M78 278q-1 -6 -1 -13v-27q0 -70 12.5 -115.5t33 -72.5t46.5 -37.5t54 -10.5q43 0 67.5 16.5t37.5 36.5q15 24 20 54l15 -3q-4 -35 -20 -61q-14 -23 -42 -41.5t-78 -18.5q-32 0 -61 12t-52 41t-36.5 77.5t-13.5 122.5q0 77 11 130t32 85.5t50.5 47t66.5 14.5
q36 0 62.5 -14t43.5 -37.5t25.5 -53.5t8.5 -61q0 -13 -0.5 -25.5t-0.5 -22.5q-1 -12 -1 -23h-280zM220 498q-29 0 -53 -10.5t-42.5 -34.5t-30.5 -63t-16 -96h265v15q0 7 0.5 16.5t0.5 20.5q0 28 -7.5 55t-22.5 48.5t-38.5 35t-55.5 13.5zM224 575l-90 128h17l82 -110l82 110
h17l-90 -128h-18z" />
    <glyph glyph-name="Gcircumflex" unicode="&#x11c;" horiz-adv-x="573" 
d="M311 316h202v-316h-18v108q-13 -35 -39 -62q-22 -23 -59 -42t-96 -19q-43 0 -86 17t-77.5 57.5t-56 107.5t-21.5 167q0 105 18 178t50.5 118t77.5 65t99 20q52 0 89 -18t60.5 -45t34.5 -59.5t11 -61.5q0 -19 -1 -32t-3 -21q-2 -10 -4 -16h-18q2 7 4 17q2 8 3 20t1 28
q0 27 -10 57.5t-31.5 55.5t-55 41.5t-80.5 16.5q-49 0 -90.5 -19.5t-72 -62.5t-47.5 -112.5t-17 -169.5q0 -95 20.5 -158.5t53 -102t72 -55t77.5 -16.5q32 0 57.5 6.5t45 17t34 24t24.5 27.5q24 33 33 76v147h-184v16zM320 899l90 -128h-17l-82 110l-82 -110h-17l90 128h18z
" />
    <glyph glyph-name="gcircumflex" unicode="&#x11d;" horiz-adv-x="482" 
d="M111 0q-10 -9 -17 -21q-7 -11 -12 -27t-5 -38q0 -64 43.5 -103.5t118.5 -39.5q39 0 69.5 10.5t52 28.5t33 43.5t11.5 55.5q0 66 -41 98t-109 31l-67 -1q-44 -1 -73.5 16t-29.5 58q0 22 7.5 36.5t17.5 22.5q11 10 26 14q-19 14 -33 35q-13 18 -23 45.5t-10 66.5
q0 38 11.5 71.5t33 58.5t52.5 39.5t71 14.5q39 0 74 -16q19 2 35 11q13 8 24 22t11 39h17q0 -27 -10.5 -43t-23.5 -25q-15 -11 -33 -15q36 -24 56.5 -65.5t20.5 -91.5q0 -38 -12 -71t-34 -57t-53.5 -38t-70.5 -14q-51 0 -88 23q-14 -4 -25 -12q-9 -7 -16.5 -19t-7.5 -32
q0 -17 7 -28t19 -17.5t27.5 -9t32.5 -2.5l67 1q77 1 122 -35.5t45 -110.5q0 -35 -13.5 -64t-37.5 -49t-57.5 -31t-74.5 -11q-86 0 -132.5 43.5t-46.5 116.5q0 27 5.5 45.5t13.5 30.5q8 14 19 23zM392 331q0 36 -10.5 66.5t-30.5 53t-48.5 35t-64.5 12.5t-64 -12.5t-47.5 -35
t-29.5 -53t-10 -66.5t10.5 -65.5t30 -51.5t48 -34t63.5 -12t63.5 12t48.5 33.5t30.5 51.5t10.5 66zM251 699l90 -128h-17l-82 110l-82 -110h-17l90 128h18z" />
    <glyph glyph-name="Gbreve" unicode="&#x11e;" horiz-adv-x="573" 
d="M311 316h202v-316h-18v108q-13 -35 -39 -62q-22 -23 -59 -42t-96 -19q-43 0 -86 17t-77.5 57.5t-56 107.5t-21.5 167q0 105 18 178t50.5 118t77.5 65t99 20q52 0 89 -18t60.5 -45t34.5 -59.5t11 -61.5q0 -19 -1 -32t-3 -21q-2 -10 -4 -16h-18q2 7 4 17q2 8 3 20t1 28
q0 27 -10 57.5t-31.5 55.5t-55 41.5t-80.5 16.5q-49 0 -90.5 -19.5t-72 -62.5t-47.5 -112.5t-17 -169.5q0 -95 20.5 -158.5t53 -102t72 -55t77.5 -16.5q32 0 57.5 6.5t45 17t34 24t24.5 27.5q24 33 33 76v147h-184v16zM316 787q34 0 48 20.5t14 58.5h17q0 -44 -18 -70
t-62 -26t-62 26t-18 70h17q0 -38 15 -58.5t49 -20.5z" />
    <glyph glyph-name="gbreve" unicode="&#x11f;" horiz-adv-x="482" 
d="M111 0q-10 -9 -17 -21q-7 -11 -12 -27t-5 -38q0 -64 43.5 -103.5t118.5 -39.5q39 0 69.5 10.5t52 28.5t33 43.5t11.5 55.5q0 66 -41 98t-109 31l-67 -1q-44 -1 -73.5 16t-29.5 58q0 22 7.5 36.5t17.5 22.5q11 10 26 14q-19 14 -33 35q-13 18 -23 45.5t-10 66.5
q0 38 11.5 71.5t33 58.5t52.5 39.5t71 14.5q39 0 74 -16q19 2 35 11q13 8 24 22t11 39h17q0 -27 -10.5 -43t-23.5 -25q-15 -11 -33 -15q36 -24 56.5 -65.5t20.5 -91.5q0 -38 -12 -71t-34 -57t-53.5 -38t-70.5 -14q-51 0 -88 23q-14 -4 -25 -12q-9 -7 -16.5 -19t-7.5 -32
q0 -17 7 -28t19 -17.5t27.5 -9t32.5 -2.5l67 1q77 1 122 -35.5t45 -110.5q0 -35 -13.5 -64t-37.5 -49t-57.5 -31t-74.5 -11q-86 0 -132.5 43.5t-46.5 116.5q0 27 5.5 45.5t13.5 30.5q8 14 19 23zM392 331q0 36 -10.5 66.5t-30.5 53t-48.5 35t-64.5 12.5t-64 -12.5t-47.5 -35
t-29.5 -53t-10 -66.5t10.5 -65.5t30 -51.5t48 -34t63.5 -12t63.5 12t48.5 33.5t30.5 51.5t10.5 66zM246 587q34 0 48 20.5t14 58.5h17q0 -44 -18 -70t-62 -26t-62 26t-18 70h17q0 -38 15 -58.5t49 -20.5z" />
    <glyph glyph-name="Gdotaccent" unicode="&#x120;" horiz-adv-x="573" 
d="M311 316h202v-316h-18v108q-13 -35 -39 -62q-22 -23 -59 -42t-96 -19q-43 0 -86 17t-77.5 57.5t-56 107.5t-21.5 167q0 105 18 178t50.5 118t77.5 65t99 20q52 0 89 -18t60.5 -45t34.5 -59.5t11 -61.5q0 -19 -1 -32t-3 -21q-2 -10 -4 -16h-18q2 7 4 17q2 8 3 20t1 28
q0 27 -10 57.5t-31.5 55.5t-55 41.5t-80.5 16.5q-49 0 -90.5 -19.5t-72 -62.5t-47.5 -112.5t-17 -169.5q0 -95 20.5 -158.5t53 -102t72 -55t77.5 -16.5q32 0 57.5 6.5t45 17t34 24t24.5 27.5q24 33 33 76v147h-184v16zM282 806q0 12 8 20t20 8t20 -8t8 -20t-8 -20t-20 -8
t-20 8t-8 20z" />
    <glyph glyph-name="gdotaccent" unicode="&#x121;" horiz-adv-x="482" 
d="M111 0q-10 -9 -17 -21q-7 -11 -12 -27t-5 -38q0 -64 43.5 -103.5t118.5 -39.5q39 0 69.5 10.5t52 28.5t33 43.5t11.5 55.5q0 66 -41 98t-109 31l-67 -1q-44 -1 -73.5 16t-29.5 58q0 22 7.5 36.5t17.5 22.5q11 10 26 14q-19 14 -33 35q-13 18 -23 45.5t-10 66.5
q0 38 11.5 71.5t33 58.5t52.5 39.5t71 14.5q39 0 74 -16q19 2 35 11q13 8 24 22t11 39h17q0 -27 -10.5 -43t-23.5 -25q-15 -11 -33 -15q36 -24 56.5 -65.5t20.5 -91.5q0 -38 -12 -71t-34 -57t-53.5 -38t-70.5 -14q-51 0 -88 23q-14 -4 -25 -12q-9 -7 -16.5 -19t-7.5 -32
q0 -17 7 -28t19 -17.5t27.5 -9t32.5 -2.5l67 1q77 1 122 -35.5t45 -110.5q0 -35 -13.5 -64t-37.5 -49t-57.5 -31t-74.5 -11q-86 0 -132.5 43.5t-46.5 116.5q0 27 5.5 45.5t13.5 30.5q8 14 19 23zM392 331q0 36 -10.5 66.5t-30.5 53t-48.5 35t-64.5 12.5t-64 -12.5t-47.5 -35
t-29.5 -53t-10 -66.5t10.5 -65.5t30 -51.5t48 -34t63.5 -12t63.5 12t48.5 33.5t30.5 51.5t10.5 66zM214 606q0 12 8 20t20 8t20 -8t8 -20t-8 -20t-20 -8t-20 8t-8 20z" />
    <glyph glyph-name="Gcommaaccent" unicode="&#x122;" horiz-adv-x="573" 
d="M311 316h202v-316h-18v108q-13 -35 -39 -62q-22 -23 -59 -42t-96 -19q-43 0 -86 17t-77.5 57.5t-56 107.5t-21.5 167q0 105 18 178t50.5 118t77.5 65t99 20q52 0 89 -18t60.5 -45t34.5 -59.5t11 -61.5q0 -19 -1 -32t-3 -21q-2 -10 -4 -16h-18q2 7 4 17q2 8 3 20t1 28
q0 27 -10 57.5t-31.5 55.5t-55 41.5t-80.5 16.5q-49 0 -90.5 -19.5t-72 -62.5t-47.5 -112.5t-17 -169.5q0 -95 20.5 -158.5t53 -102t72 -55t77.5 -16.5q32 0 57.5 6.5t45 17t34 24t24.5 27.5q24 33 33 76v147h-184v16zM274 -104q0 11 7.5 18.5t18.5 7.5t18.5 -8.5t7.5 -20.5
q0 -15 -3 -27.5t-7 -22.5q-4 -11 -9 -21h-17q3 9 7 18q3 8 5.5 16t2.5 14h-5q-11 0 -18.5 7.5t-7.5 18.5z" />
    <glyph glyph-name="gcommaaccent" unicode="&#x123;" horiz-adv-x="482" 
d="M111 0q-10 -9 -17 -21q-7 -11 -12 -27t-5 -38q0 -64 43.5 -103.5t118.5 -39.5q39 0 69.5 10.5t52 28.5t33 43.5t11.5 55.5q0 66 -41 98t-109 31l-67 -1q-44 -1 -73.5 16t-29.5 58q0 22 7.5 36.5t17.5 22.5q11 10 26 14q-19 14 -33 35q-13 18 -23 45.5t-10 66.5
q0 38 11.5 71.5t33 58.5t52.5 39.5t71 14.5q39 0 74 -16q19 2 35 11q13 8 24 22t11 39h17q0 -27 -10.5 -43t-23.5 -25q-15 -11 -33 -15q36 -24 56.5 -65.5t20.5 -91.5q0 -38 -12 -71t-34 -57t-53.5 -38t-70.5 -14q-51 0 -88 23q-14 -4 -25 -12q-9 -7 -16.5 -19t-7.5 -32
q0 -17 7 -28t19 -17.5t27.5 -9t32.5 -2.5l67 1q77 1 122 -35.5t45 -110.5q0 -35 -13.5 -64t-37.5 -49t-57.5 -31t-74.5 -11q-86 0 -132.5 43.5t-46.5 116.5q0 27 5.5 45.5t13.5 30.5q8 14 19 23zM392 331q0 36 -10.5 66.5t-30.5 53t-48.5 35t-64.5 12.5t-64 -12.5t-47.5 -35
t-29.5 -53t-10 -66.5t10.5 -65.5t30 -51.5t48 -34t63.5 -12t63.5 12t48.5 33.5t30.5 51.5t10.5 66zM268 608q0 -11 -7.5 -18.5t-18.5 -7.5t-18.5 8.5t-7.5 20.5q0 14 2.5 27t6.5 23q4 11 10 21h17l-8 -18q-3 -8 -5 -16t-2 -14h5q11 0 18.5 -7.5t7.5 -18.5z" />
    <glyph glyph-name="Hcircumflex" unicode="&#x124;" horiz-adv-x="561" 
d="M501 0h-18v352h-405v-352h-18v700h18v-331h405v331h18v-700zM293 899l90 -128h-17l-82 110l-82 -110h-17l90 128h18z" />
    <glyph glyph-name="hcircumflex" unicode="&#x125;" 
d="M60 750h17v-393q1 5 8 30.5t23.5 54t44 51t68.5 22.5q61 0 95.5 -39t34.5 -102v-329q0 -19 4.5 -23.5t14.5 -4.5h14v-17h-15q-17 0 -26 10.5t-9 35.5v328q0 57 -29.5 90.5t-83.5 33.5q-20 0 -36.5 -7.5t-30 -20t-24.5 -28.5t-20 -32q-20 -39 -33 -88v-322h-17v750z
M214 936l90 -128h-17l-82 110l-82 -110h-17l90 128h18z" />
    <glyph glyph-name="Hbar" unicode="&#x126;" horiz-adv-x="617" 
d="M529 552h28v-17h-28v-535h-18v352h-405v-352h-18v535h-28v17h28v148h18v-148h405v148h18v-148zM106 369h405v166h-405v-166z" />
    <glyph glyph-name="hbar" unicode="&#x127;" horiz-adv-x="501" 
d="M60 618h57v132h17v-132h206v-16h-206v-245q1 5 8 30.5t23.5 54t44 51t68.5 22.5q61 0 95.5 -39t34.5 -102v-329q0 -19 4.5 -23.5t14.5 -4.5h14v-17h-15q-17 0 -26 10.5t-9 35.5v328q0 57 -29.5 90.5t-83.5 33.5q-20 0 -36.5 -7.5t-30 -20t-24.5 -28.5t-20 -32
q-20 -39 -33 -88v-322h-17v602h-57v16z" />
    <glyph glyph-name="Itilde" unicode="&#x128;" horiz-adv-x="138" 
d="M78 0h-18v700h18v-700zM187 866q1 -5 2 -9t2 -8.5t1 -9.5q0 -22 -14 -38.5t-44 -16.5q-19 0 -36.5 11.5t-34 25t-31.5 25t-28 11.5q-16 0 -29 -7.5t-13 -32.5q0 -7 0.5 -11.5t1.5 -8.5t3 -7h-16q-2 5 -3 9q-2 10 -2 18q0 22 14 38.5t44 16.5q17 0 33.5 -11.5t32.5 -25
t32 -25t32 -11.5q17 0 29.5 7.5t12.5 32.5q0 6 -1 11t-2 9t-2 7h16z" />
    <glyph glyph-name="itilde" unicode="&#x129;" horiz-adv-x="170" 
d="M77 45q0 -19 4.5 -23.5t14.5 -4.5h14v-17h-15q-17 0 -26 10.5t-9 35.5v454h17v-455zM186 666q1 -5 2 -9t2 -8.5t1 -9.5q0 -22 -14 -38.5t-44 -16.5q-19 0 -36.5 11.5t-34 25t-31.5 25t-28 11.5q-16 0 -29 -7.5t-13 -32.5q0 -7 0.5 -11.5t1.5 -8.5t3 -7h-16q-2 5 -3 9
q-2 10 -2 18q0 22 14 38.5t44 16.5q17 0 33.5 -11.5t32.5 -25t32 -25t32 -11.5q17 0 29.5 7.5t12.5 32.5q0 6 -1 11t-2 9t-2 7h16z" />
    <glyph glyph-name="imacron" unicode="&#x12b;" horiz-adv-x="170" 
d="M77 45q0 -19 4.5 -23.5t14.5 -4.5h14v-17h-15q-17 0 -26 10.5t-9 35.5v454h17v-455zM-73 619h280v-17h-280v17z" />
    <glyph glyph-name="Ibreve" unicode="&#x12c;" horiz-adv-x="138" 
d="M78 0h-18v700h18v-700zM70 787q34 0 48 20.5t14 58.5h17q0 -44 -18 -70t-62 -26t-62 26t-18 70h17q0 -38 15 -58.5t49 -20.5z" />
    <glyph glyph-name="Iogonek" unicode="&#x12e;" horiz-adv-x="138" 
d="M-13 -83q0 -22 12.5 -37.5t34.5 -15.5q13 0 22 3t15 7q7 4 11 10l10 -10q-5 -8 -13 -13q-7 -5 -18 -8.5t-25 -3.5q-28 0 -46.5 17.5t-18.5 51.5q0 22 10 37.5t24 26t29 16.5t26 9v693h18v-700h-8q-8 -2 -21.5 -7t-27.5 -15t-24 -25t-10 -36z" />
    <glyph glyph-name="iogonek" unicode="&#x12f;" horiz-adv-x="185" 
d="M34 -83q0 -22 12.5 -37.5t34.5 -15.5q13 0 22 3t15 7q7 4 11 10l10 -10q-5 -8 -13 -13q-7 -5 -18 -8.5t-25 -3.5q-28 0 -46.5 17.5t-18.5 51.5q0 19 7.5 33t19 24.5t25 17t24.5 10.5q-19 8 -19 43v454h17v-455q0 -19 4.5 -23.5t14.5 -4.5h14v-17h-8q-8 -2 -21.5 -7
t-27.5 -15t-24 -25t-10 -36zM52 652q0 12 9.5 21.5t21.5 9.5t21.5 -9.5t9.5 -21.5t-9.5 -21.5t-21.5 -9.5t-21.5 9.5t-9.5 21.5z" />
    <glyph glyph-name="Idotaccent" unicode="&#x130;" horiz-adv-x="176" 
d="M96 0h-18v700h18v-700zM60 806q0 12 8 20t20 8t20 -8t8 -20t-8 -20t-20 -8t-20 8t-8 20z" />
    <glyph glyph-name="Jcircumflex" unicode="&#x134;" horiz-adv-x="271" 
d="M193 700h18v-559q0 -63 -33.5 -102t-96.5 -39h-71v17h71q52 0 82 33.5t30 90.5v559zM212 899l90 -128h-17l-82 110l-82 -110h-17l90 128h18z" />
    <glyph glyph-name="jcircumflex" unicode="&#x135;" horiz-adv-x="156" 
d="M79 500h17v-610q0 -63 -33.5 -102t-96.5 -39h-40v17h40q52 0 82.5 33.5t30.5 90.5v610zM95 699l90 -128h-17l-82 110l-82 -110h-17l90 128h18z" />
    <glyph glyph-name="Kcommaaccent" unicode="&#x136;" horiz-adv-x="558" 
d="M519 0q-27 0 -47 25t-36.5 62.5t-33 81t-35 81t-42.5 62.5t-57 25h-190v-337h-18v700h18v-346h190q31 0 60.5 29.5t53 77.5t38 110.5t14.5 128.5h20q0 -62 -12.5 -120t-33 -105.5t-47.5 -81t-57 -47.5q29 -13 50.5 -42t38.5 -65.5t31 -75.5t28.5 -71.5t30.5 -53.5t37 -21
h23v-17h-24zM166 -104q0 11 7.5 18.5t18.5 7.5t18.5 -8.5t7.5 -20.5q0 -15 -3 -27.5t-7 -22.5q-4 -11 -9 -21h-17q3 9 7 18q3 8 5.5 16t2.5 14h-5q-11 0 -18.5 7.5t-7.5 18.5z" />
    <glyph glyph-name="kcommaaccent" unicode="&#x137;" horiz-adv-x="499" 
d="M339 500q0 -17 -10.5 -44t-28 -55.5t-40.5 -53.5t-48 -38q28 -10 48.5 -35.5t37 -57.5t30.5 -67.5t27.5 -64.5t28.5 -48t35 -19h20v-17h-21q-25 0 -44 22t-35 55t-31.5 72t-33.5 72t-40.5 55t-52.5 22h-104v-298h-17v750h17v-435h95q25 0 51 21.5t47.5 51t35 61
t13.5 51.5h20zM181 -104q0 11 7.5 18.5t18.5 7.5t18.5 -8.5t7.5 -20.5q0 -15 -3 -27.5t-7 -22.5q-4 -11 -9 -21h-17q3 9 7 18q3 8 5.5 16t2.5 14h-5q-11 0 -18.5 7.5t-7.5 18.5z" />
    <glyph glyph-name="Lacute" unicode="&#x139;" horiz-adv-x="440" 
d="M60 700h18v-683h342v-17h-360v700zM70 758l99 141l18 -11l-101 -130h-16z" />
    <glyph glyph-name="lacute" unicode="&#x13a;" horiz-adv-x="197" 
d="M87 750h17v-705q0 -19 4.5 -23.5t14.5 -4.5h14v-17h-15q-17 0 -26 10t-9 35v705zM93 818l99 141l18 -11l-101 -130h-16z" />
    <glyph glyph-name="Lcommaaccent" unicode="&#x13b;" horiz-adv-x="440" 
d="M60 700h18v-683h342v-17h-360v700zM194 -104q0 11 7.5 18.5t18.5 7.5t18.5 -8.5t7.5 -20.5q0 -15 -3 -27.5t-7 -22.5q-4 -11 -9 -21h-17q3 9 7 18q3 8 5.5 16t2.5 14h-5q-11 0 -18.5 7.5t-7.5 18.5z" />
    <glyph glyph-name="lcommaaccent" unicode="&#x13c;" horiz-adv-x="199" 
d="M89 750h17v-705q0 -19 4.5 -23.5t14.5 -4.5h14v-17h-15q-17 0 -26 10t-9 35v705zM87 -104q0 11 7.5 18.5t18.5 7.5t18.5 -8.5t7.5 -20.5q0 -15 -3 -27.5t-7 -22.5q-4 -11 -9 -21h-17q3 9 7 18q3 8 5.5 16t2.5 14h-5q-11 0 -18.5 7.5t-7.5 18.5z" />
    <glyph glyph-name="Lcaron" unicode="&#x13d;" horiz-adv-x="440" 
d="M60 700h18v-683h342v-17h-360v700zM115 745q0 11 7.5 18.5t18.5 7.5t18.5 -8.5t7.5 -20.5q0 -15 -3 -27.5t-7 -22.5q-4 -11 -9 -21h-17q3 9 7 18q3 8 5.5 16t2.5 14h-5q-11 0 -18.5 7.5t-7.5 18.5z" />
    <glyph glyph-name="lcaron" unicode="&#x13e;" horiz-adv-x="197" 
d="M87 750h17v-705q0 -19 4.5 -23.5t14.5 -4.5h14v-17h-15q-17 0 -26 10t-9 35v705zM138 730q0 11 7.5 18.5t18.5 7.5t18.5 -8.5t7.5 -20.5q0 -15 -3 -27.5t-7 -22.5q-4 -11 -9 -21h-17q3 9 7 18q3 8 5.5 16t2.5 14h-5q-11 0 -18.5 7.5t-7.5 18.5z" />
    <glyph glyph-name="Ldot" unicode="&#x13f;" horiz-adv-x="440" 
d="M127 182q0 11 8 18.5t18 7.5t18 -7.5t8 -18.5t-8 -18.5t-18 -7.5t-18 7.5t-8 18.5zM60 700h18v-683h342v-17h-360v700z" />
    <glyph glyph-name="ldot" unicode="&#x140;" horiz-adv-x="197" 
d="M125 182q0 11 8 18.5t18 7.5t18 -7.5t8 -18.5t-8 -18.5t-18 -7.5t-18 7.5t-8 18.5zM87 750h17v-705q0 -19 4.5 -23.5t14.5 -4.5h14v-17h-15q-17 0 -26 10t-9 35v705z" />
    <glyph glyph-name="Lslash" unicode="&#x141;" horiz-adv-x="442" 
d="M60 329l-78 -82l-12 11l90 94v348h18v-330l80 84l12 -9l-92 -97v-331h342v-17h-360v329z" />
    <glyph glyph-name="lslash" unicode="&#x142;" horiz-adv-x="197" 
d="M87 323l-72 -76l-12 11l84 87v405h17v-387l87 91l12 -9l-99 -104v-296q0 -19 4.5 -23.5t14.5 -4.5h14v-17h-15q-17 0 -26 10t-9 35v278z" />
    <glyph glyph-name="Nacute" unicode="&#x143;" horiz-adv-x="549" 
d="M489 0h-18l-393 665v-665h-18v700h18l393 -664v664h18v-700zM271 758l99 141l18 -11l-101 -130h-16z" />
    <glyph glyph-name="nacute" unicode="&#x144;" horiz-adv-x="477" 
d="M110 357q1 5 8 30.5t23.5 54t44 51t68.5 22.5q61 0 95.5 -39t34.5 -102v-329q0 -19 4.5 -23.5t14.5 -4.5h14v-17h-15q-17 0 -26 10.5t-9 35.5v328q0 57 -29.5 90.5t-83.5 33.5q-41 0 -69 -27.5t-44 -60.5q-19 -39 -31 -88v-322h-17v455q0 19 -4.5 23.5t-14.5 4.5h-15v17
h16q17 0 26 -10t9 -35v-98zM190 558l99 141l18 -11l-101 -130h-16z" />
    <glyph glyph-name="Ncommaaccent" unicode="&#x145;" horiz-adv-x="549" 
d="M489 0h-18l-393 665v-665h-18v700h18l393 -664v664h18v-700zM252 -104q0 11 7.5 18.5t18.5 7.5t18.5 -8.5t7.5 -20.5q0 -15 -3 -27.5t-7 -22.5q-4 -11 -9 -21h-17q3 9 7 18q3 8 5.5 16t2.5 14h-5q-11 0 -18.5 7.5t-7.5 18.5z" />
    <glyph glyph-name="ncommaaccent" unicode="&#x146;" horiz-adv-x="477" 
d="M110 357q1 5 8 30.5t23.5 54t44 51t68.5 22.5q61 0 95.5 -39t34.5 -102v-329q0 -19 4.5 -23.5t14.5 -4.5h14v-17h-15q-17 0 -26 10.5t-9 35.5v328q0 57 -29.5 90.5t-83.5 33.5q-41 0 -69 -27.5t-44 -60.5q-19 -39 -31 -88v-322h-17v455q0 19 -4.5 23.5t-14.5 4.5h-15v17
h16q17 0 26 -10t9 -35v-98zM220 -104q0 11 7.5 18.5t18.5 7.5t18.5 -8.5t7.5 -20.5q0 -15 -3 -27.5t-7 -22.5q-4 -11 -9 -21h-17q3 9 7 18q3 8 5.5 16t2.5 14h-5q-11 0 -18.5 7.5t-7.5 18.5z" />
    <glyph glyph-name="Ncaron" unicode="&#x147;" horiz-adv-x="549" 
d="M489 0h-18l-393 665v-665h-18v700h18l393 -664v664h18v-700zM296 775l-90 128h17l82 -110l82 110h17l-90 -128h-18z" />
    <glyph glyph-name="ncaron" unicode="&#x148;" horiz-adv-x="477" 
d="M110 357q1 5 8 30.5t23.5 54t44 51t68.5 22.5q61 0 95.5 -39t34.5 -102v-329q0 -19 4.5 -23.5t14.5 -4.5h14v-17h-15q-17 0 -26 10.5t-9 35.5v328q0 57 -29.5 90.5t-83.5 33.5q-41 0 -69 -27.5t-44 -60.5q-19 -39 -31 -88v-322h-17v455q0 19 -4.5 23.5t-14.5 4.5h-15v17
h16q17 0 26 -10t9 -35v-98zM237 575l-90 128h17l82 -110l82 110h17l-90 -128h-18z" />
    <glyph glyph-name="Eng" unicode="&#x14a;" horiz-adv-x="549" 
d="M489 -109q0 -63 -33.5 -102t-96.5 -39h-40v17h40q52 0 82 33.5t30 90.5v109l-393 665v-665h-18v700h18l393 -664v664h18v-809z" />
    <glyph glyph-name="eng" unicode="&#x14b;" 
d="M110 359q5 19 15 46t27 51.5t42 41.5t60 17q61 0 95.5 -39t34.5 -102v-484q0 -63 -33.5 -102t-96.5 -39h-40v17h40q52 0 82.5 33.5t30.5 90.5v484q0 57 -29.5 90.5t-83.5 33.5q-35 0 -61 -22.5t-43 -52t-27 -59t-13 -42.5v-322h-17v455q0 19 -4.5 23.5t-14.5 4.5h-14v17
h15q17 0 26 -10t9 -35v-96z" />
    <glyph glyph-name="Omacron" unicode="&#x14c;" horiz-adv-x="610" 
d="M60 334q0 105 18 177.5t50.5 117.5t77 65.5t98.5 20.5t99 -20t77.5 -65t51 -118t18.5 -178q0 -100 -22 -167t-57 -107.5t-78.5 -57.5t-86.5 -17t-86.5 17.5t-79 58t-58 107.5t-22.5 166zM532 334q0 100 -17.5 169t-48 112.5t-72 63t-90.5 19.5t-90.5 -19.5t-71.5 -62.5
t-47 -112.5t-17 -169.5q0 -95 21.5 -158.5t54.5 -102t73.5 -55t78.5 -16.5t78 16.5t73 55t54 102t21 158.5zM157 819h280v-17h-280v17z" />
    <glyph glyph-name="omacron" unicode="&#x14d;" horiz-adv-x="442" 
d="M55 238q0 77 11 129.5t32 85.5t51.5 47.5t70.5 14.5t71 -14.5t52.5 -47t32.5 -85.5t11 -130q0 -73 -14.5 -121.5t-37.5 -78t-53 -41.5t-61 -12q-32 0 -61.5 12t-53 41t-37.5 77.5t-14 122.5zM370 238q0 73 -10.5 122.5t-30 80t-47.5 44t-62 13.5q-35 0 -62.5 -13
t-46.5 -43.5t-29 -80.5t-10 -123q0 -70 13 -115.5t34 -72.5t47.5 -37.5t54.5 -10.5q27 0 54 11t48 38t34 72.5t13 114.5zM85 619h280v-17h-280v17z" />
    <glyph glyph-name="Obreve" unicode="&#x14e;" horiz-adv-x="610" 
d="M60 334q0 105 18 177.5t50.5 117.5t77 65.5t98.5 20.5t99 -20t77.5 -65t51 -118t18.5 -178q0 -100 -22 -167t-57 -107.5t-78.5 -57.5t-86.5 -17t-86.5 17.5t-79 58t-58 107.5t-22.5 166zM532 334q0 100 -17.5 169t-48 112.5t-72 63t-90.5 19.5t-90.5 -19.5t-71.5 -62.5
t-47 -112.5t-17 -169.5q0 -95 21.5 -158.5t54.5 -102t73.5 -55t78.5 -16.5t78 16.5t73 55t54 102t21 158.5zM304 787q34 0 48 20.5t14 58.5h17q0 -44 -18 -70t-62 -26t-62 26t-18 70h17q0 -38 15 -58.5t49 -20.5z" />
    <glyph glyph-name="obreve" unicode="&#x14f;" horiz-adv-x="442" 
d="M55 238q0 77 11 129.5t32 85.5t51.5 47.5t70.5 14.5t71 -14.5t52.5 -47t32.5 -85.5t11 -130q0 -73 -14.5 -121.5t-37.5 -78t-53 -41.5t-61 -12q-32 0 -61.5 12t-53 41t-37.5 77.5t-14 122.5zM370 238q0 73 -10.5 122.5t-30 80t-47.5 44t-62 13.5q-35 0 -62.5 -13
t-46.5 -43.5t-29 -80.5t-10 -123q0 -70 13 -115.5t34 -72.5t47.5 -37.5t54.5 -10.5q27 0 54 11t48 38t34 72.5t13 114.5zM228 587q34 0 48 20.5t14 58.5h17q0 -44 -18 -70t-62 -26t-62 26t-18 70h17q0 -38 15 -58.5t49 -20.5z" />
    <glyph glyph-name="Ohungarumlaut" unicode="&#x150;" horiz-adv-x="610" 
d="M60 334q0 105 18 177.5t50.5 117.5t77 65.5t98.5 20.5t99 -20t77.5 -65t51 -118t18.5 -178q0 -100 -22 -167t-57 -107.5t-78.5 -57.5t-86.5 -17t-86.5 17.5t-79 58t-58 107.5t-22.5 166zM532 334q0 100 -17.5 169t-48 112.5t-72 63t-90.5 19.5t-90.5 -19.5t-71.5 -62.5
t-47 -112.5t-17 -169.5q0 -95 21.5 -158.5t54.5 -102t73.5 -55t78.5 -16.5t78 16.5t73 55t54 102t21 158.5zM258 758l99 141l18 -11l-101 -130h-16zM316 758l99 141l18 -11l-101 -130h-16z" />
    <glyph glyph-name="ohungarumlaut" unicode="&#x151;" horiz-adv-x="442" 
d="M55 238q0 77 11 129.5t32 85.5t51.5 47.5t70.5 14.5t71 -14.5t52.5 -47t32.5 -85.5t11 -130q0 -73 -14.5 -121.5t-37.5 -78t-53 -41.5t-61 -12q-32 0 -61.5 12t-53 41t-37.5 77.5t-14 122.5zM370 238q0 73 -10.5 122.5t-30 80t-47.5 44t-62 13.5q-35 0 -62.5 -13
t-46.5 -43.5t-29 -80.5t-10 -123q0 -70 13 -115.5t34 -72.5t47.5 -37.5t54.5 -10.5q27 0 54 11t48 38t34 72.5t13 114.5zM177 558l99 141l18 -11l-101 -130h-16zM235 558l99 141l18 -11l-101 -130h-16z" />
    <glyph glyph-name="OE" unicode="&#x152;" horiz-adv-x="976" 
d="M532 188q-1 -4 -5.5 -21t-14.5 -39.5t-26.5 -47.5t-41.5 -46t-59 -35t-79 -14q-43 0 -86.5 17.5t-79 58t-58 107.5t-22.5 166q0 105 18 177.5t50.5 117.5t77 65.5t98.5 20.5q38 0 68 -9.5t53 -25t40 -35t29 -39.5q27 -48 38 -109v193h384v-17h-366v-314h307v-17h-307
v-335h366v-17h-384v198zM532 334q0 100 -17.5 169t-48 112.5t-72 63t-90.5 19.5t-90.5 -19.5t-71.5 -62.5t-47 -112.5t-17 -169.5q0 -95 21.5 -158.5t54.5 -102t73.5 -55t78.5 -16.5q37 0 77 16t73 54t54.5 102t21.5 160z" />
    <glyph glyph-name="oe" unicode="&#x153;" horiz-adv-x="734" 
d="M389 278q-1 -6 -1 -12v-28q0 -70 12.5 -115.5t33 -72.5t46.5 -37.5t54 -10.5q43 0 67.5 16.5t37.5 36.5q15 24 20 54l15 -3q-4 -35 -20 -61q-14 -23 -42 -41.5t-78 -18.5q-26 0 -50.5 8t-45 26t-36 48t-23.5 75q-9 -45 -25 -75t-37.5 -48t-46 -26t-49.5 -8
q-32 0 -61.5 12t-53 41t-37.5 77.5t-14 122.5q0 77 11 129.5t32 85.5t51.5 47.5t70.5 14.5q63 0 103.5 -36.5t55.5 -125.5q14 89 52.5 125.5t99.5 36.5q37 0 64 -14t43.5 -37.5t24.5 -53.5t8 -61q0 -16 -0.5 -29t-0.5 -22q-1 -11 -1 -19v-1h-280zM370 238q0 73 -10.5 122.5
t-30 80t-47.5 44t-62 13.5q-35 0 -62.5 -13t-46.5 -43.5t-29 -80.5t-10 -123q0 -70 13 -115.5t34 -72.5t47.5 -37.5t54.5 -10.5q27 0 54 11t48 38t34 72.5t13 114.5zM531 498q-29 0 -53 -10.5t-42.5 -34.5t-30.5 -63t-16 -96h265v14q0 7 0.5 16t0.5 22q0 28 -7.5 55
t-22.5 48.5t-38.5 35t-55.5 13.5z" />
    <glyph glyph-name="Racute" unicode="&#x154;" horiz-adv-x="568" 
d="M529 0q-27 0 -47 23.5t-36.5 58.5t-33 76.5t-35 76.5t-42.5 58.5t-57 23.5h-200v-317h-18v700h195q90 0 145.5 -50t55.5 -153q0 -73 -36 -117t-96 -58q26 -14 46 -42.5t36.5 -62t30 -69t27.5 -65t30 -48t36 -18.5h23v-17h-24zM438 497q0 40 -11.5 74t-34.5 59t-57.5 39
t-79.5 14h-177v-349h200q75 0 117.5 43t42.5 120zM194 758l99 141l18 -11l-101 -130h-16z" />
    <glyph glyph-name="racute" unicode="&#x155;" horiz-adv-x="274" 
d="M65 356q1 5 8 30.5t23.5 54t44 51.5t68.5 23q11 0 19.5 -1t15.5 -3q8 -2 15 -4l-8 -16l-12 3q-6 2 -14 3t-16 1q-39 0 -66.5 -27.5t-44.5 -60.5q-20 -39 -33 -88v-322h-17v455q0 19 -4.5 23.5t-14.5 4.5h-14v17h15q17 0 26 -10t9 -35v-99zM89 558l99 141l18 -11
l-101 -130h-16z" />
    <glyph glyph-name="Rcommaaccent" unicode="&#x156;" horiz-adv-x="568" 
d="M529 0q-27 0 -47 23.5t-36.5 58.5t-33 76.5t-35 76.5t-42.5 58.5t-57 23.5h-200v-317h-18v700h195q90 0 145.5 -50t55.5 -153q0 -73 -36 -117t-96 -58q26 -14 46 -42.5t36.5 -62t30 -69t27.5 -65t30 -48t36 -18.5h23v-17h-24zM438 497q0 40 -11.5 74t-34.5 59t-57.5 39
t-79.5 14h-177v-349h200q75 0 117.5 43t42.5 120zM226 -104q0 11 7.5 18.5t18.5 7.5t18.5 -8.5t7.5 -20.5q0 -15 -3 -27.5t-7 -22.5q-4 -11 -9 -21h-17q3 9 7 18q3 8 5.5 16t2.5 14h-5q-11 0 -18.5 7.5t-7.5 18.5z" />
    <glyph glyph-name="rcommaaccent" unicode="&#x157;" horiz-adv-x="274" 
d="M65 356q1 5 8 30.5t23.5 54t44 51.5t68.5 23q11 0 19.5 -1t15.5 -3q8 -2 15 -4l-8 -16l-12 3q-6 2 -14 3t-16 1q-39 0 -66.5 -27.5t-44.5 -60.5q-20 -39 -33 -88v-322h-17v455q0 19 -4.5 23.5t-14.5 4.5h-14v17h15q17 0 26 -10t9 -35v-99zM30 -104q0 11 7.5 18.5
t18.5 7.5t18.5 -8.5t7.5 -20.5q0 -15 -3 -27.5t-7 -22.5q-4 -11 -9 -21h-17q3 9 7 18q3 8 5.5 16t2.5 14h-5q-11 0 -18.5 7.5t-7.5 18.5z" />
    <glyph glyph-name="Rcaron" unicode="&#x158;" horiz-adv-x="568" 
d="M529 0q-27 0 -47 23.5t-36.5 58.5t-33 76.5t-35 76.5t-42.5 58.5t-57 23.5h-200v-317h-18v700h195q90 0 145.5 -50t55.5 -153q0 -73 -36 -117t-96 -58q26 -14 46 -42.5t36.5 -62t30 -69t27.5 -65t30 -48t36 -18.5h23v-17h-24zM438 497q0 40 -11.5 74t-34.5 59t-57.5 39
t-79.5 14h-177v-349h200q75 0 117.5 43t42.5 120zM229 775l-90 128h17l82 -110l82 110h17l-90 -128h-18z" />
    <glyph glyph-name="rcaron" unicode="&#x159;" horiz-adv-x="274" 
d="M65 356q1 5 8 30.5t23.5 54t44 51.5t68.5 23q11 0 19.5 -1t15.5 -3q8 -2 15 -4l-8 -16l-12 3q-6 2 -14 3t-16 1q-39 0 -66.5 -27.5t-44.5 -60.5q-20 -39 -33 -88v-322h-17v455q0 19 -4.5 23.5t-14.5 4.5h-14v17h15q17 0 26 -10t9 -35v-99zM125 575l-90 128h17l82 -110
l82 110h17l-90 -128h-18z" />
    <glyph glyph-name="Sacute" unicode="&#x15a;" horiz-adv-x="532" 
d="M472 181q0 -44 -14.5 -80t-41 -61.5t-64.5 -40t-85 -14.5q-38 0 -67.5 9t-52 23t-38.5 32.5t-27 37.5q-26 45 -33 102l18 3q8 -54 33 -95q10 -18 25 -35t35 -30.5t46.5 -21.5t60.5 -8q40 0 74 12.5t59 35.5t39.5 56.5t14.5 74.5q0 53 -27 88t-67.5 61t-88 47t-88 46
t-67.5 58t-27 84q0 32 11.5 59.5t34 47.5t56 31.5t76.5 11.5q49 0 83 -15.5t55.5 -38.5t31.5 -51t10 -53q0 -19 -1 -32.5t-3 -22.5q-2 -11 -4 -17h-18q2 6 4 16q2 8 3 21t1 31q0 24 -9.5 50t-29 47t-50 34.5t-73.5 13.5q-38 0 -67.5 -11t-50 -29.5t-31.5 -42.5t-11 -50
q0 -46 27 -76.5t67.5 -54t88 -44.5t88 -48t67.5 -65.5t27 -95.5zM256 758l99 141l18 -11l-101 -130h-16z" />
    <glyph glyph-name="sacute" unicode="&#x15b;" horiz-adv-x="421" 
d="M361 128q0 -31 -10.5 -57.5t-29.5 -45.5t-46 -29.5t-60 -10.5q-47 0 -77 18t-47 41q-20 26 -31 59l16 3q11 -29 29 -52q16 -20 42.5 -36t67.5 -16q27 0 51 9t41 25.5t27 39.5t10 52q0 38 -19 63t-47.5 42.5t-62 31.5t-62 31t-47.5 40t-19 60q0 24 7.5 45.5t23 38t38.5 26
t54 9.5q36 0 60.5 -11t39.5 -27.5t22 -37t7 -38.5q0 -14 -1 -24t-2 -16l-3 -12h-16l3 12q1 6 2 15t1 22q0 16 -6 34t-19.5 32.5t-35 24t-52.5 9.5q-27 0 -47 -8t-33 -22t-19.5 -32.5t-6.5 -39.5q0 -33 19 -54.5t47.5 -37t62 -29.5t62 -33t47.5 -45.5t19 -68.5zM193 558
l99 141l18 -11l-101 -130h-16z" />
    <glyph glyph-name="Scircumflex" unicode="&#x15c;" horiz-adv-x="532" 
d="M472 181q0 -44 -14.5 -80t-41 -61.5t-64.5 -40t-85 -14.5q-38 0 -67.5 9t-52 23t-38.5 32.5t-27 37.5q-26 45 -33 102l18 3q8 -54 33 -95q10 -18 25 -35t35 -30.5t46.5 -21.5t60.5 -8q40 0 74 12.5t59 35.5t39.5 56.5t14.5 74.5q0 53 -27 88t-67.5 61t-88 47t-88 46
t-67.5 58t-27 84q0 32 11.5 59.5t34 47.5t56 31.5t76.5 11.5q49 0 83 -15.5t55.5 -38.5t31.5 -51t10 -53q0 -19 -1 -32.5t-3 -22.5q-2 -11 -4 -17h-18q2 6 4 16q2 8 3 21t1 31q0 24 -9.5 50t-29 47t-50 34.5t-73.5 13.5q-38 0 -67.5 -11t-50 -29.5t-31.5 -42.5t-11 -50
q0 -46 27 -76.5t67.5 -54t88 -44.5t88 -48t67.5 -65.5t27 -95.5zM281 899l90 -128h-17l-82 110l-82 -110h-17l90 128h18z" />
    <glyph glyph-name="scircumflex" unicode="&#x15d;" horiz-adv-x="421" 
d="M361 128q0 -31 -10.5 -57.5t-29.5 -45.5t-46 -29.5t-60 -10.5q-47 0 -77 18t-47 41q-20 26 -31 59l16 3q11 -29 29 -52q16 -20 42.5 -36t67.5 -16q27 0 51 9t41 25.5t27 39.5t10 52q0 38 -19 63t-47.5 42.5t-62 31.5t-62 31t-47.5 40t-19 60q0 24 7.5 45.5t23 38t38.5 26
t54 9.5q36 0 60.5 -11t39.5 -27.5t22 -37t7 -38.5q0 -14 -1 -24t-2 -16l-3 -12h-16l3 12q1 6 2 15t1 22q0 16 -6 34t-19.5 32.5t-35 24t-52.5 9.5q-27 0 -47 -8t-33 -22t-19.5 -32.5t-6.5 -39.5q0 -33 19 -54.5t47.5 -37t62 -29.5t62 -33t47.5 -45.5t19 -68.5zM223 699
l90 -128h-17l-82 110l-82 -110h-17l90 128h18z" />
    <glyph glyph-name="Scedilla" unicode="&#x15e;" horiz-adv-x="532" 
d="M320 -97q0 20 -17.5 31t-60.5 11l16 41q-36 1 -64.5 10.5t-50 24t-37 32.5t-25.5 37q-25 44 -32 99l18 3q8 -54 33 -95q10 -18 25 -35t35 -30.5t46.5 -21.5t60.5 -8q40 0 74 12.5t59 35.5t39.5 56.5t14.5 74.5q0 53 -27 88t-67.5 61t-88 47t-88 46t-67.5 58t-27 84
q0 32 11.5 59.5t34 47.5t56 31.5t76.5 11.5q49 0 83 -15.5t55.5 -38.5t31.5 -51t10 -53q0 -19 -1 -32.5t-3 -22.5q-2 -11 -4 -17h-18q2 6 4 16q2 8 3 21t1 31q0 24 -9.5 50t-29 47t-50 34.5t-73.5 13.5q-38 0 -67.5 -11t-50 -29.5t-31.5 -42.5t-11 -50q0 -46 27 -76.5
t67.5 -54t88 -44.5t88 -48t67.5 -65.5t27 -95.5q0 -43 -14 -78.5t-39.5 -61t-61.5 -40.5t-81 -16l-11 -28q1 0 12.5 -0.5t24.5 -5t23.5 -15.5t10.5 -32q0 -32 -24 -51.5t-60 -19.5q-15 0 -27 3.5t-20 8.5q-10 5 -18 13l11 12q7 -7 16 -11q8 -5 17.5 -8t22.5 -3q26 0 46 14.5
t20 40.5z" />
    <glyph glyph-name="scedilla" unicode="&#x15f;" horiz-adv-x="421" 
d="M270 -97q0 20 -17.5 31t-60.5 11l15 40q-44 2 -72 20.5t-45 40.5q-19 26 -30 57l16 3q11 -29 29 -52q16 -20 42.5 -36t67.5 -16q27 0 51 9t41 25.5t27 39.5t10 52q0 38 -19 63t-47.5 42.5t-62 31.5t-62 31t-47.5 40t-19 60q0 24 7.5 45.5t23 38t38.5 26t54 9.5
q36 0 60.5 -11t39.5 -27.5t22 -37t7 -38.5q0 -14 -1 -24t-2 -16l-3 -12h-16l3 12q1 6 2 15t1 22q0 16 -6 34t-19.5 32.5t-35 24t-52.5 9.5q-27 0 -47 -8t-33 -22t-19.5 -32.5t-6.5 -39.5q0 -33 19 -54.5t47.5 -37t62 -29.5t62 -33t47.5 -45.5t19 -68.5q0 -60 -36.5 -99
t-98.5 -43l-11 -29q1 0 12.5 -0.5t24.5 -5t23.5 -15.5t10.5 -32q0 -32 -24 -51.5t-60 -19.5q-15 0 -27 3.5t-20 8.5q-10 5 -18 13l11 12q7 -7 16 -11q8 -5 17.5 -8t22.5 -3q26 0 46 14.5t20 40.5z" />
    <glyph glyph-name="Scaron" unicode="&#x160;" horiz-adv-x="532" 
d="M472 181q0 -44 -14.5 -80t-41 -61.5t-64.5 -40t-85 -14.5q-38 0 -67.5 9t-52 23t-38.5 32.5t-27 37.5q-26 45 -33 102l18 3q8 -54 33 -95q10 -18 25 -35t35 -30.5t46.5 -21.5t60.5 -8q40 0 74 12.5t59 35.5t39.5 56.5t14.5 74.5q0 53 -27 88t-67.5 61t-88 47t-88 46
t-67.5 58t-27 84q0 32 11.5 59.5t34 47.5t56 31.5t76.5 11.5q49 0 83 -15.5t55.5 -38.5t31.5 -51t10 -53q0 -19 -1 -32.5t-3 -22.5q-2 -11 -4 -17h-18q2 6 4 16q2 8 3 21t1 31q0 24 -9.5 50t-29 47t-50 34.5t-73.5 13.5q-38 0 -67.5 -11t-50 -29.5t-31.5 -42.5t-11 -50
q0 -46 27 -76.5t67.5 -54t88 -44.5t88 -48t67.5 -65.5t27 -95.5zM266 775l-90 128h17l82 -110l82 110h17l-90 -128h-18z" />
    <glyph glyph-name="scaron" unicode="&#x161;" horiz-adv-x="421" 
d="M361 128q0 -31 -10.5 -57.5t-29.5 -45.5t-46 -29.5t-60 -10.5q-47 0 -77 18t-47 41q-20 26 -31 59l16 3q11 -29 29 -52q16 -20 42.5 -36t67.5 -16q27 0 51 9t41 25.5t27 39.5t10 52q0 38 -19 63t-47.5 42.5t-62 31.5t-62 31t-47.5 40t-19 60q0 24 7.5 45.5t23 38t38.5 26
t54 9.5q36 0 60.5 -11t39.5 -27.5t22 -37t7 -38.5q0 -14 -1 -24t-2 -16l-3 -12h-16l3 12q1 6 2 15t1 22q0 16 -6 34t-19.5 32.5t-35 24t-52.5 9.5q-27 0 -47 -8t-33 -22t-19.5 -32.5t-6.5 -39.5q0 -33 19 -54.5t47.5 -37t62 -29.5t62 -33t47.5 -45.5t19 -68.5zM212 575
l-90 128h17l82 -110l82 110h17l-90 -128h-18z" />
    <glyph glyph-name="Tcommaaccent" unicode="&#x162;" horiz-adv-x="511" 
d="M496 683h-232v-683h-18v683h-231v17h481v-17zM230 -104q0 11 7.5 18.5t18.5 7.5t18.5 -8.5t7.5 -20.5q0 -15 -3 -27.5t-7 -22.5q-4 -11 -9 -21h-17q3 9 7 18q3 8 5.5 16t2.5 14h-5q-11 0 -18.5 7.5t-7.5 18.5z" />
    <glyph glyph-name="tcommaaccent" unicode="&#x163;" horiz-adv-x="322" 
d="M112 119q0 -62 27.5 -90.5t69.5 -28.5q28 0 46 10.5t29 23.5q12 15 20 34l14 -4q-8 -22 -23 -40q-13 -15 -33.5 -27t-52.5 -12q-54 0 -84 34.5t-30 99.5v365h-73v16h73v80l18 1l-1 -81h205v-16h-205v-365zM172 -104q0 11 7.5 18.5t18.5 7.5t18.5 -8.5t7.5 -20.5
q0 -15 -3 -27.5t-7 -22.5q-4 -11 -9 -21h-17q3 9 7 18q3 8 5.5 16t2.5 14h-5q-11 0 -18.5 7.5t-7.5 18.5z" />
    <glyph glyph-name="Tcaron" unicode="&#x164;" horiz-adv-x="511" 
d="M496 683h-232v-683h-18v683h-231v17h481v-17zM247 775l-90 128h17l82 -110l82 110h17l-90 -128h-18z" />
    <glyph glyph-name="tcaron" unicode="&#x165;" horiz-adv-x="322" 
d="M112 119q0 -62 27.5 -90.5t69.5 -28.5q28 0 46 10.5t29 23.5q12 15 20 34l14 -4q-8 -22 -23 -40q-13 -15 -33.5 -27t-52.5 -12q-54 0 -84 34.5t-30 99.5v365h-73v16h73v80l18 1l-1 -81h205v-16h-205v-365zM170 600q0 11 7.5 18.5t18.5 7.5t18.5 -8.5t7.5 -20.5
q0 -15 -3 -27.5t-7 -22.5q-4 -11 -9 -21h-17q3 9 7 18q3 8 5.5 16t2.5 14h-5q-11 0 -18.5 7.5t-7.5 18.5z" />
    <glyph glyph-name="Tbar" unicode="&#x166;" horiz-adv-x="511" 
d="M116 500h130v183h-231v17h481v-17h-232v-183h132v-17h-132v-483h-18v483h-130v17z" />
    <glyph glyph-name="tbar" unicode="&#x167;" horiz-adv-x="322" 
d="M112 407h141v-17h-141v-271q0 -62 27.5 -90.5t69.5 -28.5q28 0 46 10.5t29 23.5q12 15 20 34l14 -4q-8 -22 -23 -40q-13 -15 -33.5 -27t-52.5 -12q-54 0 -84 34.5t-30 99.5v271h-17v17h17v77h-73v16h73v80l18 1l-1 -81h205v-16h-205v-77z" />
    <glyph glyph-name="Utilde" unicode="&#x168;" horiz-adv-x="549" 
d="M78 310q0 -90 15 -149.5t41.5 -94.5t63 -49.5t78.5 -14.5t77.5 14t62 49t41 94t14.5 149v392h18v-392q0 -96 -16.5 -158t-45 -99t-67.5 -51.5t-84 -14.5q-46 0 -85.5 15t-68.5 52t-45.5 100t-16.5 158v390h18v-390zM387 866q1 -5 2 -9t2 -8.5t1 -9.5q0 -22 -14 -38.5
t-44 -16.5q-19 0 -36.5 11.5t-34 25t-31.5 25t-28 11.5q-16 0 -29 -7.5t-13 -32.5q0 -7 0.5 -11.5t1.5 -8.5t3 -7h-16q-2 5 -3 9q-2 10 -2 18q0 22 14 38.5t44 16.5q17 0 33.5 -11.5t32.5 -25t32 -25t32 -11.5q17 0 29.5 7.5t12.5 32.5q0 6 -1 11t-2 9t-2 7h16z" />
    <glyph glyph-name="utilde" unicode="&#x169;" 
d="M351 45q0 -19 4.5 -23.5t14.5 -4.5h14v-17h-15q-17 0 -26 10t-9 35v58q-1 -2 -7.5 -21t-22.5 -40.5t-43.5 -39t-70.5 -17.5q-63 0 -96.5 39t-33.5 102v374h17v-374q0 -57 30.5 -90.5t82.5 -33.5q42 0 69.5 22.5t44.5 50.5q19 33 30 74v351h17v-455zM324 666q1 -5 2 -9
t2 -8.5t1 -9.5q0 -22 -14 -38.5t-44 -16.5q-19 0 -36.5 11.5t-34 25t-31.5 25t-28 11.5q-16 0 -29 -7.5t-13 -32.5q0 -7 0.5 -11.5t1.5 -8.5t3 -7h-16q-2 5 -3 9q-2 10 -2 18q0 22 14 38.5t44 16.5q17 0 33.5 -11.5t32.5 -25t32 -25t32 -11.5q17 0 29.5 7.5t12.5 32.5
q0 6 -1 11t-2 9t-2 7h16z" />
    <glyph glyph-name="Umacron" unicode="&#x16a;" horiz-adv-x="549" 
d="M78 310q0 -90 15 -149.5t41.5 -94.5t63 -49.5t78.5 -14.5t77.5 14t62 49t41 94t14.5 149v392h18v-392q0 -96 -16.5 -158t-45 -99t-67.5 -51.5t-84 -14.5q-46 0 -85.5 15t-68.5 52t-45.5 100t-16.5 158v390h18v-390zM131 819h280v-17h-280v17z" />
    <glyph glyph-name="umacron" unicode="&#x16b;" 
d="M351 45q0 -19 4.5 -23.5t14.5 -4.5h14v-17h-15q-17 0 -26 10t-9 35v58q-1 -2 -7.5 -21t-22.5 -40.5t-43.5 -39t-70.5 -17.5q-63 0 -96.5 39t-33.5 102v374h17v-374q0 -57 30.5 -90.5t82.5 -33.5q42 0 69.5 22.5t44.5 50.5q19 33 30 74v351h17v-455zM69 619h280v-17h-280
v17z" />
    <glyph glyph-name="Ubreve" unicode="&#x16c;" horiz-adv-x="549" 
d="M78 310q0 -90 15 -149.5t41.5 -94.5t63 -49.5t78.5 -14.5t77.5 14t62 49t41 94t14.5 149v392h18v-392q0 -96 -16.5 -158t-45 -99t-67.5 -51.5t-84 -14.5q-46 0 -85.5 15t-68.5 52t-45.5 100t-16.5 158v390h18v-390zM271 787q34 0 48 20.5t14 58.5h17q0 -44 -18 -70
t-62 -26t-62 26t-18 70h17q0 -38 15 -58.5t49 -20.5z" />
    <glyph glyph-name="ubreve" unicode="&#x16d;" 
d="M351 45q0 -19 4.5 -23.5t14.5 -4.5h14v-17h-15q-17 0 -26 10t-9 35v58q-1 -2 -7.5 -21t-22.5 -40.5t-43.5 -39t-70.5 -17.5q-63 0 -96.5 39t-33.5 102v374h17v-374q0 -57 30.5 -90.5t82.5 -33.5q42 0 69.5 22.5t44.5 50.5q19 33 30 74v351h17v-455zM217 587q34 0 48 20.5
t14 58.5h17q0 -44 -18 -70t-62 -26t-62 26t-18 70h17q0 -38 15 -58.5t49 -20.5z" />
    <glyph glyph-name="Uring" unicode="&#x16e;" horiz-adv-x="549" 
d="M78 310q0 -90 15 -149.5t41.5 -94.5t63 -49.5t78.5 -14.5t77.5 14t62 49t41 94t14.5 149v392h18v-392q0 -96 -16.5 -158t-45 -99t-67.5 -51.5t-84 -14.5q-46 0 -85.5 15t-68.5 52t-45.5 100t-16.5 158v390h18v-390zM222 831q0 22 12 36t34 14t35 -14t13 -36t-13 -35.5
t-35 -13.5t-34 13.5t-12 35.5zM236 831q0 -16 8 -25.5t24 -9.5t25 9.5t9 25.5t-9 26t-25 10t-24 -10t-8 -26z" />
    <glyph glyph-name="uring" unicode="&#x16f;" 
d="M351 45q0 -19 4.5 -23.5t14.5 -4.5h14v-17h-15q-17 0 -26 10t-9 35v58q-1 -2 -7.5 -21t-22.5 -40.5t-43.5 -39t-70.5 -17.5q-63 0 -96.5 39t-33.5 102v374h17v-374q0 -57 30.5 -90.5t82.5 -33.5q42 0 69.5 22.5t44.5 50.5q19 33 30 74v351h17v-455zM161 631q0 22 12 36
t34 14t35 -14t13 -36t-13 -35.5t-35 -13.5t-34 13.5t-12 35.5zM175 631q0 -16 8 -25.5t24 -9.5t25 9.5t9 25.5t-9 26t-25 10t-24 -10t-8 -26z" />
    <glyph glyph-name="Uhungarumlaut" unicode="&#x170;" horiz-adv-x="549" 
d="M78 310q0 -90 15 -149.5t41.5 -94.5t63 -49.5t78.5 -14.5t77.5 14t62 49t41 94t14.5 149v392h18v-392q0 -96 -16.5 -158t-45 -99t-67.5 -51.5t-84 -14.5q-46 0 -85.5 15t-68.5 52t-45.5 100t-16.5 158v390h18v-390zM229 758l99 141l18 -11l-101 -130h-16zM287 758l99 141
l18 -11l-101 -130h-16z" />
    <glyph glyph-name="uhungarumlaut" unicode="&#x171;" 
d="M351 45q0 -19 4.5 -23.5t14.5 -4.5h14v-17h-15q-17 0 -26 10t-9 35v58q-1 -2 -7.5 -21t-22.5 -40.5t-43.5 -39t-70.5 -17.5q-63 0 -96.5 39t-33.5 102v374h17v-374q0 -57 30.5 -90.5t82.5 -33.5q42 0 69.5 22.5t44.5 50.5q19 33 30 74v351h17v-455zM149 558l99 141
l18 -11l-101 -130h-16zM207 558l99 141l18 -11l-101 -130h-16z" />
    <glyph glyph-name="Uogonek" unicode="&#x172;" horiz-adv-x="549" 
d="M226 -94q0 -22 12.5 -37.5t34.5 -15.5q13 0 22 3t15 7q7 4 11 10l10 -10q-5 -8 -13 -13q-7 -5 -18 -8.5t-25 -3.5q-28 0 -46.5 17.5t-18.5 51.5q0 31 19 49.5t40 28.5q-45 1 -83 17t-66 53.5t-44 99.5t-16 155v390h18v-390q0 -90 15 -149.5t41.5 -94.5t63 -49.5
t78.5 -14.5t77.5 14t62 49t41 94t14.5 149v392h18v-392q0 -90 -14.5 -150.5t-40 -97.5t-60.5 -54t-76 -20q-10 -3 -22.5 -9t-23.5 -16t-18.5 -23.5t-7.5 -31.5z" />
    <glyph glyph-name="uogonek" unicode="&#x173;" horiz-adv-x="446" 
d="M293 -83q0 -22 12.5 -37.5t34.5 -15.5q13 0 22 3t15 7q7 4 11 10l10 -10q-5 -8 -13 -13q-7 -5 -18 -8.5t-25 -3.5q-28 0 -46.5 17.5t-18.5 51.5q0 19 7.5 33t19 24.5t25 17t24.5 10.5q-9 4 -14 13.5t-5 28.5v58q-1 -2 -7.5 -21t-22.5 -40.5t-43.5 -39t-70.5 -17.5
q-63 0 -96.5 39t-33.5 102v374h17v-374q0 -57 30.5 -90.5t82.5 -33.5q42 0 69.5 22.5t44.5 50.5q19 33 30 74v351h17v-455q0 -19 4.5 -23.5t14.5 -4.5h14v-17h-8q-8 -2 -21.5 -7t-27.5 -15t-24 -25t-10 -36z" />
    <glyph glyph-name="Wcircumflex" unicode="&#x174;" horiz-adv-x="883" 
d="M441 667l-194 -667h-18l-210 700h19l200 -670l194 670h19l193 -670l201 670h19l-211 -700h-18zM452 899l90 -128h-17l-82 110l-82 -110h-17l90 128h18z" />
    <glyph glyph-name="wcircumflex" unicode="&#x175;" horiz-adv-x="623" 
d="M181 35l122 465h17l123 -465l141 465h19l-150 -500h-20l-122 471l-120 -471h-20l-151 500h19zM321 699l90 -128h-17l-82 110l-82 -110h-17l90 128h18z" />
    <glyph glyph-name="Ycircumflex" unicode="&#x176;" horiz-adv-x="553" 
d="M287 310v-310h-18v310l-254 390h23l240 -371l239 371h21zM286 899l90 -128h-17l-82 110l-82 -110h-17l90 128h18z" />
    <glyph glyph-name="ycircumflex" unicode="&#x177;" horiz-adv-x="408" 
d="M208 0l-180 500h21l168 -471l152 471h19l-160 -500l-38 -110q-9 -27 -19 -52t-24 -45t-35 -32t-52 -12h-40v17h40q26 0 43 8.5t29 25t20.5 39t18.5 51.5zM226 699l90 -128h-17l-82 110l-82 -110h-17l90 128h18z" />
    <glyph glyph-name="Ydieresis" unicode="&#x178;" horiz-adv-x="553" 
d="M287 310v-310h-18v310l-254 390h23l240 -371l239 371h21zM201 806q0 12 8 20t20 8t20 -8t8 -20t-8 -20t-20 -8t-20 8t-8 20zM301 806q0 12 8 20t20 8t20 -8t8 -20t-8 -20t-20 -8t-20 8t-8 20z" />
    <glyph glyph-name="Zacute" unicode="&#x179;" horiz-adv-x="510" 
d="M60 700h390v-17l-370 -666h370v-17h-390v17l370 666h-370v17zM235 758l99 141l18 -11l-101 -130h-16z" />
    <glyph glyph-name="zacute" unicode="&#x17a;" horiz-adv-x="389" 
d="M60 500h269v-16l-248 -468h248v-16h-269v16l249 468h-249v16zM173 558l99 141l18 -11l-101 -130h-16z" />
    <glyph glyph-name="Zdotaccent" unicode="&#x17b;" horiz-adv-x="510" 
d="M60 700h390v-17l-370 -666h370v-17h-390v17l370 666h-370v17zM238 806q0 12 8 20t20 8t20 -8t8 -20t-8 -20t-20 -8t-20 8t-8 20z" />
    <glyph glyph-name="zdotaccent" unicode="&#x17c;" horiz-adv-x="389" 
d="M60 500h269v-16l-248 -468h248v-16h-269v16l249 468h-249v16zM179 606q0 12 8 20t20 8t20 -8t8 -20t-8 -20t-20 -8t-20 8t-8 20z" />
    <glyph glyph-name="Zcaron" unicode="&#x17d;" horiz-adv-x="510" 
d="M60 700h390v-17l-370 -666h370v-17h-390v17l370 666h-370v17zM264 775l-90 128h17l82 -110l82 110h17l-90 -128h-18z" />
    <glyph glyph-name="zcaron" unicode="&#x17e;" horiz-adv-x="389" 
d="M60 500h269v-16l-248 -468h248v-16h-269v16l249 468h-249v16zM204 575l-90 128h17l82 -110l82 110h17l-90 -128h-18z" />
    <glyph glyph-name="Ohorn" unicode="&#x1a0;" horiz-adv-x="596" 
d="M46 334q0 105 18 177.5t50.5 117.5t77 65.5t98.5 20.5q69 0 123 -34t86 -112q9 6 19.5 14.5t17.5 16.5q16 19 18 42.5t-2 42.5q-2 12 7 15q5 2 9.5 0t6.5 -8q3 -17 2 -35q-1 -15 -6 -32.5t-19 -33.5q-9 -11 -20.5 -20.5t-26.5 -17.5q15 -42 23 -96t8 -123
q0 -100 -22 -167t-57 -107.5t-78.5 -57.5t-86.5 -17t-86.5 17.5t-79 58t-58 107.5t-22.5 166zM518 334q0 100 -17.5 169t-48 112.5t-72 63t-90.5 19.5t-90.5 -19.5t-71.5 -62.5t-47 -112.5t-17 -169.5q0 -95 21.5 -158.5t54.5 -102t73.5 -55t78.5 -16.5t78 16.5t73 55
t54 102t21 158.5z" />
    <glyph glyph-name="ohorn" unicode="&#x1a1;" horiz-adv-x="442" 
d="M55 238q0 77 11 129.5t32 85.5t51.5 47.5t70.5 14.5q55 0 93 -28.5t57 -95.5q9 5 19.5 13t15.5 19q6 14 8.5 28.5t-1.5 33.5q-2 12 7 15q5 2 9.5 0t6.5 -8q3 -13 3 -25q0 -11 -2 -24t-9 -27t-21 -23.5t-32 -17.5q13 -53 13 -137q0 -73 -14.5 -121.5t-37.5 -78t-53 -41.5
t-61 -12q-32 0 -61.5 12t-53 41t-37.5 77.5t-14 122.5zM370 238q0 73 -10.5 122.5t-30 80t-47.5 44t-62 13.5q-35 0 -62.5 -13t-46.5 -43.5t-29 -80.5t-10 -123q0 -70 13 -115.5t34 -72.5t47.5 -37.5t54.5 -10.5q27 0 54 11t48 38t34 72.5t13 114.5z" />
    <glyph glyph-name="Uhorn" unicode="&#x1af;" horiz-adv-x="549" 
d="M78 310q0 -90 15 -149.5t41.5 -94.5t63 -49.5t78.5 -14.5t77.5 14t62 49t41 94t14.5 149v392h18v-133q9 6 20 15t19 18q16 19 18 42.5t-2 42.5q-2 12 7 15q5 2 9.5 0t6.5 -8q3 -17 2 -35q-1 -15 -6 -32.5t-19 -33.5q-11 -12 -24 -22.5t-31 -19.5v-241q0 -96 -16.5 -158
t-45 -99t-67.5 -51.5t-84 -14.5q-46 0 -85.5 15t-68.5 52t-45.5 100t-16.5 158v390h18v-390z" />
    <glyph glyph-name="uhorn" unicode="&#x1b0;" 
d="M351 385q8 5 23.5 14.5t22.5 23.5q6 14 8.5 28.5t-1.5 33.5q-2 12 7 15q5 2 9.5 0t6.5 -8q3 -13 3 -25q0 -11 -2 -24t-9 -27q-8 -16 -26.5 -27t-41.5 -20v-324q0 -19 4.5 -23.5t14.5 -4.5h14v-17h-15q-17 0 -26 10t-9 35v58q-1 -2 -7.5 -21t-22.5 -40.5t-43.5 -39
t-70.5 -17.5q-63 0 -96.5 39t-33.5 102v374h17v-374q0 -57 30.5 -90.5t82.5 -33.5q42 0 69.5 22.5t44.5 50.5q19 33 30 74v351h17v-115z" />
    <glyph glyph-name="AEacute" unicode="&#x1fc;" horiz-adv-x="856" 
d="M281 700h515v-17h-491l117 -314h315v-17h-308l124 -335h243v-17h-255l-85 229h-334l-86 -229h-19zM128 246h321l-159 430zM484 758l99 141l18 -11l-101 -130h-16z" />
    <glyph glyph-name="aeacute" unicode="&#x1fd;" horiz-adv-x="697" 
d="M351 225q1 -66 14 -109t33 -68.5t46 -35.5t53 -10q43 0 67.5 16.5t37.5 36.5q15 24 20 54l15 -3q-4 -35 -20 -61q-14 -23 -42 -41.5t-78 -18.5q-48 0 -77.5 20.5t-46 46.5t-22 49t-6.5 28q-1 -5 -9 -28t-25.5 -49t-47 -46.5t-73.5 -20.5q-63 0 -96.5 39t-33.5 102
q0 32 12 60.5t36 49.5t60 33.5t84 12.5h82v79q0 62 -27 99.5t-91 37.5q-33 0 -57 -10.5t-39 -27.5t-22 -38.5t-7 -43.5q0 -26 3 -38q1 -8 3 -13h-18q-2 5 -3 13q-3 13 -3 41q0 24 8 47.5t25 43t44 31.5t66 12q48 0 74.5 -17.5t38.5 -42.5t14 -51t2 -43h2q0 18 7.5 44.5
t24.5 51t45 41.5t70 17q37 0 64 -14t43.5 -37.5t24.5 -53.5t8 -61q0 -14 -0.5 -28.5t-0.5 -26.5q-1 -14 -1 -28v-1h-281v-40zM339 158q-2 8 -3 19q-1 9 -1.5 21.5t-0.5 27.5v38h-83q-38 0 -70 -9.5t-55 -27.5t-36 -43.5t-13 -57.5q0 -57 30.5 -90.5t82.5 -33.5q37 0 64 19.5
t44.5 46t27.5 52.5t13 38zM494 498q-30 0 -54.5 -11.5t-43 -37t-30 -67t-14.5 -101.5h265q0 12 0.5 30t0.5 35q0 28 -7.5 55t-22.5 48.5t-38.5 35t-55.5 13.5zM342 558l99 141l18 -11l-101 -130h-16z" />
    <glyph glyph-name="Oslashacute" unicode="&#x1fe;" horiz-adv-x="610" 
d="M60 334q0 105 18 177.5t50.5 117.5t77 65.5t98.5 20.5q51 0 93.5 -17.5t74.5 -56.5l43 74l17 -8l-48 -83q31 -45 48.5 -116t17.5 -174q0 -100 -22 -167t-57 -107.5t-78.5 -57.5t-86.5 -17q-40 1 -80.5 15.5t-75.5 49.5l-37 -64l-17 10l40 69q-34 42 -55 107t-21 162z
M78 334q0 -90 19 -151.5t49 -100.5l315 541q-30 39 -70 57t-87 18q-49 0 -90.5 -19.5t-71.5 -62.5t-47 -112.5t-17 -169.5zM532 334q0 94 -15.5 161t-43.5 111l-313 -539q32 -35 70.5 -50t75.5 -15q38 0 78 16.5t73 55t54 102t21 158.5zM292 758l99 141l18 -11l-101 -130
h-16z" />
    <glyph glyph-name="oslashacute" unicode="&#x1ff;" horiz-adv-x="442" 
d="M55 238q0 77 11 129.5t32 85.5t51.5 47.5t70.5 14.5q37 0 66 -12t50 -40l25 43l15 -6l-30 -51q20 -33 30.5 -84.5t10.5 -126.5q0 -73 -14.5 -121.5t-37.5 -78t-53 -41.5t-61 -12q-32 0 -62 12t-53 41l-26 -46l-15 8l31 53q-19 29 -30 74t-11 111zM72 238q0 -59 9 -100
t25 -69l220 377q-20 28 -46.5 40t-59.5 12q-35 0 -62.5 -13t-46.5 -43.5t-29 -80.5t-10 -123zM370 238q0 67 -9 114t-26 78l-219 -376q21 -29 48.5 -40.5t56.5 -11.5q27 0 54 11t48 38t34 72.5t13 114.5zM207 558l99 141l18 -11l-101 -130h-16z" />
    <glyph glyph-name="Scommaaccent" unicode="&#x218;" horiz-adv-x="532" 
d="M242 -104q0 11 7.5 18.5t18.5 7.5t18.5 -8.5t7.5 -20.5q0 -15 -3 -27.5t-7 -22.5q-4 -11 -9 -21h-17q3 9 7 18q3 8 5.5 16t2.5 14h-5q-11 0 -18.5 7.5t-7.5 18.5zM472 181q0 -44 -14.5 -80t-41 -61.5t-64.5 -40t-85 -14.5q-38 0 -67.5 9t-52 23t-38.5 32.5t-27 37.5
q-26 45 -33 102l18 3q8 -54 33 -95q10 -18 25 -35t35 -30.5t46.5 -21.5t60.5 -8q40 0 74 12.5t59 35.5t39.5 56.5t14.5 74.5q0 53 -27 88t-67.5 61t-88 47t-88 46t-67.5 58t-27 84q0 32 11.5 59.5t34 47.5t56 31.5t76.5 11.5q49 0 83 -15.5t55.5 -38.5t31.5 -51t10 -53
q0 -19 -1 -32.5t-3 -22.5q-2 -11 -4 -17h-18q2 6 4 16q2 8 3 21t1 31q0 24 -9.5 50t-29 47t-50 34.5t-73.5 13.5q-38 0 -67.5 -11t-50 -29.5t-31.5 -42.5t-11 -50q0 -46 27 -76.5t67.5 -54t88 -44.5t88 -48t67.5 -65.5t27 -95.5z" />
    <glyph glyph-name="scommaaccent" unicode="&#x219;" horiz-adv-x="421" 
d="M361 128q0 -31 -10.5 -57.5t-29.5 -45.5t-46 -29.5t-60 -10.5q-47 0 -77 18t-47 41q-20 26 -31 59l16 3q11 -29 29 -52q16 -20 42.5 -36t67.5 -16q27 0 51 9t41 25.5t27 39.5t10 52q0 38 -19 63t-47.5 42.5t-62 31.5t-62 31t-47.5 40t-19 60q0 24 7.5 45.5t23 38t38.5 26
t54 9.5q36 0 60.5 -11t39.5 -27.5t22 -37t7 -38.5q0 -14 -1 -24t-2 -16l-3 -12h-16l3 12q1 6 2 15t1 22q0 16 -6 34t-19.5 32.5t-35 24t-52.5 9.5q-27 0 -47 -8t-33 -22t-19.5 -32.5t-6.5 -39.5q0 -33 19 -54.5t47.5 -37t62 -29.5t62 -33t47.5 -45.5t19 -68.5zM192 -104
q0 11 7.5 18.5t18.5 7.5t18.5 -8.5t7.5 -20.5q0 -15 -3 -27.5t-7 -22.5q-4 -11 -9 -21h-17q3 9 7 18q3 8 5.5 16t2.5 14h-5q-11 0 -18.5 7.5t-7.5 18.5z" />
    <glyph glyph-name="circumflex" unicode="&#x2c6;" horiz-adv-x="318" 
d="M168 699l90 -128h-17l-82 110l-82 -110h-17l90 128h18z" />
    <glyph glyph-name="caron" unicode="&#x2c7;" horiz-adv-x="318" 
d="M150 575l-90 128h17l82 -110l82 110h17l-90 -128h-18z" />
    <glyph glyph-name="breve" unicode="&#x2d8;" horiz-adv-x="280" 
d="M141 587q34 0 48 20.5t14 58.5h17q0 -44 -18 -70t-62 -26t-62 26t-18 70h17q0 -38 15 -58.5t49 -20.5z" />
    <glyph glyph-name="dotaccent" unicode="&#x2d9;" horiz-adv-x="176" 
d="M60 606q0 12 8 20t20 8t20 -8t8 -20t-8 -20t-20 -8t-20 8t-8 20z" />
    <glyph glyph-name="ring" unicode="&#x2da;" horiz-adv-x="214" 
d="M60 631q0 22 12 36t34 14t35 -14t13 -36t-13 -35.5t-35 -13.5t-34 13.5t-12 35.5zM74 631q0 -16 8 -25.5t24 -9.5t25 9.5t9 25.5t-9 26t-25 10t-24 -10t-8 -26z" />
    <glyph glyph-name="ogonek" unicode="&#x2db;" horiz-adv-x="241" 
d="M76 -83q0 -22 12.5 -37.5t34.5 -15.5q13 0 22 3t15 7q7 4 11 10l10 -10q-5 -8 -13 -13q-7 -5 -18 -8.5t-25 -3.5q-28 0 -46.5 17.5t-18.5 51.5q0 28 15.5 45.5t35.5 28.5q23 12 52 18l4 -8q-26 -6 -46 -17q-17 -10 -31 -26.5t-14 -41.5z" />
    <glyph glyph-name="tilde" unicode="&#x2dc;" horiz-adv-x="366" 
d="M301 666q1 -5 2 -9t2 -8.5t1 -9.5q0 -22 -14 -38.5t-44 -16.5q-19 0 -36.5 11.5t-34 25t-31.5 25t-28 11.5q-16 0 -29 -7.5t-13 -32.5q0 -7 0.5 -11.5t1.5 -8.5t3 -7h-16q-2 5 -3 9q-2 10 -2 18q0 22 14 38.5t44 16.5q17 0 33.5 -11.5t32.5 -25t32 -25t32 -11.5
q17 0 29.5 7.5t12.5 32.5q0 6 -1 11t-2 9t-2 7h16z" />
    <glyph glyph-name="hungarumlaut" unicode="&#x2dd;" horiz-adv-x="295" 
d="M60 558l99 141l18 -11l-101 -130h-16zM118 558l99 141l18 -11l-101 -130h-16z" />
    <glyph glyph-name="hookabovecomb" unicode="&#x309;" horiz-adv-x="249" 
d="M189 665q0 22 -13 35.5t-36 13.5q-25 0 -37 -13t-12 -30q0 -10 1 -12t2 -3l-19 2q-8 28 9.5 50t55.5 22q31 0 49 -17t18 -44q0 -24 -10 -37t-22 -23t-22 -21t-10 -30h-17q0 22 10 34.5t21.5 22.5t21.5 20.5t10 29.5z" />
    <glyph glyph-name="dotbelowcomb" unicode="&#x323;" horiz-adv-x="176" 
d="M60 -100q0 12 8 20t20 8t20 -8t8 -20t-8 -20t-20 -8t-20 8t-8 20z" />
    <glyph glyph-name="Wgrave" unicode="&#x1e80;" horiz-adv-x="883" 
d="M441 667l-194 -667h-18l-210 700h19l200 -670l194 670h19l193 -670l201 670h19l-211 -700h-18zM432 758l-101 130l18 11l99 -141h-16z" />
    <glyph glyph-name="wgrave" unicode="&#x1e81;" horiz-adv-x="623" 
d="M181 35l122 465h17l123 -465l141 465h19l-150 -500h-20l-122 471l-120 -471h-20l-151 500h19zM310 558l-101 130l18 11l99 -141h-16z" />
    <glyph glyph-name="Wacute" unicode="&#x1e82;" horiz-adv-x="883" 
d="M441 667l-194 -667h-18l-210 700h19l200 -670l194 670h19l193 -670l201 670h19l-211 -700h-18zM429 758l99 141l18 -11l-101 -130h-16z" />
    <glyph glyph-name="wacute" unicode="&#x1e83;" horiz-adv-x="623" 
d="M181 35l122 465h17l123 -465l141 465h19l-150 -500h-20l-122 471l-120 -471h-20l-151 500h19zM297 558l99 141l18 -11l-101 -130h-16z" />
    <glyph glyph-name="Wdieresis" unicode="&#x1e84;" horiz-adv-x="883" 
d="M441 667l-194 -667h-18l-210 700h19l200 -670l194 670h19l193 -670l201 670h19l-211 -700h-18zM362 806q0 12 8 20t20 8t20 -8t8 -20t-8 -20t-20 -8t-20 8t-8 20zM462 806q0 12 8 20t20 8t20 -8t8 -20t-8 -20t-20 -8t-20 8t-8 20z" />
    <glyph glyph-name="wdieresis" unicode="&#x1e85;" horiz-adv-x="623" 
d="M181 35l122 465h17l123 -465l141 465h19l-150 -500h-20l-122 471l-120 -471h-20l-151 500h19zM231 606q0 12 8 20t20 8t20 -8t8 -20t-8 -20t-20 -8t-20 8t-8 20zM331 606q0 12 8 20t20 8t20 -8t8 -20t-8 -20t-20 -8t-20 8t-8 20z" />
    <glyph glyph-name="uni1EA0" unicode="&#x1ea0;" horiz-adv-x="577" 
d="M281 700h18l261 -700h-19l-85 229h-334l-86 -229h-19zM128 246h321l-159 430zM260 -100q0 12 8 20t20 8t20 -8t8 -20t-8 -20t-20 -8t-20 8t-8 20z" />
    <glyph glyph-name="uni1EA1" unicode="&#x1ea1;" 
d="M350 45q0 -19 4.5 -23.5t14.5 -4.5h14v-17h-15q-17 0 -26 10.5t-9 35.5v56q-2 -4 -9.5 -23t-24 -40t-43.5 -37.5t-67 -16.5q-63 0 -96.5 39t-33.5 102q0 32 12 60.5t36 49.5t60 33.5t84 12.5h82v81q-1 62 -27.5 98.5t-90.5 36.5q-33 0 -57 -10.5t-39 -27.5t-22 -38.5
t-7 -43.5q0 -26 3 -38q1 -8 3 -13h-18q-2 5 -3 13q-3 13 -3 41q0 24 8 47.5t25 43t44 31.5t66 12t65 -11.5t41.5 -31.5t22 -48.5t6.5 -62.5v-316zM189 2q37 0 62.5 18t42.5 42.5t26.5 49t12.5 37.5v115h-83q-38 0 -70 -9.5t-55 -27.5t-36 -43.5t-13 -57.5q0 -57 30.5 -90.5
t82.5 -33.5zM194 -100q0 12 8 20t20 8t20 -8t8 -20t-8 -20t-20 -8t-20 8t-8 20z" />
    <glyph glyph-name="uni1EA2" unicode="&#x1ea2;" horiz-adv-x="577" 
d="M281 700h18l261 -700h-19l-85 229h-334l-86 -229h-19zM128 246h321l-159 430zM348 865q0 22 -13 35.5t-36 13.5q-25 0 -37 -13t-12 -30q0 -10 1 -12t2 -3l-19 2q-8 28 9.5 50t55.5 22q31 0 49 -17t18 -44q0 -24 -10 -37t-22 -23t-22 -21t-10 -30h-17q0 22 10 34.5
t21.5 22.5t21.5 20.5t10 29.5z" />
    <glyph glyph-name="uni1EA3" unicode="&#x1ea3;" 
d="M350 45q0 -19 4.5 -23.5t14.5 -4.5h14v-17h-15q-17 0 -26 10.5t-9 35.5v56q-2 -4 -9.5 -23t-24 -40t-43.5 -37.5t-67 -16.5q-63 0 -96.5 39t-33.5 102q0 32 12 60.5t36 49.5t60 33.5t84 12.5h82v81q-1 62 -27.5 98.5t-90.5 36.5q-33 0 -57 -10.5t-39 -27.5t-22 -38.5
t-7 -43.5q0 -26 3 -38q1 -8 3 -13h-18q-2 5 -3 13q-3 13 -3 41q0 24 8 47.5t25 43t44 31.5t66 12t65 -11.5t41.5 -31.5t22 -48.5t6.5 -62.5v-316zM189 2q37 0 62.5 18t42.5 42.5t26.5 49t12.5 37.5v115h-83q-38 0 -70 -9.5t-55 -27.5t-36 -43.5t-13 -57.5q0 -57 30.5 -90.5
t82.5 -33.5zM275 665q0 22 -13 35.5t-36 13.5q-25 0 -37 -13t-12 -30q0 -10 1 -12t2 -3l-19 2q-8 28 9.5 50t55.5 22q31 0 49 -17t18 -44q0 -24 -10 -37t-22 -23t-22 -21t-10 -30h-17q0 22 10 34.5t21.5 22.5t21.5 20.5t10 29.5z" />
    <glyph glyph-name="uni1EA4" unicode="&#x1ea4;" horiz-adv-x="577" 
d="M281 700h18l261 -700h-19l-85 229h-334l-86 -229h-19zM128 246h321l-159 430zM297 899l90 -128h-17l-82 110l-82 -110h-17l90 128h18zM357 863l99 141l18 -11l-101 -130h-16z" />
    <glyph glyph-name="uni1EA5" unicode="&#x1ea5;" 
d="M350 45q0 -19 4.5 -23.5t14.5 -4.5h14v-17h-15q-17 0 -26 10.5t-9 35.5v56q-2 -4 -9.5 -23t-24 -40t-43.5 -37.5t-67 -16.5q-63 0 -96.5 39t-33.5 102q0 32 12 60.5t36 49.5t60 33.5t84 12.5h82v81q-1 62 -27.5 98.5t-90.5 36.5q-33 0 -57 -10.5t-39 -27.5t-22 -38.5
t-7 -43.5q0 -26 3 -38q1 -8 3 -13h-18q-2 5 -3 13q-3 13 -3 41q0 24 8 47.5t25 43t44 31.5t66 12t65 -11.5t41.5 -31.5t22 -48.5t6.5 -62.5v-316zM189 2q37 0 62.5 18t42.5 42.5t26.5 49t12.5 37.5v115h-83q-38 0 -70 -9.5t-55 -27.5t-36 -43.5t-13 -57.5q0 -57 30.5 -90.5
t82.5 -33.5zM233 699l90 -128h-17l-82 110l-82 -110h-17l90 128h18zM285 658l99 141l18 -11l-101 -130h-16z" />
    <glyph glyph-name="uni1EA6" unicode="&#x1ea6;" horiz-adv-x="577" 
d="M281 700h18l261 -700h-19l-85 229h-334l-86 -229h-19zM128 246h321l-159 430zM297 899l90 -128h-17l-82 110l-82 -110h-17l90 128h18zM406 853l-101 130l18 11l99 -141h-16z" />
    <glyph glyph-name="uni1EA7" unicode="&#x1ea7;" 
d="M350 45q0 -19 4.5 -23.5t14.5 -4.5h14v-17h-15q-17 0 -26 10.5t-9 35.5v56q-2 -4 -9.5 -23t-24 -40t-43.5 -37.5t-67 -16.5q-63 0 -96.5 39t-33.5 102q0 32 12 60.5t36 49.5t60 33.5t84 12.5h82v81q-1 62 -27.5 98.5t-90.5 36.5q-33 0 -57 -10.5t-39 -27.5t-22 -38.5
t-7 -43.5q0 -26 3 -38q1 -8 3 -13h-18q-2 5 -3 13q-3 13 -3 41q0 24 8 47.5t25 43t44 31.5t66 12t65 -11.5t41.5 -31.5t22 -48.5t6.5 -62.5v-316zM189 2q37 0 62.5 18t42.5 42.5t26.5 49t12.5 37.5v115h-83q-38 0 -70 -9.5t-55 -27.5t-36 -43.5t-13 -57.5q0 -57 30.5 -90.5
t82.5 -33.5zM233 699l90 -128h-17l-82 110l-82 -110h-17l90 128h18zM346 657l-101 130l18 11l99 -141h-16z" />
    <glyph glyph-name="uni1EA8" unicode="&#x1ea8;" horiz-adv-x="577" 
d="M281 700h18l261 -700h-19l-85 229h-334l-86 -229h-19zM128 246h321l-159 430zM297 899l90 -128h-17l-82 110l-82 -110h-17l90 128h18zM422 963q0 22 -13 35.5t-36 13.5q-25 0 -37 -13t-12 -30q0 -10 1 -12t2 -3l-19 2q-8 28 9.5 50t55.5 22q31 0 49 -17t18 -44
q0 -24 -10 -37t-22 -23t-22 -21t-10 -30h-17q0 22 10 34.5t21.5 22.5t21.5 20.5t10 29.5z" />
    <glyph glyph-name="uni1EA9" unicode="&#x1ea9;" 
d="M350 45q0 -19 4.5 -23.5t14.5 -4.5h14v-17h-15q-17 0 -26 10.5t-9 35.5v56q-2 -4 -9.5 -23t-24 -40t-43.5 -37.5t-67 -16.5q-63 0 -96.5 39t-33.5 102q0 32 12 60.5t36 49.5t60 33.5t84 12.5h82v81q-1 62 -27.5 98.5t-90.5 36.5q-33 0 -57 -10.5t-39 -27.5t-22 -38.5
t-7 -43.5q0 -26 3 -38q1 -8 3 -13h-18q-2 5 -3 13q-3 13 -3 41q0 24 8 47.5t25 43t44 31.5t66 12t65 -11.5t41.5 -31.5t22 -48.5t6.5 -62.5v-316zM189 2q37 0 62.5 18t42.5 42.5t26.5 49t12.5 37.5v115h-83q-38 0 -70 -9.5t-55 -27.5t-36 -43.5t-13 -57.5q0 -57 30.5 -90.5
t82.5 -33.5zM233 699l90 -128h-17l-82 110l-82 -110h-17l90 128h18zM357 764q0 22 -13 35.5t-36 13.5q-25 0 -37 -13t-12 -30q0 -10 1 -12t2 -3l-19 2q-8 28 9.5 50t55.5 22q31 0 49 -17t18 -44q0 -24 -10 -37t-22 -23t-22 -21t-10 -30h-17q0 22 10 34.5t21.5 22.5
t21.5 20.5t10 29.5z" />
    <glyph glyph-name="uni1EAA" unicode="&#x1eaa;" horiz-adv-x="577" 
d="M281 700h18l261 -700h-19l-85 229h-334l-86 -229h-19zM128 246h321l-159 430zM297 899l90 -128h-17l-82 110l-82 -110h-17l90 128h18zM406 1009q1 -5 2 -9t2 -8.5t1 -9.5q0 -22 -14 -38.5t-44 -16.5q-19 0 -36.5 11.5t-34 25t-31.5 25t-28 11.5q-16 0 -29 -7.5t-13 -32.5
q0 -7 0.5 -11.5t1.5 -8.5t3 -7h-16q-2 5 -3 9q-2 10 -2 18q0 22 14 38.5t44 16.5q17 0 33.5 -11.5t32.5 -25t32 -25t32 -11.5q17 0 29.5 7.5t12.5 32.5q0 6 -1 11t-2 9t-2 7h16z" />
    <glyph glyph-name="uni1EAB" unicode="&#x1eab;" 
d="M350 45q0 -19 4.5 -23.5t14.5 -4.5h14v-17h-15q-17 0 -26 10.5t-9 35.5v56q-2 -4 -9.5 -23t-24 -40t-43.5 -37.5t-67 -16.5q-63 0 -96.5 39t-33.5 102q0 32 12 60.5t36 49.5t60 33.5t84 12.5h82v81q-1 62 -27.5 98.5t-90.5 36.5q-33 0 -57 -10.5t-39 -27.5t-22 -38.5
t-7 -43.5q0 -26 3 -38q1 -8 3 -13h-18q-2 5 -3 13q-3 13 -3 41q0 24 8 47.5t25 43t44 31.5t66 12t65 -11.5t41.5 -31.5t22 -48.5t6.5 -62.5v-316zM189 2q37 0 62.5 18t42.5 42.5t26.5 49t12.5 37.5v115h-83q-38 0 -70 -9.5t-55 -27.5t-36 -43.5t-13 -57.5q0 -57 30.5 -90.5
t82.5 -33.5zM233 699l90 -128h-17l-82 110l-82 -110h-17l90 128h18zM345 794q1 -5 2 -9t2 -8.5t1 -9.5q0 -22 -14 -38.5t-44 -16.5q-19 0 -36.5 11.5t-34 25t-31.5 25t-28 11.5q-16 0 -29 -7.5t-13 -32.5q0 -7 0.5 -11.5t1.5 -8.5t3 -7h-16q-2 5 -3 9q-2 10 -2 18
q0 22 14 38.5t44 16.5q17 0 33.5 -11.5t32.5 -25t32 -25t32 -11.5q17 0 29.5 7.5t12.5 32.5q0 6 -1 11t-2 9t-2 7h16z" />
    <glyph glyph-name="uni1EAC" unicode="&#x1eac;" horiz-adv-x="577" 
d="M281 700h18l261 -700h-19l-85 229h-334l-86 -229h-19zM128 246h321l-159 430zM260 -100q0 12 8 20t20 8t20 -8t8 -20t-8 -20t-20 -8t-20 8t-8 20zM297 899l90 -128h-17l-82 110l-82 -110h-17l90 128h18z" />
    <glyph glyph-name="uni1EAD" unicode="&#x1ead;" 
d="M350 45q0 -19 4.5 -23.5t14.5 -4.5h14v-17h-15q-17 0 -26 10.5t-9 35.5v56q-2 -4 -9.5 -23t-24 -40t-43.5 -37.5t-67 -16.5q-63 0 -96.5 39t-33.5 102q0 32 12 60.5t36 49.5t60 33.5t84 12.5h82v81q-1 62 -27.5 98.5t-90.5 36.5q-33 0 -57 -10.5t-39 -27.5t-22 -38.5
t-7 -43.5q0 -26 3 -38q1 -8 3 -13h-18q-2 5 -3 13q-3 13 -3 41q0 24 8 47.5t25 43t44 31.5t66 12t65 -11.5t41.5 -31.5t22 -48.5t6.5 -62.5v-316zM189 2q37 0 62.5 18t42.5 42.5t26.5 49t12.5 37.5v115h-83q-38 0 -70 -9.5t-55 -27.5t-36 -43.5t-13 -57.5q0 -57 30.5 -90.5
t82.5 -33.5zM194 -100q0 12 8 20t20 8t20 -8t8 -20t-8 -20t-20 -8t-20 8t-8 20zM231 699l90 -128h-17l-82 110l-82 -110h-17l90 128h18z" />
    <glyph glyph-name="uni1EAE" unicode="&#x1eae;" horiz-adv-x="577" 
d="M281 700h18l261 -700h-19l-85 229h-334l-86 -229h-19zM128 246h321l-159 430zM289 787q34 0 48 20.5t14 58.5h17q0 -44 -18 -70t-62 -26t-62 26t-18 70h17q0 -38 15 -58.5t49 -20.5zM261 864l99 141l18 -11l-101 -130h-16z" />
    <glyph glyph-name="uni1EAF" unicode="&#x1eaf;" 
d="M350 45q0 -19 4.5 -23.5t14.5 -4.5h14v-17h-15q-17 0 -26 10.5t-9 35.5v56q-2 -4 -9.5 -23t-24 -40t-43.5 -37.5t-67 -16.5q-63 0 -96.5 39t-33.5 102q0 32 12 60.5t36 49.5t60 33.5t84 12.5h82v81q-1 62 -27.5 98.5t-90.5 36.5q-33 0 -57 -10.5t-39 -27.5t-22 -38.5
t-7 -43.5q0 -26 3 -38q1 -8 3 -13h-18q-2 5 -3 13q-3 13 -3 41q0 24 8 47.5t25 43t44 31.5t66 12t65 -11.5t41.5 -31.5t22 -48.5t6.5 -62.5v-316zM189 2q37 0 62.5 18t42.5 42.5t26.5 49t12.5 37.5v115h-83q-38 0 -70 -9.5t-55 -27.5t-36 -43.5t-13 -57.5q0 -57 30.5 -90.5
t82.5 -33.5zM225 587q34 0 48 20.5t14 58.5h17q0 -44 -18 -70t-62 -26t-62 26t-18 70h17q0 -38 15 -58.5t49 -20.5zM203 659l99 141l18 -11l-101 -130h-16z" />
    <glyph glyph-name="uni1EB0" unicode="&#x1eb0;" horiz-adv-x="577" 
d="M281 700h18l261 -700h-19l-85 229h-334l-86 -229h-19zM128 246h321l-159 430zM289 787q34 0 48 20.5t14 58.5h17q0 -44 -18 -70t-62 -26t-62 26t-18 70h17q0 -38 15 -58.5t49 -20.5zM308 866l-101 130l18 11l99 -141h-16z" />
    <glyph glyph-name="uni1EB1" unicode="&#x1eb1;" 
d="M350 45q0 -19 4.5 -23.5t14.5 -4.5h14v-17h-15q-17 0 -26 10.5t-9 35.5v56q-2 -4 -9.5 -23t-24 -40t-43.5 -37.5t-67 -16.5q-63 0 -96.5 39t-33.5 102q0 32 12 60.5t36 49.5t60 33.5t84 12.5h82v81q-1 62 -27.5 98.5t-90.5 36.5q-33 0 -57 -10.5t-39 -27.5t-22 -38.5
t-7 -43.5q0 -26 3 -38q1 -8 3 -13h-18q-2 5 -3 13q-3 13 -3 41q0 24 8 47.5t25 43t44 31.5t66 12t65 -11.5t41.5 -31.5t22 -48.5t6.5 -62.5v-316zM189 2q37 0 62.5 18t42.5 42.5t26.5 49t12.5 37.5v115h-83q-38 0 -70 -9.5t-55 -27.5t-36 -43.5t-13 -57.5q0 -57 30.5 -90.5
t82.5 -33.5zM225 587q34 0 48 20.5t14 58.5h17q0 -44 -18 -70t-62 -26t-62 26t-18 70h17q0 -38 15 -58.5t49 -20.5zM250 659l-101 130l18 11l99 -141h-16z" />
    <glyph glyph-name="uni1EB2" unicode="&#x1eb2;" horiz-adv-x="577" 
d="M281 700h18l261 -700h-19l-85 229h-334l-86 -229h-19zM128 246h321l-159 430zM289 787q34 0 48 20.5t14 58.5h17q0 -44 -18 -70t-62 -26t-62 26t-18 70h17q0 -38 15 -58.5t49 -20.5zM345 956q0 22 -13 35.5t-36 13.5q-25 0 -37 -13t-12 -30q0 -10 1 -12t2 -3l-19 2
q-8 28 9.5 50t55.5 22q31 0 49 -17t18 -44q0 -24 -10 -37t-22 -23t-22 -21t-10 -30h-17q0 22 10 34.5t21.5 22.5t21.5 20.5t10 29.5z" />
    <glyph glyph-name="uni1EB3" unicode="&#x1eb3;" 
d="M350 45q0 -19 4.5 -23.5t14.5 -4.5h14v-17h-15q-17 0 -26 10.5t-9 35.5v56q-2 -4 -9.5 -23t-24 -40t-43.5 -37.5t-67 -16.5q-63 0 -96.5 39t-33.5 102q0 32 12 60.5t36 49.5t60 33.5t84 12.5h82v81q-1 62 -27.5 98.5t-90.5 36.5q-33 0 -57 -10.5t-39 -27.5t-22 -38.5
t-7 -43.5q0 -26 3 -38q1 -8 3 -13h-18q-2 5 -3 13q-3 13 -3 41q0 24 8 47.5t25 43t44 31.5t66 12t65 -11.5t41.5 -31.5t22 -48.5t6.5 -62.5v-316zM189 2q37 0 62.5 18t42.5 42.5t26.5 49t12.5 37.5v115h-83q-38 0 -70 -9.5t-55 -27.5t-36 -43.5t-13 -57.5q0 -57 30.5 -90.5
t82.5 -33.5zM225 587q34 0 48 20.5t14 58.5h17q0 -44 -18 -70t-62 -26t-62 26t-18 70h17q0 -38 15 -58.5t49 -20.5zM281 758q0 22 -13 35.5t-36 13.5q-25 0 -37 -13t-12 -30q0 -10 1 -12t2 -3l-19 2q-8 28 9.5 50t55.5 22q31 0 49 -17t18 -44q0 -24 -10 -37t-22 -23t-22 -21
t-10 -30h-17q0 22 10 34.5t21.5 22.5t21.5 20.5t10 29.5z" />
    <glyph glyph-name="uni1EB4" unicode="&#x1eb4;" horiz-adv-x="577" 
d="M281 700h18l261 -700h-19l-85 229h-334l-86 -229h-19zM128 246h321l-159 430zM289 787q34 0 48 20.5t14 58.5h17q0 -44 -18 -70t-62 -26t-62 26t-18 70h17q0 -38 15 -58.5t49 -20.5zM413 976q1 -5 2 -9t2 -8.5t1 -9.5q0 -22 -14 -38.5t-44 -16.5q-19 0 -36.5 11.5t-34 25
t-31.5 25t-28 11.5q-16 0 -29 -7.5t-13 -32.5q0 -7 0.5 -11.5t1.5 -8.5t3 -7h-16q-2 5 -3 9q-2 10 -2 18q0 22 14 38.5t44 16.5q17 0 33.5 -11.5t32.5 -25t32 -25t32 -11.5q17 0 29.5 7.5t12.5 32.5q0 6 -1 11t-2 9t-2 7h16z" />
    <glyph glyph-name="uni1EB5" unicode="&#x1eb5;" 
d="M350 45q0 -19 4.5 -23.5t14.5 -4.5h14v-17h-15q-17 0 -26 10.5t-9 35.5v56q-2 -4 -9.5 -23t-24 -40t-43.5 -37.5t-67 -16.5q-63 0 -96.5 39t-33.5 102q0 32 12 60.5t36 49.5t60 33.5t84 12.5h82v81q-1 62 -27.5 98.5t-90.5 36.5q-33 0 -57 -10.5t-39 -27.5t-22 -38.5
t-7 -43.5q0 -26 3 -38q1 -8 3 -13h-18q-2 5 -3 13q-3 13 -3 41q0 24 8 47.5t25 43t44 31.5t66 12t65 -11.5t41.5 -31.5t22 -48.5t6.5 -62.5v-316zM189 2q37 0 62.5 18t42.5 42.5t26.5 49t12.5 37.5v115h-83q-38 0 -70 -9.5t-55 -27.5t-36 -43.5t-13 -57.5q0 -57 30.5 -90.5
t82.5 -33.5zM225 587q34 0 48 20.5t14 58.5h17q0 -44 -18 -70t-62 -26t-62 26t-18 70h17q0 -38 15 -58.5t49 -20.5zM347 777q1 -5 2 -9t2 -8.5t1 -9.5q0 -22 -14 -38.5t-44 -16.5q-19 0 -36.5 11.5t-34 25t-31.5 25t-28 11.5q-16 0 -29 -7.5t-13 -32.5q0 -7 0.5 -11.5
t1.5 -8.5t3 -7h-16q-2 5 -3 9q-2 10 -2 18q0 22 14 38.5t44 16.5q17 0 33.5 -11.5t32.5 -25t32 -25t32 -11.5q17 0 29.5 7.5t12.5 32.5q0 6 -1 11t-2 9t-2 7h16z" />
    <glyph glyph-name="uni1EB6" unicode="&#x1eb6;" horiz-adv-x="577" 
d="M281 700h18l261 -700h-19l-85 229h-334l-86 -229h-19zM128 246h321l-159 430zM260 -100q0 12 8 20t20 8t20 -8t8 -20t-8 -20t-20 -8t-20 8t-8 20zM289 787q34 0 48 20.5t14 58.5h17q0 -44 -18 -70t-62 -26t-62 26t-18 70h17q0 -38 15 -58.5t49 -20.5z" />
    <glyph glyph-name="uni1EB7" unicode="&#x1eb7;" 
d="M350 45q0 -19 4.5 -23.5t14.5 -4.5h14v-17h-15q-17 0 -26 10.5t-9 35.5v56q-2 -4 -9.5 -23t-24 -40t-43.5 -37.5t-67 -16.5q-63 0 -96.5 39t-33.5 102q0 32 12 60.5t36 49.5t60 33.5t84 12.5h82v81q-1 62 -27.5 98.5t-90.5 36.5q-33 0 -57 -10.5t-39 -27.5t-22 -38.5
t-7 -43.5q0 -26 3 -38q1 -8 3 -13h-18q-2 5 -3 13q-3 13 -3 41q0 24 8 47.5t25 43t44 31.5t66 12t65 -11.5t41.5 -31.5t22 -48.5t6.5 -62.5v-316zM189 2q37 0 62.5 18t42.5 42.5t26.5 49t12.5 37.5v115h-83q-38 0 -70 -9.5t-55 -27.5t-36 -43.5t-13 -57.5q0 -57 30.5 -90.5
t82.5 -33.5zM194 -100q0 12 8 20t20 8t20 -8t8 -20t-8 -20t-20 -8t-20 8t-8 20zM223 587q34 0 48 20.5t14 58.5h17q0 -44 -18 -70t-62 -26t-62 26t-18 70h17q0 -38 15 -58.5t49 -20.5z" />
    <glyph glyph-name="uni1EB8" unicode="&#x1eb8;" horiz-adv-x="504" 
d="M60 700h384v-17h-366v-314h307v-17h-307v-335h366v-17h-384v700zM224 -100q0 12 8 20t20 8t20 -8t8 -20t-8 -20t-20 -8t-20 8t-8 20z" />
    <glyph glyph-name="uni1EB9" unicode="&#x1eb9;" horiz-adv-x="423" 
d="M78 278q-1 -6 -1 -13v-27q0 -70 12.5 -115.5t33 -72.5t46.5 -37.5t54 -10.5q43 0 67.5 16.5t37.5 36.5q15 24 20 54l15 -3q-4 -35 -20 -61q-14 -23 -42 -41.5t-78 -18.5q-32 0 -61 12t-52 41t-36.5 77.5t-13.5 122.5q0 77 11 130t32 85.5t50.5 47t66.5 14.5
q36 0 62.5 -14t43.5 -37.5t25.5 -53.5t8.5 -61q0 -13 -0.5 -25.5t-0.5 -22.5q-1 -12 -1 -23h-280zM220 498q-29 0 -53 -10.5t-42.5 -34.5t-30.5 -63t-16 -96h265v15q0 7 0.5 16.5t0.5 20.5q0 28 -7.5 55t-22.5 48.5t-38.5 35t-55.5 13.5zM183 -100q0 12 8 20t20 8t20 -8
t8 -20t-8 -20t-20 -8t-20 8t-8 20z" />
    <glyph glyph-name="uni1EBA" unicode="&#x1eba;" horiz-adv-x="504" 
d="M60 700h384v-17h-366v-314h307v-17h-307v-335h366v-17h-384v700zM305 865q0 22 -13 35.5t-36 13.5q-25 0 -37 -13t-12 -30q0 -10 1 -12t2 -3l-19 2q-8 28 9.5 50t55.5 22q31 0 49 -17t18 -44q0 -24 -10 -37t-22 -23t-22 -21t-10 -30h-17q0 22 10 34.5t21.5 22.5
t21.5 20.5t10 29.5z" />
    <glyph glyph-name="uni1EBB" unicode="&#x1ebb;" horiz-adv-x="423" 
d="M78 278q-1 -6 -1 -13v-27q0 -70 12.5 -115.5t33 -72.5t46.5 -37.5t54 -10.5q43 0 67.5 16.5t37.5 36.5q15 24 20 54l15 -3q-4 -35 -20 -61q-14 -23 -42 -41.5t-78 -18.5q-32 0 -61 12t-52 41t-36.5 77.5t-13.5 122.5q0 77 11 130t32 85.5t50.5 47t66.5 14.5
q36 0 62.5 -14t43.5 -37.5t25.5 -53.5t8.5 -61q0 -13 -0.5 -25.5t-0.5 -22.5q-1 -12 -1 -23h-280zM220 498q-29 0 -53 -10.5t-42.5 -34.5t-30.5 -63t-16 -96h265v15q0 7 0.5 16.5t0.5 20.5q0 28 -7.5 55t-22.5 48.5t-38.5 35t-55.5 13.5zM264 665q0 22 -13 35.5t-36 13.5
q-25 0 -37 -13t-12 -30q0 -10 1 -12t2 -3l-19 2q-8 28 9.5 50t55.5 22q31 0 49 -17t18 -44q0 -24 -10 -37t-22 -23t-22 -21t-10 -30h-17q0 22 10 34.5t21.5 22.5t21.5 20.5t10 29.5z" />
    <glyph glyph-name="uni1EBC" unicode="&#x1ebc;" horiz-adv-x="504" 
d="M60 700h384v-17h-366v-314h307v-17h-307v-335h366v-17h-384v700zM383 866q1 -5 2 -9t2 -8.5t1 -9.5q0 -22 -14 -38.5t-44 -16.5q-19 0 -36.5 11.5t-34 25t-31.5 25t-28 11.5q-16 0 -29 -7.5t-13 -32.5q0 -7 0.5 -11.5t1.5 -8.5t3 -7h-16q-2 5 -3 9q-2 10 -2 18
q0 22 14 38.5t44 16.5q17 0 33.5 -11.5t32.5 -25t32 -25t32 -11.5q17 0 29.5 7.5t12.5 32.5q0 6 -1 11t-2 9t-2 7h16z" />
    <glyph glyph-name="uni1EBD" unicode="&#x1ebd;" horiz-adv-x="423" 
d="M78 278q-1 -6 -1 -13v-27q0 -70 12.5 -115.5t33 -72.5t46.5 -37.5t54 -10.5q43 0 67.5 16.5t37.5 36.5q15 24 20 54l15 -3q-4 -35 -20 -61q-14 -23 -42 -41.5t-78 -18.5q-32 0 -61 12t-52 41t-36.5 77.5t-13.5 122.5q0 77 11 130t32 85.5t50.5 47t66.5 14.5
q36 0 62.5 -14t43.5 -37.5t25.5 -53.5t8.5 -61q0 -13 -0.5 -25.5t-0.5 -22.5q-1 -12 -1 -23h-280zM220 498q-29 0 -53 -10.5t-42.5 -34.5t-30.5 -63t-16 -96h265v15q0 7 0.5 16.5t0.5 20.5q0 28 -7.5 55t-22.5 48.5t-38.5 35t-55.5 13.5zM329 666q1 -5 2 -9t2 -8.5t1 -9.5
q0 -22 -14 -38.5t-44 -16.5q-19 0 -36.5 11.5t-34 25t-31.5 25t-28 11.5q-16 0 -29 -7.5t-13 -32.5q0 -7 0.5 -11.5t1.5 -8.5t3 -7h-16q-2 5 -3 9q-2 10 -2 18q0 22 14 38.5t44 16.5q17 0 33.5 -11.5t32.5 -25t32 -25t32 -11.5q17 0 29.5 7.5t12.5 32.5q0 6 -1 11t-2 9t-2 7
h16z" />
    <glyph glyph-name="uni1EBE" unicode="&#x1ebe;" horiz-adv-x="504" 
d="M60 700h384v-17h-366v-314h307v-17h-307v-335h366v-17h-384v700zM278 899l90 -128h-17l-82 110l-82 -110h-17l90 128h18zM342 863l99 141l18 -11l-101 -130h-16z" />
    <glyph glyph-name="uni1EBF" unicode="&#x1ebf;" horiz-adv-x="423" 
d="M78 278q-1 -6 -1 -13v-27q0 -70 12.5 -115.5t33 -72.5t46.5 -37.5t54 -10.5q43 0 67.5 16.5t37.5 36.5q15 24 20 54l15 -3q-4 -35 -20 -61q-14 -23 -42 -41.5t-78 -18.5q-32 0 -61 12t-52 41t-36.5 77.5t-13.5 122.5q0 77 11 130t32 85.5t50.5 47t66.5 14.5
q36 0 62.5 -14t43.5 -37.5t25.5 -53.5t8.5 -61q0 -13 -0.5 -25.5t-0.5 -22.5q-1 -12 -1 -23h-280zM220 498q-29 0 -53 -10.5t-42.5 -34.5t-30.5 -63t-16 -96h265v15q0 7 0.5 16.5t0.5 20.5q0 28 -7.5 55t-22.5 48.5t-38.5 35t-55.5 13.5zM233 699l90 -128h-17l-82 110
l-82 -110h-17l90 128h18zM297 654l99 141l18 -11l-101 -130h-16z" />
    <glyph glyph-name="uni1EC0" unicode="&#x1ec0;" horiz-adv-x="504" 
d="M60 700h384v-17h-366v-314h307v-17h-307v-335h366v-17h-384v700zM278 899l90 -128h-17l-82 110l-82 -110h-17l90 128h18zM392 840l-101 130l18 11l99 -141h-16z" />
    <glyph glyph-name="uni1EC1" unicode="&#x1ec1;" horiz-adv-x="423" 
d="M78 278q-1 -6 -1 -13v-27q0 -70 12.5 -115.5t33 -72.5t46.5 -37.5t54 -10.5q43 0 67.5 16.5t37.5 36.5q15 24 20 54l15 -3q-4 -35 -20 -61q-14 -23 -42 -41.5t-78 -18.5q-32 0 -61 12t-52 41t-36.5 77.5t-13.5 122.5q0 77 11 130t32 85.5t50.5 47t66.5 14.5
q36 0 62.5 -14t43.5 -37.5t25.5 -53.5t8.5 -61q0 -13 -0.5 -25.5t-0.5 -22.5q-1 -12 -1 -23h-280zM220 498q-29 0 -53 -10.5t-42.5 -34.5t-30.5 -63t-16 -96h265v15q0 7 0.5 16.5t0.5 20.5q0 28 -7.5 55t-22.5 48.5t-38.5 35t-55.5 13.5zM233 699l90 -128h-17l-82 110
l-82 -110h-17l90 128h18zM343 657l-101 130l18 11l99 -141h-16z" />
    <glyph glyph-name="uni1EC2" unicode="&#x1ec2;" horiz-adv-x="504" 
d="M60 700h384v-17h-366v-314h307v-17h-307v-335h366v-17h-384v700zM278 899l90 -128h-17l-82 110l-82 -110h-17l90 128h18zM403 963q0 22 -13 35.5t-36 13.5q-25 0 -37 -13t-12 -30q0 -10 1 -12t2 -3l-19 2q-8 28 9.5 50t55.5 22q31 0 49 -17t18 -44q0 -24 -10 -37t-22 -23
t-22 -21t-10 -30h-17q0 22 10 34.5t21.5 22.5t21.5 20.5t10 29.5z" />
    <glyph glyph-name="uni1EC3" unicode="&#x1ec3;" horiz-adv-x="423" 
d="M78 278q-1 -6 -1 -13v-27q0 -70 12.5 -115.5t33 -72.5t46.5 -37.5t54 -10.5q43 0 67.5 16.5t37.5 36.5q15 24 20 54l15 -3q-4 -35 -20 -61q-14 -23 -42 -41.5t-78 -18.5q-32 0 -61 12t-52 41t-36.5 77.5t-13.5 122.5q0 77 11 130t32 85.5t50.5 47t66.5 14.5
q36 0 62.5 -14t43.5 -37.5t25.5 -53.5t8.5 -61q0 -13 -0.5 -25.5t-0.5 -22.5q-1 -12 -1 -23h-280zM220 498q-29 0 -53 -10.5t-42.5 -34.5t-30.5 -63t-16 -96h265v15q0 7 0.5 16.5t0.5 20.5q0 28 -7.5 55t-22.5 48.5t-38.5 35t-55.5 13.5zM233 699l90 -128h-17l-82 110
l-82 -110h-17l90 128h18zM357 764q0 22 -13 35.5t-36 13.5q-25 0 -37 -13t-12 -30q0 -10 1 -12t2 -3l-19 2q-8 28 9.5 50t55.5 22q31 0 49 -17t18 -44q0 -24 -10 -37t-22 -23t-22 -21t-10 -30h-17q0 22 10 34.5t21.5 22.5t21.5 20.5t10 29.5z" />
    <glyph glyph-name="uni1EC4" unicode="&#x1ec4;" horiz-adv-x="504" 
d="M60 700h384v-17h-366v-314h307v-17h-307v-335h366v-17h-384v700zM278 899l90 -128h-17l-82 110l-82 -110h-17l90 128h18zM387 1009q1 -5 2 -9t2 -8.5t1 -9.5q0 -22 -14 -38.5t-44 -16.5q-19 0 -36.5 11.5t-34 25t-31.5 25t-28 11.5q-16 0 -29 -7.5t-13 -32.5
q0 -7 0.5 -11.5t1.5 -8.5t3 -7h-16q-2 5 -3 9q-2 10 -2 18q0 22 14 38.5t44 16.5q17 0 33.5 -11.5t32.5 -25t32 -25t32 -11.5q17 0 29.5 7.5t12.5 32.5q0 6 -1 11t-2 9t-2 7h16z" />
    <glyph glyph-name="uni1EC5" unicode="&#x1ec5;" horiz-adv-x="423" 
d="M78 278q-1 -6 -1 -13v-27q0 -70 12.5 -115.5t33 -72.5t46.5 -37.5t54 -10.5q43 0 67.5 16.5t37.5 36.5q15 24 20 54l15 -3q-4 -35 -20 -61q-14 -23 -42 -41.5t-78 -18.5q-32 0 -61 12t-52 41t-36.5 77.5t-13.5 122.5q0 77 11 130t32 85.5t50.5 47t66.5 14.5
q36 0 62.5 -14t43.5 -37.5t25.5 -53.5t8.5 -61q0 -13 -0.5 -25.5t-0.5 -22.5q-1 -12 -1 -23h-280zM220 498q-29 0 -53 -10.5t-42.5 -34.5t-30.5 -63t-16 -96h265v15q0 7 0.5 16.5t0.5 20.5q0 28 -7.5 55t-22.5 48.5t-38.5 35t-55.5 13.5zM233 699l90 -128h-17l-82 110
l-82 -110h-17l90 128h18zM348 794q1 -5 2 -9t2 -8.5t1 -9.5q0 -22 -14 -38.5t-44 -16.5q-19 0 -36.5 11.5t-34 25t-31.5 25t-28 11.5q-16 0 -29 -7.5t-13 -32.5q0 -7 0.5 -11.5t1.5 -8.5t3 -7h-16q-2 5 -3 9q-2 10 -2 18q0 22 14 38.5t44 16.5q17 0 33.5 -11.5t32.5 -25
t32 -25t32 -11.5q17 0 29.5 7.5t12.5 32.5q0 6 -1 11t-2 9t-2 7h16z" />
    <glyph glyph-name="uni1EC6" unicode="&#x1ec6;" horiz-adv-x="504" 
d="M60 700h384v-17h-366v-314h307v-17h-307v-335h366v-17h-384v700zM224 -100q0 12 8 20t20 8t20 -8t8 -20t-8 -20t-20 -8t-20 8t-8 20zM261 899l90 -128h-17l-82 110l-82 -110h-17l90 128h18z" />
    <glyph glyph-name="uni1EC7" unicode="&#x1ec7;" horiz-adv-x="423" 
d="M78 278q-1 -6 -1 -13v-27q0 -70 12.5 -115.5t33 -72.5t46.5 -37.5t54 -10.5q43 0 67.5 16.5t37.5 36.5q15 24 20 54l15 -3q-4 -35 -20 -61q-14 -23 -42 -41.5t-78 -18.5q-32 0 -61 12t-52 41t-36.5 77.5t-13.5 122.5q0 77 11 130t32 85.5t50.5 47t66.5 14.5
q36 0 62.5 -14t43.5 -37.5t25.5 -53.5t8.5 -61q0 -13 -0.5 -25.5t-0.5 -22.5q-1 -12 -1 -23h-280zM220 498q-29 0 -53 -10.5t-42.5 -34.5t-30.5 -63t-16 -96h265v15q0 7 0.5 16.5t0.5 20.5q0 28 -7.5 55t-22.5 48.5t-38.5 35t-55.5 13.5zM183 -100q0 12 8 20t20 8t20 -8
t8 -20t-8 -20t-20 -8t-20 8t-8 20zM220 699l90 -128h-17l-82 110l-82 -110h-17l90 128h18z" />
    <glyph glyph-name="uni1EC8" unicode="&#x1ec8;" horiz-adv-x="138" 
d="M78 0h-18v700h18v-700zM123 865q0 22 -13 35.5t-36 13.5q-25 0 -37 -13t-12 -30q0 -10 1 -12t2 -3l-19 2q-8 28 9.5 50t55.5 22q31 0 49 -17t18 -44q0 -24 -10 -37t-22 -23t-22 -21t-10 -30h-17q0 22 10 34.5t21.5 22.5t21.5 20.5t10 29.5z" />
    <glyph glyph-name="uni1EC9" unicode="&#x1ec9;" horiz-adv-x="170" 
d="M77 45q0 -19 4.5 -23.5t14.5 -4.5h14v-17h-15q-17 0 -26 10.5t-9 35.5v454h17v-455zM126 665q0 22 -13 35.5t-36 13.5q-25 0 -37 -13t-12 -30q0 -10 1 -12t2 -3l-19 2q-8 28 9.5 50t55.5 22q31 0 49 -17t18 -44q0 -24 -10 -37t-22 -23t-22 -21t-10 -30h-17q0 22 10 34.5
t21.5 22.5t21.5 20.5t10 29.5z" />
    <glyph glyph-name="uni1ECA" unicode="&#x1eca;" horiz-adv-x="138" 
d="M78 0h-18v700h18v-700zM42 -100q0 12 8 20t20 8t20 -8t8 -20t-8 -20t-20 -8t-20 8t-8 20z" />
    <glyph glyph-name="uni1ECB" unicode="&#x1ecb;" horiz-adv-x="170" 
d="M77 45q0 -19 4.5 -23.5t14.5 -4.5h14v-17h-15q-17 0 -26 10.5t-9 35.5v454h17v-455zM37 652q0 12 9.5 21.5t21.5 9.5t21.5 -9.5t9.5 -21.5t-9.5 -21.5t-21.5 -9.5t-21.5 9.5t-9.5 21.5zM58 -100q0 12 8 20t20 8t20 -8t8 -20t-8 -20t-20 -8t-20 8t-8 20z" />
    <glyph glyph-name="uni1ECC" unicode="&#x1ecc;" horiz-adv-x="596" 
d="M46 334q0 105 18 177.5t50.5 117.5t77 65.5t98.5 20.5t99 -20t77.5 -65t51 -118t18.5 -178q0 -100 -22 -167t-57 -107.5t-78.5 -57.5t-86.5 -17t-86.5 17.5t-79 58t-58 107.5t-22.5 166zM518 334q0 100 -17.5 169t-48 112.5t-72 63t-90.5 19.5t-90.5 -19.5t-71.5 -62.5
t-47 -112.5t-17 -169.5q0 -95 21.5 -158.5t54.5 -102t73.5 -55t78.5 -16.5t78 16.5t73 55t54 102t21 158.5zM270 -100q0 12 8 20t20 8t20 -8t8 -20t-8 -20t-20 -8t-20 8t-8 20z" />
    <glyph glyph-name="uni1ECD" unicode="&#x1ecd;" horiz-adv-x="442" 
d="M55 238q0 77 11 129.5t32 85.5t51.5 47.5t70.5 14.5t71 -14.5t52.5 -47t32.5 -85.5t11 -130q0 -73 -14.5 -121.5t-37.5 -78t-53 -41.5t-61 -12q-32 0 -61.5 12t-53 41t-37.5 77.5t-14 122.5zM370 238q0 73 -10.5 122.5t-30 80t-47.5 44t-62 13.5q-35 0 -62.5 -13
t-46.5 -43.5t-29 -80.5t-10 -123q0 -70 13 -115.5t34 -72.5t47.5 -37.5t54.5 -10.5q27 0 54 11t48 38t34 72.5t13 114.5zM193 -100q0 12 8 20t20 8t20 -8t8 -20t-8 -20t-20 -8t-20 8t-8 20z" />
    <glyph glyph-name="uni1ECE" unicode="&#x1ece;" horiz-adv-x="596" 
d="M46 334q0 105 18 177.5t50.5 117.5t77 65.5t98.5 20.5t99 -20t77.5 -65t51 -118t18.5 -178q0 -100 -22 -167t-57 -107.5t-78.5 -57.5t-86.5 -17t-86.5 17.5t-79 58t-58 107.5t-22.5 166zM518 334q0 100 -17.5 169t-48 112.5t-72 63t-90.5 19.5t-90.5 -19.5t-71.5 -62.5
t-47 -112.5t-17 -169.5q0 -95 21.5 -158.5t54.5 -102t73.5 -55t78.5 -16.5t78 16.5t73 55t54 102t21 158.5zM351 865q0 22 -13 35.5t-36 13.5q-25 0 -37 -13t-12 -30q0 -10 1 -12t2 -3l-19 2q-8 28 9.5 50t55.5 22q31 0 49 -17t18 -44q0 -24 -10 -37t-22 -23t-22 -21
t-10 -30h-17q0 22 10 34.5t21.5 22.5t21.5 20.5t10 29.5z" />
    <glyph glyph-name="uni1ECF" unicode="&#x1ecf;" horiz-adv-x="442" 
d="M55 238q0 77 11 129.5t32 85.5t51.5 47.5t70.5 14.5t71 -14.5t52.5 -47t32.5 -85.5t11 -130q0 -73 -14.5 -121.5t-37.5 -78t-53 -41.5t-61 -12q-32 0 -61.5 12t-53 41t-37.5 77.5t-14 122.5zM370 238q0 73 -10.5 122.5t-30 80t-47.5 44t-62 13.5q-35 0 -62.5 -13
t-46.5 -43.5t-29 -80.5t-10 -123q0 -70 13 -115.5t34 -72.5t47.5 -37.5t54.5 -10.5q27 0 54 11t48 38t34 72.5t13 114.5zM274 665q0 22 -13 35.5t-36 13.5q-25 0 -37 -13t-12 -30q0 -10 1 -12t2 -3l-19 2q-8 28 9.5 50t55.5 22q31 0 49 -17t18 -44q0 -24 -10 -37t-22 -23
t-22 -21t-10 -30h-17q0 22 10 34.5t21.5 22.5t21.5 20.5t10 29.5z" />
    <glyph glyph-name="uni1ED0" unicode="&#x1ed0;" horiz-adv-x="610" 
d="M60 334q0 105 18 177.5t50.5 117.5t77 65.5t98.5 20.5t99 -20t77.5 -65t51 -118t18.5 -178q0 -100 -22 -167t-57 -107.5t-78.5 -57.5t-86.5 -17t-86.5 17.5t-79 58t-58 107.5t-22.5 166zM532 334q0 100 -17.5 169t-48 112.5t-72 63t-90.5 19.5t-90.5 -19.5t-71.5 -62.5
t-47 -112.5t-17 -169.5q0 -95 21.5 -158.5t54.5 -102t73.5 -55t78.5 -16.5t78 16.5t73 55t54 102t21 158.5zM309 899l90 -128h-17l-82 110l-82 -110h-17l90 128h18zM369 857l99 141l18 -11l-101 -130h-16z" />
    <glyph glyph-name="uni1ED1" unicode="&#x1ed1;" horiz-adv-x="442" 
d="M55 238q0 77 11 129.5t32 85.5t51.5 47.5t70.5 14.5t71 -14.5t52.5 -47t32.5 -85.5t11 -130q0 -73 -14.5 -121.5t-37.5 -78t-53 -41.5t-61 -12q-32 0 -61.5 12t-53 41t-37.5 77.5t-14 122.5zM370 238q0 73 -10.5 122.5t-30 80t-47.5 44t-62 13.5q-35 0 -62.5 -13
t-46.5 -43.5t-29 -80.5t-10 -123q0 -70 13 -115.5t34 -72.5t47.5 -37.5t54.5 -10.5q27 0 54 11t48 38t34 72.5t13 114.5zM229 699l90 -128h-17l-82 110l-82 -110h-17l90 128h18zM285 658l99 141l18 -11l-101 -130h-16z" />
    <glyph glyph-name="uni1ED2" unicode="&#x1ed2;" horiz-adv-x="610" 
d="M60 334q0 105 18 177.5t50.5 117.5t77 65.5t98.5 20.5t99 -20t77.5 -65t51 -118t18.5 -178q0 -100 -22 -167t-57 -107.5t-78.5 -57.5t-86.5 -17t-86.5 17.5t-79 58t-58 107.5t-22.5 166zM532 334q0 100 -17.5 169t-48 112.5t-72 63t-90.5 19.5t-90.5 -19.5t-71.5 -62.5
t-47 -112.5t-17 -169.5q0 -95 21.5 -158.5t54.5 -102t73.5 -55t78.5 -16.5t78 16.5t73 55t54 102t21 158.5zM309 899l90 -128h-17l-82 110l-82 -110h-17l90 128h18zM419 851l-101 130l18 11l99 -141h-16z" />
    <glyph glyph-name="uni1ED3" unicode="&#x1ed3;" horiz-adv-x="442" 
d="M55 238q0 77 11 129.5t32 85.5t51.5 47.5t70.5 14.5t71 -14.5t52.5 -47t32.5 -85.5t11 -130q0 -73 -14.5 -121.5t-37.5 -78t-53 -41.5t-61 -12q-32 0 -61.5 12t-53 41t-37.5 77.5t-14 122.5zM370 238q0 73 -10.5 122.5t-30 80t-47.5 44t-62 13.5q-35 0 -62.5 -13
t-46.5 -43.5t-29 -80.5t-10 -123q0 -70 13 -115.5t34 -72.5t47.5 -37.5t54.5 -10.5q27 0 54 11t48 38t34 72.5t13 114.5zM229 699l90 -128h-17l-82 110l-82 -110h-17l90 128h18zM338 657l-101 130l18 11l99 -141h-16z" />
    <glyph glyph-name="uni1ED4" unicode="&#x1ed4;" horiz-adv-x="610" 
d="M60 334q0 105 18 177.5t50.5 117.5t77 65.5t98.5 20.5t99 -20t77.5 -65t51 -118t18.5 -178q0 -100 -22 -167t-57 -107.5t-78.5 -57.5t-86.5 -17t-86.5 17.5t-79 58t-58 107.5t-22.5 166zM532 334q0 100 -17.5 169t-48 112.5t-72 63t-90.5 19.5t-90.5 -19.5t-71.5 -62.5
t-47 -112.5t-17 -169.5q0 -95 21.5 -158.5t54.5 -102t73.5 -55t78.5 -16.5t78 16.5t73 55t54 102t21 158.5zM309 899l90 -128h-17l-82 110l-82 -110h-17l90 128h18zM433 963q0 22 -13 35.5t-36 13.5q-25 0 -37 -13t-12 -30q0 -10 1 -12t2 -3l-19 2q-8 28 9.5 50t55.5 22
q31 0 49 -17t18 -44q0 -24 -10 -37t-22 -23t-22 -21t-10 -30h-17q0 22 10 34.5t21.5 22.5t21.5 20.5t10 29.5z" />
    <glyph glyph-name="uni1ED5" unicode="&#x1ed5;" horiz-adv-x="442" 
d="M55 238q0 77 11 129.5t32 85.5t51.5 47.5t70.5 14.5t71 -14.5t52.5 -47t32.5 -85.5t11 -130q0 -73 -14.5 -121.5t-37.5 -78t-53 -41.5t-61 -12q-32 0 -61.5 12t-53 41t-37.5 77.5t-14 122.5zM370 238q0 73 -10.5 122.5t-30 80t-47.5 44t-62 13.5q-35 0 -62.5 -13
t-46.5 -43.5t-29 -80.5t-10 -123q0 -70 13 -115.5t34 -72.5t47.5 -37.5t54.5 -10.5q27 0 54 11t48 38t34 72.5t13 114.5zM229 699l90 -128h-17l-82 110l-82 -110h-17l90 128h18zM353 764q0 22 -13 35.5t-36 13.5q-25 0 -37 -13t-12 -30q0 -10 1 -12t2 -3l-19 2q-8 28 9.5 50
t55.5 22q31 0 49 -17t18 -44q0 -24 -10 -37t-22 -23t-22 -21t-10 -30h-17q0 22 10 34.5t21.5 22.5t21.5 20.5t10 29.5z" />
    <glyph glyph-name="uni1ED6" unicode="&#x1ed6;" horiz-adv-x="610" 
d="M60 334q0 105 18 177.5t50.5 117.5t77 65.5t98.5 20.5t99 -20t77.5 -65t51 -118t18.5 -178q0 -100 -22 -167t-57 -107.5t-78.5 -57.5t-86.5 -17t-86.5 17.5t-79 58t-58 107.5t-22.5 166zM532 334q0 100 -17.5 169t-48 112.5t-72 63t-90.5 19.5t-90.5 -19.5t-71.5 -62.5
t-47 -112.5t-17 -169.5q0 -95 21.5 -158.5t54.5 -102t73.5 -55t78.5 -16.5t78 16.5t73 55t54 102t21 158.5zM309 899l90 -128h-17l-82 110l-82 -110h-17l90 128h18zM418 1009q1 -5 2 -9t2 -8.5t1 -9.5q0 -22 -14 -38.5t-44 -16.5q-19 0 -36.5 11.5t-34 25t-31.5 25t-28 11.5
q-16 0 -29 -7.5t-13 -32.5q0 -7 0.5 -11.5t1.5 -8.5t3 -7h-16q-2 5 -3 9q-2 10 -2 18q0 22 14 38.5t44 16.5q17 0 33.5 -11.5t32.5 -25t32 -25t32 -11.5q17 0 29.5 7.5t12.5 32.5q0 6 -1 11t-2 9t-2 7h16z" />
    <glyph glyph-name="uni1ED7" unicode="&#x1ed7;" horiz-adv-x="442" 
d="M55 238q0 77 11 129.5t32 85.5t51.5 47.5t70.5 14.5t71 -14.5t52.5 -47t32.5 -85.5t11 -130q0 -73 -14.5 -121.5t-37.5 -78t-53 -41.5t-61 -12q-32 0 -61.5 12t-53 41t-37.5 77.5t-14 122.5zM370 238q0 73 -10.5 122.5t-30 80t-47.5 44t-62 13.5q-35 0 -62.5 -13
t-46.5 -43.5t-29 -80.5t-10 -123q0 -70 13 -115.5t34 -72.5t47.5 -37.5t54.5 -10.5q27 0 54 11t48 38t34 72.5t13 114.5zM229 699l90 -128h-17l-82 110l-82 -110h-17l90 128h18zM339 794q1 -5 2 -9t2 -8.5t1 -9.5q0 -22 -14 -38.5t-44 -16.5q-19 0 -36.5 11.5t-34 25
t-31.5 25t-28 11.5q-16 0 -29 -7.5t-13 -32.5q0 -7 0.5 -11.5t1.5 -8.5t3 -7h-16q-2 5 -3 9q-2 10 -2 18q0 22 14 38.5t44 16.5q17 0 33.5 -11.5t32.5 -25t32 -25t32 -11.5q17 0 29.5 7.5t12.5 32.5q0 6 -1 11t-2 9t-2 7h16z" />
    <glyph glyph-name="uni1ED8" unicode="&#x1ed8;" horiz-adv-x="596" 
d="M46 334q0 105 18 177.5t50.5 117.5t77 65.5t98.5 20.5t99 -20t77.5 -65t51 -118t18.5 -178q0 -100 -22 -167t-57 -107.5t-78.5 -57.5t-86.5 -17t-86.5 17.5t-79 58t-58 107.5t-22.5 166zM518 334q0 100 -17.5 169t-48 112.5t-72 63t-90.5 19.5t-90.5 -19.5t-71.5 -62.5
t-47 -112.5t-17 -169.5q0 -95 21.5 -158.5t54.5 -102t73.5 -55t78.5 -16.5t78 16.5t73 55t54 102t21 158.5zM270 -100q0 12 8 20t20 8t20 -8t8 -20t-8 -20t-20 -8t-20 8t-8 20zM307 899l90 -128h-17l-82 110l-82 -110h-17l90 128h18z" />
    <glyph glyph-name="uni1ED9" unicode="&#x1ed9;" horiz-adv-x="442" 
d="M55 238q0 77 11 129.5t32 85.5t51.5 47.5t70.5 14.5t71 -14.5t52.5 -47t32.5 -85.5t11 -130q0 -73 -14.5 -121.5t-37.5 -78t-53 -41.5t-61 -12q-32 0 -61.5 12t-53 41t-37.5 77.5t-14 122.5zM370 238q0 73 -10.5 122.5t-30 80t-47.5 44t-62 13.5q-35 0 -62.5 -13
t-46.5 -43.5t-29 -80.5t-10 -123q0 -70 13 -115.5t34 -72.5t47.5 -37.5t54.5 -10.5q27 0 54 11t48 38t34 72.5t13 114.5zM193 -100q0 12 8 20t20 8t20 -8t8 -20t-8 -20t-20 -8t-20 8t-8 20zM230 699l90 -128h-17l-82 110l-82 -110h-17l90 128h18z" />
    <glyph glyph-name="uni1EDA" unicode="&#x1eda;" horiz-adv-x="596" 
d="M46 334q0 105 18 177.5t50.5 117.5t77 65.5t98.5 20.5q69 0 123 -34t86 -112q9 6 19.5 14.5t17.5 16.5q16 19 18 42.5t-2 42.5q-2 12 7 15q5 2 9.5 0t6.5 -8q3 -17 2 -35q-1 -15 -6 -32.5t-19 -33.5q-9 -11 -20.5 -20.5t-26.5 -17.5q15 -42 23 -96t8 -123
q0 -100 -22 -167t-57 -107.5t-78.5 -57.5t-86.5 -17t-86.5 17.5t-79 58t-58 107.5t-22.5 166zM518 334q0 100 -17.5 169t-48 112.5t-72 63t-90.5 19.5t-90.5 -19.5t-71.5 -62.5t-47 -112.5t-17 -169.5q0 -95 21.5 -158.5t54.5 -102t73.5 -55t78.5 -16.5t78 16.5t73 55
t54 102t21 158.5zM271 758l99 141l18 -11l-101 -130h-16z" />
    <glyph glyph-name="uni1EDB" unicode="&#x1edb;" horiz-adv-x="442" 
d="M55 238q0 77 11 129.5t32 85.5t51.5 47.5t70.5 14.5q55 0 93 -28.5t57 -95.5q9 5 19.5 13t15.5 19q6 14 8.5 28.5t-1.5 33.5q-2 12 7 15q5 2 9.5 0t6.5 -8q3 -13 3 -25q0 -11 -2 -24t-9 -27t-21 -23.5t-32 -17.5q13 -53 13 -137q0 -73 -14.5 -121.5t-37.5 -78t-53 -41.5
t-61 -12q-32 0 -61.5 12t-53 41t-37.5 77.5t-14 122.5zM370 238q0 73 -10.5 122.5t-30 80t-47.5 44t-62 13.5q-35 0 -62.5 -13t-46.5 -43.5t-29 -80.5t-10 -123q0 -70 13 -115.5t34 -72.5t47.5 -37.5t54.5 -10.5q27 0 54 11t48 38t34 72.5t13 114.5zM195 558l99 141l18 -11
l-101 -130h-16z" />
    <glyph glyph-name="uni1EDC" unicode="&#x1edc;" horiz-adv-x="596" 
d="M46 334q0 105 18 177.5t50.5 117.5t77 65.5t98.5 20.5q69 0 123 -34t86 -112q9 6 19.5 14.5t17.5 16.5q16 19 18 42.5t-2 42.5q-2 12 7 15q5 2 9.5 0t6.5 -8q3 -17 2 -35q-1 -15 -6 -32.5t-19 -33.5q-9 -11 -20.5 -20.5t-26.5 -17.5q15 -42 23 -96t8 -123
q0 -100 -22 -167t-57 -107.5t-78.5 -57.5t-86.5 -17t-86.5 17.5t-79 58t-58 107.5t-22.5 166zM518 334q0 100 -17.5 169t-48 112.5t-72 63t-90.5 19.5t-90.5 -19.5t-71.5 -62.5t-47 -112.5t-17 -169.5q0 -95 21.5 -158.5t54.5 -102t73.5 -55t78.5 -16.5t78 16.5t73 55
t54 102t21 158.5zM315 758l-101 130l18 11l99 -141h-16z" />
    <glyph glyph-name="uni1EDD" unicode="&#x1edd;" horiz-adv-x="442" 
d="M55 238q0 77 11 129.5t32 85.5t51.5 47.5t70.5 14.5q55 0 93 -28.5t57 -95.5q9 5 19.5 13t15.5 19q6 14 8.5 28.5t-1.5 33.5q-2 12 7 15q5 2 9.5 0t6.5 -8q3 -13 3 -25q0 -11 -2 -24t-9 -27t-21 -23.5t-32 -17.5q13 -53 13 -137q0 -73 -14.5 -121.5t-37.5 -78t-53 -41.5
t-61 -12q-32 0 -61.5 12t-53 41t-37.5 77.5t-14 122.5zM370 238q0 73 -10.5 122.5t-30 80t-47.5 44t-62 13.5q-35 0 -62.5 -13t-46.5 -43.5t-29 -80.5t-10 -123q0 -70 13 -115.5t34 -72.5t47.5 -37.5t54.5 -10.5q27 0 54 11t48 38t34 72.5t13 114.5zM233 558l-101 130l18 11
l99 -141h-16z" />
    <glyph glyph-name="uni1EDE" unicode="&#x1ede;" horiz-adv-x="596" 
d="M46 334q0 105 18 177.5t50.5 117.5t77 65.5t98.5 20.5q69 0 123 -34t86 -112q9 6 19.5 14.5t17.5 16.5q16 19 18 42.5t-2 42.5q-2 12 7 15q5 2 9.5 0t6.5 -8q3 -17 2 -35q-1 -15 -6 -32.5t-19 -33.5q-9 -11 -20.5 -20.5t-26.5 -17.5q15 -42 23 -96t8 -123
q0 -100 -22 -167t-57 -107.5t-78.5 -57.5t-86.5 -17t-86.5 17.5t-79 58t-58 107.5t-22.5 166zM518 334q0 100 -17.5 169t-48 112.5t-72 63t-90.5 19.5t-90.5 -19.5t-71.5 -62.5t-47 -112.5t-17 -169.5q0 -95 21.5 -158.5t54.5 -102t73.5 -55t78.5 -16.5t78 16.5t73 55
t54 102t21 158.5zM351 865q0 22 -13 35.5t-36 13.5q-25 0 -37 -13t-12 -30q0 -10 1 -12t2 -3l-19 2q-8 28 9.5 50t55.5 22q31 0 49 -17t18 -44q0 -24 -10 -37t-22 -23t-22 -21t-10 -30h-17q0 22 10 34.5t21.5 22.5t21.5 20.5t10 29.5z" />
    <glyph glyph-name="uni1EDF" unicode="&#x1edf;" horiz-adv-x="442" 
d="M55 238q0 77 11 129.5t32 85.5t51.5 47.5t70.5 14.5q55 0 93 -28.5t57 -95.5q9 5 19.5 13t15.5 19q6 14 8.5 28.5t-1.5 33.5q-2 12 7 15q5 2 9.5 0t6.5 -8q3 -13 3 -25q0 -11 -2 -24t-9 -27t-21 -23.5t-32 -17.5q13 -53 13 -137q0 -73 -14.5 -121.5t-37.5 -78t-53 -41.5
t-61 -12q-32 0 -61.5 12t-53 41t-37.5 77.5t-14 122.5zM370 238q0 73 -10.5 122.5t-30 80t-47.5 44t-62 13.5q-35 0 -62.5 -13t-46.5 -43.5t-29 -80.5t-10 -123q0 -70 13 -115.5t34 -72.5t47.5 -37.5t54.5 -10.5q27 0 54 11t48 38t34 72.5t13 114.5zM274 665q0 22 -13 35.5
t-36 13.5q-25 0 -37 -13t-12 -30q0 -10 1 -12t2 -3l-19 2q-8 28 9.5 50t55.5 22q31 0 49 -17t18 -44q0 -24 -10 -37t-22 -23t-22 -21t-10 -30h-17q0 22 10 34.5t21.5 22.5t21.5 20.5t10 29.5z" />
    <glyph glyph-name="uni1EE0" unicode="&#x1ee0;" horiz-adv-x="596" 
d="M46 334q0 105 18 177.5t50.5 117.5t77 65.5t98.5 20.5q69 0 123 -34t86 -112q9 6 19.5 14.5t17.5 16.5q16 19 18 42.5t-2 42.5q-2 12 7 15q5 2 9.5 0t6.5 -8q3 -17 2 -35q-1 -15 -6 -32.5t-19 -33.5q-9 -11 -20.5 -20.5t-26.5 -17.5q15 -42 23 -96t8 -123
q0 -100 -22 -167t-57 -107.5t-78.5 -57.5t-86.5 -17t-86.5 17.5t-79 58t-58 107.5t-22.5 166zM518 334q0 100 -17.5 169t-48 112.5t-72 63t-90.5 19.5t-90.5 -19.5t-71.5 -62.5t-47 -112.5t-17 -169.5q0 -95 21.5 -158.5t54.5 -102t73.5 -55t78.5 -16.5t78 16.5t73 55
t54 102t21 158.5zM416 866q1 -5 2 -9t2 -8.5t1 -9.5q0 -22 -14 -38.5t-44 -16.5q-19 0 -36.5 11.5t-34 25t-31.5 25t-28 11.5q-16 0 -29 -7.5t-13 -32.5q0 -7 0.5 -11.5t1.5 -8.5t3 -7h-16q-2 5 -3 9q-2 10 -2 18q0 22 14 38.5t44 16.5q17 0 33.5 -11.5t32.5 -25t32 -25
t32 -11.5q17 0 29.5 7.5t12.5 32.5q0 6 -1 11t-2 9t-2 7h16z" />
    <glyph glyph-name="uni1EE1" unicode="&#x1ee1;" horiz-adv-x="442" 
d="M55 238q0 77 11 129.5t32 85.5t51.5 47.5t70.5 14.5q55 0 93 -28.5t57 -95.5q9 5 19.5 13t15.5 19q6 14 8.5 28.5t-1.5 33.5q-2 12 7 15q5 2 9.5 0t6.5 -8q3 -13 3 -25q0 -11 -2 -24t-9 -27t-21 -23.5t-32 -17.5q13 -53 13 -137q0 -73 -14.5 -121.5t-37.5 -78t-53 -41.5
t-61 -12q-32 0 -61.5 12t-53 41t-37.5 77.5t-14 122.5zM370 238q0 73 -10.5 122.5t-30 80t-47.5 44t-62 13.5q-35 0 -62.5 -13t-46.5 -43.5t-29 -80.5t-10 -123q0 -70 13 -115.5t34 -72.5t47.5 -37.5t54.5 -10.5q27 0 54 11t48 38t34 72.5t13 114.5zM339 666q1 -5 2 -9
t2 -8.5t1 -9.5q0 -22 -14 -38.5t-44 -16.5q-19 0 -36.5 11.5t-34 25t-31.5 25t-28 11.5q-16 0 -29 -7.5t-13 -32.5q0 -7 0.5 -11.5t1.5 -8.5t3 -7h-16q-2 5 -3 9q-2 10 -2 18q0 22 14 38.5t44 16.5q17 0 33.5 -11.5t32.5 -25t32 -25t32 -11.5q17 0 29.5 7.5t12.5 32.5
q0 6 -1 11t-2 9t-2 7h16z" />
    <glyph glyph-name="uni1EE2" unicode="&#x1ee2;" horiz-adv-x="596" 
d="M46 334q0 105 18 177.5t50.5 117.5t77 65.5t98.5 20.5q69 0 123 -34t86 -112q9 6 19.5 14.5t17.5 16.5q16 19 18 42.5t-2 42.5q-2 12 7 15q5 2 9.5 0t6.5 -8q3 -17 2 -35q-1 -15 -6 -32.5t-19 -33.5q-9 -11 -20.5 -20.5t-26.5 -17.5q15 -42 23 -96t8 -123
q0 -100 -22 -167t-57 -107.5t-78.5 -57.5t-86.5 -17t-86.5 17.5t-79 58t-58 107.5t-22.5 166zM518 334q0 100 -17.5 169t-48 112.5t-72 63t-90.5 19.5t-90.5 -19.5t-71.5 -62.5t-47 -112.5t-17 -169.5q0 -95 21.5 -158.5t54.5 -102t73.5 -55t78.5 -16.5t78 16.5t73 55
t54 102t21 158.5zM270 -100q0 12 8 20t20 8t20 -8t8 -20t-8 -20t-20 -8t-20 8t-8 20z" />
    <glyph glyph-name="uni1EE3" unicode="&#x1ee3;" horiz-adv-x="442" 
d="M55 238q0 77 11 129.5t32 85.5t51.5 47.5t70.5 14.5q55 0 93 -28.5t57 -95.5q9 5 19.5 13t15.5 19q6 14 8.5 28.5t-1.5 33.5q-2 12 7 15q5 2 9.5 0t6.5 -8q3 -13 3 -25q0 -11 -2 -24t-9 -27t-21 -23.5t-32 -17.5q13 -53 13 -137q0 -73 -14.5 -121.5t-37.5 -78t-53 -41.5
t-61 -12q-32 0 -61.5 12t-53 41t-37.5 77.5t-14 122.5zM370 238q0 73 -10.5 122.5t-30 80t-47.5 44t-62 13.5q-35 0 -62.5 -13t-46.5 -43.5t-29 -80.5t-10 -123q0 -70 13 -115.5t34 -72.5t47.5 -37.5t54.5 -10.5q27 0 54 11t48 38t34 72.5t13 114.5zM193 -100q0 12 8 20
t20 8t20 -8t8 -20t-8 -20t-20 -8t-20 8t-8 20z" />
    <glyph glyph-name="uni1EE4" unicode="&#x1ee4;" horiz-adv-x="549" 
d="M78 310q0 -90 15 -149.5t41.5 -94.5t63 -49.5t78.5 -14.5t77.5 14t62 49t41 94t14.5 149v392h18v-392q0 -96 -16.5 -158t-45 -99t-67.5 -51.5t-84 -14.5q-46 0 -85.5 15t-68.5 52t-45.5 100t-16.5 158v390h18v-390zM246 -100q0 12 8 20t20 8t20 -8t8 -20t-8 -20t-20 -8
t-20 8t-8 20z" />
    <glyph glyph-name="uni1EE5" unicode="&#x1ee5;" 
d="M351 45q0 -19 4.5 -23.5t14.5 -4.5h14v-17h-15q-17 0 -26 10t-9 35v58q-1 -2 -7.5 -21t-22.5 -40.5t-43.5 -39t-70.5 -17.5q-63 0 -96.5 39t-33.5 102v374h17v-374q0 -57 30.5 -90.5t82.5 -33.5q42 0 69.5 22.5t44.5 50.5q19 33 30 74v351h17v-455zM194 -100q0 12 8 20
t20 8t20 -8t8 -20t-8 -20t-20 -8t-20 8t-8 20z" />
    <glyph glyph-name="uni1EE6" unicode="&#x1ee6;" horiz-adv-x="549" 
d="M78 310q0 -90 15 -149.5t41.5 -94.5t63 -49.5t78.5 -14.5t77.5 14t62 49t41 94t14.5 149v392h18v-392q0 -96 -16.5 -158t-45 -99t-67.5 -51.5t-84 -14.5q-46 0 -85.5 15t-68.5 52t-45.5 100t-16.5 158v390h18v-390zM327 865q0 22 -13 35.5t-36 13.5q-25 0 -37 -13
t-12 -30q0 -10 1 -12t2 -3l-19 2q-8 28 9.5 50t55.5 22q31 0 49 -17t18 -44q0 -24 -10 -37t-22 -23t-22 -21t-10 -30h-17q0 22 10 34.5t21.5 22.5t21.5 20.5t10 29.5z" />
    <glyph glyph-name="uni1EE7" unicode="&#x1ee7;" 
d="M351 45q0 -19 4.5 -23.5t14.5 -4.5h14v-17h-15q-17 0 -26 10t-9 35v58q-1 -2 -7.5 -21t-22.5 -40.5t-43.5 -39t-70.5 -17.5q-63 0 -96.5 39t-33.5 102v374h17v-374q0 -57 30.5 -90.5t82.5 -33.5q42 0 69.5 22.5t44.5 50.5q19 33 30 74v351h17v-455zM275 665
q0 22 -13 35.5t-36 13.5q-25 0 -37 -13t-12 -30q0 -10 1 -12t2 -3l-19 2q-8 28 9.5 50t55.5 22q31 0 49 -17t18 -44q0 -24 -10 -37t-22 -23t-22 -21t-10 -30h-17q0 22 10 34.5t21.5 22.5t21.5 20.5t10 29.5z" />
    <glyph glyph-name="uni1EE8" unicode="&#x1ee8;" horiz-adv-x="549" 
d="M78 310q0 -90 15 -149.5t41.5 -94.5t63 -49.5t78.5 -14.5t77.5 14t62 49t41 94t14.5 149v392h18v-133q9 6 20 15t19 18q16 19 18 42.5t-2 42.5q-2 12 7 15q5 2 9.5 0t6.5 -8q3 -17 2 -35q-1 -15 -6 -32.5t-19 -33.5q-11 -12 -24 -22.5t-31 -19.5v-241q0 -96 -16.5 -158
t-45 -99t-67.5 -51.5t-84 -14.5q-46 0 -85.5 15t-68.5 52t-45.5 100t-16.5 158v390h18v-390zM254 758l99 141l18 -11l-101 -130h-16z" />
    <glyph glyph-name="uni1EE9" unicode="&#x1ee9;" 
d="M351 385q8 5 23.5 14.5t22.5 23.5q6 14 8.5 28.5t-1.5 33.5q-2 12 7 15q5 2 9.5 0t6.5 -8q3 -13 3 -25q0 -11 -2 -24t-9 -27q-8 -16 -26.5 -27t-41.5 -20v-324q0 -19 4.5 -23.5t14.5 -4.5h14v-17h-15q-17 0 -26 10t-9 35v58q-1 -2 -7.5 -21t-22.5 -40.5t-43.5 -39
t-70.5 -17.5q-63 0 -96.5 39t-33.5 102v374h17v-374q0 -57 30.5 -90.5t82.5 -33.5q42 0 69.5 22.5t44.5 50.5q19 33 30 74v351h17v-115zM177 558l99 141l18 -11l-101 -130h-16z" />
    <glyph glyph-name="uni1EEA" unicode="&#x1eea;" horiz-adv-x="549" 
d="M78 310q0 -90 15 -149.5t41.5 -94.5t63 -49.5t78.5 -14.5t77.5 14t62 49t41 94t14.5 149v392h18v-133q9 6 20 15t19 18q16 19 18 42.5t-2 42.5q-2 12 7 15q5 2 9.5 0t6.5 -8q3 -17 2 -35q-1 -15 -6 -32.5t-19 -33.5q-11 -12 -24 -22.5t-31 -19.5v-241q0 -96 -16.5 -158
t-45 -99t-67.5 -51.5t-84 -14.5q-46 0 -85.5 15t-68.5 52t-45.5 100t-16.5 158v390h18v-390zM270 758l-101 130l18 11l99 -141h-16z" />
    <glyph glyph-name="uni1EEB" unicode="&#x1eeb;" 
d="M351 385q8 5 23.5 14.5t22.5 23.5q6 14 8.5 28.5t-1.5 33.5q-2 12 7 15q5 2 9.5 0t6.5 -8q3 -13 3 -25q0 -11 -2 -24t-9 -27q-8 -16 -26.5 -27t-41.5 -20v-324q0 -19 4.5 -23.5t14.5 -4.5h14v-17h-15q-17 0 -26 10t-9 35v58q-1 -2 -7.5 -21t-22.5 -40.5t-43.5 -39
t-70.5 -17.5q-63 0 -96.5 39t-33.5 102v374h17v-374q0 -57 30.5 -90.5t82.5 -33.5q42 0 69.5 22.5t44.5 50.5q19 33 30 74v351h17v-115zM225 558l-101 130l18 11l99 -141h-16z" />
    <glyph glyph-name="uni1EEC" unicode="&#x1eec;" horiz-adv-x="549" 
d="M78 310q0 -90 15 -149.5t41.5 -94.5t63 -49.5t78.5 -14.5t77.5 14t62 49t41 94t14.5 149v392h18v-133q9 6 20 15t19 18q16 19 18 42.5t-2 42.5q-2 12 7 15q5 2 9.5 0t6.5 -8q3 -17 2 -35q-1 -15 -6 -32.5t-19 -33.5q-11 -12 -24 -22.5t-31 -19.5v-241q0 -96 -16.5 -158
t-45 -99t-67.5 -51.5t-84 -14.5q-46 0 -85.5 15t-68.5 52t-45.5 100t-16.5 158v390h18v-390zM327 865q0 22 -13 35.5t-36 13.5q-25 0 -37 -13t-12 -30q0 -10 1 -12t2 -3l-19 2q-8 28 9.5 50t55.5 22q31 0 49 -17t18 -44q0 -24 -10 -37t-22 -23t-22 -21t-10 -30h-17
q0 22 10 34.5t21.5 22.5t21.5 20.5t10 29.5z" />
    <glyph glyph-name="uni1EED" unicode="&#x1eed;" 
d="M351 385q8 5 23.5 14.5t22.5 23.5q6 14 8.5 28.5t-1.5 33.5q-2 12 7 15q5 2 9.5 0t6.5 -8q3 -13 3 -25q0 -11 -2 -24t-9 -27q-8 -16 -26.5 -27t-41.5 -20v-324q0 -19 4.5 -23.5t14.5 -4.5h14v-17h-15q-17 0 -26 10t-9 35v58q-1 -2 -7.5 -21t-22.5 -40.5t-43.5 -39
t-70.5 -17.5q-63 0 -96.5 39t-33.5 102v374h17v-374q0 -57 30.5 -90.5t82.5 -33.5q42 0 69.5 22.5t44.5 50.5q19 33 30 74v351h17v-115zM275 665q0 22 -13 35.5t-36 13.5q-25 0 -37 -13t-12 -30q0 -10 1 -12t2 -3l-19 2q-8 28 9.5 50t55.5 22q31 0 49 -17t18 -44
q0 -24 -10 -37t-22 -23t-22 -21t-10 -30h-17q0 22 10 34.5t21.5 22.5t21.5 20.5t10 29.5z" />
    <glyph glyph-name="uni1EEE" unicode="&#x1eee;" horiz-adv-x="549" 
d="M78 310q0 -90 15 -149.5t41.5 -94.5t63 -49.5t78.5 -14.5t77.5 14t62 49t41 94t14.5 149v392h18v-133q9 6 20 15t19 18q16 19 18 42.5t-2 42.5q-2 12 7 15q5 2 9.5 0t6.5 -8q3 -17 2 -35q-1 -15 -6 -32.5t-19 -33.5q-11 -12 -24 -22.5t-31 -19.5v-241q0 -96 -16.5 -158
t-45 -99t-67.5 -51.5t-84 -14.5q-46 0 -85.5 15t-68.5 52t-45.5 100t-16.5 158v390h18v-390zM387 866q1 -5 2 -9t2 -8.5t1 -9.5q0 -22 -14 -38.5t-44 -16.5q-19 0 -36.5 11.5t-34 25t-31.5 25t-28 11.5q-16 0 -29 -7.5t-13 -32.5q0 -7 0.5 -11.5t1.5 -8.5t3 -7h-16
q-2 5 -3 9q-2 10 -2 18q0 22 14 38.5t44 16.5q17 0 33.5 -11.5t32.5 -25t32 -25t32 -11.5q17 0 29.5 7.5t12.5 32.5q0 6 -1 11t-2 9t-2 7h16z" />
    <glyph glyph-name="uni1EEF" unicode="&#x1eef;" 
d="M351 385q8 5 23.5 14.5t22.5 23.5q6 14 8.5 28.5t-1.5 33.5q-2 12 7 15q5 2 9.5 0t6.5 -8q3 -13 3 -25q0 -11 -2 -24t-9 -27q-8 -16 -26.5 -27t-41.5 -20v-324q0 -19 4.5 -23.5t14.5 -4.5h14v-17h-15q-17 0 -26 10t-9 35v58q-1 -2 -7.5 -21t-22.5 -40.5t-43.5 -39
t-70.5 -17.5q-63 0 -96.5 39t-33.5 102v374h17v-374q0 -57 30.5 -90.5t82.5 -33.5q42 0 69.5 22.5t44.5 50.5q19 33 30 74v351h17v-115zM340 666q1 -5 2 -9t2 -8.5t1 -9.5q0 -22 -14 -38.5t-44 -16.5q-19 0 -36.5 11.5t-34 25t-31.5 25t-28 11.5q-16 0 -29 -7.5t-13 -32.5
q0 -7 0.5 -11.5t1.5 -8.5t3 -7h-16q-2 5 -3 9q-2 10 -2 18q0 22 14 38.5t44 16.5q17 0 33.5 -11.5t32.5 -25t32 -25t32 -11.5q17 0 29.5 7.5t12.5 32.5q0 6 -1 11t-2 9t-2 7h16z" />
    <glyph glyph-name="uni1EF0" unicode="&#x1ef0;" horiz-adv-x="549" 
d="M78 310q0 -90 15 -149.5t41.5 -94.5t63 -49.5t78.5 -14.5t77.5 14t62 49t41 94t14.5 149v392h18v-133q9 6 20 15t19 18q16 19 18 42.5t-2 42.5q-2 12 7 15q5 2 9.5 0t6.5 -8q3 -17 2 -35q-1 -15 -6 -32.5t-19 -33.5q-11 -12 -24 -22.5t-31 -19.5v-241q0 -96 -16.5 -158
t-45 -99t-67.5 -51.5t-84 -14.5q-46 0 -85.5 15t-68.5 52t-45.5 100t-16.5 158v390h18v-390zM246 -100q0 12 8 20t20 8t20 -8t8 -20t-8 -20t-20 -8t-20 8t-8 20z" />
    <glyph glyph-name="uni1EF1" unicode="&#x1ef1;" 
d="M351 385q8 5 23.5 14.5t22.5 23.5q6 14 8.5 28.5t-1.5 33.5q-2 12 7 15q5 2 9.5 0t6.5 -8q3 -13 3 -25q0 -11 -2 -24t-9 -27q-8 -16 -26.5 -27t-41.5 -20v-324q0 -19 4.5 -23.5t14.5 -4.5h14v-17h-15q-17 0 -26 10t-9 35v58q-1 -2 -7.5 -21t-22.5 -40.5t-43.5 -39
t-70.5 -17.5q-63 0 -96.5 39t-33.5 102v374h17v-374q0 -57 30.5 -90.5t82.5 -33.5q42 0 69.5 22.5t44.5 50.5q19 33 30 74v351h17v-115zM194 -100q0 12 8 20t20 8t20 -8t8 -20t-8 -20t-20 -8t-20 8t-8 20z" />
    <glyph glyph-name="Ygrave" unicode="&#x1ef2;" horiz-adv-x="553" 
d="M287 310v-310h-18v310l-254 390h23l240 -371l239 371h21zM294 758l-101 130l18 11l99 -141h-16z" />
    <glyph glyph-name="ygrave" unicode="&#x1ef3;" horiz-adv-x="408" 
d="M208 0l-180 500h21l168 -471l152 471h19l-160 -500l-38 -110q-9 -27 -19 -52t-24 -45t-35 -32t-52 -12h-40v17h40q26 0 43 8.5t29 25t20.5 39t18.5 51.5zM232 558l-101 130l18 11l99 -141h-16z" />
    <glyph glyph-name="uni1EF4" unicode="&#x1ef4;" horiz-adv-x="553" 
d="M287 310v-310h-18v310l-254 390h23l240 -371l239 371h21zM248 -100q0 12 8 20t20 8t20 -8t8 -20t-8 -20t-20 -8t-20 8t-8 20z" />
    <glyph glyph-name="uni1EF5" unicode="&#x1ef5;" horiz-adv-x="408" 
d="M208 0l-180 500h21l168 -471l152 471h19l-160 -500l-38 -110q-9 -27 -19 -52t-24 -45t-35 -32t-52 -12h-40v17h40q26 0 43 8.5t29 25t20.5 39t18.5 51.5zM247 -100q0 12 8 20t20 8t20 -8t8 -20t-8 -20t-20 -8t-20 8t-8 20z" />
    <glyph glyph-name="uni1EF6" unicode="&#x1ef6;" horiz-adv-x="553" 
d="M287 310v-310h-18v310l-254 390h23l240 -371l239 371h21zM329 865q0 22 -13 35.5t-36 13.5q-25 0 -37 -13t-12 -30q0 -10 1 -12t2 -3l-19 2q-8 28 9.5 50t55.5 22q31 0 49 -17t18 -44q0 -24 -10 -37t-22 -23t-22 -21t-10 -30h-17q0 22 10 34.5t21.5 22.5t21.5 20.5
t10 29.5z" />
    <glyph glyph-name="uni1EF7" unicode="&#x1ef7;" horiz-adv-x="408" 
d="M208 0l-180 500h21l168 -471l152 471h19l-160 -500l-38 -110q-9 -27 -19 -52t-24 -45t-35 -32t-52 -12h-40v17h40q26 0 43 8.5t29 25t20.5 39t18.5 51.5zM257 665q0 22 -13 35.5t-36 13.5q-25 0 -37 -13t-12 -30q0 -10 1 -12t2 -3l-19 2q-8 28 9.5 50t55.5 22
q31 0 49 -17t18 -44q0 -24 -10 -37t-22 -23t-22 -21t-10 -30h-17q0 22 10 34.5t21.5 22.5t21.5 20.5t10 29.5z" />
    <glyph glyph-name="uni1EF8" unicode="&#x1ef8;" horiz-adv-x="553" 
d="M287 310v-310h-18v310l-254 390h23l240 -371l239 371h21zM394 866q1 -5 2 -9t2 -8.5t1 -9.5q0 -22 -14 -38.5t-44 -16.5q-19 0 -36.5 11.5t-34 25t-31.5 25t-28 11.5q-16 0 -29 -7.5t-13 -32.5q0 -7 0.5 -11.5t1.5 -8.5t3 -7h-16q-2 5 -3 9q-2 10 -2 18q0 22 14 38.5
t44 16.5q17 0 33.5 -11.5t32.5 -25t32 -25t32 -11.5q17 0 29.5 7.5t12.5 32.5q0 6 -1 11t-2 9t-2 7h16z" />
    <glyph glyph-name="uni1EF9" unicode="&#x1ef9;" horiz-adv-x="408" 
d="M208 0l-180 500h21l168 -471l152 471h19l-160 -500l-38 -110q-9 -27 -19 -52t-24 -45t-35 -32t-52 -12h-40v17h40q26 0 43 8.5t29 25t20.5 39t18.5 51.5zM342 666q1 -5 2 -9t2 -8.5t1 -9.5q0 -22 -14 -38.5t-44 -16.5q-19 0 -36.5 11.5t-34 25t-31.5 25t-28 11.5
q-16 0 -29 -7.5t-13 -32.5q0 -7 0.5 -11.5t1.5 -8.5t3 -7h-16q-2 5 -3 9q-2 10 -2 18q0 22 14 38.5t44 16.5q17 0 33.5 -11.5t32.5 -25t32 -25t32 -11.5q17 0 29.5 7.5t12.5 32.5q0 6 -1 11t-2 9t-2 7h16z" />
    <glyph glyph-name="endash" unicode="&#x2013;" horiz-adv-x="403" 
d="M60 281h283v-18h-283v18z" />
    <glyph glyph-name="emdash" unicode="&#x2014;" horiz-adv-x="558" 
d="M60 281h438v-18h-438v18z" />
    <glyph glyph-name="quoteleft" unicode="&#x2018;" horiz-adv-x="172" 
d="M112 682q0 -11 -7.5 -18.5t-18.5 -7.5t-18.5 8.5t-7.5 20.5q0 14 2.5 27t6.5 23q4 11 10 21h17l-8 -18q-3 -8 -5 -16t-2 -14h5q11 0 18.5 -7.5t7.5 -18.5z" />
    <glyph glyph-name="quoteright" unicode="&#x2019;" horiz-adv-x="149" 
d="M37 730q0 11 7.5 18.5t18.5 7.5t18.5 -8.5t7.5 -20.5q0 -15 -3 -27.5t-7 -22.5q-4 -11 -9 -21h-17q3 9 7 18q3 8 5.5 16t2.5 14h-5q-11 0 -18.5 7.5t-7.5 18.5z" />
    <glyph glyph-name="quotesinglbase" unicode="&#x201a;" horiz-adv-x="142" 
d="M30 11q0 11 7.5 18.5t18.5 7.5t18.5 -8.5t7.5 -20.5q0 -15 -3 -27.5t-7 -22.5q-4 -11 -9 -21h-17q3 9 7 18q3 8 5.5 16t2.5 14h-5q-11 0 -18.5 7.5t-7.5 18.5z" />
    <glyph glyph-name="quotedblleft" unicode="&#x201c;" horiz-adv-x="240" 
d="M180 682q0 -11 -7.5 -18.5t-18.5 -7.5t-18.5 8.5t-7.5 20.5q0 14 2.5 27t6.5 23q4 11 10 21h17l-8 -18q-3 -8 -5 -16t-2 -14h5q11 0 18.5 -7.5t7.5 -18.5zM112 682q0 -11 -7.5 -18.5t-18.5 -7.5t-18.5 8.5t-7.5 20.5q0 14 2.5 27t6.5 23q4 11 10 21h17l-8 -18
q-3 -8 -5 -16t-2 -14h5q11 0 18.5 -7.5t7.5 -18.5z" />
    <glyph glyph-name="quotedblright" unicode="&#x201d;" horiz-adv-x="240" 
d="M60 730q0 11 7.5 18.5t18.5 7.5t18.5 -8.5t7.5 -20.5q0 -15 -3 -27.5t-7 -22.5q-4 -11 -9 -21h-17q3 9 7 18q3 8 5.5 16t2.5 14h-5q-11 0 -18.5 7.5t-7.5 18.5zM128 730q0 11 7.5 18.5t18.5 7.5t18.5 -8.5t7.5 -20.5q0 -15 -3 -27.5t-7 -22.5q-4 -11 -9 -21h-17q3 9 7 18
q3 8 5.5 16t2.5 14h-5q-11 0 -18.5 7.5t-7.5 18.5z" />
    <glyph glyph-name="quotedblbase" unicode="&#x201e;" horiz-adv-x="210" 
d="M30 11q0 11 7.5 18.5t18.5 7.5t18.5 -8.5t7.5 -20.5q0 -15 -3 -27.5t-7 -22.5q-4 -11 -9 -21h-17q3 9 7 18q3 8 5.5 16t2.5 14h-5q-11 0 -18.5 7.5t-7.5 18.5zM98 11q0 11 7.5 18.5t18.5 7.5t18.5 -8.5t7.5 -20.5q0 -15 -3 -27.5t-7 -22.5q-4 -11 -9 -21h-17q3 9 7 18
q3 8 5.5 16t2.5 14h-5q-11 0 -18.5 7.5t-7.5 18.5z" />
    <glyph glyph-name="dagger" unicode="&#x2020;" horiz-adv-x="252" 
d="M60 598h58v165h16v-165h58v-18h-58v-703h-16v703h-58v18z" />
    <glyph glyph-name="daggerdbl" unicode="&#x2021;" horiz-adv-x="252" 
d="M60 598h58v165h16v-165h58v-18h-58v-521h58v-18h-58v-164h-16v164h-58v18h58v521h-58v18z" />
    <glyph glyph-name="bullet" unicode="&#x2022;" horiz-adv-x="332" 
d="M60 369q0 45 30.5 75.5t75.5 30.5t75.5 -30.5t30.5 -75.5t-30.5 -75.5t-75.5 -30.5t-75.5 30.5t-30.5 75.5z" />
    <glyph glyph-name="ellipsis" unicode="&#x2026;" horiz-adv-x="288" 
d="M30 11q0 11 8 18.5t18 7.5t18 -7.5t8 -18.5t-8 -18.5t-18 -7.5t-18 7.5t-8 18.5zM103 11q0 11 8 18.5t18 7.5t18 -7.5t8 -18.5t-8 -18.5t-18 -7.5t-18 7.5t-8 18.5zM176 11q0 11 8 18.5t18 7.5t18 -7.5t8 -18.5t-8 -18.5t-18 -7.5t-18 7.5t-8 18.5z" />
    <glyph glyph-name="perthousand" unicode="&#x2030;" horiz-adv-x="884" 
d="M124 -15l359 767h20l-359 -767h-20zM60 525q0 101 26.5 145.5t80.5 44.5t81.5 -44.5t27.5 -145.5q0 -49 -9 -82.5t-24 -54t-34.5 -29.5t-40.5 -9t-40.5 9t-34.5 29.5t-24 54t-9 82.5zM260 525q0 50 -6.5 83.5t-18.5 54t-29.5 29t-38.5 8.5t-38 -8.5t-29 -29t-18 -54
t-6 -83.5q0 -47 8 -78t20.5 -49t29 -25t34.5 -7t34.5 7.5t29.5 25.5t20.5 48.5t7.5 77.5zM347 160q0 101 26.5 145.5t80.5 44.5t81.5 -44.5t27.5 -145.5q0 -49 -9 -82.5t-24 -54t-34.5 -29.5t-40.5 -9t-40.5 9t-34.5 29.5t-24 54t-9 82.5zM547 160q0 50 -6.5 83.5t-18.5 54
t-29.5 29t-38.5 8.5t-38 -8.5t-29 -29t-18 -54t-6 -83.5q0 -47 8 -78t20.5 -49t29 -25t34.5 -7t34.5 7.5t29.5 25.5t20.5 48.5t7.5 77.5zM608 160q0 101 26.5 145.5t80.5 44.5t81.5 -44.5t27.5 -145.5q0 -49 -9 -82.5t-24 -54t-34.5 -29.5t-40.5 -9t-40.5 9t-34.5 29.5
t-24 54t-9 82.5zM808 160q0 50 -6.5 83.5t-18.5 54t-29.5 29t-38.5 8.5t-38 -8.5t-29 -29t-18 -54t-6 -83.5q0 -47 8 -78t20.5 -49t29 -25t34.5 -7t34.5 7.5t29.5 25.5t20.5 48.5t7.5 77.5z" />
    <glyph glyph-name="guilsinglleft" unicode="&#x2039;" horiz-adv-x="288" 
d="M60 255v18l168 166v-23l-151 -152l151 -155v-23z" />
    <glyph glyph-name="guilsinglright" unicode="&#x203a;" horiz-adv-x="288" 
d="M60 86v23l151 155l-151 152v23l168 -166v-18z" />
    <glyph glyph-name="fraction" unicode="&#x2044;" horiz-adv-x="551" 
d="M471 752h20l-410 -877h-21z" />
    <glyph glyph-name="zerosuperior" unicode="&#x2070;" horiz-adv-x="336" 
d="M60 525q0 101 26.5 145.5t80.5 44.5t81.5 -44.5t27.5 -145.5q0 -49 -9 -82.5t-24 -54t-34.5 -29.5t-40.5 -9t-40.5 9t-34.5 29.5t-24 54t-9 82.5zM260 525q0 50 -6.5 83.5t-18.5 54t-29.5 29t-38.5 8.5t-38 -8.5t-29 -29t-18 -54t-6 -83.5q0 -47 8 -78t20.5 -49t29 -25
t34.5 -7t34.5 7.5t29.5 25.5t20.5 48.5t7.5 77.5z" />
    <glyph glyph-name="Euro" unicode="&#x20ac;" horiz-adv-x="609" 
d="M520 579q-11 33 -33 59q-19 23 -52 41.5t-86 18.5q-42 0 -79 -14t-66 -45.5t-49 -81.5t-28 -122h320v-18h-322q-1 -13 -2 -27q-1 -12 -1 -27v-29q0 -37 3 -64q1 -16 3 -30h319v-18h-316q12 -62 34.5 -104t52 -68t62.5 -37t65 -11q63 0 100 23t57 52q23 33 31 76l16 -3
q-8 -47 -33 -83q-21 -31 -62 -56.5t-109 -25.5q-36 0 -72.5 12t-68 39.5t-56 73t-35.5 112.5h-81v18h78q-2 17 -3 34q-2 14 -2.5 30t-0.5 30v23t1 28l2 32h-75v18h77q8 76 29 129.5t52.5 87t71.5 48.5t87 15q58 0 94.5 -20t56.5 -44q24 -28 35 -64z" />
    <glyph glyph-name="trademark" unicode="&#x2122;" horiz-adv-x="645" 
d="M260 686h-108v-336h-17v336h-115v14h240v-14zM573 680l-116 -280h-10l-116 280l-19 -330h-15l20 350h21l114 -277l114 277h21l20 -350h-13z" />
    <glyph glyph-name="onethird" unicode="&#x2153;" horiz-adv-x="616" 
d="M62 374h93v302q-7 -11 -18.5 -21.5t-24.5 -19t-26.5 -14t-25.5 -5.5v15q12 0 28.5 9t31 21t25 24.5t10.5 20.5v2h16v-334h82v-16h-191v16zM139 -15l359 767h20l-359 -767h-20zM540 250q0 38 -23 61t-55 23q-24 0 -41 -7t-27.5 -18t-15.5 -25t-5 -28t2 -24q1 -5 2 -8h-16
l-2 8t-1.5 10t-0.5 16q0 15 5.5 31t18 29.5t32.5 22.5t49 9q39 0 66 -27.5t27 -72.5q0 -35 -13 -63t-33 -50.5t-42.5 -40t-42.5 -32t-33 -26.5t-13 -22h178v-16h-199v8q0 16 13.5 31t34 30.5t44 33t44 39t34 48t13.5 60.5z" />
    <glyph glyph-name="minus" unicode="&#x2212;" horiz-adv-x="394" 
d="M60 281h274v-18h-274v18z" />
    <glyph glyph-name="notequal" unicode="&#x2260;" horiz-adv-x="479" 
d="M60 371h177l39 129h20l-39 -129h162v-18h-167l-56 -190h223v-18h-229l-42 -145h-21l43 145h-110v18h115l57 190h-172v18z" />
    <glyph glyph-name="uniF8FF" unicode="&#xf8ff;" horiz-adv-x="1627" 
d="M623 355q1 -18 3 -40q1 -19 2 -46t1 -59q0 -72 -36 -104.5t-114 -32.5q-26 0 -44 3t-29 7q-13 4 -20 11v81q7 -5 18 -9q9 -3 22.5 -5.5t31.5 -2.5q25 0 39 5.5t22 12.5q9 8 11 18q-4 -4 -11 -8q-7 -3 -18 -5t-28 -2q-43 0 -68 16t-25 58v8h-45l2 -61h11q7 0 13 2q3 1 4 2
v-72q-3 -5 -10 -9q-6 -3 -18.5 -5.5t-32.5 -2.5q-42 0 -60.5 17t-18.5 47q0 9 0.5 22.5t0.5 26t0.5 22t0.5 11.5h-27v83l121 40l4 -29h165l-2 -106q0 -26 17 -26q14 0 14 26l-2 106h106zM784 394v82.5t2 61.5h-57l2 -63q0 -1 2 -1q2 -1 9 -1t13 2q3 1 4 2v-72q-2 -5 -10 -9
q-7 -3 -19.5 -5.5t-32.5 -2.5q-42 0 -60 16.5t-18 47.5q0 9 0.5 23t0.5 27t0.5 23.5t0.5 12.5h-23v83l116 36l4 -30h172q2 -20 4 -53q2 -28 3 -72t1 -108h-114zM822 363q35 0 56.5 -29t21.5 -83q0 -67 -33 -101.5t-94 -34.5q0 -5 1 -11q0 -5 0.5 -13t0.5 -18h-127
q0 64 1.5 116t3.5 89q3 43 6 77h78q1 -15 3 -29q2 -12 3 -24.5t1 -21.5q1 3 4 16t11 28t23 27t40 12zM469 631q60 0 88 -29t28 -83v-125h-76l-9 58q-6 -31 -22.5 -47.5t-51.5 -16.5q-42 0 -65.5 27.5t-23.5 84.5q0 63 30 97t102 34zM1059 394q0 34 1 54t1 40q0 14 -2.5 19.5
t-12.5 5.5q-8 0 -12.5 -5.5t-4.5 -19.5q0 -20 2.5 -40t2.5 -54h-113q0 65 1.5 109t3.5 72q3 33 6 52h76q1 -13 3 -25q1 -11 2 -24t1 -25q1 2 4 14.5t11.5 26.5t24 25.5t41.5 11.5q40 0 56 -23.5t18 -77.5l2 -136h-112zM1306 631q37 0 61 -10t37 -27t18 -39.5t5 -47.5
q0 -53 -29 -86t-92 -33q-62 0 -91 33t-29 86q0 25 5.5 47.5t19.5 39.5t37 27t58 10zM1152 249q0 -8 -1 -14.5t-2 -11.5l-2 -10h-118q1 -7 5 -12t12.5 -8.5t24.5 -3.5q14 0 23.5 2.5t15.5 5.5q7 4 12 9v-74q-5 -5 -15 -9q-8 -3 -22.5 -5.5t-34.5 -2.5q-70 0 -101.5 33.5
t-31.5 87.5q0 127 123 127q52 0 82 -30t30 -84zM202 394q0 65 1.5 120.5t3.5 97.5q3 48 6 89h95q2 -42 5 -90q2 -42 3.5 -97.5t1.5 -119.5h-116zM782 701q0 24 16.5 41.5t42.5 17.5t42.5 -17.5t16.5 -41.5q0 -26 -16.5 -43.5t-42.5 -17.5t-42.5 17.5t-16.5 43.5zM1175 320
q0 15 11 26t26 11t26 -11t11 -26t-11 -26t-26 -11t-26 11t-11 26zM1182 320q0 -12 9 -21t21 -9t21 9t9 21t-9 21t-21 9t-21 -9t-9 -21zM1306 466q24 0 24 30q0 27 -24 27q-23 0 -23 -27q0 -30 23 -30zM464 466q24 0 24 30q0 27 -24 27q-9 0 -15 -6.5t-6 -20.5t6 -22t15 -8z
M758 196q10 1 19 5q7 4 13 11t6 20q0 21 -19 21q-23 0 -23 -30q0 -6 0.5 -10.5t1.5 -8.5zM1229 327q0 -9 -8 -12l8 -13h-9l-7 11h-7v-11h-8v37h16q15 0 15 -12zM1057 238q3 14 -2.5 20.5t-14.5 6.5q-22 0 -22 -27h39zM1221 326q0 6 -7 6h-8v-12h8q7 0 7 6z" />
    <glyph glyph-name="ff" unicode="&#xfb00;" horiz-adv-x="646" 
d="M431 500h155v-16h-155v-484h-17v484h-264v-484h-17v484h-73v16h73v107q0 34 9.5 63t29 50t49.5 33t71 12q28 0 52 -9t42 -21t30 -24.5t17 -19.5q9 16 24 29q13 11 34 20.5t53 9.5h40v-17h-40q-52 0 -82.5 -33.5t-30.5 -90.5v-109zM150 500h264v109q0 27 5 47q3 11 6 19
q-1 2 -11.5 13.5t-28.5 25t-41.5 24t-51.5 10.5q-66 0 -104 -36t-38 -105v-107z" />
    <glyph glyph-name="fi" unicode="&#xfb01;" horiz-adv-x="524" 
d="M150 500h156v-16h-156v-484h-17v484h-73v16h73v109q0 34 9.5 63t29 50t49.5 33t71 12q35 0 61 -12.5t44 -27.5q21 -18 37 -40l-12 -11q-16 20 -36 37q-17 14 -41 25.5t-53 11.5q-66 0 -104 -36t-38 -105v-109zM431 45q0 -19 4.5 -23.5t14.5 -4.5h14v-17h-15
q-17 0 -26 10.5t-9 35.5v454h17v-455z" />
    <glyph glyph-name="fl" unicode="&#xfb02;" horiz-adv-x="524" 
d="M150 500h156v-16h-156v-484h-17v484h-73v16h73v109q0 34 9.5 63t29 50t49.5 33t71 12q35 0 61 -12.5t43 -26.5q20 -17 35 -38v-645q0 -19 4.5 -23.5t14.5 -4.5h14v-17h-15q-17 0 -26 10.5t-9 35.5v639q-5 6 -15.5 17t-26.5 21.5t-36 18.5t-44 8q-66 0 -104 -36t-38 -105
v-109z" />
    <glyph glyph-name="ffi" unicode="&#xfb03;" horiz-adv-x="805" 
d="M431 500h155v-16h-155v-484h-17v484h-264v-484h-17v484h-73v16h73v107q0 34 9.5 63t29 50t49.5 33t71 12q28 0 51 -9t41 -21t30 -24.5t18 -19.5q17 34 52 54t89 20q35 0 61 -12.5t44 -27.5q21 -18 37 -40l-12 -11q-16 20 -36 37q-17 14 -41 25.5t-53 11.5q-66 0 -104 -36
t-38 -105v-107zM150 500h264v107q0 37 10 66q-2 3 -13 15.5t-28.5 25.5t-40.5 23.5t-50 10.5q-66 0 -104 -36t-38 -105v-107zM712 45q0 -19 4.5 -23.5t14.5 -4.5h14v-17h-15q-17 0 -26 10.5t-9 35.5v454h17v-455z" />
    <glyph glyph-name="ffl" unicode="&#xfb04;" horiz-adv-x="805" 
d="M431 499h155v-16h-155v-483h-17v483l-264 1v-484h-17v484h-73v16h73v107q0 34 9.5 63t29 50t49.5 33t71 12q28 0 51 -9t41 -21t30 -24.5t18 -19.5q17 34 52 54t89 20q35 0 61 -12.5t43 -26.5q20 -17 35 -38v-643q0 -19 4.5 -23.5t14.5 -4.5h14v-17h-15q-17 0 -26 10.5
t-9 35.5v637q-5 6 -15.5 17t-26.5 21.5t-36 18.5t-44 8q-66 0 -104 -36t-38 -105v-108zM150 500l264 -1v108q0 37 10 66q-2 3 -13 15.5t-28.5 25.5t-40.5 23.5t-50 10.5q-66 0 -104 -36t-38 -105v-107z" />
    <glyph glyph-name="F.001" horiz-adv-x="641" 
d="M290 369h324v-17h-324l-1 -206q0 -46 -8 -77t-23.5 -49.5t-38 -26.5t-51.5 -8q-32 0 -52.5 10t-33 26.5t-17.5 36.5t-5 40q0 44 14 66.5t31 33.5q20 12 46 13l3 -15q-21 -2 -38 -13q-14 -9 -26 -28.5t-12 -54.5q0 -47 24 -72.5t66 -25.5q25 0 44.5 6.5t32.5 23t20 44
t7 70.5v528h18v-305zM655 793q4 -5 8 -12q3 -6 5.5 -14t2.5 -19q0 -31 -28.5 -56.5t-88.5 -25.5q-33 0 -65.5 5t-66.5 11t-68 11t-70 5q-55 0 -94 -16.5t-63.5 -43.5t-36 -62t-11.5 -72q0 -46 13.5 -79t30.5 -55q19 -26 44 -43l-12 -15q-27 19 -47 47q-18 24 -32.5 60
t-14.5 86q0 52 16 91.5t45 66t70.5 39.5t91.5 13q29 0 63 -5t70 -11t71 -11t66 -5q28 0 47.5 6t30.5 15t16 20.5t5 23.5q0 8 -2 14t-4 11q-3 5 -5 11z" />
    </font>
</defs>
</svg>
