<?xml version="1.0" standalone="no"?>
<!DOCTYPE svg PUBLIC "-//W3C//DTD SVG 1.1//EN" "http://www.w3.org/Graphics/SVG/1.1/DTD/svg11.dtd" >
<svg xmlns="http://www.w3.org/2000/svg" xmlns:xlink="http://www.w3.org/1999/xlink" version="1.1">
<metadata>
Created by FontForge 20170731 at Fri May 17 12:29:45 2013
 By Aleksey,,,
Copyright (c) 2012 by Julien Saurin (La Goupil). All rights reserved.
</metadata>
<defs>
<font id="UVFParisSerif-Light" horiz-adv-x="485" >
  <font-face 
    font-family="UVF Paris Serif"
    font-weight="300"
    font-stretch="normal"
    units-per-em="1000"
    panose-1="2 0 0 0 0 0 0 0 0 0"
    ascent="750"
    descent="-250"
    x-height="732"
    cap-height="731"
    bbox="-38 -152 886 905"
    underline-thickness="50"
    underline-position="-200"
    unicode-range="U+0006-2212"
  />
<missing-glyph horiz-adv-x="500" 
 />
    <glyph glyph-name=".notdef" horiz-adv-x="500" 
 />
    <glyph glyph-name=".null" horiz-adv-x="0" 
 />
    <glyph glyph-name="nonmarkingreturn" horiz-adv-x="333" 
 />
    <glyph glyph-name="uni0006" horiz-adv-x="162" 
d="M65 730q0 7 7 7t7 -7t-7 -7t-7 7z" />
    <glyph glyph-name="uni000C" horiz-adv-x="298" 
d="M161 743l-1 1l-2 4q-4 10 -25 41l-25 40l3 4l26 -41q0 -3 24 -39q24 36 24 39l26 41l3 -4l-25 -40q-21 -31 -25 -41l-2 -4z" />
    <glyph glyph-name="space" unicode=" " horiz-adv-x="340" 
 />
    <glyph glyph-name="exclam" unicode="!" horiz-adv-x="148" 
d="M50 136l-5 1q2 28 2 42q0 11 -0.5 16t-0.5 16v30q0 29 1 43q10 106 10 158q0 22 1.5 66t1.5 66q0 14 -0.5 43t-0.5 44v26q3 60 3 61h5q0 -9 -0.5 -19.5t-1.5 -23t-1 -19.5v-25q0 -15 0.5 -44t0.5 -43q0 -22 -1.5 -66t-1.5 -66q0 -41 -9 -158q-2 -14 -2 -43q0 -1 1 -30
v-32q0 -9 -2 -43zM50 35q0 -13 -1 -13q-5 0 -5 2q0 12 2 12z" />
    <glyph glyph-name="quotedbl" unicode="&#x22;" horiz-adv-x="202" 
d="M70 724v10h5v-10q0 -18 15 -110l-6 -1q-1 10 -5.5 34t-6.5 42t-2 35zM117 734h6q3 -49 14 -105l-5 -1q-13 63 -15 106z" />
    <glyph glyph-name="numbersign" unicode="#" horiz-adv-x="742" 
d="M385 57h-4q8 30 10 39q3 9 5.5 27.5t4.5 25.5q5 21 14 68q3 9 9 34q3 7 8 22.5t7 23.5q-7 0 -16.5 -0.5t-12.5 -0.5q-23 0 -105 7q-2 0 -4 0.5t-3 0.5q-4 -12 -16 -52q-5 -9 -10 -34q-2 -11 -7 -34t-7 -34q-4 -25 -11 -53q-2 -15 -10 -40h-4q8 30 10 39t5 27t5 26
q3 11 7.5 34t7.5 34q1 4 3.5 15.5t4.5 18.5q12 36 18 53h-18q-9 0 -28 -1t-29 -1q-42 -3 -44 -3q-22 0 -33 1v4h32q7 0 21.5 1.5t21.5 1.5q10 0 29 0.5t28 0.5h21q9 29 19 68q1 7 20 82q-2 0 -4.5 0.5t-3.5 0.5q-3 1 -29 1q-9 0 -27.5 -1t-28.5 -1q-42 -3 -44 -3
q-22 0 -34 1v4h8.5h12.5h11q8 0 23.5 2t21.5 2q11 -1 29.5 0t25.5 1q24 0 29 -1q3 -1 11 -1q7 29 18 73q1 6 6 30.5t8 37.5l5 22q0 1 5.5 19.5t7.5 28.5h5q-1 -7 -14 -50q-4 -18 -5 -19l-13 -68q-1 -4 -8 -30.5t-11 -43.5q62 -6 91 -6q11 1 51 1q19 72 20 78q2 13 7 35.5
t7 32.5l6 22q1 4 6 21.5t7 26.5h4q-1 -7 -14 -50l-1 -8q-1 -7 -3 -11l-15 -68q-14 -61 -19 -79q17 0 44 -0.5t34 -0.5q18 2 56 4l17 -1q5 0 19.5 -1t21.5 0l1 -4q-13 -1 -42 1h-4h-6h-5l-57 -2h-20.5h-31h-28.5q-14 -53 -18 -76q-6 -26 -22 -76q19 0 54 -0.5t44 -0.5
q18 2 56 4l18 -1q4 0 18 -1t22 0l1 -5q-4 -1 -42 2h-16l-56 -3h-25.5h-40h-35.5l-12 -45q-3 -5 -5 -11t-3 -13t-2 -10q-4 -13 -8 -35.5t-7 -32.5q-2 -8 -5 -26.5t-5 -26.5q-4 -17 -11 -40zM319 378q-4 -17 -20 -71h3q13 -1 34.5 -2.5t39 -2.5t32.5 -1q4 0 15 0.5t17 0.5
q17 53 22 74q10 41 18 78q-38 0 -48 -1q-44 0 -94 5q-16 -64 -19 -80z" />
    <glyph glyph-name="dollar" unicode="$" horiz-adv-x="353" 
d="M299 590h-5v74q1 17 -45 42q-21 10 -48 10q-7 0 -21 -2v-23q0 -17 0.5 -51t0.5 -51q0 -25 -1.5 -77t-1.5 -78q0 -31 -1 -46l18 -22q11 -14 34 -60q43 -82 43 -149q0 -85 -75 -118q-12 -6 -26 -9v-15q0 -19 -2 -59l-5 2q2 34 2 57v14q-8 -2 -25 -2q-7 0 -11 1
q-25 1 -49 34q-37 49 -39 83q-1 3 -1 9q0 4 0.5 9t0.5 6h5q0 -1 -0.5 -6t-0.5 -9q0 -6 1 -8q2 -33 38 -81q23 -31 45 -32q4 -1 11 -1q16 0 24 2q0 7 -1 20t-1.5 23.5t-0.5 19.5q0 18 -0.5 51t-0.5 50q0 34 1 51q9 108 10 137q-11 15 -20 29q-1 2 -9.5 18t-10.5 20t-9.5 18
t-10 20t-8.5 18.5t-8.5 20t-7 19t-7 21.5t-4.5 20q-3 15 -3 29q-1 37 22 63t63 34l16 3v3q3 69 3 72h5q0 -12 -0.5 -24t-1.5 -27t-1 -23q7 1 21 1q28 0 51 -11q34 -21 42 -32v54l5 -1v-64v-3v-74zM195 44q72 32 72 113q0 64 -42 146q-26 50 -34 60q-2 2 -4.5 5t-5 6.5
t-4.5 5.5q-2 -47 -8 -131q-2 -17 -2 -51q0 -31 2 -101q0 -18 2 -62q12 3 24 9zM175 714l-15 -3q-38 -8 -59.5 -32t-21.5 -60q0 -13 3 -28q11 -54 75 -173q2 -4 4.5 -8t5.5 -8.5l5 -7.5q1 13 1 40q0 26 1.5 78t1.5 77q0 17 -0.5 51t-0.5 51v23z" />
    <glyph glyph-name="percent" unicode="%" horiz-adv-x="497" 
d="M65 528q-13 20 -13 50q0 16 4 27q19 56 69 70q8 4 29 4q9 0 21 -2q4 -2 13 -5.5t13.5 -6t11 -6.5t11 -9t7.5 -11q11 -15 11 -43q0 -42 -22 -70q-24 -35 -59 -36q-4 -1 -10 -1q-58 0 -86 39zM258 143q-8 21 -8 41q0 35 20.5 62.5t55.5 34.5q3 2 12 2q31 0 58 -21
q27 -19 27 -51q0 -23 -5 -58q-5 -40 -43 -57q-16 -8 -36 -8q-27 0 -49 15t-32 40zM126 671q-46 -13 -66 -67q-3 -12 -3 -26q0 -30 13 -47q24 -38 81 -38q6 0 10 2q31 1 56 33q20 31 20 68q0 26 -9 41q-12 18 -32 26l-22 9q-12 2 -20 2q-20 0 -28 -3zM338 278q-8 0 -11 -1
q-33 -7 -52.5 -33.5t-19.5 -59.5q0 -20 8 -39q10 -24 30.5 -38.5t45.5 -14.5q17 0 34 9q15 6 26.5 21t13.5 32q5 35 5 57q0 29 -26 48q-25 19 -54 19zM63 2l-5 1q2 7 9 18t9 15l27 54q38 84 51 106q8 15 55 114q9 18 28 52t27 50q8 17 24.5 46.5t21.5 39.5q6 11 21.5 33.5
t21.5 35.5l91 170l5 -3q-7 -13 -40.5 -74.5t-50.5 -94.5q-6 -12 -21.5 -34.5t-21.5 -34.5q-6 -11 -22 -40.5t-24 -45.5t-27.5 -49.5t-27.5 -52.5q-49 -100 -57 -114q-24 -46 -51 -106q-13 -32 -25 -55q-2 -4 -9 -14.5t-9 -16.5z" />
    <glyph glyph-name="ampersand" unicode="&#x26;" horiz-adv-x="321" 
d="M311 338v-5h-42q-4 -7 -5 -14q-2 -4 -3.5 -10.5t-2.5 -8.5q-24 -67 -44 -135q-2 -6 -5 -17.5t-5 -17.5l7 -14l45 -95q4 -6 10 -10t10 -5h5h28v-5h-28q-20 0 -29 17q-10 20 -25 51.5t-21 44.5l-3 8q-2 -5 -5 -16.5t-5 -17.5q-14 -46 -34 -69q-18 -18 -41 -19h-2
q-22 0 -35 13q-14 10 -19 31q-11 27 -11 88v74q0 140 45 199l-15 45q-22 56 -22 124q0 2 -0.5 18.5t-0.5 28.5q0 33 5 56q7 30 23 45q11 11 30 11q18 0 29 -8q13 -8 17 -22q10 -19 10 -59q0 -11 -0.5 -27t-0.5 -20q-4 -72 -17 -107q-8 -21 -15.5 -35t-13.5 -22t-23 -28
q55 -143 60 -158q2 -6 16.5 -47.5t23.5 -62.5q4 20 7 29q10 35 44 135l6 19q2 8 4 13h-48v5q53 2 96 0zM56 206v-74q0 -41 5 -66q5 -35 22 -49q15 -12 33 -12h2q20 1 37 18q13 13 24 40q10 25 20 66q-8 19 -21.5 58.5t-20.5 58.5q-10 30 -31 84t-27 71q-43 -59 -43 -195z
M88 719q-11 -11 -15 -27q-10 -25 -10 -71q0 -12 0.5 -28t0.5 -19q0 -63 20 -122l16 -42q34 42 49 81q13 33 17 106q0 5 0.5 21t0.5 26q0 29 -5 45q-5 23 -20 32q-8 7 -26 7q-17 0 -28 -9z" />
    <glyph glyph-name="quotesingle" unicode="'" horiz-adv-x="197" 
d="M77 612l20 48l22 41l14 35l3 -1l-15 -39l-19 -35l-21 -50q-1 0 -2 0.5t-2 0.5z" />
    <glyph glyph-name="parenleft" unicode="(" horiz-adv-x="217" 
d="M112 18q-51 174 -51 395v2q0 121 22 221q12 57 24 98q3 12 14 34t14 33l4 -1q-3 -13 -13.5 -35t-13.5 -32q-9 -27 -24 -98q-22 -99 -22 -220v-2q0 -220 51 -394q2 -7 11.5 -34.5t12.5 -41.5l-5 -1q-3 13 -12 39.5t-12 36.5z" />
    <glyph glyph-name="parenright" unicode=")" horiz-adv-x="261" 
d="M77 -46l-5 2q3 5 13.5 24t15.5 30q5 12 31 97q11 34 19 121q8 102 8 153v63q0 85 -9 136q-12 81 -33 119q-42 77 -49 85l-6 8l4 3q1 -4 6 -7q9 -12 17 -25.5t17.5 -33t14.5 -27.5q22 -40 34 -121q9 -51 9 -137v-63q0 -62 -9 -154q-6 -82 -18 -121q-26 -87 -31 -98
q-5 -10 -15.5 -28.5t-13.5 -25.5z" />
    <glyph glyph-name="asterisk" unicode="*" horiz-adv-x="258" 
d="M202 703q-26 -26 -70 -48q34 -28 59 -41l-1 -4q-10 4 -60 42q-1 -11 -1 -32q0 -24 4 -40h-5q-3 16 -3 40q0 21 1 32q-28 -14 -78 -34l-1 4q50 20 77 33l-69 48l1 4q12 -9 35.5 -24t34.5 -24q1 18 12 68h4q-11 -54 -12 -69q48 26 70 48z" />
    <glyph glyph-name="plus" unicode="+" horiz-adv-x="326" 
d="M269 416v-5h-12q-10 0 -31 -3t-29 -3q-22 -2 -33 -2l-3 -23q-6 -36 -6 -110v-17h-5v17q0 74 6 111l3 22h-100v5h100q2 16 3.5 45t4 52.5t7.5 43.5l5 -2q-5 -20 -7.5 -43t-4 -51.5t-3.5 -44.5q12 0 32 2q8 0 29 3t32 3h12z" />
    <glyph glyph-name="comma" unicode="," horiz-adv-x="175" 
d="M1 -139l42 85l19 38l16 38l5 -1l-18 -42l-16 -32l-43 -87z" />
    <glyph glyph-name="hyphen" unicode="-" horiz-adv-x="332" 
d="M51 381l-1 6h77q4 0 27 -1t28 -1h28.5h42.5h28v-5h-29h-42.5h-28.5q-4 0 -27 1t-27 1z" />
    <glyph glyph-name="period" unicode="." horiz-adv-x="135" 
d="M71 16h-11q2 8 2 17h2q2 0 5 0.5t5 -0.5q0 -5 -3 -17z" />
    <glyph glyph-name="slash" unicode="/" horiz-adv-x="300" 
d="M75 -68h-4q0 1 4.5 22t6.5 32q3 14 6.5 40.5t4.5 34.5q4 18 9.5 50.5t7.5 43.5q8 40 10 48q35 141 42 176q5 28 23.5 120t20.5 105q1 9 15 95l6 29q13 58 15 68h5q-1 -11 -16 -69q-2 -19 -5 -27l-16 -95q-4 -24 -21.5 -112t-21.5 -112q-6 -31 -41 -176q-3 -8 -11 -48
q-3 -16 -8 -47t-8 -47q-1 -6 -5 -33.5t-7 -41.5q-4 -26 -12 -56z" />
    <glyph glyph-name="zero" unicode="0" horiz-adv-x="347" 
d="M111 16q-18 10 -31 40q-15 39 -15 117v56q0 35 -1 85t-1 101v98q0 57 10 96q0 1 0.5 3t1 6.5t0.5 8.5q3 21 5 29q12 43 40 62q26 18 62 18q31 0 54 -16q20 -14 30 -42q13 -32 13 -85q1 -5 1 -11q3 -13 3 -28q0 -5 -1 -14t-1 -15q0 -9 2 -15q2 -80 2 -115q0 -52 -2 -160
v-31l1 -1v-5q0 -7 -1 -15q0 -29 -8 -70q-13 -58 -42 -88q-29 -25 -66 -25h-2q-33 0 -54 16zM68 513v-98q0 -51 1 -101t1 -85v-56q0 -56 7 -89q8 -42 36 -65q20 -14 52 -14h2q36 0 62 24q23 24 33 55q16 44 16 99q1 8 1 15v4l-1 1v33q2 108 2 159q0 35 -2 115q-1 6 -1 15
q0 6 0.5 15t0.5 14q0 14 -3 28q0 10 -1 21q0 8 -2 34q-7 50 -33 74q-24 21 -57 21q-52 0 -76 -36q-21 -23 -25 -61q-4 -26 -4 -27q-9 -39 -9 -95z" />
    <glyph glyph-name="one" unicode="1" horiz-adv-x="268" 
d="M111 0v5q57 1 64 0l3 64l2 63v6q0 8 -1.5 25t-1.5 26v11q2 10 2 16v40q0 8 -2 24q-2 48 -2 73q0 38 3 114t3 115q0 20 0.5 57t0.5 56v31q-10 -9 -25 -28q-27 -35 -54 -61q-48 -54 -71 -77l-4 4q9 9 33.5 35.5t39.5 40.5q38 42 52 62q4 8 14 17l15 15l5 -2v-37
q0 -19 -0.5 -56t-0.5 -57q0 -39 -3 -115t-3 -114q0 -26 2 -72q1 -8 1 -24v-41q0 -11 -1 -16v-11q0 -9 1.5 -26t1.5 -25v-8l-3 -62q0 -21 -2 -63h4h58v-5h-131z" />
    <glyph glyph-name="two" unicode="2" horiz-adv-x="350" 
d="M283 97h5q1 -46 0 -52v-44h-5q-12 2 -20 2h-81q-4 1 -12 1h-12q-21 0 -58 -2.5t-52 -2.5h-4l1 4l10 22q7 24 14 40q20 57 32 78q14 26 36.5 73t32.5 66q8 14 27 43.5t31 52.5t18 46q2 8 15 40.5t15 51.5q1 4 6.5 33t5.5 44v6q-2 55 -8 74q-12 35 -45 49q-22 8 -60 8
q-60 2 -89 -30q-24 -24 -24 -85q0 -30 5 -55l-5 -2q-5 25 -5 57q0 59 25 89q31 31 93 31q37 0 61 -9q35 -11 49 -52q6 -19 8 -75v-6q0 -15 -5.5 -41.5t-6.5 -36.5q-3 -18 -15 -49t-15 -44q-7 -23 -20 -47t-30 -51.5t-26 -44.5q-15 -27 -40.5 -78.5t-29.5 -59.5
q-11 -21 -47 -117q-6 -18 -7 -20q14 0 50.5 2.5t56.5 2.5h12q8 0 13 -1l57 -1h23q14 0 20 -1v91z" />
    <glyph glyph-name="three" unicode="3" horiz-adv-x="320" 
d="M84 14q-29 23 -31 77h5q2 -54 29 -74q19 -13 45 -13h10q7 0 10 1q28 0 59 38q28 33 28 65q0 12 0.5 54.5t0.5 66.5q0 11 -0.5 29.5t-0.5 24.5q-2 45 -18 64q-28 35 -104 50q-27 5 -54 5h-4l1 2q3 8 11 21l21 31q31 42 43 62q18 26 42 78.5t30 63.5q7 16 24 39t22 30
q-8 2 -13 2h-31q-5 0 -16.5 0.5t-17.5 0.5h-6q-4 0 -6 -1h-58q-34 0 -51 -3v5q18 2 25 2h84q4 2 6 2h6q6 0 17.5 -1t16.5 -1h34q10 0 13 -1h4l-1 -3q-7 -12 -24 -35t-24 -37q-8 -16 -21.5 -46.5t-25 -54t-24.5 -43.5q-7 -12 -32 -46.5t-33 -47.5q-7 -12 -9 -14q10 -1 28 -3
t28 -3q74 -16 103 -50q17 -23 19 -68q0 -6 0.5 -24.5t0.5 -29.5q0 -24 -0.5 -67t-0.5 -54q0 -32 -29 -68q-28 -38 -63 -40q-3 -1 -10 -1h-10q-30 0 -48 15z" />
    <glyph glyph-name="four" unicode="4" horiz-adv-x="325" 
d="M292 342h5q2 -50 0 -56v-54h-5v52h-66v-171v-56l2 -51h54v-5q-33 -1 -55 -1q-4 1 -54 1v5h50q-1 17 -1 51v227h-27q-12 0 -33.5 -1t-32.5 -1h-10h-32t-41 2l-2 4q14 30 35 101.5t38 106.5q19 40 52 122t53 122l4 -1q-2 -94 -2 -134v-122q0 -62 1 -93q0 -18 0.5 -51
t0.5 -50h66v53zM119 287h10q11 0 32.5 1t33.5 1h27q0 17 -1 50t-1 51q-1 31 -1 93v122q0 82 3 123q-19 -40 -51 -119.5t-49 -115.5q-17 -34 -38 -104.5t-34 -99.5q13 -2 38 -2h31z" />
    <glyph glyph-name="five" unicode="5" horiz-adv-x="325" 
d="M97 15q-26 18 -26 62v5h4v-5q0 -41 25 -59q19 -13 62 -13h7q33 0 54 30q15 23 22 57q9 43 9 115v5q0 80 -11 125q-3 16 -19 29q-12 11 -37 20q-43 12 -99 12h-21v2q0 18 0.5 74.5t1.5 87.5q2 12 2 36q0 11 -1 33.5t-1 34.5v66h11q8 0 25 -0.5t26 -0.5q50 0 74 1q3 0 7 1
t7 1q5 0 14 -1t14 -1q12 0 18 2v-5q-6 -1 -18 -1q-5 0 -14 0.5t-14 0.5q-3 0 -7 -0.5t-7 -0.5q-24 -2 -74 -2q-9 0 -26 1t-25 1h-6v-62q0 -12 0.5 -34.5t0.5 -33.5q0 -24 -1 -36q-1 -30 -1.5 -86.5t-0.5 -73.5h16q98 0 139 -32q17 -15 21 -32q11 -46 11 -126v-5
q0 -68 -10 -116q-5 -33 -22 -60q-25 -31 -58 -31h-7q-42 0 -65 15z" />
    <glyph glyph-name="six" unicode="6" horiz-adv-x="318" 
d="M93 23q-23 24 -30 55q-6 33 -6 78q0 76 12 154q5 39 10 53q3 12 16 56q11 37 31.5 83t29.5 71q15 35 39 81q38 66 54 84l3 -4q-18 -19 -52 -82q-31 -57 -39 -81q-10 -29 -30.5 -73.5t-31.5 -79.5l-15 -56q-5 -15 -10 -54l-6 -42q8 18 29 33q23 13 51 13q33 0 57 -13
q49 -28 51 -96v-7q0 -76 -16 -131q-4 -21 -14 -32q-26 -33 -74 -33l-3 -1q-29 0 -56 24zM62 156q0 -46 6 -77q9 -35 29 -52q27 -23 52 -23q1 0 1 1q48 0 72 30q9 12 13 31q7 24 10 45q6 38 6 85v7q-2 65 -47 91q-24 13 -56 13q-30 0 -47 -12q-25 -17 -33 -45h-1
q-5 -50 -5 -94z" />
    <glyph glyph-name="seven" unicode="7" horiz-adv-x="304" 
d="M64 -1l-5 2q11 55 42.5 152.5t37.5 117.5q6 23 14.5 68.5t13.5 67.5q8 37 28 97.5t27 91.5q7 29 14 51q10 32 15 59q3 14 3 23v1h-101q-63 0 -94 -3q2 -29 0 -34v-79h-5v118h5q31 3 94 3h105v-2q1 -1 1 -4q0 -9 -3 -24l-10 -39q-8 -27 -19 -71q-7 -34 -27 -95.5
t-28 -93.5q-24 -119 -28 -137q-8 -28 -38 -121.5t-42 -148.5z" />
    <glyph glyph-name="eight" unicode="8" horiz-adv-x="305" 
d="M104 5q-15 3 -21 17q-7 12 -12 29q-5 21 -5 60v3q0 14 -3 44.5t-3 45.5q0 17 1 26q6 29 11 42t22 37q26 37 53 80l-5 5l-20 26q-47 70 -57 118q-6 30 -6 72q0 43 6 66q8 34 21 45q24 18 66 18h9q42 -3 63 -17q13 -8 20 -26q4 -15 4 -36q0 -11 -2 -29q0 -3 -2 -22.5
t-5.5 -45t-8.5 -48.5q-1 -6 -5 -14.5t-12.5 -23t-12.5 -21.5q-8 -13 -22 -32l-15 -20l-10 -15l29 -37q50 -67 53 -105q4 -21 4 -51q0 -10 -0.5 -33t-0.5 -35q0 -38 -4 -57q-8 -38 -27 -51q-21 -20 -70 -20q-23 0 -33 5zM204 22q18 16 25 50q4 18 4 56q0 12 0.5 35t0.5 33
q0 28 -4 51q-2 26 -34 76q-23 34 -46 62q-23 -37 -52 -78q-17 -25 -21.5 -36.5t-10.5 -40.5q-1 -9 -1 -26q0 -15 3 -45.5t3 -44.5v-3q0 -61 15 -85q6 -12 19 -17q12 -4 32 -4q47 0 67 17zM89 717q-13 -11 -19 -42q-6 -23 -6 -65t6 -71q9 -44 56 -116l21 -27q0 -1 1 -1l2 -1
l10 14q3 4 35 52q28 44 30 56q5 23 9 48t6 45t2 22q2 20 2 29q0 22 -5 35q-7 16 -17 23q-21 13 -61 16h-10q-42 0 -62 -17z" />
    <glyph glyph-name="nine" unicode="9" horiz-adv-x="314" 
d="M66 4l-4 4q20 20 52 80q33 62 38 81q8 21 21 52.5t22 56.5t18 54q10 39 13 45l11 43l7 49q-30 -53 -84 -53q-30 0 -55 15q-48 26 -50 94v6q0 73 18 138q9 24 16 34q23 30 74 32h1q29 0 56 -23q22 -22 30 -55q6 -25 6 -78q0 -18 -5 -98q-1 -6 -4.5 -29t-5.5 -33l-10 -45
q-3 -6 -14 -43q-8 -29 -17.5 -54.5t-22 -56.5t-20.5 -52q-15 -40 -38 -81q-30 -57 -53 -83zM164 730h-1q-48 -2 -71 -31q-4 -5 -14 -31q-3 -13 -10 -48q-8 -47 -8 -89v-6q2 -66 48 -91q26 -13 52 -13q58 0 86 62q5 50 5 96q0 52 -6 77q-8 32 -29 53q-23 21 -52 21z" />
    <glyph glyph-name="colon" unicode=":" horiz-adv-x="159" 
d="M89 282h-12q2 8 2 16q1 1 2 1h4q3 2 7 0q0 -5 -3 -17zM87 12h-12q2 8 2 16q1 1 3 1q2 2 5 0h5q0 -5 -3 -17zM77 29v-1q-1 0 0 1z" />
    <glyph glyph-name="semicolon" unicode=";" horiz-adv-x="161" 
d="M91 273h-12q2 8 2 21h3q2 0 5 0.5t5 -0.5q0 -9 -3 -21zM1 -139l42 85l19 38l16 38l5 -1l-18 -42l-16 -32l-43 -87z" />
    <glyph glyph-name="less" unicode="&#x3c;" horiz-adv-x="245" 
d="M183 215q-4 3 -5 5t-4 5.5t-3 4.5l-4 5q-11 9 -22.5 23t-14.5 18q-13 13 -33.5 38t-31.5 36q-1 1 -9.5 10.5t-12.5 14.5l-2 2l2 1q17 17 39 48q7 9 22.5 24.5l20.5 20.5q3 3 12 13t15 15l19 19l3 -3q-3 -3 -6 -6.5t-7 -7t-6 -5.5l-27 -28q-41 -44 -43 -46q-4 -5 -17 -21
t-20 -24q3 -5 11 -13l10 -10q12 -13 33 -39t30 -36q6 -6 17.5 -19t21.5 -22q2 -4 6 -7q1 -2 4 -5.5t3 -4.5q3 -3 4 -3l-2 -5q-1 0 -3 2z" />
    <glyph glyph-name="equal" unicode="=" horiz-adv-x="430" 
d="M87 458v5h101q4 0 30.5 0.5t31.5 0.5q40 -2 114 -2l-1 -5q-72 0 -114 2q-4 0 -30.5 -0.5t-30.5 -0.5h-101zM95 338l-3 5h77q4 0 46.5 -0.5t47.5 -0.5h28.5h42.5h28v-5h-100q-4 0 -46.5 0.5t-46.5 0.5h-74z" />
    <glyph glyph-name="greater" unicode="&#x3e;" horiz-adv-x="254" 
d="M61 205l-2 4q27 27 45 52q12 18 47 62q4 4 11.5 15.5t14.5 20t15 14.5q-5 4 -10 9.5t-10 13t-8 11.5q-17 18 -51 50q-6 7 -12.5 14t-15 15.5t-12.5 13.5q-9 13 -14 14l1 5q5 -2 10.5 -8t6.5 -7q24 -28 39 -43q40 -38 52 -51l9 -12t11 -14t10 -10l3 -1l-3 -3
q-10 -7 -43 -50q-10 -12 -26.5 -33.5t-21.5 -27.5q-17 -29 -46 -54z" />
    <glyph glyph-name="question" unicode="?" horiz-adv-x="290" 
d="M97 98h-6q2 12 2 45v2q0 8 1 24t1 25v93q0 15 -1 49t-1 52q0 64 16 101q7 17 27 49t25 42q33 52 33 94q0 9 -2 25q-6 20 -20 31q-16 8 -35 8q-17 0 -29 -4q-17 -5 -24 -11q-11 -5 -16 -16q-4 -9 -5 -20q0 -4 -1.5 -13.5t-1.5 -14.5v-1h-5v1q0 5 1.5 15.5t1.5 12.5
q2 19 5 23q6 10 18 18q6 4 25 10q15 4 31 4q24 0 38 -9q16 -10 22 -32q0 -3 1 -8.5t1.5 -10t0.5 -8.5q0 -42 -34 -97q-6 -10 -18 -29t-20.5 -33.5t-13.5 -27.5q-16 -35 -16 -99q0 -18 1 -52t1 -49v-93q0 -9 -1 -25t-1 -24v-2q0 -33 -1 -45zM92 16h-5q2 8 2 15q3 3 6 0
q0 -3 -3 -15z" />
    <glyph glyph-name="at" unicode="@" horiz-adv-x="639" 
d="M395 217q-9 16 -9 45q0 26 7 64q-20 -52 -56 -86q-35 -33 -79 -33q-29 0 -51 14q-36 23 -36 81q0 17 2 23q9 61 41 110q39 58 95 69q27 6 50 6q35 0 49 -14q14 -13 19 -38q5 13 15 31l5 -3q-18 -30 -34 -85q-22 -97 -22 -139q0 -28 8 -42q7 -11 18 -11q7 0 25 8
q18 10 20 12q56 31 89 114q13 36 13 70q0 92 -79 158q-75 67 -171 67q-40 0 -77 -14q-60 -24 -105.5 -72.5t-63.5 -109.5q-10 -38 -10 -78q0 -127 72 -195q39 -35 95.5 -56t109.5 -21h9q78 6 125 41q43 33 76 82l3 -3q-31 -48 -76 -82q-49 -37 -127 -43h-10q-54 0 -111 22
t-96 57q-37 33 -56 86.5t-19 111.5q0 38 10 80q17 61 63.5 110.5t107.5 74.5q40 14 80 14q99 0 175 -68q80 -68 80 -162q0 -39 -14 -71q-34 -87 -90 -117q-9 -7 -22 -13q-16 -8 -26 -8q-15 0 -22 13zM398 360q8 28 10 42q6 24 9 30q1 3 3 8t2 7q-1 31 -18 45q-14 13 -45 13
q-26 0 -50 -5q-53 -12 -91 -69q-31 -48 -40 -106q-1 -8 -1 -23q0 -55 33 -77q22 -13 48 -13q39 0 76 32q42 39 64 116z" />
    <glyph glyph-name="A" unicode="A" 
d="M352 0v5h61q-7 13 -8 30q-2 21 -6 34q-3 10 -13 42.5t-15 50.5q-39 155 -50 227q-13 0 -27 -0.5t-31.5 -1.5t-27.5 -1q-4 0 -13 -0.5t-14 -0.5h-8q-5 0 -8 1q-3 0 -10.5 2t-12.5 2q-4 0 -5 -1l-15 -53q-26 -96 -40 -170q-6 -31 -19 -83q-12 -44 -17 -79h56v-5h-117v5
q50 2 56 0q6 37 17 80q13 52 19 83q15 78 40 171l15 53l1 4q20 75 36 124q5 13 14.5 41.5t15.5 42.5q4 11 7.5 35t6.5 35q15 41 15 62v2l1 2h6q5 -8 7.5 -19t4 -24.5t2.5 -19.5q2 -13 8 -41t9 -43q3 -19 12 -72.5t13 -82.5q13 -95 58 -274q4 -17 14 -48t14 -45q6 -19 7 -35
q3 -16 8 -30h53v-5q-64 -2 -120 0zM234 391q43 3 86 3q-2 7 -4 21l-3 21q-4 29 -13 82.5t-12 72.5q-3 15 -9 43t-8 41q-9 50 -11 55q-2 -15 -15 -58q-3 -11 -7 -34.5t-8 -35.5q-6 -14 -15 -42.5t-14 -42.5q-14 -35 -36 -123h4q2 0 23 -3q4 0 9 -0.5t7 -0.5q5 0 13.5 0.5
t12.5 0.5z" />
    <glyph glyph-name="B" unicode="B" horiz-adv-x="358" 
d="M19 731v5h72h3h8q6 0 15.5 -0.5t13.5 -0.5h10q27 0 37 -6q9 -4 23 -12t21 -11q24 -9 51 -44q30 -42 30 -117v-15q-4 -59 -68 -98q-23 -14 -42 -18q41 -13 66 -44q23 -23 28 -53q3 -17 3 -31q0 -19 -3 -37q-4 -24 -16 -57l-10 -29q-5 -15 -13 -27q-26 -40 -34 -48
q-4 -4 -16 -14.5t-18 -17.5q-35 -38 -77 -53q-1 0 -5 -0.5t-7 -1.5t-5 -2h-72v5h59q6 2 8 0q0 2 -1 4v3v1l3 33q2 32 2 46q2 28 2 42v138q-1 9 -1 77q0 7 -2 35t-2 44q0 13 0.5 40.5t0.5 41.5v2q0 26 2 77.5t2 76.5v34q0 9 -2 31q-61 0 -66 1zM90 348v-39q0 -25 1 -38
q1 -6 1 -18v-18q0 -9 -0.5 -29t-0.5 -31v-43q0 -28 -1 -42l-3 -45q0 -6 -0.5 -17t-0.5 -17v-6l16 3q39 13 75 52q5 5 34 32q7 6 12.5 13.5t11.5 18t10 15.5q3 4 21 54q12 33 16 57q3 18 3 36q0 15 -3 30q-3 23 -26 51q-33 38 -80 46q-9 0 -12 1h-3q-2 0 -6 0.5t-5 0.5
q-2 0 -7 -0.5t-8 -0.5q-1 0 -4 -0.5t-5 -0.5q-3 -1 -12 -1q-6 -2 -12 -2h-15q0 -7 1 -20t1.5 -23t0.5 -19zM92 666v-1q0 -25 -2.5 -76.5t-2.5 -77.5v-96h3l23 2q6 2 10 2h12q3 1 15 1q8 0 11 -1q12 0 15 -1h3q27 0 53 17q62 41 66 95v15q0 75 -29 114q-23 30 -49 43
q-9 4 -23 12t-21 11q-14 5 -35 5h-10q-4 0 -13.5 0.5t-15.5 0.5h-7q-4 0 -6 -1q3 -21 3 -64z" />
    <glyph glyph-name="C" unicode="C" horiz-adv-x="667" 
d="M605 738h5v-188h-5q0 26 -1 41q-1 42 -13 55q-22 27 -34 36l-8 6q-27 18 -53 23q-35 9 -82 9q-8 0 -25 -0.5t-24 -0.5q-115 -7 -223 -109q-31 -28 -57 -109q-16 -46 -30 -139q-3 -22 -3 -45v-14q0 -8 1 -13q2 -52 8 -69q17 -53 58 -101q44 -47 90 -68q28 -15 86 -28
q20 -6 52 -6h21q15 0 22 1q62 2 100 18q28 14 65 44q11 8 25 23.5t14 22.5v1l6 -1q0 -10 -15 -26.5t-26 -24.5q-34 -27 -67 -44q-33 -16 -102 -18q-7 -1 -22 -1h-21q-32 0 -53 5q-64 16 -88 29q-47 23 -90 69q-45 53 -61 104q-5 15 -7 70q-1 5 -1 13v14q0 23 3 45
q13 93 31 142q26 79 58 110q112 105 224 110q9 0 26 0.5t25 0.5q52 0 83 -8q33 -7 63 -31q27 -20 44 -52q0 65 1 104z" />
    <glyph glyph-name="D" unicode="D" horiz-adv-x="510" 
d="M16 4v5h82q-2 114 -2 173q0 34 0.5 99.5t0.5 97.5q0 56 -8 176q-1 24 -1 79t-2 78q-1 5 -1 13q0 3 -2 9h-70v6h79l16 -2q4 0 8.5 -0.5t8 -1t5.5 -0.5l53 -10q99 -33 133 -60q64 -52 101 -127q17 -37 31 -115q4 -23 4 -54q0 -13 -2 -35q-6 -44 -31 -97q-25 -60 -61 -95
q-10 -9 -31.5 -29.5t-33.5 -30.5q-33 -24 -84 -49q-25 -13 -56 -24q-11 -4 -47 -6h-4q-24 -2 -86 0zM150 15q30 11 57 24q47 20 81 48q14 12 37.5 34t28.5 27q36 33 61 92q19 40 30 96q2 22 2 34q0 21 -5 53q-13 72 -31 114q-32 72 -98 125q-33 26 -133 59q-30 6 -50 9
l-41 4l1 -8q0 -9 2 -14q2 -27 2 -78t1 -79q7 -138 7 -176q0 -32 -0.5 -97.5t-0.5 -99.5q0 -97 4 -173q34 2 45 6z" />
    <glyph glyph-name="E" unicode="E" horiz-adv-x="398" 
d="M13 731v6h94q10 0 29.5 -0.5t29.5 -0.5h43q14 0 44 -2l56 -3q2 -1 7 -1h9q6 0 9 -1h2h3q2 0 3 1v-83h-6v75q-1 0 -2 1q-3 1 -9 1q-14 0 -17 1l-56 3q-44 3 -86 3q-10 0 -29.5 0.5t-29.5 0.5h-17q-1 -11 -1 -34v-34q0 -12 -2 -36t-3 -37v-34q0 -23 -1 -34v-11q0 -40 4 -71
h9q8 0 10 1q25 5 42 5l57 4h34q6 0 16 -2q4 -1 14 -1h33v61h6v-125h-6v58q-42 0 -48 1q-10 2 -16 2h-33l-57 -4q-21 0 -41 -4q-2 -1 -19 -1q0 -11 1 -14q0 -8 0.5 -24t0.5 -24q0 -18 -1 -56t-1 -58v-32q0 -87 -3 -131q-2 -34 -2 -51v-31q0 -4 -1 -7q3 1 8 1h10l75 1
q6 0 16 -0.5t14 -0.5q48 0 89 4h16q5 1 14 1v85h6v-90h-6l-13 -1q-6 -1 -17 -1q-41 -4 -89 -4q-5 0 -15 0.5t-15 0.5l-75 -1h-20q-24 -2 -65 0v5h61q1 3 1 6v32q0 14 2 52q4 43 4 130v32q0 20 1 58t1 56q0 8 -0.5 24t-0.5 23l-2 19q-6 46 -6 72q0 2 0.5 5.5t0.5 5.5
q1 11 1 34v35q1 13 3.5 36.5t2.5 35.5v34v33h-71z" />
    <glyph glyph-name="F" unicode="F" horiz-adv-x="363" 
d="M310 732v-91h-6v86h-1h-7q-4 0 -6 1q-3 1 -10 1h-58q-8 0 -12 -1q-22 -2 -31 -2h-31l-59 -3v-35q0 -10 -2 -31.5t-3 -33.5q-1 -15 -4 -95l-3 -65q4 2 7 2h9q10 0 29.5 -2t23.5 -2h72l59 -5v56h6v-113h-6v51l-29 3l-31 2q-3 1 -15 1h-12q-6 0 -17 -0.5t-16 -0.5h-11
q-3 0 -22.5 2.5t-30.5 2.5q-13 0 -16 -3q0 -7 -0.5 -21t-0.5 -22q0 -21 2 -61q1 -7 1 -21v-20q0 -57 -5 -124q0 -10 -0.5 -27t-0.5 -26q0 -7 0.5 -20t0.5 -19q0 -8 -0.5 -24t-0.5 -24l-4 -37h-5l4 37q0 8 0.5 24t0.5 24q0 6 -0.5 19t-0.5 20q0 9 0.5 26t0.5 27q5 67 5 124
q0 6 -0.5 19.5t-0.5 21.5q-2 40 -2 61q0 8 0.5 23t0.5 22l3 70q3 78 4 94q1 12 3 33.5t2 31.5v15q-1 5 -1 19h-62v6h63l64 3h27.5t34.5 2q4 1 12 1h59q7 0 10 -1q2 -1 6 -1h6q1 0 4 -0.5t3 0.5z" />
    <glyph glyph-name="G" unicode="G" horiz-adv-x="639" 
d="M561 722h5v-170h-5q0 11 -1 17q-1 41 -10 58q-12 19 -17 22q-4 3 -11.5 9t-14 10.5t-13.5 7.5q-34 21 -36 22q-37 14 -40 15q-66 15 -104 15q-33 0 -84 -31q-16 -9 -32 -24t-24.5 -25.5t-25 -32t-22.5 -29.5q-26 -32 -43 -78q-29 -68 -29 -147q0 -34 5 -74
q14 -66 24 -100q14 -54 46 -84q5 -5 14.5 -15t17 -17t16.5 -12q30 -15 46 -26q15 -12 39 -17q51 -9 56 -9q7 0 8 1q10 1 36 8q11 2 29.5 9t27.5 9q47 14 68 32q8 8 14 16t12.5 20t9.5 17t10 21t8 19q23 65 26 74q4 17 9 52q2 10 7 50l1 14v18q-16 0 -26 -2q-1 -1 -8.5 -0.5
t-8.5 0.5h-83v5h83q11 -2 16 0q2 1 13 1q5 1 14 1h49q17 -2 21 0v-6q-13 1 -22 1h-42q0 -9 -1 -18v-14l-6 -52q-1 -5 -4 -22.5t-7 -28.5q-4 -15 -13.5 -40.5t-12.5 -34.5q-26 -66 -55 -95q-23 -20 -71 -33l-28 -10l-29 -9q-21 -6 -36 -7q-2 -1 -9 -1q-13 0 -56 8
q-26 4 -42 19l-45 25q-10 5 -18.5 12.5t-17 17.5t-13.5 15q-34 30 -48 86q-15 46 -24 101q-5 40 -5 75q0 84 29 149q18 49 44 79q2 2 13 17.5t13.5 19t12 16t15 17.5t14.5 14.5t18 15.5t19 12q51 32 87 32q56 0 105 -15q6 -1 41 -15q7 -3 37 -22q16 -9 39 -28q6 -4 14 -16
q6 -7 10 -20q0 70 1 105z" />
    <glyph glyph-name="H" unicode="H" horiz-adv-x="380" 
d="M243 1v6h49v98q0 13 -1.5 39t-1.5 39q0 7 0.5 19t0.5 19q0 12 -2 34q-2 38 -2 59q0 25 2 70.5t2 59.5q-2 1 -8 1t-17 -1t-17 -1l-24 -3l-24 -3h-29q-19 0 -28 -1h-47q-7 0 -10 -1q0 -8 0.5 -21.5t0.5 -19.5v-169q0 -10 0.5 -30.5t0.5 -31.5v-9q0 -6 -1 -9v-38
q-1 -3 -1 -12v-29q1 -3 1 -19v-6q-1 -5 -1 -18v-15h51l-1 -5h-52q-48 2 -53 0v6q30 -1 50 -1v16q0 13 1 17v6q0 2 -0.5 8.5t-0.5 10.5l-1 5v11q0 11 2 25v38q1 3 1 9v9q0 11 -0.5 31.5t-0.5 30.5v169q0 6 -0.5 19t-0.5 21l-1 9q0 8 -1 36t-1 38q0 15 2 45q1 5 1 14v14
q0 16 -2 48q0 5 -2 22t-2 27q0 1 0.5 3t0.5 4q0 7 2 23q0 2 0.5 5t1 5t0.5 3h-50l1 5h52q48 -2 53 0v-6q-29 1 -51 1q0 -1 -0.5 -3t-1 -5t-0.5 -5q-2 -18 -2 -23q0 -2 -1 -4v-3q0 -9 2 -26t2 -22q2 -32 2 -49v-15q0 -9 -1 -14q-2 -30 -2 -44q0 -12 0.5 -24.5t1.5 -28
t1 -24.5q3 1 10 1h47l56 2q9 0 25.5 2.5t22.5 2.5q5 0 17 1t18 1h8v17q0 18 -0.5 38t-1.5 45t-1 39q-2 64 -2 96q0 11 -1 22q-1 9 -1 22h-51l1 5h52q48 -2 53 0v-6q-27 1 -50 1q0 -12 1 -21q1 -11 1 -23q0 -32 2 -96q3 -120 3 -122v-23q0 -15 -2 -60.5t-2 -69.5q0 -19 2 -59
q2 -22 2 -34q0 -7 -0.5 -19t-0.5 -19q0 -13 1.5 -39t1.5 -39v-98h50l-1 -5h-54q-46 0 -49 -1z" />
    <glyph glyph-name="I" unicode="I" horiz-adv-x="170" 
d="M153 731v-6q-32 1 -59 1q0 -21 -1 -30l-2 -31v-25q0 -14 0.5 -43t0.5 -44q0 -22 -1.5 -66t-1.5 -66q0 -17 -2.5 -70.5t-0.5 -87.5q-2 -14 -2 -22v-21q0 -28 2 -86q0 -12 1 -40.5t1 -39.5l-2 -25q0 -15 -1 -23h61l-1 -5h-62q-59 1 -63 0v6q37 -1 60 -1l3 48
q0 11 -1.5 39.5t-1.5 40.5q0 14 -0.5 43t-0.5 43v21q0 15 1 22q-1 35 1.5 90.5t2.5 67.5q0 22 1.5 66t1.5 66q0 15 -0.5 44t-0.5 43v26l2 30q1 10 1 30h-57l1 5h57q58 -1 63 0z" />
    <glyph glyph-name="J" unicode="J" horiz-adv-x="213" 
d="M181 734v-6q-36 1 -63 1v-10q0 -5 0.5 -14t0.5 -13q0 -6 0.5 -16t0.5 -16q2 -30 2 -46v-45q0 -37 1.5 -110t1.5 -109v-38q0 -26 -1 -39q-2 -42 -3 -126.5t-3 -126.5v-25q0 -6 -2 -15t-3 -15q-4 -41 -34 -71q-22 -22 -48 -34q-17 -11 -35 -12h-3q-6 0 -14.5 1.5t-12.5 1.5
h-3l-1 5h4q5 0 13.5 -1.5t13.5 -1.5h3q11 1 33 11q30 17 47 34q28 28 32 67q0 6 2 15t3 15v5q0 2 -0.5 7t-0.5 7q0 1 0.5 3t0.5 3q2 42 3 126.5t3 126.5q1 13 1 39v38q0 36 -1.5 109t-1.5 110v45q0 16 -2 46q0 6 -0.5 16t-0.5 16q0 4 -0.5 13t-0.5 14v10h-65l1 5h67
q60 -2 65 0z" />
    <glyph glyph-name="K" unicode="K" horiz-adv-x="425" 
d="M293 2v6h49l-3 6q-6 13 -22 37q-1 1 -12 23q-4 9 -13 24t-12 22q-8 17 -27 60t-30 66q-24 51 -45 78q-4 6 -13.5 20.5t-15.5 21.5q-9 12 -30 33q-27 29 -41 36v-39q0 -19 -2 -56.5t-2 -55.5q0 -8 0.5 -24t0.5 -23v-14q0 -8 -1 -12q-2 -22 -2 -33q0 -24 3 -47v-13
q0 -13 -2 -39v-5q0 -6 0.5 -16t0.5 -15q0 -12 -1 -23q-1 -6 -1 -13h1h52l-1 -5h-52q-51 2 -57 0l1 6q30 -1 50 -1q0 1 0.5 3t1 5t0.5 6q1 10 1 22q0 5 -0.5 15t-0.5 16v6q2 24 2 38v12q-3 24 -3 48q0 11 2 33q1 5 1 13v13q0 7 -0.5 23t-0.5 23v1q0 20 2 57t2 55v71
q0 26 -2 76v37q0 51 1 76q2 48 2 72h-60l1 5h62q59 -1 63 0v-6q-35 1 -61 1q0 -24 -2 -72q-1 -25 -1 -76v-18q0 -12 1 -18q1 -13 1 -39v-62l8 9q7 8 21.5 19.5t20.5 19.5q5 6 28.5 31.5t35.5 40.5q66 78 74 85q29 27 56 56l13 13l10 9h-50l1 5h55q59 -1 63 0v-6q-38 1 -63 1
q-8 -10 -12 -13q-7 -6 -13 -13l-28 -28l-29 -28q-15 -14 -73 -85q-11 -13 -33.5 -37t-30.5 -34q-6 -6 -20.5 -18.5t-21.5 -20.5l-9 -10q10 -5 41 -36l16 -16q8 -7 15 -18q5 -7 14 -21t15 -21q22 -27 46 -78q10 -22 28 -64t28 -63q2 -4 12 -20t14 -26q5 -14 11 -22
q16 -24 22 -37q4 -6 5 -9h62l-1 -5h-52q-39 0 -64 -1z" />
    <glyph glyph-name="L" unicode="L" horiz-adv-x="350" 
d="M17 3v6h60v10v13q0 7 0.5 22.5t0.5 23.5q0 52 -5 112q-6 102 -6 150v142l7 133q4 31 4 66q0 14 -1 23q0 9 -2 21h-53l1 5h59q58 -2 63 0v-6q-41 1 -64 1h-1q2 -10 2 -21q1 -9 1 -23q0 -38 -4 -66q-4 -65 -6 -133q-1 -8 -1 -24v-23q0 -15 0.5 -47t0.5 -48q0 -65 5 -150
q5 -58 5 -112q0 -8 -0.5 -23.5t-0.5 -22.5v-12q0 -8 1 -11h18q5 1 15 1h63h30t31 1q11 0 14 1h46q1 15 1 26q0 15 -1 30v33l5 -1v-32q1 -16 1 -31q-2 -30 0 -30h-51q-3 -1 -15 -1h-30t-31 -1h-62q-10 0 -15 -1h-37q-10 -1 -48 -1z" />
    <glyph glyph-name="M" unicode="M" horiz-adv-x="717" 
d="M21 2l1 6q41 -1 66 -1q0 11 1 17t-1 30q-3 29 -3 120q0 47 2 114t2 71q0 25 0.5 75t0.5 76q0 56 -3 112q-3 47 -11 106q-11 1 -18 1h-47l1 5h47q17 -2 21 0q15 -25 69 -145q71 -160 102 -250q12 -36 36 -140.5t47 -154.5q11 24 30.5 76t32.5 79q15 32 49 97t50 100
q98 213 123 335h22l58 -1v-5q-37 1 -59 1h-16q0 -122 1 -181q0 -60 2 -179.5t3 -180.5q2 -118 2 -180h66l-1 -5h-69q-51 0 -61 -1v6h60q0 117 -1 174q-1 44 -4 233t-3 295q-26 -110 -118 -313q-17 -36 -52 -101.5t-49 -95.5q-11 -24 -31 -78.5t-33 -81.5l-2 -5l-2 5
q-25 51 -48.5 157t-37.5 144q-27 79 -101 249q-61 132 -62 133q12 -74 12 -210q0 -26 -0.5 -76t-0.5 -75q0 -4 -2 -71t-2 -114q0 -82 4 -119q2 -20 0 -34q-1 -8 -1 -15h27q16 1 35 1l-1 -5q-17 0 -34 -1q-27 0 -32 1q-61 1 -67 0z" />
    <glyph glyph-name="N" unicode="N" horiz-adv-x="497" 
d="M19 3l1 6q34 -1 55 -1q-2 16 -4 51v44q0 18 2 56q2 37 6 71q3 51 3 101v152q0 140 8 221q0 4 1 11t1 10v1h-75l1 5h77q5 -1 9 -6q4 -4 18 -36q6 -14 19.5 -39.5t16.5 -31.5q4 -7 48 -118q32 -80 47 -111q28 -60 71.5 -172t62.5 -156q2 -4 4.5 -11t5.5 -15.5t4 -12.5v53
q0 95 6 156q8 82 8 154v18q0 12 -1 18q0 18 -2 72t-2 84v4q0 18 -3.5 56t-3.5 57q0 14 1 21l2 15h-55l1 5h56q64 -1 69 0v-6q-37 1 -66 1q-3 -16 -3 -36q0 -19 3 -57t3 -56v-4q0 -68 5 -156q1 -6 1 -18v-18q0 -52 -8 -154q-6 -61 -6 -156v-35q0 -24 1 -34h-7q-10 33 -17 54
q-23 52 -66 161.5t-68 165.5q-12 25 -47 110q-46 116 -48 119q-5 11 -18 34.5t-19 36.5q-10 37 -20 38v-1q0 -2 -1 -9.5t-1 -11.5q-9 -78 -9 -220v-152q0 -50 -3 -101l-3 -36t-2 -35q-2 -38 -2 -56q0 -59 5 -96h12q5 1 40 1l-1 -5h-55q-52 1 -58 0z" />
    <glyph glyph-name="O" unicode="O" horiz-adv-x="682" 
d="M307 9q-5 0 -10 1t-9.5 1.5t-9.5 2.5t-8 3.5t-8 4.5l-7.5 4.5t-7.5 5t-7 5l-8 6t-7 5.5q-2 2 -39.5 24.5t-54.5 38.5q-81 77 -81 227q0 35 4 60q14 103 45 154q42 69 68 92q8 7 25 23.5t31.5 28t28.5 18.5q42 24 78 28q1 0 17 1.5t22 1.5q24 0 66 -13q62 -22 85 -41
q55 -41 73 -96q13 -42 26 -126q5 -35 5 -68q0 -154 -74 -257q-40 -56 -105 -96t-129 -40q-7 0 -9 1zM255 709q-11 -6 -23 -15t-20.5 -16t-22 -20t-19.5 -18q-11 -10 -22 -24.5t-26 -38t-19 -28.5q-30 -48 -44 -151q-4 -25 -4 -60q0 -148 80 -224q15 -13 47 -33t45 -29
q3 -2 11 -8t11 -8t10.5 -6.5t11.5 -6.5t11 -4.5t13 -3.5t13 -1q2 0 4 -0.5t4 -0.5q62 0 126 39.5t104 95.5q73 101 73 253q0 34 -5 67q-14 86 -26 125q-18 53 -71 94q-24 19 -84 40q-39 13 -64 13q-5 0 -20.5 -1.5t-18.5 -1.5q-35 -6 -75 -28z" />
    <glyph glyph-name="P" unicode="P" horiz-adv-x="389" 
d="M28 6l1 6q37 -1 60 -1q0 28 -5 80.5t-5 78.5v82l-1 1q2 2 2 69v83q0 46 -3 137.5t-3 138.5v1q0 14 1 21l3 20h-62l1 5h68q3 1 9 1q7 0 20.5 -3.5t17.5 -3.5q25 -3 71 -24q59 -29 80 -62q27 -41 27 -102q0 -31 -16 -120q-13 -50 -28 -73q-23 -35 -70 -53
q-9 -3 -30.5 -13.5t-34.5 -14.5q-2 0 -21 -2.5t-26 -6.5v-81q0 -25 5 -77.5t5 -82.5h26q15 1 31 1l-1 -5q-15 0 -30 -1q-25 0 -30 1q-49 1 -62 0zM88 723h-1q-1 -1 -3 -1q-5 -16 -5 -40v-1q0 -47 3.5 -138.5t3.5 -137.5v-15l-2 -133q7 3 24.5 5t21.5 3q13 4 34.5 14t29.5 13
q46 19 68 52q14 22 27 71q16 89 16 119q0 59 -26 99q-19 32 -78 60q-47 22 -69 24q-6 0 -19 3.5t-19 3.5q-4 0 -6 -1z" />
    <glyph glyph-name="Q" unicode="Q" horiz-adv-x="668" 
d="M637 2v-5q-19 -1 -50 -1q-3 0 -15 0.5t-26 0.5q-1 0 -10 10q-9 12 -33.5 37t-34.5 38l-11 -7q-78 -57 -150 -57h-10q-6 0 -9 1q-66 6 -106 30q-6 5 -29.5 19.5t-36 25t-23.5 24.5q-47 64 -47 182v17q4 141 101 272q50 69 80 95q23 18 54 27q1 0 26.5 7t35.5 7q17 3 45 3
q33 0 59 -15q56 -31 76 -54q41 -45 64 -111t23 -133q0 -5 -0.5 -13t-0.5 -13q-10 -135 -49 -201q-49 -72 -88 -103l68 -75l6 -9v1q10 0 26 -0.5t35 -0.5q13 0 30 1zM469 90q37 29 87 101q37 57 47 198q2 18 2 26q0 65 -23 132t-63 109q-27 28 -74 51q-24 16 -57 16h-12
q-6 0 -10 -1l-21 -2h-2q-10 0 -34 -7t-27 -8q-31 -8 -52 -25q-29 -25 -79 -94q-32 -44 -57 -97q4 -8 12 -16.5t20 -18t17 -13.5q26 -27 81 -80q96 -90 139 -139q10 -11 106 -132zM455 79q2 2 6 4q2 2 4 3q-89 114 -105 132q-18 21 -140 140q-36 33 -81 80q-1 1 -20.5 18
t-26.5 28q-37 -81 -41 -168v-16q0 -116 46 -179q8 -11 20 -21.5t19 -15t25.5 -15.5t22.5 -14q39 -25 105 -31q3 0 9 -0.5t9 -0.5q64 0 148 56z" />
    <glyph glyph-name="R" unicode="R" horiz-adv-x="364" 
d="M349 7v-5h-64q-9 0 -17 11q-9 11 -35 51t-43 61q-10 14 -20 29.5t-21.5 36t-17.5 29.5q-20 36 -49 52q0 -45 -0.5 -133.5t-0.5 -131.5h59v-5h-123l1 5h58v166q0 66 1 101v5q0 11 0.5 34t0.5 35q0 29 1.5 89t1.5 90q0 87 -8 137q-1 5 -1 48v9q0 2 0.5 6.5t1.5 6.5h-66l1 5
h75q3 0 4 -1q6 0 9 -1q4 -1 23 -4t26.5 -4.5t22 -5.5t25.5 -9.5t21 -13.5q86 -64 86 -190v-18q0 -12 -1 -17q-8 -81 -98 -153q-57 -50 -109 -50h-2q25 -15 45 -49q5 -8 17 -30t21.5 -36.5t19.5 -27.5q26 -35 43 -62q19 -30 37 -55q7 -5 12 -5h63zM78 665q8 -51 8 -138
q0 -30 -1.5 -90t-1.5 -89v-36q0 -23 -1 -34q2 0 5.5 -0.5t5.5 -0.5q45 0 106 49q88 70 96 149q1 6 1 17v18q0 124 -84 186q-8 6 -18 11t-17 8t-20 6t-19 4t-21.5 3.5t-19.5 3.5l-14 2q-3 0 -3.5 -0.5t-1 -1.5t-0.5 -4t-1 -7v-9q0 -42 1 -47z" />
    <glyph glyph-name="S" unicode="S" horiz-adv-x="353" 
d="M299 585h-5v64q-3 14 -7 25t-7.5 17.5t-9 11.5t-8 6.5t-8.5 4.5l-5 2q-20 10 -48 10q-16 0 -41 -5q-38 -8 -59.5 -32t-21.5 -60q0 -13 3 -28q13 -65 76 -188q21 -35 37 -57q7 -9 12.5 -18.5t12 -22.5l9.5 -19q43 -82 43 -153q0 -85 -75 -118q-25 -12 -56 -12q-8 0 -11 1
q-25 1 -49 34q-35 45 -39 83v24h5v-23q4 -38 38 -81q23 -31 45 -32q3 -1 11 -1q29 0 54 12q72 31 72 113q0 71 -42 150l-16 31q-8 16 -18 29q-17 21 -38 57q-62 123 -76 190q-3 15 -3 29q-1 38 22 63.5t63 33.5q25 5 42 5q27 0 51 -11q21 -12 31 -25q7 -8 11 -24v73l5 -1
v-158z" />
    <glyph glyph-name="T" unicode="T" horiz-adv-x="328" 
d="M88 1v6h60v54q0 25 -2 53q-1 9 -1 25v27q0 40 4 121t4 123q0 30 2 89.5t2 89.5q0 10 -0.5 29.5t-0.5 28.5v14q0 10 1 15v15q0 25 4 34q-3 -1 -9 -1h-20q-15 0 -44 2t-43 2h-12q-6 0 -8 -1v-7q-1 -64 0 -69h-6q1 45 1 70v12l3 -1q3 1 10 1h12q14 0 43 -2t44 -2h11
q28 2 80 3.5t80 3.5l5 -1v-38q-2 -42 0 -47h-6q1 30 1 48v33l-68 -3l-68 -3q-5 -8 -5 -34v-15q-1 -5 -1 -15v-14q0 -9 0.5 -28.5t0.5 -29.5q0 -30 -2 -89.5t-2 -89.5q0 -42 -4 -123t-4 -121q0 -10 0.5 -27t0.5 -25q2 -28 2 -53v-54h59l-1 -5h-62q-51 0 -61 -1z" />
    <glyph glyph-name="U" unicode="U" horiz-adv-x="482" 
d="M19 727v6h118l-1 -5h-59q0 -44 -2 -126l-3 -125v-12q0 -57 9 -120q6 -29 7 -83.5t3 -70.5q6 -65 25 -113q20 -43 51 -57q15 -5 26 -5q26 0 68 22q39 23 61 69q48 98 58 210q9 97 9 191v40q0 15 -2 41q-3 73 -3 142q-57 0 -60 -1l1 6h124l1 -5h-61q0 -69 3 -142
q2 -26 2 -41v-40q0 -93 -9 -192q-11 -117 -59 -211q-12 -27 -25 -42t-37 -29q-44 -23 -71 -23q-11 0 -28 5q-37 15 -53 60q-21 53 -26 114q-2 18 -3.5 71.5t-6.5 82.5q-9 55 -9 121v12l3 125q2 82 2 126q-50 0 -53 -1z" />
    <glyph glyph-name="V" unicode="V" horiz-adv-x="555" 
d="M19 727v6h121l-1 -5h-55q0 -10 4 -19q4 -11 6 -20l17 -55q4 -11 6.5 -32t4.5 -29q2 -12 9.5 -37t10.5 -39q5 -27 19 -125t26 -151q32 -136 52 -200q9 17 16.5 35.5t17 45.5t13.5 37q26 64 42 124q8 25 20.5 72t24 85t25.5 70q33 78 52 151q1 3 2.5 11t4 21t4.5 22
q1 4 3 14t4 14l1 3q-52 0 -55 -1v6h120v-5h-60v-2q-6 -17 -8 -30l-11 -55q-19 -73 -52 -151q-14 -32 -25.5 -69.5t-24 -84t-20.5 -72.5q-17 -61 -42 -125q-36 -95 -50 -123l-3 -6l-2 6q-22 68 -54 206q-12 53 -26 151.5t-19 124.5q-3 14 -10.5 39t-9.5 37q-2 10 -5 30t-6 30
q-4 12 -16 56l-7 20q-4 9 -4 20q-57 0 -60 -1z" />
    <glyph glyph-name="W" unicode="W" horiz-adv-x="893" 
d="M19 725v6h119l-1 -5h-60q0 -11 7 -24q9 -16 11 -26q4 -15 8 -61q6 -70 25 -163q11 -51 26 -149.5t24 -144.5q2 -7 7.5 -37.5t11.5 -46.5q15 -31 19 -64q7 10 12 27t10 39t7 30l33 92q8 21 22 65t21 65q26 86 41 146q17 60 40 112q35 72 35 134v6l5 1q4 -11 4 -38t1 -34
q1 -12 3 -46t4 -49q1 -10 8 -60.5t12 -76.5q12 -74 37 -166q5 -20 13.5 -62t14.5 -63q7 -30 12 -61q9 -46 11 -49q5 10 8 32.5t5 28.5q2 7 5 13l7 14t7 13q27 55 36 88q26 93 59 174q26 65 31 81q16 56 31 83q15 29 32.5 89t18.5 62l6 16q3 8 3 11h-2q-45 0 -55 -1l1 6h118
l1 -5h-58q-3 -11 -4 -14l-5 -15q-1 -4 -18.5 -63t-33.5 -88q-13 -25 -30 -82q-5 -18 -31 -82q-29 -69 -59 -173q-12 -40 -36 -89q-1 -2 -9 -16.5t-10 -23.5q-3 -7 -6 -30.5t-9 -34.5l-2 -3l-3 3q-5 5 -7.5 14.5t-4 23t-2.5 16.5q-4 30 -12 60q-6 21 -14 62.5t-14 63.5
q-25 92 -37 166q-5 27 -11.5 76t-8.5 62q-2 15 -4 48.5t-3 45.5v23t-1 22q-8 -58 -34 -115q-24 -54 -40 -111q-12 -52 -41 -146q-7 -20 -21 -64t-22 -67l-33 -92q-3 -7 -13 -47.5t-21 -54.5l-4 -4l-1 6q-3 35 -18 68q-7 16 -13 48.5t-7 36.5q-9 46 -24 144.5t-26 149.5
q-19 93 -25 163q-4 46 -8 60q-1 10 -10 26q-8 14 -8 26q-50 0 -53 -1z" />
    <glyph glyph-name="X" unicode="X" horiz-adv-x="542" 
d="M393 -1v6h58q-18 28 -30 53q-17 35 -26 63q-4 12 -16 55.5t-21 66.5q-11 30 -34 84t-30 71l-15 33q-6 -13 -16 -39l-14 -37q-18 -48 -33 -75q-3 -8 -27.5 -61.5t-36.5 -83.5l-38 -83q-23 -41 -23 -45h30q16 1 33 1l-1 -5q-15 0 -32 -1q-26 0 -31 1q-58 1 -64 0l1 6
q10 0 29.5 -0.5t26.5 -1.5q25 42 26 47l38 83q20 51 65 145q16 29 34.5 79.5t30.5 75.5q-12 28 -71 130q-11 19 -27.5 56.5t-20.5 45.5q-6 11 -13 30q-5 13 -6 27h-61l1 5h64q29 -1 63 0v-6q-37 1 -62 1q2 -13 6 -26l12 -28q5 -10 21 -47t27 -56q48 -82 69 -125l31 62
q52 101 57 114l25 59q11 25 32 49h-2h-56l1 5h56q61 -1 66 0v-6q-49 0 -58 1q-24 -25 -59 -110q-3 -9 -58 -115q-5 -10 -32 -66q2 -3 16 -37q8 -20 31 -72.5t34 -82.5q8 -23 20 -65.5t17 -56.5q10 -30 26 -62q20 -38 31 -56h60l-1 -5h-62q-58 0 -61 -1z" />
    <glyph glyph-name="Y" unicode="Y" horiz-adv-x="547" 
d="M145 733v-6q-33 1 -61 1q7 -5 11 -12q5 -7 16 -21q14 -17 44 -47q6 -7 16.5 -20.5t15.5 -19.5l54 -56q26 -26 62 -81q4 -8 15 -21.5t15 -20.5q9 15 28 58q8 19 15.5 41t15.5 48.5t13 41.5q10 30 29 61q10 16 34 49h-58l1 5h60q49 -1 54 0v-6q-42 0 -49 1q-23 -28 -38 -51
q-19 -33 -28 -61q-2 -5 -18 -55t-27 -76q-20 -47 -66 -129t-63 -116q-32 -63 -60 -129q-20 -48 -46 -93q-3 -5 -10 -12q-3 -6 -11 -6h-67v7q37 -1 65 -1q8 0 17 13q26 43 48 94q27 62 60 130q18 36 53 99l45 81q-4 9 -17 25.5t-15 19.5q-36 55 -60 80l-54 57
q-6 6 -16.5 19.5t-16.5 19.5q-14 14 -44 48l-17 22q-6 9 -15 14h-57l1 5q16 0 33 -1q27 0 29 1q59 -2 64 0z" />
    <glyph glyph-name="Z" unicode="Z" horiz-adv-x="473" 
d="M414 111h6v-108q-63 3 -71 3q-6 0 -15 1t-13 1q-15 0 -44 -1t-44 -1q-12 0 -15 1q-9 0 -27.5 2t-31.5 2q-84 0 -121 -7l-7 -3l3 6q12 25 38 66.5t33 52.5q99 163 159 272l24 42q-24 3 -67 5h-5q-6 0 -18.5 -0.5t-19.5 -0.5q-17 0 -24 3l2 5q9 -3 22 -3q6 0 19 1t19 1
q4 0 5 -1q46 -2 69 -5h1q40 75 53 108q28 70 47 103q4 7 13 21.5t15.5 26t10.5 22.5h-10q-11 0 -34 -0.5t-35 -0.5q-8 0 -42 -2t-44 0q-3 -1 -11 -1h-12q-31 0 -67 -2q-9 1 -36 1h-37q-6 0 -19 2t-19 2q-5 0 -7 -1q-1 -31 -1 -49v-48l-5 1v47q1 37 0 49l-1 4h1v1h2q3 1 11 1
q7 0 20 -2t18 -2h1q10 0 37 -0.5t36 -0.5q36 2 66 2h12q8 0 11 1q8 -2 42 0t44 2q12 0 35 1t34 1q2 0 7 -0.5t7 -0.5h4l-2 -3q-4 -12 -11 -24.5t-16.5 -28t-13.5 -22.5q-17 -32 -25 -50q-3 -8 -8 -19t-8.5 -18.5t-5.5 -13.5q-22 -55 -52 -107q10 0 48 4.5t55 4.5q24 0 28 -6
l-5 -3q-2 6 -23 4q-17 0 -56 -4.5t-49 -4.5l-25 -44q-49 -91 -159 -272q-6 -10 -31 -50t-37 -63q36 5 117 5q13 0 31.5 -2t27.5 -2q3 -1 15 -1q15 0 44 1t43 1h1q6 0 15 -1t13 -1q7 0 66 -3v48q0 52 -1 55z" />
    <glyph glyph-name="bracketleft" unicode="[" horiz-adv-x="251" 
d="M81 -47q-4 1 -8 7q-2 4 -4 12q-3 15 -3 32q0 8 1 22t1 17q0 32 1 97.5t1 98.5v41q0 4 -0.5 14t-0.5 14q0 2 9 248q1 33 2 71t2 83t2 70v2h2q14 2 21 2q9 0 28 -1.5t28 -1.5v-5q-9 0 -28 1.5t-28 1.5q-3 0 -9 -0.5t-9 -0.5q-1 -25 -2 -70t-2 -82t-2 -70q-9 -246 -9 -248
q0 -4 0.5 -14t0.5 -14v-41q0 -33 -1 -98.5t-1 -97.5q0 -3 -1 -17t-1 -22q0 -29 6 -41q3 -5 6 -6q9 -3 23 -3q9 0 28 2t27 2h2v-5h-2q-7 0 -26 -2t-29 -2q-16 0 -25 4z" />
    <glyph glyph-name="backslash" unicode="\" horiz-adv-x="262" 
d="M218 -68h-4q-8 30 -12 56q-3 14 -7 41.5t-5 33.5q-3 16 -8 47t-8 47q-8 40 -11 48q-35 145 -41 176q-4 24 -21.5 112t-21.5 112l-16 95q-3 8 -5 27q-14 58 -16 69h5q2 -10 15 -68l6 -29q14 -86 15 -95q2 -13 20.5 -105t23.5 -120q7 -35 42 -176q3 -8 10 -48
q2 -11 7.5 -43.5t9.5 -50.5q1 -8 4.5 -34.5t6.5 -40.5q2 -11 6.5 -32t4.5 -22z" />
    <glyph glyph-name="bracketright" unicode="]" horiz-adv-x="236" 
d="M64 -66v5l62 7v7q0 16 -6 48q-7 47 -7 121q0 16 0.5 47.5t0.5 46.5v2q0 27 -3 77t-3 72v11q0 18 0.5 38.5t1.5 45.5t1 39q0 19 2.5 67.5t2.5 74.5q0 23 2 69q0 2 1 12.5t1 16.5q0 3 -0.5 7t-0.5 5h-1l-2 1h-3q-2 0 -7.5 0.5t-8.5 0.5q-13 1 -39 1v5q42 0 59 -3q3 0 4 -1
q2 0 2 -2q2 -6 2 -14q0 -6 -1 -16.5t-1 -12.5q-2 -46 -2 -69q0 -27 -2.5 -75t-2.5 -67q0 -14 -1 -39t-1.5 -45.5t-0.5 -38.5v-11q0 -21 3 -71.5t3 -77.5v-2q0 -15 -0.5 -46.5t-0.5 -47.5q0 -75 7 -120q6 -32 6 -49v-9q0 -1 -1 -2h-1q-12 -2 -25 -3z" />
    <glyph glyph-name="asciicircum" unicode="^" horiz-adv-x="284" 
d="M212 687l-2 -5q-35 25 -63 43q-7 -3 -32.5 -20.5t-37.5 -24.5l-1 6q11 6 36.5 23.5t34.5 21.5z" />
    <glyph glyph-name="underscore" unicode="_" horiz-adv-x="383" 
d="M43 -16v5q27 0 76.5 0.5t80.5 0.5q7 0 60 -0.5t68 -0.5h12v-5q-10 0 -70.5 0.5t-70.5 0.5q-29 0 -79 -0.5t-77 -0.5z" />
    <glyph glyph-name="grave" unicode="`" horiz-adv-x="140" 
d="M67 716l-4 9l4 2q3 -6 5 -9q7 -14 63 -90l-4 -4q-7 10 -21 28t-24.5 33.5t-18.5 30.5z" />
    <glyph glyph-name="a" unicode="a" 
d="M352 0v5h61q-7 13 -8 30q-2 21 -6 34q-3 10 -13 42.5t-15 50.5q-39 155 -50 227q-13 0 -27 -0.5t-31.5 -1.5t-27.5 -1q-4 0 -13 -0.5t-14 -0.5h-8q-5 0 -8 1q-3 0 -10.5 2t-12.5 2q-4 0 -5 -1l-15 -53q-26 -96 -40 -170q-6 -31 -19 -83q-12 -44 -17 -79h56v-5h-117v5
q50 2 56 0q6 37 17 80q13 52 19 83q15 78 40 171l15 53l1 4q20 75 36 124q5 13 14.5 41.5t15.5 42.5q4 11 7.5 35t6.5 35q15 41 15 62v2l1 2h6q5 -8 7.5 -19t4 -24.5t2.5 -19.5q2 -13 8 -41t9 -43q3 -19 12 -72.5t13 -82.5q13 -95 58 -274q4 -17 14 -48t14 -45q6 -19 7 -35
q3 -16 8 -30h53v-5q-64 -2 -120 0zM234 391q43 3 86 3q-2 7 -4 21l-3 21q-4 29 -13 82.5t-12 72.5q-3 15 -9 43t-8 41q-9 50 -11 55q-2 -15 -15 -58q-3 -11 -7 -34.5t-8 -35.5q-6 -14 -15 -42.5t-14 -42.5q-14 -35 -36 -123h4q2 0 23 -3q4 0 9 -0.5t7 -0.5q5 0 13.5 0.5
t12.5 0.5z" />
    <glyph glyph-name="b" unicode="b" horiz-adv-x="358" 
d="M19 731v5h72h3h8q6 0 15.5 -0.5t13.5 -0.5h10q27 0 37 -6q9 -4 23 -12t21 -11q24 -9 51 -44q30 -42 30 -117v-15q-4 -59 -68 -98q-23 -14 -42 -18q41 -13 66 -44q23 -23 28 -53q3 -17 3 -31q0 -19 -3 -37q-4 -24 -16 -57l-10 -29q-5 -15 -13 -27q-26 -40 -34 -48
q-4 -4 -16 -14.5t-18 -17.5q-35 -38 -77 -53q-1 0 -5 -0.5t-7 -1.5t-5 -2h-2h-70v5h59q6 2 8 0q0 2 -1 4v3v1l3 33q2 32 2 46q2 28 2 42v138q-1 9 -1 77q0 7 -2 35t-2 44q0 13 0.5 40.5t0.5 41.5v2q0 26 2 77.5t2 76.5v34q0 9 -2 31q-61 0 -66 1zM90 348v-39q0 -25 1 -38
q1 -6 1 -18v-18q0 -9 -0.5 -29t-0.5 -31v-43q0 -28 -1 -42l-3 -45q0 -6 -0.5 -17t-0.5 -17v-6l16 3q39 13 75 52q5 5 34 32q7 6 12.5 13.5t11.5 18t10 15.5q3 4 21 54q12 33 16 57q3 18 3 36q0 15 -3 30q-3 23 -26 51q-33 38 -80 46q-9 0 -12 1h-3q-2 0 -6 0.5t-5 0.5
q-2 0 -7 -0.5t-8 -0.5q-1 0 -4 -0.5t-5 -0.5q-3 -1 -12 -1q-6 -2 -12 -2h-15q0 -7 1 -20t1.5 -23t0.5 -19zM92 666v-1q0 -25 -2.5 -76.5t-2.5 -77.5v-96h3l23 2q6 2 10 2h12q3 1 15 1q8 0 11 -1q12 0 15 -1h3q27 0 53 17q62 41 66 95v15q0 75 -29 114q-23 30 -49 43
q-9 4 -23 12t-21 11q-14 5 -35 5h-10q-4 0 -13.5 0.5t-15.5 0.5h-7q-4 0 -6 -1q3 -21 3 -64z" />
    <glyph glyph-name="c" unicode="c" horiz-adv-x="667" 
d="M605 738h5v-188h-5q0 26 -1 41q-1 42 -13 55q-22 27 -34 36l-8 6q-27 18 -53 23q-35 9 -82 9q-8 0 -25 -0.5t-24 -0.5q-115 -7 -223 -109q-31 -28 -57 -109q-16 -46 -30 -139q-3 -22 -3 -45v-14q0 -8 1 -13q2 -52 8 -69q17 -53 58 -101q44 -47 90 -68q28 -15 86 -28
q20 -6 52 -6h21q15 0 22 1q62 2 100 18q28 14 65 44q11 8 25 23.5t14 22.5v1l6 -1q0 -10 -15 -26.5t-26 -24.5q-34 -27 -67 -44q-33 -16 -102 -18q-7 -1 -22 -1h-21q-32 0 -53 5q-64 16 -88 29q-47 23 -90 69q-45 53 -61 104q-5 15 -7 70q-1 5 -1 13v14q0 23 3 45
q13 93 31 142q26 79 58 110q112 105 224 110q9 0 26 0.5t25 0.5q52 0 83 -8q33 -7 63 -31q27 -20 44 -52q0 65 1 104z" />
    <glyph glyph-name="d" unicode="d" horiz-adv-x="510" 
d="M16 4v5h82q-2 114 -2 173q0 34 0.5 99.5t0.5 97.5q0 56 -8 176q-1 24 -1 79t-2 78q-1 5 -1 13q0 3 -2 9h-70v6h79l16 -2q4 0 8.5 -0.5t8 -1t5.5 -0.5l53 -10q99 -33 133 -60q64 -52 101 -127q17 -37 31 -115q4 -23 4 -54q0 -13 -2 -35q-6 -44 -31 -97q-25 -60 -61 -95
q-10 -9 -31.5 -29.5t-33.5 -30.5q-33 -24 -84 -49q-25 -13 -56 -24q-11 -4 -47 -6h-4q-24 -2 -86 0zM150 15q30 11 57 24q47 20 81 48q14 12 37.5 34t28.5 27q36 33 61 92q19 40 30 96q2 22 2 34q0 21 -5 53q-13 72 -31 114q-32 72 -98 125q-33 26 -133 59q-30 6 -50 9
l-41 4l1 -8q0 -9 2 -14q2 -27 2 -78t1 -79q7 -138 7 -176q0 -32 -0.5 -97.5t-0.5 -99.5q0 -97 4 -173q34 2 45 6z" />
    <glyph glyph-name="e" unicode="e" horiz-adv-x="398" 
d="M13 731v6h94q10 0 29.5 -0.5t29.5 -0.5h43q14 0 44 -2l56 -3q2 -1 7 -1h9q6 0 9 -1h2h3q2 0 3 1v-83h-6v75q-1 0 -2 1q-3 1 -9 1q-14 0 -17 1l-56 3q-44 3 -86 3q-10 0 -29.5 0.5t-29.5 0.5h-17q-1 -11 -1 -34v-34q0 -12 -2 -36t-3 -37v-34q0 -23 -1 -34v-11q0 -40 4 -71
h9q8 0 10 1q25 5 42 5l57 4h34q6 0 16 -2q4 -1 14 -1h33v61h6v-125h-6v58q-42 0 -48 1q-10 2 -16 2h-33l-57 -4q-21 0 -41 -4q-2 -1 -19 -1q0 -11 1 -14q0 -8 0.5 -24t0.5 -24q0 -18 -1 -56t-1 -58v-32q0 -87 -3 -131q-2 -34 -2 -51v-31q0 -4 -1 -7q3 1 8 1h10l75 1
q6 0 16 -0.5t14 -0.5q48 0 89 4h16q5 1 14 1v85h6v-90h-6l-13 -1q-6 -1 -17 -1q-41 -4 -89 -4q-5 0 -15 0.5t-15 0.5l-75 -1h-20q-24 -2 -65 0v5h61q1 3 1 6v32q0 14 2 52q4 43 4 130v32q0 20 1 58t1 56q0 8 -0.5 24t-0.5 23l-2 19q-6 46 -6 72q0 2 0.5 5.5t0.5 5.5
q1 11 1 34v35q1 13 3.5 36.5t2.5 35.5v34v33h-71z" />
    <glyph glyph-name="f" unicode="f" horiz-adv-x="363" 
d="M310 732v-91h-6v86h-1h-7q-4 0 -6 1q-3 1 -10 1h-58q-8 0 -12 -1q-22 -2 -31 -2h-31l-59 -3v-35q0 -10 -2 -31.5t-3 -33.5q-1 -15 -4 -95l-3 -65q4 2 7 2h9q10 0 29.5 -2t23.5 -2h72l59 -5v56h6v-113h-6v51l-29 3l-31 2q-3 1 -15 1h-12q-6 0 -17 -0.5t-16 -0.5h-11
q-3 0 -22.5 2.5t-30.5 2.5q-13 0 -16 -3q0 -7 -0.5 -21t-0.5 -22q0 -21 2 -61q1 -7 1 -21v-20q0 -57 -5 -124q0 -10 -0.5 -27t-0.5 -26q0 -7 0.5 -20t0.5 -19q0 -8 -0.5 -24t-0.5 -24l-4 -37h-5l4 37q0 8 0.5 24t0.5 24q0 6 -0.5 19t-0.5 20q0 9 0.5 26t0.5 27q5 67 5 124
q0 6 -0.5 19.5t-0.5 21.5q-2 40 -2 61q0 8 0.5 23t0.5 22l3 70q3 78 4 94q1 12 3 33.5t2 31.5v15q-1 5 -1 19h-62v6h63l64 3h27.5t34.5 2q4 1 12 1h59q7 0 10 -1q2 -1 6 -1h6q1 0 4 -0.5t3 0.5z" />
    <glyph glyph-name="g" unicode="g" horiz-adv-x="639" 
d="M561 722h5v-170h-5q0 11 -1 17q-1 41 -10 58q-12 19 -17 22q-4 3 -11.5 9t-14 10.5t-13.5 7.5q-34 21 -36 22q-37 14 -40 15q-66 15 -104 15q-33 0 -84 -31q-16 -9 -32 -24t-24.5 -25.5t-25 -32t-22.5 -29.5q-26 -32 -43 -78q-29 -68 -29 -147q0 -34 5 -74
q14 -66 24 -100q14 -54 46 -84q5 -5 14.5 -15t17 -17t16.5 -12q30 -15 46 -26q15 -12 39 -17q51 -9 56 -9q7 0 8 1q10 1 36 8q11 2 29.5 9t27.5 9q47 14 68 32q8 8 14 16t12.5 20t9.5 17t10 21t8 19q23 65 26 74q4 17 9 52q2 10 7 50l1 14v18q-16 0 -26 -2q-1 -1 -8.5 -0.5
t-8.5 0.5h-83v5h83q11 -2 16 0q2 1 13 1q5 1 14 1h49q17 -2 21 0v-6q-13 1 -22 1h-42q0 -9 -1 -18v-14l-6 -52q-1 -5 -4 -22.5t-7 -28.5q-4 -15 -13.5 -40.5t-12.5 -34.5q-26 -66 -55 -95q-23 -20 -71 -33l-28 -10l-29 -9q-21 -6 -36 -7q-2 -1 -9 -1q-13 0 -56 8
q-26 4 -42 19l-45 25q-10 5 -18.5 12.5t-17 17.5t-13.5 15q-34 30 -48 86q-15 46 -24 101q-5 40 -5 75q0 84 29 149q18 49 44 79q2 2 13 17.5t13.5 19t12 16t15 17.5t14.5 14.5t18 15.5t19 12q51 32 87 32q56 0 105 -15q6 -1 41 -15q7 -3 37 -22q16 -9 39 -28q6 -4 14 -16
q6 -7 10 -20q0 70 1 105z" />
    <glyph glyph-name="h" unicode="h" horiz-adv-x="380" 
d="M243 1v6h49v98q0 13 -1.5 39t-1.5 39q0 7 0.5 19t0.5 19q0 12 -2 34q-2 38 -2 59q0 25 2 70.5t2 59.5q-2 1 -8 1t-17 -1t-17 -1l-24 -3l-24 -3h-29q-19 0 -28 -1h-47q-7 0 -10 -1q0 -8 0.5 -21.5t0.5 -19.5v-169q0 -10 0.5 -30.5t0.5 -31.5v-9q0 -6 -1 -9v-38
q-1 -3 -1 -12v-29q1 -3 1 -19v-6q-1 -5 -1 -18v-15h51l-1 -5h-52q-48 2 -53 0v6q30 -1 50 -1v16q0 13 1 17v6q0 2 -0.5 8.5t-0.5 10.5l-1 5v11q0 11 2 25v38q1 3 1 9v9q0 11 -0.5 31.5t-0.5 30.5v169q0 6 -0.5 19t-0.5 21l-1 9q0 8 -1 36t-1 38q0 15 2 45q1 5 1 14v14
q0 16 -2 48q0 5 -2 22t-2 27q0 1 0.5 3t0.5 4q0 7 2 23q0 2 0.5 5t1 5t0.5 3h-50l1 5h52q48 -2 53 0v-6q-29 1 -51 1q0 -1 -0.5 -3t-1 -5t-0.5 -5q-2 -18 -2 -23q0 -2 -1 -4v-3q0 -9 2 -26t2 -22q2 -32 2 -49v-15q0 -9 -1 -14q-2 -30 -2 -44q0 -12 0.5 -24.5t1.5 -28
t1 -24.5q3 1 10 1h47l56 2q9 0 25.5 2.5t22.5 2.5q5 0 17 1t18 1h8v17q0 18 -0.5 38t-1.5 45t-1 39q-2 64 -2 96q0 11 -1 22q-1 9 -1 22h-51l1 5h52q48 -2 53 0v-6q-27 1 -50 1q0 -12 1 -21q1 -11 1 -23q0 -32 2 -96q3 -120 3 -122v-23q0 -15 -2 -60.5t-2 -69.5q0 -19 2 -59
q2 -22 2 -34q0 -7 -0.5 -19t-0.5 -19q0 -13 1.5 -39t1.5 -39v-98h50l-1 -5h-54q-46 0 -49 -1z" />
    <glyph glyph-name="i" unicode="i" horiz-adv-x="170" 
d="M153 731v-6q-32 1 -59 1q0 -21 -1 -30l-2 -31v-25q0 -14 0.5 -43t0.5 -44q0 -22 -1.5 -66t-1.5 -66q0 -17 -2.5 -70.5t-0.5 -87.5q-2 -14 -2 -22v-21q0 -28 2 -86q0 -12 1 -40.5t1 -39.5l-2 -25q0 -15 -1 -23h61l-1 -5h-62q-59 1 -63 0v6q37 -1 60 -1l3 48
q0 11 -1.5 39.5t-1.5 40.5q0 14 -0.5 43t-0.5 43v21q0 15 1 22q-1 35 1.5 90.5t2.5 67.5q0 22 1.5 66t1.5 66q0 15 -0.5 44t-0.5 43v26l2 30q1 10 1 30h-57l1 5h57q58 -1 63 0z" />
    <glyph glyph-name="j" unicode="j" horiz-adv-x="213" 
d="M181 734v-6q-36 1 -63 1v-10q0 -5 0.5 -14t0.5 -13q0 -6 0.5 -16t0.5 -16q2 -30 2 -46v-45q0 -37 1.5 -110t1.5 -109v-38q0 -26 -1 -39q-2 -42 -3 -126.5t-3 -126.5v-25q0 -6 -2 -15t-3 -15q-4 -41 -34 -71q-22 -22 -48 -34q-17 -11 -35 -12h-3q-6 0 -14.5 1.5t-12.5 1.5
h-3l-1 5h4q5 0 13.5 -1.5t13.5 -1.5h3q11 1 33 11q30 17 47 34q28 28 32 67q0 6 2 15t3 15v5q0 2 -0.5 7t-0.5 7q0 1 0.5 3t0.5 3q2 42 3 126.5t3 126.5q1 13 1 39v38q0 36 -1.5 109t-1.5 110v45q0 16 -2 46q0 6 -0.5 16t-0.5 16q0 4 -0.5 13t-0.5 14v10h-65l1 5h67
q60 -2 65 0z" />
    <glyph glyph-name="k" unicode="k" horiz-adv-x="425" 
d="M293 2v6h49l-3 6q-6 13 -22 37q-1 1 -12 23q-4 9 -13 24t-12 22q-8 17 -27 60t-30 66q-24 51 -45 78q-4 6 -13.5 20.5t-15.5 21.5q-9 12 -30 33q-27 29 -41 36v-39q0 -19 -2 -56.5t-2 -55.5q0 -8 0.5 -24t0.5 -23v-14q0 -8 -1 -12q-2 -22 -2 -33q0 -24 3 -47v-13
q0 -13 -2 -39v-5q0 -6 0.5 -16t0.5 -15q0 -12 -1 -23q-1 -6 -1 -13h1h52l-1 -5h-52q-51 2 -57 0l1 6q30 -1 50 -1q0 1 0.5 3t1 5t0.5 6q1 10 1 22q0 5 -0.5 15t-0.5 16v6q2 24 2 38v12q-3 24 -3 48q0 11 2 33q1 5 1 13v13q0 7 -0.5 23t-0.5 23v1q0 20 2 57t2 55v71
q0 26 -2 76v37q0 51 1 76q2 48 2 72h-60l1 5h62q59 -1 63 0v-6q-35 1 -61 1q0 -24 -2 -72q-1 -25 -1 -76v-18q0 -12 1 -18q1 -13 1 -39v-62l8 9q7 8 21.5 19.5t20.5 19.5q5 6 28.5 31.5t35.5 40.5q66 78 74 85q29 27 56 56l13 13l10 9h-50l1 5h55q59 -1 63 0v-6q-38 1 -63 1
q-8 -10 -12 -13q-7 -6 -13 -13l-28 -28l-29 -28q-15 -14 -73 -85q-11 -13 -33.5 -37t-30.5 -34q-6 -6 -20.5 -18.5t-21.5 -20.5l-9 -10q10 -5 41 -36l16 -16q8 -7 15 -18q5 -7 14 -21t15 -21q22 -27 46 -78q10 -22 28 -64t28 -63q2 -4 12 -20t14 -26q5 -14 11 -22
q16 -24 22 -37q4 -6 5 -9h62l-1 -5h-52q-39 0 -64 -1z" />
    <glyph glyph-name="l" unicode="l" horiz-adv-x="350" 
d="M17 3v6h60v10v13q0 7 0.5 22.5t0.5 23.5q0 52 -5 112q-6 102 -6 150v142l7 133q4 31 4 66q0 14 -1 23q0 9 -2 21h-53l1 5h59q58 -2 63 0v-6q-41 1 -64 1h-1q2 -10 2 -21q1 -9 1 -23q0 -38 -4 -66q-4 -65 -6 -133q-1 -8 -1 -24v-23q0 -15 0.5 -47t0.5 -48q0 -65 5 -150
q5 -58 5 -112q0 -8 -0.5 -23.5t-0.5 -22.5v-12q0 -8 1 -11h18q5 1 15 1h63h30t31 1q11 0 14 1h46q1 15 1 26q0 15 -1 30v33l5 -1v-32q1 -16 1 -31q-2 -30 0 -30h-51q-3 -1 -15 -1h-30t-31 -1h-62q-10 0 -15 -1h-37q-10 -1 -48 -1z" />
    <glyph glyph-name="m" unicode="m" horiz-adv-x="717" 
d="M21 2l1 6q41 -1 66 -1q0 11 1 17t-1 30q-3 29 -3 120q0 47 2 114t2 71q0 25 0.5 75t0.5 76q0 56 -3 112q-3 47 -11 106q-11 1 -18 1h-47l1 5h47q17 -2 21 0q15 -25 69 -145q71 -160 102 -250q12 -36 36 -140.5t47 -154.5q11 24 30.5 76t32.5 79q15 32 49 97t50 100
q98 213 123 335h22l58 -1v-5q-37 1 -59 1h-16q0 -122 1 -181q0 -60 2 -179.5t3 -180.5q2 -118 2 -180h66l-1 -5h-69q-51 0 -61 -1v6h60q0 117 -1 174q-1 44 -4 233t-3 295q-26 -110 -118 -313q-17 -36 -52 -101.5t-49 -95.5q-11 -24 -31 -78.5t-33 -81.5l-2 -5l-2 5
q-25 51 -48.5 157t-37.5 144q-27 79 -101 249q-61 132 -62 133q12 -74 12 -210q0 -26 -0.5 -76t-0.5 -75q0 -4 -2 -71t-2 -114q0 -82 4 -119q2 -20 0 -34q-1 -8 -1 -15h27q16 1 35 1l-1 -5q-17 0 -34 -1q-27 0 -32 1q-61 1 -67 0z" />
    <glyph glyph-name="n" unicode="n" horiz-adv-x="497" 
d="M19 3l1 6q34 -1 55 -1q-2 16 -4 51v44q0 18 2 56q2 37 6 71q3 51 3 101v152q0 140 8 221q0 4 1 11t1 10v1h-75l1 5h77q5 -1 9 -6q4 -4 18 -36q6 -14 19.5 -39.5t16.5 -31.5q4 -7 48 -118q32 -80 47 -111q28 -60 71.5 -172t62.5 -156q2 -4 4.5 -11t5.5 -15.5t4 -12.5v53
q0 95 6 156q8 82 8 154v18q0 12 -1 18q0 18 -2 72t-2 84v4q0 18 -3.5 56t-3.5 57q0 14 1 21l2 15h-55l1 5h56q64 -1 69 0v-6q-37 1 -66 1q-3 -16 -3 -36q0 -19 3 -57t3 -56v-4q0 -68 5 -156q1 -6 1 -18v-18q0 -52 -8 -154q-6 -61 -6 -156v-35q0 -24 1 -34h-7q-10 33 -17 54
q-23 52 -66 161.5t-68 165.5q-12 25 -47 110q-46 116 -48 119q-5 11 -18 34.5t-19 36.5q-10 37 -20 38v-1q0 -2 -1 -9.5t-1 -11.5q-9 -78 -9 -220v-152q0 -50 -3 -101l-3 -36t-2 -35q-2 -38 -2 -56q0 -59 5 -96h12q5 1 40 1l-1 -5h-55q-52 1 -58 0z" />
    <glyph glyph-name="o" unicode="o" horiz-adv-x="682" 
d="M307 9q-5 0 -10 1t-9.5 1.5t-9.5 2.5t-8 3.5t-8 4.5l-7.5 4.5t-7.5 5t-7 5l-8 6t-7 5.5q-2 2 -39.5 24.5t-54.5 38.5q-81 77 -81 227q0 35 4 60q14 103 45 154q42 69 68 92q8 7 25 23.5t31.5 28t28.5 18.5q42 24 78 28q1 0 17 1.5t22 1.5q24 0 66 -13q62 -22 85 -41
q55 -41 73 -96q13 -42 26 -126q5 -35 5 -68q0 -154 -74 -257q-40 -56 -105 -96t-129 -40q-7 0 -9 1zM255 709q-11 -6 -23 -15t-20.5 -16t-22 -20t-19.5 -18q-11 -10 -22 -24.5t-26 -38t-19 -28.5q-30 -48 -44 -151q-4 -25 -4 -60q0 -148 80 -224q15 -13 47 -33t45 -29
q3 -2 11 -8t11 -8t10.5 -6.5t11.5 -6.5t11 -4.5t13 -3.5t13 -1q2 0 4 -0.5t4 -0.5q62 0 126 39.5t104 95.5q73 101 73 253q0 34 -5 67q-14 86 -26 125q-18 53 -71 94q-24 19 -84 40q-39 13 -64 13q-5 0 -20.5 -1.5t-18.5 -1.5q-35 -6 -75 -28z" />
    <glyph glyph-name="p" unicode="p" horiz-adv-x="389" 
d="M28 6l1 6q37 -1 60 -1q0 28 -5 80.5t-5 78.5v82l-1 1q2 2 2 69v83q0 46 -3 137.5t-3 138.5v1q0 14 1 21l3 20h-62l1 5h68q3 1 9 1q7 0 20.5 -3.5t17.5 -3.5q25 -3 71 -24q59 -29 80 -62q27 -41 27 -102q0 -31 -16 -120q-13 -50 -28 -73q-23 -35 -70 -53
q-9 -3 -30.5 -13.5t-34.5 -14.5q-2 0 -21 -2.5t-26 -6.5v-81q0 -25 5 -77.5t5 -82.5h26q15 1 31 1l-1 -5q-15 0 -30 -1q-25 0 -30 1q-49 1 -62 0zM88 723h-1q-1 -1 -3 -1q-5 -16 -5 -40v-1q0 -47 3.5 -138.5t3.5 -137.5v-15l-2 -133q7 3 24.5 5t21.5 3q13 4 34.5 14t29.5 13
q46 19 68 52q14 22 27 71q16 89 16 119q0 59 -26 99q-19 32 -78 60q-47 22 -69 24q-6 0 -19 3.5t-19 3.5q-4 0 -6 -1z" />
    <glyph glyph-name="q" unicode="q" horiz-adv-x="668" 
d="M637 2v-5q-19 -1 -50 -1q-3 0 -15 0.5t-26 0.5q-1 0 -10 10q-9 12 -33.5 37t-34.5 38l-11 -7q-78 -57 -150 -57h-10q-6 0 -9 1q-66 6 -106 30q-6 5 -29.5 19.5t-36 25t-23.5 24.5q-47 64 -47 182v17q4 141 101 272q50 69 80 95q23 18 54 27q1 0 26.5 7t35.5 7q17 3 45 3
q33 0 59 -15q56 -31 76 -54q41 -45 64 -111t23 -133q0 -5 -0.5 -13t-0.5 -13q-10 -135 -49 -201q-49 -72 -88 -103l68 -75l6 -9v1q10 0 26 -0.5t35 -0.5q13 0 30 1zM469 90q37 29 87 101q37 57 47 198q2 18 2 26q0 65 -23 132t-63 109q-27 28 -74 51q-24 16 -57 16h-12
q-6 0 -10 -1l-21 -2h-2q-10 0 -34 -7t-27 -8q-31 -8 -52 -25q-29 -25 -79 -94q-32 -44 -57 -97q4 -8 12 -16.5t20 -18t17 -13.5q26 -27 81 -80q96 -90 139 -139q10 -11 106 -132zM455 79q2 2 6 4q2 2 4 3q-89 114 -105 132q-18 21 -140 140q-36 33 -81 80q-1 1 -20.5 18
t-26.5 28q-37 -81 -41 -168v-16q0 -116 46 -179q8 -11 20 -21.5t19 -15t25.5 -15.5t22.5 -14q39 -25 105 -31q3 0 9 -0.5t9 -0.5q64 0 148 56z" />
    <glyph glyph-name="r" unicode="r" horiz-adv-x="364" 
d="M349 7v-5h-64q-9 0 -17 11q-9 11 -35 51t-43 61q-10 14 -20 29.5t-21.5 36t-17.5 29.5q-20 36 -49 52q0 -45 -0.5 -133.5t-0.5 -131.5h59v-5h-123l1 5h58v166q0 66 1 101v5q0 11 0.5 34t0.5 35q0 29 1.5 89t1.5 90q0 87 -8 137q-1 5 -1 48v9q0 2 0.5 6.5t1.5 6.5h-66l1 5
h75q3 0 4 -1q6 0 9 -1q4 -1 23 -4t26.5 -4.5t22 -5.5t25.5 -9.5t21 -13.5q86 -64 86 -190v-18q0 -12 -1 -17q-8 -81 -98 -153q-57 -50 -109 -50h-2q25 -15 45 -49q5 -8 17 -30t21.5 -36.5t19.5 -27.5q26 -35 43 -62q19 -30 37 -55q7 -5 12 -5h63zM78 665q8 -51 8 -138
q0 -30 -1.5 -90t-1.5 -89v-36q0 -23 -1 -34q2 0 5.5 -0.5t5.5 -0.5q45 0 106 49q88 70 96 149q1 6 1 17v18q0 124 -84 186q-8 6 -18 11t-17 8t-20 6t-19 4t-21.5 3.5t-19.5 3.5l-14 2q-3 0 -3.5 -0.5t-1 -1.5t-0.5 -4t-1 -7v-9q0 -42 1 -47z" />
    <glyph glyph-name="s" unicode="s" horiz-adv-x="353" 
d="M299 585h-5v64q-3 14 -7 25t-7.5 17.5t-9 11.5t-8 6.5t-8.5 4.5l-5 2q-20 10 -48 10q-16 0 -41 -5q-38 -8 -59.5 -32t-21.5 -60q0 -13 3 -28q13 -65 76 -188q21 -35 37 -57q7 -9 12.5 -18.5t12 -22.5l9.5 -19q43 -82 43 -153q0 -85 -75 -118q-25 -12 -56 -12q-8 0 -11 1
q-25 1 -49 34q-35 45 -39 83v24h5v-23q4 -38 38 -81q23 -31 45 -32q3 -1 11 -1q29 0 54 12q72 31 72 113q0 71 -42 150l-16 31q-8 16 -18 29q-17 21 -38 57q-62 123 -76 190q-3 15 -3 29q-1 38 22 63.5t63 33.5q25 5 42 5q27 0 51 -11q21 -12 31 -25q7 -8 11 -24v73l5 -1
v-158z" />
    <glyph glyph-name="t" unicode="t" horiz-adv-x="328" 
d="M88 1v6h60v54q0 25 -2 53q-1 9 -1 25v27q0 40 4 121t4 123q0 30 2 89.5t2 89.5q0 10 -0.5 29.5t-0.5 28.5v14q0 10 1 15v15q0 25 4 34q-3 -1 -9 -1h-20q-15 0 -44 2t-43 2h-12q-6 0 -8 -1v-7q-1 -64 0 -69h-6q1 45 1 70v12l3 -1q3 1 10 1h12q14 0 43 -2t44 -2h11
q28 2 80 3.5t80 3.5l5 -1v-38q-2 -42 0 -47h-6q1 30 1 48v33l-68 -3l-68 -3q-5 -8 -5 -34v-15q-1 -5 -1 -15v-14q0 -9 0.5 -28.5t0.5 -29.5q0 -30 -2 -89.5t-2 -89.5q0 -42 -4 -123t-4 -121q0 -10 0.5 -27t0.5 -25q2 -28 2 -53v-54h59l-1 -5h-62q-51 0 -61 -1z" />
    <glyph glyph-name="u" unicode="u" horiz-adv-x="482" 
d="M19 727v6h118l-1 -5h-59q0 -44 -2 -126l-3 -125v-12q0 -57 9 -120q6 -29 7 -83.5t3 -70.5q6 -65 25 -113q20 -43 51 -57q15 -5 26 -5q26 0 68 22q39 23 61 69q48 98 58 210q9 97 9 191v40q0 15 -2 41q-3 73 -3 142q-57 0 -60 -1l1 6h124l1 -5h-61q0 -69 3 -142
q2 -26 2 -41v-40q0 -93 -9 -192q-11 -117 -59 -211q-12 -27 -25 -42t-37 -29q-44 -23 -71 -23q-11 0 -28 5q-37 15 -53 60q-21 53 -26 114q-2 18 -3.5 71.5t-6.5 82.5q-9 55 -9 121v12l3 125q2 82 2 126q-50 0 -53 -1z" />
    <glyph glyph-name="v" unicode="v" horiz-adv-x="555" 
d="M19 727v6h121l-1 -5h-55q0 -10 4 -19q4 -11 6 -20l17 -55q4 -11 6.5 -32t4.5 -29q2 -12 9.5 -37t10.5 -39q5 -27 19 -125t26 -151q32 -136 52 -200q9 17 16.5 35.5t17 45.5t13.5 37q26 64 42 124q8 25 20.5 72t24 85t25.5 70q33 78 52 151q1 3 2.5 11t4 21t4.5 22
q1 4 3 14t4 14l1 3q-52 0 -55 -1v6h120v-5h-60v-2q-6 -17 -8 -30l-11 -55q-19 -73 -52 -151q-14 -32 -25.5 -69.5t-24 -84t-20.5 -72.5q-17 -61 -42 -125q-36 -95 -50 -123l-3 -6l-2 6q-22 68 -54 206q-12 53 -26 151.5t-19 124.5q-3 14 -10.5 39t-9.5 37q-2 10 -5 30t-6 30
q-4 12 -16 56l-7 20q-4 9 -4 20q-57 0 -60 -1z" />
    <glyph glyph-name="w" unicode="w" horiz-adv-x="893" 
d="M19 725v6h119l-1 -5h-60q0 -11 7 -24q9 -16 11 -26q4 -15 8 -61q6 -70 25 -163q11 -51 26 -149.5t24 -144.5q2 -7 7.5 -37.5t11.5 -46.5q15 -31 19 -64q7 10 12 27t10 39t7 30l33 92q8 21 22 65t21 65q26 86 41 146q17 60 40 112q35 72 35 134v6l5 1q4 -11 4 -38t1 -34
q1 -12 3 -46t4 -49q1 -10 8 -60.5t12 -76.5q12 -74 37 -166q5 -20 13.5 -62t14.5 -63q7 -30 12 -61q9 -46 11 -49q5 10 8 32.5t5 28.5q2 7 5 13l7 14t7 13q27 55 36 88q26 93 59 174q26 65 31 81q16 56 31 83q15 29 32.5 89t18.5 62l6 16q3 8 3 11h-2q-45 0 -55 -1l1 6h118
l1 -5h-58q-3 -11 -4 -14l-5 -15q-1 -4 -18.5 -63t-33.5 -88q-13 -25 -30 -82q-5 -18 -31 -82q-29 -69 -59 -173q-12 -40 -36 -89q-1 -2 -9 -16.5t-10 -23.5q-3 -7 -6 -30.5t-9 -34.5l-2 -3l-3 3q-5 5 -7.5 14.5t-4 23t-2.5 16.5q-4 30 -12 60q-6 21 -14 62.5t-14 63.5
q-25 92 -37 166q-5 27 -11.5 76t-8.5 62q-2 15 -4 48.5t-3 45.5v23t-1 22q-8 -58 -34 -115q-24 -54 -40 -111q-12 -52 -41 -146q-7 -20 -21 -64t-22 -67l-33 -92q-3 -7 -13 -47.5t-21 -54.5l-4 -4l-1 6q-3 35 -18 68q-7 16 -13 48.5t-7 36.5q-9 46 -24 144.5t-26 149.5
q-19 93 -25 163q-4 46 -8 60q-1 10 -10 26q-8 14 -8 26q-50 0 -53 -1z" />
    <glyph glyph-name="x" unicode="x" horiz-adv-x="542" 
d="M393 -1v6h58q-18 28 -30 53q-17 35 -26 63q-4 12 -16 55.5t-21 66.5q-11 30 -34 84t-30 71l-15 33q-6 -13 -16 -39l-14 -37q-18 -48 -33 -75q-3 -8 -27.5 -61.5t-36.5 -83.5l-38 -83q-23 -41 -23 -45h30q16 1 33 1l-1 -5q-15 0 -32 -1q-26 0 -31 1q-58 1 -64 0l1 6
q10 0 29.5 -0.5t26.5 -1.5q25 42 26 47l38 83q20 51 65 145q16 29 34.5 79.5t30.5 75.5q-12 28 -71 130q-11 19 -27.5 56.5t-20.5 45.5q-6 11 -13 30q-5 13 -6 27h-61l1 5h64q29 -1 63 0v-6q-37 1 -62 1q2 -13 6 -26l12 -28q5 -10 21 -47t27 -56q48 -82 69 -125l31 62
q52 101 57 114l25 59q11 25 32 49h-2h-56l1 5h56q61 -1 66 0v-6q-49 0 -58 1q-24 -25 -59 -110q-3 -9 -58 -115q-5 -10 -32 -66q2 -3 16 -37q8 -20 31 -72.5t34 -82.5q8 -23 20 -65.5t17 -56.5q10 -30 26 -62q20 -38 31 -56h60l-1 -5h-62q-58 0 -61 -1z" />
    <glyph glyph-name="y" unicode="y" horiz-adv-x="547" 
d="M145 733v-6q-33 1 -61 1q7 -5 11 -12q5 -7 16 -21q14 -17 44 -47q6 -7 16.5 -20.5t15.5 -19.5l54 -56q26 -26 62 -81q4 -8 15 -21.5t15 -20.5q9 15 28 58q8 19 15.5 41t15.5 48.5t13 41.5q10 30 29 61q10 16 34 49h-58l1 5h60q49 -1 54 0v-6q-42 0 -49 1q-23 -28 -38 -51
q-19 -33 -28 -61q-2 -5 -18 -55t-27 -76q-20 -47 -66 -129t-63 -116q-32 -63 -60 -129q-20 -48 -46 -93q-3 -5 -10 -12q-3 -6 -11 -6h-67v7q37 -1 65 -1q8 0 17 13q26 43 48 94q27 62 60 130q18 36 53 99l45 81q-4 9 -17 25.5t-15 19.5q-36 55 -60 80l-54 57
q-6 6 -16.5 19.5t-16.5 19.5q-14 14 -44 48l-17 22q-6 9 -15 14h-57l1 5q16 0 33 -1q27 0 29 1q59 -2 64 0z" />
    <glyph glyph-name="z" unicode="z" horiz-adv-x="473" 
d="M414 111h6v-108q-63 3 -71 3q-6 0 -15 1t-13 1q-15 0 -44 -1t-44 -1q-12 0 -15 1q-9 0 -27.5 2t-31.5 2q-84 0 -121 -7l-7 -3l3 6q12 25 38 66.5t33 52.5q99 163 159 272l24 42q-24 3 -67 5h-5q-6 0 -18.5 -0.5t-19.5 -0.5q-17 0 -24 3l2 5q9 -3 22 -3q6 0 19 1t19 1
q4 0 5 -1q46 -2 69 -5h1q40 75 53 108q28 70 47 103q4 7 13 21.5t15.5 26t10.5 22.5h-10q-11 0 -34 -0.5t-35 -0.5q-8 0 -42 -2t-44 0q-3 -1 -11 -1h-12q-31 0 -67 -2q-9 1 -36 1h-37q-6 0 -19 2t-19 2q-5 0 -7 -1q-1 -31 -1 -49v-48l-5 1v47q1 37 0 49l-1 4h1v1h2q3 1 11 1
q7 0 20 -2t18 -2h1q10 0 37 -0.5t36 -0.5q36 2 66 2h12q8 0 11 1q8 -2 42 0t44 2q12 0 35 1t34 1q2 0 7 -0.5t7 -0.5h4l-2 -3q-4 -12 -11 -24.5t-16.5 -28t-13.5 -22.5q-17 -32 -25 -50q-3 -8 -8 -19t-8.5 -18.5t-5.5 -13.5q-22 -55 -52 -107q10 0 48 4.5t55 4.5q24 0 28 -6
l-5 -3q-2 6 -23 4q-17 0 -56 -4.5t-49 -4.5l-25 -44q-49 -91 -159 -272q-6 -10 -31 -50t-37 -63q36 5 117 5q13 0 31.5 -2t27.5 -2q3 -1 15 -1q15 0 44 1t43 1h1q6 0 15 -1t13 -1q7 0 66 -3v48q0 52 -1 55z" />
    <glyph glyph-name="braceleft" unicode="{" horiz-adv-x="222" 
d="M92 -65q-3 2 -5 8q0 1 -0.5 5t-0.5 5q0 5 1 14t1 11q0 8 1 25t1 26v130q0 15 0.5 44t0.5 43q0 29 -1 43q0 22 -1 33q-2 20 -12 29q-9 7 -21 7v5q5 1 7 1l6 4t6 3.5l5 2.5q7 3 8 14q1 3 1 9t-1.5 18t-1.5 19q0 22 -1 65.5t-1 65.5v69q0 59 4 87q5 42 13 52q3 5 12 9
q8 4 14 4q5 0 9 -3q4 -2 4 -8q0 -1 -0.5 -3t-0.5 -3l-5 2v2q1 1 1 2q0 2 -2 4t-6 2l-12 -3q-6 -3 -10 -8q-7 -8 -12 -49q-4 -29 -4 -87v-69q0 -21 1 -65t1 -66q0 -6 1.5 -18t1.5 -19t-1 -10q-1 -12 -11 -18l-15 -7q8 -3 14 -7q8 -10 11 -20q3 -12 3 -46q1 -14 1 -43
q0 -14 -0.5 -43t-0.5 -44v-130q0 -9 -1 -26t-1 -25q0 -3 -1 -11.5t-1 -13.5q0 -1 0.5 -4t0.5 -5l3 -5q4 -4 10 -4q5 0 11 4q5 3 5 6t-3 4l3 4q5 -3 5 -8q0 -7 -7 -10q-7 -5 -14 -5q-6 0 -13 5z" />
    <glyph glyph-name="bar" unicode="|" horiz-adv-x="225" 
d="M115 -75h-4v55q0 12 -1.5 37t-1.5 38q0 17 -1 48.5t-1 47.5q0 41 1 49q8 165 8 181q-1 22 -1 66t0.5 97t0.5 66q-1 14 -1.5 30.5t-1 35.5t-0.5 30v30q2 44 2 69l5 1q1 -21 -3 -71q2 -17 0 -27l3 -96q1 -25 0.5 -114.5t-0.5 -113.5q0 -1 -6 -181q-2 -11 -2 -49
q0 -16 1 -48t1 -48q3 -72 3 -75q0 -38 -1 -58z" />
    <glyph glyph-name="braceright" unicode="}" horiz-adv-x="250" 
d="M115 -65q-9 0 -13 3q-6 4 -6 9q0 3 2 4l5 3l1 -5l-3 -2q-2 -2 4 -4q3 -3 10 -3q8 0 11 6q2 2 2 8q0 4 -2 16q-3 9 -3 16q-2 130 -2 195v30q0 56 2 84v18.5t2 24.5q3 14 9 17q8 6 13 8l-8 4q-5 2 -7 7l-3 9q-1 6 -1.5 18.5t-0.5 16.5q-3 50 -3 101q0 19 0.5 56.5t0.5 55.5
v10q0 10 0.5 30t0.5 30q0 28 -3 41q-2 15 -5 21q-5 10 -17 13q-2 1 -5 1q-8 0 -16 -4q-7 -5 -7 -10q0 -1 2 -5l-4 -3q-3 4 -3 8q0 9 9 14q10 5 19 5q4 0 6 -1q15 -3 20 -16q4 -7 6 -22q3 -14 3 -42q0 -10 -0.5 -30.5t-0.5 -29.5v-10q0 -19 -0.5 -56t-0.5 -56q0 -50 3 -101
q0 -4 0.5 -16t1.5 -18l2 -8l3 -3q1 -1 15 -7l5 -2l-4 -2q-4 -3 -10 -5.5t-8 -4.5q-6 -8 -7 -15q-2 -8 -2 -23.5v-18.5q-2 -28 -2 -84v-30q0 -65 2 -195q0 -6 3 -15q2 -10 2 -17t-2 -10q-5 -9 -16 -9z" />
    <glyph glyph-name="itilde" unicode="~" horiz-adv-x="157" 
d="M33 389l-4 4q27 21 52 6q22 -14 49 6l2 -5q-25 -21 -49 -8q-1 1 -4.5 3t-4.5 2.5l-4 2t-5 1.5t-5 0.5t-5.5 -0.5t-6 -2.5t-7.5 -4t-8 -5.5z" />
    <glyph glyph-name="itilde" unicode="&#x129;" horiz-adv-x="157" 
d="M33 389l-4 4q27 21 52 6q22 -14 49 6l2 -5q-25 -21 -49 -8q-1 1 -4.5 3t-4.5 2.5l-4 2t-5 1.5t-5 0.5t-5.5 -0.5t-6 -2.5t-7.5 -4t-8 -5.5z" />
    <glyph glyph-name="sterling" unicode="&#xa3;" horiz-adv-x="368" 
d="M84 391l-1 5q9 2 30 2h35l-6 77q-7 56 -7 107q0 45 7 79q10 39 32 57q16 14 40 14q9 0 14 -1q20 -3 37 -21q11 -15 11 -37q0 -48 -36 -69l-2 3q34 23 34 66q0 20 -10 33q-12 17 -34 20q-5 1 -14 1q-23 0 -38 -12q-16 -15 -23 -33q-14 -36 -14 -100q0 -51 7 -107l7 -77
q58 2 90 5l1 -5q-15 -1 -91 -4q4 -72 4 -108q0 -40 -3 -79q-8 -102 -41 -157l-8 -10q32 -4 39 -4q11 0 42 -7t47 -7q21 0 33 9q13 10 16 37h4q-3 -29 -18 -40q-14 -11 -35 -11q-16 0 -47.5 7t-41.5 7q-6 0 -20.5 2t-21.5 2l-11 -12q-16 -16 -31 -16q-12 0 -21 14l-1 1l1 2
q15 16 52 16h9q3 3 9 12q33 56 41 155q3 41 3 79q0 36 -4 108q-4 0 -10 -0.5t-9 -0.5h-17q-20 0 -29 -2zM60 12q13 0 28 15q6 4 8 8h-5q-34 0 -48 -13q7 -10 17 -10z" />
    <glyph glyph-name="dieresis" unicode="&#xa8;" horiz-adv-x="280" 
d="M58 780v6q31 -2 58 -3v-6q-12 1 -30 1.5t-28 1.5zM147 779v5h26.5t33.5 -1l-1 -6q-13 1 -31 1t-28 1z" />
    <glyph glyph-name="copyright" unicode="&#xa9;" horiz-adv-x="540" 
d="M461 565q5 -23 5 -53q0 -69 -29 -130q-37 -79 -120 -119q-19 -9 -45 -9q-6 0 -16 0.5t-16 0.5q-24 2 -61 19q-28 12 -58 44q-26 26 -43 77q-2 7 -10 45q-5 23 -5 43q0 14 4 40q10 62 41 104q7 10 17 20t16.5 16t20 17t19.5 16q2 2 11 8t29 14.5t42 12t51.5 -2.5t56.5 -24
q41 -28 55 -51q9 -16 20 -43q13 -30 15 -45zM433 384q28 62 28 128q0 29 -4 52q-4 20 -16 44q-13 32 -19 43q-20 31 -52 48q-1 0 -12 6.5t-16.5 9t-19 7t-24.5 5t-28 -1t-34 -6.5q-31 -9 -52 -27q-4 -3 -13 -10.5t-13.5 -11t-12 -10t-12 -11.5t-10.5 -11.5t-11 -13.5
q-30 -41 -40 -101q-4 -17 -4 -40q0 -16 4 -42q1 -5 4.5 -20.5t6.5 -24.5q16 -49 41 -75q32 -32 57 -43q41 -16 59 -18q6 0 16.5 -0.5t15.5 -0.5q23 0 43 8q81 40 118 117zM341 365q9 3 11 7l4 -2q-2 -6 -13 -10l-15 -6q-14 -7 -33 -10q-7 -1 -21 -1q-46 0 -82 21
q-29 16 -48 68q-13 41 -13 68q0 28 13 54q30 53 74 76q35 20 74 20h1q20 0 32 -2q20 -4 28 -13l-3 -3q-8 8 -26 11q-11 2 -31 2h-1q-37 0 -72 -20q-44 -23 -71 -74q-13 -23 -13 -51q0 -25 13 -66q16 -50 45 -66q37 -20 80 -20q14 0 20 1q15 1 32 10z" />
    <glyph glyph-name="guillemotleft" unicode="&#xab;" horiz-adv-x="357" 
d="M256 230q-8 9 -32 43q-10 12 -26.5 33.5t-23.5 29.5q-3 3 -14 17t-19 20l-2 1l2 1q5 12 20 27q45 44 53 54q30 32 40 41q15 17 16 20l5 -2q-5 -9 -19 -21q-20 -20 -39 -42q-11 -13 -52 -54q-1 -1 -8.5 -9.5t-11.5 -13.5q6 -4 11.5 -10t11.5 -14t10 -12q8 -10 24 -31
t25 -32q31 -40 34 -43q1 -2 5.5 -6t6.5 -6l-3 -3q-2 3 -7 6.5t-7 5.5zM183 215q-4 3 -5 5t-4 5.5t-3 4.5l-4 5q-11 9 -22.5 23t-14.5 18q-13 13 -33.5 38t-31.5 36q-1 1 -9.5 10.5t-12.5 14.5l-2 2l2 1q17 17 39 48q7 9 22.5 24.5l20.5 20.5q3 3 12 13t15 15l19 19l3 -3
q-3 -3 -6 -6.5t-7 -7t-6 -5.5l-27 -28q-41 -44 -43 -46q-4 -5 -17 -21t-20 -24q3 -5 11 -13l10 -10q12 -13 33 -39t30 -36q6 -6 17.5 -19t21.5 -22q2 -4 6 -7q1 -2 4 -5.5t3 -4.5q3 -3 4 -3l-2 -5q-1 0 -3 2z" />
    <glyph glyph-name="registered" unicode="&#xae;" horiz-adv-x="519" 
d="M430 573q13 -34 13 -83v-3q0 -91 -35 -156q-14 -27 -49 -62q-41 -43 -85 -47q-7 -1 -22 -1q-68 0 -105 37q-37 36 -56.5 88t-19.5 106q0 28 4 49q16 90 58 147q23 31 47 44q40 19 53 23q10 4 24 4q12 0 32 -4q11 -2 23 -7q67 -40 87 -76zM438 487v3q0 48 -13 81
q-1 3 -30 58q-23 39 -86 74q-6 4 -21 7q-13 4 -31 4q-11 0 -27 -4q-32 -15 -47 -23q-26 -13 -46 -42q-41 -55 -57 -145q-4 -20 -4 -48q0 -116 75 -191q35 -35 101 -35q14 0 21 1q45 5 83 45q34 36 48 62q34 63 34 153zM294 427q-30 -36 -68 -52q7 -9 25 -24t23 -20
q5 -4 14.5 -17t15.5 -17l-3 -4q-7 5 -18 19.5t-12 15.5q-3 3 -23 19t-28 27v-80h-5v202q0 24 2.5 71t2.5 70q9 5 21 5q22 0 45 -17q24 -17 35 -52q6 -24 6 -63v-2q0 -41 -33 -81zM221 378q40 17 69 52q32 37 32 78v2q0 38 -6 62q-8 31 -32 49q-21 16 -43 16q-9 0 -17 -4
q0 -9 -2 -55t-2 -82v-118h1z" />
    <glyph glyph-name="acute" unicode="&#xb4;" horiz-adv-x="228" 
d="M80 567l-1 6q22 12 46.5 22.5t47.5 23.5l2 -5q-22 -13 -47.5 -23.5t-47.5 -23.5z" />
    <glyph glyph-name="guillemotright" unicode="&#xbb;" horiz-adv-x="403" 
d="M192 205l-2 4q27 27 45 52q12 18 47 62q4 4 11.5 15.5t14.5 20t15 14.5q-5 4 -10 9.5t-10 13t-8 11.5q-17 18 -51 50q-6 7 -12.5 14t-15 15.5t-12.5 13.5q-9 13 -14 14l1 5q5 -2 10.5 -8t6.5 -7q24 -28 39 -43q40 -38 52 -51l9 -12t11 -14t10 -10l3 -1l-3 -3
q-10 -7 -43 -50q-10 -12 -26.5 -33.5t-21.5 -27.5q-17 -29 -46 -54zM89 202l-5 2q1 8 10 17q3 4 8 8.5t6 6.5q10 11 26 31t21 26q47 64 53 70q7 4 8 6q-4 4 -18 14q-7 5 -34 35q-34 34 -51 59q-22 31 -24 41h5q1 -4 23 -39q16 -25 50 -57q4 -4 11 -11.5t12.5 -13.5t11.5 -10
l19 -15l1 -2v-2q-5 -6 -10 -9q-4 -4 -54 -68q-31 -42 -46 -58l-14 -14q-9 -9 -9 -17z" />
    <glyph glyph-name="questiondown" unicode="&#xbf;" horiz-adv-x="290" 
d="M156 646h6q-2 -12 -2 -45v-2q0 -8 -1 -24t-1 -25v-93q0 -15 1 -49t1 -52q0 -64 -16 -101q-7 -17 -27 -49t-25 -42q-33 -52 -33 -94q0 -9 2 -25q6 -20 20 -31q16 -8 35 -8q17 0 29 4q17 5 24 11q11 5 16 16q4 9 5 20q0 4 1.5 13.5t1.5 14.5v1h5v-1q0 -5 -1.5 -15.5
t-1.5 -12.5q-2 -19 -5 -23q-6 -10 -18 -18q-6 -4 -25 -10q-15 -4 -31 -4q-24 0 -38 9q-16 10 -22 32q0 3 -1 8.5t-1.5 10t-0.5 8.5q0 42 34 97q6 10 18 29t20.5 33.5t13.5 27.5q16 35 16 99q0 18 -1 52t-1 49v93q0 9 1 25t1 24v2q0 33 1 45zM161 728h5q-2 -8 -2 -15
q-3 -3 -6 0q0 3 3 15z" />
    <glyph glyph-name="Agrave" unicode="&#xc0;" 
d="M309 759l-1 -6q-22 13 -47.5 23.5t-47.5 23.5l2 5q23 -13 47.5 -23.5t46.5 -22.5zM352 0v5h61q-7 13 -8 30q-2 21 -6 34q-3 10 -13 42.5t-15 50.5q-39 155 -50 227q-13 0 -27 -0.5t-31.5 -1.5t-27.5 -1q-4 0 -13 -0.5t-14 -0.5h-8q-5 0 -8 1q-3 0 -10.5 2t-12.5 2
q-4 0 -5 -1l-15 -53q-26 -96 -40 -170q-6 -31 -19 -83q-12 -44 -17 -79h56v-5h-117v5q50 2 56 0q6 37 17 80q13 52 19 83q15 78 40 171l15 53l1 4q20 75 36 124q5 13 14.5 41.5t15.5 42.5q4 11 7.5 35t6.5 35q15 41 15 62v2l1 2h6q5 -8 7.5 -19t4 -24.5t2.5 -19.5
q2 -13 8 -41t9 -43q3 -19 12 -72.5t13 -82.5q13 -95 58 -274q4 -17 14 -48t14 -45q6 -19 7 -35q3 -16 8 -30h53v-5q-64 -2 -120 0zM234 391q43 3 86 3q-2 7 -4 21l-3 21q-4 29 -13 82.5t-12 72.5q-3 15 -9 43t-8 41q-9 50 -11 55q-2 -15 -15 -58q-3 -11 -7 -34.5t-8 -35.5
q-6 -14 -15 -42.5t-14 -42.5q-14 -35 -36 -123h4q2 0 23 -3q4 0 9 -0.5t7 -0.5q5 0 13.5 0.5t12.5 0.5z" />
    <glyph glyph-name="Aacute" unicode="&#xc1;" 
d="M215 763l-1 6q22 12 46.5 22.5t47.5 23.5l2 -5q-22 -13 -47.5 -23.5t-47.5 -23.5zM352 5v-5q56 -2 120 0v5h-53q-5 14 -8 30q-1 16 -7 35q-4 14 -14 45t-14 48q-45 179 -58 274q-4 29 -13 82.5t-12 72.5q-3 15 -9 43t-8 41q-1 6 -2.5 19.5t-4 24.5t-7.5 19h-6l-1 -2v-2
q0 -21 -15 -62q-3 -11 -6.5 -35t-7.5 -35q-6 -14 -15.5 -42.5t-14.5 -41.5q-16 -49 -36 -124l-1 -4l-15 -53q-25 -93 -40 -171q-6 -31 -19 -83q-11 -43 -17 -80q-6 2 -56 0v-5h117v5h-56q5 35 17 79q13 52 19 83q14 74 40 170l15 53q1 1 5 1q5 0 12.5 -2t10.5 -2q3 -1 8 -1
h8q5 0 14 0.5t13 0.5q1 0 35 1.5t51 1.5q11 -72 50 -227q5 -18 15 -50.5t13 -42.5q4 -13 6 -34q1 -17 8 -30h-61zM234 391q-4 0 -12.5 -0.5t-13.5 -0.5q-2 0 -7 0.5t-9 0.5q-21 3 -23 3h-4q22 88 36 123q5 14 14 42.5t15 42.5q4 12 8 35.5t7 34.5q13 43 15 58q2 -5 11 -55
q2 -13 8 -41t9 -43q3 -19 12 -72.5t13 -82.5l3 -21t4 -21q-42 0 -86 -3z" />
    <glyph glyph-name="Acircumflex" unicode="&#xc2;" 
d="M305 759l-2 -5q-8 5 -24 17.5t-22 16.5q-7 -3 -23.5 -14t-28.5 -18l-1 6q11 6 27.5 17.5t25.5 15.5zM352 5v-5q56 -2 120 0v5h-53q-5 14 -8 30q-1 16 -7 35q-4 14 -14 45t-14 48q-45 179 -58 274q-4 29 -13 82.5t-12 72.5q-3 15 -9 43t-8 41q-1 6 -2.5 19.5t-4 24.5
t-7.5 19h-6l-1 -2v-2q0 -21 -15 -62q-3 -11 -6.5 -35t-7.5 -35q-6 -14 -15.5 -42.5t-14.5 -41.5q-16 -49 -36 -124l-1 -4l-15 -53q-25 -93 -40 -171q-6 -31 -19 -83q-11 -43 -17 -80q-6 2 -56 0v-5h117v5h-56q5 35 17 79q13 52 19 83q14 74 40 170l15 53q1 1 5 1
q5 0 12.5 -2t10.5 -2q3 -1 8 -1h8q5 0 14 0.5t13 0.5q1 0 35 1.5t51 1.5q11 -72 50 -227q5 -18 15 -50.5t13 -42.5q4 -13 6 -34q1 -17 8 -30h-61zM234 391q-4 0 -12.5 -0.5t-13.5 -0.5q-2 0 -7 0.5t-9 0.5q-21 3 -23 3h-4q22 88 36 123q5 14 14 42.5t15 42.5q4 12 8 35.5
t7 34.5q13 43 15 58q2 -5 11 -55q2 -13 8 -41t9 -43q3 -19 12 -72.5t13 -82.5l3 -21t4 -21q-42 0 -86 -3z" />
    <glyph glyph-name="Atilde" unicode="&#xc3;" 
d="M352 5v-5q56 -2 120 0v5h-53q-5 14 -8 30q-1 16 -7 35q-4 14 -14 45t-14 48q-45 179 -58 274q-4 29 -13 82.5t-12 72.5q-3 15 -9 43t-8 41q-1 6 -2.5 19.5t-4 24.5t-7.5 19h-6l-1 -2v-2q0 -21 -15 -62q-3 -11 -6.5 -35t-7.5 -35q-6 -14 -15.5 -42.5t-14.5 -41.5
q-16 -49 -36 -124l-1 -4l-15 -53q-25 -93 -40 -171q-6 -31 -19 -83q-11 -43 -17 -80q-6 2 -56 0v-5h117v5h-56q5 35 17 79q13 52 19 83q14 74 40 170l15 53q1 1 5 1q5 0 12.5 -2t10.5 -2q3 -1 8 -1h8q5 0 14 0.5t13 0.5q1 0 35 1.5t51 1.5q11 -72 50 -227q5 -18 15 -50.5
t13 -42.5q4 -13 6 -34q1 -17 8 -30h-61zM234 391q-4 0 -12.5 -0.5t-13.5 -0.5q-2 0 -7 0.5t-9 0.5q-21 3 -23 3h-4q22 88 36 123q5 14 14 42.5t15 42.5q4 12 8 35.5t7 34.5q13 43 15 58q2 -5 11 -55q2 -13 8 -41t9 -43q3 -19 12 -72.5t13 -82.5l3 -21t4 -21q-42 0 -86 -3z
M168 779l-5 4q41 42 71 34q10 -2 33 -15.5t38 -14.5q24 0 55 27l2 -6q-30 -26 -54 -26q-16 -1 -41.5 13.5t-35.5 16.5q-27 6 -63 -33z" />
    <glyph glyph-name="Adieresis" unicode="&#xc4;" 
d="M178 777v6l58 -3v-6q-12 1 -30 1.5t-28 1.5zM278 776v5q7 -1 26.5 -1h33.5l-1 -6q-13 1 -31 1t-28 1zM352 5v-5q56 -2 120 0v5h-53q-5 14 -8 30q-1 16 -7 35q-4 14 -14 45t-14 48q-45 179 -58 274q-4 29 -13 82.5t-12 72.5q-3 15 -9 43t-8 41q-1 6 -2.5 19.5t-4 24.5
t-7.5 19h-6l-1 -2v-2q0 -21 -15 -62q-3 -11 -6.5 -35t-7.5 -35q-6 -14 -15.5 -42.5t-14.5 -41.5q-16 -49 -36 -124l-1 -4l-15 -53q-25 -93 -40 -171q-6 -31 -19 -83q-11 -43 -17 -80q-6 2 -56 0v-5h117v5h-56q5 35 17 79q13 52 19 83q14 74 40 170l15 53q1 1 5 1
q5 0 12.5 -2t10.5 -2q3 -1 8 -1h8q5 0 14 0.5t13 0.5q1 0 35 1.5t51 1.5q11 -72 50 -227q5 -18 15 -50.5t13 -42.5q4 -13 6 -34q1 -17 8 -30h-61zM234 391q-4 0 -12.5 -0.5t-13.5 -0.5q-2 0 -7 0.5t-9 0.5q-21 3 -23 3h-4q22 88 36 123q5 14 14 42.5t15 42.5q4 12 8 35.5
t7 34.5q13 43 15 58q2 -5 11 -55q2 -13 8 -41t9 -43q3 -19 12 -72.5t13 -82.5l3 -21t4 -21q-42 0 -86 -3z" />
    <glyph glyph-name="Ccedilla" unicode="&#xc7;" horiz-adv-x="667" 
d="M339 17l7 -2l-13 -35q23 -3 42 -15q25 -17 19 -41q-6 -30 -50 -45q-15 -5 -32.5 -8t-27.5 -3l-11 -1l4 8q38 1 65 11q35 8 45 38q7 20 -15 34q-8 6 -20.5 10t-20.5 6l-8 1zM605 738h5v-188h-5q0 26 -1 41q-1 42 -13 55q-22 27 -34 36l-8 6q-27 18 -53 23q-35 9 -82 9
q-8 0 -25 -0.5t-24 -0.5q-115 -7 -223 -109q-31 -28 -57 -109q-16 -46 -30 -139q-3 -22 -3 -45v-14q0 -8 1 -13q2 -52 8 -69q17 -53 58 -101q44 -47 90 -68q28 -15 86 -28q20 -6 52 -6h21q15 0 22 1q62 2 100 18q28 14 65 44q11 8 25 23.5t14 22.5v1l6 -1q0 -10 -15 -26.5
t-26 -24.5q-34 -27 -67 -44q-33 -16 -102 -18q-7 -1 -22 -1h-21q-32 0 -53 5q-64 16 -88 29q-47 23 -90 69q-45 53 -61 104q-5 15 -7 70q-1 5 -1 13v14q0 23 3 45q13 93 31 142q26 79 58 110q112 105 224 110q9 0 26 0.5t25 0.5q52 0 83 -8q33 -7 63 -31q27 -20 44 -52
q0 65 1 104z" />
    <glyph glyph-name="Egrave" unicode="&#xc8;" horiz-adv-x="398" 
d="M143 841l2 6q23 -16 47 -34.5t43 -31.5l-3 -5q-17 12 -41 30.5t-48 34.5zM13 731v6h94q10 0 29.5 -0.5t29.5 -0.5h43q14 0 44 -2l56 -3q2 -1 7 -1h9q6 0 9 -1h2h3q2 0 3 1v-83h-6v75q-1 0 -2 1q-3 1 -9 1q-14 0 -17 1l-56 3q-44 3 -86 3q-10 0 -29.5 0.5t-29.5 0.5h-17
q-1 -11 -1 -34v-34q0 -12 -2 -36t-3 -37v-34q0 -23 -1 -34v-11q0 -40 4 -71h9q8 0 10 1q25 5 42 5l57 4h34q6 0 16 -2q4 -1 14 -1h33v61h6v-125h-6v58q-42 0 -48 1q-10 2 -16 2h-33l-57 -4q-21 0 -41 -4q-2 -1 -19 -1q0 -11 1 -14q0 -8 0.5 -24t0.5 -24q0 -18 -1 -56t-1 -58
v-32q0 -87 -3 -131q-2 -34 -2 -51v-31q0 -4 -1 -7q3 1 8 1h10l75 1q6 0 16 -0.5t14 -0.5q48 0 89 4h16q5 1 14 1v85h6v-90h-6l-13 -1q-6 -1 -17 -1q-41 -4 -89 -4q-5 0 -15 0.5t-15 0.5l-75 -1h-20q-24 -2 -65 0v5h61q1 3 1 6v32q0 14 2 52q4 43 4 130v32q0 20 1 58t1 56
q0 8 -0.5 24t-0.5 23l-2 19q-6 46 -6 72q0 2 0.5 5.5t0.5 5.5q1 11 1 34v35q1 13 3.5 36.5t2.5 35.5v34v33h-71z" />
    <glyph glyph-name="Eacute" unicode="&#xc9;" horiz-adv-x="398" 
d="M233 847l2 -6q-24 -16 -48 -34.5t-41 -30.5l-3 5q19 13 43 31.5t47 34.5zM13 737v-6h71v-33v-34q0 -12 -2.5 -35.5t-3.5 -36.5v-35t-1 -34q0 -2 -0.5 -5.5t-0.5 -5.5q0 -26 6 -72l2 -19q0 -7 0.5 -23t0.5 -24q0 -18 -1 -56t-1 -58v-32q0 -87 -4 -130q-2 -38 -2 -52v-32
q0 -3 -1 -6h-61v-5q41 -2 65 0h20l75 1q5 0 15 -0.5t15 -0.5q48 0 89 4q11 0 17 1l13 1h6v90h-6v-85q-9 0 -14 -1h-16q-41 -4 -89 -4q-4 0 -14 0.5t-16 0.5l-75 -1h-10q-5 0 -8 -1q1 3 1 7v31q0 17 2 51q3 44 3 131v32q0 20 1 58t1 56q0 8 -0.5 24t-0.5 24q-1 3 -1 14
q17 0 19 1q20 4 41 4l57 4h33q6 0 16 -2q6 -1 48 -1v-58h6v125h-6v-61h-33q-10 0 -14 1q-10 2 -16 2h-34l-57 -4q-17 0 -42 -5q-2 -1 -10 -1h-9q-4 31 -4 71v11q1 11 1 34v34q1 13 3 37t2 36v34q0 23 1 34h17q10 0 29.5 -0.5t29.5 -0.5q43 0 86 -3l56 -3q3 -1 17 -1
q6 0 9 -1q1 -1 2 -1v-75h6v83q-1 -1 -3 -1h-3h-2q-3 1 -9 1h-9q-5 0 -7 1l-56 3q-30 2 -44 2h-43q-10 0 -29.5 0.5t-29.5 0.5h-94z" />
    <glyph glyph-name="Ecircumflex" unicode="&#xca;" horiz-adv-x="398" 
d="M261 777l-2 -5q-35 25 -63 43q-7 -3 -32.5 -20.5t-37.5 -24.5l-1 6q11 6 36.5 23.5t34.5 21.5zM13 737v-6h71v-33v-34q0 -12 -2.5 -35.5t-3.5 -36.5v-35t-1 -34q0 -2 -0.5 -5.5t-0.5 -5.5q0 -26 6 -72l2 -19q0 -7 0.5 -23t0.5 -24q0 -18 -1 -56t-1 -58v-32q0 -87 -4 -130
q-2 -38 -2 -52v-32q0 -3 -1 -6h-61v-5q41 -2 65 0h20l75 1q5 0 15 -0.5t15 -0.5q48 0 89 4q11 0 17 1l13 1h6v90h-6v-85q-9 0 -14 -1h-16q-41 -4 -89 -4q-4 0 -14 0.5t-16 0.5l-75 -1h-10q-5 0 -8 -1q1 3 1 7v31q0 17 2 51q3 44 3 131v32q0 20 1 58t1 56q0 8 -0.5 24
t-0.5 24q-1 3 -1 14q17 0 19 1q20 4 41 4l57 4h33q6 0 16 -2q6 -1 48 -1v-58h6v125h-6v-61h-33q-10 0 -14 1q-10 2 -16 2h-34l-57 -4q-17 0 -42 -5q-2 -1 -10 -1h-9q-4 31 -4 71v11q1 11 1 34v34q1 13 3 37t2 36v34q0 23 1 34h17q10 0 29.5 -0.5t29.5 -0.5q43 0 86 -3l56 -3
q3 -1 17 -1q6 0 9 -1q1 -1 2 -1v-75h6v83q-1 -1 -3 -1h-3h-2q-3 1 -9 1h-9q-5 0 -7 1l-56 3q-30 2 -44 2h-43q-10 0 -29.5 0.5t-29.5 0.5h-94z" />
    <glyph glyph-name="Edieresis" unicode="&#xcb;" horiz-adv-x="398" 
d="M122 780v6l58 -3v-6q-12 1 -30 1.5t-28 1.5zM211 779v5h26.5t33.5 -1l-1 -6q-13 1 -31 1t-28 1zM13 737v-6h71v-33v-34q0 -12 -2.5 -35.5t-3.5 -36.5v-35t-1 -34q0 -2 -0.5 -5.5t-0.5 -5.5q0 -26 6 -72l2 -19q0 -7 0.5 -23t0.5 -24q0 -18 -1 -56t-1 -58v-32
q0 -87 -4 -130q-2 -38 -2 -52v-32q0 -3 -1 -6h-61v-5q41 -2 65 0h20l75 1q5 0 15 -0.5t15 -0.5q48 0 89 4q11 0 17 1l13 1h6v90h-6v-85q-9 0 -14 -1h-16q-41 -4 -89 -4q-4 0 -14 0.5t-16 0.5l-75 -1h-10q-5 0 -8 -1q1 3 1 7v31q0 17 2 51q3 44 3 131v32q0 20 1 58t1 56
q0 8 -0.5 24t-0.5 24q-1 3 -1 14q17 0 19 1q20 4 41 4l57 4h33q6 0 16 -2q6 -1 48 -1v-58h6v125h-6v-61h-33q-10 0 -14 1q-10 2 -16 2h-34l-57 -4q-17 0 -42 -5q-2 -1 -10 -1h-9q-4 31 -4 71v11q1 11 1 34v34q1 13 3 37t2 36v34q0 23 1 34h17q10 0 29.5 -0.5t29.5 -0.5
q43 0 86 -3l56 -3q3 -1 17 -1q6 0 9 -1q1 -1 2 -1v-75h6v83q-1 -1 -3 -1h-3h-2q-3 1 -9 1h-9q-5 0 -7 1l-56 3q-30 2 -44 2h-43q-10 0 -29.5 0.5t-29.5 0.5h-94z" />
    <glyph glyph-name="Igrave" unicode="&#xcc;" horiz-adv-x="170" 
d="M42 823l2 6q23 -16 47 -34.5t43 -31.5l-3 -5q-17 12 -41 30.5t-48 34.5zM153 731v-6q-32 1 -59 1q0 -21 -1 -30l-2 -31v-25q0 -14 0.5 -43t0.5 -44q0 -22 -1.5 -66t-1.5 -66q0 -17 -2.5 -70.5t-0.5 -87.5q-2 -14 -2 -22v-21q0 -28 2 -86q0 -12 1 -40.5t1 -39.5l-2 -25
q0 -15 -1 -23h61l-1 -5h-62q-59 1 -63 0v6q37 -1 60 -1l3 48q0 11 -1.5 39.5t-1.5 40.5q0 14 -0.5 43t-0.5 43v21q0 15 1 22q-1 35 1.5 90.5t2.5 67.5q0 22 1.5 66t1.5 66q0 15 -0.5 44t-0.5 43v26l2 30q1 10 1 30h-57l1 5h57q58 -1 63 0z" />
    <glyph glyph-name="Iacute" unicode="&#xcd;" horiz-adv-x="170" 
d="M137 834l2 -6q-24 -16 -48 -34.5t-41 -30.5l-3 5q19 13 43 31.5t47 34.5zM153 725v6q-5 -1 -63 0h-57l-1 -5h57q0 -20 -1 -30l-2 -30v-26q0 -14 0.5 -43t0.5 -44q0 -22 -1.5 -66t-1.5 -66q0 -12 -2.5 -67.5t-1.5 -90.5q-1 -7 -1 -22v-21q0 -14 0.5 -43t0.5 -43
q0 -12 1.5 -40.5t1.5 -39.5l-3 -48q-23 0 -60 1v-6q4 1 63 0h62l1 5h-61q1 8 1 23l2 25q0 11 -1 39.5t-1 40.5q-2 58 -2 86v21q0 8 2 22q-2 34 0.5 87.5t2.5 70.5q0 22 1.5 66t1.5 66q0 15 -0.5 44t-0.5 43v25l2 31q1 9 1 30q27 0 59 -1z" />
    <glyph glyph-name="Icircumflex" unicode="&#xce;" horiz-adv-x="170" 
d="M145 763l-2 -5q-8 5 -24 17.5t-22 16.5q-7 -3 -23.5 -14t-28.5 -18l-1 6q11 6 27.5 17.5t25.5 15.5zM153 725v6q-5 -1 -63 0h-57l-1 -5h57q0 -20 -1 -30l-2 -30v-26q0 -14 0.5 -43t0.5 -44q0 -22 -1.5 -66t-1.5 -66q0 -12 -2.5 -67.5t-1.5 -90.5q-1 -7 -1 -22v-21
q0 -14 0.5 -43t0.5 -43q0 -12 1.5 -40.5t1.5 -39.5l-3 -48q-23 0 -60 1v-6q4 1 63 0h62l1 5h-61q1 8 1 23l2 25q0 11 -1 39.5t-1 40.5q-2 58 -2 86v21q0 8 2 22q-2 34 0.5 87.5t2.5 70.5q0 22 1.5 66t1.5 66q0 15 -0.5 44t-0.5 43v25l2 31q1 9 1 30q27 0 59 -1z" />
    <glyph glyph-name="Idieresis" unicode="&#xcf;" horiz-adv-x="170" 
d="M16 769v6l58 -3v-6q-12 1 -30 1.5t-28 1.5zM105 768v5q7 -1 26.5 -1h33.5l-1 -6q-13 1 -31 1t-28 1zM153 725v6q-5 -1 -63 0h-57l-1 -5h57q0 -20 -1 -30l-2 -30v-26q0 -14 0.5 -43t0.5 -44q0 -22 -1.5 -66t-1.5 -66q0 -12 -2.5 -67.5t-1.5 -90.5q-1 -7 -1 -22v-21
q0 -14 0.5 -43t0.5 -43q0 -12 1.5 -40.5t1.5 -39.5l-3 -48q-23 0 -60 1v-6q4 1 63 0h62l1 5h-61q1 8 1 23l2 25q0 11 -1 39.5t-1 40.5q-2 58 -2 86v21q0 8 2 22q-2 34 0.5 87.5t2.5 70.5q0 22 1.5 66t1.5 66q0 15 -0.5 44t-0.5 43v25l2 31q1 9 1 30q27 0 59 -1z" />
    <glyph glyph-name="Eth" unicode="&#xd0;" horiz-adv-x="510" 
d="M-6 360l-1 6h77q1 0 10.5 -0.5t16.5 -0.5v14q0 56 -8 176q-1 24 -1 79t-2 78q-1 5 -1 13q0 3 -2 9h-70v6h79l16 -2q4 0 8.5 -0.5t8 -1t5.5 -0.5l53 -10q99 -33 133 -60q64 -52 101 -127q17 -37 31 -115q4 -23 4 -54q0 -13 -2 -35q-6 -44 -31 -97q-25 -60 -61 -95
q-10 -9 -31.5 -29.5t-33.5 -30.5q-33 -24 -84 -49q-25 -13 -56 -24q-11 -4 -47 -6h-4q-24 -2 -86 0v5h82q-2 114 -2 173q0 30 0.5 89.5t0.5 88.5q-7 0 -16.5 0.5t-10.5 0.5zM150 15q30 11 57 24q47 20 81 48q14 12 37.5 34t28.5 27q36 33 61 92q19 40 30 96q2 22 2 34
q0 21 -5 53q-13 72 -31 114q-32 72 -98 125q-33 26 -133 59q-30 6 -50 9l-41 4l1 -8q0 -9 2 -14q2 -27 2 -78t1 -79q7 -138 7 -176v-15h23h99v-5h-100q-13 0 -22 1q0 -29 -0.5 -88.5t-0.5 -89.5q0 -97 4 -173q34 2 45 6z" />
    <glyph glyph-name="Ntilde" unicode="&#xd1;" horiz-adv-x="492" 
d="M172 759l-6 4q13 10 25.5 12.5t19 1t18 -7t13.5 -6.5q21 -4 30 -1t36 17l3 -4q-44 -26 -66 -19l-14 7t-18 8t-17.5 -0.5t-23.5 -11.5zM20 9l-1 -6q6 1 58 0h55l1 5q-35 0 -40 -1h-12q-5 37 -5 96q0 18 2 56q0 11 2 35l3 36q3 51 3 101v152q0 142 9 220q0 4 1 11.5t1 9.5
v1q10 -1 20 -38q6 -13 19 -36.5t18 -34.5q2 -3 48 -119q35 -85 47 -110q25 -56 68 -165.5t66 -161.5q7 -21 17 -54h7q-1 10 -1 34v35q0 95 6 156q8 102 8 154v18q0 12 -1 18q-5 88 -5 156v4q0 18 -3 56t-3 57q0 20 3 36q29 0 66 -1v6q-5 -1 -69 0h-56l-1 -5h55l-2 -15
q-1 -7 -1 -21q0 -19 3.5 -57t3.5 -56v-4q0 -30 2 -84t2 -72q1 -6 1 -18v-18q0 -72 -8 -154q-6 -61 -6 -156v-53q-1 4 -4 12.5t-5.5 15.5t-4.5 11q-19 44 -62.5 156t-71.5 172q-15 31 -47 111q-44 111 -48 118q-3 6 -16.5 31.5t-19.5 39.5q-14 32 -18 36q-4 5 -9 6h-77l-1 -5
h75v-1q0 -3 -1 -10t-1 -11q-8 -81 -8 -221v-152q0 -50 -3 -101q-4 -34 -6 -71q-2 -38 -2 -56v-44q2 -35 4 -51q-21 0 -55 1z" />
    <glyph glyph-name="Ograve" unicode="&#xd2;" horiz-adv-x="697" 
d="M316 839l2 6q20 -14 62.5 -40.5t64.5 -42.5l-3 -5q-23 17 -66 44t-60 38zM307 9q-5 0 -10 1t-9.5 1.5t-9.5 2.5t-8 3.5t-8 4.5l-7.5 4.5t-7.5 5t-7 5l-8 6t-7 5.5q-2 2 -39.5 24.5t-54.5 38.5q-81 77 -81 227q0 35 4 60q14 103 45 154q42 69 68 92q8 7 25 23.5t31.5 28
t28.5 18.5q42 24 78 28q1 0 17 1.5t22 1.5q24 0 66 -13q62 -22 85 -41q55 -41 73 -96q13 -42 26 -126q5 -35 5 -68q0 -154 -74 -257q-40 -56 -105 -96t-129 -40q-7 0 -9 1zM255 709q-11 -6 -23 -15t-20.5 -16t-22 -20t-19.5 -18q-11 -10 -22 -24.5t-26 -38t-19 -28.5
q-30 -48 -44 -151q-4 -25 -4 -60q0 -148 80 -224q15 -13 47 -33t45 -29q3 -2 11 -8t11 -8t10.5 -6.5t11.5 -6.5t11 -4.5t13 -3.5t13 -1q2 0 4 -0.5t4 -0.5q62 0 126 39.5t104 95.5q73 101 73 253q0 34 -5 67q-14 86 -26 125q-18 53 -71 94q-24 19 -84 40q-39 13 -64 13
q-5 0 -20.5 -1.5t-18.5 -1.5q-35 -6 -75 -28z" />
    <glyph glyph-name="Oacute" unicode="&#xd3;" horiz-adv-x="697" 
d="M443 845l2 -6q-17 -11 -60 -38t-66 -44l-3 5q22 16 64.5 42.5t62.5 40.5zM307 9q2 -1 9 -1q64 0 129 40t105 96q74 103 74 257q0 33 -5 68q-13 84 -26 126q-18 55 -73 96q-23 19 -85 41q-42 13 -66 13q-6 0 -22 -1.5t-17 -1.5q-36 -4 -78 -28q-14 -7 -28.5 -18.5
t-31.5 -28t-25 -23.5q-26 -23 -68 -92q-31 -51 -45 -154q-4 -25 -4 -60q0 -150 81 -227q13 -12 29 -22.5t35 -22t30 -18.5q1 -1 7 -5.5l8 -6t7 -5t7.5 -5l7.5 -4.5t8 -4.5t8 -3.5t9.5 -2.5t9.5 -1.5t10 -1zM255 709q40 22 75 28q3 0 18.5 1.5t20.5 1.5q25 0 64 -13
q60 -21 84 -40q53 -41 71 -94q12 -39 26 -125q5 -33 5 -67q0 -152 -73 -253q-40 -56 -104 -95.5t-126 -39.5q-2 0 -4 0.5t-4 0.5q-7 0 -13 1t-13 3.5t-11 4.5t-11.5 6.5t-10.5 6.5t-11 8t-11 8q-13 9 -45 29t-47 33q-80 76 -80 224q0 35 4 60q14 103 44 151q4 5 19 28.5
t26 38t22 24.5q6 5 19.5 18t22 20t20.5 16t23 15z" />
    <glyph glyph-name="Ocircumflex" unicode="&#xd4;" horiz-adv-x="697" 
d="M459 765l-2 -5q-29 21 -92 61q-6 -3 -28 -15.5t-48.5 -28t-35.5 -20.5l-1 6q9 5 56 32.5t57 31.5zM307 9q2 -1 9 -1q64 0 129 40t105 96q74 103 74 257q0 33 -5 68q-13 84 -26 126q-18 55 -73 96q-23 19 -85 41q-42 13 -66 13q-6 0 -22 -1.5t-17 -1.5q-36 -4 -78 -28
q-14 -7 -28.5 -18.5t-31.5 -28t-25 -23.5q-26 -23 -68 -92q-31 -51 -45 -154q-4 -25 -4 -60q0 -150 81 -227q13 -12 29 -22.5t35 -22t30 -18.5q1 -1 7 -5.5l8 -6t7 -5t7.5 -5l7.5 -4.5t8 -4.5t8 -3.5t9.5 -2.5t9.5 -1.5t10 -1zM255 709q40 22 75 28q3 0 18.5 1.5t20.5 1.5
q25 0 64 -13q60 -21 84 -40q53 -41 71 -94q12 -39 26 -125q5 -33 5 -67q0 -152 -73 -253q-40 -56 -104 -95.5t-126 -39.5q-2 0 -4 0.5t-4 0.5q-7 0 -13 1t-13 3.5t-11 4.5t-11.5 6.5t-10.5 6.5t-11 8t-11 8q-13 9 -45 29t-47 33q-80 76 -80 224q0 35 4 60q14 103 44 151
q4 5 19 28.5t26 38t22 24.5q6 5 19.5 18t22 20t20.5 16t23 15z" />
    <glyph glyph-name="Otilde" unicode="&#xd5;" horiz-adv-x="697" 
d="M282 777l-5 5q44 37 74 27q10 -3 31.5 -19t36.5 -18q23 -3 57 21l2 -6q-32 -23 -57 -21q-16 1 -40 18t-33 20q-26 9 -66 -27zM307 9q2 -1 9 -1q64 0 129 40t105 96q74 103 74 257q0 33 -5 68q-13 84 -26 126q-18 55 -73 96q-23 19 -85 41q-42 13 -66 13q-6 0 -22 -1.5
t-17 -1.5q-36 -4 -78 -28q-14 -7 -28.5 -18.5t-31.5 -28t-25 -23.5q-26 -23 -68 -92q-31 -51 -45 -154q-4 -25 -4 -60q0 -150 81 -227q13 -12 29 -22.5t35 -22t30 -18.5q1 -1 7 -5.5l8 -6t7 -5t7.5 -5l7.5 -4.5t8 -4.5t8 -3.5t9.5 -2.5t9.5 -1.5t10 -1zM255 709q40 22 75 28
q3 0 18.5 1.5t20.5 1.5q25 0 64 -13q60 -21 84 -40q53 -41 71 -94q12 -39 26 -125q5 -33 5 -67q0 -152 -73 -253q-40 -56 -104 -95.5t-126 -39.5q-2 0 -4 0.5t-4 0.5q-7 0 -13 1t-13 3.5t-11 4.5t-11.5 6.5t-10.5 6.5t-11 8t-11 8q-13 9 -45 29t-47 33q-80 76 -80 224
q0 35 4 60q14 103 44 151q4 5 19 28.5t26 38t22 24.5q6 5 19.5 18t22 20t20.5 16t23 15z" />
    <glyph glyph-name="Odieresis" unicode="&#xd6;" horiz-adv-x="697" 
d="M279 773v6l72 -3v-6q-13 1 -37.5 1.5t-34.5 1.5zM409 772v5q7 -1 32 -1h39l-1 -6q-13 1 -36.5 1t-33.5 1zM307 9q2 -1 9 -1q64 0 129 40t105 96q74 103 74 257q0 33 -5 68q-13 84 -26 126q-18 55 -73 96q-23 19 -85 41q-42 13 -66 13q-6 0 -22 -1.5t-17 -1.5
q-36 -4 -78 -28q-14 -7 -28.5 -18.5t-31.5 -28t-25 -23.5q-26 -23 -68 -92q-31 -51 -45 -154q-4 -25 -4 -60q0 -150 81 -227q13 -12 29 -22.5t35 -22t30 -18.5q1 -1 7 -5.5l8 -6t7 -5t7.5 -5l7.5 -4.5t8 -4.5t8 -3.5t9.5 -2.5t9.5 -1.5t10 -1zM255 709q40 22 75 28
q3 0 18.5 1.5t20.5 1.5q25 0 64 -13q60 -21 84 -40q53 -41 71 -94q12 -39 26 -125q5 -33 5 -67q0 -152 -73 -253q-40 -56 -104 -95.5t-126 -39.5q-2 0 -4 0.5t-4 0.5q-7 0 -13 1t-13 3.5t-11 4.5t-11.5 6.5t-10.5 6.5t-11 8t-11 8q-13 9 -45 29t-47 33q-80 76 -80 224
q0 35 4 60q14 103 44 151q4 5 19 28.5t26 38t22 24.5q6 5 19.5 18t22 20t20.5 16t23 15z" />
    <glyph glyph-name="multiply" unicode="&#xd7;" horiz-adv-x="461" 
d="M353 248l-3 -4q-41 40 -123 143q-4 -5 -12.5 -14.5t-9.5 -10.5q-16 -17 -41.5 -49.5t-31.5 -39.5q-2 -2 -9 -9.5t-10 -10.5l-4 -4h-2l-2 -1v3q0 1 1 1q0 1 2 3q1 1 2 2.5t2.5 2.5t2.5 2l13 14q6 7 31.5 39.5t41.5 49.5q4 4 7.5 8t8 9.5t7.5 8.5l-3 4q-14 17 -44 57.5
t-47 61.5q-20 27 -29 35l3 4q10 -9 30 -36q17 -21 47 -61.5t44 -57.5l2 -3q15 18 39.5 53t30.5 43l20 30q15 19 26 24l2 -4q-9 -4 -24 -23q-14 -22 -20 -30q-5 -7 -30.5 -43t-40.5 -54q78 -98 123 -143z" />
    <glyph glyph-name="Ugrave" unicode="&#xd9;" horiz-adv-x="482" 
d="M180 829l2 6q23 -16 47 -34.5t43 -31.5l-3 -5q-17 12 -41 30.5t-48 34.5zM19 727v6h118l-1 -5h-59q0 -44 -2 -126l-3 -125v-12q0 -57 9 -120q6 -29 7 -83.5t3 -70.5q6 -65 25 -113q20 -43 51 -57q15 -5 26 -5q26 0 68 22q39 23 61 69q48 98 58 210q9 97 9 191v40
q0 15 -2 41q-3 73 -3 142q-57 0 -60 -1l1 6h124l1 -5h-61q0 -69 3 -142q2 -26 2 -41v-40q0 -93 -9 -192q-11 -117 -59 -211q-12 -27 -25 -42t-37 -29q-44 -23 -71 -23q-11 0 -28 5q-37 15 -53 60q-21 53 -26 114q-2 18 -3.5 71.5t-6.5 82.5q-9 55 -9 121v12l3 125
q2 82 2 126q-50 0 -53 -1z" />
    <glyph glyph-name="Uacute" unicode="&#xda;" horiz-adv-x="482" 
d="M269 838l2 -6q-24 -16 -48 -34.5t-41 -30.5l-3 5q19 13 43 31.5t47 34.5zM19 733v-6q3 1 53 1q0 -44 -2 -126l-3 -125v-12q0 -66 9 -121q5 -29 6.5 -82.5t3.5 -71.5q5 -61 26 -114q16 -45 53 -60q17 -5 28 -5q27 0 71 23q24 14 37 29t25 42q48 94 59 211q9 99 9 192v40
q0 15 -2 41q-3 73 -3 142h61l-1 5h-124l-1 -6q3 1 60 1q0 -69 3 -142q2 -26 2 -41v-40q0 -94 -9 -191q-10 -112 -58 -210q-22 -46 -61 -69q-42 -22 -68 -22q-11 0 -26 5q-31 14 -51 57q-19 48 -25 113q-2 16 -3 70.5t-7 83.5q-9 63 -9 120v12l3 125q2 82 2 126h59l1 5h-118z
" />
    <glyph glyph-name="Ucircumflex" unicode="&#xdb;" horiz-adv-x="482" 
d="M293 794l-4 -4q-38 27 -61 42q-7 -3 -32.5 -20.5t-37.5 -24.5l-1 6q11 6 36.5 23.5t34.5 21.5zM19 733v-6q3 1 53 1q0 -44 -2 -126l-3 -125v-12q0 -66 9 -121q5 -29 6.5 -82.5t3.5 -71.5q5 -61 26 -114q16 -45 53 -60q17 -5 28 -5q27 0 71 23q24 14 37 29t25 42
q48 94 59 211q9 99 9 192v40q0 15 -2 41q-3 73 -3 142h61l-1 5h-124l-1 -6q3 1 60 1q0 -69 3 -142q2 -26 2 -41v-40q0 -94 -9 -191q-10 -112 -58 -210q-22 -46 -61 -69q-42 -22 -68 -22q-11 0 -26 5q-31 14 -51 57q-19 48 -25 113q-2 16 -3 70.5t-7 83.5q-9 63 -9 120v12
l3 125q2 82 2 126h59l1 5h-118z" />
    <glyph glyph-name="Udieresis" unicode="&#xdc;" horiz-adv-x="482" 
d="M155 780v6l58 -3v-6q-12 1 -30 1.5t-28 1.5zM244 779v5h26t34 -1l-1 -6q-13 1 -31 1t-28 1zM19 733v-6q3 1 53 1q0 -44 -2 -126l-3 -125v-12q0 -66 9 -121q5 -29 6.5 -82.5t3.5 -71.5q5 -61 26 -114q16 -45 53 -60q17 -5 28 -5q27 0 71 23q24 14 37 29t25 42
q48 94 59 211q9 99 9 192v40q0 15 -2 41q-3 73 -3 142h61l-1 5h-124l-1 -6q3 1 60 1q0 -69 3 -142q2 -26 2 -41v-40q0 -94 -9 -191q-10 -112 -58 -210q-22 -46 -61 -69q-42 -22 -68 -22q-11 0 -26 5q-31 14 -51 57q-19 48 -25 113q-2 16 -3 70.5t-7 83.5q-9 63 -9 120v12
l3 125q2 82 2 126h59l1 5h-118z" />
    <glyph glyph-name="Yacute" unicode="&#xdd;" horiz-adv-x="547" 
d="M145 733v-6q-33 1 -61 1q7 -5 11 -12q5 -7 16 -21q14 -17 44 -47q6 -7 16.5 -20.5t15.5 -19.5l54 -56q26 -26 62 -81q4 -8 15 -21.5t15 -20.5q9 15 28 58q8 19 15.5 41t15.5 48.5t13 41.5q10 30 29 61q10 16 34 49h-58l1 5h60q49 -1 54 0v-6q-42 0 -49 1q-23 -28 -38 -51
q-19 -33 -28 -61q-2 -5 -18 -55t-27 -76q-20 -47 -66 -129t-63 -116q-32 -63 -60 -129q-20 -48 -46 -93q-3 -5 -10 -12q-3 -6 -11 -6h-67v7q37 -1 65 -1q8 0 17 13q26 43 48 94q27 62 60 130q18 36 53 99l45 81q-4 9 -17 25.5t-15 19.5q-36 55 -60 80l-54 57
q-6 6 -16.5 19.5t-16.5 19.5q-14 14 -44 48l-17 22q-6 9 -15 14h-57l1 5q16 0 33 -1q27 0 29 1q59 -2 64 0zM258 767l-1 6q22 12 46.5 22.5t47.5 23.5l2 -5q-22 -13 -47.5 -23.5t-47.5 -23.5z" />
    <glyph glyph-name="agrave" unicode="&#xe0;" 
d="M309 759l-1 -6q-22 13 -47.5 23.5t-47.5 23.5l2 5q23 -13 47.5 -23.5t46.5 -22.5zM352 0v5h61q-7 13 -8 30q-2 21 -6 34q-3 10 -13 42.5t-15 50.5q-39 155 -50 227q-13 0 -27 -0.5t-31.5 -1.5t-27.5 -1q-4 0 -13 -0.5t-14 -0.5h-8q-5 0 -8 1q-3 0 -10.5 2t-12.5 2
q-4 0 -5 -1l-15 -53q-26 -96 -40 -170q-6 -31 -19 -83q-12 -44 -17 -79h56v-5h-117v5q50 2 56 0q6 37 17 80q13 52 19 83q15 78 40 171l15 53l1 4q20 75 36 124q5 13 14.5 41.5t15.5 42.5q4 11 7.5 35t6.5 35q15 41 15 62v2l1 2h6q5 -8 7.5 -19t4 -24.5t2.5 -19.5
q2 -13 8 -41t9 -43q3 -19 12 -72.5t13 -82.5q13 -95 58 -274q4 -17 14 -48t14 -45q6 -19 7 -35q3 -16 8 -30h53v-5q-64 -2 -120 0zM234 391q43 3 86 3q-2 7 -4 21l-3 21q-4 29 -13 82.5t-12 72.5q-3 15 -9 43t-8 41q-9 50 -11 55q-2 -15 -15 -58q-3 -11 -7 -34.5t-8 -35.5
q-6 -14 -15 -42.5t-14 -42.5q-14 -35 -36 -123h4q2 0 23 -3q4 0 9 -0.5t7 -0.5q5 0 13.5 0.5t12.5 0.5z" />
    <glyph glyph-name="aacute" unicode="&#xe1;" 
d="M215 763l-1 6q22 12 46.5 22.5t47.5 23.5l2 -5q-22 -13 -47.5 -23.5t-47.5 -23.5zM352 5v-5q56 -2 120 0v5h-53q-5 14 -8 30q-1 16 -7 35q-4 14 -14 45t-14 48q-45 179 -58 274q-4 29 -13 82.5t-12 72.5q-3 15 -9 43t-8 41q-1 6 -2.5 19.5t-4 24.5t-7.5 19h-6l-1 -2v-2
q0 -21 -15 -62q-3 -11 -6.5 -35t-7.5 -35q-6 -14 -15.5 -42.5t-14.5 -41.5q-16 -49 -36 -124l-1 -4l-15 -53q-25 -93 -40 -171q-6 -31 -19 -83q-11 -43 -17 -80q-6 2 -56 0v-5h117v5h-56q5 35 17 79q13 52 19 83q14 74 40 170l15 53q1 1 5 1q5 0 12.5 -2t10.5 -2q3 -1 8 -1
h8q5 0 14 0.5t13 0.5q1 0 35 1.5t51 1.5q11 -72 50 -227q5 -18 15 -50.5t13 -42.5q4 -13 6 -34q1 -17 8 -30h-61zM234 391q-4 0 -12.5 -0.5t-13.5 -0.5q-2 0 -7 0.5t-9 0.5q-21 3 -23 3h-4q22 88 36 123q5 14 14 42.5t15 42.5q4 12 8 35.5t7 34.5q13 43 15 58q2 -5 11 -55
q2 -13 8 -41t9 -43q3 -19 12 -72.5t13 -82.5l3 -21t4 -21q-42 0 -86 -3z" />
    <glyph glyph-name="acircumflex" unicode="&#xe2;" 
d="M305 759l-2 -5q-8 5 -24 17.5t-22 16.5q-7 -3 -23.5 -14t-28.5 -18l-1 6q11 6 27.5 17.5t25.5 15.5zM352 5v-5q56 -2 120 0v5h-53q-5 14 -8 30q-1 16 -7 35q-4 14 -14 45t-14 48q-45 179 -58 274q-4 29 -13 82.5t-12 72.5q-3 15 -9 43t-8 41q-1 6 -2.5 19.5t-4 24.5
t-7.5 19h-6l-1 -2v-2q0 -21 -15 -62q-3 -11 -6.5 -35t-7.5 -35q-6 -14 -15.5 -42.5t-14.5 -41.5q-16 -49 -36 -124l-1 -4l-15 -53q-25 -93 -40 -171q-6 -31 -19 -83q-11 -43 -17 -80q-6 2 -56 0v-5h117v5h-56q5 35 17 79q13 52 19 83q14 74 40 170l15 53q1 1 5 1
q5 0 12.5 -2t10.5 -2q3 -1 8 -1h8q5 0 14 0.5t13 0.5q1 0 35 1.5t51 1.5q11 -72 50 -227q5 -18 15 -50.5t13 -42.5q4 -13 6 -34q1 -17 8 -30h-61zM234 391q-4 0 -12.5 -0.5t-13.5 -0.5q-2 0 -7 0.5t-9 0.5q-21 3 -23 3h-4q22 88 36 123q5 14 14 42.5t15 42.5q4 12 8 35.5
t7 34.5q13 43 15 58q2 -5 11 -55q2 -13 8 -41t9 -43q3 -19 12 -72.5t13 -82.5l3 -21t4 -21q-42 0 -86 -3z" />
    <glyph glyph-name="atilde" unicode="&#xe3;" 
d="M215 776l-4 4q27 21 52 6q22 -14 49 6l2 -5q-25 -21 -49 -8q-1 1 -4.5 3t-4.5 2.5l-4 2t-5 1.5t-5 0.5t-5.5 -0.5t-6 -2.5t-7.5 -4t-8 -5.5zM352 5v-5q56 -2 120 0v5h-53q-5 14 -8 30q-1 16 -7 35q-4 14 -14 45t-14 48q-45 179 -58 274q-4 29 -13 82.5t-12 72.5
q-3 15 -9 43t-8 41q-1 6 -2.5 19.5t-4 24.5t-7.5 19h-6l-1 -2v-2q0 -21 -15 -62q-3 -11 -6.5 -35t-7.5 -35q-6 -14 -15.5 -42.5t-14.5 -41.5q-16 -49 -36 -124l-1 -4l-15 -53q-25 -93 -40 -171q-6 -31 -19 -83q-11 -43 -17 -80q-6 2 -56 0v-5h117v5h-56q5 35 17 79
q13 52 19 83q14 74 40 170l15 53q1 1 5 1q5 0 12.5 -2t10.5 -2q3 -1 8 -1h8q5 0 14 0.5t13 0.5q1 0 35 1.5t51 1.5q11 -72 50 -227q5 -18 15 -50.5t13 -42.5q4 -13 6 -34q1 -17 8 -30h-61zM234 391q-4 0 -12.5 -0.5t-13.5 -0.5q-2 0 -7 0.5t-9 0.5q-21 3 -23 3h-4
q22 88 36 123q5 14 14 42.5t15 42.5q4 12 8 35.5t7 34.5q13 43 15 58q2 -5 11 -55q2 -13 8 -41t9 -43q3 -19 12 -72.5t13 -82.5l3 -21t4 -21q-42 0 -86 -3z" />
    <glyph glyph-name="adieresis" unicode="&#xe4;" 
d="M178 777v6l58 -3v-6q-12 1 -30 1.5t-28 1.5zM278 776v5q7 -1 26.5 -1h33.5l-1 -6q-13 1 -31 1t-28 1zM352 5v-5q56 -2 120 0v5h-53q-5 14 -8 30q-1 16 -7 35q-4 14 -14 45t-14 48q-45 179 -58 274q-4 29 -13 82.5t-12 72.5q-3 15 -9 43t-8 41q-1 6 -2.5 19.5t-4 24.5
t-7.5 19h-6l-1 -2v-2q0 -21 -15 -62q-3 -11 -6.5 -35t-7.5 -35q-6 -14 -15.5 -42.5t-14.5 -41.5q-16 -49 -36 -124l-1 -4l-15 -53q-25 -93 -40 -171q-6 -31 -19 -83q-11 -43 -17 -80q-6 2 -56 0v-5h117v5h-56q5 35 17 79q13 52 19 83q14 74 40 170l15 53q1 1 5 1
q5 0 12.5 -2t10.5 -2q3 -1 8 -1h8q5 0 14 0.5t13 0.5q1 0 35 1.5t51 1.5q11 -72 50 -227q5 -18 15 -50.5t13 -42.5q4 -13 6 -34q1 -17 8 -30h-61zM234 391q-4 0 -12.5 -0.5t-13.5 -0.5q-2 0 -7 0.5t-9 0.5q-21 3 -23 3h-4q22 88 36 123q5 14 14 42.5t15 42.5q4 12 8 35.5
t7 34.5q13 43 15 58q2 -5 11 -55q2 -13 8 -41t9 -43q3 -19 12 -72.5t13 -82.5l3 -21t4 -21q-42 0 -86 -3z" />
    <glyph glyph-name="ccedilla" unicode="&#xe7;" horiz-adv-x="667" 
d="M342 17l6 -2l-15 -35q23 -3 42 -15q25 -17 19 -41q-6 -30 -50 -45q-15 -5 -32.5 -8t-27.5 -3l-11 -1l4 8q38 1 65 11q35 8 45 38q7 20 -15 34q-8 6 -20.5 10t-20.5 6l-8 1zM605 738h5v-188h-5q0 26 -1 41q-1 42 -13 55q-22 27 -34 36l-8 6q-27 18 -53 23q-35 9 -82 9
q-8 0 -25 -0.5t-24 -0.5q-115 -7 -223 -109q-31 -28 -57 -109q-16 -46 -30 -139q-3 -22 -3 -45v-14q0 -8 1 -13q2 -52 8 -69q17 -53 58 -101q44 -47 90 -68q28 -15 86 -28q20 -6 52 -6h21q15 0 22 1q62 2 100 18q28 14 65 44q11 8 25 23.5t14 22.5v1l6 -1q0 -10 -15 -26.5
t-26 -24.5q-34 -27 -67 -44q-33 -16 -102 -18q-7 -1 -22 -1h-21q-32 0 -53 5q-64 16 -88 29q-47 23 -90 69q-45 53 -61 104q-5 15 -7 70q-1 5 -1 13v14q0 23 3 45q13 93 31 142q26 79 58 110q112 105 224 110q9 0 26 0.5t25 0.5q52 0 83 -8q33 -7 63 -31q27 -20 44 -52
q0 65 1 104z" />
    <glyph glyph-name="egrave" unicode="&#xe8;" horiz-adv-x="398" 
d="M143 841l2 6q23 -16 47 -34.5t43 -31.5l-3 -5q-17 12 -41 30.5t-48 34.5zM13 731v6h94q10 0 29.5 -0.5t29.5 -0.5h43q14 0 44 -2l56 -3q2 -1 7 -1h9q6 0 9 -1h2h3q2 0 3 1v-83h-6v75q-1 0 -2 1q-3 1 -9 1q-14 0 -17 1l-56 3q-44 3 -86 3q-10 0 -29.5 0.5t-29.5 0.5h-17
q-1 -11 -1 -34v-34q0 -12 -2 -36t-3 -37v-34q0 -23 -1 -34v-11q0 -40 4 -71h9q8 0 10 1q25 5 42 5l57 4h34q6 0 16 -2q4 -1 14 -1h33v61h6v-125h-6v58q-42 0 -48 1q-10 2 -16 2h-33l-57 -4q-21 0 -41 -4q-2 -1 -19 -1q0 -11 1 -14q0 -8 0.5 -24t0.5 -24q0 -18 -1 -56t-1 -58
v-32q0 -87 -3 -131q-2 -34 -2 -51v-31q0 -4 -1 -7q3 1 8 1h10l75 1q6 0 16 -0.5t14 -0.5q48 0 89 4h16q5 1 14 1v85h6v-90h-6l-13 -1q-6 -1 -17 -1q-41 -4 -89 -4q-5 0 -15 0.5t-15 0.5l-75 -1h-20q-24 -2 -65 0v5h61q1 3 1 6v32q0 14 2 52q4 43 4 130v32q0 20 1 58t1 56
q0 8 -0.5 24t-0.5 23l-2 19q-6 46 -6 72q0 2 0.5 5.5t0.5 5.5q1 11 1 34v35q1 13 3.5 36.5t2.5 35.5v34v33h-71z" />
    <glyph glyph-name="eacute" unicode="&#xe9;" horiz-adv-x="398" 
d="M233 847l2 -6q-24 -16 -48 -34.5t-41 -30.5l-3 5q19 13 43 31.5t47 34.5zM13 737v-6h71v-33v-34q0 -12 -2.5 -35.5t-3.5 -36.5v-35t-1 -34q0 -2 -0.5 -5.5t-0.5 -5.5q0 -26 6 -72l2 -19q0 -7 0.5 -23t0.5 -24q0 -18 -1 -56t-1 -58v-32q0 -87 -4 -130q-2 -38 -2 -52v-32
q0 -3 -1 -6h-61v-5q41 -2 65 0h20l75 1q5 0 15 -0.5t15 -0.5q48 0 89 4q11 0 17 1l13 1h6v90h-6v-85q-9 0 -14 -1h-16q-41 -4 -89 -4q-4 0 -14 0.5t-16 0.5l-75 -1h-10q-5 0 -8 -1q1 3 1 7v31q0 17 2 51q3 44 3 131v32q0 20 1 58t1 56q0 8 -0.5 24t-0.5 24q-1 3 -1 14
q17 0 19 1q20 4 41 4l57 4h33q6 0 16 -2q6 -1 48 -1v-58h6v125h-6v-61h-33q-10 0 -14 1q-10 2 -16 2h-34l-57 -4q-17 0 -42 -5q-2 -1 -10 -1h-9q-4 31 -4 71v11q1 11 1 34v34q1 13 3 37t2 36v34q0 23 1 34h17q10 0 29.5 -0.5t29.5 -0.5q43 0 86 -3l56 -3q3 -1 17 -1
q6 0 9 -1q1 -1 2 -1v-75h6v83q-1 -1 -3 -1h-3h-2q-3 1 -9 1h-9q-5 0 -7 1l-56 3q-30 2 -44 2h-43q-10 0 -29.5 0.5t-29.5 0.5h-94z" />
    <glyph glyph-name="ecircumflex" unicode="&#xea;" horiz-adv-x="398" 
d="M261 777l-2 -5q-35 25 -63 43q-7 -3 -32.5 -20.5t-37.5 -24.5l-1 6q11 6 36.5 23.5t34.5 21.5zM13 737v-6h71v-33v-34q0 -12 -2.5 -35.5t-3.5 -36.5v-35t-1 -34q0 -2 -0.5 -5.5t-0.5 -5.5q0 -26 6 -72l2 -19q0 -7 0.5 -23t0.5 -24q0 -18 -1 -56t-1 -58v-32q0 -87 -4 -130
q-2 -38 -2 -52v-32q0 -3 -1 -6h-61v-5q41 -2 65 0h20l75 1q5 0 15 -0.5t15 -0.5q48 0 89 4q11 0 17 1l13 1h6v90h-6v-85q-9 0 -14 -1h-16q-41 -4 -89 -4q-4 0 -14 0.5t-16 0.5l-75 -1h-10q-5 0 -8 -1q1 3 1 7v31q0 17 2 51q3 44 3 131v32q0 20 1 58t1 56q0 8 -0.5 24
t-0.5 24q-1 3 -1 14q17 0 19 1q20 4 41 4l57 4h33q6 0 16 -2q6 -1 48 -1v-58h6v125h-6v-61h-33q-10 0 -14 1q-10 2 -16 2h-34l-57 -4q-17 0 -42 -5q-2 -1 -10 -1h-9q-4 31 -4 71v11q1 11 1 34v34q1 13 3 37t2 36v34q0 23 1 34h17q10 0 29.5 -0.5t29.5 -0.5q43 0 86 -3l56 -3
q3 -1 17 -1q6 0 9 -1q1 -1 2 -1v-75h6v83q-1 -1 -3 -1h-3h-2q-3 1 -9 1h-9q-5 0 -7 1l-56 3q-30 2 -44 2h-43q-10 0 -29.5 0.5t-29.5 0.5h-94z" />
    <glyph glyph-name="edieresis" unicode="&#xeb;" horiz-adv-x="398" 
d="M122 780v6l58 -3v-6q-12 1 -30 1.5t-28 1.5zM211 779v5h26.5t33.5 -1l-1 -6q-13 1 -31 1t-28 1zM13 737v-6h71v-33v-34q0 -12 -2.5 -35.5t-3.5 -36.5v-35t-1 -34q0 -2 -0.5 -5.5t-0.5 -5.5q0 -26 6 -72l2 -19q0 -7 0.5 -23t0.5 -24q0 -18 -1 -56t-1 -58v-32
q0 -87 -4 -130q-2 -38 -2 -52v-32q0 -3 -1 -6h-61v-5q41 -2 65 0h20l75 1q5 0 15 -0.5t15 -0.5q48 0 89 4q11 0 17 1l13 1h6v90h-6v-85q-9 0 -14 -1h-16q-41 -4 -89 -4q-4 0 -14 0.5t-16 0.5l-75 -1h-10q-5 0 -8 -1q1 3 1 7v31q0 17 2 51q3 44 3 131v32q0 20 1 58t1 56
q0 8 -0.5 24t-0.5 24q-1 3 -1 14q17 0 19 1q20 4 41 4l57 4h33q6 0 16 -2q6 -1 48 -1v-58h6v125h-6v-61h-33q-10 0 -14 1q-10 2 -16 2h-34l-57 -4q-17 0 -42 -5q-2 -1 -10 -1h-9q-4 31 -4 71v11q1 11 1 34v34q1 13 3 37t2 36v34q0 23 1 34h17q10 0 29.5 -0.5t29.5 -0.5
q43 0 86 -3l56 -3q3 -1 17 -1q6 0 9 -1q1 -1 2 -1v-75h6v83q-1 -1 -3 -1h-3h-2q-3 1 -9 1h-9q-5 0 -7 1l-56 3q-30 2 -44 2h-43q-10 0 -29.5 0.5t-29.5 0.5h-94z" />
    <glyph glyph-name="igrave" unicode="&#xec;" horiz-adv-x="170" 
d="M42 823l2 6q23 -16 47 -34.5t43 -31.5l-3 -5q-17 12 -41 30.5t-48 34.5zM153 731v-6q-32 1 -59 1q0 -21 -1 -30l-2 -31v-25q0 -14 0.5 -43t0.5 -44q0 -22 -1.5 -66t-1.5 -66q0 -17 -2.5 -70.5t-0.5 -87.5q-2 -14 -2 -22v-21q0 -28 2 -86q0 -12 1 -40.5t1 -39.5l-2 -25
q0 -15 -1 -23h61l-1 -5h-62q-59 1 -63 0v6q37 -1 60 -1l3 48q0 11 -1.5 39.5t-1.5 40.5q0 14 -0.5 43t-0.5 43v21q0 15 1 22q-1 35 1.5 90.5t2.5 67.5q0 22 1.5 66t1.5 66q0 15 -0.5 44t-0.5 43v26l2 30q1 10 1 30h-57l1 5h57q58 -1 63 0z" />
    <glyph glyph-name="iacute" unicode="&#xed;" horiz-adv-x="170" 
d="M137 834l2 -6q-24 -16 -48 -34.5t-41 -30.5l-3 5q19 13 43 31.5t47 34.5zM153 725v6q-5 -1 -63 0h-57l-1 -5h57q0 -20 -1 -30l-2 -30v-26q0 -14 0.5 -43t0.5 -44q0 -22 -1.5 -66t-1.5 -66q0 -12 -2.5 -67.5t-1.5 -90.5q-1 -7 -1 -22v-21q0 -14 0.5 -43t0.5 -43
q0 -12 1.5 -40.5t1.5 -39.5l-3 -48q-23 0 -60 1v-6q4 1 63 0h62l1 5h-61q1 8 1 23l2 25q0 11 -1 39.5t-1 40.5q-2 58 -2 86v21q0 8 2 22q-2 34 0.5 87.5t2.5 70.5q0 22 1.5 66t1.5 66q0 15 -0.5 44t-0.5 43v25l2 31q1 9 1 30q27 0 59 -1z" />
    <glyph glyph-name="icircumflex" unicode="&#xee;" horiz-adv-x="170" 
d="M145 763l-2 -5q-8 5 -24 17.5t-22 16.5q-7 -3 -23.5 -14t-28.5 -18l-1 6q11 6 27.5 17.5t25.5 15.5zM153 725v6q-5 -1 -63 0h-57l-1 -5h57q0 -20 -1 -30l-2 -30v-26q0 -14 0.5 -43t0.5 -44q0 -22 -1.5 -66t-1.5 -66q0 -12 -2.5 -67.5t-1.5 -90.5q-1 -7 -1 -22v-21
q0 -14 0.5 -43t0.5 -43q0 -12 1.5 -40.5t1.5 -39.5l-3 -48q-23 0 -60 1v-6q4 1 63 0h62l1 5h-61q1 8 1 23l2 25q0 11 -1 39.5t-1 40.5q-2 58 -2 86v21q0 8 2 22q-2 34 0.5 87.5t2.5 70.5q0 22 1.5 66t1.5 66q0 15 -0.5 44t-0.5 43v25l2 31q1 9 1 30q27 0 59 -1z" />
    <glyph glyph-name="idieresis" unicode="&#xef;" horiz-adv-x="170" 
d="M16 769v6l58 -3v-6q-12 1 -30 1.5t-28 1.5zM105 768v5q7 -1 26.5 -1h33.5l-1 -6q-13 1 -31 1t-28 1zM153 725v6q-5 -1 -63 0h-57l-1 -5h57q0 -20 -1 -30l-2 -30v-26q0 -14 0.5 -43t0.5 -44q0 -22 -1.5 -66t-1.5 -66q0 -12 -2.5 -67.5t-1.5 -90.5q-1 -7 -1 -22v-21
q0 -14 0.5 -43t0.5 -43q0 -12 1.5 -40.5t1.5 -39.5l-3 -48q-23 0 -60 1v-6q4 1 63 0h62l1 5h-61q1 8 1 23l2 25q0 11 -1 39.5t-1 40.5q-2 58 -2 86v21q0 8 2 22q-2 34 0.5 87.5t2.5 70.5q0 22 1.5 66t1.5 66q0 15 -0.5 44t-0.5 43v25l2 31q1 9 1 30q27 0 59 -1z" />
    <glyph glyph-name="ntilde" unicode="&#xf1;" horiz-adv-x="492" 
d="M172 759l-6 4q13 10 25.5 12.5t19 1t18 -7t13.5 -6.5q21 -4 30 -1t36 17l3 -4q-44 -26 -66 -19l-14 7t-18 8t-17.5 -0.5t-23.5 -11.5zM20 9l-1 -6q6 1 58 0h55l1 5q-35 0 -40 -1h-12q-5 37 -5 96q0 18 2 56q0 11 2 35l3 36q3 51 3 101v152q0 142 9 220q0 4 1 11.5t1 9.5
v1q10 -1 20 -38q6 -13 19 -36.5t18 -34.5q2 -3 48 -119q35 -85 47 -110q25 -56 68 -165.5t66 -161.5q7 -21 17 -54h7q-1 10 -1 34v35q0 95 6 156q8 102 8 154v18q0 12 -1 18q-5 88 -5 156v4q0 18 -3 56t-3 57q0 20 3 36q29 0 66 -1v6q-5 -1 -69 0h-56l-1 -5h55l-2 -15
q-1 -7 -1 -21q0 -19 3.5 -57t3.5 -56v-4q0 -30 2 -84t2 -72q1 -6 1 -18v-18q0 -72 -8 -154q-6 -61 -6 -156v-53q-1 4 -4 12.5t-5.5 15.5t-4.5 11q-19 44 -62.5 156t-71.5 172q-15 31 -47 111q-44 111 -48 118q-3 6 -16.5 31.5t-19.5 39.5q-14 32 -18 36q-4 5 -9 6h-77l-1 -5
h75v-1q0 -3 -1 -10t-1 -11q-8 -81 -8 -221v-152q0 -50 -3 -101q-4 -34 -6 -71q-2 -38 -2 -56v-44q2 -35 4 -51q-21 0 -55 1z" />
    <glyph glyph-name="ograve" unicode="&#xf2;" horiz-adv-x="697" 
d="M316 839l2 6q20 -14 62.5 -40.5t64.5 -42.5l-3 -5q-23 17 -66 44t-60 38zM307 9q-5 0 -10 1t-9.5 1.5t-9.5 2.5t-8 3.5t-8 4.5l-7.5 4.5t-7.5 5t-7 5l-8 6t-7 5.5q-2 2 -39.5 24.5t-54.5 38.5q-81 77 -81 227q0 35 4 60q14 103 45 154q42 69 68 92q8 7 25 23.5t31.5 28
t28.5 18.5q42 24 78 28q1 0 17 1.5t22 1.5q24 0 66 -13q62 -22 85 -41q55 -41 73 -96q13 -42 26 -126q5 -35 5 -68q0 -154 -74 -257q-40 -56 -105 -96t-129 -40q-7 0 -9 1zM255 709q-11 -6 -23 -15t-20.5 -16t-22 -20t-19.5 -18q-11 -10 -22 -24.5t-26 -38t-19 -28.5
q-30 -48 -44 -151q-4 -25 -4 -60q0 -148 80 -224q15 -13 47 -33t45 -29q3 -2 11 -8t11 -8t10.5 -6.5t11.5 -6.5t11 -4.5t13 -3.5t13 -1q2 0 4 -0.5t4 -0.5q62 0 126 39.5t104 95.5q73 101 73 253q0 34 -5 67q-14 86 -26 125q-18 53 -71 94q-24 19 -84 40q-39 13 -64 13
q-5 0 -20.5 -1.5t-18.5 -1.5q-35 -6 -75 -28z" />
    <glyph glyph-name="oacute" unicode="&#xf3;" horiz-adv-x="697" 
d="M443 845l2 -6q-17 -11 -60 -38t-66 -44l-3 5q22 16 64.5 42.5t62.5 40.5zM307 9q2 -1 9 -1q64 0 129 40t105 96q74 103 74 257q0 33 -5 68q-13 84 -26 126q-18 55 -73 96q-23 19 -85 41q-42 13 -66 13q-6 0 -22 -1.5t-17 -1.5q-36 -4 -78 -28q-14 -7 -28.5 -18.5
t-31.5 -28t-25 -23.5q-26 -23 -68 -92q-31 -51 -45 -154q-4 -25 -4 -60q0 -150 81 -227q13 -12 29 -22.5t35 -22t30 -18.5q1 -1 7 -5.5l8 -6t7 -5t7.5 -5l7.5 -4.5t8 -4.5t8 -3.5t9.5 -2.5t9.5 -1.5t10 -1zM255 709q40 22 75 28q3 0 18.5 1.5t20.5 1.5q25 0 64 -13
q60 -21 84 -40q53 -41 71 -94q12 -39 26 -125q5 -33 5 -67q0 -152 -73 -253q-40 -56 -104 -95.5t-126 -39.5q-2 0 -4 0.5t-4 0.5q-7 0 -13 1t-13 3.5t-11 4.5t-11.5 6.5t-10.5 6.5t-11 8t-11 8q-13 9 -45 29t-47 33q-80 76 -80 224q0 35 4 60q14 103 44 151q4 5 19 28.5
t26 38t22 24.5q6 5 19.5 18t22 20t20.5 16t23 15z" />
    <glyph glyph-name="ocircumflex" unicode="&#xf4;" horiz-adv-x="697" 
d="M459 765l-2 -5q-29 21 -92 61q-6 -3 -28 -15.5t-48.5 -28t-35.5 -20.5l-1 6q9 5 56 32.5t57 31.5zM307 9q2 -1 9 -1q64 0 129 40t105 96q74 103 74 257q0 33 -5 68q-13 84 -26 126q-18 55 -73 96q-23 19 -85 41q-42 13 -66 13q-6 0 -22 -1.5t-17 -1.5q-36 -4 -78 -28
q-14 -7 -28.5 -18.5t-31.5 -28t-25 -23.5q-26 -23 -68 -92q-31 -51 -45 -154q-4 -25 -4 -60q0 -150 81 -227q13 -12 29 -22.5t35 -22t30 -18.5q1 -1 7 -5.5l8 -6t7 -5t7.5 -5l7.5 -4.5t8 -4.5t8 -3.5t9.5 -2.5t9.5 -1.5t10 -1zM255 709q40 22 75 28q3 0 18.5 1.5t20.5 1.5
q25 0 64 -13q60 -21 84 -40q53 -41 71 -94q12 -39 26 -125q5 -33 5 -67q0 -152 -73 -253q-40 -56 -104 -95.5t-126 -39.5q-2 0 -4 0.5t-4 0.5q-7 0 -13 1t-13 3.5t-11 4.5t-11.5 6.5t-10.5 6.5t-11 8t-11 8q-13 9 -45 29t-47 33q-80 76 -80 224q0 35 4 60q14 103 44 151
q4 5 19 28.5t26 38t22 24.5q6 5 19.5 18t22 20t20.5 16t23 15z" />
    <glyph glyph-name="otilde" unicode="&#xf5;" horiz-adv-x="697" 
d="M282 777l-5 5q44 37 74 27q10 -3 31.5 -19t36.5 -18q23 -3 57 21l2 -6q-32 -23 -57 -21q-16 1 -40 18t-33 20q-26 9 -66 -27zM307 9q2 -1 9 -1q64 0 129 40t105 96q74 103 74 257q0 33 -5 68q-13 84 -26 126q-18 55 -73 96q-23 19 -85 41q-42 13 -66 13q-6 0 -22 -1.5
t-17 -1.5q-36 -4 -78 -28q-14 -7 -28.5 -18.5t-31.5 -28t-25 -23.5q-26 -23 -68 -92q-31 -51 -45 -154q-4 -25 -4 -60q0 -150 81 -227q13 -12 29 -22.5t35 -22t30 -18.5q1 -1 7 -5.5l8 -6t7 -5t7.5 -5l7.5 -4.5t8 -4.5t8 -3.5t9.5 -2.5t9.5 -1.5t10 -1zM255 709q40 22 75 28
q3 0 18.5 1.5t20.5 1.5q25 0 64 -13q60 -21 84 -40q53 -41 71 -94q12 -39 26 -125q5 -33 5 -67q0 -152 -73 -253q-40 -56 -104 -95.5t-126 -39.5q-2 0 -4 0.5t-4 0.5q-7 0 -13 1t-13 3.5t-11 4.5t-11.5 6.5t-10.5 6.5t-11 8t-11 8q-13 9 -45 29t-47 33q-80 76 -80 224
q0 35 4 60q14 103 44 151q4 5 19 28.5t26 38t22 24.5q6 5 19.5 18t22 20t20.5 16t23 15z" />
    <glyph glyph-name="odieresis" unicode="&#xf6;" horiz-adv-x="697" 
d="M279 773v6l72 -3v-6q-13 1 -37.5 1.5t-34.5 1.5zM409 772v5q7 -1 32 -1h39l-1 -6q-13 1 -36.5 1t-33.5 1zM307 9q2 -1 9 -1q64 0 129 40t105 96q74 103 74 257q0 33 -5 68q-13 84 -26 126q-18 55 -73 96q-23 19 -85 41q-42 13 -66 13q-6 0 -22 -1.5t-17 -1.5
q-36 -4 -78 -28q-14 -7 -28.5 -18.5t-31.5 -28t-25 -23.5q-26 -23 -68 -92q-31 -51 -45 -154q-4 -25 -4 -60q0 -150 81 -227q13 -12 29 -22.5t35 -22t30 -18.5q1 -1 7 -5.5l8 -6t7 -5t7.5 -5l7.5 -4.5t8 -4.5t8 -3.5t9.5 -2.5t9.5 -1.5t10 -1zM255 709q40 22 75 28
q3 0 18.5 1.5t20.5 1.5q25 0 64 -13q60 -21 84 -40q53 -41 71 -94q12 -39 26 -125q5 -33 5 -67q0 -152 -73 -253q-40 -56 -104 -95.5t-126 -39.5q-2 0 -4 0.5t-4 0.5q-7 0 -13 1t-13 3.5t-11 4.5t-11.5 6.5t-10.5 6.5t-11 8t-11 8q-13 9 -45 29t-47 33q-80 76 -80 224
q0 35 4 60q14 103 44 151q4 5 19 28.5t26 38t22 24.5q6 5 19.5 18t22 20t20.5 16t23 15z" />
    <glyph glyph-name="divide" unicode="&#xf7;" horiz-adv-x="205" 
d="M118 487h-12q2 8 2 16q1 1 2 1h4q4 2 7 0q0 -5 -3 -17zM116 217h-12q2 8 2 16q1 1 3 1q2 2 5 0h5q0 -5 -3 -17zM106 234v-1q-1 0 0 1zM-6 367l-1 6h77q4 0 27 -1t28 -1h99v-5h-100q-4 0 -27 1t-27 1z" />
    <glyph glyph-name="ugrave" unicode="&#xf9;" horiz-adv-x="482" 
d="M180 829l2 6q23 -16 47 -34.5t43 -31.5l-3 -5q-17 12 -41 30.5t-48 34.5zM19 727v6h118l-1 -5h-59q0 -44 -2 -126l-3 -125v-12q0 -57 9 -120q6 -29 7 -83.5t3 -70.5q6 -65 25 -113q20 -43 51 -57q15 -5 26 -5q26 0 68 22q39 23 61 69q48 98 58 210q9 97 9 191v40
q0 15 -2 41q-3 73 -3 142q-57 0 -60 -1l1 6h124l1 -5h-61q0 -69 3 -142q2 -26 2 -41v-40q0 -93 -9 -192q-11 -117 -59 -211q-12 -27 -25 -42t-37 -29q-44 -23 -71 -23q-11 0 -28 5q-37 15 -53 60q-21 53 -26 114q-2 18 -3.5 71.5t-6.5 82.5q-9 55 -9 121v12l3 125
q2 82 2 126q-50 0 -53 -1z" />
    <glyph glyph-name="uacute" unicode="&#xfa;" horiz-adv-x="482" 
d="M269 838l2 -6q-24 -16 -48 -34.5t-41 -30.5l-3 5q19 13 43 31.5t47 34.5zM19 733v-6q3 1 53 1q0 -44 -2 -126l-3 -125v-12q0 -66 9 -121q5 -29 6.5 -82.5t3.5 -71.5q5 -61 26 -114q16 -45 53 -60q17 -5 28 -5q27 0 71 23q24 14 37 29t25 42q48 94 59 211q9 99 9 192v40
q0 15 -2 41q-3 73 -3 142h61l-1 5h-124l-1 -6q3 1 60 1q0 -69 3 -142q2 -26 2 -41v-40q0 -94 -9 -191q-10 -112 -58 -210q-22 -46 -61 -69q-42 -22 -68 -22q-11 0 -26 5q-31 14 -51 57q-19 48 -25 113q-2 16 -3 70.5t-7 83.5q-9 63 -9 120v12l3 125q2 82 2 126h59l1 5h-118z
" />
    <glyph glyph-name="ucircumflex" unicode="&#xfb;" horiz-adv-x="482" 
d="M293 794l-4 -4q-38 27 -61 42q-7 -3 -32.5 -20.5t-37.5 -24.5l-1 6q11 6 36.5 23.5t34.5 21.5zM19 733v-6q3 1 53 1q0 -44 -2 -126l-3 -125v-12q0 -66 9 -121q5 -29 6.5 -82.5t3.5 -71.5q5 -61 26 -114q16 -45 53 -60q17 -5 28 -5q27 0 71 23q24 14 37 29t25 42
q48 94 59 211q9 99 9 192v40q0 15 -2 41q-3 73 -3 142h61l-1 5h-124l-1 -6q3 1 60 1q0 -69 3 -142q2 -26 2 -41v-40q0 -94 -9 -191q-10 -112 -58 -210q-22 -46 -61 -69q-42 -22 -68 -22q-11 0 -26 5q-31 14 -51 57q-19 48 -25 113q-2 16 -3 70.5t-7 83.5q-9 63 -9 120v12
l3 125q2 82 2 126h59l1 5h-118z" />
    <glyph glyph-name="udieresis" unicode="&#xfc;" horiz-adv-x="482" 
d="M155 780v6l58 -3v-6q-12 1 -30 1.5t-28 1.5zM244 779v5h26t34 -1l-1 -6q-13 1 -31 1t-28 1zM19 733v-6q3 1 53 1q0 -44 -2 -126l-3 -125v-12q0 -66 9 -121q5 -29 6.5 -82.5t3.5 -71.5q5 -61 26 -114q16 -45 53 -60q17 -5 28 -5q27 0 71 23q24 14 37 29t25 42
q48 94 59 211q9 99 9 192v40q0 15 -2 41q-3 73 -3 142h61l-1 5h-124l-1 -6q3 1 60 1q0 -69 3 -142q2 -26 2 -41v-40q0 -94 -9 -191q-10 -112 -58 -210q-22 -46 -61 -69q-42 -22 -68 -22q-11 0 -26 5q-31 14 -51 57q-19 48 -25 113q-2 16 -3 70.5t-7 83.5q-9 63 -9 120v12
l3 125q2 82 2 126h59l1 5h-118z" />
    <glyph glyph-name="yacute" unicode="&#xfd;" horiz-adv-x="547" 
d="M145 733v-6q-33 1 -61 1q7 -5 11 -12q5 -7 16 -21q14 -17 44 -47q6 -7 16.5 -20.5t15.5 -19.5l54 -56q26 -26 62 -81q4 -8 15 -21.5t15 -20.5q9 15 28 58q8 19 15.5 41t15.5 48.5t13 41.5q10 30 29 61q10 16 34 49h-58l1 5h60q49 -1 54 0v-6q-42 0 -49 1q-23 -28 -38 -51
q-19 -33 -28 -61q-2 -5 -18 -55t-27 -76q-20 -47 -66 -129t-63 -116q-32 -63 -60 -129q-20 -48 -46 -93q-3 -5 -10 -12q-3 -6 -11 -6h-67v7q37 -1 65 -1q8 0 17 13q26 43 48 94q27 62 60 130q18 36 53 99l45 81q-4 9 -17 25.5t-15 19.5q-36 55 -60 80l-54 57
q-6 6 -16.5 19.5t-16.5 19.5q-14 14 -44 48l-17 22q-6 9 -15 14h-57l1 5q16 0 33 -1q27 0 29 1q59 -2 64 0zM258 767l-1 6q22 12 46.5 22.5t47.5 23.5l2 -5q-22 -13 -47.5 -23.5t-47.5 -23.5z" />
    <glyph glyph-name="Abreve" unicode="&#x102;" 
d="M352 0v5h61q-7 13 -8 30q-2 21 -6 34q-3 10 -13 42.5t-15 50.5q-39 155 -50 227q-13 0 -27 -0.5t-31.5 -1.5t-27.5 -1q-4 0 -13 -0.5t-14 -0.5h-8q-5 0 -8 1q-3 0 -10.5 2t-12.5 2q-4 0 -5 -1l-15 -53q-26 -96 -40 -170q-6 -31 -19 -83q-12 -44 -17 -79h56v-5h-117v5
q50 2 56 0q6 37 17 80q13 52 19 83q15 78 40 171l15 53l1 4q20 75 36 124q5 13 14.5 41.5t15.5 42.5q4 11 7.5 35t6.5 35q15 41 15 62v2l1 2h6q5 -8 7.5 -19t4 -24.5t2.5 -19.5q2 -13 8 -41t9 -43q3 -19 12 -72.5t13 -82.5q13 -95 58 -274q4 -17 14 -48t14 -45q6 -19 7 -35
q3 -16 8 -30h53v-5q-64 -2 -120 0zM234 391q43 3 86 3q-2 7 -4 21l-3 21q-4 29 -13 82.5t-12 72.5q-3 15 -9 43t-8 41q-9 50 -11 55q-2 -15 -15 -58q-3 -11 -7 -34.5t-8 -35.5q-6 -14 -15 -42.5t-14 -42.5q-14 -35 -36 -123h4q2 0 23 -3q4 0 9 -0.5t7 -0.5q5 0 13.5 0.5
t12.5 0.5zM258 767q-42 0 -60 40l5 2q5 -15 20.5 -26t34.5 -12q43 0 57 38l5 -2q-19 -40 -62 -40z" />
    <glyph glyph-name="abreve" unicode="&#x103;" 
d="M352 0v5h61q-7 13 -8 30q-2 21 -6 34q-3 10 -13 42.5t-15 50.5q-39 155 -50 227q-13 0 -27 -0.5t-31.5 -1.5t-27.5 -1q-4 0 -13 -0.5t-14 -0.5h-8q-5 0 -8 1q-3 0 -10.5 2t-12.5 2q-4 0 -5 -1l-15 -53q-26 -96 -40 -170q-6 -31 -19 -83q-12 -44 -17 -79h56v-5h-117v5
q50 2 56 0q6 37 17 80q13 52 19 83q15 78 40 171l15 53l1 4q20 75 36 124q5 13 14.5 41.5t15.5 42.5q4 11 7.5 35t6.5 35q15 41 15 62v2l1 2h6q5 -8 7.5 -19t4 -24.5t2.5 -19.5q2 -13 8 -41t9 -43q3 -19 12 -72.5t13 -82.5q13 -95 58 -274q4 -17 14 -48t14 -45q6 -19 7 -35
q3 -16 8 -30h53v-5q-64 -2 -120 0zM234 391q43 3 86 3q-2 7 -4 21l-3 21q-4 29 -13 82.5t-12 72.5q-3 15 -9 43t-8 41q-9 50 -11 55q-2 -15 -15 -58q-3 -11 -7 -34.5t-8 -35.5q-6 -14 -15 -42.5t-14 -42.5q-14 -35 -36 -123h4q2 0 23 -3q4 0 9 -0.5t7 -0.5q5 0 13.5 0.5
t12.5 0.5zM258 767q-42 0 -60 40l5 2q5 -15 20.5 -26t34.5 -12q43 0 57 38l5 -2q-19 -40 -62 -40z" />
    <glyph glyph-name="Dcroat" unicode="&#x110;" horiz-adv-x="510" 
d="M-14 381l-1 6h77q7 0 35 -2q-1 72 -8 170q-1 24 -1 79t-2 78q-1 5 -1 13q0 3 -2 9h-70v6h79l16 -2q4 0 8.5 -0.5t8 -1t5.5 -0.5l53 -10q99 -33 133 -60q64 -52 101 -127q17 -37 31 -115q4 -23 4 -54q0 -13 -2 -35q-6 -44 -31 -97q-25 -60 -61 -95q-10 -9 -31.5 -29.5
t-33.5 -30.5q-33 -24 -84 -49q-25 -13 -56 -24q-11 -4 -47 -6h-4q-24 -2 -86 0v5h82q-2 114 -2 173q0 34 0.5 99.5t0.5 97.5v1q-28 2 -35 2zM150 15q30 11 57 24q47 20 81 48q14 12 37.5 34t28.5 27q36 33 61 92q19 40 30 96q2 22 2 34q0 21 -5 53q-13 72 -31 114
q-32 72 -98 125q-33 26 -133 59q-30 6 -50 9l-41 4l1 -8q0 -9 2 -14q2 -27 2 -78t1 -79q6 -115 7 -170h15h99v-5h-29h-42.5h-28.5h-14v-1q0 -32 -0.5 -97.5t-0.5 -99.5q0 -97 4 -173q34 2 45 6z" />
    <glyph glyph-name="dcroat" unicode="&#x111;" horiz-adv-x="510" 
d="M-14 381l-1 6h77q7 0 35 -2q-1 72 -8 170q-1 24 -1 79t-2 78q-1 5 -1 13q0 3 -2 9h-70v6h79l16 -2q4 0 8.5 -0.5t8 -1t5.5 -0.5l53 -10q99 -33 133 -60q64 -52 101 -127q17 -37 31 -115q4 -23 4 -54q0 -13 -2 -35q-6 -44 -31 -97q-25 -60 -61 -95q-10 -9 -31.5 -29.5
t-33.5 -30.5q-33 -24 -84 -49q-25 -13 -56 -24q-11 -4 -47 -6h-4q-24 -2 -86 0v5h82q-2 114 -2 173q0 34 0.5 99.5t0.5 97.5v1q-28 2 -35 2zM150 15q30 11 57 24q47 20 81 48q14 12 37.5 34t28.5 27q36 33 61 92q19 40 30 96q2 22 2 34q0 21 -5 53q-13 72 -31 114
q-32 72 -98 125q-33 26 -133 59q-30 6 -50 9l-41 4l1 -8q0 -9 2 -14q2 -27 2 -78t1 -79q6 -115 7 -170h15h99v-5h-29h-42.5h-28.5h-14v-1q0 -32 -0.5 -97.5t-0.5 -99.5q0 -97 4 -173q34 2 45 6z" />
    <glyph glyph-name="Itilde" unicode="&#x128;" horiz-adv-x="170" 
d="M153 731v-6q-32 1 -59 1q0 -21 -1 -30l-2 -31v-25q0 -14 0.5 -43t0.5 -44q0 -22 -1.5 -66t-1.5 -66q0 -17 -2.5 -70.5t-0.5 -87.5q-2 -14 -2 -22v-21q0 -28 2 -86q0 -12 1 -40.5t1 -39.5l-2 -25q0 -15 -1 -23h61l-1 -5h-62q-59 1 -63 0v6q37 -1 60 -1l3 48
q0 11 -1.5 39.5t-1.5 40.5q0 14 -0.5 43t-0.5 43v21q0 15 1 22q-1 35 1.5 90.5t2.5 67.5q0 22 1.5 66t1.5 66q0 15 -0.5 44t-0.5 43v26l2 30q1 10 1 30h-57l1 5h57q58 -1 63 0zM33 776l-5 4q32 19 64 5q27 -13 60 6l2 -5q-29 -18 -59 -7q-2 1 -6.5 2.5t-6.5 2.5t-6 2t-7 1
h-7t-8 -1.5t-9.5 -4t-11.5 -5.5z" />
    <glyph glyph-name="OE" unicode="&#x152;" horiz-adv-x="934" 
d="M314 9q-5 0 -10 1t-9.5 1.5t-9.5 2.5t-8 3.5t-8 4.5l-7.5 4.5t-7.5 5t-7 5l-8 6t-7 5.5q-2 2 -39.5 24.5t-54.5 38.5q-81 77 -81 227q0 35 4 60q14 103 45 154q42 69 68 92q8 7 25 23.5t31.5 28t28.5 18.5q42 24 78 28q1 0 17 1.5t22 1.5q24 0 66 -13q62 -22 85 -41
q55 -41 73 -96q13 -42 26 -126q5 -35 5 -68q0 -154 -74 -257q-40 -56 -105 -96t-129 -40q-7 0 -9 1zM262 709q-11 -6 -23 -15t-20.5 -16t-22 -20t-19.5 -18q-11 -10 -22 -24.5t-26 -38t-19 -28.5q-30 -48 -44 -151q-4 -25 -4 -60q0 -148 80 -224q15 -13 47 -33t45 -29
q3 -2 11 -8t11 -8t10.5 -6.5t11.5 -6.5t11 -4.5t13 -3.5t13 -1q1 0 4 -0.5t4 -0.5q62 0 126 39.5t104 95.5q73 101 73 253q0 34 -5 67q-14 86 -26 125q-18 53 -71 94q-24 19 -84 40q-39 13 -64 13q-5 0 -20.5 -1.5t-18.5 -1.5q-35 -6 -75 -28zM557 731v6h94q10 0 29.5 -0.5
t29.5 -0.5h43q14 0 44 -2l56 -3q2 -1 7 -1h9q6 0 9 -1h2h3q2 0 3 1v-83h-6v75q-1 0 -2 1q-3 1 -9 1q-14 0 -17 1l-56 3q-44 3 -86 3q-10 0 -29.5 0.5t-29.5 0.5h-17q-1 -11 -1 -34v-34q0 -12 -2 -36t-3 -37v-34q0 -23 -1 -34v-11q0 -40 4 -71h9q8 0 10 1q25 5 42 5l57 4h34
q6 0 16 -2q4 -1 14 -1h33v61h6v-125h-6v58q-42 0 -48 1q-10 2 -16 2h-33l-57 -4q-21 0 -41 -4q-2 -1 -19 -1q0 -11 1 -14q0 -8 0.5 -24t0.5 -24q0 -18 -1 -56t-1 -58v-32q0 -87 -3 -131q-2 -34 -2 -51v-31q0 -4 -1 -7q3 1 8 1h10l75 1q6 0 16 -0.5t14 -0.5q48 0 89 4h16
q5 1 14 1v85h6v-90h-6l-13 -1q-6 -1 -17 -1q-41 -4 -89 -4q-5 0 -15 0.5t-15 0.5l-75 -1h-20q-24 -2 -65 0v5h61q1 3 1 6v32q0 14 2 52q4 43 4 130v32q0 20 1 58t1 56q0 8 -0.5 24t-0.5 23l-2 19q-6 46 -6 72q0 2 0.5 5.5t0.5 5.5q1 12 1 34.5v34.5q1 13 3.5 36.5t2.5 35.5
v34v33h-71z" />
    <glyph glyph-name="oe" unicode="&#x153;" horiz-adv-x="924" 
d="M309 9q-5 0 -10 1t-9.5 1.5t-9.5 2.5t-8 3.5t-8 4.5l-7.5 4.5t-7.5 5t-7 5l-8 6t-7 5.5q-2 2 -39.5 24.5t-54.5 38.5q-81 77 -81 227q0 35 4 60q14 103 45 154q42 69 68 92q8 7 25 23.5t31.5 28t28.5 18.5q42 24 78 28q1 0 17 1.5t22 1.5q24 0 66 -13q62 -22 85 -41
q55 -41 73 -96q13 -42 26 -126q5 -35 5 -68q0 -154 -74 -257q-40 -56 -105 -96t-129 -40q-7 0 -9 1zM257 709q-11 -6 -23 -15t-20.5 -16t-22 -20t-19.5 -18q-11 -10 -22 -24.5t-26 -38t-19 -28.5q-30 -48 -44 -151q-4 -25 -4 -60q0 -148 80 -224q15 -13 47 -33t45 -29
q3 -2 11 -8t11 -8t10.5 -6.5t11.5 -6.5t11 -4.5t13 -3.5t13 -1q2 0 4 -0.5t4 -0.5q62 0 126 39.5t104 95.5q73 101 73 253q0 34 -5 67q-14 86 -26 125q-18 53 -71 94q-24 19 -84 40q-39 13 -64 13q-5 0 -20.5 -1.5t-18.5 -1.5q-35 -6 -75 -28zM552 731v6h94q10 0 29.5 -0.5
t29.5 -0.5h43q14 0 44 -2l56 -3q2 -1 7 -1h9q6 0 9 -1h2h3q2 0 3 1v-83h-6v75q-1 0 -2 1q-3 1 -9 1q-14 0 -17 1q-55 3 -56 3q-43 3 -86 3q-10 0 -29.5 0.5t-29.5 0.5h-17q-1 -11 -1 -34v-34q0 -12 -2 -36t-3 -37v-34q0 -23 -1 -34v-11q0 -40 4 -71h9q8 0 10 1q25 5 42 5
l57 4h34q6 0 16 -2q4 -1 14 -1h33v61h6v-125h-6v58q-42 0 -48 1q-10 2 -16 2h-33l-57 -4q-21 0 -41 -4q-2 -1 -19 -1q0 -11 1 -14q0 -8 0.5 -24t0.5 -24q0 -18 -1 -56t-1 -58v-32q0 -87 -3 -131q-2 -34 -2 -51v-31q0 -4 -1 -7q3 1 8 1h10l75 1q6 0 16 -0.5t14 -0.5
q48 0 89 4h16q5 1 14 1v85h6v-90h-6l-13 -1q-6 -1 -17 -1q-41 -4 -89 -4q-6 0 -15 0.5t-15 0.5l-75 -1h-20q-24 -2 -65 0v5h61q1 3 1 6v32q0 14 2 52q4 43 4 130v32q0 20 1 58t1 56q0 8 -0.5 24t-0.5 23l-2 19q-6 46 -6 72q0 2 0.5 5.5t0.5 5.5v34.5t1 34.5q1 13 3.5 36.5
t2.5 35.5v34v33h-71z" />
    <glyph glyph-name="Scaron" unicode="&#x160;" horiz-adv-x="353" 
d="M299 585h-5v64q-3 14 -7 25t-7.5 17.5t-9 11.5t-8 6.5t-8.5 4.5l-5 2q-20 10 -48 10q-16 0 -41 -5q-38 -8 -59.5 -32t-21.5 -60q0 -13 3 -28q13 -65 76 -188q21 -35 37 -57q7 -9 12.5 -18.5t12 -22.5l9.5 -19q43 -82 43 -153q0 -85 -75 -118q-25 -12 -56 -12q-8 0 -11 1
q-25 1 -49 34q-35 45 -39 83v24h5v-23q4 -38 38 -81q23 -31 45 -32q3 -1 11 -1q29 0 54 12q72 31 72 113q0 71 -42 150l-16 31q-8 16 -18 29q-17 21 -38 57q-62 123 -76 190q-3 15 -3 29q-1 38 22 63.5t63 33.5q25 5 42 5q27 0 51 -11q21 -12 31 -25q7 -8 11 -24v73l5 -1
v-158z" />
    <glyph glyph-name="Utilde" unicode="&#x168;" horiz-adv-x="482" 
d="M145 777l-5 5q44 37 74 27q10 -3 31.5 -19t36.5 -18q23 -3 57 21l2 -6q-32 -23 -57 -21q-16 1 -40 18t-33 20q-26 9 -66 -27zM19 727v6h118l-1 -5h-59q0 -44 -2 -126l-3 -125v-12q0 -57 9 -120q6 -29 7 -83.5t3 -70.5q6 -65 25 -113q20 -43 51 -57q15 -5 26 -5
q26 0 68 22q39 23 61 69q48 98 58 210q9 97 9 191v40q0 15 -2 41q-3 73 -3 142q-57 0 -60 -1l1 6h124l1 -5h-61q0 -69 3 -142q2 -26 2 -41v-40q0 -93 -9 -192q-11 -117 -59 -211q-12 -27 -25 -42t-37 -29q-44 -23 -71 -23q-11 0 -28 5q-37 15 -53 60q-21 53 -26 114
q-2 18 -3.5 71.5t-6.5 82.5q-9 55 -9 121v12l3 125q2 82 2 126q-50 0 -53 -1z" />
    <glyph glyph-name="utilde" unicode="&#x169;" horiz-adv-x="482" 
d="M145 777l-5 5q44 37 74 27q10 -3 31.5 -19t36.5 -18q23 -3 57 21l2 -6q-32 -23 -57 -21q-16 1 -40 18t-33 20q-26 9 -66 -27zM19 727v6h118l-1 -5h-59q0 -44 -2 -126l-3 -125v-12q0 -57 9 -120q6 -29 7 -83.5t3 -70.5q6 -65 25 -113q20 -43 51 -57q15 -5 26 -5
q26 0 68 22q39 23 61 69q48 98 58 210q9 97 9 191v40q0 15 -2 41q-3 73 -3 142q-57 0 -60 -1l1 6h124l1 -5h-61q0 -69 3 -142q2 -26 2 -41v-40q0 -93 -9 -192q-11 -117 -59 -211q-12 -27 -25 -42t-37 -29q-44 -23 -71 -23q-11 0 -28 5q-37 15 -53 60q-21 53 -26 114
q-2 18 -3.5 71.5t-6.5 82.5q-9 55 -9 121v12l3 125q2 82 2 126q-50 0 -53 -1z" />
    <glyph glyph-name="Zcaron" unicode="&#x17d;" horiz-adv-x="473" 
d="M414 111h6v-108q-63 3 -71 3q-6 0 -15 1t-13 1q-15 0 -44 -1t-44 -1q-12 0 -15 1q-9 0 -27.5 2t-31.5 2q-84 0 -121 -7l-7 -3l3 6q12 25 38 66.5t33 52.5q99 163 159 272l24 42q-24 3 -67 5h-5q-6 0 -18.5 -0.5t-19.5 -0.5q-17 0 -24 3l2 5q9 -3 22 -3q6 0 19 1t19 1
q4 0 5 -1q46 -2 69 -5h1q40 75 53 108q28 70 47 103q4 7 13 21.5t15.5 26t10.5 22.5h-10q-11 0 -34 -0.5t-35 -0.5q-8 0 -42 -2t-44 0q-3 -1 -11 -1h-12q-31 0 -67 -2q-9 1 -36 1h-37q-6 0 -19 2t-19 2q-5 0 -7 -1q-1 -31 -1 -49v-48l-5 1v47q1 37 0 49l-1 4h1v1h2q3 1 11 1
q7 0 20 -2t18 -2h1q10 0 37 -0.5t36 -0.5q36 2 66 2h12q8 0 11 1q8 -2 42 0t44 2q12 0 35 1t34 1q2 0 7 -0.5t7 -0.5h4l-2 -3q-4 -12 -11 -24.5t-16.5 -28t-13.5 -22.5q-17 -32 -25 -50q-3 -8 -8 -19t-8.5 -18.5t-5.5 -13.5q-22 -55 -52 -107q10 0 48 4.5t55 4.5q24 0 28 -6
l-5 -3q-2 6 -23 4q-17 0 -56 -4.5t-49 -4.5l-25 -44q-49 -91 -159 -272q-6 -10 -31 -50t-37 -63q36 5 117 5q13 0 31.5 -2t27.5 -2q3 -1 15 -1q15 0 44 1t43 1h1q6 0 15 -1t13 -1q7 0 66 -3v48q0 52 -1 55z" />
    <glyph glyph-name="Ohorn" unicode="&#x1a0;" horiz-adv-x="682" 
d="M307 9q-5 0 -10 1t-9.5 1.5t-9.5 2.5t-8 3.5t-8 4.5l-7.5 4.5t-7.5 5t-7 5l-8 6t-7 5.5q-2 2 -39.5 24.5t-54.5 38.5q-81 77 -81 227q0 35 4 60q14 103 45 154q42 69 68 92q8 7 25 23.5t31.5 28t28.5 18.5q42 24 78 28q1 0 17 1.5t22 1.5q24 0 66 -13q62 -22 85 -41
q34 -27 49 -48q24 -2 33 13.5t4.5 35t-16.5 32.5l3 2l1 -1q14 -13 18.5 -34.5t-5.5 -37.5t-36 -13q15 -25 22 -45q13 -42 26 -126q5 -35 5 -68q0 -154 -74 -257q-40 -56 -105 -96t-129 -40q-7 0 -9 1zM255 709q-11 -6 -23 -15t-20.5 -16t-22 -20t-19.5 -18
q-11 -10 -22 -24.5t-26 -38t-19 -28.5q-30 -48 -44 -151q-4 -25 -4 -60q0 -148 80 -224q15 -13 47 -33t45 -29q3 -2 11 -8t11 -8t10.5 -6.5t11.5 -6.5t11 -4.5t13 -3.5t13 -1q2 0 4 -0.5t4 -0.5q62 0 126 39.5t104 95.5q73 101 73 253q0 34 -5 67q-14 86 -26 125
q-18 53 -71 94q-24 19 -84 40q-39 13 -64 13q-5 0 -20.5 -1.5t-18.5 -1.5q-35 -6 -75 -28z" />
    <glyph glyph-name="ohorn" unicode="&#x1a1;" horiz-adv-x="682" 
d="M307 9q-5 0 -10 1t-9.5 1.5t-9.5 2.5t-8 3.5t-8 4.5l-7.5 4.5t-7.5 5t-7 5l-8 6t-7 5.5q-2 2 -39.5 24.5t-54.5 38.5q-81 77 -81 227q0 35 4 60q14 103 45 154q42 69 68 92q8 7 25 23.5t31.5 28t28.5 18.5q42 24 78 28q1 0 17 1.5t22 1.5q24 0 66 -13q62 -22 85 -41
q34 -27 49 -48q24 -2 33 13.5t4.5 35t-16.5 32.5l3 2l1 -1q14 -13 18.5 -34.5t-5.5 -37.5t-36 -13q15 -25 22 -45q13 -42 26 -126q5 -35 5 -68q0 -154 -74 -257q-40 -56 -105 -96t-129 -40q-7 0 -9 1zM255 709q-11 -6 -23 -15t-20.5 -16t-22 -20t-19.5 -18
q-11 -10 -22 -24.5t-26 -38t-19 -28.5q-30 -48 -44 -151q-4 -25 -4 -60q0 -148 80 -224q15 -13 47 -33t45 -29q3 -2 11 -8t11 -8t10.5 -6.5t11.5 -6.5t11 -4.5t13 -3.5t13 -1q2 0 4 -0.5t4 -0.5q62 0 126 39.5t104 95.5q73 101 73 253q0 34 -5 67q-14 86 -26 125
q-18 53 -71 94q-24 19 -84 40q-39 13 -64 13q-5 0 -20.5 -1.5t-18.5 -1.5q-35 -6 -75 -28z" />
    <glyph glyph-name="Uhorn" unicode="&#x1af;" horiz-adv-x="482" 
d="M421 734l4 2h1q7 -7 9.5 -31.5t-8 -47t-37.5 -18.5q0 -16 2 -50q2 -26 2 -41v-40q0 -93 -9 -192q-11 -117 -59 -211q-12 -27 -25 -42t-37 -29q-44 -23 -71 -23q-11 0 -28 5q-37 15 -53 60q-21 53 -26 114q-2 18 -3.5 71.5t-6.5 82.5q-9 55 -9 121v12l3 125q2 82 2 126
q-50 0 -53 -1v6h118l-1 -5h-59q0 -44 -2 -126l-3 -125v-12q0 -57 9 -120q6 -29 7 -83.5t3 -70.5q6 -65 25 -113q20 -43 51 -57q15 -5 26 -5q26 0 68 22q39 23 61 69q48 98 58 210q9 97 9 191v40q0 15 -2 41q-3 73 -3 142q-57 0 -60 -1l1 6h63l1 -5q0 -58 1 -88q23 -4 33 17
t7.5 44.5t-9.5 29.5z" />
    <glyph glyph-name="uhorn" unicode="&#x1b0;" horiz-adv-x="482" 
d="M421 734l4 2h1q7 -7 9.5 -31.5t-8 -47t-37.5 -18.5q0 -16 2 -50q2 -26 2 -41v-40q0 -93 -9 -192q-11 -117 -59 -211q-12 -27 -25 -42t-37 -29q-44 -23 -71 -23q-11 0 -28 5q-37 15 -53 60q-21 53 -26 114q-2 18 -3.5 71.5t-6.5 82.5q-9 55 -9 121v12l3 125q2 82 2 126
q-50 0 -53 -1v6h118l-1 -5h-59q0 -44 -2 -126l-3 -125v-12q0 -57 9 -120q6 -29 7 -83.5t3 -70.5q6 -65 25 -113q20 -43 51 -57q15 -5 26 -5q26 0 68 22q39 23 61 69q48 98 58 210q9 97 9 191v40q0 15 -2 41q-3 73 -3 142q-57 0 -60 -1l1 6h63l1 -5q0 -58 1 -88q23 -4 33 17
t7.5 44.5t-9.5 29.5z" />
    <glyph glyph-name="circumflex" unicode="&#x2c6;" horiz-adv-x="284" 
d="M212 687l-2 -5q-35 25 -63 43q-7 -3 -32.5 -20.5t-37.5 -24.5l-1 6q11 6 36.5 23.5t34.5 21.5z" />
    <glyph glyph-name="breve" unicode="&#x2d8;" horiz-adv-x="387" 
d="M207 567q-42 0 -60 40l5 2q5 -15 20.5 -26t34.5 -12q43 0 57 38l5 -2q-19 -40 -62 -40z" />
    <glyph glyph-name="tilde" unicode="&#x2dc;" horiz-adv-x="157" 
d="M33 577l-4 4q27 21 52 6q22 -14 49 6l2 -5q-25 -21 -49 -8q-1 1 -4.5 3t-4.5 2.5l-4 2t-5 1.5t-5 0.5t-5.5 -0.5t-6 -2.5t-7.5 -4t-8 -5.5z" />
    <glyph glyph-name="hookabovecomb" unicode="&#x309;" horiz-adv-x="404" 
d="M245 563h-3q-8 0 11 29q3 5 7 9q6 9 6 18q0 6 -1 8q-1 7 -6 10t-12 3q-3 0 -9 -2t-8 -3q-3 -2 -5 -5q-2 -4 -2 -6v-10l-5 1v10q2 11 9 15q12 6 21 6t14 -4q9 -5 9 -20q0 -13 -7 -25q-2 -3 -7 -10t-8 -12.5t-4 -11.5z" />
    <glyph glyph-name="dotbelowcomb" unicode="&#x323;" horiz-adv-x="107" 
d="M47 -104q0 3 2 5t5 2t5 -2t2 -5q0 -2 -3 -5q-2 -2 -4 -2q-4 0 -6 3v2z" />
    <glyph glyph-name="uni1EA0" unicode="&#x1ea0;" 
d="M352 0v5h61q-7 13 -8 30q-2 21 -6 34q-3 10 -13 42.5t-15 50.5q-39 155 -50 227q-13 0 -27 -0.5t-31.5 -1.5t-27.5 -1q-4 0 -13 -0.5t-14 -0.5h-8q-5 0 -8 1q-3 0 -10.5 2t-12.5 2q-4 0 -5 -1l-15 -53q-26 -96 -40 -170q-6 -31 -19 -83q-12 -44 -17 -79h56v-5h-117v5
q50 2 56 0q6 37 17 80q13 52 19 83q15 78 40 171l15 53l1 4q20 75 36 124q5 13 14.5 41.5t15.5 42.5q4 11 7.5 35t6.5 35q15 41 15 62v2l1 2h6q5 -8 7.5 -19t4 -24.5t2.5 -19.5q2 -13 8 -41t9 -43q3 -19 12 -72.5t13 -82.5q13 -95 58 -274q4 -17 14 -48t14 -45q6 -19 7 -35
q3 -16 8 -30h53v-5q-64 -2 -120 0zM234 391q43 3 86 3q-2 7 -4 21l-3 21q-4 29 -13 82.5t-12 72.5q-3 15 -9 43t-8 41q-9 50 -11 55q-2 -15 -15 -58q-3 -11 -7 -34.5t-8 -35.5q-6 -14 -15 -42.5t-14 -42.5q-14 -35 -36 -123h4q2 0 23 -3q4 0 9 -0.5t7 -0.5q5 0 13.5 0.5
t12.5 0.5zM235 -104q0 3 2 5t5 2t5 -2t2 -5q0 -2 -3 -5q-2 -2 -4 -2q-4 0 -6 3v2z" />
    <glyph glyph-name="uni1EA1" unicode="&#x1ea1;" 
d="M352 0v5h61q-7 13 -8 30q-2 21 -6 34q-3 10 -13 42.5t-15 50.5q-39 155 -50 227q-13 0 -27 -0.5t-31.5 -1.5t-27.5 -1q-4 0 -13 -0.5t-14 -0.5h-8q-5 0 -8 1q-3 0 -10.5 2t-12.5 2q-4 0 -5 -1l-15 -53q-26 -96 -40 -170q-6 -31 -19 -83q-12 -44 -17 -79h56v-5h-117v5
q50 2 56 0q6 37 17 80q13 52 19 83q15 78 40 171l15 53l1 4q20 75 36 124q5 13 14.5 41.5t15.5 42.5q4 11 7.5 35t6.5 35q15 41 15 62v2l1 2h6q5 -8 7.5 -19t4 -24.5t2.5 -19.5q2 -13 8 -41t9 -43q3 -19 12 -72.5t13 -82.5q13 -95 58 -274q4 -17 14 -48t14 -45q6 -19 7 -35
q3 -16 8 -30h53v-5q-64 -2 -120 0zM234 391q43 3 86 3q-2 7 -4 21l-3 21q-4 29 -13 82.5t-12 72.5q-3 15 -9 43t-8 41q-9 50 -11 55q-2 -15 -15 -58q-3 -11 -7 -34.5t-8 -35.5q-6 -14 -15 -42.5t-14 -42.5q-14 -35 -36 -123h4q2 0 23 -3q4 0 9 -0.5t7 -0.5q5 0 13.5 0.5
t12.5 0.5zM235 -104q0 3 2 5t5 2t5 -2t2 -5q0 -2 -3 -5q-2 -2 -4 -2q-4 0 -6 3v2z" />
    <glyph glyph-name="uni1EA2" unicode="&#x1ea2;" 
d="M352 0v5h61q-7 13 -8 30q-2 21 -6 34q-3 10 -13 42.5t-15 50.5q-39 155 -50 227q-13 0 -27 -0.5t-31.5 -1.5t-27.5 -1q-4 0 -13 -0.5t-14 -0.5h-8q-5 0 -8 1q-3 0 -10.5 2t-12.5 2q-4 0 -5 -1l-15 -53q-26 -96 -40 -170q-6 -31 -19 -83q-12 -44 -17 -79h56v-5h-117v5
q50 2 56 0q6 37 17 80q13 52 19 83q15 78 40 171l15 53l1 4q20 75 36 124q5 13 14.5 41.5t15.5 42.5q4 11 7.5 35t6.5 35q15 41 15 62v2l1 2h6q5 -8 7.5 -19t4 -24.5t2.5 -19.5q2 -13 8 -41t9 -43q3 -19 12 -72.5t13 -82.5q13 -95 58 -274q4 -17 14 -48t14 -45q6 -19 7 -35
q3 -16 8 -30h53v-5q-64 -2 -120 0zM234 391q43 3 86 3q-2 7 -4 21l-3 21q-4 29 -13 82.5t-12 72.5q-3 15 -9 43t-8 41q-9 50 -11 55q-2 -15 -15 -58q-3 -11 -7 -34.5t-8 -35.5q-6 -14 -15 -42.5t-14 -42.5q-14 -35 -36 -123h4q2 0 23 -3q4 0 9 -0.5t7 -0.5q5 0 13.5 0.5
t12.5 0.5zM265 763h-3q-8 0 11 29q3 5 7 9q6 9 6 18q0 6 -1 8q-1 7 -6 10t-12 3q-3 0 -9 -2t-8 -3q-3 -2 -5 -5q-2 -4 -2 -6v-10l-5 1v10q2 11 9 15q12 6 21 6t14 -4q9 -5 9 -20q0 -13 -7 -25q-2 -3 -7 -10t-8 -12.5t-4 -11.5z" />
    <glyph glyph-name="uni1EA3" unicode="&#x1ea3;" 
d="M352 0v5h61q-7 13 -8 30q-2 21 -6 34q-3 10 -13 42.5t-15 50.5q-39 155 -50 227q-13 0 -27 -0.5t-31.5 -1.5t-27.5 -1q-4 0 -13 -0.5t-14 -0.5h-8q-5 0 -8 1q-3 0 -10.5 2t-12.5 2q-4 0 -5 -1l-15 -53q-26 -96 -40 -170q-6 -31 -19 -83q-12 -44 -17 -79h56v-5h-117v5
q50 2 56 0q6 37 17 80q13 52 19 83q15 78 40 171l15 53l1 4q20 75 36 124q5 13 14.5 41.5t15.5 42.5q4 11 7.5 35t6.5 35q15 41 15 62v2l1 2h6q5 -8 7.5 -19t4 -24.5t2.5 -19.5q2 -13 8 -41t9 -43q3 -19 12 -72.5t13 -82.5q13 -95 58 -274q4 -17 14 -48t14 -45q6 -19 7 -35
q3 -16 8 -30h53v-5q-64 -2 -120 0zM234 391q43 3 86 3q-2 7 -4 21l-3 21q-4 29 -13 82.5t-12 72.5q-3 15 -9 43t-8 41q-9 50 -11 55q-2 -15 -15 -58q-3 -11 -7 -34.5t-8 -35.5q-6 -14 -15 -42.5t-14 -42.5q-14 -35 -36 -123h4q2 0 23 -3q4 0 9 -0.5t7 -0.5q5 0 13.5 0.5
t12.5 0.5zM265 763h-3q-8 0 11 29q3 5 7 9q6 9 6 18q0 6 -1 8q-1 7 -6 10t-12 3q-3 0 -9 -2t-8 -3q-3 -2 -5 -5q-2 -4 -2 -6v-10l-5 1v10q2 11 9 15q12 6 21 6t14 -4q9 -5 9 -20q0 -13 -7 -25q-2 -3 -7 -10t-8 -12.5t-4 -11.5z" />
    <glyph glyph-name="uni1EA4" unicode="&#x1ea4;" 
d="M305 759l-2 -5q-8 5 -24 17.5t-22 16.5q-7 -3 -23.5 -14t-28.5 -18l-1 6q11 6 27.5 17.5t25.5 15.5zM352 5v-5q56 -2 120 0v5h-53q-5 14 -8 30q-1 16 -7 35q-4 14 -14 45t-14 48q-45 179 -58 274q-4 29 -13 82.5t-12 72.5q-3 15 -9 43t-8 41q-1 6 -2.5 19.5t-4 24.5
t-7.5 19h-6l-1 -2v-2q0 -21 -15 -62q-3 -11 -6.5 -35t-7.5 -35q-6 -14 -15.5 -42.5t-14.5 -41.5q-16 -49 -36 -124l-1 -4l-15 -53q-25 -93 -40 -171q-6 -31 -19 -83q-11 -43 -17 -80q-6 2 -56 0v-5h117v5h-56q5 35 17 79q13 52 19 83q14 74 40 170l15 53q1 1 5 1
q5 0 12.5 -2t10.5 -2q3 -1 8 -1h8q5 0 14 0.5t13 0.5q1 0 35 1.5t51 1.5q11 -72 50 -227q5 -18 15 -50.5t13 -42.5q4 -13 6 -34q1 -17 8 -30h-61zM234 391q-4 0 -12.5 -0.5t-13.5 -0.5q-2 0 -7 0.5t-9 0.5q-21 3 -23 3h-4q22 88 36 123q5 14 14 42.5t15 42.5q4 12 8 35.5
t7 34.5q13 43 15 58q2 -5 11 -55q2 -13 8 -41t9 -43q3 -19 12 -72.5t13 -82.5l3 -21t4 -21q-42 0 -86 -3zM228 805l-1 6q22 12 46.5 22.5t47.5 23.5l2 -5q-22 -13 -47.5 -23.5t-47.5 -23.5z" />
    <glyph glyph-name="uni1EA5" unicode="&#x1ea5;" 
d="M305 759l-2 -5q-8 5 -24 17.5t-22 16.5q-7 -3 -23.5 -14t-28.5 -18l-1 6q11 6 27.5 17.5t25.5 15.5zM352 5v-5q56 -2 120 0v5h-53q-5 14 -8 30q-1 16 -7 35q-4 14 -14 45t-14 48q-45 179 -58 274q-4 29 -13 82.5t-12 72.5q-3 15 -9 43t-8 41q-1 6 -2.5 19.5t-4 24.5
t-7.5 19h-6l-1 -2v-2q0 -21 -15 -62q-3 -11 -6.5 -35t-7.5 -35q-6 -14 -15.5 -42.5t-14.5 -41.5q-16 -49 -36 -124l-1 -4l-15 -53q-25 -93 -40 -171q-6 -31 -19 -83q-11 -43 -17 -80q-6 2 -56 0v-5h117v5h-56q5 35 17 79q13 52 19 83q14 74 40 170l15 53q1 1 5 1
q5 0 12.5 -2t10.5 -2q3 -1 8 -1h8q5 0 14 0.5t13 0.5q1 0 35 1.5t51 1.5q11 -72 50 -227q5 -18 15 -50.5t13 -42.5q4 -13 6 -34q1 -17 8 -30h-61zM234 391q-4 0 -12.5 -0.5t-13.5 -0.5q-2 0 -7 0.5t-9 0.5q-21 3 -23 3h-4q22 88 36 123q5 14 14 42.5t15 42.5q4 12 8 35.5
t7 34.5q13 43 15 58q2 -5 11 -55q2 -13 8 -41t9 -43q3 -19 12 -72.5t13 -82.5l3 -21t4 -21q-42 0 -86 -3zM228 805l-1 6q22 12 46.5 22.5t47.5 23.5l2 -5q-22 -13 -47.5 -23.5t-47.5 -23.5z" />
    <glyph glyph-name="uni1EA6" unicode="&#x1ea6;" 
d="M304 797l-1 -6q-22 13 -47.5 23.5t-47.5 23.5l2 5q23 -13 47.5 -23.5t46.5 -22.5zM305 759l-2 -5q-8 5 -24 17.5t-22 16.5q-7 -3 -23.5 -14t-28.5 -18l-1 6q11 6 27.5 17.5t25.5 15.5zM352 5v-5q56 -2 120 0v5h-53q-5 14 -8 30q-1 16 -7 35q-4 14 -14 45t-14 48
q-45 179 -58 274q-4 29 -13 82.5t-12 72.5q-3 15 -9 43t-8 41q-1 6 -2.5 19.5t-4 24.5t-7.5 19h-6l-1 -2v-2q0 -21 -15 -62q-3 -11 -6.5 -35t-7.5 -35q-6 -14 -15.5 -42.5t-14.5 -41.5q-16 -49 -36 -124l-1 -4l-15 -53q-25 -93 -40 -171q-6 -31 -19 -83q-11 -43 -17 -80
q-6 2 -56 0v-5h117v5h-56q5 35 17 79q13 52 19 83q14 74 40 170l15 53q1 1 5 1q5 0 12.5 -2t10.5 -2q3 -1 8 -1h8q5 0 14 0.5t13 0.5q1 0 35 1.5t51 1.5q11 -72 50 -227q5 -18 15 -50.5t13 -42.5q4 -13 6 -34q1 -17 8 -30h-61zM234 391q-4 0 -12.5 -0.5t-13.5 -0.5
q-2 0 -7 0.5t-9 0.5q-21 3 -23 3h-4q22 88 36 123q5 14 14 42.5t15 42.5q4 12 8 35.5t7 34.5q13 43 15 58q2 -5 11 -55q2 -13 8 -41t9 -43q3 -19 12 -72.5t13 -82.5l3 -21t4 -21q-42 0 -86 -3z" />
    <glyph glyph-name="uni1EA7" unicode="&#x1ea7;" 
d="M304 797l-1 -6q-22 13 -47.5 23.5t-47.5 23.5l2 5q23 -13 47.5 -23.5t46.5 -22.5zM305 759l-2 -5q-8 5 -24 17.5t-22 16.5q-7 -3 -23.5 -14t-28.5 -18l-1 6q11 6 27.5 17.5t25.5 15.5zM352 5v-5q56 -2 120 0v5h-53q-5 14 -8 30q-1 16 -7 35q-4 14 -14 45t-14 48
q-45 179 -58 274q-4 29 -13 82.5t-12 72.5q-3 15 -9 43t-8 41q-1 6 -2.5 19.5t-4 24.5t-7.5 19h-6l-1 -2v-2q0 -21 -15 -62q-3 -11 -6.5 -35t-7.5 -35q-6 -14 -15.5 -42.5t-14.5 -41.5q-16 -49 -36 -124l-1 -4l-15 -53q-25 -93 -40 -171q-6 -31 -19 -83q-11 -43 -17 -80
q-6 2 -56 0v-5h117v5h-56q5 35 17 79q13 52 19 83q14 74 40 170l15 53q1 1 5 1q5 0 12.5 -2t10.5 -2q3 -1 8 -1h8q5 0 14 0.5t13 0.5q1 0 35 1.5t51 1.5q11 -72 50 -227q5 -18 15 -50.5t13 -42.5q4 -13 6 -34q1 -17 8 -30h-61zM234 391q-4 0 -12.5 -0.5t-13.5 -0.5
q-2 0 -7 0.5t-9 0.5q-21 3 -23 3h-4q22 88 36 123q5 14 14 42.5t15 42.5q4 12 8 35.5t7 34.5q13 43 15 58q2 -5 11 -55q2 -13 8 -41t9 -43q3 -19 12 -72.5t13 -82.5l3 -21t4 -21q-42 0 -86 -3z" />
    <glyph glyph-name="uni1EA8" unicode="&#x1ea8;" 
d="M305 759l-2 -5q-8 5 -24 17.5t-22 16.5q-7 -3 -23.5 -14t-28.5 -18l-1 6q11 6 27.5 17.5t25.5 15.5zM352 5v-5q56 -2 120 0v5h-53q-5 14 -8 30q-1 16 -7 35q-4 14 -14 45t-14 48q-45 179 -58 274q-4 29 -13 82.5t-12 72.5q-3 15 -9 43t-8 41q-1 6 -2.5 19.5t-4 24.5
t-7.5 19h-6l-1 -2v-2q0 -21 -15 -62q-3 -11 -6.5 -35t-7.5 -35q-6 -14 -15.5 -42.5t-14.5 -41.5q-16 -49 -36 -124l-1 -4l-15 -53q-25 -93 -40 -171q-6 -31 -19 -83q-11 -43 -17 -80q-6 2 -56 0v-5h117v5h-56q5 35 17 79q13 52 19 83q14 74 40 170l15 53q1 1 5 1
q5 0 12.5 -2t10.5 -2q3 -1 8 -1h8q5 0 14 0.5t13 0.5q1 0 35 1.5t51 1.5q11 -72 50 -227q5 -18 15 -50.5t13 -42.5q4 -13 6 -34q1 -17 8 -30h-61zM234 391q-4 0 -12.5 -0.5t-13.5 -0.5q-2 0 -7 0.5t-9 0.5q-21 3 -23 3h-4q22 88 36 123q5 14 14 42.5t15 42.5q4 12 8 35.5
t7 34.5q13 43 15 58q2 -5 11 -55q2 -13 8 -41t9 -43q3 -19 12 -72.5t13 -82.5l3 -21t4 -21q-42 0 -86 -3zM288 795h-3q-8 0 11 29q3 5 7 9q6 9 6 18q0 6 -1 8q-1 7 -6 10q-4 3 -12 3q-3 0 -9 -2t-8 -3q-3 -2 -5 -5q-2 -4 -2 -6v-10l-5 1v10q2 11 9 15q12 6 21 6t14 -4
q9 -5 9 -20q0 -13 -7 -25q-2 -3 -7 -10t-8 -12.5t-4 -11.5z" />
    <glyph glyph-name="uni1EA9" unicode="&#x1ea9;" 
d="M305 759l-2 -5q-8 5 -24 17.5t-22 16.5q-7 -3 -23.5 -14t-28.5 -18l-1 6q11 6 27.5 17.5t25.5 15.5zM352 5v-5q56 -2 120 0v5h-53q-5 14 -8 30q-1 16 -7 35q-4 14 -14 45t-14 48q-45 179 -58 274q-4 29 -13 82.5t-12 72.5q-3 15 -9 43t-8 41q-1 6 -2.5 19.5t-4 24.5
t-7.5 19h-6l-1 -2v-2q0 -21 -15 -62q-3 -11 -6.5 -35t-7.5 -35q-6 -14 -15.5 -42.5t-14.5 -41.5q-16 -49 -36 -124l-1 -4l-15 -53q-25 -93 -40 -171q-6 -31 -19 -83q-11 -43 -17 -80q-6 2 -56 0v-5h117v5h-56q5 35 17 79q13 52 19 83q14 74 40 170l15 53q1 1 5 1
q5 0 12.5 -2t10.5 -2q3 -1 8 -1h8q5 0 14 0.5t13 0.5q1 0 35 1.5t51 1.5q11 -72 50 -227q5 -18 15 -50.5t13 -42.5q4 -13 6 -34q1 -17 8 -30h-61zM234 391q-4 0 -12.5 -0.5t-13.5 -0.5q-2 0 -7 0.5t-9 0.5q-21 3 -23 3h-4q22 88 36 123q5 14 14 42.5t15 42.5q4 12 8 35.5
t7 34.5q13 43 15 58q2 -5 11 -55q2 -13 8 -41t9 -43q3 -19 12 -72.5t13 -82.5l3 -21t4 -21q-42 0 -86 -3zM288 795h-3q-8 0 11 29q3 5 7 9q6 9 6 18q0 6 -1 8q-1 7 -6 10q-4 3 -12 3q-3 0 -9 -2t-8 -3q-3 -2 -5 -5q-2 -4 -2 -6v-10l-5 1v10q2 11 9 15q12 6 21 6t14 -4
q9 -5 9 -20q0 -13 -7 -25q-2 -3 -7 -10t-8 -12.5t-4 -11.5z" />
    <glyph glyph-name="uni1EAA" unicode="&#x1eaa;" 
d="M305 759l-2 -5q-8 5 -24 17.5t-22 16.5q-7 -3 -23.5 -14t-28.5 -18l-1 6q11 6 27.5 17.5t25.5 15.5zM352 5v-5q56 -2 120 0v5h-53q-5 14 -8 30q-1 16 -7 35q-4 14 -14 45t-14 48q-45 179 -58 274q-4 29 -13 82.5t-12 72.5q-3 15 -9 43t-8 41q-1 6 -2.5 19.5t-4 24.5
t-7.5 19h-6l-1 -2v-2q0 -21 -15 -62q-3 -11 -6.5 -35t-7.5 -35q-6 -14 -15.5 -42.5t-14.5 -41.5q-16 -49 -36 -124l-1 -4l-15 -53q-25 -93 -40 -171q-6 -31 -19 -83q-11 -43 -17 -80q-6 2 -56 0v-5h117v5h-56q5 35 17 79q13 52 19 83q14 74 40 170l15 53q1 1 5 1
q5 0 12.5 -2t10.5 -2q3 -1 8 -1h8q5 0 14 0.5t13 0.5q1 0 35 1.5t51 1.5q11 -72 50 -227q5 -18 15 -50.5t13 -42.5q4 -13 6 -34q1 -17 8 -30h-61zM234 391q-4 0 -12.5 -0.5t-13.5 -0.5q-2 0 -7 0.5t-9 0.5q-21 3 -23 3h-4q22 88 36 123q5 14 14 42.5t15 42.5q4 12 8 35.5
t7 34.5q13 43 15 58q2 -5 11 -55q2 -13 8 -41t9 -43q3 -19 12 -72.5t13 -82.5l3 -21t4 -21q-42 0 -86 -3zM212 816l-4 4q27 21 52 6q22 -14 49 6l2 -5q-25 -21 -49 -8q-1 1 -4.5 3t-4.5 2.5l-4 2t-5 1.5t-5 0.5t-5.5 -0.5t-6 -2.5t-7.5 -4t-8 -5.5z" />
    <glyph glyph-name="uni1EAB" unicode="&#x1eab;" 
d="M305 759l-2 -5q-8 5 -24 17.5t-22 16.5q-7 -3 -23.5 -14t-28.5 -18l-1 6q11 6 27.5 17.5t25.5 15.5zM352 5v-5q56 -2 120 0v5h-53q-5 14 -8 30q-1 16 -7 35q-4 14 -14 45t-14 48q-45 179 -58 274q-4 29 -13 82.5t-12 72.5q-3 15 -9 43t-8 41q-1 6 -2.5 19.5t-4 24.5
t-7.5 19h-6l-1 -2v-2q0 -21 -15 -62q-3 -11 -6.5 -35t-7.5 -35q-6 -14 -15.5 -42.5t-14.5 -41.5q-16 -49 -36 -124l-1 -4l-15 -53q-25 -93 -40 -171q-6 -31 -19 -83q-11 -43 -17 -80q-6 2 -56 0v-5h117v5h-56q5 35 17 79q13 52 19 83q14 74 40 170l15 53q1 1 5 1
q5 0 12.5 -2t10.5 -2q3 -1 8 -1h8q5 0 14 0.5t13 0.5q1 0 35 1.5t51 1.5q11 -72 50 -227q5 -18 15 -50.5t13 -42.5q4 -13 6 -34q1 -17 8 -30h-61zM234 391q-4 0 -12.5 -0.5t-13.5 -0.5q-2 0 -7 0.5t-9 0.5q-21 3 -23 3h-4q22 88 36 123q5 14 14 42.5t15 42.5q4 12 8 35.5
t7 34.5q13 43 15 58q2 -5 11 -55q2 -13 8 -41t9 -43q3 -19 12 -72.5t13 -82.5l3 -21t4 -21q-42 0 -86 -3zM212 816l-4 4q27 21 52 6q22 -14 49 6l2 -5q-25 -21 -49 -8q-1 1 -4.5 3t-4.5 2.5l-4 2t-5 1.5t-5 0.5t-5.5 -0.5t-6 -2.5t-7.5 -4t-8 -5.5z" />
    <glyph glyph-name="uni1EAC" unicode="&#x1eac;" 
d="M235 -104q0 3 2 5t5 2t5 -2t2 -5q0 -2 -3 -5q-2 -2 -4 -2q-4 0 -6 3v2zM305 759l-2 -5q-8 5 -24 17.5t-22 16.5q-7 -3 -23.5 -14t-28.5 -18l-1 6q11 6 27.5 17.5t25.5 15.5zM352 5v-5q56 -2 120 0v5h-53q-5 14 -8 30q-1 16 -7 35q-4 14 -14 45t-14 48q-45 179 -58 274
q-4 29 -13 82.5t-12 72.5q-3 15 -9 43t-8 41q-1 6 -2.5 19.5t-4 24.5t-7.5 19h-6l-1 -2v-2q0 -21 -15 -62q-3 -11 -6.5 -35t-7.5 -35q-6 -14 -15.5 -42.5t-14.5 -41.5q-16 -49 -36 -124l-1 -4l-15 -53q-25 -93 -40 -171q-6 -31 -19 -83q-11 -43 -17 -80q-6 2 -56 0v-5h117v5
h-56q5 35 17 79q13 52 19 83q14 74 40 170l15 53q1 1 5 1q5 0 12.5 -2t10.5 -2q3 -1 8 -1h8q5 0 14 0.5t13 0.5q1 0 35 1.5t51 1.5q11 -72 50 -227q5 -18 15 -50.5t13 -42.5q4 -13 6 -34q1 -17 8 -30h-61zM234 391q-4 0 -12.5 -0.5t-13.5 -0.5q-2 0 -7 0.5t-9 0.5
q-21 3 -23 3h-4q22 88 36 123q5 14 14 42.5t15 42.5q4 12 8 35.5t7 34.5q13 43 15 58q2 -5 11 -55q2 -13 8 -41t9 -43q3 -19 12 -72.5t13 -82.5l3 -21t4 -21q-42 0 -86 -3z" />
    <glyph glyph-name="uni1EAD" unicode="&#x1ead;" 
d="M235 -104q0 3 2 5t5 2t5 -2t2 -5q0 -2 -3 -5q-2 -2 -4 -2q-4 0 -6 3v2zM305 759l-2 -5q-8 5 -24 17.5t-22 16.5q-7 -3 -23.5 -14t-28.5 -18l-1 6q11 6 27.5 17.5t25.5 15.5zM352 5v-5q56 -2 120 0v5h-53q-5 14 -8 30q-1 16 -7 35q-4 14 -14 45t-14 48q-45 179 -58 274
q-4 29 -13 82.5t-12 72.5q-3 15 -9 43t-8 41q-1 6 -2.5 19.5t-4 24.5t-7.5 19h-6l-1 -2v-2q0 -21 -15 -62q-3 -11 -6.5 -35t-7.5 -35q-6 -14 -15.5 -42.5t-14.5 -41.5q-16 -49 -36 -124l-1 -4l-15 -53q-25 -93 -40 -171q-6 -31 -19 -83q-11 -43 -17 -80q-6 2 -56 0v-5h117v5
h-56q5 35 17 79q13 52 19 83q14 74 40 170l15 53q1 1 5 1q5 0 12.5 -2t10.5 -2q3 -1 8 -1h8q5 0 14 0.5t13 0.5q1 0 35 1.5t51 1.5q11 -72 50 -227q5 -18 15 -50.5t13 -42.5q4 -13 6 -34q1 -17 8 -30h-61zM234 391q-4 0 -12.5 -0.5t-13.5 -0.5q-2 0 -7 0.5t-9 0.5
q-21 3 -23 3h-4q22 88 36 123q5 14 14 42.5t15 42.5q4 12 8 35.5t7 34.5q13 43 15 58q2 -5 11 -55q2 -13 8 -41t9 -43q3 -19 12 -72.5t13 -82.5l3 -21t4 -21q-42 0 -86 -3z" />
    <glyph glyph-name="uni1EAE" unicode="&#x1eae;" 
d="M352 0v5h61q-7 13 -8 30q-2 21 -6 34q-3 10 -13 42.5t-15 50.5q-39 155 -50 227q-13 0 -27 -0.5t-31.5 -1.5t-27.5 -1q-4 0 -13 -0.5t-14 -0.5h-8q-5 0 -8 1q-3 0 -10.5 2t-12.5 2q-4 0 -5 -1l-15 -53q-26 -96 -40 -170q-6 -31 -19 -83q-12 -44 -17 -79h56v-5h-117v5
q50 2 56 0q6 37 17 80q13 52 19 83q15 78 40 171l15 53l1 4q20 75 36 124q5 13 14.5 41.5t15.5 42.5q4 11 7.5 35t6.5 35q15 41 15 62v2l1 2h6q5 -8 7.5 -19t4 -24.5t2.5 -19.5q2 -13 8 -41t9 -43q3 -19 12 -72.5t13 -82.5q13 -95 58 -274q4 -17 14 -48t14 -45q6 -19 7 -35
q3 -16 8 -30h53v-5q-64 -2 -120 0zM234 391q43 3 86 3q-2 7 -4 21l-3 21q-4 29 -13 82.5t-12 72.5q-3 15 -9 43t-8 41q-9 50 -11 55q-2 -15 -15 -58q-3 -11 -7 -34.5t-8 -35.5q-6 -14 -15 -42.5t-14 -42.5q-14 -35 -36 -123h4q2 0 23 -3q4 0 9 -0.5t7 -0.5q5 0 13.5 0.5
t12.5 0.5zM258 767q-42 0 -60 40l5 2q5 -15 20.5 -26t34.5 -12q43 0 57 38l5 -2q-19 -40 -62 -40zM242 823l-1 6q22 12 46.5 22.5t47.5 23.5l2 -5q-22 -13 -47.5 -23.5t-47.5 -23.5z" />
    <glyph glyph-name="uni1EAF" unicode="&#x1eaf;" 
d="M352 0v5h61q-7 13 -8 30q-2 21 -6 34q-3 10 -13 42.5t-15 50.5q-39 155 -50 227q-13 0 -27 -0.5t-31.5 -1.5t-27.5 -1q-4 0 -13 -0.5t-14 -0.5h-8q-5 0 -8 1q-3 0 -10.5 2t-12.5 2q-4 0 -5 -1l-15 -53q-26 -96 -40 -170q-6 -31 -19 -83q-12 -44 -17 -79h56v-5h-117v5
q50 2 56 0q6 37 17 80q13 52 19 83q15 78 40 171l15 53l1 4q20 75 36 124q5 13 14.5 41.5t15.5 42.5q4 11 7.5 35t6.5 35q15 41 15 62v2l1 2h6q5 -8 7.5 -19t4 -24.5t2.5 -19.5q2 -13 8 -41t9 -43q3 -19 12 -72.5t13 -82.5q13 -95 58 -274q4 -17 14 -48t14 -45q6 -19 7 -35
q3 -16 8 -30h53v-5q-64 -2 -120 0zM234 391q43 3 86 3q-2 7 -4 21l-3 21q-4 29 -13 82.5t-12 72.5q-3 15 -9 43t-8 41q-9 50 -11 55q-2 -15 -15 -58q-3 -11 -7 -34.5t-8 -35.5q-6 -14 -15 -42.5t-14 -42.5q-14 -35 -36 -123h4q2 0 23 -3q4 0 9 -0.5t7 -0.5q5 0 13.5 0.5
t12.5 0.5zM258 767q-42 0 -60 40l5 2q5 -15 20.5 -26t34.5 -12q43 0 57 38l5 -2q-19 -40 -62 -40zM242 823l-1 6q22 12 46.5 22.5t47.5 23.5l2 -5q-22 -13 -47.5 -23.5t-47.5 -23.5z" />
    <glyph glyph-name="uni1EB0" unicode="&#x1eb0;" 
d="M288 813l-1 -6q-22 13 -47.5 23.5t-47.5 23.5l2 5q23 -13 47.5 -23.5t46.5 -22.5zM352 0v5h61q-7 13 -8 30q-2 21 -6 34q-3 10 -13 42.5t-15 50.5q-39 155 -50 227q-13 0 -27 -0.5t-31.5 -1.5t-27.5 -1q-4 0 -13 -0.5t-14 -0.5h-8q-5 0 -8 1q-3 0 -10.5 2t-12.5 2
q-4 0 -5 -1l-15 -53q-26 -96 -40 -170q-6 -31 -19 -83q-12 -44 -17 -79h56v-5h-117v5q50 2 56 0q6 37 17 80q13 52 19 83q15 78 40 171l15 53l1 4q20 75 36 124q5 13 14.5 41.5t15.5 42.5q4 11 7.5 35t6.5 35q15 41 15 62v2l1 2h6q5 -8 7.5 -19t4 -24.5t2.5 -19.5
q2 -13 8 -41t9 -43q3 -19 12 -72.5t13 -82.5q13 -95 58 -274q4 -17 14 -48t14 -45q6 -19 7 -35q3 -16 8 -30h53v-5q-64 -2 -120 0zM234 391q43 3 86 3q-2 7 -4 21l-3 21q-4 29 -13 82.5t-12 72.5q-3 15 -9 43t-8 41q-9 50 -11 55q-2 -15 -15 -58q-3 -11 -7 -34.5t-8 -35.5
q-6 -14 -15 -42.5t-14 -42.5q-14 -35 -36 -123h4q2 0 23 -3q4 0 9 -0.5t7 -0.5q5 0 13.5 0.5t12.5 0.5zM258 767q-42 0 -60 40l5 2q5 -15 20.5 -26t34.5 -12q43 0 57 38l5 -2q-19 -40 -62 -40z" />
    <glyph glyph-name="uni1EB1" unicode="&#x1eb1;" 
d="M288 813l-1 -6q-22 13 -47.5 23.5t-47.5 23.5l2 5q23 -13 47.5 -23.5t46.5 -22.5zM352 0v5h61q-7 13 -8 30q-2 21 -6 34q-3 10 -13 42.5t-15 50.5q-39 155 -50 227q-13 0 -27 -0.5t-31.5 -1.5t-27.5 -1q-4 0 -13 -0.5t-14 -0.5h-8q-5 0 -8 1q-3 0 -10.5 2t-12.5 2
q-4 0 -5 -1l-15 -53q-26 -96 -40 -170q-6 -31 -19 -83q-12 -44 -17 -79h56v-5h-117v5q50 2 56 0q6 37 17 80q13 52 19 83q15 78 40 171l15 53l1 4q20 75 36 124q5 13 14.5 41.5t15.5 42.5q4 11 7.5 35t6.5 35q15 41 15 62v2l1 2h6q5 -8 7.5 -19t4 -24.5t2.5 -19.5
q2 -13 8 -41t9 -43q3 -19 12 -72.5t13 -82.5q13 -95 58 -274q4 -17 14 -48t14 -45q6 -19 7 -35q3 -16 8 -30h53v-5q-64 -2 -120 0zM234 391q43 3 86 3q-2 7 -4 21l-3 21q-4 29 -13 82.5t-12 72.5q-3 15 -9 43t-8 41q-9 50 -11 55q-2 -15 -15 -58q-3 -11 -7 -34.5t-8 -35.5
q-6 -14 -15 -42.5t-14 -42.5q-14 -35 -36 -123h4q2 0 23 -3q4 0 9 -0.5t7 -0.5q5 0 13.5 0.5t12.5 0.5zM258 767q-42 0 -60 40l5 2q5 -15 20.5 -26t34.5 -12q43 0 57 38l5 -2q-19 -40 -62 -40z" />
    <glyph glyph-name="uni1EB2" unicode="&#x1eb2;" 
d="M352 0v5h61q-7 13 -8 30q-2 21 -6 34q-3 10 -13 42.5t-15 50.5q-39 155 -50 227q-13 0 -27 -0.5t-31.5 -1.5t-27.5 -1q-4 0 -13 -0.5t-14 -0.5h-8q-5 0 -8 1q-3 0 -10.5 2t-12.5 2q-4 0 -5 -1l-15 -53q-26 -96 -40 -170q-6 -31 -19 -83q-12 -44 -17 -79h56v-5h-117v5
q50 2 56 0q6 37 17 80q13 52 19 83q15 78 40 171l15 53l1 4q20 75 36 124q5 13 14.5 41.5t15.5 42.5q4 11 7.5 35t6.5 35q15 41 15 62v2l1 2h6q5 -8 7.5 -19t4 -24.5t2.5 -19.5q2 -13 8 -41t9 -43q3 -19 12 -72.5t13 -82.5q13 -95 58 -274q4 -17 14 -48t14 -45q6 -19 7 -35
q3 -16 8 -30h53v-5q-64 -2 -120 0zM234 391q43 3 86 3q-2 7 -4 21l-3 21q-4 29 -13 82.5t-12 72.5q-3 15 -9 43t-8 41q-9 50 -11 55q-2 -15 -15 -58q-3 -11 -7 -34.5t-8 -35.5q-6 -14 -15 -42.5t-14 -42.5q-14 -35 -36 -123h4q2 0 23 -3q4 0 9 -0.5t7 -0.5q5 0 13.5 0.5
t12.5 0.5zM258 767q-42 0 -60 40l5 2q5 -15 20.5 -26t34.5 -12q43 0 57 38l5 -2q-19 -40 -62 -40zM270 820h-3q-8 0 11 29q3 5 7 9q6 9 6 18q0 6 -1 8q-1 7 -6 10q-4 3 -12 3q-3 0 -9 -2t-8 -3q-3 -2 -5 -5q-2 -4 -2 -6v-10l-5 1v10q2 11 9 15q12 6 21 6t14 -4q9 -5 9 -20
q0 -13 -7 -25q-2 -3 -7 -10t-8 -12.5t-4 -11.5z" />
    <glyph glyph-name="uni1EB3" unicode="&#x1eb3;" 
d="M352 0v5h61q-7 13 -8 30q-2 21 -6 34q-3 10 -13 42.5t-15 50.5q-39 155 -50 227q-13 0 -27 -0.5t-31.5 -1.5t-27.5 -1q-4 0 -13 -0.5t-14 -0.5h-8q-5 0 -8 1q-3 0 -10.5 2t-12.5 2q-4 0 -5 -1l-15 -53q-26 -96 -40 -170q-6 -31 -19 -83q-12 -44 -17 -79h56v-5h-117v5
q50 2 56 0q6 37 17 80q13 52 19 83q15 78 40 171l15 53l1 4q20 75 36 124q5 13 14.5 41.5t15.5 42.5q4 11 7.5 35t6.5 35q15 41 15 62v2l1 2h6q5 -8 7.5 -19t4 -24.5t2.5 -19.5q2 -13 8 -41t9 -43q3 -19 12 -72.5t13 -82.5q13 -95 58 -274q4 -17 14 -48t14 -45q6 -19 7 -35
q3 -16 8 -30h53v-5q-64 -2 -120 0zM234 391q43 3 86 3q-2 7 -4 21l-3 21q-4 29 -13 82.5t-12 72.5q-3 15 -9 43t-8 41q-9 50 -11 55q-2 -15 -15 -58q-3 -11 -7 -34.5t-8 -35.5q-6 -14 -15 -42.5t-14 -42.5q-14 -35 -36 -123h4q2 0 23 -3q4 0 9 -0.5t7 -0.5q5 0 13.5 0.5
t12.5 0.5zM258 767q-42 0 -60 40l5 2q5 -15 20.5 -26t34.5 -12q43 0 57 38l5 -2q-19 -40 -62 -40zM270 820h-3q-8 0 11 29q3 5 7 9q6 9 6 18q0 6 -1 8q-1 7 -6 10q-4 3 -12 3q-3 0 -9 -2t-8 -3q-3 -2 -5 -5q-2 -4 -2 -6v-10l-5 1v10q2 11 9 15q12 6 21 6t14 -4q9 -5 9 -20
q0 -13 -7 -25q-2 -3 -7 -10t-8 -12.5t-4 -11.5z" />
    <glyph glyph-name="uni1EB4" unicode="&#x1eb4;" 
d="M352 0v5h61q-7 13 -8 30q-2 21 -6 34q-3 10 -13 42.5t-15 50.5q-39 155 -50 227q-13 0 -27 -0.5t-31.5 -1.5t-27.5 -1q-4 0 -13 -0.5t-14 -0.5h-8q-5 0 -8 1q-3 0 -10.5 2t-12.5 2q-4 0 -5 -1l-15 -53q-26 -96 -40 -170q-6 -31 -19 -83q-12 -44 -17 -79h56v-5h-117v5
q50 2 56 0q6 37 17 80q13 52 19 83q15 78 40 171l15 53l1 4q20 75 36 124q5 13 14.5 41.5t15.5 42.5q4 11 7.5 35t6.5 35q15 41 15 62v2l1 2h6q5 -8 7.5 -19t4 -24.5t2.5 -19.5q2 -13 8 -41t9 -43q3 -19 12 -72.5t13 -82.5q13 -95 58 -274q4 -17 14 -48t14 -45q6 -19 7 -35
q3 -16 8 -30h53v-5q-64 -2 -120 0zM234 391q43 3 86 3q-2 7 -4 21l-3 21q-4 29 -13 82.5t-12 72.5q-3 15 -9 43t-8 41q-9 50 -11 55q-2 -15 -15 -58q-3 -11 -7 -34.5t-8 -35.5q-6 -14 -15 -42.5t-14 -42.5q-14 -35 -36 -123h4q2 0 23 -3q4 0 9 -0.5t7 -0.5q5 0 13.5 0.5
t12.5 0.5zM258 767q-42 0 -60 40l5 2q5 -15 20.5 -26t34.5 -12q43 0 57 38l5 -2q-19 -40 -62 -40zM199 842l-6 5q35 29 68 8q28 -19 63 8l2 -6q-32 -29 -63 -11q-1 0 -6.5 4t-6.5 4.5t-6 2.5t-7.5 1.5t-7.5 -0.5t-9 -2t-9.5 -5.5t-11.5 -8.5z" />
    <glyph glyph-name="uni1EB5" unicode="&#x1eb5;" 
d="M352 0v5h61q-7 13 -8 30q-2 21 -6 34q-3 10 -13 42.5t-15 50.5q-39 155 -50 227q-13 0 -27 -0.5t-31.5 -1.5t-27.5 -1q-4 0 -13 -0.5t-14 -0.5h-8q-5 0 -8 1q-3 0 -10.5 2t-12.5 2q-4 0 -5 -1l-15 -53q-26 -96 -40 -170q-6 -31 -19 -83q-12 -44 -17 -79h56v-5h-117v5
q50 2 56 0q6 37 17 80q13 52 19 83q15 78 40 171l15 53l1 4q20 75 36 124q5 13 14.5 41.5t15.5 42.5q4 11 7.5 35t6.5 35q15 41 15 62v2l1 2h6q5 -8 7.5 -19t4 -24.5t2.5 -19.5q2 -13 8 -41t9 -43q3 -19 12 -72.5t13 -82.5q13 -95 58 -274q4 -17 14 -48t14 -45q6 -19 7 -35
q3 -16 8 -30h53v-5q-64 -2 -120 0zM234 391q43 3 86 3q-2 7 -4 21l-3 21q-4 29 -13 82.5t-12 72.5q-3 15 -9 43t-8 41q-9 50 -11 55q-2 -15 -15 -58q-3 -11 -7 -34.5t-8 -35.5q-6 -14 -15 -42.5t-14 -42.5q-14 -35 -36 -123h4q2 0 23 -3q4 0 9 -0.5t7 -0.5q5 0 13.5 0.5
t12.5 0.5zM258 767q-42 0 -60 40l5 2q5 -15 20.5 -26t34.5 -12q43 0 57 38l5 -2q-19 -40 -62 -40zM199 842l-6 5q35 29 68 8q28 -19 63 8l2 -6q-32 -29 -63 -11q-1 0 -6.5 4t-6.5 4.5t-6 2.5t-7.5 1.5t-7.5 -0.5t-9 -2t-9.5 -5.5t-11.5 -8.5z" />
    <glyph glyph-name="uni1EB6" unicode="&#x1eb6;" 
d="M235 -104q0 3 2 5t5 2t5 -2t2 -5q0 -2 -3 -5q-2 -2 -4 -2q-4 0 -6 3v2zM352 0v5h61q-7 13 -8 30q-2 21 -6 34q-3 10 -13 42.5t-15 50.5q-39 155 -50 227q-13 0 -27 -0.5t-31.5 -1.5t-27.5 -1q-4 0 -13 -0.5t-14 -0.5h-8q-5 0 -8 1q-3 0 -10.5 2t-12.5 2q-4 0 -5 -1
l-15 -53q-26 -96 -40 -170q-6 -31 -19 -83q-12 -44 -17 -79h56v-5h-117v5q50 2 56 0q6 37 17 80q13 52 19 83q15 78 40 171l15 53l1 4q20 75 36 124q5 13 14.5 41.5t15.5 42.5q4 11 7.5 35t6.5 35q15 41 15 62v2l1 2h6q5 -8 7.5 -19t4 -24.5t2.5 -19.5q2 -13 8 -41t9 -43
q3 -19 12 -72.5t13 -82.5q13 -95 58 -274q4 -17 14 -48t14 -45q6 -19 7 -35q3 -16 8 -30h53v-5q-64 -2 -120 0zM234 391q43 3 86 3q-2 7 -4 21l-3 21q-4 29 -13 82.5t-12 72.5q-3 15 -9 43t-8 41q-9 50 -11 55q-2 -15 -15 -58q-3 -11 -7 -34.5t-8 -35.5q-6 -14 -15 -42.5
t-14 -42.5q-14 -35 -36 -123h4q2 0 23 -3q4 0 9 -0.5t7 -0.5q5 0 13.5 0.5t12.5 0.5zM258 767q-42 0 -60 40l5 2q5 -15 20.5 -26t34.5 -12q43 0 57 38l5 -2q-19 -40 -62 -40z" />
    <glyph glyph-name="uni1EB7" unicode="&#x1eb7;" 
d="M235 -104q0 3 2 5t5 2t5 -2t2 -5q0 -2 -3 -5q-2 -2 -4 -2q-4 0 -6 3v2zM352 0v5h61q-7 13 -8 30q-2 21 -6 34q-3 10 -13 42.5t-15 50.5q-39 155 -50 227q-13 0 -27 -0.5t-31.5 -1.5t-27.5 -1q-4 0 -13 -0.5t-14 -0.5h-8q-5 0 -8 1q-3 0 -10.5 2t-12.5 2q-4 0 -5 -1
l-15 -53q-26 -96 -40 -170q-6 -31 -19 -83q-12 -44 -17 -79h56v-5h-117v5q50 2 56 0q6 37 17 80q13 52 19 83q15 78 40 171l15 53l1 4q20 75 36 124q5 13 14.5 41.5t15.5 42.5q4 11 7.5 35t6.5 35q15 41 15 62v2l1 2h6q5 -8 7.5 -19t4 -24.5t2.5 -19.5q2 -13 8 -41t9 -43
q3 -19 12 -72.5t13 -82.5q13 -95 58 -274q4 -17 14 -48t14 -45q6 -19 7 -35q3 -16 8 -30h53v-5q-64 -2 -120 0zM234 391q43 3 86 3q-2 7 -4 21l-3 21q-4 29 -13 82.5t-12 72.5q-3 15 -9 43t-8 41q-9 50 -11 55q-2 -15 -15 -58q-3 -11 -7 -34.5t-8 -35.5q-6 -14 -15 -42.5
t-14 -42.5q-14 -35 -36 -123h4q2 0 23 -3q4 0 9 -0.5t7 -0.5q5 0 13.5 0.5t12.5 0.5zM258 767q-42 0 -60 40l5 2q5 -15 20.5 -26t34.5 -12q43 0 57 38l5 -2q-19 -40 -62 -40z" />
    <glyph glyph-name="uni1EB8" unicode="&#x1eb8;" horiz-adv-x="398" 
d="M13 731v6h94q10 0 29.5 -0.5t29.5 -0.5h43q14 0 44 -2l56 -3q2 -1 7 -1h9q6 0 9 -1h2h3q2 0 3 1v-83h-6v75q-1 0 -2 1q-3 1 -9 1q-14 0 -17 1l-56 3q-44 3 -86 3q-10 0 -29.5 0.5t-29.5 0.5h-17q-1 -11 -1 -34v-34q0 -12 -2 -36t-3 -37v-34q0 -23 -1 -34v-11q0 -40 4 -71
h9q8 0 10 1q25 5 42 5l57 4h34q6 0 16 -2q4 -1 14 -1h33v61h6v-125h-6v58q-42 0 -48 1q-10 2 -16 2h-33l-57 -4q-21 0 -41 -4q-2 -1 -19 -1q0 -11 1 -14q0 -8 0.5 -24t0.5 -24q0 -18 -1 -56t-1 -58v-32q0 -87 -3 -131q-2 -34 -2 -51v-31q0 -4 -1 -7q3 1 8 1h10l75 1
q6 0 16 -0.5t14 -0.5q48 0 89 4h16q5 1 14 1v85h6v-90h-6l-13 -1q-6 -1 -17 -1q-41 -4 -89 -4q-5 0 -15 0.5t-15 0.5l-75 -1h-20q-24 -2 -65 0v5h61q1 3 1 6v32q0 14 2 52q4 43 4 130v32q0 20 1 58t1 56q0 8 -0.5 24t-0.5 23l-2 19q-6 46 -6 72q0 2 0.5 5.5t0.5 5.5
q1 11 1 34v35q1 13 3.5 36.5t2.5 35.5v34v33h-71zM192 -104q0 3 2 5t5 2t5 -2t2 -5q0 -2 -3 -5q-2 -2 -4 -2q-5 0 -6 3q0 1 -1 4z" />
    <glyph glyph-name="uni1EB9" unicode="&#x1eb9;" horiz-adv-x="398" 
d="M13 731v6h94q10 0 29.5 -0.5t29.5 -0.5h43q14 0 44 -2l56 -3q2 -1 7 -1h9q6 0 9 -1h2h3q2 0 3 1v-83h-6v75q-1 0 -2 1q-3 1 -9 1q-14 0 -17 1l-56 3q-44 3 -86 3q-10 0 -29.5 0.5t-29.5 0.5h-17q-1 -11 -1 -34v-34q0 -12 -2 -36t-3 -37v-34q0 -23 -1 -34v-11q0 -40 4 -71
h9q8 0 10 1q25 5 42 5l57 4h34q6 0 16 -2q4 -1 14 -1h33v61h6v-125h-6v58q-42 0 -48 1q-10 2 -16 2h-33l-57 -4q-21 0 -41 -4q-2 -1 -19 -1q0 -11 1 -14q0 -8 0.5 -24t0.5 -24q0 -18 -1 -56t-1 -58v-32q0 -87 -3 -131q-2 -34 -2 -51v-31q0 -4 -1 -7q3 1 8 1h10l75 1
q6 0 16 -0.5t14 -0.5q48 0 89 4h16q5 1 14 1v85h6v-90h-6l-13 -1q-6 -1 -17 -1q-41 -4 -89 -4q-5 0 -15 0.5t-15 0.5l-75 -1h-20q-24 -2 -65 0v5h61q1 3 1 6v32q0 14 2 52q4 43 4 130v32q0 20 1 58t1 56q0 8 -0.5 24t-0.5 23l-2 19q-6 46 -6 72q0 2 0.5 5.5t0.5 5.5
q1 11 1 34v35q1 13 3.5 36.5t2.5 35.5v34v33h-71zM192 -104q0 3 2 5t5 2t5 -2t2 -5q0 -2 -3 -5q-2 -2 -4 -2q-5 0 -6 3q0 1 -1 4z" />
    <glyph glyph-name="uni1EBA" unicode="&#x1eba;" horiz-adv-x="398" 
d="M13 731v6h94q10 0 29.5 -0.5t29.5 -0.5h43q14 0 44 -2l56 -3q2 -1 7 -1h9q6 0 9 -1h2h3q2 0 3 1v-83h-6v75q-1 0 -2 1q-3 1 -9 1q-14 0 -17 1l-56 3q-44 3 -86 3q-10 0 -29.5 0.5t-29.5 0.5h-17q-1 -11 -1 -34v-34q0 -12 -2 -36t-3 -37v-34q0 -23 -1 -34v-11q0 -40 4 -71
h9q8 0 10 1q25 5 42 5l57 4h34q6 0 16 -2q4 -1 14 -1h33v61h6v-125h-6v58q-42 0 -48 1q-10 2 -16 2h-33l-57 -4q-21 0 -41 -4q-2 -1 -19 -1q0 -11 1 -14q0 -8 0.5 -24t0.5 -24q0 -18 -1 -56t-1 -58v-32q0 -87 -3 -131q-2 -34 -2 -51v-31q0 -4 -1 -7q3 1 8 1h10l75 1
q6 0 16 -0.5t14 -0.5q48 0 89 4h16q5 1 14 1v85h6v-90h-6l-13 -1q-6 -1 -17 -1q-41 -4 -89 -4q-5 0 -15 0.5t-15 0.5l-75 -1h-20q-24 -2 -65 0v5h61q1 3 1 6v32q0 14 2 52q4 43 4 130v32q0 20 1 58t1 56q0 8 -0.5 24t-0.5 23l-2 19q-6 46 -6 72q0 2 0.5 5.5t0.5 5.5
q1 11 1 34v35q1 13 3.5 36.5t2.5 35.5v34v33h-71zM200 763h-3q-8 0 11 29q3 5 7 9q6 9 6 18q0 6 -1 8q-1 7 -6 10q-4 3 -12 3q-3 0 -9 -2t-8 -3q-3 -2 -5 -5q-2 -4 -2 -6v-10l-5 1v10q2 11 9 15q12 6 21 6t14 -4q9 -5 9 -20q0 -13 -7 -25q-2 -3 -7 -10t-8 -12.5t-4 -11.5z
" />
    <glyph glyph-name="uni1EBB" unicode="&#x1ebb;" horiz-adv-x="398" 
d="M13 731v6h94q10 0 29.5 -0.5t29.5 -0.5h43q14 0 44 -2l56 -3q2 -1 7 -1h9q6 0 9 -1h2h3q2 0 3 1v-83h-6v75q-1 0 -2 1q-3 1 -9 1q-14 0 -17 1l-56 3q-44 3 -86 3q-10 0 -29.5 0.5t-29.5 0.5h-17q-1 -11 -1 -34v-34q0 -12 -2 -36t-3 -37v-34q0 -23 -1 -34v-11q0 -40 4 -71
h9q8 0 10 1q25 5 42 5l57 4h34q6 0 16 -2q4 -1 14 -1h33v61h6v-125h-6v58q-42 0 -48 1q-10 2 -16 2h-33l-57 -4q-21 0 -41 -4q-2 -1 -19 -1q0 -11 1 -14q0 -8 0.5 -24t0.5 -24q0 -18 -1 -56t-1 -58v-32q0 -87 -3 -131q-2 -34 -2 -51v-31q0 -4 -1 -7q3 1 8 1h10l75 1
q6 0 16 -0.5t14 -0.5q48 0 89 4h16q5 1 14 1v85h6v-90h-6l-13 -1q-6 -1 -17 -1q-41 -4 -89 -4q-5 0 -15 0.5t-15 0.5l-75 -1h-20q-24 -2 -65 0v5h61q1 3 1 6v32q0 14 2 52q4 43 4 130v32q0 20 1 58t1 56q0 8 -0.5 24t-0.5 23l-2 19q-6 46 -6 72q0 2 0.5 5.5t0.5 5.5
q1 11 1 34v35q1 13 3.5 36.5t2.5 35.5v34v33h-71zM200 763h-3q-8 0 11 29q3 5 7 9q6 9 6 18q0 6 -1 8q-1 7 -6 10q-4 3 -12 3q-3 0 -9 -2t-8 -3q-3 -2 -5 -5q-2 -4 -2 -6v-10l-5 1v10q2 11 9 15q12 6 21 6t14 -4q9 -5 9 -20q0 -13 -7 -25q-2 -3 -7 -10t-8 -12.5t-4 -11.5z
" />
    <glyph glyph-name="uni1EBC" unicode="&#x1ebc;" horiz-adv-x="398" 
d="M112 777l-5 5q44 37 74 27q10 -3 31.5 -19t36.5 -18q23 -3 57 21l2 -6q-32 -23 -57 -21q-16 1 -40 18t-33 20q-26 9 -66 -27zM13 731v6h94q10 0 29.5 -0.5t29.5 -0.5h43q14 0 44 -2l56 -3q2 -1 7 -1h9q6 0 9 -1h2h3q2 0 3 1v-83h-6v75q-1 0 -2 1q-3 1 -9 1q-14 0 -17 1
l-56 3q-44 3 -86 3q-10 0 -29.5 0.5t-29.5 0.5h-17q-1 -11 -1 -34v-34q0 -12 -2 -36t-3 -37v-34q0 -23 -1 -34v-11q0 -40 4 -71h9q8 0 10 1q25 5 42 5l57 4h34q6 0 16 -2q4 -1 14 -1h33v61h6v-125h-6v58q-42 0 -48 1q-10 2 -16 2h-33l-57 -4q-21 0 -41 -4q-2 -1 -19 -1
q0 -11 1 -14q0 -8 0.5 -24t0.5 -24q0 -18 -1 -56t-1 -58v-32q0 -87 -3 -131q-2 -34 -2 -51v-31q0 -4 -1 -7q3 1 8 1h10l75 1q6 0 16 -0.5t14 -0.5q48 0 89 4h16q5 1 14 1v85h6v-90h-6l-13 -1q-6 -1 -17 -1q-41 -4 -89 -4q-5 0 -15 0.5t-15 0.5l-75 -1h-20q-24 -2 -65 0v5h61
q1 3 1 6v32q0 14 2 52q4 43 4 130v32q0 20 1 58t1 56q0 8 -0.5 24t-0.5 23l-2 19q-6 46 -6 72q0 2 0.5 5.5t0.5 5.5q1 11 1 34v35q1 13 3.5 36.5t2.5 35.5v34v33h-71z" />
    <glyph glyph-name="uni1EBD" unicode="&#x1ebd;" horiz-adv-x="398" 
d="M112 777l-5 5q44 37 74 27q10 -3 31.5 -19t36.5 -18q23 -3 57 21l2 -6q-32 -23 -57 -21q-16 1 -40 18t-33 20q-26 9 -66 -27zM13 731v6h94q10 0 29.5 -0.5t29.5 -0.5h43q14 0 44 -2l56 -3q2 -1 7 -1h9q6 0 9 -1h2h3q2 0 3 1v-83h-6v75q-1 0 -2 1q-3 1 -9 1q-14 0 -17 1
l-56 3q-44 3 -86 3q-10 0 -29.5 0.5t-29.5 0.5h-17q-1 -11 -1 -34v-34q0 -12 -2 -36t-3 -37v-34q0 -23 -1 -34v-11q0 -40 4 -71h9q8 0 10 1q25 5 42 5l57 4h34q6 0 16 -2q4 -1 14 -1h33v61h6v-125h-6v58q-42 0 -48 1q-10 2 -16 2h-33l-57 -4q-21 0 -41 -4q-2 -1 -19 -1
q0 -11 1 -14q0 -8 0.5 -24t0.5 -24q0 -18 -1 -56t-1 -58v-32q0 -87 -3 -131q-2 -34 -2 -51v-31q0 -4 -1 -7q3 1 8 1h10l75 1q6 0 16 -0.5t14 -0.5q48 0 89 4h16q5 1 14 1v85h6v-90h-6l-13 -1q-6 -1 -17 -1q-41 -4 -89 -4q-5 0 -15 0.5t-15 0.5l-75 -1h-20q-24 -2 -65 0v5h61
q1 3 1 6v32q0 14 2 52q4 43 4 130v32q0 20 1 58t1 56q0 8 -0.5 24t-0.5 23l-2 19q-6 46 -6 72q0 2 0.5 5.5t0.5 5.5q1 11 1 34v35q1 13 3.5 36.5t2.5 35.5v34v33h-71z" />
    <glyph glyph-name="uni1EBE" unicode="&#x1ebe;" horiz-adv-x="398" 
d="M261 777l-2 -5q-35 25 -63 43q-7 -3 -32.5 -20.5t-37.5 -24.5l-1 6q11 6 36.5 23.5t34.5 21.5zM13 737v-6h71v-33v-34q0 -12 -2.5 -35.5t-3.5 -36.5v-35t-1 -34q0 -2 -0.5 -5.5t-0.5 -5.5q0 -26 6 -72l2 -19q0 -7 0.5 -23t0.5 -24q0 -18 -1 -56t-1 -58v-32q0 -87 -4 -130
q-2 -38 -2 -52v-32q0 -3 -1 -6h-61v-5q41 -2 65 0h20l75 1q5 0 15 -0.5t15 -0.5q48 0 89 4q11 0 17 1l13 1h6v90h-6v-85q-9 0 -14 -1h-16q-41 -4 -89 -4q-4 0 -14 0.5t-16 0.5l-75 -1h-10q-5 0 -8 -1q1 3 1 7v31q0 17 2 51q3 44 3 131v32q0 20 1 58t1 56q0 8 -0.5 24
t-0.5 24q-1 3 -1 14q17 0 19 1q20 4 41 4l57 4h33q6 0 16 -2q6 -1 48 -1v-58h6v125h-6v-61h-33q-10 0 -14 1q-10 2 -16 2h-34l-57 -4q-17 0 -42 -5q-2 -1 -10 -1h-9q-4 31 -4 71v11q1 11 1 34v34q1 13 3 37t2 36v34q0 23 1 34h17q10 0 29.5 -0.5t29.5 -0.5q43 0 86 -3l56 -3
q3 -1 17 -1q6 0 9 -1q1 -1 2 -1v-75h6v83q-1 -1 -3 -1h-3h-2q-3 1 -9 1h-9q-5 0 -7 1l-56 3q-30 2 -44 2h-43q-10 0 -29.5 0.5t-29.5 0.5h-94zM157 826l-1 6q22 12 46.5 22.5t47.5 23.5l2 -5q-22 -13 -47.5 -23.5t-47.5 -23.5z" />
    <glyph glyph-name="uni1EBF" unicode="&#x1ebf;" horiz-adv-x="398" 
d="M261 777l-2 -5q-35 25 -63 43q-7 -3 -32.5 -20.5t-37.5 -24.5l-1 6q11 6 36.5 23.5t34.5 21.5zM13 737v-6h71v-33v-34q0 -12 -2.5 -35.5t-3.5 -36.5v-35t-1 -34q0 -2 -0.5 -5.5t-0.5 -5.5q0 -26 6 -72l2 -19q0 -7 0.5 -23t0.5 -24q0 -18 -1 -56t-1 -58v-32q0 -87 -4 -130
q-2 -38 -2 -52v-32q0 -3 -1 -6h-61v-5q41 -2 65 0h20l75 1q5 0 15 -0.5t15 -0.5q48 0 89 4q11 0 17 1l13 1h6v90h-6v-85q-9 0 -14 -1h-16q-41 -4 -89 -4q-4 0 -14 0.5t-16 0.5l-75 -1h-10q-5 0 -8 -1q1 3 1 7v31q0 17 2 51q3 44 3 131v32q0 20 1 58t1 56q0 8 -0.5 24
t-0.5 24q-1 3 -1 14q17 0 19 1q20 4 41 4l57 4h33q6 0 16 -2q6 -1 48 -1v-58h6v125h-6v-61h-33q-10 0 -14 1q-10 2 -16 2h-34l-57 -4q-17 0 -42 -5q-2 -1 -10 -1h-9q-4 31 -4 71v11q1 11 1 34v34q1 13 3 37t2 36v34q0 23 1 34h17q10 0 29.5 -0.5t29.5 -0.5q43 0 86 -3l56 -3
q3 -1 17 -1q6 0 9 -1q1 -1 2 -1v-75h6v83q-1 -1 -3 -1h-3h-2q-3 1 -9 1h-9q-5 0 -7 1l-56 3q-30 2 -44 2h-43q-10 0 -29.5 0.5t-29.5 0.5h-94zM157 826l-1 6q22 12 46.5 22.5t47.5 23.5l2 -5q-22 -13 -47.5 -23.5t-47.5 -23.5z" />
    <glyph glyph-name="uni1EC0" unicode="&#x1ec0;" horiz-adv-x="398" 
d="M243 830l-1 -6q-22 13 -47.5 23.5t-47.5 23.5l2 5q23 -13 47.5 -23.5t46.5 -22.5zM261 777l-2 -5q-35 25 -63 43q-7 -3 -32.5 -20.5t-37.5 -24.5l-1 6q11 6 36.5 23.5t34.5 21.5zM13 737v-6h71v-33v-34q0 -12 -2.5 -35.5t-3.5 -36.5v-35t-1 -34q0 -2 -0.5 -5.5t-0.5 -5.5
q0 -26 6 -72l2 -19q0 -7 0.5 -23t0.5 -24q0 -18 -1 -56t-1 -58v-32q0 -87 -4 -130q-2 -38 -2 -52v-32q0 -3 -1 -6h-61v-5q41 -2 65 0h20l75 1q5 0 15 -0.5t15 -0.5q48 0 89 4q11 0 17 1l13 1h6v90h-6v-85q-9 0 -14 -1h-16q-41 -4 -89 -4q-4 0 -14 0.5t-16 0.5l-75 -1h-10
q-5 0 -8 -1q1 3 1 7v31q0 17 2 51q3 44 3 131v32q0 20 1 58t1 56q0 8 -0.5 24t-0.5 24q-1 3 -1 14q17 0 19 1q20 4 41 4l57 4h33q6 0 16 -2q6 -1 48 -1v-58h6v125h-6v-61h-33q-10 0 -14 1q-10 2 -16 2h-34l-57 -4q-17 0 -42 -5q-2 -1 -10 -1h-9q-4 31 -4 71v11q1 11 1 34v34
q1 13 3 37t2 36v34q0 23 1 34h17q10 0 29.5 -0.5t29.5 -0.5q43 0 86 -3l56 -3q3 -1 17 -1q6 0 9 -1q1 -1 2 -1v-75h6v83q-1 -1 -3 -1h-3h-2q-3 1 -9 1h-9q-5 0 -7 1l-56 3q-30 2 -44 2h-43q-10 0 -29.5 0.5t-29.5 0.5h-94z" />
    <glyph glyph-name="uni1EC1" unicode="&#x1ec1;" horiz-adv-x="398" 
d="M243 830l-1 -6q-22 13 -47.5 23.5t-47.5 23.5l2 5q23 -13 47.5 -23.5t46.5 -22.5zM261 777l-2 -5q-35 25 -63 43q-7 -3 -32.5 -20.5t-37.5 -24.5l-1 6q11 6 36.5 23.5t34.5 21.5zM13 737v-6h71v-33v-34q0 -12 -2.5 -35.5t-3.5 -36.5v-35t-1 -34q0 -2 -0.5 -5.5t-0.5 -5.5
q0 -26 6 -72l2 -19q0 -7 0.5 -23t0.5 -24q0 -18 -1 -56t-1 -58v-32q0 -87 -4 -130q-2 -38 -2 -52v-32q0 -3 -1 -6h-61v-5q41 -2 65 0h20l75 1q5 0 15 -0.5t15 -0.5q48 0 89 4q11 0 17 1l13 1h6v90h-6v-85q-9 0 -14 -1h-16q-41 -4 -89 -4q-4 0 -14 0.5t-16 0.5l-75 -1h-10
q-5 0 -8 -1q1 3 1 7v31q0 17 2 51q3 44 3 131v32q0 20 1 58t1 56q0 8 -0.5 24t-0.5 24q-1 3 -1 14q17 0 19 1q20 4 41 4l57 4h33q6 0 16 -2q6 -1 48 -1v-58h6v125h-6v-61h-33q-10 0 -14 1q-10 2 -16 2h-34l-57 -4q-17 0 -42 -5q-2 -1 -10 -1h-9q-4 31 -4 71v11q1 11 1 34v34
q1 13 3 37t2 36v34q0 23 1 34h17q10 0 29.5 -0.5t29.5 -0.5q43 0 86 -3l56 -3q3 -1 17 -1q6 0 9 -1q1 -1 2 -1v-75h6v83q-1 -1 -3 -1h-3h-2q-3 1 -9 1h-9q-5 0 -7 1l-56 3q-30 2 -44 2h-43q-10 0 -29.5 0.5t-29.5 0.5h-94z" />
    <glyph glyph-name="uni1EC2" unicode="&#x1ec2;" horiz-adv-x="398" 
d="M261 777l-2 -5q-35 25 -63 43q-7 -3 -32.5 -20.5t-37.5 -24.5l-1 6q11 6 36.5 23.5t34.5 21.5zM13 737v-6h71v-33v-34q0 -12 -2.5 -35.5t-3.5 -36.5v-35t-1 -34q0 -2 -0.5 -5.5t-0.5 -5.5q0 -26 6 -72l2 -19q0 -7 0.5 -23t0.5 -24q0 -18 -1 -56t-1 -58v-32q0 -87 -4 -130
q-2 -38 -2 -52v-32q0 -3 -1 -6h-61v-5q41 -2 65 0h20l75 1q5 0 15 -0.5t15 -0.5q48 0 89 4q11 0 17 1l13 1h6v90h-6v-85q-9 0 -14 -1h-16q-41 -4 -89 -4q-4 0 -14 0.5t-16 0.5l-75 -1h-10q-5 0 -8 -1q1 3 1 7v31q0 17 2 51q3 44 3 131v32q0 20 1 58t1 56q0 8 -0.5 24
t-0.5 24q-1 3 -1 14q17 0 19 1q20 4 41 4l57 4h33q6 0 16 -2q6 -1 48 -1v-58h6v125h-6v-61h-33q-10 0 -14 1q-10 2 -16 2h-34l-57 -4q-17 0 -42 -5q-2 -1 -10 -1h-9q-4 31 -4 71v11q1 11 1 34v34q1 13 3 37t2 36v34q0 23 1 34h17q10 0 29.5 -0.5t29.5 -0.5q43 0 86 -3l56 -3
q3 -1 17 -1q6 0 9 -1q1 -1 2 -1v-75h6v83q-1 -1 -3 -1h-3h-2q-3 1 -9 1h-9q-5 0 -7 1l-56 3q-30 2 -44 2h-43q-10 0 -29.5 0.5t-29.5 0.5h-94zM239 815h-3q-8 0 11 29q3 5 7 9q6 9 6 18q0 6 -1 8q-1 7 -6 10t-12 3q-3 0 -9 -2t-8 -3q-3 -2 -5 -5q-2 -4 -2 -6v-10l-5 1v10
q2 11 9 15q12 6 21 6t14 -4q9 -5 9 -20q0 -13 -7 -25q-2 -3 -7 -10t-8 -12.5t-4 -11.5z" />
    <glyph glyph-name="uni1EC3" unicode="&#x1ec3;" horiz-adv-x="398" 
d="M261 777l-2 -5q-35 25 -63 43q-7 -3 -32.5 -20.5t-37.5 -24.5l-1 6q11 6 36.5 23.5t34.5 21.5zM13 737v-6h71v-33v-34q0 -12 -2.5 -35.5t-3.5 -36.5v-35t-1 -34q0 -2 -0.5 -5.5t-0.5 -5.5q0 -26 6 -72l2 -19q0 -7 0.5 -23t0.5 -24q0 -18 -1 -56t-1 -58v-32q0 -87 -4 -130
q-2 -38 -2 -52v-32q0 -3 -1 -6h-61v-5q41 -2 65 0h20l75 1q5 0 15 -0.5t15 -0.5q48 0 89 4q11 0 17 1l13 1h6v90h-6v-85q-9 0 -14 -1h-16q-41 -4 -89 -4q-4 0 -14 0.5t-16 0.5l-75 -1h-10q-5 0 -8 -1q1 3 1 7v31q0 17 2 51q3 44 3 131v32q0 20 1 58t1 56q0 8 -0.5 24
t-0.5 24q-1 3 -1 14q17 0 19 1q20 4 41 4l57 4h33q6 0 16 -2q6 -1 48 -1v-58h6v125h-6v-61h-33q-10 0 -14 1q-10 2 -16 2h-34l-57 -4q-17 0 -42 -5q-2 -1 -10 -1h-9q-4 31 -4 71v11q1 11 1 34v34q1 13 3 37t2 36v34q0 23 1 34h17q10 0 29.5 -0.5t29.5 -0.5q43 0 86 -3l56 -3
q3 -1 17 -1q6 0 9 -1q1 -1 2 -1v-75h6v83q-1 -1 -3 -1h-3h-2q-3 1 -9 1h-9q-5 0 -7 1l-56 3q-30 2 -44 2h-43q-10 0 -29.5 0.5t-29.5 0.5h-94zM239 815h-3q-8 0 11 29q3 5 7 9q6 9 6 18q0 6 -1 8q-1 7 -6 10t-12 3q-3 0 -9 -2t-8 -3q-3 -2 -5 -5q-2 -4 -2 -6v-10l-5 1v10
q2 11 9 15q12 6 21 6t14 -4q9 -5 9 -20q0 -13 -7 -25q-2 -3 -7 -10t-8 -12.5t-4 -11.5z" />
    <glyph glyph-name="uni1EC4" unicode="&#x1ec4;" horiz-adv-x="398" 
d="M121 846l-5 5q29 32 60 22q10 -3 31.5 -19t36.5 -18q11 -1 19.5 2t27.5 17l2 -6q-29 -20 -47 -19q-16 1 -40 18t-33 20q-29 10 -52 -22zM261 777l-2 -5q-35 25 -63 43q-7 -3 -32.5 -20.5t-37.5 -24.5l-1 6q11 6 36.5 23.5t34.5 21.5zM13 737v-6h71v-33v-34
q0 -12 -2.5 -35.5t-3.5 -36.5v-35t-1 -34q0 -2 -0.5 -5.5t-0.5 -5.5q0 -26 6 -72l2 -19q0 -7 0.5 -23t0.5 -24q0 -18 -1 -56t-1 -58v-32q0 -87 -4 -130q-2 -38 -2 -52v-32q0 -3 -1 -6h-61v-5q41 -2 65 0h20l75 1q5 0 15 -0.5t15 -0.5q48 0 89 4q11 0 17 1l13 1h6v90h-6v-85
q-9 0 -14 -1h-16q-41 -4 -89 -4q-4 0 -14 0.5t-16 0.5l-75 -1h-10q-5 0 -8 -1q1 3 1 7v31q0 17 2 51q3 44 3 131v32q0 20 1 58t1 56q0 8 -0.5 24t-0.5 24q-1 3 -1 14q17 0 19 1q20 4 41 4l57 4h33q6 0 16 -2q6 -1 48 -1v-58h6v125h-6v-61h-33q-10 0 -14 1q-10 2 -16 2h-34
l-57 -4q-17 0 -42 -5q-2 -1 -10 -1h-9q-4 31 -4 71v11q1 11 1 34v34q1 13 3 37t2 36v34q0 23 1 34h17q10 0 29.5 -0.5t29.5 -0.5q43 0 86 -3l56 -3q3 -1 17 -1q6 0 9 -1q1 -1 2 -1v-75h6v83q-1 -1 -3 -1h-3h-2q-3 1 -9 1h-9q-5 0 -7 1l-56 3q-30 2 -44 2h-43
q-10 0 -29.5 0.5t-29.5 0.5h-94z" />
    <glyph glyph-name="uni1EC5" unicode="&#x1ec5;" horiz-adv-x="398" 
d="M121 846l-5 5q29 32 60 22q10 -3 31.5 -19t36.5 -18q11 -1 19.5 2t27.5 17l2 -6q-29 -20 -47 -19q-16 1 -40 18t-33 20q-29 10 -52 -22zM261 777l-2 -5q-35 25 -63 43q-7 -3 -32.5 -20.5t-37.5 -24.5l-1 6q11 6 36.5 23.5t34.5 21.5zM13 737v-6h71v-33v-34
q0 -12 -2.5 -35.5t-3.5 -36.5v-35t-1 -34q0 -2 -0.5 -5.5t-0.5 -5.5q0 -26 6 -72l2 -19q0 -7 0.5 -23t0.5 -24q0 -18 -1 -56t-1 -58v-32q0 -87 -4 -130q-2 -38 -2 -52v-32q0 -3 -1 -6h-61v-5q41 -2 65 0h20l75 1q5 0 15 -0.5t15 -0.5q48 0 89 4q11 0 17 1l13 1h6v90h-6v-85
q-9 0 -14 -1h-16q-41 -4 -89 -4q-4 0 -14 0.5t-16 0.5l-75 -1h-10q-5 0 -8 -1q1 3 1 7v31q0 17 2 51q3 44 3 131v32q0 20 1 58t1 56q0 8 -0.5 24t-0.5 24q-1 3 -1 14q17 0 19 1q20 4 41 4l57 4h33q6 0 16 -2q6 -1 48 -1v-58h6v125h-6v-61h-33q-10 0 -14 1q-10 2 -16 2h-34
l-57 -4q-17 0 -42 -5q-2 -1 -10 -1h-9q-4 31 -4 71v11q1 11 1 34v34q1 13 3 37t2 36v34q0 23 1 34h17q10 0 29.5 -0.5t29.5 -0.5q43 0 86 -3l56 -3q3 -1 17 -1q6 0 9 -1q1 -1 2 -1v-75h6v83q-1 -1 -3 -1h-3h-2q-3 1 -9 1h-9q-5 0 -7 1l-56 3q-30 2 -44 2h-43
q-10 0 -29.5 0.5t-29.5 0.5h-94z" />
    <glyph glyph-name="uni1EC6" unicode="&#x1ec6;" horiz-adv-x="398" 
d="M192 -104q0 3 2 5t5 2t5 -2t2 -5q0 -2 -3 -5q-2 -2 -4 -2q-5 0 -6 3q0 1 -1 4zM261 777l-2 -5q-35 25 -63 43q-7 -3 -32.5 -20.5t-37.5 -24.5l-1 6q11 6 36.5 23.5t34.5 21.5zM13 737v-6h71v-33v-34q0 -12 -2.5 -35.5t-3.5 -36.5v-35t-1 -34q0 -2 -0.5 -5.5t-0.5 -5.5
q0 -26 6 -72l2 -19q0 -7 0.5 -23t0.5 -24q0 -18 -1 -56t-1 -58v-32q0 -87 -4 -130q-2 -38 -2 -52v-32q0 -3 -1 -6h-61v-5q41 -2 65 0h20l75 1q5 0 15 -0.5t15 -0.5q48 0 89 4q11 0 17 1l13 1h6v90h-6v-85q-9 0 -14 -1h-16q-41 -4 -89 -4q-4 0 -14 0.5t-16 0.5l-75 -1h-10
q-5 0 -8 -1q1 3 1 7v31q0 17 2 51q3 44 3 131v32q0 20 1 58t1 56q0 8 -0.5 24t-0.5 24q-1 3 -1 14q17 0 19 1q20 4 41 4l57 4h33q6 0 16 -2q6 -1 48 -1v-58h6v125h-6v-61h-33q-10 0 -14 1q-10 2 -16 2h-34l-57 -4q-17 0 -42 -5q-2 -1 -10 -1h-9q-4 31 -4 71v11q1 11 1 34v34
q1 13 3 37t2 36v34q0 23 1 34h17q10 0 29.5 -0.5t29.5 -0.5q43 0 86 -3l56 -3q3 -1 17 -1q6 0 9 -1q1 -1 2 -1v-75h6v83q-1 -1 -3 -1h-3h-2q-3 1 -9 1h-9q-5 0 -7 1l-56 3q-30 2 -44 2h-43q-10 0 -29.5 0.5t-29.5 0.5h-94z" />
    <glyph glyph-name="uni1EC7" unicode="&#x1ec7;" horiz-adv-x="398" 
d="M192 -104q0 3 2 5t5 2t5 -2t2 -5q0 -2 -3 -5q-2 -2 -4 -2q-5 0 -6 3q0 1 -1 4zM261 777l-2 -5q-35 25 -63 43q-7 -3 -32.5 -20.5t-37.5 -24.5l-1 6q11 6 36.5 23.5t34.5 21.5zM13 737v-6h71v-33v-34q0 -12 -2.5 -35.5t-3.5 -36.5v-35t-1 -34q0 -2 -0.5 -5.5t-0.5 -5.5
q0 -26 6 -72l2 -19q0 -7 0.5 -23t0.5 -24q0 -18 -1 -56t-1 -58v-32q0 -87 -4 -130q-2 -38 -2 -52v-32q0 -3 -1 -6h-61v-5q41 -2 65 0h20l75 1q5 0 15 -0.5t15 -0.5q48 0 89 4q11 0 17 1l13 1h6v90h-6v-85q-9 0 -14 -1h-16q-41 -4 -89 -4q-4 0 -14 0.5t-16 0.5l-75 -1h-10
q-5 0 -8 -1q1 3 1 7v31q0 17 2 51q3 44 3 131v32q0 20 1 58t1 56q0 8 -0.5 24t-0.5 24q-1 3 -1 14q17 0 19 1q20 4 41 4l57 4h33q6 0 16 -2q6 -1 48 -1v-58h6v125h-6v-61h-33q-10 0 -14 1q-10 2 -16 2h-34l-57 -4q-17 0 -42 -5q-2 -1 -10 -1h-9q-4 31 -4 71v11q1 11 1 34v34
q1 13 3 37t2 36v34q0 23 1 34h17q10 0 29.5 -0.5t29.5 -0.5q43 0 86 -3l56 -3q3 -1 17 -1q6 0 9 -1q1 -1 2 -1v-75h6v83q-1 -1 -3 -1h-3h-2q-3 1 -9 1h-9q-5 0 -7 1l-56 3q-30 2 -44 2h-43q-10 0 -29.5 0.5t-29.5 0.5h-94z" />
    <glyph glyph-name="uni1EC8" unicode="&#x1ec8;" horiz-adv-x="170" 
d="M153 731v-6q-32 1 -59 1q0 -21 -1 -30l-2 -31v-25q0 -14 0.5 -43t0.5 -44q0 -22 -1.5 -66t-1.5 -66q0 -17 -2.5 -70.5t-0.5 -87.5q-2 -14 -2 -22v-21q0 -28 2 -86q0 -12 1 -40.5t1 -39.5l-2 -25q0 -15 -1 -23h61l-1 -5h-62q-59 1 -63 0v6q37 -1 60 -1l3 48
q0 11 -1.5 39.5t-1.5 40.5q0 14 -0.5 43t-0.5 43v21q0 15 1 22q-1 35 1.5 90.5t2.5 67.5q0 22 1.5 66t1.5 66q0 15 -0.5 44t-0.5 43v26l2 30q1 10 1 30h-57l1 5h57q58 -1 63 0zM86 763h-3q-8 0 11 29l7 9q6 9 6 18q0 6 -1 8q-1 7 -6 10q-4 3 -12 3q-3 0 -9 -2t-8 -3
q-3 -2 -5 -5q-2 -4 -2 -6v-10l-5 1v10q2 11 9 15q12 6 21 6t14 -4q9 -5 9 -20q0 -13 -7 -25q-2 -3 -7 -10t-8 -12.5t-4 -11.5z" />
    <glyph glyph-name="uni1EC9" unicode="&#x1ec9;" horiz-adv-x="170" 
d="M153 731v-6q-32 1 -59 1q0 -21 -1 -30l-2 -31v-25q0 -14 0.5 -43t0.5 -44q0 -22 -1.5 -66t-1.5 -66q0 -17 -2.5 -70.5t-0.5 -87.5q-2 -14 -2 -22v-21q0 -28 2 -86q0 -12 1 -40.5t1 -39.5l-2 -25q0 -15 -1 -23h61l-1 -5h-62q-59 1 -63 0v6q37 -1 60 -1l3 48
q0 11 -1.5 39.5t-1.5 40.5q0 14 -0.5 43t-0.5 43v21q0 15 1 22q-1 35 1.5 90.5t2.5 67.5q0 22 1.5 66t1.5 66q0 15 -0.5 44t-0.5 43v26l2 30q1 10 1 30h-57l1 5h57q58 -1 63 0zM86 763h-3q-8 0 11 29l7 9q6 9 6 18q0 6 -1 8q-1 7 -6 10q-4 3 -12 3q-3 0 -9 -2t-8 -3
q-3 -2 -5 -5q-2 -4 -2 -6v-10l-5 1v10q2 11 9 15q12 6 21 6t14 -4q9 -5 9 -20q0 -13 -7 -25q-2 -3 -7 -10t-8 -12.5t-4 -11.5z" />
    <glyph glyph-name="uni1ECA" unicode="&#x1eca;" horiz-adv-x="170" 
d="M153 731v-6q-32 1 -59 1q0 -21 -1 -30l-2 -31v-25q0 -14 0.5 -43t0.5 -44q0 -22 -1.5 -66t-1.5 -66q0 -17 -2.5 -70.5t-0.5 -87.5q-2 -14 -2 -22v-21q0 -28 2 -86q0 -12 1 -40.5t1 -39.5l-2 -25q0 -15 -1 -23h61l-1 -5h-62q-59 1 -63 0v6q37 -1 60 -1l3 48
q0 11 -1.5 39.5t-1.5 40.5q0 14 -0.5 43t-0.5 43v21q0 15 1 22q-1 35 1.5 90.5t2.5 67.5q0 22 1.5 66t1.5 66q0 15 -0.5 44t-0.5 43v26l2 30q1 10 1 30h-57l1 5h57q58 -1 63 0zM78 -104q0 3 2 5t5 2t5 -2t2 -5q0 -2 -3 -5q-2 -2 -4 -2q-5 0 -6 3q0 1 -1 4z" />
    <glyph glyph-name="uni1ECB" unicode="&#x1ecb;" horiz-adv-x="170" 
d="M153 731v-6q-32 1 -59 1q0 -21 -1 -30l-2 -31v-25q0 -14 0.5 -43t0.5 -44q0 -22 -1.5 -66t-1.5 -66q0 -17 -2.5 -70.5t-0.5 -87.5q-2 -14 -2 -22v-21q0 -28 2 -86q0 -12 1 -40.5t1 -39.5l-2 -25q0 -15 -1 -23h61l-1 -5h-62q-59 1 -63 0v6q37 -1 60 -1l3 48
q0 11 -1.5 39.5t-1.5 40.5q0 14 -0.5 43t-0.5 43v21q0 15 1 22q-1 35 1.5 90.5t2.5 67.5q0 22 1.5 66t1.5 66q0 15 -0.5 44t-0.5 43v26l2 30q1 10 1 30h-57l1 5h57q58 -1 63 0zM78 -104q0 3 2 5t5 2t5 -2t2 -5q0 -2 -3 -5q-2 -2 -4 -2q-5 0 -6 3q0 1 -1 4z" />
    <glyph glyph-name="uni1ECC" unicode="&#x1ecc;" horiz-adv-x="682" 
d="M307 9q-5 0 -10 1t-9.5 1.5t-9.5 2.5t-8 3.5t-8 4.5l-7.5 4.5t-7.5 5t-7 5l-8 6t-7 5.5q-2 2 -39.5 24.5t-54.5 38.5q-81 77 -81 227q0 35 4 60q14 103 45 154q42 69 68 92q8 7 25 23.5t31.5 28t28.5 18.5q42 24 78 28q1 0 17 1.5t22 1.5q24 0 66 -13q62 -22 85 -41
q55 -41 73 -96q13 -42 26 -126q5 -35 5 -68q0 -154 -74 -257q-40 -56 -105 -96t-129 -40q-7 0 -9 1zM255 709q-11 -6 -23 -15t-20.5 -16t-22 -20t-19.5 -18q-11 -10 -22 -24.5t-26 -38t-19 -28.5q-30 -48 -44 -151q-4 -25 -4 -60q0 -148 80 -224q15 -13 47 -33t45 -29
q3 -2 11 -8t11 -8t10.5 -6.5t11.5 -6.5t11 -4.5t13 -3.5t13 -1q2 0 4 -0.5t4 -0.5q62 0 126 39.5t104 95.5q73 101 73 253q0 34 -5 67q-14 86 -26 125q-18 53 -71 94q-24 19 -84 40q-39 13 -64 13q-5 0 -20.5 -1.5t-18.5 -1.5q-35 -6 -75 -28zM334 -104q0 3 2 5t5 2t5 -2
t2 -5q0 -2 -3 -5q-2 -2 -4 -2q-5 0 -6 3q0 1 -1 4z" />
    <glyph glyph-name="uni1ECD" unicode="&#x1ecd;" horiz-adv-x="682" 
d="M307 9q-5 0 -10 1t-9.5 1.5t-9.5 2.5t-8 3.5t-8 4.5l-7.5 4.5t-7.5 5t-7 5l-8 6t-7 5.5q-2 2 -39.5 24.5t-54.5 38.5q-81 77 -81 227q0 35 4 60q14 103 45 154q42 69 68 92q8 7 25 23.5t31.5 28t28.5 18.5q42 24 78 28q1 0 17 1.5t22 1.5q24 0 66 -13q62 -22 85 -41
q55 -41 73 -96q13 -42 26 -126q5 -35 5 -68q0 -154 -74 -257q-40 -56 -105 -96t-129 -40q-7 0 -9 1zM255 709q-11 -6 -23 -15t-20.5 -16t-22 -20t-19.5 -18q-11 -10 -22 -24.5t-26 -38t-19 -28.5q-30 -48 -44 -151q-4 -25 -4 -60q0 -148 80 -224q15 -13 47 -33t45 -29
q3 -2 11 -8t11 -8t10.5 -6.5t11.5 -6.5t11 -4.5t13 -3.5t13 -1q2 0 4 -0.5t4 -0.5q62 0 126 39.5t104 95.5q73 101 73 253q0 34 -5 67q-14 86 -26 125q-18 53 -71 94q-24 19 -84 40q-39 13 -64 13q-5 0 -20.5 -1.5t-18.5 -1.5q-35 -6 -75 -28zM334 -104q0 3 2 5t5 2t5 -2
t2 -5q0 -2 -3 -5q-2 -2 -4 -2q-5 0 -6 3q0 1 -1 4z" />
    <glyph glyph-name="uni1ECE" unicode="&#x1ece;" horiz-adv-x="682" 
d="M307 9q-5 0 -10 1t-9.5 1.5t-9.5 2.5t-8 3.5t-8 4.5l-7.5 4.5t-7.5 5t-7 5l-8 6t-7 5.5q-2 2 -39.5 24.5t-54.5 38.5q-81 77 -81 227q0 35 4 60q14 103 45 154q42 69 68 92q8 7 25 23.5t31.5 28t28.5 18.5q42 24 78 28q1 0 17 1.5t22 1.5q24 0 66 -13q62 -22 85 -41
q55 -41 73 -96q13 -42 26 -126q5 -35 5 -68q0 -154 -74 -257q-40 -56 -105 -96t-129 -40q-7 0 -9 1zM255 709q-11 -6 -23 -15t-20.5 -16t-22 -20t-19.5 -18q-11 -10 -22 -24.5t-26 -38t-19 -28.5q-30 -48 -44 -151q-4 -25 -4 -60q0 -148 80 -224q15 -13 47 -33t45 -29
q3 -2 11 -8t11 -8t10.5 -6.5t11.5 -6.5t11 -4.5t13 -3.5t13 -1q2 0 4 -0.5t4 -0.5q62 0 126 39.5t104 95.5q73 101 73 253q0 34 -5 67q-14 86 -26 125q-18 53 -71 94q-24 19 -84 40q-39 13 -64 13q-5 0 -20.5 -1.5t-18.5 -1.5q-35 -6 -75 -28zM376 763h-3q-8 0 11 29
q3 5 7 9q6 9 6 18q0 6 -1 8q-1 7 -6 10q-4 3 -12 3q-3 0 -9 -2t-8 -3q-3 -2 -5 -5q-2 -4 -2 -6v-10l-5 1v10q2 11 9 15q12 6 21 6t14 -4q9 -5 9 -20q0 -13 -7 -25q-2 -3 -7 -10t-8 -12.5t-4 -11.5z" />
    <glyph glyph-name="uni1ECF" unicode="&#x1ecf;" horiz-adv-x="682" 
d="M307 9q-5 0 -10 1t-9.5 1.5t-9.5 2.5t-8 3.5t-8 4.5l-7.5 4.5t-7.5 5t-7 5l-8 6t-7 5.5q-2 2 -39.5 24.5t-54.5 38.5q-81 77 -81 227q0 35 4 60q14 103 45 154q42 69 68 92q8 7 25 23.5t31.5 28t28.5 18.5q42 24 78 28q1 0 17 1.5t22 1.5q24 0 66 -13q62 -22 85 -41
q55 -41 73 -96q13 -42 26 -126q5 -35 5 -68q0 -154 -74 -257q-40 -56 -105 -96t-129 -40q-7 0 -9 1zM255 709q-11 -6 -23 -15t-20.5 -16t-22 -20t-19.5 -18q-11 -10 -22 -24.5t-26 -38t-19 -28.5q-30 -48 -44 -151q-4 -25 -4 -60q0 -148 80 -224q15 -13 47 -33t45 -29
q3 -2 11 -8t11 -8t10.5 -6.5t11.5 -6.5t11 -4.5t13 -3.5t13 -1q2 0 4 -0.5t4 -0.5q62 0 126 39.5t104 95.5q73 101 73 253q0 34 -5 67q-14 86 -26 125q-18 53 -71 94q-24 19 -84 40q-39 13 -64 13q-5 0 -20.5 -1.5t-18.5 -1.5q-35 -6 -75 -28zM376 763h-3q-8 0 11 29
q3 5 7 9q6 9 6 18q0 6 -1 8q-1 7 -6 10q-4 3 -12 3q-3 0 -9 -2t-8 -3q-3 -2 -5 -5q-2 -4 -2 -6v-10l-5 1v10q2 11 9 15q12 6 21 6t14 -4q9 -5 9 -20q0 -13 -7 -25q-2 -3 -7 -10t-8 -12.5t-4 -11.5z" />
    <glyph glyph-name="uni1ED0" unicode="&#x1ed0;" horiz-adv-x="697" 
d="M459 765l-2 -5q-29 21 -92 61q-6 -3 -28 -15.5t-48.5 -28t-35.5 -20.5l-1 6q9 5 56 32.5t57 31.5zM307 9q2 -1 9 -1q64 0 129 40t105 96q74 103 74 257q0 33 -5 68q-13 84 -26 126q-18 55 -73 96q-23 19 -85 41q-42 13 -66 13q-6 0 -22 -1.5t-17 -1.5q-36 -4 -78 -28
q-14 -7 -28.5 -18.5t-31.5 -28t-25 -23.5q-26 -23 -68 -92q-31 -51 -45 -154q-4 -25 -4 -60q0 -150 81 -227q13 -12 29 -22.5t35 -22t30 -18.5q1 -1 7 -5.5l8 -6t7 -5t7.5 -5l7.5 -4.5t8 -4.5t8 -3.5t9.5 -2.5t9.5 -1.5t10 -1zM255 709q40 22 75 28q3 0 18.5 1.5t20.5 1.5
q25 0 64 -13q60 -21 84 -40q53 -41 71 -94q12 -39 26 -125q5 -33 5 -67q0 -152 -73 -253q-40 -56 -104 -95.5t-126 -39.5q-2 0 -4 0.5t-4 0.5q-7 0 -13 1t-13 3.5t-11 4.5t-11.5 6.5t-10.5 6.5t-11 8t-11 8q-13 9 -45 29t-47 33q-80 76 -80 224q0 35 4 60q14 103 44 151
q4 5 19 28.5t26 38t22 24.5q6 5 19.5 18t22 20t20.5 16t23 15zM322 839l-1 6q22 12 46.5 22.5t47.5 23.5l2 -5q-22 -13 -47.5 -23.5t-47.5 -23.5z" />
    <glyph glyph-name="uni1ED1" unicode="&#x1ed1;" horiz-adv-x="697" 
d="M459 765l-2 -5q-29 21 -92 61q-6 -3 -28 -15.5t-48.5 -28t-35.5 -20.5l-1 6q9 5 56 32.5t57 31.5zM307 9q2 -1 9 -1q64 0 129 40t105 96q74 103 74 257q0 33 -5 68q-13 84 -26 126q-18 55 -73 96q-23 19 -85 41q-42 13 -66 13q-6 0 -22 -1.5t-17 -1.5q-36 -4 -78 -28
q-14 -7 -28.5 -18.5t-31.5 -28t-25 -23.5q-26 -23 -68 -92q-31 -51 -45 -154q-4 -25 -4 -60q0 -150 81 -227q13 -12 29 -22.5t35 -22t30 -18.5q1 -1 7 -5.5l8 -6t7 -5t7.5 -5l7.5 -4.5t8 -4.5t8 -3.5t9.5 -2.5t9.5 -1.5t10 -1zM255 709q40 22 75 28q3 0 18.5 1.5t20.5 1.5
q25 0 64 -13q60 -21 84 -40q53 -41 71 -94q12 -39 26 -125q5 -33 5 -67q0 -152 -73 -253q-40 -56 -104 -95.5t-126 -39.5q-2 0 -4 0.5t-4 0.5q-7 0 -13 1t-13 3.5t-11 4.5t-11.5 6.5t-10.5 6.5t-11 8t-11 8q-13 9 -45 29t-47 33q-80 76 -80 224q0 35 4 60q14 103 44 151
q4 5 19 28.5t26 38t22 24.5q6 5 19.5 18t22 20t20.5 16t23 15zM322 839l-1 6q22 12 46.5 22.5t47.5 23.5l2 -5q-22 -13 -47.5 -23.5t-47.5 -23.5z" />
    <glyph glyph-name="uni1ED2" unicode="&#x1ed2;" horiz-adv-x="697" 
d="M414 843l-1 -6q-22 13 -47.5 23.5t-47.5 23.5l2 5q23 -13 47.5 -23.5t46.5 -22.5zM459 765l-2 -5q-29 21 -92 61q-6 -3 -28 -15.5t-48.5 -28t-35.5 -20.5l-1 6q9 5 56 32.5t57 31.5zM307 9q2 -1 9 -1q64 0 129 40t105 96q74 103 74 257q0 33 -5 68q-13 84 -26 126
q-18 55 -73 96q-23 19 -85 41q-42 13 -66 13q-6 0 -22 -1.5t-17 -1.5q-36 -4 -78 -28q-14 -7 -28.5 -18.5t-31.5 -28t-25 -23.5q-26 -23 -68 -92q-31 -51 -45 -154q-4 -25 -4 -60q0 -150 81 -227q13 -12 29 -22.5t35 -22t30 -18.5q1 -1 7 -5.5l8 -6t7 -5t7.5 -5l7.5 -4.5
t8 -4.5t8 -3.5t9.5 -2.5t9.5 -1.5t10 -1zM255 709q40 22 75 28q3 0 18.5 1.5t20.5 1.5q25 0 64 -13q60 -21 84 -40q53 -41 71 -94q12 -39 26 -125q5 -33 5 -67q0 -152 -73 -253q-40 -56 -104 -95.5t-126 -39.5q-2 0 -4 0.5t-4 0.5q-7 0 -13 1t-13 3.5t-11 4.5t-11.5 6.5
t-10.5 6.5t-11 8t-11 8q-13 9 -45 29t-47 33q-80 76 -80 224q0 35 4 60q14 103 44 151q4 5 19 28.5t26 38t22 24.5q6 5 19.5 18t22 20t20.5 16t23 15z" />
    <glyph glyph-name="uni1ED3" unicode="&#x1ed3;" horiz-adv-x="697" 
d="M414 843l-1 -6q-22 13 -47.5 23.5t-47.5 23.5l2 5q23 -13 47.5 -23.5t46.5 -22.5zM459 765l-2 -5q-29 21 -92 61q-6 -3 -28 -15.5t-48.5 -28t-35.5 -20.5l-1 6q9 5 56 32.5t57 31.5zM307 9q2 -1 9 -1q64 0 129 40t105 96q74 103 74 257q0 33 -5 68q-13 84 -26 126
q-18 55 -73 96q-23 19 -85 41q-42 13 -66 13q-6 0 -22 -1.5t-17 -1.5q-36 -4 -78 -28q-14 -7 -28.5 -18.5t-31.5 -28t-25 -23.5q-26 -23 -68 -92q-31 -51 -45 -154q-4 -25 -4 -60q0 -150 81 -227q13 -12 29 -22.5t35 -22t30 -18.5q1 -1 7 -5.5l8 -6t7 -5t7.5 -5l7.5 -4.5
t8 -4.5t8 -3.5t9.5 -2.5t9.5 -1.5t10 -1zM255 709q40 22 75 28q3 0 18.5 1.5t20.5 1.5q25 0 64 -13q60 -21 84 -40q53 -41 71 -94q12 -39 26 -125q5 -33 5 -67q0 -152 -73 -253q-40 -56 -104 -95.5t-126 -39.5q-2 0 -4 0.5t-4 0.5q-7 0 -13 1t-13 3.5t-11 4.5t-11.5 6.5
t-10.5 6.5t-11 8t-11 8q-13 9 -45 29t-47 33q-80 76 -80 224q0 35 4 60q14 103 44 151q4 5 19 28.5t26 38t22 24.5q6 5 19.5 18t22 20t20.5 16t23 15z" />
    <glyph glyph-name="uni1ED4" unicode="&#x1ed4;" horiz-adv-x="697" 
d="M459 765l-2 -5q-29 21 -92 61q-6 -3 -28 -15.5t-48.5 -28t-35.5 -20.5l-1 6q9 5 56 32.5t57 31.5zM307 9q2 -1 9 -1q64 0 129 40t105 96q74 103 74 257q0 33 -5 68q-13 84 -26 126q-18 55 -73 96q-23 19 -85 41q-42 13 -66 13q-6 0 -22 -1.5t-17 -1.5q-36 -4 -78 -28
q-14 -7 -28.5 -18.5t-31.5 -28t-25 -23.5q-26 -23 -68 -92q-31 -51 -45 -154q-4 -25 -4 -60q0 -150 81 -227q13 -12 29 -22.5t35 -22t30 -18.5q1 -1 7 -5.5l8 -6t7 -5t7.5 -5l7.5 -4.5t8 -4.5t8 -3.5t9.5 -2.5t9.5 -1.5t10 -1zM255 709q40 22 75 28q3 0 18.5 1.5t20.5 1.5
q25 0 64 -13q60 -21 84 -40q53 -41 71 -94q12 -39 26 -125q5 -33 5 -67q0 -152 -73 -253q-40 -56 -104 -95.5t-126 -39.5q-2 0 -4 0.5t-4 0.5q-7 0 -13 1t-13 3.5t-11 4.5t-11.5 6.5t-10.5 6.5t-11 8t-11 8q-13 9 -45 29t-47 33q-80 76 -80 224q0 35 4 60q14 103 44 151
q4 5 19 28.5t26 38t22 24.5q6 5 19.5 18t22 20t20.5 16t23 15zM410 822h-3q-8 0 11 29q3 5 7 9q6 9 6 18q0 6 -1 8q-1 7 -6 10q-4 3 -12 3q-3 0 -9 -2t-8 -3q-3 -2 -5 -5q-2 -4 -2 -6v-10l-5 1v10q2 11 9 15q12 6 21 6t14 -4q9 -5 9 -20q0 -13 -7 -25q-2 -3 -7 -10t-8 -12.5
t-4 -11.5z" />
    <glyph glyph-name="uni1ED5" unicode="&#x1ed5;" horiz-adv-x="697" 
d="M459 765l-2 -5q-29 21 -92 61q-6 -3 -28 -15.5t-48.5 -28t-35.5 -20.5l-1 6q9 5 56 32.5t57 31.5zM307 9q2 -1 9 -1q64 0 129 40t105 96q74 103 74 257q0 33 -5 68q-13 84 -26 126q-18 55 -73 96q-23 19 -85 41q-42 13 -66 13q-6 0 -22 -1.5t-17 -1.5q-36 -4 -78 -28
q-14 -7 -28.5 -18.5t-31.5 -28t-25 -23.5q-26 -23 -68 -92q-31 -51 -45 -154q-4 -25 -4 -60q0 -150 81 -227q13 -12 29 -22.5t35 -22t30 -18.5q1 -1 7 -5.5l8 -6t7 -5t7.5 -5l7.5 -4.5t8 -4.5t8 -3.5t9.5 -2.5t9.5 -1.5t10 -1zM255 709q40 22 75 28q3 0 18.5 1.5t20.5 1.5
q25 0 64 -13q60 -21 84 -40q53 -41 71 -94q12 -39 26 -125q5 -33 5 -67q0 -152 -73 -253q-40 -56 -104 -95.5t-126 -39.5q-2 0 -4 0.5t-4 0.5q-7 0 -13 1t-13 3.5t-11 4.5t-11.5 6.5t-10.5 6.5t-11 8t-11 8q-13 9 -45 29t-47 33q-80 76 -80 224q0 35 4 60q14 103 44 151
q4 5 19 28.5t26 38t22 24.5q6 5 19.5 18t22 20t20.5 16t23 15zM410 822h-3q-8 0 11 29q3 5 7 9q6 9 6 18q0 6 -1 8q-1 7 -6 10q-4 3 -12 3q-3 0 -9 -2t-8 -3q-3 -2 -5 -5q-2 -4 -2 -6v-10l-5 1v10q2 11 9 15q12 6 21 6t14 -4q9 -5 9 -20q0 -13 -7 -25q-2 -3 -7 -10t-8 -12.5
t-4 -11.5z" />
    <glyph glyph-name="uni1ED6" unicode="&#x1ed6;" horiz-adv-x="697" 
d="M278 862l-5 5q44 37 74 27q10 -3 31.5 -19t36.5 -18q23 -3 57 21l2 -6q-32 -23 -57 -21q-16 1 -40 18t-33 20q-26 9 -66 -27zM459 765l-2 -5q-29 21 -92 61q-6 -3 -28 -15.5t-48.5 -28t-35.5 -20.5l-1 6q9 5 56 32.5t57 31.5zM307 9q2 -1 9 -1q64 0 129 40t105 96
q74 103 74 257q0 33 -5 68q-13 84 -26 126q-18 55 -73 96q-23 19 -85 41q-42 13 -66 13q-6 0 -22 -1.5t-17 -1.5q-36 -4 -78 -28q-14 -7 -28.5 -18.5t-31.5 -28t-25 -23.5q-26 -23 -68 -92q-31 -51 -45 -154q-4 -25 -4 -60q0 -150 81 -227q13 -12 29 -22.5t35 -22t30 -18.5
q1 -1 7 -5.5l8 -6t7 -5t7.5 -5l7.5 -4.5t8 -4.5t8 -3.5t9.5 -2.5t9.5 -1.5t10 -1zM255 709q40 22 75 28q3 0 18.5 1.5t20.5 1.5q25 0 64 -13q60 -21 84 -40q53 -41 71 -94q12 -39 26 -125q5 -33 5 -67q0 -152 -73 -253q-40 -56 -104 -95.5t-126 -39.5q-2 0 -4 0.5t-4 0.5
q-7 0 -13 1t-13 3.5t-11 4.5t-11.5 6.5t-10.5 6.5t-11 8t-11 8q-13 9 -45 29t-47 33q-80 76 -80 224q0 35 4 60q14 103 44 151q4 5 19 28.5t26 38t22 24.5q6 5 19.5 18t22 20t20.5 16t23 15z" />
    <glyph glyph-name="uni1ED7" unicode="&#x1ed7;" horiz-adv-x="697" 
d="M278 862l-5 5q44 37 74 27q10 -3 31.5 -19t36.5 -18q23 -3 57 21l2 -6q-32 -23 -57 -21q-16 1 -40 18t-33 20q-26 9 -66 -27zM459 765l-2 -5q-29 21 -92 61q-6 -3 -28 -15.5t-48.5 -28t-35.5 -20.5l-1 6q9 5 56 32.5t57 31.5zM307 9q2 -1 9 -1q64 0 129 40t105 96
q74 103 74 257q0 33 -5 68q-13 84 -26 126q-18 55 -73 96q-23 19 -85 41q-42 13 -66 13q-6 0 -22 -1.5t-17 -1.5q-36 -4 -78 -28q-14 -7 -28.5 -18.5t-31.5 -28t-25 -23.5q-26 -23 -68 -92q-31 -51 -45 -154q-4 -25 -4 -60q0 -150 81 -227q13 -12 29 -22.5t35 -22t30 -18.5
q1 -1 7 -5.5l8 -6t7 -5t7.5 -5l7.5 -4.5t8 -4.5t8 -3.5t9.5 -2.5t9.5 -1.5t10 -1zM255 709q40 22 75 28q3 0 18.5 1.5t20.5 1.5q25 0 64 -13q60 -21 84 -40q53 -41 71 -94q12 -39 26 -125q5 -33 5 -67q0 -152 -73 -253q-40 -56 -104 -95.5t-126 -39.5q-2 0 -4 0.5t-4 0.5
q-7 0 -13 1t-13 3.5t-11 4.5t-11.5 6.5t-10.5 6.5t-11 8t-11 8q-13 9 -45 29t-47 33q-80 76 -80 224q0 35 4 60q14 103 44 151q4 5 19 28.5t26 38t22 24.5q6 5 19.5 18t22 20t20.5 16t23 15z" />
    <glyph glyph-name="uni1ED8" unicode="&#x1ed8;" horiz-adv-x="682" 
d="M334 -104q0 3 2 5t5 2t5 -2t2 -5q0 -2 -3 -5q-2 -2 -4 -2q-5 0 -6 3q0 1 -1 4zM459 765l-2 -5q-29 21 -92 61q-6 -3 -28 -15.5t-48.5 -28t-35.5 -20.5l-1 6q9 5 56 32.5t57 31.5zM307 9q2 -1 9 -1q64 0 129 40t105 96q74 103 74 257q0 33 -5 68q-13 84 -26 126
q-18 55 -73 96q-23 19 -85 41q-42 13 -66 13q-6 0 -22 -1.5t-17 -1.5q-36 -4 -78 -28q-14 -7 -28.5 -18.5t-31.5 -28t-25 -23.5q-26 -23 -68 -92q-31 -51 -45 -154q-4 -25 -4 -60q0 -150 81 -227q13 -12 29 -22.5t35 -22t30 -18.5q1 -1 7 -5.5l8 -6t7 -5t7.5 -5l7.5 -4.5
t8 -4.5t8 -3.5t9.5 -2.5t9.5 -1.5t10 -1zM255 709q40 22 75 28q3 0 18.5 1.5t20.5 1.5q25 0 64 -13q60 -21 84 -40q53 -41 71 -94q12 -39 26 -125q5 -33 5 -67q0 -152 -73 -253q-40 -56 -104 -95.5t-126 -39.5q-2 0 -4 0.5t-4 0.5q-7 0 -13 1t-13 3.5t-11 4.5t-11.5 6.5
t-10.5 6.5t-11 8t-11 8q-13 9 -45 29t-47 33q-80 76 -80 224q0 35 4 60q14 103 44 151q4 5 19 28.5t26 38t22 24.5q6 5 19.5 18t22 20t20.5 16t23 15z" />
    <glyph glyph-name="uni1ED9" unicode="&#x1ed9;" horiz-adv-x="682" 
d="M334 -104q0 3 2 5t5 2t5 -2t2 -5q0 -2 -3 -5q-2 -2 -4 -2q-5 0 -6 3q0 1 -1 4zM459 765l-2 -5q-29 21 -92 61q-6 -3 -28 -15.5t-48.5 -28t-35.5 -20.5l-1 6q9 5 56 32.5t57 31.5zM307 9q2 -1 9 -1q64 0 129 40t105 96q74 103 74 257q0 33 -5 68q-13 84 -26 126
q-18 55 -73 96q-23 19 -85 41q-42 13 -66 13q-6 0 -22 -1.5t-17 -1.5q-36 -4 -78 -28q-14 -7 -28.5 -18.5t-31.5 -28t-25 -23.5q-26 -23 -68 -92q-31 -51 -45 -154q-4 -25 -4 -60q0 -150 81 -227q13 -12 29 -22.5t35 -22t30 -18.5q1 -1 7 -5.5l8 -6t7 -5t7.5 -5l7.5 -4.5
t8 -4.5t8 -3.5t9.5 -2.5t9.5 -1.5t10 -1zM255 709q40 22 75 28q3 0 18.5 1.5t20.5 1.5q25 0 64 -13q60 -21 84 -40q53 -41 71 -94q12 -39 26 -125q5 -33 5 -67q0 -152 -73 -253q-40 -56 -104 -95.5t-126 -39.5q-2 0 -4 0.5t-4 0.5q-7 0 -13 1t-13 3.5t-11 4.5t-11.5 6.5
t-10.5 6.5t-11 8t-11 8q-13 9 -45 29t-47 33q-80 76 -80 224q0 35 4 60q14 103 44 151q4 5 19 28.5t26 38t22 24.5q6 5 19.5 18t22 20t20.5 16t23 15z" />
    <glyph glyph-name="uni1EDA" unicode="&#x1eda;" horiz-adv-x="682" 
d="M443 845l2 -6q-17 -11 -60 -38t-66 -44l-3 5q22 16 64.5 42.5t62.5 40.5zM307 9q-5 0 -10 1t-9.5 1.5t-9.5 2.5t-8 3.5t-8 4.5l-7.5 4.5t-7.5 5t-7 5l-8 6t-7 5.5q-2 2 -39.5 24.5t-54.5 38.5q-81 77 -81 227q0 35 4 60q14 103 45 154q42 69 68 92q8 7 25 23.5t31.5 28
t28.5 18.5q42 24 78 28q1 0 17 1.5t22 1.5q24 0 66 -13q62 -22 85 -41q34 -27 49 -48q24 -2 33 13.5t4.5 35t-16.5 32.5l3 2l1 -1q14 -13 18.5 -34.5t-5.5 -37.5t-36 -13q15 -25 22 -45q13 -42 26 -126q5 -35 5 -68q0 -154 -74 -257q-40 -56 -105 -96t-129 -40q-7 0 -9 1z
M255 709q-11 -6 -23 -15t-20.5 -16t-22 -20t-19.5 -18q-11 -10 -22 -24.5t-26 -38t-19 -28.5q-30 -48 -44 -151q-4 -25 -4 -60q0 -148 80 -224q15 -13 47 -33t45 -29q3 -2 11 -8t11 -8t10.5 -6.5t11.5 -6.5t11 -4.5t13 -3.5t13 -1q2 0 4 -0.5t4 -0.5q62 0 126 39.5t104 95.5
q73 101 73 253q0 34 -5 67q-14 86 -26 125q-18 53 -71 94q-24 19 -84 40q-39 13 -64 13q-5 0 -20.5 -1.5t-18.5 -1.5q-35 -6 -75 -28z" />
    <glyph glyph-name="uni1EDB" unicode="&#x1edb;" horiz-adv-x="682" 
d="M443 845l2 -6q-17 -11 -60 -38t-66 -44l-3 5q22 16 64.5 42.5t62.5 40.5zM307 9q-5 0 -10 1t-9.5 1.5t-9.5 2.5t-8 3.5t-8 4.5l-7.5 4.5t-7.5 5t-7 5l-8 6t-7 5.5q-2 2 -39.5 24.5t-54.5 38.5q-81 77 -81 227q0 35 4 60q14 103 45 154q42 69 68 92q8 7 25 23.5t31.5 28
t28.5 18.5q42 24 78 28q1 0 17 1.5t22 1.5q24 0 66 -13q62 -22 85 -41q34 -27 49 -48q24 -2 33 13.5t4.5 35t-16.5 32.5l3 2l1 -1q14 -13 18.5 -34.5t-5.5 -37.5t-36 -13q15 -25 22 -45q13 -42 26 -126q5 -35 5 -68q0 -154 -74 -257q-40 -56 -105 -96t-129 -40q-7 0 -9 1z
M255 709q-11 -6 -23 -15t-20.5 -16t-22 -20t-19.5 -18q-11 -10 -22 -24.5t-26 -38t-19 -28.5q-30 -48 -44 -151q-4 -25 -4 -60q0 -148 80 -224q15 -13 47 -33t45 -29q3 -2 11 -8t11 -8t10.5 -6.5t11.5 -6.5t11 -4.5t13 -3.5t13 -1q2 0 4 -0.5t4 -0.5q62 0 126 39.5t104 95.5
q73 101 73 253q0 34 -5 67q-14 86 -26 125q-18 53 -71 94q-24 19 -84 40q-39 13 -64 13q-5 0 -20.5 -1.5t-18.5 -1.5q-35 -6 -75 -28z" />
    <glyph glyph-name="uni1EDC" unicode="&#x1edc;" horiz-adv-x="682" 
d="M316 839l2 6q20 -14 62.5 -40.5t64.5 -42.5l-3 -5q-23 17 -66 44t-60 38zM307 9q-5 0 -10 1t-9.5 1.5t-9.5 2.5t-8 3.5t-8 4.5l-7.5 4.5t-7.5 5t-7 5l-8 6t-7 5.5q-2 2 -39.5 24.5t-54.5 38.5q-81 77 -81 227q0 35 4 60q14 103 45 154q42 69 68 92q8 7 25 23.5t31.5 28
t28.5 18.5q42 24 78 28q1 0 17 1.5t22 1.5q24 0 66 -13q62 -22 85 -41q34 -27 49 -48q24 -2 33 13.5t4.5 35t-16.5 32.5l3 2l1 -1q14 -13 18.5 -34.5t-5.5 -37.5t-36 -13q15 -25 22 -45q13 -42 26 -126q5 -35 5 -68q0 -154 -74 -257q-40 -56 -105 -96t-129 -40q-7 0 -9 1z
M255 709q-11 -6 -23 -15t-20.5 -16t-22 -20t-19.5 -18q-11 -10 -22 -24.5t-26 -38t-19 -28.5q-30 -48 -44 -151q-4 -25 -4 -60q0 -148 80 -224q15 -13 47 -33t45 -29q3 -2 11 -8t11 -8t10.5 -6.5t11.5 -6.5t11 -4.5t13 -3.5t13 -1q2 0 4 -0.5t4 -0.5q62 0 126 39.5t104 95.5
q73 101 73 253q0 34 -5 67q-14 86 -26 125q-18 53 -71 94q-24 19 -84 40q-39 13 -64 13q-5 0 -20.5 -1.5t-18.5 -1.5q-35 -6 -75 -28z" />
    <glyph glyph-name="uni1EDD" unicode="&#x1edd;" horiz-adv-x="682" 
d="M316 839l2 6q20 -14 62.5 -40.5t64.5 -42.5l-3 -5q-23 17 -66 44t-60 38zM307 9q-5 0 -10 1t-9.5 1.5t-9.5 2.5t-8 3.5t-8 4.5l-7.5 4.5t-7.5 5t-7 5l-8 6t-7 5.5q-2 2 -39.5 24.5t-54.5 38.5q-81 77 -81 227q0 35 4 60q14 103 45 154q42 69 68 92q8 7 25 23.5t31.5 28
t28.5 18.5q42 24 78 28q1 0 17 1.5t22 1.5q24 0 66 -13q62 -22 85 -41q34 -27 49 -48q24 -2 33 13.5t4.5 35t-16.5 32.5l3 2l1 -1q14 -13 18.5 -34.5t-5.5 -37.5t-36 -13q15 -25 22 -45q13 -42 26 -126q5 -35 5 -68q0 -154 -74 -257q-40 -56 -105 -96t-129 -40q-7 0 -9 1z
M255 709q-11 -6 -23 -15t-20.5 -16t-22 -20t-19.5 -18q-11 -10 -22 -24.5t-26 -38t-19 -28.5q-30 -48 -44 -151q-4 -25 -4 -60q0 -148 80 -224q15 -13 47 -33t45 -29q3 -2 11 -8t11 -8t10.5 -6.5t11.5 -6.5t11 -4.5t13 -3.5t13 -1q2 0 4 -0.5t4 -0.5q62 0 126 39.5t104 95.5
q73 101 73 253q0 34 -5 67q-14 86 -26 125q-18 53 -71 94q-24 19 -84 40q-39 13 -64 13q-5 0 -20.5 -1.5t-18.5 -1.5q-35 -6 -75 -28z" />
    <glyph glyph-name="uni1EDE" unicode="&#x1ede;" horiz-adv-x="682" 
d="M307 9q-5 0 -10 1t-9.5 1.5t-9.5 2.5t-8 3.5t-8 4.5l-7.5 4.5t-7.5 5t-7 5l-8 6t-7 5.5q-2 2 -39.5 24.5t-54.5 38.5q-81 77 -81 227q0 35 4 60q14 103 45 154q42 69 68 92q8 7 25 23.5t31.5 28t28.5 18.5q42 24 78 28q1 0 17 1.5t22 1.5q24 0 66 -13q62 -22 85 -41
q34 -27 49 -48q24 -2 33 13.5t4.5 35t-16.5 32.5l3 2l1 -1q14 -13 18.5 -34.5t-5.5 -37.5t-36 -13q15 -25 22 -45q13 -42 26 -126q5 -35 5 -68q0 -154 -74 -257q-40 -56 -105 -96t-129 -40q-7 0 -9 1zM255 709q-11 -6 -23 -15t-20.5 -16t-22 -20t-19.5 -18
q-11 -10 -22 -24.5t-26 -38t-19 -28.5q-30 -48 -44 -151q-4 -25 -4 -60q0 -148 80 -224q15 -13 47 -33t45 -29q3 -2 11 -8t11 -8t10.5 -6.5t11.5 -6.5t11 -4.5t13 -3.5t13 -1q2 0 4 -0.5t4 -0.5q62 0 126 39.5t104 95.5q73 101 73 253q0 34 -5 67q-14 86 -26 125
q-18 53 -71 94q-24 19 -84 40q-39 13 -64 13q-5 0 -20.5 -1.5t-18.5 -1.5q-35 -6 -75 -28zM376 763h-3q-8 0 11 29q3 5 7 9q6 9 6 18q0 6 -1 8q-1 7 -6 10q-4 3 -12 3q-3 0 -9 -2t-8 -3q-3 -2 -5 -5q-2 -4 -2 -6v-10l-5 1v10q2 11 9 15q12 6 21 6t14 -4q9 -5 9 -20
q0 -13 -7 -25q-2 -3 -7 -10t-8 -12.5t-4 -11.5z" />
    <glyph glyph-name="uni1EDF" unicode="&#x1edf;" horiz-adv-x="682" 
d="M307 9q-5 0 -10 1t-9.5 1.5t-9.5 2.5t-8 3.5t-8 4.5l-7.5 4.5t-7.5 5t-7 5l-8 6t-7 5.5q-2 2 -39.5 24.5t-54.5 38.5q-81 77 -81 227q0 35 4 60q14 103 45 154q42 69 68 92q8 7 25 23.5t31.5 28t28.5 18.5q42 24 78 28q1 0 17 1.5t22 1.5q24 0 66 -13q62 -22 85 -41
q34 -27 49 -48q24 -2 33 13.5t4.5 35t-16.5 32.5l3 2l1 -1q14 -13 18.5 -34.5t-5.5 -37.5t-36 -13q15 -25 22 -45q13 -42 26 -126q5 -35 5 -68q0 -154 -74 -257q-40 -56 -105 -96t-129 -40q-7 0 -9 1zM255 709q-11 -6 -23 -15t-20.5 -16t-22 -20t-19.5 -18
q-11 -10 -22 -24.5t-26 -38t-19 -28.5q-30 -48 -44 -151q-4 -25 -4 -60q0 -148 80 -224q15 -13 47 -33t45 -29q3 -2 11 -8t11 -8t10.5 -6.5t11.5 -6.5t11 -4.5t13 -3.5t13 -1q2 0 4 -0.5t4 -0.5q62 0 126 39.5t104 95.5q73 101 73 253q0 34 -5 67q-14 86 -26 125
q-18 53 -71 94q-24 19 -84 40q-39 13 -64 13q-5 0 -20.5 -1.5t-18.5 -1.5q-35 -6 -75 -28zM376 763h-3q-8 0 11 29q3 5 7 9q6 9 6 18q0 6 -1 8q-1 7 -6 10q-4 3 -12 3q-3 0 -9 -2t-8 -3q-3 -2 -5 -5q-2 -4 -2 -6v-10l-5 1v10q2 11 9 15q12 6 21 6t14 -4q9 -5 9 -20
q0 -13 -7 -25q-2 -3 -7 -10t-8 -12.5t-4 -11.5z" />
    <glyph glyph-name="uni1EE0" unicode="&#x1ee0;" horiz-adv-x="682" 
d="M282 777l-5 5q44 37 74 27q10 -3 31.5 -19t36.5 -18q23 -3 57 21l2 -6q-32 -23 -57 -21q-16 1 -40 18t-33 20q-26 9 -66 -27zM307 9q-5 0 -10 1t-9.5 1.5t-9.5 2.5t-8 3.5t-8 4.5l-7.5 4.5t-7.5 5t-7 5l-8 6t-7 5.5q-2 2 -39.5 24.5t-54.5 38.5q-81 77 -81 227q0 35 4 60
q14 103 45 154q42 69 68 92q8 7 25 23.5t31.5 28t28.5 18.5q42 24 78 28q1 0 17 1.5t22 1.5q24 0 66 -13q62 -22 85 -41q34 -27 49 -48q24 -2 33 13.5t4.5 35t-16.5 32.5l3 2l1 -1q14 -13 19 -35t-5 -38.5t-36 -13.5q15 -24 21 -43q13 -42 26 -126q5 -35 5 -68
q0 -154 -74 -257q-40 -56 -105 -96t-129 -40q-7 0 -9 1zM255 709q-11 -6 -23 -15t-20.5 -16t-22 -20t-19.5 -18q-11 -10 -22 -24.5t-26 -38t-19 -28.5q-30 -48 -44 -151q-4 -25 -4 -60q0 -148 80 -224q15 -13 47 -33t45 -29q3 -2 11 -8t11 -8t10.5 -6.5t11.5 -6.5t11 -4.5
t13 -3.5t13 -1q2 0 4 -0.5t4 -0.5q62 0 126 39.5t104 95.5q73 101 73 253q0 34 -5 67q-14 86 -26 125q-18 53 -71 94q-24 19 -84 40q-39 13 -64 13q-5 0 -20.5 -1.5t-18.5 -1.5q-35 -6 -75 -28z" />
    <glyph glyph-name="uni1EE1" unicode="&#x1ee1;" horiz-adv-x="682" 
d="M282 777l-5 5q44 37 74 27q10 -3 31.5 -19t36.5 -18q23 -3 57 21l2 -6q-32 -23 -57 -21q-16 1 -40 18t-33 20q-26 9 -66 -27zM307 9q-5 0 -10 1t-9.5 1.5t-9.5 2.5t-8 3.5t-8 4.5l-7.5 4.5t-7.5 5t-7 5l-8 6t-7 5.5q-2 2 -39.5 24.5t-54.5 38.5q-81 77 -81 227q0 35 4 60
q14 103 45 154q42 69 68 92q8 7 25 23.5t31.5 28t28.5 18.5q42 24 78 28q1 0 17 1.5t22 1.5q24 0 66 -13q62 -22 85 -41q34 -27 49 -48q24 -2 33 13.5t4.5 35t-16.5 32.5l3 2l1 -1q14 -13 19 -35t-5 -38.5t-36 -13.5q15 -24 21 -43q13 -42 26 -126q5 -35 5 -68
q0 -154 -74 -257q-40 -56 -105 -96t-129 -40q-7 0 -9 1zM255 709q-11 -6 -23 -15t-20.5 -16t-22 -20t-19.5 -18q-11 -10 -22 -24.5t-26 -38t-19 -28.5q-30 -48 -44 -151q-4 -25 -4 -60q0 -148 80 -224q15 -13 47 -33t45 -29q3 -2 11 -8t11 -8t10.5 -6.5t11.5 -6.5t11 -4.5
t13 -3.5t13 -1q2 0 4 -0.5t4 -0.5q62 0 126 39.5t104 95.5q73 101 73 253q0 34 -5 67q-14 86 -26 125q-18 53 -71 94q-24 19 -84 40q-39 13 -64 13q-5 0 -20.5 -1.5t-18.5 -1.5q-35 -6 -75 -28z" />
    <glyph glyph-name="uni1EE2" unicode="&#x1ee2;" horiz-adv-x="682" 
d="M307 9q-5 0 -10 1t-9.5 1.5t-9.5 2.5t-8 3.5t-8 4.5l-7.5 4.5t-7.5 5t-7 5l-8 6t-7 5.5q-2 2 -39.5 24.5t-54.5 38.5q-81 77 -81 227q0 35 4 60q14 103 45 154q42 69 68 92q8 7 25 23.5t31.5 28t28.5 18.5q42 24 78 28q1 0 17 1.5t22 1.5q24 0 66 -13q62 -22 85 -41
q34 -27 49 -48q24 -2 33 13.5t4.5 35t-16.5 32.5l3 2l1 -1q14 -13 18.5 -34.5t-5.5 -37.5t-36 -13q15 -25 22 -45q13 -42 26 -126q5 -35 5 -68q0 -154 -74 -257q-40 -56 -105 -96t-129 -40q-7 0 -9 1zM255 709q-11 -6 -23 -15t-20.5 -16t-22 -20t-19.5 -18
q-11 -10 -22 -24.5t-26 -38t-19 -28.5q-30 -48 -44 -151q-4 -25 -4 -60q0 -148 80 -224q15 -13 47 -33t45 -29q3 -2 11 -8t11 -8t10.5 -6.5t11.5 -6.5t11 -4.5t13 -3.5t13 -1q2 0 4 -0.5t4 -0.5q62 0 126 39.5t104 95.5q73 101 73 253q0 34 -5 67q-14 86 -26 125
q-18 53 -71 94q-24 19 -84 40q-39 13 -64 13q-5 0 -20.5 -1.5t-18.5 -1.5q-35 -6 -75 -28zM334 -104q0 3 2 5t5 2t5 -2t2 -5q0 -2 -3 -5q-2 -2 -4 -2q-5 0 -6 3q0 1 -1 4z" />
    <glyph glyph-name="uni1EE3" unicode="&#x1ee3;" horiz-adv-x="682" 
d="M307 9q-5 0 -10 1t-9.5 1.5t-9.5 2.5t-8 3.5t-8 4.5l-7.5 4.5t-7.5 5t-7 5l-8 6t-7 5.5q-2 2 -39.5 24.5t-54.5 38.5q-81 77 -81 227q0 35 4 60q14 103 45 154q42 69 68 92q8 7 25 23.5t31.5 28t28.5 18.5q42 24 78 28q1 0 17 1.5t22 1.5q24 0 66 -13q62 -22 85 -41
q34 -27 49 -48q24 -2 33 13.5t4.5 35t-16.5 32.5l3 2l1 -1q14 -13 18.5 -34.5t-5.5 -37.5t-36 -13q15 -25 22 -45q13 -42 26 -126q5 -35 5 -68q0 -154 -74 -257q-40 -56 -105 -96t-129 -40q-7 0 -9 1zM255 709q-11 -6 -23 -15t-20.5 -16t-22 -20t-19.5 -18
q-11 -10 -22 -24.5t-26 -38t-19 -28.5q-30 -48 -44 -151q-4 -25 -4 -60q0 -148 80 -224q15 -13 47 -33t45 -29q3 -2 11 -8t11 -8t10.5 -6.5t11.5 -6.5t11 -4.5t13 -3.5t13 -1q2 0 4 -0.5t4 -0.5q62 0 126 39.5t104 95.5q73 101 73 253q0 34 -5 67q-14 86 -26 125
q-18 53 -71 94q-24 19 -84 40q-39 13 -64 13q-5 0 -20.5 -1.5t-18.5 -1.5q-35 -6 -75 -28zM334 -104q0 3 2 5t5 2t5 -2t2 -5q0 -2 -3 -5q-2 -2 -4 -2q-5 0 -6 3q0 1 -1 4z" />
    <glyph glyph-name="uni1EE4" unicode="&#x1ee4;" horiz-adv-x="482" 
d="M19 727v6h118l-1 -5h-59q0 -44 -2 -126l-3 -125v-12q0 -57 9 -120q6 -29 7 -83.5t3 -70.5q6 -65 25 -113q20 -43 51 -57q15 -5 26 -5q26 0 68 22q39 23 61 69q48 98 58 210q9 97 9 191v40q0 15 -2 41q-3 73 -3 142q-57 0 -60 -1l1 6h124l1 -5h-61q0 -69 3 -142
q2 -26 2 -41v-40q0 -93 -9 -192q-11 -117 -59 -211q-12 -27 -25 -42t-37 -29q-44 -23 -71 -23q-11 0 -28 5q-37 15 -53 60q-21 53 -26 114q-2 18 -3.5 71.5t-6.5 82.5q-9 55 -9 121v12l3 125q2 82 2 126q-50 0 -53 -1zM199 -104q0 3 2 5t5 2t5 -2t2 -5q0 -2 -3 -5
q-2 -2 -4 -2q-4 0 -6 3v2z" />
    <glyph glyph-name="uni1EE5" unicode="&#x1ee5;" horiz-adv-x="482" 
d="M19 727v6h118l-1 -5h-59q0 -44 -2 -126l-3 -125v-12q0 -57 9 -120q6 -29 7 -83.5t3 -70.5q6 -65 25 -113q20 -43 51 -57q15 -5 26 -5q26 0 68 22q39 23 61 69q48 98 58 210q9 97 9 191v40q0 15 -2 41q-3 73 -3 142q-57 0 -60 -1l1 6h124l1 -5h-61q0 -69 3 -142
q2 -26 2 -41v-40q0 -93 -9 -192q-11 -117 -59 -211q-12 -27 -25 -42t-37 -29q-44 -23 -71 -23q-11 0 -28 5q-37 15 -53 60q-21 53 -26 114q-2 18 -3.5 71.5t-6.5 82.5q-9 55 -9 121v12l3 125q2 82 2 126q-50 0 -53 -1zM199 -104q0 3 2 5t5 2t5 -2t2 -5q0 -2 -3 -5
q-2 -2 -4 -2q-4 0 -6 3v2z" />
    <glyph glyph-name="uni1EE6" unicode="&#x1ee6;" horiz-adv-x="482" 
d="M19 727v6h118l-1 -5h-59q0 -44 -2 -126l-3 -125v-12q0 -57 9 -120q6 -29 7 -83.5t3 -70.5q6 -65 25 -113q20 -43 51 -57q15 -5 26 -5q26 0 68 22q39 23 61 69q48 98 58 210q9 97 9 191v40q0 15 -2 41q-3 73 -3 142q-57 0 -60 -1l1 6h124l1 -5h-61q0 -69 3 -142
q2 -26 2 -41v-40q0 -93 -9 -192q-11 -117 -59 -211q-12 -27 -25 -42t-37 -29q-44 -23 -71 -23q-11 0 -28 5q-37 15 -53 60q-21 53 -26 114q-2 18 -3.5 71.5t-6.5 82.5q-9 55 -9 121v12l3 125q2 82 2 126q-50 0 -53 -1zM242 763h-3q-8 0 11 29q3 5 7 9q6 9 6 18q0 6 -1 8
q-1 7 -6 10q-4 3 -12 3q-3 0 -9 -2t-8 -3q-3 -2 -5 -5q-2 -4 -2 -6v-10l-5 1v10q2 11 9 15q12 6 21 6t14 -4q9 -5 9 -20q0 -13 -7 -25q-2 -3 -7 -10t-8 -12.5t-4 -11.5z" />
    <glyph glyph-name="uni1EE7" unicode="&#x1ee7;" horiz-adv-x="482" 
d="M19 727v6h118l-1 -5h-59q0 -44 -2 -126l-3 -125v-12q0 -57 9 -120q6 -29 7 -83.5t3 -70.5q6 -65 25 -113q20 -43 51 -57q15 -5 26 -5q26 0 68 22q39 23 61 69q48 98 58 210q9 97 9 191v40q0 15 -2 41q-3 73 -3 142q-57 0 -60 -1l1 6h124l1 -5h-61q0 -69 3 -142
q2 -26 2 -41v-40q0 -93 -9 -192q-11 -117 -59 -211q-12 -27 -25 -42t-37 -29q-44 -23 -71 -23q-11 0 -28 5q-37 15 -53 60q-21 53 -26 114q-2 18 -3.5 71.5t-6.5 82.5q-9 55 -9 121v12l3 125q2 82 2 126q-50 0 -53 -1zM242 763h-3q-8 0 11 29q3 5 7 9q6 9 6 18q0 6 -1 8
q-1 7 -6 10q-4 3 -12 3q-3 0 -9 -2t-8 -3q-3 -2 -5 -5q-2 -4 -2 -6v-10l-5 1v10q2 11 9 15q12 6 21 6t14 -4q9 -5 9 -20q0 -13 -7 -25q-2 -3 -7 -10t-8 -12.5t-4 -11.5z" />
    <glyph glyph-name="uni1EE8" unicode="&#x1ee8;" horiz-adv-x="482" 
d="M269 838l2 -6q-24 -16 -48 -34.5t-41 -30.5l-3 5q19 13 43 31.5t47 34.5zM421 734l4 2h1q7 -7 9.5 -31.5t-8 -47t-37.5 -18.5q0 -16 2 -50q2 -26 2 -41v-40q0 -93 -9 -192q-11 -117 -59 -211q-12 -27 -25 -42t-37 -29q-44 -23 -71 -23q-11 0 -28 5q-37 15 -53 60
q-21 53 -26 114q-2 18 -3.5 71.5t-6.5 82.5q-9 55 -9 121v12l3 125q2 82 2 126q-50 0 -53 -1v6h118l-1 -5h-59q0 -44 -2 -126l-3 -125v-12q0 -57 9 -120q6 -29 7 -83.5t3 -70.5q6 -65 25 -113q20 -43 51 -57q15 -5 26 -5q26 0 68 22q39 23 61 69q48 98 58 210q9 97 9 191v40
q0 15 -2 41q-3 73 -3 142q-57 0 -60 -1l1 6h63l1 -5q0 -58 1 -88q23 -4 33 17t7.5 44.5t-9.5 29.5z" />
    <glyph glyph-name="uni1EE9" unicode="&#x1ee9;" horiz-adv-x="482" 
d="M269 838l2 -6q-24 -16 -48 -34.5t-41 -30.5l-3 5q19 13 43 31.5t47 34.5zM421 734l4 2h1q7 -7 9.5 -31.5t-8 -47t-37.5 -18.5q0 -16 2 -50q2 -26 2 -41v-40q0 -93 -9 -192q-11 -117 -59 -211q-12 -27 -25 -42t-37 -29q-44 -23 -71 -23q-11 0 -28 5q-37 15 -53 60
q-21 53 -26 114q-2 18 -3.5 71.5t-6.5 82.5q-9 55 -9 121v12l3 125q2 82 2 126q-50 0 -53 -1v6h118l-1 -5h-59q0 -44 -2 -126l-3 -125v-12q0 -57 9 -120q6 -29 7 -83.5t3 -70.5q6 -65 25 -113q20 -43 51 -57q15 -5 26 -5q26 0 68 22q39 23 61 69q48 98 58 210q9 97 9 191v40
q0 15 -2 41q-3 73 -3 142q-57 0 -60 -1l1 6h63l1 -5q0 -58 1 -88q23 -4 33 17t7.5 44.5t-9.5 29.5z" />
    <glyph glyph-name="uni1EEA" unicode="&#x1eea;" horiz-adv-x="482" 
d="M180 829l2 6q23 -16 47 -34.5t43 -31.5l-3 -5q-17 12 -41 30.5t-48 34.5zM421 734l4 2h1q7 -7 9.5 -31.5t-8 -47t-37.5 -18.5q0 -16 2 -50q2 -26 2 -41v-40q0 -93 -9 -192q-11 -117 -59 -211q-12 -27 -25 -42t-37 -29q-44 -23 -71 -23q-11 0 -28 5q-37 15 -53 60
q-21 53 -26 114q-2 18 -3.5 71.5t-6.5 82.5q-9 55 -9 121v12l3 125q2 82 2 126q-50 0 -53 -1v6h118l-1 -5h-59q0 -44 -2 -126l-3 -125v-12q0 -57 9 -120q6 -29 7 -83.5t3 -70.5q6 -65 25 -113q20 -43 51 -57q15 -5 26 -5q26 0 68 22q39 23 61 69q48 98 58 210q9 97 9 191v40
q0 15 -2 41q-3 73 -3 142q-57 0 -60 -1l1 6h63l1 -5q0 -58 1 -88q23 -4 33 17t7.5 44.5t-9.5 29.5z" />
    <glyph glyph-name="uni1EEB" unicode="&#x1eeb;" horiz-adv-x="482" 
d="M180 829l2 6q23 -16 47 -34.5t43 -31.5l-3 -5q-17 12 -41 30.5t-48 34.5zM421 734l4 2h1q7 -7 9.5 -31.5t-8 -47t-37.5 -18.5q0 -16 2 -50q2 -26 2 -41v-40q0 -93 -9 -192q-11 -117 -59 -211q-12 -27 -25 -42t-37 -29q-44 -23 -71 -23q-11 0 -28 5q-37 15 -53 60
q-21 53 -26 114q-2 18 -3.5 71.5t-6.5 82.5q-9 55 -9 121v12l3 125q2 82 2 126q-50 0 -53 -1v6h118l-1 -5h-59q0 -44 -2 -126l-3 -125v-12q0 -57 9 -120q6 -29 7 -83.5t3 -70.5q6 -65 25 -113q20 -43 51 -57q15 -5 26 -5q26 0 68 22q39 23 61 69q48 98 58 210q9 97 9 191v40
q0 15 -2 41q-3 73 -3 142q-57 0 -60 -1l1 6h63l1 -5q0 -58 1 -88q23 -4 33 17t7.5 44.5t-9.5 29.5z" />
    <glyph glyph-name="uni1EEC" unicode="&#x1eec;" horiz-adv-x="482" 
d="M421 734l4 2h1q7 -7 9.5 -31.5t-8 -47t-37.5 -18.5q0 -16 2 -50q2 -26 2 -41v-40q0 -93 -9 -192q-11 -117 -59 -211q-12 -27 -25 -42t-37 -29q-44 -23 -71 -23q-11 0 -28 5q-37 15 -53 60q-21 53 -26 114q-2 18 -3.5 71.5t-6.5 82.5q-9 55 -9 121v12l3 125q2 82 2 126
q-50 0 -53 -1v6h118l-1 -5h-59q0 -44 -2 -126l-3 -125v-12q0 -57 9 -120q6 -29 7 -83.5t3 -70.5q6 -65 25 -113q20 -43 51 -57q15 -5 26 -5q26 0 68 22q39 23 61 69q48 98 58 210q9 97 9 191v40q0 15 -2 41q-3 73 -3 142q-57 0 -60 -1l1 6h63l1 -5q0 -58 1 -88q23 -4 33 17
t7.5 44.5t-9.5 29.5zM242 763h-3q-8 0 11 29q3 5 7 9q6 9 6 18q0 6 -1 8q-1 7 -6 10q-4 3 -12 3q-3 0 -9 -2t-8 -3q-3 -2 -5 -5q-2 -4 -2 -6v-10l-5 1v10q2 11 9 15q12 6 21 6t14 -4q9 -5 9 -20q0 -13 -7 -25q-2 -3 -7 -10t-8 -12.5t-4 -11.5z" />
    <glyph glyph-name="uni1EED" unicode="&#x1eed;" horiz-adv-x="482" 
d="M421 734l4 2h1q7 -7 9.5 -31.5t-8 -47t-37.5 -18.5q0 -16 2 -50q2 -26 2 -41v-40q0 -93 -9 -192q-11 -117 -59 -211q-12 -27 -25 -42t-37 -29q-44 -23 -71 -23q-11 0 -28 5q-37 15 -53 60q-21 53 -26 114q-2 18 -3.5 71.5t-6.5 82.5q-9 55 -9 121v12l3 125q2 82 2 126
q-50 0 -53 -1v6h118l-1 -5h-59q0 -44 -2 -126l-3 -125v-12q0 -57 9 -120q6 -29 7 -83.5t3 -70.5q6 -65 25 -113q20 -43 51 -57q15 -5 26 -5q26 0 68 22q39 23 61 69q48 98 58 210q9 97 9 191v40q0 15 -2 41q-3 73 -3 142q-57 0 -60 -1l1 6h63l1 -5q0 -58 1 -88q23 -4 33 17
t7.5 44.5t-9.5 29.5zM242 763h-3q-8 0 11 29q3 5 7 9q6 9 6 18q0 6 -1 8q-1 7 -6 10q-4 3 -12 3q-3 0 -9 -2t-8 -3q-3 -2 -5 -5q-2 -4 -2 -6v-10l-5 1v10q2 11 9 15q12 6 21 6t14 -4q9 -5 9 -20q0 -13 -7 -25q-2 -3 -7 -10t-8 -12.5t-4 -11.5z" />
    <glyph glyph-name="uni1EEE" unicode="&#x1eee;" horiz-adv-x="482" 
d="M145 777l-5 5q44 37 74 27q10 -3 31.5 -19t36.5 -18q23 -3 57 21l2 -6q-32 -23 -57 -21q-16 1 -40 18t-33 20q-26 9 -66 -27zM421 734l4 2h1q7 -7 9.5 -31.5t-8 -47t-37.5 -18.5q0 -16 2 -50q2 -26 2 -41v-40q0 -93 -9 -192q-11 -117 -59 -211q-12 -27 -25 -42t-37 -29
q-44 -23 -71 -23q-11 0 -28 5q-37 15 -53 60q-21 53 -26 114q-2 18 -3.5 71.5t-6.5 82.5q-9 55 -9 121v12l3 125q2 82 2 126q-50 0 -53 -1v6h118l-1 -5h-59q0 -44 -2 -126l-3 -125v-12q0 -57 9 -120q6 -29 7 -83.5t3 -70.5q6 -65 25 -113q20 -43 51 -57q15 -5 26 -5
q26 0 68 22q39 23 61 69q48 98 58 210q9 97 9 191v40q0 15 -2 41q-3 73 -3 142q-57 0 -60 -1l1 6h63l1 -5q0 -58 1 -88q23 -4 33 17t7.5 44.5t-9.5 29.5z" />
    <glyph glyph-name="uni1EEF" unicode="&#x1eef;" horiz-adv-x="482" 
d="M145 777l-5 5q44 37 74 27q10 -3 31.5 -19t36.5 -18q23 -3 57 21l2 -6q-32 -23 -57 -21q-16 1 -40 18t-33 20q-26 9 -66 -27zM421 734l4 2h1q7 -7 9.5 -31.5t-8 -47t-37.5 -18.5q0 -16 2 -50q2 -26 2 -41v-40q0 -93 -9 -192q-11 -117 -59 -211q-12 -27 -25 -42t-37 -29
q-44 -23 -71 -23q-11 0 -28 5q-37 15 -53 60q-21 53 -26 114q-2 18 -3.5 71.5t-6.5 82.5q-9 55 -9 121v12l3 125q2 82 2 126q-50 0 -53 -1v6h118l-1 -5h-59q0 -44 -2 -126l-3 -125v-12q0 -57 9 -120q6 -29 7 -83.5t3 -70.5q6 -65 25 -113q20 -43 51 -57q15 -5 26 -5
q26 0 68 22q39 23 61 69q48 98 58 210q9 97 9 191v40q0 15 -2 41q-3 73 -3 142q-57 0 -60 -1l1 6h63l1 -5q0 -58 1 -88q23 -4 33 17t7.5 44.5t-9.5 29.5z" />
    <glyph glyph-name="uni1EF0" unicode="&#x1ef0;" horiz-adv-x="482" 
d="M421 734l4 2h1q7 -7 9.5 -31.5t-8 -47t-37.5 -18.5q0 -16 2 -50q2 -26 2 -41v-40q0 -93 -9 -192q-11 -117 -59 -211q-12 -27 -25 -42t-37 -29q-44 -23 -71 -23q-11 0 -28 5q-37 15 -53 60q-21 53 -26 114q-2 18 -3.5 71.5t-6.5 82.5q-9 55 -9 121v12l3 125q2 82 2 126
q-50 0 -53 -1v6h118l-1 -5h-59q0 -44 -2 -126l-3 -125v-12q0 -57 9 -120q6 -29 7 -83.5t3 -70.5q6 -65 25 -113q20 -43 51 -57q15 -5 26 -5q26 0 68 22q39 23 61 69q48 98 58 210q9 97 9 191v40q0 15 -2 41q-3 73 -3 142q-57 0 -60 -1l1 6h63l1 -5q0 -58 1 -88q23 -4 33 17
t7.5 44.5t-9.5 29.5zM199 -104q0 3 2 5t5 2t5 -2t2 -5q0 -2 -3 -5q-2 -2 -4 -2q-4 0 -6 3v2z" />
    <glyph glyph-name="uni1EF1" unicode="&#x1ef1;" horiz-adv-x="482" 
d="M421 734l4 2h1q7 -7 9.5 -31.5t-8 -47t-37.5 -18.5q0 -16 2 -50q2 -26 2 -41v-40q0 -93 -9 -192q-11 -117 -59 -211q-12 -27 -25 -42t-37 -29q-44 -23 -71 -23q-11 0 -28 5q-37 15 -53 60q-21 53 -26 114q-2 18 -3.5 71.5t-6.5 82.5q-9 55 -9 121v12l3 125q2 82 2 126
q-50 0 -53 -1v6h118l-1 -5h-59q0 -44 -2 -126l-3 -125v-12q0 -57 9 -120q6 -29 7 -83.5t3 -70.5q6 -65 25 -113q20 -43 51 -57q15 -5 26 -5q26 0 68 22q39 23 61 69q48 98 58 210q9 97 9 191v40q0 15 -2 41q-3 73 -3 142q-57 0 -60 -1l1 6h63l1 -5q0 -58 1 -88q23 -4 33 17
t7.5 44.5t-9.5 29.5zM199 -104q0 3 2 5t5 2t5 -2t2 -5q0 -2 -3 -5q-2 -2 -4 -2q-4 0 -6 3v2z" />
    </font>
</defs>
</svg>
