<?xml version="1.0" standalone="no"?>
<!DOCTYPE svg PUBLIC "-//W3C//DTD SVG 1.1//EN" "http://www.w3.org/Graphics/SVG/1.1/DTD/svg11.dtd" >
<svg xmlns="http://www.w3.org/2000/svg" xmlns:xlink="http://www.w3.org/1999/xlink" version="1.1">
<metadata>
Created by FontForge 20170731 at Thu May 23 05:50:25 2013
 By Aleksey,,,
?2002 Gareth Hague / Alias
</metadata>
<defs>
<font id="UVFPerla" horiz-adv-x="831" >
  <font-face 
    font-family="UVF Perla"
    font-weight="400"
    font-stretch="normal"
    units-per-em="1000"
    panose-1="2 0 0 0 0 0 0 0 0 0"
    ascent="800"
    descent="-200"
    x-height="800"
    cap-height="800"
    bbox="-60 -246 1399 1325.25"
    underline-thickness="20"
    underline-position="-153"
    unicode-range="U+0005-2122"
  />
<missing-glyph horiz-adv-x="1000" 
 />
    <glyph glyph-name=".notdef" horiz-adv-x="1000" 
 />
    <glyph glyph-name=".null" horiz-adv-x="0" 
 />
    <glyph glyph-name="nonmarkingreturn" horiz-adv-x="200" 
 />
    <glyph glyph-name="breve" horiz-adv-x="791" 
d="M586 1082q-12 -29 -29.5 -58.5t-41 -53t-53.5 -38t-66 -14.5t-66 14.5t-54 38t-41.5 53t-29.5 58.5l10 4q12 -29 29 -57t39 -50.5t50 -36.5t63 -14q34 0 62.5 14.5t51 37t39.5 50.5t28 56l9 -4v0z" />
    <glyph glyph-name="dotaccent" horiz-adv-x="807" 
d="M475 955q0 -30 -21 -51t-51 -21q-29 0 -50.5 21t-21.5 51t21.5 51t50.5 21q30 0 51 -21t21 -51z" />
    <glyph glyph-name="ring" horiz-adv-x="809" 
d="M512 966q0 -20 -7.5 -37.5t-21 -30.5t-31 -20.5t-37.5 -7.5q-40 0 -68 28t-28 68q0 42 28 69.5t68 27.5q20 0 37.5 -7.5t31 -20.5t21 -31t7.5 -38zM502 966q0 36 -25.5 61.5t-61.5 25.5q-18 0 -33.5 -7t-27 -18.5t-18.5 -27.5t-7 -34t7 -33.5t18.5 -27t27 -18.5t33.5 -7
t34 7t27.5 18.5t18.5 27t7 33.5z" />
    <glyph glyph-name="hungarumlaut" unicode="&#xa;" horiz-adv-x="809" 
d="M476 869l-11 5l102 182l11 -5zM276 869l-11 5l102 182l11 -5z" />
    <glyph glyph-name="caron" horiz-adv-x="796" 
d="M398 889l-195 193l9 7l186 -184l186 184l9 -7z" />
    <glyph glyph-name="dotlessi" unicode="&#xd;" horiz-adv-x="450" 
d="M0 0v10h145v510h-145v10h305v-520h145v-10h-450z" />
    <glyph glyph-name="Lslash" horiz-adv-x="705" 
d="M0 0v10h145v361l-139 -69l-6 11l145 72v405h-145v10h450v-10h-145v-325l139 70l6 -11l-145 -73v-441h78q58 0 109.5 22t90 60.5t60.5 90t22 110.5h10v-293h-675z" />
    <glyph glyph-name="lslash" horiz-adv-x="429" 
d="M275 451v-391q0 -23 15.5 -36t38.5 -13q11 0 22.5 3.5t21.5 10.5t16 16.5t6 21.5t12 12t12 -11t-10 -21q-23 -25 -55 -39t-68 -14t-67 13.5t-54 36.5t-36.5 54t-13.5 67v210l-139 -69l-6 11l145 72v405h-145v10h305v-335l139 70l6 -11z" />
    <glyph glyph-name="Zcaron" horiz-adv-x="730" 
d="M40 0v10l425 780h-124q-50 0 -94 -19t-77 -51.5t-52 -76.5t-19 -94h-9v251h550v-10l-425 -780h163q58 0 109.5 22t90 60.5t60.5 90t22 110.5h10v-293h-630zM398 889l-195 193l9 7l186 -184l186 184l9 -7z" />
    <glyph glyph-name="zcaron" horiz-adv-x="730" 
d="M40 0v10l425 780h-124q-50 0 -94 -19t-77 -51.5t-52 -76.5t-19 -94h-9v251h550v-10l-425 -780h163q58 0 109.5 22t90 60.5t60.5 90t22 110.5h10v-293h-630zM398 889l-195 193l9 7l186 -184l186 184l9 -7z" />
    <glyph glyph-name="space" unicode=" " horiz-adv-x="200" 
 />
    <glyph glyph-name="space" unicode="&#xa0;" horiz-adv-x="200" 
 />
    <glyph glyph-name="exclam" unicode="!" horiz-adv-x="300" 
d="M240 708q0 -43 -13.5 -87.5t-29 -98t-29 -119.5t-13.5 -152h-10q0 86 -13.5 152t-29 119.5t-29 98t-13.5 87.5q0 25 7.5 44.5t20.5 32t29 19t33 6.5t33 -6.5t29 -19t20.5 -32t7.5 -44.5zM239 79q0 -37 -26 -63t-63 -26t-63 26t-26 63t26 63t63 26t63 -26t26 -63z" />
    <glyph glyph-name="quotedbl" unicode="&#x22;" horiz-adv-x="329" 
d="M161 524l-11 5l138 270l11 -5zM41 524l-11 5l138 270l11 -5z" />
    <glyph glyph-name="numbersign" unicode="#" horiz-adv-x="536" 
d="M407 505l-64 -210h127v-10h-130l-86 -282l-12 3l85 279h-187l-86 -282l-12 3l85 279h-127v10h130l64 210h-127v10h130l86 282l12 -3l-85 -279h187l86 282l12 -3l-85 -279h126v-10h-129zM207 505l-64 -210h187l64 210h-187z" />
    <glyph glyph-name="dollar" unicode="$" horiz-adv-x="607" 
d="M557 253q0 -38 -15.5 -75.5t-44.5 -69t-70 -53.5t-92 -30v-85h-12v83q-21 -3 -44 -3q-3 0 -6.5 0.5t-7.5 0.5v-81h-12v81q-41 3 -77.5 16.5t-64.5 37t-44.5 57t-16.5 77.5q0 23 6.5 43.5t19 36t30.5 24.5t42 9q16 0 31.5 -5.5t27.5 -16.5t19.5 -27t7.5 -37
q0 -29 -12.5 -44t-27 -27t-27 -25.5t-12.5 -39.5q0 -27 28 -45.5t70 -23.5v328q-30 14 -58.5 31t-50.5 40.5t-35.5 56t-13.5 77.5q0 43 12.5 77t34 59.5t50.5 42t61 24.5v93h12v-90q28 6 58 6v84h12v-84q53 -2 91 -18t62.5 -40.5t36 -54t11.5 -58.5q0 -22 -6.5 -41.5
t-18.5 -34.5t-30 -23.5t-40 -8.5q-40 0 -63.5 25t-23.5 56q0 30 12.5 44t27.5 23.5t27.5 21t12.5 37.5q0 27 -29.5 43.5t-69.5 18.5v-288q39 -18 78.5 -36.5t71.5 -44t52 -60t20 -84.5zM323 766q-31 0 -58 -10v-242q14 -8 28.5 -15.5t29.5 -15.5v283zM253 751
q-31 -14 -51.5 -40t-20.5 -68t20 -70.5t52 -50.5v229zM438 179q0 28 -8 49.5t-22 38.5t-32.5 30t-40.5 24v-282q51 16 77 55.5t26 84.5zM323 327q-14 7 -28.5 13.5t-29.5 13.5v-324h12q21 0 46 5v292z" />
    <glyph glyph-name="percent" unicode="%" horiz-adv-x="721" 
d="M346 634q0 -35 -13.5 -66t-36.5 -54t-54 -36.5t-66 -13.5q-36 0 -67 13.5t-54 36.5t-36.5 54t-13.5 66q0 36 13.5 67t36.5 54t54 36.5t67 13.5q35 0 66 -13.5t54 -36.5t36.5 -54t13.5 -67zM71 -7l-8 6l545 808l9 -6zM671 165q0 -35 -13.5 -66t-36.5 -54t-54 -36.5
t-66 -13.5q-36 0 -67 13.5t-54 36.5t-36.5 54t-13.5 66q0 36 13.5 67t36.5 54t54 36.5t67 13.5q35 0 66 -13.5t54 -36.5t36.5 -54t13.5 -67z" />
    <glyph glyph-name="ampersand" unicode="&#x26;" horiz-adv-x="846" 
d="M821 548q0 -39 -12 -77t-35 -68t-56.5 -48.5t-76.5 -18.5q-11 -1 -23.5 1t-26.5 5q39 -19 64.5 -52t25.5 -78q0 -59 -27 -101t-69 -69t-94 -40t-102 -13q-88 0 -152.5 20t-107 52.5t-63.5 74t-21 83.5q0 38 16.5 74.5t48 64.5t78.5 45t108 17h13l-1 1q-38 2 -74 12.5
t-64.5 31.5t-46 53t-17.5 76q0 52 21 92t55 67t77 41t87 14h6q48 0 83.5 -15t59 -39.5t34.5 -54.5t11 -60q0 -25 -7 -47.5t-21 -40t-34 -28t-45 -10.5q-33 0 -59.5 21.5t-26.5 64.5q0 31 15.5 46.5t33.5 27t33.5 24.5t15.5 38q0 29 -25.5 46.5t-67.5 16.5h-6
q-21 0 -40 -10.5t-33.5 -35t-23.5 -64t-9 -96.5q0 -30 4 -60t16 -54t34 -39t58 -15l12 1v-11l-12 -1q-38 0 -66.5 -15.5t-47.5 -42t-29 -60.5t-10 -70q0 -41 13 -81t39.5 -72t67.5 -51.5t98 -19.5q44 0 93.5 16.5t84.5 43.5q37 28 56.5 65.5t19.5 85.5q0 36 -17 63t-44 44.5
t-60 26.5t-64 9q-19 0 -41 -3.5t-41 -13t-31.5 -25t-12.5 -39.5q0 -16 7.5 -32t26.5 -16q17 0 25 13.5t17.5 30t25.5 30t49 13.5q22 0 38 -7.5t27 -19.5t16.5 -27.5t5.5 -31.5q0 -26 -9 -45.5t-23.5 -33t-34 -20.5t-40.5 -7q-35 0 -61.5 15.5t-44 40t-26.5 55t-9 60.5
q0 36 11.5 71t36 62.5t62 44.5t90.5 17q12 0 29 -2t37 -5t42 -5t44 -2q31 0 51.5 7t33.5 18t18.5 24.5t5.5 26.5q0 20 -10.5 35.5t-24.5 15.5q-16 0 -23.5 -14t-16.5 -30.5t-25 -30t-50 -13.5q-44 0 -65.5 26t-21.5 59q0 25 9 45t23.5 33.5t34 21t40.5 7.5q31 0 57 -13.5
t44.5 -35.5t28.5 -50t10 -57z" />
    <glyph glyph-name="quotesingle" unicode="'" horiz-adv-x="209" 
d="M41 524l-11 5l138 270l11 -5z" />
    <glyph glyph-name="parenleft" unicode="(" horiz-adv-x="412" 
d="M361 -20q-51 4 -106 38.5t-100.5 91t-75 131t-29.5 159.5t29.5 159.5t75 131t100.5 91t106 38.5l1 -10q-8 -1 -15.5 -2t-15.5 -3q-42 -12 -71 -48t-47 -90t-26 -122.5t-8 -144.5q0 -83 9.5 -156t31 -128.5t56.5 -89t86 -36.5z" />
    <glyph glyph-name="parenright" unicode=")" horiz-adv-x="412" 
d="M362 400q0 -85 -29.5 -159.5t-75 -131t-100.5 -91t-106 -38.5l-1 10q51 3 86 36.5t56.5 89t31 128.5t9.5 156q0 76 -8 144.5t-26 122.5t-47 90t-71 48q-8 2 -15.5 3t-15.5 2l1 10q51 -4 106 -38.5t100.5 -91t75 -131t29.5 -159.5z" />
    <glyph glyph-name="asterisk" unicode="*" horiz-adv-x="541" 
d="M516 614q0 -21 -12 -38t-33 -24t-44 -7q-28 0 -54 8t-54 8q-9 0 -19 -2.5t-21 -6.5q14 -21 29 -31q15 -11 31.5 -17.5t33 -14t32.5 -19t30 -30.5q12 -18 12 -39q0 -26 -19 -45.5t-46 -19.5q-15 0 -29 7t-23 20q-14 19 -20 38t-8 37t-3.5 36t-7.5 36q-4 15 -20 37
q-16 -19 -21 -38q-6 -18 -7.5 -36t-3.5 -36t-7.5 -36.5t-19.5 -37.5q-10 -14 -24 -20.5t-29 -6.5q-27 0 -46 19.5t-19 46.5q0 20 12 38q15 19 31 30t32.5 18.5t33 14.5t31.5 18q8 6 14.5 14t14.5 17q-11 4 -21 6.5t-21 2.5q-28 -1 -53 -8.5t-54 -7.5q-23 0 -44 7t-33 24
t-12 38q0 26 19 45.5t46 19.5q24 0 42 -11t34 -26.5t30.5 -32.5t30.5 -29q8 -6 18 -10t21 -8q0 12 -1 22.5t-4 20.5q-6 18 -15.5 33t-18 30.5t-15 34t-6.5 42.5q0 27 19 46t46 19t46 -19t19 -46q0 -24 -6.5 -42.5t-15.5 -34t-18.5 -31t-15.5 -33.5q-3 -9 -3.5 -19.5
t-0.5 -22.5q11 4 20.5 8t17.5 10q16 12 31 29t30.5 32.5t34 26.5t41.5 11q28 0 46.5 -19.5t18.5 -45.5z" />
    <glyph glyph-name="plus" unicode="+" horiz-adv-x="660" 
d="M346 394v-264h-12v264h-264v12h264v264h12v-264h264v-12h-264z" />
    <glyph glyph-name="comma" unicode="," horiz-adv-x="278" 
d="M228 63q0 -28 -8 -57.5t-27 -53.5t-51.5 -40t-81.5 -17v9q38 0 53 17.5t15 37.5q0 22 -9.5 29.5t-25.5 17.5q-14 9 -28.5 26t-14.5 49q0 22 7.5 38t19.5 27t27.5 16.5t31.5 5.5q46 0 69 -31.5t23 -73.5z" />
    <glyph glyph-name="hyphen" unicode="-" horiz-adv-x="330" 
d="M50 275v110h230v-110h-230z" />
    <glyph glyph-name="period" unicode="." horiz-adv-x="278" 
d="M228 79q0 -37 -26 -63t-63 -26t-63 26t-26 63t26 63t63 26t63 -26t26 -63z" />
    <glyph glyph-name="slash" unicode="/" horiz-adv-x="481" 
d="M21 -5l-11 5l410 805l11 -5z" />
    <glyph glyph-name="zero" unicode="0" horiz-adv-x="667" 
d="M617 401q0 -85 -20 -160t-56.5 -130.5t-89 -88t-117.5 -32.5q-66 0 -118.5 32.5t-89 88t-56.5 130.5t-20 160t20 159.5t56.5 130t89 87.5t118.5 32q65 0 117.5 -32t89 -87.5t56.5 -130t20 -159.5zM487 400q0 86 -3 159.5t-18 127t-46 83.5t-86 30t-86 -30t-46 -83.5
t-18.5 -127t-3.5 -159.5q0 -87 3.5 -160t18.5 -126.5t46 -83.5t86 -30t86 30t46 83.5t18 126.5t3 160z" />
    <glyph glyph-name="one" unicode="1" horiz-adv-x="430" 
d="M50 0v10h105v760l-86 -238h-1l-9 4l96 264h120v-790h105v-10h-330z" />
    <glyph glyph-name="two" unicode="2" horiz-adv-x="565" 
d="M50 0v41l131 121q96 88 144 194.5t48 237.5q0 42 -6.5 79.5t-20 65.5t-35.5 44.5t-53 16.5q-13 0 -16 -1q-42 -4 -53.5 -24.5t-11.5 -45.5q0 -24 7 -51t7 -52q0 -20 -18 -32.5t-42 -12.5q-27 0 -50 17.5t-23 59.5q0 34 15 61.5t40 46.5t58 30t70 13q3 1 10 1h10
q45 0 88.5 -13t78 -40t55.5 -69t21 -100q0 -59 -26.5 -112.5t-65.5 -101t-84.5 -89.5t-83.5 -77l-106 -98h357v105h10v-215h-455z" />
    <glyph glyph-name="three" unicode="3" horiz-adv-x="560" 
d="M520 239q0 -46 -16.5 -90.5t-49.5 -80t-82 -57t-113 -21.5h-1q-41 0 -78.5 10t-66.5 29.5t-46 47.5t-17 65q0 42 23 59.5t50 17.5q24 0 42 -12.5t18 -32.5q0 -18 -8 -36.5t-8 -39.5q0 -18 3 -35.5t12 -31.5t26.5 -22.5t47.5 -8.5h3q34 0 60 21t43 54.5t25.5 76.5t8.5 87
q0 40 -5.5 78t-20.5 68t-40.5 48.5t-64.5 18.5q-15 0 -27.5 -2.5t-25.5 -10.5q-8 -5 -17 -15t-17 -20q-10 -11 -19 -25l-8 6l231 305h-308v-105h-10v215h407v-10l-256 -338q11 6 23.5 8t25.5 2q55 0 101.5 -13t81 -40t54 -69.5t19.5 -100.5z" />
    <glyph glyph-name="four" unicode="4" horiz-adv-x="565" 
d="M388 153v-143h105v-10h-320v10h105v143h-238v10l316 647l9 -5l-269 -552h182v142h110v-142h122v105h10v-205h-132z" />
    <glyph glyph-name="five" unicode="5" horiz-adv-x="550" 
d="M505 239q0 -46 -16.5 -90.5t-49.5 -80t-82 -57t-113 -21.5h-1q-41 0 -78.5 10t-66.5 29.5t-46 47.5t-17 65q0 42 23 59.5t50 17.5q24 0 42 -12.5t18 -32.5q0 -18 -8 -36.5t-8 -39.5q0 -14 2 -31t11 -32t27.5 -25t51.5 -10q34 0 60 21t43 54.5t25.5 76.5t8.5 87
q0 40 -6.5 78t-22.5 68t-42.5 48.5t-65.5 18.5q-42 0 -69 -20t-44 -55l-11 1l47 440l11 -1q42 -19 86.5 -37.5t89.5 -18.5q22 0 43 6t41 20l5 -8q-48 -45 -90 -68.5t-90 -23.5q-44 0 -98 21l-32 -305q38 59 110 59q65 0 114 -16t82 -45.5t49.5 -70.5t16.5 -91z" />
    <glyph glyph-name="six" unicode="6" horiz-adv-x="600" 
d="M555 228q0 -53 -20.5 -97t-55 -75.5t-80.5 -48.5t-97 -17q-50 0 -96 19.5t-82 59.5t-57.5 101t-21.5 145q0 123 22 211.5t58 148t81.5 91t92.5 40.5q15 4 33 4h9q43 0 75 -14t53 -35t31.5 -46.5t10.5 -47.5q0 -28 -16.5 -47t-51.5 -19q-24 0 -42 12.5t-18 32.5
q0 12 2.5 22t5.5 19.5t5.5 20t2.5 24.5q0 13 -2 25t-9 21.5t-19 15.5t-33 6q-20 0 -35 -4q-43 -11 -69.5 -51.5t-40.5 -96.5t-19 -120t-5 -121v-24q14 29 41.5 48t59.5 26q11 2 21 3.5t20 1.5q42 0 85.5 -14.5t79.5 -43.5t58.5 -73t22.5 -103zM437 222q0 62 -11.5 105.5
t-30 71t-43.5 40t-52 12.5q-24 0 -47.5 -8t-42.5 -23t-31 -36t-12 -47v-14q0 -12 -0.5 -30t-0.5 -31q0 -69 11.5 -118.5t30.5 -81.5t43.5 -47t50.5 -15q27 0 51.5 14.5t43 42.5t29.5 69.5t11 95.5z" />
    <glyph glyph-name="seven" unicode="7" horiz-adv-x="515" 
d="M99 -5l-10 5l357 700h-401v-105h-10v205h469v-10z" />
    <glyph glyph-name="eight" unicode="8" horiz-adv-x="596" 
d="M551 217q0 -48 -20 -89.5t-54 -72t-80.5 -48t-98.5 -17.5q-53 0 -99 17.5t-80 48t-54 71.5t-20 89q0 43 16.5 80.5t45 67t68 48.5t84.5 25q-40 5 -73.5 21t-57.5 40.5t-37.5 55.5t-13.5 67q0 40 16.5 74.5t46 60t69.5 40t88 14.5t88 -14.5t69.5 -40t46 -60t16.5 -74.5
q0 -36 -13 -67t-37 -55.5t-57.5 -40.5t-73.5 -21q46 -6 85 -25t68 -48t45.5 -66.5t16.5 -80.5zM400 621q0 35 -2 67.5t-12 57t-31 39.5t-58 15q-38 0 -58.5 -15t-30.5 -39.5t-12 -57t-2 -67.5t2 -67.5t12 -57.5t30.5 -40t58.5 -15q37 0 58 15t31 40t12 57.5t2 67.5zM425 216
q0 37 -5 75t-19 69t-39 51t-65 20q-41 0 -65.5 -20t-38.5 -51t-18.5 -69t-4.5 -75t5 -75t18.5 -69.5t38.5 -51.5t66 -20q40 0 65 20t38.5 51.5t18.5 69.5t5 75z" />
    <glyph glyph-name="nine" unicode="9" horiz-adv-x="600" 
d="M555 485q0 -123 -22 -211.5t-58 -148t-81.5 -91t-92.5 -40.5q-15 -4 -33 -4h-9q-43 0 -75 14t-53 35t-31.5 46t-10.5 48q0 28 16.5 47t51.5 19q24 0 42 -12.5t18 -32.5q0 -12 -2.5 -22t-5.5 -19.5t-5.5 -20.5t-2.5 -24t2 -25t9 -21.5t19 -15.5t33 -6q20 0 35 4
q43 11 69.5 51.5t40.5 96.5t19 120t5 121v24q-14 -29 -41.5 -48t-59.5 -26q-11 -2 -21 -3.5t-20 -1.5q-42 0 -85.5 14.5t-79.5 43.5t-58.5 73t-22.5 103q0 53 20.5 97t55 75.5t80.5 48.5t97 17q49 0 95.5 -19.5t82.5 -59.5t57.5 -101t21.5 -145zM434 538q0 69 -11.5 118.5
t-30.5 81.5t-43.5 47t-50.5 15q-27 0 -51.5 -14.5t-43 -42.5t-29.5 -69.5t-11 -95.5q0 -62 11.5 -105.5t30 -71t43.5 -40t52 -12.5q24 0 47.5 8t42.5 23t31 36t12 47v14q0 12 0.5 30t0.5 31z" />
    <glyph glyph-name="colon" unicode=":" horiz-adv-x="298" 
d="M238 451q0 -37 -26 -63t-63 -26t-63 26t-26 63t26 63t63 26t63 -26t26 -63zM238 79q0 -37 -26 -63t-63 -26t-63 26t-26 63t26 63t63 26t63 -26t26 -63z" />
    <glyph glyph-name="semicolon" unicode=";" horiz-adv-x="298" 
d="M238 451q0 -37 -26 -63t-63 -26t-63 26t-26 63t26 63t63 26t63 -26t26 -63zM238 63q0 -28 -8 -57.5t-27 -53.5t-51.5 -40t-81.5 -17v9q38 0 53 17.5t15 37.5q0 22 -9.5 29.5t-25.5 17.5q-14 9 -28.5 26t-14.5 49q0 22 7.5 38t19.5 27t27.5 16.5t31.5 5.5q46 0 69 -31.5
t23 -73.5z" />
    <glyph glyph-name="less" unicode="&#x3c;" horiz-adv-x="662" 
d="M606 122l-556 278l556 278l6 -11l-535 -267l535 -267z" />
    <glyph glyph-name="equal" unicode="=" horiz-adv-x="680" 
d="M70 494v12h540v-12h-540zM70 294v12h540v-12h-540z" />
    <glyph glyph-name="greater" unicode="&#x3e;" horiz-adv-x="662" 
d="M56 122l-6 11l535 267l-535 267l6 11l556 -278z" />
    <glyph glyph-name="question" unicode="?" horiz-adv-x="594" 
d="M544 568q0 -64 -24.5 -105.5t-61 -69.5t-79.5 -46t-79.5 -35t-61 -37.5t-24.5 -51.5q0 -12 1 -15h-10q-11 58 -11 96q0 51 17 84.5t43 58t56 44t56 42.5t43 54t17 79q0 27 -9 51t-27.5 42.5t-46.5 29.5t-65 11h-11q-7 0 -10 -1q-22 -2 -42 -8.5t-35.5 -16t-24.5 -22
t-9 -26.5q0 -24 12.5 -38t27 -26.5t27 -29t12.5 -45.5q0 -40 -26.5 -61.5t-59.5 -21.5q-17 0 -34 6.5t-30.5 20t-21.5 35t-8 50.5q0 44 17.5 78.5t47 59t68 38.5t80.5 17q3 1 11 1h11q61 0 110 -20.5t83 -54.5t52.5 -77.5t18.5 -89.5zM298 79q0 -37 -26 -63t-63 -26t-63 26
t-26 63t26 63t63 26t63 -26t26 -63z" />
    <glyph glyph-name="at" unicode="@" horiz-adv-x="920" 
d="M870 400q0 -64 -17 -113t-44 -82t-61.5 -50t-70.5 -17q-48 0 -90.5 31t-65.5 94l-30 78h-152l-63 -165h86v-10h-185v10h88l205 537h9l165 -437q16 -42 39.5 -61.5t49.5 -19.5q23 0 46 14.5t41 41.5t29 64.5t11 84.5q0 83 -31.5 156t-85.5 127t-127 85.5t-156 31.5
t-156 -31.5t-127 -85.5t-85.5 -127t-31.5 -156t31.5 -156t85.5 -127t127 -85.5t156 -31.5q78 0 146 27.5t122 75.5l5 -8q-54 -49 -124 -77t-149 -28q-85 0 -159.5 32.5t-130 88t-88 130t-32.5 159.5t32.5 159.5t88 130t130 88t159.5 32.5t159.5 -32.5t130 -88t88 -130
t32.5 -159.5zM415 541l-72 -190h144z" />
    <glyph glyph-name="A" unicode="A" horiz-adv-x="825" 
d="M409 0v10h155l-110 285h-249l-109 -285h145v-10h-301v10h145l318 828h10l317 -828h155v-10h-476zM330 619l-121 -314h241z" />
    <glyph glyph-name="B" unicode="B" horiz-adv-x="777" 
d="M717 199q0 -38 -14 -74t-44.5 -63.5t-80.5 -44.5t-122 -17h-456v10h145v780h-145v10h396q67 0 117.5 -18t84 -46.5t50 -65t16.5 -73.5q0 -30 -12 -59t-37 -52.5t-62 -40t-88 -21.5l-4 -2h2q67 0 115.5 -21.5t79 -54.5t45 -72t14.5 -75zM522 601q0 43 -4.5 78t-19.5 59.5
t-44 38t-78 13.5h-71v-364h102q41 0 64 11.5t34.5 32t14 47.5t2.5 57v27zM553 205q0 41 -3 79t-17 67t-43.5 46.5t-82.5 17.5h-102v-405h111q51 0 79 18t40.5 46t15 62.5t2.5 68.5z" />
    <glyph glyph-name="C" unicode="C" horiz-adv-x="707" 
d="M647 0v4q-5 15 -18 22.5t-28 7.5q-20 0 -41 -8.5t-39 -14.5q-28 -9 -56.5 -15t-60.5 -6h-2q-28 0 -48 4q-70 11 -127 50t-97.5 95t-62.5 124t-22 137t22 136t62 121.5t95.5 93.5t122.5 53q31 6 62 6q35 0 61 -5.5t45 -12.5t33 -12.5t25 -5.5q17 0 30.5 6t17.5 20h8v-244
h-11q0 51 -16.5 95.5t-45 77.5t-66 52t-80.5 19q-32 0 -62 -6q-37 -8 -59 -27.5t-34.5 -48t-18 -64.5t-8.5 -78q-4 -45 -5 -88t-1 -88t1 -88t5 -88q3 -42 8.5 -79t18.5 -66t36.5 -48.5t63.5 -26.5q11 -2 23 -3t24 -1h2q30 0 59 6q149 33 185 248h9v-254h-10z" />
    <glyph glyph-name="D" unicode="D" horiz-adv-x="821" 
d="M776 400q0 -85 -30 -158t-81 -127t-119.5 -84.5t-144.5 -30.5h-401v10h145v780h-145v10h401q76 0 144.5 -30.5t119.5 -84.5t81 -127t30 -158zM599 483q0 55 -6.5 109.5t-27.5 98.5t-60 71.5t-104 27.5h-96v-780h96q65 0 104 27.5t60 71.5t27.5 98.5t6.5 108.5v84v83z" />
    <glyph glyph-name="E" unicode="E" horiz-adv-x="715" 
d="M0 0v10h145v780h-145v10h650v-251h-9q0 50 -19 94t-52 76.5t-77 51.5t-94 19h-94v-385h23q32 0 58.5 11.5t45.5 31t29.5 45t10.5 52.5h8v-287h-8q0 26 -10.5 50.5t-29.5 44t-45.5 31t-58.5 11.5h-23v-385h88q58 0 109.5 22t90 60.5t60.5 90t22 110.5h10v-293h-685z" />
    <glyph glyph-name="F" unicode="F" horiz-adv-x="695" 
d="M655 527q0 54 -20.5 102t-56 84t-83.5 56.5t-102 20.5h-88v-385h23q32 0 58.5 11.5t45.5 31t29.5 45t10.5 52.5h8v-287h-8q0 26 -10.5 50.5t-29.5 44t-45.5 31t-58.5 11.5h-23v-385h145v-10h-450v10h145v780h-145v10h665v-273h-10z" />
    <glyph glyph-name="G" unicode="G" horiz-adv-x="850" 
d="M705 350v-350h-10q-7 26 -24.5 35t-37.5 9q-16 0 -31 -4t-26 -9q-26 -14 -51.5 -22.5t-52.5 -13.5q-14 -3 -29 -4t-29 -1q-23 0 -42 2.5t-35 6.5q-63 15 -116.5 52t-92.5 90t-61 119t-22 140q0 69 22 136t62 121.5t95.5 93.5t122.5 53q31 6 62 6q35 0 61 -5.5t45 -12.5
t33 -12.5t25 -5.5q17 0 30.5 6t17.5 20h8v-244h-11q0 51 -16.5 95.5t-45 77.5t-66 52t-80.5 19q-32 0 -62 -6q-37 -8 -59 -27.5t-34.5 -48t-18 -64.5t-8.5 -78q-4 -45 -5 -88t-1 -88v-42t1 -47t2 -46.5t3 -40.5q3 -41 7.5 -75.5t15.5 -62.5t31.5 -47.5t55.5 -29.5
q20 -5 39 -7t39 -2q34 0 54 4q21 4 34 11.5t20.5 17t11 21.5t5.5 25q2 12 3 27t1 28v216h-145v10h450v-10h-145z" />
    <glyph glyph-name="H" unicode="H" horiz-adv-x="910" 
d="M480 0v10h125v385h-300v-385h125v-10h-430v10h145v780h-145v10h430v-10h-125v-385h300v385h-125v10h430v-10h-145v-780h145v-10h-430z" />
    <glyph glyph-name="I" unicode="I" horiz-adv-x="450" 
d="M0 0v10h145v780h-145v10h450v-10h-145v-780h145v-10h-450z" />
    <glyph glyph-name="J" unicode="J" horiz-adv-x="566" 
d="M441 790v-611q0 -44 -18 -78.5t-49 -59.5t-71 -38t-84 -13q-47 0 -81 14.5t-55.5 38t-32 52t-10.5 56.5q0 45 24 78.5t69 33.5q16 0 31.5 -5.5t27.5 -16.5t19.5 -27t7.5 -38q0 -18 -4 -30t-11.5 -20.5t-17.5 -15.5t-22 -16q-11 -8 -17 -17t-6 -23q0 -20 15 -36.5
t53 -16.5q29 0 50.5 15.5t21.5 44.5v729h-145v10h450v-10h-145z" />
    <glyph glyph-name="K" unicode="K" horiz-adv-x="890" 
d="M470 0v10h125l-290 384v-384h125v-10h-430v10h145v780h-145v10h430v-10h-125v-385l364 385h-144v10h300v-10h-142l-271 -287l373 -493h145v-10h-460z" />
    <glyph glyph-name="L" unicode="L" horiz-adv-x="705" 
d="M0 0v10h145v780h-145v10h450v-10h-145v-780h78q58 0 109.5 22t90 60.5t60.5 90t22 110.5h10v-293h-675z" />
    <glyph glyph-name="M" unicode="M" horiz-adv-x="994" 
d="M544 0v10h145v759l-262 -769h-10l-263 758v-748h146v-10h-300v10h144v780h-144v10h310l190 -554l189 554h305v-10h-145v-780h145v-10h-450z" />
    <glyph glyph-name="N" unicode="N" horiz-adv-x="820" 
d="M676 790v-790h-16l-506 791v-781h146v-10h-300v10h144v780h-144v10h322l344 -539v529h-146v10h300v-10h-144z" />
    <glyph glyph-name="O" unicode="O" 
d="M786 400q0 -74 -22 -140t-61 -119t-92.5 -90t-116.5 -52q-38 -9 -78 -9q-42 0 -79 9q-63 15 -116.5 52t-92.5 90t-61 119t-22 140q0 73 22 139.5t61 119.5t92.5 90t115.5 52q40 9 80 9t78 -9q63 -15 116.5 -52t92.5 -90t61 -119.5t22 -139.5zM609 400q0 19 -0.5 42
t-1.5 47t-2 46.5t-2 40.5q-3 40 -8 75t-16 63t-31.5 47.5t-54.5 29.5q-19 5 -38 7t-38 2q-20 0 -39.5 -2t-39.5 -7q-35 -10 -55.5 -29.5t-31.5 -47.5t-15.5 -63t-7.5 -75q-2 -18 -3 -40.5t-2 -46.5t-1 -47v-42v-42t1 -47t2 -46.5t3 -40.5q3 -41 7.5 -75.5t15.5 -62.5
t31.5 -47.5t55.5 -29.5q20 -5 39 -7t39 -2t39 2t38 7q34 10 54.5 29.5t31.5 47.5t16 62.5t8 75.5q1 18 2 40.5t2 46.5t1.5 47t0.5 42z" />
    <glyph glyph-name="P" unicode="P" horiz-adv-x="735" 
d="M735 547q0 -45 -17 -88.5t-51 -77t-85.5 -54t-121.5 -20.5q-38 0 -80.5 7t-74.5 27v-331h145v-10h-450v10h145v780h-145v10h459q67 0 119 -23t86.5 -59t52.5 -81t18 -90zM563 547q0 63 -8 108.5t-27 75.5t-50.5 44.5t-77.5 14.5h-95v-436q36 -24 76 -30t67 -6q43 0 66 22
t34 55.5t13 72.5t2 74v5z" />
    <glyph glyph-name="Q" unicode="Q" 
d="M786 398q0 -71 -20.5 -134.5t-56.5 -115.5t-85.5 -89.5t-107.5 -55.5q1 -25 3 -47.5t7 -39t15 -26.5t27 -10q26 0 39 20t13 43q0 13 -4.5 24t-15.5 18q-6 3 -6 11q0 12 11 12q8 0 12.5 -7.5t6.5 -13.5q6 -21 6 -40q0 -26 -9.5 -45.5t-26 -33.5t-38 -21t-46.5 -7t-49.5 9
t-44.5 27.5t-34 47t-18 68.5l-4 1q-67 13 -124.5 49t-100 89.5t-66.5 121.5t-24 145q0 73 22 139t61 119t92.5 90t115.5 52q36 10 79 10h1q40 0 79 -9q62 -15 115.5 -52t92.5 -90t61 -119.5t22 -139.5zM609 398q0 19 -0.5 42t-1.5 47t-2 46.5t-2 40.5q-3 40 -8 75t-16 63
t-31.5 47.5t-54.5 29.5q-19 5 -38 7t-39 2t-39.5 -2t-38.5 -7q-35 -10 -55.5 -29.5t-31.5 -47.5t-15.5 -63t-7.5 -75q-2 -18 -3 -40.5t-2 -46.5t-1 -47v-42v-42t1 -47t2 -46.5t3 -40.5q2 -25 4 -48t7 -44q1 11 5.5 21.5t10.5 19.5q20 27 49.5 44.5t61.5 17.5q52 0 81.5 -20
t44 -51.5t18.5 -70.5t5 -76q27 12 43 32t25 47t13 59.5t7 68.5q1 18 2 40.5t2 46.5t1.5 47t0.5 42zM368 112q0 45 -15.5 63.5t-35.5 18.5q-12 0 -24.5 -6t-22.5 -15.5t-16 -22.5t-6 -28q0 -54 33 -82.5t82 -37.5q-1 3 -1 9v10q0 17 3 41t3 50z" />
    <glyph glyph-name="R" unicode="R" horiz-adv-x="824" 
d="M844 64q0 -11 -10 -21q-51 -53 -123 -53q-36 0 -67 13.5t-54 36.5t-36.5 54t-13.5 67v143q0 20 -4 37.5t-14.5 30t-29.5 20t-48 7.5h-139v-389h145v-10h-450v10h145v780h-145v10h406q72 0 124 -17t85.5 -45t49.5 -64t16 -73q0 -32 -13 -63t-38 -57t-60.5 -44.5
t-81.5 -26.5l-21 -1l5 -1q67 -2 111.5 -20.5t70 -47t36 -64.5t10.5 -73v-146q0 -23 15.5 -36t38.5 -13q10 0 22 4t21.5 11.5t16 17.5t6.5 22t12 12t12 -11zM522 598q0 49 -5 85t-22 60t-50 35.5t-89 11.5h-51v-380h104q23 0 42 8.5t33 22t22 30.5t10 35q2 23 4 49t2 43z" />
    <glyph glyph-name="S" unicode="S" horiz-adv-x="682" 
d="M632 250q0 -53 -21 -97t-56 -77t-81 -54t-96 -28q-11 -2 -23.5 -3t-26.5 -1t-26.5 1t-24.5 3q-17 3 -33.5 7.5t-32.5 9.5q-18 6 -39 14.5t-41 8.5q-16 0 -30 -8.5t-17 -25.5h-9v254h9q20 -115 66.5 -175t122.5 -74q14 -2 27.5 -3.5t27.5 -1.5q24 0 47 3q37 6 63.5 21
t43.5 35.5t25 45.5t8 52q0 43 -22.5 82t-65.5 59l-189 85q-63 28 -97.5 82t-34.5 124q0 45 14 82t39.5 65t60 46t75.5 25q18 3 36 3h8q24 0 54 -5t56 -16q7 -3 18 -5.5t22 -2.5t21 4t15 15h8v-189h-11q-5 45 -17.5 80t-35 59t-55.5 37t-79 13q-25 0 -40 -4
q-22 -4 -42.5 -13.5t-36 -24t-25 -33.5t-9.5 -43q0 -29 12 -53t31 -43.5t43 -34.5t47 -25l188 -85q28 -13 51.5 -32.5t41 -44.5t27 -54t9.5 -60z" />
    <glyph glyph-name="T" unicode="T" horiz-adv-x="780" 
d="M740 527q0 54 -17.5 102t-49 84t-76.5 56.5t-99 20.5h-28v-780h145v-10h-450v10h145v780h-28q-54 0 -99 -20.5t-77 -56.5t-49.5 -84t-17.5 -102h-9v273h720v-273h-10z" />
    <glyph glyph-name="U" unicode="U" horiz-adv-x="800" 
d="M676 790v-581q0 -66 -33.5 -112.5t-87.5 -72.5q-8 -4 -16.5 -7.5t-17.5 -6.5q-58 -20 -120 -20q-52 0 -101.5 13.5t-88.5 41t-62.5 68.5t-23.5 97v580h-145v10h430v-10h-125v-620q0 -41 13 -72t35.5 -51t52 -30t61.5 -10q39 0 72 13q8 2 15.5 5.5t15.5 7.5q24 12 45 29
t36.5 39t25 49t9.5 58v582h-146v10h300v-10h-144z" />
    <glyph glyph-name="V" unicode="V" horiz-adv-x="825" 
d="M740 790l-318 -828h-10l-317 828h-155v10h476v-10h-155l234 -609l234 609h-145v10h301v-10h-145z" />
    <glyph glyph-name="W" unicode="W" horiz-adv-x="1339" 
d="M1254 790l-258 -828h-9l-312 812l-253 -812h-10l-317 828h-155v10h476v-10h-155l225 -588l184 588h-156v10h476v-10h-154l225 -587l183 587h-146v10h301v-10h-145z" />
    <glyph glyph-name="X" unicode="X" horiz-adv-x="820" 
d="M420 0v10h125l-184 327l-185 -327h127v-10h-283v10h145l190 337l-250 443h-145v10h460v-10h-145l166 -294l166 294h-147v10h303v-10h-145l-171 -304l268 -476h145v-10h-440z" />
    <glyph glyph-name="Y" unicode="Y" horiz-adv-x="753" 
d="M668 790l-209 -417v-363h145v-10h-450v10h145v354l-214 426h-145v10h434v-10h-125l204 -407l204 407h-127v10h283v-10h-145z" />
    <glyph glyph-name="Z" unicode="Z" horiz-adv-x="730" 
d="M40 0v10l425 780h-124q-50 0 -94 -19t-77 -51.5t-52 -76.5t-19 -94h-9v251h550v-10l-425 -780h163q58 0 109.5 22t90 60.5t60.5 90t22 110.5h10v-293h-630z" />
    <glyph glyph-name="bracketleft" unicode="[" horiz-adv-x="375" 
d="M100 0v800h225v-10h-105v-780h105v-10h-225z" />
    <glyph glyph-name="backslash" unicode="\" horiz-adv-x="481" 
d="M420 -5l-410 805l11 5l410 -805z" />
    <glyph glyph-name="bracketright" unicode="]" horiz-adv-x="375" 
d="M50 0v10h105v780h-105v10h225v-800h-225z" />
    <glyph glyph-name="asciicircum" unicode="^" horiz-adv-x="771" 
d="M670 695l-17 -7l-261 324l-262 -324l-16 7l278 344z" />
    <glyph glyph-name="underscore" unicode="_" horiz-adv-x="760" 
d="M86 8h577v-26h-577v26z" />
    <glyph glyph-name="grave" unicode="`" horiz-adv-x="809" 
d="M545 922q0 -10 -11 -19q-26 -23 -63 -36t-71 -13q-23 0 -45 7t-39.5 20.5t-28 33t-10.5 45.5q0 35 23 56t57 21q21 0 34.5 -8t21.5 -20.5t13 -28t10 -30.5q7 -25 17 -42t34 -17q30 0 35 30q2 11 12 11q4 0 7.5 -2.5t3.5 -7.5z" />
    <glyph glyph-name="a" unicode="a" horiz-adv-x="809" 
d="M789 64q0 -6 -3 -11t-7 -10q-25 -26 -54 -39.5t-66 -13.5q-55 0 -86 21.5t-46 54t-18.5 70.5t-3.5 72q-4 -9 -5 -17q-14 -44 -44.5 -80.5t-69.5 -63t-83 -41.5t-86 -15q-33 0 -62.5 10t-51.5 32t-35 56.5t-13 83.5q0 32 11 63.5t30 54.5q31 38 68 63.5t78.5 41t85 23
t86.5 9.5q8 0 15.5 0.5t15.5 0.5h60v215q0 34 -3.5 62.5t-15.5 49t-35.5 32t-62.5 12.5q-27 0 -57 -6q-17 -4 -34.5 -11t-31.5 -16.5t-23 -22.5t-9 -30q0 -11 7 -23.5t15.5 -26t15.5 -28.5t7 -31q0 -17 -7 -32t-19 -26.5t-27.5 -18.5t-31.5 -7q-42 0 -63 27.5t-21 69.5
q0 49 30 85t74 60t94 35.5t89 11.5q128 0 198.5 -56t70.5 -182v-512q0 -24 13 -36.5t30 -12.5q22 0 39.5 14.5t17.5 37.5q0 12 12 12t12 -11zM505 419h-40h-26h-12t-13 -1q-37 -3 -73.5 -15t-65 -37t-46.5 -65t-18 -99q0 -37 9 -64t25 -44.5t36.5 -26t43.5 -8.5q38 0 76 22
t65 64q24 36 31.5 72.5t7.5 56.5v145z" />
    <glyph glyph-name="b" unicode="b" horiz-adv-x="777" 
d="M717 199q0 -56 -23 -94t-59.5 -61.5t-83.5 -33.5t-95 -10h-456v10h145v780h-145v10h439q59 0 101.5 -18t70 -46.5t40.5 -63.5t13 -69q0 -26 -7 -49.5t-20.5 -41t-32.5 -28t-44 -10.5q-33 0 -59.5 22t-26.5 62q0 21 6 34.5t15 23t20.5 16t23.5 12.5q19 10 33 22.5t14 40.5
q0 23 -12 38.5t-31 24.5q-45 20 -102 20h-136v-365h102q56 0 111.5 -10t99.5 -35.5t71.5 -69.5t27.5 -111zM553 205q0 42 -3 80t-17 67t-43.5 46t-81.5 17h-103v-405h111q48 0 75.5 16t41 43t17 62t3.5 74z" />
    <glyph glyph-name="c" unicode="c" horiz-adv-x="743" 
d="M688 199q0 -48 -21 -85.5t-56 -64.5t-82 -42t-98 -17h-13q-66 0 -132.5 23.5t-120 73t-87 127.5t-33.5 186q0 69 22 136t62 121.5t95.5 93.5t122.5 53q31 6 62 6q35 0 61 -5.5t45 -12.5t33 -12.5t25 -5.5q17 0 30.5 6t17.5 20h8v-244h-11q0 51 -16.5 95.5t-45 77.5
t-66 52t-80.5 19q-32 0 -62 -6q-37 -8 -59 -27.5t-34.5 -48t-18 -64.5t-8.5 -78q-4 -45 -5 -88t-1 -88v-84q0 -54 6.5 -110.5t27.5 -102t60 -74.5t104 -29h10q21 1 49 6t53.5 15.5t43 26.5t17.5 40t-13.5 37.5t-29 25.5t-29 28t-13.5 45q0 21 7.5 37t19.5 27t27.5 16.5
t31.5 5.5q18 0 34.5 -6.5t30 -20t21.5 -34.5t8 -50z" />
    <glyph glyph-name="d" unicode="d" horiz-adv-x="821" 
d="M776 400q0 -85 -30 -158t-81 -127t-119.5 -84.5t-144.5 -30.5h-401v10h145v780h-145v10h401q76 0 144.5 -30.5t119.5 -84.5t81 -127t30 -158zM599 483q0 55 -6.5 109.5t-27.5 98.5t-60 71.5t-104 27.5h-96v-780h96q65 0 104 27.5t60 71.5t27.5 98.5t6.5 108.5v84v83z" />
    <glyph glyph-name="e" unicode="e" horiz-adv-x="801" 
d="M746 420q0 -2 -1 -5h-523v-75q0 -57 4.5 -117t24 -109.5t59 -81.5t110.5 -32h10q21 1 51 6t57 15.5t46 26.5t19 40t-13.5 37.5t-29 25.5t-29 28t-13.5 45q0 21 7.5 37t19.5 27t27.5 16.5t31.5 5.5q18 0 34.5 -6.5t30 -20t21.5 -34.5t8 -50q0 -48 -22.5 -85.5t-59.5 -64.5
t-85 -42t-99 -17h-14q-66 0 -133 23.5t-120 73t-86.5 127.5t-33.5 186q0 77 25 146t67.5 123t99 90t119.5 47q20 4 47 4h4q90 0 154.5 -30t105.5 -82.5t60 -123.5t19 -154zM580 425q0 38 -2 77t-5 74q-4 49 -10 90t-22.5 71t-47.5 46.5t-85 16.5h-2q-12 0 -24.5 -1t-24.5 -3
q-38 -7 -61.5 -26t-37.5 -48t-20.5 -66t-9.5 -80q-3 -35 -4 -74t-2 -77h358z" />
    <glyph glyph-name="f" unicode="f" horiz-adv-x="627" 
d="M597 656q0 -21 -6.5 -41t-18.5 -35t-29.5 -24t-39.5 -9q-16 0 -31.5 5.5t-27.5 16.5t-19.5 27t-7.5 38q0 31 12 46.5t27 25t27 18.5t12 27q0 14 -10.5 27.5t-35.5 18.5q-14 3 -29 3q-17 0 -34 -5t-30.5 -14.5t-22 -24.5t-8.5 -34v-192h105v-10h-105v-510h145v-10h-450v10
h145v510h-145v10h145v71q0 51 22 90t56.5 65.5t78 40t87.5 13.5q50 0 85.5 -14t58.5 -36t33.5 -49.5t10.5 -54.5z" />
    <glyph glyph-name="g" unicode="g" horiz-adv-x="850" 
d="M705 350v-350h-10q-7 26 -24.5 35t-37.5 9q-16 0 -31 -4t-26 -9q-26 -14 -51.5 -22.5t-52.5 -13.5q-12 -2 -25.5 -3.5t-29.5 -1.5h-3q-23 0 -42 2.5t-36 6.5q-62 16 -115.5 53t-92.5 90t-61 118.5t-22 139.5q0 69 22 136t62 121.5t95.5 93.5t122.5 53q13 2 27.5 4t31.5 2
h5q43 0 88.5 -13t83 -38.5t62 -63t24.5 -87.5q0 -29 -8 -50.5t-21.5 -35t-30.5 -20t-34 -6.5q-16 0 -31.5 5.5t-27.5 16.5t-19.5 27t-7.5 37q0 29 12.5 44t27 27t27 25.5t12.5 39.5q0 25 -18.5 41t-44.5 25t-53 12.5t-43 3.5q-31 0 -61 -6q-37 -8 -59 -27.5t-34.5 -48
t-18 -64.5t-8.5 -78q-4 -45 -5 -88t-1 -88v-42t1 -47t2 -46.5t3 -40.5q3 -41 7.5 -75.5t15.5 -62.5t31.5 -47.5t55.5 -29.5q20 -5 39 -7t39 -2q34 0 54 4q21 4 34 11.5t20.5 17t11 21.5t5.5 25q2 12 3 27t1 28v216h-145v10h450v-10h-145z" />
    <glyph glyph-name="h" unicode="h" horiz-adv-x="910" 
d="M480 0v10h125v385h-300v-385h125v-10h-430v10h145v780h-145v10h430v-10h-125v-385h300v385h-125v10h430v-10h-145v-780h145v-10h-430z" />
    <glyph glyph-name="i" unicode="i" horiz-adv-x="450" 
d="M314 721q0 -37 -26 -63t-63 -26t-63 26t-26 63t26 63t63 26t63 -26t26 -63zM0 0v10h145v510h-145v10h305v-520h145v-10h-450zM295 10h-140h140z" />
    <glyph glyph-name="j" unicode="j" horiz-adv-x="530" 
d="M450 721q0 -37 -26 -63t-63 -26t-63 26t-26 63t26 63t63 26t63 -26t26 -63zM441 179q0 -44 -18 -78.5t-49 -59.5t-71 -38t-84 -13q-47 0 -81 14.5t-55.5 38t-32 52t-10.5 56.5q0 45 24 78.5t69 33.5q16 0 31.5 -5.5t27.5 -16.5t19.5 -27t7.5 -38q0 -18 -4 -30t-11 -20.5
t-17.5 -16t-22.5 -16.5q-11 -8 -17 -16.5t-6 -22.5q0 -20 15 -37.5t53 -17.5q29 0 50.5 16.5t21.5 45.5v459h-145v10h305v-351z" />
    <glyph glyph-name="k" unicode="k" horiz-adv-x="824" 
d="M794 64q0 -11 -10 -21q-24 -26 -56 -39.5t-67 -13.5q-36 0 -67 13.5t-54 36.5t-36.5 54t-13.5 67v143q0 30 -7.5 48.5t-22 29t-34 14.5t-43.5 4h-78v-390h145v-10h-450v10h145v780h-145v10h450v-10h-145v-381h80q22 0 41 9t33 24t22 35t8 42v100q0 46 13.5 81.5t35 60
t47.5 37t51 12.5q31 0 55.5 -11.5t42 -31t26.5 -45.5t9 -54q0 -45 -24 -78.5t-69 -33.5q-16 0 -31.5 5.5t-27.5 16.5t-19.5 27t-7.5 38q0 18 4 30t11.5 21t18 16.5t22.5 16.5q11 6 17 13.5t6 21.5t-8.5 25t-25.5 11q-20 0 -45 -11q-35 -17 -62 -59t-27 -109v-100
q0 -36 -20 -66t-53 -44q64 -2 107 -20.5t68.5 -47.5t36 -65t10.5 -73v-146q0 -23 15.5 -34t38.5 -11q11 0 22.5 3.5t21.5 10t16 16t6 21.5t12 12t12 -11z" />
    <glyph glyph-name="l" unicode="l" horiz-adv-x="429" 
d="M419 64q0 -11 -10 -21q-23 -25 -55 -39t-68 -14t-67 13.5t-54 36.5t-36.5 54t-13.5 67v629h-145v10h305v-740q0 -23 15.5 -36t38.5 -13q11 0 22.5 3.5t21.5 10.5t16 16.5t6 21.5t12 12t12 -11z" />
    <glyph glyph-name="m" unicode="m" horiz-adv-x="1150" 
d="M865 0v618q0 36 -9.5 58t-23.5 34t-30 15.5t-28 3.5q-32 0 -52.5 -21t-33.5 -51.5t-18 -64t-5 -58.5v-524h125v-10h-285v618q0 36 -9.5 58t-23.5 34t-30 15.5t-28 3.5q-32 0 -52.5 -21t-33.5 -51.5t-18 -64t-5 -58.5v-524h125v-10h-430v10h145v780h-145v10h305v-184
q9 37 26.5 72t43.5 62t60 43.5t76 16.5q28 0 56 -10.5t49.5 -31t35 -52t13.5 -73.5v-27q9 37 26.5 72t43.5 62t60 43.5t76 16.5q28 0 56 -10.5t49.5 -31t35 -52t13.5 -73.5v-633h125v-10h-285z" />
    <glyph glyph-name="n" unicode="n" horiz-adv-x="910" 
d="M605 0v598q0 36 -10 62.5t-27 43.5t-39.5 25.5t-46.5 8.5q-55 0 -89.5 -25.5t-54 -59.5t-26.5 -69t-7 -53v-521h125v-10h-430v10h145v780h-145v10h305v-203l6 18q14 47 43 83.5t65.5 61t77 37.5t77.5 13q38 0 72.5 -11.5t61 -35.5t42 -60.5t15.5 -85.5v-607h145v-10h-305
z" />
    <glyph glyph-name="o" unicode="o" 
d="M786 400q0 -74 -22 -140t-61 -119t-92.5 -90t-116.5 -52q-38 -9 -78 -9q-42 0 -79 9q-63 15 -116.5 52t-92.5 90t-61 119t-22 140q0 73 22 139.5t61 119.5t92.5 90t115.5 52q40 9 80 9t78 -9q63 -15 116.5 -52t92.5 -90t61 -119.5t22 -139.5zM609 400q0 19 -0.5 42
t-1.5 47t-2 46.5t-2 40.5q-3 40 -8 75t-16 63t-31.5 47.5t-54.5 29.5q-19 5 -38 7t-38 2q-20 0 -39.5 -2t-39.5 -7q-35 -10 -55.5 -29.5t-31.5 -47.5t-15.5 -63t-7.5 -75q-2 -18 -3 -40.5t-2 -46.5t-1 -47v-42v-42t1 -47t2 -46.5t3 -40.5q3 -41 7.5 -75.5t15.5 -62.5
t31.5 -47.5t55.5 -29.5q20 -5 39 -7t39 -2t39 2t38 7q34 10 54.5 29.5t31.5 47.5t16 62.5t8 75.5q1 18 2 40.5t2 46.5t1.5 47t0.5 42z" />
    <glyph glyph-name="p" unicode="p" horiz-adv-x="735" 
d="M735 547q0 -45 -17 -88.5t-51 -77t-85.5 -54t-121.5 -20.5q-38 0 -80.5 7t-74.5 27v-331h145v-10h-450v10h145v780h-145v10h459q67 0 119 -23t86.5 -59t52.5 -81t18 -90zM563 547q0 63 -8 108.5t-27 75.5t-50.5 44.5t-77.5 14.5h-95v-436q36 -24 76 -30t67 -6
q43 0 66.5 23t34.5 57t12.5 74t1.5 75z" />
    <glyph glyph-name="q" unicode="q" 
d="M786 400q0 -71 -20.5 -134.5t-56.5 -115.5t-85.5 -89.5t-107.5 -55.5q1 -25 3 -47.5t7 -39t15 -26.5t27 -10q26 0 39 20t13 43q0 13 -4.5 24t-15.5 18q-6 3 -6 11q0 12 11 12q8 0 12.5 -7.5t6.5 -13.5q6 -21 6 -40q0 -26 -9.5 -45.5t-26 -33.5t-38 -21t-46.5 -7t-49.5 9
t-44.5 27.5t-34 47t-18 68.5l-4 1q-67 13 -124.5 49t-100 89.5t-66.5 121.5t-24 145q0 73 22 139t61 119t92.5 90t115.5 52q36 10 79 10h1q40 0 79 -9q62 -15 115.5 -52t92.5 -90t61 -119.5t22 -139.5zM609 400q0 19 -0.5 42t-1.5 47t-2 46.5t-2 40.5q-3 40 -8 75t-16 63
t-31.5 47.5t-54.5 29.5q-19 5 -38 7t-39 2t-39.5 -2t-38.5 -7q-35 -10 -55.5 -29.5t-31.5 -47.5t-15.5 -63t-7.5 -75q-2 -18 -3 -40.5t-2 -46.5t-1 -47v-42v-42t1 -47t2 -46.5t3 -40.5q2 -25 4 -48t7 -44q1 11 5.5 21.5t10.5 19.5q20 27 49.5 44.5t61.5 17.5q52 0 81.5 -20
t44 -51.5t18.5 -70.5t5 -76q27 12 43 32t25 47t13 59.5t7 68.5q1 18 2 40.5t2 46.5t1.5 47t0.5 42zM368 114q0 45 -15.5 63.5t-35.5 18.5q-12 0 -24.5 -6t-22.5 -15.5t-16 -22.5t-6 -28q0 -54 33 -82.5t82 -37.5q-1 3 -1 9v10q0 17 3 41t3 50z" />
    <glyph glyph-name="r" unicode="r" horiz-adv-x="656" 
d="M636 673q-1 -44 -21.5 -74.5t-66.5 -32.5q-35 0 -59 23.5t-24 58.5q0 28 11 41.5t23.5 22.5t23.5 18.5t11 29.5q0 17 -12.5 28.5t-30.5 11.5q-4 0 -8 -0.5t-9 -1.5q-41 -9 -72.5 -38.5t-53 -68.5t-32.5 -82.5t-11 -80.5v-518h145v-10h-450v10h145v780h-145v10h305v-193
q9 34 25.5 70.5t41 66t56.5 48.5t73 19q34 0 59 -11.5t42 -31t25.5 -44.5t8.5 -51z" />
    <glyph glyph-name="s" unicode="s" horiz-adv-x="681" 
d="M631 250q0 -66 -26 -114t-69 -79.5t-98.5 -47t-113.5 -15.5q-22 0 -44 3q-45 5 -85.5 20t-71.5 39t-49.5 57.5t-18.5 75.5q0 29 8 50t21.5 34.5t30 20t34.5 6.5q16 0 31.5 -5.5t27.5 -16.5t19.5 -27t7.5 -37q0 -29 -12.5 -44t-27 -27t-27 -25.5t-12.5 -39.5
q0 -15 14 -28.5t37.5 -23.5t54 -16t62.5 -6q35 0 69 8t61 26t43.5 47.5t16.5 71.5q0 43 -22.5 82t-65.5 59l-189 85q-63 28 -97.5 82t-34.5 124q0 45 14 82t39.5 65t60 46t75.5 25q22 3 44 3q33 0 56.5 -5.5t41.5 -12.5t32 -12.5t26 -5.5q17 0 30.5 6t17.5 20h8v-244h-11
q0 50 -16.5 94.5t-44.5 77.5t-65 52.5t-79 19.5q-25 0 -40 -4q-22 -4 -42.5 -13.5t-36 -24t-25 -33.5t-9.5 -43q0 -29 12 -53t31 -43.5t43 -34.5t47 -25l188 -85q28 -13 51.5 -32.5t41 -44.5t27 -54t9.5 -60z" />
    <glyph glyph-name="t" unicode="t" horiz-adv-x="587" 
d="M567 165q0 -39 -13 -68.5t-35.5 -51t-52 -34.5t-62.5 -18q-21 -3 -41 -3q-46 0 -87 14.5t-72.5 41.5t-50 66t-18.5 88v425q-41 -15 -91 -15h-54v10h53q58 0 103 20t76 54.5t47 80t16 96.5h10v-251h245v-10h-245v-530q0 -38 23.5 -59t60.5 -21q6 0 12 0.5t12 1.5
q25 5 43.5 22.5t18.5 45.5q0 17 -12 26t-27 19t-27 25.5t-12 46.5q0 22 7.5 38t19.5 27t27.5 16.5t31.5 5.5q22 0 39.5 -9t29.5 -24t18.5 -35t6.5 -41z" />
    <glyph glyph-name="u" unicode="u" horiz-adv-x="910" 
d="M605 0v203q-4 -9 -5 -18q-14 -47 -43 -83.5t-66 -61t-77.5 -37.5t-77.5 -13q-38 0 -72.5 11.5t-61 35.5t-42 60t-15.5 86v607h-145v10h305v-598q0 -36 10 -62.5t27 -43.5t39.5 -25.5t46.5 -8.5q55 0 89.5 25.5t54 59.5t26.5 69t7 53v521h-125v10h285v-790h145v-10h-305z
" />
    <glyph glyph-name="v" unicode="v" horiz-adv-x="825" 
d="M740 790l-318 -828h-10l-317 828h-155v10h476v-10h-155l234 -609l234 609h-145v10h301v-10h-145z" />
    <glyph glyph-name="w" unicode="w" horiz-adv-x="1339" 
d="M1254 790l-258 -828h-9l-312 812l-253 -812h-10l-317 828h-155v10h476v-10h-155l225 -588l184 588h-156v10h476v-10h-154l225 -587l183 587h-146v10h301v-10h-145z" />
    <glyph glyph-name="x" unicode="x" horiz-adv-x="846" 
d="M466 0v10h75v294q0 20 -4 37.5t-14.5 30.5t-29.5 20.5t-48 7.5h-44q-29 0 -48 -7.5t-29.5 -20.5t-14.5 -30.5t-4 -37.5v-294h75v-10h-380v10h145v193q0 37 11 74t37.5 66.5t71.5 47.5t113 18q-29 11 -49 38.5t-20 70.5v101q0 69 -27 110t-62 58q-25 11 -44 11
q-17 0 -26 -11t-9 -25t6 -21.5t17 -13.5q12 -9 22.5 -16.5t18 -16.5t11.5 -21t4 -30q0 -22 -7.5 -38t-19.5 -27t-27.5 -16.5t-31.5 -5.5q-45 0 -69 33.5t-24 78.5q0 28 9 54t26.5 45.5t42 31t56.5 11.5q25 0 51 -12.5t47 -37t34.5 -60t13.5 -81.5v-101q0 -48 27.5 -78
t75.5 -30t74.5 31.5t26.5 76.5v101q0 46 13.5 81.5t35 60t47.5 37t51 12.5q31 0 56 -11.5t42.5 -31t26.5 -45.5t9 -54q0 -45 -24 -78.5t-69 -33.5q-16 0 -31.5 5.5t-27.5 16.5t-19.5 27t-7.5 38q0 18 4 30t11.5 21t18 16.5t22.5 16.5q11 6 17 13.5t6 21.5t-9 25t-26 11
q-19 0 -44 -11q-17 -8 -33.5 -23t-29 -36t-20 -48.5t-7.5 -60.5v-101q0 -43 -19.5 -70.5t-48.5 -38.5q67 0 112 -18t71.5 -47.5t37.5 -66.5t11 -74v-193h145v-10h-380z" />
    <glyph glyph-name="y" unicode="y" horiz-adv-x="783" 
d="M698 790l-301 -683q-12 -28 -32 -49.5t-43.5 -36.5t-48.5 -23t-46 -8q-35 0 -65.5 11t-53 31t-35.5 49.5t-13 65.5q0 23 6 44t18 37t29 25.5t40 9.5q16 0 31.5 -5.5t27.5 -16.5t19.5 -27t7.5 -38q0 -18 -4 -30t-11.5 -20.5t-17.5 -16l-22 -16.5q-11 -8 -17 -16.5
t-6 -22.5q0 -29 19.5 -41.5t45.5 -12.5q21 0 44.5 7.5t45.5 21.5t41 34.5t30 47.5l15 32l-287 647h-145v10h434v-10h-126l205 -463l204 463h-127v10h283v-10h-145z" />
    <glyph glyph-name="z" unicode="z" horiz-adv-x="730" 
d="M40 0v10l425 780h-124q-50 0 -94 -19t-77 -51.5t-52 -76.5t-19 -94h-9v251h550v-10l-425 -780h163q58 0 109.5 22t90 60.5t60.5 90t22 110.5h10v-293h-630z" />
    <glyph glyph-name="braceleft" unicode="{" horiz-adv-x="450" 
d="M400 3q0 -9 -10.5 -14.5t-24 -8.5t-26.5 -4t-19 -1q-34 0 -63.5 12t-51.5 34t-34.5 54t-12.5 73v153q0 38 -18.5 66.5t-60.5 28.5q-10 0 -15 -2t-15 -5l-6 -2q-13 0 -13 13q0 14 13 14q5 0 6 -1q11 -3 15.5 -5.5t14.5 -2.5q35 0 57 23t22 72v153q0 40 12.5 72.5
t34.5 54.5t51.5 34t63.5 12q28 0 60 -9q6 -2 13 -6.5t7 -12.5q0 -11 -11 -11q-8 0 -11 5q-16 23 -45 23q-20 0 -37.5 -17.5t-17.5 -59.5v-136q0 -91 -38.5 -140t-116.5 -62q78 -12 116.5 -61t38.5 -140v-136q0 -42 17.5 -59.5t37.5 -17.5q11 0 14 1q20 4 31 22q3 5 11 5
q11 0 11 -11z" />
    <glyph glyph-name="bar" unicode="|" horiz-adv-x="212" 
d="M100 -120v920h12v-920h-12z" />
    <glyph glyph-name="braceright" unicode="}" horiz-adv-x="450" 
d="M420 400q0 -13 -13 -13l-6 2q-10 3 -15 5t-15 2q-42 0 -60.5 -28.5t-18.5 -66.5v-153q0 -41 -12.5 -73t-34.5 -54t-51.5 -34t-63.5 -12q-6 0 -19.5 1t-27 4t-23.5 8.5t-10 14.5q0 11 11 11q8 0 11 -5q11 -18 31 -22q3 -1 14 -1q20 0 37.5 17.5t17.5 59.5v136
q0 91 38.5 140t116.5 61q-78 13 -116.5 62t-38.5 140v136q0 42 -17.5 59.5t-37.5 17.5q-29 0 -45 -23q-3 -5 -11 -5q-11 0 -11 11q0 8 7 12.5t13 6.5q31 9 60 9q34 0 63.5 -12t51.5 -34t34.5 -54.5t12.5 -72.5v-153q0 -49 22 -72t57 -23q10 0 14.5 2.5t15.5 5.5q1 1 6 1
q13 0 13 -14z" />
    <glyph glyph-name="asciitilde" unicode="~" horiz-adv-x="578" 
d="M548 470q0 -7 -1 -9q-3 -33 -17 -61.5t-36.5 -49.5t-52 -33.5t-63.5 -12.5q-41 0 -84 21t-82 46.5t-70.5 46.5t-49.5 21q-23 0 -36 -17.5t-15 -38.5q-1 -3 -1 -11q0 -14 4.5 -26t16.5 -20q5 -3 5 -11q0 -12 -11 -12q-9 0 -14 8.5t-7.5 20t-3 23t-0.5 17.5q0 8 1 11
q2 33 16 61.5t37 49.5t53 33.5t63 12.5q45 0 81.5 -21t70 -46.5t66 -46.5t68.5 -21q23 0 36 17.5t15 38.5q1 3 1 11q0 14 -4 26.5t-16 19.5q-6 3 -6 11q0 12 11 12q9 0 14 -9t7.5 -21t3 -23.5t0.5 -17.5z" />
    <glyph glyph-name="exclamdown" unicode="&#xa1;" horiz-adv-x="300" 
d="M239 721q0 -37 -26 -63t-63 -26t-63 26t-26 63t26 63t63 26t63 -26t26 -63zM240 92q0 -26 -7.5 -45t-20.5 -31.5t-29 -19t-33 -6.5t-33 6.5t-29 19t-20.5 31.5t-7.5 45q0 43 13.5 87.5t29 98t29 119.5t13.5 152h10q0 -86 13.5 -152t29 -119.5t29 -98t13.5 -87.5z" />
    <glyph glyph-name="cent" unicode="&#xa2;" horiz-adv-x="562" 
d="M502 89v4q-8 23 -29 23q-17 0 -36 -8t-30 -13q-6 -2 -11.5 -4t-11.5 -4v-147h-12v144q-17 -3 -32 -3h-13q-8 0 -13 1v-142h-12v143q-56 8 -102 37t-79.5 72.5t-52 97t-18.5 110.5t18.5 110.5t52 97t79.5 72.5t102 37v143h12v-142q5 1 13 1h13q15 0 32 -3v144h12v-147
q6 -2 11.5 -3.5t11.5 -3.5q12 -5 30.5 -13.5t35.5 -8.5q11 0 19 6t11 21h9v-225h-9q-7 42 -16 77t-21.5 62t-30 46t-41.5 29q-6 2 -10 3v-605q5 2 10.5 4t11.5 4q42 23 62.5 76.5t34.5 131.5h9v-225h-10zM372 706q-17 3 -32 3q-7 0 -13.5 -0.5t-12.5 -1.5v-614q7 -1 13 -1.5
t13 -0.5q15 0 32 3v612zM302 704q-30 -8 -47.5 -27.5t-27 -46.5t-12.5 -59.5t-3 -66.5v-206q0 -34 3 -66.5t13 -60t27.5 -47.5t46.5 -28v608z" />
    <glyph glyph-name="sterling" unicode="&#xa3;" horiz-adv-x="615" 
d="M565 150q0 -30 -9 -57.5t-27 -48.5t-45 -33.5t-63 -12.5t-65.5 7.5t-53.5 19.5q-22 -14 -45.5 -22.5t-47.5 -11.5q-3 -1 -11 -1h-11q-35 0 -61 10.5t-43 27.5t-25 38.5t-8 44.5q0 21 7 40.5t20.5 34.5t34 24t46.5 9q29 0 57.5 -7t56.5 -18t54 -24.5t51 -26.5q1 3 1 9v9
q0 27 -10 49.5t-25.5 41t-35.5 34t-41 28.5q-5 2 -8.5 5t-8.5 5h-184v12h164q-28 17 -55.5 36.5t-49.5 46t-35.5 63t-13.5 86.5q0 61 22 106.5t58 75.5t81 45t90 15q54 0 93.5 -16.5t65 -42t37.5 -57t12 -62.5q0 -30 -8.5 -52t-22.5 -36.5t-31.5 -21t-35.5 -6.5
q-33 0 -60 21.5t-27 59.5q0 30 13.5 45.5t29.5 26t29.5 22t13.5 35.5q0 17 -9 30.5t-24.5 23.5t-35.5 15t-42 5q-25 0 -50 -7.5t-45 -24t-32.5 -41.5t-12.5 -61q0 -42 12.5 -70.5t32.5 -51t44.5 -42t48 -42.5t43.5 -52.5t31 -71.5h119v-12h-116q9 -36 9 -83q0 -30 -5 -56
t-13 -49q33 -17 62.5 -29.5t53.5 -12.5q26 0 38 18t12 40q0 17 -6 31t-17 21q-6 4 -6 11q0 12 11 12q8 0 12.5 -7.5t6.5 -13.5q8 -30 8 -56zM291 30q-21 11 -38.5 22.5t-33 21.5t-30 16t-28.5 6q-19 0 -30 -13.5t-11 -30.5q0 -26 19.5 -39t49.5 -13q27 0 53 8t49 22z" />
    <glyph glyph-name="currency" unicode="&#xa4;" horiz-adv-x="714" 
d="M624 0v5q-5 11 -18 16t-28 5q-12 0 -22.5 -5.5t-24.5 -12.5t-34.5 -12.5t-51.5 -5.5h-1h-16q-10 0 -15 1q-63 6 -115 35.5t-91.5 74.5t-65 102.5t-35.5 120.5h-106l5 12h99q-2 16 -3 32t-1 32t1 33t3 31h-104l5 12h101q10 62 35.5 119t64.5 102t91 74.5t115 36.5
q10 2 16 2h17q30 0 50.5 -5.5t35 -12.5t25.5 -12.5t22 -5.5q17 0 30.5 6t17.5 20h8v-244h-11q0 51 -12 95.5t-34.5 77.5t-55.5 52t-76 19h-10q-7 0 -10 -1q-51 -3 -78.5 -22t-40.5 -49t-16.5 -69.5t-6.5 -82.5q-2 -26 -3 -50.5t-2 -49.5h235l-5 -12h-230q-1 -8 -1 -16v-16
v-32v-32v-16t1 -16h177l-5 -12h-172q1 -25 2 -49.5t3 -50.5q3 -44 6.5 -83t16.5 -69t40.5 -49t78.5 -22q3 -1 10 -1h10q43 0 76 19t55.5 52t34.5 77.5t12 95.5h11v-244h-10z" />
    <glyph glyph-name="yen" unicode="&#xa5;" horiz-adv-x="773" 
d="M648 790l-178 -414h180v-12h-181v-68h181v-12h-181v-274h145v-10h-450v10h145v274h-199v12h199v68h-199v12h194l-179 414h-145v10h432v-10h-125l175 -405l174 405h-125v10h282v-10h-145z" />
    <glyph glyph-name="dieresis" unicode="&#xa8;" horiz-adv-x="807" 
d="M591 955q0 -30 -21 -51t-51 -21q-29 0 -50.5 21t-21.5 51t21.5 51t50.5 21q30 0 51 -21t21 -51zM360 955q0 -30 -21 -51t-51 -21q-29 0 -50.5 21t-21.5 51t21.5 51t50.5 21q30 0 51 -21t21 -51z" />
    <glyph glyph-name="copyright" unicode="&#xa9;" horiz-adv-x="920" 
d="M870 400q0 -85 -32.5 -159.5t-88 -130t-130 -88t-159.5 -32.5t-159.5 32.5t-130 88t-88 130t-32.5 159.5t32.5 159.5t88 130t130 88t159.5 32.5t159.5 -32.5t130 -88t88 -130t32.5 -159.5zM860 400q0 83 -31.5 156t-85.5 127t-127 85.5t-156 31.5t-156 -31.5t-127 -85.5
t-85.5 -127t-31.5 -156t31.5 -156t85.5 -127t127 -85.5t156 -31.5t156 31.5t127 85.5t85.5 127t31.5 156zM632 119v4q-4 9 -12.5 14t-18.5 5q-14 0 -28 -5.5t-28 -10.5q-19 -6 -39 -10t-43 -4h-14q-54 3 -97.5 29.5t-74 67t-47 90.5t-16.5 101q0 52 17 101.5t48.5 89.5
t74.5 66t96 30q3 1 8 1h9q25 0 42.5 -3.5t31.5 -8.5q7 -2 12.5 -4.5t10.5 -4.5q9 -4 17 -4q12 0 21 4.5t12 13.5h8v-183h-11q0 36 -11.5 68.5t-31 57t-45.5 39.5t-56 15h-9q-6 0 -9 -1q-35 -3 -52.5 -17t-26 -35.5t-10.5 -50t-5 -61.5q-2 -31 -3 -56.5t-1 -56.5t1 -56.5
t3 -56.5q3 -32 5 -60.5t10 -51t25.5 -36.5t50.5 -16q3 -1 8 -1h9q138 0 170 187h9v-190h-10z" />
    <glyph glyph-name="guillemotleft" unicode="&#xab;" horiz-adv-x="500" 
d="M453 205l-233 195l233 195l7 -9l-221 -186l221 -186zM273 205l-233 195l233 195l7 -9l-221 -186l221 -186z" />
    <glyph glyph-name="minus" unicode="&#xad;" horiz-adv-x="680" 
d="M70 394v12h540v-12h-540z" />
    <glyph glyph-name="registered" unicode="&#xae;" horiz-adv-x="920" 
d="M870 400q0 -85 -32.5 -159.5t-88 -130t-130 -88t-159.5 -32.5t-159.5 32.5t-130 88t-88 130t-32.5 159.5t32.5 159.5t88 130t130 88t159.5 32.5t159.5 -32.5t130 -88t88 -130t32.5 -159.5zM860 400q0 83 -31.5 156t-85.5 127t-127 85.5t-156 31.5t-156 -31.5t-127 -85.5
t-85.5 -127t-31.5 -156t31.5 -156t85.5 -127t127 -85.5t156 -31.5t156 31.5t127 85.5t85.5 127t31.5 156zM725 165q0 -7 -8 -15q-16 -17 -36.5 -27t-43.5 -10q-21 0 -40.5 8.5t-34.5 24t-24 38t-9 49.5v95q0 28 -13 46.5t-53 18.5h-61v-264h61v-10h-238v10h62v538h-62v10
h222q51 0 87.5 -12t60 -32t35 -45t11.5 -52q0 -46 -35 -84t-98 -50q43 -3 71 -16.5t44.5 -33.5t23.5 -44.5t7 -49.5v-91q0 -16 6.5 -23t14.5 -7q13 0 21.5 7t8.5 21q0 10 10 10t10 -10zM517 534q0 34 -3.5 59t-15.5 41.5t-34.5 24.5t-61.5 8v-263h37q27 0 42.5 12.5t23.5 32
t10 42.5t2 43z" />
    <glyph glyph-name="macron" unicode="&#xaf;" horiz-adv-x="796" 
d="M220 934v12h360v-12h-360z" />
    <glyph glyph-name="degree" unicode="&#xb0;" horiz-adv-x="340" 
d="M310 670q0 -29 -11 -54.5t-30 -44.5t-44.5 -30t-54.5 -11t-54.5 11t-44.5 30t-30 44.5t-11 54.5t11 54.5t30 44.5t44.5 30t54.5 11t54.5 -11t44.5 -30t30 -44.5t11 -54.5zM300 670q0 27 -10 50.5t-28 41.5t-41.5 28t-50.5 10t-50.5 -10t-41.5 -28t-28 -41.5t-10 -50.5
t10 -50.5t28 -41.5t41.5 -28t50.5 -10t50.5 10t41.5 28t28 41.5t10 50.5z" />
    <glyph glyph-name="acute" unicode="&#xb4;" horiz-adv-x="802" 
d="M535 960q0 -26 -10.5 -45.5t-28 -33t-39.5 -20.5t-45 -7q-34 0 -71 13t-63 36q-11 9 -11 19q0 5 3.5 7.5t7.5 2.5q10 0 12 -11q4 -30 35 -30q24 0 34 17t17 42q4 15 9 30.5t14 28t22 20.5t34 8q34 0 57 -21t23 -56z" />
    <glyph glyph-name="paragraph" unicode="&#xb6;" horiz-adv-x="580" 
d="M369 0v790h-141v-790h-155v10h145v461h-55q-35 0 -64.5 13t-51.5 35t-34.5 52t-12.5 65q0 34 12.5 63.5t34.5 52t51.5 35.5t63.5 13h363v-10h-146v-780h146v-10h-156zM218 790h-56q-32 0 -59.5 -12t-48 -33t-32.5 -49t-12 -60q0 -33 12 -61t32.5 -49t48.5 -33t60 -12h55
v309z" />
    <glyph glyph-name="periodcentered" unicode="&#xb7;" horiz-adv-x="278" 
d="M228 400q0 -37 -26 -63t-63 -26t-63 26t-26 63t26 63t63 26t63 -26t26 -63z" />
    <glyph glyph-name="periodcentered" unicode="&#x2219;" horiz-adv-x="278" 
d="M228 400q0 -37 -26 -63t-63 -26t-63 26t-26 63t26 63t63 26t63 -26t26 -63z" />
    <glyph glyph-name="cedilla" unicode="&#xb8;" horiz-adv-x="719" 
d="M471 -126q0 -29 -11.5 -51.5t-30 -37.5t-41.5 -23t-45 -8q-18 0 -35 6t-30.5 16.5t-21.5 26t-8 35.5q0 14 11 14q5 0 10 -4t5 -10q0 -7 -2 -13t-2 -13q0 -16 9.5 -23.5t23.5 -7.5q18 0 34.5 13.5t16.5 40.5q0 17 -9 32t-27 23l-9 7l104 102l9 -7l-14 -13q29 -17 46 -44.5
t17 -60.5z" />
    <glyph glyph-name="guillemotright" unicode="&#xbb;" horiz-adv-x="500" 
d="M227 205l-7 9l221 186l-221 186l7 9l233 -195zM47 205l-7 9l221 186l-221 186l7 9l233 -195z" />
    <glyph glyph-name="questiondown" unicode="&#xbf;" horiz-adv-x="594" 
d="M469 721q0 -37 -26 -63t-63 -26t-63 26t-26 63t26 63t63 26t63 -26t26 -63zM544 184q0 -44 -17.5 -78.5t-47 -59t-68 -38.5t-80.5 -17q-3 -1 -11 -1h-11q-61 0 -110 20.5t-83 54.5t-52.5 77.5t-18.5 89.5q0 63 24.5 104.5t61 69.5t79.5 46t79.5 35.5t61 37.5t24.5 52
q0 12 -1 15h10q11 -58 11 -96q0 -51 -17 -84.5t-43 -58t-56 -44t-56 -42.5t-43 -54t-17 -79q0 -27 9 -51t27.5 -42.5t46 -29.5t65.5 -11h10q8 0 11 1q22 2 42 8.5t35.5 16t24.5 22t9 26.5q0 24 -12.5 38t-27 26.5t-27 29t-12.5 45.5q0 40 26.5 61.5t59.5 21.5q17 0 34 -6.5
t30.5 -20t21.5 -35t8 -50.5z" />
    <glyph glyph-name="Agrave" unicode="&#xc0;" horiz-adv-x="825" 
d="M409 0v10h155l-110 285h-249l-109 -285h145v-10h-301v10h145l318 828h10l317 -828h155v-10h-476zM330 619l-121 -314h241zM545 922q0 -10 -11 -19q-26 -23 -63 -36t-71 -13q-23 0 -45 7t-39.5 20.5t-28 33t-10.5 45.5q0 35 23 56t57 21q21 0 34.5 -8t21.5 -20.5t13 -28
t10 -30.5q7 -25 17 -42t34 -17q30 0 35 30q2 11 12 11q4 0 7.5 -2.5t3.5 -7.5z" />
    <glyph glyph-name="Aacute" unicode="&#xc1;" horiz-adv-x="825" 
d="M409 0v10h155l-110 285h-249l-109 -285h145v-10h-301v10h145l318 828h10l317 -828h155v-10h-476zM330 619l-121 -314h241zM535 960q0 -26 -10.5 -45.5t-28 -33t-39.5 -20.5t-45 -7q-34 0 -71 13t-63 36q-11 9 -11 19q0 5 3.5 7.5t7.5 2.5q10 0 12 -11q4 -30 35 -30
q24 0 34 17t17 42q4 15 9 30.5t14 28t22 20.5t34 8q34 0 57 -21t23 -56z" />
    <glyph glyph-name="Acircumflex" unicode="&#xc2;" horiz-adv-x="825" 
d="M409 0v10h155l-110 285h-249l-109 -285h145v-10h-301v10h145l318 828h10l317 -828h155v-10h-476zM330 619l-121 -314h241zM594 889l-186 184l-186 -184l-9 7l195 193l195 -193z" />
    <glyph glyph-name="Atilde" unicode="&#xc3;" horiz-adv-x="825" 
d="M409 0v10h155l-110 285h-249l-109 -285h145v-10h-301v10h145l318 828h10l317 -828h155v-10h-476zM330 619l-121 -314h241zM600 987q0 -30 -11.5 -53t-31 -38.5t-45.5 -24t-54 -8.5q-44 0 -69 13.5t-43 30t-35 30.5t-44 14q-31 0 -35 -28q-1 -9 1 -15.5t5 -11.5t6 -9.5
t3 -9.5q0 -12 -11 -12q-9 0 -12.5 8.5t-3.5 16.5v10q0 30 11.5 52.5t31 38.5t45 24t54.5 8q43 0 68.5 -13.5t43.5 -30t35 -30t44 -13.5q14 0 24.5 8.5t10.5 23.5q0 16 -7.5 24.5t-7.5 17.5q0 12 12 12q8 0 11.5 -8.5t3.5 -16.5v-10v0z" />
    <glyph glyph-name="Adieresis" unicode="&#xc4;" horiz-adv-x="825" 
d="M409 0v10h155l-110 285h-249l-109 -285h145v-10h-301v10h145l318 828h10l317 -828h155v-10h-476zM330 619l-121 -314h241zM591 955q0 -30 -21 -51t-51 -21q-29 0 -50.5 21t-21.5 51t21.5 51t50.5 21q30 0 51 -21t21 -51zM360 955q0 -30 -21 -51t-51 -21q-29 0 -50.5 21
t-21.5 51t21.5 51t50.5 21q30 0 51 -21t21 -51z" />
    <glyph glyph-name="Aring" unicode="&#xc5;" horiz-adv-x="825" 
d="M409 0v10h155l-110 285h-249l-109 -285h145v-10h-301v10h145l318 828h10l317 -828h155v-10h-476zM330 619l-121 -314h241zM512 966q0 -20 -7.5 -37.5t-21 -30.5t-31 -20.5t-37.5 -7.5q-40 0 -68 28t-28 68q0 42 28 69.5t68 27.5q20 0 37.5 -7.5t31 -20.5t21 -31t7.5 -38z
M502 966q0 36 -25.5 61.5t-61.5 25.5q-18 0 -33.5 -7t-27 -18.5t-18.5 -27.5t-7 -34t7 -33.5t18.5 -27t27 -18.5t33.5 -7t34 7t27.5 18.5t18.5 27t7 33.5z" />
    <glyph glyph-name="AE" unicode="&#xc6;" horiz-adv-x="1075" 
d="M360 0v10h145v385h-207l-202 -385h145v-10h-301v10h145l414 790h511v-251h-9q0 50 -19 94t-52 76.5t-77 51.5t-94 19h-94v-385h23q32 0 58.5 11.5t45.5 31t29.5 45t10.5 52.5h8v-287h-8q0 26 -10.5 50.5t-29.5 44t-45.5 31t-58.5 11.5h-23v-385h88q58 0 109.5 22t90 60.5
t60.5 90t22 110.5h10v-293h-685zM303 405h202v385z" />
    <glyph glyph-name="Ccedilla" unicode="&#xc7;" horiz-adv-x="707" 
d="M647 0v4q-5 15 -18 22.5t-28 7.5q-20 0 -41 -8.5t-39 -14.5q-28 -9 -56.5 -15t-60.5 -6h-2q-28 0 -48 4q-70 11 -127 50t-97.5 95t-62.5 124t-22 137t22 136t62 121.5t95.5 93.5t122.5 53q31 6 62 6q35 0 61 -5.5t45 -12.5t33 -12.5t25 -5.5q17 0 30.5 6t17.5 20h8v-244
h-11q0 51 -16.5 95.5t-45 77.5t-66 52t-80.5 19q-32 0 -62 -6q-37 -8 -59 -27.5t-34.5 -48t-18 -64.5t-8.5 -78q-4 -45 -5 -88t-1 -88t1 -88t5 -88q3 -42 8.5 -79t18.5 -66t36.5 -48.5t63.5 -26.5q11 -2 23 -3t24 -1h2q30 0 59 6q149 33 185 248h9v-254h-10zM471 -126
q0 -29 -11.5 -51.5t-30 -37.5t-41.5 -23t-45 -8q-18 0 -35 6t-30.5 16.5t-21.5 26t-8 35.5q0 14 11 14q5 0 10 -4t5 -10q0 -7 -2 -13t-2 -13q0 -16 9.5 -23.5t23.5 -7.5q18 0 34.5 13.5t16.5 40.5q0 17 -9 32t-27 23l-9 7l104 102l9 -7l-14 -13q29 -17 46 -44.5t17 -60.5z
" />
    <glyph glyph-name="Egrave" unicode="&#xc8;" horiz-adv-x="715" 
d="M0 0v10h145v780h-145v10h650v-251h-9q0 50 -19 94t-52 76.5t-77 51.5t-94 19h-94v-385h23q32 0 58.5 11.5t45.5 31t29.5 45t10.5 52.5h8v-287h-8q0 26 -10.5 50.5t-29.5 44t-45.5 31t-58.5 11.5h-23v-385h88q58 0 109.5 22t90 60.5t60.5 90t22 110.5h10v-293h-685z
M545 922q0 -10 -11 -19q-26 -23 -63 -36t-71 -13q-23 0 -45 7t-39.5 20.5t-28 33t-10.5 45.5q0 35 23 56t57 21q21 0 34.5 -8t21.5 -20.5t13 -28t10 -30.5q7 -25 17 -42t34 -17q30 0 35 30q2 11 12 11q4 0 7.5 -2.5t3.5 -7.5z" />
    <glyph glyph-name="Eacute" unicode="&#xc9;" horiz-adv-x="715" 
d="M0 0v10h145v780h-145v10h650v-251h-9q0 50 -19 94t-52 76.5t-77 51.5t-94 19h-94v-385h23q32 0 58.5 11.5t45.5 31t29.5 45t10.5 52.5h8v-287h-8q0 26 -10.5 50.5t-29.5 44t-45.5 31t-58.5 11.5h-23v-385h88q58 0 109.5 22t90 60.5t60.5 90t22 110.5h10v-293h-685z
M535 960q0 -26 -10.5 -45.5t-28 -33t-39.5 -20.5t-45 -7q-34 0 -71 13t-63 36q-11 9 -11 19q0 5 3.5 7.5t7.5 2.5q10 0 12 -11q4 -30 35 -30q24 0 34 17t17 42q4 15 9 30.5t14 28t22 20.5t34 8q34 0 57 -21t23 -56z" />
    <glyph glyph-name="Ecircumflex" unicode="&#xca;" horiz-adv-x="715" 
d="M0 0v10h145v780h-145v10h650v-251h-9q0 50 -19 94t-52 76.5t-77 51.5t-94 19h-94v-385h23q32 0 58.5 11.5t45.5 31t29.5 45t10.5 52.5h8v-287h-8q0 26 -10.5 50.5t-29.5 44t-45.5 31t-58.5 11.5h-23v-385h88q58 0 109.5 22t90 60.5t60.5 90t22 110.5h10v-293h-685z
M584 889l-186 184l-186 -184l-9 7l195 193l195 -193z" />
    <glyph glyph-name="Edieresis" unicode="&#xcb;" horiz-adv-x="715" 
d="M0 0v10h145v780h-145v10h650v-251h-9q0 50 -19 94t-52 76.5t-77 51.5t-94 19h-94v-385h23q32 0 58.5 11.5t45.5 31t29.5 45t10.5 52.5h8v-287h-8q0 26 -10.5 50.5t-29.5 44t-45.5 31t-58.5 11.5h-23v-385h88q58 0 109.5 22t90 60.5t60.5 90t22 110.5h10v-293h-685z
M591 955q0 -30 -21 -51t-51 -21q-29 0 -50.5 21t-21.5 51t21.5 51t50.5 21q30 0 51 -21t21 -51zM360 955q0 -30 -21 -51t-51 -21q-29 0 -50.5 21t-21.5 51t21.5 51t50.5 21q30 0 51 -21t21 -51z" />
    <glyph glyph-name="Igrave" unicode="&#xcc;" horiz-adv-x="450" 
d="M0 0v10h145v780h-145v10h450v-10h-145v-780h145v-10h-450zM387 922q0 -10 -11 -19q-26 -23 -63 -36t-71 -13q-23 0 -45 7t-39.5 20.5t-28 33t-10.5 45.5q0 35 23 56t57 21q21 0 34.5 -8t21.5 -20.5t13 -28t10 -30.5q7 -25 17 -42t34 -17q30 0 35 30q2 11 12 11
q4 0 7.5 -2.5t3.5 -7.5z" />
    <glyph glyph-name="Iacute" unicode="&#xcd;" horiz-adv-x="450" 
d="M0 0v10h145v780h-145v10h450v-10h-145v-780h145v-10h-450zM357 960q0 -26 -10.5 -45.5t-28 -33t-39.5 -20.5t-45 -7q-34 0 -71 13t-63 36q-11 9 -11 19q0 5 3.5 7.5t7.5 2.5q10 0 12 -11q4 -30 35 -30q24 0 34 17t17 42q4 15 9 30.5t14 28t22 20.5t34 8q34 0 57 -21
t23 -56z" />
    <glyph glyph-name="Icircumflex" unicode="&#xce;" horiz-adv-x="450" 
d="M0 0v10h145v780h-145v10h450v-10h-145v-780h145v-10h-450zM418 889l-186 184l-186 -184l-9 7l195 193l195 -193z" />
    <glyph glyph-name="Idieresis" unicode="&#xcf;" horiz-adv-x="450" 
d="M0 0v10h145v780h-145v10h450v-10h-145v-780h145v-10h-450zM413 955q0 -30 -21 -51t-51 -21q-29 0 -50.5 21t-21.5 51t21.5 51t50.5 21q30 0 51 -21t21 -51zM182 955q0 -30 -21 -51t-51 -21q-29 0 -50.5 21t-21.5 51t21.5 51t50.5 21q30 0 51 -21t21 -51z" />
    <glyph glyph-name="Eth" unicode="&#xd0;" horiz-adv-x="821" 
d="M776 400q0 -85 -30 -158t-81 -127t-119.5 -84.5t-144.5 -30.5h-401v10h145v361l-139 -69l-6 11l145 72v405h-145v10h401q76 0 144.5 -30.5t119.5 -84.5t81 -127t30 -158zM599 483q0 55 -6.5 109.5t-27.5 98.5t-60 71.5t-104 27.5h-96v-325l139 70l6 -11l-145 -73v-441h96
q65 0 104 27.5t60 71.5t27.5 98.5t6.5 108.5v84v83z" />
    <glyph glyph-name="Ntilde" unicode="&#xd1;" horiz-adv-x="820" 
d="M676 790v-790h-16l-506 791v-781h146v-10h-300v10h144v780h-144v10h322l344 -539v529h-146v10h300v-10h-144zM600 987q0 -30 -11.5 -53t-31 -38.5t-45.5 -24t-54 -8.5q-44 0 -69 13.5t-43 30t-35 30.5t-44 14q-31 0 -35 -28q-1 -9 1 -15.5t5 -11.5t6 -9.5t3 -9.5
q0 -12 -11 -12q-9 0 -12.5 8.5t-3.5 16.5v10q0 30 11.5 52.5t31 38.5t45 24t54.5 8q43 0 68.5 -13.5t43.5 -30t35 -30t44 -13.5q14 0 24.5 8.5t10.5 23.5q0 16 -7.5 24.5t-7.5 17.5q0 12 12 12q8 0 11.5 -8.5t3.5 -16.5v-10v0z" />
    <glyph glyph-name="Ograve" unicode="&#xd2;" 
d="M786 400q0 -74 -22 -140t-61 -119t-92.5 -90t-116.5 -52q-38 -9 -78 -9q-42 0 -79 9q-63 15 -116.5 52t-92.5 90t-61 119t-22 140q0 73 22 139.5t61 119.5t92.5 90t115.5 52q40 9 80 9t78 -9q63 -15 116.5 -52t92.5 -90t61 -119.5t22 -139.5zM609 400q0 19 -0.5 42
t-1.5 47t-2 46.5t-2 40.5q-3 40 -8 75t-16 63t-31.5 47.5t-54.5 29.5q-19 5 -38 7t-38 2q-20 0 -39.5 -2t-39.5 -7q-35 -10 -55.5 -29.5t-31.5 -47.5t-15.5 -63t-7.5 -75q-2 -18 -3 -40.5t-2 -46.5t-1 -47v-42v-42t1 -47t2 -46.5t3 -40.5q3 -41 7.5 -75.5t15.5 -62.5
t31.5 -47.5t55.5 -29.5q20 -5 39 -7t39 -2t39 2t38 7q34 10 54.5 29.5t31.5 47.5t16 62.5t8 75.5q1 18 2 40.5t2 46.5t1.5 47t0.5 42zM555 922q0 -10 -11 -19q-26 -23 -63 -36t-71 -13q-23 0 -45 7t-39.5 20.5t-28 33t-10.5 45.5q0 35 23 56t57 21q21 0 34.5 -8t21.5 -20.5
t13 -28t10 -30.5q7 -25 17 -42t34 -17q30 0 35 30q2 11 12 11q4 0 7.5 -2.5t3.5 -7.5z" />
    <glyph glyph-name="Oacute" unicode="&#xd3;" 
d="M786 400q0 -74 -22 -140t-61 -119t-92.5 -90t-116.5 -52q-38 -9 -78 -9q-42 0 -79 9q-63 15 -116.5 52t-92.5 90t-61 119t-22 140q0 73 22 139.5t61 119.5t92.5 90t115.5 52q40 9 80 9t78 -9q63 -15 116.5 -52t92.5 -90t61 -119.5t22 -139.5zM609 400q0 19 -0.5 42
t-1.5 47t-2 46.5t-2 40.5q-3 40 -8 75t-16 63t-31.5 47.5t-54.5 29.5q-19 5 -38 7t-38 2q-20 0 -39.5 -2t-39.5 -7q-35 -10 -55.5 -29.5t-31.5 -47.5t-15.5 -63t-7.5 -75q-2 -18 -3 -40.5t-2 -46.5t-1 -47v-42v-42t1 -47t2 -46.5t3 -40.5q3 -41 7.5 -75.5t15.5 -62.5
t31.5 -47.5t55.5 -29.5q20 -5 39 -7t39 -2t39 2t38 7q34 10 54.5 29.5t31.5 47.5t16 62.5t8 75.5q1 18 2 40.5t2 46.5t1.5 47t0.5 42zM545 960q0 -26 -10.5 -45.5t-28 -33t-39.5 -20.5t-45 -7q-34 0 -71 13t-63 36q-11 9 -11 19q0 5 3.5 7.5t7.5 2.5q10 0 12 -11
q4 -30 35 -30q24 0 34 17t17 42q4 15 9 30.5t14 28t22 20.5t34 8q34 0 57 -21t23 -56z" />
    <glyph glyph-name="Ocircumflex" unicode="&#xd4;" 
d="M786 400q0 -74 -22 -140t-61 -119t-92.5 -90t-116.5 -52q-38 -9 -78 -9q-42 0 -79 9q-63 15 -116.5 52t-92.5 90t-61 119t-22 140q0 73 22 139.5t61 119.5t92.5 90t115.5 52q40 9 80 9t78 -9q63 -15 116.5 -52t92.5 -90t61 -119.5t22 -139.5zM609 400q0 19 -0.5 42
t-1.5 47t-2 46.5t-2 40.5q-3 40 -8 75t-16 63t-31.5 47.5t-54.5 29.5q-19 5 -38 7t-38 2q-20 0 -39.5 -2t-39.5 -7q-35 -10 -55.5 -29.5t-31.5 -47.5t-15.5 -63t-7.5 -75q-2 -18 -3 -40.5t-2 -46.5t-1 -47v-42v-42t1 -47t2 -46.5t3 -40.5q3 -41 7.5 -75.5t15.5 -62.5
t31.5 -47.5t55.5 -29.5q20 -5 39 -7t39 -2t39 2t38 7q34 10 54.5 29.5t31.5 47.5t16 62.5t8 75.5q1 18 2 40.5t2 46.5t1.5 47t0.5 42zM603 889l-186 184l-186 -184l-9 7l195 193l195 -193z" />
    <glyph glyph-name="Otilde" unicode="&#xd5;" 
d="M786 400q0 -74 -22 -140t-61 -119t-92.5 -90t-116.5 -52q-38 -9 -78 -9q-42 0 -79 9q-63 15 -116.5 52t-92.5 90t-61 119t-22 140q0 73 22 139.5t61 119.5t92.5 90t115.5 52q40 9 80 9t78 -9q63 -15 116.5 -52t92.5 -90t61 -119.5t22 -139.5zM609 400q0 19 -0.5 42
t-1.5 47t-2 46.5t-2 40.5q-3 40 -8 75t-16 63t-31.5 47.5t-54.5 29.5q-19 5 -38 7t-38 2q-20 0 -39.5 -2t-39.5 -7q-35 -10 -55.5 -29.5t-31.5 -47.5t-15.5 -63t-7.5 -75q-2 -18 -3 -40.5t-2 -46.5t-1 -47v-42v-42t1 -47t2 -46.5t3 -40.5q3 -41 7.5 -75.5t15.5 -62.5
t31.5 -47.5t55.5 -29.5q20 -5 39 -7t39 -2t39 2t38 7q34 10 54.5 29.5t31.5 47.5t16 62.5t8 75.5q1 18 2 40.5t2 46.5t1.5 47t0.5 42zM600 987q0 -30 -11.5 -53t-31 -38.5t-45.5 -24t-54 -8.5q-44 0 -69 13.5t-43 30t-35 30.5t-44 14q-31 0 -35 -28q-1 -9 1 -15.5t5 -11.5
t6 -9.5t3 -9.5q0 -12 -11 -12q-9 0 -12.5 8.5t-3.5 16.5v10q0 30 11.5 52.5t31 38.5t45 24t54.5 8q43 0 68.5 -13.5t43.5 -30t35 -30t44 -13.5q14 0 24.5 8.5t10.5 23.5q0 16 -7.5 24.5t-7.5 17.5q0 12 12 12q8 0 11.5 -8.5t3.5 -16.5v-10v0z" />
    <glyph glyph-name="Odieresis" unicode="&#xd6;" 
d="M786 400q0 -74 -22 -140t-61 -119t-92.5 -90t-116.5 -52q-38 -9 -78 -9q-42 0 -79 9q-63 15 -116.5 52t-92.5 90t-61 119t-22 140q0 73 22 139.5t61 119.5t92.5 90t115.5 52q40 9 80 9t78 -9q63 -15 116.5 -52t92.5 -90t61 -119.5t22 -139.5zM609 400q0 19 -0.5 42
t-1.5 47t-2 46.5t-2 40.5q-3 40 -8 75t-16 63t-31.5 47.5t-54.5 29.5q-19 5 -38 7t-38 2q-20 0 -39.5 -2t-39.5 -7q-35 -10 -55.5 -29.5t-31.5 -47.5t-15.5 -63t-7.5 -75q-2 -18 -3 -40.5t-2 -46.5t-1 -47v-42v-42t1 -47t2 -46.5t3 -40.5q3 -41 7.5 -75.5t15.5 -62.5
t31.5 -47.5t55.5 -29.5q20 -5 39 -7t39 -2t39 2t38 7q34 10 54.5 29.5t31.5 47.5t16 62.5t8 75.5q1 18 2 40.5t2 46.5t1.5 47t0.5 42zM601 955q0 -30 -21 -51t-51 -21q-29 0 -50.5 21t-21.5 51t21.5 51t50.5 21q30 0 51 -21t21 -51zM370 955q0 -30 -21 -51t-51 -21
q-29 0 -50.5 21t-21.5 51t21.5 51t50.5 21q30 0 51 -21t21 -51z" />
    <glyph glyph-name="multiply" unicode="&#xd7;" horiz-adv-x="530" 
d="M452 205l-187 187l-187 -187l-8 8l187 187l-187 187l8 8l187 -187l187 187l8 -6l-186 -189l186 -187z" />
    <glyph glyph-name="Oslash" unicode="&#xd8;" 
d="M786 400q0 -74 -22 -140t-61 -119t-92.5 -90t-116.5 -52q-38 -9 -78 -9q-42 0 -79 9q-90 22 -159 87l-74 -96l-10 7l75 97q-57 57 -90.5 135t-33.5 171q0 73 22 139.5t61 119.5t92.5 90t115.5 52q40 9 80 9t78 -9q91 -22 160 -87l75 96l9 -7l-75 -99q57 -57 90 -135
t33 -169zM597 640q-4 29 -10.5 53t-18 43t-30 33t-45.5 22q-19 5 -38 7t-38 2q-20 0 -39.5 -2t-39.5 -7q-35 -10 -55.5 -29.5t-31.5 -47.5t-15.5 -63t-7.5 -75q-2 -18 -3 -40.5t-2 -46.5t-1 -47v-42v-42t1 -47t2 -46.5t3 -40.5q1 -13 2 -25t2 -23zM609 400q0 19 -0.5 42
t-1.5 47t-2 46.5t-2 40.5l-2 24t-3 23l-363 -466q7 -55 28 -94t75 -54q20 -5 39 -7t39 -2t39 2t38 7q35 10 55.5 29.5t31.5 47.5t15.5 62.5t7.5 75.5q1 18 2 40.5t2 46.5t1.5 47t0.5 42z" />
    <glyph glyph-name="Ugrave" unicode="&#xd9;" horiz-adv-x="800" 
d="M676 790v-581q0 -66 -33.5 -112.5t-87.5 -72.5q-8 -4 -16.5 -7.5t-17.5 -6.5q-58 -20 -120 -20q-52 0 -101.5 13.5t-88.5 41t-62.5 68.5t-23.5 97v580h-145v10h430v-10h-125v-620q0 -41 13 -72t35.5 -51t52 -30t61.5 -10q39 0 72 13q8 2 15.5 5.5t15.5 7.5q24 12 45 29
t36.5 39t25 49t9.5 58v582h-146v10h300v-10h-144zM545 922q0 -10 -11 -19q-26 -23 -63 -36t-71 -13q-23 0 -45 7t-39.5 20.5t-28 33t-10.5 45.5q0 35 23 56t57 21q21 0 34.5 -8t21.5 -20.5t13 -28t10 -30.5q7 -25 17 -42t34 -17q30 0 35 30q2 11 12 11q4 0 7.5 -2.5
t3.5 -7.5z" />
    <glyph glyph-name="Uacute" unicode="&#xda;" horiz-adv-x="800" 
d="M676 790v-581q0 -66 -33.5 -112.5t-87.5 -72.5q-8 -4 -16.5 -7.5t-17.5 -6.5q-58 -20 -120 -20q-52 0 -101.5 13.5t-88.5 41t-62.5 68.5t-23.5 97v580h-145v10h430v-10h-125v-620q0 -41 13 -72t35.5 -51t52 -30t61.5 -10q39 0 72 13q8 2 15.5 5.5t15.5 7.5q24 12 45 29
t36.5 39t25 49t9.5 58v582h-146v10h300v-10h-144zM535 960q0 -26 -10.5 -45.5t-28 -33t-39.5 -20.5t-45 -7q-34 0 -71 13t-63 36q-11 9 -11 19q0 5 3.5 7.5t7.5 2.5q10 0 12 -11q4 -30 35 -30q24 0 34 17t17 42q4 15 9 30.5t14 28t22 20.5t34 8q34 0 57 -21t23 -56z" />
    <glyph glyph-name="Ucircumflex" unicode="&#xdb;" horiz-adv-x="800" 
d="M676 790v-581q0 -66 -33.5 -112.5t-87.5 -72.5q-8 -4 -16.5 -7.5t-17.5 -6.5q-58 -20 -120 -20q-52 0 -101.5 13.5t-88.5 41t-62.5 68.5t-23.5 97v580h-145v10h430v-10h-125v-620q0 -41 13 -72t35.5 -51t52 -30t61.5 -10q39 0 72 13q8 2 15.5 5.5t15.5 7.5q24 12 45 29
t36.5 39t25 49t9.5 58v582h-146v10h300v-10h-144zM584 889l-186 184l-186 -184l-9 7l195 193l195 -193z" />
    <glyph glyph-name="Udieresis" unicode="&#xdc;" horiz-adv-x="800" 
d="M676 790v-581q0 -66 -33.5 -112.5t-87.5 -72.5q-8 -4 -16.5 -7.5t-17.5 -6.5q-58 -20 -120 -20q-52 0 -101.5 13.5t-88.5 41t-62.5 68.5t-23.5 97v580h-145v10h430v-10h-125v-620q0 -41 13 -72t35.5 -51t52 -30t61.5 -10q39 0 72 13q8 2 15.5 5.5t15.5 7.5q24 12 45 29
t36.5 39t25 49t9.5 58v582h-146v10h300v-10h-144zM591 955q0 -30 -21 -51t-51 -21q-29 0 -50.5 21t-21.5 51t21.5 51t50.5 21q30 0 51 -21t21 -51zM360 955q0 -30 -21 -51t-51 -21q-29 0 -50.5 21t-21.5 51t21.5 51t50.5 21q30 0 51 -21t21 -51z" />
    <glyph glyph-name="Yacute" unicode="&#xdd;" horiz-adv-x="753" 
d="M668 790l-209 -417v-363h145v-10h-450v10h145v354l-214 426h-145v10h434v-10h-125l204 -407l204 407h-127v10h283v-10h-145zM535 960q0 -26 -10.5 -45.5t-28 -33t-39.5 -20.5t-45 -7q-34 0 -71 13t-63 36q-11 9 -11 19q0 5 3.5 7.5t7.5 2.5q10 0 12 -11q4 -30 35 -30
q24 0 34 17t17 42q4 15 9 30.5t14 28t22 20.5t34 8q34 0 57 -21t23 -56z" />
    <glyph glyph-name="Thorn" unicode="&#xde;" horiz-adv-x="705" 
d="M705 400q0 -45 -18 -87t-52.5 -74.5t-86.5 -52t-119 -19.5h-124v-157h145v-10h-450v10h145v780h-145v10h450v-10h-145v-157h124q67 0 119 -19.5t86.5 -52t52.5 -74.5t18 -87zM533 400q0 63 -8 105.5t-27 68.5t-50.5 37.5t-77.5 11.5h-65v-446h65q46 0 77.5 11.5
t50.5 37.5t27 68.5t8 105.5z" />
    <glyph glyph-name="germandbls" unicode="&#xdf;" horiz-adv-x="817" 
d="M767 213q0 -43 -15 -83t-43 -71t-68.5 -50t-90.5 -19h-7t-12 1q-42 3 -73.5 19.5t-52 40.5t-31 52.5t-10.5 55.5q0 43 23.5 74t71.5 31q33 0 59.5 -21.5t26.5 -61.5q0 -19 -6 -31t-14.5 -20t-19 -13.5t-19 -12t-14.5 -16.5t-6 -26q0 -26 19.5 -42t45.5 -19q3 -1 15 -1
q19 0 39 7.5t36 22.5t26 38t10 54q0 43 -14.5 72.5t-37 52t-48 42t-48 42t-37 51t-14.5 70.5q0 27 9 60.5t19.5 69.5t19.5 71.5t9 64.5q0 15 -4.5 29t-15.5 25q-12 14 -29 20t-34 6q-20 0 -39 -7.5t-34 -22t-24.5 -36.5t-9.5 -50v-682h-305v10h145v510h-145v10h145v60
q0 50 24.5 91t61.5 69.5t81 44t84 15.5q23 0 45.5 -6t39.5 -23q13 -13 18.5 -29t5.5 -34q0 -38 -5 -70.5t-5 -58.5q0 -41 13.5 -68t34.5 -47t47.5 -36t52.5 -34q54 -37 79 -87t25 -104z" />
    <glyph glyph-name="agrave" unicode="&#xe0;" horiz-adv-x="809" 
d="M789 64q0 -6 -3 -11t-7 -10q-25 -26 -54 -39.5t-66 -13.5q-55 0 -86 21.5t-46 54t-18.5 70.5t-3.5 72q-4 -9 -5 -17q-14 -44 -44.5 -80.5t-69.5 -63t-83 -41.5t-86 -15q-33 0 -62.5 10t-51.5 32t-35 56.5t-13 83.5q0 32 11 63.5t30 54.5q31 38 68 63.5t78.5 41t85 23
t86.5 9.5q8 0 15.5 0.5t15.5 0.5h60v215q0 34 -3.5 62.5t-15.5 49t-35.5 32t-62.5 12.5q-27 0 -57 -6q-17 -4 -34.5 -11t-31.5 -16.5t-23 -22.5t-9 -30q0 -11 7 -23.5t15.5 -26t15.5 -28.5t7 -31q0 -17 -7 -32t-19 -26.5t-27.5 -18.5t-31.5 -7q-42 0 -63 27.5t-21 69.5
q0 49 30 85t74 60t94 35.5t89 11.5q128 0 198.5 -56t70.5 -182v-512q0 -24 13 -36.5t30 -12.5q22 0 39.5 14.5t17.5 37.5q0 12 12 12t12 -11zM505 419h-40h-26h-12t-13 -1q-37 -3 -73.5 -15t-65 -37t-46.5 -65t-18 -99q0 -37 9 -64t25 -44.5t36.5 -26t43.5 -8.5q38 0 76 22
t65 64q24 36 31.5 72.5t7.5 56.5v145zM545 922q0 -10 -11 -19q-26 -23 -63 -36t-71 -13q-23 0 -45 7t-39.5 20.5t-28 33t-10.5 45.5q0 35 23 56t57 21q21 0 34.5 -8t21.5 -20.5t13 -28t10 -30.5q7 -25 17 -42t34 -17q30 0 35 30q2 11 12 11q4 0 7.5 -2.5t3.5 -7.5z" />
    <glyph glyph-name="aacute" unicode="&#xe1;" horiz-adv-x="809" 
d="M789 64q0 -6 -3 -11t-7 -10q-25 -26 -54 -39.5t-66 -13.5q-55 0 -86 21.5t-46 54t-18.5 70.5t-3.5 72q-4 -9 -5 -17q-14 -44 -44.5 -80.5t-69.5 -63t-83 -41.5t-86 -15q-33 0 -62.5 10t-51.5 32t-35 56.5t-13 83.5q0 32 11 63.5t30 54.5q31 38 68 63.5t78.5 41t85 23
t86.5 9.5q8 0 15.5 0.5t15.5 0.5h60v215q0 34 -3.5 62.5t-15.5 49t-35.5 32t-62.5 12.5q-27 0 -57 -6q-17 -4 -34.5 -11t-31.5 -16.5t-23 -22.5t-9 -30q0 -11 7 -23.5t15.5 -26t15.5 -28.5t7 -31q0 -17 -7 -32t-19 -26.5t-27.5 -18.5t-31.5 -7q-42 0 -63 27.5t-21 69.5
q0 49 30 85t74 60t94 35.5t89 11.5q128 0 198.5 -56t70.5 -182v-512q0 -24 13 -36.5t30 -12.5q22 0 39.5 14.5t17.5 37.5q0 12 12 12t12 -11zM505 419h-40h-26h-12t-13 -1q-37 -3 -73.5 -15t-65 -37t-46.5 -65t-18 -99q0 -37 9 -64t25 -44.5t36.5 -26t43.5 -8.5q38 0 76 22
t65 64q24 36 31.5 72.5t7.5 56.5v145zM535 960q0 -26 -10.5 -45.5t-28 -33t-39.5 -20.5t-45 -7q-34 0 -71 13t-63 36q-11 9 -11 19q0 5 3.5 7.5t7.5 2.5q10 0 12 -11q4 -30 35 -30q24 0 34 17t17 42q4 15 9 30.5t14 28t22 20.5t34 8q34 0 57 -21t23 -56z" />
    <glyph glyph-name="acircumflex" unicode="&#xe2;" horiz-adv-x="809" 
d="M789 64q0 -6 -3 -11t-7 -10q-25 -26 -54 -39.5t-66 -13.5q-55 0 -86 21.5t-46 54t-18.5 70.5t-3.5 72q-4 -9 -5 -17q-14 -44 -44.5 -80.5t-69.5 -63t-83 -41.5t-86 -15q-33 0 -62.5 10t-51.5 32t-35 56.5t-13 83.5q0 32 11 63.5t30 54.5q31 38 68 63.5t78.5 41t85 23
t86.5 9.5q8 0 15.5 0.5t15.5 0.5h60v215q0 34 -3.5 62.5t-15.5 49t-35.5 32t-62.5 12.5q-27 0 -57 -6q-17 -4 -34.5 -11t-31.5 -16.5t-23 -22.5t-9 -30q0 -11 7 -23.5t15.5 -26t15.5 -28.5t7 -31q0 -17 -7 -32t-19 -26.5t-27.5 -18.5t-31.5 -7q-42 0 -63 27.5t-21 69.5
q0 49 30 85t74 60t94 35.5t89 11.5q128 0 198.5 -56t70.5 -182v-512q0 -24 13 -36.5t30 -12.5q22 0 39.5 14.5t17.5 37.5q0 12 12 12t12 -11zM505 419h-40h-26h-12t-13 -1q-37 -3 -73.5 -15t-65 -37t-46.5 -65t-18 -99q0 -37 9 -64t25 -44.5t36.5 -26t43.5 -8.5q38 0 76 22
t65 64q24 36 31.5 72.5t7.5 56.5v145zM584 889l-186 184l-186 -184l-9 7l195 193l195 -193z" />
    <glyph glyph-name="atilde" unicode="&#xe3;" horiz-adv-x="809" 
d="M789 64q0 -6 -3 -11t-7 -10q-25 -26 -54 -39.5t-66 -13.5q-55 0 -86 21.5t-46 54t-18.5 70.5t-3.5 72q-4 -9 -5 -17q-14 -44 -44.5 -80.5t-69.5 -63t-83 -41.5t-86 -15q-33 0 -62.5 10t-51.5 32t-35 56.5t-13 83.5q0 32 11 63.5t30 54.5q31 38 68 63.5t78.5 41t85 23
t86.5 9.5q8 0 15.5 0.5t15.5 0.5h60v215q0 34 -3.5 62.5t-15.5 49t-35.5 32t-62.5 12.5q-27 0 -57 -6q-17 -4 -34.5 -11t-31.5 -16.5t-23 -22.5t-9 -30q0 -11 7 -23.5t15.5 -26t15.5 -28.5t7 -31q0 -17 -7 -32t-19 -26.5t-27.5 -18.5t-31.5 -7q-42 0 -63 27.5t-21 69.5
q0 49 30 85t74 60t94 35.5t89 11.5q128 0 198.5 -56t70.5 -182v-512q0 -24 13 -36.5t30 -12.5q22 0 39.5 14.5t17.5 37.5q0 12 12 12t12 -11zM505 419h-40h-26h-12t-13 -1q-37 -3 -73.5 -15t-65 -37t-46.5 -65t-18 -99q0 -37 9 -64t25 -44.5t36.5 -26t43.5 -8.5q38 0 76 22
t65 64q24 36 31.5 72.5t7.5 56.5v145zM600 987q0 -30 -11.5 -53t-31 -38.5t-45.5 -24t-54 -8.5q-44 0 -69 13.5t-43 30t-35 30.5t-44 14q-31 0 -35 -28q-1 -9 1 -15.5t5 -11.5t6 -9.5t3 -9.5q0 -12 -11 -12q-9 0 -12.5 8.5t-3.5 16.5v10q0 30 11.5 52.5t31 38.5t45 24
t54.5 8q43 0 68.5 -13.5t43.5 -30t35 -30t44 -13.5q14 0 24.5 8.5t10.5 23.5q0 16 -7.5 24.5t-7.5 17.5q0 12 12 12q8 0 11.5 -8.5t3.5 -16.5v-10v0z" />
    <glyph glyph-name="adieresis" unicode="&#xe4;" horiz-adv-x="809" 
d="M789 64q0 -6 -3 -11t-7 -10q-25 -26 -54 -39.5t-66 -13.5q-55 0 -86 21.5t-46 54t-18.5 70.5t-3.5 72q-4 -9 -5 -17q-14 -44 -44.5 -80.5t-69.5 -63t-83 -41.5t-86 -15q-33 0 -62.5 10t-51.5 32t-35 56.5t-13 83.5q0 32 11 63.5t30 54.5q31 38 68 63.5t78.5 41t85 23
t86.5 9.5q8 0 15.5 0.5t15.5 0.5h60v215q0 34 -3.5 62.5t-15.5 49t-35.5 32t-62.5 12.5q-27 0 -57 -6q-17 -4 -34.5 -11t-31.5 -16.5t-23 -22.5t-9 -30q0 -11 7 -23.5t15.5 -26t15.5 -28.5t7 -31q0 -17 -7 -32t-19 -26.5t-27.5 -18.5t-31.5 -7q-42 0 -63 27.5t-21 69.5
q0 49 30 85t74 60t94 35.5t89 11.5q128 0 198.5 -56t70.5 -182v-512q0 -24 13 -36.5t30 -12.5q22 0 39.5 14.5t17.5 37.5q0 12 12 12t12 -11zM505 419h-40h-26h-12t-13 -1q-37 -3 -73.5 -15t-65 -37t-46.5 -65t-18 -99q0 -37 9 -64t25 -44.5t36.5 -26t43.5 -8.5q38 0 76 22
t65 64q24 36 31.5 72.5t7.5 56.5v145zM591 955q0 -30 -21 -51t-51 -21q-29 0 -50.5 21t-21.5 51t21.5 51t50.5 21q30 0 51 -21t21 -51zM360 955q0 -30 -21 -51t-51 -21q-29 0 -50.5 21t-21.5 51t21.5 51t50.5 21q30 0 51 -21t21 -51z" />
    <glyph glyph-name="aring" unicode="&#xe5;" horiz-adv-x="809" 
d="M789 64q0 -6 -3 -11t-7 -10q-25 -26 -54 -39.5t-66 -13.5q-55 0 -86 21.5t-46 54t-18.5 70.5t-3.5 72q-4 -9 -5 -17q-14 -44 -44.5 -80.5t-69.5 -63t-83 -41.5t-86 -15q-33 0 -62.5 10t-51.5 32t-35 56.5t-13 83.5q0 32 11 63.5t30 54.5q31 38 68 63.5t78.5 41t85 23
t86.5 9.5q8 0 15.5 0.5t15.5 0.5h60v215q0 34 -3.5 62.5t-15.5 49t-35.5 32t-62.5 12.5q-27 0 -57 -6q-17 -4 -34.5 -11t-31.5 -16.5t-23 -22.5t-9 -30q0 -11 7 -23.5t15.5 -26t15.5 -28.5t7 -31q0 -17 -7 -32t-19 -26.5t-27.5 -18.5t-31.5 -7q-42 0 -63 27.5t-21 69.5
q0 49 30 85t74 60t94 35.5t89 11.5q128 0 198.5 -56t70.5 -182v-512q0 -24 13 -36.5t30 -12.5q22 0 39.5 14.5t17.5 37.5q0 12 12 12t12 -11zM505 419h-40h-26h-12t-13 -1q-37 -3 -73.5 -15t-65 -37t-46.5 -65t-18 -99q0 -37 9 -64t25 -44.5t36.5 -26t43.5 -8.5q38 0 76 22
t65 64q24 36 31.5 72.5t7.5 56.5v145zM512 966q0 -20 -7.5 -37.5t-21 -30.5t-31 -20.5t-37.5 -7.5q-40 0 -68 28t-28 68q0 42 28 69.5t68 27.5q20 0 37.5 -7.5t31 -20.5t21 -31t7.5 -38zM502 966q0 36 -25.5 61.5t-61.5 25.5q-18 0 -33.5 -7t-27 -18.5t-18.5 -27.5t-7 -34
t7 -33.5t18.5 -27t27 -18.5t33.5 -7t34 7t27.5 18.5t18.5 27t7 33.5z" />
    <glyph glyph-name="ae" unicode="&#xe6;" horiz-adv-x="1261" 
d="M1206 420q0 -2 -1 -5h-523v-75q0 -57 4.5 -117t24.5 -109.5t59.5 -81.5t110.5 -32q19 0 50 4.5t60.5 14.5t50.5 27t21 42q0 24 -13.5 37.5t-29 25.5t-29 28t-13.5 45q0 21 7.5 37t19.5 27t27.5 16.5t31.5 5.5q18 0 34.5 -6.5t30 -20t21.5 -34.5t8 -50q0 -50 -24 -88.5
t-63 -65.5t-89.5 -41t-103.5 -14q-57 0 -115 17.5t-108 54.5t-87 94t-53 137q-1 -72 -28 -128t-68.5 -95t-92.5 -59.5t-99 -20.5q-35 0 -66 11t-54.5 33.5t-37.5 57t-14 81.5q0 32 11 63.5t30 54.5q35 44 79 71t92.5 42t99 20t98.5 5h40v215q0 35 -4 64t-17 49.5t-38 31.5
t-67 11q-15 0 -39.5 -4.5t-48 -15t-41 -26.5t-17.5 -40q0 -11 7 -23.5t15.5 -26t15.5 -28.5t7 -31q0 -17 -7 -32t-19 -26.5t-27.5 -18.5t-31.5 -7q-42 0 -63 27.5t-21 69.5q0 49 30 85t74 60t94 35.5t89 11.5q85 0 145 -23.5t92 -77.5q48 48 107.5 74.5t125.5 26.5
q85 0 148.5 -27t106 -77.5t64 -123t21.5 -162.5zM1040 425q0 38 -2 77t-5 74q-4 49 -10.5 90t-23 71t-48 46.5t-85.5 16.5q-55 0 -88 -16.5t-52 -46.5t-26.5 -71t-11.5 -90q-3 -35 -4 -74t-2 -77h358zM505 419h-60q-40 0 -81.5 -9.5t-75.5 -34t-55.5 -66.5t-21.5 -107
q0 -37 9 -64t25 -44.5t36.5 -26t43.5 -8.5q46 0 80 22.5t56 57.5t33 77t11 81v122z" />
    <glyph glyph-name="ccedilla" unicode="&#xe7;" horiz-adv-x="743" 
d="M688 199q0 -48 -21 -85.5t-56 -64.5t-82 -42t-98 -17h-13q-66 0 -132.5 23.5t-120 73t-87 127.5t-33.5 186q0 69 22 136t62 121.5t95.5 93.5t122.5 53q31 6 62 6q35 0 61 -5.5t45 -12.5t33 -12.5t25 -5.5q17 0 30.5 6t17.5 20h8v-244h-11q0 51 -16.5 95.5t-45 77.5
t-66 52t-80.5 19q-32 0 -62 -6q-37 -8 -59 -27.5t-34.5 -48t-18 -64.5t-8.5 -78q-4 -45 -5 -88t-1 -88v-84q0 -54 6.5 -110.5t27.5 -102t60 -74.5t104 -29h10q21 1 49 6t53.5 15.5t43 26.5t17.5 40t-13.5 37.5t-29 25.5t-29 28t-13.5 45q0 21 7.5 37t19.5 27t27.5 16.5
t31.5 5.5q18 0 34.5 -6.5t30 -20t21.5 -34.5t8 -50zM471 -126q0 -29 -11.5 -51.5t-30 -37.5t-41.5 -23t-45 -8q-18 0 -35 6t-30.5 16.5t-21.5 26t-8 35.5q0 14 11 14q5 0 10 -4t5 -10q0 -7 -2 -13t-2 -13q0 -16 9.5 -23.5t23.5 -7.5q18 0 34.5 13.5t16.5 40.5q0 17 -9 32
t-27 23l-9 7l104 102l9 -7l-14 -13q29 -17 46 -44.5t17 -60.5z" />
    <glyph glyph-name="egrave" unicode="&#xe8;" horiz-adv-x="801" 
d="M746 420q0 -2 -1 -5h-523v-75q0 -57 4.5 -117t24 -109.5t59 -81.5t110.5 -32h10q21 1 51 6t57 15.5t46 26.5t19 40t-13.5 37.5t-29 25.5t-29 28t-13.5 45q0 21 7.5 37t19.5 27t27.5 16.5t31.5 5.5q18 0 34.5 -6.5t30 -20t21.5 -34.5t8 -50q0 -48 -22.5 -85.5t-59.5 -64.5
t-85 -42t-99 -17h-14q-66 0 -133 23.5t-120 73t-86.5 127.5t-33.5 186q0 77 25 146t67.5 123t99 90t119.5 47q20 4 47 4h4q90 0 154.5 -30t105.5 -82.5t60 -123.5t19 -154zM580 425q0 38 -2 77t-5 74q-4 49 -10 90t-22.5 71t-47.5 46.5t-85 16.5h-2q-12 0 -24.5 -1t-24.5 -3
q-38 -7 -61.5 -26t-37.5 -48t-20.5 -66t-9.5 -80q-3 -35 -4 -74t-2 -77h358zM545 922q0 -10 -11 -19q-26 -23 -63 -36t-71 -13q-23 0 -45 7t-39.5 20.5t-28 33t-10.5 45.5q0 35 23 56t57 21q21 0 34.5 -8t21.5 -20.5t13 -28t10 -30.5q7 -25 17 -42t34 -17q30 0 35 30
q2 11 12 11q4 0 7.5 -2.5t3.5 -7.5z" />
    <glyph glyph-name="eacute" unicode="&#xe9;" horiz-adv-x="801" 
d="M746 420q0 -2 -1 -5h-523v-75q0 -57 4.5 -117t24 -109.5t59 -81.5t110.5 -32h10q21 1 51 6t57 15.5t46 26.5t19 40t-13.5 37.5t-29 25.5t-29 28t-13.5 45q0 21 7.5 37t19.5 27t27.5 16.5t31.5 5.5q18 0 34.5 -6.5t30 -20t21.5 -34.5t8 -50q0 -48 -22.5 -85.5t-59.5 -64.5
t-85 -42t-99 -17h-14q-66 0 -133 23.5t-120 73t-86.5 127.5t-33.5 186q0 77 25 146t67.5 123t99 90t119.5 47q20 4 47 4h4q90 0 154.5 -30t105.5 -82.5t60 -123.5t19 -154zM580 425q0 38 -2 77t-5 74q-4 49 -10 90t-22.5 71t-47.5 46.5t-85 16.5h-2q-12 0 -24.5 -1t-24.5 -3
q-38 -7 -61.5 -26t-37.5 -48t-20.5 -66t-9.5 -80q-3 -35 -4 -74t-2 -77h358zM535 960q0 -26 -10.5 -45.5t-28 -33t-39.5 -20.5t-45 -7q-34 0 -71 13t-63 36q-11 9 -11 19q0 5 3.5 7.5t7.5 2.5q10 0 12 -11q4 -30 35 -30q24 0 34 17t17 42q4 15 9 30.5t14 28t22 20.5t34 8
q34 0 57 -21t23 -56z" />
    <glyph glyph-name="ecircumflex" unicode="&#xea;" horiz-adv-x="801" 
d="M746 420q0 -2 -1 -5h-523v-75q0 -57 4.5 -117t24 -109.5t59 -81.5t110.5 -32h10q21 1 51 6t57 15.5t46 26.5t19 40t-13.5 37.5t-29 25.5t-29 28t-13.5 45q0 21 7.5 37t19.5 27t27.5 16.5t31.5 5.5q18 0 34.5 -6.5t30 -20t21.5 -34.5t8 -50q0 -48 -22.5 -85.5t-59.5 -64.5
t-85 -42t-99 -17h-14q-66 0 -133 23.5t-120 73t-86.5 127.5t-33.5 186q0 77 25 146t67.5 123t99 90t119.5 47q20 4 47 4h4q90 0 154.5 -30t105.5 -82.5t60 -123.5t19 -154zM580 425q0 38 -2 77t-5 74q-4 49 -10 90t-22.5 71t-47.5 46.5t-85 16.5h-2q-12 0 -24.5 -1t-24.5 -3
q-38 -7 -61.5 -26t-37.5 -48t-20.5 -66t-9.5 -80q-3 -35 -4 -74t-2 -77h358zM584 889l-186 184l-186 -184l-9 7l195 193l195 -193z" />
    <glyph glyph-name="edieresis" unicode="&#xeb;" horiz-adv-x="801" 
d="M746 420q0 -2 -1 -5h-523v-75q0 -57 4.5 -117t24 -109.5t59 -81.5t110.5 -32h10q21 1 51 6t57 15.5t46 26.5t19 40t-13.5 37.5t-29 25.5t-29 28t-13.5 45q0 21 7.5 37t19.5 27t27.5 16.5t31.5 5.5q18 0 34.5 -6.5t30 -20t21.5 -34.5t8 -50q0 -48 -22.5 -85.5t-59.5 -64.5
t-85 -42t-99 -17h-14q-66 0 -133 23.5t-120 73t-86.5 127.5t-33.5 186q0 77 25 146t67.5 123t99 90t119.5 47q20 4 47 4h4q90 0 154.5 -30t105.5 -82.5t60 -123.5t19 -154zM580 425q0 38 -2 77t-5 74q-4 49 -10 90t-22.5 71t-47.5 46.5t-85 16.5h-2q-12 0 -24.5 -1t-24.5 -3
q-38 -7 -61.5 -26t-37.5 -48t-20.5 -66t-9.5 -80q-3 -35 -4 -74t-2 -77h358zM591 955q0 -30 -21 -51t-51 -21q-29 0 -50.5 21t-21.5 51t21.5 51t50.5 21q30 0 51 -21t21 -51zM360 955q0 -30 -21 -51t-51 -21q-29 0 -50.5 21t-21.5 51t21.5 51t50.5 21q30 0 51 -21t21 -51z
" />
    <glyph glyph-name="igrave" unicode="&#xec;" horiz-adv-x="450" 
d="M0 0v10h145v510h-145v10h305v-520h145v-10h-450zM385 922q0 -10 -11 -19q-26 -23 -63 -36t-71 -13q-23 0 -45 7t-39.5 20.5t-28 33t-10.5 45.5q0 35 23 56t57 21q21 0 34.5 -8t21.5 -20.5t13 -28t10 -30.5q7 -25 17 -42t34 -17q30 0 35 30q2 11 12 11q4 0 7.5 -2.5
t3.5 -7.5z" />
    <glyph glyph-name="iacute" unicode="&#xed;" horiz-adv-x="450" 
d="M0 0v10h145v510h-145v10h305v-520h145v-10h-450zM355 960q0 -26 -10.5 -45.5t-28 -33t-39.5 -20.5t-45 -7q-34 0 -71 13t-63 36q-11 9 -11 19q0 5 3.5 7.5t7.5 2.5q10 0 12 -11q4 -30 35 -30q24 0 34 17t17 42q4 15 9 30.5t14 28t22 20.5t34 8q34 0 57 -21t23 -56z" />
    <glyph glyph-name="icircumflex" unicode="&#xee;" horiz-adv-x="450" 
d="M0 0v10h145v510h-145v10h305v-520h145v-10h-450zM414 889l-186 184l-186 -184l-9 7l195 193l195 -193z" />
    <glyph glyph-name="idieresis" unicode="&#xef;" horiz-adv-x="450" 
d="M0 0v10h145v510h-145v10h305v-520h145v-10h-450zM411 955q0 -30 -21 -51t-51 -21q-29 0 -50.5 21t-21.5 51t21.5 51t50.5 21q30 0 51 -21t21 -51zM180 955q0 -30 -21 -51t-51 -21q-29 0 -50.5 21t-21.5 51t21.5 51t50.5 21q30 0 51 -21t21 -51z" />
    <glyph glyph-name="eth" unicode="&#xf0;" horiz-adv-x="821" 
d="M776 400q0 -85 -30 -158t-81 -127t-119.5 -84.5t-144.5 -30.5h-401v10h145v361l-139 -69l-6 11l145 72v405h-145v10h401q76 0 144.5 -30.5t119.5 -84.5t81 -127t30 -158zM599 483q0 55 -6.5 109.5t-27.5 98.5t-60 71.5t-104 27.5h-96v-325l139 70l6 -11l-145 -73v-441h96
q65 0 104 27.5t60 71.5t27.5 98.5t6.5 108.5v84v83z" />
    <glyph glyph-name="ntilde" unicode="&#xf1;" horiz-adv-x="910" 
d="M605 0v598q0 36 -10 62.5t-27 43.5t-39.5 25.5t-46.5 8.5q-55 0 -89.5 -25.5t-54 -59.5t-26.5 -69t-7 -53v-521h125v-10h-430v10h145v780h-145v10h305v-203l6 18q14 47 43 83.5t65.5 61t77 37.5t77.5 13q38 0 72.5 -11.5t61 -35.5t42 -60.5t15.5 -85.5v-607h145v-10h-305
zM650 987q0 -30 -11.5 -53t-31 -38.5t-45.5 -24t-54 -8.5q-44 0 -69 13.5t-43 30t-35 30.5t-44 14q-31 0 -35 -28q-1 -9 1 -15.5t5 -11.5t6 -9.5t3 -9.5q0 -12 -11 -12q-9 0 -12.5 8.5t-3.5 16.5v10q0 30 11.5 52.5t31 38.5t45 24t54.5 8q43 0 68.5 -13.5t43.5 -30t35 -30
t44 -13.5q14 0 24.5 8.5t10.5 23.5q0 16 -7.5 24.5t-7.5 17.5q0 12 12 12q8 0 11.5 -8.5t3.5 -16.5v-10z" />
    <glyph glyph-name="ograve" unicode="&#xf2;" 
d="M786 400q0 -74 -22 -140t-61 -119t-92.5 -90t-116.5 -52q-38 -9 -78 -9q-42 0 -79 9q-63 15 -116.5 52t-92.5 90t-61 119t-22 140q0 73 22 139.5t61 119.5t92.5 90t115.5 52q40 9 80 9t78 -9q63 -15 116.5 -52t92.5 -90t61 -119.5t22 -139.5zM609 400q0 19 -0.5 42
t-1.5 47t-2 46.5t-2 40.5q-3 40 -8 75t-16 63t-31.5 47.5t-54.5 29.5q-19 5 -38 7t-38 2q-20 0 -39.5 -2t-39.5 -7q-35 -10 -55.5 -29.5t-31.5 -47.5t-15.5 -63t-7.5 -75q-2 -18 -3 -40.5t-2 -46.5t-1 -47v-42v-42t1 -47t2 -46.5t3 -40.5q3 -41 7.5 -75.5t15.5 -62.5
t31.5 -47.5t55.5 -29.5q20 -5 39 -7t39 -2t39 2t38 7q34 10 54.5 29.5t31.5 47.5t16 62.5t8 75.5q1 18 2 40.5t2 46.5t1.5 47t0.5 42zM555 922q0 -10 -11 -19q-26 -23 -63 -36t-71 -13q-23 0 -45 7t-39.5 20.5t-28 33t-10.5 45.5q0 35 23 56t57 21q21 0 34.5 -8t21.5 -20.5
t13 -28t10 -30.5q7 -25 17 -42t34 -17q30 0 35 30q2 11 12 11q4 0 7.5 -2.5t3.5 -7.5z" />
    <glyph glyph-name="oacute" unicode="&#xf3;" 
d="M786 400q0 -74 -22 -140t-61 -119t-92.5 -90t-116.5 -52q-38 -9 -78 -9q-42 0 -79 9q-63 15 -116.5 52t-92.5 90t-61 119t-22 140q0 73 22 139.5t61 119.5t92.5 90t115.5 52q40 9 80 9t78 -9q63 -15 116.5 -52t92.5 -90t61 -119.5t22 -139.5zM609 400q0 19 -0.5 42
t-1.5 47t-2 46.5t-2 40.5q-3 40 -8 75t-16 63t-31.5 47.5t-54.5 29.5q-19 5 -38 7t-38 2q-20 0 -39.5 -2t-39.5 -7q-35 -10 -55.5 -29.5t-31.5 -47.5t-15.5 -63t-7.5 -75q-2 -18 -3 -40.5t-2 -46.5t-1 -47v-42v-42t1 -47t2 -46.5t3 -40.5q3 -41 7.5 -75.5t15.5 -62.5
t31.5 -47.5t55.5 -29.5q20 -5 39 -7t39 -2t39 2t38 7q34 10 54.5 29.5t31.5 47.5t16 62.5t8 75.5q1 18 2 40.5t2 46.5t1.5 47t0.5 42zM545 960q0 -26 -10.5 -45.5t-28 -33t-39.5 -20.5t-45 -7q-34 0 -71 13t-63 36q-11 9 -11 19q0 5 3.5 7.5t7.5 2.5q10 0 12 -11
q4 -30 35 -30q24 0 34 17t17 42q4 15 9 30.5t14 28t22 20.5t34 8q34 0 57 -21t23 -56z" />
    <glyph glyph-name="ocircumflex" unicode="&#xf4;" 
d="M786 400q0 -74 -22 -140t-61 -119t-92.5 -90t-116.5 -52q-38 -9 -78 -9q-42 0 -79 9q-63 15 -116.5 52t-92.5 90t-61 119t-22 140q0 73 22 139.5t61 119.5t92.5 90t115.5 52q40 9 80 9t78 -9q63 -15 116.5 -52t92.5 -90t61 -119.5t22 -139.5zM609 400q0 19 -0.5 42
t-1.5 47t-2 46.5t-2 40.5q-3 40 -8 75t-16 63t-31.5 47.5t-54.5 29.5q-19 5 -38 7t-38 2q-20 0 -39.5 -2t-39.5 -7q-35 -10 -55.5 -29.5t-31.5 -47.5t-15.5 -63t-7.5 -75q-2 -18 -3 -40.5t-2 -46.5t-1 -47v-42v-42t1 -47t2 -46.5t3 -40.5q3 -41 7.5 -75.5t15.5 -62.5
t31.5 -47.5t55.5 -29.5q20 -5 39 -7t39 -2t39 2t38 7q34 10 54.5 29.5t31.5 47.5t16 62.5t8 75.5q1 18 2 40.5t2 46.5t1.5 47t0.5 42zM603 889l-186 184l-186 -184l-9 7l195 193l195 -193z" />
    <glyph glyph-name="otilde" unicode="&#xf5;" 
d="M786 400q0 -74 -22 -140t-61 -119t-92.5 -90t-116.5 -52q-38 -9 -78 -9q-42 0 -79 9q-63 15 -116.5 52t-92.5 90t-61 119t-22 140q0 73 22 139.5t61 119.5t92.5 90t115.5 52q40 9 80 9t78 -9q63 -15 116.5 -52t92.5 -90t61 -119.5t22 -139.5zM609 400q0 19 -0.5 42
t-1.5 47t-2 46.5t-2 40.5q-3 40 -8 75t-16 63t-31.5 47.5t-54.5 29.5q-19 5 -38 7t-38 2q-20 0 -39.5 -2t-39.5 -7q-35 -10 -55.5 -29.5t-31.5 -47.5t-15.5 -63t-7.5 -75q-2 -18 -3 -40.5t-2 -46.5t-1 -47v-42v-42t1 -47t2 -46.5t3 -40.5q3 -41 7.5 -75.5t15.5 -62.5
t31.5 -47.5t55.5 -29.5q20 -5 39 -7t39 -2t39 2t38 7q34 10 54.5 29.5t31.5 47.5t16 62.5t8 75.5q1 18 2 40.5t2 46.5t1.5 47t0.5 42zM600 987q0 -30 -11.5 -53t-31 -38.5t-45.5 -24t-54 -8.5q-44 0 -69 13.5t-43 30t-35 30.5t-44 14q-31 0 -35 -28q-1 -9 1 -15.5t5 -11.5
t6 -9.5t3 -9.5q0 -12 -11 -12q-9 0 -12.5 8.5t-3.5 16.5v10q0 30 11.5 52.5t31 38.5t45 24t54.5 8q43 0 68.5 -13.5t43.5 -30t35 -30t44 -13.5q14 0 24.5 8.5t10.5 23.5q0 16 -7.5 24.5t-7.5 17.5q0 12 12 12q8 0 11.5 -8.5t3.5 -16.5v-10v0z" />
    <glyph glyph-name="odieresis" unicode="&#xf6;" 
d="M786 400q0 -74 -22 -140t-61 -119t-92.5 -90t-116.5 -52q-38 -9 -78 -9q-42 0 -79 9q-63 15 -116.5 52t-92.5 90t-61 119t-22 140q0 73 22 139.5t61 119.5t92.5 90t115.5 52q40 9 80 9t78 -9q63 -15 116.5 -52t92.5 -90t61 -119.5t22 -139.5zM609 400q0 19 -0.5 42
t-1.5 47t-2 46.5t-2 40.5q-3 40 -8 75t-16 63t-31.5 47.5t-54.5 29.5q-19 5 -38 7t-38 2q-20 0 -39.5 -2t-39.5 -7q-35 -10 -55.5 -29.5t-31.5 -47.5t-15.5 -63t-7.5 -75q-2 -18 -3 -40.5t-2 -46.5t-1 -47v-42v-42t1 -47t2 -46.5t3 -40.5q3 -41 7.5 -75.5t15.5 -62.5
t31.5 -47.5t55.5 -29.5q20 -5 39 -7t39 -2t39 2t38 7q34 10 54.5 29.5t31.5 47.5t16 62.5t8 75.5q1 18 2 40.5t2 46.5t1.5 47t0.5 42zM601 955q0 -30 -21 -51t-51 -21q-29 0 -50.5 21t-21.5 51t21.5 51t50.5 21q30 0 51 -21t21 -51zM370 955q0 -30 -21 -51t-51 -21
q-29 0 -50.5 21t-21.5 51t21.5 51t50.5 21q30 0 51 -21t21 -51z" />
    <glyph glyph-name="divide" unicode="&#xf7;" horiz-adv-x="680" 
d="M399 622q0 -24 -17 -41t-41 -17q-23 0 -40.5 17t-17.5 41t17.5 41t40.5 17q24 0 41 -17t17 -41zM70 394v12h540v-12h-540zM399 179q0 -24 -17 -41t-41 -17q-23 0 -40.5 17t-17.5 41t17.5 41t40.5 17q24 0 41 -17t17 -41z" />
    <glyph glyph-name="oslash" unicode="&#xf8;" 
d="M786 400q0 -74 -22 -140t-61 -119t-92.5 -90t-116.5 -52q-38 -9 -78 -9q-42 0 -79 9q-90 22 -159 87l-74 -96l-10 7l75 97q-57 57 -90.5 135t-33.5 171q0 73 22 139.5t61 119.5t92.5 90t115.5 52q40 9 80 9t78 -9q91 -22 160 -87l75 96l9 -7l-75 -99q57 -57 90 -135
t33 -169zM597 640q-4 29 -10.5 53t-18 43t-30 33t-45.5 22q-19 5 -38 7t-38 2q-20 0 -39.5 -2t-39.5 -7q-35 -10 -55.5 -29.5t-31.5 -47.5t-15.5 -63t-7.5 -75q-2 -18 -3 -40.5t-2 -46.5t-1 -47v-42v-42t1 -47t2 -46.5t3 -40.5q1 -13 2 -25t2 -23zM609 400q0 19 -0.5 42
t-1.5 47t-2 46.5t-2 40.5l-2 24t-3 23l-363 -466q7 -55 28 -94t75 -54q20 -5 39 -7t39 -2t39 2t38 7q35 10 55.5 29.5t31.5 47.5t15.5 62.5t7.5 75.5q1 18 2 40.5t2 46.5t1.5 47t0.5 42z" />
    <glyph glyph-name="ugrave" unicode="&#xf9;" horiz-adv-x="910" 
d="M605 0v203q-4 -9 -5 -18q-14 -47 -43 -83.5t-66 -61t-77.5 -37.5t-77.5 -13q-38 0 -72.5 11.5t-61 35.5t-42 60t-15.5 86v607h-145v10h305v-598q0 -36 10 -62.5t27 -43.5t39.5 -25.5t46.5 -8.5q55 0 89.5 25.5t54 59.5t26.5 69t7 53v521h-125v10h285v-790h145v-10h-305z
M585 922q0 -10 -11 -19q-26 -23 -63 -36t-71 -13q-23 0 -45 7t-39.5 20.5t-28 33t-10.5 45.5q0 35 23 56t57 21q21 0 34.5 -8t21.5 -20.5t13 -28t10 -30.5q7 -25 17 -42t34 -17q30 0 35 30q2 11 12 11q4 0 7.5 -2.5t3.5 -7.5z" />
    <glyph glyph-name="uacute" unicode="&#xfa;" horiz-adv-x="910" 
d="M605 0v203q-4 -9 -5 -18q-14 -47 -43 -83.5t-66 -61t-77.5 -37.5t-77.5 -13q-38 0 -72.5 11.5t-61 35.5t-42 60t-15.5 86v607h-145v10h305v-598q0 -36 10 -62.5t27 -43.5t39.5 -25.5t46.5 -8.5q55 0 89.5 25.5t54 59.5t26.5 69t7 53v521h-125v10h285v-790h145v-10h-305z
M575 960q0 -26 -10.5 -45.5t-28 -33t-39.5 -20.5t-45 -7q-34 0 -71 13t-63 36q-11 9 -11 19q0 5 3.5 7.5t7.5 2.5q10 0 12 -11q4 -30 35 -30q24 0 34 17t17 42q4 15 9 30.5t14 28t22 20.5t34 8q34 0 57 -21t23 -56z" />
    <glyph glyph-name="ucircumflex" unicode="&#xfb;" horiz-adv-x="910" 
d="M605 0v203q-4 -9 -5 -18q-14 -47 -43 -83.5t-66 -61t-77.5 -37.5t-77.5 -13q-38 0 -72.5 11.5t-61 35.5t-42 60t-15.5 86v607h-145v10h305v-598q0 -36 10 -62.5t27 -43.5t39.5 -25.5t46.5 -8.5q55 0 89.5 25.5t54 59.5t26.5 69t7 53v521h-125v10h285v-790h145v-10h-305z
M634 889l-186 184l-186 -184l-9 7l195 193l195 -193z" />
    <glyph glyph-name="udieresis" unicode="&#xfc;" horiz-adv-x="910" 
d="M605 0v203q-4 -9 -5 -18q-14 -47 -43 -83.5t-66 -61t-77.5 -37.5t-77.5 -13q-38 0 -72.5 11.5t-61 35.5t-42 60t-15.5 86v607h-145v10h305v-598q0 -36 10 -62.5t27 -43.5t39.5 -25.5t46.5 -8.5q55 0 89.5 25.5t54 59.5t26.5 69t7 53v521h-125v10h285v-790h145v-10h-305z
M649 955q0 -30 -21 -51t-51 -21q-29 0 -50.5 21t-21.5 51t21.5 51t50.5 21q30 0 51 -21t21 -51zM418 955q0 -30 -21 -51t-51 -21q-29 0 -50.5 21t-21.5 51t21.5 51t50.5 21q30 0 51 -21t21 -51z" />
    <glyph glyph-name="yacute" unicode="&#xfd;" horiz-adv-x="783" 
d="M698 790l-301 -683q-12 -28 -32 -49.5t-43.5 -36.5t-48.5 -23t-46 -8q-35 0 -65.5 11t-53 31t-35.5 49.5t-13 65.5q0 23 6 44t18 37t29 25.5t40 9.5q16 0 31.5 -5.5t27.5 -16.5t19.5 -27t7.5 -38q0 -18 -4 -30t-11.5 -20.5t-17.5 -16l-22 -16.5q-11 -8 -17 -16.5
t-6 -22.5q0 -29 19.5 -41.5t45.5 -12.5q21 0 44.5 7.5t45.5 21.5t41 34.5t30 47.5l15 32l-287 647h-145v10h434v-10h-126l205 -463l204 463h-127v10h283v-10h-145zM535 960q0 -26 -10.5 -45.5t-28 -33t-39.5 -20.5t-45 -7q-34 0 -71 13t-63 36q-11 9 -11 19q0 5 3.5 7.5
t7.5 2.5q10 0 12 -11q4 -30 35 -30q24 0 34 17t17 42q4 15 9 30.5t14 28t22 20.5t34 8q34 0 57 -21t23 -56z" />
    <glyph glyph-name="thorn" unicode="&#xfe;" horiz-adv-x="705" 
d="M705 400q0 -45 -18 -87t-52.5 -74.5t-86.5 -52t-119 -19.5h-124v-157h145v-10h-450v10h145v780h-145v10h450v-10h-145v-157h124q67 0 119 -19.5t86.5 -52t52.5 -74.5t18 -87zM533 400q0 63 -8 105.5t-27 68.5t-50.5 37.5t-77.5 11.5h-65v-446h65q46 0 77.5 11.5
t50.5 37.5t27 68.5t8 105.5z" />
    <glyph glyph-name="ydieresis" unicode="&#xff;" horiz-adv-x="783" 
d="M698 790l-301 -683q-12 -28 -32 -49.5t-43.5 -36.5t-48.5 -23t-46 -8q-35 0 -65.5 11t-53 31t-35.5 49.5t-13 65.5q0 23 6 44t18 37t29 25.5t40 9.5q16 0 31.5 -5.5t27.5 -16.5t19.5 -27t7.5 -38q0 -18 -4 -30t-11.5 -20.5t-17.5 -16l-22 -16.5q-11 -8 -17 -16.5
t-6 -22.5q0 -29 19.5 -41.5t45.5 -12.5q21 0 44.5 7.5t45.5 21.5t41 34.5t30 47.5l15 32l-287 647h-145v10h434v-10h-126l205 -463l204 463h-127v10h283v-10h-145zM611 955q0 -30 -21 -51t-51 -21q-29 0 -50.5 21t-21.5 51t21.5 51t50.5 21q30 0 51 -21t21 -51zM380 955
q0 -30 -21 -51t-51 -21q-29 0 -50.5 21t-21.5 51t21.5 51t50.5 21q30 0 51 -21t21 -51z" />
    <glyph glyph-name="Abreve" unicode="&#x102;" horiz-adv-x="825" 
d="M409 0v10h155l-110 285h-249l-109 -285h145v-10h-301v10h145l318 828h10l317 -828h155v-10h-476zM330 619l-121 -314h241zM596 1072q-12 -29 -29.5 -58.5t-41 -53t-53.5 -38t-66 -14.5t-66 14.5t-54 38t-41.5 53t-29.5 58.5l10 4q12 -29 29 -57t39 -50.5t50 -36.5t63 -14
q34 0 62.5 14.5t51 37t39.5 50.5t28 56z" />
    <glyph glyph-name="abreve" unicode="&#x103;" horiz-adv-x="809" 
d="M789 64q0 -6 -3 -11t-7 -10q-25 -26 -54 -39.5t-66 -13.5q-55 0 -86 21.5t-46 54t-18.5 70.5t-3.5 72q-4 -9 -5 -17q-14 -44 -44.5 -80.5t-69.5 -63t-83 -41.5t-86 -15q-33 0 -62.5 10t-51.5 32t-35 56.5t-13 83.5q0 32 11 63.5t30 54.5q31 38 68 63.5t78.5 41t85 23
t86.5 9.5q8 0 15.5 0.5t15.5 0.5h60v215q0 34 -3.5 62.5t-15.5 49t-35.5 32t-62.5 12.5q-27 0 -57 -6q-17 -4 -34.5 -11t-31.5 -16.5t-23 -22.5t-9 -30q0 -11 7 -23.5t15.5 -26t15.5 -28.5t7 -31q0 -17 -7 -32t-19 -26.5t-27.5 -18.5t-31.5 -7q-42 0 -63 27.5t-21 69.5
q0 49 30 85t74 60t94 35.5t89 11.5q128 0 198.5 -56t70.5 -182v-512q0 -24 13 -36.5t30 -12.5q22 0 39.5 14.5t17.5 37.5q0 12 12 12t12 -11zM505 419h-40h-26h-12t-13 -1q-37 -3 -73.5 -15t-65 -37t-46.5 -65t-18 -99q0 -37 9 -64t25 -44.5t36.5 -26t43.5 -8.5q38 0 76 22
t65 64q24 36 31.5 72.5t7.5 56.5v145zM567 1082q-12 -29 -29.5 -58.5t-41 -53t-53.5 -38t-66 -14.5t-66 14.5t-54 38t-41.5 53t-29.5 58.5l10 4q12 -29 29 -57t39 -50.5t50 -36.5t63 -14q34 0 62.5 14.5t51 37t39.5 50.5t28 56z" />
    <glyph glyph-name="Dcroat" unicode="&#x110;" horiz-adv-x="821" 
d="M776 400q0 -85 -30 -158t-81 -127t-119.5 -84.5t-144.5 -30.5h-401v10h145v382h-108v12h108v386h-145v10h401q76 0 144.5 -30.5t119.5 -84.5t81 -127t30 -158zM305 392v-382h96q65 0 104 27.5t60 71.5t27.5 98.5t6.5 108.5v167q0 55 -6.5 109.5t-27.5 98.5t-60 71.5
t-104 27.5h-96v-386h92v-12h-92z" />
    <glyph glyph-name="dcroat" unicode="&#x111;" horiz-adv-x="821" 
d="M776 400q0 -85 -30 -158t-81 -127t-119.5 -84.5t-144.5 -30.5h-401v10h145v382h-108v12h108v386h-145v10h401q76 0 144.5 -30.5t119.5 -84.5t81 -127t30 -158zM305 392v-382h96q65 0 104 27.5t60 71.5t27.5 98.5t6.5 108.5v167q0 55 -6.5 109.5t-27.5 98.5t-60 71.5
t-104 27.5h-96v-386h92v-12h-92z" />
    <glyph glyph-name="Itilde" unicode="&#x128;" horiz-adv-x="450" 
d="M0 0v10h145v780h-145v10h450v-10h-145v-780h145v-10h-450zM415 977q0 -30 -11.5 -53t-31 -38.5t-45.5 -24t-54 -8.5q-44 0 -69 13.5t-43 30t-35 30.5t-44 14q-31 0 -35 -28q-1 -9 1 -15.5t5 -11.5t6 -9.5t3 -9.5q0 -12 -11 -12q-9 0 -12.5 8.5t-3.5 16.5v10
q0 30 11.5 52.5t31 38.5t45 24t54.5 8q43 0 68.5 -13.5t43.5 -30t35 -30t44 -13.5q14 0 24.5 8.5t10.5 23.5q0 16 -7.5 24.5t-7.5 17.5q0 12 12 12q8 0 11.5 -8.5t3.5 -16.5v-10z" />
    <glyph glyph-name="itilde" unicode="&#x129;" horiz-adv-x="450" 
d="M314 721q0 -37 -26 -63t-63 -26t-63 26t-26 63t26 63t63 26t63 -26t26 -63zM0 0v10h145v510h-145v10h305v-520h145v-10h-450zM295 10h-140h140zM416 987q0 -30 -11.5 -53t-31 -38.5t-45.5 -24t-54 -8.5q-44 0 -69 13.5t-43 30t-35 30.5t-44 14q-31 0 -35 -28
q-1 -9 1 -15.5t5 -11.5t6 -9.5t3 -9.5q0 -12 -11 -12q-9 0 -12.5 8.5t-3.5 16.5v10q0 30 11.5 52.5t31 38.5t45 24t54.5 8q43 0 68.5 -13.5t43.5 -30t35 -30t44 -13.5q14 0 24.5 8.5t10.5 23.5q0 16 -7.5 24.5t-7.5 17.5q0 12 12 12q8 0 11.5 -8.5t3.5 -16.5v-10v0z" />
    <glyph glyph-name="OE" unicode="&#x152;" horiz-adv-x="1099" 
d="M415 0q-27 0 -48.5 3t-39.5 8q-61 16 -112.5 52t-89 87t-59 114.5t-21.5 135.5t21.5 135.5t59 114.5t89 87t112.5 52q36 11 88 11h619v-251h-9q0 50 -19 94t-52 76.5t-77 51.5t-94 19h-94v-385h23q32 0 58.5 11.5t45.5 31t29.5 45t10.5 52.5h8v-287h-8q0 26 -10.5 50.5
t-29.5 44t-45.5 31t-58.5 11.5h-23v-385h88q58 0 109.5 22t90 60.5t60.5 90t22 110.5h10v-293h-654zM529 790h-114q-22 0 -44 -2.5t-42 -8.5q-32 -10 -50.5 -28.5t-28.5 -44.5t-14.5 -58.5t-7.5 -71.5q-2 -18 -3 -40.5t-2 -46.5t-1 -47v-42v-42t1 -47t2 -46.5t3 -40.5
q3 -39 7.5 -71.5t14.5 -58.5t28.5 -44.5t50.5 -28.5q20 -6 41.5 -8.5t44.5 -2.5h114v780z" />
    <glyph glyph-name="oe" unicode="&#x153;" horiz-adv-x="1365" 
d="M1310 420q0 -2 -1 -5h-523v-75q0 -57 4.5 -117t24.5 -109.5t59.5 -81.5t110.5 -32q19 0 50 4.5t60.5 14.5t50.5 27t21 42q0 24 -13.5 37.5t-29 25.5t-29 28t-13.5 45q0 21 7.5 37t19.5 27t27.5 16.5t31.5 5.5q18 0 34.5 -6.5t30 -20t21.5 -34.5t8 -50q0 -50 -24 -88.5
t-63 -65.5t-89.5 -41t-103.5 -14q-79 0 -156 33t-134 104q-51 -63 -121.5 -100t-154.5 -37q-77 0 -144.5 32.5t-118 88t-79.5 130t-29 159.5t29 159.5t79.5 130t118 88t144.5 32.5q85 0 158 -39t124 -106q51 67 122 106t150 39q85 0 148.5 -27t106 -77.5t64 -123
t21.5 -162.5zM1144 425q0 38 -2 77t-5 74q-4 49 -10.5 90t-23 71t-48 46.5t-85.5 16.5q-55 0 -88 -16.5t-52 -46.5t-26.5 -71t-11.5 -90q-3 -35 -4 -74t-2 -77h358zM609 400q0 19 -0.5 42t-1.5 47t-2 46.5t-2 40.5q-4 49 -10.5 90t-25 71t-54 46.5t-97.5 16.5t-97.5 -16.5
t-54.5 -46.5t-25.5 -71t-10.5 -90q-2 -18 -3 -40.5t-2 -46.5t-1 -47v-42v-42t1 -47t2 -46.5t3 -40.5q4 -49 10.5 -90t25.5 -71t54.5 -46.5t97.5 -16.5t97.5 16.5t54 46.5t25 71t10.5 90q1 18 2 40.5t2 46.5t1.5 47t0.5 42z" />
    <glyph glyph-name="Scaron" unicode="&#x160;" horiz-adv-x="682" 
d="M632 250q0 -53 -21 -97t-56 -77t-81 -54t-96 -28q-11 -2 -23.5 -3t-26.5 -1t-26.5 1t-24.5 3q-17 3 -33.5 7.5t-32.5 9.5q-18 6 -39 14.5t-41 8.5q-16 0 -30 -8.5t-17 -25.5h-9v254h9q20 -115 66.5 -175t122.5 -74q14 -2 27.5 -3.5t27.5 -1.5q24 0 47 3q37 6 63.5 21
t43.5 35.5t25 45.5t8 52q0 43 -22.5 82t-65.5 59l-189 85q-63 28 -97.5 82t-34.5 124q0 45 14 82t39.5 65t60 46t75.5 25q18 3 36 3h8q24 0 54 -5t56 -16q7 -3 18 -5.5t22 -2.5t21 4t15 15h8v-189h-11q-5 45 -17.5 80t-35 59t-55.5 37t-79 13q-25 0 -40 -4
q-22 -4 -42.5 -13.5t-36 -24t-25 -33.5t-9.5 -43q0 -29 12 -53t31 -43.5t43 -34.5t47 -25l188 -85q28 -13 51.5 -32.5t41 -44.5t27 -54t9.5 -60zM362 889l-195 193l9 7l186 -184l186 184l9 -7z" />
    <glyph glyph-name="scaron" unicode="&#x161;" horiz-adv-x="681" 
d="M631 250q0 -66 -26 -114t-69 -79.5t-98.5 -47t-113.5 -15.5q-22 0 -44 3q-45 5 -85.5 20t-71.5 39t-49.5 57.5t-18.5 75.5q0 29 8 50t21.5 34.5t30 20t34.5 6.5q16 0 31.5 -5.5t27.5 -16.5t19.5 -27t7.5 -37q0 -29 -12.5 -44t-27 -27t-27 -25.5t-12.5 -39.5
q0 -15 14 -28.5t37.5 -23.5t54 -16t62.5 -6q35 0 69 8t61 26t43.5 47.5t16.5 71.5q0 43 -22.5 82t-65.5 59l-189 85q-63 28 -97.5 82t-34.5 124q0 45 14 82t39.5 65t60 46t75.5 25q22 3 44 3q33 0 56.5 -5.5t41.5 -12.5t32 -12.5t26 -5.5q17 0 30.5 6t17.5 20h8v-244h-11
q0 50 -16.5 94.5t-44.5 77.5t-65 52.5t-79 19.5q-25 0 -40 -4q-22 -4 -42.5 -13.5t-36 -24t-25 -33.5t-9.5 -43q0 -29 12 -53t31 -43.5t43 -34.5t47 -25l188 -85q28 -13 51.5 -32.5t41 -44.5t27 -54t9.5 -60zM362 889l-195 193l9 7l186 -184l186 184l9 -7z" />
    <glyph glyph-name="Utilde" unicode="&#x168;" horiz-adv-x="800" 
d="M676 790v-581q0 -66 -33.5 -112.5t-87.5 -72.5q-8 -4 -16.5 -7.5t-17.5 -6.5q-58 -20 -120 -20q-52 0 -101.5 13.5t-88.5 41t-62.5 68.5t-23.5 97v580h-145v10h430v-10h-125v-620q0 -41 13 -72t35.5 -51t52 -30t61.5 -10q39 0 72 13q8 2 15.5 5.5t15.5 7.5q24 12 45 29
t36.5 39t25 49t9.5 58v582h-146v10h300v-10h-144zM643 977q0 -30 -11.5 -53t-31 -38.5t-45.5 -24t-54 -8.5q-44 0 -69 13.5t-43 30t-35 30.5t-44 14q-31 0 -35 -28q-1 -9 1 -15.5t5 -11.5t6 -9.5t3 -9.5q0 -12 -11 -12q-9 0 -12.5 8.5t-3.5 16.5v10q0 30 11.5 52.5t31 38.5
t45 24t54.5 8q43 0 68.5 -13.5t43.5 -30t35 -30t44 -13.5q14 0 24.5 8.5t10.5 23.5q0 16 -7.5 24.5t-7.5 17.5q0 12 12 12q8 0 11.5 -8.5t3.5 -16.5v-10z" />
    <glyph glyph-name="utilde" unicode="&#x169;" horiz-adv-x="910" 
d="M605 0v203q-4 -9 -5 -18q-14 -47 -43 -83.5t-66 -61t-77.5 -37.5t-77.5 -13q-38 0 -72.5 11.5t-61 35.5t-42 60t-15.5 86v607h-145v10h305v-598q0 -36 10 -62.5t27 -43.5t39.5 -25.5t46.5 -8.5q55 0 89.5 25.5t54 59.5t26.5 69t7 53v521h-125v10h285v-790h145v-10h-305z
M645 987q0 -30 -11.5 -53t-31 -38.5t-45.5 -24t-54 -8.5q-44 0 -69 13.5t-43 30t-35 30.5t-44 14q-31 0 -35 -28q-1 -9 1 -15.5t5 -11.5t6 -9.5t3 -9.5q0 -12 -11 -12q-9 0 -12.5 8.5t-3.5 16.5v10q0 30 11.5 52.5t31 38.5t45 24t54.5 8q43 0 68.5 -13.5t43.5 -30t35 -30
t44 -13.5q14 0 24.5 8.5t10.5 23.5q0 16 -7.5 24.5t-7.5 17.5q0 12 12 12q8 0 11.5 -8.5t3.5 -16.5v-10z" />
    <glyph glyph-name="Ydieresis" unicode="&#x178;" horiz-adv-x="753" 
d="M668 790l-209 -417v-363h145v-10h-450v10h145v354l-214 426h-145v10h434v-10h-125l204 -407l204 407h-127v10h283v-10h-145zM591 955q0 -30 -21 -51t-51 -21q-29 0 -50.5 21t-21.5 51t21.5 51t50.5 21q30 0 51 -21t21 -51zM360 955q0 -30 -21 -51t-51 -21q-29 0 -50.5 21
t-21.5 51t21.5 51t50.5 21q30 0 51 -21t21 -51z" />
    <glyph glyph-name="Ohorn" unicode="&#x1a0;" 
d="M786 400q0 -74 -22 -140t-61 -119t-92.5 -90t-116.5 -52q-38 -9 -78 -9q-42 0 -79 9q-63 15 -116.5 52t-92.5 90t-61 119t-22 140q0 73 22 139.5t61 119.5t92.5 90t115.5 52q40 9 80 9t78 -9q48 -12 91.5 -37t78.5 -60q20 -1 35 4t22 15q7 9 5.5 20t-6.5 22t-11.5 21
t-9.5 19q-6 16 -8 37.5t16 48.5q13 18 29 26.5t32 10.5t32 -2.5t29 -13.5q18 -14 27 -31t10 -35.5t-5.5 -37t-18.5 -35.5q-25 -35 -68 -60.5t-98 -21.5q51 -56 80.5 -130.5t29.5 -160.5zM609 400q0 19 -0.5 42t-1.5 47t-2 46.5t-2 40.5q-3 40 -8 75t-16 63t-31.5 47.5
t-54.5 29.5q-19 5 -38 7t-38 2q-20 0 -39.5 -2t-39.5 -7q-35 -10 -55.5 -29.5t-31.5 -47.5t-15.5 -63t-7.5 -75q-2 -18 -3 -40.5t-2 -46.5t-1 -47v-42v-42t1 -47t2 -46.5t3 -40.5q3 -41 7.5 -75.5t15.5 -62.5t31.5 -47.5t55.5 -29.5q20 -5 39 -7t39 -2t39 2t38 7
q34 10 54.5 29.5t31.5 47.5t16 62.5t8 75.5q1 18 2 40.5t2 46.5t1.5 47t0.5 42z" />
    <glyph glyph-name="ohorn" unicode="&#x1a1;" 
d="M786 400q0 -74 -22 -140t-61 -119t-92.5 -90t-116.5 -52q-38 -9 -78 -9q-42 0 -79 9q-63 15 -116.5 52t-92.5 90t-61 119t-22 140q0 73 22 139.5t61 119.5t92.5 90t115.5 52q40 9 80 9t78 -9q48 -12 91.5 -37t78.5 -60q20 -1 35 4t22 15q7 9 5.5 20t-6.5 22t-11.5 21
t-9.5 19q-6 16 -8 37.5t16 48.5q13 18 29 26.5t32 10.5t32 -2.5t29 -13.5q18 -14 27 -31t10 -35.5t-5.5 -37t-18.5 -35.5q-25 -35 -68 -60.5t-98 -21.5q51 -56 80.5 -130.5t29.5 -160.5zM609 400q0 19 -0.5 42t-1.5 47t-2 46.5t-2 40.5q-3 40 -8 75t-16 63t-31.5 47.5
t-54.5 29.5q-19 5 -38 7t-38 2q-20 0 -39.5 -2t-39.5 -7q-35 -10 -55.5 -29.5t-31.5 -47.5t-15.5 -63t-7.5 -75q-2 -18 -3 -40.5t-2 -46.5t-1 -47v-42v-42t1 -47t2 -46.5t3 -40.5q3 -41 7.5 -75.5t15.5 -62.5t31.5 -47.5t55.5 -29.5q20 -5 39 -7t39 -2t39 2t38 7
q34 10 54.5 29.5t31.5 47.5t16 62.5t8 75.5q1 18 2 40.5t2 46.5t1.5 47t0.5 42z" />
    <glyph glyph-name="Uhorn" unicode="&#x1af;" horiz-adv-x="800" 
d="M676 790v-86q32 2 45 19q7 9 5.5 20t-6.5 22t-11.5 21t-9.5 19q-6 16 -8 37.5t16 48.5q13 18 29 26.5t32 10.5t32 -2.5t29 -13.5q18 -14 27 -31t10 -35.5t-5.5 -37t-18.5 -35.5q-12 -18 -29.5 -33.5t-39 -27t-46 -17.5t-51.5 -4v-482q0 -66 -33.5 -112.5t-87.5 -72.5
q-8 -4 -16.5 -7.5t-17.5 -6.5q-58 -20 -120 -20q-52 0 -101.5 13.5t-88.5 41t-62.5 68.5t-23.5 97v580h-145v10h430v-10h-125v-620q0 -41 13 -72t35.5 -51t52 -30t61.5 -10q39 0 72 13q8 2 15.5 5.5t15.5 7.5q24 12 45 29t36.5 39t25 49t9.5 58v582h-146v10h174l5 -10h-23z
" />
    <glyph glyph-name="uhorn" unicode="&#x1b0;" horiz-adv-x="910" 
d="M605 0v203q-4 -9 -5 -18q-14 -47 -43 -83.5t-66 -61t-77.5 -37.5t-77.5 -13q-38 0 -72.5 11.5t-61 35.5t-42 60t-15.5 86v607h-145v10h305v-598q0 -36 10 -62.5t27 -43.5t39.5 -25.5t46.5 -8.5q55 0 89.5 25.5t54 59.5t26.5 69t7 53v521h-125v10h285v-96q20 -1 35.5 4
t22.5 15q7 9 5.5 20t-6.5 22t-11.5 21t-9.5 19q-6 16 -8 37.5t16 48.5q13 18 29 26.5t32 10.5t32 -2.5t29 -13.5q18 -14 27 -31t10 -35.5t-5.5 -37t-18.5 -35.5q-13 -19 -31.5 -35.5t-41.5 -28t-50 -16.5t-56 0v-683h145v-10h-305z" />
    <glyph glyph-name="circumflex" unicode="&#x2c6;" horiz-adv-x="796" 
d="M584 889l-186 184l-186 -184l-9 7l195 193l195 -193z" />
    <glyph glyph-name="tilde" unicode="&#x2dc;" horiz-adv-x="809" 
d="M600 987q0 -30 -11.5 -53t-31 -38.5t-45.5 -24t-54 -8.5q-44 0 -69 13.5t-43 30t-35 30.5t-44 14q-31 0 -35 -28q-1 -9 1 -15.5t5 -11.5t6 -9.5t3 -9.5q0 -12 -11 -12q-9 0 -12.5 8.5t-3.5 16.5v10q0 30 11.5 52.5t31 38.5t45 24t54.5 8q43 0 68.5 -13.5t43.5 -30t35 -30
t44 -13.5q14 0 24.5 8.5t10.5 23.5q0 16 -7.5 24.5t-7.5 17.5q0 12 12 12q8 0 11.5 -8.5t3.5 -16.5v-10v0z" />
    <glyph glyph-name="hookabovecomb" unicode="&#x309;" horiz-adv-x="201" 
d="M16 1082q5 18 17.5 28.5t28.5 16t33.5 6.5t32.5 -2q29 -5 46.5 -18.5t25.5 -31.5t9 -38t-3 -38q-7 -27 -23.5 -41.5t-34 -23.5t-33 -18t-19.5 -26q-2 -8 2.5 -16t18.5 -10q14 -1 23 2.5t16 2.5q5 -1 9 -3t2 -6q-4 -6 -11.5 -7.5t-14.5 -0.5l-9 1q-25 4 -43 14t-28.5 24.5
t-14 31.5t0.5 35q7 27 24.5 43t36.5 26.5t34 19t17 20.5q1 6 -1.5 18.5t-16.5 20.5q-9 4 -17 3t-13.5 -4.5t-9 -9t-3.5 -10.5t2.5 -8t2.5 -5q2 -14 -11 -28t-38 -11q-25 2 -33 16.5t-5 26.5z" />
    <glyph glyph-name="dotbelowcomb" unicode="&#x323;" horiz-adv-x="807" 
d="M475 -162q0 -30 -21 -51t-51 -21q-29 0 -50.5 21t-21.5 51t21.5 51t50.5 21q30 0 51 -21t21 -51z" />
    <glyph glyph-name="uni1EA0" unicode="&#x1ea0;" horiz-adv-x="825" 
d="M409 0v10h155l-110 285h-249l-109 -285h145v-10h-301v10h145l318 828h10l317 -828h155v-10h-476zM330 619l-121 -314h241zM457 -162q0 -30 -21 -51t-51 -21q-29 0 -50.5 21t-21.5 51t21.5 51t50.5 21q30 0 51 -21t21 -51z" />
    <glyph glyph-name="uni1EA1" unicode="&#x1ea1;" horiz-adv-x="809" 
d="M789 64q0 -6 -3 -11t-7 -10q-25 -26 -54 -39.5t-66 -13.5q-55 0 -86 21.5t-46 54t-18.5 70.5t-3.5 72q-4 -9 -5 -17q-14 -44 -44.5 -80.5t-69.5 -63t-83 -41.5t-86 -15q-33 0 -62.5 10t-51.5 32t-35 56.5t-13 83.5q0 32 11 63.5t30 54.5q31 38 68 63.5t78.5 41t85 23
t86.5 9.5q8 0 15.5 0.5t15.5 0.5h60v215q0 34 -3.5 62.5t-15.5 49t-35.5 32t-62.5 12.5q-27 0 -57 -6q-17 -4 -34.5 -11t-31.5 -16.5t-23 -22.5t-9 -30q0 -11 7 -23.5t15.5 -26t15.5 -28.5t7 -31q0 -17 -7 -32t-19 -26.5t-27.5 -18.5t-31.5 -7q-42 0 -63 27.5t-21 69.5
q0 49 30 85t74 60t94 35.5t89 11.5q128 0 198.5 -56t70.5 -182v-512q0 -24 13 -36.5t30 -12.5q22 0 39.5 14.5t17.5 37.5q0 12 12 12t12 -11zM505 419h-40h-26h-12t-13 -1q-37 -3 -73.5 -15t-65 -37t-46.5 -65t-18 -99q0 -37 9 -64t25 -44.5t36.5 -26t43.5 -8.5q38 0 76 22
t65 64q24 36 31.5 72.5t7.5 56.5v145zM476 -162q0 -30 -21 -51t-51 -21q-29 0 -50.5 21t-21.5 51t21.5 51t50.5 21q30 0 51 -21t21 -51z" />
    <glyph glyph-name="uni1EA2" unicode="&#x1ea2;" horiz-adv-x="825" 
d="M409 0v10h155l-110 285h-249l-109 -285h145v-10h-301v10h145l318 828h10l317 -828h155v-10h-476zM330 619l-121 -314h241zM314 1073q5 18 17.5 28.5t28.5 16t33.5 6.5t32.5 -2q29 -5 46.5 -18.5t25.5 -31.5t9 -38t-3 -38q-7 -27 -23.5 -41.5t-34 -23.5t-33 -18t-19.5 -26
q-2 -8 2.5 -16t18.5 -10q14 -1 23 2.5t16 2.5q5 -1 9 -3t2 -6q-4 -6 -11.5 -7.5t-14.5 -0.5l-9 1q-25 4 -43 14t-28.5 24.5t-14 31.5t0.5 35q7 27 24.5 43t36.5 26.5t34 19t17 20.5q1 6 -1.5 18.5t-16.5 20.5q-9 4 -17 3t-13.5 -4.5t-9 -9t-3.5 -10.5t2.5 -8t2.5 -5
q2 -14 -11 -28t-38 -11q-25 2 -33 16.5t-5 26.5z" />
    <glyph glyph-name="uni1EA3" unicode="&#x1ea3;" horiz-adv-x="809" 
d="M789 64q0 -6 -3 -11t-7 -10q-25 -26 -54 -39.5t-66 -13.5q-55 0 -86 21.5t-46 54t-18.5 70.5t-3.5 72q-4 -9 -5 -17q-14 -44 -44.5 -80.5t-69.5 -63t-83 -41.5t-86 -15q-33 0 -62.5 10t-51.5 32t-35 56.5t-13 83.5q0 32 11 63.5t30 54.5q31 38 68 63.5t78.5 41t85 23
t86.5 9.5q8 0 15.5 0.5t15.5 0.5h60v215q0 34 -3.5 62.5t-15.5 49t-35.5 32t-62.5 12.5q-27 0 -57 -6q-17 -4 -34.5 -11t-31.5 -16.5t-23 -22.5t-9 -30q0 -11 7 -23.5t15.5 -26t15.5 -28.5t7 -31q0 -17 -7 -32t-19 -26.5t-27.5 -18.5t-31.5 -7q-42 0 -63 27.5t-21 69.5
q0 49 30 85t74 60t94 35.5t89 11.5q128 0 198.5 -56t70.5 -182v-512q0 -24 13 -36.5t30 -12.5q22 0 39.5 14.5t17.5 37.5q0 12 12 12t12 -11zM505 419h-40h-26h-12t-13 -1q-37 -3 -73.5 -15t-65 -37t-46.5 -65t-18 -99q0 -37 9 -64t25 -44.5t36.5 -26t43.5 -8.5q38 0 76 22
t65 64q24 36 31.5 72.5t7.5 56.5v145zM313 1082q5 18 17.5 28.5t28.5 16t33.5 6.5t32.5 -2q29 -5 46.5 -18.5t25.5 -31.5t9 -38t-3 -38q-7 -27 -23.5 -41.5t-34 -23.5t-33 -18t-19.5 -26q-2 -8 2.5 -16t18.5 -10q14 -1 23 2.5t16 2.5q5 -1 9 -3t2 -6q-4 -6 -11.5 -7.5
t-14.5 -0.5l-9 1q-25 4 -43 14t-28.5 24.5t-14 31.5t0.5 35q7 27 24.5 43t36.5 26.5t34 19t17 20.5q1 6 -1.5 18.5t-16.5 20.5q-9 4 -17 3t-13.5 -4.5t-9 -9t-3.5 -10.5t2.5 -8t2.5 -5q2 -14 -11 -28t-38 -11q-25 2 -33 16.5t-5 26.5z" />
    <glyph glyph-name="uni1EA4" unicode="&#x1ea4;" horiz-adv-x="825" 
d="M409 0v10h155l-110 285h-249l-109 -285h145v-10h-301v10h145l318 828h10l317 -828h155v-10h-476zM330 619l-121 -314h241zM594 889l-186 184l-186 -184l-9 7l195 193l195 -193zM755 1117q0 -26 -10.5 -45.5t-28 -33t-39.5 -20.5t-45 -7q-34 0 -71 13t-63 36q-11 9 -11 19
q0 5 3.5 7.5t7.5 2.5q10 0 12 -11q4 -30 35 -30q24 0 34 17t17 42q4 15 9 30.5t14 28t22 20.5t34 8q34 0 57 -21t23 -56z" />
    <glyph glyph-name="uni1EA5" unicode="&#x1ea5;" horiz-adv-x="809" 
d="M789 64q0 -6 -3 -11t-7 -10q-25 -26 -54 -39.5t-66 -13.5q-55 0 -86 21.5t-46 54t-18.5 70.5t-3.5 72q-4 -9 -5 -17q-14 -44 -44.5 -80.5t-69.5 -63t-83 -41.5t-86 -15q-33 0 -62.5 10t-51.5 32t-35 56.5t-13 83.5q0 32 11 63.5t30 54.5q31 38 68 63.5t78.5 41t85 23
t86.5 9.5q8 0 15.5 0.5t15.5 0.5h60v215q0 34 -3.5 62.5t-15.5 49t-35.5 32t-62.5 12.5q-27 0 -57 -6q-17 -4 -34.5 -11t-31.5 -16.5t-23 -22.5t-9 -30q0 -11 7 -23.5t15.5 -26t15.5 -28.5t7 -31q0 -17 -7 -32t-19 -26.5t-27.5 -18.5t-31.5 -7q-42 0 -63 27.5t-21 69.5
q0 49 30 85t74 60t94 35.5t89 11.5q128 0 198.5 -56t70.5 -182v-512q0 -24 13 -36.5t30 -12.5q22 0 39.5 14.5t17.5 37.5q0 12 12 12t12 -11zM505 419h-40h-26h-12t-13 -1q-37 -3 -73.5 -15t-65 -37t-46.5 -65t-18 -99q0 -37 9 -64t25 -44.5t36.5 -26t43.5 -8.5q38 0 76 22
t65 64q24 36 31.5 72.5t7.5 56.5v145zM584 889l-186 184l-186 -184l-9 7l195 193l195 -193zM714 1117q0 -26 -10.5 -45.5t-28 -33t-39.5 -20.5t-45 -7q-34 0 -71 13t-63 36q-11 9 -11 19q0 5 3.5 7.5t7.5 2.5q10 0 12 -11q4 -30 35 -30q24 0 34 17t17 42q4 15 9 30.5t14 28
t22 20.5t34 8q34 0 57 -21t23 -56z" />
    <glyph glyph-name="uni1EA6" unicode="&#x1ea6;" horiz-adv-x="825" 
d="M409 0v10h155l-110 285h-249l-109 -285h145v-10h-301v10h145l318 828h10l317 -828h155v-10h-476zM330 619l-121 -314h241zM594 889l-186 184l-186 -184l-9 7l195 193l195 -193zM715 1120q0 -10 -11 -19q-26 -23 -63 -36t-71 -13q-23 0 -45 7t-39.5 20.5t-28 33
t-10.5 45.5q0 35 23 56t57 21q21 0 34.5 -8t21.5 -20.5t13 -28t10 -30.5q7 -25 17 -42t34 -17q30 0 35 30q2 11 12 11q4 0 7.5 -2.5t3.5 -7.5z" />
    <glyph glyph-name="uni1EA7" unicode="&#x1ea7;" horiz-adv-x="809" 
d="M789 64q0 -6 -3 -11t-7 -10q-25 -26 -54 -39.5t-66 -13.5q-55 0 -86 21.5t-46 54t-18.5 70.5t-3.5 72q-4 -9 -5 -17q-14 -44 -44.5 -80.5t-69.5 -63t-83 -41.5t-86 -15q-33 0 -62.5 10t-51.5 32t-35 56.5t-13 83.5q0 32 11 63.5t30 54.5q31 38 68 63.5t78.5 41t85 23
t86.5 9.5q8 0 15.5 0.5t15.5 0.5h60v215q0 34 -3.5 62.5t-15.5 49t-35.5 32t-62.5 12.5q-27 0 -57 -6q-17 -4 -34.5 -11t-31.5 -16.5t-23 -22.5t-9 -30q0 -11 7 -23.5t15.5 -26t15.5 -28.5t7 -31q0 -17 -7 -32t-19 -26.5t-27.5 -18.5t-31.5 -7q-42 0 -63 27.5t-21 69.5
q0 49 30 85t74 60t94 35.5t89 11.5q128 0 198.5 -56t70.5 -182v-512q0 -24 13 -36.5t30 -12.5q22 0 39.5 14.5t17.5 37.5q0 12 12 12t12 -11zM505 419h-40h-26h-12t-13 -1q-37 -3 -73.5 -15t-65 -37t-46.5 -65t-18 -99q0 -37 9 -64t25 -44.5t36.5 -26t43.5 -8.5q38 0 76 22
t65 64q24 36 31.5 72.5t7.5 56.5v145zM584 889l-186 184l-186 -184l-9 7l195 193l195 -193zM703 1120q0 -10 -11 -19q-26 -23 -63 -36t-71 -13q-23 0 -45 7t-39.5 20.5t-28 33t-10.5 45.5q0 35 23 56t57 21q21 0 34.5 -8t21.5 -20.5t13 -28t10 -30.5q7 -25 17 -42t34 -17
q30 0 35 30q2 11 12 11q4 0 7.5 -2.5t3.5 -7.5z" />
    <glyph glyph-name="uni1EA8" unicode="&#x1ea8;" horiz-adv-x="825" 
d="M409 0v10h155l-110 285h-249l-109 -285h145v-10h-301v10h145l318 828h10l317 -828h155v-10h-476zM330 619l-121 -314h241zM594 889l-186 184l-186 -184l-9 7l195 193l195 -193zM437 1237q5 18 17.5 28.5t28.5 16t33.5 6.5t32.5 -2q29 -5 46.5 -18.5t25.5 -31.5t9 -38
t-3 -38q-7 -27 -23.5 -41.5t-34 -23.5t-33 -18t-19.5 -26q-2 -8 2.5 -16t18.5 -10q14 -1 23 2.5t16 2.5q5 -1 9 -3t2 -6q-4 -6 -11.5 -7.5t-14.5 -0.5l-9 1q-25 4 -43 14t-28.5 24.5t-14 31.5t0.5 35q7 27 24.5 43t36.5 26.5t34 19t17 20.5q1 6 -1.5 18.5t-16.5 20.5
q-9 4 -17 3t-13.5 -4.5t-9 -9t-3.5 -10.5t2.5 -8t2.5 -5q2 -14 -11 -28t-38 -11q-25 2 -33 16.5t-5 26.5z" />
    <glyph glyph-name="uni1EA9" unicode="&#x1ea9;" horiz-adv-x="809" 
d="M789 64q0 -6 -3 -11t-7 -10q-25 -26 -54 -39.5t-66 -13.5q-55 0 -86 21.5t-46 54t-18.5 70.5t-3.5 72q-4 -9 -5 -17q-14 -44 -44.5 -80.5t-69.5 -63t-83 -41.5t-86 -15q-33 0 -62.5 10t-51.5 32t-35 56.5t-13 83.5q0 32 11 63.5t30 54.5q31 38 68 63.5t78.5 41t85 23
t86.5 9.5q8 0 15.5 0.5t15.5 0.5h60v215q0 34 -3.5 62.5t-15.5 49t-35.5 32t-62.5 12.5q-27 0 -57 -6q-17 -4 -34.5 -11t-31.5 -16.5t-23 -22.5t-9 -30q0 -11 7 -23.5t15.5 -26t15.5 -28.5t7 -31q0 -17 -7 -32t-19 -26.5t-27.5 -18.5t-31.5 -7q-42 0 -63 27.5t-21 69.5
q0 49 30 85t74 60t94 35.5t89 11.5q128 0 198.5 -56t70.5 -182v-512q0 -24 13 -36.5t30 -12.5q22 0 39.5 14.5t17.5 37.5q0 12 12 12t12 -11zM505 419h-40h-26h-12t-13 -1q-37 -3 -73.5 -15t-65 -37t-46.5 -65t-18 -99q0 -37 9 -64t25 -44.5t36.5 -26t43.5 -8.5q38 0 76 22
t65 64q24 36 31.5 72.5t7.5 56.5v145zM584 889l-186 184l-186 -184l-9 7l195 193l195 -193zM438 1225q5 18 17.5 28.5t28.5 16t33.5 6.5t32.5 -2q29 -5 46.5 -18.5t25.5 -31.5t9 -38t-3 -38q-7 -27 -23.5 -41.5t-34 -23.5t-33 -18t-19.5 -26q-2 -8 2.5 -16t18.5 -10
q14 -1 23 2.5t16 2.5q5 -1 9 -3t2 -6q-4 -6 -11.5 -7.5t-14.5 -0.5l-9 1q-25 4 -43 14t-28.5 24.5t-14 31.5t0.5 35q7 27 24.5 43t36.5 26.5t34 19t17 20.5q1 6 -1.5 18.5t-16.5 20.5q-9 4 -17 3t-13.5 -4.5t-9 -9t-3.5 -10.5t2.5 -8t2.5 -5q2 -14 -11 -28t-38 -11
q-25 2 -33 16.5t-5 26.5z" />
    <glyph glyph-name="uni1EAA" unicode="&#x1eaa;" horiz-adv-x="825" 
d="M409 0v10h155l-110 285h-249l-109 -285h145v-10h-301v10h145l318 828h10l317 -828h155v-10h-476zM330 619l-121 -314h241zM594 889l-186 184l-186 -184l-9 7l195 193l195 -193zM602 1257q0 -30 -11.5 -53t-31 -38.5t-45.5 -24t-54 -8.5q-44 0 -69 13.5t-43 30t-35 30.5
t-44 14q-31 0 -35 -28q-1 -9 1 -15.5t5 -11.5t6 -9.5t3 -9.5q0 -12 -11 -12q-9 0 -12.5 8.5t-3.5 16.5v10q0 30 11.5 52.5t31 38.5t45 24t54.5 8q43 0 68.5 -13.5t43.5 -30t35 -30t44 -13.5q14 0 24.5 8.5t10.5 23.5q0 16 -7.5 24.5t-7.5 17.5q0 12 12 12q8 0 11.5 -8.5
t3.5 -16.5v-10v0z" />
    <glyph glyph-name="uni1EAB" unicode="&#x1eab;" horiz-adv-x="809" 
d="M789 64q0 -6 -3 -11t-7 -10q-25 -26 -54 -39.5t-66 -13.5q-55 0 -86 21.5t-46 54t-18.5 70.5t-3.5 72q-4 -9 -5 -17q-14 -44 -44.5 -80.5t-69.5 -63t-83 -41.5t-86 -15q-33 0 -62.5 10t-51.5 32t-35 56.5t-13 83.5q0 32 11 63.5t30 54.5q31 38 68 63.5t78.5 41t85 23
t86.5 9.5q8 0 15.5 0.5t15.5 0.5h60v215q0 34 -3.5 62.5t-15.5 49t-35.5 32t-62.5 12.5q-27 0 -57 -6q-17 -4 -34.5 -11t-31.5 -16.5t-23 -22.5t-9 -30q0 -11 7 -23.5t15.5 -26t15.5 -28.5t7 -31q0 -17 -7 -32t-19 -26.5t-27.5 -18.5t-31.5 -7q-42 0 -63 27.5t-21 69.5
q0 49 30 85t74 60t94 35.5t89 11.5q128 0 198.5 -56t70.5 -182v-512q0 -24 13 -36.5t30 -12.5q22 0 39.5 14.5t17.5 37.5q0 12 12 12t12 -11zM505 419h-40h-26h-12t-13 -1q-37 -3 -73.5 -15t-65 -37t-46.5 -65t-18 -99q0 -37 9 -64t25 -44.5t36.5 -26t43.5 -8.5q38 0 76 22
t65 64q24 36 31.5 72.5t7.5 56.5v145zM584 889l-186 184l-186 -184l-9 7l195 193l195 -193zM589 1264q0 -30 -11.5 -53t-31 -38.5t-45.5 -24t-54 -8.5q-44 0 -69 13.5t-43 30t-35 30.5t-44 14q-31 0 -35 -28q-1 -9 1 -15.5t5 -11.5t6 -9.5t3 -9.5q0 -12 -11 -12
q-9 0 -12.5 8.5t-3.5 16.5v10q0 30 11.5 52.5t31 38.5t45 24t54.5 8q43 0 68.5 -13.5t43.5 -30t35 -30t44 -13.5q14 0 24.5 8.5t10.5 23.5q0 16 -7.5 24.5t-7.5 17.5q0 12 12 12q8 0 11.5 -8.5t3.5 -16.5v-10v0z" />
    <glyph glyph-name="uni1EAC" unicode="&#x1eac;" horiz-adv-x="825" 
d="M457 -162q0 -30 -21 -51t-51 -21q-29 0 -50.5 21t-21.5 51t21.5 51t50.5 21q30 0 51 -21t21 -51zM409 0v10h155l-110 285h-249l-109 -285h145v-10h-301v10h145l318 828h10l317 -828h155v-10h-476zM330 619l-121 -314h241zM594 889l-186 184l-186 -184l-9 7l195 193
l195 -193z" />
    <glyph glyph-name="uni1EAD" unicode="&#x1ead;" horiz-adv-x="809" 
d="M476 -162q0 -30 -21 -51t-51 -21q-29 0 -50.5 21t-21.5 51t21.5 51t50.5 21q30 0 51 -21t21 -51zM789 64q0 -6 -3 -11t-7 -10q-25 -26 -54 -39.5t-66 -13.5q-55 0 -86 21.5t-46 54t-18.5 70.5t-3.5 72q-4 -9 -5 -17q-14 -44 -44.5 -80.5t-69.5 -63t-83 -41.5t-86 -15
q-33 0 -62.5 10t-51.5 32t-35 56.5t-13 83.5q0 32 11 63.5t30 54.5q31 38 68 63.5t78.5 41t85 23t86.5 9.5q8 0 15.5 0.5t15.5 0.5h60v215q0 34 -3.5 62.5t-15.5 49t-35.5 32t-62.5 12.5q-27 0 -57 -6q-17 -4 -34.5 -11t-31.5 -16.5t-23 -22.5t-9 -30q0 -11 7 -23.5
t15.5 -26t15.5 -28.5t7 -31q0 -17 -7 -32t-19 -26.5t-27.5 -18.5t-31.5 -7q-42 0 -63 27.5t-21 69.5q0 49 30 85t74 60t94 35.5t89 11.5q128 0 198.5 -56t70.5 -182v-512q0 -24 13 -36.5t30 -12.5q22 0 39.5 14.5t17.5 37.5q0 12 12 12t12 -11zM505 419h-40h-26h-12t-13 -1
q-37 -3 -73.5 -15t-65 -37t-46.5 -65t-18 -99q0 -37 9 -64t25 -44.5t36.5 -26t43.5 -8.5q38 0 76 22t65 64q24 36 31.5 72.5t7.5 56.5v145zM584 889l-186 184l-186 -184l-9 7l195 193l195 -193z" />
    <glyph glyph-name="uni1EAE" unicode="&#x1eae;" horiz-adv-x="825" 
d="M409 0v10h155l-110 285h-249l-109 -285h145v-10h-301v10h145l318 828h10l317 -828h155v-10h-476zM330 619l-121 -314h241zM596 1072q-12 -29 -29.5 -58.5t-41 -53t-53.5 -38t-66 -14.5t-66 14.5t-54 38t-41.5 53t-29.5 58.5l10 4q12 -29 29 -57t39 -50.5t50 -36.5t63 -14
q34 0 62.5 14.5t51 37t39.5 50.5t28 56zM546 1196q0 -26 -10.5 -45.5t-28 -33t-39.5 -20.5t-45 -7q-34 0 -71 13t-63 36q-11 9 -11 19q0 5 3.5 7.5t7.5 2.5q10 0 12 -11q4 -30 35 -30q24 0 34 17t17 42q4 15 9 30.5t14 28t22 20.5t34 8q34 0 57 -21t23 -56z" />
    <glyph glyph-name="uni1EAF" unicode="&#x1eaf;" horiz-adv-x="809" 
d="M789 64q0 -6 -3 -11t-7 -10q-25 -26 -54 -39.5t-66 -13.5q-55 0 -86 21.5t-46 54t-18.5 70.5t-3.5 72q-4 -9 -5 -17q-14 -44 -44.5 -80.5t-69.5 -63t-83 -41.5t-86 -15q-33 0 -62.5 10t-51.5 32t-35 56.5t-13 83.5q0 32 11 63.5t30 54.5q31 38 68 63.5t78.5 41t85 23
t86.5 9.5q8 0 15.5 0.5t15.5 0.5h60v215q0 34 -3.5 62.5t-15.5 49t-35.5 32t-62.5 12.5q-27 0 -57 -6q-17 -4 -34.5 -11t-31.5 -16.5t-23 -22.5t-9 -30q0 -11 7 -23.5t15.5 -26t15.5 -28.5t7 -31q0 -17 -7 -32t-19 -26.5t-27.5 -18.5t-31.5 -7q-42 0 -63 27.5t-21 69.5
q0 49 30 85t74 60t94 35.5t89 11.5q128 0 198.5 -56t70.5 -182v-512q0 -24 13 -36.5t30 -12.5q22 0 39.5 14.5t17.5 37.5q0 12 12 12t12 -11zM505 419h-40h-26h-12t-13 -1q-37 -3 -73.5 -15t-65 -37t-46.5 -65t-18 -99q0 -37 9 -64t25 -44.5t36.5 -26t43.5 -8.5q38 0 76 22
t65 64q24 36 31.5 72.5t7.5 56.5v145zM567 1082q-12 -29 -29.5 -58.5t-41 -53t-53.5 -38t-66 -14.5t-66 14.5t-54 38t-41.5 53t-29.5 58.5l10 4q12 -29 29 -57t39 -50.5t50 -36.5t63 -14q34 0 62.5 14.5t51 37t39.5 50.5t28 56zM529 1203q0 -26 -10.5 -45.5t-28 -33
t-39.5 -20.5t-45 -7q-34 0 -71 13t-63 36q-11 9 -11 19q0 5 3.5 7.5t7.5 2.5q10 0 12 -11q4 -30 35 -30q24 0 34 17t17 42q4 15 9 30.5t14 28t22 20.5t34 8q34 0 57 -21t23 -56z" />
    <glyph glyph-name="uni1EB0" unicode="&#x1eb0;" horiz-adv-x="825" 
d="M409 0v10h155l-110 285h-249l-109 -285h145v-10h-301v10h145l318 828h10l317 -828h155v-10h-476zM330 619l-121 -314h241zM596 1072q-12 -29 -29.5 -58.5t-41 -53t-53.5 -38t-66 -14.5t-66 14.5t-54 38t-41.5 53t-29.5 58.5l10 4q12 -29 29 -57t39 -50.5t50 -36.5t63 -14
q34 0 62.5 14.5t51 37t39.5 50.5t28 56zM546 1157q0 -10 -11 -19q-26 -23 -63 -36t-71 -13q-23 0 -45 7t-39.5 20.5t-28 33t-10.5 45.5q0 35 23 56t57 21q21 0 34.5 -8t21.5 -20.5t13 -28t10 -30.5q7 -25 17 -42t34 -17q30 0 35 30q2 11 12 11q4 0 7.5 -2.5t3.5 -7.5z" />
    <glyph glyph-name="uni1EB1" unicode="&#x1eb1;" horiz-adv-x="809" 
d="M789 64q0 -6 -3 -11t-7 -10q-25 -26 -54 -39.5t-66 -13.5q-55 0 -86 21.5t-46 54t-18.5 70.5t-3.5 72q-4 -9 -5 -17q-14 -44 -44.5 -80.5t-69.5 -63t-83 -41.5t-86 -15q-33 0 -62.5 10t-51.5 32t-35 56.5t-13 83.5q0 32 11 63.5t30 54.5q31 38 68 63.5t78.5 41t85 23
t86.5 9.5q8 0 15.5 0.5t15.5 0.5h60v215q0 34 -3.5 62.5t-15.5 49t-35.5 32t-62.5 12.5q-27 0 -57 -6q-17 -4 -34.5 -11t-31.5 -16.5t-23 -22.5t-9 -30q0 -11 7 -23.5t15.5 -26t15.5 -28.5t7 -31q0 -17 -7 -32t-19 -26.5t-27.5 -18.5t-31.5 -7q-42 0 -63 27.5t-21 69.5
q0 49 30 85t74 60t94 35.5t89 11.5q128 0 198.5 -56t70.5 -182v-512q0 -24 13 -36.5t30 -12.5q22 0 39.5 14.5t17.5 37.5q0 12 12 12t12 -11zM505 419h-40h-26h-12t-13 -1q-37 -3 -73.5 -15t-65 -37t-46.5 -65t-18 -99q0 -37 9 -64t25 -44.5t36.5 -26t43.5 -8.5q38 0 76 22
t65 64q24 36 31.5 72.5t7.5 56.5v145zM567 1082q-12 -29 -29.5 -58.5t-41 -53t-53.5 -38t-66 -14.5t-66 14.5t-54 38t-41.5 53t-29.5 58.5l10 4q12 -29 29 -57t39 -50.5t50 -36.5t63 -14q34 0 62.5 14.5t51 37t39.5 50.5t28 56zM518 1157q0 -10 -11 -19q-26 -23 -63 -36
t-71 -13q-23 0 -45 7t-39.5 20.5t-28 33t-10.5 45.5q0 35 23 56t57 21q21 0 34.5 -8t21.5 -20.5t13 -28t10 -30.5q7 -25 17 -42t34 -17q30 0 35 30q2 11 12 11q4 0 7.5 -2.5t3.5 -7.5z" />
    <glyph glyph-name="uni1EB2" unicode="&#x1eb2;" horiz-adv-x="825" 
d="M409 0v10h155l-110 285h-249l-109 -285h145v-10h-301v10h145l318 828h10l317 -828h155v-10h-476zM330 619l-121 -314h241zM596 1072q-12 -29 -29.5 -58.5t-41 -53t-53.5 -38t-66 -14.5t-66 14.5t-54 38t-41.5 53t-29.5 58.5l10 4q12 -29 29 -57t39 -50.5t50 -36.5t63 -14
q34 0 62.5 14.5t51 37t39.5 50.5t28 56zM321 1274q5 18 17.5 28.5t28.5 16t33.5 6.5t32.5 -2q29 -5 46.5 -18.5t25.5 -31.5t9 -38t-3 -38q-7 -27 -23.5 -41.5t-34 -23.5t-33 -18t-19.5 -26q-2 -8 2.5 -16t18.5 -10q14 -1 23 2.5t16 2.5q5 -1 9 -3t2 -6q-4 -6 -11.5 -7.5
t-14.5 -0.5l-9 1q-25 4 -43 14t-28.5 24.5t-14 31.5t0.5 35q7 27 24.5 43t36.5 26.5t34 19t17 20.5q1 6 -1.5 18.5t-16.5 20.5q-9 4 -17 3t-13.5 -4.5t-9 -9t-3.5 -10.5t2.5 -8t2.5 -5q2 -14 -11 -28t-38 -11q-25 2 -33 16.5t-5 26.5z" />
    <glyph glyph-name="uni1EB3" unicode="&#x1eb3;" horiz-adv-x="809" 
d="M789 64q0 -6 -3 -11t-7 -10q-25 -26 -54 -39.5t-66 -13.5q-55 0 -86 21.5t-46 54t-18.5 70.5t-3.5 72q-4 -9 -5 -17q-14 -44 -44.5 -80.5t-69.5 -63t-83 -41.5t-86 -15q-33 0 -62.5 10t-51.5 32t-35 56.5t-13 83.5q0 32 11 63.5t30 54.5q31 38 68 63.5t78.5 41t85 23
t86.5 9.5q8 0 15.5 0.5t15.5 0.5h60v215q0 34 -3.5 62.5t-15.5 49t-35.5 32t-62.5 12.5q-27 0 -57 -6q-17 -4 -34.5 -11t-31.5 -16.5t-23 -22.5t-9 -30q0 -11 7 -23.5t15.5 -26t15.5 -28.5t7 -31q0 -17 -7 -32t-19 -26.5t-27.5 -18.5t-31.5 -7q-42 0 -63 27.5t-21 69.5
q0 49 30 85t74 60t94 35.5t89 11.5q128 0 198.5 -56t70.5 -182v-512q0 -24 13 -36.5t30 -12.5q22 0 39.5 14.5t17.5 37.5q0 12 12 12t12 -11zM505 419h-40h-26h-12t-13 -1q-37 -3 -73.5 -15t-65 -37t-46.5 -65t-18 -99q0 -37 9 -64t25 -44.5t36.5 -26t43.5 -8.5q38 0 76 22
t65 64q24 36 31.5 72.5t7.5 56.5v145zM567 1082q-12 -29 -29.5 -58.5t-41 -53t-53.5 -38t-66 -14.5t-66 14.5t-54 38t-41.5 53t-29.5 58.5l10 4q12 -29 29 -57t39 -50.5t50 -36.5t63 -14q34 0 62.5 14.5t51 37t39.5 50.5t28 56zM292 1265q5 18 17.5 28.5t28.5 16t33.5 6.5
t32.5 -2q29 -5 46.5 -18.5t25.5 -31.5t9 -38t-3 -38q-7 -27 -23.5 -41.5t-34 -23.5t-33 -18t-19.5 -26q-2 -8 2.5 -16t18.5 -10q14 -1 23 2.5t16 2.5q5 -1 9 -3t2 -6q-4 -6 -11.5 -7.5t-14.5 -0.5l-9 1q-25 4 -43 14t-28.5 24.5t-14 31.5t0.5 35q7 27 24.5 43t36.5 26.5
t34 19t17 20.5q1 6 -1.5 18.5t-16.5 20.5q-9 4 -17 3t-13.5 -4.5t-9 -9t-3.5 -10.5t2.5 -8t2.5 -5q2 -14 -11 -28t-38 -11q-25 2 -33 16.5t-5 26.5z" />
    <glyph glyph-name="uni1EB4" unicode="&#x1eb4;" horiz-adv-x="825" 
d="M409 0v10h155l-110 285h-249l-109 -285h145v-10h-301v10h145l318 828h10l317 -828h155v-10h-476zM330 619l-121 -314h241zM596 1072q-12 -29 -29.5 -58.5t-41 -53t-53.5 -38t-66 -14.5t-66 14.5t-54 38t-41.5 53t-29.5 58.5l10 4q12 -29 29 -57t39 -50.5t50 -36.5t63 -14
q34 0 62.5 14.5t51 37t39.5 50.5t28 56zM602 1251q0 -30 -11.5 -53t-31 -38.5t-45.5 -24t-54 -8.5q-44 0 -69 13.5t-43 30t-35 30.5t-44 14q-31 0 -35 -28q-1 -9 1 -15.5t5 -11.5t6 -9.5t3 -9.5q0 -12 -11 -12q-9 0 -12.5 8.5t-3.5 16.5v10q0 30 11.5 52.5t31 38.5t45 24
t54.5 8q43 0 68.5 -13.5t43.5 -30t35 -30t44 -13.5q14 0 24.5 8.5t10.5 23.5q0 16 -7.5 24.5t-7.5 17.5q0 12 12 12q8 0 11.5 -8.5t3.5 -16.5v-10v0z" />
    <glyph glyph-name="uni1EB5" unicode="&#x1eb5;" horiz-adv-x="809" 
d="M789 64q0 -6 -3 -11t-7 -10q-25 -26 -54 -39.5t-66 -13.5q-55 0 -86 21.5t-46 54t-18.5 70.5t-3.5 72q-4 -9 -5 -17q-14 -44 -44.5 -80.5t-69.5 -63t-83 -41.5t-86 -15q-33 0 -62.5 10t-51.5 32t-35 56.5t-13 83.5q0 32 11 63.5t30 54.5q31 38 68 63.5t78.5 41t85 23
t86.5 9.5q8 0 15.5 0.5t15.5 0.5h60v215q0 34 -3.5 62.5t-15.5 49t-35.5 32t-62.5 12.5q-27 0 -57 -6q-17 -4 -34.5 -11t-31.5 -16.5t-23 -22.5t-9 -30q0 -11 7 -23.5t15.5 -26t15.5 -28.5t7 -31q0 -17 -7 -32t-19 -26.5t-27.5 -18.5t-31.5 -7q-42 0 -63 27.5t-21 69.5
q0 49 30 85t74 60t94 35.5t89 11.5q128 0 198.5 -56t70.5 -182v-512q0 -24 13 -36.5t30 -12.5q22 0 39.5 14.5t17.5 37.5q0 12 12 12t12 -11zM505 419h-40h-26h-12t-13 -1q-37 -3 -73.5 -15t-65 -37t-46.5 -65t-18 -99q0 -37 9 -64t25 -44.5t36.5 -26t43.5 -8.5q38 0 76 22
t65 64q24 36 31.5 72.5t7.5 56.5v145zM567 1082q-12 -29 -29.5 -58.5t-41 -53t-53.5 -38t-66 -14.5t-66 14.5t-54 38t-41.5 53t-29.5 58.5l10 4q12 -29 29 -57t39 -50.5t50 -36.5t63 -14q34 0 62.5 14.5t51 37t39.5 50.5t28 56zM582 1272q0 -30 -11.5 -53t-31 -38.5
t-45.5 -24t-54 -8.5q-44 0 -69 13.5t-43 30t-35 30.5t-44 14q-31 0 -35 -28q-1 -9 1 -15.5t5 -11.5t6 -9.5t3 -9.5q0 -12 -11 -12q-9 0 -12.5 8.5t-3.5 16.5v10q0 30 11.5 52.5t31 38.5t45 24t54.5 8q43 0 68.5 -13.5t43.5 -30t35 -30t44 -13.5q14 0 24.5 8.5t10.5 23.5
q0 16 -7.5 24.5t-7.5 17.5q0 12 12 12q8 0 11.5 -8.5t3.5 -16.5v-10v0z" />
    <glyph glyph-name="uni1EB6" unicode="&#x1eb6;" horiz-adv-x="825" 
d="M457 -162q0 -30 -21 -51t-51 -21q-29 0 -50.5 21t-21.5 51t21.5 51t50.5 21q30 0 51 -21t21 -51zM409 0v10h155l-110 285h-249l-109 -285h145v-10h-301v10h145l318 828h10l317 -828h155v-10h-476zM330 619l-121 -314h241zM596 1072q-12 -29 -29.5 -58.5t-41 -53
t-53.5 -38t-66 -14.5t-66 14.5t-54 38t-41.5 53t-29.5 58.5l10 4q12 -29 29 -57t39 -50.5t50 -36.5t63 -14q34 0 62.5 14.5t51 37t39.5 50.5t28 56z" />
    <glyph glyph-name="uni1EB7" unicode="&#x1eb7;" horiz-adv-x="809" 
d="M476 -162q0 -30 -21 -51t-51 -21q-29 0 -50.5 21t-21.5 51t21.5 51t50.5 21q30 0 51 -21t21 -51zM789 64q0 -6 -3 -11t-7 -10q-25 -26 -54 -39.5t-66 -13.5q-55 0 -86 21.5t-46 54t-18.5 70.5t-3.5 72q-4 -9 -5 -17q-14 -44 -44.5 -80.5t-69.5 -63t-83 -41.5t-86 -15
q-33 0 -62.5 10t-51.5 32t-35 56.5t-13 83.5q0 32 11 63.5t30 54.5q31 38 68 63.5t78.5 41t85 23t86.5 9.5q8 0 15.5 0.5t15.5 0.5h60v215q0 34 -3.5 62.5t-15.5 49t-35.5 32t-62.5 12.5q-27 0 -57 -6q-17 -4 -34.5 -11t-31.5 -16.5t-23 -22.5t-9 -30q0 -11 7 -23.5
t15.5 -26t15.5 -28.5t7 -31q0 -17 -7 -32t-19 -26.5t-27.5 -18.5t-31.5 -7q-42 0 -63 27.5t-21 69.5q0 49 30 85t74 60t94 35.5t89 11.5q128 0 198.5 -56t70.5 -182v-512q0 -24 13 -36.5t30 -12.5q22 0 39.5 14.5t17.5 37.5q0 12 12 12t12 -11zM505 419h-40h-26h-12t-13 -1
q-37 -3 -73.5 -15t-65 -37t-46.5 -65t-18 -99q0 -37 9 -64t25 -44.5t36.5 -26t43.5 -8.5q38 0 76 22t65 64q24 36 31.5 72.5t7.5 56.5v145zM567 1082q-12 -29 -29.5 -58.5t-41 -53t-53.5 -38t-66 -14.5t-66 14.5t-54 38t-41.5 53t-29.5 58.5l10 4q12 -29 29 -57t39 -50.5
t50 -36.5t63 -14q34 0 62.5 14.5t51 37t39.5 50.5t28 56z" />
    <glyph glyph-name="uni1EB8" unicode="&#x1eb8;" horiz-adv-x="715" 
d="M0 0v10h145v780h-145v10h650v-251h-9q0 50 -19 94t-52 76.5t-77 51.5t-94 19h-94v-385h23q32 0 58.5 11.5t45.5 31t29.5 45t10.5 52.5h8v-287h-8q0 26 -10.5 50.5t-29.5 44t-45.5 31t-58.5 11.5h-23v-385h88q58 0 109.5 22t90 60.5t60.5 90t22 110.5h10v-293h-685z
M431 -162q0 -30 -21 -51t-51 -21q-29 0 -50.5 21t-21.5 51t21.5 51t50.5 21q30 0 51 -21t21 -51z" />
    <glyph glyph-name="uni1EB9" unicode="&#x1eb9;" horiz-adv-x="801" 
d="M746 420q0 -2 -1 -5h-523v-75q0 -57 4.5 -117t24 -109.5t59 -81.5t110.5 -32h10q21 1 51 6t57 15.5t46 26.5t19 40t-13.5 37.5t-29 25.5t-29 28t-13.5 45q0 21 7.5 37t19.5 27t27.5 16.5t31.5 5.5q18 0 34.5 -6.5t30 -20t21.5 -34.5t8 -50q0 -48 -22.5 -85.5t-59.5 -64.5
t-85 -42t-99 -17h-14q-66 0 -133 23.5t-120 73t-86.5 127.5t-33.5 186q0 77 25 146t67.5 123t99 90t119.5 47q20 4 47 4h4q90 0 154.5 -30t105.5 -82.5t60 -123.5t19 -154zM580 425q0 38 -2 77t-5 74q-4 49 -10 90t-22.5 71t-47.5 46.5t-85 16.5h-2q-12 0 -24.5 -1t-24.5 -3
q-38 -7 -61.5 -26t-37.5 -48t-20.5 -66t-9.5 -80q-3 -35 -4 -74t-2 -77h358zM474 -162q0 -30 -21 -51t-51 -21q-29 0 -50.5 21t-21.5 51t21.5 51t50.5 21q30 0 51 -21t21 -51z" />
    <glyph glyph-name="uni1EBA" unicode="&#x1eba;" horiz-adv-x="715" 
d="M0 0v10h145v780h-145v10h650v-251h-9q0 50 -19 94t-52 76.5t-77 51.5t-94 19h-94v-385h23q32 0 58.5 11.5t45.5 31t29.5 45t10.5 52.5h8v-287h-8q0 26 -10.5 50.5t-29.5 44t-45.5 31t-58.5 11.5h-23v-385h88q58 0 109.5 22t90 60.5t60.5 90t22 110.5h10v-293h-685z
M266 1073q5 18 17.5 28.5t28.5 16t33.5 6.5t32.5 -2q29 -5 46.5 -18.5t25.5 -31.5t9 -38t-3 -38q-7 -27 -23.5 -41.5t-34 -23.5t-33 -18t-19.5 -26q-2 -8 2.5 -16t18.5 -10q14 -1 23 2.5t16 2.5q5 -1 9 -3t2 -6q-4 -6 -11.5 -7.5t-14.5 -0.5l-9 1q-25 4 -43 14t-28.5 24.5
t-14 31.5t0.5 35q7 27 24.5 43t36.5 26.5t34 19t17 20.5q1 6 -1.5 18.5t-16.5 20.5q-9 4 -17 3t-13.5 -4.5t-9 -9t-3.5 -10.5t2.5 -8t2.5 -5q2 -14 -11 -28t-38 -11q-25 2 -33 16.5t-5 26.5z" />
    <glyph glyph-name="uni1EBB" unicode="&#x1ebb;" horiz-adv-x="801" 
d="M746 420q0 -2 -1 -5h-523v-75q0 -57 4.5 -117t24 -109.5t59 -81.5t110.5 -32h10q21 1 51 6t57 15.5t46 26.5t19 40t-13.5 37.5t-29 25.5t-29 28t-13.5 45q0 21 7.5 37t19.5 27t27.5 16.5t31.5 5.5q18 0 34.5 -6.5t30 -20t21.5 -34.5t8 -50q0 -48 -22.5 -85.5t-59.5 -64.5
t-85 -42t-99 -17h-14q-66 0 -133 23.5t-120 73t-86.5 127.5t-33.5 186q0 77 25 146t67.5 123t99 90t119.5 47q20 4 47 4h4q90 0 154.5 -30t105.5 -82.5t60 -123.5t19 -154zM580 425q0 38 -2 77t-5 74q-4 49 -10 90t-22.5 71t-47.5 46.5t-85 16.5h-2q-12 0 -24.5 -1t-24.5 -3
q-38 -7 -61.5 -26t-37.5 -48t-20.5 -66t-9.5 -80q-3 -35 -4 -74t-2 -77h358zM309 1082q5 18 17.5 28.5t28.5 16t33.5 6.5t32.5 -2q29 -5 46.5 -18.5t25.5 -31.5t9 -38t-3 -38q-7 -27 -23.5 -41.5t-34 -23.5t-33 -18t-19.5 -26q-2 -8 2.5 -16t18.5 -10q14 -1 23 2.5t16 2.5
q5 -1 9 -3t2 -6q-4 -6 -11.5 -7.5t-14.5 -0.5l-9 1q-25 4 -43 14t-28.5 24.5t-14 31.5t0.5 35q7 27 24.5 43t36.5 26.5t34 19t17 20.5q1 6 -1.5 18.5t-16.5 20.5q-9 4 -17 3t-13.5 -4.5t-9 -9t-3.5 -10.5t2.5 -8t2.5 -5q2 -14 -11 -28t-38 -11q-25 2 -33 16.5t-5 26.5z" />
    <glyph glyph-name="uni1EBC" unicode="&#x1ebc;" horiz-adv-x="715" 
d="M0 0v10h145v780h-145v10h650v-251h-9q0 50 -19 94t-52 76.5t-77 51.5t-94 19h-94v-385h23q32 0 58.5 11.5t45.5 31t29.5 45t10.5 52.5h8v-287h-8q0 26 -10.5 50.5t-29.5 44t-45.5 31t-58.5 11.5h-23v-385h88q58 0 109.5 22t90 60.5t60.5 90t22 110.5h10v-293h-685z
M549 978q0 -30 -11.5 -53t-31 -38.5t-45.5 -24t-54 -8.5q-44 0 -69 13.5t-43 30t-35 30.5t-44 14q-31 0 -35 -28q-1 -9 1 -15.5t5 -11.5t6 -9.5t3 -9.5q0 -12 -11 -12q-9 0 -12.5 8.5t-3.5 16.5v10q0 30 11.5 52.5t31 38.5t45 24t54.5 8q43 0 68.5 -13.5t43.5 -30t35 -30
t44 -13.5q14 0 24.5 8.5t10.5 23.5q0 16 -7.5 24.5t-7.5 17.5q0 12 12 12q8 0 11.5 -8.5t3.5 -16.5v-10v0z" />
    <glyph glyph-name="uni1EBD" unicode="&#x1ebd;" horiz-adv-x="801" 
d="M746 420q0 -2 -1 -5h-523v-75q0 -57 4.5 -117t24 -109.5t59 -81.5t110.5 -32h10q21 1 51 6t57 15.5t46 26.5t19 40t-13.5 37.5t-29 25.5t-29 28t-13.5 45q0 21 7.5 37t19.5 27t27.5 16.5t31.5 5.5q18 0 34.5 -6.5t30 -20t21.5 -34.5t8 -50q0 -48 -22.5 -85.5t-59.5 -64.5
t-85 -42t-99 -17h-14q-66 0 -133 23.5t-120 73t-86.5 127.5t-33.5 186q0 77 25 146t67.5 123t99 90t119.5 47q20 4 47 4h4q90 0 154.5 -30t105.5 -82.5t60 -123.5t19 -154zM580 425q0 38 -2 77t-5 74q-4 49 -10 90t-22.5 71t-47.5 46.5t-85 16.5h-2q-12 0 -24.5 -1t-24.5 -3
q-38 -7 -61.5 -26t-37.5 -48t-20.5 -66t-9.5 -80q-3 -35 -4 -74t-2 -77h358zM592 987q0 -30 -11.5 -53t-31 -38.5t-45.5 -24t-54 -8.5q-44 0 -69 13.5t-43 30t-35 30.5t-44 14q-31 0 -35 -28q-1 -9 1 -15.5t5 -11.5t6 -9.5t3 -9.5q0 -12 -11 -12q-9 0 -12.5 8.5t-3.5 16.5
v10q0 30 11.5 52.5t31 38.5t45 24t54.5 8q43 0 68.5 -13.5t43.5 -30t35 -30t44 -13.5q14 0 24.5 8.5t10.5 23.5q0 16 -7.5 24.5t-7.5 17.5q0 12 12 12q8 0 11.5 -8.5t3.5 -16.5v-10v0z" />
    <glyph glyph-name="uni1EBE" unicode="&#x1ebe;" horiz-adv-x="715" 
d="M0 0v10h145v780h-145v10h650v-251h-9q0 50 -19 94t-52 76.5t-77 51.5t-94 19h-94v-385h23q32 0 58.5 11.5t45.5 31t29.5 45t10.5 52.5h8v-287h-8q0 26 -10.5 50.5t-29.5 44t-45.5 31t-58.5 11.5h-23v-385h88q58 0 109.5 22t90 60.5t60.5 90t22 110.5h10v-293h-685z
M584 889l-186 184l-186 -184l-9 7l195 193l195 -193zM745 1117q0 -26 -10.5 -45.5t-28 -33t-39.5 -20.5t-45 -7q-34 0 -71 13t-63 36q-11 9 -11 19q0 5 3.5 7.5t7.5 2.5q10 0 12 -11q4 -30 35 -30q24 0 34 17t17 42q4 15 9 30.5t14 28t22 20.5t34 8q34 0 57 -21t23 -56z" />
    <glyph glyph-name="uni1EBF" unicode="&#x1ebf;" horiz-adv-x="801" 
d="M746 420q0 -2 -1 -5h-523v-75q0 -57 4.5 -117t24 -109.5t59 -81.5t110.5 -32h10q21 1 51 6t57 15.5t46 26.5t19 40t-13.5 37.5t-29 25.5t-29 28t-13.5 45q0 21 7.5 37t19.5 27t27.5 16.5t31.5 5.5q18 0 34.5 -6.5t30 -20t21.5 -34.5t8 -50q0 -48 -22.5 -85.5t-59.5 -64.5
t-85 -42t-99 -17h-14q-66 0 -133 23.5t-120 73t-86.5 127.5t-33.5 186q0 77 25 146t67.5 123t99 90t119.5 47q20 4 47 4h4q90 0 154.5 -30t105.5 -82.5t60 -123.5t19 -154zM580 425q0 38 -2 77t-5 74q-4 49 -10 90t-22.5 71t-47.5 46.5t-85 16.5h-2q-12 0 -24.5 -1t-24.5 -3
q-38 -7 -61.5 -26t-37.5 -48t-20.5 -66t-9.5 -80q-3 -35 -4 -74t-2 -77h358zM584 889l-186 184l-186 -184l-9 7l195 193l195 -193zM719 1117q0 -26 -10.5 -45.5t-28 -33t-39.5 -20.5t-45 -7q-34 0 -71 13t-63 36q-11 9 -11 19q0 5 3.5 7.5t7.5 2.5q10 0 12 -11q4 -30 35 -30
q24 0 34 17t17 42q4 15 9 30.5t14 28t22 20.5t34 8q34 0 57 -21t23 -56z" />
    <glyph glyph-name="uni1EC0" unicode="&#x1ec0;" horiz-adv-x="715" 
d="M0 0v10h145v780h-145v10h650v-251h-9q0 50 -19 94t-52 76.5t-77 51.5t-94 19h-94v-385h23q32 0 58.5 11.5t45.5 31t29.5 45t10.5 52.5h8v-287h-8q0 26 -10.5 50.5t-29.5 44t-45.5 31t-58.5 11.5h-23v-385h88q58 0 109.5 22t90 60.5t60.5 90t22 110.5h10v-293h-685z
M584 889l-186 184l-186 -184l-9 7l195 193l195 -193zM705 1120q0 -10 -11 -19q-26 -23 -63 -36t-71 -13q-23 0 -45 7t-39.5 20.5t-28 33t-10.5 45.5q0 35 23 56t57 21q21 0 34.5 -8t21.5 -20.5t13 -28t10 -30.5q7 -25 17 -42t34 -17q30 0 35 30q2 11 12 11q4 0 7.5 -2.5
t3.5 -7.5z" />
    <glyph glyph-name="uni1EC1" unicode="&#x1ec1;" horiz-adv-x="801" 
d="M746 420q0 -2 -1 -5h-523v-75q0 -57 4.5 -117t24 -109.5t59 -81.5t110.5 -32h10q21 1 51 6t57 15.5t46 26.5t19 40t-13.5 37.5t-29 25.5t-29 28t-13.5 45q0 21 7.5 37t19.5 27t27.5 16.5t31.5 5.5q18 0 34.5 -6.5t30 -20t21.5 -34.5t8 -50q0 -48 -22.5 -85.5t-59.5 -64.5
t-85 -42t-99 -17h-14q-66 0 -133 23.5t-120 73t-86.5 127.5t-33.5 186q0 77 25 146t67.5 123t99 90t119.5 47q20 4 47 4h4q90 0 154.5 -30t105.5 -82.5t60 -123.5t19 -154zM580 425q0 38 -2 77t-5 74q-4 49 -10 90t-22.5 71t-47.5 46.5t-85 16.5h-2q-12 0 -24.5 -1t-24.5 -3
q-38 -7 -61.5 -26t-37.5 -48t-20.5 -66t-9.5 -80q-3 -35 -4 -74t-2 -77h358zM584 889l-186 184l-186 -184l-9 7l195 193l195 -193zM703 1120q0 -10 -11 -19q-26 -23 -63 -36t-71 -13q-23 0 -45 7t-39.5 20.5t-28 33t-10.5 45.5q0 35 23 56t57 21q21 0 34.5 -8t21.5 -20.5
t13 -28t10 -30.5q7 -25 17 -42t34 -17q30 0 35 30q2 11 12 11q4 0 7.5 -2.5t3.5 -7.5z" />
    <glyph glyph-name="uni1EC2" unicode="&#x1ec2;" horiz-adv-x="715" 
d="M0 0v10h145v780h-145v10h650v-251h-9q0 50 -19 94t-52 76.5t-77 51.5t-94 19h-94v-385h23q32 0 58.5 11.5t45.5 31t29.5 45t10.5 52.5h8v-287h-8q0 26 -10.5 50.5t-29.5 44t-45.5 31t-58.5 11.5h-23v-385h88q58 0 109.5 22t90 60.5t60.5 90t22 110.5h10v-293h-685z
M584 889l-186 184l-186 -184l-9 7l195 193l195 -193zM427 1237q5 18 17.5 28.5t28.5 16t33.5 6.5t32.5 -2q29 -5 46.5 -18.5t25.5 -31.5t9 -38t-3 -38q-7 -27 -23.5 -41.5t-34 -23.5t-33 -18t-19.5 -26q-2 -8 2.5 -16t18.5 -10q14 -1 23 2.5t16 2.5q5 -1 9 -3t2 -6
q-4 -6 -11.5 -7.5t-14.5 -0.5l-9 1q-25 4 -43 14t-28.5 24.5t-14 31.5t0.5 35q7 27 24.5 43t36.5 26.5t34 19t17 20.5q1 6 -1.5 18.5t-16.5 20.5q-9 4 -17 3t-13.5 -4.5t-9 -9t-3.5 -10.5t2.5 -8t2.5 -5q2 -14 -11 -28t-38 -11q-25 2 -33 16.5t-5 26.5z" />
    <glyph glyph-name="uni1EC3" unicode="&#x1ec3;" horiz-adv-x="801" 
d="M746 420q0 -2 -1 -5h-523v-75q0 -57 4.5 -117t24 -109.5t59 -81.5t110.5 -32h10q21 1 51 6t57 15.5t46 26.5t19 40t-13.5 37.5t-29 25.5t-29 28t-13.5 45q0 21 7.5 37t19.5 27t27.5 16.5t31.5 5.5q18 0 34.5 -6.5t30 -20t21.5 -34.5t8 -50q0 -48 -22.5 -85.5t-59.5 -64.5
t-85 -42t-99 -17h-14q-66 0 -133 23.5t-120 73t-86.5 127.5t-33.5 186q0 77 25 146t67.5 123t99 90t119.5 47q20 4 47 4h4q90 0 154.5 -30t105.5 -82.5t60 -123.5t19 -154zM580 425q0 38 -2 77t-5 74q-4 49 -10 90t-22.5 71t-47.5 46.5t-85 16.5h-2q-12 0 -24.5 -1t-24.5 -3
q-38 -7 -61.5 -26t-37.5 -48t-20.5 -66t-9.5 -80q-3 -35 -4 -74t-2 -77h358zM584 889l-186 184l-186 -184l-9 7l195 193l195 -193zM439 1225q5 18 17.5 28.5t28.5 16t33.5 6.5t32.5 -2q29 -5 46.5 -18.5t25.5 -31.5t9 -38t-3 -38q-7 -27 -23.5 -41.5t-34 -23.5t-33 -18
t-19.5 -26q-2 -8 2.5 -16t18.5 -10q14 -1 23 2.5t16 2.5q5 -1 9 -3t2 -6q-4 -6 -11.5 -7.5t-14.5 -0.5l-9 1q-25 4 -43 14t-28.5 24.5t-14 31.5t0.5 35q7 27 24.5 43t36.5 26.5t34 19t17 20.5q1 6 -1.5 18.5t-16.5 20.5q-9 4 -17 3t-13.5 -4.5t-9 -9t-3.5 -10.5t2.5 -8
t2.5 -5q2 -14 -11 -28t-38 -11q-25 2 -33 16.5t-5 26.5z" />
    <glyph glyph-name="uni1EC4" unicode="&#x1ec4;" horiz-adv-x="715" 
d="M0 0v10h145v780h-145v10h650v-251h-9q0 50 -19 94t-52 76.5t-77 51.5t-94 19h-94v-385h23q32 0 58.5 11.5t45.5 31t29.5 45t10.5 52.5h8v-287h-8q0 26 -10.5 50.5t-29.5 44t-45.5 31t-58.5 11.5h-23v-385h88q58 0 109.5 22t90 60.5t60.5 90t22 110.5h10v-293h-685z
M584 889l-186 184l-186 -184l-9 7l195 193l195 -193zM589 1257q0 -30 -11.5 -53t-31 -38.5t-45.5 -24t-54 -8.5q-44 0 -69 13.5t-43 30t-35 30.5t-44 14q-31 0 -35 -28q-1 -9 1 -15.5t5 -11.5t6 -9.5t3 -9.5q0 -12 -11 -12q-9 0 -12.5 8.5t-3.5 16.5v10q0 30 11.5 52.5
t31 38.5t45 24t54.5 8q43 0 68.5 -13.5t43.5 -30t35 -30t44 -13.5q14 0 24.5 8.5t10.5 23.5q0 16 -7.5 24.5t-7.5 17.5q0 12 12 12q8 0 11.5 -8.5t3.5 -16.5v-10v0z" />
    <glyph glyph-name="uni1EC5" unicode="&#x1ec5;" horiz-adv-x="801" 
d="M746 420q0 -2 -1 -5h-523v-75q0 -57 4.5 -117t24 -109.5t59 -81.5t110.5 -32h10q21 1 51 6t57 15.5t46 26.5t19 40t-13.5 37.5t-29 25.5t-29 28t-13.5 45q0 21 7.5 37t19.5 27t27.5 16.5t31.5 5.5q18 0 34.5 -6.5t30 -20t21.5 -34.5t8 -50q0 -48 -22.5 -85.5t-59.5 -64.5
t-85 -42t-99 -17h-14q-66 0 -133 23.5t-120 73t-86.5 127.5t-33.5 186q0 77 25 146t67.5 123t99 90t119.5 47q20 4 47 4h4q90 0 154.5 -30t105.5 -82.5t60 -123.5t19 -154zM580 425q0 38 -2 77t-5 74q-4 49 -10 90t-22.5 71t-47.5 46.5t-85 16.5h-2q-12 0 -24.5 -1t-24.5 -3
q-38 -7 -61.5 -26t-37.5 -48t-20.5 -66t-9.5 -80q-3 -35 -4 -74t-2 -77h358zM584 889l-186 184l-186 -184l-9 7l195 193l195 -193zM589 1264q0 -30 -11.5 -53t-31 -38.5t-45.5 -24t-54 -8.5q-44 0 -69 13.5t-43 30t-35 30.5t-44 14q-31 0 -35 -28q-1 -9 1 -15.5t5 -11.5
t6 -9.5t3 -9.5q0 -12 -11 -12q-9 0 -12.5 8.5t-3.5 16.5v10q0 30 11.5 52.5t31 38.5t45 24t54.5 8q43 0 68.5 -13.5t43.5 -30t35 -30t44 -13.5q14 0 24.5 8.5t10.5 23.5q0 16 -7.5 24.5t-7.5 17.5q0 12 12 12q8 0 11.5 -8.5t3.5 -16.5v-10v0z" />
    <glyph glyph-name="uni1EC6" unicode="&#x1ec6;" horiz-adv-x="715" 
d="M431 -162q0 -30 -21 -51t-51 -21q-29 0 -50.5 21t-21.5 51t21.5 51t50.5 21q30 0 51 -21t21 -51zM0 0v10h145v780h-145v10h650v-251h-9q0 50 -19 94t-52 76.5t-77 51.5t-94 19h-94v-385h23q32 0 58.5 11.5t45.5 31t29.5 45t10.5 52.5h8v-287h-8q0 26 -10.5 50.5t-29.5 44
t-45.5 31t-58.5 11.5h-23v-385h88q58 0 109.5 22t90 60.5t60.5 90t22 110.5h10v-293h-685zM584 889l-186 184l-186 -184l-9 7l195 193l195 -193z" />
    <glyph glyph-name="uni1EC7" unicode="&#x1ec7;" horiz-adv-x="801" 
d="M474 -162q0 -30 -21 -51t-51 -21q-29 0 -50.5 21t-21.5 51t21.5 51t50.5 21q30 0 51 -21t21 -51zM746 420q0 -2 -1 -5h-523v-75q0 -57 4.5 -117t24 -109.5t59 -81.5t110.5 -32h10q21 1 51 6t57 15.5t46 26.5t19 40t-13.5 37.5t-29 25.5t-29 28t-13.5 45q0 21 7.5 37
t19.5 27t27.5 16.5t31.5 5.5q18 0 34.5 -6.5t30 -20t21.5 -34.5t8 -50q0 -48 -22.5 -85.5t-59.5 -64.5t-85 -42t-99 -17h-14q-66 0 -133 23.5t-120 73t-86.5 127.5t-33.5 186q0 77 25 146t67.5 123t99 90t119.5 47q20 4 47 4h4q90 0 154.5 -30t105.5 -82.5t60 -123.5
t19 -154zM580 425q0 38 -2 77t-5 74q-4 49 -10 90t-22.5 71t-47.5 46.5t-85 16.5h-2q-12 0 -24.5 -1t-24.5 -3q-38 -7 -61.5 -26t-37.5 -48t-20.5 -66t-9.5 -80q-3 -35 -4 -74t-2 -77h358zM584 889l-186 184l-186 -184l-9 7l195 193l195 -193z" />
    <glyph glyph-name="uni1EC8" unicode="&#x1ec8;" horiz-adv-x="450" 
d="M0 0v10h145v780h-145v10h450v-10h-145v-780h145v-10h-450zM133 1073q5 18 17.5 28.5t28.5 16t33.5 6.5t32.5 -2q29 -5 46.5 -18.5t25.5 -31.5t9 -38t-3 -38q-7 -27 -23.5 -41.5t-34 -23.5t-33 -18t-19.5 -26q-2 -8 2.5 -16t18.5 -10q14 -1 23 2.5t16 2.5q5 -1 9 -3t2 -6
q-4 -6 -11.5 -7.5t-14.5 -0.5l-9 1q-25 4 -43 14t-28.5 24.5t-14 31.5t0.5 35q7 27 24.5 43t36.5 26.5t34 19t17 20.5q1 6 -1.5 18.5t-16.5 20.5q-9 4 -17 3t-13.5 -4.5t-9 -9t-3.5 -10.5t2.5 -8t2.5 -5q2 -14 -11 -28t-38 -11q-25 2 -33 16.5t-5 26.5z" />
    <glyph glyph-name="uni1EC9" unicode="&#x1ec9;" horiz-adv-x="450" 
d="M0 0v10h145v510h-145v10h305v-520h145v-10h-450zM295 10h-140h140zM127 844q5 18 18.5 27.5t29.5 14t32.5 5t27.5 -0.5q29 -5 47 -18t27 -30.5t10.5 -37t-2.5 -37.5q-7 -27 -23.5 -41.5t-34 -23.5t-33 -18t-19.5 -26q-2 -8 2.5 -16t18.5 -10q14 -1 23 2.5t16 2.5
q5 -1 9 -3t2 -6q-4 -6 -11.5 -7.5t-14.5 -0.5l-9 1q-25 4 -43 14t-28.5 24.5t-14 31.5t0.5 35q7 27 24.5 43t36.5 26.5t34 19t17 20.5q1 6 -1.5 18.5t-16.5 20.5q-9 4 -17 3t-13.5 -4.5t-9 -9t-3.5 -10.5t2.5 -8t2.5 -5q2 -14 -11 -28t-38 -11q-25 2 -33 16.5t-5 26.5z" />
    <glyph glyph-name="uni1ECA" unicode="&#x1eca;" horiz-adv-x="450" 
d="M0 0v10h145v780h-145v10h450v-10h-145v-780h145v-10h-450zM298 -162q0 -30 -21 -51t-51 -21q-29 0 -50.5 21t-21.5 51t21.5 51t50.5 21q30 0 51 -21t21 -51z" />
    <glyph glyph-name="uni1ECB" unicode="&#x1ecb;" horiz-adv-x="450" 
d="M314 721q0 -37 -26 -63t-63 -26t-63 26t-26 63t26 63t63 26t63 -26t26 -63zM0 0v10h145v510h-145v10h305v-520h145v-10h-450zM295 10h-140h140zM298 -162q0 -30 -21 -51t-51 -21q-29 0 -50.5 21t-21.5 51t21.5 51t50.5 21q30 0 51 -21t21 -51z" />
    <glyph glyph-name="uni1ECC" unicode="&#x1ecc;" 
d="M786 400q0 -74 -22 -140t-61 -119t-92.5 -90t-116.5 -52q-38 -9 -78 -9q-42 0 -79 9q-63 15 -116.5 52t-92.5 90t-61 119t-22 140q0 73 22 139.5t61 119.5t92.5 90t115.5 52q40 9 80 9t78 -9q63 -15 116.5 -52t92.5 -90t61 -119.5t22 -139.5zM609 400q0 19 -0.5 42
t-1.5 47t-2 46.5t-2 40.5q-3 40 -8 75t-16 63t-31.5 47.5t-54.5 29.5q-19 5 -38 7t-38 2q-20 0 -39.5 -2t-39.5 -7q-35 -10 -55.5 -29.5t-31.5 -47.5t-15.5 -63t-7.5 -75q-2 -18 -3 -40.5t-2 -46.5t-1 -47v-42v-42t1 -47t2 -46.5t3 -40.5q3 -41 7.5 -75.5t15.5 -62.5
t31.5 -47.5t55.5 -29.5q20 -5 39 -7t39 -2t39 2t38 7q34 10 54.5 29.5t31.5 47.5t16 62.5t8 75.5q1 18 2 40.5t2 46.5t1.5 47t0.5 42zM487 -162q0 -30 -21 -51t-51 -21q-29 0 -50.5 21t-21.5 51t21.5 51t50.5 21q30 0 51 -21t21 -51z" />
    <glyph glyph-name="uni1ECD" unicode="&#x1ecd;" 
d="M786 400q0 -74 -22 -140t-61 -119t-92.5 -90t-116.5 -52q-38 -9 -78 -9q-42 0 -79 9q-63 15 -116.5 52t-92.5 90t-61 119t-22 140q0 73 22 139.5t61 119.5t92.5 90t115.5 52q40 9 80 9t78 -9q63 -15 116.5 -52t92.5 -90t61 -119.5t22 -139.5zM609 400q0 19 -0.5 42
t-1.5 47t-2 46.5t-2 40.5q-3 40 -8 75t-16 63t-31.5 47.5t-54.5 29.5q-19 5 -38 7t-38 2q-20 0 -39.5 -2t-39.5 -7q-35 -10 -55.5 -29.5t-31.5 -47.5t-15.5 -63t-7.5 -75q-2 -18 -3 -40.5t-2 -46.5t-1 -47v-42v-42t1 -47t2 -46.5t3 -40.5q3 -41 7.5 -75.5t15.5 -62.5
t31.5 -47.5t55.5 -29.5q20 -5 39 -7t39 -2t39 2t38 7q34 10 54.5 29.5t31.5 47.5t16 62.5t8 75.5q1 18 2 40.5t2 46.5t1.5 47t0.5 42zM487 -162q0 -30 -21 -51t-51 -21q-29 0 -50.5 21t-21.5 51t21.5 51t50.5 21q30 0 51 -21t21 -51z" />
    <glyph glyph-name="uni1ECE" unicode="&#x1ece;" 
d="M786 400q0 -74 -22 -140t-61 -119t-92.5 -90t-116.5 -52q-38 -9 -78 -9q-42 0 -79 9q-63 15 -116.5 52t-92.5 90t-61 119t-22 140q0 73 22 139.5t61 119.5t92.5 90t115.5 52q40 9 80 9t78 -9q63 -15 116.5 -52t92.5 -90t61 -119.5t22 -139.5zM609 400q0 19 -0.5 42
t-1.5 47t-2 46.5t-2 40.5q-3 40 -8 75t-16 63t-31.5 47.5t-54.5 29.5q-19 5 -38 7t-38 2q-20 0 -39.5 -2t-39.5 -7q-35 -10 -55.5 -29.5t-31.5 -47.5t-15.5 -63t-7.5 -75q-2 -18 -3 -40.5t-2 -46.5t-1 -47v-42v-42t1 -47t2 -46.5t3 -40.5q3 -41 7.5 -75.5t15.5 -62.5
t31.5 -47.5t55.5 -29.5q20 -5 39 -7t39 -2t39 2t38 7q34 10 54.5 29.5t31.5 47.5t16 62.5t8 75.5q1 18 2 40.5t2 46.5t1.5 47t0.5 42zM336 1073q5 18 17.5 28.5t28.5 16t33.5 6.5t32.5 -2q29 -5 46.5 -18.5t25.5 -31.5t9 -38t-3 -38q-7 -27 -23.5 -41.5t-34 -23.5t-33 -18
t-19.5 -26q-2 -8 2.5 -16t18.5 -10q14 -1 23 2.5t16 2.5q5 -1 9 -3t2 -6q-4 -6 -11.5 -7.5t-14.5 -0.5l-9 1q-25 4 -43 14t-28.5 24.5t-14 31.5t0.5 35q7 27 24.5 43t36.5 26.5t34 19t17 20.5q1 6 -1.5 18.5t-16.5 20.5q-9 4 -17 3t-13.5 -4.5t-9 -9t-3.5 -10.5t2.5 -8
t2.5 -5q2 -14 -11 -28t-38 -11q-25 2 -33 16.5t-5 26.5z" />
    <glyph glyph-name="uni1ECF" unicode="&#x1ecf;" 
d="M786 400q0 -74 -22 -140t-61 -119t-92.5 -90t-116.5 -52q-38 -9 -78 -9q-42 0 -79 9q-63 15 -116.5 52t-92.5 90t-61 119t-22 140q0 73 22 139.5t61 119.5t92.5 90t115.5 52q40 9 80 9t78 -9q63 -15 116.5 -52t92.5 -90t61 -119.5t22 -139.5zM609 400q0 19 -0.5 42
t-1.5 47t-2 46.5t-2 40.5q-3 40 -8 75t-16 63t-31.5 47.5t-54.5 29.5q-19 5 -38 7t-38 2q-20 0 -39.5 -2t-39.5 -7q-35 -10 -55.5 -29.5t-31.5 -47.5t-15.5 -63t-7.5 -75q-2 -18 -3 -40.5t-2 -46.5t-1 -47v-42v-42t1 -47t2 -46.5t3 -40.5q3 -41 7.5 -75.5t15.5 -62.5
t31.5 -47.5t55.5 -29.5q20 -5 39 -7t39 -2t39 2t38 7q34 10 54.5 29.5t31.5 47.5t16 62.5t8 75.5q1 18 2 40.5t2 46.5t1.5 47t0.5 42zM324 1082q5 18 17.5 28.5t28.5 16t33.5 6.5t32.5 -2q29 -5 46.5 -18.5t25.5 -31.5t9 -38t-3 -38q-7 -27 -23.5 -41.5t-34 -23.5t-33 -18
t-19.5 -26q-2 -8 2.5 -16t18.5 -10q14 -1 23 2.5t16 2.5q5 -1 9 -3t2 -6q-4 -6 -11.5 -7.5t-14.5 -0.5l-9 1q-25 4 -43 14t-28.5 24.5t-14 31.5t0.5 35q7 27 24.5 43t36.5 26.5t34 19t17 20.5q1 6 -1.5 18.5t-16.5 20.5q-9 4 -17 3t-13.5 -4.5t-9 -9t-3.5 -10.5t2.5 -8
t2.5 -5q2 -14 -11 -28t-38 -11q-25 2 -33 16.5t-5 26.5z" />
    <glyph glyph-name="uni1ED0" unicode="&#x1ed0;" 
d="M786 400q0 -74 -22 -140t-61 -119t-92.5 -90t-116.5 -52q-38 -9 -78 -9q-42 0 -79 9q-63 15 -116.5 52t-92.5 90t-61 119t-22 140q0 73 22 139.5t61 119.5t92.5 90t115.5 52q40 9 80 9t78 -9q63 -15 116.5 -52t92.5 -90t61 -119.5t22 -139.5zM609 400q0 19 -0.5 42
t-1.5 47t-2 46.5t-2 40.5q-3 40 -8 75t-16 63t-31.5 47.5t-54.5 29.5q-19 5 -38 7t-38 2q-20 0 -39.5 -2t-39.5 -7q-35 -10 -55.5 -29.5t-31.5 -47.5t-15.5 -63t-7.5 -75q-2 -18 -3 -40.5t-2 -46.5t-1 -47v-42v-42t1 -47t2 -46.5t3 -40.5q3 -41 7.5 -75.5t15.5 -62.5
t31.5 -47.5t55.5 -29.5q20 -5 39 -7t39 -2t39 2t38 7q34 10 54.5 29.5t31.5 47.5t16 62.5t8 75.5q1 18 2 40.5t2 46.5t1.5 47t0.5 42zM603 889l-186 184l-186 -184l-9 7l195 193l195 -193zM764 1117q0 -26 -10.5 -45.5t-28 -33t-39.5 -20.5t-45 -7q-34 0 -71 13t-63 36
q-11 9 -11 19q0 5 3.5 7.5t7.5 2.5q10 0 12 -11q4 -30 35 -30q24 0 34 17t17 42q4 15 9 30.5t14 28t22 20.5t34 8q34 0 57 -21t23 -56z" />
    <glyph glyph-name="uni1ED1" unicode="&#x1ed1;" 
d="M786 400q0 -74 -22 -140t-61 -119t-92.5 -90t-116.5 -52q-38 -9 -78 -9q-42 0 -79 9q-63 15 -116.5 52t-92.5 90t-61 119t-22 140q0 73 22 139.5t61 119.5t92.5 90t115.5 52q40 9 80 9t78 -9q63 -15 116.5 -52t92.5 -90t61 -119.5t22 -139.5zM609 400q0 19 -0.5 42
t-1.5 47t-2 46.5t-2 40.5q-3 40 -8 75t-16 63t-31.5 47.5t-54.5 29.5q-19 5 -38 7t-38 2q-20 0 -39.5 -2t-39.5 -7q-35 -10 -55.5 -29.5t-31.5 -47.5t-15.5 -63t-7.5 -75q-2 -18 -3 -40.5t-2 -46.5t-1 -47v-42v-42t1 -47t2 -46.5t3 -40.5q3 -41 7.5 -75.5t15.5 -62.5
t31.5 -47.5t55.5 -29.5q20 -5 39 -7t39 -2t39 2t38 7q34 10 54.5 29.5t31.5 47.5t16 62.5t8 75.5q1 18 2 40.5t2 46.5t1.5 47t0.5 42zM603 889l-186 184l-186 -184l-9 7l195 193l195 -193zM735 1117q0 -26 -10.5 -45.5t-28 -33t-39.5 -20.5t-45 -7q-34 0 -71 13t-63 36
q-11 9 -11 19q0 5 3.5 7.5t7.5 2.5q10 0 12 -11q4 -30 35 -30q24 0 34 17t17 42q4 15 9 30.5t14 28t22 20.5t34 8q34 0 57 -21t23 -56z" />
    <glyph glyph-name="uni1ED2" unicode="&#x1ed2;" 
d="M786 400q0 -74 -22 -140t-61 -119t-92.5 -90t-116.5 -52q-38 -9 -78 -9q-42 0 -79 9q-63 15 -116.5 52t-92.5 90t-61 119t-22 140q0 73 22 139.5t61 119.5t92.5 90t115.5 52q40 9 80 9t78 -9q63 -15 116.5 -52t92.5 -90t61 -119.5t22 -139.5zM609 400q0 19 -0.5 42
t-1.5 47t-2 46.5t-2 40.5q-3 40 -8 75t-16 63t-31.5 47.5t-54.5 29.5q-19 5 -38 7t-38 2q-20 0 -39.5 -2t-39.5 -7q-35 -10 -55.5 -29.5t-31.5 -47.5t-15.5 -63t-7.5 -75q-2 -18 -3 -40.5t-2 -46.5t-1 -47v-42v-42t1 -47t2 -46.5t3 -40.5q3 -41 7.5 -75.5t15.5 -62.5
t31.5 -47.5t55.5 -29.5q20 -5 39 -7t39 -2t39 2t38 7q34 10 54.5 29.5t31.5 47.5t16 62.5t8 75.5q1 18 2 40.5t2 46.5t1.5 47t0.5 42zM603 889l-186 184l-186 -184l-9 7l195 193l195 -193zM722 1120q0 -10 -11 -19q-26 -23 -63 -36t-71 -13q-23 0 -45 7t-39.5 20.5t-28 33
t-10.5 45.5q0 35 23 56t57 21q21 0 34.5 -8t21.5 -20.5t13 -28t10 -30.5q7 -25 17 -42t34 -17q30 0 35 30q2 11 12 11q4 0 7.5 -2.5t3.5 -7.5z" />
    <glyph glyph-name="uni1ED3" unicode="&#x1ed3;" 
d="M786 400q0 -74 -22 -140t-61 -119t-92.5 -90t-116.5 -52q-38 -9 -78 -9q-42 0 -79 9q-63 15 -116.5 52t-92.5 90t-61 119t-22 140q0 73 22 139.5t61 119.5t92.5 90t115.5 52q40 9 80 9t78 -9q63 -15 116.5 -52t92.5 -90t61 -119.5t22 -139.5zM609 400q0 19 -0.5 42
t-1.5 47t-2 46.5t-2 40.5q-3 40 -8 75t-16 63t-31.5 47.5t-54.5 29.5q-19 5 -38 7t-38 2q-20 0 -39.5 -2t-39.5 -7q-35 -10 -55.5 -29.5t-31.5 -47.5t-15.5 -63t-7.5 -75q-2 -18 -3 -40.5t-2 -46.5t-1 -47v-42v-42t1 -47t2 -46.5t3 -40.5q3 -41 7.5 -75.5t15.5 -62.5
t31.5 -47.5t55.5 -29.5q20 -5 39 -7t39 -2t39 2t38 7q34 10 54.5 29.5t31.5 47.5t16 62.5t8 75.5q1 18 2 40.5t2 46.5t1.5 47t0.5 42zM603 889l-186 184l-186 -184l-9 7l195 193l195 -193zM723 1119q0 -10 -11 -19q-26 -23 -63 -36t-71 -13q-23 0 -45 7t-39.5 20.5t-28 33
t-10.5 45.5q0 35 23 56t57 21q21 0 34.5 -8t21.5 -20.5t13 -28t10 -30.5q7 -25 17 -42t34 -17q30 0 35 30q2 11 12 11q4 0 7.5 -2.5t3.5 -7.5z" />
    <glyph glyph-name="uni1ED4" unicode="&#x1ed4;" 
d="M786 400q0 -74 -22 -140t-61 -119t-92.5 -90t-116.5 -52q-38 -9 -78 -9q-42 0 -79 9q-63 15 -116.5 52t-92.5 90t-61 119t-22 140q0 73 22 139.5t61 119.5t92.5 90t115.5 52q40 9 80 9t78 -9q63 -15 116.5 -52t92.5 -90t61 -119.5t22 -139.5zM609 400q0 19 -0.5 42
t-1.5 47t-2 46.5t-2 40.5q-3 40 -8 75t-16 63t-31.5 47.5t-54.5 29.5q-19 5 -38 7t-38 2q-20 0 -39.5 -2t-39.5 -7q-35 -10 -55.5 -29.5t-31.5 -47.5t-15.5 -63t-7.5 -75q-2 -18 -3 -40.5t-2 -46.5t-1 -47v-42v-42t1 -47t2 -46.5t3 -40.5q3 -41 7.5 -75.5t15.5 -62.5
t31.5 -47.5t55.5 -29.5q20 -5 39 -7t39 -2t39 2t38 7q34 10 54.5 29.5t31.5 47.5t16 62.5t8 75.5q1 18 2 40.5t2 46.5t1.5 47t0.5 42zM603 889l-186 184l-186 -184l-9 7l195 193l195 -193zM446 1237q5 18 17.5 28.5t28.5 16t33.5 6.5t32.5 -2q29 -5 46.5 -18.5t25.5 -31.5
t9 -38t-3 -38q-7 -27 -23.5 -41.5t-34 -23.5t-33 -18t-19.5 -26q-2 -8 2.5 -16t18.5 -10q14 -1 23 2.5t16 2.5q5 -1 9 -3t2 -6q-4 -6 -11.5 -7.5t-14.5 -0.5l-9 1q-25 4 -43 14t-28.5 24.5t-14 31.5t0.5 35q7 27 24.5 43t36.5 26.5t34 19t17 20.5q1 6 -1.5 18.5t-16.5 20.5
q-9 4 -17 3t-13.5 -4.5t-9 -9t-3.5 -10.5t2.5 -8t2.5 -5q2 -14 -11 -28t-38 -11q-25 2 -33 16.5t-5 26.5z" />
    <glyph glyph-name="uni1ED5" unicode="&#x1ed5;" 
d="M786 400q0 -74 -22 -140t-61 -119t-92.5 -90t-116.5 -52q-38 -9 -78 -9q-42 0 -79 9q-63 15 -116.5 52t-92.5 90t-61 119t-22 140q0 73 22 139.5t61 119.5t92.5 90t115.5 52q40 9 80 9t78 -9q63 -15 116.5 -52t92.5 -90t61 -119.5t22 -139.5zM609 400q0 19 -0.5 42
t-1.5 47t-2 46.5t-2 40.5q-3 40 -8 75t-16 63t-31.5 47.5t-54.5 29.5q-19 5 -38 7t-38 2q-20 0 -39.5 -2t-39.5 -7q-35 -10 -55.5 -29.5t-31.5 -47.5t-15.5 -63t-7.5 -75q-2 -18 -3 -40.5t-2 -46.5t-1 -47v-42v-42t1 -47t2 -46.5t3 -40.5q3 -41 7.5 -75.5t15.5 -62.5
t31.5 -47.5t55.5 -29.5q20 -5 39 -7t39 -2t39 2t38 7q34 10 54.5 29.5t31.5 47.5t16 62.5t8 75.5q1 18 2 40.5t2 46.5t1.5 47t0.5 42zM603 889l-186 184l-186 -184l-9 7l195 193l195 -193zM457 1225q5 18 17.5 28.5t28.5 16t33.5 6.5t32.5 -2q29 -5 46.5 -18.5t25.5 -31.5
t9 -38t-3 -38q-7 -27 -23.5 -41.5t-34 -23.5t-33 -18t-19.5 -26q-2 -8 2.5 -16t18.5 -10q14 -1 23 2.5t16 2.5q5 -1 9 -3t2 -6q-4 -6 -11.5 -7.5t-14.5 -0.5l-9 1q-25 4 -43 14t-28.5 24.5t-14 31.5t0.5 35q7 27 24.5 43t36.5 26.5t34 19t17 20.5q1 6 -1.5 18.5t-16.5 20.5
q-9 4 -17 3t-13.5 -4.5t-9 -9t-3.5 -10.5t2.5 -8t2.5 -5q2 -14 -11 -28t-38 -11q-25 2 -33 16.5t-5 26.5z" />
    <glyph glyph-name="uni1ED6" unicode="&#x1ed6;" 
d="M786 400q0 -74 -22 -140t-61 -119t-92.5 -90t-116.5 -52q-38 -9 -78 -9q-42 0 -79 9q-63 15 -116.5 52t-92.5 90t-61 119t-22 140q0 73 22 139.5t61 119.5t92.5 90t115.5 52q40 9 80 9t78 -9q63 -15 116.5 -52t92.5 -90t61 -119.5t22 -139.5zM609 400q0 19 -0.5 42
t-1.5 47t-2 46.5t-2 40.5q-3 40 -8 75t-16 63t-31.5 47.5t-54.5 29.5q-19 5 -38 7t-38 2q-20 0 -39.5 -2t-39.5 -7q-35 -10 -55.5 -29.5t-31.5 -47.5t-15.5 -63t-7.5 -75q-2 -18 -3 -40.5t-2 -46.5t-1 -47v-42v-42t1 -47t2 -46.5t3 -40.5q3 -41 7.5 -75.5t15.5 -62.5
t31.5 -47.5t55.5 -29.5q20 -5 39 -7t39 -2t39 2t38 7q34 10 54.5 29.5t31.5 47.5t16 62.5t8 75.5q1 18 2 40.5t2 46.5t1.5 47t0.5 42zM603 889l-186 184l-186 -184l-9 7l195 193l195 -193zM607 1257q0 -30 -11.5 -53t-31 -38.5t-45.5 -24t-54 -8.5q-44 0 -69 13.5t-43 30
t-35 30.5t-44 14q-31 0 -35 -28q-1 -9 1 -15.5t5 -11.5t6 -9.5t3 -9.5q0 -12 -11 -12q-9 0 -12.5 8.5t-3.5 16.5v10q0 30 11.5 52.5t31 38.5t45 24t54.5 8q43 0 68.5 -13.5t43.5 -30t35 -30t44 -13.5q14 0 24.5 8.5t10.5 23.5q0 16 -7.5 24.5t-7.5 17.5q0 12 12 12
q8 0 11.5 -8.5t3.5 -16.5v-10v0z" />
    <glyph glyph-name="uni1ED7" unicode="&#x1ed7;" 
d="M786 400q0 -74 -22 -140t-61 -119t-92.5 -90t-116.5 -52q-38 -9 -78 -9q-42 0 -79 9q-63 15 -116.5 52t-92.5 90t-61 119t-22 140q0 73 22 139.5t61 119.5t92.5 90t115.5 52q40 9 80 9t78 -9q63 -15 116.5 -52t92.5 -90t61 -119.5t22 -139.5zM609 400q0 19 -0.5 42
t-1.5 47t-2 46.5t-2 40.5q-3 40 -8 75t-16 63t-31.5 47.5t-54.5 29.5q-19 5 -38 7t-38 2q-20 0 -39.5 -2t-39.5 -7q-35 -10 -55.5 -29.5t-31.5 -47.5t-15.5 -63t-7.5 -75q-2 -18 -3 -40.5t-2 -46.5t-1 -47v-42v-42t1 -47t2 -46.5t3 -40.5q3 -41 7.5 -75.5t15.5 -62.5
t31.5 -47.5t55.5 -29.5q20 -5 39 -7t39 -2t39 2t38 7q34 10 54.5 29.5t31.5 47.5t16 62.5t8 75.5q1 18 2 40.5t2 46.5t1.5 47t0.5 42zM603 889l-186 184l-186 -184l-9 7l195 193l195 -193zM607 1261q0 -30 -11.5 -53t-31 -38.5t-45.5 -24t-54 -8.5q-44 0 -69 13.5t-43 30
t-35 30.5t-44 14q-31 0 -35 -28q-1 -9 1 -15.5t5 -11.5t6 -9.5t3 -9.5q0 -12 -11 -12q-9 0 -12.5 8.5t-3.5 16.5v10q0 30 11.5 52.5t31 38.5t45 24t54.5 8q43 0 68.5 -13.5t43.5 -30t35 -30t44 -13.5q14 0 24.5 8.5t10.5 23.5q0 16 -7.5 24.5t-7.5 17.5q0 12 12 12
q8 0 11.5 -8.5t3.5 -16.5v-10v0z" />
    <glyph glyph-name="uni1ED8" unicode="&#x1ed8;" 
d="M487 -162q0 -30 -21 -51t-51 -21q-29 0 -50.5 21t-21.5 51t21.5 51t50.5 21q30 0 51 -21t21 -51zM786 400q0 -74 -22 -140t-61 -119t-92.5 -90t-116.5 -52q-38 -9 -78 -9q-42 0 -79 9q-63 15 -116.5 52t-92.5 90t-61 119t-22 140q0 73 22 139.5t61 119.5t92.5 90
t115.5 52q40 9 80 9t78 -9q63 -15 116.5 -52t92.5 -90t61 -119.5t22 -139.5zM609 400q0 19 -0.5 42t-1.5 47t-2 46.5t-2 40.5q-3 40 -8 75t-16 63t-31.5 47.5t-54.5 29.5q-19 5 -38 7t-38 2q-20 0 -39.5 -2t-39.5 -7q-35 -10 -55.5 -29.5t-31.5 -47.5t-15.5 -63t-7.5 -75
q-2 -18 -3 -40.5t-2 -46.5t-1 -47v-42v-42t1 -47t2 -46.5t3 -40.5q3 -41 7.5 -75.5t15.5 -62.5t31.5 -47.5t55.5 -29.5q20 -5 39 -7t39 -2t39 2t38 7q34 10 54.5 29.5t31.5 47.5t16 62.5t8 75.5q1 18 2 40.5t2 46.5t1.5 47t0.5 42zM603 889l-186 184l-186 -184l-9 7l195 193
l195 -193z" />
    <glyph glyph-name="uni1ED9" unicode="&#x1ed9;" 
d="M487 -162q0 -30 -21 -51t-51 -21q-29 0 -50.5 21t-21.5 51t21.5 51t50.5 21q30 0 51 -21t21 -51zM786 400q0 -74 -22 -140t-61 -119t-92.5 -90t-116.5 -52q-38 -9 -78 -9q-42 0 -79 9q-63 15 -116.5 52t-92.5 90t-61 119t-22 140q0 73 22 139.5t61 119.5t92.5 90
t115.5 52q40 9 80 9t78 -9q63 -15 116.5 -52t92.5 -90t61 -119.5t22 -139.5zM609 400q0 19 -0.5 42t-1.5 47t-2 46.5t-2 40.5q-3 40 -8 75t-16 63t-31.5 47.5t-54.5 29.5q-19 5 -38 7t-38 2q-20 0 -39.5 -2t-39.5 -7q-35 -10 -55.5 -29.5t-31.5 -47.5t-15.5 -63t-7.5 -75
q-2 -18 -3 -40.5t-2 -46.5t-1 -47v-42v-42t1 -47t2 -46.5t3 -40.5q3 -41 7.5 -75.5t15.5 -62.5t31.5 -47.5t55.5 -29.5q20 -5 39 -7t39 -2t39 2t38 7q34 10 54.5 29.5t31.5 47.5t16 62.5t8 75.5q1 18 2 40.5t2 46.5t1.5 47t0.5 42zM603 889l-186 184l-186 -184l-9 7l195 193
l195 -193z" />
    <glyph glyph-name="uni1EDA" unicode="&#x1eda;" 
d="M786 400q0 -74 -22 -140t-61 -119t-92.5 -90t-116.5 -52q-38 -9 -78 -9q-42 0 -79 9q-63 15 -116.5 52t-92.5 90t-61 119t-22 140q0 73 22 139.5t61 119.5t92.5 90t115.5 52q40 9 80 9t78 -9q48 -12 91.5 -37t78.5 -60q20 -1 35 4t22 15q7 9 5.5 20t-6.5 22t-11.5 21
t-9.5 19q-6 16 -8 37.5t16 48.5q13 18 29 26.5t32 10.5t32 -2.5t29 -13.5q18 -14 27 -31t10 -35.5t-5.5 -37t-18.5 -35.5q-25 -35 -68 -60.5t-98 -21.5q51 -56 80.5 -130.5t29.5 -160.5zM609 400q0 19 -0.5 42t-1.5 47t-2 46.5t-2 40.5q-3 40 -8 75t-16 63t-31.5 47.5
t-54.5 29.5q-19 5 -38 7t-38 2q-20 0 -39.5 -2t-39.5 -7q-35 -10 -55.5 -29.5t-31.5 -47.5t-15.5 -63t-7.5 -75q-2 -18 -3 -40.5t-2 -46.5t-1 -47v-42v-42t1 -47t2 -46.5t3 -40.5q3 -41 7.5 -75.5t15.5 -62.5t31.5 -47.5t55.5 -29.5q20 -5 39 -7t39 -2t39 2t38 7
q34 10 54.5 29.5t31.5 47.5t16 62.5t8 75.5q1 18 2 40.5t2 46.5t1.5 47t0.5 42zM545 960q0 -26 -10.5 -45.5t-28 -33t-39.5 -20.5t-45 -7q-34 0 -71 13t-63 36q-11 9 -11 19q0 5 3.5 7.5t7.5 2.5q10 0 12 -11q4 -30 35 -30q24 0 34 17t17 42q4 15 9 30.5t14 28t22 20.5t34 8
q34 0 57 -21t23 -56z" />
    <glyph glyph-name="uni1EDB" unicode="&#x1edb;" 
d="M786 400q0 -74 -22 -140t-61 -119t-92.5 -90t-116.5 -52q-38 -9 -78 -9q-42 0 -79 9q-63 15 -116.5 52t-92.5 90t-61 119t-22 140q0 73 22 139.5t61 119.5t92.5 90t115.5 52q40 9 80 9t78 -9q48 -12 91.5 -37t78.5 -60q20 -1 35 4t22 15q7 9 5.5 20t-6.5 22t-11.5 21
t-9.5 19q-6 16 -8 37.5t16 48.5q13 18 29 26.5t32 10.5t32 -2.5t29 -13.5q18 -14 27 -31t10 -35.5t-5.5 -37t-18.5 -35.5q-25 -35 -68 -60.5t-98 -21.5q51 -56 80.5 -130.5t29.5 -160.5zM609 400q0 19 -0.5 42t-1.5 47t-2 46.5t-2 40.5q-3 40 -8 75t-16 63t-31.5 47.5
t-54.5 29.5q-19 5 -38 7t-38 2q-20 0 -39.5 -2t-39.5 -7q-35 -10 -55.5 -29.5t-31.5 -47.5t-15.5 -63t-7.5 -75q-2 -18 -3 -40.5t-2 -46.5t-1 -47v-42v-42t1 -47t2 -46.5t3 -40.5q3 -41 7.5 -75.5t15.5 -62.5t31.5 -47.5t55.5 -29.5q20 -5 39 -7t39 -2t39 2t38 7
q34 10 54.5 29.5t31.5 47.5t16 62.5t8 75.5q1 18 2 40.5t2 46.5t1.5 47t0.5 42zM545 960q0 -26 -10.5 -45.5t-28 -33t-39.5 -20.5t-45 -7q-34 0 -71 13t-63 36q-11 9 -11 19q0 5 3.5 7.5t7.5 2.5q10 0 12 -11q4 -30 35 -30q24 0 34 17t17 42q4 15 9 30.5t14 28t22 20.5t34 8
q34 0 57 -21t23 -56z" />
    <glyph glyph-name="uni1EDC" unicode="&#x1edc;" 
d="M786 400q0 -74 -22 -140t-61 -119t-92.5 -90t-116.5 -52q-38 -9 -78 -9q-42 0 -79 9q-63 15 -116.5 52t-92.5 90t-61 119t-22 140q0 73 22 139.5t61 119.5t92.5 90t115.5 52q40 9 80 9t78 -9q48 -12 91.5 -37t78.5 -60q20 -1 35 4t22 15q7 9 5.5 20t-6.5 22t-11.5 21
t-9.5 19q-6 16 -8 37.5t16 48.5q13 18 29 26.5t32 10.5t32 -2.5t29 -13.5q18 -14 27 -31t10 -35.5t-5.5 -37t-18.5 -35.5q-25 -35 -68 -60.5t-98 -21.5q51 -56 80.5 -130.5t29.5 -160.5zM609 400q0 19 -0.5 42t-1.5 47t-2 46.5t-2 40.5q-3 40 -8 75t-16 63t-31.5 47.5
t-54.5 29.5q-19 5 -38 7t-38 2q-20 0 -39.5 -2t-39.5 -7q-35 -10 -55.5 -29.5t-31.5 -47.5t-15.5 -63t-7.5 -75q-2 -18 -3 -40.5t-2 -46.5t-1 -47v-42v-42t1 -47t2 -46.5t3 -40.5q3 -41 7.5 -75.5t15.5 -62.5t31.5 -47.5t55.5 -29.5q20 -5 39 -7t39 -2t39 2t38 7
q34 10 54.5 29.5t31.5 47.5t16 62.5t8 75.5q1 18 2 40.5t2 46.5t1.5 47t0.5 42zM549 913q0 -10 -11 -19q-26 -23 -63 -36t-71 -13q-23 0 -45 7t-39.5 20.5t-28 33t-10.5 45.5q0 35 23 56t57 21q21 0 34.5 -8t21.5 -20.5t13 -28t10 -30.5q7 -25 17 -42t34 -17q30 0 35 30
q2 11 12 11q4 0 7.5 -2.5t3.5 -7.5z" />
    <glyph glyph-name="uni1EDD" unicode="&#x1edd;" 
d="M786 400q0 -74 -22 -140t-61 -119t-92.5 -90t-116.5 -52q-38 -9 -78 -9q-42 0 -79 9q-63 15 -116.5 52t-92.5 90t-61 119t-22 140q0 73 22 139.5t61 119.5t92.5 90t115.5 52q40 9 80 9t78 -9q48 -12 91.5 -37t78.5 -60q20 -1 35 4t22 15q7 9 5.5 20t-6.5 22t-11.5 21
t-9.5 19q-6 16 -8 37.5t16 48.5q13 18 29 26.5t32 10.5t32 -2.5t29 -13.5q18 -14 27 -31t10 -35.5t-5.5 -37t-18.5 -35.5q-25 -35 -68 -60.5t-98 -21.5q51 -56 80.5 -130.5t29.5 -160.5zM609 400q0 19 -0.5 42t-1.5 47t-2 46.5t-2 40.5q-3 40 -8 75t-16 63t-31.5 47.5
t-54.5 29.5q-19 5 -38 7t-38 2q-20 0 -39.5 -2t-39.5 -7q-35 -10 -55.5 -29.5t-31.5 -47.5t-15.5 -63t-7.5 -75q-2 -18 -3 -40.5t-2 -46.5t-1 -47v-42v-42t1 -47t2 -46.5t3 -40.5q3 -41 7.5 -75.5t15.5 -62.5t31.5 -47.5t55.5 -29.5q20 -5 39 -7t39 -2t39 2t38 7
q34 10 54.5 29.5t31.5 47.5t16 62.5t8 75.5q1 18 2 40.5t2 46.5t1.5 47t0.5 42zM555 922q0 -10 -11 -19q-26 -23 -63 -36t-71 -13q-23 0 -45 7t-39.5 20.5t-28 33t-10.5 45.5q0 35 23 56t57 21q21 0 34.5 -8t21.5 -20.5t13 -28t10 -30.5q7 -25 17 -42t34 -17q30 0 35 30
q2 11 12 11q4 0 7.5 -2.5t3.5 -7.5z" />
    <glyph glyph-name="uni1EDE" unicode="&#x1ede;" 
d="M786 400q0 -74 -22 -140t-61 -119t-92.5 -90t-116.5 -52q-38 -9 -78 -9q-42 0 -79 9q-63 15 -116.5 52t-92.5 90t-61 119t-22 140q0 73 22 139.5t61 119.5t92.5 90t115.5 52q40 9 80 9t78 -9q48 -12 91.5 -37t78.5 -60q20 -1 35 4t22 15q7 9 5.5 20t-6.5 22t-11.5 21
t-9.5 19q-6 16 -8 37.5t16 48.5q13 18 29 26.5t32 10.5t32 -2.5t29 -13.5q18 -14 27 -31t10 -35.5t-5.5 -37t-18.5 -35.5q-25 -35 -68 -60.5t-98 -21.5q51 -56 80.5 -130.5t29.5 -160.5zM609 400q0 19 -0.5 42t-1.5 47t-2 46.5t-2 40.5q-3 40 -8 75t-16 63t-31.5 47.5
t-54.5 29.5q-19 5 -38 7t-38 2q-20 0 -39.5 -2t-39.5 -7q-35 -10 -55.5 -29.5t-31.5 -47.5t-15.5 -63t-7.5 -75q-2 -18 -3 -40.5t-2 -46.5t-1 -47v-42v-42t1 -47t2 -46.5t3 -40.5q3 -41 7.5 -75.5t15.5 -62.5t31.5 -47.5t55.5 -29.5q20 -5 39 -7t39 -2t39 2t38 7
q34 10 54.5 29.5t31.5 47.5t16 62.5t8 75.5q1 18 2 40.5t2 46.5t1.5 47t0.5 42zM336 1073q5 18 17.5 28.5t28.5 16t33.5 6.5t32.5 -2q29 -5 46.5 -18.5t25.5 -31.5t9 -38t-3 -38q-7 -27 -23.5 -41.5t-34 -23.5t-33 -18t-19.5 -26q-2 -8 2.5 -16t18.5 -10q14 -1 23 2.5
t16 2.5q5 -1 9 -3t2 -6q-4 -6 -11.5 -7.5t-14.5 -0.5l-9 1q-25 4 -43 14t-28.5 24.5t-14 31.5t0.5 35q7 27 24.5 43t36.5 26.5t34 19t17 20.5q1 6 -1.5 18.5t-16.5 20.5q-9 4 -17 3t-13.5 -4.5t-9 -9t-3.5 -10.5t2.5 -8t2.5 -5q2 -14 -11 -28t-38 -11q-25 2 -33 16.5
t-5 26.5z" />
    <glyph glyph-name="uni1EDF" unicode="&#x1edf;" 
d="M786 400q0 -74 -22 -140t-61 -119t-92.5 -90t-116.5 -52q-38 -9 -78 -9q-42 0 -79 9q-63 15 -116.5 52t-92.5 90t-61 119t-22 140q0 73 22 139.5t61 119.5t92.5 90t115.5 52q40 9 80 9t78 -9q48 -12 91.5 -37t78.5 -60q20 -1 35 4t22 15q7 9 5.5 20t-6.5 22t-11.5 21
t-9.5 19q-6 16 -8 37.5t16 48.5q13 18 29 26.5t32 10.5t32 -2.5t29 -13.5q18 -14 27 -31t10 -35.5t-5.5 -37t-18.5 -35.5q-25 -35 -68 -60.5t-98 -21.5q51 -56 80.5 -130.5t29.5 -160.5zM609 400q0 19 -0.5 42t-1.5 47t-2 46.5t-2 40.5q-3 40 -8 75t-16 63t-31.5 47.5
t-54.5 29.5q-19 5 -38 7t-38 2q-20 0 -39.5 -2t-39.5 -7q-35 -10 -55.5 -29.5t-31.5 -47.5t-15.5 -63t-7.5 -75q-2 -18 -3 -40.5t-2 -46.5t-1 -47v-42v-42t1 -47t2 -46.5t3 -40.5q3 -41 7.5 -75.5t15.5 -62.5t31.5 -47.5t55.5 -29.5q20 -5 39 -7t39 -2t39 2t38 7
q34 10 54.5 29.5t31.5 47.5t16 62.5t8 75.5q1 18 2 40.5t2 46.5t1.5 47t0.5 42zM324 1082q5 18 17.5 28.5t28.5 16t33.5 6.5t32.5 -2q29 -5 46.5 -18.5t25.5 -31.5t9 -38t-3 -38q-7 -27 -23.5 -41.5t-34 -23.5t-33 -18t-19.5 -26q-2 -8 2.5 -16t18.5 -10q14 -1 23 2.5
t16 2.5q5 -1 9 -3t2 -6q-4 -6 -11.5 -7.5t-14.5 -0.5l-9 1q-25 4 -43 14t-28.5 24.5t-14 31.5t0.5 35q7 27 24.5 43t36.5 26.5t34 19t17 20.5q1 6 -1.5 18.5t-16.5 20.5q-9 4 -17 3t-13.5 -4.5t-9 -9t-3.5 -10.5t2.5 -8t2.5 -5q2 -14 -11 -28t-38 -11q-25 2 -33 16.5
t-5 26.5z" />
    <glyph glyph-name="uni1EE0" unicode="&#x1ee0;" 
d="M786 400q0 -74 -22 -140t-61 -119t-92.5 -90t-116.5 -52q-38 -9 -78 -9q-42 0 -79 9q-63 15 -116.5 52t-92.5 90t-61 119t-22 140q0 73 22 139.5t61 119.5t92.5 90t115.5 52q40 9 80 9t78 -9q48 -12 91.5 -37t78.5 -60q20 -1 35 4t22 15q7 9 5.5 20t-6.5 22t-11.5 21
t-9.5 19q-6 16 -8 37.5t16 48.5q13 18 29 26.5t32 10.5t32 -2.5t29 -13.5q18 -14 27 -31t10 -35.5t-5.5 -37t-18.5 -35.5q-25 -35 -68 -60.5t-98 -21.5q51 -56 80.5 -130.5t29.5 -160.5zM609 400q0 19 -0.5 42t-1.5 47t-2 46.5t-2 40.5q-3 40 -8 75t-16 63t-31.5 47.5
t-54.5 29.5q-19 5 -38 7t-38 2q-20 0 -39.5 -2t-39.5 -7q-35 -10 -55.5 -29.5t-31.5 -47.5t-15.5 -63t-7.5 -75q-2 -18 -3 -40.5t-2 -46.5t-1 -47v-42v-42t1 -47t2 -46.5t3 -40.5q3 -41 7.5 -75.5t15.5 -62.5t31.5 -47.5t55.5 -29.5q20 -5 39 -7t39 -2t39 2t38 7
q34 10 54.5 29.5t31.5 47.5t16 62.5t8 75.5q1 18 2 40.5t2 46.5t1.5 47t0.5 42zM600 987q0 -30 -11.5 -53t-31 -38.5t-45.5 -24t-54 -8.5q-44 0 -69 13.5t-43 30t-35 30.5t-44 14q-31 0 -35 -28q-1 -9 1 -15.5t5 -11.5t6 -9.5t3 -9.5q0 -12 -11 -12q-9 0 -12.5 8.5
t-3.5 16.5v10q0 30 11.5 52.5t31 38.5t45 24t54.5 8q43 0 68.5 -13.5t43.5 -30t35 -30t44 -13.5q14 0 24.5 8.5t10.5 23.5q0 16 -7.5 24.5t-7.5 17.5q0 12 12 12q8 0 11.5 -8.5t3.5 -16.5v-10v0z" />
    <glyph glyph-name="uni1EE1" unicode="&#x1ee1;" 
d="M786 400q0 -74 -22 -140t-61 -119t-92.5 -90t-116.5 -52q-38 -9 -78 -9q-42 0 -79 9q-63 15 -116.5 52t-92.5 90t-61 119t-22 140q0 73 22 139.5t61 119.5t92.5 90t115.5 52q40 9 80 9t78 -9q48 -12 91.5 -37t78.5 -60q20 -1 35 4t22 15q7 9 5.5 20t-6.5 22t-11.5 21
t-9.5 19q-6 16 -8 37.5t16 48.5q13 18 29 26.5t32 10.5t32 -2.5t29 -13.5q18 -14 27 -31t10 -35.5t-5.5 -37t-18.5 -35.5q-25 -35 -68 -60.5t-98 -21.5q51 -56 80.5 -130.5t29.5 -160.5zM609 400q0 19 -0.5 42t-1.5 47t-2 46.5t-2 40.5q-3 40 -8 75t-16 63t-31.5 47.5
t-54.5 29.5q-19 5 -38 7t-38 2q-20 0 -39.5 -2t-39.5 -7q-35 -10 -55.5 -29.5t-31.5 -47.5t-15.5 -63t-7.5 -75q-2 -18 -3 -40.5t-2 -46.5t-1 -47v-42v-42t1 -47t2 -46.5t3 -40.5q3 -41 7.5 -75.5t15.5 -62.5t31.5 -47.5t55.5 -29.5q20 -5 39 -7t39 -2t39 2t38 7
q34 10 54.5 29.5t31.5 47.5t16 62.5t8 75.5q1 18 2 40.5t2 46.5t1.5 47t0.5 42zM600 987q0 -30 -11.5 -53t-31 -38.5t-45.5 -24t-54 -8.5q-44 0 -69 13.5t-43 30t-35 30.5t-44 14q-31 0 -35 -28q-1 -9 1 -15.5t5 -11.5t6 -9.5t3 -9.5q0 -12 -11 -12q-9 0 -12.5 8.5
t-3.5 16.5v10q0 30 11.5 52.5t31 38.5t45 24t54.5 8q43 0 68.5 -13.5t43.5 -30t35 -30t44 -13.5q14 0 24.5 8.5t10.5 23.5q0 16 -7.5 24.5t-7.5 17.5q0 12 12 12q8 0 11.5 -8.5t3.5 -16.5v-10v0z" />
    <glyph glyph-name="uni1EE2" unicode="&#x1ee2;" 
d="M786 400q0 -74 -22 -140t-61 -119t-92.5 -90t-116.5 -52q-38 -9 -78 -9q-42 0 -79 9q-63 15 -116.5 52t-92.5 90t-61 119t-22 140q0 73 22 139.5t61 119.5t92.5 90t115.5 52q40 9 80 9t78 -9q48 -12 91.5 -37t78.5 -60q20 -1 35 4t22 15q7 9 5.5 20t-6.5 22t-11.5 21
t-9.5 19q-6 16 -8 37.5t16 48.5q13 18 29 26.5t32 10.5t32 -2.5t29 -13.5q18 -14 27 -31t10 -35.5t-5.5 -37t-18.5 -35.5q-25 -35 -68 -60.5t-98 -21.5q51 -56 80.5 -130.5t29.5 -160.5zM609 400q0 19 -0.5 42t-1.5 47t-2 46.5t-2 40.5q-3 40 -8 75t-16 63t-31.5 47.5
t-54.5 29.5q-19 5 -38 7t-38 2q-20 0 -39.5 -2t-39.5 -7q-35 -10 -55.5 -29.5t-31.5 -47.5t-15.5 -63t-7.5 -75q-2 -18 -3 -40.5t-2 -46.5t-1 -47v-42v-42t1 -47t2 -46.5t3 -40.5q3 -41 7.5 -75.5t15.5 -62.5t31.5 -47.5t55.5 -29.5q20 -5 39 -7t39 -2t39 2t38 7
q34 10 54.5 29.5t31.5 47.5t16 62.5t8 75.5q1 18 2 40.5t2 46.5t1.5 47t0.5 42zM487 -162q0 -30 -21 -51t-51 -21q-29 0 -50.5 21t-21.5 51t21.5 51t50.5 21q30 0 51 -21t21 -51z" />
    <glyph glyph-name="uni1EE3" unicode="&#x1ee3;" 
d="M786 400q0 -74 -22 -140t-61 -119t-92.5 -90t-116.5 -52q-38 -9 -78 -9q-42 0 -79 9q-63 15 -116.5 52t-92.5 90t-61 119t-22 140q0 73 22 139.5t61 119.5t92.5 90t115.5 52q40 9 80 9t78 -9q48 -12 91.5 -37t78.5 -60q20 -1 35 4t22 15q7 9 5.5 20t-6.5 22t-11.5 21
t-9.5 19q-6 16 -8 37.5t16 48.5q13 18 29 26.5t32 10.5t32 -2.5t29 -13.5q18 -14 27 -31t10 -35.5t-5.5 -37t-18.5 -35.5q-25 -35 -68 -60.5t-98 -21.5q51 -56 80.5 -130.5t29.5 -160.5zM609 400q0 19 -0.5 42t-1.5 47t-2 46.5t-2 40.5q-3 40 -8 75t-16 63t-31.5 47.5
t-54.5 29.5q-19 5 -38 7t-38 2q-20 0 -39.5 -2t-39.5 -7q-35 -10 -55.5 -29.5t-31.5 -47.5t-15.5 -63t-7.5 -75q-2 -18 -3 -40.5t-2 -46.5t-1 -47v-42v-42t1 -47t2 -46.5t3 -40.5q3 -41 7.5 -75.5t15.5 -62.5t31.5 -47.5t55.5 -29.5q20 -5 39 -7t39 -2t39 2t38 7
q34 10 54.5 29.5t31.5 47.5t16 62.5t8 75.5q1 18 2 40.5t2 46.5t1.5 47t0.5 42zM487 -162q0 -30 -21 -51t-51 -21q-29 0 -50.5 21t-21.5 51t21.5 51t50.5 21q30 0 51 -21t21 -51z" />
    <glyph glyph-name="uni1EE4" unicode="&#x1ee4;" horiz-adv-x="800" 
d="M676 790v-581q0 -66 -33.5 -112.5t-87.5 -72.5q-8 -4 -16.5 -7.5t-17.5 -6.5q-58 -20 -120 -20q-52 0 -101.5 13.5t-88.5 41t-62.5 68.5t-23.5 97v580h-145v10h430v-10h-125v-620q0 -41 13 -72t35.5 -51t52 -30t61.5 -10q39 0 72 13q8 2 15.5 5.5t15.5 7.5q24 12 45 29
t36.5 39t25 49t9.5 58v582h-146v10h300v-10h-144zM473 -162q0 -30 -21 -51t-51 -21q-29 0 -50.5 21t-21.5 51t21.5 51t50.5 21q30 0 51 -21t21 -51z" />
    <glyph glyph-name="uni1EE5" unicode="&#x1ee5;" horiz-adv-x="910" 
d="M605 0v203q-4 -9 -5 -18q-14 -47 -43 -83.5t-66 -61t-77.5 -37.5t-77.5 -13q-38 0 -72.5 11.5t-61 35.5t-42 60t-15.5 86v607h-145v10h305v-598q0 -36 10 -62.5t27 -43.5t39.5 -25.5t46.5 -8.5q55 0 89.5 25.5t54 59.5t26.5 69t7 53v521h-125v10h285v-790h145v-10h-305z
M527 -162q0 -30 -21 -51t-51 -21q-29 0 -50.5 21t-21.5 51t21.5 51t50.5 21q30 0 51 -21t21 -51z" />
    <glyph glyph-name="uni1EE6" unicode="&#x1ee6;" horiz-adv-x="800" 
d="M676 790v-581q0 -66 -33.5 -112.5t-87.5 -72.5q-8 -4 -16.5 -7.5t-17.5 -6.5q-58 -20 -120 -20q-52 0 -101.5 13.5t-88.5 41t-62.5 68.5t-23.5 97v580h-145v10h430v-10h-125v-620q0 -41 13 -72t35.5 -51t52 -30t61.5 -10q39 0 72 13q8 2 15.5 5.5t15.5 7.5q24 12 45 29
t36.5 39t25 49t9.5 58v582h-146v10h300v-10h-144zM366 1073q5 18 17.5 28.5t28.5 16t33.5 6.5t32.5 -2q29 -5 46.5 -18.5t25.5 -31.5t9 -38t-3 -38q-7 -27 -23.5 -41.5t-34 -23.5t-33 -18t-19.5 -26q-2 -8 2.5 -16t18.5 -10q14 -1 23 2.5t16 2.5q5 -1 9 -3t2 -6
q-4 -6 -11.5 -7.5t-14.5 -0.5l-9 1q-25 4 -43 14t-28.5 24.5t-14 31.5t0.5 35q7 27 24.5 43t36.5 26.5t34 19t17 20.5q1 6 -1.5 18.5t-16.5 20.5q-9 4 -17 3t-13.5 -4.5t-9 -9t-3.5 -10.5t2.5 -8t2.5 -5q2 -14 -11 -28t-38 -11q-25 2 -33 16.5t-5 26.5z" />
    <glyph glyph-name="uni1EE7" unicode="&#x1ee7;" horiz-adv-x="910" 
d="M605 0v203q-4 -9 -5 -18q-14 -47 -43 -83.5t-66 -61t-77.5 -37.5t-77.5 -13q-38 0 -72.5 11.5t-61 35.5t-42 60t-15.5 86v607h-145v10h305v-598q0 -36 10 -62.5t27 -43.5t39.5 -25.5t46.5 -8.5q55 0 89.5 25.5t54 59.5t26.5 69t7 53v521h-125v10h285v-790h145v-10h-305z
M363 1082q5 18 17.5 28.5t28.5 16t33.5 6.5t32.5 -2q29 -5 46.5 -18.5t25.5 -31.5t9 -38t-3 -38q-7 -27 -23.5 -41.5t-34 -23.5t-33 -18t-19.5 -26q-2 -8 2.5 -16t18.5 -10q14 -1 23 2.5t16 2.5q5 -1 9 -3t2 -6q-4 -6 -11.5 -7.5t-14.5 -0.5l-9 1q-25 4 -43 14t-28.5 24.5
t-14 31.5t0.5 35q7 27 24.5 43t36.5 26.5t34 19t17 20.5q1 6 -1.5 18.5t-16.5 20.5q-9 4 -17 3t-13.5 -4.5t-9 -9t-3.5 -10.5t2.5 -8t2.5 -5q2 -14 -11 -28t-38 -11q-25 2 -33 16.5t-5 26.5z" />
    <glyph glyph-name="uni1EE8" unicode="&#x1ee8;" horiz-adv-x="800" 
d="M676 790v-86q32 2 45 19q7 9 5.5 20t-6.5 22t-11.5 21t-9.5 19q-6 16 -8 37.5t16 48.5q13 18 29 26.5t32 10.5t32 -2.5t29 -13.5q18 -14 27 -31t10 -35.5t-5.5 -37t-18.5 -35.5q-12 -18 -29.5 -33.5t-39 -27t-46 -17.5t-51.5 -4v-482q0 -66 -33.5 -112.5t-87.5 -72.5
q-8 -4 -16.5 -7.5t-17.5 -6.5q-58 -20 -120 -20q-52 0 -101.5 13.5t-88.5 41t-62.5 68.5t-23.5 97v580h-145v10h430v-10h-125v-620q0 -41 13 -72t35.5 -51t52 -30t61.5 -10q39 0 72 13q8 2 15.5 5.5t15.5 7.5q24 12 45 29t36.5 39t25 49t9.5 58v582h-146v10h174l5 -10h-23z
M535 960q0 -26 -10.5 -45.5t-28 -33t-39.5 -20.5t-45 -7q-34 0 -71 13t-63 36q-11 9 -11 19q0 5 3.5 7.5t7.5 2.5q10 0 12 -11q4 -30 35 -30q24 0 34 17t17 42q4 15 9 30.5t14 28t22 20.5t34 8q34 0 57 -21t23 -56z" />
    <glyph glyph-name="uni1EE9" unicode="&#x1ee9;" horiz-adv-x="910" 
d="M605 0v203q-4 -9 -5 -18q-14 -47 -43 -83.5t-66 -61t-77.5 -37.5t-77.5 -13q-38 0 -72.5 11.5t-61 35.5t-42 60t-15.5 86v607h-145v10h305v-598q0 -36 10 -62.5t27 -43.5t39.5 -25.5t46.5 -8.5q55 0 89.5 25.5t54 59.5t26.5 69t7 53v521h-125v10h285v-96q20 -1 35.5 4
t22.5 15q7 9 5.5 20t-6.5 22t-11.5 21t-9.5 19q-6 16 -8 37.5t16 48.5q13 18 29 26.5t32 10.5t32 -2.5t29 -13.5q18 -14 27 -31t10 -35.5t-5.5 -37t-18.5 -35.5q-13 -19 -31.5 -35.5t-41.5 -28t-50 -16.5t-56 0v-683h145v-10h-305zM575 960q0 -26 -10.5 -45.5t-28 -33
t-39.5 -20.5t-45 -7q-34 0 -71 13t-63 36q-11 9 -11 19q0 5 3.5 7.5t7.5 2.5q10 0 12 -11q4 -30 35 -30q24 0 34 17t17 42q4 15 9 30.5t14 28t22 20.5t34 8q34 0 57 -21t23 -56z" />
    <glyph glyph-name="uni1EEA" unicode="&#x1eea;" horiz-adv-x="800" 
d="M676 790v-86q32 2 45 19q7 9 5.5 20t-6.5 22t-11.5 21t-9.5 19q-6 16 -8 37.5t16 48.5q13 18 29 26.5t32 10.5t32 -2.5t29 -13.5q18 -14 27 -31t10 -35.5t-5.5 -37t-18.5 -35.5q-12 -18 -29.5 -33.5t-39 -27t-46 -17.5t-51.5 -4v-482q0 -66 -33.5 -112.5t-87.5 -72.5
q-8 -4 -16.5 -7.5t-17.5 -6.5q-58 -20 -120 -20q-52 0 -101.5 13.5t-88.5 41t-62.5 68.5t-23.5 97v580h-145v10h430v-10h-125v-620q0 -41 13 -72t35.5 -51t52 -30t61.5 -10q39 0 72 13q8 2 15.5 5.5t15.5 7.5q24 12 45 29t36.5 39t25 49t9.5 58v582h-146v10h174l5 -10h-23z
M535 913q0 -10 -11 -19q-26 -23 -63 -36t-71 -13q-23 0 -45 7t-39.5 20.5t-28 33t-10.5 45.5q0 35 23 56t57 21q21 0 34.5 -8t21.5 -20.5t13 -28t10 -30.5q7 -25 17 -42t34 -17q30 0 35 30q2 11 12 11q4 0 7.5 -2.5t3.5 -7.5z" />
    <glyph glyph-name="uni1EEB" unicode="&#x1eeb;" horiz-adv-x="910" 
d="M605 0v203q-4 -9 -5 -18q-14 -47 -43 -83.5t-66 -61t-77.5 -37.5t-77.5 -13q-38 0 -72.5 11.5t-61 35.5t-42 60t-15.5 86v607h-145v10h305v-598q0 -36 10 -62.5t27 -43.5t39.5 -25.5t46.5 -8.5q55 0 89.5 25.5t54 59.5t26.5 69t7 53v521h-125v10h285v-96q20 -1 35.5 4
t22.5 15q7 9 5.5 20t-6.5 22t-11.5 21t-9.5 19q-6 16 -8 37.5t16 48.5q13 18 29 26.5t32 10.5t32 -2.5t29 -13.5q18 -14 27 -31t10 -35.5t-5.5 -37t-18.5 -35.5q-13 -19 -31.5 -35.5t-41.5 -28t-50 -16.5t-56 0v-683h145v-10h-305zM585 922q0 -10 -11 -19q-26 -23 -63 -36
t-71 -13q-23 0 -45 7t-39.5 20.5t-28 33t-10.5 45.5q0 35 23 56t57 21q21 0 34.5 -8t21.5 -20.5t13 -28t10 -30.5q7 -25 17 -42t34 -17q30 0 35 30q2 11 12 11q4 0 7.5 -2.5t3.5 -7.5z" />
    <glyph glyph-name="uni1EEC" unicode="&#x1eec;" horiz-adv-x="800" 
d="M676 790v-86q32 2 45 19q7 9 5.5 20t-6.5 22t-11.5 21t-9.5 19q-6 16 -8 37.5t16 48.5q13 18 29 26.5t32 10.5t32 -2.5t29 -13.5q18 -14 27 -31t10 -35.5t-5.5 -37t-18.5 -35.5q-12 -18 -29.5 -33.5t-39 -27t-46 -17.5t-51.5 -4v-482q0 -66 -33.5 -112.5t-87.5 -72.5
q-8 -4 -16.5 -7.5t-17.5 -6.5q-58 -20 -120 -20q-52 0 -101.5 13.5t-88.5 41t-62.5 68.5t-23.5 97v580h-145v10h430v-10h-125v-620q0 -41 13 -72t35.5 -51t52 -30t61.5 -10q39 0 72 13q8 2 15.5 5.5t15.5 7.5q24 12 45 29t36.5 39t25 49t9.5 58v582h-146v10h174l5 -10h-23z
M366 1073q5 18 17.5 28.5t28.5 16t33.5 6.5t32.5 -2q29 -5 46.5 -18.5t25.5 -31.5t9 -38t-3 -38q-7 -27 -23.5 -41.5t-34 -23.5t-33 -18t-19.5 -26q-2 -8 2.5 -16t18.5 -10q14 -1 23 2.5t16 2.5q5 -1 9 -3t2 -6q-4 -6 -11.5 -7.5t-14.5 -0.5l-9 1q-25 4 -43 14t-28.5 24.5
t-14 31.5t0.5 35q7 27 24.5 43t36.5 26.5t34 19t17 20.5q1 6 -1.5 18.5t-16.5 20.5q-9 4 -17 3t-13.5 -4.5t-9 -9t-3.5 -10.5t2.5 -8t2.5 -5q2 -14 -11 -28t-38 -11q-25 2 -33 16.5t-5 26.5z" />
    <glyph glyph-name="uni1EED" unicode="&#x1eed;" horiz-adv-x="910" 
d="M605 0v203q-4 -9 -5 -18q-14 -47 -43 -83.5t-66 -61t-77.5 -37.5t-77.5 -13q-38 0 -72.5 11.5t-61 35.5t-42 60t-15.5 86v607h-145v10h305v-598q0 -36 10 -62.5t27 -43.5t39.5 -25.5t46.5 -8.5q55 0 89.5 25.5t54 59.5t26.5 69t7 53v521h-125v10h285v-96q20 -1 35.5 4
t22.5 15q7 9 5.5 20t-6.5 22t-11.5 21t-9.5 19q-6 16 -8 37.5t16 48.5q13 18 29 26.5t32 10.5t32 -2.5t29 -13.5q18 -14 27 -31t10 -35.5t-5.5 -37t-18.5 -35.5q-13 -19 -31.5 -35.5t-41.5 -28t-50 -16.5t-56 0v-683h145v-10h-305zM363 1082q5 18 17.5 28.5t28.5 16
t33.5 6.5t32.5 -2q29 -5 46.5 -18.5t25.5 -31.5t9 -38t-3 -38q-7 -27 -23.5 -41.5t-34 -23.5t-33 -18t-19.5 -26q-2 -8 2.5 -16t18.5 -10q14 -1 23 2.5t16 2.5q5 -1 9 -3t2 -6q-4 -6 -11.5 -7.5t-14.5 -0.5l-9 1q-25 4 -43 14t-28.5 24.5t-14 31.5t0.5 35q7 27 24.5 43
t36.5 26.5t34 19t17 20.5q1 6 -1.5 18.5t-16.5 20.5q-9 4 -17 3t-13.5 -4.5t-9 -9t-3.5 -10.5t2.5 -8t2.5 -5q2 -14 -11 -28t-38 -11q-25 2 -33 16.5t-5 26.5z" />
    <glyph glyph-name="uni1EEE" unicode="&#x1eee;" horiz-adv-x="800" 
d="M676 790v-86q32 2 45 19q7 9 5.5 20t-6.5 22t-11.5 21t-9.5 19q-6 16 -8 37.5t16 48.5q13 18 29 26.5t32 10.5t32 -2.5t29 -13.5q18 -14 27 -31t10 -35.5t-5.5 -37t-18.5 -35.5q-12 -18 -29.5 -33.5t-39 -27t-46 -17.5t-51.5 -4v-482q0 -66 -33.5 -112.5t-87.5 -72.5
q-8 -4 -16.5 -7.5t-17.5 -6.5q-58 -20 -120 -20q-52 0 -101.5 13.5t-88.5 41t-62.5 68.5t-23.5 97v580h-145v10h430v-10h-125v-620q0 -41 13 -72t35.5 -51t52 -30t61.5 -10q39 0 72 13q8 2 15.5 5.5t15.5 7.5q24 12 45 29t36.5 39t25 49t9.5 58v582h-146v10h174l5 -10h-23z
M643 978q0 -30 -11.5 -53t-31 -38.5t-45.5 -24t-54 -8.5q-44 0 -69 13.5t-43 30t-35 30.5t-44 14q-31 0 -35 -28q-1 -9 1 -15.5t5 -11.5t6 -9.5t3 -9.5q0 -12 -11 -12q-9 0 -12.5 8.5t-3.5 16.5v10q0 30 11.5 52.5t31 38.5t45 24t54.5 8q43 0 68.5 -13.5t43.5 -30t35 -30
t44 -13.5q14 0 24.5 8.5t10.5 23.5q0 16 -7.5 24.5t-7.5 17.5q0 12 12 12q8 0 11.5 -8.5t3.5 -16.5v-10v0z" />
    <glyph glyph-name="uni1EEF" unicode="&#x1eef;" horiz-adv-x="910" 
d="M605 0v203q-4 -9 -5 -18q-14 -47 -43 -83.5t-66 -61t-77.5 -37.5t-77.5 -13q-38 0 -72.5 11.5t-61 35.5t-42 60t-15.5 86v607h-145v10h305v-598q0 -36 10 -62.5t27 -43.5t39.5 -25.5t46.5 -8.5q55 0 89.5 25.5t54 59.5t26.5 69t7 53v521h-125v10h285v-96q20 -1 35.5 4
t22.5 15q7 9 5.5 20t-6.5 22t-11.5 21t-9.5 19q-6 16 -8 37.5t16 48.5q13 18 29 26.5t32 10.5t32 -2.5t29 -13.5q18 -14 27 -31t10 -35.5t-5.5 -37t-18.5 -35.5q-13 -19 -31.5 -35.5t-41.5 -28t-50 -16.5t-56 0v-683h145v-10h-305zM645 987q0 -30 -11.5 -53t-31 -38.5
t-45.5 -24t-54 -8.5q-44 0 -69 13.5t-43 30t-35 30.5t-44 14q-31 0 -35 -28q-1 -9 1 -15.5t5 -11.5t6 -9.5t3 -9.5q0 -12 -11 -12q-9 0 -12.5 8.5t-3.5 16.5v10q0 30 11.5 52.5t31 38.5t45 24t54.5 8q43 0 68.5 -13.5t43.5 -30t35 -30t44 -13.5q14 0 24.5 8.5t10.5 23.5
q0 16 -7.5 24.5t-7.5 17.5q0 12 12 12q8 0 11.5 -8.5t3.5 -16.5v-10v0z" />
    <glyph glyph-name="uni1EF0" unicode="&#x1ef0;" horiz-adv-x="800" 
d="M676 790v-86q32 2 45 19q7 9 5.5 20t-6.5 22t-11.5 21t-9.5 19q-6 16 -8 37.5t16 48.5q13 18 29 26.5t32 10.5t32 -2.5t29 -13.5q18 -14 27 -31t10 -35.5t-5.5 -37t-18.5 -35.5q-12 -18 -29.5 -33.5t-39 -27t-46 -17.5t-51.5 -4v-482q0 -66 -33.5 -112.5t-87.5 -72.5
q-8 -4 -16.5 -7.5t-17.5 -6.5q-58 -20 -120 -20q-52 0 -101.5 13.5t-88.5 41t-62.5 68.5t-23.5 97v580h-145v10h430v-10h-125v-620q0 -41 13 -72t35.5 -51t52 -30t61.5 -10q39 0 72 13q8 2 15.5 5.5t15.5 7.5q24 12 45 29t36.5 39t25 49t9.5 58v582h-146v10h174l5 -10h-23z
M473 -162q0 -30 -21 -51t-51 -21q-29 0 -50.5 21t-21.5 51t21.5 51t50.5 21q30 0 51 -21t21 -51z" />
    <glyph glyph-name="uni1EF1" unicode="&#x1ef1;" horiz-adv-x="910" 
d="M605 0v203q-4 -9 -5 -18q-14 -47 -43 -83.5t-66 -61t-77.5 -37.5t-77.5 -13q-38 0 -72.5 11.5t-61 35.5t-42 60t-15.5 86v607h-145v10h305v-598q0 -36 10 -62.5t27 -43.5t39.5 -25.5t46.5 -8.5q55 0 89.5 25.5t54 59.5t26.5 69t7 53v521h-125v10h285v-96q20 -1 35.5 4
t22.5 15q7 9 5.5 20t-6.5 22t-11.5 21t-9.5 19q-6 16 -8 37.5t16 48.5q13 18 29 26.5t32 10.5t32 -2.5t29 -13.5q18 -14 27 -31t10 -35.5t-5.5 -37t-18.5 -35.5q-13 -19 -31.5 -35.5t-41.5 -28t-50 -16.5t-56 0v-683h145v-10h-305zM527 -162q0 -30 -21 -51t-51 -21
q-29 0 -50.5 21t-21.5 51t21.5 51t50.5 21q30 0 51 -21t21 -51z" />
    <glyph glyph-name="Ygrave" unicode="&#x1ef2;" horiz-adv-x="753" 
d="M668 790l-209 -417v-363h145v-10h-450v10h145v354l-214 426h-145v10h434v-10h-125l204 -407l204 407h-127v10h283v-10h-145zM512 913q0 -10 -11 -19q-26 -23 -63 -36t-71 -13q-23 0 -45 7t-39.5 20.5t-28 33t-10.5 45.5q0 35 23 56t57 21q21 0 34.5 -8t21.5 -20.5t13 -28
t10 -30.5q7 -25 17 -42t34 -17q30 0 35 30q2 11 12 11q4 0 7.5 -2.5t3.5 -7.5z" />
    <glyph glyph-name="ygrave" unicode="&#x1ef3;" horiz-adv-x="783" 
d="M698 790l-301 -683q-12 -28 -32 -49.5t-43.5 -36.5t-48.5 -23t-46 -8q-35 0 -65.5 11t-53 31t-35.5 49.5t-13 65.5q0 23 6 44t18 37t29 25.5t40 9.5q16 0 31.5 -5.5t27.5 -16.5t19.5 -27t7.5 -38q0 -18 -4 -30t-11.5 -20.5t-17.5 -16l-22 -16.5q-11 -8 -17 -16.5
t-6 -22.5q0 -29 19.5 -41.5t45.5 -12.5q21 0 44.5 7.5t45.5 21.5t41 34.5t30 47.5l15 32l-287 647h-145v10h434v-10h-126l205 -463l204 463h-127v10h283v-10h-145zM527 922q0 -10 -11 -19q-26 -23 -63 -36t-71 -13q-23 0 -45 7t-39.5 20.5t-28 33t-10.5 45.5q0 35 23 56
t57 21q21 0 34.5 -8t21.5 -20.5t13 -28t10 -30.5q7 -25 17 -42t34 -17q30 0 35 30q2 11 12 11q4 0 7.5 -2.5t3.5 -7.5z" />
    <glyph glyph-name="uni1EF4" unicode="&#x1ef4;" horiz-adv-x="753" 
d="M668 790l-209 -417v-363h145v-10h-450v10h145v354l-214 426h-145v10h434v-10h-125l204 -407l204 407h-127v10h283v-10h-145zM450 -162q0 -30 -21 -51t-51 -21q-29 0 -50.5 21t-21.5 51t21.5 51t50.5 21q30 0 51 -21t21 -51z" />
    <glyph glyph-name="uni1EF5" unicode="&#x1ef5;" horiz-adv-x="783" 
d="M698 790l-301 -683q-12 -28 -32 -49.5t-43.5 -36.5t-48.5 -23t-46 -8q-35 0 -65.5 11t-53 31t-35.5 49.5t-13 65.5q0 23 6 44t18 37t29 25.5t40 9.5q16 0 31.5 -5.5t27.5 -16.5t19.5 -27t7.5 -38q0 -18 -4 -30t-11.5 -20.5t-17.5 -16l-22 -16.5q-11 -8 -17 -16.5
t-6 -22.5q0 -29 19.5 -41.5t45.5 -12.5q21 0 44.5 7.5t45.5 21.5t41 34.5t30 47.5l15 32l-287 647h-145v10h434v-10h-126l205 -463l204 463h-127v10h283v-10h-145zM465 -162q0 -30 -21 -51t-51 -21q-29 0 -50.5 21t-21.5 51t21.5 51t50.5 21q30 0 51 -21t21 -51z" />
    <glyph glyph-name="uni1EF6" unicode="&#x1ef6;" horiz-adv-x="753" 
d="M668 790l-209 -417v-363h145v-10h-450v10h145v354l-214 426h-145v10h434v-10h-125l204 -407l204 407h-127v10h283v-10h-145zM285 1073q5 18 17.5 28.5t28.5 16t33.5 6.5t32.5 -2q29 -5 46.5 -18.5t25.5 -31.5t9 -38t-3 -38q-7 -27 -23.5 -41.5t-34 -23.5t-33 -18
t-19.5 -26q-2 -8 2.5 -16t18.5 -10q14 -1 23 2.5t16 2.5q5 -1 9 -3t2 -6q-4 -6 -11.5 -7.5t-14.5 -0.5l-9 1q-25 4 -43 14t-28.5 24.5t-14 31.5t0.5 35q7 27 24.5 43t36.5 26.5t34 19t17 20.5q1 6 -1.5 18.5t-16.5 20.5q-9 4 -17 3t-13.5 -4.5t-9 -9t-3.5 -10.5t2.5 -8
t2.5 -5q2 -14 -11 -28t-38 -11q-25 2 -33 16.5t-5 26.5z" />
    <glyph glyph-name="uni1EF7" unicode="&#x1ef7;" horiz-adv-x="783" 
d="M698 790l-301 -683q-12 -28 -32 -49.5t-43.5 -36.5t-48.5 -23t-46 -8q-35 0 -65.5 11t-53 31t-35.5 49.5t-13 65.5q0 23 6 44t18 37t29 25.5t40 9.5q16 0 31.5 -5.5t27.5 -16.5t19.5 -27t7.5 -38q0 -18 -4 -30t-11.5 -20.5t-17.5 -16l-22 -16.5q-11 -8 -17 -16.5
t-6 -22.5q0 -29 19.5 -41.5t45.5 -12.5q21 0 44.5 7.5t45.5 21.5t41 34.5t30 47.5l15 32l-287 647h-145v10h434v-10h-126l205 -463l204 463h-127v10h283v-10h-145zM300 1082q5 18 17.5 28.5t28.5 16t33.5 6.5t32.5 -2q29 -5 46.5 -18.5t25.5 -31.5t9 -38t-3 -38
q-7 -27 -23.5 -41.5t-34 -23.5t-33 -18t-19.5 -26q-2 -8 2.5 -16t18.5 -10q14 -1 23 2.5t16 2.5q5 -1 9 -3t2 -6q-4 -6 -11.5 -7.5t-14.5 -0.5l-9 1q-25 4 -43 14t-28.5 24.5t-14 31.5t0.5 35q7 27 24.5 43t36.5 26.5t34 19t17 20.5q1 6 -1.5 18.5t-16.5 20.5q-9 4 -17 3
t-13.5 -4.5t-9 -9t-3.5 -10.5t2.5 -8t2.5 -5q2 -14 -11 -28t-38 -11q-25 2 -33 16.5t-5 26.5z" />
    <glyph glyph-name="uni1EF8" unicode="&#x1ef8;" horiz-adv-x="753" 
d="M668 790l-209 -417v-363h145v-10h-450v10h145v354l-214 426h-145v10h434v-10h-125l204 -407l204 407h-127v10h283v-10h-145zM568 978q0 -30 -11.5 -53t-31 -38.5t-45.5 -24t-54 -8.5q-44 0 -69 13.5t-43 30t-35 30.5t-44 14q-31 0 -35 -28q-1 -9 1 -15.5t5 -11.5t6 -9.5
t3 -9.5q0 -12 -11 -12q-9 0 -12.5 8.5t-3.5 16.5v10q0 30 11.5 52.5t31 38.5t45 24t54.5 8q43 0 68.5 -13.5t43.5 -30t35 -30t44 -13.5q14 0 24.5 8.5t10.5 23.5q0 16 -7.5 24.5t-7.5 17.5q0 12 12 12q8 0 11.5 -8.5t3.5 -16.5v-10v0z" />
    <glyph glyph-name="uni1EF9" unicode="&#x1ef9;" horiz-adv-x="783" 
d="M698 790l-301 -683q-12 -28 -32 -49.5t-43.5 -36.5t-48.5 -23t-46 -8q-35 0 -65.5 11t-53 31t-35.5 49.5t-13 65.5q0 23 6 44t18 37t29 25.5t40 9.5q16 0 31.5 -5.5t27.5 -16.5t19.5 -27t7.5 -38q0 -18 -4 -30t-11.5 -20.5t-17.5 -16l-22 -16.5q-11 -8 -17 -16.5
t-6 -22.5q0 -29 19.5 -41.5t45.5 -12.5q21 0 44.5 7.5t45.5 21.5t41 34.5t30 47.5l15 32l-287 647h-145v10h434v-10h-126l205 -463l204 463h-127v10h283v-10h-145zM583 987q0 -30 -11.5 -53t-31 -38.5t-45.5 -24t-54 -8.5q-44 0 -69 13.5t-43 30t-35 30.5t-44 14
q-31 0 -35 -28q-1 -9 1 -15.5t5 -11.5t6 -9.5t3 -9.5q0 -12 -11 -12q-9 0 -12.5 8.5t-3.5 16.5v10q0 30 11.5 52.5t31 38.5t45 24t54.5 8q43 0 68.5 -13.5t43.5 -30t35 -30t44 -13.5q14 0 24.5 8.5t10.5 23.5q0 16 -7.5 24.5t-7.5 17.5q0 12 12 12q8 0 11.5 -8.5t3.5 -16.5
v-10v0z" />
    <glyph glyph-name="endash" unicode="&#x2013;" horiz-adv-x="560" 
d="M30 275v110h500v-110h-500z" />
    <glyph glyph-name="emdash" unicode="&#x2014;" horiz-adv-x="1060" 
d="M30 275v110h1000v-110h-1000z" />
    <glyph glyph-name="quoteleft" unicode="&#x2018;" horiz-adv-x="298" 
d="M238 624q0 -22 -7.5 -38t-19.5 -27t-27.5 -16.5t-31.5 -5.5q-46 0 -69 31.5t-23 73.5q0 29 8 58t27 53t51.5 39.5t81.5 17.5v-9q-38 0 -53 -17.5t-15 -37.5q0 -11 2.5 -18t7 -12t11 -8.5t14.5 -8.5q14 -9 28.5 -26t14.5 -49z" />
    <glyph glyph-name="quoteright" unicode="&#x2019;" horiz-adv-x="298" 
d="M238 705q0 -28 -8 -57.5t-27 -53.5t-51.5 -40t-81.5 -17v9q38 0 53 17.5t15 37.5q0 22 -9.5 29.5t-25.5 17.5q-14 9 -28.5 26t-14.5 49q0 22 7.5 38t19.5 27t27.5 16.5t31.5 5.5q46 0 69 -31.5t23 -73.5z" />
    <glyph glyph-name="quotesinglbase" unicode="&#x201a;" horiz-adv-x="308" 
d="M228 63q0 -28 -8 -57.5t-27 -53.5t-51.5 -40t-81.5 -17v9q38 0 53 17.5t15 37.5q0 22 -9.5 29.5t-25.5 17.5q-14 9 -28.5 26t-14.5 49q0 22 7.5 38t19.5 27t27.5 16.5t31.5 5.5q46 0 69 -31.5t23 -73.5z" />
    <glyph glyph-name="quotedblleft" unicode="&#x201c;" horiz-adv-x="528" 
d="M468 624q0 -22 -7.5 -38t-19.5 -27t-27.5 -16.5t-31.5 -5.5q-46 0 -69 31.5t-23 73.5q0 29 8 58t27 53t51.5 39.5t81.5 17.5v-9q-38 0 -53 -17.5t-15 -37.5q0 -11 2.5 -18t7 -12t11 -8.5t14.5 -8.5q14 -9 28.5 -26t14.5 -49zM238 624q0 -22 -7.5 -38t-19.5 -27
t-27.5 -16.5t-31.5 -5.5q-46 0 -69 31.5t-23 73.5q0 29 8 58t27 53t51.5 39.5t81.5 17.5v-9q-38 0 -53 -17.5t-15 -37.5q0 -11 2.5 -18t7 -12t11 -8.5t14.5 -8.5q14 -9 28.5 -26t14.5 -49z" />
    <glyph glyph-name="quotedblright" unicode="&#x201d;" horiz-adv-x="528" 
d="M468 705q0 -28 -8 -57.5t-27 -53.5t-51.5 -40t-81.5 -17v9q38 0 53 17.5t15 37.5q0 22 -9.5 29.5t-25.5 17.5q-14 9 -28.5 26t-14.5 49q0 22 7.5 38t19.5 27t27.5 16.5t31.5 5.5q46 0 69 -31.5t23 -73.5zM238 705q0 -28 -8 -57.5t-27 -53.5t-51.5 -40t-81.5 -17v9
q38 0 53 17.5t15 37.5q0 22 -9.5 29.5t-25.5 17.5q-14 9 -28.5 26t-14.5 49q0 22 7.5 38t19.5 27t27.5 16.5t31.5 5.5q46 0 69 -31.5t23 -73.5z" />
    <glyph glyph-name="quotedblbase" unicode="&#x201e;" horiz-adv-x="538" 
d="M458 63q0 -28 -8 -57.5t-27 -53.5t-51.5 -40t-81.5 -17v9q38 0 53 17.5t15 37.5q0 22 -9.5 29.5t-25.5 17.5q-14 9 -28.5 26t-14.5 49q0 22 7.5 38t19.5 27t27.5 16.5t31.5 5.5q46 0 69 -31.5t23 -73.5zM228 63q0 -28 -8 -57.5t-27 -53.5t-51.5 -40t-81.5 -17v9
q38 0 53 17.5t15 37.5q0 22 -9.5 29.5t-25.5 17.5q-14 9 -28.5 26t-14.5 49q0 22 7.5 38t19.5 27t27.5 16.5t31.5 5.5q46 0 69 -31.5t23 -73.5z" />
    <glyph glyph-name="dagger" unicode="&#x2020;" horiz-adv-x="560" 
d="M286 564v-564h-12v564h-224v12h224v224h12v-224h224v-12h-224z" />
    <glyph glyph-name="daggerdbl" unicode="&#x2021;" horiz-adv-x="560" 
d="M286 224v-224h-12v224h-224v12h224v328h-224v12h224v224h12v-224h224v-12h-224v-328h224v-12h-224z" />
    <glyph glyph-name="bullet" unicode="&#x2022;" horiz-adv-x="368" 
d="M338 400q0 -32 -12 -60t-33 -49t-49 -33t-60 -12t-60 12t-49 33t-33 49t-12 60t12 60t33 49t49 33t60 12t60 -12t49 -33t33 -49t12 -60z" />
    <glyph glyph-name="perthousand" unicode="&#x2030;" horiz-adv-x="1121" 
d="M1071 165q0 -35 -13.5 -66t-36.5 -54t-54 -36.5t-66 -13.5q-36 0 -67 13.5t-54 36.5t-36.5 54t-13.5 66q0 36 13.5 67t36.5 54t54 36.5t67 13.5q35 0 66 -13.5t54 -36.5t36.5 -54t13.5 -67zM346 634q0 -35 -13.5 -66t-36.5 -54t-54 -36.5t-66 -13.5q-36 0 -67 13.5
t-54 36.5t-36.5 54t-13.5 66q0 36 13.5 67t36.5 54t54 36.5t67 13.5q35 0 66 -13.5t54 -36.5t36.5 -54t13.5 -67zM71 -7l-8 6l545 808l9 -6zM671 165q0 -35 -13.5 -66t-36.5 -54t-54 -36.5t-66 -13.5q-36 0 -67 13.5t-54 36.5t-36.5 54t-13.5 66q0 36 13.5 67t36.5 54
t54 36.5t67 13.5q35 0 66 -13.5t54 -36.5t36.5 -54t13.5 -67z" />
    <glyph glyph-name="guilsinglleft" unicode="&#x2039;" horiz-adv-x="320" 
d="M273 205l-233 195l233 195l7 -9l-221 -186l221 -186z" />
    <glyph glyph-name="guilsinglright" unicode="&#x203a;" horiz-adv-x="320" 
d="M47 205l-7 9l221 186l-221 186l7 9l233 -195z" />
    <glyph glyph-name="trademark" unicode="&#x2122;" horiz-adv-x="1162" 
d="M838 316v10h87v440q-49 -144 -78.5 -231t-45.5 -134.5t-22 -64.5t-8 -20h-8l-154 445v-435h87v-10h-184v10h86v464h-86v10h189l113 -328l112 328h186v-10h-87v-464h87v-10h-274zM476 632q0 33 -10.5 62t-29 50t-45 33.5t-58.5 12.5h-15v-464h87v-10h-274v10h87v464h-15
q-32 0 -58.5 -12.5t-45.5 -33.5t-29.5 -50t-10.5 -62h-9v168h436v-168h-10z" />
    <glyph glyph-name="nonbreakingspace" horiz-adv-x="200" 
 />
  </font>
</defs>
</svg>
