<?xml version="1.0" standalone="no"?>
<!DOCTYPE svg PUBLIC "-//W3C//DTD SVG 1.1//EN" "http://www.w3.org/Graphics/SVG/1.1/DTD/svg11.dtd" >
<svg xmlns="http://www.w3.org/2000/svg" xmlns:xlink="http://www.w3.org/1999/xlink" version="1.1">
<metadata>
Created by FontForge 20170731 at Wed Jun  5 12:33:51 2013
 By Aleksey,,,
(c) Copyright 1999 JasonTucker. Published by GarageFonts USA 301-879-6955
</metadata>
<defs>
<font id="UVFRaptureHeavenly" horiz-adv-x="928" >
  <font-face 
    font-family="UVF Rapture Heavenly"
    font-weight="400"
    font-stretch="normal"
    units-per-em="1000"
    panose-1="0 0 4 0 0 0 0 0 0 0"
    ascent="800"
    descent="-200"
    x-height="393"
    cap-height="868"
    bbox="-195 -602 1225 997"
    underline-thickness="20"
    underline-position="-163"
    unicode-range="U+0020-F002"
  />
<missing-glyph horiz-adv-x="500" 
d="M63 0v800h375v-800h-375zM125 63h250v675h-250v-675z" />
    <glyph glyph-name=".notdef" horiz-adv-x="500" 
d="M63 0v800h375v-800h-375zM125 63h250v675h-250v-675z" />
    <glyph glyph-name=".null" horiz-adv-x="0" 
 />
    <glyph glyph-name="nonmarkingreturn" horiz-adv-x="300" 
 />
    <glyph glyph-name="space" unicode=" " horiz-adv-x="300" 
 />
    <glyph glyph-name="exclam" unicode="!" horiz-adv-x="180" 
d="M155 799l-35 -692h-22q1 9 1 15q0 36 -13 62.5t-33 31.5l-21 583h123zM126 35q0 -14 -10 -24t-24 -10t-23.5 10t-9.5 24q0 13 9.5 23t23.5 10t24 -10t10 -23z" />
    <glyph glyph-name="quotedbl" unicode="&#x22;" horiz-adv-x="230" 
d="M202 673h-22q1 8 1 15q0 36 -13 62.5t-33 30.5v18h67v-126zM97 673h-22q1 8 1 15q0 36 -13.5 62.5t-32.5 30.5v18h67v-126z" />
    <glyph glyph-name="numbersign" unicode="#" horiz-adv-x="602" 
d="M553 299q-8 1 -14 1q-36 0 -63 -13.5t-31 -32.5h-69v-146h-22q1 8 1 14q0 36 -13 63t-33 31v38h-77v-146h-22q1 8 1 14q0 36 -13 63t-33 31v38h-53q-46 0 -52 5q-10 9 -10 62h115v77h-53q-46 0 -52 5q-10 9 -10 62h115v84q0 46 6 52q8 10 61 10v-146h77v84q0 46 6 52
q8 10 61 10v-146h177v-22q-8 1 -14 1q-36 0 -63 -13.5t-31 -32.5h-69v-77h177v-22zM309 321v77h-77v-77h77z" />
    <glyph glyph-name="dollar" unicode="$" horiz-adv-x="592" 
d="M565 185q0 -92 -74.5 -153t-184.5 -68v-48l-21 1v46h-3h-3q-95 0 -167 63q-89 78 -86 217l12 -1q-3 -114 72 -189q70 -71 169 -71h3t2 1q0 406 1 225q0 80 -8 106.5t-36 34.5v63q-74 35 -139.5 80t-65.5 132q0 61 34 112q36 55 98 75q32 10 73 11v49q0 36 -57 68l6 10
l116 -34v-97q125 -20 179 -95h-1h1l-85 -86l-10 11q21 15 12 42q-3 8 -24 23h2q-35 21 -74 29v-256q123 -53 175 -101q84 -77 84 -200zM241 514v233q-49 -5 -80 -32q-32 -30 -32 -80q0 -68 112 -121zM538 184q0 156 -151 227q-15 6 -31 6q-34 0 -49 -32h-1v-402
q100 8 166 65t66 136z" />
    <glyph glyph-name="percent" unicode="%" horiz-adv-x="583" 
d="M303 671l-1 -7q-37 4 -50 -13l-12 -17q21 -34 19 -74q-3 -51 -37 -84.5t-80 -31.5q-30 2 -56 22q-5 -8 -21 -29l-10 6l22 31q-41 39 -38 98q3 51 37 84.5t80 31.5q32 -2 59 -24l22 30zM560 705q-65 -2 -82 -34l-164 -314q-7 2 -13 2q-32 0 -73 -72q-76 -147 -153 -293
l-22 3l388 743l119 -24v-11zM579 326l-1 -7q-38 5 -50 -13l-12 -16q21 -35 19 -75q-3 -50 -37 -84t-80 -31q-30 1 -56 21q-5 -7 -21 -29l-10 7l22 30q-41 39 -38 99q3 50 37 84t79 31q33 -2 59 -24l22 31zM204 650q-23 21 -49 21q-39 0 -59 -42q-13 -29 -13 -57q0 -8 3 -8
q-23 -3 -23 -23q0 -18 14 -40q4 -5 11 -12zM240 557q1 31 -13 60l-66 -91q-6 2 -11 2q-18 0 -53 -48q25 -22 51 -24q37 -3 64 26.5t28 74.5zM480 305q-23 22 -49 22q-39 0 -59 -43q-13 -28 -13 -57q0 -8 3 -7q-24 -3 -24 -24q0 -18 15 -39q4 -5 11 -13zM516 212q0 31 -13 60
l-66 -91q-6 2 -11 2q-18 0 -53 -47q25 -22 51 -25q37 -3 64 26.5t28 74.5z" />
    <glyph glyph-name="ampersand" unicode="&#x26;" horiz-adv-x="694" 
d="M694 0h-84q-7 12 -69 87q-41 -64 -117 -97q-62 -26 -126 -26q-118 0 -193.5 61.5t-75.5 160.5q0 120 73 194q48 49 154 97q-51 94 -51 151q0 109 76 158q72 47 141 6q76 -44 76 -164q0 -74 -39 -120q-30 -35 -106 -74q69 -114 193 -264q11 36 10 76h27q0 -56 -15 -102
q66 -79 126 -144zM433 628q0 53 -24 84q-21 27 -52 27q-32 0 -55 -28q-26 -31 -26 -83q0 -48 39 -125q58 26 84 50q34 32 34 75zM521 111q-150 181 -223 295l-18 -9q-12 24 -42 24q-57 0 -116 -68q-66 -75 -66 -167q0 -85 68 -138.5t178 -53.5q65 0 125 31t94 86z" />
    <glyph glyph-name="quotesingle" unicode="'" horiz-adv-x="135" 
d="M96 673h-22q1 9 1 15q0 36 -13 62.5t-33 30.5v18h67v-126z" />
    <glyph glyph-name="parenleft" unicode="(" horiz-adv-x="321" 
d="M274 733q-10 -4 -25 -15q-69 -52 -104 -150q-30 -85 -30 -187q0 -51 8 -98l2 -14q-26 -12 -26 -48q0 -41 31 -89q34 -52 85 -82v-26q-126 61 -160 246q-10 56 -10 116q0 116 38 214q42 111 124 173q12 9 55 27z" />
    <glyph glyph-name="parenright" unicode=")" horiz-adv-x="319" 
d="M265 270q-34 -185 -160 -246v26q51 30 85 82q31 48 31 89q0 36 -27 48l3 14q8 47 8 98q0 102 -30 187q-35 98 -104 150q-8 5 -25 15l12 67q29 -9 54 -27q83 -62 125 -173q38 -98 38 -214q0 -60 -10 -116z" />
    <glyph glyph-name="asterisk" unicode="*" horiz-adv-x="426" 
d="M376 300v-67h-76q-2 5 -13 9l69 -69l-48 -47l-53 54q2 7 -8 25v-102h-67v77l-55 -54l-47 47l75 76q-37 -6 -41 -16h-62v67h105q-25 16 -34 13l-43 44l47 47l55 -54v80h67v-88l61 62l48 -47l-57 -57h77z" />
    <glyph glyph-name="plus" unicode="+" horiz-adv-x="426" 
d="M376 232h-76q-5 13 -53 18v-147h-67v149q-61 -5 -68 -20h-62v68h130v129h67v-129h129v-68z" />
    <glyph glyph-name="comma" unicode="," horiz-adv-x="171" 
d="M119 68l-27 -126h-22v15q0 68 1 63q-2 27 -19 30v18h67z" />
    <glyph glyph-name="hyphen" unicode="-" horiz-adv-x="427" 
d="M376 232h-61q0 1 1 3q0 9 -28 15.5t-68 6.5q-39 0 -67 -6.5t-28 -15.5q0 -1 1 -3h-76v68h326v-68z" />
    <glyph glyph-name="hyphen" unicode="&#x2010;" horiz-adv-x="427" 
d="M376 232h-61q0 1 1 3q0 9 -28 15.5t-68 6.5q-39 0 -67 -6.5t-28 -15.5q0 -1 1 -3h-76v68h326v-68z" />
    <glyph glyph-name="period" unicode="." horiz-adv-x="166" 
d="M117 30q0 -14 -10 -24t-24 -10t-24 10t-10 24t10 24t24 10t24 -10t10 -24z" />
    <glyph glyph-name="slash" unicode="/" horiz-adv-x="625" 
d="M580 719l-241 -335q-11 3 -19 3q-29 0 -81 -68l-188 -262l-21 7l490 680z" />
    <glyph glyph-name="zero" unicode="0" horiz-adv-x="744" 
d="M703 401q2 -170 -94 -291.5t-233 -123.5q-137 -1 -235.5 118.5t-100.5 289.5t94 291.5t233 122.5q137 2 235.5 -117.5t100.5 -289.5zM631 387q0 109 -34 202.5t-89 142.5l-103 -316q13 -11 13 -26q0 -31 -31 -33l-105 -325q52 -24 118 -22q69 2 146 112q85 121 85 265z
M484 750q-38 25 -80 25q-95 0 -166 -116t-71 -273q0 -1 1 -20q-79 5 -79 -73q0 -51 37.5 -114t97.5 -111q15 -11 33 -23l104 322q-9 10 -9 23q0 27 27 32z" />
    <glyph glyph-name="one" unicode="1" horiz-adv-x="267" 
d="M227 -4h-187v14q60 13 60 48v608h-43v13l43 11v2q19 4 32.5 30.5t13.5 63.5q0 6 -1 14h22v-742q0 -35 60 -48v-14z" />
    <glyph glyph-name="two" unicode="2" horiz-adv-x="643" 
d="M928 180q9 -10 9 -28q0 -33 -24 -59q-27 -31 -73 -31q-54 0 -115 38q-51 34 -103 69q-62 37 -118 37q-156 0 -156 -132q0 -22 15 -49q79 17 79 126h17v13q172 0 172 -111q0 -64 -47 -96q-41 -27 -106 -27q-85 0 -132 66h-289v-1h-20v1h-2h2q0 164 54.5 253.5t202.5 174.5
q64 36 80 47q50 33 67 62q25 40 25 83q0 54 -38 87q-44 39 -128 39q-65 0 -108.5 -39t-43.5 -93q0 -14 3 -28l-43 -42h-5q-14 25 -14 64q0 78 47 136q58 70 164 70q114 0 176 -58q57 -52 57 -132q0 -121 -109 -197q-11 11 -29 11q-31 0 -96 -36q-116 -63 -170 -138
q-67 -94 -72 -241h190q66 0 85 1q-14 29 -14 54q0 87 61 127q47 32 126 32q58 0 124 -41q54 -38 108 -75q60 -41 103 -41q39 0 62.5 23t23.5 52q0 17 -9 29h11zM602 53q0 78 -116 78v-52h-16v-83h-85q37 -36 91 -36q126 0 126 93z" />
    <glyph glyph-name="three" unicode="3" horiz-adv-x="628" 
d="M588 187q0 -133 -93 -227.5t-225 -94.5q-147 0 -242 113l8 9q95 -109 235 -109q107 0 191 73q66 57 90 126q13 38 13 69q0 43 -26 43q-11 100 -84 168.5t-170 68.5q-87 0 -156 -57q0 19 -14.5 32t-31.5 13q-13 0 -23 -8l-11 13q92 91 221 91q19 0 44 -3l113 231
q5 8 20 39q8 0 -69 0h-81h-39q-111 0 -141 -13q-55 -25 -55 -120h-29v156h521v-14q-39 -8 -60 -48l-126 -243q97 -32 158.5 -116.5t61.5 -191.5z" />
    <glyph glyph-name="four" unicode="4" horiz-adv-x="609" 
d="M850 301h-363v-243q0 -35 60 -48v-14h-187v14q60 13 60 48v243h-354h1h-25l255 499h94v-14q-38 -8 -59 -48l-218 -410h306v215q19 4 32.5 30.5t13.5 62.5q0 7 -1 15h22v-323h363v-27z" />
    <glyph glyph-name="five" unicode="5" horiz-adv-x="648" 
d="M607 187q0 -133 -93 -227.5t-225 -94.5q-147 0 -242 113l8 9q95 -109 235 -109q107 0 191 73q66 57 90 126q13 38 13 69q0 43 -26 43q-11 100 -84 168.5t-170 68.5q-87 0 -156 -57q0 19 -14.5 32t-31.5 13q-13 0 -23 -8l-11 13q34 34 76 56l1 263q-20 40 -59 48v14h352
v-156h-29q0 81 -38 111q-30 24 -100 24q-18 0 -57 -2h-2l1 -276q39 9 76 9q132 0 225 -94.5t93 -228.5z" />
    <glyph glyph-name="six" unicode="6" horiz-adv-x="620" 
d="M545 356q35 -56 35 -130q0 -96 -60 -161q-71 -75 -202 -75q-84 0 -154 51q-114 84 -114 274q0 140 58 265q65 143 182 202q14 7 59 17v-68q-10 -2 -28 -10q-97 -50 -153 -178q-48 -109 -49 -228v-14q-36 -10 -36 -60q0 -73 62 -142q72 -80 173 -79q115 1 176 64
q53 54 53 137q0 81 -46 141q-49 64 -120 64q-45 0 -92 -27q-24 -14 -41 -45t-17 -69q0 -26 9 -52l-20 -20q-17 40 -17 79q0 78 65 126q62 46 140 33q86 -14 137 -95z" />
    <glyph glyph-name="seven" unicode="7" horiz-adv-x="592" 
d="M569 789q-63 -15 -74 -50l-98 -339q-31 0 -46.5 -26.5t-41.5 -118.5q-72 -247 -75 -259l-22 -1l228 782h-177q-110 0 -140 -13q-55 -25 -55 -120h-29v156h528z" />
    <glyph glyph-name="eight" unicode="8" horiz-adv-x="630" 
d="M592 216q0 -133 -93 -228t-225 -95q-147 0 -242 114l8 9q95 -109 235 -109q107 0 191 73q66 57 90 126q13 38 13 69q0 43 -26 43q-8 68 -45.5 123t-94.5 85q-50 -38 -105 -38q-62 0 -104 47q-33 -14 -61 -37q0 19 -14.5 32t-31.5 13q-13 0 -23 -8l-11 13q44 43 100 67
q-6 25 -6 52q0 42 15 83q23 67 74.5 108.5t108.5 41.5q24 0 46 -8q49 -17 77 -64t28 -106q0 -76 -42 -140q64 -44 101 -114t37 -152zM451 643q0 45 -17 76q-21 39 -61 39q-49 0 -93 -51q-36 -41 -54 -95q-25 11 -39 -7q-11 -14 -11 -40q0 -19 5 -40q45 14 93 14
q73 0 140 -33q37 65 37 137zM362 443q-36 11 -73 11q-33 0 -65 -8q31 -32 68 -32q35 0 70 29z" />
    <glyph glyph-name="nine" unicode="9" horiz-adv-x="603" 
d="M568 475q0 -141 -57 -266q-66 -143 -183 -202q-13 -6 -59 -17l1 68q10 2 27 11q98 49 153 178q48 109 49 228v14q37 9 37 59q0 73 -63 143q-72 80 -173 79q-115 -1 -176 -64q-53 -54 -53 -138q0 -80 46 -141q49 -64 121 -64q45 0 91 28q24 14 41 43q18 33 18 70
q0 27 -10 53l20 19q17 -40 17 -78q0 -79 -63.5 -126t-141.5 -34q-85 14 -136 95q-36 57 -36 130q0 97 61 161q70 75 201 75q84 0 154 -51q114 -83 114 -273z" />
    <glyph glyph-name="colon" unicode=":" horiz-adv-x="168" 
d="M115 362q0 -14 -10 -24t-24 -10t-24 10t-10 24t10 24t24 10t24 -10t10 -24zM115 209q0 -14 -10 -24t-24 -10t-24 10t-10 24t10 24t24 10t24 -10t10 -24z" />
    <glyph glyph-name="semicolon" unicode=";" horiz-adv-x="164" 
d="M115 186q0 -14 -10 -24t-24 -10t-24 10t-10 24t10 24t24 10t24 -10t10 -24zM116 68l-27 -126h-22q1 8 1 15q0 68 0 63q-2 27 -19 30v18h67z" />
    <glyph glyph-name="less" unicode="&#x3c;" horiz-adv-x="222" 
d="M184 155l-12 -10l-124 151l124 156l12 -10q-27 -36 -27 -51q0 -10 9 -24l-56 -69l56 -68q-9 -14 -9 -25q0 -15 27 -50z" />
    <glyph glyph-name="equal" unicode="=" horiz-adv-x="426" 
d="M376 333h-61q0 1 1 2q0 10 -28 16.5t-68 6.5q-39 0 -67 -6.5t-28 -16.5l1 -2h-76v67h326v-67zM376 232h-61q0 1 1 3q0 9 -28 15.5t-68 6.5q-39 0 -67 -6.5t-28 -15.5q0 -1 1 -3h-76v68h326v-68z" />
    <glyph glyph-name="greater" unicode="&#x3e;" horiz-adv-x="221" 
d="M174 296l-124 -151l-12 10q27 35 27 50q0 11 -9 25l56 68l-56 69q9 14 9 24q0 15 -27 51l12 10z" />
    <glyph glyph-name="question" unicode="?" horiz-adv-x="469" 
d="M339 537q24 41 24 85q0 56 -38 91q-44 40 -128 40q-78 0 -123 -47l-37 47q58 64 160 64q114 0 177 -58q57 -53 57 -134q0 -122 -110 -199q-10 11 -25 11q-23 0 -53 -21q-24 -16 -39 -33q-41 -49 -38 -149q1 -15 3 -29q5 -35 16 -59h-21q-15 44 -17 99q-3 108 62 172
q9 9 69 56q43 35 61 64zM229 33q0 -14 -10 -24t-24 -10t-24 10t-10 24t10 24t24 10t24 -10t10 -24z" />
    <glyph glyph-name="at" unicode="@" horiz-adv-x="846" 
d="M808 200q0 -112 -56 -201h-256v235q-33 -14 -95 -43q-8 14 -27 14q-34 0 -69 -33q-39 -36 -39 -79q0 -92 96 -92q26 0 53 7q22 6 27 11v-13q-23 -16 -86 -16q-113 0 -113 103q0 67 66 113q12 8 123 62q65 32 65 66q0 31 -25.5 49t-61.5 18q-45 0 -77 -27q-36 -30 -33 -82
q0 -6 1 -17h-11q-6 65 36 103q39 35 104 35q52 0 91 -23t42 -61h1v-267q0 -31 16 -39q2 -1 41 -9l99 7q50 83 50 179q0 144 -102 245.5t-245 101.5t-245 -101.5t-102 -245.5q0 -143 102 -245t245 -102q110 0 201 65l23 -31q-101 -72 -224 -72q-159 0 -272 113t-113 272
t113 272t272 113t272 -113t113 -272z" />
    <glyph glyph-name="A" unicode="A" 
d="M920 402q0 -6 -2 -13v-1q0 -53 -82 -82q-60 -21 -120 -21q-14 0 -33 2l87 -227q21 -39 60 -48v-14h-186v14q61 13 61 41q0 4 -1 7l-94 242q-66 20 -133 40q-85 25 -147 34l-41 -93q83 -5 127 -51q39 -42 39 -107q0 -67 -63 -113t-149 -46q-80 0 -147 56t-72 121
q-2 17 -2 34q0 119 76 181q64 52 159 52q22 0 52 -3l176 393l1 -1v1l14 -40l175 -451q24 -5 42 -5q84 0 135 29q48 28 48 69q0 90 -89 90q-17 0 -31 -3l-15 15q20 7 45 7q110 0 110 -109zM600 329l-135 351l-123 -278q58 -9 135 -33q62 -20 123 -40zM426 125q0 127 -172 128
h-15l57 126q-20 1 -36 1q-138 0 -187 -107q-28 -62 -21 -129q4 -51 59 -98q60 -50 132 -50q78 0 130.5 38.5t52.5 90.5z" />
    <glyph glyph-name="B" unicode="B" horiz-adv-x="673" 
d="M639 212q0 -99 -70 -177.5t-184 -110.5l-2 9q100 30 166 100q70 72 70 155q0 107 -105 186q-98 -105 -259 -105q-39 0 -78 8v-221q0 -34 59 -47v-14h-185v14q59 13 59 47v240q-61 25 -104 66l8 8q38 -35 96 -56v118q-29 -10 -51 -22l-46 45q44 26 97 41v188v0
q0 51 -25 59q-7 3 -15 3q-14 0 -31 -10l-11 11q68 53 227 53q135 0 230.5 -78t95.5 -188q0 -65 -38 -123q96 -86 96 -199zM544 443q14 30 14 57q0 35 -27 35q-12 83 -86.5 139t-174.5 56q-48 0 -93 -15v-204q36 5 71 5q167 0 283 -95q8 12 13 22zM501 384q-106 73 -244 73
q-37 0 -80 -8v-154q46 -8 93 -8q139 0 231 97z" />
    <glyph glyph-name="C" unicode="C" horiz-adv-x="780" 
d="M760 715l-42 -59q-104 99 -246 99q-138 0 -240.5 -92.5t-117.5 -228.5q-8 1 -5 1q-16 0 -28 -12t-12 -28q0 -167 118 -285t285 -118q16 0 28 12t12 28q0 -2 -1 5q64 7 122 36l53 -53q-100 -57 -214 -57q-179 0 -305.5 126.5t-126.5 305.5q0 178 126.5 305t305.5 127
q164 0 288 -112z" />
    <glyph glyph-name="D" unicode="D" horiz-adv-x="842" 
d="M799 380q0 -179 -126.5 -305t-308.5 -126q-100 0 -190.5 40.5t-151.5 111.5l11 12q84 -83 165 -114q68 -25 175 -25q146 0 260 100q83 73 116 158q25 62 25 113q0 52 -31 52q-16 137 -122 241q-109 108 -243 108q-92 0 -169 -35v-287q0 -35 60 -48v-14h-127v336
q-7 8 -20 8q-24 0 -56 -27l-15 10q129 121 307 121q183 0 312 -126t129 -304z" />
    <glyph glyph-name="E" unicode="E" horiz-adv-x="625" 
d="M595 201v-40q0 -69 -66 -115t-156 -47v-1h-279v1h-49v14q58 12 60 48l3 52v258h-36q-24 0 -35 -27q-3 -6 -13 -53h-14v187h14q4 -27 8 -53q9 -27 40 -27h36v340q0 35 -60 48v14h323q90 0 157 -46.5t67 -115.5v-40h-28l-1 40q0 53 -56 93t-139 40q-82 0 -139 -38.5
t-57 -90.5v-244h244v-27h-244v-210q0 -53 56.5 -93t139.5 -40t139.5 40t56.5 93v40h28z" />
    <glyph glyph-name="F" unicode="F" horiz-adv-x="625" 
d="M595 598h-28l-1 40q0 53 -56 93t-139 40q-82 0 -139 -38.5t-57 -90.5v-244h244v-27h-244v-323q12 -26 57 -35v-14h-187v14q58 12 60 48l3 52v258h-36q-30 0 -39 -27q-4 -26 -9 -53h-14v187h14q5 -27 9 -53q9 -27 39 -27h36v340q0 35 -60 48v14h323q91 0 157.5 -46.5
t66.5 -115.5v-40z" />
    <glyph glyph-name="G" unicode="G" horiz-adv-x="839" 
d="M815 667l-11 -12q-84 82 -164 113q-68 25 -174 25q-145 0 -259 -100q-83 -72 -116 -157q-24 -62 -24 -113q0 -52 30 -52q16 -136 122 -239q108 -107 241 -107q88 0 162 31v288q0 32 -17 40l-42 8v14h126v-312v0q0 -30 26 -30q24 0 56 27l15 -10q-128 -121 -306 -121
q-182 0 -310.5 125.5t-128.5 303.5t126 303.5t308 125.5q122 0 205 -41q68 -34 135 -110z" />
    <glyph glyph-name="H" unicode="H" horiz-adv-x="763" 
d="M743 0h-127v371h-441v-310q0 -35 60 -48v-14h-187v14q60 13 60 48v310h-36q-31 0 -48 -80h-14v187h14q17 -80 48 -80h36v145h67v-145h441v402h22q-1 -8 -1 -14q0 -37 13 -63.5t33 -30.5v-630q0 -35 60 -48v-14z" />
    <glyph glyph-name="I" unicode="I" horiz-adv-x="227" 
d="M147 834q0 -14 -9.5 -24t-23.5 -10t-24 10t-10 24t10 24t24 10t23.5 -10t9.5 -24zM207 -2h-187v14q60 13 60 48v483q19 4 32.5 30.5t13.5 63.5q0 6 -1 14h22v-591q0 -35 60 -48v-14z" />
    <glyph glyph-name="J" unicode="J" horiz-adv-x="498" 
d="M482 783q-35 -7 -46 -14q-18 -11 -18 -37l1 -978q0 7 -7.5 21.5t-18.5 21.5q-159 79 -227 134q-118 94 -118 203v124h22q19 33 50 44v-45q-27 0 -43 -41q-13 -35 -13 -81q0 -78 75 -154t208 -137v888q0 26 -18 37q-10 7 -45 14v15h198v-15z" />
    <glyph glyph-name="K" unicode="K" horiz-adv-x="578" 
d="M988 -67q0 -71 -43 -132q-66 -92 -207 -92q-206 0 -248 200q-19 186 -39 371q-46 200 -262 200q5 0 -13 0v-419q0 -35 60 -48v-13h-185v13q59 13 59 48v409q-33 -8 -61 -22l-42 49q44 25 103 37v108h66v-101q2 0 7 1h8q46 0 89 -7l165 201q20 24 20 32q0 15 -59 15v14
h185v-14q-56 0 -87 -19l-32 -28l-168 -206q177 -41 207 -248q11 -179 23 -359q33 -182 221 -182q93 0 153.5 56t60.5 138q0 64 -38.5 110.5t-97.5 46.5q-56 0 -115 -46l-14 13q65 53 129 53q66 0 110.5 -53t44.5 -126z" />
    <glyph glyph-name="L" unicode="L" horiz-adv-x="629" 
d="M639 -112q0 -98 -72.5 -176.5t-187.5 -110.5v17q100 29 162 97t62 153q0 110 -102 188.5t-247 78.5q-109 0 -199 -47l-45 45q32 19 71 33h-1v562q0 38 -63 52v14h198v-14q-64 -14 -64 -52v-543q47 9 95 9q162 0 277.5 -89.5t115.5 -216.5z" />
    <glyph glyph-name="M" unicode="M" horiz-adv-x="792" 
d="M776 -1h-199v15q64 13 64 51v694q-159 -72 -233 -164q45 -61 45 -129v-125h-22q-8 -14 -19 -25v-18q-8 2 -16 7q-7 -5 -15 -7v18q-12 11 -20 25h-22v125q0 67 45 129q-74 92 -233 164v-694q0 -38 64 -51v-15h-199v15q64 13 64 51v543h-1v242q0 -8 8 -22t18 -21
q220 -110 291 -196q71 86 291 196q11 7 18.5 21t7.5 22v-242h-1v-543q0 -38 64 -51v-15zM437 446q0 57 -41 114q-41 -57 -41 -114q0 -96 41 -119q41 23 41 119z" />
    <glyph glyph-name="N" unicode="N" horiz-adv-x="819" 
d="M802 785q-63 -14 -63 -51v-783q0 8 -7.5 22t-18.5 21q-159 80 -228 135q-119 95 -119 205v124h22q17 28 43 41q-33 143 -280 255v-691q0 -38 64 -52v-15h-199v15q64 14 64 52l-1 782q0 -7 7.5 -21.5t18.5 -21.5q160 -80 228 -135q119 -95 119 -204v-125h-22
q-16 -28 -43 -40q34 -144 280 -256v692q0 37 -63 51v15h198v-15zM436 457q-25 -2 -40 -41q-13 -33 -13 -77q25 3 39 41q13 33 14 77z" />
    <glyph glyph-name="O" unicode="O" horiz-adv-x="826" 
d="M787 386q-6 -169 -119 -285t-267 -111q-155 5 -260.5 128t-100.5 293q5 169 118 285t268 111t260.5 -128.5t100.5 -292.5zM738 375q0 116 -54 218q-62 118 -168 160q-44 18 -87 18q-69 0 -126 -45q-53 -42 -83 -110q-16 -37 -29 -98t-13 -99q0 -33 11 -31
q-82 -13 -82 -82q0 -65 56 -140q44 -61 109 -103q73 -47 146 -51q134 -9 227.5 97.5t92.5 265.5z" />
    <glyph glyph-name="P" unicode="P" horiz-adv-x="613" 
d="M586 549q0 -111 -96.5 -190t-233.5 -79q-40 0 -79 8v-223q0 -35 60 -48v-14h-187v14q60 13 60 48v243q-62 25 -106 67l8 8q39 -36 98 -58v376h-1q0 16 -15 26.5t-33 10.5q-13 0 -24 -6l-11 11q96 75 230 75q137 0 233.5 -78.5t96.5 -190.5zM549 457q14 30 14 57
q0 37 -27 37q-12 83 -87.5 140t-177.5 57q-49 0 -94 -15v-426q46 -9 94 -9q109 0 193 62q60 44 85 97z" />
    <glyph glyph-name="Q" unicode="Q" horiz-adv-x="817" 
d="M778 390q-3 -124 -67.5 -223.5t-165.5 -144.5v-53v0v-17q-53 -27 -53 -91q0 -15 4 -30q10 -36 48 -69q32 -28 58 -35q1 111 0 159q-19 0 -19 18q0 19 19 19h17v-241q0 22 -17 27q-45 12 -81 48t-47 82q-4 22 -2 113h21q5 9 11 17h-30v30q-38 -7 -77 -6
q-153 5 -257.5 128.5t-99.5 292.5t117 285t265 111t257 -128t99 -292zM730 379q0 115 -53 218q-61 118 -166 160q-44 18 -86 18q-69 0 -125 -46q-52 -41 -82 -110q-16 -36 -29 -97.5t-13 -99.5q0 -32 11 -31q-80 -12 -80 -81q0 -66 54 -141q44 -61 108 -103q72 -47 145 -51
q30 -2 60 3v30q0 37 -64 51v15h135v-74q84 41 135 132t50 207z" />
    <glyph glyph-name="R" unicode="R" horiz-adv-x="592" 
d="M985 -68q0 -74 -43 -140q-67 -101 -208 -101q-160 0 -219 113q-37 73 -46 254q-9 195 -36 265q-85 -49 -189 -49q-38 0 -78 8v-221q0 -35 60 -48v-14h-186v14q60 13 60 48v241q-61 24 -105 66l8 7q38 -34 97 -56v141q-30 -9 -53 -20l-30 74q35 19 83 34v143l-1 -1
q0 16 -15 26.5t-33 10.5q-12 0 -23 -6l-11 11q95 75 227 75q136 0 232 -78t96 -189q0 -107 -92 -185q22 -74 30 -274q6 -179 41 -250q52 -109 200 -109q93 0 157 65t64 148q0 65 -40 114q-43 51 -105 51q-59 0 -120 -48l-7 7q65 53 129 53q67 0 111.5 -53t44.5 -127z
M535 449q14 30 14 57q0 36 -27 36q-12 83 -87 139t-175 56q-48 0 -94 -15v-163h1q240 9 307 -187q42 38 61 77zM427 337q-59 137 -240 137q-2 0 -21 -1v-172q47 -9 94 -9q92 0 167 45z" />
    <glyph glyph-name="S" unicode="S" horiz-adv-x="601" 
d="M566 180q0 -97 -83 -159t-203 -62q-94 0 -167 63q-88 78 -85 217l12 -1q-3 -115 72 -189q70 -71 168 -71q110 0 184.5 59t74.5 143q0 156 -150 226q-16 7 -32 7q-34 0 -48 -32q-90 30 -206 107q-65 44 -65 131q0 61 34 112q36 55 98 75q36 11 82 11q70 0 132 -25
q69 -27 102 -74v0v0l-84 -86l-11 11q21 15 13 42q-3 8 -24 23h1q-57 35 -120 35q-56 0 -92 -28q-38 -31 -38 -84q0 -69 113 -122q184 -86 209 -105q113 -82 113 -224z" />
    <glyph glyph-name="T" unicode="T" horiz-adv-x="745" 
d="M709 685h-19q7 49 -47 76q-41 21 -95 21q-48 0 -89 -22q-49 -26 -53 -69v-333q118 -18 118 -94q0 -70 -112 -111q-7 11 -24 11q-28 0 -62 -23q-38 -24 -38 -50q0 -39 38 -54q35 -9 71 -19q38 -13 38 -47q0 -17 -45 -50.5t-45 -68.5q0 -22 14 -49l-10 -6q-18 35 -18 62
q0 37 41.5 68t41.5 45q0 23 -38 32q-60 14 -69 18q-37 19 -37 67q0 47 52 75q48 21 97.5 42.5t49.5 56.5q0 37 -130 35v394q-5 43 -54 69q-40 21 -88 21q-54 0 -95 -21q-50 -26 -47 -76h-19v118h673v-118z" />
    <glyph glyph-name="U" unicode="U" horiz-adv-x="779" 
d="M759 -2h-127v102q-40 -47 -106 -75q-69 -29 -148 -29q-121 0 -207 60.5t-91 147.5v-1v533q0 35 -60 48v14h186v-14q-59 -13 -59 -48v-397h-2v-6q-38 -12 -38 -67q0 -19 -1 -20l1 -19q0 -96 77 -155q74 -57 186 -57q102 0 178 58.5t84 138.5v269q0 35 -60 48v14h187v-14
q-60 -13 -60 -48v-421q0 -35 60 -48v-14z" />
    <glyph glyph-name="V" unicode="V" horiz-adv-x="709" 
d="M703 786q-39 -8 -60 -48l-285 -745q0 3 -2 8l-5 13q-7 15 -19 22q-120 67 -176.5 175t-62.5 279q-12 35 -78 35v14h161v-14q-30 0 -40.5 -9.5t-10.5 -38.5h-1q15 -310 199 -396l253 657q3 9 3 16q0 16 -20 23l-43 9v14h187v-14z" />
    <glyph glyph-name="W" unicode="W" horiz-adv-x="794" 
d="M776 784q-64 -14 -64 -51l1 -784q0 8 -8 22t-18 21q-220 110 -290 195q-71 -85 -291 -195q-10 -7 -18 -21t-8 -22l1 784q0 37 -64 51v15h199v-15q-64 -14 -64 -51v-693q158 72 232 163q-44 62 -44 129v125h21q9 14 20 25v19q8 -3 16 -7q7 4 15 7v-19q11 -11 20 -25h21
v-125q0 -67 -44 -129q74 -91 232 -163v693q0 37 -64 51v15h199v-15zM437 333q0 97 -40 119q-41 -22 -41 -119q0 -56 41 -114q40 58 40 114z" />
    <glyph glyph-name="X" unicode="X" horiz-adv-x="590" 
d="M814 -256q34 -27 34 -74q0 -41 -27 -70q-28 -33 -74 -33q-60 0 -104 34q-56 43 -56 124q0 275 -121 402q-36 37 -98 74q-54 32 -107 63l-103 -199q-1 -4 -1 -7q0 -28 60 -41v-14h-185v14q39 8 59 48l41 77l80 156q-86 68 -98 168q-1 7 -1 14q-12 46 -99 46v14h185v-14
q-57 0 -58 -42q0 -5 1 -14q11 -88 83 -147l19 37q-98 150 -49 209q17 20 144 64q100 34 100 110q0 29 -60 42v14h185v-14q-39 -8 -59 -48l-231 -448q30 -17 92 -53q141 -81 195 -211q46 -108 46 -300q0 -68 50 -108q40 -33 89 -33q39 0 61 26t22 60q0 35 -21.5 55.5
t-52.5 20.5q-24 0 -41 -14t-17 -38q0 -11 4 -23l-14 -3q-4 15 -4 28q0 65 72 65q37 0 59 -17z" />
    <glyph glyph-name="Y" unicode="Y" horiz-adv-x="764" 
d="M756 600q-59 -13 -59 -48v-79q-1 -7 -1 -27q0 -85 -90 -147.5t-209 -69.5v-168q0 -35 59 -48v-14h-186v14q60 13 60 48v171q-105 11 -176 69t-76 136v-1v302q0 35 -60 48v14h186v-14q-59 -13 -59 -48v-166h-2v-7q-38 -11 -38 -66v-20h-1l1 -19q0 -96 77 -155
q74 -57 186 -57q107 0 184.5 64t77.5 148v4.5v3.5v84q0 35 -60 48v14h186v-14z" />
    <glyph glyph-name="Z" unicode="Z" horiz-adv-x="796" 
d="M797 49q0 -39 -44 -59q-33 -15 -78 -15q-41 0 -107 43t-108 43q-68 0 -124 -33q63 2 109.5 -34t46.5 -97q0 -60 -39.5 -93t-101.5 -33q-52 0 -92 38.5t-40 89.5q0 58 43 103l-154 -1v-2h-89q-5 178 147 306q142 97 284 193q154 116 152 261v17h-181q-77 0 -109 -26
q-35 -30 -35 -106h-29v155h441q-5 -217 -147 -344q-134 -87 -268 -175q-149 -101 -165 -250l184 -1q70 49 167 49q52 0 115 -43t100 -43q36 0 63 11q37 15 37 47q0 48 -64 48q-20 0 -39 -5l-6 18q22 6 42 6q33 0 59 -17q30 -19 30 -51zM463 -103q0 102 -163 105
q-52 -47 -52 -103q0 -38 31 -69.5t71 -31.5q113 0 113 99z" />
    <glyph glyph-name="bracketleft" unicode="[" horiz-adv-x="341" 
d="M305 732h-188v-204q-27 -51 -27 -174q0 -124 27 -175v-180h185v-67l-252 -1v869h255v-68z" />
    <glyph glyph-name="backslash" unicode="\" horiz-adv-x="625" 
d="M595 64l-20 -7l-188 262q-52 68 -81 68q-9 0 -20 -3l-21 29l-220 306l61 25z" />
    <glyph glyph-name="bracketright" unicode="]" horiz-adv-x="341" 
d="M291 -69l-251 1v67h184v180q27 51 27 175q0 123 -27 174v204h-188v68h255v-869z" />
    <glyph glyph-name="asciicircum" unicode="^" horiz-adv-x="428" 
d="M364 499l-10 -13q-35 28 -50 28q-11 0 -25 -10l-69 56l-68 -56q-14 10 -25 10q-15 0 -50 -28l-10 13l151 124z" />
    <glyph glyph-name="underscore" unicode="_" horiz-adv-x="511" 
d="M480 -67h-123q0 1 1 2q0 9 -28 15.5t-68 6.5q-39 0 -67 -6.5t-28 -15.5l1 -2h-139v67h451v-67z" />
    <glyph glyph-name="grave" unicode="`" horiz-adv-x="126" 
d="M97 781q-19 -4 -32.5 -30.5t-13.5 -62.5q0 -7 1 -15h-22v126h67v-18z" />
    <glyph glyph-name="a" unicode="a" horiz-adv-x="434" 
d="M414 1h-127v235q-34 -14 -96 -43q-7 14 -27 14q-34 0 -69 -33q-38 -36 -38 -79q0 -92 96 -92q26 0 52 7q23 6 28 11v-13q-23 -16 -87 -16q-112 0 -112 103q0 67 66 113q11 8 122 62q66 32 65 66q0 31 -25 49t-61 18q-46 0 -77 -27q-36 -30 -34 -82q0 -6 1 -17h-11
q-5 65 37 103q39 35 104 35q51 0 89 -22q41 -25 43 -62h1v-268q0 -30 17 -38q0 -1 43 -10v-14z" />
    <glyph glyph-name="b" unicode="b" horiz-adv-x="488" 
d="M467 178q-5 -86 -63.5 -143.5t-135.5 -52.5q-71 4 -121 59v-40h-127v14q60 13 60 48v629q19 4 32.5 30.5t13.5 63.5q0 6 -1 14h22v-465q60 66 143 61q78 -4 129.5 -68t47.5 -150zM434 174q1 56 -23 106q-28 57 -78 79q-22 10 -44 10q-66 0 -99 -73q-23 -49 -23 -97
q0 -14 5 -13q-15 -2 -25 -9v-81q5 -10 10 -17q49 -71 120 -78q64 -5 110 45.5t47 127.5z" />
    <glyph glyph-name="c" unicode="c" horiz-adv-x="425" 
d="M375 93q-26 -51 -73 -80t-101 -26q-78 5 -129.5 68.5t-47.5 150.5q5 86 63.5 143.5t135.5 53.5q101 -6 152 -103h-39q-28 47 -70 65q-23 10 -44 10q-66 0 -100 -73q-22 -49 -22 -97q0 -14 5 -13q-40 -5 -40 -40q0 -31 24 -67q49 -72 121 -78q43 -4 80 19.5t58 66.5h27z
" />
    <glyph glyph-name="d" unicode="d" horiz-adv-x="487" 
d="M468 1h-127v40q-50 -55 -121 -59q-78 -5 -136 52.5t-63 143.5q-4 86 47.5 150t128.5 68q84 5 144 -61v465h22q-1 -8 -1 -14q0 -37 13.5 -63.5t32.5 -30.5v-629q0 -35 60 -48v-14zM341 96v81q-10 7 -25 9q5 -1 5 13q0 48 -23 97q-34 73 -99 73q-22 0 -44 -10
q-50 -22 -78 -79q-25 -50 -24 -106q2 -77 48 -127.5t110 -45.5q71 7 120 78q5 7 10 17z" />
    <glyph glyph-name="e" unicode="e" horiz-adv-x="425" 
d="M399 215h-34v0h-265q-1 -11 0 -17t5 -6q-40 -5 -40 -40q0 -31 24 -67q49 -72 121 -78q43 -4 80 20t58 67h27q-26 -51 -73 -80.5t-101 -26.5q-78 5 -129.5 68.5t-47.5 150.5q5 86 63.5 143.5t135.5 53.5q70 -4 120 -58t56 -130zM359 244q-24 91 -93 121q-23 10 -44 10
q-66 0 -100 -73q-10 -22 -17 -58h254z" />
    <glyph glyph-name="f" unicode="f" horiz-adv-x="252" 
d="M229 591q-1 -1 -1 -2v-17h-17v1q0 -1 -1 -1q-18 0 -18 19q0 18 18 18h2q0 78 -1 173v-13q-26 -6 -59 -35q-38 -34 -48 -70q-4 -15 -4 -30q0 -64 53 -92v-44h-1v-99h63v-15q-63 -14 -63 -52v-267q0 -37 63 -51v-15h-199v15q64 14 64 51v267q0 38 -64 52v15h64v143v0
q-2 92 2 115q11 46 47.5 82t81.5 48v0q17 4 17 27v-222z" />
    <glyph glyph-name="g" unicode="g" horiz-adv-x="437" 
d="M625 399q4 -26 -7 -58q-19 -54 -77 -54q-45 0 -105 56t-108 56q-41 0 -72 -20q34 -13 62 -40v33q6 0 28 -2q55 -23 55 -82q0 -39 -31.5 -64t-75.5 -25q-43 0 -72.5 24.5t-34.5 64.5t12 73q-56 -6 -85 -68q-21 -46 -21 -91q0 -13 4 -13q-38 -5 -38 -37q0 -30 24 -64
q46 -68 114 -74q43 -3 81 23v94h128v-15q-61 -13 -61 -48v-75h-29q7 -8 11 -16h20q2 -86 -2 -108q-10 -43 -44.5 -77t-77.5 -46q-16 -5 -16 -25v228h16q18 0 18 -18q0 -17 -17 -17q-1 -45 -1 -151q25 6 56 34q35 31 45 65q5 14 5 28q0 61 -51 87v16v0v24q-43 -24 -90 -22
q-73 5 -122 65.5t-45 141.5q5 82 60 136.5t129 50.5q2 -1 7 -1q39 39 111 39q47 0 86 -31q30 -28 60 -57q34 -31 66 -31q49 0 66 39q11 23 8 52h11zM373 288q0 34 -27 49l1 -35q2 -3 6 -11h-36q-32 54 -83 68q-23 -30 -19 -71q3 -27 24.5 -44t54.5 -17q34 0 56.5 17.5
t22.5 43.5z" />
    <glyph glyph-name="h" unicode="h" horiz-adv-x="486" 
d="M460 -3h-169v13q54 12 54 44v325q-135 -62 -198 -139v-179q0 -35 60 -48v-14h-187v14q60 13 60 48v739h22q-1 -8 -1 -15q0 -57 13 -76q8 -12 33 -17v-427q61 67 237 154q22 15 22 37v-205v0v-197q0 -32 54 -44v-13z" />
    <glyph glyph-name="i" unicode="i" horiz-adv-x="227" 
d="M151 577q0 -14 -10 -24t-24 -10t-24 10t-10 24t10 24t24 10t24 -10t10 -24zM147 1h-127v14q60 13 60 48v333q19 4 32.5 31t13.5 63q0 7 -1 14h22v-503z" />
    <glyph glyph-name="j" unicode="j" horiz-adv-x="251" 
d="M167 576q0 -14 -9.5 -24t-23.5 -10t-24 10t-10 24q0 13 10 23t24 10t23.5 -10t9.5 -23zM235 385q-64 -14 -64 -51v-350h-32q7 -10 13 -18h21q1 -91 -2 -114q-11 -45 -47 -81t-81 -48q-17 -5 -17 -26v239h17q19 0 19 -18t-19 -18q-1 -47 0 -159q26 7 58 35q37 33 48 69
q4 15 4 30q0 64 -53 91v48v0v320q0 37 -63 51v15h198v-15z" />
    <glyph glyph-name="k" unicode="k" horiz-adv-x="536" 
d="M991 -377q0 -72 -44 -133q-66 -92 -208 -92q-208 0 -250 201q-19 187 -39 374q-46 201 -264 201q-1 0 -20 -1v-176h-126v14q60 13 60 48v103q-31 -9 -55 -21l-42 49q42 25 97 36v314q19 4 32 31t13 63v14h21v-413q26 1 22 1q12 0 38 -2l78 99q20 26 20 33q0 15 -59 15v14
h186v-14q-56 0 -87 -19q-16 -14 -32 -29l-80 -101q214 -23 254 -233q13 -187 25 -374q31 -196 225 -196q94 0 155 58q60 55 60 138q0 65 -38.5 111.5t-97.5 46.5q-57 0 -116 -47l-14 14q65 53 129 53q67 0 112 -53.5t45 -126.5z" />
    <glyph glyph-name="l" unicode="l" horiz-adv-x="227" 
d="M207 -1h-187v14q60 13 60 48v738h22q-1 -7 -1 -14q0 -57 13 -77q8 -12 33 -17v-630q0 -35 60 -48v-14z" />
    <glyph glyph-name="m" unicode="m" horiz-adv-x="699" 
d="M672 -6h-169v13q54 12 54 44v325q-134 -61 -197 -139q38 -52 38 -109v-107h-18q-8 -12 -17 -21v-16q-7 3 -13 6q-7 -3 -13 -6v16q-10 9 -17 21h-19v107q0 57 38 109q-62 77 -197 139v-325q0 -32 54 -44v-13h-169v13q54 12 54 44v197h-1v205q0 -22 23 -37
q187 -93 247 -165q60 72 247 165q22 15 22 37v-205h-1v-197q0 -32 54 -44v-13zM384 127q0 47 -34 96q-35 -49 -35 -96q0 -82 35 -101q34 19 34 101z" />
    <glyph glyph-name="n" unicode="n" horiz-adv-x="499" 
d="M473 -6h-169v13q54 12 54 44v325q-160 -73 -217 -167v-158q0 -15 16 -28l6 -1v-3q14 -8 32 -12v-13h-32v-10q-9 3 -18 10h-119v13q54 12 54 44v361l61 -25v-148q58 79 256 177q22 15 22 37v-205v0v-197q0 -32 54 -44v-13z" />
    <glyph glyph-name="o" unicode="o" horiz-adv-x="439" 
d="M412 188q-5 -88 -65 -147t-139 -55q-80 5 -132.5 70.5t-48.5 153.5q5 88 64.5 147t139.5 54q80 -4 132.5 -69.5t48.5 -153.5zM379 183q1 57 -24 109q-29 59 -81 81q-22 10 -44 10q-68 0 -102 -75q-23 -49 -23 -99q0 -14 5 -13q-41 -6 -41 -41q0 -32 25 -69
q50 -73 124 -79q65 -6 112 45.5t49 130.5z" />
    <glyph glyph-name="p" unicode="p" horiz-adv-x="472" 
d="M449 206q5 -87 -47 -151t-130 -69q-50 -2 -95 23v-149q0 -38 64 -52v-15h-200v15q64 14 64 52v201q0 38 -64 52v15h42l-1 1h29l1 -1h65v-98q39 -28 85 -24q73 7 122 78q25 37 25 68q0 35 -41 40q5 0 5 13q0 49 -22 98q-33 69 -96 73q22 -37 16 -86q-5 -42 -36.5 -68
t-76.5 -26q-47 0 -80.5 26.5t-33.5 67.5q0 63 59 87q14 2 29 2v-30q27 27 61 41q-32 19 -72 19q-51 0 -114.5 -60t-111.5 -60q-61 0 -81 58q-12 34 -8 61h12q-3 -30 8 -55q19 -41 70 -41q35 0 70 33q32 30 64 61q42 33 91 33q71 0 112 -37q5 1 16 2q78 4 136.5 -54
t63.5 -144zM241 290q5 48 -23 80q-51 -16 -82 -70h-4v-5h-31l1 5h-5q1 3 5 9l1 34q-29 -16 -29 -53q0 -27 24 -45.5t60 -18.5q35 0 57.5 18t25.5 46z" />
    <glyph glyph-name="q" unicode="q" horiz-adv-x="462" 
d="M658 409q4 -27 -7 -61q-20 -57 -81 -57q-48 0 -111 59t-114 59q-43 0 -76 -21q37 -14 65 -42v34q7 0 29 -2q59 -24 59 -87q0 -36 -29 -62q4 -25 3 -49q-6 -112 -94 -169v-61v0v-17q-53 -27 -53 -91q0 -15 4 -30q11 -36 48 -69q33 -29 59 -35q0 111 -1 159q-18 0 -18 18
t19 18h17v-240q0 21 -17 26q-46 13 -82 48.5t-47 81.5q-4 23 -2 114h21q5 8 11 17h-30v34q-18 -2 -34 -1q-77 4 -128.5 68t-47.5 150q5 86 63 143.5t136 53.5q3 0 8 -1q41 42 117 42q49 0 91 -33q32 -30 63 -61q36 -32 70 -32q51 0 69 40q12 25 9 56h11zM392 291
q0 37 -29 52l2 -36q12 -20 20 -43q7 13 7 27zM356 238q-27 106 -111 128q-24 -31 -19 -75q3 -27 25.5 -45.5t57.5 -18.5q26 0 47 11zM364 175q0 14 -2 34q-26 -11 -53 -11q-45 0 -76 25.5t-37 67.5q-5 43 13 78q-60 -6 -90 -72q-22 -48 -22 -96q0 -14 5 -13q-40 -6 -40 -40
q0 -32 24 -68q49 -71 121 -77q11 -1 24 0v26q0 37 -64 51v15h135v-61q60 51 62 141z" />
    <glyph glyph-name="r" unicode="r" horiz-adv-x="436" 
d="M406 281l-26 -1v11q0 32 -33.5 56t-83.5 24q-48 0 -82 -22.5t-34 -53.5v-236q0 -35 59 -48v-14h-186v14q60 13 60 48v280q0 35 -60 48v14h243q56 0 99.5 -27.5t43.5 -68.5v-24z" />
    <glyph glyph-name="s" unicode="s" horiz-adv-x="381" 
d="M358 98q0 -103 -112 -103q-64 0 -86 16v13q4 -5 27 -11q27 -7 53 -7q96 0 96 92q0 41 -36 71q-32 28 -66 28q-24 0 -33 -16l-104 48q-58 35 -58 86q0 39 41 65q39 23 92 23q65 0 104 -35q42 -38 36 -103h-11q1 5 1 17q3 52 -33 82q-32 27 -77 27q-36 0 -60 -17
q-27 -19 -27 -50q0 -34 65 -62q111 -48 123 -55q65 -42 65 -109z" />
    <glyph glyph-name="t" unicode="t" horiz-adv-x="227" 
d="M206 -3h-186v14l6 2q54 12 54 46v280q0 35 -60 48v14h60v291q19 4 32.5 31t13.5 63q0 6 -1 14h22v-399h59v-14q-59 -13 -59 -48v-280q0 -35 59 -48v-14z" />
    <glyph glyph-name="u" unicode="u" horiz-adv-x="503" 
d="M685 38h-20q9 97 -109 104q-79 0 -143 -48v-4v0v-31q0 -35 59 -48v-14h-126v38q-65 -59 -127 -59q-93 0 -124 65q-15 33 -15 107v191q0 35 -60 48v14h186v-14q-59 -13 -59 -48v-191h-1q-43 -26 -43 -66q0 -35 32.5 -61.5t82.5 -26.5q54 0 128 67v146h1v31q0 35 -60 48v14
h186v-14q-60 -13 -60 -48v-120q63 43 136 43q136 0 136 -123z" />
    <glyph glyph-name="v" unicode="v" horiz-adv-x="494" 
d="M470 387q-43 -9 -59 -48l-145 -336l-1 1v-1l-5 10l-26 49h-1l-23 44l-65 118h2l-7 13q-13 23 -26 31q-26 18 -84 18v14h186v-14q-47 0 -47 -26q0 -9 6 -23l16 -31l51 -94l102 227q1 3 1 6q0 29 -61 42v14h186v-14z" />
    <glyph glyph-name="w" unicode="w" horiz-adv-x="755" 
d="M910 290q8 -19 8 -39q0 -43 -34 -73.5t-74 -30.5q-37 0 -62 18.5t-25 46.5q0 12 5 24l15 -7q-3 -8 -3 -17q0 -20 18.5 -33.5t48.5 -13.5q38 0 66 26t28 60q0 16 -7 31q-9 23 -41 39.5t-74 16.5q-67 0 -130 -43q-13 -9 -36 -27l-117 -270l-29 61l-52 91q-23 -6 -41 -6
q-21 0 -43 4l-65 -150l-15 35l-111 204q-13 23 -26 31q-26 18 -84 18v14h186v-14q-47 0 -47 -26q0 -9 6 -23l7 -13h1l62 -114l26 59q-42 24 -42 63q0 68 100 66l16 36q1 3 1 7q0 28 -61 41v14h187v-14q-43 -9 -60 -48l-28 -64l46 -83q43 17 102 52l42 95q1 3 1 7
q0 28 -60 41v14h186v-14q-43 -9 -60 -48l-14 -33l7 5q67 48 149 48q101 0 127 -64zM513 197q-37 -24 -68 -37l29 -51zM400 178l-50 88q-13 2 -27 2q-65 0 -65 -36q0 -30 46 -46q34 -12 70 -12q10 0 26 4z" />
    <glyph glyph-name="x" unicode="x" horiz-adv-x="532" 
d="M755 87q0 -49 -25 -85q-42 -61 -145 -61q-71 0 -125 31q-62 37 -72 103h-108l-33 39l-38 -51q-3 -5 -3 -11q0 -25 53 -37l-3 -14h-186l3 14q40 8 69 48l68 93l-70 82q-11 17 -38 31q-33 17 -72 17v14h186v-14q-53 0 -53 -24q0 -10 12 -24l52 -60l14 19l-1 2l100 135
q3 5 3 11q0 25 -53 37l3 14h187l-3 -14q-41 -8 -70 -48l-144 -198l27 -31h127v-20q1 -12 3 -19q35 -100 165 -100q150 0 150 122q0 34 -20 64q-28 43 -85 43q-50 0 -81 -18q-27 -16 -27 -36q0 -28 48 -28l-2 -21q-30 0 -47.5 14t-17.5 34q0 28 31 48q35 24 96 24
q95 0 120 -92q2 -3 2 -5q-1 0 -1 -1q4 -15 4 -27z" />
    <glyph glyph-name="y" unicode="y" horiz-adv-x="497" 
d="M683 32h-20q9 96 -108 104q-82 0 -148 -52v-106h-31q4 -7 10 -18h21q2 -91 -2 -113q-10 -46 -46.5 -81.5t-81.5 -48.5q-17 -4 -17 -26v240h17q19 0 19 -19q0 -18 -18 -18q-2 -47 -1 -158q26 6 58 35q38 33 48 69q5 17 5 34q0 62 -47 86v18v22v25q-61 -55 -122 -55
q-93 0 -123 65q-16 33 -16 107v189q0 35 -59 48v14h186v-14q-60 -13 -60 -48v-189h-1q-42 -26 -42 -66q0 -35 32 -61.5t82 -26.5q54 0 123 63v187q0 35 -60 48v14h186v-14q-60 -13 -60 -48v-131q65 47 141 47q135 0 135 -122z" />
    <glyph glyph-name="z" unicode="z" horiz-adv-x="432" 
d="M527 -26q-46 0 -108 43t-108 43q-68 0 -124 -33q13 0 16 -1q140 -17 140 -131q0 -55 -36 -90t-105 -35q-35 0 -75 25q-57 36 -57 103q0 57 42 102h-86q0 141 69 220q53 62 169 103q60 21 60 113h-45q-110 0 -140 -14q-55 -24 -55 -119h-29v156h339v-23h-1q0 -46 -2 -56
q-20 -93 -104 -122q-88 -32 -129 -73q-56 -56 -62 -156q25 -1 48 -1q71 49 167 49q55 0 116.5 -43t99.5 -43q49 0 76 18q24 16 24 40q0 20 -18 35t-46 15q-19 0 -39 -7l-7 18q22 6 42 6q41 0 65 -20.5t24 -47.5q0 -30 -29 -51q-33 -23 -92 -23zM314 -105q0 90 -120 104
q-15 2 -43 2q-52 -47 -52 -103q0 -51 43 -80q32 -21 58 -21q114 0 114 98z" />
    <glyph glyph-name="braceleft" unicode="{" horiz-adv-x="359" 
d="M320 -59q-34 -3 -141 -10q-23 -1 -40 16.5t-17 41.5l30 338q-16 18 -124 18q-1 19 0 29q39 0 79.5 6t45.5 14l-31 349q0 24 17 41t40 16l141 -8v-13q-100 7 -132 0q-30 -9 -30 -95q0 -39 9 -67t21 -28h1v-196q-14 -25 -52 -25v-16q30 0 52 -25v0v-185h-1q-12 0 -21 -27.5
t-9 -67.5q0 -84 30 -95q25 -5 132 1v-12z" />
    <glyph glyph-name="bar" unicode="|" horiz-adv-x="266" 
d="M226 -61h-187v14q60 13 60 48v801q0 35 -60 48v14h187v-14q-60 -13 -60 -48v-801q0 -35 60 -48v-14z" />
    <glyph glyph-name="braceright" unicode="}" horiz-adv-x="358" 
d="M330 345q-108 0 -124 -18l30 -338q0 -24 -17 -41.5t-40 -16.5q3 0 -79 -9q-48 -5 -62 19v12q107 -6 131 -1q31 11 31 95q0 40 -9 67.5t-22 27.5v0v185v0q22 25 52 25v16q-38 0 -52 25v196v0q13 0 22 28t9 67q0 86 -31 95q-32 7 -131 0v13l141 8q23 1 40 -16t17 -41
l-31 -349q5 -8 47 -14q39 -6 78 -6q1 -19 0 -29z" />
    <glyph glyph-name="asciitilde" unicode="~" horiz-adv-x="537" 
d="M502 509q1 -2 -16 -11.5t-21 -11.5q-26 -9 -53 -9q-41 0 -115 27q-12 5 -24 5q-25 0 -34 -19q-30 13 -95 6q-18 -3 -33 -8q-36 -10 -50 -25l-36 46q28 23 73 37q41 11 85 11q46 0 79 -12q77 -30 80 -31q43 -15 74 -15q41 0 76 25z" />
    <glyph glyph-name="nonbreakingspace" unicode="&#xa0;" horiz-adv-x="282" 
 />
    <glyph glyph-name="exclamdown" unicode="&#xa1;" horiz-adv-x="180" 
d="M126 567q0 -14 -10 -24t-24 -10t-23.5 10t-9.5 24q0 13 9.5 23t23.5 10t24 -10t10 -23zM155 -198h-123l21 583q20 5 33 31.5t13 62.5q0 6 -1 15h22z" />
    <glyph glyph-name="cent" unicode="&#xa2;" horiz-adv-x="417" 
d="M381 93q-44 -84 -130 -102v-131h-21v15q0 36 -13 62.5t-33 30.5v22q-69 13 -113.5 74.5t-40.5 141.5q4 72 47.5 126t106.5 67v40h67v-39q86 -16 130 -100h-39q-35 59 -91 72v-363q68 13 103 84h27zM184 14v350q-36 -19 -56 -62q-22 -49 -22 -97q0 -14 5 -13
q-40 -5 -40 -40q0 -31 24 -67q36 -52 89 -71z" />
    <glyph glyph-name="sterling" unicode="&#xa3;" horiz-adv-x="945" 
d="M865 53q-47 -73 -113 -73q-58 0 -120 55q-117 103 -279 103q-110 0 -200 -47l-45 45q32 19 71 33h-1v301h-162l60 74h102v190q0 37 -64 51v15h199v-15q-63 -14 -63 -51v-190h152l-60 -74h-92v-282q46 9 93 9t94 -8q73 -14 144 -63l104 -84t85 -42q16 0 31 8q18 16 46 47z
" />
    <glyph glyph-name="currency" unicode="&#xa4;" horiz-adv-x="771" 
d="M745 712l-42 -59q-104 99 -246 99q-107 0 -195.5 -58.5t-131.5 -152.5h518l-60 -75h-483q-4 -18 -6 -35q-8 1 -5 1q-16 0 -28 -12t-12 -28q0 -5 1 -25h487l-60 -74h-415q34 -133 142.5 -218.5t247.5 -85.5q16 0 28 11.5t12 28.5q0 -3 -1 5q64 7 122 36l53 -53
q-100 -57 -214 -57q-152 0 -269 94t-151 239h-142l60 74h71q-1 22 -1 25q0 35 7 74h-137l60 75h97q46 125 156.5 204t248.5 79q164 0 288 -112z" />
    <glyph glyph-name="yen" unicode="&#xa5;" horiz-adv-x="764" 
d="M756 600q-59 -13 -59 -48v-79q-1 -7 -1 -27q0 -85 -90 -147.5t-209 -69.5v-34h187v-67h-123q0 1 1 3q0 16 -65 21v-60h187v-67h-123l1 2q0 16 -65 21v-187q0 -35 59 -48v-14h-186v14q60 13 60 48v186q-59 -5 -59 -20q0 -1 1 -2h-139v67h197v59q-59 -6 -59 -20q0 -1 1 -3
h-139v67h197v37q-105 11 -176 69t-76 136v-1v302q0 35 -60 48v14h186v-14q-59 -13 -59 -48v-166h-2v-7q-38 -11 -38 -66v-20h-1l1 -19q0 -96 77 -155q74 -57 186 -57q107 0 184.5 64t77.5 148v4.5v3.5v84q0 35 -60 48v14h186v-14z" />
    <glyph glyph-name="brokenbar" unicode="&#xa6;" horiz-adv-x="129" 
d="M98 370h-22q1 8 1 14q0 36 -13 63t-33 31v183q-3 4 67 4v-295zM98 30h-22q1 8 1 14q0 37 -13 63.5t-33 30.5v183q-3 4 67 4v-295z" />
    <glyph glyph-name="section" unicode="&#xa7;" horiz-adv-x="621" 
d="M595 2q0 -98 -83.5 -160t-202.5 -62q-95 0 -167 63q-89 78 -86 217h12q-2 -115 72 -190q70 -70 169 -70q110 0 184.5 58.5t74.5 142.5q0 57 -20 102q-34 80 -131 125q-15 7 -31 7q-34 0 -48 -33q-90 31 -207 108q-64 44 -64 131q0 49 23 94q-23 38 -23 87q0 61 33 112
q37 55 98 75q36 12 82 12q70 0 133 -26q69 -27 102 -74v0v0l-85 -86l-10 11q21 15 13 42q-3 8 -24 23h1q-58 35 -121 35q-56 0 -92 -28q-38 -31 -38 -85q0 -50 52 -87q25 -18 151 -73q109 -49 159 -100q74 -75 74 -190q0 -41 -17 -79q17 -46 17 -102zM568 182
q0 156 -151 227q-15 7 -31 7q-34 0 -48 -33q-75 25 -178 88q-1 -10 -1 -18q0 -62 82 -106q86 -40 171 -79q108 -55 150 -130q6 22 6 44z" />
    <glyph glyph-name="dieresis" unicode="&#xa8;" horiz-adv-x="428" 
d="M307 512q0 -14 -10 -24t-24 -10t-24 10t-10 24t10 24t24 10t24 -10t10 -24zM198 512q0 -14 -9.5 -24t-23.5 -10t-24 10t-10 24t10 24t24 10t23.5 -10t9.5 -24z" />
    <glyph glyph-name="copyright" unicode="&#xa9;" horiz-adv-x="457" 
d="M423 607q0 -80 -56.5 -136.5t-136.5 -56.5t-136.5 56.5t-56.5 136.5t56.5 136.5t136.5 56.5t136.5 -56.5t56.5 -136.5zM398 607q0 70 -49 119t-119 49t-119 -49t-49 -119t49 -119t119 -49t119 49t49 119zM306 553q-28 -53 -83 -50q-36 2 -60.5 32.5t-22.5 70.5
q2 41 29.5 68.5t64.5 24.5q48 -2 72 -48h-19q-21 35 -54 35q-31 0 -47 -34q-3 -8 -6.5 -20.5t-3.5 -21.5l2 -10q-19 -2 -19 -19q0 -15 12 -32q23 -33 57 -36q43 -4 65 40h13z" />
    <glyph glyph-name="guillemotleft" unicode="&#xab;" horiz-adv-x="337" 
d="M308 11l-12 -10l-125 151l125 156l12 -10q-28 -35 -28 -50q0 -11 10 -25l-56 -69l56 -68q-10 -14 -10 -25q0 -15 28 -50zM166 11l-12 -10l-124 151l124 156l12 -10q-27 -35 -27 -50q0 -11 9 -25l-56 -69l56 -68q-9 -14 -9 -25q0 -15 27 -50z" />
    <glyph glyph-name="logicalnot" unicode="&#xac;" horiz-adv-x="472" 
d="M437 243h-28q0 94 -56 119q-30 14 -140 14q-15 -1 -180 0v23h404v-156z" />
    <glyph glyph-name="minus" unicode="&#xad;" horiz-adv-x="374" 
d="M325 377q-8 1 -14 1q-37 0 -63.5 -13.5t-30.5 -32.5h-183q-4 -3 -4 67h295v-22z" />
    <glyph glyph-name="minus" unicode="&#x2212;" horiz-adv-x="374" 
d="M325 377q-8 1 -14 1q-37 0 -63.5 -13.5t-30.5 -32.5h-183q-4 -3 -4 67h295v-22z" />
    <glyph glyph-name="registered" unicode="&#xae;" horiz-adv-x="447" 
d="M423 607q0 -80 -56.5 -136.5t-136.5 -56.5t-136.5 56.5t-56.5 136.5t56.5 136.5t136.5 56.5t136.5 -56.5t56.5 -136.5zM398 607q0 70 -49 119t-119 49t-119 -49t-49 -119t49 -119t119 -49t119 49t49 119zM338 639l-13 1v5q0 15 -16.5 27t-41.5 12t-42 -11t-17 -26v-116
q0 -18 30 -24v-7h-93v7q30 6 30 24v137q0 18 -30 25v7h122q27 0 49 -14t22 -35v-12z" />
    <glyph glyph-name="macron" unicode="&#xaf;" horiz-adv-x="388" 
d="M355 829h-61q0 1 1 2q0 10 -28 16.5t-68 6.5q-39 0 -67 -6.5t-28 -16.5l1 -2h-76v67h326v-67z" />
    <glyph glyph-name="macron" unicode="&#x2c9;" horiz-adv-x="388" 
d="M355 829h-61q0 1 1 2q0 10 -28 16.5t-68 6.5q-39 0 -67 -6.5t-28 -16.5l1 -2h-76v67h326v-67z" />
    <glyph glyph-name="degree" unicode="&#xb0;" horiz-adv-x="127" 
 />
    <glyph glyph-name="plusminus" unicode="&#xb1;" horiz-adv-x="467" 
d="M396 347h-76q-5 13 -53 18v-148h-67v149q-61 -4 -68 -19h-62v67h130v130h67v-130h129v-67zM398 116h-62q1 1 1 3q0 9 -28 15.5t-67 6.5t-67 -6.5t-28 -15.5q0 -1 1 -3h-76v67h326v-67z" />
    <glyph glyph-name="acute" unicode="&#xb4;" horiz-adv-x="256" 
d="M189 582l-17 -53q-28 2 -40.5 -12t-29.5 -58l-19 6l46 136z" />
    <glyph glyph-name="paragraph" unicode="&#xb6;" horiz-adv-x="637" 
d="M607 369q-43 -41 -104 -66v-247h-1q6 -32 59 -44v-14h-186v14q60 13 60 49v222q-40 -8 -79 -8q-33 0 -65 5v-224v0q5 -32 59 -44v-14h-187v14q60 13 60 49v237q-88 31 -142 97.5t-54 147.5q0 108 94 189q91 79 204 79h238v-14q-38 -8 -43 -11q-17 -10 -17 -37v-433
q55 23 95 61zM435 295v444q-59 1 -94 1q-25 0 -50 -4v-443q32 -6 63 -6q40 0 81 8zM223 313v403q-116 -53 -133 -172q-35 0 -35 -50q0 -23 9 -43q15 -32 53 -67q47 -46 106 -71z" />
    <glyph glyph-name="periodcentered" unicode="&#xb7;" horiz-adv-x="132" 
d="M101 399q0 -14 -10 -24t-24 -10t-24 10t-10 24t10 24t24 10t24 -10t10 -24z" />
    <glyph glyph-name="periodcentered" unicode="&#x2219;" horiz-adv-x="132" 
d="M101 399q0 -14 -10 -24t-24 -10t-24 10t-10 24t10 24t24 10t24 -10t10 -24z" />
    <glyph glyph-name="cedilla" unicode="&#xb8;" horiz-adv-x="208" 
d="M181 -73q1 -92 -2 -114q-11 -46 -47.5 -82t-81.5 -49q-17 -4 -17 -26v241h17q19 0 19 -18q0 -19 -19 -19q-1 -47 0 -159q26 6 58 35q38 33 49 69q4 15 4 30q0 65 -54 92v16v0v57h72v-57h-31q7 -8 11 -16h22z" />
    <glyph glyph-name="guillemotright" unicode="&#xbb;" horiz-adv-x="337" 
d="M308 149l-125 -151l-12 10q27 35 27 50q0 11 -9 25l56 68l-56 69q9 14 9 25q0 15 -27 50l12 10zM166 149l-125 -151l-12 10q28 35 28 50q0 11 -10 25l56 68l-56 69q10 14 10 25q0 15 -28 50l12 10z" />
    <glyph glyph-name="questiondown" unicode="&#xbf;" horiz-adv-x="469" 
d="M225 587q0 -15 -10 -24.5t-24 -9.5t-24 9.5t-10 24.5q0 14 10 23.5t24 9.5t24 -9.5t10 -23.5zM335 82q-18 30 -61 64q-60 47 -69 56q-65 65 -62 172q2 55 17 99h21q-16 -36 -19 -88q-3 -100 38 -148q15 -18 39 -34q30 -20 53 -20q15 0 25 10q110 -77 110 -199
q0 -81 -57 -133q-63 -59 -177 -59q-102 0 -160 65l37 46q45 -47 123 -47q84 0 128 41q38 34 38 90q0 45 -24 85z" />
    <glyph glyph-name="Agrave" unicode="&#xc0;" 
d="M494 837l-19 -7q-17 45 -28 57q-14 15 -42 13l-17 54l60 18zM920 402q0 -6 -2 -13v-1q0 -53 -82 -82q-60 -21 -120 -21q-14 0 -33 2l87 -227q21 -39 60 -48v-14h-186v14q61 13 61 41q0 4 -1 7l-94 242q-66 20 -133 40q-85 25 -147 34l-41 -93q83 -5 127 -51
q39 -42 39 -107q0 -67 -63 -113t-149 -46q-80 0 -147 56t-72 121q-2 17 -2 34q0 119 76 181q64 52 159 52q22 0 52 -3l176 393l1 -1v1l14 -40l175 -451q24 -5 42 -5q84 0 135 29q48 28 48 69q0 90 -89 90q-17 0 -31 -3l-15 15q20 7 45 7q110 0 110 -109zM600 329l-135 351
l-123 -278q58 -9 135 -33q62 -20 123 -40zM426 125q0 127 -172 128h-15l57 126q-20 1 -36 1q-138 0 -187 -107q-28 -62 -21 -129q4 -51 59 -98q60 -50 132 -50q78 0 130.5 38.5t52.5 90.5z" />
    <glyph glyph-name="Aacute" unicode="&#xc1;" 
d="M575 954l-17 -54q-29 2 -41.5 -11.5t-28.5 -58.5l-19 7l45 135zM920 402q0 -6 -2 -13v-1q0 -53 -82 -82q-60 -21 -120 -21q-14 0 -33 2l87 -227q21 -39 60 -48v-14h-186v14q61 13 61 41q0 4 -1 7l-94 242q-66 20 -133 40q-85 25 -147 34l-41 -93q83 -5 127 -51
q39 -42 39 -107q0 -67 -63 -113t-149 -46q-80 0 -147 56t-72 121q-2 17 -2 34q0 119 76 181q64 52 159 52q22 0 52 -3l176 393l1 -1v1l14 -40l175 -451q24 -5 42 -5q84 0 135 29q48 28 48 69q0 90 -89 90q-17 0 -31 -3l-15 15q20 7 45 7q110 0 110 -109zM600 329l-135 351
l-123 -278q58 -9 135 -33q62 -20 123 -40zM426 125q0 127 -172 128h-15l57 126q-20 1 -36 1q-138 0 -187 -107q-28 -62 -21 -129q4 -51 59 -98q60 -50 132 -50q78 0 130.5 38.5t52.5 90.5z" />
    <glyph glyph-name="Acircumflex" unicode="&#xc2;" 
d="M641 872l-10 -12q-35 28 -50 28q-11 0 -25 -10l-69 56l-68 -56q-14 10 -25 10q-15 0 -50 -28l-10 12l151 125zM920 402q0 -6 -2 -13v-1q0 -53 -82 -82q-60 -21 -120 -21q-14 0 -33 2l87 -227q21 -39 60 -48v-14h-186v14q61 13 61 41q0 4 -1 7l-94 242q-66 20 -133 40
q-85 25 -147 34l-41 -93q83 -5 127 -51q39 -42 39 -107q0 -67 -63 -113t-149 -46q-80 0 -147 56t-72 121q-2 17 -2 34q0 119 76 181q64 52 159 52q22 0 52 -3l176 393l1 -1v1l14 -40l175 -451q24 -5 42 -5q84 0 135 29q48 28 48 69q0 90 -89 90q-17 0 -31 -3l-15 15
q20 7 45 7q110 0 110 -109zM600 329l-135 351l-123 -278q58 -9 135 -33q62 -20 123 -40zM426 125q0 127 -172 128h-15l57 126q-20 1 -36 1q-138 0 -187 -107q-28 -62 -21 -129q4 -51 59 -98q60 -50 132 -50q78 0 130.5 38.5t52.5 90.5z" />
    <glyph glyph-name="Atilde" unicode="&#xc3;" horiz-adv-x="926" 
d="M757 884q1 -2 -16 -11.5t-21 -11.5q-26 -9 -53 -9q-41 0 -115 27q-12 5 -24 5q-25 0 -34 -19q-30 13 -95 6q-18 -4 -33 -8q-36 -10 -50 -25l-36 46q28 23 73 37q40 11 85 11q46 0 78 -12q78 -30 81 -31q43 -15 74 -15q41 0 76 25zM918 402q0 -6 -2 -13v-1q0 -53 -82 -82
q-60 -21 -120 -21q-14 0 -33 2l87 -227q21 -39 60 -48v-14h-186v14q61 13 61 41q0 4 -1 7l-94 242q-66 20 -133 40q-85 25 -147 34l-41 -93q83 -5 127 -51q39 -42 39 -107q0 -67 -63 -113t-149 -46q-80 0 -147 56t-72 121q-2 17 -2 34q0 119 76 181q64 52 159 52q22 0 52 -3
l176 393l1 -1v1l14 -40l175 -451q24 -5 42 -5q84 0 135 29q48 28 48 69q0 90 -89 90q-17 0 -31 -3l-15 15q20 7 45 7q110 0 110 -109zM598 329l-135 351l-123 -278q58 -9 135 -33q62 -20 123 -40zM424 125q0 127 -172 128h-15l57 126q-20 1 -36 1q-138 0 -187 -107
q-28 -62 -21 -129q4 -51 59 -98q60 -50 132 -50q78 0 130.5 38.5t52.5 90.5z" />
    <glyph glyph-name="Adieresis" unicode="&#xc4;" 
d="M574 880q0 -14 -10 -24t-24 -10t-24 10t-10 24t10 24t24 10t24 -10t10 -24zM465 880q0 -14 -9.5 -24t-23.5 -10t-24 10t-10 24t10 24t24 10t23.5 -10t9.5 -24zM920 402q0 -6 -2 -13v-1q0 -53 -82 -82q-60 -21 -120 -21q-14 0 -33 2l87 -227q21 -39 60 -48v-14h-186v14
q61 13 61 41q0 4 -1 7l-94 242q-66 20 -133 40q-85 25 -147 34l-41 -93q83 -5 127 -51q39 -42 39 -107q0 -67 -63 -113t-149 -46q-80 0 -147 56t-72 121q-2 17 -2 34q0 119 76 181q64 52 159 52q22 0 52 -3l176 393l1 -1v1l14 -40l175 -451q24 -5 42 -5q84 0 135 29
q48 28 48 69q0 90 -89 90q-17 0 -31 -3l-15 15q20 7 45 7q110 0 110 -109zM600 329l-135 351l-123 -278q58 -9 135 -33q62 -20 123 -40zM426 125q0 127 -172 128h-15l57 126q-20 1 -36 1q-138 0 -187 -107q-28 -62 -22 -129q5 -51 60 -98q60 -50 132 -50q78 0 130.5 38.5
t52.5 90.5z" />
    <glyph glyph-name="Aring" unicode="&#xc5;" 
d="M523 884q0 -17 -12 -29t-29 -12t-29 12t-12 29t12 29t29 12t29 -12t12 -29zM920 402q0 -6 -2 -13v-1q0 -53 -82 -82q-60 -21 -120 -21q-14 0 -33 2l87 -227q21 -39 60 -48v-14h-186v14q61 13 61 41q0 4 -1 7l-94 242q-66 20 -133 40q-85 25 -147 34l-41 -93
q83 -5 127 -51q39 -42 39 -107q0 -67 -63 -113t-149 -46q-80 0 -147 56t-72 121q-2 17 -2 34q0 119 76 181q64 52 159 52q22 0 52 -3l176 393l1 -1v1l14 -40l175 -451q24 -5 42 -5q84 0 135 29q48 28 48 69q0 90 -89 90q-17 0 -31 -3l-15 15q20 7 45 7q110 0 110 -109z
M509 883q0 27 -27 27t-27 -27t27 -27t27 27zM600 329l-135 351l-123 -278q58 -9 135 -33q62 -20 123 -40zM426 125q0 127 -172 128h-15l57 126q-20 1 -36 1q-138 0 -187 -107q-28 -62 -22 -129q5 -51 60 -98q60 -50 132 -50q78 0 130.5 38.5t52.5 90.5z" />
    <glyph glyph-name="AE" unicode="&#xc6;" horiz-adv-x="1224" 
d="M1191 206v-40q0 -69 -65 -117.5t-153 -48.5h-141v0h-186v14q54 12 61 42q0 3 -1 6l-94 242q-66 20 -133 40q-85 25 -147 34l-41 -93q83 -5 127 -51q39 -42 39 -107q0 -67 -63 -113t-149 -46q-80 0 -147 56t-72 120q-2 18 -2 35q0 113 68 174q64 58 174 58q22 0 45 -2
l176 393l1 -1v1q58 -163 220 -574v512q0 35 -60 48v14h321q90 0 156 -47t66 -115v-40h-28v40q0 61 -62 98q-57 33 -136 33q-68 0 -120 -26q-56 -29 -71 -81v-264h244v-28h-244v-231q15 -52 71 -81q52 -26 120 -26q79 0 136 34q62 37 62 98v40h28zM602 331l-135 351
l-123 -277q58 -10 135 -34q62 -20 123 -40zM427 127q0 126 -186 128l57 126q-111 8 -177 -46q-69 -56 -69 -160q0 -14 1 -30q5 -50 60 -97q60 -51 132 -51q78 0 130 39t52 91z" />
    <glyph glyph-name="Ccedilla" unicode="&#xc7;" horiz-adv-x="778" 
d="M775 715l-42 -59q-103 98 -245 98q-137 0 -239 -92t-116 -227q-8 1 -5 1q-17 0 -28.5 -11.5t-11.5 -28.5q0 -165 117.5 -282.5t282.5 -117.5q17 0 28.5 11.5t11.5 27.5q0 -2 -1 5q63 7 121 36l53 -53q-84 -48 -180 -55v-55h-31q6 -9 11 -17h22q1 -91 -2 -114
q-11 -46 -47.5 -82t-81.5 -48q-17 -5 -17 -27v241h17q19 0 19 -18q0 -19 -19 -19q-1 -47 0 -159q26 7 58 35q38 34 48 70q5 14 5 29q0 65 -54 92v17v0v56q-164 15 -277 137.5t-113 289.5q0 178 126 303.5t303 125.5q164 0 287 -110z" />
    <glyph glyph-name="Egrave" unicode="&#xc8;" horiz-adv-x="625" 
d="M320 837l-19 -7q-17 45 -28 57q-14 15 -42 13l-17 54l60 18zM595 201v-40q0 -69 -66 -115t-156 -47v-1q-232 0 -220 0h-60q-4 0 1 1h-49v14q58 12 60 48l3 52v258h-36q-24 0 -35 -27q-3 -6 -13 -53h-14v187h14q4 -27 8 -53q9 -27 40 -27h36v340q0 35 -60 48v14h323
q90 0 157 -46.5t67 -115.5v-40h-28l-1 40q0 53 -56 93t-139 40q-82 0 -139 -38.5t-57 -90.5v-244h244v-27h-244v-210q0 -53 56.5 -93t139.5 -40t139.5 40t56.5 93v40h28z" />
    <glyph glyph-name="Eacute" unicode="&#xc9;" horiz-adv-x="625" 
d="M420 954l-17 -54q-29 2 -41.5 -11.5t-28.5 -58.5l-19 7l45 135zM595 201v-40q0 -69 -66 -115t-156 -47v-1h-279v1h-49v14q58 12 60 48l3 52v258h-36q-24 0 -35 -27q-3 -6 -13 -53h-14v187h14q4 -27 8 -53q9 -27 40 -27h36v340q0 35 -60 48v14h323q90 0 157 -46.5
t67 -115.5v-40h-28l-1 40q0 53 -56 93t-139 40q-82 0 -139 -38.5t-57 -90.5v-244h244v-27h-244v-210q0 -53 56.5 -93t139.5 -40t139.5 40t56.5 93v40h28z" />
    <glyph glyph-name="Ecircumflex" unicode="&#xca;" horiz-adv-x="625" 
d="M468 872l-10 -12q-35 28 -50 28q-11 0 -25 -10l-69 56l-68 -56q-14 10 -25 10q-15 0 -50 -28l-10 12l151 125zM595 201v-40q0 -69 -66 -115t-156 -47v-1h-279v1h-49v14q58 12 60 48l3 52v258h-36q-24 0 -35 -27q-3 -6 -13 -53h-14v187h14q4 -27 8 -53q9 -27 40 -27h36
v340q0 35 -60 48v14h323q90 0 157 -46.5t67 -115.5v-40h-28l-1 40q0 53 -56 93t-139 40q-82 0 -139 -38.5t-57 -90.5v-244h244v-27h-244v-210q0 -53 56.5 -93t139.5 -40t139.5 40t56.5 93v40h28z" />
    <glyph glyph-name="Edieresis" unicode="&#xcb;" horiz-adv-x="625" 
d="M389 880q0 -14 -10 -24t-24 -10t-24 10t-10 24t10 24t24 10t24 -10t10 -24zM280 880q0 -14 -9.5 -24t-23.5 -10t-24 10t-10 24t10 24t24 10t23.5 -10t9.5 -24zM595 201v-40q0 -69 -66 -115t-156 -47v-1h-279v1h-49v14q58 12 60 48l3 52v258h-36q-24 0 -35 -27
q-3 -6 -13 -53h-14v187h14q4 -27 8 -53q9 -27 40 -27h36v340q0 35 -60 48v14h323q90 0 157 -46.5t67 -115.5v-40h-28l-1 40q0 53 -56 93t-139 40q-82 0 -139 -38.5t-57 -90.5v-244h244v-27h-244v-210q0 -53 56.5 -93t139.5 -40t139.5 40t56.5 93v40h28z" />
    <glyph glyph-name="Igrave" unicode="&#xcc;" horiz-adv-x="227" 
d="M207 -2h-187v14q60 13 60 48v483q19 4 32.5 30.5t13.5 63.5q0 6 -1 14h22v-591q0 -35 60 -48v-14zM135 688l-19 -7q-17 45 -28 57q-14 15 -42 13l-17 54l60 18z" />
    <glyph glyph-name="Iacute" unicode="&#xcd;" horiz-adv-x="227" 
d="M209 805l-17 -54q-29 2 -41.5 -11.5t-28.5 -58.5l-19 7l45 135zM207 -2h-187v14q60 13 60 48v483q19 4 32.5 30.5t13.5 63.5q0 6 -1 14h22v-591q0 -35 60 -48v-14z" />
    <glyph glyph-name="Icircumflex" unicode="&#xce;" horiz-adv-x="227" 
d="M285 723l-10 -12q-35 28 -50 28q-11 0 -25 -10l-69 56l-68 -56q-14 10 -25 10q-15 0 -50 -28l-10 12l151 125zM207 -2h-187v14q60 13 60 48v483q19 4 32.5 30.5t13.5 63.5q0 6 -1 14h22v-591q0 -35 60 -48v-14z" />
    <glyph glyph-name="Idieresis" unicode="&#xcf;" horiz-adv-x="227" 
d="M212 766q0 -14 -9.5 -24t-23.5 -10t-24 10t-10 24t10 24t24 10t23.5 -10t9.5 -24zM104 766q0 -14 -10 -24t-24 -10t-24 10t-10 24t10 24t24 10t24 -10t10 -24zM207 -2h-187v14q60 13 60 48v483q19 4 32.5 30.5t13.5 63.5q0 6 -1 14h22v-591q0 -35 60 -48v-14z" />
    <glyph glyph-name="Ntilde" unicode="&#xd1;" horiz-adv-x="819" 
d="M645 874q1 -2 -16 -11.5t-21 -10.5q-25 -9 -53 -9q-40 0 -115 27q-12 4 -24 4q-25 0 -34 -19q-30 14 -95 6q-18 -3 -33 -8q-36 -10 -50 -25l-35 46q27 24 72 37q41 11 86 11t78 -12q77 -30 80 -31q43 -14 74 -14q41 0 76 24zM802 785q-63 -14 -63 -51v-783q0 8 -7.5 22
t-18.5 21q-159 80 -228 135q-119 95 -119 205v124h22q17 28 43 41q-33 143 -280 255v-691q0 -38 64 -52v-15h-199v15q64 14 64 52l-1 782q0 -7 7.5 -21.5t18.5 -21.5q160 -80 228 -135q119 -95 119 -204v-125h-22q-16 -28 -43 -40q34 -144 280 -256v692q0 37 -63 51v15h198
v-15zM436 457q-25 -2 -40 -41q-13 -33 -13 -77q25 3 39 41q13 33 14 77z" />
    <glyph glyph-name="Ograve" unicode="&#xd2;" horiz-adv-x="826" 
d="M433 837l-19 -7q-17 45 -28 57q-14 15 -42 13l-17 54l60 18zM787 386q-6 -169 -119 -285t-267 -111q-155 5 -260.5 128t-100.5 293q5 169 118 285t268 111t260.5 -128.5t100.5 -292.5zM738 375q0 116 -54 218q-62 118 -168 160q-44 18 -87 18q-69 0 -126 -45
q-53 -42 -83 -110q-16 -37 -29 -98t-13 -99q0 -33 11 -31q-82 -13 -82 -82q0 -65 56 -140q44 -61 109 -103q73 -47 146 -51q134 -9 227.5 97.5t92.5 265.5z" />
    <glyph glyph-name="Oacute" unicode="&#xd3;" horiz-adv-x="826" 
d="M521 953l-17 -53q-28 2 -40.5 -12t-28.5 -58l-20 6l46 136zM787 386q-6 -169 -119 -285t-267 -111q-155 5 -260.5 128t-100.5 293q5 169 118 285t268 111t260.5 -128.5t100.5 -292.5zM738 375q0 116 -54 218q-62 118 -168 160q-44 18 -87 18q-69 0 -126 -45
q-53 -42 -83 -110q-16 -37 -29 -98t-13 -99q0 -33 11 -31q-82 -13 -82 -82q0 -65 56 -140q44 -61 109 -103q73 -47 146 -51q134 -9 227.5 97.5t92.5 265.5z" />
    <glyph glyph-name="Ocircumflex" unicode="&#xd4;" horiz-adv-x="826" 
d="M572 872l-10 -12q-35 28 -50 28q-11 0 -25 -10l-68 56l-69 -56q-14 10 -24 10q-15 0 -51 -28l-10 12l151 125zM787 386q-6 -169 -119 -285t-267 -111q-155 5 -260.5 128t-100.5 293q5 169 118 285t268 111t260.5 -128.5t100.5 -292.5zM738 375q0 116 -54 218
q-62 118 -168 160q-44 18 -87 18q-69 0 -126 -45q-53 -42 -83 -110q-16 -37 -29 -98t-13 -99q0 -33 11 -31q-82 -13 -82 -82q0 -65 56 -140q44 -61 109 -103q73 -47 146 -51q134 -9 227.5 97.5t92.5 265.5z" />
    <glyph glyph-name="Otilde" unicode="&#xd5;" horiz-adv-x="826" 
d="M666 884q1 -2 -16.5 -11.5t-21.5 -11.5q-25 -9 -52 -9q-41 0 -115 27q-12 5 -25 5q-24 0 -33 -19q-30 13 -95 6q-19 -4 -34 -8q-36 -10 -49 -25l-36 46q28 23 73 37q40 11 85 11t78 -12q78 -30 80 -31q44 -15 75 -15q41 0 76 25zM787 386q-6 -169 -119 -285t-267 -111
q-155 5 -260.5 128t-100.5 293q5 169 118 285t268 111t260.5 -128.5t100.5 -292.5zM738 375q0 116 -54 218q-62 118 -168 160q-44 18 -87 18q-69 0 -126 -45q-53 -42 -83 -110q-16 -37 -29 -98t-13 -99q0 -33 11 -31q-82 -13 -82 -82q0 -65 56 -140q44 -61 109 -103
q73 -47 146 -51q134 -9 227.5 97.5t92.5 265.5z" />
    <glyph glyph-name="Odieresis" unicode="&#xd6;" horiz-adv-x="826" 
d="M506 880q0 -14 -10 -24t-24 -10t-24 10t-10 24t10 24t24 10t24 -10t10 -24zM397 880q0 -14 -9.5 -24t-23.5 -10t-24 10t-10 24t10 24t24 10t23.5 -10t9.5 -24zM787 386q-6 -169 -119 -285t-267 -111q-155 5 -260.5 128t-100.5 293q5 169 118 285t268 111t260.5 -128.5
t100.5 -292.5zM738 375q0 116 -54 218q-62 118 -168 160q-44 18 -87 18q-69 0 -126 -45q-53 -42 -83 -110q-16 -37 -29 -98t-13 -99q0 -33 11 -31q-82 -13 -82 -82q0 -65 56 -140q44 -61 109 -103q73 -47 146 -51q134 -9 227.5 97.5t92.5 265.5z" />
    <glyph glyph-name="multiply" unicode="&#xd7;" horiz-adv-x="364" 
d="M320 242l-47 -48l-54 54q5 13 -25 51l-105 -105l-47 48l105 105q-46 40 -61 35l-44 43l47 48l92 -92l92 92l47 -48l-91 -91z" />
    <glyph glyph-name="Oslash" unicode="&#xd8;" horiz-adv-x="821" 
d="M806 711l-1 -12q-11 1 -21 1q-49 0 -66 -23l-13 -19q83 -117 78 -266q-5 -170 -117.5 -287t-265.5 -112q-154 5 -259 129t-100 294t117.5 287t266.5 112q136 -5 237 -106l30 42zM634 672q-51 62 -119 89q-45 18 -87 18q-69 0 -126 -45q-52 -42 -82 -111
q-16 -37 -29 -98.5t-13 -99.5q0 -33 11 -32q-81 -12 -81 -81q0 -66 55 -142q25 -35 62 -67zM735 381q-1 125 -62 234l-162 -225q-11 4 -20 4q-28 0 -77 -64q-87 -121 -173 -241q85 -68 176 -74q133 -8 226 99t92 267z" />
    <glyph glyph-name="Ugrave" unicode="&#xd9;" horiz-adv-x="779" 
d="M396 836l-19 -7q-16 45 -28 57q-13 16 -42 14l-17 53l61 19zM759 -2h-127v102q-40 -47 -106 -75q-69 -29 -148 -29q-121 0 -207 60.5t-91 147.5v-1v533q0 35 -60 48v14h186v-14q-59 -13 -59 -48v-397h-2v-6q-38 -12 -38 -67q0 -19 -1 -20l1 -19q0 -96 77 -155
q74 -57 186 -57q102 0 178 58.5t84 138.5v269q0 35 -60 48v14h187v-14q-60 -13 -60 -48v-421q0 -35 60 -48v-14z" />
    <glyph glyph-name="Uacute" unicode="&#xda;" horiz-adv-x="779" 
d="M487 953l-17 -53q-29 2 -42 -14q-12 -12 -28 -57l-19 7l45 136zM759 -2h-127v102q-40 -47 -106 -75q-69 -29 -148 -29q-121 0 -207 60.5t-91 147.5v-1v533q0 35 -60 48v14h186v-14q-59 -13 -59 -48v-397h-2v-6q-38 -12 -38 -67q0 -19 -1 -20l1 -19q0 -96 77 -155
q74 -57 186 -57q102 0 178 58.5t84 138.5v269q0 35 -60 48v14h187v-14q-60 -13 -60 -48v-421q0 -35 60 -48v-14z" />
    <glyph glyph-name="Ucircumflex" unicode="&#xdb;" horiz-adv-x="779" 
d="M546 872l-10 -12q-35 28 -50 28q-11 0 -25 -10l-69 56l-68 -56q-14 10 -25 10q-15 0 -50 -28l-10 12l151 125zM759 -2h-127v102q-40 -47 -106 -75q-69 -29 -148 -29q-121 0 -207 60.5t-91 147.5v-1v533q0 35 -60 48v14h186v-14q-59 -13 -59 -48v-397h-2v-6
q-38 -12 -38 -67q0 -19 -1 -20l1 -19q0 -96 77 -155q74 -57 186 -57q102 0 178 58.5t84 138.5v269q0 35 -60 48v14h187v-14q-60 -13 -60 -48v-421q0 -35 60 -48v-14z" />
    <glyph glyph-name="Udieresis" unicode="&#xdc;" horiz-adv-x="779" 
d="M472 880q0 -14 -10 -24t-24 -10t-24 10t-10 24t10 24t24 10t24 -10t10 -24zM363 880q0 -14 -9.5 -24t-23.5 -10t-24 10t-10 24t10 24t24 10t23.5 -10t9.5 -24zM759 -2h-127v102q-40 -47 -106 -75q-69 -29 -148 -29q-121 0 -207 60.5t-91 147.5v-1v533q0 35 -60 48v14h186
v-14q-59 -13 -59 -48v-397h-2v-6q-38 -12 -38 -67q0 -19 -1 -20l1 -19q0 -96 77 -155q74 -57 186 -57q102 0 178 58.5t84 138.5v269q0 35 -60 48v14h187v-14q-60 -13 -60 -48v-421q0 -35 60 -48v-14z" />
    <glyph glyph-name="Yacute" unicode="&#xdd;" horiz-adv-x="764" 
d="M481 954l-17 -54q-29 2 -41.5 -11.5t-28.5 -58.5l-19 7l45 135zM756 600q-59 -13 -59 -48v-79q-1 -7 -1 -27q0 -85 -90 -147.5t-209 -69.5v-168q0 -35 59 -48v-14h-186v14q60 13 60 48v171q-105 11 -176 69t-76 136v-1v302q0 35 -60 48v14h186v-14q-59 -13 -59 -48v-166
h-2v-7q-38 -11 -38 -66v-20h-1l1 -19q0 -96 77 -155q74 -57 186 -57q107 0 184.5 64t77.5 148v4.5v3.5v84q0 35 -60 48v14h186v-14z" />
    <glyph glyph-name="germandbls" unicode="&#xdf;" horiz-adv-x="571" 
d="M528 618q0 -123 -118 -199q116 -74 116 -204q0 -129 -128 -199q-47 -25 -102 -25q-73 0 -175 49v-169h-71v856l10 10q21 22 60 43q76 41 168 41q87 0 157 -49q83 -58 83 -154zM494 203q0 29 -30 29q-5 0 -11 -2q-6 73 -67 119q-31 24 -63 34l-7 2v64h1q70 35 101 68
q38 42 38 101q0 66 -63 103q-49 29 -105 29q-102 0 -167 -54v-576q51 -26 86 -39q-11 -9 -11 -22q0 -22 22 -28q40 -11 76 -11q52 0 94 23q106 57 106 160z" />
    <glyph glyph-name="agrave" unicode="&#xe0;" horiz-adv-x="434" 
d="M249 464l-19 -6q-17 44 -28 57q-14 15 -42 13l-17 53l60 19zM414 1h-127v235q-34 -14 -96 -43q-7 14 -27 14q-34 0 -69 -33q-38 -36 -38 -79q0 -92 96 -92q26 0 52 7q23 6 28 11v-13q-23 -16 -87 -16q-112 0 -112 103q0 67 66 113q11 8 122 62q66 32 65 66q0 31 -25 49
t-61 18q-46 0 -77 -27q-36 -30 -34 -82q0 -6 1 -17h-11q-5 65 37 103q39 35 104 35q51 0 89 -22q41 -25 43 -62h1v-268q0 -30 17 -38q0 -1 43 -10v-14z" />
    <glyph glyph-name="aacute" unicode="&#xe1;" horiz-adv-x="433" 
d="M300 581l-17 -53q-28 2 -40.5 -12t-28.5 -58l-20 6l46 136zM414 1h-127v235q-34 -14 -96 -43q-7 14 -27 14q-34 0 -69 -33q-38 -36 -38 -79q0 -92 96 -92q26 0 52 7q23 6 28 11v-13q-23 -16 -87 -16q-112 0 -112 103q0 67 66 113q11 8 122 62q66 32 65 66q0 31 -25 49
t-61 18q-46 0 -77 -27q-36 -30 -34 -82q0 -6 1 -17h-11q-5 65 37 103q39 35 104 35q51 0 89 -22q41 -25 43 -62h1v-268q0 -30 17 -38q0 -1 43 -10v-14z" />
    <glyph glyph-name="acircumflex" unicode="&#xe2;" horiz-adv-x="434" 
d="M370 496l-10 -13q-35 28 -50 28q-11 0 -25 -10l-69 56l-68 -56q-14 10 -25 10q-15 0 -50 -28l-10 13l151 124zM414 1h-127v235q-34 -14 -96 -43q-7 14 -27 14q-34 0 -69 -33q-38 -36 -38 -79q0 -92 96 -92q26 0 52 7q23 6 28 11v-13q-23 -16 -87 -16q-112 0 -112 103
q0 67 66 113q11 8 122 62q66 32 65 66q0 31 -25 49t-61 18q-46 0 -77 -27q-36 -30 -34 -82q0 -6 1 -17h-11q-5 65 37 103q39 35 104 35q51 0 89 -22q41 -25 43 -62h1v-268q0 -30 17 -38q0 -1 43 -10v-14z" />
    <glyph glyph-name="atilde" unicode="&#xe3;" horiz-adv-x="434" 
d="M511 512q1 -2 -16.5 -11.5t-21.5 -11.5q-25 -9 -52 -9q-41 0 -115 27q-13 5 -25 5q-24 0 -33 -19q-30 13 -95 6q-19 -3 -34 -8q-36 -10 -49 -25l-36 46q28 23 73 37q40 11 85 11t78 -12q78 -30 80 -31q44 -15 75 -15q41 0 75 25zM413 1h-126v235q-34 -14 -96 -43
q-8 14 -27 14q-34 0 -69 -33q-39 -36 -39 -79q0 -92 96 -92q26 0 53 7q23 6 27 11v-13q-22 -16 -86 -16q-112 0 -112 103q0 67 65 113q12 8 123 62q65 32 65 66q0 31 -25.5 49t-61.5 18q-45 0 -77 -27q-36 -30 -33 -82q0 -6 1 -17h-11q-6 65 36 103q39 35 104 35
q52 0 90 -22q41 -25 43 -62h1v-268q0 -30 16 -38q1 -1 43 -10v-14z" />
    <glyph glyph-name="adieresis" unicode="&#xe4;" horiz-adv-x="434" 
d="M313 516q0 -14 -10 -24t-24 -10t-24 10t-10 24t10 24t24 10t24 -10t10 -24zM204 516q0 -14 -9.5 -24t-23.5 -10t-24 10t-10 24t10 24t24 10t23.5 -10t9.5 -24zM414 1h-127v235q-34 -14 -96 -43q-7 14 -27 14q-34 0 -69 -33q-38 -36 -38 -79q0 -92 96 -92q26 0 52 7
q23 6 28 11v-13q-23 -16 -87 -16q-112 0 -112 103q0 67 66 113q11 8 122 62q66 32 65 66q0 31 -25 49t-61 18q-46 0 -77 -27q-36 -30 -34 -82q0 -6 1 -17h-11q-5 65 37 103q39 35 104 35q51 0 89 -22q41 -25 43 -62h1v-268q0 -30 17 -38q0 -1 43 -10v-14z" />
    <glyph glyph-name="aring" unicode="&#xe5;" horiz-adv-x="434" 
d="M264 558q0 -17 -12 -29t-29 -12t-29 12t-12 29t12 29.5t29 12.5t29 -12.5t12 -29.5zM414 1h-127v235q-34 -14 -96 -43q-7 14 -27 14q-34 0 -69 -33q-38 -36 -38 -79q0 -92 96 -92q26 0 52 7q23 6 28 11v-13q-23 -16 -87 -16q-112 0 -112 103q0 67 66 113q11 8 122 62
q66 32 65 66q0 31 -25 49t-61 18q-46 0 -77 -27q-36 -30 -34 -82q0 -6 1 -17h-11q-5 65 37 103q39 35 104 35q51 0 89 -22q41 -25 43 -62h1v-268q0 -30 17 -38q0 -1 43 -10v-14zM250 557q0 27 -27 27t-27 -27t27 -27t27 27z" />
    <glyph glyph-name="ae" unicode="&#xe6;" horiz-adv-x="714" 
d="M686 219h-34v1h-265q-1 -12 0 -18t5 -6q-33 -4 -39 -29v-23q5 -28 24 -55q48 -71 120 -78q44 -4 80.5 20t57.5 67h27q-26 -51 -73 -80.5t-101 -26.5q-25 2 -50 11l2 -1h-154v235q-34 -14 -96 -43q-7 14 -27 14q-34 0 -69 -33q-38 -36 -38 -79q0 -92 96 -92q26 0 52 7
q23 6 28 11v-13q-23 -16 -87 -16q-112 0 -112 103q0 67 66 113q11 8 122 62q66 32 65 66q0 31 -25 49t-61 18q-46 0 -77 -27q-36 -30 -34 -82q0 -6 1 -17h-11q-5 65 37 103q39 35 104 35q51 0 89 -22q41 -25 43 -62h1v-3q61 84 157 79q71 -4 120.5 -58t55.5 -130zM646 248
q-24 92 -93 121q-22 10 -44 10q-66 0 -100 -73q-10 -22 -17 -58h254z" />
    <glyph glyph-name="ccedilla" unicode="&#xe7;" horiz-adv-x="426" 
d="M376 93q-42 -82 -126 -102v-46h-31q7 -9 12 -17h21q2 -91 -2 -114q-11 -46 -47 -82t-82 -48q-17 -5 -17 -27v241h17q19 0 19 -18q0 -19 -18 -19q-2 -47 -1 -159q26 7 59 35q37 34 48 70q4 14 4 30q0 64 -53 91v17v0v45q-70 13 -114 74.5t-40 140.5q5 86 63.5 144
t135.5 53q101 -6 152 -102h-39q-28 47 -70 65q-23 10 -44 10q-66 0 -100 -73q-22 -49 -22 -97q0 -14 5 -13q-40 -6 -40 -40q0 -32 24 -68q49 -71 121 -77q43 -4 80 19.5t58 66.5h27z" />
    <glyph glyph-name="egrave" unicode="&#xe8;" horiz-adv-x="425" 
d="M230 464l-19 -6q-17 44 -28 57q-14 15 -42 13l-17 53l60 19zM399 215h-34v0h-265q-1 -11 0 -17t5 -6q-40 -5 -40 -40q0 -31 24 -67q49 -72 121 -78q43 -4 80 20t58 67h27q-26 -51 -73 -80.5t-101 -26.5q-78 5 -129.5 68.5t-47.5 150.5q5 86 63.5 143.5t135.5 53.5
q70 -4 120 -58t56 -130zM359 244q-24 91 -93 121q-23 10 -44 10q-66 0 -100 -73q-10 -22 -17 -58h254z" />
    <glyph glyph-name="eacute" unicode="&#xe9;" horiz-adv-x="425" 
d="M321 581l-17 -53q-28 2 -40.5 -12t-28.5 -58l-20 6l46 136zM399 215h-34v0h-265q-1 -11 0 -17t5 -6q-40 -5 -40 -40q0 -31 24 -67q49 -72 121 -78q43 -4 80 20t58 67h27q-26 -51 -73 -80.5t-101 -26.5q-78 5 -129.5 68.5t-47.5 150.5q5 86 63.5 143.5t135.5 53.5
q70 -4 120 -58t56 -130zM359 244q-24 91 -93 121q-23 10 -44 10q-66 0 -100 -73q-10 -22 -17 -58h254z" />
    <glyph glyph-name="ecircumflex" unicode="&#xea;" horiz-adv-x="425" 
d="M371 496l-10 -13q-35 28 -50 28q-11 0 -25 -10l-69 56l-68 -56q-14 10 -25 10q-15 0 -50 -28l-10 13l151 124zM399 215h-34v0h-265q-1 -11 0 -17t5 -6q-40 -5 -40 -40q0 -31 24 -67q49 -72 121 -78q43 -4 80 20t58 67h27q-26 -51 -73 -80.5t-101 -26.5q-78 5 -129.5 68.5
t-47.5 150.5q5 86 63.5 143.5t135.5 53.5q70 -4 120 -58t56 -130zM359 244q-24 91 -93 121q-23 10 -44 10q-66 0 -100 -73q-10 -22 -17 -58h254z" />
    <glyph glyph-name="edieresis" unicode="&#xeb;" horiz-adv-x="425" 
d="M306 516q0 -14 -10 -24t-24 -10t-24 10t-10 24t10 24t24 10t24 -10t10 -24zM197 516q0 -14 -9.5 -24t-23.5 -10t-24 10t-10 24t10 24t24 10t23.5 -10t9.5 -24zM399 215h-34v0h-265q-1 -11 0 -17t5 -6q-40 -5 -40 -40q0 -31 24 -67q49 -72 121 -78q43 -4 80 20t58 67h27
q-26 -51 -73 -80.5t-101 -26.5q-78 5 -129.5 68.5t-47.5 150.5q5 86 63.5 143.5t135.5 53.5q70 -4 120 -58t56 -130zM359 244q-24 91 -93 121q-23 10 -44 10q-66 0 -100 -73q-10 -22 -17 -58h254z" />
    <glyph glyph-name="igrave" unicode="&#xec;" horiz-adv-x="227" 
d="M145 544l-19 -6q-17 44 -28 57q-14 15 -42 13l-17 54l60 18zM147 1h-127v14q60 13 60 48v333q19 4 32.5 31t13.5 63q0 7 -1 14h22v-503z" />
    <glyph glyph-name="iacute" unicode="&#xed;" horiz-adv-x="227" 
d="M209 662l-17 -54q-28 2 -40.5 -12t-29.5 -58l-19 6l46 136zM147 1h-127v14q60 13 60 48v333q19 4 32.5 31t13.5 63q0 7 -1 14h22v-503z" />
    <glyph glyph-name="icircumflex" unicode="&#xee;" horiz-adv-x="227" 
d="M284 576l-10 -13q-35 28 -50 28q-11 0 -25 -10l-69 56l-68 -56q-14 10 -25 10q-15 0 -50 -28l-10 13l151 124zM147 1h-127v14q60 13 60 48v333q20 4 33 31t13 63v14h21v-503z" />
    <glyph glyph-name="idieresis" unicode="&#xef;" horiz-adv-x="228" 
d="M225 576q0 -14 -10 -24t-24 -10t-24 10t-10 24t10 24t24 10t24 -10t10 -24zM116 576q0 -14 -9.5 -24t-23.5 -10t-24 10t-10 24t10 24t24 10t23.5 -10t9.5 -24zM147 1h-127v14q60 13 60 48v333q19 4 32.5 31t13.5 63q0 7 -1 14h22v-503z" />
    <glyph glyph-name="ntilde" unicode="&#xf1;" horiz-adv-x="395" 
d="M502 512q1 -2 -16 -11.5t-21 -11.5q-26 -9 -53 -9q-41 0 -115 27q-12 5 -24 5q-25 0 -34 -19q-30 13 -95 6q-18 -3 -33 -8q-36 -10 -50 -25l-36 46q28 23 73 37q41 11 85 11q46 0 79 -12q77 -30 80 -31q43 -15 74 -15q41 0 76 25zM421 0h-169v13q54 12 54 44v325
q-160 -73 -217 -167v-158q0 -16 20 -29q16 -11 34 -15v-13h-169v13q54 12 54 44v361l61 -25v-148q58 78 256 177q22 15 22 37v-205v0v-197q0 -32 54 -44v-13z" />
    <glyph glyph-name="ograve" unicode="&#xf2;" horiz-adv-x="439" 
d="M241 464l-19 -6q-17 44 -28 57q-14 15 -42 13l-17 53l60 19zM412 188q-5 -88 -65 -147t-139 -55q-80 5 -132.5 70.5t-48.5 153.5q5 88 64.5 147t139.5 54q80 -4 132.5 -69.5t48.5 -153.5zM379 183q1 57 -24 109q-29 59 -81 81q-22 10 -44 10q-68 0 -102 -75
q-23 -49 -23 -99q0 -14 5 -13q-41 -6 -41 -41q0 -32 25 -69q50 -73 124 -79q65 -6 112 45.5t49 130.5z" />
    <glyph glyph-name="oacute" unicode="&#xf3;" horiz-adv-x="438" 
d="M311 581l-17 -53q-28 2 -40.5 -12t-28.5 -58l-20 6l46 136zM411 188q-5 -88 -65 -147t-139 -55q-80 5 -132.5 70.5t-48.5 153.5q5 88 64.5 147t139.5 54q80 -4 132.5 -69.5t48.5 -153.5zM378 183q1 57 -24 109q-29 59 -81 81q-22 10 -44 10q-68 0 -102 -75
q-23 -49 -23 -99q0 -14 5 -13q-41 -6 -41 -41q0 -32 25 -69q50 -73 124 -79q65 -6 112 45.5t49 130.5z" />
    <glyph glyph-name="ocircumflex" unicode="&#xf4;" horiz-adv-x="439" 
d="M382 496l-10 -13q-35 28 -50 28q-11 0 -25 -10l-69 56l-68 -56q-14 10 -25 10q-15 0 -50 -28l-10 13l151 124zM412 188q-5 -88 -65 -147t-139 -55q-80 5 -132.5 70.5t-48.5 153.5q5 88 64.5 147t139.5 54q80 -4 132.5 -69.5t48.5 -153.5zM379 183q1 57 -24 109
q-29 59 -81 81q-22 10 -44 10q-68 0 -102 -75q-23 -49 -23 -99q0 -14 5 -13q-41 -6 -41 -41q0 -32 25 -69q50 -73 124 -79q65 -6 112 45.5t49 130.5z" />
    <glyph glyph-name="otilde" unicode="&#xf5;" horiz-adv-x="439" 
d="M501 512q1 -2 -16.5 -11.5t-21.5 -11.5q-25 -9 -52 -9q-41 0 -115 27q-13 5 -25 5q-24 0 -33 -19q-30 13 -95 6q-19 -3 -34 -8q-36 -10 -49 -25l-36 46q28 23 73 37q40 11 85 11t78 -12q78 -30 80 -31q44 -15 75 -15q41 0 75 25zM411 188q-5 -88 -64.5 -147t-139.5 -55
q-79 5 -132 70.5t-48 153.5t64.5 147t139.5 54q79 -4 132 -69.5t48 -153.5zM378 183q1 57 -24 109q-28 59 -80 81q-23 10 -45 10q-67 0 -102 -75q-23 -49 -23 -99q0 -14 5 -13q-41 -6 -41 -41q0 -32 26 -69q49 -73 123 -79q65 -6 112.5 45.5t48.5 130.5z" />
    <glyph glyph-name="odieresis" unicode="&#xf6;" horiz-adv-x="439" 
d="M305 516q0 -14 -10 -24t-24 -10t-24 10t-10 24t10 24t24 10t24 -10t10 -24zM196 516q0 -14 -9.5 -24t-23.5 -10t-24 10t-10 24t10 24t24 10t23.5 -10t9.5 -24zM412 188q-5 -88 -65 -147t-139 -55q-80 5 -132.5 70.5t-48.5 153.5q5 88 64.5 147t139.5 54
q80 -4 132.5 -69.5t48.5 -153.5zM379 183q1 57 -24 109q-29 59 -81 81q-22 10 -44 10q-68 0 -102 -75q-23 -49 -23 -99q0 -14 5 -13q-41 -6 -41 -41q0 -32 25 -69q50 -73 124 -79q65 -6 112 45.5t49 130.5z" />
    <glyph glyph-name="divide" unicode="&#xf7;" horiz-adv-x="426" 
d="M252 363q0 -14 -10 -24t-24 -10t-24 10t-10 24t10 24t24 10t24 -10t10 -24zM376 232h-61q0 1 1 3q0 9 -28 15.5t-68 6.5q-39 0 -67 -6.5t-28 -15.5q0 -1 1 -3h-76v68h326v-68zM252 164q0 -14 -10 -24t-24 -10t-24 10t-10 24t10 24t24 10t24 -10t10 -24z" />
    <glyph glyph-name="oslash" unicode="&#xf8;" horiz-adv-x="475" 
d="M476 374l-2 -12q-11 1 -21 1q-48 0 -65 -23l-20 -28q35 -58 32 -128q-5 -86 -63.5 -143.5t-135.5 -53.5q-53 3 -96 36q-11 -15 -36 -49l-17 11l37 52q-70 66 -65 169q5 86 63.5 143.5t135.5 53.5q56 -4 101 -40l37 51zM306 338q-39 37 -84 37q-66 0 -100 -73
q-22 -49 -22 -97q0 -14 5 -13q-40 -5 -40 -40q0 -31 24 -67q8 -11 19 -23zM367 180q1 52 -21 102l-113 -156q-11 4 -20 4q-30 0 -91 -82q43 -37 88 -41q64 -5 110 45.5t47 127.5z" />
    <glyph glyph-name="ugrave" unicode="&#xf9;" horiz-adv-x="503" 
d="M293 464l-19 -6q-17 44 -28 57q-14 15 -42 13l-17 54l60 18zM685 38h-20q9 97 -109 104q-79 0 -143 -48v-4v0v-31q0 -35 59 -48v-14h-126v38q-65 -59 -127 -59q-93 0 -124 65q-15 33 -15 107v191q0 35 -60 48v14h186v-14q-59 -13 -59 -48v-191h-1q-43 -26 -43 -66
q0 -35 32.5 -61.5t82.5 -26.5q54 0 128 67v146h1v31q0 35 -60 48v14h186v-14q-60 -13 -60 -48v-120q63 43 136 43q136 0 136 -123z" />
    <glyph glyph-name="uacute" unicode="&#xfa;" horiz-adv-x="503" 
d="M368 582l-17 -54q-28 2 -40.5 -12t-29.5 -58l-19 6l46 136zM685 38h-20q9 97 -109 104q-79 0 -143 -48v-4v0v-31q0 -35 59 -48v-14h-126v38q-65 -59 -127 -59q-93 0 -124 65q-15 33 -15 107v191q0 35 -60 48v14h186v-14q-59 -13 -59 -48v-191h-1q-43 -26 -43 -66
q0 -35 32.5 -61.5t82.5 -26.5q54 0 128 67v146h1v31q0 35 -60 48v14h186v-14q-60 -13 -60 -48v-120q63 43 136 43q136 0 136 -123z" />
    <glyph glyph-name="ucircumflex" unicode="&#xfb;" horiz-adv-x="503" 
d="M430 496l-10 -13q-35 28 -50 28q-11 0 -25 -10l-69 56l-68 -56q-14 10 -25 10q-15 0 -50 -28l-10 13l151 124zM685 38h-20q9 97 -109 104q-79 0 -143 -48v-4v0v-31q0 -35 59 -48v-14h-126v38q-65 -59 -127 -59q-93 0 -124 65q-15 33 -15 107v191q0 35 -60 48v14h186v-14
q-59 -13 -59 -48v-191h-1q-43 -26 -43 -66q0 -35 32.5 -61.5t82.5 -26.5q54 0 128 67v146h1v31q0 35 -60 48v14h186v-14q-60 -13 -60 -48v-120q63 43 136 43q136 0 136 -123z" />
    <glyph glyph-name="udieresis" unicode="&#xfc;" horiz-adv-x="503" 
d="M363 516q0 -14 -10 -24t-24 -10t-24 10t-10 24t10 24t24 10t24 -10t10 -24zM254 516q0 -14 -9.5 -24t-23.5 -10t-24 10t-10 24t10 24t24 10t23.5 -10t9.5 -24zM685 38h-20q9 97 -109 104q-79 0 -143 -48v-4v0v-31q0 -35 59 -48v-14h-126v38q-65 -59 -127 -59
q-93 0 -124 65q-15 33 -15 107v191q0 35 -60 48v14h186v-14q-59 -13 -59 -48v-191h-1q-43 -26 -43 -66q0 -35 32.5 -61.5t82.5 -26.5q54 0 128 67v146h1v31q0 35 -60 48v14h186v-14q-60 -13 -60 -48v-120q63 43 136 43q136 0 136 -123z" />
    <glyph glyph-name="yacute" unicode="&#xfd;" horiz-adv-x="498" 
d="M337 581l-17 -53q-28 2 -40.5 -12t-28.5 -58l-20 6l46 136zM683 32h-20q9 96 -108 104q-82 0 -148 -52v-106h-31q4 -7 10 -18h21q2 -91 -2 -113q-10 -46 -46.5 -81.5t-81.5 -48.5q-17 -4 -17 -26v240h17q19 0 19 -19q0 -18 -18 -18q-2 -47 -1 -158q26 6 58 35
q38 33 48 69q5 17 5 34q0 62 -47 86v18v22v25q-61 -55 -122 -55q-93 0 -123 65q-16 33 -16 107v189q0 35 -59 48v14h186v-14q-60 -13 -60 -48v-189h-1q-42 -26 -42 -66q0 -35 32 -61.5t82 -26.5q54 0 123 63v187q0 35 -60 48v14h186v-14q-60 -13 -60 -48v-131q65 47 141 47
q135 0 135 -122z" />
    <glyph glyph-name="ydieresis" unicode="&#xff;" horiz-adv-x="498" 
d="M331 515q0 -14 -10 -24t-24 -10t-24 10t-10 24t10 24t24 10t24 -10t10 -24zM222 515q0 -14 -9.5 -24t-23.5 -10t-24 10t-10 24t10 24t24 10t23.5 -10t9.5 -24zM684 32h-20q9 96 -108 104q-82 0 -148 -52v-106h-31q4 -7 10 -18h21q2 -91 -2 -113q-10 -46 -46.5 -81.5
t-81.5 -48.5q-17 -4 -17 -26v240h17q19 0 19 -19q0 -18 -18 -18q-2 -47 -1 -158q26 6 58 35q38 33 48 69q5 17 5 34q0 62 -47 86v18v22v25q-61 -55 -122 -55q-93 0 -123 65q-16 33 -16 107v189q0 35 -59 48v14h186v-14q-60 -13 -60 -48v-189h-1q-42 -26 -42 -66
q0 -35 32 -61.5t82 -26.5q54 0 123 63v187q0 35 -60 48v14h186v-14q-60 -13 -60 -48v-131q65 47 141 47q135 0 135 -122z" />
    <glyph glyph-name="Abreve" unicode="&#x102;" 
d="M533 890q-17 -14 -34 -16t-31 2q-16 4 -30 14l-106 85l10 12q35 -28 50 -28q11 0 25 10l40 -30q8 -6 18 -9q8 -2 18 -1t21 10l40 30q14 -10 25 -10q15 0 50 28l10 -12zM920 402q0 -6 -2 -13v-1q0 -53 -82 -82q-60 -21 -120 -21q-14 0 -33 2l87 -227q21 -39 60 -48v-14
h-186v14q61 13 61 41q0 4 -1 7l-94 242q-66 20 -133 40q-85 25 -147 34l-41 -93q83 -5 127 -51q39 -42 39 -107q0 -67 -63 -113t-149 -46q-80 0 -147 56t-72 121q-2 17 -2 34q0 119 76 181q64 52 159 52q22 0 52 -3l176 393l1 -1v1l14 -40l175 -451q24 -5 42 -5q84 0 135 29
q48 28 48 69q0 90 -89 90q-17 0 -31 -3l-15 15q20 7 45 7q110 0 110 -109zM600 329l-135 351l-123 -278q58 -9 135 -33q62 -20 123 -40zM426 125q0 127 -172 128h-15l57 126q-20 1 -36 1q-138 0 -187 -107q-28 -62 -21 -129q4 -51 59 -98q60 -50 132 -50q78 0 130.5 38.5
t52.5 90.5z" />
    <glyph glyph-name="abreve" unicode="&#x103;" horiz-adv-x="434" 
d="M414 1h-127v235q-34 -14 -96 -43q-7 14 -27 14q-34 0 -69 -33q-38 -36 -38 -79q0 -92 96 -92q26 0 52 7q23 6 28 11v-13q-23 -16 -87 -16q-112 0 -112 103q0 67 66 113q11 8 122 62q66 32 65 66q0 31 -25 49t-61 18q-46 0 -77 -27q-36 -30 -34 -82q0 -6 1 -17h-11
q-5 65 37 103q39 35 104 35q51 0 89 -22q41 -25 43 -62h1v-268q0 -30 17 -38q0 -1 43 -10v-14zM262 513q-17 -14 -34 -16t-31 2q-16 4 -30 14l-106 85l10 12q35 -28 50 -28q11 0 25 10l40 -30q8 -6 18 -9q8 -2 18 -1t21 10l40 30q14 -10 25 -10q15 0 50 28l10 -12z" />
    <glyph glyph-name="Dcroat" unicode="&#x110;" horiz-adv-x="842" 
d="M142 698q-7 8 -20 8q-24 0 -56 -27l-15 10q129 121 307 121q183 0 312 -126t129 -304q0 -179 -126.5 -305t-308.5 -126q-100 0 -190.5 40.5t-151.5 111.5l11 12q84 -83 165 -114q68 -25 175 -25q146 0 260 100q83 73 116 158q25 62 25 113q0 52 -31 52q-16 137 -122 241
q-109 108 -243 108q-92 0 -169 -35v-287q0 -35 160 -35v-27h-307v40h30q19 0 29 3t15 8q5 4 6 11v274z" />
    <glyph glyph-name="dcroat" unicode="&#x111;" horiz-adv-x="487" 
d="M341 547q-16 -1 -33 -4t-17 -9q0 -1 1 -2h-60v43h109v225h22q-1 -8 -1 -14q0 -37 13.5 -63.5t32.5 -30.5v-117h79v-43h-48q0 1 1 2q3 7 -32 12v-483q0 -35 60 -48v-14h-127v40q-50 -55 -121 -59q-78 -5 -136 52.5t-63 143.5q-4 86 47.5 150t128.5 68q84 5 144 -61v212z
M341 96v81q-10 7 -25 9q5 -1 5 13q0 48 -23 97q-34 73 -99 73q-22 0 -44 -10q-50 -22 -78 -79q-25 -50 -24 -106q2 -77 48 -127.5t110 -45.5q71 7 120 78q5 7 10 17z" />
    <glyph glyph-name="Itilde" unicode="&#x128;" horiz-adv-x="227" 
d="M207 -2h-187v14q60 13 60 48v483q19 4 32.5 30.5t13.5 63.5q0 6 -1 14h22v-591q0 -35 60 -48v-14zM353 735q0 -2 -14.5 -11.5t-18.5 -11.5q-22 -9 -46 -9q-35 0 -100 27q-11 5 -21 5q-22 0 -30 -19q-26 13 -83 6q-16 -3 -29 -8q-31 -10 -43 -25l-31 46q24 23 63 37
q36 11 75 11t68 -12q67 -30 70 -31q37 -15 65 -15q35 0 66 25z" />
    <glyph glyph-name="itilde" unicode="&#x129;" horiz-adv-x="227" 
d="M351 592q0 -2 -14.5 -11.5t-18.5 -11.5q-22 -9 -46 -9q-35 0 -100 27q-11 5 -21 5q-22 0 -30 -19q-26 13 -83 6q-16 -3 -29 -8q-31 -10 -43 -25l-31 46q24 23 63 37q36 11 75 11t68 -12q67 -30 70 -31q37 -15 65 -15q35 0 66 25zM147 1h-127v14q60 13 60 48v333
q19 4 32.5 31t13.5 63q0 7 -1 14h22v-503z" />
    <glyph glyph-name="dotlessi" unicode="&#x131;" horiz-adv-x="227" 
d="M147 1h-127v14q60 13 60 48v333q19 4 32.5 31t13.5 63q0 7 -1 14h22v-503z" />
    <glyph glyph-name="Lslash" unicode="&#x141;" horiz-adv-x="686" 
d="M678 -118q0 -98 -73 -177.5t-189 -112.5v17q101 30 163.5 98.5t62.5 153.5q0 112 -103 191t-249 79q-110 0 -200 -48l-46 46q32 19 72 33h-1v260l-113 -71l12 95l101 64v220q0 37 -65 51v15h200v-15q-64 -13 -64 -51v-175l105 66l-12 -95l-93 -59v-285q47 9 95 9
q165 0 281 -90.5t116 -218.5z" />
    <glyph glyph-name="lslash" unicode="&#x142;" horiz-adv-x="168" 
d="M208 518l-12 -95l-101 -64v-298q0 -35 60 -48v-14h-187v14q60 13 60 48v256l-108 -68l12 95l96 60v395h22q-1 -7 -1 -14q0 -57 13 -77q8 -12 33 -17v-244z" />
    <glyph glyph-name="OE" unicode="&#x152;" horiz-adv-x="1249" 
d="M1225 200v-41q0 -68 -66 -114.5t-157 -47.5v-1h-280v1h-48v14q57 12 59 48q4 53 4 140q-50 -99 -139 -157q-92 -59 -198 -56q-154 5 -259 129t-100 294t117.5 287t266.5 112q99 -3 182 -60.5t130 -150.5v141q0 35 -60 48v14h323q91 0 157.5 -46.5t66.5 -115.5v-41h-28v41
q0 53 -56.5 93t-139.5 40t-139.5 -39t-56.5 -91v-244h244v-27h-244v-211q0 -53 56.5 -93t139.5 -40t141 41q55 39 55 92v41h29zM735 370h-128q-30 0 -39 -27q-4 -26 -9 -53h-14v187h14q5 -27 9 -53q9 -27 39 -27h127q-6 112 -59 208q-60 109 -160 149q-45 18 -87 18
q-69 0 -126 -45q-52 -42 -82 -111q-16 -37 -29 -98.5t-13 -99.5q0 -33 11 -32q-81 -12 -81 -82q0 -65 55 -141q44 -61 108 -103q73 -47 146 -52q132 -8 225 98t93 264z" />
    <glyph glyph-name="oe" unicode="&#x153;" horiz-adv-x="770" 
d="M744 215h-34v0h-264q-1 -11 0 -17t4 -6q-40 -5 -40 -40q0 -31 25 -67q49 -72 120 -78q44 -4 80.5 20t57.5 67h27q-26 -51 -73 -80.5t-101 -26.5t-97.5 37.5t-64.5 88.5q-23 -59 -73 -93.5t-109 -31.5q-78 5 -129.5 69t-47.5 150q5 86 63.5 143.5t135.5 53.5
q55 -3 98 -37.5t64 -88.5q24 59 73.5 93.5t109.5 31.5q70 -4 119.5 -58t55.5 -130zM704 244q-24 91 -93 121q-22 10 -44 10q-66 0 -99 -73q-10 -22 -18 -58h254zM368 181q1 56 -23 106q-28 58 -78 80q-23 9 -44 9q-66 0 -100 -73q-22 -49 -22 -97q0 -13 5 -13
q-40 -5 -40 -40q0 -31 24 -67q49 -71 121 -78q64 -5 110 45.5t47 127.5z" />
    <glyph glyph-name="Scaron" unicode="&#x160;" horiz-adv-x="635" 
d="M430 985l-156 -125l-150 125l10 12q35 -28 50 -28q11 0 24 10l69 -56l69 56q13 -10 24 -10q15 0 50 28zM595 180q0 -97 -83 -159t-203 -62q-94 0 -167 63q-88 78 -85 217l12 -1q-3 -115 72 -189q70 -71 168 -71q110 0 184.5 59t74.5 143q0 156 -150 226q-16 7 -32 7
q-34 0 -48 -32q-90 30 -206 107q-65 44 -65 131q0 61 34 112q36 55 98 75q36 11 82 11q70 0 132 -25q69 -27 102 -74v0v0l-84 -86l-11 11q21 15 13 42q-3 8 -24 23h1q-57 35 -120 35q-56 0 -92 -28q-38 -31 -38 -84q0 -69 113 -122q184 -86 209 -105q113 -82 113 -224z" />
    <glyph glyph-name="scaron" unicode="&#x161;" horiz-adv-x="355" 
d="M325 579l-156 -125l-151 125l10 12q36 -28 51 -28q10 0 24 10l69 -56l68 56q14 -10 25 -10q15 0 50 28zM342 98q0 -103 -112 -103q-64 0 -86 16v13q4 -5 27 -11q27 -7 53 -7q96 0 96 92q0 41 -36 71q-32 28 -66 28q-24 0 -33 -16l-104 48q-58 35 -58 86q0 39 41 65
q39 23 92 23q65 0 104 -35q42 -38 36 -103h-11q1 5 1 17q3 52 -33 82q-32 27 -77 27q-36 0 -60 -17q-27 -19 -27 -50q0 -34 65 -62q111 -48 123 -55q65 -42 65 -109z" />
    <glyph glyph-name="Utilde" unicode="&#x168;" horiz-adv-x="779" 
d="M630 884q0 -2 -14.5 -11.5t-18.5 -11.5q-22 -9 -46 -9q-35 0 -100 27q-11 5 -21 5q-22 0 -30 -19q-26 13 -83 6q-16 -3 -29 -8q-31 -10 -43 -25l-31 46q24 23 63 37q36 11 75 11t68 -12q67 -30 70 -31q37 -15 65 -15q35 0 66 25zM759 -2h-127v102q-40 -47 -106 -75
q-69 -29 -148 -29q-121 0 -207 60.5t-91 147.5v-1v533q0 35 -60 48v14h186v-14q-59 -13 -59 -48v-397h-2v-6q-38 -12 -38 -67q0 -19 -1 -20l1 -19q0 -96 77 -155q74 -57 186 -57q102 0 178 58.5t84 138.5v269q0 35 -60 48v14h187v-14q-60 -13 -60 -48v-421q0 -35 60 -48v-14
z" />
    <glyph glyph-name="utilde" unicode="&#x169;" horiz-adv-x="503" 
d="M477 512q0 -2 -14.5 -11.5t-18.5 -11.5q-22 -9 -46 -9q-35 0 -100 27q-11 5 -21 5q-22 0 -30 -19q-26 13 -83 6q-16 -3 -29 -8q-31 -10 -43 -25l-31 46q24 23 63 37q36 11 75 11t68 -12q67 -30 70 -31q37 -15 65 -15q35 0 66 25zM685 38h-20q9 97 -109 104
q-79 0 -143 -48v-4v0v-31q0 -35 59 -48v-14h-126v38q-65 -59 -127 -59q-93 0 -124 65q-15 33 -15 107v191q0 35 -60 48v14h186v-14q-59 -13 -59 -48v-191h-1q-43 -26 -43 -66q0 -35 32.5 -61.5t82.5 -26.5q54 0 128 67v146h1v31q0 35 -60 48v14h186v-14q-60 -13 -60 -48
v-120q63 43 136 43q136 0 136 -123z" />
    <glyph glyph-name="Ydieresis" unicode="&#x178;" horiz-adv-x="764" 
d="M462 880q0 -14 -10 -24t-24 -10t-24 10t-10 24t10 24t24 10t24 -10t10 -24zM353 880q0 -14 -9.5 -24t-23.5 -10t-24 10t-10 24t10 24t24 10t23.5 -10t9.5 -24zM756 600q-59 -13 -59 -48v-79q-1 -7 -1 -27q0 -85 -90 -147.5t-209 -69.5v-168q0 -35 59 -48v-14h-186v14
q60 13 60 48v171q-105 11 -176 69t-76 136v-1v302q0 35 -60 48v14h186v-14q-59 -13 -59 -48v-166h-2v-7q-38 -11 -38 -66v-20h-1l1 -19q0 -96 77 -155q74 -57 186 -57q107 0 184.5 64t77.5 148v4.5v3.5v84q0 35 -60 48v14h186v-14z" />
    <glyph glyph-name="Zcaron" unicode="&#x17d;" horiz-adv-x="807" 
d="M548 985l-156 -125l-151 125l10 12q36 -28 51 -28q10 0 24 10l69 -56l68 56q14 -10 25 -10q15 0 50 28zM798 49q0 -39 -44 -59q-33 -15 -78 -15q-41 0 -107 43t-108 43q-68 0 -124 -33q63 2 109.5 -34t46.5 -97q0 -60 -39.5 -93t-101.5 -33q-52 0 -92 38.5t-40 89.5
q0 58 43 103l-154 -1v-2h-89q-5 178 147 306q142 97 284 193q154 116 152 261v17h-181q-77 0 -109 -26q-35 -30 -35 -106h-29v155h441q-5 -217 -147 -344q-134 -87 -268 -175q-149 -101 -165 -250l184 -1q70 49 167 49q52 0 115 -43t100 -43q36 0 63 11q37 15 37 47
q0 48 -64 48q-20 0 -39 -5l-6 18q22 6 42 6q33 0 59 -17q30 -19 30 -51zM464 -103q0 102 -163 105q-52 -47 -52 -103q0 -38 31 -69.5t71 -31.5q113 0 113 99z" />
    <glyph glyph-name="zcaron" unicode="&#x17e;" horiz-adv-x="433" 
d="M348 666l-156 -125l-151 125l10 12q36 -28 51 -28q10 0 24 10l69 -56l68 56q14 -10 25 -10q15 0 50 28zM528 -26q-46 0 -108 43t-108 43q-68 0 -124 -33q13 0 16 -1q140 -17 140 -131q0 -55 -36 -90t-105 -35q-35 0 -75 25q-57 36 -57 103q0 57 42 102h-86q0 141 69 220
q53 62 169 103q60 21 60 113h-45q-110 0 -140 -14q-55 -24 -55 -119h-29v156h339v-23h-1q0 -46 -2 -56q-20 -93 -104 -122q-88 -32 -129 -73q-56 -56 -62 -156q25 -1 48 -1q71 49 167 49q55 0 116.5 -43t99.5 -43q49 0 76 18q24 16 24 40q0 20 -18 35t-46 15q-19 0 -39 -7
l-7 18q22 6 42 6q41 0 65 -20.5t24 -47.5q0 -30 -29 -51q-33 -23 -92 -23zM315 -105q0 90 -120 104q-15 2 -43 2q-52 -47 -52 -103q0 -51 43 -80q32 -21 58 -21q114 0 114 98z" />
    <glyph glyph-name="florin" unicode="&#x192;" horiz-adv-x="476" 
d="M450 828l-42 -229q0 -3 0 -2l-1 -2l-3 -17h-17v0h-1q-19 0 -16 19q4 19 23 19h1q11 59 33 179l-3 -13q-28 -7 -67 -37q-45 -34 -63 -72q-12 -25 -12 -51q0 -53 39 -75l-27 -148h81v-28h-86q-77 -418 -82 -430q-13 -30 -87 -66q-68 -33 -71 -70q-19 -3 -23 -27l43 230v2v1
l3 17h18v0h1q19 0 15 -19q-3 -19 -22 -19h-2q-11 -61 -32 -179l2 14q28 6 67 36q46 35 64 72q12 25 12 51q0 44 -30 69h-11l59 318h-108v28h113l28 148h-1q17 95 25 119q12 30 84 66q67 33 74 69q18 3 22 27z" />
    <glyph glyph-name="Ohorn" unicode="&#x1a0;" horiz-adv-x="826" 
d="M647 717q145 -162 140 -331q-6 -169 -119 -285t-267 -111q-155 5 -260.5 128t-100.5 293q5 169 118 285t268 111q111 -4 200 -70q20 2 39 13q9 5 15 14q2 4 1 7q0 5 -11.5 11t-16.5 14q-10 18 -6 35q5 16 23 26.5t38 4.5q23 -7 34 -30t1 -51q-11 -24 -41 -43
q-29 -14 -55 -21zM738 375q0 116 -54 218q-62 118 -168 160q-44 18 -87 18q-69 0 -126 -45q-53 -42 -83 -110q-16 -37 -29 -98t-13 -99q0 -33 11 -31q-82 -13 -82 -82q0 -65 56 -140q44 -61 109 -103q73 -47 146 -51q134 -9 227.5 97.5t92.5 265.5z" />
    <glyph glyph-name="ohorn" unicode="&#x1a1;" horiz-adv-x="441" 
d="M373 330q43 -54 39 -142q-5 -88 -65 -147t-139 -55q-80 5 -132.5 70.5t-48.5 153.5q5 88 64.5 147t139.5 54q75 -4 129 -65q8 0 17 5q7 4 12 11q1 3 1 5q0 4 -9.5 8.5t-12.5 10.5q-8 14 -4 27q3 13 17 21t29 4q18 -5 26.5 -23t0.5 -40q-6 -18 -31 -33q-15 -7 -33 -12z
M379 183q1 57 -24 109q-29 59 -81 81q-22 10 -44 10q-68 0 -102 -75q-23 -49 -23 -99q0 -14 5 -13q-41 -6 -41 -41q0 -32 25 -69q50 -73 124 -79q65 -6 112 45.5t49 130.5z" />
    <glyph glyph-name="Uhorn" unicode="&#x1af;" horiz-adv-x="829" 
d="M759 525q-60 -9 -60 -44v-421q0 -35 60 -48v-14h-127v102q-40 -47 -106 -75q-69 -29 -148 -29q-121 0 -207 60.5t-91 147.5v-1v533q0 35 -60 48v14h186v-14q-59 -13 -59 -48v-397h-2v-6q-38 -12 -38 -67q0 -19 -1 -20l1 -19q0 -96 77 -155q74 -57 186 -57q102 0 178 58.5
t84 138.5v269q0 35 -60 48v14h187q18 1 28 9q9 6 12 15q1 7 0 10q0 5 -11.5 11t-16.5 14q-10 18 -6 35q5 16 23 26.5t38 4.5q23 -7 34 -30t-1 -50q-11 -24 -41 -42q-25 -17 -59 -21z" />
    <glyph glyph-name="uhorn" unicode="&#x1b0;" horiz-adv-x="526" 
d="M473 283q-60 -10 -60 -45v-120q63 43 136 43q136 0 136 -123h-20q9 97 -109 104q-79 0 -143 -48v-4v0v-31q0 -35 59 -48v-14h-126v38q-65 -59 -127 -59q-93 0 -124 65q-15 33 -15 107v191q0 35 -60 48v14h186v-14q-59 -13 -59 -48v-191h-1q-43 -26 -43 -66
q0 -35 32.5 -61.5t82.5 -26.5q54 0 128 67v146h1v31q0 35 -60 48v14h186q9 0 18 5q7 4 12 11q1 3 1 5q0 4 -9.5 8.5t-12.5 10.5q-8 14 -4 27q3 13 17 21t29 4q18 -5 26.5 -23t0.5 -40q-6 -18 -31 -33q-21 -10 -47 -13z" />
    <glyph glyph-name="circumflex" unicode="&#x2c6;" horiz-adv-x="362" 
d="M337 808l-10 -12q-35 28 -50 28q-11 0 -25 -10l-69 56l-68 -56q-14 10 -25 10q-15 0 -50 -28l-10 12l151 125z" />
    <glyph glyph-name="caron" unicode="&#x2c7;" horiz-adv-x="362" 
d="M337 921l-156 -125l-151 125l10 12q35 -28 50 -28q11 0 25 10l68 -56l69 56q14 -10 25 -10q15 0 50 28z" />
    <glyph glyph-name="breve" unicode="&#x2d8;" horiz-adv-x="362" 
d="M337 921l-156 -125l-151 125l10 12q35 -28 50 -28q11 0 25 10l68 -56l69 56q14 -10 25 -10q15 0 50 28z" />
    <glyph glyph-name="ring" unicode="&#x2da;" horiz-adv-x="127" 
d="M106 884q0 -17 -12 -29t-29 -12t-29 12t-12 29t12 29t29 12t29 -12t12 -29zM92 883q0 27 -27 27t-27 -27t27 -27t27 27z" />
    <glyph glyph-name="ogonek" unicode="&#x2db;" horiz-adv-x="208" 
d="M181 -345q0 22 -17 26q-45 13 -81.5 49t-47.5 82q-3 22 -2 114h21q5 8 12 16h-31v57h72v-57h-1v-16q-53 -27 -53 -92q0 -15 4 -30q11 -36 48 -69q33 -29 59 -35q1 112 -1 159q-18 0 -18 19q0 18 19 18h17v-241z" />
    <glyph glyph-name="tilde" unicode="&#x2dc;" horiz-adv-x="466" 
d="M443 509q0 -2 -14.5 -11.5t-18.5 -11.5q-22 -9 -46 -9q-35 0 -100 27q-11 5 -21 5q-22 0 -30 -19q-26 13 -83 6q-16 -3 -29 -8q-31 -10 -43 -25l-31 46q24 23 63 37q36 11 75 11t68 -12q67 -30 70 -31q37 -15 65 -15q35 0 66 25z" />
    <glyph glyph-name="pi" unicode="&#x3c0;" horiz-adv-x="512" 
d="M493 363q1 -2 -16 -11.5t-21 -10.5q-34 -12 -73 -8v-272q0 -35 59 -48v-14h-186v14q60 13 60 48v288q-14 5 -27 9.5t-25 4.5q-25 0 -34 -19q-23 11 -73 8v-291q0 -35 59 -48v-14h-186v14q60 13 60 48v278q-14 -5 -38 -22l-35 46q27 24 72 37q41 11 86 11t78 -12
q77 -30 80 -31q43 -14 74 -14q41 0 76 24z" />
    <glyph glyph-name="uni1EA0" unicode="&#x1ea0;" 
d="M517 -100q0 -14 -10 -24t-24 -10t-24 10t-10 24t10 24t24 10t24 -10t10 -24zM920 402q0 -6 -2 -13v-1q0 -53 -82 -82q-60 -21 -120 -21q-14 0 -33 2l87 -227q21 -39 60 -48v-14h-186v14q61 13 61 41q0 4 -1 7l-94 242q-66 20 -133 40q-85 25 -147 34l-41 -93
q83 -5 127 -51q39 -42 39 -107q0 -67 -63 -113t-149 -46q-80 0 -147 56t-72 121q-2 17 -2 34q0 119 76 181q64 52 159 52q22 0 52 -3l176 393l1 -1v1l14 -40l175 -451q24 -5 42 -5q84 0 135 29q48 28 48 69q0 90 -89 90q-17 0 -31 -3l-15 15q20 7 45 7q110 0 110 -109z
M600 329l-135 351l-123 -278q58 -9 135 -33q62 -20 123 -40zM426 125q0 127 -172 128h-15l57 126q-20 1 -36 1q-138 0 -187 -107q-28 -62 -21 -129q4 -51 59 -98q60 -50 132 -50q78 0 130.5 38.5t52.5 90.5z" />
    <glyph glyph-name="uni1EA1" unicode="&#x1ea1;" horiz-adv-x="434" 
d="M227 -100q0 -14 -10 -24t-24 -10t-24 10t-10 24t10 24t24 10t24 -10t10 -24zM414 1h-127v235q-34 -14 -96 -43q-7 14 -27 14q-34 0 -69 -33q-38 -36 -38 -79q0 -92 96 -92q26 0 52 7q23 6 28 11v-13q-23 -16 -87 -16q-112 0 -112 103q0 67 66 113q11 8 122 62
q66 32 65 66q0 31 -25 49t-61 18q-46 0 -77 -27q-36 -30 -34 -82q0 -6 1 -17h-11q-5 65 37 103q39 35 104 35q51 0 89 -22q41 -25 43 -62h1v-268q0 -30 17 -38q0 -1 43 -10v-14z" />
    <glyph glyph-name="uni1EA2" unicode="&#x1ea2;" 
d="M520 906q7 7 9 16q2 11 -8 19q-11 8 -29 7q-20 -1 -30 -9l-16 17q17 16 46 16q32 0 51 -13q16 -13 16 -32q-2 -33 -32 -48q-3 3 -9 4q-8 1 -15 -3t-12 -12q-8 -13 -8 -36q-2 -2 -5 1q-1 26 9 44q5 7 17 15q7 5 16 14zM920 402q0 -6 -2 -13v-1q0 -53 -82 -82
q-60 -21 -120 -21q-14 0 -33 2l87 -227q21 -39 60 -48v-14h-186v14q61 13 61 41q0 4 -1 7l-94 242q-66 20 -133 40q-85 25 -147 34l-41 -93q83 -5 127 -51q39 -42 39 -107q0 -67 -63 -113t-149 -46q-80 0 -147 56t-72 121q-2 17 -2 34q0 119 76 181q64 52 159 52q22 0 52 -3
l176 393l1 -1v1l14 -40l175 -451q24 -5 42 -5q84 0 135 29q48 28 48 69q0 90 -89 90q-17 0 -31 -3l-15 15q20 7 45 7q110 0 110 -109zM600 329l-135 351l-123 -278q58 -9 135 -33q62 -20 123 -40zM426 125q0 127 -172 128h-15l57 126q-20 1 -36 1q-138 0 -187 -107
q-28 -62 -21 -129q4 -51 59 -98q60 -50 132 -50q78 0 130.5 38.5t52.5 90.5z" />
    <glyph glyph-name="uni1EA3" unicode="&#x1ea3;" horiz-adv-x="434" 
d="M244 534q7 7 9 16q2 11 -8 19q-11 8 -29 7q-20 -1 -30 -9l-16 17q17 16 46 16q32 0 51 -13q16 -13 16 -32q-2 -33 -32 -48q-3 3 -9 4q-8 1 -15 -3t-12 -12q-8 -13 -8 -36q-2 -2 -5 1q-1 26 9 44q5 7 17 15q7 5 16 14zM414 1h-127v235q-34 -14 -96 -43q-7 14 -27 14
q-34 0 -69 -33q-38 -36 -38 -79q0 -92 96 -92q26 0 52 7q23 6 28 11v-13q-23 -16 -87 -16q-112 0 -112 103q0 67 66 113q11 8 122 62q66 32 65 66q0 31 -25 49t-61 18q-46 0 -77 -27q-36 -30 -34 -82q0 -6 1 -17h-11q-5 65 37 103q39 35 104 35q51 0 89 -22q41 -25 43 -62h1
v-268q0 -30 17 -38q0 -1 43 -10v-14z" />
    <glyph glyph-name="uni1EA4" unicode="&#x1ea4;" 
d="M641 844l-10 -6q-35 14 -50 14q-11 0 -25 -5l-69 28l-68 -28q-14 5 -25 5q-15 0 -50 -14l-10 6l151 63zM920 402q0 -6 -2 -13v-1q0 -53 -82 -82q-60 -21 -120 -21q-14 0 -33 2l87 -227q21 -39 60 -48v-14h-186v14q61 13 61 41q0 4 -1 7l-94 242q-66 20 -133 40
q-85 25 -147 34l-41 -93q83 -5 127 -51q39 -42 39 -107q0 -67 -63 -113t-149 -46q-80 0 -147 56t-72 121q-2 17 -2 34q0 119 76 181q64 52 159 52q22 0 52 -3l176 393l1 -1v1l14 -40l175 -451q24 -5 42 -5q84 0 135 29q48 28 48 69q0 90 -89 90q-17 0 -31 -3l-15 15
q20 7 45 7q110 0 110 -109zM600 329l-135 351l-123 -278q58 -9 135 -33q62 -20 123 -40zM426 125q0 127 -172 128h-15l57 126q-20 1 -36 1q-138 0 -187 -107q-28 -62 -21 -129q4 -51 59 -98q60 -50 132 -50q78 0 130.5 38.5t52.5 90.5zM571 988l-17 -27q-29 1 -41.5 -6
t-28.5 -29l-19 3l45 68z" />
    <glyph glyph-name="uni1EA5" unicode="&#x1ea5;" horiz-adv-x="434" 
d="M370 496l-10 -13q-35 28 -50 28q-11 0 -25 -10l-69 56l-68 -56q-14 10 -25 10q-15 0 -50 -28l-10 13l151 124zM414 1h-127v235q-34 -14 -96 -43q-7 14 -27 14q-34 0 -69 -33q-38 -36 -38 -79q0 -92 96 -92q26 0 52 7q23 6 28 11v-13q-23 -16 -87 -16q-112 0 -112 103
q0 67 66 113q11 8 122 62q66 32 65 66q0 31 -25 49t-61 18q-46 0 -77 -27q-36 -30 -34 -82q0 -6 1 -17h-11q-5 65 37 103q39 35 104 35q51 0 89 -22q41 -25 43 -62h1v-268q0 -30 17 -38q0 -1 43 -10v-14zM300 801l-17 -53q-28 2 -40.5 -12t-28.5 -58l-20 6l46 136z" />
    <glyph glyph-name="uni1EA6" unicode="&#x1ea6;" 
d="M920 402q0 -6 -2 -13v-1q0 -53 -82 -82q-60 -21 -120 -21q-14 0 -33 2l87 -227q21 -39 60 -48v-14h-186v14q61 13 61 41q0 4 -1 7l-94 242q-66 20 -133 40q-85 25 -147 34l-41 -93q83 -5 127 -51q39 -42 39 -107q0 -67 -63 -113t-149 -46q-80 0 -147 56t-72 121
q-2 17 -2 34q0 119 76 181q64 52 159 52q22 0 52 -3l176 393l1 -1v1l14 -40l175 -451q24 -5 42 -5q84 0 135 29q48 28 48 69q0 90 -89 90q-17 0 -31 -3l-15 15q20 7 45 7q110 0 110 -109zM600 329l-135 351l-123 -278q58 -9 135 -33q62 -20 123 -40zM426 125q0 127 -172 128
h-15l57 126q-20 1 -36 1q-138 0 -187 -107q-28 -62 -21 -129q4 -51 59 -98q60 -50 132 -50q78 0 130.5 38.5t52.5 90.5zM641 844l-10 -6q-35 14 -50 14q-11 0 -25 -5l-69 28l-68 -28q-14 5 -25 5q-15 0 -50 -14l-10 6l151 63zM504 929l-19 -4q-17 23 -28 29q-14 8 -42 6
l-17 28l60 9z" />
    <glyph glyph-name="uni1EA7" unicode="&#x1ea7;" horiz-adv-x="434" 
d="M370 496l-10 -13q-35 28 -50 28q-11 0 -25 -10l-69 56l-68 -56q-14 10 -25 10q-15 0 -50 -28l-10 13l151 124zM414 1h-127v235q-34 -14 -96 -43q-7 14 -27 14q-34 0 -69 -33q-38 -36 -38 -79q0 -92 96 -92q26 0 52 7q23 6 28 11v-13q-23 -16 -87 -16q-112 0 -112 103
q0 67 66 113q11 8 122 62q66 32 65 66q0 31 -25 49t-61 18q-46 0 -77 -27q-36 -30 -34 -82q0 -6 1 -17h-11q-5 65 37 103q39 35 104 35q51 0 89 -22q41 -25 43 -62h1v-268q0 -30 17 -38q0 -1 43 -10v-14zM233 684l-19 -6q-17 44 -28 57q-14 15 -42 13l-17 53l60 19z" />
    <glyph glyph-name="uni1EA8" unicode="&#x1ea8;" 
d="M920 402q0 -6 -2 -13v-1q0 -53 -82 -82q-60 -21 -120 -21q-14 0 -33 2l87 -227q21 -39 60 -48v-14h-186v14q61 13 61 41q0 4 -1 7l-94 242q-66 20 -133 40q-85 25 -147 34l-41 -93q83 -5 127 -51q39 -42 39 -107q0 -67 -63 -113t-149 -46q-80 0 -147 56t-72 121
q-2 17 -2 34q0 119 76 181q64 52 159 52q22 0 52 -3l176 393l1 -1v1l14 -40l175 -451q24 -5 42 -5q84 0 135 29q48 28 48 69q0 90 -89 90q-17 0 -31 -3l-15 15q20 7 45 7q110 0 110 -109zM600 329l-135 351l-123 -278q58 -9 135 -33q62 -20 123 -40zM426 125q0 127 -172 128
h-15l57 126q-20 1 -36 1q-138 0 -187 -107q-28 -62 -21 -129q4 -51 59 -98q60 -50 132 -50q78 0 130.5 38.5t52.5 90.5zM641 844l-10 -6q-35 14 -50 14q-11 0 -25 -5l-69 28l-68 -28q-14 5 -25 5q-15 0 -50 -14l-10 6l151 63zM520 964q7 3 9 8t-8 9q-11 4 -29 4
q-20 -1 -30 -5l-16 9q17 8 46 8q32 0 51 -7q16 -6 16 -16q-2 -16 -32 -24q-3 2 -9 2q-8 1 -15 -1t-12 -6q-8 -7 -8 -18q-2 -1 -5 0q-1 13 9 22q5 4 17 8q7 2 16 7z" />
    <glyph glyph-name="uni1EA9" unicode="&#x1ea9;" horiz-adv-x="434" 
d="M244 754q7 7 9 16q2 11 -8 19q-11 8 -29 7q-20 -1 -30 -9l-16 17q17 16 46 16q32 0 51 -13q16 -13 16 -32q-2 -33 -32 -48q-3 3 -9 4q-8 1 -15 -3t-12 -12q-8 -13 -8 -36q-2 -2 -5 1q-1 26 9 44q5 7 17 15q7 5 16 14zM370 496l-10 -13q-35 28 -50 28q-11 0 -25 -10
l-69 56l-68 -56q-14 10 -25 10q-15 0 -50 -28l-10 13l151 124zM414 1h-127v235q-34 -14 -96 -43q-7 14 -27 14q-34 0 -69 -33q-38 -36 -38 -79q0 -92 96 -92q26 0 52 7q23 6 28 11v-13q-23 -16 -87 -16q-112 0 -112 103q0 67 66 113q11 8 122 62q66 32 65 66q0 31 -25 49
t-61 18q-46 0 -77 -27q-36 -30 -34 -82q0 -6 1 -17h-11q-5 65 37 103q39 35 104 35q51 0 89 -22q41 -25 43 -62h1v-268q0 -30 17 -38q0 -1 43 -10v-14z" />
    <glyph glyph-name="uni1EAA" unicode="&#x1eaa;" 
d="M920 402q0 -6 -2 -13v-1q0 -53 -82 -82q-60 -21 -120 -21q-14 0 -33 2l87 -227q21 -39 60 -48v-14h-186v14q61 13 61 41q0 4 -1 7l-94 242q-66 20 -133 40q-85 25 -147 34l-41 -93q83 -5 127 -51q39 -42 39 -107q0 -67 -63 -113t-149 -46q-80 0 -147 56t-72 121
q-2 17 -2 34q0 119 76 181q64 52 159 52q22 0 52 -3l176 393l1 -1v1l14 -40l175 -451q24 -5 42 -5q84 0 135 29q48 28 48 69q0 90 -89 90q-17 0 -31 -3l-15 15q20 7 45 7q110 0 110 -109zM600 329l-135 351l-123 -278q58 -9 135 -33q62 -20 123 -40zM426 125q0 127 -172 128
h-15l57 126q-20 1 -36 1q-138 0 -187 -107q-28 -62 -21 -129q4 -51 59 -98q60 -50 132 -50q78 0 130.5 38.5t52.5 90.5zM641 844l-10 -6q-35 14 -50 14q-11 0 -25 -5l-69 28l-68 -28q-14 5 -25 5q-15 0 -50 -14l-10 6l151 63zM745 952q1 -1 -16 -5.5t-21 -5.5q-26 -5 -53 -5
q-41 0 -115 14q-12 2 -24 2q-25 0 -34 -9q-30 6 -95 3q-18 -2 -33 -4q-36 -5 -50 -13l-36 23q28 12 73 19q40 6 85 6q46 0 78 -6q78 -15 81 -16q43 -8 74 -8q41 0 76 13z" />
    <glyph glyph-name="uni1EAB" unicode="&#x1eab;" horiz-adv-x="434" 
d="M370 496l-10 -13q-35 28 -50 28q-11 0 -25 -10l-69 56l-68 -56q-14 10 -25 10q-15 0 -50 -28l-10 13l151 124zM414 1h-127v235q-34 -14 -96 -43q-7 14 -27 14q-34 0 -69 -33q-38 -36 -38 -79q0 -92 96 -92q26 0 52 7q23 6 28 11v-13q-23 -16 -87 -16q-112 0 -112 103
q0 67 66 113q11 8 122 62q66 32 65 66q0 31 -25 49t-61 18q-46 0 -77 -27q-36 -30 -34 -82q0 -6 1 -17h-11q-5 65 37 103q39 35 104 35q51 0 89 -22q41 -25 43 -62h1v-268q0 -30 17 -38q0 -1 43 -10v-14zM489 732q1 -2 -16.5 -11.5t-21.5 -11.5q-25 -9 -52 -9q-41 0 -115 27
q-13 5 -25 5q-24 0 -33 -19q-30 13 -95 6q-19 -3 -34 -8q-36 -10 -49 -25l-36 46q28 23 73 37q40 11 85 11t78 -12q78 -30 80 -31q44 -15 75 -15q41 0 75 25z" />
    <glyph glyph-name="uni1EAC" unicode="&#x1eac;" 
d="M517 -100q0 -14 -10 -24t-24 -10t-24 10t-10 24t10 24t24 10t24 -10t10 -24zM920 402q0 -6 -2 -13v-1q0 -53 -82 -82q-60 -21 -120 -21q-14 0 -33 2l87 -227q21 -39 60 -48v-14h-186v14q61 13 61 41q0 4 -1 7l-94 242q-66 20 -133 40q-85 25 -147 34l-41 -93
q83 -5 127 -51q39 -42 39 -107q0 -67 -63 -113t-149 -46q-80 0 -147 56t-72 121q-2 17 -2 34q0 119 76 181q64 52 159 52q22 0 52 -3l176 393l1 -1v1l14 -40l175 -451q24 -5 42 -5q84 0 135 29q48 28 48 69q0 90 -89 90q-17 0 -31 -3l-15 15q20 7 45 7q110 0 110 -109z
M600 329l-135 351l-123 -278q58 -9 135 -33q62 -20 123 -40zM426 125q0 127 -172 128h-15l57 126q-20 1 -36 1q-138 0 -187 -107q-28 -62 -21 -129q4 -51 59 -98q60 -50 132 -50q78 0 130.5 38.5t52.5 90.5zM641 872l-10 -12q-35 28 -50 28q-11 0 -25 -10l-69 56l-68 -56
q-14 10 -25 10q-15 0 -50 -28l-10 12l151 125z" />
    <glyph glyph-name="uni1EAD" unicode="&#x1ead;" horiz-adv-x="434" 
d="M227 -100q0 -14 -10 -24t-24 -10t-24 10t-10 24t10 24t24 10t24 -10t10 -24zM414 1h-127v235q-34 -14 -96 -43q-7 14 -27 14q-34 0 -69 -33q-38 -36 -38 -79q0 -92 96 -92q26 0 52 7q23 6 28 11v-13q-23 -16 -87 -16q-112 0 -112 103q0 67 66 113q11 8 122 62
q66 32 65 66q0 31 -25 49t-61 18q-46 0 -77 -27q-36 -30 -34 -82q0 -6 1 -17h-11q-5 65 37 103q39 35 104 35q51 0 89 -22q41 -25 43 -62h1v-268q0 -30 17 -38q0 -1 43 -10v-14zM370 496l-10 -13q-35 28 -50 28q-11 0 -25 -10l-69 56l-68 -56q-14 10 -25 10q-15 0 -50 -28
l-10 13l151 124z" />
    <glyph glyph-name="uni1EAE" unicode="&#x1eae;" 
d="M639 901l-10 6q-35 -14 -50 -14q-11 0 -25 5l-40 -15q-21 -8 -39 -5q-10 1 -18 5l-40 15q-14 -5 -25 -5q-15 0 -50 14l-10 -6l106 -42q14 -5 30 -7q14 -2 31 -1t34 8zM920 402q0 -6 -2 -13v-1q0 -53 -82 -82q-60 -21 -120 -21q-14 0 -33 2l87 -227q21 -39 60 -48v-14
h-186v14q61 13 61 41q0 4 -1 7l-94 242q-66 20 -133 40q-85 25 -147 34l-41 -93q83 -5 127 -51q39 -42 39 -107q0 -67 -63 -113t-149 -46q-80 0 -147 56t-72 121q-2 17 -2 34q0 119 76 181q64 52 159 52q22 0 52 -3l176 393l1 -1v1l14 -40l175 -451q24 -5 42 -5q84 0 135 29
q48 28 48 69q0 90 -89 90q-17 0 -31 -3l-15 15q20 7 45 7q110 0 110 -109zM600 329l-135 351l-123 -278q58 -9 135 -33q62 -20 123 -40zM426 125q0 127 -172 128h-15l57 126q-20 1 -36 1q-138 0 -187 -107q-28 -62 -21 -129q4 -51 59 -98q60 -50 132 -50q78 0 130.5 38.5
t52.5 90.5zM571 988l-17 -27q-29 1 -41.5 -6t-28.5 -29l-19 3l45 68z" />
    <glyph glyph-name="uni1EAF" unicode="&#x1eaf;" horiz-adv-x="434" 
d="M414 1h-127v235q-34 -14 -96 -43q-7 14 -27 14q-34 0 -69 -33q-38 -36 -38 -79q0 -92 96 -92q26 0 52 7q23 6 28 11v-13q-23 -16 -87 -16q-112 0 -112 103q0 67 66 113q11 8 122 62q66 32 65 66q0 31 -25 49t-61 18q-46 0 -77 -27q-36 -30 -34 -82q0 -6 1 -17h-11
q-5 65 37 103q39 35 104 35q51 0 89 -22q41 -25 43 -62h1v-268q0 -30 17 -38q0 -1 43 -10v-14zM368 598l-10 12q-35 -28 -50 -28q-11 0 -25 10l-40 -30q-11 -9 -21 -10t-18 1q-10 3 -18 9l-40 30q-14 -10 -25 -10q-15 0 -50 28l-10 -12l106 -85q14 -10 30 -14q14 -4 31 -2
t34 16zM300 801l-17 -53q-28 2 -40.5 -12t-28.5 -58l-20 6l46 136z" />
    <glyph glyph-name="uni1EB0" unicode="&#x1eb0;" 
d="M920 402q0 -6 -2 -13v-1q0 -53 -82 -82q-60 -21 -120 -21q-14 0 -33 2l87 -227q21 -39 60 -48v-14h-186v14q61 13 61 41q0 4 -1 7l-94 242q-66 20 -133 40q-85 25 -147 34l-41 -93q83 -5 127 -51q39 -42 39 -107q0 -67 -63 -113t-149 -46q-80 0 -147 56t-72 121
q-2 17 -2 34q0 119 76 181q64 52 159 52q22 0 52 -3l176 393l1 -1v1l14 -40l175 -451q24 -5 42 -5q84 0 135 29q48 28 48 69q0 90 -89 90q-17 0 -31 -3l-15 15q20 7 45 7q110 0 110 -109zM600 329l-135 351l-123 -278q58 -9 135 -33q62 -20 123 -40zM426 125q0 127 -172 128
h-15l57 126q-20 1 -36 1q-138 0 -187 -107q-28 -62 -21 -129q4 -51 59 -98q60 -50 132 -50q78 0 130.5 38.5t52.5 90.5zM639 901l-10 6q-35 -14 -50 -14q-11 0 -25 5l-40 -15q-21 -8 -39 -5q-10 1 -18 5l-40 15q-14 -5 -25 -5q-15 0 -50 14l-10 -6l106 -42q14 -5 30 -7
q14 -2 31 -1t34 8zM504 929l-19 -4q-17 23 -28 29q-14 8 -42 6l-17 28l60 9z" />
    <glyph glyph-name="uni1EB1" unicode="&#x1eb1;" horiz-adv-x="434" 
d="M414 1h-127v235q-34 -14 -96 -43q-7 14 -27 14q-34 0 -69 -33q-38 -36 -38 -79q0 -92 96 -92q26 0 52 7q23 6 28 11v-13q-23 -16 -87 -16q-112 0 -112 103q0 67 66 113q11 8 122 62q66 32 65 66q0 31 -25 49t-61 18q-46 0 -77 -27q-36 -30 -34 -82q0 -6 1 -17h-11
q-5 65 37 103q39 35 104 35q51 0 89 -22q41 -25 43 -62h1v-268q0 -30 17 -38q0 -1 43 -10v-14zM368 598l-10 12q-35 -28 -50 -28q-11 0 -25 10l-40 -30q-11 -9 -21 -10t-18 1q-10 3 -18 9l-40 30q-14 -10 -25 -10q-15 0 -50 28l-10 -12l106 -85q14 -10 30 -14q14 -4 31 -2
t34 16zM233 684l-19 -6q-17 44 -28 57q-14 15 -42 13l-17 53l60 19z" />
    <glyph glyph-name="uni1EB2" unicode="&#x1eb2;" 
d="M920 402q0 -6 -2 -13v-1q0 -53 -82 -82q-60 -21 -120 -21q-14 0 -33 2l87 -227q21 -39 60 -48v-14h-186v14q61 13 61 41q0 4 -1 7l-94 242q-66 20 -133 40q-85 25 -147 34l-41 -93q83 -5 127 -51q39 -42 39 -107q0 -67 -63 -113t-149 -46q-80 0 -147 56t-72 121
q-2 17 -2 34q0 119 76 181q64 52 159 52q22 0 52 -3l176 393l1 -1v1l14 -40l175 -451q24 -5 42 -5q84 0 135 29q48 28 48 69q0 90 -89 90q-17 0 -31 -3l-15 15q20 7 45 7q110 0 110 -109zM600 329l-135 351l-123 -278q58 -9 135 -33q62 -20 123 -40zM426 125q0 127 -172 128
h-15l57 126q-20 1 -36 1q-138 0 -187 -107q-28 -62 -21 -129q4 -51 59 -98q60 -50 132 -50q78 0 130.5 38.5t52.5 90.5zM639 901l-10 6q-35 -14 -50 -14q-11 0 -25 5l-40 -15q-21 -8 -39 -5q-10 1 -18 5l-40 15q-14 -5 -25 -5q-15 0 -50 14l-10 -6l106 -42q14 -5 30 -7
q14 -2 31 -1t34 8zM520 964q7 3 9 8t-8 9q-11 4 -29 4q-20 -1 -30 -5l-16 9q17 8 46 8q32 0 51 -7q16 -6 16 -16q-2 -16 -32 -24q-3 2 -9 2q-8 1 -15 -1t-12 -6q-8 -7 -8 -18q-2 -1 -5 0q-1 13 9 22q5 4 17 8q7 2 16 7z" />
    <glyph glyph-name="uni1EB3" unicode="&#x1eb3;" horiz-adv-x="434" 
d="M414 1h-127v235q-34 -14 -96 -43q-7 14 -27 14q-34 0 -69 -33q-38 -36 -38 -79q0 -92 96 -92q26 0 52 7q23 6 28 11v-13q-23 -16 -87 -16q-112 0 -112 103q0 67 66 113q11 8 122 62q66 32 65 66q0 31 -25 49t-61 18q-46 0 -77 -27q-36 -30 -34 -82q0 -6 1 -17h-11
q-5 65 37 103q39 35 104 35q51 0 89 -22q41 -25 43 -62h1v-268q0 -30 17 -38q0 -1 43 -10v-14zM368 598l-10 12q-35 -28 -50 -28q-11 0 -25 10l-40 -30q-11 -9 -21 -10t-18 1q-10 3 -18 9l-40 30q-14 -10 -25 -10q-15 0 -50 28l-10 -12l106 -85q14 -10 30 -14q14 -4 31 -2
t34 16zM244 754q7 7 9 16q2 11 -8 19q-11 8 -29 7q-20 -1 -30 -9l-16 17q17 16 46 16q32 0 51 -13q16 -13 16 -32q-2 -33 -32 -48q-3 3 -9 4q-8 1 -15 -3t-12 -12q-8 -13 -8 -36q-2 -2 -5 1q-1 26 9 44q5 7 17 15q7 5 16 14z" />
    <glyph glyph-name="uni1EB4" unicode="&#x1eb4;" 
d="M920 402q0 -6 -2 -13v-1q0 -53 -82 -82q-60 -21 -120 -21q-14 0 -33 2l87 -227q21 -39 60 -48v-14h-186v14q61 13 61 41q0 4 -1 7l-94 242q-66 20 -133 40q-85 25 -147 34l-41 -93q83 -5 127 -51q39 -42 39 -107q0 -67 -63 -113t-149 -46q-80 0 -147 56t-72 121
q-2 17 -2 34q0 119 76 181q64 52 159 52q22 0 52 -3l176 393l1 -1v1l14 -40l175 -451q24 -5 42 -5q84 0 135 29q48 28 48 69q0 90 -89 90q-17 0 -31 -3l-15 15q20 7 45 7q110 0 110 -109zM600 329l-135 351l-123 -278q58 -9 135 -33q62 -20 123 -40zM426 125q0 127 -172 128
h-15l57 126q-20 1 -36 1q-138 0 -187 -107q-28 -62 -21 -129q4 -51 59 -98q60 -50 132 -50q78 0 130.5 38.5t52.5 90.5zM639 901l-10 6q-35 -14 -50 -14q-11 0 -25 5l-40 -15q-21 -8 -39 -5q-10 1 -18 5l-40 15q-14 -5 -25 -5q-15 0 -50 14l-10 -6l106 -42q14 -5 30 -7
q14 -2 31 -1t34 8zM745 952q1 -1 -16 -5.5t-21 -5.5q-26 -5 -53 -5q-41 0 -115 14q-12 2 -24 2q-25 0 -34 -9q-30 6 -95 3q-18 -2 -33 -4q-36 -5 -50 -13l-36 23q28 12 73 19q40 6 85 6q46 0 78 -6q78 -15 81 -16q43 -8 74 -8q41 0 76 13z" />
    <glyph glyph-name="uni1EB5" unicode="&#x1eb5;" horiz-adv-x="434" 
d="M414 1h-127v235q-34 -14 -96 -43q-7 14 -27 14q-34 0 -69 -33q-38 -36 -38 -79q0 -92 96 -92q26 0 52 7q23 6 28 11v-13q-23 -16 -87 -16q-112 0 -112 103q0 67 66 113q11 8 122 62q66 32 65 66q0 31 -25 49t-61 18q-46 0 -77 -27q-36 -30 -34 -82q0 -6 1 -17h-11
q-5 65 37 103q39 35 104 35q51 0 89 -22q41 -25 43 -62h1v-268q0 -30 17 -38q0 -1 43 -10v-14zM368 598l-10 12q-35 -28 -50 -28q-11 0 -25 10l-40 -30q-11 -9 -21 -10t-18 1q-10 3 -18 9l-40 30q-14 -10 -25 -10q-15 0 -50 28l-10 -12l106 -85q14 -10 30 -14q14 -4 31 -2
t34 16zM511 732q1 -2 -16.5 -11.5t-21.5 -11.5q-25 -9 -52 -9q-41 0 -115 27q-13 5 -25 5q-24 0 -33 -19q-30 13 -95 6q-19 -3 -34 -8q-36 -10 -49 -25l-36 46q28 23 73 37q40 11 85 11t78 -12q78 -30 80 -31q44 -15 75 -15q41 0 75 25z" />
    <glyph glyph-name="uni1EB6" unicode="&#x1eb6;" 
d="M517 -100q0 -14 -10 -24t-24 -10t-24 10t-10 24t10 24t24 10t24 -10t10 -24zM920 402q0 -6 -2 -13v-1q0 -53 -82 -82q-60 -21 -120 -21q-14 0 -33 2l87 -227q21 -39 60 -48v-14h-186v14q61 13 61 41q0 4 -1 7l-94 242q-66 20 -133 40q-85 25 -147 34l-41 -93
q83 -5 127 -51q39 -42 39 -107q0 -67 -63 -113t-149 -46q-80 0 -147 56t-72 121q-2 17 -2 34q0 119 76 181q64 52 159 52q22 0 52 -3l176 393l1 -1v1l14 -40l175 -451q24 -5 42 -5q84 0 135 29q48 28 48 69q0 90 -89 90q-17 0 -31 -3l-15 15q20 7 45 7q110 0 110 -109z
M600 329l-135 351l-123 -278q58 -9 135 -33q62 -20 123 -40zM426 125q0 127 -172 128h-15l57 126q-20 1 -36 1q-138 0 -187 -107q-28 -62 -21 -129q4 -51 59 -98q60 -50 132 -50q78 0 130.5 38.5t52.5 90.5zM533 890q-17 -14 -34 -16t-31 2q-16 4 -30 14l-106 85l10 12
q35 -28 50 -28q11 0 25 10l40 -30q8 -6 18 -9q8 -2 18 -1t21 10l40 30q14 -10 25 -10q15 0 50 28l10 -12z" />
    <glyph glyph-name="uni1EB7" unicode="&#x1eb7;" horiz-adv-x="434" 
d="M227 -100q0 -14 -10 -24t-24 -10t-24 10t-10 24t10 24t24 10t24 -10t10 -24zM414 1h-127v235q-34 -14 -96 -43q-7 14 -27 14q-34 0 -69 -33q-38 -36 -38 -79q0 -92 96 -92q26 0 52 7q23 6 28 11v-13q-23 -16 -87 -16q-112 0 -112 103q0 67 66 113q11 8 122 62
q66 32 65 66q0 31 -25 49t-61 18q-46 0 -77 -27q-36 -30 -34 -82q0 -6 1 -17h-11q-5 65 37 103q39 35 104 35q51 0 89 -22q41 -25 43 -62h1v-268q0 -30 17 -38q0 -1 43 -10v-14zM262 513q-17 -14 -34 -16t-31 2q-16 4 -30 14l-106 85l10 12q35 -28 50 -28q11 0 25 10l40 -30
q8 -6 18 -9q8 -2 18 -1t21 10l40 30q14 -10 25 -10q15 0 50 28l10 -12z" />
    <glyph glyph-name="uni1EB8" unicode="&#x1eb8;" horiz-adv-x="625" 
d="M368 -100q0 -14 -10 -24t-24 -10t-24 10t-10 24t10 24t24 10t24 -10t10 -24zM595 201v-40q0 -69 -66 -115t-156 -47v-1h-279v1h-49v14q58 12 60 48l3 52v258h-36q-24 0 -35 -27q-3 -6 -13 -53h-14v187h14q4 -27 8 -53q9 -27 40 -27h36v340q0 35 -60 48v14h323
q90 0 157 -46.5t67 -115.5v-40h-28l-1 40q0 53 -56 93t-139 40q-82 0 -139 -38.5t-57 -90.5v-244h244v-27h-244v-210q0 -53 56.5 -93t139.5 -40t139.5 40t56.5 93v40h28z" />
    <glyph glyph-name="uni1EB9" unicode="&#x1eb9;" horiz-adv-x="425" 
d="M264 -100q0 -14 -10 -24t-24 -10t-24 10t-10 24t10 24t24 10t24 -10t10 -24zM399 215h-34v0h-265q-1 -11 0 -17t5 -6q-40 -5 -40 -40q0 -31 24 -67q49 -72 121 -78q43 -4 80 20t58 67h27q-26 -51 -73 -80.5t-101 -26.5q-78 5 -129.5 68.5t-47.5 150.5q5 86 63.5 143.5
t135.5 53.5q70 -4 120 -58t56 -130zM359 244q-24 91 -93 121q-23 10 -44 10q-66 0 -100 -73q-10 -22 -17 -58h254z" />
    <glyph glyph-name="uni1EBA" unicode="&#x1eba;" horiz-adv-x="625" 
d="M349 906q7 7 9 16q2 11 -8 19q-11 8 -29 7q-20 -1 -30 -9l-16 17q17 16 46 16q32 0 51 -13q16 -13 16 -32q-2 -33 -32 -48q-3 3 -9 4q-8 1 -15 -3t-12 -12q-8 -13 -8 -36q-2 -2 -5 1q-1 26 9 44q5 7 17 15q7 5 16 14zM595 201v-40q0 -69 -66 -115t-156 -47v-1h-279v1h-49
v14q58 12 60 48l3 52v258h-36q-24 0 -35 -27q-3 -6 -13 -53h-14v187h14q4 -27 8 -53q9 -27 40 -27h36v340q0 35 -60 48v14h323q90 0 157 -46.5t67 -115.5v-40h-28l-1 40q0 53 -56 93t-139 40q-82 0 -139 -38.5t-57 -90.5v-244h244v-27h-244v-210q0 -53 56.5 -93t139.5 -40
t139.5 40t56.5 93v40h28z" />
    <glyph glyph-name="uni1EBB" unicode="&#x1ebb;" horiz-adv-x="425" 
d="M249 534q7 7 9 16q2 11 -8 19q-11 8 -29 7q-20 -1 -30 -9l-16 17q17 16 46 16q32 0 51 -13q16 -13 16 -32q-2 -33 -32 -48q-3 3 -9 4q-8 1 -15 -3t-12 -12q-8 -13 -8 -36q-2 -2 -5 1q-1 26 9 44q5 7 17 15q7 5 16 14zM399 215h-34v0h-265q-1 -11 0 -17t5 -6
q-40 -5 -40 -40q0 -31 24 -67q49 -72 121 -78q43 -4 80 20t58 67h27q-26 -51 -73 -80.5t-101 -26.5q-78 5 -129.5 68.5t-47.5 150.5q5 86 63.5 143.5t135.5 53.5q70 -4 120 -58t56 -130zM359 244q-24 91 -93 121q-23 10 -44 10q-66 0 -100 -73q-10 -22 -17 -58h254z" />
    <glyph glyph-name="uni1EBC" unicode="&#x1ebc;" horiz-adv-x="625" 
d="M595 201v-40q0 -69 -66 -115t-156 -47v-1h-279v1h-49v14q58 12 60 48l3 52v258h-36q-24 0 -35 -27q-3 -6 -13 -53h-14v187h14q4 -27 8 -53q9 -27 40 -27h36v340q0 35 -60 48v14h323q90 0 157 -46.5t67 -115.5v-40h-28l-1 40q0 53 -56 93t-139 40q-82 0 -139 -38.5
t-57 -90.5v-244h244v-27h-244v-210q0 -53 56.5 -93t139.5 -40t139.5 40t56.5 93v40h28zM621 884q1 -2 -16 -11.5t-21 -11.5q-26 -9 -53 -9q-41 0 -115 27q-12 5 -24 5q-25 0 -34 -19q-30 13 -95 6q-18 -4 -33 -8q-36 -10 -50 -25l-36 46q28 23 73 37q40 11 85 11
q46 0 78 -12q78 -30 81 -31q43 -15 74 -15q41 0 76 25z" />
    <glyph glyph-name="uni1EBD" unicode="&#x1ebd;" horiz-adv-x="425" 
d="M399 215h-34v0h-265q-1 -11 0 -17t5 -6q-40 -5 -40 -40q0 -31 24 -67q49 -72 121 -78q43 -4 80 20t58 67h27q-26 -51 -73 -80.5t-101 -26.5q-78 5 -129.5 68.5t-47.5 150.5q5 86 63.5 143.5t135.5 53.5q70 -4 120 -58t56 -130zM359 244q-24 91 -93 121q-23 10 -44 10
q-66 0 -100 -73q-10 -22 -17 -58h254zM492 512q1 -2 -16.5 -11.5t-21.5 -11.5q-25 -9 -52 -9q-41 0 -115 27q-13 5 -25 5q-24 0 -33 -19q-30 13 -95 6q-19 -3 -34 -8q-36 -10 -49 -25l-36 46q28 23 73 37q40 11 85 11t78 -12q78 -30 80 -31q44 -15 75 -15q41 0 75 25z" />
    <glyph glyph-name="uni1EBE" unicode="&#x1ebe;" horiz-adv-x="625" 
d="M595 201v-40q0 -69 -66 -115t-156 -47v-1h-279v1h-49v14q58 12 60 48l3 52v258h-36q-24 0 -35 -27q-3 -6 -13 -53h-14v187h14q4 -27 8 -53q9 -27 40 -27h36v340q0 35 -60 48v14h323q90 0 157 -46.5t67 -115.5v-40h-28l-1 40q0 53 -56 93t-139 40q-82 0 -139 -38.5
t-57 -90.5v-244h244v-27h-244v-210q0 -53 56.5 -93t139.5 -40t139.5 40t56.5 93v40h28zM468 844l-10 -6q-35 14 -50 14q-11 0 -25 -5l-69 28l-68 -28q-14 5 -25 5q-15 0 -50 -14l-10 6l151 63zM398 988l-17 -27q-29 1 -41.5 -6t-28.5 -29l-19 3l45 68z" />
    <glyph glyph-name="uni1EBF" unicode="&#x1ebf;" horiz-adv-x="425" 
d="M371 496l-10 -13q-35 28 -50 28q-11 0 -25 -10l-69 56l-68 -56q-14 10 -25 10q-15 0 -50 -28l-10 13l151 124zM399 215h-34v0h-265q-1 -11 0 -17t5 -6q-40 -5 -40 -40q0 -31 24 -67q49 -72 121 -78q43 -4 80 20t58 67h27q-26 -51 -73 -80.5t-101 -26.5q-78 5 -129.5 68.5
t-47.5 150.5q5 86 63.5 143.5t135.5 53.5q70 -4 120 -58t56 -130zM359 244q-24 91 -93 121q-23 10 -44 10q-66 0 -100 -73q-10 -22 -17 -58h254zM300 801l-17 -53q-28 2 -40.5 -12t-28.5 -58l-20 6l46 136z" />
    <glyph glyph-name="uni1EC0" unicode="&#x1ec0;" horiz-adv-x="625" 
d="M595 201v-40q0 -69 -66 -115t-156 -47v-1h-279v1h-49v14q58 12 60 48l3 52v258h-36q-24 0 -35 -27q-3 -6 -13 -53h-14v187h14q4 -27 8 -53q9 -27 40 -27h36v340q0 35 -60 48v14h323q90 0 157 -46.5t67 -115.5v-40h-28l-1 40q0 53 -56 93t-139 40q-82 0 -139 -38.5
t-57 -90.5v-244h244v-27h-244v-210q0 -53 56.5 -93t139.5 -40t139.5 40t56.5 93v40h28zM468 844l-10 -6q-35 14 -50 14q-11 0 -25 -5l-69 28l-68 -28q-14 5 -25 5q-15 0 -50 -14l-10 6l151 63zM331 929l-19 -4q-17 23 -28 29q-14 8 -42 6l-17 28l60 9z" />
    <glyph glyph-name="uni1EC1" unicode="&#x1ec1;" horiz-adv-x="425" 
d="M371 496l-10 -13q-35 28 -50 28q-11 0 -25 -10l-69 56l-68 -56q-14 10 -25 10q-15 0 -50 -28l-10 13l151 124zM399 215h-34v0h-265q-1 -11 0 -17t5 -6q-40 -5 -40 -40q0 -31 24 -67q49 -72 121 -78q43 -4 80 20t58 67h27q-26 -51 -73 -80.5t-101 -26.5q-78 5 -129.5 68.5
t-47.5 150.5q5 86 63.5 143.5t135.5 53.5q70 -4 120 -58t56 -130zM359 244q-24 91 -93 121q-23 10 -44 10q-66 0 -100 -73q-10 -22 -17 -58h254zM233 684l-19 -6q-17 44 -28 57q-14 15 -42 13l-17 53l60 19z" />
    <glyph glyph-name="uni1EC2" unicode="&#x1ec2;" horiz-adv-x="625" 
d="M595 201v-40q0 -69 -66 -115t-156 -47v-1h-279v1h-49v14q58 12 60 48l3 52v258h-36q-24 0 -35 -27q-3 -6 -13 -53h-14v187h14q4 -27 8 -53q9 -27 40 -27h36v340q0 35 -60 48v14h323q90 0 157 -46.5t67 -115.5v-40h-28l-1 40q0 53 -56 93t-139 40q-82 0 -139 -38.5
t-57 -90.5v-244h244v-27h-244v-210q0 -53 56.5 -93t139.5 -40t139.5 40t56.5 93v40h28zM468 844l-10 -6q-35 14 -50 14q-11 0 -25 -5l-69 28l-68 -28q-14 5 -25 5q-15 0 -50 -14l-10 6l151 63zM346 964q7 3 9 8t-8 9q-11 4 -29 4q-20 -1 -30 -5l-16 9q17 8 46 8q32 0 51 -7
q16 -6 16 -16q-2 -16 -32 -24q-3 2 -9 2q-8 1 -15 -1t-12 -6q-8 -7 -8 -18q-2 -1 -5 0q-1 13 9 22q5 4 17 8q7 2 16 7z" />
    <glyph glyph-name="uni1EC3" unicode="&#x1ec3;" horiz-adv-x="425" 
d="M371 496l-10 -13q-35 28 -50 28q-11 0 -25 -10l-69 56l-68 -56q-14 10 -25 10q-15 0 -50 -28l-10 13l151 124zM399 215h-34v0h-265q-1 -11 0 -17t5 -6q-40 -5 -40 -40q0 -31 24 -67q49 -72 121 -78q43 -4 80 20t58 67h27q-26 -51 -73 -80.5t-101 -26.5q-78 5 -129.5 68.5
t-47.5 150.5q5 86 63.5 143.5t135.5 53.5q70 -4 120 -58t56 -130zM359 244q-24 91 -93 121q-23 10 -44 10q-66 0 -100 -73q-10 -22 -17 -58h254zM244 754q7 7 9 16q2 11 -8 19q-11 8 -29 7q-20 -1 -30 -9l-16 17q17 16 46 16q32 0 51 -13q16 -13 16 -32q-2 -33 -32 -48
q-3 3 -9 4q-8 1 -15 -3t-12 -12q-8 -13 -8 -36q-2 -2 -5 1q-1 26 9 44q5 7 17 15q7 5 16 14z" />
    <glyph glyph-name="uni1EC4" unicode="&#x1ec4;" horiz-adv-x="625" 
d="M595 201v-40q0 -69 -66 -115t-156 -47v-1h-279v1h-49v14q58 12 60 48l3 52v258h-36q-24 0 -35 -27q-3 -6 -13 -53h-14v187h14q4 -27 8 -53q9 -27 40 -27h36v340q0 35 -60 48v14h323q90 0 157 -46.5t67 -115.5v-40h-28l-1 40q0 53 -56 93t-139 40q-82 0 -139 -38.5
t-57 -90.5v-244h244v-27h-244v-210q0 -53 56.5 -93t139.5 -40t139.5 40t56.5 93v40h28zM468 844l-10 -6q-35 14 -50 14q-11 0 -25 -5l-69 28l-68 -28q-14 5 -25 5q-15 0 -50 -14l-10 6l151 63zM575 952q1 -1 -16 -5.5t-21 -5.5q-26 -5 -53 -5q-41 0 -115 14q-12 2 -24 2
q-25 0 -34 -9q-30 6 -95 3q-18 -2 -33 -4q-36 -5 -50 -13l-36 23q28 12 73 19q40 6 85 6q46 0 78 -6q78 -15 81 -16q43 -8 74 -8q41 0 76 13z" />
    <glyph glyph-name="uni1EC5" unicode="&#x1ec5;" horiz-adv-x="425" 
d="M371 496l-10 -13q-35 28 -50 28q-11 0 -25 -10l-69 56l-68 -56q-14 10 -25 10q-15 0 -50 -28l-10 13l151 124zM399 215h-34v0h-265q-1 -11 0 -17t5 -6q-40 -5 -40 -40q0 -31 24 -67q49 -72 121 -78q43 -4 80 20t58 67h27q-26 -51 -73 -80.5t-101 -26.5q-78 5 -129.5 68.5
t-47.5 150.5q5 86 63.5 143.5t135.5 53.5q70 -4 120 -58t56 -130zM359 244q-24 91 -93 121q-23 10 -44 10q-66 0 -100 -73q-10 -22 -17 -58h254zM500 732q1 -2 -16.5 -11.5t-21.5 -11.5q-25 -9 -52 -9q-41 0 -115 27q-13 5 -25 5q-24 0 -33 -19q-30 13 -95 6q-19 -3 -34 -8
q-36 -10 -49 -25l-36 46q28 23 73 37q40 11 85 11t78 -12q78 -30 80 -31q44 -15 75 -15q41 0 75 25z" />
    <glyph glyph-name="uni1EC6" unicode="&#x1ec6;" horiz-adv-x="625" 
d="M368 -100q0 -14 -10 -24t-24 -10t-24 10t-10 24t10 24t24 10t24 -10t10 -24zM595 201v-40q0 -69 -66 -115t-156 -47v-1h-279v1h-49v14q58 12 60 48l3 52v258h-36q-24 0 -35 -27q-3 -6 -13 -53h-14v187h14q4 -27 8 -53q9 -27 40 -27h36v340q0 35 -60 48v14h323
q90 0 157 -46.5t67 -115.5v-40h-28l-1 40q0 53 -56 93t-139 40q-82 0 -139 -38.5t-57 -90.5v-244h244v-27h-244v-210q0 -53 56.5 -93t139.5 -40t139.5 40t56.5 93v40h28zM468 872l-10 -12q-35 28 -50 28q-11 0 -25 -10l-69 56l-68 -56q-14 10 -25 10q-15 0 -50 -28l-10 12
l151 125z" />
    <glyph glyph-name="uni1EC7" unicode="&#x1ec7;" horiz-adv-x="425" 
d="M264 -100q0 -14 -10 -24t-24 -10t-24 10t-10 24t10 24t24 10t24 -10t10 -24zM399 215h-34v0h-265q-1 -11 0 -17t5 -6q-40 -5 -40 -40q0 -31 24 -67q49 -72 121 -78q43 -4 80 20t58 67h27q-26 -51 -73 -80.5t-101 -26.5q-78 5 -129.5 68.5t-47.5 150.5q5 86 63.5 143.5
t135.5 53.5q70 -4 120 -58t56 -130zM359 244q-24 91 -93 121q-23 10 -44 10q-66 0 -100 -73q-10 -22 -17 -58h254zM371 496l-10 -13q-35 28 -50 28q-11 0 -25 -10l-69 56l-68 -56q-14 10 -25 10q-15 0 -50 -28l-10 13l151 124z" />
    <glyph glyph-name="uni1EC8" unicode="&#x1ec8;" horiz-adv-x="227" 
d="M207 -2h-187v14q60 13 60 48v483q19 4 32.5 30.5t13.5 63.5q0 6 -1 14h22v-591q0 -35 60 -48v-14zM160 757q7 7 9 16q2 11 -8 19q-11 8 -29 7q-20 -1 -30 -9l-16 17q17 16 46 16q32 0 51 -13q16 -13 16 -32q-2 -33 -32 -48q-3 3 -9 4q-8 1 -15 -3t-12 -12q-8 -13 -8 -36
q-2 -2 -5 1q-1 26 9 44q5 7 17 15q7 5 16 14z" />
    <glyph glyph-name="uni1EC9" unicode="&#x1ec9;" horiz-adv-x="227" 
d="M154 614q7 7 9 16q2 11 -8 19q-11 8 -29 7q-20 -1 -30 -9l-16 17q17 16 46 16q32 0 51 -13q16 -13 16 -32q-2 -33 -32 -48q-3 3 -9 4q-8 1 -15 -3t-12 -12q-8 -13 -8 -36q-2 -2 -5 1q-1 26 9 44q5 7 17 15q7 5 16 14zM147 1h-127v14q60 13 60 48v333q19 4 32.5 31
t13.5 63q0 7 -1 14h22v-503z" />
    <glyph glyph-name="uni1ECA" unicode="&#x1eca;" horiz-adv-x="227" 
d="M147 834q0 -14 -9.5 -24t-23.5 -10t-24 10t-10 24t10 24t24 10t23.5 -10t9.5 -24zM207 -2h-187v14q60 13 60 48v483q19 4 32.5 30.5t13.5 63.5q0 6 -1 14h22v-591q0 -35 60 -48v-14zM147 -100q0 -14 -10 -24t-24 -10t-24 10t-10 24t10 24t24 10t24 -10t10 -24z" />
    <glyph glyph-name="uni1ECB" unicode="&#x1ecb;" horiz-adv-x="227" 
d="M151 577q0 -14 -10 -24t-24 -10t-24 10t-10 24t10 24t24 10t24 -10t10 -24zM147 1h-127v14q60 13 60 48v333q19 4 32.5 31t13.5 63q0 7 -1 14h22v-503zM147 -100q0 -14 -10 -24t-24 -10t-24 10t-10 24t10 24t24 10t24 -10t10 -24z" />
    <glyph glyph-name="uni1ECC" unicode="&#x1ecc;" horiz-adv-x="826" 
d="M458 -100q0 -14 -10 -24t-24 -10t-24 10t-10 24t10 24t24 10t24 -10t10 -24zM787 386q-6 -169 -119 -285t-267 -111q-155 5 -260.5 128t-100.5 293q5 169 118 285t268 111t260.5 -128.5t100.5 -292.5zM738 375q0 116 -54 218q-62 118 -168 160q-44 18 -87 18
q-69 0 -126 -45q-53 -42 -83 -110q-16 -37 -29 -98t-13 -99q0 -33 11 -31q-82 -13 -82 -82q0 -65 56 -140q44 -61 109 -103q73 -47 146 -51q134 -9 227.5 97.5t92.5 265.5z" />
    <glyph glyph-name="uni1ECD" unicode="&#x1ecd;" horiz-adv-x="439" 
d="M259 -100q0 -14 -10 -24t-24 -10t-24 10t-10 24t10 24t24 10t24 -10t10 -24zM412 188q-5 -88 -65 -147t-139 -55q-80 5 -132.5 70.5t-48.5 153.5q5 88 64.5 147t139.5 54q80 -4 132.5 -69.5t48.5 -153.5zM379 183q1 57 -24 109q-29 59 -81 81q-22 10 -44 10
q-68 0 -102 -75q-23 -49 -23 -99q0 -14 5 -13q-41 -6 -41 -41q0 -32 25 -69q50 -73 124 -79q65 -6 112 45.5t49 130.5z" />
    <glyph glyph-name="uni1ECE" unicode="&#x1ece;" horiz-adv-x="826" 
d="M450 906q7 7 9 16q2 11 -8 19q-11 8 -29 7q-20 -1 -30 -9l-16 17q17 16 46 16q32 0 51 -13q16 -13 16 -32q-2 -33 -32 -48q-3 3 -9 4q-8 1 -15 -3t-12 -12q-8 -13 -8 -36q-2 -2 -5 1q-1 26 9 44q5 7 17 15q7 5 16 14zM787 386q-6 -169 -119 -285t-267 -111
q-155 5 -260.5 128t-100.5 293q5 169 118 285t268 111t260.5 -128.5t100.5 -292.5zM738 375q0 116 -54 218q-62 118 -168 160q-44 18 -87 18q-69 0 -126 -45q-53 -42 -83 -110q-16 -37 -29 -98t-13 -99q0 -33 11 -31q-82 -13 -82 -82q0 -65 56 -140q44 -61 109 -103
q73 -47 146 -51q134 -9 227.5 97.5t92.5 265.5z" />
    <glyph glyph-name="uni1ECF" unicode="&#x1ecf;" horiz-adv-x="439" 
d="M244 534q7 7 9 16q2 11 -8 19q-11 8 -29 7q-20 -1 -30 -9l-16 17q17 16 46 16q32 0 51 -13q16 -13 16 -32q-2 -33 -32 -48q-3 3 -9 4q-8 1 -15 -3t-12 -12q-8 -13 -8 -36q-2 -2 -5 1q-1 26 9 44q5 7 17 15q7 5 16 14zM412 188q-5 -88 -65 -147t-139 -55
q-80 5 -132.5 70.5t-48.5 153.5q5 88 64.5 147t139.5 54q80 -4 132.5 -69.5t48.5 -153.5zM379 183q1 57 -24 109q-29 59 -81 81q-22 10 -44 10q-68 0 -102 -75q-23 -49 -23 -99q0 -14 5 -13q-41 -6 -41 -41q0 -32 25 -69q50 -73 124 -79q65 -6 112 45.5t49 130.5z" />
    <glyph glyph-name="uni1ED0" unicode="&#x1ed0;" horiz-adv-x="826" 
d="M787 386q-6 -169 -119 -285t-267 -111q-155 5 -260.5 128t-100.5 293q5 169 118 285t268 111t260.5 -128.5t100.5 -292.5zM738 375q0 116 -54 218q-62 118 -168 160q-44 18 -87 18q-69 0 -126 -45q-53 -42 -83 -110q-16 -37 -29 -98t-13 -99q0 -33 11 -31
q-82 -13 -82 -82q0 -65 56 -140q44 -61 109 -103q73 -47 146 -51q134 -9 227.5 97.5t92.5 265.5zM572 844l-10 -6q-35 14 -50 14q-11 0 -25 -5l-69 28l-68 -28q-14 5 -25 5q-15 0 -50 -14l-10 6l151 63zM502 988l-17 -27q-29 1 -41.5 -6t-28.5 -29l-19 3l45 68z" />
    <glyph glyph-name="uni1ED1" unicode="&#x1ed1;" horiz-adv-x="439" 
d="M382 496l-10 -13q-35 28 -50 28q-11 0 -25 -10l-69 56l-68 -56q-14 10 -25 10q-15 0 -50 -28l-10 13l151 124zM412 188q-5 -88 -65 -147t-139 -55q-80 5 -132.5 70.5t-48.5 153.5q5 88 64.5 147t139.5 54q80 -4 132.5 -69.5t48.5 -153.5zM379 183q1 57 -24 109
q-29 59 -81 81q-22 10 -44 10q-68 0 -102 -75q-23 -49 -23 -99q0 -14 5 -13q-41 -6 -41 -41q0 -32 25 -69q50 -73 124 -79q65 -6 112 45.5t49 130.5zM312 801l-17 -53q-28 2 -40.5 -12t-28.5 -58l-20 6l46 136z" />
    <glyph glyph-name="uni1ED2" unicode="&#x1ed2;" horiz-adv-x="826" 
d="M787 386q-6 -169 -119 -285t-267 -111q-155 5 -260.5 128t-100.5 293q5 169 118 285t268 111t260.5 -128.5t100.5 -292.5zM738 375q0 116 -54 218q-62 118 -168 160q-44 18 -87 18q-69 0 -126 -45q-53 -42 -83 -110q-16 -37 -29 -98t-13 -99q0 -33 11 -31
q-82 -13 -82 -82q0 -65 56 -140q44 -61 109 -103q73 -47 146 -51q134 -9 227.5 97.5t92.5 265.5zM572 844l-10 -6q-35 14 -50 14q-11 0 -25 -5l-69 28l-68 -28q-14 5 -25 5q-15 0 -50 -14l-10 6l151 63zM435 929l-19 -4q-17 23 -28 29q-14 8 -42 6l-17 28l60 9z" />
    <glyph glyph-name="uni1ED3" unicode="&#x1ed3;" horiz-adv-x="439" 
d="M382 496l-10 -13q-35 28 -50 28q-11 0 -25 -10l-69 56l-68 -56q-14 10 -25 10q-15 0 -50 -28l-10 13l151 124zM412 188q-5 -88 -65 -147t-139 -55q-80 5 -132.5 70.5t-48.5 153.5q5 88 64.5 147t139.5 54q80 -4 132.5 -69.5t48.5 -153.5zM379 183q1 57 -24 109
q-29 59 -81 81q-22 10 -44 10q-68 0 -102 -75q-23 -49 -23 -99q0 -14 5 -13q-41 -6 -41 -41q0 -32 25 -69q50 -73 124 -79q65 -6 112 45.5t49 130.5zM243 684l-19 -6q-17 44 -28 57q-14 15 -42 13l-17 53l60 19z" />
    <glyph glyph-name="uni1ED4" unicode="&#x1ed4;" horiz-adv-x="826" 
d="M787 386q-6 -169 -119 -285t-267 -111q-155 5 -260.5 128t-100.5 293q5 169 118 285t268 111t260.5 -128.5t100.5 -292.5zM738 375q0 116 -54 218q-62 118 -168 160q-44 18 -87 18q-69 0 -126 -45q-53 -42 -83 -110q-16 -37 -29 -98t-13 -99q0 -33 11 -31
q-82 -13 -82 -82q0 -65 56 -140q44 -61 109 -103q73 -47 146 -51q134 -9 227.5 97.5t92.5 265.5zM572 844l-10 -6q-35 14 -50 14q-11 0 -25 -5l-69 28l-68 -28q-14 5 -25 5q-15 0 -50 -14l-10 6l151 63zM450 964q7 3 9 8t-8 9q-11 4 -29 4q-20 -1 -30 -5l-16 9q17 8 46 8
q32 0 51 -7q16 -6 16 -16q-2 -16 -32 -24q-3 2 -9 2q-8 1 -15 -1t-12 -6q-8 -7 -8 -18q-2 -1 -5 0q-1 13 9 22q5 4 17 8q7 2 16 7z" />
    <glyph glyph-name="uni1ED5" unicode="&#x1ed5;" horiz-adv-x="439" 
d="M261 754q7 7 9 16q2 11 -8 19q-11 8 -29 7q-20 -1 -30 -9l-16 17q17 16 46 16q32 0 51 -13q16 -13 16 -32q-2 -33 -32 -48q-3 3 -9 4q-8 1 -15 -3t-12 -12q-8 -13 -8 -36q-2 -2 -5 1q-1 26 9 44q5 7 17 15q7 5 16 14zM382 496l-10 -13q-35 28 -50 28q-11 0 -25 -10
l-69 56l-68 -56q-14 10 -25 10q-15 0 -50 -28l-10 13l151 124zM412 188q-5 -88 -65 -147t-139 -55q-80 5 -132.5 70.5t-48.5 153.5q5 88 64.5 147t139.5 54q80 -4 132.5 -69.5t48.5 -153.5zM379 183q1 57 -24 109q-29 59 -81 81q-22 10 -44 10q-68 0 -102 -75
q-23 -49 -23 -99q0 -14 5 -13q-41 -6 -41 -41q0 -32 25 -69q50 -73 124 -79q65 -6 112 45.5t49 130.5z" />
    <glyph glyph-name="uni1ED6" unicode="&#x1ed6;" horiz-adv-x="826" 
d="M787 386q-6 -169 -119 -285t-267 -111q-155 5 -260.5 128t-100.5 293q5 169 118 285t268 111t260.5 -128.5t100.5 -292.5zM738 375q0 116 -54 218q-62 118 -168 160q-44 18 -87 18q-69 0 -126 -45q-53 -42 -83 -110q-16 -37 -29 -98t-13 -99q0 -33 11 -31
q-82 -13 -82 -82q0 -65 56 -140q44 -61 109 -103q73 -47 146 -51q134 -9 227.5 97.5t92.5 265.5zM572 844l-10 -6q-35 14 -50 14q-11 0 -25 -5l-69 28l-68 -28q-14 5 -25 5q-15 0 -50 -14l-10 6l151 63zM675 952q1 -1 -16 -5.5t-21 -5.5q-26 -5 -53 -5q-41 0 -115 14
q-12 2 -24 2q-25 0 -34 -9q-30 6 -95 3q-18 -2 -33 -4q-36 -5 -50 -13l-36 23q28 12 73 19q40 6 85 6q46 0 78 -6q78 -15 81 -16q43 -8 74 -8q41 0 76 13z" />
    <glyph glyph-name="uni1ED7" unicode="&#x1ed7;" horiz-adv-x="439" 
d="M382 496l-10 -13q-35 28 -50 28q-11 0 -25 -10l-69 56l-68 -56q-14 10 -25 10q-15 0 -50 -28l-10 13l151 124zM412 188q-5 -88 -65 -147t-139 -55q-80 5 -132.5 70.5t-48.5 153.5q5 88 64.5 147t139.5 54q80 -4 132.5 -69.5t48.5 -153.5zM379 183q1 57 -24 109
q-29 59 -81 81q-22 10 -44 10q-68 0 -102 -75q-23 -49 -23 -99q0 -14 5 -13q-41 -6 -41 -41q0 -32 25 -69q50 -73 124 -79q65 -6 112 45.5t49 130.5zM482 732q1 -2 -16.5 -11.5t-21.5 -11.5q-25 -9 -52 -9q-41 0 -115 27q-13 5 -25 5q-24 0 -33 -19q-30 13 -95 6
q-19 -3 -34 -8q-36 -10 -49 -25l-36 46q28 23 73 37q40 11 85 11t78 -12q78 -30 80 -31q44 -15 75 -15q41 0 75 25z" />
    <glyph glyph-name="uni1ED8" unicode="&#x1ed8;" horiz-adv-x="826" 
d="M458 -100q0 -14 -10 -24t-24 -10t-24 10t-10 24t10 24t24 10t24 -10t10 -24zM787 386q-6 -169 -119 -285t-267 -111q-155 5 -260.5 128t-100.5 293q5 169 118 285t268 111t260.5 -128.5t100.5 -292.5zM738 375q0 116 -54 218q-62 118 -168 160q-44 18 -87 18
q-69 0 -126 -45q-53 -42 -83 -110q-16 -37 -29 -98t-13 -99q0 -33 11 -31q-82 -13 -82 -82q0 -65 56 -140q44 -61 109 -103q73 -47 146 -51q134 -9 227.5 97.5t92.5 265.5zM572 872l-10 -12q-35 28 -50 28q-11 0 -25 -10l-68 56l-69 -56q-14 10 -24 10q-15 0 -51 -28l-10 12
l151 125z" />
    <glyph glyph-name="uni1ED9" unicode="&#x1ed9;" horiz-adv-x="439" 
d="M259 -100q0 -14 -10 -24t-24 -10t-24 10t-10 24t10 24t24 10t24 -10t10 -24zM412 188q-5 -88 -65 -147t-139 -55q-80 5 -132.5 70.5t-48.5 153.5q5 88 64.5 147t139.5 54q80 -4 132.5 -69.5t48.5 -153.5zM379 183q1 57 -24 109q-29 59 -81 81q-22 10 -44 10
q-68 0 -102 -75q-23 -49 -23 -99q0 -14 5 -13q-41 -6 -41 -41q0 -32 25 -69q50 -73 124 -79q65 -6 112 45.5t49 130.5zM382 496l-10 -13q-35 28 -50 28q-11 0 -25 -10l-69 56l-68 -56q-14 10 -25 10q-15 0 -50 -28l-10 13l151 124z" />
    <glyph glyph-name="uni1EDA" unicode="&#x1eda;" horiz-adv-x="826" 
d="M647 717q145 -162 140 -331q-6 -169 -119 -285t-267 -111q-155 5 -260.5 128t-100.5 293q5 169 118 285t268 111q111 -4 200 -70q20 2 39 13q9 5 15 14q2 4 1 7q0 5 -11.5 11t-16.5 14q-10 18 -6 35q5 16 23 26.5t38 4.5q23 -7 34 -30t1 -51q-11 -24 -41 -43
q-29 -14 -55 -21zM738 375q0 116 -54 218q-62 118 -168 160q-44 18 -87 18q-69 0 -126 -45q-53 -42 -83 -110q-16 -37 -29 -98t-13 -99q0 -33 11 -31q-82 -13 -82 -82q0 -65 56 -140q44 -61 109 -103q73 -47 146 -51q134 -9 227.5 97.5t92.5 265.5zM521 953l-17 -53
q-28 2 -40.5 -12t-28.5 -58l-20 6l46 136z" />
    <glyph glyph-name="uni1EDB" unicode="&#x1edb;" horiz-adv-x="441" 
d="M373 330q43 -54 39 -142q-5 -88 -65 -147t-139 -55q-80 5 -132.5 70.5t-48.5 153.5q5 88 64.5 147t139.5 54q75 -4 129 -65q8 0 17 5q7 4 12 11q1 3 1 5q0 4 -9.5 8.5t-12.5 10.5q-8 14 -4 27q3 13 17 21t29 4q18 -5 26.5 -23t0.5 -40q-6 -18 -31 -33q-15 -7 -33 -12z
M379 183q1 57 -24 109q-29 59 -81 81q-22 10 -44 10q-68 0 -102 -75q-23 -49 -23 -99q0 -14 5 -13q-41 -6 -41 -41q0 -32 25 -69q50 -73 124 -79q65 -6 112 45.5t49 130.5zM311 581l-17 -53q-28 2 -40.5 -12t-28.5 -58l-20 6l46 136z" />
    <glyph glyph-name="uni1EDC" unicode="&#x1edc;" horiz-adv-x="826" 
d="M647 717q145 -162 140 -331q-6 -169 -119 -285t-267 -111q-155 5 -260.5 128t-100.5 293q5 169 118 285t268 111q111 -4 200 -70q20 2 39 13q9 5 15 14q2 4 1 7q0 5 -11.5 11t-16.5 14q-10 18 -6 35q5 16 23 26.5t38 4.5q23 -7 34 -30t1 -51q-11 -24 -41 -43
q-29 -14 -55 -21zM738 375q0 116 -54 218q-62 118 -168 160q-44 18 -87 18q-69 0 -126 -45q-53 -42 -83 -110q-16 -37 -29 -98t-13 -99q0 -33 11 -31q-82 -13 -82 -82q0 -65 56 -140q44 -61 109 -103q73 -47 146 -51q134 -9 227.5 97.5t92.5 265.5zM433 837l-19 -7
q-17 45 -28 57q-14 15 -42 13l-17 54l60 18z" />
    <glyph glyph-name="uni1EDD" unicode="&#x1edd;" horiz-adv-x="441" 
d="M373 330q43 -54 39 -142q-5 -88 -65 -147t-139 -55q-80 5 -132.5 70.5t-48.5 153.5q5 88 64.5 147t139.5 54q75 -4 129 -65q8 0 17 5q7 4 12 11q1 3 1 5q0 4 -9.5 8.5t-12.5 10.5q-8 14 -4 27q3 13 17 21t29 4q18 -5 26.5 -23t0.5 -40q-6 -18 -31 -33q-15 -7 -33 -12z
M379 183q1 57 -24 109q-29 59 -81 81q-22 10 -44 10q-68 0 -102 -75q-23 -49 -23 -99q0 -14 5 -13q-41 -6 -41 -41q0 -32 25 -69q50 -73 124 -79q65 -6 112 45.5t49 130.5zM241 464l-19 -6q-17 44 -28 57q-14 15 -42 13l-17 53l60 19z" />
    <glyph glyph-name="uni1EDE" unicode="&#x1ede;" horiz-adv-x="826" 
d="M450 906q7 7 9 16q2 11 -8 19q-11 8 -29 7q-20 -1 -30 -9l-16 17q17 16 46 16q32 0 51 -13q16 -13 16 -32q-2 -33 -32 -48q-3 3 -9 4q-8 1 -15 -3t-12 -12q-8 -13 -8 -36q-2 -2 -5 1q-1 26 9 44q5 7 17 15q7 5 16 14zM647 717q145 -162 140 -331q-6 -169 -119 -285
t-267 -111q-155 5 -260.5 128t-100.5 293q5 169 118 285t268 111q111 -4 200 -70q20 2 39 13q9 5 15 14q2 4 1 7q0 5 -11.5 11t-16.5 14q-10 18 -6 35q5 16 23 26.5t38 4.5q23 -7 34 -30t1 -51q-11 -24 -41 -43q-29 -14 -55 -21zM738 375q0 116 -54 218q-62 118 -168 160
q-44 18 -87 18q-69 0 -126 -45q-53 -42 -83 -110q-16 -37 -29 -98t-13 -99q0 -33 11 -31q-82 -13 -82 -82q0 -65 56 -140q44 -61 109 -103q73 -47 146 -51q134 -9 227.5 97.5t92.5 265.5z" />
    <glyph glyph-name="uni1EDF" unicode="&#x1edf;" horiz-adv-x="441" 
d="M244 534q7 7 9 16q2 11 -8 19q-11 8 -29 7q-20 -1 -30 -9l-16 17q17 16 46 16q32 0 51 -13q16 -13 16 -32q-2 -33 -32 -48q-3 3 -9 4q-8 1 -15 -3t-12 -12q-8 -13 -8 -36q-2 -2 -5 1q-1 26 9 44q5 7 17 15q7 5 16 14zM373 330q43 -54 39 -142q-5 -88 -65 -147t-139 -55
q-80 5 -132.5 70.5t-48.5 153.5q5 88 64.5 147t139.5 54q75 -4 129 -65q8 0 17 5q7 4 12 11q1 3 1 5q0 4 -9.5 8.5t-12.5 10.5q-8 14 -4 27q3 13 17 21t29 4q18 -5 26.5 -23t0.5 -40q-6 -18 -31 -33q-15 -7 -33 -12zM379 183q1 57 -24 109q-29 59 -81 81q-22 10 -44 10
q-68 0 -102 -75q-23 -49 -23 -99q0 -14 5 -13q-41 -6 -41 -41q0 -32 25 -69q50 -73 124 -79q65 -6 112 45.5t49 130.5z" />
    <glyph glyph-name="uni1EE0" unicode="&#x1ee0;" horiz-adv-x="826" 
d="M647 717q145 -162 140 -331q-6 -169 -119 -285t-267 -111q-155 5 -260.5 128t-100.5 293q5 169 118 285t268 111q111 -4 200 -70q20 2 39 13q9 5 15 14q2 4 1 7q0 5 -11.5 11t-16.5 14q-10 18 -6 35q5 16 23 26.5t38 4.5q23 -7 34 -30t1 -51q-11 -24 -41 -43
q-29 -14 -55 -21zM738 375q0 116 -54 218q-62 118 -168 160q-44 18 -87 18q-69 0 -126 -45q-53 -42 -83 -110q-16 -37 -29 -98t-13 -99q0 -33 11 -31q-82 -13 -82 -82q0 -65 56 -140q44 -61 109 -103q73 -47 146 -51q134 -9 227.5 97.5t92.5 265.5zM666 884
q1 -2 -16.5 -11.5t-21.5 -11.5q-25 -9 -52 -9q-41 0 -115 27q-12 5 -25 5q-24 0 -33 -19q-30 13 -95 6q-19 -4 -34 -8q-36 -10 -49 -25l-36 46q28 23 73 37q40 11 85 11t78 -12q78 -30 80 -31q44 -15 75 -15q41 0 76 25z" />
    <glyph glyph-name="uni1EE1" unicode="&#x1ee1;" horiz-adv-x="441" 
d="M373 330q43 -54 39 -142q-5 -88 -65 -147t-139 -55q-80 5 -132.5 70.5t-48.5 153.5q5 88 64.5 147t139.5 54q75 -4 129 -65q8 0 17 5q7 4 12 11q1 3 1 5q0 4 -9.5 8.5t-12.5 10.5q-8 14 -4 27q3 13 17 21t29 4q18 -5 26.5 -23t0.5 -40q-6 -18 -31 -33q-15 -7 -33 -12z
M379 183q1 57 -24 109q-29 59 -81 81q-22 10 -44 10q-68 0 -102 -75q-23 -49 -23 -99q0 -14 5 -13q-41 -6 -41 -41q0 -32 25 -69q50 -73 124 -79q65 -6 112 45.5t49 130.5zM501 512q1 -2 -16.5 -11.5t-21.5 -11.5q-25 -9 -52 -9q-41 0 -115 27q-13 5 -25 5q-24 0 -33 -19
q-30 13 -95 6q-19 -3 -34 -8q-36 -10 -49 -25l-36 46q28 23 73 37q40 11 85 11t78 -12q78 -30 80 -31q44 -15 75 -15q41 0 75 25z" />
    <glyph glyph-name="uni1EE2" unicode="&#x1ee2;" horiz-adv-x="826" 
d="M458 -100q0 -14 -10 -24t-24 -10t-24 10t-10 24t10 24t24 10t24 -10t10 -24zM647 717q145 -162 140 -331q-6 -169 -119 -285t-267 -111q-155 5 -260.5 128t-100.5 293q5 169 118 285t268 111q111 -4 200 -70q20 2 39 13q9 5 15 14q2 4 1 7q0 5 -11.5 11t-16.5 14
q-10 18 -6 35q5 16 23 26.5t38 4.5q23 -7 34 -30t1 -51q-11 -24 -41 -43q-29 -14 -55 -21zM738 375q0 116 -54 218q-62 118 -168 160q-44 18 -87 18q-69 0 -126 -45q-53 -42 -83 -110q-16 -37 -29 -98t-13 -99q0 -33 11 -31q-82 -13 -82 -82q0 -65 56 -140q44 -61 109 -103
q73 -47 146 -51q134 -9 227.5 97.5t92.5 265.5z" />
    <glyph glyph-name="uni1EE3" unicode="&#x1ee3;" horiz-adv-x="441" 
d="M259 -100q0 -14 -10 -24t-24 -10t-24 10t-10 24t10 24t24 10t24 -10t10 -24zM373 330q43 -54 39 -142q-5 -88 -65 -147t-139 -55q-80 5 -132.5 70.5t-48.5 153.5q5 88 64.5 147t139.5 54q75 -4 129 -65q8 0 17 5q7 4 12 11q1 3 1 5q0 4 -9.5 8.5t-12.5 10.5q-8 14 -4 27
q3 13 17 21t29 4q18 -5 26.5 -23t0.5 -40q-6 -18 -31 -33q-15 -7 -33 -12zM379 183q1 57 -24 109q-29 59 -81 81q-22 10 -44 10q-68 0 -102 -75q-23 -49 -23 -99q0 -14 5 -13q-41 -6 -41 -41q0 -32 25 -69q50 -73 124 -79q65 -6 112 45.5t49 130.5z" />
    <glyph glyph-name="uni1EE4" unicode="&#x1ee4;" horiz-adv-x="779" 
d="M414 -100q0 -14 -10 -24t-24 -10t-24 10t-10 24t10 24t24 10t24 -10t10 -24zM759 -2h-127v102q-40 -47 -106 -75q-69 -29 -148 -29q-121 0 -207 60.5t-91 147.5v-1v533q0 35 -60 48v14h186v-14q-59 -13 -59 -48v-397h-2v-6q-38 -12 -38 -67q0 -19 -1 -20l1 -19
q0 -96 77 -155q74 -57 186 -57q102 0 178 58.5t84 138.5v269q0 35 -60 48v14h187v-14q-60 -13 -60 -48v-421q0 -35 60 -48v-14z" />
    <glyph glyph-name="uni1EE5" unicode="&#x1ee5;" horiz-adv-x="503" 
d="M269 -100q0 -14 -10 -24t-24 -10t-24 10t-10 24t10 24t24 10t24 -10t10 -24zM685 38h-20q9 97 -109 104q-79 0 -143 -48v-4v0v-31q0 -35 59 -48v-14h-126v38q-65 -59 -127 -59q-93 0 -124 65q-15 33 -15 107v191q0 35 -60 48v14h186v-14q-59 -13 -59 -48v-191h-1
q-43 -26 -43 -66q0 -35 32.5 -61.5t82.5 -26.5q54 0 128 67v146h1v31q0 35 -60 48v14h186v-14q-60 -13 -60 -48v-120q63 43 136 43q136 0 136 -123z" />
    <glyph glyph-name="uni1EE6" unicode="&#x1ee6;" horiz-adv-x="779" 
d="M417 906q7 7 9 16q2 11 -8 19q-11 8 -29 7q-20 -1 -30 -9l-16 17q17 16 46 16q32 0 51 -13q16 -13 16 -32q-2 -33 -32 -48q-3 3 -9 4q-8 1 -15 -3t-12 -12q-8 -13 -8 -36q-2 -2 -5 1q-1 26 9 44q5 7 17 15q7 5 16 14zM759 -2h-127v102q-40 -47 -106 -75q-69 -29 -148 -29
q-121 0 -207 60.5t-91 147.5v-1v533q0 35 -60 48v14h186v-14q-59 -13 -59 -48v-397h-2v-6q-38 -12 -38 -67q0 -19 -1 -20l1 -19q0 -96 77 -155q74 -57 186 -57q102 0 178 58.5t84 138.5v269q0 35 -60 48v14h187v-14q-60 -13 -60 -48v-421q0 -35 60 -48v-14z" />
    <glyph glyph-name="uni1EE7" unicode="&#x1ee7;" horiz-adv-x="503" 
d="M307 534q7 7 9 16q2 11 -8 19q-11 8 -29 7q-20 -1 -30 -9l-16 17q17 16 46 16q32 0 51 -13q16 -13 16 -32q-2 -33 -32 -48q-3 3 -9 4q-8 1 -15 -3t-12 -12q-8 -13 -8 -36q-2 -2 -5 1q-1 26 9 44q5 7 17 15q7 5 16 14zM685 38h-20q9 97 -109 104q-79 0 -143 -48v-4v0v-31
q0 -35 59 -48v-14h-126v38q-65 -59 -127 -59q-93 0 -124 65q-15 33 -15 107v191q0 35 -60 48v14h186v-14q-59 -13 -59 -48v-191h-1q-43 -26 -43 -66q0 -35 32.5 -61.5t82.5 -26.5q54 0 128 67v146h1v31q0 35 -60 48v14h186v-14q-60 -13 -60 -48v-120q63 43 136 43
q136 0 136 -123z" />
    <glyph glyph-name="uni1EE8" unicode="&#x1ee8;" horiz-adv-x="829" 
d="M759 525q-60 -9 -60 -44v-421q0 -35 60 -48v-14h-127v102q-40 -47 -106 -75q-69 -29 -148 -29q-121 0 -207 60.5t-91 147.5v-1v533q0 35 -60 48v14h186v-14q-59 -13 -59 -48v-397h-2v-6q-38 -12 -38 -67q0 -19 -1 -20l1 -19q0 -96 77 -155q74 -57 186 -57q102 0 178 58.5
t84 138.5v269q0 35 -60 48v14h187q18 1 28 9q9 6 12 15q1 7 0 10q0 5 -11.5 11t-16.5 14q-10 18 -6 35q5 16 23 26.5t38 4.5q23 -7 34 -30t-1 -50q-11 -24 -41 -42q-25 -17 -59 -21zM487 953l-17 -53q-29 2 -42 -14q-12 -12 -28 -57l-19 7l45 136z" />
    <glyph glyph-name="uni1EE9" unicode="&#x1ee9;" horiz-adv-x="526" 
d="M473 283q-60 -10 -60 -45v-120q63 43 136 43q136 0 136 -123h-20q9 97 -109 104q-79 0 -143 -48v-4v0v-31q0 -35 59 -48v-14h-126v38q-65 -59 -127 -59q-93 0 -124 65q-15 33 -15 107v191q0 35 -60 48v14h186v-14q-59 -13 -59 -48v-191h-1q-43 -26 -43 -66
q0 -35 32.5 -61.5t82.5 -26.5q54 0 128 67v146h1v31q0 35 -60 48v14h186q9 0 18 5q7 4 12 11q1 3 1 5q0 4 -9.5 8.5t-12.5 10.5q-8 14 -4 27q3 13 17 21t29 4q18 -5 26.5 -23t0.5 -40q-6 -18 -31 -33q-21 -10 -47 -13zM368 582l-17 -54q-28 2 -40.5 -12t-29.5 -58l-19 6
l46 136z" />
    <glyph glyph-name="uni1EEA" unicode="&#x1eea;" horiz-adv-x="829" 
d="M759 525q-60 -9 -60 -44v-421q0 -35 60 -48v-14h-127v102q-40 -47 -106 -75q-69 -29 -148 -29q-121 0 -207 60.5t-91 147.5v-1v533q0 35 -60 48v14h186v-14q-59 -13 -59 -48v-397h-2v-6q-38 -12 -38 -67q0 -19 -1 -20l1 -19q0 -96 77 -155q74 -57 186 -57q102 0 178 58.5
t84 138.5v269q0 35 -60 48v14h187q18 1 28 9q9 6 12 15q1 7 0 10q0 5 -11.5 11t-16.5 14q-10 18 -6 35q5 16 23 26.5t38 4.5q23 -7 34 -30t-1 -50q-11 -24 -41 -42q-25 -17 -59 -21zM396 836l-19 -7q-16 45 -28 57q-13 16 -42 14l-17 53l61 19z" />
    <glyph glyph-name="uni1EEB" unicode="&#x1eeb;" horiz-adv-x="526" 
d="M473 283q-60 -10 -60 -45v-120q63 43 136 43q136 0 136 -123h-20q9 97 -109 104q-79 0 -143 -48v-4v0v-31q0 -35 59 -48v-14h-126v38q-65 -59 -127 -59q-93 0 -124 65q-15 33 -15 107v191q0 35 -60 48v14h186v-14q-59 -13 -59 -48v-191h-1q-43 -26 -43 -66
q0 -35 32.5 -61.5t82.5 -26.5q54 0 128 67v146h1v31q0 35 -60 48v14h186q9 0 18 5q7 4 12 11q1 3 1 5q0 4 -9.5 8.5t-12.5 10.5q-8 14 -4 27q3 13 17 21t29 4q18 -5 26.5 -23t0.5 -40q-6 -18 -31 -33q-21 -10 -47 -13zM293 464l-19 -6q-17 44 -28 57q-14 15 -42 13l-17 54
l60 18z" />
    <glyph glyph-name="uni1EEC" unicode="&#x1eec;" horiz-adv-x="829" 
d="M417 906q7 7 9 16q2 11 -8 19q-11 8 -29 7q-20 -1 -30 -9l-16 17q17 16 46 16q32 0 51 -13q16 -13 16 -32q-2 -33 -32 -48q-3 3 -9 4q-8 1 -15 -3t-12 -12q-8 -13 -8 -36q-2 -2 -5 1q-1 26 9 44q5 7 17 15q7 5 16 14zM759 525q-60 -9 -60 -44v-421q0 -35 60 -48v-14h-127
v102q-40 -47 -106 -75q-69 -29 -148 -29q-121 0 -207 60.5t-91 147.5v-1v533q0 35 -60 48v14h186v-14q-59 -13 -59 -48v-397h-2v-6q-38 -12 -38 -67q0 -19 -1 -20l1 -19q0 -96 77 -155q74 -57 186 -57q102 0 178 58.5t84 138.5v269q0 35 -60 48v14h187q18 1 28 9q9 6 12 15
q1 7 0 10q0 5 -11.5 11t-16.5 14q-10 18 -6 35q5 16 23 26.5t38 4.5q23 -7 34 -30t-1 -50q-11 -24 -41 -42q-25 -17 -59 -21z" />
    <glyph glyph-name="uni1EED" unicode="&#x1eed;" horiz-adv-x="526" 
d="M307 534q7 7 9 16q2 11 -8 19q-11 8 -29 7q-20 -1 -30 -9l-16 17q17 16 46 16q32 0 51 -13q16 -13 16 -32q-2 -33 -32 -48q-3 3 -9 4q-8 1 -15 -3t-12 -12q-8 -13 -8 -36q-2 -2 -5 1q-1 26 9 44q5 7 17 15q7 5 16 14zM473 283q-60 -10 -60 -45v-120q63 43 136 43
q136 0 136 -123h-20q9 97 -109 104q-79 0 -143 -48v-4v0v-31q0 -35 59 -48v-14h-126v38q-65 -59 -127 -59q-93 0 -124 65q-15 33 -15 107v191q0 35 -60 48v14h186v-14q-59 -13 -59 -48v-191h-1q-43 -26 -43 -66q0 -35 32.5 -61.5t82.5 -26.5q54 0 128 67v146h1v31
q0 35 -60 48v14h186q9 0 18 5q7 4 12 11q1 3 1 5q0 4 -9.5 8.5t-12.5 10.5q-8 14 -4 27q3 13 17 21t29 4q18 -5 26.5 -23t0.5 -40q-6 -18 -31 -33q-21 -10 -47 -13z" />
    <glyph glyph-name="uni1EEE" unicode="&#x1eee;" horiz-adv-x="829" 
d="M759 525q-60 -9 -60 -44v-421q0 -35 60 -48v-14h-127v102q-40 -47 -106 -75q-69 -29 -148 -29q-121 0 -207 60.5t-91 147.5v-1v533q0 35 -60 48v14h186v-14q-59 -13 -59 -48v-397h-2v-6q-38 -12 -38 -67q0 -19 -1 -20l1 -19q0 -96 77 -155q74 -57 186 -57q102 0 178 58.5
t84 138.5v269q0 35 -60 48v14h187q18 1 28 9q9 6 12 15q1 7 0 10q0 5 -11.5 11t-16.5 14q-10 18 -6 35q5 16 23 26.5t38 4.5q23 -7 34 -30t-1 -50q-11 -24 -41 -42q-25 -17 -59 -21zM630 884q0 -2 -14.5 -11.5t-18.5 -11.5q-22 -9 -46 -9q-35 0 -100 27q-11 5 -21 5
q-22 0 -30 -19q-26 13 -83 6q-16 -3 -29 -8q-31 -10 -43 -25l-31 46q24 23 63 37q36 11 75 11t68 -12q67 -30 70 -31q37 -15 65 -15q35 0 66 25z" />
    <glyph glyph-name="uni1EEF" unicode="&#x1eef;" horiz-adv-x="526" 
d="M473 283q-60 -10 -60 -45v-120q63 43 136 43q136 0 136 -123h-20q9 97 -109 104q-79 0 -143 -48v-4v0v-31q0 -35 59 -48v-14h-126v38q-65 -59 -127 -59q-93 0 -124 65q-15 33 -15 107v191q0 35 -60 48v14h186v-14q-59 -13 -59 -48v-191h-1q-43 -26 -43 -66
q0 -35 32.5 -61.5t82.5 -26.5q54 0 128 67v146h1v31q0 35 -60 48v14h186q9 0 18 5q7 4 12 11q1 3 1 5q0 4 -9.5 8.5t-12.5 10.5q-8 14 -4 27q3 13 17 21t29 4q18 -5 26.5 -23t0.5 -40q-6 -18 -31 -33q-21 -10 -47 -13zM477 512q0 -2 -14.5 -11.5t-18.5 -11.5q-22 -9 -46 -9
q-35 0 -100 27q-11 5 -21 5q-22 0 -30 -19q-26 13 -83 6q-16 -3 -29 -8q-31 -10 -43 -25l-31 46q24 23 63 37q36 11 75 11t68 -12q67 -30 70 -31q37 -15 65 -15q35 0 66 25z" />
    <glyph glyph-name="uni1EF0" unicode="&#x1ef0;" horiz-adv-x="829" 
d="M414 -100q0 -14 -10 -24t-24 -10t-24 10t-10 24t10 24t24 10t24 -10t10 -24zM759 525q-60 -9 -60 -44v-421q0 -35 60 -48v-14h-127v102q-40 -47 -106 -75q-69 -29 -148 -29q-121 0 -207 60.5t-91 147.5v-1v533q0 35 -60 48v14h186v-14q-59 -13 -59 -48v-397h-2v-6
q-38 -12 -38 -67q0 -19 -1 -20l1 -19q0 -96 77 -155q74 -57 186 -57q102 0 178 58.5t84 138.5v269q0 35 -60 48v14h187q18 1 28 9q9 6 12 15q1 7 0 10q0 5 -11.5 11t-16.5 14q-10 18 -6 35q5 16 23 26.5t38 4.5q23 -7 34 -30t-1 -50q-11 -24 -41 -42q-25 -17 -59 -21z" />
    <glyph glyph-name="uni1EF1" unicode="&#x1ef1;" horiz-adv-x="526" 
d="M269 -100q0 -14 -10 -24t-24 -10t-24 10t-10 24t10 24t24 10t24 -10t10 -24zM473 283q-60 -10 -60 -45v-120q63 43 136 43q136 0 136 -123h-20q9 97 -109 104q-79 0 -143 -48v-4v0v-31q0 -35 59 -48v-14h-126v38q-65 -59 -127 -59q-93 0 -124 65q-15 33 -15 107v191
q0 35 -60 48v14h186v-14q-59 -13 -59 -48v-191h-1q-43 -26 -43 -66q0 -35 32.5 -61.5t82.5 -26.5q54 0 128 67v146h1v31q0 35 -60 48v14h186q9 0 18 5q7 4 12 11q1 3 1 5q0 4 -9.5 8.5t-12.5 10.5q-8 14 -4 27q3 13 17 21t29 4q18 -5 26.5 -23t0.5 -40q-6 -18 -31 -33
q-21 -10 -47 -13z" />
    <glyph glyph-name="Ygrave" unicode="&#x1ef2;" horiz-adv-x="764" 
d="M756 600q-59 -13 -59 -48v-79q-1 -7 -1 -27q0 -85 -90 -147.5t-209 -69.5v-168q0 -35 59 -48v-14h-186v14q60 13 60 48v171q-105 11 -176 69t-76 136v-1v302q0 35 -60 48v14h186v-14q-59 -13 -59 -48v-166h-2v-7q-38 -11 -38 -66v-20h-1l1 -19q0 -96 77 -155
q74 -57 186 -57q107 0 184.5 64t77.5 148v4.5v3.5v84q0 35 -60 48v14h186v-14zM396 836l-19 -7q-16 45 -28 57q-13 16 -42 14l-17 53l61 19z" />
    <glyph glyph-name="ygrave" unicode="&#x1ef3;" horiz-adv-x="497" 
d="M683 32h-20q9 96 -108 104q-82 0 -148 -52v-106h-31q4 -7 10 -18h21q2 -91 -2 -113q-10 -46 -46.5 -81.5t-81.5 -48.5q-17 -4 -17 -26v240h17q19 0 19 -19q0 -18 -18 -18q-2 -47 -1 -158q26 6 58 35q38 33 48 69q5 17 5 34q0 62 -47 86v18v22v25q-61 -55 -122 -55
q-93 0 -123 65q-16 33 -16 107v189q0 35 -59 48v14h186v-14q-60 -13 -60 -48v-189h-1q-42 -26 -42 -66q0 -35 32 -61.5t82 -26.5q54 0 123 63v187q0 35 -60 48v14h186v-14q-60 -13 -60 -48v-131q65 47 141 47q135 0 135 -122zM264 464l-19 -6q-17 44 -28 57q-14 15 -42 13
l-17 54l60 18z" />
    <glyph glyph-name="uni1EF4" unicode="&#x1ef4;" horiz-adv-x="764" 
d="M398 -100q0 -14 -10 -24t-24 -10t-24 10t-10 24t10 24t24 10t24 -10t10 -24zM756 600q-59 -13 -59 -48v-79q-1 -7 -1 -27q0 -85 -90 -147.5t-209 -69.5v-168q0 -35 59 -48v-14h-186v14q60 13 60 48v171q-105 11 -176 69t-76 136v-1v302q0 35 -60 48v14h186v-14
q-59 -13 -59 -48v-166h-2v-7q-38 -11 -38 -66v-20h-1l1 -19q0 -96 77 -155q74 -57 186 -57q107 0 184.5 64t77.5 148v4.5v3.5v84q0 35 -60 48v14h186v-14z" />
    <glyph glyph-name="uni1EF5" unicode="&#x1ef5;" horiz-adv-x="497" 
d="M234 -100q0 -14 -10 -24t-24 -10t-24 10t-10 24t10 24t24 10t24 -10t10 -24zM683 32h-20q9 96 -108 104q-82 0 -148 -52v-106h-31q4 -7 10 -18h21q2 -91 -2 -113q-10 -46 -46.5 -81.5t-81.5 -48.5q-17 -4 -17 -26v240h17q19 0 19 -19q0 -18 -18 -18q-2 -47 -1 -158
q26 6 58 35q38 33 48 69q5 17 5 34q0 62 -47 86v18v22v25q-61 -55 -122 -55q-93 0 -123 65q-16 33 -16 107v189q0 35 -59 48v14h186v-14q-60 -13 -60 -48v-189h-1q-42 -26 -42 -66q0 -35 32 -61.5t82 -26.5q54 0 123 63v187q0 35 -60 48v14h186v-14q-60 -13 -60 -48v-131
q65 47 141 47q135 0 135 -122z" />
    <glyph glyph-name="uni1EF6" unicode="&#x1ef6;" horiz-adv-x="764" 
d="M417 906q7 7 9 16q2 11 -8 19q-11 8 -29 7q-20 -1 -30 -9l-16 17q17 16 46 16q32 0 51 -13q16 -13 16 -32q-2 -33 -32 -48q-3 3 -9 4q-8 1 -15 -3t-12 -12q-8 -13 -8 -36q-2 -2 -5 1q-1 26 9 44q5 7 17 15q7 5 16 14zM756 600q-59 -13 -59 -48v-79q-1 -7 -1 -27
q0 -85 -90 -147.5t-209 -69.5v-168q0 -35 59 -48v-14h-186v14q60 13 60 48v171q-105 11 -176 69t-76 136v-1v302q0 35 -60 48v14h186v-14q-59 -13 -59 -48v-166h-2v-7q-38 -11 -38 -66v-20h-1l1 -19q0 -96 77 -155q74 -57 186 -57q107 0 184.5 64t77.5 148v4.5v3.5v84
q0 35 -60 48v14h186v-14z" />
    <glyph glyph-name="uni1EF7" unicode="&#x1ef7;" horiz-adv-x="497" 
d="M282 534q7 7 9 16q2 11 -8 19q-11 8 -29 7q-20 -1 -30 -9l-16 17q17 16 46 16q32 0 51 -13q16 -13 16 -32q-2 -33 -32 -48q-3 3 -9 4q-8 1 -15 -3t-12 -12q-8 -13 -8 -36q-2 -2 -5 1q-1 26 9 44q5 7 17 15q7 5 16 14zM683 32h-20q9 96 -108 104q-82 0 -148 -52v-106h-31
q4 -7 10 -18h21q2 -91 -2 -113q-10 -46 -46.5 -81.5t-81.5 -48.5q-17 -4 -17 -26v240h17q19 0 19 -19q0 -18 -18 -18q-2 -47 -1 -158q26 6 58 35q38 33 48 69q5 17 5 34q0 62 -47 86v18v22v25q-61 -55 -122 -55q-93 0 -123 65q-16 33 -16 107v189q0 35 -59 48v14h186v-14
q-60 -13 -60 -48v-189h-1q-42 -26 -42 -66q0 -35 32 -61.5t82 -26.5q54 0 123 63v187q0 35 -60 48v14h186v-14q-60 -13 -60 -48v-131q65 47 141 47q135 0 135 -122z" />
    <glyph glyph-name="uni1EF8" unicode="&#x1ef8;" horiz-adv-x="764" 
d="M756 600q-59 -13 -59 -48v-79q-1 -7 -1 -27q0 -85 -90 -147.5t-209 -69.5v-168q0 -35 59 -48v-14h-186v14q60 13 60 48v171q-105 11 -176 69t-76 136v-1v302q0 35 -60 48v14h186v-14q-59 -13 -59 -48v-166h-2v-7q-38 -11 -38 -66v-20h-1l1 -19q0 -96 77 -155
q74 -57 186 -57q107 0 184.5 64t77.5 148v4.5v3.5v84q0 35 -60 48v14h186v-14zM630 884q0 -2 -14.5 -11.5t-18.5 -11.5q-22 -9 -46 -9q-35 0 -100 27q-11 5 -21 5q-22 0 -30 -19q-26 13 -83 6q-16 -3 -29 -8q-31 -10 -43 -25l-31 46q24 23 63 37q36 11 75 11t68 -12
q67 -30 70 -31q37 -15 65 -15q35 0 66 25z" />
    <glyph glyph-name="uni1EF9" unicode="&#x1ef9;" horiz-adv-x="497" 
d="M683 32h-20q9 96 -108 104q-82 0 -148 -52v-106h-31q4 -7 10 -18h21q2 -91 -2 -113q-10 -46 -46.5 -81.5t-81.5 -48.5q-17 -4 -17 -26v240h17q19 0 19 -19q0 -18 -18 -18q-2 -47 -1 -158q26 6 58 35q38 33 48 69q5 17 5 34q0 62 -47 86v18v22v25q-61 -55 -122 -55
q-93 0 -123 65q-16 33 -16 107v189q0 35 -59 48v14h186v-14q-60 -13 -60 -48v-189h-1q-42 -26 -42 -66q0 -35 32 -61.5t82 -26.5q54 0 123 63v187q0 35 -60 48v14h186v-14q-60 -13 -60 -48v-131q65 47 141 47q135 0 135 -122zM461 512q0 -2 -14.5 -11.5t-18.5 -11.5
q-22 -9 -46 -9q-35 0 -100 27q-11 5 -21 5q-22 0 -30 -19q-26 13 -83 6q-16 -3 -29 -8q-31 -10 -43 -25l-31 46q24 23 63 37q36 11 75 11t68 -12q67 -30 70 -31q37 -15 65 -15q35 0 66 25z" />
    <glyph glyph-name="endash" unicode="&#x2013;" horiz-adv-x="388" 
d="M367 231h-61q0 1 1 3q0 9 -28 15.5t-68 6.5q-39 0 -67 -6.5t-28 -15.5q0 -1 1 -3h-76v68h326v-68z" />
    <glyph glyph-name="emdash" unicode="&#x2014;" horiz-adv-x="511" 
d="M480 231h-123q0 1 1 3q0 9 -28 15.5t-68 6.5q-39 0 -67 -6.5t-28 -15.5q0 -1 1 -3h-139v68h451v-68z" />
    <glyph glyph-name="quoteleft" unicode="&#x2018;" horiz-adv-x="124" 
d="M97 741h-67l28 125h22q-1 -8 -1 -14q0 -73 -1 -63q2 -27 19 -31v-17z" />
    <glyph glyph-name="quoteright" unicode="&#x2019;" horiz-adv-x="129" 
d="M116 866l-27 -125h-22v14q0 69 1 63q-2 28 -19 31v17h67z" />
    <glyph glyph-name="quotesinglbase" unicode="&#x201a;" horiz-adv-x="123" 
d="M97 1l-27 -125h-22v14q0 69 1 63q-2 27 -19 31v17h67z" />
    <glyph glyph-name="quotedblleft" unicode="&#x201c;" horiz-adv-x="234" 
d="M202 741h-67l28 125h22q-1 -8 -1 -14q0 -73 0 -63q2 -27 18 -31v-17zM97 741h-67l28 125h22q-1 -8 -1 -14q0 -73 -1 -63q2 -27 19 -31v-17z" />
    <glyph glyph-name="quotedblright" unicode="&#x201d;" horiz-adv-x="234" 
d="M214 866l-27 -125h-22q1 7 1 14q0 69 0 63q-2 28 -19 31v17h67zM109 866l-27 -125h-22v14q0 69 1 63q-2 28 -19 31v17h67z" />
    <glyph glyph-name="quotedblbase" unicode="&#x201e;" horiz-adv-x="234" 
d="M202 0l-27 -125h-22q1 7 1 14q0 69 0 63q-2 27 -19 31v17h67zM97 0l-27 -125h-22v14q0 69 1 63q-2 27 -19 31v17h67z" />
    <glyph glyph-name="dagger" unicode="&#x2020;" horiz-adv-x="467" 
d="M267 -200h-67v709h-97v28h97v201q0 35 -59 48v14h185v-14q-59 -13 -59 -48v-201h97v-28h-97v-709z" />
    <glyph glyph-name="daggerdbl" unicode="&#x2021;" horiz-adv-x="467" 
d="M364 170h-97v-370h-67v370h-97v28h97v311h-97v28h97v201q0 35 -59 48v14h185v-14q-59 -13 -59 -48v-201h97v-28h-97v-311h97v-28z" />
    <glyph glyph-name="bullet" unicode="&#x2022;" horiz-adv-x="224" 
d="M189 397q0 -33 -23 -56t-56 -23t-56 23t-23 56t23 56.5t56 23.5t56 -23.5t23 -56.5z" />
    <glyph glyph-name="ellipsis" unicode="&#x2026;" horiz-adv-x="342" 
d="M307 33q0 -14 -10 -24t-24 -10t-24 10t-10 24t10 24t24 10t24 -10t10 -24zM203 33q0 -14 -10 -24t-24 -10t-24 10t-10 24t10 24t24 10t24 -10t10 -24zM101 33q0 -14 -10 -24t-24 -10t-24 10t-10 24t10 24t24 10t24 -10t10 -24z" />
    <glyph glyph-name="perthousand" unicode="&#x2030;" horiz-adv-x="803" 
d="M825 326l-1 -7q-38 5 -50 -13l-12 -16q21 -35 19 -75q-3 -50 -37 -84t-80 -31q-30 1 -56 21q-5 -7 -21 -29l-10 7l22 30q-41 39 -38 99q3 50 37 84t79 31q33 -2 59 -24l22 31zM293 671l-1 -7q-37 4 -50 -13l-12 -17q21 -34 19 -74q-3 -51 -37 -84.5t-80 -31.5
q-30 2 -56 22q-5 -8 -21 -29l-10 6l22 31q-41 39 -38 98q3 51 37 84.5t80 31.5q32 -2 59 -24l22 30zM550 705q-65 -2 -82 -34l-164 -314q-7 2 -13 2q-32 0 -73 -72q-76 -147 -153 -293l-22 3l388 743l119 -24v-11zM569 326l-1 -7q-38 5 -50 -13l-12 -16q21 -35 19 -75
q-3 -50 -37 -84t-80 -31q-30 1 -56 21q-5 -7 -21 -29l-10 7l22 30q-41 39 -38 99q3 50 37 84t79 31q33 -2 59 -24l22 31zM726 305q-23 22 -49 22q-39 0 -59 -43q-13 -28 -13 -57q0 -8 3 -7q-23 -3 -23 -24q0 -18 14 -39q4 -5 11 -13zM762 212q0 31 -13 60l-66 -91
q-6 2 -11 2q-18 0 -53 -47q25 -22 51 -25q37 -3 64 26.5t28 74.5zM194 650q-23 21 -49 21q-39 0 -59 -42q-13 -29 -13 -57q0 -8 3 -8q-23 -3 -23 -23q0 -18 14 -40q4 -5 11 -12zM230 557q1 31 -13 60l-66 -91q-6 2 -11 2q-18 0 -53 -48q25 -22 51 -24q37 -3 64 26.5t28 74.5
zM470 305q-23 22 -49 22q-39 0 -59 -43q-13 -28 -13 -57q0 -8 3 -7q-24 -3 -24 -24q0 -18 15 -39q4 -5 11 -13zM506 212q0 31 -13 60l-66 -91q-6 2 -11 2q-18 0 -53 -47q25 -22 51 -25q37 -3 64 26.5t28 74.5z" />
    <glyph glyph-name="guilsinglleft" unicode="&#x2039;" horiz-adv-x="189" 
d="M167 155l-12 -10l-125 151l125 156l12 -10q-28 -36 -28 -51q0 -10 10 -24l-56 -69l56 -68q-10 -14 -10 -25q0 -15 28 -50z" />
    <glyph glyph-name="guilsinglright" unicode="&#x203a;" horiz-adv-x="226" 
d="M176 300l-125 -151l-12 10q28 35 28 50q0 11 -10 25l56 68l-56 69q10 14 10 24q0 15 -28 51l12 10z" />
    <glyph glyph-name="fraction" unicode="&#x2044;" horiz-adv-x="647" 
d="M594 719l-241 -335q-11 3 -19 3q-29 0 -81 -68l-188 -262l-21 7l490 680z" />
    <glyph glyph-name="trademark" unicode="&#x2122;" horiz-adv-x="276" 
d="M262 604h-47v3q20 4 20 12v29v28q0 20 -29 20q-26 0 -29 -20v-57q0 -8 20 -12v-3h-47v3q20 4 20 12v57q-2 20 -29 20q-29 0 -29 -20v-57q0 -9 15 -12v-3h-47v3q15 3 15 12v69q0 9 -15 12v3h126q14 0 25 -8.5t11 -18.5v-57q0 -8 20 -12v-3zM67 604h-47v3q15 4 15 12v69
q0 9 -15 12v3h15v74q11 2 11 23v4h6v-101h15v-3q-15 -3 -15 -12v-69q0 -9 15 -12v-3z" />
    <glyph glyph-name="summation" unicode="&#x2211;" horiz-adv-x="603" 
d="M580 201v-40q0 -69 -66 -115t-156 -47v-1h-279q-4 1 -49 1v14q58 12 60 48l3 52l192 289l-192 336q0 35 -60 48v14h322q91 0 158 -46.5t67 -115.5v-40h-29q0 46 -2 57q-12 58 -75 89q-52 27 -119 27q-145 0 -150 -129l142 -240l-149 -241q0 -57 36 -92q42 -41 122 -41
q83 0 139.5 40t56.5 93v40h28z" />
    <glyph glyph-name="integral" unicode="&#x222b;" horiz-adv-x="235" 
d="M213 812v-19q-26 -8 -59 -41q-37 -37 -48 -75q-5 -16 -5 -31q0 -66 54 -88l-2 -229h1v-249v0q1 -93 -3 -116q-11 -48 -47.5 -88.5t-81.5 -56.5v18q26 9 59 42q38 37 48 75q5 15 5 31q0 56 -43 82l-11 -1l2 485h-1q-1 93 3 116q11 48 47.5 88.5t81.5 56.5z" />
    <glyph glyph-name="approxequal" unicode="&#x2248;" horiz-adv-x="537" 
d="M502 377q1 -2 -16.5 -11.5t-21.5 -10.5q-25 -9 -52 -9q-41 0 -115 27q-13 4 -25 4q-24 0 -33 -19q-30 14 -95 6q-19 -3 -34 -7q-36 -11 -49 -26l-36 46q28 24 73 37q40 12 85 12t78 -13q78 -30 80 -31q44 -14 75 -14q41 0 75 24zM502 246q1 -2 -16.5 -11.5t-21.5 -11.5
q-25 -9 -52 -9q-41 0 -115 27q-13 4 -25 4q-24 0 -33 -18q-30 13 -95 5q-19 -3 -34 -7q-36 -10 -49 -25l-36 46q28 23 73 37q40 11 85 11t78 -13q78 -29 80 -30q44 -15 75 -15q41 0 75 25z" />
    <glyph glyph-name="approxequal" unicode="&#x22f2;" horiz-adv-x="537" 
d="M502 377q1 -2 -16.5 -11.5t-21.5 -10.5q-25 -9 -52 -9q-41 0 -115 27q-13 4 -25 4q-24 0 -33 -19q-30 14 -95 6q-19 -3 -34 -7q-36 -11 -49 -26l-36 46q28 24 73 37q40 12 85 12t78 -13q78 -30 80 -31q44 -14 75 -14q41 0 75 24zM502 246q1 -2 -16.5 -11.5t-21.5 -11.5
q-25 -9 -52 -9q-41 0 -115 27q-13 4 -25 4q-24 0 -33 -18q-30 13 -95 5q-19 -3 -34 -7q-36 -10 -49 -25l-36 46q28 23 73 37q40 11 85 11t78 -13q78 -29 80 -30q44 -15 75 -15q41 0 75 25z" />
    <glyph glyph-name="notequal" unicode="&#x2260;" horiz-adv-x="426" 
d="M376 105h-61q-9 20 -95 20q-10 0 -22 -1l-84 -104l-52 42l34 43h-46v67h100l66 81q-81 -1 -90 -20h-76v67h204l70 88l52 -42l-36 -46h36v-67h-61q-3 7 -20 12l-59 -73h140v-67z" />
    <glyph glyph-name="lessequal" unicode="&#x2264;" horiz-adv-x="331" 
d="M214 155l-12 -10l-125 151l125 156l12 -10q-27 -36 -27 -51q0 -10 9 -24l-56 -69l56 -68q-9 -14 -9 -25q0 -15 27 -50zM299 1h-35v2q0 9 -27.5 16t-67.5 7q-39 0 -67 -7t-28 -16l1 -2h-41v67h265v-67z" />
    <glyph glyph-name="greaterequal" unicode="&#x2265;" horiz-adv-x="332" 
d="M255 296l-125 -151l-12 10q27 35 27 50q0 11 -9 25l56 68l-56 69q9 14 9 24q0 15 -27 51l12 10zM298 1h-41q0 1 1 2q0 9 -28 16t-67 7q-40 0 -67.5 -7t-27.5 -16v-2h-35v67h265v-67z" />
    <glyph glyph-name="fi" unicode="&#xf001;" horiz-adv-x="392" 
d="M346 577q0 -14 -10 -24t-24 -10t-23.5 10t-9.5 24t9.5 24t23.5 10t24 -10t10 -24zM342 0h-327v15q64 14 64 52v268q0 38 -64 52v15h64v259q11 46 48.5 82t83.5 49v0q17 3 17 26v-220v-4v-3v-15h-18q-19 0 -19 18q0 20 19 19v160q-26 -6 -59 -35q-37 -34 -48 -70
q-4 -15 -4 -31q0 -65 52 -91v-144h64v-15q-64 -14 -64 -52v-268q0 -19 18.5 -35.5t45.5 -16.5t45 16q15 14 15 32v333q20 4 33 31t13 63q0 6 -1 14h22v-504z" />
    <glyph glyph-name="fl" unicode="&#xf002;" horiz-adv-x="392" 
d="M343 0h-327v15q64 14 64 52v268q0 38 -64 52v15h64v259q11 46 48.5 82t83.5 49v0q17 3 17 26v-220v-4v-3v-15h-18q-19 0 -19 18q0 20 19 19v160q-26 -6 -59 -35q-37 -34 -48 -70q-4 -15 -4 -31q0 -65 52 -91v-144h64v-15q-64 -14 -64 -52v-268q0 -19 18.5 -35.5
t45.5 -16.5t45 16q15 14 15 32v629q20 4 33 30.5t13 63.5q0 6 -1 14h22v-800z" />
    <glyph glyph-name="glyph223" horiz-adv-x="0" 
 />
    </font>
</defs>
</svg>
