<?xml version="1.0" standalone="no"?>
<!DOCTYPE svg PUBLIC "-//W3C//DTD SVG 1.1//EN" "http://www.w3.org/Graphics/SVG/1.1/DTD/svg11.dtd" >
<svg xmlns="http://www.w3.org/2000/svg" xmlns:xlink="http://www.w3.org/1999/xlink" version="1.1">
<metadata>
Created by FontForge 20170731 at Sun May 19 23:57:29 2013
 By Aleksey,,,
Copyright (c) 2011 by Mans Greba:ck. All rights reserved.
</metadata>
<defs>
<font id="UVFShippedGoods1" horiz-adv-x="240" >
  <font-face 
    font-family="UVF Shipped Goods 1"
    font-weight="400"
    font-stretch="normal"
    units-per-em="1000"
    panose-1="0 0 0 0 0 0 0 0 0 0"
    ascent="750"
    descent="-250"
    x-height="193"
    cap-height="802"
    bbox="-947 -1099 2884.14 1149"
    underline-thickness="50"
    underline-position="-150"
    unicode-range="U+0020-FB02"
  />
<missing-glyph horiz-adv-x="500" 
 />
    <glyph glyph-name=".notdef" horiz-adv-x="500" 
 />
    <glyph glyph-name=".null" horiz-adv-x="0" 
 />
    <glyph glyph-name="nonmarkingreturn" horiz-adv-x="500" 
 />
    <glyph glyph-name="space" unicode=" " horiz-adv-x="283" 
 />
    <glyph glyph-name="space" unicode="&#xa0;" horiz-adv-x="283" 
 />
    <glyph glyph-name="exclam" unicode="!" horiz-adv-x="190" 
d="M59 230q-1 14 1 28t8 25q2 11 4 19.5t3 12.5q11 63 40 119.5t64 110.5q-24 -1 -46.5 -5t-41.5 -12q1 -5 1 -9.5v-9.5q0 -2 -2.5 -2.5t-2.5 1.5v10.5t-1 10.5v2l1 1q21 10 45.5 14t50.5 4q16 23 32.5 45.5t33.5 45.5q16 21 39 34.5t43 29.5q9 7 19 9.5t21.5 3.5t22.5 1.5
t22 2.5q10 2 22.5 -1.5t21.5 -5.5q26 -5 37 -21.5t10.5 -38t-11.5 -45t-29.5 -42.5t-43 -31t-51.5 -10q-31 2 -67.5 7.5t-74.5 8.5q-22 -38 -45 -83.5t-42.5 -93t-33 -94.5t-16.5 -88q-2 -19 -1 -29t2 -24q5 -4 10.5 -7t11.5 -7q2 -2 0.5 -4t-3.5 0q-5 2 -9.5 5t-9.5 5v-2
q-1 -2 -3 -1.5t-2 2.5v4q-2 1 -2.5 1t-2.5 1q-2 0 -2 2q-4 2 -7.5 4.5t-6.5 6.5q-11 11 -12 36t3 53zM417 711q-10 -2 -20 -2.5t-20 -1.5q-28 -12 -49.5 -31t-38.5 -42q-5 -7 -9 -13.5t-9 -12.5l-12 -18t-11 -18q-4 -6 -7.5 -11.5t-7.5 -12.5q37 -2 72.5 -7t67.5 -6
q27 -1 50 10.5t39.5 29.5t26 40t9 41.5t-12 33.5t-36.5 17q-7 2 -15.5 4t-16.5 0zM55 24q7 1 4 -3h5q6 -1 7 -12t-2.5 -24.5t-10.5 -25.5t-16 -14q-11 -3 -14.5 8t-1 25.5t10 28.5t18.5 17zM196 557q6 8 11.5 14.5t10.5 10.5q3 6 6.5 12t7.5 12q-10 -11 -19 -23.5t-17 -25.5
zM89 134q-1 8 -1.5 17t-1.5 17q-1 -9 -1.5 -17t1.5 -16q1 0 1.5 -0.5t1.5 -0.5zM173 521q-5 -7 -8.5 -13.5t-7.5 -13.5q1 0 1 1l6 8l2 4l2 4q2 2 2.5 5t2.5 5zM120 415q5 17 14 29q1 4 2 7.5t3 8.5l-15 -33q-4 -6 -6 -13q0 1 2 1zM63 201q0 -14 3 -26v12q-2 5 -3 14zM73 144
q2 -2 5 -3l-1 2q-2 1 -2 2t-2 3l-1 1q0 -4 1 -5zM106 301q2 2 2.5 4.5t2.5 6.5l-2 -2zM91 226q-2 -7 -3 -8q0 -5 1 -6q0 4 2 14zM265 640q1 2 2 3t2 3l-2 -2q-3 -3 -5 -7zM337 696q-1 -1 -2 -1t-2 -1q2 0 2.5 0.5t1.5 0.5v1zM69 163q0 -1 1 -2v2h-1zM98 256q0 1 0.5 1.5
t0.5 1.5l-1 -2v-1z" />
    <glyph glyph-name="quotedbl" unicode="&#x22;" horiz-adv-x="162" 
d="M44 236q-13 1 2 18q0 1 0.5 2.5t0.5 3.5q2 9 12 14.5t20.5 7.5t18.5 -0.5t6 -10.5l-1 -2v-4h1q-6 -2 -3 -2l-5 -5l-2 -2q-1 -1 -2 -1q-8 -8 -16 -15.5t-16 -16.5q-3 -3 -5.5 -7t-4.5 -8q-2 -3 -4 -6.5t-5 -5.5l-3 -3l-4 -4l-3 -6q-2 -1 -3 -1t-1 -1q-10 -6 -8 2
q-1 1 3.5 7t11.5 14q4 14 10 31v1zM167 262q-3 -8 -11 -14v-1q-9 -17 -22 -32t-26 -28q-7 -7 -10 -1q-1 3 2.5 9.5t8.5 14.5l8 18q-5 2 -4 5.5t5 8.5q2 7 10 15q12 17 27 20l2 -2q10 3 5 -8h4q4 0 1 -5z" />
    <glyph glyph-name="numbersign" unicode="#" horiz-adv-x="833" 
d="M145 169q0 -3 -1 -3q2 -12 -3 -29q9 1 18 1h18q3 0 3 -1.5t-2 -3.5l-39 -3q-3 -10 -7 -20t-7 -21q24 -2 48 -10q2 -2 2 -3.5t-3 -1.5q-26 6 -50 6q-3 -10 -5 -19t0 -16q2 -1 2.5 -3t-2.5 -2h-1q-3 0 -4 1l-12 -3q-4 0 -4 3q-2 3 -1 14t4 25q-6 0 -11.5 -0.5t-10.5 -0.5
q-4 -11 -7.5 -22t-6.5 -21q-3 -3 -4 -1q-3 0 -5 1l-4 3l-5 2q-2 0 -2 4q0 9 3 16.5t6 15.5q-13 -2 -25 0q-2 0 -2.5 2t1.5 3q8 0 14.5 0.5t14.5 1.5q2 8 3 17.5t3 19.5q-5 -1 -9.5 -1.5t-9.5 -0.5q0 -2 -2 -2q-1 1 -3 1t-2.5 2.5t1.5 2.5q7 2 13 2.5t13 2.5q2 14 7.5 25.5
t18.5 16.5v3q0 3 2.5 2.5t2.5 -3.5v-1q2 -3 0 -5q-1 -8 -2 -16.5t-2 -17.5q6 1 12.5 1.5t12.5 1.5q5 14 11 23.5t11 11.5v1q0 6 5 3l2 -4zM88 124l-4 -18t-5 -18q5 0 10.5 0.5t11.5 0.5q2 10 4.5 19.5t5.5 18.5q-6 -1 -11.5 -1.5t-11.5 -1.5zM105 51q-1 -1 -3 -1v-5
q2 0 4.5 0.5t4.5 0.5q-1 5 -1 16q-3 -9 -5 -11zM74 146q3 7 8 9q0 3 1 4q-5 -4 -9 -13zM67 122q-1 -3 -1.5 -5.5t-1.5 -5.5l2 4q0 2 0.5 3.5t0.5 3.5zM104 65q0 -2 -0.5 -3t-0.5 -3q1 2 1 3t1 3h-1zM69 133l-1 -4h1v4zM77 116l-1 -2q0 1 0.5 1t0.5 1z" />
    <glyph glyph-name="dollar" unicode="$" horiz-adv-x="638" 
d="M-3 -236q-2 0 -3 1.5t1 3.5q10 4 20.5 17.5t19.5 29.5t16.5 32t12.5 25q10 18 19 35.5t19 34.5q-3 3 -5.5 6.5t-4.5 7.5q-6 11 -10 32t-2.5 43t9 40t24.5 23q9 3 18 5.5t18 4.5q3 2 4 -0.5t-2 -4.5q-9 -2 -18.5 -3.5t-17.5 -6.5q-17 -10 -24.5 -27t-8 -36.5t6 -39.5
t18.5 -35q22 41 49 80q9 12 17 20t16 15t15 15t13 20q5 3 5 -2q-10 -20 -27 -40.5t-34 -34.5q-26 -39 -48 -81q16 -15 37 -20t47 6q43 20 58.5 59.5t16.5 87t-6 95.5t-8 85q-1 14 0.5 28.5t8.5 25.5q3 5 6.5 9.5t7.5 9.5q5 8 11 13h1q1 1 1.5 2t1.5 2q6 8 21 13t23 8
q14 6 18.5 6.5t19.5 -1.5q14 -1 23 -9q16 17 30 34.5t28 34.5q2 2 4 0.5t0 -3.5q-12 -17 -25.5 -35.5t-29.5 -35.5q2 -1 2.5 -1.5t2.5 -1.5q16 -11 18 -22.5t-5 -22t-20.5 -19t-28 -12.5t-27 -2.5t-17.5 9.5q0 6 5 3q6 -6 20.5 -5.5t29.5 5.5t26 14t10 22q-3 22 -17 31
q-22 -23 -43 -36q-2 -2 -3.5 0t0.5 4q10 8 19 17l19 19q-8 4 -18 4.5t-21 -1.5q-6 -5 -14 -6.5t-16 -4.5t-15.5 -8.5t-12.5 -17.5q0 -11 -1 -21.5t-2 -21.5q1 -3 1 -11q0 -2 0.5 -2.5t0.5 -1.5l3 -3q0 -2 -1 -3q4 -8 8 -17t8 -20q0 -1 0.5 -1t0.5 -1q0 -2 0.5 -4t0.5 -4
q1 -2 1 -3t1 -3q3 -11 4 -22l2 -22q7 -54 -10 -104t-50 -91v-1l-1 1q-8 -11 -17.5 -20.5t-19.5 -18.5h-3q-13 -8 -28 -11q-27 -4 -50 -3t-41 18l-36 -66q-4 -8 -13 -24.5t-19.5 -33.5t-22 -31t-21.5 -17zM275 149q-1 2 -1 3t-1 3q2 -19 3 -37t1 -36q0 3 3 8q-2 8 -2 17.5
v18.5q-1 4 -1 7.5t-1 7.5q-1 1 -1 2v6zM275 -8q14 23 27 53q-3 -6 -6.5 -11t-6.5 -10q-5 -15 -11 -25v-1l-1 1q-1 -2 -1 -3.5t-1 -3.5zM301 338l-2 -2q0 -1 -0.5 -1.5t-0.5 -1.5q1 1 3 5zM276 46q-1 -2 -1 -5q0 1 0.5 1.5t0.5 1.5v2z" />
    <glyph glyph-name="percent" unicode="%" horiz-adv-x="283" 
d="M8 -14q-7 0 -2 5q7 4 13.5 7.5t13.5 8.5l2 2q4 3 6.5 5t4.5 4q5 9 9.5 17t11.5 11q6 7 12 13.5t14 12.5q3 4 5.5 7t4.5 5q22 31 42 60q5 7 12 15.5t9 15.5q3 11 3.5 18t1.5 11.5t4.5 6t12.5 1.5l1 1q3 0 5 -2q4 0 9 -0.5t11 -1.5q3 0 4 -4q3 -18 -7 -39t-27 -42
q-10 -28 -35.5 -49t-46.5 -39q-7 -5 -13 -11t-12 -11q-8 -8 -16.5 -15.5t-16 -11.5t-13 -4t-8.5 8q0 6 3 3q1 1 0.5 2t0.5 2q-5 -4 -10 -7t-9 -5zM51 122q-10 6 -13.5 15t-2 18.5t6 18t10.5 13.5q8 15 20 19.5t21.5 -2t14 -23.5t-1.5 -45q-2 -5 -7 -12.5t-12 -9.5
q-11 -3 -19 0t-17 8zM175 63q25 20 42 14.5t24.5 -21.5t4.5 -35.5t-18 -26.5q-14 -7 -26 -2t-20 16.5t-10.5 25.5t2.5 25q0 3 1 4zM71 178q-7 -16 -5 -33q2 -5 4 -9t3 -9q2 -1 2.5 -1.5t2.5 -1.5q1 -1 1 -3q1 1 2 1t2 1q15 7 18.5 21t0.5 27.5t-11 22.5t-18 6q1 -2 0 -3
q-2 -2 -2.5 -3t-1.5 -2l6 6q3 3 5 -2q1 -1 1 -5q0 -5 -5 -2q0 -2 -2 -4q0 -1 2 -5q0 -5 -5 -2zM224 12q0 -9 -7.5 -9t-13.5 8q0 -3 -2 -3h-1q9 -6 21 -6q9 3 13 12t3.5 19.5t-5 20t-13.5 14.5v-1q-2 -3 -6 -13.5t-6 -21t0 -17.5t12 -4v2q0 3 2.5 2.5t2.5 -3.5zM181 37
q-1 2 -0.5 4.5t0.5 4.5q0 3 1 4v10q-11 -17 2 -37q-3 6 -3 13v1zM55 147q-2 -8 -2 -7q5 -11 11 -16q-1 1 -1 2q-3 3 -4 8q-1 2 -2 5t-1 6q-1 0 -1 2zM85 38q-2 -2 -4.5 -5t-5.5 -7q12 10 22 22q-2 -1 -3 -1t-1 -1zM64 124q0 -1 5 -3l-1 1q0 1 -0.5 1t-0.5 1h-3zM46 167
q-1 -1 -1 -6q0 -1 2 5zM196 159q2 2 3 5l-1 -1q-1 -1 -1 -2t-1 -2zM66 189q-1 -1 -1 -2h1l1 2h-1zM214 69l1 1h-2zM86 31l2 2zM119 65h-1v-1z" />
    <glyph glyph-name="ampersand" unicode="&#x26;" horiz-adv-x="833" 
d="M235 164q0 -3 -3.5 -3t-3.5 2v3q-5 2 -8.5 2.5t-8.5 0.5q-35 -6 -66 -21t-56 -36t-42.5 -47.5t-24.5 -56.5q0 -9 -1.5 -18.5t-2.5 -18.5q0 -22 10 -46q5 -4 8.5 -8.5t1.5 -13.5q3 -5 6 -11t8 -11q43 -22 95 -22t94 24q16 10 29.5 27.5t24.5 37.5t20 40t15 35q7 3 7 -3
q-11 -24 -23.5 -50.5t-29 -50.5t-37.5 -43t-49 -27q-42 -12 -79 -6.5t-67 23.5t-52 47t-33 64q-3 15 3 32t10 33q5 26 24.5 49.5t45.5 41.5t54.5 29t51.5 12q4 0 14.5 1.5t21.5 3.5q2 6 -2 11q0 2 -2 3.5t-4 3.5q-5 5 -11.5 10.5t-9.5 13.5q-6 14 -6.5 34.5t4 42t13.5 41
t21 31.5q29 31 61.5 41t59.5 2q6 0 8 -3q32 -14 38 -51t-30 -87q-4 -3 -6 -1.5t-2 4.5q30 40 28 71t-23 45q-3 0 -5 2q-1 0 -1 2v1q-6 4 -10 5q-10 -1 -20.5 -7t-14.5 -11q-15 -19 -27 -35t-19.5 -32.5t-10 -35t2.5 -42.5q3 -16 6.5 -29t14.5 -25q1 6 6 0q3 0 5 2
q5 2 6 -1.5t-4 -5.5q-4 -2 -6 -2l-1 -1q-5 -5 -9.5 -5.5t-9.5 -0.5q3 -2 3 -6zM191 49q-3 -2 -5.5 0.5t-0.5 4.5q22 31 47 35t49.5 -5.5t46.5 -26t39 -27.5q25 -17 46.5 -40t42.5 -45.5t45 -39t56 -19.5q2 -1 2.5 -4t-3.5 -3q-33 2 -58 17t-47.5 36t-44.5 44.5t-48 41.5
q-19 13 -37 31t-39 26q-9 4 -22 4t-26 -4t-24.5 -10.5t-18.5 -15.5zM238 179q-3 1 -5 3l-4 4q-2 -5 -4 -5q0 -1 6 -1q1 0 3 -0.5t4 -0.5zM205 362q-1 -2 -2 -2.5t-1 -2.5l9 9l2 4l2 4zM171 228q0 -6 4 -11q-2 3 -2 7t-2 9q-1 0 -1 1h-2q0 -1 1 -2.5t2 -3.5zM28 57q2 4 4.5 8
t5.5 9h-1q-1 0 -1 -2q-2 -2 -3.5 -5t-3.5 -5zM32 -107q0 4 -3 6h-1h-2v1q-1 0 -1 -1q5 -1 7 -6zM259 400q-2 -1 -4 -1t-4 -2l1 -1l1 1h3zM271 400q1 0 2 1q1 0 3 2h-4zM204 179q-3 0 -3 2l-1 -2h4zM259 376l-1 -2q-1 -1 -2 -1v-1l5 4h-2zM156 163q1 0 1 0.5t1 0.5h-2v-1z
M222 380l-4 -3q2 2 3 2zM12 -54q0 -2 1 -2h1q-1 0 -1 1q-1 1 -1 2v-1z" />
    <glyph glyph-name="quotesingle" unicode="'" horiz-adv-x="42" 
d="M37 290q2 2 3.5 4t2.5 3q8 7 17 9.5t13 -2.5q8 -11 -4 -24q0 -2 -1 -2q-2 -5 -6 -8q-2 -5 -6 -17.5t-9 -26t-10 -25t-9 -14.5q-1 -4 -2 -7t-3 -7v-1h-1q-2 -3 -5 -2t-3 5q0 2 0.5 4t0.5 4q-2 0 -2 4q3 5 6 11.5t5 14.5v1q0 1 2 9.5t4.5 18t4.5 18t3 10.5q-3 3 -3 7
q-2 3 0 8q0 2 1 3q0 1 0.5 1t0.5 1zM67 298q2 -2 2 -3q0 2 -1 3q-1 0 -1.5 0.5t-1.5 0.5q1 -1 2 -1zM33 202q2 2 3 5q-1 -1 -1.5 -2t-1.5 -2v-1zM32 201v-1v1z" />
    <glyph glyph-name="parenleft" unicode="(" horiz-adv-x="833" 
d="M201 300q-2 -2 -4 0q-23 -11 -41.5 -39t-33.5 -65t-26 -79.5t-18.5 -83t-11.5 -74.5t-5 -55h-1q3 -2 5.5 -4.5t5.5 -4.5q0 -1 -1 -3t-3 0q-13 12 -29 26q-13 12 -18 33t-4 47.5t6.5 55.5t13.5 57q1 4 1.5 7.5t1.5 8.5q1 1 1.5 2t1.5 2q2 5 3 9t3 8q3 14 9 26l3 6
q3 11 7.5 20.5t9.5 19.5l1 2h1q10 15 25.5 32.5t33.5 31t38 20.5t39 1q5 -5 -1 -5q-8 2 -10 2l-1 -1h1q-1 0 -1 -0.5t-1 -0.5q0 -1 -1 -2zM42 -78q2 -5 5.5 -8t8.5 -7v3q-2 0 -3 1t-1.5 2t-1.5 2q-1 2 -2 3t-2 3q-4 4 -7 10q-2 1 -2.5 2t-1.5 2q4 -10 7 -13zM192 303
q-9 -2 -18 -6v-2l-3 -6q5 4 10.5 7.5t10.5 6.5zM65 164l-2 -8q2 4 3.5 7.5t3.5 7.5v1q1 3 3 8t4 11zM164 290q-6 -3 -9 -8q0 -2 -1 -3l1 -1zM108 248q-1 -1 -7 -9q1 1 2 1.5t2 1.5q1 3 8 10q0 1 2 3zM72 53q2 8 3 15.5t3 15.5l-3 -12l-3 -18v-1zM49 -69q0 -3 1 -4
q0 -1 0.5 -1.5t0.5 -1.5l1 1z" />
    <glyph glyph-name="parenright" unicode=")" horiz-adv-x="833" 
d="M87 291q-2 2 -1 4.5t3 0.5q6 -3 14 -4.5t15.5 -3.5t13 -5.5t8.5 -9.5l18 -57q6 -20 -0.5 -55t-20 -71.5t-30 -68t-29.5 -46.5l-3 -3q-9 -11 -15 -18q-1 -1 -3 -1q-14 -17 -32 -32q0 -1 -0.5 -1.5t-0.5 -1.5q-1 1 -2 1q-4 -2 -7.5 -5t-7.5 -5q-1 0 -1 -2q-4 -4 -8 -2
q-5 -2 -10 -3l-10 -2q-3 -1 -4 -4q-2 -2 -4 0t0 4v1h-5q-16 3 -29.5 13.5t-27.5 18.5q-2 1 -0.5 3.5t3.5 0.5q14 -8 27 -14.5t27 -14.5q5 2 8.5 3t7.5 2q25 28 39 51.5t24.5 48.5t20.5 54.5t27 69.5q11 26 18.5 51.5t6.5 48.5q-1 4 -1 7.5v6.5q-2 15 -9 27q-4 -1 -4 2v4
q-11 3 -16 7zM135 269q-7 2 -8 3q1 -2 2 -4.5t2 -7.5q4 -4 7 -10l1 1v-3q2 -6 3 -10q3 -10 5 -20.5t1 -21.5q1 0 1 -0.5t1 -0.5v20q-1 14 -6 27t-9 27zM-8 -85q2 1 3.5 1.5t3.5 1.5q4 7 9 13.5t10 14.5q0 1 2 3l-1 1q-6 -8 -12.5 -17t-14.5 -18zM51 3l2 4l2 4q1 1 1 5
q-2 -4 -2.5 -7t-2.5 -6zM143 149l1 4q-1 -2 -1 -7v3zM112 279q0 -1 1 -1v1h-1z" />
    <glyph glyph-name="asterisk" unicode="*" horiz-adv-x="833" 
d="M52 221q3 3 7.5 5.5t8.5 5.5l3 4.5t2 2.5q-1 0 -1.5 0.5t-1.5 0.5q-12 2 -16 5q-1 1 -1 3q-1 47 38 19q1 11 2 18.5t4 11.5t9.5 4.5t19.5 -3.5q3 0 4 -4q1 -3 -1 -8t-5 -9.5t-5 -8t-1 -4.5q0 -1 2 -1q1 1 1.5 1t1.5 1h1q5 3 10.5 9t10.5 5q9 -3 14 -11q4 -4 5 -9
q5 -6 -3 -11q-1 -12 -10 -15q-9 -4 -20 1q5 -5 9 -13.5t9 -13.5q2 -6 -2 -7q-12 -8 -17 -6.5t-10 5.5q-2 2 -4.5 3.5t-4.5 4.5q-3 2 -4 9.5t-6 8.5q-7 1 -12.5 -6t-10.5 -13t-11.5 -6t-15.5 15q-1 1 1 6zM78 216q1 1 2 1.5t2 2.5q-1 -1 -3 -1q0 -1 -0.5 -1.5t-0.5 -1.5z
M144 240q5 0 6 1q-2 0 -2.5 -0.5t-2.5 0.5zM119 290l1 -2v2h-1z" />
    <glyph glyph-name="plus" unicode="+" horiz-adv-x="220" 
d="M95 151q0 2 2 2t3 -2q6 3 10.5 5t9.5 0q3 -2 3 -4t-2.5 -11t-6.5 -20q11 -1 22 -1.5t22 -1.5q1 -1 2 -2.5t-1 -2.5q2 -2 0 -4q-11 -11 -26 -14t-29 -5q-7 -19 -12 -27t-7 -10q-1 -1 -5 -1q-3 1 -8 -2q-8 -5 -8 4q2 10 3.5 13t4.5 14q-11 -2 -21 -1.5t-16 8.5q-1 2 -1.5 2
t-0.5 2l4 10l4 10q0 2 1 3v6q0 4 2 3.5t3 -2.5q0 -2 0.5 -3t0.5 -2q15 4 37 4q3 8 5.5 16t4.5 14zM47 94q1 0 6 6t9 11h-7l-4 -8t-4 -9zM77 110q-2 0 -3.5 0.5t-3.5 0.5v-1q0 -1 -1 -2h1q-1 -1 -2 -1q-2 -3 -3.5 -5.5t-3.5 -4.5h2q7 10 14 13zM108 121q3 7 5.5 13t3.5 13
q-1 0 -1 -1q-2 -5 -4 -12t-5 -13h1zM96 132q2 4 3.5 7.5t3.5 6.5h-1q-2 0 -3 1zM79 69l-2 -6h3v1q-1 1 -1 5zM115 151q0 -1 1 -2h1v2h-2zM48 109q0 1 0.5 1t0.5 1h-1v-2z" />
    <glyph glyph-name="comma" unicode="," horiz-adv-x="96" 
d="M-7 30q2 5 4.5 9.5t7.5 7.5q1 2 2 3l2 2q5 11 11.5 15.5t11.5 -3.5q8 -14 6.5 -25.5t-7.5 -18.5q-5 -20 -21 -43.5t-27 -38.5q0 -1 -0.5 -2t-0.5 -2q-1 0 -1 1v-1q-2 -2 -5.5 -1t-1.5 5q2 10 8.5 33.5t11.5 39.5q-6 5 -1 19zM-10 -37q1 1 2 2.5l3 4.5q-2 0 -2 1
q-2 -7 -3 -8z" />
    <glyph glyph-name="hyphen" unicode="-" horiz-adv-x="177" 
d="M16 90q-5 -5 -5 1q-2 1 -1.5 2.5t2.5 2.5h1q9 18 22.5 21.5t30 2t35 -3t38.5 6.5q3 2 4 -0.5t-2 -4.5q-1 -1 -1 -0.5t-1 -0.5q2 0 1 -4v-1v-1l-6 -6l1 -1q5 5 8 14q0 3 2.5 2.5t2.5 -3.5q-2 -17 -17.5 -22.5t-36.5 -6t-42.5 1.5t-34.5 1q-1 0 -1 -1zM48 100h8t9 1v1
q-5 -1 -8.5 -1h-6.5q0 -1 -2 -1zM20 98q2 0 3.5 0.5t3.5 0.5l-1 1h-5z" />
    <glyph glyph-name="period" unicode="." horiz-adv-x="89" 
d="M-15 13l2 8t3 9q1 1 1 2t1 2q3 20 20 26q3 1 5 -1t3 -5q2 0 2 -2q1 -1 1.5 -1t1.5 -1t1 -5q-1 -1 -1 -5q6 -8 -0.5 -19.5t-16.5 -18t-18 -6t-5 16.5zM-3 3q-5 0 -7 5q-1 -10 7 -6h1q-1 0 -1 1z" />
    <glyph glyph-name="slash" unicode="/" horiz-adv-x="207" 
d="M-83 -224q-1 -2 -3 -1.5t-2 2.5q4 29 15.5 54t25.5 48t29.5 45.5t27.5 48.5q87 174 174.5 344t190.5 335q5 3 5 -2q-101 -165 -187.5 -335.5t-174.5 -343.5q-14 -27 -30 -48t-30.5 -42t-25.5 -46t-15 -59z" />
    <glyph glyph-name="zero" unicode="0" horiz-adv-x="234" 
d="M175 190q5 -5 -1 -5q14 -10 18.5 -30t1 -44t-14 -48t-26.5 -41t-37 -24.5t-46 2.5q-11 5 -20.5 15.5t-12.5 22.5q-11 46 5 76.5t54 58.5q10 7 19.5 12.5t19.5 8.5q0 2 3 1q19 5 37 -5zM138 189q-25 -5 -48.5 -26.5t-37 -48.5t-13.5 -54.5t23 -43.5h3q22 11 39 29.5
t28 40.5t16 45t2 42l-1 2q-1 1 -1 4q-2 2 0 5q-3 2 -5.5 2.5t-4.5 2.5zM186 152q-3 18 -15 27q5 -5 8.5 -12.5t6.5 -14.5zM76 8q1 3 2 5l2 4q-1 -1 -2 -1q-3 -2 -5 -3l-4 -2l6 -2zM103 35q-2 -2 -4 -4.5t-4 -4.5q1 0 2 -1l5 5q0 2 0.5 2.5t0.5 2.5zM154 184q1 0 2 -0.5
t2 -0.5q1 1 4 1q-1 1 -2 1q-2 0 -4 1q-1 0 -1 -0.5t-1 -0.5v-1zM168 149q0 -2 1 -3t2 -3q-1 3 -1.5 5t-1.5 4v-3zM162 173q2 0 3 -1l-2 2zM160 146q0 -1 -0.5 -1.5t-0.5 -1.5l1 1v2zM128 67q0 -1 -0.5 -1t-0.5 -1h1v2zM92 24l-2 -1h1zM115 6q1 0 1 0.5t1 0.5h-1zM91 4v1
l-1 -1h1zM139 86l1 1z" />
    <glyph glyph-name="one" unicode="1" horiz-adv-x="231" 
d="M51 -17q-2 -2 -3.5 0t0.5 4q5 5 7 6v1h1v1q1 3 1 6.5t1 6.5q-2 -5 -5 -9t-4 -8q-5 -5 -5 2q14 26 24.5 46.5t18.5 39.5t14 39t12 44q0 4 1 5v1q1 3 3 11h-1l-1 -1q-2 -3 -4 -1q-14 -18 -26 -43t-34 -44q-1 -1 -1 -2h-1q-2 -1 -3 1t1 4l3 3q11 9 20.5 25t18 32.5
t16.5 29.5t17 17q11 5 26 3t26 -2q6 0 6 -7t-8.5 -33.5t-20 -57.5t-23 -58t-17.5 -35q2 -2 -1 -4q-8 -3 -15.5 -6t-13.5 -5q-11 -5 -20 -8.5t-10 -3.5zM135 193q0 -1 1 -1h1l2 -1q0 1 1 2h-5zM76 3q1 1 1.5 1t1.5 1v3q-1 -3 -3 -5zM167 191q0 -1 0.5 -2t0.5 -2q1 1 0.5 2
t0.5 2h-2zM112 20q0 1 0.5 1t0.5 1l-1 -1v-1z" />
    <glyph glyph-name="two" unicode="2" horiz-adv-x="250" 
d="M148 190q-5 1 -7 4q-5 0 -8 3l-1 1q-21 -7 -40 -23.5t-25 -43.5q-1 -2 -3 -1.5t-2 2.5q5 23 19 39.5t31.5 26t36.5 11.5t33.5 -4.5t22 -21t2.5 -38.5q-8 -38 -26 -71.5t-50 -54.5q24 -8 49 -9t51 17q2 1 3.5 -0.5t-0.5 -3.5q-25 -17 -53 -17t-57 8q-11 -7 -26 -12
q-6 -2 -11 -2q-8 -6 -12 -8q-2 0 -3 1.5t1 3.5l1 1h-5q-9 -5 -14 -2l-1 1q-18 0 -33 5t-17 19q-1 9 4 13.5t13 7t16.5 2.5t14.5 -1q25 -5 45 -13q23 28 37.5 65.5t19.5 62.5q-1 8 -1.5 15.5t-2.5 15.5q-1 0 -1 1h-1zM36 7q5 -3 14.5 -3t20.5 2q7 4 16 13q-18 5 -35.5 12.5
t-37.5 -3.5q-4 -2 -1.5 -5.5t7.5 -7t10 -6t6 -2.5zM125 27q4 2 6 4q-1 0 -1.5 -0.5t-1.5 -0.5zM91 11q1 0 3 2l-6 -3q2 0 3 1zM127 65q-1 -1 -1 -2l1 1v1z" />
    <glyph glyph-name="three" unicode="3" horiz-adv-x="220" 
d="M91 174q-2 -2 -4 -0.5t0 3.5q8 12 25 21q3 4 8 4q4 2 8 2.5t8 1.5q27 1 38 -11t10 -28.5t-12.5 -33t-30.5 -22.5q13 -10 14.5 -29.5t-7 -39t-25.5 -33.5t-39 -14q-5 1 -8.5 1t-7.5 1q-10 -1 -19 3q-1 0 -1 2q-10 5 -15.5 13.5t-3.5 23.5q0 3 2.5 2.5t2.5 -3.5
q-2 -17 8 -24.5t24 -9.5l1 1q-2 2 -1 4.5t3 0.5q1 0 2 -1q2 0 3 0.5t3 0.5q11 7 21 20.5t16 28t7 28t-5 20.5q-6 0 -16 4q-2 2 -1.5 3.5t2.5 1.5q4 0 7 1q0 1 3 0q6 2 11.5 4.5t13.5 7.5q5 8 7 18.5t1 20t-5 17.5t-11 10q-13 -4 -23.5 -10t-13.5 -11zM87 4q3 0 5.5 0.5
t5.5 1.5v3v1q-6 -5 -12 -6h1zM171 149q2 4 2 7l-2 -2v-5zM164 193q0 1 -1 1z" />
    <glyph glyph-name="four" unicode="4" horiz-adv-x="297" 
d="M144 11l4.5 4.5l5.5 5.5q1 13 9 31q-26 -8 -51.5 -18.5t-45.5 -19.5q-2 -2 -8 -6h-2q-5 -5 -11 -8q-6 0 -6 5v3q-3 0 0 3q2 2 3 4q3 6 9 12q32 37 70 66.5t73 62.5q5 5 13.5 16.5t20.5 18.5q1 1 1 2t1 3q5 3 5 -2q0 -1 -0.5 -1t-0.5 -1q6 2 13 4t11 2q2 0 4 -3
q2 -9 -1.5 -20.5t-9.5 -23t-12.5 -22t-11.5 -17.5q-4 -5 -7 -14.5t-7 -21.5q20 5 34 3q2 -1 2.5 -3t-2.5 -2q-7 0 -16.5 -2t-20.5 -5q-6 -18 -13 -37t-15 -34q-2 -4 -5 -4q-3 1 -5.5 1.5t-5.5 1.5q-5 -2 -9.5 -2h-9.5h-2q-2 0 -3 1t1 2v2q1 2 1.5 2t1.5 1q-1 0 -1 1
q-5 3 -1 9zM221 178q-5 -5 -8 -10t-8 -11v-3q-23 -32 -49.5 -59t-52.5 -56q16 7 32 13.5t33 12.5q5 11 10.5 22t10.5 20q2 5 3 8.5t3 8.5q2 4 3 7q0 4 4 10q3 12 7 18q2 5 5.5 9.5t6.5 9.5zM162 6q1 -1 4 -1l-1 1q-2 0 -3 1v-1zM255 192v-2l1 -1v3h-1zM230 185
q-1 -1 -1 -1.5t-1 -1.5q2 2 4 3h-2zM255 178v3q0 -1 -1 -2zM242 189q-1 -1 -2 -1h2v1z" />
    <glyph glyph-name="five" unicode="5" horiz-adv-x="231" 
d="M134 177q0 -3 -3 -3q-1 -1 -1.5 -2t-1.5 -2l-4 -10t-5 -9q12 3 28 -2q14 -6 24 -19q14 -10 12 -27q4 -16 1 -32.5t-13 -30.5q-3 -4 -19 -14t-31 -18q-2 -2 -4 -2q-7 -4 -12.5 -6.5t-7.5 -4.5q-12 -5 -28 -2t-29.5 10.5t-20.5 16.5t-1 17q2 2 4 0.5t0 -3.5l-2 -2
q3 -7 10.5 -12.5t12.5 -10.5q24 -16 41 -10t37 21q5 6 9.5 13t7.5 15q6 17 7 36.5t-3 35.5q-2 2 -2 3l-1 1t-1.5 2t-1.5 2q-2 2 -3 2.5t-2 2.5q-1 0 -1 1q-4 0 -2 4q-2 1 -5 1t-7 1q-2 0 -3 1q-5 0 -10 -0.5t-10 -0.5q0 -1 -1 -1h-2q-8 -6 -16 -1q-2 2 -3 2.5t-1 3.5t1 3
q3 18 7.5 27.5t11.5 14t17.5 5.5t25.5 1q3 2 5 0q13 0 25 1.5t24 1.5q3 0 3 -1.5t-2 -3.5q-12 -2 -24.5 -4t-25.5 -4q-1 -2 -2 -3.5t-2 -3.5v-1zM80 143v10q-2 -6 -3 -8l-1 -2h4zM100 147v2l-1 -1v-1h1z" />
    <glyph glyph-name="six" unicode="6" horiz-adv-x="243" 
d="M157 191q5 -5 -2 -5q-8 3 -18 1q-2 -6 -4 -2h-1q-14 -6 -25 -24t-18 -41q-1 -5 -2 -8.5t-2 -5.5q1 0 2 0.5t2 0.5q26 3 47 -9t31 -30t5 -36t-31 -27q-14 -5 -32 -2t-31 11q-34 21 -41.5 52.5t13.5 66.5v1q5 17 18.5 34t29.5 25q8 6 19 8t28 -1q12 -2 24 -5.5t20 -12.5
q1 -1 1 -3q-1 -2 -1 -2.5t-1 -2.5t-3 -1.5t-2 2.5q1 1 1 4q-6 5 -15 8.5t-17 5.5q0 -1 5 -2zM135 91q-11 8 -24 10.5t-29 -6.5q-5 -22 -5 -33q0 -3 0.5 -6t0.5 -5q0 -3 -1 -4q0 -2 -0.5 -4t0.5 -4q0 -1 1 -1v-4q0 -1 2 -7q1 -1 2 -2.5t-1 -2.5q15 -8 32 -10q15 17 24 36.5
t-2 39.5v3zM75 26q-2 2 -2 5h-1q-4 2 -7 5l-9 6q2 -2 4.5 -5t6.5 -5zM143 86q1 -3 1.5 -5.5t1.5 -5.5q1 0 1 0.5t1 0.5h3q-2 3 -4 5.5t-4 4.5zM92 175q2 2 4.5 4t4.5 4l3 3l-4 -2t-5 -3zM141 15l-1 1v1q-2 -2 -3 -2.5t-2 -1.5zM155 26q-1 -1 -2 -1l-1 -1q-1 -1 -1.5 -2
t-1.5 -2z" />
    <glyph glyph-name="seven" unicode="7" horiz-adv-x="247" 
d="M106 -6q-8 4 -18 0.5t-21 -4.5q-3 0 -3 1q-3 3 0 4q1 7 6.5 13t8.5 13q6 12 13 25.5t15 26.5v1h-5q-7 -2 -15.5 -4.5t-16.5 -4.5q-1 -1 -3 -1t-2.5 0.5t-2.5 0.5q-3 0 -4 1q-2 1 -2.5 3.5t3.5 2.5h2q10 0 23 5.5t21 7.5q4 0 6 1q7 17 14.5 34.5t18.5 32.5q5 10 9.5 18
t7.5 13q1 5 5 13q-15 0 -34.5 -1t-38 -1.5t-33 -1.5t-20.5 -1q0 -2 -3 -2q-1 1 -3 1q-2 4 -1 5t14 3t31 3t39 2.5t40 2t32 0.5h15q4 -1 4 -7q-5 -21 -17 -41t-23 -40q-4 -8 -7.5 -15.5t-7.5 -15.5q18 -2 34 -6q2 -1 2.5 -3t-2.5 -2q-11 2 -20 3t-17 1q-7 -16 -13 -30.5
t-14 -28.5q-2 -5 -4.5 -10.5t-7.5 -8.5q-1 -1 -1.5 -2t-1.5 -2l2 -2q0 -1 -1 -3t-3 0zM145 136q4 6 5 9q-2 -2 -2.5 -4.5t-2.5 -4.5zM167 138q1 0 1 1h-1l-1 -1h1zM181 187q0 2 1 3l-2 -2zM196 198v-1l1 1h-1zM84 20q-2 -2 -2 -3q1 1 1 1.5t1 1.5z" />
    <glyph glyph-name="eight" unicode="8" horiz-adv-x="281" 
d="M171 198q1 0 2 -1q16 1 21 -10t3 -25.5t-8.5 -28t-13.5 -17.5q12 -12 11.5 -34.5t-10.5 -43.5t-28 -34t-41 -5q-22 7 -28 25.5t-1.5 39t17.5 38.5t28 24q-8 11 -8 26q-11 25 14 38q11 6 21 6.5t21 1.5zM123 6q9 5 14 12.5t8 15.5q1 10 2 16.5t1 13.5t-2 15t-6 20
q-1 1 -5 7.5t-7 13.5q-15 -3 -26 -18.5t-15.5 -34t1 -35.5t23.5 -23q6 -3 12 -3zM183 190q-3 1 -15 1q-1 0 -1 -1q-3 -4 -4.5 -10t-3.5 -9q-7 -18 -1.5 -25t11.5 -18q11 5 16 20q9 22 -2 42zM163 34q2 5 4.5 10t4.5 10q-2 -5 -4.5 -10t-4.5 -10zM140 11q1 0 3 2h-1z" />
    <glyph glyph-name="nine" unicode="9" horiz-adv-x="284" 
d="M56 14q-7 8 -10.5 19.5t-4.5 21.5q0 4 2 3.5t3 -2.5q2 -6 6.5 -18.5t12.5 -20.5q6 -2 12.5 -2t12.5 -1q9 4 16 8q5 6 9.5 12t10.5 13q11 17 19 40q-8 -5 -16 -4t-16 6q-4 -1 -4 1v2q-9 6 -16.5 15.5t-11 20t-3 21.5t7.5 20q14 17 29 19t35 4q11 2 22.5 0.5t19.5 -9.5
q14 -15 15.5 -35t-4 -41t-16 -40.5t-20.5 -32.5q-6 -8 -16 -14t-20 -11q-9 -6 -24 -7l-2 -2q-2 -2 -5 -1.5t-4 3.5h-2l-8 -2h-2q-9 -1 -16.5 1t-11.5 9v4zM123 175q-9 -10 -11.5 -19t-2.5 -18t2 -19t3 -22l2 -1q13 -8 27 -3q1 0 2 0.5t2 0.5q6 17 9 33.5t5 33.5v2
q-6 17 -15 22h-1l-1 -1q-3 -1 -4 0q-4 -1 -7 -1.5t-7 -1.5v-2q-1 -1 -1 -1.5t-1 -1.5zM133 17q1 1 3 2t5 3q-1 0 -1 1q-2 -1 -3 -1t-1 -1q-1 -1 -2 -1.5t-2 -1.5q1 0 1 -1zM109 168q2 2 3.5 4.5t3.5 4.5q-2 -1 -3 -2t-3 -2v-1q0 -1 -0.5 -1t-0.5 -1v-2zM162 130l2 6v4z
M184 175q-2 2 -3 2.5t-2 1.5l4 -4h1z" />
    <glyph glyph-name="colon" unicode=":" horiz-adv-x="106" 
d="M44 47q-1 -5 -3 -9t-4 -9q2 -9 -4 -19t-15 -12q-15 -15 -19 -1q-5 5 -3.5 17.5t12.5 24.5q4 16 19 18q2 0 4 -2q-1 0 9 -2q4 -1 4 -6zM64 191l8 6q8 8 13 7q11 8 13 -2.5t-3 -23.5q0 -19 -14 -26q-5 -6 -11 -6q1 0 -5 2q-1 1 -1 5q-2 1 -2 1.5t-1 1.5q-7 3 -6 10
q-2 5 0 12.5t9 12.5zM65 184q-4 -5 -4 -7l3 3q0 3 1 4z" />
    <glyph glyph-name="semicolon" unicode=";" horiz-adv-x="94" 
d="M7 34q6 15 13 20t12.5 3t7.5 -9t-2 -16q-1 -2 -1 -2.5t-1 -2.5q0 -12 -6 -16q-5 -12 -9 -13q-5 -14 -10.5 -27t-10.5 -25v-1l-1 1q-2 -3 -5 -2.5t-3 4.5q4 18 12 37q0 10 1 13v1q0 2 0.5 3.5t0.5 3.5l-1 2q-2 7 -0.5 13.5t3.5 12.5zM55 155q-5 14 7 26q1 1 1 1.5t1 1.5
q5 11 9.5 11.5t7.5 -5.5q9 -6 7.5 -17.5t-8.5 -19.5q-5 -11 -16 -9q-3 0 -5 2q-1 2 -1.5 2t-0.5 2q-1 1 -1 2t-0.5 1.5t-0.5 1.5z" />
    <glyph glyph-name="less" unicode="&#x3c;" horiz-adv-x="833" 
d="M73 106q-1 -1 -3 -1q17 -18 35.5 -34.5t38.5 -31.5q0 -1 -1 -3t-3 0q-53 34 -93 81q0 5 2 7q9 7 25 13.5t33 14t30.5 15t17.5 15.5q0 2 2 2t3 -2q6 2 8 2l1 1q3 1 5 -1q2 -1 2.5 -1t2.5 -1q3 -2 3 -5q0 -2 -1 -3q-5 -6 -10 -11.5t-10 -10.5q-4 -7 -15 -13
q-8 -7 -17.5 -13t-21.5 -11q-4 -2 -7.5 -2t-7.5 -1q-3 -1 -6.5 -2t-7.5 -2q-3 0 -5 -2zM59 119q0 -1 2 -3q1 1 1.5 2t1.5 2t1 2v1q-2 -1 -3 -2t-3 -2zM75 120q2 1 4.5 2t6.5 3q-6 0 -7 -1zM67 108l2 -2v2h-2z" />
    <glyph glyph-name="equal" unicode="=" horiz-adv-x="833" 
d="M40 118q-2 -2 -4 0t0 4q6 7 25.5 10t42 4t43 0.5t29.5 -0.5q2 -1 2.5 -3t-2.5 -2q-1 -1 -2 -1t-1.5 -0.5t-1.5 -0.5q-6 -2 -12 -2t-13 -1h-19.5t-34 -1t-34 -2.5t-19.5 -4.5h1zM45 82q-2 -2 -3.5 0t0.5 4q8 8 27.5 10t42 1t42.5 -3.5l28 -3.5q2 -1 2.5 -3t-2.5 -2
q-7 0 -27 1.5t-42.5 2t-42 -0.5t-25.5 -6z" />
    <glyph glyph-name="greater" unicode="&#x3e;" horiz-adv-x="833" 
d="M153 91q-9 8 -24.5 18.5t-29.5 20.5t-21.5 18.5t1.5 12.5v2q-6 0 -1 5q15 7 30 2t29.5 -16t27 -25t21.5 -24l2 1q3 2 4 -0.5t-2 -4.5q0 -1 -1 -3t-3 0q-5 -3 -10.5 -6t-12.5 -6q0 -1 1 -1q0 -2 -2.5 -3t-2.5 1l-1 1q-25 -11 -53 -22.5t-45 -25.5q-2 -2 -3.5 0t0.5 4
q17 17 43.5 29t52.5 22zM150 132q-10 8 -20 15t-20 12q3 -2 6 -3.5t5 -3.5q4 -2 7.5 -4.5t6.5 -5.5q4 -2 7.5 -5t7.5 -5zM180 103q-2 0 -3.5 -0.5t-3.5 -0.5q0 -1 -0.5 -1.5t-0.5 -1.5q4 1 8 4zM97 150q2 -2 3 -2v2h-3zM103 161q-1 0 -3 2l3 -3v1z" />
    <glyph glyph-name="question" unicode="?" horiz-adv-x="312" 
d="M525 429q0 -4 -5 -3q-5 7 -10.5 13.5t-10.5 12.5q-44 -3 -83.5 -12t-79.5 -20q-10 -20 -27.5 -43.5t-41.5 -47.5t-53 -47t-62 -41q-19 -11 -39.5 -27t-37.5 -31l-2 -2q-11 -9 -17 -20q-9 -15 -10 -23.5t-4 -26.5q2 -8 3 -15t4 -14q2 -2 0.5 -4t-3.5 0q-8 5 -9.5 17.5
t0.5 26t6 25.5t8 17l12 15t11 11q8 11 14.5 21.5t14.5 20.5q19 22 43.5 43.5t49 42t47 41.5t37.5 44l-8 -2l-8 -2q-23 -7 -47 -14t-48 -12q-21 -4 -42 -9t-42 -1q-16 2 -30.5 7t-30.5 9q-19 6 -23 25t-0.5 40.5t10 40.5t7.5 24q6 22 30 41t54 32.5t61 20t51 3.5l34 -6l34 -6
q9 -2 21 -8.5t23.5 -17t20 -23t11.5 -25.5q1 -1 1 -1.5t1 -1.5q1 -6 -1 -16q-5 -18 -9.5 -36t-10.5 -36q5 1 9 2t9 3l42 10t41 10q23 6 35 8t19.5 -0.5t13.5 -10.5t17 -22zM85 372q51 -3 101 10.5t99 29.5q9 15 15 33q11 35 11.5 60t-12.5 47l-3 6q-3 4 -6 7.5t-6 8.5
q-1 1 -3 5q-8 5 -19 9q-2 0 -3 1q-24 6 -46 6q-34 0 -70.5 -9.5t-66.5 -29t-49 -50t-18 -70.5q0 -14 7.5 -25t12.5 -24q14 -4 28 -9t28 -6zM-4 -21q-1 10 2 19t10 13q8 18 18 17q5 0 5 -4v-3q2 -2 2 -5q-1 -2 -1 -4t-1 -4q-1 -3 -1 -6t-1 -5q0 -10 -7 -19q-3 -5 -7 -10
t-9 -7q-2 0 -4 2q-3 2 -4 7q-3 1 -3 4q0 1 0.5 2t0.5 3zM317 525q0 1 0.5 1.5t0.5 1.5q-2 4 -2 6l-2 2q2 -8 3 -11zM85 198q2 2 4 2.5t4 2.5h-5q-1 -1 -3 -5zM107 220l1 2q-4 -3 -6.5 -5.5l-4.5 -4.5q1 1 5 3zM286 581q2 -2 3 -2.5t3 -2.5l1 1v1q-2 1 -3.5 1.5t-3.5 1.5z
M333 525v1h-3q0 -1 0.5 -1.5t0.5 -1.5zM7 -29q-1 0 -1 -0.5t-1 -0.5q1 -1 1 -2q1 1 1 2v1zM145 247q-2 -2 -3 -2l1 -1q0 2 2 2v1zM343 531q-1 1 -1 2q0 -2 1 -2z" />
    <glyph glyph-name="at" unicode="@" horiz-adv-x="374" 
d="M240 149q3 0 3 -2q6 1 6 -6q5 0 9 -2q8 -5 4.5 -14t-10.5 -21l-9 -18v-2h-1q-5 -11 -5.5 -21.5t7.5 -21.5q21 1 34 11q27 20 48 54.5t25 67.5q3 19 -6 33.5t-24 24.5t-32.5 15.5t-32.5 6.5q-24 1 -53.5 -3t-58 -14t-53 -26.5t-37.5 -40.5q-17 -32 -24.5 -61.5t-4.5 -65.5
q3 -30 19 -60.5t40 -50.5t54.5 -24t62.5 18q14 10 24.5 23t21.5 25q2 2 4 0.5t0 -3.5q-21 -23 -28.5 -33t-14 -14.5t-17 -8t-36.5 -13.5q-11 -4 -23.5 0.5t-24.5 6.5t-22 11.5t-21 17.5q-23 16 -34.5 48t-13 67.5t6.5 69t24 53.5q25 29 69.5 53.5t92 33t89 -5.5t61.5 -62
q6 -17 -2 -39t-16 -36q-5 -11 -8.5 -17.5t-7.5 -11.5t-9 -11t-12 -15q-12 -15 -23 -20q-17 -11 -33 -12q-2 -2 -3 -1q-14 0 -26 9q-11 8 -14 19q-3 3 -3 4q-7 -10 -15 -18.5t-19 -13.5l-5 -2.5t-8 -3.5v-2l-2 -2q-8 -2 -14 1q-1 0 -2 -0.5t-2 -0.5t-1 -0.5t-1 -0.5
q-2 -2 -6 0q-1 0 -1.5 0.5t-1.5 0.5q-10 1 -16.5 6.5t-7.5 18.5q-1 26 6 52t30 43q4 3 15 10t23 11t22.5 1.5t12.5 -18.5q1 -5 1.5 -9.5t1.5 -9.5q1 0 3 -2q0 -2 0.5 -3t0.5 -3q13 28 24 30zM199 146q0 -4 -3 -4q0 -4 -3 -4q-5 -3 -9.5 -4t-9.5 -2q-9 -14 -21 -30t-19 -33
q-3 -18 3 -31v-3q1 -1 2 -1.5t2 -1.5q14 5 23.5 8.5t16 9.5t12 15t11.5 24q0 1 1 2q0 3 1 4l3 9v1q-1 10 -1.5 20t-4.5 19q-1 4 -5 6q0 -3 1 -4zM234 137q-3 -5 -6.5 -10.5t-6.5 -11.5q0 1 1 1q2 5 5.5 10.5t6.5 10.5zM235 41l-2 2t-2 3q-1 -1 -1 -2l-2 -2q2 0 3.5 -0.5
t3.5 -0.5zM111 79q2 2 3 2q-3 0 -4 1q0 -5 -1 -6q1 1 1 1.5t1 1.5zM156 122q-5 -6 -6 -10q2 2 3.5 5t3.5 5h-1zM211 52q0 3 -1 4l-2 1q1 -2 1.5 -2.5t1.5 -2.5zM146 138q-1 -1 -2 -1.5t-2 -1.5h2q0 1 2 3zM238 144q0 -1 -0.5 -1t-0.5 -1h1v2zM116 101q2 2 2 3q-2 -2 -2 -3z
M191 148l2 -1l-1 1h-1z" />
    <glyph glyph-name="A" unicode="A" horiz-adv-x="1047" 
d="M1090 654q-5 5 1 5q2 -1 3.5 -1t3.5 -1q7 7 8 9q0 1 -1 1q0 6 5 3q1 0 1 -0.5t1 -0.5q1 -1 0 -4q-2 -3 -4 -5.5t-4 -4.5q1 0 2 -0.5t2 -0.5q2 0 2 -1q2 1 5 2t7 2q9 5 18 8t20 7q3 1 5 -0.5t0 -4.5q-1 -1 -1 -2h-1q0 -1 -0.5 -1t-0.5 -1l-8 -8l-1 -1q0 -1 1 -1q2 -2 0 -5
q-1 -1 -1.5 -2t-2.5 -3q-5 -13 -18.5 -26.5t-27.5 -22.5l1 -1q-1 -1 -1.5 -1t-1.5 -1q-11 -11 -22.5 -22t-23.5 -22q-2 -3 -9 -10t-8 -9l-9 -12l2 2l2 2q0 -2 1 -2q1 -1 1.5 -1t1.5 -1q24 25 49 51.5t45.5 48.5t33 37.5t12.5 18.5q-16 4 -31.5 -1t-32.5 -2q-2 0 -2 4
q1 2 1.5 3.5t1.5 3.5q5 3 5 -2q0 -2 -2 -4q17 -3 32 2t31 1q2 0 2 -2q1 -11 -0.5 -13.5t-12.5 -14.5q-50 -53 -101 -104q-24 -26 -48 -52.5t-48 -53.5q-17 -19 -46.5 -51.5t-59.5 -67.5q-11 -14 -22 -26.5t-20 -22.5q-11 -13 -21 -24t-17 -19l-18 -21q36 -1 73.5 0.5
t55.5 3.5q37 3 75 9q45 121 102 234.5t120 222.5q5 3 5 -2q-25 -44 -53 -96.5t-56 -111t-55.5 -121t-51.5 -125.5q96 16 181.5 47.5t165 74.5t156 96.5t154.5 113.5q2 1 3.5 -0.5t-0.5 -3.5q-49 -38 -98 -75t-100 -71.5t-104.5 -65t-110.5 -54.5q-60 -25 -122.5 -43.5
t-128.5 -29.5q-39 -106 -62.5 -206.5t-18.5 -185.5q3 -55 21 -92.5t48.5 -57.5t71.5 -23t90 11q47 13 89 38.5t80.5 57.5t73.5 67.5t68 68.5q2 2 4 0.5t0 -3.5q-34 -34 -69 -70t-73 -68.5t-80 -58.5t-90 -40q-45 -13 -91 -9t-82 25t-56.5 59.5t-15.5 95.5q4 38 6 75.5
t9 74.5q11 61 28 120t38 119q-104 -17 -200 -11h-8l-64 -74q-23 -26 -45 -51.5t-45 -51.5q-63 -69 -127.5 -137.5t-140.5 -122.5q-7 -7 -14 -11q-4 -2 -7 -4.5t-7 -4.5q-12 -11 -24 -21t-26 -19q-2 -2 -3 -0.5t-1 2.5v7q-14 -7 -27 -13t-27 -12q-12 -11 -24 -21.5t-23 -21.5
q-2 -2 -3.5 0t0.5 4l17 17t18 17q-4 -2 -7 -2.5t-6 -2.5q-11 -3 -30.5 -8t-41 -9t-42 -5t-32.5 4q-14 7 -30 11t-29 14q-44 35 -46 68t23 77q8 14 19 31t23 34t24.5 33t22.5 28q11 13 24.5 28.5t27.5 32t28 32t26 28.5q24 26 44 46.5t41 37t46 29t59 23.5q29 9 59 18t59 13
q33 4 64.5 1.5t63 -7.5t62.5 -11.5t63 -10.5q4 5 7.5 8.5t7.5 8.5q20 23 41 45t42 45q20 31 45 59.5t51 55.5q22 29 43.5 58.5t46.5 58.5q-27 -15 -65 -26.5t-79 -18t-81 -7.5t-71 5q-38 7 -77 16t-78.5 14.5t-78.5 4.5t-78 -13q-59 -18 -99 -64q-13 -16 -28.5 -39
t-24.5 -48t-8.5 -50t18.5 -44q0 -5 -5 -3q-19 19 -21 44.5t8 53t29 54t41.5 49t45.5 37.5t42 19q67 13 126 9.5t125 -16.5l42 -10t42 -8q35 -5 70.5 0t69.5 10q37 5 68.5 13t63.5 25q3 2 7.5 4t9.5 5q22 23 49 47t44 41q-1 1 -2 0.5t-2 0.5zM-23 -314q23 -17 51 -22.5
t58 -2.5t61 12t60 21q18 17 36.5 33t36.5 32q-3 3 0 4q8 6 21.5 17t27.5 21q15 13 30 25.5t29 25.5q0 1 0.5 1.5t0.5 1.5l3 3q48 52 94 106t100 99q3 3 5.5 6t5.5 7q19 30 30 41l2 2v-1l1 1h3l32 42t33 42q-51 8 -100.5 17.5t-100.5 10.5q-26 1 -53.5 -3t-54.5 -11.5
t-53.5 -17t-50.5 -19.5q-23 -9 -49 -29.5t-53.5 -47.5t-55 -57.5t-52 -61t-45 -57.5t-34.5 -46q-18 -25 -35 -49.5t-24 -49t0.5 -48.5t39.5 -48zM226 -298q9 5 17.5 9t16.5 9q2 5 5 10q4 5 5 1q0 -1 2 -5q5 4 11 7t11 6q0 2 1 3q0 2 2 2l-1 1v-1q-2 -2 -3.5 0t-0.5 4
q7 10 17 20q-1 0 -1 1q1 1 3 1l3 3q7 8 16 15h-2l-2 -2q-26 -21 -50.5 -41.5t-49.5 -42.5zM725 219q22 15 42 33q1 3 4 6q2 4 4 7t4 7q-2 2 -1 4t1.5 4t2.5 4q-15 -17 -29 -32t-27 -32zM746 196q-4 -5 -8 -10.5t-9 -11.5q-5 -7 -11 -15t-13 -17q12 14 23.5 27t23.5 27h-6z
M760 205q5 5 9.5 10.5t9.5 10.5q-3 -2 -6 -2.5t-5 -1.5q-1 -1 -2 -1q-1 -1 -1.5 -2t-1.5 -2q-2 -3 -5 -6t-5 -6h7zM976 516q-5 -8 -11 -14.5t-11 -14.5q6 5 11.5 10.5l10.5 10.5q3 8 10 16q-1 -1 -2 -1.5t-2 -1.5l-5 -5h-1zM543 -33q-2 -4 -5 -7.5t-6 -7.5q1 -1 1 -3
q8 10 15.5 19t16.5 18h-2q-2 -2 -4.5 -3.5t-4.5 -3.5q-3 -3 -5.5 -6t-5.5 -6zM632 102q2 2 3 4.5t4 6.5q-10 -11 -18.5 -22.5t-15.5 -20.5q0 -1 -2 -3v-3q1 1 2 1.5t2 1.5l12 18t13 17zM646 91q-1 -2 -2 -3t-2 -3q1 1 2 1.5t3 2.5q4 0 5 -1q3 5 5 9t4 6q1 1 2.5 3t3.5 4
q-3 -2 -5 -3t-3 -2q-4 -4 -7 -7.5t-6 -6.5zM1046 601q-8 -7 -14 -13l-13 -13q4 1 10 6q1 1 2.5 2t3.5 3q12 15 25 28q-4 -3 -7.5 -6.5zM285 -278q-6 -3 -11.5 -6t-11.5 -6v-5q6 5 11.5 8.5t11.5 8.5zM331 -212q6 5 11.5 9t10.5 9q-2 -2 -4.5 -2.5t-4.5 -2.5h-1l1 -1
q-2 -1 -3 -2t-3 -2zM459 -130q-3 -2 -5.5 -4t-4.5 -4t-4.5 -4t-4.5 -4q0 -2 -1 -3t-1 -2zM972 519q-9 -11 -18 -22.5t-17 -22.5v-2q9 13 18 24.5t17 21.5v1zM1100 609q-1 1 -1 4q-1 0 -1 -1q-2 -2 -3 -5t-3 -5q2 2 4 3.5t4 3.5zM1005 559q-2 -2 -5 -5.5t-6 -7.5l16 16
q-3 -1 -5 -3zM700 154q-4 -5 -7.5 -8.5t-6.5 -8.5q5 5 9.5 10.5t9.5 11.5l-4 -4q-1 0 -1 -1zM1094 644q6 5 10 6q-1 1 -3 1zM596 53q-1 -2 -8 -9v-1q7 7 9 10h-1zM1126 638q-1 0 -1 -1q-3 -2 -3 -4l5 5h-1zM1115 647q0 -1 1 -1t1.5 0.5t1.5 0.5v1q-1 0 -2 -0.5t-2 -0.5z
M368 -180q0 1 2 3q-1 -1 -2 -1.5t-2 -1.5h2zM316 -237q1 0 3 2h-1zM449 -89l-1 -2h1v2z" />
    <glyph glyph-name="B" unicode="B" horiz-adv-x="1051" 
d="M1012 742q-38 5 -75 5.5t-72 -1.5q-68 -3 -139.5 -14.5t-141 -32.5t-133.5 -52.5t-118 -75.5q-17 -13 -33.5 -37t-29 -54t-20 -62t-5.5 -61.5t15 -53t40 -35.5q13 -5 26.5 -6t26.5 -4q2 -1 2.5 -3t-2.5 -2q-14 3 -28 4.5t-28 6.5q-19 7 -30 20.5t-16.5 30.5t-7.5 35.5
t-3 35.5q-1 14 2 27.5t8 27.5q13 36 26 63t30 48.5t40.5 40t57.5 37.5q63 36 134 62.5t146 42.5t151 21t148 -2q27 -2 53 -8.5t52 -12.5q23 -5 43.5 -18t41.5 -24q14 -7 20.5 -19.5t7 -27.5t-3 -32t-9.5 -32q-1 -4 -1.5 -9t-1.5 -10q-4 -23 -13 -46.5t-22.5 -46t-31 -41.5
t-37.5 -32q-9 -6 -20 -9t-20 -10q-4 -5 -9 -9t-10 -9q-4 -5 -8 -8.5t-12 -5.5q-6 -4 -12.5 -7t-12.5 -7q-17 -14 -34 -27t-35 -25q-8 -5 -16 -7.5t-17 -4.5q8 -2 15 -6.5t15 -9.5l21 -6q0 1 0.5 1t0.5 1q7 4 13.5 0.5t11.5 -10.5l10 -4l10 -4q21 -10 27.5 -32t3.5 -50.5
t-13 -60.5t-23.5 -61.5t-28 -53.5t-24.5 -36q-4 -7 -7.5 -11.5t-6.5 -7.5h-3q-66 -72 -146 -146q-7 -12 -20 -22q-5 -7 -10 -13t-10 -13v-2l-1 1v-1q-3 -3 -6.5 -1t-1.5 6q-6 -5 -12.5 -11t-12.5 -11q-1 -1 -3 -1q-19 -15 -37.5 -30t-38.5 -29l-34 -34q-2 -2 -4 -0.5t0 3.5
q3 4 6 7l7 7q-81 -57 -165.5 -95.5t-172.5 -51.5q-38 -5 -81 -4t-85 10.5t-79 29t-62 52.5q-33 43 -32.5 89.5t20 92t50.5 88t58 77.5q78 102 168.5 177.5t213.5 117.5q33 11 61.5 17.5t56.5 8.5q6 10 14 24t16.5 27.5t16 25.5t13.5 20q3 5 6.5 8.5t6.5 8.5q6 11 12.5 22
t14.5 20q7 13 14.5 26.5t15.5 26.5q2 4 4.5 7t4.5 7l6 14l6 14q5 9 11 19.5t8 20.5h-5q-2 1 -2 3t2 2q1 0 2 0.5t3 0.5q0 5 3 2q2 0 3 -1v-1q14 2 27 2.5t26 -1.5q6 -2 1 -5q-11 -11 -18 -24.5t-12 -28t-10.5 -29.5t-13.5 -28q-14 -23 -29 -44.5t-30 -43.5q-5 -23 -22.5 -48
t-33.5 -45q0 -1 -1 -1q25 -1 55 -6q17 -2 31 -14t28 -20q17 -9 24 -28t17 -35q0 -5 -5 -3q-10 16 -18 32.5t-22 29.5q-23 22 -51 31t-60 11q-8 -15 -17 -30.5t-17 -29.5q-6 -10 -14 -21l-16 -22v-1l-1 -1q0 -1 -0.5 -1t-0.5 -1q1 0 1.5 -0.5t1.5 -0.5l-3 -3q-2 -4 -3.5 -7.5
t-4.5 -8.5l1 1v-1q3 2 5 -0.5t0 -4.5q-5 -7 -10 -15.5t-11 -18.5q-37 -99 -101 -186q-13 -17 -35 -43t-48.5 -50t-55 -40.5t-54.5 -14.5q-1 -1 -2 0q-10 1 -18 5q-2 2 -1 4.5t3 0.5q5 -2 9 -2.5t9 -1.5q44 35 72 66t51 66q5 12 13 27.5t17 30.5q5 12 12.5 24t15.5 24
q22 42 44 82t45 82q3 8 5 15.5t4 12.5v1q5 5 7 -1q7 13 15 26t16 27q1 2 1.5 4t2.5 4q-31 -5 -60 -13t-53 -16q-137 -48 -238.5 -140t-182.5 -213q-14 -21 -29.5 -44.5t-28 -48t-20 -51t-6.5 -53.5q2 -37 23 -65.5t51.5 -49t65.5 -32.5t65 -17q31 -5 62 -4t62 5
q103 16 196.5 62.5t178.5 109.5q38 40 77 80.5t75 83.5q10 16 29 35q40 51 74 103.5t59 110.5q5 17 10.5 34.5t9 34.5t3 33.5t-7.5 31.5q-11 6 -19.5 13.5t-6.5 18.5q-1 1 -2 1.5t-2 1.5t-2.5 2t-3.5 3q-49 8 -86 3q-8 -5 -20 -11t-23.5 -9.5t-20.5 -3t-10 9.5q0 3 2 3
q-2 5 1 11q0 3 2.5 2.5t2.5 -3.5q0 -2 -1 -4.5t0 -4.5q6 -1 14 0.5t16.5 4.5l17 6t14.5 4q3 2 6.5 3t6.5 3q20 7 42 9.5t40 13.5q12 8 24.5 16t24.5 17q-11 -5 -20 -10t-14 -9q-2 -2 -3.5 0t0.5 4q13 11 34 22t41 23l6 6t7 6q-31 -17 -61.5 -33t-57.5 -38q-2 -2 -3.5 0
t0.5 4q29 26 65 43t70 38q2 8 15.5 18.5t26.5 19.5q5 5 10 10.5t10 11.5q2 8 6.5 17l9.5 19l1 1q1 2 1.5 5t2.5 5q1 4 2 7.5t2 6.5q2 8 5.5 14.5t7.5 13.5q3 7 5.5 14t5.5 14q-6 16 -9 38.5t-1 39.5v14q-10 21 -21 33.5t-23.5 22t-27.5 19t-34 24.5v1zM1157 408
q-8 -2 -22.5 -6t-30.5 -9.5t-30 -12t-20 -13.5q0 -2 -1 -3q0 -1 -2 -3q-5 -3 -5 3q4 11 18.5 19t31.5 14t33.5 10t25.5 7q66 21 133 27.5t134 -6.5q33 -6 65 -16.5t64 -18.5q89 -22 173 -22.5t165.5 16.5t161 49.5t160.5 76.5q36 19 73.5 42t71.5 51t62.5 60.5t46.5 70.5
q10 22 13.5 45t8.5 46q0 3 2.5 2.5t2.5 -3.5q-5 -23 -10.5 -45.5t-10.5 -45.5q-7 -28 -31.5 -57.5t-58.5 -58.5t-74.5 -56t-79.5 -49.5t-73 -39.5t-55 -26q-65 -29 -127 -49.5t-124.5 -31t-126 -9.5t-132.5 16q-43 10 -84 24t-86 22q-66 13 -132.5 6.5t-129.5 -26.5z
M867 260q-2 -2 -4 -0.5t0 3.5v1q-10 -2 -19.5 -3.5t-18.5 -4.5q17 1 34 -0.5t34 -3.5q-11 8 -25 10zM228 -250q17 0 32 17v2q0 5 1 6v1q2 2 2 5q-9 -8 -18 -15.5t-17 -15.5zM1096 417q26 23 45 56t29 67q-1 -2 -1 -2.5t-1 -2.5l-1 -2q-1 -1 -2 -5q0 -3 -2 -5q0 -2 -0.5 -2.5
t-0.5 -1.5q-6 -18 -16 -31q-2 -2 -3.5 -5t-3.5 -6q-3 -5 -6.5 -9.5t-6.5 -9.5q0 -1 -2 -3q-5 -10 -13.5 -20.5t-14.5 -17.5zM1023 740q10 -7 21.5 -13t22.5 -13q0 1 2 3q1 0 1 0.5t1 0.5q-1 1 -1 3q0 1 -1 1q-9 4 -16 8q-1 1 -2 1t-2 1v1l-1 1q-6 2 -12.5 3t-12.5 3z
M738 -212q-20 -23 -39 -43t-42 -43q3 1 11 7l9.5 9.5l14 14t15.5 16t14 14.5q3 5 7.5 10.5t9.5 11.5q0 2 1 2zM804 -164v-1q0 -1 -2 -3h-1l-8 -8q-5 -5 -10 -10.5t-10 -10.5l-4 -4q0 -1 -2 -3q14 12 26 24.5t25 23.5l15 15zM792 245q-13 -5 -27 -9t-20 0q1 -5 12.5 -3.5
t15.5 1.5q3 1 8 4t11 7zM700 525q0 -1 -1 -2q1 -1 1 -2t0.5 -2t0.5 -2q5 2 10 5t10 5h-9.5t-10.5 -1q0 -1 -1 -1zM421 -57q-1 -2 -2 -4.5t-2 -5.5q8 13 15 25l14 24q0 2 1 2v3q-6 -11 -13 -22.5t-13 -21.5zM1185 621q0 -2 2 -12q1 0 1 0.5t1 0.5q3 10 3 20q-2 -3 -3.5 -5
t-3.5 -4zM945 -4q10 19 19.5 40.5t17.5 44.5q-6 -14 -11.5 -28.5t-12.5 -28.5q-1 -1 -1 -2q-2 -3 -3 -5.5t-3 -5.5l-1 -1q-1 -2 -2 -5.5t-3 -8.5zM1084 412q-1 0 -1 1q-5 -5 -10.5 -10t-11.5 -10q4 2 7.5 4t7.5 5q2 2 5 3.5t5 3.5q-5 0 -2 3zM731 524v-3l-4 -6t-4 -7
q1 0 1 -1q5 5 8 9.5t5 9.5zM594 295q1 1 1.5 2t1.5 2v1l-3 -3q-3 -8 -6.5 -16t-7.5 -16q2 2 2.5 3t1.5 2q2 5 4.5 10.5t5.5 11.5q-2 1 0 3zM713 469q-3 -6 -5.5 -12t-5.5 -11q0 -2 -0.5 -5t-0.5 -5q6 15 12 33zM341 -141q1 1 1.5 1t1.5 1q8 13 14 19q-2 -2 -4 -2.5t-4 -2.5
q-2 -4 -4.5 -7t-4.5 -6v-3zM983 83q2 7 4 13.5t4 14.5l-3 -9q0 -1 -1 -1q-2 -4 -3 -8t-3 -8zM445 -3q-1 -2 -1.5 -2.5t-1.5 -2.5q-5 -7 -8.5 -14.5t-8.5 -15.5q0 -2 -1 -3q4 6 7.5 12.5t8.5 14.5q3 3 5 11zM404 -38q-4 -4 -5 -8q-1 -2 -2 -4.5t-2 -5.5l6 9q2 4 3 6.5t3 6.5z
M995 132q1 6 1 12.5v11.5l-3 -9v-5l1 -1h1q0 -1 -1 -1q1 -2 1 -8zM1109 676q2 -4 5 -7.5t5 -6.5q0 1 0.5 1.5t0.5 2.5l-1 1l-9 9h-1zM1143 695l1 -1v-1h1l-1 -1h1v-2q1 0 1.5 0.5t1.5 0.5h3q0 2 2 2l-8 4zM582 313q-5 -5 -8 -10l-6 -10q2 2 4.5 5t5.5 6q1 2 2 4.5t2 4.5z
M709 503q1 0 1.5 -0.5t1.5 -0.5q3 4 6.5 8t5.5 9q-3 -1 -5 -3q4 0 1 -3l-5 -5t-6 -5zM695 511q-1 -2 -1.5 -5t-2.5 -5q1 0 1.5 0.5t1.5 0.5l3 3zM642 362q-2 -1 -3 -2t-3 -2q0 -2 -0.5 -2.5t-0.5 -1.5h1q5 5 6 7v1zM692 496q-2 0 -2 2q-2 -3 -2.5 -6t-1.5 -5zM209 -261
q2 1 4.5 1t5.5 1h-1q-2 0 -2 0.5t-1 0.5t-1 1q-1 -1 -2 -1.5t-3 -2.5zM1148 601q-1 0 -3 2l-1 -1q1 -2 1 -4t1 -4q0 1 2 7zM925 241l-8 2q2 -1 4.5 -2t4.5 -2q-1 1 -1 2zM535 235q1 2 1.5 4.5t2.5 4.5l-6 -9h2zM937 237q2 -3 4 -5t4 -5q-5 9 -8 10zM1077 426q-6 -6 -7 -8
q2 2 3 2.5t3 2.5q0 2 1 3zM1175 637v-4l2 -1v4h-1zM721 493q-1 -2 -2 -4.5t-2 -5.5l6 12zM914 -46q-2 -2 -2.5 -4t-2.5 -4q2 2 3 3.5t3 3.5zM1185 644q0 -3 1 -4q0 1 0.5 2t0.5 3q-1 -1 -2 -1zM951 182q0 1 2 3l-2 2v-5zM1129 596q0 -4 1 -5v5h-1zM1096 704q0 1 -0.5 1
t-0.5 1h-1q-1 1 -2 1l3 -3h1zM415 -67q-2 -2 -3 -5q2 3 5 5h-2zM613 309q2 3 3 5l2 4q-1 -1 -1 -1.5t-1 -1.5zM1178 673q-1 2 -2 2.5t-2 1.5q1 -1 1 -1.5t1 -1.5zM426 35q2 0 2 2v2zM530 229q0 1 1 1t2 1h-2zM744 527q0 -2 -1 -3l3 3h-2zM313 -198q-3 -1 -4 -4zM1185 653
l1 -1h1v1h-2zM320 -176q1 1 1.5 2t1.5 2l-1 -1q-2 -2 -2 -3zM286 -221l-2 -1h2v1zM900 -70q-1 0 -1 -2l2 2h-1zM610 347q-1 -1 -1 -2l1 1v1zM913 243q1 0 1 1h-1v-1zM283 -224l-2 -2zM384 -88v1l-1 -1h1z" />
    <glyph glyph-name="C" unicode="C" horiz-adv-x="551" 
d="M722 777q3 2 4 -0.5t-2 -4.5q-14 -5 -30 -12l1 -1q10 5 19.5 8t18.5 5q42 9 80 12.5t80 3.5q22 0 38 -2t32 -7v2q0 4 2 3.5t3 -2.5q0 -3 2 -5q8 -2 15.5 -4.5t17.5 -5.5q37 -11 48 -37.5t6 -57.5q1 -2 1 -7q-2 -9 -6 -16q-1 -2 -1 -5q40 -12 78 -31t75 -37
q20 -9 38.5 -18.5t37.5 -20.5q13 -6 30 -15t35 -19t35.5 -19t30.5 -16q115 -57 243.5 -77t260 -14t261 33t245.5 66q3 2 4 -0.5t-2 -4.5q-117 -40 -239 -66.5t-245 -33t-245.5 8.5t-241.5 58q-8 3 -23.5 10.5t-32 16t-31 16t-20.5 10.5q-72 38 -143.5 77.5t-149.5 65.5
q-2 0 -2.5 0.5t-1.5 0.5q-4 -11 -8 -20.5t-9 -18.5q-2 -8 -7 -15t-11 -14q-3 -4 -5.5 -7t-4.5 -6q-8 -9 -17 -16t-19 -9q-10 -4 -26 -7q-14 -5 -28.5 -8.5t-28.5 -1.5q-8 -2 -12 0q-22 6 -33 17t-13.5 25t3 29.5t16.5 30.5q7 9 16.5 14.5t19.5 10.5q31 14 61.5 17.5
t60.5 -1.5q9 35 1 69q-8 4 -14.5 9.5t-4.5 13.5q1 3 3 4q-6 5 -12.5 9.5t-9.5 11.5q-10 2 -14 3q-31 6 -58.5 6.5t-59.5 -1.5q-8 0 -21.5 -1.5t-27.5 -3.5t-27.5 -5t-22.5 -6q-102 -39 -186.5 -106t-156.5 -151q3 -3 -1 -3h-1q-63 -72 -115.5 -150t-98.5 -155
q-6 -9 -11.5 -18.5t-11.5 -19.5q-2 -5 -5.5 -11t-8.5 -14q-25 -42 -47 -87t-36 -90t-19.5 -92.5t-0.5 -91.5t21.5 -82t45.5 -64q7 -2 13 -4t13 -4q2 -1 2.5 -3t-2.5 -2q-5 1 -13 3q31 -23 75.5 -31t104.5 3q56 11 108 33t101 48q15 8 26.5 21t23 25.5t24 23.5t29.5 15
q3 0 3 -1.5t-2 -3.5q-15 -3 -26.5 -12t-21.5 -20t-19.5 -22.5t-20.5 -21.5q-29 -25 -71 -42t-78 -29q-26 -9 -42 -13.5t-29.5 -7t-30 -3.5t-43.5 -4q-17 -2 -35 -0.5t-34 9.5q-14 8 -28 14.5t-28 14.5q-17 9 -29 24q-19 13 -36 34v-1q-2 -5 -7 -3l-1 -1q0 2 -0.5 3t-0.5 3
l-1 1q-3 8 -6 14.5t-5 14.5q-17 31 -28 66.5t-19 68.5q-4 20 -2.5 40.5t6.5 41.5q-2 32 7.5 68t26.5 59q15 33 35 68t39 54q11 22 26.5 45.5t31.5 40.5q25 42 51.5 88t58.5 88q10 14 18 24t14 15h1l12 12t13 11q1 1 1.5 1t1.5 1q25 32 62.5 66t81.5 66q9 10 20 20t21.5 18.5
t19.5 14t13 6.5q5 2 5 -4q0 -1 -1 -1q9 5 18.5 11t18.5 11q11 8 22 14t20 9q4 2 7 4t7 4q4 3 7 6t7 6q5 0 6 -2q46 22 77 32zM969 590q11 11 19 26t13 31q-40 7 -79 -0.5t-72 -36.5q-19 -17 -18.5 -40t15.5 -39h3q16 -10 34.5 -2.5t37.5 21.5q8 2 14.5 7t12.5 13q6 6 8 10
v-1q2 2 3 2q3 5 8 8q0 1 1 1zM47 -39q1 3 1.5 6.5t2.5 7.5q-3 -3 -5 -4q-7 -31 -13 -62.5t-9 -63.5q2 -4 2.5 -10t1.5 -12q1 41 6 77.5t13 60.5zM-20 -185q3 -17 7.5 -33t11.5 -31q-4 19 -6 41q-3 0 -4 1q-2 5 -3 10t-2 13h-1q-1 -1 -3 -1zM341 521q8 5 14.5 10.5t14.5 11.5
l1 1q5 9 25.5 26t41.5 31q0 1 0.5 2t0.5 2q-28 -21 -53 -42.5t-45 -41.5zM59 -341q-4 7 -7.5 13.5t-5.5 14.5q-6 6 -9 8q-1 -4 -1 -11q5 -7 11 -13zM220 371q-5 -8 -9 -14l-8 -12q5 5 9.5 10t9.5 11q5 8 9 16t9 15q3 5 5.5 10t5.5 10q-8 -11 -15.5 -23t-15.5 -23zM490 654
q14 10 31 20q0 1 2 5q-5 0 -13.5 -7t-19.5 -18zM-20 -130q2 6 3 10q-2 0 -3 1q-1 2 -1 3.5t-1 3.5q-1 -4 -1 -14q0 -7 4 -17q2 4 3 7v2q-4 0 -4 4zM-23 -161q1 -5 1 -9.5t1 -9.5q1 8 1.5 15.5t2.5 15.5h-2q-2 0 -3 1q0 2 -2 4q0 -5 0.5 -8.5t0.5 -8.5zM1049 688h1q0 7 -2 17
q-3 -3 -5 1q0 1 -2 3q2 -8 2 -12q3 3 6 0v-9zM176 300q-5 -7 -8.5 -13.5t-7.5 -13.5h1q1 2 2 2.5t2 2.5q2 3 4 6.5t4 7.5q1 2 3 8zM85 59q2 5 5 9.5t5 9.5q-2 -1 -2.5 -1.5t-2.5 -1.5q-5 -14 -10 -21l2 2zM1036 735q-3 2 -7 6v-2q0 -2 1 -3q2 0 3 -1q5 -5 6 -8h2q-1 2 -5 8z
M341 487q-4 -5 -7.5 -8.5l-8.5 -8.5l6 3q2 2 2.5 3.5t2.5 3.5q4 4 5 7zM75 113q2 1 4 3q0 1 0.5 1t0.5 1t1 2q0 2 0.5 3t0.5 3l-1 -1zM453 613l5.5 5.5t8.5 6.5q-8 -4 -10 -6t-2.5 -3zM597 710q-5 -3 -11 -7l1 -1q1 1 2 1.5t2 1.5v1l2 1q1 1 2 1.5t2 1.5zM1043 720l1 -2
l2 -2q-1 2 -1.5 4t-1.5 4v-4zM999 750l-4 4q-1 0 -1 1q-1 0 -1.5 0.5t-1.5 0.5q2 -2 3.5 -3t3.5 -3h1zM165 205q-2 -3 -4 -9q2 3 4 7t4 7q-2 -2 -2.5 -3t-1.5 -2zM24 -285q-1 -1 -1 -4q0 -1 1 -2v6zM322 496q-3 -2 -8 -7q2 1 2.5 2t2.5 2zM997 741q0 1 -1 1q-1 1 -3 1
q1 -1 1.5 -1t1.5 -1h1zM422 553q0 -1 -0.5 -1t-0.5 -1l3 3q-1 0 -2 -1zM38 -290q0 2 -0.5 3t-0.5 2v-3zM204 326l2 2v2zM361 520l1 2l-2 -2h1zM132 151q-2 -2 -2 -3q1 1 1 1.5t1 1.5zM908 519q-1 0 -1.5 -0.5t-1.5 -0.5h1q1 0 2 1zM98 91q-1 -1 -1 -2q0 1 0.5 1t0.5 1z" />
    <glyph glyph-name="D" unicode="D" horiz-adv-x="1147" 
d="M965 803q0 -5 -5 -3v1q-4 -2 -4.5 -2.5l-2.5 -2.5q10 -1 22 -2t26 -3q15 -1 28 -1t18 -1q14 -2 24.5 -6t19.5 -9q31 -7 53 -20q20 -4 43 -10.5t34 -22.5q28 -41 32.5 -91t-4.5 -101.5t-27.5 -101t-37.5 -89.5q2 -2 2 -4q-11 -20 -25 -48.5t-31 -59.5q-14 -28 -29 -55.5
t-31 -54.5v-3q-5 -8 -12 -18q-16 -26 -32.5 -52t-35.5 -52q-12 -19 -30 -40q-8 -12 -16.5 -23t-17.5 -19q-8 -9 -15.5 -18t-15.5 -18q1 -1 1 -3q-7 -11 -22 -27.5t-33 -32.5l-12 -18q-17 -21 -34 -33q-1 -4 -10 -11q-2 -1 -4.5 -2t-4.5 -2q-1 -1 -1.5 -2t-1.5 -2
q-42 -36 -81.5 -68.5t-85.5 -55.5q-6 -9 -16.5 -12.5t-21.5 -2.5q-14 -5 -29 -8.5t-32 -5.5q-2 0 -2.5 2t1.5 3l30 6q-3 2 1 6q1 2 8 9q-22 -12 -45 -22t-47 -18q-12 -4 -28.5 -8t-34.5 -7.5t-35 -5.5t-29 -2q-29 1 -63 2.5t-61 13.5q-26 12 -46 21.5t-37.5 22t-33.5 30.5
t-34 47q-23 38 -24 78.5t13 81t40.5 79t57.5 72t64.5 60t62.5 43.5q31 19 63 36.5t67 22.5q28 5 55.5 8.5t54.5 8.5q13 24 30 38q4 7 9 14.5t11 17.5q5 8 10.5 16.5t12.5 16.5q3 4 10 18q7 15 16 33t18 34.5t18.5 30t18.5 21.5q2 4 3.5 7.5t3.5 7.5l2 2q12 27 24 50.5
t22 36.5v1q2 2 9 8h3v-1q2 0 2 -2q4 2 7.5 4t8.5 3q2 0 3.5 0.5t3.5 0.5q14 8 25.5 7.5t7.5 -10.5q1 -2 2 -3.5t2 -3.5q4 0 7.5 -0.5t6.5 -0.5q7 -2 2 -7q-4 -7 -9.5 -10.5t-12.5 -5.5q-6 -11 -14.5 -22t-17 -20.5t-15 -16.5t-8.5 -10q-8 -11 -19.5 -30t-23.5 -39t-22.5 -38
t-16.5 -28q-12 -19 -21 -34.5t-17 -29t-15 -26.5t-15 -27q29 -5 55.5 -19t47 -34.5t33.5 -46.5t15 -55q0 -2 -2.5 -2.5t-2.5 1.5q-5 65 -48 99.5t-105 44.5q-7 -11 -14 -24t-15 -27q-9 -15 -17.5 -30t-16.5 -30q-6 -12 -12.5 -24.5t-14.5 -24.5q-26 -49 -50 -100.5
t-59 -96.5q0 -1 -0.5 -2t-0.5 -2q-2 -2 -3 -2q-5 -6 -10.5 -12t-10.5 -11q-4 -5 -7 -8l-6 -6h-2q-10 -10 -22 -19q-11 -9 -21.5 -16t-18.5 -11q-1 0 -1.5 0.5t-1.5 0.5q-5 -4 -16 -7q0 -1 -0.5 -1t-0.5 -1h-2h-1q-5 -1 -10.5 -1h-11.5q-1 0 -1 0.5t-1 0.5q-2 5 -3.5 8.5
t-2.5 5.5q0 6 5 3q2 -3 2.5 -6t2.5 -7q11 0 22 3q24 24 50.5 64.5t52 86.5t48.5 91.5t40 79.5q4 10 8 15q3 6 6 11t5 10q13 24 21.5 40t15.5 28q1 5 2.5 11t5.5 14q-54 -3 -107 -18q-47 -14 -94 -38.5t-89 -56.5t-77.5 -71.5t-59.5 -82.5q-30 -53 -35 -104t12.5 -95t56 -78
t96.5 -54q42 -14 88.5 -15.5t93.5 6.5t92.5 25t85.5 40h-1q-2 0 -3.5 2t1.5 4q9 6 18.5 11t19.5 10q-2 2 1 4q11 10 24 18t26 15q5 5 10.5 10t10.5 10q11 17 22.5 34.5t23.5 34.5q0 1 1 1q3 3 5.5 1t2.5 -6q-1 -6 -11 -21q24 26 46.5 53t44.5 55q5 8 10 14t10 11
q40 52 78 105q3 4 6 7.5t5 7.5q8 16 18.5 34t21.5 34.5t21 30t16 21.5q4 5 11.5 18.5t17.5 20.5l4 6t4 7q1 1 2 3t3 5q21 35 40 70.5t38 72.5q12 26 26.5 58.5t26.5 67.5q5 21 10 42.5t13 36.5q5 24 8 47.5t1 44.5q-1 4 -1.5 8t-1.5 8q-2 12 -7 23.5t-11 23.5q-2 2 -2.5 5
t-2.5 5q-3 6 -6.5 12t-5.5 12q-5 11 -21.5 19.5t-39 15.5t-48 12t-49 8t-42.5 4.5t-28 1.5q-177 9 -324.5 -49.5t-265.5 -191.5q-19 -22 -40 -59.5t-36.5 -80t-22.5 -83.5t2 -71q4 -14 23.5 -25t43.5 -17t47 -6.5t35 7.5q4 3 13.5 6.5t18.5 8t15 8.5t4 9h-1q-5 5 1 5
q11 -3 7.5 -8.5t-13 -11t-20 -10t-14.5 -7.5t-5 -4l-2 -2t-3 -1.5t-7 -2.5q-8 -4 -28.5 -3t-43 6t-42.5 13t-26 18q-18 28 -13.5 72.5t21 91t39 87.5t42.5 64q55 63 123 112.5t145.5 82.5t160.5 46.5t168 4.5q2 -1 13 -1q7 9 12 10h3q1 0 1 -1q0 -2 1 -3zM259 -276q3 1 7 3
l1 1q8 14 19 26.5t24 23.5v3q8 23 25 44q2 7 6 13l-2 2q-17 -31 -36 -60.5t-44 -55.5zM627 -356q-5 -4 -9 -8l-8 -8q22 12 42.5 26.5t40.5 30.5h-1q-1 1 -3 1q1 1 1.5 2t1.5 2q-3 -2 -5.5 -4t-4.5 -4q-9 -8 -18.5 -15.5t-19.5 -15.5q-4 0 -5 1q-2 -2 -3 -2t-2 -2l-2 -2
q0 -1 -1 -1t-1.5 -0.5t-1.5 -0.5h-1zM792 -233q2 8 3 11q-6 -2 -7 -2q-6 -6 -11.5 -12t-10.5 -12q-2 -2 -4 -4.5t-4 -4.5q2 1 3.5 1.5t3.5 1.5q2 2 3 2q6 5 12 9.5t12 9.5zM359 -122q-2 -2 -2.5 -4t-2.5 -4q2 1 2.5 2t2.5 3q7 15 16 30t18 29q10 25 24 48q0 3 2 5v2
q-15 -28 -30.5 -55.5t-29.5 -55.5zM277 -267q6 4 11.5 8t10.5 8q5 5 10.5 11t10.5 11l-1 1q-3 0 -3 2q-5 -8 -11 -15t-14 -13q-1 0 -1 -2q0 1 -1 1q-1 -1 -3 1q-2 -3 -4.5 -6.5t-4.5 -6.5zM805 -160q6 6 11.5 12.5t11.5 12.5q0 1 2 3q-1 0 -1 1q-1 2 1 6t4 9
q-8 -9 -15.5 -21t-13.5 -23zM1019 147q-23 -35 -45.5 -69.5t-46.5 -69.5q-1 -2 -1 -3t-1 -1q22 31 42.5 63t43.5 63q2 5 4 8.5t4 8.5zM1210 673q1 3 4 6l1 1q0 -1 2 7v1q-2 2 -4 3.5t-4 3.5h-3q3 -8 3 -14l-2 -2zM1219 710q-2 6 -9 11q-2 1 -2.5 1.5t-2.5 1.5q2 -4 4 -7.5
t4 -7.5q4 0 5 -1q0 1 0.5 1t0.5 1zM356 -193q1 3 5 7q-4 -3 -8 -6.5t-8 -6.5q0 -1 -0.5 -2t-0.5 -2q-1 -2 -1.5 -4t-1.5 -4zM1038 171q2 3 8 9q2 4 3 7q-3 0 -3 2l-9 -15q1 -1 1 -3zM718 517q-2 -4 -5 -8t-6 -9q3 3 6.5 6t7.5 6q-1 1 -0.5 3t1.5 3h1v1q-6 -2 -5 -2z
M366 -167l-1 1q-2 -2 -3.5 -5t-3.5 -5q0 -1 -1 -2l-1 -1v-2q2 2 4.5 4t6.5 5v4zM801 -225q5 5 10 9.5t10 9.5q-5 -3 -9 -6.5t-9 -5.5q-1 -2 -1 -3.5t-1 -3.5zM692 469q4 5 7 10.5t8 10.5h-2q-1 0 -1 1l-6 -10t-6 -12zM624 -328l-10.5 -7t-7.5 -7q2 1 3.5 2t3.5 2l1 1
q1 1 2.5 2t3.5 3zM345 -155q3 6 6 15q-3 -4 -5.5 -8t-1.5 -8zM560 241l2 -2q2 4 4.5 7.5t4.5 6.5q-1 0 -1 1q-2 -3 -4 -5.5t-4 -5.5zM484 111q-5 -9 -9.5 -18t-9.5 -17h1q4 7 7.5 14t8.5 15zM1173 337q2 3 3.5 7t3.5 9q-2 -4 -4 -7t-4 -5l-3 -6q1 0 1.5 0.5t1.5 0.5t1 1z
M585 230q1 4 2 5h-2q-2 -4 -3 -7t-2 -5q1 3 5 7zM1203 689q0 3 -4 10l-1 1q0 -5 1 -6zM1123 308q-4 -5 -6.5 -10t-5.5 -10q4 4 5 7q2 3 3.5 6zM1164 739q0 1 2 3q-3 1 -5 2l-4 2zM1224 700q-1 -2 -1 -3t-1 -1l1 -1q1 2 1.5 2t1.5 1q-1 0 -1 1t-0.5 1t-0.5 2v-2zM458 64
q-1 -2 -1 -3t-1 -1l7 9v1q-2 -2 -2.5 -3t-2.5 -3zM578 -369q-1 -1 -2 -1.5t-2 -1.5q1 0 2 0.5t3 0.5l1 1v1h-2zM1230 486q1 5 2 9t2 9l-1 -1q-1 -5 -2 -9.5t-3 -9.5zM1240 559q2 2 4 2v1q-3 -1 -4 0q-1 -1 -1 -3h1zM1158 338q1 0 1 0.5t1 0.5q1 2 1 2.5t1 2.5l-1 1zM727 496
q0 -1 -1 -1h1l8 8q-2 -1 -8 -7zM1177 738q-1 0 -1.5 0.5t-1.5 0.5q1 -2 2 -3t2 -3l-1 3v2zM777 515v-1h5v1h-5zM788 516q0 -1 -0.5 -1t-0.5 -1q2 0 4 2h-3zM728 519q6 2 7 2v1l-7 -2v-1zM905 -22q-2 -2 -3 -4t-3 -4q2 2 2.5 3t2.5 2q0 1 0.5 1.5t0.5 1.5zM751 504
q-1 -1 -1 -1.5t-1 -1.5q1 1 1.5 1t1.5 1zM739 -233q0 1 0.5 1.5t0.5 1.5q-2 -2 -2 -4zM518 172q0 -1 -0.5 -1.5t-0.5 -1.5q1 1 1 1.5t1 1.5h-1zM523 181q-1 -1 -1 -2h1v2zM343 -212q1 1 0 1t-2 -2q0 1 2 1zM1223 704q0 -1 1 -1zM1032 75q-1 -1 -1 -2zM1227 480l-1 -1z
M1238 557l1 2q-1 -1 -1 -2zM696 -275l1 1z" />
    <glyph glyph-name="E" unicode="E" horiz-adv-x="691" 
d="M378 430q0 1 0.5 2t0.5 2l2 6q2 5 4 9t4 9v1q1 5 5 12t10 15q14 26 34 51t46 53q24 26 40.5 42.5t31 27.5t30.5 18t40 15l4 2t5 2q3 2 5 0q3 1 6.5 1.5t8.5 2.5q17 5 35.5 10.5t37.5 6.5q7 2 14.5 3t14.5 -1q36 9 69.5 5.5t58.5 -33.5q16 -20 18.5 -45.5t-2.5 -50.5
q14 -1 28.5 -2t29.5 -2q6 0 27 -1.5t49.5 -4t60.5 -5.5t60 -5.5t48.5 -4t26.5 -1.5q64 -3 130.5 -2t131.5 11t126.5 32.5t115.5 62.5q28 20 51 46t47 50q2 1 3.5 -0.5t-0.5 -3.5q-24 -25 -48.5 -49t-49.5 -49q-23 -23 -53.5 -36.5t-60.5 -26.5q-63 -25 -129 -35
t-133.5 -11.5t-135 3t-133.5 9.5q-46 4 -95 10.5t-98 8.5q-2 -5 -2.5 -9t-2.5 -9q-11 -37 -26 -59t-35 -37q-5 -11 -17.5 -19t-20.5 -14q-29 -24 -62 -37t-71 -13q-7 1 -15 6t-12 11q-23 43 -15.5 72t47.5 58q36 28 79 41q37 13 73 15t73 0q5 23 2 47t-17 43
q-22 28 -51.5 31t-61.5 -5l-2 -2q-5 -2 -9.5 -2.5t-9.5 -1.5q0 -1 -2 -3q-3 -1 -6.5 -1t-7.5 -2l-2 -2q-2 0 -3 -0.5t-3 -0.5t-3 -1q-5 -2 -8.5 -3.5t-7.5 -3.5q4 -2 -1 -4q-2 -1 -7 1q-5 -2 -9 -3t-8 -3q-14 -5 -28.5 -10t-28.5 -10q-1 -1 -1.5 -2t-2.5 -2q-14 -16 -34 -33
t-40 -22q-43 -48 -77.5 -106.5t-45.5 -121.5q-5 -30 -1 -50.5t14 -48.5q4 -11 6 -21.5t9 -19.5q7 -13 25 -16q3 2 6 2.5t5 2.5q4 2 5 3h-1q-3 0 -2.5 2.5t2.5 2.5q4 0 5 -1q2 0 2 -3q-2 -5 -11 -9q4 1 6.5 2t4.5 2t3.5 -0.5t-0.5 -3.5q-1 0 -1 -1q12 2 23 7t19 10
q2 1 3.5 -0.5t-0.5 -3.5q-37 -27 -66 -19h-4q-5 -4 -16 -7q-2 -2 -3 -2q-18 -8 -39.5 -16t-42 -15.5t-36 -13.5t-21.5 -9q-38 -19 -75 -41.5t-71 -49.5q-11 -11 -23.5 -21.5t-24.5 -20.5q-23 -22 -43.5 -46.5t-37.5 -50.5q-4 -7 -7.5 -13.5t-8.5 -12.5q-5 -14 -11 -29
t-13 -30q-6 -19 -11.5 -43.5t-7.5 -48t1.5 -42.5t15.5 -27q36 -22 60.5 -37.5t48 -23.5t52 -8.5t72.5 7.5q28 5 61 18.5t68 33.5t70.5 45.5t67.5 54.5q6 9 13 13q8 8 15 14.5t14 14.5q2 8 6 16t7 13q11 16 22.5 28.5t20.5 29.5q22 42 29.5 89t-4.5 93q-1 1 -1 7
q-9 14 -22 26t-24 25l-6 3q-1 1 -2 2.5t1 2.5l-1 2q0 6 5 3q6 -8 7 -9q8 -3 15.5 -5.5t14.5 -7.5q11 -8 17 -22.5t8 -33.5q1 -5 2 -5q8 -32 3.5 -67.5t-18 -71.5t-34 -70.5t-44.5 -62.5q-2 -3 -9 -10q-11 -13 -23.5 -24t-24.5 -20q-29 -21 -59 -42l-60 -42
q-29 -21 -67.5 -35t-80.5 -19.5t-84 -1t-78 21.5q-11 4 -20.5 10t-19.5 13q-2 2 -3.5 3t-3.5 3t-3 2q-10 8 -21 14t-19 17q-5 7 -7 14t-4 15h-1q-4 9 -4 21q-2 5 -3 8.5t-2 7.5q-6 13 -9 27q-4 24 1 49.5t14 51.5q0 1 -0.5 1.5t-0.5 2.5l4 10l4 10q5 29 24 50q10 23 35 50.5
t58.5 55.5t72.5 54.5t77 48.5t72 37t58 20q14 2 25.5 4.5t24.5 4.5h2q-9 4 -17 18q-15 11 -24.5 24.5t-7.5 29.5q1 15 2 29t3 27q0 5 0.5 8.5t1.5 7.5q3 16 6.5 31t8.5 29q0 2 1 3v2zM832 485q0 5 3 2q17 15 30 36t23 53q1 4 2 7.5t2 7.5q-37 1 -72.5 -3t-69.5 -15
q-17 -6 -39 -16.5t-37 -21.5q-17 -14 -32 -29q-10 -12 -15 -27.5t-2 -31.5q7 -29 25.5 -39t41.5 -8q-3 2 0 5q9 8 20.5 14t22.5 11q29 14 53 25.5t44 28.5v1zM737 424q-10 -5 -22 -10t-20 -13q16 2 33 8t32.5 14.5t29.5 18.5t24 19q-17 -10 -35.5 -18t-41.5 -19zM-16 -332
q-8 11 -12 26t-5 31q0 -1 -0.5 -1t-0.5 -2h-1q1 -2 0.5 -3.5t-0.5 -3.5v-1q4 0 1 -3q5 -9 0 -17q0 -1 -3 -1q2 -7 5 -11l7.5 -7.5t8.5 -6.5zM622 -59q16 41 11 84q-1 -23 -4 -45t-7 -39zM584 125l15.5 -15.5t14.5 -15.5q-3 13 -13 22q-8 6 -17 9zM258 126q8 5 15.5 9t15.5 9
q-4 0 -5 1q-2 -1 -5 -1.5t-5 -1.5q-2 -2 -3 -2q-3 -1 -5 -3q-3 -4 -10 -10q2 0 2 -1zM556 -174q21 25 33 46q-8 -11 -16.5 -21.5t-16.5 -24.5zM366 275q3 -11 14 -22q0 1 -0.5 1t-0.5 1q-2 2 -3 5q-9 9 -8 18l-1 1q0 1 -0.5 1t-0.5 1q-1 1 -3 8q1 -5 1.5 -8t1.5 -6zM14 -29
q-4 0 -4 3q-1 -1 -1.5 -2t-1.5 -2q2 -2 2 -5q2 0 3 0.5t3 0.5l2 2h-1q-2 2 -2 3zM27 -81q2 2 2.5 5t2.5 5q-3 0 -3 3q-1 -2 -2 -3t-2 -3q1 -1 1 -1.5t1 -1.5v-4zM185 78q10 7 24 18q-4 -3 -10 -5q-3 -2 -5.5 -4t-4.5 -4q-1 -2 -2 -2.5t-2 -2.5zM685 703q-4 -1 -7.5 -1
t-6.5 -2q1 0 1.5 -0.5t1.5 -0.5q2 0 3.5 -0.5t3.5 -0.5q0 1 1 2zM8 -102q2 5 4.5 10.5t5.5 10.5q-1 0 -2 -1q-1 -2 -2.5 -4.5t-3.5 -6.5q-1 -2 -2 -5.5t-2 -6.5q0 1 2 3zM-59 -227q1 -3 1.5 -6.5t1.5 -6.5v16q-1 1 -2 1l-1 -1v-3zM-28 -209q-1 0 -1 0.5t-1 0.5q-1 -3 -1 -7
v-8q1 4 1.5 8t1.5 6zM387 421q-1 1 -1 1.5t-1 1.5q-1 -4 -1.5 -6.5t-0.5 -5.5q1 6 4 9zM633 680q0 -1 -2 -3l1 -1l2 1l3 3h-4zM372 383q-1 -2 -1 -4t-1 -4l2 -2v10zM429 251q-5 6 -6 12v-4q1 -1 1.5 -2t1.5 -2t1.5 -2t1.5 -2zM566 624q-5 -2 -6 -3l-3 -3zM171 114
q-2 -2 -5 -3.5t-5 -3.5l9 5q0 1 0.5 1t0.5 1zM78 -17q1 2 1.5 2.5t1.5 2.5q-3 -3 -3 -5zM402 287q0 -1 1 -1v3q0 -1 -1 -2zM58 -20q-1 -1 -1.5 -1t-1.5 -1h1zM552 648l1 2l-2 -2h1zM415 221v1l-1 -1h1zM221 103q-1 0 -2 -1q1 0 1 0.5t1 0.5zM424 203h-1v-1zM454 219
q0 -1 -1 -1h1v1z" />
    <glyph glyph-name="F" unicode="F" horiz-adv-x="764" 
d="M566 118q-2 -4 -5 -1q-35 -34 -63.5 -73.5t-54.5 -81.5q-9 -23 -22.5 -47t-30.5 -43q-35 -57 -73 -109q-15 -37 -44 -73q-4 -8 -8.5 -15t-10.5 -12q-4 -7 -8 -13.5t-9 -14.5q-1 -2 -1 -6v-1h-1q-2 -2 -4 -2q-2 -3 -4.5 -6.5t-4.5 -7.5q-3 -5 -6 -10.5t-5 -12.5
q2 -2 -1 -5l-2 -1q-4 0 -4 3v1q-17 -23 -35.5 -41.5t-38.5 -32.5q-39 -25 -74.5 -39t-76.5 -33q-20 -9 -43 -20t-48 -18t-49.5 -8t-47.5 9q-30 13 -42 41t-12 61.5t8 66.5t19 55q13 27 44.5 57t69 58t75 50.5t61.5 35.5q7 3 22 10.5t34.5 15.5t41 14.5t41.5 9t36 -1
t24 -15.5t10.5 -26.5t7.5 -28.5q2 -3 -1.5 -3.5t-3.5 1.5q-4 14 -8 26.5t-9 26.5q-11 4 -22 9.5t-23 5.5q-28 0 -63.5 -12t-74 -31.5t-77 -45.5t-72.5 -53.5t-61.5 -54.5t-43.5 -50q-12 -17 -19 -45t-7 -57.5t7 -56.5t23 -43q16 -17 42.5 -18t47.5 3q15 3 43.5 13.5t61.5 24
t66 28.5t57 28q-2 -1 -3 0.5t1 3.5q36 27 63.5 57.5t49.5 64.5t39 70t34 74q14 31 27 61.5t30 61.5q35 66 80 126.5t90 119.5q12 16 22 32.5t25 28.5q3 2 8 5.5t11 7.5q6 5 12.5 8t14.5 6q8 4 12 5v1h1q10 4 19.5 7t18.5 5q-2 2 -4 8q-5 5 -9 10.5t-7 11.5v1q-4 1 -7 6
q-5 8 -7 26t-2.5 37t0 34.5t1.5 18.5q2 10 7 19.5t10.5 18.5t10.5 18.5t6 19.5q3 22 24 55.5t55.5 70.5t80 73.5t97 65.5t107 46t109.5 15q14 0 32.5 -2t38 -6t37 -11t28.5 -18q10 -10 12.5 -25t0.5 -31t-6.5 -31.5t-8.5 -25.5q-6 -14 -12.5 -29t-14.5 -29l24 -12t23 -11
q24 -10 48.5 -16.5t49.5 -13.5q41 -10 81 -19t80 -20q37 -10 74.5 -21.5t75.5 -20.5t76.5 -13.5t77.5 -0.5q54 6 104.5 24t97.5 44t91.5 57.5t85.5 63.5q2 1 3.5 -0.5t-0.5 -3.5q-61 -48 -125 -91t-138 -72q-65 -25 -121 -28.5t-110 5t-109.5 25t-118.5 32.5
q-45 11 -89.5 20.5t-88.5 23.5q-24 7 -48 19t-48 23q-33 -57 -83.5 -105t-110.5 -71q2 -2 -1 -4q-5 -1 -10.5 -2t-10.5 -1q-4 -2 -6 -2t-2 1q-17 -1 -34.5 1t-31 8.5t-21.5 19.5t-6 33q0 6 3 14.5t7.5 17t9 16t7.5 11.5q38 42 88 65t105 31q24 4 47.5 -4t46.5 -19
q16 28 27 59q13 34 15.5 54.5t-4 33t-23 20t-41.5 15.5q-10 3 -18 5t-16 3.5t-18 2t-23 0.5q-74 -2 -141 -38t-123 -91t-99 -120.5t-68 -125.5t-29.5 -105.5t15.5 -61.5q1 -1 0.5 -1t0.5 -1l4 2q5 1 6 -1.5t-1 -4.5h1q1 -1 1.5 -1t1.5 -1q6 -2 12 -2q2 -1 2.5 -3t-2.5 -2
q-5 0 -7 1v-2q4 -2 7 -2q11 -2 22 -4.5t16 5.5h1q0 1 2 3q5 3 5 -2q-8 -12 -18 -13.5t-21 3.5q-8 1 -15.5 1.5t-12.5 -1.5l-6 -3q-12 -11 -30 -18q-13 -9 -26 -18.5t-24 -16.5q-5 -3 -15.5 -18t-21.5 -29q2 1 6 5q4 0 4 -3t-1 -5zM1009 412q32 10 62 28t57 42t49.5 52.5
t39.5 58.5q-21 9 -43 15.5t-45 4.5q-24 -1 -51 -8t-52.5 -19t-48 -28t-37.5 -36q-27 -35 -29 -57.5t11.5 -35t37.5 -16t49 -1.5zM126 -478q21 18 40 37q-1 1 -1 3v5q-16 -17 -33 -33t-37 -30q23 12 31 18zM233 -339q-9 -15 -18 -29.5t-20 -28.5q2 2 4.5 3.5t4.5 3.5t2.5 4
t2.5 4q2 4 4.5 7.5t4.5 6.5q-2 1 0 3q6 10 14 20q2 4 3 5q-1 0 -2 1zM427 25q5 5 9 9.5t9 9.5q2 3 4 7l4 8zM349 -170q-3 -5 -6 -9.5t-5 -9.5q0 -1 -0.5 -1t-0.5 -1q5 8 10 15l10 14zM237 -328q1 1 2 1t3 1q2 6 5 12t5 12zM652 243q-6 -1 -12 -1.5t-11 -2.5h14q2 0 3 0.5
t2 0.5l1 1q1 1 3 0v2zM640 341q0 5 0.5 9t0.5 8q-1 -2 -1.5 -4t-1.5 -4q0 -3 2 -9zM267 -274q-2 -4 -2.5 -7.5t-2.5 -6.5q1 0 1 0.5t1 0.5q1 2 2 4.5t2 4.5q0 1 -0.5 1.5t-0.5 2.5zM428 -46q2 3 4 6.5t4 6.5v1l-10 -14t-10 -15zM593 205q-8 -5 -14 -12l15 12l1 1
q-1 0 -1 -0.5t-1 -0.5zM615 339q0 -5 2 -15v11q-1 1 -1 2t-1 2zM525 158q-5 -6 -9 -12t-8 -11l4 4q3 5 6.5 9.5t6.5 9.5zM479 31q-2 -2 -3.5 -4t-3.5 -4q-3 -5 -5.5 -8.5t-5.5 -7.5h1l8 12t9 12zM673 251l-4 4l-4 4q1 -1 1 -3q2 -2 3.5 -2.5t3.5 -2.5zM633 428l1 1
q2 5 4 9.5t4 9.5v1zM300 -248q1 2 1 3t1 3q-2 -2 -2.5 -4t-2.5 -4q0 -1 -0.5 -1t-0.5 -1q1 1 1.5 2t2.5 2zM530 147q2 2 2.5 5t2.5 5l-6 -9zM280 -243q-2 -6 -4 -9q1 2 2 4.5t2 4.5zM635 424q-2 0 -2 2q-1 -1 -1 -2h3zM669 431q1 1 1.5 2t1.5 2v1q-1 -2 -2 -3t-1 -2z
M637 423l1 -2v2h-1zM325 -146l-1 -1q0 1 1 1zM393 -57q1 1 1 2q0 -1 -0.5 -1t-0.5 -1z" />
    <glyph glyph-name="G" unicode="G" horiz-adv-x="895" 
d="M604 478q-2 -2 -3 -4t-3 -4q-8 -13 -18 -23l-2 -2q-12 -20 -24 -36q-8 -17 -16.5 -33t-16.5 -29q-4 -6 -9.5 -18t-13.5 -23q-11 -26 -20.5 -53t-14.5 -55q3 -14 3 -29.5v-29.5q4 -16 6.5 -31.5t3.5 -32.5q3 -3 7 -13q3 -6 7 -11.5t8 -10.5q11 -6 23 -11.5t24 -10.5
q12 -6 32.5 -1.5t45 16t51.5 27t52 31.5q16 29 30 54t28 47t29.5 41t35.5 36q2 2 3 3.5t3 3.5t2.5 3.5t2.5 3.5q1 0 1.5 0.5t1.5 0.5q24 24 50 29h1q15 8 32.5 16t37.5 16t34.5 16t34.5 13q6 0 1 -5q-5 -2 -8 -2.5t-5 -1.5q2 1 2.5 -1t-1.5 -4q-18 -6 -33.5 -15.5
t-31.5 -20.5q-2 -5 -11 -8l-2 -2q-30 -23 -52 -43q-5 -5 -8.5 -9t-8.5 -8q-5 -5 -9.5 -10.5t-9.5 -10.5q0 -4 -3 -5l-3 -3q-18 -23 -30.5 -46.5t-25 -50t-27 -57.5t-36.5 -68q-61 -106 -132 -206.5t-152 -191.5l-8 -8q-1 -1 -2 -1.5t-2 -1.5l-2 -2q-2 -2 -2 -4q0 1 -1 1
q-2 -3 -12 -13q-14 -20 -38 -31t-48 -21q-8 -6 -17 -14.5t-19 -16t-20.5 -13.5t-21.5 -7q-1 0 -1 0.5t-1 0.5q-18 -17 -36 -35t-42 -29q-8 -4 -19.5 -7.5t-23.5 -6.5t-22.5 -5t-16.5 -3q-29 -6 -77.5 -13.5t-101 -9t-100 6.5t-74.5 32q-11 11 -23 22.5t-24 22.5
q-14 14 -22 32.5t-10 37.5q-9 72 5.5 127.5t47 99.5t80.5 80t107 70q31 18 50.5 27.5t37 12.5t38 -1t53.5 -13q20 -6 40 -10.5t37 -18.5q0 -1 -1 -3t-3 0q-9 7 -31.5 15.5t-48 15.5t-49 11t-33.5 2q-25 -5 -45.5 -18.5t-41.5 -26.5q-47 -28 -96 -65t-86 -83t-53.5 -101
t2.5 -119q18 -60 55.5 -92t86 -44.5t103 -11t105.5 9.5q36 5 77 12.5t74 21.5q24 11 42.5 29.5t37.5 35.5q0 -1 2 5l-6 -3q-7 0 -2 5q11 5 20 9t18 9q7 5 15 8.5t17 7.5q8 5 14.5 9t13.5 9q15 14 28 25.5t21 19.5q23 29 43.5 67t55.5 96q26 43 52.5 84.5t53.5 83.5
q5 11 13 22.5t17 23.5q11 17 21.5 33.5t21.5 33.5q8 13 14.5 24.5t13.5 22.5q-23 -15 -47.5 -28.5t-48 -23t-44.5 -13.5t-37 0q-9 2 -17.5 5.5t-16.5 8.5q2 -2 2.5 -3.5t2.5 -3.5q0 -5 -5 -3q-3 5 -5.5 8.5t-5.5 8.5q-8 5 -15.5 11.5t-15.5 11.5h-3q-3 1 -8 6q-1 1 -2 1.5
t-2 1.5q-9 6 -15 15.5t-10 19.5t-7.5 21t-8.5 20q-5 10 -5.5 21.5t1 23.5t3.5 24t2 23q1 26 12.5 50.5t22.5 47.5l100 165q12 19 31.5 40.5t42 42.5t45 40t39.5 33q10 9 35.5 23t54 28t54.5 25t39 13q7 1 13.5 1.5t14.5 0.5q6 1 12 1.5t13 1.5q5 2 10.5 2.5t10.5 1.5
q1 0 2 -1l12 3h11q20 3 38.5 2.5t36.5 -9.5q0 1 0.5 1t0.5 1q2 0 4 -2q17 2 32.5 -0.5t38.5 -13.5q18 -9 35 -21.5t30 -29.5v-3q4 -8 5.5 -19t1.5 -21.5t-1 -18.5t-1 -10q-2 -9 -6 -16q40 -19 78.5 -38.5t80.5 -36.5q14 -6 35.5 -10.5t43 -8t39 -5.5t23.5 -3
q93 -10 183 -1.5t177.5 31t172 56t166.5 73.5q3 2 4 -0.5t-2 -4.5q-104 -53 -200 -89.5t-192 -55.5t-197.5 -19.5t-216.5 18.5q-21 3 -45 12t-49 21t-51.5 25.5t-53.5 26.5q-3 -7 -7 -13t-7 -13q-10 -20 -27.5 -35t-38 -26.5t-42.5 -20t-40 -14.5q-12 -4 -25 -1t-27 4
q-16 1 -30.5 13t-24 29t-13 35.5t2.5 33.5q14 32 44 46t65 16t70 -5t59 -18l39 -18q6 17 7.5 35t-3.5 35q-17 23 -41 40t-51 25q-15 5 -26 5.5t-20 -1t-17.5 -3t-20.5 -0.5q-18 -2 -38.5 -4.5t-37.5 -0.5q-11 -2 -20.5 -4.5t-19.5 -6.5q-19 -8 -30.5 -15.5t-21.5 -15
l-22 -16.5t-33 -21q-12 -6 -21 -11t-17 -10t-17.5 -12t-22.5 -17q-15 -11 -29 -25l-1 -1q-14 -16 -32 -36t-37 -40zM983 472q28 -10 59.5 -4t60 23t52 42t35.5 53q-35 16 -69 28.5t-66.5 15.5t-62.5 -5.5t-55 -35.5q-14 -14 -14.5 -32t7.5 -35t22.5 -30.5t30.5 -19.5z
M302 -502q-11 -7 -24 -20q8 2 23 12.5t32 24.5q-7 -3 -13.5 -6.5t-13.5 -7.5q-1 -1 -2 -1.5t-2 -1.5zM700 27l-6 -10l-6 -10q2 2 4 3.5t5 3.5q5 8 9 16t9 16q3 7 6 13t6 13q-12 -21 -27 -45zM503 334q-4 -7 -7.5 -11.5t-7.5 -8.5v-2h-1l-3 -10l5 5t5 6zM635 -140q5 9 11 20
t14 23q-8 -11 -15 -21.5t-13 -21.5q-2 -2 -2 -5q2 2 3 2.5t2 2.5zM758 113q2 0 2 1l7.5 15t6.5 14v1l-6 -9q-2 -5 -4.5 -10.5t-5.5 -11.5zM477 281l-2 -8q0 1 1 2q2 5 4.5 9.5t4.5 9.5q-1 -1 -4 -1q-1 -2 -2 -5t-2 -7zM490 44q-2 3 -4.5 6.5t-4.5 6.5h-1v-1q0 -1 1 -2
q0 -4 -2 -4q2 -1 4.5 -2.5t6.5 -3.5zM566 -251q6 8 7 9q-2 0 -3 1q-4 -5 -6.5 -9.5t-6.5 -8.5l5 4q3 1 4 4zM478 -327q4 7 7.5 13.5t8.5 12.5v4q-5 -8 -9.5 -16.5t-9.5 -16.5zM529 367q-3 -5 -5.5 -10t-5.5 -10q6 10 11.5 19.5t10.5 19.5q-3 -5 -6 -9.5t-5 -9.5zM809 671
q2 2 4 2.5t4 2.5q-1 0 -1 1q-2 0 -3 -0.5t-3 -0.5l-1 -1q1 -2 0 -3v-1zM605 541q-1 -2 -2.5 -4.5t-3.5 -6.5q3 4 5.5 7.5t4.5 7.5q-1 -1 -2 -1.5t-2 -2.5zM416 144q0 -2 2 -8q-1 5 -1.5 9t-0.5 8q-1 1 -1.5 2t-1.5 2q1 -3 1.5 -6.5t1.5 -6.5zM506 -332q-2 -4 -4 -7t-4 -7
q4 7 11 14q-2 -2 -3 0zM683 579q-2 -3 -5 -6t-6 -7q1 0 2 1q4 5 7 8t6 7l-3 -3h-1zM381 -454q-2 0 -2 -1l-8 -6l12 6q-2 0 -2 1zM394 -451q-1 0 -3 2l-6 -6zM1045 743q-3 1 -5.5 1t-5.5 1q0 -1 -0.5 -1.5t-0.5 -1.5q3 1 12 1zM986 338q-2 -1 -4.5 -2t-5.5 -2q0 -1 1 -2z
M868 235q-1 1 -1.5 1t-1.5 1q0 -1 -1 -1q1 -1 1 -3v-1zM487 -347l-4 -6l-4 -6q-1 0 -1 -1t-0.5 -1.5t-0.5 -1.5q2 4 5 7.5t5 8.5zM721 627q2 1 3.5 2t3.5 2l2 2q-6 -3 -9 -6zM754 668q1 0 1 0.5t1 0.5q6 4 13 6v1q-4 -2 -7.5 -4t-7.5 -4zM868 241q0 -1 -1 -1q2 0 2.5 -0.5
t1.5 -0.5l2 2h-5zM409 -441q-2 -1 -7 -6q2 2 4.5 3.5t5.5 3.5q-1 0 -1 -0.5t-1 -0.5h-1zM675 603q0 1 2 3q-1 -1 -2 -1.5t-3 -2.5h2q0 1 1 1zM623 567q2 2 2.5 3t1.5 2l-5 -5h1zM877 723q-2 0 -3 -0.5t-2 -0.5v-1h1q0 1 1 1t3 1zM679 -79l2 1v3zM829 693q0 -1 -1 -1l6 2h-2
q-1 0 -1.5 -0.5t-1.5 -0.5zM423 254q1 1 1 1.5t1 1.5v1q-2 -2 -2 -4zM888 718v-1l3 1h-3zM806 669q1 0 3 2q-2 0 -2 -1zM730 613l-2 -1v-1zM431 102q1 -1 1 -1.5t1 -1.5q-1 1 -1 3h-1zM1040 365q-1 0 -2 -1z" />
    <glyph glyph-name="H" unicode="H" horiz-adv-x="712" 
d="M614 762q1 1 1 2t1 2q0 1 3 1q5 0 10 -3t10 -7v1q0 3 4 3q9 -2 18 -9.5t17 -13.5h2v-1h1q2 -2 1 -3.5t-3 -1.5h-2q-2 1 -3 1t-3 1q-3 -4 -9 -10h1v-1q1 1 1.5 2t1.5 2q5 7 9 0q2 0 3.5 -1.5t-0.5 -2.5l-2 -2q0 -5 -1 -8l2 -2q1 -1 1 -4q-2 -3 -4 -6.5t-4 -7.5
q-8 -22 -21 -42.5t-24 -37.5q-11 -20 -23 -38.5t-23 -38.5q-5 -9 -10 -18.5t-10 -19.5q-3 -14 -10 -23q-10 -14 -22 -27.5t-23 -27.5q-8 -11 -15 -20.5t-15 -20.5q1 -1 1 -3q-12 -23 -28.5 -51t-39.5 -44q-3 -5 -6.5 -10t-7.5 -10h23.5t22.5 5q73 31 147 58.5t149 56.5
q29 46 59 90.5t61 89.5q24 33 47.5 65.5t49.5 64.5q21 27 41.5 51t44.5 41l2 2q18 12 39.5 19t48.5 8q9 0 22.5 -3t21.5 -8q18 -13 25 -36.5t5.5 -49t-10.5 -49t-21 -35.5q-29 -30 -44.5 -47t-31 -30t-36.5 -26.5t-60 -35.5q-42 -25 -86 -45.5t-89 -40.5q-1 -1 -1.5 -2
t-1.5 -2q-5 -6 -9 -12t-9 -11l-16 -22t-17 -21q-14 -19 -26.5 -37.5t-25.5 -37.5l-1 -1l-42 -66q-14 -30 -32 -59q-2 -2 -2.5 -4.5t-2.5 -4.5q-11 -26 -27 -55v-1h-1q-1 -1 -3 -1q-1 -3 -2 -5.5t-3 -5.5q-5 -14 -8.5 -29t-9.5 -28q-11 -23 -26.5 -44t-27.5 -44
q-10 -20 -20 -53q-5 -22 -10 -43.5t-12 -43.5q-7 -35 -9.5 -65t2.5 -44q4 -1 8 -4q17 -5 43 -3t52 7.5t47 13t28 15.5q15 15 25.5 32.5t20.5 36t20 36.5t24 33q2 2 4 0.5t0 -3.5q-11 -13 -23.5 -35.5t-25.5 -46t-27 -43t-28 -25.5q-13 -6 -31.5 -11.5t-39.5 -9.5t-42.5 -5
t-39.5 3q1 -1 0 -2t-3 -1q-5 2 -11 8q-23 8 -34.5 29.5t-2.5 60.5q8 32 15 64t15 64q11 44 30.5 83.5t38.5 79.5q80 165 182 326q-72 -28 -142.5 -54.5t-140.5 -55.5q-14 -6 -28 -5.5t-28 0.5q-14 -21 -29 -42t-30 -41q-17 -22 -33.5 -43.5t-33.5 -42.5q-6 -7 -19 -22.5
t-30.5 -33t-37.5 -34t-39 -25t-36.5 -6.5t-29.5 21q-8 13 -6.5 29t8.5 32t15.5 30.5t14.5 24.5q17 31 45 53.5t61 40t67.5 31.5t65.5 28q12 24 24.5 47.5t26.5 46.5q17 28 34 57t40 53q3 4 7 10q4 11 11.5 23.5t16.5 25.5q7 11 14 21.5t14 21.5q12 23 25.5 45t24.5 42
q3 8 6 17t7 17q4 11 8 24t7.5 24.5t5.5 20.5t2 12v2zM1163 795q-17 8 -37 10q0 -1 -2 -3q-5 -2 -9.5 -3t-9.5 -3q-2 -2 -4 -2q-16 -6 -29 -18l-3 -3q-4 -3 -7.5 -6.5l-7.5 -7.5q-15 -19 -32 -38l-10 -14l-10 -14q0 -1 1 -1q2 -4 0 -6q-2 -3 -5 -5.5t-5 -4.5q-5 -11 -14 -22
l-18 -22q-11 -15 -21 -27v-1h-1q-1 -1 -3 -1q-14 -19 -26 -40l-32 -56q-8 -14 -15.5 -29.5t-15.5 -30.5q-3 -7 -6 -13.5t-7 -12.5q42 18 82 37.5t79 42.5q26 15 51.5 31t48.5 34q20 16 37.5 33t30.5 37q9 13 17 36t11 46.5t-3 44.5t-25 32zM332 239q-30 -13 -61.5 -26.5
t-61 -30t-55.5 -37.5t-45 -49q-5 -8 -13 -21.5t-15 -29t-9.5 -31t4.5 -26.5q10 -15 27 -16.5t32 5.5q29 14 57 40l1 2q27 31 49.5 64.5t42.5 68.5q4 12 9 22.5t13 17.5q1 0 0.5 0.5t0.5 0.5q6 11 12 23t12 23zM580 94q2 4 4.5 7.5t5.5 7.5q7 22 18 45q2 4 6 14l-16 -30
t-16 -29q1 -1 1 -2h2q-1 -1 -1 -3q-1 -2 -2 -4.5t-2 -5.5zM470 -170q-5 0 -2 3q2 4 3 8t3 8q1 4 1 7.5t1 8.5q-13 -35 -19 -78q3 10 6 19.5t7 18.5v5zM668 262l9 12q4 6 7.5 11.5t7.5 10.5q4 7 8 1l1 1q2 6 3 13t3 14zM485 405q4 5 7.5 9.5t7.5 9.5q8 11 17.5 20.5
t17.5 20.5q-7 -7 -11 -10q-3 -4 -6.5 -7t-6.5 -7q-2 -4 -5 -8t-8 -7l-1 -1l-2 -2q-1 -1 -3 -5q-2 -3 -3.5 -6.5t-3.5 -6.5zM516 -34q3 7 7 14q5 14 11 27t11 27q-16 -34 -31 -71q0 1 2 3zM470 -327q1 -4 7 -8q-7 10 -9 28q-2 -4 -4 -5zM854 485l2 6t2 5q-2 -3 -4 -6.5
t-4 -6.5q-1 -3 -3 -6t-5 -8v-1q-1 -1 -1 -3l1 -1q2 5 5.5 10t6.5 11zM433 404q-8 -13 -14.5 -26t-14.5 -27q2 2 3 4q8 16 16 28q2 5 4.5 10zM659 727q2 3 3.5 5t3.5 4v1q-6 0 -12 2q2 -2 3 -3.5t3 -3.5q0 -4 -3 -4v-2l1 1h1zM548 538q2 0 3 -1q2 6 4 9q0 2 1 3v1q0 2 2 8
q-6 -10 -10 -20zM532 475q5 5 8 10t7 11q-2 0 -3 1q-2 -3 -3.5 -6.5t-3.5 -6.5q0 -2 -1 -3q-1 -2 -3 -4q-1 -1 -1 -2zM468 -276q-3 -10 -6 -14v-1q0 -1 -0.5 -1.5t-0.5 -1.5v-10q2 7 3.5 13.5t3.5 14.5zM884 582q1 4 3 7.5t4 8.5q-10 -14 -15 -22q2 2 8 6zM553 -30q4 5 7 11
t7 11q-1 1 -1 3q-1 -2 -2 -3t-2 -3q-2 -5 -4.5 -9.5t-4.5 -9.5zM573 1q5 9 8 17q-2 -5 -5 -9t-5 -9q-2 -2 -4 -8zM729 294q3 4 5.5 7.5t5.5 7.5l-16 -16q1 0 1 0.5t1 0.5q1 1 3 0zM254 87q-5 -7 -9.5 -13.5t-9.5 -12.5l10 12l10 12q-1 0 -1 2zM277 121q-3 -5 -6.5 -9.5
t-6.5 -9.5l2 2q3 4 6 7.5t5 7.5l1 1zM735 368q-2 -4 -4.5 -7t-4.5 -7l2 -1q2 4 3.5 7.5t3.5 7.5zM633 757l-4 2l-4 2v-3q0 -1 1 -1q2 0 3 -1q1 1 4 1zM620 747q0 1 -0.5 1.5t-0.5 2.5q-3 -10 -8 -23q1 1 1 1.5t1 1.5q2 5 3.5 9t3.5 7zM440 346q0 -1 0.5 -1t0.5 -1l9 12z
M468 381q2 2 3 4q-2 0 -2 1q-2 -2 -4 -6q1 0 1 0.5t1 0.5l1 1v-1zM727 335q0 -2 -1 -3v-2q2 2 2.5 4.5t2.5 5.5q0 1 0.5 2t0.5 2q-1 -3 -5 -9zM779 363q0 -1 0.5 -1t0.5 -1l4 6l4 6q-2 -2 -4.5 -5t-4.5 -5zM1080 789q6 4 11 7q-4 -1 -12 -5zM450 369q2 2 3.5 3t3.5 3
q-1 0 -3 2q-1 -4 -4 -8zM289 137q1 1 3 1l1 2q-2 0 -2 2l-3 -6zM829 438q-2 -2 -3 -5t-3 -5l5 6l2 4h-1zM455 -280q0 2 0.5 2.5t0.5 1.5q-1 0 -1 1l-1 -1v-2q0 -3 1 -4v2zM644 718q0 1 0.5 2t0.5 2q-1 -1 -1.5 -2t-2.5 -3l1 -1zM648 753q0 -2 1 -3q1 0 2 -0.5t2 -0.5z
M408 294q1 1 1 3l-2 -2q0 -1 -0.5 -1.5t-0.5 -1.5zM1103 801q1 1 2 1t3 1q-2 0 -3 -0.5t-3 -0.5zM638 649l1 2l-2 -2h1zM703 262q0 1 1 1.5t1 1.5l-1 -1t-1 -2zM488 -106q-1 0 -1 -1h1v1zM596 667q-1 -1 -1 -2zM868 549q-1 0 -1 -1zM656 718q1 0 1 1z" />
    <glyph glyph-name="I" unicode="I" horiz-adv-x="214" 
d="M518 790q0 -2 -2.5 -2.5t-2.5 1.5q-2 6 -11 6l-1 -1q-3 -2 -5.5 -4t-4.5 -4h1q3 0 3 -2l1 1q3 3 5 -2h1l-1 -1q-8 -17 -16.5 -32.5t-16.5 -32.5q-3 -8 -7.5 -15.5t-9.5 -15.5q-42 -78 -88 -155t-94 -152q-50 -78 -101.5 -157.5t-96.5 -162.5q-8 -20 -17 -40t-19 -33v-2
l-1 1v-1h-1q-15 -32 -28 -64t-24 -65q-6 -18 -5 -36t6.5 -35.5t13 -34t15.5 -31.5q4 -3 7.5 -6.5t7.5 -6.5q0 -1 -1 -3t-3 0t-3 2q16 -25 38.5 -45t50 -33t58 -17.5t62.5 0.5q30 5 56.5 23t49.5 42t43 50t38 47q2 2 4 0.5t0 -3.5q-17 -21 -37.5 -47.5t-43.5 -51t-50 -43
t-57 -24.5q-80 -14 -135.5 18.5t-90.5 96.5q-14 15 -25.5 33.5t-18.5 39.5t-9.5 43t0.5 42q2 10 9 27t15 32.5t14.5 27.5t6.5 13q40 85 79.5 168t84.5 164q3 13 12 27t20 28q16 25 26 41t19 29t19.5 27t25.5 36q11 26 25.5 50t32.5 44q4 7 7 13l6 12q3 10 9 17q12 22 25 44
t27 43q-3 -2 -9 -4q-53 -24 -102 -45.5t-98.5 -39.5t-101.5 -30t-112 -16q-39 -3 -76.5 5t-60 26.5t-22.5 47.5t36 68q2 2 4 0.5t0 -3.5q-35 -40 -33.5 -66.5t23.5 -41.5t58 -21t71 -6q55 1 108 13.5t103.5 31t100 41t99.5 43.5q5 2 10.5 4.5t11.5 4.5q4 6 10 14l7 10.5
t12 16.5t16.5 17t20.5 12q2 0 4 2h3q16 2 20 -12zM-41 -126q-1 -5 -1 -16q0 1 0.5 1.5t0.5 1.5q2 3 2 5.5t2 5.5q1 13 3 24q-2 -7 -4 -12t-3 -10zM486 779l-2 -2q-1 0 -1 -1v-1q6 3 6 -4l-9 -18v-2q0 -1 -0.5 -1t-0.5 -1q4 7 7 13.5t6 13.5v2l2 2v1q-2 -1 -3.5 -1t-3.5 -1
h-1zM-39 -147q-1 0 -3 2q0 -9 0.5 -18.5t2.5 -18.5q-2 17 0 35zM-28 -218q2 -5 3.5 -9t3.5 -9l-3 18q-3 -1 -4 0zM112 145q2 5 5 9t5 8l9 15l-3 -3q-9 -16 -17 -26q0 -1 0.5 -1.5t0.5 -1.5zM-12 -245h-2q-1 1 -2 1q3 -5 6 -9.5t6 -9.5q-2 5 -4 8.5t-4 8.5v1zM250 365
q4 6 7 12t7 12h-1l-3 -3zM48 59l6 12t6 11h-1q-2 -2 -3 -4q-5 -10 -8 -19zM269 461q-1 -2 -2.5 -4t-2.5 -4q-2 -4 -4 -7l-4 -6l2 2l3 3q2 4 4 7.5t4 7.5v1zM412 702q4 5 8 10.5t8 10.5q-1 0 -1.5 -0.5t-1.5 -0.5q-3 -5 -6.5 -10t-6.5 -10zM-3 -41q-2 -3 -4 -6.5t-4 -8.5h2z
M339 509q2 3 4.5 6t4.5 7h-2zM-22 -82q-2 -4 -2 -9q1 1 1 2q1 3 1 7zM421 649l-3 -5q5 5 7 9zM-27 -203l-1 -1l2 -4v6zM297 451q2 2 3 5t3 5h-1q-2 -2 -2.5 -5t-2.5 -5zM210 309l2 4q-2 -2 -2 -4zM239 413l1 1q-1 0 -1 1l-2 -4zM438 728v-1q1 0 1 1h-1zM415 700h1v1z
M424 693q1 0 1 1z" />
    <glyph glyph-name="J" unicode="J" horiz-adv-x="922" 
d="M736 -97q-5 -5 -5 1q-2 -3 -4 -6.5t-4 -7.5v-3l-1 1q-8 -14 -15.5 -27t-15.5 -27q-9 -14 -18.5 -28t-20.5 -28q-10 -21 -22 -40.5t-23 -37.5q-32 -54 -64.5 -107t-75.5 -99q-1 -1 -1 -5v-1h-1q-1 -4 -6 -2q-18 -19 -40 -37q-2 -2 -3.5 0t-0.5 4q-24 -20 -59 -42
q-17 -11 -39 -23.5t-50 -26.5q-38 -20 -76.5 -37.5t-80.5 -30.5q-29 -9 -46.5 -13.5t-32.5 -6t-32.5 -2t-47.5 -1.5q-19 0 -39.5 5t-33.5 16q-7 6 -15.5 11.5t-16.5 11t-15 12t-10 15.5q-6 15 -14.5 29t-9.5 30q-2 64 8 118.5t33 114.5q24 61 54.5 117.5t68.5 105.5t85 90
t106 73q17 9 43.5 21.5t57.5 22.5t63.5 15.5t60.5 1t49 -21t29 -50.5q1 -8 -1.5 -15t-6.5 -13.5t-8 -12.5t-5 -11q-1 -2 -3 -1.5t-2 2.5q3 13 12.5 24.5t8.5 24.5q-2 17 -13 30.5t-26 23.5q-27 19 -61.5 18.5t-70 -11t-68 -26.5t-56.5 -29q-65 -36 -118.5 -86.5t-95 -110.5
t-72 -128t-49.5 -139q-23 -87 -11 -145t51.5 -89t103 -34t143.5 21q43 13 76.5 28t72.5 35q-22 -7 -44 -12t-42 -7q-2 0 -2.5 2t1.5 3q40 5 75 16t70 30q54 29 84 55t51 53q2 4 4.5 8t5.5 8h-1q0 1 1 1q2 5 3.5 8.5t3.5 8.5q5 12 9.5 24t11.5 24q-3 0 -1 2q4 10 16 32.5
t26.5 47.5t28.5 47.5t23 32.5q11 23 22.5 45t23.5 45q12 26 26 50t28 47l1 1v1q0 1 0.5 1.5t0.5 1.5t1 1h1q20 36 40.5 71.5t41.5 70.5q5 12 11 24l12 24q0 2 4 2q13 30 28 61t30.5 58t30 47.5t27.5 29.5q8 18 17.5 33.5t19.5 28.5q8 17 16 33.5t15 27.5q19 48 47 94t55 94
q-33 -38 -72.5 -70.5t-78.5 -62.5l-45 -36t-52 -40t-53.5 -38.5t-47.5 -30.5q-51 -29 -99.5 -56.5t-105.5 -43.5q-21 -5 -42.5 -6t-43.5 -4q-19 -2 -35.5 10t-33.5 20q-14 7 -17 23.5t0 37t10.5 43t15.5 41.5t15 32t8 14q15 32 52.5 64t82 59.5t88.5 49t72 32.5q23 10 47 19
t50 10q9 1 18.5 4t19.5 5t18 1.5t14 -7.5q5 -6 10.5 -12.5t10.5 -13.5q1 -2 0 -3q-10 -15 -19.5 -29.5t-19.5 -29.5q-2 -2 -4 -0.5t0 3.5q10 14 19 28.5t19 28.5q-5 6 -10 11.5t-10 11.5q-16 -1 -32 -0.5t-33 -3.5q-50 -10 -105 -31.5t-107.5 -52t-97.5 -68.5t-75 -80
q-17 -25 -31.5 -58t-16 -64t14.5 -54.5t61 -29.5q22 -3 46.5 0.5t48.5 11t46.5 17.5t40.5 19q54 26 108 61t102 69q63 46 125.5 94.5t116.5 105.5q5 6 10.5 11.5t10.5 12.5l1 1q5 9 9.5 18l9.5 19l3 6.5t7 16t8.5 20t8.5 18.5q1 2 1 4.5t1 4.5q0 5 4 1q1 4 3 6l1 1
q-12 -7 -14 -16q-1 -2 -3 -1.5t-2 2.5q1 7 7.5 12.5t16.5 10.5q5 8 12.5 12.5t12.5 -5.5h1q2 0 4 2q10 7 23 9q3 0 4 -1q1 -2 1.5 -2.5t1.5 -2.5q1 -1 1 -5q-1 -2 -2 -2.5t-2 -2.5q5 -5 2 -11l-5.5 -11t-5.5 -10q2 -2 2 -4q-8 -14 -17 -33t-22 -33q34 20 69.5 34t77.5 21
q21 3 46 7t51.5 7.5t51.5 4.5t46 -2q29 -4 45.5 -6t27 -3.5t17.5 -3.5t16.5 -5.5t24.5 -9.5t41 -16q21 -8 45 -30.5t41.5 -51t25 -59.5t-3.5 -57q-6 -14 -13.5 -28.5t-15.5 -28.5q-12 -22 -38.5 -44t-58 -40.5t-62.5 -32.5t-52 -20q-16 -5 -42.5 -10t-53 -4t-48.5 11.5
t-29 37.5q-4 18 -1.5 36.5t2.5 36.5q0 3 2.5 2.5t2.5 -3.5q0 -17 -2.5 -35t2.5 -35q8 -25 28.5 -34.5t45 -10t49.5 5t41 10.5q57 19 113.5 53t93.5 82q24 31 28.5 65t-7 66.5t-37 60.5t-61.5 48q-38 22 -80.5 32t-87.5 12q-48 4 -96 -0.5t-96 -15.5q-46 -11 -85 -26t-77 -37
l-20 -41q-13 -29 -25.5 -57t-26.5 -56q-4 -12 -10.5 -27t-14.5 -30.5t-17 -30t-17 -24.5q-1 -4 -6 -10q0 -3 -2 -3l-33 -54q-29 -48 -58.5 -92.5t-58.5 -92.5q-6 -32 -23.5 -61.5t-37.5 -58.5q-14 -35 -33.5 -69t-33.5 -63zM722 -64q-5 -7 -8.5 -13.5t-7.5 -12.5
q-3 -8 -6.5 -16.5t-6.5 -16.5q2 4 4 7.5t4 6.5q5 9 9.5 18t9.5 18q2 4 3.5 7.5t3.5 7.5q-2 -2 -2.5 -3t-2.5 -3zM505 -382q6 9 12.5 19.5t14.5 21.5q5 11 9.5 20t9.5 17q-13 -19 -25 -39t-21 -39zM831 98q-5 -10 -9.5 -18.5t-9.5 -17.5q11 16 20 31.5t16 34.5q-5 -8 -9 -15
t-8 -15zM473 -487q6 8 12.5 16.5t12.5 16.5h-6q-3 -4 -5 -6.5t-4 -4.5q-2 -5 -5 -10t-5 -12zM1045 563q-13 -21 -24.5 -42.5t-21.5 -42.5q11 21 23 42t23 43zM784 8q-9 -17 -17.5 -33t-16.5 -33q9 17 19.5 36t19.5 37q-1 -1 -2 -2.5zM680 -88q4 9 7.5 17.5t7.5 17.5
q-5 -8 -8.5 -15.5t-8.5 -15.5q-2 -4 -3.5 -8t-3.5 -8zM1196 757q10 19 10 29l-2 -2t-3 -2v-2l2 -6q-5 -8 -8 -11q-4 -9 -8 -16q2 4 4.5 6t4.5 4zM859 243l4 6l4 6q3 5 6.5 10t6.5 10l7 12q2 4 5 7.5t5 7.5q-11 -14 -20.5 -28.5t-17.5 -30.5zM1120 641q1 2 2 5t2 5h-1l-6 -12
t-8 -11q0 -1 -0.5 -2t-0.5 -2v-1zM1002 399q2 2 4 0q0 2 1 3q1 4 3 10q-2 -5 -7 -10q-1 -1 -1 -2t-1 -2zM588 -260q3 3 4 6q3 5 5 10q-5 -7 -6 -9l-3 -3l-1 -4h1zM1166 706q6 7 10 17q-5 -8 -11 -16zM612 -214q-3 -4 -6.5 -9t-7.5 -10l6 8t7 7l4 8t4 9q-3 -3 -7 -13z
M1149 766q1 2 1.5 2.5t1.5 2.5v2h-1q-2 -2 -2.5 -5t-1.5 -5q1 0 1 1t1 3v-1zM981 362q-2 -3 -3.5 -6t-3.5 -5q4 5 7 10.5t7 10.5zM456 -506v3q-1 -2 -1.5 -2.5t-1.5 -2.5l-12 -13zM956 385q-2 -2 -3 -5t-3 -5q2 2 3 2.5t2 1.5q0 5 1 6zM1173 795q-5 1 -9 -3zM1162 786
q-1 -1 -2 -1t-2 -1t-1 -4h1q1 3 4 6zM1201 796q1 0 1.5 -0.5t1.5 -0.5q2 2 2 3q-1 0 -2 -0.5t-3 -0.5v-1zM1183 775q-1 0 -2 -1q-2 -2 -3 -3.5t-2 -2.5zM553 -307q1 1 1.5 2t1.5 2v2zM650 -134q2 2 2 3q-2 0 -2 -3zM809 130q0 -2 -0.5 -2.5t-0.5 -1.5q0 1 2 3zM1100 593
q1 0 1 1q1 1 1 2t1 2q-1 -1 -1 -1.5t-1 -1.5zM1191 776l1 2q-1 0 -1 -0.5t-1 -0.5zM785 62q1 1 1 1.5t1 1.5l-2 -2v-1zM440 -523q1 1 1 2z" />
    <glyph glyph-name="K" unicode="K" horiz-adv-x="715" 
d="M73 -94q-1 -2 -3 -1.5t-2 2.5q1 3 1 10q-1 -1 -3 -8q-6 -12 -24.5 -29t-42 -33t-49.5 -28.5t-48.5 -15.5t-38 5.5t-18.5 35.5q0 4 2 3.5t3 -2.5q2 -20 13.5 -27.5t27.5 -7.5t34.5 6t34.5 14l-1 1l-2 -1q-7 0 -2 5q13 10 23 24t18 30t16 31.5t17 28.5q8 14 17 26
q12 30 30 57q5 14 14 26.5t17 24.5l10 18l10 18q13 29 27.5 56t31.5 51l2 4l2 4q7 13 15.5 24.5t17.5 22.5q5 10 10.5 19.5t11.5 17.5q-5 1 0 6q5 7 9.5 14t9.5 14l6 10t5 10q10 21 24 45q5 13 13.5 25.5t13.5 20.5q13 25 30 51l28 49q3 5 5.5 10l4.5 9q8 20 18.5 38
t24.5 33q1 0 1 1t1 3v-1l2 1q8 23 18 47t21 40q4 9 8 16q1 2 0.5 3.5t-0.5 3.5h-2q-3 0 -2 4q-1 4 2 4q1 -1 2 -1.5t2 -1.5h8l2 2q4 2 5 -2q8 3 16.5 5t16.5 0q3 -2 3 -4q3 0 5.5 -0.5t5.5 -0.5l2 2v-2q1 -1 2.5 -2t-0.5 -3q-15 -20 -26.5 -40.5t-22.5 -41.5q1 -1 1 -3
q-4 -8 -9 -19t-12 -23q-12 -27 -24.5 -53.5t-27.5 -52.5q-19 -32 -42.5 -62.5t-34.5 -49.5q-21 -35 -37 -72.5t-35 -74.5q-6 -12 -16 -22v-2h-1q-1 0 -1 -0.5t-1 -0.5q-5 -5 -10 -10.5t-10 -11.5q-8 -11 -14.5 -23t-13.5 -24q-26 -43 -51.5 -86t-49.5 -88q18 21 40.5 40
t46 37t47.5 36t46 38q74 68 146 137q13 18 28 25q60 56 121.5 111t126.5 106t134 95.5t144 80.5q46 22 76.5 34.5t59 21.5t60.5 17t82 21q47 12 80 6.5t55.5 -26t36.5 -54.5t23 -77q0 -2 -2.5 -2.5t-2.5 1.5q-2 10 -3 19t-5 17q-15 39 -30 64.5t-35 39t-47 14.5t-67 -9
q-50 -13 -82 -21t-60 -17t-59 -22t-77 -36q-72 -36 -139 -80t-130.5 -92.5t-124 -101.5t-119.5 -107h21l1 2q-1 1 -7 1t-1 5q2 1 4 1t4 1q1 1 1 2v1h2q8 5 17 10t20 7q2 2 5 2h1q2 1 4 1.5t4 1.5q5 5 12.5 5t15.5 -2q35 -4 65 -30t41 -60q2 -2 1.5 -2.5t-0.5 -2.5
q2 -6 2 -12v-12q-5 -48 -19 -91t-28 -89q-26 -88 -54 -177t-45 -182q0 -10 -1 -19t-5 -17q-1 -9 -2 -17.5t-2 -17.5q-2 -20 -3.5 -39t0.5 -39q1 -10 5 -20t10 -21q1 -1 1 -1.5t1 -1.5q6 -4 11 -9l10 -10q0 -4 -3 -4l13.5 -13.5t14.5 -11.5q21 -14 45.5 -20t50.5 -6l12 3
q2 2 3.5 0.5t0.5 -3.5q48 3 92.5 23t73.5 50q17 18 28.5 40.5t19 47t12 49.5t7.5 48q0 3 2.5 2.5t2.5 -3.5q-5 -38 -11 -68.5t-17 -57t-30.5 -50.5t-50.5 -49q-10 -8 -23.5 -14.5t-28.5 -11.5t-29.5 -8t-26.5 -4q-18 -2 -33.5 -2.5t-29.5 1.5q-40 3 -74 28q1 -2 2 -3.5
t2 -3.5q0 -5 -5 -3q-11 20 -31.5 35t-37.5 29l-3 3q-3 -2 -5 3q0 1 -0.5 1.5t-0.5 1.5q-10 11 -16 25q-1 -1 -3 1q-1 2 -1 8l-6 12q1 1 2 1q-3 7 -3 17q-8 61 -4 118.5t15 114.5q0 2 0.5 3t0.5 3q0 1 1 2q2 11 4.5 23t5.5 23l3.5 17.5t3.5 12.5q1 1 1 1.5t1 1.5q2 8 4.5 16
t4.5 16q5 38 18 75t32 72q3 8 5.5 14.5t5.5 14.5q5 14 16 40t19 55q2 8 3.5 14.5t3.5 12.5q6 24 4 51q-3 4 -5 8l-4 8q-9 8 -19 15t-18 12q-6 0 -15 4q-1 0 -3 2q-11 1 -23 0t-23 -2q0 -1 1 -2q-2 -8 -9.5 -11t-16.5 -3.5l-18 -1t-15 -3.5h-1q-8 -8 -16 -15t-16 -15
q-1 -2 -7 -8q-1 -1 -2 -1q-33 -30 -65.5 -60.5t-65.5 -59.5q-26 -23 -55 -44t-57 -42.5t-52.5 -45.5t-41.5 -54q-2 -2 -2.5 -4t-2.5 -4q-12 -24 -18 -52zM498 -260q-11 -66 -3 -122q-1 12 -0.5 23.5t0.5 23.5v24zM164 107q8 15 16.5 30t17.5 30q-2 2 -2 4v2
q-10 -18 -18.5 -35.5t-16.5 -34.5q1 1 1.5 2t1.5 2zM409 510q8 10 15 21t13 22q1 0 1 1t1 3q-4 -5 -6.5 -9.5t-5.5 -9.5q0 -1 -0.5 -1t-0.5 -1h-1q-2 -3 -4 -5.5t-4 -4.5q-4 -9 -8 -16zM627 167q-5 -12 -9 -23.5t-8 -22.5l4 6t4 7q2 8 4.5 15.5t4.5 15.5v2zM340 419
q-3 -6 -4.5 -11.5t-3.5 -11.5q2 6 5 11t7 11q-1 1 -1 4v1q1 2 1 4t1 4zM371 476q-3 -7 -6.5 -13.5t-5.5 -13.5q4 6 7 12t7 13zM493 671q0 2 2 4q-12 -13 -20 -31v-1q5 8 9 14.5t9 13.5zM541 -331q2 9 2.5 16.5t2.5 15.5h-1q-1 -5 -2 -9.5t-3 -9.5q0 -4 0.5 -7t0.5 -6z
M517 323q9 1 12 8h-4q-11 -8 -12 -8h1l2 1h1v-1zM297 342l2 1l1 2l2 5l-5 -5q-1 -1 -2 -1l-3.5 -7l-3.5 -7q-1 -1 -1 -3q2 4 5 7.5t5 7.5zM557 -47q-2 -5 -3.5 -8.5t-3.5 -6.5q-1 -5 -1.5 -8.5t-1.5 -8.5q2 6 3.5 11.5t3.5 10.5q1 1 1.5 2t1.5 2v6zM548 767q-3 0 -5 0.5
t-4 0.5q-1 -1 -2 -1l-1 -1q3 0 4 -1q2 -3 1 -4v-1h2q1 3 5 7zM-4 -150l8 6q-6 -4 -12.5 -7t-11.5 -8l-3 -3l10.5 7t8.5 5zM597 -89q2 8 4.5 14.5t4.5 13.5v6q-2 -8 -4 -15l-4 -14q-1 -1 -1 -5zM446 571q3 5 5.5 10.5t4.5 10.5q-2 -2 -2.5 -4t-2.5 -4q-3 -4 -4 -8
q-1 -1 -2 -1v-2zM546 338q12 0 15 1h4q-2 0 -2 2q-5 -1 -9 -1.5t-8 -1.5zM657 323q1 -2 1 -3.5t1 -3.5q8 -6 9 -7h1q-3 4 -6 7t-6 7zM-6 -126q-3 -5 -6 -9.5t-6 -9.5q4 5 7 9t6 9zM265 268q-2 -5 -5 -8.5t-5 -7.5l8 8zM367 504q-3 -6 -5 -11.5t-4 -10.5q2 5 4.5 10.5
t4.5 11.5zM662 162q-1 -2 -1.5 -5t-1.5 -5h1l4 13q-1 -1 -1 -1.5t-1 -1.5zM535 -460q1 0 1 -1q0 -2 1 -3h1l-3 11v-7zM527 -138q1 3 1 6t1 7v3q-1 -4 -1.5 -7.5t-0.5 -8.5zM212 196q5 6 6 10h-1q-2 -3 -2.5 -5.5t-2.5 -4.5zM502 691q2 5 5 10l-3 -3q-1 -2 -1.5 -3.5
t-1.5 -3.5h1zM595 78q1 3 2 5l2 4q-2 -3 -3 -5l-2 -4q-1 -1 -1 -2t-1 -2q1 1 1.5 2t1.5 2zM566 -511q-1 2 -2 2.5t-2 2.5h-2q2 -2 3 -2.5t3 -2.5zM566 -2l-2 -6q0 1 2 3v3zM394 551q-2 -4 -3 -7l-1 -1q1 1 1 2t1 2t1 2t1 2zM654 326q0 -1 0.5 -1.5t0.5 -1.5h2zM565 -210
q1 2 1 2.5t1 2.5h-1q0 -2 -0.5 -3t-0.5 -2zM326 413q-1 -1 -1 -3q1 1 1 3zM270 342q-1 -1 -1 -3q0 1 2 3h-1zM283 290q-1 -1 -1 -1.5t-1 -1.5q0 -1 -0.5 -1.5t-0.5 -1.5zM671 145h1v3zM287 354v1q-2 -2 -2 -3zM691 243h1v1zM288 357h-1v-1zM514 -177q1 0 1 2q0 -1 -0.5 -1
t-0.5 -1z" />
    <glyph glyph-name="L" unicode="L" horiz-adv-x="519" 
d="M1110 986q2 -2 2 -4l3 -2q13 5 21 4q13 -4 31.5 -15.5t37.5 -25.5t36.5 -27.5t27.5 -21.5q38 -29 77.5 -57t76.5 -59q26 -20 48.5 -43t46.5 -44q29 -24 60.5 -43.5t66.5 -33.5q47 -18 107 -27.5t122 -9.5t121 9.5t105 30.5q48 21 84 52t70 69q2 2 4 0.5t0 -3.5
q-34 -38 -70.5 -70t-84.5 -55q-47 -22 -107 -32t-123.5 -10t-124.5 10t-110 28q-69 27 -126 78q-24 21 -46.5 44t-48.5 43q-37 31 -76 60t-77 58q-30 23 -62 45t-64 43q1 -2 -1.5 0t-4.5 2q-4 -1 -10 -3l30 -16q-21 11 -46.5 8t-46.5 -12q-10 -4 -14 -7q0 -2 -3 -3
q-5 -3 -14 -8.5t-19 -11.5q-40 -29 -76 -67t-62 -68q-45 -52 -86 -107t-79 -112q-7 -12 -16.5 -27t-20.5 -28q-20 -29 -38.5 -59t-38.5 -59q-38 -58 -77 -114t-86 -108q-35 -38 -71.5 -78t-75.5 -78q19 -10 31 -21q28 -26 54 -55.5l52 -59t53.5 -57.5t59.5 -50
q45 -32 108.5 -48t131.5 -19t132.5 7.5t111.5 32.5q36 17 66 40.5t57 51.5t51.5 58t47.5 60q2 2 4 0.5t0 -3.5q-24 -30 -48.5 -60.5t-51.5 -58.5t-57 -52t-66 -41q-49 -23 -114.5 -34t-134 -8t-133 19.5t-110.5 48.5q-33 23 -63 56t-59.5 67.5t-61 67t-67.5 53.5
q-37 -35 -76.5 -65t-83.5 -53q-17 -8 -39.5 -15.5t-43 -8t-36 9.5t-17.5 37q0 6 3 13.5t7.5 15t9 14t7.5 10.5q21 26 38 40.5t35 22t41 11t56 8.5q19 2 37.5 -3t34.5 -15q4 4 6 5q61 68 117.5 139.5t109.5 149.5l6 9q0 1 1 2q5 8 9.5 15t9.5 15q21 34 40.5 69.5t39.5 69.5
q11 18 25.5 37.5t28.5 38t25.5 33.5t16.5 23q-3 1 -1 7q5 5 9 10t9 10q13 21 25.5 41t29.5 39l10 12l10 12q9 11 19 22t21 21q21 23 44 43t47 38q4 4 6 5q8 6 16.5 12t17.5 11q20 13 38.5 20.5t39.5 16.5q24 11 41 16.5t43 5.5h1zM112 -92q17 9 33 19.5t33 21.5l-2 2
q0 -1 -0.5 -1t-0.5 -1q-2 -2 -4 -0.5t0 3.5q17 19 34 36.5t34 36.5l2 4q1 0 1 0.5t1 0.5q1 1 1 2q-15 6 -31 9.5t-34 4.5q-21 1 -42.5 -2.5t-42.5 -8.5q-12 -2 -32 -18t-38.5 -36.5t-29.5 -42t-4 -34.5q9 -16 25.5 -19t35 0.5t35.5 10.5t26 12zM1000 947q-13 -5 -24.5 -11
t-24.5 -14q4 2 10 4q11 7 20 9q5 3 9 6t9 5zM1096 981q-15 -2 -23 -4v-4q6 3 11.5 4.5t11.5 3.5zM714 672q2 2 6 8v1q-3 -3 -4 -5q-2 -2 -4 -6zM587 485q2 2 3.5 5t3.5 6q1 1 1 5q-3 -5 -5.5 -10.5t-5.5 -10.5q1 1 3 5zM1028 959q-5 -3 -9.5 -4.5t-9.5 -3.5q4 1 7 2t7 2
q2 2 4 2.5t4 2.5q-1 -1 -3 -1zM1056 963q-3 -2 -5.5 -3t-4.5 -2l1 -1zM516 341q-1 -1 -1 -3l2 2zM1037 952h-1q-1 0 -1 -0.5t-1 -0.5t-3 -2zM891 826q1 1 1.5 2t1.5 2l-3 -3v-1zM662 568q1 2 2 2.5t2 1.5zM244 9l-1 -3l1 1v2zM298 80q1 1 1 2q-1 -1 -1 -1.5t-1 -1.5z
M803 723q2 2 2 3l-1 -1zM559 442q-1 -1 -1 -1.5t-1 -1.5q1 0 1 1t0.5 1t0.5 1zM232 -1q1 0 1.5 0.5t1.5 0.5h-1q-1 0 -1 -0.5t-1 -0.5zM640 555l1 1z" />
    <glyph glyph-name="M" unicode="M" horiz-adv-x="850" 
d="M811 324q1 0 2 -1q-14 -16 -29 -35.5t-29 -39.5q-14 -17 -28.5 -34.5t-25.5 -33.5q-12 -13 -25.5 -26.5t-28.5 -30.5q-2 -2 -4.5 -5t-4.5 -5l-9 -12q-2 -2 -5 -2l-31 -31v-1q-11 -16 -22.5 -26t-23.5 -17q-7 -5 -13 -11t-12 -11h-1q-7 -6 -13.5 -12t-14.5 -12q8 -4 0 -10
q-4 -1 -9 -3t-11 -4q-22 -18 -44 -35t-45 -34q-10 -7 -18 -9q-8 -8 -17.5 -11.5t-21.5 -0.5q-5 -1 -10.5 2.5t-10 9.5t-7 12.5t-1.5 12.5q-4 4 -5 6q-2 0 -2 2q-8 11 -12.5 24t-2.5 23q5 26 18 49.5t21 48.5q9 23 16 47t14 47q10 35 18 62t14.5 52t14 52t17.5 62
q8 28 18 64.5t22 74t26 74.5t30 67q-2 -3 -4 -5.5t-4 -5.5q-26 -38 -48 -78t-42 -81l-40 -82t-42 -81l-3 -6q-4 -6 -6.5 -11t-5.5 -9q-42 -70 -86 -137t-84 -138l-3 -3q-10 -20 -22 -41q-14 -27 -29.5 -59t-33 -64.5t-37.5 -64.5t-43 -60q-14 -25 -24 -30h-2q-3 -3 -7 -5
q-29 -27 -61.5 -45.5t-70.5 -25.5q-3 0 -3 2q-2 9 0 10t11 11q2 2 4 0.5t0 -3.5l-6 -6t-6 -7q1 0 1 -2q21 3 40.5 11.5t37.5 21.5q-2 5 -3 5q0 6 5 3q2 -2 3 -4h1q11 13 21 27t18 28v2h-1q3 3 7 9q20 37 36.5 75.5t37.5 72.5q4 7 7 12.5t6 10.5t6 10.5t8 13.5q16 38 42.5 83
t52.5 85q15 29 32 55.5t35 43.5q9 19 18.5 37.5t19.5 38.5q3 6 6 12.5t8 14.5q3 8 8 16q16 32 31.5 63.5t31.5 63.5q17 32 33.5 66t37.5 63q1 2 2 3.5t2 3.5l9 21q4 5 7 2q8 16 17.5 29.5t21.5 24.5h1q2 2 2.5 4.5t2.5 4.5q2 6 5 13t7 15q-66 -50 -145.5 -79.5t-153.5 -37.5
q-51 -5 -97.5 -2t-91.5 2.5t-89.5 -11t-92.5 -43.5q-28 -20 -52 -45t-43 -54q-18 -28 -33 -68.5t-20 -83t4 -82.5t40 -66q21 -18 48.5 -27t58 -10t61 5.5t57.5 20t48.5 33t32.5 44.5q6 14 7.5 29.5t4.5 30.5q0 3 2.5 2.5t2.5 -3.5q-3 -16 -6 -31t-7 -31q-2 -12 -13 -26.5
t-24 -22.5q-38 -25 -71.5 -39t-66.5 -16.5t-67.5 6t-73.5 28.5q-18 10 -28.5 33.5t-15 50.5t-4.5 53t3 43q2 14 7 32.5t12 37t15.5 35.5t17.5 28q35 44 71 79t90 57q38 15 76.5 19t77.5 3t78.5 -3.5t78.5 1.5q36 4 76 13.5t80.5 25t79.5 36.5t73 47q9 17 19 33t21 27h-6
q-2 -1 -4 -1v2q-4 2 0 4v1h2q5 1 8.5 1.5t8.5 0.5l2 2q5 5 8.5 11.5t8.5 11.5q4 0 4 -2v-1q0 -4 -4 -4q-3 -3 -7 -11q9 3 17 2q5 7 9.5 14t9.5 15q0 3 1 4q1 0 2 1t1 1.5t1 1.5q0 -1 1 -1q3 0 3 -3q-10 -17 -23 -35h2l4 2q2 2 4 0t0 -4q3 -1 5.5 -2t5.5 -2q1 0 5 2
q10 2 6 -6h4q2 -1 2.5 -3t-2.5 -2h-3q0 -1 -0.5 -1.5t-0.5 -1.5q2 0 3 -1t-1 -3q-13 -14 -23 -23.5t-18 -17.5q-27 -41 -46.5 -80.5t-35 -81t-29 -86t-27.5 -93.5q-17 -57 -31.5 -114.5t-31.5 -114.5q-8 -25 -15.5 -49.5t-16.5 -49.5q-7 -20 -15.5 -39.5t-16.5 -39.5
q-5 -11 -1 -28t14 -30q1 0 1.5 0.5t2.5 0.5q3 2 4 -0.5t-2 -4.5h-1q5 -3 8.5 -6t6.5 -5q4 -2 14 0q4 1 8 4q9 7 20.5 13.5t25.5 14.5q2 2 3.5 2.5t3.5 2.5l5.5 5.5t7 6.5t5.5 5t2 1q20 21 41.5 42t42.5 42q-2 3 1 6q19 23 41.5 47t46.5 44q51 56 100.5 113t94.5 118
q18 25 34.5 50t33.5 51q8 16 18.5 31.5t23.5 31.5q2 2 3.5 4.5t3.5 4.5q13 18 28 34t31 32q33 38 70 73q4 5 7 10t7 10q5 8 12.5 23t16 31t18 30t19.5 21l1 1l6 3q3 3 3 -1q15 4 30 4.5t30 0.5h5l-1 -1q1 -1 0.5 -2.5t-1.5 -1.5t-1 -0.5t-1 -0.5q-2 -4 -4.5 -7t-4.5 -6
q3 -9 -2 -18.5t-13 -18.5q-9 -26 -26.5 -54.5t-38 -56.5t-40.5 -54t-34 -47q-20 -29 -37.5 -60t-35.5 -63q-56 -95 -111.5 -191t-108 -193.5t-101 -197.5t-89.5 -202q-6 -13 -13.5 -33.5t-16 -46t-16.5 -54.5t-15 -59q47 15 97.5 15t94.5 -20q13 -6 27.5 -14t25.5 -19.5
t16.5 -25.5t-0.5 -32q-8 -22 -11 -32t-6.5 -16.5t-10 -15.5t-19.5 -29q-21 -32 -56.5 -53t-71 -24t-65.5 15.5t-41 67.5q-7 31 -3 59.5t7 59.5q2 14 3 27t3 25q-47 -19 -88.5 -48.5t-86.5 -53.5q-68 -36 -137.5 -71t-142 -62.5t-147.5 -44.5t-154 -16q-46 1 -85 22t-66 55
t-39 76.5t-5 86.5q11 60 44.5 97.5t80.5 72.5q2 1 3.5 -0.5t-0.5 -3.5q-19 -15 -33 -24.5t-25.5 -20t-21.5 -24t-21 -35.5q-33 -66 -24.5 -122.5t45 -96.5t94 -60.5t122.5 -15.5q63 5 134.5 27t143 52.5t139 65.5t121.5 67q32 19 62 39t63 36q14 7 26 11q4 26 9.5 49.5
t12.5 47t16.5 48.5t21.5 54q42 103 90.5 202.5t101.5 197t108.5 193.5t111.5 191q3 5 12.5 21t20.5 35t23 37.5t20 30.5q13 19 32 42.5t37.5 49.5t35.5 52.5t28 51.5q-2 -3 -4.5 -5.5l-4.5 -4.5q-1 -1 -1 -2h-1q-1 -1 -4 -1q-10 -14 -20 -26.5t-20 -25.5q0 6 -6 6q-1 0 -1 1
q0 -1 -0.5 -1t-0.5 -1q-11 -10 -20 -24.5t-17 -29.5q-19 -21 -36 -44l-34 -46q-16 -13 -30.5 -31t-26.5 -38q-31 -33 -58.5 -68t-48.5 -73q-2 -3 0 -5q-1 -1 -1.5 -1t-1.5 -1zM513 -553q-17 -3 -39 -11q-6 -32 -10 -63t-3 -60t7 -53.5t20 -42.5q19 -25 43 -30t49 3.5
t50 27.5t45 42.5t34 47.5t18 44q5 23 -5.5 39.5t-29.5 28t-43.5 18t-50 9.5t-48.5 3t-37 -3zM5 -137q-4 -5 -6.5 -11t-5.5 -12q5 8 10 15t11 13q3 6 5.5 12t5.5 13q1 2 1 3.5t1 3.5q-6 -9 -11.5 -18.5t-10.5 -18.5zM303 -98q2 -11 12 -20q3 2 13 6v1q-1 0 -1 0.5t-1 0.5
l-1 1q-11 2 -22 11zM420 -76q7 5 14.5 11.5t16.5 14.5q-3 -2 -5.5 -3t-4.5 -2q-2 -2 -4.5 -3.5t-4.5 -3.5t-5.5 -6t-6.5 -8zM1097 776q2 5 7 11v1q-1 1 -1 2q-5 -5 -8.5 -11t-7.5 -13q2 3 5 5.5t5 4.5zM1059 704q-2 -3 -4 -6.5t-4 -6.5q1 -1 1 -4q-4 -5 -7 -10.5t-7 -10.5
l1 -1q0 1 0.5 1t0.5 1q2 2 2.5 3t2.5 3t3 4t3 4q2 6 4 11.5t4 11.5zM646 149q-2 -2 -4 -2q-3 -4 -6.5 -7.5t-6.5 -7.5l6 4t5 4zM759 315q1 1 2 1.5t2 2.5q3 5 6.5 10t6.5 10q-5 -6 -9 -12zM189 182q-3 -4 -5.5 -7t-5.5 -7q2 2 5 1zM-90 -313q3 2 6 5l5 5q-2 0 -3 1
q-2 -3 -4 -5.5t-4 -5.5zM872 472q-1 0 -2 1q-2 -2 -3.5 -5t-3.5 -5q4 3 9 9zM1138 799l3 3h-8q1 -1 1 -1.5t1 -1.5h3zM-9 -223q4 4 8 10q-1 -1 -2 -1.5t-3 -2.5zM134 85q-2 -2 -4 -4.5t-4 -4.5l-3 -6zM54 -114q-5 -6 -10 -20q4 10 10 20zM393 -94q-2 0 -3 1q0 -1 -1 -1
q0 -1 0.5 -1.5t0.5 -1.5q1 1 5 3h-2zM-35 -257q-4 -4 -7 -6q0 -2 -1 -3q6 6 8 9zM1092 690q3 4 5.5 7t5.5 7l-4 -4q-2 -2 -3.5 -4.5t-3.5 -5.5zM726 281q0 -1 1 -1q1 2 2 3.5t2 3.5q-2 -2 -2.5 -3t-2.5 -3zM521 10l4 4q-4 -2 -5 -2l-1 -1v-1h2zM60 -100q3 4 7 12
q-3 -4 -7 -12zM1111 792q1 1 1.5 2t1.5 2q-4 -2 -5 -3q1 0 2 -1zM336 -120q2 1 3.5 1t3.5 1q-3 0 -6.5 -1t-6.5 -2q2 0 3 0.5t3 0.5zM386 493q-1 -1 -1 -3q2 2 2.5 4t2.5 4l-2 -2q0 -1 -1 -1q-1 -1 -1 -2zM1128 800q0 -1 0.5 -1.5t0.5 -1.5l2 1q0 1 -0.5 1t-0.5 1h-2z
M-73 -299q2 2 2.5 3t2.5 3v2q-2 -2 -2.5 -4t-2.5 -4zM-57 -282q1 2 1 6l-2 -7q1 0 1 1zM1129 739q1 0 3 2q0 1 0.5 1.5t0.5 1.5l-1 -1q-1 -1 -1 -2q-1 -1 -2 -1v-1zM1072 736l3 3v3zM1159 792q-1 -2 -2 -2.5t-2 -2.5q3 3 5 4l1 2q-1 -1 -2 -1zM554 735q-1 -1 -1 -2t-1 -2
q3 3 4 5q-1 -1 -2 -1zM295 300q-1 -1 -1 -2l1 -1l1 1q-1 1 -1 2zM9 -201l2 4q-2 -2 -3 -4h1zM406 -57q1 1 1.5 2t1.5 2l-3.5 -3.5t0.5 -0.5zM245 217q-2 -2 -3 -4q2 2 3 4zM388 -91q-1 0 -2 -1h2v1zM573 749q-1 -1 -1 -2l2 2h-1zM-39 -226l2 2h-1zM363 426q-1 -1 -1 -2t2 3z
M1129 739h-1v-1zM1176 807q-1 0 -1 -1zM546 764l-3 -2l1 1q1 0 2 1zM1111 714q-1 0 -1 -1z" />
    <glyph glyph-name="N" unicode="N" horiz-adv-x="723" 
d="M-61 -177q-5 1 -7.5 2t-4.5 2q-3 0 -3 3q-4 9 9 13l1 2q-1 0 -1 0.5t-1 0.5q-1 4 2 7t6 3q4 10 9 16q0 1 0.5 1t0.5 1q-1 1 -1 2q1 1 1 1.5t1 1.5q1 2 1.5 5t2.5 6q2 8 6 14q6 14 14 19q1 1 5 1q1 2 1.5 4t1.5 4l1 1v1h1l2 6t2 5q1 3 5 3l2 5q2 2 3 5v1h1
q21 42 45.5 85.5t50.5 75.5q38 67 77 131.5t74 133.5q13 25 24.5 50.5t22.5 51.5q2 4 4 9t6 12q14 30 30 60t37 57q6 15 14 30t17 30q8 21 13.5 37t22.5 24q3 4 5.5 7t4.5 5q8 2 8 -6l10 2l6 3q14 11 22 8q2 0 1 -4q-2 -2 -2.5 -3t-2.5 -2h3q2 -1 2.5 -3t-2.5 -2h-5l-3 -3h6
q1 0 3 -2q0 3 3 3h3q2 0 2 -4q-2 -8 -8.5 -13.5t-10.5 -12.5q-4 -6 -8 -13t-8 -15q-9 -21 -19.5 -41t-23.5 -39q-11 -21 -22 -41l-22 -40q-9 -17 -27 -47.5t-40 -69t-46.5 -81.5t-48.5 -84.5t-45 -78.5t-36 -63q-6 -11 -12.5 -22t-12.5 -22q19 20 37.5 38t36.5 37
q38 42 74 85.5t71 85.5q54 63 107 125.5t116 116.5q30 26 48.5 40.5t35 25.5t37 23t53.5 32q23 14 44 28.5t44 27.5q9 5 23.5 13t30.5 13q1 4 5 5.5t10 -2.5q1 0 2 0.5t2 0.5q5 3 11 0q13 0 22.5 -6.5t13.5 -22.5q1 -2 2 -3.5t2 -3.5q3 -12 -3 -29q-3 -26 -12.5 -54
t-21.5 -54.5t-24 -49t-19 -37.5q-14 -26 -33 -59.5t-40 -69.5q0 -1 -0.5 -1t-0.5 -1l-1 -1q-23 -40 -46 -78t-41 -68q-3 -4 -4 -8l-2 -2q-1 -2 -2 -3.5t-2 -3.5q-23 -42 -46.5 -81.5t-45.5 -81.5q-21 -40 -41.5 -80t-37.5 -82q-5 -9 -8.5 -19t-7.5 -20q-10 -32 -21 -63.5
t-19 -61.5q-2 -5 -2.5 -10.5t-2.5 -11.5q-2 -13 -4 -25.5t-4 -25.5q6 -17 4.5 -40t-2.5 -42q2 -8 3 -15t3 -14q4 -8 3 -12q15 -48 44 -88t67 -77q60 -58 129 -83t142.5 -27t149.5 15t150 44t144 59t131 61q50 24 95 44.5t82.5 47.5t66.5 64.5t47 95.5q0 3 2.5 2.5t2.5 -3.5
q-4 -14 -7.5 -27.5t-9.5 -27.5q-22 -45 -60 -78.5t-83 -59t-92.5 -46.5t-89.5 -42q-48 -23 -108 -51t-124 -52t-127.5 -39.5t-117.5 -12.5q-29 2 -59 -0.5t-59 6.5q-28 8 -57.5 13.5t-53.5 21.5q-34 23 -53.5 35.5t-31.5 21t-19.5 16t-17 19.5t-24.5 32t-42 54
q-11 13 -16.5 27.5t-8.5 31.5q-2 1 -2.5 2.5t-2.5 3.5q-2 -2 -3 -2q-1 1 -3 1t-3 1q-5 14 -9.5 27.5t-6.5 27.5l-2 6t-2 7h-1v6q-4 20 -4 45l-2 2q-1 6 -1 18t0.5 26.5t3.5 29t8 23.5q3 18 8 35.5t11 34.5q0 3 2 5q8 32 18 62.5t25 59.5q3 7 5.5 13.5t5.5 13.5
q32 76 70.5 145.5t80.5 141.5q0 2 1 3q11 23 22 41t22 34q2 2 3 5t3 5q8 17 19 35.5t24 37.5q29 47 52 92l6 12t7 12q8 14 14 25.5t11 22.5q14 31 26 63t25 63q-1 5 -0.5 9.5t0.5 9.5q-2 4 -5 6t-5 4q-1 1 -2 1t-2 1q-3 0 -3 2q-6 1 -12.5 0.5t-12.5 -2.5
q-32 -16 -61.5 -37.5t-47.5 -31.5q-32 -19 -52 -30.5t-37 -22.5t-35.5 -25.5t-47.5 -39.5q-63 -54 -115.5 -116t-106.5 -125q-37 -45 -72 -86t-74 -84q-22 -23 -45 -45t-45 -45q-9 -16 -17.5 -31.5t-16.5 -30.5q0 -16 -15 -44.5t-33 -56.5q-5 -14 -10 -27.5t-10 -27.5
q-1 -2 -3 -1.5t-2 2.5q2 5 3 8.5t2 7.5q-2 -4 -6 -8q-3 -3 -4 -1q-3 -4 -5.5 -7.5t-4.5 -5.5t-5.5 -0.5t-1.5 5.5l1 4q-1 -1 -5 -1q-1 -1 -8 -3q-5 -1 -9 -1.5t-6 -0.5h-1l2 -3q0 -1 -1 -3t-3 0zM679 205q5 9 10.5 18.5t11.5 19.5q-2 -1 -7 -6q-5 -8 -10 -19t-11 -24
q1 2 2.5 4.5t3.5 6.5zM819 529q-1 0 -1 1q-1 -2 -2 -2t-2 -2q-2 -5 -4.5 -8.5t-4.5 -8.5q5 5 8.5 10t7.5 10h-2zM837 572q-1 -3 -3 -5q3 3 5.5 6.5t5.5 6.5v2q-2 -1 -3 -2.5t-2 -1.5l-1 -1q-1 -2 -1 -2.5t-1 -2.5zM704 249q2 3 4.5 6.5t4.5 7.5q-3 -4 -6 -7t-5 -6h1
q0 -1 1 -1zM417 -304q-2 -11 -3 -24q1 9 3 14v10zM496 744q-1 0 -2 1q1 -3 -1 -5q-1 -1 -2 -1.5t-2 -1.5l-2 -6q2 3 4.5 6t4.5 7zM301 417l-2 -2q-2 -4 -2.5 -7t-1.5 -5l1 1zM791 475q1 2 2 4.5t2 4.5q-2 -3 -3.5 -6t-3.5 -6q1 0 1 1l1 1v-1q0 1 1 2zM746 338q1 1 1.5 2
t1.5 2q-1 0 -1 1q-1 -1 -1.5 -2t-1.5 -2t-1 -2q1 0 1 0.5t1 0.5zM858 523q2 5 5 9.5t5 9.5q-2 -3 -4 -6.5t-4 -6.5q0 -1 -2 -3l1 -1q-1 0 -1 -2zM900 622q-2 -2 -3 -2v-1h3v3zM341 571q3 3 5 7zM747 320q-5 -5 -6 -7l5 5zM69 50l3 5q-1 -1 -1.5 -2t-1.5 -2v-2v1zM123 150
q0 1 0.5 1.5t0.5 2.5l-3 -6zM868 743q1 0 1.5 -0.5t2.5 -0.5q-1 0 -1 2zM417 690q-2 -2 -3 -5q2 2 3 5zM414 685q-2 -2 -2 -3q0 -3 2 3zM27 -7l-1 -3h1v3zM674 208h-1l-2 -3zM96 106q1 0 1 0.5t1 0.5q0 2 1 3q-1 -1 -1.5 -2t-1.5 -2zM432 -258l-1 -4q1 1 1 4zM750 341
q0 -1 1 -1v1h-1zM226 326l-1 -1h1v1zM88 36l-1 -1z" />
    <glyph glyph-name="O" unicode="O" horiz-adv-x="816" 
d="M853 769q2 -1 2.5 -3t-2.5 -2h-54q-6 -1 -11.5 -1h-11.5q-14 -5 -27 -6q-10 -2 -19 -1t-20 1q-7 -2 -14 -2.5t-14 -2.5q-8 -8 -23 -12.5t-29 -7.5q-1 -1 -2 -1.5t-2 -1.5q-60 -39 -117 -90.5t-109.5 -110.5t-99 -124t-85.5 -132q5 2 5 -3q-5 -8 -12.5 -19.5t-15.5 -25.5
q-5 -10 -10.5 -19t-12.5 -17q-11 -22 -20.5 -43t-17.5 -41q-12 -30 -24.5 -66t-21 -74t-11 -75.5t4.5 -71.5q3 -13 7 -28.5t10 -30.5t14 -27t20 -19l24 -3q5 -4 1 -5q16 -2 33.5 1.5t34.5 6.5h2q6 2 11 3l10 2q32 10 60 32t62 40q20 11 41 20.5t39 21.5q39 25 73.5 58
t65.5 70t59.5 75t56.5 74q19 25 40.5 55t41.5 58t36 50t24 32l10 22t9 19q14 28 26 67t19 80.5t7.5 81.5t-8.5 69q-4 13 -11 31t-18 34t-25.5 25t-33.5 3q-10 -3 -17.5 -9.5t-16.5 -11.5q-7 0 -2 5q9 6 17 13t18 9q20 5 36.5 -4t29.5 -24.5t21 -34.5t11 -34q5 -17 10 -41.5
t3 -42.5q-4 -25 -8 -52.5t-10 -54.5t-14.5 -53.5t-20.5 -48.5q-3 -5 -8 -16t-12 -24.5t-14.5 -26.5t-14.5 -20q-15 -25 -32.5 -48t-33.5 -45q-40 -54 -81.5 -106t-86.5 -103q-42 -48 -83 -87.5t-98 -68.5l-42 -22t-41 -24q-20 -11 -34.5 -23t-32.5 -20q0 -2 -2 -4
q-4 0 -7.5 -0.5t-8.5 -1.5q-2 -1 -4 -1t-4 -1q-12 -3 -25 -6.5t-26 -5.5t-25.5 -1.5t-21.5 5.5l-9 6q-23 4 -44.5 12t-39.5 22q-12 11 -12 24.5t-5 27.5q-13 35 -16 68.5t1 67.5q-2 24 6 54q-2 11 9 28q5 13 9.5 24t9.5 20q2 5 4.5 11t5.5 12q0 1 0.5 1.5t0.5 2.5q1 0 1 1
t1 3q2 6 4.5 12t5.5 11q5 14 12 29t15 29q17 34 35 67.5t35 66.5q5 11 11.5 21.5t14.5 21.5q12 19 22.5 34.5t17.5 23.5h1q11 17 22.5 32.5t20.5 30.5l1 2q1 1 1 1.5t1 1.5t1.5 2t1.5 2q22 38 64.5 81t86.5 77q4 3 7 5.5t7 5.5q14 11 27 19.5t25 16.5q4 3 7 6t6 5h4
q13 10 25.5 21.5t26.5 19.5q9 8 19 13t20 2q1 0 2 -1q4 1 8 5h1l1 -1q5 2 11 5t12 5l2 1v-1q2 0 4 -2q8 2 16 3.5t16 3.5q1 0 1.5 -0.5t1.5 -0.5q8 2 17 2t18 -1q16 2 31.5 3.5t31.5 1.5q14 3 28 4.5t29 -4.5h13zM398 590q1 2 8 9q2 5 5 8.5t6 7.5q-11 -9 -21.5 -19.5
l-21.5 -21.5q6 5 11 9t10 7h3zM17 -141q0 -3 2 -11.5t5 -20t6.5 -24t6.5 -24.5v11q-1 4 -2 7.5t-2 5.5q-11 35 -17 62q0 -2 0.5 -3t0.5 -3zM92 126q1 4 2.5 7.5t3.5 8.5l-1 -1q-3 -5 -6 -10.5t-5 -10.5t-4.5 -9.5t-4.5 -9.5t-3 -8.5t-2 -6.5v-1q2 5 5 10t7 12q2 5 4 9.5
t4 9.5zM120 -286q-15 13 -20 22v-1q0 -2 -1 -3q5 -9 6 -11q0 -3 -2 -3l8 -2t9 -2zM19 -87q-1 -5 -1.5 -9.5t-0.5 -9.5l2 -1q1 0 1 -1q0 -2 1 -3q0 10 3 18q-4 2 -5 6zM90 -257q3 -2 5 -5q1 1 3 1q-4 5 -7.5 11t-5.5 13v-1q0 -3 -3 -3q1 -1 2 -1.5t2 -1.5t1 -4l-1 -2
q1 -2 2 -3.5t2 -3.5zM261 366l-3 -6t-4 -10q4 7 8.5 13t9.5 14l-1 -1q-3 -3 -6 -1l-6 -8q0 -1 2 -1zM27 -83q0 4 1 5q-2 11 0 20q-2 0 -2 2q-1 0 -1 -1q0 -15 1 -18q0 -6 1 -9v1zM51 -254l5 -5t6 -5q-9 8 -11 16v2h-1q1 0 -5 2q3 -7 6 -10zM86 82q7 10 15 24q0 1 0.5 1.5
t0.5 1.5q1 2 1.5 3.5t1.5 3.5q-5 -10 -9 -17t-7 -11zM70 -73q0 -8 1 -10q1 8 1.5 16.5t2.5 17.5q-2 -6 -2.5 -12t-2.5 -12zM25 -53q3 15 6 27q-1 0 -1 -2h-1l-2 -10l-2 -10v-5zM158 188q3 5 6 9.5t6 9.5q2 2 2.5 4.5t2.5 5.5zM555 706l-11 -11h1q2 2 4.5 4t5.5 4l1 2z
M645 747q6 2 12 3.5t11 3.5l-1 -1zM569 702q3 1 6 4q0 1 -1 1zM89 15q-1 -1 -1 -5q1 2 1.5 4t1.5 4q-1 -1 -1 -1.5t-1 -1.5zM64 -93q0 -3 1 -4v6zM381 537q1 2 2 3t2 3l-3 -3q-1 -1 -1 -3zM153 -296q-1 1 -5 1q1 0 2 -0.5t3 -0.5zM29 -101v3l-1 -2zM244 406q-1 -1 -1.5 -2
t-1.5 -2q1 1 1.5 2t1.5 2z" />
    <glyph glyph-name="P" unicode="P" horiz-adv-x="1064" 
d="M295 -270q3 6 6 11.5t6 10.5q4 6 7.5 12.5t8.5 14.5q5 9 9.5 17.5t10.5 16.5q6 14 11 24t8 12q1 1 3 0q26 49 53 95t55 94q2 3 3.5 6.5t3.5 6.5q14 24 29 48t29 48q3 4 8.5 14.5t12 24t14.5 28t16 26.5q1 0 1 1t1 3q2 10 3 13l1 1v2q2 7 4.5 13.5t6.5 14.5l1 1l1 2
q5 11 11.5 22t12.5 22q2 2 4.5 6.5t6.5 12.5q4 11 9.5 20.5t11.5 18.5q14 24 29 50t30 48q8 15 17 25q2 2 3 2l2 2q-1 0 -1 1q-1 0 -1 1q-2 1 0 3v2q-2 0 -10 2q-3 5 1 5h5q0 -1 0.5 -1t0.5 -1q5 -1 9 -1.5t6 -0.5q4 4 9 5q3 0 3 -2t1 -3q21 0 34 -4q3 0 2.5 -1.5t-1.5 -3.5
q-15 -8 -26.5 -22.5t-21 -33.5t-18 -40.5t-18.5 -42.5q-13 -26 -24.5 -48t-23.5 -45q-2 -5 -4.5 -9.5t-5.5 -9.5q-1 -1 -1 -1.5t-1 -1.5l-22 -42t-24 -44q-34 -60 -68.5 -119.5t-70.5 -117.5v-1q-17 -37 -46 -72q-41 -62 -84 -123q-3 -8 -8.5 -15t-12.5 -14
q-13 -18 -31.5 -44.5t-39 -52.5t-42 -48.5t-41.5 -32.5q-35 -19 -74.5 -25t-77.5 -18q-32 -10 -64 -18t-67 -6q-46 4 -73.5 35.5t-37 73.5t-2 85.5t31.5 72.5q24 30 43 51.5t36 38t34.5 29t39 24t50 23t67.5 26.5q23 9 48.5 3.5t50.5 -7.5q13 -1 23 -8t19 -16t17.5 -19
t18.5 -18q0 -1 -1 -3t-3 0q-19 14 -35.5 32t-39.5 26q-47 17 -101 4.5t-104.5 -42t-92 -70t-63.5 -79.5q-18 -30 -26.5 -70.5t-2 -78.5t31 -67t72.5 -37q24 -4 41.5 -1.5t34 8t33.5 12.5t39 12q28 6 50 10.5t39 9.5q5 10 15.5 16t21.5 11q4 4 10 7q-2 0 -2 3q3 7 10 12.5
t14 10.5q8 16 22 34.5t26 21.5q-3 3 0 4q1 2 7 8q9 15 17.5 29.5t19.5 27.5q7 9 10 11zM696 130q-2 0 -2.5 2t1.5 3h2v2q0 3 2.5 2.5t2.5 -3.5v-1q14 1 27 0.5t27 -0.5q-8 4 0 6v1l1 -1q8 2 14.5 3t14.5 2q7 7 15 10q18 6 36 9t35 8l1 1v-1h4q2 0 3 0.5t3 0.5q6 2 10 3
q14 8 30 14.5t33 14.5q11 7 22 13.5t22 14.5q18 20 35 40t37 40l30 30t29 31q7 10 13 21t13 22q2 3 4 6.5t4 7.5q5 16 9.5 32.5t6.5 29.5q2 10 3 19.5t3 18.5q0 25 10 48q1 4 1.5 8t1.5 8q-3 9 -4 18t3 17q0 1 -0.5 1.5t-0.5 1.5q-1 3 -3 7q-4 8 -7 16.5t-8 17.5q-3 3 -5 7
q-1 0 -1 2q-2 2 -2 5q-1 1 -1.5 2t-1.5 2q-3 0 -3 3q-8 8 -22 17t-21 20q-2 0 -2 3q0 1 -0.5 2t-0.5 2q-66 36 -138.5 49.5t-147 9t-148 -26t-141 -56t-126.5 -80.5t-104 -100q-13 -15 -29.5 -41t-32.5 -58t-30 -67t-22.5 -68.5t-9 -62.5t10.5 -48q13 -21 34 -31
q7 -3 26.5 -4.5t41 -1.5t40.5 1t26 3q3 2 4 -0.5t-2 -4.5q-15 -5 -29.5 -3t-30.5 1q-9 0 -20 -1.5t-22.5 -2t-21 1t-15.5 6.5q-8 8 -17 15.5t-18 15.5q-10 9 -11.5 25t0.5 29q10 72 33 133.5t61 124.5q48 81 123 142.5t164 101.5t185.5 56.5t188.5 6.5q18 -2 40.5 -6t47 -11
t48.5 -15.5t44 -19.5q2 0 2 -2q8 -5 15 -10l14 -10q4 -4 8 -7.5t9 -7.5q23 -12 35 -33q2 0 2 -3q0 -1 1 -2q5 -5 10 -12t10 -15q19 -33 22.5 -69.5t-3.5 -74t-21.5 -73.5t-32.5 -67q-27 -48 -65.5 -89.5t-89.5 -67.5q-13 -7 -26.5 -11.5t-26.5 -12.5q-25 -14 -43.5 -25.5
t-47.5 -17.5q0 -1 -1 -1h-1l-1 -1l-1 1h-1q-13 -3 -25.5 -4.5t-25.5 -3.5h-3q-3 -1 -15 -1q-4 -1 -6.5 -2t-4.5 -2q2 -1 4.5 -2t5.5 -2h-16q-10 -5 -21 -8.5t-22 -1.5q-6 -1 -14.5 -1.5t-17 0t-16 3t-11.5 7.5h-4q1 0 1 0.5t1 0.5q-2 6 -2 5h-1zM1184 374q-1 -1 -1 -2t-1 -2
h2l1 1q5 8 9.5 17t9.5 18q-1 -1 -2 -1.5t-2 -1.5q0 -2 -1 -3l-2 -2q-2 -5 -5 -10.5t-6 -10.5v-2h-1zM1038 265q5 4 9.5 8t9.5 9q5 9 13 20q-9 -9 -16.5 -18.5t-15.5 -18.5zM379 -141q2 2 2.5 4t2.5 4q4 7 7 14t7 14l-10 -18t-10 -19zM795 523q5 0 2.5 0.5t-7.5 0.5
q2 -3 -3 -5h-2q2 -3 0 -5q7 7 10 9zM360 -212q-1 -2 -1 -2.5t-1 -2.5q5 8 9.5 14.5t9.5 12.5q-3 -3 -5.5 -6.5t-5.5 -6.5zM749 520l-3 -3q1 -1 1 -2l5 5h-3zM759 484q1 -1 1 -3q3 6 8 11q-4 -3 -9 -8zM1005 204q6 2 11 5v1q-4 -2 -6.5 -3.5t-4.5 -2.5zM180 -423
q-2 -2 -3.5 -4t-2.5 -3q1 1 2.5 2t3.5 3v2zM832 141h-4q-2 -2 -3 -2q5 0 6 1zM780 125q-1 -1 -2 -1t-2 -1l-1 -1l9 3h-4zM226 -368q-5 -5 -9 -12zM272 -322q0 -1 -1 -1l1 -1q2 2 3 4t3 4zM762 514q2 1 3.5 1.5t3.5 1.5q-6 0 -7 -3zM773 500q2 2 3 5q-3 -3 -4 -3q1 -1 1 -2z
M601 182q0 -1 -0.5 -1t-0.5 -1q2 2 2.5 3.5t2.5 3.5h-1zM707 124q2 -1 2.5 -1t2.5 -1v2h-5zM703 130q0 -2 1 -2t3 2h-4zM454 -11q-4 -4 -5 -8zM1242 560q0 -1 0.5 -1.5t0.5 -1.5v5h-1v-2zM346 -235q0 2 0.5 2.5t0.5 2.5l-2 -4zM805 132h-3l2 -1zM477 -35q2 2 2 3l-2 -2v-1z
M1181 364q0 1 0.5 1.5t0.5 1.5t1 1l-2 -2v-2zM1241 525q0 -1 -0.5 -1t-0.5 -1h1v2zM449 -19q-1 0 -1 -2q1 1 1 2zM1238 505q0 -1 -1 -2h1v2zM503 6q0 1 1 2h-1v-2zM772 122q-1 -1 -2 -1q2 0 3 1h-1zM919 173q-1 0 -1 -0.5t-1 -0.5h1zM1238 596v1v-1z" />
    <glyph glyph-name="Q" unicode="Q" horiz-adv-x="825" 
d="M370 -99q8 -17 15 -35t14 -37q47 20 87.5 48t66.5 48q60 50 119 116.5t109 142t86 157t49 161.5h-2q-18 -4 -39 -8t-36 7q-11 8 -25.5 18t-15.5 24q-2 40 20 60.5t63 18.5q16 -1 26 -11t15 -25.5t5.5 -35t-1.5 -38.5q33 9 78 26.5t89 36t79 34t49 20.5q6 3 32 12t56.5 18
t59 13.5t40.5 -2.5q14 -8 28 -16.5t28 -16.5q2 -2 0.5 -4t-3.5 0q-14 8 -26.5 18.5t-28.5 12.5q-26 4 -60.5 -2t-73 -18.5t-78.5 -29t-76 -32.5t-65 -29.5t-46 -20.5q-20 -8 -40.5 -15.5t-42.5 -12.5q-3 -28 -8.5 -50.5t-7.5 -27.5q-23 -71 -59 -141.5t-81.5 -136
t-99.5 -124.5t-111 -107q-27 -23 -55 -47t-63 -35q-10 -3 -19.5 -5.5t-19.5 -5.5q2 -8 4 -14.5t4 -14.5t3 -22l2 -28t1.5 -26t0.5 -16q1 -12 3.5 -27.5t5.5 -31.5t7 -32l7 -28q37 -125 118 -227q6 -4 8 -6q2 0 3 -1v-7l-2 2q2 -3 5 -6t6 -7q29 -11 63 -15.5t76 -9.5
q46 -5 96.5 6t100 31.5t95 47t81.5 50.5q35 24 67 51t66 51q2 1 3.5 -0.5t-0.5 -3.5q-47 -41 -98 -79.5t-106.5 -70.5t-115 -55t-122.5 -32q-17 -2 -33.5 -5.5t-33.5 -0.5q-26 5 -57.5 9t-63.5 12q-1 -1 -2 -1q-6 2 -10 4q-36 10 -67 29t-49 54q-14 27 -27 54.5t-27 54.5
q-12 24 -19 52t-12 58h-1v6q-1 3 -1 6t-1 5q-5 15 -6 31.5t0 33.5q-2 27 -4.5 53.5t-5.5 52.5q-9 -3 -18.5 -6.5t-18.5 -6.5q-12 -3 -23.5 -2t-23.5 4.5t-23.5 8t-23.5 7.5h-1q-40 6 -61 30.5t-29 59t-6 73.5t8 75q-44 -8 -93 -29t-95 -46.5t-85 -52.5t-63 -46
q-27 -22 -54.5 -48t-47.5 -57q-4 -7 -10.5 -19t-9.5 -23t0.5 -19t18.5 -7q3 0 3 -1.5t-2 -3.5q-15 -2 -21 3.5t-6 14.5t4 20t9 22q20 37 50.5 67.5t62.5 56.5q78 63 160.5 107.5t178.5 63.5q3 19 7 35t7 30q23 97 74 181t112 161q2 2 3.5 4.5t3.5 4.5q6 13 14.5 25.5
t17.5 24.5q15 11 29.5 26.5t27.5 31.5q2 2 4 3t4 3q3 4 7 7q13 10 25.5 20t24.5 20l4 6t4 5q8 3 19 10q9 5 17 11l16 12q22 16 43 27q8 2 15 4.5t15 4.5q11 -1 29 -0.5t37 2.5q-12 -5 -25.5 -9t-26.5 -7q-13 -8 -27 -17.5t-26 -18t-20 -14.5l-8 -6q-42 -35 -81 -72
q-1 -2 -2 -3.5t-2 -3.5v-1h-1q-2 -4 -4 -7l-4 -6q-1 -2 -3 -4q-8 -8 -15 -16t-13 -18q-6 -6 -9 -8q4 5 8 11t9 12q-7 -8 -12.5 -15.5t-10.5 -12.5q-2 -2 -2.5 -4t-2.5 -4q-10 -10 -18.5 -20.5t-16.5 -22.5q-2 -4 -1 -5q-8 -11 -16.5 -20.5t-17.5 -17.5q-8 -12 -15.5 -24.5
t-14.5 -24.5q-4 -8 -8 -15.5t-9 -15.5q-6 -11 -12 -22.5t-11 -22.5q-6 -23 -17.5 -47.5t-24.5 -50.5q-2 -8 -4.5 -14.5t-4.5 -13.5q-3 -8 -9.5 -33.5t-14.5 -60.5q8 -2 15.5 -3.5t15.5 -3.5q30 -5 51 -27t35 -53h1q5 -8 10.5 -17t10.5 -18q1 0 3 -2q7 -7 9 -20
q2 -3 3.5 -6.5t3.5 -6.5q1 -1 1 -1.5t1 -1.5zM238 46q-13 6 -29 9q-8 -40 -14 -84t-3 -79q7 -11 6 -20q-1 -1 -1.5 -1t-1.5 -1q1 -1 1 -5q1 0 1 -2q3 -12 11 -24l2 -2l1 -1q10 -10 19 -15h1q29 -17 62 -16.5t69 11.5q-13 32 -25 73t-20 78q0 3 1 3q-14 23 -33.5 42.5
t-46.5 33.5zM843 508q17 1 34 -0.5t34 1.5q2 0 3 0.5t3 0.5q1 6 1.5 12.5t1.5 12.5q3 34 -6.5 52t-25 23.5t-33.5 1.5t-32 -14t-20 -24t3 -28q7 -11 17.5 -19.5t19.5 -18.5zM393 -179h-4l1 -1v-3q1 -1 1 -1.5t1 -1.5q0 -2 0.5 -4t0.5 -4q2 -5 3.5 -9.5t3.5 -9.5h1
q0 2 -0.5 3.5t-0.5 3.5q-2 7 -3.5 13.5t-3.5 13.5zM432 -512q7 -18 15 -35t19 -33q0 1 -1 1q-8 14 -17 34t-14 31q0 1 -1 2h-1zM203 -171q-5 5 -6 8q-3 1 -5 2.5t-4 3.5l-2 -2h-2q7 -7 19 -12zM533 -623q-5 7 -9.5 14t-9.5 14q-1 0 -1 -0.5t-1 -0.5l3 -6q6 -8 8 -12
q4 -3 10 -9zM410 -291q-1 13 -1.5 26t-2.5 26q1 -11 1.5 -24t0.5 -27q1 0 2 -1zM144 -33q-2 17 1 30q-1 2 -1 6q-1 -8 -1.5 -17.5t-0.5 -18.5h2zM551 -647q-2 1 -2.5 1.5t-2.5 1.5q0 -1 2 -5q6 -7 14 -11q-3 4 -6 7t-5 6zM505 596q-4 -2 -7 -4l-6 -4q0 -1 0.5 -2t0.5 -2z
M209 239q-7 -14 -13 -29q5 12 10 18q1 3 1.5 5.5t1.5 5.5zM391 -174q-2 3 -4 9q0 -5 1 -7v-2h3zM478 569q-1 -1 -2 -1t-2 -1l-2 -2q-2 -2 -2.5 -3l-1.5 -3zM525 -638l-1 -1q2 -2 8 -6zM391 -350q1 -2 1 -3.5t1 -3.5v4q0 1 -0.5 1.5t-0.5 1.5h-1zM341 -60q0 -3 1 -4h2
q-1 1 -1.5 2t-1.5 2zM475 -591l2 -2q-2 2 -2 4q-2 0 -3 1zM152 35q1 1 1 5q-1 -2 -1 -5zM485 -559q-1 2 -3 4v-1zM181 -93l1 -2v5q0 -1 -0.5 -1.5t-0.5 -1.5zM302 337q-1 -1 -1 -1.5t-1 -1.5l3 3l1 2zM155 75q-1 -1 -1 -3l1 1v2zM275 295q0 -1 -0.5 -1t-0.5 -1q1 1 1.5 2
t1.5 2zM613 684q-1 -1 -2 -1q2 0 3 1h-1zM280 358q0 -1 -0.5 -1.5t-0.5 -1.5q0 1 0.5 1t0.5 2zM347 -76q0 -2 1 -4q-1 2 -1 4zM279 300v-1h-1q1 0 1 1z" />
    <glyph glyph-name="R" unicode="R" horiz-adv-x="1000" 
d="M827 86q-8 15 -19 29t-25 26q-22 0 -46.5 10.5t-35.5 18.5q-2 1 -0.5 3.5t3.5 0.5q9 -5 28 -12q17 4 30.5 4.5t27.5 -1.5q28 12 56.5 23t57.5 24l28 16t28 13q9 8 18.5 14.5t19.5 13.5q4 4 8 7.5t9 7.5q14 20 31 38.5t35 32.5q8 11 15 22t15 19q6 10 12 19.5t12 18.5
q7 16 13 32t11 33q1 2 1.5 5t1.5 5q0 2 2 10q6 22 9 48q4 32 6.5 62.5t0.5 59.5q-4 13 -6.5 25t-3.5 25q-5 15 -12 29q-1 1 -3 5q-3 3 -6 5.5t-5 5.5q-19 18 -51 26.5t-67.5 10.5t-69.5 -1.5t-58 -8.5q-93 -21 -180.5 -44t-164.5 -61.5t-142 -97.5t-113 -150
q-5 -11 -19.5 -42t-28 -68.5t-20.5 -73.5t3 -56q8 -15 26 -25.5t32 -18.5q20 -11 41.5 -21t44.5 -5q2 5 3 8.5t2 7.5q5 3 5 -2q-6 -17 -18 -20.5t-26.5 0.5t-29 12.5t-25.5 14.5q-23 13 -37.5 24t-21.5 24t-7.5 30.5t4.5 44.5q4 21 11.5 44t16.5 45t18.5 42.5t18.5 37.5
q38 75 89 129.5t113 93.5t134 65.5t152 44.5q40 9 84 19.5t88.5 15.5t88 1.5t84.5 -22.5q5 -2 9 -4.5t8 -4.5h3q6 -4 8 -7q6 -5 12 -9.5t11 -9.5h1q2 0 3 -1l3 -6l3.5 -3.5l3.5 -3.5q1 -2 2 -2.5t2 -1.5q1 0 1 -1t1 -1v-2q15 -21 18 -40.5t8 -45.5q4 3 6 -2v-22q0 -4 -1 -5
q0 -7 -1 -11q1 -19 -0.5 -37.5t-4.5 -36.5q2 -5 3.5 -9.5t0.5 -8.5q-2 -11 -8.5 -24.5t-14.5 -26.5q1 -17 -9.5 -39t-23.5 -34q-2 -4 -4 -7t-4 -7q0 -1 -0.5 -1t-0.5 -1q0 -2 -1 -2q-11 -20 -26 -41q-7 -14 -17 -29q-4 -4 -5 -1q-42 -53 -97 -95l-9 -9q-2 -2 -5 -1
q-2 -1 -2.5 -1.5t-2.5 -1.5l-2 -2q-2 -2 -3 -2t-3 -2q0 -2 -2 -4v-1h-1q-4 -2 -5 -3q-1 -2 -3 -4q-16 -7 -30 -11q-5 -2 -8.5 -3.5t-7.5 -3.5q-21 -8 -37 -16t-39 -13q-6 -2 -12 -2h-14q1 -1 5 -3q9 -2 14 -5.5t8.5 -9.5t6.5 -13t8 -16l3 -3v-1h1l-1 -1v-1q7 -11 12 -26
q2 -2 2 -4q7 -22 9.5 -43.5t-0.5 -37.5q-5 -26 -9 -52.5t-10 -52.5q-9 -36 -20 -78.5t-20.5 -87.5t-15.5 -91t-4 -89q4 -14 6 -29t4 -29q1 -2 0 -3v-1l1 -1h-1l1 -2v2q3 -9 6.5 -18t8.5 -18q35 -63 91 -94.5t123 -40t141 2t145 32t133.5 50.5t107.5 57q42 26 79 56.5
t72 63.5q2 1 3.5 -0.5t-0.5 -3.5q-60 -56 -122.5 -101t-137.5 -78q-67 -30 -138.5 -53.5t-143.5 -32.5t-143.5 1t-138.5 49q-17 10 -30.5 24.5t-25.5 31.5q0 -2 -2 0q-17 14 -29.5 30.5t-21.5 35.5q0 1 -0.5 1t-0.5 1q-1 2 -1 4q-8 16 -12 31l-3 9q-1 0 -1 -2
q-2 -2 -3.5 -1.5t-1.5 2.5v9t1 9q-7 23 -11 45t-6 45q-3 48 9 101.5t27 108.5t26 109t5 103q0 1 0.5 1.5t0.5 1.5q3 10 1.5 21.5t-6.5 22.5q1 -1 2 -1v6q-3 3 -4 5q0 -3 1 -4v-3zM220 -417q-1 -2 -3 -2.5t-2 1.5q-26 -12 -59.5 -23.5t-81.5 -29.5q-15 -6 -33.5 -16.5
t-36.5 -8.5q-16 2 -30 7t-30 8q-18 4 -35.5 3.5t-35.5 7.5q-16 8 -26.5 27.5t-17.5 30.5q-15 24 -2.5 58t36 68t50 62.5t41.5 41.5q14 13 29 24l30 22q14 10 28.5 19t29.5 17q23 12 50.5 22t55 13t53 -4t44.5 -30q0 -4 -5 -3q-18 21 -43 27.5t-51.5 3.5t-53 -13t-48.5 -22
q-35 -19 -72.5 -45t-70.5 -58.5t-58 -69.5t-34 -78q-2 -13 -3 -26t3 -26q8 -27 19 -39t24.5 -16t29.5 -4t36 -4q18 -4 33.5 -9.5t28.5 -5.5q6 0 14 3t17 7t17 8t13 6t24.5 8.5t42.5 14.5q-2 5 2 7q26 22 53 31q11 7 22 18q-4 8 25 34q1 1 1 1.5t1 1.5q3 2 5.5 5t4.5 5
q2 3 4 6.5t4 6.5q1 2 3 2q5 7 9.5 14t9.5 14l27 42q6 11 12.5 21.5t12.5 21.5q4 6 7 11l3 6q20 34 38.5 67.5t35.5 68.5v1q3 14 15.5 41t29.5 56q5 11 10.5 21.5t10.5 21.5q17 35 38 67.5t42 64.5q1 2 1.5 3.5t1.5 3.5l3 3l26 40t24 42q-1 1 1 4v1l2 2q0 1 2 3
q11 24 22.5 49t27.5 48q7 10 17 21t19 22.5t15.5 24t8.5 26.5q-2 -2 -3 0t1 4q2 1 4 3q4 0 4 -4v-1v1l2 1h1q-3 1 -3 3t2 4q4 0 7.5 0.5t7.5 0.5q11 3 20 9l9 9q0 1 1 1h1q1 1 4 0q10 6 18 10h3q2 1 3.5 1t3.5 1q1 0 1.5 -0.5t1.5 -0.5q2 2 4 3t3.5 -0.5t-0.5 -3.5
q-1 -1 -2 -1q6 -2 1 -5q-2 -1 -3 -1t-3 -1q-4 -7 -9 -14q-4 -6 -7 -10q-13 -17 -23 -30t-19 -25q-11 -20 -23.5 -39t-29.5 -36q-4 -6 -7.5 -12.5t-8.5 -13.5q-4 -7 -7.5 -13t-6.5 -11v-1q-8 -16 -17 -31t-17 -30q-1 -2 -2 -3t-2 -3q-1 -1 -1 -1.5t-1 -1.5l-1 -2v-1h-1
q-4 -8 -7 -11q-54 -100 -104.5 -200t-104.5 -200q-5 -8 -9.5 -17t-9.5 -17q-7 -14 -14.5 -28t-14.5 -23q-5 -8 -9.5 -15.5t-9.5 -15.5q-6 -9 -10 -17q-2 -10 -9.5 -19.5t-12.5 -17.5q-1 0 -1.5 -0.5t-1.5 -0.5q-27 -41 -50.5 -62.5t-52.5 -35.5q0 -1 0.5 -1t0.5 -1z
M237 -399q7 6 14.5 12.5t14.5 13.5h-1q-19 -20 -37 -25q-2 -1 -2.5 -1t-2.5 -1q0 -1 -0.5 -1t-0.5 -1q-5 -1 -13 -3q-1 0 -1 -1q5 0 9 -4q13 6 20 11zM297 -332q-3 -5 -5.5 -9t-5.5 -8h3q4 5 8 10.5t9 10.5q-1 0 -1 2h-2q-2 -1 -5 -4l1 -1q-2 0 -2 -1zM468 31q3 4 6 7.5
t6 8.5q8 19 18 35q-7 -10 -13.5 -21.5t-13.5 -23.5zM771 481q5 6 10 13t11 15q-2 -2 -4.5 -3.5t-5.5 -3.5q-2 -1 -2.5 -2t-2.5 -2q2 -2 3 -2l-2 -2q0 -1 -1 -2q-3 -4 -7 -10zM1183 584q-1 -2 -0.5 -3.5t-0.5 -2.5l3 4v1q-1 15 2 35q0 3 -0.5 6t-0.5 6q-1 -11 -1.5 -22.5
t-1.5 -23.5zM183 -423q8 3 14.5 5.5t12.5 5.5q-6 2 -18 -5zM809 -473q1 -8 1 -15.5v-15.5l3 -9q-1 8 -1 16t-1 16q-1 2 -1 4t-1 4zM502 25q-1 -2 -2 -4.5t-2 -4.5q4 7 7.5 14l7.5 15h-2q-2 -5 -4.5 -10t-4.5 -10zM390 -181q-1 -3 -1.5 -5.5t-1.5 -5.5q4 7 6.5 14t6.5 14
l-4 -6t-4 -7q-1 -1 -1 -2t-1 -2zM799 -470q0 2 -0.5 3t-0.5 2v-4q0 -2 -1 -2v-4q0 -4 0.5 -7t0.5 -6h2q-1 5 -1 9v9zM808 -383q0 -6 1 -9q1 7 2 13t3 13q-2 -5 -3.5 -8.5t-2.5 -8.5zM349 -262q-1 0 -1.5 0.5t-1.5 0.5q-2 -2 -2.5 -4t-2.5 -4q1 0 1.5 -0.5t1.5 -0.5l2 4t3 4z
M626 266q3 3 6 6.5t6 8.5q-2 -2 -4 -2q-1 -3 -5 -9zM829 -107v7q-2 -7 -3 -14t-3 -14zM1052 292q-1 -1 -2 -1.5t-2 -1.5q-2 -2 -3.5 -4.5t-3.5 -5.5q1 1 1.5 1t1.5 1q2 3 8 11zM740 510q-1 -2 -0.5 -3t-0.5 -3l1 1l6 3l1 1h-4h-2q-1 0 -1 1zM778 -374q-1 -3 -1 -8v-10l2 2
q-1 4 -1 8v8zM804 132q1 1 2 1q-2 2 -3 4h-5q2 -2 3 -2.5t3 -2.5zM499 96q2 3 6 7q2 8 4 12zM220 -378q3 3 4 5q2 2 2.5 4.5t2.5 4.5q-3 -4 -5.5 -7.5t-3.5 -6.5zM1214 526q4 6 4 9q0 1 -0.5 1.5t-0.5 1.5zM809 -533q2 -3 3 -6.5t3 -6.5q-2 5 -3 8.5t-3 8.5v-4zM839 19
q1 -5 1 -16q0 1 2 5zM779 -407q-1 1 -1 2v-7.5t1 -8.5v14zM1083 306q-3 -4 -6 -7t-6 -7l6.5 6.5t6.5 7.5h-1zM1165 764q1 -3 2 -5.5t2 -4.5v5q-1 2 -2 2.5t-2 2.5zM1193 725q-2 2 -2.5 3t-2.5 3q1 -2 1 -3t1 -3v-1q1 1 3 1zM846 -590q-6 8 -11 13q6 -8 11 -13zM869 81
q0 -1 2 -3q-1 3 -1.5 5t-1.5 4v-1q0 -2 0.5 -2.5t0.5 -2.5zM736 492q3 3 5 4h-2q-1 0 -1 1q-1 -2 -1 -2.5t-1 -2.5zM882 18q0 1 2 1q-1 2 -0.5 3t-0.5 3q0 -2 -0.5 -3.5t-0.5 -3.5zM653 334q2 4 4 7v1q-2 -2 -3 -4q0 -1 -0.5 -1.5t-0.5 -1.5v-1zM855 155q-2 0 -2 -2q4 2 8 2
q-1 0 -2 1q-1 -1 -4 -1zM649 353q1 1 1.5 2t1.5 2q0 2 1 4q-2 -2 -2.5 -4t-1.5 -4zM1177 450q0 1 2 5h-1q-2 -4 -2 -5h1zM803 -514q0 2 -0.5 4.5t-0.5 4.5l-1 -1q1 -2 1 -4t1 -4zM875 60q0 -4 1 -6v6h-1zM424 -79q-4 -8 -6 -11q4 6 6 10v1zM1007 252q1 0 3 2q1 1 1 3
q-1 -2 -4 -5zM963 209q1 0 3 2v2q-1 -2 -3 -4zM778 132q-1 1 -1 1.5t-1 1.5q2 -2 3 -2zM308 -323l2 4q-2 -2 -2 -4zM1162 474v1h-1v-2zM546 109l2 2q-1 -1 -1.5 -2t-1.5 -2q1 1 1 2zM808 132q0 -1 0.5 -0.5t0.5 -0.5q-1 0 -1 1z" />
    <glyph glyph-name="S" unicode="S" horiz-adv-x="638" 
d="M-3 54q6 0 1 -5q-12 -3 -24.5 -5t-24.5 -7q-2 -2 -4 -2.5t-4 -2.5t-4 -2l-1 -1q-1 -12 -11.5 -18t-24.5 -10q-8 -7 -14.5 -15.5t-13.5 -17.5q-4 -7 -7.5 -12.5t-7.5 -10.5q-25 -45 -39.5 -93.5t-19.5 -90.5v-6.5t-1 -6.5q1 -8 1 -16.5t-2 -15.5q1 -15 3 -29t5 -34
q15 -45 38 -83t53 -65q38 -34 70.5 -45.5t64.5 -10t66 11t75 17.5q29 6 58.5 8t56.5 13q28 11 53.5 32t47.5 49q10 17 17 45q0 10 1 13q-2 2 -2 4q0 1 1 2q2 5 4 9t4 9q4 23 11 53t18 47l1 1q13 50 18 103.5t4 109t-6 112.5t-12 115t-13 114.5t-9 110.5t-1 106.5t11 103.5
q-2 2 -1 6q1 2 1.5 4t1.5 4q2 9 4.5 18t4.5 17q2 10 6.5 19t9.5 18l2 8q0 4 4 3q11 16 24 30.5t26 28.5l9 18q4 9 16 22t26.5 26t28.5 24t22 16q27 18 64.5 34.5t77.5 25t79.5 7t71.5 -18.5q25 -13 36 -18t17.5 -10t13.5 -13.5t24 -29.5q8 -9 6 -22.5t-1 -26.5
q1 -19 -10.5 -39t-29.5 -40q42 -17 81.5 -37.5t81.5 -39.5q74 -33 152 -61t158.5 -45t162.5 -21.5t163 9.5t144.5 53t117.5 99q4 5 11 12.5t12.5 15.5t8 16.5t-1.5 15.5q0 6 5 3q6 -9 -1.5 -24t-19.5 -30.5t-24.5 -28.5t-16.5 -19q-25 -29 -57.5 -51t-69.5 -38.5t-76 -26
t-76 -12.5q-137 -10 -268 14.5t-258 78.5q-60 25 -117.5 56.5t-117.5 54.5q-16 -15 -34 -28.5t-35 -24.5q0 -2 -1 -3q-4 -3 -7.5 -5.5t-8.5 -5.5q6 0 7 1q6 0 1 -5q-5 -1 -9 -2l-8 -2q-2 -2 -3.5 -2.5t-3.5 -2.5q-3 -9 -26 -17q-5 -4 -10.5 -7t-10.5 -6l-1 -1q-1 -1 -3 -1
q-12 -6 -23.5 -10t-22.5 -5q-8 -3 -15 0q-7 0 -19 5q-16 3 -16 11q-8 6 -12 13q-9 8 -16.5 22.5t-9.5 19.5q-6 12 -9 27.5t-1.5 30.5t8 28.5t19.5 21.5q18 12 48.5 11.5t63.5 -7t64 -16t50 -15.5q11 -4 21.5 -7.5t21.5 -8.5q17 19 28.5 39.5t13.5 41.5t-7 41.5t-33 38.5
q-45 34 -97.5 41.5t-105 -3.5t-101.5 -38t-86 -61l-9 -9q0 -3 -4 -3q-2 -4 -2.5 -8t-2.5 -8q-1 -3 -10 -10t-11 -9l-5 -5q-12 -22 -22.5 -44.5t-17.5 -46.5q-1 -6 -2 -11.5t-3 -10.5q-7 -34 -7.5 -75.5t2.5 -84.5t8 -83.5t9 -72.5q7 -68 16.5 -138.5t15 -141.5t2.5 -142
t-21 -140q-11 -45 -34 -97.5t-55 -101.5q-1 -3 -1 -14q-1 -2 -3 -1.5t-2 2.5v4l-2 -2q-8 -17 -17 -29q-2 -4 -4.5 -7.5t-4.5 -6.5q-6 -8 -12.5 -15t-12.5 -12q-6 -3 -8 3q-30 -27 -64 -41q-27 -11 -57 -12.5t-59 -9.5q-56 -14 -88.5 -22.5t-59 -7t-55.5 15t-79 43.5
q-16 10 -29 26t-23.5 35t-19 39.5t-15.5 39.5q-1 -1 -2.5 -0.5t-1.5 1.5q-1 5 -1 9t-1 8q0 1 -1 2l-4 10l-4 10t-3.5 10.5t-3.5 11.5q-2 0 -4 2q-1 4 -3 17q-5 18 -3 39q-4 51 6.5 101t31.5 92q1 4 6 10q2 5 5 8.5t5 7.5q14 20 33.5 33.5t37.5 28.5q10 9 22.5 12.5t26 4.5
t27 1.5t26.5 3.5q6 0 1 -5q-5 -2 -10 -2.5t-10 -1.5q4 0 8 0.5t9 1.5zM687 778q6 0 1 -5v-21q2 -2 2 -3q0 -2 -0.5 -2.5t-0.5 -2.5q6 -20 18.5 -42t29.5 -35h1v1q0 -1 1 -1q17 -1 34 -6q1 2 1 2.5t1 2.5q5 3 5 -2q-1 -1 -1 -4q1 -1 4 -1q8 5 16 8t16 7l2 2v-1q5 1 7 -1.5
t-2 -6.5l-1 -1h1q-1 -1 -3 -1q0 -1 -0.5 -1t-0.5 -1q2 1 3.5 1.5t3.5 1.5q11 5 20 6q3 3 8 5q1 1 4 -1q23 11 49.5 29t48.5 41q-11 4 -21 7.5t-19 6.5q-20 6 -49.5 16t-61 16.5t-61 7.5t-47.5 -11q-7 -4 -12 -11h3zM-214 -135q-2 -11 -3 -21.5t-2 -21.5h2q1 5 1.5 11t2.5 12
q0 2 -0.5 3t-0.5 3q0 1 -0.5 2t-0.5 2q1 1 1 4v6zM-137 10q1 0 1 -0.5t1 -0.5q2 2 5.5 3t5.5 3q2 3 5 6l5 5q-5 -3 -11 -7t-12 -9zM554 834q-10 -10 -17 -20q5 4 8.5 7.5l5.5 5.5q1 3 3 7zM467 -284q2 5 3.5 9t3.5 9q-1 -2 -6 -7q-1 -3 -1 -11zM506 774l-6 -6t-5 -7
q2 0 2 -2zM730 636q-2 0 -3 -0.5t-2 -0.5v-1q3 -3 8 -3q-2 2 -2 5h-1zM676 761q0 1 2 1q0 9 5 14v1q-3 -4 -4.5 -8t-3.5 -8h1zM462 254q-1 4 -1.5 7t-1.5 7q1 -5 1.5 -10t1.5 -10v6zM521 -5q-1 -1 -1 -7v-11q1 5 1 9v9zM474 733q-3 -3 -4 -7q0 -1 -0.5 -2t-0.5 -3q2 3 2.5 6
t2.5 6zM509 143q0 -8 1 -11v9zM425 -305q-2 -6 -2 -7q0 1 2 3v4zM519 -39l1 -2v7l-1 1v-6zM-192 -149q1 2 1 3.5t1 3.5l-1 -1q-1 -1 -1 -6zM-151 -5q1 1 1 1.5t1 1.5l-5 -5q1 0 1 0.5t1 0.5zM498 298q0 -1 0.5 -1.5t0.5 -1.5v5q0 -1 -1 -2zM429 -338q-1 -1 -1 -4q0 1 0.5 1
t0.5 1v2zM-160 -15q0 1 1 2q-3 -3 -4 -6q1 1 1.5 2t1.5 2zM482 425q0 1 -0.5 1.5t-0.5 1.5v-3h1zM-50 46q2 0 2 1h-2v-1zM497 -166l1 2h-1v-2zM841 658l1 1h1q1 0 1 0.5t1 0.5q-2 -1 -3 -1t-1 -1zM758 658q-1 0 -1.5 0.5t-1.5 0.5q1 0 1.5 -0.5t1.5 -0.5z" />
    <glyph glyph-name="T" unicode="T" horiz-adv-x="576" 
d="M-187 -214q10 -45 40 -88t70.5 -76.5t87 -54t88.5 -18.5q11 4 26 10t32 14q-1 1 0 1h1q21 11 44 26q5 6 11.5 11.5t12.5 11.5q5 17 11.5 32t20.5 26q-2 2 2 4q12 20 26.5 36t22.5 36q2 3 3 6t3 6q2 8 5 17.5t8 17.5q-1 14 7 29q15 64 29.5 128t33.5 130q6 41 21.5 84.5
t36.5 86.5t46 84t49 78q11 15 22 29t24 26q7 11 14.5 20t15.5 18q1 1 1.5 1t1.5 1q11 20 31 31q5 11 23 25t38 25l-6 3q1 0 1.5 0.5t1.5 0.5l1 1q11 8 29 19t37 17q8 8 18.5 13.5t19.5 10.5q1 1 1.5 2t2.5 2q-17 -4 -35 -7.5t-35 -6.5q-5 -1 -12 -2t-14 -3l-2 -2l-28 -4
t-27 -4q-1 -1 -2 -1h-2q-19 -2 -36.5 -4.5t-38.5 -1.5h-9q-5 1 -9 1t-9 1q-18 2 -46.5 14t-60.5 27t-65 29.5t-60 23.5q-8 2 -16.5 3t-14.5 3q-11 2 -24.5 2.5t-26.5 -0.5q-13 -5 -24 -11t-23 -14l1 -3q2 -2 -0.5 -2t-4.5 2q-15 -11 -30 -24t-32 -28q-6 -6 -15.5 -12
t-17.5 -12.5t-13.5 -14.5t-5.5 -18q-1 -4 -7 2q0 11 6 19.5t14 15.5t16.5 13.5t15.5 12.5q17 17 33.5 31t33.5 25q-2 13 12 18t34 7q17 7 34.5 10.5t39.5 3.5q7 1 14 0q11 -1 24.5 -3t26.5 -4q3 2 5 1v-1l1 1v-1l7 -3q15 -3 31 -7.5t33 -9.5q11 -4 25.5 -9.5t30.5 -12.5
q14 -2 28 -8.5t26 -13.5q32 -13 60 -22.5t43 -9.5q44 -1 83.5 6.5t78.5 15.5q15 11 29.5 18t26.5 6q29 20 59 37t62 31q14 6 35.5 12.5t38.5 3.5q21 -3 28 -11t5 -17.5t-11.5 -18.5t-21.5 -15q-14 -6 -29.5 -10t-30.5 -7q-9 -2 -18 -3.5t-18 -3.5q2 -1 2.5 -2t2.5 -2
q0 -6 -5 -1q-3 2 -7 4q-11 -2 -22.5 -4t-22.5 -4v-1q-4 -1 -7 -1t-7 -1t-8 -2.5t-9 -2.5q-13 -2 -28 -8.5t-29.5 -15.5t-28 -18.5t-22.5 -16.5q-4 -3 -6.5 -5.5t-6.5 -5.5l-11 -9q-14 -15 -30 -30t-30 -31q-18 -21 -38 -40.5t-37 -39.5l-2 -2l-3 -3q-26 -32 -50.5 -66
t-45.5 -71q-3 -7 -6 -13.5t-8 -11.5q-4 -10 -12 -23q-15 -31 -28 -63.5t-23 -66.5q-12 -42 -22.5 -87.5t-22.5 -91.5q0 -16 -6 -31q-13 -52 -29 -103t-38.5 -96.5t-53.5 -83.5t-74 -65q-19 -10 -41 -18q-8 -14 -22.5 -18.5t-39.5 -6.5q-10 -1 -22 0h-3q-3 -1 -9 -1
q-1 0 -3 2q-30 3 -62.5 15.5t-63.5 32t-59 44.5t-48 54q-17 25 -24.5 50t-18.5 50q-14 33 -10 71t18 74t34 65.5t37 46.5q15 14 32.5 23.5t34.5 20.5q4 3 11.5 7t16.5 6.5t19.5 2t19.5 -6.5l5 -2.5l3 -1.5q-14 2 -32 0t-40 -11q-18 -8 -33.5 -19.5t-30.5 -25.5
q-21 -21 -39.5 -48.5t-29.5 -60t-13.5 -68.5t6.5 -75zM912 690q16 7 36 13t36 1q20 4 40.5 8t37.5 9.5t30.5 13.5t20.5 20q-6 13 -17.5 17t-24.5 3t-27 -5.5t-24 -8.5q-20 -8 -38 -17t-36 -20l-1 -1q-14 -15 -25 -20.5t-22 -15.5q4 1 14 3zM123 -77q-1 17 -4 37.5t-9 40.5
t-15.5 38t-22.5 32l9 -6q16 -11 25.5 -31.5t14.5 -42t6.5 -41.5t1.5 -29q0 -2 -2.5 -1t-3.5 3zM72 71q-11 6 -23 11.5t-24 11.5q14 -2 25 -8.5t22 -14.5zM432 68q0 -2 0.5 -3t0.5 -3q3 8 4 15t4 15q-2 -3 -4 -7q-1 -5 -2 -9t-3 -8zM287 -333q-2 -2 -4 -5t-4 -5q1 0 2 -1
q5 5 8 11h-2zM424 705q-2 2 -6.5 3t-6.5 3q-6 2 -7 2q5 -2 10.5 -5t10.5 -5zM460 163q-2 2 -2 3l-2 -12q1 -1 0 -1h1l-1 -1q0 -3 -1 -5l1 1zM625 453l7 9l-3 3zM182 -422q11 8 7 6.5t-12 -9.5q3 1 5 3zM675 647q-3 0 -6 0.5t-5 0.5q1 -2 0 -3q3 0 5.5 0.5t5.5 1.5zM348 -232
l-2 -2l-11 -23v-1zM728 560q0 1 3 4h-3q-3 -2 -3 -3h1zM303 743q0 2 1 2q-7 0 -10 -1h1q2 0 4 -0.5t4 -0.5zM534 660q6 -2 8 -2q-5 2 -7 5h-1l1 -2zM499 667l-2 2l-16 6zM207 -409q-4 0 -6 -2t6 1v1zM374 731q-2 0 -4.5 0.5t-4.5 0.5q10 -2 12 -2h1q-2 1 -4 1zM157 -434
q-3 -1 -9 -5h2q2 2 3.5 2.5t3.5 2.5zM877 688q2 2 3 2q1 1 1.5 1t1.5 1q-2 -1 -4 -1.5t-4 -1.5q2 0 2 -1zM330 741q2 -2 5 -2q-1 0 -1 1v1h-4zM412 43q0 -1 -1 -1l1 -1l2 3l-1 1zM211 -407q-1 1 -2 1v-3q0 1 2 1v1zM892 680l2 1h-3v-1h1zM563 372l-2 -2h1zM254 -372h1v1z
M218 729q-1 -1 -2 -1t-2 -1z" />
    <glyph glyph-name="U" unicode="U" horiz-adv-x="1024" 
d="M645 -390q-1 10 0.5 21t3.5 23q1 5 1 10t2 10q2 10 6 24.5t9 31.5q0 7 1 9v1q1 3 3 3q6 20 13.5 41t15 40.5t15.5 35.5t15 26q7 19 18 24q6 17 13 33t16 29q2 2 3 2q5 8 10 15t10 15q1 4 4 7v1l1 1q3 1 4 0q11 22 23 43.5t25 42.5q7 16 17 33.5t21 34t22.5 31t20.5 24.5
q2 3 4.5 6.5t4.5 7.5q3 7 6.5 14t6.5 14q-82 -78 -156 -162.5t-149 -168.5q-29 -32 -60.5 -63.5t-64.5 -60.5q-10 -9 -39.5 -34.5t-65.5 -52t-71.5 -47.5t-56.5 -21q-35 2 -53 0t-27 -1q1 -1 1 -1.5t1 -1.5q0 -5 -5 -3q-2 2 -3 7q-8 2 -14 9.5t-21 25.5q-8 10 -6 24.5
t5 25.5q1 2 1 5t1 5q1 17 10 34q2 5 3 8.5t3 8.5q1 5 2 8.5t2 5.5q3 19 6 26v3h1q3 1 6 0q3 7 6.5 13t7.5 13q2 5 4.5 9.5t4.5 9.5q-1 1 -1 4q11 23 25 43.5t25 43.5q2 4 3 7h1q1 1 4 1q1 2 2.5 4.5t2.5 4.5q13 32 27.5 68.5t34.5 68.5q4 8 8 16.5t9 18.5q1 2 1.5 3.5
t1.5 3.5l3 -3q1 0 2 -1q11 20 27 45t33 49q14 27 31 54t36 53q-2 1 0 3l1 1l8 11q0 1 2 1q9 12 18.5 23.5t20.5 22.5l12 18q7 14 12 25.5t9 17.5q1 0 1 1t1 3q0 -1 1 -1q3 1 4 0l9 18q4 8 7 15t6 13q14 29 27.5 60.5t28.5 65.5q2 5 5 11t5 12q4 21 11.5 44t18.5 40q1 4 6 10
q6 20 11.5 39t10.5 39q1 21 9 39q0 1 2 11v3q1 10 1.5 19t2.5 19q1 8 1 17.5t1 22.5q-5 14 -10 28.5t-9 29.5q-28 14 -54.5 32.5t-57.5 23.5q-60 10 -129 -0.5t-137.5 -33t-132.5 -53t-115 -60.5q-33 -20 -64.5 -43t-58.5 -51q-2 -2 -9 -13.5t-16 -29t-18.5 -38.5
t-16.5 -40.5t-9.5 -35.5t2.5 -24l9 -3q5 -5 -1 -5q-13 3 -14.5 18t3 35.5t14.5 44t20.5 44t19 34.5t12.5 17q31 24 61 49.5t63 45.5q42 25 82.5 46.5t85.5 38.5q27 11 65.5 24.5t82 24.5t90 17t89.5 3t80 -17.5t62 -45.5q30 -38 35.5 -84.5t-3.5 -94.5q-1 -9 -2 -17l-2 -16
v-8q2 0 3 -1h3q-2 -6 -2 -5q0 -1 -1 -1q-2 -7 -3.5 -13.5t-3.5 -12.5q-4 -27 -7 -47t-5 -25q-16 -56 -40 -112q-2 -4 -3 -7v-2q-2 -4 -4 -7.5t-4 -6.5q-27 -59 -60.5 -116.5t-69.5 -113t-73.5 -110.5t-72.5 -110q-26 -40 -40 -63t-25 -42.5t-22.5 -43t-32.5 -64.5
q-5 -10 -16 -30.5t-24 -46t-25.5 -54.5t-21.5 -56q-1 -8 -5 -17q-6 -20 -9 -36.5t-1 -29.5q20 -2 41 -5t41 2q30 8 61.5 25.5t62 39t58 45t48.5 42.5q60 55 114.5 114.5t108 119.5t107.5 119t113 114q13 27 27 46q4 10 8 19.5t9 19.5q5 14 14 26q10 18 24 33q8 13 12 17l1 1
l4 6l4 6q12 20 24 39.5t23 36.5q18 35 40 71.5t39 57.5q2 3 3 5.5t3 5.5q1 1 1.5 2t1.5 2q2 10 4.5 19.5t5.5 19.5q-4 0 -4 2q1 0 1.5 0.5t1.5 0.5h7q-2 -8 -4 -15.5t-4 -15.5l2 2q3 9 5 16t2 12v1q29 -2 61 3q-10 -11 -17 -24t-12 -24q-12 -17 -34 -53.5t-43 -77.5
q-11 -17 -19.5 -35t-17.5 -36q-1 -2 -1.5 -2.5t-1.5 -2.5q-8 -11 -16 -23t-16 -23q-2 -3 -3.5 -6t-3.5 -5q-3 -7 -7.5 -13.5t-9.5 -14.5q-15 -25 -30.5 -49.5t-27.5 -41.5q-26 -42 -49.5 -84.5t-49.5 -84.5q-2 -4 -4.5 -8t-5.5 -9v-1h-1q-1 -2 -1.5 -2.5t-1.5 -2.5
q-11 -17 -21.5 -34.5t-21.5 -34.5h1l-2 -2v-1q-1 -1 -1.5 -2t-1.5 -2q-30 -48 -58.5 -98t-52.5 -102q-11 -25 -22 -50.5t-19 -51.5q-8 -22 -14 -45t-8 -47q-2 -22 -1 -38.5t6 -31t15.5 -27t27.5 -26.5q9 -8 20 -11.5t22 -7.5q36 -12 70.5 -8.5t67.5 15.5t64.5 30t61.5 35
q3 2 4 -0.5t-2 -4.5q-47 -26 -92 -49t-99 -34q-29 -6 -63 2q0 -2 -2 -2q-24 3 -46 12q0 -1 -4 -1q-2 2 -2.5 3t-1.5 2q-1 0 -1.5 0.5t-1.5 0.5q-25 12 -43.5 31t-27.5 45l-5 5q-8 8 -11 21q-1 0 -3 2q-1 4 -1 7.5t-1 7.5q0 4 3 4zM276 -132q5 11 8.5 20t6.5 19l-6 -10
l-6 -10q-2 -3 -2.5 -5.5t-2.5 -5.5q1 -1 1 -3q-2 -2 -2.5 -4t-2.5 -4v-2q-1 -1 -1 -3l-1 1l-3 -6q-4 -8 -7.5 -14.5t-7.5 -14.5q-3 -9 -6.5 -18.5t-6.5 -19.5v-1q11 27 22.5 49t16.5 32zM765 -518q-12 6 -22.5 12.5t-20.5 15.5q3 -4 6 -7l7 -7q8 -5 15.5 -8.5t14.5 -5.5z
M456 207q0 -2 0.5 -2.5t0.5 -1.5q6 8 11.5 16.5t11.5 16.5l-21 -24q-1 -3 -3 -5zM319 -40q1 5 3 9.5t4 8.5q-3 -3 -4 -3l-1 1q-2 -3 -3 -6.5t-3 -6.5l1 -1q1 0 3 -2zM187 -297q0 -4 2 -14q2 0 3 1q-2 10 -2 13h-3zM682 -457q7 -11 17 -20q-1 2 -2 3.5t-2 3.5zM626 463l8 12
t8 13v2q-1 -1 -1 -2l-1 -2l-1 -1h1l-3 -3v-1q-1 0 -1 -1q-4 -4 -5 -8q-2 -2 -3.5 -4.5t-3.5 -4.5h2zM866 56q3 5 6 10.5t6 11.5q-7 -8 -13 -22h1zM208 -334q-1 2 -1 7q-1 1 -2 1q-1 -1 -5 -1q2 -2 3 -3.5t3 -3.5h2zM222 -150q-3 -7 -6 -13t-5 -13q0 -1 -0.5 -2t-0.5 -2
q7 16 12 30zM182 -276q0 7 0.5 13t1.5 13q-3 -12 -3 -23q0 -2 1 -3zM769 -123q-4 -9 -8 -16q1 0 1 1q4 7 7 13.5t7 13.5l-3 -3q-1 -2 -2 -4.5t-2 -4.5zM196 -324q-1 2 -1.5 4t-1.5 4l-2 -2h-1zM754 -155q-2 -5 -5 -9.5t-5 -9.5q2 2 2.5 3t1.5 2q2 5 3.5 8.5t3.5 7.5z
M531 312q2 3 3.5 6t3.5 5q0 1 -1 1q-1 -4 -6 -10v-2zM181 -275q-1 -3 -1 -12q1 2 1 4t1 4q-1 1 -1 4zM446 184q2 4 5 8t6 9l-3 -3l-4 -6t-4 -7v-1zM686 -449l-2 -1l4 -4q0 -1 -2 5zM314 -48q0 1 1 1q-2 -3 -3.5 -6l-3.5 -7q3 7 6 12zM493 313q1 1 1.5 2t1.5 2v2zM300 -79
q-2 -2 -0.5 0.5t3.5 7.5q-1 -1 -3 -8zM1026 316q1 3 4 6q-1 -1 -1.5 -1t-1.5 -1q0 -1 -0.5 -2t-0.5 -2zM724 -222q1 2 1 3.5t1 3.5q-2 -6 -2 -7zM1071 387q-1 -1 -1 -2v-1q0 1 1 2t2 3zM710 707q0 -3 -1 -4l3 6zM739 -134q-2 -2 -2 -3l2 1v2zM737 788q-1 -1 -1 -4q0 -1 2 5
q-1 0 -1 -1zM743 -127q0 -1 -1 -1v-1l1 -1v3zM909 111q-3 -3 -4 -6q1 1 1 1.5t1 1.5t1 1.5t1 1.5zM573 376q1 1 1 1.5t1 1.5l-2 -2v-1zM709 702q-1 -1 -1 -2l1 1v1zM728 -211l-1 -1h1v1zM1074 387q0 -1 -1 -1h1v1zM527 306q-1 0 -1 -1z" />
    <glyph glyph-name="V" unicode="V" horiz-adv-x="855" 
d="M298 -295q2 -2 1 -3.5t-3 -1.5q-12 5 -25 9t-25 10q-1 -2 -1.5 -2.5t-1.5 -2.5q-4 0 -6 2q-7 7 -11 15q-21 18 -26.5 58.5t-3.5 86t8.5 86.5t10.5 60q5 27 13 59t17 65t18.5 64.5t18.5 57.5q21 60 44 119.5t39 121.5q10 38 24.5 78.5t30.5 78.5q2 9 4 17.5t7 13.5
q5 16 14 30q5 15 13.5 31t14.5 16q3 2 4 -0.5t-2 -4.5l-1 -1h6q5 4 10.5 4.5t8.5 -3.5h10v1l1 -1q4 4 6 -2q2 0 3 -0.5t3 -0.5t2 -2v-1q1 -3 0 -5q0 -6 -3.5 -13.5t-8.5 -14l-10 -13t-8 -10.5q-13 -25 -18.5 -51.5t-14.5 -52.5q-8 -20 -18.5 -46t-17.5 -41q-8 -23 -16 -45.5
t-15 -36.5q-39 -106 -72 -214.5t-56 -219.5q-5 -23 -9 -47l-8 -48q-1 -6 -2 -21.5t-1.5 -36.5t0.5 -43.5t5 -41.5q2 -4 2.5 -7.5t1.5 -6.5q10 -28 26 -32q8 -2 17.5 2.5t19 11t18 14t15.5 11.5q42 31 93.5 85t111.5 122.5t126.5 148t139 161t149 161t156.5 149.5t162 126
t164 90q29 12 59 19.5t59 16.5q40 12 90.5 19.5t104 9.5t105.5 -0.5t94 -11.5q13 -2 24 -9t22 -12q13 -6 20.5 -16t11.5 -21.5t6 -24t5 -24.5q0 -2 -2.5 -2.5t-2.5 1.5q-3 16 -5 27t-5 20t-10 17t-21 18q-22 16 -56 24.5t-74.5 10.5t-83.5 -0.5t-84 -8t-76.5 -12
t-59.5 -12.5q-59 -13 -118 -36q-95 -36 -196.5 -114t-203.5 -179t-201.5 -213.5t-191 -217.5t-172 -191t-144.5 -134q-15 -11 -29 -21t-26 -13zM247 -251q-1 2 -2 4.5t-2 5.5q-2 6 -3 8q0 -3 0.5 -6t-0.5 -6l3 -6h4zM460 750q-3 -5 -6 -9.5t-5 -9.5h3q3 9 8 19zM468 762
q3 0 3 -4q0 -1 -1 -2l6 3v4h-7zM507 737q1 2 3.5 5t4.5 7q-2 -1 -2.5 -1t-2.5 -1q-1 -2 -1.5 -5t-2.5 -6zM467 651q-4 -10 -6 -14q1 0 1 -2q0 -1 0.5 -1t0.5 -1q1 4 1.5 7.5t2.5 8.5v2zM235 -145q-1 -2 -1 -4t-1 -4q1 -2 1 -5t1 -5v18zM471 724l3.5 3.5l3.5 3.5q0 2 0.5 2.5
t0.5 1.5q-2 -2 -3.5 -4t-3.5 -4q0 -1 -0.5 -1.5t-0.5 -1.5zM487 754q-1 0 -1 -0.5t-1 -0.5l-1 -1l9 2h-6zM226 -241q2 -4 4 -6q-1 1 -1 1.5t-1 1.5q0 1 -2 3zM367 452h1v2zM223 -234q0 -1 1 -2z" />
    <glyph glyph-name="W" unicode="W" horiz-adv-x="971" 
d="M345 -426q15 0 30 4q3 2 4 -0.5t-2 -4.5l-17.5 -3.5t-15.5 -1.5q16 -7 39.5 -0.5t50.5 21t55.5 35t53.5 41.5t44.5 40t29.5 31q34 41 62 85.5t53.5 90.5t49.5 93t50 93q78 139 164.5 264.5t191.5 243.5q16 18 39 39.5t48 41.5t50.5 38t47.5 30q23 13 46 24t48 13
q36 4 78 4.5t83 -7t77 -26t59 -52.5q22 -33 14 -71.5t-33.5 -72t-62 -56.5t-70.5 -26q-2 0 -2.5 2t1.5 3q18 1 40 11t44 26.5t40.5 38t29 45t10.5 48t-16 47.5q-17 25 -43.5 39.5t-53.5 23.5q-71 25 -134.5 20.5t-121 -30t-109.5 -67.5t-101 -92q-108 -112 -194.5 -240.5
t-161.5 -265.5q-26 -46 -50.5 -93t-50.5 -93.5t-54.5 -91t-62.5 -84.5q-10 -12 -30 -31.5t-45.5 -41.5t-54.5 -43t-57.5 -35.5t-53.5 -20t-43 4.5q-1 1 -1 3q-14 2 -23 7q-9 -6 -15.5 -3t-11.5 12q-8 9 -15 20t-5 22l1 1q-3 0 -3 3q-6 26 -3 55q-1 0 -3 2q-2 15 -3 35t0 41
q-25 -13 -47.5 -31t-45 -36.5t-47 -34.5t-53.5 -25q-50 -17 -89 19q-5 4 -9.5 8t-9.5 8l-2 -2q-5 -5 -8 2l-3 12q-2 2 -3.5 4.5t-3.5 4.5q-7 11 -4 35t9.5 49.5t14.5 47t11 28.5l9 21q3 18 16 34q28 63 68 128q17 32 36 65t37 67l6 12q1 2 2 3.5t2 3.5q20 38 38 77t38 79v1
l1 1q0 3 1 4v-1q2 2 2.5 4.5t2.5 4.5q5 18 16 39.5t24 44.5q16 31 35 62t38 59q11 21 22.5 39.5t23.5 32.5q12 21 24 41.5t24 41.5q-4 0 -6.5 -0.5t-4.5 -0.5t-2.5 2t1.5 3q3 0 6.5 0.5t8.5 1.5l2 2q1 3 3 1q5 7 11 9q5 0 5 -4q-2 -4 -3 -7h1q3 1 4 0h2l3 6q2 3 4 1.5
t2 -3.5q-1 -1 -1 -5q5 -1 7.5 -2t4.5 -2q1 -1 1 -3q-2 -5 -4 -8.5t-4 -8.5q-5 -14 -12.5 -29.5t-18.5 -27.5q-5 -8 -8.5 -15.5t-8.5 -15.5q-8 -19 -17 -37t-20 -32q-11 -20 -22 -38.5t-22 -38.5q-19 -24 -34.5 -52t-33 -61t-39 -72.5t-53.5 -87.5v-2q-23 -44 -48 -84
q-2 -5 -5 -9t-5 -8q-4 -8 -7.5 -14.5t-7.5 -14.5q-6 -15 -12 -30.5t-12 -30.5q-1 -3 -1.5 -5.5t-1.5 -5.5l-2 2q-3 -8 -6.5 -14.5t-7.5 -14.5q-8 -15 -18 -29t-21 -28q-2 -3 -2.5 -7t-2.5 -7q-11 -31 -20 -62t-19 -62q-1 -13 -2 -25.5t-2 -24.5q2 -11 3 -22t2 -20
q10 -20 31 -32q2 -2 1 -3q2 0 3.5 -0.5t3.5 -0.5q30 -3 60.5 12.5t59.5 38t57.5 46t54.5 36.5q2 26 10 48.5t26 35.5l7.5 15t8.5 15q6 14 14 28q33 71 71 139q11 23 23 44.5t24 43.5l2 5q1 -1 4 -1l1 -1h1q10 17 20 33t20 33q2 2 3 5t3 5q0 1 0.5 1.5t0.5 1.5t1 1q1 1 1.5 2
t1.5 2l2 4l2 4q8 14 15.5 26t15.5 23q1 1 1.5 3t2.5 4q1 0 1 1t1 3l2 -1h2l2 4t3 5q1 2 1.5 4t2.5 4q1 0 1 1t1 3t2 3t2 3l2 5q2 4 5 8t5 8q1 3 3 7l3 5q1 0 2 -1h2q14 27 30 54t34 51q0 1 0.5 1.5t0.5 1.5q6 23 26 53.5t43 59.5q9 14 18 27.5t18 25.5q9 20 19 39.5t21 37.5
q2 5 5 8.5t5 6.5h-4q-2 0 -2.5 2t1.5 3q10 2 19.5 4t19.5 3q2 2 4.5 3.5t4.5 3.5q7 1 7 -6l-1 -1h2l6 2q5 2 7 -2t-2 -7q1 -1 1.5 -2t1.5 -2q0 -5 -5 -3q0 1 -1 2q-14 -10 -28 -27.5t-28 -40.5q0 -1 1 -1q0 -4 -3 -4q-13 -21 -25 -45t-24 -47l1 1q5 2 5 -4q-6 -10 -12 -19.5
t-12 -18.5v-1q-4 -9 -8 -17t-9 -16q-2 -8 -5 -11q-1 -1 -2 -1q-5 -8 -10.5 -15.5t-11.5 -15.5q-18 -26 -38 -51t-39 -51q-11 -14 -16 -23l-6 -9q-1 -2 -1.5 -2.5t-1.5 -2.5q-14 -20 -27 -42q-7 -15 -18 -26q-8 -12 -14.5 -24t-13.5 -24q-5 -10 -9 -19.5t-12 -17.5
q-18 -31 -34.5 -62.5t-32.5 -63.5q-2 -8 -5.5 -15.5t-6.5 -13.5q-6 -11 -11.5 -21.5t-11.5 -21.5l-6 -12t-5 -12q-5 -10 -9.5 -20t-9.5 -21l1 -1q-1 0 -1 -1v-1q-8 -23 -18.5 -50t-23.5 -53q-8 -21 -15.5 -48.5t-10.5 -54t0 -49.5t15 -35h1l2 -2q10 -8 25 -11q1 4 6 7
q4 0 4 -2v-3zM289 -385q-1 4 -1 7t-1 7q-2 -2 -4 1l-1 -1q0 1 -0.5 1.5t-0.5 1.5t-0.5 1.5t-0.5 1.5v-9q6 -3 9 -11zM779 670q-5 -8 -8.5 -15t-7.5 -13q6 6 7 8q3 3 5 8q1 4 2 7t2 5zM475 716q-2 1 -4 1t-4 1l-3 -9v-2q0 1 1 1q5 5 7 6h2zM-16 -344q10 -6 18 -12
q-4 4 -7.5 8.5t-8.5 7.5q0 -2 -2 -4zM354 -118q2 5 3.5 8.5t2.5 5.5q-5 -5 -6 -7q-2 -4 -3 -7.5t-3 -8.5l3 4.5t2 2.5v1q0 1 1 1zM308 -420q-2 1 -2.5 2t-1.5 2l-6 2v-5q7 -2 10 -1zM618 400q5 6 10 13l10 14v2q-6 -8 -11 -15t-9 -14zM466 700q-2 -5 -4 -11t-4 -13q3 5 5 10
t3 9t3 8zM299 -410q-4 5 -7 16v-6q1 -2 2 -4.5t2 -4.5q1 0 1.5 -0.5t1.5 -0.5zM300 -163q0 2 0.5 2.5t0.5 2.5l-8 -13l5 2zM701 511q2 2 2 3q2 2 2 4l1 1q0 1 0.5 2t0.5 2h-1q-2 -3 -3 -6t-2 -5v-1zM671 471q1 1 1.5 2t1.5 2l5 9q-6 -6 -7 -9q0 -2 -0.5 -2.5t-0.5 -1.5z
M22 -54q-1 1 -1 2l-5 -9q1 1 2 1.5t2 1.5t1 2t1 2zM269 -227q-1 -2 -1 -4.5t-1 -4.5l3 5q0 3 1 4h-2zM478 135q1 0 1.5 0.5t1.5 0.5l1 2h-2q-1 0 -1 -1q-1 -1 -1 -2zM435 631q-1 -1 -2 -1q-1 -2 -1.5 -3.5t-1.5 -3.5q2 2 2.5 4t2.5 4zM184 247q-2 -2 -3 -5h1q1 2 1 2.5
t1 2.5zM646 441l1 1zM309 438h-1v-1zM287 -342q-1 0 -1 -1z" />
    <glyph glyph-name="X" unicode="X" horiz-adv-x="867" 
d="M-315 -188q0 -4 -5 -3q-3 4 -12 4.5t-19 -1.5t-19.5 -5t-13.5 -6q-23 -13 -37.5 -21.5t-26.5 -18t-24.5 -23t-31.5 -35.5q-26 -30 -55 -72t-53 -88.5t-37.5 -94t-8.5 -90.5q5 -41 24 -61t46 -26t58.5 0.5t62.5 18.5t58.5 27t45.5 27q140 96 269 205t253 224t245 233.5
t244 233.5q1 5 1.5 10.5t2.5 11.5q2 20 4 39.5t4 39.5q0 38 4.5 79.5t12.5 75.5q1 48 7.5 93.5t19.5 93.5q0 1 2 3v1q-1 18 0.5 34.5t3.5 27.5q0 1 -0.5 1.5t-0.5 2.5q-3 0 -7 2t-2 5l3 6v1q1 9 0 12.5t3 8.5h1q-2 2 -2 3v3q2 2 2 4q5 3 5 -2q0 -1 -0.5 -1.5t-0.5 -1.5
q5 -5 13 -5q8 2 13 2q13 3 25 7t17 -1q3 -5 1 -18q2 -1 -1 -6q-3 -17 -10 -37.5t-8 -31.5q-1 -5 -1.5 -9t-0.5 -9q1 -20 1 -41t-6 -41l-2 -46t-3 -46q3 -2 3 -6q-3 -17 -6 -32.5t-6 -31.5l-3 -15q2 -4 2 -5l-6 -21l-15 -96q147 135 300.5 260.5t318.5 239.5q37 26 74 50.5
t75 47.5q26 16 61 36t74.5 41.5t82.5 42.5t84.5 37.5t79.5 27t69 12.5l132 6q12 1 28.5 -1.5t27.5 -7.5q19 -7 32 -19t28 -26q0 -1 -1 -3t-3 0q-14 12 -26 21.5t-25 16.5t-27.5 11t-33.5 3q-32 -1 -65 -1t-66 -6q-80 -14 -157 -43.5t-150.5 -69t-143 -85t-135.5 -90.5
q-171 -118 -328.5 -249.5t-309.5 -271.5q-1 -5 -1.5 -9.5t-1.5 -9.5v-3h-1q-8 -45 -15.5 -89t-13.5 -89h1q5 5 5 -3q-5 -35 -11 -69.5t-9 -69.5q-1 0 -1 -0.5t-1 -0.5q-2 -38 -3 -77t1 -78q1 -26 3.5 -55t7.5 -58q5 -18 8.5 -32.5t6.5 -23.5q7 -18 13.5 -36.5t12.5 -37.5
q12 -25 29 -46q37 -46 84.5 -70.5t100.5 -32.5t107.5 -1t105.5 24q48 17 96.5 43t90.5 52q65 42 124.5 89t119.5 95q2 1 3.5 -0.5t-0.5 -3.5q-80 -65 -161 -128.5t-175 -111.5q-46 -24 -94.5 -41.5t-98 -25t-100 -3t-99.5 24.5q-32 13 -57.5 37.5t-53.5 45.5q-17 13 -29 34
t-20 47l-3 6h-3l-1 -1q-2 5 -4 9.5t-4 9.5q-4 0 -6 1v-1q0 1 -1 2q-4 8 -9 23t-10 34q-4 11 -6 21.5t-4 21.5v3q-5 22 -9.5 40t-3.5 23l-1 1h1q-2 8 -3 15.5t-2 15.5q-5 19 -6 38.5t1 42.5q4 46 9 90t13 89v9t1 9q0 18 1.5 36t3.5 36q1 4 1 7.5v6.5q-2 32 3 62
q-71 -66 -140 -131.5t-138 -132.5q-151 -145 -304 -280t-319 -263q-35 -27 -71 -53.5t-74 -49.5q-32 -19 -73.5 -34t-80.5 -15t-70 21t-41 74q-7 36 7.5 85.5t39.5 100t55 95t55 69.5q18 18 28.5 29t17.5 18t12.5 12t13 10t19 12t30.5 18q5 3 15.5 6.5t22 5t21 1t13.5 -6.5z
M749 617q1 16 1 31.5t2 32.5v4q-1 -5 -1.5 -9.5t-1.5 -8.5q-1 -3 -1 -5.5t-1 -5.5q0 -10 -0.5 -19.5t-0.5 -19.5h3zM775 792q0 2 -12 -1q0 -1 0.5 -1.5t0.5 -1.5v-6q2 -2 2 -4v-2q3 3 8 3v1q1 4 1 12zM684 155q2 13 4 25t4 25q-2 -2 -4 -2h-1q-1 -14 -2 -26.5t-2 -24.5
q0 1 0.5 1t0.5 2zM659 -286q-1 -1 -2 -1t-2 -1q0 -1 0.5 -1.5t0.5 -2.5q2 -4 3 -7.5t3 -8.5q-1 7 -1.5 13.5t-0.5 11.5q-1 -1 -1 -3zM707 322q1 6 1.5 12.5t1.5 13.5q-2 -7 -2.5 -13.5t-1.5 -13.5zM673 -372h-1q1 -4 2 -7.5t2 -6.5h-1q2 -6 4 -10zM750 784h3q0 2 0.5 2.5
t0.5 2.5q-2 -1 -6 -1v-4h2zM651 -143q-1 -4 -1 -7.5t-1 -7.5h2v15zM712 778h2q-4 3 0 7q-1 1 -1.5 1t-1.5 1v-1zM688 231q0 5 1 8h-2q0 -5 1 -8zM725 740q0 -1 -0.5 -1.5t-0.5 -1.5t2 3h-1z" />
    <glyph glyph-name="Y" unicode="Y" horiz-adv-x="1080" 
d="M651 -394q-5 -7 -10.5 -14.5t-12.5 -18.5q-1 0 -1 -2l-1 1q-1 -1 -3 -1q-2 -1 -7 -8q-6 -14 -14 -24.5t-22 -15.5q-22 -26 -49 -48t-56 -40q-27 -26 -63 -40.5t-75 -21t-78.5 -6.5t-73.5 3q-15 2 -28.5 11t-27.5 16q-13 7 -15.5 23t-7.5 29q-5 12 1 29.5t18 37.5t27.5 40
t29.5 36t24 27t11 12q2 2 4 0.5t0 -3.5q-14 -18 -32.5 -38t-35 -42t-28.5 -46.5t-13 -51.5q0 -33 24 -50t51 -23q28 -7 59 -7.5t62.5 4.5t62 15.5t57.5 25.5q0 2 1 2q6 3 12 6.5t11 6.5q8 5 14.5 11t13.5 11q26 26 52 54t49 57v1h1q11 26 31 49q1 1 3 1q8 15 17 28t18 24
q8 15 24 34q7 11 15.5 22.5t16.5 23.5q21 34 40.5 67.5t39.5 66.5q60 103 116 206t108 209q9 30 22 61t22 49q1 2 3.5 5.5t5.5 8.5q5 11 10.5 21.5t10.5 21.5q-26 -25 -44 -42.5t-34 -33.5t-31.5 -32t-35.5 -38q-29 -32 -57 -64.5t-57 -63.5t-60 -60t-67 -54
q-22 -16 -47.5 -25t-52.5 -16q2 -2 -2 -2h-8q-17 -5 -33 -8t-31 -8q-3 0 -6 3q-2 3 -2.5 6.5t-1.5 6.5q-17 6 -32.5 19.5t-26.5 30t-15 33t3 29.5l9 18l9 27q8 29 19.5 56t20.5 46l2 2q3 9 6 17.5t8 16.5q4 8 8.5 15t11.5 14q6 24 20.5 46.5t32.5 42.5q7 11 13 21t13 19
q14 29 29 58t29 49q5 10 11 20t11 21q7 15 14 29.5t15 28.5q0 2 1 3t1 2q11 24 20 47.5t17 49.5q1 4 2 9t3 10q1 11 3.5 22.5t6.5 22.5q3 18 5.5 37t2.5 37q-3 15 -2 24q-2 8 -3.5 14.5t-3.5 12.5q-3 5 -6 9.5t-5 8.5q-15 18 -43 21q-3 0 -2.5 2.5t2.5 2.5q1 0 1.5 -0.5
t2.5 -0.5q-8 4 -17 7t-17 6q-12 4 -26.5 0.5t-29 -11t-27.5 -16.5t-22 -16q-24 -19 -53 -48t-56 -62t-49.5 -68t-33.5 -65l8 6q3 2 4 -0.5t-2 -4.5q-4 -3 -10 -7q-1 0 -1.5 0.5t-1.5 0.5q-3 4 2 15.5t14.5 27.5t21.5 34t23.5 34t20.5 28l12 16q14 17 39 44t54 51t59 39.5
t55 10.5q32 -7 60.5 -23.5t58.5 -30.5q2 -2 2 -4l2 -20t3 -20q0 -4 1 -5q5 -25 7 -49.5t-6 -47.5q-1 -3 -2 -5.5t-2 -4.5q0 -1 0.5 -1.5t0.5 -1.5q-3 -4 -5 -10q-18 -54 -28.5 -86.5t-18.5 -55t-15.5 -40.5t-19 -42.5t-29.5 -61t-47 -96.5q-7 -14 -20 -39.5t-29 -57.5
t-33.5 -68t-32 -70t-25 -64t-13.5 -51q-2 -13 2.5 -24.5t10.5 -22.5q7 -4 14 -5t15 -2q2 3 4.5 6t5.5 7q2 2 4 0.5t0 -3.5t-3 -5.5t-3 -5.5h13q19 4 35 7.5t31 8t29 11.5t31 18q65 41 116.5 98.5t101.5 114.5q42 48 85.5 90.5t88.5 85.5q2 0 2 -1q4 7 7 13.5t7 13.5
q4 9 8 18.5t8 19.5l45 108q7 26 18 56.5t22 50.5q4 12 7.5 24t7.5 25h-2q-3 0 -2.5 2.5t2.5 2.5h5q3 0 3 -3l-2 -5h1q3 0 6 0.5t7 0.5q8 8 13 9.5t7 -6.5q6 0 8.5 0.5t7.5 -1.5q1 -2 1.5 -2.5t1.5 -2.5q3 1 5.5 1t5.5 1h2q1 0 4 -3q2 0 2.5 -0.5t2.5 -0.5q4 0 3.5 -2.5
t-2.5 -4.5q-1 0 -1.5 -0.5t-1.5 -0.5q5 -3 0 -5q-8 -2 -9 -2h-1l-1 -1q1 -1 1 -3q-2 -2 -2.5 -5t-1.5 -5q4 3 -2.5 -13t-19 -44t-29 -63t-32 -70t-28.5 -66.5t-19 -50.5q-21 -42 -43 -80.5t-44 -78.5q-13 -29 -28.5 -58.5t-30.5 -58.5q-11 -22 -19.5 -45.5t-23.5 -43.5
q-2 -2 -4 -2q-19 -42 -37.5 -81.5t-41.5 -78.5q-18 -29 -39 -54q-13 -24 -26.5 -47t-28.5 -46q-23 -32 -47 -64.5t-50 -63.5q0 -1 -2 -3q-6 -8 -12.5 -15t-13.5 -15q-1 -2 -1.5 -2.5t-1.5 -2.5q0 -1 -0.5 -1t-0.5 -1l-1 -1q-2 -2 -3 -5zM563 -469q0 2 1 3l5 3q1 2 2 3t2 3
q2 4 3.5 8t3.5 8q-12 -14 -24 -29t-24 -29q7 7 13 13.5t14 12.5q1 2 2 2.5t2 1.5zM510 41q-17 8 -38 32l-6 6l7 -10.5t8 -8.5q16 -18 32 -25zM943 80q-2 -6 -2 -5q-3 -7 -8 -17.5t-11 -22.5l2 -2q5 10 9 19.5t9 20.5v2q0 1 0.5 2t0.5 3zM1221 791q-2 -8 -4.5 -14.5
t-4.5 -13.5q2 2 4 3.5t3 2.5q1 4 4 7q-1 0 -1 1q-3 2 -2.5 5t3.5 4h1v1q-1 0 -1 1h7q0 1 2 3q-3 -1 -8 -1q-2 0 -3 1zM511 -531q-2 2 1 5l15 21q-8 -10 -15.5 -19t-15.5 -19zM819 -92q2 4 3.5 7.5t3.5 8.5q-3 -4 -5.5 -8t-4.5 -8t-3 -7l-2 -6q1 3 4 4q1 2 2 4.5t2 4.5z
M982 218q2 3 4.5 6.5t5.5 7.5q2 5 3.5 10t3.5 10zM523 32q9 -2 20 0q-6 1 -11.5 2t-10.5 3q1 -2 1 -2.5t1 -2.5zM763 750q-2 -7 -4 -13t-4 -13l2 4t3 5q2 4 3 7v10zM813 854q-1 -5 -1.5 -9t-1.5 -8h1l1 2v-1l1 1q1 2 1 4.5t1 4.5q0 2 0.5 4t0.5 4h-2q0 -1 -1 -2zM1207 740
l2 6t3 7q-2 -2 -2.5 -3t-2.5 -3q-2 -5 -2.5 -9t-2.5 -8l3 5q1 2 1 2.5t1 2.5zM752 -200q0 2 1 3l-7 -7q-2 -2 -2 -3h1zM598 -453q-2 -2 -4 -5l-4 -6l6 6t5 7q-1 -1 -1.5 -1t-1.5 -1zM699 562q-1 -2 -1 -4t-1 -4q1 2 1.5 3.5t1.5 3.5l3 9l-1 1zM806 -163l1 -2q1 4 5 8z
M687 592q2 2 2.5 4t2.5 4v2l-1 -1l-4 -8v-1zM503 52q2 -1 2.5 -1.5t2.5 -1.5q-1 1 -1 4q-1 0 -1.5 -0.5t-2.5 -0.5zM507 148q-1 -1 -1.5 -2t-2.5 -2v-5q1 3 2 5zM525 28q0 -2 1 -3q3 0 4 1q1 0 -5 2zM809 985q-2 0 -3 1q1 -2 1.5 -2.5t1.5 -2.5v4zM1159 489q1 1 3 8l-4 -8h1
zM1227 775q-1 -1 -1 -2t-1 -2l3 3zM529 322l2 4l2 4q-3 -4 -4 -8zM1106 391l-2 -2v-2zM497 77v2h-1zM1243 798q-1 0 -1 -1h1v1zM790 961q0 1 -1 1v-1h1zM785 -159v-1q0 1 0.5 1t0.5 1z" />
    <glyph glyph-name="Z" unicode="Z" horiz-adv-x="621" 
d="M-87 -136q-2 -4 -4 0l-2 -2v12q10 8 20 16.5t21 16.5q-11 -5 -21 -11.5t-21 -13.5v4q28 21 60 36q17 14 34 27.5t34 27.5q-4 4 2 6q4 0 6 1q10 8 20 15.5t20 15.5q8 12 21.5 23t30.5 20q54 44 107.5 87t106.5 87q25 27 50.5 49.5t45.5 29.5q22 18 43 35.5t42 34.5l44 36
t45 36q5 5 10 9l10 8q56 45 110.5 89.5t110.5 89.5q15 14 29 26.5t29 25.5q13 13 26 21q27 29 54 50l1 2q1 1 2 1.5t3 2.5q-39 -15 -79.5 -28.5t-82 -22.5t-83.5 -11.5t-84 4.5q-19 3 -37 8.5t-38 8.5q-15 2 -30 2.5t-29.5 2t-29 5t-28.5 12.5q-28 18 -29.5 44.5t13 51
t39 41.5t48.5 17q3 0 3 -3q-1 -3 -1 -6.5t-1 -6.5q-1 -2 -3 -1.5t-2 2.5q1 3 1 10q-16 0 -34.5 -11.5t-33 -28.5t-21 -36.5t1.5 -36.5q5 -8 11.5 -15t13.5 -14q12 -11 28 -15t34 -4.5t35.5 -1t31.5 -3.5q54 -11 101.5 -13t93 4t91.5 19.5t97 31.5q5 2 12 4t17 5l6 3
q23 24 30 31.5t4 4t-12.5 -14t-19.5 -21.5q12 5 25 7q10 6 21 10.5t21 3.5q13 7 20 12q2 1 3.5 -0.5t-0.5 -3.5q-3 -2 -6 -5t-8 -5q1 -1 5 -1l9 6l2 2v-1q3 1 4 -2t-1 -5l-3 -3h2q2 0 2 -4q-3 -10 -7 -15q0 -3 -1 -4l-2 -2q-5 -8 -12.5 -14t-15.5 -12q-8 -14 -17 -28.5
t-23 -14.5q-5 0 -5 5q0 1 2 5q-1 0 -1.5 0.5t-1.5 0.5q-16 -11 -31.5 -21.5t-31.5 -21.5q-2 -2 -5 -4.5t-6 -5.5q-15 -15 -31 -28q-2 -2 -3.5 -3t-3.5 -2q-26 -21 -36 -26h-2l-10 -10t-10 -9q-5 -3 -10 -3q-15 -13 -30.5 -25.5t-31.5 -23.5q-24 -21 -48 -41.5t-47 -41.5
q-4 -5 -9 -8q-83 -74 -165.5 -146t-167.5 -144q-30 -32 -42 -37l-18 -15q-24 -20 -48 -41t-48 -41q-15 -17 -34 -31.5t-34 -30.5q-1 -2 -4 -5q71 -4 140.5 -23.5t132.5 -50.5q34 -16 62 -38t59 -45q62 -46 123.5 -93t127.5 -86q67 -40 137.5 -68t148.5 -39q82 -12 148.5 -7
t121 30.5t99 74t82.5 122.5q5 3 5 -2q-38 -74 -82.5 -123.5t-99.5 -76.5t-122.5 -33t-152.5 6q-78 11 -150.5 39t-140.5 68q-67 40 -128 87t-124 94q-19 15 -33 26.5t-27.5 21t-27.5 18t-32 17.5q-27 13 -60 26.5t-69 24.5t-72.5 18t-69.5 8q-2 -2 -4 -6q-1 2 -1 6
q-3 0 -6 -0.5t-5 -0.5q-31 -22 -59 -41q-2 0 -3 1.5t1 3.5q13 9 25.5 17.5t25.5 18.5q-3 -1 -6.5 -1t-6.5 -1q-14 -2 -28.5 -7.5t-28.5 -12.5q-15 -11 -30 -18q-1 0 -3 -2v1q-1 1 -1.5 1t-1.5 1q-12 -5 -26.5 -9.5t-28.5 -11.5q-8 -7 -17 -13.5t-18 -14.5zM253 73
q13 11 26 22.5t27 23.5l11 11q-17 -13 -35 -20q-4 -4 -10 -8l-13 -11q-1 -1 -2 -1q-3 -4 -5.5 -7.5t-5.5 -7.5h4q1 -1 1.5 -1t1.5 -1zM119 -37q7 7 16 13q-1 1 -1 4v1q0 1 1 1q0 1 1 2q3 6 6 9q-5 -4 -10 -7.5t-10 -5.5q-2 -2 -4 -3.5t-4 -3.5l-3 -3l-1 2q-4 -2 -7 -4.5
t-6 -4.5h22zM309 187q-26 -21 -49.5 -40t-46.5 -37q9 5 16.5 9.5l12.5 7.5q11 9 21 18t21 17q4 2 5 4q5 5 10 10.5t10 10.5zM1078 764q-1 -1 -2 -1q-6 -5 -13 -8q-6 -6 -9 -8q0 -2 -2 -4q0 -5 -1 -7l6 4l6 4l8 10t7 10zM112 27q-6 -5 -12.5 -10.5t-13.5 -10.5q-2 -2 -2 -5
q5 4 12.5 9l16.5 11q4 3 10 7q2 2 3 2.5t3 2.5q-4 -2 -7.5 -3t-8.5 -3h-1zM127 39q5 2 11 4.5t11 5.5q5 4 9.5 7t9.5 7q-13 -6 -26 -13q-4 -2 -7.5 -5t-7.5 -6zM4 -76q5 2 10 4.5t10 5.5q4 3 8.5 5.5t9.5 6.5q-15 -9 -31 -13q-4 -4 -8 -7t-9 -6q3 1 5 2t5 2zM571 361
q-5 -7 -10.5 -13.5t-10.5 -13.5l24 21v1q0 1 -2 3v3zM340 206q17 15 34 30.5t35 29.5q-19 -14 -36 -29t-33 -31zM66 -45q3 2 6.5 2.5t6.5 2.5q2 3 5 5h-3q-2 0 -4 2l-6 -6t-5 -6zM716 516q4 2 12 8q5 6 10.5 12t11.5 12q-9 -8 -17.5 -16t-16.5 -16zM1088 801q2 0 2 -2
q4 3 10 9q-2 -1 -4 -1q-4 -2 -7 -3t-7 -3h6zM1096 775q-1 -1 -2 -1q-2 -3 -3.5 -6t-3.5 -6q0 1 1 1t1 1q5 5 8.5 9.5t8.5 9.5q-4 -2 -5 -2l-2 -2l-2 -4h-1zM1020 714q11 8 25 17v3q-2 -3 -5 -5q-2 -2 -3 0q-5 -4 -9 -7.5t-8 -7.5zM43 -32q8 6 12 8q-2 0 -3 -0.5t-3 -0.5
q-6 -3 -11 -8q3 0 5 1zM889 629l2 2q5 5 8.5 9t7.5 9q-2 -1 -2.5 -2t-1.5 -2l-14 -14v-2zM211 40q-2 -2 -4 -3t-4 -3l-9 -12l9 9t8 9zM400 275q7 5 13.5 11t14.5 12q-15 -10 -28 -23zM706 472q5 5 11 9.5t12 9.5h-1l-4 -2q-5 -5 -9.5 -8.5t-9.5 -8.5h1zM683 451l8 8
q-1 0 -2 -1q-3 -2 -6 -4.5t-6 -5.5zM-31 -88q2 1 5 1.5t5 1.5q-1 1 -1 3zM196 86q4 3 7.5 5.5t8.5 5.5l2 2q-5 -4 -11 -7.5t-10 -6.5q1 1 3 1zM990 706l8 6l8 6l2 2q-4 -3 -7.5 -5.5t-8.5 -5.5q-2 -2 -2 -3zM1126 807q0 -3 -1 -4q-3 -4 -7 -7h3q5 6 6 11h-1zM883 624l2 1v2
l-7 -7q2 1 5 4zM942 665q-4 -2 -5 -2q0 -1 -0.5 -1t-0.5 -1q1 0 1.5 0.5t1.5 0.5q0 1 1 1zM131 -37q0 2 1 2v1l-3 -3h2zM1040 778q-2 -1 -4 -3q1 1 2 1zM1 -67q-1 -1 -1.5 -1t-1.5 -1l2 2h1zM1054 731l2 2q-1 0 -2 -1v-1zM1112 810v-1l1 1h-1z" />
    <glyph glyph-name="bracketleft" unicode="[" horiz-adv-x="833" 
d="M-9 -101q-3 0 -3 2v2q-5 2 -9 2.5t-8 1.5q-4 -4 -7.5 -8t-8.5 -9q-2 -2 -4 -0.5t0 3.5q4 4 7 7.5t6 7.5q-7 1 -13 0q0 -2 -1 -3q-2 -2 -3.5 -1t-1.5 3q5 11 25 8q20 24 40.5 50.5t40.5 54.5q-1 0 -1 1q2 2 11 17.5t21 32.5l1 1v1q2 2 3.5 4.5t3.5 4.5q7 12 14 23.5
t13 23.5q2 5 4.5 9.5t5.5 9.5q6 16 15 29q7 15 12.5 28.5t10.5 27.5q1 3 6.5 22t12.5 40.5t14 40t12 20.5q8 3 21 0q2 1 3.5 2t3.5 2q-2 -4 -2 -5q6 -2 10 -3q0 3 3 3q6 -2 6 -7q10 -4 18.5 -7.5t13.5 -4.5q2 -1 2.5 -3t-2.5 -2q-7 1 -15.5 3.5t-17.5 5.5q-3 -9 -9 -19.5
t-8 -13.5q-13 -26 -24.5 -53t-23.5 -54q-3 -7 -6 -13.5t-6 -11.5q1 1 1.5 2t2.5 3t4 0.5t0 -3.5q-12 -17 -23 -34.5t-22 -35.5q1 0 1.5 -0.5t1.5 -0.5l1 -1q2 -1 2 -5q-14 -23 -29 -48t-37 -41q-1 -1 -1 -1.5t-1 -1.5q-20 -26 -40 -51t-40 -51q5 -2 10 -3.5t9 -2.5
q20 -2 36 -0.5t31.5 6t32 11t36.5 14.5q3 2 4 -0.5t-2 -4.5q-13 -6 -27.5 -12.5t-29.5 -12t-31 -9t-31 -2.5q-10 2 -21 5t-21 6q0 -1 -1 -2h-2zM54 -7q-2 -2 -4 -0.5t0 3.5q1 2 3 4v2q5 10 11 19.5t13 18.5q2 4 4 7.5t4 8.5q-14 -20 -26.5 -42t-25.5 -44q-3 -5 -14.5 -21.5
t-18.5 -31.5q17 26 33.5 48t27.5 36q-3 -2 -7 -8zM250 342q-2 0 -6 2q1 -2 1 -3t1 -2q0 -4 -5 -3q-3 -6 -6 -10.5t-8 -8.5q0 -11 -5.5 -22.5t-9.5 -19.5q-2 -2 -3 -6t-3 -9l1 -2q3 8 6.5 15.5t7.5 15.5t14.5 24t14.5 29zM-23 -87q8 -2 13 -4q4 10 12 25.5t18 30.5
q-11 -13 -21.5 -26t-21.5 -26zM214 350q-8 -11 -13.5 -24.5t-9.5 -27.5q4 14 10.5 25.5t14.5 16.5v1q1 0 2 1q1 0 1.5 0.5t1.5 0.5q1 2 1.5 3.5t1.5 3.5q-8 2 -10 0zM240 345q-4 2 -7 2q-2 -5 -3.5 -10.5t-3.5 -10.5q0 -1 1 -1l6 6q2 3 3 6.5t3 6.5zM185 207q3 8 6 14.5
t6 14.5q-1 -2 -2 -4.5t-3 -5.5q-2 -5 -3.5 -9.5t-3.5 -9.5zM127 86q-1 -1 -1 -3l2 3h-1z" />
    <glyph glyph-name="backslash" unicode="\" horiz-adv-x="833" 
d="M-3 518q0 -5 -5 -3q-5 11 -9.5 20.5t-6.5 20.5q0 4 4 3q15 -8 30 -31.5t27.5 -51t23 -53.5t16.5 -39q46 -106 93.5 -208t113.5 -199q0 -5 -5 -3q-45 63 -81 127t-68 136q-17 37 -33 78t-33 81.5t-36.5 80t-44.5 73.5q3 -8 6.5 -16t7.5 -16z" />
    <glyph glyph-name="bracketright" unicode="]" horiz-adv-x="833" 
d="M224 316q2 2 4 0.5t0 -3.5q-1 -1 -1.5 -2t-1.5 -2q1 1 3 -1q2 0 2 -2v-1l8 8q6 3 6 -4q0 -1 -1 -1h1l-1 -1q-1 -4 -5 -9l8 8q5 5 6 7q-11 3 -30.5 4.5t-39.5 2.5t-38 1h-26q-3 0 -2.5 2.5t2.5 2.5q14 0 33 1t38.5 0.5t38.5 -2.5t33 -8q6 5 11 6q8 0 7 -7q-5 -9 -13 -17
q-26 -38 -56 -72t-50 -74q-32 -63 -56.5 -121.5t-56.5 -115.5q-8 -17 -14.5 -29.5t-11.5 -20.5q-3 -3 -6 -1q-1 -1 -1.5 -2t-1.5 -2q4 -1 7.5 -2t8.5 -3q5 -5 -1 -5q-5 2 -10 2.5t-10 1.5q-7 -11 -15.5 -20.5t-17.5 -19.5q-2 -2 -4 -0.5t0 3.5l10 12l10 12q-8 -7 -11.5 -2.5
t0.5 18.5q-16 0 -31.5 -1.5t-29.5 -3.5q0 -2 -3 -2h-8q-5 5 0 6q39 9 74 8q1 2 1.5 3.5t1.5 3.5q-3 8 4 20q2 7 4.5 13.5t5.5 14.5q10 31 24.5 60t29.5 58q19 36 37 71.5t38 70.5q11 20 22.5 39t25.5 36q5 7 8.5 13.5t8.5 14.5q3 4 6 3q6 8 12.5 15t13.5 15zM-12 -135
q3 -1 6 -1t6 -1q7 9 13 22q-3 -2 -6 0q-8 -9 -17 -17h-1q0 -1 -0.5 -1.5t-0.5 -1.5zM214 248q16 17 28 34h-1l-6 -3h-1l-9 -12q-2 -5 -5 -9.5t-6 -9.5zM-4 -143q-3 0 -5.5 0.5t-5.5 0.5q-1 -2 -1 -7t0 -2q0 -1 0.5 -1t0.5 -1v-1q2 2 5 4.5t6 6.5zM5 -76q-1 -4 -2 -7.5
t-2 -6.5l2 2q4 8 7.5 16t8.5 16h-1q-8 -11 -13 -20zM201 274q-1 -1 -1 -3q5 6 9.5 11.5t9.5 11.5q1 2 2 2.5t1 2.5q-9 -7 -21 -25zM41 -48q0 1 -1 2q0 -1 -2 -3q-1 -3 -1.5 -5.5t-1.5 -5.5zM42 -31q-2 -3 -3 -5.5t-3 -5.5l3 3l2 5h1v3zM90 40q0 -1 -1 -1v-1q-2 -2 -2.5 -4.5
t-2.5 -4.5q4 6 7.5 12t6.5 12q-2 -4 -4 -7.5t-4 -5.5zM222 284q-2 -2 -3 -5q1 1 2 1l3 6zM51 -32q1 2 2 4.5t3 6.5l-4 -6q0 -1 -0.5 -2t-0.5 -3zM92 92q1 0 1 1t1 3v-1q-1 -1 -1 -1.5t-1 -1.5zM28 -102q2 2 2 4q-1 -1 -1 -2t-1 -2zM47 -25q-1 0 -1 -2q1 0 1 1.5t1 1.5z
M70 10h-1l1 -1v1zM73 -13q0 1 1 2q-2 0 -2 -4q1 1 1 2z" />
    <glyph glyph-name="asciicircum" unicode="^" horiz-adv-x="212" 
d="M40 153q-2 -2 -4 -0.5t0 3.5q7 8 13 16t13 16q4 4 7 6.5t7 5.5q3 3 7 6.5t8 6.5q1 0 1 1l4 2l4 2q12 5 17 0q3 0 3 -3q5 -7 4.5 -20t3.5 -21q1 -2 1.5 -2.5t1.5 -2.5q2 -2 5 -2q5 -5 0 -5l2 -2q0 -3 -2 -3h-1q-6 0 -7 1q0 -1 -2 -1q-6 1 -10 5q-14 2 -17.5 16t-5.5 25
q-17 -10 -28 -23t-25 -27zM111 211q-3 -2 -5.5 -2.5t-4.5 -2.5q0 -1 0.5 -1t0.5 -1q3 0 2 -4l3 -3q0 -1 1 -1q1 2 1 2.5t1 2.5v1q1 2 1 4t1 4zM117 187q1 -1 1 -1.5t1 -1.5q0 4 -0.5 8t-0.5 8q-1 -3 -1 -11v-2z" />
    <glyph glyph-name="underscore" unicode="_" horiz-adv-x="285" 
d="M265 -28q-1 0 -1.5 0.5t-1.5 0.5l-2 -2q-2 -6 -9 -5q2 -1 2.5 -3t-2.5 -2q-9 0 -18 0.5t-18 1.5h-24q-16 -4 -32 -7t-32 2q-8 -1 -19.5 -2t-23.5 -1.5t-23 -1t-17 -0.5q-5 0 -11.5 -5t-10.5 -8q-7 0 -4 5q5 12 15 21q0 2 1 2q25 12 54.5 17t60 5t60.5 -3.5t56 -9.5
q2 -1 2.5 -3t-2.5 -2zM249 -34q-4 2 -2 4h-2l-2 -2q-1 0 -2 -1q2 0 4 -0.5t4 -0.5zM31 -45q1 1 5 3q0 3 1 4l1 1q-5 -2 -7 -8zM72 -25q-3 -1 -6 -1t-6 -1h2q2 0 2.5 -0.5t1.5 -0.5zM251 -26q-2 1 -5 1q2 -2 2 -3q1 1 1.5 1t1.5 1zM79 -39q-1 0 -1 1q-1 0 -2 -1h3z" />
    <glyph glyph-name="grave" unicode="`" horiz-adv-x="216" 
d="M165 336q2 -1 2.5 -3t-2.5 -2h-6q3 -3 -3 -3q-25 8 -58.5 15.5t-64.5 8.5q-4 2 -5 3q0 1 -0.5 2t-0.5 2q-1 4 2 7q8 7 15.5 17t15.5 11q0 5 5 2q0 -1 2 -3q7 -1 13 -3.5t13 -6.5q5 -2 13.5 -9t22.5 -18q8 -2 13 -9t10 -10q4 -1 12 -1h1zM65 383q1 -1 4 -1l1 1h-1h-4z" />
    <glyph glyph-name="a" unicode="a" horiz-adv-x="321" 
d="M185 198q0 3 2.5 2.5t2.5 -3.5q0 -1 -0.5 -1.5t-0.5 -1.5q13 1 24.5 3t23.5 2q2 0 3 -1l2 -2q2 -2 0 -5q-5 -6 -7.5 -11.5t-4.5 -10.5q2 -10 -3 -22t-14 -23q-11 -24 -24.5 -54.5t-21.5 -62.5q-1 -2 -1 -4.5t-1 -4.5q-4 -17 -5.5 -33.5t1.5 -31.5q8 -11 17 -21.5
t20 -18.5q39 -29 80.5 -27t82 20.5t77.5 46.5t66 52q2 1 3.5 -0.5t-0.5 -3.5q-33 -28 -67.5 -56.5t-76.5 -48.5q-60 -28 -110.5 -17.5t-84.5 52.5q2 -2 2.5 -4t2.5 -4q0 -5 -5 -3q-8 12 -9 24q-11 16 -21 38v1q-7 16 -12 40q-5 23 0 43t14 40q-30 -44 -71 -68
q-21 -13 -39 -18t-30.5 0t-18.5 20.5t-4 43.5q1 14 14.5 35t32 42t37 37.5t30.5 22.5q8 4 20 0.5t23 -11.5t19.5 -17.5t9.5 -17.5q0 -2 -2.5 -2.5t-2.5 1.5q-1 5 -8.5 13.5t-18.5 15.5l-1 -1q-18 -5 -30.5 -16.5t-22 -27t-15.5 -34t-10 -37.5q0 -7 -1 -9q-1 -1 -1 -5
q-1 -2 -1 -3.5t-1 -3.5q-2 -15 -3 -27h2q0 -1 -1 -1l2 -2q10 4 17 10q35 24 63.5 58.5t40.5 74.5q0 3 2.5 2.5t2.5 -3.5q-1 -1 -1 -3q2 5 4.5 11t4.5 12q-5 1 -1 5h1v1h1q1 1 0.5 2t0.5 3h-2q-2 2 1 4l1 1q0 1 0.5 1.5t0.5 2.5zM94 195q-10 -3 -26 -18t-32 -35h3q3 6 7.5 12
t12.5 10q3 4 6 7.5t7 6.5v1h1q13 13 18.5 13t12.5 -2q4 1 10 0q1 -1 1 -2h1q4 0 4 -4q-1 0 7 2q-8 5 -16.5 8t-16.5 1zM-3 29q-2 7 -3 15.5t-1 16.5h-2q-3 -6 -1 -15t7 -17zM186 178q-1 -5 -2 -9.5t-3 -9.5l1 1q2 4 5.5 3t4.5 -6q1 4 4 7q-2 0 -3 -0.5t-3 -0.5q-4 0 -4 4
q1 5 3.5 7t5.5 4h-9zM229 191q-2 -1 -4 -1.5t-4 -1.5v-1q0 -2 -0.5 -2.5t-0.5 -2.5zM157 -60q-1 3 -1 10q-3 0 -4 -1h-1zM189 189q0 -2 -0.5 -2.5t-0.5 -1.5q2 0 4 0.5t4 0.5v2q-6 0 -7 1zM136 41q-1 -5 -1.5 -10t-0.5 -10q1 2 1 4.5t1 4.5v11zM93 185q0 -1 0.5 -1t0.5 -1
q6 2 5 2q1 1 1 2l-2 1q-3 -1 -5 -3zM157 -27q0 11 1 14q-1 0 -1 -1h-1v-11q0 -1 1 -2zM-10 22q7 -9 10 -10q-2 2 -3.5 4t-3.5 5q-1 0 -1.5 0.5t-1.5 0.5zM200 171l3 4.5t2 2.5l-6 -4.5t-3 -2.5h4zM158 25v6l-2 -6v-6zM-4 84q-2 -3 -2.5 -5.5t-2.5 -4.5q3 3 5 3v7zM57 149
q2 1 2.5 2t2.5 3q1 1 2 1.5t2 1.5q-1 0 -2 -0.5t-2 -0.5q-2 -2 -2.5 -3.5t-2.5 -3.5zM60 125q1 4 5 8q-1 0 -1 0.5t-1 0.5zM170 47q-2 -2 -2.5 -3t-1.5 -2v-3q1 2 1.5 2.5t1.5 2.5q0 2 1 3zM215 185l1 2q-4 0 -5 1l2 -2zM40 26q0 -1 -2 -3q0 -1 0.5 -1.5t0.5 -1.5h1v6z
M84 166q-2 -2 -2.5 -4t-2.5 -4l3 3q0 1 0.5 1t0.5 1q1 1 1 1.5t1 1.5h-1zM-1 57q0 -2 0.5 -3.5t0.5 -3.5l1 2q0 1 -0.5 1.5t-0.5 1.5zM27 23q-1 0 -1.5 0.5t-1.5 0.5v-1h3zM9 87q-2 0 -2 -1h1zM213 177v1h-1zM67 138l-1 -1h1v1zM215 152v1v-1z" />
    <glyph glyph-name="b" unicode="b" horiz-adv-x="295" 
d="M-44 -3q-2 2 -1 4.5t3 0.5l1 -1l1 1q13 26 20.5 55t19.5 56q14 31 31 61.5t35 59.5q14 32 29 62t19 40q12 30 31.5 57t40.5 53q-57 11 -112.5 24.5t-112 27t-113 24.5t-114.5 17q-60 5 -120 3.5t-115 -25.5q-17 -8 -31.5 -16.5t-22.5 -19t-6.5 -25t15.5 -33.5q0 -5 -5 -3
q-22 29 -16.5 50t28 35.5t56 23.5t67.5 14t63 6t43 0q64 -3 127 -14t125.5 -25t124.5 -29.5t125 -27.5q11 12 21 24.5t20 24.5q19 23 38.5 49t41 51.5t45 48t50.5 39.5l-1 2q0 6 5 3q0 -1 1 -2q13 7 29 13q13 10 28 15q3 0 4 -1q11 8 23.5 11t26.5 2q29 8 56.5 1.5
t51.5 -38.5q3 -4 10.5 -16.5t15 -28t13 -32t4.5 -28.5q-3 -34 -18.5 -61.5t-39.5 -48t-54 -34t-61 -19.5q-26 -5 -52.5 -5t-53.5 -2q-30 -2 -60 2.5t-60 8.5q-8 1 -15 2l-14 2q-8 -11 -17 -20t-19 -18q-8 -11 -15.5 -20.5t-13.5 -20.5q-1 -2 -2 -3t-2 -3q-1 -6 -9 -17
q0 -2 -2 -4q-1 -3 -3 -6.5t-4 -7.5q-14 -30 -29 -61.5t-30 -46.5v-1l-5 -12h1q-1 -1 -1 -2q-2 -6 -4.5 -12t-5.5 -11q-7 -16 -14 -31t-15 -30q16 18 41 39t52 34.5t52.5 15.5t43.5 -18q10 -12 10 -30.5t-5 -37.5t-13.5 -36.5t-15.5 -28.5q-15 -21 -40.5 -28.5t-49.5 -9.5
q-3 -1 -14 1q-6 -2 -9 1q-1 0 -1 2q-14 5 -25 14.5t-19 20t-13.5 19.5t-7.5 13q-3 -5 -5 -10q-7 -14 -10 -29t-9 -30q3 0 3 -3q-2 -11 -9 -12.5t-15.5 0t-18 3.5t-16.5 -1v-1q-1 -1 -3 -1q-1 0 -2 0.5t-2 0.5zM331 562q-13 -31 -34 -59t-44 -55q2 -2 -1 -4q-1 -1 -0.5 -1
t-0.5 -1q70 -11 144 -12q37 0 84 7t88 25.5t69.5 50t28.5 79.5q0 12 -5 26.5t-11.5 28.5t-13.5 25.5t-11 16.5q-27 37 -60 39.5t-66.5 -14.5t-63.5 -44t-51 -48q-14 -14 -26.5 -29t-24.5 -30h-1v-1zM46 87q0 -1 -1 -1q3 -5 9.5 -15.5t16.5 -22t23 -20.5t29 -11q16 8 31.5 28
t26 43t13 44.5t-7.5 32.5q-2 2 -10 6.5t-13 8.5q-19 -8 -37.5 -20.5t-34.5 -26t-27.5 -26t-16.5 -19.5v-1h-1zM34 153q2 7 5 13.5t6 13.5q-7 -11 -13 -21.5t-11 -19.5q3 3 6 6.5t7 7.5zM-6 15q-4 -7 -11 -9h7v1q3 2 7 3.5t6 3.5q0 -1 -2 5q-2 -1 -3.5 -2t-3.5 -2zM155 19
q10 1 16 5q-1 1 -1 1.5t-1 1.5q-3 -1 -5 1l-3 -3q0 -1 -1 -1zM44 109q-2 -5 -5 -10.5t-6 -10.5q-1 -3 -1 -4.5t-1 -3.5q3 8 7 14.5t6 14.5zM212 188q-5 1 -9 1.5t-8 -0.5l12 -3q2 2 4 1zM160 346q2 2 2.5 4.5t2.5 4.5q-1 0 -1 4q-2 -2 -2 -4v-1q-3 -4 -4 -8l2 2v-2zM144 17
q0 5 1 6q-2 -2 -5 -3t-5 -3h9zM4 47q-1 -4 -4 -8l2 -2t2 -3v13zM166 42q-1 -1 -2 -2.5t-3 -3.5q1 0 2 -1l1 1q2 6 6 10q0 2 0.5 3t0.5 2q-2 -3 -3 -5zM-33 4q2 1 5 1t5 1h-3q-1 1 -2 1.5t-2 1.5q-1 -2 -1.5 -2.5t-1.5 -2.5zM121 246q2 5 4.5 10.5t5.5 10.5q-3 -5 -5.5 -9
t-4.5 -8v-4zM198 408q-7 -7 -10 -13l10 12v1zM363 645q-7 -7 -8 -9q1 1 2.5 2t3.5 3l1 1q0 2 1 3zM63 147q-2 -4 -3.5 -7.5t-3.5 -7.5l2 2l2 6t3 7zM204 44q-2 -2 -2 -4l6 6h-2zM393 643q1 2 2 2.5t3 2.5q-2 -2 -3 0l-3 -3zM177 26q4 1 8 4l-1 1q-1 -3 -5 -2q-1 -1 -1 -1.5
t-1 -1.5zM-9 24q1 1 2 1t2 1l-2 2q0 -2 -2 -4zM402 679q-2 -2 -3 -2.5t-3 -2.5l1 1q2 1 3 2t3 2h-1zM189 187l1 2q-1 0 -1 -0.5t-1 -0.5v-1h1zM53 113q-1 -1 -1 -2l1 1v1zM171 182v1h-1zM10 7q0 -1 -1 -2q2 2 2 3zM191 169h1l-1 1v-1zM224 149q0 1 -1 1z" />
    <glyph glyph-name="c" unicode="c" horiz-adv-x="247" 
d="M126 185q-21 1 -39 -21t-31.5 -54.5t-20.5 -69.5t-6 -66q5 -11 6.5 -21.5t5.5 -19.5q45 -48 148 -60q35 -3 75 -1t74 8q51 8 92 25t83 45q3 2 4 -0.5t-2 -4.5q-45 -31 -93 -49t-98 -25.5t-102 -5.5t-104 12q-46 8 -73.5 33t-39.5 58.5t-9.5 72.5t17.5 75q11 26 26 51.5
t41 39.5q8 5 18 1t18 -4q8 2 17.5 3.5t15.5 -3.5q8 -2 12 -6t4 -15v-7q0 -1 -0.5 -1t-0.5 -1q0 -4 -0.5 -7.5t-1.5 -8.5q-3 -16 -9 -28q-2 -14 -8.5 -20t-14.5 8q-4 4 -2 10q-1 8 1.5 18t13.5 18q-2 7 0 12v4q-4 0 -5 4v4l-1 1l-2 2l-8 -2q1 -4 -1 -4zM54 135q2 -2 2 -3
q5 6 6 10q-6 -6 -8 -7zM24 -46q-1 2 -1 4t-1 4q0 1 -1 1q-2 0 -3 1q2 -2 3 -5t3 -5zM62 184q2 2 5 3q1 1 2 1q1 3 4 6l-4 -3zM103 199q-2 0 -3 0.5t-3 0.5q2 -2 2 -4h1l1 1l1 1v-1q0 1 1 2zM146 193q1 1 1 2q-2 2 -3 2q0 -1 0.5 -1.5t0.5 -1.5zM14 89q1 1 1 5l-2 -5h1z
M12 84q-1 -1 -1 -4q0 1 1 2v2zM8 64q0 -1 0.5 -1t0.5 -1v2h-1z" />
    <glyph glyph-name="d" unicode="d" horiz-adv-x="366" 
d="M804 743q-18 -1 -56 -4.5t-76 -9.5q-19 -12 -41.5 -22.5t-42.5 -20.5q-8 -7 -14.5 -14.5t-14.5 -15.5q-23 -16 -43.5 -36t-39.5 -45q-7 -8 -13.5 -16.5t-12.5 -17.5q-2 6 -4 0q-15 -21 -28 -42q-27 -29 -48.5 -64.5t-38.5 -70.5q-12 -17 -22 -35.5t-16 -36.5
q-2 -2 -2.5 -3t-1.5 -2q-2 -2 -6 -2q-9 -16 -20.5 -38.5t-22.5 -46.5t-20 -46t-13 -37q-2 -8 -2 -7q-1 -14 -2 -27t-4 -21q0 -9 0.5 -18.5t0.5 -19.5q0 -3 -3 -3q8 -7 20 -4t24.5 10t23.5 15t16 11q12 7 26 14.5t27.5 16.5t24.5 19.5t17 23.5q5 3 5 -2q-8 -17 -23.5 -30.5
t-34 -25.5t-37 -22t-33.5 -19q-7 -4 -17.5 -9.5t-21.5 -8t-20 1.5t-12 19q-1 1 -1 5q-9 6 -9 24q-3 9 -5 18t0 18q-1 -1 -2.5 -0.5t-1.5 2.5t0.5 2.5t0.5 2.5q-10 -16 -19 -31.5t-20 -31.5q-18 -26 -47.5 -38.5t-52.5 -4.5q-1 -1 -4 -1q-3 3 -3 4q-19 10 -22 36
q-2 17 -1 37.5t3 37.5q2 10 10.5 20t13.5 17q17 27 39.5 44t49.5 5q4 1 6 -3v-1q3 -2 5.5 -4.5t6.5 -5.5q3 -2 9 -2t9 -3q9 -9 14.5 -23t12.5 -26q2 15 5 30.5t9 29.5q23 51 49.5 102t57.5 102q4 8 9 16.5t11 15.5q24 40 51 76q4 7 11 14q20 28 42.5 54t45.5 50
q6 3 11.5 6.5t10.5 6.5q7 4 13 7t12 8q1 0 2 1l1 1q3 3 5 4q1 1 2 1t2 1t2 2.5t3 3.5q1 1 2 1q0 -1 1 -2q7 7 16 13q11 8 22.5 14t23.5 12q6 3 10 7q3 2 6.5 2.5t6.5 2.5q-2 -1 -5 -4l39 18q2 1 3.5 2t3.5 2h1q5 2 9.5 4.5t9.5 5.5q2 2 3.5 -0.5t-0.5 -4.5q8 1 15 1t14 2
q44 7 82.5 9.5t82.5 -10.5q5 -5 -1 -5q-16 5 -29.5 9t-40.5 3zM168 120q2 2 4 0q0 1 0.5 2t0.5 2q-1 -1 -4 0q-8 13 -13.5 22.5t-10.5 16t-10.5 11.5t-13.5 9q-6 -11 -19 -16.5t-21 -16.5q-1 -1 -2 -2.5t-3 -3.5q-1 -5 -4 -8q-8 -12 -15.5 -28.5t-14.5 -33.5t-11 -33t-4 -28
v-3l4 -2t5 -3q0 -1 0.5 -1t0.5 -1q18 -3 38.5 5t32.5 22q19 20 32.5 43.5t27.5 46.5zM250 303q-7 -13 -13 -25.5t-12 -24.5q4 5 7 10.5t7 10.5q0 1 1 1v1q3 9 5.5 16t4.5 11zM472 572q5 5 6 7l-26 -26q-2 -2 -2.5 -3t-1.5 -2q1 0 3 -2q5 7 10.5 13t10.5 13zM453 589
q2 2 4.5 3.5t4.5 3.5q0 2 2 2q2 5 8 13l-11.5 -11.5t-10.5 -11.5q2 0 3 1zM209 139q2 5 3 10t3 10q-1 -1 -1.5 -2t-2.5 -3q0 -1 -0.5 -2t-0.5 -3q-1 -2 -1 -10zM194 24q-2 5 -2.5 10t-1.5 10l-2 -6q0 -2 1 -3q1 -2 2 -5t3 -6zM255 256q2 2 4 0l4 8t4 9q-2 -3 -4.5 -6.5
t-5.5 -6.5q-1 0 -1 -1t-0.5 -1.5t-0.5 -1.5zM346 455q2 0 3 1l2 6t3 7q0 1 0.5 1t0.5 1q-4 -6 -7 -10h1q-1 -1 -1 -2v-1q-1 -1 -1 -1.5t-1 -1.5zM197 185q-2 -7 -3 -8l1 1q1 1 2 1q1 2 2 5t2 5h-3q0 -2 -0.5 -2.5t-0.5 -1.5zM544 655q-2 0 -2 3l-2 -2q0 -1 0.5 -1t0.5 -1
t1 -1zM178 85v8l-2 -10zM8 27q0 2 -1 3q1 2 0.5 2.5t-0.5 1.5l-1 1q0 -4 1 -5q0 -2 1 -3zM190 51q2 0 3 -1v2h-3v-1zM171 116q-1 -1 -1 -1.5t-1 -1.5q0 -1 1 -2zM246 239q-1 -1 -1 -4q0 -1 2 5zM98 174q1 0 2 1q-2 0 -3 -1h1zM87 193v1l-1 -1h1z" />
    <glyph glyph-name="e" unicode="e" horiz-adv-x="278" 
d="M80 84q-7 -3 -17 0t-17 1q-11 -23 -17 -44.5t2 -34.5q6 -1 12 -1.5t14 -1.5q26 -2 44 1t32.5 9.5t28.5 16.5t34 23q11 8 22 12.5t21 11.5q13 9 22 20.5t24 17.5q3 2 4 -0.5t-2 -4.5q-12 -7 -20 -15l-19 -19q-10 -9 -22.5 -14t-23.5 -13q-15 -11 -28 -20.5t-26 -17
t-28.5 -12t-34.5 -5.5q-38 -2 -62 6t-41 43q-2 4 -2.5 12t1 16.5t3.5 16.5t4 12q1 1 1.5 2t1.5 2q1 2 1.5 3.5t1.5 3.5q9 16 22.5 34.5t30 34t35.5 24.5t39 6q1 1 1.5 1t1.5 1q7 0 8 -4q1 0 1.5 -0.5t2.5 -0.5q15 -5 18.5 -11t5.5 -22q2 -15 -6.5 -29t-21 -26t-27 -21
t-25.5 -14zM78 90q13 6 27 15t24.5 21t16.5 26t4 30l-2 1q0 1 -0.5 1.5t-0.5 1.5q-1 0 -1 0.5t-1 0.5q-3 -2 -10.5 -5.5t-15.5 -8.5q-5 -8 -14 -13t-18 -9l-2 -2q-6 -6 -16.5 -22.5t-20.5 -36.5q8 1 16 -0.5t14 0.5zM-1 93q1 4 3 8l4 8q-8 -8 -9 -18zM-1 28q3 -8 7 -9
q-1 1 -1 3q-1 1 -1.5 2t-1.5 2q-1 0 -3 2zM18 133q1 0 1.5 0.5t1.5 0.5t1 1q2 6 2 5q-2 -2 -3 -3.5t-3 -3.5zM82 165q2 2 4 2q1 2 2 2.5t2 1.5l-4 -2l-4 -2v-2zM89 196l1 1l9 3q-3 -1 -5.5 -2t-4.5 -2zM59 131q-1 -1 -1 -1.5t-1 -1.5q4 4 7 10q-2 -2 -2.5 -3.5t-2.5 -3.5z
M17 13q0 -1 -0.5 -1t-0.5 -1t2 -1v1v1zM135 200q-2 0 -2.5 0.5t-1.5 0.5v-1h4z" />
    <glyph glyph-name="f" unicode="f" horiz-adv-x="212" 
d="M92 131q-1 -2 -3 -1.5t-2 2.5q1 6 4 9t7 8v1l1 1q-17 -11 -31.5 -26t-25.5 -29q-11 -33 -23.5 -64t-26.5 -62q-2 -12 -10 -23q-14 -30 -30 -60q-1 -2 -2.5 -5.5t-3.5 -8.5q2 -2 1 -5q-2 -2 -4.5 -5.5t-5.5 -6.5q-8 -16 -17 -31.5t-19 -29.5q-11 -16 -26 -39.5t-32 -36.5
q-9 -7 -26 -15l-1 -1q-1 -1 -4 -1q-23 -10 -47.5 -16t-47.5 -19q-7 0 -2 5q1 1 2 1q-20 4 -30.5 20.5t-14.5 37t-1.5 41t9.5 34.5q5 3 5 -2q-8 -17 -11 -42t2.5 -45.5t21 -30t44.5 5.5q22 12 40.5 29.5t34.5 37.5t30.5 41t29.5 40q1 1 1 0q30 50 53.5 102.5t45 105
t42.5 105.5t47 105q33 69 78 131.5t100 119.5q14 15 21 19q11 11 23 21.5t24 20.5l20 20l1 1q1 0 2 1t4 -1q22 17 44.5 31t46.5 28q17 9 45 21.5t59.5 22.5t61.5 15.5t51 0.5q36 -8 56.5 -12t33 -6.5t21 -6.5t19.5 -11.5t28.5 -21.5t49.5 -37q0 -1 -1 -3t-3 0
q-25 17 -48.5 36.5t-51.5 32.5q-40 18 -81.5 21.5t-82.5 -3.5t-81 -23t-77 -37q2 0 2 -2t-2 -3q-3 -2 -6 -3.5t-5 -3.5q3 -4 -1 -5q-6 -3 -11.5 -5.5t-10.5 -6.5q-12 -10 -24 -21t-23 -22q2 0 2 -3v-3q-1 -2 -3 -1.5t-2 2.5l-2 -1q-20 -21 -39.5 -42t-36.5 -39
q-2 -2 -7.5 -9t-11.5 -15t-12.5 -15.5t-10.5 -11.5q-10 -19 -22 -28q-2 -3 -3.5 -6t-3.5 -5q-10 -14 -19.5 -29t-19.5 -29q-5 -12 -17 -27q-1 -1 -1 -2q-26 -40 -47 -81.5t-37 -86.5q-2 -5 -3.5 -11t-3.5 -11q7 10 16 20t18 17.5t17 12t14 2.5q3 2 5.5 4t5.5 4q6 1 8 -4
q3 -10 1.5 -19.5t-2.5 -18.5q1 -5 1 -8.5v-7.5q3 -6 3 -11q0 -2 2 -4q2 1 3.5 -0.5t-0.5 -3.5l3 -3q7 0 14 2t12 7q2 1 3.5 -0.5t-0.5 -3.5q-8 -9 -18 -12q10 -3 22 0t23.5 9t21.5 14t16 15q2 2 4 0.5t0 -3.5q-19 -23 -46 -37t-52 0q-14 -1 -27.5 6.5t-21.5 19.5
q-4 5 -3.5 10.5t2.5 11.5zM-25 -42q-1 -2 -2 -5t-3 -7q4 5 7 10t5 10l-3 -3q-2 -2 -2.5 -3t-1.5 -2zM-171 -283q1 1 3 2.5t4 3.5q-2 0 -3 1q-1 -1 -1.5 -1t-1.5 -1l-6 -6q-1 -1 -1 -1.5t-1 -1.5q2 2 3.5 2.5t3.5 1.5zM-230 -305q4 1 7 2t7 2q6 2 5 2h-3l-2 -2v1h-6
q-5 -2 -8 -5zM-143 -205q2 2 3.5 4t3.5 4l3 5l-5 -5t-5 -6v-2zM-243 -309q-1 1 -1 3l-8 -6zM88 262l-6 -9h2zM114 322q-4 -10 -10 -17q2 2 3 3.5t3 3.5q1 2 2 4.5t2 5.5zM-182 -253q1 4 2 5q-2 -2 -2.5 -3t-2.5 -3q1 0 1.5 0.5t1.5 0.5zM260 490q-1 -2 -1 -3t-1 -1l3 3z
M-54 -104q0 1 -2 -5q1 1 1.5 2t1.5 2zM297 537h-1v-1zM102 153q0 -1 -1 -1h1v1z" />
    <glyph glyph-name="g" unicode="g" horiz-adv-x="260" 
d="M195 214q0 6 3 3l1 1q4 2 6 1l6 -3l3 -3q11 9 21 -1q0 -1 1 -2l1 -1h2q1 0 3 2q2 1 3.5 -0.5t-0.5 -3.5l-2 -2q0 -2 -1 -3q0 -1 -1 -1l-2 -2v-5l1 -1q0 -4 -2 -4q-4 -11 -12 -21.5t-11 -15.5q-6 -15 -14.5 -28t-17.5 -26q-5 -14 -12 -27t-18 -23q-2 -6 -5 -11.5t-5 -10.5
q0 -2 -2 -4l-1 -1q-2 -3 -3.5 -6t-3.5 -6q-36 -60 -82 -113t-97 -104q-6 -6 -18.5 -19t-23.5 -20q-18 -11 -37 -17t-38 -16q-8 -4 -15 -11t-16 -10q-6 -2 -13 -2.5t-14 -1.5q-5 -2 -9.5 -4t-9.5 -2q-1 0 -3 2l-2 -1q-20 -6 -37 -16.5t-39 -12.5q-2 0 -2.5 1.5t0.5 2.5
q-72 -22 -153.5 -29t-180.5 -2q-32 2 -72 3t-80.5 7t-77 19.5t-60.5 39.5q0 6 5 3q22 -25 58.5 -37.5t77 -18t80.5 -6.5t70 -2q130 -6 233.5 10.5t190 60t161.5 116.5t149 180q3 5 8 11.5t10 14.5l-18 -12q-8 -5 -22 -12t-28 -11q-2 -2 -5 -1l-1 1q-23 -5 -34 12
q-7 11 -13.5 21t-2.5 24q5 19 20.5 48.5t37 54.5t46.5 37t49 -4q14 0 20 -6q0 -1 -1 -3t-3 0q-5 4 -9 4l6 -6q17 -17 16.5 -33.5t-2.5 -31.5l1 1v1h1v1q0 1 1 1q11 17 20 33.5t14 30.5q1 14 6 25v4zM105 47q9 13 19 27.5t20 29.5q1 17 3.5 32.5t-8.5 32.5q-4 5 -8.5 9
t-9.5 8q-8 -3 -16.5 -8.5t-13.5 -8.5l-3 -3q-1 -6 -5.5 -12.5t-10 -12.5t-10.5 -11t-7 -8q-8 -14 -16 -27.5t-13 -28t-6 -29t5 -29.5q17 2 39 13.5t41 25.5zM-282 -320q-9 -4 -18.5 -7.5t-19.5 -6.5q16 3 38 14zM-177 -268q3 2 5.5 2.5t4.5 2.5h-1q0 1 -1 2l-8 -6v-1zM15 8
q1 1 1 2l-3 3q0 2 -0.5 4.5t-0.5 4.5q1 -11 6 -15q-1 0 -1.5 0.5t-1.5 0.5zM6 12q-2 2 -3 5v-6q0 -1 1 -1t1 -0.5t2 -0.5q0 1 -0.5 1.5t-0.5 1.5zM12 -92q-2 -2 -4 -4.5t-4 -5.5l6 6q0 2 2 4zM-5 39q1 -1 1 -2v8h-1v-6zM-238 -301q2 0 3 0.5t3 0.5v2zM128 69q2 2 2.5 3
t2.5 2q0 1 0.5 2t0.5 2zM1 -143q-1 0 -1 -1t-0.5 -1.5t-0.5 -1.5q2 3 4 5.5t4 4.5zM59 173q0 1 0.5 1.5t0.5 1.5l-3 -3h2zM81 172h-1q0 -1 -0.5 -1.5t-0.5 -1.5l3 3h-1zM101 185q1 1 1.5 1t1.5 1h-2h-1v-2zM12 57q0 1 0.5 1.5t0.5 1.5q-1 -2 -1 -3t-1 -1q1 0 1 1zM72 -11
q-1 -1 -1 -2l1 1v1z" />
    <glyph glyph-name="h" unicode="h" horiz-adv-x="256" 
d="M185 185q-19 -4 -38.5 -16.5t-38 -28.5t-35 -32.5t-28.5 -29.5q-2 -4 -3.5 -6.5t-2.5 -4.5q1 0 1 -2q-5 -21 -21 -40q-5 -11 -10.5 -20.5t-13.5 -17.5h1q-2 -2 -4 0q-3 -3 -8.5 -2.5t-11.5 2.5h-2q-3 0 -3 2q-2 0 -4.5 0.5t-4.5 0.5q1 -4 -1 -4q-1 1 -3 1l-1 1
q-5 -5 -5 2q1 3 3 5q0 19 19 56q2 14 11 22q13 27 30 54q4 8 8.5 16t9.5 14l1 1q12 19 21 32t11 16q27 40 66.5 94t84 109.5t89 106.5t82.5 86q-64 27 -129.5 51.5t-128 41t-119 22.5t-102.5 -5q-20 -5 -38.5 -16.5t-38.5 -21.5q-7 0 -2 5q20 10 38.5 19.5t38.5 18.5
q16 8 45.5 8t61.5 -3.5t60.5 -9t42.5 -8.5q72 -17 139.5 -43.5t134.5 -55.5q38 35 78.5 63.5t88.5 48.5q26 11 53 18t54 11q21 3 57 -1t71.5 -16t63 -33.5t30.5 -52.5q1 -21 2 -30.5t1 -16t-2.5 -15t-8.5 -27.5q-8 -29 -36.5 -45t-63.5 -22.5t-70 -4t-56 10.5
q-51 17 -115.5 45.5t-136.5 57.5q-4 -5 -7.5 -9t-5.5 -8q-5 -9 -11.5 -19.5t-14.5 -16.5q-6 -8 -11.5 -16t-10.5 -16q-2 -2 0 2t5 8.5t5.5 8t0.5 0.5q-6 -9 -11.5 -18t-11.5 -17q-3 -5 -6 -9l-6 -8q-1 -2 -2 -3.5t-2 -3.5q-2 -2 -4 -2q-14 -18 -28 -35.5t-29 -34.5
q-7 -10 -13 -17.5t-12 -11.5q-23 -29 -42.5 -59t-40.5 -62q-14 -20 -28 -39.5t-25 -41.5q-9 -17 -16 -35t-15 -36q16 19 34.5 37.5t38 32.5t39.5 22.5t38 6.5h4q4 -2 7 -2.5t6 -2.5q12 -6 22 -19q7 -10 0.5 -30t-17.5 -41q-3 -11 -9 -18q-10 -17 -18.5 -30.5t-10.5 -18.5
q-11 -22 -24 -47t-23.5 -51.5t-17.5 -54t-6 -53.5q1 -9 5 -16.5t8 -15.5l1 -1l2 -2q11 -2 22.5 -4.5t23.5 -0.5q24 6 46 16.5t45 19.5q3 2 4 -0.5t-2 -4.5q-41 -17 -56.5 -25.5t-24.5 -11t-20 -1t-43 4.5q3 0 -3 2q-1 2 -1 2.5t-1 2.5q-5 2 -9.5 2.5t-9.5 2.5
q-1 -2 -2.5 -2.5t-2.5 1.5v3q-10 7 -14.5 18.5t-5.5 25t0.5 27t3.5 24.5q-2 1 0 3v2l2 6q7 32 17.5 61t26.5 55q2 14 9.5 28.5t15.5 28.5q8 20 20 39t21 38q0 2 0.5 3.5t0.5 3.5q-2 6 -6.5 11t-5.5 11zM558 708q-24 -11 -47 -24t-45 -28q3 -4 -1 -5q-5 -2 -8.5 -4t-8.5 -4
q-8 -6 -17 -12.5t-17 -14.5q-4 -4 -7.5 -8t-7.5 -9q64 -27 127.5 -53t129.5 -46q42 -12 83.5 -10t73.5 19t49.5 50t10.5 83q-4 30 -30.5 49t-60 30t-67 14.5t-52.5 1.5q-27 -2 -53 -10t-52 -19zM73 170q-2 -3 -4 -5.5t-4 -4.5q-2 -3 -2.5 -6t-2.5 -6q1 0 1 -2zM94 240
q-5 -8 -11 -16.5t-11 -17.5h1q3 5 6.5 10.5t7.5 10.5q2 3 3.5 6.5t3.5 6.5zM20 119q2 5 4.5 11t5.5 12q0 1 0.5 1.5t0.5 1.5q-4 -7 -8 -15.5t-8 -18.5q1 1 2 3t3 5zM190 186q1 -3 5 -7q-1 2 1 8q-1 -1 -6 -1zM44 167q2 3 4 6.5t4 6.5q1 1 1 3q-2 -3 -4.5 -7t-4.5 -8v-1z
M227 157q-1 -1 -1 -6q0 1 2 3h1v2q-1 0 -1 1h-1zM137 -44l9 15q-1 -1 -1 -2t-1 -2q-2 -2 -3.5 -5t-3.5 -6zM224 411q1 1 3 6l-7 -10zM91 -114q1 2 1 7q-1 -1 -1 -7zM177 33l2 5h-1q0 -2 -0.5 -3t-0.5 -2zM366 572h-1l-2 -2v-1zM-32 34q0 -2 -0.5 -3t-0.5 -2q0 1 0.5 1.5
t0.5 1.5l1 1zM39 160q-2 -2 -2 -3v-1q1 1 1 2t1 2zM252 446l1 2q-2 -2 -2 -3zM6 17q1 1 1 2v1q0 -1 -0.5 -1.5t-0.5 -1.5zM231 422q1 1 2 1v1zM-30 2h-1v-1zM-5 -4l1 1q-1 0 -1 -1z" />
    <glyph glyph-name="i" unicode="i" horiz-adv-x="213" 
d="M73 213q2 2 4 0.5t0 -3.5t-2 -3q8 4 20 3.5t21 -4.5q2 0 2.5 0.5t2.5 0.5l2 2v-1q6 -2 3 -5l-1 -1h1q-1 0 -1 -0.5t-1 -0.5q1 -1 2 -1.5t2 -1.5t1 -3q-8 -11 -17.5 -19.5t-19.5 -17.5q-11 -20 -24 -29q-5 -8 -13 -19t-12 -21q-14 -32 -14.5 -49t8.5 -23h1q2 0 4 -2
q6 -4 22 -2q7 2 13 6q7 1 4 -3q15 4 31.5 11.5t32 16t28 17.5t18.5 15q8 7 14 19.5t17 12.5q2 -1 2.5 -3t-2.5 -2t-8.5 -5.5t-10.5 -12t-10 -13.5t-8 -10q-11 -10 -27 -21.5t-34 -20.5t-36.5 -14t-34.5 -2q-14 -3 -29.5 -2.5t-28.5 5.5t-20.5 13.5t-5.5 22.5q1 5 2.5 11
t5.5 14q2 15 8 24t11 16q7 14 16 31t19 31q11 16 21 22.5t21 20.5zM7 16q-11 6 -17 15q2 -8 3 -11l4 -4h10zM-22 41q0 -8 3 -11q0 3 1 4q-1 2 -1 9q-1 1 -2 1q-1 -1 -0.5 -1.5t-0.5 -1.5zM62 135q2 2 2.5 3.5t2.5 3.5q0 2 1 2.5t1 2.5q-2 -3 -4 -5.5t-4 -5.5zM81 200
q2 2 5 3q-7 0 -8 -1q0 -1 0.5 -1t0.5 -1h2zM-1 91q-2 -2 -2.5 -5t-1.5 -5l-2 -2q2 3 3 6t3 7v-1zM39 6q-2 0 -2 2q-2 -2 -4 -2h6zM114 187q0 -1 -1 -1t-1.5 -0.5t-1.5 -0.5q-1 -1 -1.5 -2t-2.5 -3q2 2 4 3.5t4 3.5zM-11 69q-1 -1 -1 -5q1 1 1 5zM139 328q-2 15 10 25
q6 12 16 19q12 12 32 8q16 -5 12.5 -18.5t-14.5 -29.5q-2 -2 -3 -5q-5 -17 -18 -21l-1 -1q-11 -17 -18 -12q-5 -2 -6 -1q-9 2 -11 12t1 24zM198 366q0 -2 -0.5 -2.5t-0.5 -2.5q1 -1 3 -1l1 -1q0 2 1 3q-2 1 -2.5 2t-1.5 2z" />
    <glyph glyph-name="j" unicode="j" horiz-adv-x="131" 
d="M43 169q3 6 3 12h-1q-5 0 -6 3t2 5v1h2l1 1q-1 1 -1 2q0 6 5 3q1 0 2.5 0.5t3.5 0.5q3 0 3 -3q8 2 16 3.5t16 3.5q3 0 4 -2.5t-1 -4.5l1 -2l2 1l3 2q4 0 4 -4q0 -1 -1 -2q2 -2 2 -5q-1 -2 -2 -3.5t-2 -3.5v-3q-5 -9 -10 -16q-4 -9 -7.5 -18t-8.5 -18l-9 -18t-12 -19
q-26 -43 -59 -80.5t-71 -75.5q-35 -35 -73 -70.5t-83 -60.5q-19 -10 -40 -14.5t-42 -12.5q-7 -3 -13.5 -6t-13.5 -5q-22 -7 -48.5 -6t-49.5 1q-9 0 -26.5 -2t-38 -4t-42.5 -4t-41 -3q-41 -2 -81 10t-79 20q-31 7 -53 11t-41 10t-38 15.5t-45 28.5q-2 2 0 3.5t4 -0.5
q28 -21 51 -31t45.5 -15.5t48 -9t58.5 -11.5q32 -8 63.5 -15t63.5 -7q27 0 53.5 5t52.5 7q33 3 70 0t68 6q26 8 60.5 32t70.5 55t69.5 62.5t57.5 54.5q12 13 22 23t18 21q4 7 9.5 13.5t12.5 13.5q11 16 21.5 34t24.5 44l4 6t4 7q6 19 17 33v1zM202 371l3 -2q1 -2 1 -4
q-2 -3 -4 -6.5t-5 -7.5q5 -8 -2 -17t-18 -16q-5 -3 -9 -3q-4 -2 -5 -2q-4 -2 -5 -2q-2 0 -2.5 0.5t-2.5 0.5q-8 -4 -13 -4t-5 4q1 4 5 14q0 3 1 7t3 9q1 6 4 13.5t9 14.5l2 2q12 12 30 16q1 0 2 -1h1q2 -1 3.5 -1t3.5 -1q1 -1 2 -3zM-1 74q-5 -6 -7 -11q8 6 10 8q-2 0 -2 1
t-1 2zM-278 -209q0 1 0.5 1.5t0.5 1.5l1 1q-2 -2 -5 -3.5t-6 -3.5zM180 383q-2 -1 -4 -3h1zM39 84q1 1 1 2t1 2l-2 -2v-2zM-5 55q1 0 1 0.5t1 0.5h-2v-1zM94 187l1 -1v2z" />
    <glyph glyph-name="k" unicode="k" horiz-adv-x="278" 
d="M111 114q-2 2 0 3.5t4 -0.5q12 11 24.5 24t29.5 27q30 23 62.5 44.5t64.5 41.5q10 6 29.5 9.5t34.5 -1.5q2 1 3 0.5t3 -0.5q3 -2 3 -5q12 -8 6 -28l-3 -3q-10 -1 -23 7t-18 19q-13 2 -20 -1q-13 -7 -24.5 -15t-18.5 -13q-11 -8 -22.5 -14.5t-22.5 -14.5h1
q-16 -12 -32.5 -22t-31.5 -23q-10 -9 -17.5 -16t-14.5 -14q8 3 13 2q35 -6 49 -30t17.5 -55t3 -63.5t5.5 -55.5q13 -47 43.5 -85t71 -60t87 -23t91.5 25q3 2 4 -0.5t-2 -4.5q-24 -15 -49.5 -19.5t-54.5 -4.5q-42 0 -76 16t-60 42h-3q-13 13 -28 29.5t-28.5 34t-24.5 36
t-16 37.5q-5 16 -4 35t3 38q-2 11 -2.5 23t0.5 23q-2 11 -6.5 20.5t-13.5 17.5q-5 5 -12.5 7t-15.5 5q-1 -1 -3 -1h-1q-15 -13 -31 -19t-45 -4q-16 -32 -31 -58.5t-26 -34.5q-2 -2 -4 1q-5 -2 -14 -5q1 -1 -1 0q-4 -2 -7.5 -2h-6.5q-1 1 -2 1t-2 1q-1 0 -1.5 0.5t-1.5 0.5v1
q-3 2 -3 6t5 6v2q14 18 24.5 40t20.5 42q25 51 48.5 103t51.5 103q33 58 76 115.5t92.5 110t104 99t110.5 83.5q45 29 94.5 48.5t97.5 45.5q3 2 4 -0.5t-2 -4.5q-46 -27 -96 -46.5t-95 -49.5q-11 -7 -20.5 -14t-19.5 -14q3 -4 -1 -5q-32 -19 -63 -50t-59.5 -67t-54 -73.5
t-46.5 -69.5v-3q-4 -17 -24 -32l-10 -16l-10 -16q-7 -16 -20 -38.5t-27 -41.5q-5 -8 -9 -17t-9 -17q-8 -14 -24.5 -51.5t-36.5 -77.5q24 0 40 6t29 17v1zM-43 -2h-3l-2 -2h3zM-18 -1q5 5 6 7q-6 -6 -8 -7h2zM335 259v-1h1v1h-1zM90 215q0 1 0.5 1.5t0.5 1.5l-1 -1v-2zM10 42
q-1 0 -1 -1z" />
    <glyph glyph-name="l" unicode="l" horiz-adv-x="142" 
d="M17 20q-1 -1 -1 -1.5t-1 -1.5q2 -2 0 -5q-3 -4 -7 -8t-9 -6q-15 -8 -27 -4q0 1 -0.5 1t-0.5 1l-2 2q0 1 -1 1h-2q-5 -5 -7 -6q-2 -2 -4 1.5t0 5.5l-1 1h2q7 7 10 8q4 10 9 29q-1 10 7 22t14 23l3 9q2 23 12.5 49t24.5 48l8 18l8 18q20 48 56.5 117.5t85.5 142.5l-4 2
t-5 3q-23 14 -46.5 28.5t-48.5 22.5q-60 20 -132 30t-146 11.5t-146.5 -4t-135.5 -15.5q-22 -4 -49 -9.5t-54.5 -13.5t-53 -19t-44.5 -25q-16 -11 -26.5 -26.5t-23.5 -29.5q-2 -2 -4 -0.5t0 3.5q13 15 23.5 32.5t27.5 25.5q23 11 44 23.5t45 17.5q169 40 339 46t339 -39
q25 -6 50 -22t47 -29l9 -6q28 42 56 80t55 70q3 6 7 10.5t8 8.5q21 24 40 43.5t36 30.5l44 32t44 31q17 12 40 16.5t46 1.5t43.5 -14t32.5 -30t23.5 -37.5t22.5 -38.5q19 -33 14 -68.5t-24.5 -68t-48.5 -57.5t-58 -37q-23 -9 -39.5 -16t-32.5 -12.5t-33.5 -9.5t-42.5 -7
q-57 -6 -107 6t-96 35q-29 -43 -53 -85.5t-47 -87.5l-7.5 -15t-7.5 -14q-1 -1 -1 -1.5t-1 -1.5q-26 -57 -45 -116.5t-48 -116.5q0 -1 -2 -3zM492 789q-18 -9 -36 -21q3 2 4 -0.5t-2 -4.5q-10 -5 -15 -10t-10 -11h1q2 -2 1 -4t-3 -1q-10 -4 -25 -21t-30 -37.5t-28 -40
t-19 -27.5q-5 -7 -12.5 -18.5t-17.5 -25.5l-6 -10t-8 -10q-11 -17 -22 -33.5t-20 -30.5q-2 -4 -4.5 -7.5t-4.5 -6.5q63 -30 126 -39t143 15q19 6 37 13t35 16q21 11 42 26.5t38.5 34t28.5 41t13 48.5q2 27 -6 57t-24.5 56.5t-40 45.5t-52.5 24q-21 4 -42 -2t-41 -16zM67 170
q2 0 2 -3q1 1 3 10q-1 -2 -5 -6v-1zM43 100q0 -2 -2 -8q2 2 2.5 5t2.5 6zM146 338l-3 -3l1 -1l2 5v-1zM-18 0h-1l-1 -1h2v1zM13 25l1 2q-2 -2 -3 -2h2zM316 604q-2 -2 -2 -4q1 1 1 2t1 2zM242 541q1 1 1 2q-1 -1 -1 -1.5t-1 -1.5zM2 26q0 1 1 2h-1v-2zM199 480v1l-1 -1h1z
M-24 16l-1 -1h1v1z" />
    <glyph glyph-name="m" unicode="m" horiz-adv-x="479" 
d="M191 33q-2 -2 -3 -2q-3 -5 -6 -11t-7 -11q-3 -5 -11 -8.5t-16 -3.5t-15 3t-8 10q-2 12 8.5 27t21.5 28q4 8 8 14.5t9 14.5l2 5q4 14 9.5 28.5t11.5 28.5q2 2 3 2q0 15 -3 30q-9 -2 -16 -4.5t-11 -4.5q-8 -4 -27 -23t-41.5 -43t-43.5 -48.5t-33 -39.5q-4 -9 -10 -15
q-2 -2 -3 -2q-8 -5 -18.5 -7t-19 0t-12.5 9t1 20q5 10 10.5 19t10.5 18q9 16 18 31t17 31q8 14 11.5 25.5t8.5 22.5v2q1 1 1 1.5t1 1.5q2 2 3.5 5t3.5 6h1q2 2 4 0.5t0 -3.5l-2 -2q13 1 18.5 4.5t18.5 5.5q2 0 3 -1q5 -8 3 -19.5t-7.5 -23t-12 -22t-9.5 -17.5l-3 -6t-4 -9
q-2 -11 -5.5 -21t-7.5 -18q9 9 18 17.5t18 16.5q6 6 14.5 18t19.5 25.5t24 27t27 22.5q3 2 7 3.5t9 3.5l1 1q10 9 17 2h1q2 8 6 11h4q1 -3 3 -5q8 4 19 0t16 -10q0 -1 0.5 -1t0.5 -1q7 -6 10 -16q1 -8 -4 -17t-12 -18.5t-13.5 -18.5t-9.5 -15q-5 -12 -9 -23.5t-9 -22.5
q12 16 31 37.5t38 41t35.5 35t23.5 20.5q4 3 12.5 8t18 8t18 3t13.5 -7q10 -13 12.5 -30.5t0 -35.5t-10 -35t-16.5 -29q-1 -1 -2 -1.5t-2 -2.5q-1 -1 -1 -6q0 -7 -0.5 -14t-1.5 -14q0 -1 -1 -1v-1q-1 0 -1 -1q2 -4 3.5 -7.5t4.5 -7.5q6 -2 7 -2q21 -6 34.5 8.5t25 35.5
t24 41.5t33.5 26.5q3 2 4 -0.5t-2 -4.5q-14 -5 -23 -17t-16.5 -26t-14 -28.5t-14.5 -24.5q-9 -11 -23.5 -16.5t-28.5 -3.5q-7 -4 -24 -4q-9 -2 -15 2q-10 2 -17 5t-9 8q-5 7 -3.5 19.5t6.5 27.5q3 15 11 33q8 19 13.5 35.5t7.5 26.5q1 5 -2 10t-7.5 8.5t-9.5 3.5t-8 -5
q3 2 4 -0.5t-2 -4.5l-2 -1q-3 0 -4 1l-2 2q-2 -2 -4.5 -3.5t-4.5 -3.5q-6 -5 -25 -24.5t-39.5 -42t-37 -43t-17.5 -27.5zM335 190q1 0 9 -2q0 1 -0.5 1t-0.5 1q-2 3 3 5h4q3 3 7 3q0 1 0.5 1t0.5 1q0 2 1 3q-6 -2 -12 -5.5t-12 -7.5zM151 6q9 -1 15 5q-5 -2 -6 1l-1 1l1 2v1
q-2 -2 -4 -4.5t-4 -4.5zM85 192q-2 0 -10 -2l1 -2v-7q2 2 2 3t0.5 1t0.5 1l1 1q2 2 5 1v4zM339 19q1 -1 3 -1q-2 4 -4 7t-7 4q3 -8 8 -10zM1 86q-1 -4 -3.5 -8.5t-6.5 -11.5q5 5 8 11q1 1 1 1.5t1 1.5v1q1 3 3 11zM-12 9q8 2 11 3l-3 3v2zM43 167q0 2 2 4h-4q-1 -2 -1.5 -5
t-1.5 -5q2 2 2.5 3t2.5 3zM167 11q2 2 3.5 5t3.5 6q-1 0 -1 1h-1l-5 -10v-2zM145 38q-4 -7 -6.5 -13t-4.5 -12q0 1 2 3q0 6 6 14l1 1h1q0 6 1 7zM211 185q0 -2 1.5 -3t2.5 -3q0 1 -0.5 2t-0.5 2v2q-2 1 -2.5 2t-1.5 2q0 -3 1 -4zM361 169q0 2 2 2q-1 1 -2 1t-2 2q1 -3 1 -9
q1 1 1 4zM5 33q0 -1 -1 -1h1q1 1 1.5 2t2.5 3q-1 0 -1 0.5t-1 0.5l-2 -2v-3zM206 203q0 -2 -0.5 -2.5t-0.5 -1.5h2v4l-1 1v-1zM50 177q-5 0 -6 -1h5zM214 171q-1 1 -1.5 2t-1.5 2v-2q0 -2 2 -2h1zM369 197q-2 0 -2 2l-2 -2h4zM382 196v1q2 -7 3 -8q-1 3 -3 7zM325 27l-1 2
v-1q0 -1 1 -1zM211 163q0 1 1 2h-1v-2zM182 48q0 1 1 2h-1v-2zM55 184q-1 0 -1 -1z" />
    <glyph glyph-name="n" unicode="n" horiz-adv-x="281" 
d="M53 189q0 3 3 2q4 5 12 7l1 1q0 1 0.5 1t0.5 1v-1l1 1q4 0 4 -1h1q4 0 4 -3q5 0 9.5 -0.5t9.5 -1.5q3 -1 3 -4q-12 -20 -23 -40.5t-24 -41.5q-4 -7 -8 -12.5t-8 -11.5l-6 -14t-6 -13q-1 -3 -2 -6.5t-2 -6.5q13 22 33.5 47.5t43.5 47.5t47 38t45 19l6 3q1 0 4 -1v-1
q7 0 10 -1q6 -2 10 -6t9 -8q3 -3 3 -6q2 -2 2 -4q0 -1 -1 -1q0 -12 -8.5 -31t-20 -37.5t-22.5 -33t-14 -17.5q-23 -40 -45.5 -83.5t-40.5 -90.5q4 1 8 1.5t8 1.5q38 8 81.5 17t83.5 5q31 -2 57.5 -14.5t52.5 -28.5q26 -15 39.5 -29.5t18 -31t2.5 -37.5t-6 -49
q-2 -17 -14.5 -29t-22.5 -26q-12 -18 -37.5 -32.5t-55 -25t-58 -17.5t-46.5 -10q-15 -2 -35 -4t-40 -0.5t-37.5 8t-29.5 20.5q-2 2 -3 4t-2 5l-2 2q1 -3 1 -6t1 -7q15 -16 32 -19q2 -1 2.5 -3t-2.5 -2q-12 2 -20.5 7t-15.5 12h-1q-5 3 -8 11q-4 6 -7.5 12.5t-7.5 13.5
q-6 11 -19 25.5t-15 26.5q-1 5 3.5 12.5t5.5 12.5q1 6 1 11t1 10q-1 0 -1 2q1 3 1 6t1 6q2 19 4 32t5.5 25t9.5 26.5t15 37.5q-95 -21 -188.5 -47.5t-188.5 -55.5q-7 -2 -26 -8t-44.5 -12t-53 -10.5t-52 -3.5t-42 9t-22.5 27q-3 15 -0.5 30.5t2.5 30.5q1 14 6 26.5t12 25
t14.5 24.5t13.5 24q5 3 5 -2q-11 -25 -24 -49t-21 -50q-4 -14 -2.5 -29t1.5 -29q8 -7 14 -15t16 -12q22 -8 48.5 -7t53 7t52 15t46.5 15q99 31 192 57.5t192 47.5q1 3 3 7q8 20 16 41t16 41q12 30 25 60t30 57q11 19 18 31t11.5 22.5t8 22.5t7.5 32q-22 -10 -46.5 -31
t-46 -45t-38.5 -48.5t-24 -41.5q0 -2 -1 -3q0 -1 -1 -1v-1h-1q-1 -1 -2 -1q-3 -5 -6 -8.5t-8 -5.5q-2 -1 -4.5 -1.5t-4.5 -1.5q-1 0 -3 -2q-1 -1 -4 -1q-1 1 -2 1.5t-2 1.5q-6 0 -11.5 1t-11.5 2t-5.5 6.5t4 12.5t9.5 15t10 14q4 7 12 25.5t18.5 40t22 41.5t23.5 30
q2 0 3 -1q0 1 0.5 1t0.5 1l1 2v3zM170 -114q-23 -3 -44.5 -7t-44.5 -9q-20 -54 -29.5 -108.5t-2.5 -109.5q4 -33 16.5 -49t31 -22t43 -4t53.5 6q30 4 65 14t67 26t57.5 39t37.5 55q6 16 6 32.5t1 32.5q2 18 -15.5 37.5t-42.5 35t-50.5 26.5t-39.5 13q-26 4 -54.5 0t-54.5 -8
zM84 -98q4 8 7.5 16t7.5 16q-3 -5 -6 -9t-5 -9q-1 -4 -2 -7t-2 -7zM6 -284q-1 0 -1 2h-1q0 -2 -0.5 -5t-0.5 -7h1q0 3 2 5v5zM83 180v-2q2 0 2 -1h1q1 3 5 9q-1 0 -1 -0.5t-1 -0.5t-1 -0.5t-1 -0.5q0 -3 -2 -3zM-43 6q8 -2 14 -2l-2 2q-6 0 -9 1q-2 0 -2 1q1 0 -1 -2z
M84 -33q-4 -10 -7.5 -20t-7.5 -21q2 4 3 8t3 8q2 6 4.5 12t4.5 13zM-4 -312q-2 -4 -2 -7l4 -4q-2 6 -2 11zM8 -340q1 -2 5 -8v5l-2 2q-1 0 -1.5 0.5t-1.5 0.5zM36 162q-3 -4 -5.5 -8t-4.5 -9l2 2q2 4 4 7.5t4 7.5zM21 -362l3.5 -7t3.5 -6v5q-1 0 -2 1q-4 4 -5 7zM199 103
l-9.5 -9.5t-7.5 -8.5l8.5 8.5t8.5 9.5zM36 150q1 1 1.5 2t1.5 2v1l1 1v3q-2 -3 -4 -9zM180 187q-1 0 -2 -0.5t-2 -0.5v-1q2 0 3 -1v-1l2 2q-1 0 -1 2zM176 63q1 2 0.5 0t-2.5 -4zM-22 38q0 -1 -2 -3q1 0 1 0.5t1 0.5v2zM39 -337q0 2 -0.5 2t-0.5 1v-2zM9 32q0 -2 -1 -3l2 3
h-1zM177 165l-2 -2h1zM224 179h-1l1 -1v1zM0 -305q0 1 0.5 1.5t0.5 1.5q-1 -1 -1 -3z" />
    <glyph glyph-name="o" unicode="o" 
d="M118 184q2 1 3.5 -0.5t-0.5 -3.5q-10 -8 -22 -12.5t-23 -12.5q-4 -3 -7 -7l-1 -1l-2 -2q-2 -4 -3.5 -6.5t-3.5 -4.5q-9 -14 -17 -33t-12 -38.5t-3 -37t9 -27.5q12 -3 27.5 1.5t29.5 15t25 26t15 34.5q-14 3 -26.5 14t-18.5 23t-4 22t17 12q13 2 21 -3.5t12.5 -15t6 -21.5
t1.5 -23q12 2 27 5.5t30 7.5t27.5 8t20.5 7q3 2 5 -4t-1 -8q-7 -3 -20.5 -6.5t-29.5 -6.5t-32 -5.5t-28 -4.5v-3q-3 -18 -12.5 -35t-23 -29.5t-31 -18t-35.5 -0.5q-7 -1 -12 4l-4 2l-4 2q-26 15 -30 42t6 56t30 54t42 36q10 8 13.5 10t14.5 -3h7q1 0 1 -1t0.5 -1t0.5 -1
q6 -2 12 -7q1 0 1 0.5t1 0.5zM19 39q0 5 0.5 10.5t1.5 10.5l-3 -6q0 -7 -1 -9zM109 180l2 1h-2v-1z" />
    <glyph glyph-name="p" unicode="p" horiz-adv-x="267" 
d="M98 209q4 0 4 -2q8 8 15 10q6 0 1 -5q-8 -2 -17.5 -13.5t-18.5 -28t-17.5 -34.5t-14.5 -33q12 12 26.5 25t29 24.5t28 21t22.5 14.5q29 16 45.5 13.5t23.5 -16t4.5 -34.5t-11.5 -42q-5 -12 -14 -28t-20.5 -31t-25 -27.5t-27.5 -16.5q-17 -5 -33 -1t-29 14.5t-21.5 25
t-9.5 31.5q-24 -48 -50 -95t-58 -89q-42 -53 -90 -103t-102 -91t-115 -70.5t-130 -41.5q-33 -6 -68.5 -0.5t-71 16t-69.5 23.5t-65 22q-5 5 1 5q22 -6 55.5 -18t71 -23t75.5 -17t69 0q52 10 99 30t92 47v1q12 6 26.5 21t29.5 33t28 35.5t22 27.5q29 32 58 61.5t53 63.5
q4 11 11 24.5t16 22.5q4 8 9 17t13 18q14 23 26.5 47t24.5 47q14 25 32 56.5t26 51.5q0 2 1.5 2t2.5 -2q2 1 5.5 2t8.5 2h4q10 1 19 7zM171 181q-15 -6 -32.5 -16.5t-35 -23.5t-33 -27t-26.5 -27q-2 -20 9 -39t29 -29q19 1 33 10t23.5 23t16 31.5t11.5 35.5q1 3 3.5 13.5
t3.5 22.5q0 5 1 7q0 11 -3 19zM-238 -270q5 4 9 7.5t8 7.5q-1 -1 -2 -1q-2 -2 -3 -2.5t-2 -1.5h-2q-2 -2 -4 -5t-4 -5zM-23 -23q2 2 3.5 5l3.5 7l-6 -6l-1 -1q0 -1 -1 -2v-2q1 0 1 -1zM151 30q-2 -2 -3 -3.5t-2 -2.5q4 3 7.5 6t6.5 6zM175 183q1 -3 3 -7q0 2 2 4q-1 0 -1 2
q0 1 0.5 1t0.5 1q-2 0 -3 -0.5t-2 -0.5zM147 43q0 2 1 4l2 4q-2 -4 -4 -7.5t-4 -7.5l1 1l3 3q0 1 1 2v1zM-2 76q-2 -3 -3.5 -6t-3.5 -6q1 0 3 2q1 2 2 5t2 5zM68 174q0 -1 -0.5 -1t-0.5 -1q3 0 3 -3l1 -1q1 1 1 1.5t1 1.5q-4 -1 -4 3h-1zM-72 -97q-1 -1 -1 -1.5t-1 -1.5l2 2
q7 8 8 11l-6 -8q-1 -1 -1 -1.5t-1 -1.5v1zM99 12q1 -1 6 -1l-1 2q-1 -1 -5 -1zM219 171q-1 5 -4 8q1 -1 1 -1.5t1 -1.5v-4l1 -1h1zM98 201q-1 -1 -2 -1.5t-2 -1.5q1 0 1 -1v-1q1 2 1.5 2.5t1.5 2.5zM0 19l2 4t2 5l-3 -6q0 -1 -0.5 -1.5t-0.5 -1.5zM-271 -296q1 1 1 1.5
t1 1.5l-4 -4q1 1 2 1z" />
    <glyph glyph-name="q" unicode="q" horiz-adv-x="260" 
d="M195 193q0 6 5 3q0 -1 0.5 -1.5t0.5 -2.5l1 -1q5 4 10 4q3 0 3 -2v-1q8 1 17 1t14 -5q1 -1 1 -3q-8 -12 -18 -21.5t-21 -19.5q-21 -30 -42 -58.5t-39 -61.5q-15 -35 -27.5 -77.5t-19 -84.5t-6.5 -80t11 -65q0 -3 -3 -3q30 -48 80 -76.5t114 -26.5q18 0 38.5 4t40.5 10
t39.5 13t35.5 15q57 27 98.5 63t80.5 84q2 2 4 0.5t0 -3.5q-39 -48 -81 -85.5t-99 -65.5q-26 -13 -43 -19.5t-33 -10.5t-34 -6.5t-46 -7.5q-46 -8 -87 7t-72.5 45t-52 69.5t-25.5 81.5q-7 59 9 117q0 9 4.5 21.5t10.5 23.5q7 21 18 42q2 3 6 11.5t10 19.5q-8 -6 -16.5 -11
t-16.5 -10q-20 -12 -33 -15q0 -1 -2 -1h-3q-23 -3 -45 30q-5 8 -5 23.5t3 23.5q3 9 13 25.5t23 33.5t29 32t31.5 22t29.5 4t24 -23q8 -14 9.5 -29t0.5 -30q7 12 14 22.5t15 20.5q1 3 4 4q4 5 7.5 9t7.5 8q0 2 2 2q1 2 8 7q-2 2 -3 5zM104 52q6 12 14 25.5t16 27.5
q1 17 -0.5 33.5t-9.5 30.5q-2 0 -2 2q-1 6 -5 6t-9.5 -3t-10.5 -7t-8 -7q-8 -8 -23 -29t-28 -45t-19.5 -45.5t2.5 -29.5q20 -2 43 11t40 30zM75 -275q-2 10 -4 17t-4 13q0 -6 3 -19zM76 160q-1 0 -1 -1t-0.5 -1.5t-0.5 -1.5l7 7q-2 -1 -2.5 -1.5t-2.5 -1.5zM125 59q1 1 3 8
l-2 -4t-1 -4zM100 26q0 2 0.5 2.5t0.5 2.5q-1 -3 -3 -5h2zM-5 28q1 -1 1.5 -2t1.5 -2q-1 2 -1 2.5t-1 2.5q0 -1 -1 -1zM5 17l2 -1q-1 0 -1 2zM18 12l-1 2v-2h1zM238 185q0 -1 -1 -2l2 2h-1zM201 186q-1 -1 -2 -1h2v1z" />
    <glyph glyph-name="r" unicode="r" horiz-adv-x="295" 
d="M168 -11q0 -2 -3 -2q-2 1 -3.5 1.5t-3.5 1.5q-1 -1 -3 1q-3 2 -6 2.5t-5 1.5q-9 3 -13 14.5t-3.5 27.5t4.5 35t10 38q1 9 4 19t8 19q5 14 11 20q-10 -4 -15 -5q-8 -2 -17 -1.5t-17 -1.5q-6 0 -13 4.5t-13.5 10t-12 9.5t-7.5 2q-5 -3 -12.5 -14.5t-16.5 -25.5l-18 -28
t-16 -23q-4 -5 -16 -12.5t-14 -12.5q-1 -2 -3 -1.5t-2 2.5q2 9 7.5 12.5t10.5 8.5q8 11 17.5 20.5t17.5 20.5q-1 -2 -4.5 -7t-1.5 -3q7 11 9.5 13.5t8.5 13.5q16 26 24.5 36.5t14 11.5t9.5 -4.5t11 -11.5t18.5 -10t32.5 0q11 2 22 7t21.5 10.5t21 9.5t22.5 4q2 -1 2.5 -3
t-1.5 -2q3 -3 0 -4q-14 -14 -29 -38.5t-25.5 -53t-14 -56t4.5 -46.5q19 11 35.5 20t33.5 24q-1 -1 -1.5 -1t0.5 1q8 8 15 14.5t14 13.5q3 3 8.5 10.5t11.5 15t11.5 14t8.5 6.5q3 2 4 -0.5t-2 -4.5q-1 0 -9.5 -10.5t-19 -23t-20 -24t-12.5 -14.5q-18 -17 -36.5 -29.5
t-42.5 -22.5h-2zM219 195q-5 -2 -11 -5l-12 -6q8 2 14 4q1 0 2 -1q1 1 2 1.5t2 1.5q2 2 3 4v1zM188 176q2 0 4 -2q1 2 2 2.5t2 1.5q-4 0 -8 -2zM163 -6q-1 3 -3 7q0 -1 0.5 -2.5t0.5 -3.5zM232 198q-2 -1 -6 -1v-2q1 1 3 1q1 0 3 2z" />
    <glyph glyph-name="s" unicode="s" horiz-adv-x="148" 
d="M-137 -77q-1 -2 -3 -1.5t-2 2.5q0 18 12.5 35.5t32.5 33.5t46.5 30.5t54.5 26.5q1 14 2.5 38t6.5 47.5t15 41.5t27 20q0 1 1 1l2 1q6 0 7 -1q3 0 3 -2q15 -5 36 -1q1 1 1.5 2t1.5 2q5 3 5 -2q-3 -7 -9 -10q2 -2 -1 -4q-14 -3 -21.5 -8.5t-11.5 -13.5t-5.5 -18t-4.5 -21
q-3 -14 -6.5 -27.5t-6.5 -27.5q42 14 66.5 25.5t41.5 13.5q6 0 1 -5q-34 -12 -57 -23t-54 -25q-1 -1 -1 -4q-5 -32 -10 -51.5t-13 -33t-20.5 -23.5t-32.5 -22q-8 -8 -16 -14t-18 -8q-11 -3 -23 -3t-22 3.5t-17 10.5t-8 18v-3zM-19 -38q8 17 13 35.5t8 37.5q-18 -8 -40 -17.5
t-41.5 -21t-34.5 -25.5t-20 -31q3 0 3 -4q-2 -14 2.5 -20.5t12.5 -9.5t18.5 -3h19.5q15 1 31 17t28 42zM58 192q-2 0 -3 -0.5t-3 -0.5q0 -1 0.5 -1t0.5 -1h1q1 0 1 0.5t1 0.5t1.5 -0.5t1.5 -0.5l1 1q-2 0 -2 2zM-1 -52q2 2 3.5 4t3.5 5q-2 0 -2 1q-2 -2 -2.5 -5t-2.5 -5z
M83 183q-2 -1 -3 -1t-1 -1q-2 -3 -3 -3q-2 -2 -2 -3q5 5 12 8h-3zM-14 -54q0 -3 -3 -6l2 2q1 0 1 1v3zM-1 -21q-1 0 -1 -1t-0.5 -1.5t-0.5 -1.5q1 1 2 0v4zM61 159q2 2 2 3l-2 -2v-1zM68 185l1 1h-1v-1z" />
    <glyph glyph-name="t" unicode="t" horiz-adv-x="140" 
d="M-11 216q-3 0 -2.5 2.5t2.5 2.5l36 2l36 2q19 34 39 67.5t43 66.5q3 5 6 9.5t6 9.5q40 58 84 112t94 104q24 24 52.5 45.5t55.5 41.5q39 30 76.5 57.5t79.5 49.5q0 2 1 3q8 2 9 3t4 2q1 0 5 2q0 -1 -0.5 -1.5t-0.5 -1.5q2 -2 0 -4q-10 -5 -19.5 -9.5t-20.5 -9.5
q-5 -3 -14.5 -10t-8.5 -5q-54 -41 -108.5 -81t-105.5 -88q-21 -20 -40 -40.5t-38 -43.5l-2 -2l-10 -12l-10 -12q-11 -17 -25 -40t-26.5 -45.5t-21.5 -39t-10 -19.5q-15 -27 -30 -53.5t-29 -54.5q17 1 34 1h34q3 0 3 -1.5t-2 -3.5q-19 -2 -37.5 -3t-36.5 -2
q-21 -39 -40 -78.5t-35 -80.5q-6 -17 -7.5 -33.5t-7.5 -33.5q-17 -53 -29.5 -93.5t-4.5 -83.5q14 -29 33.5 -54.5t51.5 -36.5q30 -11 58.5 -6t54 20t47.5 35.5t41 40.5q15 16 25 26t12 29q0 3 2.5 2.5t2.5 -3.5q-2 -18 -14 -31t-24 -27q-29 -32 -65 -58.5t-73 -36.5
t-73.5 2.5t-67.5 59.5q-23 36 -33.5 62t-11.5 49.5t7 50t22 64.5q17 47 34.5 91t40.5 88q5 8 9 17t9 17h-33t-33 1zM-42 -135q1 0 1 -1q1 8 2 16.5t3 16.5l-1 -1l-3 -3q0 -5 -0.5 -9.5t-1.5 -9.5v-9zM-55 -84q1 2 1 6v5q-2 -7 -3 -13t-1 -12q1 4 1.5 8t1.5 6zM132 327
q-2 -5 -6 -13q4 6 7 12.5t7 12.5q-6 -8 -8 -12zM-41 -157q-1 -1 -2 -1q0 -1 -0.5 -1t-0.5 -1q2 -4 3 -7v10zM-42 -148l1 -2v8q0 -1 -0.5 -1t-0.5 -2v-3zM59 188q-1 -1 -3 -5q1 0 1 1q1 1 1 2t1 2zM-3 26q0 -1 0.5 -1.5t0.5 -1.5q0 3 1 4zM11 70q0 1 0.5 1t0.5 2h-1v-3z
M-11 48q0 -1 -0.5 -2t-0.5 -2q1 1 1 3v1z" />
    <glyph glyph-name="u" unicode="u" horiz-adv-x="313" 
d="M160 125q-1 -1 -1 -1.5t-1 -1.5q-14 -26 -28.5 -52t-37.5 -41q-4 -2 -8.5 -3.5t-8.5 -3.5q-19 -16 -33 -17q0 -1 -1 -1q-17 -10 -38 -2.5t-26 28.5q-1 6 0.5 14.5t4 17.5t5.5 17t5 12q2 2 2.5 5t1.5 5q6 23 20 36q14 23 30 44.5t30 44t25 46.5t16 52q2 9 4 20.5t0 19.5
q-4 10 -6 13q-2 0 -2 3v1l-2 4l-2 4q-18 6 -45.5 3.5t-56 -9.5t-53.5 -16.5t-38 -17.5q-11 -7 -18 -13t-12 -12.5t-10 -13.5t-12 -16q-2 -2 -4 -0.5t0 3.5q5 7 8 14t8 14q11 16 33.5 29t48 22.5t50.5 15.5t43 8q9 1 22 2.5t25.5 0t22.5 -6.5t14 -17q14 -39 11 -76
q0 -1 0.5 -2t0.5 -2q-2 -4 -3 -7q-7 -48 -35 -91.5t-61 -80.5q-8 -9 -14.5 -24t-8.5 -30t1.5 -29t14.5 -22q5 1 9 2t6 2q4 4 6 5q4 3 8 4.5t9 3.5q5 3 9.5 7t9.5 9q23 28 40 59.5t42 58.5q1 1 2 1q2 2 2.5 3.5t1.5 3.5q0 1 3.5 5t4.5 5l4 4l1 2l2 2q3 3 3 0q6 0 13 0.5
t14 0.5l1 1v-1q5 1 8.5 1t7.5 1h3h9q3 0 4 -2.5t-1 -4.5q-13 -14 -28.5 -35.5t-28.5 -45.5t-21.5 -48.5t-6.5 -44.5q1 -5 4 -7t6 -5q3 1 5 2l4 2q21 10 35 24t26.5 29t26 29t34.5 24q3 2 4 -0.5t-2 -4.5q-6 -3 -18.5 -16t-28.5 -29t-34 -33t-35 -28t-32 -13.5t-25 10.5
q-11 15 -12 30t3 33q3 15 8 29t11 28q2 5 4 8.5t4 8.5q-2 -2 -2.5 -4t-2.5 -4l-1 -1v-1zM117 378q6 -10 8 -26q1 4 1 7.5t2 6.5q-2 5 -4.5 8.5t-4.5 7.5q0 -2 -1 -3q0 -1 -1 -1zM-8 28q-1 3 -1 6t-1 6q0 1 -1 2q0 -8 3 -17q4 -5 5 -4q-1 1 -1.5 2t-1.5 2t-1 1.5t-1 1.5z
M18 22q-1 2 -2 5t-2 8q-2 -2 -3 -5q4 -4 5 -7q1 -1 2 -1zM121 291q1 1 1.5 2t1.5 2v11zM203 186q-1 -2 -2 -3t-2 -3q6 4 10 7h-6v-1zM46 128q-2 -4 -4.5 -6.5l-4.5 -4.5q0 -1 1 -1l9 12h-1zM145 30q0 -5 0.5 -8t1.5 -6q0 2 -0.5 5t-0.5 7zM179 110q-1 -1 -1 -2t-1 -2v-3l2 4
l2 4q-1 -1 -2 -1zM218 187q0 -1 0.5 -1t0.5 -1q1 0 3 2h-4zM-12 54q-1 -1 -1 -5h1v5zM124 322q0 1 1 2v4q-1 -1 -1 -5v-1zM173 127q2 2 2.5 4t2.5 4h-1l-2 -4zM223 175q-1 0 -1 -1v-1l6 6q-1 -1 -2 -1.5t-3 -2.5zM106 213q1 1 1 2t1 2h-1q0 -1 -0.5 -2t-0.5 -2zM31 6
q-2 0 -3 1q0 -1 1 -1v-1zM171 14q0 -1 1 -1q0 1 -0.5 1.5t-0.5 1.5v-2zM180 0q-1 0 -2 1v-1h2zM-2 14q0 -2 2 -2zM220 169q0 -1 -0.5 -1t-0.5 -1l1 1v1z" />
    <glyph glyph-name="v" unicode="v" horiz-adv-x="224" 
d="M50 197q1 0 3 -2q11 -3 19 -2t27 2l1 1v-1h4q0 -2 0.5 -2.5t-1.5 -2.5q-11 -10 -17.5 -15.5t-11.5 -17.5q0 -5 -5 -13q-2 -4 -5.5 -10.5t-7.5 -13.5t-7.5 -13t-4.5 -9q-2 -14 -3 -32t5 -31q9 -17 22.5 -11.5t27.5 19.5t25.5 31.5t16.5 24.5q-15 11 -14 30.5t10.5 38
t24 31t27.5 9.5q9 -2 12.5 -10t3.5 -18t-2 -19t-5 -13q-8 -13 -18.5 -23t-21.5 -21q-2 -2 -2.5 -3t-1.5 -2q10 -4 22 -4t23.5 3t21 9.5t14.5 15.5q0 3 2.5 2.5t2.5 -3.5q-2 -9 -9.5 -15.5t-9.5 -8.5q-7 -5 -12.5 -7t-10.5 -2t-11.5 0.5t-15.5 0.5q-12 0 -21 4
q-7 -9 -15.5 -22t-18.5 -25t-20.5 -21.5t-22.5 -11.5q-11 -9 -24 -9t-24.5 7t-20 19t-11.5 26q-1 3 4.5 23t14.5 43.5t19 44t18 25.5q-1 1 -1 2.5t2 1.5h3zM133 116q3 -8 9 -12q12 15 29 28.5t22 33.5q2 11 -1.5 18t-9.5 15q-9 0 -19.5 -9.5t-18.5 -23t-12 -27.5t1 -23z
M50 189q-3 -1 -5 -3q1 0 2 1q4 0 5 -1h3q1 1 3 1h6q-3 1 -6.5 1.5t-6.5 1.5zM41 91q2 8 5 15t5 14q-2 -2 -3 -4t-3 -4v-4q-1 -1 -1 -2zM11 35q3 -6 8 -9v3l-5 5q-1 0 -1.5 0.5t-1.5 0.5zM73 163q2 3 3 5l2 4q-2 -2 -3.5 -3t-3.5 -3q2 -2 2 -3zM91 188q-1 0 -1 -0.5t-1 -0.5
l1 -1q0 1 1 2zM57 12l1 1h-1v-1z" />
    <glyph glyph-name="w" unicode="w" horiz-adv-x="342" 
d="M213 195q2 2 4 0.5t0 -3.5l-1 -1q2 0 3 0.5t3 0.5q8 0 2 -6q-5 -5 -15.5 -14.5t-20.5 -21.5q-2 -3 -4.5 -5.5t-4.5 -5.5q-2 -4 -4.5 -7.5t-4.5 -8.5q-2 -4 -4 -9l-4 -10q-4 -12 -8 -25.5t-9 -24.5q-7 -29 1 -41t42 -7q8 1 16.5 -0.5t15.5 2.5q8 4 19.5 23t22.5 42
q0 2 0.5 4t0.5 4q-15 4 -18 21q-2 8 3.5 19.5t13.5 23t16.5 22t12.5 16.5q1 3 5 3q6 0 8 -1q2 -2 3 -4q3 -11 0 -23.5t-8.5 -25t-12 -24t-10.5 -21.5q9 -1 20 0t21.5 3.5t18 7t8.5 9.5q5 3 5 -2q-3 -7 -12 -12.5t-20 -9t-23 -5t-21 0.5q-4 -9 -9.5 -21.5t-12 -25t-13.5 -22
t-14 -12.5q-9 -3 -17 -1.5t-17 0.5q-30 -3 -43 3q-26 5 -34 26t-5 44q-5 -13 -9 -25t-10 -24q-3 -6 -8 -8.5l-11 -5.5l-5 -2q-2 -2 -5 -1h-15.5t-14.5 2q-5 -1 -10.5 -1.5t-9.5 2.5q-26 24 -25.5 48.5t13.5 48t32.5 45t32.5 39.5q0 2 1 3q8 6 23.5 8t28.5 0q7 0 2 -5
q-1 -2 -6 -7q-5 -10 -14 -19q-20 -28 -37.5 -57t-31.5 -64q-3 -8 -0.5 -14.5t8.5 -11t13.5 -6t15.5 1.5q3 1 7 2t6 4q4 7 9 19t10.5 25.5t11.5 27.5t12 25q7 12 23 29.5t28 31.5q0 2 2 4l1 1q8 9 9 16q0 3 2.5 2.5t2.5 -3.5q-1 -2 -1 -4.5t-1 -4.5q2 -1 8 -1h13q1 1 1.5 2
t1.5 2h1zM255 94q2 -4 10 -5q1 2 1.5 3.5t1.5 3.5q1 11 6.5 26.5t0.5 25.5q-11 -16 -19 -32t-1 -22zM-5 65q-1 -3 -1 -6.5v-6.5l2 2v1q1 2 1 7q-2 2 -2 3zM69 186l6 2l1 1h1q2 2 5 2.5t5 1.5q-5 -1 -9 -2t-9 -3v-2zM203 173q-2 -2 -3 -2q-1 -1 -2 -5q2 2 5 5.5t6 6.5
q-2 -1 -3 -1t-1 -1t-2 -3zM212 184q0 -1 1 -2l3 3h-4v-1zM52 117l-3.5 -3.5t-2.5 -3.5h1zM42 102q-1 0 -1 -0.5t-1 -0.5q0 -2 -0.5 -3t-0.5 -2l2 4q0 1 0.5 1t0.5 1zM121 94q-1 0 -1 1l-2 -6q0 2 3 5zM18 48q1 1 1 1.5t1 1.5h-2v-3zM136 11q-1 1 -1 1.5t-1 1.5l-1 -1
q2 -2 3 -2zM107 194q2 -2 2 -1l1 1h-3zM282 120q1 1 1 1.5t1 1.5h-1q0 -2 -1 -3zM120 100q0 1 1 2q-1 0 -1 -1v-1z" />
    <glyph glyph-name="x" unicode="x" horiz-adv-x="202" 
d="M-32 -30q-5 -5 -5 2q4 12 13 24.5t20.5 24.5t22 23t17.5 19q1 1 3.5 4.5t7.5 8.5q-2 7 -3 14t-4 17q-7 23 -11 43.5t-3 43.5q-2 0 -3 1q-6 0 -1 5q1 0 2 1t3 -2q2 6 4 0h2q3 4 7 0h18t11 -3q5 -8 3.5 -18.5t-2.5 -19.5l2 -14t0 -13q0 -10 3 -22q5 5 8 9.5t6 8.5
q7 8 10.5 18t8.5 19q13 23 30 46.5t36 40.5q9 7 19.5 14.5t22.5 11.5t23.5 3.5t22.5 -7.5q2 -2 0.5 -4t-3.5 0q-12 7 -25 6t-25 -7.5t-22.5 -16t-17.5 -18.5q-15 -19 -26 -35.5t-21.5 -32.5l-21 -32t-23.5 -34q4 -20 10.5 -39t16 -30.5t22 -12.5t28.5 16q2 2 6.5 8t9.5 12.5
t8.5 12t4.5 7.5q8 10 14 22t11 24q5 3 5 -2q-5 -13 -11.5 -26.5t-14.5 -25.5q-22 -32 -38.5 -45.5t-29.5 -13.5l1 -1q5 0 6 1q3 2 4 -0.5t-2 -4.5q-2 -1 -7 -1q-1 -1 -2.5 -1t-1.5 1q-9 0 -20 7q-30 16 -38 28.5t-10 29.5q-6 -6 -7 -8q-4 -5 -15 -15.5t-23 -23t-22.5 -25.5
t-13.5 -23zM33 166q1 -2 1 -3.5t1 -3.5v6q-1 0 -2 1zM48 192q0 -1 1 -1q4 0 5 1h-6zM42 190q1 1 1.5 1t1.5 1h-3v-2z" />
    <glyph glyph-name="y" unicode="y" horiz-adv-x="300" 
d="M152 95q-24 -22 -52 -44t-49 -32q0 -2 -2 -2q-11 -3 -21.5 -9.5t-22.5 -10.5q-8 -2 -14.5 3t-11.5 13q-13 6 -9 22q-3 14 -2 20q5 17 13 30t17 26q4 7 8 13.5t9 11.5q2 4 4.5 7t4.5 8q2 3 4 10.5t7 12.5q2 2 5 4t5 4q2 3 3 5t2 3q0 3 1 4q1 0 3 2q0 4 3 1q9 5 18.5 3.5
t20.5 -3.5q5 3 5 -2q-9 -15 -23.5 -38t-27 -48t-19 -47.5t1.5 -37.5q7 0 23 9t35 22.5t38.5 29t34.5 29.5q11 17 18 33.5t10 36.5q0 5 3 2q2 2 5 1q3 -3 19 -0.5t28 1.5q0 1 1 2q2 2 4 0.5t0 -3.5v-1q0 -1 -2 -3h-1q-9 -15 -17.5 -35.5t-12.5 -30.5q-9 -23 -22 -42.5
t-24 -42.5t-22 -41t-22 -41q-17 -32 -40 -63.5t-47 -58.5q8 -5 16.5 -9t17.5 -8q33 -15 67 -26.5t67 -25.5q69 -28 151 -59.5t168 -54t171 -30.5t160 12q65 17 119.5 49t108.5 68q2 1 3.5 -0.5t-0.5 -3.5q-52 -35 -106 -68t-117 -50q-68 -17 -143.5 -14t-152 19t-150 40
t-136.5 49q-49 20 -98 39.5t-98 39.5q-15 7 -28.5 13t-26.5 12q-2 -2 -2 -3q-24 -27 -43 -52t-38.5 -46.5t-42 -39.5t-53.5 -31q-17 -15 -37 -25.5t-46 -15.5q-15 -3 -31.5 -8.5t-34 -10t-34.5 -7t-32 0.5q-25 4 -45 14t-33.5 25.5t-19 36t-0.5 46.5q2 14 6.5 28t12.5 25
q34 44 83.5 66.5t102.5 33.5q49 11 97 15.5t99 -5.5q34 -6 63 -22q5 8 10 15t10 15q11 17 16 24t8.5 12.5t8.5 12.5t17 25l-1 -1q8 20 18.5 41t21.5 40q3 14 11 29t18 26q1 3 7 11zM-137 -328q42 33 75 75.5t62 87.5q-25 11 -47.5 18t-45.5 9q-45 4 -103.5 -2.5t-111.5 -26
t-92.5 -52t-47.5 -79.5q-2 -13 -3 -27.5t4 -27.5q10 -26 39 -39q26 -12 44 -17t34.5 -4t36 7.5t48.5 17.5q18 7 31 12t25 12q0 1 1 2l9 3q9 6 19 13t23 18zM-104 -316q-5 -4 -9 -7t-7 -8q2 1 3.5 2t3.5 2q2 3 4.5 5.5t4.5 5.5zM31 149q2 2 2.5 5.5t2.5 8.5q-3 -5 -6 -10.5
t-7 -10.5q2 2 4 2q1 1 1.5 2t2.5 3zM232 173q1 1 4 -1q1 1 2 3t3 5q-2 -1 -3.5 -1t-3.5 -1q-1 -1 -1 -1.5t-1 -1.5v-2zM197 181q-1 -2 -1 -4.5t-1 -4.5q2 1 3 2t3 2l1 1q-2 1 -3 2zM-15 71q-2 -6 -4 -11t-3 -10l2 2q1 4 1.5 8t2.5 7q0 1 0.5 2t0.5 2zM16 -158q1 2 2 4.5
t2 5.5q-2 -2 -3 -5t-3 -5l2 -1v1zM200 93q-2 -2 -2.5 -3t-1.5 -2l-3 -6q2 2 3.5 4.5t3.5 6.5zM-38 -231q-2 -2 -4 -4.5t-5 -6.5l4 4zM-62 -261q1 1 1.5 2t1.5 2q-2 -2 -2.5 -3t-1.5 -2zM91 191q0 -1 -0.5 -1.5t-0.5 -1.5q1 1 1 1.5t1 1.5h-1zM27 13l2 1h-2v-1zM44 -152
q-1 -1 -1.5 -2t-2.5 -3v-1q1 2 2 3t2 3zM-14 20l1 1h-1v-1zM-95 -315l-1 -1q1 0 1 1zM-85 -288v-1v1zM-20 32q0 1 -0.5 1t-0.5 1q0 -1 1 -2z" />
    <glyph glyph-name="z" unicode="z" horiz-adv-x="227" 
d="M7 121q-2 -2 -4 0t0 4l1 1q-3 0 -3 4q2 6 2 5q1 1 3 1q4 5 8 13.5t9 17t11 16t14 10.5q14 5 26 -0.5t25 -11.5t29.5 -6.5t40.5 14.5h3q3 3 3 -3q4 1 8.5 3t11.5 1q3 0 3 -4q-8 -16 -26 -41.5t-40 -51.5t-44 -48t-37 -31q0 -3 -2 -3q-1 -1 -2 -1q14 -5 26.5 -13t22.5 -3
q10 3 29.5 17.5t39.5 32t35.5 34t18.5 23.5q2 2 7 7.5t8 5.5q3 2 4 -0.5t-2 -4.5q-12 -12 -28.5 -31t-34.5 -38t-37 -34.5t-37 -21.5q-17 -5 -32 1t-31 14q-7 0 -8 1h-1q-1 1 -1 1.5t-1 1.5q-11 4 -21.5 5t-21.5 -4l-5 -5q-1 -4 -2 -7t-2 -5q-2 -3 -4 -1q0 -1 -0.5 -1
t-0.5 -1q-1 -2 -3 -1.5t-2 2.5q0 1 1 2t1.5 2t1.5 2l4 4q5 13 12 17q2 1 2.5 2t2.5 3q6 6 15.5 13.5t20 15.5t20.5 15t16 12q18 17 47 47t57 61q-3 -2 -6.5 -2.5t-7.5 -2.5q-11 -6 -19.5 -8t-15.5 -2q0 -2 -3 -2q-8 3 -26 0q-1 -1 -3 -1h-4q-18 -4 -36.5 -10.5t-21.5 -11.5
q-4 -5 -7 -10t-8 -10h1zM150 155q-2 -3 -4 -5.5t-4 -4.5l1 -1l3 3q1 4 4 7v1zM45 180q1 0 2 -1q1 1 1.5 1t1.5 1q-1 0 -1 2q-5 -1 -8 -4q1 1 4 1zM172 182q-2 -2 -3 -3.5t-2 -2.5h2q1 2 2 2.5t2 2.5zM186 181l4 4l-6 -2zM42 15q1 1 1 3q0 4 1 5q-1 -1 -1 -5q0 -2 -1 -3z
M125 91q0 1 0.5 1.5t0.5 1.5q0 -1 -0.5 -1t-0.5 -1v-1zM63 183h-1h1zM45 24v1v-1z" />
    <glyph glyph-name="braceleft" unicode="{" horiz-adv-x="833" 
d="M218 263q-2 -2 -3 -2l-1 1l-1 1l1 1q-2 7 -6 9q-2 -1 -4 -0.5t-4 0.5q-1 -2 -3 -2t-2 2q-3 -1 -5.5 -1t-3.5 -1q-14 -15 -20.5 -33t-12 -36.5t-12.5 -36.5t-21 -33q-5 -4 -15.5 -8.5t-21.5 -6.5q12 -12 8.5 -37.5t-12 -53.5t-16 -53.5t-2.5 -37.5q14 -3 30 1t31 13
q2 0 3.5 -1.5t-0.5 -2.5q-11 -8 -20.5 -12t-20.5 -6q3 -4 -1 -5q-8 -4 -13.5 -1.5t-9.5 7.5q-31 10 -35 62q-1 13 3 26.5t10 27.5t12 27.5t9 26.5q0 3 0.5 5.5t1.5 5.5q-9 6 -16 15h-7q-3 1 -2 3.5t3 1.5q0 4 4 3q2 -2 4 -2h5q1 1 3 0q8 2 16.5 5.5t13.5 9.5
q10 13 15.5 27.5t10 30t10 30.5t14.5 29q7 11 21 20t28 11.5t24.5 -3.5t10.5 -25zM208 279q-5 5 -10.5 6t-11.5 1q-4 -3 -9.5 -6t-10.5 -7l7 3.5t6 3.5q4 1 4 -2q4 2 7.5 3t6.5 2q3 0 3 -2v-1q2 1 4 0t4 -1zM56 -63q-1 3 -3 13q-2 -5 -3 -6q-1 0 -1.5 -0.5t-1.5 -0.5
q1 -2 9 -6zM78 61q0 -1 0.5 -1.5t0.5 -1.5l3 18q-3 -5 -3 -11v-2v-1l1 1zM82 99q-1 5 -2 7.5t-2 4.5q0 -5 -1 -6q1 0 0.5 -0.5t0.5 -0.5l2 -2t2 -3zM72 124q0 3 2 5q-2 -1 -4 -1.5t-4 -1.5q1 0 1.5 -0.5t1.5 -0.5q0 -1 1 -1h2zM58 7q-2 -6 -3 -10l2 -2zM142 258q-1 -1 -1 -2
q3 3 5 4q1 3 4 6q-6 -3 -8 -8zM121 209q0 2 1 3l1 8q-1 -4 -2 -7t-1 -5zM52 -15q-3 -5 -5 -10q1 0 1 0.5t1 0.5zM65 105q1 -2 0.5 -3.5t0.5 -2.5q0 -3 2 3q-2 2 -2 4zM58 119q1 -2 2 -2.5t1 -2.5l2 2q-3 1 -5 3zM127 230v-1q-2 -4 -3 -7q1 1 3 8zM80 126q-3 0 5 2h-2z
M93 142l-1 2q-1 -1 -1.5 -2t-1.5 -2zM76 96l-1 -1l1 -1v2z" />
    <glyph glyph-name="bar" unicode="|" horiz-adv-x="833" 
d="M102 327q-2 -2 -3 -2q-1 -17 0 -34.5t1 -22.5v10v10v-10q4 -99 4 -196t-2 -194q-1 -2 -3 -1.5t-2 2.5v29.5t-1 29.5v-13q-2 72 -2 143t-1 143q0 12 -1 28.5t-1.5 34t0.5 33.5t5 28q1 2 3 2t2 -3q1 -5 1 -17z" />
    <glyph glyph-name="braceright" unicode="}" horiz-adv-x="833" 
d="M173 95q6 0 1 -5q-4 -1 -6.5 -1.5t-5.5 -1.5h-3q-9 -2 -14.5 -5.5t-12.5 -16.5q-13 -23 -16 -48q-1 -2 -1 -5t-1 -6q-2 -14 -3.5 -27t-7 -23.5t-16.5 -18.5t-32 -13q-14 -2 -24 4q-11 -5 -20 2.5t-11 17.5q0 4 2 3.5t3 -2.5q5 -20 18 -16l-1 1q0 6 5 3l2 -2q8 4 14 11
t9 14q8 18 13.5 37t9.5 38q3 16 4.5 26.5t5.5 17.5t11.5 10.5t21.5 4.5q-8 9 -11 28.5t-1 29.5q4 19 9 29l9.5 19t8 19.5t4.5 29.5q1 16 -8.5 25t-22.5 10.5t-24.5 -4.5t-14.5 -20q-1 -2 -3 -1.5t-2 2.5q3 14 19.5 23.5t33.5 7.5q6 3 16 3.5t20 -1.5t17.5 -5.5t8.5 -8.5
q3 -23 -2 -45t-11 -44t-10 -43.5t0 -44.5q2 -2 4.5 -2.5t5.5 -2.5q2 2 4 -3h1q0 -1 1 -1t1.5 0.5t1.5 0.5zM86 58q0 2 1 3l1 1v2q5 12 19 19l-1 1q-17 -8 -22 -28zM124 291q4 -1 10 -6q2 2 3 2.5t2 1.5h1q-5 2 -9 2h-7zM169 277l-6 3q1 -2 2.5 -4.5t3.5 -6.5v8zM152 88
q-3 0 -3 4q0 -1 -1 -2l-6 -6q2 1 5 1.5t5 2.5zM143 256q2 6 2 7t-1 2t-1 3v-12zM42 -70q2 0 5 -0.5t5 0.5l-1 1q-4 0 -5 1q-1 -1 -2 -1t-2 -1zM72 -43q-1 -1 -2 -3l-3 -6q2 2 3 2q0 1 2 3v4zM149 286q-4 0 -5 1q1 -1 1 -2t1 -2zM71 -63l4 2l4 2q-1 1 -1 2q-5 -5 -7 -6z
M135 208q0 1 2 3v5zM117 105q1 -1 1.5 -2t1.5 -2q-1 1 -1 3q-1 0 -2 1zM130 98v-1h2v1h-2zM149 96v-3q0 1 0.5 1t0.5 1v1h-1zM85 44q-1 -1 -1 -5q0 1 0.5 2t0.5 3zM84 32q-1 -1 -1 -2v-1l1 1v2zM155 274q1 0 2 -1q-2 2 -2 3v-2zM127 72q-1 0 -1 -1zM56 -69q1 0 1 0.5t1 0.5
q-1 0 -2 -1z" />
    <glyph glyph-name="asciitilde" unicode="~" horiz-adv-x="215" 
d="M36 91q-1 -2 -3 -1.5t-2 2.5q1 6 1.5 10.5t1.5 9.5q0 2 1 3q5 18 14 22.5t21 1.5t27.5 -10.5t32.5 -13.5q2 -1 10 -1.5t16 1.5q0 1 0.5 1t0.5 1q0 2 2 2t3 -2q14 5 10 15h-3q-3 0 -2.5 2.5t2.5 2.5q14 -3 8 -11.5t-17 -15.5q-6 -19 -21.5 -22.5t-34 0.5t-36.5 11.5
t-28 10.5q-1 -4 -2 -9zM62 132q-4 0 -5 -1q3 0 4 -1q0 1 1 2zM148 101q2 2 2 3q0 -1 -2 -1v-2zM44 114q-1 1 -2 1v1q0 -2 2 -2zM46 123q-1 -1 -1 -2h1v2z" />
    <glyph glyph-name="exclamdown" unicode="&#xa1;" horiz-adv-x="190" 
d="M147 125q1 -14 -1 -28t-8 -25q-2 -11 -4 -19.5t-3 -12.5q-11 -63 -40 -119.5t-64 -110.5q24 1 46.5 5t41.5 12q-1 5 -1 9.5v9.5q0 2 2.5 2.5t2.5 -1.5v-10.5t1 -10.5q0 -1 -1 -2v-1q-21 -10 -45.5 -14t-50.5 -4q-16 -23 -32.5 -45.5t-33.5 -45.5q-16 -21 -39 -34.5
t-43 -29.5q-9 -7 -19.5 -9.5t-21.5 -3.5t-22.5 -1.5t-21.5 -2.5t-22.5 1.5t-21.5 5.5q-26 5 -37 21.5t-10.5 38t11.5 45t29.5 42.5t43 31t51.5 10q31 -2 67.5 -7.5t74.5 -8.5q22 37 45 83t42.5 93.5t33 94.5t16.5 88q2 19 1 29t-2 24q-5 4 -10.5 7t-11.5 7q-2 2 -0.5 4
t3.5 0q5 -2 9.5 -5t9.5 -5v2q1 2 3 1.5t2 -2.5v-4q2 -1 2.5 -1t2.5 -1q2 0 2 -2q4 -2 7 -5t7 -6q11 -11 12 -36t-3 -53zM-211 -356q10 2 20 2.5t20 1.5q28 12 49.5 31t38.5 42q5 7 9 13.5t9 12.5l12 18t11 18q4 6 7.5 11.5t7.5 12.5q-37 2 -72.5 7t-67.5 6q-26 1 -49 -10.5
t-40 -29.5t-26.5 -40t-9 -41t12 -33.5t36.5 -17.5q7 -2 15.5 -4t16.5 0zM151 331q-7 -1 -4 3h-5q-6 1 -7 12t2.5 24.5t10.5 25.5t16 14q11 3 14.5 -8t1 -25.5t-10 -28.5t-18.5 -17zM10 -202q-6 -8 -11.5 -14.5t-10.5 -10.5q-3 -6 -6.5 -12t-7.5 -12q10 11 19 23.5t17 25.5z
M117 221q1 -8 1.5 -17t1.5 -17q1 9 1.5 17t-1.5 16q-1 0 -1.5 0.5t-1.5 0.5zM33 -166q5 7 8.5 13.5t7.5 13.5q-1 0 -1 -1l-6 -8l-2 -4l-2 -4q-2 -2 -2.5 -5t-2.5 -5zM86 -60q-5 -17 -14 -29q-1 -4 -2 -7.5t-3 -8.5l15 33q4 6 6 13q0 -1 -2 -1zM143 154q0 14 -3 26v-12
q2 -5 3 -14zM133 211q-2 2 -5 3l1 -2q2 -1 2 -2t2 -3l1 -1q0 4 -1 5zM100 54q-1 -1 -5 -11l2 2zM115 129q2 7 3 8q0 5 -1 6q0 -4 -2 -14zM-59 -285q-1 -2 -2 -3t-2 -3l2 2q3 3 5 7zM-131 -341q1 1 2 1t2 1q-2 0 -2.5 -0.5t-1.5 -0.5v-1zM137 192q0 1 -1 2v-2h1zM108 99
q0 -1 -0.5 -1.5t-0.5 -1.5l1 2v1z" />
    <glyph glyph-name="cent" unicode="&#xa2;" horiz-adv-x="247" 
d="M126 185q-21 1 -39 -21t-31 -54.5t-20.5 -70t-6.5 -65.5q5 -11 6.5 -21.5t5.5 -19.5q23 -25 60.5 -39.5t87.5 -20.5q35 -3 75 -1t74 8q51 8 92 25t83 45q3 2 4 -0.5t-2 -4.5q-45 -31 -93 -49t-98 -25.5t-101.5 -5.5t-104.5 12q-46 8 -73.5 33t-39.5 58.5t-9.5 72.5
t17.5 75q11 26 26 51.5t41 39.5q8 5 18 1t18 -4q8 2 17.5 3.5t15.5 -3.5q8 -2 12 -6t4 -15v-7q0 -1 -0.5 -1t-0.5 -1q0 -4 -0.5 -7.5t-1.5 -8.5q-3 -14 -9 -28q-2 -14 -8.5 -20t-14.5 8q-4 5 -2 10q-1 8 1.5 18t13.5 18q-1 7 0 12v4q-4 0 -5 4v4l-1 1l-2 2q-6 -2 -8 -2
q2 -4 -1 -4zM54 135q2 -2 2 -3q4 6 6 10q-5 -5 -8 -7zM24 -46q-1 2 -1 4t-1 4l-4 2q2 -2 3 -5t3 -5zM62 184q1 1 5 3q1 1 2 1q2 4 4 6l-4 -3zM103 199q-2 0 -3 0.5t-3 0.5q2 -2 2 -4h1l1 1l1 1v-1q0 1 1 2zM145 194l1 -1q1 1 1 2q-2 2 -3 2q0 -1 0.5 -1.5t0.5 -1.5zM14 89
q1 1 1 5q-1 -2 -1 -3t-1 -2h1zM12 84q-1 -1 -1 -4q0 1 1 2v2zM9 64h-1q0 -1 0.5 -1t0.5 -1v2zM128 327q-2 -2 -3 -2q-1 -17 0 -34.5t1 -22.5v10v10v-10q4 -98 4 -195.5t-2 -194.5q-1 -2 -3 -1.5t-2 2.5v29.5t-1 29.5v-13q-2 72 -2 143t-1 143q0 12 -1 28.5t-1.5 34t0.5 33.5
t5 28q1 2 3 2t2 -3q1 -4 1 -8v-9z" />
    <glyph glyph-name="sterling" unicode="&#xa3;" horiz-adv-x="519" 
d="M154 135q-20 -2 -27 -6l1 1q-2 -2 -3.5 0t0.5 4q7 6 32 9q17 50 38 92.5t51 59.5q21 11 36.5 21.5t30.5 15.5t30.5 4t36.5 -12q8 -4 13 -14.5t4 -18.5q-2 -16 -12 -25.5t-14 -24.5q-1 -2 -3 -1.5t-2 2.5q2 8 7.5 16t10 15t7 13.5t-1.5 12.5q-17 26 -33 29.5t-41 -7.5
q9 2 17 3t13 3q3 2 4 -0.5t-2 -4.5q-6 -5 -13 -6.5t-14 -3.5t-14.5 -5t-15.5 -10q-33 -27 -49.5 -66.5t-32.5 -84.5q26 1 50.5 0t35.5 -2q2 -1 2.5 -3t-2.5 -2q-10 0 -35 0.5t-54 -0.5l-6 -16l-6 -16q12 1 26 1t32 1q3 0 3 -1.5t-2 -3.5q-32 -5 -63 -6q-2 -4 -4 -10
q-5 -12 -16.5 -35t-25.5 -45q27 -18 52.5 -39.5t60.5 -28.5q29 -5 48 4t41 26q2 1 3.5 -0.5t-0.5 -3.5q-27 -21 -49 -29t-43 -5t-42.5 15t-48.5 30q-8 5 -14.5 10.5t-14.5 11.5q-9 -13 -18 -22t-17 -12q-4 -1 -8 -0.5t-9 0.5q-2 -2 -3.5 -3t-3.5 -3q-8 -5 -17.5 -8t-19 -2
t-17 5.5t-9.5 13.5h-2q0 1 -0.5 1t-0.5 1q-3 16 5.5 28t22 20t29 11.5t27.5 0.5q5 -2 10 -3t10 -3q0 1 0.5 1.5t0.5 2.5l1 1q2 7 4.5 13.5t5.5 12.5q7 19 15 42q-8 1 -15.5 1t-15.5 1h-1q-2 0 -2 3q2 2 3 2q9 1 17.5 1.5t16.5 0.5q2 8 4.5 14.5t4.5 14.5zM101 -3q2 4 5 8.5
t5 9.5q-2 1 -3.5 1.5t-3.5 1.5q-15 7 -33 5t-32 -13q-5 -5 -9 -11l-8 -12q-1 -1 -3 -4t-3 -5q3 0 3 -4q0 -14 10 -17t23.5 1.5t27 15t21.5 23.5zM103 -12q0 1 1 2q-8 -6 -12 -15q4 1 10 5v1q0 4 1 5v2zM153 44q-3 -7 -6 -13l-6 -12q5 9 10 18.5t10 20.5q-2 -2 -3 -5t-3 -5
t-2 -4zM224 252q-2 -2 -3.5 -3t-3.5 -3q1 -1 1 -3zM123 0q-2 -1 -4 -3q0 -1 -0.5 -1.5t-0.5 -2.5q1 2 2 3.5t3 3.5zM264 285q-1 -1 -3 -1v-2z" />
    <glyph glyph-name="currency" unicode="&#xa4;" horiz-adv-x="833" 
d="M136 122q-1 -1 -2 -1q8 -11 8.5 -25t-13.5 -25q-1 0 -1 -1q17 -9 17 -25q0 -2 -2.5 -2.5t-2.5 1.5q-2 6 -7.5 11.5l-10.5 10.5q-15 -9 -29.5 -6.5t-25.5 11.5q-7 -5 -15 -10t-9 -13q-1 -2 -3 -1.5t-2 2.5q-2 11 7.5 16.5t17.5 10.5q-9 10 -11 23t8 24q-6 5 -9.5 11.5
t-8.5 14.5q0 3 1 4q2 0 3 -1v1q5 -5 9.5 -12t9.5 -13q7 6 16 8q14 8 27.5 4t22.5 -15l1 1q7 9 18.5 15t16.5 8q2 2 4 0.5t0 -3.5q-6 -10 -18 -15.5t-18 -8.5h1zM123 79q13 10 9.5 24.5t-15.5 23.5q0 -2 -2 -2q-12 -1 -17 -7t-4.5 -14t6 -15.5t15.5 -10.5l1 1q4 2 4 -3z
M103 133v-2q0 -1 -1 -1h10zM65 118q-4 -6 -4 -9q0 1 1 2q0 1 0.5 1t0.5 1l2 2v3zM109 72q-3 0 -5 2v-1q0 -2 -1 -2q4 0 6 1zM61 96q2 -4 3.5 -7.5t4.5 -6.5q-5 7 -8 14zM85 97q-1 0 -1 1v2q-1 -2 -1 -4zM72 121h1v1z" />
    <glyph glyph-name="yen" unicode="&#xa5;" horiz-adv-x="317" 
d="M76 73q-2 0 -2.5 2t1.5 3q22 5 38 5q2 7 4 13t4 13v2l1 1v3h-33.5t-32.5 1q-3 0 -2.5 2.5t2.5 2.5q19 1 35 1.5t33 1.5q1 5 1.5 10t2.5 10l-3 9l-1 2t-1 7q-9 33 -12.5 67t-8.5 68q-11 6 -3 19l-2 12l-2 12q-3 0 -3 3q1 1 1 5v3l1 -1q2 2 3.5 1.5t1.5 -2.5q1 -3 1 -5.5
t1 -5.5q4 2 8 7.5t8.5 10.5t9.5 8t10 1q7 -3 9 -12t2 -20q1 -5 1.5 -9t0.5 -9q3 -16 3.5 -31.5t-1.5 -27.5q2 -13 3 -25t1 -23l3 -15q12 21 25.5 43.5t29 42t32.5 33.5t37 19q3 2 4 -0.5t-2 -4.5q-27 -8 -44.5 -30t-32.5 -45q-1 -1 -1 -2v1q0 -1 -1 -1h1l-1 -1q-1 -2 -2 -3
t-1 -2l-1 -2l-20 -28l-20 -28h1q2 -4 0.5 -15t-3.5 -27q1 2 3 1t2 -3q-1 -5 -1.5 -8.5t-1.5 -7.5h37.5t43.5 -1q2 -1 2.5 -3t-2.5 -2q-15 0 -36.5 -1t-45.5 -2q-2 -8 -3.5 -17t-3.5 -17q18 -2 37 -4.5t40 -4.5q2 -1 2.5 -3t-2.5 -2q-20 0 -40 1.5t-40 3.5q-5 -16 -9.5 -31.5
t-9.5 -31.5h1q2 -2 1 -3.5t-3 -1.5h-1q-3 -10 -6.5 -19.5t-6.5 -19.5q-2 -8 -1 -17t-5 -17q-5 -5 -8 -5h-11q-4 0 -7 4q-8 35 2.5 72t22.5 72q-9 0 -17.5 -0.5t-16.5 -1.5zM102 -63l17 56l-6 -15q-3 -11 -6 -19.5t-7 -15.5q-2 -2 -4 -1.5t-3 2.5q0 -5 1 -7h8zM131 324
q0 -5 1 -9q0 4 0.5 7.5t0.5 6.5t-2 7q-2 -6 -3 -8q2 -2 3 -4zM106 328l-2 -2v-2q2 2 3.5 4.5t3.5 4.5q1 2 1 3t1 3q-3 -3 -7 -5v-6zM111 57q1 4 1.5 8t2.5 8v2h-1q-2 -9 -4 -18.5t-4 -18.5q0 1 0.5 1.5t0.5 1.5q0 2 0.5 3t0.5 3q2 6 3 10zM108 307v7.5t1 8.5q-1 -2 -2 -3
t-2 -3q1 -2 1.5 -5t1.5 -5zM122 108q-2 -6 -3 -12t-3 -13h1q2 13 6 24zM136 158q-3 -5 -6 -7l1 -1l1 1q1 1 3 1l1 2v4zM132 138q-1 -2 -1 -2.5t-1 -2.5q2 2 3 4zM151 162q0 5 1 8l-2 -5q0 -2 1 -3zM148 175l2 4l-2 -1v-3zM202 241q0 1 1 2q-1 0 -1 -1v-1z" />
    <glyph glyph-name="brokenbar" unicode="&#xa6;" horiz-adv-x="138" 
d="M62 137q0 4 3 3q10 22 15 45.5t10 47.5t11.5 47t18.5 44q5 3 5 -2q-11 -22 -17 -46.5t-11 -49t-11 -48.5t-18 -45q-1 -1 -3 -1.5t-2 1.5v1h-1l1 2zM51 69q0 3 2.5 2.5t2.5 -3.5q2 -51 -6 -97.5t-30 -91.5q-5 -5 -5 2q19 45 26 92.5t10 95.5z" />
    <glyph glyph-name="section" unicode="&#xa7;" horiz-adv-x="229" 
d="M116 196q-2 -2 -4 0q-12 -5 -16 -12q4 -2 2 -4l-7 -10.5t-5 -8.5q-7 -28 4 -47q15 -26 29 -39t25 -25t18.5 -28.5t9.5 -48.5q2 -19 -5 -34q-3 -7 -10 -11.5t-16 -8.5l-2 -2t-3 -2q-1 0 -3 2q-20 -5 -43 -2t-40.5 16t-23.5 36t9 59q5 3 5 -2q-15 -36 -6.5 -62t50.5 -37
q11 -3 27 -2t29 6q2 7 0 18.5t-5.5 23t-7 21t-5.5 12.5l-6 9q-22 25 -32 51q-14 26 -19 51t15 52q2 3 3.5 6l3.5 7q4 7 11 13.5t14 8.5q-11 14 -18 27.5t-4 28.5q5 21 17 42.5t37 26.5q7 1 18 -1.5t20 -8.5t13.5 -14.5t-0.5 -18.5q-5 -5 -5 2q6 15 -10 25t-37 4
q-7 -6 -11.5 -20t-2.5 -25q1 -7 5.5 -12t7.5 -11q15 -23 27.5 -50t8.5 -56q-2 -8 -3.5 -24t-7.5 -29q-4 -15 -21 -26q-3 0 -3 2t-1 2q0 6 4 2q1 1 1.5 1t1.5 1h-2q-2 0 -2.5 2t1.5 3q6 0 11 9q5 14 2.5 33t-7.5 33l-1 1q-2 0 -3 1q-5 5 -10 13t-10 19v1h-1q-2 3 -5 6t-5 6
q-1 0 -1 -1zM106 280q2 3 3.5 6t3.5 6v5q-6 -7 -9 -17h1h1zM135 236q2 -4 5 -7.5t6 -7.5q-4 7 -7.5 13t-6.5 12q2 -4 3 -7v-1v-2zM146 -69q2 1 3 2t3 2q0 1 -2 3h-3q0 -2 -0.5 -3.5t-0.5 -3.5zM87 86q-2 3 -2.5 6.5t-2.5 6.5q1 -4 1 -7t2 -6h2zM75 130q-1 -2 -1 -9q2 0 2 -1
h2q-3 4 -3 10zM124 63q-8 8 -11 10q1 -1 2 -2.5t3 -3.5q2 -1 3 -2t3 -2zM133 312q-1 -1 -1.5 -1t-1.5 -1t-2 -5l1 -1q0 2 1 3q1 2 1.5 2.5t1.5 2.5zM153 -64q1 2 2 3t2 3q-1 -1 -4 -1v-5zM135 -4l2 -4l2 -4q0 5 -1 6t-1.5 1t-1.5 1zM122 281q0 1 2 11q-1 -2 -1 -3t-1 -1v-7z
M159 -50q1 4 1 6t1 7q-1 -2 -1 -4.5t-1 -4.5v-4zM162 -31q0 2 -0.5 2t-0.5 1v-5q0 2 1 2zM127 256v-2l1 1zM128 255q0 -1 0.5 -2t0.5 -2v1q-1 1 -1 3z" />
    <glyph glyph-name="dieresis" unicode="&#xa8;" horiz-adv-x="266" 
d="M123 372q1 2 3.5 3t4.5 3q7 7 13.5 9.5t13.5 -4.5q7 -3 7 -10q4 -11 -2 -22t-17 -18q-5 -6 -13 -6q-9 -3 -16 -2.5t-9.5 5.5t0.5 15t15 27zM194 354q-3 14 12 26q6 6 11 7q9 5 19 4q2 -2 2 -1.5t2 -2.5q1 -4 1 -9v-10q2 -5 -1 -12.5t-8 -14.5l-7 -7t-7 -5t-8.5 -3.5
t-7.5 0.5q-2 0 -2 1q-2 0 -5 5q-6 7 -1 22zM218 359q-1 0 -1 -1z" />
    <glyph glyph-name="copyright" unicode="&#xa9;" horiz-adv-x="347" 
d="M78 189q6 12 16 22.5t21 15.5l37 14q27 21 49.5 21t40.5 -16t31.5 -45.5t22.5 -67.5q5 -24 0.5 -47.5t-16 -45t-27.5 -40t-34 -32.5q-14 -11 -32 -21t-36 -8q-51 7 -75 34t-29.5 63.5t4.5 77t27 75.5zM163 245q3 2 4 -0.5t-2 -4.5q-6 -4 -16 -5l-10 -12t-10 -11
q-2 -2 -4 -0.5t0 3.5l17 17q-6 -2 -12.5 -4.5t-11.5 -6.5q-27 -18 -44 -54.5t-20.5 -76.5t8.5 -76.5t44 -54.5q11 -5 23 -6.5t23 -3.5q9 -2 20.5 2t22.5 11t20.5 15t15.5 14q14 17 25 33t18.5 32.5t10.5 35t1 41.5q-2 25 -10 49.5t-22.5 42.5t-36 25.5t-49.5 -1.5
q-5 -1 -10 -6zM182 172q0 6 5 3q0 -1 0.5 -1.5t0.5 -1.5q1 1 1 1.5t1 1.5h1q2 2 3.5 0.5t0.5 -3.5q5 2 11.5 4.5t14.5 6.5q5 2 6 -2t-2 -7q-8 -5 -13.5 -14t-9 -18.5t-4.5 -18t0 -12.5h1q5 0 6 1q0 1 1 2t3 1q3 1 7 5q2 1 3.5 -0.5t-0.5 -3.5q-10 -10 -13 -11q-9 -9 -13 -1
q-10 4 -12 21.5t2 33.5q-2 -2 -4 -2.5t-4 -1.5q2 1 2.5 -1t-1.5 -4q-12 -6 -17 -21.5t-3.5 -33t9 -32.5t20.5 -20q4 2 7 4l6 4q2 1 3.5 -0.5t-0.5 -3.5q-6 -5 -10 -6q0 -1 -1 -1q-5 -4 -12.5 -5.5t-14.5 0.5q-28 7 -34.5 23t-2.5 45q4 33 20.5 44t39.5 20l-2 2t-2 3zM174 40
q-5 0 -8 3q-1 -1 -3 -1q-1 0 -3 2q-6 2 -13 9q-11 8 -14 25q1 -20 12.5 -30t28.5 -8zM149 132q1 1 3 1q5 12 14 18q-18 -10 -25 -29q1 0 1 0.5t1 0.5l2 4t3 5h1zM195 164q-6 -2 -5 -2v-3q2 3 7 5h-2zM199 165q-1 0 -1 -1z" />
    </font>
</defs>
</svg>
