<?xml version="1.0" standalone="no"?>
<!DOCTYPE svg PUBLIC "-//W3C//DTD SVG 1.1//EN" "http://www.w3.org/Graphics/SVG/1.1/DTD/svg11.dtd" >
<svg xmlns="http://www.w3.org/2000/svg" xmlns:xlink="http://www.w3.org/1999/xlink" version="1.1">
<metadata>
Created by FontForge 20170731 at Fri May 17 01:44:23 2013
 By Aleksey,,,
Copyright (c) 2012 by Doan BC doanbc1502@gmail.com. All rights reserved.
</metadata>
<defs>
<font id="UVVMuseo-Book500" horiz-adv-x="1137" >
  <font-face 
    font-family="UVV Museo"
    font-weight="400"
    font-stretch="normal"
    units-per-em="2048"
    panose-1="2 0 5 3 0 0 0 2 0 4"
    ascent="1638"
    descent="-410"
    x-height="1036"
    cap-height="1446"
    bbox="-268 -471 2228 2261"
    underline-thickness="50"
    underline-position="-150"
    unicode-range="U+0020-FB04"
  />
<missing-glyph horiz-adv-x="1044" 
d="M10 0v1434h1024v-1434h-1024zM522 809l348 522h-696zM584 717l348 -522v1044zM113 195l348 522l-348 522v-1044zM174 102h696l-348 523z" />
    <glyph glyph-name=".notdef" horiz-adv-x="1044" 
d="M10 0v1434h1024v-1434h-1024zM522 809l348 522h-696zM584 717l348 -522v1044zM113 195l348 522l-348 522v-1044zM174 102h696l-348 523z" />
    <glyph glyph-name=".null" horiz-adv-x="1024" 
 />
    <glyph glyph-name=".null" horiz-adv-x="1024" 
 />
    <glyph glyph-name="nonmarkingreturn" horiz-adv-x="682" 
 />
    <glyph glyph-name="glyph346" unicode=" " horiz-adv-x="522" 
 />
    <glyph glyph-name="exclam" unicode="!" horiz-adv-x="506" 
d="M164 397l-14 1049h204l-12 -1049h-178zM152 0v201h204v-201h-204z" />
    <glyph glyph-name="quotedbl" unicode="&#x22;" horiz-adv-x="705" 
d="M418 1036v434h155v-434h-155zM131 1036v434h156v-434h-156z" />
    <glyph glyph-name="numbersign" unicode="#" horiz-adv-x="1468" 
d="M285 0l69 391h-268l25 152h268l61 344h-266l25 149h266l72 410h165l-71 -410h317l72 410h168l-72 -410h266l-24 -149h-268l-62 -344h266l-24 -152h-266l-68 -391h-168l70 391h-318l-69 -391h-166zM545 543h317l62 344h-318z" />
    <glyph glyph-name="dollar" unicode="$" horiz-adv-x="1112" 
d="M86 197l111 145q6 -6 18 -16.5t51 -38t80 -48t100.5 -37t118.5 -16.5q109 0 181.5 58.5t72.5 154.5q0 78 -72.5 133.5t-177 94.5t-209 86t-177 134t-72.5 210q0 143 105.5 247.5t275.5 129.5v223h145v-221q102 -9 189 -43.5t124 -65.5l37 -33l-88 -157q-16 14 -44 34.5
t-110.5 55.5t-162.5 35q-119 0 -193 -56.5t-74 -144.5q0 -70 52.5 -123t131.5 -83t171 -70t171 -79.5t131 -115.5t52 -178q0 -156 -105.5 -268.5t-281.5 -133.5v-219h-145v219q-74 8 -142.5 29.5t-115 47.5t-81 51.5t-51.5 41.5z" />
    <glyph glyph-name="percent" unicode="%" horiz-adv-x="1536" 
d="M88 1167q0 125 90 214t219 89t220.5 -89t91.5 -214t-91.5 -214t-220.5 -89t-219 88t-90 215zM119 0l1106 1446h192l-1106 -1446h-192zM549 1167q0 64 -44 109t-107.5 45t-107.5 -45t-44 -109q0 -65 43 -108t108.5 -43t108.5 43t43 108zM829 279q0 124 91.5 213.5
t220.5 89.5q127 0 218 -89.5t91 -214t-91 -214t-218 -89.5q-131 0 -221.5 88.5t-90.5 215.5zM989 279q0 -66 44 -109t107.5 -43t107.5 44t44 107.5t-44 108.5t-107.5 45t-107.5 -45t-44 -108z" />
    <glyph glyph-name="ampersand" unicode="&#x26;" horiz-adv-x="1382" 
d="M100 403q0 127 71 230.5t191 142.5v4q-8 2 -21 8.5t-48 31t-61.5 57t-48 92t-21.5 129.5q0 174 129 273t334 99q39 0 84 -6t69 -10l27 -6l-51 -162q-60 12 -109 12q-121 0 -198.5 -59t-77.5 -162q0 -41 11 -76.5t37.5 -72.5t83 -59.5t136.5 -22.5h307v201h199v-201h190
v-168h-190v-197q0 -239 -139.5 -372.5t-378.5 -133.5q-234 0 -379.5 122t-145.5 306zM307 420q0 -115 86 -188.5t232 -73.5q149 0 234 83t85 248v189h-317q-154 0 -237 -68.5t-83 -189.5z" />
    <glyph glyph-name="quotesingle" unicode="'" horiz-adv-x="420" 
d="M131 1036v434h158v-434h-158z" />
    <glyph glyph-name="parenleft" unicode="(" horiz-adv-x="643" 
d="M379 -195q-238 396 -238 891q0 430 238 809h174q-231 -387 -231 -811q0 -475 231 -889h-174z" />
    <glyph glyph-name="parenright" unicode=")" horiz-adv-x="643" 
d="M90 -195q232 420 232 889q0 424 -232 811h174q238 -379 238 -809q0 -495 -238 -891h-174z" />
    <glyph glyph-name="asterisk" unicode="*" horiz-adv-x="981" 
d="M330 674l-148 106l183 226v4l-281 75l55 172l273 -102l-17 291h187l-17 -291l275 102l57 -172l-283 -75v-4l183 -226l-148 -106l-157 241h-5z" />
    <glyph glyph-name="plus" unicode="+" horiz-adv-x="1255" 
d="M86 504v160h459v503h168v-503h456v-160h-456v-504h-168v504h-459z" />
    <glyph glyph-name="comma" unicode="," horiz-adv-x="535" 
d="M41 -254l143 469h209l-194 -469h-158z" />
    <glyph glyph-name="hyphen" unicode="-" horiz-adv-x="975" 
d="M188 496v176h598v-176h-598z" />
    <glyph glyph-name="period" unicode="." horiz-adv-x="524" 
d="M156 0v215h213v-215h-213z" />
    <glyph glyph-name="slash" unicode="/" horiz-adv-x="868" 
d="M84 -86l522 1610h176l-522 -1610h-176z" />
    <glyph glyph-name="zero" unicode="0" horiz-adv-x="1270" 
d="M635 -25q-512 0 -512 750q0 745 512 745q139 0 241.5 -57t160 -160.5t84 -233.5t26.5 -294t-26.5 -295t-84 -235.5t-160 -162t-241.5 -57.5zM938 725q0 565 -303 565t-303 -565q0 -567 303 -567t303 567z" />
    <glyph glyph-name="one" unicode="1" horiz-adv-x="981" 
d="M104 0v168h320v942l2 88h-4q-16 -31 -70 -82l-135 -133l-123 127l346 336h181v-1278h315v-168h-832z" />
    <glyph glyph-name="two" unicode="2" horiz-adv-x="1200" 
d="M111 0q-11 66 -11 111q0 104 40 194t103.5 154.5t139.5 123t152.5 109.5t140 102.5t103.5 116t40 136.5q0 110 -71.5 176.5t-188.5 66.5q-84 0 -158.5 -48t-107.5 -95l-33 -49l-143 98q6 10 16 29.5t51 66.5t88 83t129 65.5t174 29.5q201 0 329 -114.5t128 -300.5
q0 -94 -39 -176t-101.5 -142.5t-138 -116t-151.5 -105.5t-138.5 -100t-102 -113.5t-39.5 -133.5h589v192h179v-360h-979z" />
    <glyph glyph-name="three" unicode="3" horiz-adv-x="1167" 
d="M141 1094v352h883v-141l-383 -451q160 -16 285 -119.5t125 -294.5q0 -192 -138.5 -328.5t-357.5 -136.5q-84 0 -163 20.5t-132 49.5t-94 57.5t-60 49.5l-20 20l107 145l17 -17t47 -39t75 -48t97 -37.5t116 -17.5q123 0 210 77.5t87 196.5q0 125 -91.5 196.5t-228.5 71.5
q-65 0 -86 -4l-47 107l352 424q11 12 24 25.5t21 21.5l11 6v4q-45 -6 -74 -6h-404v-184h-178z" />
    <glyph glyph-name="four" unicode="4" horiz-adv-x="1227" 
d="M53 387v127l670 932h229v-895h197v-164h-197v-387h-198v387h-701zM705 1133l-431 -578v-4h480v567l10 111h-6q-23 -51 -53 -96z" />
    <glyph glyph-name="five" unicode="5" horiz-adv-x="1155" 
d="M86 162l107 143q14 -16 39.5 -40.5t111.5 -65.5t178 -41q137 0 231.5 86t94.5 209q0 135 -90 217t-238 82q-67 0 -130.5 -18.5t-94.5 -37.5l-29 -18l-119 43l72 725h748v-352h-179v184h-393l-37 -346l-10 -58h4q80 46 205 46q221 0 360.5 -131.5t139.5 -327.5
q0 -205 -149.5 -345.5t-375.5 -140.5q-81 0 -157 19.5t-126 46.5t-89 54.5t-58 47.5z" />
    <glyph glyph-name="six" unicode="6" horiz-adv-x="1223" 
d="M655 -25q-237 0 -388.5 186.5t-151.5 489.5q0 150 40 291t116.5 261t206.5 193.5t294 73.5q74 0 142.5 -14t101.5 -31l33 -14l-64 -170q-92 49 -209 49q-186 0 -297.5 -144.5t-138.5 -346.5h4q47 61 137 99t191 38q200 0 329 -136t129 -337q0 -213 -135 -350.5
t-340 -137.5zM328 545q0 -137 94 -262t231 -125q125 0 198 85t73 220t-82 219t-228 84q-118 0 -202 -66.5t-84 -154.5z" />
    <glyph glyph-name="seven" unicode="7" horiz-adv-x="1112" 
d="M211 0l598 1208q10 21 21.5 39.5t17.5 26.5l6 6v4q-37 -6 -84 -6h-510v-184h-178v352h991v-139l-653 -1307h-209z" />
    <glyph glyph-name="eight" unicode="8" horiz-adv-x="1229" 
d="M111 408q0 229 233 393q-176 117 -176 291q0 155 117.5 266.5t332.5 111.5q205 0 332 -104t127 -276q0 -91 -41 -183t-71.5 -130t-59.5 -66q207 -121 207 -314q0 -172 -138 -297t-358 -125q-217 0 -361 123t-144 310zM369 1090q0 -35 10 -65t33.5 -55.5t45 -43t64.5 -40
t68.5 -33.5t82 -34.5t81.5 -34.5q125 148 125 283q0 107 -71 167t-190 60q-116 0 -182.5 -58t-66.5 -146zM315 428q0 -121 88.5 -197.5t210.5 -76.5q117 0 204 69.5t87 173.5q0 41 -17.5 76t-39 58.5t-69.5 50t-81.5 42t-102.5 45t-108 46.5q-172 -129 -172 -287z" />
    <glyph glyph-name="nine" unicode="9" horiz-adv-x="1223" 
d="M92 985q0 213 135 349t342 136q238 0 388.5 -187t150.5 -488q0 -148 -40 -289t-117 -262t-207 -195t-293 -74q-74 0 -143.5 14.5t-102.5 30.5l-33 15l64 172q92 -49 210 -49q189 0 300.5 144t138.5 347h-4q-47 -59 -138.5 -95t-191.5 -36q-201 0 -330 134t-129 333z
M301 985q0 -131 81 -214t222 -83q119 0 205 65.5t86 153.5q0 137 -96.5 260t-229.5 123q-123 0 -195.5 -86t-72.5 -219z" />
    <glyph glyph-name="colon" unicode=":" horiz-adv-x="610" 
d="M199 0v215h213v-215h-213zM199 821v215h213v-215h-213z" />
    <glyph glyph-name="semicolon" unicode=";" horiz-adv-x="612" 
d="M209 821v215h209v-215h-209zM88 -254l125 469h209l-174 -469h-160z" />
    <glyph glyph-name="less" unicode="&#x3c;" horiz-adv-x="1255" 
d="M119 516v135l954 426v-182l-731 -309v-4l731 -310v-182z" />
    <glyph glyph-name="equal" unicode="=" horiz-adv-x="1255" 
d="M139 696v160h977v-160h-977zM139 309v160h977v-160h-977z" />
    <glyph glyph-name="greater" unicode="&#x3e;" horiz-adv-x="1255" 
d="M180 90v182l733 310v4l-733 309v182l957 -426v-135z" />
    <glyph glyph-name="question" unicode="?" horiz-adv-x="961" 
d="M303 397v97q0 86 36 156.5t87 119.5t102.5 94t87 101.5t35.5 119.5q0 86 -66.5 144.5t-166.5 58.5q-58 0 -116 -21.5t-89 -41.5l-29 -23l-110 141q14 15 42.5 36.5t123 58.5t192.5 37q178 0 303 -104.5t125 -270.5q0 -94 -37 -169t-90 -125t-107.5 -96t-91 -103.5
t-36.5 -125.5v-84h-195zM297 0v201h207v-201h-207z" />
    <glyph glyph-name="at" unicode="@" horiz-adv-x="1612" 
d="M862 1251q250 0 378 -119.5t128 -295.5v-580h148v-150h-560q-186 0 -305 114t-119 274q0 157 118 270t306 113h222q-2 88 -90.5 149t-231.5 61q-244 0 -406.5 -175t-162.5 -420.5t163.5 -415.5t417.5 -170v-162q-340 0 -560 216t-220 535.5t218 537.5t556 218zM733 494
q0 -99 68.5 -168.5t171.5 -69.5h205v483h-201q-107 0 -175.5 -71.5t-68.5 -173.5z" />
    <glyph glyph-name="A" unicode="A" horiz-adv-x="1477" 
d="M23 0v160h139l461 1286h231l461 -1286h139v-160h-502v160h154l-113 321h-512l-112 -321h155v-160h-501zM532 645h410l-176 502q-8 27 -14.5 54.5t-8.5 41.5l-2 14h-6q-6 -51 -24 -110z" />
    <glyph glyph-name="B" unicode="B" horiz-adv-x="1393" 
d="M109 0v160h180v1128h-180v158h657q160 0 254 -43q88 -39 143.5 -126t55.5 -200q0 -104 -48.5 -186t-134.5 -125v-4q115 -33 177.5 -128t62.5 -222q0 -140 -75 -243t-191 -142q-82 -27 -217 -27h-684zM494 838h303q98 0 155.5 61.5t57.5 159.5q0 137 -95 190
q-57 29 -149 29h-272v-440zM494 168h307q80 0 129 20q63 27 100 89.5t37 144.5q0 113 -68.5 180.5t-181.5 67.5h-323v-502z" />
    <glyph glyph-name="C" unicode="C" horiz-adv-x="1524" 
d="M100 731q0 318 212 528.5t528 210.5q73 0 160 -14t178.5 -44t152 -90t60.5 -138v-176h-191v112q0 60 -62.5 101t-138 57t-151.5 16q-234 0 -385.5 -155.5t-151.5 -399.5q0 -256 156 -420.5t393 -164.5q66 0 141.5 13t147.5 54t72 103v112h190v-176q0 -76 -58.5 -134
t-149.5 -89t-182 -46.5t-173 -15.5q-324 0 -536 218.5t-212 537.5z" />
    <glyph glyph-name="D" unicode="D" horiz-adv-x="1595" 
d="M109 0v160h180v1128h-180v158h616q190 0 307 -35q211 -65 334 -246.5t123 -441.5t-121 -438.5t-336 -245.5q-119 -39 -305 -39h-618zM494 168h221q151 0 246 37q147 51 231 186t84 332t-83 333t-230 189q-93 33 -248 33h-221v-1110z" />
    <glyph glyph-name="E" unicode="E" horiz-adv-x="1294" 
d="M109 0v160h180v1128h-180v158h1046v-336h-178v168h-483v-465h512v-168h-512v-477h518v174h178v-342h-1081z" />
    <glyph glyph-name="F" unicode="F" horiz-adv-x="1182" 
d="M109 0v160h180v1128h-180v158h1001v-342h-178v166h-438v-479h499v-168h-499v-463h196v-160h-581z" />
    <glyph glyph-name="G" unicode="G" horiz-adv-x="1569" 
d="M858 1470q131 0 256 -31.5t212 -99t87 -153.5v-178h-188v106q0 84 -109.5 132t-251.5 48q-252 0 -401.5 -154.5t-149.5 -406.5q0 -254 152.5 -416.5t404.5 -162.5q78 0 160 14t154.5 57t72.5 109v190h-282v160h471v-405q0 -80 -60.5 -141.5t-154.5 -95.5t-190.5 -50.5
t-184.5 -16.5q-332 0 -544 214t-212 538t211 533.5t547 209.5z" />
    <glyph glyph-name="H" unicode="H" horiz-adv-x="1737" 
d="M109 0v160h180v1128h-180v158h567v-158h-182v-481h749v481h-182v158h567v-158h-180v-1128h180v-160h-567v160h182v479h-749v-479h182v-160h-567z" />
    <glyph glyph-name="I" unicode="I" horiz-adv-x="782" 
d="M109 0v160h180v1128h-180v158h567v-158h-182v-1128h182v-160h-567z" />
    <glyph glyph-name="J" unicode="J" 
d="M49 403v84h199v-63q0 -115 55 -190.5t168 -75.5q96 0 157.5 64.5t61.5 201.5v864h-209v158h576v-158h-162v-876q0 -217 -126 -327t-300 -110t-297 106.5t-123 321.5z" />
    <glyph glyph-name="K" unicode="K" horiz-adv-x="1417" 
d="M109 0v160h180v1128h-180v158h542v-158h-157v-454h186l315 454h-133v158h490v-158h-140l-374 -522v-4q41 -19 82 -96l260 -453q30 -53 102 -53h68v-160h-146q-86 0 -126 22.5t-74 86.5l-279 499q-35 58 -113 58h-118v-506h178v-160h-563z" />
    <glyph glyph-name="L" unicode="L" horiz-adv-x="1237" 
d="M111 0v160h180v1118h-180v168h567v-168h-182v-1110h503v233h181v-401h-1069z" />
    <glyph glyph-name="M" unicode="M" horiz-adv-x="1962" 
d="M78 0v160h180l92 1128h-184v158h409l371 -881l33 -104h4q10 45 33 104l370 881h410v-158h-184l92 -1128h180v-160h-557v160h174l-65 864l6 119h-6q-17 -70 -33 -111l-332 -760h-180l-332 760l-33 111h-6l6 -119l-65 -864h174v-160h-557z" />
    <glyph glyph-name="N" unicode="N" horiz-adv-x="1716" 
d="M109 0v160h180v1128h-180v158h383l710 -1036l49 -105h6q-10 72 -10 117v866h-184v158h571v-158h-182v-1288h-201l-710 1036q-13 19 -25 44.5t-18 41.5l-6 19h-7l9 -117v-864h186v-160h-571z" />
    <glyph glyph-name="O" unicode="O" horiz-adv-x="1683" 
d="M98 733q0 311 214 524t530 213q313 0 528 -213t215 -524q0 -319 -215 -538.5t-528 -219.5q-316 0 -530 219.5t-214 538.5zM309 733q0 -244 154.5 -409.5t378.5 -165.5q221 0 375.5 165.5t154.5 409.5q0 236 -154.5 396.5t-375.5 160.5q-224 0 -378.5 -160.5
t-154.5 -396.5z" />
    <glyph glyph-name="P" unicode="P" horiz-adv-x="1337" 
d="M109 0v160h180v1128h-180v158h673q162 0 248 -39q113 -47 179.5 -156.5t66.5 -253.5q0 -151 -74 -266t-198 -158q-84 -30 -218 -30h-292v-383h182v-160h-567zM494 711h268q92 0 162 28q145 66 145 258q0 179 -129 246q-63 35 -176 35h-270v-567z" />
    <glyph glyph-name="Q" unicode="Q" horiz-adv-x="1690" 
d="M100 731q0 313 213 526t530.5 213t531.5 -207.5t214 -521.5q0 -280 -174 -487l172 -164l-117 -127l-170 170q-192 -158 -458 -158q-314 0 -528 219.5t-214 536.5zM311 731q0 -242 153.5 -407.5t379.5 -165.5q188 0 315 108l-213 211l117 125l211 -213q108 156 108 344
q0 236 -155.5 396.5t-382.5 160.5q-226 0 -379.5 -159.5t-153.5 -399.5z" />
    <glyph glyph-name="R" unicode="R" horiz-adv-x="1438" 
d="M109 0v160h180v1128h-180v158h626q174 0 266 -31q117 -39 184.5 -135t67.5 -240q0 -155 -79.5 -262.5t-219.5 -142.5v-4q37 -21 62 -68l205 -356q26 -47 100 -47h43v-160h-123q-90 0 -126 20.5t-75 88.5l-223 395q-29 47 -58.5 63.5t-92.5 16.5h-172v-424h178v-160h-563z
M494 752h290q119 0 191 72.5t72 199.5q0 172 -136 227q-67 27 -178 27h-239v-526z" />
    <glyph glyph-name="S" unicode="S" horiz-adv-x="1184" 
d="M109 434h188v-106q0 -78 85 -124t204 -46q129 0 207.5 58t78.5 163q0 131 -155 213q-47 22 -193 80q-90 35 -143 60.5t-116.5 72.5t-94.5 115.5t-31 160.5q0 193 132 291t331 98q176 0 307 -63.5t131 -175.5v-170h-190v100q0 60 -76 94.5t-172 34.5q-110 0 -182 -51
t-72 -147q0 -45 18.5 -82t40 -59.5t72.5 -49.5t79 -38t97 -38q84 -30 129 -49.5t111 -58.5t99.5 -78t59 -102.5t25.5 -141.5q0 -198 -141 -309t-352 -111q-187 0 -332 81t-145 227v151z" />
    <glyph glyph-name="T" unicode="T" horiz-adv-x="1360" 
d="M395 0v160h183v1118h-340v-225h-179v393h1241v-393h-178v225h-340v-1118h183v-160h-570z" />
    <glyph glyph-name="U" unicode="U" horiz-adv-x="1632" 
d="M246 539v749h-183v158h570v-158h-182v-747q0 -148 55 -236q92 -147 311 -147t311 151q56 94 56 234v745h-183v158h568v-158h-180v-749q0 -209 -101 -353q-71 -102 -196 -156.5t-275 -54.5q-153 0 -277 55.5t-198 155.5q-96 131 -96 353z" />
    <glyph glyph-name="V" unicode="V" horiz-adv-x="1462" 
d="M623 0l-457 1288h-141v158h516v-158h-160l324 -952l24 -113h6q8 62 25 113l323 952h-159v158h516v-158h-144l-456 -1288h-217z" />
    <glyph glyph-name="W" unicode="W" horiz-adv-x="2066" 
d="M33 1288v158h514v-158h-172l225 -948l16 -109h7q8 58 20 109l303 1106h174l301 -1106l21 -109h8q4 58 14 109l226 948h-172v158h516v-158h-140l-323 -1288h-234l-282 1026l-19 115h-8q-4 -64 -18 -115l-283 -1026h-233l-322 1288h-139z" />
    <glyph glyph-name="X" unicode="X" horiz-adv-x="1370" 
d="M61 0v160h136l372 571l-366 557h-133v158h503v-158h-153l239 -379l37 -57h4q13 27 35 57l232 379h-150v158h490v-158h-136l-374 -575l368 -553h138v-160h-504v160h151l-241 377l-37 59h-4l-4 -6q-5 -8 -13 -23.5t-16 -29.5l-234 -377h152v-160h-492z" />
    <glyph glyph-name="Y" unicode="Y" horiz-adv-x="1331" 
d="M381 0v160h182v452l-405 676h-138v158h498v-158h-151l268 -454l29 -62h4q12 31 30 62l269 454h-150v158h494v-158h-137l-406 -676v-452h182v-160h-569z" />
    <glyph glyph-name="Z" unicode="Z" horiz-adv-x="1294" 
d="M111 0v135l745 1075l59 70v4q-41 -6 -81 -6h-535v-225h-178v393h1042v-133l-745 -1077l-60 -70v-4q41 6 82 6h566v233h178v-401h-1073z" />
    <glyph glyph-name="bracketleft" unicode="[" horiz-adv-x="637" 
d="M199 -195v1700h338v-149h-164v-1399h164v-152h-338z" />
    <glyph glyph-name="backslash" unicode="\" horiz-adv-x="866" 
d="M608 -86l-522 1610h176l520 -1610h-174z" />
    <glyph glyph-name="bracketright" unicode="]" horiz-adv-x="639" 
d="M100 -43h166v1399h-166v149h340v-1700h-340v152z" />
    <glyph glyph-name="asciicircum" unicode="^" horiz-adv-x="1255" 
d="M141 506l410 940h129l410 -940h-181l-295 721l-292 -721h-181z" />
    <glyph glyph-name="underscore" unicode="_" horiz-adv-x="1141" 
d="M20 0h1100v-160h-1100v160z" />
    <glyph glyph-name="grave" unicode="`" horiz-adv-x="1022" 
d="M575 1186l-253 260h229l211 -260h-187z" />
    <glyph glyph-name="a" unicode="a" 
d="M68 289q0 78 31.5 138t88 97t117 60.5t136 35t125.5 14.5t106 3h65v39q0 221 -221 221q-74 0 -147.5 -24.5t-110.5 -49.5l-39 -26l-80 141q6 4 17.5 13.5t51.5 29.5t82 36.5t108.5 30t133.5 13.5q199 0 301.5 -101.5t102.5 -297.5v-463q0 -45 45 -45h104v-154h-206
q-129 0 -129 113v14l8 68h-4q-4 -9 -11.5 -24t-37 -53t-64.5 -66.5t-97.5 -52.5t-131.5 -24q-142 0 -243 82t-101 232zM268 305q0 -74 50.5 -125t136.5 -51q125 0 204.5 104.5t79.5 231.5v43h-51q-420 0 -420 -203z" />
    <glyph glyph-name="b" unicode="b" horiz-adv-x="1247" 
d="M174 0v1292h-174v154h373v-479l-6 -86h4q4 8 11 19t37 43t64.5 55.5t94 43t127.5 19.5q208 0 332 -149.5t124 -393.5t-132 -393.5t-341 -149.5q-67 0 -125.5 19.5t-93.5 47.5t-61.5 55.5t-36.5 45.5l-11 21h-4q6 -37 6 -82v-82h-188zM367 514q0 -149 76.5 -258
t218.5 -109q126 0 211 99.5t85 269.5q0 168 -80.5 269.5t-211.5 101.5q-127 0 -213 -93.5t-86 -279.5z" />
    <glyph glyph-name="c" unicode="c" horiz-adv-x="1133" 
d="M82 516q0 236 157.5 390.5t391.5 154.5q63 0 128.5 -12.5t130 -38t105.5 -73.5t41 -112v-127h-176v72q0 55 -71.5 87t-151.5 32q-158 0 -255 -101.5t-97 -267.5q0 -172 104.5 -272.5t259.5 -100.5q80 0 161 33t103.5 49.5t67.5 51.5l76 -146q-174 -160 -416 -160
q-233 0 -396 148.5t-163 392.5z" />
    <glyph glyph-name="d" unicode="d" horiz-adv-x="1288" 
d="M86 518q0 246 130 394.5t341 148.5q66 0 123 -18.5t92 -43t59.5 -50t34.5 -44.5l11 -18h4q-7 33 -7 78v327h-172v154h371v-1247q0 -45 45 -45h105v-154h-207q-129 0 -129 113v14l6 55h-4q-4 -8 -11.5 -22.5t-36 -50t-64.5 -62.5t-100.5 -49.5t-137.5 -22.5
q-207 0 -330 149.5t-123 393.5zM289 518q0 -168 81 -269.5t212 -101.5q125 0 212 93.5t87 275.5q0 154 -77 262.5t-216 108.5q-129 0 -214 -98.5t-85 -270.5z" />
    <glyph glyph-name="e" unicode="e" 
d="M84 518q0 244 146.5 393.5t371.5 149.5q213 0 331 -137.5t118 -348.5l-7 -75h-757q8 -166 110.5 -259.5t247.5 -93.5q80 0 158 29t115 57l36 31l82 -145q-18 -17 -50 -40.5t-137.5 -63.5t-215.5 -40q-242 0 -395.5 155t-153.5 388zM295 627h551q-4 131 -75 203.5
t-173 72.5q-115 0 -199 -73.5t-104 -202.5z" />
    <glyph glyph-name="f" unicode="f" horiz-adv-x="768" 
d="M98 0v154h162v729h-172v153h172v51q0 117 39 197t103.5 115t118.5 48t112 13l94 -6v-164q-27 6 -74 6q-194 0 -194 -204v-56h250v-153h-250v-729h190v-154h-551z" />
    <glyph glyph-name="g" unicode="g" horiz-adv-x="1282" 
d="M248 -193q129 -69 284 -69q146 0 237 71.5t91 223.5v82l6 65h-4q-100 -168 -311 -168t-337 150.5t-126 380t122 374t333 144.5q108 0 201.5 -43t134.5 -127h4q-4 14 -4 41q0 104 118 104h222v-153h-115q-45 0 -45 -41v-799q0 -123 -44 -217t-120 -148.5t-166 -81
t-192 -26.5q-183 0 -355 86zM590 184q121 0 197.5 84t76.5 273q0 348 -293 348q-133 0 -206.5 -91t-73.5 -251q0 -164 81 -263.5t218 -99.5z" />
    <glyph glyph-name="h" unicode="h" horiz-adv-x="1380" 
d="M66 0v154h163v1138h-174v154h371v-537l-6 -86h4q41 90 143.5 164t243.5 74q356 0 356 -397v-510h162v-154h-360v618q0 125 -41 193t-156 68q-151 0 -248.5 -113t-97.5 -281v-331h164v-154h-524z" />
    <glyph glyph-name="i" unicode="i" horiz-adv-x="688" 
d="M256 1243v203h209v-203h-209zM98 0v154h162v729h-172v153h371v-882h164v-154h-525z" />
    <glyph glyph-name="j" unicode="j" horiz-adv-x="606" 
d="M229 1243v203h209v-203h-209zM-33 -256q19 -2 45.5 -2t52 4t57.5 18.5t55.5 39t39.5 68.5t16 103v908h-174v153h373v-1067q0 -98 -29.5 -173t-72.5 -114.5t-100.5 -64.5t-102.5 -32t-92 -7l-68 4v162z" />
    <glyph glyph-name="k" unicode="k" horiz-adv-x="1202" 
d="M66 0v154h163v1138h-174v154h371v-807h152l206 244h-135v153h471v-153h-137l-256 -299v-4q2 0 11.5 -5.5t27.5 -27t37 -51.5l176 -301q25 -41 90 -41h66v-154h-156q-72 0 -104.5 18.5t-65.5 77.5l-205 350q-24 41 -96 41h-82v-333h139v-154h-499z" />
    <glyph glyph-name="l" unicode="l" horiz-adv-x="600" 
d="M174 295v997h-172v154h371v-1139q0 -74 23.5 -110.5t86.5 -36.5l56 2l-2 -164q-41 -4 -88 -4q-275 0 -275 301z" />
    <glyph glyph-name="m" unicode="m" horiz-adv-x="2048" 
d="M98 0v154h162v686q0 43 -45 43h-127v153h234q131 0 131 -114v-54l-7 -59h5q41 98 145 175t223 77q252 0 303 -244h4q45 103 146.5 173.5t224.5 70.5q338 0 338 -397v-510h164v-154h-363v621q0 124 -37.5 192t-144.5 68q-139 0 -222 -120t-83 -284v-323h162v-154h-361v621
q0 122 -35.5 191t-144.5 69q-139 0 -225 -125t-86 -287v-315h164v-154h-525z" />
    <glyph glyph-name="n" unicode="n" horiz-adv-x="1411" 
d="M98 0v154h162v684q0 45 -45 45h-127v153h234q131 0 131 -114v-54l-7 -59h5q10 27 36.5 63.5t72.5 81.5t124 76t170 31q176 0 260 -98.5t84 -298.5v-510h164v-154h-363v618q0 125 -39.5 193t-154.5 68q-152 0 -249 -118t-97 -280v-327h164v-154h-525z" />
    <glyph glyph-name="o" unicode="o" horiz-adv-x="1282" 
d="M244 131q-162 156 -162 389q0 234 162 387q161 154 397 154q237 0 397 -154q162 -153 162 -387q0 -233 -163 -389q-164 -156 -396 -156q-234 0 -397 156zM285 520q0 -162 103 -268q103 -105 253 -105q148 0 251 106q105 106 105 267q0 160 -105 264q-104 105 -251 105
q-150 0 -253 -105q-103 -103 -103 -264z" />
    <glyph glyph-name="p" unicode="p" horiz-adv-x="1305" 
d="M70 -256h161v1094q0 45 -45 45h-127v153h230q127 0 127 -102v-8l-4 -60h4q4 8 11 21.5t36 46.5t64.5 58.5t99 47t137.5 21.5q207 0 331 -149.5t124 -393.5t-132.5 -393.5t-336.5 -149.5q-64 0 -120.5 18.5t-92 44t-61 51.5t-38.5 44l-10 19h-4q6 -37 6 -91v-317h164v-154
h-524v154zM426 514q0 -149 78 -258t215 -109q127 0 213 99.5t86 269.5q0 168 -82 269.5t-213 101.5q-127 0 -212 -93.5t-85 -279.5z" />
    <glyph glyph-name="q" unicode="q" horiz-adv-x="1247" 
d="M86 518q0 246 131 394.5t338 148.5q190 0 330 -180h4q-4 28 -4 71v84h188v-1292h162v-154h-522v154h161v326l7 90h-4q-5 -8 -12 -20.5t-35.5 -44.5t-63.5 -56.5t-95.5 -44t-127.5 -19.5q-209 0 -333 149.5t-124 393.5zM289 518q0 -168 81 -269.5t212 -101.5
q127 0 213 93.5t86 279.5q0 150 -77 259.5t-218 109.5q-127 0 -212 -100.5t-85 -270.5z" />
    <glyph glyph-name="r" unicode="r" horiz-adv-x="866" 
d="M102 0v154h156v684q0 45 -45 45h-129v153h233q134 0 134 -121v-65l-5 -72h5q36 119 123.5 195t203.5 76l51 -5v-196q-24 6 -57 6q-154 0 -234.5 -128t-80.5 -298v-274h153v-154h-508z" />
    <glyph glyph-name="s" unicode="s" horiz-adv-x="985" 
d="M82 223v111h174v-68q0 -61 71.5 -95t166.5 -34q90 0 149 35t59 98q0 66 -53 101t-176 78q-18 6 -29 10q-73 26 -117 47.5t-98.5 58.5t-81 89.5t-26.5 119.5q0 141 114.5 214t268.5 73q131 0 244.5 -53.5t113.5 -155.5v-125h-174v68q0 47 -53 76.5t-129 29.5
q-78 0 -131 -32.5t-53 -92.5q0 -35 17 -62.5t57 -50t73 -36t92 -33.5q76 -25 123 -45.5t104.5 -57t86 -90t28.5 -120.5q0 -144 -116.5 -225t-299.5 -81q-155 0 -280 67t-125 181z" />
    <glyph glyph-name="t" unicode="t" horiz-adv-x="737" 
d="M211 379v504h-174v153h178v285h195v-285h247v-153h-247v-486q0 -73 22.5 -124.5t60 -74t69.5 -30.5t69 -8l47 2v-166q-29 -4 -72 -4q-47 0 -92 6t-102.5 30.5t-99.5 64.5t-71.5 114t-29.5 172z" />
    <glyph glyph-name="u" unicode="u" horiz-adv-x="1362" 
d="M215 373v510h-174v153h373v-622q0 -125 40 -191.5t154 -66.5q150 0 243 120.5t93 282.5v324h-174v153h373v-839q0 -45 45 -45h108v-152h-215q-131 0 -131 115v45l4 61h-4q-10 -26 -35.5 -62t-71.5 -80t-122 -74t-166 -30q-340 0 -340 398z" />
    <glyph glyph-name="v" unicode="v" horiz-adv-x="1190" 
d="M18 883v153h465v-153h-133l219 -604l23 -97h6q6 51 23 97l221 604h-133v153h462v-153h-129l-335 -883h-224l-333 883h-132z" />
    <glyph glyph-name="w" unicode="w" horiz-adv-x="1753" 
d="M20 883v153h463v-153h-139l176 -602l17 -97h6q4 54 16 97l227 753h181l227 -753l16 -97h7q4 54 16 97l178 602h-141v153h463v-153h-129l-267 -883h-221l-219 692l-18 99h-5q-6 -52 -18 -99l-219 -692h-221l-266 883h-130z" />
    <glyph glyph-name="x" unicode="x" horiz-adv-x="1171" 
d="M76 0v154h155l248 381l-229 348h-168v153h291l184 -301l35 -67h4q16 34 37 67l188 301h275v-153h-158l-231 -346l256 -383h139v-154h-264l-209 336l-37 65h-4q-15 -32 -37 -67l-205 -334h-270z" />
    <glyph glyph-name="y" unicode="y" horiz-adv-x="1208" 
d="M131 -215q59 -49 148 -49q129 0 190 143l43 103l-362 901h-132v153h474v-153h-138l232 -617l18 -90h6q8 45 25 90l229 617h-133v153h459v-153h-129l-410 -1047q-51 -129 -146 -197.5t-218 -68.5q-60 0 -115 16.5t-82 32.5l-27 16z" />
    <glyph glyph-name="z" unicode="z" horiz-adv-x="1079" 
d="M98 131l572 692l57 60v4q-43 -4 -84 -4h-360v-166h-174v319h858v-131l-568 -692l-57 -57v-4q41 2 82 2h383v165h174v-319h-883v131z" />
    <glyph glyph-name="braceleft" unicode="{" horiz-adv-x="690" 
d="M242 158v196q0 60 -18.5 104t-43 65.5t-50.5 34.5t-44 15l-18 5v176q6 0 18 2t42 16t53.5 36.5t42 68t18.5 104.5v172q0 92 25.5 160.5t61.5 104.5t86 58.5t86 27.5t72 5l50 -2v-151h-29q-27 0 -51.5 -7.5t-56 -26.5t-51 -65.5t-19.5 -115.5v-211q0 -58 -17.5 -105
t-41 -74.5t-48 -47t-43.5 -27.5l-16 -6v-4q6 -2 17.5 -6.5t40 -25t50 -47t40 -74.5t18.5 -107v-236q0 -70 19.5 -116t51 -65.5t56 -26.5t51.5 -7h29v-152q-21 -4 -50 -4q-36 0 -72 5.5t-86 28t-86 58t-61.5 105.5t-25.5 162z" />
    <glyph glyph-name="bar" unicode="|" horiz-adv-x="563" 
d="M195 -326v1948h174v-1948h-174z" />
    <glyph glyph-name="braceright" unicode="}" horiz-adv-x="690" 
d="M70 -45h28q27 0 50.5 7t55.5 26.5t51 65.5t19 116v236q0 59 17.5 107t41 75.5t48.5 46t41 24.5l18 7v4q-6 2 -17 7t-40 25.5t-50.5 47t-40 74.5t-18.5 106v211q0 69 -19 115.5t-51 65.5t-55.5 26.5t-50.5 7.5h-28v151q18 2 47 2q37 0 72.5 -5t86 -27.5t86 -58.5
t61.5 -104.5t26 -160.5v-172q0 -59 18 -104.5t44 -68t50.5 -35.5t42.5 -15l19 -4v-176q-7 0 -19 -2.5t-42 -16.5t-53.5 -35.5t-41.5 -65.5t-18 -104v-196q0 -92 -26 -162t-61.5 -105.5t-86 -58t-86 -28t-72.5 -5.5l-47 4v152z" />
    <glyph glyph-name="asciitilde" unicode="~" horiz-adv-x="1247" 
d="M137 418q0 174 75 260t210 86q74 0 131 -32t88 -68.5t77 -68.5t97 -32q72 0 104.5 57.5t32.5 135.5h162q0 -174 -74.5 -260t-212.5 -86q-71 0 -129.5 30.5t-89 68.5t-77 68.5t-97.5 30.5q-72 0 -103.5 -57t-31.5 -133h-162z" />
    <glyph glyph-name="uni00A0" unicode="&#xa0;" horiz-adv-x="532" 
 />
    <glyph glyph-name="exclamdown" unicode="&#xa1;" horiz-adv-x="492" 
d="M141 836v200h207v-200h-207zM143 -410l13 1049h178l14 -1049h-205z" />
    <glyph glyph-name="cent" unicode="&#xa2;" horiz-adv-x="1135" 
d="M516 -27v177q-199 26 -315.5 187t-116.5 386q0 227 116.5 388t315.5 187v172h146v-172q133 -20 232 -103t153 -214l-181 -70q-90 203 -270 203q-145 0 -227 -109.5t-82 -281.5q0 -176 79.5 -282.5t229.5 -106.5q182 0 270 203l181 -72q-56 -125 -153 -213t-232 -102v-177
h-146z" />
    <glyph glyph-name="sterling" unicode="&#xa3;" horiz-adv-x="1257" 
d="M88 0v164h176v489h-139v144h139v278q0 170 126 282.5t319 112.5q92 0 177 -31.5t126 -62.5l39 -33l-113 -139q-102 84 -227 84q-111 0 -176.5 -63.5t-65.5 -157.5v-270h369v-144h-369v-485h522v233h178v-401h-1081z" />
    <glyph glyph-name="currency" unicode="&#xa4;" horiz-adv-x="1346" 
d="M1106 45l-154 152q-57 -47 -128.5 -73t-151.5 -26q-81 0 -152.5 26t-128.5 73l-151 -152l-66 66l152 151q-47 57 -73 128.5t-26 152.5q0 80 26 152.5t73 129.5l-152 150l66 65l151 -149q57 46 128.5 71t152.5 25q80 0 151.5 -25t128.5 -71l154 149l65 -65l-151 -150
q46 -57 71 -129.5t25 -152.5q0 -81 -25 -152.5t-71 -128.5l151 -151zM1018 543q0 72 -27 135t-74 110t-110 74t-135 27t-135.5 -27t-110 -74t-73.5 -110t-27 -135t27 -135.5t73.5 -110t110 -73.5t135.5 -27t135 27t110 73.5t74 110t27 135.5z" />
    <glyph glyph-name="yen" unicode="&#xa5;" horiz-adv-x="1298" 
d="M213 408v129h334v75l-55 99h-279v129h211l-338 606h231l242 -451l88 -209h4q43 113 88 209l244 451h231l-340 -606h209v-129h-276l-55 -99v-75h331v-129h-331v-408h-205v408h-334z" />
    <glyph glyph-name="brokenbar" unicode="&#xa6;" horiz-adv-x="672" 
d="M272 893v717h105v-717h-105zM272 -152v717h105v-717h-105z" />
    <glyph glyph-name="section" unicode="&#xa7;" horiz-adv-x="891" 
d="M281 227l-146 799q-10 39 -10 94q0 154 103.5 252t281.5 98q80 0 151.5 -26.5t104.5 -50.5l33 -27l-94 -131q-82 70 -195 70q-96 0 -156.5 -53.5t-60.5 -153.5q0 -31 10 -82l139 -789h-161zM92 -23l90 138q86 -76 199 -76q94 0 155.5 56.5t61.5 158.5q0 51 -12 92
l-135 770h161l144 -799q10 -41 10 -92q0 -155 -104.5 -253.5t-280.5 -98.5q-80 0 -151.5 25.5t-104.5 52.5z" />
    <glyph glyph-name="dieresis" unicode="&#xa8;" horiz-adv-x="1022" 
d="M627 1599v207h176v-207h-176zM217 1599v207h176v-207h-176z" />
    <glyph glyph-name="copyright" unicode="&#xa9;" horiz-adv-x="1642" 
d="M819 1470q305 0 519 -218t214 -529t-214 -529.5t-519 -218.5q-303 0 -515 218.5t-212 529.5t212 529t515 218zM819 115q248 0 416 176t168 432t-168 432t-416 176q-244 0 -410.5 -176t-166.5 -432t166.5 -432t410.5 -176zM430 721q0 168 111.5 288.5t292.5 120.5
q65 0 123.5 -20t95.5 -50t64.5 -60.5t37.5 -51.5l12 -20l-125 -68q-8 14 -23 36t-67.5 57.5t-111.5 35.5q-117 0 -185.5 -79t-68.5 -189q0 -115 67.5 -191.5t186.5 -76.5q59 0 110 32.5t72 63.5l20 33l125 -68q-4 -8 -12 -21.5t-38 -49t-64.5 -62.5t-94 -48.5t-124.5 -21.5
q-181 0 -292.5 120t-111.5 290z" />
    <glyph glyph-name="ordfeminine" unicode="&#xaa;" horiz-adv-x="868" 
d="M375 782q-90 0 -156.5 53.5t-66.5 145.5q0 225 387 225h20v13q0 129 -131 129q-41 0 -83 -14.5t-64 -28.5l-23 -15l-59 101q92 75 247 75q127 0 194 -66.5t67 -191.5v-411h-140v94h-4q-6 -12 -19.5 -30.5t-61.5 -48.5t-107 -30zM406 903q65 0 108 56.5t43 125.5v17h-22
q-234 0 -234 -111q0 -37 27.5 -62.5t77.5 -25.5zM152 543v116h561v-116h-561z" />
    <glyph glyph-name="guillemotleft" unicode="&#xab;" horiz-adv-x="1149" 
d="M502 578l336 421h198l-336 -421l336 -420h-198zM424 158l-336 420l336 421h199l-336 -421l336 -420h-199z" />
    <glyph glyph-name="logicalnot" unicode="&#xac;" horiz-adv-x="1217" 
d="M100 696v160h977v-547h-166v387h-811z" />
    <glyph glyph-name="uni00AD" unicode="&#xad;" horiz-adv-x="975" 
d="M188 496v176h598v-176h-598z" />
    <glyph glyph-name="registered" unicode="&#xae;" horiz-adv-x="1642" 
d="M819 1470q305 0 519 -218t214 -529t-214 -529.5t-519 -218.5q-303 0 -515 218.5t-212 529.5t212 529t515 218zM819 115q248 0 416 176t168 432t-168 432t-416 176q-244 0 -410.5 -176t-166.5 -432t166.5 -432t410.5 -176zM569 340v772h297q111 0 177.5 -64.5t66.5 -170.5
q0 -82 -43 -136.5t-98 -68.5v-4q8 -9 26 -43l148 -285h-160l-143 299h-125v-299h-146zM715 745h123q57 0 91 35t34 97q0 59 -34 91.5t-91 32.5h-123v-256z" />
    <glyph glyph-name="glyph113" unicode="&#xaf;" horiz-adv-x="1022" 
d="M250 1606v145h522v-145h-522z" />
    <glyph glyph-name="degree" unicode="&#xb0;" horiz-adv-x="801" 
d="M90 1167q0 125 90 214q91 89 219 89t220 -89t92 -214t-92 -214t-220 -89q-130 0 -219 88q-90 88 -90 215zM293 1059q43 -43 106 -43t109 44q45 43 45 107t-45 109t-109 45q-63 0 -106 -45q-43 -44 -43 -109q0 -64 43 -108z" />
    <glyph glyph-name="plusminus" unicode="&#xb1;" horiz-adv-x="1255" 
d="M86 504v160h459v503h168v-503h456v-160h-456v-504h-168v504h-459zM119 -195h1018v-159h-1018v159z" />
    <glyph glyph-name="twosuperior" unicode="&#xb2;" horiz-adv-x="764" 
d="M68 948q0 90 45 163t109.5 119t129 86t109.5 88t45 103q0 58 -41 95.5t-105 37.5q-45 0 -89 -24.5t-64 -48.5l-21 -25l-100 92l11 16.5t35 35t57.5 44t79.5 36t104 16.5q129 0 209 -74t80 -188q0 -84 -43.5 -149.5t-106.5 -107.5t-125.5 -80t-109 -85t-50.5 -105h322v105
h129v-232h-602q-8 52 -8 82z" />
    <glyph glyph-name="threesuperior" unicode="&#xb3;" horiz-adv-x="766" 
d="M94 1530v231h574v-98l-230 -266q105 -17 175.5 -80.5t70.5 -173.5q0 -121 -90 -209t-229 -88q-91 0 -166.5 33.5t-104.5 66.5l-31 35l87 104q8 -12 23 -28.5t69.5 -45t115.5 -28.5q68 0 119 45t51 111q0 67 -53 106t-127 39h-65l-33 78l194 235l45 41v7q-28 -7 -61 -7
h-205v-108h-129z" />
    <glyph glyph-name="acute" unicode="&#xb4;" horiz-adv-x="1022" 
d="M378 1186l213 260h227l-253 -260h-187z" />
    <glyph glyph-name="mu" unicode="&#xb5;" horiz-adv-x="1219" 
d="M145 -410v1446h199v-618q0 -125 40 -191.5t153 -66.5q153 0 245 114.5t92 276.5v485h199v-1036h-192v141l4 72h-6q-5 -10 -13 -25.5t-39.5 -56.5t-71.5 -72.5t-108.5 -57.5t-148.5 -26q-62 0 -108 16.5t-62 33.5l-17 14h-4q15 -100 15 -160v-289h-177z" />
    <glyph glyph-name="mu" unicode="&#x3bc;" horiz-adv-x="1219" 
d="M145 -410v1446h199v-618q0 -125 40 -191.5t153 -66.5q153 0 245 114.5t92 276.5v485h199v-1036h-192v141l4 72h-6q-5 -10 -13 -25.5t-39.5 -56.5t-71.5 -72.5t-108.5 -57.5t-148.5 -26q-62 0 -108 16.5t-62 33.5l-17 14h-4q15 -100 15 -160v-289h-177z" />
    <glyph glyph-name="paragraph" unicode="&#xb6;" horiz-adv-x="1221" 
d="M557 -102v596q-199 0 -342 138t-143 338.5t142 338t341 137.5h557v-176h-401v-1372h-154zM838 -102v1255h151v-1255h-151z" />
    <glyph glyph-name="glyph121" unicode="&#xb7;" horiz-adv-x="573" 
d="M182 485v217h209v-217h-209z" />
    <glyph glyph-name="cedilla" unicode="&#xb8;" horiz-adv-x="1022" 
d="M381 -199l65 250l105 -20v-17l-33 -129q70 -4 116 -46t46 -107q0 -88 -65.5 -132t-161.5 -44q-27 0 -54.5 3t-42.5 7l-14 4v108q39 -12 90 -12q105 0 105 66q0 69 -121 69h-35z" />
    <glyph glyph-name="onesuperior" unicode="&#xb9;" horiz-adv-x="688" 
d="M76 866v127h211v506l6 64h-4q-10 -19 -33 -37l-98 -96l-95 100l240 231h137v-768h209v-127h-573z" />
    <glyph glyph-name="ordmasculine" unicode="&#xba;" horiz-adv-x="965" 
d="M131 1130q0 144 101.5 241t246.5 97q148 0 250 -96t102 -242q0 -149 -101 -246.5t-248.5 -97.5t-249 97.5t-101.5 246.5zM481 920q84 0 142.5 59t58.5 151q0 91 -58.5 149t-142.5 58q-86 0 -144 -58t-58 -149q0 -92 58 -151t144 -59zM164 543v116h639v-116h-639z" />
    <glyph glyph-name="guillemotright" unicode="&#xbb;" horiz-adv-x="1147" 
d="M524 158l336 420l-336 421h199l336 -421l-336 -420h-199zM113 158l336 420l-336 421h198l336 -421l-336 -420h-198z" />
    <glyph glyph-name="onequarter" unicode="&#xbc;" horiz-adv-x="1960" 
d="M1608 0v223h-426v99l411 573h166v-551h127v-121h-127v-223h-151zM1339 344h269v299l8 92h-6q-19 -45 -43 -80l-228 -307v-4zM115 551v127h211v506l6 63h-4q-11 -18 -33 -37l-98 -96l-95 100l240 232h137v-768h209v-127h-573zM549 0l688 1446h154l-686 -1446h-156z" />
    <glyph glyph-name="onehalf" unicode="&#xbd;" horiz-adv-x="1927" 
d="M1227 82q0 90 45 162.5t109.5 119t129 86t109.5 88t45 103.5q0 57 -41 95t-104 38q-45 0 -89.5 -24.5t-64.5 -49.5l-20 -24l-101 92q4 6 11.5 16.5t35 35t57 44t80 35.5t103.5 16q129 0 209 -73.5t80 -188.5q0 -84 -43 -149.5t-106.5 -107.5t-126 -79.5t-108.5 -85
t-51 -104.5h322v104h129v-231h-602q-8 51 -8 82zM100 551v127h211v506l6 63h-4q-10 -18 -32 -37l-99 -96l-94 100l240 232h137v-768h209v-127h-574zM539 0l688 1446h153l-686 -1446h-155z" />
    <glyph glyph-name="threequarters" unicode="&#xbe;" horiz-adv-x="1987" 
d="M125 1214v232h573v-98l-229 -267q104 -16 175 -79.5t71 -174.5q0 -120 -90 -208.5t-230 -88.5q-90 0 -165.5 34t-106.5 67l-29 35l86 104q8 -12 23.5 -28.5t70 -45t115.5 -28.5q68 0 119 45t51 110q0 68 -53 107t-127 39h-66l-32 78l194 235l45 41v6q-28 -6 -61 -6h-205
v-109h-129zM1630 0v223h-426v99l412 573h166v-551h127v-121h-127v-223h-152zM1362 344h268v299l8 92h-6q-18 -45 -43 -80l-227 -307v-4zM569 0l688 1446h154l-686 -1446h-156z" />
    <glyph glyph-name="questiondown" unicode="&#xbf;" horiz-adv-x="952" 
d="M455 836v200h204v-200h-204zM98 -57q0 94 37 168.5t90.5 125t107.5 96.5t91 104.5t37 125.5v76h192v-88q0 -86 -35.5 -157.5t-87 -120t-102.5 -93.5t-87 -101t-36 -120q0 -86 67.5 -145.5t168.5 -59.5q57 0 115.5 22.5t88.5 43.5l29 22l109 -141q-6 -6 -16.5 -14.5
t-45.5 -31t-73.5 -39.5t-98 -31.5t-123.5 -14.5q-180 0 -304 103.5t-124 269.5z" />
    <glyph glyph-name="Agrave" unicode="&#xc0;" horiz-adv-x="1477" 
d="M23 0v160h139l461 1286h231l461 -1286h139v-160h-502v160h154l-113 321h-512l-112 -321h155v-160h-501zM533 645h409l-176 502q-8 27 -14 54.5t-9 41.5l-2 14h-6q-6 -51 -24 -110zM672 1546l-254 260h229l211 -260h-186z" />
    <glyph glyph-name="Aacute" unicode="&#xc1;" horiz-adv-x="1477" 
d="M23 0v160h139l461 1286h231l461 -1286h139v-160h-502v160h154l-113 321h-512l-112 -321h155v-160h-501zM532 645h410l-176 502q-8 27 -14.5 54.5t-8.5 41.5l-2 14h-6q-6 -51 -24 -110zM612 1546l213 260h228l-254 -260h-187z" />
    <glyph glyph-name="Acircumflex" unicode="&#xc2;" horiz-adv-x="1477" 
d="M23 0v160h139l461 1286h231l461 -1286h139v-160h-502v160h154l-113 321h-512l-112 -321h155v-160h-501zM532 645h410l-176 502q-8 27 -14.5 54.5t-8.5 41.5l-2 14h-6q-6 -51 -24 -110zM449 1546l180 260h215l180 -260h-178l-109 164h-4l-106 -164h-178z" />
    <glyph glyph-name="Atilde" unicode="&#xc3;" horiz-adv-x="1477" 
d="M23 0v160h139l461 1286h231l461 -1286h139v-160h-502v160h154l-113 321h-512l-112 -321h155v-160h-501zM532 645h410l-176 502q-8 27 -14.5 54.5t-8.5 41.5l-2 14h-6q-6 -51 -24 -110zM389 1548q0 260 209 260q49 0 90 -21.5t63.5 -47t51 -47t55.5 -21.5q82 0 82 131h147
q0 -260 -208 -260q-50 0 -90.5 21.5t-63.5 47t-51.5 47t-55.5 21.5q-81 0 -81 -131h-148z" />
    <glyph glyph-name="Adieresis" unicode="&#xc4;" horiz-adv-x="1477" 
d="M23 0v160h139l461 1286h231l461 -1286h139v-160h-502v160h154l-113 321h-512l-112 -321h155v-160h-501zM532 645h410l-176 502q-8 27 -14.5 54.5t-8.5 41.5l-2 14h-6q-6 -51 -24 -110zM854 1599v207h176v-207h-176zM444 1599v207h177v-207h-177z" />
    <glyph glyph-name="Aring" unicode="&#xc5;" horiz-adv-x="1477" 
d="M23 0v160h139l461 1286h231l461 -1286h139v-160h-502v160h154l-113 321h-512l-112 -321h155v-160h-501zM532 645h410l-176 502q-8 27 -14.5 54.5t-8.5 41.5l-2 14h-6q-6 -51 -24 -110zM549 1677q0 78 55 124t133 46t135.5 -47t57.5 -123q0 -73 -57.5 -118.5t-135.5 -45.5
t-133 45.5t-55 118.5zM737 1604q35 0 55.5 20.5t20.5 52.5q0 37 -20.5 58.5t-55.5 21.5q-32 0 -52.5 -21.5t-20.5 -58.5q0 -32 20.5 -52.5t52.5 -20.5z" />
    <glyph glyph-name="AE" unicode="&#xc6;" horiz-adv-x="1927" 
d="M25 0v160h129l464 1128h-157v158h1327v-336h-170v168h-485v-465h507v-168h-507v-477h520v170h170v-338h-1071v160h176v487h-369l-199 -487h156v-160h-491zM621 807h307v471h-115z" />
    <glyph glyph-name="Ccedilla" unicode="&#xc7;" horiz-adv-x="1524" 
d="M713 -199l47 179q-291 30 -475.5 242t-184.5 509q0 318 212 528.5t528 210.5q73 0 160 -14t178.5 -44t152 -90t60.5 -138v-176h-191v112q0 60 -62.5 101t-138 57t-151.5 16q-234 0 -385.5 -155.5t-151.5 -399.5q0 -256 156 -420.5t393 -164.5q66 0 141.5 13t147.5 54
t72 103v112h190v-176q0 -72 -54 -129t-140.5 -89t-173.5 -48.5t-171 -18.5l-20 -90q68 -4 115 -47t47 -106q0 -88 -66.5 -132t-161.5 -44q-28 0 -56 3t-42 7l-14 4v108q39 -12 92 -12q102 0 102 66q0 69 -118 69h-37z" />
    <glyph glyph-name="Egrave" unicode="&#xc8;" horiz-adv-x="1294" 
d="M109 0v160h180v1128h-180v158h1046v-336h-178v168h-483v-465h512v-168h-512v-477h518v174h178v-342h-1081zM602 1546l-254 260h230l210 -260h-186z" />
    <glyph glyph-name="Eacute" unicode="&#xc9;" horiz-adv-x="1294" 
d="M109 0v160h180v1128h-180v158h1046v-336h-178v168h-483v-465h512v-168h-512v-477h518v174h178v-342h-1081zM545 1546l213 260h227l-254 -260h-186z" />
    <glyph glyph-name="Ecircumflex" unicode="&#xca;" horiz-adv-x="1294" 
d="M109 0v160h180v1128h-180v158h1046v-336h-178v168h-483v-465h512v-168h-512v-477h518v174h178v-342h-1081zM381 1546l180 260h215l180 -260h-178l-108 164h-4l-107 -164h-178z" />
    <glyph glyph-name="Edieresis" unicode="&#xcb;" horiz-adv-x="1294" 
d="M109 0v160h180v1128h-180v158h1046v-336h-178v168h-483v-465h512v-168h-512v-477h518v174h178v-342h-1081zM784 1599v207h177v-207h-177zM375 1599v207h176v-207h-176z" />
    <glyph glyph-name="Igrave" unicode="&#xcc;" horiz-adv-x="782" 
d="M109 0v160h180v1128h-180v158h567v-158h-182v-1128h182v-160h-567zM328 1546l-254 260h229l211 -260h-186z" />
    <glyph glyph-name="Iacute" unicode="&#xcd;" horiz-adv-x="782" 
d="M109 0v160h180v1128h-180v158h567v-158h-182v-1128h182v-160h-567zM268 1546l213 260h228l-254 -260h-187z" />
    <glyph glyph-name="Icircumflex" unicode="&#xce;" horiz-adv-x="782" 
d="M104 1546l181 260h215l180 -260h-178l-109 164h-4l-106 -164h-179zM109 0v160h180v1128h-180v158h567v-158h-182v-1128h182v-160h-567z" />
    <glyph glyph-name="Idieresis" unicode="&#xcf;" horiz-adv-x="782" 
d="M109 0v160h180v1128h-180v158h567v-158h-182v-1128h182v-160h-567zM508 1599v207h176v-207h-176zM98 1599v207h176v-207h-176z" />
    <glyph glyph-name="Eth" unicode="&#xd0;" horiz-adv-x="1612" 
d="M109 0v160h180v479h-154v168h154v481h-180v158h663q336 0 534.5 -191.5t198.5 -529.5q0 -340 -198.5 -532.5t-534.5 -192.5h-663zM494 168h264q246 0 390 145.5t144 411.5q0 264 -145.5 408.5t-388.5 144.5h-264v-471h317v-168h-317v-471z" />
    <glyph glyph-name="Ntilde" unicode="&#xd1;" horiz-adv-x="1716" 
d="M109 0v160h180v1128h-180v158h383l710 -1036l49 -105h6q-10 72 -10 117v866h-184v158h571v-158h-182v-1288h-201l-710 1036q-13 19 -25 44.5t-18 41.5l-6 19h-7l9 -117v-864h186v-160h-571zM520 1548q0 260 209 260q49 0 90 -21.5t63.5 -47t51.5 -47t55 -21.5
q82 0 82 131h148q0 -260 -209 -260q-49 0 -90 21.5t-63.5 47t-51.5 47t-55 21.5q-82 0 -82 -131h-148z" />
    <glyph glyph-name="Ograve" unicode="&#xd2;" horiz-adv-x="1683" 
d="M98 733q0 311 214 524t530 213q313 0 528 -213t215 -524q0 -319 -215 -538.5t-528 -219.5q-316 0 -530 219.5t-214 538.5zM309 733q0 -244 154.5 -409.5t378.5 -165.5q221 0 375.5 165.5t154.5 409.5q0 236 -154.5 396.5t-375.5 160.5q-224 0 -378.5 -160.5
t-154.5 -396.5zM776 1546l-254 260h230l211 -260h-187z" />
    <glyph glyph-name="Oacute" unicode="&#xd3;" horiz-adv-x="1683" 
d="M98 733q0 311 214 524t530 213q313 0 528 -213t215 -524q0 -319 -215 -538.5t-528 -219.5q-316 0 -530 219.5t-214 538.5zM309 733q0 -244 154.5 -409.5t378.5 -165.5q221 0 375.5 165.5t154.5 409.5q0 236 -154.5 396.5t-375.5 160.5q-224 0 -378.5 -160.5
t-154.5 -396.5zM717 1546l213 260h227l-254 -260h-186z" />
    <glyph glyph-name="Ocircumflex" unicode="&#xd4;" horiz-adv-x="1683" 
d="M553 1546l180 260h215l180 -260h-178l-108 164h-4l-107 -164h-178zM98 733q0 311 214 524t530 213q313 0 528 -213t215 -524q0 -319 -215 -538.5t-528 -219.5q-316 0 -530 219.5t-214 538.5zM309 733q0 -244 154.5 -409.5t378.5 -165.5q221 0 375.5 165.5t154.5 409.5
q0 236 -154.5 396.5t-375.5 160.5q-224 0 -378.5 -160.5t-154.5 -396.5z" />
    <glyph glyph-name="Otilde" unicode="&#xd5;" horiz-adv-x="1683" 
d="M98 733q0 311 214 524t530 213q313 0 528 -213t215 -524q0 -319 -215 -538.5t-528 -219.5q-316 0 -530 219.5t-214 538.5zM309 733q0 -244 154.5 -409.5t378.5 -165.5q221 0 375.5 165.5t154.5 409.5q0 236 -154.5 396.5t-375.5 160.5q-224 0 -378.5 -160.5
t-154.5 -396.5zM494 1548q0 260 208 260q50 0 91 -21.5t63.5 -47t51 -47t55.5 -21.5q81 0 81 131h148q0 -260 -209 -260q-49 0 -90 21.5t-63.5 47t-51 47t-55.5 21.5q-82 0 -82 -131h-147z" />
    <glyph glyph-name="Odieresis" unicode="&#xd6;" horiz-adv-x="1683" 
d="M98 733q0 311 214 524t530 213q313 0 528 -213t215 -524q0 -319 -215 -538.5t-528 -219.5q-316 0 -530 219.5t-214 538.5zM309 733q0 -244 154.5 -409.5t378.5 -165.5q221 0 375.5 165.5t154.5 409.5q0 236 -154.5 396.5t-375.5 160.5q-224 0 -378.5 -160.5
t-154.5 -396.5zM958 1599v207h177v-207h-177zM549 1599v207h176v-207h-176z" />
    <glyph glyph-name="multiply" unicode="&#xd7;" horiz-adv-x="1255" 
d="M94 113l424 471l-424 471l113 112l420 -467l420 467l112 -112l-426 -471l426 -471l-112 -113l-420 465l-420 -465z" />
    <glyph glyph-name="Oslash" unicode="&#xd8;" horiz-adv-x="1681" 
d="M250 18l100 140q-252 225 -252 575q0 311 215 524t527 213q209 0 381 -102l92 131l100 -69l-92 -130q123 -102 192.5 -249.5t69.5 -317.5q0 -319 -215 -538.5t-528 -219.5q-215 0 -391 111l-99 -137zM469 324l637 886q-121 74 -266 74q-224 0 -378.5 -157.5
t-154.5 -393.5q0 -248 162 -409zM561 244q123 -82 279 -82q223 0 378.5 163.5t155.5 407.5q0 248 -170 404z" />
    <glyph glyph-name="Ugrave" unicode="&#xd9;" horiz-adv-x="1632" 
d="M246 539v749h-183v158h570v-158h-182v-747q0 -148 55 -236q92 -147 311 -147t311 151q56 94 56 234v745h-183v158h568v-158h-180v-749q0 -209 -101 -353q-71 -102 -196 -156.5t-275 -54.5q-153 0 -277 55.5t-198 155.5q-96 131 -96 353zM752 1546l-254 260h229l211 -260
h-186z" />
    <glyph glyph-name="Uacute" unicode="&#xda;" horiz-adv-x="1632" 
d="M246 539v749h-183v158h570v-158h-182v-747q0 -148 55 -236q92 -147 311 -147t311 151q56 94 56 234v745h-183v158h568v-158h-180v-749q0 -209 -101 -353q-71 -102 -196 -156.5t-275 -54.5q-153 0 -277 55.5t-198 155.5q-96 131 -96 353zM692 1546l213 260h228l-254 -260
h-187z" />
    <glyph glyph-name="Ucircumflex" unicode="&#xdb;" horiz-adv-x="1632" 
d="M246 539v749h-183v158h570v-158h-182v-747q0 -148 55 -236q92 -147 311 -147t311 151q56 94 56 234v745h-183v158h568v-158h-180v-749q0 -209 -101 -353q-71 -102 -196 -156.5t-275 -54.5q-153 0 -277 55.5t-198 155.5q-96 131 -96 353zM528 1546l181 260h215l180 -260
h-178l-109 164h-4l-106 -164h-179z" />
    <glyph glyph-name="Udieresis" unicode="&#xdc;" horiz-adv-x="1632" 
d="M246 539v749h-183v158h570v-158h-182v-747q0 -148 55 -236q92 -147 311 -147t311 151q56 94 56 234v745h-183v158h568v-158h-180v-749q0 -209 -101 -353q-71 -102 -196 -156.5t-275 -54.5q-153 0 -277 55.5t-198 155.5q-96 131 -96 353zM934 1599v207h176v-207h-176z
M524 1599v207h176v-207h-176z" />
    <glyph glyph-name="Yacute" unicode="&#xdd;" horiz-adv-x="1331" 
d="M381 0v160h182v452l-405 676h-138v158h498v-158h-151l268 -454l29 -62h4q12 31 30 62l269 454h-150v158h494v-158h-137l-406 -676v-452h182v-160h-569zM545 1546l213 260h227l-254 -260h-186z" />
    <glyph glyph-name="Thorn" unicode="&#xde;" horiz-adv-x="1331" 
d="M109 0v160h180v1128h-180v158h567v-158h-184v-147h342q198 0 318 -105.5t120 -287.5q0 -185 -120 -294.5t-321 -109.5h-339v-184h184v-160h-567zM492 504h299q131 0 202.5 63.5t71.5 180.5q0 114 -70.5 173.5t-201.5 59.5h-301v-477z" />
    <glyph glyph-name="germandbls" unicode="&#xdf;" horiz-adv-x="1274" 
d="M66 0v154h163v931q0 181 131.5 283t311.5 102q168 0 278.5 -95t110.5 -234q0 -68 -33 -126.5t-70.5 -93t-70.5 -77.5t-33 -84q0 -35 38 -72t91 -73.5t107.5 -78.5t92.5 -104.5t38 -134.5q0 -150 -101.5 -230.5t-249.5 -80.5q-84 0 -156.5 15t-103.5 30l-28 14v176
q114 -63 266 -63q74 0 123 36.5t49 110.5q0 55 -57.5 109.5t-126 94.5t-126 105.5t-57.5 139.5q0 57 32 110.5t71 89t70.5 86t31.5 99.5q0 65 -51 112t-143 47q-97 0 -167.5 -59t-70.5 -168v-1071h-360z" />
    <glyph glyph-name="agrave" unicode="&#xe0;" 
d="M68 289q0 78 31.5 138t88 97t117 60.5t136 35t125.5 14.5t106 3h65v39q0 221 -221 221q-74 0 -147.5 -24.5t-110.5 -49.5l-39 -26l-80 141q6 4 17.5 13.5t51.5 29.5t82 36.5t108.5 30t133.5 13.5q199 0 301.5 -101.5t102.5 -297.5v-463q0 -45 45 -45h104v-154h-206
q-129 0 -129 113v14l8 68h-4q-4 -9 -11.5 -24t-37 -53t-64.5 -66.5t-97.5 -52.5t-131.5 -24q-142 0 -243 82t-101 232zM268 305q0 -74 50.5 -125t136.5 -51q125 0 204.5 104.5t79.5 231.5v43h-51q-420 0 -420 -203zM473 1186l-254 260h230l210 -260h-186z" />
    <glyph glyph-name="aacute" unicode="&#xe1;" 
d="M68 289q0 78 31.5 138t88 97t117 60.5t136 35t125.5 14.5t106 3h65v39q0 221 -221 221q-74 0 -147.5 -24.5t-110.5 -49.5l-39 -26l-80 141q6 4 17.5 13.5t51.5 29.5t82 36.5t108.5 30t133.5 13.5q199 0 301.5 -101.5t102.5 -297.5v-463q0 -45 45 -45h104v-154h-206
q-129 0 -129 113v14l8 68h-4q-4 -9 -11.5 -24t-37 -53t-64.5 -66.5t-97.5 -52.5t-131.5 -24q-142 0 -243 82t-101 232zM268 305q0 -74 50.5 -125t136.5 -51q125 0 204.5 104.5t79.5 231.5v43h-51q-420 0 -420 -203zM414 1186l213 260h227l-254 -260h-186z" />
    <glyph glyph-name="acircumflex" unicode="&#xe2;" 
d="M68 289q0 78 31.5 138t88 97t117 60.5t136 35t125.5 14.5t106 3h65v39q0 221 -221 221q-74 0 -147.5 -24.5t-110.5 -49.5l-39 -26l-80 141q6 4 17.5 13.5t51.5 29.5t82 36.5t108.5 30t133.5 13.5q199 0 301.5 -101.5t102.5 -297.5v-463q0 -45 45 -45h104v-154h-206
q-129 0 -129 113v14l8 68h-4q-4 -9 -11.5 -24t-37 -53t-64.5 -66.5t-97.5 -52.5t-131.5 -24q-142 0 -243 82t-101 232zM268 305q0 -74 50.5 -125t136.5 -51q125 0 204.5 104.5t79.5 231.5v43h-51q-420 0 -420 -203zM250 1186l180 260h215l180 -260h-178l-108 164h-4
l-107 -164h-178z" />
    <glyph glyph-name="atilde" unicode="&#xe3;" 
d="M68 289q0 78 31.5 138t88 97t117 60.5t136 35t125.5 14.5t106 3h65v39q0 221 -221 221q-74 0 -147.5 -24.5t-110.5 -49.5l-39 -26l-80 141q6 4 17.5 13.5t51.5 29.5t82 36.5t108.5 30t133.5 13.5q199 0 301.5 -101.5t102.5 -297.5v-463q0 -45 45 -45h104v-154h-206
q-129 0 -129 113v14l8 68h-4q-4 -9 -11.5 -24t-37 -53t-64.5 -66.5t-97.5 -52.5t-131.5 -24q-142 0 -243 82t-101 232zM268 305q0 -74 50.5 -125t136.5 -51q125 0 204.5 104.5t79.5 231.5v43h-51q-420 0 -420 -203zM190 1188q0 260 209 260q50 0 90.5 -21.5t63 -47t51.5 -47
t55 -21.5q82 0 82 131h148q0 -260 -209 -260q-49 0 -90 21.5t-63.5 47t-51.5 47t-55 21.5q-82 0 -82 -131h-148z" />
    <glyph glyph-name="adieresis" unicode="&#xe4;" 
d="M68 289q0 78 31.5 138t88 97t117 60.5t136 35t125.5 14.5t106 3h65v39q0 221 -221 221q-74 0 -147.5 -24.5t-110.5 -49.5l-39 -26l-80 141q6 4 17.5 13.5t51.5 29.5t82 36.5t108.5 30t133.5 13.5q199 0 301.5 -101.5t102.5 -297.5v-463q0 -45 45 -45h104v-154h-206
q-129 0 -129 113v14l8 68h-4q-4 -9 -11.5 -24t-37 -53t-64.5 -66.5t-97.5 -52.5t-131.5 -24q-142 0 -243 82t-101 232zM268 305q0 -74 50.5 -125t136.5 -51q125 0 204.5 104.5t79.5 231.5v43h-51q-420 0 -420 -203zM655 1239v207h176v-207h-176zM246 1239v207h176v-207h-176
z" />
    <glyph glyph-name="aring" unicode="&#xe5;" 
d="M68 289q0 78 31.5 138t88 97t117 60.5t136 35t125.5 14.5t106 3h65v39q0 221 -221 221q-74 0 -147.5 -24.5t-110.5 -49.5l-39 -26l-80 141q6 4 17.5 13.5t51.5 29.5t82 36.5t108.5 30t133.5 13.5q199 0 301.5 -101.5t102.5 -297.5v-463q0 -45 45 -45h104v-154h-206
q-129 0 -129 113v14l8 68h-4q-4 -9 -11.5 -24t-37 -53t-64.5 -66.5t-97.5 -52.5t-131.5 -24q-142 0 -243 82t-101 232zM268 305q0 -74 50.5 -125t136.5 -51q125 0 204.5 104.5t79.5 231.5v43h-51q-420 0 -420 -203zM350 1317q0 78 55.5 124t133 46t135 -47t57.5 -123
q0 -74 -57.5 -119t-135 -45t-133 45t-55.5 119zM539 1243q34 0 54.5 20.5t20.5 53.5q0 37 -20.5 58.5t-54.5 21.5q-33 0 -53.5 -21.5t-20.5 -58.5q0 -33 20.5 -53.5t53.5 -20.5z" />
    <glyph glyph-name="ae" unicode="&#xe6;" horiz-adv-x="1767" 
d="M70 289q0 78 28.5 138t84 96t112.5 58.5t135 33t131 13.5t123 3h55v35q0 231 -227 231q-74 0 -147.5 -24.5t-110.5 -49.5l-37 -26l-80 141q17 14 48.5 34.5t134 54.5t208.5 34q254 0 336 -182h4q127 182 369 182q207 0 325.5 -137.5t118.5 -345.5l-6 -76h-743
q8 -172 104.5 -266.5t241.5 -94.5q78 0 154.5 30t113.5 60l37 31l82 -139q-16 -17 -49 -41.5t-137.5 -65.5t-212.5 -41q-154 0 -268.5 69t-178.5 192h-4q-10 -29 -32.5 -65t-66.5 -84t-121 -80t-169 -32q-150 0 -253 84t-103 230zM940 631h541q-4 127 -76 199.5t-172 72.5
q-115 0 -193.5 -70.5t-99.5 -201.5zM268 299q0 -70 51.5 -119t141.5 -49q121 0 200.5 104.5t79.5 229.5v37h-96q-377 0 -377 -203z" />
    <glyph glyph-name="ccedilla" unicode="&#xe7;" horiz-adv-x="1133" 
d="M498 -199l49 183q-201 28 -333 171.5t-132 360.5q0 236 157.5 390.5t391.5 154.5q63 0 128.5 -12.5t130 -38t105.5 -73.5t41 -112v-127h-176v72q0 55 -71.5 87t-151.5 32q-158 0 -255 -101.5t-97 -267.5q0 -172 104.5 -272.5t259.5 -100.5q80 0 161 33t103.5 49.5
t67.5 51.5l76 -146q-33 -31 -77 -60.5t-136 -63.5t-187 -36l-20 -90q68 -4 115 -47t47 -106q0 -88 -66.5 -132t-161.5 -44q-26 0 -55 3t-43 7l-14 4v108q41 -12 92 -12q102 0 102 66q0 69 -118 69h-37z" />
    <glyph glyph-name="egrave" unicode="&#xe8;" 
d="M84 518q0 244 146.5 393.5t371.5 149.5q213 0 331 -137.5t118 -348.5l-7 -75h-757q8 -166 110.5 -259.5t247.5 -93.5q80 0 158 29t115 57l36 31l82 -145q-18 -17 -50 -40.5t-137.5 -63.5t-215.5 -40q-242 0 -395.5 155t-153.5 388zM295 627h551q-4 131 -75 203.5
t-173 72.5q-115 0 -199 -73.5t-104 -202.5zM539 1186l-254 260h229l211 -260h-186z" />
    <glyph glyph-name="eacute" unicode="&#xe9;" 
d="M84 518q0 244 146.5 393.5t371.5 149.5q213 0 331 -137.5t118 -348.5l-7 -75h-757q8 -166 110.5 -259.5t247.5 -93.5q80 0 158 29t115 57l36 31l82 -145q-18 -17 -50 -40.5t-137.5 -63.5t-215.5 -40q-242 0 -395.5 155t-153.5 388zM295 627h551q-4 131 -75 203.5
t-173 72.5q-115 0 -199 -73.5t-104 -202.5zM479 1186l213 260h228l-254 -260h-187z" />
    <glyph glyph-name="ecircumflex" unicode="&#xea;" 
d="M84 518q0 244 146.5 393.5t371.5 149.5q213 0 331 -137.5t118 -348.5l-7 -75h-757q8 -166 110.5 -259.5t247.5 -93.5q80 0 158 29t115 57l36 31l82 -145q-18 -17 -50 -40.5t-137.5 -63.5t-215.5 -40q-242 0 -395.5 155t-153.5 388zM295 627h551q-4 131 -75 203.5
t-173 72.5q-115 0 -199 -73.5t-104 -202.5zM315 1186l181 260h215l180 -260h-178l-109 164h-4l-106 -164h-179z" />
    <glyph glyph-name="edieresis" unicode="&#xeb;" 
d="M84 518q0 244 146.5 393.5t371.5 149.5q213 0 331 -137.5t118 -348.5l-7 -75h-757q8 -166 110.5 -259.5t247.5 -93.5q80 0 158 29t115 57l36 31l82 -145q-18 -17 -50 -40.5t-137.5 -63.5t-215.5 -40q-242 0 -395.5 155t-153.5 388zM295 627h551q-4 131 -75 203.5
t-173 72.5q-115 0 -199 -73.5t-104 -202.5zM721 1239v207h176v-207h-176zM311 1239v207h176v-207h-176z" />
    <glyph glyph-name="igrave" unicode="&#xec;" horiz-adv-x="662" 
d="M96 0v154h152v729h-156v153h354v-882h150v-154h-500zM281 1186l-254 260h229l211 -260h-186z" />
    <glyph glyph-name="iacute" unicode="&#xed;" horiz-adv-x="662" 
d="M96 0v154h152v729h-156v153h354v-882h150v-154h-500zM221 1186l213 260h228l-254 -260h-187z" />
    <glyph glyph-name="icircumflex" unicode="&#xee;" horiz-adv-x="662" 
d="M57 1186l181 260h215l180 -260h-178l-109 164h-4l-106 -164h-179zM96 0v154h152v729h-156v153h354v-882h150v-154h-500z" />
    <glyph glyph-name="idieresis" unicode="&#xef;" horiz-adv-x="662" 
d="M96 0v154h152v729h-156v153h354v-882h150v-154h-500zM426 1239v207h176v-207h-176zM72 1239v207h176v-207h-176z" />
    <glyph glyph-name="eth" unicode="&#xf0;" horiz-adv-x="1208" 
d="M88 481q0 195 129 334t354 139q74 0 136.5 -21.5t89.5 -43.5l26 -21h4q-63 170 -227 279l-364 -160l-21 107l264 118q-131 66 -274 99l55 162q248 -58 434 -170l273 122l20 -108l-194 -88q299 -246 299 -666q0 -108 -30 -208.5t-89.5 -187.5t-162.5 -139.5t-237 -52.5
q-223 0 -354 150.5t-131 355.5zM289 477q0 -135 76.5 -232.5t212.5 -97.5q79 0 141.5 34t98.5 91.5t54.5 122t18.5 133.5q0 117 -79 192t-210 75q-149 0 -231 -93.5t-82 -224.5z" />
    <glyph glyph-name="ntilde" unicode="&#xf1;" horiz-adv-x="1411" 
d="M98 0v154h162v684q0 45 -45 45h-127v153h234q131 0 131 -114v-54l-7 -59h5q10 27 36.5 63.5t72.5 81.5t124 76t170 31q176 0 260 -98.5t84 -298.5v-510h164v-154h-363v618q0 125 -39.5 193t-154.5 68q-152 0 -249 -118t-97 -280v-327h164v-154h-525zM397 1188
q0 260 209 260q49 0 90 -21.5t63.5 -47t51.5 -47t55 -21.5q82 0 82 131h148q0 -260 -209 -260q-49 0 -90 21.5t-63.5 47t-51.5 47t-55 21.5q-82 0 -82 -131h-148z" />
    <glyph glyph-name="ograve" unicode="&#xf2;" horiz-adv-x="1282" 
d="M244 131q-162 156 -162 389.5t162 387t397.5 153.5t397 -153.5t161.5 -387t-163 -389.5t-396 -156t-397 156zM285 520q0 -162 103.5 -267.5t252.5 -105.5q147 0 251.5 106.5t104.5 266.5t-104.5 264.5t-251.5 104.5q-149 0 -252.5 -104.5t-103.5 -264.5zM575 1186
l-253 260h229l211 -260h-187z" />
    <glyph glyph-name="oacute" unicode="&#xf3;" horiz-adv-x="1282" 
d="M244 131q-162 156 -162 389.5t162 387t397.5 153.5t397 -153.5t161.5 -387t-163 -389.5t-396 -156t-397 156zM285 520q0 -162 103.5 -267.5t252.5 -105.5q147 0 251.5 106.5t104.5 266.5t-104.5 264.5t-251.5 104.5q-149 0 -252.5 -104.5t-103.5 -264.5zM518 1186
l213 260h227l-253 -260h-187z" />
    <glyph glyph-name="ocircumflex" unicode="&#xf4;" horiz-adv-x="1282" 
d="M354 1186l181 260h215l180 -260h-178l-109 164h-4l-107 -164h-178zM244 131q-162 156 -162 389.5t162 387t397.5 153.5t397 -153.5t161.5 -387t-163 -389.5t-396 -156t-397 156zM285 520q0 -162 103.5 -267.5t252.5 -105.5q147 0 251.5 106.5t104.5 266.5t-104.5 264.5
t-251.5 104.5q-149 0 -252.5 -104.5t-103.5 -264.5z" />
    <glyph glyph-name="otilde" unicode="&#xf5;" horiz-adv-x="1282" 
d="M244 131q-162 156 -162 389.5t162 387t397.5 153.5t397 -153.5t161.5 -387t-163 -389.5t-396 -156t-397 156zM285 520q0 -162 103.5 -267.5t252.5 -105.5q147 0 251.5 106.5t104.5 266.5t-104.5 264.5t-251.5 104.5q-149 0 -252.5 -104.5t-103.5 -264.5zM293 1188
q0 260 209 260q49 0 90 -21.5t63.5 -47t51 -47t55.5 -21.5q82 0 82 131h147q0 -260 -209 -260q-49 0 -90 21.5t-63.5 47t-51 47t-55.5 21.5q-82 0 -82 -131h-147z" />
    <glyph glyph-name="odieresis" unicode="&#xf6;" horiz-adv-x="1282" 
d="M244 131q-162 156 -162 389.5t162 387t397.5 153.5t397 -153.5t161.5 -387t-163 -389.5t-396 -156t-397 156zM285 520q0 -162 103.5 -267.5t252.5 -105.5q147 0 251.5 106.5t104.5 266.5t-104.5 264.5t-251.5 104.5q-149 0 -252.5 -104.5t-103.5 -264.5zM758 1239v207
h176v-207h-176zM348 1239v207h176v-207h-176z" />
    <glyph glyph-name="divide" unicode="&#xf7;" horiz-adv-x="1255" 
d="M530 891v186h193v-186h-193zM111 504v160h1034v-160h-1034zM530 90v186h193v-186h-193z" />
    <glyph glyph-name="oslash" unicode="&#xf8;" horiz-adv-x="1282" 
d="M207 -10l76 108q-93 74 -146 183.5t-53 238.5q0 234 162 387.5t395 153.5q150 0 281 -72l82 113l88 -62l-80 -110q188 -162 188 -410q0 -233 -163 -389t-396 -156q-141 0 -266 66l-80 -115zM395 254l422 588q-90 47 -176 47q-147 0 -251.5 -104.5t-104.5 -264.5
q0 -151 110 -266zM481 188q78 -41 160 -41q150 0 253 105.5t103 267.5q0 144 -98 252z" />
    <glyph glyph-name="ugrave" unicode="&#xf9;" horiz-adv-x="1362" 
d="M215 373v510h-174v153h373v-622q0 -125 40 -191.5t154 -66.5q150 0 243 120.5t93 282.5v324h-174v153h373v-839q0 -45 45 -45h108v-152h-215q-131 0 -131 115v45l4 61h-4q-10 -26 -35.5 -62t-71.5 -80t-122 -74t-166 -30q-340 0 -340 398zM588 1186l-254 260h229
l211 -260h-186z" />
    <glyph glyph-name="uacute" unicode="&#xfa;" horiz-adv-x="1362" 
d="M215 373v510h-174v153h373v-622q0 -125 40 -191.5t154 -66.5q150 0 243 120.5t93 282.5v324h-174v153h373v-839q0 -45 45 -45h108v-152h-215q-131 0 -131 115v45l4 61h-4q-10 -26 -35.5 -62t-71.5 -80t-122 -74t-166 -30q-340 0 -340 398zM530 1186l213 260h228
l-254 -260h-187z" />
    <glyph glyph-name="ucircumflex" unicode="&#xfb;" horiz-adv-x="1362" 
d="M215 373v510h-174v153h373v-622q0 -125 40 -191.5t154 -66.5q150 0 243 120.5t93 282.5v324h-174v153h373v-839q0 -45 45 -45h108v-152h-215q-131 0 -131 115v45l4 61h-4q-10 -26 -35.5 -62t-71.5 -80t-122 -74t-166 -30q-340 0 -340 398zM365 1186l180 260h215l180 -260
h-178l-109 164h-4l-106 -164h-178z" />
    <glyph glyph-name="udieresis" unicode="&#xfc;" horiz-adv-x="1362" 
d="M215 373v510h-174v153h373v-622q0 -125 40 -191.5t154 -66.5q150 0 243 120.5t93 282.5v324h-174v153h373v-839q0 -45 45 -45h108v-152h-215q-131 0 -131 115v45l4 61h-4q-10 -26 -35.5 -62t-71.5 -80t-122 -74t-166 -30q-340 0 -340 398zM770 1239v207h176v-207h-176z
M360 1239v207h177v-207h-177z" />
    <glyph glyph-name="yacute" unicode="&#xfd;" horiz-adv-x="1208" 
d="M131 -215q59 -49 148 -49q129 0 190 143l43 103l-362 901h-132v153h474v-153h-138l232 -617l18 -90h6q8 45 25 90l229 617h-133v153h459v-153h-129l-410 -1047q-51 -129 -146 -197.5t-218 -68.5q-60 0 -115 16.5t-82 32.5l-27 16zM492 1186l213 260h227l-254 -260h-186z
" />
    <glyph glyph-name="thorn" unicode="&#xfe;" horiz-adv-x="1245" 
d="M6 1292v154h367v-475l-4 -86h4q4 6 10 18t33.5 43t61.5 53.5t93.5 42t128.5 19.5q209 0 334 -151.5t125 -391t-130 -391.5t-335 -152q-67 0 -124.5 18.5t-92.5 43t-59.5 50.5t-34.5 44l-10 19h-4q4 -37 4 -91v-315h162v-154h-525v154h164v1548h-168zM367 516
q0 -162 80.5 -265.5t216.5 -103.5q127 0 210.5 102.5t83.5 268.5q0 164 -79.5 267.5t-210.5 103.5t-216 -92t-85 -281z" />
    <glyph glyph-name="ydieresis" unicode="&#xff;" horiz-adv-x="1208" 
d="M131 -215q59 -49 148 -49q129 0 190 143l43 103l-362 901h-132v153h474v-153h-138l232 -617l18 -90h6q8 45 25 90l229 617h-133v153h459v-153h-129l-410 -1047q-51 -129 -146 -197.5t-218 -68.5q-60 0 -115 16.5t-82 32.5l-27 16zM731 1239v207h176v-207h-176zM322 1239
v207h176v-207h-176z" />
    <glyph glyph-name="Amacron" unicode="&#x100;" horiz-adv-x="1477" 
d="M23 0v160h139l461 1286h231l461 -1286h139v-160h-502v160h154l-113 321h-512l-112 -321h155v-160h-501zM532 645h410l-176 502q-8 27 -14.5 54.5t-8.5 41.5l-2 14h-6q-6 -51 -24 -110zM477 1606v145h522v-145h-522z" />
    <glyph glyph-name="amacron" unicode="&#x101;" 
d="M68 289q0 78 31.5 138t88 97t117 60.5t136 35t125.5 14.5t106 3h65v39q0 221 -221 221q-74 0 -147.5 -24.5t-110.5 -49.5l-39 -26l-80 141q6 4 17.5 13.5t51.5 29.5t82 36.5t108.5 30t133.5 13.5q199 0 301.5 -101.5t102.5 -297.5v-463q0 -45 45 -45h104v-154h-206
q-129 0 -129 113v14l8 68h-4q-4 -9 -11.5 -24t-37 -53t-64.5 -66.5t-97.5 -52.5t-131.5 -24q-142 0 -243 82t-101 232zM268 305q0 -74 50.5 -125t136.5 -51q125 0 204.5 104.5t79.5 231.5v43h-51q-420 0 -420 -203zM279 1245v146h522v-146h-522z" />
    <glyph glyph-name="Abreve" unicode="&#x102;" horiz-adv-x="1477" 
d="M23 0v160h139l461 1286h231l461 -1286h139v-160h-502v160h154l-113 321h-512l-112 -321h155v-160h-501zM532 645h410l-176 502q-8 27 -14.5 54.5t-8.5 41.5l-2 14h-6q-6 -51 -24 -110zM737 1538q-114 0 -193 63.5t-79 176.5v28h151v-26q0 -60 35 -90.5t86 -30.5
q47 0 83 31.5t36 91.5v24h152v-28q0 -113 -79 -176.5t-192 -63.5z" />
    <glyph glyph-name="abreve" unicode="&#x103;" 
d="M68 289q0 78 31.5 138t88 97t117 60.5t136 35t125.5 14.5t106 3h65v39q0 221 -221 221q-74 0 -147.5 -24.5t-110.5 -49.5l-39 -26l-80 141q6 4 17.5 13.5t51.5 29.5t82 36.5t108.5 30t133.5 13.5q199 0 301.5 -101.5t102.5 -297.5v-463q0 -45 45 -45h104v-154h-206
q-129 0 -129 113v14l8 68h-4q-4 -9 -11.5 -24t-37 -53t-64.5 -66.5t-97.5 -52.5t-131.5 -24q-142 0 -243 82t-101 232zM268 305q0 -74 50.5 -125t136.5 -51q125 0 204.5 104.5t79.5 231.5v43h-51q-420 0 -420 -203zM539 1178q-115 0 -194 63.5t-79 175.5v29h152v-27
q0 -59 34.5 -90t86.5 -31q47 0 82.5 32t35.5 91v25h152v-29q0 -112 -79 -175.5t-191 -63.5z" />
    <glyph glyph-name="Aogonek" unicode="&#x104;" horiz-adv-x="1477" 
d="M1122 -244q0 140 138 244h-308v160h154l-113 321h-512l-112 -321h155v-160h-501v160h139l461 1286h231l461 -1286h139v-160h-10q-37 0 -101.5 -72.5t-64.5 -138.5q0 -49 43 -72.5t88 -27.5l-37 -140q-53 7 -103 23t-98.5 64.5t-48.5 119.5zM532 645h410l-176 502
q-8 27 -14.5 54.5t-8.5 41.5l-2 14h-6q-6 -51 -24 -110z" />
    <glyph glyph-name="aogonek" unicode="&#x105;" 
d="M752 -244q0 138 139 244h-19q-122 0 -122 113v14l8 68h-4q-4 -9 -11.5 -24t-37 -53t-64.5 -66.5t-97.5 -52.5t-131.5 -24q-142 0 -243 82t-101 232q0 78 31.5 138t88 97t117 60.5t136 35t125.5 14.5t106 3h65v39q0 221 -221 221q-74 0 -147.5 -24.5t-110.5 -49.5l-39 -26
l-80 141q6 4 17.5 13.5t51.5 29.5t82 36.5t108.5 30t133.5 13.5q199 0 301.5 -101.5t102.5 -297.5v-463q0 -45 45 -45h104v-154h-10q-37 0 -101.5 -72.5t-64.5 -138.5q0 -49 42 -72.5t87 -27.5l-37 -140q-36 5 -73 15t-80 32.5t-69.5 63.5t-26.5 96zM268 305
q0 -74 50.5 -125t136.5 -51q125 0 204.5 104.5t79.5 231.5v43h-51q-420 0 -420 -203z" />
    <glyph glyph-name="Cacute" unicode="&#x106;" horiz-adv-x="1524" 
d="M100 731q0 318 212 528.5t528 210.5q73 0 160 -14t178.5 -44t152 -90t60.5 -138v-176h-191v112q0 60 -62.5 101t-138 57t-151.5 16q-234 0 -385.5 -155.5t-151.5 -399.5q0 -256 156 -420.5t393 -164.5q66 0 141.5 13t147.5 54t72 103v112h190v-176q0 -76 -58.5 -134
t-149.5 -89t-182 -46.5t-173 -15.5q-324 0 -536 218.5t-212 537.5zM692 1546l213 260h228l-254 -260h-187z" />
    <glyph glyph-name="cacute" unicode="&#x107;" horiz-adv-x="1133" 
d="M82 516q0 236 157.5 390.5t391.5 154.5q63 0 128.5 -12.5t130 -38t105.5 -73.5t41 -112v-127h-176v72q0 55 -71.5 87t-151.5 32q-158 0 -255 -101.5t-97 -267.5q0 -172 104.5 -272.5t259.5 -100.5q80 0 161 33t103.5 49.5t67.5 51.5l76 -146q-174 -160 -416 -160
q-233 0 -396 148.5t-163 392.5zM481 1186l213 260h228l-254 -260h-187z" />
    <glyph glyph-name="Ccircumflex" unicode="&#x108;" horiz-adv-x="1524" 
d="M100 731q0 318 212 528.5t528 210.5q73 0 160 -14t178.5 -44t152 -90t60.5 -138v-176h-191v112q0 60 -62.5 101t-138 57t-151.5 16q-234 0 -385.5 -155.5t-151.5 -399.5q0 -256 156 -420.5t393 -164.5q66 0 141.5 13t147.5 54t72 103v112h190v-176q0 -76 -58.5 -134
t-149.5 -89t-182 -46.5t-173 -15.5q-324 0 -536 218.5t-212 537.5zM528 1546l181 260h215l180 -260h-178l-109 164h-4l-106 -164h-179z" />
    <glyph glyph-name="ccircumflex" unicode="&#x109;" horiz-adv-x="1133" 
d="M82 516q0 236 157.5 390.5t391.5 154.5q63 0 128.5 -12.5t130 -38t105.5 -73.5t41 -112v-127h-176v72q0 55 -71.5 87t-151.5 32q-158 0 -255 -101.5t-97 -267.5q0 -172 104.5 -272.5t259.5 -100.5q80 0 161 33t103.5 49.5t67.5 51.5l76 -146q-174 -160 -416 -160
q-233 0 -396 148.5t-163 392.5zM317 1186l181 260h215l180 -260h-178l-109 164h-4l-106 -164h-179z" />
    <glyph glyph-name="Cdotaccent" unicode="&#x10a;" horiz-adv-x="1524" 
d="M100 731q0 318 212 528.5t528 210.5q73 0 160 -14t178.5 -44t152 -90t60.5 -138v-176h-191v112q0 60 -62.5 101t-138 57t-151.5 16q-234 0 -385.5 -155.5t-151.5 -399.5q0 -256 156 -420.5t393 -164.5q66 0 141.5 13t147.5 54t72 103v112h190v-176q0 -76 -58.5 -134
t-149.5 -89t-182 -46.5t-173 -15.5q-324 0 -536 218.5t-212 537.5zM723 1606v200h186v-200h-186z" />
    <glyph glyph-name="cdotaccent" unicode="&#x10b;" horiz-adv-x="1133" 
d="M82 516q0 236 157.5 390.5t391.5 154.5q63 0 128.5 -12.5t130 -38t105.5 -73.5t41 -112v-127h-176v72q0 55 -71.5 87t-151.5 32q-158 0 -255 -101.5t-97 -267.5q0 -172 104.5 -272.5t259.5 -100.5q80 0 161 33t103.5 49.5t67.5 51.5l76 -146q-174 -160 -416 -160
q-233 0 -396 148.5t-163 392.5zM512 1245v201h186v-201h-186z" />
    <glyph glyph-name="Ccaron" unicode="&#x10c;" horiz-adv-x="1524" 
d="M100 731q0 318 212 528.5t528 210.5q73 0 160 -14t178.5 -44t152 -90t60.5 -138v-176h-191v112q0 60 -62.5 101t-138 57t-151.5 16q-234 0 -385.5 -155.5t-151.5 -399.5q0 -256 156 -420.5t393 -164.5q66 0 141.5 13t147.5 54t72 103v112h190v-176q0 -76 -58.5 -134
t-149.5 -89t-182 -46.5t-173 -15.5q-324 0 -536 218.5t-212 537.5zM709 1546l-181 260h179l106 -166h4l109 166h178l-180 -260h-215z" />
    <glyph glyph-name="ccaron" unicode="&#x10d;" horiz-adv-x="1133" 
d="M82 516q0 236 157.5 390.5t391.5 154.5q63 0 128.5 -12.5t130 -38t105.5 -73.5t41 -112v-127h-176v72q0 55 -71.5 87t-151.5 32q-158 0 -255 -101.5t-97 -267.5q0 -172 104.5 -272.5t259.5 -100.5q80 0 161 33t103.5 49.5t67.5 51.5l76 -146q-174 -160 -416 -160
q-233 0 -396 148.5t-163 392.5zM498 1186l-181 260h179l106 -166h4l109 166h178l-180 -260h-215z" />
    <glyph glyph-name="Dcaron" unicode="&#x10e;" horiz-adv-x="1595" 
d="M639 1546l-180 260h178l106 -166h5l108 166h178l-180 -260h-215zM109 0v160h180v1128h-180v158h616q190 0 307 -35q211 -65 334 -246.5t123 -441.5t-121 -438.5t-336 -245.5q-119 -39 -305 -39h-618zM494 168h221q151 0 246 37q147 51 231 186t84 332t-83 333t-230 189
q-93 33 -248 33h-221v-1110z" />
    <glyph glyph-name="dcaron" unicode="&#x10f;" horiz-adv-x="1288" 
d="M1208 1446h174q15 -43 15 -100q0 -78 -43 -141.5t-113 -100.5l-86 70q78 73 78 159q0 49 -25 113zM86 518q0 246 130 394.5t341 148.5q66 0 123 -18.5t92 -43t59.5 -50t34.5 -44.5l11 -18h4q-7 33 -7 78v327h-172v154h371v-1247q0 -45 45 -45h105v-154h-207
q-129 0 -129 113v14l6 55h-4q-4 -8 -11.5 -22.5t-36 -50t-64.5 -62.5t-100.5 -49.5t-137.5 -22.5q-207 0 -330 149.5t-123 393.5zM289 518q0 -168 81 -269.5t212 -101.5q125 0 212 93.5t87 275.5q0 154 -77 262.5t-216 108.5q-129 0 -214 -98.5t-85 -270.5z" />
    <glyph glyph-name="Dcroat" unicode="&#x110;" horiz-adv-x="1612" 
d="M109 0v160h180v479h-154v168h154v481h-180v158h663q336 0 534.5 -191.5t198.5 -529.5q0 -340 -198.5 -532.5t-534.5 -192.5h-663zM494 168h264q246 0 390 145.5t144 411.5q0 264 -145.5 408.5t-388.5 144.5h-264v-471h317v-168h-317v-471z" />
    <glyph glyph-name="dcroat" unicode="&#x111;" horiz-adv-x="1288" 
d="M86 518q0 246 130 394.5t341 148.5q66 0 123 -18.5t92 -45t59.5 -52t34.5 -44.5l11 -18h4q-7 35 -7 78v196h-307v129h307v160h199v-160h156v-129h-156v-958q0 -45 45 -45h105v-154h-207q-129 0 -129 113v14l6 55h-4q-4 -8 -11.5 -22.5t-36 -50t-64.5 -62.5t-100.5 -49.5
t-137.5 -22.5q-207 0 -330 149.5t-123 393.5zM289 518q0 -168 81 -269.5t212 -101.5q125 0 212 93.5t87 275.5q0 154 -77 262.5t-216 108.5q-129 0 -214 -98.5t-85 -270.5z" />
    <glyph glyph-name="Emacron" unicode="&#x112;" horiz-adv-x="1294" 
d="M109 0v160h180v1128h-180v158h1046v-336h-178v168h-483v-465h512v-168h-512v-477h518v174h178v-342h-1081zM408 1606v145h522v-145h-522z" />
    <glyph glyph-name="emacron" unicode="&#x113;" 
d="M84 518q0 244 146.5 393.5t371.5 149.5q213 0 331 -137.5t118 -348.5l-7 -75h-757q8 -166 110.5 -259.5t247.5 -93.5q80 0 158 29t115 57l36 31l82 -145q-18 -17 -50 -40.5t-137.5 -63.5t-215.5 -40q-242 0 -395.5 155t-153.5 388zM295 627h551q-4 131 -75 203.5
t-173 72.5q-115 0 -199 -73.5t-104 -202.5zM344 1245v146h522v-146h-522z" />
    <glyph glyph-name="Ebreve" unicode="&#x114;" horiz-adv-x="1294" 
d="M109 0v160h180v1128h-180v158h1046v-336h-178v168h-483v-465h512v-168h-512v-477h518v174h178v-342h-1081zM668 1538q-115 0 -194 63.5t-79 176.5v28h152v-26q0 -60 34.5 -90.5t86.5 -30.5q47 0 82.5 31.5t35.5 91.5v24h152v-28q0 -113 -79 -176.5t-191 -63.5z" />
    <glyph glyph-name="ebreve" unicode="&#x115;" 
d="M84 518q0 244 146.5 393.5t371.5 149.5q213 0 331 -137.5t118 -348.5l-7 -75h-757q8 -166 110.5 -259.5t247.5 -93.5q80 0 158 29t115 57l36 31l82 -145q-18 -17 -50 -40.5t-137.5 -63.5t-215.5 -40q-242 0 -395.5 155t-153.5 388zM295 627h551q-4 131 -75 203.5
t-173 72.5q-115 0 -199 -73.5t-104 -202.5zM604 1178q-115 0 -193.5 63.5t-78.5 175.5v29h151v-27q0 -59 35 -90t86 -31q47 0 83 32t36 91v25h151v-29q0 -112 -78.5 -175.5t-191.5 -63.5z" />
    <glyph glyph-name="Edotaccent" unicode="&#x116;" horiz-adv-x="1294" 
d="M109 0v160h180v1128h-180v158h1046v-336h-178v168h-483v-465h512v-168h-512v-477h518v174h178v-342h-1081zM573 1606v200h187v-200h-187z" />
    <glyph glyph-name="edotaccent" unicode="&#x117;" 
d="M84 518q0 244 146.5 393.5t371.5 149.5q213 0 331 -137.5t118 -348.5l-7 -75h-757q8 -166 110.5 -259.5t247.5 -93.5q80 0 158 29t115 57l36 31l82 -145q-18 -17 -50 -40.5t-137.5 -63.5t-215.5 -40q-242 0 -395.5 155t-153.5 388zM295 627h551q-4 131 -75 203.5
t-173 72.5q-115 0 -199 -73.5t-104 -202.5zM510 1245v201h186v-201h-186z" />
    <glyph glyph-name="Eogonek" unicode="&#x118;" horiz-adv-x="1294" 
d="M109 0v160h180v1128h-180v158h1046v-336h-178v168h-483v-465h512v-168h-512v-477h518v174h178v-342h-12q-37 0 -102.5 -72.5t-65.5 -138.5q0 -49 42 -72.5t87 -27.5l-37 -140q-37 5 -74 15t-80 32.5t-69.5 63.5t-26.5 96q0 138 139 244h-882z" />
    <glyph glyph-name="eogonek" unicode="&#x119;" 
d="M84 518q0 244 146.5 393.5t371.5 149.5q213 0 331 -137.5t118 -348.5l-7 -75h-757q8 -166 110.5 -259.5t247.5 -93.5q80 0 158 29t115 57l36 31l82 -145q-71 -56 -172 -107q-43 -22 -102.5 -84.5t-59.5 -138.5q0 -49 42 -72.5t87 -27.5l-36 -140q-37 5 -74 15t-80 32.5
t-69.5 63.5t-26.5 96q0 121 112 221q-251 -12 -412 147t-161 394zM295 627h551q-4 131 -75 203.5t-173 72.5q-115 0 -199 -73.5t-104 -202.5z" />
    <glyph glyph-name="Ecaron" unicode="&#x11a;" horiz-adv-x="1294" 
d="M109 0v160h180v1128h-180v158h1046v-336h-178v168h-483v-465h512v-168h-512v-477h518v174h178v-342h-1081zM561 1546l-180 260h178l107 -166h4l108 166h178l-180 -260h-215z" />
    <glyph glyph-name="ecaron" unicode="&#x11b;" 
d="M84 518q0 244 146.5 393.5t371.5 149.5q213 0 331 -137.5t118 -348.5l-7 -75h-757q8 -166 110.5 -259.5t247.5 -93.5q80 0 158 29t115 57l36 31l82 -145q-18 -17 -50 -40.5t-137.5 -63.5t-215.5 -40q-242 0 -395.5 155t-153.5 388zM295 627h551q-4 131 -75 203.5
t-173 72.5q-115 0 -199 -73.5t-104 -202.5zM496 1186l-181 260h179l106 -166h4l109 166h178l-180 -260h-215z" />
    <glyph glyph-name="Gcircumflex" unicode="&#x11c;" horiz-adv-x="1569" 
d="M858 1470q131 0 256 -31.5t212 -99t87 -153.5v-178h-188v106q0 84 -109.5 132t-251.5 48q-252 0 -401.5 -154.5t-149.5 -406.5q0 -254 152.5 -416.5t404.5 -162.5q78 0 160 14t154.5 57t72.5 109v190h-282v160h471v-405q0 -80 -60.5 -141.5t-154.5 -95.5t-190.5 -50.5
t-184.5 -16.5q-332 0 -544 214t-212 538t211 533.5t547 209.5zM543 1546l180 260h215l180 -260h-178l-109 164h-4l-106 -164h-178z" />
    <glyph glyph-name="gcircumflex" unicode="&#x11d;" horiz-adv-x="1282" 
d="M248 -193q129 -69 284 -69q146 0 237 71.5t91 223.5v82l6 65h-4q-100 -168 -311 -168t-337 150.5t-126 380t122 374t333 144.5q108 0 201.5 -43t134.5 -127h4q-4 14 -4 41q0 104 118 104h222v-153h-115q-45 0 -45 -41v-799q0 -123 -44 -217t-120 -148.5t-166 -81
t-192 -26.5q-183 0 -355 86zM590 184q121 0 197.5 84t76.5 273q0 348 -293 348q-133 0 -206.5 -91t-73.5 -251q0 -164 81 -263.5t218 -99.5zM326 1186l180 260h215l180 -260h-178l-109 164h-4l-106 -164h-178z" />
    <glyph glyph-name="Gbreve" unicode="&#x11e;" horiz-adv-x="1569" 
d="M858 1470q131 0 256 -31.5t212 -99t87 -153.5v-178h-188v106q0 84 -109.5 132t-251.5 48q-252 0 -401.5 -154.5t-149.5 -406.5q0 -254 152.5 -416.5t404.5 -162.5q78 0 160 14t154.5 57t72.5 109v190h-282v160h471v-405q0 -80 -60.5 -141.5t-154.5 -95.5t-190.5 -50.5
t-184.5 -16.5q-332 0 -544 214t-212 538t211 533.5t547 209.5zM831 1538q-114 0 -193 63.5t-79 176.5v28h152v-26q0 -60 34.5 -90.5t85.5 -30.5q48 0 83.5 31.5t35.5 91.5v24h152v-28q0 -113 -79 -176.5t-192 -63.5z" />
    <glyph glyph-name="gbreve" unicode="&#x11f;" horiz-adv-x="1282" 
d="M248 -193q129 -69 284 -69q146 0 237 71.5t91 223.5v82l6 65h-4q-100 -168 -311 -168t-337 150.5t-126 380t122 374t333 144.5q108 0 201.5 -43t134.5 -127h4q-4 14 -4 41q0 104 118 104h222v-153h-115q-45 0 -45 -41v-799q0 -123 -44 -217t-120 -148.5t-166 -81
t-192 -26.5q-183 0 -355 86zM590 184q121 0 197.5 84t76.5 273q0 348 -293 348q-133 0 -206.5 -91t-73.5 -251q0 -164 81 -263.5t218 -99.5zM614 1178q-114 0 -193 63.5t-79 175.5v29h152v-27q0 -59 34.5 -90t85.5 -31q48 0 83.5 32t35.5 91v25h152v-29q0 -112 -79 -175.5
t-192 -63.5z" />
    <glyph glyph-name="Gdotaccent" unicode="&#x120;" horiz-adv-x="1569" 
d="M858 1470q131 0 256 -31.5t212 -99t87 -153.5v-178h-188v106q0 84 -109.5 132t-251.5 48q-252 0 -401.5 -154.5t-149.5 -406.5q0 -254 152.5 -416.5t404.5 -162.5q78 0 160 14t154.5 57t72.5 109v190h-282v160h471v-405q0 -80 -60.5 -141.5t-154.5 -95.5t-190.5 -50.5
t-184.5 -16.5q-332 0 -544 214t-212 538t211 533.5t547 209.5zM737 1606v200h187v-200h-187z" />
    <glyph glyph-name="gdotaccent" unicode="&#x121;" horiz-adv-x="1282" 
d="M248 -193q129 -69 284 -69q146 0 237 71.5t91 223.5v82l6 65h-4q-100 -168 -311 -168t-337 150.5t-126 380t122 374t333 144.5q108 0 201.5 -43t134.5 -127h4q-4 14 -4 41q0 104 118 104h222v-153h-115q-45 0 -45 -41v-799q0 -123 -44 -217t-120 -148.5t-166 -81
t-192 -26.5q-183 0 -355 86zM590 184q121 0 197.5 84t76.5 273q0 348 -293 348q-133 0 -206.5 -91t-73.5 -251q0 -164 81 -263.5t218 -99.5zM520 1245v201h187v-201h-187z" />
    <glyph glyph-name="Gcommaaccent" unicode="&#x122;" horiz-adv-x="1569" 
d="M858 1470q131 0 256 -31.5t212 -99t87 -153.5v-178h-188v106q0 84 -109.5 132t-251.5 48q-252 0 -401.5 -154.5t-149.5 -406.5q0 -254 152.5 -416.5t404.5 -162.5q78 0 160 14t154.5 57t72.5 109v190h-282v160h471v-405q0 -80 -60.5 -141.5t-154.5 -95.5t-190.5 -50.5
t-184.5 -16.5q-332 0 -544 214t-212 538t211 533.5t547 209.5zM739 -119h174q15 -43 15 -100q0 -78 -43 -141.5t-113 -100.5l-86 70q78 74 78 160q0 47 -25 112z" />
    <glyph glyph-name="gcommaaccent" unicode="&#x123;" horiz-adv-x="1282" 
d="M680 1178h-174q-14 43 -14 100q0 78 43 141.5t112 100.5l86 -70q-78 -74 -78 -160q0 -49 25 -112zM248 -193q129 -69 284 -69q146 0 237 71.5t91 223.5v82l6 65h-4q-100 -168 -311 -168t-337 150.5t-126 380t122 374t333 144.5q108 0 201.5 -43t134.5 -127h4q-4 14 -4 41
q0 104 118 104h222v-153h-115q-45 0 -45 -41v-799q0 -123 -44 -217t-120 -148.5t-166 -81t-192 -26.5q-183 0 -355 86zM590 184q121 0 197.5 84t76.5 273q0 348 -293 348q-133 0 -206.5 -91t-73.5 -251q0 -164 81 -263.5t218 -99.5z" />
    <glyph glyph-name="Hcircumflex" unicode="&#x124;" horiz-adv-x="1737" 
d="M109 0v160h180v1128h-180v158h567v-158h-182v-481h749v481h-182v158h567v-158h-180v-1128h180v-160h-567v160h182v479h-749v-479h182v-160h-567zM582 1546l180 260h215l180 -260h-178l-109 164h-4l-106 -164h-178z" />
    <glyph glyph-name="hcircumflex" unicode="&#x125;" horiz-adv-x="1380" 
d="M66 0v154h163v1138h-174v154h371v-537l-6 -86h4q41 90 143.5 164t243.5 74q356 0 356 -397v-510h162v-154h-360v618q0 125 -41 193t-156 68q-151 0 -248.5 -113t-97.5 -281v-331h164v-154h-524zM39 1546l180 260h215l180 -260h-178l-108 164h-4l-107 -164h-178z" />
    <glyph glyph-name="Hbar" unicode="&#x126;" horiz-adv-x="1737" 
d="M121 987v117h168v184h-180v158h567v-158h-182v-184h749v184h-182v158h567v-158h-180v-184h170v-117h-170v-827h180v-160h-567v160h182v471h-749v-471h182v-160h-567v160h180v827h-168zM494 772h749v215h-749v-215z" />
    <glyph glyph-name="hbar" unicode="&#x127;" horiz-adv-x="1380" 
d="M66 0v154h163v1003h-147v127h147v162h197v-162h315v-127h-315v-248l-6 -86h4q41 90 143.5 164t243.5 74q356 0 356 -397v-510h162v-154h-360v618q0 125 -41 193t-156 68q-151 0 -248.5 -115t-97.5 -275v-335h152v-154h-512z" />
    <glyph glyph-name="Itilde" unicode="&#x128;" horiz-adv-x="782" 
d="M43 1548q0 260 209 260q49 0 90 -21.5t63.5 -47t51 -47t55.5 -21.5q82 0 82 131h147q0 -260 -209 -260q-49 0 -90 21.5t-63.5 47t-51 47t-55.5 21.5q-82 0 -82 -131h-147zM109 0v160h180v1128h-180v158h567v-158h-182v-1128h182v-160h-567z" />
    <glyph glyph-name="itilde" unicode="&#x129;" horiz-adv-x="688" 
d="M-2 1188q0 260 209 260q49 0 90 -21.5t63.5 -47t51 -47t55.5 -21.5q82 0 82 131h147q0 -260 -209 -260q-49 0 -90 21.5t-63.5 47t-51 47t-55.5 21.5q-82 0 -82 -131h-147zM96 0v154h152v729h-156v153h354v-882h150v-154h-500z" />
    <glyph glyph-name="Imacron" unicode="&#x12a;" horiz-adv-x="782" 
d="M109 0v160h180v1128h-180v158h567v-158h-182v-1128h182v-160h-567zM131 1606v145h522v-145h-522z" />
    <glyph glyph-name="imacron" unicode="&#x12b;" horiz-adv-x="662" 
d="M96 0v154h152v729h-156v153h354v-882h150v-154h-500zM86 1245v146h522v-146h-522z" />
    <glyph glyph-name="Ibreve" unicode="&#x12c;" horiz-adv-x="782" 
d="M109 0v160h180v1128h-180v158h567v-158h-182v-1128h182v-160h-567zM393 1538q-114 0 -193 63.5t-79 176.5v28h151v-26q0 -60 35 -90.5t86 -30.5q47 0 83 31.5t36 91.5v24h152v-28q0 -113 -79 -176.5t-192 -63.5z" />
    <glyph glyph-name="ibreve" unicode="&#x12d;" horiz-adv-x="662" 
d="M346 1178q-115 0 -193.5 63.5t-78.5 175.5v29h151v-27q0 -59 35 -90t86 -31q47 0 83 32t36 91v25h151v-29q0 -112 -78.5 -175.5t-191.5 -63.5zM96 0v154h152v729h-156v153h354v-882h150v-154h-500z" />
    <glyph glyph-name="Iogonek" unicode="&#x12e;" horiz-adv-x="782" 
d="M109 0v160h180v1128h-180v158h567v-158h-182v-1128h182v-160h-17q-38 -2 -101.5 -73.5t-63.5 -137.5q0 -49 43 -72.5t88 -27.5l-37 -140q-53 7 -103.5 23t-98.5 64.5t-48 119.5q0 140 137 244h-366z" />
    <glyph glyph-name="iogonek" unicode="&#x12f;" horiz-adv-x="688" 
d="M98 0v154h162v729h-172v153h371v-882h164v-154h-15q-37 0 -101.5 -72.5t-64.5 -138.5q0 -49 43 -72.5t88 -27.5l-38 -140q-37 5 -74 15t-80 32.5t-69.5 63.5t-26.5 96q0 138 139 244h-326zM256 1243v203h209v-203h-209z" />
    <glyph glyph-name="Idotaccent" unicode="&#x130;" horiz-adv-x="782" 
d="M109 0v160h180v1128h-180v158h567v-158h-182v-1128h182v-160h-567zM299 1606v200h186v-200h-186z" />
    <glyph glyph-name="dotlessi" unicode="&#x131;" horiz-adv-x="662" 
d="M96 0v154h152v729h-156v153h354v-882h150v-154h-500z" />
    <glyph glyph-name="IJ" unicode="&#x132;" horiz-adv-x="1503" 
d="M109 0v160h180v1128h-180v158h567v-158h-182v-1128h155v-160h-540zM762 164q51 -2 95 9t89 41t71.5 93.5t26.5 153.5v827h-190v158h569v-158h-174v-811q0 -145 -42 -246.5t-115.5 -151.5t-154.5 -69.5t-175 -15.5v170z" />
    <glyph glyph-name="ij" unicode="&#x133;" horiz-adv-x="1241" 
d="M864 1243v203h209v-203h-209zM602 -256q19 -2 45.5 -2t52 4t57 18.5t55.5 39t40 68.5t16 103v908h-174v153h373v-1067q0 -98 -29.5 -173t-72.5 -114.5t-100.5 -64.5t-102.5 -32t-92 -7l-68 4v162zM256 1243v203h209v-203h-209zM98 0v154h162v729h-172v153h371v-882h164
v-154h-525z" />
    <glyph glyph-name="Jcircumflex" unicode="&#x134;" 
d="M49 403v84h199v-63q0 -115 55 -190.5t168 -75.5q96 0 157.5 64.5t61.5 201.5v864h-209v158h576v-158h-162v-876q0 -217 -126 -327t-300 -110t-297 106.5t-123 321.5zM502 1546l180 260h215l180 -260h-178l-108 164h-5l-106 -164h-178z" />
    <glyph glyph-name="jcircumflex" unicode="&#x135;" horiz-adv-x="606" 
d="M-8 1186l180 260h215l180 -260h-178l-108 166h-5l-106 -166h-178zM-33 -256q19 -2 45.5 -2t52 4t57.5 18.5t55.5 39t39.5 68.5t16 103v908h-174v153h373v-1067q0 -98 -29.5 -173t-72.5 -114.5t-100.5 -64.5t-102.5 -32t-92 -7l-68 4v162z" />
    <glyph glyph-name="Kcommaaccent" unicode="&#x136;" horiz-adv-x="1417" 
d="M109 0v160h180v1128h-180v158h542v-158h-157v-454h186l315 454h-133v158h490v-158h-140l-374 -522v-4q41 -19 82 -96l260 -453q30 -53 102 -53h68v-160h-146q-86 0 -126 22.5t-74 86.5l-279 499q-35 58 -113 58h-118v-506h178v-160h-563zM649 -119h174q15 -43 15 -100
q0 -78 -43 -141.5t-113 -100.5l-86 70q78 74 78 160q0 47 -25 112z" />
    <glyph glyph-name="kcommaaccent" unicode="&#x137;" horiz-adv-x="1202" 
d="M66 0v154h163v1138h-174v154h371v-807h152l206 244h-135v153h471v-153h-137l-256 -299v-4q2 0 11.5 -5.5t27.5 -27t37 -51.5l176 -301q25 -41 90 -41h66v-154h-156q-72 0 -104.5 18.5t-65.5 77.5l-205 350q-24 41 -96 41h-82v-333h139v-154h-499zM559 -119h174
q15 -43 15 -100q0 -78 -43 -141.5t-113 -100.5l-86 70q78 74 78 160q0 47 -25 112z" />
    <glyph glyph-name="kgreenlandic" unicode="&#x138;" horiz-adv-x="1233" 
d="M98 0v154h162v729h-172v153h371v-391h155l201 238h-133v153h467v-153h-135l-254 -299v-4q2 0 11 -7.5t28.5 -29t38.5 -51.5l174 -297q16 -25 33.5 -33t56.5 -8h65v-154h-155q-72 0 -105 18.5t-67 77.5l-203 350q-25 41 -96 41h-82v-333h139v-154h-500z" />
    <glyph glyph-name="Lacute" unicode="&#x139;" horiz-adv-x="1237" 
d="M111 0v160h180v1118h-180v168h567v-168h-182v-1110h503v233h181v-401h-1069zM266 1546l213 260h228l-254 -260h-187z" />
    <glyph glyph-name="lacute" unicode="&#x13a;" horiz-adv-x="600" 
d="M174 295v997h-172v154h371v-1139q0 -74 23.5 -110.5t86.5 -36.5l56 2l-2 -164q-41 -4 -88 -4q-275 0 -275 301zM152 1546l213 260h227l-254 -260h-186z" />
    <glyph glyph-name="Lcommaaccent" unicode="&#x13b;" horiz-adv-x="1237" 
d="M610 -119h174q15 -43 15 -100q0 -78 -43 -141.5t-113 -100.5l-86 70q78 74 78 160q0 47 -25 112zM111 0v160h180v1118h-180v168h567v-168h-182v-1110h503v233h181v-401h-1069z" />
    <glyph glyph-name="lcommaaccent" unicode="&#x13c;" horiz-adv-x="600" 
d="M174 295v997h-172v154h371v-1139q0 -74 23.5 -110.5t86.5 -36.5l56 2l-2 -164q-41 -4 -88 -4q-275 0 -275 301zM258 -119h174q14 -43 14 -100q0 -78 -43 -141.5t-112 -100.5l-86 70q78 74 78 160q0 47 -25 112z" />
    <glyph glyph-name="Lcaron" unicode="&#x13d;" horiz-adv-x="1237" 
d="M610 -119h174q15 -43 15 -100q0 -78 -43 -141.5t-113 -100.5l-86 70q78 74 78 160q0 47 -25 112zM111 0v160h180v1118h-180v168h567v-168h-182v-1110h503v233h181v-401h-1069z" />
    <glyph glyph-name="lcaron" unicode="&#x13e;" horiz-adv-x="600" 
d="M520 1444h174q15 -43 15 -101q0 -77 -43 -140.5t-113 -100.5l-86 69q78 74 78 160q0 49 -25 113zM174 295v997h-172v154h371v-1139q0 -74 23.5 -110.5t86.5 -36.5l56 2l-2 -164q-41 -4 -88 -4q-275 0 -275 301z" />
    <glyph glyph-name="Ldot" unicode="&#x13f;" horiz-adv-x="1237" 
d="M111 0v160h180v1118h-180v168h567v-168h-182v-1110h503v233h181v-401h-1069zM733 668v217h209v-217h-209z" />
    <glyph glyph-name="ldot" unicode="&#x140;" horiz-adv-x="758" 
d="M174 295v997h-172v154h371v-1139q0 -74 23.5 -110.5t86.5 -36.5l56 2l-2 -164q-41 -4 -88 -4q-275 0 -275 301zM545 668v217h209v-217h-209z" />
    <glyph glyph-name="Lslash" unicode="&#x141;" horiz-adv-x="1235" 
d="M109 0v160h180v405l-174 -90v180l174 93v530h-180v168h567v-168h-182v-422l415 217v-182l-415 -217v-506h512v233h172v-401h-1069z" />
    <glyph glyph-name="lslash" unicode="&#x142;" horiz-adv-x="600" 
d="M8 578v182l166 92v440h-172v154h371v-483l186 106v-182l-186 -107v-471q0 -73 23.5 -110t88.5 -37l54 2l-2 -166q-41 -4 -86 -4q-127 0 -202 66.5t-75 234.5v377z" />
    <glyph glyph-name="Nacute" unicode="&#x143;" horiz-adv-x="1716" 
d="M109 0v160h180v1128h-180v158h383l710 -1036l49 -105h6q-10 72 -10 117v866h-184v158h571v-158h-182v-1288h-201l-710 1036q-13 19 -25 44.5t-18 41.5l-6 19h-7l9 -117v-864h186v-160h-571zM745 1546l213 260h228l-254 -260h-187z" />
    <glyph glyph-name="nacute" unicode="&#x144;" horiz-adv-x="1411" 
d="M98 0v154h162v684q0 45 -45 45h-127v153h234q131 0 131 -114v-54l-7 -59h5q10 27 36.5 63.5t72.5 81.5t124 76t170 31q176 0 260 -98.5t84 -298.5v-510h164v-154h-363v618q0 125 -39.5 193t-154.5 68q-152 0 -249 -118t-97 -280v-327h164v-154h-525zM623 1186l213 260
h227l-254 -260h-186z" />
    <glyph glyph-name="Ncommaaccent" unicode="&#x145;" horiz-adv-x="1716" 
d="M109 0v160h180v1128h-180v158h383l710 -1036l49 -105h6q-10 72 -10 117v866h-184v158h571v-158h-182v-1288h-201l-710 1036q-13 19 -25 44.5t-18 41.5l-6 19h-7l9 -117v-864h186v-160h-571zM780 -119h174q15 -43 15 -100q0 -78 -43 -141.5t-113 -100.5l-86 70
q78 74 78 160q0 47 -25 112z" />
    <glyph glyph-name="ncommaaccent" unicode="&#x146;" horiz-adv-x="1411" 
d="M98 0v154h162v684q0 45 -45 45h-127v153h234q131 0 131 -114v-54l-7 -59h5q10 27 36.5 63.5t72.5 81.5t124 76t170 31q176 0 260 -98.5t84 -298.5v-510h164v-154h-363v618q0 125 -39.5 193t-154.5 68q-152 0 -249 -118t-97 -280v-327h164v-154h-525zM637 -119h174
q14 -43 14 -100q0 -78 -43 -141.5t-112 -100.5l-86 70q78 74 78 160q0 47 -25 112z" />
    <glyph glyph-name="Ncaron" unicode="&#x147;" horiz-adv-x="1716" 
d="M109 0v160h180v1128h-180v158h383l710 -1036l49 -105h6q-10 72 -10 117v866h-184v158h571v-158h-182v-1288h-201l-710 1036q-13 19 -25 44.5t-18 41.5l-6 19h-7l9 -117v-864h186v-160h-571zM762 1546l-180 260h178l106 -166h4l109 166h178l-180 -260h-215z" />
    <glyph glyph-name="ncaron" unicode="&#x148;" horiz-adv-x="1411" 
d="M98 0v154h162v684q0 45 -45 45h-127v153h234q131 0 131 -114v-54l-7 -59h5q10 27 36.5 63.5t72.5 81.5t124 76t170 31q176 0 260 -98.5t84 -298.5v-510h164v-154h-363v618q0 125 -39.5 193t-154.5 68q-152 0 -249 -118t-97 -280v-327h164v-154h-525zM639 1186l-180 260
h178l106 -166h5l108 166h178l-180 -260h-215z" />
    <glyph glyph-name="napostrophe" unicode="&#x149;" horiz-adv-x="1411" 
d="M98 0v154h162v684q0 45 -45 45h-127v153h234q131 0 131 -114v-54l-7 -59h5q10 27 36.5 63.5t72.5 81.5t124 76t170 31q176 0 260 -98.5t84 -298.5v-510h164v-154h-363v618q0 125 -39.5 193t-154.5 68q-152 0 -249 -118t-97 -280v-327h164v-154h-525zM106 1477h175
q14 -43 14 -101q0 -78 -43 -141.5t-113 -99.5l-86 69q78 74 78 160q0 47 -25 113z" />
    <glyph glyph-name="Eng" unicode="&#x14a;" horiz-adv-x="1716" 
d="M109 0v160h180v1128h-180v158h387l706 -1036l49 -105h6q-10 72 -10 117v866h-184v158h571v-158h-182v-1233q0 -475 -479 -475v176q114 0 195 59.5t83 180.5l-710 1040q-13 19 -25 44.5t-18 41.5l-6 19h-7l9 -117v-864h186v-160h-571z" />
    <glyph glyph-name="eng" unicode="&#x14b;" horiz-adv-x="1352" 
d="M98 0v154h162v684q0 45 -45 45h-127v153h234q131 0 131 -114v-54l-7 -59h5q10 27 36.5 63.5t72.5 81.5t124 76t170 31q176 0 260 -98.5t84 -298.5v-705q0 -121 -42 -205t-109.5 -119.5t-125 -49t-118.5 -13.5l-70 4v166q19 -2 45 -2q35 0 68 8t70.5 28.5t60 70
t22.5 120.5v651q0 125 -39.5 193t-154.5 68q-152 0 -249 -120t-97 -282v-323h164v-154h-525z" />
    <glyph glyph-name="Omacron" unicode="&#x14c;" horiz-adv-x="1683" 
d="M98 733q0 311 214 524t530 213q313 0 528 -213t215 -524q0 -319 -215 -538.5t-528 -219.5q-316 0 -530 219.5t-214 538.5zM309 733q0 -244 154.5 -409.5t378.5 -165.5q221 0 375.5 165.5t154.5 409.5q0 236 -154.5 396.5t-375.5 160.5q-224 0 -378.5 -160.5
t-154.5 -396.5zM582 1606v145h522v-145h-522z" />
    <glyph glyph-name="omacron" unicode="&#x14d;" horiz-adv-x="1282" 
d="M244 131q-162 156 -162 389.5t162 387t397.5 153.5t397 -153.5t161.5 -387t-163 -389.5t-396 -156t-397 156zM285 520q0 -162 103.5 -267.5t252.5 -105.5q147 0 251.5 106.5t104.5 266.5t-104.5 264.5t-251.5 104.5q-149 0 -252.5 -104.5t-103.5 -264.5zM381 1245v146
h522v-146h-522z" />
    <glyph glyph-name="Obreve" unicode="&#x14e;" horiz-adv-x="1683" 
d="M98 733q0 311 214 524t530 213q313 0 528 -213t215 -524q0 -319 -215 -538.5t-528 -219.5q-316 0 -530 219.5t-214 538.5zM309 733q0 -244 154.5 -409.5t378.5 -165.5q221 0 375.5 165.5t154.5 409.5q0 236 -154.5 396.5t-375.5 160.5q-224 0 -378.5 -160.5
t-154.5 -396.5zM842 1538q-115 0 -194 63.5t-79 176.5v28h152v-26q0 -60 35 -90.5t86 -30.5q47 0 83 31.5t36 91.5v24h151v-28q0 -113 -79 -176.5t-191 -63.5z" />
    <glyph glyph-name="obreve" unicode="&#x14f;" horiz-adv-x="1282" 
d="M244 131q-162 156 -162 389.5t162 387t397.5 153.5t397 -153.5t161.5 -387t-163 -389.5t-396 -156t-397 156zM285 520q0 -162 103.5 -267.5t252.5 -105.5q147 0 251.5 106.5t104.5 266.5t-104.5 264.5t-251.5 104.5q-149 0 -252.5 -104.5t-103.5 -264.5zM641 1178
q-115 0 -193.5 63.5t-78.5 175.5v29h151v-27q0 -59 35 -90t86 -31q47 0 83 32t36 91v25h151v-29q0 -112 -78.5 -175.5t-191.5 -63.5z" />
    <glyph glyph-name="Ohungarumlaut" unicode="&#x150;" horiz-adv-x="1683" 
d="M98 733q0 311 214 524t530 213q313 0 528 -213t215 -524q0 -319 -215 -538.5t-528 -219.5q-316 0 -530 219.5t-214 538.5zM309 733q0 -244 154.5 -409.5t378.5 -165.5q221 0 375.5 165.5t154.5 409.5q0 236 -154.5 396.5t-375.5 160.5q-224 0 -378.5 -160.5
t-154.5 -396.5zM885 1546l149 260h211l-194 -260h-166zM569 1546l140 260h182l-143 -260h-179z" />
    <glyph glyph-name="ohungarumlaut" unicode="&#x151;" horiz-adv-x="1282" 
d="M244 131q-162 156 -162 389.5t162 387t397.5 153.5t397 -153.5t161.5 -387t-163 -389.5t-396 -156t-397 156zM285 520q0 -162 103.5 -267.5t252.5 -105.5q147 0 251.5 106.5t104.5 266.5t-104.5 264.5t-251.5 104.5q-149 0 -252.5 -104.5t-103.5 -264.5zM684 1186
l150 260h210l-194 -260h-166zM369 1186l139 260h182l-143 -260h-178z" />
    <glyph glyph-name="OE" unicode="&#x152;" horiz-adv-x="1995" 
d="M100 725q0 313 215 526t535 213q53 0 135 -9t115 -9h755v-336h-169v168h-486v-467h506v-166h-506v-477h520v170h170v-338h-788q-33 0 -116 -9t-136 -9q-320 0 -535 214t-215 529zM309 725q0 -244 151.5 -407.5t389.5 -163.5q37 0 72.5 4t54.5 8l18 4v1108q-63 14 -145 14
q-238 0 -389.5 -162.5t-151.5 -404.5z" />
    <glyph glyph-name="oe" unicode="&#x153;" horiz-adv-x="2048" 
d="M633 1061q303 0 450 -246h4q132 246 426 246q211 0 330 -137.5t119 -348.5l-6 -77h-756q12 -168 113.5 -261.5t242.5 -93.5q80 0 157 30t114 60l37 29l82 -139q-19 -17 -50.5 -41.5t-137 -65.5t-214.5 -41q-313 0 -452 252h-5q-147 -252 -452 -252q-234 0 -393.5 150.5
t-159.5 390.5t159.5 392.5t391.5 152.5zM1206 627h553q-4 129 -74.5 202.5t-173.5 73.5q-116 0 -200 -73.5t-105 -202.5zM285 516q0 -164 102 -266.5t251.5 -102.5t253 103.5t103.5 271.5q0 162 -104.5 264.5t-251.5 102.5t-250.5 -103.5t-103.5 -269.5z" />
    <glyph glyph-name="Racute" unicode="&#x154;" horiz-adv-x="1438" 
d="M109 0v160h180v1128h-180v158h626q174 0 266 -31q117 -39 184.5 -135t67.5 -240q0 -155 -79.5 -262.5t-219.5 -142.5v-4q37 -21 62 -68l205 -356q26 -47 100 -47h43v-160h-123q-90 0 -126 20.5t-75 88.5l-223 395q-29 47 -58.5 63.5t-92.5 16.5h-172v-424h178v-160h-563z
M494 752h290q119 0 191 72.5t72 199.5q0 172 -136 227q-67 27 -178 27h-239v-526zM563 1546l213 260h228l-254 -260h-187z" />
    <glyph glyph-name="racute" unicode="&#x155;" horiz-adv-x="866" 
d="M102 0v154h156v684q0 45 -45 45h-129v153h233q134 0 134 -121v-65l-5 -72h5q36 119 123.5 195t203.5 76l51 -5v-196q-24 6 -57 6q-154 0 -234.5 -128t-80.5 -298v-274h153v-154h-508zM377 1186l213 260h227l-254 -260h-186z" />
    <glyph glyph-name="Rcommaaccent" unicode="&#x156;" horiz-adv-x="1438" 
d="M109 0v160h180v1128h-180v158h626q174 0 266 -31q117 -39 184.5 -135t67.5 -240q0 -155 -79.5 -262.5t-219.5 -142.5v-4q37 -21 62 -68l205 -356q26 -47 100 -47h43v-160h-123q-90 0 -126 20.5t-75 88.5l-223 395q-29 47 -58.5 63.5t-92.5 16.5h-172v-424h178v-160h-563z
M494 752h290q119 0 191 72.5t72 199.5q0 172 -136 227q-67 27 -178 27h-239v-526zM680 -119h174q14 -43 14 -100q0 -78 -43 -141.5t-112 -100.5l-86 70q78 74 78 160q0 47 -25 112z" />
    <glyph glyph-name="rcommaaccent" unicode="&#x157;" horiz-adv-x="866" 
d="M102 0v154h156v684q0 45 -45 45h-129v153h233q134 0 134 -121v-65l-5 -72h5q36 119 123.5 195t203.5 76l51 -5v-196q-24 6 -57 6q-154 0 -234.5 -128t-80.5 -298v-274h153v-154h-508zM270 -119h174q15 -43 15 -100q0 -78 -43 -141.5t-113 -100.5l-86 70q78 74 78 160
q0 47 -25 112z" />
    <glyph glyph-name="Rcaron" unicode="&#x158;" horiz-adv-x="1438" 
d="M109 0v160h180v1128h-180v158h626q174 0 266 -31q117 -39 184.5 -135t67.5 -240q0 -155 -79.5 -262.5t-219.5 -142.5v-4q37 -21 62 -68l205 -356q26 -47 100 -47h43v-160h-123q-90 0 -126 20.5t-75 88.5l-223 395q-29 47 -58.5 63.5t-92.5 16.5h-172v-424h178v-160h-563z
M494 752h290q119 0 191 72.5t72 199.5q0 172 -136 227q-67 27 -178 27h-239v-526zM580 1546l-181 260h179l106 -166h4l109 166h178l-180 -260h-215z" />
    <glyph glyph-name="rcaron" unicode="&#x159;" horiz-adv-x="866" 
d="M102 0v154h156v684q0 45 -45 45h-129v153h233q134 0 134 -121v-65l-5 -72h5q36 119 123.5 195t203.5 76l51 -5v-196q-24 6 -57 6q-154 0 -234.5 -128t-80.5 -298v-274h153v-154h-508zM393 1186l-180 260h178l107 -166h4l108 166h178l-180 -260h-215z" />
    <glyph glyph-name="Sacute" unicode="&#x15a;" horiz-adv-x="1184" 
d="M109 434h188v-106q0 -78 85 -124t204 -46q129 0 207.5 58t78.5 163q0 131 -155 213q-47 22 -193 80q-90 35 -143 60.5t-116.5 72.5t-94.5 115.5t-31 160.5q0 193 132 291t331 98q176 0 307 -63.5t131 -175.5v-170h-190v100q0 60 -76 94.5t-172 34.5q-110 0 -182 -51
t-72 -147q0 -45 18.5 -82t40 -59.5t72.5 -49.5t79 -38t97 -38q84 -30 129 -49.5t111 -58.5t99.5 -78t59 -102.5t25.5 -141.5q0 -198 -141 -309t-352 -111q-187 0 -332 81t-145 227v151zM463 1546l213 260h227l-254 -260h-186z" />
    <glyph glyph-name="sacute" unicode="&#x15b;" horiz-adv-x="985" 
d="M82 223v111h174v-68q0 -61 71.5 -95t166.5 -34q90 0 149 35t59 98q0 66 -53 101t-176 78q-18 6 -29 10q-73 26 -117 47.5t-98.5 58.5t-81 89.5t-26.5 119.5q0 141 114.5 214t268.5 73q131 0 244.5 -53.5t113.5 -155.5v-125h-174v68q0 47 -53 76.5t-129 29.5
q-78 0 -131 -32.5t-53 -92.5q0 -35 17 -62.5t57 -50t73 -36t92 -33.5q76 -25 123 -45.5t104.5 -57t86 -90t28.5 -120.5q0 -144 -116.5 -225t-299.5 -81q-155 0 -280 67t-125 181zM379 1186l213 260h227l-254 -260h-186z" />
    <glyph glyph-name="Scircumflex" unicode="&#x15c;" horiz-adv-x="1184" 
d="M109 434h188v-106q0 -78 85 -124t204 -46q129 0 207.5 58t78.5 163q0 131 -155 213q-47 22 -193 80q-90 35 -143 60.5t-116.5 72.5t-94.5 115.5t-31 160.5q0 193 132 291t331 98q176 0 307 -63.5t131 -175.5v-170h-190v100q0 60 -76 94.5t-172 34.5q-110 0 -182 -51
t-72 -147q0 -45 18.5 -82t40 -59.5t72.5 -49.5t79 -38t97 -38q84 -30 129 -49.5t111 -58.5t99.5 -78t59 -102.5t25.5 -141.5q0 -198 -141 -309t-352 -111q-187 0 -332 81t-145 227v151zM299 1546l180 260h215l180 -260h-178l-108 164h-4l-107 -164h-178z" />
    <glyph glyph-name="scircumflex" unicode="&#x15d;" horiz-adv-x="985" 
d="M82 223v111h174v-68q0 -61 71.5 -95t166.5 -34q90 0 149 35t59 98q0 66 -53 101t-176 78q-18 6 -29 10q-73 26 -117 47.5t-98.5 58.5t-81 89.5t-26.5 119.5q0 141 114.5 214t268.5 73q131 0 244.5 -53.5t113.5 -155.5v-125h-174v68q0 47 -53 76.5t-129 29.5
q-78 0 -131 -32.5t-53 -92.5q0 -35 17 -62.5t57 -50t73 -36t92 -33.5q76 -25 123 -45.5t104.5 -57t86 -90t28.5 -120.5q0 -144 -116.5 -225t-299.5 -81q-155 0 -280 67t-125 181zM213 1186l180 260h215l180 -260h-178l-108 164h-4l-107 -164h-178z" />
    <glyph glyph-name="Scedilla" unicode="&#x15e;" horiz-adv-x="1184" 
d="M477 -199l47 176q-170 15 -292.5 94t-122.5 212v151h188v-106q0 -78 85 -124t204 -46q129 0 207.5 58t78.5 163q0 131 -155 213q-47 22 -193 80q-90 35 -143 60.5t-116.5 72.5t-94.5 115.5t-31 160.5q0 193 132 291t331 98q176 0 307 -63.5t131 -175.5v-170h-190v100
q0 60 -76 94.5t-172 34.5q-110 0 -182 -51t-72 -147q0 -45 18.5 -82t40 -59.5t72.5 -49.5t79 -38t97 -38q84 -30 129 -49.5t111 -58.5t99.5 -78t59 -102.5t25.5 -141.5q0 -184 -124 -293.5t-316 -124.5l-23 -92q68 -4 115 -47t47 -106q0 -88 -66.5 -132t-160.5 -44
q-29 0 -56.5 3t-41.5 7l-15 4v108q41 -12 92 -12q103 0 103 66q0 69 -119 69h-37z" />
    <glyph glyph-name="scedilla" unicode="&#x15f;" horiz-adv-x="985" 
d="M385 -199l47 176q-145 15 -247.5 78.5t-102.5 167.5v111h174v-68q0 -61 71.5 -95t166.5 -34q92 0 150 35t58 98q0 66 -53 101t-176 78q-18 6 -29 10q-73 26 -117 47.5t-98.5 58.5t-81 89.5t-26.5 119.5q0 141 114.5 214t268.5 73q131 0 244.5 -53.5t113.5 -155.5v-125
h-174v68q0 47 -53 76.5t-129 29.5q-78 0 -131 -32.5t-53 -92.5q0 -35 17 -62.5t57 -50t73 -36t92 -33.5q76 -25 123 -45.5t104.5 -57t86 -90t28.5 -120.5q0 -131 -99 -211t-259 -90l-23 -95q68 -4 115 -47t47 -106q0 -88 -65.5 -132t-161.5 -44q-27 0 -54.5 3t-42.5 7l-14 4
v108q39 -12 90 -12q103 0 103 66q0 69 -119 69h-35z" />
    <glyph glyph-name="Scaron" unicode="&#x160;" horiz-adv-x="1184" 
d="M109 434h188v-106q0 -78 85 -124t204 -46q129 0 207.5 58t78.5 163q0 131 -155 213q-47 22 -193 80q-90 35 -143 60.5t-116.5 72.5t-94.5 115.5t-31 160.5q0 193 132 291t331 98q176 0 307 -63.5t131 -175.5v-170h-190v100q0 60 -76 94.5t-172 34.5q-110 0 -182 -51
t-72 -147q0 -45 18.5 -82t40 -59.5t72.5 -49.5t79 -38t97 -38q84 -30 129 -49.5t111 -58.5t99.5 -78t59 -102.5t25.5 -141.5q0 -198 -141 -309t-352 -111q-187 0 -332 81t-145 227v151zM479 1546l-180 260h178l107 -166h4l108 166h178l-180 -260h-215z" />
    <glyph glyph-name="scaron" unicode="&#x161;" horiz-adv-x="985" 
d="M82 223v111h174v-68q0 -61 71.5 -95t166.5 -34q90 0 149 35t59 98q0 66 -53 101t-176 78q-18 6 -29 10q-73 26 -117 47.5t-98.5 58.5t-81 89.5t-26.5 119.5q0 141 114.5 214t268.5 73q131 0 244.5 -53.5t113.5 -155.5v-125h-174v68q0 47 -53 76.5t-129 29.5
q-78 0 -131 -32.5t-53 -92.5q0 -35 17 -62.5t57 -50t73 -36t92 -33.5q76 -25 123 -45.5t104.5 -57t86 -90t28.5 -120.5q0 -144 -116.5 -225t-299.5 -81q-155 0 -280 67t-125 181zM393 1186l-180 260h178l107 -166h4l108 166h178l-180 -260h-215z" />
    <glyph glyph-name="Tcommaaccent" unicode="&#x162;" horiz-adv-x="1360" 
d="M395 0v160h183v1118h-340v-225h-179v393h1241v-393h-178v225h-340v-1118h183v-160h-234l-26 -115q67 -4 114 -47t47 -106q0 -88 -66.5 -132t-160.5 -44q-27 0 -55.5 3t-42.5 7l-15 4v108q41 -12 92 -12q103 0 103 66q0 69 -119 69h-37l53 199h-223z" />
    <glyph glyph-name="tcommaaccent" unicode="&#x163;" horiz-adv-x="739" 
d="M330 -199l61 236q-176 94 -176 342v504h-174v153h178v285h195v-285h248v-153h-248v-486q0 -73 22.5 -124.5t59 -74t69.5 -30.5t68 -8l47 2v-166q-27 -4 -70 -4q-63 0 -114 10l-29 -117q70 -4 116 -46t46 -107q0 -88 -65.5 -132t-162.5 -44q-26 0 -54 3t-42 7l-14 4v108
q39 -12 90 -12q104 0 104 66q0 69 -120 69h-35z" />
    <glyph glyph-name="Tcaron" unicode="&#x164;" horiz-adv-x="1360" 
d="M571 1546l-180 260h178l107 -166h4l108 166h179l-181 -260h-215zM395 0v160h183v1118h-340v-225h-179v393h1241v-393h-178v225h-340v-1118h183v-160h-570z" />
    <glyph glyph-name="tcaron" unicode="&#x165;" horiz-adv-x="737" 
d="M211 379v504h-174v153h178v285h195v-285h247v-153h-247v-486q0 -73 22.5 -124.5t60 -74t69.5 -30.5t69 -8l47 2v-166q-29 -4 -72 -4q-47 0 -92 6t-102.5 30.5t-99.5 64.5t-71.5 114t-29.5 172zM592 1475h174q14 -43 14 -101q0 -78 -43 -141.5t-112 -99.5l-86 69
q77 74 77 160q0 47 -24 113z" />
    <glyph glyph-name="Tbar" unicode="&#x166;" horiz-adv-x="1360" 
d="M209 641v143h369v494h-340v-225h-179v393h1241v-393h-178v225h-340v-494h369v-143h-369v-481h183v-160h-570v160h183v481h-369z" />
    <glyph glyph-name="tbar" unicode="&#x167;" horiz-adv-x="737" 
d="M43 541v143h168v207h-174v145h178v285h195v-285h247v-145h-247v-207h235v-143h-235v-144q0 -73 22.5 -124.5t60 -74t69.5 -30.5t69 -8l47 2v-166q-29 -4 -72 -4q-47 0 -92 6t-102.5 30.5t-99.5 64.5t-71.5 114t-29.5 172v162h-168z" />
    <glyph glyph-name="Utilde" unicode="&#x168;" horiz-adv-x="1632" 
d="M246 539v749h-183v158h570v-158h-182v-747q0 -148 55 -236q92 -147 311 -147t311 151q56 94 56 234v745h-183v158h568v-158h-180v-749q0 -209 -101 -353q-71 -102 -196 -156.5t-275 -54.5q-153 0 -277 55.5t-198 155.5q-96 131 -96 353zM469 1548q0 260 209 260
q49 0 90 -21.5t63.5 -47t51 -47t55.5 -21.5q82 0 82 131h147q0 -260 -209 -260q-49 0 -90 21.5t-63.5 47t-51 47t-55.5 21.5q-82 0 -82 -131h-147z" />
    <glyph glyph-name="utilde" unicode="&#x169;" horiz-adv-x="1362" 
d="M215 373v510h-174v153h373v-622q0 -125 40 -191.5t154 -66.5q150 0 243 120.5t93 282.5v324h-174v153h373v-839q0 -45 45 -45h108v-152h-215q-131 0 -131 115v45l4 61h-4q-10 -26 -35.5 -62t-71.5 -80t-122 -74t-166 -30q-340 0 -340 398zM305 1188q0 260 209 260
q49 0 90 -21.5t63.5 -47t51.5 -47t55 -21.5q82 0 82 131h148q0 -260 -209 -260q-50 0 -90.5 21.5t-63.5 47t-51.5 47t-54.5 21.5q-82 0 -82 -131h-148z" />
    <glyph glyph-name="Umacron" unicode="&#x16a;" horiz-adv-x="1632" 
d="M246 539v749h-183v158h570v-158h-182v-747q0 -148 55 -236q92 -147 311 -147t311 151q56 94 56 234v745h-183v158h568v-158h-180v-749q0 -209 -101 -353q-71 -102 -196 -156.5t-275 -54.5q-153 0 -277 55.5t-198 155.5q-96 131 -96 353zM557 1606v145h522v-145h-522z" />
    <glyph glyph-name="umacron" unicode="&#x16b;" horiz-adv-x="1362" 
d="M215 373v510h-174v153h373v-622q0 -125 40 -191.5t154 -66.5q150 0 243 120.5t93 282.5v324h-174v153h373v-839q0 -45 45 -45h108v-152h-215q-131 0 -131 115v45l4 61h-4q-10 -26 -35.5 -62t-71.5 -80t-122 -74t-166 -30q-340 0 -340 398zM393 1245v146h522v-146h-522z
" />
    <glyph glyph-name="Ubreve" unicode="&#x16c;" horiz-adv-x="1632" 
d="M246 539v749h-183v158h570v-158h-182v-747q0 -148 55 -236q92 -147 311 -147t311 151q56 94 56 234v745h-183v158h568v-158h-180v-749q0 -209 -101 -353q-71 -102 -196 -156.5t-275 -54.5q-153 0 -277 55.5t-198 155.5q-96 131 -96 353zM817 1538q-115 0 -193.5 63.5
t-78.5 176.5v28h151v-26q0 -60 35 -90.5t86 -30.5q47 0 83 31.5t36 91.5v24h151v-28q0 -113 -78.5 -176.5t-191.5 -63.5z" />
    <glyph glyph-name="ubreve" unicode="&#x16d;" horiz-adv-x="1362" 
d="M215 373v510h-174v153h373v-622q0 -125 40 -191.5t154 -66.5q150 0 243 120.5t93 282.5v324h-174v153h373v-839q0 -45 45 -45h108v-152h-215q-131 0 -131 115v45l4 61h-4q-10 -26 -35.5 -62t-71.5 -80t-122 -74t-166 -30q-340 0 -340 398zM653 1178q-114 0 -193 63.5
t-79 175.5v29h151v-27q0 -59 35 -90t86 -31q47 0 83 32t36 91v25h152v-29q0 -112 -79 -175.5t-192 -63.5z" />
    <glyph glyph-name="Uring" unicode="&#x16e;" horiz-adv-x="1632" 
d="M246 539v749h-183v158h570v-158h-182v-747q0 -148 55 -236q92 -147 311 -147t311 151q56 94 56 234v745h-183v158h568v-158h-180v-749q0 -209 -101 -353q-71 -102 -196 -156.5t-275 -54.5q-153 0 -277 55.5t-198 155.5q-96 131 -96 353zM629 1677q0 78 55 124t133 46
t135.5 -47t57.5 -123q0 -73 -57.5 -118.5t-135.5 -45.5t-133 45.5t-55 118.5zM817 1604q35 0 55.5 20.5t20.5 52.5q0 37 -20.5 58.5t-55.5 21.5q-33 0 -53.5 -21.5t-20.5 -58.5q0 -32 20.5 -52.5t53.5 -20.5z" />
    <glyph glyph-name="uring" unicode="&#x16f;" horiz-adv-x="1362" 
d="M215 373v510h-174v153h373v-622q0 -125 40 -191.5t154 -66.5q150 0 243 120.5t93 282.5v324h-174v153h373v-839q0 -45 45 -45h108v-152h-215q-131 0 -131 115v45l4 61h-4q-10 -26 -35.5 -62t-71.5 -80t-122 -74t-166 -30q-340 0 -340 398zM465 1317q0 78 55 124t133 46
t135.5 -47t57.5 -123q0 -74 -57.5 -119t-135.5 -45t-133 45t-55 119zM653 1243q35 0 55.5 20.5t20.5 53.5q0 37 -20.5 58.5t-55.5 21.5q-32 0 -52.5 -21.5t-20.5 -58.5q0 -33 20.5 -53.5t52.5 -20.5z" />
    <glyph glyph-name="Uhungarumlaut" unicode="&#x170;" horiz-adv-x="1632" 
d="M246 539v749h-183v158h570v-158h-182v-747q0 -148 55 -236q92 -147 311 -147t311 151q56 94 56 234v745h-183v158h568v-158h-180v-749q0 -209 -101 -353q-71 -102 -196 -156.5t-275 -54.5q-153 0 -277 55.5t-198 155.5q-96 131 -96 353zM860 1546l150 260h211l-195 -260
h-166zM545 1546l139 260h182l-143 -260h-178z" />
    <glyph glyph-name="uhungarumlaut" unicode="&#x171;" horiz-adv-x="1362" 
d="M215 373v510h-174v153h373v-622q0 -125 40 -191.5t154 -66.5q150 0 243 120.5t93 282.5v324h-174v153h373v-839q0 -45 45 -45h108v-152h-215q-131 0 -131 115v45l4 61h-4q-10 -26 -35.5 -62t-71.5 -80t-122 -74t-166 -30q-340 0 -340 398zM696 1186l150 260h211
l-195 -260h-166zM381 1186l139 260h182l-143 -260h-178z" />
    <glyph glyph-name="Uogonek" unicode="&#x172;" horiz-adv-x="1632" 
d="M244 512v776h-181v158h568v-158h-182v-774q0 -168 99 -262t267 -94t267.5 95t99.5 263v772h-183v158h570v-158h-183v-776q0 -170 -86 -297t-235 -201q-23 -10 -55.5 -35.5t-70.5 -80t-38 -109.5q0 -49 43 -72.5t88 -27.5l-39 -140q-37 5 -73.5 15t-79.5 32.5t-70 63.5
t-27 96q0 117 113 221q-262 -14 -437 130.5t-175 404.5z" />
    <glyph glyph-name="uogonek" unicode="&#x173;" horiz-adv-x="1362" 
d="M965 -244q0 140 137 244h-27q-125 0 -125 115v45l4 61h-4q-10 -26 -35.5 -62t-71.5 -80t-121 -74t-163 -30q-174 0 -259 96.5t-85 301.5v510h-174v153h373v-622q0 -125 40 -191.5t154 -66.5q152 0 244 120.5t92 282.5v324h-174v153h373v-839q0 -45 45 -45h108v-152h-10
q-37 0 -101.5 -72.5t-64.5 -138.5q0 -49 43 -72.5t88 -27.5l-37 -140q-53 7 -103 23t-98 64.5t-48 119.5z" />
    <glyph glyph-name="Wcircumflex" unicode="&#x174;" horiz-adv-x="2066" 
d="M33 1288v158h514v-158h-172l225 -948l16 -109h7q8 58 20 109l303 1106h174l301 -1106l21 -109h8q4 58 14 109l226 948h-172v158h516v-158h-140l-323 -1288h-234l-282 1026l-19 115h-8q-4 -64 -18 -115l-283 -1026h-233l-322 1288h-139zM745 1546l181 260h215l180 -260
h-178l-109 164h-4l-106 -164h-179z" />
    <glyph glyph-name="wcircumflex" unicode="&#x175;" horiz-adv-x="1753" 
d="M20 883v153h463v-153h-139l176 -602l17 -97h6q4 54 16 97l227 753h181l227 -753l16 -97h7q4 54 16 97l178 602h-141v153h463v-153h-129l-267 -883h-221l-219 692l-18 99h-5q-6 -52 -18 -99l-219 -692h-221l-266 883h-130zM592 1186l180 260h215l180 -260h-178l-108 164
h-4l-107 -164h-178z" />
    <glyph glyph-name="Ycircumflex" unicode="&#x176;" horiz-adv-x="1331" 
d="M381 0v160h182v452l-405 676h-138v158h498v-158h-151l268 -454l29 -62h4q12 31 30 62l269 454h-150v158h494v-158h-137l-406 -676v-452h182v-160h-569zM381 1546l180 260h215l180 -260h-178l-108 164h-4l-107 -164h-178z" />
    <glyph glyph-name="ycircumflex" unicode="&#x177;" horiz-adv-x="1208" 
d="M131 -215q59 -49 148 -49q129 0 190 143l43 103l-362 901h-132v153h474v-153h-138l232 -617l18 -90h6q8 45 25 90l229 617h-133v153h459v-153h-129l-410 -1047q-51 -129 -146 -197.5t-218 -68.5q-60 0 -115 16.5t-82 32.5l-27 16zM328 1186l180 260h215l180 -260h-178
l-109 164h-4l-106 -164h-178z" />
    <glyph glyph-name="Ydieresis" unicode="&#x178;" horiz-adv-x="1331" 
d="M381 0v160h182v452l-405 676h-138v158h498v-158h-151l268 -454l29 -62h4q12 31 30 62l269 454h-150v158h494v-158h-137l-406 -676v-452h182v-160h-569zM784 1599v207h177v-207h-177zM375 1599v207h176v-207h-176z" />
    <glyph glyph-name="Zacute" unicode="&#x179;" horiz-adv-x="1294" 
d="M111 0v135l745 1075l59 70v4q-41 -6 -81 -6h-535v-225h-178v393h1042v-133l-745 -1077l-60 -70v-4q41 6 82 6h566v233h178v-401h-1073zM543 1546l213 260h227l-254 -260h-186z" />
    <glyph glyph-name="zacute" unicode="&#x17a;" horiz-adv-x="1079" 
d="M98 131l572 692l57 60v4q-43 -4 -84 -4h-360v-166h-174v319h858v-131l-568 -692l-57 -57v-4q41 2 82 2h383v165h174v-319h-883v131zM428 1186l213 260h227l-254 -260h-186z" />
    <glyph glyph-name="Zdotaccent" unicode="&#x17b;" horiz-adv-x="1294" 
d="M111 0v135l745 1075l59 70v4q-41 -6 -81 -6h-535v-225h-178v393h1042v-133l-745 -1077l-60 -70v-4q41 6 82 6h566v233h178v-401h-1073zM573 1606v200h187v-200h-187z" />
    <glyph glyph-name="zdotaccent" unicode="&#x17c;" horiz-adv-x="1079" 
d="M98 131l572 692l57 60v4q-43 -4 -84 -4h-360v-166h-174v319h858v-131l-568 -692l-57 -57v-4q41 2 82 2h383v165h174v-319h-883v131zM459 1245v201h186v-201h-186z" />
    <glyph glyph-name="Zcaron" unicode="&#x17d;" horiz-adv-x="1294" 
d="M111 0v135l745 1075l59 70v4q-41 -6 -81 -6h-535v-225h-178v393h1042v-133l-745 -1077l-60 -70v-4q41 6 82 6h566v233h178v-401h-1073zM559 1546l-180 260h178l107 -166h4l108 166h178l-180 -260h-215z" />
    <glyph glyph-name="zcaron" unicode="&#x17e;" horiz-adv-x="1079" 
d="M98 131l572 692l57 60v4q-43 -4 -84 -4h-360v-166h-174v319h858v-131l-568 -692l-57 -57v-4q41 2 82 2h383v165h174v-319h-883v131zM444 1186l-180 260h178l107 -166h4l109 166h178l-181 -260h-215z" />
    <glyph glyph-name="longs" unicode="&#x17f;" horiz-adv-x="684" 
d="M98 0v154h152v729h-162v153h162v51q0 95 27.5 166.5t67.5 109.5t95.5 61.5t99.5 29.5t89 6l96 -6v-166q-27 6 -76 6q-33 0 -61.5 -7t-63.5 -25.5t-55 -62.5t-20 -107v-938h178v-154h-529z" />
    <glyph glyph-name="florin" unicode="&#x192;" horiz-adv-x="1038" 
d="M-37 -43q80 -12 135 -12q35 0 67 8t69.5 29.5t64.5 69.5t33 120l47 545h-168v160h182l19 208q8 99 44 171.5t81 112.5t104 63.5t104.5 30.5t92.5 7l172 -14v-172q-101 14 -162 14q-35 0 -67.5 -8t-70.5 -29.5t-65 -69.5t-33 -120l-20 -194h239v-160h-253l-48 -561
q-10 -121 -58 -203t-117.5 -118t-128 -49t-120.5 -13l-143 12v172z" />
    <glyph glyph-name="Ohorn" unicode="&#x1a0;" horiz-adv-x="1762" 
d="M98 733q0 311 214 524t530 213q313 0 528 -213q70 -69 117 -151q53 20 86 59q55 70 41 125l-96 -2v158h286q21 -223 -84 -365q-63 -86 -170 -118q35 -107 35 -230q0 -319 -215 -538.5t-528 -219.5q-316 0 -530 219.5t-214 538.5zM309 733q0 -244 154.5 -409.5
t378.5 -165.5q221 0 375.5 165.5t154.5 409.5q0 236 -154.5 396.5t-375.5 160.5q-224 0 -378.5 -160.5t-154.5 -396.5z" />
    <glyph glyph-name="ohorn" unicode="&#x1a1;" horiz-adv-x="1423" 
d="M244 131q-162 156 -162 389.5t162 387t397.5 153.5t396.5 -154q90 -88 131 -200q37 18 62 49q55 69 41 125l-96 -2v157h286q21 -223 -84 -364q-65 -90 -178 -121v-31q0 -233 -163 -389t-396 -156t-397 156zM285 520q0 -162 103.5 -267.5t252.5 -105.5q147 0 251.5 106.5
t104.5 266.5t-104.5 264.5t-251.5 104.5q-149 0 -252.5 -104.5t-103.5 -264.5z" />
    <glyph glyph-name="Uhorn" unicode="&#x1af;" horiz-adv-x="1708" 
d="M246 1288h-183v158h570v-158h-182v-747q0 -148 55 -236q92 -147 311 -147t311 151q56 94 56 234v745h-183v158h388v-352q79 18 122 71q56 70 41 125l-96 -2v158h287q20 -223 -84 -365q-92 -125 -270 -137v-405q0 -209 -101 -353q-71 -102 -196 -156.5t-275 -54.5
q-153 0 -277 55.5t-198 155.5q-96 131 -96 353v749z" />
    <glyph glyph-name="uhorn" unicode="&#x1b0;" horiz-adv-x="1473" 
d="M215 883h-174v153h373v-622q0 -125 40 -191.5t154 -66.5q150 0 243 120.5t93 282.5v324h-174v153h373v-354q84 18 129 74q55 69 41 125l-96 -2v157h286q21 -223 -84 -364q-94 -127 -276 -137v-338q0 -45 45 -45h108v-152h-215q-131 0 -131 115v45l4 61h-4
q-10 -26 -35.5 -62t-71.5 -80t-122 -74t-166 -30q-340 0 -340 398v510z" />
    <glyph glyph-name="uni01E2" unicode="&#x1e2;" horiz-adv-x="2028" 
d="M25 0v160h129l464 1128h-157v158h1327v-336h-170v168h-485v-465h507v-168h-507v-477h520v170h170v-338h-1071v160h176v487h-369l-199 -487h156v-160h-491zM621 807h307v471h-115zM1088 1634v94h606v-94h-606z" />
    <glyph glyph-name="uni01E3" unicode="&#x1e3;" horiz-adv-x="1815" 
d="M70 289q0 78 28.5 138t84 96t112.5 58.5t135 33t131 13.5t123 3h55v35q0 231 -227 231q-74 0 -147.5 -24.5t-110.5 -49.5l-37 -26l-80 141q17 14 48.5 34.5t134 54.5t208.5 34q254 0 336 -182h4q127 182 369 182q207 0 325.5 -137.5t118.5 -345.5l-6 -76h-743
q8 -172 104.5 -266.5t241.5 -94.5q78 0 154.5 30t113.5 60l37 31l82 -139q-16 -17 -49 -41.5t-137.5 -65.5t-212.5 -41q-154 0 -268.5 69t-178.5 192h-4q-10 -29 -32.5 -65t-66.5 -84t-121 -80t-169 -32q-150 0 -253 84t-103 230zM940 631h541q-4 127 -76 199.5t-172 72.5
q-115 0 -193.5 -70.5t-99.5 -201.5zM268 299q0 -70 51.5 -119t141.5 -49q121 0 200.5 104.5t79.5 229.5v37h-96q-377 0 -377 -203zM791 1245v94h606v-94h-606z" />
    <glyph glyph-name="AEacute" unicode="&#x1fc;" horiz-adv-x="2028" 
d="M25 0v160h129l464 1128h-157v158h1327v-336h-170v168h-485v-465h507v-168h-507v-477h520v170h170v-338h-1071v160h176v487h-369l-199 -487h156v-160h-491zM621 807h307v471h-115zM1107 1575l213 260h227l-253 -260h-187z" />
    <glyph glyph-name="aeacute" unicode="&#x1fd;" horiz-adv-x="1815" 
d="M70 289q0 78 28.5 138t84 96t112.5 58.5t135 33t131 13.5t123 3h55v35q0 231 -227 231q-74 0 -147.5 -24.5t-110.5 -49.5l-37 -26l-80 141q17 14 48.5 34.5t134 54.5t208.5 34q254 0 336 -182h4q127 182 369 182q207 0 325.5 -137.5t118.5 -345.5l-6 -76h-743
q8 -172 104.5 -266.5t241.5 -94.5q78 0 154.5 30t113.5 60l37 31l82 -139q-16 -17 -49 -41.5t-137.5 -65.5t-212.5 -41q-154 0 -268.5 69t-178.5 192h-4q-10 -29 -32.5 -65t-66.5 -84t-121 -80t-169 -32q-150 0 -253 84t-103 230zM940 631h541q-4 127 -76 199.5t-172 72.5
q-115 0 -193.5 -70.5t-99.5 -201.5zM268 299q0 -70 51.5 -119t141.5 -49q121 0 200.5 104.5t79.5 229.5v37h-96q-377 0 -377 -203zM960 1186l213 260h227l-253 -260h-187z" />
    <glyph glyph-name="Scommaaccent" unicode="&#x218;" horiz-adv-x="1184" 
d="M109 434h188v-106q0 -78 85 -124t204 -46q129 0 207.5 58t78.5 163q0 131 -155 213q-47 22 -193 80q-90 35 -143 60.5t-116.5 72.5t-94.5 115.5t-31 160.5q0 193 132 291t331 98q176 0 307 -63.5t131 -175.5v-170h-190v100q0 60 -76 94.5t-172 34.5q-110 0 -182 -51
t-72 -147q0 -45 18.5 -82t40 -59.5t72.5 -49.5t79 -38t97 -38q84 -30 129 -49.5t111 -58.5t99.5 -78t59 -102.5t25.5 -141.5q0 -198 -141 -309t-352 -111q-187 0 -332 81t-145 227v151zM502 -119h174q14 -43 14 -100q0 -78 -43 -141.5t-112 -100.5l-86 70q77 74 77 160
q0 47 -24 112z" />
    <glyph glyph-name="scommaaccent" unicode="&#x219;" horiz-adv-x="985" 
d="M82 223v111h174v-68q0 -61 71.5 -95t166.5 -34q90 0 149 35t59 98q0 66 -53 101t-176 78q-18 6 -29 10q-73 26 -117 47.5t-98.5 58.5t-81 89.5t-26.5 119.5q0 141 114.5 214t268.5 73q131 0 244.5 -53.5t113.5 -155.5v-125h-174v68q0 47 -53 76.5t-129 29.5
q-78 0 -131 -32.5t-53 -92.5q0 -35 17 -62.5t57 -50t73 -36t92 -33.5q76 -25 123 -45.5t104.5 -57t86 -90t28.5 -120.5q0 -144 -116.5 -225t-299.5 -81q-155 0 -280 67t-125 181zM410 -119h174q14 -43 14 -100q0 -78 -43 -141.5t-113 -100.5l-86 70q78 74 78 160
q0 47 -24 112z" />
    <glyph glyph-name="uni021A" unicode="&#x21a;" horiz-adv-x="1360" 
d="M395 0v160h183v1118h-340v-225h-179v393h1241v-393h-178v225h-340v-1118h183v-160h-570zM592 -119h174q14 -43 14 -100q0 -78 -43 -141.5t-112 -100.5l-86 70q77 74 77 160q0 47 -24 112z" />
    <glyph glyph-name="uni021B" unicode="&#x21b;" horiz-adv-x="737" 
d="M211 379v504h-174v153h178v285h195v-285h247v-153h-247v-486q0 -73 22.5 -124.5t60 -74t69.5 -30.5t69 -8l47 2v-166q-29 -4 -72 -4q-47 0 -92 6t-102.5 30.5t-99.5 64.5t-71.5 114t-29.5 172zM373 -119h174q14 -43 14 -100q0 -78 -43 -141.5t-112 -100.5l-87 70
q78 74 78 160q0 47 -24 112z" />
    <glyph glyph-name="hookabovecombHOA" unicode="&#x2bc;" horiz-adv-x="0" 
d="M260 1655q-21 -14 -39 -23t-31 -22t-19.5 -33.5t-2.5 -56.5h-133q-4 24 -4 46t5.5 42.5t18 39t34.5 35.5q17 10 37.5 25.5t41.5 32.5q13 35 -6.5 57t-56.5 22q-38 0 -52.5 -20t-14.5 -60h-111q0 54 12.5 91t36.5 60t58.5 33.5t78.5 10.5q38 0 74 -12.5t64 -32.5
q60 -46 60 -124q0 -72 -51 -111z" />
    <glyph glyph-name="circumflex" unicode="&#x2c6;" horiz-adv-x="1022" 
d="M223 1546l180 260h215l181 -260h-178l-109 164h-4l-107 -164h-178z" />
    <glyph glyph-name="caron" unicode="&#x2c7;" horiz-adv-x="1022" 
d="M403 1546l-180 260h178l107 -166h4l109 166h178l-181 -260h-215z" />
    <glyph glyph-name="breve" unicode="&#x2d8;" horiz-adv-x="1022" 
d="M512 1538q-115 0 -193.5 63.5t-78.5 176.5v28h151v-26q0 -60 35 -90.5t86 -30.5q47 0 83 31.5t36 91.5v24h151v-28q0 -113 -78.5 -176.5t-191.5 -63.5z" />
    <glyph glyph-name="dotaccent" unicode="&#x2d9;" horiz-adv-x="1024" 
d="M418 1606v200h186v-200h-186z" />
    <glyph glyph-name="ring" unicode="&#x2da;" horiz-adv-x="1024" 
d="M324 1677q0 78 55 124t133 46t135.5 -47t57.5 -123q0 -73 -57.5 -118.5t-135.5 -45.5t-133 45.5t-55 118.5zM512 1604q35 0 55.5 20.5t20.5 52.5q0 37 -20.5 58.5t-55.5 21.5q-33 0 -53.5 -21.5t-20.5 -58.5q0 -32 20.5 -52.5t53.5 -20.5z" />
    <glyph glyph-name="ogonek" unicode="&#x2db;" horiz-adv-x="1022" 
d="M340 -244q0 94 68.5 173t130.5 112h125v-41q-37 0 -102.5 -72.5t-65.5 -138.5q0 -49 43 -72.5t88 -27.5l-37 -140q-53 7 -103.5 23t-98.5 64.5t-48 119.5z" />
    <glyph glyph-name="tilde" unicode="&#x2dc;" horiz-adv-x="1022" 
d="M110 1188q0 260 209 260q50 0 90.5 -21.5t63 -47t51.5 -47t55 -21.5q82 0 82 131h148q0 -260 -209 -260q-49 0 -90 21.5t-63.5 47t-51.5 47t-55 21.5q-82 0 -82 -131h-148z" />
    <glyph glyph-name="hungarumlaut" unicode="&#x2dd;" horiz-adv-x="1022" 
d="M489 1546l150 260h211l-195 -260h-166zM174 1546l139 260h183l-144 -260h-178z" />
    <glyph glyph-name="gravecomb" unicode="&#x300;" horiz-adv-x="1022" 
d="M539 1546l-254 260h229l211 -260h-186z" />
    <glyph glyph-name="acutecomb" unicode="&#x301;" horiz-adv-x="1022" 
d="M295 1546l213 260h227l-254 -260h-186z" />
    <glyph glyph-name="tildecomb" unicode="&#x303;" horiz-adv-x="1022" 
d="M162 1548q0 260 209 260q49 0 90 -21.5t63.5 -47t51 -47t55.5 -21.5q82 0 82 131h147q0 -260 -209 -260q-49 0 -90 21.5t-63.5 47t-51 47t-55.5 21.5q-82 0 -82 -131h-147z" />
    <glyph glyph-name="hookabovecomb" unicode="&#x309;" horiz-adv-x="0" 
d="M135 1293q-21 -14 -39 -23t-31 -22t-19.5 -33.5t-2.5 -56.5h-133q-4 24 -4 46t5.5 42.5t18 39t34.5 35.5q17 10 37.5 25.5t41.5 32.5q13 35 -6.5 57t-56.5 22q-38 0 -52.5 -20t-14.5 -60h-111q0 54 12.5 91t36.5 60t58.5 33.5t78.5 10.5q38 0 74 -12.5t64 -32.5
q60 -46 60 -124q0 -72 -51 -111z" />
    <glyph glyph-name="dotbelowcomb" unicode="&#x323;" horiz-adv-x="0" 
d="M-61 -288q0 25 9.5 47.5t26 39t39 26t47.5 9.5t47.5 -9.5t39 -26t26 -39t9.5 -47.5t-9.5 -47.5t-26 -39t-39 -26t-47.5 -9.5t-47.5 9.5t-39 26t-26 39t-9.5 47.5z" />
    <glyph glyph-name="Omega" unicode="&#x3a9;" horiz-adv-x="1335" 
d="M786 0v96q36 17 66.5 35t57 39t49 47t42.5 59q39 63 47.5 176t8.5 277q0 117 -3 200t-14 143.5t-34 104.5t-62 83q-56 55 -127 83.5t-149 28.5q-79 0 -150 -28.5t-127 -83.5q-39 -39 -61.5 -83t-33.5 -104.5t-14 -143.5t-3 -200q0 -164 8.5 -277t46.5 -176q20 -33 43 -59
t49.5 -47t57 -39t65.5 -35v-96h-381v96h186q-46 37 -75.5 71t-51.5 75q-24 45 -36.5 101.5t-17.5 119.5t-5 130.5v135.5q0 124 2.5 213t15 156.5t40 120t77.5 102.5q72 72 166.5 110.5t198.5 38.5q103 0 197.5 -38.5t166.5 -110.5q50 -50 77.5 -102.5t40 -120t15 -156.5
t2.5 -213v-135.5t-5 -130.5t-17 -119.5t-37 -101.5q-22 -41 -51.5 -75t-75.5 -71h186v-96h-381z" />
    <glyph glyph-name="pi" unicode="&#x3c0;" horiz-adv-x="1210" 
d="M887 0v895h-563v-895h-99v987h760v-987h-98z" />
    <glyph glyph-name="uni1E9E" unicode="&#x1e9e;" horiz-adv-x="1475" 
d="M76 0v160h182v860q0 184 123 305t309 121h584v-137l-262 -404l-37 -49v-4q178 -35 289.5 -140.5t111.5 -271.5q0 -194 -143 -325t-399 -131q-93 0 -195 20v178q82 -20 172 -20q174 0 265 76.5t91 197.5q0 244 -399 273v122l244 388l41 53v4q-31 -6 -60 -6h-295
q-102 0 -168.5 -71t-66.5 -177v-1022h-387z" />
    <glyph glyph-name="uni1EA0" unicode="&#x1ea0;" horiz-adv-x="1477" 
d="M23 0v160h139l461 1286h231l461 -1286h139v-160h-502v160h154l-113 321h-512l-112 -321h155v-160h-501zM532 645h410l-176 502q-8 27 -14.5 54.5t-8.5 41.5l-2 14h-6q-6 -51 -24 -110zM616 -288q0 -25 9.5 -47.5t26 -39t39 -26t47.5 -9.5t47.5 9.5t39 26t26 39t9.5 47.5
t-9.5 47.5t-26 39t-39 26t-47.5 9.5t-47.5 -9.5t-39 -26t-26 -39t-9.5 -47.5z" />
    <glyph glyph-name="uni1EA1" unicode="&#x1ea1;" 
d="M68 289q0 78 31.5 138t88 97t117 60.5t136 35t125.5 14.5t106 3h65v39q0 221 -221 221q-74 0 -147.5 -24.5t-110.5 -49.5l-39 -26l-80 141q6 4 17.5 13.5t51.5 29.5t82 36.5t108.5 30t133.5 13.5q199 0 301.5 -101.5t102.5 -297.5v-463q0 -45 45 -45h104v-154h-206
q-129 0 -129 113v14l8 68h-4q-4 -9 -11.5 -24t-37 -53t-64.5 -66.5t-97.5 -52.5t-131.5 -24q-142 0 -243 82t-101 232zM268 305q0 -74 50.5 -125t136.5 -51q125 0 204.5 104.5t79.5 231.5v43h-51q-420 0 -420 -203zM446 -288q0 -25 9.5 -47.5t26 -39t39 -26t47.5 -9.5
t47.5 9.5t39 26t26 39t9.5 47.5t-9.5 47.5t-26 39t-39 26t-47.5 9.5t-47.5 -9.5t-39 -26t-26 -39t-9.5 -47.5z" />
    <glyph glyph-name="uni1EA2" unicode="&#x1ea2;" horiz-adv-x="1477" 
d="M23 0v160h139l461 1286h231l461 -1286h139v-160h-502v160h154l-113 321h-512l-112 -321h155v-160h-501zM532 645h410l-176 502q-8 27 -14.5 54.5t-8.5 41.5l-2 14h-6q-6 -51 -24 -110zM887 1655q-21 -14 -39 -23t-31 -22t-19.5 -33.5t-2.5 -56.5h-133q-4 24 -4 46
t5.5 42.5t18 39t34.5 35.5q17 10 37.5 25.5t41.5 32.5q13 35 -6.5 57t-56.5 22q-38 0 -52.5 -20t-14.5 -60h-111q0 54 12.5 91t36.5 60t58.5 33.5t78.5 10.5q38 0 74 -12.5t64 -32.5q60 -46 60 -124q0 -72 -51 -111z" />
    <glyph glyph-name="uni1EA3" unicode="&#x1ea3;" 
d="M68 289q0 78 31.5 138t88 97t117 60.5t136 35t125.5 14.5t106 3h65v39q0 221 -221 221q-74 0 -147.5 -24.5t-110.5 -49.5l-39 -26l-80 141q6 4 17.5 13.5t51.5 29.5t82 36.5t108.5 30t133.5 13.5q199 0 301.5 -101.5t102.5 -297.5v-463q0 -45 45 -45h104v-154h-206
q-129 0 -129 113v14l8 68h-4q-4 -9 -11.5 -24t-37 -53t-64.5 -66.5t-97.5 -52.5t-131.5 -24q-142 0 -243 82t-101 232zM268 305q0 -74 50.5 -125t136.5 -51q125 0 204.5 104.5t79.5 231.5v43h-51q-420 0 -420 -203zM751 1293q-21 -14 -39 -23t-31 -22t-19.5 -33.5
t-2.5 -56.5h-133q-4 24 -4 46t5.5 42.5t18 39t34.5 35.5q17 10 37.5 25.5t41.5 32.5q13 35 -6.5 57t-56.5 22q-38 0 -52.5 -20t-14.5 -60h-111q0 54 12.5 91t36.5 60t58.5 33.5t78.5 10.5q38 0 74 -12.5t64 -32.5q60 -46 60 -124q0 -72 -51 -111z" />
    <glyph glyph-name="uni1EA4" unicode="&#x1ea4;" horiz-adv-x="1477" 
d="M23 0v160h139l461 1286h231l461 -1286h139v-160h-502v160h154l-113 321h-512l-112 -321h155v-160h-501zM532 645h410l-176 502q-8 27 -14.5 54.5t-8.5 41.5l-2 14h-6q-6 -51 -24 -110zM449 1546l180 260h215l180 -260h-178l-109 164h-4l-106 -164h-178zM989 1721l213 260
h227l-254 -260h-186z" />
    <glyph glyph-name="uni1EA5" unicode="&#x1ea5;" 
d="M68 289q0 78 31.5 138t88 97t117 60.5t136 35t125.5 14.5t106 3h65v39q0 221 -221 221q-74 0 -147.5 -24.5t-110.5 -49.5l-39 -26l-80 141q6 4 17.5 13.5t51.5 29.5t82 36.5t108.5 30t133.5 13.5q199 0 301.5 -101.5t102.5 -297.5v-463q0 -45 45 -45h104v-154h-206
q-129 0 -129 113v14l8 68h-4q-4 -9 -11.5 -24t-37 -53t-64.5 -66.5t-97.5 -52.5t-131.5 -24q-142 0 -243 82t-101 232zM268 305q0 -74 50.5 -125t136.5 -51q125 0 204.5 104.5t79.5 231.5v43h-51q-420 0 -420 -203zM250 1186l180 260h215l180 -260h-178l-108 164h-4
l-107 -164h-178zM778 1346l213 260h227l-253 -260h-187z" />
    <glyph glyph-name="uni1EA6" unicode="&#x1ea6;" horiz-adv-x="1477" 
d="M23 0v160h139l461 1286h231l461 -1286h139v-160h-502v160h154l-113 321h-512l-112 -321h155v-160h-501zM532 645h410l-176 502q-8 27 -14.5 54.5t-8.5 41.5l-2 14h-6q-6 -51 -24 -110zM449 1546l180 260h215l180 -260h-178l-109 164h-4l-106 -164h-178zM1055 1721
l-254 260h229l211 -260h-186z" />
    <glyph glyph-name="uni1EA7" unicode="&#x1ea7;" 
d="M68 289q0 78 31.5 138t88 97t117 60.5t136 35t125.5 14.5t106 3h65v39q0 221 -221 221q-74 0 -147.5 -24.5t-110.5 -49.5l-39 -26l-80 141q6 4 17.5 13.5t51.5 29.5t82 36.5t108.5 30t133.5 13.5q199 0 301.5 -101.5t102.5 -297.5v-463q0 -45 45 -45h104v-154h-206
q-129 0 -129 113v14l8 68h-4q-4 -9 -11.5 -24t-37 -53t-64.5 -66.5t-97.5 -52.5t-131.5 -24q-142 0 -243 82t-101 232zM268 305q0 -74 50.5 -125t136.5 -51q125 0 204.5 104.5t79.5 231.5v43h-51q-420 0 -420 -203zM250 1186l180 260h215l180 -260h-178l-108 164h-4
l-107 -164h-178zM858 1346l-253 260h229l211 -260h-187z" />
    <glyph glyph-name="uni1EA8" unicode="&#x1ea8;" horiz-adv-x="1477" 
d="M23 0v160h139l461 1286h231l461 -1286h139v-160h-502v160h154l-113 321h-512l-112 -321h155v-160h-501zM532 645h410l-176 502q-8 27 -14.5 54.5t-8.5 41.5l-2 14h-6q-6 -51 -24 -110zM449 1546l180 260h215l180 -260h-178l-109 164h-4l-106 -164h-178zM1198 1838
q-21 -14 -39 -23t-31 -22t-19.5 -33.5t-2.5 -56.5h-133q-4 24 -4 46t5.5 42.5t18 39t34.5 35.5q17 10 37.5 25.5t41.5 32.5q13 35 -6.5 57t-56.5 22q-38 0 -52.5 -20t-14.5 -60h-111q0 54 12.5 91t36.5 60t58.5 33.5t78.5 10.5q38 0 74 -12.5t64 -32.5q60 -46 60 -124
q0 -72 -51 -111z" />
    <glyph glyph-name="uni1EA9" unicode="&#x1ea9;" 
d="M68 289q0 78 31.5 138t88 97t117 60.5t136 35t125.5 14.5t106 3h65v39q0 221 -221 221q-74 0 -147.5 -24.5t-110.5 -49.5l-39 -26l-80 141q6 4 17.5 13.5t51.5 29.5t82 36.5t108.5 30t133.5 13.5q199 0 301.5 -101.5t102.5 -297.5v-463q0 -45 45 -45h104v-154h-206
q-129 0 -129 113v14l8 68h-4q-4 -9 -11.5 -24t-37 -53t-64.5 -66.5t-97.5 -52.5t-131.5 -24q-142 0 -243 82t-101 232zM268 305q0 -74 50.5 -125t136.5 -51q125 0 204.5 104.5t79.5 231.5v43h-51q-420 0 -420 -203zM250 1186l180 260h215l180 -260h-178l-108 164h-4
l-107 -164h-178zM1040 1486q-21 -14 -39 -23t-31 -22t-19.5 -33.5t-2.5 -56.5h-133q-4 24 -4 46t5.5 42.5t18 39t34.5 35.5q17 10 37.5 25.5t41.5 32.5q13 35 -6.5 57t-56.5 22q-38 0 -52.5 -20t-14.5 -60h-111q0 54 12.5 91t36.5 60t58.5 33.5t78.5 10.5q38 0 74 -12.5
t64 -32.5q60 -46 60 -124q0 -72 -51 -111z" />
    <glyph glyph-name="uni1EAA" unicode="&#x1eaa;" horiz-adv-x="1477" 
d="M23 0v160h139l461 1286h231l461 -1286h139v-160h-502v160h154l-113 321h-512l-112 -321h155v-160h-501zM532 645h410l-176 502q-8 27 -14.5 54.5t-8.5 41.5l-2 14h-6q-6 -51 -24 -110zM449 1536l180 260h215l180 -260h-178l-109 164h-4l-106 -164h-178zM388 1857
q0 260 209 260q49 0 90 -21.5t63.5 -47t51 -47t55.5 -21.5q82 0 82 131h147q0 -260 -209 -260q-49 0 -90 21.5t-63.5 47t-51 47t-55.5 21.5q-82 0 -82 -131h-147z" />
    <glyph glyph-name="uni1EAB" unicode="&#x1eab;" 
d="M68 289q0 78 31.5 138t88 97t117 60.5t136 35t125.5 14.5t106 3h65v39q0 221 -221 221q-74 0 -147.5 -24.5t-110.5 -49.5l-39 -26l-80 141q6 4 17.5 13.5t51.5 29.5t82 36.5t108.5 30t133.5 13.5q199 0 301.5 -101.5t102.5 -297.5v-463q0 -45 45 -45h104v-154h-206
q-129 0 -129 113v14l8 68h-4q-4 -9 -11.5 -24t-37 -53t-64.5 -66.5t-97.5 -52.5t-131.5 -24q-142 0 -243 82t-101 232zM268 305q0 -74 50.5 -125t136.5 -51q125 0 204.5 104.5t79.5 231.5v43h-51q-420 0 -420 -203zM250 1166l180 260h215l180 -260h-178l-108 164h-4
l-107 -164h-178zM183 1501q0 260 209 260q50 0 90.5 -21.5t63 -47t51.5 -47t55 -21.5q82 0 82 131h148q0 -260 -209 -260q-49 0 -90 21.5t-63.5 47t-51.5 47t-55 21.5q-82 0 -82 -131h-148z" />
    <glyph glyph-name="uni1EAC" unicode="&#x1eac;" horiz-adv-x="1477" 
d="M616 -288q0 25 9.5 47.5t26 39t38.5 26t48 9.5q25 0 47.5 -9.5t39 -26t26 -39t9.5 -47.5q0 -26 -9.5 -48t-26 -38.5t-39 -26t-47.5 -9.5q-26 0 -48 9.5t-38.5 26t-26 38.5t-9.5 48zM23 160h139l461 1286h231l461 -1286h139v-160h-502v160h154l-113 321h-512l-112 -321
h155v-160h-501v160zM942 645l-176 502q-8 27 -14.5 54.5t-8.5 41.5l-2 14h-6q-6 -52 -24 -110l-179 -502h410zM629 1796h215l180 -260h-178l-109 164h-4l-106 -164h-178z" />
    <glyph glyph-name="uni1EAD" unicode="&#x1ead;" 
d="M446 -288q0 25 9.5 47.5t26 39t38.5 26t48 9.5q25 0 47.5 -9.5t39 -26t26 -39t9.5 -47.5q0 -26 -9.5 -48t-26 -38.5t-39 -26t-47.5 -9.5q-26 0 -48 9.5t-38.5 26t-26 38.5t-9.5 48zM68 289q0 78 31 138t88 97t117 60q31 12 64.5 21t71.5 14q76 12 126 15q49 3 106 3h65
v39q0 221 -221 221q-76 0 -148 -25q-73 -24 -110 -49l-39 -26l-80 141q3 2 6.5 5t11 8t19.5 12.5t32 17.5t40.5 19t41.5 17q42 16 108 30q34 7 67 10.5t67 3.5q200 0 302 -101t102 -298v-463q0 -45 45 -45h104v-154h-206q-129 0 -129 113v14l8 68h-4l-12 -24q-4 -8 -13 -21
t-24 -32q-29 -38 -64 -67q-33 -27 -98 -52q-62 -24 -131 -24q-143 0 -243 82q-101 83 -101 232zM268 305q0 -73 50 -125q51 -51 137 -51q124 0 204 104q80 106 80 232v43h-51q-420 0 -420 -203zM430 1426h215l180 -260h-178l-108 164h-4l-107 -164h-178z" />
    <glyph glyph-name="uni1EAE" unicode="&#x1eae;" horiz-adv-x="1477" 
d="M23 0v160h139l461 1286h231l461 -1286h139v-160h-502v160h154l-113 321h-512l-112 -321h155v-160h-501zM532 645h410l-176 502q-8 27 -14.5 54.5t-8.5 41.5l-2 14h-6q-6 -51 -24 -110zM737 1538q-114 0 -193 63.5t-79 176.5v28h151v-26q0 -60 35 -90.5t86 -30.5
q47 0 83 31.5t36 91.5v24h152v-28q0 -113 -79 -176.5t-192 -63.5zM635 1843l213 260h227l-254 -260h-186z" />
    <glyph glyph-name="uni1EAF" unicode="&#x1eaf;" 
d="M68 289q0 78 31.5 138t88 97t117 60.5t136 35t125.5 14.5t106 3h65v39q0 221 -221 221q-74 0 -147.5 -24.5t-110.5 -49.5l-39 -26l-80 141q6 4 17.5 13.5t51.5 29.5t82 36.5t108.5 30t133.5 13.5q199 0 301.5 -101.5t102.5 -297.5v-463q0 -45 45 -45h104v-154h-206
q-129 0 -129 113v14l8 68h-4q-4 -9 -11.5 -24t-37 -53t-64.5 -66.5t-97.5 -52.5t-131.5 -24q-142 0 -243 82t-101 232zM268 305q0 -74 50.5 -125t136.5 -51q125 0 204.5 104.5t79.5 231.5v43h-51q-420 0 -420 -203zM539 1178q-115 0 -194 63.5t-79 175.5v29h152v-27
q0 -59 34.5 -90t86.5 -31q47 0 82.5 32t35.5 91v25h152v-29q0 -112 -79 -175.5t-191 -63.5zM435 1470l213 260h227l-253 -260h-187z" />
    <glyph glyph-name="uni1EB0" unicode="&#x1eb0;" horiz-adv-x="1477" 
d="M23 0v160h139l461 1286h231l461 -1286h139v-160h-502v160h154l-113 321h-512l-112 -321h155v-160h-501zM532 645h410l-176 502q-8 27 -14.5 54.5t-8.5 41.5l-2 14h-6q-6 -51 -24 -110zM737 1538q-114 0 -193 63.5t-79 176.5v28h151v-26q0 -60 35 -90.5t86 -30.5
q47 0 83 31.5t36 91.5v24h152v-28q0 -113 -79 -176.5t-192 -63.5zM645 1843l-254 260h227l213 -260h-186z" />
    <glyph glyph-name="uni1EB1" unicode="&#x1eb1;" 
d="M68 289q0 78 31.5 138t88 97t117 60.5t136 35t125.5 14.5t106 3h65v39q0 221 -221 221q-74 0 -147.5 -24.5t-110.5 -49.5l-39 -26l-80 141q6 4 17.5 13.5t51.5 29.5t82 36.5t108.5 30t133.5 13.5q199 0 301.5 -101.5t102.5 -297.5v-463q0 -45 45 -45h104v-154h-206
q-129 0 -129 113v14l8 68h-4q-4 -9 -11.5 -24t-37 -53t-64.5 -66.5t-97.5 -52.5t-131.5 -24q-142 0 -243 82t-101 232zM268 305q0 -74 50.5 -125t136.5 -51q125 0 204.5 104.5t79.5 231.5v43h-51q-420 0 -420 -203zM539 1178q-115 0 -194 63.5t-79 175.5v29h152v-27
q0 -59 34.5 -90t86.5 -31q47 0 82.5 32t35.5 91v25h152v-29q0 -112 -79 -175.5t-191 -63.5zM452 1470l-253 260h229l211 -260h-187z" />
    <glyph glyph-name="uni1EB2" unicode="&#x1eb2;" horiz-adv-x="1477" 
d="M23 0v160h139l461 1286h231l461 -1286h139v-160h-502v160h154l-113 321h-512l-112 -321h155v-160h-501zM532 645h410l-176 502q-8 27 -14.5 54.5t-8.5 41.5l-2 14h-6q-6 -51 -24 -110zM737 1538q-114 0 -193 63.5t-79 176.5v28h151v-26q0 -60 35 -90.5t86 -30.5
q47 0 83 31.5t36 91.5v24h152v-28q0 -113 -79 -176.5t-192 -63.5zM879 1981q-21 -14 -39 -23t-31 -22t-19.5 -33.5t-2.5 -56.5h-133q-4 24 -4 46t5.5 42.5t18 39t34.5 35.5q17 10 37.5 25.5t41.5 32.5q13 35 -6.5 57t-56.5 22q-38 0 -52.5 -20t-14.5 -60h-111q0 54 12.5 91
t36.5 60t58.5 33.5t78.5 10.5q38 0 74 -12.5t64 -32.5q60 -46 60 -124q0 -72 -51 -111z" />
    <glyph glyph-name="uni1EB3" unicode="&#x1eb3;" 
d="M68 289q0 78 31.5 138t88 97t117 60.5t136 35t125.5 14.5t106 3h65v39q0 221 -221 221q-74 0 -147.5 -24.5t-110.5 -49.5l-39 -26l-80 141q6 4 17.5 13.5t51.5 29.5t82 36.5t108.5 30t133.5 13.5q199 0 301.5 -101.5t102.5 -297.5v-463q0 -45 45 -45h104v-154h-206
q-129 0 -129 113v14l8 68h-4q-4 -9 -11.5 -24t-37 -53t-64.5 -66.5t-97.5 -52.5t-131.5 -24q-142 0 -243 82t-101 232zM268 305q0 -74 50.5 -125t136.5 -51q125 0 204.5 104.5t79.5 231.5v43h-51q-420 0 -420 -203zM539 1178q-115 0 -194 63.5t-79 175.5v29h152v-27
q0 -59 34.5 -90t86.5 -31q47 0 82.5 32t35.5 91v25h152v-29q0 -112 -79 -175.5t-191 -63.5zM702 1600q-21 -14 -39 -23t-31 -22t-19.5 -33.5t-2.5 -56.5h-133q-4 24 -4 46t5.5 42.5t18 39t34.5 35.5q17 10 37.5 25.5t41.5 32.5q13 35 -6.5 57t-56.5 22q-38 0 -52.5 -20
t-14.5 -60h-111q0 54 12.5 91t36.5 60t58.5 33.5t78.5 10.5q38 0 74 -12.5t64 -32.5q60 -46 60 -124q0 -72 -51 -111z" />
    <glyph glyph-name="uni1EB4" unicode="&#x1eb4;" horiz-adv-x="1477" 
d="M23 0v160h139l461 1286h231l461 -1286h139v-160h-502v160h154l-113 321h-512l-112 -321h155v-160h-501zM532 645h410l-176 502q-8 27 -14.5 54.5t-8.5 41.5l-2 14h-6q-6 -51 -24 -110zM737 1538q-114 0 -193 63.5t-79 176.5v28h151v-26q0 -60 35 -90.5t86 -30.5
q47 0 83 31.5t36 91.5v24h152v-28q0 -113 -79 -176.5t-192 -63.5zM389 1838q0 260 209 260q49 0 90 -21.5t63.5 -47t51 -47t55.5 -21.5q82 0 82 131h147q0 -260 -209 -260q-49 0 -90 21.5t-63.5 47t-51 47t-55.5 21.5q-82 0 -82 -131h-147z" />
    <glyph glyph-name="uni1EB5" unicode="&#x1eb5;" 
d="M68 289q0 78 31.5 138t88 97t117 60.5t136 35t125.5 14.5t106 3h65v39q0 221 -221 221q-74 0 -147.5 -24.5t-110.5 -49.5l-39 -26l-80 141q6 4 17.5 13.5t51.5 29.5t82 36.5t108.5 30t133.5 13.5q199 0 301.5 -101.5t102.5 -297.5v-463q0 -45 45 -45h104v-154h-206
q-129 0 -129 113v14l8 68h-4q-4 -9 -11.5 -24t-37 -53t-64.5 -66.5t-97.5 -52.5t-131.5 -24q-142 0 -243 82t-101 232zM268 305q0 -74 50.5 -125t136.5 -51q125 0 204.5 104.5t79.5 231.5v43h-51q-420 0 -420 -203zM539 1178q-115 0 -194 63.5t-79 175.5v29h152v-27
q0 -59 34.5 -90t86.5 -31q47 0 82.5 32t35.5 91v25h152v-29q0 -112 -79 -175.5t-191 -63.5zM189 1503q0 260 209 260q50 0 90.5 -21.5t63 -47t51.5 -47t55 -21.5q82 0 82 131h148q0 -260 -209 -260q-49 0 -90 21.5t-63.5 47t-51.5 47t-55 21.5q-82 0 -82 -131h-148z" />
    <glyph glyph-name="uni1EB6" unicode="&#x1eb6;" horiz-adv-x="1477" 
d="M23 0v160h139l461 1286h231l461 -1286h139v-160h-502v160h154l-113 321h-512l-112 -321h155v-160h-501zM532 645h410l-176 502q-8 27 -14.5 54.5t-8.5 41.5l-2 14h-6q-6 -51 -24 -110zM737 1538q-114 0 -193 63.5t-79 176.5v28h151v-26q0 -60 35 -90.5t86 -30.5
q47 0 83 31.5t36 91.5v24h152v-28q0 -113 -79 -176.5t-192 -63.5zM616 -288q0 -25 9.5 -47.5t26 -39t39 -26t47.5 -9.5t47.5 9.5t39 26t26 39t9.5 47.5t-9.5 47.5t-26 39t-39 26t-47.5 9.5t-47.5 -9.5t-39 -26t-26 -39t-9.5 -47.5z" />
    <glyph glyph-name="uni1EB7" unicode="&#x1eb7;" 
d="M68 289q0 78 31.5 138t88 97t117 60.5t136 35t125.5 14.5t106 3h65v39q0 221 -221 221q-74 0 -147.5 -24.5t-110.5 -49.5l-39 -26l-80 141q6 4 17.5 13.5t51.5 29.5t82 36.5t108.5 30t133.5 13.5q199 0 301.5 -101.5t102.5 -297.5v-463q0 -45 45 -45h104v-154h-206
q-129 0 -129 113v14l8 68h-4q-4 -9 -11.5 -24t-37 -53t-64.5 -66.5t-97.5 -52.5t-131.5 -24q-142 0 -243 82t-101 232zM268 305q0 -74 50.5 -125t136.5 -51q125 0 204.5 104.5t79.5 231.5v43h-51q-420 0 -420 -203zM539 1178q-115 0 -194 63.5t-79 175.5v29h152v-27
q0 -59 34.5 -90t86.5 -31q47 0 82.5 32t35.5 91v25h152v-29q0 -112 -79 -175.5t-191 -63.5zM446 -288q0 -25 9.5 -47.5t26 -39t39 -26t47.5 -9.5t47.5 9.5t39 26t26 39t9.5 47.5t-9.5 47.5t-26 39t-39 26t-47.5 9.5t-47.5 -9.5t-39 -26t-26 -39t-9.5 -47.5z" />
    <glyph glyph-name="uni1EB8" unicode="&#x1eb8;" horiz-adv-x="1294" 
d="M109 0v160h180v1128h-180v158h1046v-336h-178v168h-483v-465h512v-168h-512v-477h518v174h178v-342h-1081zM525 -288q0 -25 9.5 -47.5t26 -39t39 -26t47.5 -9.5t47.5 9.5t39 26t26 39t9.5 47.5t-9.5 47.5t-26 39t-39 26t-47.5 9.5t-47.5 -9.5t-39 -26t-26 -39t-9.5 -47.5
z" />
    <glyph glyph-name="uni1EB9" unicode="&#x1eb9;" 
d="M84 518q0 244 146.5 393.5t371.5 149.5q213 0 331 -137.5t118 -348.5l-7 -75h-757q8 -166 110.5 -259.5t247.5 -93.5q80 0 158 29t115 57l36 31l82 -145q-18 -17 -50 -40.5t-137.5 -63.5t-215.5 -40q-242 0 -395.5 155t-153.5 388zM295 627h551q-4 131 -75 203.5
t-173 72.5q-115 0 -199 -73.5t-104 -202.5zM446 -288q0 -25 9.5 -47.5t26 -39t39 -26t47.5 -9.5t47.5 9.5t39 26t26 39t9.5 47.5t-9.5 47.5t-26 39t-39 26t-47.5 9.5t-47.5 -9.5t-39 -26t-26 -39t-9.5 -47.5z" />
    <glyph glyph-name="uni1EBA" unicode="&#x1eba;" horiz-adv-x="1294" 
d="M109 0v160h180v1128h-180v158h1046v-336h-178v168h-483v-465h512v-168h-512v-477h518v174h178v-342h-1081zM788 1655q-21 -14 -39 -23t-31 -22t-19.5 -33.5t-2.5 -56.5h-133q-4 24 -4 46t5.5 42.5t18 39t34.5 35.5q17 10 37.5 25.5t41.5 32.5q13 35 -6.5 57t-56.5 22
q-38 0 -52.5 -20t-14.5 -60h-111q0 54 12.5 91t36.5 60t58.5 33.5t78.5 10.5q38 0 74 -12.5t64 -32.5q60 -46 60 -124q0 -72 -51 -111z" />
    <glyph glyph-name="uni1EBB" unicode="&#x1ebb;" 
d="M84 518q0 244 146.5 393.5t371.5 149.5q213 0 331 -137.5t118 -348.5l-7 -75h-757q8 -166 110.5 -259.5t247.5 -93.5q80 0 158 29t115 57l36 31l82 -145q-18 -17 -50 -40.5t-137.5 -63.5t-215.5 -40q-242 0 -395.5 155t-153.5 388zM295 627h551q-4 131 -75 203.5
t-173 72.5q-115 0 -199 -73.5t-104 -202.5zM709 1293q-21 -14 -39 -23t-31 -22t-19.5 -33.5t-2.5 -56.5h-133q-4 24 -4 46t5.5 42.5t18 39t34.5 35.5q17 10 37.5 25.5t41.5 32.5q13 35 -6.5 57t-56.5 22q-38 0 -52.5 -20t-14.5 -60h-111q0 54 12.5 91t36.5 60t58.5 33.5
t78.5 10.5q38 0 74 -12.5t64 -32.5q60 -46 60 -124q0 -72 -51 -111z" />
    <glyph glyph-name="uni1EBC" unicode="&#x1ebc;" horiz-adv-x="1294" 
d="M109 0v160h180v1128h-180v158h1046v-336h-178v168h-483v-465h512v-168h-512v-477h518v174h178v-342h-1081zM298 1548q0 260 209 260q49 0 90 -21.5t63.5 -47t51 -47t55.5 -21.5q82 0 82 131h147q0 -260 -209 -260q-49 0 -90 21.5t-63.5 47t-51 47t-55.5 21.5
q-82 0 -82 -131h-147z" />
    <glyph glyph-name="uni1EBD" unicode="&#x1ebd;" 
d="M84 518q0 244 146.5 393.5t371.5 149.5q213 0 331 -137.5t118 -348.5l-7 -75h-757q8 -166 110.5 -259.5t247.5 -93.5q80 0 158 29t115 57l36 31l82 -145q-18 -17 -50 -40.5t-137.5 -63.5t-215.5 -40q-242 0 -395.5 155t-153.5 388zM295 627h551q-4 131 -75 203.5
t-173 72.5q-115 0 -199 -73.5t-104 -202.5zM274 1188q0 260 209 260q50 0 90.5 -21.5t63 -47t51.5 -47t55 -21.5q82 0 82 131h148q0 -260 -209 -260q-49 0 -90 21.5t-63.5 47t-51.5 47t-55 21.5q-82 0 -82 -131h-148z" />
    <glyph glyph-name="uni1EBE" unicode="&#x1ebe;" horiz-adv-x="1294" 
d="M109 0v160h180v1128h-180v158h1046v-336h-178v168h-483v-465h512v-168h-512v-477h518v174h178v-342h-1081zM381 1546l180 260h215l180 -260h-178l-108 164h-4l-107 -164h-178zM933 1721l213 260h227l-254 -260h-186z" />
    <glyph glyph-name="uni1EBF" unicode="&#x1ebf;" 
d="M84 518q0 244 146.5 393.5t371.5 149.5q213 0 331 -137.5t118 -348.5l-7 -75h-757q8 -166 110.5 -259.5t247.5 -93.5q80 0 158 29t115 57l36 31l82 -145q-18 -17 -50 -40.5t-137.5 -63.5t-215.5 -40q-242 0 -395.5 155t-153.5 388zM295 627h551q-4 131 -75 203.5
t-173 72.5q-115 0 -199 -73.5t-104 -202.5zM315 1186l181 260h215l180 -260h-178l-109 164h-4l-106 -164h-179zM845 1346l213 260h227l-253 -260h-187z" />
    <glyph glyph-name="uni1EC0" unicode="&#x1ec0;" horiz-adv-x="1294" 
d="M109 0v160h180v1128h-180v158h1046v-336h-178v168h-483v-465h512v-168h-512v-477h518v174h178v-342h-1081zM381 1546l180 260h215l180 -260h-178l-108 164h-4l-107 -164h-178zM993 1721l-254 260h229l211 -260h-186z" />
    <glyph glyph-name="uni1EC1" unicode="&#x1ec1;" 
d="M84 518q0 244 146.5 393.5t371.5 149.5q213 0 331 -137.5t118 -348.5l-7 -75h-757q8 -166 110.5 -259.5t247.5 -93.5q80 0 158 29t115 57l36 31l82 -145q-18 -17 -50 -40.5t-137.5 -63.5t-215.5 -40q-242 0 -395.5 155t-153.5 388zM295 627h551q-4 131 -75 203.5
t-173 72.5q-115 0 -199 -73.5t-104 -202.5zM315 1186l181 260h215l180 -260h-178l-109 164h-4l-106 -164h-179zM888 1346l-253 260h229l211 -260h-187z" />
    <glyph glyph-name="uni1EC2" unicode="&#x1ec2;" horiz-adv-x="1294" 
d="M109 0v160h180v1128h-180v158h1046v-336h-178v168h-483v-465h512v-168h-512v-477h518v174h178v-342h-1081zM381 1546l180 260h215l180 -260h-178l-108 164h-4l-107 -164h-178zM1143 1838q-21 -14 -39 -23t-31 -22t-19.5 -33.5t-2.5 -56.5h-133q-4 24 -4 46t5.5 42.5
t18 39t34.5 35.5q17 10 37.5 25.5t41.5 32.5q13 35 -6.5 57t-56.5 22q-38 0 -52.5 -20t-14.5 -60h-111q0 54 12.5 91t36.5 60t58.5 33.5t78.5 10.5q38 0 74 -12.5t64 -32.5q60 -46 60 -124q0 -72 -51 -111z" />
    <glyph glyph-name="uni1EC3" unicode="&#x1ec3;" 
d="M84 518q0 244 146.5 393.5t371.5 149.5q213 0 331 -137.5t118 -348.5l-7 -75h-757q8 -166 110.5 -259.5t247.5 -93.5q80 0 158 29t115 57l36 31l82 -145q-18 -17 -50 -40.5t-137.5 -63.5t-215.5 -40q-242 0 -395.5 155t-153.5 388zM295 627h551q-4 131 -75 203.5
t-173 72.5q-115 0 -199 -73.5t-104 -202.5zM315 1186l181 260h215l180 -260h-178l-109 164h-4l-106 -164h-179zM1100 1486q-21 -14 -39 -23t-31 -22t-19.5 -33.5t-2.5 -56.5h-133q-4 24 -4 46t5.5 42.5t18 39t34.5 35.5q17 10 37.5 25.5t41.5 32.5q13 35 -6.5 57t-56.5 22
q-38 0 -52.5 -20t-14.5 -60h-111q0 54 12.5 91t36.5 60t58.5 33.5t78.5 10.5q38 0 74 -12.5t64 -32.5q60 -46 60 -124q0 -72 -51 -111z" />
    <glyph glyph-name="uni1EC4" unicode="&#x1ec4;" horiz-adv-x="1294" 
d="M109 0v160h180v1128h-180v158h1046v-336h-178v168h-483v-465h512v-168h-512v-477h518v174h178v-342h-1081zM381 1536l180 260h215l180 -260h-178l-108 164h-4l-107 -164h-178zM318 1857q0 260 209 260q49 0 90 -21.5t63.5 -47t51 -47t55.5 -21.5q82 0 82 131h147
q0 -260 -209 -260q-49 0 -90 21.5t-63.5 47t-51 47t-55.5 21.5q-82 0 -82 -131h-147z" />
    <glyph glyph-name="uni1EC5" unicode="&#x1ec5;" 
d="M84 518q0 244 146.5 393.5t371.5 149.5q213 0 331 -137.5t118 -348.5l-7 -75h-757q8 -166 110.5 -259.5t247.5 -93.5q80 0 158 29t115 57l36 31l82 -145q-18 -17 -50 -40.5t-137.5 -63.5t-215.5 -40q-242 0 -395.5 155t-153.5 388zM295 627h551q-4 131 -75 203.5
t-173 72.5q-115 0 -199 -73.5t-104 -202.5zM315 1166l181 260h215l180 -260h-178l-109 164h-4l-106 -164h-179zM258 1501q0 260 209 260q50 0 90.5 -21.5t63 -47t51.5 -47t55 -21.5q82 0 82 131h148q0 -260 -209 -260q-49 0 -90 21.5t-63.5 47t-51.5 47t-55 21.5
q-82 0 -82 -131h-148z" />
    <glyph glyph-name="uni1EC6" unicode="&#x1ec6;" horiz-adv-x="1294" 
d="M525 -288q0 25 9.5 47.5t26 39t38.5 26t48 9.5q25 0 47.5 -9.5t39 -26t26 -39t9.5 -47.5q0 -26 -9.5 -48t-26 -38.5t-39 -26t-47.5 -9.5q-26 0 -48 9.5t-38.5 26t-26 38.5t-9.5 48zM109 160h180v1128h-180v158h1046v-336h-178v168h-483v-465h512v-168h-512v-477h518v174
h178v-342h-1081v160zM561 1796h215l180 -260h-178l-108 164h-4l-107 -164h-178z" />
    <glyph glyph-name="uni1EC7" unicode="&#x1ec7;" 
d="M446 -288q0 25 9.5 47.5t26 39t38.5 26t48 9.5q25 0 47.5 -9.5t39 -26t26 -39t9.5 -47.5q0 -26 -9.5 -48t-26 -38.5t-39 -26t-47.5 -9.5q-26 0 -48 9.5t-38.5 26t-26 38.5t-9.5 48zM84 518q0 244 146 393q147 150 372 150q212 0 331 -138q118 -136 118 -348l-7 -75h-757
q7 -165 110 -260q103 -93 248 -93q79 0 158 29q77 28 115 57l36 31l82 -145q-19 -17 -50 -41q-32 -23 -138 -63q-104 -40 -215 -40q-241 0 -396 155q-153 154 -153 388zM846 627q-5 131 -75 203q-70 73 -173 73q-114 0 -199 -74t-104 -202h551zM496 1426h215l180 -260h-178
l-109 164h-4l-106 -164h-179z" />
    <glyph glyph-name="uni1EC8" unicode="&#x1ec8;" horiz-adv-x="782" 
d="M109 0v160h180v1128h-180v158h567v-158h-182v-1128h182v-160h-567zM550 1655q-21 -14 -39 -23t-31 -22t-19.5 -33.5t-2.5 -56.5h-133q-4 24 -4 46t5.5 42.5t18 39t34.5 35.5q17 10 37.5 25.5t41.5 32.5q13 35 -6.5 57t-56.5 22q-38 0 -52.5 -20t-14.5 -60h-111
q0 54 12.5 91t36.5 60t58.5 33.5t78.5 10.5q38 0 74 -12.5t64 -32.5q60 -46 60 -124q0 -72 -51 -111z" />
    <glyph glyph-name="uni1EC9" unicode="&#x1ec9;" horiz-adv-x="688" 
d="M92 0v154h152v729h-156v153h354v-882h150v-154h-500zM456 1293q-21 -14 -39 -23t-31 -22t-19.5 -33.5t-2.5 -56.5h-133q-4 24 -4 46t5.5 42.5t18 39t34.5 35.5q17 10 37.5 25.5t41.5 32.5q13 35 -6.5 57t-56.5 22q-38 0 -52.5 -20t-14.5 -60h-111q0 54 12.5 91t36.5 60
t58.5 33.5t78.5 10.5q38 0 74 -12.5t64 -32.5q60 -46 60 -124q0 -72 -51 -111z" />
    <glyph glyph-name="uni1ECA" unicode="&#x1eca;" horiz-adv-x="782" 
d="M109 0v160h180v1128h-180v158h567v-158h-182v-1128h182v-160h-567zM269 -288q0 -25 9.5 -47.5t26 -39t39 -26t47.5 -9.5t47.5 9.5t39 26t26 39t9.5 47.5t-9.5 47.5t-26 39t-39 26t-47.5 9.5t-47.5 -9.5t-39 -26t-26 -39t-9.5 -47.5z" />
    <glyph glyph-name="uni1ECB" unicode="&#x1ecb;" horiz-adv-x="688" 
d="M256 1243v203h209v-203h-209zM98 0v154h162v729h-172v153h371v-882h164v-154h-525zM222 -288q0 -25 9.5 -47.5t26 -39t39 -26t47.5 -9.5t47.5 9.5t39 26t26 39t9.5 47.5t-9.5 47.5t-26 39t-39 26t-47.5 9.5t-47.5 -9.5t-39 -26t-26 -39t-9.5 -47.5z" />
    <glyph glyph-name="uni1ECC" unicode="&#x1ecc;" horiz-adv-x="1683" 
d="M98 733q0 311 214 524t530 213q313 0 528 -213t215 -524q0 -319 -215 -538.5t-528 -219.5q-316 0 -530 219.5t-214 538.5zM309 733q0 -244 154.5 -409.5t378.5 -165.5q221 0 375.5 165.5t154.5 409.5q0 236 -154.5 396.5t-375.5 160.5q-224 0 -378.5 -160.5
t-154.5 -396.5zM719 -288q0 -25 9.5 -47.5t26 -39t39 -26t47.5 -9.5t47.5 9.5t39 26t26 39t9.5 47.5t-9.5 47.5t-26 39t-39 26t-47.5 9.5t-47.5 -9.5t-39 -26t-26 -39t-9.5 -47.5z" />
    <glyph glyph-name="uni1ECD" unicode="&#x1ecd;" horiz-adv-x="1282" 
d="M244 131q-162 156 -162 389.5t162 387t397.5 153.5t397 -153.5t161.5 -387t-163 -389.5t-396 -156t-397 156zM285 520q0 -162 103.5 -267.5t252.5 -105.5q147 0 251.5 106.5t104.5 266.5t-104.5 264.5t-251.5 104.5q-149 0 -252.5 -104.5t-103.5 -264.5zM519 -288
q0 -25 9.5 -47.5t26 -39t39 -26t47.5 -9.5t47.5 9.5t39 26t26 39t9.5 47.5t-9.5 47.5t-26 39t-39 26t-47.5 9.5t-47.5 -9.5t-39 -26t-26 -39t-9.5 -47.5z" />
    <glyph glyph-name="uni1ECE" unicode="&#x1ece;" horiz-adv-x="1683" 
d="M98 733q0 311 214 524t530 213q313 0 528 -213t215 -524q0 -319 -215 -538.5t-528 -219.5q-316 0 -530 219.5t-214 538.5zM309 733q0 -244 154.5 -409.5t378.5 -165.5q221 0 375.5 165.5t154.5 409.5q0 236 -154.5 396.5t-375.5 160.5q-224 0 -378.5 -160.5
t-154.5 -396.5zM982 1655q-21 -14 -39 -23t-31 -22t-19.5 -33.5t-2.5 -56.5h-133q-4 24 -4 46t5.5 42.5t18 39t34.5 35.5q17 10 37.5 25.5t41.5 32.5q13 35 -6.5 57t-56.5 22q-38 0 -52.5 -20t-14.5 -60h-111q0 54 12.5 91t36.5 60t58.5 33.5t78.5 10.5q38 0 74 -12.5
t64 -32.5q60 -46 60 -124q0 -72 -51 -111z" />
    <glyph glyph-name="uni1ECF" unicode="&#x1ecf;" horiz-adv-x="1282" 
d="M244 131q-162 156 -162 389q0 234 162 387q161 154 397 154q237 0 397 -154q162 -153 162 -387q0 -233 -163 -389q-164 -156 -396 -156q-234 0 -397 156zM285 520q0 -162 103 -268q103 -105 253 -105q148 0 251 106q105 106 105 267q0 160 -105 264q-104 105 -251 105
q-150 0 -253 -105q-103 -103 -103 -264zM810 1293q-20 -14 -38.5 -23t-32 -22t-19.5 -33.5t-2 -56.5h-133q-8 48 1 88.5t53 74.5q17 10 37.5 25.5t41.5 32.5q13 35 -6.5 57t-56.5 22q-38 0 -52.5 -20t-14.5 -60h-111q0 107 49 151t137 44q38 0 74 -12.5t64 -32.5
q60 -47 60 -124q0 -72 -51 -111z" />
    <glyph glyph-name="uni1ED0" unicode="&#x1ed0;" horiz-adv-x="1683" 
d="M553 1546l180 260h215l180 -260h-178l-108 164h-4l-107 -164h-178zM98 733q0 311 214 524t530 213q313 0 528 -213t215 -524q0 -319 -215 -538.5t-528 -219.5q-316 0 -530 219.5t-214 538.5zM309 733q0 -244 154.5 -409.5t378.5 -165.5q221 0 375.5 165.5t154.5 409.5
q0 236 -154.5 396.5t-375.5 160.5q-224 0 -378.5 -160.5t-154.5 -396.5zM1073 1721l213 260h227l-254 -260h-186z" />
    <glyph glyph-name="uni1ED1" unicode="&#x1ed1;" horiz-adv-x="1282" 
d="M354 1186l181 260h215l180 -260h-178l-109 164h-4l-107 -164h-178zM244 131q-162 156 -162 389.5t162 387t397.5 153.5t397 -153.5t161.5 -387t-163 -389.5t-396 -156t-397 156zM285 520q0 -162 103.5 -267.5t252.5 -105.5q147 0 251.5 106.5t104.5 266.5t-104.5 264.5
t-251.5 104.5q-149 0 -252.5 -104.5t-103.5 -264.5zM888 1346l213 260h227l-253 -260h-187z" />
    <glyph glyph-name="uni1ED2" unicode="&#x1ed2;" horiz-adv-x="1683" 
d="M553 1546l180 260h215l180 -260h-178l-108 164h-4l-107 -164h-178zM98 733q0 311 214 524t530 213q313 0 528 -213t215 -524q0 -319 -215 -538.5t-528 -219.5q-316 0 -530 219.5t-214 538.5zM309 733q0 -244 154.5 -409.5t378.5 -165.5q221 0 375.5 165.5t154.5 409.5
q0 236 -154.5 396.5t-375.5 160.5q-224 0 -378.5 -160.5t-154.5 -396.5zM1160 1721l-254 260h229l211 -260h-186z" />
    <glyph glyph-name="uni1ED3" unicode="&#x1ed3;" horiz-adv-x="1282" 
d="M354 1186l181 260h215l180 -260h-178l-109 164h-4l-107 -164h-178zM244 131q-162 156 -162 389.5t162 387t397.5 153.5t397 -153.5t161.5 -387t-163 -389.5t-396 -156t-397 156zM285 520q0 -162 103.5 -267.5t252.5 -105.5q147 0 251.5 106.5t104.5 266.5t-104.5 264.5
t-251.5 104.5q-149 0 -252.5 -104.5t-103.5 -264.5zM938 1346l-253 260h229l211 -260h-187z" />
    <glyph glyph-name="uni1ED4" unicode="&#x1ed4;" horiz-adv-x="1683" 
d="M553 1546l180 260h215l180 -260h-178l-108 164h-4l-107 -164h-178zM98 733q0 311 214 524t530 213q313 0 528 -213t215 -524q0 -319 -215 -538.5t-528 -219.5q-316 0 -530 219.5t-214 538.5zM309 733q0 -244 154.5 -409.5t378.5 -165.5q221 0 375.5 165.5t154.5 409.5
q0 236 -154.5 396.5t-375.5 160.5q-224 0 -378.5 -160.5t-154.5 -396.5zM1337 1838q-21 -14 -39 -23t-31 -22t-19.5 -33.5t-2.5 -56.5h-133q-4 24 -4 46t5.5 42.5t18 39t34.5 35.5q17 10 37.5 25.5t41.5 32.5q13 35 -6.5 57t-56.5 22q-38 0 -52.5 -20t-14.5 -60h-111
q0 54 12.5 91t36.5 60t58.5 33.5t78.5 10.5q38 0 74 -12.5t64 -32.5q60 -46 60 -124q0 -72 -51 -111z" />
    <glyph glyph-name="uni1ED5" unicode="&#x1ed5;" horiz-adv-x="1282" 
d="M354 1186l181 260h215l180 -260h-178l-109 164h-4l-107 -164h-178zM244 131q-162 156 -162 389.5t162 387t397.5 153.5t397 -153.5t161.5 -387t-163 -389.5t-396 -156t-397 156zM285 520q0 -162 103.5 -267.5t252.5 -105.5q147 0 251.5 106.5t104.5 266.5t-104.5 264.5
t-251.5 104.5q-149 0 -252.5 -104.5t-103.5 -264.5zM1135 1486q-21 -14 -39 -23t-31 -22t-19.5 -33.5t-2.5 -56.5h-133q-4 24 -4 46t5.5 42.5t18 39t34.5 35.5q17 10 37.5 25.5t41.5 32.5q13 35 -6.5 57t-56.5 22q-38 0 -52.5 -20t-14.5 -60h-111q0 54 12.5 91t36.5 60
t58.5 33.5t78.5 10.5q38 0 74 -12.5t64 -32.5q60 -46 60 -124q0 -72 -51 -111z" />
    <glyph glyph-name="uni1ED6" unicode="&#x1ed6;" horiz-adv-x="1683" 
d="M553 1536l180 260h215l180 -260h-178l-108 164h-4l-107 -164h-178zM98 733q0 311 214 524t530 213q313 0 528 -213t215 -524q0 -319 -215 -538.5t-528 -219.5q-316 0 -530 219.5t-214 538.5zM309 733q0 -244 154.5 -409.5t378.5 -165.5q221 0 375.5 165.5t154.5 409.5
q0 236 -154.5 396.5t-375.5 160.5q-224 0 -378.5 -160.5t-154.5 -396.5zM485 1857q0 260 209 260q49 0 90 -21.5t63.5 -47t51 -47t55.5 -21.5q82 0 82 131h147q0 -260 -209 -260q-49 0 -90 21.5t-63.5 47t-51 47t-55.5 21.5q-82 0 -82 -131h-147z" />
    <glyph glyph-name="uni1ED7" unicode="&#x1ed7;" horiz-adv-x="1282" 
d="M354 1166l181 260h215l180 -260h-178l-109 164h-4l-107 -164h-178zM244 131q-162 156 -162 389.5t162 387t397.5 153.5t397 -153.5t161.5 -387t-163 -389.5t-396 -156t-397 156zM285 520q0 -162 103.5 -267.5t252.5 -105.5q147 0 251.5 106.5t104.5 266.5t-104.5 264.5
t-251.5 104.5q-149 0 -252.5 -104.5t-103.5 -264.5zM281 1501q0 260 209 260q50 0 90.5 -21.5t63 -47t51.5 -47t55 -21.5q82 0 82 131h148q0 -260 -209 -260q-49 0 -90 21.5t-63.5 47t-51.5 47t-55 21.5q-82 0 -82 -131h-148z" />
    <glyph glyph-name="uni1ED8" unicode="&#x1ed8;" horiz-adv-x="1683" 
d="M714 -288q0 25 9.5 47.5t26 39t38.5 26t48 9.5q25 0 47.5 -9.5t39 -26t26 -39t9.5 -47.5q0 -26 -9.5 -48t-26 -38.5t-39 -26t-47.5 -9.5q-26 0 -48 9.5t-38.5 26t-26 38.5t-9.5 48zM733 1796h215l180 -260h-178l-108 164h-4l-107 -164h-178zM98 733q0 311 214 524
t530 213q313 0 528 -213t215 -524q0 -318 -215 -539q-215 -219 -528 -219q-316 0 -530 219q-214 220 -214 539zM309 733q0 -244 154 -410q154 -165 379 -165q220 0 375 165q155 167 155 410q0 235 -155 396t-375 161q-224 0 -379 -161q-154 -160 -154 -396z" />
    <glyph glyph-name="uni1ED9" unicode="&#x1ed9;" horiz-adv-x="1282" 
d="M519 -288q0 25 9.5 47.5t26 39t38.5 26t48 9.5q25 0 47.5 -9.5t39 -26t26 -39t9.5 -47.5q0 -26 -9.5 -48t-26 -38.5t-39 -26t-47.5 -9.5q-26 0 -48 9.5t-38.5 26t-26 38.5t-9.5 48zM535 1426h215l180 -260h-178l-109 164h-4l-107 -164h-178zM244 131q-162 156 -162 389
q0 234 162 387q161 154 397 154q237 0 397 -154q162 -153 162 -387q0 -233 -163 -389q-164 -156 -396 -156q-234 0 -397 156zM285 520q0 -162 103 -268q103 -105 253 -105q148 0 251 106q105 106 105 267q0 160 -105 264q-104 105 -251 105q-150 0 -253 -105
q-103 -103 -103 -264z" />
    <glyph glyph-name="uni1EDA" unicode="&#x1eda;" horiz-adv-x="1762" 
d="M717 1546l213 260h227l-254 -260h-186zM98 733q0 -319 214 -538.5t530 -219.5q313 0 528 219.5t215 538.5q0 123 -35 230q107 32 170 118q105 142 84 365h-286v-158l96 2q14 -55 -41 -125q-33 -39 -86 -59q-47 82 -117 151q-215 213 -528 213q-316 0 -530 -213t-214 -524
zM309 733q0 236 154.5 396.5t378.5 160.5q221 0 375.5 -160.5t154.5 -396.5q0 -244 -154.5 -409.5t-375.5 -165.5q-224 0 -378.5 165.5t-154.5 409.5z" />
    <glyph glyph-name="uni1EDB" unicode="&#x1edb;" horiz-adv-x="1423" 
d="M518 1186l213 260h227l-253 -260h-187zM244 131q164 -156 397 -156t396 156t163 389v31q113 31 178 121q105 141 84 364h-286v-157l96 2q14 -56 -41 -125q-25 -31 -62 -49q-41 112 -131 200q-161 154 -396.5 154t-397.5 -153.5t-162 -387t162 -389.5zM285 520
q0 160 103.5 264.5t252.5 104.5q147 0 251.5 -104.5t104.5 -264.5t-104.5 -266.5t-251.5 -106.5q-149 0 -252.5 105.5t-103.5 267.5z" />
    <glyph glyph-name="uni1EDC" unicode="&#x1edc;" horiz-adv-x="1762" 
d="M776 1546l-254 260h230l211 -260h-187zM98 733q0 -319 214 -538.5t530 -219.5q313 0 528 219.5t215 538.5q0 123 -35 230q107 32 170 118q105 142 84 365h-286v-158l96 2q14 -55 -41 -125q-33 -39 -86 -59q-47 82 -117 151q-215 213 -528 213q-316 0 -530 -213t-214 -524
zM309 733q0 236 154.5 396.5t378.5 160.5q221 0 375.5 -160.5t154.5 -396.5q0 -244 -154.5 -409.5t-375.5 -165.5q-224 0 -378.5 165.5t-154.5 409.5z" />
    <glyph glyph-name="uni1EDD" unicode="&#x1edd;" horiz-adv-x="1423" 
d="M575 1186l-253 260h229l211 -260h-187zM244 131q164 -156 397 -156t396 156t163 389v31q113 31 178 121q105 141 84 364h-286v-157l96 2q14 -56 -41 -125q-25 -31 -62 -49q-41 112 -131 200q-161 154 -396.5 154t-397.5 -153.5t-162 -387t162 -389.5zM285 520
q0 160 103.5 264.5t252.5 104.5q147 0 251.5 -104.5t104.5 -264.5t-104.5 -266.5t-251.5 -106.5q-149 0 -252.5 105.5t-103.5 267.5z" />
    <glyph glyph-name="uni1EDE" unicode="&#x1ede;" horiz-adv-x="1762" 
d="M98 733q0 311 214 524t530 213q313 0 528 -213q70 -69 117 -151q53 20 86 59q55 70 41 125l-96 -2v158h286q21 -223 -84 -365q-63 -86 -170 -118q35 -107 35 -230q0 -319 -215 -538.5t-528 -219.5q-316 0 -530 219.5t-214 538.5zM309 733q0 -244 154.5 -409.5
t378.5 -165.5q221 0 375.5 165.5t154.5 409.5q0 236 -154.5 396.5t-375.5 160.5q-224 0 -378.5 -160.5t-154.5 -396.5zM982 1655q-21 -14 -39 -23t-31 -22t-19.5 -33.5t-2.5 -56.5h-133q-4 24 -4 46t5.5 42.5t18 39t34.5 35.5q17 10 37.5 25.5t41.5 32.5q13 35 -6.5 57
t-56.5 22q-38 0 -52.5 -20t-14.5 -60h-111q0 54 12.5 91t36.5 60t58.5 33.5t78.5 10.5q38 0 74 -12.5t64 -32.5q60 -46 60 -124q0 -72 -51 -111z" />
    <glyph glyph-name="uni1EDF" unicode="&#x1edf;" horiz-adv-x="1423" 
d="M244 131q-162 156 -162 389q0 234 162 387q161 154 397 154q237 0 397 -154q91 -90 131 -200q37 18 62 49q55 68 41 125l-96 -2v157h286q21 -223 -84 -364q-64 -89 -178 -121v-31q0 -233 -163 -389q-164 -156 -396 -156q-234 0 -397 156zM285 520q0 -162 103 -268
q103 -105 253 -105q148 0 251 106q105 106 105 267q0 160 -105 264q-104 105 -251 105q-150 0 -253 -105q-103 -103 -103 -264zM810 1293q-20 -14 -38.5 -23t-32 -22t-19.5 -33.5t-2 -56.5h-133q-8 48 1 88.5t53 74.5q17 10 37.5 25.5t41.5 32.5q13 35 -6.5 57t-56.5 22
q-38 0 -52.5 -20t-14.5 -60h-111q0 107 49 151t137 44q38 0 74 -12.5t64 -32.5q60 -47 60 -124q0 -72 -51 -111z" />
    <glyph glyph-name="uni1EE0" unicode="&#x1ee0;" horiz-adv-x="1762" 
d="M494 1548q0 260 208 260q50 0 91 -21.5t63.5 -47t51 -47t55.5 -21.5q81 0 81 131h148q0 -260 -209 -260q-49 0 -90 21.5t-63.5 47t-51 47t-55.5 21.5q-82 0 -82 -131h-147zM98 733q0 -319 214 -538.5t530 -219.5q313 0 528 219.5t215 538.5q0 123 -35 230q107 32 170 118
q105 142 84 365h-286v-158l96 2q14 -55 -41 -125q-33 -39 -86 -59q-47 82 -117 151q-215 213 -528 213q-316 0 -530 -213t-214 -524zM309 733q0 236 154.5 396.5t378.5 160.5q221 0 375.5 -160.5t154.5 -396.5q0 -244 -154.5 -409.5t-375.5 -165.5q-224 0 -378.5 165.5
t-154.5 409.5z" />
    <glyph glyph-name="uni1EE1" unicode="&#x1ee1;" horiz-adv-x="1423" 
d="M293 1188q0 260 209 260q49 0 90 -21.5t63.5 -47t51 -47t55.5 -21.5q82 0 82 131h147q0 -260 -209 -260q-49 0 -90 21.5t-63.5 47t-51 47t-55.5 21.5q-82 0 -82 -131h-147zM244 131q164 -156 397 -156t396 156t163 389v31q113 31 178 121q105 141 84 364h-286v-157l96 2
q14 -56 -41 -125q-25 -31 -62 -49q-41 112 -131 200q-161 154 -396.5 154t-397.5 -153.5t-162 -387t162 -389.5zM285 520q0 160 103.5 264.5t252.5 104.5q147 0 251.5 -104.5t104.5 -264.5t-104.5 -266.5t-251.5 -106.5q-149 0 -252.5 105.5t-103.5 267.5z" />
    <glyph glyph-name="uni1EE2" unicode="&#x1ee2;" horiz-adv-x="1762" 
d="M98 733q0 311 214 524t530 213q313 0 528 -213q70 -69 117 -151q53 20 86 59q55 70 41 125l-96 -2v158h286q21 -223 -84 -365q-63 -86 -170 -118q35 -107 35 -230q0 -319 -215 -538.5t-528 -219.5q-316 0 -530 219.5t-214 538.5zM309 733q0 -244 154.5 -409.5
t378.5 -165.5q221 0 375.5 165.5t154.5 409.5q0 236 -154.5 396.5t-375.5 160.5q-224 0 -378.5 -160.5t-154.5 -396.5zM719 -288q0 25 9.5 47.5t26 39t39 26t47.5 9.5t47.5 -9.5t39 -26t26 -39t9.5 -47.5t-9.5 -47.5t-26 -39t-39 -26t-47.5 -9.5t-47.5 9.5t-39 26t-26 39
t-9.5 47.5z" />
    <glyph glyph-name="uni1EE3" unicode="&#x1ee3;" horiz-adv-x="1423" 
d="M244 131q-162 156 -162 389.5t162 387t397.5 153.5t396.5 -154q90 -88 131 -200q37 18 62 49q55 69 41 125l-96 -2v157h286q21 -223 -84 -364q-65 -90 -178 -121v-31q0 -233 -163 -389t-396 -156t-397 156zM285 520q0 -162 103.5 -267.5t252.5 -105.5q147 0 251.5 106.5
t104.5 266.5t-104.5 264.5t-251.5 104.5q-149 0 -252.5 -104.5t-103.5 -264.5zM519 -288q0 25 9.5 47.5t26 39t39 26t47.5 9.5t47.5 -9.5t39 -26t26 -39t9.5 -47.5t-9.5 -47.5t-26 -39t-39 -26t-47.5 -9.5t-47.5 9.5t-39 26t-26 39t-9.5 47.5z" />
    <glyph glyph-name="uni1EE4" unicode="&#x1ee4;" horiz-adv-x="1632" 
d="M246 539v749h-183v158h570v-158h-182v-747q0 -148 55 -236q92 -147 311 -147t311 151q56 94 56 234v745h-183v158h568v-158h-180v-749q0 -209 -101 -353q-71 -102 -196 -156.5t-275 -54.5q-153 0 -277 55.5t-198 155.5q-96 131 -96 353zM694 -288q0 -25 9.5 -47.5t26 -39
t39 -26t47.5 -9.5t47.5 9.5t39 26t26 39t9.5 47.5t-9.5 47.5t-26 39t-39 26t-47.5 9.5t-47.5 -9.5t-39 -26t-26 -39t-9.5 -47.5z" />
    <glyph glyph-name="uni1EE5" unicode="&#x1ee5;" horiz-adv-x="1362" 
d="M215 373v510h-174v153h373v-622q0 -125 40 -191.5t154 -66.5q150 0 243 120.5t93 282.5v324h-174v153h373v-839q0 -45 45 -45h108v-152h-215q-131 0 -131 115v45l4 61h-4q-10 -26 -35.5 -62t-71.5 -80t-122 -74t-166 -30q-340 0 -340 398zM559 -288q0 -25 9.5 -47.5
t26 -39t39 -26t47.5 -9.5t47.5 9.5t39 26t26 39t9.5 47.5t-9.5 47.5t-26 39t-39 26t-47.5 9.5t-47.5 -9.5t-39 -26t-26 -39t-9.5 -47.5z" />
    <glyph glyph-name="uni1EE6" unicode="&#x1ee6;" horiz-adv-x="1632" 
d="M246 539v749h-183v158h570v-158h-182v-747q0 -148 55 -236q92 -147 311 -147t311 151q56 94 56 234v745h-183v158h568v-158h-180v-749q0 -209 -101 -353q-71 -102 -196 -156.5t-275 -54.5q-153 0 -277 55.5t-198 155.5q-96 131 -96 353zM957 1655q-21 -14 -39 -23
t-31 -22t-19.5 -33.5t-2.5 -56.5h-133q-4 24 -4 46t5.5 42.5t18 39t34.5 35.5q17 10 37.5 25.5t41.5 32.5q13 35 -6.5 57t-56.5 22q-38 0 -52.5 -20t-14.5 -60h-111q0 54 12.5 91t36.5 60t58.5 33.5t78.5 10.5q38 0 74 -12.5t64 -32.5q60 -46 60 -124q0 -72 -51 -111z" />
    <glyph glyph-name="uni1EE7" unicode="&#x1ee7;" horiz-adv-x="1362" 
d="M215 373v510h-174v153h373v-622q0 -125 40 -191.5t154 -66.5q150 0 243 120.5t93 282.5v324h-174v153h373v-839q0 -45 45 -45h108v-152h-215q-131 0 -131 115v45l4 61h-4q-10 -26 -35.5 -62t-71.5 -80t-122 -74t-166 -30q-340 0 -340 398zM822 1293q-21 -14 -39 -23
t-31 -22t-19.5 -33.5t-2.5 -56.5h-133q-4 24 -4 46t5.5 42.5t18 39t34.5 35.5q17 10 37.5 25.5t41.5 32.5q13 35 -6.5 57t-56.5 22q-38 0 -52.5 -20t-14.5 -60h-111q0 54 12.5 91t36.5 60t58.5 33.5t78.5 10.5q38 0 74 -12.5t64 -32.5q60 -46 60 -124q0 -72 -51 -111z" />
    <glyph glyph-name="uni1EE8" unicode="&#x1ee8;" horiz-adv-x="1708" 
d="M692 1546l213 260h228l-254 -260h-187zM246 539q0 -222 96 -353q74 -100 198 -155.5t277 -55.5q150 0 275 54.5t196 156.5q101 144 101 353v405q178 12 270 137q104 142 84 365h-287v-158l96 2q15 -55 -41 -125q-43 -53 -122 -71v352h-388v-158h183v-745q0 -140 -56 -234
q-92 -151 -311 -151t-311 147q-55 88 -55 236v747h182v158h-570v-158h183v-749z" />
    <glyph glyph-name="uni1EE9" unicode="&#x1ee9;" horiz-adv-x="1473" 
d="M530 1186l213 260h228l-254 -260h-187zM215 373q0 -398 340 -398q90 0 166 30t122 74t71.5 80t35.5 62h4l-4 -61v-45q0 -115 131 -115h215v152h-108q-45 0 -45 45v338q182 10 276 137q105 141 84 364h-286v-157l96 2q14 -56 -41 -125q-45 -56 -129 -74v354h-373v-153h174
v-324q0 -162 -93 -282.5t-243 -120.5q-114 0 -154 66.5t-40 191.5v622h-373v-153h174v-510z" />
    <glyph glyph-name="uni1EEA" unicode="&#x1eea;" horiz-adv-x="1708" 
d="M752 1546l-254 260h229l211 -260h-186zM246 539q0 -222 96 -353q74 -100 198 -155.5t277 -55.5q150 0 275 54.5t196 156.5q101 144 101 353v405q178 12 270 137q104 142 84 365h-287v-158l96 2q15 -55 -41 -125q-43 -53 -122 -71v352h-388v-158h183v-745q0 -140 -56 -234
q-92 -151 -311 -151t-311 147q-55 88 -55 236v747h182v158h-570v-158h183v-749z" />
    <glyph glyph-name="uni1EEB" unicode="&#x1eeb;" horiz-adv-x="1473" 
d="M588 1186l-254 260h229l211 -260h-186zM215 373q0 -398 340 -398q90 0 166 30t122 74t71.5 80t35.5 62h4l-4 -61v-45q0 -115 131 -115h215v152h-108q-45 0 -45 45v338q182 10 276 137q105 141 84 364h-286v-157l96 2q14 -56 -41 -125q-45 -56 -129 -74v354h-373v-153h174
v-324q0 -162 -93 -282.5t-243 -120.5q-114 0 -154 66.5t-40 191.5v622h-373v-153h174v-510z" />
    <glyph glyph-name="uni1EEC" unicode="&#x1eec;" horiz-adv-x="1708" 
d="M246 1288h-183v158h570v-158h-182v-747q0 -148 55 -236q92 -147 311 -147t311 151q56 94 56 234v745h-183v158h388v-352q79 18 122 71q56 70 41 125l-96 -2v158h287q20 -223 -84 -365q-92 -125 -270 -137v-405q0 -209 -101 -353q-71 -102 -196 -156.5t-275 -54.5
q-153 0 -277 55.5t-198 155.5q-96 131 -96 353v749zM957 1655q-21 -14 -39 -23t-31 -22t-19.5 -33.5t-2.5 -56.5h-133q-4 24 -4 46t5.5 42.5t18 39t34.5 35.5q17 10 37.5 25.5t41.5 32.5q13 35 -6.5 57t-56.5 22q-38 0 -52.5 -20t-14.5 -60h-111q0 54 12.5 91t36.5 60
t58.5 33.5t78.5 10.5q38 0 74 -12.5t64 -32.5q60 -46 60 -124q0 -72 -51 -111z" />
    <glyph glyph-name="uni1EED" unicode="&#x1eed;" horiz-adv-x="1473" 
d="M215 883h-174v153h373v-622q0 -125 40 -191.5t154 -66.5q150 0 243 120.5t93 282.5v324h-174v153h373v-354q84 18 129 74q55 69 41 125l-96 -2v157h286q21 -223 -84 -364q-94 -127 -276 -137v-338q0 -45 45 -45h108v-152h-215q-131 0 -131 115v45l4 61h-4
q-10 -26 -35.5 -62t-71.5 -80t-122 -74t-166 -30q-340 0 -340 398v510zM822 1293q-21 -14 -39 -23t-31 -22t-19.5 -33.5t-2.5 -56.5h-133q-4 24 -4 46t5.5 42.5t18 39t34.5 35.5q17 10 37.5 25.5t41.5 32.5q13 35 -6.5 57t-56.5 22q-38 0 -52.5 -20t-14.5 -60h-111
q0 54 12.5 91t36.5 60t58.5 33.5t78.5 10.5q38 0 74 -12.5t64 -32.5q60 -46 60 -124q0 -72 -51 -111z" />
    <glyph glyph-name="uni1EEE" unicode="&#x1eee;" horiz-adv-x="1708" 
d="M469 1548q0 260 209 260q49 0 90 -21.5t63.5 -47t51 -47t55.5 -21.5q82 0 82 131h147q0 -260 -209 -260q-49 0 -90 21.5t-63.5 47t-51 47t-55.5 21.5q-82 0 -82 -131h-147zM246 539q0 -222 96 -353q74 -100 198 -155.5t277 -55.5q150 0 275 54.5t196 156.5
q101 144 101 353v405q178 12 270 137q104 142 84 365h-287v-158l96 2q15 -55 -41 -125q-43 -53 -122 -71v352h-388v-158h183v-745q0 -140 -56 -234q-92 -151 -311 -151t-311 147q-55 88 -55 236v747h182v158h-570v-158h183v-749z" />
    <glyph glyph-name="uni1EEF" unicode="&#x1eef;" horiz-adv-x="1473" 
d="M305 1188q0 260 209 260q49 0 90 -21.5t63.5 -47t51.5 -47t55 -21.5q82 0 82 131h148q0 -260 -209 -260q-50 0 -90.5 21.5t-63.5 47t-51.5 47t-54.5 21.5q-82 0 -82 -131h-148zM215 373q0 -398 340 -398q90 0 166 30t122 74t71.5 80t35.5 62h4l-4 -61v-45
q0 -115 131 -115h215v152h-108q-45 0 -45 45v338q182 10 276 137q105 141 84 364h-286v-157l96 2q14 -56 -41 -125q-45 -56 -129 -74v354h-373v-153h174v-324q0 -162 -93 -282.5t-243 -120.5q-114 0 -154 66.5t-40 191.5v622h-373v-153h174v-510z" />
    <glyph glyph-name="uni1EF0" unicode="&#x1ef0;" horiz-adv-x="1708" 
d="M246 1288h-183v158h570v-158h-182v-747q0 -148 55 -236q92 -147 311 -147t311 151q56 94 56 234v745h-183v158h388v-352q79 18 122 71q56 70 41 125l-96 -2v158h287q20 -223 -84 -365q-92 -125 -270 -137v-405q0 -209 -101 -353q-71 -102 -196 -156.5t-275 -54.5
q-153 0 -277 55.5t-198 155.5q-96 131 -96 353v749zM694 -288q0 25 9.5 47.5t26 39t39 26t47.5 9.5t47.5 -9.5t39 -26t26 -39t9.5 -47.5t-9.5 -47.5t-26 -39t-39 -26t-47.5 -9.5t-47.5 9.5t-39 26t-26 39t-9.5 47.5z" />
    <glyph glyph-name="uni1EF1" unicode="&#x1ef1;" horiz-adv-x="1473" 
d="M215 883h-174v153h373v-622q0 -125 40 -191.5t154 -66.5q150 0 243 120.5t93 282.5v324h-174v153h373v-354q84 18 129 74q55 69 41 125l-96 -2v157h286q21 -223 -84 -364q-94 -127 -276 -137v-338q0 -45 45 -45h108v-152h-215q-131 0 -131 115v45l4 61h-4
q-10 -26 -35.5 -62t-71.5 -80t-122 -74t-166 -30q-340 0 -340 398v510zM614 -288q0 25 9.5 47.5t26 39t39 26t47.5 9.5t47.5 -9.5t39 -26t26 -39t9.5 -47.5t-9.5 -47.5t-26 -39t-39 -26t-47.5 -9.5t-47.5 9.5t-39 26t-26 39t-9.5 47.5z" />
    <glyph glyph-name="Ygrave" unicode="&#x1ef2;" horiz-adv-x="1331" 
d="M381 0v160h182v452l-405 676h-138v158h498v-158h-151l268 -454l29 -62h4q12 31 30 62l269 454h-150v158h494v-158h-137l-406 -676v-452h182v-160h-569zM589 1546l-254 260h229l211 -260h-186z" />
    <glyph glyph-name="ygrave" unicode="&#x1ef3;" horiz-adv-x="1208" 
d="M131 -215q59 -49 148 -49q129 0 190 143l43 103l-362 901h-132v153h474v-153h-138l232 -617l18 -90h6q8 45 25 90l229 617h-133v153h459v-153h-129l-410 -1047q-51 -129 -146 -197.5t-218 -68.5q-60 0 -115 16.5t-82 32.5l-27 16zM575 1186l-253 260h229l211 -260h-187z
" />
    <glyph glyph-name="uni1EF4" unicode="&#x1ef4;" horiz-adv-x="1331" 
d="M381 0v160h182v452l-405 676h-138v158h498v-158h-151l268 -454l29 -62h4q12 31 30 62l269 454h-150v158h494v-158h-137l-406 -676v-452h182v-160h-569zM543 -288q0 -25 9.5 -47.5t26 -39t39 -26t47.5 -9.5t47.5 9.5t39 26t26 39t9.5 47.5t-9.5 47.5t-26 39t-39 26
t-47.5 9.5t-47.5 -9.5t-39 -26t-26 -39t-9.5 -47.5z" />
    <glyph glyph-name="uni1EF5" unicode="&#x1ef5;" horiz-adv-x="1208" 
d="M131 -215q59 -49 148 -49q129 0 190 143l43 103l-362 901h-132v153h474v-153h-138l232 -617l18 -90h6q8 45 25 90l229 617h-133v153h459v-153h-129l-410 -1047q-51 -129 -146 -197.5t-218 -68.5q-60 0 -115 16.5t-82 32.5l-27 16zM746 -288q0 -25 9.5 -47.5t26 -39
t39 -26t47.5 -9.5t47.5 9.5t39 26t26 39t9.5 47.5t-9.5 47.5t-26 39t-39 26t-47.5 9.5t-47.5 -9.5t-39 -26t-26 -39t-9.5 -47.5z" />
    <glyph glyph-name="uni1EF6" unicode="&#x1ef6;" horiz-adv-x="1331" 
d="M381 0v160h182v452l-405 676h-138v158h498v-158h-151l268 -454l29 -62h4q12 31 30 62l269 454h-150v158h494v-158h-137l-406 -676v-452h182v-160h-569zM806 1655q-21 -14 -39 -23t-31 -22t-19.5 -33.5t-2.5 -56.5h-133q-4 24 -4 46t5.5 42.5t18 39t34.5 35.5
q17 10 37.5 25.5t41.5 32.5q13 35 -6.5 57t-56.5 22q-38 0 -52.5 -20t-14.5 -60h-111q0 54 12.5 91t36.5 60t58.5 33.5t78.5 10.5q38 0 74 -12.5t64 -32.5q60 -46 60 -124q0 -72 -51 -111z" />
    <glyph glyph-name="uni1EF7" unicode="&#x1ef7;" horiz-adv-x="1208" 
d="M131 -215q59 -49 148 -49q129 0 190 143l43 103l-362 901h-132v153h474v-153h-138l232 -617l18 -90h6q8 45 25 90l229 617h-133v153h459v-153h-129l-410 -1047q-51 -129 -146 -197.5t-218 -68.5q-60 0 -115 16.5t-82 32.5l-27 16zM623 1293q-21 -14 -39 -23t-31 -22
t-19.5 -33.5t-2.5 -56.5h-133q-4 24 -4 46t5.5 42.5t18 39t34.5 35.5q17 10 37.5 25.5t41.5 32.5q13 35 -6.5 57t-56.5 22q-38 0 -52.5 -20t-14.5 -60h-111q0 54 12.5 91t36.5 60t58.5 33.5t78.5 10.5q38 0 74 -12.5t64 -32.5q60 -46 60 -124q0 -72 -51 -111z" />
    <glyph glyph-name="uni1EF8" unicode="&#x1ef8;" horiz-adv-x="1331" 
d="M381 0v160h182v452l-405 676h-138v158h498v-158h-151l268 -454l29 -62h4q12 31 30 62l269 454h-150v158h494v-158h-137l-406 -676v-452h182v-160h-569zM316 1548q0 260 209 260q49 0 90 -21.5t63.5 -47t51 -47t55.5 -21.5q82 0 82 131h147q0 -260 -209 -260
q-49 0 -90 21.5t-63.5 47t-51 47t-55.5 21.5q-82 0 -82 -131h-147z" />
    <glyph glyph-name="uni1EF9" unicode="&#x1ef9;" horiz-adv-x="1208" 
d="M131 -215q59 -49 148 -49q129 0 190 143l43 103l-362 901h-132v153h474v-153h-138l232 -617l18 -90h6q8 45 25 90l229 617h-133v153h459v-153h-129l-410 -1047q-51 -129 -146 -197.5t-218 -68.5q-60 0 -115 16.5t-82 32.5l-27 16zM182 1188q0 260 209 260
q50 0 90.5 -21.5t63 -47t51.5 -47t55 -21.5q82 0 82 131h148q0 -260 -209 -260q-49 0 -90 21.5t-63.5 47t-51.5 47t-55 21.5q-82 0 -82 -131h-148z" />
    <glyph glyph-name="endash" unicode="&#x2013;" horiz-adv-x="1462" 
d="M193 504v160h1077v-160h-1077z" />
    <glyph glyph-name="emdash" unicode="&#x2014;" horiz-adv-x="1872" 
d="M193 504v160h1486v-160h-1486z" />
    <glyph glyph-name="quoteleft" unicode="&#x2018;" horiz-adv-x="469" 
d="M96 1022l146 446h147l-100 -446h-193z" />
    <glyph glyph-name="quoteright" unicode="&#x2019;" horiz-adv-x="457" 
d="M102 1022l101 446h192l-145 -446h-148z" />
    <glyph glyph-name="quotesinglbase" unicode="&#x201a;" horiz-adv-x="504" 
d="M74 -231l100 446h188l-145 -446h-143z" />
    <glyph glyph-name="quotedblleft" unicode="&#x201c;" horiz-adv-x="772" 
d="M96 1022l146 446h147l-98 -446h-195zM397 1022l146 446h147l-98 -446h-195z" />
    <glyph glyph-name="quotedblright" unicode="&#x201d;" horiz-adv-x="758" 
d="M403 1022l101 446h192l-145 -446h-148zM102 1022l101 446h192l-145 -446h-148z" />
    <glyph glyph-name="quotedblbase" unicode="&#x201e;" horiz-adv-x="799" 
d="M371 -231l100 446h186l-145 -446h-141zM74 -231l100 446h188l-145 -446h-143z" />
    <glyph glyph-name="dagger" unicode="&#x2020;" horiz-adv-x="864" 
d="M334 -102v981h-248v157h248v410h190v-410h254v-157h-254v-981h-190z" />
    <glyph glyph-name="daggerdbl" unicode="&#x2021;" horiz-adv-x="891" 
d="M98 350v160h248v369h-248v157h248v410h193v-410h254v-157h-254v-369h254v-160h-254v-452h-193v452h-248z" />
    <glyph glyph-name="bullet" unicode="&#x2022;" horiz-adv-x="846" 
d="M645 371q-92 -92 -223 -92t-224 93q-92 94 -92 224t92 224q93 93 224 93q130 0 224 -92q93 -92 93 -225q0 -134 -94 -225z" />
    <glyph glyph-name="ellipsis" unicode="&#x2026;" horiz-adv-x="1581" 
d="M1219 0v215h206v-215h-206zM686 0v215h209v-215h-209zM156 0v215h206v-215h-206z" />
    <glyph glyph-name="perthousand" unicode="&#x2030;" horiz-adv-x="2261" 
d="M104 1167q0 125 90 214q92 89 220 89t220 -89q91 -88 91 -214t-91 -214q-92 -89 -220 -89q-129 0 -220 88q-90 88 -90 215zM1241 1446h193l-1106 -1446h-191zM414 1016q65 0 108 43t43 108q0 63 -44 109q-44 45 -108 45q-63 0 -106 -45q-43 -44 -43 -109q0 -64 43 -107
q44 -44 107 -44zM1573 279q0 124 90 213q90 90 219 90q128 0 220 -90q91 -88 91 -214q0 -124 -91 -214q-92 -89 -220 -89q-130 0 -219 88q-90 88 -90 216zM936 63q-90 91 -90 215q0 126 91 214q91 90 220 90q128 0 220 -90q91 -88 91 -214q0 -124 -91 -214q-92 -89 -220 -89
q-130 0 -221 88zM2034 279q0 62 -44 108q-44 45 -108 45q-63 0 -106 -45q-43 -44 -43 -109q0 -64 43 -107q44 -44 106 -44q65 0 108 43q44 44 44 109zM1006 279q0 -65 44 -109q43 -43 107 -43t108 44t44 107t-44 109q-44 45 -108 45t-107 -45q-44 -46 -44 -108z" />
    <glyph glyph-name="guilsinglleft" unicode="&#x2039;" horiz-adv-x="735" 
d="M424 158l-336 420l336 421h199l-336 -421l336 -420h-199z" />
    <glyph glyph-name="guilsinglright" unicode="&#x203a;" horiz-adv-x="735" 
d="M113 158l336 420l-336 421h198l336 -421l-336 -420h-198z" />
    <glyph glyph-name="fraction" unicode="&#x2044;" horiz-adv-x="305" 
d="M-268 0l688 1446h153l-686 -1446h-155z" />
    <glyph glyph-name="zerosuperior" unicode="&#x2070;" horiz-adv-x="817" 
d="M410 846q-324 0 -324 469q0 467 324 467q321 0 321 -467q0 -469 -321 -469zM410 987q165 0 165 328q0 323 -165 323q-168 0 -168 -323q0 -328 168 -328z" />
    <glyph glyph-name="foursuperior" unicode="&#x2074;" horiz-adv-x="803" 
d="M469 866v224h-426v98l412 573h166v-551h127v-120h-127v-224h-152zM201 1210h268v299l8 93h-6q-18 -46 -43 -80l-227 -308v-4z" />
    <glyph glyph-name="fivesuperior" unicode="&#x2075;" horiz-adv-x="754" 
d="M350 846q-84 0 -156.5 31.5t-103.5 64.5l-33 31l86 102q9 -10 25 -25.5t67.5 -41t104.5 -25.5q78 0 132 48t54 122t-53 122t-135 48q-39 0 -76 -10t-55 -23l-19 -10l-86 31l50 450h483v-231h-127v108h-232l-14 -153l-10 -68h4q47 21 113 21q137 0 225 -83t88 -204
q0 -125 -93 -215t-239 -90z" />
    <glyph glyph-name="sixsuperior" unicode="&#x2076;" horiz-adv-x="784" 
d="M418 846q-148 0 -243 113.5t-95 302.5q0 200 105.5 360t297.5 160q49 0 96.5 -11.5t71.5 -21.5l23 -12l-51 -131q-68 32 -134 32q-94 0 -155.5 -71.5t-81.5 -184.5h4q63 64 162 64q135 0 217 -82t82 -211q0 -135 -84 -221t-215 -86zM418 987q67 0 106 48t39 120
q0 76 -45 124t-121 48q-63 0 -111 -33.5t-48 -74.5q0 -86 52 -159t128 -73z" />
    <glyph glyph-name="sevensuperior" unicode="&#x2077;" horiz-adv-x="725" 
d="M121 866l368 727l33 45v4q-28 -4 -55 -4h-274v-108h-130v231h625v-104l-405 -791h-162z" />
    <glyph glyph-name="eightsuperior" unicode="&#x2078;" horiz-adv-x="801" 
d="M223 1358q-104 76 -104 184q0 113 85 176.5t204 63.5q116 0 203 -64.5t87 -179.5q0 -106 -110 -229q131 -76 131 -203q0 -115 -92 -187.5t-223.5 -72.5t-228.5 73.5t-97 204.5t145 234zM477 1362q76 76 76 168q0 55 -44 87t-103 32q-58 0 -98 -30t-40 -83
q0 -16 5.5 -31.5t12.5 -28t22.5 -24.5t24.5 -19.5t32.5 -19.5t35 -17t39 -17.5t37.5 -16.5zM403 979q62 0 112 38t50 95q0 27 -12 49.5t-41 43t-50.5 31.5t-69.5 31.5t-66 30.5q-97 -77 -97 -168q0 -69 52.5 -110t121.5 -41z" />
    <glyph glyph-name="ninesuperior" unicode="&#x2079;" horiz-adv-x="784" 
d="M303 846q-49 0 -97 11t-71 24l-24 10l51 131q65 -33 137 -33q90 0 152.5 73t80.5 183h-4q-67 -63 -170 -63q-129 0 -209.5 84t-80.5 213q0 133 84 218t215 85q147 0 242.5 -114t95.5 -302q0 -127 -41 -241.5t-135.5 -196.5t-225.5 -82zM391 1300q66 0 111 35t45 95
q0 69 -53.5 139.5t-131.5 70.5q-63 0 -102 -48t-39 -119q0 -76 45 -124.5t125 -48.5z" />
    <glyph glyph-name="zeroinferior" unicode="&#x2080;" horiz-adv-x="817" 
d="M410 -342q-324 0 -324 469q0 467 324 467q321 0 321 -467q0 -469 -321 -469zM410 -201q165 0 165 328q0 324 -165 324q-168 0 -168 -324q0 -328 168 -328z" />
    <glyph glyph-name="oneinferior" unicode="&#x2081;" horiz-adv-x="688" 
d="M76 -322v127h211v506l6 64h-4q-10 -19 -33 -37l-98 -96l-95 100l240 231h137v-768h209v-127h-573z" />
    <glyph glyph-name="twoinferior" unicode="&#x2082;" horiz-adv-x="766" 
d="M70 -240q0 90 45 163t109.5 119t129 86t109.5 88t45 103q0 58 -41 96t-105 38q-45 0 -89 -25t-64 -49l-21 -25l-100 92q4 7 11 17t35 34.5t57.5 44t80 36t103.5 16.5q129 0 209 -74t80 -188q0 -84 -43 -149.5t-106.5 -107.5t-126 -80t-109 -85t-50.5 -105h322v105h129
v-232h-602q-8 52 -8 82z" />
    <glyph glyph-name="threeinferior" unicode="&#x2083;" horiz-adv-x="766" 
d="M94 340v231h574v-98l-230 -266q105 -17 175.5 -80.5t70.5 -173.5q0 -121 -90 -209t-229 -88q-91 0 -166.5 34t-104.5 68l-31 33l87 105q8 -13 23 -29.5t69.5 -45t115.5 -28.5q68 0 119 45t51 111q0 67 -53 106t-127 39h-65l-33 78l194 236l45 41v6q-28 -6 -61 -6h-205
v-109h-129z" />
    <glyph glyph-name="fourinferior" unicode="&#x2084;" horiz-adv-x="803" 
d="M469 -322v224h-426v98l412 573h166v-550h127v-121h-127v-224h-152zM201 23h268v299l8 92h-6q-18 -45 -43 -80l-227 -307v-4z" />
    <glyph glyph-name="fiveinferior" unicode="&#x2085;" horiz-adv-x="754" 
d="M350 -342q-84 0 -156.5 31.5t-103.5 64.5l-33 31l86 102q9 -10 25 -25.5t67.5 -41t104.5 -25.5q78 0 132 48t54 122t-53 122t-135 48q-39 0 -76 -10t-55 -23l-19 -10l-86 31l50 450h483v-231h-127v109h-232l-14 -154l-10 -68h4q47 21 113 21q137 0 225 -83t88 -204
q0 -125 -93 -215t-239 -90z" />
    <glyph glyph-name="sixinferior" unicode="&#x2086;" horiz-adv-x="784" 
d="M418 -342q-148 0 -243 113.5t-95 302.5q0 200 105.5 360t297.5 160q49 0 96.5 -11.5t71.5 -21.5l23 -12l-51 -131q-68 33 -134 33q-94 0 -155.5 -72t-81.5 -184h4q63 63 162 63q135 0 217 -82t82 -211q0 -135 -84 -221t-215 -86zM418 -201q67 0 106 48.5t39 119.5
q0 76 -45 124t-121 48q-63 0 -111 -33.5t-48 -74.5q0 -86 52 -159t128 -73z" />
    <glyph glyph-name="seveninferior" unicode="&#x2087;" horiz-adv-x="725" 
d="M121 -324l368 727l33 46v4q-28 -4 -55 -4h-274v-109h-130v231h625v-104l-405 -791h-162z" />
    <glyph glyph-name="eightinferior" unicode="&#x2088;" horiz-adv-x="801" 
d="M223 172q-104 76 -104 184q0 113 85 176.5t204 63.5q116 0 203 -64.5t87 -179.5q0 -106 -110 -229q131 -76 131 -203q0 -115 -92 -187.5t-223.5 -72.5t-228.5 73.5t-97 205t145 233.5zM477 176q76 76 76 168q0 55 -44 87t-103 32q-58 0 -98 -30t-40 -83q0 -16 5.5 -31.5
t12.5 -27.5t22.5 -24.5t24.5 -19.5t32.5 -19.5t35 -17.5t39 -17.5t37.5 -16.5zM403 -207q62 0 112 38t50 95q0 27 -12 49.5t-41 43t-50.5 31.5t-69.5 31.5t-66 31.5q-97 -78 -97 -168q0 -70 52.5 -111t121.5 -41z" />
    <glyph glyph-name="nineinferior" unicode="&#x2089;" horiz-adv-x="784" 
d="M303 -342q-49 0 -97 11.5t-71 23.5l-24 10l51 131q65 -33 137 -33q90 0 152.5 73t80.5 183h-4q-67 -63 -170 -63q-129 0 -209.5 84t-80.5 213q0 133 84 218t215 85q147 0 242.5 -113.5t95.5 -302.5q0 -127 -41 -241.5t-135.5 -196.5t-225.5 -82zM391 113q66 0 111 34.5
t45 94.5q0 69 -53.5 140t-131.5 71q-63 0 -102 -48.5t-39 -119.5q0 -76 45 -124t125 -48z" />
    <glyph glyph-name="Euro" unicode="&#x20ac;" horiz-adv-x="1227" 
d="M90 512v125h113q-10 84 0 188h-113v127h135q64 228 252.5 373t437.5 145q50 0 102 -6t79 -12l26 -6l-47 -176q-80 20 -164 20q-170 0 -294.5 -92t-176.5 -246h574l-27 -127h-575q-11 -80 0 -188h542l-26 -125h-482q50 -160 176 -257t296 -97q47 0 94 7t69 15l25 6
l39 -176q-101 -35 -230 -35q-258 0 -445 149.5t-247 387.5h-133z" />
    <glyph glyph-name="trademark" unicode="&#x2122;" horiz-adv-x="1954" 
d="M901 545l72 901h143l213 -471l27 -86h4q12 49 29 86l213 471h143l70 -901h-156l-41 538l2 62h-4l-195 -434h-125l-194 434h-4l2 -62l-43 -538h-156zM371 545v764h-314v137h781v-137h-314v-764h-153z" />
    <glyph glyph-name="partialdiff" unicode="&#x2202;" horiz-adv-x="1106" 
d="M907 494q0 -53 -4.5 -107t-17 -105.5t-36 -99t-61.5 -86.5q-51 -52 -117 -80t-147 -28q-80 0 -146.5 28t-117.5 80q-38 39 -61 86.5t-36 99t-17.5 105.5t-4.5 107q0 58 4.5 114t17.5 108t36 97.5t61 83.5q42 42 105.5 72t144.5 30q42 0 80.5 -5.5t75 -21t71 -42.5
t66.5 -70v176q0 73 -17.5 135.5t-54.5 108.5t-93 72t-134 26q-47 0 -82 -7t-64 -21t-55 -34t-55 -46l-68 67q39 35 74 60t72 41.5t79.5 24t98.5 7.5q97 0 172 -31t126.5 -87.5t78 -135.5t26.5 -174v-548zM803 494q0 43 -2 88t-10.5 88.5t-25.5 82.5t-46 70q-38 41 -88 62.5
t-107 21.5t-106.5 -21.5t-87.5 -62.5q-29 -31 -46 -70t-25.5 -82.5t-10.5 -88.5t-2 -88t2 -88.5t10.5 -89t25.5 -82.5t46 -70q38 -40 87.5 -62t106.5 -22t107 22t88 62q29 31 46 70t25.5 82.5t10.5 89t2 88.5z" />
    <glyph glyph-name="uni2206" unicode="&#x2206;" horiz-adv-x="1235" 
d="M16 0l537 1458h129l535 -1458h-1201zM618 1235l-397 -1100h793z" />
    <glyph glyph-name="product" unicode="&#x220f;" horiz-adv-x="1432" 
d="M1096 -471v1929h-760v-1929h-111v2027h981v-2027h-110z" />
    <glyph glyph-name="summation" unicode="&#x2211;" horiz-adv-x="1128" 
d="M129 -471v98l424 944l-424 887v98h885v-98h-760l399 -837v-99l-399 -895h760v-98h-885z" />
    <glyph glyph-name="minus" unicode="&#x2212;" horiz-adv-x="1255" 
d="M98 504v160h1059v-160h-1059z" />
    <glyph glyph-name="radical" unicode="&#x221a;" horiz-adv-x="1126" 
d="M885 1360l-445 -1360h-94l-326 987h115l258 -792l408 1263h264v-98h-180z" />
    <glyph glyph-name="infinity" unicode="&#x221e;" horiz-adv-x="1006" 
d="M874 715q0 -155 -109 -264q-108 -109 -262 -109t-263 109t-109 263t109 262q109 109 263 109t262 -108q109 -106 109 -262z" />
    <glyph glyph-name="integral" unicode="&#x222b;" horiz-adv-x="674" 
d="M541 1366q-79 0 -115.5 -43t-36.5 -121v-1415q0 -56 -15 -103t-45 -81.5t-74.5 -54t-102.5 -19.5h-91v92h72q79 0 115.5 43.5t36.5 120.5v1415q0 56 15 103.5t45 82t74.5 53.5t102.5 19h90v-92h-71z" />
    <glyph glyph-name="approxequal" unicode="&#x2248;" horiz-adv-x="1255" 
d="M201 657l-84 121q141 150 309 150q102 0 220 -72t185 -72q121 0 226 113l84 -121q-144 -147 -310 -147q-102 0 -219.5 71.5t-185.5 71.5q-115 0 -225 -115zM201 272l-84 119q141 150 309 150q102 0 220 -72t185 -72q121 0 226 113l84 -121q-144 -147 -310 -147
q-102 0 -219.5 71.5t-185.5 71.5q-117 0 -225 -113z" />
    <glyph glyph-name="notequal" unicode="&#x2260;" horiz-adv-x="1255" 
d="M248 150l114 159h-225v160h332l164 227h-496v160h602l168 236l105 -72l-119 -164h221v-160h-328l-161 -227h489v-160h-598l-162 -229z" />
    <glyph glyph-name="lessequal" unicode="&#x2264;" horiz-adv-x="1255" 
d="M119 516v135l954 426v-182l-733 -309v-4l733 -310v-182zM121 -195h952v-159h-952v159z" />
    <glyph glyph-name="greaterequal" unicode="&#x2265;" horiz-adv-x="1255" 
d="M182 90v182l731 310v4l-731 309v182l955 -426v-135zM182 -195h953v-159h-953v159z" />
    <glyph glyph-name="lozenge" unicode="&#x25ca;" horiz-adv-x="1339" 
d="M670 -14l-523 743l523 744l522 -744zM670 1313l-406 -584l406 -588l405 588z" />
    <glyph glyph-name="f_f" unicode="&#xfb00;" horiz-adv-x="1473" 
d="M98 0v154h162v729h-172v153h172v51q0 117 39 197t103.5 115t118.5 48t112 13l94 -6v-164q-27 6 -74 6q-194 0 -194 -204v-56h506v51q0 117 38.5 197t102 115t118 48t111.5 13l97 -6v-164q-27 6 -76 6q-193 0 -193 -204v-56h250v-153h-250v-729h191v-154h-553v154h164v729
h-506v-729h190v-154h-551z" />
    <glyph glyph-name="fi" unicode="&#xfb01;" horiz-adv-x="1389" 
d="M98 0v154h162v729h-172v153h172v51q0 117 39 197t103.5 115t118.5 48t112 13l94 -6v-164q-27 6 -74 6q-194 0 -194 -204v-56h704v-882h162v-154h-524v154h164v729h-506v-729h190v-154h-551zM958 1243v203h209v-203h-209z" />
    <glyph glyph-name="fl" unicode="&#xfb02;" horiz-adv-x="1352" 
d="M98 0v154h162v729h-172v153h172v31q0 115 42 199t113.5 128t151.5 64.5t174 20.5q97 0 193 -12.5t143 -24.5l47 -15v-1120q0 -74 23.5 -110.5t93.5 -36.5l47 2v-164q-41 -4 -88 -4q-127 0 -200.5 66.5t-73.5 234.5v1005q-66 21 -191 21q-121 0 -198.5 -58.5t-77.5 -189.5
v-37h250v-153h-250v-729h190v-154h-551z" />
    <glyph glyph-name="f_f_i" unicode="&#xfb03;" horiz-adv-x="2091" 
d="M98 0v154h162v729h-172v153h172v51q0 117 39 197t103.5 115t118.5 48t112 13l94 -6v-164q-27 6 -74 6q-194 0 -194 -204v-56h506v51q0 117 38.5 197t102 115t118 48t111.5 13l97 -6v-164q-27 6 -76 6q-193 0 -193 -204v-56h703v-882h164v-154h-525v154h164v729h-506v-729
h191v-154h-553v154h164v729h-506v-729h190v-154h-551zM1663 1243v203h209v-203h-209z" />
    <glyph glyph-name="f_f_l" unicode="&#xfb04;" horiz-adv-x="2054" 
d="M98 0v154h162v729h-172v153h172v51q0 95 27.5 166.5t66.5 109.5t94.5 61.5t98.5 29.5t88 6l92 -6v-164q-27 6 -72 6q-196 0 -196 -204v-56h506v31q0 115 41 199t112.5 128t152.5 64.5t175 20.5q96 0 191.5 -12.5t142.5 -24.5l47 -15v-1120q0 -74 24.5 -110.5t94.5 -36.5
l47 2l-2 -164q-39 -4 -86 -4q-127 0 -202 66.5t-75 234.5v1005q-63 21 -188 21q-121 0 -199 -58.5t-78 -189.5v-37h250v-153h-250v-729h191v-154h-553v154h164v729h-506v-729h190v-154h-551z" />
    <glyph glyph-name="space" horiz-adv-x="512" 
 />
    <glyph glyph-name="periodcentered" horiz-adv-x="541" 
d="M195 465v151h151v-151h-151z" />
    <glyph glyph-name="macron" horiz-adv-x="1024" 
d="M209 1245v94h606v-94h-606z" />
    <glyph glyph-name="uni00B5" horiz-adv-x="1139" 
d="M836 0v117q-111 -129 -291 -129q-82 0 -147 23.5t-113 68.5v-551h-105v1458h105v-612q0 -144 69.5 -219.5t202.5 -75.5t206 77t73 218v612h104v-987h-104z" />
    <glyph glyph-name="glyph348" horiz-adv-x="872" 
d="M168 492v96h537v-96h-537z" />
    <glyph glyph-name="NULL" horiz-adv-x="0" 
 />
    <glyph glyph-name="commaaccent" horiz-adv-x="686" 
d="M262 -119h174q15 -43 15 -100q0 -78 -43 -141.5t-113 -100.5l-86 70q78 74 78 160q0 47 -25 112z" />
    <glyph glyph-name="apple" horiz-adv-x="2314" 
d="M344 -10v311l-258 148v569l258 145v310l543 290l274 -145l271 145l542 -290v-310l254 -145v-569l-254 -148v-311l-542 -289l-271 145l-274 -145zM426 61l487 -258l248 136l242 -136l487 258v285l234 131v510l-234 135v279l-487 258l-242 -131l-248 131l-487 -258v-279
l-233 -135v-510l233 -131v-285zM496 131v248l-203 123v461l203 118v252l440 234l225 -121l219 121l439 -234v-252l204 -118v-461l-204 -123v-248l-439 -233l-219 118l-225 -118zM897 186h162v418h422v141h-422v338h309q29 0 39 -12t10 -41v-67h150v151q0 57 -24.5 83
t-86.5 26h-678v-140h119v-897z" />
    <glyph glyph-name="f_j" horiz-adv-x="1321" 
d="M98 0v154h162v729h-172v153h172v51q0 117 39 197t103.5 115t118.5 48t112 13l94 -6v-164q-27 6 -74 6q-194 0 -194 -204v-56h694v-1067q0 -98 -29.5 -173t-72.5 -114.5t-100.5 -64.5t-102.5 -32t-92 -7l-70 4v162q19 -2 45 -2q29 0 54.5 4t57 18.5t55.5 39t40 68.5
t16 103v908h-495v-729h190v-154h-551zM950 1243v203h205v-203h-205z" />
    <glyph glyph-name="zero.tnum" horiz-adv-x="1176" 
d="M588 -25q-512 0 -512 750q0 745 512 745q139 0 241.5 -57t160 -160.5t84 -233.5t26.5 -294t-26.5 -295t-84 -235.5t-160 -162t-241.5 -57.5zM891 725q0 565 -303 565t-303 -565q0 -567 303 -567t303 567z" />
    <glyph glyph-name="one.tnum" horiz-adv-x="1176" 
d="M201 0v168h319v942l2 88h-4q-16 -31 -69 -82l-136 -133l-123 127l347 336h180v-1278h315v-168h-831z" />
    <glyph glyph-name="two.tnum" horiz-adv-x="1176" 
d="M98 0q-10 66 -10 111q0 104 40 194t103.5 154.5t139 123t152.5 109.5t140.5 102.5t103.5 116t40 136.5q0 110 -71.5 176.5t-188.5 66.5q-84 0 -159 -48t-107 -95l-33 -49l-144 98q7 10 17 29.5t51 66.5t88 83t129 65.5t174 29.5q201 0 329 -114.5t128 -300.5
q0 -94 -39 -176t-101.5 -142.5t-138 -116t-151.5 -105.5t-138.5 -100t-102.5 -113.5t-40 -133.5h590v192h178v-360h-979z" />
    <glyph glyph-name="three.tnum" horiz-adv-x="1176" 
d="M145 1094v352h883v-141l-383 -451q160 -16 285 -119.5t125 -294.5q0 -192 -138.5 -328.5t-357.5 -136.5q-84 0 -163 20.5t-132 49.5t-94 57.5t-59 49.5l-21 20l107 145l17 -17t47 -39t75 -48t97.5 -37.5t115.5 -17.5q123 0 210 77.5t87 196.5q0 125 -91 196.5t-229 71.5
q-65 0 -86 -4l-47 107l352 424q11 12 24 25.5t22 21.5l10 6v4q-45 -6 -74 -6h-403v-184h-179z" />
    <glyph glyph-name="four.tnum" horiz-adv-x="1176" 
d="M27 387v127l669 932h230v-895h196v-164h-196v-387h-199v387h-700zM678 1133l-430 -578v-4h479v567l10 111h-6q-22 -51 -53 -96z" />
    <glyph glyph-name="five.tnum" horiz-adv-x="1176" 
d="M96 162l107 143q14 -16 39.5 -40.5t111.5 -65.5t178 -41q138 0 232 86t94 209q0 135 -90 217t-238 82q-67 0 -130.5 -18.5t-92.5 -37.5l-31 -18l-118 43l71 725h748v-352h-178v184h-393l-37 -346l-11 -58h4q80 46 205 46q221 0 360.5 -131.5t139.5 -327.5
q0 -205 -149.5 -345.5t-374.5 -140.5q-82 0 -158 19.5t-126 46.5t-89 54.5t-55 47.5z" />
    <glyph glyph-name="six.tnum" horiz-adv-x="1176" 
d="M631 -25q-238 0 -389.5 186.5t-151.5 489.5q0 150 40 291t117 261t207 193.5t294 73.5q73 0 141.5 -14t101.5 -31l33 -14l-63 -170q-93 49 -209 49q-187 0 -298.5 -144.5t-138.5 -346.5h4q48 61 138 99t190 38q201 0 330 -136t129 -337q0 -213 -135 -350.5t-340 -137.5z
M303 545q0 -137 94.5 -262t231.5 -125q125 0 197.5 85t72.5 220t-82 219t-227 84q-119 0 -203 -66.5t-84 -154.5z" />
    <glyph glyph-name="seven.tnum" horiz-adv-x="1176" 
d="M242 0l598 1208q10 21 21 39.5t18 26.5l6 6v4q-37 -6 -84 -6h-510v-184h-178v352h991v-139l-653 -1307h-209z" />
    <glyph glyph-name="eight.tnum" horiz-adv-x="1176" 
d="M84 408q0 229 233 393q-176 117 -176 291q0 155 118 266.5t333 111.5q205 0 332 -104t127 -276q0 -91 -41 -183t-72 -130t-59 -66q206 -121 206 -314q0 -172 -138 -297t-357 -125q-217 0 -361.5 123t-144.5 310zM342 1090q0 -35 10 -65t34 -55.5t45.5 -43t64.5 -40
t68.5 -33.5t81.5 -34.5t81 -34.5q125 148 125 283q0 107 -70.5 167t-189.5 60q-117 0 -183.5 -58t-66.5 -146zM289 428q0 -121 88 -197.5t211 -76.5q117 0 204 69.5t87 173.5q0 41 -17.5 76t-39 58.5t-69.5 50t-82 42t-102.5 45t-107.5 46.5q-172 -129 -172 -287z" />
    <glyph glyph-name="nine.tnum" horiz-adv-x="1176" 
d="M68 985q0 213 135 349t342 136q237 0 387.5 -187t150.5 -488q0 -148 -39.5 -289t-116.5 -262t-207 -195t-294 -74q-74 0 -143.5 14.5t-102.5 30.5l-33 15l64 172q92 -49 211 -49q188 0 300 144t138 347h-4q-47 -59 -138 -95t-192 -36q-200 0 -329 134t-129 333zM276 985
q0 -131 81 -214t223 -83q118 0 204 65.5t86 153.5q0 137 -96 260t-229 123q-123 0 -196 -86t-73 -219z" />
    <glyph glyph-name="hyphen.case" horiz-adv-x="954" 
d="M178 625v176h598v-176h-598z" />
    <glyph glyph-name="parenleft.case" horiz-adv-x="645" 
d="M379 -133q-238 395 -238 891q0 430 238 809h174q-231 -387 -231 -811q0 -469 231 -889h-174z" />
    <glyph glyph-name="parenright.case" horiz-adv-x="645" 
d="M92 -133q232 420 232 889q0 424 -232 811h174q238 -379 238 -809q0 -496 -238 -891h-174z" />
    <glyph glyph-name="bracketleft.case" horiz-adv-x="641" 
d="M199 -133v1700h338v-150h-164v-1399h164v-151h-338z" />
    <glyph glyph-name="bracketright.case" horiz-adv-x="643" 
d="M104 18h164v1399h-164v150h340v-1700h-340v151z" />
    <glyph glyph-name="braceleft.case" horiz-adv-x="690" 
d="M242 219v197q0 59 -18.5 103t-43 65.5t-50.5 35t-44 15.5l-18 4v176q6 0 18 2t42 16.5t53.5 37t42 67.5t18.5 104v172q0 93 25.5 161.5t61.5 104.5t86 58.5t86 27.5t72 5l48 -2v-152h-29q-27 0 -50.5 -7t-55 -26.5t-51 -65.5t-19.5 -116v-211q0 -57 -17.5 -104t-41 -75
t-48 -47.5t-43.5 -27.5l-16 -6v-4q6 -2 17.5 -6t40 -24.5t50 -47t40 -75t18.5 -107.5v-236q0 -69 19.5 -115t51 -65.5t55 -27t50.5 -7.5h29v-151q-19 -4 -48 -4q-36 0 -72 5t-86 27.5t-86 58.5t-61.5 105.5t-25.5 161.5z" />
    <glyph glyph-name="braceright.case" horiz-adv-x="690" 
d="M70 16h28q27 0 50.5 7.5t55.5 27t51 65.5t19 115v236q0 59 17.5 107.5t41 76t48.5 46t41 24.5l18 6v4q-6 2 -17 7t-40 25.5t-50.5 47.5t-40 75t-18.5 105v211q0 70 -19 116t-51 65.5t-55.5 26.5t-50.5 7h-28v152q18 2 47 2q37 0 72.5 -5t86 -27.5t86 -58.5t61.5 -104.5
t26 -161.5v-172q0 -59 18 -104t44 -67.5t50.5 -36t42.5 -15.5l19 -4v-176q-7 0 -19 -2t-42 -16.5t-53.5 -36t-41.5 -65.5t-18 -103v-197q0 -92 -26 -161.5t-61.5 -105.5t-86 -58.5t-86 -27.5t-72.5 -5l-47 4v151z" />
    <glyph glyph-name="at.case" horiz-adv-x="1575" 
d="M831 1479q277 0 405 -118t128 -300v-580h147v-149h-559q-186 0 -305 113.5t-119 273.5q0 158 118 271.5t306 113.5h222q-5 92 -92 151.5t-240 59.5q-236 0 -397.5 -176t-161.5 -418q0 -248 162.5 -419t418.5 -171v-162q-338 0 -559 217t-221 534.5t217 538t530 220.5z
M967 481h207v486h-203q-105 0 -173.5 -72t-68.5 -172t67.5 -171t170.5 -71z" />
    <glyph glyph-name="guillemotleft.case" horiz-adv-x="1151" 
d="M838 281l-336 419l336 422h198l-336 -422l336 -419h-198zM424 281l-336 419l336 422h199l-336 -422l336 -419h-199z" />
    <glyph glyph-name="guillemotright.case" horiz-adv-x="1149" 
d="M526 281l336 419l-336 422h199l336 -422l-336 -419h-199zM115 281l336 419l-336 422h198l336 -422l-336 -419h-198z" />
    <glyph glyph-name="guilsinglleft.case" horiz-adv-x="737" 
d="M424 281l-336 419l336 422h199l-336 -422l336 -419h-199z" />
    <glyph glyph-name="guilsinglright.case" horiz-adv-x="737" 
d="M115 281l336 419l-336 422h198l336 -422l-336 -419h-198z" />
    <glyph glyph-name="endash.case" horiz-adv-x="1446" 
d="M184 627v159h1078v-159h-1078z" />
    <glyph glyph-name="emdash.case" horiz-adv-x="1855" 
d="M184 627v159h1487v-159h-1487z" />
    <glyph glyph-name="periodcentered.case" horiz-adv-x="559" 
d="M176 600v217h207v-217h-207z" />
    <glyph glyph-name="questiondown.case" horiz-adv-x="885" 
d="M420 1245v201h205v-201h-205zM63 348q0 94 37 169t90.5 125t106.5 96t90 104.5t37 126.5v80h194v-93q0 -86 -35.5 -157.5t-87 -119.5t-102.5 -93t-87 -101.5t-36 -119.5q0 -86 66.5 -145.5t169.5 -59.5q57 0 114.5 22.5t88.5 42.5l28 23l111 -142q-14 -14 -43 -35.5
t-122 -58.5t-191 -37q-181 0 -305 103.5t-124 269.5z" />
    <glyph glyph-name="exclamdown.case" horiz-adv-x="612" 
d="M203 1245v201h205v-201h-205zM203 0l14 1049h178l15 -1049h-207z" />
    <glyph glyph-name="bullet.case" horiz-adv-x="842" 
d="M104 723q0 133 93 225q95 92 225 92q131 0 223 -93q92 -94 92 -224t-92 -224q-92 -93 -223 -93t-225 93q-93 93 -93 224z" />
    <glyph glyph-name="zero.p_osf" horiz-adv-x="1223" 
d="M119 557q0 240 127 413t364 173q240 0 367 -173t127 -415q0 -154 -50 -281t-165 -213t-279 -86q-123 0 -219 49.5t-154.5 133.5t-88 185t-29.5 214zM903 559q0 168 -74.5 290t-218 122t-217.5 -121t-74 -291t74 -291t217.5 -121t218 121t74.5 291z" />
    <glyph glyph-name="one.p_osf" horiz-adv-x="956" 
d="M125 0v162h311v635l2 121h-4q-31 -31 -78 -60l-186 -110l-92 139l377 231h176v-956h280v-162h-786z" />
    <glyph glyph-name="two.p_osf" horiz-adv-x="1128" 
d="M131 0v137q311 205 471 352.5t160 278.5q0 100 -67.5 151.5t-170.5 51.5q-75 0 -153 -39t-117 -76l-41 -39l-104 127q6 8 19 21.5t56 47.5t91.5 60.5t123 48t152.5 21.5q184 0 299 -99.5t115 -248.5q0 -172 -136.5 -319.5t-408.5 -315.5v-4q41 6 121 6h477v-162h-887z
" />
    <glyph glyph-name="three.p_osf" horiz-adv-x="1059" 
d="M49 -78l105 135q14 -16 39.5 -40.5t109.5 -65.5t174 -41q121 0 205 70.5t84 185.5q0 119 -90 183.5t-230 64.5l-84 -4l-45 104l340 399l56 54v4q-43 -6 -74 -6h-365v-172h-168v325h834v-129l-377 -428q72 -8 137.5 -31.5t128 -67.5t100.5 -118t38 -170
q0 -188 -133.5 -312t-350.5 -124q-125 0 -233.5 46t-155.5 93z" />
    <glyph glyph-name="four.p_osf" horiz-adv-x="1192" 
d="M49 74v121l635 923h236v-887h206v-157h-206v-312h-195v312h-676zM262 231h463v570l8 110h-6q-22 -51 -51 -94z" />
    <glyph glyph-name="five.p_osf" horiz-adv-x="1061" 
d="M47 -76l105 133q12 -14 37.5 -36.5t105.5 -59.5t166 -37q129 0 223 74t94 203q0 127 -92 197.5t-223 70.5q-62 0 -123 -15.5t-92 -31.5l-31 -16l-113 40l74 672h717v-325h-172v172h-375l-33 -297l-12 -76h4q78 39 199 39q205 0 339 -116t134 -312q0 -201 -143.5 -327
t-360.5 -126q-80 0 -153.5 18.5t-120.5 43t-84 50t-54 44.5z" />
    <glyph glyph-name="six.p_osf" horiz-adv-x="1194" 
d="M106 602q0 137 39 271.5t114 249t203 186t288 71.5q77 0 148 -14t101 -27l33 -14l-65 -162q-90 45 -209 45q-185 0 -296.5 -137t-137.5 -330h4q45 62 135 97.5t188 35.5q203 0 329 -124.5t126 -317.5q0 -201 -130 -329t-333 -128q-235 0 -386 171t-151 456zM315 522
q0 -139 94.5 -257t233.5 -118q123 0 193.5 79t70.5 204t-79.5 203t-217.5 78q-121 0 -208 -57.5t-87 -131.5z" />
    <glyph glyph-name="seven.p_osf" horiz-adv-x="1061" 
d="M182 -238l576 1133l43 72v4q-37 -6 -84 -6h-469v-172h-172v325h940v-131l-623 -1225h-211z" />
    <glyph glyph-name="eight.p_osf" horiz-adv-x="1194" 
d="M102 391q0 193 236 359q-174 108 -174 274q0 147 114.5 251.5t325.5 104.5q199 0 323 -99t124 -265q0 -178 -172 -350q206 -111 206 -291q0 -164 -136 -282t-353 -118q-213 0 -353.5 117t-140.5 299zM358 1020q0 -29 9.5 -53.5t21.5 -44t40 -40t46.5 -32.5t58 -29.5
t60 -27t69 -27.5t66.5 -27q129 144 129 267q0 94 -70.5 149t-185.5 55q-113 0 -178.5 -54t-65.5 -136zM301 403q0 -112 87 -184t208 -72q119 0 203 64.5t84 167.5q0 37 -18.5 68.5t-42 54t-69.5 47t-81 40t-96.5 40t-94.5 39.5q-180 -123 -180 -265z" />
    <glyph glyph-name="nine.p_osf" horiz-adv-x="1182" 
d="M215 -45q92 -45 209 -45q184 0 297 138t137 331h-4q-45 -64 -135 -99.5t-189 -35.5q-202 0 -328 126t-126 316q0 201 130 329t333 128q235 0 385.5 -171t150.5 -456q0 -137 -39 -271t-113.5 -249t-202.5 -186.5t-288 -71.5q-78 0 -148.5 14.5t-103.5 26.5l-30 14z
M571 408q121 0 209 57t88 133q0 137 -94 255t-233 118q-123 0 -194 -79t-71 -204t79 -202.5t216 -77.5z" />
    <glyph glyph-name="zero.t_osf" horiz-adv-x="1176" 
d="M94 557q0 240 127 413t365 173q239 0 366 -173t127 -415q0 -154 -50 -281t-164.5 -213t-278.5 -86q-123 0 -219.5 49.5t-154.5 133.5t-88 185t-30 214zM879 559q0 168 -75 290t-218.5 122t-217 -121t-73.5 -291t73.5 -291t217 -121t218.5 121t75 291z" />
    <glyph glyph-name="one.t_osf" horiz-adv-x="1176" 
d="M233 0v162h312v635l2 121h-4q-31 -31 -78 -60l-186 -110l-93 139l377 231h176v-956h281v-162h-787z" />
    <glyph glyph-name="two.t_osf" horiz-adv-x="1176" 
d="M154 0v137q311 205 470.5 352.5t159.5 278.5q0 100 -67.5 151.5t-169.5 51.5q-76 0 -154 -39t-119 -76l-38 -39l-105 127q6 8 19.5 21.5t56.5 47.5t91 60.5t123 48t152 21.5q185 0 299.5 -99.5t114.5 -248.5q0 -172 -136 -319.5t-409 -315.5v-4q41 6 121 6h477v-162h-886
z" />
    <glyph glyph-name="three.t_osf" horiz-adv-x="1176" 
d="M109 -76l104 135q14 -16 40 -40.5t109.5 -65.5t174.5 -41q118 0 202 71.5t84 184.5q0 119 -89 183.5t-228 64.5l-84 -4l-45 104l338 397l55 54v4q-43 -6 -74 -6h-362v-172h-168v325h831v-129l-374 -426q69 -8 135.5 -31.5t128 -67.5t99.5 -118t38 -170q0 -188 -133 -312
t-348 -124q-125 0 -233.5 46t-153.5 91z" />
    <glyph glyph-name="four.t_osf" horiz-adv-x="1176" 
d="M41 74v121l635 923h235v-887h207v-157h-207v-312h-194v312h-676zM254 231h463v570l8 110h-6q-23 -51 -51 -94z" />
    <glyph glyph-name="five.t_osf" horiz-adv-x="1176" 
d="M104 -76l105 133q12 -14 37.5 -36.5t105.5 -59.5t166 -37q129 0 223.5 74t94.5 203q0 127 -92.5 197.5t-223.5 70.5q-61 0 -122.5 -15.5t-92.5 -31.5l-31 -16l-112 40l74 672h716v-325h-172v172h-374l-33 -297l-13 -76h5q77 39 198 39q205 0 339 -116t134 -312
q0 -201 -143 -327t-361 -126q-79 0 -153 18.5t-121 43t-84 50t-53 44.5z" />
    <glyph glyph-name="six.t_osf" horiz-adv-x="1176" 
d="M96 602q0 137 39 271.5t114 249t203 186t287 71.5q78 0 148.5 -14t103.5 -27l31 -14l-66 -162q-90 45 -208 45q-185 0 -296.5 -137t-138.5 -330h4q45 62 135.5 97.5t188.5 35.5q203 0 329 -124.5t126 -317.5q0 -201 -130 -329t-333 -128q-236 0 -386.5 171t-150.5 456z
M305 522q0 -139 94.5 -257t233.5 -118q123 0 193.5 79t70.5 204t-80 203t-217 78q-121 0 -208 -57.5t-87 -131.5z" />
    <glyph glyph-name="seven.t_osf" horiz-adv-x="1176" 
d="M240 -238l575 1133l43 72v4q-37 -6 -84 -6h-469v-172h-172v325h940v-131l-622 -1225h-211z" />
    <glyph glyph-name="eight.t_osf" horiz-adv-x="1176" 
d="M94 391q0 193 236 359q-174 108 -174 274q0 147 114.5 251.5t325.5 104.5q199 0 322.5 -99t123.5 -265q0 -178 -172 -350q207 -111 207 -291q0 -164 -136 -282t-353 -118q-213 0 -353.5 117t-140.5 299zM350 1020q0 -29 9.5 -53.5t21.5 -44t40 -40t46 -32.5t58 -29.5
t60.5 -27t68.5 -27.5t67 -27q129 144 129 267q0 94 -70.5 149t-185.5 55q-113 0 -178.5 -54t-65.5 -136zM293 403q0 -112 87 -184t208 -72q119 0 202.5 64.5t83.5 167.5q0 37 -18 68.5t-41.5 54t-70 47t-81 40t-96 40t-94.5 39.5q-180 -123 -180 -265z" />
    <glyph glyph-name="nine.t_osf" horiz-adv-x="1176" 
d="M225 -45q92 -45 209 -45q184 0 297 138t137 331h-4q-45 -64 -135 -99.5t-188 -35.5q-203 0 -329 126t-126 316q0 201 130 329t333 128q235 0 385.5 -171t150.5 -456q0 -137 -38.5 -271t-113.5 -249t-203 -186.5t-288 -71.5q-77 0 -148 14.5t-101 26.5l-33 14zM582 408
q120 0 208.5 57t88.5 133q0 137 -94.5 255t-233.5 118q-123 0 -193.5 -79t-70.5 -204t78.5 -202.5t216.5 -77.5z" />
    <glyph glyph-name="dollar.osf" horiz-adv-x="1008" 
d="M63 170l97 143q16 -16 46 -39.5t122 -63.5t186 -40q96 0 159.5 45t63.5 117q0 63 -65.5 105t-158.5 68.5t-185 62.5t-158 112t-66 188q0 140 93.5 215.5t246.5 98.5v200h144v-198q94 -8 172 -36t108 -50l31 -23l-76 -151q-12 10 -36.5 25.5t-105.5 40t-171 24.5
q-213 0 -213 -146q0 -69 65.5 -114t158.5 -73t185.5 -61.5t158 -104.5t65.5 -179q0 -133 -96.5 -225.5t-253.5 -108.5v-211h-144v209q-100 12 -193 55t-137 80z" />
    <glyph glyph-name="cent.osf" horiz-adv-x="1077" 
d="M63 612q0 193 119 329t312 167v174h149v-168q98 -8 184 -47t123 -76l37 -35l-92 -147q-12 14 -34.5 35.5t-97.5 57.5t-155 36q-151 0 -248.5 -92t-97.5 -232q0 -141 97.5 -235t248.5 -94q80 0 151.5 32.5t104.5 65.5l31 33l92 -148q-14 -16 -40.5 -40.5t-116 -67.5
t-187.5 -51v-164h-149v170q-193 30 -312 166.5t-119 330.5z" />
    <glyph glyph-name="sterling.osf" horiz-adv-x="1196" 
d="M88 0v170h162v324h-127v139h127v180q0 170 131 282.5t328 112.5q94 0 183 -28.5t130 -57.5l41 -26l-96 -148q-115 82 -256 82q-117 0 -188.5 -64.5t-71.5 -158.5v-174h444v-139h-444v-324h665v-170h-1028z" />
    <glyph glyph-name="yen.osf" horiz-adv-x="1212" 
d="M166 580v131h192l-286 475h229l213 -377l88 -184h4q45 102 88 184l213 377h230l-285 -475h197v-131h-275l-69 -117v-45h344v-131h-344v-287h-201v287h-338v131h338v45l-70 117h-268z" />
    <glyph glyph-name="florin.osf" horiz-adv-x="1174" 
d="M14 -76q78 -12 133 -12q35 0 68 8t72 29.5t64.5 70t31.5 119.5l43 484h-170v159h182l21 215q8 99 44 171.5t80 112.5t102 63.5t104.5 30.5t93.5 7q32 0 75 -4t70 -8l27 -4v-170q-103 14 -164 14q-35 0 -67.5 -8t-70.5 -29.5t-64.5 -69.5t-33.5 -120l-20 -201h242v-159
h-254l-43 -500q-9 -98 -44.5 -171t-79.5 -113t-102.5 -63.5t-103.5 -30.5t-92 -7q-33 0 -69 4t-56 8l-19 2v172z" />
    <glyph glyph-name="Euro.osf" horiz-adv-x="1167" 
d="M90 393v117h133q-6 47 -2 158h-131v118h154q57 187 217 304.5t409 117.5q50 0 99 -6t73 -12l25 -6l-45 -164q-74 20 -156 20q-153 0 -256.5 -70.5t-152.5 -183.5h516l-27 -118h-522q-10 -84 2 -158h494l-25 -117h-428q47 -110 150.5 -179t254.5 -69q46 0 90 7.5t66 15.5
l23 6l36 -166q-94 -33 -217 -33q-241 0 -400 117t-220 301h-160z" />
    <glyph glyph-name="zero.numerator" horiz-adv-x="817" 
d="M410 530q-324 0 -324 469q0 467 324 467q321 0 321 -467q0 -469 -321 -469zM410 672q165 0 165 327q0 324 -165 324q-168 0 -168 -324q0 -327 168 -327z" />
    <glyph glyph-name="one.numerator" horiz-adv-x="690" 
d="M78 551v127h211v506l6 63h-4q-10 -18 -33 -37l-98 -96l-94 100l239 232h137v-768h209v-127h-573z" />
    <glyph glyph-name="two.numerator" horiz-adv-x="764" 
d="M68 633q0 90 45 162.5t109.5 119t129 86t109.5 88t45 103.5q0 57 -41 95t-105 38q-45 0 -89 -24.5t-64 -49.5l-21 -24l-100 92l11 16.5t35 35t57.5 44t79.5 35.5t104 16q129 0 209 -73.5t80 -188.5q0 -84 -43.5 -149.5t-106.5 -107.5t-125.5 -80t-109 -85t-50.5 -104h322
v104h129v-231h-602q-8 51 -8 82z" />
    <glyph glyph-name="three.numerator" horiz-adv-x="768" 
d="M96 1214v232h574v-98l-230 -267q105 -16 175.5 -79.5t70.5 -174.5q0 -120 -90 -208.5t-229 -88.5q-91 0 -166.5 34t-106.5 67l-28 35l86 104q8 -12 23 -28.5t69.5 -45t115.5 -28.5q68 0 119 45t51 110q0 68 -53 107t-127 39h-65l-33 78l194 235l46 41v6q-29 -6 -62 -6
h-205v-109h-129z" />
    <glyph glyph-name="four.numerator" horiz-adv-x="803" 
d="M469 551v223h-426v98l412 574h166v-551h127v-121h-127v-223h-152zM201 895h268v299l8 92h-6q-18 -45 -43 -80l-227 -307v-4z" />
    <glyph glyph-name="five.numerator" horiz-adv-x="756" 
d="M350 530q-84 0 -156.5 32t-103.5 65l-33 30l86 103q9 -10 25 -25.5t67.5 -41t104.5 -25.5q78 0 132 48t54 121.5t-53 122t-135 48.5q-39 0 -76 -10.5t-55 -22.5l-19 -10l-86 30l50 451h483v-232h-127v109h-232l-14 -154l-10 -67h4q47 20 113 20q137 0 225 -83t88 -203
q0 -125 -93 -215.5t-239 -90.5z" />
    <glyph glyph-name="six.numerator" horiz-adv-x="784" 
d="M418 530q-148 0 -243 114t-95 302q0 201 105.5 360.5t297.5 159.5q49 0 96.5 -11t71.5 -21l23 -13l-51 -131q-68 33 -134 33q-94 0 -155.5 -71.5t-81.5 -184.5h4q63 63 162 63q135 0 217 -81.5t82 -210.5q0 -136 -84 -222t-215 -86zM418 672q67 0 106 48t39 120
q0 75 -45 123.5t-121 48.5q-63 0 -111 -34t-48 -75q0 -86 52 -158.5t128 -72.5z" />
    <glyph glyph-name="seven.numerator" horiz-adv-x="727" 
d="M123 551l369 727l32 45v4q-28 -4 -55 -4h-274v-109h-129v232h624v-105l-405 -790h-162z" />
    <glyph glyph-name="eight.numerator" horiz-adv-x="801" 
d="M223 1042q-104 76 -104 185q0 112 85 175.5t204 63.5q116 0 203 -64.5t87 -178.5q0 -107 -110 -230q131 -75 131 -202q0 -115 -92 -188t-223.5 -73t-228.5 74t-97 205t145 233zM477 1047q76 75 76 167q0 56 -44 87.5t-103 31.5q-58 0 -98 -29.5t-40 -82.5q0 -17 5.5 -32
t12.5 -27.5t22.5 -25t24.5 -19.5t32.5 -19.5t35 -17.5t39 -17t37.5 -16zM403 664q62 0 112 37.5t50 95.5q0 26 -12 48.5t-41 43t-50.5 32t-69.5 32t-66 30.5q-97 -78 -97 -168q0 -70 52.5 -110.5t121.5 -40.5z" />
    <glyph glyph-name="nine.numerator" horiz-adv-x="784" 
d="M303 530q-49 0 -97 11.5t-71 23.5l-24 10l51 132q65 -33 137 -33q90 0 152.5 72.5t80.5 183.5h-4q-67 -64 -170 -64q-129 0 -209.5 84t-80.5 213q0 133 84 218t215 85q147 0 242.5 -113.5t95.5 -301.5q0 -127 -41 -242t-135.5 -197t-225.5 -82zM391 985q66 0 111 35
t45 94q0 70 -53.5 140.5t-131.5 70.5q-63 0 -102 -48t-39 -120q0 -76 45 -124t125 -48z" />
    <glyph glyph-name="zero.denominator" horiz-adv-x="817" 
d="M410 -20q-324 0 -324 469q0 466 324 466q321 0 321 -466q0 -469 -321 -469zM410 121q165 0 165 328q0 323 -165 323q-168 0 -168 -323q0 -328 168 -328z" />
    <glyph glyph-name="one.denominator" horiz-adv-x="688" 
d="M76 0v127h211v506l6 63h-4q-10 -18 -33 -37l-98 -96l-95 101l240 231h137v-768h209v-127h-573z" />
    <glyph glyph-name="two.denominator" horiz-adv-x="766" 
d="M70 82q0 90 45 162.5t109.5 119t129 86t109.5 88t45 103.5q0 57 -41 95t-105 38q-45 0 -89 -24.5t-64 -49.5l-21 -24l-100 92l11 16.5t35 35t57.5 44t80 35.5t103.5 16q129 0 209 -73.5t80 -188.5q0 -84 -43 -149.5t-106.5 -107.5t-126 -79.5t-109 -85t-50.5 -104.5h322
v104h129v-231h-602q-8 51 -8 82z" />
    <glyph glyph-name="three.denominator" horiz-adv-x="768" 
d="M96 664v231h574v-98l-230 -267q105 -16 175.5 -79.5t70.5 -174.5q0 -120 -90 -208t-229 -88q-91 0 -166.5 33.5t-106.5 68.5l-28 33l86 104q8 -12 23 -28.5t69.5 -45t115.5 -28.5q68 0 119 45t51 110q0 68 -53 107t-127 39h-65l-33 78l194 235l46 41v6q-29 -6 -62 -6
h-205v-108h-129z" />
    <glyph glyph-name="four.denominator" horiz-adv-x="803" 
d="M469 0v223h-426v99l412 573h166v-551h127v-121h-127v-223h-152zM201 344h268v299l8 92h-6q-18 -45 -43 -80l-227 -307v-4z" />
    <glyph glyph-name="five.denominator" horiz-adv-x="754" 
d="M350 -20q-84 0 -156.5 31.5t-103.5 62.5l-33 32l86 103q9 -10 25 -25.5t67.5 -41t104.5 -25.5q78 0 132 48t54 121.5t-53 122t-135 48.5q-39 0 -76 -11.5t-55 -21.5l-19 -10l-86 30l50 451h483v-231h-127v108h-232l-14 -154l-10 -67h4q47 20 113 20q137 0 225 -82.5
t88 -203.5q0 -125 -93 -215t-239 -90z" />
    <glyph glyph-name="six.denominator" horiz-adv-x="784" 
d="M418 -20q-148 0 -243 113.5t-95 301.5q0 201 105.5 360.5t297.5 159.5q49 0 96.5 -11t71.5 -23l23 -11l-51 -131q-68 33 -134 33q-94 0 -155.5 -71.5t-81.5 -184.5h4q63 64 162 64q135 0 217 -82t82 -211q0 -135 -84 -221t-215 -86zM418 121q67 0 106 48t39 120
q0 76 -45 124t-121 48q-63 0 -111 -34t-48 -75q0 -86 52 -158.5t128 -72.5z" />
    <glyph glyph-name="seven.denominator" horiz-adv-x="723" 
d="M121 0l368 727l33 45v4q-28 -4 -55 -4h-274v-108h-130v231h625v-104l-405 -791h-162z" />
    <glyph glyph-name="eight.denominator" horiz-adv-x="801" 
d="M223 492q-104 75 -104 184q0 112 85 175.5t204 63.5q116 0 203 -64.5t87 -178.5q0 -107 -110 -230q131 -75 131 -202q0 -115 -92 -187.5t-223.5 -72.5t-228.5 73.5t-97 204.5t145 234zM477 496q76 75 76 168q0 55 -44 86.5t-103 31.5q-58 0 -98 -29.5t-40 -82.5
q0 -17 5.5 -32t12.5 -27.5t22.5 -25t24.5 -19.5t32.5 -19t35 -17.5t39 -17.5t37.5 -16zM403 113q62 0 112 37.5t50 95.5q0 26 -12 48.5t-41 43t-50.5 32t-69.5 32t-66 30.5q-97 -78 -97 -168q0 -69 52.5 -110t121.5 -41z" />
    <glyph glyph-name="nine.denominator" horiz-adv-x="784" 
d="M303 -20q-49 0 -97 11t-71 21l-24 13l51 131q65 -33 137 -33q90 0 152.5 72.5t80.5 183.5h-4q-67 -64 -170 -64q-129 0 -209.5 84t-80.5 213q0 133 84 218t215 85q147 0 242.5 -113.5t95.5 -301.5q0 -127 -41 -242t-135.5 -196.5t-225.5 -81.5zM391 434q66 0 111 35
t45 94q0 70 -53.5 140.5t-131.5 70.5q-63 0 -102 -48t-39 -120q0 -76 45 -124t125 -48z" />
    </font>
</defs>
</svg>
