<?xml version="1.0" standalone="no"?>
<!DOCTYPE svg PUBLIC "-//W3C//DTD SVG 1.1//EN" "http://www.w3.org/Graphics/SVG/1.1/DTD/svg11.dtd" >
<svg xmlns="http://www.w3.org/2000/svg" xmlns:xlink="http://www.w3.org/1999/xlink" version="1.1">
<metadata>
Created by FontForge 20170731 at Sun Mar 17 02:58:46 2013
 By Aleksey,,,
Typeface (c) CuttyFruty. 2009. All Rights Reserved
</metadata>
<defs>
<font id="Jellyka-LoveandPassion" horiz-adv-x="1014" >
  <font-face 
    font-family="Jellyka - Love and Passion"
    font-weight="400"
    font-stretch="normal"
    units-per-em="1000"
    panose-1="2 0 5 0 0 0 0 0 0 0"
    ascent="800"
    descent="-200"
    x-height="900"
    cap-height="2185"
    bbox="-927 -1341 4398 3513"
    underline-thickness="150"
    underline-position="-592"
    unicode-range="U+0020-F002"
  />
<missing-glyph horiz-adv-x="1024" 
d="M924 0h-824v1434h824v-1434zM150 1384v-1334h724v1334h-724zM325 1103v45q31 28 58 43q53 30 112 30q93 0 148.5 -47.5t55.5 -127.5q0 -48 -23 -99q-22 -49 -87 -129q-57 -73 -76 -98t-39 -64t-20 -69q0 -39 24 -133h-32q-35 99 -35 148q0 76 81 218q82 142 82 217
q0 57 -33 90t-91 33q-37 0 -69 -17q-29 -17 -56 -40zM389 334l57 58q10 10 20 10q9 0 22 -11l56 -60q9 -10 9 -20q0 -12 -10 -22l-56 -62q-14 -14 -21 -14q-11 0 -20 10l-61 71q-7 8 -7 18q0 9 11 22z" />
    <glyph glyph-name=".notdef" horiz-adv-x="1024" 
d="M924 0h-824v1434h824v-1434zM150 1384v-1334h724v1334h-724zM325 1103v45q31 28 58 43q53 30 112 30q93 0 148.5 -47.5t55.5 -127.5q0 -48 -23 -99q-22 -49 -87 -129q-57 -73 -76 -98t-39 -64t-20 -69q0 -39 24 -133h-32q-35 99 -35 148q0 76 81 218q82 142 82 217
q0 57 -33 90t-91 33q-37 0 -69 -17q-29 -17 -56 -40zM389 334l57 58q10 10 20 10q9 0 22 -11l56 -60q9 -10 9 -20q0 -12 -10 -22l-56 -62q-14 -14 -21 -14q-11 0 -20 10l-61 71q-7 8 -7 18q0 9 11 22z" />
    <glyph glyph-name=".null" horiz-adv-x="0" 
 />
    <glyph glyph-name="nonmarkingreturn" horiz-adv-x="333" 
 />
    <glyph glyph-name="space" unicode=" " horiz-adv-x="508" 
 />
    <glyph glyph-name="space" unicode="&#xa0;" horiz-adv-x="508" 
 />
    <glyph glyph-name="exclam" unicode="!" horiz-adv-x="521" 
d="M274 1773l11 2q78 12 153 -98q21 -33 26 -56q17 -104 -144 -578q-113 -385 -86 -552q6 -40 20 -58t36 -14q35 -17 36 -23v-4l-6 -9q-171 -3 -193 139q-35 225 202 927q49 175 41 226l-1 8q-9 55 -81 51l-31 -12l-14 13l-1 8q11 26 32 30zM206 212q101 0 172 -116l4 -24
q-14 -140 -120 -140q-89 0 -132 100q-16 36 -16 68q10 112 92 112zM198 100v-40q15 -68 28 -68q68 38 68 108v12q0 28 -40 44q-56 -17 -56 -56z" />
    <glyph glyph-name="quotedbl" unicode="&#x22;" horiz-adv-x="672" 
d="M363 1929q57 0 76 -100v-8l-8 -168l4 -108l-24 -36h-20q-68 0 -68 112v88q22 220 40 220zM219 1917q76 -19 76 -112v-32q0 -188 -32 -188q-80 17 -80 68v16q20 248 36 248z" />
    <glyph glyph-name="numbersign" unicode="#" horiz-adv-x="2010" 
d="M465 1786l12 4q111 0 188 -576l4 -96v-24h20q115 0 212 -168l72 136q81 140 196 140h8q140 -19 172 -36v4q31 256 72 388q36 107 92 152q36 -27 36 -52q-14 0 -56 -176q-27 -90 -56 -336q282 -56 428 -56l96 8l8 -24v-20q0 -60 -152 -68h-8q-117 0 -380 64l-56 -328h4
q128 32 284 32q230 0 272 -56l4 -4v-4q-10 -64 -72 -64q-147 16 -220 16q-174 0 -288 -44q-16 -71 -16 -224l-4 -24l4 -40l12 -312l-4 -16l4 -12l-24 -8h-20q-53 6 -72 192l-8 152v32l8 216l4 4h-8q-97 -28 -180 -140l-44 -28q-11 0 -84 48q-85 34 -216 60l-4 -4l4 -4v-20
q0 -446 -56 -572q-15 -12 -36 -12q-36 18 -36 56l20 508v64l-108 4h-28q-103 0 -280 -48q-24 28 -24 56v4q0 66 284 92h68l88 -4v12q0 221 -32 308l-8 48q-198 -57 -452 -104q-56 0 -56 16q-8 18 -8 44q0 18 200 72l328 72v36q0 242 -108 664zM929 758l-12 -8h-20
q-16 7 -16 20q0 92 -56 172q-48 83 -84 104h-20q-47 0 -56 -88v-4q0 -105 124 -260q99 -142 188 -184q0 -12 8 -12l288 388q56 92 56 176q-18 56 -100 56q-158 0 -268 -284q-16 -23 -32 -76zM781 590l-84 100l4 -20v-68z" />
    <glyph glyph-name="dollar" unicode="$" horiz-adv-x="1272" 
d="M788 1643q-10 -19 -24 -18l-11 1q4 118 -1 125q-91 111 -279 130q-220 23 -438 -139q-116 -98 -128 -212l-3 -32q-13 -128 130 -256.5t444 -258.5q384 -176 550 -347q123 -133 160 -294q19 -84 13 -142q-27 -262 -308 -459q-215 -121 -459 -96q-230 24 -370 98
q-141 74 -231 182q-12 56 1 92h3q75 -122 184 -171q106 -48 338 -101l46 -5q242 -26 481 119q237 180 261 407q17 164 -121 294q-159 173 -713 433q-269 146 -361 275q-122 157 -106 309q26 255 383 386q127 39 239 27q232 -24 299 -184h2q28 -82 19 -163zM384 2342h3
q64 -28 70 -196q21 -2359 10 -2886l-3 -7q-4 -71 -10 -73q-25 -4 -38.5 20t-14.5 76q-2 -1 -3.5 14.5t-3.5 47.5t-4 78l-1 6l-7 1324q-12 1273 -1 1589z" />
    <glyph glyph-name="percent" unicode="%" horiz-adv-x="1610" 
d="M1434 1700q30 -6 31 -30q-30 -86 -136 -234q-191 -254 -490 -628q-336 -483 -498 -728q-16 -12 -106 -144l-38 -35q-41 16 -46 33q-7 91 122 249q320 489 580 831q107 126 504 644q47 41 77 42zM116 1613l24 4q79 0 192 -92h4q0 35 124 72h64q108 0 180 -104l8 -44
q0 -126 -232 -392l-48 -40q-90 0 -136 52q-308 201 -308 384q0 122 128 160zM96 1421v-12q0 -122 224 -280l64 -64q0 38 136 228q84 125 84 200v12l-4 20h-48q-93 0 -176 -104q0 -52 -28 -52q-69 0 -80 104q-21 72 -52 72h-12q-108 -25 -108 -124zM1437 555l22 -4
q113 -38 113 -160q0 -183 -273 -384q-40 -52 -120 -52l-43 40q-205 266 -205 392l7 44q65 104 159 104h57q110 -38 110 -72h3q101 92 170 92zM1324 411q-11 -104 -71 -104q-25 0 -25 52q-72 104 -155 104l-46 -20v-12q0 -75 74 -200q97 -184 177 -164q198 158 198 280v12
q2 86 -35.5 99.5t-116.5 -47.5z" />
    <glyph glyph-name="ampersand" unicode="&#x26;" horiz-adv-x="1989" 
d="M916 1795q12 -41 12 -157q0 -117 -313 -554v-4q290 -507 768 -731q-2 109 -168 332q-104 157 -104 312q0 199 120 320q59 52 136 52q120 0 192 -168q26 -56 36 -212l-8 -100l40 4h16q193 0 268 -168q24 -54 24 -124q0 -155 -144 -264q-95 -48 -252 -48l-68 4
q-19 -91 -76 -148q-183 -198 -624 -244q-402 7 -624 180q-80 64 -124 276l-4 64v28q0 280 452 618q-211 354 -150 525t171 273q111 102 228 102q118 0 196 -168zM535 1167h4q326 422 311 564q-14 144 -101 146q-88 2 -261 -200q-174 -202 47 -510zM1207 937q0 -171 156 -360
q93 -127 108 -240h24q256 0 328 184q32 64 32 132q-12 148 -88 176q-36 16 -108 16q-96 0 -96 -64l-60 -116l4 -36v-4h-4q-31 0 -44 60v36q0 39 36 124q15 57 20 156q-18 288 -80 288h-16q-125 0 -192 -192q-20 -55 -20 -160zM559 1004q-432 -333 -432 -611q0 -226 112 -280
q65 -48 228 -92q327 -64 640 52q187 63 249 203q-530 189 -797 728z" />
    <glyph glyph-name="quotesingle" unicode="'" horiz-adv-x="409" 
d="M173 1834h28q51 0 100 -96q22 -10 44 -76q0 -57 -188 -356q-56 14 -56 64v20q0 22 68 144q-112 36 -112 140q0 116 116 160zM185 1726l-24 8q-32 -43 -32 -68q0 -34 12 -76h20q88 36 88 80q7 0 12 32q0 10 -28 32z" />
    <glyph glyph-name="parenleft" unicode="(" horiz-adv-x="722" 
d="M468 2096h15l20 -20q0 -24 -60 -116q-281 -506 -281 -1024v-20q0 -779 517 -1146q19 0 30 -20q0 -11 -50 -25q-271 95 -462 447q-151 287 -151 733v51q0 546 327 1050q82 88 95 90z" />
    <glyph glyph-name="parenright" unicode=")" horiz-adv-x="577" 
d="M243 2122q87 0 220 -459q48 -215 48 -541v-20q0 -359 -117 -863q-123 -361 -244 -546q-9 -29 -34 -54h-5q-32 0 -68 49l78 151q176 480 176 576q92 413 92 731v74q0 485 -68 668q-48 190 -68 190q-14 0 -25 20v14q0 10 15 10z" />
    <glyph glyph-name="asterisk" unicode="*" horiz-adv-x="1024" 
d="M566 2092h8q34 -18 52 -60q-40 -221 -40 -312h88q241 0 300 -92q16 -20 16 -44q-6 -36 -176 -104q-212 -72 -212 -80v-68q0 -168 -28 -168q-54 0 -128 140q-26 36 -36 36q-260 -83 -296 -112q-19 8 -32 28v8l100 92l68 152q-66 49 -184 112q-44 44 -44 64l16 12l68 -4
q256 6 256 28q92 195 204 372zM510 1840h-4l-60 -124h48q8 0 8 12l8 108v4zM662 1636l-72 -4l8 -120q218 76 260 112zM386 1604l-60 -104q64 -64 72 -64l116 40l-8 152h-4q-116 0 -116 -24zM306 1616h-132l92 -64h8zM346 1420l-44 40l-36 -72h4q57 28 76 28v4zM462 1352
l52 -64l4 84h-4q-52 -10 -52 -20z" />
    <glyph glyph-name="plus" unicode="+" 
d="M478 900h4q80 -8 80 -44q-77 -515 -112 -623l-4 -2q-11 -15 -16 -15q-64 0 -64 22q-7 0 -8 31v1l48 286q40 275 68 343zM94 501l-1 4q-3 80 33 85q519 -4 633 -24l1 -4q16 -7 18 -14q9 -63 -13 -66q0 -2 -3 -4t-9.5 -4t-16.5 -4h-2l-289 7q-280 1 -349 20z" />
    <glyph glyph-name="comma" unicode="," horiz-adv-x="341" 
d="M156 244h28q50 0 100 -96q22 -10 44 -76q0 -57 -188 -356q-56 14 -56 64v20q0 22 68 144q-112 36 -112 140q0 116 116 160zM168 136l-24 8q-32 -43 -32 -68q0 -34 12 -76h20q88 36 88 80q7 0 12 32q0 10 -28 32z" />
    <glyph glyph-name="hyphen" unicode="-" horiz-adv-x="670" 
d="M94 477l-1 4q-15 78 168 90q200 13 285 -2l2 -4q13 -8 14 -13q16 -60 2 -65q1 -4 -4 -7t-15 -7h-1l-202 -4q-192 -10 -246 4z" />
    <glyph glyph-name="hyphen" unicode="&#xad;" horiz-adv-x="670" 
d="M94 477l-1 4q-15 78 168 90q200 13 285 -2l2 -4q13 -8 14 -13q16 -60 2 -65q1 -4 -4 -7t-15 -7h-1l-202 -4q-192 -10 -246 4z" />
    <glyph glyph-name="period" unicode="." horiz-adv-x="460" 
d="M247 225q124 -31 124 -116q-31 -160 -136 -160q-109 0 -148 112l-4 20q0 78 124 124q9 20 40 20zM271 141l-28 4q0 -8 -24 -8q-44 -38 -44 -80v-8q1 -25 24 -48q37 0 72 128v12z" />
    <glyph glyph-name="slash" unicode="/" horiz-adv-x="511" 
d="M731 1957q29 2 37 -21q-6 -92 -66 -262q-123 -325 -297 -739q-185 -534 -279 -837q-11 -15 -62 -168l-27 -44q-46 5 -53 19q-32 87 49 274q165 537 328 958q65 144 307 758q33 52 63 62z" />
    <glyph glyph-name="zero" unicode="0" 
d="M448 1628l60 12q80 0 180 -84q104 -110 136 -236q44 -193 44 -340q0 -340 -152 -808q-79 -160 -156 -160q0 -6 -44 -12q-152 0 -288 184q-132 234 -132 528v36q0 376 172 720q71 141 144 160h36zM420 1532h-12l-28 4q-192 -340 -192 -816q0 -219 64 -420
q124 -240 192 -240q170 0 264 496q56 280 56 468q0 382 -140 524q-32 32 -64 32h-4q-62 0 -136 -48z" />
    <glyph glyph-name="one" unicode="1" horiz-adv-x="466" 
d="M313 1586l8 8h12q39 -19 68 -64v-20q-56 -183 -132 -808q-28 -264 -28 -424v-244q-3 -40 -24 -40q-69 0 -84 112v92q0 398 84 948q-63 -63 -108 -64q-52 16 -52 40q70 50 116 164q109 212 140 300z" />
    <glyph glyph-name="two" unicode="2" horiz-adv-x="795" 
d="M614 1697q108 0 180 -156l16 -92q0 -366 -492 -1164l-144 -208l80 4h8q236 0 288 -72l4 -20l-8 -8q-134 24 -212 24q-145 0 -252 -56h-4q-84 37 -84 72l144 204q280 415 464 836q124 297 124 476q0 64 -44 64h-24q-117 0 -304 -180q-82 -89 -136 -196h-4q-32 0 -40 44
q0 114 184 304q164 124 256 124z" />
    <glyph glyph-name="three" unicode="3" horiz-adv-x="892" 
d="M311 1548l308 4q75 0 96 -52q12 -31 12 -56v-16q0 -20 -132 -44q-150 -98 -240 -184v-4l28 4h60q106 0 232 -84q124 -137 124 -300q0 -221 -304 -540q-260 -231 -448 -268l-72 -8q-20 22 -20 36q46 6 296 172q472 397 472 700v4q0 128 -132 168q-80 20 -124 20
q-139 0 -264 -64l-36 -28h-8q-40 0 -64 88q77 105 268 264l108 84h-4q-428 0 -428 56l-4 12v12q0 24 276 24z" />
    <glyph glyph-name="four" unicode="4" horiz-adv-x="659" 
d="M572 1700q30 0 48 -152q-35 -297 -128 -814q-92 -507 -96 -726l-8 -8h-12q-48 0 -48 60q-13 0 -20 160q0 134 96 680l-308 -64q-49 0 -96 80v8q3 60 304 452l232 276q21 40 36 48zM208 1068l-72 -120q84 24 288 48q46 233 80 472q-25 -21 -296 -400z" />
    <glyph glyph-name="five" unicode="5" horiz-adv-x="755" 
d="M148 1612l192 4q208 0 208 -28l12 -32q0 -32 -144 -32l-216 4l-36 4q14 -66 44 -320v-100h4q87 48 168 48h12q172 0 296 -216q32 -69 32 -132q0 -289 -512 -768q-58 -44 -92 -44q-76 25 -76 56q10 2 44 32q149 120 324 332q212 275 212 416v52q0 85 -88 176
q-35 16 -56 16h-40q-115 0 -220 -112q0 -21 -20 -32q-88 28 -88 68v264l-12 248v32l-24 32v4q16 28 76 28z" />
    <glyph glyph-name="six" unicode="6" horiz-adv-x="965" 
d="M633 1767q109 0 216 -104q84 -115 84 -188v-24q-7 -188 -76 -228l-20 -8h-4q-12 0 -32 56q0 34 32 200l4 64q0 66 -64 136q-48 20 -76 20q-133 0 -288 -144q-201 -222 -268 -624l-8 -96q56 44 100 44q146 0 292 -176q108 140 220 140q76 0 164 -148l4 -40
q0 -147 -252 -512l-68 -120q0 -12 -32 -32h-8q-85 14 -204 112q-168 176 -252 376l-24 44q-48 135 -48 276v16q0 326 184 672q191 288 424 288zM181 651v-8q0 -129 84 -292q37 -79 216 -264l20 -12h4q48 117 212 364q104 169 104 248v20q0 36 -20 36q-117 0 -252 -176
q-13 -48 -40 -72h-4q-32 0 -32 56l-12 20q3 28 8 28q-6 73 -88 156q-47 56 -76 56q-68 -20 -108 -80q-16 -45 -16 -80z" />
    <glyph glyph-name="seven" unicode="7" horiz-adv-x="835" 
d="M-39 1534l-1 4l548 16l238 37q111 12 151 -60l6 -24q-65 -8 -135 -131q-59 -82 -231 -476q-149 -317 -240 -737q-30 -155 -54 -174q-64 26 -68 73l-1 12q-14 134 200 733q178 437 323 671v4l-40 -5q-511 -45 -637 -10q-62 41 -63 62z" />
    <glyph glyph-name="eight" unicode="8" horiz-adv-x="997" 
d="M636 1774l49 13q84 3 189 -99q76 -91 81 -205v-4q7 -183 -204 -378q-146 -156 -255 -250v-7q148 -250 150 -264q16 -38 97 -207q74 -153 80 -333q-36 -160 -565 -129q-108 17 -160 67q-59 71 -62 158q-6 165 140 427q90 135 177 240q61 70 61 82q-2 11 -150 173
q-194 202 -200 375l-1 41q-6 156 126 219l49 9q130 4 222 -120h3q53 130 173 192zM462 1426l-18 17l-4 95q-35 101 -151 96q-102 -3 -141 -168l-3 -37l1 -7q4 -158 130 -305q67 -85 168 -191q65 77 329 347q125 167 120 273q-4 113 -135 148l-28 3q-85 -3 -239 -198
q-13 -73 -29 -73zM456 784h-7q-289 -395 -304 -553q-22 -62 -19 -154l74 -103q485 -101 521 77q-7 177 -114 440q-51 109 -151 293z" />
    <glyph glyph-name="nine" unicode="9" 
d="M511 1642q106 -8 173 -81q117 -187 151 -348l29 -134q65 -311 32 -712q-54 -306 -323 -363q-144 -31 -266 58q-43 48 -58 118q-33 155 66 247l36 24q22 -1 35 -13l2 -8q-49 -106 -40 -217l6 -43q20 -69 50 -99.5t69 -22.5l25 1q148 31 238 186q41 87 55 224
q11 295 -7 379l-4 -1q-27 -6 -119 40q-54 13 -295 23q-166 25 -268 127l-44 89q-25 118 77 233q44 47 122 63q56 12 139 -36q-1 127 40 196q40 63 79 70zM499 1219l-21 -17q-14 -3 -23 6t-14 31q-74 129 -103 121l-16 -3q-139 -30 -164 -211l3 -52q32 -143 256 -146
q213 5 337 -64q20 -26 30 -26q-13 179 -50 349q-35 166 -146 362l-13 1q-67 -55 -85 -198q-4 -70 9 -153z" />
    <glyph glyph-name="colon" unicode=":" horiz-adv-x="557" 
d="M299 815q124 -31 124 -116q-31 -160 -136 -160q-109 0 -148 112l-4 20q0 78 124 124q9 20 40 20zM323 731l-28 4q0 -8 -24 -8q-44 -38 -44 -80v-8q1 -25 24 -48q37 0 72 128v12zM187 311l68 16q75 0 132 -64q11 -29 16 -76q0 -111 -80 -164q-25 -12 -56 -12h-16
q-107 0 -152 96l-8 48q0 89 96 156zM263 259q-15 -28 -40 -28q-32 -53 -32 -96v-4q0 -42 36 -72q72 31 72 160q-3 40 -36 40z" />
    <glyph glyph-name="semicolon" unicode=";" horiz-adv-x="557" 
d="M299 815q124 -31 124 -116q-31 -160 -136 -160q-109 0 -148 112l-4 20q0 78 124 124q9 20 40 20zM323 731l-28 4q0 -8 -24 -8q-44 -38 -44 -80v-8q1 -25 24 -48q37 0 72 128v12zM236 267h28q50 0 100 -96q22 -10 44 -76q0 -57 -188 -356q-56 14 -56 64v20q0 22 68 144
q-112 36 -112 140q0 116 116 160zM248 159l-24 8q-32 -43 -32 -68q0 -34 12 -76h20q88 36 88 80q7 0 12 32q0 10 -28 32z" />
    <glyph glyph-name="semicolon" unicode="&#x37e;" horiz-adv-x="557" 
d="M299 815q124 -31 124 -116q-31 -160 -136 -160q-109 0 -148 112l-4 20q0 78 124 124q9 20 40 20zM323 731l-28 4q0 -8 -24 -8q-44 -38 -44 -80v-8q1 -25 24 -48q37 0 72 128v12zM236 267h28q50 0 100 -96q22 -10 44 -76q0 -57 -188 -356q-56 14 -56 64v20q0 22 68 144
q-112 36 -112 140q0 116 116 160zM248 159l-24 8q-32 -43 -32 -68q0 -34 12 -76h20q88 36 88 80q7 0 12 32q0 10 -28 32z" />
    <glyph glyph-name="less" unicode="&#x3c;" horiz-adv-x="853" 
d="M704 884l4 -1q34 -13 32 -23q-8 -47 -426 -491l-1 -9l-5 -3l3 -5q143 20 280 -5q31 -8 50.5 -14.5t29 -12.5t8.5 -11v-4q-2 -12 -57 -13l-83 19q-67 12 -250 -37l-40 7q-40 7 -57.5 22.5t-12.5 39.5q12 74 365 406q80 89 160 135z" />
    <glyph glyph-name="equal" unicode="=" 
d="M881 236v-4l-2 -4q-77 -10 -399 18l-333 24l-1 1q-12 3 -20 5.5t-11.5 5t-3.5 4.5q-25 6 -24 70q0 6 18 12l2 3q126 9 726 -44q42 -11 48 -91zM97 543v4q10 80 54 88q596 22 727 7l1 -4q18 -8 18 -13q-1 -63 -27 -68q0 -7 -36 -14h-2l-333 -7q-324 -12 -400 3z" />
    <glyph glyph-name="greater" unicode="&#x3e;" 
d="M153 934q204 -73 403 -213q219 -182 367 -333v-5q0 -143 -628 -368l-65 -12l-12 18v6q10 37 308 142l279 142v6q-427 454 -504 469q-44 46 -184 124v6q0 12 36 18z" />
    <glyph glyph-name="question" unicode="?" horiz-adv-x="748" 
d="M561 1976l70 17q95 17 234 -36q139 -81 162 -203l2 -16q22 -122 -161 -349q-175 -243 -338 -438q-152 -188 -195 -298q-51 -98 -40 -162q6 -34 86 -49q28 -21 30 -32l-4 -4l-4 -1q-120 -21 -197 107l-4 20q-33 186 319 588q274 329 416 545q38 80 30 127q-57 79 -197 103
q-41 13 -90 5l-63 -11q-315 -55 -617 -300q-94 -93 -87 -133l6 -32l-3 -4v-4q-30 5 -43 61q-24 136 332 351q227 126 356 148zM317 227q31 6 104 -38q74 -30 81 -67l1 -4q11 -66 -182 -191l-43 -11q-70 -13 -134 49l-12 22l-2 8q9 92 92 171q68 52 95 61zM389 114l-61 26
q-114 -67 -85 -141l8 1q121 22 138 114z" />
    <glyph glyph-name="at" unicode="@" horiz-adv-x="2019" 
d="M1069 1378q283 0 568 -216q223 -208 252 -312q100 -184 100 -364v-36q0 -185 -148 -436q-294 -380 -608 -380q-193 0 -368 204q-126 182 -204 424q-96 338 -96 456v12q0 296 208 368h24q107 0 180 -132q24 -52 24 -84h4q149 144 312 144q134 0 192 -160q8 -18 8 -44v-8
q0 -170 -300 -472q-107 -126 -288 -288q-67 -60 -76 -60q119 -288 308 -288q225 0 484 256q192 213 224 384q32 131 32 204q0 192 -132 412q-143 161 -232 200q-240 116 -416 116h-40q-402 0 -696 -368q-208 -268 -272 -588q-16 -80 -16 -196v-16q0 -404 396 -512l200 -28
l16 -16l-4 -4v-4q-161 0 -368 80q-304 172 -304 492v92q0 302 204 664q318 504 832 504zM665 666q0 -179 152 -596h8q0 33 380 424q232 262 232 392v20q-3 24 -72 24q-187 0 -340 -180q-16 -20 -44 -104q-12 0 -12 -36l4 -12l-4 -4h-4q-30 0 -44 68q8 43 8 128v28
q0 192 -52 192h-24q-64 0 -132 -92q-56 -91 -56 -252z" />
    <glyph glyph-name="A" unicode="A" horiz-adv-x="854" 
d="M513 1883l16 8q56 -20 56 -112q12 -542 40 -724q96 -801 204 -1156q50 -180 124 -340q150 -272 388 -272h16q318 0 464 272q56 126 56 196q0 138 -64 196v4h-28q-91 0 -184 -164q-16 -52 -16 -84q0 -21 36 -52l-4 -4h-12q-112 43 -112 124v8q0 136 168 232l64 12h4
q117 0 216 -152q32 -79 32 -176v-12q0 -120 -124 -292q-181 -176 -444 -176q-163 0 -344 120q-113 86 -168 172q-77 104 -164 392q-47 140 -100 424l-12 -4l-92 -4l-32 4l-240 -8q-94 -316 -164 -316q-56 20 -56 40q130 313 264 872l120 660q35 160 92 312zM497 1399h-4
q-89 -592 -208 -988l-4 -12q134 28 336 28q-120 798 -120 972z" />
    <glyph glyph-name="B" unicode="B" horiz-adv-x="1721" 
d="M747 1482h68l16 -1q239 -12 345 -226l5 -56l-2 -28q-5 -78 -88 -160l48 -3q230 -12 420 -154q133 -144 127 -263q-8 -137 -152 -304q-204 -179 -377 -241q-298 -125 -595 -109v-4v-140l-4 -4l-12 1q-90 29 -84 140q0 17 -28 18q-90 5 -244 81q-145 112 -141 203
q4 103 144 145q32 11 88 7l28 -1q83 -5 185 -62v4q5 74 151 813l16 156l-11 24l3 44l-4 1q-117 -18 -219 -57l-26 -23h-4q-28 15 -26 38q6 112 373 161zM718 1375q18 -30 30 -106l-6 -39l-6 -108l-14 -128l169 15q201 116 209 254q2 40 -33.5 70t-108.5 49l-51 7l-56 3
q-116 -3 -133 -17zM771 875q-30 1 -66 24q-75 -342 -119 -655q94 -104 93 -141h-4q-24 1 -38 47l-53 58l-21 -183l3 -4q202 -5 543 120q362 170 475 424l21 91q5 86 -72 160q-141 96 -398 109q-209 1 -210 -18q-78 -35 -154 -32zM143 199l-7 -51q43 -93 327 -122v16l20 228
h-4q-42 14 -118 26q-160 9 -218 -97z" />
    <glyph glyph-name="C" unicode="C" horiz-adv-x="1404" 
d="M883 1572h30q228 0 362 -281l15 -76q0 -101 -60 -235h-5q-17 0 -24 51l10 204q0 151 -159 204q-366 66 -615 -266q-249 -331 -249 -585q0 -382 358 -515q282 -95 554 42q94 78 111 105h5q49 -30 49 -56l-5 -5v-5l5 -5v-5q0 -151 -427 -199h-34q-214 0 -462 173
q-268 223 -268 475v92q0 291 357 668q235 219 452 219z" />
    <glyph glyph-name="D" unicode="D" horiz-adv-x="1441" 
d="M814 1394q398 -42 504 -343q53 -139 43 -228l-6 -57q-23 -213 -305 -522q-221 -193 -351 -244q-115 -58 -194 -69l-1 -5q123 -119 149 -158l-1 -9l-5 -4l-9 1q-70 73 -188 158l-5 1q-141 -16 -180 -13q-280 30 -331 241l2 17q23 74 118 64q64 -8 154 -61l1 4l16 195
l12 119q17 163 118 743h-4q-205 -63 -281 -127l-15 -16l-5 1l-15 19l3 31q37 99 320 203q291 77 456 59zM451 1245v-5l-5 -85q-10 -99 -101 -619l-14 -97q-17 -367 -3 -369l80 -65q419 108 771 553q89 197 103 322q25 240 -193 350q-217 111 -638 15zM25 75v-4
q71 -40 146 -47l36 -4q8 71 -20 74q-42 17 -82 22q-76 8 -80 -41z" />
    <glyph glyph-name="E" unicode="E" horiz-adv-x="1111" 
d="M418 2462q52 0 100 -84q12 -20 12 -52v-28q0 -141 -176 -744h8q177 28 252 28h80q172 0 284 -64q20 -22 20 -32l-4 -4h-4q-135 16 -204 16h-104q-61 0 -300 -32h-44q-12 0 -76 -264q-52 -212 -52 -464q101 40 152 40h48q96 0 136 -64l-8 -8l-20 4q-70 0 -272 -48h-48
q-17 -129 -36 -568q96 -32 176 -32q161 -32 527 40h100q71 0 93 -64q-4 -12 -24 -12h-12q-448 -48 -608 -48h-24q-143 0 -300 37q-28 97 -28 259v4q7 271 32 484l-8 60q8 118 36 296l8 224q0 292 -180 492q-156 225 -156 344q10 100 88 100q113 0 272 -204l20 -48
q9 7 40 124q116 312 204 312zM162 1754q-24 9 -24 16l8 124h4q0 71 -64 192q-77 116 -148 116q-44 -11 -44 -44v-16q0 -144 208 -400q97 -128 116 -252h4q204 712 204 772l8 96q-93 -74 -228 -512q0 -48 -44 -92z" />
    <glyph glyph-name="F" unicode="F" horiz-adv-x="614" 
d="M-68 2564q92 0 208 -164q37 -76 56 -144h4q33 133 148 220q41 16 68 16q76 0 128 -148l8 -72q0 -170 -150 -379l-5 -14q228 92 770 221l156 8q268 0 344 -124v-12l-8 -8q-73 44 -228 44h-104q-252 0 -957 -219l-104 -64q2 -161 77 -860l-4 -28h144q30 -6 30 -72v-4
l-182 -36v-4q-12 -631 -40 -794q-41 -4 -61 34t-19 118v40q23 655 -43 1489q0 114 -80 324q-49 93 -132 184q-152 140 -152 264v24q25 160 128 160zM-120 2368v-8q0 -134 192 -284q132 -160 138 -265l67 57q195 350 195 492v36l-8 8h-8q-108 0 -200 -224q-35 -92 -56 -92
q-14 4 -28 20l4 40q-30 179 -128 308q-34 52 -64 52h-20q-84 -28 -84 -140z" />
    <glyph glyph-name="G" unicode="G" horiz-adv-x="1423" 
d="M1102 1942h68q134 0 220 -170q22 -45 32 -117q-10 -128 -76 -249l-16 -16h-4q-16 10 -16 27q60 175 60 276v5q0 86 -112 117l-32 5q-388 82 -856 -662q-224 -443 -224 -659v-48q0 -261 180 -329q93 -26 212 -37q311 0 552 170q180 138 180 302v11q0 10 -24 21l-548 -58
h-4q-123 0 -183 79v16l4 6v5q49 -21 72 -21h16l396 58q466 64 804 64q614 0 756 -122q88 -37 79 -48l-16 -16l-364 48q-119 21 -392 21h-64q-484 -10 -484 -32q36 -78 36 -143q-31 -226 -416 -414q-168 -48 -344 -48q-210 0 -392 149q-152 152 -152 435q0 282 292 748
q222 307 324 382q263 244 436 244z" />
    <glyph glyph-name="H" unicode="H" horiz-adv-x="1124" 
d="M1375 2264l68 28q69 0 127 -121l10 -55v-5q0 -349 -269 -756q-74 -102 -326 -372q-13 -300 24 -706q37 -404 302 -681q121 -84 191 -84q190 0 351 176l49 79h14l15 -14v-18q0 -171 -239 -251q-83 -23 -166 -23q-242 0 -444 223q-101 146 -166 376q-58 199 -58 538l4 304
q-215 -152 -215 -181q-95 -837 -385 -837q-159 0 -230 125q-24 83 -24 121q0 219 562 703q29 396 4 819q23 223 59 399h14q49 -9 49 -204l-5 -144l-5 -14l5 -14l-24 -784q235 177 235 227q63 367 204 682q109 310 269 464zM1014 1198q448 470 463 1008q-84 -52 -212 -244
q-130 -193 -251 -764zM120 131q0 -102 73 -148q215 113 279 330q62 209 98 419q-450 -385 -450 -601z" />
    <glyph glyph-name="I" unicode="I" horiz-adv-x="657" 
d="M141 2185q137 0 229 -213h4q112 142 315 193q104 0 148 -176v-36q0 -139 -204 -504q-239 -518 -240 -700v-52q-39 -504 -116 -716q-31 -18 -38 -18h-4q-35 0 -48 24v8q10 71 62 402q44 259 44 488q0 319 -304 572l-88 100q-80 119 -80 240q0 155 140 304q91 84 180 84z
M-79 1753q0 -191 192 -340q210 -207 236 -340q6 2 60 152q62 159 308 628q56 114 56 172v12q0 14 -48 20q-186 -12 -327 -185v-12q-9 -130 -90 -215l-16 -4q-16 6 -24 20v4l41 168l12 100q-23 144 -52 144q0 11 -52 20h-36q-117 0 -228 -192q-32 -94 -32 -152z" />
    <glyph glyph-name="J" unicode="J" horiz-adv-x="1193" 
d="M1084 2249h16q88 0 164 -144q24 -80 24 -164q0 -211 -140 -548q-128 -384 -128 -616l-4 -4v-4q112 -211 112 -388q0 -339 -236 -440q-162 -68 -308 -68h-76q-167 0 -376 116q-136 93 -136 272v8q0 172 160 296q76 36 116 36h8q74 0 128 -56l-4 -4h-8l-48 12h-8
q-91 0 -196 -160q-44 -102 -44 -156q0 -188 136 -252q129 -44 232 -44q175 0 364 80q192 103 192 396q0 219 -168 488q-155 194 -392 388q-320 258 -320 512q0 184 172 332q107 76 220 76q103 0 220 -128q39 -65 56 -116h4q34 129 120 200q92 80 148 80zM864 1729l12 -84
q-4 -36 -12 -36h-4q-44 0 -44 64q-17 0 -28 224q-18 108 -68 184q-59 68 -140 68q-136 0 -260 -156q-72 -108 -72 -232q0 -263 384 -544q276 -259 280 -296h8v4q0 146 136 548q148 350 148 580v32q0 84 -52 84h-4q-114 0 -220 -160q-64 -124 -64 -280z" />
    <glyph glyph-name="K" unicode="K" horiz-adv-x="1335" 
d="M5 2280l32 8h28q73 0 164 -100q37 -47 40 -92h4q19 92 84 156q51 36 84 36h12q119 0 148 -128v-32q0 -126 -156 -344q-94 -171 -112 -228l4 -52q0 -182 -76 -620l4 -4l72 -12h16q141 0 356 132q152 115 204 244q77 123 110 563q13 33 34 63l60 -32q-12 -627 -216 -818
q-79 -106 -272 -180v-4q147 -14 348 -156q183 -183 248 -364q57 -154 184 -604q42 -123 168 -300q154 -166 244 -192q119 -68 436 -68h8q542 0 804 184q109 94 112 156q0 79 -136 176q-117 40 -188 40h-48q-221 0 -496 -156q-28 -16 -28 -44l-4 -4h-4q-16 7 -16 20
q0 136 296 240q101 24 156 24h56q177 0 352 -112q116 -110 116 -244v-8q0 -247 -544 -332q-195 -24 -364 -24q-476 0 -780 280q-215 230 -288 552q-93 331 -140 472q-73 175 -200 296q-131 85 -260 104q-141 13 -184 28l-52 -4q-66 0 -176 40v-4q-44 -352 -44 -576v-28
q0 -176 11 -374q0 -52 -20 -52q-28 0 -59 18q-40 124 -40 332v128q0 342 124 992l4 36l-24 28q11 223 36 248l12 32q0 194 -176 340q-136 136 -136 228q0 70 68 96zM79 2158q0 -53 184 -228q53 -64 84 -156l192 336q49 62 56 120v4q-4 16 -36 16q-79 0 -168 -168
q0 -30 -44 -120q-12 0 -24 -16l-16 -4l-16 20v36q0 101 -64 228q-34 36 -52 36h-8q-73 0 -88 -104z" />
    <glyph glyph-name="L" unicode="L" horiz-adv-x="846" 
d="M-84 2232l42 1q119 -14 209 -223q15 -42 21 -114q188 223 293 212q54 -6 88 -135l-5 -47q-5 -46 -152 -473q-33 -99 -88 -345l4 -52l-5 -4l-5 1q132 -305 176 -742l-15 -254q106 -17 812 -342q709 -326 1068 -371q50 -18 179 -32l83 -9q489 -51 685 91q113 61 124 160
q-111 255 -322 277l-14 1q-221 23 -375 -109l-23 -45q-4 -35 58 -62.5t191 -47.5l57 4q18 -8 26.5 -15t7.5 -12q-1 -16 -169 -10q-285 76 -273 196q15 142 324 194h135q180 -19 386 -288q78 -101 69 -189l-1 -5q-13 -132 -211 -192q-84 -32 -424 -40q-67 -7 -218 9l-51 6
q-219 22 -654 154q-423 129 -879 346q-448 214 -589 228l-88 -187q-90 -130 -230 -115q-120 14 -225 131q-29 138 -18 230q8 114 234 117l215 -37v5q38 551 -213 1139q-102 223 -318 570q-70 129 -63 198l5 46q16 154 136 181zM-143 2029l-1 -5q-16 -160 104 -300l279 -500
l-1 37q23 212 223 709q-175 -102 -257 -276q-4 -34 -18 -36l-9 1l-4 5l-5 -4l-9 1q-28 3 -14 137q11 106 -78 321q-37 54 -82 59q-113 -9 -128 -149zM40 -55q-59 -194 44 -201l23 -2q111 -12 249 273q-222 59 -267 12q-44 -46 -49 -82z" />
    <glyph glyph-name="M" unicode="M" horiz-adv-x="1798" 
d="M714 2250q64 -13 64 -112q24 -203 24 -316q0 -135 -40 -668v-4q14 -262 168 -632q116 -167 184 -180q122 0 260 228q81 176 140 400q67 244 120 652q36 422 72 612l4 4h4q64 0 64 -204q-72 -1460 -72 -1760l4 -305l-7 -21q-47 0 -85 50q-20 85 -20 316q0 292 16 576v4h-4
q-146 -600 -452 -600h-4q-294 0 -416 524h-4q-29 -463 -76 -580q-64 -175 -148 -224q-81 -60 -172 -60q-127 0 -240 80q-108 110 -108 268q31 364 196 364q131 0 176 -240v-20h-4q-32 0 -32 44q-62 159 -88 168h-12q-98 0 -136 -248l-8 -88q0 -165 168 -268l24 -8h24
q103 0 196 144q64 109 100 332q108 1166 108 1416l-8 260q4 96 20 96z" />
    <glyph glyph-name="N" unicode="N" horiz-adv-x="932" 
d="M819 2005l20 17h8q26 0 32 -80v-29q0 -87 -48 -512q-16 -165 -28 -784q15 -675 32 -675l-4 -71q285 -285 388 -323q452 -247 860 -247q253 0 496 113q132 74 132 172q0 114 -216 164q-47 12 -120 12q-126 0 -244 -29q-40 18 -40 37q133 63 260 63q184 0 372 -142
q84 -79 84 -155v-17q0 -155 -336 -247q-170 -34 -272 -34h-60q-449 0 -972 285q-165 97 -392 323q-245 273 -372 474q-37 64 -84 126q0 -107 -76 -386q-21 -52 -32 -55q-28 0 -28 21l52 407l12 138q-129 190 -244 512q-68 219 -68 314v105q0 113 84 176q20 13 40 13h4
q136 0 228 -239q76 -201 76 -407v-71q0 -166 -32 -411q149 -263 384 -554l24 -25v5q-36 150 -36 373v146q0 1027 116 1497zM31 1414q0 -241 172 -604l48 -113h4q11 87 16 336q0 393 -144 582q-96 -33 -96 -201z" />
    <glyph glyph-name="O" unicode="O" horiz-adv-x="2249" 
d="M584 1348h36q180 0 328 -172l68 -112q254 264 592 264q302 0 488 -252q92 -152 92 -248q0 -299 -448 -588q-251 -170 -440 -344l-68 -64l4 -24l-4 -4l-28 8l-28 -28q-25 0 -44 28l16 64q-219 201 -476 272q-316 134 -432 240q-212 197 -212 412q0 208 180 388
q139 118 204 128q87 32 172 32zM680 1280l-20 -4h-16q-246 0 -440 -272q-64 -118 -64 -216v-24q0 -406 712 -632q186 -77 328 -212q119 139 308 276q279 189 432 332q168 165 168 352v16q0 191 -176 292q-141 56 -228 56h-24q-342 0 -640 -324q-19 -88 -40 -88q-28 7 -28 32
v60l8 64q0 110 -140 252q-69 32 -140 40z" />
    <glyph glyph-name="P" unicode="P" horiz-adv-x="1101" 
d="M352 1933l44 9q56 2 98 -40.5t68 -129.5v-20q2 -39 -16 -93q130 81 245 85q239 8 344 -224q19 -59 20 -111l1 -40q7 -187 -173 -443q-186 -201 -240 -220q-181 -128 -348 -132q-97 -4 -178 77q-63 -391 -55 -602l1 -28l-8 -8h-8q-24 -1 -36.5 11.5t-13.5 38.5
q-21 159 -24 239l-1 8q-4 130 64 587l5 80q-7 204 -196 337q-193 160 -199 322l-1 31q-5 140 101 192l48 10h8q113 4 232 -124q53 117 218 188zM173 1658l10 -47q-12 -198 -28 -233l-12 -1l-16 16l4 4l-12 99l2 65q-9 239 -156 234q-78 -1 -116 -116q-7 -30 -5 -88
q4 -145 227 -316q95 -93 96 -109h8q26 130 297 551q29 63 28 89q-17 35 -65 34l-12 -1q-117 -5 -250 -181zM232 1020l10 -68l1 -28q3 -68 -20 -220q29 -55 94 -53h12q168 6 406 183q340 313 330 631q-5 117 -50 155q-52 37 -169 34q-205 -8 -435 -251q-179 -325 -179 -383z
" />
    <glyph glyph-name="Q" unicode="Q" horiz-adv-x="2492" 
d="M707 1567h17q220 0 353 -139q147 -104 191 -248q8 -53 18 -53q113 133 261 209q158 79 305 79q220 0 396 -153q144 -148 192 -291l13 -79q0 -196 -357 -453q-108 -84 -170 -148q699 -595 1122 -786q423 -190 536 -190q345 0 605 152q104 86 104 179v48q0 159 -265 196
h-35q-275 0 -444 -174q-70 -85 -70 -144q0 -44 52 -92q0 -8 -13 -8q-43 0 -113 109l-9 39v30q0 108 183 235q160 83 340 83h39q244 0 414 -239q26 -66 26 -109v-53q0 -193 -431 -274q-799 -180 -2093 955q-148 -126 -222 -240v-9l-5 -13h5q100 -73 100 -91l-4 -4h-5
q-198 117 -418 182l-797 175q-195 66 -331 170q-174 166 -174 396v22q0 269 287 561q215 170 397 170zM136 788q0 -370 383 -484q144 -36 584 -113q334 -82 492 -170h4q-8 21 -8 57v9q0 82 191 252q-131 118 -248 118q-98 0 -165 -96l-18 -48q0 -83 153 -122q46 -26 56 -39
v-4h-4q-227 70 -253 130q-17 40 -17 70q0 129 178 165h48q126 0 310 -139q352 286 374 314q166 148 166 291q0 127 -183 257q-139 70 -266 70h-44q-244 0 -540 -305q-56 -54 -78 -157l-17 -21q-32 23 -48 95q6 63 30 118q0 316 -292 418q-84 22 -169 22q-189 0 -423 -231
q-196 -253 -196 -457z" />
    <glyph glyph-name="R" unicode="R" horiz-adv-x="1179" 
d="M62 1992q93 0 192 -128q0 44 124 108q45 20 64 20h20q140 0 176 -184v-20l-16 -72h4q119 52 200 52q187 0 324 -164q60 -88 60 -172q0 -146 -252 -292l-180 -72v-4q135 -53 244 -216q52 -123 52 -212v-60q0 -76 -96 -592l-8 -128q0 -250 180 -356q213 -96 520 -96
q220 0 456 168q104 101 104 184v36q0 71 -80 124q-58 24 -92 24h-28q-139 0 -260 -112h-4q-48 13 -48 28q0 33 108 108q80 48 176 48q98 0 220 -92q112 -103 112 -212q0 -140 -220 -264q-193 -100 -420 -100q-485 0 -724 236q-100 131 -100 296v36q0 126 88 536
q28 133 28 216v4q0 148 -72 248q-123 108 -288 108h-12l-212 -24l-84 -32l-4 -4v-4l-72 -952l-57 -13q-45 50 -11 245v144q0 125 40 672l4 64q0 298 -156 428q-164 191 -164 256l-4 24q0 72 108 148q32 16 60 16zM6 1816l-12 -40q0 -94 180 -264q100 -118 100 -152
q96 173 264 416q28 69 28 104v8l-52 12q-75 0 -184 -76q-40 -46 -40 -108q-15 -44 -36 -44q-16 6 -24 20v44q0 132 -84 172h-24q-57 0 -116 -92zM314 1184l4 -84v-28h32q90 30 236 44q548 161 548 420q0 64 -172 116q-42 11 -116 16q-90 0 -264 -80q-62 -25 -136 -156
q-82 -132 -132 -248z" />
    <glyph glyph-name="S" unicode="S" horiz-adv-x="2070" 
d="M1411 2203h32q83 0 116 -108q12 -31 12 -68q0 -103 -180 -336q-246 -320 -348 -320h-8q-37 0 -56 28v16q216 203 272 284q260 329 260 380l-68 12q-82 0 -176 -80q-56 -100 -56 -180q-14 -20 -32 -20h-16q-10 116 -20 124q-146 100 -424 100q-320 0 -612 -184
q-152 -110 -152 -224v-32q0 -257 908 -452q584 -137 848 -288q195 -119 276 -276q40 -81 40 -140q0 -263 -376 -488q-291 -144 -648 -144q-334 0 -550 59q-214 58 -362 157q-26 53 -12 92h4q127 -113 292 -151q158 -36 504 -65h68q353 0 676 168q316 204 316 432
q0 165 -220 280q-261 157 -1096 356q-415 119 -564 236q-200 143 -200 296q0 258 496 424q175 52 340 52q338 0 460 -152h4q0 57 100 156q0 21 152 56z" />
    <glyph glyph-name="T" unicode="T" horiz-adv-x="739" 
d="M549 2398l60 12h12q127 0 184 -192v-32q0 -140 -216 -576q-80 -207 -80 -232l240 8h220q281 -10 408 -36q-24 -88 -116 -77q-87 10 -436 10q-110 0 -328 -20v-4v-49q0 -150 -84 -652q-56 -415 -56 -552l-45 -24q-17 -3 -28 19t-16 69t-3 120q0 222 104 816q20 132 20 196
l-5 49h-4l-248 -32q-87 23 -87 67q0 25 340 76q-39 165 -76 216l-228 276q-104 148 -104 364q21 164 132 164q90 0 208 -160l16 -32h8q79 162 208 208zM329 1946l-20 -12h-12l-12 12v28l-4 28l4 36v44q0 139 -92 208l-20 4h-8q-71 0 -88 -120v-28q0 -248 248 -484
q78 -101 100 -152l60 144q184 377 236 536q8 18 8 64v24q-16 24 -68 24h-12q-180 0 -320 -356z" />
    <glyph glyph-name="U" unicode="U" horiz-adv-x="1106" 
d="M1131 1857q41 0 84 -84l8 -40q0 -157 -192 -752q-24 -85 -24 -140l-20 -48q-36 -171 -36 -468l33 -322l-4 -4h-16q-48 0 -65 24q-40 154 -52 290h-4q-152 -320 -320 -320h-44q-256 -4 -363 217t-75 511q13 395 154 820q75 36 87 -24l-51 -172q-72 -309 -72 -620v-32
q-42 -441 202 -631l86 -21q181 0 392 544q16 23 52 296q44 152 44 176q-4 60 -100 244q-55 109 -172 276q-72 119 -72 168v4q0 49 96 68h20q77 0 180 -132l20 -40h8q12 54 156 192q29 20 60 20zM683 1697q0 -54 204 -348q45 -75 84 -168q9 0 76 216q84 291 84 348
q-167 -158 -204 -244q0 -48 -24 -64h-12q-24 13 -24 36v60q-20 190 -104 212h-16q-64 -9 -64 -48z" />
    <glyph glyph-name="V" unicode="V" horiz-adv-x="799" 
d="M965 1784l12 -1q46 -41 44 -70l-165 -404q-71 -140 -325 -924q-87 -298 -115 -443q91 -316 193 -443q131 -158 206 -195q187 -114 358 -123q381 -20 744 290q186 198 194 330l2 32q2 35 -26 53q-167 9 -361 -173q-34 -42 -45 -86l-4 -3h-12q-43 13 -43 26q10 184 312 301
l77 8l12 -1q104 -6 178 -126q13 -30 12 -72q-10 -180 -249 -392q-372 -269 -730 -250q-199 11 -457 152q-313 198 -423 555q-120 362 -227 1029q-76 306 -182 507q-99 221 -216 227q-24 2 -74 -36l-20 1l-15 17q26 83 76 80l16 -1q147 -48 202 -131q64 -68 144 -231
q91 -142 187 -551q56 -325 107 -562l4 -1q106 402 268 844q74 204 189 466q124 282 152 301z" />
    <glyph glyph-name="W" unicode="W" horiz-adv-x="1464" 
d="M281 1661h8q31 -16 31 -40q-15 0 -91 -199q-64 -196 -67 -355v-8q-7 -389 179 -763q36 -80 156 -207q4 184 180 445q-154 341 -149 607q4 223 92 250h12q88 -28 130 -110q42 -141 41 -197q125 162 195 161l28 -1q73 -2 113 -122v-12q-2 -103 -186 -365
q-58 -109 -169 -253q44 -106 222 -380l90 -117q93 242 142 577q58 421 63 631v4q5 225 -54 369l-19 21v4l8 8l8 -1q69 -2 129 -186q29 -152 27 -288q-5 -243 -99 -859q-67 -251 -122 -306q-14 -23 -56 -35q0 -8 -12 -7q-85 1 -368 494h-4q-99 -172 -99 -194
q-33 -92 -35 -180l-28 -54q-62 -59 -171 106q-199 181 -309 665q-29 173 -28 245l3 124q5 254 136 462q40 43 73 66zM627 1111l-1 -68q-3 -146 101 -426v-4q83 108 250 380q52 64 71 159q-111 -20 -286 -315q-23 -45 -36 -52h-4q-36 21 -36 45q38 155 40 203q2 135 -39 269
h-4q-53 -32 -56 -191z" />
    <glyph glyph-name="X" unicode="X" horiz-adv-x="1198" 
d="M1165 2129q39 -21 45 -80l3 -28q14 -131 -208 -625q-140 -312 -314 -612l1 -4q11 -102 158 -398q358 -524 600 -571q47 -23 160 -28q147 17 317 158q59 62 54 98q58 -13 63 -61l1 -16q6 -56 -117 -145q-120 -73 -232 -85l-12 -1q-171 -18 -365 73q-194 90 -462 434
q-141 187 -226 431l-8 -1q-118 -218 -297 -466q-188 -242 -267 -249l-8 -1q-51 -5 -70 17l-1 8q-1 4 9.5 10t31.5 14q41 26 159 178q233 334 403 642q-38 136 -111 523q-71 231 -141 347q-71 86 -193 72h-4q-56 -6 -65 -35l-10 -17q-26 8 -30 53q-5 47 61 71l16 1
q134 14 284 -139q131 -209 137 -271q40 -75 123 -482q167 281 310 612q142 325 178 449l21 71l-7 27q7 25 13 26z" />
    <glyph glyph-name="Y" unicode="Y" horiz-adv-x="647" 
d="M1175 2354q150 0 208 -196l4 -52v-24q0 -175 -248 -456l-312 -296l-105 -88q-262 -253 -347 -396q-148 -242 -148 -516q0 -111 92 -328q-12 -43 -75 -43h-4q-75 99 -97 184q-20 88 -32 207q0 333 232 652q-99 67 -148 172q-148 246 -336 784l-56 88l8 8h4
q73 -18 156 -164l208 -500q162 -289 188 -356h4q27 58 348 360l4 4h4q0 53 -132 176q-156 167 -156 368v24q12 210 124 252l20 4q85 0 172 -120q112 126 176 156q153 92 244 96zM691 1726q-60 0 -60 96q5 61 64 196v16q0 104 -40 104q-91 0 -120 -204v-36q0 -200 192 -384
l56 -64q352 316 388 400q144 194 144 304v4q0 92 -44 92l-32 4q-164 -14 -356 -180q-127 -146 -180 -312q-1 -36 -12 -36z" />
    <glyph glyph-name="Z" unicode="Z" horiz-adv-x="1528" 
d="M2158 2060q73 0 100 -136q0 -121 -416 -348q-177 -84 -180 -100q-155 -261 -320 -596l-200 -336v-4h44q134 0 288 -24l32 -32v-4q0 -8 -12 -8q-420 -10 -420 -24q-46 -81 -212 -280q129 0 1036 -224q292 -72 612 -120q192 -44 489 -39h116q213 0 404 48q115 0 200 64v4
q0 136 -340 224l-44 4q-101 0 -232 -96q-28 -35 -28 -48q115 -44 156 -44h28q28 -19 28 -40l-4 -4h-60l-52 -4q-132 0 -184 136v12q0 80 140 136q96 40 248 40h12q224 0 384 -160q24 -46 24 -68v-32q0 -83 -140 -184q-91 -56 -240 -56l-356 -8h-4q-386 -5 -753 91
q-325 62 -808 196q-292 74 -668 128h-4q-276 -332 -528 -332q-116 0 -208 108q-37 52 -40 96v16q0 77 88 128q127 56 356 56q98 0 236 -12q188 229 204 256q-87 0 -120 52v12q0 12 180 24q178 254 456 804l48 80v4h-4q-314 -149 -893 -204h-64q-159 0 -224 96l8 8
q41 -36 128 -36q273 0 997 232l160 72q86 140 284 324q191 152 272 152zM1846 1708h4q165 94 304 228l4 4v4h-4q-132 -51 -308 -236zM90 0v-16q0 -81 72 -116l56 -8q220 0 456 276l-4 4l-164 4q-324 0 -392 -80q-24 -41 -24 -64z" />
    <glyph glyph-name="bracketleft" unicode="[" horiz-adv-x="758" 
d="M100 1763l13 12h4q47 0 138 -45h4l114 -4l284 8q110 -5 110 -20v-12h-12q-234 -21 -338 -21l-166 5v-5q-8 -62 -8 -162l12 -386q0 -388 -65 -1216h4q52 -14 382 -49q252 -41 252 -61v-4q0 -7 -24 -12l-586 77q-138 26 -138 45v65l57 870l8 305q-12 211 -12 386v37l8 142
q-41 20 -41 45z" />
    <glyph glyph-name="backslash" unicode="\" horiz-adv-x="569" 
d="M-2 1887l10 6q75 -26 147 -427q157 -586 291 -1163q83 -351 52 -462q-26 -51 -33 -48q-49 16 -36 121q-1 127 -21 259l-146 624l-133 497q-75 358 -135 582z" />
    <glyph glyph-name="bracketright" unicode="]" horiz-adv-x="758" 
d="M556 1797q140 0 232 -144q28 -46 28 -100q0 -187 -128 -872q-132 -701 -132 -908l-20 -16l-156 68l-124 8q-61 0 -304 -40h-12q-44 6 -44 20q0 12 112 52q94 28 168 28h8q149 0 260 -44l4 12q0 163 216 1312q52 325 52 416q-15 129 -64 132h-64l-372 -8q-172 13 -172 48
l8 8h20q374 28 484 28z" />
    <glyph glyph-name="asciicircum" unicode="^" 
d="M752 2092q80 0 116 -128v-4q0 -106 -272 -408q0 -84 348 -360q191 -196 208 -260l4 -12h-36q-72 101 -140 172q-38 44 -320 284l-116 128q-465 -414 -660 -448q-40 10 -40 24v4q108 61 444 340q168 144 208 188q-11 38 -16 104q0 141 140 296q95 80 132 80zM592 1760
l-16 -60q136 142 196 260l8 24h-4q-127 -73 -184 -224z" />
    <glyph glyph-name="underscore" unicode="_" horiz-adv-x="1488" 
d="M58 -8v4q14 81 85 87q1023 1 1242 -18l3 -4q31 -7 31 -13q1 -64 -42 -68q0 -6 -60 -12h-3l-570 4q-549 0 -683 17z" />
    <glyph glyph-name="grave" unicode="`" horiz-adv-x="1024" 
d="M91 1483l12 8q79 0 156 -180q67 -117 168 -204q137 -92 224 -92q0 -8 40 -8l8 -12v-4q0 -15 -56 -32h-60q-156 0 -328 208q-134 186 -164 316z" />
    <glyph glyph-name="a" unicode="a" horiz-adv-x="986" 
d="M463 910q167 18 295 -170l1 -4q51 74 103 200l11 9l12 2q22 2 53 -83l-47 -122q-69 -225 -58 -376q10 -148 125 -327q-119 -92 -166 32q-48 128 -64 261l-7 68l3 4v4l-8 -1q-211 -378 -400 -397l-24 -3q-125 -14 -235 133q-30 59 -36 116l-4 32q-18 176 163 444
q139 163 283 178zM120 235l3 -28q12 -120 90 -136l28 3q193 21 505 629q-32 65 -98 94q-57 34 -132 26q-224 -22 -370 -385q-34 -129 -26 -203z" />
    <glyph glyph-name="b" unicode="b" horiz-adv-x="973" 
d="M347 1776q-17 -151 -17 -258l-26 -616l-6 -49q119 59 215 61q161 -16 317 -139q112 -139 114 -277q0 -297 -228 -495l-69 -55q-145 -83 -277 -83q-317 -2 -406 222v25q0 92 174 94h19l-5 54q0 148 65 1050l19 392q47 152 111 74zM273 712l-29 -498q162 -50 330 -146l5 -5
l5 1q162 106 235 367l10 119v24q0 168 -146 242l-75 20h-46q-143 -2 -289 -124zM64 72v-21q2 -38 71 -97q39 -27 148 -29q140 -2 257 98q-172 109 -264 111v-5l-4 -129l-4 -5l-5 1q-99 0 -101 146l-10 -1q-77 2 -88 -69z" />
    <glyph glyph-name="c" unicode="c" horiz-adv-x="835" 
d="M492 923q247 0 298 -182v-8l-7 -8h-3q-5 0 -40 62q-56 54 -175 54h-17q-176 0 -361 -209q-96 -134 -96 -283q30 -183 59 -183q109 -112 285 -112q164 0 340 98q33 -16 33 -46v-4q0 -87 -224 -122l-92 -8q-275 0 -451 272q-33 106 -33 143v16q0 261 278 458q113 62 206 62
z" />
    <glyph glyph-name="d" unicode="d" horiz-adv-x="1148" 
d="M956 2098l12 12q95 0 128 -240v-16q0 -131 -185 -1077q-32 -169 -32 -272v-4l-4 -20q5 -140 20 -140q145 -36 204 -116q32 -41 32 -72q0 -103 -260 -168q-95 -24 -244 -24h-20q-347 0 -524 240q-52 88 -52 172q0 148 124 308q158 167 276 208q133 56 220 56h8
q104 0 160 -44h8q185 925 185 1053v36q-9 80 -28 80q-17 7 -28 24v4zM131 333q0 -123 84 -208q125 -76 336 -76q171 0 324 44v4q-54 55 -76 184h-8q-98 -68 -128 -156q0 -12 -8 -12q-19 0 -36 32q0 48 84 136q46 41 84 52q-12 112 -12 188q0 121 36 316q-51 16 -88 16h-4
q-127 0 -308 -100q-280 -199 -280 -420zM907 301h-12v-4q24 -126 48 -176h4q108 48 108 88q-21 52 -148 92z" />
    <glyph glyph-name="e" unicode="e" horiz-adv-x="936" 
d="M625 924q97 -4 169 -137l3 -26l-1 -13q-6 -118 -209 -265q-202 -129 -366 -121l-101 19l-1 -5l-5 -33q-8 -156 99 -227q65 -28 129 -33q93 -5 476 42q1 7 29 7q48 -16 48 -32l-1 -4q0 -10 -154 -56q-164 -42 -324 -33q-284 15 -392 268q-13 57 -11 107l2 26
q4 108 136 282q247 246 474 234zM162 485l-28 -62l16 -1q173 -11 436 206q111 114 116 190v4l-8 9l-28 1q-127 7 -330 -131q-148 -131 -174 -216z" />
    <glyph glyph-name="f" unicode="f" horiz-adv-x="450" 
d="M313 1775q177 0 272 -224q24 -74 24 -136q-10 -172 -64 -192q-13 0 -28 28l8 140v60q0 121 -84 232q-17 16 -56 16h-8q-200 -38 -200 -620q20 -454 20 -616v-24q80 15 180 20q29 -11 48 -40v-8q-46 -52 -176 -52h-52q-24 -364 -48 -364h-4q-84 27 -84 64q14 77 28 308
q-26 4 -56 40v12q0 12 40 16h16v56l-12 660v80q0 370 148 512q32 25 88 32z" />
    <glyph glyph-name="g" unicode="g" horiz-adv-x="855" 
d="M765 936q52 -30 52 -84l-80 -364q-11 -157 -16 -432l4 -348q12 -309 -71 -525q-82 -215 -197 -336q-202 -160 -384 -160h-80q-186 0 -468 128l-164 100q-198 136 -280 328l-8 64v32q0 144 180 204l72 8q277 0 580 -140q220 -87 228 -104l-8 -8q-130 58 -616 172l-116 4
q-133 0 -200 -112q-16 -33 -16 -72q0 -257 496 -492q130 -44 372 -44q243 0 436 180q35 43 105 324q70 279 37 991q-101 -150 -255 -207q-153 -57 -304 105q-76 134 -14 335q63 204 155.5 313.5t223.5 127.5h28q105 0 208 -84l24 -36h8q41 132 68 132zM154 128
q96 -30 205 43q111 74 197 189q117 129 117 368q8 0 8 28q0 63 -140 80h-16q-238 -24 -346 -285q-108 -259 -25 -423z" />
    <glyph glyph-name="h" unicode="h" horiz-adv-x="718" 
d="M220 2354h20q44 0 104 -80q48 -84 48 -216q0 -149 -148 -1000l-32 -232q103 108 200 108h12q111 0 196 -124q36 -58 36 -160l-36 -588q0 -203 116 -412q118 -132 196 -132l32 -16q71 0 116 96l4 24q0 78 -108 196l-16 4q-6 -16 -12 -16h-4q-52 0 -52 48l-4 4v4l16 12h28
q106 0 240 -180q18 -28 28 -80q0 -72 -96 -136q-51 -20 -92 -20h-28q-92 0 -232 80q-142 103 -208 344q-28 143 -28 220q0 82 52 624v8q0 108 -56 108l-32 4q-140 0 -288 -192q-48 -383 -47 -520q0 -155 12 -200q-47 0 -96 76q-20 68 -15 125q-6 487 234 1751q20 166 20 232
q-2 168 -28 168l-32 4q-21 0 -92 -44h-8l-16 16q29 92 96 92z" />
    <glyph glyph-name="i" unicode="i" horiz-adv-x="562" 
d="M724 1494q87 -7 93 -133l-2 -20q-7 -86 -247 -291q-258 -261 -319 -398q-78 -164 -92 -309q-22 -259 56 -322l46 -29l-1 -15q-51 -52 -97 -48l-16 1q-62 47 -83 148q-25 83 -20 138q31 358 181 599h-4q-87 54 -135 156q-57 133 -47 242q12 140 124 234q50 35 84 32l32 -2
q47 -5 102 -114q105 86 202 111q79 17 143 20zM304 1097l-17 -7q-39 5 -67 66l1 4q74 116 84 226l1 16l-28 2q-52 5 -116 -86q-51 -87 -56 -144q-16 -174 119 -335l12 -1q107 147 343 343q159 121 199 215q-20 19 -34 20l-20 1q-129 12 -301 -94q-51 -34 -76 -134
q-28 -42 -35 -73q-4 1 -6 -4t-3 -15z" />
    <glyph glyph-name="j" unicode="j" horiz-adv-x="912" 
d="M226 1507l48 8q122 0 244 -192l32 -88h8q43 94 160 168l64 20q87 -13 112 -112v-24q0 -59 -168 -328q-151 -222 -188 -364l-24 -76v-4q278 -283 368 -428q159 -233 188 -436q20 -69 20 -156v-80q0 -328 -268 -448q-184 -68 -452 -68q-335 0 -560 168q-132 115 -132 208
q0 89 152 148q102 29 246 33q145 5 339 -76q195 -81 363 -225l-12 -4q-16 0 -200 116q-307 156 -525 148t-271 -124l-4 -36v-8q0 -109 256 -248q114 -40 240 -40q524 0 660 228q56 117 56 276v32q0 348 -264 708q-103 118 -356 368q-223 253 -252 368q-60 117 -60 204v16
q0 269 180 348zM146 1163v-16q0 -149 160 -408q60 -77 120 -136h4v12q0 102 220 440q148 241 148 280h-4q-120 -49 -208 -196v-28q0 -54 -12 -84l4 -12l-32 -12q-36 0 -36 128q0 68 -104 268q-40 48 -80 48q-98 0 -160 -168q-20 -65 -20 -116z" />
    <glyph glyph-name="k" unicode="k" horiz-adv-x="615" 
d="M242 1967h8q56 0 56 -124v-68q0 -82 -96 -1036q161 188 340 380q40 60 60 60q44 -27 44 -72v-8q0 -32 -160 -208l-200 -236v-4q105 0 200 -152q32 -96 32 -172l-32 -356q0 -118 88 -236q80 -80 192 -80q197 16 220 108v8q0 17 -20 40l-40 -4q-60 11 -60 44v8q7 16 28 16
h8q94 0 184 -116l8 -36q0 -71 -156 -124l-92 -12q-161 0 -340 128q-96 103 -108 216l-12 80l32 368q0 106 -52 192q-75 20 -136 20h-8q-22 0 -36 -24l-32 -572l-4 -4h-12q-92 20 -92 80q0 327 160 1804q15 92 28 92z" />
    <glyph glyph-name="l" unicode="l" horiz-adv-x="345" 
d="M88 2058l8 1q132 17 246 -168l16 -70q30 -242 -132 -859q-82 -406 -54 -643q23 -183 94 -303v-4l-7 -9h-4q-61 -7 -105 38.5t-70 145.5l-20 126l-1 8q-41 329 138 1012q85 357 61 548l-1 8q-10 93 -76 99l-57 2l-28 -4l-110 -50l-15 19q-2 21 27 46.5t90 56.5z" />
    <glyph glyph-name="m" unicode="m" horiz-adv-x="1120" 
d="M198 923q82 13 151 -90l14 -58l1 -8q93 189 135 195q15 10 42 15q105 -24 117 -99q16 -108 -6 -244q194 376 338 398q92 -17 107 -84v-4q14 -90 -152 -575q-96 -387 -65 -638q24 -148 75 -163q37 6 89 51q37 -1 38 -10q-39 -62 -102 -73q-114 -18 -174 130l-23 90
q-29 253 74 660q167 482 158 535l-4 -1q-100 -48 -247 -306q-106 -259 -190 -512q-16 -40 -39 -42.5t-70 41.5l-1 4q16 117 92 516q38 175 25 255l-2 12h-4q-93 -15 -213 -346q-100 -463 -95 -503q-7 -82 -16 -83l-4 -1q-69 5 -81 65q-12 61 80 463q44 210 29 304
q-9 60 -25 57l-12 -2q-139 -22 -263 -260q-10 -1 -8 -22l-16 -2l-18 13l-1 4q1 69 107 220q78 84 159 98z" />
    <glyph glyph-name="n" unicode="n" horiz-adv-x="840" 
d="M166 1024l7 1q55 9 118 -62q15 -18 22 -67q17 -102 -45 -423q117 235 189 343q103 161 188 175q62 11 128 -99l12 -52q19 -116 -41 -477q-26 -295 -11 -387l3 -23q15 -94 30 -92l40 19q47 -7 49 -20q1 -6 -12 -13.5t-40 -17.5l-19 -3q-66 -10 -123 69q-21 58 -30 115
q-25 154 61 684q17 121 10 164l-11 64q-130 -48 -343 -513q-44 -85 -132 -357q-10 -55 -34 -83q-43 -7 -86 33l-1 8q29 236 145 817q7 76 0 116l-1 11q-6 34 -40 28q-95 -29 -183 -178q-56 -138 -49 -178l4 -27l-4 -1q-20 -3 -25 9l-4 26q-15 95 74 262q93 119 154 129z" />
    <glyph glyph-name="o" unicode="o" horiz-adv-x="1294" 
d="M370 1037q182 -9 252 -265l2 -16l6 -1q81 139 257 199q52 17 107 14h13q171 -9 259 -246q16 -57 13 -109q-11 -212 -260 -419q-91 -62 -311 -160l-164 -83l-23 -19q-25 53 -8 80q-59 120 -147 180q-186 164 -290 304q-61 92 -56 183q8 168 168 292q92 63 182 66zM144 636
l-1 -23q-6 -119 131 -250q198 -195 257 -276l21 -48l6 -1q542 264 588 520q22 73 23 110q4 71 -38 157q-48 55 -121 58l-14 1q-153 8 -309 -178q-57 -69 -58 -124q-20 -59 -35 -57h-6l-16 21l-2 28l9 114q10 184 -85 251l-60 11q-74 4 -186 -93q-98 -113 -104 -221z" />
    <glyph glyph-name="p" unicode="p" horiz-adv-x="977" 
d="M284 914l-6 -47q122 85 231 98q244 30 416 -198q39 -75 44 -122q20 -150 -183 -410q-165 -189 -432 -291l-131 -28h-39l-51 -617q2 -53 -12 -59l-7 -1q-42 -4 -85 63q23 125 42 416q12 66 23 213q-146 65 -158 161q-17 141 195 197q10 215 32 426q-43 -46 -70 -51
q-26 22 -28 40q117 132 166 238q49 10 53 -28zM215 288h4q94 -9 288 -152l4 1q212 142 334 394q42 99 36 157l-5 34q-21 170 -327 160q-174 -23 -294 -137q-15 -24 -35 -338q-8 -93 -5 -119zM215 223l-7 -1l1 -4l-16 -217l3 1q108 12 282 115v4q-153 116 -263 102zM14 52
q6 -50 87 -58l22 206q-120 -58 -109 -148z" />
    <glyph glyph-name="q" unicode="q" horiz-adv-x="978" 
d="M747 1047h24q125 0 192 -184l4 -64v-20q0 -167 -188 -484q-242 -438 -356 -800q-64 -204 -64 -424q0 -269 180 -348q72 -24 120 -24q122 0 252 116q167 169 192 288q17 29 24 104q-12 120 -104 120l-40 8q-75 0 -304 -56q-24 7 -24 16q57 53 180 72l104 12
q141 0 228 -112q24 -47 24 -72v-36q0 -133 -168 -324q-164 -176 -324 -176h-44q-169 0 -312 140q-92 116 -92 308q0 346 188 764l72 156h-4q-102 -24 -148 -24h-12q-255 8 -312 172l-8 44q0 187 196 392q148 148 316 148h12q144 0 256 -160q36 57 72 208l4 88q0 72 -68 72
l-24 4q-145 0 -288 -116l-20 -40q-21 0 -24 64q31 73 152 132q83 36 136 36zM135 199v-24q0 -104 112 -104l84 -8l24 4h60l80 12l36 -16q144 289 244 456l8 28q-47 128 -180 128q-215 0 -400 -272q-68 -130 -68 -204z" />
    <glyph glyph-name="r" unicode="r" horiz-adv-x="720" 
d="M99 909l47 71q58 -29 65 -66l35 -144l4 1q128 134 293 143q152 5 253 -60q-31 -90 -128 -52l-85 -5q-119 18 -216 -52q-113 -81 -98 -179q-40 -570 -110 -575q-96 32 -97 68q42 70 81 244q40 286 40 356q0 66 -38 106h-4q-28 -42 -45 -44q-73 33 -76 79q-1 20 79 109z
" />
    <glyph glyph-name="s" unicode="s" horiz-adv-x="906" 
d="M397 962q130 0 216 -167q16 -39 16 -76v-4q0 -66 -58 -121h-8q-7 0 -15 23q27 114 27 140q0 75 -78 110l-50 8q-168 0 -266 -182q-23 -57 -23 -88q0 -104 143 -121l266 -38q162 -36 208 -72q120 -94 120 -178q0 -155 -359 -220l-112 -8h-31q-245 0 -343 152l-8 30l4 4h4
q8 0 61 -57q79 -49 236 -49q302 0 444 151q19 26 19 50v11q0 77 -235 110q-193 33 -313 65q-197 84 -197 227q11 97 89 190q113 110 243 110z" />
    <glyph glyph-name="t" unicode="t" horiz-adv-x="367" 
d="M343 2532l8 8h8q47 -18 88 -140l20 -120q0 -525 -124 -1100q179 34 424 44q110 0 144 -40q16 -16 16 -32l-4 -4v-4l-24 4q-446 -44 -572 -72q-116 -603 -116 -784v-88q0 -134 68 -196l16 -32v-4l-8 -8q-51 0 -116 68q-68 77 -68 264q0 198 112 768l-116 -8q-77 0 -108 64
q0 24 124 24l116 20q144 729 144 1124v8q0 208 -28 208l-4 4v24z" />
    <glyph glyph-name="u" unicode="u" horiz-adv-x="928" 
d="M246 928l16 1q38 -13 40 -38v-4q-74 -180 -89 -263q-15 -92 -32 -236q-24 -177 88 -279q113 -102 252 174q81 133 130 263q86 169 80 280q26 110 43 111q51 -1 56 -81l-3 -152q-34 -403 1 -521l33 -131q8 -90 -53 -96l-16 -1q-63 58 -92 390h-4q-14 -42 -114 -167
q-149 -188 -314 -197q-47 -13 -85 26.5t-68 131.5q-24 141 -27 296q13 229 67 361q52 129 91 132z" />
    <glyph glyph-name="v" unicode="v" horiz-adv-x="829" 
d="M329 1097l40 8q80 -30 80 -120q0 -76 -104 -380q-72 -257 -72 -368q11 -136 36 -176h4q67 1 216 260q61 75 160 328q76 210 76 276v16l8 8q17 0 28 -56v-56q0 -293 -192 -612q-139 -232 -248 -232q-99 0 -160 100q-28 46 -28 188q0 193 180 636q24 56 36 116h-4
q-90 -9 -304 -180q-40 -46 -68 -60l-16 16v8q61 154 332 280z" />
    <glyph glyph-name="w" unicode="w" horiz-adv-x="1313" 
d="M274 1064l10 1q77 8 157 -63q33 -39 43 -105q17 -110 -38 -584q-2 -156 8 -216l8 -47q3 -15 7 -22.5t8 -6.5q71 37 121 189q28 40 56 144l10 1q73 7 115 -33l1 -4q-18 -151 3 -281l8 -52q3 -21 29 -53q222 154 311 640q38 262 16 395l-6 35l9 9q36 3 75 -45l25 -154
q48 -302 -120 -691q-131 -225 -265 -237q-134 -14 -190 108l-12 42q-73 -71 -119 -76l-10 -1q-182 3 -202 120l-9 56q-23 146 52 629q11 123 0 195l-19 54l-11 -1q-141 -13 -188 -132q-56 -110 -50 -147l3 -17q33 3 44 -14v-4l-13 -14q-95 8 -105 68q6 169 83 235
q86 73 155 79z" />
    <glyph glyph-name="x" unicode="x" horiz-adv-x="1312" 
d="M1306 993l-294 -180q-188 -124 -392 -380q69 -205 232 -380q52 -36 96 -36q45 0 80 16q25 0 48 -32v-4q-32 -48 -80 -48q-127 0 -304 196q-128 185 -128 216h-4q-41 -70 -188 -220q-124 -127 -280 -148h-4q-180 13 -180 36v4l8 8h4q200 17 200 40q168 89 380 388l12 12
q-88 237 -212 368l-16 4h-8l-76 -16l-20 20q20 56 64 56q106 0 240 -204q66 -109 80 -152h4q219 245 316 300q163 132 336 176q98 -9 98 -27q0 -6 -12 -13z" />
    <glyph glyph-name="y" unicode="y" horiz-adv-x="822" 
d="M602 900h4q96 -19 96 -92q0 -226 -52 -428l4 -152l-4 -72l4 -104l-4 -392v-4q0 -455 -84 -596q-94 -253 -188 -288q-67 -40 -164 -40q-220 0 -700 232q-240 115 -284 272l-12 56q15 99 124 124l76 8h24q186 0 464 -108l8 -12l-4 -4q-298 84 -440 84q-140 0 -164 -88
q0 -105 136 -180q202 -189 404 -244q174 -64 324 -64q196 0 292 196q72 313 72 520q7 0 24 644v4h-4q-92 -152 -240 -152q-131 0 -196 176q-20 75 -20 136q0 236 114 550l4 4h4q28 -16 28 -56q-78 -321 -78 -486v-48q0 -157 56 -192l40 -8q91 0 196 144q112 175 112 384
q8 75 8 180v32q3 64 20 64z" />
    <glyph glyph-name="z" unicode="z" horiz-adv-x="1031" 
d="M830 902l29 4q157 0 157 -71l4 -33v-7q0 -83 -280 -216l-104 -70q54 -13 54 -30v-11q0 -59 -90 -59l-107 7q-139 -88 -316 -252l-68 -86v-7l517 78l71 3h22q164 0 244 -77l7 -30v-4l-7 -7q-71 18 -165 18q-135 0 -596 -74h-50q-98 0 -129 111v19q3 85 283 308
q-71 9 -71 26q0 50 75 63q165 6 165 30q225 145 459 271v3l-470 15q-90 0 -287 -29l-14 14v12q59 41 204 66q166 15 463 15z" />
    <glyph glyph-name="braceleft" unicode="{" horiz-adv-x="1299" 
 />
    <glyph glyph-name="bar" unicode="|" horiz-adv-x="329" 
d="M177 1943h4q80 -23 80 -128q-77 -1487 -112 -1796l-4 -4q-11 -44 -16 -44q-64 0 -64 64q-7 0 -8 88v4l48 824q40 793 68 988z" />
    <glyph glyph-name="braceright" unicode="}" 
 />
    <glyph glyph-name="asciitilde" unicode="~" 
d="M174 518h16q101 0 360 -160q56 -24 72 -24h24q100 0 228 144q14 36 40 36q72 -14 72 -52q0 -70 -196 -172q-50 -12 -112 -12q-97 0 -312 128q-107 64 -148 64q-65 0 -156 -148h-12q-32 3 -32 28q0 69 88 148q32 20 68 20z" />
    <glyph glyph-name="exclamdown" unicode="&#xa1;" horiz-adv-x="521" 
d="M298 -808l-11 -2q-78 -12 -153 98q-21 33 -26 56q-17 104 144 578q113 385 86 552q-6 40 -20 58t-36 14q-35 17 -36 23v4l6 9q171 3 193 -139q35 -225 -202 -927q-49 -175 -41 -226l1 -8q9 -56 81 -51l31 12l14 -13l1 -8q-11 -26 -32 -30zM366 753q-101 0 -172 116l-4 24
q14 140 120 140q89 0 132 -100q16 -36 16 -68q-10 -112 -92 -112zM374 865v40q-15 68 -28 68q-68 -38 -68 -108v-12q0 -28 40 -44q56 17 56 56z" />
    <glyph glyph-name="cent" unicode="&#xa2;" 
d="M504 923q247 0 298 -182v-8l-7 -8h-3q-5 0 -40 62q-55 54 -175 54h-17q-176 0 -361 -209q-96 -134 -96 -283q30 -183 59 -183q109 -112 285 -112q164 0 340 98q33 -16 33 -46v-4q0 -87 -224 -122l-92 -8q-275 0 -451 272q-33 106 -33 143v16q0 261 278 458q113 62 206 62
zM875 1685q29 2 37 -21q-6 -92 -66 -262q-123 -325 -297 -739q-185 -534 -279 -837q-11 -15 -62 -168l-27 -44q-46 5 -53 19q-32 87 49 274q165 537 328 958q65 144 307 758q33 52 63 62z" />
    <glyph glyph-name="sterling" unicode="&#xa3;" horiz-adv-x="1542" 
d="M594 1820h40q154 0 220 -144l4 -44q0 -23 -28 -48h-8q-16 7 -16 20l8 56q0 78 -120 92h-24q-245 0 -436 -188q-116 -139 -116 -276v-40q0 -134 148 -364q100 -117 136 -176q155 28 368 28h72q144 0 144 -44v-24q0 -36 -260 -36l-264 -16l36 -76q29 -275 -128 -404
q201 -49 492 -64l476 12l68 -4q79 7 112 20l4 -4v-4q0 -50 -72 -60q-249 -68 -512 -68h-96q-175 0 -556 84l-156 12q-40 0 -112 -24q-12 4 -12 24v4q0 59 184 84l20 -4h40q27 0 136 148q43 79 36 236v4l-28 80h-112q-72 0 -72 56q0 12 136 28v4l-180 244q-140 233 -140 352
v8q0 225 196 388q181 128 372 128z" />
    <glyph glyph-name="currency" unicode="&#xa4;" horiz-adv-x="1533" 
d="M722 1044q72 -26 72 -60q-49 -136 -68 -136q-72 32 -72 84q37 112 68 112zM366 988l8 8q40 0 116 -172l4 -20l-12 -4q-96 55 -96 128l-20 56v4zM1102 908h12q104 -27 104 -80l-4 -4h-20q-90 0 -224 -88l-28 -4q-48 27 -48 56q0 36 80 80q67 40 128 40zM678 772
q54 0 128 -80q94 -46 152 -172q16 -48 16 -72q0 -104 -208 -200l-80 -12h-28q-212 27 -212 184v40q0 138 156 280q44 32 76 32zM546 392v-4q0 -92 52 -92q135 0 260 152q12 31 12 56q-3 60 -40 116l-36 20l-92 36h-8q-148 -118 -148 -284zM58 640l8 8q235 -88 268 -136v-8
q0 -8 -12 -8q-264 74 -264 140v4zM1130 596q93 0 184 -100v-4l-8 -8q-12 0 -84 32q-140 0 -172 36l-12 16v8q12 20 92 20zM202 280h16q21 0 36 -24v-12q0 -20 -156 -80h-8q-56 17 -56 52q0 30 168 64zM954 240l8 8q71 0 196 -176v-8q0 -8 -28 -12q-75 0 -136 124l-40 44v20z
M734 92h16q46 0 84 -140l4 -72q-8 -56 -20 -56h-28q-60 8 -60 72l-16 160q0 25 20 36zM434 64l28 8q24 -14 24 -44q-51 -128 -160 -180h-4q-45 22 -56 48v4q56 81 168 164z" />
    <glyph glyph-name="yen" unicode="&#xa5;" horiz-adv-x="984" 
d="M212 1663h4q52 -1 172 -296q18 -92 112 -244q205 291 260 404q0 16 32 56q32 0 44 -44q0 -137 -192 -396q-112 -181 -112 -196v-4l-12 -232q420 -72 420 -156l-4 -4h-4q-270 59 -416 76l-4 -100v-40h4q308 -17 308 -100v-8q0 -32 -16 -36h-28q-177 33 -268 40v-156
l12 -340v-16l4 -60l-36 -8q-52 0 -52 64q-33 17 -44 452v64h-64l-128 -4l-8 -8h-4q-48 5 -48 44v8q0 31 256 64v16l4 128h-92q-112 0 -124 44v4q13 25 220 36h4l16 356h4q-105 193 -224 588z" />
    <glyph glyph-name="brokenbar" unicode="&#xa6;" horiz-adv-x="329" 
d="M267 1916h4q80 -9 80 -55q-77 -639 -112 -772l-4 -2q-10 -18 -16 -18q-64 0 -64 27q-6 0 -8 38v2l48 354q40 340 68 425zM75 501h4q80 -9 80 -55q-77 -639 -112 -772l-4 -2q-10 -18 -16 -18q-64 0 -64 27q-6 0 -8 38v2l48 354q40 340 68 425z" />
    <glyph glyph-name="section" unicode="&#xa7;" 
d="M447 1806q103 0 212 -76q16 -23 16 -36l-8 -8q-70 44 -164 44q-247 0 -404 -144q-32 -52 -32 -80q0 -106 396 -232q412 -157 412 -352v-12q0 -99 -116 -128q-87 -24 -116 -24q-28 28 -28 44q180 66 180 176q0 80 -156 160q-169 -17 -296 -64q-124 -67 -124 -152v-4
q0 -94 312 -272q288 -192 384 -428l8 -60v-8q0 -201 -228 -252l-44 -4h-12q-166 0 -220 48l-12 40l8 8l24 -4q323 0 404 132q20 51 20 80v4q0 106 -236 312q-61 48 -292 196q-146 104 -188 244l-12 52q0 78 152 152q96 36 204 36v4q-311 97 -456 244q-56 73 -56 128v12
q0 120 252 200q48 16 216 24z" />
    <glyph glyph-name="dieresis" unicode="&#xa8;" horiz-adv-x="1024" 
d="M183 1416h20q64 -7 104 -28q64 -52 64 -96q0 -80 -116 -124h-20q-75 0 -140 80l-4 24v16q0 65 92 128zM567 1392h16q94 -22 164 -112q24 -36 24 -60q0 -52 -136 -92l-20 -4q-156 22 -156 104v12q0 52 64 128q25 24 44 24zM195 1260v-12h4q68 42 68 80v4q-16 0 -16 28
q-56 -48 -56 -100zM623 1324q-50 -75 -60 -124h4q100 34 100 72q-12 52 -44 52z" />
    <glyph glyph-name="copyright" unicode="&#xa9;" horiz-adv-x="1476" 
d="M1022 1100q148 0 300 -176q52 -64 52 -184q0 -159 -168 -372q-128 -203 -128 -292q0 -30 12 -68l-12 -8q-44 0 -92 84q-9 8 -24 60q-26 42 -192 92q-120 34 -312 76q-360 122 -360 340v36q0 89 96 200q147 120 296 120h32q121 0 216 -88q38 99 140 148q62 32 144 32z
M754 836l-24 -20q-17 0 -32 84q-28 40 -112 40q-232 0 -356 -196q-28 -66 -28 -100v-20q0 -219 296 -264q327 -67 436 -136l56 -40q0 63 236 416q84 153 84 236q0 97 -208 176l-48 4h-36q-141 0 -264 -180zM722 704h8q116 -20 116 -72l-12 -12q-13 1 -36 32h-20
q-83 0 -128 -108q-8 -18 -8 -44v-32q23 -68 64 -68q47 0 84 20q25 0 52 -24v-8q-25 -40 -88 -40q-158 0 -216 160v24q0 147 184 172z" />
    <glyph glyph-name="ordfeminine" unicode="&#xaa;" horiz-adv-x="660" 
d="M317 1821q110 11 194 -102l1 -2q32 43 68 120l7 5l8 1q14 2 35 -50l-31 -73q-46 -136 -39 -226q8 -89 83 -196q-77 -54 -109 20q-31 72 -43 156l-4 41l2 2v3l-5 -1q-139 -226 -264 -238l-16 -2q-84 -8 -155 80q-19 34 -24 70l-3 19q-12 105 108 266q92 98 187 107z
M90 1416l2 -17q8 -71 60 -81l18 1q128 13 333 378q-21 40 -64 56q-38 21 -87 16q-149 -14 -245 -231q-22 -77 -17 -122zM134 1716v4q6 81 42 87q512 1 621 -18l2 -4q15 -7 15 -13q1 -64 -21 -68q0 -6 -30 -12h-1l-285 4q-274 0 -342 17z" />
    <glyph glyph-name="guillemotleft" unicode="&#xab;" horiz-adv-x="944" 
d="M721 858l28 28q19 0 38 -61v-10q0 -54 -281 -243q-99 -52 -318 -262v-4q244 -187 346 -225l14 -19l-9 -9h-10q-144 18 -416 253q-28 37 -28 56v23q89 103 257 225zM875 624h10q37 -19 37 -47v-9q-12 -19 -220 -169q-145 -136 -145 -173v-5q185 -56 206 -93v-5l-9 -9h-10
q-313 73 -313 154q43 140 328 309q80 47 116 47z" />
    <glyph glyph-name="logicalnot" unicode="&#xac;" 
d="M36 739l8 8q151 -40 296 -40l32 -4q124 0 492 28q100 -24 100 -64q-64 0 -64 -72q-22 -141 -40 -344l4 -24l-16 -8q-76 0 -76 80q-5 0 -8 32q12 187 32 328l-352 -8q-370 17 -408 84v4z" />
    <glyph glyph-name="registered" unicode="&#xae;" horiz-adv-x="1674" 
d="M1214 1139q175 0 312 -104q132 -91 132 -292q0 -239 -196 -416q-198 -205 -240 -320q-44 -114 -44 -216v-12l-8 -8h-80q-12 0 -12 72l8 108q-10 67 -84 148q-70 52 -404 128q-552 162 -552 408v8q0 203 228 372q172 120 316 120q160 0 324 -128l32 -36h4q37 95 112 132
q59 24 152 36zM150 611v-16q0 -240 644 -356q216 -56 320 -188l4 -4q38 117 220 316q276 269 276 388v4q0 200 -308 280l-56 4q-182 0 -248 -116q-16 -19 -16 -40l8 -24l-4 -4h-12q-20 8 -68 100q-93 104 -260 104q-189 0 -392 -204q-108 -138 -108 -244zM954 771h16
q120 0 172 -132v-12q0 -81 -216 -208v-8h-4q0 -18 112 -124l88 -104v-4l-8 -8h-4q-30 0 -140 108l-100 92l-20 -88l4 -28l-12 -8h-4q-48 0 -84 52v28q0 18 112 348q-17 0 -24 16v12q0 68 112 68zM914 699v-4l4 -24v-36l-12 -100q148 96 148 148q-57 16 -140 16z" />
    <glyph glyph-name="overscore" unicode="&#xaf;" horiz-adv-x="670" 
 />
    <glyph glyph-name="degree" unicode="&#xb0;" horiz-adv-x="409" 
d="M135 1674l68 16q75 0 132 -64q11 -29 16 -76q0 -111 -80 -164q-26 -12 -56 -12h-16q-107 0 -152 96l-8 48q0 88 96 156zM211 1622q-15 -28 -40 -28q-32 -53 -32 -96v-4q0 -42 36 -72q72 32 72 160q-3 40 -36 40z" />
    <glyph glyph-name="plusminus" unicode="&#xb1;" 
d="M487 900h4q80 -8 80 -44q-77 -515 -112 -623l-4 -2q-11 -15 -16 -15q-64 0 -64 22q-7 0 -8 31v1l48 286q40 275 68 343zM102 505l1 -4l2 -4q69 -19 349 -20l289 -7h2q10 2 16.5 4t9.5 4t3 4q22 3 13 66q-2 7 -18 14l-1 4q-114 20 -633 24q-36 -5 -33 -85zM90 480v4
q7 82 52 87q621 1 754 -18l2 -4q19 -7 19 -13q1 -63 -25 -68q0 -6 -37 -12h-2l-346 4q-333 0 -415 17z" />
    <glyph glyph-name="uni00B2" unicode="&#xb2;" horiz-adv-x="795" 
d="M614 1697q108 0 180 -156l16 -92q0 -366 -492 -1164l-144 -208l80 4h8q236 0 288 -72l4 -20l-8 -8q-134 24 -212 24q-145 0 -252 -56h-4q-84 37 -84 72l144 204q280 415 464 836q124 297 124 476q0 64 -44 64h-24q-117 0 -304 -180q-82 -89 -136 -196h-4q-32 0 -40 44
q0 114 184 304q164 124 256 124z" />
    <glyph glyph-name="uni00B3" unicode="&#xb3;" 
 />
    <glyph glyph-name="acute" unicode="&#xb4;" horiz-adv-x="806" 
d="M632 1639l68 40h8q36 -29 36 -52v-4q-22 -60 -200 -208q-314 -268 -416 -268h-28q-48 0 -72 32v12l172 100q231 179 432 348z" />
    <glyph glyph-name="mu" unicode="&#xb5;" horiz-adv-x="853" 
d="M308 1183h4q72 0 72 -204q0 -93 -60 -364q50 -36 88 -48q63 0 168 124q64 88 64 216l28 252h12q64 -37 64 -176l-4 -120l4 -68q-12 -55 -12 -120v-108l16 -164l-4 -4h-20q-88 0 -100 128v52h-4q-73 -64 -144 -64q-85 0 -164 52h-4v-4q-88 -488 -88 -640l-12 -8
q-74 0 -84 88l-4 60q43 371 108 664q76 311 76 412l-4 40z" />
    <glyph glyph-name="paragraph" unicode="&#xb6;" horiz-adv-x="1024" 
d="M758 1543l56 -16l20 -48l-16 -64v-80l4 -180q-28 -367 -48 -1152l-20 -108h-12q-38 0 -60 28v4q-12 130 -12 232q0 268 52 956q12 224 28 356h-32l-68 -4q5 -124 16 -192l-4 -32q-17 -918 -48 -1048q-34 -184 -72 -184l-16 -20h-4l-16 8l4 20l-16 40q56 546 56 772v8
l4 48q-94 -24 -156 -24h-48q-105 0 -224 80q-100 145 -26 312q76 168 310 256q113 36 200 36h8z" />
    <glyph glyph-name="middot" unicode="&#xb7;" horiz-adv-x="508" 
 />
    <glyph glyph-name="middot" unicode="&#x2219;" horiz-adv-x="508" 
 />
    <glyph glyph-name="cedilla" unicode="&#xb8;" horiz-adv-x="1024" 
d="M328 41h5q17 -14 17 -36v-43l-8 -95q58 39 115 39h5q91 0 138 -137v-17q0 -118 -191 -348q-173 -224 -205 -353q-6 0 -8 -14q-39 11 -39 22v12l2 11q-38 301 -126 449q-39 87 -39 140v5q0 139 118 191q33 11 50 11h14q42 0 93 -39q27 118 59 202zM297 -333q-58 28 -58 60
l10 64q-11 15 -41 15q-44 -6 -100 -77q-18 -41 -18 -82v-18q0 -47 77 -204q18 -32 48 -143h3q50 88 232 319q76 109 76 186q-1 28 -43 28q-82 0 -158 -79q0 -33 -20 -53q-3 -16 -8 -16z" />
    <glyph glyph-name="uni00B9" unicode="&#xb9;" horiz-adv-x="466" 
d="M313 1586l8 8h12q39 -19 68 -64v-20q-56 -183 -132 -808q-28 -264 -28 -424v-244q-3 -40 -24 -40q-69 0 -84 112v92q0 398 84 948q-63 -63 -108 -64q-52 16 -52 40q70 50 116 164q109 212 140 300z" />
    <glyph glyph-name="ordmasculine" unicode="&#xba;" horiz-adv-x="718" 
d="M260 1651l68 16q75 0 132 -64q11 -29 16 -76q0 -111 -80 -164q-26 -12 -56 -12h-16q-107 0 -152 96l-8 48q0 89 96 156zM336 1599q-15 -28 -40 -28q-32 -53 -32 -96v-4q0 -42 36 -72q72 31 72 160q-3 40 -36 40z" />
    <glyph glyph-name="guillemotright" unicode="&#xbb;" horiz-adv-x="944" 
d="M369 793q106 0 356 -187q193 -121 219 -155v-9q0 -76 -159 -126q-123 -60 -243 -164h-14l-5 5v4q50 94 197 192q83 44 84 52q-164 114 -327 257q-121 77 -178 98v9q0 20 70 24zM88 760q39 0 267 -150l164 -88l18 -24v-14q0 -81 -308 -257q-149 -103 -178 -103l-5 14
q20 45 192 164q26 8 206 135q-158 78 -346 239q-60 30 -75 51q19 33 65 33z" />
    <glyph glyph-name="onequarter" unicode="&#xbc;" horiz-adv-x="1708" 
 />
    <glyph glyph-name="onehalf" unicode="&#xbd;" horiz-adv-x="1898" 
d="M368 1966l8 8h12q39 -19 68 -64v-20q-56 -183 -132 -808q-28 -264 -28 -424v-244q-3 -40 -24 -40q-69 0 -84 112v92q0 398 84 948q-63 -63 -108 -64q-52 16 -52 40q70 50 116 164q109 212 140 300zM1005 1804q29 2 37 -21q-11 -95 -76 -260q-141 -337 -323 -728
q-195 -507 -307 -827q-11 -14 -68 -166l-28 -42q-45 5 -53 20q-29 89 59 272q190 549 361 946q75 154 333 747q33 48 65 59zM1307 1337q108 0 180 -156l16 -92q0 -366 -492 -1164l-144 -208l80 4h8q235 0 288 -72l4 -20l-8 -8q-133 24 -212 24q-145 0 -252 -56h-4
q-84 37 -84 72l144 204q280 415 464 836q124 297 124 476q0 64 -44 64h-24q-117 0 -304 -180q-82 -89 -136 -196h-4q-32 0 -40 44q0 114 184 304q164 124 256 124z" />
    <glyph glyph-name="threequarters" unicode="&#xbe;" horiz-adv-x="1708" 
 />
    <glyph glyph-name="questiondown" unicode="&#xbf;" horiz-adv-x="647" 
d="M78 -1029l-70 -17q-94 -16 -234 36q-139 81 -162 203l-2 16q-22 122 161 349q175 243 338 438q152 188 195 298q51 98 40 162q-6 34 -86 49q-28 21 -30 32l4 4l4 1q120 21 197 -107l4 -20q33 -186 -319 -588q-274 -329 -416 -545q-38 -80 -30 -127q57 -79 197 -103
q41 -13 90 -5l63 11q315 55 617 300q94 93 87 133l-6 32l3 4v4q30 -5 43 -61q24 -136 -332 -351q-227 -126 -356 -148zM322 720q-31 -6 -104 38q-74 30 -81 67l-1 4q-11 66 182 191l43 11q70 13 134 -49l12 -22l2 -8q-9 -92 -92 -171q-68 -52 -95 -61zM250 833l61 -26
q114 67 85 141l-8 -1q-122 -23 -138 -114z" />
    <glyph glyph-name="Agrave" unicode="&#xc0;" horiz-adv-x="854" 
d="M513 1883l16 8q56 -20 56 -112q12 -542 40 -724q96 -801 204 -1156q50 -180 124 -340q150 -272 388 -272h16q318 0 464 272q56 126 56 196q0 138 -64 196v4h-28q-91 0 -184 -164q-16 -52 -16 -84q0 -21 36 -52l-4 -4h-12q-112 43 -112 124v8q0 136 168 232l64 12h4
q117 0 216 -152q32 -79 32 -176v-12q0 -120 -124 -292q-181 -176 -444 -176q-163 0 -344 120q-113 86 -168 172q-77 104 -164 392q-47 140 -100 424l-12 -4l-92 -4l-32 4l-240 -8q-94 -316 -164 -316q-56 20 -56 40q130 313 264 872l120 660q35 160 92 312zM497 1399h-4
q-89 -592 -208 -988l-4 -12q134 28 336 28q-120 798 -120 972zM330 2526l12 8q80 0 156 -180q68 -117 168 -204q137 -92 224 -92q0 -8 40 -8l8 -12v-4q0 -15 -56 -32h-60q-156 0 -328 208q-134 186 -164 316z" />
    <glyph glyph-name="Aacute" unicode="&#xc1;" horiz-adv-x="854" 
d="M513 1883l16 8q56 -20 56 -112q12 -542 40 -724q96 -801 204 -1156q50 -180 124 -340q150 -272 388 -272h16q318 0 464 272q56 126 56 196q0 138 -64 196v4h-28q-91 0 -184 -164q-16 -52 -16 -84q0 -21 36 -52l-4 -4h-12q-112 43 -112 124v8q0 136 168 232l64 12h4
q117 0 216 -152q32 -79 32 -176v-12q0 -120 -124 -292q-181 -176 -444 -176q-163 0 -344 120q-113 86 -168 172q-77 104 -164 392q-47 140 -100 424l-12 -4l-92 -4l-32 4l-240 -8q-94 -316 -164 -316q-56 20 -56 40q130 313 264 872l120 660q35 160 92 312zM497 1399h-4
q-89 -592 -208 -988l-4 -12q134 28 336 28q-120 798 -120 972zM941 2483l68 40h8q36 -29 36 -52v-4q-22 -60 -200 -208q-314 -268 -416 -268h-28q-48 0 -72 32v12l172 100q231 179 432 348z" />
    <glyph glyph-name="Acircumflex" unicode="&#xc2;" horiz-adv-x="854" 
d="M513 1883l16 8q56 -20 56 -112q12 -542 40 -724q96 -801 204 -1156q50 -180 124 -340q150 -272 388 -272h16q318 0 464 272q56 126 56 196q0 138 -64 196v4h-28q-91 0 -184 -164q-16 -52 -16 -84q0 -21 36 -52l-4 -4h-12q-112 43 -112 124v8q0 136 168 232l64 12h4
q117 0 216 -152q32 -79 32 -176v-12q0 -120 -124 -292q-181 -176 -444 -176q-163 0 -344 120q-113 86 -168 172q-77 104 -164 392q-47 140 -100 424l-12 -4l-92 -4l-32 4l-240 -8q-94 -316 -164 -316q-56 20 -56 40q130 313 264 872l120 660q35 160 92 312zM497 1399h-4
q-89 -592 -208 -988l-4 -12q134 28 336 28q-120 798 -120 972zM603 2523q43 0 83 -55l-11 -127q0 -281 291 -564l101 -113q21 -27 21 -40l-3 -14l7 -8l-4 -3v-4l-82 51q-273 290 -327 411q-80 153 -86 237q-27 -30 -159 -233q-121 -164 -165 -211q-125 -164 -284 -164l-14 7
q0 28 75 73q165 153 252 291q94 116 262 390q34 72 43 76z" />
    <glyph glyph-name="Atilde" unicode="&#xc3;" horiz-adv-x="854" 
d="M513 1883l16 8q56 -20 56 -112q12 -542 40 -724q96 -801 204 -1156q50 -180 124 -340q150 -272 388 -272h16q318 0 464 272q56 126 56 196q0 138 -64 196v4h-28q-91 0 -184 -164q-16 -52 -16 -84q0 -21 36 -52l-4 -4h-12q-112 43 -112 124v8q0 136 168 232l64 12h4
q117 0 216 -152q32 -79 32 -176v-12q0 -120 -124 -292q-181 -176 -444 -176q-163 0 -344 120q-113 86 -168 172q-77 104 -164 392q-47 140 -100 424l-12 -4l-92 -4l-32 4l-240 -8q-94 -316 -164 -316q-56 20 -56 40q130 313 264 872l120 660q35 160 92 312zM497 1399h-4
q-89 -592 -208 -988l-4 -12q134 28 336 28q-120 798 -120 972zM253 2340h16q101 0 360 -160q55 -24 72 -24h24q101 0 228 144q13 36 40 36q72 -14 72 -52q0 -70 -196 -172q-49 -12 -112 -12q-97 0 -312 128q-107 64 -148 64q-65 0 -156 -148h-12q-32 3 -32 28q0 69 88 148
q32 20 68 20z" />
    <glyph glyph-name="Adieresis" unicode="&#xc4;" horiz-adv-x="854" 
d="M513 1883l16 8q56 -20 56 -112q12 -542 40 -724q96 -801 204 -1156q50 -180 124 -340q150 -272 388 -272h16q318 0 464 272q56 126 56 196q0 138 -64 196v4h-28q-91 0 -184 -164q-16 -52 -16 -84q0 -21 36 -52l-4 -4h-12q-112 43 -112 124v8q0 136 168 232l64 12h4
q117 0 216 -152q32 -79 32 -176v-12q0 -120 -124 -292q-181 -176 -444 -176q-163 0 -344 120q-113 86 -168 172q-77 104 -164 392q-47 140 -100 424l-12 -4l-92 -4l-32 4l-240 -8q-94 -316 -164 -316q-56 20 -56 40q130 313 264 872l120 660q35 160 92 312zM497 1399h-4
q-89 -592 -208 -988l-4 -12q134 28 336 28q-120 798 -120 972zM350 2363h20q64 -7 104 -28q64 -52 64 -96q0 -80 -116 -124h-20q-75 0 -140 80l-4 24v16q0 65 92 128zM734 2339h16q94 -22 164 -112q24 -36 24 -60q0 -52 -136 -92l-20 -4q-156 23 -156 104v12q0 52 64 128
q26 24 44 24zM362 2207v-12h4q68 42 68 80v4q-16 0 -16 28q-56 -48 -56 -100zM790 2271q-50 -75 -60 -124h4q100 34 100 72q-12 52 -44 52z" />
    <glyph glyph-name="Aring" unicode="&#xc5;" horiz-adv-x="854" 
d="M513 1883l16 8q56 -20 56 -112q12 -542 40 -724q96 -801 204 -1156q50 -180 124 -340q150 -272 388 -272h16q318 0 464 272q56 126 56 196q0 138 -64 196v4h-28q-91 0 -184 -164q-16 -52 -16 -84q0 -21 36 -52l-4 -4h-12q-112 43 -112 124v8q0 136 168 232l64 12h4
q117 0 216 -152q32 -79 32 -176v-12q0 -120 -124 -292q-181 -176 -444 -176q-163 0 -344 120q-113 86 -168 172q-77 104 -164 392q-47 140 -100 424l-12 -4l-92 -4l-32 4l-240 -8q-94 -316 -164 -316q-56 20 -56 40q130 313 264 872l120 660q35 160 92 312zM497 1399h-4
q-89 -592 -208 -988l-4 -12q134 28 336 28q-120 798 -120 972zM487 2155l68 16q75 0 132 -64q11 -29 16 -76q0 -111 -80 -164q-25 -12 -56 -12h-16q-107 0 -152 96l-8 48q0 89 96 156zM563 2103q-15 -28 -40 -28q-32 -53 -32 -96v-4q0 -42 36 -72q72 31 72 160q-3 40 -36 40
z" />
    <glyph glyph-name="AE" unicode="&#xc6;" horiz-adv-x="2662" 
d="M513 1883l16 8q56 -20 56 -112q12 -542 40 -724q96 -801 204 -1156q50 -180 124 -340q150 -272 388 -272h16q318 0 464 272q56 126 56 196q0 138 -64 196v4h-28q-91 0 -184 -164q-16 -52 -16 -84q0 -21 36 -52l-4 -4h-12q-112 43 -112 124v8q0 136 168 232l64 12h4
q117 0 216 -152q32 -79 32 -176v-12q0 -120 -124 -292q-181 -176 -444 -176q-163 0 -344 120q-113 86 -168 172q-77 104 -164 392q-47 140 -100 424l-12 -4l-92 -4l-32 4l-240 -8q-94 -316 -164 -316q-56 20 -56 40q130 313 264 872l120 660q35 160 92 312zM497 1399h-4
q-89 -592 -208 -988l-4 -12q134 28 336 28q-120 798 -120 972zM1083 2376q52 0 100 -84q12 -20 12 -52v-28q0 -141 -176 -744h8q177 28 252 28h80q172 0 284 -64q20 -22 20 -32l-4 -4h-4q-135 16 -204 16h-104q-61 0 -300 -32h-44q-11 0 -76 -264q-52 -212 -52 -464
q101 40 152 40h48q96 0 136 -64l-8 -8l-20 4q-69 0 -272 -48h-48q-17 -129 -36 -568q96 -32 176 -32q161 -32 527 40h100q71 0 93 -64q-5 -12 -24 -12h-12q-449 -48 -608 -48h-24q-143 0 -300 37q-28 97 -28 259v4q7 271 32 484l-8 60q8 118 36 296l8 224q0 292 -180 492
q-156 225 -156 344q10 100 88 100q113 0 272 -204l20 -48q9 7 40 124q115 312 204 312zM827 1668q-24 9 -24 16l8 124h4q0 71 -64 192q-77 116 -148 116q-44 -11 -44 -44v-16q0 -144 208 -400q97 -128 116 -252h4q204 713 204 772l8 96q-93 -74 -228 -512q0 -48 -44 -92z
" />
    <glyph glyph-name="Ccedilla" unicode="&#xc7;" horiz-adv-x="1404" 
d="M883 1572h30q228 0 362 -281l15 -76q0 -101 -60 -235h-5q-17 0 -24 51l10 204q0 151 -159 204q-366 66 -615 -266q-249 -331 -249 -585q0 -382 358 -515q282 -95 554 42q94 78 111 105h5q49 -30 49 -56l-5 -5v-5l5 -5v-5q0 -151 -427 -199h-34q-214 0 -462 173
q-268 223 -268 475v92q0 291 357 668q235 219 452 219zM713 41h5q17 -14 17 -36v-43l-8 -95q59 39 115 39h5q91 0 138 -137v-17q0 -118 -191 -348q-173 -224 -205 -353q-6 0 -8 -14q-39 11 -39 22v12l2 11q-38 301 -126 449q-39 87 -39 140v5q0 139 118 191q33 11 50 11h14
q42 0 93 -39q27 118 59 202zM682 -333q-58 28 -58 60l10 64q-10 15 -41 15q-44 -6 -100 -77q-18 -41 -18 -82v-18q0 -47 77 -204q18 -32 48 -143h3q50 88 232 319q76 109 76 186q-1 28 -43 28q-82 0 -158 -79q0 -33 -20 -53q-3 -16 -8 -16z" />
    <glyph glyph-name="Egrave" unicode="&#xc8;" horiz-adv-x="1111" 
d="M418 2462q52 0 100 -84q12 -20 12 -52v-28q0 -141 -176 -744h8q177 28 252 28h80q172 0 284 -64q20 -22 20 -32l-4 -4h-4q-135 16 -204 16h-104q-61 0 -300 -32h-44q-12 0 -76 -264q-52 -212 -52 -464q101 40 152 40h48q96 0 136 -64l-8 -8l-20 4q-70 0 -272 -48h-48
q-17 -129 -36 -568q96 -32 176 -32q161 -32 527 40h100q71 0 93 -64q-4 -12 -24 -12h-12q-448 -48 -608 -48h-24q-143 0 -300 37q-28 97 -28 259v4q7 271 32 484l-8 60q8 118 36 296l8 224q0 292 -180 492q-156 225 -156 344q10 100 88 100q113 0 272 -204l20 -48
q9 7 40 124q116 312 204 312zM162 1754q-24 9 -24 16l8 124h4q0 71 -64 192q-77 116 -148 116q-44 -11 -44 -44v-16q0 -144 208 -400q97 -128 116 -252h4q204 712 204 772l8 96q-93 -74 -228 -512q0 -48 -44 -92zM424 2424l12 8q80 0 156 -180q68 -117 168 -204
q137 -92 224 -92q0 -8 40 -8l8 -12v-4q0 -15 -56 -32h-60q-156 0 -328 208q-134 186 -164 316z" />
    <glyph glyph-name="Eacute" unicode="&#xc9;" horiz-adv-x="1111" 
d="M418 2462q52 0 100 -84q12 -20 12 -52v-28q0 -141 -176 -744h8q177 28 252 28h80q172 0 284 -64q20 -22 20 -32l-4 -4h-4q-135 16 -204 16h-104q-61 0 -300 -32h-44q-12 0 -76 -264q-52 -212 -52 -464q101 40 152 40h48q96 0 136 -64l-8 -8l-20 4q-70 0 -272 -48h-48
q-17 -129 -36 -568q96 -32 176 -32q161 -32 527 40h100q71 0 93 -64q-4 -12 -24 -12h-12q-448 -48 -608 -48h-24q-143 0 -300 37q-28 97 -28 259v4q7 271 32 484l-8 60q8 118 36 296l8 224q0 292 -180 492q-156 225 -156 344q10 100 88 100q113 0 272 -204l20 -48
q9 7 40 124q116 312 204 312zM162 1754q-24 9 -24 16l8 124h4q0 71 -64 192q-77 116 -148 116q-44 -11 -44 -44v-16q0 -144 208 -400q97 -128 116 -252h4q204 712 204 772l8 96q-93 -74 -228 -512q0 -48 -44 -92zM859 1989l68 40h8q36 -29 36 -52v-4q-22 -60 -200 -208
q-314 -268 -416 -268h-28q-48 0 -72 32v12l172 100q231 179 432 348z" />
    <glyph glyph-name="Ecircumflex" unicode="&#xca;" horiz-adv-x="1111" 
d="M418 2462q52 0 100 -84q12 -20 12 -52v-28q0 -141 -176 -744h8q177 28 252 28h80q172 0 284 -64q20 -22 20 -32l-4 -4h-4q-135 16 -204 16h-104q-61 0 -300 -32h-44q-12 0 -76 -264q-52 -212 -52 -464q101 40 152 40h48q96 0 136 -64l-8 -8l-20 4q-70 0 -272 -48h-48
q-17 -129 -36 -568q96 -32 176 -32q161 -32 527 40h100q71 0 93 -64q-4 -12 -24 -12h-12q-448 -48 -608 -48h-24q-143 0 -300 37q-28 97 -28 259v4q7 271 32 484l-8 60q8 118 36 296l8 224q0 292 -180 492q-156 225 -156 344q10 100 88 100q113 0 272 -204l20 -48
q9 7 40 124q116 312 204 312zM162 1754q-24 9 -24 16l8 124h4q0 71 -64 192q-77 116 -148 116q-44 -11 -44 -44v-16q0 -144 208 -400q97 -128 116 -252h4q204 712 204 772l8 96q-93 -74 -228 -512q0 -48 -44 -92zM753 2563q43 0 83 -55l-11 -127q0 -281 291 -564l101 -113
q21 -27 21 -40l-3 -14l7 -8l-4 -3v-4l-82 51q-273 290 -327 411q-80 153 -86 237q-27 -30 -159 -233q-121 -164 -165 -211q-125 -164 -284 -164l-14 7q0 28 75 73q165 153 252 291q94 116 262 390q34 72 43 76z" />
    <glyph glyph-name="Edieresis" unicode="&#xcb;" horiz-adv-x="1111" 
d="M418 2462q52 0 100 -84q12 -20 12 -52v-28q0 -141 -176 -744h8q177 28 252 28h80q172 0 284 -64q20 -22 20 -32l-4 -4h-4q-135 16 -204 16h-104q-61 0 -300 -32h-44q-12 0 -76 -264q-52 -212 -52 -464q101 40 152 40h48q96 0 136 -64l-8 -8l-20 4q-70 0 -272 -48h-48
q-17 -129 -36 -568q96 -32 176 -32q161 -32 527 40h100q71 0 93 -64q-4 -12 -24 -12h-12q-448 -48 -608 -48h-24q-143 0 -300 37q-28 97 -28 259v4q7 271 32 484l-8 60q8 118 36 296l8 224q0 292 -180 492q-156 225 -156 344q10 100 88 100q113 0 272 -204l20 -48
q9 7 40 124q116 312 204 312zM162 1754q-24 9 -24 16l8 124h4q0 71 -64 192q-77 116 -148 116q-44 -11 -44 -44v-16q0 -144 208 -400q97 -128 116 -252h4q204 712 204 772l8 96q-93 -74 -228 -512q0 -48 -44 -92zM467 1983h20q64 -7 104 -28q64 -52 64 -96q0 -80 -116 -124
h-20q-75 0 -140 80l-4 24v16q0 65 92 128zM851 1959h16q94 -22 164 -112q24 -36 24 -60q0 -52 -136 -92l-20 -4q-156 23 -156 104v12q0 52 64 128q25 24 44 24zM479 1827v-12h4q68 42 68 80v4q-16 0 -16 28q-56 -48 -56 -100zM907 1891q-50 -75 -60 -124h4q100 34 100 72
q-12 52 -44 52z" />
    <glyph glyph-name="Igrave" unicode="&#xcc;" horiz-adv-x="657" 
d="M113 2020q137 0 229 -213h4q112 142 315 193q104 0 148 -176v-36q0 -140 -204 -504q-239 -518 -240 -700v-52q-39 -504 -116 -716q-31 -18 -38 -18h-4q-35 0 -48 24v8q10 71 62 402q44 259 44 488q0 319 -304 572l-88 100q-80 119 -80 240q0 155 140 304q91 84 180 84z
M-107 1588q0 -192 192 -340q210 -207 236 -340q6 2 60 152q62 159 308 628q56 114 56 172v12q0 14 -48 20q-186 -12 -327 -185v-12q-9 -130 -90 -215l-16 -4q-16 6 -24 20v4l41 168l12 100q-23 144 -52 144q0 11 -52 20h-36q-117 0 -228 -192q-32 -94 -32 -152zM-87 2499
l12 8q79 0 156 -180q67 -117 168 -204q137 -92 224 -92q0 -8 40 -8l8 -12v-4q0 -15 -56 -32h-60q-156 0 -328 208q-134 186 -164 316z" />
    <glyph glyph-name="Iacute" unicode="&#xcd;" horiz-adv-x="657" 
d="M152 2038q138 0 229 -213h4q112 142 315 193q104 0 148 -176v-36q0 -140 -204 -504q-239 -518 -240 -700v-52q-39 -504 -116 -716q-32 -18 -38 -18h-4q-34 0 -48 24v8q10 71 62 402q44 259 44 488q0 319 -304 572l-88 100q-80 119 -80 240q0 155 140 304q92 84 180 84z
M-68 1606q0 -192 192 -340q210 -207 236 -340q6 2 60 152q62 159 308 628q56 114 56 172v12q0 14 -48 20q-186 -12 -327 -185v-12q-9 -130 -90 -215l-16 -4q-16 6 -24 20v4l41 168l12 100q-22 144 -52 144q0 11 -52 20h-36q-117 0 -228 -192q-32 -94 -32 -152zM904 2461
l68 40h8q36 -29 36 -52v-4q-22 -60 -200 -208q-314 -268 -416 -268h-28q-48 0 -72 32v12l172 100q231 179 432 348z" />
    <glyph glyph-name="Icircumflex" unicode="&#xce;" horiz-adv-x="657" 
d="M140 1832q138 0 229 -213h4q112 142 315 193q104 0 148 -176v-36q0 -140 -204 -504q-239 -518 -240 -700v-52q-39 -504 -116 -716q-32 -18 -38 -18h-4q-34 0 -48 24v8q10 71 62 402q44 259 44 488q0 319 -304 572l-88 100q-80 119 -80 240q0 155 140 304q92 84 180 84z
M-80 1400q0 -192 192 -340q210 -207 236 -340q6 2 60 152q62 159 308 628q56 114 56 172v12q0 14 -48 20q-186 -12 -327 -185v-12q-9 -130 -90 -215l-16 -4q-16 6 -24 20v4l41 168l12 100q-22 144 -52 144q0 11 -52 20h-36q-117 0 -228 -192q-32 -94 -32 -152zM446 2586
q43 0 83 -55l-11 -127q0 -280 291 -564l101 -113q21 -27 21 -40l-3 -14l7 -8l-4 -3v-4l-82 51q-273 289 -327 411q-80 153 -86 237q-27 -30 -159 -233q-121 -164 -165 -211q-125 -164 -284 -164l-14 7q0 28 75 73q165 153 252 291q94 116 262 390q34 72 43 76z" />
    <glyph glyph-name="Idieresis" unicode="&#xcf;" horiz-adv-x="657" 
d="M141 2185q137 0 229 -213h4q112 142 315 193q104 0 148 -176v-36q0 -139 -204 -504q-239 -518 -240 -700v-52q-39 -504 -116 -716q-31 -18 -38 -18h-4q-35 0 -48 24v8q10 71 62 402q44 259 44 488q0 319 -304 572l-88 100q-80 119 -80 240q0 155 140 304q91 84 180 84z
M-79 1753q0 -191 192 -340q210 -207 236 -340q6 2 60 152q62 159 308 628q56 114 56 172v12q0 14 -48 20q-186 -12 -327 -185v-12q-9 -130 -90 -215l-16 -4q-16 6 -24 20v4l41 168l12 100q-23 144 -52 144q0 11 -52 20h-36q-117 0 -228 -192q-32 -94 -32 -152zM154 2493h20
q64 -7 104 -28q64 -52 64 -96q0 -80 -116 -124h-20q-75 0 -140 80l-4 24v16q0 65 92 128zM538 2469h16q94 -22 164 -112q24 -36 24 -60q0 -52 -136 -92l-20 -4q-156 23 -156 104v12q0 52 64 128q26 24 44 24zM166 2337v-12h4q68 42 68 80v4q-16 0 -16 28q-56 -48 -56 -100z
M594 2401q-50 -75 -60 -124h4q100 34 100 72q-12 52 -44 52z" />
    <glyph glyph-name="Eth" unicode="&#xd0;" horiz-adv-x="1518" 
 />
    <glyph glyph-name="Ntilde" unicode="&#xd1;" horiz-adv-x="932" 
d="M819 2005l20 17h8q26 0 32 -80v-29q0 -87 -48 -512q-16 -165 -28 -784q15 -675 32 -675l-4 -71q285 -285 388 -323q452 -247 860 -247q253 0 496 113q132 74 132 172q0 114 -216 164q-47 12 -120 12q-126 0 -244 -29q-40 18 -40 37q133 63 260 63q184 0 372 -142
q84 -79 84 -155v-17q0 -155 -336 -247q-170 -34 -272 -34h-60q-449 0 -972 285q-165 97 -392 323q-245 273 -372 474q-37 64 -84 126q0 -107 -76 -386q-21 -52 -32 -55q-28 0 -28 21l52 407l12 138q-129 190 -244 512q-68 219 -68 314v105q0 113 84 176q20 13 40 13h4
q136 0 228 -239q76 -201 76 -407v-71q0 -166 -32 -411q149 -263 384 -554l24 -25v5q-36 150 -36 373v146q0 1027 116 1497zM31 1414q0 -241 172 -604l48 -113h4q11 87 16 336q0 393 -144 582q-96 -33 -96 -201zM77 2260h16q101 0 360 -160q55 -24 72 -24h24q101 0 228 144
q13 36 40 36q72 -14 72 -52q0 -70 -196 -172q-49 -12 -112 -12q-97 0 -312 128q-107 64 -148 64q-65 0 -156 -148h-12q-32 3 -32 28q0 69 88 148q32 20 68 20z" />
    <glyph glyph-name="Ograve" unicode="&#xd2;" horiz-adv-x="2249" 
d="M584 1348h36q180 0 328 -172l68 -112q254 264 592 264q302 0 488 -252q92 -152 92 -248q0 -299 -448 -588q-251 -170 -440 -344l-68 -64l4 -24l-4 -4l-28 8l-28 -28q-25 0 -44 28l16 64q-219 201 -476 272q-316 134 -432 240q-212 197 -212 412q0 208 180 388
q139 118 204 128q87 32 172 32zM680 1280l-20 -4h-16q-246 0 -440 -272q-64 -118 -64 -216v-24q0 -406 712 -632q186 -77 328 -212q119 139 308 276q279 189 432 332q168 165 168 352v16q0 191 -176 292q-141 56 -228 56h-24q-342 0 -640 -324q-19 -88 -40 -88q-28 7 -28 32
v60l8 64q0 110 -140 252q-69 32 -140 40zM760 2067l12 8q80 0 156 -180q68 -117 168 -204q137 -92 224 -92q0 -8 40 -8l8 -12v-4q0 -15 -56 -32h-60q-156 0 -328 208q-134 186 -164 316z" />
    <glyph glyph-name="Oacute" unicode="&#xd3;" horiz-adv-x="2249" 
d="M584 1348h36q180 0 328 -172l68 -112q254 264 592 264q302 0 488 -252q92 -152 92 -248q0 -299 -448 -588q-251 -170 -440 -344l-68 -64l4 -24l-4 -4l-28 8l-28 -28q-25 0 -44 28l16 64q-219 201 -476 272q-316 134 -432 240q-212 197 -212 412q0 208 180 388
q139 118 204 128q87 32 172 32zM680 1280l-20 -4h-16q-246 0 -440 -272q-64 -118 -64 -216v-24q0 -406 712 -632q186 -77 328 -212q119 139 308 276q279 189 432 332q168 165 168 352v16q0 191 -176 292q-141 56 -228 56h-24q-342 0 -640 -324q-19 -88 -40 -88q-28 7 -28 32
v60l8 64q0 110 -140 252q-69 32 -140 40zM1422 2132l68 40h8q36 -28 36 -52v-4q-22 -60 -200 -208q-314 -268 -416 -268h-28q-48 0 -72 32v12l172 100q231 178 432 348z" />
    <glyph glyph-name="Ocircumflex" unicode="&#xd4;" horiz-adv-x="2249" 
d="M584 1348h36q180 0 328 -172l68 -112q254 264 592 264q302 0 488 -252q92 -152 92 -248q0 -299 -448 -588q-251 -170 -440 -344l-68 -64l4 -24l-4 -4l-28 8l-28 -28q-25 0 -44 28l16 64q-219 201 -476 272q-316 134 -432 240q-212 197 -212 412q0 208 180 388
q139 118 204 128q87 32 172 32zM680 1280l-20 -4h-16q-246 0 -440 -272q-64 -118 -64 -216v-24q0 -406 712 -632q186 -77 328 -212q119 139 308 276q279 189 432 332q168 165 168 352v16q0 191 -176 292q-141 56 -228 56h-24q-342 0 -640 -324q-19 -88 -40 -88q-28 7 -28 32
v60l8 64q0 110 -140 252q-69 32 -140 40zM1169 2473q43 0 83 -55l-11 -127q0 -281 291 -564l101 -113q21 -27 21 -40l-3 -14l7 -8l-4 -3v-4l-82 51q-273 290 -327 411q-80 153 -86 237q-27 -30 -159 -233q-121 -164 -165 -211q-125 -164 -284 -164l-14 7q0 28 75 73
q165 153 252 291q94 116 262 390q34 72 43 76z" />
    <glyph glyph-name="Otilde" unicode="&#xd5;" horiz-adv-x="2249" 
d="M584 1348h36q180 0 328 -172l68 -112q254 264 592 264q302 0 488 -252q92 -152 92 -248q0 -299 -448 -588q-251 -170 -440 -344l-68 -64l4 -24l-4 -4l-28 8l-28 -28q-25 0 -44 28l16 64q-219 201 -476 272q-316 134 -432 240q-212 197 -212 412q0 208 180 388
q139 118 204 128q87 32 172 32zM680 1280l-20 -4h-16q-246 0 -440 -272q-64 -118 -64 -216v-24q0 -406 712 -632q186 -77 328 -212q119 139 308 276q279 189 432 332q168 165 168 352v16q0 191 -176 292q-141 56 -228 56h-24q-342 0 -640 -324q-19 -88 -40 -88q-28 7 -28 32
v60l8 64q0 110 -140 252q-69 32 -140 40zM741 1868h16q101 0 360 -160q55 -24 72 -24h24q101 0 228 144q13 36 40 36q72 -14 72 -52q0 -70 -196 -172q-49 -12 -112 -12q-97 0 -312 128q-107 64 -148 64q-65 0 -156 -148h-12q-32 3 -32 28q0 69 88 148q32 20 68 20z" />
    <glyph glyph-name="Odieresis" unicode="&#xd6;" horiz-adv-x="2249" 
d="M584 1348h36q180 0 328 -172l68 -112q254 264 592 264q302 0 488 -252q92 -152 92 -248q0 -299 -448 -588q-251 -170 -440 -344l-68 -64l4 -24l-4 -4l-28 8l-28 -28q-25 0 -44 28l16 64q-219 201 -476 272q-316 134 -432 240q-212 197 -212 412q0 208 180 388
q139 118 204 128q87 32 172 32zM680 1280l-20 -4h-16q-246 0 -440 -272q-64 -118 -64 -216v-24q0 -406 712 -632q186 -77 328 -212q119 139 308 276q279 189 432 332q168 165 168 352v16q0 191 -176 292q-141 56 -228 56h-24q-342 0 -640 -324q-19 -88 -40 -88q-28 7 -28 32
v60l8 64q0 110 -140 252q-69 32 -140 40zM826 1954h20q64 -7 104 -28q64 -52 64 -96q0 -80 -116 -124h-20q-75 0 -140 80l-4 24v16q0 65 92 128zM1210 1930h16q94 -22 164 -112q24 -36 24 -60q0 -52 -136 -92l-20 -4q-156 22 -156 104v12q0 52 64 128q26 24 44 24zM838 1798
v-12h4q68 42 68 80v4q-16 0 -16 28q-56 -48 -56 -100zM1266 1862q-50 -75 -60 -124h4q100 34 100 72q-12 52 -44 52z" />
    <glyph glyph-name="multiply" unicode="&#xd7;" horiz-adv-x="563" 
d="M73 668l3 3q51 61 71 47q241 -270 279 -341l-1 -4q2 -15 -1 -19q-37 -52 -50 -43q-4 -4 -22 6l-130 154q-131 146 -150 193zM117 331l-3 2q-62 53 -47 72q270 240 341 279l4 -2q14 3 19 0q51 -37 43 -50q4 -4 -6 -22l-1 -1l-154 -130q-145 -130 -192 -149z" />
    <glyph glyph-name="Oslash" unicode="&#xd8;" horiz-adv-x="2249" 
d="M596 1320h36q180 0 328 -172l68 -112q254 264 592 264q302 0 488 -252q92 -152 92 -248q0 -299 -448 -588q-251 -170 -440 -344l-68 -64l4 -24l-4 -4l-28 8l-28 -28q-25 0 -44 28l16 64q-219 201 -476 272q-316 134 -432 240q-212 197 -212 412q0 208 180 388
q139 118 204 128q87 32 172 32zM692 1252l-20 -4h-16q-246 0 -440 -272q-64 -118 -64 -216v-24q0 -406 712 -632q186 -77 328 -212q119 139 308 276q279 189 432 332q168 165 168 352v16q0 191 -176 292q-141 56 -228 56h-24q-342 0 -640 -324q-19 -88 -40 -88q-28 7 -28 32
v60l8 64q0 110 -140 252q-69 32 -140 40zM2017 1679q28 -7 28 -32q-37 -84 -379 -530q-228 -264 -532 -592q-351 -434 -548 -692q-17 -10 -116 -136l-40 -32q-41 20 -44 36q0 92 140 240q352 464 636 788q123 127 775 914q48 36 80 36z" />
    <glyph glyph-name="Ugrave" unicode="&#xd9;" horiz-adv-x="1106" 
d="M1131 1857q41 0 84 -84l8 -40q0 -157 -192 -752q-24 -85 -24 -140l-20 -48q-36 -171 -36 -468l33 -322l-4 -4h-16q-48 0 -65 24q-40 154 -52 290h-4q-152 -320 -320 -320h-44q-256 -4 -363 217t-75 511q13 395 154 820q75 36 87 -24l-51 -172q-72 -309 -72 -620v-32
q-42 -441 202 -631l86 -21q181 0 392 544q16 23 52 296q44 152 44 176q-4 60 -100 244q-55 109 -172 276q-72 119 -72 168v4q0 49 96 68h20q77 0 180 -132l20 -40h8q12 54 156 192q29 20 60 20zM683 1697q0 -54 204 -348q45 -75 84 -168q9 0 76 216q84 291 84 348
q-167 -158 -204 -244q0 -48 -24 -64h-12q-24 13 -24 36v60q-20 190 -104 212h-16q-64 -9 -64 -48zM280 2390l12 8q80 0 156 -180q68 -117 168 -204q137 -92 224 -92q0 -8 40 -8l8 -12v-4q0 -15 -56 -32h-60q-156 0 -328 208q-134 186 -164 316z" />
    <glyph glyph-name="Uacute" unicode="&#xda;" horiz-adv-x="1106" 
d="M1131 1857q41 0 84 -84l8 -40q0 -157 -192 -752q-24 -85 -24 -140l-20 -48q-36 -171 -36 -468l33 -322l-4 -4h-16q-48 0 -65 24q-40 154 -52 290h-4q-152 -320 -320 -320h-44q-256 -4 -363 217t-75 511q13 395 154 820q75 36 87 -24l-51 -172q-72 -309 -72 -620v-32
q-42 -441 202 -631l86 -21q181 0 392 544q16 23 52 296q44 152 44 176q-4 60 -100 244q-55 109 -172 276q-72 119 -72 168v4q0 49 96 68h20q77 0 180 -132l20 -40h8q12 54 156 192q29 20 60 20zM683 1697q0 -54 204 -348q45 -75 84 -168q9 0 76 216q84 291 84 348
q-167 -158 -204 -244q0 -48 -24 -64h-12q-24 13 -24 36v60q-20 190 -104 212h-16q-64 -9 -64 -48zM1040 2506l68 40h8q36 -28 36 -52v-4q-22 -60 -200 -208q-314 -268 -416 -268h-28q-48 0 -72 32v12l172 100q231 178 432 348z" />
    <glyph glyph-name="Ucircumflex" unicode="&#xdb;" horiz-adv-x="1106" 
d="M1131 1857q41 0 84 -84l8 -40q0 -157 -192 -752q-24 -85 -24 -140l-20 -48q-36 -171 -36 -468l33 -322l-4 -4h-16q-48 0 -65 24q-40 154 -52 290h-4q-152 -320 -320 -320h-44q-256 -4 -363 217t-75 511q13 395 154 820q75 36 87 -24l-51 -172q-72 -309 -72 -620v-32
q-42 -441 202 -631l86 -21q181 0 392 544q16 23 52 296q44 152 44 176q-4 60 -100 244q-55 109 -172 276q-72 119 -72 168v4q0 49 96 68h20q77 0 180 -132l20 -40h8q12 54 156 192q29 20 60 20zM683 1697q0 -54 204 -348q45 -75 84 -168q9 0 76 216q84 291 84 348
q-167 -158 -204 -244q0 -48 -24 -64h-12q-24 13 -24 36v60q-20 190 -104 212h-16q-64 -9 -64 -48zM711 2592q43 0 83 -55l-11 -127q0 -280 291 -564l101 -113q21 -27 21 -40l-3 -14l7 -8l-4 -3v-4l-82 51q-273 289 -327 411q-80 153 -86 237q-27 -30 -159 -233
q-121 -164 -165 -211q-125 -164 -284 -164l-14 7q0 28 75 73q165 153 252 291q94 116 262 390q34 72 43 76z" />
    <glyph glyph-name="Udieresis" unicode="&#xdc;" horiz-adv-x="1106" 
d="M1131 1857q41 0 84 -84l8 -40q0 -157 -192 -752q-24 -85 -24 -140l-20 -48q-36 -171 -36 -468l33 -322l-4 -4h-16q-48 0 -65 24q-40 154 -52 290h-4q-152 -320 -320 -320h-44q-256 -4 -363 217t-75 511q13 395 154 820q75 36 87 -24l-51 -172q-72 -309 -72 -620v-32
q-42 -441 202 -631l86 -21q181 0 392 544q16 23 52 296q44 152 44 176q-4 60 -100 244q-55 109 -172 276q-72 119 -72 168v4q0 49 96 68h20q77 0 180 -132l20 -40h8q12 54 156 192q29 20 60 20zM683 1697q0 -54 204 -348q45 -75 84 -168q9 0 76 216q84 291 84 348
q-167 -158 -204 -244q0 -48 -24 -64h-12q-24 13 -24 36v60q-20 190 -104 212h-16q-64 -9 -64 -48zM380 2311h20q64 -7 104 -28q64 -52 64 -96q0 -80 -116 -124h-20q-75 0 -140 80l-4 24v16q0 65 92 128zM764 2287h16q94 -22 164 -112q24 -36 24 -60q0 -52 -136 -92l-20 -4
q-156 22 -156 104v12q0 52 64 128q25 24 44 24zM392 2155v-12h4q68 42 68 80v4q-16 0 -16 28q-56 -48 -56 -100zM820 2219q-50 -75 -60 -124h4q100 34 100 72q-12 52 -44 52z" />
    <glyph glyph-name="Yacute" unicode="&#xdd;" horiz-adv-x="647" 
d="M1175 2354q150 0 208 -196l4 -52v-24q0 -175 -248 -456l-312 -296l-105 -88q-262 -253 -347 -396q-148 -242 -148 -516q0 -111 92 -328q-12 -43 -75 -43h-4q-75 99 -97 184q-20 88 -32 207q0 333 232 652q-99 67 -148 172q-148 246 -336 784l-56 88l8 8h4
q73 -18 156 -164l208 -500q162 -289 188 -356h4q27 58 348 360l4 4h4q0 53 -132 176q-156 167 -156 368v24q12 210 124 252l20 4q85 0 172 -120q112 126 176 156q153 92 244 96zM691 1726q-60 0 -60 96q5 61 64 196v16q0 104 -40 104q-91 0 -120 -204v-36q0 -200 192 -384
l56 -64q352 316 388 400q144 194 144 304v4q0 92 -44 92l-32 4q-164 -14 -356 -180q-127 -146 -180 -312q-1 -36 -12 -36zM738 2563l68 40h8q36 -29 36 -52v-4q-22 -60 -200 -208q-314 -268 -416 -268h-28q-48 0 -72 32v12l172 100q231 179 432 348z" />
    <glyph glyph-name="Thorn" unicode="&#xde;" horiz-adv-x="1120" 
 />
    <glyph glyph-name="germandbls" unicode="&#xdf;" horiz-adv-x="1109" 
d="M644 1724h12q200 0 360 -204q56 -89 56 -204q0 -171 -232 -340q-177 -134 -188 -184q215 -101 284 -264q13 -37 20 -108q0 -157 -180 -340q-188 -136 -308 -136h-52q-58 0 -80 36v4q4 10 108 36q142 57 264 152q148 167 148 288v4q0 195 -188 260q-104 62 -104 140
q27 72 212 204q168 146 168 184q36 51 36 132q0 172 -132 228q-66 28 -144 28q-251 0 -416 -272q-92 -264 -92 -516l8 -392v-16q-12 -384 -76 -384h-4q-20 0 -36 24q24 0 24 180v164l-8 448v80q0 289 108 508q171 260 432 260z" />
    <glyph glyph-name="agrave" unicode="&#xe0;" horiz-adv-x="986" 
d="M463 910q167 18 295 -170l1 -4q51 74 103 200l11 9l12 2q22 2 53 -83l-47 -122q-69 -225 -58 -376q10 -148 125 -327q-119 -92 -166 32q-48 128 -64 261l-7 68l3 4v4l-8 -1q-211 -378 -400 -397l-24 -3q-125 -14 -235 133q-30 59 -36 116l-4 32q-18 176 163 444
q139 163 283 178zM120 235l3 -28q12 -120 90 -136l28 3q193 21 505 629q-32 65 -98 94q-57 34 -132 26q-224 -22 -370 -385q-34 -129 -26 -203zM279 1653l12 8q79 0 156 -180q67 -117 168 -204q137 -92 224 -92q0 -8 40 -8l8 -12v-4q0 -15 -56 -32h-60q-156 0 -328 208
q-134 186 -164 316z" />
    <glyph glyph-name="aacute" unicode="&#xe1;" horiz-adv-x="986" 
d="M463 910q167 18 295 -170l1 -4q51 74 103 200l11 9l12 2q22 2 53 -83l-47 -122q-69 -225 -58 -376q10 -148 125 -327q-119 -92 -166 32q-48 128 -64 261l-7 68l3 4v4l-8 -1q-211 -378 -400 -397l-24 -3q-125 -14 -235 133q-30 59 -36 116l-4 32q-18 176 163 444
q139 163 283 178zM120 235l3 -28q12 -120 90 -136l28 3q193 21 505 629q-32 65 -98 94q-57 34 -132 26q-224 -22 -370 -385q-34 -129 -26 -203zM1040 1724l68 40h8q36 -29 36 -52v-4q-22 -60 -200 -208q-314 -268 -416 -268h-28q-48 0 -72 32v12l172 100q231 178 432 348z
" />
    <glyph glyph-name="acircumflex" unicode="&#xe2;" horiz-adv-x="986" 
d="M463 910q167 18 295 -170l1 -4q51 74 103 200l11 9l12 2q22 2 53 -83l-47 -122q-69 -225 -58 -376q10 -148 125 -327q-119 -92 -166 32q-48 128 -64 261l-7 68l3 4v4l-8 -1q-211 -378 -400 -397l-24 -3q-125 -14 -235 133q-30 59 -36 116l-4 32q-18 176 163 444
q139 163 283 178zM120 235l3 -28q12 -120 90 -136l28 3q193 21 505 629q-32 65 -98 94q-57 34 -132 26q-224 -22 -370 -385q-34 -129 -26 -203zM740 2304q43 0 83 -55l-11 -127q0 -280 291 -564l101 -113q21 -27 21 -40l-3 -14l7 -8l-4 -3v-4l-82 51q-273 289 -327 411
q-80 153 -86 237q-27 -30 -159 -233q-121 -164 -165 -211q-125 -164 -284 -164l-14 7q0 28 75 73q165 153 252 291q94 116 262 390q34 72 43 76z" />
    <glyph glyph-name="atilde" unicode="&#xe3;" horiz-adv-x="986" 
d="M463 910q167 18 295 -170l1 -4q51 74 103 200l11 9l12 2q22 2 53 -83l-47 -122q-69 -225 -58 -376q10 -148 125 -327q-119 -92 -166 32q-48 128 -64 261l-7 68l3 4v4l-8 -1q-211 -378 -400 -397l-24 -3q-125 -14 -235 133q-30 59 -36 116l-4 32q-18 176 163 444
q139 163 283 178zM120 235l3 -28q12 -120 90 -136l28 3q193 21 505 629q-32 65 -98 94q-57 34 -132 26q-224 -22 -370 -385q-34 -129 -26 -203zM301 1552h16q101 0 360 -160q55 -24 72 -24h24q101 0 228 144q13 36 40 36q72 -14 72 -52q0 -70 -196 -172q-50 -12 -112 -12
q-97 0 -312 128q-107 64 -148 64q-65 0 -156 -148h-12q-32 3 -32 28q0 69 88 148q32 20 68 20z" />
    <glyph glyph-name="adieresis" unicode="&#xe4;" horiz-adv-x="986" 
d="M463 910q167 18 295 -170l1 -4q51 74 103 200l11 9l12 2q22 2 53 -83l-47 -122q-69 -225 -58 -376q10 -148 125 -327q-119 -92 -166 32q-48 128 -64 261l-7 68l3 4v4l-8 -1q-211 -378 -400 -397l-24 -3q-125 -14 -235 133q-30 59 -36 116l-4 32q-18 176 163 444
q139 163 283 178zM120 235l3 -28q12 -120 90 -136l28 3q193 21 505 629q-32 65 -98 94q-57 34 -132 26q-224 -22 -370 -385q-34 -129 -26 -203zM420 1478h20q64 -7 104 -28q64 -52 64 -96q0 -80 -116 -124h-20q-75 0 -140 80l-4 24v16q0 65 92 128zM804 1454h16
q94 -22 164 -112q24 -36 24 -60q0 -52 -136 -92l-20 -4q-156 22 -156 104v12q0 52 64 128q26 24 44 24zM432 1322v-12h4q68 42 68 80v4q-16 0 -16 28q-56 -48 -56 -100zM860 1386q-50 -75 -60 -124h4q100 34 100 72q-12 52 -44 52z" />
    <glyph glyph-name="aring" unicode="&#xe5;" horiz-adv-x="986" 
d="M463 910q167 18 295 -170l1 -4q51 74 103 200l11 9l12 2q22 2 53 -83l-47 -122q-69 -225 -58 -376q10 -148 125 -327q-119 -92 -166 32q-48 128 -64 261l-7 68l3 4v4l-8 -1q-211 -378 -400 -397l-24 -3q-125 -14 -235 133q-30 59 -36 116l-4 32q-18 176 163 444
q139 163 283 178zM120 235l3 -28q12 -120 90 -136l28 3q193 21 505 629q-32 65 -98 94q-57 34 -132 26q-224 -22 -370 -385q-34 -129 -26 -203zM484 1193l68 16q75 0 132 -64q11 -29 16 -76q0 -111 -80 -164q-26 -12 -56 -12h-16q-107 0 -152 96l-8 48q0 89 96 156z
M560 1141q-15 -28 -40 -28q-32 -53 -32 -96v-4q0 -42 36 -72q72 31 72 160q-3 40 -36 40z" />
    <glyph glyph-name="ae" unicode="&#xe6;" horiz-adv-x="1573" 
d="M463 910q167 18 295 -170l1 -4q51 74 103 200l11 9l12 2q22 2 53 -83l-47 -122q-69 -225 -58 -376q10 -148 125 -327q-119 -92 -166 32q-48 128 -64 261l-7 68l3 4v4l-8 -1q-211 -378 -400 -397l-24 -3q-125 -14 -235 133q-30 59 -36 116l-4 32q-18 176 163 444
q139 163 283 178zM120 235l3 -28q12 -120 90 -136l28 3q193 21 505 629q-32 65 -98 94q-57 34 -132 26q-224 -22 -370 -385q-34 -129 -26 -203zM1357 924q97 -4 169 -137l3 -26l-1 -13q-6 -118 -209 -265q-202 -129 -366 -121l-101 19l-1 -5l-5 -33q-8 -156 99 -227
q65 -28 129 -33q93 -5 476 42q1 7 29 7q48 -16 48 -32l-1 -4q0 -10 -154 -56q-164 -42 -324 -33q-284 15 -392 268q-13 57 -11 107l2 26q4 108 136 282q247 246 474 234zM894 485l-28 -62l16 -1q173 -11 436 206q111 114 116 190v4l-8 9l-28 1q-127 7 -330 -131
q-148 -131 -174 -216z" />
    <glyph glyph-name="ccedilla" unicode="&#xe7;" horiz-adv-x="835" 
d="M492 923q247 0 298 -182v-8l-7 -8h-3q-5 0 -40 62q-56 54 -175 54h-17q-176 0 -361 -209q-96 -134 -96 -283q30 -183 59 -183q109 -112 285 -112q164 0 340 98q33 -16 33 -46v-4q0 -87 -224 -122l-92 -8q-275 0 -451 272q-33 106 -33 143v16q0 261 278 458q113 62 206 62
zM439 41h5q17 -14 17 -36v-43l-8 -95q59 39 115 39h5q91 0 138 -137v-17q0 -118 -191 -348q-173 -224 -205 -353q-6 0 -8 -14q-39 11 -39 22v12l2 11q-38 301 -126 449q-39 87 -39 140v5q0 139 118 191q33 11 50 11h14q42 0 93 -39q27 118 59 202zM408 -333q-58 28 -58 60
l10 64q-10 15 -41 15q-44 -6 -100 -77q-18 -41 -18 -82v-18q0 -47 77 -204q18 -32 48 -143h3q50 88 232 319q76 109 76 186q-1 28 -43 28q-82 0 -158 -79q0 -33 -20 -53q-3 -16 -8 -16z" />
    <glyph glyph-name="egrave" unicode="&#xe8;" horiz-adv-x="936" 
d="M625 924q97 -4 169 -137l3 -26l-1 -13q-6 -118 -209 -265q-202 -129 -366 -121l-101 19l-1 -5l-5 -33q-8 -156 99 -227q65 -28 129 -33q93 -5 476 42q1 7 29 7q48 -16 48 -32l-1 -4q0 -10 -154 -56q-164 -42 -324 -33q-284 15 -392 268q-13 57 -11 107l2 26
q4 108 136 282q247 246 474 234zM162 485l-28 -62l16 -1q173 -11 436 206q111 114 116 190v4l-8 9l-28 1q-127 7 -330 -131q-148 -131 -174 -216zM83 1665l12 8q79 0 156 -180q67 -117 168 -204q137 -92 224 -92q0 -8 40 -8l8 -12v-4q0 -15 -56 -32h-60q-156 0 -328 208
q-134 186 -164 316z" />
    <glyph glyph-name="eacute" unicode="&#xe9;" horiz-adv-x="936" 
d="M625 924q97 -4 169 -137l3 -26l-1 -13q-6 -118 -209 -265q-202 -129 -366 -121l-101 19l-1 -5l-5 -33q-8 -156 99 -227q65 -28 129 -33q93 -5 476 42q1 7 29 7q48 -16 48 -32l-1 -4q0 -10 -154 -56q-164 -42 -324 -33q-284 15 -392 268q-13 57 -11 107l2 26
q4 108 136 282q247 246 474 234zM162 485l-28 -62l16 -1q173 -11 436 206q111 114 116 190v4l-8 9l-28 1q-127 7 -330 -131q-148 -131 -174 -216zM745 1542l68 40h8q36 -28 36 -52v-4q-22 -60 -200 -208q-314 -268 -416 -268h-28q-48 0 -72 32v12l172 100q231 178 432 348z
" />
    <glyph glyph-name="ecircumflex" unicode="&#xea;" horiz-adv-x="936" 
d="M625 924q97 -4 169 -137l3 -26l-1 -13q-6 -118 -209 -265q-202 -129 -366 -121l-101 19l-1 -5l-5 -33q-8 -156 99 -227q65 -28 129 -33q93 -5 476 42q1 7 29 7q48 -16 48 -32l-1 -4q0 -10 -154 -56q-164 -42 -324 -33q-284 15 -392 268q-13 57 -11 107l2 26
q4 108 136 282q247 246 474 234zM162 485l-28 -62l16 -1q173 -11 436 206q111 114 116 190v4l-8 9l-28 1q-127 7 -330 -131q-148 -131 -174 -216zM525 2054q43 0 83 -55l-11 -127q0 -280 291 -564l101 -113q21 -27 21 -40l-3 -14l7 -8l-4 -3v-4l-82 51q-273 289 -327 411
q-80 153 -86 237q-27 -30 -159 -233q-121 -164 -165 -211q-125 -164 -284 -164l-14 7q0 28 75 73q165 153 252 291q94 116 262 390q34 72 43 76z" />
    <glyph glyph-name="edieresis" unicode="&#xeb;" horiz-adv-x="936" 
d="M625 924q97 -4 169 -137l3 -26l-1 -13q-6 -118 -209 -265q-202 -129 -366 -121l-101 19l-1 -5l-5 -33q-8 -156 99 -227q65 -28 129 -33q93 -5 476 42q1 7 29 7q48 -16 48 -32l-1 -4q0 -10 -154 -56q-164 -42 -324 -33q-284 15 -392 268q-13 57 -11 107l2 26
q4 108 136 282q247 246 474 234zM162 485l-28 -62l16 -1q173 -11 436 206q111 114 116 190v4l-8 9l-28 1q-127 7 -330 -131q-148 -131 -174 -216zM206 1467h20q64 -7 104 -28q64 -52 64 -96q0 -80 -116 -124h-20q-75 0 -140 80l-4 24v16q0 65 92 128zM590 1443h16
q94 -22 164 -112q24 -36 24 -60q0 -52 -136 -92l-20 -4q-156 23 -156 104v12q0 52 64 128q26 24 44 24zM218 1311v-12h4q68 42 68 80v4q-16 0 -16 28q-56 -48 -56 -100zM646 1375q-50 -75 -60 -124h4q100 34 100 72q-12 52 -44 52z" />
    <glyph glyph-name="igrave" unicode="&#xec;" horiz-adv-x="449" 
d="M266 970q88 99 149 50q-75 -165 -155 -365q-70 -175 -84 -318q-25 -258 61 -322l51 -29l-1 -15q-56 -53 -107 -48l-18 1q-69 47 -91 148q-28 84 -22 138q35 359 217 760zM-43 1784l12 8q79 0 156 -180q67 -117 168 -204q137 -92 224 -92q0 -8 40 -8l8 -12v-4
q0 -15 -56 -32h-60q-156 0 -328 208q-134 186 -164 316z" />
    <glyph glyph-name="iacute" unicode="&#xed;" horiz-adv-x="449" 
d="M266 970q88 99 149 50q-75 -165 -155 -365q-70 -175 -84 -318q-25 -258 61 -322l51 -29l-1 -15q-56 -53 -107 -48l-18 1q-69 47 -91 148q-28 84 -22 138q35 359 217 760zM927 1815l68 40h8q36 -29 36 -52v-4q-22 -60 -200 -208q-314 -268 -416 -268h-28q-48 0 -72 32v12
l172 100q231 179 432 348z" />
    <glyph glyph-name="icircumflex" unicode="&#xee;" horiz-adv-x="449" 
d="M266 970q88 99 149 50q-75 -165 -155 -365q-70 -175 -84 -318q-25 -258 61 -322l51 -29l-1 -15q-56 -53 -107 -48l-18 1q-69 47 -91 148q-28 84 -22 138q35 359 217 760zM518 2105q43 0 83 -55l-11 -127q0 -281 291 -564l101 -113q21 -27 21 -40l-3 -14l7 -8l-4 -3v-4
l-82 51q-273 290 -327 411q-80 153 -86 237q-27 -30 -159 -233q-121 -164 -165 -211q-125 -164 -284 -164l-14 7q0 28 75 73q165 153 252 291q94 116 262 390q34 72 43 76z" />
    <glyph glyph-name="idieresis" unicode="&#xef;" horiz-adv-x="449" 
d="M266 970q88 99 149 50q-75 -165 -155 -365q-70 -175 -84 -318q-25 -258 61 -322l51 -29l-1 -15q-56 -53 -107 -48l-18 1q-69 47 -91 148q-28 84 -22 138q35 359 217 760zM228 1586h20q64 -7 104 -28q64 -52 64 -96q0 -80 -116 -124h-20q-75 0 -140 80l-4 24v16
q0 65 92 128zM612 1562h16q94 -22 164 -112q24 -36 24 -60q0 -52 -136 -92l-20 -4q-156 22 -156 104v12q0 52 64 128q26 24 44 24zM240 1430v-12h4q68 42 68 80v4q-16 0 -16 28q-56 -48 -56 -100zM668 1494q-50 -75 -60 -124h4q100 34 100 72q-12 52 -44 52z" />
    <glyph glyph-name="eth" unicode="&#xf0;" horiz-adv-x="1139" 
 />
    <glyph glyph-name="ntilde" unicode="&#xf1;" horiz-adv-x="840" 
d="M166 1024l7 1q55 9 118 -62q15 -18 22 -67q17 -102 -45 -423q117 235 189 343q103 161 188 175q62 11 128 -99l12 -52q19 -116 -41 -477q-26 -295 -11 -387l3 -23q15 -94 30 -92l40 19q47 -7 49 -20q1 -6 -12 -13.5t-40 -17.5l-19 -3q-66 -10 -123 69q-21 58 -30 115
q-25 154 61 684q17 121 10 164l-11 64q-130 -48 -343 -513q-44 -85 -132 -357q-10 -55 -34 -83q-43 -7 -86 33l-1 8q29 236 145 817q7 76 0 116l-1 11q-6 34 -40 28q-95 -29 -183 -178q-56 -138 -49 -178l4 -27l-4 -1q-20 -3 -25 9l-4 26q-15 95 74 262q93 119 154 129z
M176 1472h16q101 0 360 -160q56 -24 72 -24h24q100 0 228 144q14 36 40 36q72 -14 72 -52q0 -70 -196 -172q-50 -12 -112 -12q-97 0 -312 128q-107 64 -148 64q-65 0 -156 -148h-12q-32 3 -32 28q0 69 88 148q32 20 68 20z" />
    <glyph glyph-name="ograve" unicode="&#xf2;" horiz-adv-x="1294" 
d="M370 1037q182 -9 252 -265l2 -16l6 -1q81 139 257 199q52 17 107 14h13q171 -9 259 -246q16 -57 13 -109q-11 -212 -260 -419q-91 -62 -311 -160l-164 -83l-23 -19q-25 53 -8 80q-59 120 -147 180q-186 164 -290 304q-61 92 -56 183q8 168 168 292q92 63 182 66zM144 636
l-1 -23q-6 -119 131 -250q198 -195 257 -276l21 -48l6 -1q542 264 588 520q22 73 23 110q4 71 -38 157q-48 55 -121 58l-14 1q-153 8 -309 -178q-57 -69 -58 -124q-20 -59 -35 -57h-6l-16 21l-2 28l9 114q10 184 -85 251l-60 11q-74 4 -186 -93q-98 -113 -104 -221z
M267 1659l12 8q79 0 156 -180q67 -117 168 -204q137 -92 224 -92q0 -8 40 -8l8 -12v-4q0 -15 -56 -32h-60q-156 0 -328 208q-134 186 -164 316z" />
    <glyph glyph-name="oacute" unicode="&#xf3;" horiz-adv-x="1294" 
d="M370 1037q182 -9 252 -265l2 -16l6 -1q81 139 257 199q52 17 107 14h13q171 -9 259 -246q16 -57 13 -109q-11 -212 -260 -419q-91 -62 -311 -160l-164 -83l-23 -19q-25 53 -8 80q-59 120 -147 180q-186 164 -290 304q-61 92 -56 183q8 168 168 292q92 63 182 66zM144 636
l-1 -23q-6 -119 131 -250q198 -195 257 -276l21 -48l6 -1q542 264 588 520q22 73 23 110q4 71 -38 157q-48 55 -121 58l-14 1q-153 8 -309 -178q-57 -69 -58 -124q-20 -59 -35 -57h-6l-16 21l-2 28l9 114q10 184 -85 251l-60 11q-74 4 -186 -93q-98 -113 -104 -221z
M1078 1673l68 40h8q36 -29 36 -52v-4q-22 -60 -200 -208q-314 -268 -416 -268h-28q-48 0 -72 32v12l172 100q231 179 432 348z" />
    <glyph glyph-name="ocircumflex" unicode="&#xf4;" horiz-adv-x="1294" 
d="M370 1037q182 -9 252 -265l2 -16l6 -1q81 139 257 199q52 17 107 14h13q171 -9 259 -246q16 -57 13 -109q-11 -212 -260 -419q-91 -62 -311 -160l-164 -83l-23 -19q-25 53 -8 80q-59 120 -147 180q-186 164 -290 304q-61 92 -56 183q8 168 168 292q92 63 182 66zM144 636
l-1 -23q-6 -119 131 -250q198 -195 257 -276l21 -48l6 -1q542 264 588 520q22 73 23 110q4 71 -38 157q-48 55 -121 58l-14 1q-153 8 -309 -178q-57 -69 -58 -124q-20 -59 -35 -57h-6l-16 21l-2 28l9 114q10 184 -85 251l-60 11q-74 4 -186 -93q-98 -113 -104 -221z
M721 2054q43 0 83 -55l-11 -127q0 -280 291 -564l101 -113q21 -27 21 -40l-3 -14l7 -8l-4 -3v-4l-82 51q-273 289 -327 411q-80 153 -86 237q-27 -30 -159 -233q-121 -164 -165 -211q-125 -164 -284 -164l-14 7q0 28 75 73q165 153 252 291q94 116 262 390q34 72 43 76z" />
    <glyph glyph-name="otilde" unicode="&#xf5;" horiz-adv-x="1294" 
d="M370 1037q182 -9 252 -265l2 -16l6 -1q81 139 257 199q52 17 107 14h13q171 -9 259 -246q16 -57 13 -109q-11 -212 -260 -419q-91 -62 -311 -160l-164 -83l-23 -19q-25 53 -8 80q-59 120 -147 180q-186 164 -290 304q-61 92 -56 183q8 168 168 292q92 63 182 66zM144 636
l-1 -23q-6 -119 131 -250q198 -195 257 -276l21 -48l6 -1q542 264 588 520q22 73 23 110q4 71 -38 157q-48 55 -121 58l-14 1q-153 8 -309 -178q-57 -69 -58 -124q-20 -59 -35 -57h-6l-16 21l-2 28l9 114q10 184 -85 251l-60 11q-74 4 -186 -93q-98 -113 -104 -221z
M350 1404h16q101 0 360 -160q56 -24 72 -24h24q100 0 228 144q14 36 40 36q72 -14 72 -52q0 -70 -196 -172q-49 -12 -112 -12q-97 0 -312 128q-107 64 -148 64q-65 0 -156 -148h-12q-32 3 -32 28q0 69 88 148q32 20 68 20z" />
    <glyph glyph-name="odieresis" unicode="&#xf6;" horiz-adv-x="1294" 
d="M370 1037q182 -9 252 -265l2 -16l6 -1q81 139 257 199q52 17 107 14h13q171 -9 259 -246q16 -57 13 -109q-11 -212 -260 -419q-91 -62 -311 -160l-164 -83l-23 -19q-25 53 -8 80q-59 120 -147 180q-186 164 -290 304q-61 92 -56 183q8 168 168 292q92 63 182 66zM144 636
l-1 -23q-6 -119 131 -250q198 -195 257 -276l21 -48l6 -1q542 264 588 520q22 73 23 110q4 71 -38 157q-48 55 -121 58l-14 1q-153 8 -309 -178q-57 -69 -58 -124q-20 -59 -35 -57h-6l-16 21l-2 28l9 114q10 184 -85 251l-60 11q-74 4 -186 -93q-98 -113 -104 -221z
M471 1462h20q64 -7 104 -28q64 -52 64 -96q0 -80 -116 -124h-20q-75 0 -140 80l-4 24v16q0 65 92 128zM855 1438h16q94 -22 164 -112q24 -36 24 -60q0 -52 -136 -92l-20 -4q-156 22 -156 104v12q0 52 64 128q25 24 44 24zM483 1306v-12h4q68 42 68 80v4q-16 0 -16 28
q-56 -48 -56 -100zM911 1370q-50 -75 -60 -124h4q100 34 100 72q-12 52 -44 52z" />
    <glyph glyph-name="divide" unicode="&#xf7;" 
d="M93 485v4q7 82 52 87q621 1 754 -18l2 -4q19 -7 19 -13q1 -63 -25 -68q0 -6 -37 -12h-2l-346 4q-333 0 -415 17zM525 896q124 -31 124 -116q-31 -160 -136 -160q-109 0 -148 112l-4 20q0 78 124 124q9 20 40 20zM549 812l-28 4q0 -8 -24 -8q-44 -38 -44 -80v-8
q1 -26 24 -48q37 0 72 128v12zM413 392l68 16q75 0 132 -64q11 -29 16 -76q0 -111 -80 -164q-25 -12 -56 -12h-16q-107 0 -152 96l-8 48q0 88 96 156zM489 340q-15 -28 -40 -28q-32 -53 -32 -96v-4q0 -42 36 -72q72 32 72 160q-3 40 -36 40z" />
    <glyph glyph-name="oslash" unicode="&#xf8;" horiz-adv-x="1294" 
d="M370 1037q182 -9 252 -265l2 -16l6 -1q81 139 257 199q52 17 107 14h13q171 -9 259 -246q16 -57 13 -109q-11 -212 -260 -419q-91 -62 -311 -160l-164 -83l-23 -19q-25 53 -8 80q-59 120 -147 180q-186 164 -290 304q-61 92 -56 183q8 168 168 292q92 63 182 66zM144 636
l-1 -23q-6 -119 131 -250q198 -195 257 -276l21 -48l6 -1q542 264 588 520q22 73 23 110q4 71 -38 157q-48 55 -121 58l-14 1q-153 8 -309 -178q-57 -69 -58 -124q-20 -59 -35 -57h-6l-16 21l-2 28l9 114q10 184 -85 251l-60 11q-74 4 -186 -93q-98 -113 -104 -221z
M1043 1695q29 2 37 -21q-6 -92 -66 -262q-123 -325 -297 -739q-185 -534 -279 -837q-11 -15 -62 -168l-27 -44q-46 5 -53 19q-32 87 49 274q165 537 328 958q65 144 307 758q33 52 63 62z" />
    <glyph glyph-name="ugrave" unicode="&#xf9;" horiz-adv-x="1020" 
d="M247 928l16 1q38 -13 40 -38v-4q-74 -180 -89 -263q-15 -92 -32 -236q-24 -177 88 -279t252 174q81 133 130 263q86 169 80 280q26 110 43 111q51 -1 56 -81l-3 -152q-34 -403 1 -521l33 -131q8 -90 -53 -96l-16 -1q-63 58 -92 390h-4q-14 -42 -114 -167
q-149 -188 -314 -197q-47 -13 -85 26.5t-68 131.5q-24 141 -27 296q13 229 67 361q52 129 91 132zM17 1704l12 8q79 0 156 -180q67 -117 168 -204q137 -92 224 -92q0 -8 40 -8l8 -12v-4q0 -15 -56 -32h-60q-156 0 -328 208q-134 186 -164 316z" />
    <glyph glyph-name="uacute" unicode="&#xfa;" horiz-adv-x="1020" 
d="M175 928l16 1q38 -13 40 -38v-4q-74 -180 -89 -263q-15 -92 -32 -236q-24 -177 88 -279t252 174q81 133 130 263q86 169 80 280q26 110 43 111q51 -1 56 -81l-3 -152q-34 -403 1 -521l33 -131q8 -90 -53 -96l-16 -1q-63 58 -92 390h-4q-14 -42 -114 -167
q-149 -188 -314 -197q-47 -13 -85 26.5t-68 131.5q-24 141 -27 296q13 229 67 361q52 129 91 132zM789 1679l68 40h8q36 -28 36 -52v-4q-22 -60 -200 -208q-314 -268 -416 -268h-28q-48 0 -72 32v12l172 100q231 179 432 348z" />
    <glyph glyph-name="ucircumflex" unicode="&#xfb;" horiz-adv-x="1020" 
d="M338 928l16 1q38 -13 40 -38v-4q-74 -180 -89 -263q-15 -92 -32 -236q-24 -177 88 -279q113 -102 252 174q81 133 130 263q86 169 80 280q26 110 43 111q51 -1 56 -81l-3 -152q-34 -403 1 -521l33 -131q8 -90 -53 -96l-16 -1q-63 58 -92 390h-4q-14 -42 -114 -167
q-149 -188 -314 -197q-47 -13 -85 26.5t-68 131.5q-24 141 -27 296q13 229 67 361q52 129 91 132zM618 2082q43 0 83 -55l-11 -127q0 -280 291 -564l101 -113q21 -27 21 -40l-3 -14l7 -8l-4 -3v-4l-82 51q-273 289 -327 411q-80 153 -86 237q-27 -30 -159 -233
q-121 -164 -165 -211q-125 -164 -284 -164l-14 7q0 28 75 73q165 153 252 291q94 116 262 390q34 72 43 76z" />
    <glyph glyph-name="udieresis" unicode="&#xfc;" horiz-adv-x="1020" 
d="M175 928l16 1q38 -13 40 -38v-4q-74 -180 -89 -263q-15 -92 -32 -236q-24 -177 88 -279t252 174q81 133 130 263q86 169 80 280q26 110 43 111q51 -1 56 -81l-3 -152q-34 -403 1 -521l33 -131q8 -90 -53 -96l-16 -1q-63 58 -92 390h-4q-14 -42 -114 -167
q-149 -188 -314 -197q-47 -13 -85 26.5t-68 131.5q-24 141 -27 296q13 229 67 361q52 129 91 132zM170 1547h20q64 -7 104 -28q64 -52 64 -96q0 -80 -116 -124h-20q-75 0 -140 80l-4 24v16q0 65 92 128zM554 1523h16q94 -22 164 -112q24 -36 24 -60q0 -52 -136 -92l-20 -4
q-156 23 -156 104v12q0 52 64 128q26 24 44 24zM182 1391v-12h4q68 42 68 80v4q-16 0 -16 28q-56 -48 -56 -100zM610 1455q-50 -75 -60 -124h4q100 34 100 72q-12 52 -44 52z" />
    <glyph glyph-name="yacute" unicode="&#xfd;" horiz-adv-x="822" 
d="M602 900h4q96 -19 96 -92q0 -226 -52 -428l4 -152l-4 -72l4 -104l-4 -392v-4q0 -455 -84 -596q-94 -253 -188 -288q-67 -40 -164 -40q-220 0 -700 232q-240 115 -284 272l-12 56q15 99 124 124l76 8h24q186 0 464 -108l8 -12l-4 -4q-298 84 -440 84q-140 0 -164 -88
q0 -105 136 -180q202 -189 404 -244q174 -64 324 -64q196 0 292 196q72 313 72 520q7 0 24 644v4h-4q-92 -152 -240 -152q-131 0 -196 176q-20 75 -20 136q0 236 114 550l4 4h4q28 -16 28 -56q-78 -321 -78 -486v-48q0 -157 56 -192l40 -8q91 0 196 144q112 175 112 384
q8 75 8 180v32q3 64 20 64zM921 1588l68 40h8q36 -28 36 -52v-4q-22 -60 -200 -208q-314 -268 -416 -268h-28q-48 0 -72 32v12l172 100q231 178 432 348z" />
    <glyph glyph-name="thorn" unicode="&#xfe;" horiz-adv-x="977" 
d="M284 914l-6 -47q122 85 231 98q244 30 416 -198q39 -75 44 -122q20 -150 -183 -410q-165 -189 -432 -291l-131 -28h-39l-51 -617q2 -53 -12 -59l-7 -1q-42 -4 -85 63q23 125 42 416q12 66 23 213q-146 65 -158 161q-17 141 195 197q10 215 32 426q-43 -46 -70 -51
q-26 22 -28 40q117 132 166 238q49 10 53 -28zM215 288h4q94 -9 288 -152l4 1q212 142 334 394q42 99 36 157l-5 34q-21 170 -327 160q-174 -23 -294 -137q-15 -24 -35 -338q-8 -93 -5 -119zM215 223l-7 -1l1 -4l-16 -217l3 1q108 12 282 115v4q-153 116 -263 102zM14 52
q6 -50 87 -58l22 206q-120 -58 -109 -148zM150 1973l8 1q132 16 246 -168l16 -70q30 -242 -132 -859q-82 -406 -54 -643q23 -183 94 -303v-4l-7 -9h-4q-61 -7 -105 38.5t-70 145.5l-20 126l-1 8q-41 329 138 1012q85 357 61 548l-1 8q-10 93 -76 99l-57 2l-28 -4l-110 -50
l-15 19q-2 21 27 46.5t90 56.5z" />
    <glyph glyph-name="ydieresis" unicode="&#xff;" horiz-adv-x="822" 
d="M602 900h4q96 -19 96 -92q0 -226 -52 -428l4 -152l-4 -72l4 -104l-4 -392v-4q0 -455 -84 -596q-94 -253 -188 -288q-67 -40 -164 -40q-220 0 -700 232q-240 115 -284 272l-12 56q15 99 124 124l76 8h24q186 0 464 -108l8 -12l-4 -4q-298 84 -440 84q-140 0 -164 -88
q0 -105 136 -180q202 -189 404 -244q174 -64 324 -64q196 0 292 196q72 313 72 520q7 0 24 644v4h-4q-92 -152 -240 -152q-131 0 -196 176q-20 75 -20 136q0 236 114 550l4 4h4q28 -16 28 -56q-78 -321 -78 -486v-48q0 -157 56 -192l40 -8q91 0 196 144q112 175 112 384
q8 75 8 180v32q3 64 20 64zM251 1462h20q64 -7 104 -28q64 -52 64 -96q0 -80 -116 -124h-20q-75 0 -140 80l-4 24v16q0 65 92 128zM635 1438h16q94 -22 164 -112q24 -36 24 -60q0 -52 -136 -92l-20 -4q-156 22 -156 104v12q0 52 64 128q25 24 44 24zM263 1306v-12h4
q68 42 68 80v4q-16 0 -16 28q-56 -48 -56 -100zM691 1370q-50 -75 -60 -124h4q100 34 100 72q-12 52 -44 52z" />
    <glyph glyph-name="Abreve" unicode="&#x102;" horiz-adv-x="864" 
d="M513 1883l16 8q56 -20 56 -112q12 -542 40 -724q96 -801 204 -1156q50 -180 124 -340q150 -272 388 -272h16q318 0 464 272q56 126 56 196q0 138 -64 196v4h-28q-91 0 -184 -164q-16 -52 -16 -84q0 -21 36 -52l-4 -4h-12q-112 43 -112 124v8q0 136 168 232l64 12h4
q117 0 216 -152q32 -79 32 -176v-12q0 -120 -124 -292q-181 -176 -444 -176q-163 0 -344 120q-113 86 -168 172q-77 104 -164 392q-47 140 -100 424l-12 -4l-92 -4l-32 4l-240 -8q-94 -316 -164 -316q-56 20 -56 40q130 313 264 872l120 660q35 160 92 312zM497 1399h-4
q-89 -592 -208 -988l-4 -12q134 28 336 28q-120 798 -120 972zM114 2265l1 7l7 10q7 -1 36 -33q158 -152 328 -165h7q257 -21 399 226q0 9 8 15q3 -2 6 -26q-42 -131 -165 -217q-103 -68 -249 -56l-17 1q-180 14 -335 188q-26 44 -26 50z" />
    <glyph glyph-name="abreve" unicode="&#x103;" horiz-adv-x="0" 
d="M463 910q167 18 295 -170l1 -4q51 74 103 200l11 9l12 2q22 2 53 -83l-47 -122q-69 -225 -58 -376q10 -148 125 -327q-119 -92 -166 32q-48 128 -64 261l-7 68l3 4v4l-8 -1q-211 -378 -400 -397l-24 -3q-125 -14 -235 133q-30 59 -36 116l-4 32q-18 176 163 444
q139 163 283 178zM120 235l3 -28q12 -120 90 -136l28 3q193 21 505 629q-32 65 -98 94q-57 34 -132 26q-224 -22 -370 -385q-34 -129 -26 -203zM193 1473l1 7l7 10q7 -1 36 -33q158 -152 328 -165h7q257 -21 399 226q0 9 8 15q3 -2 6 -26q-42 -131 -165 -217
q-103 -68 -249 -56l-17 1q-180 14 -335 188q-26 44 -26 50z" />
    <glyph glyph-name="Dcroat" unicode="&#x110;" horiz-adv-x="1441" 
d="M814 1394q398 -42 504 -343q53 -139 43 -228l-6 -57q-23 -213 -305 -522q-221 -193 -351 -244q-115 -58 -194 -69l-1 -5q123 -119 149 -158l-1 -9l-5 -4l-9 1q-70 73 -188 158l-5 1q-141 -16 -180 -13q-280 30 -331 241l2 17q23 74 118 64q64 -8 154 -61l1 4l16 195
l12 119q17 163 118 743h-4q-205 -63 -281 -127l-15 -16l-5 1l-15 19l3 31q37 99 320 203q291 77 456 59zM451 1245v-5l-5 -85q-10 -99 -101 -619l-14 -97q-17 -367 -3 -369l80 -65q419 108 771 553q89 197 103 322q25 240 -193 350q-217 111 -638 15zM25 75v-4
q71 -40 146 -47l36 -4q8 71 -20 74q-42 17 -82 22q-76 8 -80 -41zM51 588l-1 4q-15 78 168 90q200 13 285 -2l2 -4q13 -8 14 -13q16 -60 2 -65q1 -4 -4 -7t-15 -7h-1l-202 -4q-192 -10 -246 4z" />
    <glyph glyph-name="dcroat" unicode="&#x111;" horiz-adv-x="1148" 
d="M751 1549l-1 4q-15 78 168 90q200 13 285 -2l2 -4q13 -8 14 -13q16 -60 2 -65q1 -4 -4 -7t-15 -7h-1l-202 -4q-192 -10 -246 4zM956 2098l12 12q95 0 128 -240v-16q0 -131 -185 -1077q-32 -169 -32 -272v-4l-4 -20q5 -140 20 -140q145 -36 204 -116q32 -41 32 -72
q0 -103 -260 -168q-95 -24 -244 -24h-20q-347 0 -524 240q-52 88 -52 172q0 148 124 308q158 167 276 208q133 56 220 56h8q104 0 160 -44h8q185 925 185 1053v36q-9 80 -28 80q-17 7 -28 24v4zM131 333q0 -123 84 -208q125 -76 336 -76q171 0 324 44v4q-54 55 -76 184h-8
q-98 -68 -128 -156q0 -12 -8 -12q-19 0 -36 32q0 48 84 136q46 41 84 52q-12 112 -12 188q0 121 36 316q-51 16 -88 16h-4q-127 0 -308 -100q-280 -199 -280 -420zM907 301h-12v-4q24 -126 48 -176h4q108 48 108 88q-21 52 -148 92z" />
    <glyph glyph-name="Itilde" unicode="&#x128;" horiz-adv-x="657" 
d="M141 2185q137 0 229 -213h4q112 142 315 193q104 0 148 -176v-36q0 -139 -204 -504q-239 -518 -240 -700v-52q-39 -504 -116 -716q-31 -18 -38 -18h-4q-35 0 -48 24v8q10 71 62 402q44 259 44 488q0 319 -304 572l-88 100q-80 119 -80 240q0 155 140 304q91 84 180 84z
M-79 1753q0 -191 192 -340q210 -207 236 -340q6 2 60 152q62 159 308 628q56 114 56 172v12q0 14 -48 20q-186 -12 -327 -185v-12q-9 -130 -90 -215l-16 -4q-16 6 -24 20v4l41 168l12 100q-23 144 -52 144q0 11 -52 20h-36q-117 0 -228 -192q-32 -94 -32 -152zM1 2812h16
q101 0 360 -160q55 -24 72 -24h24q101 0 228 144q13 36 40 36q72 -14 72 -52q0 -70 -196 -172q-50 -12 -112 -12q-97 0 -312 128q-107 64 -148 64q-65 0 -156 -148h-12q-32 3 -32 28q0 69 88 148q32 20 68 20z" />
    <glyph glyph-name="itilde" unicode="&#x129;" horiz-adv-x="449" 
d="M266 970q88 99 149 50q-75 -165 -155 -365q-70 -175 -84 -318q-25 -258 61 -322l51 -29l-1 -15q-56 -53 -107 -48l-18 1q-69 47 -91 148q-28 84 -22 138q35 359 217 760zM65 1341h16q101 0 360 -160q55 -24 72 -24h24q101 0 228 144q13 36 40 36q72 -13 72 -52
q0 -70 -196 -172q-49 -12 -112 -12q-97 0 -312 128q-107 64 -148 64q-65 0 -156 -148h-12q-32 3 -32 28q0 69 88 148q32 20 68 20z" />
    <glyph glyph-name="dotlessi" unicode="&#x131;" horiz-adv-x="449" 
d="M266 970q88 99 149 50q-75 -165 -155 -365q-70 -175 -84 -318q-25 -258 61 -322l51 -29l-1 -15q-56 -53 -107 -48l-18 1q-69 47 -91 148q-28 84 -22 138q35 359 217 760z" />
    <glyph glyph-name="OE" unicode="&#x152;" horiz-adv-x="3219" 
d="M691 1399h36q180 0 328 -172l68 -112q253 264 592 264q302 0 488 -252q92 -152 92 -248q0 -299 -448 -588q-251 -170 -440 -344l-68 -64l4 -24l-4 -4l-28 8l-28 -28q-25 0 -44 28l16 64q-219 201 -476 272q-317 133 -432 240q-212 197 -212 412q0 208 180 388
q139 118 204 128q87 32 172 32zM787 1331l-20 -4h-16q-246 0 -440 -272q-64 -118 -64 -216v-24q0 -406 712 -632q186 -77 328 -212q119 139 308 276q279 189 432 332q168 165 168 352v16q0 191 -176 292q-141 56 -228 56h-24q-341 0 -640 -324q-19 -88 -40 -88q-28 7 -28 32
v60l8 64q0 110 -140 252q-69 32 -140 40zM2526 2462q52 0 100 -84q12 -20 12 -52v-28q0 -141 -176 -744h8q177 28 252 28h80q172 0 284 -64q20 -22 20 -32l-4 -4h-4q-135 16 -204 16h-104q-61 0 -300 -32h-44q-12 0 -76 -264q-52 -212 -52 -464q101 40 152 40h48
q96 0 136 -64l-8 -8l-20 4q-70 0 -272 -48h-48q-17 -129 -36 -568q96 -32 176 -32q161 -32 527 40h100q71 0 93 -64q-4 -12 -24 -12h-12q-448 -48 -608 -48h-24q-143 0 -300 37q-28 97 -28 259v4q7 271 32 484l-8 60q8 118 36 296l8 224q0 292 -180 492q-156 225 -156 344
q10 100 88 100q113 0 272 -204l20 -48q9 7 40 124q116 312 204 312zM2270 1754q-24 9 -24 16l8 124h4q0 71 -64 192q-77 116 -148 116q-44 -11 -44 -44v-16q0 -144 208 -400q97 -128 116 -252h4q204 712 204 772l8 96q-93 -74 -228 -512q0 -48 -44 -92z" />
    <glyph glyph-name="oe" unicode="&#x153;" horiz-adv-x="2027" 
d="M370 1037q182 -9 252 -265l2 -16l6 -1q81 139 257 199q52 17 107 14h13q171 -9 259 -246q16 -57 13 -109q-11 -212 -260 -419q-91 -62 -311 -160l-164 -83l-23 -19q-25 53 -8 80q-59 120 -147 180q-186 164 -290 304q-61 92 -56 183q8 168 168 292q92 63 182 66zM144 636
l-1 -23q-6 -119 131 -250q198 -195 257 -276l21 -48l6 -1q542 264 588 520q22 73 23 110q4 71 -38 157q-48 55 -121 58l-14 1q-153 8 -309 -178q-57 -69 -58 -124q-20 -59 -35 -57h-6l-16 21l-2 28l9 114q10 184 -85 251l-60 11q-74 4 -186 -93q-98 -113 -104 -221z
M1715 924q97 -4 169 -137l3 -26l-1 -13q-6 -118 -209 -265q-202 -129 -366 -121l-101 19l-1 -5l-5 -33q-8 -156 99 -227q65 -28 129 -33q93 -5 476 42q1 7 29 7q48 -16 48 -32l-1 -4q0 -10 -154 -56q-164 -42 -324 -33q-284 15 -392 268q-13 57 -11 107l2 26q4 108 136 282
q247 246 474 234zM1252 485l-28 -62l16 -1q173 -11 436 206q111 114 116 190v4l-8 9l-28 1q-127 7 -330 -131q-148 -131 -174 -216z" />
    <glyph glyph-name="Utilde" unicode="&#x168;" horiz-adv-x="1106" 
d="M1131 1857q41 0 84 -84l8 -40q0 -157 -192 -752q-24 -85 -24 -140l-20 -48q-36 -171 -36 -468l33 -322l-4 -4h-16q-48 0 -65 24q-40 154 -52 290h-4q-152 -320 -320 -320h-44q-256 -4 -363 217t-75 511q13 395 154 820q75 36 87 -24l-51 -172q-72 -309 -72 -620v-32
q-42 -441 202 -631l86 -21q181 0 392 544q16 23 52 296q44 152 44 176q-4 60 -100 244q-55 109 -172 276q-72 119 -72 168v4q0 49 96 68h20q77 0 180 -132l20 -40h8q12 54 156 192q29 20 60 20zM683 1697q0 -54 204 -348q45 -75 84 -168q9 0 76 216q84 291 84 348
q-167 -158 -204 -244q0 -48 -24 -64h-12q-24 13 -24 36v60q-20 190 -104 212h-16q-64 -9 -64 -48zM439 2243h16q101 0 360 -160q55 -24 72 -24h24q101 0 228 144q13 36 40 36q72 -13 72 -52q0 -70 -196 -172q-49 -12 -112 -12q-97 0 -312 128q-107 64 -148 64
q-65 0 -156 -148h-12q-32 3 -32 28q0 69 88 148q32 20 68 20z" />
    <glyph glyph-name="utilde" unicode="&#x169;" horiz-adv-x="928" 
d="M246 928l16 1q38 -13 40 -38v-4q-74 -180 -89 -263q-15 -92 -32 -236q-24 -177 88 -279q113 -102 252 174q81 133 130 263q86 169 80 280q26 110 43 111q51 -1 56 -81l-3 -152q-34 -403 1 -521l33 -131q8 -90 -53 -96l-16 -1q-63 58 -92 390h-4q-14 -42 -114 -167
q-149 -188 -314 -197q-47 -13 -85 26.5t-68 131.5q-24 141 -27 296q13 229 67 361q52 129 91 132zM136 1353h16q101 0 360 -160q56 -24 72 -24h24q100 0 228 144q13 36 40 36q72 -13 72 -52q0 -70 -196 -172q-50 -12 -112 -12q-97 0 -312 128q-107 64 -148 64
q-65 0 -156 -148h-12q-32 3 -32 28q0 69 88 148q32 20 68 20z" />
    <glyph glyph-name="Ohorn" unicode="&#x1a0;" horiz-adv-x="2249" 
d="M584 1348h36q180 0 328 -172l68 -112q254 264 592 264q302 0 488 -252q92 -152 92 -248q0 -299 -448 -588q-251 -170 -440 -344l-68 -64l4 -24l-4 -4l-28 8l-28 -28q-25 0 -44 28l16 64q-219 201 -476 272q-316 134 -432 240q-212 197 -212 412q0 208 180 388
q139 118 204 128q87 32 172 32zM680 1280l-20 -4h-16q-246 0 -440 -272q-64 -118 -64 -216v-24q0 -406 712 -632q186 -77 328 -212q119 139 308 276q279 189 432 332q168 165 168 352v16q0 191 -176 292q-141 56 -228 56h-24q-342 0 -640 -324q-19 -88 -40 -88q-28 7 -28 32
v60l8 64q0 110 -140 252q-69 32 -140 40zM2029 1688h28q51 0 100 -96q22 -10 44 -76q0 -57 -188 -356q-56 14 -56 64v20q0 22 68 144q-112 36 -112 140q0 116 116 160zM2041 1580l-24 8q-32 -43 -32 -68q0 -34 12 -76h20q88 36 88 80q7 0 12 32q0 10 -28 32z" />
    <glyph glyph-name="ohorn" unicode="&#x1a1;" horiz-adv-x="1294" 
d="M370 1037q182 -9 252 -265l2 -16l6 -1q81 139 257 199q52 17 107 14h13q171 -9 259 -246q16 -57 13 -109q-11 -212 -260 -419q-91 -62 -311 -160l-164 -83l-23 -19q-25 53 -8 80q-59 120 -147 180q-186 164 -290 304q-61 92 -56 183q8 168 168 292q92 63 182 66zM144 636
l-1 -23q-6 -119 131 -250q198 -195 257 -276l21 -48l6 -1q542 264 588 520q22 73 23 110q4 71 -38 157q-48 55 -121 58l-14 1q-153 8 -309 -178q-57 -69 -58 -124q-20 -59 -35 -57h-6l-16 21l-2 28l9 114q10 184 -85 251l-60 11q-74 4 -186 -93q-98 -113 -104 -221z
M1265 1309h28q51 0 100 -96q22 -10 44 -76q0 -57 -188 -356q-56 14 -56 64v20q0 22 68 144q-112 36 -112 140q0 116 116 160zM1277 1201l-24 8q-32 -43 -32 -68q0 -34 12 -76h20q88 36 88 80q7 0 12 32q0 10 -28 32z" />
    <glyph glyph-name="Uhorn" unicode="&#x1af;" horiz-adv-x="1106" 
d="M1131 1857q41 0 84 -84l8 -40q0 -157 -192 -752q-24 -85 -24 -140l-20 -48q-36 -171 -36 -468l33 -322l-4 -4h-16q-48 0 -65 24q-40 154 -52 290h-4q-152 -320 -320 -320h-44q-256 -4 -363 217t-75 511q13 395 154 820q75 36 87 -24l-51 -172q-72 -309 -72 -620v-32
q-42 -441 202 -631l86 -21q181 0 392 544q16 23 52 296q44 152 44 176q-4 60 -100 244q-55 109 -172 276q-72 119 -72 168v4q0 49 96 68h20q77 0 180 -132l20 -40h8q12 54 156 192q29 20 60 20zM683 1697q0 -54 204 -348q45 -75 84 -168q9 0 76 216q84 291 84 348
q-167 -158 -204 -244q0 -48 -24 -64h-12q-24 13 -24 36v60q-20 190 -104 212h-16q-64 -9 -64 -48zM1353 1718q3 -12 -9 -21t-25 -12q-41 -10 -46 11q-2 12 -2 17q-3 50 34 80q42 33 104 40q53 5 101 -14q43 -17 54 -51q11 -38 -26 -69q-30 -29 -89 -63q-83 -48 -197 -99
q-38 -15 -53 2q-9 10 -0.5 20t20.5 15l71 33l46 23l24 12q1 1 7 4l10 6q58 32 84 52l5 4q-5 -4 -2 -1l7 5q9 10 11 12h1l3 5l-1 -1q1 2 1 5q1 2 1 5v-1l-2 8q0 1 -2 7q-1 1 -1 2l2 -4l-2 4l-11 12l1 -1q-2 2 -3 2l-7 5l-9 4l-4 2l1 -1q-13 4 -18 5l-6 2h1l1 -1q-3 1 -9 1
q-1 0 -5 0.5t-5 0.5h-5h-1h4q-11 0 -21 -3h-1l7 2l-2 -1q-3 0 -4 -1l-9 -2h-1l6 2l-2 -1l-5 -2q-1 0 -8 -5h-1l-7 -7l1 2l-2 -4q-1 -1 -4 -7q0 -1 -1 -2q-1 -2 0 -1q0 1 1 4q0 -1 -0.5 -2.5t-0.5 -2.5q-3 -9 -3 -19v-1v-5z" />
    <glyph glyph-name="uhorn" unicode="&#x1b0;" horiz-adv-x="928" 
d="M246 928q-39 -3 -91 -132q-54 -132 -67 -361q3 -155 27 -296q30 -92 68 -131.5t85 -26.5q165 9 314 197q100 125 114 167h4q29 -332 92 -390l16 1q61 6 53 96l-33 131q-35 118 -1 521l3 152q-5 80 -56 81q-17 -1 -43 -111q6 -111 -80 -280q-49 -130 -130 -263
q-139 -276 -252 -174q-112 102 -88 279q17 144 32 236q15 83 89 263v4q-2 25 -40 38zM976 1037q3 -12 -9 -21t-25 -12q-41 -10 -46 11q-2 12 -2 17q-3 50 34 80q42 33 104 40q53 5 101 -14q43 -17 54 -51q11 -38 -26 -69q-30 -29 -89 -63q-83 -48 -197 -99q-38 -15 -53 2
q-9 10 -0.5 20t20.5 15l71 33l46 23l24 12q1 1 7 4l10 6q58 32 84 52l5 4q-5 -4 -2 -1l7 5q10 9 11 12h1l3 5l-1 -1q1 2 1 5q1 2 1 5v-1l-2 8q0 1 -2 7q-1 1 -1 2l2 -4l-2 4l-11 12l1 -1q-2 2 -3 2l-7 5l-9 4l-4 2l1 -1q-13 4 -18 5l-6 2h1l1 -1q-3 1 -9 1q-2 0 -5 0.5
t-5 0.5h-5h-1h4q-10 0 -21 -3h-1l7 2l-2 -1q-3 0 -4 -1l-9 -2h-1l6 2l-2 -1l-5 -2q-1 0 -8 -5h-1l-7 -7l1 2l-2 -4q-1 -1 -4 -7q0 -1 -1 -2q-1 -2 0 -1q0 1 1 4q0 -1 -0.5 -2.5t-0.5 -2.5q-3 -9 -3 -19v-1v-5z" />
    <glyph glyph-name="circumflex" unicode="&#x2c6;" horiz-adv-x="1024" 
d="M578 2054q43 0 83 -55l-11 -127q0 -280 291 -564l101 -113q21 -27 21 -40l-3 -14l7 -8l-4 -3v-4l-82 51q-273 289 -327 411q-80 153 -86 237q-27 -30 -159 -233q-121 -164 -165 -211q-125 -164 -284 -164l-14 7q0 28 75 73q165 153 252 291q94 116 262 390q34 72 43 76z
" />
    <glyph glyph-name="caron" unicode="&#x2c7;" horiz-adv-x="1024" 
 />
    <glyph glyph-name="uni02C9" unicode="&#x2c9;" horiz-adv-x="1024" 
 />
    <glyph glyph-name="breve" unicode="&#x2d8;" horiz-adv-x="1024" 
 />
    <glyph glyph-name="dotaccent" unicode="&#x2d9;" horiz-adv-x="1024" 
 />
    <glyph glyph-name="ring" unicode="&#x2da;" horiz-adv-x="528" 
d="M192 1362l68 16q75 0 132 -64q11 -29 16 -76q0 -111 -80 -164q-25 -12 -56 -12h-16q-107 0 -152 96l-8 48q0 88 96 156zM268 1310q-15 -28 -40 -28q-32 -53 -32 -96v-4q0 -42 36 -72q72 32 72 160q-3 40 -36 40z" />
    <glyph glyph-name="ogonek" unicode="&#x2db;" horiz-adv-x="1024" 
 />
    <glyph glyph-name="tilde" unicode="&#x2dc;" horiz-adv-x="1024" 
d="M196 1353h16q101 0 360 -160q56 -24 72 -24h24q100 0 228 144q13 36 40 36q72 -13 72 -52q0 -70 -196 -172q-49 -12 -112 -12q-97 0 -312 128q-107 64 -148 64q-65 0 -156 -148h-12q-32 3 -32 28q0 69 88 148q32 20 68 20z" />
    <glyph glyph-name="hungarumlaut" unicode="&#x2dd;" horiz-adv-x="1024" 
 />
    <glyph glyph-name="uni1EA0" unicode="&#x1ea0;" horiz-adv-x="854" 
d="M513 1883l16 8q56 -20 56 -112q12 -542 40 -724q96 -801 204 -1156q50 -180 124 -340q150 -272 388 -272h16q318 0 464 272q56 126 56 196q0 138 -64 196v4h-28q-91 0 -184 -164q-16 -52 -16 -84q0 -21 36 -52l-4 -4h-12q-112 43 -112 124v8q0 136 168 232l64 12h4
q117 0 216 -152q32 -79 32 -176v-12q0 -120 -124 -292q-181 -176 -444 -176q-163 0 -344 120q-113 86 -168 172q-77 104 -164 392q-47 140 -100 424l-12 -4l-92 -4l-32 4l-240 -8q-94 -316 -164 -316q-56 20 -56 40q130 313 264 872l120 660q35 160 92 312zM497 1399h-4
q-89 -592 -208 -988l-4 -12q134 28 336 28q-120 798 -120 972zM357 -239q0 25 17.5 42.5t42.5 17.5t43 -17.5t18 -42.5t-18 -42.5t-43 -17.5t-42.5 17.5t-17.5 42.5z" />
    <glyph glyph-name="uni1EA1" unicode="&#x1ea1;" horiz-adv-x="986" 
d="M463 910q167 18 295 -170l1 -4q51 74 103 200l11 9l12 2q22 2 53 -83l-47 -122q-69 -225 -58 -376q10 -148 125 -327q-119 -92 -166 32q-48 128 -64 261l-7 68l3 4v4l-8 -1q-211 -378 -400 -397l-24 -3q-125 -14 -235 133q-30 59 -36 116l-4 32q-18 176 163 444
q139 163 283 178zM120 235l3 -28q12 -120 90 -136l28 3q193 21 505 629q-32 65 -98 94q-57 34 -132 26q-224 -22 -370 -385q-34 -129 -26 -203zM357 -239q0 25 17.5 42.5t42.5 17.5t43 -17.5t18 -42.5t-18 -42.5t-43 -17.5t-42.5 17.5t-17.5 42.5z" />
    <glyph glyph-name="uni1EA2" unicode="&#x1ea2;" horiz-adv-x="854" 
d="M513 1883l16 8q56 -20 56 -112q12 -542 40 -724q96 -801 204 -1156q50 -180 124 -340q150 -272 388 -272h16q318 0 464 272q56 126 56 196q0 138 -64 196v4h-28q-91 0 -184 -164q-16 -52 -16 -84q0 -21 36 -52l-4 -4h-12q-112 43 -112 124v8q0 136 168 232l64 12h4
q117 0 216 -152q32 -79 32 -176v-12q0 -120 -124 -292q-181 -176 -444 -176q-163 0 -344 120q-113 86 -168 172q-77 104 -164 392q-47 140 -100 424l-12 -4l-92 -4l-32 4l-240 -8q-94 -316 -164 -316q-56 20 -56 40q130 313 264 872l120 660q35 160 92 312zM497 1399h-4
q-89 -592 -208 -988l-4 -12q134 28 336 28q-120 798 -120 972zM603 2647h28q51 0 100 -96q22 -10 44 -76q0 -57 -188 -356q-56 14 -56 64v20q0 22 68 144q-112 36 -112 140q0 116 116 160zM615 2539l-24 8q-32 -43 -32 -68q0 -34 12 -76h20q88 36 88 80q7 0 12 32
q0 10 -28 32z" />
    <glyph glyph-name="uni1EA3" unicode="&#x1ea3;" horiz-adv-x="986" 
d="M463 910q167 18 295 -170l1 -4q51 74 103 200l11 9l12 2q22 2 53 -83l-47 -122q-69 -225 -58 -376q10 -148 125 -327q-119 -92 -166 32q-48 128 -64 261l-7 68l3 4v4l-8 -1q-211 -378 -400 -397l-24 -3q-125 -14 -235 133q-30 59 -36 116l-4 32q-18 176 163 444
q139 163 283 178zM120 235l3 -28q12 -120 90 -136l28 3q193 21 505 629q-32 65 -98 94q-57 34 -132 26q-224 -22 -370 -385q-34 -129 -26 -203zM584 1718h28q50 0 100 -96q22 -10 44 -76q0 -57 -188 -356q-56 14 -56 64v20q0 22 68 144q-112 36 -112 140q0 116 116 160z
M596 1610l-24 8q-32 -43 -32 -68q0 -34 12 -76h20q88 36 88 80q7 0 12 32q0 10 -28 32z" />
    <glyph glyph-name="uni1EA4" unicode="&#x1ea4;" horiz-adv-x="854" 
d="M513 1883l16 8q56 -20 56 -112q12 -542 40 -724q96 -801 204 -1156q50 -180 124 -340q150 -272 388 -272h16q318 0 464 272q56 126 56 196q0 138 -64 196v4h-28q-91 0 -184 -164q-16 -52 -16 -84q0 -21 36 -52l-4 -4h-12q-112 43 -112 124v8q0 136 168 232l64 12h4
q117 0 216 -152q32 -79 32 -176v-12q0 -120 -124 -292q-181 -176 -444 -176q-163 0 -344 120q-113 86 -168 172q-77 104 -164 392q-47 140 -100 424l-12 -4l-92 -4l-32 4l-240 -8q-94 -316 -164 -316q-56 20 -56 40q130 313 264 872l120 660q35 160 92 312zM497 1399h-4
q-89 -592 -208 -988l-4 -12q134 28 336 28q-120 798 -120 972zM603 2523q43 0 83 -55l-11 -127q0 -281 291 -564l101 -113q21 -27 21 -40l-3 -14l7 -8l-4 -3v-4l-82 51q-273 290 -327 411q-80 153 -86 237q-27 -30 -159 -233q-121 -164 -165 -211q-125 -164 -284 -164l-14 7
q0 28 75 73q165 153 252 291q94 116 262 390q34 72 43 76zM1434 2662l68 40h8q36 -29 36 -52v-4q-22 -60 -200 -208q-314 -268 -416 -268h-28q-48 0 -72 32v12l172 100q231 178 432 348z" />
    <glyph glyph-name="uni1EA5" unicode="&#x1ea5;" horiz-adv-x="986" 
d="M463 910q167 18 295 -170l1 -4q51 74 103 200l11 9l12 2q22 2 53 -83l-47 -122q-69 -225 -58 -376q10 -148 125 -327q-119 -92 -166 32q-48 128 -64 261l-7 68l3 4v4l-8 -1q-211 -378 -400 -397l-24 -3q-125 -14 -235 133q-30 59 -36 116l-4 32q-18 176 163 444
q139 163 283 178zM120 235l3 -28q12 -120 90 -136l28 3q193 21 505 629q-32 65 -98 94q-57 34 -132 26q-224 -22 -370 -385q-34 -129 -26 -203zM740 2304q43 0 83 -55l-11 -127q0 -280 291 -564l101 -113q21 -27 21 -40l-3 -14l7 -8l-4 -3v-4l-82 51q-273 289 -327 411
q-80 153 -86 237q-27 -30 -159 -233q-121 -164 -165 -211q-125 -164 -284 -164l-14 7q0 28 75 73q165 153 252 291q94 116 262 390q34 72 43 76zM1703 2611l68 40h8q36 -29 36 -52v-4q-22 -60 -200 -208q-314 -268 -416 -268h-28q-48 0 -72 32v12l172 100q231 179 432 348z
" />
    <glyph glyph-name="uni1EA6" unicode="&#x1ea6;" horiz-adv-x="854" 
d="M513 1883l16 8q56 -20 56 -112q12 -542 40 -724q96 -801 204 -1156q50 -180 124 -340q150 -272 388 -272h16q318 0 464 272q56 126 56 196q0 138 -64 196v4h-28q-91 0 -184 -164q-16 -52 -16 -84q0 -21 36 -52l-4 -4h-12q-112 43 -112 124v8q0 136 168 232l64 12h4
q117 0 216 -152q32 -79 32 -176v-12q0 -120 -124 -292q-181 -176 -444 -176q-163 0 -344 120q-113 86 -168 172q-77 104 -164 392q-47 140 -100 424l-12 -4l-92 -4l-32 4l-240 -8q-94 -316 -164 -316q-56 20 -56 40q130 313 264 872l120 660q35 160 92 312zM497 1399h-4
q-89 -592 -208 -988l-4 -12q134 28 336 28q-120 798 -120 972zM603 2523q43 0 83 -55l-11 -127q0 -281 291 -564l101 -113q21 -27 21 -40l-3 -14l7 -8l-4 -3v-4l-82 51q-273 290 -327 411q-80 153 -86 237q-27 -30 -159 -233q-121 -164 -165 -211q-125 -164 -284 -164l-14 7
q0 28 75 73q165 153 252 291q94 116 262 390q34 72 43 76zM751 2652l12 8q79 0 156 -180q67 -117 168 -204q137 -92 224 -92q0 -8 40 -8l8 -12v-4q0 -15 -56 -32h-60q-156 0 -328 208q-134 186 -164 316z" />
    <glyph glyph-name="uni1EA7" unicode="&#x1ea7;" horiz-adv-x="986" 
d="M463 910q167 18 295 -170l1 -4q51 74 103 200l11 9l12 2q22 2 53 -83l-47 -122q-69 -225 -58 -376q10 -148 125 -327q-119 -92 -166 32q-48 128 -64 261l-7 68l3 4v4l-8 -1q-211 -378 -400 -397l-24 -3q-125 -14 -235 133q-30 59 -36 116l-4 32q-18 176 163 444
q139 163 283 178zM120 235l3 -28q12 -120 90 -136l28 3q193 21 505 629q-32 65 -98 94q-57 34 -132 26q-224 -22 -370 -385q-34 -129 -26 -203zM740 2304q43 0 83 -55l-11 -127q0 -280 291 -564l101 -113q21 -27 21 -40l-3 -14l7 -8l-4 -3v-4l-82 51q-273 289 -327 411
q-80 153 -86 237q-27 -30 -159 -233q-121 -164 -165 -211q-125 -164 -284 -164l-14 7q0 28 75 73q165 153 252 291q94 116 262 390q34 72 43 76zM902 2537l12 8q80 0 156 -180q68 -117 168 -204q137 -92 224 -92q0 -8 40 -8l8 -12v-4q0 -15 -56 -32h-60q-156 0 -328 208
q-134 186 -164 316z" />
    <glyph glyph-name="uni1EA8" unicode="&#x1ea8;" horiz-adv-x="854" 
d="M513 1883l16 8q56 -20 56 -112q12 -542 40 -724q96 -801 204 -1156q50 -180 124 -340q150 -272 388 -272h16q318 0 464 272q56 126 56 196q0 138 -64 196v4h-28q-91 0 -184 -164q-16 -52 -16 -84q0 -21 36 -52l-4 -4h-12q-112 43 -112 124v8q0 136 168 232l64 12h4
q117 0 216 -152q32 -79 32 -176v-12q0 -120 -124 -292q-181 -176 -444 -176q-163 0 -344 120q-113 86 -168 172q-77 104 -164 392q-47 140 -100 424l-12 -4l-92 -4l-32 4l-240 -8q-94 -316 -164 -316q-56 20 -56 40q130 313 264 872l120 660q35 160 92 312zM497 1399h-4
q-89 -592 -208 -988l-4 -12q134 28 336 28q-120 798 -120 972zM603 2523q43 0 83 -55l-11 -127q0 -281 291 -564l101 -113q21 -27 21 -40l-3 -14l7 -8l-4 -3v-4l-82 51q-273 290 -327 411q-80 153 -86 237q-27 -30 -159 -233q-121 -164 -165 -211q-125 -164 -284 -164l-14 7
q0 28 75 73q165 153 252 291q94 116 262 390q34 72 43 76zM987 2704h28q51 0 100 -96q22 -10 44 -76q0 -57 -188 -356q-56 14 -56 64v20q0 22 68 144q-112 36 -112 140q0 116 116 160zM999 2596l-24 8q-32 -43 -32 -68q0 -34 12 -76h20q88 36 88 80q7 0 12 32q0 10 -28 32z
" />
    <glyph glyph-name="uni1EA9" unicode="&#x1ea9;" horiz-adv-x="986" 
d="M463 910q167 18 295 -170l1 -4q51 74 103 200l11 9l12 2q22 2 53 -83l-47 -122q-69 -225 -58 -376q10 -148 125 -327q-119 -92 -166 32q-48 128 -64 261l-7 68l3 4v4l-8 -1q-211 -378 -400 -397l-24 -3q-125 -14 -235 133q-30 59 -36 116l-4 32q-18 176 163 444
q139 163 283 178zM120 235l3 -28q12 -120 90 -136l28 3q193 21 505 629q-32 65 -98 94q-57 34 -132 26q-224 -22 -370 -385q-34 -129 -26 -203zM740 2304q43 0 83 -55l-11 -127q0 -280 291 -564l101 -113q21 -27 21 -40l-3 -14l7 -8l-4 -3v-4l-82 51q-273 289 -327 411
q-80 153 -86 237q-27 -30 -159 -233q-121 -164 -165 -211q-125 -164 -284 -164l-14 7q0 28 75 73q165 153 252 291q94 116 262 390q34 72 43 76zM1147 2445h28q51 0 100 -96q22 -10 44 -76q0 -57 -188 -356q-56 14 -56 64v20q0 22 68 144q-112 36 -112 140q0 116 116 160z
M1159 2337l-24 8q-32 -43 -32 -68q0 -34 12 -76h20q88 36 88 80q7 0 12 32q0 10 -28 32z" />
    <glyph glyph-name="uni1EAA" unicode="&#x1eaa;" horiz-adv-x="854" 
d="M513 1883l16 8q56 -20 56 -112q12 -542 40 -724q96 -801 204 -1156q50 -180 124 -340q150 -272 388 -272h16q318 0 464 272q56 126 56 196q0 138 -64 196v4h-28q-91 0 -184 -164q-16 -52 -16 -84q0 -21 36 -52l-4 -4h-12q-112 43 -112 124v8q0 136 168 232l64 12h4
q117 0 216 -152q32 -79 32 -176v-12q0 -120 -124 -292q-181 -176 -444 -176q-163 0 -344 120q-113 86 -168 172q-77 104 -164 392q-47 140 -100 424l-12 -4l-92 -4l-32 4l-240 -8q-94 -316 -164 -316q-56 20 -56 40q130 313 264 872l120 660q35 160 92 312zM497 1399h-4
q-89 -592 -208 -988l-4 -12q134 28 336 28q-120 798 -120 972zM603 2523q43 0 83 -55l-11 -127q0 -281 291 -564l101 -113q21 -27 21 -40l-3 -14l7 -8l-4 -3v-4l-82 51q-273 290 -327 411q-80 153 -86 237q-27 -30 -159 -233q-121 -164 -165 -211q-125 -164 -284 -164l-14 7
q0 28 75 73q165 153 252 291q94 116 262 390q34 72 43 76zM475 2800h16q101 0 360 -160q55 -24 72 -24h24q101 0 228 144q13 36 40 36q72 -14 72 -52q0 -70 -196 -172q-49 -12 -112 -12q-97 0 -312 128q-107 64 -148 64q-65 0 -156 -148h-12q-32 3 -32 28q0 69 88 148
q32 20 68 20z" />
    <glyph glyph-name="uni1EAB" unicode="&#x1eab;" horiz-adv-x="986" 
d="M463 910q167 18 295 -170l1 -4q51 74 103 200l11 9l12 2q22 2 53 -83l-47 -122q-69 -225 -58 -376q10 -148 125 -327q-119 -92 -166 32q-48 128 -64 261l-7 68l3 4v4l-8 -1q-211 -378 -400 -397l-24 -3q-125 -14 -235 133q-30 59 -36 116l-4 32q-18 176 163 444
q139 163 283 178zM120 235l3 -28q12 -120 90 -136l28 3q193 21 505 629q-32 65 -98 94q-57 34 -132 26q-224 -22 -370 -385q-34 -129 -26 -203zM713 1929q43 0 83 -55l-11 -127q0 -281 291 -564l101 -113q21 -27 21 -40l-3 -14l7 -8l-4 -3v-4l-82 51q-273 290 -327 411
q-80 153 -86 237q-27 -30 -159 -233q-121 -164 -165 -211q-125 -164 -284 -164l-14 7q0 28 75 73q165 153 252 291q94 116 262 390q34 72 43 76zM446 2389h16q101 0 360 -160q56 -24 72 -24h24q100 0 228 144q14 36 40 36q72 -13 72 -52q0 -70 -196 -172q-49 -12 -112 -12
q-97 0 -312 128q-107 64 -148 64q-65 0 -156 -148h-12q-32 3 -32 28q0 69 88 148q32 20 68 20z" />
    <glyph glyph-name="uni1EAC" unicode="&#x1eac;" horiz-adv-x="854" 
d="M575 2616q43 0 83 -55l-11 -127q0 -280 291 -564l101 -113q21 -27 21 -40l-3 -14l7 -8l-4 -3v-4l-82 51q-273 289 -327 411q-80 153 -86 237q-27 -30 -159 -233q-121 -164 -165 -211q-125 -164 -284 -164l-14 7q0 28 75 73q165 153 252 291q94 116 262 390q34 72 43 76z
M513 1883l16 8q56 -20 56 -112q12 -542 40 -724q96 -801 204 -1156q50 -180 124 -340q150 -272 388 -272h16q318 0 464 272q56 126 56 196q0 138 -64 196v4h-28q-91 0 -184 -164q-16 -52 -16 -84q0 -21 36 -52l-4 -4h-12q-112 43 -112 124v8q0 136 168 232l64 12h4
q117 0 216 -152q32 -79 32 -176v-12q0 -120 -124 -292q-181 -176 -444 -176q-163 0 -344 120q-113 86 -168 172q-77 104 -164 392q-47 140 -100 424l-12 -4l-92 -4l-32 4l-240 -8q-94 -316 -164 -316q-56 20 -56 40q130 313 264 872l120 660q35 160 92 312zM497 1399h-4
q-89 -592 -208 -988l-4 -12q134 28 336 28q-120 798 -120 972zM357 -239q0 25 17.5 42.5t42.5 17.5t43 -17.5t18 -42.5t-18 -42.5t-43 -17.5t-42.5 17.5t-17.5 42.5zM499 3513q43 0 83 -55l-11 -127q0 -281 291 -564l101 -113q21 -27 21 -40l-3 -14l7 -8l-4 -3v-4l-82 51
q-273 290 -327 411q-80 153 -86 237q-27 -30 -159 -233q-121 -164 -165 -211q-125 -164 -284 -164l-14 7q0 28 75 73q165 153 252 291q94 116 262 390q34 72 43 76z" />
    <glyph glyph-name="uni1EAD" unicode="&#x1ead;" horiz-adv-x="986" 
d="M463 910q167 18 295 -170l1 -4q51 74 103 200l11 9l12 2q22 2 53 -83l-47 -122q-69 -225 -58 -376q10 -148 125 -327q-119 -92 -166 32q-48 128 -64 261l-7 68l3 4v4l-8 -1q-211 -378 -400 -397l-24 -3q-125 -14 -235 133q-30 59 -36 116l-4 32q-18 176 163 444
q139 163 283 178zM120 235l3 -28q12 -120 90 -136l28 3q193 21 505 629q-32 65 -98 94q-57 34 -132 26q-224 -22 -370 -385q-34 -129 -26 -203zM357 -239q0 25 17.5 42.5t42.5 17.5t43 -17.5t18 -42.5t-18 -42.5t-43 -17.5t-42.5 17.5t-17.5 42.5zM565 2054q43 0 83 -55
l-11 -127q0 -280 291 -564l101 -113q21 -27 21 -40l-3 -14l7 -8l-4 -3v-4l-82 51q-273 289 -327 411q-80 153 -86 237q-27 -30 -159 -233q-121 -164 -165 -211q-125 -164 -284 -164l-14 7q0 28 75 73q165 153 252 291q94 116 262 390q34 72 43 76z" />
    <glyph glyph-name="uni1EAE" unicode="&#x1eae;" horiz-adv-x="854" 
d="M513 1883l16 8q56 -20 56 -112q12 -542 40 -724q96 -801 204 -1156q50 -180 124 -340q150 -272 388 -272h16q318 0 464 272q56 126 56 196q0 138 -64 196v4h-28q-91 0 -184 -164q-16 -52 -16 -84q0 -21 36 -52l-4 -4h-12q-112 43 -112 124v8q0 136 168 232l64 12h4
q117 0 216 -152q32 -79 32 -176v-12q0 -120 -124 -292q-181 -176 -444 -176q-163 0 -344 120q-113 86 -168 172q-77 104 -164 392q-47 140 -100 424l-12 -4l-92 -4l-32 4l-240 -8q-94 -316 -164 -316q-56 20 -56 40q130 313 264 872l120 660q35 160 92 312zM497 1399h-4
q-89 -592 -208 -988l-4 -12q134 28 336 28q-120 798 -120 972zM114 2265l1 7l7 10q7 -1 36 -33q158 -152 328 -165h7q257 -21 399 226q0 9 8 15q3 -2 6 -26q-42 -131 -165 -217q-103 -68 -249 -56l-17 1q-180 14 -335 188q-26 44 -26 50zM1036 2818l68 40h8q36 -28 36 -52
v-4q-22 -60 -200 -208q-314 -268 -416 -268h-28q-48 0 -72 32v12l172 100q231 178 432 348z" />
    <glyph glyph-name="uni1EAF" unicode="&#x1eaf;" horiz-adv-x="986" 
d="M463 910q167 18 295 -170l1 -4q51 74 103 200l11 9l12 2q22 2 53 -83l-47 -122q-69 -225 -58 -376q10 -148 125 -327q-119 -92 -166 32q-48 128 -64 261l-7 68l3 4v4l-8 -1q-211 -378 -400 -397l-24 -3q-125 -14 -235 133q-30 59 -36 116l-4 32q-18 176 163 444
q139 163 283 178zM120 235l3 -28q12 -120 90 -136l28 3q193 21 505 629q-32 65 -98 94q-57 34 -132 26q-224 -22 -370 -385q-34 -129 -26 -203zM193 1473l1 7l7 10q7 -1 36 -33q158 -152 328 -165h7q257 -21 399 226q0 9 8 15q3 -2 6 -26q-42 -131 -165 -217
q-103 -68 -249 -56l-17 1q-180 14 -335 188q-26 44 -26 50zM1181 2108l68 40h8q36 -28 36 -52v-4q-22 -60 -200 -208q-314 -268 -416 -268h-28q-48 0 -72 32v12l172 100q231 178 432 348z" />
    <glyph glyph-name="uni1EB0" unicode="&#x1eb0;" horiz-adv-x="854" 
d="M513 1883l16 8q56 -20 56 -112q12 -542 40 -724q96 -801 204 -1156q50 -180 124 -340q150 -272 388 -272h16q318 0 464 272q56 126 56 196q0 138 -64 196v4h-28q-91 0 -184 -164q-16 -52 -16 -84q0 -21 36 -52l-4 -4h-12q-112 43 -112 124v8q0 136 168 232l64 12h4
q117 0 216 -152q32 -79 32 -176v-12q0 -120 -124 -292q-181 -176 -444 -176q-163 0 -344 120q-113 86 -168 172q-77 104 -164 392q-47 140 -100 424l-12 -4l-92 -4l-32 4l-240 -8q-94 -316 -164 -316q-56 20 -56 40q130 313 264 872l120 660q35 160 92 312zM497 1399h-4
q-89 -592 -208 -988l-4 -12q134 28 336 28q-120 798 -120 972zM906 2299l-14 11q-142 -247 -399 -226h-7q-170 13 -328 165q-29 32 -36 33l-7 -10l-1 -7q0 -6 26 -50q155 -174 335 -188l17 -1q146 -12 249 56q123 86 165 217zM123 2942l12 8q79 0 156 -180q67 -117 168 -204
q137 -92 224 -92q0 -8 40 -8l8 -12v-4q0 -15 -56 -32h-60q-156 0 -328 208q-134 186 -164 316z" />
    <glyph glyph-name="uni1EB1" unicode="&#x1eb1;" horiz-adv-x="986" 
d="M463 910q167 18 295 -170l1 -4q51 74 103 200l11 9l12 2q22 2 53 -83l-47 -122q-69 -225 -58 -376q10 -148 125 -327q-119 -92 -166 32q-48 128 -64 261l-7 68l3 4v4l-8 -1q-211 -378 -400 -397l-24 -3q-125 -14 -235 133q-30 59 -36 116l-4 32q-18 176 163 444
q139 163 283 178zM120 235l3 -28q12 -120 90 -136l28 3q193 21 505 629q-32 65 -98 94q-57 34 -132 26q-224 -22 -370 -385q-34 -129 -26 -203zM193 1473l1 7l7 10q7 -1 36 -33q158 -152 328 -165h7q257 -21 399 226q0 9 8 15q3 -2 6 -26q-42 -131 -165 -217
q-103 -68 -249 -56l-17 1q-180 14 -335 188q-26 44 -26 50zM246 2095l12 8q80 0 156 -180q68 -117 168 -204q137 -92 224 -92q0 -8 40 -8l8 -12v-4q0 -15 -56 -32h-60q-156 0 -328 208q-134 186 -164 316z" />
    <glyph glyph-name="uni1EB2" unicode="&#x1eb2;" horiz-adv-x="863" 
d="M513 1883l16 8q56 -20 56 -112q12 -542 40 -724q96 -801 204 -1156q50 -180 124 -340q150 -272 388 -272h16q318 0 464 272q56 126 56 196q0 138 -64 196v4h-28q-91 0 -184 -164q-16 -52 -16 -84q0 -21 36 -52l-4 -4h-12q-112 43 -112 124v8q0 136 168 232l64 12h4
q117 0 216 -152q32 -79 32 -176v-12q0 -120 -124 -292q-181 -176 -444 -176q-163 0 -344 120q-113 86 -168 172q-77 104 -164 392q-47 140 -100 424l-12 -4l-92 -4l-32 4l-240 -8q-94 -316 -164 -316q-56 20 -56 40q130 313 264 872l120 660q35 160 92 312zM497 1399h-4
q-89 -592 -208 -988l-4 -12q134 28 336 28q-120 798 -120 972zM906 2299l-14 11q-142 -247 -399 -226h-7q-170 13 -328 165q-29 32 -36 33l-7 -10l-1 -7q0 -6 26 -50q155 -174 335 -188l17 -1q146 -12 249 56q123 86 165 217zM113 2263l1 7l7 10q7 -1 36 -33
q158 -152 328 -165h7q257 -21 399 226q0 9 8 15q3 -2 6 -26q-42 -131 -165 -217q-103 -68 -249 -56l-17 1q-180 14 -335 188q-26 44 -26 50zM578 2813h28q50 0 100 -96q22 -10 44 -76q0 -57 -188 -356q-56 14 -56 64v20q0 22 68 144q-112 36 -112 140q0 116 116 160z
M590 2705l-24 8q-32 -43 -32 -68q0 -34 12 -76h20q88 36 88 80q7 0 12 32q0 10 -28 32z" />
    <glyph glyph-name="uni1EB3" unicode="&#x1eb3;" horiz-adv-x="987" 
d="M463 910q167 18 295 -170l1 -4q51 74 103 200l11 9l12 2q22 2 53 -83l-47 -122q-69 -225 -58 -376q10 -148 125 -327q-119 -92 -166 32q-48 128 -64 261l-7 68l3 4v4l-8 -1q-211 -378 -400 -397l-24 -3q-125 -14 -235 133q-30 59 -36 116l-4 32q-18 176 163 444
q139 163 283 178zM120 235l3 -28q12 -120 90 -136l28 3q193 21 505 629q-32 65 -98 94q-57 34 -132 26q-224 -22 -370 -385q-34 -129 -26 -203zM193 1473l1 7l7 10q7 -1 36 -33q158 -152 328 -165h7q257 -21 399 226q0 9 8 15q3 -2 6 -26q-42 -131 -165 -217
q-103 -68 -249 -56l-17 1q-180 14 -335 188q-26 44 -26 50zM658 2023h28q50 0 100 -96q22 -10 44 -76q0 -57 -188 -356q-56 14 -56 64v20q0 22 68 144q-112 36 -112 140q0 116 116 160zM670 1915l-24 8q-32 -43 -32 -68q0 -34 12 -76h20q88 36 88 80q7 0 12 32q0 10 -28 32z
" />
    <glyph glyph-name="uni1EB4" unicode="&#x1eb4;" horiz-adv-x="897" 
d="M513 1883l16 8q56 -20 56 -112q12 -542 40 -724q96 -801 204 -1156q50 -180 124 -340q150 -272 388 -272h16q318 0 464 272q56 126 56 196q0 138 -64 196v4h-28q-91 0 -184 -164q-16 -52 -16 -84q0 -21 36 -52l-4 -4h-12q-112 43 -112 124v8q0 136 168 232l64 12h4
q117 0 216 -152q32 -79 32 -176v-12q0 -120 -124 -292q-181 -176 -444 -176q-163 0 -344 120q-113 86 -168 172q-77 104 -164 392q-47 140 -100 424l-12 -4l-92 -4l-32 4l-240 -8q-94 -316 -164 -316q-56 20 -56 40q130 313 264 872l120 660q35 160 92 312zM497 1399h-4
q-89 -592 -208 -988l-4 -12q134 28 336 28q-120 798 -120 972zM906 2299l-14 11q-142 -247 -399 -226h-7q-170 13 -328 165q-29 32 -36 33l-7 -10l-1 -7q0 -6 26 -50q155 -174 335 -188l17 -1q146 -12 249 56q123 86 165 217zM99 2615h16q101 0 360 -160q55 -24 72 -24h24
q101 0 228 144q13 36 40 36q72 -13 72 -52q0 -70 -196 -172q-49 -12 -112 -12q-97 0 -312 128q-107 64 -148 64q-65 0 -156 -148h-12q-32 3 -32 28q0 69 88 148q32 20 68 20z" />
    <glyph glyph-name="uni1EB5" unicode="&#x1eb5;" horiz-adv-x="991" 
d="M463 910q167 18 295 -170l1 -4q51 74 103 200l11 9l12 2q22 2 53 -83l-47 -122q-69 -225 -58 -376q10 -148 125 -327q-119 -92 -166 32q-48 128 -64 261l-7 68l3 4v4l-8 -1q-211 -378 -400 -397l-24 -3q-125 -14 -235 133q-30 59 -36 116l-4 32q-18 176 163 444
q139 163 283 178zM120 235l3 -28q12 -120 90 -136l28 3q193 21 505 629q-32 65 -98 94q-57 34 -132 26q-224 -22 -370 -385q-34 -129 -26 -203zM193 1473l1 7l7 10q7 -1 36 -33q158 -152 328 -165h7q257 -21 399 226q0 9 8 15q3 -2 6 -26q-42 -131 -165 -217
q-103 -68 -249 -56l-17 1q-180 14 -335 188q-26 44 -26 50zM151 1827h16q101 0 360 -160q55 -24 72 -24h24q101 0 228 144q13 36 40 36q72 -13 72 -52q0 -70 -196 -172q-49 -12 -112 -12q-97 0 -312 128q-107 64 -148 64q-65 0 -156 -148h-12q-32 3 -32 28q0 69 88 148
q32 20 68 20z" />
    <glyph glyph-name="uni1EB6" unicode="&#x1eb6;" horiz-adv-x="854" 
d="M513 1883l16 8q56 -20 56 -112q12 -542 40 -724q96 -801 204 -1156q50 -180 124 -340q150 -272 388 -272h16q318 0 464 272q56 126 56 196q0 138 -64 196v4h-28q-91 0 -184 -164q-16 -52 -16 -84q0 -21 36 -52l-4 -4h-12q-112 43 -112 124v8q0 136 168 232l64 12h4
q117 0 216 -152q32 -79 32 -176v-12q0 -120 -124 -292q-181 -176 -444 -176q-163 0 -344 120q-113 86 -168 172q-77 104 -164 392q-47 140 -100 424l-12 -4l-92 -4l-32 4l-240 -8q-94 -316 -164 -316q-56 20 -56 40q130 313 264 872l120 660q35 160 92 312zM493 1399h4
q0 -174 120 -972q-202 0 -336 -28l4 12q119 396 208 988zM906 2299l-14 11q-142 -247 -399 -226h-7q-170 13 -328 165q-29 32 -36 33l-7 -10l-1 -7q0 -6 26 -50q155 -174 335 -188l17 -1q146 -12 249 56q123 86 165 217zM513 1883l16 8q56 -20 56 -112q12 -542 40 -724
q96 -801 204 -1156q50 -180 124 -340q150 -272 388 -272h16q318 0 464 272q56 126 56 196q0 138 -64 196v4h-28q-91 0 -184 -164q-16 -52 -16 -84q0 -21 36 -52l-4 -4h-12q-112 43 -112 124v8q0 136 168 232l64 12h4q117 0 216 -152q32 -79 32 -176v-12q0 -120 -124 -292
q-181 -176 -444 -176q-163 0 -344 120q-113 86 -168 172q-77 104 -164 392q-47 140 -100 424l-12 -4l-92 -4l-32 4l-240 -8q-94 -316 -164 -316q-56 20 -56 40q130 313 264 872l120 660q35 160 92 312zM493 1399h4q0 -174 120 -972q-202 0 -336 -28l4 12q119 396 208 988z
M357 -239q0 25 17.5 42.5t42.5 17.5t43 -17.5t18 -42.5t-18 -42.5t-43 -17.5t-42.5 17.5t-17.5 42.5z" />
    <glyph glyph-name="uni1EB7" unicode="&#x1eb7;" horiz-adv-x="986" 
d="M193 1473l1 7l7 10q7 -1 36 -33q158 -152 328 -165h7q257 -21 399 226q0 9 8 15q3 -2 6 -26q-42 -131 -165 -217q-103 -68 -249 -56l-17 1q-180 14 -335 188q-26 44 -26 50zM658 2023h28q50 0 100 -96q22 -10 44 -76q0 -57 -188 -356q-56 14 -56 64v20q0 22 68 144
q-112 36 -112 140q0 116 116 160zM670 1915l-24 8q-32 -43 -32 -68q0 -34 12 -76h20q88 36 88 80q7 0 12 32q0 10 -28 32zM463 910q167 18 295 -170l1 -4q51 74 103 200l11 9l12 2q22 2 53 -83l-47 -122q-69 -225 -58 -376q10 -148 125 -327q-119 -92 -166 32
q-48 128 -64 261l-7 68l3 4v4l-8 -1q-211 -378 -400 -397l-24 -3q-125 -14 -235 133q-30 59 -36 116l-4 32q-18 176 163 444q139 163 283 178zM120 235l3 -28q12 -120 90 -136l28 3q193 21 505 629q-32 65 -98 94q-57 34 -132 26q-224 -22 -370 -385q-34 -129 -26 -203z
M357 -239q0 25 17.5 42.5t42.5 17.5t43 -17.5t18 -42.5t-18 -42.5t-43 -17.5t-42.5 17.5t-17.5 42.5z" />
    <glyph glyph-name="uni1EB8" unicode="&#x1eb8;" horiz-adv-x="1111" 
d="M418 2462q52 0 100 -84q12 -20 12 -52v-28q0 -141 -176 -744h8q177 28 252 28h80q172 0 284 -64q20 -22 20 -32l-4 -4h-4q-135 16 -204 16h-104q-61 0 -300 -32h-44q-12 0 -76 -264q-52 -212 -52 -464q101 40 152 40h48q96 0 136 -64l-8 -8l-20 4q-70 0 -272 -48h-48
q-17 -129 -36 -568q96 -32 176 -32q161 -32 527 40h100q71 0 93 -64q-4 -12 -24 -12h-12q-448 -48 -608 -48h-24q-143 0 -300 37q-28 97 -28 259v4q7 271 32 484l-8 60q8 118 36 296l8 224q0 292 -180 492q-156 225 -156 344q10 100 88 100q113 0 272 -204l20 -48
q9 7 40 124q116 312 204 312zM162 1754q-24 9 -24 16l8 124h4q0 71 -64 192q-77 116 -148 116q-44 -11 -44 -44v-16q0 -144 208 -400q97 -128 116 -252h4q204 712 204 772l8 96q-93 -74 -228 -512q0 -48 -44 -92zM357 -239q0 25 17.5 42.5t42.5 17.5t43 -17.5t18 -42.5
t-18 -42.5t-43 -17.5t-42.5 17.5t-17.5 42.5z" />
    <glyph glyph-name="uni1EB9" unicode="&#x1eb9;" horiz-adv-x="936" 
d="M625 924q97 -4 169 -137l3 -26l-1 -13q-6 -118 -209 -265q-202 -129 -366 -121l-101 19l-1 -5l-5 -33q-8 -156 99 -227q65 -28 129 -33q93 -5 476 42q1 7 29 7q48 -16 48 -32l-1 -4q0 -10 -154 -56q-164 -42 -324 -33q-284 15 -392 268q-13 57 -11 107l2 26
q4 108 136 282q247 246 474 234zM162 485l-28 -62l16 -1q173 -11 436 206q111 114 116 190v4l-8 9l-28 1q-127 7 -330 -131q-148 -131 -174 -216zM357 -239q0 25 17.5 42.5t42.5 17.5t43 -17.5t18 -42.5t-18 -42.5t-43 -17.5t-42.5 17.5t-17.5 42.5z" />
    <glyph glyph-name="uni1EBA" unicode="&#x1eba;" horiz-adv-x="1111" 
d="M418 2462q52 0 100 -84q12 -20 12 -52v-28q0 -141 -176 -744h8q177 28 252 28h80q172 0 284 -64q20 -22 20 -32l-4 -4h-4q-135 16 -204 16h-104q-61 0 -300 -32h-44q-12 0 -76 -264q-52 -212 -52 -464q101 40 152 40h48q96 0 136 -64l-8 -8l-20 4q-70 0 -272 -48h-48
q-17 -129 -36 -568q96 -32 176 -32q161 -32 527 40h100q71 0 93 -64q-4 -12 -24 -12h-12q-448 -48 -608 -48h-24q-143 0 -300 37q-28 97 -28 259v4q7 271 32 484l-8 60q8 118 36 296l8 224q0 292 -180 492q-156 225 -156 344q10 100 88 100q113 0 272 -204l20 -48
q9 7 40 124q116 312 204 312zM162 1754q-24 9 -24 16l8 124h4q0 71 -64 192q-77 116 -148 116q-44 -11 -44 -44v-16q0 -144 208 -400q97 -128 116 -252h4q204 712 204 772l8 96q-93 -74 -228 -512q0 -48 -44 -92zM811 2668h28q51 0 100 -96q22 -10 44 -76q0 -57 -188 -356
q-56 14 -56 64v20q0 22 68 144q-112 36 -112 140q0 116 116 160zM823 2560l-24 8q-32 -43 -32 -68q0 -34 12 -76h20q88 36 88 80q7 0 12 32q0 10 -28 32z" />
    <glyph glyph-name="uni1EBB" unicode="&#x1ebb;" horiz-adv-x="936" 
d="M584 1718h28q50 0 100 -96q22 -10 44 -76q0 -57 -188 -356q-56 14 -56 64v20q0 22 68 144q-112 36 -112 140q0 116 116 160zM596 1610l-24 8q-32 -43 -32 -68q0 -34 12 -76h20q88 36 88 80q7 0 12 32q0 10 -28 32zM625 924q97 -4 169 -137l3 -26l-1 -13
q-6 -118 -209 -265q-202 -129 -366 -121l-101 19l-1 -5l-5 -33q-8 -156 99 -227q65 -28 129 -33q93 -5 476 42q1 7 29 7q48 -16 48 -32l-1 -4q0 -10 -154 -56q-164 -42 -324 -33q-284 15 -392 268q-13 57 -11 107l2 26q4 108 136 282q247 246 474 234zM162 485l-28 -62
l16 -1q173 -11 436 206q111 114 116 190v4l-8 9l-28 1q-127 7 -330 -131q-148 -131 -174 -216z" />
    <glyph glyph-name="uni1EBC" unicode="&#x1ebc;" horiz-adv-x="1111" 
d="M418 2462q52 0 100 -84q12 -20 12 -52v-28q0 -141 -176 -744h8q177 28 252 28h80q172 0 284 -64q20 -22 20 -32l-4 -4h-4q-135 16 -204 16h-104q-61 0 -300 -32h-44q-12 0 -76 -264q-52 -212 -52 -464q101 40 152 40h48q96 0 136 -64l-8 -8l-20 4q-70 0 -272 -48h-48
q-17 -129 -36 -568q96 -32 176 -32q161 -32 527 40h100q71 0 93 -64q-4 -12 -24 -12h-12q-448 -48 -608 -48h-24q-143 0 -300 37q-28 97 -28 259v4q7 271 32 484l-8 60q8 118 36 296l8 224q0 292 -180 492q-156 225 -156 344q10 100 88 100q113 0 272 -204l20 -48
q9 7 40 124q116 312 204 312zM162 1754q-24 9 -24 16l8 124h4q0 71 -64 192q-77 116 -148 116q-44 -11 -44 -44v-16q0 -144 208 -400q97 -128 116 -252h4q204 712 204 772l8 96q-93 -74 -228 -512q0 -48 -44 -92zM227 2812h16q101 0 360 -160q55 -24 72 -24h24
q101 0 228 144q13 36 40 36q72 -14 72 -52q0 -70 -196 -172q-49 -12 -112 -12q-97 0 -312 128q-107 64 -148 64q-65 0 -156 -148h-12q-32 3 -32 28q0 69 88 148q32 20 68 20z" />
    <glyph glyph-name="uni1EBD" unicode="&#x1ebd;" horiz-adv-x="936" 
d="M625 924q97 -4 169 -137l3 -26l-1 -13q-6 -118 -209 -265q-202 -129 -366 -121l-101 19l-1 -5l-5 -33q-8 -156 99 -227q65 -28 129 -33q93 -5 476 42q1 7 29 7q48 -16 48 -32l-1 -4q0 -10 -154 -56q-164 -42 -324 -33q-284 15 -392 268q-13 57 -11 107l2 26
q4 108 136 282q247 246 474 234zM162 485l-28 -62l16 -1q173 -11 436 206q111 114 116 190v4l-8 9l-28 1q-127 7 -330 -131q-148 -131 -174 -216zM140 1353h16q101 0 360 -160q56 -24 72 -24h24q100 0 228 144q14 36 40 36q72 -13 72 -52q0 -70 -196 -172q-50 -12 -112 -12
q-97 0 -312 128q-107 64 -148 64q-65 0 -156 -148h-12q-32 3 -32 28q0 69 88 148q32 20 68 20z" />
    <glyph glyph-name="uni1EBE" unicode="&#x1ebe;" horiz-adv-x="1111" 
d="M418 2462q52 0 100 -84q12 -20 12 -52v-28q0 -141 -176 -744h8q177 28 252 28h80q172 0 284 -64q20 -22 20 -32l-4 -4h-4q-135 16 -204 16h-104q-61 0 -300 -32h-44q-12 0 -76 -264q-52 -212 -52 -464q101 40 152 40h48q96 0 136 -64l-8 -8l-20 4q-70 0 -272 -48h-48
q-17 -129 -36 -568q96 -32 176 -32q161 -32 527 40h100q71 0 93 -64q-4 -12 -24 -12h-12q-448 -48 -608 -48h-24q-143 0 -300 37q-28 97 -28 259v4q7 271 32 484l-8 60q8 118 36 296l8 224q0 292 -180 492q-156 225 -156 344q10 100 88 100q113 0 272 -204l20 -48
q9 7 40 124q116 312 204 312zM162 1754q-24 9 -24 16l8 124h4q0 71 -64 192q-77 116 -148 116q-44 -11 -44 -44v-16q0 -144 208 -400q97 -128 116 -252h4q204 712 204 772l8 96q-93 -74 -228 -512q0 -48 -44 -92zM753 2563q43 0 83 -55l-11 -127q0 -281 291 -564l101 -113
q21 -27 21 -40l-3 -14l7 -8l-4 -3v-4l-82 51q-273 290 -327 411q-80 153 -86 237q-27 -30 -159 -233q-121 -164 -165 -211q-125 -164 -284 -164l-14 7q0 28 75 73q165 153 252 291q94 116 262 390q34 72 43 76zM1627 2652l68 40h8q36 -29 36 -52v-4q-22 -60 -200 -208
q-314 -268 -416 -268h-28q-48 0 -72 32v12l172 100q231 178 432 348z" />
    <glyph glyph-name="uni1EBF" unicode="&#x1ebf;" horiz-adv-x="936" 
d="M625 924q97 -4 169 -137l3 -26l-1 -13q-6 -118 -209 -265q-202 -129 -366 -121l-101 19l-1 -5l-5 -33q-8 -156 99 -227q65 -28 129 -33q93 -5 476 42q1 7 29 7q48 -16 48 -32l-1 -4q0 -10 -154 -56q-164 -42 -324 -33q-284 15 -392 268q-13 57 -11 107l2 26
q4 108 136 282q247 246 474 234zM162 485l-28 -62l16 -1q173 -11 436 206q111 114 116 190v4l-8 9l-28 1q-127 7 -330 -131q-148 -131 -174 -216zM525 2054q43 0 83 -55l-11 -127q0 -280 291 -564l101 -113q21 -27 21 -40l-3 -14l7 -8l-4 -3v-4l-82 51q-273 289 -327 411
q-80 153 -86 237q-27 -30 -159 -233q-121 -164 -165 -211q-125 -164 -284 -164l-14 7q0 28 75 73q165 153 252 291q94 116 262 390q34 72 43 76zM1543 2189l68 40h8q36 -29 36 -52v-4q-22 -60 -200 -208q-314 -268 -416 -268h-28q-48 0 -72 32v12l172 100q231 179 432 348z
" />
    <glyph glyph-name="uni1EC0" unicode="&#x1ec0;" horiz-adv-x="1111" 
d="M418 2462q52 0 100 -84q12 -20 12 -52v-28q0 -141 -176 -744h8q177 28 252 28h80q172 0 284 -64q20 -22 20 -32l-4 -4h-4q-135 16 -204 16h-104q-61 0 -300 -32h-44q-12 0 -76 -264q-52 -212 -52 -464q101 40 152 40h48q96 0 136 -64l-8 -8l-20 4q-70 0 -272 -48h-48
q-17 -129 -36 -568q96 -32 176 -32q161 -32 527 40h100q71 0 93 -64q-4 -12 -24 -12h-12q-448 -48 -608 -48h-24q-143 0 -300 37q-28 97 -28 259v4q7 271 32 484l-8 60q8 118 36 296l8 224q0 292 -180 492q-156 225 -156 344q10 100 88 100q113 0 272 -204l20 -48
q9 7 40 124q116 312 204 312zM162 1754q-24 9 -24 16l8 124h4q0 71 -64 192q-77 116 -148 116q-44 -11 -44 -44v-16q0 -144 208 -400q97 -128 116 -252h4q204 712 204 772l8 96q-93 -74 -228 -512q0 -48 -44 -92zM753 2563q43 0 83 -55l-11 -127q0 -281 291 -564l101 -113
q21 -27 21 -40l-3 -14l7 -8l-4 -3v-4l-82 51q-273 290 -327 411q-80 153 -86 237q-27 -30 -159 -233q-121 -164 -165 -211q-125 -164 -284 -164l-14 7q0 28 75 73q165 153 252 291q94 116 262 390q34 72 43 76zM943 2681l12 8q79 0 156 -180q67 -117 168 -204
q137 -92 224 -92q0 -8 40 -8l8 -12v-4q0 -15 -56 -32h-60q-156 0 -328 208q-134 186 -164 316z" />
    <glyph glyph-name="uni1EC1" unicode="&#x1ec1;" horiz-adv-x="936" 
d="M625 924q97 -4 169 -137l3 -26l-1 -13q-6 -118 -209 -265q-202 -129 -366 -121l-101 19l-1 -5l-5 -33q-8 -156 99 -227q65 -28 129 -33q93 -5 476 42q1 7 29 7q48 -16 48 -32l-1 -4q0 -10 -154 -56q-164 -42 -324 -33q-284 15 -392 268q-13 57 -11 107l2 26
q4 108 136 282q247 246 474 234zM162 485l-28 -62l16 -1q173 -11 436 206q111 114 116 190v4l-8 9l-28 1q-127 7 -330 -131q-148 -131 -174 -216zM525 2054q43 0 83 -55l-11 -127q0 -280 291 -564l101 -113q21 -27 21 -40l-3 -14l7 -8l-4 -3v-4l-82 51q-273 289 -327 411
q-80 153 -86 237q-27 -30 -159 -233q-121 -164 -165 -211q-125 -164 -284 -164l-14 7q0 28 75 73q165 153 252 291q94 116 262 390q34 72 43 76zM740 2010l12 8q80 0 156 -180q68 -117 168 -204q137 -92 224 -92q0 -8 40 -8l8 -12v-4q0 -15 -56 -32h-60q-156 0 -328 208
q-134 186 -164 316z" />
    <glyph glyph-name="uni1EC2" unicode="&#x1ec2;" horiz-adv-x="1111" 
d="M418 2462q52 0 100 -84q12 -20 12 -52v-28q0 -141 -176 -744h8q177 28 252 28h80q172 0 284 -64q20 -22 20 -32l-4 -4h-4q-135 16 -204 16h-104q-61 0 -300 -32h-44q-12 0 -76 -264q-52 -212 -52 -464q101 40 152 40h48q96 0 136 -64l-8 -8l-20 4q-70 0 -272 -48h-48
q-17 -129 -36 -568q96 -32 176 -32q161 -32 527 40h100q71 0 93 -64q-4 -12 -24 -12h-12q-448 -48 -608 -48h-24q-143 0 -300 37q-28 97 -28 259v4q7 271 32 484l-8 60q8 118 36 296l8 224q0 292 -180 492q-156 225 -156 344q10 100 88 100q113 0 272 -204l20 -48
q9 7 40 124q116 312 204 312zM162 1754q-24 9 -24 16l8 124h4q0 71 -64 192q-77 116 -148 116q-44 -11 -44 -44v-16q0 -144 208 -400q97 -128 116 -252h4q204 712 204 772l8 96q-93 -74 -228 -512q0 -48 -44 -92zM753 2563q43 0 83 -55l-11 -127q0 -281 291 -564l101 -113
q21 -27 21 -40l-3 -14l7 -8l-4 -3v-4l-82 51q-273 290 -327 411q-80 153 -86 237q-27 -30 -159 -233q-121 -164 -165 -211q-125 -164 -284 -164l-14 7q0 28 75 73q165 153 252 291q94 116 262 390q34 72 43 76zM1172 2676h28q50 0 100 -96q22 -10 44 -76q0 -57 -188 -356
q-56 14 -56 64v20q0 22 68 144q-112 36 -112 140q0 116 116 160zM1184 2568l-24 8q-32 -43 -32 -68q0 -34 12 -76h20q88 36 88 80q7 0 12 32q0 10 -28 32z" />
    <glyph glyph-name="uni1EC3" unicode="&#x1ec3;" horiz-adv-x="936" 
d="M625 924q97 -4 169 -137l3 -26l-1 -13q-6 -118 -209 -265q-202 -129 -366 -121l-101 19l-1 -5l-5 -33q-8 -156 99 -227q65 -28 129 -33q93 -5 476 42q1 7 29 7q48 -16 48 -32l-1 -4q0 -10 -154 -56q-164 -42 -324 -33q-284 15 -392 268q-13 57 -11 107l2 26
q4 108 136 282q247 246 474 234zM162 485l-28 -62l16 -1q173 -11 436 206q111 114 116 190v4l-8 9l-28 1q-127 7 -330 -131q-148 -131 -174 -216zM525 2054q43 0 83 -55l-11 -127q0 -280 291 -564l101 -113q21 -27 21 -40l-3 -14l7 -8l-4 -3v-4l-82 51q-273 289 -327 411
q-80 153 -86 237q-27 -30 -159 -233q-121 -164 -165 -211q-125 -164 -284 -164l-14 7q0 28 75 73q165 153 252 291q94 116 262 390q34 72 43 76zM1010 2169h28q50 0 100 -96q22 -10 44 -76q0 -57 -188 -356q-56 14 -56 64v20q0 22 68 144q-112 36 -112 140q0 116 116 160z
M1022 2061l-24 8q-32 -43 -32 -68q0 -34 12 -76h20q88 36 88 80q7 0 12 32q0 10 -28 32z" />
    <glyph glyph-name="uni1EC4" unicode="&#x1ec4;" horiz-adv-x="1111" 
d="M418 2462q52 0 100 -84q12 -20 12 -52v-28q0 -141 -176 -744h8q177 28 252 28h80q172 0 284 -64q20 -22 20 -32l-4 -4h-4q-135 16 -204 16h-104q-61 0 -300 -32h-44q-12 0 -76 -264q-52 -212 -52 -464q101 40 152 40h48q96 0 136 -64l-8 -8l-20 4q-70 0 -272 -48h-48
q-17 -129 -36 -568q96 -32 176 -32q161 -32 527 40h100q71 0 93 -64q-4 -12 -24 -12h-12q-448 -48 -608 -48h-24q-143 0 -300 37q-28 97 -28 259v4q7 271 32 484l-8 60q8 118 36 296l8 224q0 292 -180 492q-156 225 -156 344q10 100 88 100q113 0 272 -204l20 -48
q9 7 40 124q116 312 204 312zM162 1754q-24 9 -24 16l8 124h4q0 71 -64 192q-77 116 -148 116q-44 -11 -44 -44v-16q0 -144 208 -400q97 -128 116 -252h4q204 712 204 772l8 96q-93 -74 -228 -512q0 -48 -44 -92zM753 2563q43 0 83 -55l-11 -127q0 -281 291 -564l101 -113
q21 -27 21 -40l-3 -14l7 -8l-4 -3v-4l-82 51q-273 290 -327 411q-80 153 -86 237q-27 -30 -159 -233q-121 -164 -165 -211q-125 -164 -284 -164l-14 7q0 28 75 73q165 153 252 291q94 116 262 390q34 72 43 76zM531 2795h16q101 0 360 -160q55 -24 72 -24h24q101 0 228 144
q13 36 40 36q72 -13 72 -52q0 -70 -196 -172q-50 -12 -112 -12q-97 0 -312 128q-107 64 -148 64q-65 0 -156 -148h-12q-32 3 -32 28q0 69 88 148q32 20 68 20z" />
    <glyph glyph-name="uni1EC5" unicode="&#x1ec5;" horiz-adv-x="936" 
d="M625 924q97 -4 169 -137l3 -26l-1 -13q-6 -118 -209 -265q-202 -129 -366 -121l-101 19l-1 -5l-5 -33q-8 -156 99 -227q65 -28 129 -33q93 -5 476 42q1 7 29 7q48 -16 48 -32l-1 -4q0 -10 -154 -56q-164 -42 -324 -33q-284 15 -392 268q-13 57 -11 107l2 26
q4 108 136 282q247 246 474 234zM162 485l-28 -62l16 -1q173 -11 436 206q111 114 116 190v4l-8 9l-28 1q-127 7 -330 -131q-148 -131 -174 -216zM525 2054q43 0 83 -55l-11 -127q0 -280 291 -564l101 -113q21 -27 21 -40l-3 -14l7 -8l-4 -3v-4l-82 51q-273 289 -327 411
q-80 153 -86 237q-27 -30 -159 -233q-121 -164 -165 -211q-125 -164 -284 -164l-14 7q0 28 75 73q165 153 252 291q94 116 262 390q34 72 43 76zM327 2394h16q101 0 360 -160q55 -24 72 -24h24q101 0 228 144q13 36 40 36q72 -14 72 -52q0 -70 -196 -172q-50 -12 -112 -12
q-97 0 -312 128q-107 64 -148 64q-65 0 -156 -148h-12q-32 3 -32 28q0 69 88 148q32 20 68 20z" />
    <glyph glyph-name="uni1EC6" unicode="&#x1ec6;" horiz-adv-x="1111" 
d="M418 2462q52 0 100 -84q12 -20 12 -52v-28q0 -141 -176 -744h8q177 28 252 28h80q172 0 284 -64q20 -22 20 -32l-4 -4h-4q-135 16 -204 16h-104q-61 0 -300 -32h-44q-12 0 -76 -264q-52 -212 -52 -464q101 40 152 40h48q96 0 136 -64l-8 -8l-20 4q-70 0 -272 -48h-48
q-17 -129 -36 -568q96 -32 176 -32q161 -32 527 40h100q71 0 93 -64q-4 -12 -24 -12h-12q-448 -48 -608 -48h-24q-143 0 -300 37q-28 97 -28 259v4q7 271 32 484l-8 60q8 118 36 296l8 224q0 292 -180 492q-156 225 -156 344q10 100 88 100q113 0 272 -204l20 -48
q9 7 40 124q116 312 204 312zM162 1754q-24 9 -24 16l8 124h4q0 71 -64 192q-77 116 -148 116q-44 -11 -44 -44v-16q0 -144 208 -400q97 -128 116 -252h4q204 712 204 772l8 96q-93 -74 -228 -512q0 -48 -44 -92zM357 -239q0 25 17.5 42.5t42.5 17.5t43 -17.5t18 -42.5
t-18 -42.5t-43 -17.5t-42.5 17.5t-17.5 42.5zM627 3513q43 0 83 -55l-11 -127q0 -281 291 -564l101 -113q21 -27 21 -40l-3 -14l7 -8l-4 -3v-4l-82 51q-273 290 -327 411q-80 153 -86 237q-27 -30 -159 -233q-121 -164 -165 -211q-125 -164 -284 -164l-14 7q0 28 75 73
q165 153 252 291q94 116 262 390q34 72 43 76z" />
    <glyph glyph-name="uni1EC7" unicode="&#x1ec7;" horiz-adv-x="936" 
d="M625 924q97 -4 169 -137l3 -26l-1 -13q-6 -118 -209 -265q-202 -129 -366 -121l-101 19l-1 -5l-5 -33q-8 -156 99 -227q65 -28 129 -33q93 -5 476 42q1 7 29 7q48 -16 48 -32l-1 -4q0 -10 -154 -56q-164 -42 -324 -33q-284 15 -392 268q-13 57 -11 107l2 26
q4 108 136 282q247 246 474 234zM162 485l-28 -62l16 -1q173 -11 436 206q111 114 116 190v4l-8 9l-28 1q-127 7 -330 -131q-148 -131 -174 -216zM357 -239q0 25 17.5 42.5t42.5 17.5t43 -17.5t18 -42.5t-18 -42.5t-43 -17.5t-42.5 17.5t-17.5 42.5zM540 2054q43 0 83 -55
l-11 -127q0 -280 291 -564l101 -113q21 -27 21 -40l-3 -14l7 -8l-4 -3v-4l-82 51q-273 289 -327 411q-80 153 -86 237q-27 -30 -159 -233q-121 -164 -165 -211q-125 -164 -284 -164l-14 7q0 28 75 73q165 153 252 291q94 116 262 390q34 72 43 76z" />
    <glyph glyph-name="uni1EC8" unicode="&#x1ec8;" horiz-adv-x="657" 
d="M141 2185q137 0 229 -213h4q112 142 315 193q104 0 148 -176v-36q0 -139 -204 -504q-239 -518 -240 -700v-52q-39 -504 -116 -716q-31 -18 -38 -18h-4q-35 0 -48 24v8q10 71 62 402q44 259 44 488q0 319 -304 572l-88 100q-80 119 -80 240q0 155 140 304q91 84 180 84z
M-79 1753q0 -191 192 -340q210 -207 236 -340q6 2 60 152q62 159 308 628q56 114 56 172v12q0 14 -48 20q-186 -12 -327 -185v-12q-9 -130 -90 -215l-16 -4q-16 6 -24 20v4l41 168l12 100q-23 144 -52 144q0 11 -52 20h-36q-117 0 -228 -192q-32 -94 -32 -152zM463 2867h28
q51 0 100 -96q22 -10 44 -76q0 -57 -188 -356q-56 14 -56 64v20q0 22 68 144q-112 36 -112 140q0 116 116 160zM475 2759l-24 8q-32 -43 -32 -68q0 -34 12 -76h20q88 36 88 80q7 0 12 32q0 10 -28 32z" />
    <glyph glyph-name="uni1EC9" unicode="&#x1ec9;" horiz-adv-x="449" 
d="M371 1723h28q51 0 100 -96q22 -10 44 -76q0 -57 -188 -356q-56 14 -56 64v20q0 22 68 144q-112 36 -112 140q0 116 116 160zM383 1615l-24 8q-32 -43 -32 -68q0 -34 12 -76h20q88 36 88 80q7 0 12 32q0 10 -28 32zM266 970q88 99 149 50q-75 -165 -155 -365
q-70 -175 -84 -318q-25 -258 61 -322l51 -29l-1 -15q-56 -53 -107 -48l-18 1q-69 47 -91 148q-28 84 -22 138q35 359 217 760z" />
    <glyph glyph-name="uni1ECA" unicode="&#x1eca;" horiz-adv-x="657" 
d="M141 2185q137 0 229 -213h4q112 142 315 193q104 0 148 -176v-36q0 -139 -204 -504q-239 -518 -240 -700v-52q-39 -504 -116 -716q-31 -18 -38 -18h-4q-35 0 -48 24v8q10 71 62 402q44 259 44 488q0 319 -304 572l-88 100q-80 119 -80 240q0 155 140 304q91 84 180 84z
M-79 1753q0 -191 192 -340q210 -207 236 -340q6 2 60 152q62 159 308 628q56 114 56 172v12q0 14 -48 20q-186 -12 -327 -185v-12q-9 -130 -90 -215l-16 -4q-16 6 -24 20v4l41 168l12 100q-23 144 -52 144q0 11 -52 20h-36q-117 0 -228 -192q-32 -94 -32 -152zM123 -248
q0 25 17.5 42.5t42.5 17.5t43 -17.5t18 -42.5t-18 -42.5t-43 -17.5t-42.5 17.5t-17.5 42.5z" />
    <glyph glyph-name="uni1ECB" unicode="&#x1ecb;" horiz-adv-x="562" 
d="M724 1494q87 -7 93 -133l-2 -20q-7 -86 -247 -291q-258 -261 -319 -398q-78 -164 -92 -309q-22 -259 56 -322l46 -29l-1 -15q-51 -52 -97 -48l-16 1q-62 47 -83 148q-25 83 -20 138q31 358 181 599h-4q-87 54 -135 156q-57 133 -47 242q12 140 124 234q50 35 84 32l32 -2
q47 -5 102 -114q105 86 202 111q79 17 143 20zM304 1097l-17 -7q-39 5 -67 66l1 4q74 116 84 226l1 16l-28 2q-52 5 -116 -86q-51 -87 -56 -144q-16 -174 119 -335l12 -1q107 147 343 343q159 121 199 215q-20 19 -34 20l-20 1q-129 12 -301 -94q-51 -34 -76 -134
q-28 -42 -35 -73q-4 1 -6 -4t-3 -15zM35 -259q0 25 17.5 42.5t42.5 17.5t43 -17.5t18 -42.5t-18 -42.5t-43 -17.5t-42.5 17.5t-17.5 42.5z" />
    <glyph glyph-name="uni1ECC" unicode="&#x1ecc;" horiz-adv-x="2249" 
d="M584 1348h36q180 0 328 -172l68 -112q254 264 592 264q302 0 488 -252q92 -152 92 -248q0 -299 -448 -588q-251 -170 -440 -344l-68 -64l4 -24l-4 -4l-28 8l-28 -28q-25 0 -44 28l16 64q-219 201 -476 272q-316 134 -432 240q-212 197 -212 412q0 208 180 388
q139 118 204 128q87 32 172 32zM680 1280l-20 -4h-16q-246 0 -440 -272q-64 -118 -64 -216v-24q0 -406 712 -632q186 -77 328 -212q119 139 308 276q279 189 432 332q168 165 168 352v16q0 191 -176 292q-141 56 -228 56h-24q-342 0 -640 -324q-19 -88 -40 -88q-28 7 -28 32
v60l8 64q0 110 -140 252q-69 32 -140 40zM1109 -412q0 25 17.5 42.5t42.5 17.5t43 -17.5t18 -42.5t-18 -42.5t-43 -17.5t-42.5 17.5t-17.5 42.5z" />
    <glyph glyph-name="uni1ECD" unicode="&#x1ecd;" horiz-adv-x="1294" 
d="M370 1037q182 -9 252 -265l2 -16l6 -1q81 139 257 199q52 17 107 14h13q171 -9 259 -246q16 -57 13 -109q-11 -212 -260 -419q-91 -62 -311 -160l-164 -83l-23 -19q-25 53 -8 80q-59 120 -147 180q-186 164 -290 304q-61 92 -56 183q8 168 168 292q92 63 182 66zM144 636
l-1 -23q-6 -119 131 -250q198 -195 257 -276l21 -48l6 -1q542 264 588 520q22 73 23 110q4 71 -38 157q-48 55 -121 58l-14 1q-153 8 -309 -178q-57 -69 -58 -124q-20 -59 -35 -57h-6l-16 21l-2 28l9 114q10 184 -85 251l-60 11q-74 4 -186 -93q-98 -113 -104 -221z
M522 -280q0 25 17.5 42.5t42.5 17.5t43 -17.5t18 -42.5t-18 -42.5t-43 -17.5t-42.5 17.5t-17.5 42.5z" />
    <glyph glyph-name="uni1ECE" unicode="&#x1ece;" horiz-adv-x="2249" 
d="M1174 1997h28q50 0 100 -96q22 -10 44 -76q0 -57 -188 -356q-56 14 -56 64v20q0 22 68 144q-112 36 -112 140q0 116 116 160zM1186 1889l-24 8q-32 -43 -32 -68q0 -34 12 -76h20q88 36 88 80q7 0 12 32q0 10 -28 32zM584 1348h36q180 0 328 -172l68 -112q254 264 592 264
q302 0 488 -252q92 -152 92 -248q0 -299 -448 -588q-251 -170 -440 -344l-68 -64l4 -24l-4 -4l-28 8l-28 -28q-25 0 -44 28l16 64q-219 201 -476 272q-316 134 -432 240q-212 197 -212 412q0 208 180 388q139 118 204 128q87 32 172 32zM680 1280l-20 -4h-16
q-246 0 -440 -272q-64 -118 -64 -216v-24q0 -406 712 -632q186 -77 328 -212q119 139 308 276q279 189 432 332q168 165 168 352v16q0 191 -176 292q-141 56 -228 56h-24q-342 0 -640 -324q-19 -88 -40 -88q-28 7 -28 32v60l8 64q0 110 -140 252q-69 32 -140 40z" />
    <glyph glyph-name="uni1ECF" unicode="&#x1ecf;" horiz-adv-x="1294" 
d="M736 1645h28q50 0 100 -96q22 -10 44 -76q0 -57 -188 -356q-56 14 -56 64v20q0 22 68 144q-112 36 -112 140q0 116 116 160zM748 1537l-24 8q-32 -43 -32 -68q0 -34 12 -76h20q88 36 88 80q7 0 12 32q0 10 -28 32zM370 1037q182 -9 252 -265l2 -16l6 -1q81 139 257 199
q52 17 107 14h13q171 -9 259 -246q16 -57 13 -109q-11 -212 -260 -419q-91 -62 -311 -160l-164 -83l-23 -19q-25 53 -8 80q-59 120 -147 180q-186 164 -290 304q-61 92 -56 183q8 168 168 292q92 63 182 66zM144 636l-1 -23q-6 -119 131 -250q198 -195 257 -276l21 -48l6 -1
q542 264 588 520q22 73 23 110q4 71 -38 157q-48 55 -121 58l-14 1q-153 8 -309 -178q-57 -69 -58 -124q-20 -59 -35 -57h-6l-16 21l-2 28l9 114q10 184 -85 251l-60 11q-74 4 -186 -93q-98 -113 -104 -221z" />
    <glyph glyph-name="uni1ED0" unicode="&#x1ed0;" horiz-adv-x="2249" 
d="M584 1348h36q180 0 328 -172l68 -112q254 264 592 264q302 0 488 -252q92 -152 92 -248q0 -299 -448 -588q-251 -170 -440 -344l-68 -64l4 -24l-4 -4l-28 8l-28 -28q-25 0 -44 28l16 64q-219 201 -476 272q-316 134 -432 240q-212 197 -212 412q0 208 180 388
q139 118 204 128q87 32 172 32zM680 1280l-20 -4h-16q-246 0 -440 -272q-64 -118 -64 -216v-24q0 -406 712 -632q186 -77 328 -212q119 139 308 276q279 189 432 332q168 165 168 352v16q0 191 -176 292q-141 56 -228 56h-24q-342 0 -640 -324q-19 -88 -40 -88q-28 7 -28 32
v60l8 64q0 110 -140 252q-69 32 -140 40zM1169 2473q43 0 83 -55l-11 -127q0 -281 291 -564l101 -113q21 -27 21 -40l-3 -14l7 -8l-4 -3v-4l-82 51q-273 290 -327 411q-80 153 -86 237q-27 -30 -159 -233q-121 -164 -165 -211q-125 -164 -284 -164l-14 7q0 28 75 73
q165 153 252 291q94 116 262 390q34 72 43 76zM2027 2644l68 40h8q36 -28 36 -52v-4q-22 -60 -200 -208q-314 -268 -416 -268h-28q-48 0 -72 32v12l172 100q231 178 432 348z" />
    <glyph glyph-name="uni1ED1" unicode="&#x1ed1;" horiz-adv-x="1294" 
d="M370 1037q182 -9 252 -265l2 -16l6 -1q81 139 257 199q52 17 107 14h13q171 -9 259 -246q16 -57 13 -109q-11 -212 -260 -419q-91 -62 -311 -160l-164 -83l-23 -19q-25 53 -8 80q-59 120 -147 180q-186 164 -290 304q-61 92 -56 183q8 168 168 292q92 63 182 66zM144 636
l-1 -23q-6 -119 131 -250q198 -195 257 -276l21 -48l6 -1q542 264 588 520q22 73 23 110q4 71 -38 157q-48 55 -121 58l-14 1q-153 8 -309 -178q-57 -69 -58 -124q-20 -59 -35 -57h-6l-16 21l-2 28l9 114q10 184 -85 251l-60 11q-74 4 -186 -93q-98 -113 -104 -221z
M721 2054q43 0 83 -55l-11 -127q0 -280 291 -564l101 -113q21 -27 21 -40l-3 -14l7 -8l-4 -3v-4l-82 51q-273 289 -327 411q-80 153 -86 237q-27 -30 -159 -233q-121 -164 -165 -211q-125 -164 -284 -164l-14 7q0 28 75 73q165 153 252 291q94 116 262 390q34 72 43 76z
M1673 2109l68 40h8q36 -29 36 -52v-4q-22 -60 -200 -208q-314 -268 -416 -268h-28q-48 0 -72 32v12l172 100q231 179 432 348z" />
    <glyph glyph-name="uni1ED2" unicode="&#x1ed2;" horiz-adv-x="2249" 
d="M584 1348h36q180 0 328 -172l68 -112q254 264 592 264q302 0 488 -252q92 -152 92 -248q0 -299 -448 -588q-251 -170 -440 -344l-68 -64l4 -24l-4 -4l-28 8l-28 -28q-25 0 -44 28l16 64q-219 201 -476 272q-316 134 -432 240q-212 197 -212 412q0 208 180 388
q139 118 204 128q87 32 172 32zM680 1280l-20 -4h-16q-246 0 -440 -272q-64 -118 -64 -216v-24q0 -406 712 -632q186 -77 328 -212q119 139 308 276q279 189 432 332q168 165 168 352v16q0 191 -176 292q-141 56 -228 56h-24q-342 0 -640 -324q-19 -88 -40 -88q-28 7 -28 32
v60l8 64q0 110 -140 252q-69 32 -140 40zM1169 2473q43 0 83 -55l-11 -127q0 -281 291 -564l101 -113q21 -27 21 -40l-3 -14l7 -8l-4 -3v-4l-82 51q-273 290 -327 411q-80 153 -86 237q-27 -30 -159 -233q-121 -164 -165 -211q-125 -164 -284 -164l-14 7q0 28 75 73
q165 153 252 291q94 116 262 390q34 72 43 76zM1365 2675l12 8q79 0 156 -180q67 -117 168 -204q137 -92 224 -92q0 -8 40 -8l8 -12v-4q0 -15 -56 -32h-60q-156 0 -328 208q-134 186 -164 316z" />
    <glyph glyph-name="uni1ED3" unicode="&#x1ed3;" horiz-adv-x="1294" 
d="M370 1037q182 -9 252 -265l2 -16l6 -1q81 139 257 199q52 17 107 14h13q171 -9 259 -246q16 -57 13 -109q-11 -212 -260 -419q-91 -62 -311 -160l-164 -83l-23 -19q-25 53 -8 80q-59 120 -147 180q-186 164 -290 304q-61 92 -56 183q8 168 168 292q92 63 182 66zM144 636
l-1 -23q-6 -119 131 -250q198 -195 257 -276l21 -48l6 -1q542 264 588 520q22 73 23 110q4 71 -38 157q-48 55 -121 58l-14 1q-153 8 -309 -178q-57 -69 -58 -124q-20 -59 -35 -57h-6l-16 21l-2 28l9 114q10 184 -85 251l-60 11q-74 4 -186 -93q-98 -113 -104 -221z
M721 2054q43 0 83 -55l-11 -127q0 -280 291 -564l101 -113q21 -27 21 -40l-3 -14l7 -8l-4 -3v-4l-82 51q-273 289 -327 411q-80 153 -86 237q-27 -30 -159 -233q-121 -164 -165 -211q-125 -164 -284 -164l-14 7q0 28 75 73q165 153 252 291q94 116 262 390q34 72 43 76z
M989 2106l12 8q79 0 156 -180q67 -117 168 -204q137 -92 224 -92q0 -8 40 -8l8 -12v-4q0 -15 -56 -32h-60q-156 0 -328 208q-134 186 -164 316z" />
    <glyph glyph-name="uni1ED4" unicode="&#x1ed4;" horiz-adv-x="2249" 
d="M1657 2455h28q51 0 100 -96q22 -10 44 -76q0 -57 -188 -356q-56 14 -56 64v20q0 22 68 144q-112 36 -112 140q0 116 116 160zM1669 2347l-24 8q-32 -43 -32 -68q0 -34 12 -76h20q88 36 88 80q7 0 12 32q0 10 -28 32zM584 1348h36q180 0 328 -172l68 -112q254 264 592 264
q302 0 488 -252q92 -152 92 -248q0 -299 -448 -588q-251 -170 -440 -344l-68 -64l4 -24l-4 -4l-28 8l-28 -28q-25 0 -44 28l16 64q-219 201 -476 272q-316 134 -432 240q-212 197 -212 412q0 208 180 388q139 118 204 128q87 32 172 32zM680 1280l-20 -4h-16
q-246 0 -440 -272q-64 -118 -64 -216v-24q0 -406 712 -632q186 -77 328 -212q119 139 308 276q279 189 432 332q168 165 168 352v16q0 191 -176 292q-141 56 -228 56h-24q-342 0 -640 -324q-19 -88 -40 -88q-28 7 -28 32v60l8 64q0 110 -140 252q-69 32 -140 40zM1169 2473
q43 0 83 -55l-11 -127q0 -281 291 -564l101 -113q21 -27 21 -40l-3 -14l7 -8l-4 -3v-4l-82 51q-273 290 -327 411q-80 153 -86 237q-27 -30 -159 -233q-121 -164 -165 -211q-125 -164 -284 -164l-14 7q0 28 75 73q165 153 252 291q94 116 262 390q34 72 43 76z" />
    <glyph glyph-name="uni1ED5" unicode="&#x1ed5;" horiz-adv-x="1294" 
d="M1180 2140h28q50 0 100 -96q22 -10 44 -76q0 -57 -188 -356q-56 14 -56 64v20q0 22 68 144q-112 36 -112 140q0 116 116 160zM1192 2032l-24 8q-32 -43 -32 -68q0 -34 12 -76h20q88 36 88 80q7 0 12 32q0 10 -28 32zM370 1037q182 -9 252 -265l2 -16l6 -1q81 139 257 199
q52 17 107 14h13q171 -9 259 -246q16 -57 13 -109q-11 -212 -260 -419q-91 -62 -311 -160l-164 -83l-23 -19q-25 53 -8 80q-59 120 -147 180q-186 164 -290 304q-61 92 -56 183q8 168 168 292q92 63 182 66zM144 636l-1 -23q-6 -119 131 -250q198 -195 257 -276l21 -48l6 -1
q542 264 588 520q22 73 23 110q4 71 -38 157q-48 55 -121 58l-14 1q-153 8 -309 -178q-57 -69 -58 -124q-20 -59 -35 -57h-6l-16 21l-2 28l9 114q10 184 -85 251l-60 11q-74 4 -186 -93q-98 -113 -104 -221zM721 2054q43 0 83 -55l-11 -127q0 -280 291 -564l101 -113
q21 -27 21 -40l-3 -14l7 -8l-4 -3v-4l-82 51q-273 289 -327 411q-80 153 -86 237q-27 -30 -159 -233q-121 -164 -165 -211q-125 -164 -284 -164l-14 7q0 28 75 73q165 153 252 291q94 116 262 390q34 72 43 76z" />
    <glyph glyph-name="uni1ED6" unicode="&#x1ed6;" horiz-adv-x="2249" 
d="M584 1348h36q180 0 328 -172l68 -112q254 264 592 264q302 0 488 -252q92 -152 92 -248q0 -299 -448 -588q-251 -170 -440 -344l-68 -64l4 -24l-4 -4l-28 8l-28 -28q-25 0 -44 28l16 64q-219 201 -476 272q-316 134 -432 240q-212 197 -212 412q0 208 180 388
q139 118 204 128q87 32 172 32zM680 1280l-20 -4h-16q-246 0 -440 -272q-64 -118 -64 -216v-24q0 -406 712 -632q186 -77 328 -212q119 139 308 276q279 189 432 332q168 165 168 352v16q0 191 -176 292q-141 56 -228 56h-24q-342 0 -640 -324q-19 -88 -40 -88q-28 7 -28 32
v60l8 64q0 110 -140 252q-69 32 -140 40zM1169 2473q43 0 83 -55l-11 -127q0 -281 291 -564l101 -113q21 -27 21 -40l-3 -14l7 -8l-4 -3v-4l-82 51q-273 290 -327 411q-80 153 -86 237q-27 -30 -159 -233q-121 -164 -165 -211q-125 -164 -284 -164l-14 7q0 28 75 73
q165 153 252 291q94 116 262 390q34 72 43 76zM939 2804h16q101 0 360 -160q55 -24 72 -24h24q101 0 228 144q13 36 40 36q72 -14 72 -52q0 -70 -196 -172q-49 -12 -112 -12q-97 0 -312 128q-107 64 -148 64q-65 0 -156 -148h-12q-32 3 -32 28q0 69 88 148q32 20 68 20z" />
    <glyph glyph-name="uni1ED7" unicode="&#x1ed7;" horiz-adv-x="1294" 
d="M370 1037q182 -9 252 -265l2 -16l6 -1q81 139 257 199q52 17 107 14h13q171 -9 259 -246q16 -57 13 -109q-11 -212 -260 -419q-91 -62 -311 -160l-164 -83l-23 -19q-25 53 -8 80q-59 120 -147 180q-186 164 -290 304q-61 92 -56 183q8 168 168 292q92 63 182 66zM144 636
l-1 -23q-6 -119 131 -250q198 -195 257 -276l21 -48l6 -1q542 264 588 520q22 73 23 110q4 71 -38 157q-48 55 -121 58l-14 1q-153 8 -309 -178q-57 -69 -58 -124q-20 -59 -35 -57h-6l-16 21l-2 28l9 114q10 184 -85 251l-60 11q-74 4 -186 -93q-98 -113 -104 -221z
M721 2054q43 0 83 -55l-11 -127q0 -280 291 -564l101 -113q21 -27 21 -40l-3 -14l7 -8l-4 -3v-4l-82 51q-273 289 -327 411q-80 153 -86 237q-27 -30 -159 -233q-121 -164 -165 -211q-125 -164 -284 -164l-14 7q0 28 75 73q165 153 252 291q94 116 262 390q34 72 43 76z
M485 2391h16q101 0 360 -160q55 -24 72 -24h24q101 0 228 144q13 36 40 36q72 -13 72 -52q0 -70 -196 -172q-49 -12 -112 -12q-97 0 -312 128q-107 64 -148 64q-65 0 -156 -148h-12q-32 3 -32 28q0 69 88 148q32 20 68 20z" />
    <glyph glyph-name="uni1ED8" unicode="&#x1ed8;" horiz-adv-x="2249" 
d="M1210 2409q43 0 83 -55l-11 -127q0 -281 291 -564l101 -113q21 -27 21 -40l-3 -14l7 -8l-4 -3v-4l-82 51q-273 290 -327 411q-80 153 -86 237q-27 -30 -159 -233q-121 -164 -165 -211q-125 -164 -284 -164l-14 7q0 28 75 73q165 153 252 291q94 116 262 390q34 72 43 76z
M584 1348h36q180 0 328 -172l68 -112q254 264 592 264q302 0 488 -252q92 -152 92 -248q0 -299 -448 -588q-251 -170 -440 -344l-68 -64l4 -24l-4 -4l-28 8l-28 -28q-25 0 -44 28l16 64q-219 201 -476 272q-316 134 -432 240q-212 197 -212 412q0 208 180 388
q139 118 204 128q87 32 172 32zM680 1280l-20 -4h-16q-246 0 -440 -272q-64 -118 -64 -216v-24q0 -406 712 -632q186 -77 328 -212q119 139 308 276q279 189 432 332q168 165 168 352v16q0 191 -176 292q-141 56 -228 56h-24q-342 0 -640 -324q-19 -88 -40 -88q-28 7 -28 32
v60l8 64q0 110 -140 252q-69 32 -140 40zM1109 -412q0 25 17.5 42.5t42.5 17.5t43 -17.5t18 -42.5t-18 -42.5t-43 -17.5t-42.5 17.5t-17.5 42.5zM1196 3513q43 0 83 -55l-11 -127q0 -281 291 -564l101 -113q21 -27 21 -40l-3 -14l7 -8l-4 -3v-4l-82 51q-273 290 -327 411
q-80 153 -86 237q-27 -30 -159 -233q-121 -164 -165 -211q-125 -164 -284 -164l-14 7q0 28 75 73q165 153 252 291q94 116 262 390q34 72 43 76z" />
    <glyph glyph-name="uni1ED9" unicode="&#x1ed9;" horiz-adv-x="1294" 
d="M370 1037q182 -9 252 -265l2 -16l6 -1q81 139 257 199q52 17 107 14h13q171 -9 259 -246q16 -57 13 -109q-11 -212 -260 -419q-91 -62 -311 -160l-164 -83l-23 -19q-25 53 -8 80q-59 120 -147 180q-186 164 -290 304q-61 92 -56 183q8 168 168 292q92 63 182 66zM144 636
l-1 -23q-6 -119 131 -250q198 -195 257 -276l21 -48l6 -1q542 264 588 520q22 73 23 110q4 71 -38 157q-48 55 -121 58l-14 1q-153 8 -309 -178q-57 -69 -58 -124q-20 -59 -35 -57h-6l-16 21l-2 28l9 114q10 184 -85 251l-60 11q-74 4 -186 -93q-98 -113 -104 -221z
M522 -280q0 25 17.5 42.5t42.5 17.5t43 -17.5t18 -42.5t-18 -42.5t-43 -17.5t-42.5 17.5t-17.5 42.5zM718 2054q43 0 83 -55l-11 -127q0 -280 291 -564l101 -113q21 -27 21 -40l-3 -14l7 -8l-4 -3v-4l-82 51q-273 289 -327 411q-80 153 -86 237q-27 -30 -159 -233
q-121 -164 -165 -211q-125 -164 -284 -164l-14 7q0 28 75 73q165 153 252 291q94 116 262 390q34 72 43 76z" />
    <glyph glyph-name="uni1EDA" unicode="&#x1eda;" horiz-adv-x="2249" 
d="M584 1348h36q180 0 328 -172l68 -112q254 264 592 264q302 0 488 -252q92 -152 92 -248q0 -299 -448 -588q-251 -170 -440 -344l-68 -64l4 -24l-4 -4l-28 8l-28 -28q-25 0 -44 28l16 64q-219 201 -476 272q-316 134 -432 240q-212 197 -212 412q0 208 180 388
q139 118 204 128q87 32 172 32zM680 1280l-20 -4h-16q-246 0 -440 -272q-64 -118 -64 -216v-24q0 -406 712 -632q186 -77 328 -212q119 139 308 276q279 189 432 332q168 165 168 352v16q0 191 -176 292q-141 56 -228 56h-24q-342 0 -640 -324q-19 -88 -40 -88q-28 7 -28 32
v60l8 64q0 110 -140 252q-69 32 -140 40zM2029 1688h28q51 0 100 -96q22 -10 44 -76q0 -57 -188 -356q-56 14 -56 64v20q0 22 68 144q-112 36 -112 140q0 116 116 160zM2041 1580l-24 8q-32 -43 -32 -68q0 -34 12 -76h20q88 36 88 80q7 0 12 32q0 10 -28 32zM1504 2102
l68 40h8q36 -28 36 -52v-4q-22 -60 -200 -208q-314 -268 -416 -268h-28q-48 0 -72 32v12l172 100q231 178 432 348z" />
    <glyph glyph-name="uni1EDB" unicode="&#x1edb;" horiz-adv-x="1294" 
d="M370 1037q182 -9 252 -265l2 -16l6 -1q81 139 257 199q52 17 107 14h13q171 -9 259 -246q16 -57 13 -109q-11 -212 -260 -419q-91 -62 -311 -160l-164 -83l-23 -19q-25 53 -8 80q-59 120 -147 180q-186 164 -290 304q-61 92 -56 183q8 168 168 292q92 63 182 66zM144 636
l-1 -23q-6 -119 131 -250q198 -195 257 -276l21 -48l6 -1q542 264 588 520q22 73 23 110q4 71 -38 157q-48 55 -121 58l-14 1q-153 8 -309 -178q-57 -69 -58 -124q-20 -59 -35 -57h-6l-16 21l-2 28l9 114q10 184 -85 251l-60 11q-74 4 -186 -93q-98 -113 -104 -221z
M1265 1309h28q51 0 100 -96q22 -10 44 -76q0 -57 -188 -356q-56 14 -56 64v20q0 22 68 144q-112 36 -112 140q0 116 116 160zM1277 1201l-24 8q-32 -43 -32 -68q0 -34 12 -76h20q88 36 88 80q7 0 12 32q0 10 -28 32zM893 1639l68 40h8q36 -29 36 -52v-4q-22 -60 -200 -208
q-314 -268 -416 -268h-28q-48 0 -72 32v12l172 100q231 179 432 348z" />
    <glyph glyph-name="uni1EDC" unicode="&#x1edc;" horiz-adv-x="2249" 
d="M584 1348h36q180 0 328 -172l68 -112q254 264 592 264q302 0 488 -252q92 -152 92 -248q0 -299 -448 -588q-251 -170 -440 -344l-68 -64l4 -24l-4 -4l-28 8l-28 -28q-25 0 -44 28l16 64q-219 201 -476 272q-316 134 -432 240q-212 197 -212 412q0 208 180 388
q139 118 204 128q87 32 172 32zM680 1280l-20 -4h-16q-246 0 -440 -272q-64 -118 -64 -216v-24q0 -406 712 -632q186 -77 328 -212q119 139 308 276q279 189 432 332q168 165 168 352v16q0 191 -176 292q-141 56 -228 56h-24q-342 0 -640 -324q-19 -88 -40 -88q-28 7 -28 32
v60l8 64q0 110 -140 252q-69 32 -140 40zM2029 1688h28q51 0 100 -96q22 -10 44 -76q0 -57 -188 -356q-56 14 -56 64v20q0 22 68 144q-112 36 -112 140q0 116 116 160zM2041 1580l-24 8q-32 -43 -32 -68q0 -34 12 -76h20q88 36 88 80q7 0 12 32q0 10 -28 32zM850 2146l12 8
q80 0 156 -180q68 -117 168 -204q137 -92 224 -92q0 -8 40 -8l8 -12v-4q0 -15 -56 -32h-60q-156 0 -328 208q-134 186 -164 316z" />
    <glyph glyph-name="uni1EDD" unicode="&#x1edd;" horiz-adv-x="1294" 
d="M370 1037q182 -9 252 -265l2 -16l6 -1q81 139 257 199q52 17 107 14h13q171 -9 259 -246q16 -57 13 -109q-11 -212 -260 -419q-91 -62 -311 -160l-164 -83l-23 -19q-25 53 -8 80q-59 120 -147 180q-186 164 -290 304q-61 92 -56 183q8 168 168 292q92 63 182 66zM144 636
l-1 -23q-6 -119 131 -250q198 -195 257 -276l21 -48l6 -1q542 264 588 520q22 73 23 110q4 71 -38 157q-48 55 -121 58l-14 1q-153 8 -309 -178q-57 -69 -58 -124q-20 -59 -35 -57h-6l-16 21l-2 28l9 114q10 184 -85 251l-60 11q-74 4 -186 -93q-98 -113 -104 -221z
M1265 1309h28q51 0 100 -96q22 -10 44 -76q0 -57 -188 -356q-56 14 -56 64v20q0 22 68 144q-112 36 -112 140q0 116 116 160zM1277 1201l-24 8q-32 -43 -32 -68q0 -34 12 -76h20q88 36 88 80q7 0 12 32q0 10 -28 32zM364 1623l12 8q80 0 156 -180q68 -117 168 -204
q137 -92 224 -92q0 -8 40 -8l8 -12v-4q0 -15 -56 -32h-60q-156 0 -328 208q-134 186 -164 316z" />
    <glyph glyph-name="uni1EDE" unicode="&#x1ede;" horiz-adv-x="2249" 
d="M1189 1989h28q51 0 100 -96q22 -10 44 -76q0 -57 -188 -356q-56 14 -56 64v20q0 22 68 144q-112 36 -112 140q0 116 116 160zM1201 1881l-24 8q-32 -43 -32 -68q0 -34 12 -76h20q88 36 88 80q7 0 12 32q0 10 -28 32zM584 1348h36q180 0 328 -172l68 -112q254 264 592 264
q302 0 488 -252q92 -152 92 -248q0 -299 -448 -588q-251 -170 -440 -344l-68 -64l4 -24l-4 -4l-28 8l-28 -28q-25 0 -44 28l16 64q-219 201 -476 272q-316 134 -432 240q-212 197 -212 412q0 208 180 388q139 118 204 128q87 32 172 32zM680 1280l-20 -4h-16
q-246 0 -440 -272q-64 -118 -64 -216v-24q0 -406 712 -632q186 -77 328 -212q119 139 308 276q279 189 432 332q168 165 168 352v16q0 191 -176 292q-141 56 -228 56h-24q-342 0 -640 -324q-19 -88 -40 -88q-28 7 -28 32v60l8 64q0 110 -140 252q-69 32 -140 40zM2029 1688
h28q51 0 100 -96q22 -10 44 -76q0 -57 -188 -356q-56 14 -56 64v20q0 22 68 144q-112 36 -112 140q0 116 116 160zM2041 1580l-24 8q-32 -43 -32 -68q0 -34 12 -76h20q88 36 88 80q7 0 12 32q0 10 -28 32z" />
    <glyph glyph-name="uni1EDF" unicode="&#x1edf;" horiz-adv-x="1294" 
d="M370 1037q182 -9 252 -265l2 -16l6 -1q81 139 257 199q52 17 107 14h13q171 -9 259 -246q16 -57 13 -109q-11 -212 -260 -419q-91 -62 -311 -160l-164 -83l-23 -19q-25 53 -8 80q-59 120 -147 180q-186 164 -290 304q-61 92 -56 183q8 168 168 292q92 63 182 66zM144 636
l-1 -23q-6 -119 131 -250q198 -195 257 -276l21 -48l6 -1q542 264 588 520q22 73 23 110q4 71 -38 157q-48 55 -121 58l-14 1q-153 8 -309 -178q-57 -69 -58 -124q-20 -59 -35 -57h-6l-16 21l-2 28l9 114q10 184 -85 251l-60 11q-74 4 -186 -93q-98 -113 -104 -221z
M1265 1309h28q51 0 100 -96q22 -10 44 -76q0 -57 -188 -356q-56 14 -56 64v20q0 22 68 144q-112 36 -112 140q0 116 116 160zM1277 1201l-24 8q-32 -43 -32 -68q0 -34 12 -76h20q88 36 88 80q7 0 12 32q0 10 -28 32zM784 1710h28q50 0 100 -96q22 -10 44 -76
q0 -57 -188 -356q-56 14 -56 64v20q0 22 68 144q-112 36 -112 140q0 116 116 160zM796 1602l-24 8q-32 -43 -32 -68q0 -34 12 -76h20q88 36 88 80q7 0 12 32q0 10 -28 32z" />
    <glyph glyph-name="uni1EE0" unicode="&#x1ee0;" horiz-adv-x="2249" 
d="M584 1348h36q180 0 328 -172l68 -112q254 264 592 264q302 0 488 -252q92 -152 92 -248q0 -299 -448 -588q-251 -170 -440 -344l-68 -64l4 -24l-4 -4l-28 8l-28 -28q-25 0 -44 28l16 64q-219 201 -476 272q-316 134 -432 240q-212 197 -212 412q0 208 180 388
q139 118 204 128q87 32 172 32zM680 1280l-20 -4h-16q-246 0 -440 -272q-64 -118 -64 -216v-24q0 -406 712 -632q186 -77 328 -212q119 139 308 276q279 189 432 332q168 165 168 352v16q0 191 -176 292q-141 56 -228 56h-24q-342 0 -640 -324q-19 -88 -40 -88q-28 7 -28 32
v60l8 64q0 110 -140 252q-69 32 -140 40zM2029 1688h28q51 0 100 -96q22 -10 44 -76q0 -57 -188 -356q-56 14 -56 64v20q0 22 68 144q-112 36 -112 140q0 116 116 160zM2041 1580l-24 8q-32 -43 -32 -68q0 -34 12 -76h20q88 36 88 80q7 0 12 32q0 10 -28 32zM807 1885h16
q101 0 360 -160q55 -24 72 -24h24q101 0 228 144q13 36 40 36q72 -13 72 -52q0 -70 -196 -172q-49 -12 -112 -12q-97 0 -312 128q-107 64 -148 64q-65 0 -156 -148h-12q-32 3 -32 28q0 69 88 148q32 20 68 20z" />
    <glyph glyph-name="uni1EE1" unicode="&#x1ee1;" horiz-adv-x="1294" 
d="M370 1037q182 -9 252 -265l2 -16l6 -1q81 139 257 199q52 17 107 14h13q171 -9 259 -246q16 -57 13 -109q-11 -212 -260 -419q-91 -62 -311 -160l-164 -83l-23 -19q-25 53 -8 80q-59 120 -147 180q-186 164 -290 304q-61 92 -56 183q8 168 168 292q92 63 182 66zM144 636
l-1 -23q-6 -119 131 -250q198 -195 257 -276l21 -48l6 -1q542 264 588 520q22 73 23 110q4 71 -38 157q-48 55 -121 58l-14 1q-153 8 -309 -178q-57 -69 -58 -124q-20 -59 -35 -57h-6l-16 21l-2 28l9 114q10 184 -85 251l-60 11q-74 4 -186 -93q-98 -113 -104 -221z
M1265 1309h28q51 0 100 -96q22 -10 44 -76q0 -57 -188 -356q-56 14 -56 64v20q0 22 68 144q-112 36 -112 140q0 116 116 160zM1277 1201l-24 8q-32 -43 -32 -68q0 -34 12 -76h20q88 36 88 80q7 0 12 32q0 10 -28 32zM319 1353h16q101 0 360 -160q55 -24 72 -24h24
q101 0 228 144q13 36 40 36q72 -13 72 -52q0 -70 -196 -172q-49 -12 -112 -12q-97 0 -312 128q-107 64 -148 64q-65 0 -156 -148h-12q-32 3 -32 28q0 69 88 148q32 20 68 20z" />
    <glyph glyph-name="uni1EE2" unicode="&#x1ee2;" horiz-adv-x="2249" 
d="M584 1348h36q180 0 328 -172l68 -112q254 264 592 264q302 0 488 -252q92 -152 92 -248q0 -299 -448 -588q-251 -170 -440 -344l-68 -64l4 -24l-4 -4l-28 8l-28 -28q-25 0 -44 28l16 64q-219 201 -476 272q-316 134 -432 240q-212 197 -212 412q0 208 180 388
q139 118 204 128q87 32 172 32zM680 1280l-20 -4h-16q-246 0 -440 -272q-64 -118 -64 -216v-24q0 -406 712 -632q186 -77 328 -212q119 139 308 276q279 189 432 332q168 165 168 352v16q0 191 -176 292q-141 56 -228 56h-24q-342 0 -640 -324q-19 -88 -40 -88q-28 7 -28 32
v60l8 64q0 110 -140 252q-69 32 -140 40zM2029 1688h28q51 0 100 -96q22 -10 44 -76q0 -57 -188 -356q-56 14 -56 64v20q0 22 68 144q-112 36 -112 140q0 116 116 160zM2041 1580l-24 8q-32 -43 -32 -68q0 -34 12 -76h20q88 36 88 80q7 0 12 32q0 10 -28 32zM1128 -425
q0 25 17.5 42.5t42.5 17.5t43 -17.5t18 -42.5t-18 -42.5t-43 -17.5t-42.5 17.5t-17.5 42.5z" />
    <glyph glyph-name="uni1EE3" unicode="&#x1ee3;" horiz-adv-x="1294" 
d="M370 1037q182 -9 252 -265l2 -16l6 -1q81 139 257 199q52 17 107 14h13q171 -9 259 -246q16 -57 13 -109q-11 -212 -260 -419q-91 -62 -311 -160l-164 -83l-23 -19q-25 53 -8 80q-59 120 -147 180q-186 164 -290 304q-61 92 -56 183q8 168 168 292q92 63 182 66zM144 636
l-1 -23q-6 -119 131 -250q198 -195 257 -276l21 -48l6 -1q542 264 588 520q22 73 23 110q4 71 -38 157q-48 55 -121 58l-14 1q-153 8 -309 -178q-57 -69 -58 -124q-20 -59 -35 -57h-6l-16 21l-2 28l9 114q10 184 -85 251l-60 11q-74 4 -186 -93q-98 -113 -104 -221z
M1265 1309h28q51 0 100 -96q22 -10 44 -76q0 -57 -188 -356q-56 14 -56 64v20q0 22 68 144q-112 36 -112 140q0 116 116 160zM1277 1201l-24 8q-32 -43 -32 -68q0 -34 12 -76h20q88 36 88 80q7 0 12 32q0 10 -28 32zM510 -263q0 25 17.5 42.5t42.5 17.5t43 -17.5t18 -42.5
t-18 -42.5t-43 -17.5t-42.5 17.5t-17.5 42.5z" />
    <glyph glyph-name="uni1EE4" unicode="&#x1ee4;" horiz-adv-x="1106" 
d="M1131 1857q41 0 84 -84l8 -40q0 -157 -192 -752q-24 -85 -24 -140l-20 -48q-36 -171 -36 -468l33 -322l-4 -4h-16q-48 0 -65 24q-40 154 -52 290h-4q-152 -320 -320 -320h-44q-256 -4 -363 217t-75 511q13 395 154 820q75 36 87 -24l-51 -172q-72 -309 -72 -620v-32
q-42 -441 202 -631l86 -21q181 0 392 544q16 23 52 296q44 152 44 176q-4 60 -100 244q-55 109 -172 276q-72 119 -72 168v4q0 49 96 68h20q77 0 180 -132l20 -40h8q12 54 156 192q29 20 60 20zM683 1697q0 -54 204 -348q45 -75 84 -168q9 0 76 216q84 291 84 348
q-167 -158 -204 -244q0 -48 -24 -64h-12q-24 13 -24 36v60q-20 190 -104 212h-16q-64 -9 -64 -48zM357 -239q0 25 17.5 42.5t42.5 17.5t43 -17.5t18 -42.5t-18 -42.5t-43 -17.5t-42.5 17.5t-17.5 42.5z" />
    <glyph glyph-name="uni1EE5" unicode="&#x1ee5;" horiz-adv-x="928" 
d="M246 928l16 1q38 -13 40 -38v-4q-74 -180 -89 -263q-15 -92 -32 -236q-24 -177 88 -279q113 -102 252 174q81 133 130 263q86 169 80 280q26 110 43 111q51 -1 56 -81l-3 -152q-34 -403 1 -521l33 -131q8 -90 -53 -96l-16 -1q-63 58 -92 390h-4q-14 -42 -114 -167
q-149 -188 -314 -197q-47 -13 -85 26.5t-68 131.5q-24 141 -27 296q13 229 67 361q52 129 91 132zM357 -239q0 25 17.5 42.5t42.5 17.5t43 -17.5t18 -42.5t-18 -42.5t-43 -17.5t-42.5 17.5t-17.5 42.5z" />
    <glyph glyph-name="uni1EE6" unicode="&#x1ee6;" horiz-adv-x="1106" 
d="M1131 1857q41 0 84 -84l8 -40q0 -157 -192 -752q-24 -85 -24 -140l-20 -48q-36 -171 -36 -468l33 -322l-4 -4h-16q-48 0 -65 24q-40 154 -52 290h-4q-152 -320 -320 -320h-44q-256 -4 -363 217t-75 511q13 395 154 820q75 36 87 -24l-51 -172q-72 -309 -72 -620v-32
q-42 -441 202 -631l86 -21q181 0 392 544q16 23 52 296q44 152 44 176q-4 60 -100 244q-55 109 -172 276q-72 119 -72 168v4q0 49 96 68h20q77 0 180 -132l20 -40h8q12 54 156 192q29 20 60 20zM683 1697q0 -54 204 -348q45 -75 84 -168q9 0 76 216q84 291 84 348
q-167 -158 -204 -244q0 -48 -24 -64h-12q-24 13 -24 36v60q-20 190 -104 212h-16q-64 -9 -64 -48zM687 2497h28q51 0 100 -96q22 -10 44 -76q0 -57 -188 -356q-56 14 -56 64v20q0 22 68 144q-112 36 -112 140q0 116 116 160zM699 2389l-24 8q-32 -43 -32 -68q0 -34 12 -76
h20q88 36 88 80q7 0 12 32q0 10 -28 32z" />
    <glyph glyph-name="uni1EE7" unicode="&#x1ee7;" horiz-adv-x="928" 
d="M584 1718h28q50 0 100 -96q22 -10 44 -76q0 -57 -188 -356q-56 14 -56 64v20q0 22 68 144q-112 36 -112 140q0 116 116 160zM596 1610l-24 8q-32 -43 -32 -68q0 -34 12 -76h20q88 36 88 80q7 0 12 32q0 10 -28 32zM246 928l16 1q38 -13 40 -38v-4q-74 -180 -89 -263
q-15 -92 -32 -236q-24 -177 88 -279q113 -102 252 174q81 133 130 263q86 169 80 280q26 110 43 111q51 -1 56 -81l-3 -152q-34 -403 1 -521l33 -131q8 -90 -53 -96l-16 -1q-63 58 -92 390h-4q-14 -42 -114 -167q-149 -188 -314 -197q-47 -13 -85 26.5t-68 131.5
q-24 141 -27 296q13 229 67 361q52 129 91 132z" />
    <glyph glyph-name="uni1EE8" unicode="&#x1ee8;" horiz-adv-x="1106" 
d="M1131 1857q41 0 84 -84l8 -40q0 -157 -192 -752q-24 -85 -24 -140l-20 -48q-36 -171 -36 -468l33 -322l-4 -4h-16q-48 0 -65 24q-40 154 -52 290h-4q-152 -320 -320 -320h-44q-256 -4 -363 217t-75 511q13 395 154 820q75 36 87 -24l-51 -172q-72 -309 -72 -620v-32
q-42 -441 202 -631l86 -21q181 0 392 544q16 23 52 296q44 152 44 176q-4 60 -100 244q-55 109 -172 276q-72 119 -72 168v4q0 49 96 68h20q77 0 180 -132l20 -40h8q12 54 156 192q29 20 60 20zM683 1697q0 -54 204 -348q45 -75 84 -168q9 0 76 216q84 291 84 348
q-167 -158 -204 -244q0 -48 -24 -64h-12q-24 13 -24 36v60q-20 190 -104 212h-16q-64 -9 -64 -48zM1353 1718q3 -12 -9 -21t-25 -12q-41 -10 -46 11q-2 12 -2 17q-3 50 34 80q42 33 104 40q53 5 101 -14q43 -17 54 -51q11 -38 -26 -69q-30 -29 -89 -63q-83 -48 -197 -99
q-38 -15 -53 2q-9 10 -0.5 20t20.5 15l71 33l46 23l24 12q1 1 7 4l10 6q58 32 84 52l5 4q-5 -4 -2 -1l7 5q9 10 11 12h1l3 5l-1 -1q1 2 1 5q1 2 1 5v-1l-2 8q0 1 -2 7q-1 1 -1 2l2 -4l-2 4l-11 12l1 -1q-2 2 -3 2l-7 5l-9 4l-4 2l1 -1q-13 4 -18 5l-6 2h1l1 -1q-3 1 -9 1
q-1 0 -5 0.5t-5 0.5h-5h-1h4q-11 0 -21 -3h-1l7 2l-2 -1q-3 0 -4 -1l-9 -2h-1l6 2l-2 -1l-5 -2q-1 0 -8 -5h-1l-7 -7l1 2l-2 -4q-1 -1 -4 -7q0 -1 -1 -2q-1 -2 0 -1q0 1 1 4q0 -1 -0.5 -2.5t-0.5 -2.5q-3 -9 -3 -19v-1v-5zM1161 2479l68 40h8q36 -29 36 -52v-4
q-22 -60 -200 -208q-314 -268 -416 -268h-28q-48 0 -72 32v12l172 100q231 179 432 348z" />
    <glyph glyph-name="uni1EE9" unicode="&#x1ee9;" horiz-adv-x="928" 
d="M246 928l16 1q38 -13 40 -38v-4q-74 -180 -89 -263q-15 -92 -32 -236q-24 -177 88 -279q113 -102 252 174q81 133 130 263q86 169 80 280q26 110 43 111q51 -1 56 -81l-3 -152q-34 -403 1 -521l33 -131q8 -90 -53 -96l-16 -1q-63 58 -92 390h-4q-14 -42 -114 -167
q-149 -188 -314 -197q-47 -13 -85 26.5t-68 131.5q-24 141 -27 296q13 229 67 361q52 129 91 132zM976 1037q3 -12 -9 -21t-25 -12q-41 -10 -46 11q-2 12 -2 17q-3 50 34 80q42 33 104 40q53 5 101 -14q43 -17 54 -51q11 -38 -26 -69q-30 -29 -89 -63q-83 -48 -197 -99
q-38 -15 -53 2q-9 10 -0.5 20t20.5 15l71 33l46 23l24 12q1 1 7 4l10 6q58 32 84 52l5 4q-5 -4 -2 -1l7 5q10 9 11 12h1l3 5l-1 -1q1 2 1 5q1 2 1 5v-1l-2 8q0 1 -2 7q-1 1 -1 2l2 -4l-2 4l-11 12l1 -1q-2 2 -3 2l-7 5l-9 4l-4 2l1 -1q-13 4 -18 5l-6 2h1l1 -1q-3 1 -9 1
q-2 0 -5 0.5t-5 0.5h-5h-1h4q-10 0 -21 -3h-1l7 2l-2 -1q-3 0 -4 -1l-9 -2h-1l6 2l-2 -1l-5 -2q-1 0 -8 -5h-1l-7 -7l1 2l-2 -4q-1 -1 -4 -7q0 -1 -1 -2q-1 -2 0 -1q0 1 1 4q0 -1 -0.5 -2.5t-0.5 -2.5q-3 -9 -3 -19v-1v-5zM710 1639l68 40h8q36 -29 36 -52v-4
q-22 -60 -200 -208q-314 -268 -416 -268h-28q-48 0 -72 32v12l172 100q231 179 432 348z" />
    <glyph glyph-name="uni1EEA" unicode="&#x1eea;" horiz-adv-x="1106" 
d="M1131 1857q41 0 84 -84l8 -40q0 -157 -192 -752q-24 -85 -24 -140l-20 -48q-36 -171 -36 -468l33 -322l-4 -4h-16q-48 0 -65 24q-40 154 -52 290h-4q-152 -320 -320 -320h-44q-256 -4 -363 217t-75 511q13 395 154 820q75 36 87 -24l-51 -172q-72 -309 -72 -620v-32
q-42 -441 202 -631l86 -21q181 0 392 544q16 23 52 296q44 152 44 176q-4 60 -100 244q-55 109 -172 276q-72 119 -72 168v4q0 49 96 68h20q77 0 180 -132l20 -40h8q12 54 156 192q29 20 60 20zM683 1697q0 -54 204 -348q45 -75 84 -168q9 0 76 216q84 291 84 348
q-167 -158 -204 -244q0 -48 -24 -64h-12q-24 13 -24 36v60q-20 190 -104 212h-16q-64 -9 -64 -48zM1353 1718q3 -12 -9 -21t-25 -12q-41 -10 -46 11q-2 12 -2 17q-3 50 34 80q42 33 104 40q53 5 101 -14q43 -17 54 -51q11 -38 -26 -69q-30 -29 -89 -63q-83 -48 -197 -99
q-38 -15 -53 2q-9 10 -0.5 20t20.5 15l71 33l46 23l24 12q1 1 7 4l10 6q58 32 84 52l5 4q-5 -4 -2 -1l7 5q9 10 11 12h1l3 5l-1 -1q1 2 1 5q1 2 1 5v-1l-2 8q0 1 -2 7q-1 1 -1 2l2 -4l-2 4l-11 12l1 -1q-2 2 -3 2l-7 5l-9 4l-4 2l1 -1q-13 4 -18 5l-6 2h1l1 -1q-3 1 -9 1
q-1 0 -5 0.5t-5 0.5h-5h-1h4q-11 0 -21 -3h-1l7 2l-2 -1q-3 0 -4 -1l-9 -2h-1l6 2l-2 -1l-5 -2q-1 0 -8 -5h-1l-7 -7l1 2l-2 -4q-1 -1 -4 -7q0 -1 -1 -2q-1 -2 0 -1q0 1 1 4q0 -1 -0.5 -2.5t-0.5 -2.5q-3 -9 -3 -19v-1v-5zM361 2465l12 8q79 0 156 -180q67 -117 168 -204
q137 -92 224 -92q0 -8 40 -8l8 -12v-4q0 -15 -56 -32h-60q-156 0 -328 208q-134 186 -164 316z" />
    <glyph glyph-name="uni1EEB" unicode="&#x1eeb;" horiz-adv-x="928" 
d="M246 928l16 1q38 -13 40 -38v-4q-74 -180 -89 -263q-15 -92 -32 -236q-24 -177 88 -279q113 -102 252 174q81 133 130 263q86 169 80 280q26 110 43 111q51 -1 56 -81l-3 -152q-34 -403 1 -521l33 -131q8 -90 -53 -96l-16 -1q-63 58 -92 390h-4q-14 -42 -114 -167
q-149 -188 -314 -197q-47 -13 -85 26.5t-68 131.5q-24 141 -27 296q13 229 67 361q52 129 91 132zM976 1037q3 -12 -9 -21t-25 -12q-41 -10 -46 11q-2 12 -2 17q-3 50 34 80q42 33 104 40q53 5 101 -14q43 -17 54 -51q11 -38 -26 -69q-30 -29 -89 -63q-83 -48 -197 -99
q-38 -15 -53 2q-9 10 -0.5 20t20.5 15l71 33l46 23l24 12q1 1 7 4l10 6q58 32 84 52l5 4q-5 -4 -2 -1l7 5q10 9 11 12h1l3 5l-1 -1q1 2 1 5q1 2 1 5v-1l-2 8q0 1 -2 7q-1 1 -1 2l2 -4l-2 4l-11 12l1 -1q-2 2 -3 2l-7 5l-9 4l-4 2l1 -1q-13 4 -18 5l-6 2h1l1 -1q-3 1 -9 1
q-2 0 -5 0.5t-5 0.5h-5h-1h4q-10 0 -21 -3h-1l7 2l-2 -1q-3 0 -4 -1l-9 -2h-1l6 2l-2 -1l-5 -2q-1 0 -8 -5h-1l-7 -7l1 2l-2 -4q-1 -1 -4 -7q0 -1 -1 -2q-1 -2 0 -1q0 1 1 4q0 -1 -0.5 -2.5t-0.5 -2.5q-3 -9 -3 -19v-1v-5zM163 1628l12 8q79 0 156 -180q67 -117 168 -204
q137 -92 224 -92q0 -8 40 -8l8 -12v-4q0 -15 -56 -32h-60q-156 0 -328 208q-134 186 -164 316z" />
    <glyph glyph-name="uni1EEC" unicode="&#x1eec;" horiz-adv-x="1106" 
d="M1131 1857q41 0 84 -84l8 -40q0 -157 -192 -752q-24 -85 -24 -140l-20 -48q-36 -171 -36 -468l33 -322l-4 -4h-16q-48 0 -65 24q-40 154 -52 290h-4q-152 -320 -320 -320h-44q-256 -4 -363 217t-75 511q13 395 154 820q75 36 87 -24l-51 -172q-72 -309 -72 -620v-32
q-42 -441 202 -631l86 -21q181 0 392 544q16 23 52 296q44 152 44 176q-4 60 -100 244q-55 109 -172 276q-72 119 -72 168v4q0 49 96 68h20q77 0 180 -132l20 -40h8q12 54 156 192q29 20 60 20zM683 1697q0 -54 204 -348q45 -75 84 -168q9 0 76 216q84 291 84 348
q-167 -158 -204 -244q0 -48 -24 -64h-12q-24 13 -24 36v60q-20 190 -104 212h-16q-64 -9 -64 -48zM1353 1718q3 -12 -9 -21t-25 -12q-41 -10 -46 11q-2 12 -2 17q-3 50 34 80q42 33 104 40q53 5 101 -14q43 -17 54 -51q11 -38 -26 -69q-30 -29 -89 -63q-83 -48 -197 -99
q-38 -15 -53 2q-9 10 -0.5 20t20.5 15l71 33l46 23l24 12q1 1 7 4l10 6q58 32 84 52l5 4q-5 -4 -2 -1l7 5q9 10 11 12h1l3 5l-1 -1q1 2 1 5q1 2 1 5v-1l-2 8q0 1 -2 7q-1 1 -1 2l2 -4l-2 4l-11 12l1 -1q-2 2 -3 2l-7 5l-9 4l-4 2l1 -1q-13 4 -18 5l-6 2h1l1 -1q-3 1 -9 1
q-1 0 -5 0.5t-5 0.5h-5h-1h4q-11 0 -21 -3h-1l7 2l-2 -1q-3 0 -4 -1l-9 -2h-1l6 2l-2 -1l-5 -2q-1 0 -8 -5h-1l-7 -7l1 2l-2 -4q-1 -1 -4 -7q0 -1 -1 -2q-1 -2 0 -1q0 1 1 4q0 -1 -0.5 -2.5t-0.5 -2.5q-3 -9 -3 -19v-1v-5zM745 2445h28q51 0 100 -96q22 -10 44 -76
q0 -57 -188 -356q-56 14 -56 64v20q0 22 68 144q-112 36 -112 140q0 116 116 160zM757 2337l-24 8q-32 -43 -32 -68q0 -34 12 -76h20q88 36 88 80q7 0 12 32q0 10 -28 32z" />
    <glyph glyph-name="uni1EED" unicode="&#x1eed;" horiz-adv-x="928" 
d="M246 928l16 1q38 -13 40 -38v-4q-74 -180 -89 -263q-15 -92 -32 -236q-24 -177 88 -279q113 -102 252 174q81 133 130 263q86 169 80 280q26 110 43 111q51 -1 56 -81l-3 -152q-34 -403 1 -521l33 -131q8 -90 -53 -96l-16 -1q-63 58 -92 390h-4q-14 -42 -114 -167
q-149 -188 -314 -197q-47 -13 -85 26.5t-68 131.5q-24 141 -27 296q13 229 67 361q52 129 91 132zM976 1037q3 -12 -9 -21t-25 -12q-41 -10 -46 11q-2 12 -2 17q-3 50 34 80q42 33 104 40q53 5 101 -14q43 -17 54 -51q11 -38 -26 -69q-30 -29 -89 -63q-83 -48 -197 -99
q-38 -15 -53 2q-9 10 -0.5 20t20.5 15l71 33l46 23l24 12q1 1 7 4l10 6q58 32 84 52l5 4q-5 -4 -2 -1l7 5q10 9 11 12h1l3 5l-1 -1q1 2 1 5q1 2 1 5v-1l-2 8q0 1 -2 7q-1 1 -1 2l2 -4l-2 4l-11 12l1 -1q-2 2 -3 2l-7 5l-9 4l-4 2l1 -1q-13 4 -18 5l-6 2h1l1 -1q-3 1 -9 1
q-2 0 -5 0.5t-5 0.5h-5h-1h4q-10 0 -21 -3h-1l7 2l-2 -1q-3 0 -4 -1l-9 -2h-1l6 2l-2 -1l-5 -2q-1 0 -8 -5h-1l-7 -7l1 2l-2 -4q-1 -1 -4 -7q0 -1 -1 -2q-1 -2 0 -1q0 1 1 4q0 -1 -0.5 -2.5t-0.5 -2.5q-3 -9 -3 -19v-1v-5zM584 1718h28q50 0 100 -96q22 -10 44 -76
q0 -57 -188 -356q-56 14 -56 64v20q0 22 68 144q-112 36 -112 140q0 116 116 160zM596 1610l-24 8q-32 -43 -32 -68q0 -34 12 -76h20q88 36 88 80q7 0 12 32q0 10 -28 32z" />
    <glyph glyph-name="uni1EEE" unicode="&#x1eee;" horiz-adv-x="1106" 
d="M1131 1857q41 0 84 -84l8 -40q0 -157 -192 -752q-24 -85 -24 -140l-20 -48q-36 -171 -36 -468l33 -322l-4 -4h-16q-48 0 -65 24q-40 154 -52 290h-4q-152 -320 -320 -320h-44q-256 -4 -363 217t-75 511q13 395 154 820q75 36 87 -24l-51 -172q-72 -309 -72 -620v-32
q-42 -441 202 -631l86 -21q181 0 392 544q16 23 52 296q44 152 44 176q-4 60 -100 244q-55 109 -172 276q-72 119 -72 168v4q0 49 96 68h20q77 0 180 -132l20 -40h8q12 54 156 192q29 20 60 20zM683 1697q0 -54 204 -348q45 -75 84 -168q9 0 76 216q84 291 84 348
q-167 -158 -204 -244q0 -48 -24 -64h-12q-24 13 -24 36v60q-20 190 -104 212h-16q-64 -9 -64 -48zM1353 1718q3 -12 -9 -21t-25 -12q-41 -10 -46 11q-2 12 -2 17q-3 50 34 80q42 33 104 40q53 5 101 -14q43 -17 54 -51q11 -38 -26 -69q-30 -29 -89 -63q-83 -48 -197 -99
q-38 -15 -53 2q-9 10 -0.5 20t20.5 15l71 33l46 23l24 12q1 1 7 4l10 6q58 32 84 52l5 4q-5 -4 -2 -1l7 5q9 10 11 12h1l3 5l-1 -1q1 2 1 5q1 2 1 5v-1l-2 8q0 1 -2 7q-1 1 -1 2l2 -4l-2 4l-11 12l1 -1q-2 2 -3 2l-7 5l-9 4l-4 2l1 -1q-13 4 -18 5l-6 2h1l1 -1q-3 1 -9 1
q-1 0 -5 0.5t-5 0.5h-5h-1h4q-11 0 -21 -3h-1l7 2l-2 -1q-3 0 -4 -1l-9 -2h-1l6 2l-2 -1l-5 -2q-1 0 -8 -5h-1l-7 -7l1 2l-2 -4q-1 -1 -4 -7q0 -1 -1 -2q-1 -2 0 -1q0 1 1 4q0 -1 -0.5 -2.5t-0.5 -2.5q-3 -9 -3 -19v-1v-5zM444 2387h16q101 0 360 -160q56 -24 72 -24h24
q100 0 228 144q14 36 40 36q72 -13 72 -52q0 -70 -196 -172q-49 -12 -112 -12q-97 0 -312 128q-107 64 -148 64q-65 0 -156 -148h-12q-32 3 -32 28q0 69 88 148q32 20 68 20z" />
    <glyph glyph-name="uni1EEF" unicode="&#x1eef;" horiz-adv-x="928" 
d="M246 928l16 1q38 -13 40 -38v-4q-74 -180 -89 -263q-15 -92 -32 -236q-24 -177 88 -279q113 -102 252 174q81 133 130 263q86 169 80 280q26 110 43 111q51 -1 56 -81l-3 -152q-34 -403 1 -521l33 -131q8 -90 -53 -96l-16 -1q-63 58 -92 390h-4q-14 -42 -114 -167
q-149 -188 -314 -197q-47 -13 -85 26.5t-68 131.5q-24 141 -27 296q13 229 67 361q52 129 91 132zM976 1037q3 -12 -9 -21t-25 -12q-41 -10 -46 11q-2 12 -2 17q-3 50 34 80q42 33 104 40q53 5 101 -14q43 -17 54 -51q11 -38 -26 -69q-30 -29 -89 -63q-83 -48 -197 -99
q-38 -15 -53 2q-9 10 -0.5 20t20.5 15l71 33l46 23l24 12q1 1 7 4l10 6q58 32 84 52l5 4q-5 -4 -2 -1l7 5q10 9 11 12h1l3 5l-1 -1q1 2 1 5q1 2 1 5v-1l-2 8q0 1 -2 7q-1 1 -1 2l2 -4l-2 4l-11 12l1 -1q-2 2 -3 2l-7 5l-9 4l-4 2l1 -1q-13 4 -18 5l-6 2h1l1 -1q-3 1 -9 1
q-2 0 -5 0.5t-5 0.5h-5h-1h4q-10 0 -21 -3h-1l7 2l-2 -1q-3 0 -4 -1l-9 -2h-1l6 2l-2 -1l-5 -2q-1 0 -8 -5h-1l-7 -7l1 2l-2 -4q-1 -1 -4 -7q0 -1 -1 -2q-1 -2 0 -1q0 1 1 4q0 -1 -0.5 -2.5t-0.5 -2.5q-3 -9 -3 -19v-1v-5zM136 1353h16q101 0 360 -160q56 -24 72 -24h24
q100 0 228 144q13 36 40 36q72 -13 72 -52q0 -70 -196 -172q-50 -12 -112 -12q-97 0 -312 128q-107 64 -148 64q-65 0 -156 -148h-12q-32 3 -32 28q0 69 88 148q32 20 68 20z" />
    </font>
</defs>
</svg>
