<?xml version="1.0" standalone="no"?>
<!DOCTYPE svg PUBLIC "-//W3C//DTD SVG 1.1//EN" "http://www.w3.org/Graphics/SVG/1.1/DTD/svg11.dtd" >
<svg xmlns="http://www.w3.org/2000/svg" xmlns:xlink="http://www.w3.org/1999/xlink" version="1.1">
<metadata>
Created by FontForge 20170731 at Mon Dec 21 15:47:56 2009
 By Aleksey,,,
Typeface (c) CuttyFruty. 2009. All Rights Reserved
</metadata>
<defs>
<font id="JellykaGaredeChambord" horiz-adv-x="1014" >
  <font-face 
    font-family="Jellyka Gare de Chambord"
    font-weight="400"
    font-stretch="normal"
    units-per-em="2048"
    panose-1="2 0 5 0 0 0 0 0 0 0"
    ascent="1638"
    descent="-410"
    x-height="254"
    cap-height="1081"
    bbox="-939 -954 6311 1433"
    underline-thickness="150"
    underline-position="-442"
    unicode-range="U+0020-F002"
  />
<missing-glyph horiz-adv-x="1024" 
d="M-3 -100v1434h855v-1434h-855zM78 -50h724v1334h-724v-1334z" />
    <glyph glyph-name=".notdef" horiz-adv-x="1024" 
d="M-3 -100v1434h855v-1434h-855zM78 -50h724v1334h-724v-1334z" />
    <glyph glyph-name=".null" horiz-adv-x="0" 
 />
    <glyph glyph-name="nonmarkingreturn" horiz-adv-x="508" 
 />
    <glyph glyph-name="space" unicode=" " horiz-adv-x="508" 
 />
    <glyph glyph-name="space" unicode="&#xa0;" horiz-adv-x="508" 
 />
    <glyph glyph-name="exclam" unicode="!" horiz-adv-x="469" 
d="M379 1140l41 19l17 -40q-38 -444 -236 -888l-27 -12l-20 7l-11 26q164 344 206 843zM113 116q59 -23 -44 -166q-59 40 -36 103q39 79 80 63z" />
    <glyph glyph-name="quotedbl" unicode="&#x22;" horiz-adv-x="246" 
d="M79 812l50 18l6 -16l-70 -328l-28 -27l-12 31q-13 298 54 322zM185 811l50 18l6 -16l-70 -328l-28 -27l-12 31q-13 298 54 322z" />
    <glyph glyph-name="numbersign" unicode="#" horiz-adv-x="1336" 
 />
    <glyph glyph-name="dollar" unicode="$" 
 />
    <glyph glyph-name="percent" unicode="%" horiz-adv-x="1610" 
 />
    <glyph glyph-name="ampersand" unicode="&#x26;" horiz-adv-x="1101" 
d="M1088 1076q30 -421 -97.5 -468.5t-271.5 24.5q148 -506 50 -793q64 -58 215 44q74 -32 18 -68q-94 -85 -256 -15q-105 -141 -272 -191q-56 -32 -216 54q-170 170 -146 282l21 12l20 -16q-33 -103 127 -265q96 -47 205 15q104 48 190 163q-118 394 -234 530q-81 69 -190 7
q-97 -154 -108 -364l-37 29q8 383 162 471l126 20l36 -29q90 -103 139.5 -209t128.5 -404q83 220 -79 810l9 22q228 -123 333.5 -54t22.5 361l-41 143l-18 14l-82 5l8 54l22 12l80 -4l93 -74q55 -44 42 -118zM838 816l-24 -21q-78 25 -130 120q38 204 111 270
q-119 -303 62 -338z" />
    <glyph glyph-name="quotesingle" unicode="'" horiz-adv-x="346" 
d="M734 788h53v-18l-177 -284l-36 -15v33q89 284 160 284z" />
    <glyph glyph-name="parenleft" unicode="(" horiz-adv-x="534" 
d="M199 -5h-73q-73 30 -73 128q255 741 777 867h55l36 -37v-54l-55 -55l-73 18q-77 -4 -221 -74t-295 -341.5t-151 -378.5l55 -18z" />
    <glyph glyph-name="parenright" unicode=")" horiz-adv-x="516" 
d="M392 950q256 0 256 -220q-117 -441 -523 -720l-112 -46l-46 62l32 63l64 -19q374 165 494 697q0 49 -257 128v18z" />
    <glyph glyph-name="asterisk" unicode="*" horiz-adv-x="1024" 
 />
    <glyph glyph-name="plus" unicode="+" 
 />
    <glyph glyph-name="comma" unicode="," horiz-adv-x="304" 
d="M157 112h29l28 -29v-14q0 -94 -287 -373l-57 -29v15l187 215v14l-15 58q56 111 115 143zM-159 -347h15v-14l-201 -187h-29v43z" />
    <glyph glyph-name="hyphen" unicode="-" horiz-adv-x="376" 
d="M49 280h46q33 -28 64 -28l27 10q129 -22 129 -37q-14 -37 -28 -37q-266 0 -266 55v9z" />
    <glyph glyph-name="hyphen" unicode="&#xad;" horiz-adv-x="376" 
d="M49 280h46q33 -28 64 -28l27 10q129 -22 129 -37q-14 -37 -28 -37q-266 0 -266 55v9z" />
    <glyph glyph-name="period" unicode="." horiz-adv-x="365" 
d="M159 90q136 0 39 -114q-151 11 -154 56q19 58 115 58z" />
    <glyph glyph-name="slash" unicode="/" horiz-adv-x="569" 
d="M622 1101l50 16l4 -61q-205 -615 -578 -1191l-33 -10l-19 15l-2 40q302 443 530 1135z" />
    <glyph glyph-name="zero" unicode="0" 
d="M964 821q256 0 263.5 -113t-271.5 -350t-744 -391h-73q-73 30 -73 128q109 286 933 878h55l36 -37v-54l-55 -55l-73 18q-77 -4 -408 -269q-238 -193 -326.5 -311t-88.5 -171.5t55 -71.5q779 237 931 640q21 84 -253 104v18z" />
    <glyph glyph-name="one" unicode="1" horiz-adv-x="392" 
d="M577 827h35v-71q-533 -553 -533 -693v-71h-18l-53 53v36q0 163 569 746z" />
    <glyph glyph-name="two" unicode="2" horiz-adv-x="917" 
d="M818 846q93 -82 93 -131q0 -157 -469 -526l319 -262v-19h-37q-346 228 -404 190l-290 -115l-19 19v19q0 70 394 206q431 291 431 469v19l-37 56q-281 -113 -319 -56q101 131 338 131z" />
    <glyph glyph-name="three" unicode="3" horiz-adv-x="498" 
d="M202 723h50q220 -34 220 -101q-3 -44 -236 -220v-33h67q101 -11 101 -51v-17q-49 -100 -253 -287q0 -67 -34 -67h-16l-34 34v50l253 253v34l-84 -17h-51l-34 34v51l236 219v50q-151 -16 -320 -84l-17 17v34q0 25 152 101z" />
    <glyph glyph-name="four" unicode="4" horiz-adv-x="636" 
d="M259 552q128 4 187 11l26 3q175 367 193 373l11 4q15 -44 -20 -159l-372 -744q-83 -118 -91 -130l-84 -41l-11 -4l2 137l55 19q269 329 274 457l-4 11q-114 44 -297 16q-5 107 146 459q13 56 65 52q-208 -468 -80 -464z" />
    <glyph glyph-name="five" unicode="5" horiz-adv-x="783" 
d="M832 625q99 -21 99 -49l-17 -17h-16l-116 17l-33 -37l-396 4l-33 33zM304 493h33l-24 -90q73 24 164 -9.5t91 -180.5q-281 -212 -578 -248v17q82 68 413 181l82 66v33q-27 83 -231 83l-16 16v33z" />
    <glyph glyph-name="six" unicode="6" horiz-adv-x="820" 
d="M270 -28h-75q-151 30 -172 155q300 494 421 623.5t152 136.5l37 -8l15 -15v-91q-287 -180 -448 -534l-23 -132v-30h15l93 -29q211 0 409 241v16l-61 15l-201 -35v15q0 36 246 65q76 -19 76 -45v-61q0 -102 -484 -287zM316 223h-15q0 30 46 30z" />
    <glyph glyph-name="seven" unicode="7" horiz-adv-x="480" 
d="M277 909q140 6 326 -14l26 3q42 86 60 92l11 4q15 -44 -44 -210q-61 -181 -172 -365q68 0 52 -53l-65 -4l-187 -322q-83 -118 -91 -130l-84 -41l-11 -4l2 137l55 19q261 245 204 336l-140 -19l-44 35l22 7l220 27q164 275 169 403l-4 11q-183 34 -489 43l-15 8l-189 -238
l-11 -4l-15 7l290 519l15 -7q-31 -246 109 -240z" />
    <glyph glyph-name="eight" unicode="8" 
d="M840 934h97l38 -39v-19l-38 -39l-39 39h-19l-127 -70q-260 -145 -106 -342l-13 -19q-568 -173 -568 -504q0 -96 77 -116q194 22 259 105h20v-19q-75 -84 -279 -105q-135 27 -135 77v97q0 355 564 520q-175 125 160 380q51 54 109 54zM708 434q191 62 266 270q26 52 73 23
q-111 -316 -321 -299l73 -62q0 -136 -290 -386h-38q156 141 232 290q0 96 -97 116v19z" />
    <glyph glyph-name="nine" unicode="9" horiz-adv-x="574" 
d="M495 892h75q151 -30 151 -106l76 15l15 -15v-15q0 -36 -167 -120q-178 -232 -311.5 -449.5t-164.5 -224.5l-37 8l-15 15v91q242 277 393 544h-61q167 136 212 136v30h-15l-166 15q-211 0 -409 -241v-16l61 -15l166 46v-15q0 -36 -211 -76q-76 19 -76 45v61q0 102 484 287
zM359 620h15q0 -30 -46 -30z" />
    <glyph glyph-name="colon" unicode=":" horiz-adv-x="288" 
d="M190 391q95 0 76.5 -79.5t-86.5 -51.5t-70 73q13 58 80 58zM190 77q48 -132 -45 -125t-97 69q26 80 142 56z" />
    <glyph glyph-name="semicolon" unicode=";" horiz-adv-x="304" 
d="M231 316.5q-28 -91.5 -67.5 -63.5t-40.5 73q8 58 72 70t36 -79.5zM85 71h29l28 -29v-14q0 -94 -287 -373l-57 -29v15l187 215v14l-15 58q56 111 115 143z" />
    <glyph glyph-name="semicolon" unicode="&#x37e;" horiz-adv-x="304" 
d="M231 316.5q-28 -91.5 -67.5 -63.5t-40.5 73q8 58 72 70t36 -79.5zM85 71h29l28 -29v-14q0 -94 -287 -373l-57 -29v15l187 215v14l-15 58q56 111 115 143z" />
    <glyph glyph-name="less" unicode="&#x3c;" horiz-adv-x="797" 
d="M452 410l48 -28q32 -18 4 -67q-20 -34 -211 -70l-28 -23q413 -118 446 -141.5t0 -78.5l-44 6l-543 165l-64 37l-13 50l294 106z" />
    <glyph glyph-name="equal" unicode="=" horiz-adv-x="342" 
d="M45 334h46q33 -28 64 -28l27 10q129 -22 129 -37q-14 -37 -28 -37q-266 0 -266 55v9zM39 191h46q220 -40 213 -66t-21 -26q-266 0 -266 55v9z" />
    <glyph glyph-name="greater" unicode="&#x3e;" horiz-adv-x="667" 
d="M270 315l294 -106l-13 -50l-64 -37l-351 -171l-44 -6q-33 55 0 78.5t254 147.5l-28 23q-191 36 -211 70q-28 49 4 67l48 28z" />
    <glyph glyph-name="question" unicode="?" horiz-adv-x="705" 
d="M182 -62q59 -23 -44 -166q-59 40 -36 103q39 79 80 63zM117 976l83 7q257 34 356 -108.5t81 -301.5q-338 -333 -405 -556l-38 14l49 174q377 380 348 485l-7 26q0 138 -106 176t-239 2q7 -98 -15 -104l-27 -7q-148 17 -169 97q16 76 89 96z" />
    <glyph glyph-name="at" unicode="@" horiz-adv-x="1327" 
d="M802 487q60 -7 80 -40q69 10 44 -36.5t-124 -171.5l-15 -41q106 -49 34 -93l-172 57q-331 -116 -439 0q295 325 592 325zM324 200q-19 -47 58 -38q233 0 420 210v19h-77q-296 -66 -401 -191zM1041 912q256 0 256 -220q-268 -704 -635 -766q-180 -84 -508 -64h-73
q-73 30 -73 128q255 741 777 867h55l36 -37v-54l-55 -55l-73 18q-77 -4 -221 -74t-295 -341.5t-151 -378.5l55 -18q411 9 680.5 144.5t389.5 667.5q0 49 -257 128v18z" />
    <glyph glyph-name="A" unicode="A" horiz-adv-x="1072" 
d="M1733 1012h158l46 -45v-90q0 -46 -91 -46l-22 -22v-23q90 0 90 -45q-606 -368 -883 -634l46 -45h45q-44 -92 -67.5 -68.5t-90.5 23.5l-23 22v91l23 23v22q-611 -345 -1041 -475l-91 68l561 464l73 34q-362 -340 -385 -408q226 0 1380 679l295 227l-46 67q-3 22 68 23v45
q-222 0 -1063 -475q-151 -136 -227 -136q720 539 1245 724z" />
    <glyph glyph-name="B" unicode="B" horiz-adv-x="1137" 
d="M1186 987q83 0 122 -104q-113 -349 -192 -349l35 -104q0 -211 -505 -435h-17v35q367 217 383 261q75 119 35 156h-53q-98 -104 -278 -104l-18 35q0 100 349 191q156 202 156 261v35q-7 36 -87 70q-188 0 -435 -331l-609 -644h-35l366 592q335 435 783 435z" />
    <glyph glyph-name="C" unicode="C" horiz-adv-x="596" 
d="M1108 1001q-827 -521 -981 -1080h44l368 117q57 46 100 -24q-251 -160 -512 -181q-132 29 -132 66q144 405 882 1036q482 375 661 375h44l88 -88v-110q-437 -507 -617 -507q-145 -21 -128.5 94t215.5 289l25 11q61 41 61 -3q-137 -92 -241 -266q-44 -134 142 -28.5
t428 467.5l-52 -7q-271 -64 -395 -161z" />
    <glyph glyph-name="D" unicode="D" horiz-adv-x="859" 
d="M901 1127h115q115 -44 172 -230q-124 -435 -478 -726q-313 -202 -632 -307q-49 -95 -191 -133l-19 19v57q0 28 230 134q322 369 554 784h39v-19q0 -110 -364 -612v-38h19q559 260 708 688l38 173q-37 94 -85.5 133t-350.5 -39q-30 13 59.5 64.5t185.5 51.5z" />
    <glyph glyph-name="E" unicode="E" horiz-adv-x="723" 
d="M970 1317h97l38 -39v-19l-38 -39l-39 39h-19l-127 -70q65 -44 177 0l-50 -46q-95 -34 -148 -10l5 26q-244 -115 -251 -214t186 -138l-13 -19q-712 -358 -726 -727q0 -96 77 -116q194 22 259 105h20v-19q-75 -84 -279 -105q-135 27 -135 77v97q-31 379 639 691
q-96 10 -128.5 106.5t346.5 365.5q51 54 109 54zM719 564h38l39 -78q0 -136 -290 -386h-38q156 141 232 290q0 96 -97 116v19z" />
    <glyph glyph-name="F" unicode="F" horiz-adv-x="516" 
d="M1804 1260l16 -16l-544 -608l-16 16v16l224 352l-16 16q-192 -48 -464 -32h-16q-164 -63 -447 -399l255 -64v-32h-16l-207 32q-214 0 -416 -448v-80l-176 -64v16l16 128q12 16 128 176l281 292l-121 -4v48q54 37 174 16q257 302 465 463q208 96 272 96v-16
q0 -26 -112 -64l-30 -29l78 -3q144 -16 255 13t417 179z" />
    <glyph glyph-name="G" unicode="G" horiz-adv-x="1067" 
d="M1827 963l83 14q58 0 69 -124q-61 -74 -166 -124q-429 -136 -538 -276q-374 -318 -442 -318v14l221 207l156 140l-46 -2l-96 -14q-211 0 -290 97l-400 -110q-97 26 -97 96h28q42 -64 110 -41q80 0 704 303h83v-27q0 -29 -166 -83q-97 -28 -152 -83v-55q9 -41 111 -41h55
q269 26 345 110q168 173 359 304zM1552 697l95 46l207 96v14h-41q-129 0 -261 -156zM-147 384q83 0 138 -138v-28q0 -23 -97 -41q0 -138 64 -230.5t199 -156.5h27q109 0 566 290v-28q0 -55 -441 -276q-149 -58 -313 50t-198 365l-14 82q0 76 69 111z" />
    <glyph glyph-name="H" unicode="H" horiz-adv-x="986" 
d="M1244 493q423 47 858 415l30 92h-61q-149 0 -827 -507zM1182 525q764 567 950 567q46 0 92 -61q0 -250 -689 -537l-413 -109q-282 -201 -309 -283t179 -63q88 -39 -153 -65q-109 -9 -131 110q181 185 300 296q-13 -2 -33 -1l-176 6q-86 0 -173 7l-485 -406h-30
q-70 31 349 368q80 222 197 222q0 -31 46 -31q3 23 404.5 334.5t557.5 298.5l7 -63q-835 -551 -879 -583t-35.5 -59t136.5 -28.5t183 23.5t105 57z" />
    <glyph glyph-name="I" unicode="I" horiz-adv-x="639" 
d="M1759 1081l16 -16l-544 -608l-16 16v16l224 352l-16 16q-192 -48 -464 -32h-16q-164 -63 -671 -731l255 -64v-32h-16l-271 36l-87 -140l-95 -25l16 128q12 16 62 61l-121 -4v48q54 37 174 16q482 626 637 738q-203 19 -423 118l-12 34l41 15q183 -75 421 -113l156 -18
l78 -3q144 -16 255 13t417 179z" />
    <glyph glyph-name="J" unicode="J" horiz-adv-x="445" 
d="M1140 998l16 -47q-102 -209 -805 -948v-15q174 76 192 18l-38 -18q-229 -79 -407 -221q-698 -642 -915 -695l-16 47q178 273 521 474l16 -16v-16q-37 0 -253 -221q-58 0 -79 -79h32q354 232 1105 963l426 537l-16 48l-79 -10q-615 -452 -615 -669l63 -16v-16
q0 -37 -126 -47l-32 47v32q0 139 489 568l411 284zM367 161v-16l-32 -31v16z" />
    <glyph glyph-name="K" unicode="K" horiz-adv-x="1088" 
d="M1467 1298l36 -54v-18q-34 -78 -148.5 -167t-485.5 -473q-41 -28 230.5 79t419.5 88l-46 -47q-257 -48 -713 -291q-187 -117 -93 -208q270 -268 356 -224q11 -94 -88 -99q-266 145 -389 314l-29 37l-141 -127q-165 -141 -287 -141l-17 17v18q307 315 659 618.5t736 677.5
z" />
    <glyph glyph-name="L" unicode="L" horiz-adv-x="779" 
d="M1844 1187h46l46 -46v-15q-51 -212 -373.5 -384.5t-514.5 -182.5l-62 15h-15q-212 -152 -389.5 -282.5t-177.5 -192.5q142 -87 278.5 -57.5t151.5 -3.5q14 -33 -62 -31l-199 -30q-86 0 -292 76l-291 -245h-30l-31 31v30q266 368 383 368q0 -31 46 -31q270 220 536 414
q-26 82 -46 107v46l31 31h31q33 0 64 -139q684 522 870 522zM1051 614l46 1q569 140 750 460h-61q-149 0 -735 -461z" />
    <glyph glyph-name="M" unicode="M" horiz-adv-x="910" 
d="M1882 1255l12 3l7 -21q3 -27 -75 -80q-356 -405 -732 -690q-298 -272 -541 -584q-209 -286 -178 -378l8 -21l30 -15l7 -22l-46 -12q-29 -8 -50 33q-61 183 488 780l-4 11l-77 -34l-58 -16q-78 5 -106 88l1 71l-3 11q-132 -93 -158 -138l-320 -218l-90 -36q-23 -7 24 42
l12 3q143 40 584 455q103 236 381 493q136 96 215 118l45 -23l4 -10q4 -65 -398 -404q9 -27 -87 -83l-119 -138q-36 -80 -11 -156l46 -22l23 6q207 58 625 525q421 429 541 462z" />
    <glyph glyph-name="N" unicode="N" horiz-adv-x="1231" 
d="M827 1034l87 -18q101 -86 101 -229q-94 -251 -91 -531q409 561 836 730h96v-46q-467 -215 -712 -497.5t-133 -339.5q142 -72 197 -67h49q0 -90 -327 -13q-115 147 -108 304l15 150q-291 -335 -719 -520h-49l-16 20v46q392 154 630 402t207 432q-42 148 -168 73
q-113 -54 -172 -23q101 121 277 127z" />
    <glyph glyph-name="O" unicode="O" horiz-adv-x="774" 
d="M1162 1045q256 0 256 -220q-235 -282 -534.5 -484.5t-764.5 -356.5h-73q-73 30 -73 128q133 262 933 878h55l36 -37v-54l-55 -55l-73 18q-77 -4 -384 -293q-238 -193 -338.5 -299t-100.5 -213l55 -18q779 237 1226 823q0 49 -257 128v18z" />
    <glyph glyph-name="P" unicode="P" horiz-adv-x="552" 
d="M889 1168q346 -32 394 -237q0 -161 -505 -378h-47l457 315v63q-101 174 -331 174q-267 0 -568 -253l-16 16v32q209 268 616 268zM621 789h47v-47q-223 -422 -600 -773h-31l-16 16v31q303 267 552 742z" />
    <glyph glyph-name="Q" unicode="Q" horiz-adv-x="985" 
d="M1086 1045q256 0 256 -220q-117 -441 -523 -720q107 -46 149 -115q-94 -118 -124 -4l-67 50l-70 23q-180 -84 -508 -64h-73q-73 30 -73 128q255 741 777 867h55l36 -37v-54l-55 -55l-73 18q-77 -4 -221 -74t-295 -341.5t-151 -378.5l55 -18q411 9 480 71l32 63l64 -19
q374 165 494 697q0 49 -257 128v18z" />
    <glyph glyph-name="R" unicode="R" horiz-adv-x="1088" 
d="M889 1168q346 -32 394 -237q0 -161 -262 -318l-346 -110q111 -252 357 -467l-12 -72l-49 16q-201 116 -398 529l83 69q426 146 532 290v63q-101 174 -331 174q-267 0 -568 -253l-16 16v32q209 268 616 268zM602 812h47v-47q-223 -422 -600 -773h-31l-16 16v31
q303 267 552 742z" />
    <glyph glyph-name="S" unicode="S" horiz-adv-x="1128" 
d="M1964 1249l38 -75q0 -64 -394 -375q-661 -807 -863 -807h-38q-33 0 -150 169l-507 -188h-56v38q10 40 319 168l94 -18q578 291 807 450q300 197 487 507q158 131 263 131zM651 198v-37l94 -113q160 0 562 525h-18l-319 -168q-295 -159 -319 -207z" />
    <glyph glyph-name="T" unicode="T" horiz-adv-x="506" 
d="M4789 1222q278 1 278 -35q-1070 -70 -1644 -87t-1530 -18l-280 18q-142 -59 -650.5 -398t-612 -437.5t-160.5 -191.5l52 -35l289 7l23 -31q6 -38 -238.5 -45.5t-244.5 57.5q5 179 228 333q935 677 1068 723v18h-193q-1104 32 -1104 193l35 35h263v-35l-123 -18v-17
q259 -84 1157 -88l351 105l18 -17v-53l-18 -18v-17l210 -18q1184 -30 2826 70zM6118 1310q193 -17 193 -52q0 -43 -158 -53l-35 53q-124 0 -789 -35v35zM5252 1236l42 -31l-183 -8q18 48 141 39z" />
    <glyph glyph-name="U" unicode="U" horiz-adv-x="995" 
d="M1761 786q90 0 90 -45q-606 -368 -883 -634q46 -45 46.5 -91t-31.5 -33t-105 56v91l23 45q-364 -181 -794 -311l-91 68q738 692 1097 852h46q-451 -304 -661 -499t-233 -263q226 0 1133 515l295 227z" />
    <glyph glyph-name="V" unicode="V" horiz-adv-x="960" 
d="M1675 786q90 0 90 -45q-606 -368 -950 -566q-364 -181 -532 -234t-240 1l16 77q352 619 711 779h46q-427 -349 -524 -523t-103 -270q216 17 1123 532l295 227z" />
    <glyph glyph-name="W" unicode="W" horiz-adv-x="1726" 
d="M1123 77q216 17 1123 532l295 227l68 22q90 0 90 -45q-606 -368 -950 -566q-364 -181 -532 -234t-325 64v91l23 45q-364 -181 -794 -311l-91 68q738 692 1097 852h46q-451 -304 -661 -499t-233 -263q226 0 1133 515l295 227l68 22q90 0 90 -45q-606 -368 -883 -634
q18 -59 141 -68z" />
    <glyph glyph-name="X" unicode="X" horiz-adv-x="1350" 
d="M1038.5 479q32.5 48 309.5 265t584 313h96v-46q-763 -299 -1038 -793l21 -115q142 -72 315 -77h49q0 -90 -398 -23q-84 52 -89.5 163.5t73.5 257.5q45 7 77.5 55zM857 421q-100 -63 -186 -112.5t-533 -407.5h-49l-16 20v46q986 612 837 834q-42 148 -212 -2h-49l-79 52
q101 121 277 127l87 -18q101 -86 101 -229l-53 -194q-8 -89 -53 -63z" />
    <glyph glyph-name="Y" unicode="Y" horiz-adv-x="410" 
d="M1034 998l16 -47q-102 -209 -805 -948v-15q174 76 192 18l-38 -18q-229 -79 -407 -221q-698 -642 -915 -695l-16 47q178 273 521 474l16 -16v-16q-37 0 -253 -221q-58 0 -79 -79h32q354 232 920 781l-48 -4l-53 20l-19 25q-82 113 16 470l32 -18q-34 -308 29 -396l60 24
q400 318 594 598l-16 48l-24 41q1 36 135 132zM132 782q105 67 122 -25l-32 -46l-56 12zM147 637l-10 52q61 7 10 -52z" />
    <glyph glyph-name="Z" unicode="Z" horiz-adv-x="564" 
d="M1544 1270h18l35 -36q0 -200 -552 -481q-37 0 -695 -623l-107 -71v-36l72 -18q266 43 272 -8q-57 -37 -254 -63l-161 18l-231 -161h-36v72q73 141 285 213q338 245 641 588v18q-330 -93 -535 -35l-30 -46q-124 26 9 101l140 -2q-4 -69 505 36q460 534 624 534zM1116 860
v-18l285 196v36h-35z" />
    <glyph glyph-name="bracketleft" unicode="[" horiz-adv-x="758" 
 />
    <glyph glyph-name="backslash" unicode="\" horiz-adv-x="569" 
d="M-57 1085l20 49l48 -36q340 -552 541 -1209l-13 -32l-23 -4l-32 24q-146 516 -530 1135z" />
    <glyph glyph-name="bracketright" unicode="]" horiz-adv-x="758" 
 />
    <glyph glyph-name="asciicircum" unicode="^" horiz-adv-x="564" 
d="M430 649h21l62 -62v-42l-83 -104h-21q0 75 -62 125l-333 -63v42z" />
    <glyph glyph-name="underscore" unicode="_" horiz-adv-x="404" 
d="M33 51h55q40 -28 77 -28l33 10q154 -22 154 -37q-16 -37 -33 -37q-319 0 -319 55v9z" />
    <glyph glyph-name="grave" unicode="`" horiz-adv-x="222" 
d="M-20 694h31l201 -217l-15 -15q-194 91 -248 186v15z" />
    <glyph glyph-name="a" unicode="a" horiz-adv-x="559" 
d="M542 370q60 -7 80 -40q69 10 44 -36.5t-124 -171.5l-15 -41q106 -49 34 -93l-172 57q-331 -116 -439 0q295 325 592 325zM64 83q-19 -47 58 -38q233 0 420 210v19h-77q-296 -66 -401 -191z" />
    <glyph glyph-name="b" unicode="b" horiz-adv-x="380" 
d="M1147 1051h47l48 -48v-47l-253 -206h-32l111 127v31h-16q-136 0 -442 -347h15l301 189h31v-16q-97 -114 -632 -411q0 -94 79 -94l128 -8q-16 -48 -47 -48l-172 -3q-36 -78 -156 -190l-159 -63h-15l-16 16h-16q0 136 216 327l158 142q150 91 522 475q219 174 300 174z
M46 -4q54 0 184 169v32h-16q-113 -76 -168 -201z" />
    <glyph glyph-name="c" unicode="c" horiz-adv-x="479" 
d="M316 406h19l96 19q96 -19 96 -77q-26 -115 -230 -79q-172 -45 -192 -208l38 -39q113 0 238 27.5t138 -18.5h-19q-309 -66 -414 -66q-88 37 -95.5 85t61 164t264.5 192z" />
    <glyph glyph-name="d" unicode="d" horiz-adv-x="852" 
d="M1388 974q185 0 185 -135q-392 -343 -657 -456q-253 -156 -253 -320l16 -17h17q185 52 200 -16q-79 -29 -250 -51l-85 50l34 152l-202 -67h-17q41 69 287 185l33 51l-67 33h-85q-472 -173 -472 -337l287 68q-43 -57 -304 -135q-77 32 -84 67q0 167 573 405q186 0 186 -84
q236 263 658 607zM1085 613l-42 -82l148 92q-19 52 -106 -10z" />
    <glyph glyph-name="e" unicode="e" horiz-adv-x="494" 
d="M468 382q39 0 51 -85q-303 -128 -374 -204q17 -51 102 -51h51q125 0 181 20l34 -35q-84 -36 -317 -70q-170 0 -170 119q37 85 255 272q67 34 187 34z" />
    <glyph glyph-name="f" unicode="f" horiz-adv-x="805" 
d="M1220 1040h35l35 -35q-144 -240 -696 -591q-381 -234 -1096 -958q-30 0 -157 -191v-17h17q357 181 836 678q30 209 87 209h17l313 -70l244 18l17 -18v-17q0 -44 -156 -87l-383 87q-120 -272 -435 -487q-495 -383 -592 -383h-17l-35 35q58 199 731 818q322 277 731 609z
" />
    <glyph glyph-name="g" unicode="g" horiz-adv-x="856" 
d="M585 327q59 0 148 -74l56 18l37 -55q-417 -168 -538 -408l-37 -38l241 56l-20 -37l-243 -76l-52 2q-100 -89 -520 -408l-55 -19l-19 19v55q6 123 529 439l72 15l123 158l20 35q-310 -40 -336 40q0 168 557 278h37zM140 49q445 116 445 167l-19 18h-111
q-334 -74 -334 -185h19zM897 24v-19q-41 -74 -352 -148q108 95 352 167z" />
    <glyph glyph-name="h" unicode="h" horiz-adv-x="631" 
d="M1064 959q69 -19 75 -60l-15 -15q0 -60 -77 -66q-67 -144 -159 -161l-20 28q142 120 151 154v15q-81 0 -164.5 -77t-134 -120t-152.5 -178v-15h15l45 15q-270 -246 -345 -361q-21 -15 -75 -90h15q45 0 120 75l330 211q146 16 -30 -136l-75 -105v-15l75 -15l15 -30
l-45 -30q-135 18 -135 60v15l45 90l-225 -180l-121 -30h-45l-30 30v15q0 50 45 105l-174 -111v45l219 186q68 0 368.5 352.5t503.5 398.5zM823 659h15v-45l-150 -90h-15l53 53z" />
    <glyph glyph-name="i" unicode="i" horiz-adv-x="514" 
d="M3 57q26 -27 431 192l151 87l19 -19q0 -72 -65.5 -99t-123.5 -85l-19 -19v-39q20 -23 143 1q12 -64 -54 -86l-147 -11q-76 0 -155 96l-238 -95q-96 27 -48 52t106 25zM1032 712q136 0 115 -180q-227 77 -230 122q19 58 115 58z" />
    <glyph glyph-name="j" unicode="j" horiz-adv-x="454" 
d="M902 714h33q34 0 51 -101l-17 -17h-34l-67 67v17zM501 326h51l52 -39q48 -51 -339 -315l-135 -118v-17q241 179 365 179l-17 -34q-320 -148 -651 -398q-193 -125 -421 -337l-132 -130h-17l-34 34q632 634 891 770l185 135l17 17v17h-17q-208 -101 -337 -101l-1 33
l330 156z" />
    <glyph glyph-name="k" unicode="k" horiz-adv-x="1234" 
d="M2510 1433l29 -44v-15q-28 -64 -194.5 -135.5t-677.5 -384.5q-183 -131 -307.5 -211t-534.5 -420v-29h14q120 124 378 84h15v-43q-179 -29 -312 -170v-15l29 -29h15q212 12 283 48q9 -77 -72 -81l-211 -40q-132 31 -132 117l-24 30h-29q-135 -115 -235 -115l-14 14v15
q252 257 685 583l14 14v30q-60 0 -1229 -655l-13 25q768 442 1050 574t688 405q352 256 785 448z" />
    <glyph glyph-name="l" unicode="l" horiz-adv-x="235" 
d="M1661 1256l47 -16v-63q-5 -37 -232.5 -177t-780.5 -472q-633 -353 -633 -507v-16l190 48h16q0 -63 -238 -95l-47 16v47l95 143q253 256 459 395q863 697 1124 697zM738 627q348 160 532.5 283t184.5 156v16h-16q-122 0 -570 -348z" />
    <glyph glyph-name="m" unicode="m" horiz-adv-x="1468" 
d="M629 263v-46l-92 -108v-15l321 92h46l31 -31v-15l-31 -46l15 -15h16q364 122 475 122q30 -46 -10.5 -62.5t-20.5 -59.5h15l86 20q31 -5 -5 -74l-65 -23h-62q-76 0 -138 92l-275 -92q-123 0 -184 77l-398 -107l-15 15v31l168 168l-15 15h-16l-496 -222l-15 16v15
q0 81 404 207q215 88 261 46z" />
    <glyph glyph-name="n" unicode="n" horiz-adv-x="1076" 
d="M696 272q-25 -49 -178 -157l552 177l20 -20v-39l-99 -138h59h59v-59q-55 -59 -197 -40q-66 29 -59 99l20 59h-20l-472 -177q-53 33 -40 98q57 99 118 138h-39l-387 -207q-45 -29 -45 30v19q460 255 570 257q148 16 138 -40z" />
    <glyph glyph-name="o" unicode="o" horiz-adv-x="650" 
d="M510 383h91l54 -54l-91 -126h199v-18l-36 -37h-72q-187 0 -469 -144l-163 -18l-36 54v18q92 169 523 325zM456 257v-36h18l54 54zM95 22q289 93 289 144l-72 73q-58 0 -235 -163z" />
    <glyph glyph-name="p" unicode="p" horiz-adv-x="552" 
d="M1536 1143l30 -45q-180 -280 -704 -591t-845 -552v-30h15q331 255 451 255v-30l-165 -135l15 -15q148 55 236 40l-7 -33l-350 -113h-45l-30 31l15 45q-103 -23 -602 -497l-163 -157h-15l-30 30l268 293l482 436l376 301l166 135q677 632 902 632zM649 466h15
q399 193 767 542v30h-15q-109 0 -482 -316q-283 -228 -285 -256z" />
    <glyph glyph-name="q" unicode="q" horiz-adv-x="733" 
d="M400 326q159 -26 159 -119l-60 -20l-119 40q-137 0 -277 -159v-19l20 -40l515 158l139 -118q8 -40 -198 -179l19 99l-39 40q-398 -193 -951 -693l-20 -20v-40h59q308 149 753 476v-20q-438 -403 -852 -555l-79 59q0 85 376 377l496 376l-20 20l-218 -59q-119 26 -119 59
v20q0 177 416 317z" />
    <glyph glyph-name="r" unicode="r" horiz-adv-x="692" 
d="M438 447q36 31 105 0l52 -53l-35 -105l105 -87q0 -30 -210 -140q0 -35 53 -35l245 35v-18q0 -66 -350 -87q-87 29 -87 87q0 33 174 123l18 17v18h-53q-320 -216 -470 -216v35q166 16 365 251z" />
    <glyph glyph-name="s" unicode="s" horiz-adv-x="676" 
d="M575 -4l-234 -88q-91 66 -58 172q-205 -78 -279 -95q-105 13 -67 52q113 6 323 98l520 212l19 -19v-19l-172 -210l-26 -24l74 -5q15 -34 7 -49.5t-107 -24.5zM416 124q48 -5 74 -48q41 61 146 139l-143 -59z" />
    <glyph glyph-name="t" unicode="t" horiz-adv-x="786" 
d="M524 -56q-76 39 -76 94l96 185q-352 -235 -577 -235q17 50 57 38q169 33 365 150.5t795 597.5v19q-528 38 -528 113l37 38q284 -94 585 -94l566 434l19 -19v56h19q0 -37 75 -37v-57l-471 -377v-19h75l227 -19v-38h-19l-76 19l-170 -19h-132q-523 -348 -679 -490
q-155 -156 -170 -264l19 -19h19q97 0 215 49h56l38 -38q-189 -82 -365 -68zM1825 812h227v-38h-227v38z" />
    <glyph glyph-name="u" unicode="u" horiz-adv-x="912" 
d="M988 298v-59q-115 0 -235 -216h19l168 29v-20q0 -51 -70 -68h-176l-59 59l59 98q-47 -70 -373 -137h-98q-59 0 -56 51q-247 -101 -236 -19q92 0 518 262h48v-20q-196 -104 -196 -176q56 -86 667 216h20z" />
    <glyph glyph-name="v" unicode="v" horiz-adv-x="1353" 
d="M811 328h55q37 0 37 -56q0 -39 -147 -166l-13 -34q437 103 437 145q219 -147 222 -231l-185 102h-19l-553 -129h-74l-36 37l202 239h-166v19q0 42 240 74zM553 254v-19q-40 -54 -424 -184q-152 -71 -168 -1z" />
    <glyph glyph-name="w" unicode="w" horiz-adv-x="1804" 
d="M693 254v-45q-49 -60 -134 -119q44 -64 173.5 -44.5t274.5 186.5l134 7l30 -30v-15l-116 -131q258 -14 462 168l117 8v-15q0 -45 -60 -45l-29 -69q98 -66 270 -49l15 -15v-30q0 -32 -230 -40q-181 52 -145 158h-15q-220 -178 -464 -149q-29 64 -29 134
q-134 -148 -321 -150q-171 51 -171 76l14 74v15h-14l-450 -156h-15l-30 30q0 44 733 246z" />
    <glyph glyph-name="x" unicode="x" horiz-adv-x="467" 
d="M171 337h149q66 -32 66 -79l-33 -63l16 -16h17q192 158 264 158h33v-16q-236 -145 -314 -269h17q61 0 106 -16h17v-31l-189 -32q-75 31 -83 63q50 32 50 64v15h-17q-33 0 -79.5 -22.5t-167.5 -135.5h-17l-33 32v16l281 237l-17 16l-148 -63h-17l-33 31q37 60 132 111z
" />
    <glyph glyph-name="y" unicode="y" horiz-adv-x="1066" 
d="M988 298v-59l-607 -536h39q114 55 651 318l23 -26q-1092 -527 -1171 -750l-219 -199h-40v40q186 259 836 836l269 212q-149 -66 -448 -150h-98q-59 0 -56 51q-247 -101 -236 -19q92 0 518 262h48v-20q-196 -104 -196 -176q56 -86 667 216h20z" />
    <glyph glyph-name="z" unicode="z" horiz-adv-x="685" 
d="M706 8q-980 -437 -1042 -674l-219 -199h-40v40q186 259 494.5 528t543.5 370l-23 37l-71 21l-6 47l41 72q19 63 -47 58q-177 -67 -319 -322l-53 8l37 73q238 284 417 353l108 -35q-14 -152 -86 -186l44 -31l55 -52l-21 -82l-397 -242h39q100 79 522 242z" />
    <glyph glyph-name="braceleft" unicode="{" 
 />
    <glyph glyph-name="bar" unicode="|" horiz-adv-x="400" 
d="M214 1238l42 32l24 -55q18 -648 -136 -1317l-28 -21l-22 8l-16 36q132 520 109 1248z" />
    <glyph glyph-name="braceright" unicode="}" 
 />
    <glyph glyph-name="asciitilde" unicode="~" horiz-adv-x="493" 
d="M109 558l53 14l5 -18l-34 -85l21 -75l-33 -24l-85 35l-10 35zM175 431l56 26l214 57l9 -35l-65 -113l-35 -10l-5 18l21 63l-5 18l-17 -5l-120 -51l-39 9z" />
    <glyph glyph-name="exclamdown" unicode="&#xa1;" horiz-adv-x="469" 
d="M68 -853l-41 -19l-17 40q38 444 236 888l27 12l20 -7l11 -26q-164 -344 -206 -843zM334 171q-59 23 44 166q59 -40 36 -103q-39 -79 -80 -63z" />
    <glyph glyph-name="cent" unicode="&#xa2;" 
d="M374 406h19l96 19q96 -19 96 -77q-26 -115 -230 -79q-172 -45 -192 -208l38 -39q113 0 238 27.5t138 -18.5h-19q-309 -66 -414 -66q-88 37 -95.5 85t61 164t264.5 192zM650 991l50 16l4 -61q-205 -615 -578 -1191l-33 -10l-19 15l-2 40q302 443 530 1135z" />
    <glyph glyph-name="sterling" unicode="&#xa3;" 
 />
    <glyph glyph-name="currency" unicode="&#xa4;" 
 />
    <glyph glyph-name="yen" unicode="&#xa5;" horiz-adv-x="1262" 
 />
    <glyph glyph-name="brokenbar" unicode="&#xa6;" 
 />
    <glyph glyph-name="section" unicode="&#xa7;" 
 />
    <glyph glyph-name="dieresis" unicode="&#xa8;" horiz-adv-x="458" 
d="M145 511q136 0 39 -114q-151 11 -154 56q19 58 115 58zM334 529q76 34 96 -110q-73 -40 -112 -18q-38 49 16 128z" />
    <glyph glyph-name="copyright" unicode="&#xa9;" horiz-adv-x="1183" 
d="M212 797q402 404 809 140q153 -193 -29 -659q-152 -356 -629 -383q-458 134 -151 902zM553 977q-583 -445 -225 -996q534 14 679 714q-95 325 -454 282zM586 710h19l96 19q96 -19 96 -77q-26 -115 -230 -79q-172 -45 -192 -208l38 -39q113 0 238 27.5t138 -18.5h-19
q-309 -66 -414 -66q-88 37 -95.5 85t61 164t264.5 192z" />
    <glyph glyph-name="ordfeminine" unicode="&#xaa;" horiz-adv-x="648" 
 />
    <glyph glyph-name="guillemotleft" unicode="&#xab;" horiz-adv-x="900" 
d="M452 410l48 -28q32 -18 4 -67q-20 -34 -211 -70l-28 -23q170 -125 203 -148.5t0 -78.5l-44 6l-300 172l-64 37l-13 50l294 106zM756 380l48 -28q32 -18 4 -67q-20 -34 -211 -70l-28 -23q170 -125 203 -148.5t0 -78.5l-44 6l-300 172l-64 37l-13 50l294 106z" />
    <glyph glyph-name="logicalnot" unicode="&#xac;" 
 />
    <glyph glyph-name="registered" unicode="&#xae;" horiz-adv-x="1674" 
d="M212 797q402 404 809 140q99 -217 -29 -659q-152 -356 -629 -383q-523 233 -151 902zM553 977q-563 -428 -424.5 -743t436 -277t442.5 738q-95 325 -454 282zM716 881q236 -22 269 -162q0 -109 -179 -216l-235 -75q75 -172 243 -319l-8 -49l-34 11q-137 79 -271 361
l57 47q290 99 362 197v43q-68 119 -225 119q-182 0 -388 -172l-11 10v22q143 183 420 183zM521 638h32v-32q-152 -288 -409 -527h-22l-10 11v21q206 182 376 506z" />
    <glyph glyph-name="macron" unicode="&#xaf;" horiz-adv-x="448" 
d="M60 1159h61q44 -28 84 -28l36 10q169 -22 169 -37q-18 -37 -36 -37q-350 0 -350 55v9z" />
    <glyph glyph-name="degree" unicode="&#xb0;" horiz-adv-x="404" 
d="M85 773q121 122 244 43q46 -59 -9 -199q-46 -108 -190 -116q-138 41 -45 272zM250 764l-57 14q-104 -139 -26 -227q167 52 83 213z" />
    <glyph glyph-name="plusminus" unicode="&#xb1;" 
 />
    <glyph glyph-name="uni00B2" unicode="&#xb2;" 
 />
    <glyph glyph-name="uni00B3" unicode="&#xb3;" 
 />
    <glyph glyph-name="acute" unicode="&#xb4;" horiz-adv-x="444" 
d="M268 652h65l82 -16v-49q-217 0 -359 -98l-16 16v49q0 33 228 98z" />
    <glyph glyph-name="mu" unicode="&#xb5;" horiz-adv-x="1180" 
 />
    <glyph glyph-name="paragraph" unicode="&#xb6;" horiz-adv-x="1024" 
 />
    <glyph glyph-name="periodcentered" unicode="&#xb7;" horiz-adv-x="508" 
d="M234 220q136 0 39 -114q-151 11 -154 56q19 58 115 58z" />
    <glyph glyph-name="periodcentered" unicode="&#x2219;" horiz-adv-x="508" 
d="M234 220q136 0 39 -114q-151 11 -154 56q19 58 115 58z" />
    <glyph glyph-name="cedilla" unicode="&#xb8;" horiz-adv-x="279" 
d="M256 -10l17 -51q0 -34 -236 -252h-17v34l84 101v16q-50 0 -50 34q72 83 202 118z" />
    <glyph glyph-name="uni00B9" unicode="&#xb9;" 
 />
    <glyph glyph-name="ordmasculine" unicode="&#xba;" horiz-adv-x="445" 
d="M82 574q121 122 244 43q46 -59 -9 -199q-46 -108 -190 -116q-138 41 -45 272zM247 565l-57 14q-104 -139 -26 -227q167 52 83 213z" />
    <glyph glyph-name="guillemotright" unicode="&#xbb;" horiz-adv-x="910" 
d="M222 366l295 -106l-13 -50l-64 -37l-300 -172l-44 -6q-33 55 0 78.5t203 148.5l-29 23q-190 36 -210 70q-28 49 4 67l48 28zM574 393l295 -106l-13 -50l-64 -37l-300 -172l-44 -6q-33 55 0 78.5t203 148.5l-29 23q-190 36 -210 70q-28 49 4 67l48 28z" />
    <glyph glyph-name="onequarter" unicode="&#xbc;" horiz-adv-x="1708" 
 />
    <glyph glyph-name="onehalf" unicode="&#xbd;" horiz-adv-x="1964" 
 />
    <glyph glyph-name="threequarters" unicode="&#xbe;" horiz-adv-x="1708" 
 />
    <glyph glyph-name="questiondown" unicode="&#xbf;" horiz-adv-x="705" 
d="M501 171q-59 23 44 166q59 -40 36 -103q-39 -79 -80 -63zM566 -867l-83 -7q-257 -34 -356 108.5t-81 301.5q338 333 405 556l38 -14l-49 -174q-377 -380 -348 -485l7 -26q0 -138 106 -176t239 -2q-7 98 15 104l27 7q148 -17 169 -97q-16 -76 -89 -96z" />
    <glyph glyph-name="Agrave" unicode="&#xc0;" horiz-adv-x="1072" 
d="M1733 1012h158l46 -45v-90q0 -46 -91 -46l-22 -22v-23q90 0 90 -45q-606 -368 -883 -634l46 -45h45q-44 -92 -67.5 -68.5t-90.5 23.5l-23 22v91l23 23v22q-611 -345 -1041 -475l-91 68l561 464l73 34q-362 -340 -385 -408q226 0 1380 679l295 227l-46 67q-3 22 68 23v45
q-222 0 -1063 -475q-151 -136 -227 -136q720 539 1245 724zM1753 1284h31l201 -217l-15 -15q-194 91 -248 186v15z" />
    <glyph glyph-name="Aacute" unicode="&#xc1;" horiz-adv-x="1072" 
d="M1733 1012h158l46 -45v-90q0 -46 -91 -46l-22 -22v-23q90 0 90 -45q-606 -368 -883 -634l46 -45h45q-44 -92 -67.5 -68.5t-90.5 23.5l-23 22v91l23 23v22q-611 -345 -1041 -475l-91 68l561 464l73 34q-362 -340 -385 -408q226 0 1380 679l295 227l-46 67q-3 22 68 23v45
q-222 0 -1063 -475q-151 -136 -227 -136q720 539 1245 724zM2052 1260h65l82 -16v-49q-217 0 -359 -98l-16 16v49q0 33 228 98z" />
    <glyph glyph-name="Acircumflex" unicode="&#xc2;" horiz-adv-x="1072" 
d="M1733 1012h158l46 -45v-90q0 -46 -91 -46l-22 -22v-23q90 0 90 -45q-606 -368 -883 -634l46 -45h45q-44 -92 -67.5 -68.5t-90.5 23.5l-23 22v91l23 23v22q-611 -345 -1041 -475l-91 68l561 464l73 34q-362 -340 -385 -408q226 0 1380 679l295 227l-46 67q-3 22 68 23v45
q-222 0 -1063 -475q-151 -136 -227 -136q720 539 1245 724zM2045 1283h26l77 -77v-52l-103 -129h-26q0 94 -78 155l-413 -77v51z" />
    <glyph glyph-name="Atilde" unicode="&#xc3;" horiz-adv-x="1072" 
d="M1733 1012h158l46 -45v-90q0 -46 -91 -46l-22 -22v-23q90 0 90 -45q-606 -368 -883 -634l46 -45h45q-44 -92 -67.5 -68.5t-90.5 23.5l-23 22v91l23 23v22q-611 -345 -1041 -475l-91 68l561 464l73 34q-362 -340 -385 -408q226 0 1380 679l295 227l-46 67q-3 22 68 23v45
q-222 0 -1063 -475q-151 -136 -227 -136q720 539 1245 724zM1800 1255l53 14l5 -18l-34 -85l21 -75l-33 -24l-85 35l-10 35zM1866 1128l56 26l214 57l9 -35l-65 -113l-35 -10l-5 18l21 63l-5 18l-17 -5l-120 -51l-39 9z" />
    <glyph glyph-name="Adieresis" unicode="&#xc4;" horiz-adv-x="1072" 
d="M1733 1012h158l46 -45v-90q0 -46 -91 -46l-22 -22v-23q90 0 90 -45q-606 -368 -883 -634l46 -45h45q-44 -92 -67.5 -68.5t-90.5 23.5l-23 22v91l23 23v22q-611 -345 -1041 -475l-91 68l561 464l73 34q-362 -340 -385 -408q226 0 1380 679l295 227l-46 67q-3 22 68 23v45
q-222 0 -1063 -475q-151 -136 -227 -136q720 539 1245 724zM1763 1242q136 0 39 -114q-151 11 -154 56q19 58 115 58zM1952 1260q76 34 96 -110q-73 -40 -112 -18q-38 49 16 128z" />
    <glyph glyph-name="Aring" unicode="&#xc5;" horiz-adv-x="1072" 
d="M1733 1012h158l46 -45v-90q0 -46 -91 -46l-22 -22v-23q90 0 90 -45q-606 -368 -883 -634l46 -45h45q-44 -92 -67.5 -68.5t-90.5 23.5l-23 22v91l23 23v22q-611 -345 -1041 -475l-91 68l561 464l73 34q-362 -340 -385 -408q226 0 1380 679l295 227l-46 67q-3 22 68 23v45
q-222 0 -1063 -475q-151 -136 -227 -136q720 539 1245 724zM1790 1199q121 122 244 43q46 -59 -9 -199q-46 -108 -190 -116q-138 41 -45 272zM1955 1190l-57 14q-104 -139 -26 -227q167 52 83 213z" />
    <glyph glyph-name="AE" unicode="&#xc6;" horiz-adv-x="2106" 
d="M1733 1012h158l46 -45v-90q0 -46 -91 -46l-22 -22v-23q90 0 90 -45q-606 -368 -883 -634l46 -45h45q-44 -92 -67.5 -68.5t-90.5 23.5l-23 22v91l23 23v22q-611 -345 -1041 -475l-91 68l561 464l73 34q-362 -340 -385 -408q226 0 1380 679l295 227l-46 67q-3 22 68 23v45
q-222 0 -1063 -475q-151 -136 -227 -136q720 539 1245 724zM2247 1167h97l38 -39v-19l-38 -39l-39 39h-19l-127 -70q65 -44 177 0l-50 -46q-95 -34 -148 -10l5 26q-244 -115 -251 -214t186 -138l-13 -19q-712 -358 -726 -727q0 -96 77 -116q194 22 259 105h20v-19
q-75 -84 -279 -105q-135 27 -135 77v97q-31 379 639 691q-96 10 -128.5 106.5t346.5 365.5q51 54 109 54zM1996 414h38l39 -78q0 -136 -290 -386h-38q156 141 232 290q0 96 -97 116v19z" />
    <glyph glyph-name="Ccedilla" unicode="&#xc7;" horiz-adv-x="596" 
d="M1108 1001q-827 -521 -981 -1080h44l368 117q57 46 100 -24q-251 -160 -512 -181q-132 29 -132 66q144 405 882 1036q482 375 661 375h44l88 -88v-110q-437 -507 -617 -507q-145 -21 -128.5 94t215.5 289l25 11q61 41 61 -3q-137 -92 -241 -266q-44 -134 142 -28.5
t428 467.5l-52 -7q-271 -64 -395 -161zM265 -229l17 -51q0 -34 -236 -252h-17v34l84 101v16q-50 0 -50 34q72 83 202 118z" />
    <glyph glyph-name="Egrave" unicode="&#xc8;" horiz-adv-x="723" 
d="M929 1119h97l38 -39v-19l-38 -39l-39 39h-19l-127 -70q65 -44 177 0l-50 -46q-95 -34 -148 -10l5 26q-244 -115 -251 -214t186 -138l-13 -19q-712 -358 -726 -727q0 -96 77 -116q194 22 259 105h20v-19q-75 -84 -279 -105q-135 27 -135 77v97q-31 379 639 691
q-96 10 -128.5 106.5t346.5 365.5q51 54 109 54zM678 366h38l39 -78q0 -136 -290 -386h-38q156 141 232 290q0 96 -97 116v19zM800 1318h31l201 -217l-15 -15q-194 91 -248 186v15z" />
    <glyph glyph-name="Eacute" unicode="&#xc9;" horiz-adv-x="723" 
d="M998 1140h97l38 -39v-19l-38 -39l-39 39h-19l-127 -70q65 -44 177 0l-50 -46q-95 -34 -148 -10l5 26q-244 -115 -251 -214t186 -138l-13 -19q-712 -358 -726 -727q0 -96 77 -116q194 22 259 105h20v-19q-75 -84 -279 -105q-135 27 -135 77v97q-31 379 639 691
q-96 10 -128.5 106.5t346.5 365.5q51 54 109 54zM747 387h38l39 -78q0 -136 -290 -386h-38q156 141 232 290q0 96 -97 116v19zM1154 1294h65l82 -16v-49q-217 0 -359 -98l-16 16v49q0 33 228 98z" />
    <glyph glyph-name="Ecircumflex" unicode="&#xca;" horiz-adv-x="723" 
d="M878 1036h97l38 -39v-19l-38 -39l-39 39h-19l-127 -70q65 -44 177 0l-50 -46q-95 -34 -148 -10l5 26q-244 -115 -251 -214t186 -138l-13 -19q-712 -358 -726 -727q0 -96 77 -116q194 22 259 105h20v-19q-75 -84 -279 -105q-135 27 -135 77v97q-31 379 639 691
q-96 10 -128.5 106.5t346.5 365.5q51 54 109 54zM627 283h38l39 -78q0 -136 -290 -386h-38q156 141 232 290q0 96 -97 116v19zM1110 1307h26l77 -77v-52l-103 -129h-26q0 94 -78 155l-413 -77v51z" />
    <glyph glyph-name="Edieresis" unicode="&#xcb;" horiz-adv-x="723" 
d="M909 1115h97l38 -39v-19l-38 -39l-39 39h-19l-127 -70q65 -44 177 0l-50 -46q-95 -34 -148 -10l5 26q-244 -115 -251 -214t186 -138l-13 -19q-712 -358 -726 -727q0 -96 77 -116q194 22 259 105h20v-19q-75 -84 -279 -105q-135 27 -135 77v97q-31 379 639 691
q-96 10 -128.5 106.5t346.5 365.5q51 54 109 54zM658 362h38l39 -78q0 -136 -290 -386h-38q156 141 232 290q0 96 -97 116v19zM870 1286q136 0 39 -114q-151 11 -154 56q19 58 115 58zM1059 1304q76 34 96 -110q-73 -40 -112 -18q-38 49 16 128z" />
    <glyph glyph-name="Igrave" unicode="&#xcc;" horiz-adv-x="639" 
d="M1759 1081l16 -16l-544 -608l-16 16v16l224 352l-16 16q-192 -48 -464 -32h-16q-164 -63 -671 -731l255 -64v-32h-16l-271 36l-87 -140l-95 -25l16 128q12 16 62 61l-121 -4v48q54 37 174 16q482 626 637 738q-203 19 -423 118l-12 34l41 15q183 -75 421 -113l156 -18
l78 -3q144 -16 255 13t417 179zM813 1271h31l201 -217l-15 -15q-194 91 -248 186v15z" />
    <glyph glyph-name="Iacute" unicode="&#xcd;" horiz-adv-x="639" 
d="M1759 1081l16 -16l-544 -608l-16 16v16l224 352l-16 16q-192 -48 -464 -32h-16q-164 -63 -671 -731l255 -64v-32h-16l-271 36l-87 -140l-95 -25l16 128q12 16 62 61l-121 -4v48q54 37 174 16q482 626 637 738q-203 19 -423 118l-12 34l41 15q183 -75 421 -113l156 -18
l78 -3q144 -16 255 13t417 179zM1265 1260h65l82 -16v-49q-217 0 -359 -98l-16 16v49q0 33 228 98z" />
    <glyph glyph-name="Icircumflex" unicode="&#xce;" horiz-adv-x="639" 
d="M1759 1081l16 -16l-544 -608l-16 16v16l224 352l-16 16q-192 -48 -464 -32h-16q-164 -63 -671 -731l255 -64v-32h-16l-271 36l-87 -140l-95 -25l16 128q12 16 62 61l-121 -4v48q54 37 174 16q482 626 637 738q-203 19 -423 118l-12 34l41 15q183 -75 421 -113l156 -18
l78 -3q144 -16 255 13t417 179zM1276 1294h26l77 -77v-52l-103 -129h-26q0 94 -78 155l-413 -77v51z" />
    <glyph glyph-name="Idieresis" unicode="&#xcf;" horiz-adv-x="639" 
d="M1759 1081l16 -16l-544 -608l-16 16v16l224 352l-16 16q-192 -48 -464 -32h-16q-164 -63 -671 -731l255 -64v-32h-16l-271 36l-87 -140l-95 -25l16 128q12 16 62 61l-121 -4v48q54 37 174 16q482 626 637 738q-203 19 -423 118l-12 34l41 15q183 -75 421 -113l156 -18
l78 -3q144 -16 255 13t417 179zM961 1231q136 0 39 -114q-151 11 -154 56q19 58 115 58zM1150 1249q76 34 96 -110q-73 -40 -112 -18q-38 49 16 128z" />
    <glyph glyph-name="Eth" unicode="&#xd0;" horiz-adv-x="1518" 
 />
    <glyph glyph-name="Ntilde" unicode="&#xd1;" horiz-adv-x="1231" 
d="M827 1034l87 -18q101 -86 101 -229q-94 -251 -91 -531q409 561 836 730h96v-46q-467 -215 -712 -497.5t-133 -339.5q142 -72 197 -67h49q0 -90 -327 -13q-115 147 -108 304l15 150q-291 -335 -719 -520h-49l-16 20v46q392 154 630 402t207 432q-42 148 -168 73
q-113 -54 -172 -23q101 121 277 127zM1203 1227l53 14l5 -18l-34 -85l21 -75l-33 -24l-85 35l-10 35zM1269 1100l56 26l214 57l9 -35l-65 -113l-35 -10l-5 18l21 63l-5 18l-17 -5l-120 -51l-39 9z" />
    <glyph glyph-name="Ograve" unicode="&#xd2;" horiz-adv-x="774" 
d="M1162 1045q256 0 256 -220q-235 -282 -534.5 -484.5t-764.5 -356.5h-73q-73 30 -73 128q133 262 933 878h55l36 -37v-54l-55 -55l-73 18q-77 -4 -384 -293q-238 -193 -338.5 -299t-100.5 -213l55 -18q779 237 1226 823q0 49 -257 128v18zM1222 1278h31l201 -217l-15 -15
q-194 91 -248 186v15z" />
    <glyph glyph-name="Oacute" unicode="&#xd3;" horiz-adv-x="774" 
d="M1162 1045q256 0 256 -220q-235 -282 -534.5 -484.5t-764.5 -356.5h-73q-73 30 -73 128q133 262 933 878h55l36 -37v-54l-55 -55l-73 18q-77 -4 -384 -293q-238 -193 -338.5 -299t-100.5 -213l55 -18q779 237 1226 823q0 49 -257 128v18zM1336 1263h65l82 -16v-49
q-217 0 -359 -98l-16 16v49q0 33 228 98z" />
    <glyph glyph-name="Ocircumflex" unicode="&#xd4;" horiz-adv-x="774" 
d="M1162 1045q256 0 256 -220q-235 -282 -534.5 -484.5t-764.5 -356.5h-73q-73 30 -73 128q133 262 933 878h55l36 -37v-54l-55 -55l-73 18q-77 -4 -384 -293q-238 -193 -338.5 -299t-100.5 -213l55 -18q779 237 1226 823q0 49 -257 128v18zM1336 1303h26l77 -77v-52
l-103 -129h-26q0 94 -78 155l-413 -77v51z" />
    <glyph glyph-name="Otilde" unicode="&#xd5;" horiz-adv-x="774" 
d="M1162 1045q256 0 256 -220q-235 -282 -534.5 -484.5t-764.5 -356.5h-73q-73 30 -73 128q133 262 933 878h55l36 -37v-54l-55 -55l-73 18q-77 -4 -384 -293q-238 -193 -338.5 -299t-100.5 -213l55 -18q779 237 1226 823q0 49 -257 128v18zM1053 1296l53 14l5 -18l-34 -85
l21 -75l-33 -24l-85 35l-10 35zM1119 1169l56 26l214 57l9 -35l-65 -113l-35 -10l-5 18l21 63l-5 18l-17 -5l-120 -51l-39 9z" />
    <glyph glyph-name="Odieresis" unicode="&#xd6;" horiz-adv-x="774" 
d="M1162 1045q256 0 256 -220q-235 -282 -534.5 -484.5t-764.5 -356.5h-73q-73 30 -73 128q133 262 933 878h55l36 -37v-54l-55 -55l-73 18q-77 -4 -384 -293q-238 -193 -338.5 -299t-100.5 -213l55 -18q779 237 1226 823q0 49 -257 128v18zM1072 1276q136 0 39 -114
q-151 11 -154 56q19 58 115 58zM1261 1294q76 34 96 -110q-73 -40 -112 -18q-38 49 16 128z" />
    <glyph glyph-name="multiply" unicode="&#xd7;" 
 />
    <glyph glyph-name="Oslash" unicode="&#xd8;" horiz-adv-x="774" 
d="M1162 1045q256 0 256 -220q-235 -282 -534.5 -484.5t-764.5 -356.5h-73q-73 30 -73 128q133 262 933 878h55l36 -37v-54l-55 -55l-73 18q-77 -4 -384 -293q-238 -193 -338.5 -299t-100.5 -213l55 -18q779 237 1226 823q0 49 -257 128v18zM927 1128l50 16l4 -61
q-205 -615 -578 -1191l-33 -10l-19 15l-2 40q302 443 530 1135z" />
    <glyph glyph-name="Ugrave" unicode="&#xd9;" horiz-adv-x="995" 
d="M1761 786q90 0 90 -45q-606 -368 -883 -634q46 -45 46.5 -91t-31.5 -33t-105 56v91l23 45q-364 -181 -794 -311l-91 68q738 692 1097 852h46q-451 -304 -661 -499t-233 -263q226 0 1133 515l295 227zM1377 1278h31l201 -217l-15 -15q-194 91 -248 186v15z" />
    <glyph glyph-name="Uacute" unicode="&#xda;" horiz-adv-x="995" 
d="M1761 786q90 0 90 -45q-606 -368 -883 -634q46 -45 46.5 -91t-31.5 -33t-105 56v91l23 45q-364 -181 -794 -311l-91 68q738 692 1097 852h46q-451 -304 -661 -499t-233 -263q226 0 1133 515l295 227zM1711 1202h65l82 -16v-49q-217 0 -359 -98l-16 16v49q0 33 228 98z
" />
    <glyph glyph-name="Ucircumflex" unicode="&#xdb;" horiz-adv-x="995" 
d="M1761 786q90 0 90 -45q-606 -368 -883 -634q46 -45 46.5 -91t-31.5 -33t-105 56v91l23 45q-364 -181 -794 -311l-91 68q738 692 1097 852h46q-451 -304 -661 -499t-233 -263q226 0 1133 515l295 227zM1841 1286h26l77 -77v-52l-103 -129h-26q0 94 -78 155l-413 -77v51z
" />
    <glyph glyph-name="Udieresis" unicode="&#xdc;" horiz-adv-x="995" 
d="M1761 786q90 0 90 -45q-606 -368 -883 -634q46 -45 46.5 -91t-31.5 -33t-105 56v91l23 45q-364 -181 -794 -311l-91 68q738 692 1097 852h46q-451 -304 -661 -499t-233 -263q226 0 1133 515l295 227zM1566 1160q136 0 39 -114q-151 11 -154 56q19 58 115 58zM1755 1178
q76 34 96 -110q-73 -40 -112 -18q-38 49 16 128z" />
    <glyph glyph-name="Yacute" unicode="&#xdd;" horiz-adv-x="410" 
d="M1034 998l16 -47q-102 -209 -805 -948v-15q174 76 192 18l-38 -18q-229 -79 -407 -221q-698 -642 -915 -695l-16 47q178 273 521 474l16 -16v-16q-37 0 -253 -221q-58 0 -79 -79h32q354 232 920 781l-48 -4l-53 20l-19 25q-82 113 16 470l32 -18q-34 -308 29 -396l60 24
q400 318 594 598l-16 48l-24 41q1 36 135 132zM132 782q105 67 122 -25l-32 -46l-56 12zM147 637l-10 52q61 7 10 -52zM651 1222h65l82 -16v-49q-217 0 -359 -98l-16 16v49q0 33 228 98z" />
    <glyph glyph-name="Thorn" unicode="&#xde;" horiz-adv-x="1120" 
 />
    <glyph glyph-name="germandbls" unicode="&#xdf;" horiz-adv-x="1251" 
d="M961 847q235 -38 235 -141q-62 -282 -266 -282v-16q109 0 109 -157q-266 -200 -548 -235v16q78 65 391 172l79 63v31q-35 79 -157 79h-78v31q0 31 219 78q157 74 157 188v16q-87 94 -157 94q-196 0 -454 -392l-455 -470h-16l-31 31q412 449 627 753q169 141 345 141z" />
    <glyph glyph-name="agrave" unicode="&#xe0;" horiz-adv-x="559" 
d="M542 370q60 -7 80 -40q69 10 44 -36.5t-124 -171.5l-15 -41q106 -49 34 -93l-172 57q-331 -116 -439 0q295 325 592 325zM64 83q-19 -47 58 -38q233 0 420 210v19h-77q-296 -66 -401 -191zM461 738h31l201 -217l-15 -15q-194 91 -248 186v15z" />
    <glyph glyph-name="aacute" unicode="&#xe1;" horiz-adv-x="559" 
d="M542 370q60 -7 80 -40q69 10 44 -36.5t-124 -171.5l-15 -41q106 -49 34 -93l-172 57q-331 -116 -439 0q295 325 592 325zM64 83q-19 -47 58 -38q233 0 420 210v19h-77q-296 -66 -401 -191zM763 669h65l82 -16v-49q-217 0 -359 -98l-16 16v49q0 33 228 98z" />
    <glyph glyph-name="acircumflex" unicode="&#xe2;" horiz-adv-x="559" 
d="M542 370q60 -7 80 -40q69 10 44 -36.5t-124 -171.5l-15 -41q106 -49 34 -93l-172 57q-331 -116 -439 0q295 325 592 325zM64 83q-19 -47 58 -38q233 0 420 210v19h-77q-296 -66 -401 -191zM754 740h26l77 -77v-52l-103 -129h-26q0 94 -78 155l-413 -77v51z" />
    <glyph glyph-name="atilde" unicode="&#xe3;" horiz-adv-x="559" 
d="M542 370q60 -7 80 -40q69 10 44 -36.5t-124 -171.5l-15 -41q106 -49 34 -93l-172 57q-331 -116 -439 0q295 325 592 325zM64 83q-19 -47 58 -38q233 0 420 210v19h-77q-296 -66 -401 -191zM484 667l53 14l5 -18l-34 -85l21 -75l-33 -24l-85 35l-10 35zM550 540l56 26
l214 57l9 -35l-65 -113l-35 -10l-5 18l21 63l-5 18l-17 -5l-120 -51l-39 9z" />
    <glyph glyph-name="adieresis" unicode="&#xe4;" horiz-adv-x="559" 
d="M542 370q60 -7 80 -40q69 10 44 -36.5t-124 -171.5l-15 -41q106 -49 34 -93l-172 57q-331 -116 -439 0q295 325 592 325zM64 83q-19 -47 58 -38q233 0 420 210v19h-77q-296 -66 -401 -191zM509 645q136 0 39 -114q-151 11 -154 56q19 58 115 58zM698 663q76 34 96 -110
q-73 -40 -112 -18q-38 49 16 128z" />
    <glyph glyph-name="aring" unicode="&#xe5;" horiz-adv-x="559" 
d="M542 370q60 -7 80 -40q69 10 44 -36.5t-124 -171.5l-15 -41q106 -49 34 -93l-172 57q-331 -116 -439 0q295 325 592 325zM64 83q-19 -47 58 -38q233 0 420 210v19h-77q-296 -66 -401 -191zM527 588q121 122 244 43q46 -59 -9 -199q-46 -108 -190 -116q-138 41 -45 272z
M692 579l-57 14q-104 -139 -26 -227q167 52 83 213z" />
    <glyph glyph-name="ae" unicode="&#xe6;" horiz-adv-x="968" 
d="M542 370q60 -7 80 -40q69 10 44 -36.5t-124 -171.5l-15 -41q106 -49 34 -93l-172 57q-331 -116 -439 0q295 325 592 325zM64 83q-19 -47 58 -38q233 0 420 210v19h-77q-296 -66 -401 -191zM921 395q39 0 51 -85q-303 -128 -374 -204q17 -51 102 -51h51q125 0 181 20
l34 -35q-84 -36 -317 -70q-170 0 -170 119q37 85 255 272q67 34 187 34z" />
    <glyph glyph-name="ccedilla" unicode="&#xe7;" horiz-adv-x="437" 
d="M274 406h19l96 19q96 -19 96 -77q-26 -115 -230 -79q-172 -45 -192 -208l38 -39q113 0 238 27.5t138 -18.5h-19q-309 -66 -414 -66q-88 37 -95.5 85t61 164t264.5 192zM190 -93l17 -51q0 -34 -236 -252h-17v34l84 101v16q-50 0 -50 34q72 83 202 118z" />
    <glyph glyph-name="egrave" unicode="&#xe8;" horiz-adv-x="494" 
d="M468 382q39 0 51 -85q-303 -128 -374 -204q17 -51 102 -51h51q125 0 181 20l34 -35q-84 -36 -317 -70q-170 0 -170 119q37 85 255 272q67 34 187 34zM296 752h31l201 -217l-15 -15q-194 91 -248 186v15z" />
    <glyph glyph-name="eacute" unicode="&#xe9;" horiz-adv-x="494" 
d="M468 382q39 0 51 -85q-303 -128 -374 -204q17 -51 102 -51h51q125 0 181 20l34 -35q-84 -36 -317 -70q-170 0 -170 119q37 85 255 272q67 34 187 34zM557 669h65l82 -16v-49q-217 0 -359 -98l-16 16v49q0 33 228 98z" />
    <glyph glyph-name="ecircumflex" unicode="&#xea;" horiz-adv-x="494" 
d="M468 382q39 0 51 -85q-303 -128 -374 -204q17 -51 102 -51h51q125 0 181 20l34 -35q-84 -36 -317 -70q-170 0 -170 119q37 85 255 272q67 34 187 34zM565 775h26l77 -77v-52l-103 -129h-26q0 94 -78 155l-413 -77v51z" />
    <glyph glyph-name="edieresis" unicode="&#xeb;" horiz-adv-x="494" 
d="M468 382q39 0 51 -85q-303 -128 -374 -204q17 -51 102 -51h51q125 0 181 20l34 -35q-84 -36 -317 -70q-170 0 -170 119q37 85 255 272q67 34 187 34zM266 685q136 0 39 -114q-151 11 -154 56q19 58 115 58zM455 703q76 34 96 -110q-73 -40 -112 -18q-38 49 16 128z" />
    <glyph glyph-name="igrave" unicode="&#xec;" horiz-adv-x="550" 
d="M39 57q26 -27 431 192l151 87l19 -19q0 -72 -65.5 -99t-123.5 -85l-19 -19v-39q20 -23 143 1q12 -64 -54 -86l-147 -11q-76 0 -155 96l-238 -95q-96 27 -48 52t106 25zM503 735h31l201 -217l-15 -15q-194 91 -248 186v15z" />
    <glyph glyph-name="iacute" unicode="&#xed;" horiz-adv-x="550" 
d="M39 57q26 -27 431 192l151 87l19 -19q0 -72 -65.5 -99t-123.5 -85l-19 -19v-39q20 -23 143 1q12 -64 -54 -86l-147 -11q-76 0 -155 96l-238 -95q-96 27 -48 52t106 25zM922 604h65l82 -16v-49q-217 0 -359 -98l-16 16v49q0 33 228 98z" />
    <glyph glyph-name="icircumflex" unicode="&#xee;" horiz-adv-x="550" 
d="M39 57q26 -27 431 192l151 87l19 -19q0 -72 -65.5 -99t-123.5 -85l-19 -19v-39q20 -23 143 1q12 -64 -54 -86l-147 -11q-76 0 -155 96l-238 -95q-96 27 -48 52t106 25zM899 741h26l77 -77v-52l-103 -129h-26q0 94 -78 155l-413 -77v51z" />
    <glyph glyph-name="idieresis" unicode="&#xef;" horiz-adv-x="550" 
d="M39 57q26 -27 431 192l151 87l19 -19q0 -72 -65.5 -99t-123.5 -85l-19 -19v-39q20 -23 143 1q12 -64 -54 -86l-147 -11q-76 0 -155 96l-238 -95q-96 27 -48 52t106 25zM651 590q136 0 39 -114q-151 11 -154 56q19 58 115 58zM840 608q76 34 96 -110q-73 -40 -112 -18
q-38 49 16 128z" />
    <glyph glyph-name="eth" unicode="&#xf0;" horiz-adv-x="1139" 
 />
    <glyph glyph-name="ntilde" unicode="&#xf1;" horiz-adv-x="1076" 
d="M696 272q-25 -49 -178 -157l552 177l20 -20v-39l-99 -138h59h59v-59q-55 -59 -197 -40q-66 29 -59 99l20 59h-20l-472 -177q-53 33 -40 98q57 99 118 138h-39l-387 -207q-45 -29 -45 30v19q460 255 570 257q148 16 138 -40zM803 647l53 14l5 -18l-34 -85l21 -75l-33 -24
l-85 35l-10 35zM869 520l56 26l214 57l9 -35l-65 -113l-35 -10l-5 18l21 63l-5 18l-17 -5l-120 -51l-39 9z" />
    <glyph glyph-name="ograve" unicode="&#xf2;" horiz-adv-x="404" 
d="M507 383h91l54 -54l-91 -126h199v-18l-36 -37h-72q-187 0 -469 -144l-163 -18l-36 54v18q92 169 523 325zM453 257v-36h18l54 54zM92 22q289 93 289 144l-72 73q-58 0 -235 -163zM319 742h31l201 -217l-15 -15q-194 91 -248 186v15z" />
    <glyph glyph-name="oacute" unicode="&#xf3;" horiz-adv-x="404" 
d="M507 383h91l54 -54l-91 -126h199v-18l-36 -37h-72q-187 0 -469 -144l-163 -18l-36 54v18q92 169 523 325zM453 257v-36h18l54 54zM92 22q289 93 289 144l-72 73q-58 0 -235 -163zM610 723h65l82 -16v-49q-217 0 -359 -98l-16 16v49q0 33 228 98z" />
    <glyph glyph-name="ocircumflex" unicode="&#xf4;" horiz-adv-x="650" 
d="M510 383h91l54 -54l-91 -126h199v-18l-36 -37h-72q-187 0 -469 -144l-163 -18l-36 54v18q92 169 523 325zM456 257v-36h18l54 54zM95 22q289 93 289 144l-72 73q-58 0 -235 -163zM831 676h26l77 -77v-52l-103 -129h-26q0 94 -78 155l-413 -77v51z" />
    <glyph glyph-name="otilde" unicode="&#xf5;" horiz-adv-x="650" 
d="M510 383h91l54 -54l-91 -126h199v-18l-36 -37h-72q-187 0 -469 -144l-163 -18l-36 54v18q92 169 523 325zM456 257v-36h18l54 54zM95 22q289 93 289 144l-72 73q-58 0 -235 -163zM531 599l53 14l5 -18l-34 -85l21 -75l-33 -24l-85 35l-10 35zM597 472l56 26l214 57l9 -35
l-65 -113l-35 -10l-5 18l21 63l-5 18l-17 -5l-120 -51l-39 9z" />
    <glyph glyph-name="odieresis" unicode="&#xf6;" horiz-adv-x="404" 
d="M507 383h91l54 -54l-91 -126h199v-18l-36 -37h-72q-187 0 -469 -144l-163 -18l-36 54v18q92 169 523 325zM453 257v-36h18l54 54zM92 22q289 93 289 144l-72 73q-58 0 -235 -163zM360 672q136 0 39 -114q-151 11 -154 56q19 58 115 58zM549 690q76 34 96 -110
q-73 -40 -112 -18q-38 49 16 128z" />
    <glyph glyph-name="divide" unicode="&#xf7;" horiz-adv-x="3" 
d="M53 212h46q33 -28 64 -28l27 10q129 -22 129 -37q-14 -37 -28 -37q-266 0 -266 55v9zM199 384q95 0 76.5 -79.5t-86.5 -51.5t-70 73q13 58 80 58zM199 70q48 -132 -45 -125t-97 69q26 80 142 56z" />
    <glyph glyph-name="oslash" unicode="&#xf8;" horiz-adv-x="650" 
d="M510 383h91l54 -54l-91 -126h199v-18l-36 -37h-72q-187 0 -469 -144l-163 -18l-36 54v18q92 169 523 325zM456 257v-36h18l54 54zM95 22q289 93 289 144l-72 73q-58 0 -235 -163zM698 1009l50 16l4 -61q-205 -615 -578 -1191l-33 -10l-19 15l-2 40q302 443 530 1135z" />
    <glyph glyph-name="ugrave" unicode="&#xf9;" horiz-adv-x="912" 
d="M988 298v-59q-115 0 -235 -216h19l168 29v-20q0 -51 -70 -68h-176l-59 59l59 98q-47 -70 -373 -137h-98q-59 0 -56 51q-247 -101 -236 -19q92 0 518 262h48v-20q-196 -104 -196 -176q56 -86 667 216h20zM660 738h31l201 -217l-15 -15q-194 91 -248 186v15z" />
    <glyph glyph-name="uacute" unicode="&#xfa;" horiz-adv-x="912" 
d="M988 298v-59q-115 0 -235 -216h19l168 29v-20q0 -51 -70 -68h-176l-59 59l59 98q-47 -70 -373 -137h-98q-59 0 -56 51q-247 -101 -236 -19q92 0 518 262h48v-20q-196 -104 -196 -176q56 -86 667 216h20zM986 727h65l82 -16v-49q-217 0 -359 -98l-16 16v49q0 33 228 98z
" />
    <glyph glyph-name="ucircumflex" unicode="&#xfb;" horiz-adv-x="912" 
d="M988 298v-59q-115 0 -235 -216h19l168 29v-20q0 -51 -70 -68h-176l-59 59l59 98q-47 -70 -373 -137h-98q-59 0 -56 51q-247 -101 -236 -19q92 0 518 262h48v-20q-196 -104 -196 -176q56 -86 667 216h20zM1086 761h26l77 -77v-52l-103 -129h-26q0 94 -78 155l-413 -77v51z
" />
    <glyph glyph-name="udieresis" unicode="&#xfc;" horiz-adv-x="912" 
d="M988 298v-59q-115 0 -235 -216h19l168 29v-20q0 -51 -70 -68h-176l-59 59l59 98q-47 -70 -373 -137h-98q-59 0 -56 51q-247 -101 -236 -19q92 0 518 262h48v-20q-196 -104 -196 -176q56 -86 667 216h20zM764 559q136 0 39 -114q-151 11 -154 56q19 58 115 58zM953 577
q76 34 96 -110q-73 -40 -112 -18q-38 49 16 128z" />
    <glyph glyph-name="yacute" unicode="&#xfd;" horiz-adv-x="1066" 
d="M988 298v-59l-607 -536h39q114 55 651 318l23 -26q-1092 -527 -1171 -750l-219 -199h-40v40q186 259 836 836l269 212q-149 -66 -448 -150h-98q-59 0 -56 51q-247 -101 -236 -19q92 0 518 262h48v-20q-196 -104 -196 -176q56 -86 667 216h20zM1019 649h65l82 -16v-49
q-217 0 -359 -98l-16 16v49q0 33 228 98z" />
    <glyph glyph-name="thorn" unicode="&#xfe;" horiz-adv-x="1010" 
 />
    <glyph glyph-name="ydieresis" unicode="&#xff;" horiz-adv-x="1066" 
d="M988 298v-59l-607 -536h39q114 55 651 318l23 -26q-1092 -527 -1171 -750l-219 -199h-40v40q186 259 836 836l269 212q-149 -66 -448 -150h-98q-59 0 -56 51q-247 -101 -236 -19q92 0 518 262h48v-20q-196 -104 -196 -176q56 -86 667 216h20zM762 654q136 0 39 -114
q-151 11 -154 56q19 58 115 58zM951 672q76 34 96 -110q-73 -40 -112 -18q-38 49 16 128z" />
    <glyph glyph-name="dotlessi" unicode="&#x131;" horiz-adv-x="550" 
d="M39 57q26 -27 431 192l151 87l19 -19q0 -72 -65.5 -99t-123.5 -85l-19 -19v-39q20 -23 143 1q12 -64 -54 -86l-147 -11q-76 0 -155 96l-238 -95q-96 27 -48 52t106 25z" />
    <glyph glyph-name="OE" unicode="&#x152;" horiz-adv-x="1587" 
d="M1162 1045q256 0 256 -220q-235 -282 -534.5 -484.5t-764.5 -356.5h-73q-73 30 -73 128q133 262 933 878h55l36 -37v-54l-55 -55l-73 18q-77 -4 -384 -293q-238 -193 -338.5 -299t-100.5 -213l55 -18q779 237 1226 823q0 49 -257 128v18zM1697 1258h97l38 -39v-19
l-38 -39l-39 39h-19l-127 -70q65 -44 177 0l-50 -46q-95 -34 -148 -10l5 26q-244 -115 -251 -214t186 -138l-13 -19q-712 -358 -726 -727q0 -96 77 -116q194 22 259 105h20v-19q-75 -84 -279 -105q-135 27 -135 77v97q-31 379 639 691q-96 10 -128.5 106.5t346.5 365.5
q51 54 109 54zM1446 505h38l39 -78q0 -136 -290 -386h-38q156 141 232 290q0 96 -97 116v19z" />
    <glyph glyph-name="oe" unicode="&#x153;" horiz-adv-x="865" 
d="M507 383h91l54 -54l-91 -126h199v-18l-36 -37h-72q-187 0 -469 -144l-163 -18l-36 54v18q92 169 523 325zM453 257v-36h18l54 54zM92 22q289 93 289 144l-72 73q-58 0 -235 -163zM682 371q39 0 51 -85q-303 -128 -374 -204q17 -51 102 -51h51q125 0 181 20l34 -35
q-84 -36 -317 -70q-170 0 -170 119q37 85 255 272q67 34 187 34z" />
    <glyph glyph-name="circumflex" unicode="&#x2c6;" horiz-adv-x="674" 
d="M556 624h26l77 -77v-52l-103 -129h-26q0 94 -78 155l-413 -77v51z" />
    <glyph glyph-name="caron" unicode="&#x2c7;" horiz-adv-x="1024" 
 />
    <glyph glyph-name="uni02C9" unicode="&#x2c9;" horiz-adv-x="1024" 
 />
    <glyph glyph-name="breve" unicode="&#x2d8;" horiz-adv-x="1024" 
 />
    <glyph glyph-name="dotaccent" unicode="&#x2d9;" horiz-adv-x="1024" 
 />
    <glyph glyph-name="ring" unicode="&#x2da;" horiz-adv-x="390" 
d="M82 574q121 122 244 43q46 -59 -9 -199q-46 -108 -190 -116q-138 41 -45 272zM247 565l-57 14q-104 -139 -26 -227q167 52 83 213z" />
    <glyph glyph-name="ogonek" unicode="&#x2db;" horiz-adv-x="1024" 
 />
    <glyph glyph-name="tilde" unicode="&#x2dc;" horiz-adv-x="499" 
d="M109 558l53 14l5 -18l-34 -85l21 -75l-33 -24l-85 35l-10 35zM175 431l56 26l214 57l9 -35l-65 -113l-35 -10l-5 18l21 63l-5 18l-17 -5l-120 -51l-39 9z" />
    <glyph glyph-name="hungarumlaut" unicode="&#x2dd;" horiz-adv-x="1024" 
 />
    <glyph glyph-name="endash" unicode="&#x2013;" horiz-adv-x="701" 
d="M81 280h101l140 -28l61 10q281 -22 281 -37q-30 -37 -60 -37q-583 0 -583 55v9z" />
    <glyph glyph-name="emdash" unicode="&#x2014;" horiz-adv-x="1136" 
d="M118 280h161l323 -23q452 -26 452 -45q-48 -46 -97 -46q-936 0 -936 68v12z" />
    <glyph glyph-name="quoteleft" unicode="&#x2018;" horiz-adv-x="557" 
d="M152 608h-28l-29 29v14q0 95 287 374l57 28v-14l-186 -215v-15l14 -57q-56 -112 -115 -144z" />
    <glyph glyph-name="quoteright" unicode="&#x2019;" horiz-adv-x="557" 
d="M831 917h29l28 -29v-14q0 -94 -287 -373l-57 -29v15l187 215v14l-15 58q56 111 115 143z" />
    <glyph glyph-name="quotesinglbase" unicode="&#x201a;" horiz-adv-x="282" 
d="M157 112h29l28 -29v-14q0 -94 -287 -373l-57 -29v15l187 215v14l-15 58q56 111 115 143zM-159 -347h15v-14l-201 -187h-29v43z" />
    <glyph glyph-name="quotedblleft" unicode="&#x201c;" horiz-adv-x="547" 
d="M152 608h-28l-29 29v14q0 95 287 374l57 28v-14l-186 -215v-15l14 -57q-56 -112 -115 -144zM320 614h-28l-29 29v14q0 95 287 374l57 28v-14l-186 -215v-15l14 -57q-56 -112 -115 -144z" />
    <glyph glyph-name="quotedblright" unicode="&#x201d;" horiz-adv-x="635" 
d="M378 917h29l28 -29v-14q0 -94 -287 -373l-57 -29v15l187 215v14l-15 58q56 111 115 143zM566 927h29l28 -29v-14q0 -94 -287 -373l-57 -29v15l187 215v14l-15 58q56 111 115 143z" />
    <glyph glyph-name="quotedblbase" unicode="&#x201e;" horiz-adv-x="501" 
d="M244 15h29l28 -29v-14q0 -94 -287 -373l-57 -29v15l187 215v14l-15 58q56 111 115 143zM432 25h29l28 -29v-14q0 -94 -287 -373l-57 -29v15l187 215v14l-15 58q56 111 115 143z" />
    <glyph glyph-name="dagger" unicode="&#x2020;" 
 />
    <glyph glyph-name="daggerdbl" unicode="&#x2021;" 
 />
    <glyph glyph-name="bullet" unicode="&#x2022;" horiz-adv-x="1024" 
 />
    <glyph glyph-name="ellipsis" unicode="&#x2026;" horiz-adv-x="954" 
d="M159 90q136 0 39 -114q-151 11 -154 56q19 58 115 58zM466 80q136 0 39 -114q-151 11 -154 56q19 58 115 58zM766 76q136 0 39 -114q-151 11 -154 56q19 58 115 58z" />
    <glyph glyph-name="guilsinglleft" unicode="&#x2039;" horiz-adv-x="631" 
d="M452 410l48 -28q32 -18 4 -67q-20 -34 -211 -70l-28 -23q170 -125 203 -148.5t0 -78.5l-44 6l-300 172l-64 37l-13 50l294 106z" />
    <glyph glyph-name="guilsinglright" unicode="&#x203a;" horiz-adv-x="631" 
d="M222 366l295 -106l-13 -50l-64 -37l-300 -172l-44 -6q-33 55 0 78.5t203 148.5l-29 23q-190 36 -210 70q-28 49 4 67l48 28z" />
    <glyph glyph-name="fraction" unicode="&#x2044;" horiz-adv-x="342" 
 />
    <glyph glyph-name="fraction" unicode="&#x2215;" horiz-adv-x="342" 
 />
    <glyph glyph-name="franc" unicode="&#x20a3;" 
d="M1804 1260l16 -16l-544 -608l-16 16v16l224 352l-16 16q-192 -48 -464 -32h-16q-164 -63 -447 -399l255 -64v-32h-16l-207 32q-214 0 -416 -448v-80l-176 -64v16l16 128q12 16 128 176l281 292l-121 -4v48q54 37 174 16q257 302 465 463q208 96 272 96v-16
q0 -26 -112 -64l-30 -29l78 -3q144 -16 255 13t417 179zM14 344h55q40 -28 77 -28l33 10q154 -22 154 -37q-16 -37 -33 -37q-319 0 -319 55v9z" />
    <glyph glyph-name="lira" unicode="&#x20a4;" 
 />
    <glyph glyph-name="peseta" unicode="&#x20a7;" horiz-adv-x="2028" 
 />
    <glyph glyph-name="Euro" unicode="&#x20ac;" 
d="M940.773 1001q-702.931 -521 -833.826 -1080h37.3984l312.791 117q48.4492 46 84.998 -24q-213.344 -160 -435.188 -181q-112.197 29 -112.197 66q122.396 405 749.679 1036q409.688 375 561.834 375h37.3984l74.7979 -88v-110q-371.439 -507 -524.435 -507
q-123.247 -21 -109.222 94q14.0244 115 183.17 289l21.249 11q51.8486 41 51.8486 -3q-116.447 -92 -204.845 -266q-37.3984 -134 120.697 -28.5q158.095 105.5 363.789 467.5l-44.1982 -7q-230.344 -64 -335.74 -161zM185 493h55q40 -28 77 -28l33 10q154 -22 154 -37
q-16 -37 -33 -37q-319 0 -319 55v9zM304 625h55q40 -28 77 -28l33 10q154 -22 154 -37q-16 -37 -33 -37q-319 0 -319 55v9z" />
    <glyph glyph-name="afii61352" unicode="&#x2116;" horiz-adv-x="2271" 
 />
    <glyph glyph-name="trademark" unicode="&#x2122;" horiz-adv-x="1497" 
 />
    <glyph glyph-name="partialdiff" unicode="&#x2202;" 
 />
    <glyph glyph-name="Delta" unicode="&#x2206;" horiz-adv-x="1081" 
 />
    <glyph glyph-name="product" unicode="&#x220f;" horiz-adv-x="1515" 
 />
    <glyph glyph-name="summation" unicode="&#x2211;" horiz-adv-x="1206" 
 />
    <glyph glyph-name="minus" unicode="&#x2212;" horiz-adv-x="376" 
d="M90 239h46q33 -28 64 -28l27 10q129 -22 129 -37q-14 -37 -28 -37q-266 0 -266 55v9z" />
    <glyph glyph-name="radical" unicode="&#x221a;" 
 />
    <glyph glyph-name="infinity" unicode="&#x221e;" 
 />
    <glyph glyph-name="integral" unicode="&#x222b;" horiz-adv-x="665" 
 />
    <glyph glyph-name="approxequal" unicode="&#x2248;" horiz-adv-x="493" 
d="M191 410l53 14l5 -18l-34 -85l21 -75l-33 -24l-85 35l-10 35zM257 283l56 26l214 57l9 -35l-65 -113l-35 -10l-5 18l21 63l-5 18l-17 -5l-120 -51l-39 9zM44 256l53 14l5 -18l-34 -85l21 -75l-33 -24l-85 35l-10 35zM110 129l56 26l214 57l9 -35l-65 -113l-35 -10l-5 18
l21 63l-5 18l-17 -5l-120 -51l-39 9z" />
    <glyph glyph-name="lessequal" unicode="&#x2264;" horiz-adv-x="797" 
d="M452 410l48 -28q32 -18 4 -67q-20 -34 -211 -70l-28 -23q413 -118 446 -141.5t0 -78.5l-44 6l-543 165l-64 37l-13 50l294 106zM151 -17h46q33 -28 64 -28l27 10q129 -22 129 -37q-14 -37 -28 -37q-266 0 -266 55v9z" />
    <glyph glyph-name="greaterequal" unicode="&#x2265;" horiz-adv-x="667" 
d="M270 315l294 -106l-13 -50l-64 -37l-351 -171l-44 -6q-33 55 0 78.5t254 147.5l-28 23q-191 36 -211 70q-28 49 4 67l48 28zM190 -28h46q33 -28 64 -28l27 10q129 -22 129 -37q-14 -37 -28 -37q-266 0 -266 55v9z" />
    <glyph glyph-name="uniF001" unicode="&#xf001;" horiz-adv-x="1073" 
 />
    <glyph glyph-name="uniF001" unicode="&#xfb01;" horiz-adv-x="1073" 
 />
    <glyph glyph-name="uniF002" unicode="&#xf002;" horiz-adv-x="527" 
d="M452 410l48 -28q32 -18 4 -67q-20 -34 -211 -70l-28 -23q170 -125 203 -148.5t0 -78.5l-44 6l-300 172l-64 37l-13 50l294 106z" />
    <glyph glyph-name="uniF002" unicode="&#xfb02;" horiz-adv-x="527" 
d="M452 410l48 -28q32 -18 4 -67q-20 -34 -211 -70l-28 -23q170 -125 203 -148.5t0 -78.5l-44 6l-300 172l-64 37l-13 50l294 106z" />
  </font>
</defs>
</svg>
