<?xml version="1.0" standalone="no"?>
<!DOCTYPE svg PUBLIC "-//W3C//DTD SVG 1.1//EN" "http://www.w3.org/Graphics/SVG/1.1/DTD/svg11.dtd" >
<svg xmlns="http://www.w3.org/2000/svg" xmlns:xlink="http://www.w3.org/1999/xlink" version="1.1">
<metadata>
Created by FontForge 20170731 at Wed Sep 29 17:21:20 2010
 By Aleksey,,,
Jellyka - Nathaniel, a Mystery (c) CuttyFruty 2008. All Rights Reserved
</metadata>
<defs>
<font id="Jellyka-NathanielaMystery" horiz-adv-x="1024" >
  <font-face 
    font-family="Jellyka - Nathaniel a Mystery"
    font-weight="400"
    font-stretch="normal"
    units-per-em="2048"
    panose-1="2 0 5 0 0 0 0 0 0 0"
    ascent="1638"
    descent="-410"
    x-height="584"
    cap-height="1928"
    bbox="-399 -1717 4152 3128"
    underline-thickness="150"
    underline-position="-442"
    unicode-range="U+0020-F002"
  />
<missing-glyph 
d="M100 0v1434h824v-1434h-824zM150 50h724v1334h-724v-1334zM249 1362l122 -191l-52 -45l-129 198zM345 1337l44 -60l-165 -138l-49 75z" />
    <glyph glyph-name=".notdef" 
d="M100 0v1434h824v-1434h-824zM150 50h724v1334h-724v-1334zM249 1362l122 -191l-52 -45l-129 198zM345 1337l44 -60l-165 -138l-49 75z" />
    <glyph glyph-name=".null" horiz-adv-x="0" 
 />
    <glyph glyph-name="nonmarkingreturn" horiz-adv-x="508" 
 />
    <glyph glyph-name="space" unicode=" " horiz-adv-x="508" 
 />
    <glyph glyph-name="space" unicode="&#xa0;" horiz-adv-x="508" 
 />
    <glyph glyph-name="exclam" unicode="!" horiz-adv-x="564" 
d="M702 2196h33l33 -33v-50q-465 -1173 -465 -1497l66 -100l-66 -67q-150 52 -150 167v50q0 331 449 1364q72 166 100 166zM369 217l50 -67q0 -183 -133 -183h-33l-67 67v33q0 133 183 150z" />
    <glyph glyph-name="quotedbl" unicode="&#x22;" horiz-adv-x="821" 
d="M612 2156q111 0 111 -200v-155q0 -599 -178 -599h-22l-22 22v22l22 688h-22l-45 45v44q72 133 156 133zM168 2023h44q52 0 67 -155l-22 -422l-23 -22h-110l-23 22l-22 67h-22l22 221v200z" />
    <glyph glyph-name="numbersign" unicode="#" horiz-adv-x="1657" 
d="M1600 1637l35 -52q0 -73 -277 -812q172 52 553 52l17 -17v-52q0 -46 -656 -139l-139 -328h329l34 -34v-35q0 -77 -432 -86q-162 -275 -242 -571l18 -86q-73 -69 -139 -69l-51 104q103 365 224 587h-224l-191 -518l18 -18v-17q-49 -190 -104 -190h-52q-43 0 -52 69
q0 118 208 639h-121l-259 -17l-35 52v17q0 96 484 121l104 294q-329 -45 -329 -104q0 -86 -52 -86l-86 86v18q0 166 536 259l121 449l17 17h52q52 0 52 -69q0 -131 -87 -380h17q346 0 346 156q268 737 311 743zM719 255h69q224 0 224 155q47 35 87 190q-311 0 -311 -173
q-27 0 -69 -172z" />
    <glyph glyph-name="dollar" unicode="$" horiz-adv-x="1014" 
d="M670 2231h15l46 -31l-46 -584l46 -46v-46q-32 -61 -77 -61l-76 -860q337 -289 337 -445q0 -195 -322 -323q0 -327 199 -675v-15l-61 -46h-15q-246 254 -246 614l-15 92l-200 123q-92 97 -92 184q34 138 77 138h30l16 -15h15l-15 -77v-15q34 -154 138 -154v553
q-215 198 -215 583q0 261 292 476q75 0 92 461l15 123zM347 1125q35 -323 108 -353q0 214 76 706h-15q-169 -166 -169 -353zM562 388v-414h16q184 51 184 123v30q0 97 -184 261h-16z" />
    <glyph glyph-name="percent" unicode="%" horiz-adv-x="1856" 
d="M1695 1512q54 0 54 -73q0 -103 -1183 -1748l18 -91q0 -123 -182 -164l-55 91q0 190 1129 1712h-18q-114 -109 -164 -109l-18 18v36q284 328 419 328zM529 1039h18q106 0 146 -146q73 -30 73 -128v-18q0 -230 -492 -309q-200 0 -200 163v37q166 401 455 401zM238 620
l18 -19h91q165 0 255 128v18h-18l-55 -18q-14 127 -127 127q-164 -130 -164 -236zM1513 219h18q255 -129 255 -273q0 -262 -455 -455l-128 -19q-134 0 -164 237q152 510 474 510zM1221 -273l18 -91q189 0 365 237v55q-47 91 -146 91q-237 -73 -237 -292z" />
    <glyph glyph-name="ampersand" unicode="&#x26;" horiz-adv-x="1527" 
d="M1514 2242l164 -41q0 -58 -184 -347q-203 -511 -286 -511q-41 0 -41 61q230 838 347 838zM1167 1282q95 0 143 -123q0 -143 -163 -204l-82 61v21l41 61h-41q-118 0 -245 -286l20 -21l21 21h61l61 -61v-62q0 -52 -306 -143q-307 -344 -307 -653q47 -123 205 -123
q275 0 470 163q-58 62 -225 62l-21 20v41q0 52 184 82q266 -62 266 -164q-141 -388 -736 -388q-347 46 -347 286q0 385 429 817h41l-21 102q170 491 552 491zM656 -475l41 -62q-190 -639 -368 -735h-61l-61 61q261 736 449 736z" />
    <glyph glyph-name="quotesingle" unicode="'" horiz-adv-x="346" 
d="M131 950q168 -117 168 -261v-19l-56 -56h-37q-187 205 -187 243q30 93 112 93z" />
    <glyph glyph-name="parenleft" unicode="(" horiz-adv-x="632" 
d="M1359 2029q87 -37 95 -76q0 -65 -247 -95q-871 -628 -871 -1706q0 -379 170 -663l95 38l19 -57q-42 -116 -114 -133q-278 0 -341 815q0 1201 1005 1839zM3117 360h30l20 -20q0 -105 -110 -210h-30l-20 20v10z" />
    <glyph glyph-name="parenright" unicode=")" horiz-adv-x="758" 
d="M326 1745q353 -273 353 -521v-403q0 -224 -353 -1125q-134 -286 -218 -286l-34 50q470 1157 470 1445v134q0 330 -268 588v68z" />
    <glyph glyph-name="asterisk" unicode="*" horiz-adv-x="917" 
d="M673 1666l82 -82v-82l-115 -245v-33h115q221 0 311 -131v-16q-34 -66 -82 -66q-98 66 -180 66h-196q-46 0 -66 -164l16 -180q-114 -50 -114 -213l-82 -33q-33 21 -33 197q-193 59 -278 180v32q0 110 180 164v17q-213 47 -213 163q27 66 115 66l65 -82l98 -16h17v16
q0 95 -98 295v32l49 50h49q59 0 131 -328q131 60 131 360zM215 929v-16q0 -41 163 -82q0 164 -32 164z" />
    <glyph glyph-name="plus" unicode="+" horiz-adv-x="2341" 
d="M1001 1310h52l53 -70l-193 -683h18q634 175 1172 175q123 -11 123 -52v-18q0 -105 -578 -105q-470 -74 -770 -192l-122 -578l17 -17v-88q-28 -70 -122 -70q-53 64 -53 123q0 166 105 612q-289 -70 -472 -70h-35q-95 0 -123 70v70l70 70h53q35 0 35 -70q525 60 525 140
q28 158 35 210q140 543 210 543z" />
    <glyph glyph-name="comma" unicode="," horiz-adv-x="530" 
d="M332 407l51 -52v-120q-19 -166 -206 -344h-52l-34 34q155 277 189 465l17 17h35z" />
    <glyph glyph-name="hyphen" unicode="-" horiz-adv-x="644" 
d="M500 456l47 -47q-110 -141 -393 -141l-47 47v31q0 52 236 63q43 41 157 47z" />
    <glyph glyph-name="hyphen" unicode="&#xad;" horiz-adv-x="644" 
d="M500 456l47 -47q-110 -141 -393 -141l-47 47v31q0 52 236 63q43 41 157 47z" />
    <glyph glyph-name="period" unicode="." horiz-adv-x="557" 
d="M335 316l68 -51v-68q0 -90 -135 -186h-85q-51 17 -51 102v17q0 148 203 186z" />
    <glyph glyph-name="slash" unicode="/" horiz-adv-x="746" 
d="M1419 2128l32 -33v-49q0 -97 -785 -1358q-630 -1043 -720 -1244l33 -32q-33 -164 -164 -164l-49 65v33q0 155 524 982l932 1538l17 17v16q-49 0 -49 33q123 196 229 196z" />
    <glyph glyph-name="zero" unicode="0" horiz-adv-x="1014" 
d="M999 1524q237 0 300 -400q0 -397 -640 -1139l-279 -119h-80q-180 0 -180 219v60q0 621 440 1199l119 40l60 -20q67 160 260 160zM620 1044l-60 20v-20q-260 -499 -260 -899q25 -100 60 -100h20q296 0 699 939l20 100v40q-53 240 -180 240q-49 0 -240 -300z" />
    <glyph glyph-name="one" unicode="1" horiz-adv-x="462" 
d="M568 1489l37 -75q-108 -533 -410 -1491q0 -130 -56 -130h-55q-37 0 -75 112q391 1267 447 1546z" />
    <glyph glyph-name="two" unicode="2" horiz-adv-x="769" 
d="M38 -253h-40q-52 0 -61 81q0 222 668 1215q81 109 81 201h-121q-384 0 -384 -242l-21 -20h-40q-61 20 -61 122q151 323 648 323q161 -16 161 -162q0 -174 -708 -1254v-61q290 158 733 318q70 22 -8 -139q-734 -382 -847 -382z" />
    <glyph glyph-name="three" unicode="3" horiz-adv-x="1099" 
d="M261 1393q528 -56 528 -142q0 -95 -223 -365v-41q426 -227 426 -325q45 0 61 -223q-8 -130 -203 -345q81 -10 81 -61q0 -61 -264 -81q0 -41 -142 -41l-61 81q0 58 244 203q142 133 142 244q0 211 -406 365q-81 86 -81 163v20q0 94 182 304q-365 57 -365 122v61
q0 51 81 61z" />
    <glyph glyph-name="four" unicode="4" horiz-adv-x="768" 
d="M757 1575l54 -71l-268 -1265l-17 -285l35 -36v-18l-71 -71h-53q-72 29 -72 125v89q0 260 125 766h-18q-162 -89 -303 -89q-160 23 -160 160v36q125 499 214 499h18l35 -72l-89 -392v-35l36 -36q320 53 320 178l125 481z" />
    <glyph glyph-name="five" unicode="5" horiz-adv-x="752" 
d="M909 1580q86 -12 86 -52v-51q-304 -310 -671 -310l-52 -259q0 -193 396 -774v-104q0 -219 -362 -258h-17q-111 0 -155 86q43 103 155 103h35l51 -34h18q92 0 120 69v34q0 61 -310 534q-86 224 -86 310q49 344 103 344l-17 18v34q396 310 706 310zM547 1356v-17h18l86 34
v18h-17z" />
    <glyph glyph-name="six" unicode="6" horiz-adv-x="1014" 
d="M836 1342h18l53 -53q0 -36 -214 -196q-286 -385 -409 -766v-18h18q0 111 338 160q285 -53 285 -196q0 -307 -588 -463h-18q-249 0 -249 232v53q58 517 517 1069q174 178 249 178zM462 291l18 -89l-72 -54q-64 0 -160 90v-161q0 -107 125 -107q374 102 374 285
q-68 54 -160 54z" />
    <glyph glyph-name="seven" unicode="7" horiz-adv-x="803" 
d="M870 1478q97 -13 97 -96q0 -41 -401 -722h16l176 32l64 -48v-32q0 -51 -321 -113q-72 0 -337 -674v-16l17 -64l-81 -64h-48l-48 48v32q0 106 257 658h-16q-81 0 -81 32v32q0 38 209 113l417 738h-16q-601 -241 -738 -241l-48 48q0 53 674 289q31 39 208 48z" />
    <glyph glyph-name="eight" unicode="8" horiz-adv-x="963" 
d="M660 1393h75q75 -30 75 -131v-19l-75 -94q75 -25 75 -168v-38l-94 -299q206 -151 206 -356q-169 -506 -636 -506q-244 37 -244 206v131q0 311 206 469q-56 96 -56 187v19q0 477 468 599zM360 794l225 -38q75 98 75 206l-93 206v19q0 37 93 37v19h-56q-244 -141 -244 -449
zM211 63q43 -112 131 -112q393 92 393 318v19q0 107 -168 243q-263 -49 -263 -93q-93 -150 -93 -375z" />
    <glyph glyph-name="nine" unicode="9" horiz-adv-x="894" 
d="M1124 1518h19q59 0 59 -78q0 -75 -412 -569q-176 -602 -176 -863v-59l-79 -78q-69 0 -78 235q0 134 137 667q-164 -103 -392 -137q-157 28 -157 156v59q0 273 471 569l117 20l275 -59q118 137 216 137zM221 832h59q191 0 432 235l-20 59l59 137h-157q-216 0 -373 -431z
" />
    <glyph glyph-name="colon" unicode=":" horiz-adv-x="557" 
d="M331 760h76l38 -38v-19q0 -117 -133 -210q-119 39 -134 96v19zM312 227q38 0 38 -57q-38 -210 -191 -210l-57 57q0 157 210 210z" />
    <glyph glyph-name="semicolon" unicode=";" horiz-adv-x="557" 
d="M333 869h77l76 -77q-24 -172 -172 -172q-87 37 -96 77v57zM295 237h57q58 0 58 -76q0 -150 -326 -326l-38 77z" />
    <glyph glyph-name="semicolon" unicode="&#x37e;" horiz-adv-x="557" 
d="M333 869h77l76 -77q-24 -172 -172 -172q-87 37 -96 77v57zM295 237h57q58 0 58 -76q0 -150 -326 -326l-38 77z" />
    <glyph glyph-name="less" unicode="&#x3c;" horiz-adv-x="1014" 
d="M881 1163q35 0 35 -53l-355 -356q-338 -399 -338 -533v-89q0 -83 533 -124l18 -18v-36l-71 -71h-338q-276 0 -320 231v18q0 416 782 1031h54z" />
    <glyph glyph-name="equal" unicode="=" horiz-adv-x="1743" 
d="M1572 755h17l34 -34v-33q0 -71 -1408 -238q-187 17 -187 51v34q24 85 543 85q725 135 1001 135zM1613 304l17 -1l33 -36l-2 -33q-4 -71 -1419 -164q-186 27 -184 61l2 34q28 83 653 118t900 21z" />
    <glyph glyph-name="greater" unicode="&#x3e;" horiz-adv-x="1014" 
d="M118 973q871 -48 871 -409q0 -254 -747 -818q-71 -63 -71 -160l-89 -53q-71 27 -71 53v54q0 149 693 675q107 142 107 214q0 227 -693 302v18l-18 -18h-36l-53 53q51 89 107 89z" />
    <glyph glyph-name="question" unicode="?" horiz-adv-x="748" 
d="M894 2065q165 0 191 -209q0 -220 -609 -1066q-153 -269 -153 -381v-76l57 -57l191 19l19 -19v-38q-85 -114 -248 -114h-38q-145 0 -171 190v19q0 335 590 1104q157 243 190 400l-19 57h-114l-571 -229l-19 19v38q355 300 685 343h19zM361 47q87 -36 96 -76v-38
q-19 -152 -134 -152q-87 37 -95 76v19q0 116 133 171z" />
    <glyph glyph-name="at" unicode="@" horiz-adv-x="2301" 
d="M1679 1705h33q436 0 436 -550q0 -591 -533 -1018q-235 -146 -356 -146h-48q-146 0 -146 130l-145 -33q-178 27 -178 178q177 437 630 437q146 -24 146 -113q0 -173 -291 -388v-65h32q354 0 663 598l81 420q0 421 -340 421q-360 0 -970 -647q-452 -647 -452 -921v-114
q59 -291 549 -291h16q466 0 1326 421l32 -49v-32q-225 -178 -808 -372q-407 -113 -614 -113q-663 0 -663 469v32q0 446 711 1261q551 485 889 485zM903 266l49 -32q142 0 242 226l81 97h-16q-356 -92 -356 -291z" />
    <glyph glyph-name="A" unicode="A" horiz-adv-x="898" 
d="M1393 2635l41 -42l-664 -2429h21q24 -23 99 60l83 21h42l41 -42v-62l-202 -149q-209 48 -209 -492l-41 -229l62 -62v-42q-21 -62 -124 -62h-21l-83 83v104l83 602h-21q-189 0 -249 -228q-102 -374 -166 -374h-21l-41 42v41l103 374l-103 -83l-42 41v21q0 112 228 270
q727 1948 1080 2616l21 21h83zM812 1119l-416 -1079h21q166 0 166 166l249 892v21h-20z" />
    <glyph glyph-name="B" unicode="B" horiz-adv-x="1122" 
d="M1149 330l-96 5q-295 -397 -663 -646q-165 -116 -331 -116q-149 28 -149 149v99q0 190 381 414v431q50 1076 315 1076h16q138 0 381 -381l33 -165q0 -85 -83 -282q249 -91 249 -265l-50 -165h50l149 16q-49 -126 -202 -170zM622 1560l17 -50l-50 -596q265 20 265 149
q33 0 33 133q0 138 -248 364h-17zM821 782q-93 -110 -282 -182l-49 -282h16l497 149l33 149v50q-72 116 -215 116zM390 -146q56 0 464 431v16q-414 -120 -414 -182zM42 -195q22 -83 50 -83h50l99 33l-16 16v17l49 282h-16q-216 -148 -216 -265z" />
    <glyph glyph-name="C" unicode="C" horiz-adv-x="1006" 
d="M918 -64q-336 -177 -595 -177q-309 71 -309 287v88q73 762 617 1654q521 617 860 617h22l89 -88q0 -260 -265 -485l-44 44l132 353q-382 -152 -749 -706q-441 -960 -441 -1323v-132q61 -110 176 -110q288 0 639 264q224 -303 -132 -286z" />
    <glyph glyph-name="D" unicode="D" horiz-adv-x="1518" 
d="M791 2712q93 -27 93 -211q182 141 281 141q515 -137 515 -819v-187q0 -753 -374 -1474h46q209 137 251 -78l-87 -39q-396 0 -561 -327q-240 -152 -492 -234l-46 -47h-47l-47 47l398 2807v351zM627 -95q585 237 585 468q281 583 281 1450q0 515 -375 655
q-267 0 -421 -2199zM627 -282h24l163 93v24h-23q-150 -61 -164 -117z" />
    <glyph glyph-name="E" unicode="E" horiz-adv-x="1011" 
d="M981 1574q110 0 168 -105v-63q-21 -63 -126 -63l-21 63h-42q-400 -76 -400 -379l21 -21h21l232 21l42 -63v-21q-590 -512 -590 -1010v-42l85 -21q265 0 671 400q106 58 -9 -218q-420 -372 -747 -372q-189 0 -210 253q0 390 442 905q-132 0 -147 168q0 447 610 568z" />
    <glyph glyph-name="F" unicode="F" horiz-adv-x="600" 
d="M579 2169h64q65 -14 65 -173v-43h22l603 65q431 -18 431 -108l-86 -86h-302q-395 0 -690 -87q-64 -543 -172 -905l280 43l43 -65q0 -90 -366 -172v-216q-50 -625 -302 -625h-21l-65 65q0 122 151 690q-86 0 -86 64v43l86 108q0 243 -453 819v65q0 137 733 259l-22 21v151
zM40 1586q234 -222 323 -517h22l107 647q-452 -70 -452 -130z" />
    <glyph glyph-name="G" unicode="G" horiz-adv-x="1530" 
d="M1664 2326q184 -64 184 -204v-61q0 -114 -143 -205h-20l-41 41v21l41 61v102l-62 61q-500 -213 -1061 -1143q-307 -601 -307 -919v-62q0 -113 143 -204h82q445 0 776 429v61l-102 21h-123l-224 -41l-41 61q50 164 326 164h123q245 -21 245 -205q0 -340 -756 -633
l-285 -61q-319 0 -368 429q0 485 551 1368q733 919 1062 919z" />
    <glyph glyph-name="H" unicode="H" horiz-adv-x="1095" 
d="M765 2378l56 -75q0 -387 -282 -1468q508 107 508 226q188 483 358 1185l56 38h19l75 -75q0 -203 -339 -1186h19q1290 282 1600 282h301l37 -37v-38q-11 -56 -131 -56q-551 0 -1901 -358q-320 -780 -320 -1016l19 -94l-56 -38h-57l-75 76v94q0 181 282 940h-19
q-433 -112 -433 -169q-169 -678 -169 -865l57 -57q-27 -94 -132 -94q-83 0 -113 94q38 370 169 903h-19l-169 -94h-38l-56 57q0 109 339 225q188 671 320 1562z" />
    <glyph glyph-name="I" unicode="I" horiz-adv-x="1134" 
d="M1618 1928q286 -69 286 -225q-26 -185 -184 -185l-41 41v21l41 61q0 57 -184 103q-157 0 -533 -123q0 -418 -266 -1393v-61h82q287 -54 287 -123v-20l-82 -82l-184 41h-144q-116 -205 -225 -205l-41 123h-20l-349 -103l-20 21v82q0 71 450 205q328 1011 328 1412h-20
q-328 -177 -328 -225l20 -61l-61 -41q-111 0 -164 102v62q333 277 840 491q319 82 512 82z" />
    <glyph glyph-name="J" unicode="J" horiz-adv-x="649" 
d="M393 2339h20q170 0 215 -1194l-58 -960q193 0 210 -98q-230 -47 -230 -156q-39 -321 -39 -901v-78l78 -372q-27 -98 -137 -98q-60 0 -176 392q-157 243 -333 920q0 236 411 313q54 138 98 1018l-59 783l-19 -19h-20q-59 12 -59 156v196zM139 -128v-59l156 -548h40v20
l19 646h-19z" />
    <glyph glyph-name="K" unicode="K" horiz-adv-x="943" 
d="M490 2133q102 -57 102 -164q0 -485 -143 -1246l1022 1206l-21 102l62 41h61l61 -62v-61q0 -155 -674 -879q-634 -739 -634 -960q767 -210 879 -348l-82 -82q-472 107 -899 266l-102 -409q82 0 82 -81q-77 -307 -164 -307h-82q-61 20 -61 123v20q0 137 409 1696l102 920
l-61 61v82q33 82 143 82z" />
    <glyph glyph-name="L" unicode="L" horiz-adv-x="1076" 
d="M1123 244q65 33 74 -81q-194 -200 -319 -200q-239 0 -280 320v160q0 668 480 2022q106 140 201 140l40 -40v-100q-111 0 -321 -861q-220 -865 -220 -1201q31 -240 100 -240h20q155 0 225 81z" />
    <glyph glyph-name="M" unicode="M" horiz-adv-x="1120" 
d="M1789 2452h79l40 -40v-59q0 -207 -358 -995q-281 -445 -577 -715q-224 -488 -224 -727l60 -20q68 0 355 321q111 85 60 -160q-312 -340 -475 -340q-179 0 -179 239q0 182 185 567h-20l-159 -39q-239 46 -239 159l-199 -537l-20 -20h-59l-40 40v59q338 1052 338 1154
q260 914 477 914l60 -119q-39 -91 -80 -100l-20 20h-19l-140 -358l20 -159q-179 -404 -179 -596v-80q0 -199 159 -199q239 0 378 478q575 1227 776 1312zM1649 2074l-437 -914q278 283 457 894v20h-20z" />
    <glyph glyph-name="N" unicode="N" horiz-adv-x="928" 
d="M1069 2548l38 -32l3 -34q4 -46 -783 -1834q-55 -172 -45 -494q43 -188 86 -184l18 1q154 14 610 1015q289 492 439 1175l-28 119l16 19l52 5q71 -17 83 -150q-8 -579 -928 -2179q-153 -170 -298 -183q-179 43 -197 245l-18 208q-228 -387 -291 -441q-40 -3 -60 83
l133 251q285 500 466 1265q244 612 652 1140z" />
    <glyph glyph-name="O" unicode="O" horiz-adv-x="1244" 
d="M989 1729h18q274 0 274 -310l-18 -182q127 -73 127 -274q0 -346 -474 -802q-346 -255 -565 -255q-283 0 -328 365v36q0 503 474 1185q220 237 492 237zM205 271q25 -183 164 -183h73q288 0 693 565q91 219 91 329q-24 127 -55 127l-54 -18q0 109 -219 109l-128 -36
l-36 36v19q65 109 219 109h127l19 -18h18l18 18q0 255 -164 255q-497 0 -766 -1167v-145z" />
    <glyph glyph-name="P" unicode="P" horiz-adv-x="775" 
d="M345 1746h231q513 -39 640 -373l18 -125q0 -328 -480 -728q178 0 178 -54q0 -53 -71 -53q-393 0 -480 -124v-107q0 -640 -196 -640h-18l-53 53v143q0 195 89 551l-53 53v18l53 88l-89 1031v54q0 213 231 213zM274 1586v-18q0 -342 36 -515h17v355l-35 54v17l71 71h18
q82 0 106 -266l-89 -782q387 133 605 515q53 91 53 178v53q0 251 -444 338h-338z" />
    <glyph glyph-name="Q" unicode="Q" horiz-adv-x="1150" 
d="M1135 2365h90q68 0 91 -136q-41 -337 -136 -432v-22q204 -251 204 -523q0 -443 -545 -908q60 -146 201 -171l135 -43l24 -93q-87 -68 -292 -56q-227 45 -227 181h-45q-276 -227 -454 -227h-23q-182 0 -227 250v250q106 752 727 1612q330 318 477 318zM885 2002
q61 0 181 -114h23l46 227l-23 68q-161 -65 -227 -181zM135 299q0 -159 114 -159q154 63 341 227l-46 318q32 113 159 113q68 -22 68 -136l-23 -23l23 -91h23q355 338 386 682q0 295 -409 613h-23q-295 -310 -613 -1317v-227z" />
    <glyph glyph-name="R" unicode="R" horiz-adv-x="1116" 
d="M1052 -69q389 -458 389 -556l-55 -55h-18q-353 454 -890 890l-74 37q-182 -741 -259 -741h-57q-46 0 -55 73q149 787 259 1131q56 170 56 425q0 658 -370 945v37q37 73 110 73l482 -147l-37 55q37 241 94 241h55q37 0 55 -110l-18 -260h18q537 -277 537 -667
q0 -463 -647 -927h-38v-18l353 -292zM348 1931q124 -224 130 -351h19l36 277v19zM682 1765l-241 -1296h19q336 130 573 537q74 196 74 296q0 265 -425 482v-19z" />
    <glyph glyph-name="S" unicode="S" horiz-adv-x="808" 
d="M932 113l-123 -185q-75 -39 -103 -123q61 -193 61 -350v-21q0 -437 -452 -596h-41q-247 28 -247 206v61q0 194 432 720q-473 700 -473 1131q0 346 350 741q160 111 329 123q108 0 205 -144v-82q-61 -247 -185 -247l-20 62l61 185l-61 41h-62q-281 0 -411 -638v-41
q0 -324 411 -966h41l165 226q73 116 123 -103zM233 -874v-82l61 -21q268 58 268 329v165l-21 102q-308 -304 -308 -493z" />
    <glyph glyph-name="T" unicode="T" horiz-adv-x="832" 
d="M2512 2407h19l56 -56v-18q0 -98 -261 -261h-55l-38 37l19 56q-609 -234 -1023 -465l-651 -1971v-56q84 75 131 75l18 -19v-18q-71 -242 -242 -242q-49 0 -93 93q177 826 614 1859l56 205q-459 -210 -986 -632l-18 -19v-74l62 -120v-19l-56 -55q-155 82 -155 212
q0 268 1153 874q1247 614 1450 614z" />
    <glyph glyph-name="U" unicode="U" horiz-adv-x="896" 
d="M1417 2366q101 0 131 -206q0 -650 -880 -1855l-19 -18q0 -198 150 -123.5t143 -119.5l-137 -80q-229 -52 -306 154q-225 -150 -318 -150q-169 39 -169 188q46 729 506 1742h75l37 -38q-449 -1281 -449 -1648l37 -75q262 66 262 374q296 1184 562 1536q238 319 375 319z
M686 605q693 991 693 1517v75h-18q-465 -540 -619 -1348q-27 0 -56 -244z" />
    <glyph glyph-name="V" unicode="V" horiz-adv-x="812" 
d="M296 2401l37 -56v-353l-93 -1857l19 -279h18q298 408 651 1988l-19 93q28 408 167 408h19l37 -55q0 -741 -613 -2360q-178 -290 -297 -297q-149 0 -149 520l130 2211z" />
    <glyph glyph-name="W" unicode="W" horiz-adv-x="1817" 
d="M659 2173q74 -28 74 -56v-56l-74 -74l-56 19v-19q-391 -710 -391 -1562v-55q0 -261 149 -261l93 37v75q0 179 186 334h93q56 -18 56 -111q0 -112 -149 -316v-37q0 -230 372 -261q632 91 632 614q0 312 -390 837v37l55 56h19q483 -532 483 -930q0 -533 -669 -762l-186 -19
q-347 0 -483 316v19l-186 -56q-220 0 -242 372v18q0 1084 502 1804z" />
    <glyph glyph-name="X" unicode="X" horiz-adv-x="1191" 
d="M2069 2629l38 -38v-18q-177 -486 -958 -1540l-394 -582q107 -465 375 -658q118 -87 282 -112v-57l-75 -75h-56q-358 0 -639 620l-19 75q-403 -493 -488 -676q-113 -169 -206 -169l-38 38q0 137 657 995l-206 826l-57 -37q-94 71 -94 356v188l94 94h38q94 0 319 -1127
l19 -75h19q715 941 1314 1953l19 19h56z" />
    <glyph glyph-name="Y" unicode="Y" horiz-adv-x="1156" 
d="M1255 84q-549 -644 -760 -644q-125 0 -125 147q0 247 335 960q-92 0 -105 335v376l-41 375q0 168 146 168q103 0 103 -1024h21q711 1389 711 1524q53 230 125 230h62l42 -41v-64q0 -228 -772 -1711l-84 -146q-335 -737 -335 -919h22q95 49 572 538q64 56 83 -104z" />
    <glyph glyph-name="Z" unicode="Z" horiz-adv-x="1061" 
d="M1146 52q-994 -572 -1123 -572q-143 16 -143 143q76 388 2042 2287l163 266l-20 20q-339 -40 -1246 -490v-41q82 0 82 -41q0 -77 -429 -102q0 -41 -102 -41l-41 41v41q428 372 1552 776l204 20h61q110 0 143 -81v-82q-60 -277 -1163 -1307q-795 -819 -1021 -1204
q814 385 1000 571q32 0 41 -204z" />
    <glyph glyph-name="bracketleft" unicode="[" horiz-adv-x="689" 
d="M928 1814q114 -39 114 -77v-76l-76 -77h-19q-38 0 -38 58q-215 0 -441 -134l20 -287q0 -206 -326 -1646q215 173 747 249l38 -57v-19q0 -52 -536 -192l-306 -229h-77q-32 0 -57 95l344 1780l-38 306q222 306 651 306z" />
    <glyph glyph-name="backslash" unicode="\" horiz-adv-x="855" 
d="M-183 1723h54q222 -200 646 -1292q175 -361 525 -956v-27l-40 -40h-41q-165 155 -524 875l-485 1104l-54 -41q-47 0 -121 296v41z" />
    <glyph glyph-name="bracketright" unicode="]" horiz-adv-x="666" 
d="M567 1700q105 -25 105 -105q-130 -202 -193 -1528q0 -421 -281 -421l-333 -53l-53 53v35q0 83 492 141q84 1632 175 1632l18 88l-492 -158l-35 53v35q222 134 597 228z" />
    <glyph glyph-name="asciicircum" unicode="^" horiz-adv-x="894" 
d="M636 1381h73l36 -36l-18 -254l55 -127v-18q-38 -73 -91 -73q-127 53 -127 163h-18q-270 -290 -418 -290l-54 54q313 250 562 581z" />
    <glyph glyph-name="underscore" unicode="_" horiz-adv-x="1652" 
d="M1458 60l15 -1l29 -32l-2 -31q-3 -63 -1276 -147q-167 24 -165 55l1 30q26 75 492 51q658 88 906 75z" />
    <glyph glyph-name="grave" unicode="`" horiz-adv-x="632" 
d="M187 1300q66 -20 378 -338v-39l-60 -60q-145 0 -417 318v40q9 41 99 79z" />
    <glyph glyph-name="a" unicode="a" horiz-adv-x="828" 
d="M674 15q-84 0 -197 79h-20q-182 -138 -315 -138q-157 0 -177 197q256 590 590 590l119 -39l118 20h39q30 0 59 -79q0 -98 -256 -413l20 -20h98q95 27 135 38t45.5 -35t-53.5 -136q-63 -38 -205 -64zM162 153l20 -20h19q295 118 295 315q40 5 59 118h-39q-207 0 -354 -413
z" />
    <glyph glyph-name="b" unicode="b" horiz-adv-x="991" 
d="M1049 384q-72 0 -188 -293q-206 -248 -433 -248q-204 0 -260 310q-153 -75 -184 -75h-34l-35 35v35q0 42 133 86q206 97 206 282q270 674 725 1295q318 396 467 396q121 0 121 -121v-52q0 -456 -1174 -1708q-52 -10 -52 -138q0 -190 138 -190q190 0 295 248l52 121
l-69 69q39 172 172 172q69 -35 69 -86h18q90 -24 150 -9q28 -151 -117 -129zM462 602q949 1048 949 1432v18q-481 -438 -708 -933q-241 -445 -241 -517z" />
    <glyph glyph-name="c" unicode="c" horiz-adv-x="743" 
d="M198 -68q-219 45 -219 219v20q0 263 398 556l218 60h20q110 0 140 -79v-40q-105 -219 -199 -219l-20 20v40l40 59v60q-229 0 -398 -398v-59q0 -30 79 -60q413 41 558 187q38 -131 -54 -238q-320 -131 -563 -128z" />
    <glyph glyph-name="d" unicode="d" horiz-adv-x="803" 
d="M1325 2037l20 -20v-235q0 -348 -668 -1415l-20 -177l59 -39l167 37l57 -47v-20q-96 -127 -283 -127q-115 0 -196 137q0 -110 -347 -206q-140 -22 -167 131v19q151 497 482 510h117q283 971 701 1432zM1109 1565l-216 -491q62 39 236 472v19h-20zM124 95h39
q64 -17 270 286v39q-271 -64 -309 -325z" />
    <glyph glyph-name="e" unicode="e" horiz-adv-x="649" 
d="M324 -6h-47l-167 44q-47 24 -125 13q-68 86 12 138l2 5l29 26q103 497 342 497q140 0 140 -163q0 -99 -233 -373v-23l93 -24q204 0 328 98q101 -31 -20 -166l-113 -36q-114 -36 -241 -36zM204 381l116 140v47q-58 0 -116 -187z" />
    <glyph glyph-name="f" unicode="f" horiz-adv-x="408" 
d="M75 261q152 26 152 456l169 623h-17l-51 -16l-16 50l438 961l17 17h67l34 -34l-422 -1298l-168 -961q135 -232 135 -573q-72 -506 -186 -506h-84q-55 0 -68 219v202q0 241 51 574q-29 76 -118 135l-152 -51q-76 34 -84 67v85l17 33l106 68q168 -1 180 -51zM237 -291
l-10 -229v-196l17 33q17 169 17 228t-24 164z" />
    <glyph glyph-name="g" unicode="g" horiz-adv-x="821" 
d="M396 -355v-42q0 -185 147 -902q-53 -106 -189 -106q-715 265 -715 736q0 174 394 399q87 51 194 104v189q-142 -49 -251 86v83q0 274 378 526q34 357 127 357h83q64 0 64 -336q0 -156 -168 -568l-16 -190l400 258q80 -54 48 -176q-501 -287 -496 -418zM227 381l65 -42
v106zM-149 -627v-42q0 -250 462 -505v21q-106 302 -106 632v124h-21q-248 -102 -335 -230z" />
    <glyph glyph-name="h" unicode="h" horiz-adv-x="865" 
d="M719 26q-134 0 -166 188v83l21 83v22h-21q-343 -564 -501 -564q-52 0 -62 84l605 1959l-21 -21h-21q-42 0 -42 63q141 521 272 521q83 -31 83 -62v-21q0 -239 -563 -2023q272 397 396 397h20l64 -63v-63l-43 -375l63 -20q56 2 126 17q8 -73 -37 -160q-102 -45 -173 -45z
" />
    <glyph glyph-name="i" unicode="i" horiz-adv-x="348" 
d="M186 508h46q68 0 68 -92l-68 -183v-21h22l115 21l45 -67q-74 -160 -228 -160l-170 58l-35 56q-35 160 205 388zM352 1158q68 -83 68 -160q0 -52 -114 -68l-90 68q0 160 136 160z" />
    <glyph glyph-name="j" unicode="j" horiz-adv-x="252" 
d="M-56 -1018v-251l-77 -77h-38q-38 0 -134 771v117q0 183 270 481l58 347l19 98q57 615 115 615h38l39 -38q-20 -494 -96 -926q62 28 127 78q129 -80 -30 -156t-225 -446t-66 -613zM370 1758l19 -19v-19l-77 -211l20 -60l-60 -38h-77q-47 0 -57 79q121 268 232 268z
M-171 -516l19 -19h19l39 249q-43 0 -77 -230z" />
    <glyph glyph-name="k" unicode="k" horiz-adv-x="706" 
d="M225 36l-107 43l-85 -43l-86 65v42q141 504 577 1670h-21l-42 42q131 514 235 514h22l63 -65v-85q0 -254 -535 -1690v-22h23q190 353 491 557q86 -32 86 -65q0 -278 -514 -771h-21v-21h43l347 38l56 -5q13 0 29 -21l-63 -141q-163 -42 -498 -42z" />
    <glyph glyph-name="l" unicode="l" horiz-adv-x="436" 
d="M295 19h-52q-88 0 -158 105q-26 -57 -102 -76q-43 65 -2 187q80 41 104 221q209 882 925 1778q104 70 156 70h18q35 0 70 -105q0 -663 -1029 -1936q10 -104 53 -104h17l158 39q59 -26 61 -100q-78 -46 -219 -79zM1079 2129q-634 -833 -836 -1621q853 1098 853 1604v17
h-17z" />
    <glyph glyph-name="m" unicode="m" horiz-adv-x="1556" 
d="M1356 920l54 -53v-90q-90 -375 -90 -500v-18q-35 -112 119 -112l161 35l36 -53q-54 -131 -286 -131q-211 0 -208 225l71 429q-423 -572 -590 -572h-36l-54 53l54 215q-306 -376 -465 -376l-71 54v18l18 80q-45 -80 -94 -31l5 94q119 244 241.5 415t168.5 200t108 29h18
l53 -54q0 -46 -286 -536q469 518 555 518h17l54 -53q0 -85 -143 -358q36 0 483 572h107z" />
    <glyph glyph-name="n" unicode="n" horiz-adv-x="1134" 
d="M334 695q89 89 150 89h16q48 0 48 -63l-111 -269q258 285 349 285q63 -24 63 -48v-31l-63 -334v-63q-6 -186 163 -171h64q73 -1 155 76q59 -83 -14 -151.5t-231 -82.5q-301 0 -296 361l31 190q-451 -492 -539 -492l-47 48q0 61 107 221q-120 -155 -224 -224l-36 2
q4 149 61 179.5t354 477.5z" />
    <glyph glyph-name="o" unicode="o" horiz-adv-x="622" 
d="M-39 62q0 330 187 412q86 -36 94 -75v-131l-37 -169h37q111 0 150 113q0 83 -244 356q116 126 249 16l101 -116l58 -100l19 -201l46 -32q45 -24 -1 -86l-86 -13q-41 -64 -329 -105h-38q-135 21 -206 131z" />
    <glyph glyph-name="p" unicode="p" horiz-adv-x="628" 
d="M-75 160q226 554 516 554q210 0 163 -487q131 5 121 -89l-52 -50q-99 2 -261 -118q-278 -288 -429 -288q-115 -516 -191 -516h-58q-47 0 -57 76l191 746zM174 140q286 66 286 249v38q0 99 -57 115h-19q-105 0 -210 -402zM78 -108h19q134 80 134 115h-19
q-134 -80 -134 -115z" />
    <glyph glyph-name="q" unicode="q" horiz-adv-x="872" 
d="M951 273q-50 -164 -211 -273l38 -304v-57q0 -547 -494 -952h-58q-114 39 -114 152v38q61 723 381 1409h-19q-257 -267 -438 -267l-76 57v38q0 391 514 590h76l76 -57h19q90 60 324 381h76l38 -38v-19q0 -45 -362 -609l-114 -229l57 -19q131 103 205 262q97 26 82 -103z
M150 210l343 304v38q-209 0 -343 -342zM284 -1104q212 143 323 609l19 134l-57 285h-38q-71 0 -247 -990v-38z" />
    <glyph glyph-name="r" unicode="r" horiz-adv-x="809" 
d="M784 8l-151 -22q-139 0 -173 195v129q0 114 122 293h-151q-303 -545 -532 -545l-22 22l108 172q54 0 381 567l87 22q0 -43 64 -43l303 64q86 -21 86 -86q-251 -377 -251 -509l21 -86l216 64q154 -86 -108 -237z" />
    <glyph glyph-name="s" unicode="s" horiz-adv-x="610" 
d="M684 76q-191 -133 -191 -203q-46 -204 -264 -204q-100 0 -149 92v18q0 78 131 188q-239 106 -239 310q113 412 412 412h19q86 -36 94 -75v-18q-48 -244 -169 -244l-19 56l38 113v18h-19q-169 -87 -169 -225q0 -144 240 -253q127 56 218 140q85 -57 67 -125zM268 -139
q-30 -45 -33 -62t26.5 -0.5t6.5 62.5z" />
    <glyph glyph-name="t" unicode="t" horiz-adv-x="741" 
d="M814 87q-142 -63 -289 -63q-238 43 -238 216h-22q-94 -192 -339 -192q-68 173 168 229l258 355q0 103 282 607h-196l-151 -22l-66 87v44q0 86 391 86h108q518 714 696 803l86 21q65 0 130 -129q-30 -166 -347 -630h22l564 44q217 0 346 -88l-103 -104l-71 -3l-150 21
q-847 -41 -847 -156l-304 -408q-260 -252 -260 -499q32 -87 65 -87q111 0 158 -2q151 -61 109 -130zM959 1455h65q227 249 370 565zM829 1260l-175 -282l132 131l109 151h-66z" />
    <glyph glyph-name="u" unicode="u" horiz-adv-x="570" 
d="M486 49l-157 112q-78 -157 -245 -157l-135 90q-6 214 90 492q55 134 178 134l45 -67l-113 -425q210 313 337 313q45 0 45 -247l22 -22l49 -33q37 -217 -116 -190z" />
    <glyph glyph-name="v" unicode="v" horiz-adv-x="814" 
d="M439 771l50 -66q-123 -120 -204 -533v-83l34 -33h16q198 189 270 416q-37 0 -49 83q34 100 133 100l99 -67h17q85 -52 197 -53l17 -17v-49q0 -77 -281 -47q-215 -516 -486 -516q-95 0 -116 183v17l26 140l-144 -125q-107 74 -33 116q195 248 354 501z" />
    <glyph glyph-name="w" unicode="w" horiz-adv-x="1241" 
d="M1389 431h-54l-143 35q-290 -572 -554 -572q-89 0 -89 233q-227 -197 -304 -197h-54q-89 20 -83 249q-54 -58 -150 -58q-59 98 18 143q102 -17 372 418l53 36h54q54 0 54 -71l-175 -288l-71 -250v-18q360 261 506 495h71l36 -36v-18l-148 -352l-18 -107h18
q201 173 286 375l-18 108q73 143 179 143h17q90 -108 161 -108h36q86 0 0 -160z" />
    <glyph glyph-name="x" unicode="x" horiz-adv-x="1156" 
d="M1312 846l51 -51q0 -37 -520 -566v-50l68 -51h85q118 81 202 52l12 -109l-299 -96q-107 12 -204 85h-17q-251 -220 -282 -424l-51 -34h-51l-34 34v17q0 162 183.5 350t404.5 634h-17q-218 -269 -786 -611l-68 6l-34 34v102q439 235 811 590l213 83h51q29 0 51 -85
l-51 -136q36 2 214 226h68z" />
    <glyph glyph-name="y" unicode="y" horiz-adv-x="695" 
d="M651 1011q71 -26 71 -53v-18q-326 -795 -326 -876q340 186 401 107l-27 -86l-444 -227q-195 -606 -195 -927v-53l35 -195l-71 -53h-53q-407 454 -407 761q0 330 566 584l18 89l-18 -18h-17q-161 0 -190 204q47 395 136 395h35l35 -35l-52 -245l36 -142h17q76 7 309 647
q100 141 141 141zM-188 -538v-35q0 -235 159 -408q0 147 160 762q-319 -170 -319 -319z" />
    <glyph glyph-name="z" unicode="z" horiz-adv-x="1020" 
d="M1132 231l39 -39q-8 -82 -198 -237v-137q0 -453 -431 -1194q-82 -79 -156 -79l-59 59v20q0 779 450 1351q-45 176 -137 176l-176 -19l-39 58q137 382 137 470h-20q-113 -127 -187 -257t-240 -260l-20 -20h-19q-98 25 -98 59q180 183 349 437.5t274 217.5h20
q80 -27 117 -98v-40l-78 -372h19q151 0 235 -176q25 78 218 80zM523 -1063v-19h19q235 598 235 744q-156 -130 -254 -725z" />
    <glyph glyph-name="braceleft" unicode="{" horiz-adv-x="677" 
d="M610 1712h35l51 -51v-18q-14 -30 -223 -102q-149 -197 -154 -309q0 -58 154 -394v-68q0 -155 -223 -377v-18q138 -120 138 -308l-69 -480l257 -120v-17q-28 -68 -120 -68q-252 0 -308 205l85 480q0 123 -171 257v34q0 68 240 309l17 85v18q-154 322 -154 445
q140 497 445 497z" />
    <glyph glyph-name="bar" unicode="|" horiz-adv-x="564" 
d="M376 -434q-13 -804 -80 -804h-33q-24 0 -48 64l16 225v563q0 851 -241 2734l16 16h16q183 0 338 -2412z" />
    <glyph glyph-name="braceright" unicode="}" horiz-adv-x="706" 
d="M290 1775q308 -63 308 -274q0 -112 -308 -634l-17 -103q0 -99 240 -189l17 -17v-34q0 -92 -69 -120h-17l-17 17q-106 0 -154 -274q240 -360 240 -497q0 -349 -412 -514l-51 51v17q291 217 291 412v34q0 66 -222 411v103q0 149 171 343q-171 61 -171 188v86q0 153 308 617
l17 103v17q-24 55 -154 120l-86 -17l-34 51v34q28 69 120 69z" />
    <glyph glyph-name="asciitilde" unicode="~" horiz-adv-x="1390" 
d="M1198 578h53q36 0 36 -53q-206 -371 -478 -371l-442 212h-53q-53 0 -53 -141l-53 -36h-17q-37 8 -71 89q65 247 247 247h18q71 0 477 -212q84 0 336 265z" />
    <glyph glyph-name="exclamdown" unicode="&#xa1;" horiz-adv-x="604" 
d="M-81.9141 -1092.73h-32.9961l-32.9961 32.9961v49.9941q464.943 1172.86 464.943 1496.82l-65.9922 99.9873l65.9922 66.9922q149.981 -51.9932 149.981 -166.979v-49.9941q0 -330.959 -448.945 -1363.83q-71.9912 -165.98 -99.9873 -165.98zM251.045 886.026
l-49.9941 66.9922q0 182.978 132.984 182.978h32.9961l66.9912 -66.9922v-32.9961q0 -132.983 -182.978 -149.981z" />
    <glyph glyph-name="cent" unicode="&#xa2;" horiz-adv-x="1139" 
d="M908 1462h33q33 0 33 -49l-196 -522h16q163 -13 163 -65q-74 -229 -212 -229h-16l-33 33l98 98v16h-65q-52 0 -245 -604h49q78 0 441 229h16l33 -49v-17q-316 -310 -572 -310h-32q-147 -408 -147 -653q0 -55 81 -179l-48 -49h-66q-114 71 -114 212v16q0 312 163 702
q-98 59 -98 196v82q0 254 376 522q75 0 228 473q46 112 114 147zM353 369v-115h17l130 376q-147 -183 -147 -261z" />
    <glyph glyph-name="sterling" unicode="&#xa3;" horiz-adv-x="1572" 
d="M770 1734h64q113 0 113 -113l-65 -64h-16q-32 0 -32 48h-64q-300 0 -435 -499v-48q0 -104 161 -370l193 16h209q290 -16 290 -81v-16q-7 -33 -80 -64l-210 32l-306 -16q81 -130 81 -210v-96q0 -144 -225 -403h16l322 33l338 -33q72 0 193 97h32q32 0 32 -48
q-81 -194 -273 -194h-49l-338 33q-255 0 -563 -97q-74 31 -81 64q0 99 113 178h16l48 -33q274 269 274 435q0 68 -129 258l-338 -33l-16 49q0 86 258 112v17q-129 209 -129 370q0 372 451 644z" />
    <glyph glyph-name="currency" unicode="&#xa4;" horiz-adv-x="1327" 
d="M1195 1142h14l30 -30v-29q-208 -149 -370 -400q74 -157 74 -222v-30q0 -93 -89 -207v-15q77 0 267 -222v-29q-15 -45 -89 -45l-281 208q-64 -45 -252 -74l-15 -15l-59 15q-136 -178 -207 -178l-15 15v44q0 63 148 207v15q-74 107 -74 163v44l44 223q-281 213 -281 355
l89 59q33 0 192 -266l59 -45q40 17 104 133q96 45 237 45l104 -45q199 326 370 326zM425 417v-60q29 -162 148 -162q172 0 222 207v59q-79 -74 -118 -74l-15 15v29l89 119q-83 148 -178 148q-148 -153 -148 -281z" />
    <glyph glyph-name="yen" unicode="&#xa5;" horiz-adv-x="1020" 
d="M1110 1598q59 -30 59 -74q-40 -162 -516 -840q-88 -172 -133 -457l266 30l29 -44v-15q0 -46 -309 -103l-15 -148l265 45l30 -45q0 -54 -325 -147q-39 -221 -73 -221h-45q-44 9 -44 118l15 74l-177 -30q-83 0 -103 74q40 98 88 118h15q30 0 30 -45l14 -14h15
q162 0 162 162v44h-15l-88 -15h-74l-59 59q38 74 118 74h118q30 0 89 413q-74 0 -251 692q22 59 44 59h45q46 0 206 -575l15 -14q88 0 147 147q368 512 368 560h-14l-30 30v14q0 45 133 74z" />
    <glyph glyph-name="brokenbar" unicode="&#xa6;" horiz-adv-x="592" 
d="M434 1883h36q56 0 56 -202v-37q-26 -691 -148 -773h-36q-32 0 -56 92q74 361 74 570v221q0 99 74 129zM268 466h37q73 0 73 -257q-23 -1012 -92 -1012h-36q-48 0 -74 166l55 772l-18 295z" />
    <glyph glyph-name="section" unicode="&#xa7;" horiz-adv-x="894" 
d="M769 1768q172 0 383 -291v-15l-62 -46h-30q-226 214 -322 214q-143 0 -184 -414v-76q0 -238 184 -475l46 -307v-46q0 -154 -215 -306q200 -219 200 -337v-107q-125 -215 -338 -215q-260 28 -260 123q22 92 92 92q39 -77 122 -77h108q153 21 153 138q-164 383 -352 383
q-169 125 -169 276v61q79 475 337 475l-61 337q64 613 368 613zM263 358q31 -245 230 -245q153 79 153 199q0 123 -61 291l-16 -15h-30l-31 31v15l31 46v15h-62q-214 -63 -214 -337z" />
    <glyph glyph-name="dieresis" unicode="&#xa8;" horiz-adv-x="638" 
d="M459 1294h74q37 0 37 -55q0 -352 -185 -352l-37 74q63 333 111 333zM200 1146l37 -37v-18q0 -204 -148 -204l-37 37v56q0 166 148 166z" />
    <glyph glyph-name="copyright" unicode="&#xa9;" horiz-adv-x="1674" 
d="M1246 1911q261 0 261 -203q130 -117 130 -305v-43q0 -324 -624 -595q-259 -87 -406 -87q-464 0 -464 290q0 417 740 871q170 72 363 72zM810 1578h-14q-29 0 -29 43h-15q-464 -337 -464 -638q0 -174 363 -174q347 0 740 319q95 109 116 232q-28 203 -73 203
q-20 -60 -72 -87q-29 0 -29 43l29 146q-129 72 -203 72h-44q-151 0 -305 -159zM1057 1476h29l58 -58v-44q-51 -87 -131 -87l-29 58q-159 -93 -159 -188q0 -68 218 -87l14 -15v-14q-37 -73 -116 -73h-73q-188 0 -188 203q159 305 377 305z" />
    <glyph glyph-name="ordfeminine" unicode="&#xaa;" horiz-adv-x="648" 
d="M285 1347h17q88 -4 88 -35l17 17h53l53 -52v-176q0 -175 140 -175l18 -18v-17q-45 -88 -141 -88h-52q-123 65 -123 228h-18q-91 -88 -158 -88h-35l-70 71v52q41 281 211 281zM249 1207l-17 -71l53 53v18h-36z" />
    <glyph glyph-name="guillemotleft" unicode="&#xab;" horiz-adv-x="1589" 
d="M824 959h38l58 -58q0 -34 -502 -502l-78 -194v-38q47 -232 232 -232v58q0 229 348 657q112 77 174 77q102 0 116 -193l-77 -58l-97 77q-270 -398 -270 -502v-58l77 -78h135l387 116h19l39 -38v-20q-109 -143 -522 -251h-58q-638 70 -638 232q-48 0 -58 232q0 273 677 773
z" />
    <glyph glyph-name="logicalnot" unicode="&#xac;" horiz-adv-x="1697" 
d="M1591 628q55 0 55 -74q-185 -230 -185 -351v-166l-37 -37h-55q-74 30 -74 129v148q0 56 74 166h-19q-748 -166 -942 -166h-55q-296 0 -296 56v55l55 55h37v-18q370 0 1349 203h93z" />
    <glyph glyph-name="registered" unicode="&#xae;" horiz-adv-x="1538" 
d="M983 1854h81q121 0 134 -188q269 -238 269 -484q0 -339 -605 -578l-242 -40q-443 51 -443 390q0 433 591 833q157 67 215 67zM311 994v-27q47 -282 323 -282q414 0 699 376l13 135q0 166 -242 403h-13l-108 -41l-13 14v13q13 54 54 54q0 40 -148 67q-227 0 -538 -537z
M795 1585h14q26 0 53 -80q256 0 256 -121q-14 -76 -350 -323v-27q84 -101 269 -161v-40l-40 -41q-91 0 -309 108v-13l-41 -41h-40l-27 27v14l148 550h-13l-41 41zM849 1411l-54 -189l175 135v27z" />
    <glyph glyph-name="macron" unicode="&#xaf;" horiz-adv-x="670" 
 />
    <glyph glyph-name="degree" unicode="&#xb0;" horiz-adv-x="674" 
d="M327 1425q253 -43 253 -99l14 -56q0 -183 -380 -324h-14q-141 55 -141 155v42q65 282 268 282zM186 1157q0 -56 56 -84h14q144 73 197 155v28l-14 14v14l-98 -14h-29l-42 28q-84 -57 -84 -141z" />
    <glyph glyph-name="plusminus" unicode="&#xb1;" horiz-adv-x="1435" 
d="M782 1159h16q64 0 80 -191l-16 -127h366l48 -48q-28 -96 -414 -96h-16q-28 0 -128 -413l-79 -32l-32 47l64 382q-203 -47 -366 -47l-16 16v16q0 63 429 143l16 159v143zM1196 108q80 -11 80 -47v-16q0 -96 -446 -96q-367 -47 -780 -143l-16 16v64q91 143 1114 222h48z
" />
    <glyph glyph-name="uni00B2" unicode="&#xb2;" horiz-adv-x="644" 
d="M477 1319q50 0 75 -50v-25q0 -121 -212 -286v-25l175 25l25 -37v-13q0 -58 -262 -87h-12q-70 0 -87 62q0 41 236 299l13 13v12h-13q-122 0 -286 -137h-13q-31 0 -37 50q0 117 398 199z" />
    <glyph glyph-name="uni00B3" unicode="&#xb3;" horiz-adv-x="575" 
d="M243 1438q47 0 99 -74v-50l-25 -99q149 -70 149 -187v-62q-49 -248 -236 -248q-124 53 -124 137v24q37 62 87 62q37 -83 75 -111q87 49 87 149q0 102 -162 149l-37 49v38l74 74v12l-24 25h-25l-62 -49h-25l-25 24q0 107 174 137z" />
    <glyph glyph-name="acute" unicode="&#xb4;" horiz-adv-x="644" 
d="M724 1512l40 -60v-20q-467 -657 -723 -683l-60 60v20q188 139 703 683h40z" />
    <glyph glyph-name="mu" unicode="&#xb5;" horiz-adv-x="1042" 
d="M348 1444q42 0 54 -126l-72 -1188h36q365 0 432 396l18 108q-90 476 -90 720q25 90 126 90q36 -22 126 -738v-72q-66 -666 -648 -666l-18 18l-36 -270l18 -378q0 -48 -90 -90q-90 0 -90 396l162 1782l18 18h54z" />
    <glyph glyph-name="paragraph" unicode="&#xb6;" horiz-adv-x="1333" 
d="M819 1426q131 -9 131 -44v-14q-30 -58 -73 -58l-58 -568l44 -44q-88 0 -117 -801l15 -204q-53 -43 -102 -43q-44 53 -44 101v190l44 655h-15l-87 -15q-495 27 -495 219v44q0 285 510 509zM1140 1295h29q29 0 29 -44l-160 -1383l14 -58v-117l-58 -58h-44q-36 0 -43 175
q0 250 189 1456zM208 829q0 -96 436 -116h30l72 436l-14 88v29q-280 0 -524 -350v-87z" />
    <glyph glyph-name="periodcentered" unicode="&#xb7;" horiz-adv-x="508" 
 />
    <glyph glyph-name="periodcentered" unicode="&#x2219;" horiz-adv-x="508" 
 />
    <glyph glyph-name="cedilla" unicode="&#xb8;" horiz-adv-x="520" 
d="M288 165l51 -52v-120q-19 -166 -206 -344h-52l-34 34q199 270 109 347l31 84z" />
    <glyph glyph-name="uni00B9" unicode="&#xb9;" horiz-adv-x="389" 
d="M238 1184h56l38 -37v-38q-123 -449 -187 -449h-38l-56 56q126 468 187 468z" />
    <glyph glyph-name="ordmasculine" unicode="&#xba;" horiz-adv-x="718" 
d="M327 1425q253 -43 253 -99l14 -56q0 -183 -380 -324h-14q-141 55 -141 155v42q65 282 268 282zM186 1157q0 -56 56 -84h14q144 73 197 155v28l-14 14v14l-98 -14h-29l-42 28q-84 -57 -84 -141z" />
    <glyph glyph-name="guillemotright" unicode="&#xbb;" horiz-adv-x="1993" 
d="M1256 1101q582 0 582 -324q0 -275 -712 -798l-259 -259l-86 86q0 130 777 777l64 108v21q0 216 -474 216l-238 -43l-43 43v43q78 130 389 130zM393 799h215q346 -98 346 -346q0 -370 -734 -819l-86 -22l-65 65v21l475 367q194 234 194 345v65q-108 173 -324 173l-259 -87
l-21 22v65q106 151 259 151z" />
    <glyph glyph-name="onequarter" unicode="&#xbc;" horiz-adv-x="1708" 
 />
    <glyph glyph-name="onehalf" unicode="&#xbd;" horiz-adv-x="1964" 
 />
    <glyph glyph-name="threequarters" unicode="&#xbe;" horiz-adv-x="1708" 
 />
    <glyph glyph-name="questiondown" unicode="&#xbf;" horiz-adv-x="758" 
d="M-123.891 -1403.75q-164.98 0 -190.977 208.975q0 219.973 608.926 1065.87q152.98 268.967 152.98 380.953v75.9912l-56.9922 56.9922l-190.978 -18.9971l-18.9971 18.9971v37.9961q84.9893 113.986 247.97 113.986h37.9951q144.982 0 170.979 -189.978v-18.9971
q0 -334.959 -589.929 -1103.87q-156.98 -242.971 -189.977 -399.951l18.998 -56.9932h113.986l570.93 228.972l18.998 -18.998v-37.9951q-354.957 -299.963 -684.917 -342.958h-18.9971zM409.044 614.006q-86.9893 35.9951 -95.9883 75.9902v37.9961
q18.998 151.981 133.983 151.981q86.9902 -36.9961 94.9883 -75.9912v-18.998q0 -115.985 -132.983 -170.979z" />
    <glyph glyph-name="Agrave" unicode="&#xc0;" horiz-adv-x="898" 
d="M1393 2635l41 -42l-664 -2429h21q24 -23 99 60l83 21h42l41 -42v-62l-202 -149q-209 48 -209 -492l-41 -229l62 -62v-42q-21 -62 -124 -62h-21l-83 83v104l83 602h-21q-189 0 -249 -228q-102 -374 -166 -374h-21l-41 42v41l103 374l-103 -83l-42 41v21q0 112 228 270
q727 1948 1080 2616l21 21h83zM812 1119l-416 -1079h21q166 0 166 166l249 892v21h-20zM1226 3120q66 -20 378 -338v-39l-60 -60q-145 0 -417 318v40q9 41 99 79z" />
    <glyph glyph-name="Aacute" unicode="&#xc1;" horiz-adv-x="898" 
d="M1393 2635l41 -42l-664 -2429h21q24 -23 99 60l83 21h42l41 -42v-62l-202 -149q-209 48 -209 -492l-41 -229l62 -62v-42q-21 -62 -124 -62h-21l-83 83v104l83 602h-21q-189 0 -249 -228q-102 -374 -166 -374h-21l-41 42v41l103 374l-103 -83l-42 41v21q0 112 228 270
q727 1948 1080 2616l21 21h83zM812 1119l-416 -1079h21q166 0 166 166l249 892v21h-20zM1596 2842l40 -60v-20q-467 -657 -723 -683l-60 60v20q188 139 703 683h40z" />
    <glyph glyph-name="Acircumflex" unicode="&#xc2;" horiz-adv-x="898" 
d="M1393 2635l41 -42l-664 -2429h21q24 -23 99 60l83 21h42l41 -42v-62l-202 -149q-209 48 -209 -492l-41 -229l62 -62v-42q-21 -62 -124 -62h-21l-83 83v104l83 602h-21q-189 0 -249 -228q-102 -374 -166 -374h-21l-41 42v41l103 374l-103 -83l-42 41v21q0 112 228 270
q727 1948 1080 2616l21 21h83zM812 1119l-416 -1079h21q166 0 166 166l249 892v21h-20zM1483 3111h73l36 -36l-18 -254l55 -127v-18q-38 -73 -91 -73q-127 53 -127 163h-18q-270 -290 -418 -290l-54 54q313 250 562 581z" />
    <glyph glyph-name="Atilde" unicode="&#xc3;" horiz-adv-x="898" 
d="M1393 2635l41 -42l-664 -2429h21q24 -23 99 60l83 21h42l41 -42v-62l-202 -149q-209 48 -209 -492l-41 -229l62 -62v-42q-21 -62 -124 -62h-21l-83 83v104l83 602h-21q-189 0 -249 -228q-102 -374 -166 -374h-21l-41 42v41l103 374l-103 -83l-42 41v21q0 112 228 270
q727 1948 1080 2616l21 21h83zM812 1119l-416 -1079h21q166 0 166 166l249 892v21h-20zM1911 3128l36 -108q0 -320 -271 -432q-82 0 -270 216l-90 18q-200 0 -324 -180l-72 -18l-36 36v72q171 234 468 234h54q116 0 307 -198l108 342z" />
    <glyph glyph-name="Adieresis" unicode="&#xc4;" horiz-adv-x="898" 
d="M1393 2635l41 -42l-664 -2429h21q24 -23 99 60l83 21h42l41 -42v-62l-202 -149q-209 48 -209 -492l-41 -229l62 -62v-42q-21 -62 -124 -62h-21l-83 83v104l83 602h-21q-189 0 -249 -228q-102 -374 -166 -374h-21l-41 42v41l103 374l-103 -83l-42 41v21q0 112 228 270
q727 1948 1080 2616l21 21h83zM812 1119l-416 -1079h21q166 0 166 166l249 892v21h-20zM1585 3053h74q37 0 37 -55q0 -352 -185 -352l-37 74q63 333 111 333zM1326 2905l37 -37v-18q0 -204 -148 -204l-37 37v56q0 166 148 166z" />
    <glyph glyph-name="Aring" unicode="&#xc5;" horiz-adv-x="898" 
d="M1393 2635l41 -42l-664 -2429h21q24 -23 99 60l83 21h42l41 -42v-62l-202 -149q-209 48 -209 -492l-41 -229l62 -62v-42q-21 -62 -124 -62h-21l-83 83v104l83 602h-21q-189 0 -249 -228q-102 -374 -166 -374h-21l-41 42v41l103 374l-103 -83l-42 41v21q0 112 228 270
q727 1948 1080 2616l21 21h83zM812 1119l-416 -1079h21q166 0 166 166l249 892v21h-20zM1453 3031q289 -49 289 -113l16 -64q0 -209 -434 -370h-16q-161 63 -161 177v48q74 322 306 322zM1292 2725q0 -64 64 -96h16q165 84 225 177v32l-16 16v16l-112 -16h-33l-48 32
q-96 -65 -96 -161z" />
    <glyph glyph-name="AE" unicode="&#xc6;" horiz-adv-x="1439" 
d="M1399 2601l41 -42l-664 -2429h21q24 -23 99 60l83 21h42l41 -42v-62l-202 -149q-209 48 -209 -492l-41 -229l62 -62v-42q-21 -62 -124 -62h-21l-83 83v104l83 602h-21q-189 0 -249 -228q-102 -374 -166 -374h-21l-41 42v41l103 374l-103 -83l-42 41v21q0 112 228 270
q727 1948 1080 2616l21 21h83zM818 1085l-416 -1079h21q166 0 166 166l249 892v21h-20zM1332 841q110 0 168 -105v-63q-21 -63 -126 -63l-21 63h-42q-400 -76 -400 -379l21 -21h21l232 21l42 -63v-21q-590 -512 -590 -1010v-42l85 -21q265 0 671 400q106 58 -9 -218
q-420 -372 -747 -372q-189 0 -210 253q0 390 442 905q-132 0 -147 168q0 447 610 568z" />
    <glyph glyph-name="Ccedilla" unicode="&#xc7;" horiz-adv-x="1006" 
d="M918 -64q-336 -177 -595 -177q-309 71 -309 287v88q73 762 617 1654q521 617 860 617h22l89 -88q0 -260 -265 -485l-44 44l132 353q-382 -152 -749 -706q-441 -960 -441 -1323v-132q61 -110 176 -110q288 0 639 264q224 -303 -132 -286zM627 -134l51 -52v-120
q-19 -166 -206 -344h-52l-34 34q199 270 109 347l31 84z" />
    <glyph glyph-name="Egrave" unicode="&#xc8;" horiz-adv-x="1011" 
d="M981 1574q110 0 168 -105v-63q-21 -63 -126 -63l-21 63h-42q-400 -76 -400 -379l21 -21h21l232 21l42 -63v-21q-590 -512 -590 -1010v-42l85 -21q265 0 671 400q106 58 -9 -218q-420 -372 -747 -372q-189 0 -210 253q0 390 442 905q-132 0 -147 168q0 447 610 568z
M743 2120q66 -20 378 -338v-39l-60 -60q-145 0 -417 318v40q9 41 99 79z" />
    <glyph glyph-name="Eacute" unicode="&#xc9;" horiz-adv-x="1011" 
d="M981 1574q110 0 168 -105v-63q-21 -63 -126 -63l-21 63h-42q-400 -76 -400 -379l21 -21h21l232 21l42 -63v-21q-590 -512 -590 -1010v-42l85 -21q265 0 671 400q106 58 -9 -218q-420 -372 -747 -372q-189 0 -210 253q0 390 442 905q-132 0 -147 168q0 447 610 568z
M1154 2252l40 -60v-20q-467 -657 -723 -683l-60 60v20q188 139 703 683h40z" />
    <glyph glyph-name="Ecircumflex" unicode="&#xca;" horiz-adv-x="1011" 
d="M981 1574q110 0 168 -105v-63q-21 -63 -126 -63l-21 63h-42q-400 -76 -400 -379l21 -21h21l232 21l42 -63v-21q-590 -512 -590 -1010v-42l85 -21q265 0 671 400q106 58 -9 -218q-420 -372 -747 -372q-189 0 -210 253q0 390 442 905q-132 0 -147 168q0 447 610 568z
M1044 2253h73l36 -36l-18 -254l55 -127v-18q-38 -73 -91 -73q-127 53 -127 163h-18q-270 -290 -418 -290l-54 54q313 250 562 581z" />
    <glyph glyph-name="Edieresis" unicode="&#xcb;" horiz-adv-x="1011" 
d="M981 1574q110 0 168 -105v-63q-21 -63 -126 -63l-21 63h-42q-400 -76 -400 -379l21 -21h21l232 21l42 -63v-21q-590 -512 -590 -1010v-42l85 -21q265 0 671 400q106 58 -9 -218q-420 -372 -747 -372q-189 0 -210 253q0 390 442 905q-132 0 -147 168q0 447 610 568z
M1042 2092h74q37 0 37 -55q0 -352 -185 -352l-37 74q63 333 111 333zM783 1944l37 -37v-18q0 -204 -148 -204l-37 37v56q0 166 148 166z" />
    <glyph glyph-name="Igrave" unicode="&#xcc;" horiz-adv-x="1134" 
d="M1618 1928q286 -69 286 -225q-26 -185 -184 -185l-41 41v21l41 61q0 57 -184 103q-157 0 -533 -123q0 -418 -266 -1393v-61h82q287 -54 287 -123v-20l-82 -82l-184 41h-144q-116 -205 -225 -205l-41 123h-20l-349 -103l-20 21v82q0 71 450 205q328 1011 328 1412h-20
q-328 -177 -328 -225l20 -61l-61 -41q-111 0 -164 102v62q333 277 840 491q319 82 512 82zM995 2456q66 -20 378 -338v-39l-60 -60q-145 0 -417 318v40q9 41 99 79z" />
    <glyph glyph-name="Iacute" unicode="&#xcd;" horiz-adv-x="1134" 
d="M1618 1928q286 -69 286 -225q-26 -185 -184 -185l-41 41v21l41 61q0 57 -184 103q-157 0 -533 -123q0 -418 -266 -1393v-61h82q287 -54 287 -123v-20l-82 -82l-184 41h-144q-116 -205 -225 -205l-41 123h-20l-349 -103l-20 21v82q0 71 450 205q328 1011 328 1412h-20
q-328 -177 -328 -225l20 -61l-61 -41q-111 0 -164 102v62q333 277 840 491q319 82 512 82zM1315 2446l40 -60v-20q-467 -657 -723 -683l-60 60v20q188 139 703 683h40z" />
    <glyph glyph-name="Icircumflex" unicode="&#xce;" horiz-adv-x="1134" 
d="M1618 1928q286 -69 286 -225q-26 -185 -184 -185l-41 41v21l41 61q0 57 -184 103q-157 0 -533 -123q0 -418 -266 -1393v-61h82q287 -54 287 -123v-20l-82 -82l-184 41h-144q-116 -205 -225 -205l-41 123h-20l-349 -103l-20 21v82q0 71 450 205q328 1011 328 1412h-20
q-328 -177 -328 -225l20 -61l-61 -41q-111 0 -164 102v62q333 277 840 491q319 82 512 82zM1161 2539h73l36 -36l-18 -254l55 -127v-18q-38 -73 -91 -73q-127 53 -127 163h-18q-270 -290 -418 -290l-54 54q313 250 562 581z" />
    <glyph glyph-name="Idieresis" unicode="&#xcf;" horiz-adv-x="1134" 
d="M1618 1928q286 -69 286 -225q-26 -185 -184 -185l-41 41v21l41 61q0 57 -184 103q-157 0 -533 -123q0 -418 -266 -1393v-61h82q287 -54 287 -123v-20l-82 -82l-184 41h-144q-116 -205 -225 -205l-41 123h-20l-349 -103l-20 21v82q0 71 450 205q328 1011 328 1412h-20
q-328 -177 -328 -225l20 -61l-61 -41q-111 0 -164 102v62q333 277 840 491q319 82 512 82zM1124 2444h74q37 0 37 -55q0 -352 -185 -352l-37 74q63 333 111 333zM865 2296l37 -37v-18q0 -204 -148 -204l-37 37v56q0 166 148 166z" />
    <glyph glyph-name="Eth" unicode="&#xd0;" horiz-adv-x="1999" 
d="M653 1541q453 0 1000 -422q250 -270 250 -516v-46q0 -486 -1469 -1141q-390 -219 -453 -219h-31q-39 0 -47 63q0 47 375 250q0 208 141 796h-141l-156 -31q-78 20 -78 47v47q0 55 390 94l47 500l-15 406v16h-16q0 -82 -78 -125l-31 31v109q0 94 312 141zM559 1400
q47 -94 47 -297v-265l-31 -360l500 47l16 -15v-47q0 -57 -532 -141l-140 -734l47 -16q1281 601 1281 938v109q0 383 -781 719q-198 62 -297 62h-110z" />
    <glyph glyph-name="Ntilde" unicode="&#xd1;" horiz-adv-x="928" 
d="M1069 2548l38 -32l3 -34q4 -46 -783 -1834q-55 -172 -45 -494q43 -188 86 -184l18 1q154 14 610 1015q289 492 439 1175l-28 119l16 19l52 5q71 -17 83 -150q-8 -579 -928 -2179q-153 -170 -298 -183q-179 43 -197 245l-18 208q-228 -387 -291 -441q-40 -3 -60 83
l133 251q285 500 466 1265q244 612 652 1140zM1748 3070l36 -108q0 -320 -271 -432q-82 0 -270 216l-90 18q-200 0 -324 -180l-72 -18l-36 36v72q171 234 468 234h54q116 0 307 -198l108 342z" />
    <glyph glyph-name="Ograve" unicode="&#xd2;" horiz-adv-x="1244" 
d="M989 1729h18q274 0 274 -310l-18 -182q127 -73 127 -274q0 -346 -474 -802q-346 -255 -565 -255q-283 0 -328 365v36q0 503 474 1185q220 237 492 237zM205 271q25 -183 164 -183h73q288 0 693 565q91 219 91 329q-24 127 -55 127l-54 -18q0 109 -219 109l-128 -36
l-36 36v19q65 109 219 109h127l19 -18h18l18 18q0 255 -164 255q-497 0 -766 -1167v-145zM855 2240q66 -20 378 -338v-39l-60 -60q-145 0 -417 318v40q9 41 99 79z" />
    <glyph glyph-name="Oacute" unicode="&#xd3;" horiz-adv-x="1244" 
d="M989 1729h18q274 0 274 -310l-18 -182q127 -73 127 -274q0 -346 -474 -802q-346 -255 -565 -255q-283 0 -328 365v36q0 503 474 1185q220 237 492 237zM205 271q25 -183 164 -183h73q288 0 693 565q91 219 91 329q-24 127 -55 127l-54 -18q0 109 -219 109l-128 -36
l-36 36v19q65 109 219 109h127l19 -18h18l18 18q0 255 -164 255q-497 0 -766 -1167v-145zM1265 2475l40 -60v-20q-467 -657 -723 -683l-60 60v20q188 139 703 683h40z" />
    <glyph glyph-name="Ocircumflex" unicode="&#xd4;" horiz-adv-x="1244" 
d="M989 1729h18q274 0 274 -310l-18 -182q127 -73 127 -274q0 -346 -474 -802q-346 -255 -565 -255q-283 0 -328 365v36q0 503 474 1185q220 237 492 237zM205 271q25 -183 164 -183h73q288 0 693 565q91 219 91 329q-24 127 -55 127l-54 -18q0 109 -219 109l-128 -36
l-36 36v19q65 109 219 109h127l19 -18h18l18 18q0 255 -164 255q-497 0 -766 -1167v-145zM1160 2480h73l36 -36l-18 -254l55 -127v-18q-38 -73 -91 -73q-127 53 -127 163h-18q-270 -290 -418 -290l-54 54q313 250 562 581z" />
    <glyph glyph-name="Otilde" unicode="&#xd5;" horiz-adv-x="1244" 
d="M989 1729h18q274 0 274 -310l-18 -182q127 -73 127 -274q0 -346 -474 -802q-346 -255 -565 -255q-283 0 -328 365v36q0 503 474 1185q220 237 492 237zM205 271q25 -183 164 -183h73q288 0 693 565q91 219 91 329q-24 127 -55 127l-54 -18q0 109 -219 109l-128 -36
l-36 36v19q65 109 219 109h127l19 -18h18l18 18q0 255 -164 255q-497 0 -766 -1167v-145zM1492 2497l36 -108q0 -320 -271 -432q-82 0 -270 216l-90 18q-200 0 -324 -180l-72 -18l-36 36v72q171 234 468 234h54q116 0 307 -198l108 342z" />
    <glyph glyph-name="Odieresis" unicode="&#xd6;" horiz-adv-x="1244" 
d="M989 1729h18q274 0 274 -310l-18 -182q127 -73 127 -274q0 -346 -474 -802q-346 -255 -565 -255q-283 0 -328 365v36q0 503 474 1185q220 237 492 237zM205 271q25 -183 164 -183h73q288 0 693 565q91 219 91 329q-24 127 -55 127l-54 -18q0 109 -219 109l-128 -36
l-36 36v19q65 109 219 109h127l19 -18h18l18 18q0 255 -164 255q-497 0 -766 -1167v-145zM1180 2342h74q37 0 37 -55q0 -352 -185 -352l-37 74q63 333 111 333zM921 2194l37 -37v-18q0 -204 -148 -204l-37 37v56q0 166 148 166z" />
    <glyph glyph-name="multiply" unicode="&#xd7;" horiz-adv-x="1122" 
d="M1194 926q31 0 31 -47q0 -32 -580 -533l314 -298v-16q-32 -63 -79 -63q-106 28 -360 267q-251 -161 -251 -502l-63 -47q-47 16 -47 94v173q0 162 267 376v16l-251 423v47l47 47h15q106 0 298 -392l16 -16h16q433 393 627 471z" />
    <glyph glyph-name="Oslash" unicode="&#xd8;" horiz-adv-x="1244" 
d="M989 1729h18q274 0 274 -310l-18 -182q127 -73 127 -274q0 -346 -474 -802q-346 -255 -565 -255q-283 0 -328 365v36q0 503 474 1185q220 237 492 237zM205 271q25 -183 164 -183h73q288 0 693 565q91 219 91 329q-24 127 -55 127l-54 -18q0 109 -219 109l-128 -36
l-36 36v19q65 109 219 109h127l19 -18h18l18 18q0 255 -164 255q-497 0 -766 -1167v-145zM1612 2246l32 -33v-49q0 -97 -785 -1358q-630 -1043 -720 -1244l33 -32q-33 -164 -164 -164l-49 65v33q0 155 524 982l932 1538l17 17v16q-49 0 -49 33q123 196 229 196z" />
    <glyph glyph-name="Ugrave" unicode="&#xd9;" horiz-adv-x="896" 
d="M1417 2366q101 0 131 -206q0 -650 -880 -1855l-19 -18q0 -198 150 -123.5t143 -119.5l-137 -80q-229 -52 -306 154q-225 -150 -318 -150q-169 39 -169 188q46 729 506 1742h75l37 -38q-449 -1281 -449 -1648l37 -75q262 66 262 374q296 1184 562 1536q238 319 375 319z
M686 605q693 991 693 1517v75h-18q-465 -540 -619 -1348q-27 0 -56 -244zM567 2506q66 -20 378 -338v-39l-60 -60q-145 0 -417 318v40q9 41 99 79z" />
    <glyph glyph-name="Uacute" unicode="&#xda;" horiz-adv-x="896" 
d="M1417 2366q101 0 131 -206q0 -650 -880 -1855l-19 -18q0 -198 150 -123.5t143 -119.5l-137 -80q-229 -52 -306 154q-225 -150 -318 -150q-169 39 -169 188q46 729 506 1742h75l37 -38q-449 -1281 -449 -1648l37 -75q262 66 262 374q296 1184 562 1536q238 319 375 319z
M686 605q693 991 693 1517v75h-18q-465 -540 -619 -1348q-27 0 -56 -244zM1366 2815l40 -60v-20q-467 -657 -723 -683l-60 60v20q188 139 703 683h40z" />
    <glyph glyph-name="Ucircumflex" unicode="&#xdb;" horiz-adv-x="896" 
d="M1417 2366q101 0 131 -206q0 -650 -880 -1855l-19 -18q0 -198 150 -123.5t143 -119.5l-137 -80q-229 -52 -306 154q-225 -150 -318 -150q-169 39 -169 188q46 729 506 1742h75l37 -38q-449 -1281 -449 -1648l37 -75q262 66 262 374q296 1184 562 1536q238 319 375 319z
M686 605q693 991 693 1517v75h-18q-465 -540 -619 -1348q-27 0 -56 -244zM1093 2803h73l36 -36l-18 -254l55 -127v-18q-38 -73 -91 -73q-127 53 -127 163h-18q-270 -290 -418 -290l-54 54q313 250 562 581z" />
    <glyph glyph-name="Udieresis" unicode="&#xdc;" horiz-adv-x="896" 
d="M1417 2366q101 0 131 -206q0 -650 -880 -1855l-19 -18q0 -198 150 -123.5t143 -119.5l-137 -80q-229 -52 -306 154q-225 -150 -318 -150q-169 39 -169 188q46 729 506 1742h75l37 -38q-449 -1281 -449 -1648l37 -75q262 66 262 374q296 1184 562 1536q238 319 375 319z
M686 605q693 991 693 1517v75h-18q-465 -540 -619 -1348q-27 0 -56 -244zM1055 2686h74q37 0 37 -55q0 -352 -185 -352l-37 74q63 333 111 333zM796 2538l37 -37v-18q0 -204 -148 -204l-37 37v56q0 166 148 166z" />
    <glyph glyph-name="Yacute" unicode="&#xdd;" horiz-adv-x="1156" 
d="M1255 84q-549 -644 -760 -644q-125 0 -125 147q0 247 335 960q-92 0 -105 335v376l-41 375q0 168 146 168q103 0 103 -1024h21q711 1389 711 1524q53 230 125 230h62l42 -41v-64q0 -228 -772 -1711l-84 -146q-335 -737 -335 -919h22q95 49 572 538q64 56 83 -104z
M1455 2734l40 -60v-20q-467 -657 -723 -683l-60 60v20q188 139 703 683h40z" />
    <glyph glyph-name="Thorn" unicode="&#xde;" horiz-adv-x="1646" 
d="M419 1672q92 -37 92 -110l-36 -479l128 18h56q681 -110 681 -239q147 -104 147 -221v-36q0 -446 -1160 -755q0 -339 -165 -368l-37 74l147 1251q-55 18 -55 110q129 65 129 700zM456 936l-92 -902q939 244 939 534v55q-236 313 -644 313h-203z" />
    <glyph glyph-name="germandbls" unicode="&#xdf;" horiz-adv-x="1435" 
d="M592 1552q83 0 83 -116q760 -93 760 -313q0 -218 -711 -579l-33 -49q694 -248 694 -512q0 -308 -826 -661l-182 -50h-49l-50 50v33q19 32 397 149q545 287 545 462q0 151 -661 413l-49 99q61 176 561 413q169 110 215 198q0 120 -611 199v-17q-215 -894 -793 -2296
l-149 -495l-16 -17h-66q-29 0 -50 83q0 139 628 1734q297 885 297 1008h-16l-67 -50h-16l-50 50v33q0 61 182 99v16q-49 0 -49 33v17q7 34 82 66z" />
    <glyph glyph-name="agrave" unicode="&#xe0;" horiz-adv-x="828" 
d="M674 15q-84 0 -197 79h-20q-182 -138 -315 -138q-157 0 -177 197q256 590 590 590l119 -39l118 20h39q30 0 59 -79q0 -98 -256 -413l20 -20h98q95 27 135 38t45.5 -35t-53.5 -136q-63 -38 -205 -64zM162 153l20 -20h19q295 118 295 315q40 5 59 118h-39q-207 0 -354 -413
zM442 1328q66 -20 378 -338v-39l-60 -60q-145 0 -417 318v40q9 41 99 79z" />
    <glyph glyph-name="aacute" unicode="&#xe1;" horiz-adv-x="828" 
d="M674 15q-84 0 -197 79h-20q-182 -138 -315 -138q-157 0 -177 197q256 590 590 590l119 -39l118 20h39q30 0 59 -79q0 -98 -256 -413l20 -20h98q95 27 135 38t45.5 -35t-53.5 -136q-63 -38 -205 -64zM162 153l20 -20h19q295 118 295 315q40 5 59 118h-39q-207 0 -354 -413
zM1030 1581l40 -60v-20q-467 -657 -723 -683l-60 60v20q188 139 703 683h40z" />
    <glyph glyph-name="acircumflex" unicode="&#xe2;" horiz-adv-x="828" 
d="M674 15q-84 0 -197 79h-20q-182 -138 -315 -138q-157 0 -177 197q256 590 590 590l119 -39l118 20h39q30 0 59 -79q0 -98 -256 -413l20 -20h98q95 27 135 38t45.5 -35t-53.5 -136q-63 -38 -205 -64zM162 153l20 -20h19q295 118 295 315q40 5 59 118h-39q-207 0 -354 -413
zM696 1418h73l36 -36l-18 -254l55 -127v-18q-38 -73 -91 -73q-127 53 -127 163h-18q-270 -290 -418 -290l-54 54q313 250 562 581z" />
    <glyph glyph-name="atilde" unicode="&#xe3;" horiz-adv-x="828" 
d="M674 15q-84 0 -197 79h-20q-182 -138 -315 -138q-157 0 -177 197q256 590 590 590l119 -39l118 20h39q30 0 59 -79q0 -98 -256 -413l20 -20h98q95 27 135 38t45.5 -35t-53.5 -136q-63 -38 -205 -64zM162 153l20 -20h19q295 118 295 315q40 5 59 118h-39q-207 0 -354 -413
zM1095 1525l36 -108q0 -320 -271 -432q-82 0 -270 216l-90 18q-200 0 -324 -180l-72 -18l-36 36v72q171 234 468 234h54q116 0 307 -198l108 342z" />
    <glyph glyph-name="adieresis" unicode="&#xe4;" horiz-adv-x="828" 
d="M674 15q-84 0 -197 79h-20q-182 -138 -315 -138q-157 0 -177 197q256 590 590 590l119 -39l118 20h39q30 0 59 -79q0 -98 -256 -413l20 -20h98q95 27 135 38t45.5 -35t-53.5 -136q-63 -38 -205 -64zM162 153l20 -20h19q295 118 295 315q40 5 59 118h-39q-207 0 -354 -413
zM747 1289h74q37 0 37 -55q0 -352 -185 -352l-37 74q63 333 111 333zM488 1141l37 -37v-18q0 -204 -148 -204l-37 37v56q0 166 148 166z" />
    <glyph glyph-name="aring" unicode="&#xe5;" horiz-adv-x="828" 
d="M674 15q-84 0 -197 79h-20q-182 -138 -315 -138q-157 0 -177 197q256 590 590 590l119 -39l118 20h39q30 0 59 -79q0 -98 -256 -413l20 -20h98q95 27 135 38t45.5 -35t-53.5 -136q-63 -38 -205 -64zM162 153l20 -20h19q295 118 295 315q40 5 59 118h-39q-207 0 -354 -413
zM593 1288q289 -49 289 -113l16 -64q0 -209 -434 -370h-16q-161 63 -161 177v48q74 322 306 322zM432 982q0 -64 64 -96h16q165 84 225 177v32l-16 16v16l-112 -16h-33l-48 32q-96 -65 -96 -161z" />
    <glyph glyph-name="ae" unicode="&#xe6;" horiz-adv-x="1364" 
d="M674 15q-84 0 -197 79h-20q-182 -138 -315 -138q-157 0 -177 197q256 590 590 590l119 -39l118 20h39q30 0 59 -79q0 -98 -256 -413l20 -20h98q95 27 135 38t45.5 -35t-53.5 -136q-63 -38 -205 -64zM162 153l20 -20h19q295 118 295 315q40 5 59 118h-39q-207 0 -354 -413
zM976 -1h-47l-167 44q-47 24 -125 13q-68 86 12 138l2 5l29 26q103 497 342 497q140 0 140 -163q0 -99 -233 -373v-23l93 -24q204 0 328 98q101 -31 -20 -166l-113 -36q-114 -36 -241 -36zM856 386l116 140v47q-58 0 -116 -187z" />
    <glyph glyph-name="ccedilla" unicode="&#xe7;" horiz-adv-x="743" 
d="M198 -68q-219 45 -219 219v20q0 263 398 556l218 60h20q110 0 140 -79v-40q-105 -219 -199 -219l-20 20v40l40 59v60q-229 0 -398 -398v-59q0 -30 79 -60q413 41 558 187q38 -131 -54 -238q-320 -131 -563 -128zM435 13l51 -52v-120q-19 -166 -206 -344h-52l-34 34
q199 270 109 347l31 84z" />
    <glyph glyph-name="egrave" unicode="&#xe8;" horiz-adv-x="649" 
d="M324 -6h-47l-167 44q-47 24 -125 13q-68 86 12 138l2 5l29 26q103 497 342 497q140 0 140 -163q0 -99 -233 -373v-23l93 -24q204 0 328 98q101 -31 -20 -166l-113 -36q-114 -36 -241 -36zM204 381l116 140v47q-58 0 -116 -187zM2 1301q66 -20 378 -338v-39l-60 -60
q-145 0 -417 318v40q9 41 99 79z" />
    <glyph glyph-name="eacute" unicode="&#xe9;" horiz-adv-x="649" 
d="M324 -6h-47l-167 44q-47 24 -125 13q-68 86 12 138l2 5l29 26q103 497 342 497q140 0 140 -163q0 -99 -233 -373v-23l93 -24q204 0 328 98q101 -31 -20 -166l-113 -36q-114 -36 -241 -36zM204 381l116 140v47q-58 0 -116 -187zM658 1457l40 -60v-20q-467 -657 -723 -683
l-60 60v20q188 139 703 683h40z" />
    <glyph glyph-name="ecircumflex" unicode="&#xea;" horiz-adv-x="649" 
d="M324 -6h-47l-167 44q-47 24 -125 13q-68 86 12 138l2 5l29 26q103 497 342 497q140 0 140 -163q0 -99 -233 -373v-23l93 -24q204 0 328 98q101 -31 -20 -166l-113 -36q-114 -36 -241 -36zM204 381l116 140v47q-58 0 -116 -187zM529 1354h73l36 -36l-18 -254l55 -127v-18
q-38 -73 -91 -73q-127 53 -127 163h-18q-270 -290 -418 -290l-54 54q313 250 562 581z" />
    <glyph glyph-name="edieresis" unicode="&#xeb;" horiz-adv-x="649" 
d="M324 -6h-47l-167 44q-47 24 -125 13q-68 86 12 138l2 5l29 26q103 497 342 497q140 0 140 -163q0 -99 -233 -373v-23l93 -24q204 0 328 98q101 -31 -20 -166l-113 -36q-114 -36 -241 -36zM204 381l116 140v47q-58 0 -116 -187zM503 1223h74q37 0 37 -55q0 -352 -185 -352
l-37 74q63 333 111 333zM244 1075l37 -37v-18q0 -204 -148 -204l-37 37v56q0 166 148 166z" />
    <glyph glyph-name="igrave" unicode="&#xec;" horiz-adv-x="336" 
d="M186 508h46q68 0 68 -92l-68 -183v-21h22l115 21l45 -67q-74 -160 -228 -160l-170 58l-35 56q-35 160 205 388zM-12 1107q66 -20 378 -338v-39l-60 -60q-145 0 -417 318v40q9 41 99 79z" />
    <glyph glyph-name="iacute" unicode="&#xed;" horiz-adv-x="342" 
d="M186 508h46q68 0 68 -92l-68 -183v-21h22l115 21l45 -67q-74 -160 -228 -160l-170 58l-35 56q-35 160 205 388zM877 1409l40 -60v-20q-467 -657 -723 -683l-60 60v20q188 139 703 683h40z" />
    <glyph glyph-name="icircumflex" unicode="&#xee;" horiz-adv-x="347" 
d="M186 508h46q68 0 68 -92l-68 -183v-21h22l115 21l45 -67q-74 -160 -228 -160l-170 58l-35 56q-35 160 205 388zM497 1278h73l36 -36l-18 -254l55 -127v-18q-38 -73 -91 -73q-127 53 -127 163h-18q-270 -290 -418 -290l-54 54q313 250 562 581z" />
    <glyph glyph-name="idieresis" unicode="&#xef;" horiz-adv-x="342" 
d="M186 508h46q68 0 68 -92l-68 -183v-21h22l115 21l45 -67q-74 -160 -228 -160l-170 58l-35 56q-35 160 205 388zM503 1169h74q37 0 37 -55q0 -352 -185 -352l-37 74q63 333 111 333zM244 1021l37 -37v-18q0 -204 -148 -204l-37 37v56q0 166 148 166z" />
    <glyph glyph-name="eth" unicode="&#xf0;" horiz-adv-x="980" 
d="M1163 1101h15l29 -30v-29q-26 -44 -573 -353l-14 -14v-15q264 -138 264 -323q0 -273 -397 -499l-88 -15q-140 0 -176 220q0 263 367 470l-132 74l-205 -103l-30 29q0 53 59 118q-191 43 -191 88q44 73 117 73l265 -59q444 277 690 368zM370 87v-29q0 -82 73 -103
q294 151 294 382l-15 44l-73 -15l-44 15q-135 0 -235 -294z" />
    <glyph glyph-name="ntilde" unicode="&#xf1;" horiz-adv-x="1310" 
d="M364 695q89 89 150 89h16q48 0 48 -63l-111 -269q258 285 349 285q63 -24 63 -48v-31l-63 -334v-63q-6 -186 163 -171h64q73 -1 155 76q59 -83 -14 -151.5t-231 -82.5q-301 0 -296 361l31 190q-451 -492 -539 -492l-47 48q0 61 107 221q-120 -155 -224 -224l-36 2
q4 149 61 179.5t354 477.5zM1211 1480l36 -108q0 -320 -271 -432q-82 0 -270 216l-90 18q-200 0 -324 -180l-72 -18l-36 36v72q171 234 468 234h54q116 0 307 -198l108 342z" />
    <glyph glyph-name="ograve" unicode="&#xf2;" horiz-adv-x="622" 
d="M-39 62q0 330 187 412q86 -36 94 -75v-131l-37 -169h37q111 0 150 113q0 83 -244 356q116 126 249 16l101 -116l58 -100l19 -201l46 -32q45 -24 -1 -86l-86 -13q-41 -64 -329 -105h-38q-135 21 -206 131zM115 1311q66 -20 378 -338v-39l-60 -60q-145 0 -417 318v40
q9 41 99 79z" />
    <glyph glyph-name="oacute" unicode="&#xf3;" horiz-adv-x="622" 
d="M-39 62q0 330 187 412q86 -36 94 -75v-131l-37 -169h37q111 0 150 113q0 83 -244 356q116 126 249 16l101 -116l58 -100l19 -201l46 -32q45 -24 -1 -86l-86 -13q-41 -64 -329 -105h-38q-135 21 -206 131zM623 1372l40 -60v-20q-467 -657 -723 -683l-60 60v20
q188 139 703 683h40z" />
    <glyph glyph-name="ocircumflex" unicode="&#xf4;" horiz-adv-x="622" 
d="M-39 62q0 330 187 412q86 -36 94 -75v-131l-37 -169h37q111 0 150 113q0 83 -244 356q116 126 249 16l101 -116l58 -100l19 -201l46 -32q45 -24 -1 -86l-86 -13q-41 -64 -329 -105h-38q-135 21 -206 131zM420 1295h73l36 -36l-18 -254l55 -127v-18q-38 -73 -91 -73
q-127 53 -127 163h-18q-270 -290 -418 -290l-54 54q313 250 562 581z" />
    <glyph glyph-name="otilde" unicode="&#xf5;" horiz-adv-x="622" 
d="M-39 62q0 330 187 412q86 -36 94 -75v-131l-37 -169h37q111 0 150 113q0 83 -244 356q116 126 249 16l101 -116l58 -100l19 -201l46 -32q45 -24 -1 -86l-86 -13q-41 -64 -329 -105h-38q-135 21 -206 131zM781 1341l36 -108q0 -320 -271 -432q-82 0 -270 216l-90 18
q-200 0 -324 -180l-72 -18l-36 36v72q171 234 468 234h54q116 0 307 -198l108 342z" />
    <glyph glyph-name="odieresis" unicode="&#xf6;" horiz-adv-x="622" 
d="M-39 62q0 330 187 412q86 -36 94 -75v-131l-37 -169h37q111 0 150 113q0 83 -244 356q116 126 249 16l101 -116l58 -100l19 -201l46 -32q45 -24 -1 -86l-86 -13q-41 -64 -329 -105h-38q-135 21 -206 131zM476 1207h74q37 0 37 -55q0 -352 -185 -352l-37 74
q63 333 111 333zM217 1059l37 -37v-18q0 -204 -148 -204l-37 37v56q0 166 148 166z" />
    <glyph glyph-name="divide" unicode="&#xf7;" horiz-adv-x="1823" 
d="M1175 1062l31 -47q0 -127 -126 -127h-16l-31 32v63q0 47 142 79zM307 494l16 -16v-31l-16 -16v-16h31q790 63 1136 63q332 0 332 -63q0 -27 -111 -94l-236 15l-1121 -63h-110q-121 0 -142 63v32q0 57 221 126zM1127 5h16q28 0 63 -158q-60 -126 -158 -126q-63 0 -94 63
v47q0 130 173 174z" />
    <glyph glyph-name="oslash" unicode="&#xf8;" horiz-adv-x="622" 
d="M810 1167l32 -33v-49q0 -97 -213 -367q-630 -1043 -720 -1244l33 -32q-33 -164 -164 -164l-49 65v33q0 155 524 982l360 547l17 17v16q-49 0 -49 33q123 196 229 196zM-39 62q0 330 187 412q86 -36 94 -75v-131l-37 -169h37q111 0 150 113q0 83 -244 356q116 126 249 16
l101 -116l58 -100l19 -201l46 -32q45 -24 -1 -86l-86 -13q-41 -64 -329 -105h-38q-135 21 -206 131z" />
    <glyph glyph-name="ugrave" unicode="&#xf9;" horiz-adv-x="570" 
d="M486 49l-157 112q-78 -157 -245 -157l-135 90q-6 214 90 492q55 134 178 134l45 -67l-113 -425q210 313 337 313q45 0 45 -247l22 -22l49 -33q37 -217 -116 -190zM226 1211q66 -20 378 -338v-39l-60 -60q-145 0 -417 318v40q9 41 99 79z" />
    <glyph glyph-name="uacute" unicode="&#xfa;" horiz-adv-x="570" 
d="M486 49l-157 112q-78 -157 -245 -157l-135 90q-6 214 90 492q55 134 178 134l45 -67l-113 -425q210 313 337 313q45 0 45 -247l22 -22l49 -33q37 -217 -116 -190zM895 1524l40 -60v-20q-467 -657 -723 -683l-60 60v20q188 139 703 683h40z" />
    <glyph glyph-name="ucircumflex" unicode="&#xfb;" horiz-adv-x="570" 
d="M486 49l-157 112q-78 -157 -245 -157l-135 90q-6 214 90 492q55 134 178 134l45 -67l-113 -425q210 313 337 313q45 0 45 -247l22 -22l49 -33q37 -217 -116 -190zM636 1455h73l36 -36l-18 -254l55 -127v-18q-38 -73 -91 -73q-127 53 -127 163h-18q-270 -290 -418 -290
l-54 54q313 250 562 581z" />
    <glyph glyph-name="udieresis" unicode="&#xfc;" horiz-adv-x="570" 
d="M486 49l-157 112q-78 -157 -245 -157l-135 90q-6 214 90 492q55 134 178 134l45 -67l-113 -425q210 313 337 313q45 0 45 -247l22 -22l49 -33q37 -217 -116 -190zM532 1274h74q37 0 37 -55q0 -352 -185 -352l-37 74q63 333 111 333zM273 1126l37 -37v-18
q0 -204 -148 -204l-37 37v56q0 166 148 166z" />
    <glyph glyph-name="yacute" unicode="&#xfd;" horiz-adv-x="695" 
d="M651 1011q71 -26 71 -53v-18q-326 -795 -326 -876q340 186 401 107l-27 -86l-444 -227q-195 -606 -195 -927v-53l35 -195l-71 -53h-53q-407 454 -407 761q0 330 566 584l18 89l-18 -18h-17q-161 0 -190 204q47 395 136 395h35l35 -35l-52 -245l36 -142h17q76 7 309 647
q100 141 141 141zM-188 -538v-35q0 -235 159 -408q0 147 160 762q-319 -170 -319 -319zM934 1780l40 -60v-20q-467 -657 -723 -683l-60 60v20q188 139 703 683h40z" />
    <glyph glyph-name="thorn" unicode="&#xfe;" horiz-adv-x="1549" 
d="M419 1672q92 -37 92 -110l-36 -479l128 18h56q681 -110 681 -239q147 -104 147 -221v-36q0 -446 -1160 -755q0 -339 -165 -368l-37 74l147 1251q-55 18 -55 110q129 65 129 700zM456 936l-92 -902q939 244 939 534v55q-236 313 -644 313h-203z" />
    <glyph glyph-name="ydieresis" unicode="&#xff;" horiz-adv-x="695" 
d="M651 1011q71 -26 71 -53v-18q-326 -795 -326 -876q340 186 401 107l-27 -86l-444 -227q-195 -606 -195 -927v-53l35 -195l-71 -53h-53q-407 454 -407 761q0 330 566 584l18 89l-18 -18h-17q-161 0 -190 204q47 395 136 395h35l35 -35l-52 -245l36 -142h17q76 7 309 647
q100 141 141 141zM-188 -538v-35q0 -235 159 -408q0 147 160 762q-319 -170 -319 -319zM652 1610h74q37 0 37 -55q0 -352 -185 -352l-37 74q63 333 111 333zM393 1462l37 -37v-18q0 -204 -148 -204l-37 37v56q0 166 148 166z" />
    <glyph glyph-name="dotlessi" unicode="&#x131;" horiz-adv-x="514" 
 />
    <glyph glyph-name="OE" unicode="&#x152;" horiz-adv-x="1789" 
d="M989 1729h18q274 0 274 -310l-18 -182q127 -73 127 -274q0 -346 -474 -802q-346 -255 -565 -255q-283 0 -328 365v36q0 503 474 1185q220 237 492 237zM205 271q25 -183 164 -183h73q288 0 693 565q91 219 91 329q-24 127 -55 127l-54 -18q0 109 -219 109l-128 -36
l-36 36v19q65 109 219 109h127l19 -18h18l18 18q0 255 -164 255q-497 0 -766 -1167v-145zM1759 1574q110 0 168 -105v-63q-21 -63 -126 -63l-21 63h-42q-400 -76 -400 -379l21 -21h21l232 21l42 -63v-21q-590 -512 -590 -1010v-42l85 -21q265 0 671 400q106 58 -9 -218
q-420 -372 -747 -372q-189 0 -210 253q0 390 442 905q-132 0 -147 168q0 447 610 568z" />
    <glyph glyph-name="oe" unicode="&#x153;" horiz-adv-x="1180" 
d="M-39 62q0 330 187 412q86 -36 94 -75v-131l-37 -169h37q111 0 150 113q0 83 -244 356q116 126 249 16l101 -116l58 -100l19 -201l46 -32q45 -24 -1 -86l-86 -13q-41 -64 -329 -105h-38q-135 21 -206 131zM855 -6h-47l-167 44q-47 24 -125 13q-68 86 12 138l2 5l29 26
q103 497 342 497q140 0 140 -163q0 -99 -233 -373v-23l93 -24q204 0 328 98q101 -31 -20 -166l-113 -36q-114 -36 -241 -36zM735 381l116 140v47q-58 0 -116 -187z" />
    <glyph glyph-name="circumflex" unicode="&#x2c6;" horiz-adv-x="858" 
d="M636 1381h73l36 -36l-18 -254l55 -127v-18q-38 -73 -91 -73q-127 53 -127 163h-18q-270 -290 -418 -290l-54 54q313 250 562 581z" />
    <glyph glyph-name="caron" unicode="&#x2c7;" 
 />
    <glyph glyph-name="uni02C9" unicode="&#x2c9;" 
 />
    <glyph glyph-name="breve" unicode="&#x2d8;" 
 />
    <glyph glyph-name="dotaccent" unicode="&#x2d9;" 
 />
    <glyph glyph-name="ring" unicode="&#x2da;" 
d="M540 1389q289 -49 289 -113l16 -64q0 -209 -434 -370h-16q-161 63 -161 177v48q74 322 306 322zM379 1083q0 -64 64 -96h16q165 84 225 177v32l-16 16v16l-112 -16h-33l-48 32q-96 -65 -96 -161z" />
    <glyph glyph-name="ogonek" unicode="&#x2db;" 
 />
    <glyph glyph-name="tilde" unicode="&#x2dc;" 
d="M1005 1552l36 -108q0 -320 -271 -432q-82 0 -270 216l-90 18q-200 0 -324 -180l-72 -18l-36 36v72q171 234 468 234h54q116 0 307 -198l108 342z" />
    <glyph glyph-name="hungarumlaut" unicode="&#x2dd;" 
 />
    <glyph glyph-name="endash" unicode="&#x2013;" horiz-adv-x="1714" 
d="M1555 539h15l31 -31v-30q0 -64 -1278 -216q-169 15 -169 46v31q22 77 493 77q657 123 908 123z" />
    <glyph glyph-name="emdash" unicode="&#x2014;" horiz-adv-x="4294" 
d="M3254 640q898 -14 898 -89v-36q0 -27 -72 -54l-251 18h-72l-18 18l-18 -18h-520q-950 0 -3052 -269l-18 17v18q0 204 2693 377z" />
    <glyph glyph-name="quoteleft" unicode="&#x2018;" horiz-adv-x="557" 
d="M318 1322h10l32 -31q0 -20 -84 -63q-73 -67 -73 -199l52 31h31l53 -52v-32l-11 -10v-10q42 -16 42 -32v-10q-31 -126 -125 -126h-32q-50 0 -105 199v42q29 293 210 293z" />
    <glyph glyph-name="quoteright" unicode="&#x2019;" horiz-adv-x="557" 
d="M224 1525h54q53 0 83 -274v-14q-66 -260 -137 -260h-28l-27 27v14q44 246 -5.5 264t-49.5 92q0 87 110 151z" />
    <glyph glyph-name="quotesinglbase" unicode="&#x201a;" horiz-adv-x="557" 
d="M261 454h54q53 0 83 -274v-14q-66 -260 -137 -260h-28l-27 27v14q44 246 -5.5 264t-49.5 92q0 87 110 151z" />
    <glyph glyph-name="quotedblleft" unicode="&#x201c;" horiz-adv-x="910" 
d="M199 1079l21 -21v-10q-71 -81 -84 -147l31 -136h11l31 21h31q105 -15 105 -94v-11q0 -99 -125 -157q-110 0 -168 367v10q39 178 147 178zM670 1058h10l32 -31q0 -20 -84 -63q-73 -67 -73 -199l52 31h31l53 -52v-32l-11 -10v-10q42 -16 42 -32v-10q-31 -126 -125 -126h-32
q-50 0 -105 199v42q29 293 210 293zM230 681v-42h10l11 42h-21z" />
    <glyph glyph-name="quotedblright" unicode="&#x201d;" horiz-adv-x="910" 
d="M580 1634h14q111 0 164 -233v-54q-46 -373 -178 -384l-14 14v13l69 343h-14l-82 -27q-57 18 -82 68v27q85 233 123 233zM224 1525h54q53 0 83 -274v-14q-66 -260 -137 -260h-28l-27 27v14l68 233v27h-68q-55 22 -55 96q0 87 110 151z" />
    <glyph glyph-name="quotedblbase" unicode="&#x201e;" horiz-adv-x="910" 
d="M580 563h14q111 0 164 -233v-54q-46 -373 -178 -384l-14 14v13l69 343h-14l-82 -27q-57 18 -82 68v27q85 233 123 233zM224 454h54q53 0 83 -274v-14q-66 -260 -137 -260h-28l-27 27v14l68 233v27h-68q-55 22 -55 96q0 87 110 151z" />
    <glyph glyph-name="dagger" unicode="&#x2020;" horiz-adv-x="1549" 
d="M750 1666h35q86 0 86 -329v-139l572 70l35 -52q0 -87 -624 -174q0 -397 -260 -1247l-17 -17h-52q-35 0 -35 52q208 1001 208 1195h-17l-658 -86l-35 51v18q0 97 727 173v277q-51 0 -51 35q0 134 86 173z" />
    <glyph glyph-name="daggerdbl" unicode="&#x2021;" horiz-adv-x="1014" 
d="M734 1677h53q36 0 54 -160l-36 -302q587 -36 587 -125v-35q0 -53 -71 -53q-227 53 -551 53v-18q-89 -424 -303 -1031l232 18q319 -11 319 -71v-36q-17 -53 -106 -53h-267q-249 0 -249 -107l-17 -248v-54l-54 -53h-17q-89 49 -89 160l35 249h-18l-444 -89h-18l-53 53v18
l71 71h18l18 -18l480 143q177 504 302 1048v18q-347 0 -445 -178q0 -40 -89 -53l-17 53q100 338 604 338l18 284l-18 -18h-18l-35 36v18q57 102 124 142z" />
    <glyph glyph-name="bullet" unicode="&#x2022;" 
d="M841 857q0 -26 115 -141l13 -205q0 -151 -360 -386q-149 -51 -231 -51q-119 0 -218 154q0 475 475 604q130 0 206 25zM725 446l51 26l52 -13l13 64v39zM622 267h13l90 51v26z" />
    <glyph glyph-name="ellipsis" unicode="&#x2026;" horiz-adv-x="1874" 
d="M878 292q127 -54 139 -111v-28q-28 -83 -167 -83h-28l-83 83v56q0 63 139 83zM1490 264l28 -27h28l83 27l28 -27v-84q-71 -139 -223 -139l-55 83v84q0 70 111 83zM293 209h56l56 -56v-28l-112 -111h-28l-83 83z" />
    <glyph glyph-name="guilsinglleft" unicode="&#x2039;" horiz-adv-x="924" 
d="M881 1163q35 0 35 -53l-355 -356q-338 -399 -338 -533v-89q0 -83 533 -124l18 -18v-36l-71 -71h-338q-276 0 -320 231v18q0 416 782 1031h54z" />
    <glyph glyph-name="guilsinglright" unicode="&#x203a;" horiz-adv-x="1049" 
d="M118 929q871 -48 871 -409q0 -254 -747 -818q-71 -63 -71 -160l-89 -53q-71 27 -71 53v54q0 149 693 675q107 142 107 214q0 227 -693 302v18l-18 -18h-36l-53 53q51 89 107 89z" />
    <glyph glyph-name="fraction" unicode="&#x2044;" horiz-adv-x="1128" 
d="M1230 1906l28 -28v-41q0 -83 -666 -1151q-535 -885 -610 -1055l27 -27q-27 -139 -138 -139l-42 55v28q0 131 444 832l790 1304l14 14v14q-41 0 -41 28q104 166 194 166z" />
    <glyph glyph-name="fraction" unicode="&#x2215;" horiz-adv-x="1128" 
d="M1230 1906l28 -28v-41q0 -83 -666 -1151q-535 -885 -610 -1055l27 -27q-27 -139 -138 -139l-42 55v28q0 131 444 832l790 1304l14 14v14q-41 0 -41 28q104 166 194 166z" />
    <glyph glyph-name="franc" unicode="&#x20a3;" horiz-adv-x="1572" 
d="M1668 1655q192 -29 192 -157l-52 -35l-192 35q-197 0 -890 -175q0 -196 -88 -698l349 35l35 -52q0 -74 -401 -140l-52 -471l296 52h35l53 -52q-18 -140 -140 -140l-52 35l-192 -52l34 -157q-26 -70 -52 -70h-52q-48 0 -87 192l-123 -17q-244 17 -244 69v53q28 70 122 70
l122 -35h35l88 17l52 489q-52 0 -52 35v35q98 0 157 750h-18l-52 -70l-18 -17h-87l-70 70q0 87 349 209l18 -17q646 205 977 209z" />
    <glyph glyph-name="lira" unicode="&#x20a4;" horiz-adv-x="1390" 
d="M1086 1381h93l94 -94q0 -98 -112 -187q-38 0 -38 56l19 94h-75q-199 0 -394 -356h225l38 -38v-37q0 -57 -263 -75l38 -169l525 75l37 -56q0 -86 -506 -150q56 -140 56 -244q-28 -155 -75 -206v-19l131 19h94l338 -113l187 56h19l37 -37v-19q0 -86 -300 -169l-300 113
h-150q-183 0 -506 -150l-37 56v19l37 56l-19 94q33 33 225 56q144 106 150 150v75q0 206 -56 225q-237 0 -431 -169q-75 29 -75 57v37q0 100 450 206q-11 188 -56 188q-258 0 -394 -131h-19l-56 56v37q0 107 506 188q0 189 394 469z" />
    <glyph glyph-name="peseta" unicode="&#x20a7;" horiz-adv-x="2386" 
d="M321.509 1746h207.905q461.713 -39 576.016 -373l16.2002 -125q0 -328 -432.012 -728q160.204 0 160.204 -54q0 -53 -63.9014 -53q-353.71 0 -432.012 -124v-107q0 -640 -176.404 -640h-16.2012l-47.7012 53v143q0 195 80.1025 551l-47.7012 53v18l47.7012 88
l-80.1025 1031v54q0 213 207.906 213zM257.606 1586v-18q0 -342 32.4014 -515h15.2998v355l-31.501 54v17l63.9023 71h16.2002q73.8018 0 95.4023 -266l-80.1016 -782q348.31 133 544.515 515q47.7012 91 47.7012 178v53q0 251 -399.611 338h-304.208zM1403 -242
q-142 -63 -289 -63q-238 43 -238 216h-22q-94 -192 -339 -192q-68 173 168 229l258 355q0 103 282 607h-196l-151 -22l-66 87v44q0 86 391 86h108q518 714 696 803l86 21q65 0 130 -129q-30 -166 -347 -630h22l564 44q217 0 346 -88l-103 -104l-71 -3l-150 21
q-847 -41 -847 -156l-304 -408q-260 -252 -260 -499q32 -87 65 -87q111 0 158 -2q151 -61 109 -130zM1548 1126h65q227 249 370 565zM1418 931l-175 -282l132 131l109 151h-66zM1982 -178q-191 -133 -191 -203q-46 -204 -264 -204q-100 0 -149 92v18q0 78 131 188
q-239 106 -239 310q113 412 412 412h19q86 -36 94 -75v-18q-48 -244 -169 -244l-19 56l38 113v18h-19q-169 -87 -169 -225q0 -144 240 -253q127 56 218 140q85 -57 67 -125zM1566 -393q-30 -45 -33 -62t26.5 -0.5t6.5 62.5z" />
    <glyph glyph-name="Euro" unicode="&#x20ac;" horiz-adv-x="1811" 
d="M2057 1678q226 0 226 -169q-103 -218 -226 -263h-19l-18 18v38q113 134 113 207l-19 19h-94q-465 0 -1204 -677v-19l150 37l38 -56v-19q0 -47 -414 -169l-94 -132h19l357 57h57l37 -38v-19q0 -44 -602 -188l-94 -263q0 -163 301 -189q244 0 1035 207l37 -37v-19
q-168 -188 -1109 -301h-95q-338 65 -338 301l56 226q-169 0 -169 37v19q7 54 282 151v18q0 31 -169 132v38q25 43 414 131q931 922 1542 922z" />
    <glyph glyph-name="afii61352" unicode="&#x2116;" horiz-adv-x="1629" 
d="M810 1692h31q50 0 93 -418q-113 -1349 -357 -1349q-201 0 -201 419h-16q-88 -481 -170 -481h-16l-31 31l279 1442q52 232 109 232l46 16l47 -62l-109 -1225q21 -217 78 -217q201 675 201 1178l-31 403zM1228 1134h62q78 -62 78 -139v-47q0 -188 -310 -248q-64 21 -93 78
v46q55 202 186 202q46 -37 46 -155q47 15 47 93v15l-62 93q23 62 46 62zM1523 545l15 -15v-47q0 -93 -604 -93l-16 16v31q0 108 605 108z" />
    <glyph glyph-name="trademark" unicode="&#x2122;" horiz-adv-x="1361" 
d="M1037 1803l51 -67q0 -37 -151 -217v-17q67 0 67 -33l150 66q77 -32 84 -66l-50 -218l17 -17h16l117 17l17 -17v-33q-74 -100 -217 -100q-69 23 -101 83v101l17 16v17h-17l-217 -184h-67l-17 17q-151 -100 -250 -100l-34 66q0 36 284 385h-16q-285 -93 -285 -318
q-114 -275 -150 -284h-34l-33 33v34l100 351h-16l-67 -17h-101q-86 0 -100 51v33l50 50h34l67 -17q234 0 234 235l50 33h33l34 -33v-84q55 0 468 234h33z" />
    <glyph glyph-name="partialdiff" unicode="&#x2202;" horiz-adv-x="1134" 
d="M683 1204h19q330 0 440 -478v-38q0 -472 -727 -880l-134 -19h-38q-191 38 -191 191v153q166 459 612 459h57l230 -38l19 153q-103 344 -306 344h-57q-173 0 -249 -229l-19 -20h-19l-39 39q0 363 402 363zM205 76q42 -134 96 -134q329 66 592 478l-133 19h-39
q-497 -38 -497 -306z" />
    <glyph glyph-name="Delta" unicode="&#x2206;" horiz-adv-x="1321" 
d="M1070 1460h59l60 -40l-99 -632l118 -592q0 -124 -533 -158q-372 -198 -494 -198h-39l-40 40v39q41 79 99 79l-40 79l632 909q240 474 277 474zM892 867q-188 -315 -612 -849h20q410 217 711 217v40q-99 279 -99 592h-20z" />
    <glyph glyph-name="product" unicode="&#x220f;" horiz-adv-x="1515" 
 />
    <glyph glyph-name="summation" unicode="&#x2211;" horiz-adv-x="1206" 
 />
    <glyph glyph-name="minus" unicode="&#x2212;" horiz-adv-x="704" 
d="M478 500l47 -47q-110 -141 -393 -141l-47 47v31q0 52 236 63q43 41 157 47z" />
    <glyph glyph-name="radical" unicode="&#x221a;" horiz-adv-x="1128" 
d="M2166 1863q391 -16 391 -63v-31q0 -43 -172 -63l-234 16l-1156 -78l31 -47l-31 -63q109 -385 109 -546q-78 -763 -250 -1172l-125 -141h-78q-63 21 -63 141v359q0 115 -47 281l-343 -15h-47q-81 0 -94 47v46l47 47l94 -31l453 47q78 -20 78 -47l-31 -94l31 -312v-266h16
q218 761 218 1110q-78 578 -187 578q0 31 -156 47l-32 46v16q104 125 188 125h31l31 -31z" />
    <glyph glyph-name="infinity" unicode="&#x221e;" horiz-adv-x="2409" 
d="M472 884q367 0 629 -387l16 -16h32q530 177 757 177q338 -59 338 -274v-80q-53 -435 -435 -435q-296 0 -789 403q-419 -145 -531 -145q-267 0 -371 257l-16 81q46 419 370 419zM247 497q0 -163 242 -225h48q84 0 386 112q-49 226 -128 226q-116 129 -274 129h-97
q-152 0 -177 -242zM1229 368l258 -193q0 -114 370 -161h17q189 0 225 290q-36 193 -177 193h-129q-171 0 -564 -129z" />
    <glyph glyph-name="integral" unicode="&#x222b;" horiz-adv-x="665" 
d="M600 1569q122 0 122 -122q0 -121 -259 -229l76 -611v-153q0 -824 -565 -824h-31q-92 0 -137 107q65 244 214 244l61 15l30 -45q0 -73 -107 -199h31q234 0 321 336q45 191 45 382v46l-76 778q0 95 153 214q0 40 122 61z" />
    <glyph glyph-name="approxequal" unicode="&#x2248;" horiz-adv-x="1674" 
d="M670 943q111 0 317 -269q96 -64 158 -64q176 45 317 206h47l32 -31q0 -199 -443 -317q-199 0 -412 317l-64 31q-215 -28 -411 -190h-32l-32 48v16q232 253 523 253zM538 517q98 0 444 -317q142 -63 253 -63q131 7 317 174h47l32 -32q-42 -151 -317 -269l-95 -16h-47
q-286 0 -618 364l-79 16h-16q-76 0 -222 -79v-16q79 0 79 -32q0 -63 -205 -79l-48 79q180 270 475 270z" />
    <glyph glyph-name="lessequal" unicode="&#x2264;" horiz-adv-x="1612" 
d="M1215 1302h16l32 -32v-32q0 -117 -961 -1009h16l657 32q263 -16 288 -96l-48 -64l-112 16h-144l-721 -32q-112 0 -112 112q0 96 592 593l385 384l-16 64q67 64 128 64zM1519 85l32 -48v-16q0 -76 -1249 -256q0 -32 -144 -32l-32 48q0 135 1393 304z" />
    <glyph glyph-name="greaterequal" unicode="&#x2265;" horiz-adv-x="1999" 
d="M470 1219q1207 -218 1207 -378q36 0 36 -90v-36q0 -306 -1513 -973l-72 -18l-36 54v18q11 70 666 360q776 416 793 541v18q0 153 -829 288l-396 126v18q25 72 144 72zM1785 -24q288 -12 288 -72l-72 -72q-518 0 -2089 -396h-36l-36 54v18q0 78 576 180q1028 288 1369 288
z" />
    <glyph glyph-name="th" unicode="&#xe000;" horiz-adv-x="1086" 
d="M1675 2571q154 0 169 -231v-63q0 -337 -1012 -1242l-209 -505v-22h20q185 316 358 316l63 -64v-62l-147 -506v-21q126 -16 194 82q57 -24 7 -181l-179 -69h-43q-169 16 -169 147q0 88 127 401q-400 -569 -484 -569h-43l-41 42v63q42 180 294 800h-21q-148 0 -307 -576
l-127 -285l-126 -42q-157 40 -93 172q83 -28 337 604h-126q-334 22 -379 127v42l63 63q109 -63 337 -63q210 0 261 233q274 732 274 949v21l-41 84q29 87 105 127h42l63 -64v-125q0 -252 -304 -1098q189 65 358 484q506 1031 779 1031zM1064 1477q611 608 611 800l-21 105
h-42q-174 -118 -548 -905z" />
    <glyph glyph-name="uniF001" unicode="&#xf001;" horiz-adv-x="1111" 
d="M1318 2258h34q86 -52 86 -121q0 -389 -1086 -2000l-35 -104h87l586 242l169 -163v-17q0 -69 -307 -10l-276 -155q103 -145 103 -310v-121q0 -456 -379 -845l-103 -35h-18q-172 0 -172 311v103q0 302 138 949q-69 0 -69 69q57 207 138 207q131 668 603 1534
q334 466 501 466zM473 620v-18h17q776 1221 776 1483q-401 -368 -604 -931zM1059 792q69 -26 69 -52v-34l-86 -138h-52l-52 52v34q13 138 121 138zM179 -829v-258q0 -128 52 -138q293 379 293 776q0 165 -120 310q-173 0 -173 -345q-52 -105 -52 -345z" />
    <glyph glyph-name="uniF001" unicode="&#xfb01;" horiz-adv-x="1111" 
d="M1318 2258h34q86 -52 86 -121q0 -389 -1086 -2000l-35 -104h87l586 242l169 -163v-17q0 -69 -307 -10l-276 -155q103 -145 103 -310v-121q0 -456 -379 -845l-103 -35h-18q-172 0 -172 311v103q0 302 138 949q-69 0 -69 69q57 207 138 207q131 668 603 1534
q334 466 501 466zM473 620v-18h17q776 1221 776 1483q-401 -368 -604 -931zM1059 792q69 -26 69 -52v-34l-86 -138h-52l-52 52v34q13 138 121 138zM179 -829v-258q0 -128 52 -138q293 379 293 776q0 165 -120 310q-173 0 -173 -345q-52 -105 -52 -345z" />
    <glyph glyph-name="uniF002" unicode="&#xf002;" horiz-adv-x="1076" 
d="M2081 2099l58 -44v-29q-97 -385 -818 -1272q-410 -362 -439 -600q-59 -106 -59 -190v-14q221 125 264 250q93 -20 40 -104q-235 -292 -362 -292q-88 30 -88 117l88 307q-316 -220 -439 -220l15 -190q-91 -1535 -351 -1535q-161 0 -161 366v87q0 373 190 936
q-134 -205 -190 -205l-29 44q34 115 307 453v30q-73 0 -73 102q0 116 132 146l73 -29v15q239 517 877 1418q268 292 365 292h44q44 -14 44 -88q0 -140 -848 -1286l-322 -410h15q441 184 673 673q376 652 950 1257zM590 608q801 1053 804 1140q-371 -360 -673 -906
q-131 -194 -131 -234zM1861 1733q-404 -507 -584 -833h14q447 578 585 833h-15zM195 -196q-234 -697 -234 -1097q14 -263 58 -263q190 899 190 1345v15h-14z" />
    <glyph glyph-name="uniF002" unicode="&#xfb02;" horiz-adv-x="1076" 
d="M2081 2099l58 -44v-29q-97 -385 -818 -1272q-410 -362 -439 -600q-59 -106 -59 -190v-14q221 125 264 250q93 -20 40 -104q-235 -292 -362 -292q-88 30 -88 117l88 307q-316 -220 -439 -220l15 -190q-91 -1535 -351 -1535q-161 0 -161 366v87q0 373 190 936
q-134 -205 -190 -205l-29 44q34 115 307 453v30q-73 0 -73 102q0 116 132 146l73 -29v15q239 517 877 1418q268 292 365 292h44q44 -14 44 -88q0 -140 -848 -1286l-322 -410h15q441 184 673 673q376 652 950 1257zM590 608q801 1053 804 1140q-371 -360 -673 -906
q-131 -194 -131 -234zM1861 1733q-404 -507 -584 -833h14q447 578 585 833h-15zM195 -196q-234 -697 -234 -1097q14 -263 58 -263q190 899 190 1345v15h-14z" />
    <glyph glyph-name="NULL" horiz-adv-x="0" 
 />
  </font>
</defs>
</svg>
