<?xml version="1.0" standalone="no"?>
<!DOCTYPE svg PUBLIC "-//W3C//DTD SVG 1.1//EN" "http://www.w3.org/Graphics/SVG/1.1/DTD/svg11.dtd" >
<svg xmlns="http://www.w3.org/2000/svg" xmlns:xlink="http://www.w3.org/1999/xlink" version="1.1">
<metadata>
Created by FontForge 20170731 at Sun May 15 15:10:35 2011
 By Aleksey,,,
Typeface (c) CuttyFruty. 2011. All Rights Reserved
</metadata>
<defs>
<font id="JellykaLuckyDay" horiz-adv-x="1014" >
  <font-face 
    font-family="Jellyka Lucky Day"
    font-weight="400"
    font-stretch="normal"
    units-per-em="2048"
    panose-1="2 0 5 0 0 0 0 0 0 0"
    ascent="1638"
    descent="-410"
    x-height="1016"
    cap-height="1435"
    bbox="-205 -437 2104 1810"
    underline-thickness="150"
    underline-position="-442"
    unicode-range="U+0020-F002"
  />
<missing-glyph horiz-adv-x="1024" 
d="M100 0v1434h824v-1434h-824zM150 50h724v1334h-724v-1334zM325 1148q31 28 58 43q53 30 112 30q92 0 148 -47.5t56 -127.5q0 -49 -23 -98.5t-87 -129.5q-63 -80 -99 -132t-36 -99q0 -38 24 -133h-32q-35 97 -35 148q0 76 81.5 218t81.5 217q0 57 -33 90t-91 33
q-38 0 -69 -17q-26 -15 -56 -40v45zM389 334l57 58q11 10 20 10q10 0 22 -11l56 -60q9 -11 9 -20q0 -11 -10 -22l-56 -62q-14 -14 -21 -14q-11 0 -20 10l-61 71q-7 9 -7 18q0 10 11 22z" />
    <glyph glyph-name=".notdef" horiz-adv-x="1024" 
d="M100 0v1434h824v-1434h-824zM150 50h724v1334h-724v-1334zM325 1148q31 28 58 43q53 30 112 30q92 0 148 -47.5t56 -127.5q0 -49 -23 -98.5t-87 -129.5q-63 -80 -99 -132t-36 -99q0 -38 24 -133h-32q-35 97 -35 148q0 76 81.5 218t81.5 217q0 57 -33 90t-91 33
q-38 0 -69 -17q-26 -15 -56 -40v45zM389 334l57 58q11 10 20 10q10 0 22 -11l56 -60q9 -11 9 -20q0 -11 -10 -22l-56 -62q-14 -14 -21 -14q-11 0 -20 10l-61 71q-7 9 -7 18q0 10 11 22z" />
    <glyph glyph-name=".null" horiz-adv-x="0" 
 />
    <glyph glyph-name="nonmarkingreturn" horiz-adv-x="508" 
 />
    <glyph glyph-name="space" unicode=" " horiz-adv-x="508" 
 />
    <glyph glyph-name="space" unicode="&#xa0;" horiz-adv-x="508" 
 />
    <glyph glyph-name="exclam" unicode="!" horiz-adv-x="498" 
d="M169 1421q224 -14 224 -70v-14l14 -154l-14 -224v-378l14 -84q0 -70 -182 -126q-44 0 -112 56l-14 378v546zM155 1239l28 -224v-98l-14 -168q0 -294 70 -294q56 14 56 70l14 420l-14 126q28 62 28 196q-14 56 -70 56q-98 -8 -98 -84zM225 301q182 -62 182 -168
q-60 -140 -154 -140h-14q-107 0 -154 126q70 182 140 182zM197 147v-70h70q42 14 42 84l-42 28h-28z" />
    <glyph glyph-name="quotedbl" unicode="&#x22;" horiz-adv-x="578" 
d="M178 1443q84 0 84 -98v-252q-39 -70 -112 -70q-70 19 -70 98v224q0 98 98 98zM388 1415h42q70 -36 70 -112v-196q-31 -70 -154 -70l-28 28l14 140v112q0 75 56 98zM136 1331v-196l28 -28h14l28 28v196l-28 28h-14zM388 1331l-14 -42q14 -168 42 -168h14l28 28v112l-14 70
h-56z" />
    <glyph glyph-name="numbersign" unicode="#" horiz-adv-x="1218" 
d="M276 1075h112q154 0 154 -238l42 -14q45 0 98 238h112q126 0 126 -210q196 -42 196 -84v-98q0 -103 -42 -112l-28 28v182l-56 14l-98 -28q-46 38 -56 196l-42 28h-56q-14 -210 -70 -210h-140q-98 0 -98 182q-14 56 -70 56q-60 0 -70 -196q-126 -34 -126 -112
q98 -105 98 -154v-126q-84 -77 -84 -126v-28q0 -22 98 -70q0 -126 84 -126q56 0 56 126l42 28h182q56 -29 56 -70l-14 -14v-14q9 -70 84 -70q84 0 84 140l14 14h14l140 -14l14 70v42q0 42 -140 42q-42 51 -42 98v112l56 56h28q28 0 28 -42l-28 -84q0 -70 140 -70l42 -42
l-14 -70v-126l-42 -42l-70 14q-54 0 -98 -140l-70 -28q-182 0 -182 98q0 70 -84 70h-28q-45 -16 -84 -140l-14 -14h-56q-137 0 -196 140q-84 0 -84 98v126l98 84l14 56v14q-106 101 -112 154q0 196 112 196q28 0 28 70v98zM486 627h112q112 0 112 -112v-56q0 -98 -98 -98
h-140l-42 42v168zM500 501q0 -84 70 -84q56 14 56 84q-10 42 -56 56q-64 -27 -70 -56z" />
    <glyph glyph-name="dollar" unicode="$" horiz-adv-x="1110" 
d="M556 1437q238 0 238 -70q0 -28 140 -140q98 -126 98 -322q0 -47 -266 -70v-14q0 -24 182 -182q70 -153 70 -210v-154q0 -95 -294 -266q-23 -154 -126 -154h-42q-80 0 -154 140q-322 118 -322 462l84 28l182 -14l28 28l70 -42h14l14 56l-210 224l-70 196q61 265 210 364
q72 0 112 126l14 14h28zM290 933v-42q0 -112 238 -336l14 -168q-14 -98 -42 -98h-28q-87 112 -196 112l-98 14v-56q93 -308 280 -308q36 -126 126 -126h14q34 0 84 168q280 69 280 308v14q-33 188 -168 308q-75 0 -112 154v42l42 42q65 -56 210 -56l28 42q-32 202 -168 322
q-34 0 -98 84l-56 14h-42l-238 -224q-70 -130 -70 -210zM738 471l42 -42v-56l-42 -42q-42 14 -42 84v14z" />
    <glyph glyph-name="percent" unicode="%" horiz-adv-x="1146" 
d="M978 1143q68 -17 65 -49l-2 -14q-457 -835 -633 -1074q-95 -18 -296 3l-12 16l3 27l393 663l196 388q170 52 286 40zM208 112l-2 -14l68 -21l84 -9q52 -6 303 475l277 492l3 27l-40 19q-179 19 -386 -452q-75 -81 -307 -517zM243 1122l14 -2q180 -36 167 -158l-3 -28
q-79 -189 -202 -176q-107 54 -93 179q67 190 117 185zM239 1080q-47 -47 -52 -93l-7 -70q-8 -78 59 -105q117 44 128 142q11 111 -128 126zM795 346l28 -3l-3 -28q-69 7 -80 -90l-7 -70q-9 -83 75 -92q117 44 127 141l-31 102l14 -1q77 -68 72 -120q-13 -116 -216 -175
q-88 9 -97 151q12 111 118 185z" />
    <glyph glyph-name="ampersand" unicode="&#x26;" horiz-adv-x="1338" 
d="M542 1380q294 -47 294 -294l-84 -280v-14q0 -78 154 -224h28l140 112h28q112 -83 140 -168q-126 -182 -126 -224l56 -98v-28q-149 -168 -182 -168h-14l-140 98q-275 -126 -406 -126h-112q-193 0 -224 238q0 297 238 560q-70 81 -126 434q0 74 308 182h28zM290 1142v-56
q0 -58 126 -322q-182 -196 -182 -252q-56 -159 -56 -392q0 -86 280 -112q160 16 378 168h42l112 -98q112 11 112 98l-84 84v42l140 182v56l-56 56h-14l-182 -126h-28l-210 266v14l84 308q0 206 -238 294h-14q-210 -87 -210 -210zM500 1198h42q70 -36 70 -112v-28
q0 -73 -70 -140h-14q-33 0 -98 196q19 58 70 84zM500 610q70 0 224 -224v-14q-96 -123 -238 -168q-126 66 -126 154v42q0 131 140 210zM416 358q0 -98 84 -98q112 0 126 112v28q-45 81 -98 112h-42q-70 -49 -70 -154z" />
    <glyph glyph-name="quotesingle" unicode="'" horiz-adv-x="489" 
d="M240 1304q168 -14 168 -140v-14q-87 -266 -210 -266q-98 0 -98 98l42 42v42q-56 59 -56 112q0 126 154 126zM170 1178l70 -98v-14q-29 -56 -70 -56v-42q0 -28 42 -28q112 53 112 140v98l-14 70h-28q-86 0 -112 -70z" />
    <glyph glyph-name="parenleft" unicode="(" horiz-adv-x="620" 
d="M528 1372q84 -14 84 -70q-238 -350 -238 -756v-168q0 -153 112 -336v-14l-28 -28l-70 14h-14l-84 -14q-129 0 -196 546v28q0 188 210 700q53 98 224 98zM178 630v-84q0 -462 154 -462h14l42 42q-84 214 -98 406q12 292 210 728v28l-56 14q-147 0 -266 -672z" />
    <glyph glyph-name="parenright" unicode=")" horiz-adv-x="692" 
d="M224 1347h168q88 -75 182 -476v-280q-162 -602 -308 -602h-14l-70 14l-70 -14q-56 21 -56 42v42q266 334 266 742v42q0 131 -98 266l-42 182zM280 1263v-28l112 -406v-42q-61 -560 -168 -560l-42 -84v-42l28 -28h28q142 0 266 490v224q-63 490 -168 490z" />
    <glyph glyph-name="asterisk" unicode="*" horiz-adv-x="649" 
d="M329 1474h98q42 0 42 -112q140 -77 140 -182l-70 -112l14 -84v-14q-62 -98 -140 -98l-84 70q-45 0 -140 -70q-112 53 -112 140l28 98v28l-56 70q42 154 84 154l70 -14q42 126 126 126zM287 1362l14 -126l-42 -28l-42 56l-14 14h-70l-14 -42q0 -38 98 -84v-14l-84 -154
l14 -42h70l112 126q23 0 56 -98h56l28 28l-42 126q98 0 98 70h14q0 56 -126 56q-21 154 -56 154h-28z" />
    <glyph glyph-name="plus" unicode="+" horiz-adv-x="1528" 
d="M1199 1405l-19 -191v-20q325 -225 325 -382q-28 -165 -172 -268q-249 -51 -249 -115q39 -116 39 -345q0 -176 -173 -306h-76l-58 38q0 103 -57 153v39q141 0 172 249v38l-19 96h-57l-153 -115q-460 58 -460 306v38l19 134q-172 190 -172 383q59 268 383 268
q38 268 210 268h173q224 0 344 -268zM798 1615l-198 -99q-19 -237 -59 -237l-177 60q-158 0 -197 -217v-20q0 -237 256 -256h99v-60q-158 -67 -158 -177v-79q0 -117 118 -158q214 0 316 138q40 119 78 119h40q91 -99 138 -99q355 62 355 217v118q-40 217 -197 217h-237
l-20 20l99 276v39q0 173 -256 198zM797 965q-14 -96 -57 -96h-19q-58 16 -58 115v19l58 57q39 -8 76 -95zM1027 888v-38h-77v38l39 38zM606 697l19 -19l-38 -39h-19v39l19 19h19zM1032 214q-114 -166 -114 -299v-26h26l77 77q53 79 11 248z" />
    <glyph glyph-name="comma" unicode="," horiz-adv-x="503" 
d="M252 244q168 -14 168 -140v-14q-87 -266 -210 -266q-98 0 -98 98l42 42v42q-56 59 -56 112q0 126 154 126zM182 118l70 -98v-14q-29 -56 -70 -56v-42q0 -28 42 -28q112 53 112 140v98l-14 70h-28q-86 0 -112 -70z" />
    <glyph glyph-name="hyphen" unicode="-" horiz-adv-x="943" 
d="M296 685l490 -28h14q56 -23 56 -98q0 -168 -294 -168l-434 -14l-42 56q0 252 98 252h112zM156 559v-14q0 -84 98 -84l448 14v-14q70 9 70 84q-14 56 -84 56h-490z" />
    <glyph glyph-name="hyphen" unicode="&#xad;" horiz-adv-x="943" 
d="M296 685l490 -28h14q56 -23 56 -98q0 -168 -294 -168l-434 -14l-42 56q0 252 98 252h112zM156 559v-14q0 -84 98 -84l448 14v-14q70 9 70 84q-14 56 -84 56h-490z" />
    <glyph glyph-name="period" unicode="." horiz-adv-x="463" 
d="M245 249q126 -26 126 -126q-37 -140 -140 -140q-140 9 -140 140q0 98 154 126zM175 165l-14 -42l42 -56h28q42 0 42 56l-14 42h-84z" />
    <glyph glyph-name="slash" unicode="/" horiz-adv-x="998" 
d="M872 1354q64 -27 70 -56v-42q-126 -93 -126 -224q-132 -397 -238 -518q-148 -546 -252 -546q-224 9 -224 56v14q458 1295 560 1302h84zM186 94v-28l70 -14h28q103 0 126 168q182 334 378 1022l-42 28q-138 0 -210 -336z" />
    <glyph glyph-name="zero" unicode="0" horiz-adv-x="915" 
d="M579 1370q137 0 252 -280l-14 -140v-266q-47 -490 -126 -490q-157 -182 -238 -182l-182 -14q-154 138 -154 462l-14 98q0 255 154 462q144 350 322 350zM159 530v-168q98 -294 294 -294q207 0 308 574v42q0 602 -154 602l-42 14h-14q-80 0 -238 -196q-154 -331 -154 -574
zM481 936h42q42 0 70 -126v-126q-47 -274 -154 -406l-14 -14h-42q-42 0 -70 280q80 392 168 392zM467 768l-70 -252l14 -42h28q56 0 70 224l-14 70h-28z" />
    <glyph glyph-name="one" unicode="1" horiz-adv-x="840" 
d="M413 1349q322 -17 322 -112l-42 -784l14 -84l-14 -98l14 -168q0 -102 -126 -112q-266 0 -266 56v224l56 504l-42 28h-84q-168 0 -168 56q0 129 238 462zM161 915v-14l42 -42h14q108 0 219 155q31 0 5 -183l-28 -686q0 -83 154 -112l70 70l-14 238v14q0 362 42 882l-42 28
h-112q-204 0 -252 -196q-98 -68 -98 -154z" />
    <glyph glyph-name="two" unicode="2" horiz-adv-x="1084" 
d="M601 1344h42q282 0 350 -434v-14q0 -182 -364 -560v-42l56 -14l70 14q56 -37 224 -56v-140q0 -126 -196 -126h-168q-518 0 -518 84v28q0 223 238 448q266 296 266 364v42l-42 42q-79 0 -252 -168h-14q-140 0 -140 252q211 280 448 280zM237 1036q28 -126 70 -126
q224 154 280 154h14q98 0 98 -98v-42q-31 -170 -294 -364q-252 -293 -252 -434q0 -70 210 -70h280l154 -28q84 0 84 112h14q0 84 -294 84q-140 0 -140 42v14q4 37 294 308q154 200 154 392q-71 280 -266 280l-42 28q-201 0 -364 -224v-28z" />
    <glyph glyph-name="three" unicode="3" horiz-adv-x="1198" 
d="M263 1374q714 -37 714 -70v-14l-378 -14l-336 14l-28 -42v-42q0 -84 140 -84q309 -32 378 -84v-14l-196 -238v-42q162 0 252 -308q0 -157 -238 -196l-182 112h-98l-98 -28v-70q0 -61 378 -210h140q195 0 322 308l14 126v42q0 162 -266 238l-14 14v42q210 168 210 252
l14 210h28l42 -42q0 -205 -154 -392v-56q210 -100 210 -350q-90 -462 -448 -462q-229 0 -392 140q-173 100 -182 154q0 98 238 182h28q60 0 168 -140l84 -14q126 18 126 126q0 200 -308 294v14q0 52 182 266l-14 14l-56 14h-336l-56 42q14 308 112 308z" />
    <glyph glyph-name="four" unicode="4" horiz-adv-x="1029" 
d="M296 1333q140 -37 140 -140v-182l-14 -84q14 -56 84 -56q84 0 84 294q0 168 182 168h112l42 -28v-28h-14l14 -140v-994q0 -154 -42 -154q-322 0 -322 70v14l-14 420h14q-18 65 -56 70l-112 -14q-280 0 -280 98l-14 112l14 224v210q0 117 182 140zM184 1193l14 -112
l-14 -280v-84q0 -98 140 -98l154 14h112l56 -56v-238l-14 -224q14 -56 84 -56q126 0 126 210l14 910l-14 56h-126q-52 0 -84 -392q-52 -56 -252 -56q-56 68 -56 112l14 280h14q-9 70 -84 70q-70 0 -84 -56z" />
    <glyph glyph-name="five" unicode="5" horiz-adv-x="1247" 
d="M287 1366l462 -14l140 14q182 -33 182 -154v-98q0 -168 -406 -168l-56 14q-56 -21 -56 -42v-28q0 -28 42 -28l98 56q286 -50 378 -140q98 -178 98 -280q-68 -406 -224 -406q-162 -112 -560 -112h-14q-127 0 -266 196v28q132 154 224 154l294 -42q126 46 126 168
q-57 126 -168 126l-308 -98q-112 0 -126 168l14 56l-14 280l14 182l-14 56q53 112 140 112zM217 1240l14 -308v-266q0 -84 84 -84l280 84q238 -31 238 -224q0 -150 -238 -210l-266 56q-140 -51 -140 -140q0 -74 140 -84h154q574 0 574 266q28 0 28 182q-77 266 -168 266
l-112 28h-84l-210 -28q-28 63 -28 182v42l56 56l182 -14l70 14l112 -14h28q52 0 70 224l-42 28l-224 -28l-168 28h-252q-59 0 -98 -56z" />
    <glyph glyph-name="six" unicode="6" horiz-adv-x="1072" 
d="M791 1400q106 -86 154 -182q0 -108 -280 -308l-14 -14v-56q0 -28 70 -28q252 -159 252 -336v-56q0 -262 -378 -420h-28q-420 47 -420 112q-70 103 -70 238v70q0 174 308 602q162 286 378 378h28zM133 406v-112q0 -210 378 -210q293 0 378 364v42q0 238 -154 238
q-5 31 -126 42l-56 -28l-14 14v42q95 145 294 364l14 70q-22 98 -84 98q-437 -311 -630 -924zM511 588q182 -51 182 -168q-93 -154 -210 -154q-70 36 -70 112v42q46 168 98 168z" />
    <glyph glyph-name="seven" unicode="7" horiz-adv-x="1109" 
d="M175 1372l224 -14l196 14l70 -14l84 14q336 -46 336 -112l-644 -1246h-126l-154 -14q-87 28 -98 70v28q0 54 196 294q59 147 238 392l70 182l-14 14l-182 -14q-252 0 -252 70v224q0 51 56 112zM217 1302l-28 -42v-140q0 -51 42 -84l140 14h98q182 -60 182 -84v-56
q-252 -434 -518 -784v-28l14 -14v-14q350 0 350 182l504 952q-14 84 -140 84l-70 -28l-126 14l-168 -14z" />
    <glyph glyph-name="eight" unicode="8" horiz-adv-x="1003" 
d="M601 1360l70 -14v-28h-112l-14 -14h-14l-14 14v14zM405 1276h28v-14l-84 -98v-112q0 -53 84 -224q-238 -204 -238 -490q89 -294 280 -294h154q210 0 210 266v98q0 104 -56 294l14 14h14q98 -137 98 -294l-28 -210l14 -14v-14q-45 -173 -462 -224q-227 0 -322 350l-14 70
q0 212 252 434q-70 173 -70 294q70 146 126 168zM769 1206q38 0 70 -168q-10 -99 -140 -224h-14l-28 28l140 210v14zM531 1080h42q32 0 42 -70l-42 -56h-28l-42 42v56zM489 562h70q60 0 112 -210q0 -93 -154 -126q-126 71 -126 140q0 127 98 196zM517 478q-42 -59 -42 -112
l14 -42h56q42 14 42 84q0 37 -70 70z" />
    <glyph glyph-name="nine" unicode="9" horiz-adv-x="986" 
d="M464 1386h126q112 0 294 -294l-14 -168v-84q-86 -382 -560 -840h-28l-140 196v28q264 250 294 322v28q-26 54 -210 154q0 33 -112 168l-14 84q77 250 280 378zM184 938q0 -167 154 -210q0 -52 196 -70v-14q0 -126 -322 -448v-42l56 -56h42q490 448 490 910
q-44 322 -196 322h-84q-172 0 -322 -322zM492 1120h28q70 -36 70 -112q0 -115 -154 -154q-64 27 -70 56v28q56 182 126 182z" />
    <glyph glyph-name="colon" unicode=":" horiz-adv-x="426" 
d="M211 266q126 -26 126 -126q-37 -140 -140 -140q-140 9 -140 140q0 98 154 126zM138 171l-14 -42l42 -56h28q42 0 42 56l-14 42h-84zM68 708q68 109 161 75q119 -83 84 -179q-23 -100 -180 -84q-92 33 -65 188zM123 591l44 -35l86 26l12 33q19 51 -49 76l-57 1z" />
    <glyph glyph-name="semicolon" unicode=";" horiz-adv-x="500" 
d="M228 245q168 -14 168 -140v-14q-87 -266 -210 -266q-98 0 -98 98l42 42v42q-56 59 -56 112q0 126 154 126zM158 119l70 -98v-14q-29 -56 -70 -56v-42q0 -28 42 -28q112 53 112 140v98l-14 70h-28q-86 0 -112 -70zM263 774q144 -30 144 -144q-42 -160 -160 -160
q-160 11 -160 160q0 112 176 144zM182 686l-21 -62l63 -84h42q62 0 62 84l-21 62h-125z" />
    <glyph glyph-name="semicolon" unicode="&#x37e;" horiz-adv-x="500" 
d="M228 245q168 -14 168 -140v-14q-87 -266 -210 -266q-98 0 -98 98l42 42v42q-56 59 -56 112q0 126 154 126zM158 119l70 -98v-14q-29 -56 -70 -56v-42q0 -28 42 -28q112 53 112 140v98l-14 70h-28q-86 0 -112 -70zM263 774q144 -30 144 -144q-42 -160 -160 -160
q-160 11 -160 160q0 112 176 144zM182 686l-21 -62l63 -84h42q62 0 62 84l-21 62h-125z" />
    <glyph glyph-name="less" unicode="&#x3c;" horiz-adv-x="1135" 
d="M988 992h14l42 -42q0 -336 -84 -336q-153 -37 -336 -182v-14q0 -30 336 -182l14 -14v-210q0 -103 -42 -112h-42q-102 67 -560 238q-224 102 -224 252v28q0 149 574 420q243 154 308 154zM176 348q0 -30 672 -336h42l28 28v126q-14 112 -182 112q-147 65 -224 140v14
q237 183 434 252q28 63 28 182v14q0 28 -42 28q-728 -369 -756 -420v-140z" />
    <glyph glyph-name="equal" unicode="=" horiz-adv-x="969" 
d="M311 709l490 -28h14q56 -23 56 -98q0 -168 -294 -168l-434 -14l-42 56q0 252 98 252h112zM171 583v-14q0 -84 98 -84l448 14v-14q70 9 70 84q-14 56 -84 56h-490zM291 340l490 -28h14q56 -23 56 -98q0 -168 -294 -168l-406 29l-42 56q-28 209 70 209h112zM151 214v-14
q0 -84 98 -84h448q70 9 70 84q-14 56 -84 56h-490z" />
    <glyph glyph-name="greater" unicode="&#x3e;" horiz-adv-x="1098" 
d="M122 1043h14q739 -351 885 -505v-70q0 -175 -127 -225q-409 -211 -702 -309q-24 0 -56 140l14 127v56q13 44 337 182l14 14v29q-177 144 -379 196q-31 0 -42 337zM164 959l-14 -14v-28q0 -211 98 -211q324 -164 366 -224v-14q-65 -70 -380 -225l-14 -70v-113l43 -42
q102 0 463 253q150 0 224 225q0 103 -393 266q-187 127 -393 197z" />
    <glyph glyph-name="question" unicode="?" horiz-adv-x="932" 
d="M564 1424q294 -75 294 -294l14 -98q0 -179 -266 -476q0 -182 -112 -182h-28q-154 0 -154 112v28q0 94 252 420l28 112q0 94 -98 140q-80 0 -196 -252l-84 -28h-98l-42 28q0 490 490 490zM172 1060v-42l28 -28h42q133 252 252 252h14q117 0 154 -182v-28
q-18 -139 -266 -420l-14 -84q14 -56 84 -56q71 0 112 196q169 82 238 378v14q-42 308 -266 308q-255 0 -350 -196zM480 290q103 0 126 -182v-14q0 -121 -182 -154q-84 0 -98 112v56q37 182 154 182zM382 80q23 -70 84 -70q84 36 84 98q-27 98 -98 98q-70 -24 -70 -126z" />
    <glyph glyph-name="at" unicode="@" horiz-adv-x="1587" 
d="M883 1420h56q546 -105 546 -434l14 -126q0 -255 -350 -560l-168 -42q-378 49 -378 84q-84 117 -84 224v14q98 322 280 322h14l98 -56l84 14q64 -27 70 -56v-28l-70 -98h-14v98h-98q-74 70 -112 70q-196 -102 -196 -266v-56q0 -168 140 -168l168 28l112 -42h14
q223 0 392 392l28 140q0 318 -280 434q-181 56 -280 56q-208 0 -518 -238q-210 -222 -210 -420v-168q0 -309 378 -518q0 -25 336 -42q171 14 378 70l14 -14v-14q-262 -84 -490 -112q-295 32 -490 196q-196 291 -196 504v56q0 364 504 672q22 32 308 84zM855 1168
q244 0 378 -238l28 -140q-42 -210 -84 -210l-14 14v28l28 154v42q0 165 -224 308h-70q-158 0 -266 -112h-42v14q135 140 266 140zM505 958h14q-126 -282 -126 -336l84 -280v-28q-103 0 -140 154l14 42l-14 126v14q0 160 168 308zM757 748h14l56 -56v-42q-40 -168 -84 -168
h-28l-42 42v56q0 119 84 168zM1009 510h14l42 -42l-28 -28l-56 42zM533 286h14l56 -42v-14h-14q-56 21 -56 42v14z" />
    <glyph glyph-name="A" unicode="A" horiz-adv-x="1423" 
d="M1059 1455q47 0 84 -560l189 -879q-28 -56 -84 -56l-280 14l-133 389l-42 14l-42 -14l-98 14l-154 -336l-168 -28q-187 0 -224 70l336 1162q42 196 140 196l98 -14l84 14l112 -14zM219 153q23 -56 98 -56h98q26 0 154 350l84 28h182q140 0 133 -347q30 -70 252 -70l28 56
q-203 525 -203 1257l-14 14h-28q-434 -101 -434 -238q-168 -314 -350 -994zM737 909h42q98 -101 98 -280l-56 -42h-154l-56 56q85 266 126 266zM709 755v-84l70 -14l28 42q-19 98 -56 98z" />
    <glyph glyph-name="B" unicode="B" horiz-adv-x="1302" 
d="M244 1422h434q265 0 392 -364v-42q0 -45 -70 -140q196 -412 196 -490v-14q0 -346 -406 -392h-42l-602 28l-42 56q0 1358 140 1358zM216 708v-588l42 -42h378l154 -28q294 43 294 266l14 84q0 188 -196 336q-154 21 -154 56v14q0 31 154 70q70 88 70 196q-60 185 -224 280
l-42 14l-168 -42q-224 18 -224 42q-84 0 -84 -224zM524 1170q84 0 154 -126q0 -73 -84 -126h-112l-56 56v98q0 98 98 98zM510 1100l-14 -70v-14l28 -28h42l28 28v56l-28 28h-56zM454 652h154q182 -46 182 -182v-70q0 -178 -252 -224q-76 0 -140 84l14 84l-14 266zM468 540
l14 -210h-14q0 -56 56 -56v-14q196 17 196 140v70q0 123 -196 140q-56 -14 -56 -70z" />
    <glyph glyph-name="C" unicode="C" horiz-adv-x="1195" 
d="M737 1431q261 0 400 -202v-29q-126 -188 -224 -188h-16q-24 0 -48 58l-16 14h-176q-160 -61 -160 -376q0 -347 128 -347q0 -29 80 -29h16l160 44q208 -103 208 -145q-106 -212 -432 -217l-160 -14q-288 37 -288 145q-112 190 -112 592q0 269 304 549q0 112 336 145z
M220 817v-373q54 -314 179 -314l254 -43h75q239 52 239 100v29q-24 57 -105 57l-119 -29q-314 48 -314 301l-15 71q0 530 314 530l179 -58q68 24 105 86v43q0 57 -194 115h-30q-430 0 -538 -387z" />
    <glyph glyph-name="D" unicode="D" horiz-adv-x="1255" 
d="M470 1418q482 -146 625 -381l76 -336v-152q0 -305 -457 -503l-168 -46h-213q-214 0 -214 91l-15 122l15 641v122q19 411 76 411l77 -15zM241 1204q0 -812 -46 -1082l46 -31h137q517 0 656 351l15 183v46q0 361 -198 472q-49 60 -549 153q-61 -16 -61 -92zM516 1052
q320 0 320 -427v-91q0 -188 -320 -244h-77q-34 0 -45 76l15 594q36 92 107 92zM470 594q15 -213 61 -213l213 61l15 61v76q-79 290 -198 290l-15 15q-76 0 -76 -290z" />
    <glyph glyph-name="E" unicode="E" horiz-adv-x="1128" 
d="M535 1412l98 -14l42 14l126 -14l224 14l42 -56v-126q0 -210 -112 -210l-308 -14h-14q-84 0 -84 -84q0 -42 182 -56l28 -42v-56q0 -210 -196 -294v-42l14 -14v-14l140 14h168q140 -104 140 -196l14 -140q0 -76 -910 -112l-42 42l42 1134q33 252 84 252zM227 1216
q0 -681 -42 -1162l14 -14q189 11 308 56h98l182 14l112 -14q42 0 42 56h14l-14 14v84l14 14l-28 70l-98 -14h-28l-182 14l-84 -14q-70 19 -70 98v98q0 112 154 112l14 70q0 84 -112 84q-49 49 -56 168q0 107 168 126h266q112 0 112 224l-42 28q-728 -39 -728 -70z" />
    <glyph glyph-name="F" unicode="F" horiz-adv-x="1087" 
d="M822 1418h14q210 0 210 -168l28 -168v-42q-29 -56 -70 -56q-462 0 -462 -56v-28l14 -42h70q42 0 42 -154q-14 -182 -140 -182q-34 0 -56 -434l14 -56q-54 -42 -154 -42l-154 14l-56 -14l-28 56q28 1047 56 1190l-56 84q0 80 728 98zM612 1306l-126 14q-266 -28 -266 -84
v-28h14l-28 -1008l-14 -56q0 -56 168 -70l42 14v252q0 282 168 322l14 42q-9 56 -98 56q-70 45 -70 112q0 168 210 168l210 28l112 -14l14 14v84l14 126q-14 56 -70 56z" />
    <glyph glyph-name="G" unicode="G" horiz-adv-x="1296" 
d="M629 1458h138q397 -37 397 -306l15 -92v-15q0 -83 -76 -122h-168q-138 0 -230 153h-45q-245 -194 -245 -505q80 -260 214 -260q61 23 61 46v16q0 30 -84 58l-46 61q-10 217 161 217h458l46 -46v-76q0 -418 -413 -581l-122 -31q-642 0 -642 596v92q0 337 321 673zM169 580
q59 -374 144 -374q0 -43 187 -101q532 58 532 216q72 91 72 245q-14 57 -72 57l-201 -14l-115 29q-87 -20 -87 -87q15 -57 87 -57h43l86 14q58 -14 58 -57q-112 -173 -288 -173h-43q-230 80 -230 259v72q25 277 273 518h101q89 0 129 -129h187l43 43q-89 302 -273 302h-86
q-287 0 -360 -158q-165 -107 -187 -605z" />
    <glyph glyph-name="H" unicode="H" horiz-adv-x="1332" 
d="M245 1436l225 -16l64 16q36 0 128 -113l-64 -449q10 -80 96 -80h33l48 48q0 530 144 530l128 16q209 -26 209 -81q0 -711 -96 -1267q-62 -48 -145 -48h-192q-90 0 -112 80l16 257v80q0 40 -65 48q-64 -16 -64 -96v-257q0 -83 -48 -96h-16l-64 16l-177 -64h-48
q-144 0 -144 241l80 1187zM213 457v-288q0 -97 97 -97h96q96 0 96 97v80q0 272 64 272q229 0 289 -64l-32 -288q0 -81 273 -81l16 81v96l48 930h16q-12 96 -193 96q-128 0 -128 -529l-64 -48l-145 16l-112 -16l-32 32l48 561l-64 32q-241 -32 -241 -112z" />
    <glyph glyph-name="I" unicode="I" horiz-adv-x="1071" 
d="M305 1435l565 -31l46 16q153 -8 153 -77q-20 -320 -138 -320h-122q-61 -25 -61 -107v-76l-30 -413l45 -30l183 15q92 0 92 -244q0 -137 -259 -137l-107 -16h-260l-91 -15q-321 41 -321 122v46q0 157 46 214l183 -16h15q122 0 122 229l31 367l-76 61h-245q-65 0 -76 198
q0 183 153 183zM92 1267v-76q0 -92 91 -92h229l61 -61v-46q0 -687 -122 -687l-168 -15h-46q-61 -25 -61 -107q0 -76 92 -76h397q351 0 351 46l30 122q-10 46 -61 61l-213 -15q-38 0 -46 61q0 717 92 717h137q79 0 91 46v137l-45 61l-351 -15l-290 15q-168 -27 -168 -76z" />
    <glyph glyph-name="J" unicode="J" horiz-adv-x="1198" 
d="M415 1427l773 -29l44 -58v-103q0 -204 -131 -204q-53 0 -88 -43l15 -146v-59q-35 -338 -88 -554q0 -128 -306 -247l-58 -15q-496 49 -496 379v88q0 123 87 175h103q180 0 204 -219v-15h73q58 0 58 438v131q0 68 -219 102l-29 87v15q0 277 58 277zM503 1325h-29l-44 -44
v-73q0 -102 102 -102h29l146 15l29 -29l-58 -671q0 -89 -102 -160h-44q-143 0 -175 233l-15 14h-116l-44 -43v-175q85 -234 306 -234q347 0 394 234q44 111 44 714q0 102 145 102q78 0 88 204l-44 30l-102 -15l-117 15z" />
    <glyph glyph-name="K" unicode="K" horiz-adv-x="1205" 
d="M209 1404l126 -14l84 14q98 -41 98 -126v-210h28q175 310 210 322h196q168 0 168 -70q-294 -525 -294 -588q98 -273 280 -588v-14q0 -98 -196 -140h-112q-121 103 -224 350h-42v-56q0 -266 -98 -266l-42 -14q-280 0 -280 98l-14 112q28 96 42 1008l42 28q32 0 42 -168
l-28 -924q0 -60 196 -70q42 54 42 126v238q0 75 56 98h28q32 -13 224 -392l210 -42q56 14 56 70q-183 293 -252 546q0 98 252 532v14q-59 42 -196 42q-68 0 -308 -518h-28q-56 28 -56 84l28 378q0 61 -252 70l-28 42z" />
    <glyph glyph-name="L" unicode="L" horiz-adv-x="1128" 
d="M93 1422q371 0 371 -93l15 -93l-15 -46l15 -46l-15 -479v-78l-16 -62q22 -77 108 -77h47l278 -15l77 15q62 -23 62 -46v-263q0 -139 -247 -139h-31q-727 0 -727 93l-15 278l15 77l-15 170l31 757zM104 1312l-16 -892v-244q0 -113 243 -113h211l357 -17q33 33 49 211
l-16 49l-309 16l-195 -16q-81 23 -81 114v32l-16 292l65 568l-49 33h-194z" />
    <glyph glyph-name="M" unicode="M" horiz-adv-x="1863" 
d="M273 1435h164q313 0 313 -112q37 -17 149 -401l15 -16h15q40 15 224 465l15 16h268l209 -16l75 32l29 -32l-59 -641l15 -192l-15 -449q0 -122 -433 -144l-45 64v176l15 241h-29l-150 -289h-208q-130 0 -179 144q-30 145 -75 145l-30 -96v-145q0 -186 -89 -224h-119
q-254 32 -254 80v224l30 818v208q0 122 149 144zM169 110q0 -71 228 -82q76 0 76 507q0 245 46 245q51 -27 198 -474q45 -98 121 -98h107q103 0 228 360l122 163l15 -16h15l-15 -82v-327l-15 -229q0 -49 61 -49v-16q91 49 243 65l15 82v82l15 310l-15 98l15 442v81l16 17
q0 111 -396 130q-60 0 -137 -277l-167 -295h-31q-125 175 -228 556l-61 33l-45 -17l-168 17h-121l-16 16q-91 0 -91 -343z" />
    <glyph glyph-name="N" unicode="N" horiz-adv-x="1558" 
d="M198 1482h15l153 -46l92 31q275 -73 275 -214l198 -535l16 -15h15q42 0 61 428l-15 91q39 184 76 184l15 -16l123 16q259 0 259 -77l-61 -1268v-30l-30 -31l-92 31q-60 -31 -168 -31h-76q-109 0 -169 31l-15 -16h-15q-68 0 -245 352h-15l-30 -46v-183q0 -138 -107 -138
h-16q-336 0 -336 76l-15 77q46 1114 107 1329zM217 1264l15 -110l-31 -1013q16 -62 94 -62h31q156 0 156 140l15 421l-31 109q0 36 78 47l218 -468q161 -249 250 -249h264q47 0 47 62l109 1154l-46 31l-265 -31q0 -857 -94 -857h-47q-64 11 -374 888l-15 15h-78l-218 16
q-35 0 -78 -93z" />
    <glyph glyph-name="O" unicode="O" horiz-adv-x="1225" 
d="M624 1445q311 0 429 -275q76 -268 76 -398q0 -257 -214 -643q-318 -153 -398 -153l-107 16l-92 -31q-92 0 -214 428v16q0 541 275 887zM196 451v-62q46 -306 275 -306h153q263 0 398 536v245q-74 474 -275 474q-283 0 -414 -291q-137 -367 -137 -596zM639 879h31
q77 -44 77 -199q0 -267 -184 -321h-15q-62 64 -62 122v31q81 367 153 367zM578 512l16 -16h45l31 138l-15 77h-16q-50 0 -61 -199z" />
    <glyph glyph-name="P" unicode="P" horiz-adv-x="1195" 
d="M537 1435l118 -29l15 14h14q383 -111 383 -353q22 0 44 -176q0 -138 -133 -206q-37 -176 -352 -176q-103 0 -103 -221q0 -279 -162 -279l-132 15l-74 -44l-44 44v88q0 1191 59 1191q86 117 132 117zM229 1214l14 -147l-44 -720q0 -250 88 -250h89q58 20 58 133v294
q0 79 59 102l280 -29q147 0 205 397q-73 338 -294 338h-147l-235 15q-55 0 -73 -133zM552 1112h88q162 0 162 -118v-15q-20 -206 -191 -206q-132 0 -132 118v103q0 80 73 118zM537 920q15 -73 74 -73q65 0 132 118q-25 73 -132 73q-59 0 -59 -118h-15z" />
    <glyph glyph-name="Q" unicode="Q" horiz-adv-x="1212" 
d="M761 1428q310 -47 310 -294q46 -47 46 -202v-77q0 -115 -124 -512v-31q0 -57 62 -139v-16q-153 -170 -232 -170l-124 46l-217 -62q-298 0 -388 403v202q0 348 372 775q146 77 295 77zM188 595q0 -461 105 -461l208 -60q49 0 164 90h59l119 -90q111 55 119 90v29
q-89 106 -89 164q134 225 134 625q0 238 -268 343h-89q-298 -132 -298 -283q-74 -75 -164 -447zM699 932q62 0 124 -248q-20 -77 -47 -77l-139 15l-62 -108l15 -124l-15 -16h-78q-46 0 -77 140v15q34 403 279 403zM559 715v-31l16 -15v-16q108 47 108 155l-31 31h-15
q-78 -40 -78 -124z" />
    <glyph glyph-name="R" unicode="R" horiz-adv-x="1362" 
d="M772 1421q391 -53 391 -390q0 -146 -165 -421v-15l270 -525v-30l-30 -30l-285 15h-30q-28 0 -301 450l-15 15h-15l-45 -45q0 -450 -90 -450l-135 -15l-90 15l-105 -15l-30 30l15 180v285l15 856q28 39 270 75l120 -15zM247 1301q-25 0 -60 -1171q23 -75 150 -75h15
q105 0 105 225l15 180l-15 90l45 30h75q105 0 256 -315q108 -165 240 -165h45q30 0 30 45l-270 420v15q0 39 180 271l15 165q-72 285 -286 285l-165 15zM532 1136h30q240 -56 240 -225q-84 -150 -225 -150q-96 0 -120 135v15q0 225 75 225zM577 986v-105l45 -45
q105 0 105 105q0 90 -90 90h-15z" />
    <glyph glyph-name="S" unicode="S" horiz-adv-x="1212" 
d="M679 1425h117q213 0 294 -397v-58q0 -50 -279 -74v-15q0 -25 191 -191q73 -160 73 -220v-161q0 -162 -440 -294l-177 -15q-367 131 -367 499l88 30l191 -15l30 30l117 -162h73l30 29v59l-294 279q-70 67 -117 250q63 278 220 382q137 44 250 44zM311 999v-44
q0 -135 382 -470l15 -88q-33 -88 -147 -88q-63 0 -191 132l-176 14v-58q98 -309 250 -309h161q412 63 412 367q-35 198 -177 324q-250 127 -250 293v15l59 59h59q30 -2 118 -147q57 -29 161 -29l30 44q-74 352 -280 352h-132q-294 -107 -294 -367z" />
    <glyph glyph-name="T" unicode="T" horiz-adv-x="1214" 
d="M98 1435h121l256 -15l90 15l406 -15h106q120 0 120 -241q0 -150 -331 -150l-45 -121l15 -90q0 -828 -90 -828h-31q-263 37 -331 75l-15 45l60 904l-45 30h-210q-117 0 -151 75v15q0 301 75 301zM113 1345l-15 -76v-105q0 -45 60 -45l91 15q256 -17 256 -166l-30 -707v-75
q0 -106 210 -106l61 347v15l-16 105l16 135v316q0 82 75 121h60l135 -15q91 0 106 120q0 106 -196 106l-90 -15z" />
    <glyph glyph-name="U" unicode="U" horiz-adv-x="1235" 
d="M239 1428h202q93 -10 93 -47v-62l-31 -543v-140q0 -108 124 -108q68 0 93 652v77q0 140 125 140h46q248 0 248 -93q-47 -1242 -294 -1242q0 -20 -264 -62h-47q-155 0 -372 217q-35 44 -78 311q27 884 93 884zM177 508q0 -369 261 -369q0 -30 185 -30q327 0 369 507
l46 307l-16 184l16 154q-9 62 -123 62h-31q-92 0 -92 -93v-107q0 -692 -139 -692l-76 -15q-169 48 -169 169v231q0 303 46 491l-46 31q-200 0 -200 -108z" />
    <glyph glyph-name="V" unicode="V" horiz-adv-x="1356" 
d="M115 1438q425 -28 425 -131l66 -179q0 -278 81 -278q45 86 98 408q68 164 213 164h81q229 0 229 -82q0 -145 -245 -833q-61 -425 -131 -425l-32 32v17q0 108 310 1095v32q-16 66 -98 66h-196q-45 0 -180 -719l-65 -98q-86 0 -212 800l-49 17l-131 -17l-66 17l-49 -17
q153 -1193 278 -1193l311 -16l32 -49q-16 -49 -98 -49q-376 0 -376 163q-76 151 -228 1095q-22 0 -33 131z" />
    <glyph glyph-name="W" unicode="W" horiz-adv-x="2151" 
d="M1925 1465q179 -25 179 -81q0 -105 -114 -440q-39 -256 -179 -407q-128 -537 -244 -537h-309q-30 0 -212 212l-179 -179l-260 -33q-261 24 -261 179q-309 846 -309 1156v16l49 49h325q167 0 277 -554q45 -126 98 -146q57 195 309 195l147 17l130 -114q61 0 130 390
q22 0 81 228q129 49 342 49zM102 1270q169 -657 342 -1140l98 -49q374 0 374 114l114 131h33q27 0 179 -245h309q65 0 211 554q228 566 245 684l-17 16h-260q-179 0 -179 -342q-123 -355 -163 -391h-32q-106 212 -342 212h-82q-111 -228 -195 -228q-130 140 -260 684
l-310 65q-53 -16 -65 -65z" />
    <glyph glyph-name="X" unicode="X" horiz-adv-x="1406" 
d="M203 1421h46q412 0 412 -107q30 -70 61 -76h31q118 168 153 168l244 -16h122l46 -45v-16q-199 -340 -336 -657q74 -196 321 -580v-31q0 -61 -413 -61q-64 10 -198 214h-16q-26 0 -137 -168l-153 -31q-275 16 -275 61l275 520l31 92q-260 617 -260 687zM294 1345l-30 -62
q244 -525 244 -595l-290 -535v-15l244 -31q94 37 199 306l46 30l92 -260q61 -91 137 -91h214l46 46q-147 221 -290 519v15l259 581v15l-15 15h-244q-28 0 -199 -244h-31q-52 275 -168 275z" />
    <glyph glyph-name="Y" unicode="Y" horiz-adv-x="1336" 
d="M94 1421h269q160 0 269 -329h45q22 0 90 150l105 179h299q75 0 134 -90q0 -134 -299 -583q0 -105 -254 -404q-151 -344 -329 -344h-269l-60 60q38 139 269 583q-329 596 -329 733zM647 942q-25 2 -194 374l-284 15l-30 -45l284 -628l15 -60l-210 -448v-30l30 -30h180
q105 0 254 329q410 595 509 882l-45 30h-150l-60 15q-69 0 -269 -404h-30z" />
    <glyph glyph-name="Z" unicode="Z" horiz-adv-x="1259" 
d="M228 1415l691 -56l71 14q155 0 155 -113v-99q0 -166 -254 -480l-99 -211q311 -35 311 -71l56 -367l-84 -28l-43 14q-55 -28 -155 -28h-339q-437 16 -437 56v198q80 189 423 663v28q0 29 -395 71l-28 28q20 381 127 381zM186 1260q0 -198 98 -198q353 0 353 -113
l-437 -634l-14 -71v-56q0 -85 70 -85l71 14l508 -28h197l14 70v99l14 14q0 85 -296 85h-113l-14 14v56l423 607l15 183q0 85 -678 85l-155 14q-46 -14 -56 -56z" />
    <glyph glyph-name="bracketleft" unicode="[" horiz-adv-x="692" 
d="M280 1348q238 -53 238 -98v-168q-7 -33 -112 -70l-28 -224l28 -420l-14 -70q0 -43 182 -84l14 -70v-84q0 -70 -420 -98q-37 0 -70 70l14 112l-14 490v112l14 378l14 14h14l42 -616l-14 -42l14 -182l-14 -252l42 -28q308 17 308 70l-28 28l-84 -14q-26 0 -84 70l14 140v70
l-42 294l14 126v98q0 116 154 224l14 70q-9 70 -84 70l-238 -42l-14 14v14q66 88 140 98z" />
    <glyph glyph-name="backslash" unicode="\" horiz-adv-x="726" 
d="M261 1414h14q54 0 182 -574q168 -536 168 -756q-19 -58 -70 -84q-238 28 -238 98l-294 1204v28q0 40 238 84zM107 1232l238 -1064q58 -56 140 -56h28l42 42l-294 1092q-51 42 -98 42h-14q-35 0 -42 -56z" />
    <glyph glyph-name="bracketright" unicode="]" horiz-adv-x="655" 
d="M321 1282l168 -14l42 14l28 -42q-28 -656 -98 -1148v-112l-28 -28q-51 42 -98 42h-168q-52 0 -70 154q0 112 112 112q56 38 56 448v140l14 98q-154 102 -154 126q0 210 112 210h84zM195 1156v-42q154 -105 154 -154q0 -742 -112 -742q-84 -3 -84 -84q0 -52 196 -98
q90 0 112 742l56 406l-42 42v14q-280 -34 -280 -84z" />
    <glyph glyph-name="asciicircum" unicode="^" horiz-adv-x="718" 
d="M418 1011q96 0 224 -238v-28l-28 -28h-112q-51 0 -112 56h-28l-168 -70q-126 23 -126 56q0 96 210 252h140zM180 843v-42l56 -14l126 70l98 -70h42l28 28v42q-35 84 -112 84h-98q-78 0 -140 -98z" />
    <glyph glyph-name="underscore" unicode="_" horiz-adv-x="1258" 
d="M136 308l378 -14h616l42 -28q0 -266 -98 -266h-714q-266 23 -266 56zM206 238l-28 -42v-28q0 -98 210 -98h588q84 0 84 84v56l-42 14l-14 -14l-490 14h-168z" />
    <glyph glyph-name="grave" unicode="`" horiz-adv-x="592" 
d="M116 1382h84q173 0 294 -308q-51 -42 -98 -42h-56q-131 0 -266 308zM172 1284q23 -93 126 -168h42l28 28q-46 168 -98 168h-56z" />
    <glyph glyph-name="a" unicode="a" horiz-adv-x="1023" 
d="M567 1043l84 -28l14 14h14q252 -83 252 -280v-728l-42 -42q-51 42 -98 42l-126 -28l-112 56q-87 -56 -350 -56q-126 130 -126 252q0 147 322 336q196 23 196 84q0 84 -70 84q-27 0 -154 -154l-56 14l-84 -14l-28 42v42q0 308 140 308q0 47 224 56zM259 735q14 -46 56 -56
l140 140l70 14h42q112 -79 112 -168q0 -108 -336 -168q-196 -157 -196 -294q70 -126 168 -126h112q56 0 210 112h14q61 -112 154 -112l42 42h14l-14 168v392q-44 266 -252 266q0 24 -98 28q-238 -42 -238 -238zM553 511h28q70 -36 70 -112v-70q0 -112 -154 -140h-42l-84 84
v70q28 64 182 168z" />
    <glyph glyph-name="b" unicode="b" horiz-adv-x="1082" 
d="M188 1432h175l88 -15l74 15l29 -44l-36 -346l44 -30l117 15q199 0 337 -337l30 -132q-36 -556 -279 -556h-146l-220 58q-38 -73 -117 -73h-59q-117 0 -117 176l29 381v88l-14 131l14 147l7 478zM196 778l15 -161v-308l-15 -161q15 -48 58 -58q47 0 103 146q59 22 59 44
v15q0 393 117 454l73 14q147 -66 147 -293q0 -263 -235 -263v-15q75 -117 220 -117q220 0 220 366v147q-36 307 -205 307l-279 -44l-44 59l21 332q0 117 -102 117h-15q-88 0 -88 -147zM504 426q28 -66 58 -73h29q74 38 74 117v88l-15 74h-73q-54 0 -73 -206z" />
    <glyph glyph-name="c" unicode="c" horiz-adv-x="873" 
d="M533 1037h14q154 0 238 -154q-71 -201 -95 -201h-14l-84 42q-227 -78 -227 -205v-70q0 -159 98 -159q120 34 200 34q80 -81 112 -149v-14q0 -126 -340 -188q-177 0 -336 252l-42 252q0 221 322 518zM152 425q39 -350 242 -350h14q222 -36 286 85q-17 81 -94 116
q-62 -44 -179 -44q-148 40 -148 193q0 270 259 331h94l51 85v54q-18 54 -121 54h-67q-337 -136 -337 -524z" />
    <glyph glyph-name="d" unicode="d" horiz-adv-x="1040" 
d="M837 1506q98 0 98 -266l-14 -84v-28h14l-11 -154v-742q0 -252 -84 -252l-322 42h-14l-252 -42q-252 78 -252 420v14q132 616 350 616h28l112 -28h14l28 28l11 308q37 168 294 168zM630 946v-70q0 -75 -56 -98h-28q-98 126 -168 126h-14q-111 0 -210 -210
q-70 -142 -70 -434q0 -151 280 -196q117 0 210 98q61 -112 238 -112l14 14v14l-28 308q25 718 67 994l-42 28h-28q-154 0 -154 -168zM448 722q112 -64 112 -154v-42q0 -322 -140 -322q-126 0 -126 112v84q32 322 112 322h42zM364 498v-126l14 -70h28q37 0 56 224
q-21 56 -42 56h-14q-42 -14 -42 -84z" />
    <glyph glyph-name="e" unicode="e" horiz-adv-x="990" 
d="M655 1068q252 -137 252 -392l-36 -61q0 -68 -384 -107l-84 -14q-64 -136 210 -208q139 64 177 64t126 -173q-111 -210 -457 -187h-42q-294 91 -294 238q-33 0 -42 252q0 381 378 546zM355 634q36 206 213 211q103 -55 132 -115t-144 -116q-85 2 -201 20zM716 576
q73 22 108 94v53q0 127 -229 229q-280 0 -376 -242l-40 -121v-242q51 -255 161 -255q177 -58 309 -16q114 7 192 146q-13 55 -72 84q-84 -67 -268 -93h-27q-147 34 -147 215v27q13 88 83.5 90t305.5 31zM502 718v-26l59 -13h23l24 27v12l-35 40h-36z" />
    <glyph glyph-name="f" unicode="f" horiz-adv-x="732" 
d="M307 1363q416 15 454 -166q27 -9 60 -124q5 -132 -176 -174q-56 7 -158 120l-42 -1q-55 -21 -51 -128l5 -154l87 -81l3 -84q2 -77 -94 -129q-18 -449 -54 -451h-14q-224 -8 -227 76l10 126l-21 182q-27 782 177 959zM182 924l16 -55l-4 -294l6 -168l-22 -155l3 -98
q3 -84 73 -82q70 3 57 367l14 14q-2 49 94 116l-1 27q-87 68 -89 123l-3 112q-10 266 144 272q70 2 158 -121l42 2q56 15 53 85q-48 251 -260 244l-84 -3q-145 -5 -197 -386z" />
    <glyph glyph-name="g" unicode="g" 
d="M891 1047l28 -28l-14 -700v-98q0 -560 -504 -560q-136 0 -308 210v28q99 126 182 126q105 -70 154 -70q93 0 126 154v14h-28v14l-98 -14h-28q-336 82 -336 322q51 420 252 420q35 51 252 84q0 84 98 84h154zM149 445q0 -238 322 -238l14 -14l140 42l28 -42v-28
q-51 -294 -280 -294l-98 98h-28l-70 -70v-28q21 -47 252 -154q210 0 364 238l42 168l-14 154l14 140l-14 112l14 70l-14 126q7 196 28 196q-14 70 -70 70q-70 0 -140 -112q-365 0 -462 -308zM555 767q98 -42 98 -140v-140q0 -182 -154 -182h-14q-140 19 -140 140
q29 322 210 322zM513 655q-56 -119 -56 -210q10 -70 42 -70h42q42 14 42 84v168l-28 28h-42z" />
    <glyph glyph-name="h" unicode="h" horiz-adv-x="1148" 
d="M214 1458q294 -14 294 -70l-24 -434v-14l196 70q253 0 294 -168q51 0 70 -238l-14 -574q-29 -46 -210 -56q-126 0 -126 98v308q0 350 -98 350h-42q-140 0 -140 -210l14 -350q0 -210 -140 -210q-210 30 -210 154l38 1232q35 95 98 112zM176 674l-14 -252l14 -126l-14 -182
l14 -42q154 8 154 28l14 56v140l14 378q115 112 238 112q182 0 182 -420v-126l-14 -154q0 -60 168 -70l28 84v126l14 504q-56 196 -196 196l-56 14q-154 -28 -322 -126l-14 14v14l38 476q-14 56 -84 56h-14q-140 0 -140 -168z" />
    <glyph glyph-name="i" unicode="i" horiz-adv-x="547" 
d="M302 1512q112 0 140 -196q-79 -224 -238 -224q-84 0 -140 140q71 280 238 280zM134 1260q0 -84 98 -84q56 0 98 70v14q0 112 -98 112q-87 0 -98 -112zM246 994h56q85 0 126 -98l-14 -574v-266q0 -39 -126 -56q-182 0 -182 140v490l-14 224q65 140 154 140zM176 840v-406
l28 -154v-154l42 -42h84l-14 126q14 515 42 658q-14 56 -84 56h-14q-84 0 -84 -84z" />
    <glyph glyph-name="j" unicode="j" horiz-adv-x="614" 
d="M355 1373q168 -56 168 -210q0 -75 -154 -154q-182 47 -182 154q0 177 168 210zM299 1177q0 -79 70 -98q84 29 84 112q-19 70 -98 70q-56 -14 -56 -84zM355 911q168 -23 168 -168l-14 -280l14 -42l-14 -126v-154q0 -476 -126 -476q-18 -31 -238 -98q-271 0 -350 280v42
q83 154 224 154q22 0 84 -112l14 -14h28l42 28l-14 280v84q23 588 98 588zM271 575v-560q0 -86 -98 -154h-84l-98 70h-56l-56 -56v-14q0 -143 252 -196h14q294 0 294 252l-14 280l14 420v154l-42 42h-70q-56 0 -56 -238z" />
    <glyph glyph-name="k" unicode="k" horiz-adv-x="1054" 
d="M280 1444q107 -26 196 -140l-42 -502l14 -14h14l168 238l56 14h210l42 -42v-14q0 -42 -266 -448v-28l294 -420v-42q0 -37 -98 -56l-112 28q0 -28 -42 -28l-238 238q-32 0 -56 -196l-14 -14h-140l-112 -28q-42 52 -42 196v224l-14 336l14 196l-14 112l56 348q45 34 126 42
zM210 1276l-14 -1118q0 -70 84 -70h56l42 42v154q0 103 42 112h14q49 -31 182 -252q74 -70 196 -70l28 42v28q-160 174 -266 364l266 392v42q0 28 -42 28q-210 0 -210 -112q-124 -217 -154 -224h-28q-32 0 -42 70l42 628l-70 14h-42q-84 0 -84 -70z" />
    <glyph glyph-name="l" unicode="l" horiz-adv-x="609" 
d="M162 1430h196q110 0 135 -166l-30 -511l15 -106q-30 -179 -30 -496v-61q0 -113 -135 -120q-226 25 -226 90l15 166l-15 226l15 812q15 166 60 166zM177 1023v-30h15l-15 -165l-15 -557q0 -226 166 -226l45 45v181l15 166l-15 195v30l30 617q-15 60 -90 60h-30
q-91 0 -91 -150z" />
    <glyph glyph-name="m" unicode="m" horiz-adv-x="1876" 
d="M473 1045q57 0 57 -129l44 -29q169 129 287 129q78 0 202 -144l72 -14q226 158 287 158h58q288 -90 288 -288l28 -302v-28q-20 -418 -100 -418l-187 -14q-58 0 -101 86l29 389q-60 244 -101 244q-129 0 -129 -359q0 -331 -116 -331l-100 -15h-29q-94 0 -130 58l15 245
v187q0 244 -144 244q-173 -86 -173 -316q0 -403 -86 -403l-216 -15q-158 83 -158 173q43 383 43 806l58 57h57zM199 858v-216l-14 -489q0 -76 187 -86q72 0 72 359l43 202q-43 52 -43 100v144q0 72 -57 87q-188 0 -188 -101zM530 714l15 -14q127 86 187 86q187 0 187 -417
v-130l-15 -129l15 -43h101q100 0 100 129v58q0 489 144 489l43 14q202 0 202 -403q-10 -244 -29 -244q9 -72 86 -72h15q129 0 129 345l-14 43l14 130v43q-45 331 -201 331h-101q-112 0 -201 -144l-101 -72h-29q-111 200 -245 245q-158 0 -302 -245z" />
    <glyph glyph-name="n" unicode="n" horiz-adv-x="1202" 
d="M220 1022q252 -16 252 -112q150 74 350 98q294 -107 294 -392v-308q0 -308 -112 -308h-14q-210 14 -210 70v364l14 154q0 168 -126 168h-14q-140 0 -140 -322q0 -434 -112 -434q-168 18 -168 56q25 25 168 42l70 644q-46 7 -112 196h-56q-84 0 -84 -84l-28 -700l14 -126
l-42 -28h-14q-39 0 -56 140q37 868 98 868l14 14h14zM556 840v-14l28 -28l112 28q154 -57 154 -210v-154l14 -196l-28 -126q14 -56 84 -56h14q84 0 84 140l28 448q-84 252 -238 252q-252 -19 -252 -84z" />
    <glyph glyph-name="o" unicode="o" horiz-adv-x="990" 
d="M555 1052h105q166 0 226 -255l30 -151q0 -504 -376 -661h-105q-284 0 -361 466v30q0 219 376 556zM174 496v-58q0 -365 234 -365h58q296 0 379 554q-16 307 -248 307h-14q-281 0 -409 -438zM495 646h75q75 -29 75 -165q-54 -195 -180 -195q-105 44 -105 135
q0 121 135 225zM480 526l-15 -15v-75h15l30 30v30z" />
    <glyph glyph-name="p" unicode="p" horiz-adv-x="1118" 
d="M392 1027l126 -42q92 42 196 42q276 0 322 -406l14 -112q-93 -504 -322 -504h-126l-98 14q-28 -12 -70 -400q-42 -56 -308 -56l-42 56l28 498l-14 196l28 616q0 98 266 98zM462 831h-42v112l-70 14h-56q-84 0 -84 -140l-14 -280v-518l-14 -330l168 -28l28 42v218
q0 210 56 266v28l-56 112q0 309 182 378h28q182 -51 182 -280q-129 -252 -294 -252v-28q36 -70 112 -70h42q322 42 322 280l14 84v98q-27 434 -210 434h-84q-72 0 -210 -140zM462 523q19 -266 98 -266h14q98 47 98 196v14q0 154 -126 154q-84 0 -84 -98z" />
    <glyph glyph-name="q" unicode="q" horiz-adv-x="1212" 
d="M563 1042h56q60 0 182 -56l70 28l126 -14l56 14q84 -29 84 -112q-42 -548 -49 -1292l-56 -42h-112l-28 28v14q0 22 112 56l14 70q-7 537 21 788l-14 112l28 280l-42 28h-84q-84 0 -84 -126l-14 -14h-14q-95 168 -168 168q-334 0 -490 -588v-112q0 -149 196 -224
q364 16 364 140l56 56l28 -28l7 -340l-14 -224l14 -70l-14 -14h-56q-42 14 -42 84v84l21 270l-56 28q-181 -42 -350 -42q-164 0 -224 322q114 588 238 588q112 140 238 140zM619 664q140 -96 140 -182v-42q-34 -280 -266 -280q-98 41 -98 126q61 378 224 378zM507 398v-28
l28 -28h14q84 49 84 140l-14 42h-42q-42 0 -70 -126z" />
    <glyph glyph-name="r" unicode="r" horiz-adv-x="967" 
d="M161 1030q230 -28 266 -84h14q135 42 238 42h56q135 0 196 -98v-14q0 -80 -182 -238h-28q-59 56 -112 56q-147 0 -210 -238v-112l14 -182q-18 -182 -56 -182h-70q-196 0 -196 112l28 896zM189 890v-756q0 -84 70 -84q84 0 84 462q85 238 238 238l168 -14q112 60 112 140
q-92 42 -196 42h-56q-61 0 -210 -168h-28q-42 0 -56 182l-56 14q-64 -27 -70 -56z" />
    <glyph glyph-name="s" unicode="s" horiz-adv-x="1044" 
d="M624 1037q280 -42 280 -210v-14q-75 -103 -168 -126q-112 84 -196 84q-51 0 -84 -42q14 -56 84 -56h42l140 14q266 -177 266 -322q-48 -218 -224 -322q-158 -70 -434 -70q-152 85 -266 252l182 224q-98 217 -98 280q0 235 322 280zM244 760v-121q0 -159 336 -188
q55 -18 80 -67v-13q0 -108 -147 -135h-41q-54 0 -228 81q-54 0 -94 -67v-27q77 -118 242 -162l40 14l67 -14q311 76 390 242l13 54q0 202 -268 242q-242 0 -242 121q53 108 147 108h27q52 0 148 -81h41l80 81v27q0 75 -215 94q-376 0 -376 -189zM330 421l-14 -14v-42
q49 -84 126 -84h70q73 0 84 42v42q0 47 -266 56z" />
    <glyph glyph-name="t" unicode="t" horiz-adv-x="759" 
d="M248 1483l126 -28l70 14q28 -19 56 -308l168 -84l14 -14v-112q0 -38 -182 -56l-14 -56l-11 -439q19 -99 165 -125l12 -90q-94 -205 -149 -205q-252 0 -252 112q-90 0 -101 551l14 238q0 39 -126 84l-14 42q0 112 140 182l14 98v154q0 24 70 42zM248 1357l14 -126
q0 -91 -126 -126l-14 -14v-70q126 -44 126 -140l-14 -112l14 -224l3 -229q0 -207 126 -266q224 28 224 168q-171 0 -210 224l-3 117q0 420 98 420q56 0 56 28v14q-140 110 -140 364l-70 14h-42z" />
    <glyph glyph-name="u" unicode="u" horiz-adv-x="1129" 
d="M714 1016h224q70 0 70 -280v-42q0 -672 -70 -672l-70 -14l-252 28q-102 -56 -224 -56q-308 65 -308 308l-14 308v266q19 140 126 140h196l56 -56v-154l-28 -224v-126q0 -121 98 -182q112 0 112 154l-14 154v238q0 123 98 210zM476 176q-112 43 -112 112l14 420
q0 224 -112 224l-56 14l-70 -42l14 -168v-434q0 -212 210 -252l70 -14q117 16 252 154h28q28 0 42 -112l70 -14q84 0 84 140l14 126l-14 224l28 336q-26 70 -112 70h-14q-84 0 -84 -140q0 -630 -168 -630z" />
    <glyph glyph-name="v" unicode="v" horiz-adv-x="1145" 
d="M899 1022q224 0 224 -56q-284 -952 -406 -952l-252 -14q-112 0 -140 196q-222 368 -252 588l-56 182l28 28h322q24 0 126 -378l56 -70h42q117 462 182 462zM143 924l-28 -56l294 -756l252 -28q66 0 196 336q37 163 168 434q-9 70 -84 70h-84q-126 -23 -126 -224
q-120 -308 -168 -322h-14q-42 0 -196 504q-32 32 -210 42z" />
    <glyph glyph-name="w" unicode="w" horiz-adv-x="1671" 
d="M65 1044q388 0 388 -140q91 -291 125 -308h13q80 112 138 112l213 14q62 0 100 -154l12 -14h13q165 462 250 462l251 14l50 -84q-218 -813 -338 -938h-263q-73 0 -163 168h-25v14q-27 0 -163 -196l-201 -14q-181 0 -288 546q-75 191 -150 490zM1086 369h-24
q-40 0 -113 224q-44 40 -84 40h-96q-74 0 -168 -210h-48q-47 0 -157 493h-157l-48 13l-48 -40q184 -658 258 -784l144 14h96l176 225h36q23 -7 144 -249h193q91 0 132 242l193 498v81l-25 27q-264 -17 -261 -148q-102 -417 -143 -426z" />
    <glyph glyph-name="x" unicode="x" horiz-adv-x="1010" 
d="M93 1027q348 4 365 -108q38 -55 97 -55q145 152 222 152h152q78 0 97 -69l-263 -430l263 -444l14 -41l-55 -42l-333 14q-102 139 -167 139q-69 -117 -194 -153q-291 11 -291 55v28q277 339 277 430q-253 402 -253 455v41zM136 926l-26 -27q256 -308 256 -436
q-1 -33 -226 -306v-40l213 -54q96 155 147 187h26q111 -147 147 -147l120 14l53 -14l40 14v40q-200 292 -200 346v13q0 83 227 360v26l-200 27l-147 -173h-53q-24 0 -133 160z" />
    <glyph glyph-name="y" unicode="y" horiz-adv-x="1135" 
d="M100 1024h252q126 0 126 -252q31 -126 56 -126q40 28 154 336l84 28h112l109 -8l56 14l14 -14v-14q-58 -285 -197 -569q-52 -44 -290 -565q-131 -187 -336 -252q-252 70 -252 182q130 210 294 210l28 120l-294 826v42q14 42 84 42zM100 940v-14q126 -266 280 -890
q-51 -140 -224 -140l-70 -98v-42q0 -42 224 -56q174 99 224 266q431 842 431 938q0 56 -165 36q-79 0 -126 -238q-113 -278 -154 -308q-89 71 -168 546h-126l-84 14z" />
    <glyph glyph-name="z" unicode="z" horiz-adv-x="1084" 
d="M557 1040q434 0 434 -98v-14q0 -122 -364 -546v-42l42 -14l98 28q252 0 252 -126v-112q0 -94 -196 -126q-728 0 -728 70v28q0 231 336 546v14q0 35 -56 42l-182 -28q-49 0 -112 84q0 294 154 294h322zM151 774l28 -28l140 14h224l42 -42v-14q-264 -338 -392 -434
l-14 -140l14 -42l378 -14h280q98 0 98 98q0 70 -56 84l-70 -28l-266 14h-28l-42 42v28q171 255 420 546v56l-42 42h-238l-336 -14l-70 14q-60 0 -70 -182z" />
    <glyph glyph-name="braceleft" unicode="{" horiz-adv-x="809" 
d="M606 1354h42l70 -70v-56q0 -88 -140 -140l-56 -294l-56 -168q42 -118 84 -406q112 -68 112 -112q-14 -154 -56 -154h-42q-108 0 -140 70v14l42 -14q126 23 126 56v28q-154 89 -154 420l-84 98v28q140 66 140 378l154 168v28l-14 70h-42q-182 -108 -182 -280l-14 -14h-28
v112q0 132 238 238zM354 948h28q-31 -140 -70 -140l-14 14v28zM130 668h14q183 -172 224 -420l28 -196h-14q-77 33 -168 490l-112 84v14z" />
    <glyph glyph-name="bar" unicode="|" horiz-adv-x="523" 
d="M194 1369q224 -14 224 -70v-14l14 -154l-14 -224l-15 -698l14 -84q0 -70 -182 -126q-44 0 -112 56l-14 378l15 866zM180 1187l28 -224l-15 -418l-14 -168q0 -294 70 -294q56 14 56 70l29 740l-14 126q28 62 28 196q-14 56 -70 56q-98 -8 -98 -84z" />
    <glyph glyph-name="braceright" unicode="}" horiz-adv-x="811" 
d="M186 1391q266 -91 266 -392q0 -184 210 -252q42 0 42 -56l-168 -196l-14 -56v-42l14 -126q-120 -294 -308 -294h-42q-46 0 -56 182q140 53 140 280l56 210q-70 201 -98 448q-154 71 -154 154v28q0 112 112 112zM158 1321l-14 -70v-28q154 -136 154 -210l-14 -42
q53 -266 140 -266l14 -14v-42q-112 -87 -112 -364q-33 -79 -126 -154v-28q14 -42 84 -42h56q64 0 126 224l-28 126l154 266q-224 243 -224 462q0 84 -154 182h-56z" />
    <glyph glyph-name="asciitilde" unicode="~" horiz-adv-x="1215" 
d="M909 924q210 0 210 -84q-132 -294 -406 -294l-294 98l-154 -70q-168 11 -168 42v14l56 56q51 -42 98 -42q95 70 140 70h28l266 -112h112q210 91 210 224l-42 42q-36 0 -196 -154h-28l-266 126h-112l-140 -56v14q88 112 168 112q60 0 350 -126q80 0 154 140h14z" />
    <glyph glyph-name="exclamdown" unicode="&#xa1;" horiz-adv-x="498" 
d="M323 -397q-224 14 -224 70v14l-14 154l14 224v378l-14 84q0 70 182 126q44 0 112 -56l14 -378v-546zM337 -215l-28 224v98l14 168q0 294 -70 294q-56 -14 -56 -70l-14 -420l14 -126q-28 -62 -28 -196q14 -56 70 -56q98 8 98 84zM267 723q-182 62 -182 168q60 140 154 140
h14q107 0 154 -126q-70 -182 -140 -182zM295 877v70h-70q-42 -14 -42 -84l42 -28h28z" />
    <glyph glyph-name="cent" unicode="&#xa2;" horiz-adv-x="1001" 
d="M761 1238l70 -14h98l28 -28l-98 -238l14 -112q0 -52 -210 -224l-140 -280v-28h28q61 0 182 84h28q98 -68 98 -154v-28q0 -94 -336 -210l-42 -14l-98 28q-25 0 -126 -126l-14 -14h-14q-154 35 -154 56v14q75 128 98 224q-69 165 -70 322q0 219 308 504l252 84q0 51 98 154
zM803 1182q-98 -173 -140 -196h-126q-350 -142 -350 -546l42 -238v-14l-70 -196l42 -28h28l98 126l168 -14q322 59 322 196q0 48 -98 70l-126 -112l-98 -14q-64 27 -70 56q207 504 350 504q42 0 42 56l-14 126l56 210zM495 790h14l28 -28q-62 -192 -196 -322l-28 28
q0 160 182 322z" />
    <glyph glyph-name="sterling" unicode="&#xa3;" horiz-adv-x="1224" 
d="M744 1446h70q134 0 224 -224q0 -36 -182 -196h-28q-67 63 -140 84q-126 0 -154 -252v-14q0 -70 126 -84l28 -140l-140 -168v-28q150 -58 196 -140l14 -42h-14q-129 73 -294 98v28q58 224 168 224v84q0 21 -126 70l-28 98v14q38 308 266 308q84 -56 126 -56q69 0 140 126
q0 79 -182 154q-433 0 -518 -420v-210q0 -66 -112 -140v-42l14 -14q0 -31 98 -70v-28q0 -107 -140 -322q0 -84 84 -84l98 28h56v-28l-182 -56q-112 53 -112 140l126 280v28q-98 60 -98 126q0 84 84 140l14 14v14l-14 168q164 448 308 448q146 84 224 84zM1024 298
q93 -38 112 -84v-42q-84 -182 -336 -182h-14q-182 42 -182 84l14 14h14q152 -56 252 -56q77 0 196 126v42q-14 42 -84 42h-28q-51 -42 -98 -42h-28l-28 28v14z" />
    <glyph glyph-name="currency" unicode="&#xa4;" 
 />
    <glyph glyph-name="yen" unicode="&#xa5;" horiz-adv-x="1052" 
d="M101 1414q336 -21 336 -182l84 -112h42q81 60 196 238h224l56 -56q-110 -278 -252 -434h-14l140 280l42 112l-14 42h-14q-203 0 -280 -210l-112 -98h-14q-76 84 -168 322l-84 28h-126l-28 -28v-14q0 -91 280 -560v-14q0 -28 -112 -28q-42 -36 -42 -84q0 -56 56 -56v-14
l14 14h42l56 -56l-42 -42l-70 42l-70 -14l-42 56v154q0 32 126 70v42q-280 436 -280 546q6 29 70 56zM717 770h42l28 -28l-14 -14h-56v42zM885 728l28 -42q0 -73 -42 -84l-28 28v56zM717 574h28l28 -28l-70 -28v-56l42 -56l-14 -14h-70l-42 42v42q0 98 98 98zM857 406
l28 -28v-42q0 -126 -182 -126q-28 -210 -140 -210h-168q-57 0 -84 182q-140 0 -140 112v42l28 28h14l28 -28l-14 -56l42 -42v-14l14 14h84q42 0 42 -140l42 -28h56q84 0 84 140q54 56 140 56q56 24 56 126l14 14h56z" />
    <glyph glyph-name="brokenbar" unicode="&#xa6;" horiz-adv-x="523" 
d="M214 1445.66q224 -6.02051 224 -30.0996v-6.01953l14 -66.2197l-14 -96.3184l-15 -300.135l14 -36.1191q0 -30.0996 -182 -54.1787q-44 0 -112 24.0791l-14 162.537l15 372.374zM200 1367.4l28 -96.3184l-15 -179.737l-14 -72.2383q0 -126.418 70 -126.418
q56 6.01953 56 30.0996l29 318.194l-14 54.1787q28 26.6602 28 84.2793q-14 24.0791 -70 24.0791q-98 -3.43945 -98 -36.1191zM185 219.66q224 -6.02051 224 -30.0996v-6.01953l14 -66.2197l-14 -96.3184l-15 -300.135l14 -36.1191q0 -30.0996 -182 -54.1787
q-44 0 -112 24.0791l-14 162.537l15 372.374zM171 141.401l28 -96.3184l-15 -179.737l-14 -72.2383q0 -126.418 70 -126.418q56 6.01953 56 30.0996l29 318.194l-14 54.1787q28 26.6602 28 84.2793q-14 24.0791 -70 24.0791q-98 -3.43945 -98 -36.1191z" />
    <glyph glyph-name="section" unicode="&#xa7;" 
 />
    <glyph glyph-name="dieresis" unicode="&#xa8;" horiz-adv-x="712" 
d="M172 1336q63 -23 98 -84v-42q0 -85 -98 -126q-84 0 -98 168q33 84 98 84zM550 1322q98 -41 98 -126q-41 -98 -126 -98q-98 0 -98 98q18 126 126 126zM116 1210q14 -46 56 -56l42 42h14l-42 56h-28zM494 1238q-40 -101 70 -70q35 93 -70 70z" />
    <glyph glyph-name="copyright" unicode="&#xa9;" horiz-adv-x="1921" 
d="M917 1488q327 -56 532 -154v-28h-14q-182 112 -588 112h-42l-210 -56h-14v14q0 59 336 112zM1155 1306q42 -62 42 -126h-14l-154 70q-518 -168 -518 -294q-126 -183 -126 -434l28 -168q-42 0 -70 196q108 588 266 588q57 87 546 168zM483 1292h14l-126 -140v14
q0 34 112 126zM1575 1236h14l98 -98v-14zM1323 1110h14l140 -112v-14h-14zM973 1068q252 -49 252 -182v-14l-126 -112h-14l-140 56q-126 -44 -126 -140q0 -98 98 -98h42l112 28q112 -48 112 -70v-28q-83 -112 -168 -140l-56 14l-98 -14q-168 42 -168 70l140 -14h140
q107 0 126 56v42l-28 28h-14l-154 -28q-77 0 -126 84v56q78 224 168 224l154 -56q62 0 84 84q0 112 -252 112q-69 0 -224 -154v14q0 98 266 182zM1771 998q42 0 84 -238q-75 -336 -126 -336v28q70 130 70 210v182zM217 928h28q-84 -232 -84 -420l28 -182h-28l-42 168v14
q0 151 98 420zM1533 872h28l42 -210q0 -90 -112 -224h-28q84 84 84 182v154zM637 788h28v-14l-28 -126v-98q0 -47 42 -98h-14q-84 62 -84 154zM1715 410v-14q-130 -258 -490 -378q-323 -84 -406 -84q-434 79 -434 154h14q189 -98 364 -98h140q387 0 812 420zM1323 354v-14
q0 -39 -126 -70v14q56 70 126 70zM1155 256v-14q0 -31 -154 -70l-14 -14h-98q-207 0 -322 56v28l476 -28zM231 242l140 -140h-14q-85 45 -126 126v14z" />
    <glyph glyph-name="ordfeminine" unicode="&#xaa;" horiz-adv-x="648" 
 />
    <glyph glyph-name="guillemotleft" unicode="&#xab;" horiz-adv-x="1215" 
d="M520 1066q42 0 42 -56q0 -406 -112 -406l-70 -140q0 -30 182 -196q42 -67 42 -210v-56q0 -42 -56 -42q-177 85 -364 322v28h28q197 -189 266 -224q42 60 42 112l-252 252v14q238 163 238 406l-14 42h-28q-247 -239 -308 -448l-14 -14h-28v70q0 83 406 546zM1094 1052
l28 -42l-28 -238v-14l-28 -28l-28 28v126l-42 42q-266 -281 -266 -420l-14 -84q68 -143 294 -308l28 42v126q0 70 -168 196v84l112 112h42q0 -55 -84 -140v-56q11 -38 154 -112l28 -112v-168q0 -75 -56 -98q-64 0 -406 406q0 305 126 378q191 280 308 280z" />
    <glyph glyph-name="logicalnot" unicode="&#xac;" 
 />
    <glyph glyph-name="registered" unicode="&#xae;" horiz-adv-x="1674" 
 />
    <glyph glyph-name="macron" unicode="&#xaf;" horiz-adv-x="670" 
 />
    <glyph glyph-name="degree" unicode="&#xb0;" horiz-adv-x="509" 
d="M279 1443q110 0 140 -182q0 -238 -210 -238q-126 0 -126 168v14q53 238 196 238zM181 1289h14l84 42l42 -56q-30 -154 -84 -154l-70 28l-14 -14q21 -56 42 -56h70q126 0 126 196q-48 98 -70 98h-56q-84 0 -84 -84z" />
    <glyph glyph-name="plusminus" unicode="&#xb1;" 
 />
    <glyph glyph-name="uni00B2" unicode="&#xb2;" 
 />
    <glyph glyph-name="uni00B3" unicode="&#xb3;" 
 />
    <glyph glyph-name="acute" unicode="&#xb4;" horiz-adv-x="649" 
d="M343 1360q182 -10 182 -56q0 -35 -224 -252q-238 9 -238 56q189 252 280 252zM189 1164v-28l70 -14q56 0 140 112v28l-28 28h-14q-75 0 -168 -126z" />
    <glyph glyph-name="mu" unicode="&#xb5;" horiz-adv-x="1072" 
d="M170 1232h182l56 -56l-28 -406h-28l-14 70v70l14 154q-19 70 -98 70q-84 0 -84 -84l42 -98q-56 -79 -56 -840q51 -42 98 -42l42 56v14q24 392 56 392l210 -14l154 28q62 -112 84 -112h42q70 0 70 420v42q0 266 -70 266t-70 -336q-63 -210 -210 -210h-42q-76 0 -112 56v28
l140 -56h56q92 0 126 266v224q0 79 70 98q154 -21 154 -70l14 -490q-15 -294 -98 -294q-145 0 -210 98q-294 -22 -294 -70v-238q0 -146 -182 -168q-98 11 -98 98l28 952v126z" />
    <glyph glyph-name="paragraph" unicode="&#xb6;" horiz-adv-x="1061" 
d="M786 1344q168 0 168 -126l14 -238v-406q0 -574 -84 -574h-28q-116 0 -182 266v14l42 126l28 658l-14 42h-70l-14 -56l-14 -616l14 -182l-14 -196l-56 -28q-168 0 -168 210l-14 126l14 266q0 46 -168 84q-154 98 -154 294q0 178 224 280zM128 980q0 -213 294 -238
q39 0 56 -140v-196l-14 -126l28 -84l-14 -42l14 -42h56l42 406l-14 182v280q32 224 98 224h28q112 0 112 -140v-308l-28 -154l14 -70l-14 -154v-238l42 -42h14q51 26 70 84l-14 56l14 238l-28 224l14 546l-14 42h-28q-714 0 -714 -252z" />
    <glyph glyph-name="periodcentered" unicode="&#xb7;" horiz-adv-x="429" 
d="M222.244 830.644q107.097 -22.0986 107.097 -107.097q-31.4492 -118.996 -118.996 -118.996q-118.997 7.64941 -118.997 118.996q0 83.2979 130.896 107.097zM162.746 759.246l-11.9004 -35.6992l35.6992 -47.5986h23.7998q35.6982 0 35.6982 47.5986l-11.8994 35.6992
h-71.3975z" />
    <glyph glyph-name="periodcentered" unicode="&#x2219;" horiz-adv-x="429" 
d="M222.244 830.644q107.097 -22.0986 107.097 -107.097q-31.4492 -118.996 -118.996 -118.996q-118.997 7.64941 -118.997 118.996q0 83.2979 130.896 107.097zM162.746 759.246l-11.9004 -35.6992l35.6992 -47.5986h23.7998q35.6982 0 35.6982 47.5986l-11.8994 35.6992
h-71.3975z" />
    <glyph glyph-name="cedilla" unicode="&#xb8;" horiz-adv-x="518" 
d="M245 -27h41q132 -159 132 -204v-52q-38 -153 -163 -153q-174 21 -174 133v31q0 41 92 41l20 30v92q0 56 52 82zM244 -169l77 -86q-13 -76 -68 -76l-68 25h-9v-25q30 -51 77 -51h17q87 0 102 136l-85 111v8h-9q-17 -3 -34 -42zM204 -231v-21l30 -31l21 21v10l-21 21h-30z
" />
    <glyph glyph-name="uni00B9" unicode="&#xb9;" 
 />
    <glyph glyph-name="ordmasculine" unicode="&#xba;" horiz-adv-x="718" 
 />
    <glyph glyph-name="guillemotright" unicode="&#xbb;" horiz-adv-x="1206" 
d="M699 1099h42l308 -322v-42h-14l-308 238h-28l-14 -70q0 -93 224 -350v-28q0 -37 -196 -266l-14 -140l14 -42h28q322 301 322 336v14l-28 112v42l42 42q42 0 42 -154q0 -151 -378 -476l-56 -28q-35 0 -42 56q0 275 98 378q98 88 98 154l-210 210l-14 42q25 294 84 294z
M181 1085q33 0 154 -168q224 -245 224 -308q-11 -154 -42 -154l-28 28v168q-236 266 -266 266l-28 -42v-140q0 -70 112 -154l28 -56l-182 -238v-98l28 -126h42q24 0 168 224l98 56l14 -14v-14q-262 -322 -364 -322q-42 54 -42 126v154q0 73 154 196v70l-140 154l14 140v210
q0 21 56 42z" />
    <glyph glyph-name="onequarter" unicode="&#xbc;" horiz-adv-x="1708" 
 />
    <glyph glyph-name="onehalf" unicode="&#xbd;" horiz-adv-x="1964" 
 />
    <glyph glyph-name="threequarters" unicode="&#xbe;" horiz-adv-x="1708" 
 />
    <glyph glyph-name="questiondown" unicode="&#xbf;" horiz-adv-x="978" 
d="M382 -433q-294 75 -294 294l-14 98q0 179 266 476q0 182 112 182h28q154 0 154 -112v-28q0 -94 -252 -420l-28 -112q0 -94 98 -140q80 0 196 252l84 28h98l42 -28q0 -490 -490 -490zM774 -69v42l-28 28h-42q-133 -252 -252 -252h-14q-117 0 -154 182v28q18 139 266 420
l14 84q-14 56 -84 56q-71 0 -112 -196q-169 -82 -238 -378v-14q42 -308 266 -308q255 0 350 196zM466 701q-103 0 -126 182v14q0 121 182 154q84 0 98 -112v-56q-37 -182 -154 -182zM564 911q-23 70 -84 70q-84 -36 -84 -98q27 -98 98 -98q70 24 70 126z" />
    <glyph glyph-name="Agrave" unicode="&#xc0;" horiz-adv-x="1423" 
d="M1059 1455q47 0 84 -560l189 -879q-28 -56 -84 -56l-280 14l-133 389l-42 14l-42 -14l-98 14l-154 -336l-168 -28q-187 0 -224 70l336 1162q42 196 140 196l98 -14l84 14l112 -14zM219 153q23 -56 98 -56h98q26 0 154 350l84 28h182q140 0 133 -347q30 -70 252 -70l28 56
q-203 525 -203 1257l-14 14h-28q-434 -101 -434 -238q-168 -314 -350 -994zM737 909h42q98 -101 98 -280l-56 -42h-154l-56 56q85 266 126 266zM709 755v-84l70 -14l28 42q-19 98 -56 98zM542 1802h84q173 0 294 -308q-51 -42 -98 -42h-56q-131 0 -266 308zM598 1704
q23 -93 126 -168h42l28 28q-46 168 -98 168h-56z" />
    <glyph glyph-name="Aacute" unicode="&#xc1;" horiz-adv-x="1423" 
d="M1059 1455q47 0 84 -560l189 -879q-28 -56 -84 -56l-280 14l-133 389l-42 14l-42 -14l-98 14l-154 -336l-168 -28q-187 0 -224 70l336 1162q42 196 140 196l98 -14l84 14l112 -14zM219 153q23 -56 98 -56h98q26 0 154 350l84 28h182q140 0 133 -347q30 -70 252 -70l28 56
q-203 525 -203 1257l-14 14h-28q-434 -101 -434 -238q-168 -314 -350 -994zM737 909h42q98 -101 98 -280l-56 -42h-154l-56 56q85 266 126 266zM709 755v-84l70 -14l28 42q-19 98 -56 98zM909 1765q182 -10 182 -56q0 -35 -224 -252q-238 9 -238 56q189 252 280 252z
M755 1569v-28l70 -14q56 0 140 112v28l-28 28h-14q-75 0 -168 -126z" />
    <glyph glyph-name="Acircumflex" unicode="&#xc2;" horiz-adv-x="1423" 
d="M1059 1455q47 0 84 -560l189 -879q-28 -56 -84 -56l-280 14l-133 389l-42 14l-42 -14l-98 14l-154 -336l-168 -28q-187 0 -224 70l336 1162q42 196 140 196l98 -14l84 14l112 -14zM219 153q23 -56 98 -56h98q26 0 154 350l84 28h182q140 0 133 -347q30 -70 252 -70l28 56
q-203 525 -203 1257l-14 14h-28q-434 -101 -434 -238q-168 -314 -350 -994zM737 909h42q98 -101 98 -280l-56 -42h-154l-56 56q85 266 126 266zM709 755v-84l70 -14l28 42q-19 98 -56 98zM885 1790q96 0 224 -238v-28l-28 -28h-112q-51 0 -112 56h-28l-168 -70
q-126 23 -126 56q0 96 210 252h140zM647 1622v-42l56 -14l126 70l98 -70h42l28 28v42q-35 84 -112 84h-98q-78 0 -140 -98z" />
    <glyph glyph-name="Atilde" unicode="&#xc3;" horiz-adv-x="1423" 
d="M1059 1455q47 0 84 -560l189 -879q-28 -56 -84 -56l-280 14l-133 389l-42 14l-42 -14l-98 14l-154 -336l-168 -28q-187 0 -224 70l336 1162q42 196 140 196l98 -14l84 14l112 -14zM219 153q23 -56 98 -56h98q26 0 154 350l84 28h182q140 0 133 -347q30 -70 252 -70l28 56
q-203 525 -203 1257l-14 14h-28q-434 -101 -434 -238q-168 -314 -350 -994zM737 909h42q98 -101 98 -280l-56 -42h-154l-56 56q85 266 126 266zM709 755v-84l70 -14l28 42q-19 98 -56 98zM1052 1793q171 0 171 -68q-107 -240 -331 -240l-240 80l-125 -57q-137 8 -137 34v11
l46 46q51 -5 90 -5q77 57 114 57h22l207 -120h92q171 74 154 152l-35 34q-29 0 -142 -95h-23l-217 103h-91l-114 -46v11q72 92 137 92q48 0 285 -103q65 0 125 114h12z" />
    <glyph glyph-name="Adieresis" unicode="&#xc4;" horiz-adv-x="1423" 
d="M1059 1455q47 0 84 -560l189 -879q-28 -56 -84 -56l-280 14l-133 389l-42 14l-42 -14l-98 14l-154 -336l-168 -28q-187 0 -224 70l336 1162q42 196 140 196l98 -14l84 14l112 -14zM219 153q23 -56 98 -56h98q26 0 154 350l84 28h182q140 0 133 -347q30 -70 252 -70l28 56
q-203 525 -203 1257l-14 14h-28q-434 -101 -434 -238q-168 -314 -350 -994zM737 909h42q98 -101 98 -280l-56 -42h-154l-56 56q85 266 126 266zM709 755v-84l70 -14l28 42q-19 98 -56 98zM641 1778q63 -23 98 -84v-42q0 -85 -98 -126q-84 0 -98 168q33 84 98 84zM1019 1764
q98 -41 98 -126q-41 -98 -126 -98q-98 0 -98 98q18 126 126 126zM585 1652q14 -46 56 -56l42 42h14l-42 56h-28zM963 1680q-40 -101 70 -70q35 93 -70 70z" />
    <glyph glyph-name="Aring" unicode="&#xc5;" horiz-adv-x="1423" 
d="M1059 1455q47 0 84 -560l189 -879q-28 -56 -84 -56l-280 14l-133 389l-42 14l-42 -14l-98 14l-154 -336l-168 -28q-187 0 -224 70l336 1162q42 196 140 196l98 -14l84 14l112 -14zM219 153q23 -56 98 -56h98q26 0 154 350l84 28h182q140 0 133 -347q30 -70 252 -70l28 56
q-203 525 -203 1257l-14 14h-28q-434 -101 -434 -238q-168 -314 -350 -994zM737 909h42q98 -101 98 -280l-56 -42h-154l-56 56q85 266 126 266zM709 755v-84l70 -14l28 42q-19 98 -56 98zM830 1805q110 0 140 -155q0 -203 -210 -203q-126 0 -126 143v12q53 203 196 203z
M732 1674h14l84 36l42 -48q-30 -131 -84 -131l-70 23l-14 -12q21 -47 42 -47h70q126 0 126 167q-48 83 -70 83h-56q-84 0 -84 -71z" />
    <glyph glyph-name="AE" unicode="&#xc6;" horiz-adv-x="1917" 
d="M1186 1429h14l126 -14l42 14l126 -14l224 14l42 -56v-126q0 -210 -112 -210l-308 -14h-14q-84 0 -84 -84q0 -42 182 -56l28 -42v-56q0 -210 -196 -294v-42l14 -14v-14l140 14h168q140 -104 140 -196l14 -140q0 -63 -770 -112q-113 0 -126 336l-42 14l-42 -14l-98 14
l-154 -336l-168 -28q-187 0 -224 70l336 1162q42 196 140 196l98 -14l98 14l112 -14q83 42 294 42zM962 1303l-42 14q-350 -70 -350 -224q-168 -290 -350 -980q23 -56 98 -56h98q26 0 154 350l84 28h196l56 -56q0 -308 56 -308h98l140 42h98l182 14l112 -14q42 0 42 56h14
l-14 14v84l14 14l-28 70l-98 -14h-28l-182 14l-84 -14q-70 19 -70 98v98q0 112 154 112l14 70q0 84 -112 84q-49 49 -56 168q0 107 168 126h266q112 0 112 224l-42 28zM920 1177l14 -14v-168l-28 -28l-14 14v168zM738 869h42q98 -101 98 -280l-56 -42h-154l-56 56
q85 266 126 266zM710 715v-84l70 -14l28 42q-19 98 -56 98z" />
    <glyph glyph-name="Ccedilla" unicode="&#xc7;" horiz-adv-x="1195" 
d="M737 1431q261 0 400 -202v-29q-126 -188 -224 -188h-16q-24 0 -48 58l-16 14h-176q-160 -61 -160 -376q0 -347 128 -347q0 -29 80 -29h16l160 44q208 -103 208 -145q-106 -212 -432 -217l-160 -14q-288 37 -288 145q-112 190 -112 592q0 269 304 549q0 112 336 145z
M220 817v-373q54 -314 179 -314l254 -43h75q239 52 239 100v29q-24 57 -105 57l-119 -29q-314 48 -314 301l-15 71q0 530 314 530l179 -58q68 24 105 86v43q0 57 -194 115h-30q-430 0 -538 -387zM613 -27h41q132 -159 132 -204v-52q-38 -153 -163 -153q-174 21 -174 133v31
q0 41 92 41l20 30v92q0 56 52 82zM612 -169l77 -86q-13 -76 -68 -76l-68 25h-9v-25q30 -51 77 -51h17q87 0 102 136l-85 111v8h-9q-17 -3 -34 -42zM572 -231v-21l30 -31l21 21v10l-21 21h-30z" />
    <glyph glyph-name="Egrave" unicode="&#xc8;" horiz-adv-x="1128" 
d="M535 1412l98 -14l42 14l126 -14l224 14l42 -56v-126q0 -210 -112 -210l-308 -14h-14q-84 0 -84 -84q0 -42 182 -56l28 -42v-56q0 -210 -196 -294v-42l14 -14v-14l140 14h168q140 -104 140 -196l14 -140q0 -76 -910 -112l-42 42l42 1134q33 252 84 252zM227 1216
q0 -681 -42 -1162l14 -14q189 11 308 56h98l182 14l112 -14q42 0 42 56h14l-14 14v84l14 14l-28 70l-98 -14h-28l-182 14l-84 -14q-70 19 -70 98v98q0 112 154 112l14 70q0 84 -112 84q-49 49 -56 168q0 107 168 126h266q112 0 112 224l-42 28q-728 -39 -728 -70zM339 1787
h84q173 0 294 -308q-51 -42 -98 -42h-56q-131 0 -266 308zM395 1689q23 -93 126 -168h42l28 28q-46 168 -98 168h-56z" />
    <glyph glyph-name="Eacute" unicode="&#xc9;" horiz-adv-x="1128" 
d="M535 1412l98 -14l42 14l126 -14l224 14l42 -56v-126q0 -210 -112 -210l-308 -14h-14q-84 0 -84 -84q0 -42 182 -56l28 -42v-56q0 -210 -196 -294v-42l14 -14v-14l140 14h168q140 -104 140 -196l14 -140q0 -76 -910 -112l-42 42l42 1134q33 252 84 252zM227 1216
q0 -681 -42 -1162l14 -14q189 11 308 56h98l182 14l112 -14q42 0 42 56h14l-14 14v84l14 14l-28 70l-98 -14h-28l-182 14l-84 -14q-70 19 -70 98v98q0 112 154 112l14 70q0 84 -112 84q-49 49 -56 168q0 107 168 126h266q112 0 112 224l-42 28q-728 -39 -728 -70zM703 1765
q182 -10 182 -56q0 -35 -224 -252q-238 9 -238 56q189 252 280 252zM549 1569v-28l70 -14q56 0 140 112v28l-28 28h-14q-75 0 -168 -126z" />
    <glyph glyph-name="Ecircumflex" unicode="&#xca;" horiz-adv-x="1128" 
d="M535 1412l98 -14l42 14l126 -14l224 14l42 -56v-126q0 -210 -112 -210l-308 -14h-14q-84 0 -84 -84q0 -42 182 -56l28 -42v-56q0 -210 -196 -294v-42l14 -14v-14l140 14h168q140 -104 140 -196l14 -140q0 -76 -910 -112l-42 42l42 1134q33 252 84 252zM227 1216
q0 -681 -42 -1162l14 -14q189 11 308 56h98l182 14l112 -14q42 0 42 56h14l-14 14v84l14 14l-28 70l-98 -14h-28l-182 14l-84 -14q-70 19 -70 98v98q0 112 154 112l14 70q0 84 -112 84q-49 49 -56 168q0 107 168 126h266q112 0 112 224l-42 28q-728 -39 -728 -70zM640 1773
q96 0 224 -238v-28l-28 -28h-112q-51 0 -112 56h-28l-168 -70q-126 23 -126 56q0 96 210 252h140zM402 1605v-42l56 -14l126 70l98 -70h42l28 28v42q-35 84 -112 84h-98q-78 0 -140 -98z" />
    <glyph glyph-name="Edieresis" unicode="&#xcb;" horiz-adv-x="1128" 
d="M535 1412l98 -14l42 14l126 -14l224 14l42 -56v-126q0 -210 -112 -210l-308 -14h-14q-84 0 -84 -84q0 -42 182 -56l28 -42v-56q0 -210 -196 -294v-42l14 -14v-14l140 14h168q140 -104 140 -196l14 -140q0 -76 -910 -112l-42 42l42 1134q33 252 84 252zM227 1216
q0 -681 -42 -1162l14 -14q189 11 308 56h98l182 14l112 -14q42 0 42 56h14l-14 14v84l14 14l-28 70l-98 -14h-28l-182 14l-84 -14q-70 19 -70 98v98q0 112 154 112l14 70q0 84 -112 84q-49 49 -56 168q0 107 168 126h266q112 0 112 224l-42 28q-728 -39 -728 -70zM388 1741
q63 -23 98 -84v-42q0 -85 -98 -126q-84 0 -98 168q33 84 98 84zM766 1727q98 -41 98 -126q-41 -98 -126 -98q-98 0 -98 98q18 126 126 126zM332 1615q14 -46 56 -56l42 42h14l-42 56h-28zM710 1643q-40 -101 70 -70q35 93 -70 70z" />
    <glyph glyph-name="Igrave" unicode="&#xcc;" horiz-adv-x="1071" 
d="M305 1435l565 -31l46 16q153 -8 153 -77q-20 -320 -138 -320h-122q-61 -25 -61 -107v-76l-30 -413l45 -30l183 15q92 0 92 -244q0 -137 -259 -137l-107 -16h-260l-91 -15q-321 41 -321 122v46q0 157 46 214l183 -16h15q122 0 122 229l31 367l-76 61h-245q-65 0 -76 198
q0 183 153 183zM92 1267v-76q0 -92 91 -92h229l61 -61v-46q0 -687 -122 -687l-168 -15h-46q-61 -25 -61 -107q0 -76 92 -76h397q351 0 351 46l30 122q-10 46 -61 61l-213 -15q-38 0 -46 61q0 717 92 717h137q79 0 91 46v137l-45 61l-351 -15l-290 15q-168 -27 -168 -76z
M296 1787h84q173 0 294 -308q-51 -42 -98 -42h-56q-131 0 -266 308zM352 1689q23 -93 126 -168h42l28 28q-46 168 -98 168h-56z" />
    <glyph glyph-name="Iacute" unicode="&#xcd;" horiz-adv-x="1071" 
d="M305 1435l565 -31l46 16q153 -8 153 -77q-20 -320 -138 -320h-122q-61 -25 -61 -107v-76l-30 -413l45 -30l183 15q92 0 92 -244q0 -137 -259 -137l-107 -16h-260l-91 -15q-321 41 -321 122v46q0 157 46 214l183 -16h15q122 0 122 229l31 367l-76 61h-245q-65 0 -76 198
q0 183 153 183zM92 1267v-76q0 -92 91 -92h229l61 -61v-46q0 -687 -122 -687l-168 -15h-46q-61 -25 -61 -107q0 -76 92 -76h397q351 0 351 46l30 122q-10 46 -61 61l-213 -15q-38 0 -46 61q0 717 92 717h137q79 0 91 46v137l-45 61l-351 -15l-290 15q-168 -27 -168 -76z
M660 1765q182 -10 182 -56q0 -35 -224 -252q-238 9 -238 56q189 252 280 252zM506 1569v-28l70 -14q56 0 140 112v28l-28 28h-14q-75 0 -168 -126z" />
    <glyph glyph-name="Icircumflex" unicode="&#xce;" horiz-adv-x="1071" 
d="M305 1435l565 -31l46 16q153 -8 153 -77q-20 -320 -138 -320h-122q-61 -25 -61 -107v-76l-30 -413l45 -30l183 15q92 0 92 -244q0 -137 -259 -137l-107 -16h-260l-91 -15q-321 41 -321 122v46q0 157 46 214l183 -16h15q122 0 122 229l31 367l-76 61h-245q-65 0 -76 198
q0 183 153 183zM92 1267v-76q0 -92 91 -92h229l61 -61v-46q0 -687 -122 -687l-168 -15h-46q-61 -25 -61 -107q0 -76 92 -76h397q351 0 351 46l30 122q-10 46 -61 61l-213 -15q-38 0 -46 61q0 717 92 717h137q79 0 91 46v137l-45 61l-351 -15l-290 15q-168 -27 -168 -76z
M645 1770q96 0 224 -238v-28l-28 -28h-112q-51 0 -112 56h-28l-168 -70q-126 23 -126 56q0 96 210 252h140zM407 1602v-42l56 -14l126 70l98 -70h42l28 28v42q-35 84 -112 84h-98q-78 0 -140 -98z" />
    <glyph glyph-name="Idieresis" unicode="&#xcf;" horiz-adv-x="1071" 
d="M305 1435l565 -31l46 16q153 -8 153 -77q-20 -320 -138 -320h-122q-61 -25 -61 -107v-76l-30 -413l45 -30l183 15q92 0 92 -244q0 -137 -259 -137l-107 -16h-260l-91 -15q-321 41 -321 122v46q0 157 46 214l183 -16h15q122 0 122 229l31 367l-76 61h-245q-65 0 -76 198
q0 183 153 183zM92 1267v-76q0 -92 91 -92h229l61 -61v-46q0 -687 -122 -687l-168 -15h-46q-61 -25 -61 -107q0 -76 92 -76h397q351 0 351 46l30 122q-10 46 -61 61l-213 -15q-38 0 -46 61q0 717 92 717h137q79 0 91 46v137l-45 61l-351 -15l-290 15q-168 -27 -168 -76z
M345 1741q63 -23 98 -84v-42q0 -85 -98 -126q-84 0 -98 168q33 84 98 84zM723 1727q98 -41 98 -126q-41 -98 -126 -98q-98 0 -98 98q18 126 126 126zM289 1615q14 -46 56 -56l42 42h14l-42 56h-28zM667 1643q-40 -101 70 -70q35 93 -70 70z" />
    <glyph glyph-name="Eth" unicode="&#xd0;" horiz-adv-x="1518" 
 />
    <glyph glyph-name="Ntilde" unicode="&#xd1;" horiz-adv-x="1558" 
d="M198 1482h15l153 -46l92 31q275 -73 275 -214l198 -535l16 -15h15q42 0 61 428l-15 91q39 184 76 184l15 -16l123 16q259 0 259 -77l-61 -1268v-30l-30 -31l-92 31q-60 -31 -168 -31h-76q-109 0 -169 31l-15 -16h-15q-68 0 -245 352h-15l-30 -46v-183q0 -138 -107 -138
h-16q-336 0 -336 76l-15 77q46 1114 107 1329zM217 1264l15 -110l-31 -1013q16 -62 94 -62h31q156 0 156 140l15 421l-31 109q0 36 78 47l218 -468q161 -249 250 -249h264q47 0 47 62l109 1154l-46 31l-265 -31q0 -857 -94 -857h-47q-64 11 -374 888l-15 15h-78l-218 16
q-35 0 -78 -93zM1066 1810q171 0 171 -68q-107 -240 -331 -240l-240 80l-125 -57q-137 8 -137 34v11l46 46q51 -5 90 -5q77 57 114 57h22l207 -120h92q171 74 154 152l-35 34q-29 0 -142 -95h-23l-217 103h-91l-114 -46v11q72 92 137 92q48 0 285 -103q65 0 125 114h12z" />
    <glyph glyph-name="Ograve" unicode="&#xd2;" horiz-adv-x="1225" 
d="M624 1445q311 0 429 -275q76 -268 76 -398q0 -257 -214 -643q-318 -153 -398 -153l-107 16l-92 -31q-92 0 -214 428v16q0 541 275 887zM196 451v-62q46 -306 275 -306h153q263 0 398 536v245q-74 474 -275 474q-283 0 -414 -291q-137 -367 -137 -596zM639 879h31
q77 -44 77 -199q0 -267 -184 -321h-15q-62 64 -62 122v31q81 367 153 367zM578 512l16 -16h45l31 138l-15 77h-16q-50 0 -61 -199zM423 1801h84q173 0 294 -308q-51 -42 -98 -42h-56q-131 0 -266 308zM479 1703q23 -93 126 -168h42l28 28q-46 168 -98 168h-56z" />
    <glyph glyph-name="Oacute" unicode="&#xd3;" horiz-adv-x="1225" 
d="M624 1445q311 0 429 -275q76 -268 76 -398q0 -257 -214 -643q-318 -153 -398 -153l-107 16l-92 -31q-92 0 -214 428v16q0 541 275 887zM196 451v-62q46 -306 275 -306h153q263 0 398 536v245q-74 474 -275 474q-283 0 -414 -291q-137 -367 -137 -596zM639 879h31
q77 -44 77 -199q0 -267 -184 -321h-15q-62 64 -62 122v31q81 367 153 367zM578 512l16 -16h45l31 138l-15 77h-16q-50 0 -61 -199zM746 1785q182 -10 182 -56q0 -35 -224 -252q-238 9 -238 56q189 252 280 252zM592 1589v-28l70 -14q56 0 140 112v28l-28 28h-14
q-75 0 -168 -126z" />
    <glyph glyph-name="Ocircumflex" unicode="&#xd4;" horiz-adv-x="1225" 
d="M624 1445q311 0 429 -275q76 -268 76 -398q0 -257 -214 -643q-318 -153 -398 -153l-107 16l-92 -31q-92 0 -214 428v16q0 541 275 887zM196 451v-62q46 -306 275 -306h153q263 0 398 536v245q-74 474 -275 474q-283 0 -414 -291q-137 -367 -137 -596zM639 879h31
q77 -44 77 -199q0 -267 -184 -321h-15q-62 64 -62 122v31q81 367 153 367zM578 512l16 -16h45l31 138l-15 77h-16q-50 0 -61 -199zM741 1780q96 0 224 -238v-28l-28 -28h-112q-51 0 -112 56h-28l-168 -70q-126 23 -126 56q0 96 210 252h140zM503 1612v-42l56 -14l126 70
l98 -70h42l28 28v42q-35 84 -112 84h-98q-78 0 -140 -98z" />
    <glyph glyph-name="Otilde" unicode="&#xd5;" horiz-adv-x="1225" 
d="M624 1445q311 0 429 -275q76 -268 76 -398q0 -257 -214 -643q-318 -153 -398 -153l-107 16l-92 -31q-92 0 -214 428v16q0 541 275 887zM196 451v-62q46 -306 275 -306h153q263 0 398 536v245q-74 474 -275 474q-283 0 -414 -291q-137 -367 -137 -596zM639 879h31
q77 -44 77 -199q0 -267 -184 -321h-15q-62 64 -62 122v31q81 367 153 367zM578 512l16 -16h45l31 138l-15 77h-16q-50 0 -61 -199zM906 1786q171 0 171 -68q-107 -240 -331 -240l-240 80l-125 -57q-137 8 -137 34v11l46 46q51 -5 90 -5q77 57 114 57h22l207 -120h92
q171 74 154 152l-35 34q-29 0 -142 -95h-23l-217 103h-91l-114 -46v11q72 92 137 92q48 0 285 -103q65 0 125 114h12z" />
    <glyph glyph-name="Odieresis" unicode="&#xd6;" horiz-adv-x="1225" 
d="M624 1445q311 0 429 -275q76 -268 76 -398q0 -257 -214 -643q-318 -153 -398 -153l-107 16l-92 -31q-92 0 -214 428v16q0 541 275 887zM196 451v-62q46 -306 275 -306h153q263 0 398 536v245q-74 474 -275 474q-283 0 -414 -291q-137 -367 -137 -596zM639 879h31
q77 -44 77 -199q0 -267 -184 -321h-15q-62 64 -62 122v31q81 367 153 367zM578 512l16 -16h45l31 138l-15 77h-16q-50 0 -61 -199zM544 1752q63 -23 98 -84v-42q0 -85 -98 -126q-84 0 -98 168q33 84 98 84zM922 1738q98 -41 98 -126q-41 -98 -126 -98q-98 0 -98 98
q18 126 126 126zM488 1626q14 -46 56 -56l42 42h14l-42 56h-28zM866 1654q-40 -101 70 -70q35 93 -70 70z" />
    <glyph glyph-name="multiply" unicode="&#xd7;" 
 />
    <glyph glyph-name="Oslash" unicode="&#xd8;" horiz-adv-x="1575" 
d="M797 1352q236 0 322 -154l14 -14h42q116 126 350 126q84 -33 84 -56v-14q-350 -316 -350 -392v-56q-49 -561 -266 -672q-204 -112 -294 -112l-98 14l-84 -28l-42 28h-42l-182 -56q-182 46 -182 84l252 266q0 535 196 826q14 58 280 210zM405 442v-126l-224 -252l42 -28
h84q35 0 196 112l126 -42h168q241 0 364 490q0 378 98 378q210 196 210 238h-14l-56 14h-28q-79 0 -196 -182h-28q-164 210 -224 210h-14q-259 0 -378 -266q-126 -336 -126 -546zM811 834h28l28 -28v-28q0 -78 -98 -140h-14l-28 28q0 119 84 168zM839 512l28 -28
q0 -73 -70 -112h-28l-28 28q25 63 98 112z" />
    <glyph glyph-name="Ugrave" unicode="&#xd9;" horiz-adv-x="1235" 
d="M239 1428h202q93 -10 93 -47v-62l-31 -543v-140q0 -108 124 -108q68 0 93 652v77q0 140 125 140h46q248 0 248 -93q-47 -1242 -294 -1242q0 -20 -264 -62h-47q-155 0 -372 217q-35 44 -78 311q27 884 93 884zM177 508q0 -369 261 -369q0 -30 185 -30q327 0 369 507
l46 307l-16 184l16 154q-9 62 -123 62h-31q-92 0 -92 -93v-107q0 -692 -139 -692l-76 -15q-169 48 -169 169v231q0 303 46 491l-46 31q-200 0 -200 -108zM374 1787h84q173 0 294 -308q-51 -42 -98 -42h-56q-131 0 -266 308zM430 1689q23 -93 126 -168h42l28 28
q-46 168 -98 168h-56z" />
    <glyph glyph-name="Uacute" unicode="&#xda;" horiz-adv-x="1235" 
d="M239 1428h202q93 -10 93 -47v-62l-31 -543v-140q0 -108 124 -108q68 0 93 652v77q0 140 125 140h46q248 0 248 -93q-47 -1242 -294 -1242q0 -20 -264 -62h-47q-155 0 -372 217q-35 44 -78 311q27 884 93 884zM177 508q0 -369 261 -369q0 -30 185 -30q327 0 369 507
l46 307l-16 184l16 154q-9 62 -123 62h-31q-92 0 -92 -93v-107q0 -692 -139 -692l-76 -15q-169 48 -169 169v231q0 303 46 491l-46 31q-200 0 -200 -108zM738 1765q182 -10 182 -56q0 -35 -224 -252q-238 9 -238 56q189 252 280 252zM584 1569v-28l70 -14q56 0 140 112v28
l-28 28h-14q-75 0 -168 -126z" />
    <glyph glyph-name="Ucircumflex" unicode="&#xdb;" horiz-adv-x="1235" 
d="M239 1428h202q93 -10 93 -47v-62l-31 -543v-140q0 -108 124 -108q68 0 93 652v77q0 140 125 140h46q248 0 248 -93q-47 -1242 -294 -1242q0 -20 -264 -62h-47q-155 0 -372 217q-35 44 -78 311q27 884 93 884zM177 508q0 -369 261 -369q0 -30 185 -30q327 0 369 507
l46 307l-16 184l16 154q-9 62 -123 62h-31q-92 0 -92 -93v-107q0 -692 -139 -692l-76 -15q-169 48 -169 169v231q0 303 46 491l-46 31q-200 0 -200 -108zM675 1773q96 0 224 -238v-28l-28 -28h-112q-51 0 -112 56h-28l-168 -70q-126 23 -126 56q0 96 210 252h140zM437 1605
v-42l56 -14l126 70l98 -70h42l28 28v42q-35 84 -112 84h-98q-78 0 -140 -98z" />
    <glyph glyph-name="Udieresis" unicode="&#xdc;" horiz-adv-x="1235" 
d="M239 1428h202q93 -10 93 -47v-62l-31 -543v-140q0 -108 124 -108q68 0 93 652v77q0 140 125 140h46q248 0 248 -93q-47 -1242 -294 -1242q0 -20 -264 -62h-47q-155 0 -372 217q-35 44 -78 311q27 884 93 884zM177 508q0 -369 261 -369q0 -30 185 -30q327 0 369 507
l46 307l-16 184l16 154q-9 62 -123 62h-31q-92 0 -92 -93v-107q0 -692 -139 -692l-76 -15q-169 48 -169 169v231q0 303 46 491l-46 31q-200 0 -200 -108zM423 1741q63 -23 98 -84v-42q0 -85 -98 -126q-84 0 -98 168q33 84 98 84zM801 1727q98 -41 98 -126q-41 -98 -126 -98
q-98 0 -98 98q18 126 126 126zM367 1615q14 -46 56 -56l42 42h14l-42 56h-28zM745 1643q-40 -101 70 -70q35 93 -70 70z" />
    <glyph glyph-name="Yacute" unicode="&#xdd;" horiz-adv-x="1336" 
d="M94 1421h269q160 0 269 -329h45q22 0 90 150l105 179h299q75 0 134 -90q0 -134 -299 -583q0 -105 -254 -404q-151 -344 -329 -344h-269l-60 60q38 139 269 583q-329 596 -329 733zM647 942q-25 2 -194 374l-284 15l-30 -45l284 -628l15 -60l-210 -448v-30l30 -30h180
q105 0 254 329q410 595 509 882l-45 30h-150l-60 15q-69 0 -269 -404h-30zM796 1765q182 -10 182 -56q0 -35 -224 -252q-238 9 -238 56q189 252 280 252zM642 1569v-28l70 -14q56 0 140 112v28l-28 28h-14q-75 0 -168 -126z" />
    <glyph glyph-name="Thorn" unicode="&#xde;" horiz-adv-x="1120" 
 />
    <glyph glyph-name="germandbls" unicode="&#xdf;" horiz-adv-x="1117" 
d="M504 1401h28q301 0 420 -378v-42l-42 -224l98 -280v-14l-14 -70l14 -98q-31 -322 -294 -322l-70 -14q-52 4 -182 182q-28 -98 -56 -98q-22 0 -56 126l28 182l-14 252l14 336q56 182 154 182h28q137 0 168 -210v-28l-56 -140q140 -265 140 -336v-28q-18 -154 -98 -154
l-112 14l-42 -126q0 -64 154 -98q238 83 238 252v84q0 192 -98 378l14 350q-87 194 -238 280h-154v14zM364 1345v-14l-112 -126v28q0 112 112 112zM224 1163h28l-42 -210l28 -434l-14 -98v-112v-28l42 -182q0 -58 -140 -112l-28 84v98l28 378v56l-14 126l28 266q0 46 84 154
v14zM434 911l14 -56l-28 -504q28 -38 42 -196h28q51 168 112 168l84 -14q70 19 70 98q-14 126 -168 266v14l84 252v28q-74 98 -126 98q-61 0 -112 -154z" />
    <glyph glyph-name="agrave" unicode="&#xe0;" horiz-adv-x="1023" 
d="M567 1043l84 -28l14 14h14q252 -83 252 -280v-728l-42 -42q-51 42 -98 42l-126 -28l-112 56q-87 -56 -350 -56q-126 130 -126 252q0 147 322 336q196 23 196 84q0 84 -70 84q-27 0 -154 -154l-56 14l-84 -14l-28 42v42q0 308 140 308q0 47 224 56zM259 735q14 -46 56 -56
l140 140l70 14h42q112 -79 112 -168q0 -108 -336 -168q-196 -157 -196 -294q70 -126 168 -126h112q56 0 210 112h14q61 -112 154 -112l42 42h14l-14 168v392q-44 266 -252 266q0 24 -98 28q-238 -42 -238 -238zM553 511h28q70 -36 70 -112v-70q0 -112 -154 -140h-42l-84 84
v70q28 64 182 168zM331 1423h84q173 0 294 -308q-51 -42 -98 -42h-56q-131 0 -266 308zM387 1325q23 -93 126 -168h42l28 28q-46 168 -98 168h-56z" />
    <glyph glyph-name="aacute" unicode="&#xe1;" horiz-adv-x="1023" 
d="M567 1043l84 -28l14 14h14q252 -83 252 -280v-728l-42 -42q-51 42 -98 42l-126 -28l-112 56q-87 -56 -350 -56q-126 130 -126 252q0 147 322 336q196 23 196 84q0 84 -70 84q-27 0 -154 -154l-56 14l-84 -14l-28 42v42q0 308 140 308q0 47 224 56zM259 735q14 -46 56 -56
l140 140l70 14h42q112 -79 112 -168q0 -108 -336 -168q-196 -157 -196 -294q70 -126 168 -126h112q56 0 210 112h14q61 -112 154 -112l42 42h14l-14 168v392q-44 266 -252 266q0 24 -98 28q-238 -42 -238 -238zM553 511h28q70 -36 70 -112v-70q0 -112 -154 -140h-42l-84 84
v70q28 64 182 168zM722 1384q182 -10 182 -56q0 -35 -224 -252q-238 9 -238 56q189 252 280 252zM568 1188v-28l70 -14q56 0 140 112v28l-28 28h-14q-75 0 -168 -126z" />
    <glyph glyph-name="acircumflex" unicode="&#xe2;" horiz-adv-x="1023" 
d="M567 1043l84 -28l14 14h14q252 -83 252 -280v-728l-42 -42q-51 42 -98 42l-126 -28l-112 56q-87 -56 -350 -56q-126 130 -126 252q0 147 322 336q196 23 196 84q0 84 -70 84q-27 0 -154 -154l-56 14l-84 -14l-28 42v42q0 308 140 308q0 47 224 56zM259 735q14 -46 56 -56
l140 140l70 14h42q112 -79 112 -168q0 -108 -336 -168q-196 -157 -196 -294q70 -126 168 -126h112q56 0 210 112h14q61 -112 154 -112l42 42h14l-14 168v392q-44 266 -252 266q0 24 -98 28q-238 -42 -238 -238zM553 511h28q70 -36 70 -112v-70q0 -112 -154 -140h-42l-84 84
v70q28 64 182 168zM655 1392q96 0 224 -238v-28l-28 -28h-112q-51 0 -112 56h-28l-168 -70q-126 23 -126 56q0 96 210 252h140zM417 1224v-42l56 -14l126 70l98 -70h42l28 28v42q-35 84 -112 84h-98q-78 0 -140 -98z" />
    <glyph glyph-name="atilde" unicode="&#xe3;" horiz-adv-x="1023" 
d="M567 1043l84 -28l14 14h14q252 -83 252 -280v-728l-42 -42q-51 42 -98 42l-126 -28l-112 56q-87 -56 -350 -56q-126 130 -126 252q0 147 322 336q196 23 196 84q0 84 -70 84q-27 0 -154 -154l-56 14l-84 -14l-28 42v42q0 308 140 308q0 47 224 56zM259 735q14 -46 56 -56
l140 140l70 14h42q112 -79 112 -168q0 -108 -336 -168q-196 -157 -196 -294q70 -126 168 -126h112q56 0 210 112h14q61 -112 154 -112l42 42h14l-14 168v392q-44 266 -252 266q0 24 -98 28q-238 -42 -238 -238zM553 511h28q70 -36 70 -112v-70q0 -112 -154 -140h-42l-84 84
v70q28 64 182 168zM849 1404q171 0 171 -68q-107 -240 -331 -240l-240 80l-125 -57q-137 8 -137 34v11l46 46q51 -5 90 -5q77 57 114 57h22l207 -120h92q171 74 154 152l-35 34q-29 0 -142 -95h-23l-217 103h-91l-114 -46v11q72 92 137 92q48 0 285 -103q65 0 125 114h12z
" />
    <glyph glyph-name="adieresis" unicode="&#xe4;" horiz-adv-x="1023" 
d="M567 1043l84 -28l14 14h14q252 -83 252 -280v-728l-42 -42q-51 42 -98 42l-126 -28l-112 56q-87 -56 -350 -56q-126 130 -126 252q0 147 322 336q196 23 196 84q0 84 -70 84q-27 0 -154 -154l-56 14l-84 -14l-28 42v42q0 308 140 308q0 47 224 56zM259 735q14 -46 56 -56
l140 140l70 14h42q112 -79 112 -168q0 -108 -336 -168q-196 -157 -196 -294q70 -126 168 -126h112q56 0 210 112h14q61 -112 154 -112l42 42h14l-14 168v392q-44 266 -252 266q0 24 -98 28q-238 -42 -238 -238zM553 511h28q70 -36 70 -112v-70q0 -112 -154 -140h-42l-84 84
v70q28 64 182 168zM423 1353q63 -23 98 -84v-42q0 -85 -98 -126q-84 0 -98 168q33 84 98 84zM801 1339q98 -41 98 -126q-41 -98 -126 -98q-98 0 -98 98q18 126 126 126zM367 1227q14 -46 56 -56l42 42h14l-42 56h-28zM745 1255q-40 -101 70 -70q35 93 -70 70z" />
    <glyph glyph-name="aring" unicode="&#xe5;" horiz-adv-x="1028" 
d="M571 1450h14q224 -45 224 -224l-56 -140v-56q182 -148 182 -280v-728l-42 -42q-51 42 -98 42l-126 -28l-112 56q-87 -56 -350 -56q-126 130 -126 252q0 147 322 336q196 23 196 84q0 84 -70 84q-27 0 -154 -154l-56 14l-84 -14l-28 42v42q0 294 126 294l56 70v42l-42 42
q0 322 224 322zM403 1268v-28q0 -143 112 -224l-182 -112q-70 -78 -70 -168q14 -46 56 -56l140 140l70 14h42q112 -79 112 -168q0 -108 -336 -168q-196 -157 -196 -294q70 -126 168 -126h112q56 0 210 112h14q61 -112 154 -112l42 42h14l-14 168v392q0 174 -224 294v28
q98 142 98 224v28q0 130 -224 154q-98 -42 -98 -140zM557 1254h14l42 -42v-14l-42 -42h-14l-42 42v14zM557 512h28q70 -36 70 -112v-70q0 -112 -154 -140h-42l-84 84v70q28 64 182 168z" />
    <glyph glyph-name="ae" unicode="&#xe6;" horiz-adv-x="1755" 
d="M585 1048l84 -28l14 14h14q116 0 224 -210h28q225 224 462 224q252 -137 252 -392v-84q0 -68 -420 -84l-42 14l-42 -14v-14q0 -129 140 -168q140 84 182 84q119 0 168 -84v-126q-111 -210 -434 -210h-42l-224 84l-266 -56l-112 56q-87 -56 -350 -56q-126 130 -126 252
q0 147 322 336q196 23 196 84q0 84 -70 84q-27 0 -154 -154l-56 14l-84 -14l-28 42v42q0 308 140 308q0 47 224 56zM277 740q14 -46 56 -56l140 140l70 14h42q112 -79 112 -168q0 -108 -336 -168q-196 -157 -196 -294q70 -126 168 -126h112q56 0 210 112h14
q66 -112 140 -112l112 84h28q96 -112 140 -112l154 28l168 -14q95 0 210 168q-11 48 -84 84h-70q0 -76 -210 -140h-28q-154 36 -154 224v28q0 55 84 140l-70 84q61 182 238 182q168 -78 168 -168q-24 -70 -70 -70v-28l56 -14q112 0 112 98v56q0 132 -238 238
q-304 0 -406 -280l-14 -14h-42q-31 12 -98 224q-164 98 -280 98q-238 -42 -238 -238zM1229 712v-28l70 -14h28l28 28v14l-42 42h-42zM571 516h28q70 -36 70 -112v-70q0 -112 -154 -140h-42l-84 84v70q28 64 182 168z" />
    <glyph glyph-name="ccedilla" unicode="&#xe7;" horiz-adv-x="897" 
d="M557 1047h14q154 0 238 -154q-71 -201 -95 -201h-14l-84 42q-227 -78 -227 -205v-70q0 -159 98 -159q120 34 200 34q80 -81 112 -149v-14q0 -126 -340 -188q-177 0 -336 252l-42 252q0 221 322 518zM176 435q39 -350 242 -350h14q222 -36 286 85q-17 81 -94 116
q-62 -44 -179 -44q-148 40 -148 193q0 270 259 331h94l51 85v54q-18 54 -121 54h-67q-337 -136 -337 -524zM440 -27h41q132 -159 132 -204v-52q-38 -153 -163 -153q-174 21 -174 133v31q0 41 92 41l20 30v92q0 56 52 82zM439 -169l77 -86q-13 -76 -68 -76l-68 25h-9v-25
q30 -51 77 -51h17q87 0 102 136l-85 111v8h-9q-17 -3 -34 -42zM399 -231v-21l30 -31l21 21v10l-21 21h-30z" />
    <glyph glyph-name="egrave" unicode="&#xe8;" horiz-adv-x="990" 
d="M655 1068q252 -137 252 -392l-36 -61q0 -68 -384 -107l-84 -14q-64 -136 210 -208q139 64 177 64t126 -173q-111 -210 -457 -187h-42q-294 91 -294 238q-33 0 -42 252q0 381 378 546zM355 634q36 206 213 211q103 -55 132 -115t-144 -116q-85 2 -201 20zM716 576
q73 22 108 94v53q0 127 -229 229q-280 0 -376 -242l-40 -121v-242q51 -255 161 -255q177 -58 309 -16q114 7 192 146q-13 55 -72 84q-84 -67 -268 -93h-27q-147 34 -147 215v27q13 88 83.5 90t305.5 31zM502 718v-26l59 -13h23l24 27v12l-35 40h-36zM351 1474h84
q173 0 294 -308q-51 -42 -98 -42h-56q-131 0 -266 308zM407 1376q23 -93 126 -168h42l28 28q-46 168 -98 168h-56z" />
    <glyph glyph-name="eacute" unicode="&#xe9;" horiz-adv-x="990" 
d="M655 1068q252 -137 252 -392l-36 -61q0 -68 -384 -107l-84 -14q-64 -136 210 -208q139 64 177 64t126 -173q-111 -210 -457 -187h-42q-294 91 -294 238q-33 0 -42 252q0 381 378 546zM355 634q36 206 213 211q103 -55 132 -115t-144 -116q-85 2 -201 20zM716 576
q73 22 108 94v53q0 127 -229 229q-280 0 -376 -242l-40 -121v-242q51 -255 161 -255q177 -58 309 -16q114 7 192 146q-13 55 -72 84q-84 -67 -268 -93h-27q-147 34 -147 215v27q13 88 83.5 90t305.5 31zM502 718v-26l59 -13h23l24 27v12l-35 40h-36zM661 1410
q182 -10 182 -56q0 -35 -224 -252q-238 9 -238 56q189 252 280 252zM507 1214v-28l70 -14q56 0 140 112v28l-28 28h-14q-75 0 -168 -126z" />
    <glyph glyph-name="ecircumflex" unicode="&#xea;" horiz-adv-x="990" 
d="M655 1068q252 -137 252 -392l-36 -61q0 -68 -384 -107l-84 -14q-64 -136 210 -208q139 64 177 64t126 -173q-111 -210 -457 -187h-42q-294 91 -294 238q-33 0 -42 252q0 381 378 546zM355 634q36 206 213 211q103 -55 132 -115t-144 -116q-85 2 -201 20zM716 576
q73 22 108 94v53q0 127 -229 229q-280 0 -376 -242l-40 -121v-242q51 -255 161 -255q177 -58 309 -16q114 7 192 146q-13 55 -72 84q-84 -67 -268 -93h-27q-147 34 -147 215v27q13 88 83.5 90t305.5 31zM502 718v-26l59 -13h23l24 27v12l-35 40h-36zM652 1426q96 0 224 -238
v-28l-28 -28h-112q-51 0 -112 56h-28l-168 -70q-126 23 -126 56q0 96 210 252h140zM414 1258v-42l56 -14l126 70l98 -70h42l28 28v42q-35 84 -112 84h-98q-78 0 -140 -98z" />
    <glyph glyph-name="edieresis" unicode="&#xeb;" horiz-adv-x="990" 
d="M655 1068q252 -137 252 -392l-36 -61q0 -68 -384 -107l-84 -14q-64 -136 210 -208q139 64 177 64t126 -173q-111 -210 -457 -187h-42q-294 91 -294 238q-33 0 -42 252q0 381 378 546zM355 634q36 206 213 211q103 -55 132 -115t-144 -116q-85 2 -201 20zM716 576
q73 22 108 94v53q0 127 -229 229q-280 0 -376 -242l-40 -121v-242q51 -255 161 -255q177 -58 309 -16q114 7 192 146q-13 55 -72 84q-84 -67 -268 -93h-27q-147 34 -147 215v27q13 88 83.5 90t305.5 31zM502 718v-26l59 -13h23l24 27v12l-35 40h-36zM355 1356q63 -23 98 -84
v-42q0 -85 -98 -126q-84 0 -98 168q33 84 98 84zM733 1342q98 -41 98 -126q-41 -98 -126 -98q-98 0 -98 98q18 126 126 126zM299 1230q14 -46 56 -56l42 42h14l-42 56h-28zM677 1258q-40 -101 70 -70q35 93 -70 70z" />
    <glyph glyph-name="igrave" unicode="&#xec;" horiz-adv-x="545" 
d="M259 994h56q85 0 126 -98l-14 -574v-266q0 -39 -126 -56q-182 0 -182 140v490l-14 224q65 140 154 140zM189 840v-406l28 -154v-154l42 -42h84l-14 126q14 515 42 658q-14 56 -84 56h-14q-84 0 -84 -84zM38 1464h84q173 0 294 -308q-51 -42 -98 -42h-56q-131 0 -266 308z
M94 1366q23 -93 126 -168h42l28 28q-46 168 -98 168h-56z" />
    <glyph glyph-name="iacute" unicode="&#xed;" horiz-adv-x="545" 
d="M259 994h56q85 0 126 -98l-14 -574v-266q0 -39 -126 -56q-182 0 -182 140v490l-14 224q65 140 154 140zM189 840v-406l28 -154v-154l42 -42h84l-14 126q14 515 42 658q-14 56 -84 56h-14q-84 0 -84 -84zM419 1442q182 -10 182 -56q0 -35 -224 -252q-238 9 -238 56
q189 252 280 252zM265 1246v-28l70 -14q56 0 140 112v28l-28 28h-14q-75 0 -168 -126z" />
    <glyph glyph-name="icircumflex" unicode="&#xee;" horiz-adv-x="545" 
d="M259 994h56q85 0 126 -98l-14 -574v-266q0 -39 -126 -56q-182 0 -182 140v490l-14 224q65 140 154 140zM189 840v-406l28 -154v-154l42 -42h84l-14 126q14 515 42 658q-14 56 -84 56h-14q-84 0 -84 -84zM349 1470q96 0 224 -238v-28l-28 -28h-112q-51 0 -112 56h-28
l-168 -70q-126 23 -126 56q0 96 210 252h140zM111 1302v-42l56 -14l126 70l98 -70h42l28 28v42q-35 84 -112 84h-98q-78 0 -140 -98z" />
    <glyph glyph-name="idieresis" unicode="&#xef;" horiz-adv-x="545" 
d="M259 994h56q85 0 126 -98l-14 -574v-266q0 -39 -126 -56q-182 0 -182 140v490l-14 224q65 140 154 140zM189 840v-406l28 -154v-154l42 -42h84l-14 126q14 515 42 658q-14 56 -84 56h-14q-84 0 -84 -84zM84 1415q63 -23 98 -84v-42q0 -85 -98 -126q-84 0 -98 168
q33 84 98 84zM462 1401q98 -41 98 -126q-41 -98 -126 -98q-98 0 -98 98q18 126 126 126zM28 1289q14 -46 56 -56l42 42h14l-42 56h-28zM406 1317q-40 -101 70 -70q35 93 -70 70z" />
    <glyph glyph-name="eth" unicode="&#xf0;" horiz-adv-x="1139" 
 />
    <glyph glyph-name="ntilde" unicode="&#xf1;" horiz-adv-x="1202" 
d="M220 1022q252 -16 252 -112q150 74 350 98q294 -107 294 -392v-308q0 -308 -112 -308h-14q-210 14 -210 70v364l14 154q0 168 -126 168h-14q-140 0 -140 -322q0 -434 -112 -434q-168 18 -168 56q25 25 168 42l70 644q-46 7 -112 196h-56q-84 0 -84 -84l-28 -700l14 -126
l-42 -28h-14q-39 0 -56 140q37 868 98 868l14 14h14zM556 840v-14l28 -28l112 28q154 -57 154 -210v-154l14 -196l-28 -126q14 -56 84 -56h14q84 0 84 140l28 448q-84 252 -238 252q-252 -19 -252 -84zM851 1405q171 0 171 -68q-107 -240 -331 -240l-240 80l-125 -57
q-137 8 -137 34v11l46 46q51 -5 90 -5q77 57 114 57h22l207 -120h92q171 74 154 152l-35 34q-29 0 -142 -95h-23l-217 103h-91l-114 -46v11q72 92 137 92q48 0 285 -103q65 0 125 114h12z" />
    <glyph glyph-name="ograve" unicode="&#xf2;" horiz-adv-x="990" 
d="M555 1052h105q166 0 226 -255l30 -151q0 -504 -376 -661h-105q-284 0 -361 466v30q0 219 376 556zM174 496v-58q0 -365 234 -365h58q296 0 379 554q-16 307 -248 307h-14q-281 0 -409 -438zM495 646h75q75 -29 75 -165q-54 -195 -180 -195q-105 44 -105 135
q0 121 135 225zM480 526l-15 -15v-75h15l30 30v30zM319 1458h84q173 0 294 -308q-51 -42 -98 -42h-56q-131 0 -266 308zM375 1360q23 -93 126 -168h42l28 28q-46 168 -98 168h-56z" />
    <glyph glyph-name="oacute" unicode="&#xf3;" horiz-adv-x="990" 
d="M555 1052h105q166 0 226 -255l30 -151q0 -504 -376 -661h-105q-284 0 -361 466v30q0 219 376 556zM174 496v-58q0 -365 234 -365h58q296 0 379 554q-16 307 -248 307h-14q-281 0 -409 -438zM495 646h75q75 -29 75 -165q-54 -195 -180 -195q-105 44 -105 135
q0 121 135 225zM480 526l-15 -15v-75h15l30 30v30zM686 1406q182 -10 182 -56q0 -35 -224 -252q-238 9 -238 56q189 252 280 252zM532 1210v-28l70 -14q56 0 140 112v28l-28 28h-14q-75 0 -168 -126z" />
    <glyph glyph-name="ocircumflex" unicode="&#xf4;" horiz-adv-x="990" 
d="M555 1052h105q166 0 226 -255l30 -151q0 -504 -376 -661h-105q-284 0 -361 466v30q0 219 376 556zM174 496v-58q0 -365 234 -365h58q296 0 379 554q-16 307 -248 307h-14q-281 0 -409 -438zM495 646h75q75 -29 75 -165q-54 -195 -180 -195q-105 44 -105 135
q0 121 135 225zM480 526l-15 -15v-75h15l30 30v30zM653 1401q96 0 224 -238v-28l-28 -28h-112q-51 0 -112 56h-28l-168 -70q-126 23 -126 56q0 96 210 252h140zM415 1233v-42l56 -14l126 70l98 -70h42l28 28v42q-35 84 -112 84h-98q-78 0 -140 -98z" />
    <glyph glyph-name="otilde" unicode="&#xf5;" horiz-adv-x="990" 
d="M555 1052h105q166 0 226 -255l30 -151q0 -504 -376 -661h-105q-284 0 -361 466v30q0 219 376 556zM174 496v-58q0 -365 234 -365h58q296 0 379 554q-16 307 -248 307h-14q-281 0 -409 -438zM495 646h75q75 -29 75 -165q-54 -195 -180 -195q-105 44 -105 135
q0 121 135 225zM480 526l-15 -15v-75h15l30 30v30zM806 1435q171 0 171 -68q-107 -240 -331 -240l-240 80l-125 -57q-137 8 -137 34v11l46 46q51 -5 90 -5q77 57 114 57h22l207 -120h92q171 74 154 152l-35 34q-29 0 -142 -95h-23l-217 103h-91l-114 -46v11q72 92 137 92
q48 0 285 -103q65 0 125 114h12z" />
    <glyph glyph-name="odieresis" unicode="&#xf6;" horiz-adv-x="990" 
d="M555 1052h105q166 0 226 -255l30 -151q0 -504 -376 -661h-105q-284 0 -361 466v30q0 219 376 556zM174 496v-58q0 -365 234 -365h58q296 0 379 554q-16 307 -248 307h-14q-281 0 -409 -438zM495 646h75q75 -29 75 -165q-54 -195 -180 -195q-105 44 -105 135
q0 121 135 225zM480 526l-15 -15v-75h15l30 30v30zM438 1365q63 -23 98 -84v-42q0 -85 -98 -126q-84 0 -98 168q33 84 98 84zM816 1351q98 -41 98 -126q-41 -98 -126 -98q-98 0 -98 98q18 126 126 126zM382 1239q14 -46 56 -56l42 42h14l-42 56h-28zM760 1267
q-40 -101 70 -70q35 93 -70 70z" />
    <glyph glyph-name="divide" unicode="&#xf7;" 
 />
    <glyph glyph-name="oslash" unicode="&#xf8;" horiz-adv-x="1235" 
d="M1123 1217q126 -14 126 -42v-14q-228 -295 -252 -392l28 -154q0 -470 -350 -616h-42l-210 14q-23 -56 -98 -56l-42 14l-56 -14q-154 0 -154 56q146 182 196 294l-28 154q0 204 350 518q233 0 294 168q0 56 238 70zM325 475v-98l14 -84q-154 -212 -154 -252l70 -14h42
q51 0 126 56l210 -14q336 140 336 532l-28 168q38 114 168 322v28l-56 14q-139 0 -266 -210q-281 -64 -336 -182q-126 -152 -126 -266zM549 587h28l28 -28l-84 -84l-28 28v28zM745 461q28 0 28 -42q-27 -64 -56 -70q-28 0 -28 42q27 64 56 70z" />
    <glyph glyph-name="ugrave" unicode="&#xf9;" horiz-adv-x="1129" 
d="M714 1016h224q70 0 70 -280v-42q0 -672 -70 -672l-70 -14l-252 28q-102 -56 -224 -56q-308 65 -308 308l-14 308v266q19 140 126 140h196l56 -56v-154l-28 -224v-126q0 -121 98 -182q112 0 112 154l-14 154v238q0 123 98 210zM476 176q-112 43 -112 112l14 420
q0 224 -112 224l-56 14l-70 -42l14 -168v-434q0 -212 210 -252l70 -14q117 16 252 154h28q28 0 42 -112l70 -14q84 0 84 140l14 126l-14 224l28 336q-26 70 -112 70h-14q-84 0 -84 -140q0 -630 -168 -630zM301 1382h84q173 0 294 -308q-51 -42 -98 -42h-56q-131 0 -266 308z
M357 1284q23 -93 126 -168h42l28 28q-46 168 -98 168h-56z" />
    <glyph glyph-name="uacute" unicode="&#xfa;" horiz-adv-x="1129" 
d="M714 1016h224q70 0 70 -280v-42q0 -672 -70 -672l-70 -14l-252 28q-102 -56 -224 -56q-308 65 -308 308l-14 308v266q19 140 126 140h196l56 -56v-154l-28 -224v-126q0 -121 98 -182q112 0 112 154l-14 154v238q0 123 98 210zM476 176q-112 43 -112 112l14 420
q0 224 -112 224l-56 14l-70 -42l14 -168v-434q0 -212 210 -252l70 -14q117 16 252 154h28q28 0 42 -112l70 -14q84 0 84 140l14 126l-14 224l28 336q-26 70 -112 70h-14q-84 0 -84 -140q0 -630 -168 -630zM665 1360q182 -10 182 -56q0 -35 -224 -252q-238 9 -238 56
q189 252 280 252zM511 1164v-28l70 -14q56 0 140 112v28l-28 28h-14q-75 0 -168 -126z" />
    <glyph glyph-name="ucircumflex" unicode="&#xfb;" horiz-adv-x="1129" 
d="M714 1016h224q70 0 70 -280v-42q0 -672 -70 -672l-70 -14l-252 28q-102 -56 -224 -56q-308 65 -308 308l-14 308v266q19 140 126 140h196l56 -56v-154l-28 -224v-126q0 -121 98 -182q112 0 112 154l-14 154v238q0 123 98 210zM476 176q-112 43 -112 112l14 420
q0 224 -112 224l-56 14l-70 -42l14 -168v-434q0 -212 210 -252l70 -14q117 16 252 154h28q28 0 42 -112l70 -14q84 0 84 140l14 126l-14 224l28 336q-26 70 -112 70h-14q-84 0 -84 -140q0 -630 -168 -630zM602 1368q96 0 224 -238v-28l-28 -28h-112q-51 0 -112 56h-28
l-168 -70q-126 23 -126 56q0 96 210 252h140zM364 1200v-42l56 -14l126 70l98 -70h42l28 28v42q-35 84 -112 84h-98q-78 0 -140 -98z" />
    <glyph glyph-name="udieresis" unicode="&#xfc;" horiz-adv-x="1129" 
d="M714 1016h224q70 0 70 -280v-42q0 -672 -70 -672l-70 -14l-252 28q-102 -56 -224 -56q-308 65 -308 308l-14 308v266q19 140 126 140h196l56 -56v-154l-28 -224v-126q0 -121 98 -182q112 0 112 154l-14 154v238q0 123 98 210zM476 176q-112 43 -112 112l14 420
q0 224 -112 224l-56 14l-70 -42l14 -168v-434q0 -212 210 -252l70 -14q117 16 252 154h28q28 0 42 -112l70 -14q84 0 84 140l14 126l-14 224l28 336q-26 70 -112 70h-14q-84 0 -84 -140q0 -630 -168 -630zM350 1336q63 -23 98 -84v-42q0 -85 -98 -126q-84 0 -98 168
q33 84 98 84zM728 1322q98 -41 98 -126q-41 -98 -126 -98q-98 0 -98 98q18 126 126 126zM294 1210q14 -46 56 -56l42 42h14l-42 56h-28zM672 1238q-40 -101 70 -70q35 93 -70 70z" />
    <glyph glyph-name="yacute" unicode="&#xfd;" horiz-adv-x="1135" 
d="M100 1024h252q126 0 126 -252q31 -126 56 -126q40 28 154 336l84 28h112l109 -8l56 14l14 -14v-14q-58 -285 -197 -569q-52 -44 -290 -565q-131 -187 -336 -252q-252 70 -252 182q130 210 294 210l28 120l-294 826v42q14 42 84 42zM100 940v-14q126 -266 280 -890
q-51 -140 -224 -140l-70 -98v-42q0 -42 224 -56q174 99 224 266q431 842 431 938q0 56 -165 36q-79 0 -126 -238q-113 -278 -154 -308q-89 71 -168 546h-126l-84 14zM681 1360q182 -10 182 -56q0 -35 -224 -252q-238 9 -238 56q189 252 280 252zM527 1164v-28l70 -14
q56 0 140 112v28l-28 28h-14q-75 0 -168 -126z" />
    <glyph glyph-name="thorn" unicode="&#xfe;" horiz-adv-x="1010" 
 />
    <glyph glyph-name="ydieresis" unicode="&#xff;" horiz-adv-x="1135" 
d="M100 1024h252q126 0 126 -252q31 -126 56 -126q40 28 154 336l84 28h112l109 -8l56 14l14 -14v-14q-58 -285 -197 -569q-52 -44 -290 -565q-131 -187 -336 -252q-252 70 -252 182q130 210 294 210l28 120l-294 826v42q14 42 84 42zM100 940v-14q126 -266 280 -890
q-51 -140 -224 -140l-70 -98v-42q0 -42 224 -56q174 99 224 266q431 842 431 938q0 56 -165 36q-79 0 -126 -238q-113 -278 -154 -308q-89 71 -168 546h-126l-84 14zM366 1336q63 -23 98 -84v-42q0 -85 -98 -126q-84 0 -98 168q33 84 98 84zM744 1322q98 -41 98 -126
q-41 -98 -126 -98q-98 0 -98 98q18 126 126 126zM310 1210q14 -46 56 -56l42 42h14l-42 56h-28zM688 1238q-40 -101 70 -70q35 93 -70 70z" />
    <glyph glyph-name="dotlessi" unicode="&#x131;" horiz-adv-x="545" 
d="M259 994h56q85 0 126 -98l-14 -574v-266q0 -39 -126 -56q-182 0 -182 140v490l-14 224q65 140 154 140zM189 840v-406l28 -154v-154l42 -42h84l-14 126q14 515 42 658q-14 56 -84 56h-14q-84 0 -84 -84z" />
    <glyph glyph-name="OE" unicode="&#x152;" horiz-adv-x="1714" 
d="M940 1442h112l126 -14l42 14l126 -14l224 14l42 -56v-126q0 -210 -112 -210l-308 -14h-14q-84 0 -84 -84q0 -42 182 -56l28 -42v-56q0 -210 -196 -294v-42l14 -14v-14l140 14h168q140 -104 140 -196l14 -140q0 -76 -882 -112l-42 70h-28l-182 -42l-98 14l-84 -28
q-84 0 -196 392v14q0 496 252 812l224 140l196 -28q151 98 196 98zM758 1260l-112 14q-417 0 -490 -812v-56q42 -280 252 -280h154l196 70q21 -112 112 -112h42l140 42h98l182 14l112 -14q42 0 42 56h14l-14 14v84l14 14l-28 70l-98 -14h-28l-182 14l-84 -14q-70 19 -70 98
v98q0 112 154 112l14 70q0 84 -112 84q-49 49 -56 168q0 107 168 126h266q112 0 112 224l-42 28q-756 -35 -756 -98zM562 854h28q70 -40 70 -182q0 -245 -168 -294h-14q-56 59 -56 112v28q74 336 140 336zM506 518l14 -14h42l28 126l-14 70h-14q-46 0 -56 -182z" />
    <glyph glyph-name="oe" unicode="&#x153;" horiz-adv-x="1530" 
d="M1168 1078q252 -137 252 -392v-84q0 -68 -420 -84l-42 14l-42 -14v-14q0 -129 140 -168q140 84 182 84q119 0 168 -84v-126q-111 -210 -434 -210h-42q-135 40 -252 126h-42q-104 -84 -168 -84h-70q-264 0 -336 434v28q0 204 350 518l98 14h56l210 -84h28q225 126 364 126
zM790 854h-42q-113 84 -210 84q-269 0 -392 -420v-56q0 -350 224 -350h56q87 0 224 112h42q103 -140 154 -140l154 28l168 -14q95 0 210 168q-11 48 -84 84h-70q0 -76 -210 -140h-28q-154 36 -154 224v28q0 55 84 140l-70 84q61 182 238 182q168 -78 168 -168
q-24 -70 -70 -70v-28l56 -14q112 0 112 98v56q0 132 -238 238q-186 0 -322 -126zM986 742v-28l70 -14h28l28 28v14l-42 42h-42zM454 658h70q70 -36 70 -112q-31 -224 -168 -224q-98 41 -98 126q0 113 126 210zM440 546l-14 -14v-70h14l28 28v28z" />
    <glyph glyph-name="circumflex" unicode="&#x2c6;" horiz-adv-x="698" 
d="M388 1368q96 0 224 -238v-28l-28 -28h-112q-51 0 -112 56h-28l-168 -70q-126 23 -126 56q0 96 210 252h140zM150 1200v-42l56 -14l126 70l98 -70h42l28 28v42q-35 84 -112 84h-98q-78 0 -140 -98z" />
    <glyph glyph-name="caron" unicode="&#x2c7;" horiz-adv-x="1024" 
 />
    <glyph glyph-name="uni02C9" unicode="&#x2c9;" horiz-adv-x="1024" 
 />
    <glyph glyph-name="breve" unicode="&#x2d8;" horiz-adv-x="1024" 
 />
    <glyph glyph-name="dotaccent" unicode="&#x2d9;" horiz-adv-x="1024" 
 />
    <glyph glyph-name="ring" unicode="&#x2da;" horiz-adv-x="476" 
d="M240 1430q110 0 140 -155q0 -203 -210 -203q-126 0 -126 143v12q53 203 196 203zM142 1299h14l84 36l42 -48q-30 -131 -84 -131l-70 23l-14 -12q21 -47 42 -47h70q126 0 126 167q-48 83 -70 83h-56q-84 0 -84 -71z" />
    <glyph glyph-name="ogonek" unicode="&#x2db;" horiz-adv-x="1024" 
 />
    <glyph glyph-name="tilde" unicode="&#x2dc;" horiz-adv-x="1126" 
d="M821 1405q171 0 171 -68q-107 -240 -331 -240l-240 80l-125 -57q-137 8 -137 34v11l46 46q51 -5 90 -5q77 57 114 57h22l207 -120h92q171 74 154 152l-35 34q-29 0 -142 -95h-23l-217 103h-91l-114 -46v11q72 92 137 92q48 0 285 -103q65 0 125 114h12z" />
    <glyph glyph-name="hungarumlaut" unicode="&#x2dd;" horiz-adv-x="1024" 
 />
    <glyph glyph-name="endash" unicode="&#x2013;" horiz-adv-x="1108" 
 />
    <glyph glyph-name="emdash" unicode="&#x2014;" horiz-adv-x="2048" 
 />
    <glyph glyph-name="quoteleft" unicode="&#x2018;" horiz-adv-x="557" 
 />
    <glyph glyph-name="quoteright" unicode="&#x2019;" horiz-adv-x="557" 
 />
    <glyph glyph-name="quotesinglbase" unicode="&#x201a;" horiz-adv-x="557" 
 />
    <glyph glyph-name="quotedblleft" unicode="&#x201c;" horiz-adv-x="910" 
 />
    <glyph glyph-name="quotedblright" unicode="&#x201d;" horiz-adv-x="910" 
 />
    <glyph glyph-name="quotedblbase" unicode="&#x201e;" horiz-adv-x="910" 
 />
    <glyph glyph-name="dagger" unicode="&#x2020;" 
 />
    <glyph glyph-name="daggerdbl" unicode="&#x2021;" 
 />
    <glyph glyph-name="bullet" unicode="&#x2022;" horiz-adv-x="1024" 
 />
    <glyph glyph-name="ellipsis" unicode="&#x2026;" horiz-adv-x="1875" 
d="M258 249q126 -26 126 -126q-37 -140 -140 -140q-140 9 -140 140q0 98 154 126zM188 165l-14 -42l42 -56h28q42 0 42 56l-14 42h-84zM941 249q126 -26 126 -126q-37 -140 -140 -140q-140 9 -140 140q0 98 154 126zM871 165l-14 -42l42 -56h28q42 0 42 56l-14 42h-84z
M1624 249q126 -26 126 -126q-37 -140 -140 -140q-140 9 -140 140q0 98 154 126zM1554 165l-14 -42l42 -56h28q42 0 42 56l-14 42h-84z" />
    <glyph glyph-name="guilsinglleft" unicode="&#x2039;" horiz-adv-x="631" 
 />
    <glyph glyph-name="guilsinglright" unicode="&#x203a;" horiz-adv-x="631" 
 />
    <glyph glyph-name="fraction" unicode="&#x2044;" horiz-adv-x="342" 
 />
    <glyph glyph-name="fraction" unicode="&#x2215;" horiz-adv-x="342" 
 />
    <glyph glyph-name="franc" unicode="&#x20a3;" 
 />
    <glyph glyph-name="lira" unicode="&#x20a4;" horiz-adv-x="1162" 
d="M717 1436h70q134 0 224 -224q0 -36 -182 -196h-28q-67 63 -140 84q-140 -47 -140 -182q0 -42 196 -56l28 -140l-42 -84l42 -112v-14q0 -98 -98 -98v-56q84 -87 84 -126h-14q-129 70 -280 98v28q0 101 238 154v56l-42 14l-84 -14q-64 27 -70 56v14q0 36 224 84l14 56
q-10 42 -56 56l-98 -14q-112 9 -112 42v28q31 266 252 266q84 -56 126 -56q69 0 140 126q0 79 -182 154q-360 0 -490 -308l-42 -280l-98 -84v-14l98 -84v-42l-84 -84v-28l84 -84l-126 -238q0 -84 84 -84l98 28h56v-28l-182 -56q-112 53 -112 140q70 124 70 196
q-84 44 -84 154l112 98v14q-98 21 -98 98q0 66 98 140q0 182 238 476q221 126 308 126zM997 288q93 -38 112 -84v-42q-84 -182 -336 -182h-14q-182 42 -182 84l14 14h14q152 -56 252 -56q77 0 196 126v42q-14 42 -84 42h-28q-51 -42 -98 -42h-28l-28 28v14z" />
    <glyph glyph-name="peseta" unicode="&#x20a7;" horiz-adv-x="2028" 
 />
    <glyph glyph-name="Euro" unicode="&#x20ac;" horiz-adv-x="1353" 
d="M851 1414q168 -36 168 -70l-14 -14v-14l-98 14h-84q-137 0 -420 -336q-64 -210 -196 -210l-70 -14v-42l28 -28l84 14q70 -19 70 -98q0 -70 -98 -70l-28 -42v-28q0 -28 140 -70q77 -246 294 -350h238q322 32 322 182q-19 58 -70 84h-42q-104 -84 -168 -84h-14
q-232 0 -322 196v14l28 28l126 -14q42 10 56 56q-19 70 -98 70h-112l-28 28v56q0 56 210 56l14 14v28q0 28 -168 56l-14 14v14q0 215 350 252h56q51 0 126 -56h28q29 6 56 70l-28 112l14 14h28q98 -59 98 -84q-35 -97 -182 -224h-14l-112 98h-14l-84 -14l-112 28
q-36 -13 -126 -140v-28q182 0 182 -126l-56 -112q42 0 56 -168q0 -63 -140 -84v-14q0 -70 224 -84l140 112q154 -41 154 -196q0 -102 -378 -210h-98q-234 0 -350 140q-49 238 -196 238q-84 0 -84 84v56q0 51 56 112q-136 39 -140 70q0 139 238 154q42 41 42 140
q183 251 448 392z" />
    <glyph glyph-name="afii61352" unicode="&#x2116;" horiz-adv-x="2271" 
 />
    <glyph glyph-name="trademark" unicode="&#x2122;" horiz-adv-x="1497" 
 />
    <glyph glyph-name="partialdiff" unicode="&#x2202;" 
 />
    <glyph glyph-name="Delta" unicode="&#x2206;" horiz-adv-x="1081" 
 />
    <glyph glyph-name="product" unicode="&#x220f;" horiz-adv-x="1515" 
 />
    <glyph glyph-name="summation" unicode="&#x2211;" horiz-adv-x="1206" 
 />
    <glyph glyph-name="minus" unicode="&#x2212;" 
 />
    <glyph glyph-name="radical" unicode="&#x221a;" 
 />
    <glyph glyph-name="infinity" unicode="&#x221e;" 
 />
    <glyph glyph-name="integral" unicode="&#x222b;" horiz-adv-x="665" 
 />
    <glyph glyph-name="approxequal" unicode="&#x2248;" 
 />
    <glyph glyph-name="lessequal" unicode="&#x2264;" 
 />
    <glyph glyph-name="greaterequal" unicode="&#x2265;" 
 />
    <glyph glyph-name="uniF001" unicode="&#xf001;" horiz-adv-x="1073" 
 />
    <glyph glyph-name="uniF001" unicode="&#xfb01;" horiz-adv-x="1073" 
 />
    <glyph glyph-name="uniF002" unicode="&#xf002;" horiz-adv-x="1081" 
 />
    <glyph glyph-name="uniF002" unicode="&#xfb02;" horiz-adv-x="1081" 
 />
  </font>
</defs>
</svg>
