<?xml version="1.0" standalone="no"?>
<!DOCTYPE svg PUBLIC "-//W3C//DTD SVG 1.1//EN" "http://www.w3.org/Graphics/SVG/1.1/DTD/svg11.dtd" >
<svg xmlns="http://www.w3.org/2000/svg" xmlns:xlink="http://www.w3.org/1999/xlink" version="1.1">
<metadata>
Created by FontForge 20170731 at Fri Feb 10 04:54:49 2012
 By Aleksey,,,
Copyright (c) 2011 by Moshik Nadav. All rights reserved.
</metadata>
<defs>
<font id="Paris-BoldStrip" horiz-adv-x="0" >
  <font-face 
    font-family="Paris"
    font-weight="700"
    font-stretch="normal"
    units-per-em="2048"
    panose-1="0 0 0 0 0 0 0 0 0 0"
    ascent="1536"
    descent="-512"
    x-height="986"
    cap-height="1419"
    bbox="-1504 -782 2347 2065.88"
    underline-thickness="50"
    underline-position="-200"
    unicode-range="U+000D-FB02"
  />
<missing-glyph horiz-adv-x="486" 
 />
    <glyph glyph-name="ae" unicode="ae" horiz-adv-x="2112" 
d="M544 108q15 22 22 41t7.5 26t0.5 31v347q0 41 -35 32q-6 -1 -30.5 -7.5t-45.5 -11.5q-72 -18 -92 -174q-17 -138 13 -269q25 -110 65 -109q13 0 26 13q40 40 69 81zM526 23h21q18 0 22.5 6.5t4.5 23.5v47q0 9 -3.5 11.5t-9 -0.5t-12.5 -11q-57 -66 -61 -70
q-30 -30 -61.5 -38.5t-107.5 -8.5q-68 0 -122 24.5t-83.5 64.5t-45 90t-9.5 102.5t24.5 100t56.5 85.5t87 55q131 46 365 97v-602h-73v18zM304 922q-89 -63 -131 -145t-23 -191t113 -224q92 -113 221 -188t254.5 -101t240.5 -16.5t192 54.5l72 42l4 -4l-68 -40
q-76 -46 -193.5 -56.5t-246.5 15t-260.5 100.5t-222.5 189q-58 72 -88.5 148t-31.5 151t40 146t122 125q59 39 135 53.5t151.5 4.5t149 -43.5t130 -84t91.5 -124t36 -156.5q0 -103 -0.5 -259.5t-0.5 -234.5q0 -60 60 -60h7l7 -5v-18h-431v553q0 55 34 62q45 10 74.5 17
t62.5 17t52 19.5t37.5 22t23.5 26.5t4.5 31.5t-13 39t-34.5 47.5q-64 72 -169 112t-215.5 34t-185.5 -59zM1469 1000q-40 -16 -47 -167q-2 -38 -2 -347v-3q0 -254 37 -379t118 -153q-68 10 -136 34t-137 68.5t-122 103t-86 144t-33 185.5q0 103 25 186t63.5 136t95 93.5
t108.5 61.5t116 37zM1488 297l145 85q82 47 109.5 209.5t-23.5 298.5t-163 113l-23 -6q-41 -11 -50 -143q-3 -49 -2 -339v-29v-3q0 -110 7 -186zM1489 291q15 -175 61.5 -249.5t134.5 -74.5q57 0 105 13.5t89 42.5t73.5 63t71.5 84l3 -1l1 -4q-37 -49 -68.5 -81t-73 -62.5
t-91.5 -45.5t-110 -15q-80 0 -127.5 46t-72 161t-24.5 315v3v124q-2 87 -1 156t5.5 118.5t16 78.5t31.5 34l43 10q53 11 101 8.5t94 -14.5t83 -34t68.5 -49.5t51.5 -62t31 -70t7 -74.5t-20 -76t-50 -73.5t-83 -67.5z" />
    <glyph glyph-name="xi" unicode="xi" horiz-adv-x="1960" 
d="M101 986h340l716 -986h-465v18l7 5h91q30 0 42.5 16.5t-1.5 33.5l-253 359q-1 2 -3.5 4.5t-9.5 8t-13.5 8t-15 0.5t-14.5 -11l-265 -356q-48 -63 24 -63h62l7 -5v-18h-248v18l7 5h45q30 0 45.5 12.5t44.5 51.5l268 361q12 19 12 35.5t-6 27.5l-7 11l-266 381
q-21 29 -44 44.5t-61 15.5h-32l-7 5v18zM1874 0h-452v897q249 143 338 226q81 77 81 164q0 85 -60.5 146t-146.5 61q-58 0 -93 -29q-18 -15 -7 -38q4 -7 36.5 -30t39.5 -34q21 -35 -2.5 -72t-64.5 -42t-82 36q-26 35 -17.5 81t45.5 78q66 60 145 60q90 0 153.5 -63.5
t63.5 -153.5q0 -41 -17 -78t-37.5 -61.5t-50.5 -53.5q-8 -7 -11 -10q-10 -10 -1.5 -18t21.5 4q11 9 18 5.5t7 -14.5l-1 -978q0 -60 60 -60h28l7 -5v-18zM1207 0h174v881q-78 -68 -149 -107q-66 -36 -136.5 -38.5t-128.5 22.5t-104.5 70.5t-70.5 100.5t-20.5 118t39.5 118
q53 80 141 80q77 0 128 -59q63 -74 29 -180q-16 -50 -54 -101l-206 -275q-16 -21 -33 -23.5t-27 4.5t-17 18l-205 285q-20 24 -19 36.5t32 12.5h35l9 6v17h-132zM1303 23h-76q-15 0 -25 14l-354 485q-33 44 9 101l210 281q98 132 52 245q-32 78 -116 112q-92 38 -175 -3
q-46 -24 -77 -70q-36 -55 -36 -121t29.5 -125.5t83 -109.5t118.5 -78t142.5 -26.5t148.5 39.5l65 39l30 19q31 20 31 -15v-727q0 -60 -60 -60z" />
    <glyph glyph-name="ll" unicode="ll" horiz-adv-x="1608" 
d="M959 0h-615v1483l66 66h270q8 0 11.5 -0.5t7 -4.5t3.5 -12v-1449q0 -60 60 -60h117q62 0 62 60v1263q0 14 -1 23t-4 17t-10.5 6.5t-18.5 -13.5q-174 -185 -403 -250q-168 -47 -284 -10q-87 28 -94 91q-6 61 68 136q18 18 57 56.5t52 51.5v-1454h-163v18l7 5h76
q62 0 62 60v1249q0 20 -1.5 29.5t-7 18t-19.5 1t-37 -28.5q-111 -104 -67 -173q37 -58 162 -62q159 -5 329 80q116 58 206 148l109 109v-1454zM1358 1532v-1449q0 -60 60 -60h78l7 -5v-18h-503v1483l66 66h270q8 0 11.5 -0.5t7 -4.5t3.5 -12z" />
    <glyph glyph-name="fi" unicode="fi" horiz-adv-x="1400" 
d="M131 0h482v1536q-63 -14 -122.5 -41.5t-113.5 -69t-87 -103t-33 -132.5q0 -154 -0.5 -417.5t-0.5 -470v-219.5q0 -60 -60 -60h-58l-7 -5v-18zM855 0h-201v1542q38 6 72 6q203 0 310 -107q33 -33 82 -35q86 -4 146.5 -67t60.5 -150q0 -41 -17 -78t-37.5 -61.5t-50.5 -53.5
q-3 -2 -4 -3l-3 -3l-4 -4q-10 -10 -1.5 -18t21.5 4q11 9 18 5.5t7 -14.5l-1 -880q0 -60 60 -60h28l7 -5v-18h-452v799q249 143 338 226q81 77 81 164q0 85 -60.5 146t-146.5 61q-58 0 -93 -29q-18 -15 -7 -38q4 -7 36.5 -30t39.5 -34q21 -35 -2.5 -72t-64.5 -42t-82 36
q-16 27 -17.5 51t14 52t33.5 49.5t41 41.5q44 38 -19 85q-66 49 -177 65q-31 4 -59 4q-27 0 -43.5 -4t-23 -14t-8 -17.5t-1.5 -23.5v-473q0 -8 2 -16.5t8 -19.5t21 -18t36 -7h52q16 0 22.5 4.5t6.5 22.5v108h18l5 -7v-244l-5 -7h-18v88q0 18 -6.5 22.5t-22.5 4.5h-52
q-21 0 -36 -7t-21 -18t-8 -19.5t-2 -16.5v-790q0 -60 60 -60h42q60 0 60 60v629q0 17 -8 20t-23 -5l-32 -16l-14 -3l-17 14q71 38 112 61v-783z" />
    <glyph glyph-name="fl" unicode="fl" horiz-adv-x="1465" 
d="M800 1482q-71 51 -164 57q-27 1 -43.5 -3t-23 -15t-8 -19t-1.5 -25v-474q0 -8 2 -16.5t8 -19.5t21 -18t36 -7h52q16 0 22.5 4.5t6.5 22.5v128h18l5 -7v-304l-5 -7h-18v128q0 18 -6.5 22.5t-22.5 4.5h-52q-21 0 -36 -7t-21 -18t-8 -19.5t-2 -16.5v-790q0 -60 60 -60h153
q62 0 62 60v1263q0 21 -11.5 22.5t-21.5 -9.5l-27 -24l-14 -3l-17 14q4 4 17 16t20.5 19t18 19t14.5 21.5t6.5 20.5t-3 21t-17.5 19zM853 1454v-1454h-314v1542q37 6 72 6q70 0 135.5 -25t106.5 -69zM498 0h-482v18l7 5h58q60 0 60 60q0 13 0.5 219.5t0.5 470v417.5
q0 71 33 132.5t87 103t113.5 69t122.5 41.5v-1536zM1252 1532v-1449q0 -60 60 -60h78l7 -5v-18h-503v1483l66 66h270q8 0 11.5 -0.5t7 -4.5t3.5 -12z" />
    <glyph glyph-name="AAA" unicode="AAA" horiz-adv-x="1589" 
d="M214 83l178 547q28 83 93 83h237l205 -630q8 -25 -9 -42.5t-51 -17.5h-111l-7 -5v-18h224l-399 1225l-371 -1142q-21 -60 -89 -60h-74l-7 -5v-18h373v18l-7 5h-125q-37 0 -53 17.5t-7 42.5zM849 1466l433 -1331q22 -65 65.5 -93.5t86.5 -28.5q42 0 62 78q29 107 -5 247
q-47 193 -184 293q-114 82 -274 82v8q256 0 387 -195q90 -133 95 -308q4 -129 -39 -190q-20 -28 -46 -28h-415l-419 1290l29 90q18 0 37 5t35.5 12.5t32.5 17t29.5 19.5t26 19t22.5 15.5t18 9.5t14 0t9 -12zM441 782l130 399l149 -460h-236q-27 0 -40.5 15t-2.5 46z" />
    <glyph glyph-name="gr" unicode="gr" horiz-adv-x="1786" 
d="M845 62q26 -18 46.5 -11t20.5 32v744q0 34 -17.5 41.5t-31.5 -11.5l-440 -526q-11 -13 6 -27t56 -36q9 -5 13 -7q12 -7 95.5 -50.5t139.5 -76.5t112 -72zM508 -782q-164 5 -282 118.5t-142 279.5q-15 102 26 183q22 43 54 62t60.5 14.5t49.5 -24.5q48 -45 20.5 -100
t-106.5 -71q-65 -12 -80 -25q-16 -15 -14 -36q24 -162 139 -273.5t275 -117.5q107 0 202.5 50t148.5 127q25 37 34.5 69.5t1.5 67.5t-41 70.5t-92 72.5q-89 55 -597 352l10 14q434 -253 599 -355q214 -132 93 -296q-62 -84 -156.5 -133t-202.5 -49zM1328 803v-720
q0 -60 60 -60h78l7 -5v-18h-163v986h18v-64q0 -16 7 -20.5t19 5.5q6 5 21 20q68 67 168 67q178 0 178 -80q0 -34 -20.5 -55.5t-47 -25t-52 11.5t-34.5 46q-3 13 0 42t1 34q-6 19 -26 19q-97 0 -160 -63q-1 -1 -9.5 -9t-10 -10t-8.5 -10t-9 -12.5t-6.5 -14t-6 -18t-3 -20.5
t-1.5 -26zM198 84l404 480q1 36 1 132q0 68 -3 117.5t-7 84t-14.5 56.5t-18.5 34t-26 17.5t-29 6.5t-36 1h-5q-60 0 -79 -11q-44 -26 -55 -150q-5 -62 -5 -156v-36q0 -137 5.5 -187t31.5 -71q5 -4 5 -8.5t-4.5 -7t-11.5 -1.5q-42 12 -75 24.5t-76 38t-71.5 56.5t-49 81
t-20.5 111q0 69 20.5 124t57 89t77.5 57t90 34t86 15t74 4q124 0 217 -37q13 -5 20 -7.5t13.5 -3t9 3t2.5 11.5v20q0 84 -173 153q-9 4 -7 10.5t11 6.5h115q14 0 22 -14q75 -126 173 -190l-17 -14q-5 -4 -11 1q-71 52 -85 61q-10 7 -16 3t-6 -17v-20q0 -27 19 -42
q56 -38 87 -101l16 19l104 124h286q25 0 25 -17v-969h-337q42 -37 59.5 -87t10 -115t-23 -121t-45.5 -139q15 47 -27.5 100t-122.5 102q-62 39 -585 344z" />
    <glyph glyph-name="ggg" unicode="ggg" horiz-adv-x="1020" 
d="M473 -782q-164 5 -282 118.5t-142 279.5q-15 102 26 183q22 43 54 62t60.5 14.5t49.5 -24.5q48 -45 20.5 -100t-106.5 -71q-65 -12 -80 -25q-16 -15 -14 -36q24 -162 139 -273.5t275 -117.5q107 0 202.5 50t148.5 127q25 37 34.5 69.5t1.5 67.5t-41 70.5t-92 72.5
q-89 55 -597 352l10 14q434 -253 599 -355q214 -132 93 -296q-62 -84 -156.5 -133t-202.5 -49zM529 402q26 21 31.5 71t5.5 187v36q0 68 -3 117.5t-7 84t-14.5 56.5t-18.5 34t-26 17.5t-29 6.5t-36 1h-5q-60 0 -79 -11q-44 -26 -55 -150q-5 -62 -5 -156v-36q0 -137 5.5 -187
t31.5 -71q17 -15 31 4q31 43 55 79q13 20 28 10q14 -9 3 -25q-2 -3 -25.5 -36t-25.5 -36q-11 -16 9 -16h27h10.5h11h10.5t11.5 0.5t10 1t10.5 1.5t10 3t10 3.5t9 4.5t9 6zM367 366q-8 -12 -11 -17q-8 -14 7.5 -28t52.5 -34q3 -2 5 -3l5 -2.5l5 -2.5q9 -5 93.5 -50.5
t124.5 -68t110 -66t122 -81.5q41 -30 62 -71.5t25.5 -82.5t-6 -100t-25 -105t-39.5 -116q15 47 -27.5 100t-122.5 102q-62 39 -585 344l271 390q7 10 0 14t-14 -6l-64 -92q-9 -12 -42 -5q-40 9 -75.5 22t-77 38t-71 57.5t-49 82.5t-19.5 111q0 69 20.5 124t57 89t77.5 57
t90 34t86 15t74 4q124 0 217 -37q13 -5 20 -7.5t13.5 -3t9 3t2.5 11.5v20q0 84 -173 153q-9 4 -7 10.5t11 6.5h115q14 0 22 -14q75 -126 173 -190l-17 -14q-5 -4 -11 1q-72 52 -85 61q-10 7 -16 3t-6 -17v-20q0 -27 19 -42q118 -83 118 -248q0 -240 -292 -311
q-40 -10 -82 -10h-72q-13 0 -19 -9z" />
    <glyph glyph-name="gi" unicode="gi" 
d="M-580 0h-50q35 -30 52 -71t19.5 -81.5t-8.5 -97t-25 -101t-38 -111.5q15 47 -27.5 100t-122.5 102q-62 39 -585 344l404 436q1 40 1 176q0 68 -3 117.5t-7 84t-14.5 56.5t-18.5 34t-26 17.5t-29 6.5t-36 1h-5q-60 0 -79 -11q-44 -26 -55 -150q-5 -62 -5 -156v-36
q0 -137 5.5 -187t31.5 -71q5 -4 5 -8.5t-4.5 -7t-11.5 -1.5q-42 12 -75 24.5t-76 38t-71.5 56.5t-49 81t-20.5 111q0 69 20.5 124t57 89t77.5 57t90 34t86 15t74 4q124 0 217 -37q13 -5 20 -7.5t13.5 -3t9 3t2.5 11.5v20q0 84 -173 153q-9 4 -7 10.5t11 6.5h115q14 0 22 -14
q75 -126 173 -190l-17 -14q-5 -4 -11 1q-71 52 -85 61q-10 7 -16 3t-6 -17v-20q0 -27 19 -42q79 -57 105 -150l127 137v-931zM-660 22q20 -15 41 -2.5t21 42.5v760q1 26 -16 32t-29 -9l-475 -510q-30 -32 11 -55q29 -16 124 -66.5t176 -97.5t147 -94zM-1055 -782
q-164 5 -282 118.5t-142 279.5q-15 102 26 183q22 43 54 62t60.5 14.5t49.5 -24.5q48 -45 20.5 -100t-106.5 -71q-65 -12 -80 -25q-16 -15 -14 -36q24 -162 139 -273.5t275 -117.5q107 0 202.5 50t148.5 127q25 37 34.5 69.5t1.5 67.5t-41 70.5t-92 72.5q-89 55 -597 352
l10 14q434 -253 599 -355q214 -132 93 -296q-62 -84 -156.5 -133t-202.5 -49zM-87 0h-452v973q46 44 124 118q197 186 246 246t49 129q0 86 -61 146.5t-146 60.5q-58 0 -93 -29q-18 -15 -7 -38q4 -7 36.5 -30t39.5 -34q21 -35 -2.5 -72t-64.5 -42t-82 36q-26 35 -17.5 81
t45.5 78q66 60 145 60q90 0 153.5 -63.5t63.5 -153.5q0 -44 -20 -86t-39.5 -64.5t-56.5 -59.5q-10 -10 -1.5 -18t21.5 4q10 9 17.5 5.5t7.5 -14.5l-1 -1150q0 -60 60 -60h28l7 -5v-18z" />
    <glyph glyph-name="ck" unicode="ck" horiz-adv-x="2235" 
d="M592 -57q-85 4 -157 20.5t-144 55t-122.5 97.5t-81.5 153.5t-31 216.5t31.5 216.5t81.5 152.5t122 96.5t144.5 54.5t156.5 20q-93 -21 -135.5 -146t-42.5 -394v-3q0 -269 42.5 -394t135.5 -146zM785 -18q48 15 68 66.5t20 97.5v1168q0 61 -30.5 65t-76.5 -45l-14 -3
l-17 14l204 204h270q8 0 11.5 -0.5t7 -4.5t3.5 -12v-1110q28 32 41 47v1080h18v-1005q0 -19 13 -23t28 13l266 296q26 35 12.5 52t-54.5 17h-100l-7 5v18h686v-18l-7 -5h-53q-22 0 -34 -13l-189 -218q107 -40 151.5 -105t44 -167t-18.5 -254q0 -43 28.5 -65.5t94.5 -34.5
l14 -9l6 -33h-575l3 158q0 35 16 48q362 304 213 447q-28 27 -78 43.5t-106.5 19t-115 -18.5t-97.5 -65l-104 -116l-393 -453q-33 -38 -100.5 -70t-153.5 -32q-81 0 -128.5 45.5t-72 160.5t-24.5 316v3q0 201 24.5 316t72 160.5t128.5 45.5q54 0 96 -13q34 -10 34 23v35h19
l4 -5v-232l-4 -5h-19v101q0 26 -1.5 37t-9.5 22.5t-26 17.5q-50 13 -93 13q-111 0 -159 -114.5t-48 -401.5v-3q0 -195 22 -308t66 -160.5t119 -47.5q54 0 105 15z" />
    <glyph glyph-name="TT" unicode="TT" horiz-adv-x="2298" 
d="M422 1410h-265q-41 0 -50 -13t-9 -50v-129h-18l-5 7v218l5 7h11q1 -1 3.5 -6t4 -7.5t6 -6.5t10.5 -6t17 -3.5t25 -1.5h685v-1419h-545v18l7 5h118q60 0 60 60v1267q0 60 -60 60zM883 1419h540v-1419h-203v18l7 5h118q60 0 60 60v1267q0 60 -60 60h-384q-60 0 -60 -60
v-1267q0 -60 60 -60h118l7 -5v-18h-203v1419zM2149 1410h-265q-60 0 -60 -60v-1267q0 -60 60 -60h118l7 -5v-18h-545v1419h685q14 0 25 1.5t17 3.5t10.5 6t6 6.5t4 7.5t3.5 6h11l5 -7v-218l-5 -7h-18v129q0 20 -1 28.5t-6.5 18.5t-17.5 13t-34 3z" />
    <glyph glyph-name="xl" unicode="xl" horiz-adv-x="1945" 
d="M81 986h340l716 -986h-465v18l7 5h91q30 0 42.5 16.5t-1.5 33.5l-253 359q-1 2 -3.5 4.5t-9.5 8t-13.5 8t-15 0.5t-14.5 -11l-265 -356q-48 -63 24 -63h62l7 -5v-18h-248v18l7 5h45q30 0 45.5 12.5t44.5 51.5l268 361q12 19 12 35.5t-6 27.5l-7 11l-266 381
q-21 29 -44 44.5t-61 15.5h-32l-7 5v18zM1400 0v1494l39 55h297q8 0 11.5 -0.5t7 -4.5t3.5 -12v-1449q0 -60 60 -60h78l7 -5v-18h-503zM1293 1346l-499 -661q-42 -57 -9 -101l397 -547q10 -14 25 -14h72q62 0 62 60v1253q0 22 -17 26t-31 -16zM786 692l573 762v-1454h-172
l-715 986h132v-17l-9 -6h-35q-31 0 -32 -12.5t19 -36.5l162 -223q7 -11 17 -18t27 -4.5t33 23.5z" />
    <glyph glyph-name="xt" unicode="xt" horiz-adv-x="2183" 
d="M1755 -335l-18 4v1649h18v-695q0 -12 3 -23.5t19 -24.5t44 -13h99q16 0 22.5 4.5t6.5 22.5v128h18l5 -7v-304l-5 -7h-18v128q0 18 -6.5 22.5t-22.5 4.5h-99q-28 0 -44 -13t-19 -24.5t-3 -23.5v-722q0 -132 182 -114q37 3 46 30t-24 84q-17 27 -21 52.5t4 44t24 32.5
t36.5 20.5t42.5 5t41 -11.5q37 -19 47 -52t-5 -67t-42.5 -66t-68 -54t-79.5 -25q-84 -8 -183 15zM81 986h340l716 -986h-465v18l7 5h91q30 0 42.5 16.5t-1.5 33.5l-253 359q-1 2 -3.5 4.5t-9.5 8t-13.5 8t-15 0.5t-14.5 -11l-265 -356q-48 -63 24 -63h62l7 -5v-18h-248v18
l7 5h45q30 0 45.5 12.5t44.5 51.5l268 361q12 19 12 35.5t-6 27.5l-7 11l-266 381q-21 29 -44 44.5t-61 15.5h-32l-7 5v18zM1237 0h-50l-715 986h132v-17l-9 -6h-35q-31 0 -32 -12.5t19 -36.5l218 -304q7 -11 17 -18t27 -4t33 23l563 707h266q25 0 25 -17v-1624
q-71 21 -133 54.5t-113.5 80t-81.5 111t-30 137.5l1 1007q0 64 -24.5 76t-65.5 -38l-399 -501q-43 -55 -9 -101l341 -466q10 -14 25 -14h23l7 -5v-18z" />
    <glyph glyph-name=".notdef" horiz-adv-x="486" 
 />
    <glyph glyph-name=".null" 
 />
    <glyph glyph-name="nonmarkingreturn" horiz-adv-x="682" 
 />
    <glyph glyph-name="CR" unicode="&#xd;" 
 />
    <glyph glyph-name="space" unicode=" " horiz-adv-x="486" 
 />
    <glyph glyph-name="exclam" unicode="!" horiz-adv-x="660" 
d="M107 262q40 57 110 57q55 0 94.5 -39.5t39.5 -94.5q0 -40 -22 -73q-34 -51 -105 -51q-18 0 -17 -13q1 -17 29 -29q20 -9 46 -9q86 0 146.5 61t60.5 146q0 87 -81 164q-179 170 -313 303l17 14l14 -3q46 -49 76.5 -45t30.5 65v534q0 44 22 62q9 8 7.5 17.5t-10 11.5
t-19.5 -6q-8 -6 -48 -42t-60 -52l-14 -3l-17 14l204 204h105q25 0 25 -17v-995q0 -11 -7 -14.5t-18 5.5q-15 14 -23 3q-6 -8 3 -17q62 -62 81 -91q35 -52 35 -112q0 -90 -63.5 -153.5t-153.5 -63.5q-79 0 -145 60q-25 22 -41.5 55t-15 73.5t26.5 73.5z" />
    <glyph glyph-name="quotedbl" unicode="&#x22;" horiz-adv-x="786" 
d="M304 1475q-11 38 -36.5 51.5t-54 10.5t-73 2t-81.5 26q-53 30 -70 79t-1.5 91t61 68t105.5 16q60 -11 103 -76.5t56 -146.5q8 -43 13 -86.5t8.5 -99.5t5 -84t3 -101t2.5 -90q0 -12 -5.5 -16t-12 0.5t-6.5 13.5q0 286 -17 342zM465 1475q-17 -56 -17 -342q0 -9 -6.5 -13.5
t-12 -0.5t-5.5 16q1 17 2.5 90t3 101t5 84t8.5 99.5t13 86.5q13 81 56 146.5t103 76.5q60 10 105.5 -16t61 -68t-1.5 -91t-70 -79q-37 -21 -81.5 -26t-73 -2t-54 -10.5t-36.5 -51.5z" />
    <glyph glyph-name="dollar" unicode="$" horiz-adv-x="962" 
d="M702 1124q92 -69 98 -137q8 -81 -46 -99q-40 -13 -76 15q-39 29 -21 71q6 13 17 25q45 49 49.5 72.5t-26.5 48.5q-120 89 -264 84.5t-244 -102.5q-41 -40 -56 -73.5t-8.5 -61t40.5 -56t79.5 -53t120.5 -58.5q264 -117 371 -172q76 -39 119 -90t54 -114t5.5 -121
t-24.5 -135q-38 -128 -154.5 -210t-266.5 -82q-127 0 -231.5 59.5t-158.5 158.5q-61 108 -26 178q30 62 85 55q41 -4 60 -38q23 -41 -18 -73q-8 -7 -18 -12q-63 -32 -77 -53t5 -56q54 -95 155.5 -152.5t223.5 -57.5q146 0 260 80t152 206q8 42 -46 72q-16 9 -118 51
q-414 177 -421 180q-133 59 -194 173.5t-38.5 239.5t119.5 219q103 101 253 105t266 -87zM465 1459h8v-1905h-8v1905zM424 1207v-1325h-8v1325h8zM514 -118v1320h7v-1320h-7z" />
    <glyph glyph-name="percent" unicode="%" horiz-adv-x="1707" 
d="M236 0l1178 1414l-4 5h-4l-1178 -1414l4 -5h4zM710 1077q0 -76 -20 -141t-52.5 -109.5t-75 -76.5t-86.5 -46.5t-87 -14.5q-55 0 -110.5 24t-103.5 69.5t-78 122t-30 170.5t30 170.5t78 122.5t103.5 70.5t110.5 24.5q54 0 109.5 -24.5t103.5 -70t78 -122t30 -169.5z
M234 1075q0 -161 15 -242.5t46.5 -111t93.5 -29.5q60 0 91.5 29.5t46.5 112t15 243.5q0 160 -15 241.5t-46 110.5t-92 29q-62 0 -93.5 -29.5t-46.5 -111t-15 -242.5zM1574 358q0 -76 -20 -141t-52.5 -109.5t-75 -76.5t-86.5 -46.5t-87 -14.5q-55 0 -110.5 24t-103.5 69.5
t-78 122t-30 170.5t30 170.5t78 122.5t103.5 70.5t110.5 24.5q54 0 109.5 -24.5t103.5 -70t78 -122t30 -169.5zM1098 356q0 -161 15 -242.5t46.5 -111t93.5 -29.5q60 0 91.5 29.5t46.5 112t15 243.5q0 160 -15 241.5t-46 110.5t-92 29q-62 0 -93.5 -29.5t-46.5 -111
t-15 -242.5z" />
    <glyph glyph-name="ampersand" unicode="&#x26;" horiz-adv-x="1627" 
d="M916 39l-34 32q-125 -95 -274 -95q-92 0 -179 37t-152.5 98t-106 145t-47 172.5t32 185t123.5 178.5q83 81 204.5 196t211.5 204q18 17 38 36.5t34 32.5t29.5 27.5t25 24.5t19 20.5t14.5 17.5t8 14t2 12.5t-5 10.5l-9 11l16 -14q82 -73 102 -193q21 -125 -39 -233
t-208 -244q-18 -17 -228 -208t-273 -251q-29 -28 -12 -55q15 -22 40 -14q9 3 17 11l592 549q12 12 7.5 19.5t-17.5 7.5h-13l-7 6v18h647v-19l-7 -5h-38q-21 0 -34 -13l-828 -773q129 -13 242.5 48t185.5 172q52 80 64 166.5t-25.5 166.5t-125.5 125l3 4q170 -87 157 -280
l384 -367q2 -2 11.5 -11t13.5 -12t12.5 -10.5t15 -11t15.5 -8t18 -6t19 -1.5h53l7 -5v-18h-708v18l7 5h41q11 0 15.5 9.5t-3.5 16.5l-39 37q-102 -90 -247.5 -112t-292.5 39t-238 198q-65 98 -86.5 210t14 232.5t134.5 216.5q83 81 204.5 196t211.5 204q26 25 71 67
q86 82 97 104q9 17 -3 25q-82 56 -184 56q-114 0 -207 -70q-61 -45 -97.5 -118.5t-36.5 -157.5q0 -104 60 -189l5 -7l-7 -8l-5 7q-62 89 -62 197q0 85 36.5 159t100.5 123q94 71 213 71q53 0 109 -17.5t95 -50.5q15 -13 -7.5 -41t-86.5 -88q-15 -13 -23 -21t-22 -21t-26 -25
q-90 -89 -211.5 -204t-204.5 -196q-98 -95 -133.5 -213t-15 -225.5t82.5 -202.5q85 -131 224 -190.5t279.5 -40.5t243.5 106z" />
    <glyph glyph-name="quotesingle" unicode="'" horiz-adv-x="403" 
d="M192 1475q-12 30 -30.5 42.5t-42.5 11.5t-50 -4.5t-61.5 -1t-68.5 16.5q-45 20 -69 55t-22 71.5t19 69t55 51.5t87 15q60 -4 109.5 -65.5t70.5 -140.5q12 -42 21.5 -85.5t18.5 -97.5t13.5 -84t13 -99t11.5 -90q1 -7 -1 -11.5t-5.5 -5.5t-7 0t-6.5 4.5t-4 8.5
q-27 283 -51 339z" />
    <glyph glyph-name="parenleft" unicode="(" horiz-adv-x="638" 
d="M490 603q0 -131 1 -208t4 -174t10 -153.5t19 -120.5t30 -103t44 -73.5t61 -56.5q113 -73 129 -82q24 -14 56.5 -20.5t51.5 -7.5t66.5 0t60.5 1q15 0 21 -11t-1 -22t-23 -11q-137 0 -236 61q-100 63 -130 83q-60 40 -103.5 72t-101.5 83.5t-99.5 101t-85.5 120t-71 145
t-44.5 171.5t-17.5 205t17.5 205t44.5 171.5t71 145t85.5 120t99.5 101t101.5 83.5t103.5 72q30 20 130 83q99 61 236 61q16 0 23 -11t1 -22t-21 -11q-13 0 -60.5 1t-66.5 0t-51.5 -7.5t-56.5 -20.5q-16 -9 -129 -82q-35 -22 -61 -56.5t-44 -73.5t-30 -103t-19 -120.5
t-10 -153.5t-4 -174t-1 -208z" />
    <glyph glyph-name="parenright" unicode=")" horiz-adv-x="684" 
d="M218 603q0 131 -1 208t-4 174t-10 153.5t-19 120.5t-30 103t-44 73.5t-61 56.5q-113 73 -129 82q-24 14 -56.5 20.5t-51.5 7.5t-66.5 0t-60.5 -1q-15 0 -21 11t1 22t23 11q137 0 236 -61q100 -63 130 -83q60 -40 103.5 -72t101.5 -83.5t99.5 -101t85.5 -120t71 -145
t44.5 -171.5t17.5 -205t-17.5 -205t-44.5 -171.5t-71 -145t-85.5 -120t-99.5 -101t-101.5 -83.5t-103.5 -72q-30 -20 -130 -83q-99 -61 -236 -61q-16 0 -23 11t-1 22t21 11q13 0 60.5 -1t66.5 0t51.5 7.5t56.5 20.5q16 9 129 82q35 22 61 56.5t44 73.5t30 103t19 120.5
t10 153.5t4 174t1 208z" />
    <glyph glyph-name="asterisk" unicode="*" horiz-adv-x="962" 
d="M553 818q-17 29 -43.5 122.5t-37.5 122.5q-13 -33 -39 -124.5t-42 -120.5q-17 -29 -49.5 -37.5t-60.5 7.5q-29 16 -38 49t7 62q17 29 84.5 99t87.5 94q-30 -5 -124.5 -28.5t-128.5 -23.5q-33 0 -57 23.5t-24 56.5q0 34 24 57.5t57 24.5q34 0 128 -24t125 -29
q-20 24 -87.5 94.5t-84.5 99.5q-16 28 -7.5 61t36.5 49q29 17 62 8.5t50 -37.5q16 -29 42 -121t39 -125q11 29 37.5 123t43.5 123t49.5 37.5t60.5 -8.5q29 -16 38 -49t-7 -61q-17 -29 -84 -97.5t-88 -95.5q30 5 124.5 28.5t128.5 23.5q33 0 57 -24t23 -57q1 -33 -23 -56.5
t-57 -24.5q-34 0 -127.5 23.5t-125.5 28.5q20 -25 87.5 -94.5t84.5 -98.5q16 -28 7 -61t-38 -49q-28 -17 -60.5 -8.5t-49.5 37.5z" />
    <glyph glyph-name="plus" unicode="+" horiz-adv-x="1192" 
d="M136 592v60h883v-60h-883zM607 180h-60v883h60v-883z" />
    <glyph glyph-name="comma" unicode="," horiz-adv-x="535" 
d="M301 -86q14 24 15 43.5t-8 34t-24 32t-30.5 33.5t-31 42.5t-22.5 55.5q-14 59 10 105t66 63t92 1.5t83 -66.5q24 -36 20 -84t-24 -95.5t-51 -88.5q-27 -35 -56 -69.5t-65 -72.5t-60 -62t-70 -69.5t-65 -64.5q-13 -12 -20.5 -3t2.5 20q67 61 145 139t94 106z" />
    <glyph glyph-name="hyphen" unicode="-" horiz-adv-x="1201" 
d="M136 592v60h883v-60h-883z" />
    <glyph glyph-name="period" unicode="." horiz-adv-x="461" 
d="M100 77q0 55 37.5 92.5t92.5 37.5t92.5 -37.5t37.5 -92.5t-37.5 -92.5t-92.5 -37.5t-92.5 37.5t-37.5 92.5z" />
    <glyph glyph-name="slash" unicode="/" horiz-adv-x="1680" 
d="M70 -310l1056 1830h358l-1055 -1829zM1599 1520l-1056 -1830h-28l1056 1830h28z" />
    <glyph glyph-name="zero" unicode="0" horiz-adv-x="1267" 
d="M469 539q0 -310 37 -437t131 -127q95 0 132 127t37 437t-37 437t-132 127q-94 0 -131 -127t-37 -437zM409 539q0 -298 34.5 -439.5t117.5 -165.5q-65 11 -134.5 43.5t-136.5 87t-120 123t-85.5 160.5t-32.5 191t32.5 191t85.5 160.5t120 123t136.5 87t134.5 43.5
q-83 -24 -117.5 -165.5t-34.5 -439.5zM825 539q0 -323 -40.5 -447.5t-146.5 -124.5q-72 0 -112.5 54.5t-58 176.5t-17.5 341t17.5 341t58 176.5t112.5 54.5q106 0 146.5 -124.5t40.5 -447.5zM866 539q0 298 -34.5 439.5t-117.5 165.5q65 -11 134.5 -43.5t136.5 -87t120 -123
t85.5 -160.5t32.5 -191t-32.5 -191t-85.5 -160.5t-120 -123t-136.5 -87t-134.5 -43.5q83 24 117.5 165.5t34.5 439.5z" />
    <glyph glyph-name="one" unicode="1" horiz-adv-x="704" 
d="M464 1141v-1141h-430v9h111q60 0 60 60v813q-115 -66 -206 -103l-3 5q80 34 153.5 78.5t122.5 83.5t92.5 82t63.5 67.5t36 45.5zM505 1129l18 -5v-1055q0 -60 60 -60h111v-9h-189v1129z" />
    <glyph glyph-name="two" unicode="2" horiz-adv-x="984" 
d="M647 444q-54 -28 -139.5 -41t-165 -18.5t-158 -18.5t-139 -52.5t-87.5 -109.5q10 59 88 122t165.5 106t198 95t150.5 76q58 35 101.5 91.5t64 116t17.5 119t-32 101.5q71 -52 108.5 -130.5t35.5 -161t-55 -163.5t-153 -132zM-58 265q52 68 128.5 127t142.5 93.5t161 83.5
t150 82q70 43 113 102.5t49.5 118.5t-12 110t-72 82t-129.5 30q-129 -3 -247 -79.5t-181 -184.5l-4 3q65 108 184 187.5t248 81.5q66 1 117 -21.5t79.5 -60t37 -87t-6 -101t-56 -104.5t-106.5 -94q-31 -20 -116.5 -59t-162.5 -75.5t-165.5 -99.5t-141.5 -134
q-61 -82 12 -103q76 -21 230 29q162 53 271 143q80 59 168.5 50t165.5 -67t108 -137l75 -180h-11q-37 104 -68 158.5t-59.5 66t-54.5 -3t-62 -49.5t-73 -72.5t-96 -73.5t-124 -50q-64 -14 -108 -6.5t-67 28t-42 47t-31.5 50.5t-36.5 39.5t-58 13.5q-49 -3 -71.5 -47.5
t-12.5 -85.5l-19 -15h-135q0 146 89 264z" />
    <glyph glyph-name="three" unicode="3" horiz-adv-x="872" 
d="M61 438l-6 9q70 49 139 76t126 31.5t104 -10.5t77.5 -46t42.5 -79t3.5 -105.5t-44 -128.5t-96.5 -146q-67 -82 -155 -148.5t-177.5 -101.5t-168.5 -39.5t-134.5 39.5t-68.5 133h12q13 -83 66.5 -123t130 -33.5t163 41.5t172 100.5t150.5 146.5q74 92 107 179t26 149.5
t-46 104.5t-100.5 53.5t-147 -14t-175.5 -88.5zM729 1065l-504 -452q-21 -19 -13.5 -33.5t37.5 -7.5q79 19 151 12t138 -29t119.5 -63t95.5 -90.5t66.5 -112t31 -126t-9.5 -133t-56 -134.5q-80 -130 -197 -212t-237.5 -106t-238 -11.5t-210.5 63.5t-143 125
q41 -37 106.5 -44t140.5 14t153 61t151 99t127 126q74 102 113 189.5t41.5 149.5t-18 109t-62 73t-95 36.5t-112.5 4.5t-119.5 -27.5t-110.5 -56.5l636 568h-460v8h479z" />
    <glyph glyph-name="four" unicode="4" horiz-adv-x="1008" 
d="M33 400h399v388q76 28 151 65.5t111 61.5l37 24v-1318h-470v9h111q60 0 60 60v702h-528l748 1030l6 -5l-667 -919q-72 -98 42 -98zM772 927l18 -5v-522h245v-8h-245v-702q0 -60 60 -60h111v-9h-189v1306z" />
    <glyph glyph-name="five" unicode="5" horiz-adv-x="968" 
d="M409 1057l-186 -398q-7 -15 -5.5 -31t17 -26.5t50.5 0.5q81 25 160 27.5t146.5 -15t126.5 -52.5t102 -83t70 -110t34 -130.5t-9.5 -146.5t-57.5 -156q-49 -94 -132.5 -165t-179 -109.5t-201.5 -51t-200.5 4t-176 63t-129.5 117.5q51 -46 140 -45.5t185 38.5t192 108
t161 155q79 103 121 191.5t46 150.5t-16.5 109.5t-63 73.5t-97.5 36.5t-116 3.5t-123 -29t-114 -58l253 536h503v-8h-500zM140 478l-6 9q70 49 139 76t126 31.5t104 -10.5t77.5 -46t42.5 -79t3.5 -105.5t-44 -128.5t-96.5 -146q-67 -82 -155 -148.5t-177.5 -101.5
t-168.5 -39.5t-134.5 39.5t-68.5 133h12q13 -83 66.5 -123t130 -33.5t163 41.5t172 100.5t150.5 146.5q74 92 107 179t26 149.5t-46 104.5t-100.5 53.5t-147 -14t-175.5 -88.5z" />
    <glyph glyph-name="six" unicode="6" horiz-adv-x="1128" 
d="M619 -133q72 28 104 170.5t32 398.5q0 259 -32 400t-104 169q57 -8 118 -35t123.5 -75.5t111.5 -112.5t80 -154t31 -192t-31 -192t-80 -154t-111.5 -112.5t-123.5 -75.5t-118 -35zM512 -133q-57 8 -118 34.5t-123.5 75.5t-112 112.5t-80.5 154t-31 192.5q0 227 165 436
l717 912l7 -5l-714 -909q-27 -35 -7 -47q19 -9 38 8q45 45 78 74t84.5 60.5t96.5 38.5q-72 -27 -104.5 -168t-32.5 -400q0 -257 32.5 -399t104.5 -170zM565 -107q-80 0 -113.5 136t-33.5 407q0 272 33.5 407.5t113.5 135.5t113.5 -135.5t33.5 -407.5q0 -271 -33.5 -407
t-113.5 -136zM565 -102q73 0 101.5 137t28.5 401q0 266 -28.5 402t-101.5 136t-101.5 -136t-28.5 -402q0 -264 28.5 -401t101.5 -137z" />
    <glyph glyph-name="seven" unicode="7" horiz-adv-x="767" 
d="M814 1065q-130 -105 -265 -280q-106 -138 -176.5 -322.5t-80.5 -372t77 -324.5l-64 -145h-344q13 96 58.5 234.5t124.5 305t177 328.5t228 317t265 259zM-117 -379q19 113 79.5 275t152.5 347t228 380t286 343l17 16q17 17 42 40t40 35h-721v8h742q-15 -12 -42.5 -37
t-46.5 -44l-20 -18q-149 -148 -282.5 -343t-222 -380.5t-145.5 -346t-77 -275.5h-30z" />
    <glyph glyph-name="eight" unicode="8" horiz-adv-x="1072" 
d="M362 1406q80 40 174 40q164 0 280 -116t116 -280q0 -125 -71 -226q-36 28 -209 131q-233 138 -314 220q-146 146 24 231zM245 796q-117 133 -109 281q6 155 116 263q-16 -26 -15.5 -55.5t13.5 -57.5t40.5 -59.5t59 -59.5t76.5 -60t85.5 -58.5t92.5 -58.5
q140 -76 229 -143q218 -187 168 -447q-24 -118 -89 -204q19 56 -13.5 120.5t-127 144.5t-146.5 118t-171 117q-6 5 -10 7.5t-9.5 6t-9.5 6.5q-3 2 -24.5 16.5t-26 17.5l-22.5 15t-24 17t-20.5 16t-23 18.5t-19 18zM217 758q-134 -136 -134 -327q0 -126 62 -232.5t169 -168.5
t233 -62q202 3 304 108q28 29 30.5 64.5t-18.5 73.5t-57 78.5t-86.5 82.5t-104 82.5t-112.5 82.5t-110.5 78.5t-99 74t-76.5 65.5zM260 691q27 -19 91 -63q264 -183 371 -279q198 -179 127 -263q-41 -48 -118.5 -78.5t-183.5 -32.5q-189 0 -322.5 134t-133.5 322
q0 129 68 240q16 25 40.5 33t60.5 -13zM899 907q27 63 27 143q0 161 -114.5 275.5t-275.5 114.5q-90 0 -171 -39q-188 -89 48 -272q88 -69 316 -201q45 -26 68 -40q28 -16 50 -16t33.5 9.5t18.5 25.5z" />
    <glyph glyph-name="nine" unicode="9" horiz-adv-x="1104" 
d="M550 65q83 20 120 161.5t37 411.5q0 269 -37 412t-120 163q60 -5 122 -25t128.5 -65t117.5 -107.5t84 -161t33 -216.5q0 -87 -28.5 -165.5t-88 -152t-121.5 -131t-158 -134.5l-672 -544l-5 8l678 547q32 27 18 40q-13 10 -30 -4q-16 -15 -40 -26t-38 -11zM471 64
q-56 6 -119 31.5t-127.5 74.5t-116 113.5t-84 157.5t-32.5 197t32.5 197t84 157.5t116 113.5t127.5 75t119 32q-80 -20 -115.5 -163.5t-35.5 -411.5q0 -270 35.5 -411.5t115.5 -162.5zM510 1177q-73 0 -102.5 -137.5t-29.5 -401.5q0 -265 29.5 -401.5t102.5 -136.5
t102.5 136.5t29.5 401.5q0 264 -29.5 401.5t-102.5 137.5zM510 95q-82 0 -116 134.5t-34 408.5q0 273 34 408t116 135t116 -135t34 -408q0 -274 -34 -408.5t-116 -134.5z" />
    <glyph glyph-name="colon" unicode=":" horiz-adv-x="412" 
d="M83 294q0 55 37.5 92.5t92.5 37.5t92.5 -37.5t37.5 -92.5t-37.5 -92.5t-92.5 -37.5t-92.5 37.5t-37.5 92.5zM83 701q0 55 37.5 92.5t92.5 37.5t92.5 -37.5t37.5 -92.5t-37.5 -92.5t-92.5 -37.5t-92.5 37.5t-37.5 92.5z" />
    <glyph glyph-name="semicolon" unicode=";" horiz-adv-x="593" 
d="M316 -157q-28 -49 -239 -246q-6 -6 -5 -14t7.5 -9t15.5 7q19 19 65 64t70 69.5t60 62.5t65 72t56 69q32 42 51.5 89t23.5 95.5t-20 84.5q-26 41 -64.5 60t-75 12.5t-66.5 -27.5t-43 -61t-2 -88q7 -29 22.5 -55t31 -42.5t30.5 -33.5t24 -31.5t8 -34.5t-15 -43zM208 719
q0 55 37.5 92.5t92.5 37.5t92 -37.5t37 -92.5t-37 -92.5t-92 -37.5t-92.5 37.5t-37.5 92.5z" />
    <glyph glyph-name="less" unicode="&#x3c;" horiz-adv-x="1014" 
d="M887 926l-705 -406l705 -407l-30 -52l-795 459l795 458z" />
    <glyph glyph-name="equal" unicode="=" horiz-adv-x="1150" 
d="M136 592v60h883v-60h-883zM136 386v60h883v-60h-883z" />
    <glyph glyph-name="greater" unicode="&#x3e;" horiz-adv-x="1014" 
d="M797 520l-705 406l30 52l795 -458l-795 -459l-30 52z" />
    <glyph glyph-name="question" unicode="?" horiz-adv-x="919" 
d="M716 1381q65 -55 100.5 -131.5t37 -161t-41.5 -175t-129 -165.5q-42 -37 -126.5 -108t-131 -111.5t-106.5 -98.5t-102 -109q-74 -89 -74 -174t60.5 -146t146.5 -61q51 0 71 27q12 17 -4 23q-4 1 -9 1q-71 0 -105 51q-22 33 -22 73q0 55 39.5 94.5t94.5 39.5q70 0 110 -57
q25 -33 26.5 -73.5t-15 -73.5t-41.5 -55q-66 -60 -145 -60q-90 0 -153.5 63.5t-63.5 153.5q0 15 1.5 29.5t6 28.5t7.5 24t11 24.5t12 21t15 21.5t14.5 19.5t17 21.5t16.5 20q24 29 26 77.5t-11.5 97t-30.5 93t-32 72.5l-14 28q-11 19 -10.5 32.5t20.5 31.5q202 178 450 416
q130 125 84 176zM656 1422q12 -7 20 -14t13 -22t-0.5 -33t-26.5 -47.5t-58 -65.5q-67 -64 -227.5 -212.5t-246.5 -224.5l-7 11q86 76 247 225t228 213q37 36 56.5 64.5t24.5 44.5t-4 30t-15 18t-21 12q-86 47 -192 47q-148 0 -242 -76.5t-106 -168.5q-3 -24 9 -39t42 -30
t38 -21q42 -31 22 -68q-16 -31 -52 -34q-49 -4 -70 53q-8 21 -11 49q-6 60 16 120t66.5 110t120 81.5t167.5 31.5q114 0 209 -54z" />
    <glyph glyph-name="at" unicode="@" horiz-adv-x="1695" 
d="M993 183q11 14 32 49t50 99t46 127t9.5 129.5t-49.5 108.5q-21 21 -32 30t-39 25t-69.5 23t-98.5 7q-97 1 -130 -150q-32 -144 4 -339q31 -173 90 -234q44 -45 87 3q48 54 100 122zM1095 -317q16 9 12 30q-1 4 -12.5 26.5t-12.5 32.5q-4 28 15.5 46.5t47 16t41.5 -27.5
q14 -23 2 -54t-46 -51q-25 -18 -43 -26q-102 -41 -255 -41q-405 0 -644 213q-183 164 -224 411q-38 240 69 467q110 232 336 364q235 138 547 132q126 -2 233.5 -28t186 -70t139.5 -104t98 -129.5t55.5 -147t17.5 -157t-20 -158.5q-56 -234 -212 -364q-115 -95 -233 -95
q-103 -1 -148 75q-24 40 -24 97q0 16 -6 21.5t-15 1t-18 -15.5q-11 -14 -30.5 -38l-26 -32t-21 -24t-21 -20.5t-21 -13.5t-25 -10.5t-29 -5t-38 -4t-47.5 -0.5q-182 0 -277 129q-81 111 -66 264q15 157 125 268q130 131 340 131q167 0 247 -90q8 -9 18 -11.5t23 3t21.5 10.5
t24 16t19.5 14q116 76 144 78q21 2 19 -23q0 -6 -2 -14q-6 -25 -22.5 -86t-24.5 -95q-15 -66 -42.5 -163t-41 -164.5t-13.5 -141.5q0 -73 58 -91q64 -21 148 40q120 87 184 277q12 37 22 77q28 106 20 205.5t-40 186t-96 158.5t-148.5 123t-197 79.5t-242.5 28.5
q-271 0 -466 -204q-164 -172 -225 -432q-61 -262 9 -493q75 -243 271 -356q141 -81 332 -81q68 0 140.5 10.5t110.5 29.5z" />
    <glyph glyph-name="A" unicode="A" horiz-adv-x="1424" 
d="M182 83l178 547q28 83 93 83h237l205 -630q8 -25 -9 -42.5t-51 -17.5h-111l-7 -5v-18h224l-399 1225l-371 -1142q-21 -60 -89 -60h-74l-7 -5v-18h373v18l-7 5h-125q-37 0 -53 17.5t-7 42.5zM564 1290l29 90q18 0 37 5t35.5 12.5t32.5 17t29.5 19.5t26 19t22.5 15.5
t18 9.5t14 0t9 -12l461 -1417q6 -16 15.5 -21t30.5 -5h80l7 -5v-18h-428zM409 782l130 399l149 -460h-236q-27 0 -40.5 15t-2.5 46z" />
    <glyph glyph-name="B" unicode="B" horiz-adv-x="1509" 
d="M781 0h-159v1419h357q81 0 142.5 -34.5t93 -88.5t40 -120.5t-7.5 -128.5t-58 -115t-103 -78q200 -15 311 -152q94 -117 85 -271q-9 -162 -129 -277q-158 -154 -443 -154h-129zM40 1419h541v-1419h-541v18l7 5h118q60 0 60 60v1253q0 60 -60 60h-118l-7 5v18zM807 1410
h-107q-60 0 -60 -60v-586v-5.5t2 -13t6.5 -14.5t12.5 -9.5t21 1.5l105 37q45 15 83 59t60.5 102.5t35 125.5t7.5 131t-22 116t-54.5 84t-89.5 32zM640 617v-549q0 -60 60 -60h211q147 0 215 136q61 120 36 287q-23 162 -113 258q-110 116 -262 63l-104 -37q-26 -9 -34.5 -33
t-8.5 -65z" />
    <glyph glyph-name="C" unicode="C" horiz-adv-x="1208" 
d="M610 -54q-84 12 -166.5 50t-158 104t-133 152.5t-92 204.5t-34.5 250q0 133 34.5 251t92 204.5t133 153t158 104.5t166.5 50q-69 -11 -112 -54.5t-69 -137.5t-35.5 -227t-9.5 -344q0 -169 6 -284t20.5 -206.5t40.5 -145.5t64.5 -85t94.5 -40zM706 1450q207 0 369 -153
q9 -9 15.5 -13t15 -6.5t13 8t4.5 34.5v60h18l5 -7v-330l-5 -7h-18v93q0 88 -64 161.5t-159 112.5t-194 39q-55 0 -93.5 -14t-68.5 -49.5t-49 -88.5t-30.5 -138.5t-16 -190.5t-4.5 -254q0 -179 7 -295.5t23 -204.5t47 -135t74.5 -70.5t110.5 -27.5q298 0 401 181
q15 27 20.5 57t-5 62t-37.5 55q-41 34 -19 71q17 30 52 30q44 1 59 -53q0 -2 1 -4q8 -30 -11 -95t-53 -127q-46 -85 -150 -135t-258 -50q-72 2 -118.5 24.5t-80 69.5t-50.5 136t-24.5 208t-7.5 303t7.5 305t25 210.5t51 137t80 69t117.5 21.5z" />
    <glyph glyph-name="D" unicode="D" horiz-adv-x="1618" 
d="M612 0v1419h257q218 0 373.5 -72.5t244.5 -227.5t94 -386q0 -368 -185.5 -550.5t-526.5 -182.5h-257zM77 0h494v1419h-494v-18l7 -5h68q60 0 60 -60v-1253q0 -60 -60 -60h-68l-7 -5v-18zM690 8h179q62 0 108 7t83.5 27t62.5 44.5t44 71t29.5 95t16.5 127t8 157t2 194.5
q0 101 -2 169t-8 140.5t-17 118.5t-29 92t-43.5 72.5t-61.5 48t-83 30t-108 8.5h-181q-60 0 -60 -60v-1282q0 -60 60 -60z" />
    <glyph glyph-name="E" unicode="E" horiz-adv-x="1219" 
d="M513 0h-506v18l7 5h78q60 0 60 60v1253q0 60 -60 60h-78l-7 5v18h506v-1419zM572 1350v-534q0 -12 3 -23.5t19 -24.5t44 -13h293q16 0 22.5 4.5t6.5 22.5v128h18l5 -7v-304l-5 -7h-18v128q0 18 -6.5 22.5t-22.5 4.5h-293q-28 0 -44 -13t-19 -24.5t-3 -23.5v-618
q0 -60 60 -60h364q62 0 106.5 31.5t44.5 85.5v117h18l5 -7v-228l-5 -7h-18v12q0 24 -5.5 27t-22.5 -7q-16 -9 -28 -14.5t-39 -11.5t-56 -6h-442v1419h442q29 0 57 -6.5t37.5 -11t28.5 -14.5q17 -10 22.5 -7t5.5 27v12h18l5 -7v-229l-5 -7h-18v117q0 54 -44.5 85.5
t-106.5 31.5h-364q-60 0 -60 -60z" />
    <glyph glyph-name="F" unicode="F" horiz-adv-x="1157" 
d="M541 0h-506v18l7 5h84q60 0 60 60v1253q0 60 -60 60h-84l-7 5v18h506v-1419zM603 1350v-534q0 -61 60 -61h206q16 0 22.5 4.5t6.5 22.5v128h18l5 -7v-304l-5 -7h-18v128q0 18 -6.5 22.5t-22.5 4.5h-206q-60 0 -60 -60v-604q0 -60 60 -60h84l7 -5v-18h-172v1419h382
q29 0 57 -6.5t37.5 -11t28.5 -14.5q17 -10 22.5 -7t5.5 27v12h18l5 -7v-229l-5 -7h-18v117q0 54 -44.5 85.5t-106.5 31.5h-301q-60 0 -60 -60z" />
    <glyph glyph-name="G" unicode="G" horiz-adv-x="1664" 
d="M859 -74q-161 4 -297 50.5t-231.5 122t-162.5 175t-98 210.5t-30.5 228t33 227.5t100.5 208.5t163.5 172.5t230 118t292.5 45.5q-115 -8 -206.5 -76.5t-146 -175t-83.5 -241t-27 -274.5t33.5 -276.5t87.5 -245.5t145 -182t197 -87zM899 -32q-124 0 -222.5 81.5
t-150.5 212.5t-77.5 289t-3 316t73 289t151 212.5t229.5 81.5q207 0 369 -153q9 -9 15.5 -13t15 -6.5t13 8t4.5 34.5v60h18l5 -7v-330l-5 -7h-18v93q0 88 -64 160.5t-159 111t-194 38.5q-144 0 -248 -108t-149.5 -269.5t-44 -350.5t49.5 -350.5t151 -269.5t241 -108
q67 0 139.5 23.5t134 64t115.5 91.5t86.5 109t45 114t-8.5 108.5t-74 90.5q-46 32 -114 32h-241l-8 8v17h441v-17l-13 -8h-45q-13 0 -18 -8t10 -23q84 -69 115 -104q96 -111 96 -271v-226h-237v26q34 28 24.5 61.5t-43 41.5t-70.5 -16q-65 -53 -153.5 -91t-181.5 -38z" />
    <glyph glyph-name="H" unicode="H" horiz-adv-x="1852" 
d="M239 83v1253q0 60 -60 60h-118l-7 5v18h543v-1419h-543v18l7 5h118q60 0 60 60zM1616 1336v-1253q0 -60 60 -60h118l7 -5v-18h-543v1419h543v-18l-7 -5h-118q-60 0 -60 -60zM1199 842v494q0 60 -60 60h-81l-7 5v18h166v-1419h-166v18l7 5h81q60 0 60 60v587q0 82 -68 82
h-407q-68 0 -68 -82v-587q0 -60 60 -60h81l7 -5v-18h-166v1419h166v-18l-7 -5h-81q-60 0 -60 -60v-494q0 -82 68 -82h407q68 0 68 82z" />
    <glyph glyph-name="I" unicode="I" horiz-adv-x="851" 
d="M225 83v1253q0 60 -60 60h-118l-7 5v18h545v-1419h-545v18l7 5h118q60 0 60 60zM644 1336v-1253q0 -60 60 -60h118l7 -5v-18h-203v1419h203v-18l-7 -5h-118q-60 0 -60 -60z" />
    <glyph glyph-name="J" unicode="J" horiz-adv-x="1287" 
d="M1072 1336v-962q0 -73 -30 -135.5t-82 -107.5t-113 -77t-133 -53v1418h543v-18l-7 -5h-118q-60 0 -60 -60zM655 374v962q0 60 -60 60h-118l-7 5v18h203v-1425q-30 -9 -108 -17.5t-138 -8.5q-81 0 -153 24t-134.5 75t-99 142.5t-34.5 213.5q1 95 70 124q54 23 109 -8
q58 -32 56 -94q0 -30 -18 -63q-13 -25 -62.5 -53.5t-84.5 -56t-26 -56.5q30 -100 131 -170t246 -70q57 0 97.5 18.5t71 62.5t45 122.5t14.5 194.5z" />
    <glyph glyph-name="K" unicode="K" horiz-adv-x="1720" 
d="M551 0h-542v18l7 5h118q60 0 60 60v1253q0 60 -60 60h-118l-7 5v18h542v-1419zM670 23h101l7 -5v-18h-186v1419h186v-18l-7 -5h-101q-60 0 -60 -60v-613q0 -33 16 -37t37 21l561 655q13 17 6 25.5t-27 8.5h-150l-7 5v18h684v-18l-7 -5h-48q-27 0 -45 -20l-397 -449
q143 -41 228 -142.5t103 -258t-43 -363.5q0 -43 28.5 -65.5t94.5 -34.5l14 -9l7 -54h-650l3 158q0 34 16 48q44 42 85.5 86.5t92 104.5t86 116.5t64 116.5t28 110.5t-22.5 93t-87 69.5t-167 35q-112 8 -197.5 -21.5t-163.5 -121.5q-18 -21 -48 -57t-34 -41
q-22 -27 -31.5 -40.5t-19 -37.5t-9.5 -48v-488q0 -60 60 -60z" />
    <glyph glyph-name="L" unicode="L" horiz-adv-x="1256" 
d="M271 0h-241v18l7 5h118q60 0 60 60v1253q0 60 -60 60h-118l-7 5v18h235h311v-1419h-305zM635 1336v-1268q0 -60 60 -60h331h1q62 0 106.5 31.5t44.5 85.5v173h18l5 -7v-284l-5 -7h-18v12q0 24 -5.5 27t-22.5 -7q-16 -9 -28 -14t-39 -11.5t-57 -6.5h-409v1419h155v-18
l-7 -5h-70q-60 0 -60 -60z" />
    <glyph glyph-name="M" unicode="M" horiz-adv-x="2011" 
d="M1444 83v1172q0 56 -30.5 64.5t-56.5 -43.5l-342 -688l-411 831h20l359 -729q4 -8 10.5 -14.5t16 -10t21.5 4.5t22 29l361 720h388v-1419h-543v18l7 5h118q60 0 60 60zM1861 1336v-1253q0 -60 60 -60h71l7 -5v-18h-156v1419h105v-18l-7 -5h-20q-60 0 -60 -60zM240 1336
q0 60 -60 60h-67l-7 5v18h367q47 -1 73 -14t44 -50l402 -813l-120 -242h-19q-30 0 -42 22l-477 955q-26 52 -56 44t-30 -67v-1171q0 -60 60 -60h119l7 -5v-18h-379v18l7 5h118q60 0 60 60v1253z" />
    <glyph glyph-name="N" unicode="N" horiz-adv-x="1248" 
d="M1147 678v658q0 60 -61 60h-117l-7 5v18h378v-18l-7 -5h-118q-60 0 -60 -60v-660v-110l-604 853h22l538 -756q6 -9 14 -12.5t15 3t7 24.5zM-14 1419h444q43 -1 67 -14.5t50 -49.5l608 -862v-116v-377h-31q-24 0 -40 23l-864 1217q-18 26 -39 37t-36.5 1t-15.5 -42v-1153
q0 -60 60 -60h118l7 -5v-18h-378v18l7 5h118q60 0 60 60l-1 1253q0 60 -60 60h-67l-7 5v18z" />
    <glyph glyph-name="O" unicode="O" horiz-adv-x="1536" 
d="M407 709q0 -406 46.5 -578t173.5 -198q-104 17 -204.5 77.5t-185 156t-136.5 237.5t-52 305t52 305t136.5 237.5t185 156t204.5 77.5q-127 -26 -173.5 -198t-46.5 -578zM719 1453q60 0 102 -15.5t73 -54.5t49 -91.5t29 -142.5t14.5 -190.5t3.5 -249.5t-3.5 -249.5
t-14.5 -190.5t-29 -142.5t-49 -91.5t-73 -54.5t-102 -15.5t-102 15.5t-73 54.5t-49 91.5t-29 142.5t-14.5 190.5t-3.5 249.5t3.5 249.5t14.5 190.5t29 142.5t49 91.5t73 54.5t102 15.5zM719 -27q64 0 107 22.5t72.5 70t45 138t22 208t6.5 297.5t-6.5 297.5t-22 208t-45 138
t-72.5 70t-107 22.5t-107 -22.5t-72.5 -70t-45 -138t-22 -208t-6.5 -297.5t6.5 -297.5t22 -208t45 -138t72.5 -70t107 -22.5zM1031 709q0 406 -46.5 578t-173.5 198q104 -17 204.5 -77.5t185 -156t136.5 -237.5t52 -305t-52 -305t-136.5 -237.5t-185 -156t-204.5 -77.5
q127 26 173.5 198t46.5 578z" />
    <glyph glyph-name="P" unicode="P" horiz-adv-x="1152" 
d="M-6 1419h545v-1419h-545v18l7 5h118q60 0 60 60v1253q0 60 -60 60h-118l-7 5v18zM644 532l49 18q78 33 143.5 132.5t94.5 220.5t28.5 236.5t-56 193t-157.5 77.5h-82q-47 0 -56.5 -14t-9.5 -73v-767q0 -16 10.5 -24.5t35.5 0.5zM598 455v-372q0 -60 60 -60h118l7 -5v-18
h-203v1419h166h189q130 0 238.5 -94.5t125.5 -227.5q14 -116 -56.5 -226t-185.5 -173q-98 -54 -413 -175q-20 -9 -31 -20.5t-13 -21.5t-2 -26z" />
    <glyph glyph-name="Q" unicode="Q" horiz-adv-x="1590" 
d="M777 -24q70 0 122.5 17.5t100 66t77 129.5t47 212.5t17.5 310.5t-17.5 310t-47 211.5t-77 128.5t-100 65.5t-122.5 17.5q-76 0 -132.5 -36t-99.5 -118.5t-64.5 -228t-21.5 -354.5q0 -191 18.5 -285t57 -122t113.5 -14q61 11 126 -3.5t122.5 -45.5t119.5 -81t111 -100.5
t103 -114.5t89.5 -111.5t77 -103t60.5 -78.5q36 -44 90 38q23 41 59 26q28 -12 32 -41q5 -41 -52 -60q-91 -22 -133 30q-26 31 -66.5 83.5t-72 92.5t-75.5 93.5t-80.5 93.5t-83 85t-87.5 75.5t-89 57.5t-92.5 38.5t-93 10.5t-95.5 -18q-57 -21 -73 -58t12 -81
q87 -139 220 -139zM684 -58q-83 13 -170 51.5t-171.5 105.5t-151 154t-107 205.5t-40.5 249.5q0 110 28.5 211.5t77.5 180.5t112.5 145.5t135.5 112.5t144.5 75t141.5 40q-90 -18 -150.5 -94t-96 -243t-35.5 -424q0 -194 20 -337t58.5 -232t88 -137t115.5 -64zM541 115
q-98 164 -98 593q0 214 23 362t68.5 230.5t104 117.5t138.5 35q69 0 147 -20.5t159.5 -60t155.5 -103t132.5 -142.5t93 -187t34.5 -228q0 -143 -49.5 -268.5t-127.5 -210.5t-175 -146.5t-192 -90t-178 -28.5q-149 0 -236 147z" />
    <glyph glyph-name="R" unicode="R" horiz-adv-x="1632" 
d="M787 0h-157v1419h354q127 0 223.5 -93t113.5 -229q22 -181 -108 -318q-53 -56 -17 -78q60 -36 102 -93t63 -117.5t30 -128t7 -122.5t-10 -105q-6 -37 21 -59.5t80 -22.5l12 -9l6 -44h-389l2 171l14 41q115 81 161 170.5t18.5 170.5t-124.5 142q-2 1 -4.5 2.5t-11.5 5
t-18.5 4.5t-22.5 -1t-26 -8q-82 -47 -411 -173q-30 -12 -39.5 -28.5t-9.5 -40.5v-373q0 -60 60 -60h74l7 -5v-18zM898 1410h-178q-27 0 -43 -7t-22.5 -23.5t-7.5 -28.5t-1 -38v-764q0 -35 31 -23l173 68q78 33 143 128t93 209.5t27 223.5t-57 182t-158 73zM45 1419h544
v-1419h-544v18l7 5h118q60 0 60 60v1253q0 60 -60 60h-118l-7 5v18z" />
    <glyph glyph-name="S" unicode="S" horiz-adv-x="975" 
d="M776 150q49 66 5.5 157t-162.5 166q-329 207 -340 214q-124 80 -182 181.5t-46 208t90 209.5q-3 -39 30 -83t95 -88.5t121 -81t133 -78.5q15 -8 22 -12q133 -76 217.5 -165t119 -189.5t9.5 -212t-112 -226.5zM52 179q-64 115 -30 192q24 55 69 46q33 -6 46 -37
q15 -41 -30 -68q-48 -28 -58.5 -56t11.5 -67q55 -104 163 -164.5t235 -60.5q84 0 164 34t141.5 90t106 132.5t63 157t5.5 167.5t-60 161q-98 152 -325 277q-48 26 -81.5 45.5t-78.5 47t-75 49.5t-62.5 48t-49 48.5t-27 46.5t-4.5 45.5t27 41.5q107 99 250.5 97t258.5 -99
q33 -28 49 -33t20 5.5t4 38.5v50h18l5 -7v-294l-5 -7h-18v89q0 50 -18 80.5t-60 67.5q-110 95 -251.5 98.5t-240.5 -92.5q-22 -22 -23.5 -47.5t19.5 -53t47.5 -52.5t75 -57t86.5 -54.5t95 -56.5q44 -25 65 -38q211 -124 309 -271q50 -76 64.5 -165.5t-4.5 -173t-65 -162.5
t-110 -137t-146.5 -93.5t-168.5 -35.5q-129 0 -238.5 61t-167.5 166z" />
    <glyph glyph-name="T" unicode="T" horiz-adv-x="1249" 
d="M382 1410h-265q-41 0 -50 -13t-9 -50v-129h-18l-5 7v218l5 7h11q1 -1 3.5 -6t4 -7.5t6 -6.5t10.5 -6t17 -3.5t25 -1.5h685v-1419h-545v18l7 5h118q60 0 60 60v1267q0 60 -60 60zM861 1350v-1267q0 -60 60 -60h118l7 -5v-18h-203v1419h295q14 0 25 1.5t17 3.5t10.5 6
t6 6.5t4 7.5t3.5 6h11l5 -7v-218l-5 -7h-18v129q0 20 -1 28.5t-6.5 18.5t-17.5 13t-34 3h-217q-60 0 -60 -60z" />
    <glyph glyph-name="U" unicode="U" horiz-adv-x="1574" 
d="M169 573v763q0 60 -60 60h-58l-7 5v18h483v-1396q-358 91 -358 550zM1535 1419h-345v-18l7 -5h143q60 0 60 -60l1 -763q0 -106 -18 -192t-46 -143.5t-69 -101t-81 -67.5t-87.5 -38.5t-83 -18.5t-73.5 -4h-72q-121 0 -203.5 60.5t-82.5 157.5v1110q0 60 60 60h58l7 5v18
h-142v-1405q76 -14 167 -14h208q229 0 348 148t121 425l-2 763q0 60 60 60h58l7 5v18z" />
    <glyph glyph-name="V" unicode="V" horiz-adv-x="1446" 
d="M665 27l-488 1308q-22 61 -84 61h-49l-7 5v18h434l406 -1048l-148 -371h-40q-10 0 -16.5 10t-7.5 17zM578 1315l294 -766q14 -31 33 -30t29 26l307 770q14 31 6 56t-39 25h-150l-7 5v18h345v-18l-7 -5h-75q-18 0 -25 -6.5t-14 -22.5l-375 -938l-384 990h181v-18l-7 -5
h-79q-31 0 -39 -25t6 -56z" />
    <glyph glyph-name="W" unicode="W" horiz-adv-x="1911" 
d="M334 1419l264 -967l-158 -452h-60q-15 0 -24 27l-346 1264q-8 26 -14.5 41.5t-22.5 30.5t-38 15h-47l-12 7v34h458zM426 1315l179 -654q5 -18 21 -18t22 18l267 734h331q24 0 32 -27l247 -909l-153 -439h-46q-5 0 -8.5 1.5t-6 5.5t-4 6.5t-3.5 7.5t-2 6l-349 1263
q-6 21 -26.5 20t-28.5 -23l-275 -783l-246 895h134v-18l-7 -5h-45q-54 0 -33 -81zM1579 672l231 643q13 31 5.5 56t-38.5 25h-164l-7 5v18h341v-18l-7 -5h-57q-19 0 -26.5 -6t-13.5 -23l-292 -835l-238 863h18l202 -723q5 -18 22 -18t24 18z" />
    <glyph glyph-name="X" unicode="X" horiz-adv-x="1707" 
d="M695 637l-387 -533q-20 -27 -9.5 -54t42.5 -27h149l7 -5v-18h-396v18l7 5h84q23 0 43 14t46 49l405 558q14 24 12 46t-12 38l-9 15l-426 587q-46 66 -123 66h-55l-7 5v18h523l1029 -1419h-677v18l7 5h169q18 0 31 6.5t17 21t-12 37.5l-387 532q-2 2 -5 5.5t-11.5 11
t-17 11.5t-19 2t-18.5 -13zM1050 879l-317 436q-20 27 -9.5 54t42.5 27h54l7 5v18h-187l1029 -1419h40v18l-7 5h-11q-8 0 -14.5 3.5t-8.5 6.5l-3 3l-521 715q-43 59 5 124l332 458q21 28 30 38t23.5 17.5t35.5 7.5h47l7 5v18h-399v-18l7 -5h189q32 0 42.5 -27t-9.5 -54
l-314 -434q-18 -24 -34.5 -30t-29 1.5t-26.5 26.5z" />
    <glyph glyph-name="Y" unicode="Y" horiz-adv-x="1274" 
d="M419 603l-394 711q-32 57 -48 70q-15 12 -33 12h-41l-7 5v18h456l444 -799v-537q0 -60 60 -60h119l7 -5v-18h-727v18l7 5h117q60 0 60 60v429q0 48 -20 91zM482 1315l308 -561q19 -33 34.5 -33.5t36.5 34.5l312 560q17 29 8 55t-41 26h-169l-7 5v18h327v-18l-7 -5h-19
q-18 0 -34 -14t-22.5 -25t-24.5 -43l-363 -652l-418 757h211v-18l-7 -5h-92q-32 0 -41 -26t8 -55z" />
    <glyph glyph-name="Z" unicode="Z" horiz-adv-x="1396" 
d="M1305 1196l-709 -1093q-17 -25 -23 -45t4 -34.5t40 -14.5h564q62 0 106.5 32t44.5 86v173h18l5 -7v-285l-5 -7h-18v12q0 24 -5.5 27t-21.5 -8q-17 -8 -28.5 -13.5t-39 -12t-56.5 -6.5h-673l797 1227v-31zM297 1419h1008v-115l-848 -1304h-414v115l797 1202q18 23 24 43.5
t-5 35t-41 14.5h-521q-63 0 -107.5 -31t-44.5 -85v-173h-18l-5 7v284l5 7h18v-12q0 -24 5.5 -27t22.5 7q16 9 28 14t39 11.5t57 6.5z" />
    <glyph glyph-name="bracketleft" unicode="[" horiz-adv-x="864" 
d="M469 1520v-1829h-358v1829h358zM805 -309h-295v1829h295v-9h-217q-60 0 -60 -60v-1691q0 -60 60 -60h217v-9z" />
    <glyph glyph-name="backslash" unicode="\" horiz-adv-x="1707" 
d="M563 1520l1056 -1830l-359 1l-1055 1829h358zM1146 -310l-1056 1830h28l1056 -1830h-28z" />
    <glyph glyph-name="bracketright" unicode="]" horiz-adv-x="864" 
d="M437 -309v1829h358v-1829h-358zM396 -309h-295v9h217q60 0 60 60v1691q0 60 -60 60h-217v9h295v-1829z" />
    <glyph glyph-name="asciicircum" unicode="^" horiz-adv-x="714" 
d="M170 989h-69l264 457l263 -457h-69l-194 337z" />
    <glyph glyph-name="underscore" unicode="_" horiz-adv-x="1066" 
d="M39 0v60h992v-60h-992z" />
    <glyph glyph-name="grave" unicode="`" horiz-adv-x="245" 
d="M152 1721q-18 19 -39.5 15t-35 -16t-41.5 -26.5t-57 -17.5q-41 -4 -70 17t-36.5 51t8 62.5t53.5 49.5t87.5 -3.5t88.5 -60.5q18 -18 37 -39t32.5 -37t34.5 -43t30.5 -40t33 -45.5t31.5 -42.5q5 -6 3.5 -10.5t-6.5 -4t-9 5.5q-116 161 -145 185z" />
    <glyph glyph-name="a" unicode="a" horiz-adv-x="1088" 
d="M509 108q15 22 22 41t7.5 26t0.5 31v347q0 41 -35 32q-6 -1 -30.5 -7.5t-45.5 -11.5q-72 -18 -92 -174q-17 -138 13 -269q25 -110 65 -109q13 0 26 13q40 40 69 81zM491 23h21q18 0 22.5 6.5t4.5 23.5v47q0 9 -3.5 11.5t-9 -0.5t-12.5 -11q-57 -66 -61 -70
q-30 -30 -61.5 -38.5t-107.5 -8.5q-68 0 -122 24.5t-83.5 64.5t-45 90t-9.5 102.5t24.5 100t56.5 85.5t87 55q131 46 365 97v-602h-73v18zM955 83q0 -60 60 -60h7l7 -5v-18h-431v553q0 55 34 62q45 10 74.5 17t62.5 17t52 19.5t37.5 22t23.5 26.5t4.5 31.5t-13 39
t-34.5 47.5q-64 72 -169 112.5t-215.5 34.5t-185.5 -60q-15 -11 -7 -32q2 -4 29 -23t30 -31q8 -26 -3 -48.5t-31.5 -33t-46 -7t-42.5 24.5q-20 27 -12 62.5t39 61.5q22 20 38 31q59 39 135 53.5t151.5 4.5t149 -43.5t130 -84t91.5 -124t36 -156.5q0 -103 -0.5 -259.5
t-0.5 -234.5z" />
    <glyph glyph-name="b" unicode="b" horiz-adv-x="1536" 
d="M230 83v1231q0 41 -14 56t-38 5.5t-55 -41.5l-14 -3l-17 14l204 204h268q24 0 24 -17v-780v-752h-542l-1 18l7 5h118q60 0 60 60zM681 87q-34 27 -34 -4v-39q0 -21 22 -21h29l7 -5v-18h-76v82v104v589v149v625h18v-619q0 -13 3.5 -18.5t11.5 -3.5t14 5.5t16 10.5t13 9
q83 51 171 70t165 6.5t136 -34.5t108 -53q60 -39 106 -100.5t73.5 -133.5t35.5 -152t-3.5 -156.5t-48.5 -146t-94 -122.5t-145.5 -84t-198.5 -31q-210 0 -329 91zM676 103q71 -58 146 -73q56 -11 97.5 -2t66 45t39.5 69.5t21 103t7 111.5t1 126v7.5v7v7.5q0 150 -44.5 270.5
t-122.5 167.5t-183 -21q-35 -24 -45.5 -49t-11.5 -75v-622q0 -46 29 -73z" />
    <glyph glyph-name="c" unicode="c" horiz-adv-x="1104" 
d="M562 -57q-85 4 -157 20.5t-144 55t-122.5 97.5t-81.5 153.5t-31 216.5t31.5 216.5t81.5 152.5t122 96.5t144.5 54.5t156.5 20q-93 -21 -135.5 -146t-42.5 -394v-3q0 -269 42.5 -394t135.5 -146zM650 -33q71 0 141.5 27.5t109.5 74.5l89 102l2 -2l1 -4l-89 -102
q-33 -38 -100.5 -70t-153.5 -32q-81 0 -128.5 45.5t-72 160.5t-24.5 316v3q0 201 24.5 316t72 160.5t128.5 45.5q146 0 259 -107q5 -5 8.5 -7.5t9 -5t8.5 -1t5.5 9t2.5 20.5v42h19l4 -5v-232l-4 -5h-19v66q0 61 -45 112.5t-112 79t-136 27.5q-111 0 -159 -114.5t-48 -401.5
v-3q0 -195 22 -308t66 -160.5t119 -47.5z" />
    <glyph glyph-name="d" unicode="d" horiz-adv-x="1536" 
d="M879 87q-119 -91 -329 -91q-110 0 -198.5 31t-145.5 84t-94 122.5t-48.5 146t-3.5 156.5t35.5 152t73.5 133.5t106 100.5q49 31 108 53t136 34.5t165 -6.5t171 -70q3 -2 13 -9t16 -10.5t14 -5.5t11.5 3.5t3.5 18.5v619h18v-625v-842v-82h-76v18l7 5h29q22 0 22 21v39
q0 31 -34 4zM884 103q29 27 29 73v622q-1 50 -11.5 75t-45.5 49q-105 68 -183 21t-122.5 -167.5t-44.5 -270.5q0 -213 12 -290q27 -164 129 -187q39 -8 91 2q75 15 146 73zM1330 83v1231q0 41 14 56t38 5.5t55 -41.5l14 -3l17 14l-204 204h-268q-24 0 -24 -17v-1532h543v18
l-7 5h-118q-60 0 -60 60z" />
    <glyph glyph-name="e" unicode="e" horiz-adv-x="1024" 
d="M416 1000q-40 -16 -47 -167q-2 -38 -2 -347v-3q0 -254 37 -379t118 -153q-68 10 -136 34t-137 68.5t-122 103t-86 144t-33 185.5q0 103 25 186t63.5 136t95 93.5t108.5 61.5t116 37zM435 297l145 85q82 47 109.5 209.5t-23.5 298.5t-163 113l-23 -6q-41 -11 -50 -143
q-3 -49 -2 -339v-29v-3q0 -110 7 -186zM436 291q15 -175 61.5 -249.5t134.5 -74.5q57 0 105 13.5t89 42.5t73.5 63t71.5 84l3 -1l1 -4q-37 -49 -68.5 -81t-73 -62.5t-91.5 -45.5t-110 -15q-80 0 -127.5 46t-72 161t-24.5 315v3v124q-2 87 -1 156t5.5 118.5t16 78.5t31.5 34
l43 10q53 11 101 8.5t94 -14.5t83 -34t68.5 -49.5t51.5 -62t31 -70t7 -74.5t-20 -76t-50 -73.5t-83 -67.5z" />
    <glyph glyph-name="f" unicode="f" horiz-adv-x="917" 
d="M685 0h-146v1542q37 6 72 6q72 0 136.5 -19.5t110 -65t43.5 -108.5q-2 -57 -50 -71q-42 -12 -77 16q-44 35 -16 94q3 8 9 17q38 60 -3.5 91.5t-127.5 36.5q-27 2 -43.5 -2t-23 -15.5t-8 -19.5t-1.5 -25v-474q0 -8 2 -16.5t8 -19.5t21 -18t36 -7h52q16 0 22.5 4.5
t6.5 22.5v128h18l5 -7v-304l-5 -7h-18v128q0 18 -6.5 22.5t-22.5 4.5h-52q-21 0 -36 -7t-21 -18t-8 -19.5t-2 -16.5v-790q0 -60 60 -60h58l7 -5v-18zM498 0h-482v18l7 5h58q60 0 60 60q0 13 0.5 219.5t0.5 470v417.5q0 71 33 132.5t87 103t113.5 69t122.5 41.5v-1536z" />
    <glyph glyph-name="g" unicode="g" horiz-adv-x="960" 
d="M889 -462q15 47 -27.5 100t-122.5 102q-62 39 -585 344l268 389q2 4 5.5 4t4.5 -2.5t-1 -6.5q-2 -3 -25 -35.5t-25 -34.5q-11 -16 12 -16h27h10.5h11h10.5t11.5 0.5t10 1t10.5 1.5t10 3t10 3.5t9 4.5t9 6q26 21 31.5 71t5.5 187v36q0 68 -3 117.5t-7 84t-14.5 56.5
t-18.5 34t-26 17.5t-29 6.5t-36 1h-5q-60 0 -79 -11q-44 -26 -55 -150q-5 -62 -5 -156v-36q0 -137 5.5 -187t31.5 -71q5 -4 5 -8.5t-4.5 -7t-11.5 -1.5q-42 12 -75 24.5t-76 38t-71.5 56.5t-49 81t-20.5 111q0 69 20.5 124t57 89t77.5 57t90 34t86 15t74 4q124 0 217 -37
q13 -5 20 -7.5t13.5 -3t9 3t2.5 11.5v20q0 84 -173 153q-9 4 -7 10.5t11 6.5h115q14 0 22 -14q75 -126 173 -190l-17 -14q-5 -4 -11 1q-71 52 -85 61q-10 7 -16 3t-6 -17v-20q0 -27 19 -42q118 -83 118 -248q0 -240 -292 -311q-32 -8 -82 -10h-74q-13 0 -19 -9
q-8 -12 -11 -17q-8 -14 7.5 -28t52.5 -34q3 -2 5 -3l5 -2.5l5 -2.5q9 -5 93.5 -50.5t124.5 -68t110 -66t122 -81.5q41 -30 62 -71.5t25.5 -82.5t-6 -100t-25 -105t-39.5 -116zM464 -782q-164 5 -282 118.5t-142 279.5q-15 102 26 183q22 43 54 62t60.5 14.5t49.5 -24.5
q48 -45 20.5 -100t-106.5 -71q-65 -12 -80 -25q-16 -15 -14 -36q24 -162 139 -273.5t275 -117.5q107 0 202.5 50t148.5 127q25 37 34.5 69.5t1.5 67.5t-41 70.5t-92 72.5q-89 55 -597 352l10 14q434 -253 599 -355q214 -132 93 -296q-62 -84 -156.5 -133t-202.5 -49z" />
    <glyph glyph-name="h" unicode="h" horiz-adv-x="1360" 
d="M131 83v1231q0 61 -30.5 65t-76.5 -45l-14 -3l-17 14l204 204h270q8 0 12 -0.5t7.5 -4.5t3.5 -12v-1532h-544v18l7 5h118q60 0 60 60zM549 540v-457q0 -60 60 -60h70l7 -5v-18h-155v1550h18v-855q0 -25 11.5 -29t28.5 16q33 38 69.5 80.5t57.5 67.5t35 41q27 32 35 39.5
t16 6.5q123 -23 208.5 -61t144 -99t81 -146.5t13 -202t-54.5 -266.5q0 -43 28.5 -65.5t94.5 -34.5l14 -9l6 -33h-557l3 158q0 34 16 48q65 55 124 122t103 146t57.5 150.5t-22.5 135.5t-127 100q-38 15 -55.5 21t-42 10t-42 -3.5t-34.5 -24.5q-33 -33 -174 -197
q-37 -43 -37 -126z" />
    <glyph glyph-name="i" unicode="i" horiz-adv-x="608" 
d="M84 0h-113v18l7 5h28q60 0 60 60v629q0 17 -8 20t-23 -5l-32 -16l-14 -3l-17 14q71 38 112 61v-783zM577 0h-452v799q249 143 338 226q81 77 81 164q0 85 -61 146t-146 61q-58 0 -93 -29q-18 -15 -7 -38q4 -7 36.5 -30t39.5 -34q21 -35 -2.5 -72t-64.5 -42t-82 36
q-26 35 -17.5 81t45.5 78q66 60 145 60q90 0 153.5 -63.5t63.5 -153.5q0 -41 -17 -78t-37.5 -61.5t-50.5 -53.5q-3 -2 -4 -3l-3 -3l-4 -4q-10 -10 -1.5 -18t21.5 4q10 9 17.5 5.5t7.5 -14.5l-1 -880q0 -60 60 -60h28l7 -5v-18z" />
    <glyph glyph-name="j" unicode="j" horiz-adv-x="442" 
d="M-34 -372v1074q0 46 -33 25l-28 -16l-14 -3l-17 14q72 39 110 61v-1207q-105 -27 -200 -20q-41 3 -62.5 6t-52.5 12t-52 24q-96 68 -82 158q10 65 69 102q65 42 130 9q40 -20 67 -67q12 -20 13.5 -44t-4 -45.5t-14 -43.5t-16.5 -40t-12.5 -32t-0.5 -22.5t18 -9.5
q69 -5 112.5 10t68.5 55zM25 -416v1216q252 145 338 225q81 77 81 164q0 85 -61 146t-146 61q-58 0 -93 -29q-18 -15 -7 -38q4 -7 36.5 -30t39.5 -34q21 -35 -2.5 -72t-64.5 -42t-82 36q-26 35 -17.5 81t45.5 78q66 60 145 60q90 0 153.5 -63.5t63.5 -153.5q0 -41 -17 -78
t-37.5 -61.5t-50.5 -53.5q-3 -2 -4 -3l-3 -3l-4 -4q-10 -10 -1.5 -18t21.5 4q10 9 17.5 5.5t7.5 -14.5v-997q0 -73 -30 -137t-81.5 -111t-113.5 -80t-133 -54z" />
    <glyph glyph-name="k" unicode="k" horiz-adv-x="1619" 
d="M220 83v1231q0 41 -14 56t-38 5.5t-55 -41.5l-14 -3l-17 14l204 204h270q8 0 11.5 -0.5t7 -4.5t3.5 -12v-1532h-543v18l7 5h118q60 0 60 60zM637 407v-324q0 -60 60 -60h118l7 -5v-18h-203v1549h18v-1005q0 -19 13 -23t28 13l266 296q26 35 12.5 52t-54.5 17h-100l-7 5
v18h686v-18l-7 -5h-53q-22 0 -34 -13l-189 -218q107 -40 151.5 -105t44 -167t-18.5 -254q0 -43 28.5 -65.5t94.5 -34.5l14 -9l6 -33h-575l3 158q0 35 16 48q362 304 213 447q-38 37 -108.5 53.5t-152.5 -1t-136 -73.5l-104 -116q-22 -25 -29.5 -48.5t-7.5 -60.5z" />
    <glyph glyph-name="l" unicode="l" horiz-adv-x="745" 
d="M168 83v1263q0 21 -11 22.5t-22 -9.5l-27 -24l-14 -3l-17 14q18 18 57 56.5t52 51.5v-1454h-163v18l7 5h76q62 0 62 60zM585 1532v-1449q0 -60 60 -60h78l7 -5v-18h-503v1483l66 66h270q8 0 11.5 -0.5t7 -4.5t3.5 -12z" />
    <glyph glyph-name="m" unicode="m" horiz-adv-x="2320" 
d="M507 0h-543v18l7 5h118q60 0 60 60v684q0 61 -30.5 65t-76.5 -45l-14 -3l-17 14l204 204h274q18 0 18 -17v-985zM846 0h-1v18l7 5h118q60 0 60 60v459q96 99 113 190.5t-35 148.5t-132.5 89.5t-183 22t-184.5 -62.5q-19 -12 -29 -36.5t-11.5 -43.5t-1.5 -50v-717
q0 -60 60 -60h71l7 -5v-18h-156v1002h18v-45q0 -23 12 -24t31 12q176 94 366 44q125 -33 195 -109q60 -66 33 -115q-6 -11 -16 -20q-11 -9 -14 -12q-12 -9 -4 -20q10 -13 25 2q79 79 195 169v-884h-543zM1448 799v-716q0 -60 60 -60h70l7 -5v-18h-155v906q100 65 219 87
t216.5 7.5t174.5 -52.5q123 -61 183.5 -191t54 -290.5t-73.5 -324.5q0 -43 28.5 -65.5t94.5 -34.5l14 -9l6 -33h-557l3 158q0 20 2.5 29.5t13.5 18.5q56 48 110.5 121t94.5 159.5t57 169.5t-6 157.5t-89 117.5q-90 60 -228 61t-258 -68q-19 -12 -29 -34.5t-11.5 -41
t-1.5 -49.5z" />
    <glyph glyph-name="n" unicode="n" horiz-adv-x="1312" 
d="M549 779v-696q0 -60 60 -60h39l7 -5v-18h-124v1002h18v-119q0 -6 2.5 -11.5t11 -9.5t23.5 5q102 56 224.5 58.5t218.5 -58.5q96 -66 154 -172t67 -248.5t-57 -304.5q0 -43 28.5 -65.5t94.5 -34.5l14 -9l6 -33h-543l3 158q0 34 16 48q64 53 123 127t100.5 159t54 163.5
t-25 144.5t-129.5 98q-41 14 -95 18t-125 -12t-130 -54q-4 -2 -10 -6.5t-16 -23t-10 -41.5zM132 83v684q0 41 -14 56t-38 5.5t-55 -41.5l-14 -3l-17 14l204 204h267q25 0 25 -17v-985h-543v18l7 5h118q60 0 60 60z" />
    <glyph glyph-name="o" unicode="o" horiz-adv-x="1152" 
d="M386 492q-1 -323 18.5 -428t108.5 -118q-72 6 -140 29t-131 68t-110 106.5t-75 150t-28 192.5t28 192.5t75 150t110 106.5t131 68t140 29q-89 -13 -108.5 -118t-18.5 -428zM427 492q0 -348 21.5 -435t127.5 -87t127.5 87t21.5 435t-21.5 435t-127.5 87t-127.5 -87
t-21.5 -435zM706 492v-9q0 -328 -19 -416.5t-111 -88.5t-111 88.5t-19 416.5v3v3v3v9q0 328 19 416.5t111 88.5t111 -88.5t19 -416.5v-3v-3v-3zM766 492q1 323 -18.5 428t-108.5 118q72 -6 140 -29t131 -68t110 -106.5t75 -150t28 -192.5t-28 -192.5t-75 -150t-110 -106.5
t-131 -68t-140 -29q89 13 108.5 118t18.5 428z" />
    <glyph glyph-name="p" unicode="p" horiz-adv-x="1364" 
d="M610 -444h163v18l-7 5h-78q-60 0 -60 60v394q0 18 10.5 31.5t21.5 18.5l10 5q328 126 419 177q110 61 170 170.5t45 228.5q-17 137 -118 229.5t-239 92.5q-106 0 -212 -61q-10 -6 -29.5 -19.5t-30.5 -19t-23.5 -9t-18 6t-5.5 31.5v72h-18v-1431zM740 918q40 26 95 43
q68 21 96 -93q31 -131 -3 -337q-38 -227 -124 -343q-40 -52 -83 -70l-43 -17q-50 -19 -50 23v630q0 33 8.5 58.5t29.5 47t32.5 30t41.5 28.5zM66 -444h503v1413q0 17 -24 17h-268l-204 -204l17 -14l14 3q46 49 76.5 45t30.5 -65v-1112q0 -60 -60 -60h-78l-7 -5v-18z" />
    <glyph glyph-name="q" unicode="q" horiz-adv-x="1320" 
d="M744 186v598q0 45 -44 86q-75 69 -172 95q-51 13 -78 -77q-35 -118 -14 -313q22 -209 89 -303q29 -39 62 -47zM1307 -444h-504v1262q0 33 25.5 62.5t76.5 57.5t99 49t122 51.5t116 49.5l5 -8l-1 -20q-56 -47 -70 -75t-14 -90v-1256q0 -60 60 -60h78l7 -5v-18zM762 784
v-1228h-163v18l7 5h78q60 0 60 60v536q-117 28 -172 42t-148.5 44t-139.5 55q-110 61 -162.5 144.5t-52.5 203.5q0 139 106 230.5t251 91.5q153 0 279 -109q57 -51 57 -93z" />
    <glyph glyph-name="r" unicode="r" horiz-adv-x="991" 
d="M182 83v668q0 41 -14 56t-38 5.5t-55 -41.5l-14 -3l-17 14l204 204h266q25 0 25 -17v-969h-502v18l7 5h78q60 0 60 60zM598 803v-720q0 -60 60 -60h78l7 -5v-18h-163v986h18v-64q0 -16 7 -20.5t19 5.5q6 5 21 20q68 67 168 67q178 0 178 -80q0 -34 -20.5 -55.5t-47 -25
t-52 11.5t-34.5 46q-3 13 0 42t1 34q-6 19 -26 19q-97 0 -160 -63q-1 -1 -9.5 -9t-10 -10t-8.5 -10t-9 -12.5t-6.5 -14t-6 -18t-3 -20.5t-1.5 -26z" />
    <glyph glyph-name="s" unicode="s" horiz-adv-x="800" 
d="M232 952q-50 -32 -28 -60q14 -17 97 -63q53 -29 87 -50q159 -97 280 -179q67 -46 93 -127t12 -164.5t-58 -161t-107 -120.5q-93 -65 -229 -65q-134 0 -235 85q-70 57 -102 130t-1 126q30 49 74 37q33 -9 43 -41q14 -46 -39 -79q-4 -3 -8 -5q-32 -17 -34.5 -45t17.5 -57
t56 -61q96 -83 229 -83q138 0 225 63q80 54 126.5 162t31.5 221.5t-100 170.5q-121 82 -280 179q-28 17 -79 46q-90 52 -108 73q-25 35 28 71q79 53 169 53q118 0 207 -75q28 -20 39 -16t11 25v35h13l3 -5v-202l-3 -5h-13v68q0 45 -59 96q-88 73 -198 73q-82 0 -160 -50z
M588 589q92 -59 121 -156t-1.5 -192t-102.5 -162q13 13 17.5 26t-1.5 26t-16 24t-31 26t-40.5 27t-50.5 30q-40 24 -62 37q-167 102 -251 157q-92 59 -121 156t1.5 192t102.5 162q-13 -13 -17.5 -26t1.5 -26t16 -24t31 -26t40.5 -27t50.5 -30q40 -24 62 -37
q194 -119 251 -157z" />
    <glyph glyph-name="t" unicode="t" horiz-adv-x="768" 
d="M479 -335l-18 4v1491h18v-537q0 -12 3 -23.5t19 -24.5t44 -13h88q16 0 22.5 4.5t6.5 22.5v128h18l5 -7v-304l-5 -7h-18v128q0 18 -6.5 22.5t-22.5 4.5h-88q-28 0 -44 -13t-19 -24.5t-3 -23.5v-722q0 -132 182 -114q37 3 46 30t-24 84q-17 27 -21 52.5t4 44t24 32.5
t36.5 20.5t42.5 5t41 -11.5q37 -19 47 -52t-5 -67t-42.5 -66t-68 -54t-79.5 -25q-84 -8 -183 15zM420 723v-1046q-71 21 -133 54.5t-113.5 80t-81.5 111t-30 137.5l1 663q0 58 -26 66t-81 -23l-14 -3l-12 22q49 26 66.5 35.5t67 37.5t75.5 45.5t69 49t71.5 59t60 64
t55.5 74.5q5 8 11 10t10 -2t4 -13v-422z" />
    <glyph glyph-name="u" unicode="u" horiz-adv-x="1427" 
d="M1273 969v-886q0 -60 60 -60h15l7 -5v-18h-440v920l66 66h269q8 0 12 -0.5t7.5 -4.5t3.5 -12zM803 47q40 21 44 22q9 1 9 -8v-14q0 -24 -26 -24h-10l-7 -5v-18h61v758v136l-109 -109l17 -14l14 3q5 5 14 13.5t13 12.5q10 11 21.5 8.5t11.5 -23.5v-27v-613q0 -57 -71 -92
q-75 -40 -168 -50t-151 5q-57 10 -101 31.5t-73 45t-49 64.5t-29.5 71.5t-15 86.5t-6 89t-0.5 99v255q0 57 19.5 100.5t44.5 65t54.5 34.5t44.5 16t20 3q7 0 10 4.5t0.5 8.5t-9.5 4h-224l-120 -147l50 -43l14 3q81 60 81 -48l1 -344q0 -109 20 -185.5t60.5 -121t88.5 -67.5
t116 -35q186 -32 340 49z" />
    <glyph glyph-name="v" unicode="v" horiz-adv-x="1236" 
d="M581 848l170 -449q11 -27 28.5 -25.5t26.5 25.5l187 467q38 97 -27 97h-151l-7 5v18h346v-18l-7 -5h-54q-29 0 -48.5 -25.5t-38.5 -72.5l-187 -469l-43 -107l-269 697h178v-18l-7 -5h-83q-14 0 -23.5 -3.5t-12 -12t-3.5 -15.5t3 -22t7 -23t10 -26q3 -9 5 -13zM177 902
l323 -875q0 -1 2 -6t3.5 -7.5t4 -6.5t6 -5.5t8.5 -1.5h136l93 234l-293 752h-423v-18l7 -5h49q62 0 84 -61z" />
    <glyph glyph-name="w" unicode="w" horiz-adv-x="1789" 
d="M1244 941l185 -676l-94 -268h-130q-5 0 -8.5 1.5t-6 5.5t-4 6.5t-3.5 7.5t-2 6l-238 859q-4 14 -12.5 20t-18 0.5t-15.5 -23.5l-203 -570l-180 676h134v-18l-7 -5h-57q-12 0 -19.5 -3t-10.5 -10t-4 -14.5t1.5 -18.5t5.5 -21t7 -24t6 -24l110 -413q3 -13 11 -17.5t16 0
t12 17.5l195 533h298q25 0 32 -27zM21 986h445l205 -741l-85 -245h-178q-5 0 -8.5 1.5t-6 5.5t-4 6.5t-3.5 7.5t-2 6l-238 861q-13 44 -36.5 59.5t-71.5 15.5h-10l-7 5v18zM1477 458l159 433q15 36 9.5 54t-40.5 18h-171l-7 5v18h341v-18l-7 -5h-49q-22 0 -35.5 -16
t-27.5 -57l-196 -554l-173 633h19l140 -510q5 -20 17.5 -20.5t20.5 19.5z" />
    <glyph glyph-name="x" unicode="x" horiz-adv-x="1180" 
d="M782 629l202 272q46 62 -25 62h-63l-7 5v18h214v-18l-7 -5h-31q-8 0 -13.5 -1.5t-9.5 -3t-9.5 -7.5t-9 -10.5t-12.5 -17t-16 -22.5l-208 -278q-42 -57 -9 -101l354 -485q10 -14 25 -14h3l9 -6v-17h-32l-715 986h132v-17l-9 -6h-35q-31 0 -32 -12.5t19 -36.5l205 -285
q7 -11 18 -18.5t28.5 -5t33.5 23.5zM31 986h340l716 -986h-465v18l7 5h91q30 0 42.5 16.5t-1.5 33.5l-253 359q-1 2 -3.5 4.5t-9.5 8t-13.5 8t-15 0.5t-14.5 -11l-265 -356q-48 -63 24 -63h62l7 -5v-18h-248v18l7 5h45q30 0 45.5 12.5t44.5 51.5l268 361q12 19 12 35.5
t-6 27.5l-7 11l-266 381q-21 29 -44 44.5t-61 15.5h-32l-7 5v18z" />
    <glyph glyph-name="y" unicode="y" horiz-adv-x="1026" 
d="M236 986l391 -702l-452 -752q-75 -125 -22 -204q35 -50 99 -53q63 -3 94 41q5 8 8 16q11 25 -1 67t-31 79.5t-27 81t10 71.5q33 53 89 46q47 -5 66 -46q30 -61 -37 -135l-28 -27q-22 -20 -28 -36t-0.5 -28t7 -31t-5.5 -43q-20 -56 -85 -67q-66 -10 -117 32
q-68 56 -39 158q10 39 36 82l251 415q25 43 -11 120q-36 76 -148 288.5t-207 386.5l-94 175q-14 25 -25 33.5t-35 8.5h-18l-7 3v20h367zM690 415l299 494q10 17 11.5 29t-5.5 18.5t-21 6.5h-118l-7 5v18h241v-18l-7 -5h-21q-26 0 -59 -55l-352 -584l-367 662h146v-18l-7 -5
h-65q-14 0 -20 -2.5t-7 -10.5t4.5 -20.5t17.5 -34.5l269 -481q14 -25 32.5 -25t35.5 26z" />
    <glyph glyph-name="z" unicode="z" horiz-adv-x="956" 
d="M321 0h-293v79l554 836q43 63 -15 63h-343q-38 0 -60 -34.5t-22 -67.5v-107h-13l-3 4v208l3 5h13v-40q0 -8 1.5 -8.5t8.5 7.5q35 40 73 41h684v-81zM451 8h287q62 0 106.5 32t44.5 86v93h18l5 -7v-205l-5 -7h-18v12q0 24 -5.5 27t-22.5 -7q-16 -9 -28 -14.5t-39 -11.5
t-56 -6h-371l542 831v-35l-473 -726q-40 -62 15 -62z" />
    <glyph glyph-name="braceleft" unicode="{" horiz-adv-x="736" 
d="M468 748q-41 -49 -112.5 -80t-131 -40t-115.5 -9h-293q-12 0 -12 9.5t12 9.5h143q70 0 112.5 16t60 45.5t20.5 69t0 89t-6.5 103.5t5 114.5t30.5 119t75 121.5t134 117q30 20 130 83q99 61 236 61q16 0 23 -11t1 -22t-21 -11q-13 0 -60.5 1t-66.5 0t-51.5 -7.5
t-56.5 -20.5q-16 -9 -129 -82q-33 -21 -36.5 -57t15.5 -80t46.5 -94.5t53.5 -107.5t41 -112.5t5 -115t-52 -109.5zM468 467q42 -50 52 -109.5t-5 -115t-41 -112.5t-53.5 -107.5t-46.5 -94.5t-15.5 -80t36.5 -57q113 -73 129 -82q24 -14 56.5 -20.5t51.5 -7.5t66.5 0t60.5 1
q15 0 21 -11t-1 -22t-23 -11q-137 0 -236 61q-100 63 -130 83q-81 54 -134 117t-75 121.5t-30.5 119t-5 114.5t6.5 103.5t0 89t-20.5 69t-60 45.5t-112.5 16h-143q-12 0 -12 9.5t12 9.5h293q56 0 115.5 -9t131 -40t112.5 -80z" />
    <glyph glyph-name="bar" unicode="|" horiz-adv-x="506" 
d="M370 -412h-217v1934h217v-1934zM112 -412h-19v1934h19v-1934zM430 -412h-19v1934h19v-1934z" />
    <glyph glyph-name="braceright" unicode="}" horiz-adv-x="585" 
d="M123 748q-42 50 -52 109.5t5 115t41 112.5t53.5 107.5t46.5 94.5t15.5 80t-36.5 57q-113 73 -129 82q-24 14 -56.5 20.5t-51.5 7.5t-66.5 0t-60.5 -1q-15 0 -21 11t1 22t23 11q137 0 236 -61q100 -63 130 -83q81 -54 134 -117t75 -121.5t30.5 -119t5 -114.5t-6.5 -103.5
t0 -89t20.5 -69t60 -45.5t112.5 -16h143q12 0 12 -9.5t-12 -9.5h-293q-56 0 -115.5 9t-131 40t-112.5 80zM123 467q41 49 112.5 80t131 40t115.5 9h293q12 0 12 -9.5t-12 -9.5h-143q-70 0 -112.5 -16t-60 -45.5t-20.5 -69t0 -89t6.5 -103.5t-5 -114.5t-30.5 -119t-75 -121.5
t-134 -117q-30 -20 -130 -83q-99 -61 -236 -61q-16 0 -23 11t-1 22t21 11q13 0 60.5 -1t66.5 0t51.5 7.5t56.5 20.5q16 9 129 82q33 21 36.5 57t-15.5 80t-46.5 94.5t-53.5 107.5t-41 112.5t-5 115t52 109.5z" />
    <glyph glyph-name="asciitilde" unicode="~" horiz-adv-x="1082" 
d="M131 646q25 81 75 130.5t117 54t144 -56.5q48 -39 85.5 -68t96 -71t105.5 -67t97 -45t89.5 -16.5t63.5 29.5q-60 -113 -183 -155.5t-252 -5.5q-60 17 -112.5 47.5t-88 63t-67 67t-53 61t-41.5 43t-38.5 14.5t-37.5 -25zM83 646q48 179 166.5 230.5t243.5 -46.5
q28 -21 48 -36.5t54.5 -40.5t61 -43t61.5 -41t63 -37.5t59 -29t55.5 -20t46.5 -6.5t37.5 9t23.5 29q-16 -37 -48 -49t-74 -0.5t-90 35t-98.5 58t-96 68.5t-86.5 66q-23 18 -33 26q-64 49 -128.5 53t-115 -29t-89.5 -83.5t-61 -112.5z" />
    <glyph glyph-name="sterling" unicode="&#xa3;" horiz-adv-x="1256" 
d="M17 736h807v-33h-807v33zM1263 370l-82 -293q-23 -84 -93 -123t-152 -31.5t-152 50.5q-58 36 -107.5 78.5t-109 86t-161.5 95.5q-159 81 -253 22q-63 -39 -67 -117q-5 -78 52 -130q32 -29 79 -40q34 -11 71 -1t68.5 32.5t55 71.5t31.5 116q9 76 -22 168.5t-81.5 180.5
t-102 175t-87.5 177.5t-34 161.5q3 76 33.5 140t79 106.5t108.5 68t124 30.5q178 15 276 -35q129 -66 140 -162q7 -62 -35 -101q-39 -36 -79 -14q-11 6 -20 17q-22 25 -22 54.5t12.5 54t23 49t5.5 46.5t-35 39q-58 32 -141 32q-68 0 -114 -41t-57 -123.5t43 -206.5
q26 -60 67 -138.5t69.5 -132t56.5 -123t40 -127.5t7.5 -129t-30.5 -143q-15 -40 -56 -91t-99.5 -99.5t-136.5 -74t-152 -8.5q-119 26 -158 130q-36 94 10 198q46 103 145 146q108 47 241 0q51 -18 99.5 -40t124.5 -59t146 -68q69 -31 119.5 -46t95.5 -15.5t78 19.5t61 60.5
t51 106.5h26zM17 806h807v-33h-807v33z" />
    <glyph glyph-name="yen" unicode="&#xa5;" horiz-adv-x="1184" 
 />
    <glyph glyph-name="brokenbar" unicode="&#xa6;" horiz-adv-x="1707" 
 />
    <glyph glyph-name="copyright" unicode="&#xa9;" horiz-adv-x="1707" 
d="M-21 382q0 172 67 329t180 270.5t270 180.5t329 67q230 0 425 -113.5t308.5 -308.5t113.5 -425q0 -172 -67 -329t-180.5 -270t-270.5 -180t-329 -67t-329 67t-270 180t-180 270t-67 329zM38 382q0 -160 62.5 -306t167.5 -251t251 -167.5t306 -62.5t306 62.5t251.5 167.5
t168 251t62.5 306t-62.5 306t-168 251.5t-251.5 168t-306 62.5t-306 -62.5t-251 -168t-167.5 -251.5t-62.5 -306zM1173 -71q20 29 17 71.5t-35 69.5q-35 29 -15 60q17 25 46 22q33 -6 44 -47q7 -24 -8.5 -76.5t-43.5 -102.5q-38 -69 -121.5 -109.5t-208.5 -40.5
q-73 0 -147 22.5t-144.5 71.5t-125.5 118t-88.5 169.5t-33.5 218.5t33.5 219.5t88.5 170.5t125.5 118t144.5 71.5t147 22.5q166 0 299 -124q38 -38 38 19v48h15l4 -6v-267l-4 -6h-15v76q0 71 -52 131t-128.5 91.5t-156.5 31.5q-53 0 -89.5 -9t-65.5 -35.5t-46 -67
t-28.5 -110t-15.5 -157.5t-4 -217q0 -128 4 -216t15 -157.5t28 -109.5t46.5 -66.5t65.5 -35.5t90 -9q240 0 325 147z" />
    <glyph glyph-name="registered" unicode="&#xae;" horiz-adv-x="1707" 
d="M-21 382q0 172 67 329t180 270.5t270 180.5t329 67q230 0 425 -113.5t308.5 -308.5t113.5 -425q0 -172 -67 -329t-180.5 -270t-270.5 -180t-329 -67t-329 67t-270 180t-180 270t-67 329zM38 382q0 -160 62.5 -306t167.5 -251t251 -167.5t306 -62.5t306 62.5t251.5 167.5
t168 251t62.5 306t-62.5 306t-168 251.5t-251.5 168t-306 62.5t-306 -62.5t-251 -168t-167.5 -251.5t-62.5 -306zM682 -68v295q97 54 254 137q84 47 171 21q69 -19 101 -51t30 -69t-29 -80t-68.5 -82t-94.5 -77q-11 -7 -11 -26l-1 -129h350l-5 33l-8 6q-39 0 -59 16.5
t-15 43.5q56 337 -164 413q-31 11 11 56q96 100 80 232q-9 70 -46 119.5t-90.5 73t-103.5 33t-104 9.5h-569v-13l5 -5h60q44 0 44 -43v-913q0 -43 -44 -43h-57l-4 -5v-13h502v13l-5 5h-87q-43 0 -43 43zM725 899h92q66 0 113.5 -48t65.5 -119.5t19 -146t-22 -136t-61 -81.5
l-250 -135v622q0 44 43 44z" />
    <glyph glyph-name="onequarter" unicode="&#xbc;" horiz-adv-x="1680" 
d="M212 895v593q-79 -46 -151 -75l-2 4q72 30 135.5 70.5t105.5 79t66 64t38 45.5l39 -11v-770q0 -43 44 -43h81v-7h-481v7h81q44 0 44 43zM1409 138h179v-6h-179v-512q0 -44 44 -44h81v-6h-510v6h81q43 0 43 44v512h-384l545 751l4 -4l-458 -630q-28 -36 -11 -73.5
t68 -37.5h236v283q56 20 111.5 47t82.5 44l28 17l39 -11v-380zM1005 1397l-854 -1464l299 1l853 1463h-298z" />
    <glyph glyph-name="onehalf" unicode="&#xbd;" horiz-adv-x="1801" 
d="M212 895v593q-79 -46 -151 -75l-2 4q72 30 135.5 70.5t105.5 79t66 64t38 45.5l39 -11v-770q0 -43 44 -43h81v-7h-481v7h81q44 0 44 43zM1005 1397l-854 -1464l299 1l853 1463h-298zM1650 -24l61 -146h-9q-35 98 -64 142t-52.5 45.5t-55.5 -24.5t-63.5 -61t-86 -71.5
t-114.5 -50.5q-52 -11 -88 -5t-54.5 22.5t-33.5 38t-26 41.5t-30.5 32.5t-46.5 10.5q-40 -2 -58.5 -38t-9.5 -70l-16 -12h-110q0 43 8.5 81.5t34.5 86t68.5 91.5t115 93t169.5 95q90 45 150 81q50 30 83.5 77.5t42 96t-3 91.5t-54.5 70t-109 26q-105 -3 -200.5 -65.5
t-147.5 -149.5l-4 2q52 88 149.5 152t202.5 67q74 2 137.5 -26t103 -74.5t57 -106t8.5 -119t-51 -116t-114 -93.5q-47 -25 -109.5 -28.5t-118.5 1t-114.5 3.5t-117.5 -30t-107 -91q-52 -67 12 -83q68 -17 202 29q123 42 205 110q65 48 137 41t134.5 -54t87.5 -112z" />
    <glyph glyph-name="threequarters" unicode="&#xbe;" horiz-adv-x="1646" 
d="M1409 138h179v-6h-179v-512q0 -44 44 -44h81v-6h-510v6h81q43 0 43 44v512h-384l545 751l4 -4l-458 -630q-28 -36 -11 -73.5t68 -37.5h236v283q56 20 111.5 47t82.5 44l28 17l39 -11v-380zM1005 1397l-854 -1464l299 1l853 1463h-298zM610 1678h-280v5h293l-286 -257
q-8 -7 -9 -14t7 -11t23 0q76 16 136 -5.5t91.5 -70t43 -109t-3.5 -127t-53 -119.5q-47 -65 -110.5 -110t-128.5 -63.5t-130 -16t-115.5 26.5t-84.5 70.5t-39 109.5h5q16 -128 98 -123q84 5 205 138q17 20 34 41q127 160 143 270q11 79 -45 87q-63 9 -184 -82l-1 11z" />
    <glyph glyph-name="questiondown" unicode="&#xbf;" horiz-adv-x="1051" 
d="M267 25q-65 55 -100.5 131.5t-37 161t41.5 175t129 165.5q42 37 126.5 108t131 111.5t106.5 98.5t102 109q74 89 74 174t-61 146t-146 61q-51 0 -71 -27q-12 -17 4 -23l9 -1q71 0 105 -51q22 -33 22 -73q0 -55 -39 -94.5t-95 -39.5q-70 0 -110 57q-25 33 -26.5 73.5
t15 73.5t41.5 55q66 60 145 60q90 0 153.5 -63.5t63.5 -153.5q0 -15 -1.5 -29.5t-6 -28.5t-7.5 -24t-11 -24.5t-12 -21t-15 -21.5t-14.5 -19.5t-17 -21.5t-16.5 -20q-24 -29 -26 -77.5t11.5 -97t30.5 -93t31 -72.5l15 -28q11 -19 10.5 -32.5t-20.5 -31.5
q-202 -178 -450 -416q-130 -125 -84 -176zM327 -16q-12 7 -20 14t-13 22t0.5 33t26.5 47.5t58 65.5q67 64 227.5 212.5t246.5 224.5l7 -11q-86 -76 -247 -225t-228 -213q-37 -36 -56.5 -64.5t-24.5 -44.5t4 -30t15 -18t21 -12q86 -47 192 -47q148 0 242 76.5t106 168.5
q3 24 -9 39t-42 30t-38 21q-42 31 -22 68q16 31 52 34q49 4 70 -53q8 -22 11 -49q6 -60 -16 -120t-66.5 -110t-120 -81.5t-167.5 -31.5q-114 0 -209 54z" />
    <glyph glyph-name="Agrave" unicode="&#xc0;" horiz-adv-x="1424" 
d="M714 1771q-18 19 -39.5 15t-35 -16t-41.5 -26.5t-57 -17.5q-41 -4 -70 17t-36.5 51t8 62.5t53.5 49.5t87.5 -3.5t88.5 -60.5q18 -18 37 -39t32.5 -37t34.5 -43t30.5 -40t33 -45.5t31.5 -42.5q5 -6 3.5 -10.5t-6.5 -4t-9 5.5q-116 161 -145 185zM360 630l-178 -547
q-9 -25 7 -42.5t53 -17.5h125l7 -5v-18h-373v18l7 5h74q68 0 89 60l371 1142l399 -1225h-224v18l7 5h111q34 0 51 17.5t9 42.5l-205 630h-237q-65 0 -93 -83zM564 1290l29 90q18 0 37 5t35.5 12.5t32.5 17t29.5 19.5t26 19t22.5 15.5t18 9.5t14 0t9 -12l461 -1417
q6 -16 15.5 -21t30.5 -5h80l7 -5v-18h-428zM539 1181l-130 -399q-11 -31 2.5 -46t40.5 -15h236z" />
    <glyph glyph-name="Aacute" unicode="&#xc1;" horiz-adv-x="1424" 
d="M578 1771q-29 -24 -145 -185q-4 -5 -9 -5.5t-6.5 4t3.5 10.5q8 10 31.5 42.5t33 45.5t30.5 40t34.5 43t32.5 37t37 39q39 40 88.5 60.5t87.5 3.5t53.5 -49.5t8 -62.5t-36.5 -51t-70 -17q-29 3 -57 17.5t-41.5 26.5t-35 16t-39.5 -15zM360 630l-178 -547q-9 -25 7 -42.5
t53 -17.5h125l7 -5v-18h-373v18l7 5h74q68 0 89 60l371 1142l399 -1225h-224v18l7 5h111q34 0 51 17.5t9 42.5l-205 630h-237q-65 0 -93 -83zM564 1290l29 90q18 0 37 5t35.5 12.5t32.5 17t29.5 19.5t26 19t22.5 15.5t18 9.5t14 0t9 -12l461 -1417q6 -16 15.5 -21t30.5 -5
h80l7 -5v-18h-428zM539 1181l-130 -399q-11 -31 2.5 -46t40.5 -15h236z" />
    <glyph glyph-name="Acircumflex" unicode="&#xc2;" horiz-adv-x="1424" 
d="M1020 1771q-18 19 -39.5 15t-35 -16t-41.5 -26.5t-57 -17.5q-41 -4 -70 17t-36.5 51t8 62.5t53.5 49.5t87.5 -3.5t88.5 -60.5q18 -18 37 -39t32.5 -37t34.5 -43t30.5 -40t33 -45.5t31.5 -42.5q5 -6 3.5 -10.5t-6.5 -4t-9 5.5q-116 161 -145 185zM351 1771
q-29 -24 -145 -185q-4 -5 -9 -5.5t-6.5 4t3.5 10.5q8 10 31.5 42.5t33 45.5t30.5 40t34.5 43t32.5 37t37 39q39 40 88.5 60.5t87.5 3.5t53.5 -49.5t8 -62.5t-36.5 -51t-70 -17q-29 3 -57 17.5t-41.5 26.5t-35 16t-39.5 -15zM360 630l-178 -547q-9 -25 7 -42.5t53 -17.5h125
l7 -5v-18h-373v18l7 5h74q68 0 89 60l371 1142l399 -1225h-224v18l7 5h111q34 0 51 17.5t9 42.5l-205 630h-237q-65 0 -93 -83zM564 1290l29 90q18 0 37 5t35.5 12.5t32.5 17t29.5 19.5t26 19t22.5 15.5t18 9.5t14 0t9 -12l461 -1417q6 -16 15.5 -21t30.5 -5h80l7 -5v-18
h-428zM539 1181l-130 -399q-11 -31 2.5 -46t40.5 -15h236z" />
    <glyph glyph-name="Atilde" unicode="&#xc3;" horiz-adv-x="1424" 
d="M1002 1895q-39 -103 -126 -147.5t-188 -15.5q-53 15 -100 44.5t-75.5 58.5t-54 56t-42.5 40t-35 7.5t-37 -39t-43 -100.5h-11l55 131q36 91 115 120.5t164 -33.5q123 -102 174 -133q148 -91 192 11l57 132h10zM182 83l178 547q28 83 93 83h237l205 -630q8 -25 -9 -42.5
t-51 -17.5h-111l-7 -5v-18h224l-399 1225l-371 -1142q-21 -60 -89 -60h-74l-7 -5v-18h373v18l-7 5h-125q-37 0 -53 17.5t-7 42.5zM564 1290l29 90q18 0 37 5t35.5 12.5t32.5 17t29.5 19.5t26 19t22.5 15.5t18 9.5t14 0t9 -12l461 -1417q6 -16 15.5 -21t30.5 -5h80l7 -5v-18
h-428zM409 782l130 399l149 -460h-236q-27 0 -40.5 15t-2.5 46z" />
    <glyph glyph-name="Adieresis" unicode="&#xc4;" horiz-adv-x="1424" 
d="M428 1756q0 38 26.5 65t65.5 27q38 0 64.5 -27t26.5 -65t-26.5 -65t-64.5 -27q-39 0 -65.5 27t-26.5 65zM724 1756q0 38 26.5 65t64.5 27q39 0 65.5 -27t26.5 -65t-26.5 -65t-65.5 -27q-38 0 -64.5 27t-26.5 65zM182 83l178 547q28 83 93 83h237l205 -630q8 -25 -9 -42.5
t-51 -17.5h-111l-7 -5v-18h224l-399 1225l-371 -1142q-21 -60 -89 -60h-74l-7 -5v-18h373v18l-7 5h-125q-37 0 -53 17.5t-7 42.5zM564 1290l29 90q18 0 37 5t35.5 12.5t32.5 17t29.5 19.5t26 19t22.5 15.5t18 9.5t14 0t9 -12l461 -1417q6 -16 15.5 -21t30.5 -5h80l7 -5v-18
h-428zM409 782l130 399l149 -460h-236q-27 0 -40.5 15t-2.5 46z" />
    <glyph glyph-name="Aring" unicode="&#xc5;" horiz-adv-x="1424" 
d="M530 1604q0 -38 1.5 -62t8.5 -54t20 -47.5t37 -29.5t59 -12q34 0 58.5 12t37.5 29.5t20 47.5t8.5 54t1.5 62t-1.5 62t-8.5 54t-20 47.5t-37.5 29.5t-58.5 12q-35 0 -59 -12t-37 -29.5t-20 -47.5t-8.5 -54t-1.5 -62zM433 1604q0 110 63 161t160 51q96 0 159.5 -51
t63.5 -161t-63.5 -161t-159.5 -51q-97 0 -160 51t-63 161zM360 630l-178 -547q-9 -25 7 -42.5t53 -17.5h125l7 -5v-18h-373v18l7 5h74q68 0 89 60l371 1142l399 -1225h-224v18l7 5h111q34 0 51 17.5t9 42.5l-205 630h-237q-65 0 -93 -83zM564 1290l25 74q79 -11 148 4t97 45
l444 -1364q6 -16 15.5 -21t30.5 -5h80l7 -5v-18h-428zM539 1181l-130 -399q-11 -31 2.5 -46t40.5 -15h236z" />
    <glyph glyph-name="AE" unicode="&#xc6;" horiz-adv-x="2186" 
d="M1085 755v496q0 29 -14 36.5t-36 -25.5l-258 -446q-16 -28 -0.5 -44.5t43.5 -16.5h265zM1443 1419v-1419h-542v18l7 5h117q60 0 60 60v664h-267q-31 0 -72 -21t-65 -61l-341 -591q-12 -21 -7 -36t26 -15h166l7 -5v-18h-373v18l7 5h98q33 0 63 51l784 1345h332zM1504 1350
v-534q0 -12 3 -23.5t19 -24.5t44 -13h293q16 0 22.5 4.5t6.5 22.5v128h18l5 -7v-304l-5 -7h-18v128q0 18 -6.5 22.5t-22.5 4.5h-293q-28 0 -44 -13t-19 -24.5t-3 -23.5v-618q0 -60 60 -60h364q62 0 106.5 31.5t44.5 85.5v117h18l5 -7v-228l-5 -7h-18v12q0 24 -5.5 27
t-22.5 -7q-16 -9 -28 -14.5t-39 -11.5t-56 -6h-442v1419h442q29 0 57 -6.5t37.5 -11t28.5 -14.5q17 -10 22.5 -7t5.5 27v12h18l5 -7v-229l-5 -7h-18v117q0 54 -44.5 85.5t-106.5 31.5h-364q-60 0 -60 -60z" />
    <glyph glyph-name="Ccedilla" unicode="&#xc7;" horiz-adv-x="1208" 
d="M610 -54q-46 0 -59 -27q-13 -26 -19 -40q-8 -19 -1.5 -28t25.5 -6q36 4 55 5t54 -9t61 -36q36 -35 43.5 -81.5t-10 -87t-66 -68.5t-115.5 -28q-17 0 -33 2.5t-29.5 7.5t-23.5 9.5t-20.5 12.5t-15.5 11.5t-13 10.5l-8 8l7 7q18 -19 50.5 -33t63.5 -14q55 0 88 53.5t27 116
t-52 84.5q-31 13 -56.5 8t-41.5 -18l-16 -12l-16 17q37 80 55 120q12 23 -28 37q-96 31 -181.5 93.5t-155.5 153t-111.5 218.5t-41.5 274q0 133 34.5 251t92 204.5t133 153t158 104.5t166.5 50q-69 -11 -112 -54.5t-69 -137.5t-35.5 -227t-9.5 -344q0 -169 6 -284
t20.5 -206.5t40.5 -145.5t64.5 -85t94.5 -40zM706 1450q207 0 369 -153q9 -9 15.5 -13t15 -6.5t13 8t4.5 34.5v60h18l5 -7v-330l-5 -7h-18v93q0 88 -64 161.5t-159 112.5t-194 39q-55 0 -93.5 -14t-68.5 -49.5t-49 -88.5t-30.5 -138.5t-16 -190.5t-4.5 -254q0 -179 7 -295.5
t23 -204.5t47 -135t74.5 -70.5t110.5 -27.5q298 0 401 181q15 27 20.5 57t-5 62t-37.5 55q-41 34 -19 71q17 30 52 30q44 1 59 -53q0 -2 1 -4q8 -30 -11 -95t-53 -127q-46 -85 -150 -135t-258 -50q-72 2 -118.5 24.5t-80 69.5t-50.5 136t-24.5 208t-7.5 303t7.5 305
t25 210.5t51 137t80 69t117.5 21.5z" />
    <glyph glyph-name="Egrave" unicode="&#xc8;" horiz-adv-x="1219" 
d="M513 0h-506v18l7 5h78q60 0 60 60v1253q0 60 -60 60h-78l-7 5v18h506v-1419zM572 1350v-534q0 -12 3 -23.5t19 -24.5t44 -13h293q16 0 22.5 4.5t6.5 22.5v128h18l5 -7v-304l-5 -7h-18v128q0 18 -6.5 22.5t-22.5 4.5h-293q-28 0 -44 -13t-19 -24.5t-3 -23.5v-618
q0 -60 60 -60h364q62 0 106.5 31.5t44.5 85.5v117h18l5 -7v-228l-5 -7h-18v12q0 24 -5.5 27t-22.5 -7q-16 -9 -28 -14.5t-39 -11.5t-56 -6h-442v1419h442q29 0 57 -6.5t37.5 -11t28.5 -14.5q17 -10 22.5 -7t5.5 27v12h18l5 -7v-229l-5 -7h-18v117q0 54 -44.5 85.5
t-106.5 31.5h-364q-60 0 -60 -60zM704 1779q-18 19 -39.5 15t-35 -16t-41.5 -26.5t-57 -17.5q-41 -4 -70 17t-36.5 51t8 62.5t53.5 49.5t87.5 -3.5t88.5 -60.5q18 -18 37 -39t32.5 -37t34.5 -43t30.5 -40t33 -45.5t31.5 -42.5q5 -6 3.5 -10.5t-6.5 -4t-9 5.5
q-116 161 -145 185z" />
    <glyph glyph-name="Eacute" unicode="&#xc9;" horiz-adv-x="1219" 
d="M513 0h-506v18l7 5h78q60 0 60 60v1253q0 60 -60 60h-78l-7 5v18h506v-1419zM572 1350v-534q0 -12 3 -23.5t19 -24.5t44 -13h293q16 0 22.5 4.5t6.5 22.5v128h18l5 -7v-304l-5 -7h-18v128q0 18 -6.5 22.5t-22.5 4.5h-293q-28 0 -44 -13t-19 -24.5t-3 -23.5v-618
q0 -60 60 -60h364q62 0 106.5 31.5t44.5 85.5v117h18l5 -7v-228l-5 -7h-18v12q0 24 -5.5 27t-22.5 -7q-16 -9 -28 -14.5t-39 -11.5t-56 -6h-442v1419h442q29 0 57 -6.5t37.5 -11t28.5 -14.5q17 -10 22.5 -7t5.5 27v12h18l5 -7v-229l-5 -7h-18v117q0 54 -44.5 85.5
t-106.5 31.5h-364q-60 0 -60 -60zM569 1779q-29 -24 -145 -185q-4 -5 -9 -5.5t-6.5 4t3.5 10.5q8 10 31.5 42.5t33 45.5t30.5 40t34.5 43t32.5 37t37 39q39 40 88.5 60.5t87.5 3.5t53.5 -49.5t8 -62.5t-36.5 -51t-70 -17q-29 3 -57 17.5t-41.5 26.5t-35 16t-39.5 -15z" />
    <glyph glyph-name="Ecircumflex" unicode="&#xca;" horiz-adv-x="1219" 
d="M940 1771q-18 19 -39.5 15t-35 -16t-41.5 -26.5t-57 -17.5q-41 -4 -70 17t-36.5 51t8 62.5t53.5 49.5t87.5 -3.5t88.5 -60.5q18 -18 37 -39t32.5 -37t34.5 -43t30.5 -40t33 -45.5t31.5 -42.5q5 -6 3.5 -10.5t-6.5 -4t-9 5.5q-116 161 -145 185zM271 1771
q-29 -24 -145 -185q-4 -5 -9 -5.5t-6.5 4t3.5 10.5q8 10 31.5 42.5t33 45.5t30.5 40t34.5 43t32.5 37t37 39q39 40 88.5 60.5t87.5 3.5t53.5 -49.5t8 -62.5t-36.5 -51t-70 -17q-29 3 -57 17.5t-41.5 26.5t-35 16t-39.5 -15zM513 0h-506v18l7 5h78q60 0 60 60v1253
q0 60 -60 60h-78l-7 5v18h506v-1419zM572 1350v-534q0 -12 3 -23.5t19 -24.5t44 -13h293q16 0 22.5 4.5t6.5 22.5v128h18l5 -7v-304l-5 -7h-18v128q0 18 -6.5 22.5t-22.5 4.5h-293q-28 0 -44 -13t-19 -24.5t-3 -23.5v-618q0 -60 60 -60h364q62 0 106.5 31.5t44.5 85.5v117
h18l5 -7v-228l-5 -7h-18v12q0 24 -5.5 27t-22.5 -7q-16 -9 -28 -14.5t-39 -11.5t-56 -6h-442v1419h442q29 0 57 -6.5t37.5 -11t28.5 -14.5q17 -10 22.5 -7t5.5 27v12h18l5 -7v-229l-5 -7h-18v117q0 54 -44.5 85.5t-106.5 31.5h-364q-60 0 -60 -60z" />
    <glyph glyph-name="Edieresis" unicode="&#xcb;" horiz-adv-x="1219" 
d="M428 1756q0 38 26.5 65t65.5 27q38 0 64.5 -27t26.5 -65t-26.5 -65t-64.5 -27q-39 0 -65.5 27t-26.5 65zM724 1756q0 38 26.5 65t64.5 27q39 0 65.5 -27t26.5 -65t-26.5 -65t-65.5 -27q-38 0 -64.5 27t-26.5 65zM513 0h-506v18l7 5h78q60 0 60 60v1253q0 60 -60 60h-78
l-7 5v18h506v-1419zM572 1350v-534q0 -12 3 -23.5t19 -24.5t44 -13h293q16 0 22.5 4.5t6.5 22.5v128h18l5 -7v-304l-5 -7h-18v128q0 18 -6.5 22.5t-22.5 4.5h-293q-28 0 -44 -13t-19 -24.5t-3 -23.5v-618q0 -60 60 -60h364q62 0 106.5 31.5t44.5 85.5v117h18l5 -7v-228
l-5 -7h-18v12q0 24 -5.5 27t-22.5 -7q-16 -9 -28 -14.5t-39 -11.5t-56 -6h-442v1419h442q29 0 57 -6.5t37.5 -11t28.5 -14.5q17 -10 22.5 -7t5.5 27v12h18l5 -7v-229l-5 -7h-18v117q0 54 -44.5 85.5t-106.5 31.5h-364q-60 0 -60 -60z" />
    <glyph glyph-name="Igrave" unicode="&#xcc;" horiz-adv-x="851" 
d="M225 83v1253q0 60 -60 60h-118l-7 5v18h545v-1419h-545v18l7 5h118q60 0 60 60zM644 1336v-1253q0 -60 60 -60h118l7 -5v-18h-203v1419h203v-18l-7 -5h-118q-60 0 -60 -60zM501 1778q-18 19 -39.5 15t-35 -16t-41.5 -26.5t-57 -17.5q-41 -4 -70 17t-36.5 51t8 62.5
t53.5 49.5t87.5 -3.5t88.5 -60.5q18 -18 37 -39t32.5 -37t34.5 -43t30.5 -40t33 -45.5t31.5 -42.5q5 -6 3.5 -10.5t-6.5 -4t-9 5.5q-116 161 -145 185z" />
    <glyph glyph-name="Iacute" unicode="&#xcd;" horiz-adv-x="851" 
d="M225 1336v-1253q0 -60 -60 -60h-118l-7 -5v-18h545v1419h-545v-18l7 -5h118q60 0 60 -60zM644 83v1253q0 60 60 60h118l7 5v18h-203v-1419h203v18l-7 5h-118q-60 0 -60 60zM365 1778q-29 -24 -145 -185q-4 -5 -9 -5.5t-6.5 4t3.5 10.5q8 10 31.5 42.5t33 45.5t30.5 40
t34.5 43t32.5 37t37 39q39 40 88.5 60.5t87.5 3.5t53.5 -49.5t8 -62.5t-36.5 -51t-70 -17q-29 3 -57 17.5t-41.5 26.5t-35 16t-39.5 -15z" />
    <glyph glyph-name="Icircumflex" unicode="&#xce;" horiz-adv-x="851" 
d="M791 1771q-18 19 -39.5 15t-35 -16t-41.5 -26.5t-57 -17.5q-41 -4 -70 17t-36.5 51t8 62.5t53.5 49.5t87.5 -3.5t88.5 -60.5q18 -18 37 -39t32.5 -37t34.5 -43t30.5 -40t33 -45.5t31.5 -42.5q5 -6 3.5 -10.5t-6.5 -4t-9 5.5q-116 161 -145 185zM122 1771
q-29 -24 -145 -185q-4 -5 -9 -5.5t-6.5 4t3.5 10.5q8 10 31.5 42.5t33 45.5t30.5 40t34.5 43t32.5 37t37 39q39 40 88.5 60.5t87.5 3.5t53.5 -49.5t8 -62.5t-36.5 -51t-70 -17q-29 3 -57 17.5t-41.5 26.5t-35 16t-39.5 -15zM225 83v1253q0 60 -60 60h-118l-7 5v18h545v-1419
h-545v18l7 5h118q60 0 60 60zM644 1336v-1253q0 -60 60 -60h118l7 -5v-18h-203v1419h203v-18l-7 -5h-118q-60 0 -60 -60z" />
    <glyph glyph-name="Idieresis" unicode="&#xcf;" horiz-adv-x="851" 
d="M191 1756q0 38 26.5 65t65.5 27q38 0 64.5 -27t26.5 -65t-26.5 -65t-64.5 -27q-39 0 -65.5 27t-26.5 65zM487 1756q0 38 26.5 65t64.5 27q39 0 65.5 -27t26.5 -65t-26.5 -65t-65.5 -27q-38 0 -64.5 27t-26.5 65zM225 1336v-1253q0 -60 -60 -60h-118l-7 -5v-18h545v1419
h-545v-18l7 -5h118q60 0 60 -60zM644 83v1253q0 60 60 60h118l7 5v18h-203v-1419h203v18l-7 5h-118q-60 0 -60 60z" />
    <glyph glyph-name="Ntilde" unicode="&#xd1;" horiz-adv-x="1248" 
d="M990 1895q-39 -103 -126 -147.5t-188 -15.5q-53 15 -100 44.5t-75.5 58.5t-54 56t-42.5 40t-35 7.5t-37 -39t-43 -100.5h-11l55 131q36 91 115 120.5t164 -33.5q123 -102 174 -133q148 -91 192 11l57 132h10zM1147 678v658q0 60 -61 60h-117l-7 5v18h378v-18l-7 -5h-118
q-60 0 -60 -60v-660v-110l-604 853h22l538 -756q6 -9 14 -12.5t15 3t7 24.5zM-14 1419h444q43 -1 67 -14.5t50 -49.5l608 -862v-116v-377h-31q-24 0 -40 23l-864 1217q-18 26 -39 37t-36.5 1t-15.5 -42v-1153q0 -60 60 -60h118l7 -5v-18h-378v18l7 5h118q60 0 60 60l-1 1253
q0 60 -60 60h-67l-7 5v18z" />
    <glyph glyph-name="Ograve" unicode="&#xd2;" horiz-adv-x="1536" 
d="M407 709q0 -406 46.5 -578t173.5 -198q-104 17 -204.5 77.5t-185 156t-136.5 237.5t-52 305t52 305t136.5 237.5t185 156t204.5 77.5q-127 -26 -173.5 -198t-46.5 -578zM719 1453q60 0 102 -15.5t73 -54.5t49 -91.5t29 -142.5t14.5 -190.5t3.5 -249.5t-3.5 -249.5
t-14.5 -190.5t-29 -142.5t-49 -91.5t-73 -54.5t-102 -15.5t-102 15.5t-73 54.5t-49 91.5t-29 142.5t-14.5 190.5t-3.5 249.5t3.5 249.5t14.5 190.5t29 142.5t49 91.5t73 54.5t102 15.5zM719 -27q64 0 107 22.5t72.5 70t45 138t22 208t6.5 297.5t-6.5 297.5t-22 208t-45 138
t-72.5 70t-107 22.5t-107 -22.5t-72.5 -70t-45 -138t-22 -208t-6.5 -297.5t6.5 -297.5t22 -208t45 -138t72.5 -70t107 -22.5zM1031 709q0 406 -46.5 578t-173.5 198q104 -17 204.5 -77.5t185 -156t136.5 -237.5t52 -305t-52 -305t-136.5 -237.5t-185 -156t-204.5 -77.5
q127 26 173.5 198t46.5 578zM773 1778q-18 19 -39.5 15t-35 -16t-41.5 -26.5t-57 -17.5q-41 -4 -70 17t-36.5 51t8 62.5t53.5 49.5t87.5 -3.5t88.5 -60.5q18 -18 37 -39t32.5 -37t34.5 -43t30.5 -40t33 -45.5t31.5 -42.5q5 -6 3.5 -10.5t-6.5 -4t-9 5.5q-116 161 -145 185z
" />
    <glyph glyph-name="Oacute" unicode="&#xd3;" horiz-adv-x="1536" 
d="M407 709q0 -406 46.5 -578t173.5 -198q-104 17 -204.5 77.5t-185 156t-136.5 237.5t-52 305t52 305t136.5 237.5t185 156t204.5 77.5q-127 -26 -173.5 -198t-46.5 -578zM719 1453q60 0 102 -15.5t73 -54.5t49 -91.5t29 -142.5t14.5 -190.5t3.5 -249.5t-3.5 -249.5
t-14.5 -190.5t-29 -142.5t-49 -91.5t-73 -54.5t-102 -15.5t-102 15.5t-73 54.5t-49 91.5t-29 142.5t-14.5 190.5t-3.5 249.5t3.5 249.5t14.5 190.5t29 142.5t49 91.5t73 54.5t102 15.5zM719 -27q64 0 107 22.5t72.5 70t45 138t22 208t6.5 297.5t-6.5 297.5t-22 208t-45 138
t-72.5 70t-107 22.5t-107 -22.5t-72.5 -70t-45 -138t-22 -208t-6.5 -297.5t6.5 -297.5t22 -208t45 -138t72.5 -70t107 -22.5zM1031 709q0 406 -46.5 578t-173.5 198q104 -17 204.5 -77.5t185 -156t136.5 -237.5t52 -305t-52 -305t-136.5 -237.5t-185 -156t-204.5 -77.5
q127 26 173.5 198t46.5 578zM647 1778q-29 -24 -145 -185q-4 -5 -9 -5.5t-6.5 4t3.5 10.5q8 10 31.5 42.5t33 45.5t30.5 40t34.5 43t32.5 37t37 39q39 40 88.5 60.5t87.5 3.5t53.5 -49.5t8 -62.5t-36.5 -51t-70 -17q-29 3 -57 17.5t-41.5 26.5t-35 16t-39.5 -15z" />
    <glyph glyph-name="Ocircumflex" unicode="&#xd4;" horiz-adv-x="1536" 
d="M1050 1771q-18 19 -39.5 15t-35 -16t-41.5 -26.5t-57 -17.5q-41 -4 -70 17t-36.5 51t8 62.5t53.5 49.5t87.5 -3.5t88.5 -60.5q18 -18 37 -39t32.5 -37t34.5 -43t30.5 -40t33 -45.5t31.5 -42.5q5 -6 3.5 -10.5t-6.5 -4t-9 5.5q-116 161 -145 185zM381 1771
q-29 -24 -145 -185q-4 -5 -9 -5.5t-6.5 4t3.5 10.5q8 10 31.5 42.5t33 45.5t30.5 40t34.5 43t32.5 37t37 39q39 40 88.5 60.5t87.5 3.5t53.5 -49.5t8 -62.5t-36.5 -51t-70 -17q-29 3 -57 17.5t-41.5 26.5t-35 16t-39.5 -15zM407 709q0 -406 46.5 -578t173.5 -198
q-104 17 -204.5 77.5t-185 156t-136.5 237.5t-52 305t52 305t136.5 237.5t185 156t204.5 77.5q-127 -26 -173.5 -198t-46.5 -578zM719 1453q60 0 102 -15.5t73 -54.5t49 -91.5t29 -142.5t14.5 -190.5t3.5 -249.5t-3.5 -249.5t-14.5 -190.5t-29 -142.5t-49 -91.5t-73 -54.5
t-102 -15.5t-102 15.5t-73 54.5t-49 91.5t-29 142.5t-14.5 190.5t-3.5 249.5t3.5 249.5t14.5 190.5t29 142.5t49 91.5t73 54.5t102 15.5zM719 -27q64 0 107 22.5t72.5 70t45 138t22 208t6.5 297.5t-6.5 297.5t-22 208t-45 138t-72.5 70t-107 22.5t-107 -22.5t-72.5 -70
t-45 -138t-22 -208t-6.5 -297.5t6.5 -297.5t22 -208t45 -138t72.5 -70t107 -22.5zM1031 709q0 406 -46.5 578t-173.5 198q104 -17 204.5 -77.5t185 -156t136.5 -237.5t52 -305t-52 -305t-136.5 -237.5t-185 -156t-204.5 -77.5q127 26 173.5 198t46.5 578z" />
    <glyph glyph-name="Otilde" unicode="&#xd5;" horiz-adv-x="1536" 
d="M1071 1897q-39 -103 -126 -147.5t-188 -15.5q-53 15 -100 44.5t-75.5 58.5t-54 56t-42.5 40t-35 7.5t-37 -39t-43 -100.5h-11l55 131q36 91 115 120.5t164 -33.5q123 -102 174 -133q148 -91 192 11l57 132h10zM407 709q0 -406 46.5 -578t173.5 -198q-104 17 -204.5 77.5
t-185 156t-136.5 237.5t-52 305t52 305t136.5 237.5t185 156t204.5 77.5q-127 -26 -173.5 -198t-46.5 -578zM719 1453q60 0 102 -15.5t73 -54.5t49 -91.5t29 -142.5t14.5 -190.5t3.5 -249.5t-3.5 -249.5t-14.5 -190.5t-29 -142.5t-49 -91.5t-73 -54.5t-102 -15.5t-102 15.5
t-73 54.5t-49 91.5t-29 142.5t-14.5 190.5t-3.5 249.5t3.5 249.5t14.5 190.5t29 142.5t49 91.5t73 54.5t102 15.5zM719 -27q64 0 107 22.5t72.5 70t45 138t22 208t6.5 297.5t-6.5 297.5t-22 208t-45 138t-72.5 70t-107 22.5t-107 -22.5t-72.5 -70t-45 -138t-22 -208
t-6.5 -297.5t6.5 -297.5t22 -208t45 -138t72.5 -70t107 -22.5zM1031 709q0 406 -46.5 578t-173.5 198q104 -17 204.5 -77.5t185 -156t136.5 -237.5t52 -305t-52 -305t-136.5 -237.5t-185 -156t-204.5 -77.5q127 26 173.5 198t46.5 578z" />
    <glyph glyph-name="Odieresis" unicode="&#xd6;" horiz-adv-x="1536" 
d="M477 1756q0 38 26.5 65t65.5 27q38 0 64.5 -27t26.5 -65t-26.5 -65t-64.5 -27q-39 0 -65.5 27t-26.5 65zM773 1756q0 38 26.5 65t64.5 27q39 0 65.5 -27t26.5 -65t-26.5 -65t-65.5 -27q-38 0 -64.5 27t-26.5 65zM407 709q0 -406 46.5 -578t173.5 -198
q-104 17 -204.5 77.5t-185 156t-136.5 237.5t-52 305t52 305t136.5 237.5t185 156t204.5 77.5q-127 -26 -173.5 -198t-46.5 -578zM719 1453q60 0 102 -15.5t73 -54.5t49 -91.5t29 -142.5t14.5 -190.5t3.5 -249.5t-3.5 -249.5t-14.5 -190.5t-29 -142.5t-49 -91.5t-73 -54.5
t-102 -15.5t-102 15.5t-73 54.5t-49 91.5t-29 142.5t-14.5 190.5t-3.5 249.5t3.5 249.5t14.5 190.5t29 142.5t49 91.5t73 54.5t102 15.5zM719 -27q64 0 107 22.5t72.5 70t45 138t22 208t6.5 297.5t-6.5 297.5t-22 208t-45 138t-72.5 70t-107 22.5t-107 -22.5t-72.5 -70
t-45 -138t-22 -208t-6.5 -297.5t6.5 -297.5t22 -208t45 -138t72.5 -70t107 -22.5zM1031 709q0 406 -46.5 578t-173.5 198q104 -17 204.5 -77.5t185 -156t136.5 -237.5t52 -305t-52 -305t-136.5 -237.5t-185 -156t-204.5 -77.5q127 26 173.5 198t46.5 578z" />
    <glyph glyph-name="Ugrave" unicode="&#xd9;" horiz-adv-x="1574" 
d="M169 573v763q0 60 -60 60h-58l-7 5v18h483v-1396q-358 91 -358 550zM1190 1419h345v-18l-7 -5h-58q-60 0 -60 -60l2 -763q-2 -277 -121 -425t-348 -148h-208q-91 0 -167 14v1405h142v-18l-7 -5h-58q-60 0 -60 -60v-1110q0 -97 82.5 -157.5t203.5 -60.5h72q38 0 73.5 4
t83 18.5t87.5 38.5t81 67.5t69 101t46 143.5t18 192l-1 763q0 60 -60 60h-143l-7 5v18zM953 1778q-18 19 -39.5 15t-35 -16t-41.5 -26.5t-57 -17.5q-41 -4 -70 17t-36.5 51t8 62.5t53.5 49.5t87.5 -3.5t88.5 -60.5q18 -18 37 -39t32.5 -37t34.5 -43t30.5 -40t33 -45.5
t31.5 -42.5q5 -6 3.5 -10.5t-6.5 -4t-9 5.5q-116 161 -145 185z" />
    <glyph glyph-name="Uacute" unicode="&#xda;" horiz-adv-x="1574" 
d="M169 573v763q0 60 -60 60h-58l-7 5v18h483v-1396q-358 91 -358 550zM1535 1419h-345v-18l7 -5h143q60 0 60 -60l1 -763q0 -106 -18 -192t-46 -143.5t-69 -101t-81 -67.5t-87.5 -38.5t-83 -18.5t-73.5 -4h-72q-121 0 -203.5 60.5t-82.5 157.5v1110q0 60 60 60h58l7 5v18
h-142v-1405q76 -14 167 -14h208q229 0 348 148t121 425l-2 763q0 60 60 60h58l7 5v18zM797 1778q-29 -24 -145 -185q-4 -5 -9 -5.5t-6.5 4t3.5 10.5q8 10 31.5 42.5t33 45.5t30.5 40t34.5 43t32.5 37t37 39q39 40 88.5 60.5t87.5 3.5t53.5 -49.5t8 -62.5t-36.5 -51t-70 -17
q-29 3 -57 17.5t-41.5 26.5t-35 16t-39.5 -15z" />
    <glyph glyph-name="Ucircumflex" unicode="&#xdb;" horiz-adv-x="1574" 
d="M1159 1771q-18 19 -39.5 15t-35 -16t-41.5 -26.5t-57 -17.5q-41 -4 -70 17t-36.5 51t8 62.5t53.5 49.5t87.5 -3.5t88.5 -60.5q18 -18 37 -39t32.5 -37t34.5 -43t30.5 -40t33 -45.5t31.5 -42.5q5 -6 3.5 -10.5t-6.5 -4t-9 5.5q-116 161 -145 185zM490 1771
q-29 -24 -145 -185q-4 -5 -9 -5.5t-6.5 4t3.5 10.5q8 10 31.5 42.5t33 45.5t30.5 40t34.5 43t32.5 37t37 39q39 40 88.5 60.5t87.5 3.5t53.5 -49.5t8 -62.5t-36.5 -51t-70 -17q-29 3 -57 17.5t-41.5 26.5t-35 16t-39.5 -15zM169 573v763q0 60 -60 60h-58l-7 5v18h483v-1396
q-358 91 -358 550zM1190 1419h345v-18l-7 -5h-58q-60 0 -60 -60l2 -763q-2 -277 -121 -425t-348 -148h-208q-91 0 -167 14v1405h142v-18l-7 -5h-58q-60 0 -60 -60v-1110q0 -97 82.5 -157.5t203.5 -60.5h72q38 0 73.5 4t83 18.5t87.5 38.5t81 67.5t69 101t46 143.5t18 192
l-1 763q0 60 -60 60h-143l-7 5v18z" />
    <glyph glyph-name="Udieresis" unicode="&#xdc;" horiz-adv-x="1574" 
d="M643 1756q0 38 26.5 65t65.5 27q38 0 64.5 -27t26.5 -65t-26.5 -65t-64.5 -27q-39 0 -65.5 27t-26.5 65zM939 1756q0 38 26.5 65t64.5 27q39 0 65.5 -27t26.5 -65t-26.5 -65t-65.5 -27q-38 0 -64.5 27t-26.5 65zM169 573v763q0 60 -60 60h-58l-7 5v18h483v-1396
q-358 91 -358 550zM1535 1419h-345v-18l7 -5h143q60 0 60 -60l1 -763q0 -106 -18 -192t-46 -143.5t-69 -101t-81 -67.5t-87.5 -38.5t-83 -18.5t-73.5 -4h-72q-121 0 -203.5 60.5t-82.5 157.5v1110q0 60 60 60h58l7 5v18h-142v-1405q76 -14 167 -14h208q229 0 348 148
t121 425l-2 763q0 60 60 60h58l7 5v18z" />
    <glyph glyph-name="Yacute" unicode="&#xdd;" horiz-adv-x="1274" 
d="M419 603l-394 711q-32 57 -48 70q-15 12 -33 12h-41l-7 5v18h456l444 -799v-537q0 -60 60 -60h119l7 -5v-18h-727v18l7 5h117q60 0 60 60v429q0 48 -20 91zM482 1315l308 -561q19 -33 34.5 -33.5t36.5 34.5l312 560q17 29 8 55t-41 26h-169l-7 5v18h327v-18l-7 -5h-19
q-18 0 -34 -14t-22.5 -25t-24.5 -43l-363 -652l-418 757h211v-18l-7 -5h-92q-32 0 -41 -26t8 -55zM679 1778q-29 -24 -145 -185q-4 -5 -9 -5.5t-6.5 4t3.5 10.5q8 10 31.5 42.5t33 45.5t30.5 40t34.5 43t32.5 37t37 39q39 40 88.5 60.5t87.5 3.5t53.5 -49.5t8 -62.5
t-36.5 -51t-70 -17q-29 3 -57 17.5t-41.5 26.5t-35 16t-39.5 -15z" />
    <glyph glyph-name="agrave" unicode="&#xe0;" horiz-adv-x="1088" 
d="M509 108q15 22 22 41t7.5 26t0.5 31v347q0 41 -35 32q-6 -1 -30.5 -7.5t-45.5 -11.5q-72 -18 -92 -174q-17 -138 13 -269q25 -110 65 -109q13 0 26 13q40 40 69 81zM491 23h21q18 0 22.5 6.5t4.5 23.5v47q0 9 -3.5 11.5t-9 -0.5t-12.5 -11q-57 -66 -61 -70
q-30 -30 -61.5 -38.5t-107.5 -8.5q-68 0 -122 24.5t-83.5 64.5t-45 90t-9.5 102.5t24.5 100t56.5 85.5t87 55q131 46 365 97v-602h-73v18zM955 83q0 -60 60 -60h7l7 -5v-18h-431v553q0 55 34 62q45 10 74.5 17t62.5 17t52 19.5t37.5 22t23.5 26.5t4.5 31.5t-13 39
t-34.5 47.5q-64 72 -169 112.5t-215.5 34.5t-185.5 -60q-15 -11 -7 -32q2 -4 29 -23t30 -31q8 -26 -3 -48.5t-31.5 -33t-46 -7t-42.5 24.5q-20 27 -12 62.5t39 61.5q22 20 38 31q59 39 135 53.5t151.5 4.5t149 -43.5t130 -84t91.5 -124t36 -156.5q0 -103 -0.5 -259.5
t-0.5 -234.5zM558 1210q-18 19 -39.5 15t-35 -16t-41.5 -26.5t-57 -17.5q-41 -4 -70 17t-36.5 51t8 62.5t53.5 49.5t87.5 -3.5t88.5 -60.5q18 -18 37 -39t32.5 -37t34.5 -43t30.5 -40t33 -45.5t31.5 -42.5q5 -6 3.5 -10.5t-6.5 -4t-9 5.5q-116 161 -145 185z" />
    <glyph glyph-name="aacute" unicode="&#xe1;" horiz-adv-x="1088" 
d="M509 108q15 22 22 41t7.5 26t0.5 31v347q0 41 -35 32q-6 -1 -30.5 -7.5t-45.5 -11.5q-72 -18 -92 -174q-17 -138 13 -269q25 -110 65 -109q13 0 26 13q40 40 69 81zM491 23h21q18 0 22.5 6.5t4.5 23.5v47q0 9 -3.5 11.5t-9 -0.5t-12.5 -11q-57 -66 -61 -70
q-30 -30 -61.5 -38.5t-107.5 -8.5q-68 0 -122 24.5t-83.5 64.5t-45 90t-9.5 102.5t24.5 100t56.5 85.5t87 55q131 46 365 97v-602h-73v18zM955 83q0 78 0.5 234.5t0.5 259.5q-1 83 -36 156.5t-91.5 124t-130 84t-149 43.5t-151.5 -4.5t-135 -53.5q-16 -11 -38 -31
q-31 -26 -39 -61.5t12 -62.5q17 -21 42.5 -24.5t46 7t31.5 33t3 48.5q-3 12 -30 31t-29 23q-8 21 7 32q75 54 185.5 60t215.5 -34.5t169 -112.5q22 -26 34.5 -47.5t13 -39t-4.5 -31.5t-23.5 -26.5t-37.5 -22t-52 -19.5t-62.5 -17t-74.5 -17q-34 -7 -34 -62v-553h431v18l-7 5
h-7q-60 0 -60 60zM495 1210q-29 -24 -145 -185q-4 -5 -9 -5.5t-6.5 4t3.5 10.5q8 10 31.5 42.5t33 45.5t30.5 40t34.5 43t32.5 37t37 39q39 40 88.5 60.5t87.5 3.5t53.5 -49.5t8 -62.5t-36.5 -51t-70 -17q-29 3 -57 17.5t-41.5 26.5t-35 16t-39.5 -15z" />
    <glyph glyph-name="acircumflex" unicode="&#xe2;" horiz-adv-x="1088" 
d="M376 1184h-44l169 292l168 -292h-44l-124 216zM509 108q15 22 22 41t7.5 26t0.5 31v347q0 41 -35 32q-6 -1 -30.5 -7.5t-45.5 -11.5q-72 -18 -92 -174q-17 -138 13 -269q25 -110 65 -109q13 0 26 13q40 40 69 81zM491 23h21q18 0 22.5 6.5t4.5 23.5v47q0 9 -3.5 11.5
t-9 -0.5t-12.5 -11q-57 -66 -61 -70q-30 -30 -61.5 -38.5t-107.5 -8.5q-68 0 -122 24.5t-83.5 64.5t-45 90t-9.5 102.5t24.5 100t56.5 85.5t87 55q131 46 365 97v-602h-73v18zM955 83q0 -60 60 -60h7l7 -5v-18h-431v553q0 55 34 62q45 10 74.5 17t62.5 17t52 19.5t37.5 22
t23.5 26.5t4.5 31.5t-13 39t-34.5 47.5q-64 72 -169 112.5t-215.5 34.5t-185.5 -60q-15 -11 -7 -32q2 -4 29 -23t30 -31q8 -26 -3 -48.5t-31.5 -33t-46 -7t-42.5 24.5q-20 27 -12 62.5t39 61.5q22 20 38 31q59 39 135 53.5t151.5 4.5t149 -43.5t130 -84t91.5 -124t36 -156.5
q0 -103 -0.5 -259.5t-0.5 -234.5z" />
    <glyph glyph-name="atilde" unicode="&#xe3;" horiz-adv-x="1088" 
d="M871 1283q-39 -103 -126 -147.5t-188 -15.5q-53 15 -100 44.5t-75.5 58.5t-54 56t-42.5 40t-35 7.5t-37 -39t-43 -100.5h-11l55 131q36 91 115 120.5t164 -33.5q123 -102 174 -133q148 -91 192 11l57 132h10zM509 108q15 22 22 41t7.5 26t0.5 31v347q0 41 -35 32
q-6 -1 -30.5 -7.5t-45.5 -11.5q-72 -18 -92 -174q-17 -138 13 -269q25 -110 65 -109q13 0 26 13q40 40 69 81zM491 23h21q18 0 22.5 6.5t4.5 23.5v47q0 9 -3.5 11.5t-9 -0.5t-12.5 -11q-57 -66 -61 -70q-30 -30 -61.5 -38.5t-107.5 -8.5q-68 0 -122 24.5t-83.5 64.5t-45 90
t-9.5 102.5t24.5 100t56.5 85.5t87 55q131 46 365 97v-602h-73v18zM955 83q0 78 0.5 234.5t0.5 259.5q-1 83 -36 156.5t-91.5 124t-130 84t-149 43.5t-151.5 -4.5t-135 -53.5q-16 -11 -38 -31q-31 -26 -39 -61.5t12 -62.5q17 -21 42.5 -24.5t46 7t31.5 33t3 48.5
q-3 12 -30 31t-29 23q-8 21 7 32q75 54 185.5 60t215.5 -34.5t169 -112.5q22 -26 34.5 -47.5t13 -39t-4.5 -31.5t-23.5 -26.5t-37.5 -22t-52 -19.5t-62.5 -17t-74.5 -17q-34 -7 -34 -62v-553h431v18l-7 5h-7q-60 0 -60 60z" />
    <glyph glyph-name="adieresis" unicode="&#xe4;" horiz-adv-x="1088" 
d="M298 1237q0 38 26.5 65t65.5 27q38 0 64.5 -27t26.5 -65t-26.5 -65t-64.5 -27q-39 0 -65.5 27t-26.5 65zM594 1237q0 38 26.5 65t64.5 27q39 0 65.5 -27t26.5 -65t-26.5 -65t-65.5 -27q-38 0 -64.5 27t-26.5 65zM509 108q15 22 22 41t7.5 26t0.5 31v347q0 41 -35 32
q-6 -1 -30.5 -7.5t-45.5 -11.5q-72 -18 -92 -174q-17 -138 13 -269q25 -110 65 -109q13 0 26 13q40 40 69 81zM491 23h21q18 0 22.5 6.5t4.5 23.5v47q0 9 -3.5 11.5t-9 -0.5t-12.5 -11q-57 -66 -61 -70q-30 -30 -61.5 -38.5t-107.5 -8.5q-68 0 -122 24.5t-83.5 64.5t-45 90
t-9.5 102.5t24.5 100t56.5 85.5t87 55q131 46 365 97v-602h-73v18zM955 83q0 78 0.5 234.5t0.5 259.5q-1 83 -36 156.5t-91.5 124t-130 84t-149 43.5t-151.5 -4.5t-135 -53.5q-16 -11 -38 -31q-31 -26 -39 -61.5t12 -62.5q17 -21 42.5 -24.5t46 7t31.5 33t3 48.5
q-3 12 -30 31t-29 23q-8 21 7 32q75 54 185.5 60t215.5 -34.5t169 -112.5q22 -26 34.5 -47.5t13 -39t-4.5 -31.5t-23.5 -26.5t-37.5 -22t-52 -19.5t-62.5 -17t-74.5 -17q-34 -7 -34 -62v-553h431v18l-7 5h-7q-60 0 -60 60z" />
    <glyph glyph-name="aring" unicode="&#xe5;" horiz-adv-x="1088" 
d="M395 1340q0 -38 1.5 -62t8.5 -54t20 -47.5t37 -29.5t59 -12q34 0 58.5 12t37.5 29.5t20 47.5t8.5 54t1.5 62t-1.5 62t-8.5 54t-20 47.5t-37.5 29.5t-58.5 12q-35 0 -59 -12t-37 -29.5t-20 -47.5t-8.5 -54t-1.5 -62zM298 1340q0 110 63 161t160 51q96 0 159.5 -51
t63.5 -161t-63.5 -161t-159.5 -51q-97 0 -160 51t-63 161zM509 108q15 22 22 41t7.5 26t0.5 31v347q0 41 -35 32q-6 -1 -30.5 -7.5t-45.5 -11.5q-72 -18 -92 -174q-17 -138 13 -269q25 -110 65 -109q13 0 26 13q40 40 69 81zM491 23h21q18 0 22.5 6.5t4.5 23.5v47
q0 9 -3.5 11.5t-9 -0.5t-12.5 -11q-57 -66 -61 -70q-30 -30 -61.5 -38.5t-107.5 -8.5q-68 0 -122 24.5t-83.5 64.5t-45 90t-9.5 102.5t24.5 100t56.5 85.5t87 55q131 46 365 97v-602h-73v18zM955 83q0 -60 60 -60h7l7 -5v-18h-431v553q0 55 34 62q45 10 74.5 17t62.5 17
t52 19.5t37.5 22t23.5 26.5t4.5 31.5t-13 39t-34.5 47.5q-64 72 -169 112.5t-215.5 34.5t-185.5 -60q-15 -11 -7 -32q2 -4 29 -23t30 -31q8 -26 -3 -48.5t-31.5 -33t-46 -7t-42.5 24.5q-20 27 -12 62.5t39 61.5q22 20 38 31q59 39 135 53.5t151.5 4.5t149 -43.5t130 -84
t91.5 -124t36 -156.5q0 -103 -0.5 -259.5t-0.5 -234.5z" />
    <glyph glyph-name="ccedilla" unicode="&#xe7;" horiz-adv-x="1104" 
d="M650 -33q71 0 141.5 27.5t109.5 74.5l89 102l2 -2l1 -4l-89 -102q-33 -38 -100.5 -70t-153.5 -32q-81 0 -128.5 45.5t-72 160.5t-24.5 316v3q0 201 24.5 316t72 160.5t128.5 45.5q146 0 259 -107q5 -5 8.5 -7.5t9 -5t8.5 -1t5.5 9t2.5 20.5v42h19l4 -5v-232l-4 -5h-19v66
q0 61 -45 112.5t-112 79t-136 27.5q-111 0 -159 -114.5t-48 -401.5v-3q0 -195 22 -308t66 -160.5t119 -47.5zM466 -48q-72 10 -133.5 32t-119.5 64t-98 99.5t-64.5 144t-24.5 194.5q0 122 31.5 216.5t81.5 152.5t122 96.5t144.5 54.5t156.5 20q-93 -21 -135.5 -146
t-42.5 -394v-3q0 -269 42.5 -394t135.5 -146q-42 0 -56 -28q-13 -26 -19 -40q-8 -19 -1.5 -28t25.5 -6q36 4 55 5t54 -9t61 -36q36 -35 43.5 -81.5t-10 -87t-66 -68.5t-115.5 -28q-17 0 -33 2.5t-29.5 7.5t-23.5 9.5t-20.5 12.5t-15.5 11.5t-13 10.5l-8 8l7 7
q18 -19 50.5 -33t63.5 -14q55 0 88 53.5t27 116t-52 84.5q-31 13 -56.5 8t-41.5 -18l-16 -12l-16 17q32 68 50 108q15 31 -28 37z" />
    <glyph glyph-name="egrave" unicode="&#xe8;" horiz-adv-x="1024" 
d="M416 1000q-40 -16 -47 -167q-2 -38 -2 -347v-3q0 -254 37 -379t118 -153q-68 10 -136 34t-137 68.5t-122 103t-86 144t-33 185.5q0 103 25 186t63.5 136t95 93.5t108.5 61.5t116 37zM435 297l145 85q82 47 109.5 209.5t-23.5 298.5t-163 113l-23 -6q-41 -11 -50 -143
q-3 -49 -2 -339v-29v-3q0 -110 7 -186zM436 291q15 -175 61.5 -249.5t134.5 -74.5q57 0 105 13.5t89 42.5t73.5 63t71.5 84l3 -1l1 -4q-37 -49 -68.5 -81t-73 -62.5t-91.5 -45.5t-110 -15q-80 0 -127.5 46t-72 161t-24.5 315v3v124q-2 87 -1 156t5.5 118.5t16 78.5t31.5 34
l43 10q53 11 101 8.5t94 -14.5t83 -34t68.5 -49.5t51.5 -62t31 -70t7 -74.5t-20 -76t-50 -73.5t-83 -67.5zM553 1260q-18 19 -39.5 15t-35 -16t-41.5 -26.5t-57 -17.5q-41 -4 -70 17t-36.5 51t8 62.5t53.5 49.5t87.5 -3.5t88.5 -60.5q18 -18 37 -39t32.5 -37t34.5 -43
t30.5 -40t33 -45.5t31.5 -42.5q5 -6 3.5 -10.5t-6.5 -4t-9 5.5q-116 161 -145 185z" />
    <glyph glyph-name="eacute" unicode="&#xe9;" horiz-adv-x="1024" 
d="M416 1000q-64 -16 -116 -37t-108.5 -61.5t-95 -93.5t-63.5 -136t-25 -186q0 -100 33 -185.5t86 -144t122 -103t137 -68.5t136 -34q-81 28 -118 153t-37 379v3q0 309 2 347q7 151 47 167zM580 382l-145 -85q-7 76 -7 186v3v124q-2 87 -1 156t5.5 118.5t16 78.5t31.5 34
l23 6q112 23 163 -113t23.5 -298.5t-109.5 -209.5zM436 291l350 203q49 31 83 67.5t50 73.5t20 76t-7 74.5t-31 70t-51.5 62t-68.5 49.5t-83 34t-94 14.5t-101 -8.5l-43 -10q-41 -11 -50 -143q-3 -49 -2 -339v-29v-3q0 -200 24.5 -315t72 -161t127.5 -46q60 0 110 15
t91.5 45.5t73 62.5t68.5 81l-1 4l-3 1q-39 -50 -71.5 -84t-73.5 -63t-89 -42.5t-105 -13.5q-88 0 -134.5 74.5t-61.5 249.5zM397 1260q-29 -24 -145 -185q-4 -5 -9 -5.5t-6.5 4t3.5 10.5q8 10 31.5 42.5t33 45.5t30.5 40t34.5 43t32.5 37t37 39q39 40 88.5 60.5t87.5 3.5
t53.5 -49.5t8 -62.5t-36.5 -51t-70 -17q-29 3 -57 17.5t-41.5 26.5t-35 16t-39.5 -15z" />
    <glyph glyph-name="ecircumflex" unicode="&#xea;" horiz-adv-x="1024" 
d="M376 1184h-44l169 292l168 -292h-44l-124 216zM416 1000q-40 -16 -47 -167q-2 -38 -2 -347v-3q0 -254 37 -379t118 -153q-68 10 -136 34t-137 68.5t-122 103t-86 144t-33 185.5q0 103 25 186t63.5 136t95 93.5t108.5 61.5t116 37zM435 297l145 85q82 47 109.5 209.5
t-23.5 298.5t-163 113l-23 -6q-41 -11 -50 -143q-3 -49 -2 -339v-29v-3q0 -110 7 -186zM436 291q15 -175 61.5 -249.5t134.5 -74.5q57 0 105 13.5t89 42.5t73.5 63t71.5 84l3 -1l1 -4q-37 -49 -68.5 -81t-73 -62.5t-91.5 -45.5t-110 -15q-80 0 -127.5 46t-72 161t-24.5 315
v3v124q-2 87 -1 156t5.5 118.5t16 78.5t31.5 34l43 10q53 11 101 8.5t94 -14.5t83 -34t68.5 -49.5t51.5 -62t31 -70t7 -74.5t-20 -76t-50 -73.5t-83 -67.5z" />
    <glyph glyph-name="edieresis" unicode="&#xeb;" horiz-adv-x="1024" 
d="M268 1237q0 38 26.5 65t65.5 27q38 0 64.5 -27t26.5 -65t-26.5 -65t-64.5 -27q-39 0 -65.5 27t-26.5 65zM564 1237q0 38 26.5 65t64.5 27q39 0 65.5 -27t26.5 -65t-26.5 -65t-65.5 -27q-38 0 -64.5 27t-26.5 65zM416 1000q-64 -16 -116 -37t-108.5 -61.5t-95 -93.5
t-63.5 -136t-25 -186q0 -100 33 -185.5t86 -144t122 -103t137 -68.5t136 -34q-81 28 -118 153t-37 379v3q0 309 2 347q7 151 47 167zM580 382l-145 -85q-7 76 -7 186v3v124q-2 87 -1 156t5.5 118.5t16 78.5t31.5 34l23 6q112 23 163 -113t23.5 -298.5t-109.5 -209.5z
M436 291l350 203q49 31 83 67.5t50 73.5t20 76t-7 74.5t-31 70t-51.5 62t-68.5 49.5t-83 34t-94 14.5t-101 -8.5l-43 -10q-41 -11 -50 -143q-3 -49 -2 -339v-29v-3q0 -200 24.5 -315t72 -161t127.5 -46q60 0 110 15t91.5 45.5t73 62.5t68.5 81l-1 4l-3 1q-39 -50 -71.5 -84
t-73.5 -63t-89 -42.5t-105 -13.5q-88 0 -134.5 74.5t-61.5 249.5z" />
    <glyph glyph-name="igrave" unicode="&#xec;" horiz-adv-x="752" 
d="M409 1541q-18 19 -39.5 15t-35 -16t-41.5 -26.5t-57 -17.5q-41 -4 -70 17t-36.5 51t8 62.5t53.5 49.5t87.5 -3.5t88.5 -60.5q18 -18 38 -40.5t34.5 -40t37.5 -47t33 -43t36 -48.5t32 -44q6 -7 0 -5q-9 2 -24 12q-116 161 -145 185zM178 0h-113v18l7 5h28q60 0 60 60v629
q0 17 -8 20t-23 -5l-32 -16l-14 -3l-17 14q71 38 112 61v-783zM671 0h-452v799q249 143 338 226q81 77 81 164q0 85 -61 146t-146 61q-58 0 -93 -29q-18 -15 -7 -38q4 -7 36.5 -30t39.5 -34q21 -35 -2.5 -72t-64.5 -42t-82 36q-26 35 -17.5 81t45.5 78q66 60 145 60
q90 0 153.5 -63.5t63.5 -153.5q0 -41 -17 -78t-37.5 -61.5t-50.5 -53.5q-3 -2 -4 -3l-3 -3l-4 -4q-10 -10 -1.5 -18t21.5 4q10 9 17.5 5.5t7.5 -14.5l-1 -880q0 -60 60 -60h28l7 -5v-18z" />
    <glyph glyph-name="iacute" unicode="&#xed;" horiz-adv-x="1057" 
d="M171 0h-113v18l7 5h28q60 0 60 60v629q0 17 -8 20t-23 -5l-32 -16l-14 -3l-17 14q71 38 112 61v-783zM664 0h-452v799q249 143 338 226q81 77 81 164q0 85 -60.5 146t-146.5 61q-58 0 -93 -29q-18 -15 -7 -38q4 -7 36.5 -30t39.5 -34q21 -35 -2.5 -72t-64.5 -42t-82 36
q-26 35 -17.5 81t45.5 78q66 60 145 60q90 0 153.5 -63.5t63.5 -153.5q0 -41 -17 -78t-37.5 -61.5t-50.5 -53.5q-3 -2 -4 -3l-3 -3l-4 -4q-10 -10 -1.5 -18t21.5 4q11 9 18 5.5t7 -14.5l-1 -880q0 -60 60 -60h28l7 -5v-18zM711 1536q-29 -24 -145 -185l-12 9q8 10 31.5 42.5
t33 45.5t30.5 40t34.5 43t32.5 37t37 39q39 40 88.5 60.5t87.5 3.5t53.5 -49.5t8 -62.5t-36.5 -51t-70 -17q-29 3 -57 17.5t-41.5 26.5t-35 16t-39.5 -15z" />
    <glyph glyph-name="icircumflex" unicode="&#xee;" horiz-adv-x="733" 
d="M291 1480h-44l169 292l168 -292h-44l-124 216zM167 0h-113v18l7 5h28q60 0 60 60v629q0 17 -8 20t-23 -5l-32 -16l-14 -3l-17 14q71 38 112 61v-783zM660 0h-452v799q249 143 338 226q81 77 81 164q0 85 -60.5 146t-146.5 61q-58 0 -93 -29q-18 -15 -7 -38q4 -7 36.5 -30
t39.5 -34q21 -35 -2.5 -72t-64.5 -42t-82 36q-26 35 -17.5 81t45.5 78q66 60 145 60q90 0 153.5 -63.5t63.5 -153.5q0 -41 -17 -78t-37.5 -61.5t-50.5 -53.5q-3 -2 -4 -3l-3 -3l-4 -4q-10 -10 -1.5 -18t21.5 4q11 9 18 5.5t7 -14.5l-1 -880q0 -60 60 -60h28l7 -5v-18z" />
    <glyph glyph-name="idieresis" unicode="&#xef;" horiz-adv-x="856" 
d="M229 1611q0 38 26.5 65t65.5 27q38 0 64.5 -27t26.5 -65t-26.5 -65t-64.5 -27q-39 0 -65.5 27t-26.5 65zM525 1611q0 38 26.5 65t64.5 27q39 0 65.5 -27t26.5 -65t-26.5 -65t-65.5 -27q-38 0 -64.5 27t-26.5 65zM233 0h-113v18l7 5h28q60 0 60 60v629q0 17 -8 20t-23 -5
l-32 -16l-14 -3l-17 14q71 38 112 61v-783zM726 0h-452v799q249 143 338 226q81 77 81 164q0 85 -60.5 146t-146.5 61q-58 0 -93 -29q-18 -15 -7 -38q4 -7 36.5 -30t39.5 -34q21 -35 -2.5 -72t-64.5 -42t-82 36q-26 35 -17.5 81t45.5 78q66 60 145 60q90 0 153.5 -63.5
t63.5 -153.5q0 -41 -17 -78t-37.5 -61.5t-50.5 -53.5q-3 -2 -4 -3l-3 -3l-4 -4q-10 -10 -1.5 -18t21.5 4q11 9 18 5.5t7 -14.5l-1 -880q0 -60 60 -60h28l7 -5v-18z" />
    <glyph glyph-name="ntilde" unicode="&#xf1;" horiz-adv-x="1312" 
d="M1001 1283q-39 -103 -126 -147.5t-188 -15.5q-53 15 -100 44.5t-75.5 58.5t-54 56t-42.5 40t-35 7.5t-37 -39t-43 -100.5h-11l55 131q36 91 115 120.5t164 -33.5q123 -102 174 -133q148 -91 192 11l57 132h10zM549 779v-696q0 -60 60 -60h39l7 -5v-18h-124v1002h18v-119
q0 -6 2.5 -11.5t11 -9.5t23.5 5q102 56 224.5 58.5t218.5 -58.5q96 -66 154 -172t67 -248.5t-57 -304.5q0 -43 28.5 -65.5t94.5 -34.5l14 -9l6 -33h-543l3 158q0 34 16 48q64 53 123 127t100.5 159t54 163.5t-25 144.5t-129.5 98q-41 14 -95 18t-125 -12t-130 -54
q-4 -2 -10 -6.5t-16 -23t-10 -41.5zM132 83v684q0 41 -14 56t-38 5.5t-55 -41.5l-14 -3l-17 14l204 204h267q25 0 25 -17v-985h-543v18l7 5h118q60 0 60 60z" />
    <glyph glyph-name="ograve" unicode="&#xf2;" horiz-adv-x="1152" 
d="M386 492q-1 -323 18.5 -428t108.5 -118q-72 6 -140 29t-131 68t-110 106.5t-75 150t-28 192.5t28 192.5t75 150t110 106.5t131 68t140 29q-89 -13 -108.5 -118t-18.5 -428zM427 492q0 348 21.5 435t127.5 87t127.5 -87t21.5 -435t-21.5 -435t-127.5 -87t-127.5 87
t-21.5 435zM706 492v9q0 328 -19 416.5t-111 88.5t-111 -88.5t-19 -416.5v-3v-3v-3v-9q0 -328 19 -416.5t111 -88.5t111 88.5t19 416.5v3v3v3zM766 492q1 323 -18.5 428t-108.5 118q72 -6 140 -29t131 -68t110 -106.5t75 -150t28 -192.5t-28 -192.5t-75 -150t-110 -106.5
t-131 -68t-140 -29q89 13 108.5 118t18.5 428zM659 1329q-18 19 -39.5 15t-35 -16t-41.5 -26.5t-57 -17.5q-41 -4 -70 17t-36.5 51t8 62.5t53.5 49.5t87.5 -3.5t88.5 -60.5q18 -18 37 -39t32.5 -37t34.5 -43t30.5 -40t33 -45.5t31.5 -42.5q5 -6 3.5 -10.5t-6.5 -4t-9 5.5
q-116 161 -145 185z" />
    <glyph glyph-name="oacute" unicode="&#xf3;" horiz-adv-x="1152" 
d="M386 492q-1 -323 18.5 -428t108.5 -118q-72 6 -140 29t-131 68t-110 106.5t-75 150t-28 192.5t28 192.5t75 150t110 106.5t131 68t140 29q-89 -13 -108.5 -118t-18.5 -428zM427 492q0 -348 21.5 -435t127.5 -87t127.5 87t21.5 435t-21.5 435t-127.5 87t-127.5 -87
t-21.5 -435zM706 492v-9q0 -328 -19 -416.5t-111 -88.5t-111 88.5t-19 416.5v3v3v3v9q0 328 19 416.5t111 88.5t111 -88.5t19 -416.5v-3v-3v-3zM766 492q1 323 -18.5 428t-108.5 118q72 -6 140 -29t131 -68t110 -106.5t75 -150t28 -192.5t-28 -192.5t-75 -150t-110 -106.5
t-131 -68t-140 -29q89 13 108.5 118t18.5 428zM503 1329q-29 -24 -145 -185q-4 -5 -9 -5.5t-6.5 4t3.5 10.5q8 10 31.5 42.5t33 45.5t30.5 40t34.5 43t32.5 37t37 39q39 40 88.5 60.5t87.5 3.5t53.5 -49.5t8 -62.5t-36.5 -51t-70 -17q-29 3 -57 17.5t-41.5 26.5t-35 16
t-39.5 -15z" />
    <glyph glyph-name="ocircumflex" unicode="&#xf4;" horiz-adv-x="1152" 
d="M442 1184h-44l169 292l168 -292h-44l-124 216zM386 492q-1 -323 18.5 -428t108.5 -118q-72 6 -140 29t-131 68t-110 106.5t-75 150t-28 192.5t28 192.5t75 150t110 106.5t131 68t140 29q-89 -13 -108.5 -118t-18.5 -428zM427 492q0 348 21.5 435t127.5 87t127.5 -87
t21.5 -435t-21.5 -435t-127.5 -87t-127.5 87t-21.5 435zM706 492v9q0 328 -19 416.5t-111 88.5t-111 -88.5t-19 -416.5v-3v-3v-3v-9q0 -328 19 -416.5t111 -88.5t111 88.5t19 416.5v3v3v3zM766 492q1 323 -18.5 428t-108.5 118q72 -6 140 -29t131 -68t110 -106.5t75 -150
t28 -192.5t-28 -192.5t-75 -150t-110 -106.5t-131 -68t-140 -29q89 13 108.5 118t18.5 428z" />
    <glyph glyph-name="otilde" unicode="&#xf5;" horiz-adv-x="1152" 
d="M894 1283q-39 -103 -126 -147.5t-188 -15.5q-53 15 -100 44.5t-75.5 58.5t-54 56t-42.5 40t-35 7.5t-37 -39t-43 -100.5h-11l55 131q36 91 115 120.5t164 -33.5q123 -102 174 -133q148 -91 192 11l57 132h10zM386 492q-1 -323 18.5 -428t108.5 -118q-72 6 -140 29
t-131 68t-110 106.5t-75 150t-28 192.5t28 192.5t75 150t110 106.5t131 68t140 29q-89 -13 -108.5 -118t-18.5 -428zM427 492q0 -348 21.5 -435t127.5 -87t127.5 87t21.5 435t-21.5 435t-127.5 87t-127.5 -87t-21.5 -435zM706 492v-9q0 -328 -19 -416.5t-111 -88.5
t-111 88.5t-19 416.5v3v3v3v9q0 328 19 416.5t111 88.5t111 -88.5t19 -416.5v-3v-3v-3zM766 492q1 323 -18.5 428t-108.5 118q72 -6 140 -29t131 -68t110 -106.5t75 -150t28 -192.5t-28 -192.5t-75 -150t-110 -106.5t-131 -68t-140 -29q89 13 108.5 118t18.5 428z" />
    <glyph glyph-name="odieresis" unicode="&#xf6;" horiz-adv-x="1152" 
d="M328 1237q0 38 26.5 65t65.5 27q38 0 64.5 -27t26.5 -65t-26.5 -65t-64.5 -27q-39 0 -65.5 27t-26.5 65zM624 1237q0 38 26.5 65t64.5 27q39 0 65.5 -27t26.5 -65t-26.5 -65t-65.5 -27q-38 0 -64.5 27t-26.5 65zM386 492q-1 -323 18.5 -428t108.5 -118q-72 6 -140 29
t-131 68t-110 106.5t-75 150t-28 192.5t28 192.5t75 150t110 106.5t131 68t140 29q-89 -13 -108.5 -118t-18.5 -428zM427 492q0 -348 21.5 -435t127.5 -87t127.5 87t21.5 435t-21.5 435t-127.5 87t-127.5 -87t-21.5 -435zM706 492v-9q0 -328 -19 -416.5t-111 -88.5
t-111 88.5t-19 416.5v3v3v3v9q0 328 19 416.5t111 88.5t111 -88.5t19 -416.5v-3v-3v-3zM766 492q1 323 -18.5 428t-108.5 118q72 -6 140 -29t131 -68t110 -106.5t75 -150t28 -192.5t-28 -192.5t-75 -150t-110 -106.5t-131 -68t-140 -29q89 13 108.5 118t18.5 428z" />
    <glyph glyph-name="divide" unicode="&#xf7;" horiz-adv-x="1086" 
d="M105 526v-60h883v60h-883zM429 215q0 49 33.5 83t83.5 34t83.5 -34t33.5 -83t-33.5 -83t-83.5 -34t-83.5 34t-33.5 83zM429 759q0 49 33.5 83t83.5 34t83.5 -34t33.5 -83t-33.5 -83t-83.5 -34t-83.5 34t-33.5 83z" />
    <glyph glyph-name="ugrave" unicode="&#xf9;" horiz-adv-x="1427" 
d="M1273 969v-886q0 -60 60 -60h15l7 -5v-18h-440v920l66 66h269q8 0 12 -0.5t7.5 -4.5t3.5 -12zM803 47q-154 -81 -340 -49q-68 12 -116 35t-88.5 67.5t-60.5 121t-20 185.5l-1 344q0 108 -81 48l-14 -3q-34 27 -50 43l120 147h224q7 0 9.5 -4t-0.5 -8.5t-10 -4.5
q-5 0 -20 -3t-44.5 -16t-54.5 -34.5t-44.5 -65t-19.5 -100.5v-255q0 -66 0.5 -99t6 -89t15 -86.5t29.5 -71.5t49 -64.5t73 -45t101 -31.5q58 -15 151 -5t168 50q71 35 71 92v613v27q0 21 -11.5 23.5t-21.5 -8.5q-4 -4 -13 -12.5t-14 -13.5l-14 -3l-17 14l109 109v-136v-758
h-61v18l7 5h10q26 0 26 24v14q0 16 -35 -4q-16 -9 -18 -10zM678 1210q-18 19 -39.5 15t-35 -16t-41.5 -26.5t-57 -17.5q-41 -4 -70 17t-36.5 51t8 62.5t53.5 49.5t87.5 -3.5t88.5 -60.5q18 -18 37 -39t32.5 -37t34.5 -43t30.5 -40t33 -45.5t31.5 -42.5q5 -6 3.5 -10.5
t-6.5 -4t-9 5.5q-116 161 -145 185z" />
    <glyph glyph-name="uacute" unicode="&#xfa;" horiz-adv-x="1427" 
d="M1273 969v-886q0 -60 60 -60h15l7 -5v-18h-440v920l66 66h269q8 0 12 -0.5t7.5 -4.5t3.5 -12zM803 47q40 21 44 22q9 1 9 -8v-14q0 -24 -26 -24h-10l-7 -5v-18h61v758v136l-109 -109l17 -14l14 3q5 5 14 13.5t13 12.5q10 11 21.5 8.5t11.5 -23.5v-27v-613q0 -57 -71 -92
q-75 -40 -168 -50t-151 5q-57 10 -101 31.5t-73 45t-49 64.5t-29.5 71.5t-15 86.5t-6 89t-0.5 99v255q0 57 19.5 100.5t44.5 65t54.5 34.5t44.5 16t20 3q7 0 10 4.5t0.5 8.5t-9.5 4h-224l-120 -147l50 -43l14 3q81 60 81 -48l1 -344q0 -109 20 -185.5t60.5 -121t88.5 -67.5
t116 -35q186 -32 340 49zM594 1210q-29 -24 -145 -185q-4 -5 -9 -5.5t-6.5 4t3.5 10.5q8 10 31.5 42.5t33 45.5t30.5 40t34.5 43t32.5 37t37 39q39 40 88.5 60.5t87.5 3.5t53.5 -49.5t8 -62.5t-36.5 -51t-70 -17q-29 3 -57 17.5t-41.5 26.5t-35 16t-39.5 -15z" />
    <glyph glyph-name="ucircumflex" unicode="&#xfb;" horiz-adv-x="1427" 
d="M489 1184h-44l169 292l168 -292h-44l-124 216zM1273 969v-886q0 -60 60 -60h15l7 -5v-18h-440v920l66 66h269q8 0 12 -0.5t7.5 -4.5t3.5 -12zM803 47q-154 -81 -340 -49q-68 12 -116 35t-88.5 67.5t-60.5 121t-20 185.5l-1 344q0 108 -81 48l-14 -3q-34 27 -50 43
l120 147h224q7 0 9.5 -4t-0.5 -8.5t-10 -4.5q-5 0 -20 -3t-44.5 -16t-54.5 -34.5t-44.5 -65t-19.5 -100.5v-255q0 -66 0.5 -99t6 -89t15 -86.5t29.5 -71.5t49 -64.5t73 -45t101 -31.5q58 -15 151 -5t168 50q71 35 71 92v613v27q0 21 -11.5 23.5t-21.5 -8.5q-4 -4 -13 -12.5
t-14 -13.5l-14 -3l-17 14l109 109v-136v-758h-61v18l7 5h10q26 0 26 24v14q0 16 -35 -4q-16 -9 -18 -10z" />
    <glyph glyph-name="udieresis" unicode="&#xfc;" horiz-adv-x="1427" 
d="M372 1237q0 38 26.5 65t65.5 27q38 0 64.5 -27t26.5 -65t-26.5 -65t-64.5 -27q-39 0 -65.5 27t-26.5 65zM668 1237q0 38 26.5 65t64.5 27q39 0 65.5 -27t26.5 -65t-26.5 -65t-65.5 -27q-38 0 -64.5 27t-26.5 65zM1273 969v-886q0 -60 60 -60h15l7 -5v-18h-440v920l66 66
h269q8 0 12 -0.5t7.5 -4.5t3.5 -12zM803 47q40 21 44 22q9 1 9 -8v-14q0 -24 -26 -24h-10l-7 -5v-18h61v758v136l-109 -109l17 -14l14 3q5 5 14 13.5t13 12.5q10 11 21.5 8.5t11.5 -23.5v-27v-613q0 -57 -71 -92q-75 -40 -168 -50t-151 5q-57 10 -101 31.5t-73 45t-49 64.5
t-29.5 71.5t-15 86.5t-6 89t-0.5 99v255q0 57 19.5 100.5t44.5 65t54.5 34.5t44.5 16t20 3q7 0 10 4.5t0.5 8.5t-9.5 4h-224l-120 -147l50 -43l14 3q81 60 81 -48l1 -344q0 -109 20 -185.5t60.5 -121t88.5 -67.5t116 -35q186 -32 340 49z" />
    <glyph glyph-name="yacute" unicode="&#xfd;" horiz-adv-x="1026" 
d="M627 284l-391 702h-367v-20l7 -3h18q24 0 35 -8.5t25 -33.5q368 -678 449 -850q36 -77 11 -120l-251 -415q-78 -130 -22 -213q37 -54 107 -60q69 -6 105 40q10 13 15 28q7 24 5.5 43t-7 31t0.5 28t28 36q89 78 71 148q-12 43 -56 57q-52 16 -91 -25q-8 -8 -14 -18
q-18 -28 -10 -71.5t27 -81t31 -79.5t1 -67q-21 -51 -83 -57q-64 -5 -106 39q-61 63 -13 173q9 22 23 45zM690 415l299 494q10 17 11.5 29t-5.5 18.5t-21 6.5h-118l-7 5v18h241v-18l-7 -5h-21q-26 0 -59 -55l-352 -584l-367 662h146v-18l-7 -5h-65q-14 0 -20 -2.5t-7 -10.5
t4.5 -20.5t17.5 -34.5l269 -481q14 -25 32.5 -25t35.5 26zM572 1275q-29 -24 -145 -185q-4 -5 -9 -5.5t-6.5 4t3.5 10.5q8 10 31.5 42.5t33 45.5t30.5 40t34.5 43t32.5 37t37 39q39 40 88.5 60.5t87.5 3.5t53.5 -49.5t8 -62.5t-36.5 -51t-70 -17q-29 3 -57 17.5t-41.5 26.5
t-35 16t-39.5 -15z" />
    <glyph glyph-name="ydieresis" unicode="&#xff;" horiz-adv-x="696" 
d="M388 1237q0 38 26.5 65t65.5 27q38 0 64.5 -27t26.5 -65t-26.5 -65t-64.5 -27q-39 0 -65.5 27t-26.5 65zM684 1237q0 38 26.5 65t64.5 27q39 0 65.5 -27t26.5 -65t-26.5 -65t-65.5 -27q-38 0 -64.5 27t-26.5 65zM707 284l-391 702h-367v-20l7 -3h18q24 0 35 -8.5
t25 -33.5q368 -678 449 -850q36 -77 11 -120l-251 -415q-78 -130 -22 -213q37 -54 107 -60q69 -6 105 40q10 13 15 28q7 24 5.5 43t-7 31t0.5 28t28 36q89 78 71 148q-12 43 -56 57q-52 16 -91 -25q-8 -8 -14 -18q-18 -28 -10 -71.5t27 -81t31 -79.5t1 -67q-21 -51 -83 -57
q-64 -5 -106 39q-61 63 -13 173q9 22 23 45zM770 415l299 494q10 17 11.5 29t-5.5 18.5t-21 6.5h-118l-7 5v18h241v-18l-7 -5h-21q-26 0 -59 -55l-352 -584l-367 662h146v-18l-7 -5h-65q-14 0 -20 -2.5t-7 -10.5t4.5 -20.5t17.5 -34.5l269 -481q14 -25 32.5 -25t35.5 26z
" />
    <glyph glyph-name="dotlessi" unicode="&#x131;" horiz-adv-x="1707" 
 />
    <glyph glyph-name="Lslash" unicode="&#x141;" horiz-adv-x="1056" 
 />
    <glyph glyph-name="lslash" unicode="&#x142;" horiz-adv-x="600" 
 />
    <glyph glyph-name="OE" unicode="&#x152;" horiz-adv-x="1972" 
d="M424 710q0 -387 44.5 -551.5t165.5 -188.5q-78 13 -156 51.5t-149 103.5t-126 149t-87.5 197.5t-32.5 238.5t32.5 238.5t87.5 197.5t126 149t149 103.5t156 51.5q-121 -24 -165.5 -188.5t-44.5 -551.5zM722 1419h513v-1419h-513q-43 0 -76 8.5t-59.5 28.5t-45.5 47
t-33 72t-22.5 95.5t-13.5 123.5t-7 151t-2 184q0 142 3.5 238t13.5 181.5t28 135.5t47 87.5t69.5 52t97.5 14.5zM814 1410h-92q-51 0 -87.5 -13t-64 -47.5t-44 -84t-27 -131.5t-14.5 -181.5t-4 -242.5q0 -172 6 -284t21 -198t43 -131.5t69 -67t102 -21.5h92q60 0 60 60v1282
q0 60 -60 60zM1294 1350v-534q0 -12 3 -23.5t19 -24.5t44 -13h293q16 0 22.5 4.5t6.5 22.5v128h18l5 -7v-304l-5 -7h-18v128q0 18 -6.5 22.5t-22.5 4.5h-293q-28 0 -44 -13t-19 -24.5t-3 -23.5v-618q0 -60 60 -60h364q62 0 106.5 31.5t44.5 85.5v117h18l5 -7v-228l-5 -7h-18
v12q0 24 -5.5 27t-22.5 -7q-16 -9 -28 -14.5t-39 -11.5t-56 -6h-442v1419h442q29 0 57 -6.5t37.5 -11t28.5 -14.5q17 -10 22.5 -7t5.5 27v12h18l5 -7v-229l-5 -7h-18v117q0 54 -44.5 85.5t-106.5 31.5h-364q-60 0 -60 -60z" />
    <glyph glyph-name="oe" unicode="&#x153;" horiz-adv-x="1712" 
d="M429 492q-1 -323 18.5 -428t108.5 -118q-72 6 -140 29t-131 68t-110 106.5t-75 150t-28 192.5t28 192.5t75 150t110 106.5t131 68t140 29q-89 -13 -108.5 -118t-18.5 -428zM1054 1000q-40 -16 -47 -167q-2 -38 -2 -347v-3q0 -254 37 -379t118 -153q-68 10 -136 34
t-137 68.5t-122 103t-86 144t-33 185.5q0 103 25 186t63.5 136t95 93.5t108.5 61.5t116 37zM1073 297l145 85q82 47 109.5 209.5t-23.5 298.5t-163 113l-23 -6q-41 -11 -50 -143q-3 -49 -2 -339v-29v-3q0 -110 7 -186zM1074 291q15 -175 61.5 -249.5t134.5 -74.5
q57 0 105 13.5t89 42.5t73.5 63t71.5 84l3 -1l1 -4q-37 -49 -68.5 -81t-73 -62.5t-91.5 -45.5t-110 -15q-80 0 -127.5 46t-72 161t-24.5 315v3v124q-2 87 -1 156t5.5 118.5t16 78.5t31.5 34l43 10q53 11 101 8.5t94 -14.5t83 -34t68.5 -49.5t51.5 -62t31 -70t7 -74.5
t-20 -76t-50 -73.5t-83 -67.5zM802 143l138 -109q-117 -77 -258 -88q57 8 84 53t36 144zM764 805q-7 125 -37 167t-108 42q-106 0 -127.5 -87t-21.5 -435t21.5 -435t127.5 -87q79 0 108.5 43.5t36.5 172.5l-18 14q-6 -129 -32 -175.5t-95 -46.5q-92 0 -111 88.5t-19 416.5v3
v3v3v9q0 328 19 416.5t111 88.5q68 0 94.5 -46t32.5 -173zM953 941l-151 -107q-8 102 -35 149t-85 55q152 -13 271 -97z" />
    <glyph glyph-name="Scaron" unicode="&#x160;" horiz-adv-x="975" 
d="M776 150q49 66 5.5 157t-162.5 166q-329 207 -340 214q-124 80 -182 181.5t-46 208t90 209.5q-3 -39 30 -83t95 -88.5t121 -81t133 -78.5q15 -8 22 -12q133 -76 217.5 -165t119 -189.5t9.5 -212t-112 -226.5zM52 179q-64 115 -30 192q24 55 69 46q33 -6 46 -37
q15 -41 -30 -68q-48 -28 -58.5 -56t11.5 -67q55 -104 163 -164.5t235 -60.5q84 0 164 34t141.5 90t106 132.5t63 157t5.5 167.5t-60 161q-98 152 -325 277q-48 26 -81.5 45.5t-78.5 47t-75 49.5t-62.5 48t-49 48.5t-27 46.5t-4.5 45.5t27 41.5q107 99 250.5 97t258.5 -99
q33 -28 49 -33t20 5.5t4 38.5v50h18l5 -7v-294l-5 -7h-18v89q0 50 -18 80.5t-60 67.5q-110 95 -251.5 98.5t-240.5 -92.5q-22 -22 -23.5 -47.5t19.5 -53t47.5 -52.5t75 -57t86.5 -54.5t95 -56.5q44 -25 65 -38q211 -124 309 -271q50 -76 64.5 -165.5t-4.5 -173t-65 -162.5
t-110 -137t-146.5 -93.5t-168.5 -35.5q-129 0 -238.5 61t-167.5 166zM195 1900h77l216 -201l215 201h76l-291 -274z" />
    <glyph glyph-name="scaron" unicode="&#x161;" horiz-adv-x="800" 
d="M232 952q-50 -32 -28 -60q14 -17 97 -63q53 -29 87 -50q159 -97 280 -179q67 -46 93 -127t12 -164.5t-58 -161t-107 -120.5q-93 -65 -229 -65q-134 0 -235 85q-70 57 -102 130t-1 126q30 49 74 37q33 -9 43 -41q14 -46 -39 -79q-4 -3 -8 -5q-32 -17 -34.5 -45t17.5 -57
t56 -61q96 -83 229 -83q138 0 225 63q80 54 126.5 162t31.5 221.5t-100 170.5q-121 82 -280 179q-28 17 -79 46q-90 52 -108 73q-25 35 28 71q79 53 169 53q118 0 207 -75q28 -20 39 -16t11 25v35h13l3 -5v-202l-3 -5h-13v68q0 45 -59 96q-88 73 -198 73q-82 0 -160 -50z
M588 589q92 -59 121 -156t-1.5 -192t-102.5 -162q13 13 17.5 26t-1.5 26t-16 24t-31 26t-40.5 27t-50.5 30q-40 24 -62 37q-167 102 -251 157q-92 59 -121 156t1.5 192t102.5 162q-13 -13 -17.5 -26t1.5 -26t16 -24t31 -26t40.5 -27t50.5 -30q40 -24 62 -37
q194 -119 251 -157zM108 1467h77l216 -201l215 201h76l-291 -274z" />
    <glyph glyph-name="Ydieresis" unicode="&#x178;" horiz-adv-x="1274" 
d="M428 1756q0 38 26.5 65t65.5 27q38 0 64.5 -27t26.5 -65t-26.5 -65t-64.5 -27q-39 0 -65.5 27t-26.5 65zM724 1756q0 38 26.5 65t64.5 27q39 0 65.5 -27t26.5 -65t-26.5 -65t-65.5 -27q-38 0 -64.5 27t-26.5 65zM419 603l-394 711q-32 57 -48 70q-15 12 -33 12h-41l-7 5
v18h456l444 -799v-537q0 -60 60 -60h119l7 -5v-18h-727v18l7 5h117q60 0 60 60v429q0 48 -20 91zM482 1315l308 -561q19 -33 34.5 -33.5t36.5 34.5l312 560q17 29 8 55t-41 26h-169l-7 5v18h327v-18l-7 -5h-19q-18 0 -34 -14t-22.5 -25t-24.5 -43l-363 -652l-418 757h211
v-18l-7 -5h-92q-32 0 -41 -26t8 -55z" />
    <glyph glyph-name="Zcaron" unicode="&#x17d;" horiz-adv-x="1433" 
d="M464 1848h77l216 -201l215 201h76l-291 -274zM1325 1196l-709 -1093q-17 -25 -23 -45t4 -34.5t40 -14.5h564q62 0 106.5 32t44.5 86v173h18l5 -7v-285l-5 -7h-18v12q0 24 -5.5 27t-21.5 -8q-17 -8 -28.5 -13.5t-39 -12t-56.5 -6.5h-673l797 1227v-31zM317 1419h1008v-115
l-848 -1304h-414v115l797 1202q18 23 24 43.5t-5 35t-41 14.5h-521q-63 0 -107.5 -31t-44.5 -85v-173h-18l-5 7v284l5 7h18v-12q0 -24 5.5 -27t22.5 7q16 9 28 14t39 11.5t57 6.5z" />
    <glyph glyph-name="zcaron" unicode="&#x17e;" horiz-adv-x="1042" 
d="M251 1440h77l216 -201l215 201h76l-291 -274zM361 0h-293v79l554 836q43 63 -15 63h-343q-38 0 -60 -34.5t-22 -67.5v-107h-13l-3 4v208l3 5h13v-40q0 -8 1.5 -8.5t8.5 7.5q35 40 73 41h684v-81zM491 8h287q62 0 106.5 32t44.5 86v93h18l5 -7v-205l-5 -7h-18v12
q0 24 -5.5 27t-22.5 -7q-16 -9 -28 -14.5t-39 -11.5t-56 -6h-371l542 831v-35l-473 -726q-40 -62 15 -62zM89 1467h77l216 -201l215 201h76l-291 -274z" />
    <glyph glyph-name="circumflex" unicode="&#x2c6;" horiz-adv-x="781" 
d="M166 1193h-77l293 274l291 -274h-76l-215 201z" />
    <glyph glyph-name="caron" unicode="&#x2c7;" horiz-adv-x="765" 
d="M89 1467h77l216 -201l215 201h76l-291 -274z" />
    <glyph glyph-name="breve" unicode="&#x2d8;" horiz-adv-x="1707" 
 />
    <glyph glyph-name="dotaccent" unicode="&#x2d9;" horiz-adv-x="1707" 
 />
    <glyph glyph-name="ring" unicode="&#x2da;" horiz-adv-x="664" 
d="M215 1340q0 -38 1.5 -62t8.5 -54t20 -47.5t37 -29.5t59 -12q34 0 58.5 12t37.5 29.5t20 47.5t8.5 54t1.5 62t-1.5 62t-8.5 54t-20 47.5t-37.5 29.5t-58.5 12q-35 0 -59 -12t-37 -29.5t-20 -47.5t-8.5 -54t-1.5 -62zM118 1340q0 110 63 161t160 51q96 0 159.5 -51
t63.5 -161t-63.5 -161t-159.5 -51q-97 0 -160 51t-63 161z" />
    <glyph glyph-name="ogonek" unicode="&#x2db;" horiz-adv-x="1707" 
 />
    <glyph glyph-name="tilde" unicode="&#x2dc;" horiz-adv-x="1343" 
d="M123 310q-15 95 2 178t67 144.5t137 82t211 -10.5q42 -11 124 -34q249 -69 347 -80q177 -18 211 82q9 26 9 61h15q0 -57 -4.5 -104.5t-17.5 -98t-34.5 -88t-58.5 -69t-86.5 -46.5t-120.5 -14t-158 21q-41 10 -120 29q-255 61 -343 68q-142 10 -163 -67q-6 -23 -3 -55
q-13 1 -14 1z" />
    <glyph glyph-name="hungarumlaut" unicode="&#x2dd;" horiz-adv-x="1707" 
 />
    <glyph glyph-name="quotedblleft" unicode="&#x201c;" horiz-adv-x="708" 
d="M304 1708q17 56 17 342q0 9 6.5 13.5t12 0.5t5.5 -16q-1 -17 -2.5 -90t-3 -101t-5 -84t-8.5 -99.5t-13 -86.5q-13 -81 -56 -146.5t-103 -76.5q-60 -10 -105.5 16t-61 68t1.5 91t70 79q37 21 81.5 26t73 2t54 10.5t36.5 51.5zM465 1708q11 -38 36.5 -51.5t54 -10.5t73 -2
t81.5 -26q53 -30 70 -79t1.5 -91t-61 -68t-105.5 -16q-60 11 -103 76.5t-56 146.5q-8 43 -13 86.5t-8.5 99.5t-5 84t-3 101t-2.5 90q0 12 5.5 16t12 -0.5t6.5 -13.5q0 -286 17 -342z" />
    <glyph glyph-name="quotedblright" unicode="&#x201d;" horiz-adv-x="681" 
d="M534 1599q5 32 -4 52t-30 32t-44.5 23t-53 32t-49.5 50q-23 34 -27.5 69.5t6.5 63.5t34 49.5t52 30.5t64.5 2.5t68.5 -30.5q49 -36 59 -118.5t-15 -151.5q-12 -42 -27 -84t-36 -92t-33.5 -78.5t-41 -91t-37.5 -82.5q-5 -10 -11.5 -11t-10 5.5t-0.5 14.5q126 256 136 315z
M154 1599q5 32 -4 52t-30 32t-44.5 23t-53 32t-49.5 50q-23 34 -27.5 69.5t6.5 63.5t34 49.5t52 30.5t64.5 2.5t68.5 -30.5q49 -36 59 -118.5t-15 -151.5q-12 -42 -27 -84t-36 -92t-33.5 -78.5t-41 -91t-37.5 -82.5q-5 -10 -11.5 -11t-10 5.5t-0.5 14.5q126 256 136 315z
" />
    <glyph glyph-name="fraction" unicode="&#x2044;" horiz-adv-x="1640" 
d="M70 -310l1056 1830h358l-1055 -1829z" />
    <glyph glyph-name="R.001" horiz-adv-x="1632" 
 />
    <glyph glyph-name="P.001" horiz-adv-x="1216" 
 />
    <glyph glyph-name="Q.001" horiz-adv-x="1590" 
 />
    <glyph glyph-name="eight.001" horiz-adv-x="1072" 
 />
    <glyph glyph-name="seven.001" horiz-adv-x="768" 
 />
    <glyph glyph-name="_0023" 
 />
    <glyph glyph-name="_0022" 
 />
    <glyph glyph-name="K.001" horiz-adv-x="1720" 
 />
    <glyph glyph-name="_0001" 
 />
    <glyph glyph-name="_0002" 
 />
    <glyph glyph-name="_0003" 
 />
    <glyph glyph-name="_0004" 
 />
    <glyph glyph-name="_0009" 
 />
    <glyph glyph-name="_0014" 
 />
    <glyph glyph-name="_0015" 
 />
    <glyph glyph-name="_0016" 
 />
    <glyph glyph-name="p.001" horiz-adv-x="1312" 
 />
    <glyph glyph-name="q.001" horiz-adv-x="1320" 
 />
    <glyph glyph-name="_0017" 
 />
    <glyph glyph-name="_0018" 
 />
    <glyph glyph-name="_0019" 
 />
    <glyph glyph-name="_0024" 
 />
    <glyph glyph-name="_0020" 
 />
    <glyph glyph-name="_0021" 
 />
    <glyph glyph-name="_0011" 
 />
    <glyph glyph-name="_0025" 
 />
    <glyph glyph-name="_0026" 
 />
    <glyph glyph-name="_0027" 
 />
    <glyph glyph-name="_0028" 
 />
    <glyph glyph-name="_0029" 
 />
    <glyph glyph-name="_0012" 
 />
    <glyph glyph-name="_0010" 
 />
    <glyph glyph-name="ga" 
 />
    </font>
</defs>
</svg>
