<?xml version="1.0" standalone="no"?>
<!DOCTYPE svg PUBLIC "-//W3C//DTD SVG 1.1//EN" "http://www.w3.org/Graphics/SVG/1.1/DTD/svg11.dtd" >
<svg xmlns="http://www.w3.org/2000/svg" xmlns:xlink="http://www.w3.org/1999/xlink" version="1.1">
<metadata>
Created by FontForge 20170731 at Fri Jan  1 02:30:17 1904
 By Aleksey,,,
(c) Copyright PJL '96
</metadata>
<defs>
<font id="Peake" horiz-adv-x="467" >
  <font-face 
    font-family="Peake"
    font-weight="400"
    font-stretch="normal"
    units-per-em="1000"
    panose-1="2 0 5 0 0 0 0 0 0 0"
    ascent="800"
    descent="-200"
    x-height="563"
    cap-height="722"
    bbox="-74 -72 732 796"
    underline-thickness="50"
    underline-position="-200"
    unicode-range="U+0020-00A3"
  />
<missing-glyph horiz-adv-x="502" 
d="M-1 0h500v500h-500v-500zM9 10v480h480v-480h-480z" />
    <glyph glyph-name=".notdef" horiz-adv-x="502" 
d="M-1 0h500v500h-500v-500zM9 10v480h480v-480h-480z" />
    <glyph glyph-name=".null" horiz-adv-x="0" 
 />
    <glyph glyph-name="nonmarkingreturn" horiz-adv-x="333" 
 />
    <glyph glyph-name="space" unicode=" " horiz-adv-x="300" 
 />
    <glyph glyph-name="space" unicode="&#xa0;" horiz-adv-x="300" 
 />
    <glyph glyph-name="exclam" unicode="!" horiz-adv-x="109" 
d="M54 63q-14 0 -24 -9.5t-10 -22.5t10 -22t24 -9t24.5 9t10.5 22t-10.5 22.5t-24.5 9.5zM21 721l12 -636q11 4 23 4q14 0 25 -4l8 636q-16 -4 -34 -4q-21 0 -34 4z" />
    <glyph glyph-name="quotedbl" unicode="&#x22;" horiz-adv-x="132" 
d="M20 721v-48q0 -13 5 -21.5t13 -8.5q7 0 12.5 9t5.5 21v48h-36zM76 721v-48q0 -13 5 -21.5t13 -8.5q7 0 12.5 9t5.5 21v48h-36z" />
    <glyph glyph-name="dollar" unicode="$" horiz-adv-x="490" 
d="M304 655q-13 0 -15 -12l-15 -65h-21q-63 0 -100 -26.5t-37 -78.5q0 -53 27.5 -81.5t77.5 -37.5l-75 -321q-30 10 -52.5 29t-36.5 49q-3 7 -14 7q-8 0 -15.5 -4t-7.5 -9l1 -2v-2q35 -72 119 -92l-11 -50q0 -12 9 -12h12q13 0 15 12l10 43q15 -2 49 -2q246 0 246 205
q0 45 -15 78t-41.5 53t-60 29t-71.5 9q-13 0 -20 1l42 179q48 -7 75 -31q8 -7 27 -7h17q9 0 9 6q0 3 -1 5l-16 37q-2 4 -7.5 5t-14.5 1q-21 0 -63 3q-7 1 -21 2l16 68q0 12 -9 12h-12zM173 469q0 48 26.5 68t66.5 20h3l-41 -174q-25 9 -40 29.5t-15 56.5zM273 349
q46 0 73 -14.5t39 -37t14.5 -45.5t2.5 -55q0 -82 -45.5 -129t-131.5 -47q-17 0 -45 4l76 324h17z" />
    <glyph glyph-name="percent" unicode="%" horiz-adv-x="525" 
d="M354 295q-43 0 -72.5 -11.5t-46.5 -31.5t-24 -47t-7 -60t7 -59.5t24 -47t46.5 -32t72.5 -11.5q80 0 115 41t35 109t-35 109t-115 41zM354 274q51 0 70 -34.5t19 -94.5t-19 -94t-70 -35q-50 0 -69.5 34.5t-19.5 94.5t19.5 94.5t69.5 34.5zM424 627q-11 0 -18 -11l-21 -34
q-17 -28 -47 -35.5t-72 -7.5q-30 0 -87 16q-32 8 -54.5 12.5t-48.5 4.5q-43 0 -72.5 -11.5t-46.5 -31.5t-24 -47t-7 -60t7 -59.5t24 -47t46.5 -32t72.5 -11.5q80 0 115 41t35 109q0 67 -33 106l3 -1q47 -11 70 -11q54 0 84 9l-336 -544q0 -1 -1 -4q-1 -2 -1 -3q0 -5 6 -5h12
q12 0 17 12l393 635q0 1 1 3t1 3q0 5 -7 5h-11zM76 551h1v-1q50 0 69 -34.5t19 -93.5q0 -60 -19 -94t-70 -35q-50 0 -69.5 34.5t-19.5 94.5t19.5 94.5t69.5 34.5z" />
    <glyph glyph-name="ampersand" unicode="&#x26;" horiz-adv-x="525" 
d="M239 733q-64 0 -105 -34t-41 -99q0 -61 13.5 -96t42.5 -79q11 -17 18 -28q-28 -20 -53 -41t-46.5 -46.5t-34.5 -54.5t-13 -61q0 -64 21.5 -105.5t58 -64t81.5 -30.5t99 -8q63 0 110 31q10 -17 35 -17h64q14 0 16 9q0 5 -2 8q-7 10 -12 10q-15 0 -26.5 10t-24.5 29l-1 1
q31 48 36 115q1 14 6 22t17 8q4 0 4 11q0 17 -20 17h-51q-21 0 -21 -16q0 -12 6 -12q9 0 14 -9.5t5 -20.5q-4 -40 -21 -77l-198 288q7 5 21 16q29 22 51 40t44 42.5t35.5 52t13.5 56.5q0 66 -39 99.5t-103 33.5zM278 15q-46 0 -79.5 6t-61 24t-43.5 54.5t-16 94.5
q0 26 10 52t25.5 49t34 42.5t36.5 34.5q97 -147 134 -202l57 -86q8 -12 10.5 -16l2.5 -4q-43 -49 -110 -49zM239 707q42 0 67.5 -25.5t25.5 -81.5q0 -53 -25.5 -85.5t-76.5 -70.5q-21 -15 -32 -24q-33 45 -48 93t-15 87q0 55 30 81t74 26z" />
    <glyph glyph-name="quotesingle" unicode="'" horiz-adv-x="76" 
d="M20 721v-48q0 -13 5 -21.5t13 -8.5q7 0 12.5 9t5.5 21v48h-36z" />
    <glyph glyph-name="parenleft" unicode="(" horiz-adv-x="137" 
d="M81 796q-33 -111 -47 -214t-14 -218q0 -123 13.5 -232t47.5 -204h36q-21 104 -29 209t-8 227q0 119 8 220.5t29 211.5h-36z" />
    <glyph glyph-name="parenright" unicode=")" horiz-adv-x="137" 
d="M20 796q21 -110 29 -211.5t8 -220.5q0 -122 -8 -227t-29 -209h36q34 95 47.5 204t13.5 232q0 115 -13.5 218t-47.5 214h-36z" />
    <glyph glyph-name="comma" unicode="," horiz-adv-x="115" 
d="M54 63q-14 0 -24 -9.5t-10 -22.5t10 -22t24 -9q1 -5 1 -15q0 -9 -3 -24q-2 -11 -2 -15q0 -7 4.5 -12.5t14.5 -5.5q8 0 16 18.5t9 43.5q0 37 -7.5 55t-32.5 18z" />
    <glyph glyph-name="hyphen" unicode="-" horiz-adv-x="290" 
d="M20 412v-38h250v38h-250z" />
    <glyph glyph-name="period" unicode="." horiz-adv-x="109" 
d="M54 64q-14 0 -24 -9.5t-10 -22.5t10 -22t24 -9t24.5 9t10.5 22t-10.5 22.5t-24.5 9.5z" />
    <glyph glyph-name="slash" unicode="/" horiz-adv-x="288" 
d="M232 722l-212 -723h36l212 723h-36z" />
    <glyph glyph-name="zero" unicode="0" horiz-adv-x="434" 
d="M220 732q-62 0 -101 -22t-60.5 -67t-30 -112.5t-8.5 -168.5q0 -198 41 -284t159 -86q62 0 100 22.5t58.5 67t28 111t7.5 166.5q0 102 -7.5 169.5t-28 113t-58.5 68t-100 22.5zM220 705q84 0 109 -78t25 -268q0 -93 -4.5 -153t-18.5 -102t-40.5 -63.5t-70.5 -21.5
q-84 0 -113.5 82.5t-29.5 260.5q0 183 30 263t113 80z" />
    <glyph glyph-name="one" unicode="1" horiz-adv-x="158" 
d="M108 662q0 13 5.5 22.5t17.5 9.5q4 0 4 11q0 17 -20 17q-11 0 -33 -17q-12 -10 -21.5 -15t-19.5 -5q-21 0 -21 -16q0 -12 6 -12q10 0 19.5 -12.5t9.5 -20.5v-558q0 -20 -5 -29.5t-19 -9.5q-3 0 -4.5 -3.5t-1.5 -7.5q0 -16 24 -16h64q25 0 25 17q0 10 -5 10q-15 0 -20 10
t-5 29v596z" />
    <glyph glyph-name="two" unicode="2" horiz-adv-x="425" 
d="M104 110q0 79 32.5 141t110.5 106q14 8 40 20q31 15 49.5 26.5t34.5 30.5t25 49.5t9 75.5q0 91 -29.5 131.5t-108.5 40.5q-23 0 -70 -6q-47 -7 -71 -7q-9 0 -14.5 -1.5t-7.5 -8.5l-16 -61q-1 -3 -1 -8q0 -10 9 -10h17q19 0 28 13q26 37 47.5 51.5t68.5 14.5q49 0 70 -35
t21 -121q0 -38 -7.5 -63.5t-20 -40.5t-25.5 -23t-33 -17q-16 -6 -24 -11q-11 -7 -35 -20q-39 -22 -63.5 -39.5t-45 -45t-32.5 -71.5t-12 -109v-45q0 -21 -4.5 -30t-19.5 -9q-3 0 -4.5 -4t-1.5 -8q0 -16 24 -16q116 11 196 11q23 0 68 -5q31 -3 44 -3q23 0 26 9l13 44
q1 2 1 4q0 7 -15 7h-9q-15 0 -21 -11q-6 -1 -20.5 -3t-39 -5t-53 -5.5t-52.5 -2.5q-36 0 -57.5 6t-21.5 20v44h1z" />
    <glyph glyph-name="three" unicode="3" horiz-adv-x="403" 
d="M301 384q49 32 61 72t12 103q0 91 -29.5 131.5t-108.5 40.5q-23 0 -70 -6q-47 -7 -71 -7q-9 0 -14.5 -1.5t-7.5 -8.5l-16 -61q-1 -3 -1 -8q0 -10 9 -10h17q19 0 28 13q26 37 47.5 51.5t68.5 14.5q49 0 70 -35t21 -121q0 -83 -19 -118t-51 -35q-1 0 -6 1h-6q-35 5 -63 5
q-31 0 -54 -5q-17 -4 -20 -11l-12 -28q-1 -2 -1 -5q1 -6 13 -6h8q12 0 20 11q16 23 57 23q27 0 55 -7q37 -8 62.5 -58.5t25.5 -142.5q0 -86 -19.5 -121t-68.5 -35q-52 0 -97.5 17.5t-66.5 48.5q-9 13 -28 13h-17q-9 0 -9 -10q0 -5 1 -8l16 -61q2 -7 7.5 -8.5t14.5 -1.5
q16 0 38.5 -3t52.5 -8q34 -5 54 -7.5t36 -2.5q79 0 111 44t32 136q0 87 -19 140t-63 75z" />
    <glyph glyph-name="four" unicode="4" horiz-adv-x="383" 
d="M199 198v-132q0 -20 -5 -29.5t-19 -9.5q-3 0 -4.5 -3.5t-1.5 -7.5q0 -16 24 -16h64q25 0 25 17q0 10 -5 10q-15 0 -20 10t-5 29v132q58 -1 122 -11v28q-62 11 -122 12v55q0 13 5.5 22.5t17.5 9.5q4 0 4 11q0 17 -20 17q-11 0 -33 -17q-12 -10 -21.5 -15t-19.5 -5
q-21 0 -21 -16q0 -12 6 -12q10 0 19.5 -12.5t9.5 -20.5v-16q-60 -2 -112 -10q30 117 51.5 224.5t34.5 212.5q2 19 5 27t7 13q3 5 3 11q0 16 -14 16h-13q-9 0 -15.5 -5.5t-6.5 -12.5q0 -3 1 -10q1 -8 1 -16q0 -13 -1 -23q-7 -91 -36 -190t-78 -233q-6 -16 -6 -33q0 -4 18 -7
t28 -3q27 0 78 5q39 4 55 4z" />
    <glyph glyph-name="five" unicode="5" horiz-adv-x="403" 
d="M326 176q0 -86 -19.5 -121t-68.5 -35q-74 0 -106.5 15t-57.5 51q-9 13 -28 13h-17q-9 0 -9 -10q0 -5 1 -8l16 -61q2 -7 7.5 -8.5t14.5 -1.5q16 0 38.5 -3t52.5 -8q34 -5 54 -7.5t36 -2.5q79 0 111 44t32 136q0 79 -31.5 135t-79.5 80q-24 12 -59 17t-72 5q-31 0 -42 -1
q18 88 18 179q0 39 -3 78v2q1 14 4.5 23t12.5 9h152q46 0 52 -25q3 -11 20 -11h8q12 0 13 6q0 3 -1 5l-15 40q-7 11 -20 11h-256q-12 0 -22.5 -3.5t-10.5 -10.5q0 -5 4 -16q5 -17 6 -30q2 -24 2 -70q0 -111 -23 -221l-4 -10q-1 -2 -1 -5q1 -6 13 -6h8q12 0 20 11
q16 23 57 23q21 0 48 -1.5t40 -4.5q40 -9 72.5 -60.5t32.5 -141.5z" />
    <glyph glyph-name="six" unicode="6" horiz-adv-x="408" 
d="M204 419q-54 0 -99 -34q28 88 76 171t115 166h-27q-122 -129 -185.5 -259t-63.5 -262q0 -44 14 -83.5t39.5 -70t59 -47.5t71.5 -17t71.5 17t59 47t39.5 70t14 84t-14 84t-39.5 70t-59 47t-71.5 17zM204 393q27 0 50.5 -14.5t41.5 -41.5t28 -62t10 -74t-10 -74.5
t-28 -61.5t-41.5 -41t-50.5 -15t-50.5 14.5t-41.5 41.5t-28 62t-10 74t10 74.5t28 62t41.5 41t50.5 14.5z" />
    <glyph glyph-name="seven" unicode="7" horiz-adv-x="463" 
d="M174 66q0 -19 -5 -29t-20 -10q-5 0 -5 -10q0 -17 25 -17h64q24 0 24 16q0 4 -1.5 7.5t-4.5 3.5q-14 0 -19 9.5t-5 29.5q0 84 25.5 163.5t77.5 198.5q33 76 53 128t35 106l1 4q2 12 6 20t12 8q6 0 6 12q0 16 -21 16q-117 -9 -194 -9q-86 0 -172 9q-13 0 -20 -11l-15 -40
q-1 -2 -1 -5q1 -6 13 -6h8q17 0 20 11q7 26 43 26h5q3 -1 4 -1q48 -5 115 -5q53 0 120 5q9 0 13.5 -7.5t4.5 -17.5v-4q-1 -4 -1 -5q-21 -69 -80 -207q-56 -129 -83.5 -215t-27.5 -174z" />
    <glyph glyph-name="eight" unicode="8" horiz-adv-x="408" 
d="M203 734q-30 0 -56.5 -13t-47 -36.5t-32 -54.5t-11.5 -65q0 -53 26.5 -96t69.5 -61q-58 -20 -95 -77.5t-37 -131.5q0 -44 14 -83.5t39.5 -70t59 -47.5t71.5 -17t71.5 17t59 47t39.5 70t14 84q0 74 -37.5 131.5t-95.5 77.5q43 18 69.5 61t26.5 96q0 34 -11.5 65t-32 54.5
t-47.5 36.5t-57 13zM204 391q27 0 50.5 -14.5t41.5 -41.5t28 -62t10 -74t-10 -74.5t-28 -61.5t-41.5 -41t-50.5 -15t-50.5 14.5t-41.5 41.5t-28 62t-10 74t10 74.5t28 62t41.5 41t50.5 14.5zM203 708q39 0 66.5 -42t27.5 -101t-27.5 -100.5t-66.5 -41.5t-66 41.5t-27 100.5
q0 60 27 101.5t66 41.5z" />
    <glyph glyph-name="nine" unicode="9" horiz-adv-x="408" 
d="M204 303q54 0 99 34q-27 -88 -75.5 -171t-115.5 -166h27q122 129 185.5 259t63.5 262q0 44 -14 84t-39.5 70t-59 47t-71.5 17t-71.5 -17t-59 -47t-39.5 -70t-14 -84t14 -83.5t39.5 -70t59 -47.5t71.5 -17zM204 329q-27 0 -50.5 14.5t-41.5 41.5t-28 62t-10 74t10 74.5
t28 62t41.5 41t50.5 14.5t50.5 -14.5t41.5 -41.5t28 -62t10 -74t-10 -74.5t-28 -61.5t-41.5 -41t-50.5 -15z" />
    <glyph glyph-name="colon" unicode=":" horiz-adv-x="109" 
d="M54 64q-14 0 -24 -9.5t-10 -22.5t10 -22t24 -9t24.5 9t10.5 22t-10.5 22.5t-24.5 9.5zM54 564q-14 0 -24 -9.5t-10 -22.5t10 -22t24 -9t24.5 9t10.5 22t-10.5 22.5t-24.5 9.5z" />
    <glyph glyph-name="semicolon" unicode=";" horiz-adv-x="109" 
d="M54 64q-14 0 -24 -9.5t-10 -22.5t10 -22t24 -9q1 -5 1 -15q0 -9 -3 -24q-2 -11 -2 -15q0 -7 4.5 -12.5t14.5 -5.5q8 0 16 18.5t9 43.5q0 37 -7.5 55t-32.5 18zM54 564q-14 0 -24 -9.5t-10 -22.5t10 -22t24 -9t24.5 9t10.5 22t-10.5 22.5t-24.5 9.5z" />
    <glyph glyph-name="question" unicode="?" horiz-adv-x="335" 
d="M173 63q-14 0 -24 -9.5t-10 -22.5t10 -22t24 -9t24.5 9t10.5 22t-10.5 22.5t-24.5 9.5zM315 561q0 34 -11.5 65t-32 54.5t-47.5 36.5t-57 13q-29 0 -56 -12.5t-47.5 -35t-32 -52t-11.5 -63.5q0 -22 13.5 -36.5t31.5 -14.5t30.5 14.5t12.5 35.5q0 36 -28 47q10 41 33.5 66
t53.5 25q39 0 66.5 -42t27.5 -101q0 -41 -9.5 -73t-30.5 -46q-43 -29 -58.5 -56t-15.5 -65l5 -236q11 4 23 4q14 0 25 -4l5 219q0 33 11 65.5t38 47.5q33 19 47 56t14 88z" />
    <glyph glyph-name="at" unicode="@" horiz-adv-x="662" 
d="M81 359q0 73 19 138t54 115t80.5 77.5t96.5 27.5t96.5 -27.5t80.5 -77.5t54 -115t19 -138q0 -27 -1.5 -50.5t-6.5 -50.5q-5 -28 -15.5 -49t-29.5 -21q-5 0 -10 8t-9.5 19.5t-8 23t-5.5 19.5l-89 321v2q-2 6 -2 9q0 6 3.5 10.5t12.5 4.5q3 0 3 8q0 6 -7 9.5t-17 3.5h-143
q-14 0 -17 -13q0 -7 3 -7q5 0 9 -4t4 -9q0 -8 -2 -14l-88 -365q-8 -31 -26 -31q-6 0 -6 -8q0 -13 14 -13h41q9 0 15.5 4t6.5 9q0 8 -4 8q-11 0 -11 13q0 8 3 18l60 264h124l61 -224q11 -40 27 -66t46 -26q38 0 70.5 26.5t44.5 69.5q7 24 9 46.5t2 54.5q0 77 -24 146
t-67 121.5t-99.5 82t-120.5 29.5q-63 0 -120 -29.5t-100 -82t-67 -121.5t-24 -146t24 -146t67 -121.5t100 -82t120 -29.5q56 0 92 15t76 55q5 5 5 9q0 9 -12 9q-18 0 -29 -11q-32 -29 -62.5 -42.5t-69.5 -13.5q-51 0 -96.5 27.5t-80.5 77.5t-54 115t-19 138zM282 582
q3 11 11.5 17.5t27.5 6.5h3q10 0 18.5 -9.5t10.5 -17.5l23 -80h-113z" />
    <glyph glyph-name="A" unicode="A" horiz-adv-x="525" 
d="M182 722q-14 0 -17 -17q0 -9 3 -9q5 0 9 -5t4 -12q0 -10 -2 -18l-117 -595q-8 -39 -26 -39q-2 0 -4 -4t-2 -7q0 -16 14 -16h41q9 0 15.5 5t6.5 12q0 10 -4 10q-11 0 -11 16q0 10 3 23l89 466h124l104 -466q3 -13 3 -23q0 -16 -18 -16q-4 0 -4 -6q0 -7 7 -14t21 -7h64
q11 0 16 5t5 12q0 10 -7 10q-15 0 -22.5 10t-11.5 29l-133 596q-2 8 -2 13q0 9 3.5 14.5t12.5 5.5q3 0 3 10q0 8 -7 12.5t-17 4.5h-143zM208 665q3 14 11.5 22.5t27.5 8.5h3q10 0 18.5 -12t10.5 -22l23 -103h-113z" />
    <glyph glyph-name="B" unicode="B" horiz-adv-x="538" 
d="M475 559q0 56 -17.5 89t-48.5 49t-71.5 20.5t-104.5 4.5h-187q-21 0 -21 -16q0 -12 6 -12q10 0 14.5 -11t4.5 -21v-596q0 -20 -5 -29.5t-19 -9.5q-3 0 -4.5 -3.5t-1.5 -7.5q0 -16 24 -16h339q41 0 68 14.5t41.5 39t20 52.5t5.5 59q0 19 -5 43t-14 48.5t-19.5 46.5
t-21.5 37l-73 105q43 28 66.5 57t23.5 57zM103 66v228l256 135l46 -70q19 -29 28.5 -80.5t9.5 -97.5q0 -26 -5 -51.5t-18 -49t-37.5 -38t-61.5 -14.5h-200q-10 3 -14 12.5t-4 25.5zM103 330v332q0 12 5 22t15 10h100q51 0 82 -3t56 -15.5t39 -40.5t14 -76q0 -32 -24.5 -62
t-68.5 -53z" />
    <glyph glyph-name="C" unicode="C" horiz-adv-x="486" 
d="M262 732q-125 0 -183.5 -90t-58.5 -280q0 -370 242 -370q79 0 128 30.5t75 99.5l1 2v2q0 7 -7.5 12t-15.5 5q-11 0 -14 -9q-22 -60 -66 -87.5t-102 -27.5q-88 0 -136 89.5t-48 253.5q0 170 48 256.5t136 86.5q38 0 72.5 -10t54.5 -33q9 -10 27 -10h17q9 0 9 8q0 4 -1 6
l-16 48q-2 5 -7.5 6.5t-14.5 1.5q-23 0 -70 5t-70 5z" />
    <glyph glyph-name="D" unicode="D" horiz-adv-x="535" 
d="M215 722h-169q-21 0 -21 -16q0 -10 6 -10q10 0 14.5 -12t4.5 -22v-596q0 -20 -5 -29t-19 -9q-3 0 -4.5 -4t-1.5 -8q0 -16 24 -16h171q58 0 110 14t95 49.5t69 98.5t26 157q0 98 -25.5 174.5t-69 127.5t-97 76t-108.5 25zM215 696q45 0 88.5 -24.5t78 -72.5t55 -117
t20.5 -154q0 -87 -18 -145.5t-50.5 -92t-75.5 -48t-98 -14.5h-87q-15 0 -20 10t-5 28v596q0 13 4.5 23.5t14.5 10.5h93z" />
    <glyph glyph-name="E" unicode="E" horiz-adv-x="468" 
d="M357 533q26 0 36.5 -2t12.5 -11q3 -11 20 -11h8q12 0 13 6q0 3 -1 5l-12 28q-5 11 -20 11h-311v103q0 14 3.5 24t13.5 10h235q46 0 52 -25q3 -11 20 -11h8q12 0 13 6q0 3 -1 5l-15 40q-7 11 -20 11h-366q-21 0 -21 -16q0 -12 6 -12q10 0 14.5 -11t4.5 -21v-596
q0 -20 -5 -29t-19 -9q-3 0 -4.5 -4t-1.5 -8q0 -16 24 -16h369q17 0 20 12l13 44q1 2 1 4q0 7 -15 7h-9q-17 0 -21 -11q-9 -28 -103 -28h-178q-10 3 -14 12.5t-4 25.5v467h254z" />
    <glyph glyph-name="F" unicode="F" horiz-adv-x="468" 
d="M357 533q26 0 36.5 -2t12.5 -11q3 -11 20 -11h8q12 0 13 6q0 3 -1 5l-12 28q-5 11 -20 11h-311v103q0 14 3.5 24t13.5 10h235q46 0 52 -25q3 -11 20 -11h8q12 0 13 6q0 3 -1 5l-15 40q-7 11 -20 11h-366q-21 0 -21 -16q0 -12 6 -12q10 0 14.5 -11t4.5 -21v-596
q0 -20 -5 -29.5t-19 -9.5q-3 0 -4.5 -3.5t-1.5 -7.5q0 -16 24 -16h64q25 0 25 17q0 10 -5 10q-15 0 -20 10t-5 29v467h254z" />
    <glyph glyph-name="G" unicode="G" horiz-adv-x="509" 
d="M268 362q-11 0 -11 -18q0 -3 1.5 -6.5t5.5 -3.5h126q10 0 14.5 -11t4.5 -21v-144q0 -42 -14 -70t-36.5 -43t-47.5 -20.5t-50 -5.5q-88 0 -136 89.5t-48 253.5q0 170 48 256.5t136 86.5q38 0 72.5 -10t54.5 -33q9 -10 27 -10h17q9 0 9 8q0 4 -1 6l-16 48q-2 5 -7.5 6.5
t-14.5 1.5q-23 0 -70 5t-70 5q-125 0 -183.5 -90t-58.5 -280q0 -370 242 -370q38 0 70.5 10t56 25t37.5 28.5t28 29.5q8 9 9 9q7 0 10 4t3 11q0 10 -5 10q-6 0 -7.5 18t-1.5 45v120q0 13 5.5 22.5t17.5 9.5q4 0 4 11q0 17 -20 17h-201z" />
    <glyph glyph-name="H" unicode="H" horiz-adv-x="469" 
d="M362 722q-21 0 -21 -16q0 -12 6 -12q10 0 14.5 -11t4.5 -21v-103h-263v103q0 13 5.5 22.5t17.5 9.5q4 0 4 11q0 17 -20 17h-64q-21 0 -21 -16q0 -12 6 -12q10 0 14.5 -11t4.5 -21v-596q0 -20 -5 -29.5t-19 -9.5q-3 0 -4.5 -3.5t-1.5 -7.5q0 -16 24 -16h64q25 0 25 17
q0 10 -5 10q-15 0 -20 10t-5 29v467h263v-467q0 -20 -5 -29.5t-19 -9.5q-3 0 -4.5 -3.5t-1.5 -7.5q0 -16 24 -16h64q25 0 25 17q0 10 -5 10q-15 0 -20 10t-5 29v596q0 13 5.5 22.5t17.5 9.5q4 0 4 11q0 17 -20 17h-64z" />
    <glyph glyph-name="I" unicode="I" horiz-adv-x="153" 
d="M46 722q-21 0 -21 -16q0 -12 6 -12q10 0 14.5 -11t4.5 -21v-596q0 -20 -5 -29.5t-19 -9.5q-3 0 -4.5 -3.5t-1.5 -7.5q0 -16 24 -16h64q25 0 25 17q0 10 -5 10q-15 0 -20 10t-5 29v596q0 13 5.5 22.5t17.5 9.5q4 0 4 11q0 17 -20 17h-64z" />
    <glyph glyph-name="J" unicode="J" horiz-adv-x="249" 
d="M29 56q-9 -6 -9 -16q0 -7 5.5 -9.5t11.5 -2.5q11 0 24 -12q10 -9 21 -14t33 -5q36 0 61.5 27t25.5 64v574q0 13 5.5 22.5t17.5 9.5q4 0 4 11q0 17 -20 17h-64q-21 0 -21 -16q0 -12 6 -12q10 0 14.5 -11t4.5 -21v-572q0 -29 -9 -45.5t-33 -16.5q-13 0 -24.5 5t-11.5 15
q0 3 3 8t3 9q0 12 -10 12q-2 0 -6.5 -2t-7.5 -4z" />
    <glyph glyph-name="K" unicode="K" 
d="M46 722q-21 0 -21 -16q0 -10 6 -10q10 0 14.5 -12t4.5 -22v-596q0 -20 -5 -29.5t-19 -9.5q-3 0 -4.5 -3.5t-1.5 -7.5q0 -16 24 -16h64q25 0 25 17q0 10 -5 10q-15 0 -20 10t-5 29v152q0 40 14.5 97t38.5 119l157 -368q9 -21 9 -30t-14 -9q-7 0 -7 -10q0 -8 9 -12.5
t29 -4.5h83q11 0 15 4.5t4 12.5q0 3 -4.5 6.5t-7.5 3.5q-15 0 -24.5 10t-19.5 29l-204 426q19 42 41 79t45 65t45.5 44t42.5 16q21 0 29.5 -15t8.5 -38q0 -6 14 -9.5t27 -3.5t13 5q0 38 -19 62.5t-66 24.5q-31 0 -65.5 -28t-67 -73t-61 -98.5t-49.5 -103.5q-3 -7 -7.5 -15
t-7.5 -12q-1 0 -1 5v265q0 14 5 24t18 10q4 0 4 9q0 17 -20 17h-64z" />
    <glyph glyph-name="L" unicode="L" 
d="M423 67q-17 0 -21 -11q-9 -28 -103 -28h-178q-10 3 -14 12.5t-4 25.5v596q0 13 5.5 22.5t17.5 9.5q4 0 4 11q0 17 -20 17h-64q-21 0 -21 -16q0 -12 6 -12q10 0 14.5 -11t4.5 -21v-596q0 -20 -5 -29t-19 -9q-3 0 -4.5 -4t-1.5 -8q0 -16 24 -16h369q17 0 20 12l13 44
q1 2 1 4q0 7 -15 7h-9z" />
    <glyph glyph-name="M" unicode="M" horiz-adv-x="752" 
d="M181 722q-23 0 -23 -17q0 -11 7 -11q4 0 6 -5.5t2 -13.5q0 -10 -1 -13l-121 -596q-8 -39 -24 -39q-2 0 -4.5 -4t-2.5 -7q0 -16 14 -16h45q9 0 16.5 5t7.5 12q0 10 -4 10q-13 0 -13 18q0 13 2 21l116 572l118 -247q-6 -8 -6 -24q0 -15 6 -15h65q7 0 7 15q0 18 -7 24
l116 276q0 -1 1 -3v-2l134 -596q3 -13 3 -22q0 -17 -18 -17q-3 0 -4 -3t-1 -8q0 -7 8.5 -11.5t20.5 -4.5h64q11 0 16 4.5t5 12.5q0 10 -7 10q-15 0 -22.5 10t-11.5 29l-134 596q-1 4 -1 12q0 20 17 20q5 0 5 11q0 9 -8 13t-19 4h-64q-18 0 -18 -16q0 -10 9 -12l-112 -268
l-133 269v1q3 5 3 9q0 17 -10 17h-45z" />
    <glyph glyph-name="N" unicode="N" 
d="M383 722q-16 0 -16 -16q0 -12 4 -12q8 0 11.5 -11t3.5 -21v-529l-284 563q3 6 3 10q0 16 -15 16h-50q-16 0 -16 -16q0 -12 4 -12q8 0 11.5 -11t3.5 -21v-596q0 -39 -18 -39q-5 0 -5 -11q0 -16 18 -16h49q19 0 19 17q0 10 -4 10q-11 0 -15 10t-4 29v527l303 -594v1h40v662
q0 13 4.5 22.5t13.5 9.5q3 0 3 11q0 17 -15 17h-49z" />
    <glyph glyph-name="O" unicode="O" horiz-adv-x="525" 
d="M262 732q-125 0 -183.5 -90t-58.5 -280q0 -370 242 -370q124 0 183.5 92t59.5 278q0 189 -59 279.5t-184 90.5zM261 705q90 0 137 -86t47 -257q0 -166 -47.5 -254.5t-136.5 -88.5q-88 0 -136 89.5t-48 253.5q0 170 48 256.5t136 86.5z" />
    <glyph glyph-name="P" unicode="P" horiz-adv-x="540" 
d="M192 198q161 0 244.5 64.5t83.5 181.5q0 59 -17 109.5t-52 88.5t-90 59t-128 21h-157h-30q-21 0 -21 -16q0 -12 6 -12q10 0 14.5 -11t4.5 -21v-596q0 -20 -5 -29.5t-19 -9.5q-3 0 -4.5 -3.5t-1.5 -7.5q0 -16 24 -16h64q25 0 25 17q0 10 -5 10q-15 0 -20 10t-5 29v151
q44 -19 89 -19zM193 232q-38 0 -56 1.5t-34 8.5v420q0 12 5 22t15 10h100q66 0 112 -19t73 -53t38.5 -79t11.5 -99q0 -106 -63.5 -159t-201.5 -53z" />
    <glyph glyph-name="Q" unicode="Q" horiz-adv-x="529" 
d="M262 732q-125 0 -183.5 -90t-58.5 -280q0 -370 242 -370q70 0 121 31q20 -14 41 -24q16 -7 30 -7q11 0 19 3t8 8q0 8 -18 16q-24 12 -46 30q88 87 88 313q0 189 -59 279.5t-184 90.5zM348 127q-9 0 -15.5 -5t-6.5 -13q0 -31 25 -59q-39 -31 -90 -31q-88 0 -136 89.5
t-48 253.5q0 170 48 256.5t136 86.5q90 0 137 -86t47 -257q0 -187 -60 -276q-8 13 -13 24q-7 17 -24 17z" />
    <glyph glyph-name="R" unicode="R" horiz-adv-x="540" 
d="M192 198q92 0 158 21l46 -153q5 -17 5 -25q0 -14 -17 -14q-2 0 -2.5 -3t-0.5 -8q0 -7 8.5 -11.5t20.5 -4.5h64q11 0 15 4.5t4 12.5q0 10 -7 10q-15 0 -23.5 10.5t-13.5 28.5l-52 172q123 62 123 206q0 59 -17 109.5t-52 88.5t-90 59t-128 21h-187q-21 0 -21 -16
q0 -12 6 -12q10 0 14.5 -11t4.5 -21v-596q0 -20 -5 -29.5t-19 -9.5q-3 0 -4.5 -3.5t-1.5 -7.5q0 -16 24 -16h64q25 0 25 17q0 10 -5 10q-15 0 -20 10t-5 29v151q44 -19 89 -19zM193 232q-38 0 -56 1.5t-34 8.5v420q0 12 5 22t15 10h100q66 0 112 -19t73 -53t38.5 -79
t11.5 -99q0 -106 -63.5 -159t-201.5 -53z" />
    <glyph glyph-name="S" unicode="S" horiz-adv-x="490" 
d="M224 -9q246 0 246 263q0 58 -15 100t-41.5 67.5t-60 37t-71.5 11.5q-19 0 -37.5 5t-35 18.5t-26.5 38t-10 60.5q0 62 26.5 87.5t66.5 25.5q36 0 64 -10t49 -33q9 -10 27 -10h17q9 0 9 8q0 4 -1 6l-16 48q-2 5 -7.5 6.5t-14.5 1.5q-23 0 -70 5t-70 5q-63 0 -100 -34.5
t-37 -100.5q0 -83 42 -120.5t115 -37.5q45 0 72.5 -18.5t39.5 -48t14.5 -59t2.5 -69.5q0 -106 -45.5 -166t-131.5 -60q-58 0 -102 27.5t-66 87.5q-3 9 -14 9q-8 0 -15.5 -5t-7.5 -12l1 -2v-2q26 -69 75.5 -99.5t127.5 -30.5z" />
    <glyph glyph-name="T" unicode="T" horiz-adv-x="438" 
d="M382 722h-326q-13 0 -20 -11l-15 -40q-1 -2 -1 -5q1 -6 13 -6h8q17 0 20 11q6 25 52 25h62q11 0 14.5 -10.5t3.5 -23.5v-596q0 -20 -5 -29.5t-19 -9.5q-3 0 -4.5 -3.5t-1.5 -7.5q0 -16 24 -16h64q25 0 25 17q0 10 -5 10q-15 0 -20 10t-5 29v596q0 14 3.5 24t13.5 10h62
q46 0 52 -25q3 -11 20 -11h8q12 0 13 6q0 3 -1 5l-15 40q-7 11 -20 11z" />
    <glyph glyph-name="U" unicode="U" horiz-adv-x="510" 
d="M438 722q-13 0 -13 -16q0 -5 0.5 -8.5t3.5 -3.5q6 0 8.5 -11t2.5 -21v-531q0 -33 -13.5 -55t-35.5 -34.5t-47.5 -17.5t-51.5 -5q-38 0 -70 4t-60.5 16t-46 37t-17.5 65v521q0 13 5.5 22.5t17.5 9.5q4 0 4 11q0 17 -20 17h-64q-21 0 -21 -16q0 -12 6 -12q10 0 14.5 -11
t4.5 -21v-531q0 -64 62.5 -101.5t185.5 -37.5q77 0 128.5 39.5t51.5 99.5v531q0 13 3.5 22.5t11.5 9.5q2 0 2 11q0 17 -12 17h-40z" />
    <glyph glyph-name="V" unicode="V" horiz-adv-x="516" 
d="M318 57q-3 -14 -11 -22.5t-28 -8.5h-3q-10 0 -18.5 12.5t-10.5 21.5l-133 596q-3 14 -3 23q0 16 18 16q4 0 4 11q-2 16 -28 16h-64q-11 0 -16 -5t-5 -12q0 -10 7 -10q15 0 22.5 -10t11.5 -29l133 -596q2 -8 2 -13q0 -9 -3.5 -14.5t-12.5 -5.5q-3 0 -3 -10q0 -8 7 -12.5
t17 -4.5h143q14 0 17 17q0 9 -3 9q-5 0 -9 5t-4 12q0 10 2 18l117 595q8 39 26 39q2 0 4 4t2 7q0 16 -14 16h-41q-9 0 -15.5 -5t-6.5 -12q0 -10 4 -10q11 0 11 -16q0 -9 -3 -23z" />
    <glyph glyph-name="W" unicode="W" horiz-adv-x="750" 
d="M318 57q-3 -14 -11 -22.5t-28 -8.5h-3q-10 0 -18.5 12.5t-10.5 21.5l-133 596q-3 14 -3 23q0 16 18 16q4 0 4 11q-2 16 -28 16h-64q-11 0 -16 -5t-5 -12q0 -10 7 -10q15 0 22.5 -10t11.5 -29l133 -596q2 -8 2 -13q0 -9 -3.5 -14.5t-12.5 -5.5q-3 0 -3 -10q0 -8 7 -12.5
t17 -4.5h143q14 0 17 17q0 9 -3 9q-5 0 -9 5t-4 12q0 10 2 18l38 193l43 -194q2 -8 2 -13q0 -9 -3.5 -14.5t-12.5 -5.5q-3 0 -3 -10q0 -8 7 -12.5t17 -4.5h143q14 0 17 17q0 9 -3 9q-5 0 -9 5t-4 12q0 10 2 18l117 595q8 39 26 39q2 0 4 4t2 7q0 16 -14 16h-41
q-9 0 -15.5 -5t-6.5 -12q0 -10 4 -10q11 0 11 -16q0 -9 -3 -23l-113 -599q-3 -14 -11 -22.5t-28 -8.5h-3q-10 0 -18.5 12.5t-10.5 21.5l-71 320l54 276q8 39 26 39q2 0 4 4t2 7q0 16 -14 16h-41q-9 0 -15.5 -5t-6.5 -12q0 -10 4 -10q11 0 11 -16q0 -9 -3 -23l-38 -201
l-45 201q-3 14 -3 23q0 16 18 16q4 0 4 11q-2 16 -28 16h-64q-11 0 -16 -5t-5 -12q0 -10 7 -10q15 0 22.5 -10t11.5 -29l74 -330z" />
    <glyph glyph-name="X" unicode="X" 
d="M389 722q-7 0 -12 -3.5t-5 -12.5q0 -12 5 -12q4 0 4 -5t-2.5 -13t-5.5 -14l-133 -258l-119 258q-5 10 -5 17q0 15 14 15q3 0 3 12q0 8 -11 12t-22 4h-64q-8 0 -10.5 -3t-2.5 -13q0 -4 4 -8t8 -4q10 0 19.5 -11t13.5 -21l144 -313l-146 -284q-20 -39 -37 -39
q-2 0 -6.5 -3.5t-4.5 -7.5q0 -15 9 -15h54q9 0 15.5 4.5t6.5 10.5q0 5 -0.5 8t-2.5 3q-8 0 -8 8q0 7 11 31l127 246l113 -245q9 -18 9 -29q0 -10 -15 -10q-1 0 -2.5 -4t-1.5 -8q0 -15 24 -15h75q11 0 14.5 4.5t3.5 12.5q0 3 -4 6.5t-7 3.5q-15 0 -24.5 10t-18.5 29l-138 300
l152 296q7 13 16 22.5t18 9.5q4 0 7 4t3 8q0 11 -1 13.5t-8 2.5h-56z" />
    <glyph glyph-name="Y" unicode="Y" 
d="M389 722q-7 0 -12 -3.5t-5 -12.5q0 -12 5 -12q4 0 4 -5t-2.5 -13t-5.5 -14l-133 -258l-119 258q-5 10 -5 17q0 15 14 15q3 0 3 12q0 8 -11 12t-22 4h-64q-8 0 -10.5 -3t-2.5 -13q0 -4 4 -8t8 -4q10 0 19.5 -11t13.5 -21l141 -306v-290q0 -20 -5 -29.5t-19 -9.5
q-3 0 -4.5 -3.5t-1.5 -7.5q0 -16 24 -16h64q25 0 25 17q0 10 -5 10q-15 0 -20 10t-5 29v308l148 288q7 13 16 22.5t18 9.5q4 0 7 4t3 8q0 11 -1 13.5t-8 2.5h-56z" />
    <glyph glyph-name="Z" unicode="Z" horiz-adv-x="522" 
d="M439 67q-17 0 -21 -11q-9 -28 -103 -28h-178q-12 0 -18 5.5t-6 13.5q0 7 6 19l338 596q7 12 18 22t23 10q4 0 4 11q0 17 -20 17h-410q-13 0 -20 -11l-15 -40q-1 -2 -1 -5q1 -6 13 -6h8q17 0 20 11q6 25 52 25h274q10 0 10 -11q0 -9 -9 -23l-338 -596q-2 -4 -3 -5
q-10 -17 -17 -25t-20 -8q-3 0 -4.5 -4t-1.5 -8q0 -16 24 -16h385q17 0 20 12l13 44q1 2 1 4q0 7 -15 7h-9z" />
    <glyph glyph-name="underscore" unicode="_" horiz-adv-x="300" 
d="M-1 -34v-20h324v20h-324z" />
    <glyph glyph-name="grave" unicode="`" horiz-adv-x="114" 
d="M20 721l30 -48q7 -13 17.5 -21.5t18.5 -8.5q7 0 7 9q0 10 -7 21l-30 48h-36z" />
    <glyph glyph-name="a" unicode="a" horiz-adv-x="525" 
d="M182 563q-14 0 -17 -13q0 -7 3 -7q5 0 9 -4t4 -9q0 -8 -2 -14l-117 -464q-8 -31 -26 -31q-6 0 -6 -8q0 -13 14 -13h41q9 0 15.5 4t6.5 9q0 8 -4 8q-11 0 -11 13q0 8 3 18l89 363h124l104 -363q3 -10 3 -18q0 -13 -18 -13q-4 0 -4 -8q2 -13 28 -13h64q11 0 16 4t5 9
q0 8 -7 8q-15 0 -22.5 8t-11.5 23l-133 464v2q-2 6 -2 9q0 6 3.5 10.5t12.5 4.5q3 0 3 8q0 6 -7 9.5t-17 3.5h-143zM208 519q3 11 11.5 17.5t27.5 6.5h3q10 0 18.5 -9.5t10.5 -17.5l23 -80h-113z" />
    <glyph glyph-name="b" unicode="b" horiz-adv-x="538" 
d="M475 436q0 44 -17.5 69.5t-49 38t-72.5 16t-103 3.5h-187q-21 0 -21 -12q0 -10 6 -10q10 0 14.5 -8.5t4.5 -16.5v-464q0 -16 -5 -23.5t-19 -7.5q-6 0 -6 -8q0 -13 24 -13h339q41 0 68 11.5t41.5 30.5t20 41t5.5 46q0 29 -19 70t-41 66l-73 82q43 22 66.5 44.5t23.5 44.5z
M103 52v177l256 106l46 -55q19 -22 28.5 -62.5t9.5 -76.5q0 -20 -5 -40t-18 -38t-37.5 -29.5t-61.5 -11.5h-200q-10 2 -14 9.5t-4 20.5zM103 257v259q0 10 5 17.5t15 7.5h100q52 0 82.5 -2.5t55.5 -12t39 -31.5t14 -59q0 -25 -24.5 -48.5t-68.5 -41.5z" />
    <glyph glyph-name="c" unicode="c" horiz-adv-x="486" 
d="M262 571q-125 0 -183.5 -70.5t-58.5 -218.5q0 -288 242 -288q78 0 127.5 23.5t75.5 77.5q0 1 1 3q0 5 -7.5 9.5t-15.5 4.5q-10 0 -14 -7q-22 -47 -66 -68.5t-102 -21.5q-88 0 -136 70t-48 197q0 133 48 200.5t136 67.5q38 0 72.5 -8t54.5 -26q8 -7 27 -7h17q9 0 9 6
q0 3 -1 5l-16 37q-2 4 -7.5 5t-14.5 1q-23 0 -70 4t-70 4z" />
    <glyph glyph-name="d" unicode="d" horiz-adv-x="535" 
d="M215 563h-169q-21 0 -21 -12q0 -8 6 -8q10 0 14.5 -9.5t4.5 -17.5v-464q0 -30 -24 -30q-6 0 -6 -9q0 -13 24 -13h171q58 0 110 11t95 38.5t69 77t26 122.5q0 77 -25.5 136.5t-69 99t-96.5 59t-109 19.5zM215 543q45 0 88.5 -19.5t78 -56.5t55 -91t20.5 -120
q0 -68 -18 -113.5t-50.5 -72t-76 -37.5t-97.5 -11h-87q-15 0 -20 7.5t-5 22.5v464q0 10 4.5 18.5t14.5 8.5h93z" />
    <glyph glyph-name="e" unicode="e" horiz-adv-x="468" 
d="M357 416q26 0 36.5 -1.5t12.5 -8.5q3 -9 20 -9h8q12 0 13 5q0 2 -1 4l-12 21q-4 9 -20 9h-311v80q0 11 3.5 19t13.5 8h235q46 0 52 -20q3 -8 20 -8h8q12 0 13 5q0 2 -1 3l-15 32q-8 8 -20 8h-366q-21 0 -21 -12q0 -10 6 -10q10 0 14.5 -8.5t4.5 -16.5v-464q0 -30 -24 -30
q-6 0 -6 -9q0 -13 24 -13h369q16 0 20 9l13 35q1 1 1 3q0 5 -15 5h-9q-17 0 -21 -8q-9 -22 -103 -22h-178q-10 2 -14 9.5t-4 20.5v364h254z" />
    <glyph glyph-name="f" unicode="f" horiz-adv-x="468" 
d="M357 416q26 0 36.5 -1.5t12.5 -8.5q3 -9 20 -9h8q12 0 13 5q0 2 -1 4l-12 21q-4 9 -20 9h-311v80q0 11 3.5 19t13.5 8h235q46 0 52 -20q3 -8 20 -8h8q12 0 13 5q0 2 -1 3l-15 32q-8 8 -20 8h-366q-21 0 -21 -12q0 -10 6 -10q10 0 14.5 -8.5t4.5 -16.5v-464
q0 -16 -5 -23.5t-19 -7.5q-6 0 -6 -8q0 -13 24 -13h64q25 0 25 13q0 8 -5 8q-15 0 -20 8t-5 23v364h254z" />
    <glyph glyph-name="g" unicode="g" horiz-adv-x="509" 
d="M268 282q-7 0 -9 -2.5t-2 -11.5q0 -2 1.5 -4.5t5.5 -2.5h126q10 0 14.5 -8.5t4.5 -16.5v-113q0 -33 -14 -54.5t-36.5 -33t-47.5 -16t-50 -4.5q-88 0 -136 70t-48 197q0 133 48 200.5t136 67.5q38 0 72.5 -8t54.5 -26q8 -7 27 -7h17q9 0 9 6q0 3 -1 5l-16 37q-2 4 -7.5 5
t-14.5 1q-23 0 -70 4t-70 4q-125 0 -183.5 -70.5t-58.5 -218.5q0 -288 242 -288q71 0 116 22t76 50q8 7 9 7q7 0 10 3.5t3 8.5q0 8 -5 8q-6 0 -7.5 14t-1.5 35v94q0 10 5.5 17.5t17.5 7.5q4 0 4 8q0 13 -20 13h-201z" />
    <glyph glyph-name="h" unicode="h" horiz-adv-x="469" 
d="M362 563q-21 0 -21 -12q0 -10 6 -10q10 0 14.5 -8.5t4.5 -16.5v-80h-263v80q0 10 5.5 17.5t17.5 7.5q4 0 4 9q0 13 -20 13h-64q-21 0 -21 -12q0 -10 6 -10q10 0 14.5 -8.5t4.5 -16.5v-464q0 -16 -5 -23.5t-19 -7.5q-6 0 -6 -8q0 -13 24 -13h64q25 0 25 13q0 8 -5 8
q-15 0 -20 8t-5 23v364h263v-364q0 -16 -5 -23.5t-19 -7.5q-6 0 -6 -8q0 -13 24 -13h64q25 0 25 13q0 8 -5 8q-15 0 -20 8t-5 23v464q0 10 5.5 17.5t17.5 7.5q4 0 4 9q0 13 -20 13h-64z" />
    <glyph glyph-name="i" unicode="i" horiz-adv-x="153" 
d="M46 563q-21 0 -21 -12q0 -10 6 -10q10 0 14.5 -8.5t4.5 -16.5v-464q0 -16 -5 -23.5t-19 -7.5q-6 0 -6 -8q0 -13 24 -13h64q25 0 25 13q0 8 -5 8q-15 0 -20 8t-5 23v464q0 10 5.5 17.5t17.5 7.5q4 0 4 9q0 13 -20 13h-64z" />
    <glyph glyph-name="j" unicode="j" horiz-adv-x="249" 
d="M29 44q-9 -4 -9 -13q0 -5 5 -7t12 -2q12 0 24 -9q10 -7 21.5 -11t32.5 -4q36 0 61.5 21t25.5 50v447q0 10 5.5 17.5t17.5 7.5q4 0 4 9q0 13 -20 13h-64q-21 0 -21 -12q0 -10 6 -10q10 0 14.5 -8.5t4.5 -16.5v-446q0 -23 -9 -35.5t-33 -12.5q-13 0 -24.5 4t-11.5 11
q0 2 3 6q3 5 3 8q0 9 -10 9q-2 0 -7 -1.5t-7 -3.5z" />
    <glyph glyph-name="k" unicode="k" 
d="M46 563q-21 0 -21 -12q0 -8 6 -8q10 0 14.5 -9.5t4.5 -17.5v-464q0 -16 -5 -23.5t-19 -7.5q-6 0 -6 -8q0 -13 24 -13h64q25 0 25 13q0 8 -5 8q-15 0 -20 8t-5 23v118q0 31 14.5 75.5t38.5 93.5l157 -287q9 -16 9 -24q0 -7 -14 -7q-7 0 -7 -8q0 -6 9 -9.5t29 -3.5h83
q11 0 15 3.5t4 9.5q0 2 -4.5 5t-7.5 3q-15 0 -25 8t-19 23l-204 332q41 70 87.5 114.5t86.5 44.5q21 0 29.5 -11.5t8.5 -29.5q0 -5 14 -8t27 -3t13 4q0 30 -18.5 49t-66.5 19q-31 0 -65.5 -21.5t-67.5 -57t-61.5 -77t-48.5 -80.5q-3 -5 -7.5 -11.5t-7.5 -9.5q-1 0 -1 4v206
q0 12 5 19.5t18 7.5q4 0 4 7q0 13 -20 13h-64z" />
    <glyph glyph-name="l" unicode="l" 
d="M423 52q-17 0 -21 -8q-9 -22 -103 -22h-178q-10 2 -14 9.5t-4 20.5v464q0 10 5.5 17.5t17.5 7.5q4 0 4 9q0 13 -20 13h-64q-21 0 -21 -12q0 -10 6 -10q10 0 14.5 -8.5t4.5 -16.5v-464q0 -30 -24 -30q-6 0 -6 -9q0 -13 24 -13h369q16 0 20 9l13 35q1 1 1 3q0 5 -15 5h-9z
" />
    <glyph glyph-name="m" unicode="m" horiz-adv-x="752" 
d="M181 563q-23 0 -23 -13q0 -9 7 -9q8 0 8 -14q0 -8 -1 -11l-121 -464q-8 -31 -24 -31q-7 0 -7 -8q0 -13 14 -13h45q9 0 16.5 4t7.5 9q0 8 -4 8q-13 0 -13 14q0 10 2 17l116 446l118 -193q-6 -6 -6 -19q0 -11 6 -11h65q7 0 7 11q0 15 -7 19l116 215l1 -2v-2l134 -464
q3 -10 3 -18q0 -13 -18 -13q-5 0 -5 -8q0 -5 8.5 -9t20.5 -4h64q21 0 21 13q0 8 -7 8q-15 0 -22.5 8t-11.5 23l-134 464q-1 4 -1 10q0 15 17 15q5 0 5 9q0 7 -8 10t-19 3h-64q-18 0 -18 -12q0 -8 9 -10l-112 -209l-133 210l1 1q2 4 2 7q0 13 -10 13h-45z" />
    <glyph glyph-name="n" unicode="n" 
d="M383 563q-16 0 -16 -12q0 -10 4 -10q8 0 11.5 -8.5t3.5 -16.5v-412l-284 439q3 3 3 8q0 12 -15 12h-50q-16 0 -16 -12q0 -10 4 -10q8 0 11.5 -8.5t3.5 -16.5v-464q0 -31 -18 -31q-5 0 -5 -8q0 -13 18 -13h49q19 0 19 13q0 8 -4 8q-11 0 -15 8t-4 23v411l303 -464v1h40
v516q0 11 4.5 18t13.5 7q3 0 3 9q0 13 -15 13h-49z" />
    <glyph glyph-name="o" unicode="o" horiz-adv-x="525" 
d="M262 571q-125 0 -183.5 -70.5t-58.5 -218.5q0 -288 242 -288q243 0 243 288q0 148 -59 218.5t-184 70.5zM261 550q90 0 137 -67t47 -201q0 -129 -47.5 -198t-136.5 -69q-88 0 -136 70t-48 197q0 133 48 200.5t136 67.5z" />
    <glyph glyph-name="p" unicode="p" horiz-adv-x="540" 
d="M192 154q161 0 244.5 50.5t83.5 141.5q0 46 -17 85.5t-52 69t-89.5 46t-128.5 16.5h-157h-30q-21 0 -21 -12q0 -10 6 -10q10 0 14.5 -8.5t4.5 -16.5v-464q0 -16 -5 -23.5t-19 -7.5q-6 0 -6 -8q0 -13 24 -13h64q25 0 25 13q0 8 -5 8q-15 0 -20 8t-5 23v117q47 -15 89 -15z
M193 181q-39 0 -57 1.5t-33 6.5v327q0 10 5 17.5t15 7.5h100q66 0 112 -15t73 -41.5t38.5 -61.5t11.5 -77q0 -83 -63.5 -124t-201.5 -41z" />
    <glyph glyph-name="q" unicode="q" horiz-adv-x="529" 
d="M262 571q-125 0 -183.5 -70.5t-58.5 -218.5q0 -288 242 -288q72 0 121 24q17 -10 41 -19q15 -5 30 -5q11 0 19 2.5t8 5.5q0 6 -18 13q-23 8 -46 23q88 68 88 244q0 148 -59 218.5t-184 70.5zM348 99q-22 0 -22 -14q0 -24 25 -46q-37 -24 -90 -24q-88 0 -136 70t-48 197
q0 133 48 200.5t136 67.5q90 0 137 -67t47 -201q0 -146 -60 -215q-7 8 -13 19q-7 13 -24 13z" />
    <glyph glyph-name="r" unicode="r" horiz-adv-x="540" 
d="M192 154q90 0 158 17l46 -119q5 -13 5 -20q0 -11 -17 -11q-3 0 -3 -8q0 -5 8.5 -9t20.5 -4h64q11 0 15 3.5t4 9.5q0 8 -7 8q-15 0 -23.5 8t-13.5 23l-52 134q123 48 123 160q0 46 -17 85.5t-52 69t-89.5 46t-128.5 16.5h-187q-21 0 -21 -12q0 -10 6 -10q10 0 14.5 -8.5
t4.5 -16.5v-464q0 -16 -5 -23.5t-19 -7.5q-6 0 -6 -8q0 -13 24 -13h64q25 0 25 13q0 8 -5 8q-15 0 -20 8t-5 23v117q47 -15 89 -15zM193 181q-39 0 -57 1.5t-33 6.5v327q0 10 5 17.5t15 7.5h100q66 0 112 -15t73 -41.5t38.5 -61.5t11.5 -77q0 -83 -63.5 -124t-201.5 -41z
" />
    <glyph glyph-name="s" unicode="s" horiz-adv-x="490" 
d="M224 -7q246 0 246 205q0 45 -15 78t-41.5 53t-60 29t-71.5 9q-20 0 -38 4t-34.5 14t-26.5 29t-10 48q0 48 26.5 68t66.5 20q36 0 64 -7.5t49 -26.5q8 -7 27 -7h17q9 0 9 6q0 3 -1 5l-16 37q-2 4 -7.5 5t-14.5 1q-23 0 -70 4t-70 4q-63 0 -100 -26.5t-37 -78.5
q0 -65 42 -94.5t115 -29.5q46 0 73 -14.5t39 -37t14.5 -45.5t2.5 -55q0 -82 -45.5 -129t-131.5 -47q-58 0 -102 21.5t-66 68.5q-3 7 -14 7q-8 0 -15.5 -4t-7.5 -9l1 -2v-2q26 -54 75.5 -77.5t127.5 -23.5z" />
    <glyph glyph-name="t" unicode="t" horiz-adv-x="438" 
d="M382 563h-326q-12 0 -20 -8l-15 -32q-1 -1 -1 -3q1 -5 13 -5h8q17 0 20 8q6 20 52 20h62q11 0 14.5 -8.5t3.5 -18.5v-464q0 -16 -5 -23.5t-19 -7.5q-6 0 -6 -8q0 -13 24 -13h64q25 0 25 13q0 8 -5 8q-15 0 -20 8t-5 23v464q0 11 3.5 19t13.5 8h62q46 0 52 -20q3 -8 20 -8
h8q12 0 13 5q0 2 -1 3l-15 32q-8 8 -20 8z" />
    <glyph glyph-name="u" unicode="u" horiz-adv-x="510" 
d="M438 563q-13 0 -13 -12q0 -10 4 -10q6 0 8.5 -8.5t2.5 -16.5v-414q0 -26 -13.5 -43t-36 -26.5t-47.5 -13.5t-51 -4q-38 0 -70 3t-60.5 12.5t-46 29t-17.5 50.5v406q0 10 5.5 17.5t17.5 7.5q4 0 4 9q0 13 -20 13h-64q-21 0 -21 -12q0 -10 6 -10q10 0 14.5 -8.5t4.5 -16.5
v-414q0 -50 62.5 -79t185.5 -29q77 0 128.5 31t51.5 77v414q0 11 3.5 18t11.5 7q2 0 2 9q0 13 -12 13h-40z" />
    <glyph glyph-name="v" unicode="v" horiz-adv-x="516" 
d="M318 45q-3 -11 -11 -18t-28 -7h-3q-10 0 -18.5 10t-10.5 17l-133 465q-3 11 -3 18q0 12 18 12q4 0 4 9q-2 12 -28 12h-64q-11 0 -16 -4t-5 -9q0 -8 7 -8q15 0 22.5 -8t11.5 -22l133 -465q2 -6 2 -10q0 -7 -3.5 -11.5t-12.5 -4.5q-3 0 -3 -8q0 -6 7 -9.5t17 -3.5h143
q14 0 17 13q0 7 -3 7q-5 0 -9 4.5t-4 9.5q0 8 2 14l117 464q8 30 26 30q6 0 6 9q0 12 -14 12h-41q-9 0 -15.5 -4t-6.5 -9q0 -8 4 -8q11 0 11 -12q0 -7 -3 -18z" />
    <glyph glyph-name="w" unicode="w" horiz-adv-x="750" 
d="M318 45q-3 -11 -11 -18t-28 -7h-3q-10 0 -18.5 10t-10.5 17l-133 465q-3 11 -3 18q0 12 18 12q4 0 4 9q-2 12 -28 12h-64q-11 0 -16 -4t-5 -9q0 -8 7 -8q15 0 22.5 -8t11.5 -22l133 -465q2 -6 2 -10q0 -7 -3.5 -11.5t-12.5 -4.5q-3 0 -3 -8q0 -6 7 -9.5t17 -3.5h143
q14 0 17 13q0 7 -3 7q-5 0 -9 4.5t-4 9.5q0 8 2 14l38 150l43 -151q2 -6 2 -10q0 -7 -3.5 -11.5t-12.5 -4.5q-3 0 -3 -8q0 -6 7 -9.5t17 -3.5h143q14 0 17 13q0 7 -3 7q-5 0 -9 4.5t-4 9.5q0 8 2 14l117 464q8 30 26 30q6 0 6 9q0 12 -14 12h-41q-9 0 -15.5 -4t-6.5 -9
q0 -8 4 -8q11 0 11 -12q0 -7 -3 -18l-113 -467q-3 -11 -11 -18t-28 -7h-3q-10 0 -18.5 10t-10.5 17l-71 249l54 216q8 30 26 30q6 0 6 9q0 12 -14 12h-41q-9 0 -15.5 -4t-6.5 -9q0 -8 4 -8q11 0 11 -12q0 -7 -3 -18l-38 -157l-45 157q-3 11 -3 18q0 12 18 12q4 0 4 9
q-2 12 -28 12h-64q-11 0 -16 -4t-5 -9q0 -8 7 -8q15 0 22.5 -8t11.5 -22l74 -258z" />
    <glyph glyph-name="x" unicode="x" 
d="M389 563q-7 0 -12 -2.5t-5 -9.5q0 -10 5 -10q4 0 4 -4t-2.5 -10t-5.5 -11l-133 -201l-119 201q-5 8 -5 14q0 11 14 11q3 0 3 10q0 6 -11 9t-22 3h-64q-8 0 -10.5 -2.5t-2.5 -9.5q0 -4 4 -7t8 -3q10 0 19.5 -8.5t13.5 -16.5l144 -244l-146 -221q-20 -31 -37 -31
q-3 0 -7 -2.5t-4 -5.5q0 -12 9 -12h54q9 0 15.5 3.5t6.5 8.5q0 8 -3 8q-8 0 -8 7q0 6 11 24l127 192l113 -191q9 -15 9 -23t-15 -8q-4 0 -4 -9q0 -12 24 -12h75q11 0 14.5 3.5t3.5 9.5q0 3 -4 5.5t-7 2.5q-15 0 -25 8t-18 23l-138 234l152 230q7 10 16 17.5t18 7.5
q4 0 7 3.5t3 6.5q0 9 -1 10.5t-8 1.5h-56z" />
    <glyph glyph-name="y" unicode="y" 
d="M389 563q-7 0 -12 -2.5t-5 -9.5q0 -10 5 -10q4 0 4 -4t-2.5 -10t-5.5 -11l-133 -201l-119 201q-5 8 -5 14q0 11 14 11q3 0 3 10q0 6 -11 9t-22 3h-64q-8 0 -10.5 -2.5t-2.5 -9.5q0 -4 4 -7t8 -3q10 0 19.5 -8.5t13.5 -16.5l141 -238v-226q0 -16 -5 -23.5t-19 -7.5
q-6 0 -6 -8q0 -13 24 -13h64q25 0 25 13q0 8 -5 8q-15 0 -20 8t-5 23v240l148 224q7 10 16 17.5t18 7.5q4 0 7 3.5t3 6.5q0 9 -1 10.5t-8 1.5h-56z" />
    <glyph glyph-name="z" unicode="z" horiz-adv-x="522" 
d="M439 52q-17 0 -21 -8q-9 -22 -103 -22h-178q-24 0 -24 15q0 5 6 15l338 464q6 9 17.5 17t23.5 8q4 0 4 9q0 13 -20 13h-410q-12 0 -20 -8l-15 -32q-1 -1 -1 -3q1 -5 13 -5h8q17 0 20 8q6 20 52 20h274q10 0 10 -9q0 -5 -9 -18l-338 -464l-2 -3q-10 -14 -17.5 -20.5
t-20.5 -6.5q-6 0 -6 -9q0 -13 24 -13h385q16 0 20 9l13 35q1 1 1 3q0 5 -15 5h-9z" />
    <glyph glyph-name="sterling" unicode="&#xa3;" 
d="M103 66q18 119 18 239q0 123 -18 228h105q26 0 36.5 -2t12.5 -11q3 -11 20 -11h8q12 0 13 6q0 3 -1 5l-12 28q-5 11 -20 11h-170q-2 8 -2 24q0 42 23 77.5t48 35.5q19 0 53.5 -1.5t72.5 -5.5t66 -11.5t31 -19.5q3 -11 20 -11h8q12 0 13 6q0 3 -1 5l-15 40q-7 11 -20 11
q-41 0 -111 7q-71 6 -109 6q-54 0 -90 -39.5t-36 -104.5q0 -25 3 -39q20 -114 20 -237q0 -116 -19 -236q0 -2 -1 -6q-3 -19 -7 -25.5t-16 -6.5q-3 0 -4.5 -4t-1.5 -8q0 -16 24 -16q31 0 85 7q51 7 82 7q22 0 40 -1.5t45 -4.5q34 -4 57.5 -6t59.5 -2q17 0 20 12l13 44
q1 2 1 4q0 7 -15 7h-9q-17 0 -21 -11q-5 -15 -14.5 -23.5t-32.5 -8.5q-21 0 -34 4q-46 9 -107 9q-51 0 -93 -9q-19 5 -19 29q0 1 1 5v4z" />
    </font>
</defs>
</svg>
