<?xml version="1.0" standalone="no"?>
<!DOCTYPE svg PUBLIC "-//W3C//DTD SVG 1.1//EN" "http://www.w3.org/Graphics/SVG/1.1/DTD/svg11.dtd" >
<svg xmlns="http://www.w3.org/2000/svg" xmlns:xlink="http://www.w3.org/1999/xlink" version="1.1">
<metadata>
Created by FontForge 20170731 at Mon Oct 29 18:15:05 2012
 By Aleksey,,,
Copyright (c) 2012 by Angel Koziupa and Alejandro Paul. All rights reserved. www.sudtipos.com, with Reserved Font Name "Platinus Script Pro"
</metadata>
<defs>
<font id="PlatinusScriptPro" horiz-adv-x="439" >
  <font-face 
    font-family="Platinus Script Pro"
    font-weight="400"
    font-stretch="normal"
    units-per-em="1000"
    panose-1="2 0 0 0 0 0 0 0 0 0"
    ascent="800"
    descent="-200"
    x-height="270"
    cap-height="768"
    bbox="-883 -788 2022 915"
    underline-thickness="50"
    underline-position="-200"
    unicode-range="U+0020-FB02"
  />
<missing-glyph horiz-adv-x="280" 
 />
    <glyph glyph-name="l_l" unicode="ll" horiz-adv-x="721" 
d="M686 698q-90 0 -223.5 -127t-239.5 -288q77 10 166 58.5t157 109t113.5 122.5t45.5 100q0 25 -19 25zM1181 745q-89 0 -243.5 -138.5t-278.5 -317.5q86 9 187 62.5t177.5 121.5t128.5 137t52 108q0 27 -23 27zM185 281h8q100 160 250 292t246 132q34 0 34 -32
q0 -58 -81 -147t-202 -162.5t-221 -86.5q-104 -158 -104 -232q0 -76 83 -76q85 0 176.5 50.5t160.5 111.5q37 78 87 150q-59 1 -59 17q0 5 2 5l2 -1q19 -14 60 -14q126 179 296 321t261 142q37 0 37 -35q0 -44 -55.5 -115.5t-137 -139t-185 -120t-189.5 -59.5
q-149 -213 -149 -335q0 -71 39 -93q3 -1 3 -3l-2 -2q-18 0 -38 30t-20 75q0 70 41 163q-76 -62 -165.5 -110t-167.5 -48q-41 0 -65 24t-24 71q0 86 83 221h-4q-26 0 -50.5 10t-24.5 29q0 8 6 8q1 0 2.5 -4t5.5 -10t11 -12.5t20 -10.5t30 -4z" />
    <glyph glyph-name="r_r" unicode="rr" horiz-adv-x="770" 
d="M730 236q31 36 62 59t50 23q13 0 13 -6q0 -12 -38 -42t-64 -41q-13 -6 -33.5 -42t-20.5 -66q0 -33 34 -33q46 0 105.5 28t108.5 68q1 1 2 1q2 0 2 -2q0 -6 -8 -12q-43 -34 -103.5 -62t-111.5 -28q-49 0 -49 44q0 37 33 89q3 3 0 3l-4 -1q-39 -14 -138 -84t-152 -123
q-14 -14 -30 -38q-4 -7 -15 -15.5t-17 -8.5q-3 0 -3 3q0 9 47.5 73t103.5 131q-97 -65 -173 -65q-20 0 -33 11t-13 33q0 39 24 75q-1 3 -4 3q-33 -13 -120.5 -74t-139.5 -113q-12 -12 -24 -30q-4 -6 -14 -6h-3q-4 0 -4 2q0 15 114.5 156t131.5 141q5 0 5 -12q0 -10 -7 -16
q-16 -13 -78.5 -83.5t-79.5 -97.5l1 -4q2 0 5 2q42 34 113 82t115 69q24 33 54.5 55.5t45.5 22.5l11 -5q0 -13 -27.5 -36.5t-58.5 -37.5q-15 -7 -30 -37.5t-15 -60.5q0 -14 9.5 -23t25.5 -9q81 0 186 78q81 95 93 95q5 0 5 -13q0 -10 -6 -16q-17 -15 -74 -79.5t-73 -91.5
q0 -5 2 -5q1 0 3 2q47 38 129 94t130 76z" />
    <glyph glyph-name="t_t" unicode="tt" horiz-adv-x="641" 
d="M98 26q0 -38 37 -38q56 0 138.5 52.5t154.5 115.5h1q78 130 243 305q-29 -1 -71 -1q-26 0 -77 0.5t-76 0.5h-54q-122 -139 -209 -260.5t-87 -174.5zM552 -166q-81 0 -133 36t-52 116q0 61 54 156q-71 -63 -157.5 -114.5t-138.5 -51.5q-35 0 -35 45q0 69 79 190t192 249
q-143 -3 -237 -21q-3 0 -7.5 -1.5t-6.5 -1.5q-3 0 -3 2q0 5 22 13t75 16t121 8q3 0 19 -0.5t29 -0.5q72 81 130.5 134.5t74.5 53.5q4 0 4 -2q0 -1 -3 -4q-41 -33 -175 -183q116 -4 214 -4q43 0 62 1q90 94 175 172q17 15 29 15q7 0 7 -3q-14 -15 -75 -77t-103 -106
q99 4 196.5 18t126.5 14q13 0 13 -2l-8 -4q-139 -32 -337 -36q-325 -344 -325 -483q0 -72 44.5 -100.5t129.5 -28.5q71 0 130 30q3 2 4 2t1 -2q0 -4 -15.5 -14t-49 -20.5t-71.5 -10.5z" />
    <glyph glyph-name=".notdef" horiz-adv-x="280" 
 />
    <glyph glyph-name=".notdef" horiz-adv-x="280" 
 />
    <glyph glyph-name=".null" horiz-adv-x="0" 
 />
    <glyph glyph-name="nonmarkingreturn" horiz-adv-x="333" 
 />
    <glyph glyph-name="space" unicode=" " horiz-adv-x="280" 
 />
    <glyph glyph-name="exclam" unicode="!" horiz-adv-x="406" 
d="M165 2q-11 0 -11 10q0 12 11.5 22t22.5 10q10 0 10 -12q0 -10 -11 -20t-22 -10zM664 637q6 8 14 12.5t13 4.5l5 1q15 0 15 -14q0 -7 -5 -12q-30 -30 -221.5 -248.5t-208.5 -248.5q-4 -6 -8 -10t-6 -4l-3 -1q-2 1 -2 5q0 9 12 21q23 24 171 208t224 286z" />
    <glyph glyph-name="quotedbl" unicode="&#x22;" horiz-adv-x="126" 
d="M533 626q-5 -4 -13 -13t-13.5 -14t-7.5 -5l-1 1q0 3 7 15t16.5 28t13.5 25q11 25 30 25q16 0 16 -11q0 -5 -6.5 -12.5t-23 -22t-18.5 -16.5zM453 626q-5 -4 -13 -13t-13.5 -14t-7.5 -5l-1 1q0 3 7 15t16.5 28t13.5 25q11 25 30 25q16 0 16 -11q0 -5 -6.5 -12.5t-23 -22
t-18.5 -16.5z" />
    <glyph glyph-name="numbersign" unicode="#" horiz-adv-x="643" 
d="M320 276q37 1 113 5.5t86 5.5q24 29 116 146q-163 -8 -197 -8q-76 -103 -118 -149zM120 287l3 1q48 -12 175 -12q50 59 120 149q-58 0 -97 2.5t-49 5.5l-11 3q-14 3 -14 7l4 2q47 -13 172 -13q7 8 18 22.5t12 15.5q30 37 60.5 63t39.5 26q4 0 4 -2q0 -1 -3 -4
q-45 -40 -75 -76q-19 -23 -35 -45q45 1 199 11l22 27q30 37 60 63t39 26q4 0 4 -2q0 -1 -3 -4q-45 -40 -75 -76l-26 -33q36 2 46 2q71 0 99 -7q20 -4 20 -10q0 -2 -1 -2l-3 1q-3 1 -10.5 2.5t-19 2.5t-33.5 2t-50 1q-13 0 -55 -2q-104 -132 -115 -145q16 1 41 1q67 0 99 -7
q20 -5 20 -10q0 -2 -2 -2q-3 0 -5 1q-28 7 -111 7q-12 0 -52 -2l-10 -11q-35 -39 -65.5 -67.5t-44.5 -38.5l-13 -9q-8 -6 -13 -6q-3 0 -3 2q0 1 3 3q30 15 117 118l7 8q-160 -8 -197 -8l-2 -2q-35 -39 -65.5 -67.5t-43.5 -38.5l-14 -9q-8 -6 -13 -6q-3 0 -3 2q0 1 3 3
q4 2 14 9.5t38.5 36.5t63.5 72q-58 0 -97.5 3t-49.5 5l-11 3q-13 4 -13 8z" />
    <glyph glyph-name="dollar" unicode="$" horiz-adv-x="678" 
d="M707 693q-37 -38 -101 -115q-27 -31 -121 -151q7 -4 29 -15.5t34 -18.5q129 167 148 189q57 68 88 100q-32 10 -77 11zM213 -7q77 82 170 192q82 101 148 186q-10 6 -64 34q-133 -168 -177 -222q-103 -122 -147 -170q30 -14 70 -20zM387 527q0 -46 90 -96q81 105 119 151
q41 50 97 111h-6q-45 0 -95 -10t-97 -29t-77.5 -52.5t-30.5 -74.5zM269 -11q176 0 277.5 76.5t101.5 171.5q0 41 -29 71.5t-80 58.5q-95 -119 -149 -184q-106 -128 -167 -191q21 -3 46 -3zM164 -60l2 6q13 12 40 40q-45 7 -72 17l-49 -49l-22 -14l3 6q19 18 60 61
q-93 39 -93 118q0 89 83 154q13 11 22 11q5 0 -1 -6q-70 -70 -72 -159q0 -68 71 -108q77 86 146 168q63 75 178 224q-48 25 -74 51t-26 60q0 51 51.5 93.5t126 64.5t150.5 22h12l16 15q27 24 30 21q2 -1 -3 -6l-4 -4l-26 -27q44 -2 77 -10l26 26q27 25 31 21q1 -1 -8 -10
l-38 -39q65 -18 65 -54q0 -48 -57 -90q-6 -5 -10 -5q-1 0 -1 2l4 5q41 42 41 85q0 31 -49 49q-68 -77 -88 -101q-48 -57 -150 -189q58 -32 90.5 -63.5t32.5 -73.5q0 -109 -114 -190t-296 -81q-27 0 -53 3l-31 -30z" />
    <glyph glyph-name="percent" unicode="%" horiz-adv-x="683" 
d="M649 296q46 0 46 -53q0 -75 -81.5 -156t-155.5 -81q-58 0 -58 60t39.5 110t80.5 58l1 -1q-6 -9 -6 -22q0 -5 2 -5t3 5q8 30 47 57.5t82 27.5zM651 304q-38 0 -73 -21.5t-50 -39.5q-56 -11 -101.5 -65t-45.5 -113q0 -66 73 -66q83 0 170.5 82t87.5 162q0 61 -61 61z
M480 675q46 0 46 -53q0 -75 -81.5 -156t-155.5 -81q-58 0 -58 60t39.5 110t80.5 58l1 -1q-6 -9 -6 -22q0 -5 2 -5t3 5q8 30 47 57.5t82 27.5zM482 683q-38 0 -73 -21.5t-50 -39.5q-56 -11 -101.5 -65t-45.5 -113q0 -66 73 -66q83 0 170.5 82t87.5 162q0 61 -61 61zM-44 -6
l4 5q89 47 304 204q81 60 247 190.5t208 161.5q111 81 168 113q32 16 38 16l2 -2q0 -3 -11 -8q-44 -23 -188 -127q-45 -33 -211.5 -162t-244.5 -187q-104 -76 -176.5 -125t-92.5 -59l-20 -11q-18 -11 -25 -11z" />
    <glyph glyph-name="ampersand" unicode="&#x26;" horiz-adv-x="805" 
d="M360 144q0 -11 9 -11q27 0 62 40.5t44 90.5q-51 -27 -83 -59t-32 -61zM984 681q0 17 -18 17q-58 0 -111.5 -48.5t-110.5 -137.5q240 87 240 169zM779 232q0 46 -39.5 64.5t-93.5 18.5q-9 0 -13 -1q-124 -234 -195 -324q76 9 142 36.5t108.5 63t66.5 73t24 69.5zM599 310
q-54 -11 -108 -37q-6 -58 -56 -107.5t-80 -49.5q-16 0 -16 14q0 36 38.5 75t98.5 69q1 4 1 13q0 14 -2.5 24.5t-5.5 14.5l-3 3q-1 2 -1 4l1 1q3 0 8.5 -4.5t11.5 -16.5t6 -27v-5q57 28 111 37q60 112 100 173l-20 -6q-91 -30 -152.5 -53t-139 -60t-124 -72t-79 -84
t-32.5 -103q0 -62 56 -94.5t157 -32.5q15 0 45 2q18 25 36 53t39.5 66.5t34.5 61.5t39.5 73.5t35.5 67.5zM224 -145q91 0 184 126q-26 -2 -40 -2q-109 0 -175 36t-66 97q0 46 23.5 88.5t69.5 78.5t95.5 65.5t122 59t126 48t129.5 43.5q5 1 15 5q65 98 130.5 152.5
t139.5 54.5q13 0 21 -6.5t8 -15.5q0 -86 -268 -181q-38 -61 -102 -182h9q158 0 158 -96q0 -69 -109.5 -148t-262.5 -95q-112 -140 -226 -140q-12 0 -26.5 6.5t-14.5 13.5q0 2 3 2l4 -1q18 -9 52 -9z" />
    <glyph glyph-name="quotesingle" unicode="'" horiz-adv-x="126" 
d="M453 626q-5 -4 -13 -13t-13.5 -14t-7.5 -5l-1 1q0 2 7 14t16.5 28.5t13.5 25.5q11 25 30 25q16 0 16 -11q0 -5 -6.5 -12.5t-23 -22t-18.5 -16.5z" />
    <glyph glyph-name="parenleft" unicode="(" horiz-adv-x="246" 
d="M102 -27l3 -46q2 -8 2 -9l-2 -2q-6 0 -10 27.5t-4 54.5q0 105 68 233.5t166 234.5t210.5 184t198.5 92q3 -1 3 -3q0 -3 -10 -5q-83 -20 -192 -103t-204.5 -191.5t-162 -237t-66.5 -229.5z" />
    <glyph glyph-name="parenright" unicode=")" horiz-adv-x="415" 
d="M467 685l-3 46q-2 8 -2 9l2 2q6 0 10 -27.5t4 -54.5q0 -105 -68 -233.5t-166 -234.5t-210.5 -184t-198.5 -92q-3 1 -3 3q0 3 10 5q83 20 192 103t204.5 191.5t162 237t66.5 229.5z" />
    <glyph glyph-name="asterisk" unicode="*" horiz-adv-x="218" 
d="M486 621q0 -8 -8 -8q-7 0 -11.5 17.5t-8.5 17.5q-5 0 -16.5 -18.5t-18.5 -18.5q-8 0 -8 7q0 6 8 10q29 17 29 23q0 3 -5 3t-20.5 -4t-19.5 -4q-7 0 -7 6q0 3 3.5 6.5t8.5 3.5q2 0 15.5 -2t19.5 -2q7 0 7 3t-10 13t-10 14q0 7 9 7q8 0 11.5 -16.5t6.5 -16.5q6 0 18.5 17.5
t19.5 17.5q8 0 8 -6q0 -2 -2 -4t-11.5 -8.5t-18 -12t-8.5 -8.5q0 -2 5 -2q6 0 22 3.5t18 3.5q6 0 6 -5q0 -9 -12 -9q-2 0 -13 1.5t-17 1.5q-8 0 -10 -2q-1 -1 -1 -2q0 -3 10.5 -13t10.5 -14z" />
    <glyph glyph-name="plus" unicode="+" horiz-adv-x="537" 
d="M120 333q0 5 17 8q40 10 153 10q42 0 92 -3q84 109 95 121q35 39 70 64q11 8 17 8l4 -2q-17 -12 -73 -76q-8 -9 -92 -116q133 -7 145 -7q74 0 107 8q2 0 2 -2q0 -4 -10 -7q-28 -9 -100 -9q-15 0 -38 1.5t-57 3.5t-56 3q-38 -48 -65 -78q-76 -85 -111 -104q-13 -8 -19 -8
q-2 0 -2 2l1 2q35 25 115 115q26 28 60 73q-45 3 -87 3q-53 0 -94.5 -3t-55.5 -6l-15 -3q-3 -1 -3 2z" />
    <glyph glyph-name="comma" unicode="," horiz-adv-x="236" 
d="M159 1q0 2 -2 2q-1 0 -5 -2t-8 -2q-11 0 -11 10q0 11 10.5 22.5t23.5 11.5t13 -13q0 -22 -21.5 -47t-40.5 -25l-5 3q1 1 3 1q17 3 30 17.5t13 21.5z" />
    <glyph glyph-name="hyphen" unicode="-" horiz-adv-x="642" 
d="M181 134q0 2 2.5 3.5t5.5 2.5l3 1l3 3q20 8 108 8q41 0 96.5 -3t76.5 -3q65 0 95 8q2 0 2 -2q0 -4 -16 -9q-19 -7 -83 -7q-21 0 -76 4t-96 4q-48 0 -77.5 -3t-34.5 -6l-6 -3q-3 0 -3 2z" />
    <glyph glyph-name="period" unicode="." horiz-adv-x="217" 
d="M148 42q13 0 13 -13q0 -12 -12.5 -23t-24.5 -11q-11 0 -11 11t11.5 23.5t23.5 12.5z" />
    <glyph glyph-name="slash" unicode="/" horiz-adv-x="517" 
d="M-152 -66v1l4 7q78 40 266 180l649 488q98 72 150 102q26 14 28 14t2 -1l1 -1q0 -4 -9 -8q-57 -31 -164 -112q-24 -18 -300.5 -226t-354.5 -265q-92 -67 -154 -109.5t-78 -51.5l-16 -9q-18 -9 -23 -9h-1z" />
    <glyph glyph-name="zero" unicode="0" horiz-adv-x="814" 
d="M728 485q0 11 -9 11q-34 0 -72 -44t-46 -109q54 31 90.5 71t36.5 71zM464 300q50 0 116 32q4 66 56 122t100 56q12 0 12 -12q0 -34 -43 -82.5t-105 -82.5v-17q0 -11 2.5 -21.5t5.5 -15.5l2 -5q3 -4 -2 -4q-28 11 -28 52v1q-62 -30 -119 -30q-71 0 -71 77q0 39 18 80.5
t36 63.5l19 22l-4 5q-41 -9 -92.5 -46.5t-98 -92t-78.5 -129.5t-32 -150q0 -67 32 -107t115 -40q90 0 196 57.5t192.5 143t144.5 191t58 195.5q0 42 -10 70.5t-28.5 41t-36 17t-41.5 4.5q-69 0 -138.5 -35.5t-119 -87.5t-81 -109.5t-31.5 -102.5q0 -61 54 -61zM778 703
q146 0 146 -146q0 -126 -99.5 -265.5t-246 -231.5t-276.5 -92q-49 0 -85 16t-52.5 36t-26 47.5t-10.5 38.5t-1 22q0 134 108 265t247 165q6 6 16 15.5t42 34.5t65 44.5t80.5 35t92.5 15.5z" />
    <glyph glyph-name="one" unicode="1" horiz-adv-x="568" 
d="M29 -24q82 0 171 60q-14 1 -29 1q-62 0 -107 -10.5t-60.5 -21t-15.5 -16.5q0 -13 41 -13zM343 -10q-1 -4 -3 -4q-32 39 -122 48q-104 -65 -199 -65q-20 0 -41 5.5t-21 18.5q0 10 19.5 21t71 20.5t123.5 9.5q15 0 39 -2q56 40 119.5 108t122 141t119.5 146.5t131.5 141
t138.5 108.5q3 1 3 3l-8 2q-119 -22 -233.5 -77t-189.5 -135q-14 -15 -25 -32.5t-15 -27t-5 -9.5q-6 0 -6 18q0 50 81 109.5t201 106t232 62.5q18 9 26 9q6 -4 0 -6q-46 -16 -100.5 -62t-104.5 -104t-109.5 -130t-114 -138t-120.5 -130.5t-126 -104.5q53 -6 84.5 -21
t31.5 -30z" />
    <glyph glyph-name="two" unicode="2" horiz-adv-x="755" 
d="M705 556q0 10 -10 10q-31 0 -75.5 -40t-62.5 -87q59 25 103.5 60.5t44.5 56.5zM948 620q0 -75 -74 -141t-190.5 -118.5t-239 -101.5t-241.5 -110.5t-177 -123.5q-2 -2 -2 -3t2 -1q3 0 27 2.5t35 2.5q61 0 141.5 -16t166.5 -16q47 0 92 19.5t66 36.5t36 34q89 97 89 142
q0 9 2 9q11 0 11 -18q0 -22 -43 -77.5t-86 -99.5l-43 -45q-23 -12 -83 -12q-45 0 -158 10t-159 10q-35 0 -62.5 -2.5t-41.5 -5.5t-23 -6.5t-13 -6t-5 -2.5q-3 0 -3 3t4.5 9.5t9.5 11.5l5 5q73 73 199.5 143.5t247 122.5t233 105.5t182 115t69.5 127.5q0 46 -38 63.5
t-107 17.5q-84 0 -161.5 -25.5t-127.5 -63.5t-79.5 -80t-29.5 -77q0 -46 56 -46q52 0 104 20q16 53 74.5 100.5t97.5 47.5q15 0 15 -10q0 -28 -52 -70t-120 -69q-5 -20 -5 -34l3 -24q2 -8 1 -8q-2 0 -6 3t-8.5 12t-4.5 22q0 6 2 22q-57 -20 -102 -20q-39 0 -60 17t-21 44
q0 36 34.5 79t90.5 80.5t137.5 62.5t166.5 25q76 0 121 -26t45 -66z" />
    <glyph glyph-name="three" unicode="3" horiz-adv-x="678" 
d="M314 118q26 0 62 28.5t58 70.5q-49 -5 -90 -37t-41 -55q0 -7 11 -7zM548 420l4 -3q24 -4 45.5 -11t44 -21t36 -39.5t13.5 -58.5q0 -46 -33 -100.5t-90 -103.5t-144 -81.5t-184 -32.5q-82 0 -132 32.5t-50 91.5q0 64 52 129.5t128.5 106t145.5 40.5q93 0 93 -66
q0 -36 -25 -78q51 -1 51 -18q0 -6 -4 -6l-2 2q-10 15 -48 15h-1q-29 -47 -73 -81t-84 -34q-16 0 -16 11q0 30 53 68t110 42q19 38 19 79q0 58 -80 58q-39 0 -88 -19t-95.5 -52t-78 -86t-31.5 -113q0 -115 164 -115q98 0 194 42.5t159 118.5t63 163q0 42 -23.5 68t-51.5 33
t-51.5 11t-23.5 7q0 10 19 10q118 0 214 60.5t96 131.5q0 73 -143 73q-159 0 -237 -78q-11 -11 -17 -21.5t-7.5 -15.5t-3.5 -5q-3 0 -7.5 3.5t-4.5 10.5q0 20 31 45.5t97 46.5t146 21q89 0 131.5 -23.5t42.5 -58.5q0 -48 -50.5 -93t-122 -72t-138.5 -31q-12 -1 -12 -3z" />
    <glyph glyph-name="four" unicode="4" horiz-adv-x="717" 
d="M139 271q-2 -2 -2 -4q0 -4 5 -4q20 4 61 4q62 0 134.5 -13t122.5 -16q96 115 172 199q-38 1 -69 12.5t-31 33.5q0 4 2 4q1 0 3 -2q2 -4 8 -10.5t32 -18t62 -12.5q109 117 171 153q8 5 13 5q4 0 4 -4q0 -2 -3 -3t-10 -4t-14 -8q-50 -32 -143 -139q73 3 145 35.5
t117.5 81.5t45.5 95q0 52 -80 52q-87 0 -222 -58t-279 -160.5t-245 -218.5zM260 -21q-13 0 -13 5q0 2 3 5q17 17 44 49t80.5 97t79.5 96q-190 13 -213 13q-54 0 -90 -5t-50.5 -9.5t-15.5 -4.5q-5 0 -5 6q0 15 31 46q95 95 230.5 193.5t289 172t256.5 73.5q102 0 102 -66
q0 -39 -46.5 -87t-127.5 -85.5t-164 -40.5q-62 -71 -163 -201h38q109 0 185 76q2 0 2 -2l-4 -10q-26 -44 -54 -60q-25 -14 -93 -14q-38 0 -80 3q-165 -212 -185 -232q-16 -18 -37 -18z" />
    <glyph glyph-name="five" unicode="5" horiz-adv-x="678" 
d="M334 146l2 -6l9 -2q27 0 63.5 27t50.5 72q-46 -10 -85.5 -38t-39.5 -53zM978 735q0 -16 -40 -34.5t-123.5 -33t-184.5 -14.5q-13 0 -28.5 1t-35 2.5t-30.5 2.5l-15 -4q-21 -16 -87.5 -94t-66.5 -89q0 -2 2 -2l7 2q53 24 140 24t136 -34t49 -104q0 -39 -20.5 -88
t-61.5 -100t-95 -93.5t-129 -69.5t-156 -27q-174 0 -174 112q0 63 48.5 124.5t123 99.5t147.5 38q105 0 105 -66q0 -19 -8 -40h8q51 0 51 -14l-4 -2q-15 9 -45 9q-9 0 -13 -1q-20 -47 -67 -81t-87 -34q-15 0 -15 12q0 27 49.5 62.5t102.5 45.5q4 15 4 34q0 5 -0.5 10
t-5.5 16.5t-13 19.5t-26 14.5t-43 6.5q-38 0 -85 -16.5t-92.5 -46.5t-76.5 -80.5t-31 -109.5q0 -105 157 -105q97 0 197 57.5t164 146.5t64 174q0 122 -158 122q-64 0 -112.5 -15.5t-64.5 -32.5q-4 -5 -8 -5q-4 1 -4 5q0 9 102 128t122 119q7 0 59 -6.5t101 -6.5
q190 0 240 50q6 6 10 11.5t5.5 7.5t2.5 2q9 0 9 -10z" />
    <glyph glyph-name="six" unicode="6" horiz-adv-x="636" 
d="M479 288q-30 0 -70.5 -35.5t-59.5 -82.5q58 10 99 46t41 63q0 9 -10 9zM679 365q0 107 -102 107q-121 0 -215.5 -82.5t-94.5 -171.5q0 -27 14 -39t35 -12h17q20 52 72.5 94t89.5 42q14 0 14 -15q0 -33 -49.5 -74.5t-113.5 -52.5q-8 -26 -8 -47q0 -9 0.5 -14.5t0.5 -7.5
t0.5 -3.5t0.5 -2.5l-1 -3q-2 0 -5 3.5t-6.5 13.5t-3.5 23q0 17 6 35h-16q-31 0 -51.5 14.5t-20.5 47.5q0 51 45.5 111.5t124.5 104.5t161 44q59 0 96 -28.5t37 -85.5q0 -61 -39 -131.5t-101 -129.5t-148.5 -98t-173.5 -39q-69 0 -118.5 36t-49.5 114q0 67 35 147.5
t100 157.5t147.5 141t186 103t207.5 39q38 0 70.5 -9t46.5 -23q10 -10 10 -23q0 -19 -8 -19q-4 0 -10 13q-1 2 -3 5.5t-11.5 12.5t-21.5 16t-34.5 12.5t-49.5 5.5q-92 0 -188 -39.5t-174 -104.5t-141 -142.5t-97.5 -158t-34.5 -146.5q0 -59 35 -94.5t109 -35.5
q68 0 134.5 26.5t118.5 69.5t92.5 94.5t62 103.5t21.5 95z" />
    <glyph glyph-name="seven" unicode="7" horiz-adv-x="416" 
d="M757 691q0 -29 -39.5 -73.5t-103 -96t-140.5 -110t-154 -124t-140.5 -130t-103 -135t-39.5 -133.5l5 -29l2 -10q-7 0 -12 15.5t-5 24.5q0 76 38 152.5t99 140t134.5 124t147.5 111t135 93.5t99 80t38 62q0 4 -5 4q-1 0 -9 -1.5t-24.5 -2.5t-38.5 -1q-32 0 -112 14.5
t-140 14.5q-33 0 -69.5 -13t-64 -32t-50.5 -38t-35 -32l-13 -13l-3 -2q-2 0 -2 4q0 8 44 61t57 62q19 12 89 12q51 0 145 -6.5t137 -6.5q21 0 42 2t35.5 4.5t26 4.5t18 4t7.5 2q4 0 4 -3z" />
    <glyph glyph-name="eight" unicode="8" horiz-adv-x="691" 
d="M320 143q0 -9 11 -9q30 0 75.5 36t62.5 91q-58 -10 -103.5 -46.5t-45.5 -71.5zM562 424q26 3 77.5 19.5t109 42t100 62.5t42.5 73q0 29 -25 46.5t-54.5 23t-63.5 5.5q-129 0 -209 -44t-80 -102q0 -19 15 -42t29.5 -37t46.5 -44q7 -3 12 -3zM572 410q50 -46 78.5 -86
t28.5 -85q0 -68 -61 -130t-154.5 -98t-187.5 -36q-104 0 -157 42t-53 106q0 108 103.5 188.5t214.5 80.5q52 0 82 -20.5t30 -60.5q0 -21 -6 -40q4 1 12 1q45 0 45 -12q0 -2 -2 -2l-13 3q-14 3 -28 3q-11 0 -17 -1q-20 -58 -77.5 -101.5t-98.5 -43.5q-15 1 -15 12
q0 39 55.5 83.5t120.5 55.5q5 22 5 43q0 33 -23.5 53t-72.5 20q-105 0 -198 -75.5t-93 -187.5q0 -58 42.5 -99.5t144.5 -41.5q59 0 123 18t120 49t92 81t36 107q0 33 -22.5 69.5t-54.5 67.5t-64 59.5t-54.5 56.5t-22.5 50q0 63 88 113.5t229 50.5q77 0 125 -22t48 -56
q0 -56 -108 -117.5t-236 -89.5q-6 -1 -6 -4q0 -2 2 -4z" />
    <glyph glyph-name="nine" unicode="9" horiz-adv-x="632" 
d="M389 427q0 -9 11 -9q25 0 60 40.5t38 92.5q-47 -21 -78 -57.5t-31 -66.5zM163 -11q85 0 174 38.5t162 101.5t132 139t92 157t33 150q0 56 -34.5 91.5t-107.5 35.5q-84 0 -159 -33t-123 -83t-76 -108t-28 -110q0 -102 102 -102q114 0 211 77.5t97 173.5q0 55 -51 55
q-39 0 -77 -16v-1q0 -53 -47 -104t-82 -51q-15 0 -15 12q0 33 38.5 78t93.5 69l-4 36q-2 5 0 5q1 0 4 -3q10 -12 11 -33q42 15 79 15q33 0 52.5 -15t19.5 -42q0 -56 -46 -117t-124.5 -103.5t-159.5 -42.5q-59 0 -94.5 28t-35.5 85q0 56 32 116t85.5 109.5t133.5 81t168 31.5
q68 0 116.5 -37t48.5 -109q0 -68 -33 -147.5t-94 -156t-138 -139.5t-174 -101.5t-194 -38.5q-151 0 -151 112q0 24 10.5 41.5t23.5 17.5q1 0 1 -2q0 -1 -3.5 -7.5t-6.5 -21.5t-3 -34q0 -98 141 -98z" />
    <glyph glyph-name="colon" unicode=":" horiz-adv-x="311" 
d="M314 245q13 0 13 -13q0 -12 -12 -23t-24 -11t-12 11q0 12 11.5 24t23.5 12zM148 42q13 0 13 -13q0 -12 -12.5 -23t-24.5 -11q-11 0 -11 11t11.5 23.5t23.5 12.5z" />
    <glyph glyph-name="semicolon" unicode=";" horiz-adv-x="335" 
d="M159 1q0 2 -2 2q-1 0 -5 -2t-8 -2q-11 0 -11 10q0 11 10.5 22.5t23.5 11.5t13 -13q0 -22 -21.5 -47t-40.5 -25l-5 3q1 1 3 1q17 3 30 17.5t13 21.5zM343 245q12 0 12 -13q0 -12 -12 -23t-24 -11q-5 0 -8 3t-3 6l-1 3q0 11 12 23t24 12z" />
    <glyph glyph-name="less" unicode="&#x3c;" horiz-adv-x="520" 
d="M187 282q68 -16 189.5 -62t144.5 -67q1 -1 1 -3q0 -1 -2 -1q-6 0 -18 9q-88 45 -185.5 72t-146 36.5t-48.5 19.5q0 22 265.5 111.5t308.5 89.5q7 1 7 -4q0 -1 -18 -5q-90 -16 -301 -93.5t-211 -94.5q0 -4 14 -8z" />
    <glyph glyph-name="equal" unicode="=" horiz-adv-x="604" 
d="M223 383q0 2 2.5 3.5t5.5 2.5l3 1q23 11 141 11q41 0 126.5 -5.5t106.5 -5.5q65 0 95 8q2 0 2 -2q0 -4 -16 -9q-19 -7 -83 -7q-21 0 -106 6.5t-126 6.5q-48 0 -85 -3t-50 -6l-13 -3q-3 0 -3 2zM138 284q0 2 3 3.5l5 2.5l3 1q23 11 141 11q41 0 126.5 -5.5t106.5 -5.5
q65 0 95 8q2 0 2 -2q0 -4 -16 -9q-19 -7 -83 -7q-21 0 -106 6.5t-126 6.5q-48 0 -85 -3t-50 -6l-13 -3q-3 0 -3 2z" />
    <glyph glyph-name="greater" unicode="&#x3e;" horiz-adv-x="628" 
d="M681 305q0 18 -67.5 60.5t-148.5 79.5t-120 43q-8 2 -8 4q0 3 4 3q32 0 125 -40.5t172.5 -87.5t79.5 -63q0 -20 -92.5 -42.5t-244.5 -53.5t-239 -60q-4 -1 -6 -1t-2 1q0 3 13 9q51 18 189.5 50.5t241.5 59t103 38.5z" />
    <glyph glyph-name="question" unicode="?" horiz-adv-x="640" 
d="M165 2q-11 0 -11 10q0 12 11.5 22t22.5 10q10 0 10 -12q0 -10 -11 -20t-22 -10zM641 559q0 10 -10 10q-31 0 -75.5 -37t-60.5 -83q61 14 103.5 48.5t42.5 61.5zM434 442q27 0 48 4q15 49 70.5 92t93.5 43q15 0 15 -10q0 -34 -50 -74.5t-118 -55.5q-4 -12 -4 -28
q0 -7 0.5 -14.5t0.5 -10.5q0 -2 -1 -2t-3.5 2.5t-5 11t-2.5 20.5q0 7 2 19q-20 -4 -47 -4q-43 0 -76.5 15t-33.5 51q0 63 96 126t234 63q49 0 92 -9.5t76.5 -36t33.5 -67.5q0 -42 -30 -80.5t-86.5 -71.5t-111 -58t-127.5 -55q-7 -3 -11 -4q-158 -66 -214 -179q-2 -8 -7 -8
q-7 2 -7 15q0 35 73.5 91t171.5 96q320 131 320 255q0 53 -44.5 78.5t-145.5 25.5q-108 0 -199 -58t-91 -129q0 -53 88 -53z" />
    <glyph glyph-name="at" unicode="@" horiz-adv-x="1021" 
d="M549 -29q0 16 3 32.5t9 32t12 28.5t15 27t14.5 21.5t13.5 18.5t9 13q3 4 1 4l-4 -2q-35 -35 -106.5 -82t-124.5 -47q-50 0 -50 43q0 38 35 73q40 40 108.5 66.5t125.5 36.5t99.5 28.5t42.5 45.5q0 41 -84 41q-81 0 -120 -46q-3 -3 -5 -7q-2 -3 -4 -3q-7 0 -7 7
q0 18 42 36.5t90 18.5q56 0 83 -13.5t27 -32.5q0 -23 -27.5 -39t-72 -27t-93 -22.5t-98 -33t-79.5 -51.5q-38 -38 -38 -81q0 -14 8.5 -22.5t23.5 -8.5q100 0 287 187q10 10 28 10q7 0 7 -3l-2 -3q-63 -64 -105 -131t-42 -116q0 -37 20 -52.5t44 -15.5q88 0 177.5 71t145 172
t55.5 190q0 47 -14.5 83t-38 58.5t-57 37t-68.5 20t-75 5.5q-118 0 -238.5 -55t-208.5 -136.5t-144 -177t-56 -175.5t38 -114.5t111 -34.5q50 0 98.5 20.5t69 37t29.5 27.5q3 3 4 3l3 -5q0 -6 -9 -16.5t-28 -23.5t-42.5 -24.5t-57 -19t-68.5 -7.5q-77 0 -124.5 40t-47.5 121
q0 92 62 191.5t157 177.5t216.5 128.5t234.5 50.5q124 0 201.5 -53t77.5 -159q0 -77 -40 -158t-99.5 -142.5t-132 -101t-134.5 -39.5q-30 0 -56.5 17.5t-26.5 59.5z" />
    <glyph glyph-name="A" unicode="A" horiz-adv-x="1136" 
d="M355 148q32 0 102.5 62t96.5 132q-94 -41 -151.5 -94t-57.5 -93q0 -7 10 -7zM870 414q51 0 151 -5q108 157 233 292q2 3 2 6q-4 3 -13 3q-81 0 -175 -75.5t-229 -221.5q5 0 15 0.5t16 0.5zM160 -77q60 0 128.5 29t116 58.5t129.5 106t113 109t121 129.5q31 33 46 49
q-126 -9 -237 -52q-31 -70 -112.5 -145t-131.5 -75q-16 0 -16 14q0 37 67 99t173 107q8 24 8 45q0 63 -72 63q-56 0 -120 -18.5t-125.5 -56t-111.5 -87.5t-81 -118.5t-31 -143.5q0 -49 31.5 -81t104.5 -32zM847 36q0 123 169 367q-120 3 -149 3q-6 0 -18 -0.5t-18 -0.5
q-174 -188 -238 -250q-219 -209 -386 -236q-27 -4 -53 -4q-154 0 -154 115q0 107 74.5 210t190 165.5t231.5 62.5q93 0 93 -72q0 -13 -7 -34q114 43 240 50q67 72 115.5 119t106 94.5t109.5 70.5t99 23q12 -1 16 -2q80 86 106 86q1 -1 1 -3q0 -3 -3 -6q-62 -60 -151.5 -167
t-166.5 -219h29q111 0 185 43q3 2 5 2t2 -2q-52 -50 -179 -50h-46q-175 -254 -175 -375q0 -53 35 -86.5t100 -33.5q104 0 182 62l5 4q1 -1 1 -2q0 -6 -20.5 -22t-65.5 -33t-95 -17q-85 0 -127.5 39.5t-42.5 98.5z" />
    <glyph glyph-name="B" unicode="B" horiz-adv-x="1017" 
d="M875 624q-46 0 -172 -155q73 27 125 71t52 79q0 5 -5 5zM233 -58q101 95 328 379q-169 -17 -288.5 -99t-119.5 -181q0 -66 80 -99zM907 634q0 -35 -63.5 -91t-149.5 -86q-8 -10 -97 -125q7 0 20 0.5t19 0.5q86 0 117 -23q10 -9 10 -18q-1 -5 -3 -5t-4 3q-3 5 -11.5 11.5
t-38 15t-70.5 8.5q-16 0 -46 -2q-68 -89 -111 -142.5t-107.5 -126.5t-118.5 -120q65 -20 163 -20q142 0 273 47t211.5 124.5t80.5 161.5q0 28 -14.5 51t-35 38t-53 27t-58 18t-60.5 13q-7 0 -7 5q0 6 17 10q49 12 97.5 28t109 42.5t98 62.5t37.5 75q0 28 -19.5 48.5
t-53.5 30.5t-70 14.5t-78 4.5q-179 0 -310 -65t-131 -141q0 -66 126 -66q47 0 100 16q157 183 222 183q9 0 9 -8zM1011 240q0 -39 -29 -84.5t-84 -89.5t-126 -80t-165.5 -58t-192.5 -22q-96 0 -170 20q-126 -109 -220 -109q-23 0 -23 9q0 3 2 3t4 -1q10 -4 27 -4
q73 0 189 108q-99 36 -99 108q0 71 63.5 134.5t164.5 104t216 51.5l98 118q-50 -13 -96 -13q-148 0 -148 74q0 31 35.5 68t94.5 69.5t149 54t187 21.5q126 0 190.5 -30.5t64.5 -72.5q0 -37 -44.5 -75.5t-108.5 -66t-116 -45.5t-86 -26q-9 -4 -10 -5q0 -4 8 -4
q225 -49 225 -157z" />
    <glyph glyph-name="C" unicode="C" horiz-adv-x="722" 
d="M702 526q0 -10 8 -10q30 0 79 48.5t49 95.5q0 28 -39 40q-41 -46 -69 -95.5t-28 -78.5zM732 291q0 46 -55 46q-80 0 -173.5 -58t-165 -153.5t-86.5 -194.5q87 10 177 52.5t155 96.5t106.5 111.5t41.5 99.5zM31 106q0 -79 40.5 -128.5t131.5 -49.5q4 0 12 0.5t12 0.5
q15 95 91.5 193.5t177 160.5t182.5 62q41 0 58.5 -13t17.5 -41q0 -72 -79 -154.5t-197 -142.5t-227 -73q-2 -11 -2 -35q0 -64 27 -97t90 -33q87 0 143 40l9 6q1 0 1 -1q0 -9 -20 -21.5t-57 -22t-77 -9.5q-78 0 -109.5 36t-31.5 104q0 21 2 31q-4 0 -11.5 -0.5t-10.5 -0.5
q-204 0 -204 186q0 96 61 204.5t158.5 199t233.5 150t274 59.5q38 0 70 -8q89 94 134 94q12 0 12 -7q0 -3 -6 -3q-52 0 -131 -86q57 -15 57 -47q0 -41 -68 -101.5t-114 -60.5q-11 0 -11 10q0 28 35.5 84t85.5 110q-28 7 -68 7q-130 0 -259.5 -59t-222.5 -148t-151.5 -195.5
t-58.5 -200.5z" />
    <glyph glyph-name="D" unicode="D" horiz-adv-x="1029" 
d="M144 -21q-40 0 -73 -11.5t-33 -22.5q0 -19 65 -19q79 0 158 41q-69 12 -117 12zM655 708q-104 0 -172 -44t-68 -124q0 -87 41.5 -160.5t110.5 -124.5q11 13 65 80t77.5 95t67.5 77.5t82 87.5q27 28 62 56q-107 57 -266 57zM1066 419q0 150 -132 225q-49 -46 -105 -112
t-127 -155t-113 -138q100 -64 203 -64q10 0 20 2t16 4l5 2q6 2 6 0q0 -3 -6 -7.5t-19.5 -8.5t-31.5 -4q-92 0 -198 70q-165 -193 -297 -263q134 -23 206 -23q106 0 212 42.5t184.5 109t127.5 152t49 168.5zM389 546q0 28 10 54t36 54t81 45t134 17q164 0 279 -58
q59 48 116.5 80.5t92.5 32.5q20 0 20 -9q-1 -2 -6 -2q-93 0 -211 -108q153 -82 153 -233q0 -87 -50 -174t-132 -154.5t-193.5 -109.5t-227.5 -42q-70 0 -215 25q-90 -45 -174 -45q-36 0 -69 8t-33 23q0 14 40.5 26t91.5 12q50 0 139 -16q71 38 139 105.5t152 171.5
q-77 56 -125 133t-48 164z" />
    <glyph glyph-name="E" unicode="E" horiz-adv-x="790" 
d="M859 567q0 -7 9 -7q29 0 72 32.5t43 67.5q0 20 -25 35q-42 -32 -70.5 -68.5t-28.5 -59.5zM262 -72q87 0 179 29.5t160.5 73.5t112.5 97t44 97q0 51 -73 51q-52 0 -123 -25.5t-141.5 -69t-130.5 -110t-85 -140.5q29 -3 57 -3zM327 -284q56 0 111.5 17t85 33.5t37.5 26.5
q3 3 4 3l1 -3q0 -13 -32.5 -33t-92.5 -36t-123 -16q-82 0 -119 35.5t-37 86.5q0 50 18 96q-78 11 -129 47.5t-51 101.5q0 93 83.5 168t213.5 116.5t284 50.5q30 1 30 9q0 7 -9 10q-13 7 -74.5 29t-99 46t-37.5 53q0 38 51 78t143 68t195 28q123 0 181 -25q71 55 110 55
q15 0 15 -6q0 -3 -6 -3q-44 0 -112 -49q35 -17 35 -45q0 -31 -58.5 -72.5t-105.5 -41.5q-10 0 -10 9q0 20 36.5 63t85.5 83q-52 25 -173 25q-88 0 -170.5 -23.5t-133.5 -63t-51 -83.5q0 -29 33 -52.5t73 -35.5t73 -26t33 -25q0 -10 -63 -13q-145 -10 -266 -49t-199.5 -111.5
t-78.5 -165.5q0 -116 155 -142q37 92 128.5 175t194 129t181.5 46q94 0 94 -60q0 -42 -42.5 -94t-112 -98.5t-171 -78.5t-206.5 -32q-16 0 -46 2q-15 -45 -15 -94q0 -50 32 -81.5t107 -31.5z" />
    <glyph glyph-name="F" unicode="F" horiz-adv-x="866" 
d="M1040 448q0 6 -8 6q-26 0 -62 -25t-61 -62q55 10 93 36t38 45zM338 191q0 -4 2.5 -6t5.5 -3h2q40 0 106.5 51.5t91.5 113.5q-93 -22 -150.5 -69.5t-57.5 -86.5zM1141 607q-67 0 -140.5 18.5t-127 41t-123 41t-129.5 18.5q-73 0 -133 -21.5t-93.5 -54t-51 -65t-17.5 -59.5
v-9t0.5 -5.5t0.5 -2.5v-2l-3 -2q-3 0 -6.5 3t-7 13t-3.5 24q0 64 87.5 126.5t227.5 62.5q86 0 183.5 -27t194.5 -54t183 -27q68 0 121 36.5t65 77.5q1 3 4 3q4 -3 4 -13q0 -17 -28.5 -45t-86 -53t-121.5 -25zM666 361q-51 0 -103 -10q-32 -70 -112 -129.5t-129 -59.5
q-15 0 -15 13q0 14 13.5 36.5t39.5 50t76.5 54t113.5 40.5q7 25 7 43q0 38 -23 57t-60 19q-87 0 -171.5 -40.5t-145 -102.5t-97.5 -137t-37 -143q0 -58 34 -90t89 -32q39 0 75 6.5t71 23t64 32t64 46t58 51.5t59.5 62.5t56.5 64.5t60.5 72t60.5 72q-7 0 -23.5 0.5t-25.5 0.5
zM1062 457q0 -28 -47.5 -57.5t-110.5 -40.5q-26 -41 -26 -82q0 -3 -2 -3q-6 0 -6 19q0 31 22 64q-14 -2 -40 -2q-40 0 -110 4q-42 -56 -65.5 -86t-69 -83.5t-78 -84.5t-81.5 -70t-92.5 -60.5t-97.5 -36.5t-109 -15q-72 0 -110.5 36t-38.5 104q0 64 41 138t105.5 136.5
t153 104t174.5 41.5q104 0 104 -68q0 -28 -12 -55q67 12 131 12q4 0 13.5 -0.5t14.5 -0.5q80 93 138 151q38 38 68 57.5t42 19.5q11 0 11 -5q0 -1 -2 -2t-8.5 -2.5t-13.5 -4.5q-30 -12 -67.5 -47t-65 -69t-77.5 -100q70 -7 104 -7q22 0 43 3q28 41 72 71t79 30q14 0 14 -9z
" />
    <glyph glyph-name="G" unicode="G" horiz-adv-x="991" 
d="M944 548q0 -8 9 -8q26 0 66.5 42t40.5 82q0 18 -8 29q-44 -33 -76 -75.5t-32 -69.5zM194 -267q90 0 172 28.5t147.5 76.5t125 106.5t114 123.5t104 123t105.5 109t109 78q9 4 9 5q0 7 -34 7q-116 0 -355.5 -60t-327.5 -70q-24 -59 -24 -99q0 -48 25 -70t63 -22
q108 0 240.5 86t165.5 148q5 10 8 10t3 -9q0 -17 -41.5 -56.5t-101.5 -81.5t-138.5 -74t-142.5 -32q-50 0 -80.5 26.5t-30.5 78.5q0 41 20 92q-18 -2 -53 -2q-106 0 -152.5 34.5t-46.5 87.5q0 85 68.5 165.5t170.5 129t201 48.5q45 0 72 -11.5t27 -27.5q0 -8 -3 -8
q-1 0 -4 4t-9.5 9.5t-17 11t-30.5 9.5t-45 4q-46 0 -100 -14.5t-107.5 -44t-97 -68.5t-71 -92.5t-27.5 -111.5q0 -53 41.5 -85.5t129.5 -32.5q19 0 57 2q32 76 100 157.5t155.5 149.5t194 112t203.5 44q49 0 76 -18q52 37 83 37q12 0 14 -7q0 -2 -6 -2q-36 0 -84 -33
q16 -14 16 -36q0 -37 -55.5 -90.5t-103.5 -53.5q-10 0 -10 9q0 25 41 76t92 90q-18 20 -63 20q-96 0 -197 -43.5t-182 -111.5t-144 -145.5t-95 -150.5q86 10 328 71t361 61q94 0 94 -27q0 -5 -3 -5q-2 0 -3 1q-13 10 -31 10q-33 0 -77.5 -36t-93.5 -93.5t-107 -127.5
t-128 -140t-146 -127.5t-171.5 -93.5t-194.5 -36q-95 0 -145 31.5t-50 92.5q0 58 40 108.5t95 77.5t107 27q13 0 13 -6q-5 -1 -6 -1q-33 0 -70 -12t-72 -35t-58 -65t-23 -94q0 -116 168 -116z" />
    <glyph glyph-name="H" unicode="H" horiz-adv-x="952" 
d="M872 732q0 11 -9 11q-35 0 -91.5 -56t-142.5 -163q102 54 172.5 115.5t70.5 92.5zM24 -59q0 -19 15 -19q30 0 69.5 24.5t74 57t87 95t85.5 106t93 122.5q-95 -41 -179 -101.5t-135 -116t-80.5 -101t-29.5 -67.5zM790 -182q52 0 99 17t68 34l21 17q8 8 9 8q2 0 2 -4
q0 -9 -27 -28t-80.5 -37t-110.5 -18q-130 0 -130 131q0 79 69 204t176 260q-26 1 -70 1q-169 0 -326 -59q-59 -76 -100.5 -128t-97 -114.5t-97.5 -100t-87 -63.5t-80 -26q-28 0 -28 26t33.5 75t90 106.5t146 117.5t187.5 101q98 129 113 148q-165 -74 -306 -74
q-83 0 -122.5 26.5t-39.5 70.5q0 69 56.5 137.5t143 111t169.5 42.5q37 0 59.5 -9t22.5 -22q0 -6 -3 -6q-1 0 -8 7t-27.5 14t-54.5 7q-48 0 -105.5 -20.5t-108.5 -55.5t-85.5 -89.5t-34.5 -113.5q0 -41 35.5 -66.5t106.5 -25.5q145 0 312 79q95 120 168.5 186.5t128.5 66.5
q16 0 16 -18q0 -29 -81.5 -98.5t-194.5 -126.5l-119 -155q155 57 314 57q42 0 79 -3q101 127 196 220.5t124 93.5q10 0 10 -5q0 -4 -7 -9q-44 -33 -126 -117.5t-165 -184.5q120 -12 120 -35q0 -5 -3 -5l-5 3q-34 23 -118 30q-268 -324 -268 -468q0 -54 36 -83.5t105 -29.5z
" />
    <glyph glyph-name="I" unicode="I" horiz-adv-x="790" 
d="M1228 746q0 3 -3 5t-5 3h-3q-70 0 -196 -115q50 1 100 21.5t78.5 45t28.5 40.5zM321 166q0 -10 12 -10q39 0 99.5 42.5t83.5 105.5q-70 -6 -132.5 -54t-62.5 -84zM169 -66q86 0 167.5 33.5t145 85.5t133.5 127.5t124 145.5t125.5 155.5t129.5 142.5l8 8
q-54 2 -128.5 26.5t-126.5 24.5q-78 0 -144.5 -49.5t-66.5 -112.5q0 -7 1 -12t1 -7l1 -3l-3 -4q-14 0 -14 28q0 56 76.5 117.5t165.5 61.5q52 0 124 -31t121 -32q55 51 117.5 90t103.5 39q21 0 21 -12q0 -18 -33.5 -47t-89.5 -53t-108 -24h-6l-4 -4q-33 -33 -89.5 -106.5
t-109 -147t-128 -156.5t-149.5 -145.5t-169.5 -104t-191.5 -41.5q-39 0 -75 9.5t-67 41t-31 80.5q0 67 41.5 136t105.5 122t146.5 86.5t160.5 33.5q48 0 73 -17.5t25 -46.5t-13 -60q25 -1 43 -8t18 -18q0 -6 -3 -6q-1 0 -3 3q-15 20 -58 22q-30 -64 -98 -112t-117 -48
q-26 0 -26 16q0 43 73.5 94t149.5 56q9 31 9 53q0 28 -19.5 46t-59.5 18q-48 0 -104 -16t-112 -48.5t-101 -76.5t-73.5 -105t-28.5 -128q0 -16 5 -33.5t18.5 -38.5t43.5 -34.5t73 -13.5z" />
    <glyph glyph-name="J" unicode="J" horiz-adv-x="935" 
d="M1214 754q-38 0 -96 -38t-100 -78q76 1 141.5 41t65.5 67q0 3 -2.5 5t-5.5 3h-3zM79 -205q53 0 108 17.5t103 45.5t100.5 73.5t95.5 89.5t94.5 105.5t89.5 110.5t88 115q10 14 15 20q-117 -1 -225.5 -29t-190 -72t-149.5 -99t-111 -111.5t-66.5 -107t-23.5 -87.5
q0 -24 9.5 -40t24.5 -22t23 -7.5t15 -1.5zM928 296q0 39 -30 56t-89 19q-48 -64 -86.5 -113t-93 -113t-101.5 -111t-105.5 -96t-112 -80t-113.5 -50.5t-117 -19.5q-23 0 -42.5 5t-38.5 26t-19 56q0 38 25.5 89.5t72 107.5t118.5 110.5t157 98t196.5 71t229.5 28.5
q128 163 212 244l7 6q-59 3 -131.5 29t-122.5 26q-77 0 -144 -49.5t-67 -114.5l1 -19v-2l1 -2l-2 -3q-14 0 -14 28q0 56 76.5 117.5t165.5 61.5q52 0 124.5 -31.5t120.5 -32.5q56 52 118 91t104 39q20 0 20 -12q0 -18 -33 -47.5t-89 -54t-107 -24.5h-9q-14 -14 -30 -32.5
t-37 -46.5t-37 -49t-45.5 -61t-45.5 -62q61 -3 100.5 -23.5t39.5 -59.5q0 -53 -53 -113t-125 -98.5t-127 -38.5q-16 0 -16 9q0 2 6 2h10q52 0 116 30.5t113 88t49 120.5z" />
    <glyph glyph-name="K" unicode="K" horiz-adv-x="892" 
d="M954 730q0 12 -11 12q-76 0 -237 -203q105 49 176.5 103.5t71.5 87.5zM25 -73q0 -26 27 -26q35 0 76.5 21.5t79.5 53t86.5 84.5t86 99.5t89.5 114.5q-100 -47 -174.5 -88t-138.5 -86t-98 -88.5t-34 -84.5zM932 -167q56 0 110 27q14 8 15 8q2 0 2 -3q0 -6 -16 -15.5
t-52.5 -18t-80.5 -8.5q-51 0 -88.5 16t-60.5 43.5t-36.5 71t-18.5 91t-5 111.5q0 147 25 233q-119 -52 -206 -92q-70 -90 -123 -152t-117.5 -125t-123.5 -95t-112 -32q-44 0 -44 33q0 42 36.5 87.5t107 92.5t149 88.5t187.5 92.5q169 219 171 221q-167 -67 -297 -67
q-170 0 -170 85q0 62 64 123.5t154 98.5t167 37q22 0 22 -8q0 -3 -16 -3h-23q-67 0 -146.5 -32.5t-139 -91.5t-59.5 -122q0 -79 150 -79q133 0 304 71q94 113 169 174.5t139 61.5q4 0 9 -4t5 -10q0 -34 -84.5 -98.5t-203.5 -117.5q-29 -37 -87 -113t-79 -103
q37 17 106.5 47.5t93.5 41.5q15 42 31 42q8 0 8 -9v-2l-2 -6q-3 -6 -4 -10q220 98 356 170t204 140q3 2 6 5.5t5 5.5t3 2q3 0 3 -7q0 -17 -19 -36q-30 -30 -82.5 -63t-145 -77t-148.5 -69t-186 -82q-45 -143 -45 -305q0 -60 9.5 -105t32.5 -83t67.5 -57.5t109.5 -19.5z" />
    <glyph glyph-name="L" unicode="L" horiz-adv-x="1105" 
d="M104 -82q102 0 200 61q-62 9 -140 9q-39 0 -71.5 -7.5t-49 -17.5t-16.5 -19q0 -12 22.5 -19t54.5 -7zM1185 714q-53 0 -110.5 -26t-98.5 -53.5t-107 -96.5t-93.5 -101t-100.5 -122l-3 -3t-2.5 -3t-3 -3.5t-2.5 -3.5q119 23 228.5 72.5t180.5 104.5t113.5 107.5t42.5 88.5
q0 19 -15 29t-29 10zM1122 247q0 27 -19.5 39.5t-45.5 12.5q-88 0 -186.5 -57t-171.5 -137t-111 -160q56 -8 114 -8q92 0 191 47.5t164 120.5t65 142zM339 -13q51 -6 127 -21t98 -18q37 84 121 167.5t186 137.5t186 54q90 0 90 -54q0 -44 -39 -100.5t-100 -105.5t-144.5 -83
t-162.5 -34q-60 0 -117 5q-22 -52 -22 -89q0 -17 2 -31t4 -22.5t7 -16.5t7 -10.5t8 -7.5l6 -6q3 -3 3 -5l-4 -2q-8 0 -19.5 11t-22.5 37t-11 58q0 43 18 86q-52 6 -130.5 21t-106.5 19q-111 -66 -220 -66q-103 0 -103 34q0 10 17.5 21t59 20.5t96.5 9.5q87 0 147 -7
q47 31 101 84t90 94t101 119q-74 -11 -141 -11q-224 0 -224 121q0 77 72.5 150t172.5 114t188 41q85 0 85 -28q0 -7 -3 -7t-9 6.5t-26 13t-56 6.5q-80 0 -171 -37.5t-158.5 -108t-67.5 -150.5q0 -60 48 -86.5t145 -26.5q75 0 152 11q134 162 221 249q79 79 173.5 129
t158.5 50q72 0 72 -54q0 -64 -82.5 -140.5t-219.5 -141t-285 -93.5q-93 -110 -166.5 -183.5t-151.5 -122.5z" />
    <glyph glyph-name="M" unicode="M" horiz-adv-x="1325" 
d="M418 277q0 -11 12 -11q30 0 82 55.5t59 123.5q-62 -28 -107.5 -78t-45.5 -90zM1430 -128q0 -2 -2 -4.5t-4 -3.5l-3 -2q-66 -46 -155 -46q-84 0 -125.5 39t-41.5 98q0 83 53.5 188.5t129.5 200t151.5 179t129 146t53.5 80.5q0 16 -15 16q-46 0 -134 -66t-184 -159.5
t-189.5 -187.5t-170 -160t-106.5 -66q-23 0 -23 21q0 46 53 130t116.5 160t116.5 148.5t53 98.5q0 16 -13 16q-34 0 -88 -42t-117.5 -109t-136.5 -148t-154.5 -162t-162 -148t-168.5 -109t-166 -42q-127 0 -127 119q0 76 48.5 162.5t121 155.5t163 114.5t168.5 45.5
q43 0 68 -19.5t26 -51.5q28 10 47 10q12 0 12 -7q-11 -1 -15 -2q-20 -3 -45 -11q-5 -58 -68 -129.5t-117 -71.5q-15 1 -15 14q0 44 56 100.5t122 86.5v7q0 66 -80 66q-70 0 -152.5 -44t-150 -111t-113 -154t-45.5 -167q0 -105 101 -105q82 0 182 56.5t190 140.5t185.5 183
t172.5 183t147.5 140.5t112.5 56.5q27 0 27 -26q0 -31 -53.5 -111.5t-117.5 -161t-117.5 -158t-53.5 -104.5q0 -14 11 -14q26 0 100 66t167.5 160t190.5 188t187.5 160t140.5 66q21 0 21 -22q0 -24 -52 -91.5t-126.5 -156t-148.5 -185t-126 -198t-52 -174.5
q0 -50 37.5 -85.5t101.5 -35.5q87 0 151 41q13 10 18 10q2 0 2 -2z" />
    <glyph glyph-name="N" unicode="N" horiz-adv-x="1128" 
d="M1099 491q1 0 4.5 -16.5t23 -35.5t58.5 -23q291 340 454 340q35 0 35 -30q0 -34 -46 -88.5t-113.5 -105.5t-153.5 -88t-157 -37h-4q-75 -87 -187.5 -229.5t-173 -213.5t-79.5 -71q-16 0 -16 29q0 93 56 224.5t122.5 235.5t122.5 193t56 106q0 10 -10 10q-50 0 -164 -114
q-45 -45 -129.5 -143.5t-159 -181t-164 -167.5t-181 -134t-172.5 -49q-121 0 -121 121q0 92 70.5 201t179.5 185t208 76t99 -71q0 -30 -14 -68q24 -1 40.5 -8t16.5 -19q0 -6 -2 -6t-3 3q-15 21 -55 23q-29 -69 -96 -121.5t-114 -52.5q-25 0 -25 18q0 46 73 102t147 61
q10 32 10 62q0 69 -82 69q-62 0 -137.5 -41t-139.5 -105.5t-107.5 -152.5t-43.5 -173q0 -39 23.5 -67t76.5 -28q66 0 145.5 43.5t157 113t157.5 153.5t154.5 168.5t140.5 154t123.5 113t94.5 43.5q15 0 15 -18q0 -29 -52.5 -121t-115 -192.5t-115 -223t-52.5 -205.5
q2 -9 9 -9q16 0 69 66.5t150.5 195.5t172.5 217q-36 6 -61.5 24t-25.5 42q0 16 7 16zM1207 415h3q67 0 147.5 36t144 85.5t106.5 103t43 86.5q0 21 -25 21q-130 0 -419 -332zM346 178q35 0 94 45.5t83 114.5q-68 -5 -129 -54.5t-61 -93.5q0 -12 13 -12z" />
    <glyph glyph-name="O" unicode="O" horiz-adv-x="798" 
d="M567 458q-1 10 -10 10q-49 0 -107.5 -56.5t-83.5 -135.5q85 40 143 93.5t58 88.5zM353 195q0 -15 2 -30t2 -16q0 -3 -2 -3q-3 0 -7 6.5t-7.5 21t-3.5 32.5q0 28 7 53q-97 -41 -187 -41q-29 0 -52 3q-29 -77 -29 -143q0 -73 38 -118.5t120 -45.5q101 0 216 56t208.5 143.5
t155.5 203.5t62 226q0 53 -20 92t-54.5 60t-73.5 30.5t-83 9.5q-108 0 -220.5 -36.5t-199 -94t-142 -133.5t-55.5 -149q0 -63 53 -84q44 104 157 217q61 61 134 100t103 39q9 0 9 -4q0 -1 -11 -3q-88 -16 -199.5 -122.5t-164.5 -234.5q19 -4 48 -4q92 0 189 41
q24 85 95.5 150t135.5 65q16 0 16 -17q0 -31 -68.5 -93.5t-161.5 -104.5q-10 -33 -10 -72zM0 330q0 49 34 106t97 110.5t143 98t180.5 71.5t201.5 27q106 0 177 -54t71 -155q0 -95 -58 -206t-150 -204t-217.5 -155t-248.5 -62q-82 0 -132.5 45t-50.5 130q0 73 29 145
q-76 23 -76 103z" />
    <glyph glyph-name="P" unicode="P" horiz-adv-x="1028" 
d="M988 609q-32 0 -71.5 -36t-95.5 -106q75 25 126 63t51 68q0 11 -10 11zM399 394q-88 0 -174.5 -51t-142 -137.5t-55.5 -179.5q0 -107 117 -107q63 0 127 26.5t113.5 62.5t110 99t98 109.5t96.5 121.5t88 110q-65 -15 -123 -15q-177 0 -177 90q0 21 15 47t54.5 57t96.5 56
t152 42t211 17q318 0 318 -177q0 -44 -24 -91t-72 -90.5t-112.5 -78t-152.5 -55.5t-185 -21q-25 0 -51 5t-26 15q0 4 3 3q31 -14 88 -14q130 0 246 46t185 122.5t69 161.5q0 166 -278 166q-91 0 -168 -10t-131 -27.5t-95 -39t-65 -46t-35.5 -47t-11.5 -43.5
q0 -38 39.5 -59.5t112.5 -21.5q60 0 124 16q66 79 120.5 121.5t104.5 42.5q13 0 13 -11q0 -35 -60 -80t-148 -72q-17 -22 -62 -81t-70.5 -92t-73 -89t-82.5 -89.5t-86 -75t-95.5 -64.5t-99 -39t-108.5 -16q-137 0 -137 124q0 54 33.5 118.5t88 120t131.5 93t156 37.5
q38 0 67.5 -16t29.5 -53q0 -73 -68.5 -138.5t-131.5 -65.5q-8 0 -8 3q0 1 17 5q65 14 117 62.5t52 126.5q0 66 -85 66z" />
    <glyph glyph-name="Q" unicode="Q" horiz-adv-x="798" 
d="M567 458q-1 10 -10 10q-49 0 -107.5 -56.5t-83.5 -135.5q85 40 143 93.5t58 88.5zM353 195q0 -15 2 -30t2 -16q0 -3 -2 -3q-3 0 -7 6.5t-7.5 21t-3.5 32.5q0 28 7 53q-97 -41 -187 -41q-29 0 -52 3q-29 -77 -29 -143q0 -73 38 -118.5t120 -45.5q109 0 230 63
q-82 75 -188 75q-20 0 -43.5 -6.5t-35.5 -11.5t-12 -3q0 4 8 10t31 12t55 6q101 0 196 -77q165 87 283 244.5t118 316.5q0 53 -20 92t-54.5 60t-73.5 30.5t-83 9.5q-108 0 -220.5 -36.5t-199 -94t-142 -133.5t-55.5 -149q0 -63 53 -84q44 104 157 217q61 61 134 100t103 39
q9 0 9 -4q0 -1 -11 -3q-88 -16 -199.5 -122.5t-164.5 -234.5q19 -4 48 -4q92 0 189 41q24 85 95.5 150t135.5 65q16 0 16 -17q0 -31 -68.5 -93.5t-161.5 -104.5q-10 -33 -10 -72zM0 330q0 49 34 106t97 110.5t143 98t180.5 71.5t201.5 27q106 0 177 -54t71 -155
q0 -144 -121.5 -308.5t-295.5 -252.5q18 -16 57.5 -52t62 -55t59 -38t72.5 -23l2 -4q-40 0 -73 9t-60.5 29t-45.5 37t-45.5 47t-41.5 44q-126 -60 -244 -60q-82 0 -132.5 45t-50.5 130q0 73 29 145q-76 23 -76 103z" />
    <glyph glyph-name="R" unicode="R" horiz-adv-x="1037" 
d="M988 608q-34 0 -76 -36.5t-99 -106.5q78 25 131.5 64t53.5 69q0 10 -10 10zM1189 -139q0 -3 -7.5 -7t-30 -8.5t-54.5 -4.5q-101 0 -167 69.5t-92 202.5q-14 69 -14 178v5q-29 -4 -64 -4q-30 0 -30 9l4 2q10 -2 22 -2q37 0 68 4q4 80 28 80q9 0 9 -11q0 -1 -1.5 -9
t-3.5 -23.5t-3 -33.5q168 25 293 118t125 186q0 60 -79 90t-186 30q-105 0 -192 -15t-142 -38t-93 -52t-54 -55.5t-16 -50.5q0 -38 39 -59.5t112 -21.5q60 0 122 16q143 164 228 164q13 0 13 -11q0 -35 -63.5 -81t-154.5 -73q-20 -25 -64 -81t-71.5 -90.5t-74 -88
t-82.5 -88.5t-86 -75t-94 -63t-97 -39t-105 -16q-66 0 -98.5 32.5t-32.5 88.5q0 49 36.5 111.5t94 117.5t138.5 92.5t160 37.5q7 0 16 -1.5t25.5 -6t27 -17t10.5 -31.5q0 -62 -74.5 -134.5t-122.5 -72.5q-11 0 -11 7q0 3 15 3q52 6 109.5 64.5t57.5 125.5q0 52 -77 52
q-86 0 -175 -55t-146 -138.5t-57 -163.5q0 -34 10 -56t28.5 -32t35.5 -13t41 -3q58 0 119 26t110.5 62.5t110.5 98.5t100.5 109t100 120t91.5 109q-59 -14 -120 -14q-177 0 -177 90q0 21 16.5 47t57 56t98 55t150.5 41.5t204 16.5q30 0 60 -1.5t76 -9.5t79.5 -21.5
t58.5 -39.5t25 -61q0 -64 -69 -130t-172 -112.5t-208 -63.5q-1 -12 -1 -40q0 -91 19 -189q22 -110 75.5 -166t169.5 -56q40 0 68 14q5 3 5 -2z" />
    <glyph glyph-name="S" unicode="S" horiz-adv-x="807" 
d="M973 645q0 20 -23 36q-91 -83 -91 -141q0 -9 9 -9q24 0 64.5 38t40.5 76zM786 221q0 -77 -77.5 -149t-202 -116.5t-254.5 -44.5q-125 0 -188.5 40t-63.5 112q0 70 58.5 139.5t148.5 113t176 43.5q54 0 77.5 -22t23.5 -53q0 -84 -88 -154t-170 -70q-13 0 -13 5l9 3
q77 0 157 62.5t80 147.5q0 33 -20.5 53t-57.5 20q-87 0 -169.5 -42t-132.5 -108t-50 -132q0 -22 3.5 -40t17 -39.5t36.5 -36t66 -24.5t101 -10q131 0 249.5 44t186.5 110t68 131q0 44 -38 80t-92.5 60t-108.5 47.5t-92 54.5t-38 69q0 54 65.5 102.5t157.5 75t177 26.5
q110 0 165 -25q61 53 108 74q8 4 12 4q3 0 3 -2t-19 -11q-42 -21 -96 -69q33 -18 33 -44q0 -33 -57 -83t-94 -50q-4 0 -8.5 3.5t-4.5 8.5q0 56 113 160q-49 26 -155 26q-52 0 -114 -12.5t-119.5 -35t-96 -60.5t-38.5 -82q0 -33 37.5 -62t91.5 -52t108 -48t91.5 -60.5
t37.5 -77.5z" />
    <glyph glyph-name="T" unicode="T" horiz-adv-x="710" 
d="M333 137q30 0 87.5 45t82.5 112q-65 -4 -122.5 -53t-57.5 -94q0 -10 10 -10zM910 546q-33 -33 -83.5 -100t-97 -132.5t-112 -139.5t-130 -129t-149.5 -91.5t-172 -36.5q-166 0 -166 137q0 82 59.5 169.5t153 150t188.5 75.5q10 68 75.5 131t157.5 100.5t181 37.5
q62 0 139.5 -27t152 -54.5t128.5 -27.5q122 0 178 52q4 0 4 -5q0 -4 -5.5 -10t-10.5 -10l-5 -3q-64 -32 -158 -32q-57 0 -120 15t-111.5 32.5t-114.5 32.5t-128 15q-121 0 -221.5 -75t-118.5 -170q3 0 9.5 0.5t10.5 0.5q50 0 73.5 -20.5t23.5 -52.5q0 -36 -18 -77
q23 -1 38.5 -8t15.5 -18q0 -6 -2 -6q-1 0 -3 3q-12 20 -52 22q-32 -67 -95 -119t-106 -52q-24 0 -24 17q0 50 68.5 103.5t142.5 57.5q12 38 12 73q0 29 -18 49.5t-61 20.5q-11 0 -17 -1q-1 -8 -1 -25q0 -9 0.5 -15.5t1.5 -10t1 -4.5l-2 -3q-6 0 -14 11.5t-8 29.5q0 10 1 15
q-60 -9 -124 -41.5t-119.5 -82.5t-91.5 -122t-36 -150q0 -19 5.5 -37.5t18.5 -39t41.5 -33t67.5 -12.5q77 0 148.5 28.5t125 72.5t112 109t103.5 125.5t105.5 136.5t111.5 128q82 83 127 83q9 0 9 -4q0 -3 -8 -4q-41 -7 -87 -53z" />
    <glyph glyph-name="U" unicode="U" horiz-adv-x="926" 
d="M396 492q-36 0 -89.5 -51t-77.5 -115q70 31 122 77.5t52 78.5q0 10 -7 10zM806 -191q76 0 141 29.5t91 56.5q6 6 7 6t1 -2q0 -8 -4 -12q-19 -26 -89 -55.5t-150 -29.5q-85 0 -122 40t-37 97q0 40 19 91.5t46 98t63 99t63 86.5t54.5 67.5t29.5 36.5q8 11 6 11l-10 -6
q-18 -18 -73 -75t-102.5 -106t-115.5 -111.5t-124.5 -106t-116.5 -74t-103 -30.5q-68 0 -68 64q0 51 44 124.5t106.5 147t124.5 145t106 137t44 105.5q0 79 -111 79q-101 0 -197 -37t-161.5 -92.5t-105 -119.5t-39.5 -119q0 -30 19 -46t44 -16q56 0 121 26q24 68 94.5 129
t114.5 61q12 0 12 -12q0 -32 -61.5 -88t-141.5 -91q-9 -29 -9 -56l-1 -37q0 -4 -2 -4q-1 0 -3 3q-11 19 -11 48q0 15 5 37q-62 -24 -118 -24q-10 0 -21.5 2.5t-27.5 9t-26.5 24.5t-10.5 44q0 56 42.5 120t112 118.5t168.5 90.5t202 36q54 0 92.5 -20.5t38.5 -70.5
q0 -45 -44 -114.5t-107 -143.5t-126 -147.5t-107 -143.5t-44 -114q0 -20 13 -33.5t38 -13.5q59 0 150.5 58.5t185 146.5t194 190t181 190t142 146.5t80.5 58.5q12 0 12 -6q0 -1 -2 -3q-42 -33 -130.5 -128t-185.5 -214t-169 -244.5t-72 -199.5q0 -114 141 -114z" />
    <glyph glyph-name="V" unicode="V" horiz-adv-x="821" 
d="M424 482q0 6 -7 6q-36 0 -93 -55.5t-80 -124.5q73 38 126.5 89t53.5 85zM1346 707q0 14 -6 20.5t-22 6.5q-64 0 -170 -86.5t-259 -244.5q85 1 172 37.5t147.5 86.5t99 100t38.5 80zM287 -118q-13 0 -20 10t-7 24q0 59 38.5 141.5t94 163.5t110.5 158t93.5 144.5
t38.5 103.5q0 50 -27.5 67t-82.5 17q-96 0 -192 -43t-162 -104t-107 -126t-41 -111q0 -33 19 -48.5t46 -15.5q61 0 134 34q22 73 95 140.5t120 67.5q13 0 13 -10q0 -34 -63.5 -95t-145.5 -101q-7 -25 -7 -53l1 -33q0 -4 -2 -4q-7 0 -12 17.5t-5 29.5q0 10 4 32
q-70 -32 -131 -32q-11 0 -22.5 2t-28.5 9t-27.5 25.5t-10.5 45.5q0 51 44 117t114 125t169.5 99t197.5 40q129 0 129 -96q0 -42 -39.5 -115t-95.5 -153.5t-112 -161.5t-95.5 -157.5t-39.5 -123.5q0 -22 18 -22q23 0 54 14.5t69.5 45.5t75.5 64t87.5 84.5t89.5 93t97.5 103
t96.5 101.5q-46 5 -84 26t-38 49q1 9 4 9q5 0 7 -9q1 -2 4 -7.5t12 -15.5t21.5 -19t33.5 -16.5t47 -9.5q155 161 269.5 250.5t193.5 89.5q20 0 29 -8.5t9 -28.5q0 -28 -40 -79t-103.5 -103t-157 -90.5t-186.5 -38.5q-30 -31 -98 -101.5t-102 -106t-92 -93t-93.5 -87.5
t-78 -63.5t-74.5 -47.5t-56 -14z" />
    <glyph glyph-name="W" unicode="W" horiz-adv-x="1115" 
d="M420 458q0 7 -7 7q-39 0 -96 -56t-78 -126q74 33 127.5 85.5t53.5 89.5zM1610 697q0 13 -6 19t-22 6q-59 0 -150.5 -81t-220.5 -228q75 7 151 43.5t128.5 81.5t86 89t33.5 70zM959 490q0 -16 -72 -132.5t-144.5 -245t-72.5 -173.5q0 -22 13 -22q31 0 71 25.5t98 85
t98 104t119.5 139t113.5 133.5h-14q-47 0 -78.5 14.5t-31.5 28.5q0 7 3 7q1 0 6 -5q34 -38 107 -38h14q132 151 231 235.5t174 84.5q36 0 36 -35q0 -25 -34.5 -70t-89.5 -92t-137 -84.5t-164 -44.5q-30 -34 -85.5 -98t-88.5 -101t-81 -90.5t-81 -84.5t-70 -62.5t-66.5 -45.5
t-52.5 -14q-9 0 -16.5 8t-7.5 23q0 56 43 147t94.5 167.5t94.5 143.5t43 81l-3 4q-19 0 -106.5 -93.5t-185 -205t-197.5 -205t-141 -93.5q-27 0 -27 34q0 55 39 135t94.5 160t111.5 157t95 145.5t39 106.5q0 85 -119 85q-78 0 -157 -28t-139.5 -72.5t-108.5 -96t-73.5 -102
t-25.5 -87.5q0 -73 73 -73q58 0 119 24q21 74 92 141t123 67q5 0 8.5 -3.5t3.5 -6.5q0 -39 -63 -101t-147 -99q-6 -24 -6 -48v-18v-14l1 -6q0 -2 -2 -2q-1 0 -3 2q-13 16 -13 46q0 17 4 32q-60 -22 -116 -22q-45 0 -73 18.5t-28 71.5q0 51 45 117.5t116 126t171.5 100.5
t198.5 41q68 0 103 -26t35 -72q0 -42 -40 -116.5t-96.5 -156t-113.5 -163t-97 -155.5t-40 -114q0 -20 16 -20q35 0 107 62.5t152.5 152t159.5 179.5t143.5 152.5t88.5 62.5q10 0 10 -13z" />
    <glyph glyph-name="X" unicode="X" horiz-adv-x="929" 
d="M614 518q-36 0 -81 -51t-56 -119q62 40 104 84.5t42 74.5q0 11 -9 11zM4 35l5 -6q12 -26 47.5 -42.5t73.5 -16.5q60 0 132.5 27t158 81.5t155 106t170.5 131.5q8 23 25 72.5t25 75t19 62t15.5 63t4.5 48.5q0 51 -32 76t-75 25q-74 0 -151 -29.5t-139 -75.5t-112.5 -99.5
t-78 -105t-27.5 -88.5q0 -62 65 -62q72 0 173 58q6 72 67.5 135t108.5 63q13 0 13 -13q0 -33 -50 -86t-121 -97q-1 -7 -1 -22q0 -12 3 -23t6 -17l3 -5q1 -1 1 -3q0 -1 -3 -1t-8.5 5t-12 19.5t-6.5 34.5v1q-99 -57 -175 -57q-84 0 -84 77q0 50 46 118t118 130.5t171.5 106
t193.5 43.5q128 0 128 -121q0 -35 -11 -85.5t-21.5 -83.5t-33.5 -104q87 70 121.5 97.5t110.5 85.5t117.5 83.5t100 58.5t103 46t84.5 13q28 0 28 -14l-9 -3q-52 0 -117 -23.5t-121.5 -54t-140 -89.5t-136 -99.5t-146.5 -115.5q-75 -227 -75 -339q0 -70 32.5 -116.5
t109.5 -46.5q15 0 29 3.5t21 6.5l6 4l10 6q1 0 1 -2q0 -10 -20.5 -18.5t-44.5 -8.5q-85 0 -129 50.5t-44 137.5q0 102 60 288q-107 -85 -174 -135t-155 -108t-158.5 -85t-128.5 -27q-52 0 -88 24t-36 59q-1 6 3 6z" />
    <glyph glyph-name="Y" unicode="Y" horiz-adv-x="960" 
d="M525 519q0 12 -10 12q-37 0 -84 -53.5t-55 -126.5q64 40 106.5 87t42.5 81zM166 -265q-89 0 -127.5 38t-38.5 82q0 61 33.5 114.5t81.5 85t95 49.5t80 18q11 0 11 -5l-1 -3q-58 0 -120 -32.5t-106 -92.5t-44 -128q0 -64 40.5 -91t94.5 -27q98 0 195.5 43t175.5 108.5
t162.5 158t148 176t140 179t131.5 151.5q9 9 9 13l-1 1l-20 -13q-15 -11 -107 -91.5t-168.5 -143t-174.5 -119t-159 -56.5q-24 0 -35 13t-11 30q0 39 32 91t77.5 102t91.5 98.5t78 94t32 75.5q0 69 -130 69q-92 0 -186.5 -40t-161.5 -98t-109.5 -122t-42.5 -111
q0 -33 15 -48.5t50 -15.5q70 0 161 52q1 73 63 140t114 67q14 0 14 -14q0 -35 -51 -91.5t-123 -100.5v-13q0 -15 2.5 -25.5t4.5 -16.5l2 -5l-3 -2q-2 0 -7 4.5t-10.5 17.5t-5.5 30q-90 -50 -164 -50q-84 0 -84 76q0 50 45.5 115t116 122.5t168.5 97t192 39.5q64 0 104 -20.5
t40 -66.5q0 -33 -32 -82.5t-78 -100.5t-91.5 -101t-77.5 -96t-32 -73q0 -14 8.5 -23.5t22.5 -9.5q68 0 176 66t200.5 146.5t187.5 163t128 101.5q13 11 34.5 28t68.5 45.5t73 28.5q18 0 18 -8q-5 -3 -12 -3q-42 0 -92 -34t-101.5 -91t-109 -131.5t-121 -157t-131 -164.5
t-143.5 -156.5t-154.5 -131.5t-169.5 -91t-182 -34z" />
    <glyph glyph-name="Z" unicode="Z" horiz-adv-x="1027" 
d="M864 264q-39 0 -85.5 -43.5t-66.5 -102.5q64 22 112.5 62.5t48.5 73.5zM508 522q35 0 92.5 45.5t98.5 104.5q-45 -12 -81.5 -29.5t-58 -34.5t-36 -34t-20 -28t-5.5 -16q0 -8 10 -8zM625 102q34 0 67 10q19 65 80 114t100 49q21 0 21 -13q0 -40 -56 -84t-128 -68
q-8 -27 -8 -52l4 -29q1 -1 1 -3l1 -2l-2 -2q-3 0 -7.5 5t-8.5 16t-4 23q0 17 5 39q-38 -10 -66 -10q-43 0 -60.5 15t-17.5 36q0 65 76 135t178 113t179 43q121 0 121 -93q0 -67 -49.5 -144t-129.5 -142.5t-193 -109t-229 -43.5q-40 0 -168 16t-189 16q-40 0 -71.5 -1.5
t-42.5 -3.5l-12 -1q-16 0 -16 7q0 2 2 4q83 100 244 213.5t310 195t321 175t243 139.5q5 3 5 7q0 5 -29.5 11t-80.5 10t-103 4q-112 0 -196 -21q-47 -64 -115.5 -118t-118.5 -54q-15 0 -15 16q0 13 12.5 32.5t38 43.5t75 47.5t113.5 38.5q37 57 37 96q0 5 2 5q9 0 9 -27
q0 -25 -32 -70q88 18 192 18q28 0 55.5 -1t49 -3t41.5 -4.5t34 -5t24.5 -4.5t16.5 -3l6 -1l6 2q28 18 41 31q23 20 32 20q7 0 7 -9t-11 -20q-48 -48 -164.5 -115t-255.5 -137t-281 -145.5t-269 -162.5t-192 -165q-1 -2 -1 -4q0 -9 16 -9q118 0 248.5 -27.5t191.5 -27.5
q137 0 270.5 67t215 168t81.5 198q0 44 -26.5 64t-66.5 20q-81 0 -179 -43t-167 -110.5t-69 -129.5q0 -45 57 -45z" />
    <glyph glyph-name="bracketleft" unicode="[" horiz-adv-x="277" 
d="M103 120l464 562q24 29 66.5 46.5t64.5 17.5q6 0 6 -3q0 -1 -5 -3q-4 0 -21 -4.5t-46 -21t-48 -39.5l-511 -621q-34 -40 -34 -85q0 -12 2 -24t4 -18l2 -6q2 -4 -2 -4q-3 0 -7 10.5t-7.5 27.5t-3.5 33q0 40 38 87z" />
    <glyph glyph-name="backslash" unicode="\" horiz-adv-x="113" 
d="M90 -83q-2 0 -2 3l1 4q21 110 52 308q15 93 31 206t21 142l20 128q1 4 1.5 7t1.5 6t1.5 5.5t1.5 4.5t1.5 4t1.5 3l1.5 1.5t1.5 0.5q2 -2 2 -4q0 -1 -0.5 -4.5t-0.5 -5.5q-9 -39 -24 -147l-53 -356q-38 -248 -48 -283q-6 -23 -11 -23z" />
    <glyph glyph-name="bracketright" unicode="]" horiz-adv-x="417" 
d="M481 543l-464 -562q-24 -29 -66.5 -46.5t-64.5 -17.5q-6 0 -6 3l5 3q4 0 21 4.5t46 21t48 39.5l511 621q34 40 34 85q0 12 -2 24t-4 18l-2 6q-2 4 2 4q3 0 7 -10.5t7.5 -27.5t3.5 -33q0 -40 -38 -87z" />
    <glyph glyph-name="underscore" unicode="_" horiz-adv-x="673" 
d="M121 -46q0 2 2.5 3.5t5.5 2.5l3 1q23 11 141 11q41 0 126.5 -5.5t106.5 -5.5q65 0 95 8q2 0 2 -2q0 -4 -16 -9q-19 -7 -83 -7q-21 0 -106 6.5t-126 6.5q-48 0 -85 -3t-50 -6l-13 -3q-3 0 -3 2z" />
    <glyph glyph-name="grave" unicode="`" horiz-adv-x="433" 
d="M399 330q-3 0 -5 8t-10 23t-21 28q-3 3 -7 5.5t-6 3.5t-2 2q0 4 11.5 8.5t21.5 4.5t17 -17.5t7 -40.5q0 -25 -6 -25z" />
    <glyph glyph-name="a" unicode="a" horiz-adv-x="433" 
d="M575 151l-7 -9q-19 -17 -49 -38q-144 -104 -235 -104q-21 0 -21 24q0 23 16.5 54t32.5 51l16 20q3 4 0 4l-3 -1q-29 -17 -96 -67t-120 -84t-77 -34q-12 0 -12 14q0 25 29.5 70t73 90t102 78t108.5 33q39 0 39 -25q0 -10 -5 -19.5t-8 -9.5q-1 0 -1 2v11q0 21 -29 21
q-47 0 -115.5 -42t-119.5 -100.5t-51 -100.5q1 -9 7 -9q23 0 150.5 91.5t128.5 91.5q5 3 8 3q12 14 23 14q14 0 14 -5q0 -1 -2 -3q-17 -17 -52 -68.5t-35 -78.5q0 -16 15 -16q75 0 214 99q40 30 59 46q2 0 2 -3z" />
    <glyph glyph-name="b" unicode="b" horiz-adv-x="451" 
d="M460 265q0 -44 -34 -101t-80.5 -102.5t-96.5 -77t-80 -31.5q-34 0 -34 35q0 45 24.5 87t46.5 59l13 7q5 0 2 -3q-64 -47 -64 -130q0 -42 24 -42q45 0 106.5 56.5t103.5 124.5t42 105q0 33 -20 33q-46 0 -151 -79.5t-166 -139.5q-99 -96 -138 -165l-9 -11q-5 0 -5 18
q0 19 18 43t49.5 53.5t37.5 36.5l39 49q40 50 97 122t128.5 157.5t136 159t119 125.5t76.5 57q4 1 8 1q8 0 8 -4q0 -2 -15.5 -16.5t-45.5 -41.5t-53 -49q-39 -36 -205.5 -226.5t-227.5 -269.5q-17 -23 -13 -23q1 0 18 13q89 81 178 143t137 62q26 0 26 -35z" />
    <glyph glyph-name="c" unicode="c" horiz-adv-x="398" 
d="M393 279q0 11 -10 16q-61 -59 -61 -96l5 -5q19 0 42.5 28t23.5 57zM439 345q5 0 5 -3q-21 -10 -49 -36q16 -6 16 -23q0 -27 -38 -67t-66 -40q-4 2 -4 8q0 17 22 50.5t52 63.5q-1 0 -4 0.5t-5 0.5q-52 0 -120.5 -52t-117.5 -127t-49 -134q0 -26 14 -38t34 -12q96 0 228 82
t180 139h2q1 -1 1 -5q-2 -5 -7 -10q-53 -55 -182.5 -135t-229.5 -80q-27 0 -45.5 14t-18.5 42q0 66 57 144t134 129.5t133 51.5h6q26 24 46 35q4 2 6 2z" />
    <glyph glyph-name="d" unicode="d" horiz-adv-x="451" 
d="M397 261q-5 9 -24 9q-45 0 -106.5 -39t-110.5 -89.5t-84 -98.5t-35 -67q0 -7 3.5 -10.5t6.5 -3.5h3q41 0 155 94t144 130q9 15 48 75zM424 256q142 139 255.5 268.5t113.5 155.5q0 11 -5 11q-28 0 -146.5 -139.5t-220.5 -288.5q3 -6 3 -7zM385 210q-85 -130 -85 -171
q0 -33 29 -33q53 0 128.5 48t132.5 100q1 0 1 -5l-5 -7q-67 -57 -142 -102.5t-128 -45.5q-27 0 -27 26q0 54 49 142v2l-2 -1q-96 -91 -181.5 -153t-121.5 -62q-21 0 -21 25q0 42 60.5 114.5t150 131t158.5 58.5q15 0 24 -3q103 155 236 297.5t174 142.5q3 0 4.5 -2t2.5 -4
v-3q0 -28 -123 -169t-275 -288q-3 -9 -9.5 -16t-17.5 -14t-12 -8z" />
    <glyph glyph-name="e" unicode="e" horiz-adv-x="355" 
d="M131 113l-4 -3q-20 -37 -20 -75q0 -45 50 -45q61 0 135 33t120 65.5t82 65.5q3 0 3 -5l-4 -7q-72 -60 -170.5 -112.5t-177.5 -52.5q-62 0 -62 57q0 55 46.5 115.5t104 98t95.5 37.5q20 0 20 -15q0 -43 -75 -100t-143 -57zM311 270q-32 0 -75 -32t-70.5 -66t-27.5 -46
q0 -4 8 -4q59 0 117 51.5t58 82.5q0 14 -10 14z" />
    <glyph glyph-name="f" unicode="f" horiz-adv-x="360" 
d="M-99 -61q-7 0 -7 -1l3 -3q20 -5 39 -19l20 25q-36 -2 -55 -2zM733 648q0 24 -17 24q-86 0 -393 -337q71 14 137 44t114.5 66.5t85 75t55 72t18.5 55.5zM-34 -170q0 39 -18 64q-166 -208 -280 -370t-114 -192q0 -5 4 -5t23 13q35 24 68 49t96 81t107 108t79 121t35 131z
M-130 -64q-3 3 -3 5q0 3 8 3q29 0 87 4q173 212 322 373q-27 -4 -61 -4q-7 0 -10.5 1.5t-2.5 3.5v2q42 0 83 6q335 358 443 358q13 0 20 -10t7 -23q0 -32 -37 -81.5t-96 -99t-144.5 -91.5t-171.5 -58q-146 -160 -319 -373q149 18 282 75.5t224 128.5q4 3 6 3q1 -1 1 -2
q0 -3 -4 -7q-26 -26 -95.5 -66t-188 -83.5t-231.5 -56.5l-36 -44q33 -33 33 -79q0 -60 -38.5 -129t-99 -130.5t-115.5 -109.5t-110 -89.5t-60 -46.5q-9 -8 -15.5 -16t-9.5 -11t-7 -3q-2 0 -4 3t-3 7l-1 3q0 47 116.5 219.5t292.5 392.5q-18 14 -62 25z" />
    <glyph glyph-name="g" unicode="g" horiz-adv-x="477" 
d="M427 234l18 20q14 14 14 19q0 2 -3 2q-4 0 -48 -37q12 -2 19 -4zM362 236q-60 0 -118.5 -29.5t-97.5 -69.5t-63 -79.5t-24 -62.5q0 -12 8 -12q14 0 38.5 13.5t65.5 46.5t66.5 54.5t83 72t73.5 64.5q-20 2 -32 2zM-594 -694q0 -56 51 -56q44 0 106.5 37.5t125 93
t143 142.5t144.5 162.5t145 175.5q-129 -18 -262.5 -84t-231 -149.5t-159.5 -171.5t-62 -150zM-544 -757q-72 0 -72 68q0 67 65.5 157t168 172t240 146t268.5 81q254 314 296 361q-11 4 -20 5q-10 -8 -46 -40.5t-56.5 -50.5t-57 -49t-61 -50t-53 -39t-49 -29.5t-33.5 -9.5
q-17 0 -17 19q0 29 25 72t67 85t108 71.5t138 29.5q12 0 34 -2q120 104 143 104q12 0 12 -6q0 -4 -11 -13q-39 -36 -94 -99q24 -10 24 -22l-4 -1q-6 8 -25 17q-36 -42 -82 -97.5t-107.5 -131.5t-98.5 -121q17 2 50 2q61 0 102.5 -16.5t41.5 -48.5q0 -34 -37 -69.5t-66 -40.5
h-4q-3 0 -3 1l7 4q28 10 56 39t28 68q0 26 -32.5 41.5t-94.5 15.5q-19 0 -53 -2q-85 -105 -150.5 -181.5t-148.5 -165t-148.5 -144t-132 -93t-117.5 -37.5z" />
    <glyph glyph-name="h" unicode="h" horiz-adv-x="468" 
d="M764 747q-137 0 -458 -405q95 8 212.5 73.5t198.5 151t81 146.5q0 19 -7.5 26.5t-26.5 7.5zM267 21q0 30 35 94.5t35 74.5q0 9 -9 9q-31 0 -127.5 -65t-117.5 -93q-53 -73 -66 -98q-9 -17 -13 -17t-4 10q0 45 52 94q146 206 223 303q-28 1 -46.5 9.5t-18.5 16.5q0 5 3 5
l3 -2q17 -21 65 -21q333 413 490 413q15 0 28.5 -9.5t13.5 -35.5q0 -67 -87.5 -154t-209.5 -151t-217 -71q-100 -127 -187 -252l1 -1l2 1q175 131 234 131q14 0 14 -14q0 -9 -37 -73.5t-37 -100.5q0 -32 30 -32q53 0 146 57.5t145 107.5q2 0 2 -4q0 -2 -9 -11
q-38 -39 -141 -101t-154 -62q-20 0 -30.5 9t-10.5 33z" />
    <glyph glyph-name="i" unicode="i" horiz-adv-x="263" 
d="M301 331q-12 0 -12 12t13 23t25 11q10 -2 10 -13q0 -12 -12.5 -22.5t-23.5 -10.5zM57 8q0 -28 35 -28q57 0 157 62t155 114q0 -5 1 -5q-3 -5 -8 -10q-45 -44 -150 -107.5t-155 -63.5q-41 0 -41 41q0 48 62.5 130.5t100.5 109.5q8 6 22 6q9 0 9 -4q0 -2 -2 -4
q-42 -36 -114 -122t-72 -119z" />
    <glyph glyph-name="j" unicode="j" horiz-adv-x="258" 
d="M349 390q-12 0 -12 11t13 23t25 12q10 0 10 -12q0 -13 -12 -23.5t-24 -10.5zM-795 -738q-54 0 -54 58q0 59 67.5 145t171 167t242 146.5t266.5 84.5q-61 -79 -100.5 -128t-99 -119.5t-102.5 -114.5t-98.5 -94.5t-101 -78.5t-96 -47t-95.5 -19zM134 -188q0 64 -136 64
q-30 0 -62 -3q17 22 72 91t78.5 98t64.5 79t73 85.5t62 66.5q6 5 6 10q0 6 -12 6q-28 0 -87 -22.5t-76 -39.5q-7 -7 -7 -13q0 -3 1 -5t3 -3h1l5 7q14 20 54 38.5t67 18.5q12 0 12 -5l-4 -8q-51 -49 -115 -123t-108 -129t-122 -155q-134 -18 -276 -82t-248.5 -144.5
t-175 -168t-68.5 -151.5q0 -68 67 -68q54 0 113 23t121.5 69t120.5 98.5t126.5 128.5t122 139.5t123.5 151.5q30 3 59 3q126 0 126 -55q0 -36 -29.5 -63.5t-59.5 -37.5q-7 -2 -7 -4q0 -1 2 -1q6 0 16 4q32 12 64.5 41.5t32.5 58.5z" />
    <glyph glyph-name="k" unicode="k" horiz-adv-x="477" 
d="M760 748q-141 0 -484 -442q109 35 229.5 112.5t200.5 162.5t80 140q0 27 -26 27zM325 -6q-47 0 -72.5 29.5t-25.5 77.5q0 19 6 34t16 15q7 0 7 -6v-2q33 0 84.5 23t89 51t37.5 42q0 7 -11 7q-44 0 -130 -46t-155 -97t-85 -73q-7 -10 -41 -59.5t-41 -63.5q-8 -13 -11 -13
q-4 0 -4 16q0 6 2.5 17t15.5 33.5t34 40.5q77 115 194 269q-44 -11 -77 -11q-25 0 -41.5 5t-21 10t-4.5 11q0 7 2 7l3 -3q14 -23 60 -23q38 0 85 11q356 459 527 459q15 0 26 -9t11 -27q0 -60 -88 -148t-213 -163.5t-235 -109.5q-79 -102 -150 -203q-1 -2 -1 -3q0 -2 3 1
q81 64 186 123.5t169 59.5q19 0 19 -10q0 -32 -92.5 -80t-148.5 -53q-4 -11 -4 -27q0 -43 22.5 -73t65.5 -30q45 0 106 31t99.5 60t73.5 61q1 -1 1 -5l-3 -6q-48 -41 -82.5 -67t-95.5 -54.5t-112 -28.5z" />
    <glyph glyph-name="l" unicode="l" horiz-adv-x="379" 
d="M713 699q-89 0 -227 -127.5t-250 -289.5q78 5 169.5 52t162 108.5t118 126t47.5 104.5q0 26 -20 26zM140 315q17 -29 65 -33q107 162 259.5 293t251.5 131q36 0 36 -33q0 -45 -52.5 -112.5t-128.5 -129t-170.5 -107t-169.5 -49.5q-115 -167 -115 -241q0 -59 68 -59
q135 0 336 182q3 -2 3 -5l-4 -7q-68 -64 -166.5 -125.5t-176.5 -61.5q-70 0 -70 80q0 91 95 237q-29 3 -47.5 12.5t-18.5 22.5q0 6 3 6q1 0 2 -1z" />
    <glyph glyph-name="m" unicode="m" horiz-adv-x="649" 
d="M440 -3q0 -27 34 -27q53 0 144.5 57.5t171.5 129.5q1 0 1 -4q0 -3 -6 -9q-217 -184 -310 -184q-22 0 -32.5 12t-10.5 28q0 36 34.5 81.5t69 81t34.5 46.5q0 6 -7 6q-19 0 -151 -88t-149 -88q-7 0 -7 8q0 33 83 137q2 2 2 4q0 3 -3 3q-21 0 -146.5 -84.5t-161.5 -120.5
q-26 -23 -33 -23q-8 0 -8 4l3 5q4 4 59 73.5t117 152t74 107.5q5 10 8 18.5t3.5 11.5t1.5 3q8 0 8 -24q0 -28 -53.5 -97t-106.5 -129.5t-53 -68.5q1 -1 3 -1q3 0 6 3q287 205 338 205q3 0 3 -3t-4 -8q-18 -18 -60 -72t-42 -71q0 -5 4 -5q13 0 145 88t162 88q9 0 9 -11
q0 -17 -43.5 -62t-87 -95t-43.5 -78z" />
    <glyph glyph-name="n" unicode="n" horiz-adv-x="454" 
d="M290 329q0 -21 -46.5 -78.5t-102.5 -119t-67 -78.5q-2 -3 -2 -7q0 -2 2 -2l7 2q94 70 197 133.5t135 63.5q9 0 9 -9q0 -16 -22.5 -45.5t-50 -58t-50.5 -63.5t-23 -60q0 -15 16 -15q58 0 142.5 50.5t160.5 113.5h1q1 0 1 -2l-3 -7q-78 -65 -168.5 -120.5t-138.5 -55.5
q-24 0 -24 20q0 40 29.5 90.5t58.5 86.5t28 41q0 6 -6 6q-31 0 -145.5 -75.5t-196.5 -143.5q-11 -11 -19 -11q-12 0 -12 3q0 1 2 3q11 12 28.5 32.5t63 75t81 99.5t66.5 90t35 62q1 2 5 2q8 -3 9 -23z" />
    <glyph glyph-name="o" unicode="o" horiz-adv-x="356" 
d="M307 169q0 37 -46 37q-18 0 -24 -3q-5 -1 -5 1l1 2q9 10 62 24.5t99 14.5q8 0 14.5 -1.5t8.5 -3.5l2 -1l-6 -2q-43 0 -76.5 -4.5t-47 -9t-17.5 -8.5l-1 -5q19 0 39 -12t20 -31q0 -55 -78.5 -121t-146.5 -66q-36 0 -36 32q0 30 29.5 83.5t72.5 98.5q66 69 113 76q6 0 6 -2
q0 -1 -4 -4q-54 -34 -128 -119.5t-74 -138.5q0 -20 22 -20q68 0 134.5 67.5t66.5 115.5z" />
    <glyph glyph-name="p" unicode="p" horiz-adv-x="407" 
d="M62 -8q65 0 140.5 43t125 102t49.5 104q0 25 -19 25q-39 0 -115 -57t-110 -100l-7 10q-40 -45 -97 -117q-1 -1 -1 -3q0 -7 34 -7zM23 -10h-4q-412 -496 -476 -625l-6 -8q-5 0 -5 7v3q26 73 113 195.5t165 215t191 220t126 142.5q51 60 95 118t62 86t20 33q4 9 7 9
q6 0 6 -14q0 -20 -35 -65.5t-129 -155.5q-2 -4 0 -4l4 2l13 11q13 11 29.5 24.5t40 30.5t45.5 30.5t46 23t41 9.5q31 0 31 -36q0 -46 -50 -106t-131.5 -105t-158.5 -45q-28 0 -40 4z" />
    <glyph glyph-name="q" unicode="q" horiz-adv-x="469" 
d="M63 -149l42 46q-33 -8 -94 -17q-6 -1 -6 -3l2 -3q34 -6 56 -23zM89 -253q0 43 -17 74q-359 -416 -359 -518q2 -8 7 -8q14 0 72.5 48.5t125 115.5t119 149t52.5 139zM-26 -119q64 8 139 25q49 55 109 119t93 99t41 47q4 5 1 5l-11 -5l-28 -22q-27 -22 -53 -41t-60 -42
t-65 -36.5t-52 -13.5q-27 0 -27 26t31.5 65.5t81.5 77t123.5 64.5t146.5 27q30 0 30 -19q0 -12 -9.5 -28.5t-16.5 -16.5q-1 2 0 6q4 8 4 23q0 10 -5 15q-11 11 -34 11q-65 0 -145 -45.5t-132.5 -99t-52.5 -82.5q0 -17 12 -17q45 0 153.5 80.5t139.5 118.5q2 3 4 3
q11 -7 11 -17q0 -4 -11.5 -19.5t-38.5 -47t-51 -58.5t-70.5 -79.5t-75.5 -85.5q160 45 281 115.5t174 122.5q2 2 4 2q1 0 1 -2q0 -3 -3 -6q-41 -46 -172.5 -122t-293.5 -120q-4 -5 -28 -33t-38 -43q23 -32 23 -90q0 -53 -56 -137t-128.5 -156t-140 -125t-91.5 -53
q-4 0 -7 2.5t-4 4.5l-1 2q0 1 3 5t7 10.5t7 13.5q79 206 362 533q-27 27 -76 27q-21 -3 -37 -3q-17 0 -17 5q0 10 49 10z" />
    <glyph glyph-name="r" unicode="r" horiz-adv-x="375" 
d="M333 227q24 33 54 55.5t46 22.5l11 -5q0 -13 -28 -36.5t-59 -37.5q-14 -7 -29.5 -37.5t-15.5 -60.5q0 -14 9.5 -23t25.5 -9q46 0 103.5 27.5t102.5 65.5q1 1 2 1t1 -4q-3 -5 -8 -9q-111 -88 -204 -88q-46 0 -46 44q0 39 24 75q1 1 1 2l-5 1q-33 -13 -120.5 -74
t-140.5 -113q-9 -9 -23 -30q-4 -6 -14 -6h-4q-4 0 -4 2q0 15 114.5 156t131.5 141q5 0 5 -12q0 -11 -7 -16q-17 -15 -79 -85t-78 -96q0 -4 2 -4q47 37 117.5 85t114.5 68z" />
    <glyph glyph-name="s" unicode="s" horiz-adv-x="380" 
d="M303 202q0 -5 5 -5q17 0 50 28t33 51q0 13 -26 16q-62 -58 -62 -90zM220 78q0 -43 -44 -83.5t-93.5 -61.5t-78.5 -21l-4 3l4 2q78 14 134 60t56 86q0 20 -13.5 38t-29.5 29.5t-29.5 25.5t-13.5 26q0 36 72 77t172 41h12q35 32 54 42q5 3 7 3q3 0 4 -1.5t-1 -2.5
q-18 -8 -55 -42q35 -3 35 -18q0 -21 -45 -58.5t-72 -37.5q-6 0 -6 5q0 34 73 103q-6 1 -17 1q-70 0 -139.5 -31t-69.5 -68q0 -19 44 -57t44 -60z" />
    <glyph glyph-name="t" unicode="t" horiz-adv-x="315" 
d="M462 475l380 34q10 0 10 -2l-6 -4q-139 -37 -379 -37h-77q-117 -139 -201 -261t-84 -175q0 -41 50 -41q109 0 301 167v0q1 0 1 -2l-3 -7q-77 -69 -160.5 -120t-147.5 -51q-21 0 -35.5 12.5t-14.5 36.5q0 69 76.5 191t185.5 251h-29q-187 0 -280 -21q-14 -3 -14 -1
q0 5 18 13t62.5 16t101.5 8q9 0 60 -2.5t89 -3.5q72 84 131 140.5t75 56.5q4 -1 4 -3q0 -1 -3 -4q-42 -33 -175 -191h64z" />
    <glyph glyph-name="u" unicode="u" horiz-adv-x="466" 
d="M361 159l-8 -5q-76 -69 -159 -127.5t-128 -58.5q-22 0 -22 24q0 48 77 147t117 126q9 6 19 6q12 0 12 -4q0 -1 -3 -4q-38 -29 -119 -131.5t-81 -139.5q0 -14 11 -14q46 0 159.5 88t172.5 150q20 20 32 20q7 0 10 -2t0 -6q0 -1 -12 -14t-25.5 -28.5t-30.5 -38t-30.5 -43
t-22.5 -41.5t-9 -36q0 -8 6.5 -14t16.5 -6q51 0 130.5 49.5t134.5 99.5q2 -1 2 -5l-5 -7q-65 -55 -144 -101t-132 -46q-10 0 -21 7t-11 25q0 40 60 124q5 6 3 6z" />
    <glyph glyph-name="v" unicode="v" horiz-adv-x="411" 
d="M403 257q0 14 -11 14q-22 0 -61.5 -42t-39.5 -97q0 -12 1 -17q111 94 111 142zM84 7q0 -13 12 -13q21 0 74 32t108 77q-3 11 -3 24q0 57 49.5 107t82.5 50q15 0 15 -20q0 -47 -129 -156q11 -40 67 -40q36 0 71.5 12t62.5 30.5t39 28t20 17.5q2 0 2 -2q0 -3 -3 -6
q-38 -36 -90 -61.5t-107 -25.5q-60 0 -75 36q-61 -50 -119 -84.5t-86 -34.5q-16 0 -16 21q0 15 6 35t15.5 40.5t21 41.5t23.5 40t21.5 33t17 24t7.5 11q5 7 8 13.5t4 10t2 4.5q1 2 4 2q5 0 11 -7t6 -11q0 -1 -7 -15q-1 -1 -12.5 -17.5l-23 -33t-26.5 -41t-26 -45t-19 -42
t-8 -35.5z" />
    <glyph glyph-name="w" unicode="w" horiz-adv-x="558" 
d="M440 141q0 -19 4 -31q110 101 110 156q0 16 -11 16q-22 0 -62.5 -42.5t-40.5 -98.5zM334 189q15 20 24 29q11 11 24 11q12 0 12 -4q0 -1 -2 -3q-28 -28 -71.5 -94t-43.5 -102q0 -14 13 -14q19 0 58 24.5t82 61.5q-8 14 -8 35q0 58 51.5 110t81.5 52q18 0 18 -22
q0 -27 -36.5 -74t-90.5 -95q15 -35 62 -35q48 0 98 24t67 38.5t31 28.5q2 -1 1.5 -3.5t-2.5 -5.5q-38 -37 -91.5 -63t-107.5 -26q-50 0 -71 30q-108 -92 -161 -92q-19 0 -19 21q0 42 46 116l2 4l-1 1l-4 -3q-40 -44 -131 -117t-123 -73q-6 0 -6 6q0 39 44 107.5t88 134.5
t44 99q0 8 -1 12q0 4 2 4q7 0 14.5 -11t7.5 -26q0 -21 -85 -145t-85 -157q0 -4 5 -4q23 0 127 88t137 132z" />
    <glyph glyph-name="x" unicode="x" horiz-adv-x="397" 
d="M465 313l-72 -108q0 -3 -2 -3q-9 0 -9 18l9 30q0 2 -6 -1q-20 -14 -48 -31.5t-78.5 -46.5t-72.5 -42q-6 -36 -6 -78q0 -54 44 -54q66 0 169.5 59.5t148.5 102.5q1 -1 1 -4l-2 -7q-65 -53 -163 -106.5t-169 -53.5q-53 0 -53 59q0 29 5 67q-167 -102 -257 -193
q-4 -4 -7 -5.5t-4 0.5q0 16 33 51q43 43 236 156q8 50 20.5 94t20.5 52q10 13 23 13q7 0 3 -6q-28 -59 -42 -139q183 106 216 138q16 21 29 31q12 12 28 12q8 0 5 -5z" />
    <glyph glyph-name="y" unicode="y" horiz-adv-x="435" 
d="M-544 -696q39 0 80 12t84 40t81 56.5t85.5 77.5t82.5 86t86.5 100.5t82 102.5t83.5 108q-97 -16 -202.5 -61.5t-194.5 -106t-161.5 -126t-114 -128t-41.5 -106.5q0 -55 49 -55zM218 -105q-37 0 -66 -4q-60 -75 -100 -124t-99 -117.5t-103 -113t-100 -94t-102 -78
t-97 -47.5t-96 -19q-28 0 -46 15.5t-18 49.5q0 60 66.5 144.5t169 163t238.5 142t262 82.5q23 30 106.5 130.5t113.5 143.5q9 11 5 11l-8 -6q-179 -168 -246 -168q-10 0 -19 6.5t-9 21.5q0 31 38 82t76 97.5t38 67.5v7q0 3 2 3q3 0 10 -10t7 -18q0 -18 -38 -62.5t-76 -92.5
t-38 -77q0 -17 18 -17q39 0 152 93.5t146 137.5q1 1 3 1q3 0 7 -4.5t4 -9.5q0 -4 -16 -26.5t-48.5 -63t-60 -75t-72.5 -89.5t-64 -79q33 3 65 3q47 0 76.5 -15t29.5 -43q0 -47 -51 -100.5t-127 -89.5t-142 -36q-10 0 -10 5q2 1 7 1q101 0 202.5 72.5t101.5 146.5
q0 52 -92 52z" />
    <glyph glyph-name="z" unicode="z" horiz-adv-x="397" 
d="M-479 -662q0 -27 15.5 -39t35.5 -12q103 0 254.5 106t272.5 247t154 245q-138 -15 -276.5 -78.5t-236 -144.5t-158.5 -169t-61 -155zM421 273q3 0 3 -2q0 -21 -46.5 -60t-103 -74.5t-103 -65t-46.5 -31.5q0 -4 4 -4q1 0 12 1.5t22 1.5q56 0 88 -24t32 -84q0 -12 -4 -36
q23 2 69 2q58 0 94 -16t36 -49q0 -25 -11.5 -50.5t-23 -38.5t-14.5 -13t-3 2l2 4q28 33 28 90q0 64 -119 64q-20 0 -60 -2q-20 -81 -102 -188.5t-186.5 -199.5t-221.5 -156t-199 -64q-28 0 -49 15t-21 53q0 55 38.5 123t110.5 136t164 127.5t209 102.5t235 55q8 27 8 46
q0 51 -23.5 72.5t-71.5 21.5q-35 0 -71 -16l-36 -16q-6 0 -6 4q7 7 19 15q52 32 175 117t123 101q0 4 -10 4q-20 0 -79.5 -8.5t-88.5 -8.5t-29 14q0 22 41 55.5t63 33.5q3 0 3 -2q0 -1 -7 -3q-20 -6 -47 -27.5t-27 -45.5q0 -14 41 -14q42 0 105 12t77 23q5 3 7 3z" />
    <glyph glyph-name="braceleft" unicode="{" horiz-adv-x="259" 
d="M349 411l223 271q24 29 66.5 46.5t64.5 17.5l7 -3l-6 -3q-5 0 -19.5 -3.5t-44 -20t-50.5 -41.5l-218 -262q-17 -19 -72 -39.5t-61 -26.5q-3 -3 -3 -8q0 -8 8.5 -31t8.5 -32q0 -7 -8 -18l-167 -204q-34 -40 -34 -84q0 -13 2 -25t4 -17l2 -6q1 -2 1 -3q0 -2 -3 -2t-7 10.5
t-7.5 28t-3.5 32.5q0 39 39 87l37 45q110 133 129 156q6 8 6 15q0 10 -9.5 30t-9.5 25q0 3 2 5q6 6 55 22.5t68 37.5z" />
    <glyph glyph-name="bar" unicode="|" horiz-adv-x="269" 
d="M-95 -66v1l3 5q56 60 208 240q61 72 183.5 221t141.5 171q86 104 121 136q23 21 30 21l2 -1l-9 -9q-43 -40 -131 -145l-327 -394q-73 -88 -123.5 -146t-64.5 -72l-14 -14q-15 -14 -19 -14h-1z" />
    <glyph glyph-name="braceright" unicode="}" horiz-adv-x="421" 
d="M189 252l-223 -271q-24 -29 -66.5 -46.5t-64.5 -17.5l-7 3l6 3q5 0 19.5 3.5t44 20t50.5 41.5l218 262q17 19 72 39.5t61 26.5q3 3 3 8q0 8 -8.5 31t-8.5 32q0 7 8 18l167 204q34 40 34 84q0 13 -2 25t-4 18l-2 5q-1 2 -1 3q0 2 3 2t7 -10.5t7.5 -28t3.5 -32.5
q0 -39 -39 -87l-37 -45q-110 -133 -129 -156q-6 -7 -6 -15q0 -10 9.5 -30t9.5 -25q0 -3 -2 -5q-6 -6 -55 -22.5t-68 -37.5z" />
    <glyph glyph-name="asciitilde" unicode="~" horiz-adv-x="448" 
d="M354 101q-18 0 -51 8.5t-55 8.5q-14 0 -27 -3t-19 -7l-5 -3q-1 -1 -4 -1t-3 2l1 3q39 31 92 31q18 0 50.5 -8t46.5 -8q32 0 56 12q4 2 6 2t2 -2q0 -3 -12 -11t-34 -16t-44 -8z" />
    <glyph glyph-name="exclamdown" unicode="&#xa1;" horiz-adv-x="364" 
d="M385 360q11 0 11 -10q0 -12 -11.5 -22t-22.5 -10q-10 0 -10 12q0 10 11 20t22 10zM-114 -275q-6 -8 -14 -12.5t-13 -4.5l-5 -1q-15 0 -15 14q0 7 5 12q30 30 221.5 248.5t208.5 248.5q4 6 8 10t6 4l3 1q2 -1 2 -5q0 -9 -12 -21q-23 -24 -171 -208t-224 -286z" />
    <glyph glyph-name="cent" unicode="&#xa2;" horiz-adv-x="327" 
d="M360 388l-25 -28h2q32 0 32 -22q0 -37 -44 -73t-87 -36h-7l-137 -175q14 -5 32 -5q85 0 174 62q3 3 3 -1q0 -2 -10 -12q-89 -57 -178 -57q-15 0 -29 3q-17 -22 -25 -30q-7 -7 -11 -7l-3 2q10 10 31 37q-36 13 -36 50q0 46 42.5 106t110 106.5t130.5 50.5l28 34q9 9 15 9
l1 -1zM211 240q5 -3 16 -5q44 57 92 116q-85 -5 -170 -92.5t-85 -160.5q0 -29 23 -41q29 36 136 173q-18 5 -18 11q1 1 2 1zM236 235h4q38 0 73.5 32t35.5 66q0 17 -20 19q-72 -90 -93 -117z" />
    <glyph glyph-name="sterling" unicode="&#xa3;" horiz-adv-x="838" 
d="M-86 -32q95 0 183 56q-61 8 -128 8q-36 0 -65.5 -7t-44.5 -16t-15 -17q0 -11 20 -17.5t50 -6.5zM215 345l13 7q25 11 157 11h24q89 112 168 192q155 156 297 156q89 0 89 -62q0 -67 -66 -120t-136 -53q-16 0 -16 4l5 3q80 4 133.5 55t53.5 117q0 21 -15 34.5t-44 13.5
q-70 0 -130.5 -33t-125.5 -99q-61 -62 -174 -210q24 -1 98 -5t98 -4q36 0 62.5 2t35.5 4l8 2q2 0 2 -2q0 -6 -18 -10q-28 -7 -92 -7q-22 0 -94 5.5t-107 6.5q-59 -77 -98 -124t-97.5 -105t-112.5 -93q32 -4 143.5 -24t187.5 -20q174 0 267.5 70t93.5 155q0 15 4 15
q7 0 13.5 -8t6.5 -26q0 -32 -26.5 -68.5t-73 -69.5t-122 -54.5t-163.5 -21.5q-73 0 -129 6t-126 19.5t-92 16.5q-101 -60 -204 -60q-94 0 -94 32q0 9 16 19.5t54 19t88 8.5q66 0 134 -7q21 15 42 32t44 41t39 41t42.5 50t38.5 48.5t44 56t42 53.5h-20q-53 0 -94.5 -3
t-56.5 -6l-14 -3q-3 -1 -3 2z" />
    <glyph glyph-name="yen" unicode="&#xa5;" horiz-adv-x="695" 
d="M170 331q0 2 3 4t6 3l3 1q26 11 157 11q39 0 65 -2q27 100 27 213q0 59 -26.5 96t-79.5 37q-5 0 -12 -0.5t-8 -0.5q-5 0 -5 2q0 7 26 7q60 0 95 -35q35 -34 35 -126q0 -113 -22 -194l10 -1q31 29 92 77t154.5 113.5t198 111t182.5 45.5q17 0 18 -7q-5 -2 -11 -2
q-106 0 -307 -116t-314 -222q131 -7 141 -7q79 0 102 7q7 2 7 -1q0 -5 -19 -10q-28 -7 -91 -7q-16 0 -149 9q-13 -13 -27 -29l-47 -57q140 -7 151 -7q76 0 102 7q6 1 6 -1q0 -3 -18 -10q-24 -6 -92 -6q-17 0 -156 9q-173 -215 -197 -246q-10 -13 -26 -13l-12 2
q15 19 207 259h-5q-4 0 -11 0.5t-16 1t-20.5 0.5h-22.5q-53 0 -94.5 -3t-55.5 -6l-15 -3q-3 0 -3 2l13 7q25 11 157 11q24 0 80 -2l40 50q9 14 16 37q-22 2 -64 2q-53 0 -94.5 -3t-55.5 -7l-15 -3q-3 0 -3 2z" />
    <glyph glyph-name="brokenbar" unicode="&#xa6;" horiz-adv-x="269" 
d="M454 574l-147 -177q-7 -10 -12 -10l-4 3l150 182q86 104 121 136q23 21 30 21l2 -1l-9 -9q-43 -40 -131 -145zM-95 -66v1l3 5q56 60 208 240l77 92q7 7 10 7t4 -3l-80 -96q-73 -88 -123.5 -146t-64.5 -72l-14 -14q-15 -14 -19 -14h-1z" />
    <glyph glyph-name="section" unicode="&#xa7;" horiz-adv-x="487" 
d="M302 200q50 -33 50 -67q0 -58 -88 -97.5t-215 -39.5q-39 0 -72.5 6t-34.5 16q0 4 3 4q2 0 4 -1q44 -17 120 -17q57 0 115 15t98.5 44t40.5 62q0 27 -32.5 52.5t-71.5 42.5t-71.5 42.5t-32.5 52.5q0 32 28.5 61t75 50t91 35t91.5 24q-48 33 -48 67q0 58 88 97.5t215 39.5
q39 0 72.5 -6t34.5 -16q0 -4 -3 -4q-2 0 -4 1q-44 17 -120 17q-57 0 -115 -15t-98.5 -44t-40.5 -62q0 -27 32.5 -52.5t71.5 -42.5t71.5 -42.5t32.5 -52.5q0 -33 -28.5 -62t-75.5 -49.5t-91.5 -34.5t-92.5 -24zM293 206q39 7 80 19.5t86 31.5t74 47t29 60q0 21 -20.5 39
t-68 42.5t-62.5 33.5q-39 -7 -80 -19.5t-86 -31.5t-73.5 -47t-28.5 -60q0 -16 16 -33t34.5 -27.5t51 -27.5t48.5 -27z" />
    <glyph glyph-name="dieresis" unicode="&#xa8;" horiz-adv-x="551" 
d="M432 340q-10 0 -10 11q0 13 13 24t25 11q10 0 10 -12q0 -14 -12.5 -24t-25.5 -10zM313 340q-10 0 -10 12q0 13 13.5 23.5t24.5 10.5q10 0 10 -12q0 -13 -12.5 -23.5t-25.5 -10.5z" />
    <glyph glyph-name="copyright" unicode="&#xa9;" horiz-adv-x="716" 
d="M641 373q0 68 -47.5 108t-128.5 40q-74 0 -139.5 -27t-108 -69t-67 -91t-24.5 -95q0 -26 8 -49.5t26.5 -46.5t55.5 -37t88 -14q71 0 136 27t108 68.5t68 90.5t25 95zM302 82q-89 0 -140.5 38t-51.5 108q0 113 107.5 208t258.5 95q77 0 128.5 -40t51.5 -109
q0 -80 -53.5 -150.5t-135 -110t-165.5 -39.5zM406 333q-6 0 -6 5q0 9 9.5 20t9.5 13l-1 3q-7 0 -27 -17.5t-20 -31.5q0 -7 11 -7q32 0 70.5 34t38.5 67q0 27 -42 27q-83 0 -153.5 -66t-70.5 -138q0 -33 23.5 -52t68.5 -19q74 0 137.5 38t94.5 79q2 4 2 6l-4 4
q-104 -119 -228 -119q-73 0 -73 62q0 63 63 130.5t133 67.5q31 0 31 -25q0 -26 -24.5 -53.5t-42.5 -27.5z" />
    <glyph glyph-name="ordfeminine" unicode="&#xaa;" horiz-adv-x="425" 
d="M378 515q0 14 -20 14q-56 0 -119.5 -66.5t-63.5 -105.5q0 -11 7 -11q22 0 109 75.5t87 93.5zM375 377q24 0 53 13q3 0 3 -2q0 -4 -6 -7q-24 -12 -52 -12q-13 0 -22.5 10t-9.5 28q0 13 4 27.5t9 23t11 19t7 12.5q2 4 2 5t-3 -2q-50 -56 -114.5 -107.5t-86.5 -51.5
q-13 0 -13 18q0 51 69.5 116.5t132.5 65.5q18 0 30 -12q0 -2 1 -2q2 0 2 2l10 9q9 10 13 12q4 3 12 3q4 0 4 -2q0 -1 -1 -2q-27 -29 -54.5 -73.5t-27.5 -70.5q0 -20 27 -20z" />
    <glyph glyph-name="guillemotleft" unicode="&#xab;" horiz-adv-x="609" 
d="M320 115q0 -24 44.5 -93.5t65.5 -90.5q4 -4 4 -7q0 -2 -2 -2l-9 5q-22 19 -75.5 93.5t-53.5 99.5q0 26 216 127.5t240 101.5q4 0 4 -3q0 -2 -9 -5q-85 -32 -255 -119t-170 -107zM161 141q0 -28 51.5 -107t73.5 -101q4 -4 4 -6t-3 -2l-8 4q-23 20 -83.5 105t-60.5 112
q0 26 202 121.5t227 95.5q4 0 4 -3q0 -1 -9 -5q-83 -32 -240.5 -113t-157.5 -101z" />
    <glyph glyph-name="registered" unicode="&#xae;" horiz-adv-x="591" 
d="M442 408q0 4 -3 4q-18 0 -57 -49q25 8 42.5 21.5t17.5 23.5zM445 416q4 0 4 -4q0 -12 -20 -27.5t-49 -24.5q-4 -5 -27 -36t-32 -43t-31.5 -37t-38.5 -35.5t-38.5 -20.5t-43.5 -10q-41 0 -41 41q0 36 42.5 78.5t92.5 42.5q25 0 25 -19q0 -22 -21.5 -46t-39.5 -24
q-5 0 -5 2q0 1 2 1l3 1q16 1 34 20t18 44q0 17 -24 17q-41 0 -80 -39.5t-39 -80.5q0 -35 36 -35q21 0 42.5 10.5t44.5 33t37.5 39.5t39.5 49.5t34 43.5q-15 -4 -36 -4q-56 0 -56 30q0 13 16 29t56 30.5t93 14.5q35 0 64.5 -12t29.5 -40q0 -36 -42.5 -65t-105.5 -33v-11
q0 -37 6 -68q7 -37 24 -56.5t54 -19.5h4q64 42 101.5 103t37.5 118q0 68 -47.5 108t-128.5 40q-74 0 -139 -27t-107.5 -69t-67 -91t-24.5 -95q0 -26 8 -49.5t26 -46.5t55 -37t88 -14q106 0 194 57h-6q-66 0 -83 94q-4 20 -4 61v2h-13q-9 1 -9 3h22q0 27 9 27q4 0 2 -4
t-2 -22q63 5 100.5 33.5t37.5 63.5q0 21 -23.5 34t-59.5 13q-71 0 -113.5 -24t-42.5 -47q0 -28 47 -28q17 0 37 5q47 56 73 56zM277 82q-89 0 -140.5 38t-51.5 108q0 113 107.5 208t258.5 95q77 0 128.5 -40t51.5 -109q0 -80 -53.5 -150.5t-135 -110t-165.5 -39.5z" />
    <glyph glyph-name="macron" unicode="&#xaf;" horiz-adv-x="454" 
d="M348 340q0 16 53 16q7 0 36.5 -1t44.5 -1q23 0 32 3q0 -17 -35 -17q-12 0 -41 1.5t-50.5 1t-38.5 -4.5q-1 0 -1 2z" />
    <glyph glyph-name="degree" unicode="&#xb0;" horiz-adv-x="225" 
d="M290 522q0 26 -24 26q-14 0 -27 -13.5t-13 -31.5q0 -24 21 -24q19 0 31 14t12 29zM240 469q-32 0 -32 27q0 25 22.5 43t43.5 18q31 0 31 -28q0 -20 -21.5 -40t-43.5 -20z" />
    <glyph glyph-name="twosuperior" unicode="&#xb2;" horiz-adv-x="387" 
d="M474 616q0 6 -5 6q-18 0 -41.5 -22t-33.5 -48q32 13 56 32.5t24 31.5zM605 651q0 -40 -40 -76t-102.5 -64.5t-129 -55t-131 -59.5t-95.5 -67q-2 -2 2 -2q15 3 32 3q33 0 76 -8.5t90 -8.5q57 0 105 48q48 52 48 77q0 5 1 5q6 0 6 -10q0 -12 -23.5 -42t-46.5 -54l-23 -24
q-13 -7 -45 -7q-24 0 -85 5.5t-86 5.5q-19 0 -33.5 -1t-22 -3t-12.5 -4t-7 -3t-3 -1l-2 2l11 14q39 39 107 77t133.5 66.5t126 57t98 61.5t37.5 69q0 44 -78 44q-89 0 -152 -45.5t-63 -87.5q0 -25 30 -25q28 0 56 11q9 29 40.5 54.5t52.5 25.5q8 0 8 -5q0 -15 -27.5 -38
t-64.5 -38q-3 -9 -3 -18l1 -12q2 -5 1 -5t-3 1.5t-4.5 6.5t-2.5 12q0 8 1 12q-30 -11 -56 -11q-21 0 -32 9.5t-11 23.5q0 42 70.5 87.5t160.5 45.5q41 0 65.5 -14t24.5 -35z" />
    <glyph glyph-name="threesuperior" unicode="&#xb3;" horiz-adv-x="387" 
d="M302 384q14 0 34 15t31 38q-27 -3 -49 -20t-22 -29q0 -4 6 -4zM428 547l2 -1q76 -13 76 -70q0 -56 -71.5 -114.5t-172.5 -58.5q-44 0 -71 18t-27 50q0 53 58.5 100.5t117.5 48.5q50 0 50 -36q0 -19 -13 -42q27 0 27 -10q-1 -3 -2 -3l-1 1q-6 8 -26 8h-1q-15 -26 -39 -44
t-45 -18q-9 0 -9 6q0 16 28.5 36.5t59.5 23.5q10 22 10 42q0 31 -43 31q-49 0 -103.5 -41.5t-54.5 -104.5q0 -62 88 -62q83 0 154 52.5t71 123.5q0 23 -12.5 37t-28 17.5t-28 5.5t-12.5 4q0 5 10 5q64 0 116 33t52 71q0 39 -78 39q-86 0 -128 -42q-6 -6 -9 -11.5t-4 -8.5
t-2 -3q-6 0 -6 8q0 11 16.5 24.5t52 25t78.5 11.5q95 0 95 -45q0 -38 -55.5 -70t-112.5 -35q-7 0 -7 -2z" />
    <glyph glyph-name="acute" unicode="&#xb4;" horiz-adv-x="433" 
d="M470 397q-16 0 -61 -18t-62 -31q-1 -1 -3 -1q-3 0 -3 2q0 8 43.5 38t63.5 30q8 0 18 -6.5t10 -10.5q0 -3 -6 -3z" />
    <glyph glyph-name="paragraph" unicode="&#xb6;" horiz-adv-x="569" 
d="M95 -80q-1 -4 -3.5 -6.5t-4.5 -3.5h-2q-3 0 -3 6l1 10q24 70 152.5 238.5t267.5 325t207 212.5q37 31 47 31q6 0 6 -6q0 -8 -16 -21q-28 -24 -120 -118t-207.5 -219.5t-211.5 -254t-113 -194.5zM279 333q56 64 142 158.5t126 140t40 52.5q0 8 -26 8q-102 0 -189 -24.5
t-141.5 -63t-85 -83.5t-30.5 -89q0 -102 145 -102zM259 322q-89 0 -130 34t-41 87q0 38 30.5 81t87.5 83t154 66.5t214 26.5q41 0 41 -11q0 -2 -8 -12q-38 -38 -75 -76.5t-121 -132t-153.5 -176.5t-146 -189.5t-123.5 -192.5q-3 -4 -4 -4l-3 5q0 79 282 404q3 3 3 4
q0 3 -7 3z" />
    <glyph glyph-name="periodcentered" unicode="&#xb7;" horiz-adv-x="294" 
d="M248 148q13 0 13 -13q0 -12 -12 -23t-24 -11t-12 11q0 12 11.5 24t23.5 12z" />
    <glyph glyph-name="cedilla" unicode="&#xb8;" horiz-adv-x="398" 
d="M115 -73q-20 -9 -20 -23q0 -3 14.5 -14t14.5 -22q0 -18 -21 -31.5t-53 -13.5q-28 0 -28 8q1 1 2 1t6 -1t9 -1q31 0 48.5 12.5t17.5 29.5q0 11 -11 18t-11 10q0 7 11.5 18t17.5 11q2 0 3 -2z" />
    <glyph glyph-name="onesuperior" unicode="&#xb9;" horiz-adv-x="416" 
d="M180 306q45 0 93 32q-8 1 -17 1q-33 0 -57.5 -6t-32.5 -11.5t-8 -9.5q0 -6 22 -6zM349 313l-1 -2q-18 22 -66 26q-54 -35 -107 -35q-34 0 -34 13q0 5 10.5 11t38.5 11t67 5q13 0 20 -1q45 32 104 103.5t121 142t119 105.5h-6q-63 -11 -125 -41t-103 -73q-7 -8 -13 -17.5
t-8 -14.5l-3 -5q-4 0 -4 9q0 41 92 89t186 61q10 5 14 5q2 -1 2 -2q-1 -1 -2 -1q-36 -13 -83 -60t-87 -100t-94.5 -112t-100.5 -90q28 -3 45.5 -11t17.5 -16z" />
    <glyph glyph-name="ordmasculine" unicode="&#xba;" horiz-adv-x="303" 
d="M316 461q0 13 -7.5 19.5t-30.5 6.5q-24 0 -74.5 -64t-50.5 -88q0 -11 11 -11q51 0 101.5 52.5t50.5 84.5zM227 476q-4 -1 -12 -1q-13 0 -13 3q0 4 41 12l3 1l4 3q31 27 49 34q2 1 5 1h2v-1q0 -2 -7.5 -10.5t-14.5 -15.5l-8 -7q-2 -2 -2 -3l2 -1q5 0 44.5 9.5t55.5 9.5
q21 0 21 -6l-5 -2q-36 0 -93 -11l-1 -1h1q15 -2 25 -11t10 -20q0 -37 -60.5 -89t-114.5 -52q-11 0 -16 6t-5 12q0 25 26.5 64.5t63.5 74.5q0 1 -1 1z" />
    <glyph glyph-name="guillemotright" unicode="&#xbb;" horiz-adv-x="604" 
d="M426 170q0 24 -44.5 93.5t-65.5 90.5q-4 4 -4 7q0 2 2 2l9 -5q22 -18 75.5 -93t53.5 -100q0 -26 -215.5 -127.5t-240.5 -101.5q-4 0 -4 3q0 2 10 5q85 32 254.5 119t169.5 107zM585 144q0 28 -51.5 107t-73.5 101q-4 4 -4 6t3 2l8 -4q23 -19 84 -104.5t61 -112.5
q0 -26 -202.5 -121.5t-227.5 -95.5q-4 0 -4 3q0 2 10 5q84 32 240.5 113t156.5 101z" />
    <glyph glyph-name="onequarter" unicode="&#xbc;" horiz-adv-x="894" 
d="M180 306q45 0 93 32q-8 1 -17 1q-33 0 -57.5 -6t-32.5 -11.5t-8 -9.5q0 -6 22 -6zM349 313l-1 -2q-18 22 -66 26q-54 -35 -107 -35q-34 0 -34 13q0 5 10.5 11t38.5 11t67 5q13 0 20 -1q45 32 104 103.5t121 142t119 105.5h-6q-63 -11 -125 -41t-103 -73q-7 -8 -13 -17.5
t-8 -14.5l-3 -5q-4 0 -4 9q0 41 92 89t186 61q10 5 14 5q2 -1 2 -2q-1 -1 -2 -1q-36 -13 -83 -60t-87 -100t-94.5 -112t-100.5 -90q28 -3 45.5 -11t17.5 -16zM1 -23q0 2 4 6q93 49 319 214q86 63 260 200t217 169q119 87 177 119q30 17 40 17l2 -2q0 -1 -12 -8
q-50 -27 -197 -134q-43 -32 -218 -167.5t-261 -198.5q-110 -80 -185.5 -131.5t-96.5 -62.5l-21 -11q-21 -11 -27 -11zM472 132q-4 -4 1 -4q12 2 34 2q33 0 72 -7t66 -8q47 56 93 107q-20 0 -37 6.5t-17 18.5l3 1q11 -21 55 -22q60 63 92 82q5 3 8 3q2 0 2 -2q0 -1 -1.5 -1.5
t-5.5 -2t-8 -4.5q-29 -19 -77 -75q60 2 113 39t53 75q0 28 -43 28q-74 0 -197.5 -70.5t-205.5 -165.5zM535 -25q-5 0 -5 2q0 1 2 3q8 9 24 28t41.5 50t43.5 52q-104 8 -114 8q-29 0 -48.5 -2.5t-27.5 -5.5l-8 -2q-3 0 -3 3q0 8 17 25q84 84 210.5 160.5t208.5 76.5
q55 0 55 -36q0 -34 -57.5 -73.5t-125.5 -41.5q-36 -42 -87 -108h20q59 0 100 41q2 0 2 -1l-3 -6q-15 -25 -29 -32q-13 -8 -51 -8q-28 0 -43 1q-88 -112 -100 -124q-10 -10 -22 -10z" />
    <glyph glyph-name="onehalf" unicode="&#xbd;" horiz-adv-x="915" 
d="M180 306q45 0 93 32q-8 1 -17 1q-33 0 -57.5 -6t-32.5 -11.5t-8 -9.5q0 -6 22 -6zM349 313l-1 -2q-18 22 -66 26q-54 -35 -107 -35q-34 0 -34 13q0 5 10.5 11t38.5 11t67 5q13 0 20 -1q45 32 104 103.5t121 142t119 105.5h-6q-63 -11 -125 -41t-103 -73q-7 -8 -13 -17.5
t-8 -14.5l-3 -5q-4 0 -4 9q0 41 92 89t186 61q10 5 14 5q2 -1 2 -2q-1 -1 -2 -1q-36 -13 -83 -60t-87 -100t-94.5 -112t-100.5 -90q28 -3 45.5 -11t17.5 -16zM797 297q0 6 -5 6q-18 0 -41.5 -22t-33.5 -48q32 13 56 32.5t24 31.5zM1 -23q0 2 4 6q93 49 319 214
q86 63 260 200t217 169q119 87 177 119q30 17 40 17l2 -2q0 -1 -12 -8q-50 -27 -197 -134q-43 -32 -218 -167.5t-261 -198.5q-110 -80 -185.5 -131.5t-96.5 -62.5l-21 -11q-21 -11 -27 -11zM928 332q0 -40 -40 -76t-102.5 -64.5t-129 -55t-131 -59.5t-95.5 -67q-2 -2 2 -2
q15 3 32 3q33 0 76 -8.5t90 -8.5q57 0 105 48q48 52 48 77q0 5 1 5q6 0 6 -10q0 -12 -23 -42t-47 -54l-23 -24q-13 -7 -45 -7q-24 0 -85 5.5t-86 5.5q-19 0 -33.5 -1t-22 -3t-12.5 -4t-7 -3t-3 -1l-2 2l11 14q39 39 107 77t133.5 66.5t126 57t98 61.5t37.5 69q0 44 -78 44
q-89 0 -152 -45.5t-63 -87.5q0 -25 30 -25q28 0 56 11q9 29 40.5 54.5t52.5 25.5q8 0 8 -5q0 -15 -27.5 -38t-64.5 -38q-3 -9 -3 -18l1 -12q2 -5 1 -5t-3 1.5t-4.5 6.5t-2.5 12q0 8 1 12q-30 -11 -56 -11q-21 0 -32 9.5t-11 23.5q0 42 70.5 87.5t160.5 45.5q41 0 65.5 -14
t24.5 -35z" />
    <glyph glyph-name="threequarters" unicode="&#xbe;" horiz-adv-x="962" 
d="M302 384l-6 4q0 12 22 29t49 20q-11 -23 -31 -38t-34 -15zM70 -23q0 2 4 6q93 49 319 214q86 63 260 200t217 169q119 87 177 119q30 17 40 17l2 -2q0 -1 -12 -8q-50 -27 -197 -134q-43 -32 -218 -167.5t-261 -198.5q-110 -80 -185.5 -131.5t-96.5 -62.5l-21 -11
q-21 -11 -27 -11zM428 547l7 2q57 3 112.5 35t55.5 70q0 45 -95 45q-43 0 -78.5 -11.5t-52 -25t-16.5 -24.5q0 -8 6 -8q1 0 2 3t4 8.5t9 11.5q42 42 128 42q78 0 78 -39q0 -38 -52 -71t-116 -33q-10 0 -10 -5q0 -2 12.5 -4t28 -5.5t28 -17.5t12.5 -37q0 -71 -71 -123.5
t-154 -52.5q-88 0 -88 62q0 63 54.5 104.5t103.5 41.5q43 0 43 -31q0 -20 -10 -42q-31 -3 -59.5 -23.5t-28.5 -36.5q0 -6 9 -6q21 0 45 18t39 44h1q9 0 15.5 -2t8.5 -4l2 -2l1 -1l2 3q0 10 -27 10q13 23 13 42q0 36 -50 36q-59 -1 -117.5 -48.5t-58.5 -100.5q0 -32 27 -50
t71 -18q101 0 172.5 58.5t71.5 114.5q0 57 -76 70q-2 0 -2 1zM541 132q-4 -4 1 -4q12 2 34 2q33 0 72 -7t66 -8q47 56 93 107q-20 0 -37 6.5t-17 18.5l3 1q11 -21 55 -22q60 63 92 82q5 3 8 3q2 0 2 -2q0 -1 -1.5 -1.5t-5.5 -2t-8 -4.5q-29 -19 -77 -75q60 2 113 39t53 75
q0 28 -43 28q-74 0 -197.5 -70.5t-205.5 -165.5zM604 -25q-5 0 -5 2q0 1 2 3q8 9 24 28t41.5 50t43.5 52q-104 8 -114 8q-29 0 -48.5 -2.5t-27.5 -5.5l-8 -2q-3 0 -3 3q0 8 17 25q84 84 210.5 160.5t208.5 76.5q55 0 55 -36q0 -34 -57.5 -73.5t-125.5 -41.5
q-36 -42 -87 -108h20q59 0 100 41q2 0 2 -1l-3 -6q-15 -25 -29 -32q-13 -8 -51 -8q-28 0 -43 1q-88 -112 -100 -124q-10 -10 -22 -10z" />
    <glyph glyph-name="questiondown" unicode="&#xbf;" horiz-adv-x="534" 
d="M500 360q11 0 11 -10q0 -12 -11.5 -22t-22.5 -10q-10 0 -10 12q0 10 11 20t22 10zM24 -197q0 -10 10 -10q31 0 75 37t60 83q-61 -14 -103 -48.5t-42 -61.5zM231 -80q-28 0 -48 -4q-15 -49 -70.5 -92t-93.5 -43q-15 0 -15 10q0 34 50 74.5t118 55.5q4 18 4 28
q0 7 -0.5 14.5t-0.5 10.5q0 2 1 2t3.5 -2.5t5 -11t2.5 -20.5q0 -10 -3 -19q21 4 48 4q43 0 76.5 -15t33.5 -51q0 -63 -96 -126t-234 -63q-49 0 -92 9.5t-76.5 36t-33.5 67.5q0 42 30 80.5t86.5 71.5t111 58t127.5 55q7 3 11 4q158 66 214 179q2 8 7 8q7 -2 7 -15
q0 -35 -73.5 -91t-171.5 -96q-320 -131 -320 -255q0 -53 44.5 -78.5t145.5 -25.5q108 0 199 58t91 129q0 53 -88 53z" />
    <glyph glyph-name="Agrave" unicode="&#xc0;" horiz-adv-x="1136" 
d="M1374 832q-3 0 -5 8t-10 23t-21 28q-3 3 -7 5.5t-6 3.5t-2 2q0 4 11.5 8.5t21.5 4.5t17 -17.5t7 -40.5q0 -25 -6 -25zM355 148q-10 0 -10 7q0 40 57.5 93t151.5 94q-26 -70 -96.5 -132t-102.5 -62zM870 414q-6 0 -16 -0.5t-15 -0.5q135 146 229 221.5t175 75.5q9 0 13 -3
q0 -3 -2 -6q-125 -135 -233 -292q-100 5 -151 5zM160 -77q-73 0 -104.5 32t-31.5 81q0 75 31 143.5t81 118.5t111.5 87.5t125.5 56t120 18.5q72 0 72 -63q0 -21 -8 -45q-106 -45 -173 -107t-67 -99q0 -14 16 -14q50 0 131.5 75t112.5 145q111 43 237 52q-174 -186 -221 -233
q-205 -200 -355 -238q-40 -10 -78 -10zM847 36q0 -59 42.5 -98.5t127.5 -39.5q50 0 95 17t65.5 33t20.5 22l-1 2l-5 -4q-78 -62 -182 -62q-65 0 -100 33.5t-35 86.5q0 121 175 375h46q127 0 179 50q0 2 -2 2l-5 -2q-74 -43 -185 -43h-29q77 112 166.5 219t151.5 167q3 3 3 6
l-1 3q-12 0 -38.5 -21.5t-47.5 -43.5l-20 -21l-16 2q-47 0 -99 -23t-109.5 -70.5t-106 -94.5t-115.5 -119q-126 -7 -240 -50q7 21 7 34q0 72 -93 72q-116 0 -231.5 -62.5t-190 -165.5t-74.5 -210q0 -115 154 -115q47 0 97 14.5t94 36.5t95.5 60.5t90.5 72t92 86t87 89.5
t87 94q7 8 11.5 12.5t11 11.5t11.5 13q6 0 18 0.5t18 0.5q29 0 149 -3q-169 -244 -169 -367z" />
    <glyph glyph-name="Aacute" unicode="&#xc1;" horiz-adv-x="1136" 
d="M1409 869q-16 0 -61 -18t-62 -31q-1 -1 -3 -1q-3 0 -3 2q0 8 43.5 38t63.5 30q8 0 18 -6.5t10 -10.5q0 -3 -6 -3zM355 148q32 0 102.5 62t96.5 132q-94 -41 -151.5 -94t-57.5 -93q0 -7 10 -7zM870 414q51 0 151 -5q108 157 233 292q2 3 2 6q-4 3 -13 3q-81 0 -175 -75.5
t-229 -221.5q5 0 15 0.5t16 0.5zM160 -77q60 0 128.5 29t116 58.5t129.5 106t113 109t121 129.5q31 33 46 49q-126 -9 -237 -52q-31 -70 -112.5 -145t-131.5 -75q-16 0 -16 14q0 37 67 99t173 107q8 24 8 45q0 63 -72 63q-56 0 -120 -18.5t-125.5 -56t-111.5 -87.5
t-81 -118.5t-31 -143.5q0 -49 31.5 -81t104.5 -32zM847 36q0 123 169 367q-120 3 -149 3q-6 0 -18 -0.5t-18 -0.5q-174 -188 -238 -250q-219 -209 -386 -236q-27 -4 -53 -4q-154 0 -154 115q0 107 74.5 210t190 165.5t231.5 62.5q93 0 93 -72q0 -13 -7 -34q114 43 240 50
q67 72 115.5 119t106 94.5t109.5 70.5t99 23q12 -1 16 -2q80 86 106 86q1 -1 1 -3q0 -3 -3 -6q-62 -60 -151.5 -167t-166.5 -219h29q111 0 185 43q3 2 5 2t2 -2q-52 -50 -179 -50h-46q-175 -254 -175 -375q0 -53 35 -86.5t100 -33.5q104 0 182 62l5 4q1 -1 1 -2
q0 -6 -20.5 -22t-65.5 -33t-95 -17q-85 0 -127.5 39.5t-42.5 98.5z" />
    <glyph glyph-name="Acircumflex" unicode="&#xc2;" horiz-adv-x="1136" 
d="M1398 846q-12 30 -21 30q-18 0 -51.5 -14t-51.5 -25q-1 -1 -3 -1q-1 0 -1 2q10 14 56 38t63 24q7 0 12 -25t5 -34q0 -2 -2 -2q-3 0 -6 7zM355 148q-10 0 -10 7q0 40 57.5 93t151.5 94q-26 -70 -96.5 -132t-102.5 -62zM870 414q-6 0 -16 -0.5t-15 -0.5q135 146 229 221.5
t175 75.5q9 0 13 -3q0 -3 -2 -6q-125 -135 -233 -292q-100 5 -151 5zM160 -77q-73 0 -104.5 32t-31.5 81q0 75 31 143.5t81 118.5t111.5 87.5t125.5 56t120 18.5q72 0 72 -63q0 -21 -8 -45q-106 -45 -173 -107t-67 -99q0 -14 16 -14q50 0 131.5 75t112.5 145q111 43 237 52
q-174 -186 -221 -233q-205 -200 -355 -238q-40 -10 -78 -10zM847 36q0 -59 42.5 -98.5t127.5 -39.5q50 0 95 17t65.5 33t20.5 22l-1 2l-5 -4q-78 -62 -182 -62q-65 0 -100 33.5t-35 86.5q0 121 175 375h46q127 0 179 50q0 2 -2 2l-5 -2q-74 -43 -185 -43h-29
q77 112 166.5 219t151.5 167q3 3 3 6l-1 3q-12 0 -38.5 -21.5t-47.5 -43.5l-20 -21l-16 2q-47 0 -99 -23t-109.5 -70.5t-106 -94.5t-115.5 -119q-126 -7 -240 -50q7 21 7 34q0 72 -93 72q-116 0 -231.5 -62.5t-190 -165.5t-74.5 -210q0 -115 154 -115q47 0 97 14.5t94 36.5
t95.5 60.5t90.5 72t92 86t87 89.5t87 94q7 8 11.5 12.5t11 11.5t11.5 13q6 0 18 0.5t18 0.5q29 0 149 -3q-169 -244 -169 -367z" />
    <glyph glyph-name="Atilde" unicode="&#xc3;" horiz-adv-x="1136" 
d="M355 148q32 0 102.5 62t96.5 132q-94 -41 -151.5 -94t-57.5 -93q0 -7 10 -7zM870 414q51 0 151 -5q108 157 233 292q2 3 2 6q-4 3 -13 3q-81 0 -175 -75.5t-229 -221.5q5 0 15 0.5t16 0.5zM160 -77q60 0 128.5 29t116 58.5t129.5 106t113 109t121 129.5q31 33 46 49
q-126 -9 -237 -52q-31 -70 -112.5 -145t-131.5 -75q-16 0 -16 14q0 37 67 99t173 107q8 24 8 45q0 63 -72 63q-56 0 -120 -18.5t-125.5 -56t-111.5 -87.5t-81 -118.5t-31 -143.5q0 -49 31.5 -81t104.5 -32zM847 36q0 123 169 367q-120 3 -149 3q-6 0 -18 -0.5t-18 -0.5
q-174 -188 -238 -250q-219 -209 -386 -236q-27 -4 -53 -4q-154 0 -154 115q0 107 74.5 210t190 165.5t231.5 62.5q93 0 93 -72q0 -13 -7 -34q114 43 240 50q67 72 115.5 119t106 94.5t109.5 70.5t99 23q12 -1 16 -2q80 86 106 86q1 -1 1 -3q0 -3 -3 -6q-62 -60 -151.5 -167
t-166.5 -219h29q111 0 185 43q3 2 5 2t2 -2q-52 -50 -179 -50h-46q-175 -254 -175 -375q0 -53 35 -86.5t100 -33.5q104 0 182 62l5 4q1 -1 1 -2q0 -6 -20.5 -22t-65.5 -33t-95 -17q-85 0 -127.5 39.5t-42.5 98.5zM1376 842q-18 0 -51 8.5t-55 8.5q-14 0 -27 -3.5t-19 -6.5
l-5 -3q-1 -1 -4 -1t-3 2l1 3q39 31 92 31q18 0 50.5 -8t46.5 -8q32 0 56 12q4 2 6 2t2 -2q0 -3 -12 -11t-34 -16t-44 -8z" />
    <glyph glyph-name="Adieresis" unicode="&#xc4;" horiz-adv-x="1136" 
d="M1406 841q-10 0 -10 11q0 13 13 24t25 11q10 0 10 -12q0 -14 -12.5 -24t-25.5 -10zM1287 841q-10 0 -10 12q0 13 13.5 23.5t24.5 10.5q10 0 10 -12q0 -13 -12.5 -23.5t-25.5 -10.5zM355 148q-10 0 -10 7q0 40 57.5 93t151.5 94q-26 -70 -96.5 -132t-102.5 -62zM870 414
q-6 0 -16 -0.5t-15 -0.5q135 146 229 221.5t175 75.5q9 0 13 -3q0 -3 -2 -6q-125 -135 -233 -292q-100 5 -151 5zM160 -77q-73 0 -104.5 32t-31.5 81q0 75 31 143.5t81 118.5t111.5 87.5t125.5 56t120 18.5q72 0 72 -63q0 -21 -8 -45q-106 -45 -173 -107t-67 -99
q0 -14 16 -14q50 0 131.5 75t112.5 145q111 43 237 52q-174 -186 -221 -233q-205 -200 -355 -238q-40 -10 -78 -10zM847 36q0 -59 42.5 -98.5t127.5 -39.5q50 0 95 17t65.5 33t20.5 22l-1 2l-5 -4q-78 -62 -182 -62q-65 0 -100 33.5t-35 86.5q0 121 175 375h46q127 0 179 50
q0 2 -2 2l-5 -2q-74 -43 -185 -43h-29q77 112 166.5 219t151.5 167q3 3 3 6l-1 3q-12 0 -38.5 -21.5t-47.5 -43.5l-20 -21l-16 2q-47 0 -99 -23t-109.5 -70.5t-106 -94.5t-115.5 -119q-126 -7 -240 -50q7 21 7 34q0 72 -93 72q-116 0 -231.5 -62.5t-190 -165.5t-74.5 -210
q0 -115 154 -115q47 0 97 14.5t94 36.5t95.5 60.5t90.5 72t92 86t87 89.5t87 94q7 8 11.5 12.5t11 11.5t11.5 13q6 0 18 0.5t18 0.5q29 0 149 -3q-169 -244 -169 -367z" />
    <glyph glyph-name="Aring" unicode="&#xc5;" horiz-adv-x="1136" 
d="M1353 862q0 14 -13 14q-9 0 -16.5 -7.5t-7.5 -18.5q0 -13 12 -13q11 0 18 8t7 17zM1322 825q-22 0 -22 19q0 17 16 30t30 13q21 0 21 -20q0 -14 -15 -28t-30 -14zM355 148q-10 0 -10 7q0 40 57.5 93t151.5 94q-26 -70 -96.5 -132t-102.5 -62zM870 414q-6 0 -16 -0.5
t-15 -0.5q135 146 229 221.5t175 75.5q9 0 13 -3q0 -3 -2 -6q-125 -135 -233 -292q-100 5 -151 5zM160 -77q-73 0 -104.5 32t-31.5 81q0 75 31 143.5t81 118.5t111.5 87.5t125.5 56t120 18.5q72 0 72 -63q0 -21 -8 -45q-106 -45 -173 -107t-67 -99q0 -14 16 -14
q50 0 131.5 75t112.5 145q111 43 237 52q-174 -186 -221 -233q-205 -200 -355 -238q-40 -10 -78 -10zM847 36q0 -59 42.5 -98.5t127.5 -39.5q50 0 95 17t65.5 33t20.5 22l-1 2l-5 -4q-78 -62 -182 -62q-65 0 -100 33.5t-35 86.5q0 121 175 375h46q127 0 179 50q0 2 -2 2
l-5 -2q-74 -43 -185 -43h-29q77 112 166.5 219t151.5 167q3 3 3 6l-1 3q-12 0 -38.5 -21.5t-47.5 -43.5l-20 -21l-16 2q-47 0 -99 -23t-109.5 -70.5t-106 -94.5t-115.5 -119q-126 -7 -240 -50q7 21 7 34q0 72 -93 72q-116 0 -231.5 -62.5t-190 -165.5t-74.5 -210
q0 -115 154 -115q47 0 97 14.5t94 36.5t95.5 60.5t90.5 72t92 86t87 89.5t87 94q7 8 11.5 12.5t11 11.5t11.5 13q6 0 18 0.5t18 0.5q29 0 149 -3q-169 -244 -169 -367z" />
    <glyph glyph-name="AE" unicode="&#xc6;" horiz-adv-x="1726" 
d="M1795 566q0 -8 9 -8q29 0 72 33t43 67q0 22 -26 36q-41 -33 -69.5 -69t-28.5 -59zM345 153q0 -7 10 -7q32 0 101.5 61t96.5 130q-92 -40 -150 -92.5t-58 -91.5zM1282 704q0 4 -14 4q-43 0 -91.5 -22t-104.5 -68t-102.5 -91t-114.5 -116q9 1 29 1q54 0 112.5 -2.5
t66.5 -2.5q103 169 216 293q3 3 3 4zM1198 -73q116 0 234 49t190 118t72 129q0 52 -73 52q-72 0 -168.5 -41.5t-188 -124t-125.5 -179.5q29 -3 59 -3zM334 130q-17 0 -17 15q0 35 67.5 95t172.5 106q9 29 9 50q0 63 -72 63q-57 0 -120.5 -19t-125.5 -56.5t-112 -87
t-80.5 -118t-30.5 -143.5q0 -113 136 -113q63 0 134.5 30t126 65.5t137 111.5t124 118.5t129.5 136.5l6.5 6.5t5.5 6t6 6.5q-136 -9 -253 -57q-32 -70 -113 -143t-130 -73zM1008 228q160 158 509 180q30 1 30 9q0 5 -9 11q-14 7 -55 22.5t-72 28t-57.5 33.5t-26.5 43
q0 61 117 118t272 57q120 0 180 -25q71 54 110 54q16 0 16 -6q0 -2 -6 -2q-46 0 -112 -49q35 -18 35 -45q0 -32 -58.5 -73t-105.5 -41q-10 0 -10 8q0 21 37 64.5t85 81.5q-52 25 -173 25q-88 0 -170.5 -23t-133.5 -62.5t-51 -83.5q0 -29 33 -52.5t73 -36t73 -26t33 -24.5
q0 -4 -4 -6.5t-12 -3.5t-14.5 -2t-17.5 -1.5t-15 -0.5q-111 -8 -207 -32.5t-172.5 -63.5t-120.5 -97.5t-44 -130.5q0 -117 155 -143q37 92 128.5 175t194 129t181.5 46q94 0 94 -61q0 -42 -42.5 -94t-112 -98.5t-171 -78.5t-206.5 -32q-16 0 -48 2q-15 -45 -15 -94
q0 -50 34 -83.5t109 -33.5q60 0 116 18.5t81 35t35 27.5q3 3 4 3l1 -3q0 -14 -30 -34t-88 -37.5t-120 -17.5q-83 0 -124.5 37.5t-41.5 89.5q0 48 18 95q-78 11 -129.5 48.5t-51.5 105.5q0 118 123 322q-115 5 -177 5q-22 0 -33 -1q-184 -196 -270 -273q-243 -213 -423 -217
q-155 0 -155 114q0 108 74.5 210.5t190 165t232.5 62.5q93 0 93 -71q0 -17 -9 -40q121 48 256 55q69 72 119 119.5t109.5 94.5t112 70t99.5 23q12 0 16 -2q81 86 106 86q1 -1 1 -3t-3 -5q-63 -61 -146.5 -168t-151.5 -218q99 3 168 43l3 1.5t3 -0.5q0 -1 -9 -10
q-52 -42 -170 -42q-19 -30 -55 -98.5t-36 -75.5z" />
    <glyph glyph-name="Ccedilla" unicode="&#xc7;" horiz-adv-x="722" 
d="M702 523q0 -10 8 -10q30 0 79 48.5t49 95.5q0 28 -39 40q-41 -46 -69 -95.5t-28 -78.5zM361 100q-6 0 -9.5 5t-3.5 11l-1 5q0 42 49.5 95.5t127.5 92.5t149 39q81 0 81 -60q0 -57 -54.5 -124.5t-135 -121.5t-179 -90.5t-181.5 -36.5q-15 0 -22 1q-3 0 -6 -1
q-29 -17 -29 -33q0 -4 19 -18t19 -29q0 -24 -27.5 -42t-71.5 -18q-36 0 -36 11q0 2 2 2q1 0 8 -1.5t13 -1.5q41 0 64.5 16.5t23.5 38.5q0 15 -14.5 24.5t-14.5 13.5q0 16 30 37l-1 2q-161 19 -161 184q0 96 61 204.5t158.5 198.5t234 150t273.5 60q38 0 70 -8q89 94 134 94
q12 0 12 -7q-1 -3 -6 -3q-52 0 -131 -86q57 -15 57 -48q0 -41 -68 -101t-114 -60q-11 0 -11 10q0 28 35.5 84t85.5 110q-28 7 -68 7q-104 0 -209.5 -38.5t-190.5 -102t-151.5 -141.5t-103.5 -162.5t-37 -158.5q0 -79 40.5 -129t131.5 -50q92 0 190.5 39.5t171.5 96t120 119
t47 108.5q0 53 -59 53q-75 0 -149.5 -39t-118.5 -91.5t-44 -94.5v-15z" />
    <glyph glyph-name="Egrave" unicode="&#xc8;" horiz-adv-x="790" 
d="M914 788q-3 0 -5 8t-10 23t-21 28q-3 3 -7 5.5t-6 3.5t-2 2q0 4 11.5 8.5t21.5 4.5t17 -17.5t7 -40.5q0 -25 -6 -25zM859 567q0 -7 9 -7q29 0 72 32.5t43 67.5q0 20 -25 35q-42 -32 -70.5 -68.5t-28.5 -59.5zM262 -72q87 0 179 29.5t160.5 73.5t112.5 97t44 97
q0 51 -73 51q-52 0 -123 -25.5t-141.5 -69t-130.5 -110t-85 -140.5q29 -3 57 -3zM327 -284q56 0 111.5 17t85 33.5t37.5 26.5q3 3 4 3l1 -3q0 -13 -32.5 -33t-92.5 -36t-123 -16q-82 0 -119 35.5t-37 86.5q0 50 18 96q-78 11 -129 47.5t-51 101.5q0 93 83.5 168t213.5 116.5
t284 50.5q30 1 30 9q0 7 -9 10q-13 7 -74.5 29t-99 46t-37.5 53q0 38 51 78t143 68t195 28q123 0 181 -25q71 55 110 55q15 0 15 -6q0 -3 -6 -3q-44 0 -112 -49q35 -17 35 -45q0 -31 -58.5 -72.5t-105.5 -41.5q-10 0 -10 9q0 20 36.5 63t85.5 83q-52 25 -173 25
q-88 0 -170.5 -23.5t-133.5 -63t-51 -83.5q0 -29 33 -52.5t73 -35.5t73 -26t33 -25q0 -10 -63 -13q-145 -10 -266 -49t-199.5 -111.5t-78.5 -165.5q0 -116 155 -142q37 92 128.5 175t194 129t181.5 46q94 0 94 -60q0 -42 -42.5 -94t-112 -98.5t-171 -78.5t-206.5 -32
q-16 0 -46 2q-15 -45 -15 -94q0 -50 32 -81.5t107 -31.5z" />
    <glyph glyph-name="Eacute" unicode="&#xc9;" horiz-adv-x="790" 
d="M1000 846q-16 0 -61 -18t-62 -31q-1 -1 -3 -1q-3 0 -3 2q0 8 43.5 38t63.5 30q8 0 18 -6.5t10 -10.5q0 -3 -6 -3zM859 567q0 -7 9 -7q29 0 72 32.5t43 67.5q0 20 -25 35q-42 -32 -70.5 -68.5t-28.5 -59.5zM262 -72q87 0 179 29.5t160.5 73.5t112.5 97t44 97q0 51 -73 51
q-52 0 -123 -25.5t-141.5 -69t-130.5 -110t-85 -140.5q29 -3 57 -3zM327 -284q56 0 111.5 17t85 33.5t37.5 26.5q3 3 4 3l1 -3q0 -13 -32.5 -33t-92.5 -36t-123 -16q-82 0 -119 35.5t-37 86.5q0 50 18 96q-78 11 -129 47.5t-51 101.5q0 93 83.5 168t213.5 116.5t284 50.5
q30 1 30 9q0 7 -9 10q-13 7 -74.5 29t-99 46t-37.5 53q0 38 51 78t143 68t195 28q123 0 181 -25q71 55 110 55q15 0 15 -6q0 -3 -6 -3q-44 0 -112 -49q35 -17 35 -45q0 -31 -58.5 -72.5t-105.5 -41.5q-10 0 -10 9q0 20 36.5 63t85.5 83q-52 25 -173 25q-88 0 -170.5 -23.5
t-133.5 -63t-51 -83.5q0 -29 33 -52.5t73 -35.5t73 -26t33 -25q0 -10 -63 -13q-145 -10 -266 -49t-199.5 -111.5t-78.5 -165.5q0 -116 155 -142q37 92 128.5 175t194 129t181.5 46q94 0 94 -60q0 -42 -42.5 -94t-112 -98.5t-171 -78.5t-206.5 -32q-16 0 -46 2
q-15 -45 -15 -94q0 -50 32 -81.5t107 -31.5z" />
    <glyph glyph-name="Ecircumflex" unicode="&#xca;" horiz-adv-x="790" 
d="M944 797q-12 30 -21 30q-18 0 -51.5 -14t-51.5 -25q-1 -1 -3 -1q-1 0 -1 2q10 14 56 38t63 24q7 0 12 -25t5 -34q0 -2 -2 -2q-3 0 -6 7zM859 567q0 -7 9 -7q29 0 72 32.5t43 67.5q0 20 -25 35q-42 -32 -70.5 -68.5t-28.5 -59.5zM262 -72q87 0 179 29.5t160.5 73.5
t112.5 97t44 97q0 51 -73 51q-52 0 -123 -25.5t-141.5 -69t-130.5 -110t-85 -140.5q29 -3 57 -3zM327 -284q56 0 111.5 17t85 33.5t37.5 26.5q3 3 4 3l1 -3q0 -13 -32.5 -33t-92.5 -36t-123 -16q-82 0 -119 35.5t-37 86.5q0 50 18 96q-78 11 -129 47.5t-51 101.5
q0 93 83.5 168t213.5 116.5t284 50.5q30 1 30 9q0 7 -9 10q-13 7 -74.5 29t-99 46t-37.5 53q0 38 51 78t143 68t195 28q123 0 181 -25q71 55 110 55q15 0 15 -6q0 -3 -6 -3q-44 0 -112 -49q35 -17 35 -45q0 -31 -58.5 -72.5t-105.5 -41.5q-10 0 -10 9q0 20 36.5 63t85.5 83
q-52 25 -173 25q-88 0 -170.5 -23.5t-133.5 -63t-51 -83.5q0 -29 33 -52.5t73 -35.5t73 -26t33 -25q0 -10 -63 -13q-145 -10 -266 -49t-199.5 -111.5t-78.5 -165.5q0 -116 155 -142q37 92 128.5 175t194 129t181.5 46q94 0 94 -60q0 -42 -42.5 -94t-112 -98.5t-171 -78.5
t-206.5 -32q-16 0 -46 2q-15 -45 -15 -94q0 -50 32 -81.5t107 -31.5z" />
    <glyph glyph-name="Edieresis" unicode="&#xcb;" horiz-adv-x="790" 
d="M960 805q-10 0 -10 11q0 13 13 24t25 11q10 0 10 -12q0 -14 -12.5 -24t-25.5 -10zM841 805q-10 0 -10 12q0 13 13.5 23.5t24.5 10.5q10 0 10 -12q0 -13 -12.5 -23.5t-25.5 -10.5zM859 567q0 -7 9 -7q29 0 72 32.5t43 67.5q0 20 -25 35q-42 -32 -70.5 -68.5t-28.5 -59.5z
M262 -72q87 0 179 29.5t160.5 73.5t112.5 97t44 97q0 51 -73 51q-52 0 -123 -25.5t-141.5 -69t-130.5 -110t-85 -140.5q29 -3 57 -3zM327 -284q56 0 111.5 17t85 33.5t37.5 26.5q3 3 4 3l1 -3q0 -13 -32.5 -33t-92.5 -36t-123 -16q-82 0 -119 35.5t-37 86.5q0 50 18 96
q-78 11 -129 47.5t-51 101.5q0 93 83.5 168t213.5 116.5t284 50.5q30 1 30 9q0 7 -9 10q-13 7 -74.5 29t-99 46t-37.5 53q0 38 51 78t143 68t195 28q123 0 181 -25q71 55 110 55q15 0 15 -6q0 -3 -6 -3q-44 0 -112 -49q35 -17 35 -45q0 -31 -58.5 -72.5t-105.5 -41.5
q-10 0 -10 9q0 20 36.5 63t85.5 83q-52 25 -173 25q-88 0 -170.5 -23.5t-133.5 -63t-51 -83.5q0 -29 33 -52.5t73 -35.5t73 -26t33 -25q0 -10 -63 -13q-145 -10 -266 -49t-199.5 -111.5t-78.5 -165.5q0 -116 155 -142q37 92 128.5 175t194 129t181.5 46q94 0 94 -60
q0 -42 -42.5 -94t-112 -98.5t-171 -78.5t-206.5 -32q-16 0 -46 2q-15 -45 -15 -94q0 -50 32 -81.5t107 -31.5z" />
    <glyph glyph-name="Igrave" unicode="&#xcc;" horiz-adv-x="790" 
d="M993 743q-3 0 -5 8t-10 23t-21 28q-3 3 -7 5.5t-6 3.5t-2 2q0 4 11.5 8.5t21.5 4.5t17 -17.5t7 -40.5q0 -25 -6 -25zM1228 746q0 3 -3 5t-5 3h-3q-70 0 -196 -115q50 1 100 21.5t78.5 45t28.5 40.5zM321 166q0 -10 12 -10q39 0 99.5 42.5t83.5 105.5q-70 -6 -132.5 -54
t-62.5 -84zM169 -66q86 0 167.5 33.5t145 85.5t133.5 127.5t124 145.5t125.5 155.5t129.5 142.5l8 8q-54 2 -128.5 26.5t-126.5 24.5q-78 0 -144.5 -49.5t-66.5 -112.5q0 -7 1 -12t1 -7l1 -3l-3 -4q-14 0 -14 28q0 56 76.5 117.5t165.5 61.5q52 0 124 -31t121 -32
q55 51 117.5 90t103.5 39q21 0 21 -12q0 -18 -33.5 -47t-89.5 -53t-108 -24h-6l-4 -4q-33 -33 -89.5 -106.5t-109 -147t-128 -156.5t-149.5 -145.5t-169.5 -104t-191.5 -41.5q-39 0 -75 9.5t-67 41t-31 80.5q0 67 41.5 136t105.5 122t146.5 86.5t160.5 33.5q48 0 73 -17.5
t25 -46.5t-13 -60q25 -1 43 -8t18 -18q0 -6 -3 -6q-1 0 -3 3q-15 20 -58 22q-30 -64 -98 -112t-117 -48q-26 0 -26 16q0 43 73.5 94t149.5 56q9 31 9 53q0 28 -19.5 46t-59.5 18q-48 0 -104 -16t-112 -48.5t-101 -76.5t-73.5 -105t-28.5 -128q0 -16 5 -33.5t18.5 -38.5
t43.5 -34.5t73 -13.5z" />
    <glyph glyph-name="Iacute" unicode="&#xcd;" horiz-adv-x="790" 
d="M1075 806q-16 0 -61 -18t-62 -31q-1 -1 -3 -1q-3 0 -3 2q0 8 43.5 38t63.5 30q8 0 18 -6.5t10 -10.5q0 -3 -6 -3zM1228 746q0 3 -3 5t-5 3h-3q-70 0 -196 -115q50 1 100 21.5t78.5 45t28.5 40.5zM321 166q0 -10 12 -10q39 0 99.5 42.5t83.5 105.5q-70 -6 -132.5 -54
t-62.5 -84zM169 -66q86 0 167.5 33.5t145 85.5t133.5 127.5t124 145.5t125.5 155.5t129.5 142.5l8 8q-54 2 -128.5 26.5t-126.5 24.5q-78 0 -144.5 -49.5t-66.5 -112.5q0 -7 1 -12t1 -7l1 -3l-3 -4q-14 0 -14 28q0 56 76.5 117.5t165.5 61.5q52 0 124 -31t121 -32
q55 51 117.5 90t103.5 39q21 0 21 -12q0 -18 -33.5 -47t-89.5 -53t-108 -24h-6l-4 -4q-33 -33 -89.5 -106.5t-109 -147t-128 -156.5t-149.5 -145.5t-169.5 -104t-191.5 -41.5q-39 0 -75 9.5t-67 41t-31 80.5q0 67 41.5 136t105.5 122t146.5 86.5t160.5 33.5q48 0 73 -17.5
t25 -46.5t-13 -60q25 -1 43 -8t18 -18q0 -6 -3 -6q-1 0 -3 3q-15 20 -58 22q-30 -64 -98 -112t-117 -48q-26 0 -26 16q0 43 73.5 94t149.5 56q9 31 9 53q0 28 -19.5 46t-59.5 18q-48 0 -104 -16t-112 -48.5t-101 -76.5t-73.5 -105t-28.5 -128q0 -16 5 -33.5t18.5 -38.5
t43.5 -34.5t73 -13.5z" />
    <glyph glyph-name="Icircumflex" unicode="&#xce;" horiz-adv-x="790" 
d="M1024 762q-12 30 -21 30q-18 0 -51.5 -14t-51.5 -25q-1 -1 -3 -1q-1 0 -1 2q10 14 56 38t63 24q7 0 12 -25t5 -34q0 -2 -2 -2q-3 0 -6 7zM1228 746q0 3 -3 5t-5 3h-3q-70 0 -196 -115q50 1 100 21.5t78.5 45t28.5 40.5zM321 166q0 -10 12 -10q39 0 99.5 42.5t83.5 105.5
q-70 -6 -132.5 -54t-62.5 -84zM169 -66q86 0 167.5 33.5t145 85.5t133.5 127.5t124 145.5t125.5 155.5t129.5 142.5l8 8q-54 2 -128.5 26.5t-126.5 24.5q-78 0 -144.5 -49.5t-66.5 -112.5q0 -7 1 -12t1 -7l1 -3l-3 -4q-14 0 -14 28q0 56 76.5 117.5t165.5 61.5q52 0 124 -31
t121 -32q55 51 117.5 90t103.5 39q21 0 21 -12q0 -18 -33.5 -47t-89.5 -53t-108 -24h-6l-4 -4q-33 -33 -89.5 -106.5t-109 -147t-128 -156.5t-149.5 -145.5t-169.5 -104t-191.5 -41.5q-39 0 -75 9.5t-67 41t-31 80.5q0 67 41.5 136t105.5 122t146.5 86.5t160.5 33.5
q48 0 73 -17.5t25 -46.5t-13 -60q25 -1 43 -8t18 -18q0 -6 -3 -6q-1 0 -3 3q-15 20 -58 22q-30 -64 -98 -112t-117 -48q-26 0 -26 16q0 43 73.5 94t149.5 56q9 31 9 53q0 28 -19.5 46t-59.5 18q-48 0 -104 -16t-112 -48.5t-101 -76.5t-73.5 -105t-28.5 -128q0 -16 5 -33.5
t18.5 -38.5t43.5 -34.5t73 -13.5z" />
    <glyph glyph-name="Idieresis" unicode="&#xcf;" horiz-adv-x="790" 
d="M1047 756q-10 0 -10 11q0 13 13 24t25 11q10 0 10 -12q0 -14 -12.5 -24t-25.5 -10zM928 756q-10 0 -10 12q0 13 13.5 23.5t24.5 10.5q10 0 10 -12q0 -13 -12.5 -23.5t-25.5 -10.5zM1228 746q0 3 -3 5t-5 3h-3q-70 0 -196 -115q50 1 100 21.5t78.5 45t28.5 40.5zM321 166
q0 -10 12 -10q39 0 99.5 42.5t83.5 105.5q-70 -6 -132.5 -54t-62.5 -84zM169 -66q86 0 167.5 33.5t145 85.5t133.5 127.5t124 145.5t125.5 155.5t129.5 142.5l8 8q-54 2 -128.5 26.5t-126.5 24.5q-78 0 -144.5 -49.5t-66.5 -112.5q0 -7 1 -12t1 -7l1 -3l-3 -4q-14 0 -14 28
q0 56 76.5 117.5t165.5 61.5q52 0 124 -31t121 -32q55 51 117.5 90t103.5 39q21 0 21 -12q0 -18 -33.5 -47t-89.5 -53t-108 -24h-6l-4 -4q-33 -33 -89.5 -106.5t-109 -147t-128 -156.5t-149.5 -145.5t-169.5 -104t-191.5 -41.5q-39 0 -75 9.5t-67 41t-31 80.5q0 67 41.5 136
t105.5 122t146.5 86.5t160.5 33.5q48 0 73 -17.5t25 -46.5t-13 -60q25 -1 43 -8t18 -18q0 -6 -3 -6q-1 0 -3 3q-15 20 -58 22q-30 -64 -98 -112t-117 -48q-26 0 -26 16q0 43 73.5 94t149.5 56q9 31 9 53q0 28 -19.5 46t-59.5 18q-48 0 -104 -16t-112 -48.5t-101 -76.5
t-73.5 -105t-28.5 -128q0 -16 5 -33.5t18.5 -38.5t43.5 -34.5t73 -13.5z" />
    <glyph glyph-name="Eth" unicode="&#xd0;" horiz-adv-x="1029" 
d="M144 -21q-40 0 -73 -11.5t-33 -22.5q0 -19 65 -19q79 0 158 41q-69 12 -117 12zM655 708q-104 0 -172 -44t-68 -124q0 -87 41.5 -160.5t110.5 -124.5q11 13 65 80t77.5 95t67.5 77.5t82 87.5q27 28 62 56q-107 57 -266 57zM1066 419q0 150 -132 225q-49 -46 -105 -112
t-127 -155t-113 -138q100 -64 203 -64q10 0 20 2t16 4l5 2q6 2 6 0q0 -3 -6 -7.5t-19.5 -8.5t-31.5 -4q-92 0 -198 70q-58 -66 -88 -97q91 -7 99 -7q20 0 36 2t23.5 4t8.5 2l1 -1q0 -8 -20 -12q-22 -5 -51 -5q-1 0 -104 10q-107 -109 -202 -159q134 -23 206 -23
q106 0 212 42.5t184.5 109t127.5 152t49 168.5zM340 132q27 8 92 8q23 0 36 -1q42 45 94 110q-77 56 -125 133t-48 164q0 28 10 54t36 54t81 45t134 17q164 0 279 -58q59 48 116.5 80.5t92.5 32.5q20 0 20 -9q-1 -2 -6 -2q-93 0 -211 -108q153 -82 153 -233q0 -87 -50 -174
t-132 -154.5t-193.5 -109.5t-227.5 -42q-70 0 -215 25q-90 -45 -174 -45q-36 0 -69 8t-33 23q0 14 40.5 26t91.5 12q50 0 139 -16q85 46 191 160q-11 1 -31 1q-34 0 -60 -3.5t-35 -6.5l-9 -3q-3 0 -3 1q0 5 16 11z" />
    <glyph glyph-name="Ntilde" unicode="&#xd1;" horiz-adv-x="1128" 
d="M1099 491q1 0 4.5 -16.5t23 -35.5t58.5 -23q291 340 454 340q35 0 35 -30q0 -34 -46 -88.5t-113.5 -105.5t-153.5 -88t-157 -37h-4q-75 -87 -187.5 -229.5t-173 -213.5t-79.5 -71q-16 0 -16 29q0 93 56 224.5t122.5 235.5t122.5 193t56 106q0 10 -10 10q-50 0 -164 -114
q-45 -45 -129.5 -143.5t-159 -181t-164 -167.5t-181 -134t-172.5 -49q-121 0 -121 121q0 92 70.5 201t179.5 185t208 76t99 -71q0 -30 -14 -68q24 -1 40.5 -8t16.5 -19q0 -6 -2 -6t-3 3q-15 21 -55 23q-29 -69 -96 -121.5t-114 -52.5q-25 0 -25 18q0 46 73 102t147 61
q10 32 10 62q0 69 -82 69q-62 0 -137.5 -41t-139.5 -105.5t-107.5 -152.5t-43.5 -173q0 -39 23.5 -67t76.5 -28q66 0 145.5 43.5t157 113t157.5 153.5t154.5 168.5t140.5 154t123.5 113t94.5 43.5q15 0 15 -18q0 -29 -52.5 -121t-115 -192.5t-115 -223t-52.5 -205.5
q2 -9 9 -9q16 0 69 66.5t150.5 195.5t172.5 217q-36 6 -61.5 24t-25.5 42q0 16 7 16zM1207 415h3q67 0 147.5 36t144 85.5t106.5 103t43 86.5q0 21 -25 21q-130 0 -419 -332zM346 178q35 0 94 45.5t83 114.5q-68 -5 -129 -54.5t-61 -93.5q0 -12 13 -12zM1374 761
q-18 0 -51 8.5t-55 8.5q-14 0 -27 -3t-19 -7l-5 -3q-1 -1 -4 -1t-3 2l1 3q39 31 92 31q18 0 50.5 -8t46.5 -8q32 0 56 12q4 2 6 2t2 -2q0 -3 -12 -11t-34 -16t-44 -8z" />
    <glyph glyph-name="Ograve" unicode="&#xd2;" horiz-adv-x="798" 
d="M819 781q-3 0 -5 8t-10 23t-21 28q-3 3 -7 5.5t-6 3.5t-2 2q0 4 11.5 8.5t21.5 4.5t17 -17.5t7 -40.5q0 -25 -6 -25zM567 458q-1 10 -10 10q-49 0 -107.5 -56.5t-83.5 -135.5q85 40 143 93.5t58 88.5zM353 195q0 -15 2 -30t2 -16q0 -3 -2 -3q-3 0 -7 6.5t-7.5 21
t-3.5 32.5q0 28 7 53q-97 -41 -187 -41q-29 0 -52 3q-29 -77 -29 -143q0 -73 38 -118.5t120 -45.5q101 0 216 56t208.5 143.5t155.5 203.5t62 226q0 53 -20 92t-54.5 60t-73.5 30.5t-83 9.5q-108 0 -220.5 -36.5t-199 -94t-142 -133.5t-55.5 -149q0 -63 53 -84
q44 104 157 217q61 61 134 100t103 39q9 0 9 -4q0 -1 -11 -3q-88 -16 -199.5 -122.5t-164.5 -234.5q19 -4 48 -4q92 0 189 41q24 85 95.5 150t135.5 65q16 0 16 -17q0 -31 -68.5 -93.5t-161.5 -104.5q-10 -33 -10 -72zM0 330q0 49 34 106t97 110.5t143 98t180.5 71.5
t201.5 27q106 0 177 -54t71 -155q0 -95 -58 -206t-150 -204t-217.5 -155t-248.5 -62q-82 0 -132.5 45t-50.5 130q0 73 29 145q-76 23 -76 103z" />
    <glyph glyph-name="Oacute" unicode="&#xd3;" horiz-adv-x="798" 
d="M880 837q-16 0 -61 -18t-62 -31q-1 -1 -3 -1q-3 0 -3 2q0 8 43.5 38t63.5 30q8 0 18 -6.5t10 -10.5q0 -3 -6 -3zM567 458q-1 10 -10 10q-49 0 -107.5 -56.5t-83.5 -135.5q85 40 143 93.5t58 88.5zM353 195q0 -15 2 -30t2 -16q0 -3 -2 -3q-3 0 -7 6.5t-7.5 21t-3.5 32.5
q0 28 7 53q-97 -41 -187 -41q-29 0 -52 3q-29 -77 -29 -143q0 -73 38 -118.5t120 -45.5q101 0 216 56t208.5 143.5t155.5 203.5t62 226q0 53 -20 92t-54.5 60t-73.5 30.5t-83 9.5q-108 0 -220.5 -36.5t-199 -94t-142 -133.5t-55.5 -149q0 -63 53 -84q44 104 157 217
q61 61 134 100t103 39q9 0 9 -4q0 -1 -11 -3q-88 -16 -199.5 -122.5t-164.5 -234.5q19 -4 48 -4q92 0 189 41q24 85 95.5 150t135.5 65q16 0 16 -17q0 -31 -68.5 -93.5t-161.5 -104.5q-10 -33 -10 -72zM0 330q0 49 34 106t97 110.5t143 98t180.5 71.5t201.5 27
q106 0 177 -54t71 -155q0 -95 -58 -206t-150 -204t-217.5 -155t-248.5 -62q-82 0 -132.5 45t-50.5 130q0 73 29 145q-76 23 -76 103z" />
    <glyph glyph-name="Ocircumflex" unicode="&#xd4;" horiz-adv-x="798" 
d="M854 791q-12 30 -21 30q-18 0 -51.5 -14t-51.5 -25q-1 -1 -3 -1q-1 0 -1 2q10 14 56 38t63 24q7 0 12 -25t5 -34q0 -2 -2 -2q-3 0 -6 7zM567 458q-1 10 -10 10q-49 0 -107.5 -56.5t-83.5 -135.5q85 40 143 93.5t58 88.5zM353 195q0 -15 2 -30t2 -16q0 -3 -2 -3
q-3 0 -7 6.5t-7.5 21t-3.5 32.5q0 28 7 53q-97 -41 -187 -41q-29 0 -52 3q-29 -77 -29 -143q0 -73 38 -118.5t120 -45.5q101 0 216 56t208.5 143.5t155.5 203.5t62 226q0 53 -20 92t-54.5 60t-73.5 30.5t-83 9.5q-108 0 -220.5 -36.5t-199 -94t-142 -133.5t-55.5 -149
q0 -63 53 -84q44 104 157 217q61 61 134 100t103 39q9 0 9 -4q0 -1 -11 -3q-88 -16 -199.5 -122.5t-164.5 -234.5q19 -4 48 -4q92 0 189 41q24 85 95.5 150t135.5 65q16 0 16 -17q0 -31 -68.5 -93.5t-161.5 -104.5q-10 -33 -10 -72zM0 330q0 49 34 106t97 110.5t143 98
t180.5 71.5t201.5 27q106 0 177 -54t71 -155q0 -95 -58 -206t-150 -204t-217.5 -155t-248.5 -62q-82 0 -132.5 45t-50.5 130q0 73 29 145q-76 23 -76 103z" />
    <glyph glyph-name="Otilde" unicode="&#xd5;" horiz-adv-x="798" 
d="M567 458q-1 10 -10 10q-49 0 -107.5 -56.5t-83.5 -135.5q85 40 143 93.5t58 88.5zM353 195q0 -15 2 -30t2 -16q0 -3 -2 -3q-3 0 -7 6.5t-7.5 21t-3.5 32.5q0 28 7 53q-97 -41 -187 -41q-29 0 -52 3q-29 -77 -29 -143q0 -73 38 -118.5t120 -45.5q101 0 216 56t208.5 143.5
t155.5 203.5t62 226q0 53 -20 92t-54.5 60t-73.5 30.5t-83 9.5q-108 0 -220.5 -36.5t-199 -94t-142 -133.5t-55.5 -149q0 -63 53 -84q44 104 157 217q61 61 134 100t103 39q9 0 9 -4q0 -1 -11 -3q-88 -16 -199.5 -122.5t-164.5 -234.5q19 -4 48 -4q92 0 189 41
q24 85 95.5 150t135.5 65q16 0 16 -17q0 -31 -68.5 -93.5t-161.5 -104.5q-10 -33 -10 -72zM0 330q0 49 34 106t97 110.5t143 98t180.5 71.5t201.5 27q106 0 177 -54t71 -155q0 -95 -58 -206t-150 -204t-217.5 -155t-248.5 -62q-82 0 -132.5 45t-50.5 130q0 73 29 145
q-76 23 -76 103zM834 793q-18 0 -51 8.5t-55 8.5q-14 0 -27 -3t-19 -7l-5 -3q-1 -1 -4 -1t-3 2l1 3q39 31 92 31q18 0 50.5 -8t46.5 -8q32 0 56 12q4 2 6 2t2 -2q0 -3 -12 -11t-34 -16t-44 -8z" />
    <glyph glyph-name="Odieresis" unicode="&#xd6;" horiz-adv-x="798" 
d="M850 793q-10 0 -10 11q0 13 13 24t25 11q10 0 10 -12q0 -14 -12.5 -24t-25.5 -10zM731 793q-10 0 -10 12q0 13 13.5 23.5t24.5 10.5q10 0 10 -12q0 -13 -12.5 -23.5t-25.5 -10.5zM567 458q-1 10 -10 10q-49 0 -107.5 -56.5t-83.5 -135.5q85 40 143 93.5t58 88.5zM353 195
q0 -15 2 -30t2 -16q0 -3 -2 -3q-3 0 -7 6.5t-7.5 21t-3.5 32.5q0 28 7 53q-97 -41 -187 -41q-29 0 -52 3q-29 -77 -29 -143q0 -73 38 -118.5t120 -45.5q101 0 216 56t208.5 143.5t155.5 203.5t62 226q0 53 -20 92t-54.5 60t-73.5 30.5t-83 9.5q-108 0 -220.5 -36.5t-199 -94
t-142 -133.5t-55.5 -149q0 -63 53 -84q44 104 157 217q61 61 134 100t103 39q9 0 9 -4q0 -1 -11 -3q-88 -16 -199.5 -122.5t-164.5 -234.5q19 -4 48 -4q92 0 189 41q24 85 95.5 150t135.5 65q16 0 16 -17q0 -31 -68.5 -93.5t-161.5 -104.5q-10 -33 -10 -72zM0 330
q0 49 34 106t97 110.5t143 98t180.5 71.5t201.5 27q106 0 177 -54t71 -155q0 -95 -58 -206t-150 -204t-217.5 -155t-248.5 -62q-82 0 -132.5 45t-50.5 130q0 73 29 145q-76 23 -76 103z" />
    <glyph glyph-name="multiply" unicode="&#xd7;" horiz-adv-x="461" 
d="M695 522q6 0 10 -2t5 -4l2 -2q0 -2 -8 -2q-72 0 -312 -156q-19 -152 -19 -180q0 -11 1.5 -20.5t3.5 -16.5t4 -11t4.5 -8.5t3.5 -5.5q2 -4 2 -5t-2 -1q-3 0 -8 5q-26 29 -26 83q0 15 19 148q-16 -10 -45 -29t-45 -29.5t-41.5 -27t-41 -26t-36.5 -22t-34.5 -19.5t-28.5 -14
t-25.5 -10t-18.5 -3q-15 0 -15 6q0 3 8 3q20 0 52 13t84 44.5t84.5 53t102.5 67.5q11 79 11 125q0 16 -3 29t-6 19l-3 6q0 1 2 1q4 0 10 -9.5t11 -25.5t5 -31q0 -34 -9 -102q79 52 124 80t98 53.5t80 25.5z" />
    <glyph glyph-name="Oslash" unicode="&#xd8;" horiz-adv-x="798" 
d="M760 538q-41 -30 -202.5 -155.5t-240.5 -183.5q-137 -100 -237 -165q10 -55 48 -87.5t106 -32.5q101 0 216 56t208.5 143.5t155.5 203.5t62 226q0 38 -11 69q-60 -41 -105 -74zM157 226q1 0 1 -2q0 -6 -5 -6q-27 0 -48 3q-29 -76 -29 -143q0 -12 2 -36q110 71 232 162
q79 58 240 185t201 156q51 37 110 77q-17 41 -53 67t-76 36t-87 10q-108 0 -220.5 -36.5t-199 -94t-142 -133.5t-55.5 -149q0 -63 52 -84q46 105 158 217q61 61 134 100t103 39q9 0 9 -5l-11 -2q-88 -16 -199.5 -122.5t-164.5 -234.5q19 -4 48 -4zM-22 -20q26 15 75 46
q-6 26 -6 56q0 73 29 145q-76 23 -76 103q0 49 34 106t97 110.5t143 98t180.5 71.5t201.5 27q74 0 134 -27.5t90 -81.5l35 22q28 15 35 15l3 -2q0 -2 -11 -8q-13 -6 -58 -36q20 -40 20 -91q0 -95 -58 -206t-150 -204t-217.5 -155t-248.5 -62q-64 0 -110.5 28.5t-63.5 82.5
l-56 -34q-19 -10 -24 -10q-2 0 -2 1q0 3 4 5z" />
    <glyph glyph-name="Ugrave" unicode="&#xd9;" horiz-adv-x="926" 
d="M953 733q-3 0 -5 8t-10 23t-21 28q-3 3 -7 5.5t-6 3.5t-2 2q0 4 11.5 8.5t21.5 4.5t17 -17.5t7 -40.5q0 -25 -6 -25zM396 492q7 0 7 -10q0 -32 -52 -78.5t-122 -77.5q24 64 77.5 115t89.5 51zM806 -191q-141 0 -141 114q0 74 72 199.5t169 244.5t185.5 214t130.5 128
q2 2 2 3q0 6 -12 6q-19 0 -80.5 -58.5t-142 -146.5t-181 -190t-194 -190t-185 -146.5t-150.5 -58.5q-25 0 -38 13.5t-13 33.5q0 44 44 114t107 143.5t126 147.5t107 143.5t44 114.5q0 50 -38.5 70.5t-92.5 20.5q-103 0 -202 -36t-168.5 -90.5t-112 -118.5t-42.5 -120
q0 -26 10.5 -44t26.5 -24.5t27.5 -9t21.5 -2.5q56 0 118 24q-5 -22 -5 -37q0 -29 11 -48q2 -3 3 -3q2 0 2 4q1 20 1 37q0 27 9 56q80 35 141.5 91t61.5 88q0 12 -12 12q-44 0 -114.5 -61t-94.5 -129q-65 -26 -121 -26q-25 0 -44 16t-19 46q0 55 39.5 119t105 119.5
t161.5 92.5t197 37q111 0 111 -79q0 -40 -44 -105.5t-106 -137t-124.5 -145t-106.5 -147t-44 -124.5q0 -64 68 -64q43 0 103 30.5t116.5 74t124.5 106t115.5 111.5t102.5 106t73 75q6 6 10 6q2 0 -6 -11q-2 -3 -29.5 -36.5t-54.5 -67.5t-63 -86.5t-63 -99t-46 -98t-19 -91.5
q0 -57 37 -97t122 -40q80 0 150 29.5t89 55.5q4 4 4 12q0 2 -1 2t-7 -6q-26 -27 -91 -56.5t-141 -29.5z" />
    <glyph glyph-name="Uacute" unicode="&#xda;" horiz-adv-x="926" 
d="M1023 782q-16 0 -61 -18t-62 -31q-1 -1 -3 -1q-3 0 -3 2q0 8 43.5 38t63.5 30q8 0 18 -6.5t10 -10.5q0 -3 -6 -3zM396 492q-36 0 -89.5 -51t-77.5 -115q70 31 122 77.5t52 78.5q0 10 -7 10zM806 -191q76 0 141 29.5t91 56.5q6 6 7 6t1 -2q0 -8 -4 -12q-19 -26 -89 -55.5
t-150 -29.5q-85 0 -122 40t-37 97q0 40 19 91.5t46 98t63 99t63 86.5t54.5 67.5t29.5 36.5q8 11 6 11l-10 -6q-18 -18 -73 -75t-102.5 -106t-115.5 -111.5t-124.5 -106t-116.5 -74t-103 -30.5q-68 0 -68 64q0 51 44 124.5t106.5 147t124.5 145t106 137t44 105.5
q0 79 -111 79q-101 0 -197 -37t-161.5 -92.5t-105 -119.5t-39.5 -119q0 -30 19 -46t44 -16q56 0 121 26q24 68 94.5 129t114.5 61q12 0 12 -12q0 -32 -61.5 -88t-141.5 -91q-9 -29 -9 -56l-1 -37q0 -4 -2 -4q-1 0 -3 3q-11 19 -11 48q0 15 5 37q-62 -24 -118 -24
q-10 0 -21.5 2.5t-27.5 9t-26.5 24.5t-10.5 44q0 56 42.5 120t112 118.5t168.5 90.5t202 36q54 0 92.5 -20.5t38.5 -70.5q0 -45 -44 -114.5t-107 -143.5t-126 -147.5t-107 -143.5t-44 -114q0 -20 13 -33.5t38 -13.5q59 0 150.5 58.5t185 146.5t194 190t181 190t142 146.5
t80.5 58.5q12 0 12 -6q0 -1 -2 -3q-42 -33 -130.5 -128t-185.5 -214t-169 -244.5t-72 -199.5q0 -114 141 -114z" />
    <glyph glyph-name="Ucircumflex" unicode="&#xdb;" horiz-adv-x="926" 
d="M1012 756q-13 30 -21 30q-18 0 -51.5 -14t-51.5 -25q-1 -1 -3 -1q-1 0 -1 2q10 14 56 38t63 24q7 0 12 -25t5 -34q0 -2 -2 -2q-3 0 -6 7zM396 492q7 0 7 -10q0 -32 -52 -78.5t-122 -77.5q24 64 77.5 115t89.5 51zM806 -191q-141 0 -141 114q0 74 72 199.5t169 244.5
t185.5 214t130.5 128q2 2 2 3q0 6 -12 6q-19 0 -80.5 -58.5t-142 -146.5t-181 -190t-194 -190t-185 -146.5t-150.5 -58.5q-25 0 -38 13.5t-13 33.5q0 44 44 114t107 143.5t126 147.5t107 143.5t44 114.5q0 50 -38.5 70.5t-92.5 20.5q-103 0 -202 -36t-168.5 -90.5
t-112 -118.5t-42.5 -120q0 -26 10.5 -44t26.5 -24.5t27.5 -9t21.5 -2.5q56 0 118 24q-5 -22 -5 -37q0 -29 11 -48q2 -3 3 -3q2 0 2 4q1 20 1 37q0 27 9 56q80 35 141.5 91t61.5 88q0 12 -12 12q-44 0 -114.5 -61t-94.5 -129q-65 -26 -121 -26q-25 0 -44 16t-19 46
q0 55 39.5 119t105 119.5t161.5 92.5t197 37q111 0 111 -79q0 -40 -44 -105.5t-106 -137t-124.5 -145t-106.5 -147t-44 -124.5q0 -64 68 -64q43 0 103 30.5t116.5 74t124.5 106t115.5 111.5t102.5 106t73 75q6 6 10 6q2 0 -6 -11q-2 -3 -29.5 -36.5t-54.5 -67.5t-63 -86.5
t-63 -99t-46 -98t-19 -91.5q0 -57 37 -97t122 -40q80 0 150 29.5t89 55.5q4 4 4 12q0 2 -1 2t-7 -6q-26 -27 -91 -56.5t-141 -29.5z" />
    <glyph glyph-name="Udieresis" unicode="&#xdc;" horiz-adv-x="926" 
d="M1016 757q-10 0 -10 11q0 13 13 24t25 11q10 0 10 -12q0 -14 -12.5 -24t-25.5 -10zM897 757q-10 0 -10 12q0 13 13.5 23.5t24.5 10.5q10 0 10 -12q0 -13 -12.5 -23.5t-25.5 -10.5zM396 492q7 0 7 -10q0 -32 -52 -78.5t-122 -77.5q24 64 77.5 115t89.5 51zM806 -191
q-141 0 -141 114q0 74 72 199.5t169 244.5t185.5 214t130.5 128q2 2 2 3q0 6 -12 6q-19 0 -80.5 -58.5t-142 -146.5t-181 -190t-194 -190t-185 -146.5t-150.5 -58.5q-25 0 -38 13.5t-13 33.5q0 44 44 114t107 143.5t126 147.5t107 143.5t44 114.5q0 50 -38.5 70.5
t-92.5 20.5q-103 0 -202 -36t-168.5 -90.5t-112 -118.5t-42.5 -120q0 -26 10.5 -44t26.5 -24.5t27.5 -9t21.5 -2.5q56 0 118 24q-5 -22 -5 -37q0 -29 11 -48q2 -3 3 -3q2 0 2 4q1 20 1 37q0 27 9 56q80 35 141.5 91t61.5 88q0 12 -12 12q-44 0 -114.5 -61t-94.5 -129
q-65 -26 -121 -26q-25 0 -44 16t-19 46q0 55 39.5 119t105 119.5t161.5 92.5t197 37q111 0 111 -79q0 -40 -44 -105.5t-106 -137t-124.5 -145t-106.5 -147t-44 -124.5q0 -64 68 -64q43 0 103 30.5t116.5 74t124.5 106t115.5 111.5t102.5 106t73 75q6 6 10 6q2 0 -6 -11
q-2 -3 -29.5 -36.5t-54.5 -67.5t-63 -86.5t-63 -99t-46 -98t-19 -91.5q0 -57 37 -97t122 -40q80 0 150 29.5t89 55.5q4 4 4 12q0 2 -1 2t-7 -6q-26 -27 -91 -56.5t-141 -29.5z" />
    <glyph glyph-name="Yacute" unicode="&#xdd;" horiz-adv-x="960" 
d="M1121 786q-16 0 -61 -18t-62 -31q-1 -1 -3 -1q-3 0 -3 2q0 8 43.5 38t63.5 30q8 0 18 -6.5t10 -10.5q0 -3 -6 -3zM525 519q0 12 -10 12q-37 0 -84 -53.5t-55 -126.5q64 40 106.5 87t42.5 81zM166 -265q-89 0 -127.5 38t-38.5 82q0 61 33.5 114.5t81.5 85t95 49.5t80 18
q11 0 11 -5l-1 -3q-58 0 -120 -32.5t-106 -92.5t-44 -128q0 -64 40.5 -91t94.5 -27q98 0 195.5 43t175.5 108.5t162.5 158t148 176t140 179t131.5 151.5q9 9 9 13l-1 1l-20 -13q-15 -11 -107 -91.5t-168.5 -143t-174.5 -119t-159 -56.5q-24 0 -35 13t-11 30q0 39 32 91
t77.5 102t91.5 98.5t78 94t32 75.5q0 69 -130 69q-92 0 -186.5 -40t-161.5 -98t-109.5 -122t-42.5 -111q0 -33 15 -48.5t50 -15.5q70 0 161 52q1 73 63 140t114 67q14 0 14 -14q0 -35 -51 -91.5t-123 -100.5v-13q0 -15 2.5 -25.5t4.5 -16.5l2 -5l-3 -2q-2 0 -7 4.5
t-10.5 17.5t-5.5 30q-90 -50 -164 -50q-84 0 -84 76q0 50 45.5 115t116 122.5t168.5 97t192 39.5q64 0 104 -20.5t40 -66.5q0 -33 -32 -82.5t-78 -100.5t-91.5 -101t-77.5 -96t-32 -73q0 -14 8.5 -23.5t22.5 -9.5q68 0 176 66t200.5 146.5t187.5 163t128 101.5
q13 11 34.5 28t68.5 45.5t73 28.5q18 0 18 -8q-5 -3 -12 -3q-42 0 -92 -34t-101.5 -91t-109 -131.5t-121 -157t-131 -164.5t-143.5 -156.5t-154.5 -131.5t-169.5 -91t-182 -34z" />
    <glyph glyph-name="Thorn" unicode="&#xde;" horiz-adv-x="1028" 
d="M144 -81q81 0 158 41t149.5 116.5t136 154.5t150.5 185.5t159 178.5q17 17 38 35q-51 9 -106 9q-92 0 -177 -20t-141 -58t-56 -83q0 -38 39.5 -59.5t112.5 -21.5q3 0 3 -2q0 -5 -17 -5q-169 0 -169 90q0 44 64 84.5t163 64t200 23.5q55 0 100 -7q152 126 225 126
q20 0 20 -9q-1 -2 -6 -2q-97 0 -220 -118q95 -18 152 -67t57 -131q0 -44 -24 -91t-72 -90.5t-112.5 -78t-152.5 -55.5t-185 -21q-25 0 -51 5t-26 15q0 4 2 4l1 -1q31 -14 88 -14q130 0 246 46t185 122.5t69 161.5q0 72 -52.5 116.5t-140.5 63.5q-51 -51 -120 -135
t-126 -157.5t-130 -154t-138.5 -137.5t-145.5 -94.5t-157 -37.5q-137 0 -137 124q0 54 33.5 118.5t88 120t131.5 93t156 37.5q38 0 67.5 -16t29.5 -53q0 -73 -68.5 -138.5t-131.5 -65.5h-3q-5 0 -5 3q0 1 17 5q65 14 117 62.5t52 126.5q0 66 -85 66q-88 0 -174.5 -51
t-142 -137.5t-55.5 -179.5q0 -107 117 -107z" />
    <glyph glyph-name="germandbls" unicode="&#xdf;" horiz-adv-x="796" 
d="M459 125q0 -6 10 -6q25 0 59.5 36t34.5 70q0 18 -10 29q-40 -32 -67 -68.5t-27 -60.5zM736 245q0 33 -21.5 63.5t-48 48t-48 34t-21.5 24.5q0 17 56.5 39t123.5 42.5t123.5 58t56.5 81.5q0 69 -129 69q-78 0 -152 -34t-137.5 -91t-124.5 -128t-123.5 -150t-123 -151
t-134 -137t-147.5 -103q-46 -22 -84 -22q-5 0 -9 1.5t-6 3.5l-2 2q0 2 7 3t14 1l7 1q64 8 132.5 58t131 122t128.5 157t137 168.5t144.5 152.5t162 111.5t179.5 42.5q76 0 114 -20.5t38 -56.5q0 -44 -56 -81.5t-123.5 -58t-123.5 -42.5t-56 -39q0 -12 21.5 -30t47 -36.5
t47 -48.5t21.5 -62q0 -59 -56 -119.5t-147.5 -100.5t-186.5 -40q-70 0 -108.5 24.5t-38.5 69.5q0 82 87 144.5t172 62.5q50 0 74 -15q29 23 53 34q4 2 7 2q5 0 5 -2l-6 -5q-26 -13 -52 -33q18 -15 18 -37q0 -33 -46.5 -76.5t-89.5 -43.5q-11 0 -11 10q0 20 35.5 65t79.5 81
q-19 13 -67 13q-33 0 -72.5 -13t-77 -37t-62.5 -63.5t-25 -86.5q0 -44 35 -65t91 -21q85 0 171 37.5t141 98.5t55 123z" />
    <glyph glyph-name="agrave" unicode="&#xe0;" horiz-adv-x="433" 
d="M575 151l-2 3q-19 -16 -59 -46q-139 -99 -214 -99q-15 0 -15 16q0 27 35 78.5t52 68.5q2 2 2 3q0 5 -14 5q-5 0 -10.5 -3.5t-9.5 -6.5l-3 -4l-8 -3q-1 0 -128.5 -91.5t-150.5 -91.5q-3 0 -4.5 2t-1.5 4l-1 3q0 42 51 100.5t119.5 100.5t115.5 42q29 0 29 -21v-11l1 -2
q3 0 8 9.5t5 19.5q0 25 -39 25q-50 0 -108.5 -33t-102 -78t-73 -90t-29.5 -70q0 -14 12 -14q24 0 77 34t120 84t96 67q2 1 3 1q3 0 0 -4q-7 -8 -18 -22t-29 -47t-18 -56q0 -24 21 -24q91 0 235 104q30 21 49 38q7 6 7 9zM403 330q-3 0 -5 8t-10 23t-21 28q-3 3 -7 5.5
t-6 3.5t-2 2q0 4 11.5 8.5t21.5 4.5t17 -17.5t7 -40.5q0 -25 -6 -25z" />
    <glyph glyph-name="aacute" unicode="&#xe1;" horiz-adv-x="433" 
d="M575 151l-7 -9q-19 -17 -49 -38q-144 -104 -235 -104q-21 0 -21 24q0 23 16.5 54t32.5 51l16 20q3 4 0 4l-3 -1q-29 -17 -96 -67t-120 -84t-77 -34q-12 0 -12 14q0 25 29.5 70t73 90t102 78t108.5 33q39 0 39 -25q0 -10 -5 -19.5t-8 -9.5q-1 0 -1 2v11q0 21 -29 21
q-47 0 -115.5 -42t-119.5 -100.5t-51 -100.5q1 -9 7 -9q23 0 150.5 91.5t128.5 91.5q5 3 8 3q12 14 23 14q14 0 14 -5q0 -1 -2 -3q-17 -17 -52 -68.5t-35 -78.5q0 -16 15 -16q75 0 214 99q40 30 59 46q2 0 2 -3zM503 397q-16 0 -61 -18t-62 -31q-1 -1 -3 -1q-3 0 -3 2
q0 8 43.5 38t63.5 30q8 0 18 -6.5t10 -10.5q0 -3 -6 -3z" />
    <glyph glyph-name="acircumflex" unicode="&#xe2;" horiz-adv-x="433" 
d="M575 151l-2 3q-19 -16 -59 -46q-139 -99 -214 -99q-15 0 -15 16q0 27 35 78.5t52 68.5q2 2 2 3q0 5 -14 5q-5 0 -10.5 -3.5t-9.5 -6.5l-3 -4l-8 -3q-1 0 -128.5 -91.5t-150.5 -91.5q-3 0 -4.5 2t-1.5 4l-1 3q0 42 51 100.5t119.5 100.5t115.5 42q29 0 29 -21v-11l1 -2
q3 0 8 9.5t5 19.5q0 25 -39 25q-50 0 -108.5 -33t-102 -78t-73 -90t-29.5 -70q0 -14 12 -14q24 0 77 34t120 84t96 67q2 1 3 1q3 0 0 -4q-7 -8 -18 -22t-29 -47t-18 -56q0 -24 21 -24q91 0 235 104q30 21 49 38q7 6 7 9zM475 357q-13 30 -21 30q-18 0 -51.5 -14t-51.5 -25
q-1 -1 -3 -1q-1 0 -1 2q10 14 56 38t63 24q7 0 12 -25t5 -34q0 -2 -2 -2q-3 0 -6 7z" />
    <glyph glyph-name="atilde" unicode="&#xe3;" horiz-adv-x="433" 
d="M575 151l-7 -9q-19 -17 -49 -38q-144 -104 -235 -104q-21 0 -21 24q0 23 16.5 54t32.5 51l16 20q3 4 0 4l-3 -1q-29 -17 -96 -67t-120 -84t-77 -34q-12 0 -12 14q0 25 29.5 70t73 90t102 78t108.5 33q39 0 39 -25q0 -10 -5 -19.5t-8 -9.5q-1 0 -1 2v11q0 21 -29 21
q-47 0 -115.5 -42t-119.5 -100.5t-51 -100.5q1 -9 7 -9q23 0 150.5 91.5t128.5 91.5q5 3 8 3q12 14 23 14q14 0 14 -5q0 -1 -2 -3q-17 -17 -52 -68.5t-35 -78.5q0 -16 15 -16q75 0 214 99q40 30 59 46q2 0 2 -3zM422 338q-11 0 -32 6t-35 6q-9 0 -17 -2t-12 -4l-3 -3
q-1 -1 -3 -1t-2 2q9 10 26.5 16.5t32.5 6.5q11 0 32 -5.5t29 -5.5q25 0 38 10q2 0 2 -2q0 -1 -7.5 -7t-21.5 -11.5t-27 -5.5z" />
    <glyph glyph-name="adieresis" unicode="&#xe4;" horiz-adv-x="433" 
d="M575 151l-2 3q-19 -16 -59 -46q-139 -99 -214 -99q-15 0 -15 16q0 27 35 78.5t52 68.5q2 2 2 3q0 5 -14 5q-5 0 -10.5 -3.5t-9.5 -6.5l-3 -4l-8 -3q-1 0 -128.5 -91.5t-150.5 -91.5q-3 0 -4.5 2t-1.5 4l-1 3q0 42 51 100.5t119.5 100.5t115.5 42q29 0 29 -21v-11l1 -2
q3 0 8 9.5t5 19.5q0 25 -39 25q-50 0 -108.5 -33t-102 -78t-73 -90t-29.5 -70q0 -14 12 -14q24 0 77 34t120 84t96 67q2 1 3 1q3 0 0 -4q-7 -8 -18 -22t-29 -47t-18 -56q0 -24 21 -24q91 0 235 104q30 21 49 38q7 6 7 9zM454 357q-10 0 -10 11q0 13 13 24t25 11q10 0 10 -12
q0 -14 -12.5 -24t-25.5 -10zM335 357q-10 0 -10 12q0 13 13.5 23.5t24.5 10.5q10 0 10 -12q0 -13 -12.5 -23.5t-25.5 -10.5z" />
    <glyph glyph-name="aring" unicode="&#xe5;" horiz-adv-x="433" 
d="M575 151l-2 3q-19 -16 -59 -46q-139 -99 -214 -99q-15 0 -15 16q0 27 35 78.5t52 68.5q2 2 2 3q0 5 -14 5q-5 0 -10.5 -3.5t-9.5 -6.5l-3 -4l-8 -3q-1 0 -128.5 -91.5t-150.5 -91.5q-3 0 -4.5 2t-1.5 4l-1 3q0 42 51 100.5t119.5 100.5t115.5 42q29 0 29 -21v-11l1 -2
q3 0 8 9.5t5 19.5q0 25 -39 25q-50 0 -108.5 -33t-102 -78t-73 -90t-29.5 -70q0 -14 12 -14q24 0 77 34t120 84t96 67q2 1 3 1q3 0 0 -4q-7 -8 -18 -22t-29 -47t-18 -56q0 -24 21 -24q91 0 235 104q30 21 49 38q7 6 7 9zM416 337q-22 0 -22 19q0 17 16 30t30 13q21 0 21 -20
q0 -14 -15 -28t-30 -14zM447 374q0 14 -13 14q-9 0 -16.5 -7.5t-7.5 -18.5q0 -13 12 -13q11 0 18 8t7 17z" />
    <glyph glyph-name="ae" unicode="&#xe6;" horiz-adv-x="540" 
d="M284 44q57 13 141.5 80.5t84.5 104.5q0 16 -12 16q-57 0 -131 -69t-88 -129l1 -3q1 -1 4 0zM311 148q-17 -8 -78 -55.5t-121 -86.5t-91 -39q-11 0 -11 13q0 21 31 66t76.5 90.5t105.5 80t110 34.5q30 0 30 -24q0 -9 -5 -19t-9 -10q-2 0 -2 2v7q0 14 -5 19t-17 5
q-36 0 -107 -43.5t-129 -103t-58 -96.5q0 -9 10 -9q19 0 81 42t124.5 90.5t70.5 52.5q4 2 7 2q2 0 3.5 -1.5l2.5 -2.5v-2q43 42 94 68t91 26q21 0 21 -15q0 -46 -88 -111t-171 -98q-4 -2 -4 -3t-1 -8t-1 -9q0 -31 16 -41.5t45 -10.5q49 0 105.5 20t105 51t81.5 56t56 47
q2 -2 2 -5l-5 -8q-76 -67 -177.5 -121.5t-188.5 -54.5q-62 0 -62 62q0 70 64 139q3 3 3 5q-1 1 -5 -1z" />
    <glyph glyph-name="ccedilla" unicode="&#xe7;" horiz-adv-x="398" 
d="M393 279q0 11 -10 16q-61 -59 -61 -96l5 -5q19 0 42.5 28t23.5 57zM439 345q5 0 5 -3q-21 -10 -49 -36q16 -6 16 -23q0 -27 -38 -67t-66 -40q-4 0 -4 8q0 17 22 50.5t52 63.5q-1 0 -4 0.5t-5 0.5q-52 0 -120.5 -52t-117.5 -127t-49 -134q0 -26 14 -38t34 -12q96 0 228 82
t180 139h1q2 0 2 -5q-2 -5 -7 -10q-53 -55 -182.5 -135t-229.5 -80h-6q-20 -9 -20 -23q0 -3 14.5 -14t14.5 -22q0 -18 -21 -31.5t-53 -13.5q-28 0 -28 8q1 1 2 1t6 -1t9 -1q31 0 48.5 12.5t17.5 29.5q0 11 -11 18t-11 10q0 5 5 11t11 10.5t6 5.5l-1 2q-47 9 -47 54
q0 66 57 144t134 129.5t133 51.5h6q26 24 46 35q4 2 6 2z" />
    <glyph glyph-name="egrave" unicode="&#xe8;" horiz-adv-x="355" 
d="M384 330q-3 0 -5 8t-10 23t-21 28q-3 3 -7 5.5t-6 3.5t-2 2q0 4 11.5 8.5t21.5 4.5t17 -17.5t7 -40.5q0 -25 -6 -25zM131 113q68 0 143 57t75 100q0 15 -20 15q-38 0 -95.5 -37.5t-104 -98t-46.5 -115.5q0 -57 62 -57q79 0 177.5 52.5t170.5 112.5q4 3 4 7l-3 5
q-36 -33 -82 -65.5t-120 -65.5t-135 -33q-50 0 -50 45q0 38 20 75q1 3 4 3zM311 270q10 0 10 -14q0 -31 -58 -82.5t-117 -51.5q-8 0 -8 4q0 12 27.5 46t70.5 66t75 32z" />
    <glyph glyph-name="eacute" unicode="&#xe9;" horiz-adv-x="355" 
d="M465 397q-16 0 -61 -18t-62 -31q-1 -1 -3 -1q-3 0 -3 2q0 8 43.5 38t63.5 30q8 0 18 -6.5t10 -10.5q0 -3 -6 -3zM131 113l-4 -3q-20 -37 -20 -75q0 -45 50 -45q61 0 135 33t120 65.5t82 65.5q3 0 3 -5l-4 -7q-72 -60 -170.5 -112.5t-177.5 -52.5q-62 0 -62 57
q0 55 46.5 115.5t104 98t95.5 37.5q20 0 20 -15q0 -43 -75 -100t-143 -57zM311 270q-32 0 -75 -32t-70.5 -66t-27.5 -46q0 -4 8 -4q59 0 117 51.5t58 82.5q0 14 -10 14z" />
    <glyph glyph-name="ecircumflex" unicode="&#xea;" horiz-adv-x="355" 
d="M421 357q-12 30 -21 30q-18 0 -51.5 -14t-51.5 -25q-1 -1 -3 -1q-1 0 -1 2q10 14 56 38t63 24q7 0 12 -25t5 -34q0 -2 -2 -2q-3 0 -6 7zM131 113q68 0 143 57t75 100q0 15 -20 15q-38 0 -95.5 -37.5t-104 -98t-46.5 -115.5q0 -57 62 -57q79 0 177.5 52.5t170.5 112.5
q4 3 4 7l-3 5q-36 -33 -82 -65.5t-120 -65.5t-135 -33q-50 0 -50 45q0 38 20 75q1 3 4 3zM311 270q10 0 10 -14q0 -31 -58 -82.5t-117 -51.5q-8 0 -8 4q0 12 27.5 46t70.5 66t75 32z" />
    <glyph glyph-name="edieresis" unicode="&#xeb;" horiz-adv-x="355" 
d="M421 340q-10 0 -10 11q0 13 13 24t25 11q10 0 10 -12q0 -14 -12.5 -24t-25.5 -10zM302 340q-10 0 -10 12q0 13 13.5 23.5t24.5 10.5q10 0 10 -12q0 -13 -12.5 -23.5t-25.5 -10.5zM131 113q68 0 143 57t75 100q0 15 -20 15q-38 0 -95.5 -37.5t-104 -98t-46.5 -115.5
q0 -57 62 -57q79 0 177.5 52.5t170.5 112.5q4 3 4 7l-3 5q-36 -33 -82 -65.5t-120 -65.5t-135 -33q-50 0 -50 45q0 38 20 75q1 3 4 3zM311 270q10 0 10 -14q0 -31 -58 -82.5t-117 -51.5q-8 0 -8 4q0 12 27.5 46t70.5 66t75 32z" />
    <glyph glyph-name="igrave" unicode="&#xec;" horiz-adv-x="263" 
d="M324 330q-3 0 -5 8t-10 23t-21 28q-3 3 -7 5.5t-6 3.5t-2 2q0 4 11.5 8.5t21.5 4.5t17 -17.5t7 -40.5q0 -25 -6 -25zM57 8q0 -28 35 -28q57 0 157 62t155 114q0 -5 1 -5q-3 -5 -8 -10q-45 -44 -150 -107.5t-155 -63.5q-41 0 -41 41q0 48 62.5 130.5t100.5 109.5q8 6 22 6
q9 0 9 -4q0 -2 -2 -4q-42 -36 -114 -122t-72 -119z" />
    <glyph glyph-name="iacute" unicode="&#xed;" horiz-adv-x="263" 
d="M402 397q-16 0 -61 -18t-62 -31q-1 -1 -3 -1q-3 0 -3 2q0 8 43.5 38t63.5 30q8 0 18 -6.5t10 -10.5q0 -3 -6 -3zM57 8q0 -28 35 -28q57 0 157 62t155 114q0 -5 1 -5q-3 -5 -8 -10q-45 -44 -150 -107.5t-155 -63.5q-41 0 -41 41q0 48 62.5 130.5t100.5 109.5q8 6 22 6
q9 0 9 -4q0 -2 -2 -4q-42 -36 -114 -122t-72 -119z" />
    <glyph glyph-name="icircumflex" unicode="&#xee;" horiz-adv-x="263" 
d="M360 357q-12 30 -21 30q-18 0 -51.5 -14t-51.5 -25q-1 -1 -3 -1q-1 0 -1 2q10 14 56 38t63 24q7 0 12 -25t5 -34q0 -2 -2 -2q-3 0 -6 7zM57 8q0 -28 35 -28q57 0 157 62t155 114q0 -5 1 -5q-3 -5 -8 -10q-45 -44 -150 -107.5t-155 -63.5q-41 0 -41 41q0 48 62.5 130.5
t100.5 109.5q8 6 22 6q9 0 9 -4q0 -2 -2 -4q-42 -36 -114 -122t-72 -119z" />
    <glyph glyph-name="idieresis" unicode="&#xef;" horiz-adv-x="263" 
d="M364 340q-10 0 -10 11q0 13 13 24t25 11q10 0 10 -12q0 -14 -12.5 -24t-25.5 -10zM245 340q-10 0 -10 12q0 13 13.5 23.5t24.5 10.5q10 0 10 -12q0 -13 -12.5 -23.5t-25.5 -10.5zM57 8q0 -28 35 -28q57 0 157 62t155 114q0 -5 1 -5q-3 -5 -8 -10q-45 -44 -150 -107.5
t-155 -63.5q-41 0 -41 41q0 48 62.5 130.5t100.5 109.5q8 6 22 6q9 0 9 -4q0 -2 -2 -4q-42 -36 -114 -122t-72 -119z" />
    <glyph glyph-name="eth" unicode="&#xf0;" horiz-adv-x="487" 
d="M352 251q0 20 -17 20q-48 0 -111 -52t-106 -117.5t-43 -104.5q0 -16 12 -16q23 0 88 56t121 122.5t56 91.5zM778 560l-2 -3q-36 -5 -115 -34q-40 -15 -52 -19q-11 -19 -60 -81q-5 -7 -39.5 -46.5t-61 -75.5t-58.5 -86.5t-50.5 -105t-18.5 -104.5q0 -29 8 -50.5
t18.5 -31.5t24 -15.5t20 -6.5t11.5 -1h1q7 0 7 -2q0 -4 -13 -4q-44 0 -72 28.5t-28 79.5q0 108 104 256q1 3 -1 3q-3 0 -7 -5q-128 -145 -210.5 -221t-121.5 -76q-16 0 -16 27q0 56 50.5 126t119 118t119.5 48q33 0 35 -28q0 -6 1 -6q3 0 7 6q79 86 123 142q7 9 23.5 28
t31 38t26.5 37q-66 -22 -74 -25q-49 -18 -67 -21q-6 -1 -10 -1q-3 0 -4.5 1t-2.5 2v1q0 2 6 2q12 0 72 22q47 17 88 30q31 55 31 104q0 53 -30 79l-4 4l1 3l6 -2q22 -12 34.5 -36.5t12.5 -52.5q0 -45 -26 -91l42 16q33 12 59.5 20t37.5 10l10 3h4q10 0 10 -3z" />
    <glyph glyph-name="ntilde" unicode="&#xf1;" horiz-adv-x="454" 
d="M456 338q-11 0 -32 6t-35 6q-9 0 -17 -2t-12 -4l-3 -3q-1 -1 -3 -1t-2 2q9 10 26.5 16.5t32.5 6.5q11 0 32 -5.5t29 -5.5q25 0 38 10q2 0 2 -2q0 -1 -7.5 -7t-21.5 -11.5t-27 -5.5zM290 329q0 -21 -46.5 -78.5t-102.5 -119t-67 -78.5q-2 -3 -2 -7q0 -2 2 -2l7 2
q94 70 197 133.5t135 63.5q9 0 9 -9q0 -16 -22.5 -45.5t-50 -58t-50.5 -63.5t-23 -60q0 -15 16 -15q58 0 142.5 50.5t160.5 113.5h1q1 0 1 -2l-3 -7q-78 -65 -168.5 -120.5t-138.5 -55.5q-24 0 -24 20q0 40 29.5 90.5t58.5 86.5t28 41q0 6 -6 6q-31 0 -145.5 -75.5
t-196.5 -143.5q-11 -11 -19 -11q-12 0 -12 3q0 1 2 3q11 12 28.5 32.5t63 75t81 99.5t66.5 90t35 62q1 2 5 2q8 -3 9 -23z" />
    <glyph glyph-name="ograve" unicode="&#xf2;" horiz-adv-x="356" 
d="M390 330q-3 0 -5 8t-10 23t-21 28q-3 3 -7 5.5t-6 3.5t-2 2q0 4 11.5 8.5t21.5 4.5t17 -17.5t7 -40.5q0 -25 -6 -25zM307 169q0 37 -46 37q-18 0 -24 -3q-5 -1 -5 1l1 2q9 10 62 24.5t99 14.5q8 0 14.5 -1.5t8.5 -3.5l2 -1l-6 -2q-43 0 -76.5 -4.5t-47 -9t-17.5 -8.5
l-1 -5q19 0 39 -12t20 -31q0 -55 -78.5 -121t-146.5 -66q-36 0 -36 32q0 30 29.5 83.5t72.5 98.5q66 69 113 76q6 0 6 -2q0 -1 -4 -4q-54 -34 -128 -119.5t-74 -138.5q0 -20 22 -20q68 0 134.5 67.5t66.5 115.5z" />
    <glyph glyph-name="oacute" unicode="&#xf3;" horiz-adv-x="356" 
d="M479 397q-16 0 -61 -18t-62 -31q-1 -1 -3 -1q-3 0 -3 2q0 8 43.5 38t63.5 30q8 0 18 -6.5t10 -10.5q0 -3 -6 -3zM307 169q0 37 -46 37q-18 0 -24 -3q-5 -1 -5 1l1 2q9 10 62 24.5t99 14.5q8 0 14.5 -1.5t8.5 -3.5l2 -1l-6 -2q-43 0 -76.5 -4.5t-47 -9t-17.5 -8.5l-1 -5
q19 0 39 -12t20 -31q0 -55 -78.5 -121t-146.5 -66q-36 0 -36 32q0 30 29.5 83.5t72.5 98.5q66 69 113 76q6 0 6 -2q0 -1 -4 -4q-54 -34 -128 -119.5t-74 -138.5q0 -20 22 -20q68 0 134.5 67.5t66.5 115.5z" />
    <glyph glyph-name="ocircumflex" unicode="&#xf4;" horiz-adv-x="356" 
d="M422 357q-12 30 -21 30q-18 0 -51.5 -14t-51.5 -25q-1 -1 -3 -1q-1 0 -1 2q10 14 56 38t63 24q7 0 12 -25t5 -34q0 -2 -2 -2q-3 0 -6 7zM307 169q0 37 -46 37q-18 0 -24 -3q-5 -1 -5 1l1 2q9 10 62 24.5t99 14.5q8 0 14.5 -1.5t8.5 -3.5l2 -1l-6 -2q-43 0 -76.5 -4.5
t-47 -9t-17.5 -8.5l-1 -5q19 0 39 -12t20 -31q0 -55 -78.5 -121t-146.5 -66q-36 0 -36 32q0 30 29.5 83.5t72.5 98.5q66 69 113 76q6 0 6 -2q0 -1 -4 -4q-54 -34 -128 -119.5t-74 -138.5q0 -20 22 -20q68 0 134.5 67.5t66.5 115.5z" />
    <glyph glyph-name="otilde" unicode="&#xf5;" horiz-adv-x="356" 
d="M388 338q-11 0 -32 6t-35 6q-9 0 -17 -2t-12 -4l-3 -3q-1 -1 -3 -1t-2 2q9 10 26.5 16.5t32.5 6.5q11 0 32 -5.5t29 -5.5q25 0 38 10q2 0 2 -2q0 -1 -7.5 -7t-21.5 -11.5t-27 -5.5zM307 169q0 37 -46 37q-18 0 -24 -3q-5 -1 -5 1l1 2q9 10 62 24.5t99 14.5q8 0 14.5 -1.5
t8.5 -3.5l2 -1l-6 -2q-43 0 -76.5 -4.5t-47 -9t-17.5 -8.5l-1 -5q19 0 39 -12t20 -31q0 -55 -78.5 -121t-146.5 -66q-36 0 -36 32q0 30 29.5 83.5t72.5 98.5q66 69 113 76q6 0 6 -2q0 -1 -4 -4q-54 -34 -128 -119.5t-74 -138.5q0 -20 22 -20q68 0 134.5 67.5t66.5 115.5z
" />
    <glyph glyph-name="odieresis" unicode="&#xf6;" horiz-adv-x="356" 
d="M402 340q-10 0 -10 11q0 13 13 24t25 11q10 0 10 -12q0 -14 -12.5 -24t-25.5 -10zM283 340q-10 0 -10 12q0 13 13.5 23.5t24.5 10.5q10 0 10 -12q0 -13 -12.5 -23.5t-25.5 -10.5zM307 169q0 37 -46 37q-18 0 -24 -3q-5 -1 -5 1l1 2q9 10 62 24.5t99 14.5q8 0 14.5 -1.5
t8.5 -3.5l2 -1l-6 -2q-43 0 -76.5 -4.5t-47 -9t-17.5 -8.5l-1 -5q19 0 39 -12t20 -31q0 -55 -78.5 -121t-146.5 -66q-36 0 -36 32q0 30 29.5 83.5t72.5 98.5q66 69 113 76q6 0 6 -2q0 -1 -4 -4q-54 -34 -128 -119.5t-74 -138.5q0 -20 22 -20q68 0 134.5 67.5t66.5 115.5z
" />
    <glyph glyph-name="divide" unicode="&#xf7;" horiz-adv-x="537" 
d="M290 220q-10 0 -10 12q0 13 13 23.5t24 10.5q10 0 10 -13t-12 -23t-25 -10zM120 333l3 -2q45 12 165 12q46 0 141 -6.5t118 -6.5q72 0 100 9q10 3 10 7q0 2 -2 2q-33 -8 -107 -8q-23 0 -118 5.5t-140 5.5q-113 0 -153 -10q-17 -3 -17 -8zM443 409q-10 0 -10 12
q0 13 13 23.5t24 10.5q10 0 10 -13t-12 -23t-25 -10z" />
    <glyph glyph-name="oslash" unicode="&#xf8;" horiz-adv-x="356" 
d="M359 272l-28 -34q37 7 63 7q8 0 14.5 -1.5t8.5 -3.5l2 -1l-6 -2q-46 0 -88 -6l-24 -29q29 -14 29 -35q0 -54 -76 -119t-144 -68l-30 -32q-15 -14 -19 -14h-1l3 6q11 12 36 40q-30 3 -30 32q0 30 29.5 83.5t72.5 98.5q66 69 113 76q6 0 6 -2q0 -1 -4 -4
q-54 -34 -128 -119.5t-74 -138.5q0 -18 20 -20q61 69 167 194l17 20q-14 6 -27 6q-18 0 -24 -3q-5 -1 -5 1l1 2q12 14 82 29q22 26 34 39q24 26 31 21q1 -1 -3 -5l-10 -10zM307 169q0 17 -12 26l-13 -15q-119 -141 -167 -193q66 5 129 70.5t63 111.5zM292 206l17 22
q-26 -6 -37 -13l-1 -5q7 0 21 -4z" />
    <glyph glyph-name="ugrave" unicode="&#xf9;" horiz-adv-x="466" 
d="M419 330q-3 0 -5 8t-10 23t-21 28q-3 3 -7 5.5t-6 3.5t-2 2q0 4 11.5 8.5t21.5 4.5t17 -17.5t7 -40.5q0 -25 -6 -25zM361 159q2 0 -3 -6q-60 -84 -60 -124q0 -18 11 -25t21 -7q53 0 132 46t144 101q5 5 5 7l-2 5q-55 -50 -134.5 -99.5t-130.5 -49.5q-10 0 -16.5 6
t-6.5 14q0 15 9 36t22.5 41.5t30.5 43t30.5 38t25.5 28.5t12 14q3 4 0 6t-10 2q-12 0 -32 -20q-59 -62 -172.5 -150t-159.5 -88q-11 0 -11 14q0 37 81 139.5t119 131.5q3 3 3 4q0 4 -12 4q-10 0 -19 -6q-40 -27 -117 -126t-77 -147q0 -24 22 -24q45 0 128 58.5t159 127.5
q5 5 8 5z" />
    <glyph glyph-name="uacute" unicode="&#xfa;" horiz-adv-x="466" 
d="M514 397q-16 0 -61 -18t-62 -31q-1 -1 -3 -1q-3 0 -3 2q0 8 43.5 38t63.5 30q8 0 18 -6.5t10 -10.5q0 -3 -6 -3zM361 159l-8 -5q-76 -69 -159 -127.5t-128 -58.5q-22 0 -22 24q0 48 77 147t117 126q9 6 19 6q12 0 12 -4q0 -1 -3 -4q-38 -29 -119 -131.5t-81 -139.5
q0 -14 11 -14q46 0 159.5 88t172.5 150q20 20 32 20q7 0 10 -2t0 -6q0 -1 -12 -14t-25.5 -28.5t-30.5 -38t-30.5 -43t-22.5 -41.5t-9 -36q0 -8 6.5 -14t16.5 -6q51 0 130.5 49.5t134.5 99.5q2 -1 2 -5l-5 -7q-65 -55 -144 -101t-132 -46q-10 0 -21 7t-11 25q0 40 60 124
q5 6 3 6z" />
    <glyph glyph-name="ucircumflex" unicode="&#xfb;" horiz-adv-x="466" 
d="M467 357q-13 30 -21 30q-18 0 -51.5 -14t-51.5 -25q-1 -1 -3 -1q-1 0 -1 2q10 14 56 38t63 24q7 0 12 -25t5 -34q0 -2 -2 -2q-3 0 -6 7zM361 159q2 0 -3 -6q-60 -84 -60 -124q0 -18 11 -25t21 -7q53 0 132 46t144 101q5 5 5 7l-2 5q-55 -50 -134.5 -99.5t-130.5 -49.5
q-10 0 -16.5 6t-6.5 14q0 15 9 36t22.5 41.5t30.5 43t30.5 38t25.5 28.5t12 14q3 4 0 6t-10 2q-12 0 -32 -20q-59 -62 -172.5 -150t-159.5 -88q-11 0 -11 14q0 37 81 139.5t119 131.5q3 3 3 4q0 4 -12 4q-10 0 -19 -6q-40 -27 -117 -126t-77 -147q0 -24 22 -24
q45 0 128 58.5t159 127.5q5 5 8 5z" />
    <glyph glyph-name="udieresis" unicode="&#xfc;" horiz-adv-x="466" 
d="M474 340q-10 0 -10 11q0 13 13 24t25 11q10 0 10 -12q0 -14 -12.5 -24t-25.5 -10zM355 340q-10 0 -10 12q0 13 13.5 23.5t24.5 10.5q10 0 10 -12q0 -13 -12.5 -23.5t-25.5 -10.5zM361 159q2 0 -3 -6q-60 -84 -60 -124q0 -18 11 -25t21 -7q53 0 132 46t144 101q5 5 5 7
l-2 5q-55 -50 -134.5 -99.5t-130.5 -49.5q-10 0 -16.5 6t-6.5 14q0 15 9 36t22.5 41.5t30.5 43t30.5 38t25.5 28.5t12 14q3 4 0 6t-10 2q-12 0 -32 -20q-59 -62 -172.5 -150t-159.5 -88q-11 0 -11 14q0 37 81 139.5t119 131.5q3 3 3 4q0 4 -12 4q-10 0 -19 -6
q-40 -27 -117 -126t-77 -147q0 -24 22 -24q45 0 128 58.5t159 127.5q5 5 8 5z" />
    <glyph glyph-name="yacute" unicode="&#xfd;" horiz-adv-x="435" 
d="M499 397q-16 0 -61 -18t-62 -31q-1 -1 -3 -1q-3 0 -3 2q0 8 43.5 38t63.5 30q8 0 18 -6.5t10 -10.5q0 -3 -6 -3zM-544 -696q39 0 80 12t84 40t81 56.5t85.5 77.5t82.5 86t86.5 100.5t82 102.5t83.5 108q-97 -16 -202.5 -61.5t-194.5 -106t-161.5 -126t-114 -128
t-41.5 -106.5q0 -55 49 -55zM218 -105q-37 0 -66 -4q-60 -75 -100 -124t-99 -117.5t-103 -113t-100 -94t-102 -78t-97 -47.5t-96 -19q-28 0 -46 15.5t-18 49.5q0 60 66.5 144.5t169 163t238.5 142t262 82.5q23 30 106.5 130.5t113.5 143.5q9 11 5 11l-8 -6
q-179 -168 -246 -168q-10 0 -19 6.5t-9 21.5q0 31 38 82t76 97.5t38 67.5v7q0 3 2 3q3 0 10 -10t7 -18q0 -18 -38 -62.5t-76 -92.5t-38 -77q0 -17 18 -17q39 0 152 93.5t146 137.5q1 1 3 1q3 0 7 -4.5t4 -9.5q0 -4 -16 -26.5t-48.5 -63t-60 -75t-72.5 -89.5t-64 -79
q33 3 65 3q47 0 76.5 -15t29.5 -43q0 -47 -51 -100.5t-127 -89.5t-142 -36q-10 0 -10 5q2 1 7 1q101 0 202.5 72.5t101.5 146.5q0 52 -92 52z" />
    <glyph glyph-name="thorn" unicode="&#xfe;" horiz-adv-x="407" 
d="M153 151q-2 -4 0 -4l4 2l13 11q13 11 29.5 24.5t40 30.5t45.5 30.5t46 23t41 9.5q31 0 31 -36q0 -46 -50 -106t-131.5 -105t-158.5 -45q-28 0 -40 4h-4q-412 -496 -476 -625l-6 -8q-3 0 -4.5 2.5t-0.5 4.5v3q33 94 145.5 242.5t279.5 337.5t170 193l42 52
q79 97 135 164.5t134 157.5t131 140.5t76 56.5q4 1 8 1q8 0 8 -4q0 -2 -15.5 -16.5t-45.5 -41.5t-53 -49q-32 -30 -169.5 -187t-224.5 -263zM62 -8q65 0 140.5 43t125 102t49.5 104q0 25 -19 25q-38 0 -112.5 -55.5t-109.5 -98.5l-3 -3l-7 10q-40 -45 -97 -117q-4 -5 7 -7
q10 -3 26 -3z" />
    <glyph glyph-name="ydieresis" unicode="&#xff;" horiz-adv-x="435" 
d="M452 340q-10 0 -10 11q0 13 13 24t25 11q10 0 10 -12q0 -14 -12.5 -24t-25.5 -10zM333 340q-10 0 -10 12q0 13 13.5 23.5t24.5 10.5q10 0 10 -12q0 -13 -12.5 -23.5t-25.5 -10.5zM-544 -696q-49 0 -49 55q0 44 41.5 106.5t114 128t161.5 126t194.5 106t202.5 61.5
q-53 -69 -83.5 -108t-82 -102.5t-86.5 -100.5t-82.5 -86t-85.5 -77.5t-81 -56.5t-84 -40t-80 -12zM218 -105q92 0 92 -52q0 -74 -101.5 -146.5t-202.5 -72.5l-7 -1q0 -5 10 -5q66 0 142 36t127 89.5t51 100.5q0 28 -29.5 43t-76.5 15q-32 0 -65 -3q19 24 64 79t72.5 89.5
t60 75t48.5 63t16 26.5q0 5 -4 9.5t-7 4.5q-2 0 -3 -1q-33 -44 -146 -137.5t-152 -93.5q-18 0 -18 17q0 29 38 77t76 92.5t38 62.5q0 8 -7 18t-10 10q-2 0 -2 -3v-7q0 -21 -38 -67.5t-76 -97.5t-38 -82q0 -15 9 -21.5t19 -6.5q67 0 246 168q6 6 8 6q4 0 -5 -11
q-30 -43 -113.5 -143.5t-106.5 -130.5q-126 -19 -262 -82.5t-238.5 -142t-169 -163t-66.5 -144.5q0 -34 18 -49.5t46 -15.5q45 0 96 19t97 47.5t102 78t100 94t103 113t99 117.5t100 124q29 4 66 4z" />
    <glyph glyph-name="Amacron" unicode="&#x100;" horiz-adv-x="1136" 
d="M1248 822q0 16 53 16q7 0 36.5 -1t44.5 -1q23 0 32 3q0 -17 -35 -17q-12 0 -41 1.5t-50.5 1t-38.5 -4.5q-1 0 -1 2zM355 148q32 0 102.5 62t96.5 132q-94 -41 -151.5 -94t-57.5 -93q0 -7 10 -7zM870 414q51 0 151 -5q108 157 233 292q2 3 2 6q-4 3 -13 3
q-81 0 -175 -75.5t-229 -221.5q5 0 15 0.5t16 0.5zM160 -77q60 0 128.5 29t116 58.5t129.5 106t113 109t121 129.5q31 33 46 49q-126 -9 -237 -52q-31 -70 -112.5 -145t-131.5 -75q-16 0 -16 14q0 37 67 99t173 107q8 24 8 45q0 63 -72 63q-56 0 -120 -18.5t-125.5 -56
t-111.5 -87.5t-81 -118.5t-31 -143.5q0 -49 31.5 -81t104.5 -32zM847 36q0 123 169 367q-120 3 -149 3q-6 0 -18 -0.5t-18 -0.5q-174 -188 -238 -250q-219 -209 -386 -236q-27 -4 -53 -4q-154 0 -154 115q0 107 74.5 210t190 165.5t231.5 62.5q93 0 93 -72q0 -13 -7 -34
q114 43 240 50q67 72 115.5 119t106 94.5t109.5 70.5t99 23q12 -1 16 -2q80 86 106 86q1 -1 1 -3q0 -3 -3 -6q-62 -60 -151.5 -167t-166.5 -219h29q111 0 185 43q3 2 5 2t2 -2q-52 -50 -179 -50h-46q-175 -254 -175 -375q0 -53 35 -86.5t100 -33.5q104 0 182 62l5 4
q1 -1 1 -2q0 -6 -20.5 -22t-65.5 -33t-95 -17q-85 0 -127.5 39.5t-42.5 98.5z" />
    <glyph glyph-name="amacron" unicode="&#x101;" horiz-adv-x="433" 
d="M575 151l-7 -9q-19 -17 -49 -38q-144 -104 -235 -104q-21 0 -21 24q0 23 16.5 54t32.5 51l16 20q3 4 0 4l-3 -1q-29 -17 -96 -67t-120 -84t-77 -34q-12 0 -12 14q0 25 29.5 70t73 90t102 78t108.5 33q39 0 39 -25q0 -10 -5 -19.5t-8 -9.5q-1 0 -1 2v11q0 21 -29 21
q-47 0 -115.5 -42t-119.5 -100.5t-51 -100.5q1 -9 7 -9q23 0 150.5 91.5t128.5 91.5q5 3 8 3q12 14 23 14q14 0 14 -5q0 -1 -2 -3q-17 -17 -52 -68.5t-35 -78.5q0 -16 15 -16q75 0 214 99q40 30 59 46q2 0 2 -3zM295 329q0 16 53 16q7 0 36.5 -1t44.5 -1q23 0 32 3
q0 -17 -35 -17q-12 0 -41 1.5t-50.5 1t-38.5 -4.5q-1 0 -1 2z" />
    <glyph glyph-name="Abreve" unicode="&#x102;" horiz-adv-x="1136" 
d="M1230 833q-3 -9 -3 -15q0 -20 24 -20q20 0 49 13t41 25q3 3 6 3q4 0 4 -3q-50 -55 -106 -55q-28 0 -28 32q0 6 2 12t4 9t4 3q3 0 3 -4zM355 148q32 0 102.5 62t96.5 132q-94 -41 -151.5 -94t-57.5 -93q0 -7 10 -7zM870 414q51 0 151 -5q108 157 233 292q2 3 2 6
q-4 3 -13 3q-81 0 -175 -75.5t-229 -221.5q5 0 15 0.5t16 0.5zM160 -77q60 0 128.5 29t116 58.5t129.5 106t113 109t121 129.5q31 33 46 49q-126 -9 -237 -52q-31 -70 -112.5 -145t-131.5 -75q-16 0 -16 14q0 37 67 99t173 107q8 24 8 45q0 63 -72 63q-56 0 -120 -18.5
t-125.5 -56t-111.5 -87.5t-81 -118.5t-31 -143.5q0 -49 31.5 -81t104.5 -32zM847 36q0 123 169 367q-120 3 -149 3q-6 0 -18 -0.5t-18 -0.5q-174 -188 -238 -250q-219 -209 -386 -236q-27 -4 -53 -4q-154 0 -154 115q0 107 74.5 210t190 165.5t231.5 62.5q93 0 93 -72
q0 -13 -7 -34q114 43 240 50q67 72 115.5 119t106 94.5t109.5 70.5t99 23q12 -1 16 -2q80 86 106 86q1 -1 1 -3q0 -3 -3 -6q-62 -60 -151.5 -167t-166.5 -219h29q111 0 185 43q3 2 5 2t2 -2q-52 -50 -179 -50h-46q-175 -254 -175 -375q0 -53 35 -86.5t100 -33.5
q104 0 182 62l5 4q1 -1 1 -2q0 -6 -20.5 -22t-65.5 -33t-95 -17q-85 0 -127.5 39.5t-42.5 98.5z" />
    <glyph glyph-name="abreve" unicode="&#x103;" horiz-adv-x="433" 
d="M575 151l-7 -9q-19 -17 -49 -38q-144 -104 -235 -104q-21 0 -21 24q0 23 16.5 54t32.5 51l16 20q3 4 0 4l-3 -1q-29 -17 -96 -67t-120 -84t-77 -34q-12 0 -12 14q0 25 29.5 70t73 90t102 78t108.5 33q39 0 39 -25q0 -10 -5 -19.5t-8 -9.5q-1 0 -1 2v11q0 21 -29 21
q-47 0 -115.5 -42t-119.5 -100.5t-51 -100.5q1 -9 7 -9q23 0 150.5 91.5t128.5 91.5q5 3 8 3q12 14 23 14q14 0 14 -5q0 -1 -2 -3q-17 -17 -52 -68.5t-35 -78.5q0 -16 15 -16q75 0 214 99q40 30 59 46q2 0 2 -3zM366 389q-3 -9 -3 -15q0 -20 24 -20q20 0 49 13t41 25
q3 3 6 3q4 0 4 -3q-50 -55 -106 -55q-28 0 -28 32q0 6 2 12t4 9t4 3q3 0 3 -4z" />
    <glyph glyph-name="Aogonek" unicode="&#x104;" horiz-adv-x="1136" 
d="M355 148q32 0 102.5 62t96.5 132q-94 -41 -151.5 -94t-57.5 -93q0 -7 10 -7zM870 414q51 0 151 -5q108 157 233 292q2 3 2 6q-4 3 -13 3q-81 0 -175 -75.5t-229 -221.5q5 0 15 0.5t16 0.5zM160 -77q63 0 133 29t128 69.5t131.5 109.5t123 121.5t122.5 133.5q3 4 5 6
t5 5.5t6 6.5q-126 -9 -237 -52q-31 -70 -112.5 -145t-131.5 -75q-16 0 -16 14q0 37 67 99t173 107q8 24 8 45q0 63 -72 63q-56 0 -120 -18.5t-125.5 -56t-111.5 -87.5t-81 -118.5t-31 -143.5q0 -49 31.5 -81t104.5 -32zM847 36q0 123 169 367q-120 3 -149 3q-6 0 -18 -0.5
t-18 -0.5q-178 -196 -263 -275q-234 -215 -414 -215q-154 0 -154 115q0 107 74.5 210t190 165.5t231.5 62.5q93 0 93 -72q0 -13 -7 -34q114 43 240 50q67 72 115.5 119t106 94.5t109.5 70.5t99 23q12 -1 16 -2q80 86 106 86q1 -1 1 -3q0 -3 -3 -6q-62 -60 -151.5 -167
t-166.5 -219h29q111 0 185 43q3 2 5 2t2 -2q-52 -50 -179 -50h-46q-175 -254 -175 -375q0 -53 35 -86.5t100 -33.5q104 0 182 62l5 4q1 -1 1 -2q0 -2 -7 -9.5t-23 -18t-35 -19.5q-38 -22 -38 -54q0 -16 19 -16q10 0 18 4q2 0 2 -2q0 -11 -29 -11q-28 0 -28 21q0 23 29 48
q-42 -15 -89 -15q-85 0 -127.5 39.5t-42.5 98.5z" />
    <glyph glyph-name="aogonek" unicode="&#x105;" horiz-adv-x="433" 
d="M575 151l-7 -9q-19 -17 -49 -38q-121 -86 -206 -101q-40 -22 -40 -55q0 -16 19 -16q10 0 18 4q2 0 2 -2q0 -11 -29 -11q-28 0 -28 21q0 30 43 57q-5 -1 -14 -1q-21 0 -21 24q0 23 16.5 54t32.5 51l16 20q3 4 0 4l-3 -1q-29 -17 -96 -67t-120 -84t-77 -34q-12 0 -12 14
q0 25 29.5 70t73 90t102 78t108.5 33q39 0 39 -25q0 -7 -3 -15t-6 -12t-5 -2v13q0 21 -29 21q-47 0 -115.5 -42t-119.5 -100.5t-51 -100.5q1 -9 7 -9q23 0 150.5 91.5t128.5 91.5q5 3 8 3q12 14 23 14q14 0 14 -5q0 -1 -2 -3q-17 -17 -52 -68.5t-35 -78.5q0 -16 15 -16
q75 0 214 99q40 30 59 46q2 0 2 -3z" />
    <glyph glyph-name="Cacute" unicode="&#x106;" horiz-adv-x="722" 
d="M866 816q-16 0 -61 -18t-62 -31q-1 -1 -3 -1q-3 0 -3 2q0 8 43.5 38t63.5 30q8 0 18 -6.5t10 -10.5q0 -3 -6 -3zM702 526q0 -10 8 -10q30 0 79 48.5t49 95.5q0 28 -39 40q-41 -46 -69 -95.5t-28 -78.5zM732 291q0 46 -55 46q-80 0 -173.5 -58t-165 -153.5t-86.5 -194.5
q87 10 177 52.5t155 96.5t106.5 111.5t41.5 99.5zM31 106q0 -79 40.5 -128.5t131.5 -49.5q4 0 12 0.5t12 0.5q15 95 91.5 193.5t177 160.5t182.5 62q41 0 58.5 -13t17.5 -41q0 -72 -79 -154.5t-197 -142.5t-227 -73q-2 -11 -2 -35q0 -64 27 -97t90 -33q87 0 143 40l9 6
q1 0 1 -1q0 -9 -20 -21.5t-57 -22t-77 -9.5q-78 0 -109.5 36t-31.5 104q0 21 2 31q-4 0 -11.5 -0.5t-10.5 -0.5q-204 0 -204 186q0 96 61 204.5t158.5 199t233.5 150t274 59.5q38 0 70 -8q89 94 134 94q12 0 12 -7q0 -3 -6 -3q-52 0 -131 -86q57 -15 57 -47
q0 -41 -68 -101.5t-114 -60.5q-11 0 -11 10q0 28 35.5 84t85.5 110q-28 7 -68 7q-130 0 -259.5 -59t-222.5 -148t-151.5 -195.5t-58.5 -200.5z" />
    <glyph glyph-name="cacute" unicode="&#x107;" horiz-adv-x="398" 
d="M520 407q-16 0 -61 -18t-62 -31q-1 -1 -3 -1q-3 0 -3 2q0 8 43.5 38t63.5 30q8 0 18 -6.5t10 -10.5q0 -3 -6 -3zM393 279q0 11 -10 16q-61 -59 -61 -96l5 -5q19 0 42.5 28t23.5 57zM439 345q5 0 5 -3q-21 -10 -49 -36q16 -6 16 -23q0 -27 -38 -67t-66 -40q-4 2 -4 8
q0 17 22 50.5t52 63.5q-1 0 -4 0.5t-5 0.5q-52 0 -120.5 -52t-117.5 -127t-49 -134q0 -26 14 -38t34 -12q96 0 228 82t180 139h2q1 -1 1 -5q-2 -5 -7 -10q-53 -55 -182.5 -135t-229.5 -80q-27 0 -45.5 14t-18.5 42q0 66 57 144t134 129.5t133 51.5h6q26 24 46 35q4 2 6 2z
" />
    <glyph glyph-name="Ccircumflex" unicode="&#x108;" horiz-adv-x="722" 
d="M799 756q-13 30 -21 30q-18 0 -51.5 -14t-51.5 -25q-1 -1 -3 -1q-1 0 -1 2q10 14 56 38t63 24q7 0 12 -25t5 -34q0 -2 -2 -2q-3 0 -6 7zM702 526q0 -10 8 -10q30 0 79 48.5t49 95.5q0 28 -39 40q-41 -46 -69 -95.5t-28 -78.5zM732 291q0 46 -55 46q-80 0 -173.5 -58
t-165 -153.5t-86.5 -194.5q87 10 177 52.5t155 96.5t106.5 111.5t41.5 99.5zM31 106q0 -79 40.5 -128.5t131.5 -49.5q4 0 12 0.5t12 0.5q15 95 91.5 193.5t177 160.5t182.5 62q41 0 58.5 -13t17.5 -41q0 -72 -79 -154.5t-197 -142.5t-227 -73q-2 -11 -2 -35q0 -64 27 -97
t90 -33q87 0 143 40l9 6q1 0 1 -1q0 -9 -20 -21.5t-57 -22t-77 -9.5q-78 0 -109.5 36t-31.5 104q0 21 2 31q-4 0 -11.5 -0.5t-10.5 -0.5q-204 0 -204 186q0 96 61 204.5t158.5 199t233.5 150t274 59.5q38 0 70 -8q89 94 134 94q12 0 12 -7q0 -3 -6 -3q-52 0 -131 -86
q57 -15 57 -47q0 -41 -68 -101.5t-114 -60.5q-11 0 -11 10q0 28 35.5 84t85.5 110q-28 7 -68 7q-130 0 -259.5 -59t-222.5 -148t-151.5 -195.5t-58.5 -200.5z" />
    <glyph glyph-name="ccircumflex" unicode="&#x109;" horiz-adv-x="398" 
d="M454 348q-12 30 -21 30q-18 0 -51.5 -14t-51.5 -25q-1 -1 -3 -1q-1 0 -1 2q10 14 56 38t63 24q7 0 12 -25t5 -34q0 -2 -2 -2q-3 0 -6 7zM393 279q0 -29 -23.5 -57t-42.5 -28q-5 0 -5 5q0 37 61 96q10 -5 10 -16zM439 345l-6 -2q-20 -11 -46 -35h-6q-56 0 -133 -51.5
t-134 -129.5t-57 -144q0 -28 18.5 -42t45.5 -14q100 0 229.5 80t182.5 135l7 10q-1 5 -3 5q-48 -57 -180 -139t-228 -82q-20 0 -34 12t-14 38q0 59 49 134t117.5 127t120.5 52q2 0 5 -0.5t4 -0.5q-30 -30 -52 -63.5t-22 -50.5l4 -8q28 0 66 40t38 67q0 17 -16 23
q28 26 49 36q-3 0 -5 3z" />
    <glyph glyph-name="Cdotaccent" unicode="&#x10a;" horiz-adv-x="722" 
d="M772 769q-12 0 -12 12t13 23t25 11q10 -2 10 -13q0 -12 -12.5 -22.5t-23.5 -10.5zM702 526q0 -10 8 -10q30 0 79 48.5t49 95.5q0 28 -39 40q-41 -46 -69 -95.5t-28 -78.5zM732 291q0 46 -55 46q-80 0 -173.5 -58t-165 -153.5t-86.5 -194.5q87 10 177 52.5t155 96.5
t106.5 111.5t41.5 99.5zM31 106q0 -79 40.5 -128.5t131.5 -49.5q4 0 12 0.5t12 0.5q15 95 91.5 193.5t177 160.5t182.5 62q41 0 58.5 -13t17.5 -41q0 -72 -79 -154.5t-197 -142.5t-227 -73q-2 -11 -2 -35q0 -64 27 -97t90 -33q87 0 143 40l9 6q1 0 1 -1q0 -9 -20 -21.5
t-57 -22t-77 -9.5q-78 0 -109.5 36t-31.5 104q0 21 2 31q-4 0 -11.5 -0.5t-10.5 -0.5q-204 0 -204 186q0 96 61 204.5t158.5 199t233.5 150t274 59.5q38 0 70 -8q89 94 134 94q12 0 12 -7q0 -3 -6 -3q-52 0 -131 -86q57 -15 57 -47q0 -41 -68 -101.5t-114 -60.5
q-11 0 -11 10q0 28 35.5 84t85.5 110q-28 7 -68 7q-130 0 -259.5 -59t-222.5 -148t-151.5 -195.5t-58.5 -200.5z" />
    <glyph glyph-name="cdotaccent" unicode="&#x10b;" horiz-adv-x="398" 
d="M392 350q-12 0 -12 12t13 23t25 11q10 -2 10 -13q0 -12 -12.5 -22.5t-23.5 -10.5zM393 279q0 -29 -23.5 -57t-42.5 -28q-5 0 -5 5q0 37 61 96q10 -5 10 -16zM439 345l-6 -2q-20 -11 -46 -35h-6q-56 0 -133 -51.5t-134 -129.5t-57 -144q0 -28 18.5 -42t45.5 -14
q100 0 229.5 80t182.5 135l7 10q-1 5 -3 5q-48 -57 -180 -139t-228 -82q-20 0 -34 12t-14 38q0 59 49 134t117.5 127t120.5 52q2 0 5 -0.5t4 -0.5q-30 -30 -52 -63.5t-22 -50.5l4 -8q28 0 66 40t38 67q0 17 -16 23q28 26 49 36q-3 0 -5 3z" />
    <glyph glyph-name="Ccaron" unicode="&#x10c;" horiz-adv-x="722" 
d="M719 807q13 -30 21 -30q18 0 51.5 14t51.5 25q1 1 3 1q1 0 1 -2q-10 -14 -56 -38t-63 -24q-7 0 -12 25t-5 34q0 2 2 2q3 0 6 -7zM702 526q0 -10 8 -10q30 0 79 48.5t49 95.5q0 28 -39 40q-41 -46 -69 -95.5t-28 -78.5zM732 291q0 46 -55 46q-80 0 -173.5 -58t-165 -153.5
t-86.5 -194.5q87 10 177 52.5t155 96.5t106.5 111.5t41.5 99.5zM31 106q0 -79 40.5 -128.5t131.5 -49.5q4 0 12 0.5t12 0.5q15 95 91.5 193.5t177 160.5t182.5 62q41 0 58.5 -13t17.5 -41q0 -72 -79 -154.5t-197 -142.5t-227 -73q-2 -11 -2 -35q0 -64 27 -97t90 -33
q87 0 143 40l9 6q1 0 1 -1q0 -9 -20 -21.5t-57 -22t-77 -9.5q-78 0 -109.5 36t-31.5 104q0 21 2 31q-4 0 -11.5 -0.5t-10.5 -0.5q-204 0 -204 186q0 96 61 204.5t158.5 199t233.5 150t274 59.5q38 0 70 -8q89 94 134 94q12 0 12 -7q0 -3 -6 -3q-52 0 -131 -86q57 -15 57 -47
q0 -41 -68 -101.5t-114 -60.5q-11 0 -11 10q0 28 35.5 84t85.5 110q-28 7 -68 7q-130 0 -259.5 -59t-222.5 -148t-151.5 -195.5t-58.5 -200.5z" />
    <glyph glyph-name="ccaron" unicode="&#x10d;" horiz-adv-x="398" 
d="M382 418q12 -30 21 -30q18 0 51.5 14t51.5 25q1 1 3 1q1 0 1 -2q-10 -14 -56 -38t-63 -24q-7 0 -12 25t-5 34q0 2 2 2q3 0 6 -7zM393 279q0 -29 -23.5 -57t-42.5 -28q-5 0 -5 5q0 37 61 96q10 -5 10 -16zM439 345l-6 -2q-20 -11 -46 -35h-6q-56 0 -133 -51.5t-134 -129.5
t-57 -144q0 -28 18.5 -42t45.5 -14q100 0 229.5 80t182.5 135l7 10q-1 5 -3 5q-48 -57 -180 -139t-228 -82q-20 0 -34 12t-14 38q0 59 49 134t117.5 127t120.5 52q2 0 5 -0.5t4 -0.5q-30 -30 -52 -63.5t-22 -50.5l4 -8q28 0 66 40t38 67q0 17 -16 23q28 26 49 36q-3 0 -5 3z
" />
    <glyph glyph-name="Dcaron" unicode="&#x10e;" horiz-adv-x="1029" 
d="M916 796q13 -30 21 -30q18 0 51.5 14t51.5 25q1 1 3 1q1 0 1 -2q-10 -14 -56 -38t-63 -24q-7 0 -12 25t-5 34q0 2 2 2q3 0 6 -7zM144 -21q-40 0 -73 -11.5t-33 -22.5q0 -19 65 -19q79 0 158 41q-69 12 -117 12zM655 708q-104 0 -172 -44t-68 -124q0 -87 41.5 -160.5
t110.5 -124.5q11 13 65 80t77.5 95t67.5 77.5t82 87.5q27 28 62 56q-107 57 -266 57zM1066 419q0 150 -132 225q-49 -46 -105 -112t-127 -155t-113 -138q100 -64 203 -64q10 0 20 2t16 4l5 2q6 2 6 0q0 -3 -6 -7.5t-19.5 -8.5t-31.5 -4q-92 0 -198 70q-165 -193 -297 -263
q134 -23 206 -23q106 0 212 42.5t184.5 109t127.5 152t49 168.5zM389 546q0 28 10 54t36 54t81 45t134 17q164 0 279 -58q59 48 116.5 80.5t92.5 32.5q20 0 20 -9q-1 -2 -6 -2q-93 0 -211 -108q153 -82 153 -233q0 -87 -50 -174t-132 -154.5t-193.5 -109.5t-227.5 -42
q-70 0 -215 25q-90 -45 -174 -45q-36 0 -69 8t-33 23q0 14 40.5 26t91.5 12q50 0 139 -16q71 38 139 105.5t152 171.5q-77 56 -125 133t-48 164z" />
    <glyph glyph-name="dcaron" unicode="&#x10f;" horiz-adv-x="451" 
d="M889 651q0 2 -1 2l-5 -3q-5 -2 -9 -2q-13 0 -13 11t10.5 22.5t24.5 11.5q12 0 12 -13q0 -22 -23.5 -51.5t-42.5 -29.5q-5 0 -5 2q0 1 3 3q17 3 33 21.5t16 25.5zM397 261q-5 9 -24 9q-45 0 -106.5 -39t-110.5 -89.5t-84 -98.5t-35 -67q0 -7 3.5 -10.5t6.5 -3.5h3
q41 0 155 94t144 130q9 15 48 75zM424 256q142 139 255.5 268.5t113.5 155.5q0 11 -5 11q-28 0 -146.5 -139.5t-220.5 -288.5q3 -6 3 -7zM385 210q-85 -130 -85 -171q0 -33 29 -33q53 0 128.5 48t132.5 100q1 0 1 -5l-5 -7q-67 -57 -142 -102.5t-128 -45.5q-27 0 -27 26
q0 54 49 142v2l-2 -1q-96 -91 -181.5 -153t-121.5 -62q-21 0 -21 25q0 42 60.5 114.5t150 131t158.5 58.5q15 0 24 -3q103 155 236 297.5t174 142.5q3 0 4.5 -2t2.5 -4v-3q0 -28 -123 -169t-275 -288q-3 -9 -9.5 -16t-17.5 -14t-12 -8z" />
    <glyph glyph-name="Dcroat" unicode="&#x110;" horiz-adv-x="1029" 
d="M144 -21q-40 0 -73 -11.5t-33 -22.5q0 -19 65 -19q79 0 158 41q-69 12 -117 12zM655 708q-104 0 -172 -44t-68 -124q0 -87 41.5 -160.5t110.5 -124.5q11 13 65 80t77.5 95t67.5 77.5t82 87.5q27 28 62 56q-107 57 -266 57zM1066 419q0 150 -132 225q-49 -46 -105 -112
t-127 -155t-113 -138q100 -64 203 -64q10 0 20 2t16 4l5 2q6 2 6 0q0 -3 -6 -7.5t-19.5 -8.5t-31.5 -4q-92 0 -198 70q-58 -66 -88 -97q91 -7 99 -7q20 0 36 2t23.5 4t8.5 2l1 -1q0 -8 -20 -12q-22 -5 -51 -5q-1 0 -104 10q-107 -109 -202 -159q134 -23 206 -23
q106 0 212 42.5t184.5 109t127.5 152t49 168.5zM340 132q27 8 92 8q23 0 36 -1q42 45 94 110q-77 56 -125 133t-48 164q0 28 10 54t36 54t81 45t134 17q164 0 279 -58q59 48 116.5 80.5t92.5 32.5q20 0 20 -9q-1 -2 -6 -2q-93 0 -211 -108q153 -82 153 -233q0 -87 -50 -174
t-132 -154.5t-193.5 -109.5t-227.5 -42q-70 0 -215 25q-90 -45 -174 -45q-36 0 -69 8t-33 23q0 14 40.5 26t91.5 12q50 0 139 -16q85 46 191 160q-11 1 -31 1q-34 0 -60 -3.5t-35 -6.5l-9 -3q-3 0 -3 1q0 5 16 11z" />
    <glyph glyph-name="dcroat" unicode="&#x111;" horiz-adv-x="451" 
d="M424 256q107 104 195 201l-52 3q-77 -97 -146 -197q3 -6 3 -7zM574 470l55 -3q164 179 164 213q0 11 -5 11q-38 0 -214 -221zM397 261q-5 9 -24 9q-45 0 -106.5 -39t-110.5 -89.5t-84 -98.5t-35 -67q0 -7 3.5 -10.5t6.5 -3.5h3q41 0 155 94t144 130q9 15 48 75zM385 210
q-85 -130 -85 -171q0 -33 29 -33q53 0 128.5 48t132.5 100q1 0 1 -5l-5 -7q-67 -57 -142 -102.5t-128 -45.5q-27 0 -27 26q0 54 49 142v2l-2 -1q-96 -91 -181.5 -153t-121.5 -62q-21 0 -21 25q0 42 60.5 114.5t150 131t158.5 58.5q15 0 24 -3q61 92 140 187q-37 3 -69 3
q-54 0 -70 -11q-3 0 -3 2t2.5 3.5t5.5 2.5l3 1q18 10 82 10q9 0 28 -0.5t29 -0.5q87 104 161 173.5t101 69.5q3 0 4.5 -2t2.5 -4v-3q0 -17 -51.5 -83t-133.5 -155h36q57 0 80 8q2 0 2 -2q0 -4 -16 -9q-21 -8 -69 -8q-28 0 -42 1q-99 -107 -204 -209q-3 -9 -9.5 -16
t-17.5 -14t-12 -8z" />
    <glyph glyph-name="Emacron" unicode="&#x112;" horiz-adv-x="790" 
d="M784 772q0 16 53 16q7 0 36.5 -1t44.5 -1q23 0 32 3q0 -17 -35 -17q-12 0 -41 1.5t-50.5 1t-38.5 -4.5q-1 0 -1 2zM859 567q0 -7 9 -7q29 0 72 32.5t43 67.5q0 20 -25 35q-42 -32 -70.5 -68.5t-28.5 -59.5zM262 -72q87 0 179 29.5t160.5 73.5t112.5 97t44 97q0 51 -73 51
q-52 0 -123 -25.5t-141.5 -69t-130.5 -110t-85 -140.5q29 -3 57 -3zM327 -284q56 0 111.5 17t85 33.5t37.5 26.5q3 3 4 3l1 -3q0 -13 -32.5 -33t-92.5 -36t-123 -16q-82 0 -119 35.5t-37 86.5q0 50 18 96q-78 11 -129 47.5t-51 101.5q0 93 83.5 168t213.5 116.5t284 50.5
q30 1 30 9q0 7 -9 10q-13 7 -74.5 29t-99 46t-37.5 53q0 38 51 78t143 68t195 28q123 0 181 -25q71 55 110 55q15 0 15 -6q0 -3 -6 -3q-44 0 -112 -49q35 -17 35 -45q0 -31 -58.5 -72.5t-105.5 -41.5q-10 0 -10 9q0 20 36.5 63t85.5 83q-52 25 -173 25q-88 0 -170.5 -23.5
t-133.5 -63t-51 -83.5q0 -29 33 -52.5t73 -35.5t73 -26t33 -25q0 -10 -63 -13q-145 -10 -266 -49t-199.5 -111.5t-78.5 -165.5q0 -116 155 -142q37 92 128.5 175t194 129t181.5 46q94 0 94 -60q0 -42 -42.5 -94t-112 -98.5t-171 -78.5t-206.5 -32q-16 0 -46 2
q-15 -45 -15 -94q0 -50 32 -81.5t107 -31.5z" />
    <glyph glyph-name="emacron" unicode="&#x113;" horiz-adv-x="355" 
d="M277 324q0 16 53 16q7 0 36.5 -1t44.5 -1q23 0 32 3q0 -17 -35 -17q-12 0 -41 1.5t-50.5 1t-38.5 -4.5q-1 0 -1 2zM131 113l-4 -3q-20 -37 -20 -75q0 -45 50 -45q61 0 135 33t120 65.5t82 65.5q3 0 3 -5l-4 -7q-72 -60 -170.5 -112.5t-177.5 -52.5q-62 0 -62 57
q0 55 46.5 115.5t104 98t95.5 37.5q20 0 20 -15q0 -43 -75 -100t-143 -57zM311 270q-32 0 -75 -32t-70.5 -66t-27.5 -46q0 -4 8 -4q59 0 117 51.5t58 82.5q0 14 -10 14z" />
    <glyph glyph-name="Edotaccent" unicode="&#x116;" horiz-adv-x="790" 
d="M891 778q-12 0 -12 12t13 23t25 11q10 -2 10 -13q0 -12 -12.5 -22.5t-23.5 -10.5zM859 567q0 -7 9 -7q29 0 72 32.5t43 67.5q0 20 -25 35q-42 -32 -70.5 -68.5t-28.5 -59.5zM262 -72q87 0 179 29.5t160.5 73.5t112.5 97t44 97q0 51 -73 51q-52 0 -123 -25.5t-141.5 -69
t-130.5 -110t-85 -140.5q29 -3 57 -3zM327 -284q56 0 111.5 17t85 33.5t37.5 26.5q3 3 4 3l1 -3q0 -13 -32.5 -33t-92.5 -36t-123 -16q-82 0 -119 35.5t-37 86.5q0 50 18 96q-78 11 -129 47.5t-51 101.5q0 93 83.5 168t213.5 116.5t284 50.5q30 1 30 9q0 7 -9 10
q-13 7 -74.5 29t-99 46t-37.5 53q0 38 51 78t143 68t195 28q123 0 181 -25q71 55 110 55q15 0 15 -6q0 -3 -6 -3q-44 0 -112 -49q35 -17 35 -45q0 -31 -58.5 -72.5t-105.5 -41.5q-10 0 -10 9q0 20 36.5 63t85.5 83q-52 25 -173 25q-88 0 -170.5 -23.5t-133.5 -63t-51 -83.5
q0 -29 33 -52.5t73 -35.5t73 -26t33 -25q0 -10 -63 -13q-145 -10 -266 -49t-199.5 -111.5t-78.5 -165.5q0 -116 155 -142q37 92 128.5 175t194 129t181.5 46q94 0 94 -60q0 -42 -42.5 -94t-112 -98.5t-171 -78.5t-206.5 -32q-16 0 -46 2q-15 -45 -15 -94q0 -50 32 -81.5
t107 -31.5z" />
    <glyph glyph-name="edotaccent" unicode="&#x117;" horiz-adv-x="355" 
d="M355 332q-12 0 -12 12t13 23t25 11q10 -2 10 -13q0 -12 -12.5 -22.5t-23.5 -10.5zM131 113q68 0 143 57t75 100q0 15 -20 15q-38 0 -95.5 -37.5t-104 -98t-46.5 -115.5q0 -57 62 -57q79 0 177.5 52.5t170.5 112.5q4 3 4 7l-3 5q-36 -33 -82 -65.5t-120 -65.5t-135 -33
q-50 0 -50 45q0 38 20 75q1 3 4 3zM311 270q10 0 10 -14q0 -31 -58 -82.5t-117 -51.5q-8 0 -8 4q0 12 27.5 46t70.5 66t75 32z" />
    <glyph glyph-name="Eogonek" unicode="&#x118;" horiz-adv-x="790" 
d="M859 567q0 -7 9 -7q29 0 72 32.5t43 67.5q0 20 -25 35q-42 -32 -70.5 -68.5t-28.5 -59.5zM262 -72q87 0 179 29.5t160.5 73.5t112.5 97t44 97q0 51 -73 51q-52 0 -123 -25.5t-141.5 -69t-130.5 -110t-85 -140.5q29 -3 57 -3zM327 -284q56 0 111.5 17t85 33.5t37.5 26.5
q3 3 4 3l1 -3q0 -13 -32.5 -33t-92.5 -36t-123 -16q-82 0 -119 35.5t-37 86.5q0 50 18 96q-78 11 -129 47.5t-51 101.5q0 93 83.5 168t213.5 116.5t284 50.5q30 1 30 9q0 7 -9 10q-13 7 -74.5 29t-99 46t-37.5 53q0 38 51 78t143 68t195 28q123 0 181 -25q71 55 110 55
q15 0 15 -6q0 -3 -6 -3q-44 0 -112 -49q35 -17 35 -45q0 -31 -58.5 -72.5t-105.5 -41.5q-10 0 -10 9q0 20 36.5 63t85.5 83q-52 25 -173 25q-88 0 -170.5 -23.5t-133.5 -63t-51 -83.5q0 -29 33 -52.5t73 -35.5t73 -26t33 -25q0 -10 -63 -13q-145 -10 -266 -49t-199.5 -111.5
t-78.5 -165.5q0 -116 155 -142q37 92 128.5 175t194 129t181.5 46q94 0 94 -60q0 -51 -58 -114t-165.5 -116.5t-229.5 -67.5q-43 -23 -43 -57q0 -16 19 -16q10 0 18 4q2 0 2 -2q0 -11 -29 -11q-28 0 -28 21q0 32 46 59q-31 -3 -64 -3q-16 0 -46 2q-15 -45 -15 -94
q0 -50 32 -81.5t107 -31.5z" />
    <glyph glyph-name="eogonek" unicode="&#x119;" horiz-adv-x="355" 
d="M311 270q-32 0 -75 -32t-70.5 -66t-27.5 -46q0 -4 8 -4q59 0 117 51.5t58 82.5q0 14 -10 14zM131 113l-4 -3q-20 -37 -20 -75q0 -45 50 -45q61 0 135 33t120 65.5t82 65.5q3 0 3 -5l-4 -7q-56 -46 -132 -91.5t-147 -63.5q-38 -22 -38 -54q0 -16 19 -16q10 0 18 4
q2 0 2 -2q0 -11 -29 -11q-28 0 -28 21q0 26 37 54q-25 -6 -50 -6q-62 0 -62 57q0 55 46.5 115.5t104 98t95.5 37.5q20 0 20 -15q0 -43 -75 -100t-143 -57z" />
    <glyph glyph-name="Ecaron" unicode="&#x11a;" horiz-adv-x="790" 
d="M845 821q13 -30 21 -30q18 0 51.5 14t51.5 25q1 1 3 1q1 0 1 -2q-10 -14 -56 -38t-63 -24q-7 0 -12 25t-5 34q0 2 2 2q3 0 6 -7zM859 567q0 -7 9 -7q29 0 72 32.5t43 67.5q0 20 -25 35q-42 -32 -70.5 -68.5t-28.5 -59.5zM262 -72q87 0 179 29.5t160.5 73.5t112.5 97
t44 97q0 51 -73 51q-52 0 -123 -25.5t-141.5 -69t-130.5 -110t-85 -140.5q29 -3 57 -3zM327 -284q56 0 111.5 17t85 33.5t37.5 26.5q3 3 4 3l1 -3q0 -13 -32.5 -33t-92.5 -36t-123 -16q-82 0 -119 35.5t-37 86.5q0 50 18 96q-78 11 -129 47.5t-51 101.5q0 93 83.5 168
t213.5 116.5t284 50.5q30 1 30 9q0 7 -9 10q-13 7 -74.5 29t-99 46t-37.5 53q0 38 51 78t143 68t195 28q123 0 181 -25q71 55 110 55q15 0 15 -6q0 -3 -6 -3q-44 0 -112 -49q35 -17 35 -45q0 -31 -58.5 -72.5t-105.5 -41.5q-10 0 -10 9q0 20 36.5 63t85.5 83q-52 25 -173 25
q-88 0 -170.5 -23.5t-133.5 -63t-51 -83.5q0 -29 33 -52.5t73 -35.5t73 -26t33 -25q0 -10 -63 -13q-145 -10 -266 -49t-199.5 -111.5t-78.5 -165.5q0 -116 155 -142q37 92 128.5 175t194 129t181.5 46q94 0 94 -60q0 -42 -42.5 -94t-112 -98.5t-171 -78.5t-206.5 -32
q-16 0 -46 2q-15 -45 -15 -94q0 -50 32 -81.5t107 -31.5z" />
    <glyph glyph-name="ecaron" unicode="&#x11b;" horiz-adv-x="355" 
d="M324 372q12 -30 21 -30q18 0 51.5 14t51.5 25q1 1 3 1q1 0 1 -2q-10 -14 -56 -38t-63 -24q-7 0 -12 25t-5 34q0 2 2 2q3 0 6 -7zM131 113q68 0 143 57t75 100q0 15 -20 15q-38 0 -95.5 -37.5t-104 -98t-46.5 -115.5q0 -57 62 -57q79 0 177.5 52.5t170.5 112.5q4 3 4 7
l-3 5q-36 -33 -82 -65.5t-120 -65.5t-135 -33q-50 0 -50 45q0 38 20 75q1 3 4 3zM311 270q10 0 10 -14q0 -31 -58 -82.5t-117 -51.5q-8 0 -8 4q0 12 27.5 46t70.5 66t75 32z" />
    <glyph glyph-name="Gcircumflex" unicode="&#x11c;" horiz-adv-x="991" 
d="M1110 777q-12 30 -21 30q-18 0 -51.5 -14t-51.5 -25q-1 -1 -3 -1q-1 0 -1 2q10 14 56 38t63 24q7 0 12 -25t5 -34q0 -2 -2 -2q-3 0 -6 7zM944 548q0 -8 9 -8q26 0 66.5 42t40.5 82q0 18 -8 29q-44 -33 -76 -75.5t-32 -69.5zM194 -267q90 0 172 28.5t147.5 76.5t125 106.5
t114 123.5t104 123t105.5 109t109 78q9 4 9 5q0 7 -34 7q-116 0 -355.5 -60t-327.5 -70q-24 -59 -24 -99q0 -48 25 -70t63 -22q108 0 240.5 86t165.5 148q5 10 8 10t3 -9q0 -17 -41.5 -56.5t-101.5 -81.5t-138.5 -74t-142.5 -32q-50 0 -80.5 26.5t-30.5 78.5q0 41 20 92
q-18 -2 -53 -2q-106 0 -152.5 34.5t-46.5 87.5q0 85 68.5 165.5t170.5 129t201 48.5q45 0 72 -11.5t27 -27.5q0 -8 -3 -8q-1 0 -4 4t-9.5 9.5t-17 11t-30.5 9.5t-45 4q-46 0 -100 -14.5t-107.5 -44t-97 -68.5t-71 -92.5t-27.5 -111.5q0 -53 41.5 -85.5t129.5 -32.5
q19 0 57 2q32 76 100 157.5t155.5 149.5t194 112t203.5 44q49 0 76 -18q52 37 83 37q12 0 14 -7q0 -2 -6 -2q-36 0 -84 -33q16 -14 16 -36q0 -37 -55.5 -90.5t-103.5 -53.5q-10 0 -10 9q0 25 41 76t92 90q-18 20 -63 20q-96 0 -197 -43.5t-182 -111.5t-144 -145.5
t-95 -150.5q86 10 328 71t361 61q94 0 94 -27q0 -5 -3 -5q-2 0 -3 1q-13 10 -31 10q-33 0 -77.5 -36t-93.5 -93.5t-107 -127.5t-128 -140t-146 -127.5t-171.5 -93.5t-194.5 -36q-95 0 -145 31.5t-50 92.5q0 58 40 108.5t95 77.5t107 27q13 0 13 -6q-5 -1 -6 -1
q-33 0 -70 -12t-72 -35t-58 -65t-23 -94q0 -116 168 -116z" />
    <glyph glyph-name="gcircumflex" unicode="&#x11d;" horiz-adv-x="477" 
d="M459 340q-13 30 -21 30q-18 0 -51.5 -14t-51.5 -25q-1 -1 -3 -1q-1 0 -1 2q10 14 56 38t63 24q7 0 12 -25t5 -34q0 -2 -2 -2q-3 0 -6 7zM427 234l18 20q14 14 14 19q0 2 -3 2q-4 0 -48 -37q12 -2 19 -4zM362 236q-60 0 -118.5 -29.5t-97.5 -69.5t-63 -79.5t-24 -62.5
q0 -12 8 -12q14 0 38.5 13.5t65.5 46.5t66.5 54.5t83 72t73.5 64.5q-20 2 -32 2zM-594 -694q0 -56 51 -56q44 0 106.5 37.5t125 93t143 142.5t144.5 162.5t145 175.5q-129 -18 -262.5 -84t-231 -149.5t-159.5 -171.5t-62 -150zM-544 -757q-72 0 -72 68q0 67 65.5 157
t168 172t240 146t268.5 81q254 314 296 361q-11 4 -20 5q-10 -8 -46 -40.5t-56.5 -50.5t-57 -49t-61 -50t-53 -39t-49 -29.5t-33.5 -9.5q-17 0 -17 19q0 29 25 72t67 85t108 71.5t138 29.5q12 0 34 -2q120 104 143 104q12 0 12 -6q0 -4 -11 -13q-39 -36 -94 -99
q24 -10 24 -22l-4 -1q-6 8 -25 17q-36 -42 -82 -97.5t-107.5 -131.5t-98.5 -121q17 2 50 2q61 0 102.5 -16.5t41.5 -48.5q0 -34 -37 -69.5t-66 -40.5h-4q-3 0 -3 1l7 4q28 10 56 39t28 68q0 26 -32.5 41.5t-94.5 15.5q-19 0 -53 -2q-85 -105 -150.5 -181.5t-148.5 -165
t-148.5 -144t-132 -93t-117.5 -37.5z" />
    <glyph glyph-name="Gbreve" unicode="&#x11e;" horiz-adv-x="991" 
d="M1071 828q-3 -9 -3 -15q0 -20 24 -20q20 0 49 13t41 25q3 3 6 3q4 0 4 -3q-50 -55 -106 -55q-28 0 -28 32q0 6 2 12t4 9t4 3q3 0 3 -4zM944 548q0 -8 9 -8q26 0 66.5 42t40.5 82q0 18 -8 29q-44 -33 -76 -75.5t-32 -69.5zM194 -267q90 0 172 28.5t147.5 76.5t125 106.5
t114 123.5t104 123t105.5 109t109 78q9 4 9 5q0 7 -34 7q-116 0 -355.5 -60t-327.5 -70q-24 -59 -24 -99q0 -48 25 -70t63 -22q108 0 240.5 86t165.5 148q5 10 8 10t3 -9q0 -17 -41.5 -56.5t-101.5 -81.5t-138.5 -74t-142.5 -32q-50 0 -80.5 26.5t-30.5 78.5q0 41 20 92
q-18 -2 -53 -2q-106 0 -152.5 34.5t-46.5 87.5q0 85 68.5 165.5t170.5 129t201 48.5q45 0 72 -11.5t27 -27.5q0 -8 -3 -8q-1 0 -4 4t-9.5 9.5t-17 11t-30.5 9.5t-45 4q-46 0 -100 -14.5t-107.5 -44t-97 -68.5t-71 -92.5t-27.5 -111.5q0 -53 41.5 -85.5t129.5 -32.5
q19 0 57 2q32 76 100 157.5t155.5 149.5t194 112t203.5 44q49 0 76 -18q52 37 83 37q12 0 14 -7q0 -2 -6 -2q-36 0 -84 -33q16 -14 16 -36q0 -37 -55.5 -90.5t-103.5 -53.5q-10 0 -10 9q0 25 41 76t92 90q-18 20 -63 20q-96 0 -197 -43.5t-182 -111.5t-144 -145.5
t-95 -150.5q86 10 328 71t361 61q94 0 94 -27q0 -5 -3 -5q-2 0 -3 1q-13 10 -31 10q-33 0 -77.5 -36t-93.5 -93.5t-107 -127.5t-128 -140t-146 -127.5t-171.5 -93.5t-194.5 -36q-95 0 -145 31.5t-50 92.5q0 58 40 108.5t95 77.5t107 27q13 0 13 -6q-5 -1 -6 -1
q-33 0 -70 -12t-72 -35t-58 -65t-23 -94q0 -116 168 -116z" />
    <glyph glyph-name="gbreve" unicode="&#x11f;" horiz-adv-x="477" 
d="M390 377q-3 -9 -3 -15q0 -20 24 -20q20 0 49 13t41 25q3 3 6 3q4 0 4 -3q-50 -55 -106 -55q-28 0 -28 32q0 6 2 12t4 9t4 3q3 0 3 -4zM427 234l18 20q14 14 14 19q0 2 -3 2q-4 0 -48 -37q12 -2 19 -4zM362 236q-60 0 -118.5 -29.5t-97.5 -69.5t-63 -79.5t-24 -62.5
q0 -12 8 -12q14 0 38.5 13.5t65.5 46.5t66.5 54.5t83 72t73.5 64.5q-20 2 -32 2zM-594 -694q0 -56 51 -56q44 0 106.5 37.5t125 93t143 142.5t144.5 162.5t145 175.5q-129 -18 -262.5 -84t-231 -149.5t-159.5 -171.5t-62 -150zM-544 -757q-72 0 -72 68q0 67 65.5 157
t168 172t240 146t268.5 81q254 314 296 361q-11 4 -20 5q-10 -8 -46 -40.5t-56.5 -50.5t-57 -49t-61 -50t-53 -39t-49 -29.5t-33.5 -9.5q-17 0 -17 19q0 29 25 72t67 85t108 71.5t138 29.5q12 0 34 -2q120 104 143 104q12 0 12 -6q0 -4 -11 -13q-39 -36 -94 -99
q24 -10 24 -22l-4 -1q-6 8 -25 17q-36 -42 -82 -97.5t-107.5 -131.5t-98.5 -121q17 2 50 2q61 0 102.5 -16.5t41.5 -48.5q0 -34 -37 -69.5t-66 -40.5h-4q-3 0 -3 1l7 4q28 10 56 39t28 68q0 26 -32.5 41.5t-94.5 15.5q-19 0 -53 -2q-85 -105 -150.5 -181.5t-148.5 -165
t-148.5 -144t-132 -93t-117.5 -37.5z" />
    <glyph glyph-name="Gdotaccent" unicode="&#x120;" horiz-adv-x="991" 
d="M1059 776q-12 0 -12 12t13 23t25 11q10 -2 10 -13q0 -12 -12.5 -22.5t-23.5 -10.5zM944 548q0 -8 9 -8q26 0 66.5 42t40.5 82q0 18 -8 29q-44 -33 -76 -75.5t-32 -69.5zM194 -267q90 0 172 28.5t147.5 76.5t125 106.5t114 123.5t104 123t105.5 109t109 78q9 4 9 5
q0 7 -34 7q-116 0 -355.5 -60t-327.5 -70q-24 -59 -24 -99q0 -48 25 -70t63 -22q108 0 240.5 86t165.5 148q5 10 8 10t3 -9q0 -17 -41.5 -56.5t-101.5 -81.5t-138.5 -74t-142.5 -32q-50 0 -80.5 26.5t-30.5 78.5q0 41 20 92q-18 -2 -53 -2q-106 0 -152.5 34.5t-46.5 87.5
q0 85 68.5 165.5t170.5 129t201 48.5q45 0 72 -11.5t27 -27.5q0 -8 -3 -8q-1 0 -4 4t-9.5 9.5t-17 11t-30.5 9.5t-45 4q-46 0 -100 -14.5t-107.5 -44t-97 -68.5t-71 -92.5t-27.5 -111.5q0 -53 41.5 -85.5t129.5 -32.5q19 0 57 2q32 76 100 157.5t155.5 149.5t194 112
t203.5 44q49 0 76 -18q52 37 83 37q12 0 14 -7q0 -2 -6 -2q-36 0 -84 -33q16 -14 16 -36q0 -37 -55.5 -90.5t-103.5 -53.5q-10 0 -10 9q0 25 41 76t92 90q-18 20 -63 20q-96 0 -197 -43.5t-182 -111.5t-144 -145.5t-95 -150.5q86 10 328 71t361 61q94 0 94 -27q0 -5 -3 -5
q-2 0 -3 1q-13 10 -31 10q-33 0 -77.5 -36t-93.5 -93.5t-107 -127.5t-128 -140t-146 -127.5t-171.5 -93.5t-194.5 -36q-95 0 -145 31.5t-50 92.5q0 58 40 108.5t95 77.5t107 27q13 0 13 -6q-5 -1 -6 -1q-33 0 -70 -12t-72 -35t-58 -65t-23 -94q0 -116 168 -116z" />
    <glyph glyph-name="gdotaccent" unicode="&#x121;" horiz-adv-x="477" 
d="M406 326q-12 0 -12 12t13 23t25 11q10 -2 10 -13q0 -12 -12.5 -22.5t-23.5 -10.5zM427 234l18 20q14 14 14 19q0 2 -3 2q-4 0 -48 -37q12 -2 19 -4zM362 236q-60 0 -118.5 -29.5t-97.5 -69.5t-63 -79.5t-24 -62.5q0 -12 8 -12q14 0 38.5 13.5t65.5 46.5t66.5 54.5t83 72
t73.5 64.5q-20 2 -32 2zM-594 -694q0 -56 51 -56q44 0 106.5 37.5t125 93t143 142.5t144.5 162.5t145 175.5q-129 -18 -262.5 -84t-231 -149.5t-159.5 -171.5t-62 -150zM-544 -757q-72 0 -72 68q0 67 65.5 157t168 172t240 146t268.5 81q254 314 296 361q-11 4 -20 5
q-10 -8 -46 -40.5t-56.5 -50.5t-57 -49t-61 -50t-53 -39t-49 -29.5t-33.5 -9.5q-17 0 -17 19q0 29 25 72t67 85t108 71.5t138 29.5q12 0 34 -2q120 104 143 104q12 0 12 -6q0 -4 -11 -13q-39 -36 -94 -99q24 -10 24 -22l-4 -1q-6 8 -25 17q-36 -42 -82 -97.5t-107.5 -131.5
t-98.5 -121q17 2 50 2q61 0 102.5 -16.5t41.5 -48.5q0 -34 -37 -69.5t-66 -40.5h-4q-3 0 -3 1l7 4q28 10 56 39t28 68q0 26 -32.5 41.5t-94.5 15.5q-19 0 -53 -2q-85 -105 -150.5 -181.5t-148.5 -165t-148.5 -144t-132 -93t-117.5 -37.5z" />
    <glyph glyph-name="uni0122" unicode="&#x122;" horiz-adv-x="991" 
d="M139 -357q0 2 -2 2q-1 0 -5 -2t-8 -2q-11 0 -11 10q0 11 10.5 22.5t23.5 11.5t13 -13q0 -22 -21.5 -47t-40.5 -25l-5 3q1 1 3 1q17 3 30 17.5t13 21.5zM944 548q0 -8 9 -8q26 0 66.5 42t40.5 82q0 18 -8 29q-44 -33 -76 -75.5t-32 -69.5zM194 -267q90 0 172 28.5
t147.5 76.5t125 106.5t114 123.5t104 123t105.5 109t109 78q9 4 9 5q0 7 -34 7q-116 0 -355.5 -60t-327.5 -70q-24 -59 -24 -99q0 -48 25 -70t63 -22q108 0 240.5 86t165.5 148q5 10 8 10t3 -9q0 -17 -41.5 -56.5t-101.5 -81.5t-138.5 -74t-142.5 -32q-50 0 -80.5 26.5
t-30.5 78.5q0 41 20 92q-18 -2 -53 -2q-106 0 -152.5 34.5t-46.5 87.5q0 85 68.5 165.5t170.5 129t201 48.5q45 0 72 -11.5t27 -27.5q0 -8 -3 -8q-1 0 -4 4t-9.5 9.5t-17 11t-30.5 9.5t-45 4q-46 0 -100 -14.5t-107.5 -44t-97 -68.5t-71 -92.5t-27.5 -111.5
q0 -53 41.5 -85.5t129.5 -32.5q19 0 57 2q32 76 100 157.5t155.5 149.5t194 112t203.5 44q49 0 76 -18q52 37 83 37q12 0 14 -7q0 -2 -6 -2q-36 0 -84 -33q16 -14 16 -36q0 -37 -55.5 -90.5t-103.5 -53.5q-10 0 -10 9q0 25 41 76t92 90q-18 20 -63 20q-96 0 -197 -43.5
t-182 -111.5t-144 -145.5t-95 -150.5q86 10 328 71t361 61q94 0 94 -27q0 -5 -3 -5q-2 0 -3 1q-13 10 -31 10q-33 0 -77.5 -36t-93.5 -93.5t-107 -127.5t-128 -140t-146 -127.5t-171.5 -93.5t-194.5 -36q-95 0 -145 31.5t-50 92.5q0 58 40 108.5t95 77.5t107 27q13 0 13 -6
q-5 -1 -6 -1q-33 0 -70 -12t-72 -35t-58 -65t-23 -94q0 -116 168 -116z" />
    <glyph glyph-name="uni0123" unicode="&#x123;" horiz-adv-x="477" 
d="M427 234l18 20q14 14 14 19q0 2 -3 2q-4 0 -48 -37q12 -2 19 -4zM362 236q-60 0 -118.5 -29.5t-97.5 -69.5t-63 -79.5t-24 -62.5q0 -12 8 -12q14 0 38.5 13.5t65.5 46.5t66.5 54.5t83 72t73.5 64.5q-20 2 -32 2zM-594 -694q0 -56 51 -56q44 0 106.5 37.5t125 93
t143 142.5t144.5 162.5t145 175.5q-129 -18 -262.5 -84t-231 -149.5t-159.5 -171.5t-62 -150zM-544 -757q-72 0 -72 68q0 67 65.5 157t168 172t240 146t268.5 81q254 314 296 361q-11 4 -20 5q-10 -8 -46 -40.5t-56.5 -50.5t-57 -49t-61 -50t-53 -39t-49 -29.5t-33.5 -9.5
q-17 0 -17 19q0 29 25 72t67 85t108 71.5t138 29.5q12 0 34 -2q120 104 143 104q12 0 12 -6q0 -4 -11 -13q-39 -36 -94 -99q24 -10 24 -22l-4 -1q-6 8 -25 17q-36 -42 -82 -97.5t-107.5 -131.5t-98.5 -121q17 2 50 2q61 0 102.5 -16.5t41.5 -48.5q0 -34 -37 -69.5t-66 -40.5
h-4q-3 0 -3 1l7 4q28 10 56 39t28 68q0 26 -32.5 41.5t-94.5 15.5q-19 0 -53 -2q-85 -105 -150.5 -181.5t-148.5 -165t-148.5 -144t-132 -93t-117.5 -37.5zM454 374q0 -2 2 -2l5 2q5 2 8 2q11 0 11 -10q0 -11 -10.5 -22.5t-23.5 -11.5t-13 13q0 22 21.5 47t40.5 25l5 -3
q-1 -1 -3 -1q-17 -3 -30 -17.5t-13 -21.5z" />
    <glyph glyph-name="Hcircumflex" unicode="&#x124;" horiz-adv-x="952" 
d="M1108 756q-12 30 -21 30q-18 0 -51.5 -14t-51.5 -25q-1 -1 -3 -1q-1 0 -1 2q10 14 56 38t63 24q7 0 12 -25t5 -34q0 -2 -2 -2q-3 0 -6 7zM872 732q0 11 -9 11q-35 0 -91.5 -56t-142.5 -163q102 54 172.5 115.5t70.5 92.5zM24 -59q0 -19 15 -19q30 0 69.5 24.5t74 57
t87 95t85.5 106t93 122.5q-95 -41 -179 -101.5t-135 -116t-80.5 -101t-29.5 -67.5zM790 -182q52 0 99 17t68 34l21 17q8 8 9 8q2 0 2 -4q0 -9 -27 -28t-80.5 -37t-110.5 -18q-130 0 -130 131q0 79 69 204t176 260q-26 1 -70 1q-169 0 -326 -59q-59 -76 -100.5 -128
t-97 -114.5t-97.5 -100t-87 -63.5t-80 -26q-28 0 -28 26t33.5 75t90 106.5t146 117.5t187.5 101q98 129 113 148q-165 -74 -306 -74q-83 0 -122.5 26.5t-39.5 70.5q0 69 56.5 137.5t143 111t169.5 42.5q37 0 59.5 -9t22.5 -22q0 -6 -3 -6q-1 0 -8 7t-27.5 14t-54.5 7
q-48 0 -105.5 -20.5t-108.5 -55.5t-85.5 -89.5t-34.5 -113.5q0 -41 35.5 -66.5t106.5 -25.5q145 0 312 79q95 120 168.5 186.5t128.5 66.5q16 0 16 -18q0 -29 -81.5 -98.5t-194.5 -126.5l-119 -155q155 57 314 57q42 0 79 -3q101 127 196 220.5t124 93.5q10 0 10 -5
q0 -4 -7 -9q-44 -33 -126 -117.5t-165 -184.5q120 -12 120 -35q0 -5 -3 -5l-5 3q-34 23 -118 30q-268 -324 -268 -468q0 -54 36 -83.5t105 -29.5z" />
    <glyph glyph-name="hcircumflex" unicode="&#x125;" horiz-adv-x="468" 
d="M840 785q-12 30 -21 30q-18 0 -51.5 -14t-51.5 -25q-1 -1 -3 -1q-1 0 -1 2q10 14 56 38t63 24q7 0 12 -25t5 -34q0 -2 -2 -2q-3 0 -6 7zM764 747q19 0 26.5 -7.5t7.5 -26.5q0 -61 -81 -146.5t-198.5 -151t-212.5 -73.5q321 405 458 405zM267 21q0 -24 10.5 -33t30.5 -9
q51 0 154 62t141 101q9 9 9 11l-2 4q-52 -50 -145 -107.5t-146 -57.5q-30 0 -30 32q0 36 37 100.5t37 73.5q0 14 -14 14q-59 0 -234 -131q-1 -1 -2 -1t-1 1q87 125 187 252q95 7 217 71t209.5 151t87.5 154q0 26 -13.5 35.5t-28.5 9.5q-157 0 -490 -413q-48 0 -65 21
q-1 2 -3 2q-3 0 -3 -5q0 -8 18.5 -16.5t46.5 -9.5q-77 -97 -223 -303q-52 -49 -52 -94q0 -10 4 -10t13 17q13 25 66 98q21 28 117.5 93t127.5 65q9 0 9 -9q0 -10 -35 -74.5t-35 -94.5z" />
    <glyph glyph-name="Hbar" unicode="&#x126;" horiz-adv-x="952" 
d="M790 -182q52 0 99 17t68 34l21 17q8 8 9 8q2 0 2 -4q0 -9 -27 -28t-80.5 -37t-110.5 -18q-130 0 -130 131q0 134 191 393q-32 2 -86 2q-156 0 -298 -43q-65 -84 -115.5 -143t-108 -117t-107 -88t-89.5 -30q-28 0 -28 26q0 27 28.5 71t79 94.5t133.5 101t178 83.5l81 107
l-93 -6q-3 0 -3 2q0 14 105 16q12 16 34.5 45t26.5 34q-165 -74 -306 -74q-83 0 -122.5 26.5t-39.5 70.5q0 69 56.5 137.5t143 111t169.5 42.5q37 0 59.5 -9t22.5 -22q0 -6 -3 -6q-1 0 -8 7t-27.5 14t-54.5 7q-48 0 -105.5 -20.5t-108.5 -55.5t-85.5 -89.5t-34.5 -113.5
q0 -41 35.5 -66.5t106.5 -25.5q145 0 312 79q95 120 168.5 186.5t128.5 66.5q16 0 16 -18q0 -29 -81.5 -98.5t-194.5 -126.5l-78 -102h32q25 0 152 3.5t173 4.5q100 125 193.5 216t121.5 91q10 0 10 -5q0 -4 -7 -9q-42 -31 -121 -112.5t-162 -179.5h7q72 0 100 3
q0 -16 -110 -16h-8q-19 -22 -55 -68q108 -11 108 -34q0 -5 -3 -5l-5 3q-33 22 -105 29q-211 -270 -211 -397q0 -54 36 -83.5t105 -29.5zM24 -59q0 -19 15 -19q64 0 154 92t218 263q-92 -33 -170 -83.5t-123 -99.5t-69.5 -89.5t-24.5 -63.5zM568 396h-38q-24 -32 -74 -96
q139 41 286 41q52 0 95 -3q9 13 27.5 36.5t21.5 27.5q-36 0 -159.5 -3t-158.5 -3zM872 732q0 11 -9 11q-35 0 -91.5 -56t-142.5 -163q102 54 172.5 115.5t70.5 92.5z" />
    <glyph glyph-name="hbar" unicode="&#x127;" horiz-adv-x="468" 
d="M164 255q0 16 42 16h20l49 62q-28 1 -46.5 9.5t-18.5 16.5q0 5 3 5l3 -2q17 -21 65 -21q333 413 490 413q15 0 28.5 -9.5t13.5 -35.5q0 -67 -87.5 -154t-209.5 -151t-217 -71q-17 -21 -49 -63q15 -1 48 -1q23 0 32 3q0 -17 -35 -17q-9 0 -27 1t-28 1q-64 -85 -128 -176
l1 -1l2 1q175 131 234 131q14 0 14 -14q0 -9 -37 -73.5t-37 -100.5q0 -32 30 -32q53 0 146 57.5t145 107.5q2 0 2 -4q0 -2 -9 -11q-38 -39 -141 -101t-154 -62q-20 0 -30.5 9t-10.5 33q0 30 35 94.5t35 74.5q0 9 -9 9q-31 0 -127.5 -65t-117.5 -93q-53 -73 -66 -98
q-9 -17 -13 -17t-4 10q0 45 52 94q3 4 27.5 39t61.5 86.5t75 101.5q-31 0 -51 -4q-1 0 -1 2zM764 747q-137 0 -458 -405q95 8 212.5 73.5t198.5 151t81 146.5q0 19 -7.5 26.5t-26.5 7.5z" />
    <glyph glyph-name="Itilde" unicode="&#x128;" horiz-adv-x="790" 
d="M1228 746q0 3 -3 5t-5 3h-3q-70 0 -196 -115q50 1 100 21.5t78.5 45t28.5 40.5zM321 166q0 -10 12 -10q39 0 99.5 42.5t83.5 105.5q-70 -6 -132.5 -54t-62.5 -84zM169 -66q86 0 167.5 33.5t145 85.5t133.5 127.5t124 145.5t125.5 155.5t129.5 142.5l8 8
q-54 2 -128.5 26.5t-126.5 24.5q-78 0 -144.5 -49.5t-66.5 -112.5q0 -7 1 -12t1 -7l1 -3l-3 -4q-14 0 -14 28q0 56 76.5 117.5t165.5 61.5q52 0 124 -31t121 -32q55 51 117.5 90t103.5 39q21 0 21 -12q0 -18 -33.5 -47t-89.5 -53t-108 -24h-6l-4 -4q-33 -33 -89.5 -106.5
t-109 -147t-128 -156.5t-149.5 -145.5t-169.5 -104t-191.5 -41.5q-39 0 -75 9.5t-67 41t-31 80.5q0 67 41.5 136t105.5 122t146.5 86.5t160.5 33.5q48 0 73 -17.5t25 -46.5t-13 -60q25 -1 43 -8t18 -18q0 -6 -3 -6q-1 0 -3 3q-15 20 -58 22q-30 -64 -98 -112t-117 -48
q-26 0 -26 16q0 43 73.5 94t149.5 56q9 31 9 53q0 28 -19.5 46t-59.5 18q-48 0 -104 -16t-112 -48.5t-101 -76.5t-73.5 -105t-28.5 -128q0 -16 5 -33.5t18.5 -38.5t43.5 -34.5t73 -13.5zM1036 740q-18 0 -51 8.5t-55 8.5q-14 0 -27 -3.5t-19 -6.5l-5 -3q-1 -1 -4 -1t-3 2
l1 3q39 31 92 31q18 0 50.5 -8t46.5 -8q32 0 56 12q4 2 6 2t2 -2q0 -3 -12 -11t-34 -16t-44 -8z" />
    <glyph glyph-name="itilde" unicode="&#x129;" horiz-adv-x="263" 
d="M327 322q-11 0 -32 6t-35 6q-9 0 -17 -2t-11 -4l-4 -3q-1 -1 -3 -1t-2 2q9 10 26.5 16.5t32.5 6.5q12 0 32 -5.5t29 -5.5q25 0 38 10q2 0 2 -2q0 -1 -7.5 -7t-21.5 -11.5t-27 -5.5zM57 8q0 -28 35 -28q57 0 157 62t155 114q0 -5 1 -5q-3 -5 -8 -10q-45 -44 -150 -107.5
t-155 -63.5q-41 0 -41 41q0 48 62.5 130.5t100.5 109.5q8 6 22 6q9 0 9 -4q0 -2 -2 -4q-42 -36 -114 -122t-72 -119z" />
    <glyph glyph-name="Imacron" unicode="&#x12a;" horiz-adv-x="790" 
d="M939 758q0 16 53 16q7 0 36.5 -1t44.5 -1q23 0 32 3q0 -17 -35 -17q-12 0 -41 1.5t-50.5 1t-38.5 -4.5q-1 0 -1 2zM1228 746q0 3 -3 5t-5 3h-3q-70 0 -196 -115q50 1 100 21.5t78.5 45t28.5 40.5zM321 166q0 -10 12 -10q39 0 99.5 42.5t83.5 105.5q-70 -6 -132.5 -54
t-62.5 -84zM169 -66q86 0 167.5 33.5t145 85.5t133.5 127.5t124 145.5t125.5 155.5t129.5 142.5l8 8q-54 2 -128.5 26.5t-126.5 24.5q-78 0 -144.5 -49.5t-66.5 -112.5q0 -7 1 -12t1 -7l1 -3l-3 -4q-14 0 -14 28q0 56 76.5 117.5t165.5 61.5q52 0 124 -31t121 -32
q55 51 117.5 90t103.5 39q21 0 21 -12q0 -18 -33.5 -47t-89.5 -53t-108 -24h-6l-4 -4q-33 -33 -89.5 -106.5t-109 -147t-128 -156.5t-149.5 -145.5t-169.5 -104t-191.5 -41.5q-39 0 -75 9.5t-67 41t-31 80.5q0 67 41.5 136t105.5 122t146.5 86.5t160.5 33.5q48 0 73 -17.5
t25 -46.5t-13 -60q25 -1 43 -8t18 -18q0 -6 -3 -6q-1 0 -3 3q-15 20 -58 22q-30 -64 -98 -112t-117 -48q-26 0 -26 16q0 43 73.5 94t149.5 56q9 31 9 53q0 28 -19.5 46t-59.5 18q-48 0 -104 -16t-112 -48.5t-101 -76.5t-73.5 -105t-28.5 -128q0 -16 5 -33.5t18.5 -38.5
t43.5 -34.5t73 -13.5z" />
    <glyph glyph-name="imacron" unicode="&#x12b;" horiz-adv-x="263" 
d="M209 325q0 16 53 16q7 0 36.5 -1t44.5 -1q23 0 32 3q0 -17 -35 -17q-12 0 -41 1.5t-50.5 1t-38.5 -4.5q-1 0 -1 2zM57 8q0 -28 35 -28q57 0 157 62t155 114q0 -5 1 -5q-3 -5 -8 -10q-45 -44 -150 -107.5t-155 -63.5q-41 0 -41 41q0 48 62.5 130.5t100.5 109.5q8 6 22 6
q9 0 9 -4q0 -2 -2 -4q-42 -36 -114 -122t-72 -119z" />
    <glyph glyph-name="Iogonek" unicode="&#x12e;" horiz-adv-x="790" 
d="M1228 746q0 3 -3 5t-5 3h-3q-70 0 -196 -115q50 1 100 21.5t78.5 45t28.5 40.5zM321 166q0 -10 12 -10q39 0 99.5 42.5t83.5 105.5q-70 -6 -132.5 -54t-62.5 -84zM245 -141q-28 0 -28 21q0 27 39 55q-43 -8 -83 -8q-39 0 -75 9.5t-67 41t-31 80.5q0 67 41.5 136
t105.5 122t146.5 86.5t160.5 33.5q48 0 73 -17.5t25 -46.5t-13 -60q25 -1 43 -8t18 -18q0 -6 -3 -6q-1 0 -3 3q-15 20 -58 22q-30 -64 -98 -112t-117 -48q-26 0 -26 16q0 43 73.5 94t149.5 56q9 31 9 53q0 28 -19.5 46t-59.5 18q-48 0 -104 -16t-112 -48.5t-101 -76.5
t-73.5 -105t-28.5 -128q0 -16 5 -33.5t18.5 -38.5t43.5 -34.5t73 -13.5q86 0 167.5 33.5t145 85.5t133.5 127.5t124 145.5t125.5 155.5t129.5 142.5l8 8q-54 2 -128.5 26.5t-126.5 24.5q-78 0 -144.5 -49.5t-66.5 -112.5q0 -7 1 -12t1 -7l1 -3l-3 -4q-14 0 -14 28
q0 56 76.5 117.5t165.5 61.5q52 0 124 -31t121 -32q55 51 117.5 90t103.5 39q21 0 21 -12q0 -18 -33.5 -47t-89.5 -53t-108 -24h-6l-4 -4q-31 -31 -81 -96t-97.5 -131t-113.5 -143t-130.5 -139t-147.5 -111.5t-166 -68.5q-39 -25 -39 -55q0 -16 19 -16q10 0 18 4q2 0 2 -2
q0 -11 -29 -11z" />
    <glyph glyph-name="iogonek" unicode="&#x12f;" horiz-adv-x="263" 
d="M301 331q-12 0 -12 12t13 23t25 11q10 -2 10 -13q0 -12 -12.5 -22.5t-23.5 -10.5zM57 8q0 -28 35 -28q57 0 157 62t155 114q0 -5 1 -5q-3 -5 -8 -10q-39 -38 -131.5 -96t-149.5 -72q-34 -21 -34 -51q0 -16 19 -16q10 0 18 4q2 0 2 -2q0 -11 -29 -11q-28 0 -28 21
q0 27 36 53q-3 -1 -8 -1q-41 0 -41 41q0 48 62.5 130.5t100.5 109.5q8 6 22 6q9 0 9 -4q0 -2 -2 -4q-42 -36 -114 -122t-72 -119z" />
    <glyph glyph-name="Idotaccent" unicode="&#x130;" horiz-adv-x="790" 
d="M996 721q-12 0 -12 12t13 23t25 11q10 -2 10 -13q0 -12 -12.5 -22.5t-23.5 -10.5zM1228 746q0 3 -3 5t-5 3h-3q-70 0 -196 -115q50 1 100 21.5t78.5 45t28.5 40.5zM321 166q0 -10 12 -10q39 0 99.5 42.5t83.5 105.5q-70 -6 -132.5 -54t-62.5 -84zM169 -66
q86 0 167.5 33.5t145 85.5t133.5 127.5t124 145.5t125.5 155.5t129.5 142.5l8 8q-54 2 -128.5 26.5t-126.5 24.5q-78 0 -144.5 -49.5t-66.5 -112.5q0 -7 1 -12t1 -7l1 -3l-3 -4q-14 0 -14 28q0 56 76.5 117.5t165.5 61.5q52 0 124 -31t121 -32q55 51 117.5 90t103.5 39
q21 0 21 -12q0 -18 -33.5 -47t-89.5 -53t-108 -24h-6l-4 -4q-33 -33 -89.5 -106.5t-109 -147t-128 -156.5t-149.5 -145.5t-169.5 -104t-191.5 -41.5q-39 0 -75 9.5t-67 41t-31 80.5q0 67 41.5 136t105.5 122t146.5 86.5t160.5 33.5q48 0 73 -17.5t25 -46.5t-13 -60
q25 -1 43 -8t18 -18q0 -6 -3 -6q-1 0 -3 3q-15 20 -58 22q-30 -64 -98 -112t-117 -48q-26 0 -26 16q0 43 73.5 94t149.5 56q9 31 9 53q0 28 -19.5 46t-59.5 18q-48 0 -104 -16t-112 -48.5t-101 -76.5t-73.5 -105t-28.5 -128q0 -16 5 -33.5t18.5 -38.5t43.5 -34.5t73 -13.5z
" />
    <glyph glyph-name="dotlessi" unicode="&#x131;" horiz-adv-x="263" 
d="M57 8q0 -28 35 -28q57 0 157 62t155 114q0 -5 1 -5q-3 -5 -8 -10q-45 -44 -150 -107.5t-155 -63.5q-41 0 -41 41q0 48 62.5 130.5t100.5 109.5q8 6 22 6q9 0 9 -4q0 -2 -2 -4q-42 -36 -114 -122t-72 -119z" />
    <glyph glyph-name="Jcircumflex" unicode="&#x134;" horiz-adv-x="935" 
d="M1067 762q-13 30 -21 30q-18 0 -51.5 -14t-51.5 -25q-1 -1 -3 -1q-1 0 -1 2q10 14 56 38t63 24q7 0 12 -25t5 -34q0 -2 -2 -2q-3 0 -6 7zM1214 754q11 -1 11 -8q0 -27 -65.5 -67t-141.5 -41q42 40 100 78t96 38zM79 -205q-7 0 -15 1.5t-23 7.5t-24.5 22t-9.5 40
q0 37 23.5 87.5t66.5 107t111 111.5t149.5 99t190 72t225.5 29q-171 -225 -253 -315q-212 -232 -392 -258q-24 -4 -49 -4zM928 296q0 -63 -49 -120.5t-113 -88t-116 -30.5h-10q-6 0 -6 -2q0 -4 4 -6.5t8 -2.5h4q55 0 127 38.5t125 98.5t53 113q0 39 -39.5 59.5t-100.5 23.5
q16 22 45.5 62t45.5 61t37 49t37 46.5t30 32.5h9q51 0 107 24.5t89 54t33 47.5q0 12 -20 12q-42 0 -104 -39t-118 -91q-48 1 -120.5 32.5t-124.5 31.5q-89 0 -165.5 -61.5t-76.5 -117.5q0 -28 14 -28q2 0 2 3l-1 2v2q-1 5 -1 19q0 65 67 114.5t144 49.5q50 0 122.5 -26
t131.5 -29l-7 -6q-84 -81 -212 -244q-118 -1 -229.5 -28.5t-196.5 -71t-157 -98t-118.5 -110.5t-72 -107.5t-25.5 -89.5q0 -35 19 -56t38.5 -26t42.5 -5q57 0 117 19.5t113.5 50.5t112 80t105.5 96t101.5 111t93 113t86.5 113q59 -2 89 -19t30 -56z" />
    <glyph glyph-name="jcircumflex" unicode="&#x135;" horiz-adv-x="258" 
d="M382 375q-12 30 -21 30q-18 0 -51.5 -14t-51.5 -25q-1 -1 -3 -1q-1 0 -1 2q10 14 56 38t63 24q7 0 12 -25t5 -34q0 -2 -2 -2q-3 0 -6 7zM-795 -738q-54 0 -54 58q0 59 67.5 145t171 167t242 146.5t266.5 84.5q-61 -79 -100.5 -128t-99 -119.5t-102.5 -114.5t-98.5 -94.5
t-101 -78.5t-96 -47t-95.5 -19zM134 -188q0 64 -136 64q-30 0 -62 -3q17 22 72 91t78.5 98t64.5 79t73 85.5t62 66.5q6 5 6 10q0 6 -12 6q-28 0 -87 -22.5t-76 -39.5q-7 -7 -7 -13q0 -3 1 -5t3 -3h1l5 7q14 20 54 38.5t67 18.5q12 0 12 -5l-4 -8q-51 -49 -115 -123
t-108 -129t-122 -155q-134 -18 -276 -82t-248.5 -144.5t-175 -168t-68.5 -151.5q0 -68 67 -68q64 0 139 36.5t142 90t151 141t147 162t148 181.5q20 2 59 2q126 0 126 -55q0 -36 -29.5 -63.5t-59.5 -37.5q-7 -2 -7 -4q0 -1 2 -1q6 0 16 4q32 12 64.5 41.5t32.5 58.5z" />
    <glyph glyph-name="uni0136" unicode="&#x136;" horiz-adv-x="892" 
d="M456 -109q0 2 -2 2l-5 -2q-5 -2 -8 -2q-11 0 -11 10q0 11 10.5 22.5t23.5 11.5t13 -13q0 -22 -21.5 -47t-40.5 -25l-5 3q1 1 3 1q17 3 30 17.5t13 21.5zM954 730q0 12 -11 12q-76 0 -237 -203q105 49 176.5 103.5t71.5 87.5zM25 -73q0 -26 27 -26q35 0 76.5 21.5t79.5 53
t86.5 84.5t86 99.5t89.5 114.5q-100 -47 -174.5 -88t-138.5 -86t-98 -88.5t-34 -84.5zM932 -167q56 0 110 27q14 8 15 8q2 0 2 -3q0 -6 -16 -15.5t-52.5 -18t-80.5 -8.5q-51 0 -88.5 16t-60.5 43.5t-36.5 71t-18.5 91t-5 111.5q0 147 25 233q-119 -52 -206 -92
q-70 -90 -123 -152t-117.5 -125t-123.5 -95t-112 -32q-44 0 -44 33q0 42 36.5 87.5t107 92.5t149 88.5t187.5 92.5q169 219 171 221q-167 -67 -297 -67q-170 0 -170 85q0 62 64 123.5t154 98.5t167 37q22 0 22 -8q0 -3 -16 -3h-23q-67 0 -146.5 -32.5t-139 -91.5t-59.5 -122
q0 -79 150 -79q133 0 304 71q94 113 169 174.5t139 61.5q4 0 9 -4t5 -10q0 -34 -84.5 -98.5t-203.5 -117.5q-29 -37 -87 -113t-79 -103q37 17 106.5 47.5t93.5 41.5q15 42 31 42q8 0 8 -9v-2l-2 -6q-3 -6 -4 -10q220 98 356 170t204 140q3 2 6 5.5t5 5.5t3 2q3 0 3 -7
q0 -17 -19 -36q-30 -30 -82.5 -63t-145 -77t-148.5 -69t-186 -82q-45 -143 -45 -305q0 -60 9.5 -105t32.5 -83t67.5 -57.5t109.5 -19.5z" />
    <glyph glyph-name="uni0137" unicode="&#x137;" horiz-adv-x="477" 
d="M134 -93q0 2 -2 2l-5 -2q-5 -2 -8 -2q-11 0 -11 10q0 11 10.5 22.5t23.5 11.5t13 -13q0 -22 -21.5 -47t-40.5 -25l-5 3q1 1 3 1q17 3 30 17.5t13 21.5zM760 748q-141 0 -484 -442q109 35 229.5 112.5t200.5 162.5t80 140q0 27 -26 27zM325 -6q-47 0 -72.5 29.5
t-25.5 77.5q0 19 6 34t16 15q7 0 7 -6v-2q33 0 84.5 23t89 51t37.5 42q0 7 -11 7q-44 0 -130 -46t-155 -97t-85 -73q-7 -10 -41 -59.5t-41 -63.5q-8 -13 -11 -13q-4 0 -4 16q0 6 2.5 17t15.5 33.5t34 40.5q77 115 194 269q-44 -11 -77 -11q-25 0 -41.5 5t-21 10t-4.5 11
q0 7 2 7l3 -3q14 -23 60 -23q38 0 85 11q356 459 527 459q15 0 26 -9t11 -27q0 -60 -88 -148t-213 -163.5t-235 -109.5q-79 -102 -150 -203q-1 -2 -1 -3q0 -2 3 1q81 64 186 123.5t169 59.5q19 0 19 -10q0 -32 -92.5 -80t-148.5 -53q-4 -11 -4 -27q0 -43 22.5 -73t65.5 -30
q45 0 106 31t99.5 60t73.5 61q1 -1 1 -5l-3 -6q-48 -41 -82.5 -67t-95.5 -54.5t-112 -28.5z" />
    <glyph glyph-name="kgreenlandic" unicode="&#x138;" horiz-adv-x="473" 
d="M31 -4q-11 -11 -19 -11q-12 0 -12 3q0 1 2 3q11 12 28.5 32.5t63 75t81 99.5t66.5 90t35 62q1 2 5 2q9 -3 9 -23q0 -12 -12.5 -33.5t-34.5 -49.5t-43 -52.5t-47.5 -54.5t-37.5 -44q-1 -2 -1 -3q0 -2 3 1q81 64 186 123.5t169 59.5q19 0 19 -10q0 -32 -92.5 -80
t-148.5 -53q-4 -11 -4 -27q0 -43 22.5 -73t65.5 -30q45 0 106 31t99.5 60t73.5 61q1 -1 1 -5l-3 -6q-48 -41 -82.5 -67t-95.5 -54.5t-112 -28.5q-47 0 -72.5 29.5t-25.5 77.5q0 19 6 34t16 15q7 0 7 -6v-2q33 0 84.5 23t89 51t37.5 42q0 7 -11 7q-61 0 -184 -76t-176 -129
q-55 -55 -61 -64z" />
    <glyph glyph-name="Lacute" unicode="&#x139;" horiz-adv-x="1105" 
d="M1300 801q-16 0 -61 -18t-62 -31q-1 -1 -3 -1q-3 0 -3 2q0 8 43.5 38t63.5 30q8 0 18 -6.5t10 -10.5q0 -3 -6 -3zM104 -82q102 0 200 61q-62 9 -140 9q-39 0 -71.5 -7.5t-49 -17.5t-16.5 -19q0 -12 22.5 -19t54.5 -7zM1185 714q-53 0 -110.5 -26t-98.5 -53.5t-107 -96.5
t-93.5 -101t-100.5 -122l-3 -3t-2.5 -3t-3 -3.5t-2.5 -3.5q119 23 228.5 72.5t180.5 104.5t113.5 107.5t42.5 88.5q0 19 -15 29t-29 10zM1122 247q0 27 -19.5 39.5t-45.5 12.5q-88 0 -186.5 -57t-171.5 -137t-111 -160q56 -8 114 -8q92 0 191 47.5t164 120.5t65 142z
M339 -13q51 -6 127 -21t98 -18q37 84 121 167.5t186 137.5t186 54q90 0 90 -54q0 -44 -39 -100.5t-100 -105.5t-144.5 -83t-162.5 -34q-60 0 -117 5q-22 -52 -22 -89q0 -17 2 -31t4 -22.5t7 -16.5t7 -10.5t8 -7.5l6 -6q3 -3 3 -5l-4 -2q-8 0 -19.5 11t-22.5 37t-11 58
q0 43 18 86q-52 6 -130.5 21t-106.5 19q-111 -66 -220 -66q-103 0 -103 34q0 10 17.5 21t59 20.5t96.5 9.5q87 0 147 -7q47 31 101 84t90 94t101 119q-74 -11 -141 -11q-224 0 -224 121q0 77 72.5 150t172.5 114t188 41q85 0 85 -28q0 -7 -3 -7t-9 6.5t-26 13t-56 6.5
q-80 0 -171 -37.5t-158.5 -108t-67.5 -150.5q0 -60 48 -86.5t145 -26.5q75 0 152 11q134 162 221 249q79 79 173.5 129t158.5 50q72 0 72 -54q0 -64 -82.5 -140.5t-219.5 -141t-285 -93.5q-93 -110 -166.5 -183.5t-151.5 -122.5z" />
    <glyph glyph-name="lacute" unicode="&#x13a;" horiz-adv-x="379" 
d="M861 792q-16 0 -61 -18t-62 -31q-1 -1 -3 -1q-3 0 -3 2q0 8 43.5 38t63.5 30q8 0 18 -6.5t10 -10.5q0 -3 -6 -3zM713 699q-89 0 -227 -127.5t-250 -289.5q78 5 169.5 52t162 108.5t118 126t47.5 104.5q0 26 -20 26zM140 315q17 -29 65 -33q107 162 259.5 293t251.5 131
q36 0 36 -33q0 -45 -52.5 -112.5t-128.5 -129t-170.5 -107t-169.5 -49.5q-115 -167 -115 -241q0 -59 68 -59q135 0 336 182q3 -2 3 -5l-4 -7q-68 -64 -166.5 -125.5t-176.5 -61.5q-70 0 -70 80q0 91 95 237q-29 3 -47.5 12.5t-18.5 22.5q0 6 3 6q1 0 2 -1z" />
    <glyph glyph-name="uni013B" unicode="&#x13b;" horiz-adv-x="1105" 
d="M386 -142q0 2 -2 2l-5 -2q-5 -2 -8 -2q-11 0 -11 10q0 11 10.5 22.5t23.5 11.5t13 -13q0 -22 -21.5 -47t-40.5 -25l-5 3q1 1 3 1q17 3 30 17.5t13 21.5zM104 -82q102 0 200 61q-62 9 -140 9q-39 0 -71.5 -7.5t-49 -17.5t-16.5 -19q0 -12 22.5 -19t54.5 -7zM1185 714
q-53 0 -110.5 -26t-98.5 -53.5t-107 -96.5t-93.5 -101t-100.5 -122l-3 -3t-2.5 -3t-3 -3.5t-2.5 -3.5q119 23 228.5 72.5t180.5 104.5t113.5 107.5t42.5 88.5q0 19 -15 29t-29 10zM1122 247q0 27 -19.5 39.5t-45.5 12.5q-88 0 -186.5 -57t-171.5 -137t-111 -160
q56 -8 114 -8q92 0 191 47.5t164 120.5t65 142zM339 -13q51 -6 127 -21t98 -18q37 84 121 167.5t186 137.5t186 54q90 0 90 -54q0 -44 -39 -100.5t-100 -105.5t-144.5 -83t-162.5 -34q-60 0 -117 5q-22 -52 -22 -89q0 -17 2 -31t4 -22.5t7 -16.5t7 -10.5t8 -7.5l6 -6
q3 -3 3 -5l-4 -2q-8 0 -19.5 11t-22.5 37t-11 58q0 43 18 86q-52 6 -130.5 21t-106.5 19q-111 -66 -220 -66q-103 0 -103 34q0 10 17.5 21t59 20.5t96.5 9.5q87 0 147 -7q47 31 101 84t90 94t101 119q-74 -11 -141 -11q-224 0 -224 121q0 77 72.5 150t172.5 114t188 41
q85 0 85 -28q0 -7 -3 -7t-9 6.5t-26 13t-56 6.5q-80 0 -171 -37.5t-158.5 -108t-67.5 -150.5q0 -60 48 -86.5t145 -26.5q75 0 152 11q134 162 221 249q79 79 173.5 129t158.5 50q72 0 72 -54q0 -64 -82.5 -140.5t-219.5 -141t-285 -93.5q-93 -110 -166.5 -183.5
t-151.5 -122.5z" />
    <glyph glyph-name="uni013C" unicode="&#x13c;" horiz-adv-x="379" 
d="M105 -116q0 2 -2 2q-1 0 -5.5 -2t-7.5 -2q-11 0 -11 10q0 11 10.5 22.5t23.5 11.5t13 -13q0 -22 -21.5 -47t-40.5 -25l-5 3q1 1 3 1q17 3 30 17.5t13 21.5zM713 699q-89 0 -227 -127.5t-250 -289.5q78 5 169.5 52t162 108.5t118 126t47.5 104.5q0 26 -20 26zM140 315
q17 -29 65 -33q107 162 259.5 293t251.5 131q36 0 36 -33q0 -45 -52.5 -112.5t-128.5 -129t-170.5 -107t-169.5 -49.5q-115 -167 -115 -241q0 -59 68 -59q135 0 336 182q3 -2 3 -5l-4 -7q-68 -64 -166.5 -125.5t-176.5 -61.5q-70 0 -70 80q0 91 95 237q-29 3 -47.5 12.5
t-18.5 22.5q0 6 3 6q1 0 2 -1z" />
    <glyph glyph-name="Lcaron" unicode="&#x13d;" horiz-adv-x="1105" 
d="M1347 613q0 2 -1 2l-5 -3q-5 -2 -9 -2q-13 0 -13 11t10.5 22.5t24.5 11.5q12 0 12 -13q0 -22 -23.5 -51.5t-42.5 -29.5q-5 0 -5 2q0 1 3 3q17 3 33 21.5t16 25.5zM104 -82q102 0 200 61q-62 9 -140 9q-39 0 -71.5 -7.5t-49 -17.5t-16.5 -19q0 -12 22.5 -19t54.5 -7z
M1185 714q-53 0 -110.5 -26t-98.5 -53.5t-107 -96.5t-93.5 -101t-100.5 -122l-3 -3t-2.5 -3t-3 -3.5t-2.5 -3.5q119 23 228.5 72.5t180.5 104.5t113.5 107.5t42.5 88.5q0 19 -15 29t-29 10zM1122 247q0 27 -19.5 39.5t-45.5 12.5q-88 0 -186.5 -57t-171.5 -137t-111 -160
q56 -8 114 -8q92 0 191 47.5t164 120.5t65 142zM339 -13q51 -6 127 -21t98 -18q37 84 121 167.5t186 137.5t186 54q90 0 90 -54q0 -44 -39 -100.5t-100 -105.5t-144.5 -83t-162.5 -34q-60 0 -117 5q-22 -52 -22 -89q0 -17 2 -31t4 -22.5t7 -16.5t7 -10.5t8 -7.5l6 -6
q3 -3 3 -5l-4 -2q-8 0 -19.5 11t-22.5 37t-11 58q0 43 18 86q-52 6 -130.5 21t-106.5 19q-111 -66 -220 -66q-103 0 -103 34q0 10 17.5 21t59 20.5t96.5 9.5q87 0 147 -7q47 31 101 84t90 94t101 119q-74 -11 -141 -11q-224 0 -224 121q0 77 72.5 150t172.5 114t188 41
q85 0 85 -28q0 -7 -3 -7t-9 6.5t-26 13t-56 6.5q-80 0 -171 -37.5t-158.5 -108t-67.5 -150.5q0 -60 48 -86.5t145 -26.5q75 0 152 11q134 162 221 249q79 79 173.5 129t158.5 50q72 0 72 -54q0 -64 -82.5 -140.5t-219.5 -141t-285 -93.5q-93 -110 -166.5 -183.5
t-151.5 -122.5z" />
    <glyph glyph-name="lcaron" unicode="&#x13e;" horiz-adv-x="379" 
d="M827 646q0 2 -1 2l-5 -2q-5 -3 -9 -3q-13 0 -13 11t10.5 22.5t24.5 11.5q12 0 12 -13q0 -22 -23.5 -51.5t-42.5 -29.5q-5 0 -5 2t3 3q17 3 33 21.5t16 25.5zM713 699q-89 0 -227 -127.5t-250 -289.5q78 5 169.5 52t162 108.5t118 126t47.5 104.5q0 26 -20 26zM140 315
q17 -29 65 -33q107 162 259.5 293t251.5 131q36 0 36 -33q0 -45 -52.5 -112.5t-128.5 -129t-170.5 -107t-169.5 -49.5q-115 -167 -115 -241q0 -59 68 -59q135 0 336 182q3 -2 3 -5l-4 -7q-68 -64 -166.5 -125.5t-176.5 -61.5q-70 0 -70 80q0 91 95 237q-29 3 -47.5 12.5
t-18.5 22.5q0 6 3 6q1 0 2 -1z" />
    <glyph glyph-name="Lslash" unicode="&#x141;" horiz-adv-x="1105" 
d="M104 -82q102 0 200 61q-62 9 -140 9q-39 0 -71.5 -7.5t-49 -17.5t-16.5 -19q0 -12 22.5 -19t54.5 -7zM1185 714q-86 0 -183 -66t-154 -129t-172 -203q-8 -9 -12 -14q119 23 228.5 72.5t180.5 104.5t113.5 107.5t42.5 88.5q0 19 -15 29t-29 10zM1122 247q0 27 -19.5 39.5
t-45.5 12.5q-88 0 -186.5 -57t-171.5 -137t-111 -160q56 -8 114 -8q92 0 191 47.5t164 120.5t65 142zM591 186q-33 -13 -43 -16q-110 -120 -209 -183q51 -6 127 -21t98 -18q37 84 121 167.5t186 137.5t186 54q90 0 90 -54q0 -44 -39 -100.5t-100 -105.5t-144.5 -83
t-162.5 -34q-60 0 -117 5q-22 -52 -22 -89q0 -17 2 -31t4 -22.5t7 -16.5t7 -10.5t8 -7.5l6 -6q3 -3 3 -5l-4 -2q-8 0 -19.5 11t-22.5 37t-11 58q0 43 18 86q-52 6 -130.5 21t-106.5 19q-111 -66 -220 -66q-103 0 -103 34q0 10 17.5 21t59 20.5t96.5 9.5q87 0 147 -7
q81 55 179 164q-54 -17 -61 -20q-49 -18 -67 -21q-6 -1 -10 -1q-3 0 -4.5 1t-2.5 2v1q0 2 6 2q12 0 72 22q50 18 78 27q50 56 102 120q-74 -11 -141 -11q-224 0 -224 121q0 77 72.5 150t172.5 114t188 41q85 0 85 -28q0 -7 -3 -7t-9 6.5t-26 13t-56 6.5q-80 0 -171 -37.5
t-158.5 -108t-67.5 -150.5q0 -60 48 -86.5t145 -26.5q75 0 152 11q134 162 221 249q79 79 173.5 129t158.5 50q72 0 72 -54q0 -64 -82.5 -140.5t-219.5 -141t-285 -93.5q-64 -74 -97 -110l27 10q33 12 59.5 20.5t37.5 10.5l10 2h4q10 0 10 -3l-2 -3q-36 -5 -115 -34z" />
    <glyph glyph-name="lslash" unicode="&#x142;" horiz-adv-x="379" 
d="M713 699q-89 0 -227 -127.5t-250 -289.5q78 5 169.5 52t162 108.5t118 126t47.5 104.5q0 26 -20 26zM409 243v-1l-2 -2q-36 -5 -115 -34q-29 -11 -131 -46q-45 -84 -45 -126q0 -59 68 -59q135 0 336 182q3 -2 3 -5l-4 -7q-68 -64 -166.5 -125.5t-176.5 -61.5
q-70 0 -70 80q0 46 27 113q-45 -16 -61 -19q-1 0 -4.5 -0.5t-5.5 -0.5q-6 0 -7 3v1q0 2 6 2q9 0 72 22q1 0 5 2q26 58 63 114q-29 3 -47.5 12.5t-18.5 22.5q0 6 3 6q1 0 2 -1q17 -29 65 -33q107 162 259.5 293t251.5 131q36 0 36 -33q0 -45 -52.5 -112.5t-128.5 -129
t-170.5 -107t-169.5 -49.5q-34 -49 -65 -104q68 22 122 42q33 12 59.5 20.5t36.5 10.5l11 2q12 0 14 -3z" />
    <glyph glyph-name="Nacute" unicode="&#x143;" horiz-adv-x="1128" 
d="M1099 491q1 0 4.5 -16.5t23 -35.5t58.5 -23q291 340 454 340q35 0 35 -30q0 -34 -46 -88.5t-113.5 -105.5t-153.5 -88t-157 -37h-4q-75 -87 -187.5 -229.5t-173 -213.5t-79.5 -71q-16 0 -16 29q0 93 56 224.5t122.5 235.5t122.5 193t56 106q0 10 -10 10q-50 0 -164 -114
q-45 -45 -129.5 -143.5t-159 -181t-164 -167.5t-181 -134t-172.5 -49q-121 0 -121 121q0 92 70.5 201t179.5 185t208 76t99 -71q0 -30 -14 -68q24 -1 40.5 -8t16.5 -19q0 -6 -2 -6t-3 3q-15 21 -55 23q-29 -69 -96 -121.5t-114 -52.5q-25 0 -25 18q0 46 73 102t147 61
q10 32 10 62q0 69 -82 69q-62 0 -137.5 -41t-139.5 -105.5t-107.5 -152.5t-43.5 -173q0 -39 23.5 -67t76.5 -28q66 0 145.5 43.5t157 113t157.5 153.5t154.5 168.5t140.5 154t123.5 113t94.5 43.5q15 0 15 -18q0 -29 -52.5 -121t-115 -192.5t-115 -223t-52.5 -205.5
q2 -9 9 -9q16 0 69 66.5t150.5 195.5t172.5 217q-36 6 -61.5 24t-25.5 42q0 16 7 16zM1207 415h3q67 0 147.5 36t144 85.5t106.5 103t43 86.5q0 21 -25 21q-130 0 -419 -332zM346 178q35 0 94 45.5t83 114.5q-68 -5 -129 -54.5t-61 -93.5q0 -12 13 -12zM1401 778
q-16 0 -61 -18t-62 -31q-1 -1 -3 -1q-3 0 -3 2q0 8 43.5 38t63.5 30q8 0 18 -6.5t10 -10.5q0 -3 -6 -3z" />
    <glyph glyph-name="nacute" unicode="&#x144;" horiz-adv-x="454" 
d="M500 379q-16 0 -61 -18t-62 -31q-1 -1 -3 -1q-3 0 -3 2q0 8 43.5 38t63.5 30q8 0 18 -6.5t10 -10.5q0 -3 -6 -3zM290 329q0 -21 -46.5 -78.5t-102.5 -119t-67 -78.5q-2 -3 -2 -7q0 -2 2 -2l7 2q94 70 197 133.5t135 63.5q9 0 9 -9q0 -16 -22.5 -45.5t-50 -58t-50.5 -63.5
t-23 -60q0 -15 16 -15q58 0 142.5 50.5t160.5 113.5h1q1 0 1 -2l-3 -7q-78 -65 -168.5 -120.5t-138.5 -55.5q-24 0 -24 20q0 40 29.5 90.5t58.5 86.5t28 41q0 6 -6 6q-31 0 -145.5 -75.5t-196.5 -143.5q-11 -11 -19 -11q-12 0 -12 3q0 1 2 3q11 12 28.5 32.5t63 75t81 99.5
t66.5 90t35 62q1 2 5 2q8 -3 9 -23z" />
    <glyph glyph-name="uni0145" unicode="&#x145;" horiz-adv-x="1128" 
d="M1099 491q1 0 4.5 -16.5t23 -35.5t58.5 -23q291 340 454 340q35 0 35 -30q0 -34 -46 -88.5t-113.5 -105.5t-153.5 -88t-157 -37h-4q-75 -87 -187.5 -229.5t-173 -213.5t-79.5 -71q-16 0 -16 29q0 93 56 224.5t122.5 235.5t122.5 193t56 106q0 10 -10 10q-50 0 -164 -114
q-45 -45 -129.5 -143.5t-159 -181t-164 -167.5t-181 -134t-172.5 -49q-121 0 -121 121q0 92 70.5 201t179.5 185t208 76t99 -71q0 -30 -14 -68q24 -1 40.5 -8t16.5 -19q0 -6 -2 -6t-3 3q-15 21 -55 23q-29 -69 -96 -121.5t-114 -52.5q-25 0 -25 18q0 46 73 102t147 61
q10 32 10 62q0 69 -82 69q-62 0 -137.5 -41t-139.5 -105.5t-107.5 -152.5t-43.5 -173q0 -39 23.5 -67t76.5 -28q66 0 145.5 43.5t157 113t157.5 153.5t154.5 168.5t140.5 154t123.5 113t94.5 43.5q15 0 15 -18q0 -29 -52.5 -121t-115 -192.5t-115 -223t-52.5 -205.5
q2 -9 9 -9q16 0 69 66.5t150.5 195.5t172.5 217q-36 6 -61.5 24t-25.5 42q0 16 7 16zM1207 415h3q67 0 147.5 36t144 85.5t106.5 103t43 86.5q0 21 -25 21q-130 0 -419 -332zM346 178q35 0 94 45.5t83 114.5q-68 -5 -129 -54.5t-61 -93.5q0 -12 13 -12zM516 -132q0 2 -2 2
l-5 -2q-5 -2 -8 -2q-11 0 -11 10q0 11 10.5 22.5t23.5 11.5t13 -13q0 -22 -21.5 -47t-40.5 -25l-5 3q1 1 3 1q17 3 30 17.5t13 21.5z" />
    <glyph glyph-name="uni0146" unicode="&#x146;" horiz-adv-x="454" 
d="M72 -132q0 2 -2 2l-5 -2q-5 -2 -8 -2q-11 0 -11 10q0 11 10.5 22.5t23.5 11.5t13 -13q0 -22 -21.5 -47t-40.5 -25l-5 3q1 1 3 1q17 3 30 17.5t13 21.5zM290 329q0 -21 -46.5 -78.5t-102.5 -119t-67 -78.5q-2 -3 -2 -7q0 -2 2 -2l7 2q94 70 197 133.5t135 63.5q9 0 9 -9
q0 -16 -22.5 -45.5t-50 -58t-50.5 -63.5t-23 -60q0 -15 16 -15q58 0 142.5 50.5t160.5 113.5h1q1 0 1 -2l-3 -7q-78 -65 -168.5 -120.5t-138.5 -55.5q-24 0 -24 20q0 40 29.5 90.5t58.5 86.5t28 41q0 6 -6 6q-31 0 -145.5 -75.5t-196.5 -143.5q-11 -11 -19 -11q-12 0 -12 3
q0 1 2 3q11 12 28.5 32.5t63 75t81 99.5t66.5 90t35 62q1 2 5 2q8 -3 9 -23z" />
    <glyph glyph-name="Ncaron" unicode="&#x147;" horiz-adv-x="1128" 
d="M1099 491q-7 0 -7 -16q0 -24 25.5 -42t61.5 -24q-75 -88 -172.5 -217t-150.5 -195.5t-69 -66.5q-3 0 -5.5 2t-3.5 4v3q0 83 52.5 205.5t115 223t115 192.5t52.5 121q0 18 -15 18q-37 0 -94.5 -43.5t-123.5 -113t-140.5 -153.5t-154.5 -168.5t-157.5 -154t-157 -113
t-145.5 -43.5q-53 0 -76.5 28t-23.5 67q0 85 43.5 173t107.5 152.5t139.5 105.5t137.5 41q82 0 82 -69q0 -30 -10 -62q-74 -5 -147 -61t-73 -102q0 -18 25 -18q47 0 114 52.5t96 121.5q18 -1 31.5 -6.5t18.5 -10.5l5 -6q1 -3 3 -3t2 6q0 12 -16.5 19t-40.5 8q14 38 14 68
q0 71 -99 71t-208 -76t-179.5 -185t-70.5 -201q0 -121 121 -121q81 0 172.5 49t181 134t164 167.5t159 181t129.5 143.5q114 114 164 114q10 0 10 -10q0 -17 -56 -106t-122.5 -193t-122.5 -235.5t-56 -224.5q0 -29 16 -29q19 0 79.5 71t173 213.5t187.5 229.5h4q71 0 157 37
t153.5 88t113.5 105.5t46 88.5q0 30 -35 30q-163 0 -454 -340q-39 4 -58.5 23t-23 35.5t-4.5 16.5zM1210 415h-3q289 332 419 332q25 0 25 -21q0 -33 -43 -86.5t-106.5 -103t-144 -85.5t-147.5 -36zM346 178q-13 0 -13 12q0 44 61 93.5t129 54.5q-24 -69 -83 -114.5
t-94 -45.5zM1284 775q12 -30 21 -30q18 0 51.5 14t51.5 25q1 1 3 1q1 0 1 -2q-10 -14 -56 -38t-63 -24q-7 0 -12 25t-5 34q0 2 2 2q3 0 6 -7z" />
    <glyph glyph-name="ncaron" unicode="&#x148;" horiz-adv-x="454" 
d="M375 386q13 -30 21 -30q18 0 51.5 14t51.5 25q1 1 3 1q1 0 1 -2q-10 -14 -56 -38t-63 -24q-7 0 -12 25t-5 34q0 2 2 2q3 0 6 -7zM290 329q0 9 -2.5 14.5t-4.5 6.5l-2 2l-5 -2q-6 -28 -74.5 -117.5t-133.5 -165.5l-66 -76q-2 -2 -2 -3l12 -3q4 0 8.5 2.5t7.5 5.5l3 3
q82 68 196.5 143.5t145.5 75.5q6 0 6 -6q1 -5 -28 -41t-58.5 -86.5t-29.5 -90.5q0 -20 24 -20q48 0 138.5 55.5t168.5 120.5q3 3 3 7q-1 2 -2 2q-76 -63 -160.5 -113.5t-142.5 -50.5q-16 0 -16 15q0 25 23 60t50.5 63.5t50 58t22.5 45.5q0 9 -9 9q-32 0 -135 -63.5
t-197 -133.5q-3 -2 -7 -2q-2 0 -2 2q0 4 2 7q11 17 67 78.5t102.5 119t46.5 78.5z" />
    <glyph glyph-name="Eng" unicode="&#x14a;" horiz-adv-x="1128" 
d="M346 178q35 0 94 45.5t83 114.5q-68 -5 -129 -54.5t-61 -93.5q0 -12 13 -12zM1626 747q-138 0 -424 -332h8q67 0 147.5 36t144 85.5t106.5 103t43 86.5q0 21 -25 21zM-9 -781q70 0 148.5 37.5t138 83.5t144.5 138.5t129 147t130 165.5q3 3 4 5q-117 -1 -225.5 -29
t-190 -72t-149.5 -99t-111 -111.5t-66.5 -107t-23.5 -87.5q0 -24 9.5 -40t24.5 -22t23 -7.5t15 -1.5zM781 -82q27 30 163 206.5t231 284.5q-35 6 -59 24t-24 42q0 16 7 16q1 0 4.5 -16t22 -35t55.5 -24q297 340 458 340q35 0 35 -30q0 -34 -46 -88.5t-113.5 -105.5
t-153.5 -88t-157 -37h-9q-79 -91 -213 -262t-140 -178q-42 -52 -129 -163q67 -2 110.5 -22t43.5 -62q0 -53 -53 -113t-125 -98.5t-127 -38.5q-16 0 -16 9q0 2 6 2h10q52 0 116 30.5t113 88t49 120.5q0 42 -33.5 58.5t-99.5 17.5q-74 -94 -130.5 -161.5t-138.5 -153.5
t-150 -139.5t-147.5 -91.5t-148.5 -38q-23 0 -42.5 5t-38.5 26t-19 56q0 47 35 110t106 132t164 127t223.5 96.5t270.5 39.5q29 39 70 89q-17 0 -17 29q0 93 56 224.5t122.5 235.5t122.5 193t56 106q0 10 -10 10q-50 0 -164 -114q-45 -45 -129.5 -143.5t-159 -181
t-164 -167.5t-181 -134t-172.5 -49q-121 0 -121 121q0 92 70.5 201t179.5 185t208 76t99 -71q0 -30 -14 -68q24 -1 40.5 -8t16.5 -19q0 -6 -2 -6t-3 3q-15 21 -55 23q-29 -69 -96 -121.5t-114 -52.5q-25 0 -25 18q0 46 73 102t147 61q10 32 10 62q0 69 -82 69
q-62 0 -137.5 -41t-139.5 -105.5t-107.5 -152.5t-43.5 -173q0 -39 23.5 -67t76.5 -28q66 0 145.5 43.5t157 113t157.5 153.5t154.5 168.5t140.5 154t123.5 113t94.5 43.5q15 0 15 -18q0 -29 -54.5 -125.5t-119.5 -203.5t-119.5 -234t-54.5 -210q0 -2 2 -2q3 0 14 12z" />
    <glyph glyph-name="eng" unicode="&#x14b;" horiz-adv-x="423" 
d="M-588 -738q63 0 135.5 36t135.5 87.5t145 140t139.5 159t142.5 178.5q-128 -18 -267.5 -83t-244 -146.5t-172.5 -168t-68 -145.5q0 -58 54 -58zM341 121q-61 -72 -202 -248q33 3 66 3q136 0 136 -64q0 -29 -32.5 -58.5t-64.5 -41.5q-10 -4 -16 -4q-2 0 -2 1l7 4
q30 10 59.5 37.5t29.5 63.5q0 55 -126 55q-32 0 -63 -3q-73 -90 -124 -151t-121 -139t-126.5 -129t-119 -98t-121 -70t-111.5 -23q-67 0 -67 68q0 65 69 152.5t176 168.5t250 144.5t277 80.5q181 233 243 306q21 26 21 33q0 6 -6 6q-31 0 -145.5 -75.5t-196.5 -143.5
q-11 -11 -19 -11q-12 0 -12 3q0 1 2 3q11 12 28.5 32.5t63 75t81 99.5t66.5 90t35 62q1 2 5 2q8 -3 9 -23q0 -21 -46.5 -78.5t-102.5 -119t-67 -78.5q-2 -3 -2 -7q0 -2 2 -2l7 2q94 70 197 133.5t135 63.5q9 0 9 -9q0 -7 -4.5 -16.5t-13.5 -21.5t-17.5 -22.5t-22.5 -26.5
t-23 -26z" />
    <glyph glyph-name="Omacron" unicode="&#x14c;" horiz-adv-x="798" 
d="M679 783q0 16 53 16q7 0 36.5 -1t44.5 -1q23 0 32 3q0 -17 -35 -17q-12 0 -41 1.5t-50.5 1t-38.5 -4.5q-1 0 -1 2zM567 458q-1 10 -10 10q-49 0 -107.5 -56.5t-83.5 -135.5q85 40 143 93.5t58 88.5zM353 195q0 -15 2 -30t2 -16q0 -3 -2 -3q-3 0 -7 6.5t-7.5 21t-3.5 32.5
q0 28 7 53q-97 -41 -187 -41q-29 0 -52 3q-29 -77 -29 -143q0 -73 38 -118.5t120 -45.5q101 0 216 56t208.5 143.5t155.5 203.5t62 226q0 53 -20 92t-54.5 60t-73.5 30.5t-83 9.5q-108 0 -220.5 -36.5t-199 -94t-142 -133.5t-55.5 -149q0 -63 53 -84q44 104 157 217
q61 61 134 100t103 39q9 0 9 -4q0 -1 -11 -3q-88 -16 -199.5 -122.5t-164.5 -234.5q19 -4 48 -4q92 0 189 41q24 85 95.5 150t135.5 65q16 0 16 -17q0 -31 -68.5 -93.5t-161.5 -104.5q-10 -33 -10 -72zM0 330q0 49 34 106t97 110.5t143 98t180.5 71.5t201.5 27
q106 0 177 -54t71 -155q0 -95 -58 -206t-150 -204t-217.5 -155t-248.5 -62q-82 0 -132.5 45t-50.5 130q0 73 29 145q-76 23 -76 103z" />
    <glyph glyph-name="omacron" unicode="&#x14d;" horiz-adv-x="356" 
d="M271 331q0 16 53 16q7 0 36.5 -1t44.5 -1q23 0 32 3q0 -17 -35 -17q-12 0 -41 1.5t-50.5 1t-38.5 -4.5q-1 0 -1 2zM307 169q0 37 -46 37q-18 0 -24 -3q-5 -1 -5 1l1 2q9 10 62 24.5t99 14.5q8 0 14.5 -1.5t8.5 -3.5l2 -1l-6 -2q-43 0 -76.5 -4.5t-47 -9t-17.5 -8.5l-1 -5
q19 0 39 -12t20 -31q0 -55 -78.5 -121t-146.5 -66q-36 0 -36 32q0 30 29.5 83.5t72.5 98.5q66 69 113 76q6 0 6 -2q0 -1 -4 -4q-54 -34 -128 -119.5t-74 -138.5q0 -20 22 -20q68 0 134.5 67.5t66.5 115.5z" />
    <glyph glyph-name="Ohungarumlaut" unicode="&#x150;" horiz-adv-x="798" 
d="M938 826q-16 0 -61 -18t-62 -31q-1 -1 -3 -1q-3 0 -3 2q0 8 43.5 38t63.5 30q8 0 18 -6.5t10 -10.5q0 -3 -6 -3zM826 826q-16 0 -61 -18t-62 -31q-1 -1 -3 -1q-3 0 -3 2q0 8 43.5 38t63.5 30q8 0 18 -6.5t10 -10.5q0 -3 -6 -3zM567 458q-1 10 -10 10q-49 0 -107.5 -56.5
t-83.5 -135.5q85 40 143 93.5t58 88.5zM353 195q0 -15 2 -30t2 -16q0 -3 -2 -3q-3 0 -7 6.5t-7.5 21t-3.5 32.5q0 28 7 53q-97 -41 -187 -41q-29 0 -52 3q-29 -77 -29 -143q0 -73 38 -118.5t120 -45.5q101 0 216 56t208.5 143.5t155.5 203.5t62 226q0 53 -20 92t-54.5 60
t-73.5 30.5t-83 9.5q-108 0 -220.5 -36.5t-199 -94t-142 -133.5t-55.5 -149q0 -63 53 -84q44 104 157 217q61 61 134 100t103 39q9 0 9 -4q0 -1 -11 -3q-88 -16 -199.5 -122.5t-164.5 -234.5q19 -4 48 -4q92 0 189 41q24 85 95.5 150t135.5 65q16 0 16 -17
q0 -31 -68.5 -93.5t-161.5 -104.5q-10 -33 -10 -72zM0 330q0 49 34 106t97 110.5t143 98t180.5 71.5t201.5 27q106 0 177 -54t71 -155q0 -95 -58 -206t-150 -204t-217.5 -155t-248.5 -62q-82 0 -132.5 45t-50.5 130q0 73 29 145q-76 23 -76 103z" />
    <glyph glyph-name="ohungarumlaut" unicode="&#x151;" horiz-adv-x="356" 
d="M489 369q-16 0 -61 -18t-62 -31q-1 -1 -3 -1q-3 0 -3 2q0 8 43.5 38t63.5 30q8 0 18 -6.5t10 -10.5q0 -3 -6 -3zM377 369q-16 0 -61 -18t-62 -31q-1 -1 -3 -1q-3 0 -3 2q0 8 43.5 38t63.5 30q8 0 18 -6.5t10 -10.5q0 -3 -6 -3zM307 169q0 37 -46 37q-18 0 -24 -3
q-5 -1 -5 1l1 2q9 10 62 24.5t99 14.5q8 0 14.5 -1.5t8.5 -3.5l2 -1l-6 -2q-43 0 -76.5 -4.5t-47 -9t-17.5 -8.5l-1 -5q19 0 39 -12t20 -31q0 -55 -78.5 -121t-146.5 -66q-36 0 -36 32q0 30 29.5 83.5t72.5 98.5q66 69 113 76q6 0 6 -2q0 -1 -4 -4q-54 -34 -128 -119.5
t-74 -138.5q0 -20 22 -20q68 0 134.5 67.5t66.5 115.5z" />
    </font>
</defs>
</svg>
