<?xml version="1.0" standalone="no"?>
<!DOCTYPE svg PUBLIC "-//W3C//DTD SVG 1.1//EN" "http://www.w3.org/Graphics/SVG/1.1/DTD/svg11.dtd" >
<svg xmlns="http://www.w3.org/2000/svg" xmlns:xlink="http://www.w3.org/1999/xlink" version="1.1">
<metadata>
Created by FontForge 20170731 at Thu Sep  5 20:00:02 2013
 By Aleksey,,,
Vi^t hoa' Radium@pdaviet.net
</metadata>
<defs>
<font id="StelaUTVH" horiz-adv-x="620" >
  <font-face 
    font-family="Stela UT VH"
    font-weight="400"
    font-stretch="normal"
    units-per-em="1000"
    panose-1="2 0 5 6 0 0 0 2 0 4"
    ascent="700"
    descent="-300"
    x-height="510"
    cap-height="710"
    bbox="-830 -507 1229 1065.68"
    underline-thickness="50"
    underline-position="-150"
    unicode-range="U+0020-FB06"
  />
<missing-glyph horiz-adv-x="450" 
 />
    <glyph glyph-name="uniFB00" unicode="ff" horiz-adv-x="753" 
d="M470 -180q0 -62 -44 -106t-106 -44v20q54 0 92 38t38 92v490h-280v20h300v-510zM150 -180q0 -62 -44 -106t-106 -44v20q54 0 92 38t38 92v490h-70v20h90v-510zM450 550q0 70 50 120t120 50q83 0 133 -64l-15 -12q-46 56 -118 56q-62 0 -106 -44t-44 -106v-200h-20v200z
M130 550q0 70 50 120t120 50q83 0 133 -64l-15 -12q-46 56 -118 56q-62 0 -106 -44t-44 -106v-200h-20v200zM720 310h-230v20h230v-20z" />
    <glyph glyph-name="uniFB06" unicode="st" horiz-adv-x="570" 
d="M440 530h-20v109q0 54 -38 92t-92 38q-53 0 -91 -38t-38 -92q0 -53 38 -91t91 -38v-20h-125q-48 0 -81 -34q-34 -34 -34 -81q0 -42 35 -71q21 -19 65 -38v-22q-52 21 -78 44q-42 36 -42 87q0 56 39 95q40 40 96 40h50q-74 44 -74 129q0 62 44 106q43 44 105 44t106 -44
t44 -106v-109zM570 -10q-62 0 -106 44t-44 106v350h-70v20h90v-370q0 -54 38 -92t92 -38v-20zM300 125q0 -54 -37 -92q-36 -39 -88 -42v-1h-125v110h20v-90h95q47 0 81 34q34 33 34 81q0 67 -110 111v22q54 -21 85 -46q45 -36 45 -87zM570 490h-110v20h110v-20z" />
    <glyph glyph-name="L_L.liga" unicode="LL" horiz-adv-x="610" 
d="M140 690h-90v20h110v-680h-20v660zM50 10h530v90h20v-110h-550v20zM260 700h20v-550h-20v550zM500 110h-240v20h220v90h20v-110z" />
    <glyph glyph-name="f_b.liga" unicode="fb" horiz-adv-x="860" 
d="M420 670q50 -50 50 -120v-560h-110v20h90v540q0 62 -44 106t-106 44t-106 -44t-44 -106v-200h-20v200q0 70 50 120t120 50t120 -50zM790 340q0 66 -47 113q-46 47 -113 47q-95 0 -140 -84v36q55 68 140 68q75 0 128 -53q52 -53 52 -127v-190q-4 -71 -55 -121
q-52 -49 -125 -49q-87 0 -140 66v37q45 -83 140 -83q65 0 112 45q46 44 48 108v187zM150 -180q0 -62 -44 -106t-106 -44v20q54 0 92 38t38 92v490h-70v20h90v-510zM400 310h-230v20h230v-20z" />
    <glyph glyph-name="c_t.liga" unicode="ct" horiz-adv-x="642" 
d="M240 510h47q-74 44 -74 129q0 62 44 106q43 44 105 44t106 -44t44 -106v-109h-20v109q0 54 -38 92t-92 38q-53 0 -91 -38t-38 -92q0 -52 36 -89q36 -38 87 -40h6v-20h-122v20zM50 340q4 68 53 117t117 53v-21q-63 -4 -106 -50q-44 -46 -44 -109v-170q0 -64 44 -110
q43 -45 106 -50v-20q-68 4 -117 52q-49 49 -53 118v190zM642 -10q-62 0 -106 44t-44 106v350h-70v20h90v-370q0 -54 38 -92t92 -38v-20zM367 43q-49 -58 -127 -63v20q67 3 112 56zM642 490h-110v20h110v-20z" />
    <glyph glyph-name="f_y.liga" unicode="fy" horiz-adv-x="860" 
d="M420 670q50 -50 50 -120v-390q0 -66 47 -113t113 -47q94 0 140 83v-37q-53 -66 -140 -66q-74 0 -127 53t-53 127v390q0 62 -44 106t-106 44t-106 -44t-44 -106v-200h-20v200q0 70 50 120t120 50t120 -50zM503 -277q-53 53 -53 127h20q0 -66 47 -113t113 -47q64 0 111 45
q46 45 49 109v646h-86v20h106v-660q0 -74 -53 -127t-127 -53t-127 53zM150 -180q0 -62 -44 -106t-106 -44v20q54 0 92 38t38 92v490h-70v20h90v-510zM400 310h-230v20h230v-20z" />
    <glyph glyph-name="e_e.liga" unicode="ee" horiz-adv-x="858" 
d="M50 280h768v63q-1 65 -47 111q-47 46 -113 46q-64 0 -111 -45q-46 -45 -49 -109v-46h-20v50q4 71 56 120q53 50 124 50q74 0 127 -52q52 -52 53 -125v-83h-768v-100q0 -66 47 -113t113 -47q85 0 149 78l15 -16q-67 -82 -164 -82q-74 0 -127 53t-53 127v120zM119 455
q-46 -45 -49 -109v-46h-20v50q4 71 56 120q53 50 124 50q74 0 127 -52q52 -52 53 -125v-43h-20v43q-1 65 -47 111q-47 46 -113 46q-64 0 -111 -45zM807 78l15 -16q-67 -82 -164 -82q-74 0 -127 53t-53 127v80h20v-80q0 -66 47 -113t113 -47q85 0 149 78z" />
    <glyph glyph-name="g_i.liga" unicode="gi" horiz-adv-x="766" 
d="M500 490h-90v-647q-3 -72 -55 -122q-52 -51 -125 -51q-74 0 -127 53t-53 127h20q0 -66 47 -113t113 -47q65 0 112 45q46 45 48 109v666h35q-74 44 -74 129q0 62 44 106q43 44 105 44t106 -44t44 -106h-20q0 54 -38 92t-92 38q-53 0 -91 -38t-38 -92q0 -53 38 -91t91 -38
v-20zM577 456q-26 27 -26 64q0 38 26 64q27 26 64 26q38 0 64 -26t26 -64q0 -37 -26 -64q-26 -26 -64 -26q-37 0 -64 26zM70 162q0 -66 47 -113t113 -47q94 0 140 81v-35q-53 -66 -140 -66q-74 0 -127 53t-53 127v190q4 71 56 120q53 50 124 50q85 0 140 -68v-34
q-45 82 -140 82q-64 0 -111 -45q-46 -45 -49 -109v-186zM591 569q-20 -20 -20 -49t20 -50q21 -20 50 -20t49 20q21 21 21 50t-21 49q-20 21 -49 21t-50 -21zM736 10v-20h-200v20h90v280h20v-280h90zM736 310h-200v20h200v-20z" />
    <glyph glyph-name="f_h.liga" unicode="fh" horiz-adv-x="915" 
d="M420 670q50 -50 50 -120v-540h90v-20h-200v20h90v540q0 62 -44 106t-106 44t-106 -44t-44 -106v-200h-20v200q0 70 50 120t120 50t120 -50zM790 330q0 66 -47 113t-113 47q-95 0 -140 -84v36q55 68 140 68q74 0 127 -53t53 -127v-190q0 -54 38 -92t92 -38v-20
q-62 0 -106 44t-44 106v190zM150 -180q0 -62 -44 -106t-106 -44v20q54 0 92 38t38 92v490h-70v20h90v-510zM400 310h-230v20h230v-20z" />
    <glyph glyph-name="f_j.liga" unicode="fj" horiz-adv-x="520" 
d="M420 670q50 -50 50 -120v-707q-3 -72 -55 -122q-52 -51 -125 -51v20q66 0 113 47t47 113v700q0 62 -44 106t-106 44t-106 -44t-44 -106v-200h-20v200q0 70 50 120t120 50t120 -50zM150 -180q0 -62 -44 -106t-106 -44v20q54 0 92 38t38 92v490h-70v20h90v-510zM400 310
h-230v20h230v-20z" />
    <glyph glyph-name="k_y.liga" unicode="ky" horiz-adv-x="994" 
d="M637 -277q-53 53 -53 127h20q0 -66 47 -113t113 -47q64 0 111 45q46 45 49 109v646h-86v20h106v-660q0 -74 -53 -127t-127 -53t-127 53zM300 490q-95 0 -140 -84v36q55 68 140 68h304v-350q0 -66 47 -113t113 -47q94 0 140 83v-37q-53 -66 -140 -66q-74 0 -127 53
t-53 127v330h-284zM140 10h90v-20h-200v20h90v680h-90v20h110v-700zM550 -10h-200v20h95l-285 286v28l313 -314h77v-20zM444 222q-35 -48 -91 -65l-16 17q53 13 88 56q35 44 35 100q0 93 -83 140h35q68 -55 68 -140q0 -60 -36 -108zM160 253q29 -56 90 -76l25 -26
q-72 11 -115 65v37z" />
    <glyph glyph-name="g_y.liga" unicode="gy" horiz-adv-x="960" 
d="M103 -277q-53 53 -53 127h20q0 -66 47 -113t113 -47q65 0 112 45q46 45 48 109v666h180v-20h-160v-647q-3 -72 -55 -122q-52 -51 -125 -51q-74 0 -127 53zM70 162q0 -66 47 -113t113 -47q94 0 140 81v-35q-53 -66 -140 -66q-74 0 -127 53t-53 127v190q4 71 56 120
q53 50 124 50q85 0 140 -68v-34q-45 82 -140 82q-64 0 -111 -45q-46 -45 -49 -109v-186zM603 -277q-53 53 -53 127h20q0 -66 47 -113t113 -47q64 0 111 45q46 45 49 109v646h-86v20h106v-660q0 -74 -53 -127t-127 -53t-127 53zM603 33q-53 53 -53 127v310h20v-310
q0 -66 47 -113t113 -47q94 0 140 83v-37q-53 -66 -140 -66q-74 0 -127 53z" />
    <glyph glyph-name="s_p.liga" unicode="sp" horiz-adv-x="831" 
d="M531 -310v-20h-200v20h90v949q0 54 -38 92t-92 38q-53 0 -91 -38t-38 -92q0 -53 38 -91t91 -38v-20h-126q-48 0 -81 -34q-34 -34 -34 -81q0 -42 35 -71q21 -19 65 -38v-22q-52 21 -78 44q-42 36 -42 87q0 56 39 95q40 40 96 40h51q-74 44 -74 129q0 62 44 106
q43 44 105 44t106 -44t44 -106v-949h90zM761 348q-3 64 -49 109q-47 45 -111 45q-94 0 -140 -83v35q55 68 140 68q71 0 124 -50q52 -49 56 -120v-190q0 -74 -53 -127t-127 -53q-87 0 -140 66v35q46 -81 140 -81q66 0 113 47t47 113v186zM300 125q0 -54 -37 -92
q-36 -39 -88 -42v-1h-125v110h20v-90h95q47 0 81 34q34 33 34 81q0 67 -110 111v22q54 -21 85 -46q45 -36 45 -87z" />
    <glyph glyph-name="f_r.liga" unicode="fr" horiz-adv-x="772" 
d="M420 670q50 -50 50 -120v-540h90v-20h-200v20h90v540q0 62 -44 106t-106 44t-106 -44t-44 -106v-200h-20v200q0 70 50 120t120 50t120 -50zM150 -180q0 -62 -44 -106t-106 -44v20q54 0 92 38t38 92v490h-70v20h90v-510zM767 456l5 -5l-43 -86l-18 9l37 74q-47 52 -118 52
q-94 0 -140 -83v35q55 68 140 68q84 0 137 -64zM400 310h-230v20h230v-20z" />
    <glyph glyph-name="f_t.liga" unicode="ft" horiz-adv-x="600" 
d="M150 -180q0 -62 -44 -106t-106 -44v20q54 0 92 38t38 92v490h-70v20h90v-510zM420 670q50 -50 50 -120v-20h-20v20q0 62 -44 106t-106 44t-106 -44t-44 -106v-200h-20v200q0 70 50 120t120 50t120 -50zM600 -10q-62 0 -106 44t-44 106v350h-70v20h90v-370q0 -54 38 -92
t92 -38v-20zM400 310h-230v20h230v-20zM600 490h-110v20h110v-20z" />
    <glyph glyph-name="i_p.liga" unicode="ip" horiz-adv-x="771" 
d="M71 635q-26 27 -26 64q0 38 26 64q27 26 64 26h96q62 0 106 -44t44 -106v-949h90v-20h-200v20h90v949q0 54 -38 92t-92 38h-40q34 -28 34 -70q0 -37 -26 -64q-26 -26 -64 -26q-37 0 -64 26zM701 348q-3 64 -49 109q-47 45 -111 45q-94 0 -140 -83v35q55 68 140 68
q71 0 124 -50q52 -49 56 -120v-190q0 -74 -53 -127t-127 -53q-87 0 -140 66v35q46 -81 140 -81q66 0 113 47t47 113v186zM135 769q-29 0 -50 -21q-20 -20 -20 -49t20 -50q21 -20 50 -20t49 20q21 21 21 50q0 27 -19 47q-19 21 -46 23h-5zM230 10v-20h-200v20h90v460h20v-460
h90zM230 490h-200v20h200v-20z" />
    <glyph glyph-name="p_y.liga" unicode="py" horiz-adv-x="976" 
d="M619 -277q-53 53 -53 127h20q0 -66 47 -113t113 -47q64 0 111 45q46 45 49 109v646h-86v20h106v-660q0 -74 -53 -127t-127 -53t-127 53zM304 490q-94 0 -140 -83v35q55 68 140 68h282v-350q0 -66 47 -113t113 -47q94 0 140 83v-37q-53 -66 -140 -66q-74 0 -127 53
t-53 127v330h-262zM234 -310v-20h-200v20h90v802h-94v20h114v-822h90zM464 336q-5 89 -83 134h36q62 -51 67 -130v-178q0 -74 -53 -127t-127 -53q-87 0 -140 66v35q46 -81 140 -81q66 0 113 47t47 113v174z" />
    <glyph glyph-name="t_w.liga" unicode="tw" horiz-adv-x="1030" 
d="M770 -1l-10 -29l-181 499l-158 -440l-11 29l155 432h-85v20h200v-20h-87zM410 -1l-10 -29l-188 520h-82v20h190v-20h-87zM925 490h-85v20h180v-20h-73l-166 -461l-11 29zM240 -10q-62 0 -106 44t-44 106v350h-70v20h90v-370q0 -54 38 -92t92 -38v-20zM110 640v-110h-20
v110h20z" />
    <glyph glyph-name="t_t.liga" unicode="tt" horiz-adv-x="459" 
d="M459 -10q-62 0 -106 44t-44 106v350h-179v20h199v-370q0 -54 38 -92t92 -38v-20zM240 -10q-62 0 -106 44t-44 106v350h-70v20h90v-370q0 -54 38 -92t92 -38v-20zM459 490h-110v20h110v-20zM110 640v-110h-20v110h20zM329 640v-110h-20v110h20z" />
    <glyph glyph-name="A_A.liga" unicode="AA" horiz-adv-x="1015" 
d="M518 10h90v-20h-201v20h90l-69 240h-216l5 20h225l65 -225l190 665h15l120 -420h-21l-106 373zM123 10h87v-20h-200v20h92l200 700h15l120 -420h-21l-106 373zM612 270h225l75 -260h93v-20h-200v20h87l-69 240h-216z" />
    <glyph glyph-name="M_B.liga" unicode="MB" horiz-adv-x="1051" 
d="M806 380q64 0 109 45q46 46 46 110t-46 109q-45 46 -109 46h-155v20h155q72 0 124 -51q51 -52 51 -124q0 -56 -32 -102q-32 -44 -83 -63q59 -19 97 -70t38 -115q0 -81 -57 -138q-58 -57 -138 -57h-286v20h90v370h196zM631 360v-350h175q72 0 124 51q51 51 51 124
q0 72 -51 124q-52 51 -124 51h-175zM240 10v-20h-200v20h90v680h-90v20h110v-700h90zM610 640l-209 -611l-11 30l223 651h18v-310h-21v240zM370 -3l-200 584v61l220 -645h-20z" />
    <glyph glyph-name="O_C.liga" unicode="OC" horiz-adv-x="822" 
d="M430 535q0 69 -48 120q-48 50 -117 55v20q77 -5 131 -61q54 -57 54 -134v-370q0 -70 48 -121q48 -50 117 -54v-20q-77 4 -131 60t-54 135v370zM60 535q0 77 54 134q53 57 131 61v-20q-70 -4 -117 -55q-48 -51 -48 -120v-370q0 -70 48 -121q47 -50 117 -54v-20
q-78 4 -131 60q-54 56 -54 135v370zM792 637l-43 -86l-18 9l37 75q-48 70 -133 75v20q99 -5 153 -89zM428 75q-52 -100 -163 -105v20q113 6 154 115zM451 622q52 102 164 108v-20q-109 -6 -154 -115zM788 58q-53 -83 -153 -88v20q88 5 137 79z" />
    <glyph glyph-name="M_D.liga" unicode="MD" horiz-adv-x="1060" 
d="M520 10h285q72 0 124 51q51 51 51 124v330q0 72 -51 124q-52 51 -124 51h-155v20h155q81 0 138 -57q57 -58 57 -138v-330q0 -81 -57 -138t-138 -57h-285v20zM610 640l-209 -611l-11 30l223 651h17v-680h-20v610zM240 10v-20h-200v20h90v680h-90v20h110v-700h90zM370 -3
l-200 584v61l220 -645h-20z" />
    <glyph glyph-name="M_E.liga" unicode="ME" horiz-adv-x="1020" 
d="M870 370v90h20v-200h-20v90h-240v-340h350v90h20v-110h-480v20h90v360h260zM240 10v-20h-200v20h90v680h-90v20h110v-700h90zM610 640l-209 -611l-11 30l223 651h17v-320h-20v250zM370 -3l-200 584v61l220 -645h-20zM1000 600h-20v90h-330v20h350v-110z" />
    <glyph glyph-name="M_F.liga" unicode="MF" horiz-adv-x="1010" 
d="M240 10v-20h-200v20h90v680h-90v20h110v-700h90zM610 640l-209 -611l-11 30l223 651h17v-320h-20v250zM370 -3l-200 584v61l220 -645h-20zM870 370v90h20v-200h-20v90h-240v-340h90v-20h-200v20h90v360h260zM1000 600h-20v90h-329v20h349v-110z" />
    <glyph glyph-name="F_F.liga" unicode="FF" horiz-adv-x="900" 
d="M390 370v90h20v-200h-20v90h-240v-340h90v-20h-200v20h90v360h260zM760 370v90h20v-200h-20v90h-240v-340h90v-20h-200v20h90v360h260zM520 390h-20v300h-329v20h349v-320zM890 600h-20v90h-329v20h349v-110zM150 390h-20v300h-90v20h111v-20h-1v-300z" />
    <glyph glyph-name="O_G.liga" unicode="OG" horiz-adv-x="821" 
d="M430 535q0 69 -48 120q-48 50 -117 55v20q77 -5 131 -61q54 -57 54 -134v-370q0 -70 48 -121q48 -50 117 -54v-20q-77 4 -131 60t-54 135v370zM60 535q0 77 54 134q53 57 131 61v-20q-70 -4 -117 -55q-48 -51 -48 -120v-370q0 -70 48 -121q47 -50 117 -54v-20
q-78 4 -131 60q-54 56 -54 135v370zM428 75q-52 -100 -163 -105v20q113 6 154 115zM451 622q52 102 164 108v-20q-109 -6 -154 -115zM770 340h-188v20h208v-299l-2 -3q-53 -83 -153 -88v20q85 5 135 77v273zM791 637l-42 -86l-18 9l37 75q-48 70 -133 75v20q99 -5 153 -89z
" />
    <glyph glyph-name="H_E.liga" unicode="HE" horiz-adv-x="919" 
d="M759 370v90h20v-200h-20v90h-240v-340h350v90h20v-110h-480v20h90v340h-329v20h589zM240 690h-90v-680h90v-20h-200v20h90v680h-90v20h200v-20zM889 600h-20v90h-350v-300h-20v300h-90v20h480v-110z" />
    <glyph glyph-name="F_I.liga" unicode="FI" horiz-adv-x="650" 
d="M390 370v90h20v-200h-20v90h-240v-340h90v-20h-200v20h90v360h260zM610 10v-20h-200v20h90v659h20v-659h90zM610 690h-439v20h439v-20zM150 390h-20v300h-90v20h111v-20h-1v-300z" />
    <glyph glyph-name="U_B.liga" unicode="UB" horiz-adv-x="930" 
d="M490 690h-90v20h110v-330h175q64 0 109 45q46 46 46 110t-46 109q-45 46 -109 46h-155v20h155q72 0 124 -51q51 -52 51 -124q0 -56 -32 -102q-32 -44 -83 -63q59 -19 97 -70t38 -115q0 -81 -57 -138q-58 -57 -138 -57h-244l24 19l220 1q72 0 124 51q51 51 51 124
q0 72 -51 124q-52 51 -124 51h-175v-195q0 -78 -54 -135q-54 -56 -131 -60v20q69 4 117 54q48 51 48 121v525zM120 690h-90v20h200v-20h-90v-525q0 -70 48 -121q47 -50 117 -54v-20q-78 4 -131 60q-54 56 -54 135v525z" />
    <glyph glyph-name="N_K.liga" unicode="NK" horiz-adv-x="989" 
d="M160 710v-700h90v-20h-200v20h90v680h-100v20h120zM620 690h-90v-646l-20 38v608h-91v20h201v-20zM180 621v43l350 -663v-11h-16zM893 10h96v-20h-200v20h76l-315 306v28zM836 690h-76v20h200v-20h-96l-314 -314v28z" />
    <glyph glyph-name="F_L.liga" unicode="FL" horiz-adv-x="871" 
d="M500 690h-329v20h349v-680h-20v660zM390 370v90h20v-200h-20v90h-240v-340h90v-20h-200v20h90v360h260zM410 10h431v90h20v-110h-451v20zM150 390h-20v300h-90v20h111v-20h-1v-300z" />
    <glyph glyph-name="L_A.liga" unicode="LA" horiz-adv-x="854" 
d="M546 710h15l120 -420h-21l-106 373l-182 -633h-21zM130 690h-90v20h110v-680h-20v660zM461 270h225l75 -260h93v-20h-200v20h87l-69 240h-216zM40 10h431v90h20v-110h-451v20z" />
    <glyph glyph-name="N_T.liga" unicode="NT" horiz-adv-x="725" 
d="M160 710v-700h90v-20h-200v20h90v680h-100v20h120zM180 621v43l350 -663v-11h-16zM510 82v588h20v-626zM346 600h-20v110h389v-110h-20v90h-349v-90z" />
    <glyph glyph-name="O_O.liga" unicode="OO" horiz-adv-x="880" 
d="M430 535q0 69 -48 120q-48 50 -117 55v20q77 -5 131 -61q54 -57 54 -134v-370q0 -70 48 -121q48 -50 117 -54v-20q-77 4 -131 60t-54 135v370zM60 535q0 77 54 134q53 57 131 61v-20q-70 -4 -117 -55q-48 -51 -48 -120v-370q0 -70 48 -121q47 -50 117 -54v-20
q-78 4 -131 60q-54 56 -54 135v370zM428 75q-52 -100 -163 -105v20q113 6 154 115zM451 622q52 102 164 108v-20q-109 -6 -154 -115zM820 165q0 -78 -54 -135q-54 -56 -131 -60v20q69 4 117 54q48 51 48 121v370q0 69 -48 120q-48 50 -117 55v20q77 -5 131 -61
q54 -57 54 -134v-370z" />
    <glyph glyph-name="M_P.liga" unicode="MP" horiz-adv-x="1001" 
d="M651 690v20h155q72 0 124 -51q51 -52 51 -124q0 -73 -51 -124q-52 -51 -124 -51h-175v-350h90v-20h-200v20h90v370h195q64 0 109 45q46 46 46 110t-46 109q-45 46 -109 46h-155zM240 10v-20h-200v20h90v680h-90v20h110v-700h90zM610 640l-209 -611l-11 30l223 651h18
v-310h-21v240zM370 -3l-200 584v61l220 -645h-20z" />
    <glyph glyph-name="T_E.liga" unicode="TE" horiz-adv-x="624" 
d="M594 -10h-480v20h90v360h260v90h20v-200h-20v90h-240v-340h350v90h20v-110zM204 690h-164v-90h-20v110h574v-110h-20v90h-350v-300h-20v300z" />
    <glyph glyph-name="T_R.liga" unicode="TR" horiz-adv-x="674" 
d="M40 690v-90h-20v110h379q72 0 124 -51q51 -52 51 -124q0 -71 -49 -122q-49 -50 -119 -53h-162v20h155q64 0 109 45q46 46 46 110t-46 109q-45 46 -109 46h-359zM224 10h90v-20h-200v20h90v660h20v-660zM570 10h94v-20h-200v20h83l-165 330h23z" />
    <glyph glyph-name="U_D.liga" unicode="UD" horiz-adv-x="946" 
d="M120 690h-90v20h200v-20h-90v-525q0 -70 48 -121q47 -50 117 -54v-20q-78 4 -131 60q-54 56 -54 135v525zM490 690h-90v20h110v-545q0 -78 -54 -135q-54 -56 -131 -60v20q69 4 117 54q48 51 48 121v525zM465 9l221 1q72 0 124 51q51 51 51 124v330q0 72 -51 124
q-52 51 -124 51h-155v20h155q81 0 138 -57q57 -58 57 -138v-330q0 -81 -57 -138t-138 -57h-245z" />
    <glyph glyph-name="T_T.liga" unicode="TT" horiz-adv-x="719" 
d="M40 690v-90h-20v110h679v-110h-20v90h-639zM604 -10h-200v20h90v660h20v-660h90v-20zM314 -10h-200v20h90v660h20v-660h90v-20z" />
    <glyph glyph-name="U_P.liga" unicode="UP" horiz-adv-x="880" 
d="M530 690v20h155q72 0 124 -51q51 -52 51 -124q0 -73 -51 -124q-52 -51 -124 -51h-175v-195q0 -78 -54 -135q-54 -56 -131 -60v20q69 4 117 54q48 51 48 121v215h195q64 0 109 45q46 46 46 110t-46 109q-45 46 -109 46h-155zM120 690h-90v20h200v-20h-90v-525
q0 -70 48 -121q47 -50 117 -54v-20q-78 4 -131 60q-54 56 -54 135v525zM490 690h-90v20h110v-310h-20v290z" />
    <glyph glyph-name="V_A.liga" unicode="VA" horiz-adv-x="820" 
d="M417 270h225l75 -260h93v-20h-200v20h87l-69 240h-216zM331 38l-11 34l182 638h15l120 -420h-21l-106 373zM310 -37l-208 727h-92v20h200v-20h-88l198 -690z" />
    <glyph glyph-name="A_V.liga" unicode="AV" horiz-adv-x="820" 
d="M217 270h225l78 -270l-10 -37l-82 287h-216zM123 10h87v-20h-200v20h92l200 700h15l120 -420h-21l-106 373zM696 690h-86v20h200v-20h-93l-186 -653l-11 35z" />
    <glyph glyph-name="T_W.liga" unicode="TW" horiz-adv-x="1239" 
d="M939 0l-10 -37l-200 699l-180 -625l-10 33l176 620h-86v20h200v-20h-88zM539 2l-10 -37l-228 725h-261v-90h-20v110h389v-20h-86zM1115 690h-86v20h200v-20h-93l-186 -654l-11 36zM314 -10h-200v20h90v660h20v-660h90v-20z" />
    <glyph glyph-name="U_L.liga" unicode="UL" horiz-adv-x="871" 
d="M120 690h-90v20h200v-20h-90v-525q0 -70 48 -121q47 -50 117 -54v-20q-78 4 -131 60q-54 56 -54 135v525zM491 10h340v90h20v-110h-360v20zM490 690h-90v20h110v-680h-20v660zM325 -10q100 6 145 94v-38q-54 -70 -145 -76v20z" />
    <glyph glyph-name="U_R.liga" unicode="UR" horiz-adv-x="950" 
d="M530 690v20h155q72 0 124 -51q51 -52 51 -124q0 -73 -51 -124q-52 -51 -124 -51h-175v-195q0 -78 -54 -135q-54 -56 -131 -60v20q69 4 117 54q48 51 48 121v215h195q64 0 109 45q46 46 46 110t-46 109q-45 46 -109 46h-155zM120 690h-90v20h200v-20h-90v-525
q0 -70 48 -121q47 -50 117 -54v-20q-78 4 -131 60q-54 56 -54 135v525zM490 690h-90v20h110v-310h-20v290zM856 10h94v-20h-200v20h83l-165 330h23z" />
    <glyph glyph-name="T_Y.liga" unicode="TY" horiz-adv-x="819" 
d="M609 -10h-200v20h90v343l193 337h-83v20h200v-20h-94l-196 -344v-336h90v-20zM314 -10h-200v20h90v660h20v-660h90v-20zM40 600h-20v110h389v-20h-83l171 -300l-11 -19l-182 319h-264v-90z" />
    <glyph glyph-name="j_j.liga" unicode="jj" horiz-adv-x="521" 
d="M71 636q-26 27 -26 64q0 38 26 64q27 26 64 26q38 0 64 -26t26 -64q0 -37 -26 -64q-26 -26 -64 -26q-37 0 -64 26zM72 -291q-50 -39 -112 -39q-74 0 -127 53t-53 127h20q0 -66 47 -113t113 -47q55 0 100 35zM101 -226q19 36 19 76v620h20v-627q-2 -44 -23 -81zM85 749
q-20 -20 -20 -49t20 -50q21 -20 50 -20t49 20q21 21 21 50t-21 49q-20 21 -49 21t-50 -21zM230 490h-200v20h200v-20zM332 636q-26 27 -26 64q0 38 26 64q27 26 64 26q38 0 64 -26t26 -64q0 -37 -26 -64q-26 -26 -64 -26q-37 0 -64 26zM94 -277q-53 53 -53 127h20
q0 -66 47 -113t113 -47t113 47t47 113v620h20v-627q-3 -72 -55 -122q-52 -51 -125 -51q-74 0 -127 53zM346 749q-20 -20 -20 -49t20 -50q21 -20 50 -20t49 20q21 21 21 50t-21 49q-20 21 -49 21t-50 -21zM491 490h-200v20h200v-20z" />
    <glyph glyph-name="g_j.liga" unicode="gj" horiz-adv-x="791" 
d="M70 162q0 -66 47 -113t113 -47q94 0 140 81v-35q-53 -66 -140 -66q-74 0 -127 53t-53 127v190q4 71 56 120q53 50 124 50q85 0 140 -68v-34q-45 82 -140 82q-64 0 -111 -45q-46 -45 -49 -109v-186zM342 -291q-50 -39 -112 -39q-74 0 -127 53t-53 127h20q0 -66 47 -113
t113 -47q55 0 100 35zM602 636q-26 27 -26 64q0 38 26 64q27 26 64 26q38 0 64 -26t26 -64q0 -37 -26 -64q-26 -26 -64 -26q-37 0 -64 26zM364 -277q-53 53 -53 127h20q0 -66 47 -113t113 -47t113 47t47 113v620h20v-627q-3 -72 -55 -122q-52 -51 -125 -51q-74 0 -127 53z
M616 749q-20 -20 -20 -49t20 -50q21 -20 50 -20t49 20q21 21 21 50t-21 49q-20 21 -49 21t-50 -21zM761 490h-200v20h200v-20zM410 -157q-2 -44 -23 -81l-16 12q19 36 19 76v660h110v-20h-90v-647z" />
    <glyph glyph-name="y_j.liga" unicode="yj" horiz-adv-x="847" 
d="M159 33q-53 53 -53 127v330h-86v20h106v-350q0 -66 47 -113t113 -47q94 0 140 83v-37q-53 -66 -140 -66q-74 0 -127 53zM658 636q-26 27 -26 64q0 38 26 64q27 26 64 26q38 0 64 -26t26 -64q0 -37 -26 -64q-26 -26 -64 -26q-37 0 -64 26zM420 -277q-53 53 -53 127h20
q0 -66 47 -113t113 -47t113 47t47 113v620h20v-627q-3 -72 -55 -122q-52 -51 -125 -51q-74 0 -127 53zM466 -157q-2 -44 -23 -81l-16 12q19 36 19 76v640h-86v20h106v-667zM672 749q-20 -20 -20 -49t20 -50q21 -20 50 -20t49 20q21 21 21 50t-21 49q-20 21 -49 21t-50 -21z
M398 -291q-50 -39 -112 -39q-74 0 -127 53t-53 127h20q0 -66 47 -113t113 -47q55 0 100 35zM817 490h-200v20h200v-20z" />
    <glyph glyph-name="q_j.liga" unicode="qj" horiz-adv-x="847" 
d="M658 636q-26 27 -26 64q0 38 26 64q27 26 64 26q38 0 64 -26t26 -64q0 -37 -26 -64q-26 -26 -64 -26q-37 0 -64 26zM300 -310h247q66 0 113 47t47 113v620h20v-627q-3 -72 -55 -122q-52 -51 -125 -51h-247v20zM70 162q0 -66 47 -113t113 -47q93 0 140 82v-36
q-53 -66 -140 -66q-74 0 -127 53t-53 127v180q0 74 53 127t127 53q85 0 140 -68v-35q-47 83 -140 83q-64 0 -111 -45t-49 -109v-186zM390 510h110v-20h-90v-780h-20v800zM672 749q-20 -20 -20 -49t20 -50q21 -20 50 -20t49 20q21 21 21 50t-21 49q-20 21 -49 21t-50 -21z
M817 490h-200v20h200v-20z" />
    <glyph glyph-name=".notdef" horiz-adv-x="450" 
 />
    <glyph glyph-name=".null" horiz-adv-x="0" 
 />
    <glyph glyph-name="nonmarkingreturn" horiz-adv-x="333" 
 />
    <glyph glyph-name="space" unicode=" " horiz-adv-x="450" 
 />
    <glyph glyph-name="exclam" unicode="!" horiz-adv-x="220" 
d="M46 16q-26 27 -26 64q0 38 26 64q27 26 64 26t63 -26q27 -27 27 -64t-27 -64q-26 -26 -63 -26t-64 26zM60 129q-20 -20 -20 -49t20 -50q21 -20 50 -20t49 20q21 21 21 50t-21 49q-20 21 -49 21t-50 -21zM120 223h-20v477h20v-477z" />
    <glyph glyph-name="quotedbl" unicode="&#x22;" horiz-adv-x="240" 
d="M190 500h-20v200h20v-200zM70 500h-20v200h20v-200z" />
    <glyph glyph-name="numbersign" unicode="#" horiz-adv-x="660" 
d="M50 230h353l45 160h21l-45 -160h186v-20h-411l-60 -213l-19 6l58 207h-128v20zM234 410h-184v20h410l60 213l19 -6l-58 -207h129v-20h-355l-46 -160h-21zM300 643l19 -6l-53 -187h-21zM340 3l52 187h21l-54 -193z" />
    <glyph glyph-name="dollar" unicode="$" horiz-adv-x="470" 
d="M172 386v414h20v-95q23 5 43 5q8 0 24 -2v-20q-16 2 -24 2q-17 0 -43 -6v-307q20 -9 46 -18l21 -8v-21q-18 6 -27 10q-20 7 -40 15v-455h-20v101q-54 20 -88 67q-34 48 -34 107h20q0 -110 102 -153v342q-37 17 -65 41q-57 50 -57 120q0 112 102 165v-23q-82 -49 -82 -142
q0 -88 102 -139zM279 16v784h20v-102q53 -20 87 -67q34 -48 34 -106h-20q0 109 -101 152v-343q37 -19 62 -39q59 -50 59 -120q0 -113 -101 -166v24q81 47 81 142q0 84 -101 137v-412h-20v96q-21 -6 -44 -6q-9 0 -23 2v19q7 -1 23 -1q23 0 44 6z" />
    <glyph glyph-name="percent" unicode="%" horiz-adv-x="685" 
d="M261 16q-27 27 -27 64t27 64q26 26 63 26q38 0 64 -26t26 -64q0 -37 -26 -64q-26 -26 -64 -26q-37 0 -63 26zM275 130q-21 -21 -21 -50t21 -50q20 -20 49 -20t50 20q20 21 20 50t-20 50q-21 20 -50 20t-49 -20zM482 16q-27 27 -27 64t27 64q26 26 63 26q38 0 64 -26
t26 -64q0 -37 -26 -64q-26 -26 -64 -26q-37 0 -63 26zM496 130q-21 -21 -21 -50t21 -50q20 -20 49 -20t50 20q20 21 20 50t-20 50q-21 20 -50 20t-49 -20zM77 556q-27 27 -27 64t27 64q26 26 63 26q38 0 64 -26t26 -64q0 -37 -26 -64q-26 -26 -64 -26q-37 0 -63 26zM91 670
q-21 -21 -21 -50t21 -50q20 -20 49 -20t50 20q20 21 20 50t-20 50q-21 20 -50 20t-49 -20zM74 -5l-18 9l349 700l18 -9z" />
    <glyph glyph-name="ampersand" unicode="&#x26;" horiz-adv-x="551" 
d="M376 554q-2 56 -42 96q-41 40 -98 40q-58 0 -99 -41t-41 -99q0 -60 84 -146l14 -16l-13 -15l-16 17q-89 91 -89 160q0 66 47 113t113 47t113 -47t47 -113v-4l-326 -350q2 -77 58 -132q55 -54 133 -54q103 0 160 87l14 -14q-61 -93 -174 -93q-87 0 -149 62q-62 61 -62 148
v4zM571 3l-14 -14l-335 340l14 15zM471 200q0 -30 -9 -59l-16 17q5 22 5 42h20z" />
    <glyph glyph-name="quotesingle" unicode="'" horiz-adv-x="120" 
d="M70 500h-20v200h20v-200z" />
    <glyph glyph-name="parenleft" unicode="(" horiz-adv-x="265" 
d="M255 -20q-81 0 -138 57t-57 138v350q0 80 57 138q57 57 138 57v-20q-73 0 -124 -51q-51 -52 -51 -124v-350q0 -73 51 -124t124 -51v-20z" />
    <glyph glyph-name="parenright" unicode=")" horiz-adv-x="265" 
d="M10 0q72 0 124 51q51 51 51 124v350q0 72 -51 124q-52 51 -124 51v20q80 0 138 -57q57 -58 57 -138v-350q0 -81 -57 -138q-58 -57 -138 -57v20z" />
    <glyph glyph-name="asterisk" unicode="*" horiz-adv-x="420" 
d="M299 396l-89 122l-89 -122l-16 11l89 123l-144 46l6 20l144 -47v151h20v-151l144 47l6 -20l-144 -46l89 -123z" />
    <glyph glyph-name="plus" unicode="+" horiz-adv-x="500" 
d="M260 90h-20v190h-190v20h190v190h20v-190h190v-20h-190v-190z" />
    <glyph glyph-name="comma" unicode="," horiz-adv-x="275" 
d="M65 -106l-15 12l160 200l15 -12z" />
    <glyph glyph-name="hyphen" unicode="-" horiz-adv-x="500" 
d="M450 280h-400v20h400v-20z" />
    <glyph glyph-name="period" unicode="." horiz-adv-x="280" 
d="M77 16q-27 27 -27 64t27 64q26 26 63 26q38 0 64 -26t26 -64q0 -37 -26 -64q-26 -26 -64 -26q-37 0 -63 26zM91 130q-21 -21 -21 -50t21 -50q20 -20 49 -20t50 20q20 21 20 50t-20 50q-21 20 -50 20t-49 -20z" />
    <glyph glyph-name="slash" unicode="/" horiz-adv-x="467" 
d="M68 -5l-18 9l349 700l18 -9z" />
    <glyph glyph-name="zero" unicode="0" horiz-adv-x="510" 
d="M450 175q0 -78 -54 -135q-54 -56 -131 -60v20q69 4 117 54q48 51 48 121v350q0 69 -48 120q-48 50 -117 55v20q77 -5 131 -61q54 -57 54 -134v-350zM60 525q0 77 54 134q53 57 131 61v-20q-70 -4 -117 -55q-48 -51 -48 -120v-350q0 -70 48 -121q47 -50 117 -54v-20
q-78 4 -131 60q-54 56 -54 135v350z" />
    <glyph glyph-name="one" unicode="1" horiz-adv-x="317" 
d="M177 678l-144 -126l-13 15l177 155v-692h-20v648zM287 -10h-200v20h200v-20z" />
    <glyph glyph-name="two" unicode="2" horiz-adv-x="420" 
d="M86 542l-43 86l4 4q57 87 162 89q75 0 128 -53t53 -128q0 -65 -54 -139q-35 -47 -116 -126q-150 -148 -168 -245h-20q17 106 174 259q80 78 114 124q50 68 50 127q0 67 -47 114t-114 47q-90 -2 -143 -75l38 -75zM370 10v90h20v-110h-360v20h340z" />
    <glyph glyph-name="three" unicode="3" horiz-adv-x="447" 
d="M284 379q93 47 93 151q0 71 -50 120q-49 50 -120 50q-90 0 -139 -72l37 -76l-18 -9l-42 86q56 91 162 91q79 0 134 -56q56 -55 56 -134q0 -107 -92 -162zM49 109q41 -109 158 -109q71 0 120 49q50 50 50 120q0 71 -50 120q-49 50 -120 50v20q79 0 134 -56q56 -55 56 -134
t-56 -134q-55 -55 -134 -55q-61 0 -109 35q-47 33 -68 88z" />
    <glyph glyph-name="four" unicode="4" horiz-adv-x="452" 
d="M40 369h292v-359h90v-20h-200v20h90v339h-292v353h20v-333zM312 700h20v-311h-20v311z" />
    <glyph glyph-name="five" unicode="5" horiz-adv-x="407" 
d="M89 13q-48 34 -68 87l18 7q43 -107 158 -107q71 0 120 50q50 50 50 120q0 71 -50 120q-49 50 -120 50h-177v20h177q79 0 134 -56q56 -55 56 -134t-56 -134q-55 -56 -134 -56q-60 0 -108 33zM20 712h334v-93h-20v73h-294v-312h-20v332z" />
    <glyph glyph-name="six" unicode="6" horiz-adv-x="459" 
d="M60 525q0 80 57 138q57 57 138 57q106 0 163 -89l3 -4l-42 -86l-18 9l37 75q-53 75 -143 75q-73 0 -124 -51q-51 -52 -51 -124v-356q0 -68 47 -117q46 -49 113 -52v-20q-75 4 -127 59q-53 54 -53 130v356zM100 250v35q56 74 149 74q79 0 134 -56q56 -55 56 -134
q0 -76 -52 -130t-127 -59v20q67 5 113 53q46 49 46 116q0 71 -50 120q-49 50 -120 50q-102 0 -149 -89z" />
    <glyph glyph-name="seven" unicode="7" horiz-adv-x="404" 
d="M230 -10h-200v20h92l227 660h21l-227 -660h87v-20zM40 600h-20v110h364l-7 -20h-337v-90z" />
    <glyph glyph-name="eight" unicode="8" horiz-adv-x="479" 
d="M116 52q45 -48 113 -52v-20q-76 4 -127 58q-52 55 -52 131q0 62 37 113q35 49 93 68q-58 18 -93 67q-37 50 -37 113q0 76 52 131q51 55 127 59v-20q-67 -4 -113 -53t-46 -117t46 -117q45 -48 113 -52v-22q-67 -4 -113 -53t-46 -117t46 -117zM362 286q-46 49 -113 53v22
q67 4 113 52q47 49 47 117q0 67 -47 117q-46 49 -113 53v20q75 -4 128 -59q52 -55 52 -131q0 -63 -37 -113q-37 -49 -95 -67q58 -19 95 -68q37 -51 37 -113q0 -76 -52 -131q-53 -54 -128 -58v20q67 4 113 52q47 49 47 117q0 67 -47 117z" />
    <glyph glyph-name="nine" unicode="9" horiz-adv-x="459" 
d="M399 175q0 -81 -57 -138q-58 -57 -138 -57q-106 0 -164 88l17 11q52 -79 147 -79q72 0 124 51q51 51 51 124v355q0 67 -47 117q-47 49 -113 53v20q75 -4 127 -59q53 -56 53 -131v-355zM90 411q49 -50 119 -50q101 0 150 89v-35q-58 -74 -150 -74q-78 0 -133 56
q-56 55 -56 133q0 76 52 131t127 59v-20q-67 -4 -113 -53t-46 -117q0 -70 50 -119z" />
    <glyph glyph-name="colon" unicode=":" horiz-adv-x="280" 
d="M77 16q-27 27 -27 64t27 64q26 26 63 26q38 0 64 -26t26 -64q0 -37 -26 -64q-26 -26 -64 -26q-37 0 -63 26zM91 130q-21 -21 -21 -50t21 -50q20 -20 49 -20t50 20q20 21 20 50t-20 50q-21 20 -50 20t-49 -20zM77 265q-27 27 -27 64t27 64q26 26 63 26q38 0 64 -26t26 -64
q0 -37 -26 -64q-26 -26 -64 -26q-37 0 -63 26zM91 379q-21 -21 -21 -50t21 -50q20 -20 49 -20t50 20q20 21 20 50t-20 50q-21 20 -50 20t-49 -20z" />
    <glyph glyph-name="semicolon" unicode=";" horiz-adv-x="297" 
d="M94 265q-27 27 -27 64t27 64q26 26 63 26q38 0 64 -26t26 -64q0 -37 -26 -64q-26 -26 -64 -26q-37 0 -63 26zM108 379q-21 -21 -21 -50t21 -50q20 -20 49 -20t50 20q20 21 20 50t-20 50q-21 20 -50 20t-49 -20zM55 -106l-15 12l160 200l15 -12z" />
    <glyph glyph-name="less" unicode="&#x3c;" horiz-adv-x="361" 
d="M296 -7l-246 267l247 267l14 -14l-233 -253l233 -253z" />
    <glyph glyph-name="equal" unicode="=" horiz-adv-x="500" 
d="M450 161h-400v20h400v-20zM450 372h-400v20h400v-20z" />
    <glyph glyph-name="greater" unicode="&#x3e;" horiz-adv-x="361" 
d="M64 -7l-14 14l233 253l-233 253l14 14l247 -267z" />
    <glyph glyph-name="question" unicode="?" horiz-adv-x="406" 
d="M72 16q-26 27 -26 64q0 38 26 64q27 26 64 26t63 -26q27 -27 27 -64t-27 -64q-26 -26 -63 -26t-64 26zM82 542l-42 86l3 4q57 89 163 89q74 0 127 -53t53 -128q0 -74 -53 -127t-127 -53h-60v-137h-20v157h80q66 0 113 47t47 113q0 67 -47 114t-113 47q-90 0 -143 -75
l37 -75zM86 129q-20 -20 -20 -49t20 -50q21 -20 50 -20t49 20q21 21 21 50t-21 49q-20 21 -49 21t-50 -21z" />
    <glyph glyph-name="at" unicode="@" horiz-adv-x="922" 
d="M331 273q-47 -47 -47 -113t47 -113t113 -47q95 0 141 83v-36q-54 -67 -141 -67q-74 0 -127 53t-53 127t53 127t127 53q87 0 141 -69v-35q-45 84 -141 84q-66 0 -113 -47zM604 330q0 66 -47 113q-46 47 -113 47q-73 0 -122 -57l-15 13q53 64 137 64q75 0 128 -53
q52 -53 52 -127v-180q0 -56 26 -93q24 -37 64 -37q61 0 104 82q44 82 44 197q0 159 -86 265q-97 123 -286 126v20q97 -1 177 -37q73 -33 125 -97q90 -110 90 -277q0 -119 -46 -206q-50 -93 -122 -93q-50 0 -81 45q-29 43 -29 105v180zM175 -52q130 -138 359 -138v-20
q-238 0 -374 144q-61 67 -91 149q-29 81 -29 169t28 168q30 84 85 147q59 67 138 104q84 38 179 39v-20q-192 -4 -306 -141q-104 -123 -104 -297q0 -181 115 -304z" />
    <glyph glyph-name="A" unicode="A" 
d="M217 270h225l75 -260h93v-20h-200v20h87l-69 240h-216zM123 10h87v-20h-200v20h92l200 700h15l120 -420h-21l-106 373z" />
    <glyph glyph-name="B" unicode="B" horiz-adv-x="570" 
d="M150 360v-370h-110v20h90v370h195q64 0 109 45q46 46 46 110t-46 109q-45 46 -109 46h-155v20h155q72 0 124 -51q51 -52 51 -124q0 -56 -32 -102q-32 -44 -83 -63q59 -19 97 -70t38 -115q0 -81 -57 -138q-58 -57 -138 -57h-155v20h155q72 0 124 51q51 51 51 124
q0 72 -51 124q-52 51 -124 51h-175zM130 690h-90v20h110v-310h-20v290z" />
    <glyph glyph-name="C" unicode="C" horiz-adv-x="452" 
d="M60 535q0 77 54 134q54 56 131 61v-20q-69 -5 -117 -55q-48 -51 -48 -120v-370q0 -70 48 -121q48 -50 117 -54v-20q-77 4 -131 60t-54 135v370zM422 637l-43 -86l-18 9l37 75q-48 70 -133 75v20q99 -5 153 -89zM418 58q-53 -83 -153 -88v20q88 5 137 79z" />
    <glyph glyph-name="D" unicode="D" horiz-adv-x="580" 
d="M40 10h285q72 0 124 51q51 51 51 124v330q0 72 -51 124q-52 51 -124 51h-155v20h155q81 0 138 -57q57 -58 57 -138v-330q0 -81 -57 -138t-138 -57h-285v20zM130 690h-90v20h110v-680h-20v660z" />
    <glyph glyph-name="E" unicode="E" horiz-adv-x="540" 
d="M390 370v90h20v-200h-20v90h-240v-340h350v90h20v-110h-480v20h90v360h260zM520 600h-20v90h-330v20h350v-110zM130 690h-90v20h110v-320h-20v300z" />
    <glyph glyph-name="F" unicode="F" horiz-adv-x="530" 
d="M390 370v90h20v-200h-20v90h-240v-340h90v-20h-200v20h90v360h260zM520 600h-20v90h-329v20h349v-110zM150 390h-20v300h-90v20h111v-20h-1v-300z" />
    <glyph glyph-name="G" unicode="G" horiz-adv-x="441" 
d="M50 535q0 77 54 134q53 57 131 61v-20q-70 -4 -117 -55q-48 -51 -48 -120v-370q0 -70 48 -121q47 -50 117 -54v-20q-78 4 -131 60q-54 56 -54 135v370zM390 340h-188v20h208v-299l-2 -3q-53 -83 -153 -88v20q85 5 135 77v273zM411 637l-42 -86l-18 9l37 75
q-48 70 -133 75v20q99 -5 153 -89z" />
    <glyph glyph-name="H" unicode="H" horiz-adv-x="649" 
d="M240 690h-90v-680h90v-20h-200v20h90v680h-90v20h200v-20zM170 370h349v-360h90v-20h-200v20h90v340h-329v20zM499 690h-90v20h200v-20h-90v-300h-20v300z" />
    <glyph glyph-name="I" unicode="I" horiz-adv-x="280" 
d="M240 10v-20h-200v20h90v659h20v-659h90zM240 690h-200v20h200v-20z" />
    <glyph glyph-name="J" unicode="J" horiz-adv-x="501" 
d="M23 78l-3 5l42 85l18 -9l-37 -74q53 -75 143 -75q73 0 124 51t51 124v484h20v-484q0 -81 -57 -138t-138 -57q-105 0 -163 88zM271 690v20h200v-20h-200z" />
    <glyph glyph-name="K" unicode="K" horiz-adv-x="609" 
d="M240 690h-90v-680h90v-20h-200v20h90v680h-90v20h200v-20zM513 10h96v-20h-200v20h76l-315 306v28zM456 690h-76v20h200v-20h-96l-314 -314v28z" />
    <glyph glyph-name="L" unicode="L" horiz-adv-x="511" 
d="M140 690h-90v20h110v-680h-20v660zM50 10h431v90h20v-110h-451v20z" />
    <glyph glyph-name="M" unicode="M" horiz-adv-x="760" 
d="M720 -10h-200v20h90v630l-209 -611l-11 30l223 651h107v-20h-90v-680h90v-20zM240 10v-20h-200v20h90v680h-90v20h110v-700h90zM370 -3l-200 584v61l220 -645h-20z" />
    <glyph glyph-name="N" unicode="N" horiz-adv-x="659" 
d="M160 710v-700h90v-20h-200v20h90v680h-100v20h120zM619 690h-89v-646l-20 38v608h-91v20h200v-20zM180 621v43l350 -663v-11h-16z" />
    <glyph glyph-name="O" unicode="O" horiz-adv-x="510" 
d="M450 165q0 -78 -54 -135q-54 -56 -131 -60v20q69 4 117 54q48 51 48 121v370q0 69 -48 120q-48 50 -117 55v20q77 -5 131 -61q54 -57 54 -134v-370zM60 535q0 77 54 134q53 57 131 61v-20q-70 -4 -117 -55q-48 -51 -48 -120v-370q0 -70 48 -121q47 -50 117 -54v-20
q-78 4 -131 60q-54 56 -54 135v370z" />
    <glyph glyph-name="P" unicode="P" horiz-adv-x="520" 
d="M170 690v20h155q72 0 124 -51q51 -52 51 -124q0 -73 -51 -124q-52 -51 -124 -51h-175v-350h90v-20h-200v20h90v370h195q64 0 109 45q46 46 46 110t-46 109q-45 46 -109 46h-155zM130 690h-90v20h110v-310h-20v290z" />
    <glyph glyph-name="Q" unicode="Q" horiz-adv-x="510" 
d="M283 133l14 14l160 -160l-14 -14l-53 52q-57 -55 -135 -55q-81 0 -138 57t-57 138v370q0 77 53 134q54 57 131 61v-21q-69 -4 -116 -54q-48 -51 -48 -120v-370q0 -73 51 -124t124 -51q70 0 121 49zM450 165q0 -60 -34 -110l-14 15q28 42 28 95v370q0 70 -48 121
q-49 50 -118 54v20q77 -4 132 -60q54 -57 54 -135v-370z" />
    <glyph glyph-name="R" unicode="R" horiz-adv-x="590" 
d="M170 690v20h155q72 0 124 -51q51 -52 51 -124q0 -71 -49 -122q-49 -50 -119 -53h-182v-350h90v-20h-200v20h90v370h195q64 0 109 45q46 46 46 110t-46 109q-45 46 -109 46h-155zM496 10h94v-20h-200v20h83l-165 330h23zM130 690h-90v20h110v-310h-20v290z" />
    <glyph glyph-name="S" unicode="S" horiz-adv-x="472" 
d="M422 185q0 -81 -57 -138q-58 -57 -138 -57h-175v110h20v-90h155q72 0 124 51q51 51 51 124q0 113 -166 171v21q90 -30 131 -67q55 -49 55 -125zM421 590h-22l1 10h1v90h-174q-64 0 -110 -46q-45 -45 -45 -109q0 -100 144 -152v-21q-74 26 -111 59q-53 47 -53 114
q0 72 51 124q51 51 124 51h194v-120z" />
    <glyph glyph-name="T" unicode="T" horiz-adv-x="429" 
d="M314 -10h-200v20h90v660h20v-660h90v-20zM40 600h-20v110h389v-110h-20v90h-349v-90z" />
    <glyph glyph-name="U" unicode="U" horiz-adv-x="630" 
d="M600 690h-90v-525q0 -78 -54 -135q-54 -56 -131 -60v20q69 4 117 54q48 51 48 121v525h-90v20h200v-20zM120 690h-90v20h200v-20h-90v-525q0 -70 48 -121q47 -50 117 -54v-20q-78 4 -131 60q-54 56 -54 135v525z" />
    <glyph glyph-name="V" unicode="V" 
d="M310 -37l-208 727h-92v20h200v-20h-88l198 -690zM496 690h-86v20h200v-20h-93l-186 -653l-11 35z" />
    <glyph glyph-name="W" unicode="W" horiz-adv-x="1040" 
d="M740 0l-10 -37l-200 699l-180 -625l-10 33l176 620h-86v20h200v-20h-88zM340 2l-10 -37l-228 725h-92v20h200v-20h-86zM916 690h-86v20h200v-20h-93l-186 -654l-11 36z" />
    <glyph glyph-name="X" unicode="X" 
d="M610 -10h-200v20h82l-388 680h-94v20h200v-20h-83l388 -680h95v-20zM492 690h-82v20h200v-20h-94l-183 -320l-12 21zM210 10v-20h-200v20h94l182 319l12 -21l-171 -298h83z" />
    <glyph glyph-name="Y" unicode="Y" 
d="M410 -10h-200v20h90v343l193 337h-83v20h200v-20h-94l-196 -344v-336h90v-20zM10 690v20h200v-20h-83l171 -300l-11 -19l-182 319h-95z" />
    <glyph glyph-name="Z" unicode="Z" horiz-adv-x="442" 
d="M399 710h23l-369 -700h342v90h20v-110h-395zM46 600h-20v110h350l-10 -20h-320v-90z" />
    <glyph glyph-name="bracketleft" unicode="[" horiz-adv-x="268" 
d="M221 -10h-150v720h150v-20h-130v-680h130v-20z" />
    <glyph glyph-name="backslash" unicode="\" horiz-adv-x="510" 
d="M59 695l18 9l349 -700l-18 -9z" />
    <glyph glyph-name="bracketright" unicode="]" horiz-adv-x="288" 
d="M247 -10h-150v20h130v680h-130v20h150v-720z" />
    <glyph glyph-name="asciicircum" unicode="^" horiz-adv-x="412" 
d="M380 612l-174 135l-174 -135l-12 16l186 145l186 -145z" />
    <glyph glyph-name="underscore" unicode="_" horiz-adv-x="540" 
d="M490 -10h-440v20h440v-20z" />
    <glyph glyph-name="grave" unicode="`" horiz-adv-x="290" 
d="M20 751l10 18l240 -140l-10 -18z" />
    <glyph glyph-name="a" unicode="a" horiz-adv-x="490" 
d="M97 273q-47 -47 -47 -113t47 -113t113 -47q95 0 141 83v-36q-54 -67 -141 -67q-74 0 -127 53t-53 127t53 127t127 53q87 0 141 -69v-35q-45 84 -141 84q-66 0 -113 -47zM370 330q0 66 -47 113q-46 47 -113 47q-73 0 -122 -57l-15 13q53 64 137 64q75 0 128 -53
q52 -53 52 -127v-196q3 -58 46 -93l12 -9q33 -22 72 -22v-20q-56 0 -100 38q-50 41 -50 106v196z" />
    <glyph glyph-name="b" unicode="b" horiz-adv-x="510" 
d="M440 340q0 66 -47 113q-46 47 -113 47q-95 0 -140 -84v36q55 68 140 68q75 0 128 -53q52 -53 52 -127v-190q-4 -71 -55 -121q-52 -49 -125 -49q-87 0 -140 66v37q45 -83 140 -83q65 0 112 45q46 44 48 108v187zM120 -10h-110v20h90v680h-90v20h110v-720z" />
    <glyph glyph-name="c" unicode="c" horiz-adv-x="381" 
d="M50 350q4 68 53 117t117 53v-21q-63 -4 -106 -50q-44 -46 -44 -109v-180q0 -64 44 -110q43 -45 106 -50v-20q-68 4 -117 52q-49 49 -53 118v200zM371 451l-43 -86l-18 9l37 74q-45 48 -107 51v21q77 -5 127 -64zM367 43q-49 -58 -127 -63v20q67 3 112 56z" />
    <glyph glyph-name="d" unicode="d" horiz-adv-x="520" 
d="M117 453q-47 -47 -47 -113v-180q0 -66 47 -113t113 -47q94 0 140 81v-35q-53 -66 -140 -66q-71 0 -124 49q-52 50 -56 121v190q0 74 53 127t127 53q85 0 140 -68v-34q-45 82 -140 82q-66 0 -113 -47zM390 710h110v-20h-90v-680h90v-20h-110v720z" />
    <glyph glyph-name="e" unicode="e" horiz-adv-x="430" 
d="M119 455q-46 -45 -49 -109v-46h-20v50q4 71 56 120q53 50 124 50q74 0 127 -52q52 -52 53 -125v-83h-360v20h340v63q-1 65 -47 111q-47 46 -113 46q-64 0 -111 -45zM379 78l15 -16q-67 -82 -164 -82q-74 0 -127 53t-53 127v80h20v-80q0 -66 47 -113t113 -47q85 0 149 78z
" />
    <glyph glyph-name="f" unicode="f" horiz-adv-x="433" 
d="M150 -180q0 -62 -44 -106t-106 -44v20q54 0 92 38t38 92v490h-70v20h90v-510zM130 550q0 70 50 120t120 50q83 0 133 -64l-15 -12q-46 56 -118 56q-62 0 -106 -44t-44 -106v-200h-20v200zM400 310h-230v20h230v-20z" />
    <glyph glyph-name="g" unicode="g" horiz-adv-x="520" 
d="M103 -277q-53 53 -53 127h20q0 -66 47 -113t113 -47q65 0 112 45q46 45 48 109v668h110v-20h-90v-649q-3 -72 -55 -122q-52 -51 -125 -51q-74 0 -127 53zM70 162q0 -66 47 -113t113 -47q94 0 140 81v-35q-53 -66 -140 -66q-74 0 -127 53t-53 127v190q4 71 56 120
q53 50 124 50q85 0 140 -68v-34q-45 82 -140 82q-64 0 -111 -45q-46 -45 -49 -109v-186z" />
    <glyph glyph-name="h" unicode="h" horiz-adv-x="565" 
d="M120 10h90v-20h-200v20h90v680h-85v20h105v-700zM440 330q0 66 -47 113t-113 47q-95 0 -140 -84v36q55 68 140 68q74 0 127 -53t53 -127v-190q0 -54 38 -92t92 -38v-20q-62 0 -106 44t-44 106v190z" />
    <glyph glyph-name="i" unicode="i" horiz-adv-x="260" 
d="M71 636q-26 27 -26 64q0 38 26 64q27 26 64 26q38 0 64 -26t26 -64q0 -37 -26 -64q-26 -26 -64 -26q-37 0 -64 26zM85 749q-20 -20 -20 -49t20 -50q21 -20 50 -20t49 20q21 21 21 50t-21 49q-20 21 -49 21t-50 -21zM230 10v-20h-200v20h90v460h20v-460h90zM230 490h-200
v20h200v-20z" />
    <glyph glyph-name="j" unicode="j" horiz-adv-x="260" 
d="M71 636q-26 27 -26 64q0 38 26 64q27 26 64 26q38 0 64 -26t26 -64q0 -37 -26 -64q-26 -26 -64 -26q-37 0 -64 26zM-167 -277q-53 53 -53 127h20q0 -66 47 -113t113 -47t113 47t47 113v620h20v-627q-3 -72 -55 -122q-52 -51 -125 -51q-74 0 -127 53zM85 749
q-20 -20 -20 -49t20 -50q21 -20 50 -20t49 20q21 21 21 50t-21 49q-20 21 -49 21t-50 -21zM230 490h-200v20h200v-20z" />
    <glyph glyph-name="k" unicode="k" horiz-adv-x="570" 
d="M140 10h90v-20h-200v20h90v680h-90v20h110v-700zM160 406v36q55 68 140 68q74 0 127 -53t53 -127q0 -60 -36 -108q-35 -48 -91 -65l-16 17q53 13 88 56q35 44 35 100q0 66 -47 113t-113 47q-95 0 -140 -84zM550 -10h-200v20h95l-285 286v28l313 -314h77v-20zM160 253
q29 -56 90 -76l25 -26q-72 11 -115 65v37z" />
    <glyph glyph-name="l" unicode="l" horiz-adv-x="250" 
d="M120 690h-90v20h110v-680h-20v660zM30 10h200v-20h-200v20z" />
    <glyph glyph-name="m" unicode="m" horiz-adv-x="925" 
d="M422 474q58 -51 58 -128v-336h90v-20h-200v20h90v336q-2 64 -49 109t-111 45q-95 0 -140 -84v36q55 68 140 68q68 0 122 -46zM767 467q53 -53 53 -127v-200q0 -54 38 -92t92 -38v-20q-62 0 -106 44t-44 106v200q0 66 -47 113t-113 47q-95 0 -140 -84v36q55 68 140 68
q74 0 127 -53zM230 -10h-200v20h90v480h-85v20h105v-500h90v-20z" />
    <glyph glyph-name="n" unicode="n" horiz-adv-x="585" 
d="M460 340q0 66 -47 113t-113 47q-95 0 -140 -84v36q55 68 140 68q74 0 127 -53t53 -127v-200q0 -54 38 -92t92 -38v-20q-62 0 -106 44t-44 106v200zM140 10h90v-20h-200v20h90v480h-85v20h105v-500z" />
    <glyph glyph-name="o" unicode="o" horiz-adv-x="460" 
d="M390 340q0 63 -44 109t-106 50v21q71 -4 120 -56q50 -53 50 -124v-190q-4 -69 -53 -118q-49 -48 -117 -52v20q63 5 106 50q44 47 44 110v180zM50 340q0 71 49 124q50 52 121 56v-21q-63 -4 -106 -50q-44 -46 -44 -109v-180q0 -64 44 -110q43 -45 106 -50v-20
q-71 4 -121 56q-49 52 -49 124v180z" />
    <glyph glyph-name="p" unicode="p" horiz-adv-x="534" 
d="M234 -310v-20h-200v20h90v800h-94v20h114v-820h90zM464 348q-3 64 -49 109q-47 45 -111 45q-94 0 -140 -83v35q55 68 140 68q71 0 124 -50q52 -49 56 -120v-190q0 -74 -53 -127t-127 -53q-87 0 -140 66v35q46 -81 140 -81q66 0 113 47t47 113v186z" />
    <glyph glyph-name="q" unicode="q" horiz-adv-x="534" 
d="M390 -310v820h110v-20h-90v-800h90v-20h-200v20h90zM70 162q0 -66 47 -113t113 -47q93 0 140 82v-36q-53 -66 -140 -66q-74 0 -127 53t-53 127v180q0 74 53 127t127 53q85 0 140 -68v-35q-47 83 -140 83q-64 0 -111 -45t-49 -109v-186z" />
    <glyph glyph-name="r" unicode="r" horiz-adv-x="442" 
d="M230 -10h-200v20h90v480h-90v20h110v-500h90v-20zM437 456l5 -5l-43 -86l-18 9l37 74q-47 52 -118 52q-94 0 -140 -83v35q55 68 140 68q84 0 137 -64z" />
    <glyph glyph-name="s" unicode="s" horiz-adv-x="330" 
d="M290 400h-20v90h-105q-48 0 -81 -34q-34 -34 -34 -81q0 -42 35 -71q21 -19 65 -38v-22q-52 21 -78 44q-42 36 -42 87q0 56 39 95q40 40 96 40h125v-110zM300 125q0 -54 -37 -92q-36 -39 -88 -42v-1h-125v110h20v-90h95q47 0 81 34q34 33 34 81q0 67 -110 111v22
q54 -21 85 -46q45 -36 45 -87z" />
    <glyph glyph-name="t" unicode="t" horiz-adv-x="240" 
d="M240 -10q-62 0 -106 44t-44 106v350h-70v20h90v-370q0 -54 38 -92t92 -38v-20zM240 490h-110v20h110v-20zM110 640v-110h-20v110h20z" />
    <glyph glyph-name="u" unicode="u" horiz-adv-x="571" 
d="M159 33q-53 53 -53 127v330h-86v20h106v-350q0 -66 47 -113t113 -47q93 0 140 82v-35q-54 -67 -140 -67q-74 0 -127 53zM446 490h-86v20h106v-370q0 -54 38 -92t92 -38v-20q-63 1 -107 45t-43 105v350z" />
    <glyph glyph-name="v" unicode="v" horiz-adv-x="540" 
d="M280 0l-10 -30l-188 520h-72v20h180v-20h-87zM530 490h-73l-166 -461l-11 30l155 431h-85v20h180v-20z" />
    <glyph glyph-name="w" unicode="w" horiz-adv-x="900" 
d="M640 -1l-10 -29l-181 499l-158 -440l-11 29l155 432h-85v20h200v-20h-87zM280 -1l-10 -29l-188 520h-72v20h180v-20h-87zM795 490h-85v20h180v-20h-73l-166 -461l-11 29z" />
    <glyph glyph-name="x" unicode="x" horiz-adv-x="540" 
d="M530 490h-74l-346 -480h80v-20h-180v20h75l346 480h-81v20h180v-20zM10 490v20h180v-20h-81l148 -207l-12 -17l-161 224h-74zM455 10h75v-20h-180v20h80l-147 204l12 17z" />
    <glyph glyph-name="y" unicode="y" horiz-adv-x="516" 
d="M159 -277q-53 53 -53 127h20q0 -66 47 -113t113 -47q64 0 111 45q46 45 49 109v646h-86v20h106v-660q0 -74 -53 -127t-127 -53t-127 53zM159 33q-53 53 -53 127v330h-86v20h106v-350q0 -66 47 -113t113 -47q94 0 140 83v-37q-53 -66 -140 -66q-74 0 -127 53z" />
    <glyph glyph-name="z" unicode="z" horiz-adv-x="448" 
d="M404 510h24l-340 -500h311v90h20v-110h-369zM79 400h-20v110h320l-13 -20h-287v-90z" />
    <glyph glyph-name="braceleft" unicode="{" horiz-adv-x="248" 
d="M119 601q0 45 32 77t77 32v-20q-37 0 -63 -26t-26 -63v-161q0 -71 -64 -100q64 -29 64 -99v-141q0 -37 26 -63t63 -26v-20q-45 0 -77 32t-32 77v141q0 37 -26 63t-63 26v21q37 0 63 26t26 63v161z" />
    <glyph glyph-name="bar" unicode="|" horiz-adv-x="120" 
d="M70 -200h-20v900h20v-900z" />
    <glyph glyph-name="braceright" unicode="}" horiz-adv-x="248" 
d="M109 601q0 37 -26 63t-63 26v20q45 0 77 -32t32 -77v-161q0 -37 26 -63t63 -26v-21q-37 0 -63 -26t-26 -63v-141q0 -45 -32 -77t-77 -32v20q37 0 63 26t26 63v141q0 70 65 99q-65 29 -65 100v161z" />
    <glyph glyph-name="asciitilde" unicode="~" horiz-adv-x="418" 
d="M201 301q-31 37 -61 37q-46 0 -72 -54l-18 8q5 14 23 34q30 32 67 32q39 0 77 -44q30 -36 61 -36q46 0 72 54l18 -8q-5 -14 -23 -34q-30 -32 -67 -32q-38 0 -77 43z" />
    <glyph glyph-name="exclamdown" unicode="&#xa1;" horiz-adv-x="220" 
d="M173 674q27 -27 27 -64t-27 -64q-26 -26 -63 -26t-64 26q-26 27 -26 64q0 38 26 64q27 26 64 26t63 -26zM159 561q21 21 21 49q0 29 -21 50q-20 20 -49 20t-50 -20q-20 -21 -20 -50t20 -49q21 -21 50 -21t49 21zM120 -10h-20v477h20v-477z" />
    <glyph glyph-name="cent" unicode="&#xa2;" horiz-adv-x="381" 
d="M50 350q4 68 53 117t117 53v-21q-63 -4 -106 -50q-44 -46 -44 -109v-180q0 -64 44 -110q43 -45 106 -50v-20q-68 4 -117 52q-49 49 -53 118v200zM371 451l-43 -86l-18 9l37 74q-45 48 -107 51v21q77 -5 127 -64zM367 43q-49 -58 -127 -63v20q67 3 112 56zM240 544h-20
v156h20v-156zM240 -200h-20v156h20v-156zM240 29h-20v447h20v-447z" />
    <glyph glyph-name="sterling" unicode="&#xa3;" horiz-adv-x="463" 
d="M70 330h280v-20h-190v-170q0 -87 -75 -130h358v-20h-420v1q-4 -1 -13 -1v20q54 0 92 38t38 92v170h-70v20zM160 350h-20v190q0 71 50 120q50 50 120 50q81 0 133 -64l-16 -12q-46 56 -117 56q-62 0 -106 -44t-44 -106v-190z" />
    <glyph glyph-name="yen" unicode="&#xa5;" 
d="M510 334h-400v20h190l193 336h-83v20h200v-20h-94l-192 -336h186v-20zM410 -10h-200v20h90v151h-190v20h190v133h20v-133h190v-20h-190v-151h90v-20zM10 690v20h200v-20h-83l171 -300l-11 -19l-182 319h-95z" />
    <glyph glyph-name="brokenbar" unicode="&#xa6;" horiz-adv-x="120" 
d="M70 -200h-20v369h20v-369zM50 700h20v-369h-20v369z" />
    <glyph glyph-name="section" unicode="&#xa7;" horiz-adv-x="470" 
d="M369 2q51 -48 51 -127q0 -80 -56 -137q-57 -57 -137 -58h-176l1 110h20v-90h155q72 1 123 52q50 51 50 123q0 137 -173 170q-68 1 -116 47t-52 113h20q4 -59 47 -100q43 -40 103 -40q59 0 102 40q43 41 47 100h20q-6 -118 -119 -153q55 -18 90 -50zM126 324
q-43 -40 -47 -99h-20q3 54 38 97q34 43 86 57q-49 18 -77 42q-56 47 -56 114q0 72 51 124q51 51 124 51h194v-120h-20v100h-174q-64 0 -110 -46q-45 -45 -45 -109q0 -110 161 -150q67 -1 116 -47q48 -47 52 -113h-21q-4 59 -47 99q-43 41 -102 41q-60 0 -103 -41z" />
    <glyph glyph-name="dieresis" unicode="&#xa8;" horiz-adv-x="209" 
d="M40 622h-20v158h20v-158zM189 622h-20v158h20v-158z" />
    <glyph glyph-name="copyright" unicode="&#xa9;" horiz-adv-x="820" 
d="M270 28q-64 27 -114 77q-49 49 -78 115q-28 68 -28 140q0 70 28 140q29 65 78 114q50 50 114 77q67 29 140 29t140 -29q65 -27 115 -77t77 -114q28 -66 28 -140q0 -75 -28 -140q-27 -65 -77 -115t-115 -77q-65 -28 -140 -28t-140 28zM170 600q-100 -100 -100 -240
q0 -141 100 -240q100 -100 240 -100q141 0 241 100q99 99 99 240q0 140 -99 240q-100 100 -241 100q-140 0 -240 -100zM331 168q-37 37 -37 89v206q0 52 37 88q37 37 89 37q67 0 105 -57l3 -4l-28 -56l-18 9l23 45q-32 43 -85 43q-44 0 -75 -31q-31 -30 -31 -74v-206
q0 -44 31 -75t75 -31q56 0 88 48l17 -11q-38 -57 -105 -57q-52 0 -89 37z" />
    <glyph glyph-name="ordfeminine" unicode="&#xaa;" horiz-adv-x="427" 
d="M86 396q-36 36 -36 86q0 51 36 87q36 35 86 35q65 0 102 -55v39q0 42 -30 72t-72 30q-48 0 -78 -36l-15 13q37 43 93 43q50 0 86 -36t36 -86v-136l3 -13q0 -2 1 -3q3 -9 10 -20q6 -6 4 -5l8 -9l16 -12q17 -10 41 -10v-20h-5q-13 0 -28 5l-11 4l-14 8l-9 7q-13 11 -19 21
q-7 11 -11 21q-34 -66 -108 -66q-50 0 -86 36zM100 554q-30 -29 -30 -72q0 -42 30 -72t72 -30t72 30t30 72v4q-1 41 -31 70q-30 28 -71 28q-42 0 -72 -30z" />
    <glyph glyph-name="guillemotleft" unicode="&#xab;" horiz-adv-x="449" 
d="M266 -7l-246 267l247 267l14 -14l-233 -253l233 -253zM414 -7l-246 267l247 267l14 -14l-233 -253l233 -253z" />
    <glyph glyph-name="logicalnot" unicode="&#xac;" horiz-adv-x="591" 
d="M541 180h-20v210h-491v20h511v-230z" />
    <glyph glyph-name="registered" unicode="&#xae;" horiz-adv-x="820" 
d="M270 28q-65 27 -115 77t-77 115q-28 68 -28 140t28 140q27 64 77 114q46 48 115 78q68 28 140 28t140 -28q66 -29 115 -78q50 -50 77 -114q28 -68 28 -140t-28 -140q-27 -65 -77 -115q-52 -51 -115 -77q-65 -28 -140 -28t-140 28zM170 600q-100 -100 -100 -240
q0 -141 100 -240q100 -100 240 -100t240 100q100 99 100 240q0 140 -100 240t-240 100t-240 -100zM590 131h-125v20h47l-106 211h-87v-211h52v-20h-125v20h53v418h-53v20h178q47 0 81 -33q33 -33 33 -80q0 -46 -32 -79t-78 -35l106 -211h56v-20zM319 569v-187h105
q39 0 67 28q27 27 27 66q0 38 -27 66q-28 27 -67 27h-105z" />
    <glyph glyph-name="degree" unicode="&#xb0;" horiz-adv-x="280" 
d="M76 636q-26 27 -26 64q0 38 26 64q27 26 64 26q38 0 64 -26t26 -64q0 -37 -26 -64q-26 -26 -64 -26q-37 0 -64 26zM90 749q-20 -20 -20 -49t20 -50q21 -20 50 -20t49 20q21 21 21 50t-21 49q-20 21 -49 21t-50 -21z" />
    <glyph glyph-name="plusminus" unicode="&#xb1;" horiz-adv-x="500" 
d="M260 90h-20v190h-190v20h190v190h20v-190h190v-20h-190v-190zM450 0h-400v20h400v-20z" />
    <glyph glyph-name="uni00B2" unicode="&#xb2;" horiz-adv-x="321" 
d="M84 608l-27 52l4 5q35 52 99 54q46 0 79 -33q32 -32 32 -78q0 -61 -101 -160q-82 -80 -95 -124h-21q13 51 102 138q95 95 95 146q0 38 -26 64q-27 27 -65 27q-50 -2 -79 -40l21 -42zM251 304v49h20v-69h-221v20h201z" />
    <glyph glyph-name="uni00B3" unicode="&#xb3;" horiz-adv-x="325" 
d="M113 518h45q50 -2 83 -34q34 -33 34 -82t-34 -83q-35 -34 -83 -34q-37 0 -66 21q-30 21 -42 53l18 7q25 -61 90 -61q40 0 68 28q29 29 29 69q0 39 -29 68q-28 27 -68 28h-45v20zM77 609l-26 52l3 5q35 54 100 54q46 0 78 -33q33 -32 33 -78q0 -53 -41 -86l-14 15
q35 27 35 71q0 38 -27 64q-26 27 -64 27q-50 0 -80 -40l21 -42z" />
    <glyph glyph-name="acute" unicode="&#xb4;" horiz-adv-x="290" 
d="M30 611l-10 18l240 140l10 -18z" />
    <glyph glyph-name="mu" unicode="&#xb5;" horiz-adv-x="581" 
d="M156 56v37q45 -83 140 -83q66 0 113 47t47 113v320h-86v20h106v-370q0 -54 38 -92t92 -38v-20q-51 0 -92 31q-39 30 -53 78q-46 -109 -165 -109q-87 0 -140 66zM136 -180h-20v670h-86v20h106v-690z" />
    <glyph glyph-name="mu" unicode="&#x3bc;" horiz-adv-x="581" 
d="M156 56v37q45 -83 140 -83q66 0 113 47t47 113v320h-86v20h106v-370q0 -54 38 -92t92 -38v-20q-51 0 -92 31q-39 30 -53 78q-46 -109 -165 -109q-87 0 -140 66zM136 -180h-20v670h-86v20h106v-690z" />
    <glyph glyph-name="paragraph" unicode="&#xb6;" horiz-adv-x="520" 
d="M310 -200h-20v390h-70q-74 0 -127 53t-53 127v170q4 71 56 120q52 50 124 50h90v-910zM450 -200h-20v910h20v-910z" />
    <glyph glyph-name="periodcentered" unicode="&#xb7;" horiz-adv-x="280" 
d="M77 236q-27 27 -27 64t27 64q26 26 63 26q38 0 64 -26t26 -64q0 -37 -26 -64q-26 -26 -64 -26q-37 0 -63 26zM91 350q-21 -21 -21 -50t21 -50q20 -20 49 -20t50 20q20 21 20 50t-20 50q-21 20 -50 20t-49 -20z" />
    <glyph glyph-name="cedilla" unicode="&#xb8;" horiz-adv-x="180" 
d="M40 -220q-20 21 -20 50h20q0 -21 15 -35q14 -15 35 -15t36 15q14 14 14 35t-14 36q-15 14 -36 14h-14l24 73l19 -6l-16 -48q57 -12 57 -69q0 -29 -20 -50q-21 -20 -50 -20t-50 20z" />
    <glyph glyph-name="uni00B9" unicode="&#xb9;" horiz-adv-x="260" 
d="M92 304h118v-20h-118v20zM141 687l-78 -69l-13 15l94 83h17v-392h-20v363z" />
    <glyph glyph-name="ordmasculine" unicode="&#xba;" horiz-adv-x="460" 
d="M165 636q-26 27 -26 64q0 38 26 64q27 26 64 26q38 0 64 -26t26 -64q0 -37 -26 -64q-26 -26 -64 -26q-37 0 -64 26zM179 749q-20 -20 -20 -49t20 -50q21 -20 50 -20t49 20q21 21 21 50t-21 49q-20 21 -49 21t-50 -21zM390 340q0 63 -44 109t-106 50v21q71 -4 120 -56
q50 -53 50 -124v-190q-4 -69 -53 -118q-49 -48 -117 -52v20q63 5 106 50q44 47 44 110v180zM50 340q0 71 49 124q50 52 121 56v-21q-63 -4 -106 -50q-44 -46 -44 -109v-180q0 -64 44 -110q43 -45 106 -50v-20q-71 4 -121 56q-49 52 -49 124v180z" />
    <glyph glyph-name="guillemotright" unicode="&#xbb;" horiz-adv-x="449" 
d="M168 7l233 253l-233 253l14 14l247 -267l-246 -267zM20 7l233 253l-233 253l14 14l247 -267l-246 -267z" />
    <glyph glyph-name="onequarter" unicode="&#xbc;" horiz-adv-x="703" 
d="M92 304h118v-20h-118v20zM141 687l-78 -69l-13 15l94 83h17v-392h-20v363zM431 223h173v-213h49v-20h-119v20h50v193h-173v213h20v-193zM584 415h20v-172h-20v172zM160 -5l-18 9l349 700l18 -9z" />
    <glyph glyph-name="onehalf" unicode="&#xbd;" horiz-adv-x="676" 
d="M160 -5l-18 9l349 700l18 -9zM439 314l-27 52l4 5q35 52 99 54q46 0 79 -33q32 -32 32 -78q0 -61 -101 -160q-82 -80 -95 -124h-21q13 51 102 138q95 95 95 146q0 38 -26 64q-27 27 -65 27q-50 -2 -79 -40l21 -42zM141 687l-78 -69l-13 15l94 83h17v-392h-20v363zM606 10
v49h20v-69h-221v20h201zM92 304h118v-20h-118v20z" />
    <glyph glyph-name="threequarters" unicode="&#xbe;" horiz-adv-x="728" 
d="M113 518h45q50 -2 83 -34q34 -33 34 -82t-34 -83q-35 -34 -83 -34q-37 0 -66 21q-30 21 -42 53l18 7q25 -61 90 -61q40 0 68 28q29 29 29 69q0 39 -29 68q-28 27 -68 28h-45v20zM77 609l-26 52l3 5q35 54 100 54q46 0 78 -33q33 -32 33 -78q0 -53 -41 -86l-14 15
q35 27 35 71q0 38 -27 64q-26 27 -64 27q-50 0 -80 -40l21 -42zM456 223h173v-213h49v-20h-119v20h50v193h-173v213h20v-193zM609 415h20v-172h-20v172zM185 -5l-18 9l349 700l18 -9z" />
    <glyph glyph-name="questiondown" unicode="&#xbf;" horiz-adv-x="406" 
d="M334 685q26 -26 26 -64q0 -37 -26 -64q-26 -26 -64 -26q-37 0 -63 26q-27 27 -27 64t27 64q26 26 63 26q38 0 64 -26zM324 159l42 -86l-3 -4q-57 -89 -163 -89q-74 0 -127 53t-53 128q0 74 53 127t127 53h60v137h20v-157h-80q-66 0 -113 -47t-47 -113q0 -67 47 -114
t113 -47q90 0 143 75l-37 75zM320 572q20 20 20 49t-20 50q-21 20 -50 20t-49 -20q-21 -21 -21 -50q0 -28 21 -49t49 -21q29 0 50 21z" />
    <glyph glyph-name="Agrave" unicode="&#xc0;" 
d="M217 270h225l75 -260h93v-20h-200v20h87l-69 240h-216zM123 10h87v-20h-200v20h92l200 700h15l120 -420h-21l-106 373zM155 951l10 18l240 -140l-10 -18z" />
    <glyph glyph-name="Aacute" unicode="&#xc1;" 
d="M217 270h225l75 -260h93v-20h-200v20h87l-69 240h-216zM123 10h87v-20h-200v20h92l200 700h15l120 -420h-21l-106 373zM225 811l-10 18l240 140l10 -18z" />
    <glyph glyph-name="Acircumflex" unicode="&#xc2;" 
d="M217 270h225l75 -260h93v-20h-200v20h87l-69 240h-216zM123 10h87v-20h-200v20h92l200 700h15l120 -420h-21l-106 373zM484 753l-174 135l-174 -135l-12 16l186 145l186 -145z" />
    <glyph glyph-name="Atilde" unicode="&#xc3;" 
d="M217 270h225l75 -260h93v-20h-200v20h87l-69 240h-216zM123 10h87v-20h-200v20h92l200 700h15l120 -420h-21l-106 373zM302 853q-31 37 -61 37q-46 0 -72 -54l-18 8q5 14 23 34q30 32 67 32q39 0 77 -44q30 -36 61 -36q46 0 72 54l18 -8q-5 -14 -23 -34q-30 -32 -67 -32
q-38 0 -77 43z" />
    <glyph glyph-name="Adieresis" unicode="&#xc4;" 
d="M217 270h225l75 -260h93v-20h-200v20h87l-69 240h-216zM123 10h87v-20h-200v20h92l200 700h15l120 -420h-21l-106 373zM245 822h-20v158h20v-158zM394 822h-20v158h20v-158z" />
    <glyph glyph-name="Aring" unicode="&#xc5;" 
d="M217 270h225l75 -260h93v-20h-200v20h87l-69 240h-216zM123 10h87v-20h-200v20h92l200 700h15l120 -420h-21l-106 373zM246 836q-26 27 -26 64q0 38 26 64q27 26 64 26q38 0 64 -26t26 -64q0 -37 -26 -64q-26 -26 -64 -26q-37 0 -64 26zM260 949q-20 -20 -20 -49t20 -50
q21 -20 50 -20t49 20q21 21 21 50t-21 49q-20 21 -49 21t-50 -21z" />
    <glyph glyph-name="AE" unicode="&#xc6;" horiz-adv-x="901" 
d="M875 600h-20v90h-330v20h350v-110zM745 370v90h20v-200h-20v90h-240l-2 -340h352v90h20v-110h-482v20h90v240h-212l12 20h200l1 100h261zM486 662l-376 -652h90v-20h-200v20h87l403 700h16l-2 -320h-20z" />
    <glyph glyph-name="Ccedilla" unicode="&#xc7;" horiz-adv-x="452" 
d="M60 535q0 77 54 134q54 56 131 61v-20q-69 -5 -117 -55q-48 -51 -48 -120v-370q0 -70 48 -121q48 -50 117 -54v-20q-77 4 -131 60t-54 135v370zM422 637l-43 -86l-18 9l37 75q-48 70 -133 75v20q99 -5 153 -89zM418 58q-53 -83 -153 -88v20q88 5 137 79zM176 -220
q-20 21 -20 50h20q0 -21 15 -35q14 -15 35 -15t36 15q14 14 14 35t-14 36q-15 14 -36 14h-14l24 73l19 -6l-16 -48q57 -12 57 -69q0 -29 -20 -50q-21 -20 -50 -20t-50 20z" />
    <glyph glyph-name="Egrave" unicode="&#xc8;" horiz-adv-x="540" 
d="M390 370v90h20v-200h-20v90h-240v-340h350v90h20v-110h-480v20h90v360h260zM520 600h-20v90h-330v20h350v-110zM130 690h-90v20h110v-320h-20v300zM150 951l10 18l240 -140l-10 -18z" />
    <glyph glyph-name="Eacute" unicode="&#xc9;" horiz-adv-x="540" 
d="M390 370v90h20v-200h-20v90h-240v-340h350v90h20v-110h-480v20h90v360h260zM520 600h-20v90h-330v20h350v-110zM130 690h-90v20h110v-320h-20v300zM160 811l-10 18l240 140l10 -18z" />
    <glyph glyph-name="Ecircumflex" unicode="&#xca;" horiz-adv-x="540" 
d="M390 370v90h20v-200h-20v90h-240v-340h350v90h20v-110h-480v20h90v360h260zM520 600h-20v90h-330v20h350v-110zM130 690h-90v20h110v-320h-20v300zM479 778l-174 135l-174 -135l-12 16l186 145l186 -145z" />
    <glyph glyph-name="Edieresis" unicode="&#xcb;" horiz-adv-x="540" 
d="M390 370v90h20v-200h-20v90h-240v-340h350v90h20v-110h-480v20h90v360h260zM520 600h-20v90h-330v20h350v-110zM130 690h-90v20h110v-320h-20v300zM210 822h-20v158h20v-158zM359 822h-20v158h20v-158z" />
    <glyph glyph-name="Igrave" unicode="&#xcc;" horiz-adv-x="280" 
d="M240 10v-20h-200v20h90v659h20v-659h90zM240 690h-200v20h200v-20zM-15 951l10 18l240 -140l-10 -18z" />
    <glyph glyph-name="Iacute" unicode="&#xcd;" horiz-adv-x="280" 
d="M240 10v-20h-200v20h90v659h20v-659h90zM240 690h-200v20h200v-20zM55 811l-10 18l240 140l10 -18z" />
    <glyph glyph-name="Icircumflex" unicode="&#xce;" horiz-adv-x="280" 
d="M240 10v-20h-200v20h90v659h20v-659h90zM240 690h-200v20h200v-20zM314 812l-174 135l-174 -135l-12 16l186 145l186 -145z" />
    <glyph glyph-name="Idieresis" unicode="&#xcf;" horiz-adv-x="280" 
d="M240 10v-20h-200v20h90v659h20v-659h90zM240 690h-200v20h200v-20zM75 822h-20v158h20v-158zM224 822h-20v158h20v-158z" />
    <glyph glyph-name="Eth" unicode="&#xd0;" horiz-adv-x="540" 
d="M10 10h285q72 0 124 51q51 51 51 124v330q0 72 -51 124q-52 51 -124 51h-155v20h155q81 0 138 -57q57 -58 57 -138v-330q0 -81 -57 -138t-138 -57h-285v20zM100 30v261h-90v20h400v-20h-290v-261h-20zM100 690h-90v20h110v-379h-20v359z" />
    <glyph glyph-name="Ntilde" unicode="&#xd1;" horiz-adv-x="659" 
d="M160 710v-700h90v-20h-200v20h90v680h-100v20h120zM619 690h-89v-646l-20 38v608h-91v20h200v-20zM180 621v43l350 -663v-11h-16zM321 853q-31 37 -61 37q-46 0 -72 -54l-18 8q5 14 23 34q30 32 67 32q39 0 77 -44q30 -36 61 -36q46 0 72 54l18 -8q-5 -14 -23 -34
q-30 -32 -67 -32q-38 0 -77 43z" />
    <glyph glyph-name="Ograve" unicode="&#xd2;" horiz-adv-x="510" 
d="M450 165q0 -78 -54 -135q-54 -56 -131 -60v20q69 4 117 54q48 51 48 121v370q0 69 -48 120q-48 50 -117 55v20q77 -5 131 -61q54 -57 54 -134v-370zM60 535q0 77 54 134q53 57 131 61v-20q-70 -4 -117 -55q-48 -51 -48 -120v-370q0 -70 48 -121q47 -50 117 -54v-20
q-78 4 -131 60q-54 56 -54 135v370zM100 951l10 18l240 -140l-10 -18z" />
    <glyph glyph-name="Oacute" unicode="&#xd3;" horiz-adv-x="510" 
d="M450 165q0 -78 -54 -135q-54 -56 -131 -60v20q69 4 117 54q48 51 48 121v370q0 69 -48 120q-48 50 -117 55v20q77 -5 131 -61q54 -57 54 -134v-370zM60 535q0 77 54 134q53 57 131 61v-20q-70 -4 -117 -55q-48 -51 -48 -120v-370q0 -70 48 -121q47 -50 117 -54v-20
q-78 4 -131 60q-54 56 -54 135v370zM170 811l-10 18l240 140l10 -18z" />
    <glyph glyph-name="Ocircumflex" unicode="&#xd4;" horiz-adv-x="510" 
d="M450 165q0 -78 -54 -135q-54 -56 -131 -60v20q69 4 117 54q48 51 48 121v370q0 69 -48 120q-48 50 -117 55v20q77 -5 131 -61q54 -57 54 -134v-370zM60 535q0 77 54 134q53 57 131 61v-20q-70 -4 -117 -55q-48 -51 -48 -120v-370q0 -70 48 -121q47 -50 117 -54v-20
q-78 4 -131 60q-54 56 -54 135v370zM433 753l-174 135l-174 -135l-12 16l186 145l186 -145z" />
    <glyph glyph-name="Otilde" unicode="&#xd5;" horiz-adv-x="510" 
d="M450 165q0 -78 -54 -135q-54 -56 -131 -60v20q69 4 117 54q48 51 48 121v370q0 69 -48 120q-48 50 -117 55v20q77 -5 131 -61q54 -57 54 -134v-370zM60 535q0 77 54 134q53 57 131 61v-20q-70 -4 -117 -55q-48 -51 -48 -120v-370q0 -70 48 -121q47 -50 117 -54v-20
q-78 4 -131 60q-54 56 -54 135v370zM247 853q-31 37 -61 37q-46 0 -72 -54l-18 8q5 14 23 34q30 32 67 32q39 0 77 -44q30 -36 61 -36q46 0 72 54l18 -8q-5 -14 -23 -34q-30 -32 -67 -32q-38 0 -77 43z" />
    <glyph glyph-name="Odieresis" unicode="&#xd6;" horiz-adv-x="510" 
d="M450 165q0 -78 -54 -135q-54 -56 -131 -60v20q69 4 117 54q48 51 48 121v370q0 69 -48 120q-48 50 -117 55v20q77 -5 131 -61q54 -57 54 -134v-370zM60 535q0 77 54 134q53 57 131 61v-20q-70 -4 -117 -55q-48 -51 -48 -120v-370q0 -70 48 -121q47 -50 117 -54v-20
q-78 4 -131 60q-54 56 -54 135v370zM190 822h-20v158h20v-158zM339 822h-20v158h20v-158z" />
    <glyph glyph-name="multiply" unicode="&#xd7;" horiz-adv-x="397" 
d="M64 111l-14 15l134 134l-134 134l14 14l134 -134l135 134l14 -14l-134 -134l134 -134l-14 -15l-135 134z" />
    <glyph glyph-name="Oslash" unicode="&#xd8;" horiz-adv-x="510" 
d="M89 -5l-18 9l24 48q-35 51 -35 113v370q0 77 54 134q53 57 131 61v-20q-70 -4 -117 -55q-48 -51 -48 -120v-370q0 -50 25 -92l285 572q-48 59 -125 65v20q80 -5 135 -66l20 40l18 -9l-24 -48q36 -52 36 -112v-370q0 -78 -54 -135q-54 -56 -131 -60v20q69 4 117 54
q48 51 48 121v370q0 48 -27 91l-285 -572q48 -59 127 -64v-20q-84 5 -136 65z" />
    <glyph glyph-name="Ugrave" unicode="&#xd9;" horiz-adv-x="630" 
d="M600 690h-90v-525q0 -78 -54 -135q-54 -56 -131 -60v20q69 4 117 54q48 51 48 121v525h-90v20h200v-20zM120 690h-90v20h200v-20h-90v-525q0 -70 48 -121q47 -50 117 -54v-20q-78 4 -131 60q-54 56 -54 135v525zM160 951l10 18l240 -140l-10 -18z" />
    <glyph glyph-name="Uacute" unicode="&#xda;" horiz-adv-x="630" 
d="M600 690h-90v-525q0 -78 -54 -135q-54 -56 -131 -60v20q69 4 117 54q48 51 48 121v525h-90v20h200v-20zM120 690h-90v20h200v-20h-90v-525q0 -70 48 -121q47 -50 117 -54v-20q-78 4 -131 60q-54 56 -54 135v525zM230 811l-10 18l240 140l10 -18z" />
    <glyph glyph-name="Ucircumflex" unicode="&#xdb;" horiz-adv-x="630" 
d="M600 690h-90v-525q0 -78 -54 -135q-54 -56 -131 -60v20q69 4 117 54q48 51 48 121v525h-90v20h200v-20zM120 690h-90v20h200v-20h-90v-525q0 -70 48 -121q47 -50 117 -54v-20q-78 4 -131 60q-54 56 -54 135v525zM489 812l-174 135l-174 -135l-12 16l186 145l186 -145z
" />
    <glyph glyph-name="Udieresis" unicode="&#xdc;" horiz-adv-x="630" 
d="M600 690h-90v-525q0 -78 -54 -135q-54 -56 -131 -60v20q69 4 117 54q48 51 48 121v525h-90v20h200v-20zM120 690h-90v20h200v-20h-90v-525q0 -70 48 -121q47 -50 117 -54v-20q-78 4 -131 60q-54 56 -54 135v525zM250 822h-20v158h20v-158zM399 822h-20v158h20v-158z" />
    <glyph glyph-name="Yacute" unicode="&#xdd;" 
d="M410 -10h-200v20h90v343l193 337h-83v20h200v-20h-94l-196 -344v-336h90v-20zM10 690v20h200v-20h-83l171 -300l-11 -19l-182 319h-95zM195 811l-10 18l240 140l10 -18z" />
    <glyph glyph-name="Thorn" unicode="&#xde;" horiz-adv-x="580" 
d="M150 521q51 103 165 109v-20q-68 -4 -115 -53q-48 -48 -50 -115v-274q2 -68 50 -116q47 -48 115 -52v-20q-116 6 -165 108v-308h-110v20h90v890h-90v20h110v-189zM520 175q0 -78 -54 -135q-54 -56 -131 -60v20q69 4 117 54q48 51 48 121v260q0 69 -48 120q-48 50 -117 55
v20q77 -5 131 -61q54 -57 54 -134v-260z" />
    <glyph glyph-name="germandbls" unicode="&#xdf;" horiz-adv-x="530" 
d="M179 21l11 17q44 -28 95 -28q72 0 124 51q51 51 51 124q0 70 -49 121q-50 51 -119 54h-100v20h93q64 0 109 45q46 46 46 110q0 61 -42 106q-43 44 -103 48v21q69 -5 117 -55q48 -51 48 -120q0 -56 -32 -102q-32 -44 -83 -63q59 -19 97 -70t38 -115q0 -81 -57 -138
q-58 -57 -138 -57q-56 0 -106 31zM130 -10h-110v20h90v525q0 69 48 120q47 51 117 55v-21q-61 -4 -103 -48q-42 -45 -42 -106v-545z" />
    <glyph glyph-name="agrave" unicode="&#xe0;" horiz-adv-x="495" 
d="M97 273q-47 -47 -47 -113t47 -113t113 -47q95 0 141 83v-36q-54 -67 -141 -67q-74 0 -127 53t-53 127t53 127t127 53q87 0 141 -69v-35q-45 84 -141 84q-66 0 -113 -47zM370 330q0 66 -47 113q-46 47 -113 47q-73 0 -122 -57l-15 13q53 64 137 64q75 0 128 -53
q52 -53 52 -127v-196q3 -58 46 -93l12 -9q33 -22 72 -22v-20q-56 0 -100 38q-50 41 -50 106v196zM89 751l10 18l240 -140l-10 -18z" />
    <glyph glyph-name="aacute" unicode="&#xe1;" horiz-adv-x="495" 
d="M97 273q-47 -47 -47 -113t47 -113t113 -47q95 0 141 83v-36q-54 -67 -141 -67q-74 0 -127 53t-53 127t53 127t127 53q87 0 141 -69v-35q-45 84 -141 84q-66 0 -113 -47zM370 330q0 66 -47 113q-46 47 -113 47q-73 0 -122 -57l-15 13q53 64 137 64q75 0 128 -53
q52 -53 52 -127v-196q3 -58 46 -93l12 -9q33 -22 72 -22v-20q-56 0 -100 38q-50 41 -50 106v196zM145 611l-10 18l240 140l10 -18z" />
    <glyph glyph-name="acircumflex" unicode="&#xe2;" horiz-adv-x="495" 
d="M97 273q-47 -47 -47 -113t47 -113t113 -47q95 0 141 83v-36q-54 -67 -141 -67q-74 0 -127 53t-53 127t53 127t127 53q87 0 141 -69v-35q-45 84 -141 84q-66 0 -113 -47zM370 330q0 66 -47 113q-46 47 -113 47q-73 0 -122 -57l-15 13q53 64 137 64q75 0 128 -53
q52 -53 52 -127v-196q3 -58 46 -93l12 -9q33 -22 72 -22v-20q-56 0 -100 38q-50 41 -50 106v196zM411 563l-174 135l-174 -135l-12 16l186 145l186 -145z" />
    <glyph glyph-name="atilde" unicode="&#xe3;" horiz-adv-x="495" 
d="M97 273q-47 -47 -47 -113t47 -113t113 -47q95 0 141 83v-36q-54 -67 -141 -67q-74 0 -127 53t-53 127t53 127t127 53q87 0 141 -69v-35q-45 84 -141 84q-66 0 -113 -47zM370 330q0 66 -47 113q-46 47 -113 47q-73 0 -122 -57l-15 13q53 64 137 64q75 0 128 -53
q52 -53 52 -127v-196q3 -58 46 -93l12 -9q33 -22 72 -22v-20q-56 0 -100 38q-50 41 -50 106v196zM241 653q-31 37 -61 37q-46 0 -72 -54l-18 8q5 14 23 34q30 32 67 32q39 0 77 -44q30 -36 61 -36q46 0 72 54l18 -8q-5 -14 -23 -34q-30 -32 -67 -32q-38 0 -77 43z" />
    <glyph glyph-name="adieresis" unicode="&#xe4;" horiz-adv-x="495" 
d="M97 273q-47 -47 -47 -113t47 -113t113 -47q95 0 141 83v-36q-54 -67 -141 -67q-74 0 -127 53t-53 127t53 127t127 53q87 0 141 -69v-35q-45 84 -141 84q-66 0 -113 -47zM370 330q0 66 -47 113q-46 47 -113 47q-73 0 -122 -57l-15 13q53 64 137 64q75 0 128 -53
q52 -53 52 -127v-196q3 -58 46 -93l12 -9q33 -22 72 -22v-20q-56 0 -100 38q-50 41 -50 106v196zM164 622h-20v158h20v-158zM313 622h-20v158h20v-158z" />
    <glyph glyph-name="aring" unicode="&#xe5;" horiz-adv-x="495" 
d="M97 273q-47 -47 -47 -113t47 -113t113 -47q95 0 141 83v-36q-54 -67 -141 -67q-74 0 -127 53t-53 127t53 127t127 53q87 0 141 -69v-35q-45 84 -141 84q-66 0 -113 -47zM370 330q0 66 -47 113q-46 47 -113 47q-73 0 -122 -57l-15 13q53 64 137 64q75 0 128 -53
q52 -53 52 -127v-196q3 -58 46 -93l12 -9q33 -22 72 -22v-20q-56 0 -100 38q-50 41 -50 106v196zM176 636q-26 27 -26 64q0 38 26 64q27 26 64 26q38 0 64 -26t26 -64q0 -37 -26 -64q-26 -26 -64 -26q-37 0 -64 26zM190 749q-20 -20 -20 -49t20 -50q21 -20 50 -20t49 20
q21 21 21 50t-21 49q-20 21 -49 21t-50 -21z" />
    <glyph glyph-name="ae" unicode="&#xe6;" horiz-adv-x="750" 
d="M439 455q-46 -45 -49 -109v-186q0 -66 47 -113t113 -47q85 0 149 78l15 -16q-67 -82 -164 -82q-74 0 -127 53t-53 127v180q0 66 -47 113q-46 47 -113 47q-73 0 -122 -57l-15 13q53 64 137 64q58 0 105 -34q46 -34 65 -87q19 53 65 87q47 34 105 34q74 0 127 -52
q52 -52 53 -125v-83h-320v20h300v63q-1 65 -47 111q-47 46 -113 46q-64 0 -111 -45zM97 273q-47 -47 -47 -113t47 -113t113 -47q95 0 141 83v-36q-54 -67 -141 -67q-74 0 -127 53t-53 127t53 127t127 53q87 0 141 -69v-35q-45 84 -141 84q-66 0 -113 -47z" />
    <glyph glyph-name="ccedilla" unicode="&#xe7;" horiz-adv-x="381" 
d="M50 350q4 68 53 117t117 53v-21q-63 -4 -106 -50q-44 -46 -44 -109v-180q0 -64 44 -110q43 -45 106 -50v-20q-68 4 -117 52q-49 49 -53 118v200zM371 451l-43 -86l-18 9l37 74q-45 48 -107 51v21q77 -5 127 -64zM367 43q-49 -58 -127 -63v20q67 3 112 56zM140 -220
q-20 21 -20 50h20q0 -21 15 -35q14 -15 35 -15t36 15q14 14 14 35t-14 36q-15 14 -36 14h-14l24 73l19 -6l-16 -48q57 -12 57 -69q0 -29 -20 -50q-21 -20 -50 -20t-50 20z" />
    <glyph glyph-name="egrave" unicode="&#xe8;" horiz-adv-x="430" 
d="M119 455q-46 -45 -49 -109v-46h-20v50q4 71 56 120q53 50 124 50q74 0 127 -52q52 -52 53 -125v-83h-360v20h340v63q-1 65 -47 111q-47 46 -113 46q-64 0 -111 -45zM379 78l15 -16q-67 -82 -164 -82q-74 0 -127 53t-53 127v80h20v-80q0 -66 47 -113t113 -47q85 0 149 78z
M90 751l10 18l240 -140l-10 -18z" />
    <glyph glyph-name="eacute" unicode="&#xe9;" horiz-adv-x="430" 
d="M119 455q-46 -45 -49 -109v-46h-20v50q4 71 56 120q53 50 124 50q74 0 127 -52q52 -52 53 -125v-83h-360v20h340v63q-1 65 -47 111q-47 46 -113 46q-64 0 -111 -45zM379 78l15 -16q-67 -82 -164 -82q-74 0 -127 53t-53 127v80h20v-80q0 -66 47 -113t113 -47q85 0 149 78z
M100 611l-10 18l240 140l10 -18z" />
    <glyph glyph-name="ecircumflex" unicode="&#xea;" horiz-adv-x="430" 
d="M119 455q-46 -45 -49 -109v-46h-20v50q4 71 56 120q53 50 124 50q74 0 127 -52q52 -52 53 -125v-83h-360v20h340v63q-1 65 -47 111q-47 46 -113 46q-64 0 -111 -45zM379 78l15 -16q-67 -82 -164 -82q-74 0 -127 53t-53 127v80h20v-80q0 -66 47 -113t113 -47q85 0 149 78z
M416 566l-174 135l-174 -135l-12 16l186 145l186 -145z" />
    <glyph glyph-name="edieresis" unicode="&#xeb;" horiz-adv-x="430" 
d="M119 455q-46 -45 -49 -109v-46h-20v50q4 71 56 120q53 50 124 50q74 0 127 -52q52 -52 53 -125v-83h-360v20h340v63q-1 65 -47 111q-47 46 -113 46q-64 0 -111 -45zM379 78l15 -16q-67 -82 -164 -82q-74 0 -127 53t-53 127v80h20v-80q0 -66 47 -113t113 -47q85 0 149 78z
M166 622h-20v158h20v-158zM315 622h-20v158h20v-158z" />
    <glyph glyph-name="igrave" unicode="&#xec;" horiz-adv-x="260" 
d="M230 490h-200v20h200v-20zM230 10v-20h-200v20h90v460h20v-460h90zM-25 751l10 18l240 -140l-10 -18z" />
    <glyph glyph-name="iacute" unicode="&#xed;" horiz-adv-x="260" 
d="M230 490h-200v20h200v-20zM230 10v-20h-200v20h90v460h20v-460h90zM45 611l-10 18l240 140l10 -18z" />
    <glyph glyph-name="icircumflex" unicode="&#xee;" horiz-adv-x="260" 
d="M230 490h-200v20h200v-20zM230 10v-20h-200v20h90v460h20v-460h90zM304 612l-174 135l-174 -135l-12 16l186 145l186 -145z" />
    <glyph glyph-name="idieresis" unicode="&#xef;" horiz-adv-x="260" 
d="M230 490h-200v20h200v-20zM230 10v-20h-200v20h90v460h20v-460h90zM65 622h-20v158h20v-158zM214 622h-20v158h20v-158z" />
    <glyph glyph-name="eth" unicode="&#xf0;" horiz-adv-x="474" 
d="M454 697l-71 -75q26 -44 26 -97v-355q0 -76 -53 -131q-52 -55 -127 -59v20q66 4 113 53t47 117v355q0 44 -20 81l-140 -148l-15 15l143 152q-53 75 -143 75v20q99 0 157 -80l68 72zM96 53q46 -49 113 -53v-20q-75 4 -127 59t-52 131q0 78 56 134q55 55 133 55
q92 0 150 -74v-35q-49 89 -150 89q-70 0 -119 -50q-50 -49 -50 -119q0 -68 46 -117z" />
    <glyph glyph-name="ntilde" unicode="&#xf1;" horiz-adv-x="585" 
d="M460 340q0 66 -47 113t-113 47q-95 0 -140 -84v36q55 68 140 68q74 0 127 -53t53 -127v-200q0 -54 38 -92t92 -38v-20q-62 0 -106 44t-44 106v200zM140 10h90v-20h-200v20h90v480h-85v20h105v-500zM284 653q-31 37 -61 37q-46 0 -72 -54l-18 8q5 14 23 34q30 32 67 32
q39 0 77 -44q30 -36 61 -36q46 0 72 54l18 -8q-5 -14 -23 -34q-30 -32 -67 -32q-38 0 -77 43z" />
    <glyph glyph-name="ograve" unicode="&#xf2;" horiz-adv-x="460" 
d="M390 340q0 63 -44 109t-106 50v21q71 -4 120 -56q50 -53 50 -124v-190q-4 -69 -53 -118q-49 -48 -117 -52v20q63 5 106 50q44 47 44 110v180zM50 340q0 71 49 124q50 52 121 56v-21q-63 -4 -106 -50q-44 -46 -44 -109v-180q0 -64 44 -110q43 -45 106 -50v-20
q-71 4 -121 56q-49 52 -49 124v180zM75 751l10 18l240 -140l-10 -18z" />
    <glyph glyph-name="oacute" unicode="&#xf3;" horiz-adv-x="460" 
d="M390 340q0 63 -44 109t-106 50v21q71 -4 120 -56q50 -53 50 -124v-190q-4 -69 -53 -118q-49 -48 -117 -52v20q63 5 106 50q44 47 44 110v180zM50 340q0 71 49 124q50 52 121 56v-21q-63 -4 -106 -50q-44 -46 -44 -109v-180q0 -64 44 -110q43 -45 106 -50v-20
q-71 4 -121 56q-49 52 -49 124v180zM145 611l-10 18l240 140l10 -18z" />
    <glyph glyph-name="ocircumflex" unicode="&#xf4;" horiz-adv-x="460" 
d="M390 340q0 63 -44 109t-106 50v21q71 -4 120 -56q50 -53 50 -124v-190q-4 -69 -53 -118q-49 -48 -117 -52v20q63 5 106 50q44 47 44 110v180zM50 340q0 71 49 124q50 52 121 56v-21q-63 -4 -106 -50q-44 -46 -44 -109v-180q0 -64 44 -110q43 -45 106 -50v-20
q-71 4 -121 56q-49 52 -49 124v180zM412 570l-174 135l-174 -135l-12 16l186 145l186 -145z" />
    <glyph glyph-name="otilde" unicode="&#xf5;" horiz-adv-x="460" 
d="M390 340q0 63 -44 109t-106 50v21q71 -4 120 -56q50 -53 50 -124v-190q-4 -69 -53 -118q-49 -48 -117 -52v20q63 5 106 50q44 47 44 110v180zM50 340q0 71 49 124q50 52 121 56v-21q-63 -4 -106 -50q-44 -46 -44 -109v-180q0 -64 44 -110q43 -45 106 -50v-20
q-71 4 -121 56q-49 52 -49 124v180zM222 653q-31 37 -61 37q-46 0 -72 -54l-18 8q5 14 23 34q30 32 67 32q39 0 77 -44q30 -36 61 -36q46 0 72 54l18 -8q-5 -14 -23 -34q-30 -32 -67 -32q-38 0 -77 43z" />
    <glyph glyph-name="odieresis" unicode="&#xf6;" horiz-adv-x="460" 
d="M390 340q0 63 -44 109t-106 50v21q71 -4 120 -56q50 -53 50 -124v-190q-4 -69 -53 -118q-49 -48 -117 -52v20q63 5 106 50q44 47 44 110v180zM50 340q0 71 49 124q50 52 121 56v-21q-63 -4 -106 -50q-44 -46 -44 -109v-180q0 -64 44 -110q43 -45 106 -50v-20
q-71 4 -121 56q-49 52 -49 124v180zM165 622h-20v158h20v-158zM314 622h-20v158h20v-158z" />
    <glyph glyph-name="divide" unicode="&#xf7;" horiz-adv-x="500" 
d="M183 103q-27 27 -27 64t27 64q26 26 63 26q38 0 64 -26t26 -64q0 -37 -26 -64q-26 -26 -64 -26q-37 0 -63 26zM197 217q-21 -21 -21 -50t21 -50q20 -20 49 -20t50 20q20 21 20 50t-20 50q-21 20 -50 20t-49 -20zM183 352q-27 27 -27 64t27 64q26 26 63 26q38 0 64 -26
t26 -64q0 -37 -26 -64q-26 -26 -64 -26q-37 0 -63 26zM197 466q-21 -21 -21 -50t21 -50q20 -20 49 -20t50 20q20 21 20 50t-20 50q-21 20 -50 20t-49 -20zM450 280h-400v20h400v-20z" />
    <glyph glyph-name="oslash" unicode="&#xf8;" horiz-adv-x="460" 
d="M50 340q0 71 49 124q50 52 121 56v-21q-63 -4 -106 -50q-44 -46 -44 -109v-180q0 -67 46 -113l209 420q-39 29 -85 32v21q50 -3 94 -34l14 27l18 -9l-16 -31q60 -54 60 -133v-190q-4 -69 -53 -118q-49 -48 -117 -52v20q63 5 106 50q44 47 44 110v180q0 67 -49 114
l-210 -420q39 -31 89 -34v-20q-53 3 -98 35l-10 -20l-18 9l12 25q-56 54 -56 131v180z" />
    <glyph glyph-name="ugrave" unicode="&#xf9;" horiz-adv-x="571" 
d="M159 33q-53 53 -53 127v330h-86v20h106v-350q0 -66 47 -113t113 -47q93 0 140 82v-35q-54 -67 -140 -67q-74 0 -127 53zM446 490h-86v20h106v-370q0 -54 38 -92t92 -38v-20q-63 1 -107 45t-43 105v350zM143 751l10 18l240 -140l-10 -18z" />
    <glyph glyph-name="uacute" unicode="&#xfa;" horiz-adv-x="571" 
d="M159 33q-53 53 -53 127v330h-86v20h106v-350q0 -66 47 -113t113 -47q93 0 140 82v-35q-54 -67 -140 -67q-74 0 -127 53zM446 490h-86v20h106v-370q0 -54 38 -92t92 -38v-20q-63 1 -107 45t-43 105v350zM213 611l-10 18l240 140l10 -18z" />
    <glyph glyph-name="ucircumflex" unicode="&#xfb;" horiz-adv-x="571" 
d="M159 33q-53 53 -53 127v330h-86v20h106v-350q0 -66 47 -113t113 -47q93 0 140 82v-35q-54 -67 -140 -67q-74 0 -127 53zM446 490h-86v20h106v-370q0 -54 38 -92t92 -38v-20q-63 1 -107 45t-43 105v350zM472 612l-174 135l-174 -135l-12 16l186 145l186 -145z" />
    <glyph glyph-name="udieresis" unicode="&#xfc;" horiz-adv-x="571" 
d="M159 33q-53 53 -53 127v330h-86v20h106v-350q0 -66 47 -113t113 -47q93 0 140 82v-35q-54 -67 -140 -67q-74 0 -127 53zM446 490h-86v20h106v-370q0 -54 38 -92t92 -38v-20q-63 1 -107 45t-43 105v350zM233 622h-20v158h20v-158zM382 622h-20v158h20v-158z" />
    <glyph glyph-name="yacute" unicode="&#xfd;" horiz-adv-x="516" 
d="M159 -277q-53 53 -53 127h20q0 -66 47 -113t113 -47q64 0 111 45q46 45 49 109v646h-86v20h106v-660q0 -74 -53 -127t-127 -53t-127 53zM159 33q-53 53 -53 127v330h-86v20h106v-350q0 -66 47 -113t113 -47q94 0 140 83v-37q-53 -66 -140 -66q-74 0 -127 53zM143 611
l-10 18l240 140l10 -18z" />
    <glyph glyph-name="thorn" unicode="&#xfe;" horiz-adv-x="540" 
d="M170 418v34q55 68 140 68q74 0 127 -53t53 -127v-190q-4 -71 -56 -121q-53 -49 -124 -49q-87 0 -140 66v35q46 -81 140 -81q66 0 113 47t47 113v180q0 66 -47 113t-113 47q-95 0 -140 -82zM150 -220h-110v20h90v890h-90v20h110v-930z" />
    <glyph glyph-name="ydieresis" unicode="&#xff;" horiz-adv-x="516" 
d="M159 -277q-53 53 -53 127h20q0 -66 47 -113t113 -47q64 0 111 45q46 45 49 109v646h-86v20h106v-660q0 -74 -53 -127t-127 -53t-127 53zM159 33q-53 53 -53 127v330h-86v20h106v-350q0 -66 47 -113t113 -47q94 0 140 83v-37q-53 -66 -140 -66q-74 0 -127 53zM193 622h-20
v158h20v-158zM342 622h-20v158h20v-158z" />
    <glyph glyph-name="Abreve" unicode="&#x102;" 
d="M217 270h225l75 -260h93v-20h-200v20h87l-69 240h-216zM123 10h87v-20h-200v20h92l200 700h15l120 -420h-21l-106 373zM244 855q0 -29 20 -50q21 -20 50 -20t49 20q21 21 21 50h20q0 -37 -26 -64q-26 -26 -64 -26q-37 0 -64 26q-26 27 -26 64h20z" />
    <glyph glyph-name="abreve" unicode="&#x103;" horiz-adv-x="490" 
d="M97 273q-47 -47 -47 -113t47 -113t113 -47q95 0 141 83v-36q-54 -67 -141 -67q-74 0 -127 53t-53 127t53 127t127 53q87 0 141 -69v-35q-45 84 -141 84q-66 0 -113 -47zM370 330q0 66 -47 113q-46 47 -113 47q-73 0 -122 -57l-15 13q53 64 137 64q75 0 128 -53
q52 -53 52 -127v-196q3 -58 46 -93l12 -9q33 -22 72 -22v-20q-56 0 -100 38q-50 41 -50 106v196zM160 667q0 -29 20 -50q21 -20 50 -20t49 20q21 21 21 50h20q0 -37 -26 -64q-26 -26 -64 -26q-37 0 -64 26q-26 27 -26 64h20z" />
    <glyph glyph-name="Dcroat" unicode="&#x110;" horiz-adv-x="540" 
d="M10 10h285q72 0 124 51q51 51 51 124v330q0 72 -51 124q-52 51 -124 51h-155v20h155q81 0 138 -57q57 -58 57 -138v-330q0 -81 -57 -138t-138 -57h-285v20zM100 30v261h-90v20h400v-20h-290v-261h-20zM100 690h-90v20h110v-379h-20v359z" />
    <glyph glyph-name="dcroat" unicode="&#x111;" horiz-adv-x="520" 
d="M117 453q-47 -47 -47 -113v-180q0 -66 47 -113t113 -47q94 0 140 81v-35q-53 -66 -140 -66q-71 0 -124 49q-52 50 -56 121v190q0 74 53 127t127 53q85 0 140 -68v-34q-45 82 -140 82q-66 0 -113 -47zM390 710h110v-20h-90v-680h90v-20h-110v720zM505 600h-440v20h440v-20
z" />
    <glyph glyph-name="Itilde" unicode="&#x128;" horiz-adv-x="280" 
d="M240 10v-20h-200v20h90v659h20v-659h90zM240 690h-200v20h200v-20zM132 853q-31 37 -61 37q-46 0 -72 -54l-18 8q5 14 23 34q30 32 67 32q39 0 77 -44q30 -36 61 -36q46 0 72 54l18 -8q-5 -14 -23 -34q-30 -32 -67 -32q-38 0 -77 43z" />
    <glyph glyph-name="itilde" unicode="&#x129;" horiz-adv-x="260" 
d="M230 490h-200v20h200v-20zM230 10v-20h-200v20h90v460h20v-460h90zM122 653q-31 37 -61 37q-46 0 -72 -54l-18 8q5 14 23 34q30 32 67 32q39 0 77 -44q30 -36 61 -36q46 0 72 54l18 -8q-5 -14 -23 -34q-30 -32 -67 -32q-38 0 -77 43z" />
    <glyph glyph-name="dotlessi" unicode="&#x131;" horiz-adv-x="260" 
d="M230 490h-200v20h200v-20zM230 10v-20h-200v20h90v460h20v-460h90z" />
    <glyph glyph-name="Lslash" unicode="&#x141;" horiz-adv-x="521" 
d="M140 690h-90v20h110v-403l159 92l10 -18l-169 -98v-253h-20v242l-157 -91l-10 18l167 96v395zM50 10h431v90h20v-110h-451v20z" />
    <glyph glyph-name="lslash" unicode="&#x142;" horiz-adv-x="419" 
d="M204 690h-90v20h110v-403l158 91l10 -17l-168 -97v-254h-20v243l-158 -91l-10 17l168 96v395zM114 10h200v-20h-200v20z" />
    <glyph glyph-name="OE" unicode="&#x152;" horiz-adv-x="850" 
d="M60 535q0 77 54 134q53 57 131 61v-20q-70 -4 -117 -55q-48 -51 -48 -120v-370q0 -70 48 -121q47 -50 117 -54v-20q-78 4 -131 60q-54 56 -54 135v370zM820 600h-20v90h-330v20h350v-110zM690 370v90h20v-200h-20v90h-240v-340h350v90h20v-110h-390v88
q-51 -102 -165 -108v20q66 4 114 52t51 116v212h260zM430 710h20v-320h-20v152q-3 67 -51 115t-114 53v20q113 -6 165 -110v90z" />
    <glyph glyph-name="oe" unicode="&#x153;" horiz-adv-x="770" 
d="M50 340q0 71 49 124q50 52 121 56v-21q-63 -4 -106 -50q-44 -46 -44 -109v-180q0 -64 44 -110q43 -45 106 -50v-20q-71 4 -121 56q-49 52 -49 124v180zM459 455q-46 -45 -49 -109v-46h-20v40q0 63 -44 109t-106 50v21q54 -3 98 -37q43 -33 61 -84q19 53 66 87t105 34
q74 0 127 -52q52 -52 53 -125v-83h-340v-107q2 -64 49 -108q47 -45 111 -45q85 0 149 78l15 -16q-67 -82 -164 -82q-58 0 -105 34q-47 33 -65 86q-18 -51 -62 -84t-98 -36v20q61 5 104 48q44 44 46 105v127h340v63q-1 65 -47 111q-47 46 -113 46q-64 0 -111 -45z" />
    <glyph glyph-name="Scaron" unicode="&#x160;" horiz-adv-x="472" 
d="M422 185q0 -81 -57 -138q-58 -57 -138 -57h-175v110h20v-90h155q72 0 124 51q51 51 51 124q0 113 -166 171v21q90 -30 131 -67q55 -49 55 -125zM421 590h-22l1 10h1v90h-174q-64 0 -110 -46q-45 -45 -45 -109q0 -100 144 -152v-21q-74 26 -111 59q-53 47 -53 114
q0 72 51 124q51 51 124 51h194v-120zM422 957l-186 -145l-186 145l12 16l174 -135l174 135z" />
    <glyph glyph-name="scaron" unicode="&#x161;" horiz-adv-x="330" 
d="M290 400h-20v90h-105q-48 0 -81 -34q-34 -34 -34 -81q0 -42 35 -71q21 -19 65 -38v-22q-52 21 -78 44q-42 36 -42 87q0 56 39 95q40 40 96 40h125v-110zM300 125q0 -54 -37 -92q-36 -39 -88 -42v-1h-125v110h20v-90h95q47 0 81 34q34 33 34 81q0 67 -110 111v22
q54 -21 85 -46q45 -36 45 -87zM351 757l-186 -145l-186 145l12 16l174 -135l174 135z" />
    <glyph glyph-name="Utilde" unicode="&#x168;" horiz-adv-x="630" 
d="M600 690h-90v-525q0 -78 -54 -135q-54 -56 -131 -60v20q69 4 117 54q48 51 48 121v525h-90v20h200v-20zM120 690h-90v20h200v-20h-90v-525q0 -70 48 -121q47 -50 117 -54v-20q-78 4 -131 60q-54 56 -54 135v525zM320 836q-31 37 -61 37q-46 0 -72 -54l-18 8q5 14 23 34
q30 32 67 32q39 0 77 -44q30 -36 61 -36q46 0 72 54l18 -8q-5 -14 -23 -34q-30 -32 -67 -32q-38 0 -77 43z" />
    <glyph glyph-name="utilde" unicode="&#x169;" horiz-adv-x="571" 
d="M159 33q-53 53 -53 127v330h-86v20h106v-350q0 -66 47 -113t113 -47q93 0 140 82v-35q-54 -67 -140 -67q-74 0 -127 53zM446 490h-86v20h106v-370q0 -54 38 -92t92 -38v-20q-63 1 -107 45t-43 105v350zM300 653q-31 37 -61 37q-46 0 -72 -54l-18 8q5 14 23 34
q30 32 67 32q39 0 77 -44q30 -36 61 -36q46 0 72 54l18 -8q-5 -14 -23 -34q-30 -32 -67 -32q-38 0 -77 43z" />
    <glyph glyph-name="Ydieresis" unicode="&#x178;" 
d="M410 -10h-200v20h90v343l193 337h-83v20h200v-20h-94l-196 -344v-336h90v-20zM10 690v20h200v-20h-83l171 -300l-11 -19l-182 319h-95zM245 822h-20v158h20v-158zM394 822h-20v158h20v-158z" />
    <glyph glyph-name="Zcaron" unicode="&#x17d;" horiz-adv-x="442" 
d="M399 710h23l-369 -700h342v90h20v-110h-395zM46 600h-20v110h350l-10 -20h-320v-90zM407 957l-186 -145l-186 145l12 16l174 -135l174 135z" />
    <glyph glyph-name="zcaron" unicode="&#x17e;" horiz-adv-x="448" 
d="M404 510h24l-340 -500h311v90h20v-110h-369zM79 400h-20v110h320l-13 -20h-287v-90zM410 757l-186 -145l-186 145l12 16l174 -135l174 135z" />
    <glyph glyph-name="florin" unicode="&#x192;" horiz-adv-x="430" 
d="M45 330h90v-510q0 -70 -50 -120q-49 -50 -120 -50q-81 0 -133 64l16 12q44 -56 117 -56q62 0 106 44t44 106v490h-70v20zM115 540q0 71 50 120q50 50 120 50q81 0 133 -64l-16 -12q-46 56 -117 56q-62 0 -106 -44t-44 -106v-190h-20v190zM385 310h-230v20h230v-20z" />
    <glyph glyph-name="Ohorn" unicode="&#x1a0;" horiz-adv-x="507" 
d="M450 165q0 -78 -54 -135q-54 -56 -131 -60v20q69 4 117 54q48 51 48 121v370q0 69 -48 120q-48 50 -117 55v20q77 -5 131 -61q54 -57 54 -134v-370zM60 535q0 77 54 134q53 57 131 61v-20q-70 -4 -117 -55q-48 -51 -48 -120v-370q0 -70 48 -121q47 -50 117 -54v-20
q-78 4 -131 60q-54 56 -54 135v370zM405 657h1q21 -10 44 -1q22 9 31 31t1 44q-9 22 -31 31q-21 10 -44 1l-9 21q32 12 62 -1q31 -13 43 -44q13 -31 -1 -62q-13 -30 -44 -42q-29 -12 -53 -5v27z" />
    <glyph glyph-name="ohorn" unicode="&#x1a1;" horiz-adv-x="470" 
d="M390 340q0 63 -44 109t-106 50v21q71 -4 120 -56q50 -53 50 -124v-190q-4 -69 -53 -118q-49 -48 -117 -52v20q63 5 106 50q44 47 44 110v180zM50 340q0 71 49 124q50 52 121 56v-21q-63 -4 -106 -50q-44 -46 -44 -109v-180q0 -64 44 -110q43 -45 106 -50v-20
q-71 4 -121 56q-49 52 -49 124v180zM371 450h1q21 -10 44 -1q22 9 31 31t1 44q-9 22 -31 31q-21 10 -44 1l-9 21q32 12 62 -1q31 -13 43 -44q13 -31 -1 -62q-13 -30 -44 -42q-29 -12 -53 -5v27z" />
    <glyph glyph-name="Uhorn" unicode="&#x1af;" horiz-adv-x="632" 
d="M600 690h-90v-525q0 -78 -54 -135q-54 -56 -131 -60v20q69 4 117 54q48 51 48 121v525h-90v20h200v-20zM120 690h-90v20h200v-20h-90v-525q0 -70 48 -121q47 -50 117 -54v-20q-78 4 -131 60q-54 56 -54 135v525zM537 715h1q21 -10 44 -1q22 9 31 31t1 44q-9 22 -31 31
q-21 10 -44 1l-9 21q32 12 62 -1q31 -13 43 -44q13 -31 -1 -62q-13 -30 -44 -42q-29 -12 -53 -5v27z" />
    <glyph glyph-name="uhorn" unicode="&#x1b0;" horiz-adv-x="561" 
d="M159 33q-53 53 -53 127v330h-86v20h106v-350q0 -66 47 -113t113 -47q93 0 140 82v-35q-54 -67 -140 -67q-74 0 -127 53zM446 490h-86v20h106v-370q0 -54 38 -92t92 -38v-20q-63 1 -107 45t-43 105v350zM455 512h1q21 -10 44 -1q22 9 31 31t1 44q-9 22 -31 31
q-21 10 -44 1l-9 21q32 12 62 -1q31 -13 43 -44q13 -31 -1 -62q-13 -30 -44 -42q-29 -12 -53 -5v27z" />
    <glyph glyph-name="circumflex" unicode="&#x2c6;" horiz-adv-x="412" 
d="M380 612l-174 135l-174 -135l-12 16l186 145l186 -145z" />
    <glyph glyph-name="caron" unicode="&#x2c7;" horiz-adv-x="412" 
d="M392 757l-186 -145l-186 145l12 16l174 -135l174 135z" />
    <glyph glyph-name="breve" unicode="&#x2d8;" horiz-adv-x="280" 
d="M70 700q0 -29 20 -50q21 -20 50 -20t49 20q21 21 21 50h20q0 -37 -26 -64q-26 -26 -64 -26q-37 0 -64 26q-26 27 -26 64h20z" />
    <glyph glyph-name="dotaccent" unicode="&#x2d9;" horiz-adv-x="280" 
d="M76 636q-26 27 -26 64q0 38 26 64q27 26 64 26q38 0 64 -26t26 -64q0 -37 -26 -64q-26 -26 -64 -26q-37 0 -64 26zM90 749q-20 -20 -20 -49t20 -50q21 -20 50 -20t49 20q21 21 21 50t-21 49q-20 21 -49 21t-50 -21z" />
    <glyph glyph-name="ring" unicode="&#x2da;" horiz-adv-x="280" 
d="M76 636q-26 27 -26 64q0 38 26 64q27 26 64 26q38 0 64 -26t26 -64q0 -37 -26 -64q-26 -26 -64 -26q-37 0 -64 26zM90 749q-20 -20 -20 -49t20 -50q21 -20 50 -20t49 20q21 21 21 50t-21 49q-20 21 -49 21t-50 -21z" />
    <glyph glyph-name="ogonek" unicode="&#x2db;" horiz-adv-x="300" 
d="M79 -161q-29 30 -29 71t29 71q30 29 71 29v-20q-33 0 -56 -23q-24 -24 -24 -57t24 -56q23 -24 56 -24t57 24q23 23 23 56h20q0 -41 -29 -71q-30 -29 -71 -29t-71 29z" />
    <glyph glyph-name="tilde" unicode="&#x2dc;" horiz-adv-x="418" 
d="M201 653q-31 37 -61 37q-46 0 -72 -54l-18 8q5 14 23 34q30 32 67 32q39 0 77 -44q30 -36 61 -36q46 0 72 54l18 -8q-5 -14 -23 -34q-30 -32 -67 -32q-38 0 -77 43z" />
    <glyph glyph-name="hungarumlaut" unicode="&#x2dd;" horiz-adv-x="418" 
d="M67 564l-17 10l137 242l17 -10zM231 564l-17 10l137 242l17 -10z" />
    <glyph glyph-name="uni0394" unicode="&#x394;" horiz-adv-x="556" 
d="M536 -10h-516l258 740zM48 10h460l-230 660z" />
    <glyph glyph-name="uni0394" unicode="&#x2206;" horiz-adv-x="556" 
d="M536 -10h-516l258 740zM48 10h460l-230 660z" />
    <glyph glyph-name="uni03A9" unicode="&#x3a9;" horiz-adv-x="524" 
d="M176 -10h-136v20h82q-54 56 -54 135v370q0 77 54 134q53 57 131 61v-20q-70 -4 -117 -55q-48 -51 -48 -120v-370q0 -85 66 -137zM458 145q0 -78 -53 -134h79v-20h-133l22 18q65 52 65 136v370q0 69 -48 120q-48 50 -117 55v20q77 -5 131 -61q54 -57 54 -134v-370z" />
    <glyph glyph-name="uni03A9" unicode="&#x2126;" horiz-adv-x="524" 
d="M176 -10h-136v20h82q-54 56 -54 135v370q0 77 54 134q53 57 131 61v-20q-70 -4 -117 -55q-48 -51 -48 -120v-370q0 -85 66 -137zM458 145q0 -78 -53 -134h79v-20h-133l22 18q65 52 65 136v370q0 69 -48 120q-48 50 -117 55v20q77 -5 131 -61q54 -57 54 -134v-370z" />
    <glyph glyph-name="pi" unicode="&#x3c0;" horiz-adv-x="590" 
d="M230 10v-20h-200v20h95v460h20v-460h85zM465 470h20v-330q0 -54 38 -92t92 -38v-20q-62 0 -106 44t-44 106v330zM35 510h535v-20h-535v20z" />
    <glyph glyph-name="uni1EA0" unicode="&#x1ea0;" horiz-adv-x="611" 
d="M217 270h225l75 -260h93v-20h-200v20h87l-69 240h-216zM123 10h87v-20h-200v20h92l200 700h15l120 -420h-21l-106 373zM354 -87q19 -19 19 -45q0 -27 -19 -46t-45 -19q-27 0 -46 19t-19 46q0 26 19 45t46 19q26 0 45 -19zM344 -168q15 15 15 36q0 20 -15 35t-35 15
q-21 0 -36 -15t-15 -35q0 -21 15 -36t36 -15q20 0 35 15z" />
    <glyph glyph-name="uni1EA1" unicode="&#x1ea1;" horiz-adv-x="486" 
d="M97 273q-47 -47 -47 -113t47 -113t113 -47q95 0 141 83v-36q-54 -67 -141 -67q-74 0 -127 53t-53 127t53 127t127 53q87 0 141 -69v-35q-45 84 -141 84q-66 0 -113 -47zM370 330q0 66 -47 113q-46 47 -113 47q-73 0 -122 -57l-15 13q53 64 137 64q75 0 128 -53
q52 -53 52 -127v-196q3 -58 46 -93l12 -9q33 -22 72 -22v-20q-56 0 -100 38q-50 41 -50 106v196zM271 -96q19 -19 19 -45q0 -27 -19 -46t-45 -19q-27 0 -46 19t-19 46q0 26 19 45t46 19q26 0 45 -19zM261 -177q15 15 15 36q0 20 -15 35t-35 15q-21 0 -36 -15t-15 -35
q0 -21 15 -36t36 -15q20 0 35 15z" />
    <glyph glyph-name="uni1EA2" unicode="&#x1ea2;" horiz-adv-x="591" 
d="M217 270h225l75 -260h93v-20h-200v20h87l-69 240h-216zM123 10h87v-20h-200v20h92l200 700h15l120 -420h-21l-106 373zM343 937q28 -9 41 -34q13 -26 4 -54q-18 -54 -76 -48l1 -51l-20 1l-1 76l14 -4q20 -6 38 3t25 29q6 20 -3 39q-9 18 -29 24q-20 7 -39 -3
q-18 -9 -24 -29l-19 6q9 28 34 41q26 13 54 4z" />
    <glyph glyph-name="uni1EA3" unicode="&#x1ea3;" horiz-adv-x="490" 
d="M97 273q-47 -47 -47 -113t47 -113t113 -47q95 0 141 83v-36q-54 -67 -141 -67q-74 0 -127 53t-53 127t53 127t127 53q87 0 141 -69v-35q-45 84 -141 84q-66 0 -113 -47zM370 330q0 66 -47 113q-46 47 -113 47q-73 0 -122 -57l-15 13q53 64 137 64q75 0 128 -53
q52 -53 52 -127v-196q3 -58 46 -93l12 -9q33 -22 72 -22v-20q-56 0 -100 38q-50 41 -50 106v196zM261 763q28 -9 41 -34q13 -26 4 -54q-18 -54 -76 -48l1 -51l-20 1l-1 76l14 -4q20 -6 38 3t25 29q6 20 -3 39q-9 18 -29 24q-20 7 -39 -3q-18 -9 -24 -29l-19 6q9 28 34 41
q26 13 54 4z" />
    <glyph glyph-name="uni1EA4" unicode="&#x1ea4;" horiz-adv-x="591" 
d="M217 270h225l75 -260h93v-20h-200v20h87l-69 240h-216zM123 10h87v-20h-200v20h92l200 700h15l120 -420h-21l-106 373zM477 720l-174 135l-174 -135l-12 16l186 145l186 -145zM420 852l-10 18l240 140l10 -18z" />
    <glyph glyph-name="uni1EA5" unicode="&#x1ea5;" horiz-adv-x="503" 
d="M97 273q-47 -47 -47 -113t47 -113t113 -47q95 0 141 83v-36q-54 -67 -141 -67q-74 0 -127 53t-53 127t53 127t127 53q87 0 141 -69v-35q-45 84 -141 84q-66 0 -113 -47zM370 330q0 66 -47 113q-46 47 -113 47q-73 0 -122 -57l-15 13q53 64 137 64q75 0 128 -53
q52 -53 52 -127v-196q3 -58 46 -93l12 -9q33 -22 72 -22v-20q-56 0 -100 38q-50 41 -50 106v196zM408 554l-174 135l-174 -135l-12 16l186 145l186 -145zM296 735l-10 18l240 140l10 -18z" />
    <glyph glyph-name="uni1EA6" unicode="&#x1ea6;" horiz-adv-x="591" 
d="M217 270h225l75 -260h93v-20h-200v20h87l-69 240h-216zM123 10h87v-20h-200v20h92l200 700h15l120 -420h-21l-106 373zM477 720l-174 135l-174 -135l-12 16l186 145l186 -145zM-36 997l10 18l240 -140l-10 -18z" />
    <glyph glyph-name="uni1EA7" unicode="&#x1ea7;" horiz-adv-x="490" 
d="M97 273q-47 -47 -47 -113t47 -113t113 -47q95 0 141 83v-36q-54 -67 -141 -67q-74 0 -127 53t-53 127t53 127t127 53q87 0 141 -69v-35q-45 84 -141 84q-66 0 -113 -47zM370 330q0 66 -47 113q-46 47 -113 47q-73 0 -122 -57l-15 13q53 64 137 64q75 0 128 -53
q52 -53 52 -127v-196q3 -58 46 -93l12 -9q33 -22 72 -22v-20q-56 0 -100 38q-50 41 -50 106v196zM412 550l-174 135l-174 -135l-12 16l186 145l186 -145zM138 875l10 18l240 -140l-10 -18z" />
    <glyph glyph-name="uni1EA8" unicode="&#x1ea8;" horiz-adv-x="591" 
d="M217 270h225l75 -260h93v-20h-200v20h87l-69 240h-216zM123 10h87v-20h-200v20h92l200 700h15l120 -420h-21l-106 373zM477 720l-174 135l-174 -135l-12 16l186 145l186 -145zM468 1004q28 -9 41 -34q13 -26 4 -54q-18 -54 -76 -48l1 -51l-20 1l-1 76l14 -4q20 -6 38 3
t25 29q6 20 -3 39q-9 18 -29 24q-20 7 -39 -3q-18 -9 -24 -29l-19 6q9 28 34 41q26 13 54 4z" />
    <glyph glyph-name="uni1EA9" unicode="&#x1ea9;" horiz-adv-x="499" 
d="M97 273q-47 -47 -47 -113t47 -113t113 -47q95 0 141 83v-36q-54 -67 -141 -67q-74 0 -127 53t-53 127t53 127t127 53q87 0 141 -69v-35q-45 84 -141 84q-66 0 -113 -47zM370 330q0 66 -47 113q-46 47 -113 47q-73 0 -122 -57l-15 13q53 64 137 64q75 0 128 -53
q52 -53 52 -127v-196q3 -58 46 -93l12 -9q33 -22 72 -22v-20q-56 0 -100 38q-50 41 -50 106v196zM411 563l-174 135l-174 -135l-12 16l186 145l186 -145zM272 941q28 -9 41 -34q13 -26 4 -54q-18 -54 -76 -48l1 -51l-20 1l-1 76l14 -4q20 -6 38 3t25 29q6 20 -3 39
q-9 18 -29 24q-20 7 -39 -3q-18 -9 -24 -29l-19 6q9 28 34 41q26 13 54 4z" />
    <glyph glyph-name="uni1EAA" unicode="&#x1eaa;" horiz-adv-x="591" 
d="M217 270h225l75 -260h93v-20h-200v20h87l-69 240h-216zM123 10h87v-20h-200v20h92l200 700h15l120 -420h-21l-106 373zM477 720l-174 135l-174 -135l-12 16l186 145l186 -145zM306 962q-32 37 -61 37q-46 0 -72 -54l-18 8q4 14 23 34q29 32 67 32q39 0 77 -44
q30 -36 61 -36q46 0 72 54l18 -8q-5 -14 -24 -34q-29 -32 -66 -32q-39 0 -77 43z" />
    <glyph glyph-name="uni1EAB" unicode="&#x1eab;" horiz-adv-x="490" 
d="M97 273q-47 -47 -47 -113t47 -113t113 -47q95 0 141 83v-36q-54 -67 -141 -67q-74 0 -127 53t-53 127t53 127t127 53q87 0 141 -69v-35q-45 84 -141 84q-66 0 -113 -47zM370 330q0 66 -47 113q-46 47 -113 47q-73 0 -122 -57l-15 13q53 64 137 64q75 0 128 -53
q52 -53 52 -127v-196q3 -58 46 -93l12 -9q33 -22 72 -22v-20q-56 0 -100 38q-50 41 -50 106v196zM395 563l-174 135l-174 -135l-12 16l186 145l186 -145zM233 820q-31 37 -61 37q-46 0 -72 -54l-18 8q5 14 23 34q30 32 67 32q39 0 77 -44q30 -36 61 -36q46 0 72 54l18 -8
q-5 -14 -23 -34q-30 -32 -67 -32q-38 0 -77 43z" />
    <glyph glyph-name="uni1EAC" unicode="&#x1eac;" horiz-adv-x="591" 
d="M217 270h225l75 -260h93v-20h-200v20h87l-69 240h-216zM123 10h87v-20h-200v20h92l200 700h15l120 -420h-21l-106 373zM477 720l-174 135l-174 -135l-12 16l186 145l186 -145zM358 -87q19 -19 19 -45q0 -27 -19 -46t-45 -19q-27 0 -46 19t-19 46q0 26 19 45t46 19
q26 0 45 -19zM348 -168q15 15 15 36q0 20 -15 35t-35 15q-21 0 -36 -15t-15 -35q0 -21 15 -36t36 -15q20 0 35 15z" />
    <glyph glyph-name="uni1EAD" unicode="&#x1ead;" horiz-adv-x="490" 
d="M97 273q-47 -47 -47 -113t47 -113t113 -47q95 0 141 83v-36q-54 -67 -141 -67q-74 0 -127 53t-53 127t53 127t127 53q87 0 141 -69v-35q-45 84 -141 84q-66 0 -113 -47zM370 330q0 66 -47 113q-46 47 -113 47q-73 0 -122 -57l-15 13q53 64 137 64q75 0 128 -53
q52 -53 52 -127v-196q3 -58 46 -93l12 -9q33 -22 72 -22v-20q-56 0 -100 38q-50 41 -50 106v196zM411 563l-174 135l-174 -135l-12 16l186 145l186 -145zM288 -112q19 -19 19 -45q0 -27 -19 -46t-45 -19q-27 0 -46 19t-19 46q0 26 19 45t46 19q26 0 45 -19zM278 -193
q15 15 15 36q0 20 -15 35t-35 15q-21 0 -36 -15t-15 -35q0 -21 15 -36t36 -15q20 0 35 15z" />
    <glyph glyph-name="uni1EAE" unicode="&#x1eae;" horiz-adv-x="591" 
d="M217 270h225l75 -260h93v-20h-200v20h87l-69 240h-216zM123 10h87v-20h-200v20h92l200 700h15l120 -420h-21l-106 373zM244 855q0 -29 20 -50q21 -20 50 -20t49 20q21 21 21 50h20q0 -37 -26 -64q-26 -26 -64 -26q-37 0 -64 26q-26 27 -26 64h20zM297 853l-10 18l240 140
l10 -18z" />
    <glyph glyph-name="uni1EAF" unicode="&#x1eaf;" horiz-adv-x="490" 
d="M97 273q-47 -47 -47 -113t47 -113t113 -47q95 0 141 83v-36q-54 -67 -141 -67q-74 0 -127 53t-53 127t53 127t127 53q87 0 141 -69v-35q-45 84 -141 84q-66 0 -113 -47zM370 330q0 66 -47 113q-46 47 -113 47q-73 0 -122 -57l-15 13q53 64 137 64q75 0 128 -53
q52 -53 52 -127v-196q3 -58 46 -93l12 -9q33 -22 72 -22v-20q-56 0 -100 38q-50 41 -50 106v196zM164 663q0 -29 20 -50q21 -20 50 -20t49 20q21 21 21 50h20q0 -37 -26 -64q-26 -26 -64 -26q-37 0 -64 26q-26 27 -26 64h20zM240 715l-10 18l240 140l10 -18z" />
    <glyph glyph-name="uni1EB0" unicode="&#x1eb0;" horiz-adv-x="591" 
d="M217 270h225l75 -260h93v-20h-200v20h87l-69 240h-216zM123 10h87v-20h-200v20h92l200 700h15l120 -420h-21l-106 373zM244 855q0 -29 20 -50q21 -20 50 -20t49 20q21 21 21 50h20q0 -37 -26 -64q-26 -26 -64 -26q-37 0 -64 26q-26 27 -26 64h20zM99 988l10 18l240 -140
l-10 -18z" />
    <glyph glyph-name="uni1EB1" unicode="&#x1eb1;" horiz-adv-x="490" 
d="M97 273q-47 -47 -47 -113t47 -113t113 -47q95 0 141 83v-36q-54 -67 -141 -67q-74 0 -127 53t-53 127t53 127t127 53q87 0 141 -69v-35q-45 84 -141 84q-66 0 -113 -47zM370 330q0 66 -47 113q-46 47 -113 47q-73 0 -122 -57l-15 13q53 64 137 64q75 0 128 -53
q52 -53 52 -127v-196q3 -58 46 -93l12 -9q33 -22 72 -22v-20q-56 0 -100 38q-50 41 -50 106v196zM172 662q0 -29 20 -50q21 -20 50 -20t49 20q21 21 21 50h20q0 -37 -26 -64q-26 -26 -64 -26q-37 0 -64 26q-26 27 -26 64h20zM66 859l10 18l240 -140l-10 -18z" />
    <glyph glyph-name="uni1EB2" unicode="&#x1eb2;" horiz-adv-x="591" 
d="M217 270h225l75 -260h93v-20h-200v20h87l-69 240h-216zM123 10h87v-20h-200v20h92l200 700h15l120 -420h-21l-106 373zM244 855q0 -29 20 -50q21 -20 50 -20t49 20q21 21 21 50h20q0 -37 -26 -64q-26 -26 -64 -26q-37 0 -64 26q-26 27 -26 64h20zM345 1023q28 -9 41 -34
q13 -26 4 -54q-18 -54 -76 -48l1 -51l-20 1l-1 76l14 -4q20 -6 38 3t25 29q6 20 -3 39q-9 18 -29 24q-20 7 -39 -3q-18 -9 -24 -29l-19 6q9 28 34 41q26 13 54 4z" />
    <glyph glyph-name="uni1EB3" unicode="&#x1eb3;" horiz-adv-x="494" 
d="M97 273q-47 -47 -47 -113t47 -113t113 -47q95 0 141 83v-36q-54 -67 -141 -67q-74 0 -127 53t-53 127t53 127t127 53q87 0 141 -69v-35q-45 84 -141 84q-66 0 -113 -47zM370 330q0 66 -47 113q-46 47 -113 47q-73 0 -122 -57l-15 13q53 64 137 64q75 0 128 -53
q52 -53 52 -127v-196q3 -58 46 -93l12 -9q33 -22 72 -22v-20q-56 0 -100 38q-50 41 -50 106v196zM160 667q0 -29 20 -50q21 -20 50 -20t49 20q21 21 21 50h20q0 -37 -26 -64q-26 -26 -64 -26q-37 0 -64 26q-26 27 -26 64h20zM272 875q28 -9 41 -34q13 -26 4 -54
q-18 -54 -76 -48l1 -51l-20 1l-1 76l14 -4q20 -6 38 3t25 29q6 20 -3 39q-9 18 -29 24q-20 7 -39 -3q-18 -9 -24 -29l-19 6q9 28 34 41q26 13 54 4z" />
    <glyph glyph-name="uni1EB4" unicode="&#x1eb4;" horiz-adv-x="591" 
d="M217 270h225l75 -260h93v-20h-200v20h87l-69 240h-216zM123 10h87v-20h-200v20h92l200 700h15l120 -420h-21l-106 373zM244 855q0 -29 20 -50q21 -20 50 -20t49 20q21 21 21 50h20q0 -37 -26 -64q-26 -26 -64 -26q-37 0 -64 26q-26 27 -26 64h20zM314 935q-32 37 -61 37
q-46 0 -72 -54l-18 8q4 14 23 34q29 32 67 32q39 0 77 -44q30 -36 61 -36q46 0 72 54l18 -8q-5 -14 -24 -34q-29 -32 -66 -32q-39 0 -77 43z" />
    <glyph glyph-name="uni1EB5" unicode="&#x1eb5;" horiz-adv-x="490" 
d="M97 273q-47 -47 -47 -113t47 -113t113 -47q95 0 141 83v-36q-54 -67 -141 -67q-74 0 -127 53t-53 127t53 127t127 53q87 0 141 -69v-35q-45 84 -141 84q-66 0 -113 -47zM370 330q0 66 -47 113q-46 47 -113 47q-73 0 -122 -57l-15 13q53 64 137 64q75 0 128 -53
q52 -53 52 -127v-196q3 -58 46 -93l12 -9q33 -22 72 -22v-20q-56 0 -100 38q-50 41 -50 106v196zM155 679q0 -29 20 -50q21 -20 50 -20t49 20q21 21 21 50h20q0 -37 -26 -64q-26 -26 -64 -26q-37 0 -64 26q-26 27 -26 64h20zM233 776q-31 37 -61 37q-46 0 -72 -54l-18 8
q5 14 23 34q30 32 67 32q39 0 77 -44q30 -36 61 -36q46 0 72 54l18 -8q-5 -14 -23 -34q-30 -32 -67 -32q-38 0 -77 43z" />
    <glyph glyph-name="uni1EB6" unicode="&#x1eb6;" horiz-adv-x="591" 
d="M217 270h225l75 -260h93v-20h-200v20h87l-69 240h-216zM123 10h87v-20h-200v20h92l200 700h15l120 -420h-21l-106 373zM244 855q0 -29 20 -50q21 -20 50 -20t49 20q21 21 21 50h20q0 -37 -26 -64q-26 -26 -64 -26q-37 0 -64 26q-26 27 -26 64h20zM349 -117q19 -19 19 -45
q0 -27 -19 -46t-45 -19q-27 0 -46 19t-19 46q0 26 19 45t46 19q26 0 45 -19zM339 -198q15 15 15 36q0 20 -15 35t-35 15q-21 0 -36 -15t-15 -35q0 -21 15 -36t36 -15q20 0 35 15z" />
    <glyph glyph-name="uni1EB7" unicode="&#x1eb7;" horiz-adv-x="490" 
d="M97 273q-47 -47 -47 -113t47 -113t113 -47q95 0 141 83v-36q-54 -67 -141 -67q-74 0 -127 53t-53 127t53 127t127 53q87 0 141 -69v-35q-45 84 -141 84q-66 0 -113 -47zM370 330q0 66 -47 113q-46 47 -113 47q-73 0 -122 -57l-15 13q53 64 137 64q75 0 128 -53
q52 -53 52 -127v-196q3 -58 46 -93l12 -9q33 -22 72 -22v-20q-56 0 -100 38q-50 41 -50 106v196zM164 663q0 -29 20 -50q21 -20 50 -20t49 20q21 21 21 50h20q0 -37 -26 -64q-26 -26 -64 -26q-37 0 -64 26q-26 27 -26 64h20zM283 -113q19 -19 19 -45q0 -27 -19 -46t-45 -19
q-27 0 -46 19t-19 46q0 26 19 45t46 19q26 0 45 -19zM273 -194q15 15 15 36q0 20 -15 35t-35 15q-21 0 -36 -15t-15 -35q0 -21 15 -36t36 -15q20 0 35 15z" />
    <glyph glyph-name="uni1EB8" unicode="&#x1eb8;" horiz-adv-x="519" 
d="M390 370v90h20v-200h-20v90h-240v-340h350v90h20v-110h-480v20h90v360h260zM520 600h-20v90h-330v20h350v-110zM130 690h-90v20h110v-320h-20v300zM341 -121q19 -19 19 -45q0 -27 -19 -46t-45 -19q-27 0 -46 19t-19 46q0 26 19 45t46 19q26 0 45 -19zM331 -202
q15 15 15 36q0 20 -15 35t-35 15q-21 0 -36 -15t-15 -35q0 -21 15 -36t36 -15q20 0 35 15z" />
    <glyph glyph-name="uni1EB9" unicode="&#x1eb9;" horiz-adv-x="436" 
d="M119 455q-46 -45 -49 -109v-46h-20v50q4 71 56 120q53 50 124 50q74 0 127 -52q52 -52 53 -125v-83h-360v20h340v63q-1 65 -47 111q-47 46 -113 46q-64 0 -111 -45zM379 78l15 -16q-67 -82 -164 -82q-74 0 -127 53t-53 127v80h20v-80q0 -66 47 -113t113 -47q85 0 149 78z
M274 -113q19 -19 19 -45q0 -27 -19 -46t-45 -19q-27 0 -46 19t-19 46q0 26 19 45t46 19q26 0 45 -19zM264 -194q15 15 15 36q0 20 -15 35t-35 15q-21 0 -36 -15t-15 -35q0 -21 15 -36t36 -15q20 0 35 15z" />
    <glyph glyph-name="uni1EBA" unicode="&#x1eba;" horiz-adv-x="519" 
d="M390 370v90h20v-200h-20v90h-240v-340h350v90h20v-110h-480v20h90v360h260zM520 600h-20v90h-330v20h350v-110zM130 690h-90v20h110v-320h-20v300zM335 942q28 -9 41 -34q13 -26 4 -54q-18 -54 -76 -48l1 -51l-20 1l-1 76l14 -4q20 -6 38 3t25 29q6 20 -3 39
q-9 18 -29 24q-20 7 -39 -3q-18 -9 -24 -29l-19 6q9 28 34 41q26 13 54 4z" />
    <glyph glyph-name="uni1EBB" unicode="&#x1ebb;" horiz-adv-x="428" 
d="M119 455q-46 -45 -49 -109v-46h-20v50q4 71 56 120q53 50 124 50q74 0 127 -52q52 -52 53 -125v-83h-360v20h340v63q-1 65 -47 111q-47 46 -113 46q-64 0 -111 -45zM379 78l15 -16q-67 -82 -164 -82q-74 0 -127 53t-53 127v80h20v-80q0 -66 47 -113t113 -47q85 0 149 78z
M281 755q28 -9 41 -34q13 -26 4 -54q-18 -54 -76 -48l1 -51l-20 1l-1 76l14 -4q20 -6 38 3t25 29q6 20 -3 39q-9 18 -29 24q-20 7 -39 -3q-18 -9 -24 -29l-19 6q9 28 34 41q26 13 54 4z" />
    <glyph glyph-name="uni1EBC" unicode="&#x1ebc;" horiz-adv-x="540" 
d="M390 370v90h20v-200h-20v90h-240v-340h350v90h20v-110h-480v20h90v360h260zM520 600h-20v90h-330v20h350v-110zM130 690h-90v20h110v-320h-20v300zM318 840q-31 37 -61 37q-46 0 -72 -54l-18 8q5 14 23 34q30 32 67 32q39 0 77 -44q30 -36 61 -36q46 0 72 54l18 -8
q-5 -14 -23 -34q-30 -32 -67 -32q-38 0 -77 43z" />
    <glyph glyph-name="uni1EBD" unicode="&#x1ebd;" horiz-adv-x="430" 
d="M119 455q-46 -45 -49 -109v-46h-20v50q4 71 56 120q53 50 124 50q74 0 127 -52q52 -52 53 -125v-83h-360v20h340v63q-1 65 -47 111q-47 46 -113 46q-64 0 -111 -45zM379 78l15 -16q-67 -82 -164 -82q-74 0 -127 53t-53 127v80h20v-80q0 -66 47 -113t113 -47q85 0 149 78z
M234 649q-31 37 -61 37q-46 0 -72 -54l-18 8q5 14 23 34q30 32 67 32q39 0 77 -44q30 -36 61 -36q46 0 72 54l18 -8q-5 -14 -23 -34q-30 -32 -67 -32q-38 0 -77 43z" />
    <glyph glyph-name="uni1EBE" unicode="&#x1ebe;" horiz-adv-x="519" 
d="M390 370v90h20v-200h-20v90h-240v-340h350v90h20v-110h-480v20h90v360h260zM520 600h-20v90h-330v20h350v-110zM130 690h-90v20h110v-320h-20v300zM479 778l-174 135l-174 -135l-12 16l186 145l186 -145zM432 872l-10 18l240 140l10 -18z" />
    <glyph glyph-name="uni1EBF" unicode="&#x1ebf;" horiz-adv-x="430" 
d="M119 455q-46 -45 -49 -109v-46h-20v50q4 71 56 120q53 50 124 50q74 0 127 -52q52 -52 53 -125v-83h-360v20h340v63q-1 65 -47 111q-47 46 -113 46q-64 0 -111 -45zM379 78l15 -16q-67 -82 -164 -82q-74 0 -127 53t-53 127v80h20v-80q0 -66 47 -113t113 -47q85 0 149 78z
M417 563l-174 135l-174 -135l-12 16l186 145l186 -145zM313 747l-10 18l240 140l10 -18z" />
    <glyph glyph-name="uni1EC0" unicode="&#x1ec0;" horiz-adv-x="519" 
d="M-59 1036l10 18l240 -140l-10 -18zM390 370v90h20v-200h-20v90h-240v-340h350v90h20v-110h-480v20h90v360h260zM520 600h-20v90h-330v20h350v-110zM130 690h-90v20h110v-320h-20v300zM479 778l-174 135l-174 -135l-12 16l186 145l186 -145z" />
    <glyph glyph-name="uni1EC1" unicode="&#x1ec1;" horiz-adv-x="430" 
d="M119 455q-46 -45 -49 -109v-46h-20v50q4 71 56 120q53 50 124 50q74 0 127 -52q52 -52 53 -125v-83h-360v20h340v63q-1 65 -47 111q-47 46 -113 46q-64 0 -111 -45zM379 78l15 -16q-67 -82 -164 -82q-74 0 -127 53t-53 127v80h20v-80q0 -66 47 -113t113 -47q85 0 149 78z
M408 558l-174 135l-174 -135l-12 16l186 145l186 -145zM109 878l10 18l240 -140l-10 -18z" />
    <glyph glyph-name="uni1EC2" unicode="&#x1ec2;" horiz-adv-x="519" 
d="M390 370v90h20v-200h-20v90h-240v-340h350v90h20v-110h-480v20h90v360h260zM520 600h-20v90h-330v20h350v-110zM130 690h-90v20h110v-320h-20v300zM479 778l-174 135l-174 -135l-12 16l186 145l186 -145zM476 1062q28 -9 41 -34q13 -26 4 -54q-18 -54 -76 -48l1 -51
l-20 1l-1 76l14 -4q20 -6 38 3t25 29q6 20 -3 39q-9 18 -29 24q-20 7 -39 -3q-18 -9 -24 -29l-19 6q9 28 34 41q26 13 54 4z" />
    <glyph glyph-name="uni1EC3" unicode="&#x1ec3;" horiz-adv-x="424" 
d="M119 455q-46 -45 -49 -109v-46h-20v50q4 71 56 120q53 50 124 50q74 0 127 -52q52 -52 53 -125v-83h-360v20h340v63q-1 65 -47 111q-47 46 -113 46q-64 0 -111 -45zM379 78l15 -16q-67 -82 -164 -82q-74 0 -127 53t-53 127v80h20v-80q0 -66 47 -113t113 -47q85 0 149 78z
M416 566l-174 135l-174 -135l-12 16l186 145l186 -145zM281 950q28 -9 41 -34q13 -26 4 -54q-18 -54 -76 -48l1 -51l-20 1l-1 76l14 -4q20 -6 38 3t25 29q6 20 -3 39q-9 18 -29 24q-20 7 -39 -3q-18 -9 -24 -29l-19 6q9 28 34 41q26 13 54 4z" />
    <glyph glyph-name="uni1EC4" unicode="&#x1ec4;" horiz-adv-x="519" 
d="M390 370v90h20v-200h-20v90h-240v-340h350v90h20v-110h-480v20h90v360h260zM520 600h-20v90h-330v20h350v-110zM130 690h-90v20h110v-320h-20v300zM479 778l-174 135l-174 -135l-12 16l186 145l186 -145zM323 994q-32 37 -61 37q-46 0 -72 -54l-18 8q4 14 23 34
q29 32 67 32q39 0 77 -44q30 -36 61 -36q46 0 72 54l18 -8q-5 -14 -24 -34q-29 -32 -66 -32q-39 0 -77 43z" />
    <glyph glyph-name="uni1EC5" unicode="&#x1ec5;" horiz-adv-x="430" 
d="M119 455q-46 -45 -49 -109v-46h-20v50q4 71 56 120q53 50 124 50q74 0 127 -52q52 -52 53 -125v-83h-360v20h340v63q-1 65 -47 111q-47 46 -113 46q-64 0 -111 -45zM379 78l15 -16q-67 -82 -164 -82q-74 0 -127 53t-53 127v80h20v-80q0 -66 47 -113t113 -47q85 0 149 78z
M412 558l-174 135l-174 -135l-12 16l186 145l186 -145zM239 816q-31 37 -61 37q-46 0 -72 -54l-18 8q5 14 23 34q30 32 67 32q39 0 77 -44q30 -36 61 -36q46 0 72 54l18 -8q-5 -14 -23 -34q-30 -32 -67 -32q-38 0 -77 43z" />
    <glyph glyph-name="uni1EC6" unicode="&#x1ec6;" horiz-adv-x="519" 
d="M390 370v90h20v-200h-20v90h-240v-340h350v90h20v-110h-480v20h90v360h260zM520 600h-20v90h-330v20h350v-110zM130 690h-90v20h110v-320h-20v300zM479 778l-174 135l-174 -135l-12 16l186 145l186 -145zM357 -113q19 -19 19 -45q0 -27 -19 -46t-45 -19q-27 0 -46 19
t-19 46q0 26 19 45t46 19q26 0 45 -19zM347 -194q15 15 15 36q0 20 -15 35t-35 15q-21 0 -36 -15t-15 -35q0 -21 15 -36t36 -15q20 0 35 15z" />
    <glyph glyph-name="uni1EC7" unicode="&#x1ec7;" horiz-adv-x="428" 
d="M119 455q-46 -45 -49 -109v-46h-20v50q4 71 56 120q53 50 124 50q74 0 127 -52q52 -52 53 -125v-83h-360v20h340v63q-1 65 -47 111q-47 46 -113 46q-64 0 -111 -45zM379 78l15 -16q-67 -82 -164 -82q-74 0 -127 53t-53 127v80h20v-80q0 -66 47 -113t113 -47q85 0 149 78z
M416 566l-174 135l-174 -135l-12 16l186 145l186 -145zM282 -117q19 -19 19 -45q0 -27 -19 -46t-45 -19q-27 0 -46 19t-19 46q0 26 19 45t46 19q26 0 45 -19zM272 -198q15 15 15 36q0 20 -15 35t-35 15q-21 0 -36 -15t-15 -35q0 -21 15 -36t36 -15q20 0 35 15z" />
    <glyph glyph-name="uni1EC8" unicode="&#x1ec8;" horiz-adv-x="266" 
d="M240 10v-20h-200v20h90v659h20v-659h90zM240 690h-200v20h200v-20zM177 946q28 -9 41 -34q13 -26 4 -54q-18 -54 -76 -48l1 -51l-20 1l-1 76l14 -4q20 -6 38 3t25 29q6 20 -3 39q-9 18 -29 24q-20 7 -39 -3q-18 -9 -24 -29l-19 6q9 28 34 41q26 13 54 4z" />
    <glyph glyph-name="uni1EC9" unicode="&#x1ec9;" horiz-adv-x="276" 
d="M230 10v-20h-200v20h90v460h20v-460h90zM230 490h-200v20h200v-20zM161 767q28 -9 41 -34q13 -26 4 -54q-18 -54 -76 -48l1 -51l-20 1l-1 76l14 -4q20 -6 38 3t25 29q6 20 -3 39q-9 18 -29 24q-20 7 -39 -3q-18 -9 -24 -29l-19 6q9 28 34 41q26 13 54 4z" />
    <glyph glyph-name="uni1ECA" unicode="&#x1eca;" horiz-adv-x="266" 
d="M240 10v-20h-200v20h90v659h20v-659h90zM240 690h-200v20h200v-20zM191 -113q19 -19 19 -45q0 -27 -19 -46t-45 -19q-27 0 -46 19t-19 46q0 26 19 45t46 19q26 0 45 -19zM181 -194q15 15 15 36q0 20 -15 35t-35 15q-21 0 -36 -15t-15 -35q0 -21 15 -36t36 -15q20 0 35 15
z" />
    <glyph glyph-name="uni1ECB" unicode="&#x1ecb;" horiz-adv-x="276" 
d="M230 10v-20h-200v20h90v460h20v-460h90zM230 490h-200v20h200v-20zM187 -117q19 -19 19 -45q0 -27 -19 -46t-45 -19q-27 0 -46 19t-19 46q0 26 19 45t46 19q26 0 45 -19zM177 -198q15 15 15 36q0 20 -15 35t-35 15q-21 0 -36 -15t-15 -35q0 -21 15 -36t36 -15q20 0 35 15
z" />
    <glyph glyph-name="uni1ECC" unicode="&#x1ecc;" horiz-adv-x="511" 
d="M450 165q0 -78 -54 -135q-54 -56 -131 -60v20q69 4 117 54q48 51 48 121v370q0 69 -48 120q-48 50 -117 55v20q77 -5 131 -61q54 -57 54 -134v-370zM60 535q0 77 54 134q53 57 131 61v-20q-70 -4 -117 -55q-48 -51 -48 -120v-370q0 -70 48 -121q47 -50 117 -54v-20
q-78 4 -131 60q-54 56 -54 135v370zM291 -130q19 -19 19 -45q0 -27 -19 -46t-45 -19q-27 0 -46 19t-19 46q0 26 19 45t46 19q26 0 45 -19zM281 -211q15 15 15 36q0 20 -15 35t-35 15q-21 0 -36 -15t-15 -35q0 -21 15 -36t36 -15q20 0 35 15z" />
    <glyph glyph-name="uni1ECD" unicode="&#x1ecd;" horiz-adv-x="470" 
d="M390 340q0 63 -44 109t-106 50v21q71 -4 120 -56q50 -53 50 -124v-190q-4 -69 -53 -118q-49 -48 -117 -52v20q63 5 106 50q44 47 44 110v180zM50 340q0 71 49 124q50 52 121 56v-21q-63 -4 -106 -50q-44 -46 -44 -109v-180q0 -64 44 -110q43 -45 106 -50v-20
q-71 4 -121 56q-49 52 -49 124v180zM274 -113q19 -19 19 -45q0 -27 -19 -46t-45 -19q-27 0 -46 19t-19 46q0 26 19 45t46 19q26 0 45 -19zM264 -194q15 15 15 36q0 20 -15 35t-35 15q-21 0 -36 -15t-15 -35q0 -21 15 -36t36 -15q20 0 35 15z" />
    <glyph glyph-name="uni1ECE" unicode="&#x1ece;" horiz-adv-x="515" 
d="M450 165q0 -78 -54 -135q-54 -56 -131 -60v20q69 4 117 54q48 51 48 121v370q0 69 -48 120q-48 50 -117 55v20q77 -5 131 -61q54 -57 54 -134v-370zM60 535q0 77 54 134q53 57 131 61v-20q-70 -4 -117 -55q-48 -51 -48 -120v-370q0 -70 48 -121q47 -50 117 -54v-20
q-78 4 -131 60q-54 56 -54 135v370zM281 950q28 -9 41 -34q13 -26 4 -54q-18 -54 -76 -48l1 -51l-20 1l-1 76l14 -4q20 -6 38 3t25 29q6 20 -3 39q-9 18 -29 24q-20 7 -39 -3q-18 -9 -24 -29l-19 6q9 28 34 41q26 13 54 4z" />
    <glyph glyph-name="uni1ECF" unicode="&#x1ecf;" horiz-adv-x="470" 
d="M390 340q0 63 -44 109t-106 50v21q71 -4 120 -56q50 -53 50 -124v-190q-4 -69 -53 -118q-49 -48 -117 -52v20q63 5 106 50q44 47 44 110v180zM50 340q0 71 49 124q50 52 121 56v-21q-63 -4 -106 -50q-44 -46 -44 -109v-180q0 -64 44 -110q43 -45 106 -50v-20
q-71 4 -121 56q-49 52 -49 124v180zM264 775q28 -9 41 -34q13 -26 4 -54q-18 -54 -76 -48l1 -51l-20 1l-1 76l14 -4q20 -6 38 3t25 29q6 20 -3 39q-9 18 -29 24q-20 7 -39 -3q-18 -9 -24 -29l-19 6q9 28 34 41q26 13 54 4z" />
    <glyph glyph-name="uni1ED0" unicode="&#x1ed0;" horiz-adv-x="511" 
d="M450 165q0 -78 -54 -135q-54 -56 -131 -60v20q69 4 117 54q48 51 48 121v370q0 69 -48 120q-48 50 -117 55v20q77 -5 131 -61q54 -57 54 -134v-370zM60 535q0 77 54 134q53 57 131 61v-20q-70 -4 -117 -55q-48 -51 -48 -120v-370q0 -70 48 -121q47 -50 117 -54v-20
q-78 4 -131 60q-54 56 -54 135v370zM425 776l-174 135l-174 -135l-12 16l186 145l186 -145zM386 880l-10 18l240 140l10 -18z" />
    <glyph glyph-name="uni1ED1" unicode="&#x1ed1;" horiz-adv-x="460" 
d="M390 340q0 63 -44 109t-106 50v21q71 -4 120 -56q50 -53 50 -124v-190q-4 -69 -53 -118q-49 -48 -117 -52v20q63 5 106 50q44 47 44 110v180zM50 340q0 71 49 124q50 52 121 56v-21q-63 -4 -106 -50q-44 -46 -44 -109v-180q0 -64 44 -110q43 -45 106 -50v-20
q-71 4 -121 56q-49 52 -49 124v180zM404 554l-174 135l-174 -135l-12 16l186 145l186 -145zM243 767l-10 18l240 140l10 -18z" />
    <glyph glyph-name="uni1ED2" unicode="&#x1ed2;" horiz-adv-x="511" 
d="M450 165q0 -78 -54 -135q-54 -56 -131 -60v20q69 4 117 54q48 51 48 121v370q0 69 -48 120q-48 50 -117 55v20q77 -5 131 -61q54 -57 54 -134v-370zM60 535q0 77 54 134q53 57 131 61v-20q-70 -4 -117 -55q-48 -51 -48 -120v-370q0 -70 48 -121q47 -50 117 -54v-20
q-78 4 -131 60q-54 56 -54 135v370zM438 761l-174 135l-174 -135l-12 16l186 145l186 -145zM-106 1007l10 18l240 -140l-10 -18z" />
    <glyph glyph-name="uni1ED3" unicode="&#x1ed3;" horiz-adv-x="460" 
d="M390 340q0 63 -44 109t-106 50v21q71 -4 120 -56q50 -53 50 -124v-190q-4 -69 -53 -118q-49 -48 -117 -52v20q63 5 106 50q44 47 44 110v180zM50 340q0 71 49 124q50 52 121 56v-21q-63 -4 -106 -50q-44 -46 -44 -109v-180q0 -64 44 -110q43 -45 106 -50v-20
q-71 4 -121 56q-49 52 -49 124v180zM396 558l-174 135l-174 -135l-12 16l186 145l186 -145zM101 891l10 18l240 -140l-10 -18z" />
    <glyph glyph-name="uni1ED4" unicode="&#x1ed4;" horiz-adv-x="511" 
d="M450 165q0 -78 -54 -135q-54 -56 -131 -60v20q69 4 117 54q48 51 48 121v370q0 69 -48 120q-48 50 -117 55v20q77 -5 131 -61q54 -57 54 -134v-370zM60 535q0 77 54 134q53 57 131 61v-20q-70 -4 -117 -55q-48 -51 -48 -120v-370q0 -70 48 -121q47 -50 117 -54v-20
q-78 4 -131 60q-54 56 -54 135v370zM429 761l-174 135l-174 -135l-12 16l186 145l186 -145zM430 1050q28 -9 41 -34q13 -26 4 -54q-18 -54 -76 -48l1 -51l-20 1l-1 76l14 -4q20 -6 38 3t25 29q6 20 -3 39q-9 18 -29 24q-20 7 -39 -3q-18 -9 -24 -29l-19 6q9 28 34 41
q26 13 54 4z" />
    <glyph glyph-name="uni1ED5" unicode="&#x1ed5;" horiz-adv-x="470" 
d="M390 340q0 63 -44 109t-106 50v21q71 -4 120 -56q50 -53 50 -124v-190q-4 -69 -53 -118q-49 -48 -117 -52v20q63 5 106 50q44 47 44 110v180zM50 340q0 71 49 124q50 52 121 56v-21q-63 -4 -106 -50q-44 -46 -44 -109v-180q0 -64 44 -110q43 -45 106 -50v-20
q-71 4 -121 56q-49 52 -49 124v180zM412 570l-174 135l-174 -135l-12 16l186 145l186 -145zM272 942q28 -9 41 -34q13 -26 4 -54q-18 -54 -76 -48l1 -51l-20 1l-1 76l14 -4q20 -6 38 3t25 29q6 20 -3 39q-9 18 -29 24q-20 7 -39 -3q-18 -9 -24 -29l-19 6q9 28 34 41
q26 13 54 4z" />
    <glyph glyph-name="uni1ED6" unicode="&#x1ed6;" horiz-adv-x="514" 
d="M450 165q0 -78 -54 -135q-54 -56 -131 -60v20q69 4 117 54q48 51 48 121v370q0 69 -48 120q-48 50 -117 55v20q77 -5 131 -61q54 -57 54 -134v-370zM60 535q0 77 54 134q53 57 131 61v-20q-70 -4 -117 -55q-48 -51 -48 -120v-370q0 -70 48 -121q47 -50 117 -54v-20
q-78 4 -131 60q-54 56 -54 135v370zM433 753l-174 135l-174 -135l-12 16l186 145l186 -145zM260 972q-32 37 -61 37q-46 0 -72 -54l-18 8q4 14 23 34q29 32 67 32q39 0 77 -44q30 -36 61 -36q46 0 72 54l18 -8q-5 -14 -24 -34q-29 -32 -66 -32q-39 0 -77 43z" />
    <glyph glyph-name="uni1ED7" unicode="&#x1ed7;" horiz-adv-x="460" 
d="M390 340q0 63 -44 109t-106 50v21q71 -4 120 -56q50 -53 50 -124v-190q-4 -69 -53 -118q-49 -48 -117 -52v20q63 5 106 50q44 47 44 110v180zM50 340q0 71 49 124q50 52 121 56v-21q-63 -4 -106 -50q-44 -46 -44 -109v-180q0 -64 44 -110q43 -45 106 -50v-20
q-71 4 -121 56q-49 52 -49 124v180zM408 563l-174 135l-174 -135l-12 16l186 145l186 -145zM226 816q-31 37 -61 37q-46 0 -72 -54l-18 8q5 14 23 34q30 32 67 32q39 0 77 -44q30 -36 61 -36q46 0 72 54l18 -8q-5 -14 -23 -34q-30 -32 -67 -32q-38 0 -77 43z" />
    <glyph glyph-name="uni1ED8" unicode="&#x1ed8;" horiz-adv-x="511" 
d="M450 165q0 -78 -54 -135q-54 -56 -131 -60v20q69 4 117 54q48 51 48 121v370q0 69 -48 120q-48 50 -117 55v20q77 -5 131 -61q54 -57 54 -134v-370zM60 535q0 77 54 134q53 57 131 61v-20q-70 -4 -117 -55q-48 -51 -48 -120v-370q0 -70 48 -121q47 -50 117 -54v-20
q-78 4 -131 60q-54 56 -54 135v370zM433 753l-174 135l-174 -135l-12 16l186 145l186 -145zM304 -113q19 -19 19 -45q0 -27 -19 -46t-45 -19q-27 0 -46 19t-19 46q0 26 19 45t46 19q26 0 45 -19zM294 -194q15 15 15 36q0 20 -15 35t-35 15q-21 0 -36 -15t-15 -35
q0 -21 15 -36t36 -15q20 0 35 15z" />
    <glyph glyph-name="uni1ED9" unicode="&#x1ed9;" horiz-adv-x="470" 
d="M390 340q0 63 -44 109t-106 50v21q71 -4 120 -56q50 -53 50 -124v-190q-4 -69 -53 -118q-49 -48 -117 -52v20q63 5 106 50q44 47 44 110v180zM50 340q0 71 49 124q50 52 121 56v-21q-63 -4 -106 -50q-44 -46 -44 -109v-180q0 -64 44 -110q43 -45 106 -50v-20
q-71 4 -121 56q-49 52 -49 124v180zM412 570l-174 135l-174 -135l-12 16l186 145l186 -145zM271 -113q19 -19 19 -45q0 -27 -19 -46t-45 -19q-27 0 -46 19t-19 46q0 26 19 45t46 19q26 0 45 -19zM261 -194q15 15 15 36q0 20 -15 35t-35 15q-21 0 -36 -15t-15 -35
q0 -21 15 -36t36 -15q20 0 35 15z" />
    <glyph glyph-name="uni1EDA" unicode="&#x1eda;" horiz-adv-x="512" 
d="M205 794l-10 18l240 140l10 -18zM450 165q0 -78 -54 -135q-54 -56 -131 -60v20q69 4 117 54q48 51 48 121v370q0 69 -48 120q-48 50 -117 55v20q77 -5 131 -61q54 -57 54 -134v-370zM60 535q0 77 54 134q53 57 131 61v-20q-70 -4 -117 -55q-48 -51 -48 -120v-370
q0 -70 48 -121q47 -50 117 -54v-20q-78 4 -131 60q-54 56 -54 135v370zM405 657h1q21 -10 44 -1q22 9 31 31t1 44q-9 22 -31 31q-21 10 -44 1l-9 21q32 12 62 -1q31 -13 43 -44q13 -31 -1 -62q-13 -30 -44 -42q-29 -12 -53 -5v27z" />
    <glyph glyph-name="uni1EDB" unicode="&#x1edb;" horiz-adv-x="457" 
d="M183 591l-10 18l240 140l10 -18zM390 340q0 63 -44 109t-106 50v21q71 -4 120 -56q50 -53 50 -124v-190q-4 -69 -53 -118q-49 -48 -117 -52v20q63 5 106 50q44 47 44 110v180zM50 340q0 71 49 124q50 52 121 56v-21q-63 -4 -106 -50q-44 -46 -44 -109v-180q0 -64 44 -110
q43 -45 106 -50v-20q-71 4 -121 56q-49 52 -49 124v180zM371 450h1q21 -10 44 -1q22 9 31 31t1 44q-9 22 -31 31q-21 10 -44 1l-9 21q32 12 62 -1q31 -13 43 -44q13 -31 -1 -62q-13 -30 -44 -42q-29 -12 -53 -5v27z" />
    <glyph glyph-name="uni1EDC" unicode="&#x1edc;" horiz-adv-x="519" 
d="M108 951l10 18l240 -140l-10 -18zM450 165q0 -78 -54 -135q-54 -56 -131 -60v20q69 4 117 54q48 51 48 121v370q0 69 -48 120q-48 50 -117 55v20q77 -5 131 -61q54 -57 54 -134v-370zM60 535q0 77 54 134q53 57 131 61v-20q-70 -4 -117 -55q-48 -51 -48 -120v-370
q0 -70 48 -121q47 -50 117 -54v-20q-78 4 -131 60q-54 56 -54 135v370zM405 657h1q21 -10 44 -1q22 9 31 31t1 44q-9 22 -31 31q-21 10 -44 1l-9 21q32 12 62 -1q31 -13 43 -44q13 -31 -1 -62q-13 -30 -44 -42q-29 -12 -53 -5v27z" />
    <glyph glyph-name="uni1EDD" unicode="&#x1edd;" horiz-adv-x="453" 
d="M79 743l10 18l240 -140l-10 -18zM390 340q0 63 -44 109t-106 50v21q71 -4 120 -56q50 -53 50 -124v-190q-4 -69 -53 -118q-49 -48 -117 -52v20q63 5 106 50q44 47 44 110v180zM50 340q0 71 49 124q50 52 121 56v-21q-63 -4 -106 -50q-44 -46 -44 -109v-180q0 -64 44 -110
q43 -45 106 -50v-20q-71 4 -121 56q-49 52 -49 124v180zM371 450h1q21 -10 44 -1q22 9 31 31t1 44q-9 22 -31 31q-21 10 -44 1l-9 21q32 12 62 -1q31 -13 43 -44q13 -31 -1 -62q-13 -30 -44 -42q-29 -12 -53 -5v27z" />
    <glyph glyph-name="uni1EDE" unicode="&#x1ede;" horiz-adv-x="511" 
d="M450 165q0 -78 -54 -135q-54 -56 -131 -60v20q69 4 117 54q48 51 48 121v370q0 69 -48 120q-48 50 -117 55v20q77 -5 131 -61q54 -57 54 -134v-370zM60 535q0 77 54 134q53 57 131 61v-20q-70 -4 -117 -55q-48 -51 -48 -120v-370q0 -70 48 -121q47 -50 117 -54v-20
q-78 4 -131 60q-54 56 -54 135v370zM405 657h1q21 -10 44 -1q22 9 31 31t1 44q-9 22 -31 31q-21 10 -44 1l-9 21q32 12 62 -1q31 -13 43 -44q13 -31 -1 -62q-13 -30 -44 -42q-29 -12 -53 -5v27zM302 954q28 -9 41 -34q13 -26 4 -54q-18 -54 -76 -48l1 -51l-20 1l-1 76l14 -4
q20 -6 38 3t25 29q6 20 -3 39q-9 18 -29 24q-20 7 -39 -3q-18 -9 -24 -29l-19 6q9 28 34 41q26 13 54 4z" />
    <glyph glyph-name="uni1EDF" unicode="&#x1edf;" horiz-adv-x="453" 
d="M390 340q0 63 -44 109t-106 50v21q71 -4 120 -56q50 -53 50 -124v-190q-4 -69 -53 -118q-49 -48 -117 -52v20q63 5 106 50q44 47 44 110v180zM50 340q0 71 49 124q50 52 121 56v-21q-63 -4 -106 -50q-44 -46 -44 -109v-180q0 -64 44 -110q43 -45 106 -50v-20
q-71 4 -121 56q-49 52 -49 124v180zM371 450h1q21 -10 44 -1q22 9 31 31t1 44q-9 22 -31 31q-21 10 -44 1l-9 21q32 12 62 -1q31 -13 43 -44q13 -31 -1 -62q-13 -30 -44 -42q-29 -12 -53 -5v27zM269 788q28 -9 41 -34q13 -26 4 -54q-18 -54 -76 -48l1 -51l-20 1l-1 76l14 -4
q20 -6 38 3t25 29q6 20 -3 39q-9 18 -29 24q-20 7 -39 -3q-18 -9 -24 -29l-19 6q9 28 34 41q26 13 54 4z" />
    <glyph glyph-name="uni1EE0" unicode="&#x1ee0;" horiz-adv-x="515" 
d="M279 858q-32 37 -61 37q-46 0 -72 -54l-18 8q4 14 23 34q29 32 67 32q39 0 77 -44q30 -36 61 -36q46 0 72 54l18 -8q-5 -14 -24 -34q-29 -32 -66 -32q-39 0 -77 43zM450 165q0 -78 -54 -135q-54 -56 -131 -60v20q69 4 117 54q48 51 48 121v370q0 69 -48 120
q-48 50 -117 55v20q77 -5 131 -61q54 -57 54 -134v-370zM60 535q0 77 54 134q53 57 131 61v-20q-70 -4 -117 -55q-48 -51 -48 -120v-370q0 -70 48 -121q47 -50 117 -54v-20q-78 4 -131 60q-54 56 -54 135v370zM405 657h1q21 -10 44 -1q22 9 31 31t1 44q-9 22 -31 31
q-21 10 -44 1l-9 21q32 12 62 -1q31 -13 43 -44q13 -31 -1 -62q-13 -30 -44 -42q-29 -12 -53 -5v27z" />
    <glyph glyph-name="uni1EE1" unicode="&#x1ee1;" horiz-adv-x="440" 
d="M236 653q-31 37 -61 37q-46 0 -72 -54l-18 8q5 14 24 34q29 32 66 32q40 0 77 -44q31 -36 61 -36q46 0 72 54l18 -8q-4 -14 -23 -34q-30 -32 -67 -32q-38 0 -77 43zM390 340q0 63 -44 109t-106 50v21q71 -4 120 -56q50 -53 50 -124v-190q-4 -69 -53 -118
q-49 -48 -117 -52v20q63 5 106 50q44 47 44 110v180zM50 340q0 71 49 124q50 52 121 56v-21q-63 -4 -106 -50q-44 -46 -44 -109v-180q0 -64 44 -110q43 -45 106 -50v-20q-71 4 -121 56q-49 52 -49 124v180zM371 450h1q21 -10 44 -1q22 9 31 31t1 44q-9 22 -31 31
q-21 10 -44 1l-9 21q32 12 62 -1q31 -13 43 -44q13 -31 -1 -62q-13 -30 -44 -42q-29 -12 -53 -5v27z" />
    <glyph glyph-name="uni1EE2" unicode="&#x1ee2;" horiz-adv-x="519" 
d="M450 165q0 -78 -54 -135q-54 -56 -131 -60v20q69 4 117 54q48 51 48 121v370q0 69 -48 120q-48 50 -117 55v20q77 -5 131 -61q54 -57 54 -134v-370zM60 535q0 77 54 134q53 57 131 61v-20q-70 -4 -117 -55q-48 -51 -48 -120v-370q0 -70 48 -121q47 -50 117 -54v-20
q-78 4 -131 60q-54 56 -54 135v370zM405 657h1q21 -10 44 -1q22 9 31 31t1 44q-9 22 -31 31q-21 10 -44 1l-9 21q32 12 62 -1q31 -13 43 -44q13 -31 -1 -62q-13 -30 -44 -42q-29 -12 -53 -5v27zM295 -121q19 -19 19 -45q0 -27 -19 -46t-45 -19q-27 0 -46 19t-19 46
q0 26 19 45t46 19q26 0 45 -19zM285 -202q15 15 15 36q0 20 -15 35t-35 15q-21 0 -36 -15t-15 -35q0 -21 15 -36t36 -15q20 0 35 15z" />
    <glyph glyph-name="uni1EE3" unicode="&#x1ee3;" horiz-adv-x="453" 
d="M390 340q0 63 -44 109t-106 50v21q71 -4 120 -56q50 -53 50 -124v-190q-4 -69 -53 -118q-49 -48 -117 -52v20q63 5 106 50q44 47 44 110v180zM50 340q0 71 49 124q50 52 121 56v-21q-63 -4 -106 -50q-44 -46 -44 -109v-180q0 -64 44 -110q43 -45 106 -50v-20
q-71 4 -121 56q-49 52 -49 124v180zM371 450h1q21 -10 44 -1q22 9 31 31t1 44q-9 22 -31 31q-21 10 -44 1l-9 21q32 12 62 -1q31 -13 43 -44q13 -31 -1 -62q-13 -30 -44 -42q-29 -12 -53 -5v27zM266 -117q19 -19 19 -45q0 -27 -19 -46t-45 -19q-27 0 -46 19t-19 46
q0 26 19 45t46 19q26 0 45 -19zM256 -198q15 15 15 36q0 20 -15 35t-35 15q-21 0 -36 -15t-15 -35q0 -21 15 -36t36 -15q20 0 35 15z" />
    <glyph glyph-name="uni1EE4" unicode="&#x1ee4;" horiz-adv-x="615" 
d="M366 -121q19 -19 19 -45q0 -27 -19 -46t-45 -19q-27 0 -46 19t-19 46q0 26 19 45t46 19q26 0 45 -19zM356 -202q15 15 15 36q0 20 -15 35t-35 15q-21 0 -36 -15t-15 -35q0 -21 15 -36t36 -15q20 0 35 15zM600 690h-90v-525q0 -78 -54 -135q-54 -56 -131 -60v20
q69 4 117 54q48 51 48 121v525h-90v20h200v-20zM120 690h-90v20h200v-20h-90v-525q0 -70 48 -121q47 -50 117 -54v-20q-78 4 -131 60q-54 56 -54 135v525z" />
    <glyph glyph-name="uni1EE5" unicode="&#x1ee5;" horiz-adv-x="565" 
d="M159 33q-53 53 -53 127v330h-86v20h106v-350q0 -66 47 -113t113 -47q93 0 140 82v-35q-54 -67 -140 -67q-74 0 -127 53zM446 490h-86v20h106v-370q0 -54 38 -92t92 -38v-20q-63 1 -107 45t-43 105v350zM345 -117q19 -19 19 -45q0 -27 -19 -46t-45 -19q-27 0 -46 19
t-19 46q0 26 19 45t46 19q26 0 45 -19zM335 -198q15 15 15 36q0 20 -15 35t-35 15q-21 0 -36 -15t-15 -35q0 -21 15 -36t36 -15q20 0 35 15z" />
    <glyph glyph-name="uni1EE6" unicode="&#x1ee6;" horiz-adv-x="619" 
d="M600 690h-90v-525q0 -78 -54 -135q-54 -56 -131 -60v20q69 4 117 54q48 51 48 121v525h-90v20h200v-20zM120 690h-90v20h200v-20h-90v-525q0 -70 48 -121q47 -50 117 -54v-20q-78 4 -131 60q-54 56 -54 135v525zM343 942q28 -9 41 -34q13 -26 4 -54q-18 -54 -76 -48
l1 -51l-20 1l-1 76l14 -4q20 -6 38 3t25 29q6 20 -3 39q-9 18 -29 24q-20 7 -39 -3q-18 -9 -24 -29l-19 6q9 28 34 41q26 13 54 4z" />
    <glyph glyph-name="uni1EE7" unicode="&#x1ee7;" horiz-adv-x="565" 
d="M159 33q-53 53 -53 127v330h-86v20h106v-350q0 -66 47 -113t113 -47q93 0 140 82v-35q-54 -67 -140 -67q-74 0 -127 53zM446 490h-86v20h106v-370q0 -54 38 -92t92 -38v-20q-63 1 -107 45t-43 105v350zM306 759q28 -9 41 -34q13 -26 4 -54q-18 -54 -76 -48l1 -51l-20 1
l-1 76l14 -4q20 -6 38 3t25 29q6 20 -3 39q-9 18 -29 24q-20 7 -39 -3q-18 -9 -24 -29l-19 6q9 28 34 41q26 13 54 4z" />
    <glyph glyph-name="uni1EE8" unicode="&#x1ee8;" horiz-adv-x="616" 
d="M281 803l-10 18l240 140l10 -18zM600 690h-90v-525q0 -78 -54 -135q-54 -56 -131 -60v20q69 4 117 54q48 51 48 121v525h-90v20h200v-20zM120 690h-90v20h200v-20h-90v-525q0 -70 48 -121q47 -50 117 -54v-20q-78 4 -131 60q-54 56 -54 135v525zM537 715h1q21 -10 44 -1
q22 9 31 31t1 44q-9 22 -31 31q-21 10 -44 1l-9 21q32 12 62 -1q31 -13 43 -44q13 -31 -1 -62q-13 -30 -44 -42q-29 -12 -53 -5v27z" />
    <glyph glyph-name="uni1EE9" unicode="&#x1ee9;" horiz-adv-x="561" 
d="M226 624l-10 18l240 140l10 -18zM159 33q-53 53 -53 127v330h-86v20h106v-350q0 -66 47 -113t113 -47q93 0 140 82v-35q-54 -67 -140 -67q-74 0 -127 53zM446 490h-86v20h106v-370q0 -54 38 -92t92 -38v-20q-63 1 -107 45t-43 105v350zM455 512h1q21 -10 44 -1
q22 9 31 31t1 44q-9 22 -31 31q-21 10 -44 1l-9 21q32 12 62 -1q31 -13 43 -44q13 -31 -1 -62q-13 -30 -44 -42q-29 -12 -53 -5v27z" />
    <glyph glyph-name="uni1EEA" unicode="&#x1eea;" horiz-adv-x="649" 
d="M129 942l10 18l240 -140l-10 -18zM600 690h-90v-525q0 -78 -54 -135q-54 -56 -131 -60v20q69 4 117 54q48 51 48 121v525h-90v20h200v-20zM120 690h-90v20h200v-20h-90v-525q0 -70 48 -121q47 -50 117 -54v-20q-78 4 -131 60q-54 56 -54 135v525zM537 715h1q21 -10 44 -1
q22 9 31 31t1 44q-9 22 -31 31q-21 10 -44 1l-9 21q32 12 62 -1q31 -13 43 -44q13 -31 -1 -62q-13 -30 -44 -42q-29 -12 -53 -5v27z" />
    <glyph glyph-name="uni1EEB" unicode="&#x1eeb;" horiz-adv-x="565" 
d="M103 780l10 18l240 -140l-10 -18zM159 33q-53 53 -53 127v330h-86v20h106v-350q0 -66 47 -113t113 -47q93 0 140 82v-35q-54 -67 -140 -67q-74 0 -127 53zM446 490h-86v20h106v-370q0 -54 38 -92t92 -38v-20q-63 1 -107 45t-43 105v350zM455 512h1q21 -10 44 -1
q22 9 31 31t1 44q-9 22 -31 31q-21 10 -44 1l-9 21q32 12 62 -1q31 -13 43 -44q13 -31 -1 -62q-13 -30 -44 -42q-29 -12 -53 -5v27z" />
    <glyph glyph-name="uni1EEC" unicode="&#x1eec;" horiz-adv-x="611" 
d="M600 690h-90v-525q0 -78 -54 -135q-54 -56 -131 -60v20q69 4 117 54q48 51 48 121v525h-90v20h200v-20zM120 690h-90v20h200v-20h-90v-525q0 -70 48 -121q47 -50 117 -54v-20q-78 4 -131 60q-54 56 -54 135v525zM537 715h1q21 -10 44 -1q22 9 31 31t1 44q-9 22 -31 31
q-21 10 -44 1l-9 21q32 12 62 -1q31 -13 43 -44q13 -31 -1 -62q-13 -30 -44 -42q-29 -12 -53 -5v27zM343 946q28 -9 41 -34q13 -26 4 -54q-18 -54 -76 -48l1 -51l-20 1l-1 76l14 -4q20 -6 38 3t25 29q6 20 -3 39q-9 18 -29 24q-20 7 -39 -3q-18 -9 -24 -29l-19 6q9 28 34 41
q26 13 54 4z" />
    <glyph glyph-name="uni1EED" unicode="&#x1eed;" horiz-adv-x="569" 
d="M159 33q-53 53 -53 127v330h-86v20h106v-350q0 -66 47 -113t113 -47q93 0 140 82v-35q-54 -67 -140 -67q-74 0 -127 53zM446 490h-86v20h106v-370q0 -54 38 -92t92 -38v-20q-63 1 -107 45t-43 105v350zM455 512h1q21 -10 44 -1q22 9 31 31t1 44q-9 22 -31 31
q-21 10 -44 1l-9 21q32 12 62 -1q31 -13 43 -44q13 -31 -1 -62q-13 -30 -44 -42q-29 -12 -53 -5v27zM323 808q28 -9 41 -34q13 -26 4 -54q-18 -54 -76 -48l1 -51l-20 1l-1 76l14 -4q20 -6 38 3t25 29q6 20 -3 39q-9 18 -29 24q-20 7 -39 -3q-18 -9 -24 -29l-19 6q9 28 34 41
q26 13 54 4z" />
    <glyph glyph-name="uni1EEE" unicode="&#x1eee;" horiz-adv-x="649" 
d="M318 861q-32 37 -61 37q-46 0 -72 -54l-18 8q4 14 23 34q29 32 67 32q39 0 77 -44q30 -36 61 -36q46 0 72 54l18 -8q-5 -14 -24 -34q-29 -32 -66 -32q-39 0 -77 43zM600 690h-90v-525q0 -78 -54 -135q-54 -56 -131 -60v20q69 4 117 54q48 51 48 121v525h-90v20h200v-20z
M120 690h-90v20h200v-20h-90v-525q0 -70 48 -121q47 -50 117 -54v-20q-78 4 -131 60q-54 56 -54 135v525zM537 715h1q21 -10 44 -1q22 9 31 31t1 44q-9 22 -31 31q-21 10 -44 1l-9 21q32 12 62 -1q31 -13 43 -44q13 -31 -1 -62q-13 -30 -44 -42q-29 -12 -53 -5v27z" />
    <glyph glyph-name="uni1EEF" unicode="&#x1eef;" horiz-adv-x="561" 
d="M288 699q-32 37 -61 37q-46 0 -72 -54l-18 8q5 14 23 34q30 32 67 32q39 0 77 -44q30 -36 61 -36q46 0 72 54l18 -8q-5 -14 -23 -34q-30 -32 -67 -32q-38 0 -77 43zM159 33q-53 53 -53 127v330h-86v20h106v-350q0 -66 47 -113t113 -47q93 0 140 82v-35q-54 -67 -140 -67
q-74 0 -127 53zM446 490h-86v20h106v-370q0 -54 38 -92t92 -38v-20q-63 1 -107 45t-43 105v350zM455 512h1q21 -10 44 -1q22 9 31 31t1 44q-9 22 -31 31q-21 10 -44 1l-9 21q32 12 62 -1q31 -13 43 -44q13 -31 -1 -62q-13 -30 -44 -42q-29 -12 -53 -5v27z" />
    <glyph glyph-name="uni1EF0" unicode="&#x1ef0;" horiz-adv-x="607" 
d="M600 690h-90v-525q0 -78 -54 -135q-54 -56 -131 -60v20q69 4 117 54q48 51 48 121v525h-90v20h200v-20zM120 690h-90v20h200v-20h-90v-525q0 -70 48 -121q47 -50 117 -54v-20q-78 4 -131 60q-54 56 -54 135v525zM537 715h1q21 -10 44 -1q22 9 31 31t1 44q-9 22 -31 31
q-21 10 -44 1l-9 21q32 12 62 -1q31 -13 43 -44q13 -31 -1 -62q-13 -30 -44 -42q-29 -12 -53 -5v27zM327 878q-32 37 -61 37q-46 0 -72 -54l-18 8q4 14 23 34q29 32 67 32q39 0 77 -44q30 -36 61 -36q46 0 72 54l18 -8q-5 -14 -24 -34q-29 -32 -66 -32q-39 0 -77 43z" />
    <glyph glyph-name="uni1EF1" unicode="&#x1ef1;" horiz-adv-x="573" 
d="M159 33q-53 53 -53 127v330h-86v20h106v-350q0 -66 47 -113t113 -47q93 0 140 82v-35q-54 -67 -140 -67q-74 0 -127 53zM446 490h-86v20h106v-370q0 -54 38 -92t92 -38v-20q-63 1 -107 45t-43 105v350zM455 512h1q21 -10 44 -1q22 9 31 31t1 44q-9 22 -31 31
q-21 10 -44 1l-9 21q32 12 62 -1q31 -13 43 -44q13 -31 -1 -62q-13 -30 -44 -42q-29 -12 -53 -5v27zM294 695q-32 37 -61 37q-46 0 -72 -54l-18 8q4 14 23 34q29 32 67 32q39 0 77 -44q30 -36 61 -36q46 0 72 54l18 -8q-5 -14 -24 -34q-29 -32 -66 -32q-39 0 -77 43z" />
    <glyph glyph-name="Ygrave" unicode="&#x1ef2;" 
d="M410 -10h-200v20h90v343l193 337h-83v20h200v-20h-94l-196 -344v-336h90v-20zM10 690v20h200v-20h-83l171 -300l-11 -19l-182 319h-95zM143 951l10 18l240 -140l-10 -18z" />
    <glyph glyph-name="ygrave" unicode="&#x1ef3;" horiz-adv-x="516" 
d="M159 -277q-53 53 -53 127h20q0 -66 47 -113t113 -47q64 0 111 45q46 45 49 109v646h-86v20h106v-660q0 -74 -53 -127t-127 -53t-127 53zM159 33q-53 53 -53 127v330h-86v20h106v-350q0 -66 47 -113t113 -47q94 0 140 83v-37q-53 -66 -140 -66q-74 0 -127 53zM76 751
l10 18l240 -140l-10 -18z" />
    <glyph glyph-name="uni1EF4" unicode="&#x1ef4;" horiz-adv-x="619" 
d="M410 -10h-200v20h90v343l193 337h-83v20h200v-20h-94l-196 -344v-336h90v-20zM10 690v20h200v-20h-83l171 -300l-11 -19l-182 319h-95zM365 -117q19 -19 19 -45q0 -27 -19 -46t-45 -19q-27 0 -46 19t-19 46q0 26 19 45t46 19q26 0 45 -19zM355 -198q15 15 15 36
q0 20 -15 35t-35 15q-21 0 -36 -15t-15 -35q0 -21 15 -36t36 -15q20 0 35 15z" />
    <glyph glyph-name="uni1EF5" unicode="&#x1ef5;" horiz-adv-x="515" 
d="M159 -277q-53 53 -53 127h20q0 -66 47 -113t113 -47q64 0 111 45q46 45 49 109v646h-86v20h106v-660q0 -74 -53 -127t-127 -53t-127 53zM159 33q-53 53 -53 127v330h-86v20h106v-350q0 -66 47 -113t113 -47q94 0 140 83v-37q-53 -66 -140 -66q-74 0 -127 53zM590 -183
q19 -19 19 -45q0 -27 -19 -46t-45 -19q-27 0 -46 19t-19 46q0 26 19 45t46 19q26 0 45 -19zM580 -264q15 15 15 36q0 20 -15 35t-35 15q-21 0 -36 -15t-15 -35q0 -21 15 -36t36 -15q20 0 35 15z" />
    <glyph glyph-name="uni1EF6" unicode="&#x1ef6;" horiz-adv-x="632" 
d="M410 -10h-200v20h90v343l193 337h-83v20h200v-20h-94l-196 -344v-336h90v-20zM10 690v20h200v-20h-83l171 -300l-11 -19l-182 319h-95zM360 946q28 -9 41 -34q13 -26 4 -54q-18 -54 -76 -48l1 -51l-20 1l-1 76l14 -4q20 -6 38 3t25 29q6 20 -3 39q-9 18 -29 24
q-20 7 -39 -3q-18 -9 -24 -29l-19 6q9 28 34 41q26 13 54 4z" />
    <glyph glyph-name="uni1EF7" unicode="&#x1ef7;" horiz-adv-x="519" 
d="M159 -277q-53 53 -53 127h20q0 -66 47 -113t113 -47q64 0 111 45q46 45 49 109v646h-86v20h106v-660q0 -74 -53 -127t-127 -53t-127 53zM159 33q-53 53 -53 127v330h-86v20h106v-350q0 -66 47 -113t113 -47q94 0 140 83v-37q-53 -66 -140 -66q-74 0 -127 53zM306 783
q28 -9 41 -34q13 -26 4 -54q-18 -54 -76 -48l1 -51l-20 1l-1 76l14 -4q20 -6 38 3t25 29q6 20 -3 39q-9 18 -29 24q-20 7 -39 -3q-18 -9 -24 -29l-19 6q9 28 34 41q26 13 54 4z" />
    <glyph glyph-name="uni1EF8" unicode="&#x1ef8;" 
d="M410 -10h-200v20h90v343l193 337h-83v20h200v-20h-94l-196 -344v-336h90v-20zM10 690v20h200v-20h-83l171 -300l-11 -19l-182 319h-95zM302 853q-31 37 -61 37q-46 0 -72 -54l-18 8q5 14 23 34q30 32 67 32q39 0 77 -44q30 -36 61 -36q46 0 72 54l18 -8q-5 -14 -23 -34
q-30 -32 -67 -32q-38 0 -77 43z" />
    <glyph glyph-name="uni1EF9" unicode="&#x1ef9;" horiz-adv-x="516" 
d="M159 -277q-53 53 -53 127h20q0 -66 47 -113t113 -47q64 0 111 45q46 45 49 109v646h-86v20h106v-660q0 -74 -53 -127t-127 -53t-127 53zM159 33q-53 53 -53 127v330h-86v20h106v-350q0 -66 47 -113t113 -47q94 0 140 83v-37q-53 -66 -140 -66q-74 0 -127 53zM235 653
q-31 37 -61 37q-46 0 -72 -54l-18 8q5 14 23 34q30 32 67 32q39 0 77 -44q30 -36 61 -36q46 0 72 54l18 -8q-5 -14 -23 -34q-30 -32 -67 -32q-38 0 -77 43z" />
    <glyph glyph-name="endash" unicode="&#x2013;" horiz-adv-x="500" 
d="M450 280h-400v20h400v-20z" />
    <glyph glyph-name="emdash" unicode="&#x2014;" horiz-adv-x="580" 
d="M530 280h-480v20h480v-20z" />
    <glyph glyph-name="quoteleft" unicode="&#x2018;" horiz-adv-x="180" 
d="M160 490q-46 0 -78 32t-32 78v100h20v-100q0 -37 26 -64q27 -26 64 -26v-20z" />
    <glyph glyph-name="quoteright" unicode="&#x2019;" horiz-adv-x="180" 
d="M130 500h-20v100q0 38 -26 64t-64 26v20q46 0 78 -32t32 -78v-100z" />
    <glyph glyph-name="quotesinglbase" unicode="&#x201a;" horiz-adv-x="180" 
d="M130 -200h-20v100q0 38 -26 64t-64 26v20q46 0 78 -32t32 -78v-100z" />
    <glyph glyph-name="quotedblleft" unicode="&#x201c;" horiz-adv-x="300" 
d="M160 490q-46 0 -78 32t-32 78v100h20v-100q0 -37 26 -64q27 -26 64 -26v-20zM170 700h20v-100q0 -37 26 -64q27 -26 64 -26v-20q-46 0 -78 32t-32 78v100z" />
    <glyph glyph-name="quotedblright" unicode="&#x201d;" horiz-adv-x="300" 
d="M250 500h-20v100q0 38 -26 64t-64 26v20q46 0 78 -32t32 -78v-100zM130 500h-20v100q0 38 -26 64t-64 26v20q46 0 78 -32t32 -78v-100z" />
    <glyph glyph-name="quotedblbase" unicode="&#x201e;" horiz-adv-x="300" 
d="M250 -200h-20v100q0 38 -26 64t-64 26v20q46 0 78 -32t32 -78v-100zM130 -200h-20v100q0 38 -26 64t-64 26v20q46 0 78 -32t32 -78v-100z" />
    <glyph glyph-name="dagger" unicode="&#x2020;" horiz-adv-x="500" 
d="M450 280h-190v-480h-20v480h-190v20h190v400h20v-400h190v-20z" />
    <glyph glyph-name="daggerdbl" unicode="&#x2021;" horiz-adv-x="500" 
d="M450 372h-400v20h190v308h20v-308h190v-20zM450 161h-400v20h190v171h20v-171h190v-20zM240 -200v341h20v-341h-20z" />
    <glyph glyph-name="bullet" unicode="&#x2022;" horiz-adv-x="331" 
d="M84 210q-34 34 -34 82t34 82q34 33 82 33t82 -33q33 -34 33 -82t-33 -82q-34 -34 -82 -34q-47 0 -82 34z" />
    <glyph glyph-name="ellipsis" unicode="&#x2026;" horiz-adv-x="906" 
d="M77 16q-27 27 -27 64t27 64q26 26 63 26q38 0 64 -26t26 -64q0 -37 -26 -64q-26 -26 -64 -26q-37 0 -63 26zM91 130q-21 -21 -21 -50t21 -50q20 -20 49 -20t50 20q20 21 20 50t-20 50q-21 20 -50 20t-49 -20zM390 16q-27 27 -27 64t27 64q26 26 63 26q38 0 64 -26t26 -64
q0 -37 -26 -64q-26 -26 -64 -26q-37 0 -63 26zM404 130q-21 -21 -21 -50t21 -50q20 -20 49 -20t50 20q20 21 20 50t-20 50q-21 20 -50 20t-49 -20zM703 16q-27 27 -27 64t27 64q26 26 63 26q38 0 64 -26t26 -64q0 -37 -26 -64q-26 -26 -64 -26q-37 0 -63 26zM717 130
q-21 -21 -21 -50t21 -50q20 -20 49 -20t50 20q20 21 20 50t-20 50q-21 20 -50 20t-49 -20z" />
    <glyph glyph-name="perthousand" unicode="&#x2030;" horiz-adv-x="906" 
d="M261 16q-27 27 -27 64t27 64q26 26 63 26q38 0 64 -26t26 -64q0 -37 -26 -64q-26 -26 -64 -26q-37 0 -63 26zM275 130q-21 -21 -21 -50t21 -50q20 -20 49 -20t50 20q20 21 20 50t-20 50q-21 20 -50 20t-49 -20zM77 556q-27 27 -27 64t27 64q26 26 63 26q38 0 64 -26
t26 -64q0 -37 -26 -64q-26 -26 -64 -26q-37 0 -63 26zM91 670q-21 -21 -21 -50t21 -50q20 -20 49 -20t50 20q20 21 20 50t-20 50q-21 20 -50 20t-49 -20zM482 16q-27 27 -27 64t27 64q26 26 63 26q38 0 64 -26t26 -64q0 -37 -26 -64q-26 -26 -64 -26q-37 0 -63 26zM496 130
q-21 -21 -21 -50t21 -50q20 -20 49 -20t50 20q20 21 20 50t-20 50q-21 20 -50 20t-49 -20zM703 16q-27 27 -27 64t27 64q26 26 63 26q38 0 64 -26t26 -64q0 -37 -26 -64q-26 -26 -64 -26q-37 0 -63 26zM717 130q-21 -21 -21 -50t21 -50q20 -20 49 -20t50 20q20 21 20 50
t-20 50q-21 20 -50 20t-49 -20zM74 -5l-18 9l349 700l18 -9z" />
    <glyph glyph-name="guilsinglleft" unicode="&#x2039;" horiz-adv-x="295" 
d="M266 -7l-246 267l247 267l14 -14l-233 -253l233 -253z" />
    <glyph glyph-name="guilsinglright" unicode="&#x203a;" horiz-adv-x="288" 
d="M13 7l233 253l-233 253l14 14l247 -267l-246 -267z" />
    <glyph glyph-name="fraction" unicode="&#x2044;" horiz-adv-x="407" 
d="M38 -5l-18 9l349 700l18 -9z" />
    <glyph glyph-name="Euro" unicode="&#x20ac;" horiz-adv-x="412" 
d="M319 430v-20h-210v-120h210v-20h-210v-110q0 -60 41 -103q41 -44 100 -47v-20q-68 4 -114 53q-47 49 -47 117v110h-69v20h69v120h-69v20h299zM89 540q0 71 50 120q50 50 120 50q81 0 133 -64l-16 -12q-45 56 -117 56q-62 0 -106 -44t-44 -106v-90h-20v90zM392 54
q-48 -59 -122 -64v20q66 5 106 56z" />
    <glyph glyph-name="trademark" unicode="&#x2122;" horiz-adv-x="747" 
d="M239 250h-126v20h53v420h-96v-53h-20v73h289l144 -421l144 421h70v-20h-53v-420h53v-20h-126v20h53v370l-131 -383l-10 3l-10 -3l-131 383v-370h53v-20h-126v20h53v420h-136v-420h53v-20z" />
    <glyph glyph-name="partialdiff" unicode="&#x2202;" horiz-adv-x="535" 
d="M330 50q61 50 75 120l76 355q16 72 -25 124q-40 51 -113 51l4 20q81 0 126 -57q46 -57 28 -138l-76 -355q-16 -79 -84 -134q-67 -56 -146 -56q-78 0 -121 56q-44 55 -28 134q18 78 85 134q68 55 145 55q92 0 134 -74l-8 -35q-28 89 -131 89q-69 0 -129 -50
q-61 -49 -76 -119q-14 -70 25 -120t108 -50q70 0 131 50z" />
    <glyph glyph-name="product" unicode="&#x220f;" horiz-adv-x="649" 
d="M609 10v-20h-200v20h90v660h20v-660h90zM240 10v-20h-200v20h90v660h20v-660h90zM609 690h-569v20h569v-20z" />
    <glyph glyph-name="summation" unicode="&#x2211;" horiz-adv-x="462" 
d="M432 700v-110h-20v90h-365l-17 20h402zM56 -20h-24l275 364l13 -16zM432 -20h-350l15 20h315v90h20v-110zM345 360l-13 -16l-268 316h26z" />
    <glyph glyph-name="minus" unicode="&#x2212;" horiz-adv-x="500" 
d="M450 280h-400v20h400v-20z" />
    <glyph glyph-name="radical" unicode="&#x221a;" horiz-adv-x="609" 
d="M310 -26l-187 416h-93v20h106l173 -384l272 678l18 -8z" />
    <glyph glyph-name="infinity" unicode="&#x221e;" horiz-adv-x="760" 
d="M441 172q-44 31 -61 80q-18 -49 -62 -80q-44 -32 -98 -32q-70 0 -120 50t-50 120q0 71 50 120q50 50 120 50q55 0 99 -32q43 -31 61 -81q17 50 61 81q44 32 99 32q71 0 120 -50q50 -49 50 -120q0 -70 -50 -120t-120 -50q-55 0 -99 32zM436 418q-44 -42 -46 -102v-12
q2 -60 46 -102t104 -42q62 0 106 44t44 106t-44 106t-106 44q-61 0 -104 -42zM114 416q-44 -44 -44 -106t44 -106t106 -44t106 44t44 106v6q-2 60 -46 102q-43 42 -104 42q-62 0 -106 -44z" />
    <glyph glyph-name="integral" unicode="&#x222b;" horiz-adv-x="386" 
d="M-100 -286l16 12q44 -56 117 -56q62 0 106 44t44 106v720q0 71 50 120q50 50 120 50q81 0 133 -64l-16 -12q-46 56 -117 56q-62 0 -106 -44t-44 -106v-720q0 -70 -50 -120q-49 -50 -120 -50q-81 0 -133 64z" />
    <glyph glyph-name="approxequal" unicode="&#x2248;" horiz-adv-x="419" 
d="M202 187q-31 37 -61 37q-46 0 -72 -54l-18 8q5 14 23 34q30 32 67 32q39 0 77 -44q30 -36 61 -36q46 0 72 54l18 -8q-5 -14 -23 -34q-30 -32 -67 -32q-38 0 -77 43zM201 336q-31 37 -61 37q-46 0 -72 -54l-18 8q5 14 23 34q30 32 67 32q39 0 77 -44q30 -36 61 -36
q46 0 72 54l18 -8q-5 -14 -23 -34q-30 -32 -67 -32q-38 0 -77 43z" />
    <glyph glyph-name="notequal" unicode="&#x2260;" horiz-adv-x="500" 
d="M450 372h-160l-95 -191h255v-20h-265l-83 -166l-18 9l78 157h-112v20h122l95 191h-217v20h227l78 155l18 -9l-73 -146h150v-20z" />
    <glyph glyph-name="lessequal" unicode="&#x2264;" horiz-adv-x="500" 
d="M450 -10h-400v20h400v-20zM345 67l-246 267l247 267l14 -14l-233 -253l233 -253z" />
    <glyph glyph-name="greaterequal" unicode="&#x2265;" horiz-adv-x="500" 
d="M50 10h400v-20h-400v20zM140 81l233 253l-233 253l14 14l247 -267l-246 -267z" />
    <glyph glyph-name="lozenge" unicode="&#x25ca;" horiz-adv-x="553" 
d="M276 -18l-256 378l256 357l257 -357zM44 360l232 -342l232 342l-232 323z" />
    <glyph glyph-name="uniFB01" unicode="&#xfb01;" horiz-adv-x="623" 
d="M401 456q-26 27 -26 64q0 38 26 64q27 26 64 26q38 0 64 -26t26 -64q0 -37 -26 -64q-26 -26 -64 -26q-37 0 -64 26zM150 -180q0 -62 -44 -106t-106 -44v20q54 0 92 38t38 92v490h-70v20h90v-510zM415 569q-20 -20 -20 -49t20 -50q21 -20 50 -20t49 20q21 21 21 50t-21 49
q-20 21 -49 21t-50 -21zM130 550q0 70 50 120t120 50q83 0 133 -64l-15 -12q-46 56 -118 56q-62 0 -106 -44t-44 -106v-200h-20v200zM560 310h-390v20h390v-20zM560 10v-20h-200v20h90v280h20v-280h90z" />
    <glyph glyph-name="uniFB02" unicode="&#xfb02;" horiz-adv-x="673" 
d="M420 670q50 -50 50 -120v-540h90v-20h-200v20h90v540q0 62 -44 106t-106 44t-106 -44t-44 -106v-200h-20v200q0 70 50 120t120 50t120 -50zM150 -180q0 -62 -44 -106t-106 -44v20q54 0 92 38t38 92v490h-70v20h90v-510zM400 310h-230v20h230v-20z" />
    <glyph glyph-name="glyph53" horiz-adv-x="220" 
d="M161 189q-66 0 -113 47t-47 113q0 55 35 100q-36 42 -36 101q0 66 47 113t113 47v-20q-58 0 -99 -41t-41 -99q0 -49 29 -86q45 43 111 45q25 0 42 -17q18 -18 18 -42q0 -25 -18 -42q-17 -18 -42 -18q-66 0 -110 44q-29 -39 -29 -85q0 -58 41 -99t99 -41v-20zM188 422
q12 12 12 28q0 15 -12 27q-11 11 -27 12q-58 0 -98 -40q41 -39 97 -39q17 0 28 12z" />
    <glyph glyph-name="A.ss01" horiz-adv-x="666" 
d="M161 189q-66 0 -113 47t-47 113q0 55 35 100q-36 42 -36 101q0 66 47 113t113 47h193l120 -420h-21l-106 373l-187 -653h87v-20h-200v20h92l195 680h-173q-58 0 -99 -41t-41 -99q0 -49 29 -86q45 43 111 45q25 0 42 -17q18 -18 18 -42q0 -25 -18 -42q-17 -18 -42 -18
q-66 0 -110 44q-29 -39 -29 -85q0 -58 41 -99t99 -41v-20zM253 270h225l75 -260h93v-20h-200v20h87l-69 240h-216zM188 422q12 12 12 28q0 15 -12 27q-11 11 -27 12q-58 0 -98 -40q41 -39 97 -39q17 0 28 12z" />
    <glyph glyph-name="B.ss01" horiz-adv-x="670" 
d="M270 360v-370h-110v20h90v370h195q64 0 109 45q46 46 46 110t-46 109q-45 46 -109 46h-155v20h155q72 0 124 -51q51 -52 51 -124q0 -56 -32 -102q-32 -44 -83 -63q59 -19 97 -70t38 -115q0 -81 -57 -138q-58 -57 -138 -57h-155v20h155q72 0 124 51q51 51 51 124
q0 72 -51 124q-52 51 -124 51h-175zM161 189q-66 0 -113 47t-47 113q0 55 35 100q-36 42 -36 101q0 66 47 113t113 47h110v-310h-20v290h-90q-58 0 -99 -41t-41 -99q0 -49 29 -86q45 43 111 45q25 0 42 -17q18 -18 18 -42q0 -25 -18 -42q-17 -18 -42 -18q-66 0 -110 44
q-29 -39 -29 -85q0 -58 41 -99t99 -41v-20zM188 422q12 12 12 28q0 15 -12 27q-11 11 -27 12q-58 0 -98 -40q41 -39 97 -39q17 0 28 12z" />
    <glyph glyph-name="d.ss01" horiz-adv-x="700" 
d="M161 189q-66 0 -113 47t-47 113q0 55 35 100q-36 42 -36 101q0 66 47 113t113 47h110v-680h-20v660h-90q-58 0 -99 -41t-41 -99q0 -49 29 -86q45 43 111 45q25 0 42 -17q18 -18 18 -42q0 -25 -18 -42q-17 -18 -42 -18q-66 0 -110 44q-29 -39 -29 -85q0 -58 41 -99t99 -41
v-20zM160 10h285q72 0 124 51q51 51 51 124v330q0 72 -51 124q-52 51 -124 51h-155v20h155q81 0 138 -57q57 -58 57 -138v-330q0 -81 -57 -138t-138 -57h-285v20zM188 422q12 12 12 28q0 15 -12 27q-11 11 -27 12q-58 0 -98 -40q41 -39 97 -39q17 0 28 12z" />
    <glyph glyph-name="E.ss01" horiz-adv-x="660" 
d="M161 189q-66 0 -113 47t-47 113q0 55 35 100q-36 42 -36 101q0 66 47 113t113 47h110v-320h-20v300h-90q-58 0 -99 -41t-41 -99q0 -49 29 -86q45 43 111 45q25 0 42 -17q18 -18 18 -42q0 -25 -18 -42q-17 -18 -42 -18q-66 0 -110 44q-29 -39 -29 -85q0 -58 41 -99t99 -41
v-20zM510 370v90h20v-200h-20v90h-240v-340h350v90h20v-110h-480v20h90v360h260zM640 600h-20v90h-330v20h350v-110zM188 422q12 12 12 28q0 15 -12 27q-11 11 -27 12q-58 0 -98 -40q41 -39 97 -39q17 0 28 12z" />
    <glyph glyph-name="F.ss01" horiz-adv-x="650" 
d="M161 189q-66 0 -113 47t-47 113q0 55 35 100q-36 42 -36 101q0 66 47 113t113 47h111v-20h-1v-300h-20v300h-90q-58 0 -99 -41t-41 -99q0 -49 29 -86q45 43 111 45q25 0 42 -17q18 -18 18 -42q0 -25 -18 -42q-17 -18 -42 -18q-66 0 -110 44q-29 -39 -29 -85q0 -58 41 -99
t99 -41v-20zM510 370v90h20v-200h-20v90h-240v-340h82v-20h-200v20h98v360h260zM640 600h-20v90h-329v20h349v-110zM188 422q12 12 12 28q0 15 -12 27q-11 11 -27 12q-58 0 -98 -40q41 -39 97 -39q17 0 28 12z" />
    <glyph glyph-name="G.ss01" horiz-adv-x="619" 
d="M161 -161q-66 0 -113 47t-47 113q0 55 35 100q-36 42 -36 101q0 66 47 113t113 47h428v-289l-2 -3q-53 -83 -153 -88v20q85 5 135 77v263h-408q-58 0 -99 -41t-41 -99q0 -49 29 -86q45 43 111 45q25 0 42 -17q18 -18 18 -42q0 -25 -18 -42q-17 -18 -42 -18q-66 0 -110 44
q-29 -39 -29 -85q0 -58 41 -99t99 -41v-20zM228 320h20v-145q0 -70 48 -121q47 -50 117 -54v-20q-78 4 -131 60q-54 56 -54 135v145zM228 525q0 77 54 134q53 57 131 61v-20q-70 -4 -117 -55q-48 -51 -48 -120v-145h-20v145zM188 72q12 12 12 28q0 15 -12 27q-11 11 -27 12
q-58 0 -98 -40q41 -39 97 -39q17 0 28 12zM589 627l-42 -86l-18 9l37 75q-48 70 -133 75v20q99 -5 153 -89z" />
    <glyph glyph-name="H.ss01" horiz-adv-x="769" 
d="M161 189q-66 0 -113 47t-47 113q0 55 35 100q-36 42 -36 101q0 66 47 113t113 47h200v-20h-90v-680h90v-20h-200v20h90v680h-90q-58 0 -99 -41t-41 -99q0 -49 29 -86q45 43 111 45q25 0 42 -17q18 -18 18 -42q0 -25 -18 -42q-17 -18 -42 -18q-66 0 -110 44
q-29 -39 -29 -85q0 -58 41 -99t99 -41v-20zM290 370h349v-360h90v-20h-200v20h90v340h-329v20zM619 690h-90v20h200v-20h-90v-300h-20v300zM188 422q12 12 12 28q0 15 -12 27q-11 11 -27 12q-58 0 -98 -40q41 -39 97 -39q17 0 28 12z" />
    <glyph glyph-name="I.ss01" horiz-adv-x="400" 
d="M161 189q-66 0 -113 47t-47 113q0 55 35 100q-36 42 -36 101q0 66 47 113t113 47h200v-20h-200q-58 0 -99 -41t-41 -99q0 -49 29 -86q45 43 111 45q25 0 42 -17q18 -18 18 -42q0 -25 -18 -42q-17 -18 -42 -18q-66 0 -110 44q-29 -39 -29 -85q0 -58 41 -99t99 -41v-20z
M360 10v-20h-200v20h90v659h20v-659h90zM188 422q12 12 12 28q0 15 -12 27q-11 11 -27 12q-58 0 -98 -40q41 -39 97 -39q17 0 28 12z" />
    <glyph glyph-name="J.ss01" horiz-adv-x="481" 
d="M3 78l-3 5l42 85l18 -9l-37 -74q53 -75 143 -75q73 0 124 51t51 124v484h20v-484q0 -81 -57 -138t-138 -57q-105 0 -163 88zM251 690v20h200v-20h-200zM252 189q-66 0 -113 47t-47 113q0 55 35 100q-36 42 -36 101q0 66 47 113t113 47v-20q-58 0 -99 -41t-41 -99
q0 -49 29 -86q45 43 111 45q25 0 42 -17q18 -18 18 -42q0 -25 -18 -42q-17 -18 -42 -18q-66 0 -110 44q-29 -39 -29 -85q0 -58 41 -99t99 -41v-20zM279 422q12 12 12 28q0 15 -12 27q-11 11 -27 12q-58 0 -98 -40q41 -39 97 -39q17 0 28 12z" />
    <glyph glyph-name="K.ss01" horiz-adv-x="729" 
d="M161 189q-66 0 -113 47t-47 113q0 55 35 100q-36 42 -36 101q0 66 47 113t113 47h200v-20h-90v-680h90v-20h-200v20h90v680h-90q-58 0 -99 -41t-41 -99q0 -49 29 -86q45 43 111 45q25 0 42 -17q18 -18 18 -42q0 -25 -18 -42q-17 -18 -42 -18q-66 0 -110 44
q-29 -39 -29 -85q0 -58 41 -99t99 -41v-20zM633 10h96v-20h-200v20h76l-315 306v28zM576 690h-76v20h200v-20h-96l-314 -314v28zM188 422q12 12 12 28q0 15 -12 27q-11 11 -27 12q-58 0 -98 -40q41 -39 97 -39q17 0 28 12z" />
    <glyph glyph-name="L.ss01" horiz-adv-x="621" 
d="M161 189q-66 0 -113 47t-47 113q0 55 35 100q-36 42 -36 101q0 66 47 113t113 47h110v-680h-20v660h-90q-58 0 -99 -41t-41 -99q0 -49 29 -86q45 43 111 45q25 0 42 -17q18 -18 18 -42q0 -25 -18 -42q-17 -18 -42 -18q-66 0 -110 44q-29 -39 -29 -85q0 -58 41 -99t99 -41
v-20zM160 10h431v90h20v-110h-451v20zM188 422q12 12 12 28q0 15 -12 27q-11 11 -27 12q-58 0 -98 -40q41 -39 97 -39q17 0 28 12z" />
    <glyph glyph-name="M.ss01" horiz-adv-x="880" 
d="M161 189q-66 0 -113 47t-47 113q0 55 35 100q-36 42 -36 101q0 66 47 113t113 47h107l3 -9v-691h90v-20h-200v20h90v680h-90q-58 0 -99 -41t-41 -99q0 -49 29 -86q45 43 111 45q25 0 42 -17q18 -18 18 -42q0 -25 -18 -42q-17 -18 -42 -18q-66 0 -110 44q-29 -39 -29 -85
q0 -58 41 -99t99 -41v-20zM840 -10h-200v20h90v630l-209 -611l-11 30l223 651h107v-20h-90v-680h90v-20zM490 -3l-200 584v61l220 -645h-20zM188 422q12 12 12 28q0 15 -12 27q-11 11 -27 12q-58 0 -98 -40q41 -39 97 -39q17 0 28 12z" />
    <glyph glyph-name="N.ss01" horiz-adv-x="779" 
d="M161 189q-66 0 -113 47t-47 113q0 55 35 100q-36 42 -36 101q0 66 47 113t113 47h120v-700h90v-20h-200v20h90v680h-100q-58 0 -99 -41t-41 -99q0 -49 29 -86q45 43 111 45q25 0 42 -17q18 -18 18 -42q0 -25 -18 -42q-17 -18 -42 -18q-66 0 -110 44q-29 -39 -29 -85
q0 -58 41 -99t99 -41v-20zM739 690h-89v-646l-20 38v608h-91v20h200v-20zM300 621v43l350 -663v-11h-16zM188 422q12 12 12 28q0 15 -12 27q-11 11 -27 12q-58 0 -98 -40q41 -39 97 -39q17 0 28 12z" />
    <glyph glyph-name="O.ss01" horiz-adv-x="685" 
d="M625 175q0 -78 -54 -135q-54 -56 -131 -60v20q69 4 117 54q48 51 48 121v350q0 84 -70 139q15 -27 15 -54q0 -46 -32 -78q-33 -32 -78 -32h-291q-58 0 -99 -41t-41 -99q0 -49 29 -86q45 43 111 45q25 0 42 -17q18 -18 18 -42q0 -25 -18 -42q-17 -18 -42 -18
q-66 0 -110 44q-29 -39 -29 -85q0 -58 41 -99t99 -41v-20q-66 0 -113 47t-47 113q0 55 35 100q-36 42 -36 101q0 66 47 113t113 47h291q37 0 63 26q27 27 27 64q0 65 -64 86q-8 2 -26 4v20q16 0 28 -4q67 -14 112 -67q45 -55 45 -124v-350zM235 480h20v-305q0 -70 48 -121
q47 -50 117 -54v-20q-78 4 -131 60q-54 56 -54 135v305zM177 232q12 12 12 28q0 15 -12 27q-11 11 -27 12q-58 0 -98 -40q41 -39 97 -39q17 0 28 12zM420 700q-66 -4 -112 -50q-47 -46 -53 -110h-20q6 72 58 124q53 52 127 56v-20z" />
    <glyph glyph-name="P.ss01" horiz-adv-x="640" 
d="M161 189q-66 0 -113 47t-47 113q0 55 35 100q-36 42 -36 101q0 66 47 113t113 47h110v-310h-20v290h-90q-58 0 -99 -41t-41 -99q0 -49 29 -86q45 43 111 45q25 0 42 -17q18 -18 18 -42q0 -25 -18 -42q-17 -18 -42 -18q-66 0 -110 44q-29 -39 -29 -85q0 -58 41 -99t99 -41
v-20zM290 690v20h155q72 0 124 -51q51 -52 51 -124q0 -73 -51 -124q-52 -51 -124 -51h-175v-350h90v-20h-200v20h90v370h195q64 0 109 45q46 46 46 110t-46 109q-45 46 -109 46h-155zM188 422q12 12 12 28q0 15 -12 27q-11 11 -27 12q-58 0 -98 -40q41 -39 97 -39
q17 0 28 12z" />
    <glyph glyph-name="Q.ss01" horiz-adv-x="663" 
d="M626 175q0 -60 -34 -110l-14 15q28 42 28 95v350q0 89 -72 141q16 -27 16 -56q0 -46 -32 -78q-33 -32 -78 -32h-291q-58 0 -99 -41t-41 -99q0 -49 29 -86q45 43 111 45q25 0 42 -17q18 -18 18 -42q0 -25 -18 -42q-17 -18 -42 -18q-66 0 -110 44q-29 -39 -29 -85
q0 -58 41 -99t99 -41v-20q-66 0 -113 47t-47 113q0 55 35 100q-36 42 -36 101q0 66 47 113t113 47h291q37 0 63 26q27 27 27 64q0 70 -68 87l-22 3v20q15 0 27 -4q68 -13 113 -67q46 -54 46 -124v-350zM459 143l14 14l160 -160l-14 -14l-53 52q-57 -55 -135 -55
q-81 0 -138 57t-57 138v305h20v-305q0 -73 51 -124t124 -51q70 0 121 49zM177 232q12 12 12 28q0 15 -12 27q-11 11 -27 12q-58 0 -98 -40q41 -39 97 -39q17 0 28 12zM420 699q-65 -4 -112 -49q-46 -46 -52 -110h-20q6 72 58 124q53 52 126 56v-21z" />
    <glyph glyph-name="R.ss01" horiz-adv-x="658" 
d="M161 189q-66 0 -113 47t-47 113q0 55 35 100q-36 42 -36 101q0 66 47 113t113 47h110v-310h-20v290h-90q-58 0 -99 -41t-41 -99q0 -49 29 -86q45 43 111 45q25 0 42 -17q18 -18 18 -42q0 -25 -18 -42q-17 -18 -42 -18q-66 0 -110 44q-29 -39 -29 -85q0 -58 41 -99t99 -41
v-20zM290 690v20h155q72 0 124 -51q51 -52 51 -124q0 -71 -49 -122q-49 -50 -119 -53h-182v-350h90v-20h-200v20h90v370h195q64 0 109 45q46 46 46 110t-46 109q-45 46 -109 46h-155zM1161 -310v-20q-184 0 -343 109q-127 88 -231 240q-77 113 -130 239q-23 50 -33 82h22
q54 -161 158 -310q233 -340 557 -340zM188 422q12 12 12 28q0 15 -12 27q-11 11 -27 12q-58 0 -98 -40q41 -39 97 -39q17 0 28 12z" />
    <glyph glyph-name="T.ss01" horiz-adv-x="579" 
d="M161 189q-66 0 -113 47t-47 113q0 55 35 100q-36 42 -36 101q0 66 47 113t113 47h389v-110h-20v90h-369q-58 0 -99 -41t-41 -99q0 -49 29 -86q45 43 111 45q25 0 42 -17q18 -18 18 -42q0 -25 -18 -42q-17 -18 -42 -18q-66 0 -110 44q-29 -39 -29 -85q0 -58 41 -99t99 -41
v-20zM454 -10h-200v20h90v660h20v-660h90v-20zM188 422q12 12 12 28q0 15 -12 27q-11 11 -27 12q-58 0 -98 -40q41 -39 97 -39q17 0 28 12z" />
    <glyph glyph-name="U.ss01" horiz-adv-x="770" 
d="M161 189q-66 0 -113 47t-47 113q0 55 35 100q-36 42 -36 101q0 66 47 113t113 47h200v-20h-90v-515q0 -70 48 -121q47 -50 117 -54v-20q-78 4 -131 60q-54 56 -54 135v515h-90q-58 0 -99 -41t-41 -99q0 -49 29 -86q45 43 111 45q25 0 42 -17q18 -18 18 -42q0 -25 -18 -42
q-17 -18 -42 -18q-66 0 -110 44q-29 -39 -29 -85q0 -58 41 -99t99 -41v-20zM730 690h-90v-515q0 -78 -54 -135q-54 -56 -131 -60v20q69 4 117 54q48 51 48 121v515h-90v20h200v-20zM188 422q12 12 12 28q0 15 -12 27q-11 11 -27 12q-58 0 -98 -40q41 -39 97 -39q17 0 28 12z
" />
    <glyph glyph-name="V.ss01" horiz-adv-x="780" 
d="M161 189q-66 0 -113 47t-47 113q0 55 35 100q-36 42 -36 101q0 66 47 113t113 47h200v-20h-88l198 -690l-10 -37l-208 727h-92q-58 0 -99 -41t-41 -99q0 -49 29 -86q45 43 111 45q25 0 42 -17q18 -18 18 -42q0 -25 -18 -42q-17 -18 -42 -18q-66 0 -110 44
q-29 -39 -29 -85q0 -58 41 -99t99 -41v-20zM646 690h-86v20h200v-20h-93l-186 -653l-11 35zM188 422q12 12 12 28q0 15 -12 27q-11 11 -27 12q-58 0 -98 -40q41 -39 97 -39q17 0 28 12z" />
    <glyph glyph-name="W.ss01" horiz-adv-x="1200" 
d="M161 189q-66 0 -113 47t-47 113q0 55 35 100q-36 42 -36 101q0 66 47 113t113 47h200v-20h-86l216 -688l-10 -37l-228 725h-92q-58 0 -99 -41t-41 -99q0 -49 29 -86q45 43 111 45q25 0 42 -17q18 -18 18 -42q0 -25 -18 -42q-17 -18 -42 -18q-66 0 -110 44
q-29 -39 -29 -85q0 -58 41 -99t99 -41v-20zM890 0l-10 -37l-200 699l-180 -625l-10 33l176 620h-86v20h200v-20h-88zM1066 690h-86v20h200v-20h-93l-186 -654l-11 36zM188 422q12 12 12 28q0 15 -12 27q-11 11 -27 12q-58 0 -98 -40q41 -39 97 -39q17 0 28 12z" />
    <glyph glyph-name="X.ss01" horiz-adv-x="780" 
d="M161 189q-66 0 -113 47t-47 113q0 55 35 100q-36 42 -36 101q0 66 47 113t113 47h200v-20h-83l388 -680h95v-20h-200v20h82l-388 680h-94q-58 0 -99 -41t-41 -99q0 -49 29 -86q45 43 111 45q25 0 42 -17q18 -18 18 -42q0 -25 -18 -42q-17 -18 -42 -18q-66 0 -110 44
q-29 -39 -29 -85q0 -58 41 -99t99 -41v-20zM642 690h-82v20h200v-20h-94l-183 -320l-12 21zM360 10v-20h-200v20h94l182 319l12 -21l-171 -298h83zM188 422q12 12 12 28q0 15 -12 27q-11 11 -27 12q-58 0 -98 -40q41 -39 97 -39q17 0 28 12z" />
    <glyph glyph-name="Y.ss01" horiz-adv-x="780" 
d="M560 -10h-200v20h90v343l193 337h-83v20h200v-20h-94l-196 -344v-336h90v-20zM160 690v20h200v-20h-83l171 -300l-11 -19l-182 319h-95zM161 189q-66 0 -113 47t-47 113q0 55 35 100q-36 42 -36 101q0 66 47 113t113 47v-20q-58 0 -99 -41t-41 -99q0 -49 29 -86
q45 43 111 45q25 0 42 -17q18 -18 18 -42q0 -25 -18 -42q-17 -18 -42 -18q-66 0 -110 44q-29 -39 -29 -85q0 -58 41 -99t99 -41v-20zM188 422q12 12 12 28q0 15 -12 27q-11 11 -27 12q-58 0 -98 -40q41 -39 97 -39q17 0 28 12z" />
    <glyph glyph-name="H.ss02" horiz-adv-x="769" 
d="M608 209q58 0 99 41t41 99q0 46 -29 85q-44 -44 -110 -44q-25 0 -42 18q-18 17 -18 42q0 24 18 42q17 17 42 17q66 -2 111 -45q29 37 29 86q0 58 -41 99t-99 41h-90v-300h-20v300h-90v20h200q66 0 113 -47t47 -113q0 -59 -36 -101q35 -45 35 -100q0 -66 -47 -113
t-113 -47v20zM240 690h-90v-680h90v-20h-200v20h90v680h-90v20h200v-20zM170 370h349v-360h90v-20h-200v20h90v340h-329v20zM706 449q-40 40 -98 40q-16 -1 -27 -12q-12 -12 -12 -27q0 -16 12 -28t28 -12q56 0 97 39z" />
    <glyph glyph-name="I.ss02" horiz-adv-x="400" 
d="M239 209q58 0 99 41t41 99q0 46 -29 85q-44 -44 -110 -44q-25 0 -42 18q-18 17 -18 42q0 24 18 42q17 17 42 17q66 -2 111 -45q29 37 29 86q0 58 -41 99t-99 41h-200v20h200q66 0 113 -47t47 -113q0 -59 -36 -101q35 -45 35 -100q0 -66 -47 -113t-113 -47v20zM240 10v-20
h-200v20h90v659h20v-659h90zM337 449q-40 40 -98 40q-16 -1 -27 -12q-12 -12 -12 -27q0 -16 12 -28t28 -12q56 0 97 39z" />
    <glyph glyph-name="J.ss02" horiz-adv-x="631" 
d="M470 209q58 0 99 41t41 99q0 46 -29 85q-44 -44 -110 -44q-25 0 -42 18q-18 17 -18 42q0 24 18 42q17 17 42 17q66 -2 111 -45q29 37 29 86q0 58 -41 99t-99 41h-200v20h200q66 0 113 -47t47 -113q0 -59 -36 -101q35 -45 35 -100q0 -66 -47 -113t-113 -47v20zM23 78l-3 5
l42 85l18 -9l-37 -74q53 -75 143 -75q73 0 124 51t51 124v484h20v-484q0 -81 -57 -138t-138 -57q-105 0 -163 88zM568 449q-40 40 -98 40q-16 -1 -27 -12q-12 -12 -12 -27q0 -16 12 -28t28 -12q56 0 97 39z" />
    <glyph glyph-name="K.ss02" horiz-adv-x="740" 
d="M579 209q58 0 99 41t41 99q0 46 -29 85q-44 -44 -110 -44q-25 0 -42 18q-18 17 -18 42q0 24 18 42q17 17 42 17q66 -2 111 -45q29 37 29 86q0 58 -41 99t-99 41h-96l-314 -314v28l286 286h-76v20h200q66 0 113 -47t47 -113q0 -59 -36 -101q35 -45 35 -100q0 -66 -47 -113
t-113 -47v20zM240 690h-90v-680h90v-20h-200v20h90v680h-90v20h200v-20zM513 10h96v-20h-200v20h76l-315 306v28zM677 449q-40 40 -98 40q-16 -1 -27 -12q-12 -12 -12 -27q0 -16 12 -28t28 -12q56 0 97 39z" />
    <glyph glyph-name="M.ss02" horiz-adv-x="880" 
d="M719 209q58 0 99 41t41 99q0 46 -29 85q-44 -44 -110 -44q-25 0 -42 18q-18 17 -18 42q0 24 18 42q17 17 42 17q66 -2 111 -45q29 37 29 86q0 58 -41 99t-99 41h-90v-680h90v-20h-200v20h90v630l-209 -611l-11 30l223 651h107q66 0 113 -47t47 -113q0 -59 -36 -101
q35 -45 35 -100q0 -66 -47 -113t-113 -47v20zM240 10v-20h-200v20h90v680h-90v20h107l3 -9v-691h90zM370 -3l-200 584v61l220 -645h-20zM817 449q-40 40 -98 40q-16 -1 -27 -12q-12 -12 -12 -27q0 -16 12 -28t28 -12q56 0 97 39z" />
    <glyph glyph-name="N.ss02" horiz-adv-x="779" 
d="M618 209q58 0 99 41t41 99q0 46 -29 85q-44 -44 -110 -44q-25 0 -42 18q-18 17 -18 42q0 24 18 42q17 17 42 17q66 -2 111 -45q29 37 29 86q0 58 -41 99t-99 41h-89v-646l-20 38v608h-91v20h200q66 0 113 -47t47 -113q0 -59 -36 -101q35 -45 35 -100q0 -66 -47 -113
t-113 -47v20zM160 710v-700h90v-20h-200v20h90v680h-100v20h120zM180 621v43l350 -663v-11h-16zM716 449q-40 40 -98 40q-16 -1 -27 -12q-12 -12 -12 -27q0 -16 12 -28t28 -12q56 0 97 39z" />
    <glyph glyph-name="U.ss02" horiz-adv-x="769" 
d="M608 209q58 0 99 41t41 99q0 46 -29 85q-44 -44 -110 -44q-25 0 -42 18q-18 17 -18 42q0 24 18 42q17 17 42 17q66 -2 111 -45q29 37 29 86q0 57 -41 98t-98 42h-90v-515q0 -78 -54 -135q-54 -56 -131 -60v20q69 4 117 54q48 51 48 121v515h-90v20h199q66 0 113 -47
t47 -113q0 -59 -36 -101q35 -45 35 -100q0 -66 -47 -113t-113 -47v20zM130 690h-90v20h200v-20h-90v-515q0 -70 48 -121q47 -50 117 -54v-20q-78 4 -131 60q-54 56 -54 135v515zM706 449q-40 40 -98 40q-16 -1 -27 -12q-12 -12 -12 -27q0 -16 12 -28t28 -12q56 0 97 39z" />
    <glyph glyph-name="W.ss02" horiz-adv-x="1200" 
d="M1039 209q58 0 99 41t41 99q0 46 -29 85q-44 -44 -110 -44q-25 0 -42 18q-18 17 -18 42q0 24 18 42q17 17 42 17q66 -2 111 -45q29 37 29 86q0 58 -41 99t-99 41h-93l-186 -654l-11 36l176 618h-86v20h200q66 0 113 -47t47 -113q0 -59 -36 -101q35 -45 35 -100
q0 -66 -47 -113t-113 -47v20zM750 0l-10 -37l-200 699l-180 -625l-10 33l176 620h-86v20h200v-20h-88zM350 2l-10 -37l-228 725h-92v20h200v-20h-86zM1137 449q-40 40 -98 40q-16 -1 -27 -12q-12 -12 -12 -27q0 -16 12 -28t28 -12q56 0 97 39z" />
    <glyph glyph-name="X.ss02" horiz-adv-x="780" 
d="M619 209q58 0 99 41t41 99q0 46 -29 85q-44 -44 -110 -44q-25 0 -42 18q-18 17 -18 42q0 24 18 42q17 17 42 17q66 -2 111 -45q29 37 29 86q0 58 -41 99t-99 41h-94l-183 -320l-12 21l171 299h-82v20h200q66 0 113 -47t47 -113q0 -59 -36 -101q35 -45 35 -100
q0 -66 -47 -113t-113 -47v20zM620 -10h-200v20h82l-388 680h-94v20h200v-20h-83l388 -680h95v-20zM220 10v-20h-200v20h94l182 319l12 -21l-171 -298h83zM717 449q-40 40 -98 40q-16 -1 -27 -12q-12 -12 -12 -27q0 -16 12 -28t28 -12q56 0 97 39z" />
    <glyph glyph-name="Y.ss02" horiz-adv-x="780" 
d="M619 209q58 0 99 41t41 99q0 46 -29 85q-44 -44 -110 -44q-25 0 -42 18q-18 17 -18 42q0 24 18 42q17 17 42 17q66 -2 111 -45q29 37 29 86q0 58 -41 99t-99 41h-94l-196 -344v-336h90v-20h-200v20h90v343l193 337h-83v20h200q66 0 113 -47t47 -113q0 -59 -36 -101
q35 -45 35 -100q0 -66 -47 -113t-113 -47v20zM20 690v20h200v-20h-83l171 -300l-11 -19l-182 319h-95zM717 449q-40 40 -98 40q-16 -1 -27 -12q-12 -12 -12 -27q0 -16 12 -28t28 -12q56 0 97 39z" />
    <glyph glyph-name="glyph87" horiz-adv-x="512" 
d="M440 710h23l-369 -700h342v90h20v-110h-395zM87 600h-20v110h350l-10 -20h-320v-90z" />
    <glyph glyph-name="O.ss02" horiz-adv-x="685" 
d="M60 525q0 70 45 124q44 53 113 67q11 4 27 4v-20q-16 -2 -25 -4q-65 -19 -65 -86q0 -37 27 -64q26 -26 63 -26h271q66 0 113 -47t47 -113q0 -59 -36 -101q35 -45 35 -100q0 -66 -47 -113t-113 -47v20q58 0 99 41t41 99q0 46 -29 85q-44 -44 -110 -44q-25 0 -42 18
q-18 17 -18 42q0 24 18 42q17 17 42 17q66 -2 111 -45q29 37 29 86q0 58 -41 99t-99 41h-271q-45 0 -77 32q-33 32 -33 78q0 31 15 55q-70 -52 -70 -140v-350q0 -70 48 -121q47 -50 117 -54v-20q-78 4 -131 60q-54 56 -54 135v350zM265 0q69 4 117 54q48 51 48 121v305h20
v-305q0 -78 -54 -135q-54 -56 -131 -60v20zM613 259q-40 40 -98 40q-16 -1 -27 -12q-12 -12 -12 -27q0 -16 12 -28t28 -12q56 0 97 39zM265 720q73 -5 126 -56q53 -52 58 -124h-20q-5 64 -52 110q-47 45 -112 50v20z" />
    <glyph glyph-name="Q.ss02" horiz-adv-x="675" 
d="M283 143l14 14l160 -160l-14 -14l-53 52q-57 -55 -135 -55q-81 0 -138 57t-57 138v350q0 70 44 124q44 53 112 67q12 4 28 4v-21q-20 -2 -30 -4q-60 -22 -60 -85q0 -37 27 -64q26 -26 63 -26h271q66 0 113 -47t47 -113q0 -59 -36 -101q35 -45 35 -100q0 -66 -47 -113
t-113 -47v20q58 0 99 41t41 99q0 46 -29 85q-44 -44 -110 -44q-25 0 -42 18q-18 17 -18 42q0 24 18 42q17 17 42 17q66 -2 111 -45q29 37 29 86q0 58 -41 99t-99 41h-271q-45 0 -77 32q-33 32 -33 78q0 28 14 53q-68 -52 -68 -138v-350q0 -73 51 -124t124 -51q70 0 121 49z
M402 80q28 42 28 95v305h20v-305q0 -60 -34 -110zM612 259q-40 40 -98 40q-16 -1 -27 -12q-12 -12 -12 -27q0 -16 12 -28t28 -12q56 0 97 39zM264 720q73 -4 127 -55q53 -52 58 -125h-20q-5 65 -52 110q-48 46 -113 50v20z" />
    <glyph glyph-name="T.ss02" horiz-adv-x="569" 
d="M408 209q58 0 99 41t41 99q0 46 -29 85q-44 -44 -110 -44q-25 0 -42 18q-18 17 -18 42q0 24 18 42q17 17 42 17q66 -2 111 -45q29 37 29 86q0 58 -41 99t-99 41h-369v-90h-20v110h389q66 0 113 -47t47 -113q0 -59 -36 -101q35 -45 35 -100q0 -66 -47 -113t-113 -47v20z
M314 -10h-200v20h90v660h20v-660h90v-20zM506 449q-40 40 -98 40q-16 -1 -27 -12q-12 -12 -12 -27q0 -16 12 -28t28 -12q56 0 97 39z" />
    <glyph glyph-name="A.ss04" horiz-adv-x="623" 
d="M593 -10h-200v20h90l1 240h-213l12 20h221l-1 -260h90v-20zM486 662l-376 -652h90v-20h-200v20h87l403 700h16l-2 -420h-20z" />
    <glyph glyph-name="A.ss05" horiz-adv-x="623" 
d="M30 10h90l-1 260h221l12 -20h-213l1 -240h90v-20h-200v20zM139 290h-20l-2 420h16l403 -700h87v-20h-200v20h90l-376 652z" />
    <glyph glyph-name="E.ss04" horiz-adv-x="439" 
d="M363 541l-18 9l37 75q-53 75 -143 75q-66 0 -113 -47t-47 -114q0 -66 47 -113t113 -47h94l-14 -20h-88q-72 3 -122 55q-50 53 -50 125q0 75 53 128t127 53q106 0 163 -89l3 -4zM399 10v90h20v-110h-369l232 349h24l-219 -329h312z" />
    <glyph glyph-name="o.ss05" horiz-adv-x="515" 
d="M105 265q-43 -75 -130 -75v20q54 0 92 38t38 92q4 68 52 117q49 49 118 53v-21q-63 -4 -106 -50q-44 -46 -44 -109v-160q0 -64 44 -110q43 -45 106 -50v-20q-71 4 -121 56q-49 52 -49 124v95zM445 330q0 63 -44 109t-106 50v21q71 -4 120 -56q50 -53 50 -124v-170
q-4 -69 -53 -118q-49 -48 -117 -52v20q61 4 104 48t46 105v167z" />
    <glyph glyph-name="y.ss05" horiz-adv-x="515" 
d="M445 500h20v-660q-4 -71 -56 -120q-53 -50 -124 -50q-74 0 -127 53t-53 127h20q0 -66 47 -113t113 -47q64 0 111 45q46 45 49 109v656zM158 43q-53 53 -53 127v255q-43 -75 -130 -75v20q52 0 90 36t40 88v6h20v-330q0 -66 47 -113t113 -47q94 0 140 83v-37
q-53 -66 -140 -66q-74 0 -127 53z" />
    <glyph glyph-name="R.ss02" horiz-adv-x="500" 
d="M151 690v20h155q72 0 124 -51q51 -52 51 -124q0 -71 -49 -122q-49 -50 -119 -53h-182v-350h90v-20h-200q-99 0 -169 -70t-70 -169q0 -98 70 -168t169 -70v-20q-107 0 -183 76t-76 182q0 107 76 183t183 76h90v370h195q64 0 109 45q46 46 46 110t-46 109q-45 46 -109 46
h-155zM1022 -310v-20q-184 0 -343 109q-127 88 -231 240q-77 113 -130 239q-23 50 -33 82h22q54 -161 158 -310q233 -340 557 -340zM111 690h-90v20h110v-310h-20v290z" />
    <glyph glyph-name="A.ss03" horiz-adv-x="660" 
d="M175 360q-73 0 -124 51t-51 124q0 72 51 124q51 51 124 51h193l2 -12l117 -408h-21l-106 373l-187 -653h87v-20h-200v20h92l195 680h-172q-64 0 -110 -46q-45 -45 -45 -109t45 -110q46 -45 110 -45v-20zM267 270h225l75 -260h93v-20h-200v20h87l-69 240h-216z" />
    <glyph glyph-name="B.ss03" horiz-adv-x="705" 
d="M285 360v-370h-110v20h90v370h195q64 0 109 45q46 46 46 110t-46 109q-45 46 -109 46h-155v20h155q72 0 124 -51q51 -52 51 -124q0 -56 -32 -102q-32 -44 -83 -63q59 -19 97 -70t38 -115q0 -81 -57 -138q-58 -57 -138 -57h-155v20h155q72 0 124 51q51 51 51 124
q0 72 -51 124q-52 51 -124 51h-175zM175 360q-73 0 -124 51t-51 124q0 72 51 124q51 51 124 51h110v-310h-20v290h-90q-64 0 -110 -46q-45 -45 -45 -109t45 -110q46 -45 110 -45v-20z" />
    <glyph glyph-name="D.ss03" horiz-adv-x="715" 
d="M175 10h285q72 0 124 51q51 51 51 124v330q0 72 -51 124q-52 51 -124 51h-155v20h155q81 0 138 -57q57 -58 57 -138v-330q0 -81 -57 -138t-138 -57h-285v20zM175 360q-73 0 -124 51t-51 124q0 72 51 124q51 51 124 51h110v-680h-20v660h-90q-64 0 -110 -46
q-45 -45 -45 -109t45 -110q46 -45 110 -45v-20z" />
    <glyph glyph-name="E.ss03" horiz-adv-x="675" 
d="M525 370v90h20v-200h-20v90h-240v-340h350v90h20v-110h-480v20h90v360h260zM175 360q-73 0 -124 51t-51 124q0 72 51 124q51 51 124 51h110v-320h-20v300h-90q-64 0 -110 -46q-45 -45 -45 -109t45 -110q46 -45 110 -45v-20zM655 600h-20v90h-330v20h350v-110z" />
    <glyph glyph-name="F.ss03" horiz-adv-x="665" 
d="M525 370v90h20v-200h-20v90h-240v-340h82v-20h-200v20h98v360h260zM175 360q-73 0 -124 51t-51 124q0 72 51 124q51 51 124 51h111v-20h-1v-300h-20v300h-90q-64 0 -110 -46q-45 -45 -45 -109t45 -110q46 -45 110 -45v-20zM655 600h-20v90h-329v20h349v-110z" />
    <glyph glyph-name="H.ss03" horiz-adv-x="784" 
d="M175 360q-73 0 -124 51t-51 124q0 72 51 124q51 51 124 51h200v-20h-90v-680h90v-20h-200v20h90v680h-90q-64 0 -110 -46q-45 -45 -45 -109t45 -110q46 -45 110 -45v-20zM305 370h349v-360h90v-20h-200v20h90v340h-329v20zM634 690h-90v20h200v-20h-90v-300h-20v300z" />
    <glyph glyph-name="I.ss03" horiz-adv-x="415" 
d="M375 10v-20h-200v20h90v659h20v-659h90zM175 360q-73 0 -124 51t-51 124q0 72 51 124q51 51 124 51h200v-20h-200q-64 0 -110 -46q-45 -45 -45 -109t45 -110q46 -45 110 -45v-20z" />
    <glyph glyph-name="J.ss03" horiz-adv-x="481" 
d="M3 78l-3 5l42 85l18 -9l-37 -74q53 -75 143 -75q73 0 124 51t51 124v484h20v-484q0 -81 -57 -138t-138 -57q-105 0 -163 88zM251 690v20h200v-20h-200zM251 360q-73 0 -124 51t-51 124q0 72 51 124q51 51 124 51v-20q-64 0 -110 -46q-45 -45 -45 -109t45 -110
q46 -45 110 -45v-20z" />
    <glyph glyph-name="K.ss03" horiz-adv-x="744" 
d="M175 360q-73 0 -124 51t-51 124q0 72 51 124q51 51 124 51h200v-20h-90v-680h90v-20h-200v20h90v680h-90q-64 0 -110 -46q-45 -45 -45 -109t45 -110q46 -45 110 -45v-20zM648 10h96v-20h-200v20h76l-315 306v28zM591 690h-76v20h200v-20h-96l-314 -314v28z" />
    <glyph glyph-name="L.ss03" horiz-adv-x="636" 
d="M175 360q-73 0 -124 51t-51 124q0 72 51 124q51 51 124 51h110v-680h-20v660h-90q-64 0 -110 -46q-45 -45 -45 -109t45 -110q46 -45 110 -45v-20zM175 10h431v90h20v-110h-451v20z" />
    <glyph glyph-name="M.ss03" horiz-adv-x="895" 
d="M855 -10h-200v20h90v630l-209 -611l-11 30l223 651h107v-20h-90v-680h90v-20zM175 360q-73 0 -124 51t-51 124q0 72 51 124q51 51 124 51h107l3 -9v-691h90v-20h-200v20h90v680h-90q-64 0 -110 -46q-45 -45 -45 -109t45 -110q46 -45 110 -45v-20zM505 -3l-200 584v61
l220 -645h-20z" />
    <glyph glyph-name="N.ss03" horiz-adv-x="794" 
d="M175 360q-73 0 -124 51t-51 124q0 72 51 124q51 51 124 51h120v-700h90v-20h-200v20h90v680h-100q-64 0 -110 -46q-45 -45 -45 -109t45 -110q46 -45 110 -45v-20zM754 690h-89v-646l-20 38v608h-91v20h200v-20zM315 621v43l350 -663v-11h-16z" />
    <glyph glyph-name="O.ss03" horiz-adv-x="700" 
d="M640 175q0 -78 -54 -135q-54 -56 -131 -60v20q69 4 117 54q48 51 48 121v350q0 84 -70 139q15 -27 15 -54q0 -46 -32 -78q-33 -32 -78 -32h-280q-64 0 -110 -46q-45 -45 -45 -109t45 -110q46 -45 110 -45v-20q-73 0 -124 51t-51 124q0 72 51 124q51 51 124 51h280
q37 0 63 26q27 27 27 64q0 65 -64 86q-8 2 -26 4v20q16 0 28 -4q67 -14 112 -67q45 -55 45 -124v-350zM250 480h20v-305q0 -70 48 -121q47 -50 117 -54v-20q-78 4 -131 60q-54 56 -54 135v305zM435 700q-66 -4 -112 -50q-47 -46 -53 -110h-20q6 72 58 124q53 52 127 56v-20z
" />
    <glyph glyph-name="P.ss03" horiz-adv-x="655" 
d="M305 690v20h155q72 0 124 -51q51 -52 51 -124q0 -73 -51 -124q-52 -51 -124 -51h-175v-350h90v-20h-200v20h90v370h195q64 0 109 45q46 46 46 110t-46 109q-45 46 -109 46h-155zM175 360q-73 0 -124 51t-51 124q0 72 51 124q51 51 124 51h110v-310h-20v290h-90
q-64 0 -110 -46q-45 -45 -45 -109t45 -110q46 -45 110 -45v-20z" />
    <glyph glyph-name="Q.ss03" horiz-adv-x="705" 
d="M641 175q0 -60 -34 -110l-14 15q28 42 28 95v350q0 89 -72 141q16 -27 16 -56q0 -46 -32 -78q-33 -32 -78 -32h-280q-64 0 -110 -46q-45 -45 -45 -109t45 -110q46 -45 110 -45v-20q-73 0 -124 51t-51 124q0 72 51 124q51 51 124 51h280q37 0 63 26q27 27 27 64
q0 70 -68 87l-22 3v20q15 0 27 -4q68 -13 113 -67q46 -54 46 -124v-350zM474 143l14 14l160 -160l-14 -14l-53 52q-57 -55 -135 -55q-81 0 -138 57t-57 138v305h20v-305q0 -73 51 -124t124 -51q70 0 121 49zM435 699q-65 -4 -112 -49q-46 -46 -52 -110h-20q6 72 58 124
q53 52 126 56v-21z" />
    <glyph glyph-name="R.ss03" horiz-adv-x="745" 
d="M305 690v20h155q72 0 124 -51q51 -52 51 -124q0 -71 -49 -122q-49 -50 -119 -53h-182v-350h90v-20h-200v20h90v370h195q64 0 109 45q46 46 46 110t-46 109q-45 46 -109 46h-155zM175 360q-73 0 -124 51t-51 124q0 72 51 124q51 51 124 51h110v-310h-20v290h-90
q-64 0 -110 -46q-45 -45 -45 -109t45 -110q46 -45 110 -45v-20zM631 10h94v-20h-200v20h83l-165 330h23z" />
    <glyph glyph-name="glyph113" horiz-adv-x="422" 
d="M371 590h-22l1 10h1v90h-174q-64 0 -110 -46q-45 -45 -45 -109q0 -103 158 -156q93 -30 137 -69q55 -49 55 -125q0 -81 -57 -138q-58 -57 -138 -57h-177l1 24h1v86h20v-90h155q72 0 124 51q51 51 51 124q0 117 -179 175q-77 26 -118 61q-53 47 -53 114q0 72 51 124
q51 51 124 51h194v-120z" />
    <glyph glyph-name="T.ss03" horiz-adv-x="584" 
d="M175 690v20h389v-110h-20v90h-369zM469 -10h-200v20h90v660h20v-660h90v-20zM175 360q-73 0 -124 51t-51 124q0 72 51 124q51 51 124 51v-20q-64 0 -110 -46q-45 -45 -45 -109t45 -110q46 -45 110 -45v-20z" />
    <glyph glyph-name="U.ss03" horiz-adv-x="775" 
d="M175 360q-73 0 -124 51t-51 124q0 72 51 124q51 51 124 51h200v-20h-90v-515q0 -70 48 -121q47 -50 117 -54v-20q-78 4 -131 60q-54 56 -54 135v515h-90q-64 0 -110 -46q-45 -45 -45 -109t45 -110q46 -45 110 -45v-20zM745 690h-90v-515q0 -78 -54 -135q-54 -56 -131 -60
v20q69 4 117 54q48 51 48 121v515h-90v20h200v-20z" />
    <glyph glyph-name="V.ss03" horiz-adv-x="785" 
d="M175 360q-73 0 -124 51t-51 124q0 72 51 124q51 51 124 51h200v-20h-88l198 -690l-10 -37l-208 727h-92q-64 0 -110 -46q-45 -45 -45 -109t45 -110q46 -45 110 -45v-20zM661 690h-86v20h200v-20h-93l-186 -653l-11 35z" />
    <glyph glyph-name="W.ss03" horiz-adv-x="1205" 
d="M905 0l-10 -37l-200 699l-180 -625l-10 33l176 620h-86v20h200v-20h-88zM175 360q-73 0 -124 51t-51 124q0 72 51 124q51 51 124 51h200v-20h-86l216 -688l-10 -37l-228 725h-92q-64 0 -110 -46q-45 -45 -45 -109t45 -110q46 -45 110 -45v-20zM1081 690h-86v20h200v-20
h-93l-186 -654l-11 36z" />
    <glyph glyph-name="X.ss03" horiz-adv-x="784" 
d="M175 360q-73 0 -124 51t-51 124q0 72 51 124q51 51 124 51h199v-20h-83l388 -680h95v-20h-200v20h82l-388 680h-94q-64 -1 -109 -46q-45 -46 -45 -109q0 -64 45 -110q46 -45 110 -45v-20zM656 690h-82v20h200v-20h-94l-183 -320l-12 21zM374 10v-20h-200v20h94l182 319
l12 -21l-171 -298h83z" />
    <glyph glyph-name="Y.ss03" horiz-adv-x="785" 
d="M575 -10h-200v20h90v343l193 337h-83v20h200v-20h-94l-196 -344v-336h90v-20zM175 360q-73 0 -124 51t-51 124q0 72 51 124q51 51 124 51h200v-20h-83l171 -300l-11 -19l-182 319h-95q-64 0 -110 -46q-45 -45 -45 -109t45 -110q46 -45 110 -45v-20z" />
    <glyph glyph-name="Z.ss03" horiz-adv-x="590" 
d="M415 -10h-395l358 680h23l-348 -660h362v-20zM415 340q73 0 124 -51t51 -124q0 -72 -51 -123q-51 -52 -124 -52v20q64 0 110 46q45 45 45 109q0 65 -45 110t-110 45v20zM46 600h-20v110h396l-11 -20h-365v-90z" />
    <glyph glyph-name="glyph121" horiz-adv-x="275" 
d="M225 360q-73 0 -124 51t-51 124q0 72 51 124q51 51 124 51v-20q-64 0 -110 -46q-45 -45 -45 -109t45 -110q46 -45 110 -45v-20z" />
    <glyph glyph-name="O.ss04" horiz-adv-x="490" 
d="M440 300q0 -78 -54 -135q-53 -56 -130 -60v20q69 5 116 55q48 50 48 120v225q0 69 -48 120q-48 50 -116 54v21q77 -5 130 -61q54 -57 54 -134v-225zM50 525q0 78 54 135q54 56 132 60v-20q-70 -4 -118 -54q-48 -51 -48 -121v-225q0 -71 48 -121q48 -51 118 -54v-20
q-78 3 -132 60q-54 56 -54 135v225zM50 -10v20h389v-20h-389z" />
    <glyph glyph-name="A.ss02" horiz-adv-x="647" 
d="M486 209q58 0 99 41t41 99q0 46 -29 85q-44 -44 -110 -44q-25 0 -42 18q-18 17 -18 42q0 24 18 42q17 17 42 17q66 -2 111 -45q29 37 29 86q0 58 -41 99t-99 41h-175l115 -400h-21l-106 373l-187 -653h87v-20h-200v20h92l201 700h194q66 0 113 -47t47 -113
q0 -59 -36 -101q35 -45 35 -100q0 -66 -47 -113t-113 -47v20zM207 270h225l75 -260h93v-20h-200v20h87l-69 240h-216zM584 449q-40 40 -98 40q-16 -1 -27 -12q-12 -12 -12 -27q0 -16 12 -28t28 -12q56 0 97 39z" />
    <glyph glyph-name="R.ss04" horiz-adv-x="610" 
d="M150 10h90v-20h-200v20h90v680h-90v20h110v-439q39 78 120 101l9 -18q-57 -16 -93 -62q-36 -47 -36 -107v-175zM170 617v45l326 -652h94v-20h-200v20h83zM170 690v20h155q72 0 124 -51q51 -52 51 -124q0 -68 -45 -118q-46 -49 -112 -56l-10 19q61 3 104 48t43 107
q0 64 -46 109q-45 46 -109 46h-155z" />
    <glyph glyph-name="B.ss04" horiz-adv-x="570" 
d="M150 185q0 -70 48 -121q47 -50 117 -54v-20h-275v20h90v660h20v-399q51 103 165 109v-20q-67 -4 -115 -53q-47 -49 -50 -115v-7zM40 690v20h285q72 0 124 -51q51 -52 51 -124q0 -56 -32 -102q-32 -44 -83 -63q59 -19 97 -70t38 -115q0 -78 -54 -135q-54 -56 -131 -60v20
q69 4 117 54q48 51 48 121q0 69 -48 120q-48 50 -117 55v20q60 4 103 48q42 45 42 107q0 64 -46 109q-45 46 -109 46h-285zM150 10h88q-59 29 -88 88v-88z" />
    <glyph glyph-name="glyph322" horiz-adv-x="510" 
d="M380 530h-20v109q0 54 -38 92t-92 38q-53 0 -91 -38t-38 -92q0 -52 36 -89q36 -38 87 -40h6v-20h-200v20h125q-74 44 -74 129q0 62 44 106q43 44 105 44t106 -44t44 -106v-109zM230 10v-20h-200v20h90v460h20v-460h90zM510 -10q-62 0 -106 44t-44 106v350h-70v20h90v-370
q0 -54 38 -92t92 -38v-20zM510 490h-110v20h110v-20z" />
    <glyph glyph-name="glyph362" horiz-adv-x="769" 
d="M608 209q58 0 99 41t41 99q0 46 -29 85q-44 -44 -110 -44q-25 0 -42 18q-18 17 -18 42q0 24 18 42q17 17 42 17q66 -2 111 -45q29 37 29 86q0 58 -41 99t-99 41h-92l-186 -653l-11 35l176 618h-86v20h199q66 0 113 -47t47 -113q0 -59 -36 -101q35 -45 35 -100
q0 -66 -47 -113t-113 -47v20zM310 -37l-208 727h-92v20h200v-20h-88l198 -690zM706 449q-40 40 -98 40q-16 -1 -27 -12q-12 -12 -12 -27q0 -16 12 -28t28 -12q56 0 97 39z" />
    <glyph glyph-name="glyph368" horiz-adv-x="566" 
d="M6 591h-90v-525q0 -78 -54 -135q-54 -56 -131 -60v20q69 4 117 54q48 51 48 121v525h-90v20h200v-20zM687 470h1q21 -10 44 -1q22 9 31 31t1 44q-9 22 -31 31q-21 10 -44 1l-9 21q32 12 62 -1q31 -13 43 -44q13 -31 -1 -62q-13 -30 -44 -42q-29 -12 -53 -5v27zM710 365
q0 63 -44 109t-106 50v21q71 -4 120 -56q50 -53 50 -124v-190q-4 -69 -53 -118q-49 -48 -117 -52v20q63 5 106 50q44 47 44 110v180zM370 365q0 71 49 124q50 52 121 56v-21q-63 -4 -106 -50q-44 -46 -44 -109v-180q0 -64 44 -110q43 -45 106 -50v-20q-71 4 -121 56
q-49 52 -49 124v180zM-645 634v-443q0 -78 -54 -135q-54 -56 -131 -60v20q69 4 117 54q48 51 48 121v443h20z" />
    <glyph glyph-name="glyph369" horiz-adv-x="360" 
d="M-49 318q0 -29 20 -50q21 -20 50 -20t49 20q21 21 21 50h20q0 -37 -26 -64q-26 -26 -64 -26q-37 0 -64 26q-26 27 -26 64h20zM-285 546l-174 135l-174 -135l-12 16l186 145l186 -145zM-39 503l-10 18l240 140l10 -18zM-436 408q-32 37 -61 37q-46 0 -72 -54l-18 8
q4 14 23 34q29 32 67 32q39 0 77 -44q30 -36 61 -36q46 0 72 54l18 -8q-5 -14 -24 -34q-29 -32 -66 -32q-39 0 -77 43zM-246 772l10 18l240 -140l-10 -18zM187 933q28 -9 41 -34q13 -26 4 -54q-18 -54 -76 -48l1 -51l-20 1l-1 76l14 -4q20 -6 38 3t25 29q6 20 -3 39
q-9 18 -29 24q-20 7 -39 -3q-18 -9 -24 -29l-19 6q9 28 34 41q26 13 54 4zM481 470h1q21 -10 44 -1q22 9 31 31t1 44q-9 22 -31 31q-21 10 -44 1l-9 21q32 12 62 -1q31 -13 43 -44q13 -31 -1 -62q-13 -30 -44 -42q-29 -12 -53 -5v27zM218 -113q19 -19 19 -45q0 -27 -19 -46
t-45 -19q-27 0 -46 19t-19 46q0 26 19 45t46 19q26 0 45 -19zM208 -194q15 15 15 36q0 20 -15 35t-35 15q-21 0 -36 -15t-15 -35q0 -21 15 -36t36 -15q20 0 35 15z" />
    </font>
</defs>
</svg>
