<?xml version="1.0" standalone="no"?>
<!DOCTYPE svg PUBLIC "-//W3C//DTD SVG 1.1//EN" "http://www.w3.org/Graphics/SVG/1.1/DTD/svg11.dtd" >
<svg xmlns="http://www.w3.org/2000/svg" xmlns:xlink="http://www.w3.org/1999/xlink" version="1.1">
<metadata>
Created by FontForge 20170731 at Fri Jul 19 18:55:15 2013
 By Aleksey,,,
Copyright (c) 2010 by Maximiliano R. Sproviero. All rights reserved.
</metadata>
<defs>
<font id="UVFBreathePro" horiz-adv-x="348" >
  <font-face 
    font-family="UVF Breathe Pro"
    font-weight="400"
    font-stretch="normal"
    units-per-em="1000"
    panose-1="2 0 0 0 0 0 0 0 0 0"
    ascent="750"
    descent="-250"
    x-height="314"
    cap-height="648"
    bbox="-1728.11 -869 3480 1207"
    underline-thickness="50"
    underline-position="-200"
    unicode-range="U+0021-1EEF1"
  />
<missing-glyph horiz-adv-x="180" 
 />
    <glyph glyph-name="fi" unicode="fi" horiz-adv-x="443" 
d="M356 637q41 0 69 -27t26 -68q-2 -29 -22 -52.5t-48 -23.5q-36 0 -38 29q0 2 0.5 4.5t0.5 3.5q14 -2 16 -2q32 0 53.5 20t21.5 45q0 27 -21 47t-58 20q-31 0 -58 -17.5t-47.5 -44.5t-40 -71t-33.5 -86t-30 -100h69l-1 -4h-69q-7 -26 -20 -73t-21 -75.5t-21 -72t-23 -71
t-25 -63.5t-28.5 -59t-31.5 -47.5t-37 -38t-42 -22.5t-48 -9q-39 0 -47 37q-8 39 20 67q27 27 70 15v-3q-50 14 -76 -27q-21 -35 -6 -64q12 -21 39 -21q32 0 59 23.5t46 58.5t38 92.5t32 108t32 123.5t33 121h-34l1 4h34q16 56 33.5 100.5t41.5 87.5t51 71.5t63 46t77 17.5z
M394 85q-7 -36 -28.5 -62.5t-53.5 -26.5q-34 0 -56.5 15.5t-22.5 45.5q0 14 4 25q3 10 9.5 33t10.5 35l30 105q15 51 62 51l1 4h-96l2 4h107l-72 -250q-5 -20 -5 -33q0 -31 26 -31q31 0 51 25t27 60h4z" />
    <glyph glyph-name="f_l" unicode="fl" horiz-adv-x="466" 
d="M-144 -184q19 17 49 31q43 27 62.5 64t42.5 124q53 213 77 275h-34l1 4h34q33 88 74 136.5t97 48.5q26 0 43.5 -18t17.5 -43q0 -28 -22 -52t-49 -24q-37 0 -37 29q0 1 0.5 4t0.5 4q14 -2 16 -2q31 0 52.5 19t21.5 43q0 14 -12 25t-32 11q-38 0 -64.5 -45.5t-53.5 -135.5
h125l-1 -4h-125q-12 -40 -35 -131.5t-36 -139.5q-21 -73 -55 -113.5t-87 -69.5q18 6 36 6q49 0 119.5 -37t132 -82t134 -82t124.5 -37q54 0 93.5 39t45.5 97q-23 29 -51 28q-8 0 -10 -1q10 22 35 24q16 0 26 -6q-7 44 -37.5 72t-76.5 28q-42 0 -72.5 -26.5t-35.5 -68.5
q-3 -36 20 -50t43 -6q6 -13 -2 -24t-25 -9q-18 2 -30 22.5t-12 47.5q0 51 34 84.5t80 33.5q48 0 80 -30.5t38 -76.5q28 -19 28 -55q0 -48 -44 -100t-121 -54q-41 0 -93 18q-53 13 -120.5 54t-119.5 81.5t-108.5 72.5t-93.5 32q-41 0 -83 -35h-5zM423 91q-4 -36 -27 -66
t-56 -30q-34 0 -57 16t-23 46q0 14 4 25q10 33 26 89.5t23 78.5q10 35 24 83.5t23 80t11 41.5q9 35 37 50q11 7 27 10l-1 5q-69 -19 -121 -5.5t-105.5 50t-94 74t-86.5 67t-84 29.5q-78 0 -130 -57t-52 -126q0 -58 32.5 -101t98.5 -43q40 0 73.5 25t41.5 63q18 -7 18 -27
q0 -30 -38 -49t-81 -19q-77 0 -113 45t-36 106q0 85 67.5 141t156.5 54q56 -2 109.5 -30t94.5 -64t80.5 -70t83 -52t86.5 -7q-56 6 -89 49t-27 87t45 52q19 5 30.5 -6t8.5 -24q-53 0 -64 -42q-11 -41 24 -78q34 -34 87 -34l-1 -4l-131 -461q-5 -20 -5 -32q0 -32 27 -32
q32 0 53.5 28t25.5 64h4zM438 -396q-4 0 -9 0.5t-9 0.5q37 -8 59 -8q71 2 109.5 43.5t38.5 78.5q-2 20 -11 36q-11 -69 -64.5 -110t-113.5 -41z" />
    <glyph glyph-name="M_i" unicode="Mi" horiz-adv-x="1168" 
d="M1120 85q-7 -36 -28.5 -62.5t-53.5 -26.5q-34 0 -56.5 15.5t-22.5 45.5q0 14 4 25q3 10 9.5 33t10.5 35l30 105q15 51 62 51l1 4h-96l2 4h107l-72 -250q-5 -20 -5 -33q0 -31 26 -31q31 0 51 25t27 60h4zM537 -177q32 9 64 4q73 25 120.5 124.5t109.5 329.5l38 141
q22 88 87 128q-138 -30 -272 -177q27 -94 19 -180.5t-44.5 -147.5t-81.5 -61q-46 0 -46 72q0 119 100 257q-33 149 -124 230l-162 -540h99l-2 -4h-201l2 4h98l162 543q-87 72 -215 72q-121 0 -210.5 -79.5t-89.5 -187.5q0 -79 51 -132t136 -53q76 0 123.5 39t47.5 95
q0 28 -9 47q3 15 24 15q11 0 18.5 -11.5t7.5 -30.5q0 -57 -64.5 -107.5t-147.5 -50.5q-87 0 -139 54t-52 135q0 111 90.5 191t213.5 80q85 0 154 -19.5t115.5 -54.5t77 -77t48.5 -94q136 149 280 178q51 29 119 29q38 0 63.5 -21.5t30.5 -52t-1.5 -60.5t-32 -51.5
t-61.5 -21.5q-48 0 -75.5 27t-26 59t26.5 48q14 11 29 3q-11 -28 -11.5 -57t15.5 -52t44 -23q35 0 58.5 20.5t29.5 49.5t0.5 58t-29.5 49.5t-60 20.5q-119 0 -156 -155l-36 -140q-102 -400 -279 -460q39 -8 76.5 -35t68 -61.5t60.5 -68t65.5 -59.5t70.5 -31q111 -16 177 61
q54 62 45 141q-8 82 -82 116q-27 12 -60 16q-71 8 -114 -44q-16 -22 -22 -51q-12 -9 -28 1q-10 8 -9 24t15 33q21 26 65 36.5t94 4.5q103 -12 135 -94q29 -72 -10 -148q-41 -80 -127 -98q-38 -8 -79 -2q-50 8 -100 37t-90 65t-78.5 71t-79 57.5t-77.5 21.5zM577 -12
q37 0 56 100t-1 219q-97 -134 -97 -251q0 -68 42 -68z" />
    <glyph glyph-name=".notdef" horiz-adv-x="180" 
 />
    <glyph glyph-name=".null" horiz-adv-x="0" 
 />
    <glyph glyph-name="nonmarkingreturn" horiz-adv-x="333" 
 />
    <glyph glyph-name="space" unicode="&#xa0;" horiz-adv-x="180" 
 />
    <glyph glyph-name="space" unicode=" " horiz-adv-x="180" 
 />
    <glyph glyph-name="exclam" unicode="!" horiz-adv-x="259" 
d="M29 28q2 15 14 25.5t27 10.5q13 0 21 -8.5t8 -21.5q0 -17 -11.5 -29t-28.5 -12q-30 0 -30 31v4zM191 622q7 35 42 35q14 0 20 -10.5t1 -24.5l-162 -496h-5z" />
    <glyph glyph-name="quotedbl" unicode="&#x22;" horiz-adv-x="291" 
d="M62 404q45 6 69 51t6 74q17 11 33 4t18 -28q3 -27 -33 -61t-92 -43zM171 404q45 6 69 51t6 74q17 11 33 4t18 -28q3 -27 -33 -61t-92 -43z" />
    <glyph glyph-name="numbersign" unicode="#" horiz-adv-x="473" 
d="M102 364h115l28 108h5l-29 -108h97l28 108h5l-29 -108h108v-5h-109l-26 -101h107v-5h-109l-28 -109h-5l28 109h-96l-28 -109h-5l28 109h-113v5h115l26 101h-113v5zM194 258h96l26 101h-96z" />
    <glyph glyph-name="dollar" unicode="$" horiz-adv-x="528" 
d="M168 258q-53 -11 -82.5 -55.5t-29.5 -94.5q0 -43 32.5 -74.5t84.5 -33.5l91 311q-27 40 -38 58t-24 50.5t-13 58.5q0 55 44 99t115 44q66 0 97 -27t31 -66q0 -36 -30.5 -68.5t-78.5 -32.5q-46 0 -51 38l-2 -1l-21 -73q7 -11 26 -40t28 -44.5t21.5 -41t18 -49t5.5 -47.5
q0 -75 -65.5 -124.5t-144.5 -49.5h-5l-26 -88h-5l26 88q-75 2 -117.5 45t-42.5 96q0 49 32 89t86 40q21 0 36 -4zM332 525l-10 -33q-2 -5 -2 -18q0 -43 46 -43q26 0 45.5 32.5t19.5 60.5q0 93 -82 93q-46 0 -76.5 -25.5t-30.5 -71.5q0 -49 47 -124l38 129h5zM334 144
q0 64 -66 162l-90 -307h4q67 0 109.5 42t42.5 103z" />
    <glyph glyph-name="percent" unicode="%" horiz-adv-x="540" 
d="M419 300q63 0 74 -57q10 -55 -30 -110q-42 -59 -105 -59q-62 0 -73 57q-9 54 31 110q42 59 103 59zM131 310q-62 0 -73 57q-9 54 31 110q42 59 103 59q63 0 74 -57q10 -55 -30 -110q-42 -59 -105 -59zM419 298q-38 0 -70 -67q-33 -69 -24 -120q6 -35 34 -35q41 0 74 67
q33 68 23 119q-7 36 -37 36zM192 534q-38 0 -70 -67q-33 -69 -24 -120q6 -35 34 -35q41 0 74 67q33 68 23 119q-7 36 -37 36zM486 621h5l-439 -662h-5z" />
    <glyph glyph-name="ampersand" unicode="&#x26;" horiz-adv-x="909" 
d="M291 355q26 -178 111 -303q29 35 69 96t66 100.5t64.5 70.5t78.5 31q45 0 67.5 -19.5t22.5 -49.5q0 -39 -25.5 -71.5t-64.5 -32.5l-2 -3q27 -24 31 -65t-12.5 -80t-58 -68t-97.5 -29q-91 0 -167 83q-88 -88 -184 -88q-93 0 -144 45.5t-51 124.5q0 28 8.5 52.5t17.5 42
t33.5 38t36.5 30t47.5 28t46.5 23.5t52 24q-11 72 -5 123q7 61 44.5 97t89.5 36q43 0 69 -18.5t26 -50.5q0 -49 -37 -83.5t-100 -67.5q-6 -3 -33 -16zM211 -61q47 0 83.5 19.5t77.5 59.5q-51 57 -86.5 142.5t-48.5 169.5q-87 -41 -134.5 -93t-47.5 -145q0 -62 40 -107.5
t116 -45.5zM564 -61q64 4 104 52t38.5 104t-41.5 83q-26 5 -26 33q34 0 60.5 29.5t26.5 61.5q0 19 -11.5 31.5t-34.5 12.5q-38 0 -76 -31t-64 -70t-66 -99.5t-70 -96.5q79 -114 160 -110zM284 487q-5 -61 6 -127q9 4 31 16q45 24 72 64.5t27 87.5q0 12 -1 20t-5.5 18
t-15 15.5t-26.5 5.5q-34 0 -59.5 -25t-28.5 -75z" />
    <glyph glyph-name="quotesingle" unicode="'" horiz-adv-x="102" 
d="M33 404q45 6 69 51t6 74q17 11 33 4t18 -28q3 -27 -33 -61t-92 -43z" />
    <glyph glyph-name="parenleft" unicode="(" horiz-adv-x="253" 
d="M379 612q-9 4 -22 4q-72 0 -154 -111t-124 -285q-22 -88 -28 -174t2.5 -150.5t31 -104.5t55.5 -40q10 0 22 3l2 -3q-11 -4 -24 -4q-46 0 -71.5 68t-24 177.5t30.5 227.5q42 175 125 287.5t157 112.5q10 0 25 -5z" />
    <glyph glyph-name="parenright" unicode=")" horiz-adv-x="313" 
d="M-112 -245q9 -4 22 -4q72 0 153 110.5t125 285.5q22 88 28 174t-2.5 150.5t-31 104.5t-55.5 40q-10 0 -22 -3l-2 3q11 4 24 4q46 0 71.5 -68t24 -177.5t-30.5 -227.5q-44 -176 -126 -288t-156 -112q-10 0 -25 5z" />
    <glyph glyph-name="asterisk" unicode="*" horiz-adv-x="329" 
d="M182 439q-24 16 -52.5 26.5t-41.5 18.5q-16 9 -18 25.5t5 23.5q6 10 15 13.5t20 -4.5q0 -57 74 -99q1 1 2 1q5 26 1.5 59t-2.5 49q2 19 14.5 28.5t24.5 9.5q10 1 18 -5t5 -19q-47 -31 -55 -122l1 -1q29 14 56 35.5t37 27.5q33 18 51 -10q13 -29 -12 -34q-41 21 -129 -23
v-3q23 -16 51.5 -26.5t41.5 -17.5q16 -9 18.5 -25.5t-5.5 -23.5q-6 -10 -15 -13.5t-20 4.5q0 56 -74 98q-1 -1 -2 -1q-5 -26 -1.5 -58.5t2.5 -48.5q-2 -19 -14 -29t-24 -10q-11 0 -19 6t-5 19q47 28 55 122h-1q-28 -13 -53.5 -34t-39.5 -28q-33 -18 -51 10q-13 29 12 34
q44 -21 130 23v2z" />
    <glyph glyph-name="plus" unicode="+" horiz-adv-x="429" 
d="M60 314h160l41 158h5l-42 -158h164v-5h-165l-43 -165h-5l43 165h-158v5z" />
    <glyph glyph-name="comma" unicode="," horiz-adv-x="171" 
d="M-1 -97q36 14 54.5 38t19.5 44q0 27 -27 27q-17 0 -25 -13q-6 6 -6 23q1 16 13 27t29 11q20 0 30.5 -14.5t8.5 -35.5q-5 -34 -31.5 -64t-64.5 -46z" />
    <glyph glyph-name="hyphen" unicode="-" horiz-adv-x="630" 
d="M44 171h519v-5h-519v5z" />
    <glyph glyph-name="period" unicode="." horiz-adv-x="169" 
d="M14 23q2 15 14 25.5t27 10.5q14 0 22.5 -10.5t6.5 -25.5q-2 -14 -13.5 -24.5t-26.5 -10.5t-23.5 10.5t-6.5 24.5z" />
    <glyph glyph-name="slash" unicode="/" horiz-adv-x="278" 
d="M238 621h5l-205 -662h-5z" />
    <glyph glyph-name="zero" unicode="0" horiz-adv-x="588" 
d="M522 594l-30 -41q44 -38 56.5 -107.5t-8.5 -145t-62.5 -144.5t-112 -114t-150.5 -45q-60 0 -100 32l-34 -47l-3 3l33 47q-36 31 -51.5 85.5t-10 116t31.5 125.5t66.5 115t102 83.5t132.5 32.5q63 0 107 -34l29 40zM473 534q-28 52 -91 52q-46 0 -91 -30t-79.5 -77.5
t-61.5 -107.5t-39.5 -119t-10 -113.5t23.5 -88.5zM215 1q45 0 89.5 29t79 75t61 105t39.5 117t11.5 112.5t-19.5 90.5l-350 -484q28 -45 89 -45z" />
    <glyph glyph-name="one" unicode="1" horiz-adv-x="393" 
d="M76 0l1 4h76l163 505q0 1 -1 1l-1 2q-38 -64 -94 -108t-118 -44q-54 0 -81.5 27t-21.5 62q5 37 37 52.5t51 6.5q-28 -19 -37.5 -54t5 -62.5t47.5 -27.5q77 0 145.5 69t90.5 146h111l-2 -4h-51l-186 -571h69l-1 -4h-202z" />
    <glyph glyph-name="two" unicode="2" horiz-adv-x="561" 
d="M280 324q-45 6 -68.5 36.5t-21.5 71.5q4 63 62.5 113.5t152.5 50.5q58 0 100 -26t39 -87q-7 -80 -135 -168l7 -4q57 -2 83 -36.5t23 -88.5q-4 -76 -65.5 -134.5t-152.5 -58.5q-45 0 -127.5 26t-120.5 26q-26 0 -48.5 -14.5t-30.5 -37.5q-3 -9 -3 -19q0 -18 13.5 -31
t39.5 -13q63 0 86 54q16 -12 17 -34t-18.5 -40.5t-55.5 -18.5q-40 0 -65.5 22.5t-23.5 60.5v2q10 111 96 129q35 25 98.5 63t112.5 69.5t99 71t80 86t33 97.5q3 39 -14.5 69.5t-66.5 30.5q-65 0 -113.5 -59t-52.5 -123q-5 -69 45 -82zM394 304q-47 -32 -161 -98t-161 -100
q3 1 15 1q32 0 62.5 -17t50.5 -38t48 -38t56 -17q70 0 115 55t49 129q2 54 -15.5 88.5t-55.5 34.5h-3z" />
    <glyph glyph-name="three" unicode="3" horiz-adv-x="467" 
d="M226 390q12 0 17 -1l134 129h-199l-16 -50h-4l16 50l19 61h247l44 42h4l-240 -232q85 -6 130 -50.5t43 -106.5q-2 -91 -81 -165t-199 -74q-77 0 -118.5 34t-41.5 86q0 28 19 51.5t51 27.5l4 -2q-28 -34 -28 -84q0 -45 25.5 -76t79.5 -33q101 0 164.5 73.5t65.5 169.5
q2 64 -33 106t-104 42z" />
    <glyph glyph-name="four" unicode="4" horiz-adv-x="469" 
d="M325 689q28 11 58.5 -10t25.5 -73q-13 -110 -298 -312q23 -3 78.5 -30t73.5 -34l48 146q29 16 51 38t28 38h3l-77 -235h5q36 -2 59.5 11t30.5 39h3q-15 -54 -100 -56l-68 -207h69l-1 -4h-202l1 4h76l69 209q-24 3 -59.5 8.5t-59.5 9t-48.5 5t-39 -2.5t-19.5 -15h-5
q26 75 78 76q287 204 300 312q4 37 -15.5 51t-44 5t-36.5 -30q-14 0 -15 17q-1 25 31 40z" />
    <glyph glyph-name="five" unicode="5" horiz-adv-x="486" 
d="M95 183q-19 -9 -32.5 -33.5t-13.5 -53.5q0 -44 27 -75t87 -31q94 0 158 91t64 196q0 74 -37.5 122t-111.5 48q-40 0 -65 -11l1 3l43 140l12 40h4l-13 -40h226l-27 -111h-4l12 50h-225l-24 -78q30 10 68 10q90 0 142.5 -57t52.5 -137q0 -102 -81 -186t-195 -84
q-76 0 -121.5 32t-45.5 81q0 36 26.5 63t68.5 23z" />
    <glyph glyph-name="six" unicode="6" horiz-adv-x="528" 
d="M403 589q-104 0 -198 -125q-84 -111 -109 -246q-26 -139 35 -193q29 -27 77 -27q84 0 150.5 81.5t66.5 178.5q0 56 -22.5 90.5t-72.5 34.5q-56 0 -94.5 -50.5t-38.5 -105.5q0 -24 8 -46q-9 -6 -22.5 -6t-24.5 15.5t-10 39.5q4 56 56 106.5t126 50.5t109.5 -41.5
t33.5 -104.5q-4 -91 -79.5 -168.5t-185.5 -77.5q-124 0 -161 104q-35 97 15 227q53 134 160 208q84 59 181 59q58 0 86 -25t25 -60q-2 -34 -29 -57.5t-71 -23.5l2 4q18 2 38 33t20 62q0 63 -71 63z" />
    <glyph glyph-name="seven" unicode="7" horiz-adv-x="408" 
d="M462 579l-1 -2q7 19 11 42h4q-14 -73 -64.5 -149.5t-111 -136.5t-119.5 -113.5t-98.5 -98.5t-39.5 -73q0 -50 47 -50q30 0 49 25t19 53q2 37 -21 50q1 9 10 16.5t19 7.5q14 0 24 -12t10 -29q0 -39 -33.5 -76.5t-76.5 -37.5q-25 0 -44 14.5t-19 49.5q0 53 31 103.5
t81 93.5t102 82.5t105.5 85.5t80.5 87q1 1 2 3.5t2 3.5h-320l-12 -50h-4l27 111h340z" />
    <glyph glyph-name="eight" unicode="8" horiz-adv-x="504" 
d="M329 334q7 13 26 13q52 0 83 -39.5t31 -88.5q0 -85 -78.5 -155.5t-204.5 -70.5q-82 0 -137 42t-55 105q0 51 31.5 92t78.5 65.5t101.5 49t101.5 44.5t78.5 51.5t31.5 70.5q0 30 -18 52t-55 22q-42 0 -73 -33t-31 -68q0 -56 53 -72l-2 -4q-22 -11 -43 -11
q-28 0 -46.5 19.5t-18.5 49.5q0 51 42 86.5t118 35.5q51 0 91 -19t40 -58q0 -35 -23.5 -60t-60.5 -41t-82.5 -31t-90.5 -34t-82 -44t-60.5 -68t-23.5 -100t38.5 -97.5t97.5 -40.5q99 0 161 65.5t62 147.5q0 45 -21.5 78t-59.5 46z" />
    <glyph glyph-name="nine" unicode="9" horiz-adv-x="495" 
d="M142 125q-31 0 -55.5 -24.5t-24.5 -53.5q0 -48 61 -48q66 0 129.5 44t107.5 109.5t71 142t27 142.5q0 68 -31 109.5t-94 41.5q-90 0 -152.5 -86t-62.5 -191q0 -114 85 -114q58 0 96.5 54.5t38.5 112.5q0 16 -7 35q7 7 17 7q14 0 26 -13.5t12 -37.5q0 -56 -55 -109
t-130 -53q-71 0 -108 39t-37 100q0 93 80 176.5t193 83.5q94 0 140 -49t46 -127q0 -89 -51 -186t-142.5 -166t-192.5 -69q-49 0 -76 22t-27 52q0 26 20 51t56 25q29 0 40 -20z" />
    <glyph glyph-name="colon" unicode=":" horiz-adv-x="174" 
d="M59 239q2 15 14 25.5t27 10.5q13 0 21 -8.5t8 -21.5q0 -17 -11.5 -29t-28.5 -12q-15 0 -23.5 10t-6.5 25zM15 28q2 15 14 25.5t27 10.5q13 0 21 -8.5t8 -21.5q0 -17 -11.5 -29t-28.5 -12q-15 0 -23.5 10t-6.5 25z" />
    <glyph glyph-name="semicolon" unicode=";" horiz-adv-x="168" 
d="M58 236q2 15 14 25.5t27 10.5q13 0 21 -8.5t8 -21.5q0 -17 -11.5 -29t-28.5 -12q-15 0 -23.5 10t-6.5 25zM1 -97q36 14 54 38t18 44q0 27 -28 27q-17 0 -24 -13q-7 7 -7 23t12 27t29 11q20 0 31 -14.5t9 -35.5q-4 -33 -30 -63.5t-63 -45.5z" />
    <glyph glyph-name="less" unicode="&#x3c;" horiz-adv-x="346" 
d="M221 0l-206 178v5l304 163l3 -4l-303 -161v-1l205 -176z" />
    <glyph glyph-name="equal" unicode="=" horiz-adv-x="250" 
d="M41 211h165v-4h-165v4zM28 154h165v-4h-165v4z" />
    <glyph glyph-name="greater" unicode="&#x3e;" horiz-adv-x="357" 
d="M-1 4l294 176v1l-196 164l4 4l198 -167v-3l-297 -179z" />
    <glyph glyph-name="question" unicode="?" horiz-adv-x="328" 
d="M152 469q-5 -2 -17 -2q-20 0 -34 20.5t-14 42.5q-2 51 49 92.5t124 41.5q56 0 89 -33t35 -83q2 -53 -23 -97.5t-64 -72.5t-85 -54.5t-85 -46t-65 -44t-25 -50.5q1 -25 15 -39.5t37 -14.5q31 0 50 21.5t19 49.5q0 33 -22 45q0 9 9 16.5t19 7.5q14 0 24.5 -12t10.5 -29
q2 -37 -31.5 -70t-78.5 -33q-25 0 -40 16t-16 42q-2 39 22.5 75t63 62t83 55.5t83 55t64 61t24.5 73.5q-2 42 -31.5 68.5t-81.5 26.5q-61 0 -91.5 -41t-27.5 -91q0 -32 15 -52zM15 28q2 15 14 25.5t27 10.5q13 0 21 -8.5t8 -21.5q0 -17 -11.5 -29t-28.5 -12q-30 0 -30 31v4z
" />
    <glyph glyph-name="at" unicode="@" horiz-adv-x="536" 
d="M302 417q90 0 142.5 -52.5t52.5 -133.5q0 -68 -46.5 -122.5t-96.5 -54.5q-36 0 -58 24t-13 69q-15 -32 -39.5 -55.5t-46.5 -23.5q-67 0 -67 65q0 52 41.5 104t95.5 52q39 0 39 -52v-2q9 34 15 51h42l-39 -132q-27 -96 30 -96q49 0 94 53t45 120q0 79 -51.5 130.5
t-139.5 51.5q-111 0 -197.5 -81.5t-86.5 -193.5q0 -60 30.5 -107.5t81.5 -69.5l-3 -4q-52 23 -82.5 71t-30.5 110q0 113 87.5 196t200.5 83zM286 161q8 34 15 57q2 14 2 21q0 46 -36 46q-34 0 -66.5 -60t-32.5 -111q0 -43 29 -43q24 0 50 28t39 62z" />
    <glyph glyph-name="A" unicode="A" horiz-adv-x="750" 
d="M694 597l-81 -593h63l-1 -4h-192l2 4h68l23 176h-146q-79 -93 -162 -151t-147 -54q-48 2 -68.5 28t-10.5 57t40 49q-46 24 -67.5 70.5t-18.5 103.5q4 98 86.5 173.5t185.5 75.5q27 0 192 -17q-2 12 -1 18q2 44 47 78.5t98 34.5q39 0 55.5 -16.5t14.5 -42.5q-2 -17 -9 -30
q23 22 27 40h2zM169 87q-7 3 -16 3q-32 0 -60 -37q-28 -39 -7 -61q11 -12 36 -13q63 -4 143 52t160 149h-26l2 4h27q74 86 128 181t64 156q-44 -19 -125.5 -25.5t-144 -4t-112.5 -2.5q-103 -9 -167 -72t-70 -143q-4 -47 18 -93t67 -69q21 12 50 12q30 0 36 -30
q91 0 138.5 58t20.5 124q1 5 7.5 10.5t16.5 5.5q15 0 23 -21q12 -37 -14 -79.5t-79 -72t-113 -29.5v-1zM629 531q5 3 13 9q25 16 28 47q2 23 -14 39t-52 16q-50 0 -94.5 -33t-46.5 -76q-2 -11 1 -18q37 -4 75 -4q54 0 90 20zM615 482q-21 -63 -70 -144.5t-112 -153.5h143z
" />
    <glyph glyph-name="B" unicode="B" horiz-adv-x="740" 
d="M439 595q-15 4 -15 28q0 20 14.5 36t42.5 16q26 0 43.5 -20t17.5 -45q0 -7 -9 -37q49 37 88 37q55 0 85 -27t30 -68q0 -55 -50 -101.5t-139 -60.5q74 -5 111.5 -43t37.5 -94q0 -84 -72.5 -154t-188.5 -70h-216l3 4h71q4 12 76.5 241.5t88.5 282.5q-27 -12 -64.5 -22.5
t-61.5 -15.5t-67 -13t-48 -9q-90 -17 -141.5 -75.5t-51.5 -123.5q0 -55 34 -93.5t99 -38.5q72 0 113 43.5t41 104.5q0 26 -8 39q8 5 17 5q13 0 21.5 -11t8.5 -31q0 -56 -57.5 -105t-136.5 -49q-74 0 -111.5 46.5t-37.5 111.5q0 74 51.5 139t141.5 82q35 7 114.5 10.5
t114.5 9.5q42 7 76 30t34 57q0 18 -9.5 31.5t-31.5 13.5q-20 0 -37.5 -16.5t-21.5 -44.5zM422 -4q90 0 151 74.5t61 158.5q0 52 -28 86t-84 36q-9 -1 -28 -1q-24 0 -31 2l-113 -356h72zM621 606q-40 0 -90 -40l-67 -211q6 -2 30 -2q92 0 145.5 54.5t53.5 118.5
q0 35 -18.5 57.5t-53.5 22.5z" />
    <glyph glyph-name="C" unicode="C" horiz-adv-x="468" 
d="M420 217q0 -86 -65.5 -160t-159.5 -74q-121 0 -161 107q-37 100 10 237q49 140 156 220q87 64 189 64q87 0 107.5 -64.5t-19 -129.5t-98.5 -65q-25 0 -35.5 11.5t-5.5 29.5q61 8 102 70q38 58 21 103q-15 41 -72 41q-89 0 -181 -124q-88 -117 -119 -259q-34 -151 27 -209
q30 -28 79 -28q92 0 156.5 73t64.5 157h4z" />
    <glyph glyph-name="D" unicode="D" horiz-adv-x="851" 
d="M248 -8l3 4h71q4 12 76.5 241.5t88.5 282.5q-52 -23 -176 -47q-23 -5 -65 -13q-98 -19 -148 -86t-43 -138q4 -45 39 -76.5t92 -31.5q55 0 90.5 44.5t31.5 97t-47 74.5q12 19 36 19q43 0 52 -49q10 -57 -29 -116q-48 -74 -134 -74q-63 0 -100.5 36.5t-46.5 89.5
q-15 80 37.5 157.5t152.5 96.5q35 7 114.5 10.5t114.5 9.5q110 24 110 87q0 18 -9.5 31.5t-31.5 13.5q-20 0 -37.5 -16.5t-21.5 -44.5q-12 4 -15 23.5t11.5 38t45.5 18.5q26 0 43.5 -20t17.5 -45q0 -9 -8 -36q49 36 98 36q120 0 163 -102q41 -95 -3 -224q-47 -138 -162 -220
q-103 -72 -231 -72h-180zM661 606q-51 0 -101 -40l-181 -570h49q150 0 253 141q82 112 97 253q13 129 -43 186q-29 30 -74 30z" />
    <glyph glyph-name="E" unicode="E" horiz-adv-x="427" 
d="M335 337h-100q-100 0 -152 -90q-43 -75 -28 -157q15 -78 77 -98q16 -5 34 -5q92 0 156.5 72.5t64.5 157.5h4q0 -86 -65.5 -160t-159.5 -74q-118 0 -156 89q-30 72 7 157q35 81 105 108q49 20 104 3h20q-65 12 -82 73q-18 63 27 122q56 76 169 76q46 0 77 -21t37 -50.5
t-1.5 -59t-38 -50.5t-73.5 -21l-4 3q26 7 46 29.5t26.5 50t3.5 53.5t-22.5 44t-50.5 18q-75 0 -122 -76q-41 -65 -30 -128q14 -60 69 -62h58v-4z" />
    <glyph glyph-name="F" unicode="F" horiz-adv-x="589" 
d="M774 646q37 -3 54 -22t17 -44q0 -39 -33.5 -66.5t-102.5 -27.5q-55 0 -175 47l-63 -219h114l-2 -5h-114l-88 -305h66l-1 -4h-202l1 4h79l86 305h-71q-24 -38 -74.5 -63.5t-105.5 -25.5q-84 0 -133 53t-49 130q0 96 69 174.5t177 78.5q49 0 116.5 -26t124.5 -57t125.5 -57
t119.5 -26q46 0 74 29t28 66q-2 42 -40 59zM358 368q0 -28 -16 -54h69l68 242q-153 60 -262 60q-100 0 -168 -66.5t-68 -146.5q0 -75 47.5 -127t130.5 -52q75 0 121 50.5t46 126.5q13 0 22.5 -8.5t9.5 -24.5z" />
    <glyph glyph-name="G" unicode="G" horiz-adv-x="540" 
d="M528 482q0 -43 -21.5 -89.5t-56.5 -80.5h56l-1 -4h-12q-58 -202 -93 -278q-77 -165 -187 -166q-50 0 -73.5 24t-19 53t27.5 47q-124 28 -127 182t109.5 297t272.5 143q55 0 90 -37.5t35 -90.5zM228 -10q110 21 165 146q1 2 44 164q-45 -37 -92 -37q-25 0 -35.5 11.5
t-5.5 29.5q76 -10 148 43.5t72 134.5q0 52 -34 88t-87 36q-60 0 -124.5 -57t-109.5 -141t-71.5 -171t-12.5 -156.5t70 -87.5q34 19 73 -3zM384 108q-65 -121 -186 -125q-24 -10 -34.5 -38t2.5 -52.5t47 -24.5q54 0 94.5 63.5t76.5 176.5z" />
    <glyph glyph-name="H" unicode="H" horiz-adv-x="759" 
d="M293 -253q22 7 51 7h10q48 6 85 30.5t61.5 58t46.5 91t36.5 109t34.5 132.5q10 40 15 61l7 28h-224l-80 -268h66l-1 -4h-201l1 4h73q4 19 78 268h-42q0 -47 -57 -87.5t-136 -40.5q-72 0 -109 40.5t-37 101.5q0 74 54 141.5t146 84.5q30 6 82 10.5t93 9t81.5 13t63.5 27
t23 47.5q0 45 -39 45q-20 0 -38 -16.5t-23 -44.5q-15 5 -15 27q0 20 15 36.5t44 16.5q25 0 42 -19t17 -43q0 -16 -4 -27l-96 -317h224l25 95q16 71 52.5 125.5t90.5 66.5h-119l1 4h167l-1 -4q-47 0 -75 -43.5t-50 -129.5l-33 -119q-22 -81 -36.5 -128.5t-37.5 -112t-46 -103
t-54.5 -77.5t-70.5 -60.5t-86 -29.5q34 -5 111 -32.5t119 -27.5q76 0 117.5 37t41.5 86q0 38 -26 64.5t-72 26.5q-33 0 -55.5 -29.5t-22.5 -59.5q-26 0 -26 23q0 24 29 47t75 23q50 0 77.5 -30t27.5 -73q0 -57 -44.5 -103t-120.5 -46q-46 0 -135.5 45t-133.5 45
q-15 0 -35 -5zM354 269q73 241 76 251q-75 -31 -243 -60q-93 -17 -147 -78t-54 -126q0 -51 33.5 -83.5t96.5 -32.5q71 0 114 36.5t43 84.5q0 21 -7 29q7 4 17 4q23 0 27 -24z" />
    <glyph glyph-name="I" unicode="I" horiz-adv-x="649" 
d="M677 562l-114 -395q-25 -90 -94 -149.5t-161 -59.5q-89 0 -125.5 57.5t-25.5 129.5q-26 0 -33 2q-89 11 -125 72t-23 140q18 97 108 161.5t192 52.5q42 -6 173 -39q-2 11 1 19q8 44 57 72.5t101 22.5q37 -5 51.5 -24t10.5 -43q-9 -42 -60 -61q47 6 66 42h1zM307 312
q10 16 26 13q15 -1 20 -24q10 -48 -39 -94.5t-122 -58.5q-18 -31 -18.5 -64.5t14.5 -60.5t47 -44t74 -17q132 0 192 206l101 345l-7 2q-24 -6 -57 -8t-61.5 -1t-68.5 5t-62.5 7t-59.5 9t-45 7q-100 13 -173.5 -45.5t-88.5 -138.5q-13 -67 23.5 -127.5t121.5 -71.5
q7 -2 33 -2q7 37 26 63t45 31q15 3 24 -4.5t9 -20.5q-46 -29 -66 -65q63 14 95.5 59.5t16.5 99.5zM454 553q-3 -8 -1 -20q39 -10 76 -15q48 -4 88.5 11t48.5 52q10 54 -58 63q-49 6 -97.5 -22t-56.5 -69z" />
    <glyph glyph-name="J" unicode="J" horiz-adv-x="640" 
d="M582 229q-24 -87 -48 -154.5t-60 -138.5t-77 -117.5t-98.5 -76t-124.5 -29.5q-94 0 -132 68t-17.5 138.5t69.5 78.5q15 3 24 -4.5t9 -20.5q-67 -41 -83.5 -102.5t21 -107.5t110.5 -46q132 0 222 176q42 82 108 291q9 29 15 46l60 192q16 53 55 87l-2 5q-29 -8 -66.5 -10
t-82.5 2t-75 8t-77 11.5t-55 8.5q-101 13 -173.5 -45t-88.5 -139q-13 -67 23.5 -127.5t121.5 -71.5q92 -12 148 39.5t35 121.5q9 14 26 13q16 -4 20 -24q12 -61 -62.5 -113.5t-166.5 -40.5q-88 11 -125.5 72.5t-22.5 139.5q16 97 106.5 161.5t193.5 52.5q42 -6 173 -39
q-2 11 1 19q8 44 57 72.5t101 22.5q37 -5 51.5 -24t10.5 -43q-5 -23 -17 -37q7 4 42 23l1 -2q-25 -17 -34.5 -24.5t-29 -38.5t-31.5 -77zM490 553q-3 -8 -1 -20q39 -10 76 -15q124 -11 137 63q10 54 -58 63q-49 6 -97.5 -22t-56.5 -69z" />
    <glyph glyph-name="K" unicode="K" horiz-adv-x="771" 
d="M520 594q0 -3 -67 -211q66 -25 113 -129l200 298h-101l1 4h216l-1 -4h-109l-204 -303q12 -29 27 -71t25.5 -71.5t23.5 -58.5t28 -44t32 -15q14 0 25 9t13 25h4q-2 -18 -14.5 -28t-27.5 -10q-47 0 -81 33t-54 84t-35.5 103.5t-36.5 101t-47 67.5l-117 -370h66l-2 -4h-195
l2 4h72q2 5 11 34.5t23.5 76.5t28.5 90q-48 17 -55 61t26 82.5t87 42.5q11 31 23.5 73t15.5 50q32 7 47 20.5t25 34.5q-26 -43 -85 -43q-38 0 -120 15t-115 15q-80 0 -127 -65q-39 -55 -24 -106q17 -55 88 -55q54 0 69 41q12 32 -10 54q-11 11 -27 12q0 23 17 32.5t35 2.5
q12 -6 17.5 -23t2 -37.5t-15 -40t-34.5 -32.5t-54 -13q-77 0 -99 64q-19 59 19 123q44 74 128 82q11 1 22 1q34 0 112.5 -33t116.5 -33q66 0 91 58zM340 210q55 173 56 177q-50 -5 -82 -42t-26 -78.5t52 -56.5z" />
    <glyph glyph-name="L" unicode="L" horiz-adv-x="511" 
d="M570 481q0 -56 -43.5 -101.5t-94.5 -45.5q-48 0 -74.5 27t-24 59t27.5 48q14 11 29 3q-14 -26 -14.5 -56.5t15 -53t43.5 -22.5q49 0 90 44t41 98q0 44 -28.5 71.5t-71.5 27.5q-118 0 -161 -155l-40 -140q-25 -91 -51 -149t-59.5 -91t-64 -47.5t-81.5 -28.5v-2
q41 -6 79.5 -32.5t69.5 -61t61.5 -69t66.5 -61.5t72 -32q127 -19 213 72q69 72 72 170q4 103 -69 156q-41 29 -101 36q-46 6 -94.5 -15t-69.5 -54q-16 -22 -22 -51q-12 -9 -28 1q-22 19 6 57q26 37 91 55t118 11q117 -12 158 -106q37 -84 -3 -181t-132 -137
q-62 -27 -137 -19q-50 6 -100 34t-90 64.5t-78 72t-79 59t-78 22.5l10 5q19 5 44 5q64 18 83 30q44 29 84 133q22 56 50 150l42 141q26 88 86.5 125t132.5 37q44 0 74 -28t30 -75z" />
    <glyph glyph-name="M" unicode="M" horiz-adv-x="954" 
d="M537 -177q32 9 64 4q73 25 120.5 124.5t109.5 329.5l38 141q22 88 87 128q-138 -30 -272 -177q27 -94 19 -180.5t-44.5 -147.5t-81.5 -61q-46 0 -46 72q0 119 100 257q-33 149 -124 230l-162 -540h99l-2 -4h-201l2 4h98l162 543q-87 72 -215 72q-121 0 -210.5 -79.5
t-89.5 -187.5q0 -79 51 -132t136 -53q76 0 123.5 39t47.5 95q0 28 -9 47q3 15 24 15q11 0 18.5 -11.5t7.5 -30.5q0 -57 -64.5 -107.5t-147.5 -50.5q-87 0 -139 54t-52 135q0 111 90.5 191t213.5 80q85 0 154 -19.5t115.5 -54.5t77 -77t48.5 -94q136 149 280 178
q51 29 119 29q38 0 63.5 -21.5t30.5 -52t-1.5 -60.5t-32 -51.5t-61.5 -21.5q-48 0 -75.5 27t-26 59t26.5 48q14 11 29 3q-11 -28 -11.5 -57t15.5 -52t44 -23q35 0 58.5 20.5t29.5 49.5t0.5 58t-29.5 49.5t-60 20.5q-119 0 -156 -155l-36 -140q-102 -400 -279 -460
q39 -8 76.5 -35t68 -61.5t60.5 -68t65.5 -59.5t70.5 -31q111 -16 177 61q54 62 45 141q-8 82 -82 116q-27 12 -60 16q-71 8 -114 -44q-16 -22 -22 -51q-12 -9 -28 1q-10 8 -9 24t15 33q21 26 65 36.5t94 4.5q103 -12 135 -94q29 -72 -10 -148q-41 -80 -127 -98
q-38 -8 -79 -2q-50 8 -100 37t-90 65t-78.5 71t-79 57.5t-77.5 21.5zM577 -12q37 0 56 100t-1 219q-97 -134 -97 -251q0 -68 42 -68z" />
    <glyph glyph-name="N" unicode="N" horiz-adv-x="818" 
d="M1052 -117q65 0 86 -61q22 -62 -17 -131q-46 -84 -146 -99l-38 -3q-75 0 -130.5 50t-86 127.5t-57.5 182t-45.5 203.5t-49 203t-68.5 169l-155 -521h103l-1 -4h-217l2 4h109l155 527q-79 133 -211 133q-109 0 -198.5 -77t-89.5 -182q0 -79 51 -132t136 -53q76 0 123.5 39
t47.5 95q0 28 -9 47q3 15 24 15q11 0 18.5 -11.5t7.5 -30.5q0 -57 -64.5 -107.5t-147.5 -50.5q-87 0 -139 54t-52 135q0 108 89.5 185.5t202.5 77.5q61 0 113 -18.5t89.5 -46.5t70 -76t53 -92t40.5 -110.5t31.5 -115.5t25.5 -122h3l137 465l2 1h-105l1 4h217l-2 -4h-109
l-141 -483q41 -223 61 -290q47 -158 131 -181q17 -4 34 -4q111 0 169 83q44 64 31 130q-12 60 -66 70q-9 2 -19 2q-42 0 -72 -34.5t-32 -74.5q-1 -14 6 -34q-16 -17 -37.5 -4.5t-15.5 41.5q8 45 51 77.5t100 32.5z" />
    <glyph glyph-name="O" unicode="O" horiz-adv-x="567" 
d="M375 607q124 0 168 -108q41 -101 -2 -236q-45 -139 -148 -216q-81 -60 -177 -60q-53 0 -93 24t-60 64t-28 89t3 102.5t32.5 101.5t60.5 88t88 61q49 90 156 90zM305 369q-2 -42 -50 -42q-31 0 -48 29.5t-14.5 73t23.5 83.5q-44 -33 -74.5 -98t-40 -136t-3.5 -137
t37.5 -108.5t80.5 -42.5q103 0 188 126q76 115 94 256q17 144 -45 202q-31 28 -78 28q-87 0 -114 -82q-21 -61 1 -116q16 -41 41 -31z" />
    <glyph glyph-name="P" unicode="P" horiz-adv-x="674" 
d="M525 626q5 -24 -10 -61q58 45 103 45q100 0 127 -81q25 -75 -24 -169q-51 -99 -146 -140q-51 -22 -105 -22q-40 0 -58 21l-65 -215h64l-1 -4h-195l2 4h73q5 16 37 124t69 233t47 159q-65 -27 -240 -60q-99 -18 -152.5 -86.5t-40.5 -135.5q11 -53 61 -81t130 -12
q52 9 78.5 49.5t19.5 77.5q-1 11 -8 18q2 2 6 2q2 1 3 1q30 5 37 -23q8 -37 -32 -77t-103 -52q-86 -17 -137.5 15.5t-64.5 93.5q-17 79 34.5 157t151.5 97q34 7 114 10.5t114 9.5q50 10 83 35t25 66q-5 24 -35 27t-62 -26q-10 1 -13 9.5t2.5 17.5t16.5 13q35 13 61 -1
t33 -39zM618 606q-46 0 -105 -48l-100 -335q18 -21 57 -21q98 0 169 104q59 87 61 183q2 91 -52 112q-14 5 -30 5z" />
    <glyph glyph-name="Q" unicode="Q" horiz-adv-x="606" 
d="M341 407q29 0 36 -58q7 -77 -53 -157.5t-146 -80.5q-66 0 -101 46t-35 114q0 77 46 154.5t126 129.5t168 52q82 0 136 -60.5t54 -144.5q0 -74 -36 -154t-96 -144.5t-149.5 -98.5t-185.5 -15q34 -28 67.5 -79t55 -93.5t49.5 -77.5t56 -39q16 -2 23 -2q60 0 100.5 43.5
t40.5 96.5q0 43 -24.5 78t-78.5 35q-40 0 -70 -35t-28 -80q-38 0 -39 32q-2 35 36 65q33 26 78 26q71 0 100.5 -36t29.5 -85q0 -54 -41.5 -99t-103.5 -45q-30 0 -55 5q-42 9 -78.5 46.5t-63 84t-51.5 92t-56.5 76.5t-67.5 31q-9 0 -14 -1l2 3q4 0 10 0.5t9 0.5q57 0 108 -38
q74 -15 142 8t117.5 72t87 112.5t56 130t18.5 124.5q-2 161 -138 161q-76 0 -144 -66t-104.5 -154.5t-36.5 -165.5q0 -102 81 -102q73 0 116 65t43 147q0 44 -17 71q9 9 21 9z" />
    <glyph glyph-name="R" unicode="R" horiz-adv-x="765" 
d="M452 626q-16 3 -13.5 18t20.5 22q35 13 62 -1.5t31 -38.5q5 -21 -9 -56q54 40 97 40q98 0 133 -69.5t-8.5 -157t-145.5 -131.5q25 -59 42.5 -155t29 -177.5t31.5 -159t61.5 -122.5t107.5 -45q110 0 172 90q49 70 39 143q-9 66 -64 77q-8 2 -18 2q-42 0 -72 -34.5
t-32 -74.5q-1 -14 6 -34q-16 -17 -37.5 -4.5t-15.5 41.5q8 45 51 77.5t100 32.5q65 0 83 -64q19 -66 -21 -142q-48 -89 -144 -109q-23 -5 -47 -5q-59 0 -105 22.5t-76 65t-50.5 92t-34 114t-22 120.5t-19.5 122t-22 108q-52 -13 -105 -13q-16 0 -24 1l-69 -217h69l-1 -4
h-195l2 4h68q2 7 13 42t28 90t32 103q-15 9 -21 18q-2 -35 -41 -69.5t-97 -46.5q-85 -17 -137 15.5t-63 93.5q-15 80 37.5 157.5t152.5 96.5q35 7 114.5 10.5t114.5 9.5q50 10 83.5 35t25.5 66q-5 24 -34.5 27.5t-62.5 -26.5zM428 393q11 33 25 77t16 50q-52 -23 -176 -47
q-23 -5 -65 -13q-101 -19 -155.5 -87t-41.5 -135q9 -53 58.5 -80.5t130.5 -12.5q52 9 79.5 50t20.5 77q-1 8 -7 18l9 3q14 2 20 -2q-9 38 16 70t69 32h1zM485 386q79 -21 125 -113q69 50 103 130t14.5 141.5t-87.5 61.5q-44 0 -99 -43zM559 245q-28 99 -77 130l-48 -150
q7 -1 23 -1q52 0 102 21zM382 243q19 64 45 146q-45 0 -67.5 -31.5t-12.5 -69.5q8 -8 11 -18q0 -2 0.5 -3t0.5 -3q11 -14 23 -21z" />
    <glyph glyph-name="S" unicode="S" horiz-adv-x="457" 
d="M137 242q-40 -11 -62 -52t-22 -86q0 -44 34.5 -76.5t90.5 -34.5q67 0 110 40.5t43 101.5q0 40 -23 87t-50.5 83t-50.5 80.5t-23 80.5q0 55 45 98t115 43q65 -2 99 -33.5t34 -65.5q0 -49 -29 -76t-54 -5q34 31 36 85q0 90 -85 90q-46 1 -76.5 -24t-30.5 -71
q0 -37 23.5 -82t52 -82t52 -87.5t23.5 -96.5q0 -75 -65 -122.5t-146 -47.5q-80 2 -124.5 45t-44.5 98q0 76 53 114q37 27 63 11q8 -6 12 -15z" />
    <glyph glyph-name="T" unicode="T" horiz-adv-x="523" 
d="M723 646q37 -3 54 -22t17 -44q0 -39 -33.5 -66.5t-102.5 -27.5q-53 0 -163 42l-149 -524h65l-1 -4h-202l1 4h78l154 547q-165 65 -275 65q-100 0 -168 -66.5t-68 -146.5q0 -75 47.5 -127t130.5 -52q75 0 121 50.5t46 126.5q13 0 22.5 -8.5t9.5 -24.5q0 -57 -61 -102.5
t-138 -45.5q-84 0 -133 53t-49 130q0 62 29 123.5t87 105.5t130 44q49 0 116.5 -29t124.5 -64t125.5 -64t119.5 -29q46 0 74 29t28 66q-2 42 -40 59z" />
    <glyph glyph-name="U" unicode="U" horiz-adv-x="774" 
d="M899 556l-2 -4h-109l-97 -360q-28 -103 -85 -150t-127 -47q-61 0 -108 37t-47 107q0 34 11 68l75 248q11 38 54 74v1q-25 -14 -66.5 -26.5t-71.5 -18.5t-79.5 -14.5t-59.5 -10.5q-93 -17 -147 -78t-54 -126q0 -51 33.5 -83.5t96.5 -32.5q71 0 114 36.5t43 84.5
q0 21 -7 29q7 4 17 4q28 0 28 -33q0 -45 -58.5 -85t-135.5 -40q-72 0 -109 40.5t-37 101.5q0 90 71.5 160.5t190.5 70.5q17 0 51 -1.5t50 -1.5q36 0 71.5 6.5t69 28.5t35.5 57q0 45 -39 45q-20 0 -38 -16.5t-23 -44.5q-15 5 -15 27q0 20 15 36.5t44 16.5q25 0 42 -19t17 -43
q0 -12 -5 -24l-107 -366q-15 -51 -15 -94q0 -55 24 -86t69 -31q69 0 124.5 46t83.5 147l97 360h-103l1 4h217z" />
    <glyph glyph-name="V" unicode="V" horiz-adv-x="467" 
d="M681 556l-1 -4h-112l-328 -528q-39 -67 -49 -111l-3 -1q0 14 -1 43q-2 82 -3.5 124.5t-6 119.5t-12.5 120t-21 103.5t-33.5 94.5t-47.5 68t-65.5 49t-86.5 15q-116 0 -214 -82.5t-98 -195.5q0 -72 45.5 -119t125.5 -47q81 0 132.5 44.5t51.5 104.5q0 14 -5 32q1 5 8 10
t17 5q22 0 22 -36q0 -58 -70.5 -111t-155.5 -53q-82 0 -128.5 47.5t-46.5 122.5q0 114 99 198t217 84q65 0 115.5 -20t84.5 -47.5t58.5 -81t37.5 -95t21.5 -117.5t11.5 -120t6 -128l317 508h-100l1 4h217z" />
    <glyph glyph-name="W" unicode="W" horiz-adv-x="1179" 
d="M1396 556l-1 -4h-111l-320 -544q-27 -50 -40 -95l-3 -1q1 12 1 39q0 50 -5 127.5t-11 139.5t-12.5 125t-7.5 72l-218 -371l-3 -5l-25 -42h-1q-29 -48 -39 -84l-3 -1q15 229 15 322q0 73 -5.5 131t-20.5 113t-40 91t-65.5 58t-95.5 22q-78 0 -155.5 -39.5t-129.5 -109.5
t-52 -148q0 -66 40.5 -106.5t115.5 -40.5q85 0 141.5 48t56.5 111q0 8 -2 22q1 5 8.5 10t17.5 5q19 0 19 -30q0 -59 -76.5 -114.5t-164.5 -55.5q-76 0 -118 42t-42 109q0 79 52.5 149.5t131 111t157.5 40.5q60 0 107 -15t78 -44.5t52 -66t32 -86.5t15.5 -99t4.5 -111
q0 -57 -6 -177l239 405q34 63 34 106v10h3q2 -32 12.5 -146.5t18 -215t7.5 -157.5v-9l299 505h-102l1 4h216z" />
    <glyph glyph-name="X" unicode="X" horiz-adv-x="786" 
d="M321 4l251 268q-18 71 -35 123t-43.5 105.5t-57 87t-74 54.5t-96.5 21q-109 0 -198.5 -77t-89.5 -182q0 -79 51 -132t136 -53q76 0 123.5 39t47.5 95q0 28 -9 47q3 15 24 15q11 0 18.5 -11.5t7.5 -30.5q0 -57 -64.5 -107.5t-147.5 -50.5q-87 0 -139 54t-52 135
q0 108 89.5 185.5t202.5 77.5q75 0 135 -25t103 -72.5t73 -104.5t53 -131l203 218h-100l1 4h217l-2 -4h-111l-207 -222q25 -79 48 -195t39 -202.5t39.5 -169t63 -127t97.5 -44.5q110 0 172 90q48 70 39 143q-9 66 -62 78q-9 2 -20 2q-42 0 -72 -34.5t-32 -74.5q-1 -14 6 -34
q-16 -17 -37.5 -4.5t-15.5 41.5q8 45 51 77.5t100 32.5q65 0 83 -64q19 -66 -21 -142q-48 -89 -144 -109q-23 -5 -47 -5q-44 0 -81 17.5t-63.5 44.5t-50.5 73t-40 89t-32.5 107t-26.5 112t-25.5 120t-25.5 116l-246 -264h114l-2 -4h-216l1 4h97z" />
    <glyph glyph-name="Y" unicode="Y" horiz-adv-x="715" 
d="M207 219q76 0 123.5 39t47.5 95q0 28 -9 47q3 15 24 15q11 0 18.5 -11.5t7.5 -30.5q0 -57 -64.5 -107.5t-147.5 -50.5q-87 0 -139 54t-52 135q0 108 89.5 185.5t202.5 77.5q153 0 241 -102t76 -245h2l216 232h-104l1 4h217l-2 -4h-107l-223 -239q-5 -43 -17 -81l-72 -228
h69l-1 -4h-195l2 4h68l71 226q58 188 -8 310.5t-234 122.5q-110 0 -199 -77t-89 -182q0 -79 51 -132t136 -53z" />
    <glyph glyph-name="Z" unicode="Z" horiz-adv-x="464" 
d="M-37 -13q42 45 104 56l389 414q55 60 120 31l1 1q-28 13 -80.5 45.5t-94.5 51.5t-78 19q-86 0 -133 -47t-47 -104q0 -42 28 -71t74 -33q0 -18 -11.5 -31t-28.5 -13q-31 0 -52 34t-21 84q0 33 10 64t31 59t60 45.5t90 17.5q47 0 111 -35.5l128 -71t110 -35.5q23 0 36 14
t13 33q0 34 -33 45l2 2h10q25 0 39 -12t14 -30q0 -22 -22.5 -39t-62.5 -17q-29 0 -62 13q-44 10 -96 -49l-310 -330q-53 -57 -116 -49q-2 -2 -2 -3h9q57 0 114 -25t105 -65t94.5 -88t90 -96.5t84.5 -88.5t84.5 -65t83.5 -25q66 0 111 49t45 109q0 43 -29 72.5t-68 33.5
q1 16 13 27.5t29 11.5q30 0 49 -27.5t21 -75.5q3 -74 -45 -140t-129 -66q-72 0 -132.5 25t-103.5 65t-81.5 88.5t-73.5 97.5t-72 89t-85.5 65t-104.5 25q-35 0 -69.5 -16.5t-57.5 -41.5z" />
    <glyph glyph-name="bracketleft" unicode="[" horiz-adv-x="217" 
d="M187 621h83v-4h-79l-193 -854h75v-4h-81z" />
    <glyph glyph-name="backslash" unicode="\" horiz-adv-x="234" 
d="M89 621h5l36 -662h-5z" />
    <glyph glyph-name="bracketright" unicode="]" horiz-adv-x="278" 
d="M9 -241h-80v4h77l197 854h-77v4h83z" />
    <glyph glyph-name="asciicircum" unicode="^" horiz-adv-x="273" 
d="M145 525h28l65 -132h-4l-78 90h-9l-123 -90h-4z" />
    <glyph glyph-name="underscore" unicode="_" horiz-adv-x="407" 
d="M-9 -21h347l-2 -5h-347z" />
    <glyph glyph-name="grave" unicode="`" horiz-adv-x="207" 
d="M167 401q-54 9 -81 41.5t-24 62.5q2 21 18 28t33 -4q-10 -20 -10 -46.5t17.5 -50.5t47.5 -28z" />
    <glyph glyph-name="a" unicode="a" horiz-adv-x="406" 
d="M333 314l-71 -251q-18 -64 21 -64q31 0 51.5 25t27.5 61h4q-7 -37 -28.5 -63.5t-54.5 -26.5q-43 0 -64 25.5t-10 66.5l-3 1q-23 -40 -53.5 -66.5t-58.5 -26.5q-49 0 -72 26t-22 70q2 77 61.5 152t134.5 75q61 0 55 -84q4 12 24 80h58zM94 -1q31 0 68 37t56 83
q3 10 12 40.5t14 48.5q3 22 3.5 45.5t-13 42t-38.5 18.5q-34 0 -68.5 -44t-55 -103t-20.5 -106q0 -62 42 -62z" />
    <glyph glyph-name="b" unicode="b" horiz-adv-x="355" 
d="M98 216q21 45 52.5 73.5t65.5 28.5q80 0 94 -71q14 -68 -34 -147q-52 -85 -131 -102q-16 -4 -33 -4q-54 0 -85 35.5t-16 89.5l83 289q11 36 22 47q4 4 11 6l1 2h-91l2 4h131zM112 -2q58 0 108 87q47 82 46 158q-1 71 -50 71q-38 0 -71 -35.5t-55 -89.5l-25 -89
q-16 -57 0 -79.5t47 -22.5z" />
    <glyph glyph-name="c" unicode="c" horiz-adv-x="291" 
d="M228 89q-13 -38 -47 -66t-75 -28q-86 0 -101 72q-14 67 35 146q51 82 129 102q18 4 36 4q26 0 43.5 -18t17.5 -43q0 -34 -21 -58t-50 -24q-37 0 -37 35q0 1 0.5 4t0.5 4q14 -2 16 -2q31 0 53 18.5t22 42.5q0 14 -12.5 25.5t-32.5 11.5q-52 0 -100 -87q-46 -84 -45 -161
q0 -68 46 -68q39 0 72 28t46 65z" />
    <glyph glyph-name="d" unicode="d" horiz-adv-x="412" 
d="M367 91q-4 -37 -26 -66.5t-56 -29.5q-39 0 -63 21.5t-15 60.5l-6 1q-22 -36 -51.5 -59.5t-55.5 -23.5q-81 0 -93 72q-12 69 38 148q52 83 125 100l29 3q33 0 47 -25.5t11 -59.5q12 39 28.5 101t20.5 73q9 33 21 45q5 6 11 8l1 3h-90l1 4h131l-113 -404q-7 -23 -3 -43.5
t26 -20.5q31 0 52.5 28.5t25.5 64.5zM94 -1q31 0 68.5 37.5t56.5 84.5q25 87 26 89q3 23 2.5 46t-14.5 40.5t-40 17.5q-47 0 -94 -86t-47 -163q-1 -66 42 -66z" />
    <glyph glyph-name="e" unicode="e" horiz-adv-x="310" 
d="M232 90q-13 -37 -49 -66t-79 -29q-53 0 -79 27.5t-26 71.5q0 77 61.5 150.5t142.5 73.5q36 0 56 -15.5t20 -44.5q0 -38 -43 -75.5t-107 -37.5q-32 0 -61 10q-16 -45 -16 -86q0 -70 52 -70q42 0 76.5 28t47.5 65zM203 314q-37 0 -74.5 -47t-59.5 -109q23 -7 42 -7
q49 0 88 45.5t39 83.5q0 18 -7.5 26t-27.5 8z" />
    <glyph glyph-name="f" unicode="f" horiz-adv-x="243" 
d="M265 491q26 0 43.5 -18t17.5 -43q0 -28 -22 -52t-49 -24q-37 0 -37 29q0 1 0.5 4t0.5 4q14 -2 16 -2q31 0 52.5 19t21.5 43q0 14 -12 25t-32 11q-40 0 -67 -44.5t-52 -128.5h70l-1 -4h-71q-10 -33 -25.5 -94.5t-27 -103.5t-29.5 -98t-38 -93.5t-46.5 -72t-61 -52
t-75.5 -17.5q-38 0 -46 37q-8 38 20 66q28 27 71 16v-3q-49 14 -76 -27q-23 -34 -8 -64q11 -21 39 -21q44 0 77 33t56 94t39.5 122.5t37.5 144t39 133.5h-35l1 4h35q65 177 174 177z" />
    <glyph glyph-name="g" unicode="g" horiz-adv-x="383" 
d="M-60 -141q0 59 81 104q-36 21 -36 51q0 38 32.5 61t63.5 23q12 0 26 -6v-4q-16 6 -28 6q-26 0 -48 -16t-22 -39q0 -22 37 -34.5t81.5 -17.5t81.5 -23.5t37 -50.5q0 -45 -51 -89.5t-140 -44.5q-54 0 -84.5 22.5t-30.5 57.5zM313 285q25 -7 48 2t23 35q0 16 -11.5 28.5
t-34.5 12.5q-22 0 -37 -14t-15 -34q0 -13 6 -25q16 -16 16 -43q0 -50 -50 -95t-124 -45q-49 0 -73.5 20t-24.5 52q0 50 50 95.5t123 45.5q49 0 76 -22q-3 7 -3 17q0 21 16.5 36.5t39.5 15.5q52 0 52 -58q0 -22 -14.5 -38t-36.5 -16q-26 0 -26 30zM214 -125q0 23 -31.5 36.5
t-83 25.5t-75.5 24q-80 -42 -80 -102q0 -33 29.5 -54.5t81.5 -21.5q67 0 112 28t47 64zM208 316q-45 0 -82.5 -52.5t-37.5 -100.5q0 -52 48 -52q47 0 85 50.5t38 99.5q0 55 -51 55z" />
    <glyph glyph-name="h" unicode="h" horiz-adv-x="408" 
d="M-5 -1q51 181 52 186q61 218 63 223q9 33 36 47q12 5 25 5l1 3h-95l1 4h107l-73 -263q23 49 59.5 82.5t74.5 33.5q32 0 54.5 -20t14.5 -51l-51 -185q-18 -64 21 -64q31 0 51.5 25t27.5 61l4 -1q-7 -36 -29 -62.5t-54 -26.5q-40 0 -63 22.5t-12 64.5q21 72 23 81
q24 86 34 119t-21 33q-42 0 -82.5 -42.5t-59.5 -98.5l-49 -176h-60z" />
    <glyph glyph-name="i" unicode="i" horiz-adv-x="214" 
d="M166 85q-7 -36 -28.5 -62.5t-53.5 -26.5q-34 0 -56.5 15.5t-22.5 45.5q0 14 4 25q3 10 9.5 33t10.5 35l30 105q15 51 62 51l1 4h-96l2 4h107l-72 -250q-5 -20 -5 -33q0 -31 26 -31q31 0 51 25t27 60h4zM121 500q2 14 13.5 24t25.5 10t22 -10t6 -24t-13 -23.5t-25 -9.5
t-22.5 9.5t-6.5 23.5z" />
    <glyph glyph-name="j" unicode="j" horiz-adv-x="183" 
d="M-101 -177q-18 45 -61 45q-18 0 -28.5 -11t-10.5 -32q0 -19 13.5 -31t41.5 -12q18 0 33.5 5t28.5 17.5t23 23t20 33.5t16 37t15 44.5t12.5 45t12.5 50t12 48.5l42 168q13 53 60 53l1 3h-95l1 4h107l-63 -251q-12 -48 -25 -86.5t-33 -77t-43 -64t-55 -41.5t-70 -16
q-28 0 -43.5 14t-15.5 33q0 25 17 41.5t48 16.5q20 0 32.5 -12t12.5 -28q0 -11 -6 -20zM121 500q2 14 13.5 24t25.5 10t22 -10t6 -24t-13 -23.5t-25 -9.5t-22.5 9.5t-6.5 23.5z" />
    <glyph glyph-name="k" unicode="k" horiz-adv-x="397" 
d="M-5 -1q51 181 52 186q61 218 63 223q9 33 36 47q10 4 25 6l1 2h-96l2 4h107l-131 -468h-59zM325 339q-9 3 -9 -5t4 -23t0 -30q-6 -22 -29 -40t-41 -16v2q19 -1 25 12.5t6.5 40.5t2.5 36q-73 4 -136 -87q41 -3 66.5 -28t35 -58t15 -65.5t12.5 -55t21 -22.5q37 0 66 43
l3 -1q-27 -46 -71 -46q-38 0 -59 24t-28.5 58t-13 67.5t-19.5 57.5t-41 24v3q1 0 4 -0.5t5 -0.5q60 91 141 91q4 10 7 13q14 15 33 8v-2z" />
    <glyph glyph-name="l" unicode="l" horiz-adv-x="213" 
d="M160 129q13 -37 -13 -85t-69 -48q-41 0 -64 22.5t-12 64.5q22 78 42 144q49 175 51 181q9 33 21 45q5 6 11 8l1 2h-89l1 4h131l-115 -403q-18 -64 22 -64q41 0 66 46t12 81z" />
    <glyph glyph-name="m" unicode="m" horiz-adv-x="597" 
d="M461 283q10 33 -21 33q-43 0 -85.5 -46.5t-59.5 -103.5l-51 -167h-59q27 91 37 123q16 55 50 161q10 33 -22 33q-43 0 -85 -45t-61 -103l-48 -169h-60q25 88 31 109q34 122 42 147q9 33 37 46q12 5 25 5l1 4h-96l1 4h108l-31 -110q23 48 61 82t75 34q33 0 55.5 -20.5
t13.5 -50.5l-13 -42q27 49 61.5 81t72.5 32q33 0 55 -20.5t13 -50.5l-54 -185q-17 -64 20 -64q31 0 52 25.5t28 60.5l4 -1q-7 -36 -29.5 -62.5t-54.5 -26.5q-40 0 -63.5 22.5t-10.5 64.5q14 42 24 81q13 44 37 119z" />
    <glyph glyph-name="n" unicode="n" horiz-adv-x="409" 
d="M-3 -1q25 88 31 109q34 122 42 147q9 33 37 46q12 5 25 5l1 4h-96l1 4h108l-31 -110q23 49 60 82.5t75 33.5q33 0 55 -20.5t13 -50.5l-54 -185q-18 -64 20 -64q30 0 53 27t27 59l4 -1q-7 -36 -29.5 -62.5t-54.5 -26.5q-40 0 -63.5 22.5t-10.5 64.5q14 42 24 81
q13 44 37 119q10 33 -21 33q-43 0 -84.5 -45t-60.5 -103l-48 -169h-60z" />
    <glyph glyph-name="o" unicode="o" 
d="M196 320q54 0 81 -30.5t27 -78.5q0 -76 -57 -145.5t-138 -69.5q-53 0 -79.5 30t-26.5 78q0 77 56 146.5t137 69.5zM196 316q-50 0 -93.5 -82.5t-43.5 -157.5q0 -76 51 -76q53 0 97 80t44 156q0 80 -55 80z" />
    <glyph glyph-name="p" unicode="p" horiz-adv-x="365" 
d="M125 252q19 29 47.5 47.5t54.5 18.5q49 0 73.5 -30t24.5 -78q0 -76 -51.5 -146t-125.5 -70q-33 0 -52 24.5t-19 65.5q-8 -29 -49 -179q-4 -15 -12.5 -26.5t-15 -16t-15.5 -7.5t-11.5 -3h-5.5l-1 -3h129l-2 -4h-142l115 409q4 15 12 26t16 16t15.5 7t12.5 3h5l1 4h-95l1 4
h108zM121 237q-4 -15 -18 -61.5t-22 -75.5q-1 -3 -1 -14q0 -37 15.5 -60.5t44.5 -27.5q36 -5 69.5 34.5t51.5 95t18 103.5q0 83 -52 83q-28 0 -58.5 -21.5t-47.5 -55.5z" />
    <glyph glyph-name="q" unicode="q" horiz-adv-x="368" 
d="M333 314q-51 -181 -52 -186q-11 -38 -25.5 -92t-24 -87.5t-12.5 -43.5q-9 -33 -37 -48q-13 -5 -25 -5l-1 -3h97l-1 -4h-109l72 255q-23 -44 -56.5 -74.5t-63.5 -30.5q-49 0 -72 26t-22 70q0 76 60 151.5t136 75.5q62 0 55 -89l16 60q3 9 7 25h58zM95 -1q33 0 70.5 39
t56.5 88l23 82q20 106 -48 106q-33 0 -67.5 -43t-55.5 -101.5t-21 -104.5q0 -66 42 -66z" />
    <glyph glyph-name="r" unicode="r" horiz-adv-x="316" 
d="M-4 -2q25 88 31 109q34 122 42 147q15 53 60 53l1 3h-93l1 4h107l-30 -106q22 48 56 79t70 31q49 0 49 -50q0 -34 -21 -58t-50 -24q-37 0 -37 35q0 1 0.5 4t0.5 4q14 -2 16 -2q30 0 50.5 20t20.5 42q0 25 -29 25q-42 0 -80.5 -44.5t-56.5 -102.5l-48 -169h-60z" />
    <glyph glyph-name="s" unicode="s" horiz-adv-x="283" 
d="M110 85q0 5 -1.5 12t-14.5 18.5t-35 11.5q-35 0 -52.5 -32.5t-1 -65t63.5 -32.5q40 0 61.5 20.5t21.5 54.5q0 30 -47 75t-47 73q0 40 38.5 70t91.5 30q39 0 56 -28t1 -55.5t-56 -27.5q-16 0 -24.5 7t-8.5 16t6 15q18 -8 32 -8q31 0 42.5 19.5t-2.5 38.5t-46 19
q-34 0 -56 -19.5t-22 -44.5q0 -23 23.5 -49.5t47 -53.5t23.5 -50q0 -42 -37.5 -74t-97.5 -32q-51 0 -68.5 36.5t5.5 73.5t71 37q21 0 34 -9.5t13 -23.5t-14 -22z" />
    <glyph glyph-name="t" unicode="t" horiz-adv-x="218" 
d="M207 310h-73l-71 -246q-18 -64 22 -64q30 0 52.5 27t26.5 59l3 -1q-7 -36 -28.5 -62.5t-53.5 -26.5q-40 0 -63.5 22.5t-12.5 64.5q3 10 25 87q8 25 21.5 74.5t18.5 65.5h-27l1 4h27q1 3 2.5 9.5t3.5 9.5q10 31 43.5 53.5t41.5 45.5h3l-34 -118h73z" />
    <glyph glyph-name="u" unicode="u" horiz-adv-x="390" 
d="M6 82q3 9 9.5 32t10.5 35l30 105q10 34 36 48q12 5 25 5l1 3h-95l1 4h108l-81 -281q-10 -34 21 -34q44 0 85.5 47t59.5 108q6 21 16.5 57t18 63t11.5 40h59l-72 -251q-18 -64 22 -64q31 0 51 25t27 61h4q-7 -36 -28.5 -63t-53.5 -27q-40 0 -63.5 22.5t-12.5 64.5q0 2 1 5
l5 15q-25 -47 -59.5 -77t-70.5 -30q-32 0 -54.5 25t-11.5 62z" />
    <glyph glyph-name="v" unicode="v" horiz-adv-x="315" 
d="M180 289q14 37 44 37q29 0 42 -28.5t13 -62.5q0 -90 -91 -164.5t-212 -74.5l1 2h1v1h8q25 5 40 36t15 77q0 18 -5 47.5t-5 45.5q0 46 34.5 77.5t81.5 37.5q0 -1 2 -3q-45 -6 -56 -65q-3 -16 -3 -32q0 -15 4 -44.5t4 -46.5q0 -41 -18.5 -78t-62.5 -50q104 14 178 81
t80 142q0 30 -16.5 49.5t-43.5 19.5q-19 0 -34 -7z" />
    <glyph glyph-name="w" unicode="w" horiz-adv-x="513" 
d="M380 289q14 37 44 37q33 0 46 -34t10 -73q-10 -88 -99.5 -156t-207.5 -68l3 3h10q42 9 54 91q3 30 -2 64q-32 -69 -101 -113.5t-161 -44.5l2 3q51 0 62 90q4 30 -5 70.5t-5 65.5q6 38 39.5 65t72.5 31q2 -2 2 -3q-23 -4 -39 -26.5t-18 -47.5q-2 -23 6.5 -65.5t4.5 -70.5
q-10 -86 -82 -107q79 9 136.5 55.5t83.5 108.5q-5 30 -1 59q6 38 39 65t73 32q2 -2 2 -3q-22 -4 -39 -26t-19 -47q-2 -24 5 -66t3 -72q-10 -84 -82 -105q100 11 173.5 76.5t83.5 137.5q5 34 -11 56t-48 22q-18 0 -33 -7z" />
    <glyph glyph-name="x" unicode="x" horiz-adv-x="422" 
d="M340 316q27 0 45 -14t18 -42q0 -24 -18 -44t-52 -29l-2 3q18 8 30.5 32t12.5 49q0 41 -34 41q-30 0 -60 -42.5t-47 -101.5h98l-1 -4h-98q-16 -51 -16 -97q0 -68 40 -68q34 0 61.5 28t38.5 64q2 -2 4 -2q-11 -36 -40 -65t-64 -29q-66 0 -85 61q-53 -61 -110 -61
q-34 0 -52.5 18t-18.5 43q0 30 24 56t65 26q25 0 39.5 -15t14.5 -34q0 -13 -9 -22q-21 44 -69 44q-31 0 -46 -15t-15 -40q0 -24 17 -40.5t50 -16.5q37 0 69 49t48 116h-100l2 4h99q8 40 8 68q0 76 -42 76q-34 0 -64 -29t-41 -65l-3 2q13 38 42.5 67t65.5 29q65 0 83 -62
q52 62 112 62z" />
    <glyph glyph-name="y" unicode="y" horiz-adv-x="365" 
d="M317 315q-44 0 -98 -74.5t-104 -188.5q-31 -112 -102 -193t-166 -81q-30 0 -46 14t-16 33q0 25 17 41.5t48 16.5q20 0 32.5 -12t12.5 -28q0 -11 -6 -20q-18 45 -61 45q-18 0 -28.5 -11t-10.5 -32q0 -19 14.5 -31t42.5 -12q109 0 168.5 134t55.5 267.5t-48 133.5h-8l2 3h6
q71 0 96 -72t3 -172q48 107 99.5 175t96.5 68q52 0 52 -52q0 -23 -14.5 -40t-34.5 -17q-26 0 -26 25v3l1 2q2 -1 11 -1q23 0 37 12.5t14 30.5q0 33 -40 33z" />
    <glyph glyph-name="z" unicode="z" horiz-adv-x="363" 
d="M224 165q42 0 61.5 -20t18.5 -50q-2 -38 -31.5 -69.5t-70.5 -31.5q-28 0 -78 14t-80 14q-22 0 -39 -14.5t-22 -39.5l-3 3q7 35 30 66.5t55 34.5l209 185q-13 -5 -28 -5q-21 0 -82 7.5t-82 7.5q-8 0 -18 -2l-24 -79h-4l37 128q12 3 30 3q28 0 98.5 -9t95.5 -9q21 0 29 4
l27 24l4 -2l-286 -253q29 0 84 -19.5t86 -19.5q26 0 42 18.5t17 43.5q1 22 -10.5 38t-34.5 16q-49 0 -70 -44q-10 7 -8 20q0 15 13 27.5t34 12.5z" />
    <glyph glyph-name="braceleft" unicode="{" horiz-adv-x="275" 
d="M423 613q-11 6 -30 6q-58 0 -94.5 -33t-49.5 -83l-49 -188q-8 -33 -34.5 -53.5t-59.5 -20.5h-81l-2 -8h82q34 0 46.5 -21t5.5 -52l-70 -286q-6 -34 -2.5 -56t18 -34.5t28.5 -17t28 -4.5q40 0 65 22l1 -4q-27 -22 -65 -22q-44 0 -67.5 31t-9.5 85l70 286q8 33 -5 51
t-43 18h-87l4 16h84q32 0 57 19t33 51l49 188q15 57 54.5 88.5t93.5 31.5q20 0 31 -5z" />
    <glyph glyph-name="bar" unicode="|" horiz-adv-x="195" 
d="M176 669h5l-170 -782h-5z" />
    <glyph glyph-name="braceright" unicode="}" horiz-adv-x="356" 
d="M60 618q14 5 33 5q54 0 78.5 -31.5t13.5 -88.5l-41 -188q-7 -33 7 -51.5t46 -18.5h87l-2 -16h-87q-30 0 -52 -18t-30 -51l-65 -286q-11 -55 -49.5 -85.5t-82.5 -30.5q-15 0 -28.5 5t-19.5 9.5t-8 7.5l3 4q22 -22 56 -22t72.5 27t52.5 85l65 286q7 31 29.5 52t56.5 21h83
l1 8h-82q-33 0 -48.5 20.5t-8.5 53.5l41 188q9 50 -11.5 83t-78.5 33q-19 0 -32 -6z" />
    <glyph glyph-name="asciitilde" unicode="~" horiz-adv-x="642" 
d="M15 203q3 43 54 66.5t101 23.5q46 0 88 -23.5t68.5 -51t59 -51t62.5 -23.5q46 0 87 38.5t45 79.5q5 50 -35 84q15 24 40 24q20 0 29.5 -18t7.5 -40q-7 -61 -69.5 -121.5t-156.5 -60.5q-41 0 -75 16t-56.5 39t-42.5 46t-41 39t-43 16q-34 0 -53.5 -23.5t-22.5 -52.5
q-2 -20 2.5 -32t12.5 -12l-3 -3q-9 -9 -24 -9q-16 0 -26.5 12.5t-8.5 36.5z" />
    <glyph glyph-name="exclamdown" unicode="&#xa1;" horiz-adv-x="259" 
d="M200 244q-2 -18 -14 -29t-27 -11q-13 0 -21 8.5t-8 21.5q0 17 11.5 29t28.5 12q30 0 30 -31zM38 -354q-7 -35 -42 -35q-14 0 -20 10.5t-1 24.5l162 496h5z" />
    <glyph glyph-name="cent" unicode="&#xa2;" horiz-adv-x="291" 
d="M228 89q-13 -36 -43.5 -63t-69.5 -30l-58 -227h-5l58 226h-4q-86 0 -101 72q-14 67 35 146q51 82 129 102q18 4 36 4q26 0 43.5 -18t17.5 -43q0 -30 -20 -46t-45 -16q-33 0 -26 22h-2l-57 -218q37 4 66.5 30.5t41.5 61.5zM187 273l-11 -41q0 -9 10 -9q30 0 45 34t-4 51
q-9 7 -22 7q-52 0 -100 -87q-46 -84 -45 -161q0 -68 46 -68h5l71 274h5z" />
    <glyph glyph-name="sterling" unicode="&#xa3;" horiz-adv-x="687" 
d="M583 514q0 -56 -43.5 -101.5t-94.5 -45.5q-39 0 -64 18h-85l-19 -67q-21 -73 -32 -109t-32.5 -82.5t-41.5 -63.5q-12 -9 -22.5 -13.5t-15.5 -5.5t-6 -3q-1 -1 -1 -3q4 0 13 0.5t15 0.5q46 0 89 -17.5t70.5 -38t63.5 -38t70 -17.5q51 0 86 36.5t44 84.5t-7 96t-57 70l3 5
q89 0 110 -70q18 -63 -26 -135q-46 -76 -124 -90q-13 -2 -27 -2q-63 0 -169.5 31t-167.5 31q-131 0 -177 -60l-2 4q58 89 169 106q48 59 116 279l21 71h-104v4h105l20 66q26 88 86.5 125t132.5 37q44 0 74 -28t30 -75zM297 389h78q-28 24 -28 59t27 53q14 11 29 3
q-14 -26 -14.5 -56.5t15 -53t43.5 -22.5q49 0 90 44t41 98q0 44 -28.5 71.5t-71.5 27.5q-118 0 -161 -155z" />
    <glyph glyph-name="currency" unicode="&#xa4;" horiz-adv-x="477" 
d="M250 172q4 -7 4 -16q0 -13 -12 -22.5t-32 -9.5q-1 0 -22 3q-8 -6 -18 -6q-11 0 -18 4q0 -31 -15.5 -56t-38.5 -25q-28 0 -28 21q0 13 9.5 23.5t23.5 10.5q7 0 15 -5l-1 -1q-2 1 -8 1q-14 0 -14 -10q0 -11 15 -11q13 0 25 18.5t12 35.5q-16 8 -25 8q-25 0 -25 -19
q0 -7 1 -8l1 -1q1 -1 1 -2l-2 -3q-28 0 -28 28q0 16 9.5 27.5t27.5 11.5q17 0 34.5 -19t28.5 -19q4 0 5 1q-12 6 -20.5 16.5t-16.5 24t-12 18.5q-14 -14 -25 -14q-12 0 -12 12q0 18 25 18h11q18 31 18 63q0 15 -7 15q-9 0 -15 -11t-6 -25q0 -20 13 -24v-3q-2 0 -3 1h-1
q-7 0 -31.5 -10t-36.5 -10q-15 0 -25 9.5t-10 23.5q0 9 6 15.5t14 6.5q4 0 11 -3l1 -4q-7 -1 -7 -10t7.5 -15.5t19.5 -6.5q8 0 23 4t22 4q-6 8 -6 23q0 21 10 38.5t29 17.5q23 0 23 -26q0 -35 -37 -78q7 -5 20.5 -19.5t26.5 -23t28 -8.5q30 0 35 21h3zM254 39q17 0 17 -19
q0 -12 -10.5 -21t-22.5 -9q-9 0 -18 4.5t-24 15t-16 11.5q-10 -15 -22 -15q-15 0 -15 11t9.5 16t19.5 3q9 27 9 32q-6 -23 -20 -23q-9 0 -9 12q0 9 5.5 24t5.5 25q0 3 -2 9q0 2 7 2q11 0 11 -12v-3q0 -1 -1 -8t-3 -12q0 -2 -1.5 -8t-2.5 -9v-2q0 -2 2 -2q3 0 8 17t5 27v4
q4 3 7 3q11 0 11 -12q0 -7 -8 -41q-4 -17 -10 -28q3 -2 17.5 -11.5t23.5 -9.5q24 0 24 19q0 2 -5 7l3 3h5zM331 165q6 -7 6 -16q0 -11 -8 -19.5t-24 -8.5q-17 0 -28.5 11.5t-11.5 27.5q0 11 4 23q-1 -1 -6 -1q-9 0 -9 11q0 5 4.5 21t4.5 22q0 5 -2 5l1 6q1 0 4 0.5t5 0.5
q10 0 10 -13q1 1 2.5 3.5t3 4.5t4 3.5t5.5 1.5q13 0 13 -18q0 -9 -9.5 -30t-9.5 -30q0 -22 19 -22q15 0 21 16zM413 124q7 0 11.5 -7t4.5 -15q0 -14 -9.5 -23t-22.5 -9t-37 9t-30 9q0 -5 1.5 -21t1.5 -26q0 -47 -31 -47q-20 0 -21 15l2 2l9 -3q18 0 18 37v32q0 15 6.5 25
t16.5 10t10 -10q0 -4 -5 -9q7 0 20 -4t21 -4q12 0 20 6.5t8 15.5t-8 9l2 5q5 3 12 3zM214 95q0 4 -1 4.5t-3 -0.5v4q7 9 14 9q10 0 10 -9q0 -3 -1 -4h1q5 12 15 12q12 0 12 -18q0 -12 -8 -29.5t-19 -17.5q-10 0 -10 14q0 6 1 9h-1q0 -1 -2.5 -15.5t-2.5 -22.5q0 -7 1 -9
q-8 -2 -9 -2q-10 0 -10 11q0 9 6.5 34t6.5 30zM209 182q-13 0 -13 16q0 21 11 35t21 14t10 -11h1q2 4 1 11q2 1 8 1q8 0 8 -10q0 -6 -5 -23t-5 -22t1 -6l-1 -5h-4q-11 0 -11 11q0 7 3 11h-1q-10 -22 -24 -22zM305 74q-7 -28 -26 -28q-17 0 -17 22q0 15 9 29t20 14
q15 0 15 -16q0 -19 -23 -23q4 -4 7 -4q9 0 11 8zM174 238q4 10 15 10q9 0 9 -10q0 -8 -6 -24t-6 -23q0 -4 1 -4q0 -1 1 0l-2 -5h-5q-11 0 -11 12q0 6 4.5 18t4.5 20q0 4 -2 4q-1 0 -2 -1zM241 250q-9 2 -9 10q0 19 16 19q9 0 9 -9q0 -6 -5 -9q-2 2 -4 2q-7 0 -7 -7
q0 -1 2 -3zM289 229q0 4 -1.5 5.5t-3.5 0.5t-4.5 -5.5t-5 -16t-2.5 -25.5q17 36 17 41zM208 267q-5 -12 -17 -12h-3l-2 1q1 1 3.5 11.5t10.5 10.5t8 -9v-2zM240 100q-11 0 -11 -21q0 -7 4 -7t7.5 7.5t3.5 13.5q0 7 -4 7zM100 182q12 0 19 15q-2 1 -8 1q-18 0 -18 -11
q0 -5 7 -5zM234 236q-4 0 -7 -8t-3 -15v-3q0 -2 2 -2q3 0 6.5 7.5t4 13.5t-2.5 7zM291 105q-10 0 -10 -26q13 7 13 22q0 4 -3 4zM155 12q7 0 14 16q-19 0 -19 -11q0 -5 5 -5zM332 93q7 0 7 9q0 6 -5 4q-4 -1 -4 -13h2z" />
    <glyph glyph-name="yen" unicode="&#xa5;" horiz-adv-x="477" 
d="M250 172q4 -7 4 -16q0 -13 -12 -22.5t-32 -9.5q-1 0 -22 3q-8 -6 -18 -6q-11 0 -18 4q0 -31 -15.5 -56t-38.5 -25q-28 0 -28 21q0 13 9.5 23.5t23.5 10.5q7 0 15 -5l-1 -1q-2 1 -8 1q-14 0 -14 -10q0 -11 15 -11q13 0 25 18.5t12 35.5q-16 8 -25 8q-25 0 -25 -19
q0 -7 1 -8l1 -1q1 -1 1 -2l-2 -3q-28 0 -28 28q0 16 9.5 27.5t27.5 11.5q17 0 34.5 -19t28.5 -19q4 0 5 1q-12 6 -20.5 16.5t-16.5 24t-12 18.5q-14 -14 -25 -14q-12 0 -12 12q0 18 25 18h11q18 31 18 63q0 15 -7 15q-9 0 -15 -11t-6 -25q0 -20 13 -24v-3q-2 0 -3 1h-1
q-7 0 -31.5 -10t-36.5 -10q-15 0 -25 9.5t-10 23.5q0 9 6 15.5t14 6.5q4 0 11 -3l1 -4q-7 -1 -7 -10t7.5 -15.5t19.5 -6.5q8 0 23 4t22 4q-6 8 -6 23q0 21 10 38.5t29 17.5q23 0 23 -26q0 -35 -37 -78q7 -5 20.5 -19.5t26.5 -23t28 -8.5q30 0 35 21h3zM254 39q17 0 17 -19
q0 -12 -10.5 -21t-22.5 -9q-9 0 -18 4.5t-24 15t-16 11.5q-10 -15 -22 -15q-15 0 -15 11t9.5 16t19.5 3q9 27 9 32q-6 -23 -20 -23q-9 0 -9 12q0 9 5.5 24t5.5 25q0 3 -2 9q0 2 7 2q11 0 11 -12v-3q0 -1 -1 -8t-3 -12q0 -2 -1.5 -8t-2.5 -9v-2q0 -2 2 -2q3 0 8 17t5 27v4
q4 3 7 3q11 0 11 -12q0 -7 -8 -41q-4 -17 -10 -28q3 -2 17.5 -11.5t23.5 -9.5q24 0 24 19q0 2 -5 7l3 3h5zM331 165q6 -7 6 -16q0 -11 -8 -19.5t-24 -8.5q-17 0 -28.5 11.5t-11.5 27.5q0 11 4 23q-1 -1 -6 -1q-9 0 -9 11q0 5 4.5 21t4.5 22q0 5 -2 5l1 6q1 0 4 0.5t5 0.5
q10 0 10 -13q1 1 2.5 3.5t3 4.5t4 3.5t5.5 1.5q13 0 13 -18q0 -9 -9.5 -30t-9.5 -30q0 -22 19 -22q15 0 21 16zM413 124q7 0 11.5 -7t4.5 -15q0 -14 -9.5 -23t-22.5 -9t-37 9t-30 9q0 -5 1.5 -21t1.5 -26q0 -47 -31 -47q-20 0 -21 15l2 2l9 -3q18 0 18 37v32q0 15 6.5 25
t16.5 10t10 -10q0 -4 -5 -9q7 0 20 -4t21 -4q12 0 20 6.5t8 15.5t-8 9l2 5q5 3 12 3zM214 95q0 4 -1 4.5t-3 -0.5v4q7 9 14 9q10 0 10 -9q0 -3 -1 -4h1q5 12 15 12q12 0 12 -18q0 -12 -8 -29.5t-19 -17.5q-10 0 -10 14q0 6 1 9h-1q0 -1 -2.5 -15.5t-2.5 -22.5q0 -7 1 -9
q-8 -2 -9 -2q-10 0 -10 11q0 9 6.5 34t6.5 30zM209 182q-13 0 -13 16q0 21 11 35t21 14t10 -11h1q2 4 1 11q2 1 8 1q8 0 8 -10q0 -6 -5 -23t-5 -22t1 -6l-1 -5h-4q-11 0 -11 11q0 7 3 11h-1q-10 -22 -24 -22zM305 74q-7 -28 -26 -28q-17 0 -17 22q0 15 9 29t20 14
q15 0 15 -16q0 -19 -23 -23q4 -4 7 -4q9 0 11 8zM174 238q4 10 15 10q9 0 9 -10q0 -8 -6 -24t-6 -23q0 -4 1 -4q0 -1 1 0l-2 -5h-5q-11 0 -11 12q0 6 4.5 18t4.5 20q0 4 -2 4q-1 0 -2 -1zM241 250q-9 2 -9 10q0 19 16 19q9 0 9 -9q0 -6 -5 -9q-2 2 -4 2q-7 0 -7 -7
q0 -1 2 -3zM289 229q0 4 -1.5 5.5t-3.5 0.5t-4.5 -5.5t-5 -16t-2.5 -25.5q17 36 17 41zM208 267q-5 -12 -17 -12h-3l-2 1q1 1 3.5 11.5t10.5 10.5t8 -9v-2zM240 100q-11 0 -11 -21q0 -7 4 -7t7.5 7.5t3.5 13.5q0 7 -4 7zM100 182q12 0 19 15q-2 1 -8 1q-18 0 -18 -11
q0 -5 7 -5zM234 236q-4 0 -7 -8t-3 -15v-3q0 -2 2 -2q3 0 6.5 7.5t4 13.5t-2.5 7zM291 105q-10 0 -10 -26q13 7 13 22q0 4 -3 4zM155 12q7 0 14 16q-19 0 -19 -11q0 -5 5 -5zM332 93q7 0 7 9q0 6 -5 4q-4 -1 -4 -13h2z" />
    <glyph glyph-name="brokenbar" unicode="&#xa6;" horiz-adv-x="195" 
d="M108 357l68 312h5l-68 -312h-5zM92 258l-81 -371h-5l81 371h5z" />
    <glyph glyph-name="section" unicode="&#xa7;" horiz-adv-x="499" 
d="M392 160q0 -71 -62 -123q8 -29 8 -52q0 -75 -65.5 -124.5t-144.5 -49.5t-124.5 43t-45.5 98q0 49 32 89t86 40q21 0 36 -4l2 -3q-53 -11 -82.5 -55.5t-29.5 -94.5q0 -44 35.5 -76.5t90.5 -32.5q67 0 109.5 42t42.5 103q0 40 -23.5 87t-51.5 82t-51.5 79.5t-23.5 80.5
q0 74 67 118q-13 30 -13 57q0 55 44 99t115 44q64 0 98.5 -31.5t34.5 -64.5q0 -42 -33 -75t-85 -33l-6 3q33 6 55 37t22 71q0 89 -85 89q-46 0 -76.5 -25.5t-30.5 -71.5q0 -37 24 -81.5t53.5 -81t53.5 -86.5t24 -97zM348 115q0 42 -26.5 91.5t-66.5 105t-55 87.5
q-23 -23 -23 -57q0 -40 29.5 -89.5t68 -106t52.5 -99.5q21 24 21 68z" />
    <glyph glyph-name="dieresis" unicode="&#xa8;" horiz-adv-x="207" 
d="M26 432q7 32 36 32q14 0 22 -9t5 -23q-5 -31 -37 -31q-31 0 -26 31zM162 432q7 32 36 32q14 0 22 -9t5 -23q-5 -31 -37 -31q-31 0 -26 31z" />
    <glyph glyph-name="copyright" unicode="&#xa9;" horiz-adv-x="477" 
d="M250 172q4 -7 4 -16q0 -13 -12 -22.5t-32 -9.5q-1 0 -22 3q-8 -6 -18 -6q-11 0 -18 4q0 -31 -15.5 -56t-38.5 -25q-28 0 -28 21q0 13 9.5 23.5t23.5 10.5q7 0 15 -5l-1 -1q-2 1 -8 1q-14 0 -14 -10q0 -11 15 -11q13 0 25 18.5t12 35.5q-16 8 -25 8q-25 0 -25 -19
q0 -7 1 -8l1 -1q1 -1 1 -2l-2 -3q-28 0 -28 28q0 16 9.5 27.5t27.5 11.5q17 0 34.5 -19t28.5 -19q4 0 5 1q-12 6 -20.5 16.5t-16.5 24t-12 18.5q-14 -14 -25 -14q-12 0 -12 12q0 18 25 18h11q18 31 18 63q0 15 -7 15q-9 0 -15 -11t-6 -25q0 -20 13 -24v-3q-2 0 -3 1h-1
q-7 0 -31.5 -10t-36.5 -10q-15 0 -25 9.5t-10 23.5q0 9 6 15.5t14 6.5q4 0 11 -3l1 -4q-7 -1 -7 -10t7.5 -15.5t19.5 -6.5q8 0 23 4t22 4q-6 8 -6 23q0 21 10 38.5t29 17.5q23 0 23 -26q0 -35 -37 -78q7 -5 20.5 -19.5t26.5 -23t28 -8.5q30 0 35 21h3zM254 39q17 0 17 -19
q0 -12 -10.5 -21t-22.5 -9q-9 0 -18 4.5t-24 15t-16 11.5q-10 -15 -22 -15q-15 0 -15 11t9.5 16t19.5 3q9 27 9 32q-6 -23 -20 -23q-9 0 -9 12q0 9 5.5 24t5.5 25q0 3 -2 9q0 2 7 2q11 0 11 -12v-3q0 -1 -1 -8t-3 -12q0 -2 -1.5 -8t-2.5 -9v-2q0 -2 2 -2q3 0 8 17t5 27v4
q4 3 7 3q11 0 11 -12q0 -7 -8 -41q-4 -17 -10 -28q3 -2 17.5 -11.5t23.5 -9.5q24 0 24 19q0 2 -5 7l3 3h5zM331 165q6 -7 6 -16q0 -11 -8 -19.5t-24 -8.5q-17 0 -28.5 11.5t-11.5 27.5q0 11 4 23q-1 -1 -6 -1q-9 0 -9 11q0 5 4.5 21t4.5 22q0 5 -2 5l1 6q1 0 4 0.5t5 0.5
q10 0 10 -13q1 1 2.5 3.5t3 4.5t4 3.5t5.5 1.5q13 0 13 -18q0 -9 -9.5 -30t-9.5 -30q0 -22 19 -22q15 0 21 16zM413 124q7 0 11.5 -7t4.5 -15q0 -14 -9.5 -23t-22.5 -9t-37 9t-30 9q0 -5 1.5 -21t1.5 -26q0 -47 -31 -47q-20 0 -21 15l2 2l9 -3q18 0 18 37v32q0 15 6.5 25
t16.5 10t10 -10q0 -4 -5 -9q7 0 20 -4t21 -4q12 0 20 6.5t8 15.5t-8 9l2 5q5 3 12 3zM214 95q0 4 -1 4.5t-3 -0.5v4q7 9 14 9q10 0 10 -9q0 -3 -1 -4h1q5 12 15 12q12 0 12 -18q0 -12 -8 -29.5t-19 -17.5q-10 0 -10 14q0 6 1 9h-1q0 -1 -2.5 -15.5t-2.5 -22.5q0 -7 1 -9
q-8 -2 -9 -2q-10 0 -10 11q0 9 6.5 34t6.5 30zM209 182q-13 0 -13 16q0 21 11 35t21 14t10 -11h1q2 4 1 11q2 1 8 1q8 0 8 -10q0 -6 -5 -23t-5 -22t1 -6l-1 -5h-4q-11 0 -11 11q0 7 3 11h-1q-10 -22 -24 -22zM305 74q-7 -28 -26 -28q-17 0 -17 22q0 15 9 29t20 14
q15 0 15 -16q0 -19 -23 -23q4 -4 7 -4q9 0 11 8zM174 238q4 10 15 10q9 0 9 -10q0 -8 -6 -24t-6 -23q0 -4 1 -4q0 -1 1 0l-2 -5h-5q-11 0 -11 12q0 6 4.5 18t4.5 20q0 4 -2 4q-1 0 -2 -1zM241 250q-9 2 -9 10q0 19 16 19q9 0 9 -9q0 -6 -5 -9q-2 2 -4 2q-7 0 -7 -7
q0 -1 2 -3zM289 229q0 4 -1.5 5.5t-3.5 0.5t-4.5 -5.5t-5 -16t-2.5 -25.5q17 36 17 41zM208 267q-5 -12 -17 -12h-3l-2 1q1 1 3.5 11.5t10.5 10.5t8 -9v-2zM240 100q-11 0 -11 -21q0 -7 4 -7t7.5 7.5t3.5 13.5q0 7 -4 7zM100 182q12 0 19 15q-2 1 -8 1q-18 0 -18 -11
q0 -5 7 -5zM234 236q-4 0 -7 -8t-3 -15v-3q0 -2 2 -2q3 0 6.5 7.5t4 13.5t-2.5 7zM291 105q-10 0 -10 -26q13 7 13 22q0 4 -3 4zM155 12q7 0 14 16q-19 0 -19 -11q0 -5 5 -5zM332 93q7 0 7 9q0 6 -5 4q-4 -1 -4 -13h2z" />
    <glyph glyph-name="ordfeminine" unicode="&#xaa;" horiz-adv-x="477" 
d="M250 172q4 -7 4 -16q0 -13 -12 -22.5t-32 -9.5q-1 0 -22 3q-8 -6 -18 -6q-11 0 -18 4q0 -31 -15.5 -56t-38.5 -25q-28 0 -28 21q0 13 9.5 23.5t23.5 10.5q7 0 15 -5l-1 -1q-2 1 -8 1q-14 0 -14 -10q0 -11 15 -11q13 0 25 18.5t12 35.5q-16 8 -25 8q-25 0 -25 -19
q0 -7 1 -8l1 -1q1 -1 1 -2l-2 -3q-28 0 -28 28q0 16 9.5 27.5t27.5 11.5q17 0 34.5 -19t28.5 -19q4 0 5 1q-12 6 -20.5 16.5t-16.5 24t-12 18.5q-14 -14 -25 -14q-12 0 -12 12q0 18 25 18h11q18 31 18 63q0 15 -7 15q-9 0 -15 -11t-6 -25q0 -20 13 -24v-3q-2 0 -3 1h-1
q-7 0 -31.5 -10t-36.5 -10q-15 0 -25 9.5t-10 23.5q0 9 6 15.5t14 6.5q4 0 11 -3l1 -4q-7 -1 -7 -10t7.5 -15.5t19.5 -6.5q8 0 23 4t22 4q-6 8 -6 23q0 21 10 38.5t29 17.5q23 0 23 -26q0 -35 -37 -78q7 -5 20.5 -19.5t26.5 -23t28 -8.5q30 0 35 21h3zM254 39q17 0 17 -19
q0 -12 -10.5 -21t-22.5 -9q-9 0 -18 4.5t-24 15t-16 11.5q-10 -15 -22 -15q-15 0 -15 11t9.5 16t19.5 3q9 27 9 32q-6 -23 -20 -23q-9 0 -9 12q0 9 5.5 24t5.5 25q0 3 -2 9q0 2 7 2q11 0 11 -12v-3q0 -1 -1 -8t-3 -12q0 -2 -1.5 -8t-2.5 -9v-2q0 -2 2 -2q3 0 8 17t5 27v4
q4 3 7 3q11 0 11 -12q0 -7 -8 -41q-4 -17 -10 -28q3 -2 17.5 -11.5t23.5 -9.5q24 0 24 19q0 2 -5 7l3 3h5zM331 165q6 -7 6 -16q0 -11 -8 -19.5t-24 -8.5q-17 0 -28.5 11.5t-11.5 27.5q0 11 4 23q-1 -1 -6 -1q-9 0 -9 11q0 5 4.5 21t4.5 22q0 5 -2 5l1 6q1 0 4 0.5t5 0.5
q10 0 10 -13q1 1 2.5 3.5t3 4.5t4 3.5t5.5 1.5q13 0 13 -18q0 -9 -9.5 -30t-9.5 -30q0 -22 19 -22q15 0 21 16zM413 124q7 0 11.5 -7t4.5 -15q0 -14 -9.5 -23t-22.5 -9t-37 9t-30 9q0 -5 1.5 -21t1.5 -26q0 -47 -31 -47q-20 0 -21 15l2 2l9 -3q18 0 18 37v32q0 15 6.5 25
t16.5 10t10 -10q0 -4 -5 -9q7 0 20 -4t21 -4q12 0 20 6.5t8 15.5t-8 9l2 5q5 3 12 3zM214 95q0 4 -1 4.5t-3 -0.5v4q7 9 14 9q10 0 10 -9q0 -3 -1 -4h1q5 12 15 12q12 0 12 -18q0 -12 -8 -29.5t-19 -17.5q-10 0 -10 14q0 6 1 9h-1q0 -1 -2.5 -15.5t-2.5 -22.5q0 -7 1 -9
q-8 -2 -9 -2q-10 0 -10 11q0 9 6.5 34t6.5 30zM209 182q-13 0 -13 16q0 21 11 35t21 14t10 -11h1q2 4 1 11q2 1 8 1q8 0 8 -10q0 -6 -5 -23t-5 -22t1 -6l-1 -5h-4q-11 0 -11 11q0 7 3 11h-1q-10 -22 -24 -22zM305 74q-7 -28 -26 -28q-17 0 -17 22q0 15 9 29t20 14
q15 0 15 -16q0 -19 -23 -23q4 -4 7 -4q9 0 11 8zM174 238q4 10 15 10q9 0 9 -10q0 -8 -6 -24t-6 -23q0 -4 1 -4q0 -1 1 0l-2 -5h-5q-11 0 -11 12q0 6 4.5 18t4.5 20q0 4 -2 4q-1 0 -2 -1zM241 250q-9 2 -9 10q0 19 16 19q9 0 9 -9q0 -6 -5 -9q-2 2 -4 2q-7 0 -7 -7
q0 -1 2 -3zM289 229q0 4 -1.5 5.5t-3.5 0.5t-4.5 -5.5t-5 -16t-2.5 -25.5q17 36 17 41zM208 267q-5 -12 -17 -12h-3l-2 1q1 1 3.5 11.5t10.5 10.5t8 -9v-2zM240 100q-11 0 -11 -21q0 -7 4 -7t7.5 7.5t3.5 13.5q0 7 -4 7zM100 182q12 0 19 15q-2 1 -8 1q-18 0 -18 -11
q0 -5 7 -5zM234 236q-4 0 -7 -8t-3 -15v-3q0 -2 2 -2q3 0 6.5 7.5t4 13.5t-2.5 7zM291 105q-10 0 -10 -26q13 7 13 22q0 4 -3 4zM155 12q7 0 14 16q-19 0 -19 -11q0 -5 5 -5zM332 93q7 0 7 9q0 6 -5 4q-4 -1 -4 -13h2z" />
    <glyph glyph-name="guillemotleft" unicode="&#xab;" horiz-adv-x="507" 
d="M221 0l-206 178v5l304 163l3 -4l-303 -161v-1l205 -176zM384 0l-206 178v5l304 163l3 -4l-303 -161v-1l205 -176z" />
    <glyph glyph-name="logicalnot" unicode="&#xac;" horiz-adv-x="477" 
d="M250 172q4 -7 4 -16q0 -13 -12 -22.5t-32 -9.5q-1 0 -22 3q-8 -6 -18 -6q-11 0 -18 4q0 -31 -15.5 -56t-38.5 -25q-28 0 -28 21q0 13 9.5 23.5t23.5 10.5q7 0 15 -5l-1 -1q-2 1 -8 1q-14 0 -14 -10q0 -11 15 -11q13 0 25 18.5t12 35.5q-16 8 -25 8q-25 0 -25 -19
q0 -7 1 -8l1 -1q1 -1 1 -2l-2 -3q-28 0 -28 28q0 16 9.5 27.5t27.5 11.5q17 0 34.5 -19t28.5 -19q4 0 5 1q-12 6 -20.5 16.5t-16.5 24t-12 18.5q-14 -14 -25 -14q-12 0 -12 12q0 18 25 18h11q18 31 18 63q0 15 -7 15q-9 0 -15 -11t-6 -25q0 -20 13 -24v-3q-2 0 -3 1h-1
q-7 0 -31.5 -10t-36.5 -10q-15 0 -25 9.5t-10 23.5q0 9 6 15.5t14 6.5q4 0 11 -3l1 -4q-7 -1 -7 -10t7.5 -15.5t19.5 -6.5q8 0 23 4t22 4q-6 8 -6 23q0 21 10 38.5t29 17.5q23 0 23 -26q0 -35 -37 -78q7 -5 20.5 -19.5t26.5 -23t28 -8.5q30 0 35 21h3zM254 39q17 0 17 -19
q0 -12 -10.5 -21t-22.5 -9q-9 0 -18 4.5t-24 15t-16 11.5q-10 -15 -22 -15q-15 0 -15 11t9.5 16t19.5 3q9 27 9 32q-6 -23 -20 -23q-9 0 -9 12q0 9 5.5 24t5.5 25q0 3 -2 9q0 2 7 2q11 0 11 -12v-3q0 -1 -1 -8t-3 -12q0 -2 -1.5 -8t-2.5 -9v-2q0 -2 2 -2q3 0 8 17t5 27v4
q4 3 7 3q11 0 11 -12q0 -7 -8 -41q-4 -17 -10 -28q3 -2 17.5 -11.5t23.5 -9.5q24 0 24 19q0 2 -5 7l3 3h5zM331 165q6 -7 6 -16q0 -11 -8 -19.5t-24 -8.5q-17 0 -28.5 11.5t-11.5 27.5q0 11 4 23q-1 -1 -6 -1q-9 0 -9 11q0 5 4.5 21t4.5 22q0 5 -2 5l1 6q1 0 4 0.5t5 0.5
q10 0 10 -13q1 1 2.5 3.5t3 4.5t4 3.5t5.5 1.5q13 0 13 -18q0 -9 -9.5 -30t-9.5 -30q0 -22 19 -22q15 0 21 16zM413 124q7 0 11.5 -7t4.5 -15q0 -14 -9.5 -23t-22.5 -9t-37 9t-30 9q0 -5 1.5 -21t1.5 -26q0 -47 -31 -47q-20 0 -21 15l2 2l9 -3q18 0 18 37v32q0 15 6.5 25
t16.5 10t10 -10q0 -4 -5 -9q7 0 20 -4t21 -4q12 0 20 6.5t8 15.5t-8 9l2 5q5 3 12 3zM214 95q0 4 -1 4.5t-3 -0.5v4q7 9 14 9q10 0 10 -9q0 -3 -1 -4h1q5 12 15 12q12 0 12 -18q0 -12 -8 -29.5t-19 -17.5q-10 0 -10 14q0 6 1 9h-1q0 -1 -2.5 -15.5t-2.5 -22.5q0 -7 1 -9
q-8 -2 -9 -2q-10 0 -10 11q0 9 6.5 34t6.5 30zM209 182q-13 0 -13 16q0 21 11 35t21 14t10 -11h1q2 4 1 11q2 1 8 1q8 0 8 -10q0 -6 -5 -23t-5 -22t1 -6l-1 -5h-4q-11 0 -11 11q0 7 3 11h-1q-10 -22 -24 -22zM305 74q-7 -28 -26 -28q-17 0 -17 22q0 15 9 29t20 14
q15 0 15 -16q0 -19 -23 -23q4 -4 7 -4q9 0 11 8zM174 238q4 10 15 10q9 0 9 -10q0 -8 -6 -24t-6 -23q0 -4 1 -4q0 -1 1 0l-2 -5h-5q-11 0 -11 12q0 6 4.5 18t4.5 20q0 4 -2 4q-1 0 -2 -1zM241 250q-9 2 -9 10q0 19 16 19q9 0 9 -9q0 -6 -5 -9q-2 2 -4 2q-7 0 -7 -7
q0 -1 2 -3zM289 229q0 4 -1.5 5.5t-3.5 0.5t-4.5 -5.5t-5 -16t-2.5 -25.5q17 36 17 41zM208 267q-5 -12 -17 -12h-3l-2 1q1 1 3.5 11.5t10.5 10.5t8 -9v-2zM240 100q-11 0 -11 -21q0 -7 4 -7t7.5 7.5t3.5 13.5q0 7 -4 7zM100 182q12 0 19 15q-2 1 -8 1q-18 0 -18 -11
q0 -5 7 -5zM234 236q-4 0 -7 -8t-3 -15v-3q0 -2 2 -2q3 0 6.5 7.5t4 13.5t-2.5 7zM291 105q-10 0 -10 -26q13 7 13 22q0 4 -3 4zM155 12q7 0 14 16q-19 0 -19 -11q0 -5 5 -5zM332 93q7 0 7 9q0 6 -5 4q-4 -1 -4 -13h2z" />
    <glyph glyph-name="uni00AD" unicode="&#xad;" horiz-adv-x="630" 
d="M44 171h519v-5h-519v5z" />
    <glyph glyph-name="registered" unicode="&#xae;" horiz-adv-x="477" 
d="M250 172q4 -7 4 -16q0 -13 -12 -22.5t-32 -9.5q-1 0 -22 3q-8 -6 -18 -6q-11 0 -18 4q0 -31 -15.5 -56t-38.5 -25q-28 0 -28 21q0 13 9.5 23.5t23.5 10.5q7 0 15 -5l-1 -1q-2 1 -8 1q-14 0 -14 -10q0 -11 15 -11q13 0 25 18.5t12 35.5q-16 8 -25 8q-25 0 -25 -19
q0 -7 1 -8l1 -1q1 -1 1 -2l-2 -3q-28 0 -28 28q0 16 9.5 27.5t27.5 11.5q17 0 34.5 -19t28.5 -19q4 0 5 1q-12 6 -20.5 16.5t-16.5 24t-12 18.5q-14 -14 -25 -14q-12 0 -12 12q0 18 25 18h11q18 31 18 63q0 15 -7 15q-9 0 -15 -11t-6 -25q0 -20 13 -24v-3q-2 0 -3 1h-1
q-7 0 -31.5 -10t-36.5 -10q-15 0 -25 9.5t-10 23.5q0 9 6 15.5t14 6.5q4 0 11 -3l1 -4q-7 -1 -7 -10t7.5 -15.5t19.5 -6.5q8 0 23 4t22 4q-6 8 -6 23q0 21 10 38.5t29 17.5q23 0 23 -26q0 -35 -37 -78q7 -5 20.5 -19.5t26.5 -23t28 -8.5q30 0 35 21h3zM254 39q17 0 17 -19
q0 -12 -10.5 -21t-22.5 -9q-9 0 -18 4.5t-24 15t-16 11.5q-10 -15 -22 -15q-15 0 -15 11t9.5 16t19.5 3q9 27 9 32q-6 -23 -20 -23q-9 0 -9 12q0 9 5.5 24t5.5 25q0 3 -2 9q0 2 7 2q11 0 11 -12v-3q0 -1 -1 -8t-3 -12q0 -2 -1.5 -8t-2.5 -9v-2q0 -2 2 -2q3 0 8 17t5 27v4
q4 3 7 3q11 0 11 -12q0 -7 -8 -41q-4 -17 -10 -28q3 -2 17.5 -11.5t23.5 -9.5q24 0 24 19q0 2 -5 7l3 3h5zM331 165q6 -7 6 -16q0 -11 -8 -19.5t-24 -8.5q-17 0 -28.5 11.5t-11.5 27.5q0 11 4 23q-1 -1 -6 -1q-9 0 -9 11q0 5 4.5 21t4.5 22q0 5 -2 5l1 6q1 0 4 0.5t5 0.5
q10 0 10 -13q1 1 2.5 3.5t3 4.5t4 3.5t5.5 1.5q13 0 13 -18q0 -9 -9.5 -30t-9.5 -30q0 -22 19 -22q15 0 21 16zM413 124q7 0 11.5 -7t4.5 -15q0 -14 -9.5 -23t-22.5 -9t-37 9t-30 9q0 -5 1.5 -21t1.5 -26q0 -47 -31 -47q-20 0 -21 15l2 2l9 -3q18 0 18 37v32q0 15 6.5 25
t16.5 10t10 -10q0 -4 -5 -9q7 0 20 -4t21 -4q12 0 20 6.5t8 15.5t-8 9l2 5q5 3 12 3zM214 95q0 4 -1 4.5t-3 -0.5v4q7 9 14 9q10 0 10 -9q0 -3 -1 -4h1q5 12 15 12q12 0 12 -18q0 -12 -8 -29.5t-19 -17.5q-10 0 -10 14q0 6 1 9h-1q0 -1 -2.5 -15.5t-2.5 -22.5q0 -7 1 -9
q-8 -2 -9 -2q-10 0 -10 11q0 9 6.5 34t6.5 30zM209 182q-13 0 -13 16q0 21 11 35t21 14t10 -11h1q2 4 1 11q2 1 8 1q8 0 8 -10q0 -6 -5 -23t-5 -22t1 -6l-1 -5h-4q-11 0 -11 11q0 7 3 11h-1q-10 -22 -24 -22zM305 74q-7 -28 -26 -28q-17 0 -17 22q0 15 9 29t20 14
q15 0 15 -16q0 -19 -23 -23q4 -4 7 -4q9 0 11 8zM174 238q4 10 15 10q9 0 9 -10q0 -8 -6 -24t-6 -23q0 -4 1 -4q0 -1 1 0l-2 -5h-5q-11 0 -11 12q0 6 4.5 18t4.5 20q0 4 -2 4q-1 0 -2 -1zM241 250q-9 2 -9 10q0 19 16 19q9 0 9 -9q0 -6 -5 -9q-2 2 -4 2q-7 0 -7 -7
q0 -1 2 -3zM289 229q0 4 -1.5 5.5t-3.5 0.5t-4.5 -5.5t-5 -16t-2.5 -25.5q17 36 17 41zM208 267q-5 -12 -17 -12h-3l-2 1q1 1 3.5 11.5t10.5 10.5t8 -9v-2zM240 100q-11 0 -11 -21q0 -7 4 -7t7.5 7.5t3.5 13.5q0 7 -4 7zM100 182q12 0 19 15q-2 1 -8 1q-18 0 -18 -11
q0 -5 7 -5zM234 236q-4 0 -7 -8t-3 -15v-3q0 -2 2 -2q3 0 6.5 7.5t4 13.5t-2.5 7zM291 105q-10 0 -10 -26q13 7 13 22q0 4 -3 4zM155 12q7 0 14 16q-19 0 -19 -11q0 -5 5 -5zM332 93q7 0 7 9q0 6 -5 4q-4 -1 -4 -13h2z" />
    <glyph glyph-name="macron" unicode="&#xaf;" horiz-adv-x="373" 
d="M83 434h222l-2 -6h-222z" />
    <glyph glyph-name="degree" unicode="&#xb0;" horiz-adv-x="477" 
d="M250 172q4 -7 4 -16q0 -13 -12 -22.5t-32 -9.5q-1 0 -22 3q-8 -6 -18 -6q-11 0 -18 4q0 -31 -15.5 -56t-38.5 -25q-28 0 -28 21q0 13 9.5 23.5t23.5 10.5q7 0 15 -5l-1 -1q-2 1 -8 1q-14 0 -14 -10q0 -11 15 -11q13 0 25 18.5t12 35.5q-16 8 -25 8q-25 0 -25 -19
q0 -7 1 -8l1 -1q1 -1 1 -2l-2 -3q-28 0 -28 28q0 16 9.5 27.5t27.5 11.5q17 0 34.5 -19t28.5 -19q4 0 5 1q-12 6 -20.5 16.5t-16.5 24t-12 18.5q-14 -14 -25 -14q-12 0 -12 12q0 18 25 18h11q18 31 18 63q0 15 -7 15q-9 0 -15 -11t-6 -25q0 -20 13 -24v-3q-2 0 -3 1h-1
q-7 0 -31.5 -10t-36.5 -10q-15 0 -25 9.5t-10 23.5q0 9 6 15.5t14 6.5q4 0 11 -3l1 -4q-7 -1 -7 -10t7.5 -15.5t19.5 -6.5q8 0 23 4t22 4q-6 8 -6 23q0 21 10 38.5t29 17.5q23 0 23 -26q0 -35 -37 -78q7 -5 20.5 -19.5t26.5 -23t28 -8.5q30 0 35 21h3zM254 39q17 0 17 -19
q0 -12 -10.5 -21t-22.5 -9q-9 0 -18 4.5t-24 15t-16 11.5q-10 -15 -22 -15q-15 0 -15 11t9.5 16t19.5 3q9 27 9 32q-6 -23 -20 -23q-9 0 -9 12q0 9 5.5 24t5.5 25q0 3 -2 9q0 2 7 2q11 0 11 -12v-3q0 -1 -1 -8t-3 -12q0 -2 -1.5 -8t-2.5 -9v-2q0 -2 2 -2q3 0 8 17t5 27v4
q4 3 7 3q11 0 11 -12q0 -7 -8 -41q-4 -17 -10 -28q3 -2 17.5 -11.5t23.5 -9.5q24 0 24 19q0 2 -5 7l3 3h5zM331 165q6 -7 6 -16q0 -11 -8 -19.5t-24 -8.5q-17 0 -28.5 11.5t-11.5 27.5q0 11 4 23q-1 -1 -6 -1q-9 0 -9 11q0 5 4.5 21t4.5 22q0 5 -2 5l1 6q1 0 4 0.5t5 0.5
q10 0 10 -13q1 1 2.5 3.5t3 4.5t4 3.5t5.5 1.5q13 0 13 -18q0 -9 -9.5 -30t-9.5 -30q0 -22 19 -22q15 0 21 16zM413 124q7 0 11.5 -7t4.5 -15q0 -14 -9.5 -23t-22.5 -9t-37 9t-30 9q0 -5 1.5 -21t1.5 -26q0 -47 -31 -47q-20 0 -21 15l2 2l9 -3q18 0 18 37v32q0 15 6.5 25
t16.5 10t10 -10q0 -4 -5 -9q7 0 20 -4t21 -4q12 0 20 6.5t8 15.5t-8 9l2 5q5 3 12 3zM214 95q0 4 -1 4.5t-3 -0.5v4q7 9 14 9q10 0 10 -9q0 -3 -1 -4h1q5 12 15 12q12 0 12 -18q0 -12 -8 -29.5t-19 -17.5q-10 0 -10 14q0 6 1 9h-1q0 -1 -2.5 -15.5t-2.5 -22.5q0 -7 1 -9
q-8 -2 -9 -2q-10 0 -10 11q0 9 6.5 34t6.5 30zM209 182q-13 0 -13 16q0 21 11 35t21 14t10 -11h1q2 4 1 11q2 1 8 1q8 0 8 -10q0 -6 -5 -23t-5 -22t1 -6l-1 -5h-4q-11 0 -11 11q0 7 3 11h-1q-10 -22 -24 -22zM305 74q-7 -28 -26 -28q-17 0 -17 22q0 15 9 29t20 14
q15 0 15 -16q0 -19 -23 -23q4 -4 7 -4q9 0 11 8zM174 238q4 10 15 10q9 0 9 -10q0 -8 -6 -24t-6 -23q0 -4 1 -4q0 -1 1 0l-2 -5h-5q-11 0 -11 12q0 6 4.5 18t4.5 20q0 4 -2 4q-1 0 -2 -1zM241 250q-9 2 -9 10q0 19 16 19q9 0 9 -9q0 -6 -5 -9q-2 2 -4 2q-7 0 -7 -7
q0 -1 2 -3zM289 229q0 4 -1.5 5.5t-3.5 0.5t-4.5 -5.5t-5 -16t-2.5 -25.5q17 36 17 41zM208 267q-5 -12 -17 -12h-3l-2 1q1 1 3.5 11.5t10.5 10.5t8 -9v-2zM240 100q-11 0 -11 -21q0 -7 4 -7t7.5 7.5t3.5 13.5q0 7 -4 7zM100 182q12 0 19 15q-2 1 -8 1q-18 0 -18 -11
q0 -5 7 -5zM234 236q-4 0 -7 -8t-3 -15v-3q0 -2 2 -2q3 0 6.5 7.5t4 13.5t-2.5 7zM291 105q-10 0 -10 -26q13 7 13 22q0 4 -3 4zM155 12q7 0 14 16q-19 0 -19 -11q0 -5 5 -5zM332 93q7 0 7 9q0 6 -5 4q-4 -1 -4 -13h2z" />
    <glyph glyph-name="plusminus" unicode="&#xb1;" horiz-adv-x="429" 
d="M60 314h160l41 158h5l-42 -158h164v-5h-165l-43 -165h-5l43 165h-158v5zM-6 4h328v-5h-328v5z" />
    <glyph glyph-name="twosuperior" unicode="&#xb2;" horiz-adv-x="561" 
d="M280 324q-45 6 -68.5 36.5t-21.5 71.5q4 63 62.5 113.5t152.5 50.5q58 0 100 -26t39 -87q-7 -80 -135 -168l7 -4q57 -2 83 -36.5t23 -88.5q-4 -76 -65.5 -134.5t-152.5 -58.5q-45 0 -127.5 26t-120.5 26q-26 0 -48.5 -14.5t-30.5 -37.5q-3 -9 -3 -19q0 -18 13.5 -31
t39.5 -13q63 0 86 54q16 -12 17 -34t-18.5 -40.5t-55.5 -18.5q-40 0 -65.5 22.5t-23.5 60.5v2q10 111 96 129q35 25 98.5 63t112.5 69.5t99 71t80 86t33 97.5q3 39 -14.5 69.5t-66.5 30.5q-65 0 -113.5 -59t-52.5 -123q-5 -69 45 -82zM394 304q-47 -32 -161 -98t-161 -100
q3 1 15 1q32 0 62.5 -17t50.5 -38t48 -38t56 -17q70 0 115 55t49 129q2 54 -15.5 88.5t-55.5 34.5h-3z" />
    <glyph glyph-name="threesuperior" unicode="&#xb3;" horiz-adv-x="467" 
d="M226 390q12 0 17 -1l134 129h-199l-16 -50h-4l16 50l19 61h247l44 42h4l-240 -232q85 -6 130 -50.5t43 -106.5q-2 -91 -81 -165t-199 -74q-77 0 -118.5 34t-41.5 86q0 28 19 51.5t51 27.5l4 -2q-28 -34 -28 -84q0 -45 25.5 -76t79.5 -33q101 0 164.5 73.5t65.5 169.5
q2 64 -33 106t-104 42z" />
    <glyph glyph-name="acute" unicode="&#xb4;" horiz-adv-x="180" 
d="M62 404q45 6 69 51t6 74q17 11 33 4t18 -28q3 -27 -33 -61t-92 -43z" />
    <glyph glyph-name="mu" unicode="&#xb5;" horiz-adv-x="477" 
d="M250 172q4 -7 4 -16q0 -13 -12 -22.5t-32 -9.5q-1 0 -22 3q-8 -6 -18 -6q-11 0 -18 4q0 -31 -15.5 -56t-38.5 -25q-28 0 -28 21q0 13 9.5 23.5t23.5 10.5q7 0 15 -5l-1 -1q-2 1 -8 1q-14 0 -14 -10q0 -11 15 -11q13 0 25 18.5t12 35.5q-16 8 -25 8q-25 0 -25 -19
q0 -7 1 -8l1 -1q1 -1 1 -2l-2 -3q-28 0 -28 28q0 16 9.5 27.5t27.5 11.5q17 0 34.5 -19t28.5 -19q4 0 5 1q-12 6 -20.5 16.5t-16.5 24t-12 18.5q-14 -14 -25 -14q-12 0 -12 12q0 18 25 18h11q18 31 18 63q0 15 -7 15q-9 0 -15 -11t-6 -25q0 -20 13 -24v-3q-2 0 -3 1h-1
q-7 0 -31.5 -10t-36.5 -10q-15 0 -25 9.5t-10 23.5q0 9 6 15.5t14 6.5q4 0 11 -3l1 -4q-7 -1 -7 -10t7.5 -15.5t19.5 -6.5q8 0 23 4t22 4q-6 8 -6 23q0 21 10 38.5t29 17.5q23 0 23 -26q0 -35 -37 -78q7 -5 20.5 -19.5t26.5 -23t28 -8.5q30 0 35 21h3zM254 39q17 0 17 -19
q0 -12 -10.5 -21t-22.5 -9q-9 0 -18 4.5t-24 15t-16 11.5q-10 -15 -22 -15q-15 0 -15 11t9.5 16t19.5 3q9 27 9 32q-6 -23 -20 -23q-9 0 -9 12q0 9 5.5 24t5.5 25q0 3 -2 9q0 2 7 2q11 0 11 -12v-3q0 -1 -1 -8t-3 -12q0 -2 -1.5 -8t-2.5 -9v-2q0 -2 2 -2q3 0 8 17t5 27v4
q4 3 7 3q11 0 11 -12q0 -7 -8 -41q-4 -17 -10 -28q3 -2 17.5 -11.5t23.5 -9.5q24 0 24 19q0 2 -5 7l3 3h5zM331 165q6 -7 6 -16q0 -11 -8 -19.5t-24 -8.5q-17 0 -28.5 11.5t-11.5 27.5q0 11 4 23q-1 -1 -6 -1q-9 0 -9 11q0 5 4.5 21t4.5 22q0 5 -2 5l1 6q1 0 4 0.5t5 0.5
q10 0 10 -13q1 1 2.5 3.5t3 4.5t4 3.5t5.5 1.5q13 0 13 -18q0 -9 -9.5 -30t-9.5 -30q0 -22 19 -22q15 0 21 16zM413 124q7 0 11.5 -7t4.5 -15q0 -14 -9.5 -23t-22.5 -9t-37 9t-30 9q0 -5 1.5 -21t1.5 -26q0 -47 -31 -47q-20 0 -21 15l2 2l9 -3q18 0 18 37v32q0 15 6.5 25
t16.5 10t10 -10q0 -4 -5 -9q7 0 20 -4t21 -4q12 0 20 6.5t8 15.5t-8 9l2 5q5 3 12 3zM214 95q0 4 -1 4.5t-3 -0.5v4q7 9 14 9q10 0 10 -9q0 -3 -1 -4h1q5 12 15 12q12 0 12 -18q0 -12 -8 -29.5t-19 -17.5q-10 0 -10 14q0 6 1 9h-1q0 -1 -2.5 -15.5t-2.5 -22.5q0 -7 1 -9
q-8 -2 -9 -2q-10 0 -10 11q0 9 6.5 34t6.5 30zM209 182q-13 0 -13 16q0 21 11 35t21 14t10 -11h1q2 4 1 11q2 1 8 1q8 0 8 -10q0 -6 -5 -23t-5 -22t1 -6l-1 -5h-4q-11 0 -11 11q0 7 3 11h-1q-10 -22 -24 -22zM305 74q-7 -28 -26 -28q-17 0 -17 22q0 15 9 29t20 14
q15 0 15 -16q0 -19 -23 -23q4 -4 7 -4q9 0 11 8zM174 238q4 10 15 10q9 0 9 -10q0 -8 -6 -24t-6 -23q0 -4 1 -4q0 -1 1 0l-2 -5h-5q-11 0 -11 12q0 6 4.5 18t4.5 20q0 4 -2 4q-1 0 -2 -1zM241 250q-9 2 -9 10q0 19 16 19q9 0 9 -9q0 -6 -5 -9q-2 2 -4 2q-7 0 -7 -7
q0 -1 2 -3zM289 229q0 4 -1.5 5.5t-3.5 0.5t-4.5 -5.5t-5 -16t-2.5 -25.5q17 36 17 41zM208 267q-5 -12 -17 -12h-3l-2 1q1 1 3.5 11.5t10.5 10.5t8 -9v-2zM240 100q-11 0 -11 -21q0 -7 4 -7t7.5 7.5t3.5 13.5q0 7 -4 7zM100 182q12 0 19 15q-2 1 -8 1q-18 0 -18 -11
q0 -5 7 -5zM234 236q-4 0 -7 -8t-3 -15v-3q0 -2 2 -2q3 0 6.5 7.5t4 13.5t-2.5 7zM291 105q-10 0 -10 -26q13 7 13 22q0 4 -3 4zM155 12q7 0 14 16q-19 0 -19 -11q0 -5 5 -5zM332 93q7 0 7 9q0 6 -5 4q-4 -1 -4 -13h2z" />
    <glyph glyph-name="paragraph" unicode="&#xb6;" horiz-adv-x="429" 
d="M538 596l-1 -4h-49l-171 -593q-35 -123 -134 -204t-228 -81q-69 0 -86 48q-12 38 14 66q16 17 40 17q31 0 32 -34q-22 0 -32.5 -23.5t-2 -46.5t34.5 -23q21 0 40 6.5t35.5 24t29.5 33.5t27.5 49.5t24 56.5t24 70t22 74.5t23.5 84.5q-107 0 -152 89q-41 82 -7 187
q36 112 136 166q67 37 152 37h228zM426 592h-104l-135 -475q-8 -26 -21.5 -75.5t-21.5 -76t-21.5 -66.5t-25 -63.5t-27.5 -49.5t-34.5 -41.5t-39.5 -23.5q100 12 158.5 75t100.5 204z" />
    <glyph glyph-name="periodcentered" unicode="&#xb7;" horiz-adv-x="161" 
d="M29 162q2 15 14 25.5t27 10.5q14 0 22.5 -10.5t6.5 -25.5q-2 -14 -13.5 -24.5t-26.5 -10.5t-23.5 10.5t-6.5 24.5z" />
    <glyph glyph-name="cedilla" unicode="&#xb8;" horiz-adv-x="137" 
d="M5 -145q6 -25 40 -25q27 0 43.5 22t16.5 47q0 39 -31 39q-11 0 -19 -4l-7 8l49 55h5l-48 -55l2 -2q17 5 26 5q23 0 39.5 -13.5t16.5 -33.5q0 -29 -24 -50.5t-69 -21.5q-16 0 -28.5 8.5t-14.5 18.5z" />
    <glyph glyph-name="onesuperior" unicode="&#xb9;" horiz-adv-x="393" 
d="M76 0l1 4h76l163 505q0 1 -1 1l-1 2q-38 -64 -94 -108t-118 -44q-54 0 -81.5 27t-21.5 62q5 37 37 52.5t51 6.5q-28 -19 -37.5 -54t5 -62.5t47.5 -27.5q77 0 145.5 69t90.5 146h111l-2 -4h-51l-186 -571h69l-1 -4h-202z" />
    <glyph glyph-name="ordmasculine" unicode="&#xba;" 
d="M196 320q54 0 81 -30.5t27 -78.5q0 -76 -57 -145.5t-138 -69.5q-53 0 -79.5 30t-26.5 78q0 77 56 146.5t137 69.5zM196 316q-50 0 -93.5 -82.5t-43.5 -157.5q0 -76 51 -76q53 0 97 80t44 156q0 80 -55 80z" />
    <glyph glyph-name="guillemotright" unicode="&#xbb;" horiz-adv-x="521" 
d="M-1 4l294 176v1l-196 164l4 4l198 -167v-3l-297 -179zM158 4l294 176v1l-196 164l4 4l198 -167v-3l-297 -179z" />
    <glyph glyph-name="onequarter" unicode="&#xbc;" horiz-adv-x="1112" 
d="M76 0l1 4h76l163 505q0 1 -1 1l-1 2q-38 -64 -94 -108t-118 -44q-54 0 -81.5 27t-21.5 62q5 37 37 52.5t51 6.5q-28 -19 -37.5 -54t5 -62.5t47.5 -27.5q77 0 145.5 69t90.5 146h111l-2 -4h-51l-186 -571h69l-1 -4h-202zM631 621h5l-205 -662h-5zM957 689q28 11 58.5 -10
t25.5 -73q-13 -110 -298 -312q23 -3 78.5 -30t73.5 -34l48 146q29 16 51 38t28 38h3l-77 -235h5q36 -2 59.5 11t30.5 39h3q-15 -54 -100 -56l-68 -207h69l-1 -4h-202l1 4h76l69 209q-24 3 -59.5 8.5t-59.5 9t-48.5 5t-39 -2.5t-19.5 -15h-5q26 75 78 76q287 204 300 312
q4 37 -15.5 51t-44 5t-36.5 -30q-14 0 -15 17q-1 25 31 40z" />
    <glyph glyph-name="onehalf" unicode="&#xbd;" horiz-adv-x="1210" 
d="M76 0l1 4h76l163 505q0 1 -1 1l-1 2q-38 -64 -94 -108t-118 -44q-54 0 -81.5 27t-21.5 62q5 37 37 52.5t51 6.5q-28 -19 -37.5 -54t5 -62.5t47.5 -27.5q77 0 145.5 69t90.5 146h111l-2 -4h-51l-186 -571h69l-1 -4h-202zM631 621h5l-205 -662h-5zM900 324
q-45 6 -68.5 36.5t-21.5 71.5q4 63 62.5 113.5t152.5 50.5q58 0 100 -26t39 -87q-7 -80 -135 -168l7 -4q57 -2 83 -36.5t23 -88.5q-4 -76 -65.5 -134.5t-152.5 -58.5q-45 0 -127.5 26t-120.5 26q-26 0 -48.5 -14.5t-30.5 -37.5q-3 -9 -3 -19q0 -18 13.5 -31t39.5 -13
q63 0 86 54q16 -12 17 -34t-18.5 -40.5t-55.5 -18.5q-40 0 -65.5 22.5t-23.5 60.5v2q10 111 96 129q35 25 98.5 63t112.5 69.5t99 71t80 86t33 97.5q3 39 -14.5 69.5t-66.5 30.5q-65 0 -113.5 -59t-52.5 -123q-5 -69 45 -82zM1014 304q-47 -32 -161 -98t-161 -100q3 1 15 1
q32 0 62.5 -17t50.5 -38t48 -38t56 -17q70 0 115 55t49 129q2 54 -15.5 88.5t-55.5 34.5h-3z" />
    <glyph glyph-name="threequarters" unicode="&#xbe;" horiz-adv-x="1188" 
d="M226 390q12 0 17 -1l134 129h-199l-16 -50h-4l16 50l19 61h247l44 42h4l-240 -232q85 -6 130 -50.5t43 -106.5q-2 -91 -81 -165t-199 -74q-77 0 -118.5 34t-41.5 86q0 28 19 51.5t51 27.5l4 -2q-28 -34 -28 -84q0 -45 25.5 -76t79.5 -33q101 0 164.5 73.5t65.5 169.5
q2 64 -33 106t-104 42zM705 621h5l-205 -662h-5zM1019 689q28 11 58.5 -10t25.5 -73q-13 -110 -298 -312q23 -3 78.5 -30t73.5 -34l48 146q29 16 51 38t28 38h3l-77 -235h5q36 -2 59.5 11t30.5 39h3q-15 -54 -100 -56l-68 -207h69l-1 -4h-202l1 4h76l69 209q-24 3 -59.5 8.5
t-59.5 9t-48.5 5t-39 -2.5t-19.5 -15h-5q26 75 78 76q287 204 300 312q4 37 -15.5 51t-44 5t-36.5 -30q-14 0 -15 17q-1 25 31 40z" />
    <glyph glyph-name="questiondown" unicode="&#xbf;" horiz-adv-x="267" 
d="M94 -201q5 2 17 2q20 0 34 -20.5t14 -42.5q2 -51 -49 -92.5t-124 -41.5q-56 0 -89 33t-35 83q-2 53 23 97.5t64 72.5t85 54.5t85 46t65 44t25 50.5q-1 25 -15 39.5t-37 14.5q-31 0 -50 -21.5t-19 -49.5q0 -33 22 -45q0 -9 -9 -16.5t-19 -7.5q-14 0 -24.5 12t-10.5 29
q-2 37 31.5 70t78.5 33q25 0 40 -16t16 -42q2 -39 -22.5 -75t-63 -62t-83 -55.5t-83 -55t-64 -61t-24.5 -73.5q2 -42 31.5 -68.5t81.5 -26.5q61 0 91.5 41t27.5 91q0 30 -15 52zM231 240q-2 -15 -14 -25.5t-27 -10.5q-13 0 -21 8.5t-8 21.5q0 17 11.5 29t28.5 12
q30 0 30 -31v-4z" />
    <glyph glyph-name="Agrave" unicode="&#xc0;" horiz-adv-x="750" 
d="M694 597l-81 -593h63l-1 -4h-192l2 4h68l23 176h-146q-79 -93 -162 -151t-147 -54q-48 2 -68.5 28t-10.5 57t40 49q-46 24 -67.5 70.5t-18.5 103.5q4 98 86.5 173.5t185.5 75.5q27 0 192 -17q-2 12 -1 18q2 44 47 78.5t98 34.5q39 0 55.5 -16.5t14.5 -42.5q-2 -17 -9 -30
q23 22 27 40h2zM169 87q-7 3 -16 3q-32 0 -60 -37q-28 -39 -7 -61q11 -12 36 -13q63 -4 143 52t160 149h-26l2 4h27q74 86 128 181t64 156q-44 -19 -125.5 -25.5t-144 -4t-112.5 -2.5q-103 -9 -167 -72t-70 -143q-4 -47 18 -93t67 -69q21 12 50 12q30 0 36 -30
q91 0 138.5 58t20.5 124q1 5 7.5 10.5t16.5 5.5q15 0 23 -21q12 -37 -14 -79.5t-79 -72t-113 -29.5v-1zM629 531q5 3 13 9q25 16 28 47q2 23 -14 39t-52 16q-50 0 -94.5 -33t-46.5 -76q-2 -11 1 -18q37 -4 75 -4q54 0 90 20zM615 482q-21 -63 -70 -144.5t-112 -153.5h143z
M713 652q-54 9 -81 41.5t-24 62.5q2 21 18 28t33 -4q-10 -20 -10 -46.5t17.5 -50.5t47.5 -28z" />
    <glyph glyph-name="Aacute" unicode="&#xc1;" horiz-adv-x="750" 
d="M694 597l-81 -593h63l-1 -4h-192l2 4h68l23 176h-146q-79 -93 -162 -151t-147 -54q-48 2 -68.5 28t-10.5 57t40 49q-46 24 -67.5 70.5t-18.5 103.5q4 98 86.5 173.5t185.5 75.5q27 0 192 -17q-2 12 -1 18q2 44 47 78.5t98 34.5q39 0 55.5 -16.5t14.5 -42.5q-2 -17 -9 -30
q23 22 27 40h2zM169 87q-7 3 -16 3q-32 0 -60 -37q-28 -39 -7 -61q11 -12 36 -13q63 -4 143 52t160 149h-26l2 4h27q74 86 128 181t64 156q-44 -19 -125.5 -25.5t-144 -4t-112.5 -2.5q-103 -9 -167 -72t-70 -143q-4 -47 18 -93t67 -69q21 12 50 12q30 0 36 -30
q91 0 138.5 58t20.5 124q1 5 7.5 10.5t16.5 5.5q15 0 23 -21q12 -37 -14 -79.5t-79 -72t-113 -29.5v-1zM629 531q5 3 13 9q25 16 28 47q2 23 -14 39t-52 16q-50 0 -94.5 -33t-46.5 -76q-2 -11 1 -18q37 -4 75 -4q54 0 90 20zM615 482q-21 -63 -70 -144.5t-112 -153.5h143z
M657 655q45 6 69 51t6 74q17 11 33 4t18 -28q3 -27 -33 -61t-92 -43z" />
    <glyph glyph-name="Acircumflex" unicode="&#xc2;" horiz-adv-x="750" 
d="M694 597l-81 -593h63l-1 -4h-192l2 4h68l23 176h-146q-79 -93 -162 -151t-147 -54q-48 2 -68.5 28t-10.5 57t40 49q-46 24 -67.5 70.5t-18.5 103.5q4 98 86.5 173.5t185.5 75.5q27 0 192 -17q-2 12 -1 18q2 44 47 78.5t98 34.5q39 0 55.5 -16.5t14.5 -42.5q-2 -17 -9 -30
q23 22 27 40h2zM169 87q-7 3 -16 3q-32 0 -60 -37q-28 -39 -7 -61q11 -12 36 -13q63 -4 143 52t160 149h-26l2 4h27q74 86 128 181t64 156q-44 -19 -125.5 -25.5t-144 -4t-112.5 -2.5q-103 -9 -167 -72t-70 -143q-4 -47 18 -93t67 -69q21 12 50 12q30 0 36 -30
q91 0 138.5 58t20.5 124q1 5 7.5 10.5t16.5 5.5q15 0 23 -21q12 -37 -14 -79.5t-79 -72t-113 -29.5v-1zM629 531q5 3 13 9q25 16 28 47q2 23 -14 39t-52 16q-50 0 -94.5 -33t-46.5 -76q-2 -11 1 -18q37 -4 75 -4q54 0 90 20zM615 482q-21 -63 -70 -144.5t-112 -153.5h143z
M683 795h28l65 -132h-4l-78 90h-9l-123 -90h-4z" />
    <glyph glyph-name="Atilde" unicode="&#xc3;" horiz-adv-x="750" 
d="M694 597l-81 -593h63l-1 -4h-192l2 4h68l23 176h-146q-79 -93 -162 -151t-147 -54q-48 2 -68.5 28t-10.5 57t40 49q-46 24 -67.5 70.5t-18.5 103.5q4 98 86.5 173.5t185.5 75.5q27 0 192 -17q-2 12 -1 18q2 44 47 78.5t98 34.5q39 0 55.5 -16.5t14.5 -42.5q-2 -17 -9 -30
q23 22 27 40h2zM169 87q-7 3 -16 3q-32 0 -60 -37q-28 -39 -7 -61q11 -12 36 -13q63 -4 143 52t160 149h-26l2 4h27q74 86 128 181t64 156q-44 -19 -125.5 -25.5t-144 -4t-112.5 -2.5q-103 -9 -167 -72t-70 -143q-4 -47 18 -93t67 -69q21 12 50 12q30 0 36 -30
q91 0 138.5 58t20.5 124q1 5 7.5 10.5t16.5 5.5q15 0 23 -21q12 -37 -14 -79.5t-79 -72t-113 -29.5v-1zM629 531q5 3 13 9q25 16 28 47q2 23 -14 39t-52 16q-50 0 -94.5 -33t-46.5 -76q-2 -11 1 -18q37 -4 75 -4q54 0 90 20zM615 482q-21 -63 -70 -144.5t-112 -153.5h143z
M541 701q8 35 33 60t53 25q19 0 55 -20t57 -20q22 0 36.5 15t19.5 33h4q-4 -15 -12 -32.5t-28 -36.5t-44 -19q-22 0 -55.5 19.5t-53.5 19.5q-48 0 -61 -44h-4z" />
    <glyph glyph-name="Adieresis" unicode="&#xc4;" horiz-adv-x="750" 
d="M694 597l-81 -593h63l-1 -4h-192l2 4h68l23 176h-146q-79 -93 -162 -151t-147 -54q-48 2 -68.5 28t-10.5 57t40 49q-46 24 -67.5 70.5t-18.5 103.5q4 98 86.5 173.5t185.5 75.5q27 0 192 -17q-2 12 -1 18q2 44 47 78.5t98 34.5q39 0 55.5 -16.5t14.5 -42.5q-2 -17 -9 -30
q23 22 27 40h2zM169 87q-7 3 -16 3q-32 0 -60 -37q-28 -39 -7 -61q11 -12 36 -13q63 -4 143 52t160 149h-26l2 4h27q74 86 128 181t64 156q-44 -19 -125.5 -25.5t-144 -4t-112.5 -2.5q-103 -9 -167 -72t-70 -143q-4 -47 18 -93t67 -69q21 12 50 12q30 0 36 -30
q91 0 138.5 58t20.5 124q1 5 7.5 10.5t16.5 5.5q15 0 23 -21q12 -37 -14 -79.5t-79 -72t-113 -29.5v-1zM629 531q5 3 13 9q25 16 28 47q2 23 -14 39t-52 16q-50 0 -94.5 -33t-46.5 -76q-2 -11 1 -18q37 -4 75 -4q54 0 90 20zM615 482q-21 -63 -70 -144.5t-112 -153.5h143z
M587 763q7 32 36 32q14 0 22 -9t5 -23q-5 -31 -37 -31q-31 0 -26 31zM723 763q7 32 36 32q14 0 22 -9t5 -23q-5 -31 -37 -31q-31 0 -26 31z" />
    <glyph glyph-name="Aring" unicode="&#xc5;" horiz-adv-x="750" 
d="M694 597l-81 -593h63l-1 -4h-192l2 4h68l23 176h-146q-79 -93 -162 -151t-147 -54q-48 2 -68.5 28t-10.5 57t40 49q-46 24 -67.5 70.5t-18.5 103.5q4 98 86.5 173.5t185.5 75.5q27 0 192 -17q-2 12 -1 18q2 44 47 78.5t98 34.5q39 0 55.5 -16.5t14.5 -42.5q-2 -17 -9 -30
q23 22 27 40h2zM169 87q-7 3 -16 3q-32 0 -60 -37q-28 -39 -7 -61q11 -12 36 -13q63 -4 143 52t160 149h-26l2 4h27q74 86 128 181t64 156q-44 -19 -125.5 -25.5t-144 -4t-112.5 -2.5q-103 -9 -167 -72t-70 -143q-4 -47 18 -93t67 -69q21 12 50 12q30 0 36 -30
q91 0 138.5 58t20.5 124q1 5 7.5 10.5t16.5 5.5q15 0 23 -21q12 -37 -14 -79.5t-79 -72t-113 -29.5v-1zM629 531q5 3 13 9q25 16 28 47q2 23 -14 39t-52 16q-50 0 -94.5 -33t-46.5 -76q-2 -11 1 -18q37 -4 75 -4q54 0 90 20zM615 482q-21 -63 -70 -144.5t-112 -153.5h143z
M621 714q0 31 27.5 56t60.5 25q25 0 41 -15.5t16 -38.5q0 -33 -26.5 -58t-60.5 -25q-26 0 -42 16t-16 40zM709 791q-28 0 -44.5 -29t-16.5 -60q0 -40 32 -40q28 0 44 29t16 62q0 38 -31 38z" />
    <glyph glyph-name="AE" unicode="&#xc6;" horiz-adv-x="477" 
d="M250 172q4 -7 4 -16q0 -13 -12 -22.5t-32 -9.5q-1 0 -22 3q-8 -6 -18 -6q-11 0 -18 4q0 -31 -15.5 -56t-38.5 -25q-28 0 -28 21q0 13 9.5 23.5t23.5 10.5q7 0 15 -5l-1 -1q-2 1 -8 1q-14 0 -14 -10q0 -11 15 -11q13 0 25 18.5t12 35.5q-16 8 -25 8q-25 0 -25 -19
q0 -7 1 -8l1 -1q1 -1 1 -2l-2 -3q-28 0 -28 28q0 16 9.5 27.5t27.5 11.5q17 0 34.5 -19t28.5 -19q4 0 5 1q-12 6 -20.5 16.5t-16.5 24t-12 18.5q-14 -14 -25 -14q-12 0 -12 12q0 18 25 18h11q18 31 18 63q0 15 -7 15q-9 0 -15 -11t-6 -25q0 -20 13 -24v-3q-2 0 -3 1h-1
q-7 0 -31.5 -10t-36.5 -10q-15 0 -25 9.5t-10 23.5q0 9 6 15.5t14 6.5q4 0 11 -3l1 -4q-7 -1 -7 -10t7.5 -15.5t19.5 -6.5q8 0 23 4t22 4q-6 8 -6 23q0 21 10 38.5t29 17.5q23 0 23 -26q0 -35 -37 -78q7 -5 20.5 -19.5t26.5 -23t28 -8.5q30 0 35 21h3zM254 39q17 0 17 -19
q0 -12 -10.5 -21t-22.5 -9q-9 0 -18 4.5t-24 15t-16 11.5q-10 -15 -22 -15q-15 0 -15 11t9.5 16t19.5 3q9 27 9 32q-6 -23 -20 -23q-9 0 -9 12q0 9 5.5 24t5.5 25q0 3 -2 9q0 2 7 2q11 0 11 -12v-3q0 -1 -1 -8t-3 -12q0 -2 -1.5 -8t-2.5 -9v-2q0 -2 2 -2q3 0 8 17t5 27v4
q4 3 7 3q11 0 11 -12q0 -7 -8 -41q-4 -17 -10 -28q3 -2 17.5 -11.5t23.5 -9.5q24 0 24 19q0 2 -5 7l3 3h5zM331 165q6 -7 6 -16q0 -11 -8 -19.5t-24 -8.5q-17 0 -28.5 11.5t-11.5 27.5q0 11 4 23q-1 -1 -6 -1q-9 0 -9 11q0 5 4.5 21t4.5 22q0 5 -2 5l1 6q1 0 4 0.5t5 0.5
q10 0 10 -13q1 1 2.5 3.5t3 4.5t4 3.5t5.5 1.5q13 0 13 -18q0 -9 -9.5 -30t-9.5 -30q0 -22 19 -22q15 0 21 16zM413 124q7 0 11.5 -7t4.5 -15q0 -14 -9.5 -23t-22.5 -9t-37 9t-30 9q0 -5 1.5 -21t1.5 -26q0 -47 -31 -47q-20 0 -21 15l2 2l9 -3q18 0 18 37v32q0 15 6.5 25
t16.5 10t10 -10q0 -4 -5 -9q7 0 20 -4t21 -4q12 0 20 6.5t8 15.5t-8 9l2 5q5 3 12 3zM214 95q0 4 -1 4.5t-3 -0.5v4q7 9 14 9q10 0 10 -9q0 -3 -1 -4h1q5 12 15 12q12 0 12 -18q0 -12 -8 -29.5t-19 -17.5q-10 0 -10 14q0 6 1 9h-1q0 -1 -2.5 -15.5t-2.5 -22.5q0 -7 1 -9
q-8 -2 -9 -2q-10 0 -10 11q0 9 6.5 34t6.5 30zM209 182q-13 0 -13 16q0 21 11 35t21 14t10 -11h1q2 4 1 11q2 1 8 1q8 0 8 -10q0 -6 -5 -23t-5 -22t1 -6l-1 -5h-4q-11 0 -11 11q0 7 3 11h-1q-10 -22 -24 -22zM305 74q-7 -28 -26 -28q-17 0 -17 22q0 15 9 29t20 14
q15 0 15 -16q0 -19 -23 -23q4 -4 7 -4q9 0 11 8zM174 238q4 10 15 10q9 0 9 -10q0 -8 -6 -24t-6 -23q0 -4 1 -4q0 -1 1 0l-2 -5h-5q-11 0 -11 12q0 6 4.5 18t4.5 20q0 4 -2 4q-1 0 -2 -1zM241 250q-9 2 -9 10q0 19 16 19q9 0 9 -9q0 -6 -5 -9q-2 2 -4 2q-7 0 -7 -7
q0 -1 2 -3zM289 229q0 4 -1.5 5.5t-3.5 0.5t-4.5 -5.5t-5 -16t-2.5 -25.5q17 36 17 41zM208 267q-5 -12 -17 -12h-3l-2 1q1 1 3.5 11.5t10.5 10.5t8 -9v-2zM240 100q-11 0 -11 -21q0 -7 4 -7t7.5 7.5t3.5 13.5q0 7 -4 7zM100 182q12 0 19 15q-2 1 -8 1q-18 0 -18 -11
q0 -5 7 -5zM234 236q-4 0 -7 -8t-3 -15v-3q0 -2 2 -2q3 0 6.5 7.5t4 13.5t-2.5 7zM291 105q-10 0 -10 -26q13 7 13 22q0 4 -3 4zM155 12q7 0 14 16q-19 0 -19 -11q0 -5 5 -5zM332 93q7 0 7 9q0 6 -5 4q-4 -1 -4 -13h2z" />
    <glyph glyph-name="Ccedilla" unicode="&#xc7;" horiz-adv-x="468" 
d="M420 217q0 -86 -65.5 -160t-159.5 -74q-121 0 -161 107q-37 100 10 237q49 140 156 220q87 64 189 64q87 0 107.5 -64.5t-19 -129.5t-98.5 -65q-25 0 -35.5 11.5t-5.5 29.5q61 8 102 70q38 58 21 103q-15 41 -72 41q-89 0 -181 -124q-88 -117 -119 -259q-34 -151 27 -209
q30 -28 79 -28q92 0 156.5 73t64.5 157h4zM98 -156q6 -25 40 -25q27 0 43.5 22t16.5 47q0 39 -31 39q-11 0 -19 -4l-7 8l49 55h5l-48 -55l2 -2q17 5 26 5q23 0 39.5 -13.5t16.5 -33.5q0 -29 -24 -50.5t-69 -21.5q-16 0 -28.5 8.5t-14.5 18.5z" />
    <glyph glyph-name="Egrave" unicode="&#xc8;" horiz-adv-x="427" 
d="M335 337h-100q-100 0 -152 -90q-43 -75 -28 -157q15 -78 77 -98q16 -5 34 -5q92 0 156.5 72.5t64.5 157.5h4q0 -86 -65.5 -160t-159.5 -74q-118 0 -156 89q-30 72 7 157q35 81 105 108q49 20 104 3h20q-65 12 -82 73q-18 63 27 122q56 76 169 76q46 0 77 -21t37 -50.5
t-1.5 -59t-38 -50.5t-73.5 -21l-4 3q26 7 46 29.5t26.5 50t3.5 53.5t-22.5 44t-50.5 18q-75 0 -122 -76q-41 -65 -30 -128q14 -60 69 -62h58v-4zM443 652q-54 9 -81 41.5t-24 62.5q2 21 18 28t33 -4q-10 -20 -10 -46.5t17.5 -50.5t47.5 -28z" />
    <glyph glyph-name="Eacute" unicode="&#xc9;" horiz-adv-x="427" 
d="M335 337h-100q-100 0 -152 -90q-43 -75 -28 -157q15 -78 77 -98q16 -5 34 -5q92 0 156.5 72.5t64.5 157.5h4q0 -86 -65.5 -160t-159.5 -74q-118 0 -156 89q-30 72 7 157q35 81 105 108q49 20 104 3h20q-65 12 -82 73q-18 63 27 122q56 76 169 76q46 0 77 -21t37 -50.5
t-1.5 -59t-38 -50.5t-73.5 -21l-4 3q26 7 46 29.5t26.5 50t3.5 53.5t-22.5 44t-50.5 18q-75 0 -122 -76q-41 -65 -30 -128q14 -60 69 -62h58v-4zM339 655q45 6 69 51t6 74q17 11 33 4t18 -28q3 -27 -33 -61t-92 -43z" />
    <glyph glyph-name="Ecircumflex" unicode="&#xca;" horiz-adv-x="427" 
d="M335 337h-100q-100 0 -152 -90q-43 -75 -28 -157q15 -78 77 -98q16 -5 34 -5q92 0 156.5 72.5t64.5 157.5h4q0 -86 -65.5 -160t-159.5 -74q-118 0 -156 89q-30 72 7 157q35 81 105 108q49 20 104 3h20q-65 12 -82 73q-18 63 27 122q56 76 169 76q46 0 77 -21t37 -50.5
t-1.5 -59t-38 -50.5t-73.5 -21l-4 3q26 7 46 29.5t26.5 50t3.5 53.5t-22.5 44t-50.5 18q-75 0 -122 -76q-41 -65 -30 -128q14 -60 69 -62h58v-4zM407 795h28l65 -132h-4l-78 90h-9l-123 -90h-4z" />
    <glyph glyph-name="Edieresis" unicode="&#xcb;" horiz-adv-x="427" 
d="M335 337h-100q-100 0 -152 -90q-43 -75 -28 -157q15 -78 77 -98q16 -5 34 -5q92 0 156.5 72.5t64.5 157.5h4q0 -86 -65.5 -160t-159.5 -74q-118 0 -156 89q-30 72 7 157q35 81 105 108q49 20 104 3h20q-65 12 -82 73q-18 63 27 122q56 76 169 76q46 0 77 -21t37 -50.5
t-1.5 -59t-38 -50.5t-73.5 -21l-4 3q26 7 46 29.5t26.5 50t3.5 53.5t-22.5 44t-50.5 18q-75 0 -122 -76q-41 -65 -30 -128q14 -60 69 -62h58v-4zM307 762q7 32 36 32q14 0 22 -9t5 -23q-5 -31 -37 -31q-31 0 -26 31zM443 762q7 32 36 32q14 0 22 -9t5 -23q-5 -31 -37 -31
q-31 0 -26 31z" />
    <glyph glyph-name="Igrave" unicode="&#xcc;" horiz-adv-x="649" 
d="M677 562l-114 -395q-25 -90 -94 -149.5t-161 -59.5q-89 0 -125.5 57.5t-25.5 129.5q-26 0 -33 2q-89 11 -125 72t-23 140q18 97 108 161.5t192 52.5q42 -6 173 -39q-2 11 1 19q8 44 57 72.5t101 22.5q37 -5 51.5 -24t10.5 -43q-9 -42 -60 -61q47 6 66 42h1zM307 312
q10 16 26 13q15 -1 20 -24q10 -48 -39 -94.5t-122 -58.5q-18 -31 -18.5 -64.5t14.5 -60.5t47 -44t74 -17q132 0 192 206l101 345l-7 2q-24 -6 -57 -8t-61.5 -1t-68.5 5t-62.5 7t-59.5 9t-45 7q-100 13 -173.5 -45.5t-88.5 -138.5q-13 -67 23.5 -127.5t121.5 -71.5
q7 -2 33 -2q7 37 26 63t45 31q15 3 24 -4.5t9 -20.5q-46 -29 -66 -65q63 14 95.5 59.5t16.5 99.5zM454 553q-3 -8 -1 -20q39 -10 76 -15q48 -4 88.5 11t48.5 52q10 54 -58 63q-49 6 -97.5 -22t-56.5 -69zM695 652q-54 9 -81 41.5t-24 62.5q2 21 18 28t33 -4
q-10 -20 -10 -46.5t17.5 -50.5t47.5 -28z" />
    <glyph glyph-name="Iacute" unicode="&#xcd;" horiz-adv-x="649" 
d="M677 562l-114 -395q-25 -90 -94 -149.5t-161 -59.5q-89 0 -125.5 57.5t-25.5 129.5q-26 0 -33 2q-89 11 -125 72t-23 140q18 97 108 161.5t192 52.5q42 -6 173 -39q-2 11 1 19q8 44 57 72.5t101 22.5q37 -5 51.5 -24t10.5 -43q-9 -42 -60 -61q47 6 66 42h1zM307 312
q10 16 26 13q15 -1 20 -24q10 -48 -39 -94.5t-122 -58.5q-18 -31 -18.5 -64.5t14.5 -60.5t47 -44t74 -17q132 0 192 206l101 345l-7 2q-24 -6 -57 -8t-61.5 -1t-68.5 5t-62.5 7t-59.5 9t-45 7q-100 13 -173.5 -45.5t-88.5 -138.5q-13 -67 23.5 -127.5t121.5 -71.5
q7 -2 33 -2q7 37 26 63t45 31q15 3 24 -4.5t9 -20.5q-46 -29 -66 -65q63 14 95.5 59.5t16.5 99.5zM454 553q-3 -8 -1 -20q39 -10 76 -15q48 -4 88.5 11t48.5 52q10 54 -58 63q-49 6 -97.5 -22t-56.5 -69zM613 655q45 6 69 51t6 74q17 11 33 4t18 -28q3 -27 -33 -61t-92 -43z
" />
    <glyph glyph-name="Icircumflex" unicode="&#xce;" horiz-adv-x="649" 
d="M677 562l-114 -395q-25 -90 -94 -149.5t-161 -59.5q-89 0 -125.5 57.5t-25.5 129.5q-26 0 -33 2q-89 11 -125 72t-23 140q18 97 108 161.5t192 52.5q42 -6 173 -39q-2 11 1 19q8 44 57 72.5t101 22.5q37 -5 51.5 -24t10.5 -43q-9 -42 -60 -61q47 6 66 42h1zM307 312
q10 16 26 13q15 -1 20 -24q10 -48 -39 -94.5t-122 -58.5q-18 -31 -18.5 -64.5t14.5 -60.5t47 -44t74 -17q132 0 192 206l101 345l-7 2q-24 -6 -57 -8t-61.5 -1t-68.5 5t-62.5 7t-59.5 9t-45 7q-100 13 -173.5 -45.5t-88.5 -138.5q-13 -67 23.5 -127.5t121.5 -71.5
q7 -2 33 -2q7 37 26 63t45 31q15 3 24 -4.5t9 -20.5q-46 -29 -66 -65q63 14 95.5 59.5t16.5 99.5zM454 553q-3 -8 -1 -20q39 -10 76 -15q48 -4 88.5 11t48.5 52q10 54 -58 63q-49 6 -97.5 -22t-56.5 -69zM661 795h28l65 -132h-4l-78 90h-9l-123 -90h-4z" />
    <glyph glyph-name="Idieresis" unicode="&#xcf;" horiz-adv-x="649" 
d="M677 562l-114 -395q-25 -90 -94 -149.5t-161 -59.5q-89 0 -125.5 57.5t-25.5 129.5q-26 0 -33 2q-89 11 -125 72t-23 140q18 97 108 161.5t192 52.5q42 -6 173 -39q-2 11 1 19q8 44 57 72.5t101 22.5q37 -5 51.5 -24t10.5 -43q-9 -42 -60 -61q47 6 66 42h1zM307 312
q10 16 26 13q15 -1 20 -24q10 -48 -39 -94.5t-122 -58.5q-18 -31 -18.5 -64.5t14.5 -60.5t47 -44t74 -17q132 0 192 206l101 345l-7 2q-24 -6 -57 -8t-61.5 -1t-68.5 5t-62.5 7t-59.5 9t-45 7q-100 13 -173.5 -45.5t-88.5 -138.5q-13 -67 23.5 -127.5t121.5 -71.5
q7 -2 33 -2q7 37 26 63t45 31q15 3 24 -4.5t9 -20.5q-46 -29 -66 -65q63 14 95.5 59.5t16.5 99.5zM454 553q-3 -8 -1 -20q39 -10 76 -15q48 -4 88.5 11t48.5 52q10 54 -58 63q-49 6 -97.5 -22t-56.5 -69zM580 762q7 32 36 32q14 0 22 -9t5 -23q-5 -31 -37 -31q-31 0 -26 31z
M716 762q7 32 36 32q14 0 22 -9t5 -23q-5 -31 -37 -31q-31 0 -26 31z" />
    <glyph glyph-name="Eth" unicode="&#xd0;" horiz-adv-x="851" 
d="M248 -8l3 4h71q5 21 73 233q-27 18 -91 82l-2 -2q26 -53 -10 -119t-106 -66q-63 0 -100.5 36.5t-46.5 89.5q-15 80 37.5 157.5t152.5 96.5q35 7 114.5 10.5t114.5 9.5q110 24 110 87q0 18 -9.5 31.5t-31.5 13.5q-20 0 -37.5 -16.5t-21.5 -44.5q-12 4 -15 23.5t11.5 38
t45.5 18.5q26 0 43.5 -20t17.5 -45q0 -10 -3 -17l1 1l-6 -20q49 36 98 36q120 0 163 -102q41 -95 -3 -224q-47 -138 -162 -220q-103 -72 -231 -72h-180zM661 606q-51 0 -101 -40l-99 -313q56 -43 92 -43q47 0 83.5 38t36.5 80q0 51 -44 84q15 24 37 24q20 0 31.5 -17.5
t11.5 -40.5q0 -61 -55 -121.5t-150 -60.5q-32 0 -59 9l-66 -209h49q150 0 253 141q82 112 97 253q13 129 -43 186q-29 30 -74 30zM218 355q21 4 42 4q72 0 154 -67q18 53 43 133t30 95q-52 -23 -176 -47q-23 -5 -65 -13q-98 -19 -148 -86t-43 -138q4 -45 39 -76.5t92 -31.5
q40 0 70 24.5t42.5 58t7 69t-30.5 55.5q-23 17 -47 17h-9z" />
    <glyph glyph-name="Ntilde" unicode="&#xd1;" horiz-adv-x="818" 
d="M1052 -117q65 0 86 -61q22 -62 -17 -131q-46 -84 -146 -99l-38 -3q-75 0 -130.5 50t-86 127.5t-57.5 182t-45.5 203.5t-49 203t-68.5 169l-155 -521h103l-1 -4h-217l2 4h109l155 527q-79 133 -211 133q-109 0 -198.5 -77t-89.5 -182q0 -79 51 -132t136 -53q76 0 123.5 39
t47.5 95q0 28 -9 47q3 15 24 15q11 0 18.5 -11.5t7.5 -30.5q0 -57 -64.5 -107.5t-147.5 -50.5q-87 0 -139 54t-52 135q0 108 89.5 185.5t202.5 77.5q61 0 113 -18.5t89.5 -46.5t70 -76t53 -92t40.5 -110.5t31.5 -115.5t25.5 -122h3l137 465l2 1h-105l1 4h217l-2 -4h-109
l-141 -483q41 -223 61 -290q47 -158 131 -181q17 -4 34 -4q111 0 169 83q44 64 31 130q-12 60 -66 70q-9 2 -19 2q-42 0 -72 -34.5t-32 -74.5q-1 -14 6 -34q-16 -17 -37.5 -4.5t-15.5 41.5q8 45 51 77.5t100 32.5zM593 701q8 35 33 60t53 25q19 0 55 -20t57 -20
q22 0 36.5 15t19.5 33h4q-4 -15 -12 -32.5t-28 -36.5t-44 -19q-22 0 -55.5 19.5t-53.5 19.5q-48 0 -61 -44h-4z" />
    <glyph glyph-name="Ograve" unicode="&#xd2;" horiz-adv-x="567" 
d="M305 369q-2 -42 -50 -42q-43 0 -58 54q-16 64 19 131q46 88 146 95h13q124 0 168 -108q41 -101 -2 -236q-45 -139 -148 -216q-81 -60 -177 -60v4q103 0 188 126q76 115 94 256q17 144 -45 202q-31 28 -78 28q-87 0 -114 -82q-21 -61 1 -116q16 -41 41 -31zM220 516
q-45 -32 -77 -97t-41.5 -137t-3 -138t37.5 -109.5t80 -43.5v-4q-53 0 -93.5 24t-60.5 64.5t-28 90t3 103t33 101.5t61.5 88t88.5 60v-2zM489 652q-54 9 -81 41.5t-24 62.5q2 21 18 28t33 -4q-10 -20 -10 -46.5t17.5 -50.5t47.5 -28z" />
    <glyph glyph-name="Oacute" unicode="&#xd3;" horiz-adv-x="567" 
d="M375 607q93 0 140 -60t47 -154q0 -68 -25 -139t-68.5 -131t-110 -98t-142.5 -38q-89 0 -136.5 62t-47.5 156q0 98 50 186.5t137 125.5q49 90 156 90zM305 369q-2 -42 -50 -42q-30 0 -46.5 26t-16.5 66q0 47 24 94q-56 -43 -88.5 -132t-32.5 -182q0 -91 30.5 -149.5
t90.5 -58.5q76 0 143.5 72t104.5 172.5t37 192.5q0 79 -31 127t-95 48q-63 0 -93 -41t-30 -97q0 -38 12.5 -65.5t30.5 -27.5l8 2zM399 655q45 6 69 51t6 74q17 11 33 4t18 -28q3 -27 -33 -61t-92 -43z" />
    <glyph glyph-name="Ocircumflex" unicode="&#xd4;" horiz-adv-x="567" 
d="M305 369q-2 -42 -50 -42q-43 0 -58 54q-16 64 19 131q46 88 146 95h13q124 0 168 -108q41 -101 -2 -236q-45 -139 -148 -216q-81 -60 -177 -60v4q103 0 188 126q76 115 94 256q17 144 -45 202q-31 28 -78 28q-87 0 -114 -82q-21 -61 1 -116q16 -41 41 -31zM220 516
q-45 -32 -77 -97t-41.5 -137t-3 -138t37.5 -109.5t80 -43.5v-4q-53 0 -93.5 24t-60.5 64.5t-28 90t3 103t33 101.5t61.5 88t88.5 60v-2zM436 794h28l65 -132h-4l-78 90h-9l-123 -90h-4z" />
    <glyph glyph-name="Otilde" unicode="&#xd5;" horiz-adv-x="567" 
d="M375 607q124 0 168 -108q41 -101 -2 -236q-45 -139 -148 -216q-81 -60 -177 -60q-53 0 -93 24t-60 64t-28 89t3 102.5t32.5 101.5t60.5 88t88 61q49 90 156 90zM305 369q-2 -42 -50 -42q-31 0 -48 29.5t-14.5 73t23.5 83.5q-44 -33 -74.5 -98t-40 -136t-3.5 -137
t37.5 -108.5t80.5 -42.5q103 0 188 126q76 115 94 256q17 144 -45 202q-31 28 -78 28q-87 0 -114 -82q-21 -61 1 -116q16 -41 41 -31zM279 652q8 35 33 60t53 25q19 0 55 -20t57 -20q22 0 36.5 15t19.5 33h4q-4 -15 -12 -32.5t-28 -36.5t-44 -19q-22 0 -55.5 19.5
t-53.5 19.5q-48 0 -61 -44h-4z" />
    <glyph glyph-name="Odieresis" unicode="&#xd6;" horiz-adv-x="567" 
d="M375 607q93 0 140 -60t47 -154q0 -68 -25 -139t-68.5 -131t-110 -98t-142.5 -38q-89 0 -136.5 62t-47.5 156q0 98 50 186.5t137 125.5q49 90 156 90zM305 369q-2 -42 -50 -42q-30 0 -46.5 26t-16.5 66q0 47 24 94q-56 -43 -88.5 -132t-32.5 -182q0 -91 30.5 -149.5
t90.5 -58.5q76 0 143.5 72t104.5 172.5t37 192.5q0 79 -31 127t-95 48q-63 0 -93 -41t-30 -97q0 -38 12.5 -65.5t30.5 -27.5l8 2zM346 763q7 32 36 32q14 0 22 -9t5 -23q-5 -31 -37 -31q-31 0 -26 31zM482 763q7 32 36 32q14 0 22 -9t5 -23q-5 -31 -37 -31q-31 0 -26 31z
" />
    <glyph glyph-name="multiply" unicode="&#xd7;" horiz-adv-x="477" 
d="M250 172q4 -7 4 -16q0 -13 -12 -22.5t-32 -9.5q-1 0 -22 3q-8 -6 -18 -6q-11 0 -18 4q0 -31 -15.5 -56t-38.5 -25q-28 0 -28 21q0 13 9.5 23.5t23.5 10.5q7 0 15 -5l-1 -1q-2 1 -8 1q-14 0 -14 -10q0 -11 15 -11q13 0 25 18.5t12 35.5q-16 8 -25 8q-25 0 -25 -19
q0 -7 1 -8l1 -1q1 -1 1 -2l-2 -3q-28 0 -28 28q0 16 9.5 27.5t27.5 11.5q17 0 34.5 -19t28.5 -19q4 0 5 1q-12 6 -20.5 16.5t-16.5 24t-12 18.5q-14 -14 -25 -14q-12 0 -12 12q0 18 25 18h11q18 31 18 63q0 15 -7 15q-9 0 -15 -11t-6 -25q0 -20 13 -24v-3q-2 0 -3 1h-1
q-7 0 -31.5 -10t-36.5 -10q-15 0 -25 9.5t-10 23.5q0 9 6 15.5t14 6.5q4 0 11 -3l1 -4q-7 -1 -7 -10t7.5 -15.5t19.5 -6.5q8 0 23 4t22 4q-6 8 -6 23q0 21 10 38.5t29 17.5q23 0 23 -26q0 -35 -37 -78q7 -5 20.5 -19.5t26.5 -23t28 -8.5q30 0 35 21h3zM254 39q17 0 17 -19
q0 -12 -10.5 -21t-22.5 -9q-9 0 -18 4.5t-24 15t-16 11.5q-10 -15 -22 -15q-15 0 -15 11t9.5 16t19.5 3q9 27 9 32q-6 -23 -20 -23q-9 0 -9 12q0 9 5.5 24t5.5 25q0 3 -2 9q0 2 7 2q11 0 11 -12v-3q0 -1 -1 -8t-3 -12q0 -2 -1.5 -8t-2.5 -9v-2q0 -2 2 -2q3 0 8 17t5 27v4
q4 3 7 3q11 0 11 -12q0 -7 -8 -41q-4 -17 -10 -28q3 -2 17.5 -11.5t23.5 -9.5q24 0 24 19q0 2 -5 7l3 3h5zM331 165q6 -7 6 -16q0 -11 -8 -19.5t-24 -8.5q-17 0 -28.5 11.5t-11.5 27.5q0 11 4 23q-1 -1 -6 -1q-9 0 -9 11q0 5 4.5 21t4.5 22q0 5 -2 5l1 6q1 0 4 0.5t5 0.5
q10 0 10 -13q1 1 2.5 3.5t3 4.5t4 3.5t5.5 1.5q13 0 13 -18q0 -9 -9.5 -30t-9.5 -30q0 -22 19 -22q15 0 21 16zM413 124q7 0 11.5 -7t4.5 -15q0 -14 -9.5 -23t-22.5 -9t-37 9t-30 9q0 -5 1.5 -21t1.5 -26q0 -47 -31 -47q-20 0 -21 15l2 2l9 -3q18 0 18 37v32q0 15 6.5 25
t16.5 10t10 -10q0 -4 -5 -9q7 0 20 -4t21 -4q12 0 20 6.5t8 15.5t-8 9l2 5q5 3 12 3zM214 95q0 4 -1 4.5t-3 -0.5v4q7 9 14 9q10 0 10 -9q0 -3 -1 -4h1q5 12 15 12q12 0 12 -18q0 -12 -8 -29.5t-19 -17.5q-10 0 -10 14q0 6 1 9h-1q0 -1 -2.5 -15.5t-2.5 -22.5q0 -7 1 -9
q-8 -2 -9 -2q-10 0 -10 11q0 9 6.5 34t6.5 30zM209 182q-13 0 -13 16q0 21 11 35t21 14t10 -11h1q2 4 1 11q2 1 8 1q8 0 8 -10q0 -6 -5 -23t-5 -22t1 -6l-1 -5h-4q-11 0 -11 11q0 7 3 11h-1q-10 -22 -24 -22zM305 74q-7 -28 -26 -28q-17 0 -17 22q0 15 9 29t20 14
q15 0 15 -16q0 -19 -23 -23q4 -4 7 -4q9 0 11 8zM174 238q4 10 15 10q9 0 9 -10q0 -8 -6 -24t-6 -23q0 -4 1 -4q0 -1 1 0l-2 -5h-5q-11 0 -11 12q0 6 4.5 18t4.5 20q0 4 -2 4q-1 0 -2 -1zM241 250q-9 2 -9 10q0 19 16 19q9 0 9 -9q0 -6 -5 -9q-2 2 -4 2q-7 0 -7 -7
q0 -1 2 -3zM289 229q0 4 -1.5 5.5t-3.5 0.5t-4.5 -5.5t-5 -16t-2.5 -25.5q17 36 17 41zM208 267q-5 -12 -17 -12h-3l-2 1q1 1 3.5 11.5t10.5 10.5t8 -9v-2zM240 100q-11 0 -11 -21q0 -7 4 -7t7.5 7.5t3.5 13.5q0 7 -4 7zM100 182q12 0 19 15q-2 1 -8 1q-18 0 -18 -11
q0 -5 7 -5zM234 236q-4 0 -7 -8t-3 -15v-3q0 -2 2 -2q3 0 6.5 7.5t4 13.5t-2.5 7zM291 105q-10 0 -10 -26q13 7 13 22q0 4 -3 4zM155 12q7 0 14 16q-19 0 -19 -11q0 -5 5 -5zM332 93q7 0 7 9q0 6 -5 4q-4 -1 -4 -13h2z" />
    <glyph glyph-name="Oslash" unicode="&#xd8;" horiz-adv-x="567" 
d="M375 607q125 0 168 -109q41 -101 -3 -236q-45 -138 -147 -215q-85 -62 -185 -59l-8 -29h-5l9 29q-58 3 -98.5 36.5t-57.5 83.5t-15 111t22.5 117.5t61.5 105.5t96 73q9 38 50.5 65t111.5 27zM377 529l-167 -537q103 -5 190 121q78 112 97 253q20 145 -40 205
q-33 32 -82 32q-71 0 -98 -67q-20 -50 -2 -89q9 -21 27 -21q32 0 47 31l23 72h5zM283 418q-38 0 -57.5 27.5t-13.5 64.5q-42 -34 -71.5 -97t-39 -132t-4 -133t34 -107.5t73.5 -48.5l138 443h-4q-17 -17 -56 -17z" />
    <glyph glyph-name="Ugrave" unicode="&#xd9;" horiz-adv-x="774" 
d="M899 556l-2 -4h-109l-97 -360q-28 -103 -85 -150t-127 -47q-61 0 -108 37t-47 107q0 34 11 68l75 248q11 38 54 74v1q-25 -14 -66.5 -26.5t-71.5 -18.5t-79.5 -14.5t-59.5 -10.5q-93 -17 -147 -78t-54 -126q0 -51 33.5 -83.5t96.5 -32.5q71 0 114 36.5t43 84.5
q0 21 -7 29q7 4 17 4q28 0 28 -33q0 -45 -58.5 -85t-135.5 -40q-72 0 -109 40.5t-37 101.5q0 90 71.5 160.5t190.5 70.5q17 0 51 -1.5t50 -1.5q36 0 71.5 6.5t69 28.5t35.5 57q0 45 -39 45q-20 0 -38 -16.5t-23 -44.5q-15 5 -15 27q0 20 15 36.5t44 16.5q25 0 42 -19t17 -43
q0 -12 -5 -24l-107 -366q-15 -51 -15 -94q0 -55 24 -86t69 -31q69 0 124.5 46t83.5 147l97 360h-103l1 4h217zM688 652q-54 9 -81 41.5t-24 62.5q2 21 18 28t33 -4q-10 -20 -10 -46.5t17.5 -50.5t47.5 -28z" />
    <glyph glyph-name="Uacute" unicode="&#xda;" horiz-adv-x="774" 
d="M899 556l-2 -4h-109l-97 -360q-28 -103 -85 -150t-127 -47q-61 0 -108 37t-47 107q0 34 11 68l75 248q11 38 54 74v1q-25 -14 -66.5 -26.5t-71.5 -18.5t-79.5 -14.5t-59.5 -10.5q-93 -17 -147 -78t-54 -126q0 -51 33.5 -83.5t96.5 -32.5q71 0 114 36.5t43 84.5
q0 21 -7 29q7 4 17 4q28 0 28 -33q0 -45 -58.5 -85t-135.5 -40q-72 0 -109 40.5t-37 101.5q0 90 71.5 160.5t190.5 70.5q17 0 51 -1.5t50 -1.5q36 0 71.5 6.5t69 28.5t35.5 57q0 45 -39 45q-20 0 -38 -16.5t-23 -44.5q-15 5 -15 27q0 20 15 36.5t44 16.5q25 0 42 -19t17 -43
q0 -12 -5 -24l-107 -366q-15 -51 -15 -94q0 -55 24 -86t69 -31q69 0 124.5 46t83.5 147l97 360h-103l1 4h217zM585 655q45 6 69 51t6 74q17 11 33 4t18 -28q3 -27 -33 -61t-92 -43z" />
    <glyph glyph-name="Ucircumflex" unicode="&#xdb;" horiz-adv-x="774" 
d="M899 556l-2 -4h-109l-97 -360q-28 -103 -85 -150t-127 -47q-61 0 -108 37t-47 107q0 34 11 68l75 248q11 38 54 74v1q-25 -14 -66.5 -26.5t-71.5 -18.5t-79.5 -14.5t-59.5 -10.5q-93 -17 -147 -78t-54 -126q0 -51 33.5 -83.5t96.5 -32.5q71 0 114 36.5t43 84.5
q0 21 -7 29q7 4 17 4q28 0 28 -33q0 -45 -58.5 -85t-135.5 -40q-72 0 -109 40.5t-37 101.5q0 90 71.5 160.5t190.5 70.5q17 0 51 -1.5t50 -1.5q36 0 71.5 6.5t69 28.5t35.5 57q0 45 -39 45q-20 0 -38 -16.5t-23 -44.5q-15 5 -15 27q0 20 15 36.5t44 16.5q25 0 42 -19t17 -43
q0 -12 -5 -24l-107 -366q-15 -51 -15 -94q0 -55 24 -86t69 -31q69 0 124.5 46t83.5 147l97 360h-103l1 4h217zM676 795h28l65 -132h-4l-78 90h-9l-123 -90h-4z" />
    <glyph glyph-name="Udieresis" unicode="&#xdc;" horiz-adv-x="774" 
d="M899 556l-2 -4h-109l-97 -360q-28 -103 -85 -150t-127 -47q-61 0 -108 37t-47 107q0 34 11 68l75 248q11 38 54 74v1q-25 -14 -66.5 -26.5t-71.5 -18.5t-79.5 -14.5t-59.5 -10.5q-93 -17 -147 -78t-54 -126q0 -51 33.5 -83.5t96.5 -32.5q71 0 114 36.5t43 84.5
q0 21 -7 29q7 4 17 4q28 0 28 -33q0 -45 -58.5 -85t-135.5 -40q-72 0 -109 40.5t-37 101.5q0 90 71.5 160.5t190.5 70.5q17 0 51 -1.5t50 -1.5q36 0 71.5 6.5t69 28.5t35.5 57q0 45 -39 45q-20 0 -38 -16.5t-23 -44.5q-15 5 -15 27q0 20 15 36.5t44 16.5q25 0 42 -19t17 -43
q0 -12 -5 -24l-107 -366q-15 -51 -15 -94q0 -55 24 -86t69 -31q69 0 124.5 46t83.5 147l97 360h-103l1 4h217zM568 763q7 32 36 32q14 0 22 -9t5 -23q-5 -31 -37 -31q-31 0 -26 31zM704 763q7 32 36 32q14 0 22 -9t5 -23q-5 -31 -37 -31q-31 0 -26 31z" />
    <glyph glyph-name="Yacute" unicode="&#xdd;" horiz-adv-x="715" 
d="M207 219q76 0 123.5 39t47.5 95q0 28 -9 47q3 15 24 15q11 0 18.5 -11.5t7.5 -30.5q0 -57 -64.5 -107.5t-147.5 -50.5q-87 0 -139 54t-52 135q0 108 89.5 185.5t202.5 77.5q153 0 241 -102t76 -245h2l216 232h-104l1 4h217l-2 -4h-107l-223 -239q-5 -43 -17 -81l-72 -228
h69l-1 -4h-195l2 4h68l71 226q58 188 -8 310.5t-234 122.5q-110 0 -199 -77t-89 -182q0 -79 51 -132t136 -53zM647 655q45 6 69 51t6 74q17 11 33 4t18 -28q3 -27 -33 -61t-92 -43z" />
    <glyph glyph-name="Thorn" unicode="&#xde;" horiz-adv-x="477" 
d="M250 172q4 -7 4 -16q0 -13 -12 -22.5t-32 -9.5q-1 0 -22 3q-8 -6 -18 -6q-11 0 -18 4q0 -31 -15.5 -56t-38.5 -25q-28 0 -28 21q0 13 9.5 23.5t23.5 10.5q7 0 15 -5l-1 -1q-2 1 -8 1q-14 0 -14 -10q0 -11 15 -11q13 0 25 18.5t12 35.5q-16 8 -25 8q-25 0 -25 -19
q0 -7 1 -8l1 -1q1 -1 1 -2l-2 -3q-28 0 -28 28q0 16 9.5 27.5t27.5 11.5q17 0 34.5 -19t28.5 -19q4 0 5 1q-12 6 -20.5 16.5t-16.5 24t-12 18.5q-14 -14 -25 -14q-12 0 -12 12q0 18 25 18h11q18 31 18 63q0 15 -7 15q-9 0 -15 -11t-6 -25q0 -20 13 -24v-3q-2 0 -3 1h-1
q-7 0 -31.5 -10t-36.5 -10q-15 0 -25 9.5t-10 23.5q0 9 6 15.5t14 6.5q4 0 11 -3l1 -4q-7 -1 -7 -10t7.5 -15.5t19.5 -6.5q8 0 23 4t22 4q-6 8 -6 23q0 21 10 38.5t29 17.5q23 0 23 -26q0 -35 -37 -78q7 -5 20.5 -19.5t26.5 -23t28 -8.5q30 0 35 21h3zM254 39q17 0 17 -19
q0 -12 -10.5 -21t-22.5 -9q-9 0 -18 4.5t-24 15t-16 11.5q-10 -15 -22 -15q-15 0 -15 11t9.5 16t19.5 3q9 27 9 32q-6 -23 -20 -23q-9 0 -9 12q0 9 5.5 24t5.5 25q0 3 -2 9q0 2 7 2q11 0 11 -12v-3q0 -1 -1 -8t-3 -12q0 -2 -1.5 -8t-2.5 -9v-2q0 -2 2 -2q3 0 8 17t5 27v4
q4 3 7 3q11 0 11 -12q0 -7 -8 -41q-4 -17 -10 -28q3 -2 17.5 -11.5t23.5 -9.5q24 0 24 19q0 2 -5 7l3 3h5zM331 165q6 -7 6 -16q0 -11 -8 -19.5t-24 -8.5q-17 0 -28.5 11.5t-11.5 27.5q0 11 4 23q-1 -1 -6 -1q-9 0 -9 11q0 5 4.5 21t4.5 22q0 5 -2 5l1 6q1 0 4 0.5t5 0.5
q10 0 10 -13q1 1 2.5 3.5t3 4.5t4 3.5t5.5 1.5q13 0 13 -18q0 -9 -9.5 -30t-9.5 -30q0 -22 19 -22q15 0 21 16zM413 124q7 0 11.5 -7t4.5 -15q0 -14 -9.5 -23t-22.5 -9t-37 9t-30 9q0 -5 1.5 -21t1.5 -26q0 -47 -31 -47q-20 0 -21 15l2 2l9 -3q18 0 18 37v32q0 15 6.5 25
t16.5 10t10 -10q0 -4 -5 -9q7 0 20 -4t21 -4q12 0 20 6.5t8 15.5t-8 9l2 5q5 3 12 3zM214 95q0 4 -1 4.5t-3 -0.5v4q7 9 14 9q10 0 10 -9q0 -3 -1 -4h1q5 12 15 12q12 0 12 -18q0 -12 -8 -29.5t-19 -17.5q-10 0 -10 14q0 6 1 9h-1q0 -1 -2.5 -15.5t-2.5 -22.5q0 -7 1 -9
q-8 -2 -9 -2q-10 0 -10 11q0 9 6.5 34t6.5 30zM209 182q-13 0 -13 16q0 21 11 35t21 14t10 -11h1q2 4 1 11q2 1 8 1q8 0 8 -10q0 -6 -5 -23t-5 -22t1 -6l-1 -5h-4q-11 0 -11 11q0 7 3 11h-1q-10 -22 -24 -22zM305 74q-7 -28 -26 -28q-17 0 -17 22q0 15 9 29t20 14
q15 0 15 -16q0 -19 -23 -23q4 -4 7 -4q9 0 11 8zM174 238q4 10 15 10q9 0 9 -10q0 -8 -6 -24t-6 -23q0 -4 1 -4q0 -1 1 0l-2 -5h-5q-11 0 -11 12q0 6 4.5 18t4.5 20q0 4 -2 4q-1 0 -2 -1zM241 250q-9 2 -9 10q0 19 16 19q9 0 9 -9q0 -6 -5 -9q-2 2 -4 2q-7 0 -7 -7
q0 -1 2 -3zM289 229q0 4 -1.5 5.5t-3.5 0.5t-4.5 -5.5t-5 -16t-2.5 -25.5q17 36 17 41zM208 267q-5 -12 -17 -12h-3l-2 1q1 1 3.5 11.5t10.5 10.5t8 -9v-2zM240 100q-11 0 -11 -21q0 -7 4 -7t7.5 7.5t3.5 13.5q0 7 -4 7zM100 182q12 0 19 15q-2 1 -8 1q-18 0 -18 -11
q0 -5 7 -5zM234 236q-4 0 -7 -8t-3 -15v-3q0 -2 2 -2q3 0 6.5 7.5t4 13.5t-2.5 7zM291 105q-10 0 -10 -26q13 7 13 22q0 4 -3 4zM155 12q7 0 14 16q-19 0 -19 -11q0 -5 5 -5zM332 93q7 0 7 9q0 6 -5 4q-4 -1 -4 -13h2z" />
    <glyph glyph-name="germandbls" unicode="&#xdf;" horiz-adv-x="368" 
d="M-221 -107q-25 -22 -25 -54q0 -23 15 -39.5t41 -16.5q46 0 82 38.5t59 100.5t43 136.5t41.5 149t47.5 136.5t67.5 100.5t94.5 38.5q32 0 52 -17.5t20 -51.5q0 -27 -42 -76.5t-42 -77.5t41 -80.5t41 -80.5q0 -42 -37.5 -74t-97.5 -32q-36 0 -55 19.5t-19 47.5
q0 31 22.5 55.5t59.5 24.5q21 0 34 -9.5t13 -23.5t-14 -22q0 5 -1.5 12t-14.5 18.5t-35 11.5q-27 0 -43.5 -20.5t-16.5 -46.5t18 -44.5t52 -18.5q40 0 61.5 20.5t21.5 54.5q0 29 -41 79t-41 77q0 25 13.5 47t33 37.5t39 30.5t33 33t13.5 38q0 33 -19 49t-49 16
q-35 0 -63.5 -38.5t-48.5 -100t-39.5 -136t-44 -149.5t-54.5 -136.5t-77.5 -100t-107.5 -38.5q-47 0 -69 17.5t-22 44.5q0 25 13.5 39.5t31.5 14.5q9 0 15 -3z" />
    <glyph glyph-name="agrave" unicode="&#xe0;" horiz-adv-x="406" 
d="M333 314l-71 -251q-18 -64 21 -64q31 0 51.5 25t27.5 61h4q-7 -37 -28.5 -63.5t-54.5 -26.5q-43 0 -64 25.5t-10 66.5l-3 1q-23 -40 -53.5 -66.5t-58.5 -26.5q-49 0 -72 26t-22 70q2 77 61.5 152t134.5 75q61 0 55 -84q4 12 24 80h58zM94 -1q31 0 68 37t56 83
q3 10 12 40.5t14 48.5q3 22 3.5 45.5t-13 42t-38.5 18.5q-34 0 -68.5 -44t-55 -103t-20.5 -106q0 -62 42 -62zM273 401q-54 9 -81 41.5t-24 62.5q2 21 18 28t33 -4q-10 -20 -10 -46.5t17.5 -50.5t47.5 -28z" />
    <glyph glyph-name="aacute" unicode="&#xe1;" horiz-adv-x="406" 
d="M336 314l-71 -251q-18 -64 21 -64q31 0 51.5 25t27.5 61h4q-7 -37 -28.5 -63.5t-54.5 -26.5q-40 0 -63 22.5t-12 64.5q0 3 1 5l1 5q1 5 3 9q-21 -44 -55 -75t-64 -31q-80 0 -92 71q-12 68 38 148q52 84 126 101l30 3q61 0 55 -84q4 12 24 80h58zM97 -1q31 0 68 37t56 83
q3 10 12.5 42.5t14.5 50.5q8 39 -2.5 70.5t-46.5 31.5q-49 0 -96 -87q-48 -87 -48 -163q-1 -65 42 -65zM195 404q45 6 69 51t6 74q17 11 33 4t18 -28q3 -27 -33 -61t-92 -43z" />
    <glyph glyph-name="acircumflex" unicode="&#xe2;" horiz-adv-x="406" 
d="M333 314l-71 -251q-18 -64 21 -64q31 0 51.5 25t27.5 61h4q-7 -37 -28.5 -63.5t-54.5 -26.5q-43 0 -64 25.5t-10 66.5l-3 1q-23 -40 -53.5 -66.5t-58.5 -26.5q-49 0 -72 26t-22 70q2 77 61.5 152t134.5 75q61 0 55 -84q4 12 24 80h58zM94 -1q31 0 68 37t56 83
q3 10 12 40.5t14 48.5q3 22 3.5 45.5t-13 42t-38.5 18.5q-34 0 -68.5 -44t-55 -103t-20.5 -106q0 -62 42 -62zM232 500h28l65 -132h-4l-78 90h-9l-123 -90h-4z" />
    <glyph glyph-name="atilde" unicode="&#xe3;" horiz-adv-x="406" 
d="M333 314l-71 -251q-18 -64 21 -64q31 0 51.5 25t27.5 61h4q-7 -37 -28.5 -63.5t-54.5 -26.5q-43 0 -64 25.5t-10 66.5l-3 1q-23 -40 -53.5 -66.5t-58.5 -26.5q-49 0 -72 26t-22 70q2 77 61.5 152t134.5 75q61 0 55 -84q4 12 24 80h58zM94 -1q31 0 68 37t56 83
q3 10 12 40.5t14 48.5q3 22 3.5 45.5t-13 42t-38.5 18.5q-34 0 -68.5 -44t-55 -103t-20.5 -106q0 -62 42 -62zM83 365q8 35 33 60t53 25q19 0 55 -20t57 -20q22 0 36.5 15t19.5 33h4q0 -1 -2.5 -13t-4.5 -19t-7.5 -19t-11.5 -19t-16 -12.5t-23 -5.5q-22 0 -65.5 19.5
t-62.5 19.5q-48 0 -61 -44h-4z" />
    <glyph glyph-name="adieresis" unicode="&#xe4;" horiz-adv-x="406" 
d="M333 314l-71 -251q-18 -64 21 -64q31 0 51.5 25t27.5 61h4q-7 -37 -28.5 -63.5t-54.5 -26.5q-43 0 -64 25.5t-10 66.5l-3 1q-23 -40 -53.5 -66.5t-58.5 -26.5q-49 0 -72 26t-22 70q2 77 61.5 152t134.5 75q61 0 55 -84q4 12 24 80h58zM94 -1q31 0 68 37t56 83
q3 10 12 40.5t14 48.5q3 22 3.5 45.5t-13 42t-38.5 18.5q-34 0 -68.5 -44t-55 -103t-20.5 -106q0 -62 42 -62zM148 432q7 32 36 32q14 0 22 -9t5 -23q-5 -31 -37 -31q-31 0 -26 31zM284 432q7 32 36 32q14 0 22 -9t5 -23q-5 -31 -37 -31q-31 0 -26 31z" />
    <glyph glyph-name="aring" unicode="&#xe5;" horiz-adv-x="406" 
d="M333 314l-71 -251q-18 -64 21 -64q31 0 51.5 25t27.5 61h4q-7 -37 -28.5 -63.5t-54.5 -26.5q-43 0 -64 25.5t-10 66.5l-3 1q-23 -40 -53.5 -66.5t-58.5 -26.5q-49 0 -72 26t-22 70q2 77 61.5 152t134.5 75q61 0 55 -84q4 12 24 80h58zM94 -1q31 0 68 37t56 83
q3 10 12 40.5t14 48.5q3 22 3.5 45.5t-13 42t-38.5 18.5q-34 0 -68.5 -44t-55 -103t-20.5 -106q0 -62 42 -62zM180 441q0 31 27.5 56t60.5 25q25 0 41 -15.5t16 -38.5q0 -33 -26.5 -58t-60.5 -25q-26 0 -42 16t-16 40zM268 518q-28 0 -44.5 -29t-16.5 -60q0 -40 32 -40
q28 0 44 29t16 62q0 38 -31 38z" />
    <glyph glyph-name="ae" unicode="&#xe6;" horiz-adv-x="514" 
d="M283 158q-15 -42 -18.5 -77t9 -58.5t41.5 -23.5q42 0 79.5 28.5t50.5 64.5l4 -2q-13 -37 -51.5 -66t-82.5 -29q-55 0 -80.5 28t-23.5 74l-6 2q-52 -104 -122 -104q-66 0 -83 47q-16 45 22 87q44 50 127 50h83l18 54q27 84 -29 84q-46 0 -46 -41q0 -30 24 -38
q-8 -27 -38 -27q-14 0 -22.5 10.5t-8.5 26.5q0 25 26 48.5t69 23.5q29 0 52.5 -11.5t31.5 -32.5q50 42 111 42q74 0 76 -60q0 -49 -63 -89t-150 -13v2zM216 131q3 12 11 34l3 10h-79q-60 -2 -90 -65q-24 -51 -8 -89q10 -22 33 -22q36 0 73 40.5t57 91.5zM420 314
q-38 0 -75.5 -46t-61.5 -109q30 -8 45 -8q50 0 88.5 46t38.5 84q0 33 -35 33z" />
    <glyph glyph-name="ccedilla" unicode="&#xe7;" horiz-adv-x="291" 
d="M228 89q-13 -38 -47 -66t-75 -28q-86 0 -101 72q-14 67 35 146q51 82 129 102q18 4 36 4q26 0 43.5 -18t17.5 -43q0 -34 -21 -58t-50 -24q-37 0 -37 35q0 1 0.5 4t0.5 4q14 -2 16 -2q31 0 53 18.5t22 42.5q0 14 -12.5 25.5t-32.5 11.5q-52 0 -100 -87q-46 -84 -45 -161
q0 -68 46 -68q39 0 72 28t46 65zM8 -145q6 -25 40 -25q27 0 43.5 22t16.5 47q0 39 -31 39q-11 0 -19 -4l-7 8l49 55h5l-48 -55l2 -2q17 5 26 5q23 0 39.5 -13.5t16.5 -33.5q0 -29 -24 -50.5t-69 -21.5q-16 0 -28.5 8.5t-14.5 18.5z" />
    <glyph glyph-name="egrave" unicode="&#xe8;" horiz-adv-x="310" 
d="M232 90q-13 -37 -49 -66t-79 -29q-53 0 -79 27.5t-26 71.5q0 77 61.5 150.5t142.5 73.5q36 0 56 -15.5t20 -44.5q0 -38 -43 -75.5t-107 -37.5q-32 0 -61 10q-16 -45 -16 -86q0 -70 52 -70q42 0 76.5 28t47.5 65zM203 314q-37 0 -74.5 -47t-59.5 -109q23 -7 42 -7
q49 0 88 45.5t39 83.5q0 18 -7.5 26t-27.5 8zM244 401q-54 9 -81 41.5t-24 62.5q2 21 18 28t33 -4q-10 -20 -10 -46.5t17.5 -50.5t47.5 -28z" />
    <glyph glyph-name="eacute" unicode="&#xe9;" horiz-adv-x="310" 
d="M232 90q-13 -37 -49 -66t-79 -29q-53 0 -79 27.5t-26 71.5q0 77 61.5 150.5t142.5 73.5q36 0 56 -15.5t20 -44.5q0 -38 -43 -75.5t-107 -37.5q-32 0 -61 10q-16 -45 -16 -86q0 -70 52 -70q42 0 76.5 28t47.5 65zM203 314q-37 0 -74.5 -47t-59.5 -109q23 -7 42 -7
q49 0 88 45.5t39 83.5q0 18 -7.5 26t-27.5 8zM170 404q45 6 69 51t6 74q17 11 33 4t18 -28q3 -27 -33 -61t-92 -43z" />
    <glyph glyph-name="ecircumflex" unicode="&#xea;" horiz-adv-x="310" 
d="M232 90q-13 -37 -49 -66t-79 -29q-53 0 -79 27.5t-26 71.5q0 77 61.5 150.5t142.5 73.5q36 0 56 -15.5t20 -44.5q0 -38 -43 -75.5t-107 -37.5q-32 0 -61 10q-16 -45 -16 -86q0 -70 52 -70q42 0 76.5 28t47.5 65zM203 314q-37 0 -74.5 -47t-59.5 -109q23 -7 42 -7
q49 0 88 45.5t39 83.5q0 18 -7.5 26t-27.5 8zM203 500h28l65 -132h-4l-78 90h-9l-123 -90h-4z" />
    <glyph glyph-name="edieresis" unicode="&#xeb;" horiz-adv-x="310" 
d="M232 90q-13 -37 -49 -66t-79 -29q-53 0 -79 27.5t-26 71.5q0 77 61.5 150.5t142.5 73.5q36 0 56 -15.5t20 -44.5q0 -38 -43 -75.5t-107 -37.5q-32 0 -61 10q-16 -45 -16 -86q0 -70 52 -70q42 0 76.5 28t47.5 65zM203 314q-37 0 -74.5 -47t-59.5 -109q23 -7 42 -7
q49 0 88 45.5t39 83.5q0 18 -7.5 26t-27.5 8zM104 432q7 32 36 32q14 0 22 -9t5 -23q-5 -31 -37 -31q-31 0 -26 31zM240 432q7 32 36 32q14 0 22 -9t5 -23q-5 -31 -37 -31q-31 0 -26 31z" />
    <glyph glyph-name="igrave" unicode="&#xec;" horiz-adv-x="214" 
d="M166 85q-7 -36 -28.5 -62.5t-53.5 -26.5q-34 0 -56.5 15.5t-22.5 45.5q0 14 4 25q3 10 9.5 33t10.5 35l30 105q15 51 62 51l1 4h-96l2 4h107l-72 -250q-5 -20 -5 -33q0 -31 26 -31q31 0 51 25t27 60h4zM173 401q-54 9 -81 41.5t-24 62.5q2 21 18 28t33 -4
q-10 -20 -10 -46.5t17.5 -50.5t47.5 -28z" />
    <glyph glyph-name="iacute" unicode="&#xed;" horiz-adv-x="214" 
d="M166 85q-7 -36 -28.5 -62.5t-53.5 -26.5q-34 0 -56.5 15.5t-22.5 45.5q0 14 4 25q3 10 9.5 33t10.5 35l30 105q15 51 62 51l1 4h-96l2 4h107l-72 -250q-5 -20 -5 -33q0 -31 26 -31q31 0 51 25t27 60h4zM70 404q45 6 69 51t6 74q17 11 33 4t18 -28q3 -27 -33 -61t-92 -43z
" />
    <glyph glyph-name="icircumflex" unicode="&#xee;" horiz-adv-x="214" 
d="M166 85q-7 -36 -28.5 -62.5t-53.5 -26.5q-34 0 -56.5 15.5t-22.5 45.5q0 14 4 25q3 10 9.5 33t10.5 35l30 105q15 51 62 51l1 4h-96l2 4h107l-72 -250q-5 -20 -5 -33q0 -31 26 -31q31 0 51 25t27 60h4zM132 525h28l65 -132h-4l-78 90h-9l-123 -90h-4z" />
    <glyph glyph-name="idieresis" unicode="&#xef;" horiz-adv-x="214" 
d="M166 85q-7 -36 -28.5 -62.5t-53.5 -26.5q-34 0 -56.5 15.5t-22.5 45.5q0 14 4 25q3 10 9.5 33t10.5 35l30 105q15 51 62 51l1 4h-96l2 4h107l-72 -250q-5 -20 -5 -33q0 -31 26 -31q31 0 51 25t27 60h4zM35 432q7 32 36 32q14 0 22 -9t5 -23q-5 -31 -37 -31q-31 0 -26 31z
M171 432q7 32 36 32q14 0 22 -9t5 -23q-5 -31 -37 -31q-31 0 -26 31z" />
    <glyph glyph-name="eth" unicode="&#xf0;" 
d="M135 476q73 -22 115 -63l77 34l2 -3l-76 -34q58 -58 58 -158t-58.5 -178t-145.5 -78q-53 0 -79 29t-26 76q0 77 57.5 148t139.5 71q49 -2 62 -41h2q-5 76 -33 120l-77 -34l-3 3l78 35q-32 48 -93 69v4zM108 0q44 1 80 47.5t53.5 102.5t20.5 106q-5 60 -63 60
q-34 0 -67.5 -41.5t-53.5 -98t-20 -103.5q0 -73 50 -73z" />
    <glyph glyph-name="ntilde" unicode="&#xf1;" horiz-adv-x="410" 
d="M100 409q8 35 33 60t53 25q20 0 58.5 -21.5t59.5 -21.5q37 0 50 51h4q-4 -15 -12 -32.5t-28 -36.5t-44 -19q-21 0 -58 22t-56 22q-41 0 -56 -49h-4zM-3 -1q25 88 31 109q34 122 42 147q9 33 37 46q12 5 25 5l1 4h-96l1 4h108l-31 -110q23 49 60 82.5t75 33.5
q33 0 55 -20.5t13 -50.5l-54 -185q-18 -64 20 -64q30 0 53 27t27 59l4 -1q-7 -36 -29.5 -62.5t-54.5 -26.5q-40 0 -63.5 22.5t-10.5 64.5q14 42 24 81q13 44 37 119q10 33 -21 33q-43 0 -84.5 -45t-60.5 -103l-48 -169h-60z" />
    <glyph glyph-name="ograve" unicode="&#xf2;" 
d="M196 320q54 0 81 -30.5t27 -78.5q0 -76 -57 -145.5t-138 -69.5q-53 0 -79.5 30t-26.5 78q0 77 56 146.5t137 69.5zM196 316q-50 0 -93.5 -82.5t-43.5 -157.5q0 -76 51 -76q53 0 97 80t44 156q0 80 -55 80zM227 368q-54 9 -81 41.5t-24 62.5q2 21 18 28t33 -4
q-10 -20 -10 -46.5t17.5 -50.5t47.5 -28z" />
    <glyph glyph-name="oacute" unicode="&#xf3;" 
d="M178 371q45 6 69 51t6 74q17 11 33 4t18 -28q3 -27 -33 -61t-92 -43zM196 320q54 0 81 -30.5t27 -78.5q0 -76 -57 -145.5t-138 -69.5q-53 0 -79.5 30t-26.5 78q0 77 56 146.5t137 69.5zM196 316q-50 0 -93.5 -82.5t-43.5 -157.5q0 -76 51 -76q53 0 97 80t44 156
q0 80 -55 80z" />
    <glyph glyph-name="ocircumflex" unicode="&#xf4;" 
d="M196 320q54 0 81 -30.5t27 -78.5q0 -76 -57 -145.5t-138 -69.5q-53 0 -79.5 30t-26.5 78q0 77 56 146.5t137 69.5zM196 316q-50 0 -93.5 -82.5t-43.5 -157.5q0 -76 51 -76q53 0 97 80t44 156q0 80 -55 80zM221 500h28l65 -132h-4l-78 90h-9l-123 -90h-4z" />
    <glyph glyph-name="otilde" unicode="&#xf5;" 
d="M196 320q54 0 81 -30.5t27 -78.5q0 -76 -57 -145.5t-138 -69.5q-53 0 -79.5 30t-26.5 78q0 77 56 146.5t137 69.5zM196 316q-50 0 -93.5 -82.5t-43.5 -157.5q0 -76 51 -76q53 0 97 80t44 156q0 80 -55 80zM99 366q8 35 33 60t53 25q19 0 55 -20t57 -20q22 0 36.5 15
t19.5 33h4q-4 -15 -12 -32.5t-28 -36.5t-44 -19q-22 0 -55.5 19.5t-53.5 19.5q-48 0 -61 -44h-4z" />
    <glyph glyph-name="odieresis" unicode="&#xf6;" 
d="M196 320q54 0 81 -30.5t27 -78.5q0 -76 -57 -145.5t-138 -69.5q-53 0 -79.5 30t-26.5 78q0 77 56 146.5t137 69.5zM196 316q-50 0 -93.5 -82.5t-43.5 -157.5q0 -76 51 -76q53 0 97 80t44 156q0 80 -55 80zM123 432q7 32 36 32q14 0 22 -9t5 -23q-5 -31 -37 -31
q-31 0 -26 31zM259 432q7 32 36 32q14 0 22 -9t5 -23q-5 -31 -37 -31q-31 0 -26 31z" />
    <glyph glyph-name="divide" unicode="&#xf7;" horiz-adv-x="429" 
d="M60 314h328v-5h-328v5zM218 412q2 15 14 25.5t27 10.5q13 0 21 -8.5t8 -21.5q0 -17 -11.5 -29t-28.5 -12q-15 0 -23.5 10t-6.5 25zM166 201q2 15 14 25.5t27 10.5q13 0 21 -8.5t8 -21.5q0 -17 -11.5 -29t-28.5 -12q-15 0 -23.5 10t-6.5 25z" />
    <glyph glyph-name="oslash" unicode="&#xf8;" 
d="M200 320l8 25h5l-8 -26q49 -3 73.5 -32.5t24.5 -76.5q0 -75 -56 -144.5t-137 -69.5l-9 -30h-5l9 30q-51 1 -76.5 31t-25.5 77q0 77 56 146.5t137 69.5h4zM196 316q-50 0 -93.5 -82.5t-43.5 -157.5q0 -72 47 -76l93 316h-3zM111 0q35 0 68.5 39.5t52.5 94t19 101.5
q0 73 -47 80z" />
    <glyph glyph-name="ugrave" unicode="&#xf9;" horiz-adv-x="394" 
d="M6 82q3 9 9.5 32t10.5 35l30 105q10 34 36 48q12 5 25 5l1 3h-95l1 4h108l-81 -281q-10 -34 21 -34q44 0 85.5 47t59.5 108q6 21 16.5 57t18 63t11.5 40h59l-72 -251q-18 -64 22 -64q31 0 51 25t27 61h4q-7 -36 -28.5 -63t-53.5 -27q-40 0 -63.5 22.5t-12.5 64.5q0 2 1 5
l5 15q-25 -47 -59.5 -77t-70.5 -30q-32 0 -54.5 25t-11.5 62zM250 401q-54 9 -81 41.5t-24 62.5q2 21 18 28t33 -4q-10 -20 -10 -46.5t17.5 -50.5t47.5 -28z" />
    <glyph glyph-name="uacute" unicode="&#xfa;" horiz-adv-x="394" 
d="M6 82q3 9 9.5 32t10.5 35l30 105q10 34 36 48q12 5 25 5l1 3h-95l1 4h108l-81 -281q-10 -34 21 -34q44 0 85.5 47t59.5 108q6 21 16.5 57t18 63t11.5 40h59l-72 -251q-18 -64 22 -64q31 0 51 25t27 61h4q-7 -36 -28.5 -63t-53.5 -27q-40 0 -63.5 22.5t-12.5 64.5q0 2 1 5
l5 15q-25 -47 -59.5 -77t-70.5 -30q-32 0 -54.5 25t-11.5 62zM182 404q45 6 69 51t6 74q17 11 33 4t18 -28q3 -27 -33 -61t-92 -43z" />
    <glyph glyph-name="ucircumflex" unicode="&#xfb;" horiz-adv-x="394" 
d="M6 82q3 9 9.5 32t10.5 35l30 105q10 34 36 48q12 5 25 5l1 3h-95l1 4h108l-81 -281q-10 -34 21 -34q44 0 85.5 47t59.5 108q6 21 16.5 57t18 63t11.5 40h59l-72 -251q-18 -64 22 -64q31 0 51 25t27 61h4q-7 -36 -28.5 -63t-53.5 -27q-40 0 -63.5 22.5t-12.5 64.5q0 2 1 5
l5 15q-25 -47 -59.5 -77t-70.5 -30q-32 0 -54.5 25t-11.5 62zM219 525h28l65 -132h-4l-78 90h-9l-123 -90h-4z" />
    <glyph glyph-name="udieresis" unicode="&#xfc;" horiz-adv-x="394" 
d="M6 82q3 9 9.5 32t10.5 35l30 105q10 34 36 48q12 5 25 5l1 3h-95l1 4h108l-81 -281q-10 -34 21 -34q44 0 85.5 47t59.5 108q6 21 16.5 57t18 63t11.5 40h59l-72 -251q-18 -64 22 -64q31 0 51 25t27 61h4q-7 -36 -28.5 -63t-53.5 -27q-40 0 -63.5 22.5t-12.5 64.5q0 2 1 5
l5 15q-25 -47 -59.5 -77t-70.5 -30q-32 0 -54.5 25t-11.5 62zM122 432q7 32 36 32q14 0 22 -9t5 -23q-5 -31 -37 -31q-31 0 -26 31zM258 432q7 32 36 32q14 0 22 -9t5 -23q-5 -31 -37 -31q-31 0 -26 31z" />
    <glyph glyph-name="yacute" unicode="&#xfd;" horiz-adv-x="365" 
d="M317 315q-44 0 -98 -74.5t-104 -188.5q-31 -112 -102 -193t-166 -81q-30 0 -46 14t-16 33q0 25 17 41.5t48 16.5q20 0 32.5 -12t12.5 -28q0 -11 -6 -20q-18 45 -61 45q-18 0 -28.5 -11t-10.5 -32q0 -19 14.5 -31t42.5 -12q109 0 168.5 134t55.5 267.5t-48 133.5h-8l2 3h6
q71 0 96 -72t3 -172q48 107 99.5 175t96.5 68q52 0 52 -52q0 -23 -14.5 -40t-34.5 -17q-26 0 -26 25v3l1 2q2 -1 11 -1q23 0 37 12.5t14 30.5q0 33 -40 33zM147 404q45 6 69 51t6 74q17 11 33 4t18 -28q3 -27 -33 -61t-92 -43z" />
    <glyph glyph-name="thorn" unicode="&#xfe;" horiz-adv-x="355" 
d="M94 408q11 36 22 47q4 4 11 6l1 2h-91l2 4h131l-72 -252q22 46 53 74.5t65 28.5q80 0 94 -71q14 -68 -34 -147q-52 -85 -131 -102q-16 -4 -33 -4q-61 0 -61 59q-8 -28 -17.5 -62.5t-15.5 -56t-8 -29.5q-9 -34 -36 -48q-12 -5 -24 -5l-1 -3h129l-2 -4h-142zM112 -2
q58 0 108 87q47 82 46 158q-1 71 -50 71q-38 0 -71 -35.5t-55 -89.5l-16 -57l-9 -32q-29 -102 47 -102z" />
    <glyph glyph-name="ydieresis" unicode="&#xff;" horiz-adv-x="365" 
d="M317 315q-44 0 -98 -74.5t-104 -188.5q-31 -112 -102 -193t-166 -81q-30 0 -46 14t-16 33q0 25 17 41.5t48 16.5q20 0 32.5 -12t12.5 -28q0 -11 -6 -20q-18 45 -61 45q-18 0 -28.5 -11t-10.5 -32q0 -19 14.5 -31t42.5 -12q109 0 168.5 134t55.5 267.5t-48 133.5h-8l2 3h6
q71 0 96 -72t3 -172q48 107 99.5 175t96.5 68q52 0 52 -52q0 -23 -14.5 -40t-34.5 -17q-26 0 -26 25v3l1 2q2 -1 11 -1q23 0 37 12.5t14 30.5q0 33 -40 33zM109 432q7 32 36 32q14 0 22 -9t5 -23q-5 -31 -37 -31q-31 0 -26 31zM245 432q7 32 36 32q14 0 22 -9t5 -23
q-5 -31 -37 -31q-31 0 -26 31z" />
    <glyph glyph-name="Amacron" unicode="&#x100;" horiz-adv-x="750" 
d="M694 597l-81 -593h63l-1 -4h-192l2 4h68l23 176h-146q-79 -93 -162 -151t-147 -54q-48 2 -68.5 28t-10.5 57t40 49q-46 24 -67.5 70.5t-18.5 103.5q4 98 86.5 173.5t185.5 75.5q27 0 192 -17q-2 12 -1 18q2 44 47 78.5t98 34.5q39 0 55.5 -16.5t14.5 -42.5q-2 -17 -9 -30
q23 22 27 40h2zM169 87q-7 3 -16 3q-32 0 -60 -37q-28 -39 -7 -61q11 -12 36 -13q63 -4 143 52t160 149h-26l2 4h27q74 86 128 181t64 156q-44 -19 -125.5 -25.5t-144 -4t-112.5 -2.5q-103 -9 -167 -72t-70 -143q-4 -47 18 -93t67 -69q21 12 50 12q30 0 36 -30
q91 0 138.5 58t20.5 124q1 5 7.5 10.5t16.5 5.5q15 0 23 -21q12 -37 -14 -79.5t-79 -72t-113 -29.5v-1zM629 531q5 3 13 9q25 16 28 47q2 23 -14 39t-52 16q-50 0 -94.5 -33t-46.5 -76q-2 -11 1 -18q37 -4 75 -4q54 0 90 20zM615 482q-21 -63 -70 -144.5t-112 -153.5h143z
M556 733h222l-2 -6h-222z" />
    <glyph glyph-name="amacron" unicode="&#x101;" horiz-adv-x="406" 
d="M333 314l-71 -251q-18 -64 21 -64q31 0 51.5 25t27.5 61h4q-7 -37 -28.5 -63.5t-54.5 -26.5q-43 0 -64 25.5t-10 66.5l-3 1q-23 -40 -53.5 -66.5t-58.5 -26.5q-49 0 -72 26t-22 70q2 77 61.5 152t134.5 75q61 0 55 -84q4 12 24 80h58zM94 -1q31 0 68 37t56 83
q3 10 12 40.5t14 48.5q3 22 3.5 45.5t-13 42t-38.5 18.5q-34 0 -68.5 -44t-55 -103t-20.5 -106q0 -62 42 -62zM128 434h222l-2 -6h-222z" />
    <glyph glyph-name="Abreve" unicode="&#x102;" horiz-adv-x="750" 
d="M694 597l-81 -593h63l-1 -4h-192l2 4h68l23 176h-146q-79 -93 -162 -151t-147 -54q-48 2 -68.5 28t-10.5 57t40 49q-46 24 -67.5 70.5t-18.5 103.5q4 98 86.5 173.5t185.5 75.5q27 0 192 -17q-2 12 -1 18q2 44 47 78.5t98 34.5q39 0 55.5 -16.5t14.5 -42.5q-2 -17 -9 -30
q23 22 27 40h2zM169 87q-7 3 -16 3q-32 0 -60 -37q-28 -39 -7 -61q11 -12 36 -13q63 -4 143 52t160 149h-26l2 4h27q74 86 128 181t64 156q-44 -19 -125.5 -25.5t-144 -4t-112.5 -2.5q-103 -9 -167 -72t-70 -143q-4 -47 18 -93t67 -69q21 12 50 12q30 0 36 -30
q91 0 138.5 58t20.5 124q1 5 7.5 10.5t16.5 5.5q15 0 23 -21q12 -37 -14 -79.5t-79 -72t-113 -29.5v-1zM629 531q5 3 13 9q25 16 28 47q2 23 -14 39t-52 16q-50 0 -94.5 -33t-46.5 -76q-2 -11 1 -18q37 -4 75 -4q54 0 90 20zM615 482q-21 -63 -70 -144.5t-112 -153.5h143z
M660 760q-5 -20 -5 -32q0 -40 32 -40q23 0 38.5 21.5t19.5 49.5h28q-3 -32 -28.5 -53.5t-58.5 -21.5q-26 0 -42 16t-16 40q0 11 3 20h29z" />
    <glyph glyph-name="abreve" unicode="&#x103;" horiz-adv-x="406" 
d="M333 314l-71 -251q-18 -64 21 -64q31 0 51.5 25t27.5 61h4q-7 -37 -28.5 -63.5t-54.5 -26.5q-43 0 -64 25.5t-10 66.5l-3 1q-23 -40 -53.5 -66.5t-58.5 -26.5q-49 0 -72 26t-22 70q2 77 61.5 152t134.5 75q61 0 55 -84q4 12 24 80h58zM94 -1q31 0 68 37t56 83
q3 10 12 40.5t14 48.5q3 22 3.5 45.5t-13 42t-38.5 18.5q-34 0 -68.5 -44t-55 -103t-20.5 -106q0 -62 42 -62zM219 463q-5 -20 -5 -32q0 -40 32 -40q23 0 38.5 21.5t19.5 49.5h28q-3 -32 -28.5 -53.5t-58.5 -21.5q-26 0 -42 16t-16 40q0 11 3 20h29z" />
    <glyph glyph-name="Aogonek" unicode="&#x104;" horiz-adv-x="750" 
d="M694 597l-81 -593h63l-1 -4h-83q-16 -7 -28.5 -24t-17 -36.5t-3.5 -38t11.5 -31t29.5 -12.5q30 0 56 24l3 -2q-33 -26 -59 -26q-34 0 -53 19.5t-19 44.5t16 49t45 33h-90l2 4h68l23 176h-146q-79 -93 -162 -151t-147 -54q-48 2 -68.5 28t-10.5 57t40 49
q-46 24 -67.5 70.5t-18.5 103.5q4 98 86.5 173.5t185.5 75.5q27 0 192 -17q-2 12 -1 18q2 44 47 78.5t98 34.5q39 0 55.5 -16.5t14.5 -42.5q-2 -17 -9 -30q23 22 27 40h2zM169 87q-7 3 -16 3q-32 0 -60 -37q-28 -39 -7 -61q11 -12 36 -13q63 -4 143 52t160 149h-26l2 4h27
q74 86 128 181t64 156q-44 -19 -125.5 -25.5t-144 -4t-112.5 -2.5q-103 -9 -167 -72t-70 -143q-4 -47 18 -93t67 -69q21 12 50 12q30 0 36 -30q91 0 138.5 58t20.5 124q1 5 7.5 10.5t16.5 5.5q15 0 23 -21q12 -37 -14 -79.5t-79 -72t-113 -29.5v-1zM629 531q5 3 13 9
q25 16 28 47q2 23 -14 39t-52 16q-50 0 -94.5 -33t-46.5 -76q-2 -11 1 -18q37 -4 75 -4q54 0 90 20zM615 482q-21 -63 -70 -144.5t-112 -153.5h143z" />
    <glyph glyph-name="aogonek" unicode="&#x105;" horiz-adv-x="406" 
d="M344 -124q-33 -26 -59 -26q-45 0 -63 31.5t-2.5 67t53.5 47.5q-36 2 -56 24.5t-9 61.5q0 3 1 5l1 5q1 5 3 9q-21 -44 -55 -75t-64 -31q-80 0 -92 71q-12 68 38 148q52 84 126 101l30 3q61 0 55 -84q4 12 24 80h58l-71 -251q-18 -64 21 -64q31 0 51.5 25t27.5 61h4
q-6 -33 -25 -58.5t-48 -30.5q-16 -7 -28.5 -24t-17 -36.5t-3.5 -38t11.5 -31t29.5 -12.5q30 0 56 24zM94 -1q31 0 68 37t56 83q3 10 12.5 42.5t14.5 50.5q8 39 -2.5 70.5t-46.5 31.5q-49 0 -96 -87q-48 -87 -48 -163q-1 -65 42 -65z" />
    <glyph glyph-name="Cacute" unicode="&#x106;" horiz-adv-x="468" 
d="M420 217q0 -86 -65.5 -160t-159.5 -74q-121 0 -161 107q-37 100 10 237q49 140 156 220q87 64 189 64q87 0 107.5 -64.5t-19 -129.5t-98.5 -65q-25 0 -35.5 11.5t-5.5 29.5q61 8 102 70q38 58 21 103q-15 41 -72 41q-89 0 -181 -124q-88 -117 -119 -259q-34 -151 27 -209
q30 -28 79 -28q92 0 156.5 73t64.5 157h4zM349 657q45 6 69 51t6 74q17 11 33 4t18 -28q3 -27 -33 -61t-92 -43z" />
    <glyph glyph-name="cacute" unicode="&#x107;" horiz-adv-x="291" 
d="M228 89q-13 -38 -47 -66t-75 -28q-86 0 -101 72q-14 67 35 146q51 82 129 102q18 4 36 4q26 0 43.5 -18t17.5 -43q0 -34 -21 -58t-50 -24q-37 0 -37 35q0 1 0.5 4t0.5 4q14 -2 16 -2q31 0 53 18.5t22 42.5q0 14 -12.5 25.5t-32.5 11.5q-52 0 -100 -87q-46 -84 -45 -161
q0 -68 46 -68q39 0 72 28t46 65zM154 404q45 6 69 51t6 74q17 11 33 4t18 -28q3 -27 -33 -61t-92 -43z" />
    <glyph glyph-name="Ccircumflex" unicode="&#x108;" horiz-adv-x="468" 
d="M420 217q0 -86 -65.5 -160t-159.5 -74q-121 0 -161 107q-37 100 10 237q49 140 156 220q87 64 189 64q87 0 107.5 -64.5t-19 -129.5t-98.5 -65q-25 0 -35.5 11.5t-5.5 29.5q61 8 102 70q38 58 21 103q-15 41 -72 41q-89 0 -181 -124q-88 -117 -119 -259q-34 -151 27 -209
q30 -28 79 -28q92 0 156.5 73t64.5 157h4zM405 824h28l65 -132h-4l-78 90h-9l-123 -90h-4z" />
    <glyph glyph-name="ccircumflex" unicode="&#x109;" horiz-adv-x="291" 
d="M228 89q-13 -38 -47 -66t-75 -28q-86 0 -101 72q-14 67 35 146q51 82 129 102q18 4 36 4q26 0 43.5 -18t17.5 -43q0 -34 -21 -58t-50 -24q-37 0 -37 35q0 1 0.5 4t0.5 4q14 -2 16 -2q31 0 53 18.5t22 42.5q0 14 -12.5 25.5t-32.5 11.5q-52 0 -100 -87q-46 -84 -45 -161
q0 -68 46 -68q39 0 72 28t46 65zM190 525h28l65 -132h-4l-78 90h-9l-123 -90h-4z" />
    <glyph glyph-name="Cdotaccent" unicode="&#x10a;" horiz-adv-x="468" 
d="M420 217q0 -86 -65.5 -160t-159.5 -74q-121 0 -161 107q-37 100 10 237q49 140 156 220q87 64 189 64q87 0 107.5 -64.5t-19 -129.5t-98.5 -65q-25 0 -35.5 11.5t-5.5 29.5q61 8 102 70q38 58 21 103q-15 41 -72 41q-89 0 -181 -124q-88 -117 -119 -259q-34 -151 27 -209
q30 -28 79 -28q92 0 156.5 73t64.5 157h4zM385 799q2 14 13.5 24t25.5 10t22 -10t6 -24t-13 -23.5t-25 -9.5t-22.5 9.5t-6.5 23.5z" />
    <glyph glyph-name="cdotaccent" unicode="&#x10b;" horiz-adv-x="291" 
d="M228 89q-13 -38 -47 -66t-75 -28q-86 0 -101 72q-14 67 35 146q51 82 129 102q18 4 36 4q26 0 43.5 -18t17.5 -43q0 -34 -21 -58t-50 -24q-37 0 -37 35q0 1 0.5 4t0.5 4q14 -2 16 -2q31 0 53 18.5t22 42.5q0 14 -12.5 25.5t-32.5 11.5q-52 0 -100 -87q-46 -84 -45 -161
q0 -68 46 -68q39 0 72 28t46 65zM197 500q2 14 13.5 24t25.5 10t22 -10t6 -24t-13 -23.5t-25 -9.5t-22.5 9.5t-6.5 23.5z" />
    <glyph glyph-name="Ccaron" unicode="&#x10c;" horiz-adv-x="468" 
d="M420 217q0 -86 -65.5 -160t-159.5 -74q-121 0 -161 107q-37 100 10 237q49 140 156 220q87 64 189 64q87 0 107.5 -64.5t-19 -129.5t-98.5 -65q-25 0 -35.5 11.5t-5.5 29.5q61 8 102 70q38 58 21 103q-15 41 -72 41q-89 0 -181 -124q-88 -117 -119 -259q-34 -151 27 -209
q30 -28 79 -28q92 0 156.5 73t64.5 157h4zM401 662h-28l-65 132h4l78 -90h9l123 90h4z" />
    <glyph glyph-name="ccaron" unicode="&#x10d;" horiz-adv-x="291" 
d="M228 89q-13 -38 -47 -66t-75 -28q-86 0 -101 72q-14 67 35 146q51 82 129 102q18 4 36 4q26 0 43.5 -18t17.5 -43q0 -34 -21 -58t-50 -24q-37 0 -37 35q0 1 0.5 4t0.5 4q14 -2 16 -2q31 0 53 18.5t22 42.5q0 14 -12.5 25.5t-32.5 11.5q-52 0 -100 -87q-46 -84 -45 -161
q0 -68 46 -68q39 0 72 28t46 65zM213 393h-28l-65 132h4l78 -90h9l123 90h4z" />
    <glyph glyph-name="Dcaron" unicode="&#x10e;" horiz-adv-x="851" 
d="M248 -8l3 4h71q4 12 76.5 241.5t88.5 282.5q-52 -23 -176 -47q-23 -5 -65 -13q-98 -19 -148 -86t-43 -138q4 -45 39 -76.5t92 -31.5q55 0 90.5 44.5t31.5 97t-47 74.5q12 19 36 19q43 0 52 -49q10 -57 -29 -116q-48 -74 -134 -74q-63 0 -100.5 36.5t-46.5 89.5
q-15 80 37.5 157.5t152.5 96.5q35 7 114.5 10.5t114.5 9.5q110 24 110 87q0 18 -9.5 31.5t-31.5 13.5q-20 0 -37.5 -16.5t-21.5 -44.5q-12 4 -15 23.5t11.5 38t45.5 18.5q26 0 43.5 -20t17.5 -45q0 -9 -8 -36q49 36 98 36q120 0 163 -102q41 -95 -3 -224q-47 -138 -162 -220
q-103 -72 -231 -72h-180zM661 606q-51 0 -101 -40l-181 -570h49q150 0 253 141q82 112 97 253q13 129 -43 186q-29 30 -74 30zM703 663h-28l-65 132h4l78 -90h9l123 90h4z" />
    <glyph glyph-name="dcaron" unicode="&#x10f;" horiz-adv-x="520" 
d="M367 91q-4 -37 -26 -66.5t-56 -29.5q-39 0 -63 21.5t-15 60.5l-6 1q-22 -36 -51.5 -59.5t-55.5 -23.5q-81 0 -93 72q-12 69 38 148q52 83 125 100l29 3q33 0 47 -25.5t11 -59.5q12 39 28.5 101t20.5 73q9 33 21 45q5 6 11 8l1 3h-90l1 4h131l-113 -404q-7 -23 -3 -43.5
t26 -20.5q31 0 52.5 28.5t25.5 64.5zM94 -1q31 0 68.5 37.5t56.5 84.5q25 87 26 89q3 23 2.5 46t-14.5 40.5t-40 17.5q-47 0 -94 -86t-47 -163q-1 -66 42 -66zM445 404q45 6 69 51t6 74q17 11 33 4t18 -28q3 -27 -33 -61t-92 -43z" />
    <glyph glyph-name="Dcroat" unicode="&#x110;" horiz-adv-x="851" 
d="M248 -8l3 4h71q3 12 21.5 69.5t45.5 144.5t46 148h-116q20 -10 27.5 -37t-0.5 -60t-26.5 -64t-54.5 -52t-79 -21q-63 0 -100.5 36.5t-46.5 89.5q-15 80 37.5 157.5t152.5 96.5q35 7 114.5 10.5t114.5 9.5q110 24 110 87q0 18 -9.5 31.5t-31.5 13.5q-20 0 -37.5 -16.5
t-21.5 -44.5q-12 4 -15 23.5t11.5 38t45.5 18.5q26 0 43.5 -20t17.5 -45q0 -10 -3 -17l1 1l-6 -20q49 36 98 36q120 0 163 -102q41 -95 -3 -224q-47 -138 -162 -220q-103 -72 -231 -72h-180zM494 358l-115 -362h49q150 0 253 141q82 112 97 253q13 129 -43 186
q-29 30 -74 30q-51 0 -101 -40l-65 -203h110v-5h-111zM261 344q12 19 36 19h140q10 30 20.5 62.5t18.5 59.5t11 35q-52 -23 -176 -47q-23 -5 -65 -13q-98 -19 -148 -86t-43 -138q4 -45 39 -76.5t92 -31.5q55 0 90.5 44.5t31.5 97t-47 74.5z" />
    <glyph glyph-name="dcroat" unicode="&#x111;" horiz-adv-x="412" 
d="M217 347h67q8 27 17 60q9 32 22 45q5 6 11 8l1 3h-90l1 4h131l-35 -120h64v-4h-65l-79 -280q-18 -64 22 -64q32 0 53.5 28.5t25.5 64.5l4 -1q-4 -36 -27 -66t-56 -30q-40 0 -63.5 22.5t-12.5 64.5q0 2 1 4l1 4q0 5 2 8q-20 -42 -54.5 -72.5t-63.5 -30.5q-80 0 -92 71
q-12 68 38 148q52 84 126 101l30 3q33 0 46 -24.5t10 -59.5q6 20 16.5 56.5t14.5 52.5h-66v4zM94 -1q31 0 68.5 37.5t56.5 84.5q25 87 26 89q8 41 -2 72.5t-47 31.5q-48 0 -96 -87q-47 -87 -48 -163q-1 -65 42 -65z" />
    <glyph glyph-name="Emacron" unicode="&#x112;" horiz-adv-x="427" 
d="M335 337h-100q-100 0 -152 -90q-43 -75 -28 -157q15 -78 77 -98q16 -5 34 -5q92 0 156.5 72.5t64.5 157.5h4q0 -86 -65.5 -160t-159.5 -74q-118 0 -156 89q-30 72 7 157q35 81 105 108q49 20 104 3h20q-65 12 -82 73q-18 63 27 122q56 76 169 76q46 0 77 -21t37 -50.5
t-1.5 -59t-38 -50.5t-73.5 -21l-4 3q26 7 46 29.5t26.5 50t3.5 53.5t-22.5 44t-50.5 18q-75 0 -122 -76q-41 -65 -30 -128q14 -60 69 -62h58v-4zM276 733h222l-2 -6h-222z" />
    <glyph glyph-name="emacron" unicode="&#x113;" horiz-adv-x="310" 
d="M232 90q-13 -37 -49 -66t-79 -29q-53 0 -79 27.5t-26 71.5q0 77 61.5 150.5t142.5 73.5q36 0 56 -15.5t20 -44.5q0 -38 -43 -75.5t-107 -37.5q-32 0 -61 10q-16 -45 -16 -86q0 -70 52 -70q42 0 76.5 28t47.5 65zM203 314q-37 0 -74.5 -47t-59.5 -109q23 -7 42 -7
q49 0 88 45.5t39 83.5q0 18 -7.5 26t-27.5 8zM90 434h222l-2 -6h-222z" />
    <glyph glyph-name="Ebreve" unicode="&#x114;" horiz-adv-x="427" 
d="M335 337h-100q-100 0 -152 -90q-43 -75 -28 -157q15 -78 77 -98q16 -5 34 -5q92 0 156.5 72.5t64.5 157.5h4q0 -86 -65.5 -160t-159.5 -74q-118 0 -156 89q-30 72 7 157q35 81 105 108q49 20 104 3h20q-65 12 -82 73q-18 63 27 122q56 76 169 76q46 0 77 -21t37 -50.5
t-1.5 -59t-38 -50.5t-73.5 -21l-4 3q26 7 46 29.5t26.5 50t3.5 53.5t-22.5 44t-50.5 18q-75 0 -122 -76q-41 -65 -30 -128q14 -60 69 -62h58v-4zM342 760q-5 -20 -5 -32q0 -40 32 -40q23 0 38.5 21.5t19.5 49.5h28q-3 -32 -28.5 -53.5t-58.5 -21.5q-26 0 -42 16t-16 40
q0 11 3 20h29z" />
    <glyph glyph-name="ebreve" unicode="&#x115;" horiz-adv-x="310" 
d="M232 90q-13 -37 -49 -66t-79 -29q-53 0 -79 27.5t-26 71.5q0 77 61.5 150.5t142.5 73.5q36 0 56 -15.5t20 -44.5q0 -38 -43 -75.5t-107 -37.5q-32 0 -61 10q-16 -45 -16 -86q0 -70 52 -70q42 0 76.5 28t47.5 65zM203 314q-37 0 -74.5 -47t-59.5 -109q23 -7 42 -7
q49 0 88 45.5t39 83.5q0 18 -7.5 26t-27.5 8zM185 461q-5 -20 -5 -32q0 -40 32 -40q23 0 38.5 21.5t19.5 49.5h28q-3 -32 -28.5 -53.5t-58.5 -21.5q-26 0 -42 16t-16 40q0 11 3 20h29z" />
    <glyph glyph-name="Edotaccent" unicode="&#x116;" horiz-adv-x="427" 
d="M335 337h-100q-100 0 -152 -90q-43 -75 -28 -157q15 -78 77 -98q16 -5 34 -5q92 0 156.5 72.5t64.5 157.5h4q0 -86 -65.5 -160t-159.5 -74q-118 0 -156 89q-30 72 7 157q35 81 105 108q49 20 104 3h20q-65 12 -82 73q-18 63 27 122q56 76 169 76q46 0 77 -21t37 -50.5
t-1.5 -59t-38 -50.5t-73.5 -21l-4 3q26 7 46 29.5t26.5 50t3.5 53.5t-22.5 44t-50.5 18q-75 0 -122 -76q-41 -65 -30 -128q14 -60 69 -62h58v-4zM378 799q2 14 13.5 24t25.5 10t22 -10t6 -24t-13 -23.5t-25 -9.5t-22.5 9.5t-6.5 23.5z" />
    <glyph glyph-name="edotaccent" unicode="&#x117;" horiz-adv-x="310" 
d="M232 90q-13 -37 -49 -66t-79 -29q-53 0 -79 27.5t-26 71.5q0 77 61.5 150.5t142.5 73.5q36 0 56 -15.5t20 -44.5q0 -38 -43 -75.5t-107 -37.5q-32 0 -61 10q-16 -45 -16 -86q0 -70 52 -70q42 0 76.5 28t47.5 65zM203 314q-37 0 -74.5 -47t-59.5 -109q23 -7 42 -7
q49 0 88 45.5t39 83.5q0 18 -7.5 26t-27.5 8zM202 500q2 14 13.5 24t25.5 10t22 -10t6 -24t-13 -23.5t-25 -9.5t-22.5 9.5t-6.5 23.5z" />
    <glyph glyph-name="Eogonek" unicode="&#x118;" horiz-adv-x="427" 
d="M335 337h-100q-100 0 -152 -90q-43 -75 -28 -157q15 -78 77 -98q16 -5 34 -5q92 0 156.5 72.5t64.5 157.5h4q0 -83 -61.5 -155.5t-151.5 -78.5q-30 -11 -45 -46t-6.5 -66t39.5 -31q30 0 56 24l3 -2q-33 -26 -59 -26q-34 0 -53 20t-19 46t18 50t48 32q-114 2 -150 90
q-30 73 8 158q36 80 107 106q48 18 101 2h20q-65 12 -82 73q-18 63 27 122q56 76 169 76q46 0 77 -21t37 -50.5t-1.5 -59t-38 -50.5t-73.5 -21l-4 3q26 7 46 29.5t26.5 50t3.5 53.5t-22.5 44t-50.5 18q-75 0 -122 -76q-41 -65 -30 -128q14 -60 69 -62h58v-4z" />
    <glyph glyph-name="eogonek" unicode="&#x119;" horiz-adv-x="310" 
d="M163 -126q-33 -26 -59 -26q-46 0 -63.5 32.5t0 68.5t57.5 46q-83 3 -97 74q-13 67 37 145q53 83 132 100q17 4 33 4q74 0 76 -60q0 -48 -63 -89t-148 -14q-23 -58 -14.5 -107t50.5 -49t76.5 28t47.5 65l4 -2q-13 -34 -44 -61t-69 -33q-31 -8 -47 -43.5t-7.5 -68
t39.5 -32.5q30 0 56 24zM203 314q-37 0 -74.5 -47t-59.5 -109q23 -7 42 -7q50 0 88.5 46t38.5 84q0 33 -35 33z" />
    <glyph glyph-name="Ecaron" unicode="&#x11a;" horiz-adv-x="427" 
d="M335 337h-100q-100 0 -152 -90q-43 -75 -28 -157q15 -78 77 -98q16 -5 34 -5q92 0 156.5 72.5t64.5 157.5h4q0 -86 -65.5 -160t-159.5 -74q-118 0 -156 89q-30 72 7 157q35 81 105 108q49 20 104 3h20q-65 12 -82 73q-18 63 27 122q56 76 169 76q46 0 77 -21t37 -50.5
t-1.5 -59t-38 -50.5t-73.5 -21l-4 3q26 7 46 29.5t26.5 50t3.5 53.5t-22.5 44t-50.5 18q-75 0 -122 -76q-41 -65 -30 -128q14 -60 69 -62h58v-4zM396 663h-28l-65 132h4l78 -90h9l123 90h4z" />
    <glyph glyph-name="ecaron" unicode="&#x11b;" horiz-adv-x="310" 
d="M232 90q-13 -37 -49 -66t-79 -29q-53 0 -79 27.5t-26 71.5q0 77 61.5 150.5t142.5 73.5q36 0 56 -15.5t20 -44.5q0 -38 -43 -75.5t-107 -37.5q-32 0 -61 10q-16 -45 -16 -86q0 -70 52 -70q42 0 76.5 28t47.5 65zM203 314q-37 0 -74.5 -47t-59.5 -109q23 -7 42 -7
q49 0 88 45.5t39 83.5q0 18 -7.5 26t-27.5 8zM216 393h-28l-65 132h4l78 -90h9l123 90h4z" />
    <glyph glyph-name="Gcircumflex" unicode="&#x11c;" horiz-adv-x="540" 
d="M528 482q0 -43 -21.5 -89.5t-56.5 -80.5h56l-1 -4h-12q-58 -202 -93 -278q-77 -165 -187 -166q-50 0 -73.5 24t-19 53t27.5 47q-124 28 -127 182t109.5 297t272.5 143q55 0 90 -37.5t35 -90.5zM228 -10q110 21 165 146q1 2 44 164q-45 -37 -92 -37q-25 0 -35.5 11.5
t-5.5 29.5q76 -10 148 43.5t72 134.5q0 52 -34 88t-87 36q-60 0 -124.5 -57t-109.5 -141t-71.5 -171t-12.5 -156.5t70 -87.5q34 19 73 -3zM384 108q-65 -121 -186 -125q-24 -10 -34.5 -38t2.5 -52.5t47 -24.5q54 0 94.5 63.5t76.5 176.5zM410 824h28l65 -132h-4l-78 90h-9
l-123 -90h-4z" />
    <glyph glyph-name="gcircumflex" unicode="&#x11d;" horiz-adv-x="383" 
d="M-60 -141q0 59 81 104q-36 21 -36 51q0 38 32.5 61t63.5 23q12 0 26 -6v-4q-16 6 -28 6q-26 0 -48 -16t-22 -39q0 -22 37 -34.5t81.5 -17.5t81.5 -23.5t37 -50.5q0 -45 -51 -89.5t-140 -44.5q-54 0 -84.5 22.5t-30.5 57.5zM313 285q25 -7 48 2t23 35q0 16 -11.5 28.5
t-34.5 12.5q-22 0 -37 -14t-15 -34q0 -13 6 -25q16 -16 16 -43q0 -50 -50 -95t-124 -45q-49 0 -73.5 20t-24.5 52q0 50 50 95.5t123 45.5q49 0 76 -22q-3 7 -3 17q0 21 16.5 36.5t39.5 15.5q52 0 52 -58q0 -22 -14.5 -38t-36.5 -16q-26 0 -26 30zM214 -125q0 23 -31.5 36.5
t-83 25.5t-75.5 24q-80 -42 -80 -102q0 -33 29.5 -54.5t81.5 -21.5q67 0 112 28t47 64zM208 316q-45 0 -82.5 -52.5t-37.5 -100.5q0 -52 48 -52q47 0 85 50.5t38 99.5q0 55 -51 55zM234 525h28l65 -132h-4l-78 90h-9l-123 -90h-4z" />
    <glyph glyph-name="Gbreve" unicode="&#x11e;" horiz-adv-x="540" 
d="M528 482q0 -43 -21.5 -89.5t-56.5 -80.5h56l-1 -4h-12q-58 -202 -93 -278q-77 -165 -187 -166q-50 0 -73.5 24t-19 53t27.5 47q-124 28 -127 182t109.5 297t272.5 143q55 0 90 -37.5t35 -90.5zM228 -10q110 21 165 146q1 2 44 164q-45 -37 -92 -37q-25 0 -35.5 11.5
t-5.5 29.5q76 -10 148 43.5t72 134.5q0 52 -34 88t-87 36q-60 0 -124.5 -57t-109.5 -141t-71.5 -171t-12.5 -156.5t70 -87.5q34 19 73 -3zM384 108q-65 -121 -186 -125q-24 -10 -34.5 -38t2.5 -52.5t47 -24.5q54 0 94.5 63.5t76.5 176.5zM399 760q-5 -20 -5 -32
q0 -40 32 -40q23 0 38.5 21.5t19.5 49.5h28q-3 -32 -28.5 -53.5t-58.5 -21.5q-26 0 -42 16t-16 40q0 11 3 20h29z" />
    <glyph glyph-name="gbreve" unicode="&#x11f;" horiz-adv-x="383" 
d="M-60 -141q0 59 81 104q-36 21 -36 51q0 38 32.5 61t63.5 23q12 0 26 -6v-4q-16 6 -28 6q-26 0 -48 -16t-22 -39q0 -22 37 -34.5t81.5 -17.5t81.5 -23.5t37 -50.5q0 -45 -51 -89.5t-140 -44.5q-54 0 -84.5 22.5t-30.5 57.5zM313 285q25 -7 48 2t23 35q0 16 -11.5 28.5
t-34.5 12.5q-22 0 -37 -14t-15 -34q0 -13 6 -25q16 -16 16 -43q0 -50 -50 -95t-124 -45q-49 0 -73.5 20t-24.5 52q0 50 50 95.5t123 45.5q49 0 76 -22q-3 7 -3 17q0 21 16.5 36.5t39.5 15.5q52 0 52 -58q0 -22 -14.5 -38t-36.5 -16q-26 0 -26 30zM214 -125q0 23 -31.5 36.5
t-83 25.5t-75.5 24q-80 -42 -80 -102q0 -33 29.5 -54.5t81.5 -21.5q67 0 112 28t47 64zM208 316q-45 0 -82.5 -52.5t-37.5 -100.5q0 -52 48 -52q47 0 85 50.5t38 99.5q0 55 -51 55zM198 461q-5 -20 -5 -32q0 -40 32 -40q23 0 38.5 21.5t19.5 49.5h28q-3 -32 -28.5 -53.5
t-58.5 -21.5q-26 0 -42 16t-16 40q0 11 3 20h29z" />
    <glyph glyph-name="Gdotaccent" unicode="&#x120;" horiz-adv-x="540" 
d="M528 482q0 -43 -21.5 -89.5t-56.5 -80.5h56l-1 -4h-12q-58 -202 -93 -278q-77 -165 -187 -166q-50 0 -73.5 24t-19 53t27.5 47q-124 28 -127 182t109.5 297t272.5 143q55 0 90 -37.5t35 -90.5zM228 -10q110 21 165 146q1 2 44 164q-45 -37 -92 -37q-25 0 -35.5 11.5
t-5.5 29.5q76 -10 148 43.5t72 134.5q0 52 -34 88t-87 36q-60 0 -124.5 -57t-109.5 -141t-71.5 -171t-12.5 -156.5t70 -87.5q34 19 73 -3zM384 108q-65 -121 -186 -125q-24 -10 -34.5 -38t2.5 -52.5t47 -24.5q54 0 94.5 63.5t76.5 176.5zM402 799q2 14 13.5 24t25.5 10
t22 -10t6 -24t-13 -23.5t-25 -9.5t-22.5 9.5t-6.5 23.5z" />
    <glyph glyph-name="gdotaccent" unicode="&#x121;" horiz-adv-x="383" 
d="M-60 -141q0 59 81 104q-36 21 -36 51q0 38 32.5 61t63.5 23q12 0 26 -6v-4q-16 6 -28 6q-26 0 -48 -16t-22 -39q0 -22 37 -34.5t81.5 -17.5t81.5 -23.5t37 -50.5q0 -45 -51 -89.5t-140 -44.5q-54 0 -84.5 22.5t-30.5 57.5zM313 285q25 -7 48 2t23 35q0 16 -11.5 28.5
t-34.5 12.5q-22 0 -37 -14t-15 -34q0 -13 6 -25q16 -16 16 -43q0 -50 -50 -95t-124 -45q-49 0 -73.5 20t-24.5 52q0 50 50 95.5t123 45.5q49 0 76 -22q-3 7 -3 17q0 21 16.5 36.5t39.5 15.5q52 0 52 -58q0 -22 -14.5 -38t-36.5 -16q-26 0 -26 30zM214 -125q0 23 -31.5 36.5
t-83 25.5t-75.5 24q-80 -42 -80 -102q0 -33 29.5 -54.5t81.5 -21.5q67 0 112 28t47 64zM208 316q-45 0 -82.5 -52.5t-37.5 -100.5q0 -52 48 -52q47 0 85 50.5t38 99.5q0 55 -51 55zM232 500q2 14 13.5 24t25.5 10t22 -10t6 -24t-13 -23.5t-25 -9.5t-22.5 9.5t-6.5 23.5z" />
    <glyph glyph-name="Gcommaaccent" unicode="&#x122;" horiz-adv-x="540" 
d="M132 -333q36 14 54.5 38t19.5 44q0 27 -27 27q-17 0 -25 -13q-6 6 -6 23q1 16 13 27t29 11q20 0 31 -14.5t8 -35.5q-5 -34 -31.5 -64t-64.5 -46zM528 482q0 -43 -21.5 -89.5t-56.5 -80.5h56l-1 -4h-12q-58 -202 -93 -278q-77 -165 -187 -166q-50 0 -73.5 24t-19 53
t27.5 47q-124 28 -127 182t109.5 297t272.5 143q55 0 90 -37.5t35 -90.5zM228 -10q110 21 165 146q1 2 44 164q-45 -37 -92 -37q-25 0 -35.5 11.5t-5.5 29.5q76 -10 148 43.5t72 134.5q0 52 -34 88t-87 36q-60 0 -124.5 -57t-109.5 -141t-71.5 -171t-12.5 -156.5t70 -87.5
q34 19 73 -3zM384 108q-65 -121 -186 -125q-24 -10 -34.5 -38t2.5 -52.5t47 -24.5q54 0 94.5 63.5t76.5 176.5z" />
    <glyph glyph-name="gcommaaccent" unicode="&#x123;" horiz-adv-x="383" 
d="M-60 -141q0 59 81 104q-36 21 -36 51q0 38 32.5 61t63.5 23q12 0 26 -6v-4q-16 6 -28 6q-26 0 -48 -16t-22 -39q0 -22 37 -34.5t81.5 -17.5t81.5 -23.5t37 -50.5q0 -45 -51 -89.5t-140 -44.5q-54 0 -84.5 22.5t-30.5 57.5zM313 285q25 -7 48 2t23 35q0 16 -11.5 28.5
t-34.5 12.5q-22 0 -37 -14t-15 -34q0 -13 6 -25q16 -16 16 -43q0 -50 -50 -95t-124 -45q-49 0 -73.5 20t-24.5 52q0 50 50 95.5t123 45.5q49 0 76 -22q-3 7 -3 17q0 21 16.5 36.5t39.5 15.5q52 0 52 -58q0 -22 -14.5 -38t-36.5 -16q-26 0 -26 30zM214 -125q0 23 -31.5 36.5
t-83 25.5t-75.5 24q-80 -42 -80 -102q0 -33 29.5 -54.5t81.5 -21.5q67 0 112 28t47 64zM208 316q-45 0 -82.5 -52.5t-37.5 -100.5q0 -52 48 -52q47 0 85 50.5t38 99.5q0 55 -51 55zM314 467q-54 9 -81 41.5t-24 62.5q2 21 18 28t33 -4q-10 -20 -10 -46.5t17.5 -50.5
t47.5 -28z" />
    <glyph glyph-name="Hcircumflex" unicode="&#x124;" horiz-adv-x="759" 
d="M293 -253q22 7 51 7h10q48 6 85 30.5t61.5 58t46.5 91t36.5 109t34.5 132.5q10 40 15 61l7 28h-224l-80 -268h66l-1 -4h-201l1 4h73q4 19 78 268h-42q0 -47 -57 -87.5t-136 -40.5q-72 0 -109 40.5t-37 101.5q0 74 54 141.5t146 84.5q30 6 82 10.5t93 9t81.5 13t63.5 27
t23 47.5q0 45 -39 45q-20 0 -38 -16.5t-23 -44.5q-15 5 -15 27q0 20 15 36.5t44 16.5q25 0 42 -19t17 -43q0 -16 -4 -27l-96 -317h224l25 95q16 71 52.5 125.5t90.5 66.5h-119l1 4h167l-1 -4q-47 0 -75 -43.5t-50 -129.5l-33 -119q-22 -81 -36.5 -128.5t-37.5 -112t-46 -103
t-54.5 -77.5t-70.5 -60.5t-86 -29.5q34 -5 111 -32.5t119 -27.5q76 0 117.5 37t41.5 86q0 38 -26 64.5t-72 26.5q-33 0 -55.5 -29.5t-22.5 -59.5q-26 0 -26 23q0 24 29 47t75 23q50 0 77.5 -30t27.5 -73q0 -57 -44.5 -103t-120.5 -46q-46 0 -135.5 45t-133.5 45
q-15 0 -35 -5zM354 269q73 241 76 251q-75 -31 -243 -60q-93 -17 -147 -78t-54 -126q0 -51 33.5 -83.5t96.5 -32.5q71 0 114 36.5t43 84.5q0 21 -7 29q7 4 17 4q23 0 27 -24zM655 824h28l65 -132h-4l-78 90h-9l-123 -90h-4z" />
    <glyph glyph-name="hcircumflex" unicode="&#x125;" horiz-adv-x="408" 
d="M-5 -1q51 181 52 186q61 218 63 223q9 33 36 47q12 5 25 5l1 3h-95l1 4h107l-73 -263q23 49 59.5 82.5t74.5 33.5q32 0 54.5 -20t14.5 -51l-51 -185q-18 -64 21 -64q31 0 51.5 25t27.5 61l4 -1q-7 -36 -29 -62.5t-54 -26.5q-40 0 -63 22.5t-12 64.5q21 72 23 81
q24 86 34 119t-21 33q-42 0 -82.5 -42.5t-59.5 -98.5l-49 -176h-60zM278 648h28l65 -132h-4l-78 90h-9l-123 -90h-4z" />
    <glyph glyph-name="hbar" unicode="&#x127;" horiz-adv-x="408" 
d="M20 362h77q4 12 8 27.5t5 18.5q9 33 36 47q12 5 25 5l1 3h-95l1 4h107l-30 -105h87l-2 -6h-86l-42 -150q23 51 58.5 82.5t75.5 31.5q32 0 54.5 -20t14.5 -51l-51 -185q-18 -64 21 -64q31 0 51.5 25t27.5 61l4 -1q-7 -36 -29 -62.5t-54 -26.5q-40 0 -63 22.5t-12 64.5
q21 72 23 81q24 86 34 119t-21 33q-46 0 -87.5 -47t-58.5 -107l-45 -163h-60q5 20 18 66t20 70q14 50 62 221h-77z" />
    <glyph glyph-name="Itilde" unicode="&#x128;" horiz-adv-x="649" 
d="M677 562l-114 -395q-25 -90 -94 -149.5t-161 -59.5q-89 0 -125.5 57.5t-25.5 129.5q-26 0 -33 2q-89 11 -125 72t-23 140q18 97 108 161.5t192 52.5q42 -6 173 -39q-2 11 1 19q8 44 57 72.5t101 22.5q37 -5 51.5 -24t10.5 -43q-9 -42 -60 -61q47 6 66 42h1zM307 312
q10 16 26 13q15 -1 20 -24q10 -48 -39 -94.5t-122 -58.5q-18 -31 -18.5 -64.5t14.5 -60.5t47 -44t74 -17q132 0 192 206l101 345l-7 2q-24 -6 -57 -8t-61.5 -1t-68.5 5t-62.5 7t-59.5 9t-45 7q-100 13 -173.5 -45.5t-88.5 -138.5q-13 -67 23.5 -127.5t121.5 -71.5
q7 -2 33 -2q7 37 26 63t45 31q15 3 24 -4.5t9 -20.5q-46 -29 -66 -65q63 14 95.5 59.5t16.5 99.5zM454 553q-3 -8 -1 -20q39 -10 76 -15q48 -4 88.5 11t48.5 52q10 54 -58 63q-49 6 -97.5 -22t-56.5 -69zM537 708q8 35 33 60t53 25q19 0 55 -20t57 -20q22 0 36.5 15t19.5 33
h4q-4 -15 -12 -32.5t-28 -36.5t-44 -19q-22 0 -55.5 19.5t-53.5 19.5q-48 0 -61 -44h-4z" />
    <glyph glyph-name="itilde" unicode="&#x129;" horiz-adv-x="214" 
d="M166 85q-7 -36 -28.5 -62.5t-53.5 -26.5q-34 0 -56.5 15.5t-22.5 45.5q0 14 4 25q3 10 9.5 33t10.5 35l30 105q15 51 62 51l1 4h-96l2 4h107l-72 -250q-5 -20 -5 -33q0 -31 26 -31q31 0 51 25t27 60h4zM7 365q8 35 33 60t53 25q19 0 55 -20t57 -20q22 0 36.5 15t19.5 33
h4q-4 -15 -12 -32.5t-28 -36.5t-44 -19q-22 0 -55.5 19.5t-53.5 19.5q-48 0 -61 -44h-4z" />
    <glyph glyph-name="imacron" unicode="&#x12b;" horiz-adv-x="214" 
d="M9 434h222l-2 -6h-222zM166 85q-7 -36 -28.5 -62.5t-53.5 -26.5q-34 0 -56.5 15.5t-22.5 45.5q0 14 4 25q3 10 9.5 33t10.5 35l30 105q15 51 62 51l1 4h-96l2 4h107l-72 -250q-5 -20 -5 -33q0 -31 26 -31q31 0 51 25t27 60h4z" />
    <glyph glyph-name="Ibreve" unicode="&#x12c;" horiz-adv-x="649" 
d="M677 562l-114 -395q-25 -90 -94 -149.5t-161 -59.5q-89 0 -125.5 57.5t-25.5 129.5q-26 0 -33 2q-89 11 -125 72t-23 140q18 97 108 161.5t192 52.5q42 -6 173 -39q-2 11 1 19q8 44 57 72.5t101 22.5q37 -5 51.5 -24t10.5 -43q-9 -42 -60 -61q47 6 66 42h1zM307 312
q10 16 26 13q15 -1 20 -24q10 -48 -39 -94.5t-122 -58.5q-18 -31 -18.5 -64.5t14.5 -60.5t47 -44t74 -17q132 0 192 206l101 345l-7 2q-24 -6 -57 -8t-61.5 -1t-68.5 5t-62.5 7t-59.5 9t-45 7q-100 13 -173.5 -45.5t-88.5 -138.5q-13 -67 23.5 -127.5t121.5 -71.5
q7 -2 33 -2q7 37 26 63t45 31q15 3 24 -4.5t9 -20.5q-46 -29 -66 -65q63 14 95.5 59.5t16.5 99.5zM454 553q-3 -8 -1 -20q39 -10 76 -15q48 -4 88.5 11t48.5 52q10 54 -58 63q-49 6 -97.5 -22t-56.5 -69zM635 760q-5 -20 -5 -32q0 -40 32 -40q23 0 38.5 21.5t19.5 49.5h28
q-3 -32 -28.5 -53.5t-58.5 -21.5q-26 0 -42 16t-16 40q0 11 3 20h29z" />
    <glyph glyph-name="Iogonek" unicode="&#x12e;" horiz-adv-x="649" 
d="M333 -42q-25 -16 -37 -49.5t-3 -61t38 -27.5q30 0 56 24l3 -2q-33 -26 -59 -26q-42 0 -60.5 28.5t-7 63t44.5 50.5q-89 0 -125.5 57.5t-25.5 129.5q-26 0 -33 2q-89 11 -125 72t-23 140q18 97 108 161.5t192 52.5q42 -6 173 -39q-2 11 1 19q8 44 57 72.5t101 22.5
q37 -5 51.5 -24t10.5 -43q-9 -42 -60 -61q47 6 66 42h1l-114 -395q-25 -83 -84.5 -140.5t-140.5 -66.5zM307 312q10 16 26 13q15 -1 20 -24q10 -48 -39 -94.5t-122 -58.5q-18 -31 -18.5 -64.5t14.5 -60.5t47 -44t74 -17q132 0 192 206l101 345l-7 2q-24 -6 -57 -8t-61.5 -1
t-68.5 5t-62.5 7t-59.5 9t-45 7q-100 13 -173.5 -45.5t-88.5 -138.5q-13 -67 23.5 -127.5t121.5 -71.5q7 -2 33 -2q7 37 26 63t45 31q15 3 24 -4.5t9 -20.5q-46 -29 -66 -65q63 14 95.5 59.5t16.5 99.5zM454 553q-3 -8 -1 -20q39 -10 76 -15q48 -4 88.5 11t48.5 52
q10 54 -58 63q-49 6 -97.5 -22t-56.5 -69z" />
    <glyph glyph-name="iogonek" unicode="&#x12f;" horiz-adv-x="214" 
d="M166 85q-7 -33 -25.5 -59t-45.5 -29q-31 -8 -48.5 -43.5t-9.5 -68.5t40 -33q30 0 56 24l3 -2q-33 -26 -59 -26q-47 0 -64 33.5t1.5 70t60.5 44.5q-30 2 -50 17.5t-20 43.5q0 14 4 25q3 10 9.5 33t10.5 35l30 105q15 51 62 51l1 4h-96l2 4h107l-72 -250q-5 -20 -5 -33
q0 -31 26 -31q31 0 51 25t27 60h4zM121 500q2 14 13.5 24t25.5 10t22 -10t6 -24t-13 -23.5t-25 -9.5t-22.5 9.5t-6.5 23.5z" />
    <glyph glyph-name="Idotaccent" unicode="&#x130;" horiz-adv-x="649" 
d="M677 562l-114 -395q-25 -90 -94 -149.5t-161 -59.5q-89 0 -125.5 57.5t-25.5 129.5q-26 0 -33 2q-89 11 -125 72t-23 140q18 97 108 161.5t192 52.5q42 -6 173 -39q-2 11 1 19q8 44 57 72.5t101 22.5q37 -5 51.5 -24t10.5 -43q-9 -42 -60 -61q47 6 66 42h1zM307 312
q10 16 26 13q15 -1 20 -24q10 -48 -39 -94.5t-122 -58.5q-18 -31 -18.5 -64.5t14.5 -60.5t47 -44t74 -17q132 0 192 206l101 345l-7 2q-24 -6 -57 -8t-61.5 -1t-68.5 5t-62.5 7t-59.5 9t-45 7q-100 13 -173.5 -45.5t-88.5 -138.5q-13 -67 23.5 -127.5t121.5 -71.5
q7 -2 33 -2q7 37 26 63t45 31q15 3 24 -4.5t9 -20.5q-46 -29 -66 -65q63 14 95.5 59.5t16.5 99.5zM454 553q-3 -8 -1 -20q39 -10 76 -15q48 -4 88.5 11t48.5 52q10 54 -58 63q-49 6 -97.5 -22t-56.5 -69zM655 799q2 14 13.5 24t25.5 10t22 -10t6 -24t-13 -23.5t-25 -9.5
t-22.5 9.5t-6.5 23.5z" />
    <glyph glyph-name="dotlessi" unicode="&#x131;" horiz-adv-x="214" 
d="M166 85q-7 -36 -28.5 -62.5t-53.5 -26.5q-34 0 -56.5 15.5t-22.5 45.5q0 14 4 25q3 10 9.5 33t10.5 35l30 105q15 51 62 51l1 4h-96l2 4h107l-72 -250q-5 -20 -5 -33q0 -31 26 -31q31 0 51 25t27 60h4z" />
    <glyph glyph-name="ij" unicode="&#x133;" horiz-adv-x="397" 
d="M166 85q-7 -36 -28.5 -62.5t-53.5 -26.5q-34 0 -56.5 15.5t-22.5 45.5q0 14 4 25q3 10 9.5 33t10.5 35l30 105q15 51 62 51l1 4h-96l2 4h107l-72 -250q-5 -20 -5 -33q0 -31 26 -31q31 0 51 25t27 60h4zM121 500q2 14 13.5 24t25.5 10t22 -10t6 -24t-13 -23.5t-25 -9.5
t-22.5 9.5t-6.5 23.5zM113 -177q-18 45 -61 45q-18 0 -28.5 -11t-10.5 -32q0 -19 13.5 -31t41.5 -12q18 0 33.5 5t28.5 17.5t23 23t20 33.5t16 37t15 44.5t12.5 45t12.5 50t12 48.5l42 168q13 53 60 53l1 3h-95l1 4h107l-63 -251q-12 -48 -25 -86.5t-33 -77t-43 -64
t-55 -41.5t-70 -16q-28 0 -43.5 14t-15.5 33q0 25 17 41.5t48 16.5q20 0 32.5 -12t12.5 -28q0 -11 -6 -20zM335 500q2 14 13.5 24t25.5 10t22 -10t6 -24t-13 -23.5t-25 -9.5t-22.5 9.5t-6.5 23.5z" />
    <glyph glyph-name="Jcircumflex" unicode="&#x134;" horiz-adv-x="640" 
d="M582 229q-24 -87 -48 -154.5t-60 -138.5t-77 -117.5t-98.5 -76t-124.5 -29.5q-94 0 -132 68t-17.5 138.5t69.5 78.5q15 3 24 -4.5t9 -20.5q-67 -41 -83.5 -102.5t21 -107.5t110.5 -46q132 0 222 176q42 82 108 291q9 29 15 46l60 192q16 53 55 87l-2 5q-29 -8 -66.5 -10
t-82.5 2t-75 8t-77 11.5t-55 8.5q-101 13 -173.5 -45t-88.5 -139q-13 -67 23.5 -127.5t121.5 -71.5q92 -12 148 39.5t35 121.5q9 14 26 13q16 -4 20 -24q12 -61 -62.5 -113.5t-166.5 -40.5q-88 11 -125.5 72.5t-22.5 139.5q16 97 106.5 161.5t193.5 52.5q42 -6 173 -39
q-2 11 1 19q8 44 57 72.5t101 22.5q37 -5 51.5 -24t10.5 -43q-5 -23 -17 -37q7 4 42 23l1 -2q-25 -17 -34.5 -24.5t-29 -38.5t-31.5 -77zM490 553q-3 -8 -1 -20q39 -10 76 -15q124 -11 137 63q10 54 -58 63q-49 6 -97.5 -22t-56.5 -69zM679 824h28l65 -132h-4l-78 90h-9
l-123 -90h-4z" />
    <glyph glyph-name="jcircumflex" unicode="&#x135;" horiz-adv-x="183" 
d="M-101 -177q-18 45 -61 45q-18 0 -28.5 -11t-10.5 -32q0 -19 13.5 -31t41.5 -12q18 0 33.5 5t28.5 17.5t23 23t20 33.5t16 37t15 44.5t12.5 45t12.5 50t12 48.5l42 168q13 53 60 53l1 3h-95l1 4h107l-63 -251q-12 -48 -25 -86.5t-33 -77t-43 -64t-55 -41.5t-70 -16
q-28 0 -43.5 14t-15.5 33q0 25 17 41.5t48 16.5q20 0 32.5 -12t12.5 -28q0 -11 -6 -20zM137 525h28l65 -132h-4l-78 90h-9l-123 -90h-4z" />
    <glyph glyph-name="Kcommaaccent" unicode="&#x136;" horiz-adv-x="771" 
d="M384 -238q36 14 54.5 38t19.5 44q0 27 -27 27q-17 0 -25 -13q-6 6 -6 23q1 16 13 27t29 11q20 0 31 -14.5t8 -35.5q-5 -34 -31.5 -64t-64.5 -46zM520 594q0 -3 -67 -211q66 -25 113 -129l200 298h-101l1 4h216l-1 -4h-109l-204 -303q12 -29 27 -71t25.5 -71.5t23.5 -58.5
t28 -44t32 -15q14 0 25 9t13 25h4q-2 -18 -14.5 -28t-27.5 -10q-47 0 -81 33t-54 84t-35.5 103.5t-36.5 101t-47 67.5l-117 -370h66l-2 -4h-195l2 4h72q2 5 11 34.5t23.5 76.5t28.5 90q-48 17 -55 61t26 82.5t87 42.5q11 31 23.5 73t15.5 50q32 7 47 20.5t25 34.5
q-26 -43 -85 -43q-38 0 -120 15t-115 15q-80 0 -127 -65q-39 -55 -24 -106q17 -55 88 -55q54 0 69 41q12 32 -10 54q-11 11 -27 12q0 23 17 32.5t35 2.5q12 -6 17.5 -23t2 -37.5t-15 -40t-34.5 -32.5t-54 -13q-77 0 -99 64q-19 59 19 123q44 74 128 82q11 1 22 1
q34 0 112.5 -33t116.5 -33q66 0 91 58zM340 210q55 173 56 177q-50 -5 -82 -42t-26 -78.5t52 -56.5z" />
    <glyph glyph-name="kcommaaccent" unicode="&#x137;" horiz-adv-x="397" 
d="M86 -238q36 14 54.5 38t19.5 44q0 27 -27 27q-17 0 -25 -13q-6 6 -6 23q1 16 13 27t29 11q20 0 31 -14.5t8 -35.5q-5 -34 -31.5 -64t-64.5 -46zM-5 -1q51 181 52 186q61 218 63 223q9 33 36 47q10 4 25 6l1 2h-96l2 4h107l-131 -468h-59zM325 339q-9 3 -9 -5t4 -23t0 -30
q-6 -22 -29 -40t-41 -16v2q19 -1 25 12.5t6.5 40.5t2.5 36q-73 4 -136 -87q41 -3 66.5 -28t35 -58t15 -65.5t12.5 -55t21 -22.5q37 0 66 43l3 -1q-27 -46 -71 -46q-38 0 -59 24t-28.5 58t-13 67.5t-19.5 57.5t-41 24v3q1 0 4 -0.5t5 -0.5q60 91 141 91q4 10 7 13q14 15 33 8
v-2z" />
    <glyph glyph-name="Lacute" unicode="&#x139;" horiz-adv-x="511" 
d="M570 481q0 -56 -43.5 -101.5t-94.5 -45.5q-48 0 -74.5 27t-24 59t27.5 48q14 11 29 3q-14 -26 -14.5 -56.5t15 -53t43.5 -22.5q49 0 90 44t41 98q0 44 -28.5 71.5t-71.5 27.5q-118 0 -161 -155l-40 -140q-25 -91 -51 -149t-59.5 -91t-64 -47.5t-81.5 -28.5v-2
q41 -6 79.5 -32.5t69.5 -61t61.5 -69t66.5 -61.5t72 -32q127 -19 213 72q69 72 72 170q4 103 -69 156q-41 29 -101 36q-46 6 -94.5 -15t-69.5 -54q-16 -22 -22 -51q-12 -9 -28 1q-22 19 6 57q26 37 91 55t118 11q117 -12 158 -106q37 -84 -3 -181t-132 -137
q-62 -27 -137 -19q-50 6 -100 34t-90 64.5t-78 72t-79 59t-78 22.5l10 5q19 5 44 5q64 18 83 30q44 29 84 133q22 56 50 150l42 141q26 88 86.5 125t132.5 37q44 0 74 -28t30 -75zM418 655q45 6 69 51t6 74q17 11 33 4t18 -28q3 -27 -33 -61t-92 -43z" />
    <glyph glyph-name="lacute" unicode="&#x13a;" horiz-adv-x="213" 
d="M160 129q13 -37 -13 -85t-69 -48q-41 0 -64 22.5t-12 64.5q22 78 42 144q49 175 51 181q9 33 21 45q5 6 11 8l1 2h-89l1 4h131l-115 -403q-18 -64 22 -64q41 0 66 46t12 81zM119 524q45 6 69 51t6 74q17 11 33 4t18 -28q3 -27 -33 -61t-92 -43z" />
    <glyph glyph-name="Lcommaaccent" unicode="&#x13b;" horiz-adv-x="511" 
d="M212 -468q36 14 54.5 38t19.5 44q0 27 -27 27q-17 0 -25 -13q-6 6 -6 23q1 16 13 27t29 11q20 0 31 -14.5t8 -35.5q-5 -34 -31.5 -64t-64.5 -46zM570 481q0 -56 -43.5 -101.5t-94.5 -45.5q-48 0 -74.5 27t-24 59t27.5 48q14 11 29 3q-14 -26 -14.5 -56.5t15 -53
t43.5 -22.5q49 0 90 44t41 98q0 44 -28.5 71.5t-71.5 27.5q-118 0 -161 -155l-40 -140q-25 -91 -51 -149t-59.5 -91t-64 -47.5t-81.5 -28.5v-2q41 -6 79.5 -32.5t69.5 -61t61.5 -69t66.5 -61.5t72 -32q127 -19 213 72q69 72 72 170q4 103 -69 156q-41 29 -101 36
q-46 6 -94.5 -15t-69.5 -54q-16 -22 -22 -51q-12 -9 -28 1q-22 19 6 57q26 37 91 55t118 11q117 -12 158 -106q37 -84 -3 -181t-132 -137q-62 -27 -137 -19q-50 6 -100 34t-90 64.5t-78 72t-79 59t-78 22.5l10 5q19 5 44 5q64 18 83 30q44 29 84 133q22 56 50 150l42 141
q26 88 86.5 125t132.5 37q44 0 74 -28t30 -75z" />
    <glyph glyph-name="lcommaaccent" unicode="&#x13c;" horiz-adv-x="213" 
d="M13 -238q36 14 54.5 38t19.5 44q0 27 -27 27q-17 0 -25 -13q-6 6 -6 23q1 16 13 27t29 11q20 0 31 -14.5t8 -35.5q-5 -34 -31.5 -64t-64.5 -46zM160 129q13 -37 -13 -85t-69 -48q-41 0 -64 22.5t-12 64.5q22 78 42 144q49 175 51 181q9 33 21 45q5 6 11 8l1 2h-89l1 4
h131l-115 -403q-18 -64 22 -64q41 0 66 46t12 81z" />
    <glyph glyph-name="Lcaron" unicode="&#x13d;" horiz-adv-x="511" 
d="M570 481q0 -56 -43.5 -101.5t-94.5 -45.5q-48 0 -74.5 27t-24 59t27.5 48q14 11 29 3q-14 -26 -14.5 -56.5t15 -53t43.5 -22.5q49 0 90 44t41 98q0 44 -28.5 71.5t-71.5 27.5q-118 0 -161 -155l-40 -140q-25 -91 -51 -149t-59.5 -91t-64 -47.5t-81.5 -28.5v-2
q41 -6 79.5 -32.5t69.5 -61t61.5 -69t66.5 -61.5t72 -32q127 -19 213 72q69 72 72 170q4 103 -69 156q-41 29 -101 36q-46 6 -94.5 -15t-69.5 -54q-16 -22 -22 -51q-12 -9 -28 1q-22 19 6 57q26 37 91 55t118 11q117 -12 158 -106q37 -84 -3 -181t-132 -137
q-62 -27 -137 -19q-50 6 -100 34t-90 64.5t-78 72t-79 59t-78 22.5l10 5q19 5 44 5q64 18 83 30q44 29 84 133q22 56 50 150l42 141q26 88 86.5 125t132.5 37q44 0 74 -28t30 -75z" />
    <glyph glyph-name="lcaron" unicode="&#x13e;" horiz-adv-x="342" 
d="M160 129q13 -37 -13 -85t-69 -48q-41 0 -64 22.5t-12 64.5q22 78 42 144q49 175 51 181q9 33 21 45q5 6 11 8l1 2h-89l1 4h131l-115 -403q-18 -64 22 -64q41 0 66 46t12 81zM246 404q45 6 69 51t6 74q17 11 33 4t18 -28q3 -27 -33 -61t-92 -43z" />
    <glyph glyph-name="Lslash" unicode="&#x141;" horiz-adv-x="511" 
d="M-56 -37q19 5 44 5q65 19 82 29q44 28 83 126q16 42 36 106q-16 10 -56 49.5t-64 39.5q-25 0 -36.5 -17t-11.5 -38q0 -32 13 -32v-2q-8 -6 -18 -6q-11 0 -20 9t-9 26q0 31 34.5 48t70.5 17q51 0 111 -48l2 6l42 141q26 88 86.5 125t132.5 37q44 0 74 -28t30 -75
q0 -56 -43.5 -101.5t-94.5 -45.5q-28 0 -48 9l-1 -4q13 -16 13 -38q0 -39 -35.5 -67.5t-92.5 -28.5q-22 0 -28 2q-23 -65 -46.5 -107t-54.5 -67.5t-58.5 -38t-72.5 -25.5v-2q41 -6 79.5 -32.5t69.5 -61t61.5 -69t66.5 -61.5t72 -32q127 -19 213 72q69 72 72 170
q4 103 -69 156q-41 29 -101 36q-46 6 -94.5 -15t-69.5 -54q-16 -22 -22 -51q-12 -9 -28 1q-22 19 6 57q26 37 91 55t118 11q117 -12 158 -106q37 -84 -3 -181t-132 -137q-62 -27 -137 -19q-50 6 -100 34t-90 64.5t-78 72t-79 59t-78 22.5zM392 301q0 27 -23 50
q-33 23 -35 60.5t27 56.5q14 11 29 3q-14 -26 -14.5 -56.5t15 -53t43.5 -22.5q49 0 90 44t41 98q0 44 -28.5 71.5t-71.5 27.5q-118 0 -161 -155l-40 -140q-13 -44 -14 -48q27 -21 53 -21q34 0 61.5 27.5t27.5 57.5z" />
    <glyph glyph-name="lslash" unicode="&#x142;" horiz-adv-x="213" 
d="M-19 171h46q11 41 37.5 130.5t30.5 106.5q9 33 21 45q5 6 11 8l1 2h-89l1 4h131l-85 -296h48v-5h-49l-29 -102q-18 -64 22 -64q41 0 66 46t12 81l4 2q13 -37 -13 -85t-69 -48q-41 0 -64 22.5t-12 64.5q4 14 7 23q5 20 17 60h-45v5z" />
    <glyph glyph-name="Nacute" unicode="&#x143;" horiz-adv-x="818" 
d="M1052 -117q65 0 86 -61q22 -62 -17 -131q-46 -84 -146 -99l-38 -3q-75 0 -130.5 50t-86 127.5t-57.5 182t-45.5 203.5t-49 203t-68.5 169l-155 -521h103l-1 -4h-217l2 4h109l155 527q-79 133 -211 133q-109 0 -198.5 -77t-89.5 -182q0 -79 51 -132t136 -53q76 0 123.5 39
t47.5 95q0 28 -9 47q3 15 24 15q11 0 18.5 -11.5t7.5 -30.5q0 -57 -64.5 -107.5t-147.5 -50.5q-87 0 -139 54t-52 135q0 108 89.5 185.5t202.5 77.5q61 0 113 -18.5t89.5 -46.5t70 -76t53 -92t40.5 -110.5t31.5 -115.5t25.5 -122h3l137 465l2 1h-105l1 4h217l-2 -4h-109
l-141 -483q41 -223 61 -290q47 -158 131 -181q17 -4 34 -4q111 0 169 83q44 64 31 130q-12 60 -66 70q-9 2 -19 2q-42 0 -72 -34.5t-32 -74.5q-1 -14 6 -34q-16 -17 -37.5 -4.5t-15.5 41.5q8 45 51 77.5t100 32.5zM644 655q45 6 69 51t6 74q17 11 33 4t18 -28q3 -27 -33 -61
t-92 -43z" />
    <glyph glyph-name="nacute" unicode="&#x144;" horiz-adv-x="410" 
d="M179 404q45 6 69 51t6 74q17 11 33 4t18 -28q3 -27 -33 -61t-92 -43zM-3 -1q25 88 31 109q34 122 42 147q9 33 37 46q12 5 25 5l1 4h-96l1 4h108l-31 -110q23 49 60 82.5t75 33.5q33 0 55 -20.5t13 -50.5l-54 -185q-18 -64 20 -64q30 0 53 27t27 59l4 -1
q-7 -36 -29.5 -62.5t-54.5 -26.5q-40 0 -63.5 22.5t-10.5 64.5q14 42 24 81q13 44 37 119q10 33 -21 33q-43 0 -84.5 -45t-60.5 -103l-48 -169h-60z" />
    <glyph glyph-name="Ncommaaccent" unicode="&#x145;" horiz-adv-x="818" 
d="M1052 -117q65 0 86 -61q22 -62 -17 -131q-46 -84 -146 -99l-38 -3q-75 0 -130.5 50t-86 127.5t-57.5 182t-45.5 203.5t-49 203t-68.5 169l-155 -521h103l-1 -4h-217l2 4h109l155 527q-79 133 -211 133q-109 0 -198.5 -77t-89.5 -182q0 -79 51 -132t136 -53q76 0 123.5 39
t47.5 95q0 28 -9 47q3 15 24 15q11 0 18.5 -11.5t7.5 -30.5q0 -57 -64.5 -107.5t-147.5 -50.5q-87 0 -139 54t-52 135q0 108 89.5 185.5t202.5 77.5q61 0 113 -18.5t89.5 -46.5t70 -76t53 -92t40.5 -110.5t31.5 -115.5t25.5 -122h3l137 465l2 1h-105l1 4h217l-2 -4h-109
l-141 -483q41 -223 61 -290q47 -158 131 -181q17 -4 34 -4q111 0 169 83q44 64 31 130q-12 60 -66 70q-9 2 -19 2q-42 0 -72 -34.5t-32 -74.5q-1 -14 6 -34q-16 -17 -37.5 -4.5t-15.5 41.5q8 45 51 77.5t100 32.5z" />
    <glyph glyph-name="ncommaaccent" unicode="&#x146;" horiz-adv-x="409" 
d="M56 -238q36 14 54.5 38t19.5 44q0 27 -27 27q-17 0 -25 -13q-6 6 -6 23q1 16 13 27t29 11q20 0 31 -14.5t8 -35.5q-5 -34 -31.5 -64t-64.5 -46zM-3 -1q25 88 31 109q34 122 42 147q9 33 37 46q12 5 25 5l1 4h-96l1 4h108l-31 -110q23 49 60 82.5t75 33.5q33 0 55 -20.5
t13 -50.5l-54 -185q-18 -64 20 -64q30 0 53 27t27 59l4 -1q-7 -36 -29.5 -62.5t-54.5 -26.5q-40 0 -63.5 22.5t-10.5 64.5q14 42 24 81q13 44 37 119q10 33 -21 33q-43 0 -84.5 -45t-60.5 -103l-48 -169h-60z" />
    <glyph glyph-name="Ncaron" unicode="&#x147;" horiz-adv-x="818" 
d="M1052 -117q65 0 86 -61q22 -62 -17 -131q-46 -84 -146 -99l-38 -3q-75 0 -130.5 50t-86 127.5t-57.5 182t-45.5 203.5t-49 203t-68.5 169l-155 -521h103l-1 -4h-217l2 4h109l155 527q-79 133 -211 133q-109 0 -198.5 -77t-89.5 -182q0 -79 51 -132t136 -53q76 0 123.5 39
t47.5 95q0 28 -9 47q3 15 24 15q11 0 18.5 -11.5t7.5 -30.5q0 -57 -64.5 -107.5t-147.5 -50.5q-87 0 -139 54t-52 135q0 108 89.5 185.5t202.5 77.5q61 0 113 -18.5t89.5 -46.5t70 -76t53 -92t40.5 -110.5t31.5 -115.5t25.5 -122h3l137 465l2 1h-105l1 4h217l-2 -4h-109
l-141 -483q41 -223 61 -290q47 -158 131 -181q17 -4 34 -4q111 0 169 83q44 64 31 130q-12 60 -66 70q-9 2 -19 2q-42 0 -72 -34.5t-32 -74.5q-1 -14 6 -34q-16 -17 -37.5 -4.5t-15.5 41.5q8 45 51 77.5t100 32.5zM707 692h-28l-65 132h4l78 -90h9l123 90h4z" />
    <glyph glyph-name="ncaron" unicode="&#x148;" horiz-adv-x="410" 
d="M-3 -1q25 88 31 109q34 122 42 147q9 33 37 46q12 5 25 5l1 4h-96l1 4h108l-31 -110q23 49 60 82.5t75 33.5q33 0 55 -20.5t13 -50.5l-54 -185q-18 -64 20 -64q30 0 53 27t27 59l4 -1q-7 -36 -29.5 -62.5t-54.5 -26.5q-40 0 -63.5 22.5t-10.5 64.5q14 42 24 81
q13 44 37 119q10 33 -21 33q-43 0 -84.5 -45t-60.5 -103l-48 -169h-60zM237 393h-28l-65 132h4l78 -90h9l123 90h4z" />
    <glyph glyph-name="Omacron" unicode="&#x14c;" horiz-adv-x="567" 
d="M375 607q124 0 168 -108q41 -101 -2 -236q-45 -139 -148 -216q-81 -60 -177 -60q-53 0 -93 24t-60 64t-28 89t3 102.5t32.5 101.5t60.5 88t88 61q49 90 156 90zM305 369q-2 -42 -50 -42q-31 0 -48 29.5t-14.5 73t23.5 83.5q-44 -33 -74.5 -98t-40 -136t-3.5 -137
t37.5 -108.5t80.5 -42.5q103 0 188 126q76 115 94 256q17 144 -45 202q-31 28 -78 28q-87 0 -114 -82q-21 -61 1 -116q16 -41 41 -31zM315 733h222l-2 -6h-222z" />
    <glyph glyph-name="omacron" unicode="&#x14d;" 
d="M196 320q54 0 81 -30.5t27 -78.5q0 -76 -57 -145.5t-138 -69.5q-53 0 -79.5 30t-26.5 78q0 77 56 146.5t137 69.5zM196 316q-50 0 -93.5 -82.5t-43.5 -157.5q0 -76 51 -76q53 0 97 80t44 156q0 80 -55 80zM110 434h222l-2 -6h-222z" />
    <glyph glyph-name="Obreve" unicode="&#x14e;" horiz-adv-x="567" 
d="M375 607q124 0 168 -108q41 -101 -2 -236q-45 -139 -148 -216q-81 -60 -177 -60q-53 0 -93 24t-60 64t-28 89t3 102.5t32.5 101.5t60.5 88t88 61q49 90 156 90zM305 369q-2 -42 -50 -42q-31 0 -48 29.5t-14.5 73t23.5 83.5q-44 -33 -74.5 -98t-40 -136t-3.5 -137
t37.5 -108.5t80.5 -42.5q103 0 188 126q76 115 94 256q17 144 -45 202q-31 28 -78 28q-87 0 -114 -82q-21 -61 1 -116q16 -41 41 -31zM384 760q-5 -20 -5 -32q0 -40 32 -40q23 0 38.5 21.5t19.5 49.5h28q-3 -32 -28.5 -53.5t-58.5 -21.5q-26 0 -42 16t-16 40q0 11 3 20h29z
" />
    <glyph glyph-name="obreve" unicode="&#x14f;" 
d="M196 320q54 0 81 -30.5t27 -78.5q0 -76 -57 -145.5t-138 -69.5q-53 0 -79.5 30t-26.5 78q0 77 56 146.5t137 69.5zM196 316q-50 0 -93.5 -82.5t-43.5 -157.5q0 -76 51 -76q53 0 97 80t44 156q0 80 -55 80zM186 461q-5 -20 -5 -32q0 -40 32 -40q23 0 38.5 21.5t19.5 49.5
h28q-3 -32 -28.5 -53.5t-58.5 -21.5q-26 0 -42 16t-16 40q0 11 3 20h29z" />
    <glyph glyph-name="Ohungarumlaut" unicode="&#x150;" horiz-adv-x="567" 
d="M375 607q124 0 168 -108q41 -101 -2 -236q-45 -139 -148 -216q-81 -60 -177 -60q-53 0 -93 24t-60 64t-28 89t3 102.5t32.5 101.5t60.5 88t88 61q49 90 156 90zM305 369q-2 -42 -50 -42q-31 0 -48 29.5t-14.5 73t23.5 83.5q-44 -33 -74.5 -98t-40 -136t-3.5 -137
t37.5 -108.5t80.5 -42.5q103 0 188 126q76 115 94 256q17 144 -45 202q-31 28 -78 28q-87 0 -114 -82q-21 -61 1 -116q16 -41 41 -31zM301 703q45 6 69 51t6 74q17 11 33 4t18 -28q3 -27 -33 -61t-92 -43zM410 703q45 6 69 51t6 74q17 11 33 4t18 -28q3 -27 -33 -61t-92 -43
z" />
    <glyph glyph-name="ohungarumlaut" unicode="&#x151;" 
d="M196 320q54 0 81 -30.5t27 -78.5q0 -76 -57 -145.5t-138 -69.5q-53 0 -79.5 30t-26.5 78q0 77 56 146.5t137 69.5zM196 316q-50 0 -93.5 -82.5t-43.5 -157.5q0 -76 51 -76q53 0 97 80t44 156q0 80 -55 80zM122 404q45 6 69 51t6 74q17 11 33 4t18 -28q3 -27 -33 -61
t-92 -43zM231 404q45 6 69 51t6 74q17 11 33 4t18 -28q3 -27 -33 -61t-92 -43z" />
    <glyph glyph-name="OE" unicode="&#x152;" horiz-adv-x="888" 
d="M789 337h-100q-108 0 -159 -103q-2 -4 -5.5 -12.5t-4.5 -12.5q-16 -53 -13.5 -102t33.5 -84.5t80 -35.5q92 0 156.5 72.5t64.5 157.5h4q0 -86 -65.5 -160t-159.5 -74q-73 0 -115 34t-51 88q-100 -118 -238 -118q-53 0 -93 24t-60 64t-28 89t3 102.5t32.5 101.5t60.5 88
t88 61q49 90 156 90q109 0 154.5 -81.5t26.5 -197.5q60 32 124 12h20q-65 12 -82 73q-18 63 27 122q56 76 169 76q46 0 77 -21t37 -50.5t-1.5 -59t-38 -50.5t-73.5 -21l-4 3q26 7 46 29.5t26.5 50t3.5 53.5t-22.5 44t-50.5 18q-75 0 -122 -76q-41 -65 -30 -128
q14 -60 69 -62h58v-4zM305 369q-2 -42 -50 -42q-31 0 -48 29.5t-14.5 73t23.5 83.5q-44 -33 -74.5 -98t-40 -136t-3.5 -137t37.5 -108.5t80.5 -42.5q103 0 188 126q76 115 94 256q17 144 -45 202q-31 28 -78 28q-87 0 -114 -82q-21 -61 1 -116q16 -41 41 -31z" />
    <glyph glyph-name="oe" unicode="&#x153;" horiz-adv-x="537" 
d="M462 90q-13 -37 -49 -66t-79 -29q-77 0 -99 58q-54 -57 -128 -57q-83 0 -101 72q-17 68 29 146q48 83 127 102q18 4 37 4q80 0 100 -66q61 64 134 64q74 0 76 -60q0 -48 -63 -89t-148 -14q-23 -58 -14.5 -107t50.5 -49t76.5 28t47.5 65zM199 316q-50 0 -96 -84
q-46 -85 -45 -162q1 -70 50 -70q53 0 100 84q46 83 45 159q-2 73 -54 73zM433 314q-37 0 -74.5 -47t-59.5 -109q23 -7 42 -7q50 0 88.5 46t38.5 84q0 33 -35 33z" />
    <glyph glyph-name="Racute" unicode="&#x154;" horiz-adv-x="755" 
d="M452 626q-16 3 -13.5 18t20.5 22q35 13 62 -1.5t31 -38.5q5 -21 -9 -56q54 40 97 40q98 0 133 -69.5t-8.5 -157t-145.5 -131.5q25 -59 42.5 -155t29 -177.5t31.5 -159t61.5 -122.5t107.5 -45q110 0 172 90q49 70 39 143q-9 66 -64 77q-8 2 -18 2q-42 0 -72 -34.5
t-32 -74.5q-1 -14 6 -34q-16 -17 -37.5 -4.5t-15.5 41.5q8 45 51 77.5t100 32.5q65 0 83 -64q19 -66 -21 -142q-48 -89 -144 -109q-23 -5 -47 -5q-59 0 -105 22.5t-76 65t-50.5 92t-34 114t-22 120.5t-19.5 122t-22 108q-52 -13 -105 -13q-16 0 -24 1l-69 -217h69l-1 -4
h-195l2 4h68q2 7 13 42t28 90t32 103q-15 9 -21 18q-2 -35 -41 -69.5t-97 -46.5q-85 -17 -137 15.5t-63 93.5q-15 80 37.5 157.5t152.5 96.5q35 7 114.5 10.5t114.5 9.5q50 10 83.5 35t25.5 66q-5 24 -34.5 27.5t-62.5 -26.5zM428 393q11 33 25 77t16 50q-52 -23 -176 -47
q-23 -5 -65 -13q-101 -19 -155.5 -87t-41.5 -135q9 -53 58.5 -80.5t130.5 -12.5q52 9 79.5 50t20.5 77q-1 8 -7 18l9 3q14 2 20 -2q-9 38 16 70t69 32h1zM485 386q79 -21 125 -113q69 50 103 130t14.5 141.5t-87.5 61.5q-44 0 -99 -43zM559 245q-28 99 -77 130l-48 -150
q7 -1 23 -1q52 0 102 21zM382 243q19 64 45 146q-45 0 -67.5 -31.5t-12.5 -69.5q8 -8 11 -18q0 -2 0.5 -3t0.5 -3q11 -14 23 -21zM608 656q45 6 69 51t6 74q17 11 33 4t18 -28q3 -27 -33 -61t-92 -43z" />
    <glyph glyph-name="racute" unicode="&#x155;" horiz-adv-x="303" 
d="M-4 -2q25 88 31 109q34 122 42 147q15 53 60 53l1 3h-93l1 4h107l-30 -106q22 48 56 79t70 31q49 0 49 -50q0 -34 -21 -58t-50 -24q-37 0 -37 35q0 1 0.5 4t0.5 4q14 -2 16 -2q30 0 50.5 20t20.5 42q0 25 -29 25q-42 0 -80.5 -44.5t-56.5 -102.5l-48 -169h-60zM145 404
q45 6 69 51t6 74q17 11 33 4t18 -28q3 -27 -33 -61t-92 -43z" />
    <glyph glyph-name="Rcommaaccent" unicode="&#x156;" horiz-adv-x="765" 
d="M419 -238q36 14 54.5 38t19.5 44q0 27 -27 27q-17 0 -25 -13q-6 6 -6 23q1 16 13 27t29 11q20 0 31 -14.5t8 -35.5q-5 -34 -31.5 -64t-64.5 -46zM452 626q-16 3 -13.5 18t20.5 22q35 13 62 -1.5t31 -38.5q5 -21 -9 -56q54 40 97 40q98 0 133 -69.5t-8.5 -157
t-145.5 -131.5q25 -59 42.5 -155t29 -177.5t31.5 -159t61.5 -122.5t107.5 -45q110 0 172 90q49 70 39 143q-9 66 -64 77q-8 2 -18 2q-42 0 -72 -34.5t-32 -74.5q-1 -14 6 -34q-16 -17 -37.5 -4.5t-15.5 41.5q8 45 51 77.5t100 32.5q65 0 83 -64q19 -66 -21 -142
q-48 -89 -144 -109q-23 -5 -47 -5q-59 0 -105 22.5t-76 65t-50.5 92t-34 114t-22 120.5t-19.5 122t-22 108q-52 -13 -105 -13q-16 0 -24 1l-69 -217h69l-1 -4h-195l2 4h68q2 7 13 42t28 90t32 103q-15 9 -21 18q-2 -35 -41 -69.5t-97 -46.5q-85 -17 -137 15.5t-63 93.5
q-15 80 37.5 157.5t152.5 96.5q35 7 114.5 10.5t114.5 9.5q50 10 83.5 35t25.5 66q-5 24 -34.5 27.5t-62.5 -26.5zM428 393q11 33 25 77t16 50q-52 -23 -176 -47q-23 -5 -65 -13q-101 -19 -155.5 -87t-41.5 -135q9 -53 58.5 -80.5t130.5 -12.5q52 9 79.5 50t20.5 77
q-1 8 -7 18l9 3q14 2 20 -2q-9 38 16 70t69 32h1zM485 386q79 -21 125 -113q69 50 103 130t14.5 141.5t-87.5 61.5q-44 0 -99 -43zM559 245q-28 99 -77 130l-48 -150q7 -1 23 -1q52 0 102 21zM382 243q19 64 45 146q-45 0 -67.5 -31.5t-12.5 -69.5q8 -8 11 -18q0 -2 0.5 -3
t0.5 -3q11 -14 23 -21z" />
    <glyph glyph-name="rcommaaccent" unicode="&#x157;" horiz-adv-x="316" 
d="M-58 -238q36 14 54.5 38t19.5 44q0 27 -27 27q-17 0 -25 -13q-6 6 -6 23q1 16 13 27t29 11q20 0 31 -14.5t8 -35.5q-5 -34 -31.5 -64t-64.5 -46zM-4 -2q25 88 31 109q34 122 42 147q15 53 60 53l1 3h-93l1 4h107l-30 -106q22 48 56 79t70 31q49 0 49 -50q0 -34 -21 -58
t-50 -24q-37 0 -37 35q0 1 0.5 4t0.5 4q14 -2 16 -2q30 0 50.5 20t20.5 42q0 25 -29 25q-42 0 -80.5 -44.5t-56.5 -102.5l-48 -169h-60z" />
    <glyph glyph-name="Rcaron" unicode="&#x158;" horiz-adv-x="755" 
d="M452 626q-16 3 -13.5 18t20.5 22q35 13 62 -1.5t31 -38.5q5 -21 -9 -56q54 40 97 40q98 0 133 -69.5t-8.5 -157t-145.5 -131.5q25 -59 42.5 -155t29 -177.5t31.5 -159t61.5 -122.5t107.5 -45q110 0 172 90q49 70 39 143q-9 66 -64 77q-8 2 -18 2q-42 0 -72 -34.5
t-32 -74.5q-1 -14 6 -34q-16 -17 -37.5 -4.5t-15.5 41.5q8 45 51 77.5t100 32.5q65 0 83 -64q19 -66 -21 -142q-48 -89 -144 -109q-23 -5 -47 -5q-59 0 -105 22.5t-76 65t-50.5 92t-34 114t-22 120.5t-19.5 122t-22 108q-52 -13 -105 -13q-16 0 -24 1l-69 -217h69l-1 -4
h-195l2 4h68q2 7 13 42t28 90t32 103q-15 9 -21 18q-2 -35 -41 -69.5t-97 -46.5q-85 -17 -137 15.5t-63 93.5q-15 80 37.5 157.5t152.5 96.5q35 7 114.5 10.5t114.5 9.5q50 10 83.5 35t25.5 66q-5 24 -34.5 27.5t-62.5 -26.5zM428 393q11 33 25 77t16 50q-52 -23 -176 -47
q-23 -5 -65 -13q-101 -19 -155.5 -87t-41.5 -135q9 -53 58.5 -80.5t130.5 -12.5q52 9 79.5 50t20.5 77q-1 8 -7 18l9 3q14 2 20 -2q-9 38 16 70t69 32h1zM485 386q79 -21 125 -113q69 50 103 130t14.5 141.5t-87.5 61.5q-44 0 -99 -43zM559 245q-28 99 -77 130l-48 -150
q7 -1 23 -1q52 0 102 21zM382 243q19 64 45 146q-45 0 -67.5 -31.5t-12.5 -69.5q8 -8 11 -18q0 -2 0.5 -3t0.5 -3q11 -14 23 -21zM663 665h-28l-65 132h4l78 -90h9l123 90h4z" />
    <glyph glyph-name="rcaron" unicode="&#x159;" horiz-adv-x="303" 
d="M-4 -2q25 88 31 109q34 122 42 147q15 53 60 53l1 3h-93l1 4h107l-30 -106q22 48 56 79t70 31q49 0 49 -50q0 -34 -21 -58t-50 -24q-37 0 -37 35q0 1 0.5 4t0.5 4q14 -2 16 -2q30 0 50.5 20t20.5 42q0 25 -29 25q-42 0 -80.5 -44.5t-56.5 -102.5l-48 -169h-60zM211 393
h-28l-65 132h4l78 -90h9l123 90h4z" />
    <glyph glyph-name="Sacute" unicode="&#x15a;" horiz-adv-x="457" 
d="M137 242q-40 -11 -62 -52t-22 -86q0 -44 34.5 -76.5t90.5 -34.5q67 0 110 40.5t43 101.5q0 40 -23 87t-50.5 83t-50.5 80.5t-23 80.5q0 55 45 98t115 43q65 -2 99 -33.5t34 -65.5q0 -49 -29 -76t-54 -5q34 31 36 85q0 90 -85 90q-46 1 -76.5 -24t-30.5 -71
q0 -37 23.5 -82t52 -82t52 -87.5t23.5 -96.5q0 -75 -65 -122.5t-146 -47.5q-80 2 -124.5 45t-44.5 98q0 76 53 114q37 27 63 11q8 -6 12 -15zM353 656q45 6 69 51t6 74q17 11 33 4t18 -28q3 -27 -33 -61t-92 -43z" />
    <glyph glyph-name="sacute" unicode="&#x15b;" horiz-adv-x="283" 
d="M110 85q0 5 -1.5 12t-14.5 18.5t-35 11.5q-35 0 -52.5 -32.5t-1 -65t63.5 -32.5q40 0 61.5 20.5t21.5 54.5q0 30 -47 75t-47 73q0 40 38.5 70t91.5 30q39 0 56 -28t1 -55.5t-56 -27.5q-16 0 -24.5 7t-8.5 16t6 15q18 -8 32 -8q31 0 42.5 19.5t-2.5 38.5t-46 19
q-34 0 -56 -19.5t-22 -44.5q0 -23 23.5 -49.5t47 -53.5t23.5 -50q0 -42 -37.5 -74t-97.5 -32q-51 0 -68.5 36.5t5.5 73.5t71 37q21 0 34 -9.5t13 -23.5t-14 -22zM144 404q45 6 69 51t6 74q17 11 33 4t18 -28q3 -27 -33 -61t-92 -43z" />
    <glyph glyph-name="Scircumflex" unicode="&#x15c;" horiz-adv-x="457" 
d="M137 242q-40 -11 -62 -52t-22 -86q0 -44 34.5 -76.5t90.5 -34.5q67 0 110 40.5t43 101.5q0 40 -23 87t-50.5 83t-50.5 80.5t-23 80.5q0 55 45 98t115 43q65 -2 99 -33.5t34 -65.5q0 -49 -29 -76t-54 -5q34 31 36 85q0 90 -85 90q-46 1 -76.5 -24t-30.5 -71
q0 -37 23.5 -82t52 -82t52 -87.5t23.5 -96.5q0 -75 -65 -122.5t-146 -47.5q-80 2 -124.5 45t-44.5 98q0 76 53 114q37 27 63 11q8 -6 12 -15zM387 824h28l65 -132h-4l-78 90h-9l-123 -90h-4z" />
    <glyph glyph-name="scircumflex" unicode="&#x15d;" horiz-adv-x="283" 
d="M110 85q0 5 -1.5 12t-14.5 18.5t-35 11.5q-35 0 -52.5 -32.5t-1 -65t63.5 -32.5q40 0 61.5 20.5t21.5 54.5q0 30 -47 75t-47 73q0 40 38.5 70t91.5 30q39 0 56 -28t1 -55.5t-56 -27.5q-16 0 -24.5 7t-8.5 16t6 15q18 -8 32 -8q31 0 42.5 19.5t-2.5 38.5t-46 19
q-34 0 -56 -19.5t-22 -44.5q0 -23 23.5 -49.5t47 -53.5t23.5 -50q0 -42 -37.5 -74t-97.5 -32q-51 0 -68.5 36.5t5.5 73.5t71 37q21 0 34 -9.5t13 -23.5t-14 -22zM190 525h28l65 -132h-4l-78 90h-9l-123 -90h-4z" />
    <glyph glyph-name="Scedilla" unicode="&#x15e;" horiz-adv-x="457" 
d="M168 249q-53 -11 -82.5 -55.5t-29.5 -94.5q0 -44 35.5 -76.5t90.5 -32.5q67 0 109.5 42t42.5 103q0 40 -23.5 87t-51.5 82t-51.5 79.5t-23.5 80.5q0 55 44 99t115 44q64 0 98.5 -31.5t34.5 -64.5q0 -42 -33 -75t-85 -33l-6 3q33 6 55 37t22 71q0 89 -85 89
q-46 0 -76.5 -25.5t-30.5 -71.5q0 -37 24 -81.5t53.5 -81t53.5 -86.5t24 -97q0 -60 -43 -104.5t-107 -61.5l-45 -52l2 -2q17 5 26 5q23 0 39.5 -13.5t16.5 -33.5q0 -29 -24 -50.5t-69 -21.5q-16 0 -28.5 8.5t-14.5 18.5l3 2q6 -25 40 -25q27 0 43.5 22t16.5 47q0 39 -31 39
q-11 0 -19 -4l-7 8l44 50q-25 -6 -53 -6q-79 0 -124.5 43t-45.5 98q0 49 32 89t86 40q21 0 36 -4z" />
    <glyph glyph-name="scedilla" unicode="&#x15f;" horiz-adv-x="283" 
d="M110 85q0 6 -1.5 13.5t-14.5 18t-35 10.5q-35 0 -52.5 -32.5t-1 -65t63.5 -32.5q40 0 61.5 20.5t21.5 54.5q0 30 -47 75t-47 73q0 40 38.5 70t91.5 30q39 0 56 -28t1 -55.5t-56 -27.5q-16 0 -24.5 7t-8.5 16t6 15q18 -8 32 -8q31 0 42.5 19.5t-2.5 38.5t-46 19
q-34 0 -56 -19.5t-22 -44.5q0 -23 23.5 -49.5t47 -53.5t23.5 -50q0 -40 -32.5 -70.5t-87.5 -34.5l-45 -52l2 -2q17 5 26 5q23 0 39.5 -13.5t16.5 -33.5q0 -29 -24 -50.5t-69 -21.5q-16 0 -28.5 8.5t-14.5 18.5l3 2q6 -25 40 -25q27 0 43.5 22t16.5 47q0 39 -31 39
q-11 0 -19 -4l-7 8l45 52q-2 0 -5 -0.5t-4 -0.5q-51 0 -68.5 36.5t5.5 73.5t71 37q21 0 34 -9.5t13 -23.5t-14 -22z" />
    <glyph glyph-name="Scaron" unicode="&#x160;" horiz-adv-x="457" 
d="M137 242q-40 -11 -62 -52t-22 -86q0 -44 34.5 -76.5t90.5 -34.5q67 0 110 40.5t43 101.5q0 40 -23 87t-50.5 83t-50.5 80.5t-23 80.5q0 55 45 98t115 43q65 -2 99 -33.5t34 -65.5q0 -49 -29 -76t-54 -5q34 31 36 85q0 90 -85 90q-46 1 -76.5 -24t-30.5 -71
q0 -37 23.5 -82t52 -82t52 -87.5t23.5 -96.5q0 -75 -65 -122.5t-146 -47.5q-80 2 -124.5 45t-44.5 98q0 76 53 114q37 27 63 11q8 -6 12 -15zM390 663h-28l-65 132h4l78 -90h9l123 90h4z" />
    <glyph glyph-name="scaron" unicode="&#x161;" horiz-adv-x="283" 
d="M110 85q0 5 -1.5 12t-14.5 18.5t-35 11.5q-35 0 -52.5 -32.5t-1 -65t63.5 -32.5q40 0 61.5 20.5t21.5 54.5q0 30 -47 75t-47 73q0 40 38.5 70t91.5 30q39 0 56 -28t1 -55.5t-56 -27.5q-16 0 -24.5 7t-8.5 16t6 15q18 -8 32 -8q31 0 42.5 19.5t-2.5 38.5t-46 19
q-34 0 -56 -19.5t-22 -44.5q0 -23 23.5 -49.5t47 -53.5t23.5 -50q0 -42 -37.5 -74t-97.5 -32q-51 0 -68.5 36.5t5.5 73.5t71 37q21 0 34 -9.5t13 -23.5t-14 -22zM172 393h-28l-65 132h4l78 -90h9l123 90h4z" />
    <glyph glyph-name="Tcommaaccent" unicode="&#x162;" horiz-adv-x="523" 
d="M227 -238q36 14 54.5 38t19.5 44q0 27 -27 27q-17 0 -25 -13q-6 6 -6 23q1 16 13 27t29 11q20 0 30.5 -14.5t8.5 -35.5q-5 -34 -31.5 -64t-64.5 -46zM723 646q37 -3 54 -22t17 -44q0 -39 -33.5 -66.5t-102.5 -27.5q-53 0 -163 42l-149 -524h65l-1 -4h-202l1 4h78l154 547
q-165 65 -275 65q-100 0 -168 -66.5t-68 -146.5q0 -75 47.5 -127t130.5 -52q75 0 121 50.5t46 126.5q13 0 22.5 -8.5t9.5 -24.5q0 -57 -61 -102.5t-138 -45.5q-84 0 -133 53t-49 130q0 62 29 123.5t87 105.5t130 44q49 0 116.5 -29t124.5 -64t125.5 -64t119.5 -29
q46 0 74 29t28 66q-2 42 -40 59z" />
    <glyph glyph-name="tcommaaccent" unicode="&#x163;" horiz-adv-x="218" 
d="M-6 -238q36 14 54.5 38t19.5 44q0 27 -27 27q-17 0 -25 -13q-6 6 -6 23q1 16 13 27t29 11q20 0 30.5 -14.5t8.5 -35.5q-5 -34 -31.5 -64t-64.5 -46zM207 310h-73l-71 -246q-18 -64 22 -64q30 0 52.5 27t26.5 59l3 -1q-7 -36 -28.5 -62.5t-53.5 -26.5q-40 0 -63.5 22.5
t-12.5 64.5q3 10 25 87q8 25 21.5 74.5t18.5 65.5h-27l1 4h27q1 3 2.5 9.5t3.5 9.5q10 31 43.5 53.5t41.5 45.5h3l-34 -118h73z" />
    <glyph glyph-name="Tcaron" unicode="&#x164;" horiz-adv-x="523" 
d="M723 646q37 -3 54 -22t17 -44q0 -39 -33.5 -66.5t-102.5 -27.5q-53 0 -163 42l-149 -524h65l-1 -4h-202l1 4h78l154 547q-165 65 -275 65q-100 0 -168 -66.5t-68 -146.5q0 -75 47.5 -127t130.5 -52q75 0 121 50.5t46 126.5q13 0 22.5 -8.5t9.5 -24.5q0 -57 -61 -102.5
t-138 -45.5q-84 0 -133 53t-49 130q0 62 29 123.5t87 105.5t130 44q49 0 116.5 -29t124.5 -64t125.5 -64t119.5 -29q46 0 74 29t28 66q-2 42 -40 59zM502 662h-28l-65 132h4l78 -90h9l123 90h4z" />
    <glyph glyph-name="tcaron" unicode="&#x165;" horiz-adv-x="332" 
d="M207 310h-73l-71 -246q-18 -64 22 -64q30 0 52.5 27t26.5 59l3 -1q-7 -36 -28.5 -62.5t-53.5 -26.5q-40 0 -63.5 22.5t-12.5 64.5q3 10 25 87q8 25 21.5 74.5t18.5 65.5h-27l1 4h27q1 3 2.5 9.5t3.5 9.5q10 31 43.5 53.5t41.5 45.5h3l-34 -118h73zM251 404q45 6 69 51
t6 74q17 11 33 4t18 -28q3 -27 -33 -61t-92 -43z" />
    <glyph glyph-name="Utilde" unicode="&#x168;" horiz-adv-x="774" 
d="M899 556l-2 -4h-109l-97 -360q-28 -103 -85 -150t-127 -47q-61 0 -108 37t-47 107q0 34 11 68l75 248q11 38 54 74v1q-25 -14 -66.5 -26.5t-71.5 -18.5t-79.5 -14.5t-59.5 -10.5q-93 -17 -147 -78t-54 -126q0 -51 33.5 -83.5t96.5 -32.5q71 0 114 36.5t43 84.5
q0 21 -7 29q7 4 17 4q28 0 28 -33q0 -45 -58.5 -85t-135.5 -40q-72 0 -109 40.5t-37 101.5q0 90 71.5 160.5t190.5 70.5q17 0 51 -1.5t50 -1.5q36 0 71.5 6.5t69 28.5t35.5 57q0 45 -39 45q-20 0 -38 -16.5t-23 -44.5q-15 5 -15 27q0 20 15 36.5t44 16.5q25 0 42 -19t17 -43
q0 -12 -5 -24l-107 -366q-15 -51 -15 -94q0 -55 24 -86t69 -31q69 0 124.5 46t83.5 147l97 360h-103l1 4h217zM554 643q8 35 33 60t53 25q19 0 55 -20t57 -20q22 0 36.5 15t19.5 33h4q-4 -15 -12 -32.5t-28 -36.5t-44 -19q-22 0 -55.5 19.5t-53.5 19.5q-48 0 -61 -44h-4z
" />
    <glyph glyph-name="utilde" unicode="&#x169;" horiz-adv-x="394" 
d="M6 82q3 9 9.5 32t10.5 35l30 105q10 34 36 48q12 5 25 5l1 3h-95l1 4h108l-81 -281q-10 -34 21 -34q44 0 85.5 47t59.5 108q6 21 16.5 57t18 63t11.5 40h59l-72 -251q-18 -64 22 -64q31 0 51 25t27 61h4q-7 -36 -28.5 -63t-53.5 -27q-40 0 -63.5 22.5t-12.5 64.5q0 2 1 5
l5 15q-25 -47 -59.5 -77t-70.5 -30q-32 0 -54.5 25t-11.5 62zM93 360q8 35 33 60t53 25q19 0 55 -20t57 -20q22 0 36.5 15t19.5 33h4q-4 -15 -12 -32.5t-28 -36.5t-44 -19q-22 0 -55.5 19.5t-53.5 19.5q-48 0 -61 -44h-4z" />
    <glyph glyph-name="Umacron" unicode="&#x16a;" horiz-adv-x="774" 
d="M899 556l-2 -4h-109l-97 -360q-28 -103 -85 -150t-127 -47q-61 0 -108 37t-47 107q0 34 11 68l75 248q11 38 54 74v1q-25 -14 -66.5 -26.5t-71.5 -18.5t-79.5 -14.5t-59.5 -10.5q-93 -17 -147 -78t-54 -126q0 -51 33.5 -83.5t96.5 -32.5q71 0 114 36.5t43 84.5
q0 21 -7 29q7 4 17 4q28 0 28 -33q0 -45 -58.5 -85t-135.5 -40q-72 0 -109 40.5t-37 101.5q0 90 71.5 160.5t190.5 70.5q17 0 51 -1.5t50 -1.5q36 0 71.5 6.5t69 28.5t35.5 57q0 45 -39 45q-20 0 -38 -16.5t-23 -44.5q-15 5 -15 27q0 20 15 36.5t44 16.5q25 0 42 -19t17 -43
q0 -12 -5 -24l-107 -366q-15 -51 -15 -94q0 -55 24 -86t69 -31q69 0 124.5 46t83.5 147l97 360h-103l1 4h217zM552 733h222l-2 -6h-222z" />
    <glyph glyph-name="umacron" unicode="&#x16b;" horiz-adv-x="394" 
d="M6 82q3 9 9.5 32t10.5 35l30 105q10 34 36 48q12 5 25 5l1 3h-95l1 4h108l-81 -281q-10 -34 21 -34q44 0 85.5 47t59.5 108q6 21 16.5 57t18 63t11.5 40h59l-72 -251q-18 -64 22 -64q31 0 51 25t27 61h4q-7 -36 -28.5 -63t-53.5 -27q-40 0 -63.5 22.5t-12.5 64.5q0 2 1 5
l5 15q-25 -47 -59.5 -77t-70.5 -30q-32 0 -54.5 25t-11.5 62zM101 434h222l-2 -6h-222z" />
    <glyph glyph-name="Ubreve" unicode="&#x16c;" horiz-adv-x="774" 
d="M899 556l-2 -4h-109l-97 -360q-28 -103 -85 -150t-127 -47q-61 0 -108 37t-47 107q0 34 11 68l75 248q11 38 54 74v1q-25 -14 -66.5 -26.5t-71.5 -18.5t-79.5 -14.5t-59.5 -10.5q-93 -17 -147 -78t-54 -126q0 -51 33.5 -83.5t96.5 -32.5q71 0 114 36.5t43 84.5
q0 21 -7 29q7 4 17 4q28 0 28 -33q0 -45 -58.5 -85t-135.5 -40q-72 0 -109 40.5t-37 101.5q0 90 71.5 160.5t190.5 70.5q17 0 51 -1.5t50 -1.5q36 0 71.5 6.5t69 28.5t35.5 57q0 45 -39 45q-20 0 -38 -16.5t-23 -44.5q-15 5 -15 27q0 20 15 36.5t44 16.5q25 0 42 -19t17 -43
q0 -12 -5 -24l-107 -366q-15 -51 -15 -94q0 -55 24 -86t69 -31q69 0 124.5 46t83.5 147l97 360h-103l1 4h217zM621 760q-5 -20 -5 -32q0 -40 32 -40q23 0 38.5 21.5t19.5 49.5h28q-3 -32 -28.5 -53.5t-58.5 -21.5q-26 0 -42 16t-16 40q0 11 3 20h29z" />
    <glyph glyph-name="ubreve" unicode="&#x16d;" horiz-adv-x="394" 
d="M6 82q3 9 9.5 32t10.5 35l30 105q10 34 36 48q12 5 25 5l1 3h-95l1 4h108l-81 -281q-10 -34 21 -34q44 0 85.5 47t59.5 108q6 21 16.5 57t18 63t11.5 40h59l-72 -251q-18 -64 22 -64q31 0 51 25t27 61h4q-7 -36 -28.5 -63t-53.5 -27q-40 0 -63.5 22.5t-12.5 64.5q0 2 1 5
l5 15q-25 -47 -59.5 -77t-70.5 -30q-32 0 -54.5 25t-11.5 62zM182 461q-5 -20 -5 -32q0 -40 32 -40q23 0 38.5 21.5t19.5 49.5h28q-3 -32 -28.5 -53.5t-58.5 -21.5q-26 0 -42 16t-16 40q0 11 3 20h29z" />
    <glyph glyph-name="Uring" unicode="&#x16e;" horiz-adv-x="774" 
d="M899 556l-2 -4h-109l-97 -360q-28 -103 -85 -150t-127 -47q-61 0 -108 37t-47 107q0 34 11 68l75 248q11 38 54 74v1q-25 -14 -66.5 -26.5t-71.5 -18.5t-79.5 -14.5t-59.5 -10.5q-93 -17 -147 -78t-54 -126q0 -51 33.5 -83.5t96.5 -32.5q71 0 114 36.5t43 84.5
q0 21 -7 29q7 4 17 4q28 0 28 -33q0 -45 -58.5 -85t-135.5 -40q-72 0 -109 40.5t-37 101.5q0 90 71.5 160.5t190.5 70.5q17 0 51 -1.5t50 -1.5q36 0 71.5 6.5t69 28.5t35.5 57q0 45 -39 45q-20 0 -38 -16.5t-23 -44.5q-15 5 -15 27q0 20 15 36.5t44 16.5q25 0 42 -19t17 -43
q0 -12 -5 -24l-107 -366q-15 -51 -15 -94q0 -55 24 -86t69 -31q69 0 124.5 46t83.5 147l97 360h-103l1 4h217zM591 713q0 31 27.5 56t60.5 25q25 0 41 -15.5t16 -38.5q0 -33 -26.5 -58t-60.5 -25q-26 0 -42 16t-16 40zM679 790q-28 0 -44.5 -29t-16.5 -60q0 -40 32 -40
q28 0 44 29t16 62q0 38 -31 38z" />
    <glyph glyph-name="uring" unicode="&#x16f;" horiz-adv-x="394" 
d="M6 82q3 9 9.5 32t10.5 35l30 105q10 34 36 48q12 5 25 5l1 3h-95l1 4h108l-81 -281q-10 -34 21 -34q44 0 85.5 47t59.5 108q6 21 16.5 57t18 63t11.5 40h59l-72 -251q-18 -64 22 -64q31 0 51 25t27 61h4q-7 -36 -28.5 -63t-53.5 -27q-40 0 -63.5 22.5t-12.5 64.5q0 2 1 5
l5 15q-25 -47 -59.5 -77t-70.5 -30q-32 0 -54.5 25t-11.5 62zM158 441q0 31 27.5 56t60.5 25q25 0 41 -15.5t16 -38.5q0 -33 -26.5 -58t-60.5 -25q-26 0 -42 16t-16 40zM246 518q-28 0 -44.5 -29t-16.5 -60q0 -40 32 -40q28 0 44 29t16 62q0 38 -31 38z" />
    <glyph glyph-name="Uhungarumlaut" unicode="&#x170;" horiz-adv-x="774" 
d="M899 556l-2 -4h-109l-97 -360q-28 -103 -85 -150t-127 -47q-61 0 -108 37t-47 107q0 34 11 68l75 248q11 38 54 74v1q-25 -14 -66.5 -26.5t-71.5 -18.5t-79.5 -14.5t-59.5 -10.5q-93 -17 -147 -78t-54 -126q0 -51 33.5 -83.5t96.5 -32.5q71 0 114 36.5t43 84.5
q0 21 -7 29q7 4 17 4q28 0 28 -33q0 -45 -58.5 -85t-135.5 -40q-72 0 -109 40.5t-37 101.5q0 90 71.5 160.5t190.5 70.5q17 0 51 -1.5t50 -1.5q36 0 71.5 6.5t69 28.5t35.5 57q0 45 -39 45q-20 0 -38 -16.5t-23 -44.5q-15 5 -15 27q0 20 15 36.5t44 16.5q25 0 42 -19t17 -43
q0 -12 -5 -24l-107 -366q-15 -51 -15 -94q0 -55 24 -86t69 -31q69 0 124.5 46t83.5 147l97 360h-103l1 4h217zM572 703q45 6 69 51t6 74q17 11 33 4t18 -28q3 -27 -33 -61t-92 -43zM681 703q45 6 69 51t6 74q17 11 33 4t18 -28q3 -27 -33 -61t-92 -43z" />
    <glyph glyph-name="uhungarumlaut" unicode="&#x171;" horiz-adv-x="394" 
d="M6 82q3 9 9.5 32t10.5 35l30 105q10 34 36 48q12 5 25 5l1 3h-95l1 4h108l-81 -281q-10 -34 21 -34q44 0 85.5 47t59.5 108q6 21 16.5 57t18 63t11.5 40h59l-72 -251q-18 -64 22 -64q31 0 51 25t27 61h4q-7 -36 -28.5 -63t-53.5 -27q-40 0 -63.5 22.5t-12.5 64.5q0 2 1 5
l5 15q-25 -47 -59.5 -77t-70.5 -30q-32 0 -54.5 25t-11.5 62zM124 404q45 6 69 51t6 74q17 11 33 4t18 -28q3 -27 -33 -61t-92 -43zM233 404q45 6 69 51t6 74q17 11 33 4t18 -28q3 -27 -33 -61t-92 -43z" />
    <glyph glyph-name="Uogonek" unicode="&#x172;" horiz-adv-x="774" 
d="M538 -125q-33 -26 -59 -26q-34 0 -53 19.5t-19 44.5t16.5 49t45.5 33q-74 4 -119.5 58.5t-14.5 153.5l75 248q11 38 54 74v1q-15 -9 -33.5 -16.5t-46.5 -14t-40 -9.5t-50.5 -9.5t-41.5 -7.5q-23 -5 -65 -13q-100 -19 -155 -87.5t-44 -136.5q9 -53 54 -80t125 -11
q51 9 81.5 50t23.5 77q0 10 -6 18l9 3q31 5 35 -23q6 -37 -36 -77t-105 -52q-86 -17 -136.5 15.5t-59.5 93.5q-13 80 42 157.5t156 96.5q34 6 112 3.5t114 3.5q109 24 113 87q1 17 -8 31t-31 14q-20 0 -38 -16.5t-23 -44.5q-13 4 -15 23.5t13 38t46 18.5q26 0 43 -20t16 -45
q-1 -11 -6 -24l-106 -363q-28 -92 -6.5 -151.5t84.5 -59.5q69 0 124.5 46t83.5 147l97 360h-103l1 4h217l-2 -4h-109l-97 -360q-28 -100 -82 -147.5t-122 -49.5q-16 -7 -28.5 -24t-17 -36.5t-3.5 -38t11.5 -31t29.5 -12.5q30 0 56 24z" />
    <glyph glyph-name="uogonek" unicode="&#x173;" horiz-adv-x="394" 
d="M322 314l-72 -251q-18 -64 22 -64q31 0 51 25t27 61h4q-7 -34 -25.5 -60t-47.5 -29q-30 -10 -45 -45t-5.5 -66.5t39.5 -31.5t56 24l3 -2q-33 -26 -59 -26q-46 0 -63 31.5t-1 67.5t55 48q-36 2 -56 24.5t-9 61.5q0 2 1 5l5 15q-25 -47 -59.5 -77t-70.5 -30q-32 0 -54.5 25
t-11.5 62q3 9 9.5 32t10.5 35l30 105q10 34 36 48q12 5 25 5l1 3h-95l1 4h108l-81 -281q-10 -34 21 -34q44 0 85.5 47t59.5 108q6 21 16.5 57t18 63t11.5 40h59z" />
    <glyph glyph-name="Wcircumflex" unicode="&#x174;" horiz-adv-x="1179" 
d="M1396 556l-1 -4h-111l-320 -544q-27 -50 -40 -95l-3 -1q1 12 1 39q0 50 -5 127.5t-11 139.5t-12.5 125t-7.5 72l-218 -371l-3 -5l-25 -42h-1q-29 -48 -39 -84l-3 -1q15 229 15 322q0 73 -5.5 131t-20.5 113t-40 91t-65.5 58t-95.5 22q-78 0 -155.5 -39.5t-129.5 -109.5
t-52 -148q0 -66 40.5 -106.5t115.5 -40.5q85 0 141.5 48t56.5 111q0 8 -2 22q1 5 8.5 10t17.5 5q19 0 19 -30q0 -59 -76.5 -114.5t-164.5 -55.5q-76 0 -118 42t-42 109q0 79 52.5 149.5t131 111t157.5 40.5q60 0 107 -15t78 -44.5t52 -66t32 -86.5t15.5 -99t4.5 -111
q0 -57 -6 -177l239 405q34 63 34 106v10h3q2 -32 12.5 -146.5t18 -215t7.5 -157.5v-9l299 505h-102l1 4h216zM981 824h28l65 -132h-4l-78 90h-9l-123 -90h-4z" />
    <glyph glyph-name="wcircumflex" unicode="&#x175;" horiz-adv-x="513" 
d="M380 289q14 37 44 37q33 0 46 -34t10 -73q-10 -88 -99.5 -156t-207.5 -68l3 3h10q42 9 54 91q3 30 -2 64q-32 -69 -101 -113.5t-161 -44.5l2 3q51 0 62 90q4 30 -5 70.5t-5 65.5q6 38 39.5 65t72.5 31q2 -2 2 -3q-23 -4 -39 -26.5t-18 -47.5q-2 -23 6.5 -65.5t4.5 -70.5
q-10 -86 -82 -107q79 9 136.5 55.5t83.5 108.5q-5 30 -1 59q6 38 39 65t73 32q2 -2 2 -3q-22 -4 -39 -26t-19 -47q-2 -24 5 -66t3 -72q-10 -84 -82 -105q100 11 173.5 76.5t83.5 137.5q5 34 -11 56t-48 22q-18 0 -33 -7zM326 525h28l65 -132h-4l-78 90h-9l-123 -90h-4z" />
    <glyph glyph-name="Ycircumflex" unicode="&#x176;" horiz-adv-x="715" 
d="M207 219q76 0 123.5 39t47.5 95q0 28 -9 47q3 15 24 15q11 0 18.5 -11.5t7.5 -30.5q0 -57 -64.5 -107.5t-147.5 -50.5q-87 0 -139 54t-52 135q0 108 89.5 185.5t202.5 77.5q153 0 241 -102t76 -245h2l216 232h-104l1 4h217l-2 -4h-107l-223 -239q-5 -43 -17 -81l-72 -228
h69l-1 -4h-195l2 4h68l71 226q58 188 -8 310.5t-234 122.5q-110 0 -199 -77t-89 -182q0 -79 51 -132t136 -53zM682 824h28l65 -132h-4l-78 90h-9l-123 -90h-4z" />
    <glyph glyph-name="ycircumflex" unicode="&#x177;" horiz-adv-x="365" 
d="M317 315q-44 0 -98 -74.5t-104 -188.5q-31 -112 -102 -193t-166 -81q-30 0 -46 14t-16 33q0 25 17 41.5t48 16.5q20 0 32.5 -12t12.5 -28q0 -11 -6 -20q-18 45 -61 45q-18 0 -28.5 -11t-10.5 -32q0 -19 14.5 -31t42.5 -12q109 0 168.5 134t55.5 267.5t-48 133.5h-8l2 3h6
q71 0 96 -72t3 -172q48 107 99.5 175t96.5 68q52 0 52 -52q0 -23 -14.5 -40t-34.5 -17q-26 0 -26 25v3l1 2q2 -1 11 -1q23 0 37 12.5t14 30.5q0 33 -40 33zM209 525h28l65 -132h-4l-78 90h-9l-123 -90h-4z" />
    <glyph glyph-name="Ydieresis" unicode="&#x178;" horiz-adv-x="715" 
d="M207 219q76 0 123.5 39t47.5 95q0 28 -9 47q3 15 24 15q11 0 18.5 -11.5t7.5 -30.5q0 -57 -64.5 -107.5t-147.5 -50.5q-87 0 -139 54t-52 135q0 108 89.5 185.5t202.5 77.5q153 0 241 -102t76 -245h2l216 232h-104l1 4h217l-2 -4h-107l-223 -239q-5 -43 -17 -81l-72 -228
h69l-1 -4h-195l2 4h68l71 226q58 188 -8 310.5t-234 122.5q-110 0 -199 -77t-89 -182q0 -79 51 -132t136 -53zM608 763q7 32 36 32q14 0 22 -9t5 -23q-5 -31 -37 -31q-31 0 -26 31zM744 763q7 32 36 32q14 0 22 -9t5 -23q-5 -31 -37 -31q-31 0 -26 31z" />
    <glyph glyph-name="Zacute" unicode="&#x179;" horiz-adv-x="464" 
d="M-37 -13q42 45 104 56l389 414q55 60 120 31l1 1q-28 13 -80.5 45.5t-94.5 51.5t-78 19q-86 0 -133 -47t-47 -104q0 -42 28 -71t74 -33q0 -18 -11.5 -31t-28.5 -13q-31 0 -52 34t-21 84q0 33 10 64t31 59t60 45.5t90 17.5q47 0 111 -35.5l128 -71t110 -35.5q23 0 36 14
t13 33q0 34 -33 45l2 2h10q25 0 39 -12t14 -30q0 -22 -22.5 -39t-62.5 -17q-29 0 -62 13q-44 10 -96 -49l-310 -330q-53 -57 -116 -49q-2 -2 -2 -3h9q57 0 114 -25t105 -65t94.5 -88t90 -96.5t84.5 -88.5t84.5 -65t83.5 -25q66 0 111 49t45 109q0 43 -29 72.5t-68 33.5
q1 16 13 27.5t29 11.5q30 0 49 -27.5t21 -75.5q3 -74 -45 -140t-129 -66q-72 0 -132.5 25t-103.5 65t-81.5 88.5t-73.5 97.5t-72 89t-85.5 65t-104.5 25q-35 0 -69.5 -16.5t-57.5 -41.5zM542 703q45 6 69 51t6 74q17 11 33 4t18 -28q3 -27 -33 -61t-92 -43z" />
    <glyph glyph-name="zacute" unicode="&#x17a;" horiz-adv-x="363" 
d="M224 165q42 0 61.5 -20t18.5 -50q-2 -38 -31.5 -69.5t-70.5 -31.5q-28 0 -78 14t-80 14q-22 0 -39 -14.5t-22 -39.5l-3 3q7 35 30 66.5t55 34.5l209 185q-13 -5 -28 -5q-21 0 -82 7.5t-82 7.5q-8 0 -18 -2l-24 -79h-4l37 128q12 3 30 3q28 0 98.5 -9t95.5 -9q21 0 29 4
l27 24l4 -2l-286 -253q29 0 84 -19.5t86 -19.5q26 0 42 18.5t17 43.5q1 22 -10.5 38t-34.5 16q-49 0 -70 -44q-10 7 -8 20q0 15 13 27.5t34 12.5zM178 404q45 6 69 51t6 74q17 11 33 4t18 -28q3 -27 -33 -61t-92 -43z" />
    <glyph glyph-name="Zdotaccent" unicode="&#x17b;" horiz-adv-x="464" 
d="M-37 -13q42 45 104 56l389 414q55 60 120 31l1 1q-28 13 -80.5 45.5t-94.5 51.5t-78 19q-86 0 -133 -47t-47 -104q0 -42 28 -71t74 -33q0 -18 -11.5 -31t-28.5 -13q-31 0 -52 34t-21 84q0 33 10 64t31 59t60 45.5t90 17.5q47 0 111 -35.5l128 -71t110 -35.5q23 0 36 14
t13 33q0 34 -33 45l2 2h10q25 0 39 -12t14 -30q0 -22 -22.5 -39t-62.5 -17q-29 0 -62 13q-44 10 -96 -49l-310 -330q-53 -57 -116 -49q-2 -2 -2 -3h9q57 0 114 -25t105 -65t94.5 -88t90 -96.5t84.5 -88.5t84.5 -65t83.5 -25q66 0 111 49t45 109q0 43 -29 72.5t-68 33.5
q1 16 13 27.5t29 11.5q30 0 49 -27.5t21 -75.5q3 -74 -45 -140t-129 -66q-72 0 -132.5 25t-103.5 65t-81.5 88.5t-73.5 97.5t-72 89t-85.5 65t-104.5 25q-35 0 -69.5 -16.5t-57.5 -41.5zM536 799q2 14 13.5 24t25.5 10t22 -10t6 -24t-13 -23.5t-25 -9.5t-22.5 9.5t-6.5 23.5
z" />
    <glyph glyph-name="zdotaccent" unicode="&#x17c;" horiz-adv-x="363" 
d="M224 165q42 0 61.5 -20t18.5 -50q-2 -38 -31.5 -69.5t-70.5 -31.5q-28 0 -78 14t-80 14q-22 0 -39 -14.5t-22 -39.5l-3 3q7 35 30 66.5t55 34.5l209 185q-13 -5 -28 -5q-21 0 -82 7.5t-82 7.5q-8 0 -18 -2l-24 -79h-4l37 128q12 3 30 3q28 0 98.5 -9t95.5 -9q21 0 29 4
l27 24l4 -2l-286 -253q29 0 84 -19.5t86 -19.5q26 0 42 18.5t17 43.5q1 22 -10.5 38t-34.5 16q-49 0 -70 -44q-10 7 -8 20q0 15 13 27.5t34 12.5zM210 500q2 14 13.5 24t25.5 10t22 -10t6 -24t-13 -23.5t-25 -9.5t-22.5 9.5t-6.5 23.5z" />
    <glyph glyph-name="Zcaron" unicode="&#x17d;" horiz-adv-x="485" 
d="M-37 -13q42 45 104 56l389 414q55 60 120 31l1 1q-28 13 -80.5 45.5t-94.5 51.5t-78 19q-86 0 -133 -47t-47 -104q0 -42 28 -71t74 -33q0 -18 -11.5 -31t-28.5 -13q-31 0 -52 34t-21 84q0 33 10 64t31 59t60 45.5t90 17.5q47 0 111 -35.5l128 -71t110 -35.5q23 0 36 14
t13 33q0 34 -33 45l2 2h10q25 0 39 -12t14 -30q0 -22 -22.5 -39t-62.5 -17q-29 0 -62 13q-44 10 -96 -49l-310 -330q-53 -57 -116 -49q-2 -2 -2 -3h9q57 0 114 -25t105 -65t94.5 -88t90 -96.5t84.5 -88.5t84.5 -65t83.5 -25q66 0 111 49t45 109q0 43 -29 72.5t-68 33.5
q1 16 13 27.5t29 11.5q30 0 49 -27.5t21 -75.5q3 -74 -45 -140t-129 -66q-72 0 -132.5 25t-103.5 65t-81.5 88.5t-73.5 97.5t-72 89t-85.5 65t-104.5 25q-35 0 -69.5 -16.5t-57.5 -41.5zM565 662h-28l-65 132h4l78 -90h9l123 90h4z" />
    <glyph glyph-name="zcaron" unicode="&#x17e;" horiz-adv-x="363" 
d="M224 165q42 0 61.5 -20t18.5 -50q-2 -38 -31.5 -69.5t-70.5 -31.5q-28 0 -78 14t-80 14q-22 0 -39 -14.5t-22 -39.5l-3 3q7 35 30 66.5t55 34.5l209 185q-13 -5 -28 -5q-21 0 -82 7.5t-82 7.5q-8 0 -18 -2l-24 -79h-4l37 128q12 3 30 3q28 0 98.5 -9t95.5 -9q21 0 29 4
l27 24l4 -2l-286 -253q29 0 84 -19.5t86 -19.5q26 0 42 18.5t17 43.5q1 22 -10.5 38t-34.5 16q-49 0 -70 -44q-10 7 -8 20q0 15 13 27.5t34 12.5zM235 393h-28l-65 132h4l78 -90h9l123 90h4z" />
    <glyph glyph-name="florin" unicode="&#x192;" horiz-adv-x="213" 
d="M302 612q26 0 43.5 -18t17.5 -43q0 -28 -22 -52t-49 -24q-37 0 -37 29q0 2 0.5 4t0.5 4q14 -2 16 -2q31 0 52.5 19t21.5 43q0 14 -12 25t-32 11q-26 0 -47.5 -21.5t-41 -67.5t-33 -89.5t-32.5 -115.5h68l-1 -4h-68q-60 -222 -85 -290q-77 -209 -185 -237q-17 -4 -36 -4
q-38 0 -46 37q-8 38 20 66q28 27 71 16v-3q-49 14 -76 -27q-23 -34 -8 -64q11 -21 39 -21t53 16t44.5 48t35.5 68t32 89t27.5 96.5t27.5 106.5t28 103h-34l1 4h34q20 68 39 116t44.5 92.5t57.5 67t71 22.5z" />
    <glyph glyph-name="Ohorn" unicode="&#x1a0;" horiz-adv-x="567" 
d="M375 607q80 0 127 -45.5t57 -121.5q32 14 46 53t-1 63q17 11 33 4t18 -28q2 -24 -25.5 -55t-70.5 -42q9 -69 -12 -147.5t-64.5 -145.5t-114 -111t-152.5 -44q-53 0 -93 24t-60 64t-28 89t3 102.5t32.5 101.5t60.5 88t88 61q49 90 156 90zM305 369q-2 -42 -50 -42
q-31 0 -48 29.5t-14.5 73t23.5 83.5q-44 -33 -74.5 -98t-40 -136t-3.5 -137t37.5 -108.5t80.5 -42.5q103 0 188 126q76 115 94 256q17 144 -45 202q-31 28 -78 28q-87 0 -114 -82q-21 -61 1 -116q16 -41 41 -31z" />
    <glyph glyph-name="ohorn" unicode="&#x1a1;" 
d="M196 320q54 0 81 -30.5t27 -78.5v-6q28 20 38.5 54t-2.5 55q17 11 33 4t18 -28q2 -22 -23 -50t-65 -44q-7 -74 -61.5 -137t-132.5 -63q-53 0 -79.5 30t-26.5 78q0 77 56 146.5t137 69.5zM196 316q-50 0 -93.5 -82.5t-43.5 -157.5q0 -76 51 -76q53 0 97 80t44 156
q0 80 -55 80z" />
    <glyph glyph-name="Uhorn" unicode="&#x1af;" horiz-adv-x="774" 
d="M274 189q50 7 74 60l6 22l1 2q5 24 -6 41q9 6 20 6l41 135q11 38 54 74v1q-25 -14 -66.5 -26.5t-71.5 -18.5t-79.5 -14.5t-59.5 -10.5q-93 -17 -147 -78t-54 -126q0 -51 33.5 -83.5t96.5 -32.5q71 0 114 36.5t43 84.5q0 21 -7 29q7 4 17 4q28 0 28 -33q0 -45 -58.5 -85
t-135.5 -40q-72 0 -109 40.5t-37 101.5q0 90 71.5 160.5t190.5 70.5q17 0 51 -1.5t50 -1.5q36 0 71.5 6.5t69 28.5t35.5 57q0 45 -39 45q-20 0 -38 -16.5t-23 -44.5q-15 5 -15 27q0 20 15 36.5t44 16.5q25 0 42 -19t17 -43q0 -12 -5 -24l-107 -366q-15 -51 -15 -94
q0 -55 24 -86t69 -31q69 0 124.5 46t83.5 147l97 360h-103l1 4h107l-33 -121q40 8 59 50t2 71q17 11 33 4t18 -28q2 -27 -31.5 -60t-81.5 -41l-64 -239q-28 -103 -85 -150t-127 -47q-61 0 -108 37t-47 107q0 34 11 68q-25 -15 -60 -21z" />
    <glyph glyph-name="uhorn" unicode="&#x1b0;" horiz-adv-x="394" 
d="M6 82q3 9 9.5 32t10.5 35l30 105q10 34 36 48q12 5 25 5l1 3h-95l1 4h108l-81 -281q-10 -34 21 -34q44 0 85.5 47t59.5 108q6 21 16.5 57t18 63t11.5 40h59l-35 -122q39 12 59 53.5t3 68.5q17 11 33 4t18 -28q2 -26 -30.5 -58.5t-83.5 -43.5l-36 -125q-18 -64 22 -64
q31 0 51 25t27 61h4q-7 -36 -28.5 -63t-53.5 -27q-40 0 -63.5 22.5t-12.5 64.5q0 2 1 5l5 15q-25 -47 -59.5 -77t-70.5 -30q-32 0 -54.5 25t-11.5 62z" />
    <glyph glyph-name="Oslashacute" unicode="&#x1fe;" horiz-adv-x="567" 
d="M375 607q125 0 168 -109q41 -101 -3 -236q-45 -138 -147 -215q-85 -62 -185 -59l-8 -29h-5l9 29q-58 3 -98.5 36.5t-57.5 83.5t-15 111t22.5 117.5t61.5 105.5t96 73q9 38 50.5 65t111.5 27zM377 529l-167 -537q103 -5 190 121q78 112 97 253q20 145 -40 205
q-33 32 -82 32q-71 0 -98 -67q-20 -50 -2 -89q9 -21 27 -21q32 0 47 31l23 72h5zM283 418q-38 0 -57.5 27.5t-13.5 64.5q-42 -34 -71.5 -97t-39 -132t-4 -133t34 -107.5t73.5 -48.5l138 443h-4q-17 -17 -56 -17zM381 703q45 6 69 51t6 74q17 11 33 4t18 -28q3 -27 -33 -61
t-92 -43z" />
    <glyph glyph-name="oslashacute" unicode="&#x1ff;" 
d="M101 -3q-77 3 -94 75q-16 68 29 145q48 83 128 100q16 3 32 3q2 0 3 -0.5t3 -0.5l34 111q-34 -22 -74 -29l-1 3q45 6 69 51t6 74q18 10 32 4l27 88h5l-28 -90q13 -7 15 -26q5 -33 -45 -70l-35 -116q77 -5 94 -76q15 -69 -31 -145q-49 -83 -129 -99q-16 -3 -32 -3h-3
l-11 -37h-5zM110 0q53 0 99 83q45 83 42 159q-3 66 -46 73l-97 -315h2zM196 316q-49 0 -94 -84q-44 -85 -43 -162q2 -65 43 -70l98 315l-2 1h-2z" />
    <glyph glyph-name="Scommaaccent" unicode="&#x218;" horiz-adv-x="457" 
d="M112 -238q36 14 54.5 38t19.5 44q0 27 -27 27q-17 0 -25 -13q-6 6 -6 23q1 16 13 27t29 11q20 0 30.5 -14.5t8.5 -35.5q-5 -34 -31.5 -64t-64.5 -46zM137 242q-40 -11 -62 -52t-22 -86q0 -44 34.5 -76.5t90.5 -34.5q67 0 110 40.5t43 101.5q0 40 -23 87t-50.5 83
t-50.5 80.5t-23 80.5q0 55 45 98t115 43q65 -2 99 -33.5t34 -65.5q0 -49 -29 -76t-54 -5q34 31 36 85q0 90 -85 90q-46 1 -76.5 -24t-30.5 -71q0 -37 23.5 -82t52 -82t52 -87.5t23.5 -96.5q0 -75 -65 -122.5t-146 -47.5q-80 2 -124.5 45t-44.5 98q0 76 53 114q37 27 63 11
q8 -6 12 -15z" />
    <glyph glyph-name="scommaaccent" unicode="&#x219;" horiz-adv-x="283" 
d="M11 -238q36 14 54.5 38t19.5 44q0 27 -27 27q-17 0 -25 -13q-6 6 -6 23q1 16 13 27t29 11q20 0 30.5 -14.5t8.5 -35.5q-5 -34 -31.5 -64t-64.5 -46zM110 85q0 5 -1.5 12t-14.5 18.5t-35 11.5q-35 0 -52.5 -32.5t-1 -65t63.5 -32.5q40 0 61.5 20.5t21.5 54.5q0 30 -47 75
t-47 73q0 40 38.5 70t91.5 30q39 0 56 -28t1 -55.5t-56 -27.5q-16 0 -24.5 7t-8.5 16t6 15q18 -8 32 -8q31 0 42.5 19.5t-2.5 38.5t-46 19q-34 0 -56 -19.5t-22 -44.5q0 -23 23.5 -49.5t47 -53.5t23.5 -50q0 -42 -37.5 -74t-97.5 -32q-51 0 -68.5 36.5t5.5 73.5t71 37
q21 0 34 -9.5t13 -23.5t-14 -22z" />
    <glyph glyph-name="circumflex" unicode="&#x2c6;" horiz-adv-x="273" 
d="M145 525h28l65 -132h-4l-78 90h-9l-123 -90h-4z" />
    <glyph glyph-name="caron" unicode="&#x2c7;" horiz-adv-x="292" 
d="M108 393h-28l-65 132h4l78 -90h9l123 90h4z" />
    <glyph glyph-name="breve" unicode="&#x2d8;" horiz-adv-x="218" 
d="M74 461q-5 -20 -5 -32q0 -40 32 -40q23 0 38.5 21.5t19.5 49.5h28q-3 -32 -28.5 -53.5t-58.5 -21.5q-26 0 -42 16t-16 40q0 11 3 20h29z" />
    <glyph glyph-name="dotaccent" unicode="&#x2d9;" horiz-adv-x="292" 
d="M121 500q2 14 13.5 24t25.5 10t22 -10t6 -24t-13 -23.5t-25 -9.5t-22.5 9.5t-6.5 23.5z" />
    <glyph glyph-name="ring" unicode="&#x2da;" horiz-adv-x="238" 
d="M42 441q0 31 27.5 56t60.5 25q25 0 41 -15.5t16 -38.5q0 -33 -26.5 -58t-60.5 -25q-26 0 -42 16t-16 40zM130 518q-28 0 -44.5 -29t-16.5 -60q0 -40 32 -40q28 0 44 29t16 62q0 38 -31 38z" />
    <glyph glyph-name="ogonek" unicode="&#x2db;" horiz-adv-x="246" 
d="M196 -126q-33 -26 -59 -26q-54 0 -68 44q-13 41 17 76q26 30 68 30l1 -1q-31 -8 -48.5 -43.5t-9.5 -68.5t40 -33q30 0 56 24z" />
    <glyph glyph-name="tilde" unicode="&#x2dc;" horiz-adv-x="300" 
d="M21 409q8 35 33 60t53 25q19 0 55 -20t57 -20q22 0 36.5 15t19.5 33h4q-4 -15 -12 -32.5t-28 -36.5t-44 -19q-22 0 -55.5 19.5t-53.5 19.5q-48 0 -61 -44h-4z" />
    <glyph glyph-name="hungarumlaut" unicode="&#x2dd;" horiz-adv-x="360" 
d="M62 404q45 6 69 51t6 74q17 11 33 4t18 -28q3 -27 -33 -61t-92 -43zM171 404q45 6 69 51t6 74q17 11 33 4t18 -28q3 -27 -33 -61t-92 -43z" />
    <glyph glyph-name="gravecomb" unicode="&#x300;" horiz-adv-x="174" 
d="M157 401q-54 9 -81 41.5t-24 62.5q2 21 18 28t33 -4q-10 -20 -10 -46.5t17.5 -50.5t47.5 -28z" />
    <glyph glyph-name="acutecomb" unicode="&#x301;" horiz-adv-x="164" 
d="M33 404q45 6 69 51t6 74q17 11 33 4t18 -28q3 -27 -33 -61t-92 -43z" />
    <glyph glyph-name="tildecomb" unicode="&#x303;" horiz-adv-x="300" 
d="M21 409q8 35 33 60t53 25q19 0 55 -20t57 -20q22 0 36.5 15t19.5 33h4q-4 -15 -12 -32.5t-28 -36.5t-44 -19q-22 0 -55.5 19.5t-53.5 19.5q-48 0 -61 -44h-4z" />
    <glyph glyph-name="hookabovecomb" unicode="&#x309;" horiz-adv-x="477" 
d="M223 586h-6q-8 0 -13 8t-5 17q-2 19 17.5 35.5t46.5 16.5q20 0 32 -12.5t14 -32.5q1 -30 -19.5 -54t-45 -36t-45 -26t-19.5 -28q0 -21 19 -21q11 0 18.5 8.5t7.5 18.5q0 14 -8 19q0 8 10 8q14 0 14 -17q0 -15 -12.5 -27t-29.5 -12q-21 0 -21 23q-1 22 18.5 42.5
t43.5 33.5t44.5 33t20.5 41q-5 37 -42 37q-22 0 -33 -16t-11 -36q0 -11 6 -21z" />
    <glyph glyph-name="dotbelowcomb" unicode="&#x323;" horiz-adv-x="292" 
d="M83 -82q2 14 13.5 24t25.5 10t22 -10t6 -24t-13 -23.5t-25 -9.5t-22.5 9.5t-6.5 23.5z" />
    <glyph glyph-name="Wgrave" unicode="&#x1e80;" horiz-adv-x="1179" 
d="M1396 556l-1 -4h-111l-320 -544q-27 -50 -40 -95l-3 -1q1 12 1 39q0 50 -5 127.5t-11 139.5t-12.5 125t-7.5 72l-218 -371l-3 -5l-25 -42h-1q-29 -48 -39 -84l-3 -1q15 229 15 322q0 73 -5.5 131t-20.5 113t-40 91t-65.5 58t-95.5 22q-78 0 -155.5 -39.5t-129.5 -109.5
t-52 -148q0 -66 40.5 -106.5t115.5 -40.5q85 0 141.5 48t56.5 111q0 8 -2 22q1 5 8.5 10t17.5 5q19 0 19 -30q0 -59 -76.5 -114.5t-164.5 -55.5q-76 0 -118 42t-42 109q0 79 52.5 149.5t131 111t157.5 40.5q60 0 107 -15t78 -44.5t52 -66t32 -86.5t15.5 -99t4.5 -111
q0 -57 -6 -177l239 405q34 63 34 106v10h3q2 -32 12.5 -146.5t18 -215t7.5 -157.5v-9l299 505h-102l1 4h216zM1006 700q-54 9 -81 41.5t-24 62.5q2 21 18 28t33 -4q-10 -20 -10 -46.5t17.5 -50.5t47.5 -28z" />
    <glyph glyph-name="wgrave" unicode="&#x1e81;" horiz-adv-x="513" 
d="M380 289q14 37 44 37q33 0 46 -34t10 -73q-10 -88 -99.5 -156t-207.5 -68l3 3h10q42 9 54 91q3 30 -2 64q-32 -69 -101 -113.5t-161 -44.5l2 3q51 0 62 90q4 30 -5 70.5t-5 65.5q6 38 39.5 65t72.5 31q2 -2 2 -3q-23 -4 -39 -26.5t-18 -47.5q-2 -23 6.5 -65.5t4.5 -70.5
q-10 -86 -82 -107q79 9 136.5 55.5t83.5 108.5q-5 30 -1 59q6 38 39 65t73 32q2 -2 2 -3q-22 -4 -39 -26t-19 -47q-2 -24 5 -66t3 -72q-10 -84 -82 -105q100 11 173.5 76.5t83.5 137.5q5 34 -11 56t-48 22q-18 0 -33 -7zM347 401q-54 9 -81 41.5t-24 62.5q2 21 18 28t33 -4
q-10 -20 -10 -46.5t17.5 -50.5t47.5 -28z" />
    <glyph glyph-name="Wacute" unicode="&#x1e82;" horiz-adv-x="1179" 
d="M1396 556l-1 -4h-111l-320 -544q-27 -50 -40 -95l-3 -1q1 12 1 39q0 50 -5 127.5t-11 139.5t-12.5 125t-7.5 72l-218 -371l-3 -5l-25 -42h-1q-29 -48 -39 -84l-3 -1q15 229 15 322q0 73 -5.5 131t-20.5 113t-40 91t-65.5 58t-95.5 22q-78 0 -155.5 -39.5t-129.5 -109.5
t-52 -148q0 -66 40.5 -106.5t115.5 -40.5q85 0 141.5 48t56.5 111q0 8 -2 22q1 5 8.5 10t17.5 5q19 0 19 -30q0 -59 -76.5 -114.5t-164.5 -55.5q-76 0 -118 42t-42 109q0 79 52.5 149.5t131 111t157.5 40.5q60 0 107 -15t78 -44.5t52 -66t32 -86.5t15.5 -99t4.5 -111
q0 -57 -6 -177l239 405q34 63 34 106v10h3q2 -32 12.5 -146.5t18 -215t7.5 -157.5v-9l299 505h-102l1 4h216zM913 703q45 6 69 51t6 74q17 11 33 4t18 -28q3 -27 -33 -61t-92 -43z" />
    </font>
</defs>
</svg>
