<?xml version="1.0" standalone="no"?>
<!DOCTYPE svg PUBLIC "-//W3C//DTD SVG 1.1//EN" "http://www.w3.org/Graphics/SVG/1.1/DTD/svg11.dtd" >
<svg xmlns="http://www.w3.org/2000/svg" xmlns:xlink="http://www.w3.org/1999/xlink" version="1.1">
<metadata>
Created by FontForge 20170731 at Sat Sep  7 20:37:29 2013
 By Aleksey,,,
Copyright (c) 2013 by THType (melodylife195@gmail.com). All rights reserved.
</metadata>
<defs>
<font id="UVFBallantinesScriptEF" horiz-adv-x="500" >
  <font-face 
    font-family="UVF BallantinesScriptEF"
    font-weight="400"
    font-stretch="normal"
    units-per-em="1000"
    panose-1="2 0 5 5 8 0 0 2 0 2"
    ascent="800"
    descent="-200"
    x-height="333"
    cap-height="670"
    bbox="-560 -256 1393 1142"
    underline-thickness="20"
    underline-position="-222"
    unicode-range="U+0005-2122"
  />
<missing-glyph horiz-adv-x="333" 
 />
    <glyph glyph-name=".notdef" horiz-adv-x="333" 
 />
    <glyph glyph-name=".null" horiz-adv-x="0" 
 />
    <glyph glyph-name="nonmarkingreturn" horiz-adv-x="333" 
 />
    <glyph glyph-name="breve" 
d="M360 597q0 -42 -50 -93.5t-108 -41.5q-61 10 -61 89q0 59 17 59q3 0 5 -22t12.5 -45.5t32.5 -25.5q31 -3 59 10t43.5 31t27.5 33t14 15q8 0 8 -9z" />
    <glyph glyph-name="dotaccent" 
d="M305 574q0 -26 -25 -51.5t-51 -25.5q-34 0 -34 33q0 26 25 51.5t51 25.5q15 0 24.5 -9t9.5 -24z" />
    <glyph glyph-name="ring" 
d="M290 555q0 16 -11 28t-28 12q-18 0 -30.5 -11.5t-12.5 -29.5q0 -17 12.5 -28.5t30.5 -11.5q17 0 28 12t11 29zM320 554q0 -29 -20.5 -48.5t-48.5 -19.5q-30 0 -50.5 19.5t-20.5 48.5t20.5 49.5t49.5 20.5t49.5 -20.5t20.5 -49.5z" />
    <glyph glyph-name="hungarumlaut" unicode="&#xa;" 
d="M308 604q-50 -55 -126 -104q-44 -28 -62 -38q-68 -34 -71 -34q-4 0 -4 4q0 7 13 10q12 4 50 35q3 2 15.5 12l17.5 14t16.5 14t17 16t14.5 15.5t14 17.5t10 18t8 20h87zM455 604q-56 -59 -126 -104q-5 -3 -27.5 -17.5t-34.5 -20.5q-53 -25 -57 -28q-8 -6 -14 -6q-5 0 -5 4
q0 6 14 10q23 8 50 35q66 53 86 78q19 22 27 49h87z" />
    <glyph glyph-name="ogonek" 
d="M360 -50q0 -43 -48.5 -69t-96.5 -26q-26 0 -51 9t-25 30q0 14 9 21.5t22 7.5q22 0 22 -15q0 -4 -6 -8.5t-7 -7.5v-5q0 -19 31 -19q32 0 67 29t35 60q0 28 -34 43h34q1 0 13 -4q35 -13 35 -46z" />
    <glyph glyph-name="caron" 
d="M359 596q0 -8 -19 -23q-17 -14 -68 -60q-2 -2 -35.5 -33.5t-45.5 -38.5q-6 -2 -8 -2h-17q-25 0 -25 14q0 2 2 10q3 9 10 37q1 4 8 26.5t12 34.5q6 14 7 23q3 13 8 13t5 -6v-9q0 -6 -1.5 -15t-1.5 -15q0 -4 -0.5 -14t-0.5 -14q0 -24 8 -24t28 13t44.5 30.5t30.5 21.5
q31 20 35 23q12 12 21 12q3 -3 3 -4z" />
    <glyph glyph-name="dotlessi" unicode="&#xd;" horiz-adv-x="207" 
d="M155 192q0 -10 -20 -34.5t-46.5 -51.5t-28.5 -30q-80 -86 -132 -86q-27 0 -45 13.5t-18 39.5q0 34 35 87l101 150q17 22 17 36q0 2 -3 17h85q1 -3 1 -14q0 -14 -20 -40l-116 -172q-26 -41 -26 -64q0 -24 16 -24q39 0 162 132q21 24 24 31q1 1 2.5 5t3.5 6t5 2t3 -3z" />
    <glyph glyph-name="fraction" horiz-adv-x="102" 
d="M350 609q0 -10 -59.5 -65t-84.5 -75q-164 -144 -233 -200q-10 -8 -45.5 -36.5t-54.5 -44.5q-12 -10 -48.5 -40.5t-55.5 -47.5t-46 -43.5t-46 -48.5q-7 -8 -24 -8q-12 0 -12 6q0 10 24 34q63 60 118 104q81 65 190 148q38 28 77 64q48 40 70 62q14 14 41.5 41t41.5 41
q13 12 39 34.5t38 34.5q6 5 16 16t15 16q11 12 29 12q1 1 4 1q6 0 6 -5z" />
    <glyph glyph-name="fi" horiz-adv-x="399" 
d="M480 639q0 -15 -16.5 -32t-32.5 -17q-2 2 -2 3v4q0 3 3 9t3 9q0 12 -8.5 19.5t-20.5 7.5q-48 0 -102 -58q-17 -18 -34.5 -39.5t-29.5 -38t-31 -45t-26.5 -40.5t-28.5 -46.5t-26 -41.5h164q1 -3 1 -14q0 -10 -19 -40l-116 -172q-27 -43 -27 -64q0 -24 16 -24q39 0 162 132
q20 23 24 31q1 1 2.5 5t3.5 6t5 2q4 0 4 -3q0 -9 -20 -33.5t-46.5 -52t-29.5 -30.5q-81 -86 -132 -86q-27 0 -45 13.5t-18 39.5q0 34 35 87l101 150q17 27 17 35v4h-90q-25 -37 -92.5 -140t-105.5 -159q-3 -4 -24.5 -35t-28.5 -40l-24.5 -31.5t-32.5 -37.5t-32 -28
q-38 -32 -95 -55.5t-102 -23.5h-24q-9 0 -25 2q-24 3 -45 15t-21 33q0 15 13 26.5t28 11.5q24 0 24 -18q0 -6 -7.5 -13.5t-7.5 -14.5q0 -18 21.5 -25.5t42.5 -7.5q54 0 112 47q49 41 110 138q59 94 113 173q41 61 121 183h-75l7 14h78q44 68 69.5 104.5t71 85t94.5 81.5
q86 56 151 56q46 0 46 -21zM425 578q0 -27 -23 -52.5t-49 -25.5q-17 0 -27 10.5t-10 27.5q0 24 26.5 46.5t51.5 22.5q31 0 31 -29z" />
    <glyph glyph-name="fl" horiz-adv-x="397" 
d="M435 615q0 12 -8.5 19.5t-20.5 7.5q-48 0 -102 -58q-17 -18 -34.5 -39.5t-29.5 -38t-31 -45t-26.5 -40.5t-28.5 -46.5t-26 -41.5h95l146 217q12 19 12 28q0 2 -3 14h51q-2 4 2 12t4 11zM480 639q0 -16 -12.5 -28.5t-29.5 -18.5h18q2 -14 2 -15q0 -15 -15 -39l-284 -420
q-28 -44 -28 -70q0 -24 22 -24q31 0 95 61.5t83 97.5q7 12 13 12q2 0 4 -2q0 -4 -6.5 -13.5t-15.5 -20.5t-10 -13q-12 -16 -30 -34q-3 -3 -18.5 -19t-23 -23t-24 -22t-27.5 -23t-26 -17.5t-28.5 -13.5t-26.5 -4q-27 0 -42.5 15.5t-15.5 42.5q0 38 37 91l121 180h-92
q-25 -37 -92.5 -140t-105.5 -159q-3 -4 -24.5 -35t-28.5 -40l-24.5 -31.5t-32.5 -37.5t-32 -28q-38 -32 -95 -55.5t-102 -23.5h-24q-9 0 -25 2q-24 3 -45 15t-21 33q0 15 13 26.5t28 11.5q24 0 24 -18q0 -6 -7.5 -13.5t-7.5 -14.5q0 -18 21.5 -25.5t42.5 -7.5q54 0 112 47
q49 41 110 138q59 94 113 173q41 61 121 183h-75l7 14h78q44 68 69.5 104.5t71 85t94.5 81.5q86 56 151 56q46 0 46 -21z" />
    <glyph glyph-name="Lslash" horiz-adv-x="760" 
d="M182 65q-68 36 -131 36q-30 0 -58 -12.5t-28 -38.5q0 -22 20 -32.5t44 -10.5q41 0 92 20q39 16 61 38zM806 630q0 31 -31 31q-61 0 -135 -89q-97 -118 -166 -249q18 4 42 10q24 8 64.5 33t64.5 45q54 42 107.5 107t53.5 112zM839 623q0 -39 -35 -88t-75 -84
q-96 -86 -269 -149q-9 -14 -25.5 -39t-20.5 -31l125 32l-14 -21l-126 -32q-6 -9 -13 -18.5t-12.5 -16t-15 -16.5t-13.5 -15t-16 -16t-14.5 -14t-16.5 -15.5t-16 -14.5q141 -64 207 -64q74 0 119 72q16 23 29.5 56t13.5 56q0 11 -5 29.5t-5 21.5l1 2q11 -2 20.5 -29.5
t9.5 -42.5q0 -85 -72 -138.5t-160 -53.5q-33 0 -75.5 10t-62.5 17t-73 26q-120 -51 -190 -51q-15 0 -32.5 2.5t-37.5 8t-33 18t-13 28.5q0 18 21 32t51 20.5t55 9.5t42 3q25 0 129 -17q59 59 68 82l-109 -28l13 21l110 28q22 33 46 80q-14 -2 -23 -2h-23q-70 0 -123.5 35.5
t-53.5 101.5q0 58 43 107.5t103 75.5t117 26q59 0 59 -15q0 -8 -6 -8q-5 0 -10 4q-17 8 -50 8q-72 0 -132.5 -54t-60.5 -126q0 -67 56 -105q42 -27 119 -27q5 8 25 39t28 43t26 38t30 41.5t29 35.5t33 36q53 53 120 92.5t127 39.5q57 0 57 -47z" />
    <glyph glyph-name="lslash" horiz-adv-x="205" 
d="M266 577q0 -15 -15 -39l-117 -173l81 25l-12 -23l-85 -26l-151 -223q-29 -46 -29 -70t22 -24q11 0 26 8t24 15t26 22.5t18 16.5q71 71 85 97q7 12 13 12q3 0 3 -2q0 -9 -23.5 -37.5t-38.5 -43.5q-113 -122 -173 -122q-27 0 -42.5 15.5t-15.5 42.5q0 38 37 91l115 171
l-82 -25l13 23l85 26l146 216q13 18 13 28q0 7 -4 14h79q2 -14 2 -15z" />
    <glyph glyph-name="Zcaron" horiz-adv-x="749" 
d="M888 650q0 -6 -2.5 -12t-8.5 -11t-11 -8.5t-14.5 -7.5t-13.5 -6t-13.5 -5.5t-10.5 -3.5q-54 -18 -160 -20q-65 -68 -127 -153q-118 -163 -160 -211q-52 -58 -125 -117q157 -66 231 -66q46 0 90 41q30 28 58 80.5t28 88.5q0 5 -2.5 15t-2.5 15q0 2 2 4q12 0 18 -22.5
t6 -39.5q0 -66 -52 -120t-121 -78q-55 -19 -108 -19q-39 0 -80.5 9t-67.5 19t-75 30q-109 -49 -190 -49q-36 0 -70 10t-34 38q0 23 21.5 39.5t54 24t59 10.5t47.5 3q41 0 127 -16q52 43 80 73q48 52 137 176q49 67 74 96q44 49 124 124q-15 2 -62 11t-78.5 13t-62.5 4
q-55 0 -110 -17t-98 -58t-43 -98q0 -30 14.5 -50t42.5 -20q10 0 21.5 5t13.5 5q5 0 5 -8q0 -20 -19 -33.5t-40 -13.5q-31 0 -48 25.5t-17 58.5q0 52 47 117q47 64 118.5 105t145.5 41q48 0 224 -44q114 54 180 54q17 0 37.5 -7t20.5 -21zM126 70q-80 37 -134 37
q-27 0 -53 -12t-26 -37q0 -22 20 -32.5t45 -10.5q71 0 148 55zM842 892q0 -8 -19 -23q-17 -14 -68 -60q-2 -2 -35.5 -33.5t-45.5 -38.5q-6 -2 -8 -2h-17q-25 0 -25 14q0 2 2 10q3 9 10 37q1 4 8 26.5t12 34.5q6 14 7 23q3 13 8 13t5 -6v-9q0 -6 -1.5 -15.5t-1.5 -14.5
q0 -4 -0.5 -14t-0.5 -14q0 -24 8 -24t28 13t44.5 30.5t30.5 21.5q31 20 35 23q12 12 21 12q3 -3 3 -4zM854 642q0 13 -11.5 20t-25.5 7q-33 0 -67 -15t-55 -39q20 -11 64 -11q95 0 95 38z" />
    <glyph glyph-name="zcaron" horiz-adv-x="348" 
d="M320 335q0 -2 -2.5 -4.5t-6 -4.5t-4.5 -3q-23 -16 -38 -31q-3 -3 -32 -37q-17 -22 -52 -51q-50 -46 -79 -63.5t-92 -39.5q-90 -30 -138 -78q75 25 105 25q20 0 56.5 -10t59.5 -10q36 0 65 24q25 20 67 64.5t51 63.5q1 1 2 3t1.5 3.5t2 3t3 2.5t3.5 1q4 0 4 -5t-7 -15.5
t-16.5 -21.5t-11.5 -13q-22 -25 -61 -68q-38 -41 -70.5 -60.5t-79.5 -19.5q-37 0 -80 8q-38 8 -68 8q-31 0 -48 -8q-7 -5 -13 -5q-8 0 -8 7q0 4 34 38q50 59 130 115.5t153 84.5q2 0 18 6.5t17 6.5q47 19 66 48q-51 -23 -118 -23q-6 0 -18.5 1t-19.5 1q-96 0 -146 -90
q-8 -8 -9 -8q-4 0 -4 4t6.5 14.5t15 23t9.5 13.5q10 13 44 58q36 48 129 48q27 0 77 -13q5 -1 55 -1q10 0 20 7t15 7q3 0 4 -1q9 0 9 -5zM396 596q0 -8 -19 -23q-17 -14 -68 -60q-2 -2 -35.5 -33.5t-45.5 -38.5q-6 -2 -8 -2h-17q-25 0 -25 14q0 2 2 10q3 9 10 37q1 4 8 26.5
t12 34.5q6 14 7 23q3 13 8 13t5 -6v-9q0 -6 -1.5 -15t-1.5 -15q0 -4 -0.5 -14t-0.5 -14q0 -24 8 -24t28 13t44.5 30.5t30.5 21.5q31 20 35 23q12 12 21 12q3 -3 3 -4z" />
    <glyph glyph-name="space" unicode=" " horiz-adv-x="207" 
 />
    <glyph glyph-name="space" unicode="&#xa0;" horiz-adv-x="207" 
 />
    <glyph glyph-name="exclam" unicode="!" horiz-adv-x="265" 
d="M4 61q0 -23 -22 -48t-45 -25q-30 0 -30 31q0 25 21 49t46 24q30 0 30 -31zM336 555q0 -28 -27.5 -72.5t-56.5 -78t-73.5 -80t-53.5 -57.5q-3 -3 -32.5 -38.5t-31.5 -37.5q-7 -10 -19.5 -29.5t-20.5 -29.5q-8 -11 -14 -11q-3 0 -3 4q4 9 13.5 22.5t11.5 16.5
q7 12 21.5 36.5t21.5 36.5q18 30 64 119t79 134q1 2 8 11.5t12 16t13.5 16.5t15.5 17.5t15 14.5t16 10.5t14 3.5q27 0 27 -25z" />
    <glyph glyph-name="quotedbl" unicode="&#x22;" horiz-adv-x="382" 
d="M141 400h-38l197 267h48zM260 400h-38l197 267h47z" />
    <glyph glyph-name="numbersign" unicode="#" horiz-adv-x="610" 
d="M259 415l-66 -150h151l65 150h-150zM577 415h-112l-65 -150h112l-23 -50h-112l-95 -215h-56l95 215h-151l-94 -215h-57l95 215h-114l22 50h115l65 150h-114l22 50h115l89 202h56l-89 -202h150l90 202h56l-89 -202h112z" />
    <glyph glyph-name="dollar" unicode="$" horiz-adv-x="709" 
d="M481 203q0 45 -26 107l-196 -307q47 2 70 6q62 12 107 71t45 123zM640 660q-20 5 -37 5q-37 0 -77 -38q-46 -41 -46 -116q0 -33 16 -81zM741 578q0 -53 -41 -98t-93 -45q-20 0 -25 10q0 4 6 4q3 0 8.5 -1t10 -1.5t8.5 -0.5q16 0 35 16t32 33q21 34 21 77q0 26 -7.5 41
t-28.5 33l-160 -252q1 -2 8.5 -20.5t9.5 -23.5t8.5 -21.5t8.5 -24.5l5.5 -22t5 -25t1.5 -22q0 -48 -14 -81t-48 -67q-39 -41 -101 -68q-56 -25 -143 -33l-33 -59h-36l37 59q-84 2 -137 47.5t-53 127.5q0 100 79 174.5t180 74.5q44 0 72 -24t28 -67q0 -30 -13 -61t-36 -47
l-39 -27q-5 -5 -16 -5q-6 0 -6 3t3.5 5.5t8.5 4.5t6 3q21 10 32 31q22 39 22 75q0 42 -26 66.5t-68 24.5q-75 0 -126 -62.5t-51 -138.5q0 -71 42 -125t111 -60l212 337q-42 79 -42 138q0 92 80 150.5t172 48.5l41 59h35l-44 -68q58 -31 58 -93z" />
    <glyph glyph-name="percent" unicode="%" horiz-adv-x="612" 
d="M416 206q0 32 -27 32q-41 0 -102 -73.5t-61 -117.5q0 -33 32 -33q45 0 101.5 72t56.5 120zM435 196q0 -28 -19 -64t-42 -62q-69 -75 -145 -75q-32 0 -46.5 13.5t-14.5 44.5q0 62 75 129t137 67q55 0 55 -53zM373 551q0 11 -8.5 17t-19.5 6q-44 0 -108.5 -76t-64.5 -122
q0 -14 9 -24t23 -10q32 0 65 28.5t56 63.5q-5 13 -5 21q0 40 50 80q3 7 3 16zM636 575q0 -4 -19 -23q-184 -162 -359 -296q-19 -14 -60.5 -45.5t-65 -49t-57 -44.5t-60.5 -51q-15 -13 -64 -62q-7 -7 -19 -7q-15 0 -15 7q0 11 50.5 53.5t108.5 86t114 84t57 41.5
q16 11 44 32.5t35 26.5q87 70 139 120q-3 -2 -14 -7.5t-15.5 -8t-14 -6.5t-16 -6t-15 -3.5t-16.5 -1.5q-18 0 -32 7q-88 -105 -168 -105q-63 0 -63 57q0 73 78.5 141t152.5 68q49 0 49 -44q0 -31 -36 -101q16 -9 26 -9q51 0 140 69q45 36 46 37l33 32q16 13 29 13q7 0 7 -5z
" />
    <glyph glyph-name="ampersand" unicode="&#x26;" horiz-adv-x="608" 
d="M597 331q0 -41 -42 -66.5t-85 -25.5q-31 0 -56 4q8 -32 8 -49q0 -67 -51.5 -114.5t-122.5 -67.5q-55 -16 -119 -16q-78 0 -134 32t-56 103q0 54 39 101q26 34 60.5 58t80 39t77 22t86.5 16q-2 1 -15 5t-16.5 5.5t-15 6t-15 7.5t-12 8t-11.5 10.5t-7.5 12.5t-6 15.5
t-1.5 18.5q0 44 41.5 76t93.5 47q46 11 88 11q48 0 92 -19t44 -60q0 -32 -35 -50t-71 -18h-8q-8 0 -22 3t-14 7q0 3 6 3q1 0 4 -0.5t5 -0.5q1 -1 6 -1q30 0 55.5 18t25.5 46q0 60 -82 60q-56 0 -111 -37t-55 -91q0 -81 107 -81h13q9 0 9 -6t-19 -6q-4 0 -9 0.5t-8 0.5h-4
q-76 0 -142 -25q-65 -24 -117 -79.5t-52 -118.5q0 -62 42.5 -91.5t106.5 -29.5q73 0 136.5 45t63.5 115q0 41 -27.5 64.5t-68.5 23.5q-31 0 -57 -14t-26 -42q0 -9 4.5 -16.5t4.5 -8.5q0 -4 -8 -4q-7 0 -11.5 12t-4.5 20q0 45 45.5 67t95.5 22q32 0 96 -13.5t96 -13.5
q28 0 50.5 14t22.5 41q0 19 6 19q7 0 7 -14z" />
    <glyph glyph-name="quotesingle" unicode="'" horiz-adv-x="263" 
d="M141 400h-38l197 267h48z" />
    <glyph glyph-name="parenleft" unicode="(" horiz-adv-x="356" 
d="M509 667q0 -3 -14.5 -13t-20.5 -12q-12 -7 -26.5 -18t-23 -19t-25 -24t-21.5 -20q-72 -67 -137 -155q-61 -81 -125 -201t-64 -186v-15q0 -9 -6 -9q-18 0 -18 72q0 88 37 166q57 123 145 217t213 174q4 3 19 13t24 14q2 2 19 10.5t20 8.5q4 0 4 -3z" />
    <glyph glyph-name="parenright" unicode=")" horiz-adv-x="368" 
d="M354 599q0 -88 -37 -166q-108 -232 -358 -391q-9 -7 -43 -26.5t-40 -19.5q-3 0 -3 3q0 1 8 9q60 38 123 97q76 73 136 155q110 146 162 280q28 70 28 108v14q0 9 6 9q18 0 18 -72z" />
    <glyph glyph-name="asterisk" unicode="*" horiz-adv-x="420" 
d="M416 547q0 -30 -21 -30q-17 0 -49 6q-11 2 -31 4t-28 3q4 -5 11.5 -15t14 -18t13.5 -15q36 -36 36 -45q0 -12 -12.5 -22t-24.5 -10q-9 0 -16.5 9t-11 18.5t-7 23.5t-4.5 17q-9 31 -17 49q-4 -10 -10 -28.5t-10 -27.5q0 -1 -5.5 -19.5t-12 -30.5t-14.5 -12q-9 0 -24 9
q-22 10 -22 25q0 6 4.5 13.5t9 12.5t13.5 13t10 9q20 19 43 47q-54 -8 -59 -10q-48 -13 -49 -13q-24 0 -24 31q0 33 22 33q11 0 51 -10q24 -6 57 -8q-26 33 -38 43l-9 9q-10 9 -13.5 13t-8 11.5t-4.5 13.5q0 13 12.5 22t25.5 9q6 0 11 -1.5t8 -5.5t5.5 -6.5t4 -9t2 -9
t1.5 -11t1 -9.5q3 -23 19 -60q16 36 24 64q11 47 28 47q8 0 22.5 -7.5t18.5 -13.5q2 -4 2 -10q0 -4 -0.5 -7.5t-2.5 -7t-3.5 -5.5t-5 -5.5l-5 -5t-6 -5t-5.5 -4.5q-16 -12 -47 -52q58 11 64 13q33 9 41 9q12 0 18.5 -8t6.5 -20z" />
    <glyph glyph-name="plus" unicode="+" 
d="M277 305v-176h-54v176h-190v51h190v177h54v-177h190v-51h-190z" />
    <glyph glyph-name="comma" unicode="," horiz-adv-x="247" 
d="M25 73q0 -27 -17 -47q-35 -44 -65 -68q-7 -7 -30.5 -22.5t-29.5 -15.5q-7 0 -7 6q0 2 2 3.5t5 3.5t4 3q58 40 58 62q-2 3 -6.5 7t-7 10t-2.5 16q0 24 21 48.5t45 24.5q30 0 30 -31z" />
    <glyph glyph-name="hyphen" unicode="-" horiz-adv-x="267" 
d="M226 228q0 -9 -22 -31q-25 -20 -91 -20q-10 0 -30 2t-31 2h-15q-9 0 -21 -4t-16 -4q-8 0 -8 8t7 15q13 19 43 29t56 10q14 0 40 -2.5t40 -2.5q26 0 33 3l8 2q7 0 7 -7z" />
    <glyph glyph-name="period" unicode="." horiz-adv-x="279" 
d="M6 61q0 -24 -22 -48.5t-46 -24.5q-29 0 -29 31q0 27 20.5 50t46.5 23q30 0 30 -31z" />
    <glyph glyph-name="slash" unicode="/" horiz-adv-x="376" 
d="M567 630q0 -19 -81 -89q-82 -72 -150 -123q-192 -144 -236 -180q-162 -131 -219 -210q-1 -2 -5 -7t-5.5 -7t-4.5 -5.5t-5.5 -5t-6.5 -2.5t-9 -1q-25 0 -25 16q0 12 23 35l69 69q9 9 20.5 18.5t25.5 20.5t22 17q18 13 52.5 38.5t52.5 38.5l114 83q105 76 196 158
q85 77 118 124q13 19 33 19q21 0 21 -7z" />
    <glyph glyph-name="zero" unicode="0" horiz-adv-x="525" 
d="M447 465q0 80 -63 80q-48 0 -105 -47.5t-100 -102.5q-40 -51 -79 -123q-55 -104 -55 -185t64 -81q85 0 209 173q129 175 129 286zM498 431q0 -68 -37.5 -145.5t-88.5 -138.5q-55 -64 -132.5 -112.5t-148.5 -48.5q-57 0 -89 33t-32 90v11q0 91 52 177q54 89 128 154
q50 43 112 73.5t118 30.5q58 0 88 -33t30 -91z" />
    <glyph glyph-name="one" unicode="1" horiz-adv-x="525" 
d="M484 570q0 -5 -22 -38l-23 -32q-82 -114 -125 -180q-6 -9 -17.5 -28t-17.5 -28q-108 -168 -138 -224q-20 -37 -21 -40h-93q1 21 17 49q18 33 66 97q104 136 207 248q6 6 24 25.5t27 30.5l41 50q-6 -4 -28 -21q-115 -84 -233 -144q-4 -1 -24.5 -12t-27.5 -11q-5 0 -5 3
t4 5.5t9.5 4.5t6.5 3q11 4 33 18q13 7 60 33t74 43q95 63 136 96q40 32 57 49q6 6 10 6q3 0 3 -3z" />
    <glyph glyph-name="two" unicode="2" horiz-adv-x="525" 
d="M531 490q0 -86 -97 -168q-49 -39 -123.5 -72.5t-145.5 -51.5q-7 -2 -25 -6t-26.5 -6.5t-22.5 -7t-25.5 -9.5t-22.5 -12q-32 -17 -47 -32.5t-36 -49.5q39 12 67 12q33 0 93 -23.5t91 -23.5q52 0 75 41q1 1 3 5t4.5 6.5t5.5 2.5q6 0 6 -6q0 -11 -23 -34q-51 -60 -138 -60
q-35 0 -94.5 18.5t-85.5 18.5q-48 0 -63 -19q-1 -1 -3.5 -4.5t-5 -6t-4.5 -2.5q-8 0 -8 9q0 18 19 47.5t36 46.5q12 12 25.5 22.5t31 21t29.5 17.5t35 17t31.5 14t35 14.5t31.5 12.5q141 55 220 133q32 32 58 77.5t26 83.5q0 29 -17 45t-45 16q-56 0 -112 -44.5t-80 -98.5
q-13 -28 -13 -51q0 -14 9 -27.5t22 -13.5h13q3 -2 3 -4q0 -12 -39 -12q-30 0 -50.5 18t-20.5 48q0 82 103 147q83 51 174 51q54 0 90 -24.5t36 -75.5z" />
    <glyph glyph-name="three" unicode="3" horiz-adv-x="525" 
d="M500 503q0 -41 -33 -79t-75 -60.5t-82 -31.5q-8 -2 -35.5 -8t-41.5 -11q5 -2 32.5 -11.5t39.5 -15.5q47 -24 47 -87t-56 -113.5t-123 -71.5q-55 -18 -113 -18q-22 0 -44.5 3.5t-46.5 12t-39.5 25.5t-15.5 41q0 25 15 43t40 18q15 0 26 -8t11 -22q0 -10 -14.5 -17.5
t-14.5 -24.5q0 -29 22 -42.5t53 -13.5q79 0 152 80q64 70 64 126q0 30 -18.5 57t-47.5 27q-4 0 -12.5 -0.5t-12.5 -0.5q-11 0 -11 10q0 5 2 7q2 3 4 3q4 0 6 1q12 2 30 4.5t31.5 5.5t29.5 9q21 7 35 16q34 17 66 51q56 70 56 114q0 29 -17.5 47t-46.5 18q-53 0 -111 -48
t-58 -100q0 -22 17 -30q10 -3 10 -7q0 -5 -14.5 -9t-21.5 -4q-24 0 -38.5 12.5t-14.5 36.5q0 52 46.5 91t104.5 56q50 14 96 14q49 0 85.5 -24t36.5 -71z" />
    <glyph glyph-name="four" unicode="4" horiz-adv-x="525" 
d="M473 561q-140 -115 -220 -174q-94 -72 -234 -170q51 18 93 18q24 0 95 -16q51 67 145 187t121 155zM522 605q0 -5 -5 -10q-49 -67 -138 -230q-24 -44 -95 -161q15 -5 26 -5q24 0 46.5 14.5t36 28.5t15.5 14q6 0 6 -5q0 -6 -8.5 -15t-21 -19.5t-14.5 -12.5
q-50 -39 -113 -43q-7 -12 -20 -34t-23.5 -40t-19.5 -34q-5 -8 -13 -26l-12 -27h-90q6 33 20.5 59t36.5 56t34 54q-69 24 -125 24q-49 0 -88 -19q-12 -5 -17 -5q-7 0 -7 6q0 8 15 14q31 15 112 71q11 8 68 50.5t87 65.5l195 150q83 63 92 74q10 10 14 10q6 0 6 -5z" />
    <glyph glyph-name="five" unicode="5" horiz-adv-x="525" 
d="M529 586q0 -10 -13 -23q-58 -67 -142 -67q-65 0 -140 32l-111 -177q16 6 42 19.5t45 19t47 5.5q59 0 92.5 -28.5t33.5 -86.5q0 -76 -46 -143t-118 -105t-147 -38q-46 0 -85 19.5t-39 60.5q0 24 15 40.5t38 16.5q15 0 27 -9.5t12 -23.5q0 -8 -15 -17t-15 -28
q0 -24 22 -35.5t48 -11.5q77 0 151 94.5t74 174.5q0 44 -21 69.5t-63 25.5q-33 0 -62.5 -17t-46.5 -34t-19 -17t-6 2.5t-4 4.5q0 4 41.5 71.5t87 141t49.5 79.5q90 -45 160 -45q27 0 54 10q26 9 41 24q4 4 8 4q5 0 5 -8z" />
    <glyph glyph-name="six" unicode="6" horiz-adv-x="525" 
d="M512 601q-1 -7 -17 -10q-33 -10 -101 -52q-107 -64 -201 -187q-113 -156 -113 -260q0 -36 17.5 -60.5t52.5 -24.5q47 0 94.5 46.5t75 107.5t27.5 106q0 28 -14 49.5t-40 21.5q-29 0 -60 -20.5t-51 -46.5q-5 -7 -7 -8q-5 2 -5 6q0 9 34 43q51 46 110 46q48 0 75.5 -31.5
t27.5 -80.5q0 -47 -29.5 -99t-68.5 -85q-38 -33 -88 -53.5t-98 -20.5q-59 0 -93 36.5t-34 96.5q0 70 47 147t109 138q96 92 241 158q6 3 18 8t21.5 9t17.5 7q2 1 16 5t21 7q6 3 11 3q2 0 4 -2z" />
    <glyph glyph-name="seven" unicode="7" horiz-adv-x="525" 
d="M583 576q0 -3 -6 -9q-5 -5 -13 -15q-6 -9 -20.5 -22.5t-16.5 -16.5q-23 -23 -62.5 -66t-48.5 -52q-60 -64 -85.5 -91.5t-71 -82t-75.5 -98.5l-33 -51q-17 -27 -18 -29q-7 -14 -21 -43h-84q0 3 1 9t2 10q4 22 19.5 49t34 51.5t49 56.5t53.5 54.5t60 55t55.5 48t53 44.5
t40.5 34q38 32 106 104q-41 -17 -78 -17q-24 0 -68 6.5t-68 6.5q-84 0 -133 -80q-4 -8 -13 -8q-5 2 -5 5q0 6 58 86q5 8 16 23.5t17 23.5q10 16 15 23q6 7 12 7q1 0 5 -4q0 -4 -5 -9q-29 -36 -39 -56q37 29 65 41t68 12q27 0 81 -13.5t82 -13.5q23 0 36.5 7.5t20 14.5
t11.5 7q3 0 3 -2z" />
    <glyph glyph-name="eight" unicode="8" horiz-adv-x="525" 
d="M277 159q0 57 -50 138q-85 -29 -127 -58q-36 -23 -61.5 -61.5t-25.5 -77.5q0 -42 30 -70.5t72 -28.5q64 0 113 47t49 111zM454 504q0 29 -19.5 47.5t-48.5 18.5q-48 0 -82.5 -42t-34.5 -90q0 -55 30 -99q24 10 35 16q47 24 83.5 64t36.5 85zM501 490q0 -42 -33.5 -78.5
t-76.5 -52.5q-68 -26 -87 -36q5 -16 18.5 -45.5t21.5 -54t8 -47.5q0 -62 -41 -106.5t-96.5 -63.5t-115.5 -19q-61 0 -104 27.5t-43 85.5q0 70 59 118t137 70q47 12 52 14l23 9q-3 12 -9.5 33t-10 38.5t-3.5 34.5q0 71 56.5 118t128.5 47q48 0 82 -23.5t34 -68.5z" />
    <glyph glyph-name="nine" unicode="9" horiz-adv-x="525" 
d="M490 467q0 -65 -44.5 -141t-101.5 -133q-98 -95 -243 -162q-47 -21 -63 -26q-32 -10 -38 -13t-13 -3q-4 0 -4 3q0 4 14 9q19 7 34 15l60 32q67 35 141.5 110.5t128.5 171t54 169.5q0 36 -18 61.5t-53 25.5q-47 0 -94 -46.5t-74.5 -106.5t-27.5 -106q0 -30 14 -51.5
t42 -21.5q23 0 50 16q43 26 58 51q3 10 8 10q6 0 6 -7q0 -9 -31 -40q-54 -51 -115 -51q-47 0 -74.5 31.5t-27.5 78.5q0 49 26 97t66 86q86 79 192 79q61 0 94.5 -38t33.5 -100z" />
    <glyph glyph-name="colon" unicode=":" horiz-adv-x="279" 
d="M23 61q0 -23 -22 -48t-45 -25q-30 0 -30 31q0 25 21 49t46 24q30 0 30 -31zM194 307q0 -24 -22 -48.5t-45 -24.5q-30 0 -30 31q0 24 21.5 48.5t45.5 24.5q30 0 30 -31z" />
    <glyph glyph-name="semicolon" unicode=";" horiz-adv-x="247" 
d="M25 73q0 -27 -17 -47q-35 -44 -65 -68q-7 -7 -30.5 -22.5t-29.5 -15.5q-7 0 -7 6q0 2 2 3.5t5 3.5t4 3q58 40 58 62q-2 3 -6.5 7t-7 10t-2.5 16q0 24 21 48.5t45 24.5q30 0 30 -31zM190 307q0 -25 -22 -49t-46 -24q-29 0 -29 31q0 24 21.5 48.5t45.5 24.5q30 0 30 -31z
" />
    <glyph glyph-name="less" unicode="&#x3c;" 
d="M33 305v48l434 197v-54l-374 -167l374 -167v-55z" />
    <glyph glyph-name="equal" unicode="=" 
d="M33 231v51h434v-51h-434zM33 380v51h434v-51h-434z" />
    <glyph glyph-name="greater" unicode="&#x3e;" 
d="M33 107v55l374 167l-374 167v54l434 -197v-48z" />
    <glyph glyph-name="question" unicode="?" horiz-adv-x="490" 
d="M81 61q0 -23 -22 -48t-45 -25q-30 0 -30 31q0 25 21 49t46 24q30 0 30 -31zM506 480q0 -127 -209 -203q-87 -31 -121 -53q-47 -30 -58 -54q-12 -27 -19 -27q-10 0 -10 7q0 6 13 29q21 35 63.5 66t82.5 51.5t85 52.5t71 67q32 45 32 87q0 65 -76 65q-55 0 -116.5 -54.5
t-61.5 -107.5q0 -17 5.5 -23.5t20.5 -10.5q8 -2 8 -7q0 -10 -15 -16t-27 -6q-23 0 -36 15.5t-13 39.5q0 44 35.5 83.5t81.5 66.5q59 34 134 34q55 0 92.5 -25t37.5 -77z" />
    <glyph glyph-name="at" unicode="@" horiz-adv-x="733" 
d="M470 358q0 47 -24 76.5t-69 29.5q-59 0 -95.5 -49.5t-36.5 -110.5q0 -50 26.5 -86t74.5 -36q60 0 92 55.5t32 120.5zM698 381q0 -49 -15 -95q-19 -56 -57.5 -99t-90.5 -43q-32 0 -51 18.5t-21 51.5q-45 -73 -125 -73q-65 0 -102 47.5t-37 114.5q0 80 49 141.5t126 61.5
q84 0 114 -85l14 72h41l-42 -216q-6 -30 -6 -48q0 -22 11 -36t32 -14q39 0 68.5 38t41.5 83q11 42 11 80q0 116 -80 187t-197 71q-129 0 -217 -88t-88 -217q0 -128 83 -214q86 -91 233 -91q114 0 218 51l13 -37q-108 -52 -230 -52q-155 0 -256.5 95t-101.5 249
q0 145 100.5 244t245.5 99q132 0 224 -82.5t92 -213.5z" />
    <glyph glyph-name="A" unicode="A" horiz-adv-x="872" 
d="M922 606q0 10 -8.5 16t-19.5 6q-35 0 -88.5 -36t-112.5 -95t-96 -99.5t-73 -83.5h193l166 223q39 50 39 69zM993 607q0 -31 -58 -113l-263 -360q-49 -68 -76 -134h-93q5 13 12.5 28.5t13 25t18 28t16.5 24t20 27t17 22.5q18 24 53.5 71.5t52.5 71.5h-199q-10 -10 -56 -61
t-68.5 -75t-69.5 -67t-81.5 -64t-80 -39t-87.5 -18q-69 0 -112.5 42t-43.5 111q0 122 106 230q110 110 221 110q50 0 82 -28t32 -77q0 -33 -16 -64q-39 -67 -65 -67l-2 1q0 4 4 9.5t10 12.5t7 9q9 11 15 34t6 39q0 41 -32.5 69t-73.5 28q-94 0 -167.5 -80t-73.5 -174
q0 -62 34.5 -97t96.5 -35q38 0 75.5 12t74 36.5t60.5 44.5t60 53q56 51 107 107h-67l10 16h75l73 72l33 33t37.5 37t33 31.5t38.5 35.5t35 29.5t40 31.5q93 68 159 68q25 0 41 -12t16 -35z" />
    <glyph glyph-name="B" unicode="B" horiz-adv-x="947" 
d="M765 573q-5 -7 -33 -20q-38 -15 -104 -94q-35 -44 -123 -182q-61 -96 -117.5 -154.5t-139 -95.5t-187.5 -37q-29 0 -58 6t-55 25.5t-26 49.5q0 21 14 33.5t36 12.5q33 0 33 -27q0 -7 -11 -17t-11 -20q0 -26 32.5 -39t63.5 -13q55 0 108 29q19 10 38.5 24.5t40.5 38t35 39
t37.5 48.5t31 43t32 48t25.5 39q64 98 138 169q40 39 108 69q60 25 92 25zM908 509q0 -37 -24.5 -73t-58.5 -58q-54 -34 -180 -49q34 -13 53 -22.5t44 -27t36.5 -41.5t11.5 -55q0 -61 -38 -106t-92 -65.5t-113 -20.5q-45 0 -66 7q-91 30 -91 67q0 10 7 10q4 0 6 -3t3.5 -9
t2.5 -8q7 -21 42 -32t65 -11q76 0 138 59t62 134q0 44 -32.5 82.5t-75.5 38.5q-4 0 -9 -1t-8 -1q-14 0 -14 7q0 8 13 8q8 0 23 -1.5t22 -1.5q12 0 63 16q37 13 59 26t41 37q41 50 41 104q0 141 -223 141q-145 0 -262 -66q-73 -39 -130.5 -105t-57.5 -137q0 -38 27.5 -58
t67.5 -20q17 0 33 3q48 10 77 36q10 10 15 10q3 0 3 -2q-1 -5 -14 -16q-81 -61 -171 -61q-46 0 -76.5 28.5t-30.5 74.5q0 63 46 120t109 97q175 110 388 110q42 0 85 -8t86 -25.5t70 -51.5t27 -80z" />
    <glyph glyph-name="C" unicode="C" horiz-adv-x="571" 
d="M652 577q0 -78 -75 -164q-36 -41 -85.5 -70.5t-96.5 -29.5q-33 0 -57 17.5t-24 48.5q0 43 31.5 78t74.5 50q30 10 38 10q10 0 10 -5q0 -7 -21 -7q-14 0 -32.5 -11t-29.5 -24q-29 -31 -29 -66q0 -29 23 -44.5t53 -15.5q68 0 127 66t59 136q0 51 -22 74q-28 32 -93 32
q-96 0 -194 -74.5t-159 -182t-61 -202.5q0 -75 38.5 -115t113.5 -40q41 0 82 12q39 13 86.5 39t73.5 51q62 55 81 102q1 1 3 8t5.5 12t8.5 5q6 0 6 -7q0 -15 -28 -50q-57 -92 -161 -160.5t-205 -68.5q-90 0 -138.5 48t-48.5 138q0 124 101 253.5t224 197.5q119 68 208 68
q55 0 90 -37q23 -24 23 -72z" />
    <glyph glyph-name="D" unicode="D" horiz-adv-x="941" 
d="M185 51q-94 41 -159 41q-21 0 -43 -10t-22 -29q0 -24 28 -33.5t58 -9.5q29 0 57 6q30 6 42 11t39 24zM879 396q0 -84 -40 -159.5t-104 -127t-144.5 -81.5t-161.5 -30q-77 0 -196 39q-122 -40 -188 -40q-37 0 -80 12t-43 40q0 18 19.5 32t39.5 19q31 8 84 8q47 0 162 -26
q28 23 55.5 56.5t45 59.5t45.5 69.5t42 63.5q46 66 89 112q80 84 162 110q29 9 39 9t10 -4t-4.5 -5.5t-10.5 -2.5h-6q-19 -3 -60 -44q-54 -56 -137 -204q-24 -43 -68.5 -101.5t-76.5 -84.5l-63 -51q110 -46 184 -46q100 0 182.5 76.5t122.5 179.5q30 81 30 158
q0 100 -66.5 158t-168.5 58q-139 0 -255 -69q-67 -41 -111 -95q-51 -64 -51 -125q0 -39 22.5 -62t61.5 -23q23 0 57 12t49 27q17 17 23 17q4 0 4 -4q0 -10 -21 -23q-87 -65 -155 -65q-46 0 -77 25.5t-31 71.5q0 50 27.5 98t71.5 85t91 64t94 44q93 35 196 35q132 0 221 -69
t89 -197z" />
    <glyph glyph-name="E" unicode="E" horiz-adv-x="676" 
d="M489 401q0 20 -63 20q-18 0 -33 -4q4 -11 8 -15t16 -8q23 -9 41 -9q10 0 20.5 4t10.5 12zM701 620q0 42 -75 42q-52 0 -109.5 -28.5t-93.5 -69.5q-28 -30 -39 -78q24 -2 37 -2q28 0 73 9t92.5 25t81 43t33.5 59zM746 620q0 -35 -45.5 -66t-90.5 -46q-86 -29 -228 -34
q-4 -9 -4 -21q0 -8 9 -24q35 5 65 5q13 0 30.5 -2t37.5 -9.5t20 -20.5q0 -16 -26 -22.5t-48 -6.5q-63 0 -123 35q-72 -20 -112 -55q-44 -35 -74 -82t-30 -97q0 -66 50 -102.5t118 -36.5q42 0 88 11q126 27 234 144q2 2 12.5 15t20 24t11.5 11l2 -2q0 -5 -3 -11t-8 -13
t-9.5 -12.5t-11 -12.5t-7.5 -9q-70 -83 -151 -130q-45 -27 -105.5 -45t-109.5 -18q-90 0 -155.5 44t-65.5 129q0 72 49.5 126.5t123.5 89.5q42 20 123 43q-17 25 -22 61q-67 15 -87 23q-30 11 -52.5 34.5t-22.5 52.5q0 25 14 43.5t37.5 27t46 12t46.5 3.5q17 0 48.5 -5.5
t31.5 -13.5q0 -4 -7 -4t-25.5 6t-33.5 6q-44 0 -77.5 -19t-33.5 -59q0 -41 35 -65t81 -31q6 22 17 45q35 65 126 102t176 37q115 0 115 -55z" />
    <glyph glyph-name="F" unicode="F" horiz-adv-x="655" 
d="M771 582q0 -4 -7 -6l-22 -9q-47 -19 -150 -209h85l-6 -13h-88q-74 -129 -111 -176q-58 -73 -130 -113q-107 -59 -227 -59q-21 0 -45 2.5t-53 9.5t-47.5 23t-18.5 38q0 20 14 34t34 14q36 0 36 -27q0 -6 -11.5 -13t-11.5 -20q0 -24 37 -38t66 -14q47 0 87.5 13.5t70 32.5
t59 53t49 62.5t45.5 72.5q3 5 26.5 43.5t35.5 59.5h-48l7 13h49q32 47 56.5 78.5t64 68.5t79.5 54q54 27 69 27zM968 670q-3 -10 -27 -19q-99 -27 -175 -27q-44 0 -132 13t-132 13q-126 0 -218 -73q-121 -96 -121 -223q0 -47 29.5 -79.5t76.5 -32.5q29 0 69 14.5t56 34.5
q11 16 21 17l2 -2q-1 -11 -23 -27q-7 -6 -22 -17.5t-22 -17.5q-24 -20 -64 -34.5t-72 -14.5q-55 0 -83.5 34.5t-28.5 91.5q0 116 124 230q69 62 161.5 96t187.5 34q47 0 141.5 -16.5t141.5 -16.5q65 0 90 16q1 1 7.5 4.5t10.5 3.5z" />
    <glyph glyph-name="G" unicode="G" horiz-adv-x="799" 
d="M837 577q0 64 -95 64q-86 0 -174.5 -47t-163.5 -117q-45 -41 -87 -102q78 -18 114 -18q162 0 282 70q48 28 86 67.5t38 82.5zM895 582q0 -51 -55 -100t-115 -75q-60 -29 -141.5 -44.5t-154.5 -15.5q-47 0 -122 15q-88 -127 -88 -221q0 -48 26.5 -76t74.5 -28q37 0 84 22
t79 50q72 59 151 184q22 -2 30 -2q19 0 57 10q-53 -78 -102 -156q-8 -12 -35.5 -56t-40 -62t-39.5 -56.5t-46.5 -59.5t-47 -48.5t-56 -46.5t-58.5 -32q-91 -40 -171 -40q-21 0 -43 3.5t-46.5 11t-40 24t-15.5 38.5q0 21 14.5 36.5t35.5 15.5q15 0 24.5 -10t9.5 -25
q-24 -6 -24 -30q0 -25 29.5 -38.5t57.5 -13.5q49 0 92.5 18.5t82.5 55.5t63.5 67t58.5 78q61 87 100 153q-68 -58 -129 -92.5t-128 -34.5q-63 0 -99.5 35t-36.5 98q0 118 111 248q-129 61 -129 144q0 61 54.5 91.5t120.5 30.5q29 0 69 -8.5t53 -23.5q-2 -2 -4 -2
q-9 0 -32 10q-19 6 -49 6q-39 0 -74 -11t-61 -39t-26 -68q0 -68 92 -115q65 65 119 103q81 57 163 96q138 64 244 64q46 0 79.5 -18t33.5 -60z" />
    <glyph glyph-name="H" unicode="H" horiz-adv-x="889" 
d="M894 624q0 15 -28 15q-63 0 -114 -38q19 -11 59 -11q23 0 53 8.5t30 25.5zM1251 667q0 -10 -10 -10q-3 0 -14.5 9.5t-29.5 9.5q-42 0 -91 -29.5t-87.5 -67.5t-85 -97.5t-70 -94t-54.5 -83.5l-202 -304h-85l196 304h-202q-41 -63 -69 -101.5t-69.5 -82t-90 -72.5
t-109.5 -47q-68 -21 -118 -21q-46 0 -87 18t-41 58q0 22 14.5 38.5t37.5 16.5q36 0 36 -34q0 -10 -16.5 -15t-16.5 -25q0 -25 24.5 -35.5t52.5 -10.5q81 0 165 73q41 35 103 121q36 50 78 119h-50l5 12h53q71 102 118 151.5t143 116.5q-126 35 -222 35q-131 0 -210 -56
q-41 -28 -70.5 -74t-29.5 -91q0 -39 22 -62t61 -23q23 0 51.5 14t44.5 32q13 17 20 20l2 -2q-1 -10 -16 -25q-28 -28 -43.5 -41t-42 -23.5t-59.5 -10.5q-40 0 -64.5 22.5t-24.5 63.5q0 73 64 141q64 70 151.5 112t179.5 42q85 0 229 -51q107 46 160 46q15 0 31 -6t16 -19
q0 -28 -59.5 -40.5t-102.5 -12.5q-7 0 -15 0.5t-17.5 1.5t-14.5 1q-41 -33 -85 -90q-63 -82 -109 -170h203q5 7 26 35.5t28.5 38.5t26.5 34.5t30 37.5t28 32t33 34.5t33 29.5q56 49 128 87t131 38q58 0 58 -18z" />
    <glyph glyph-name="I" unicode="I" horiz-adv-x="609" 
d="M817 662q0 -7 -18 -7q-33 -4 -70 -41q-21 -22 -43 -54q-48 -68 -87 -136q-35 -60 -50.5 -86t-49.5 -76.5t-60 -79.5t-64.5 -63.5t-80.5 -59.5q-117 -69 -241 -69q-22 0 -44.5 3.5t-47 11.5t-40 25t-15.5 41q0 20 15.5 36t35.5 16q14 0 24 -10t10 -24q0 -9 -11 -16
t-11 -21q0 -26 36.5 -38t68.5 -12q38 0 75 13.5t72 42.5t61.5 54t59.5 70t47.5 66t43.5 65l49 73q107 156 171 207q36 29 109 65l-51 3q-30 0 -86 -10q-81 -15 -139.5 -37.5t-119.5 -66.5q-116 -86 -116 -168q0 -30 20 -50.5t50 -20.5q34 0 60 14q2 2 12.5 7.5t13.5 5.5
l2 -1q-3 -8 -26 -21q-59 -33 -107 -33q-44 0 -71.5 23t-27.5 66q0 55 36.5 103t95 81.5t112 55t107.5 35.5q115 26 224 26q9 0 26 -1t27 -1q13 0 13 -6z" />
    <glyph glyph-name="J" unicode="J" horiz-adv-x="527" 
d="M783 663q0 -4 -5 -4q-4 0 -13 2t-13 2q-88 0 -258 -284q-76 -123 -114 -176q-89 -125 -153 -184q-72 -67 -165.5 -111.5t-181.5 -44.5q-23 0 -48.5 3.5t-54 12t-47 27t-18.5 43.5q0 20 15 35t35 15q13 0 24.5 -7.5t11.5 -20.5q0 -8 -5 -15q-19 -6 -19 -18q0 -22 22.5 -37
t47 -20.5t45.5 -5.5q102 0 213 111q28 27 76 89q66 84 125 171l61 88q118 166 198 237q39 35 71 54t83 39q-38 5 -65 5q-68 0 -154.5 -22.5t-146.5 -54.5q-72 -37 -132.5 -99.5t-60.5 -126.5q0 -33 20 -52.5t53 -19.5q40 0 60 17q14 14 19 14h7q-15 -26 -59.5 -45t-77.5 -19
q-43 0 -70 24.5t-27 66.5q0 46 25.5 89.5t64.5 76t89.5 60t96 44.5t88.5 27q118 29 232 29q14 0 41.5 -2.5t40.5 -2.5q23 0 23 -10z" />
    <glyph glyph-name="K" unicode="K" horiz-adv-x="891" 
d="M822 637q0 14 -24 14q-44 0 -85 -36q16 -7 40 -7q19 0 44 8t25 21zM856 641q0 -19 -30 -30t-56 -13.5t-48 -2.5q-8 0 -30 2q-25 -26 -48 -58t-33 -49.5t-39 -66.5q-10 -17 -31 -53.5t-31.5 -54t-30.5 -50t-33 -50t-34 -44.5t-38.5 -43t-42 -37t-48 -34.5t-53 -27
t-61.5 -22.5q-49 -17 -98 -17q-22 0 -43.5 2.5t-47 10t-41.5 23.5t-16 40q0 21 14 38t35 17q17 0 27 -11t10 -27q0 -7 -15.5 -13.5t-15.5 -21.5q0 -24 30 -35t60 -11t61 11.5t56 27t54 44.5t48 50.5t46.5 60t40 58t38 59.5t31.5 50q53 83 93.5 129.5t115.5 107.5
q-117 22 -189 22q-131 0 -211 -59q-92 -68 -92 -155q0 -41 23.5 -63t65.5 -22q28 0 66.5 20t55.5 43q13 18 18 18q3 0 3 -4q0 -8 -13 -21q-4 -5 -12.5 -14t-12.5 -15q-60 -67 -140 -67q-44 0 -70.5 28.5t-26.5 71.5q0 55 65 132q117 147 289 147q29 0 62.5 -6.5t85.5 -20.5
t62 -17q3 2 15 7.5t17 7.5t16 7t17.5 7.5t16.5 6t18 5t17 3t17 1.5q14 0 27.5 -5.5t13.5 -16.5zM1078 642q0 -6 -4 -11.5t-9 -5.5q-2 0 -14 4t-22 4q-42 0 -91.5 -33.5t-88.5 -74.5l-89 -92q-48 -48 -111 -92q23 -20 31 -35.5t8 -43.5q0 -11 -1.5 -21.5t-6 -22.5t-7.5 -18.5
t-10.5 -21t-9.5 -19.5q-34 -68 -34 -90q0 -32 32 -32q26 0 68.5 32.5t64.5 59.5l66 78q0 -2 1 -3q0 -1 1 -2q0 -5 -12 -17q-9 -8 -23 -30q-12 -18 -27 -33q-31 -35 -53 -57t-60.5 -45t-72.5 -23q-70 0 -70 67q0 36 27 81t54.5 87t27.5 71q0 14 -13 31q-35 -11 -47 -11
q-36 0 -36 17q0 18 40 18q21 0 50 -9q65 41 113 90l91 96q131 137 197 137q13 0 26.5 -9t13.5 -21z" />
    <glyph glyph-name="L" unicode="L" horiz-adv-x="760" 
d="M182 65q-68 36 -131 36q-30 0 -58 -12.5t-28 -38.5q0 -22 20 -32.5t44 -10.5q41 0 92 20q39 16 61 38zM806 630q0 31 -31 31q-61 0 -135 -89q-97 -118 -166 -249q18 4 42 10q24 8 64.5 33t64.5 45q54 42 107.5 107t53.5 112zM839 623q0 -39 -35 -88t-75 -84
q-96 -86 -269 -149q-37 -58 -40 -61q-21 -33 -45 -61t-39 -43t-54 -52q141 -64 207 -64q74 0 119 72q16 23 29.5 56t13.5 56q0 11 -5 29.5t-5 21.5l1 2q11 -2 20.5 -29.5t9.5 -42.5q0 -85 -72 -138.5t-160 -53.5q-33 0 -75.5 10t-62.5 17t-73 26q-120 -51 -190 -51
q-15 0 -32.5 2.5t-37.5 8t-33 18t-13 28.5q0 18 21 32t51 20.5t55 9.5t42 3q25 0 129 -17q73 72 128 183q-14 -2 -23 -2h-23q-70 0 -123.5 35.5t-53.5 101.5q0 58 43 107.5t103 75.5t117 26q59 0 59 -15q0 -8 -6 -8q-5 0 -10 4q-17 8 -50 8q-72 0 -132.5 -54t-60.5 -126
q0 -67 56 -105q42 -27 119 -27q5 8 25 39t28 43t26 38t30 41.5t29 35.5t33 36q53 53 120 92.5t127 39.5q57 0 57 -47z" />
    <glyph glyph-name="M" unicode="M" horiz-adv-x="1042" 
d="M1202 670q0 -5 -14 -5q-16 0 -49 -21t-52 -38q-52 -42 -115.5 -124.5t-96.5 -146.5l-33 -64q-5 -11 -13.5 -27t-12 -22.5t-8.5 -18.5t-9 -24.5t-9 -29.5q-8 -30 -8 -46q0 -18 9.5 -29.5t26.5 -11.5q53 0 136 97q22 24 33 42l3 5q3 5 6 8t6 3q4 0 4 -4q0 -3 -22 -33
t-23 -31q-35 -50 -96 -100.5t-106 -50.5q-64 0 -64 67q0 83 88 228q92 147 177 228q62 58 92 88q-60 -31 -112 -79q-95 -85 -161 -172q-2 -3 -45.5 -60.5t-62.5 -80.5t-57.5 -68t-70 -73t-60.5 -45q-39 -28 -52 -28q-5 0 -5 4q0 2 2.5 4.5t6.5 4.5t5 3q26 15 53 66
q18 33 32.5 76.5t30.5 105t22 81.5q32 104 72 160q30 40 39 63q-34 -30 -90 -104q-25 -32 -70 -92.5t-57 -76.5q-101 -134 -148 -184q-139 -147 -269 -147q-70 0 -113 41t-43 110q0 72 49 149.5t124.5 129t146.5 51.5q45 0 74.5 -24.5t29.5 -68.5q0 -29 -13.5 -61.5
t-33.5 -50.5q-11 -11 -33 -29q-15 -11 -24 -11q-5 0 -5 4q0 2 2 4.5t4 4t5 3t4 2.5q21 14 35 43t14 56q0 44 -25.5 68t-70.5 24q-88 0 -159 -77.5t-71 -166.5q0 -65 36.5 -100t100.5 -35q141 0 305 194q76 88 197 247q110 146 187 180q17 10 27 10l3 -2q-2 -6 -8 -7
q-36 -19 -61 -66q-10 -18 -18.5 -42t-12.5 -38.5t-12.5 -47t-10.5 -40.5q-24 -100 -46.5 -159.5t-68.5 -133.5q59 54 121 135q43 56 69.5 89t74 87t85.5 88t88.5 69t98.5 53q59 23 88 23q1 0 7 -2z" />
    <glyph glyph-name="N" unicode="N" horiz-adv-x="863" 
d="M1120 677q0 -24 -20 -24q-4 0 -13 2.5t-14 2.5q-46 0 -113 -72q-41 -46 -107 -148q-74 -112 -107 -172q-32 -57 -50 -89q-59 -101 -115 -171q-10 -13 -17 -13q-5 0 -5 4q0 5 9 17q35 48 35 184q0 22 -1 65.5t-1 65.5q0 121 20 178q22 63 26 75q-60 -71 -141 -210
q-26 -43 -43 -70.5t-49.5 -75t-58.5 -78.5t-63.5 -69t-71.5 -60t-75 -37.5t-82 -15.5q-72 0 -114.5 41.5t-42.5 113.5q0 95 65 183q45 61 112.5 107t133.5 46q43 0 73.5 -25t30.5 -67q0 -67 -48 -115q-31 -31 -45 -31q-6 0 -6 6q0 5 12 9q11 4 25 27q20 35 20 64
q0 46 -28 72t-74 26q-62 0 -124 -51q-95 -79 -95 -197q0 -67 37 -106.5t103 -39.5q70 0 143 53q46 31 102.5 95t95.5 121q60 91 108 163q6 8 27 39.5t30.5 44.5t28 36.5t35 41t35.5 32.5q23 20 33 20q4 0 4 -3q0 -2 -2 -4.5t-5.5 -4.5t-4.5 -3q-16 -12 -31 -43
q-3 -7 -5.5 -13.5t-4.5 -14t-3.5 -12t-2.5 -13t-1.5 -12t-0.5 -13.5v-12.5v-14.5v-15v-37q0 -11 2 -37q6 -70 6 -105q0 -20 -2 -38.5t-7.5 -40.5t-8.5 -34.5t-11.5 -40t-11.5 -36.5q20 26 37 53q5 7 50 89q19 35 59.5 100.5t47.5 76.5l16 26q17 26 23 35t24.5 36t29.5 40
t29 36t32 35.5t31 26t32 19.5t29 6q15 0 24.5 -8t9.5 -22z" />
    <glyph glyph-name="O" unicode="O" horiz-adv-x="683" 
d="M697 562q0 -84 -45 -180.5t-109 -179.5q-178 -227 -367 -227q-81 0 -125 44t-44 125q0 103 66.5 202t163.5 179l18 15t22 18t19 13q21 15 54 32.5t46 15.5q2 0 2 -3q0 -5 -10 -8q-40 -19 -76 -49q-87 -67 -154.5 -178t-67.5 -210q0 -67 40 -103.5t108 -36.5
q100 0 215 109q82 80 138.5 185t56.5 204q0 116 -93 116q-83 0 -156.5 -78t-73.5 -162q0 -42 26 -68t68 -26q30 0 60 14t47.5 28t19.5 14q3 0 3 -3q0 -9 -24.5 -28.5t-36.5 -24.5q-51 -32 -108 -32q-49 0 -76.5 25.5t-27.5 73.5q0 56 43.5 121.5t95.5 105.5q38 32 88 55
t92 23q50 0 76 -35t26 -86z" />
    <glyph glyph-name="P" unicode="P" horiz-adv-x="726" 
d="M706 591q0 -5 -5 -5h-7q-1 1 -3 1q-17 0 -37.5 -15.5t-32.5 -31.5q-39 -50 -114 -195q-47 -93 -89 -150q-52 -71 -115 -118q-60 -45 -135.5 -73.5t-145.5 -28.5q-23 0 -45.5 3t-47 11t-40 25t-15.5 41t15.5 40.5t39.5 16.5q34 0 34 -27q0 -16 -14 -21.5t-14 -20.5
q0 -28 28 -42t58 -14q92 0 184 76q81 69 193 256q8 12 22.5 36t23.5 38t22.5 33.5t26.5 35.5q53 65 107 100q51 35 95 35q11 0 11 -6zM825 523q0 -89 -68.5 -146t-159.5 -57h-12q-41 0 -41 16q0 4 5 4q7 0 22 -4t22 -4q24 0 53 14.5t47 32.5q28 27 46 66t18 76q0 76 -51 111
t-131 35q-28 0 -66 -5q-89 -13 -176 -62t-133 -120q-39 -59 -39 -108q0 -38 23 -59t60 -21q28 0 64 14t53 33q7 10 18 14l1 1q1 0 4 -3q-1 -6 -15 -20q-6 -5 -17.5 -15t-17.5 -16q-23 -18 -69 -35.5t-75 -17.5q-44 0 -71.5 25.5t-27.5 69.5q0 107 135 213q79 61 175 94.5
t194 33.5q56 0 105 -14t87 -51.5t38 -94.5z" />
    <glyph glyph-name="Q" unicode="Q" horiz-adv-x="681" 
d="M178 10q-22 6 -43 6h-17q-53 0 -53 -20q0 -11 24 -11q20 0 47.5 7t41.5 18zM746 -41q0 -7 -13 -19t-23 -18q-67 -50 -141 -50q-54 0 -115 21.5t-135 59t-107 50.5q-11 -4 -36.5 -12.5t-39.5 -13t-36 -8.5t-42 -4q-17 0 -36 7.5t-19 21.5q0 21 32 30t72 9h33q27 0 81 -6
q94 40 156 95q95 83 172.5 213.5t77.5 239.5q0 44 -24.5 72t-68.5 28q-66 0 -149 -60t-143 -128q-60 -67 -106.5 -151.5t-46.5 -154.5q0 -36 20 -59t56 -23q47 0 95 29q41 25 52 43q1 1 2.5 3.5t2.5 4.5t2.5 3.5t3.5 1.5q4 0 4 -4q0 -5 -12 -17l-17 -20q-27 -32 -76 -53
t-92 -21q-120 0 -120 123q0 86 60.5 179t139.5 160q72 63 173 112.5t182 49.5q67 0 100 -38t33 -106q0 -83 -44 -168t-110 -156q-54 -59 -120 -104t-160 -97q114 -34 127 -39q13 -4 54 -19.5t64 -23t58 -15t62 -7.5q65 0 98 29q12 12 16 12q3 0 3 -2z" />
    <glyph glyph-name="R" unicode="R" horiz-adv-x="836" 
d="M729 602q0 -5 -15 -5q-21 -4 -46 -22q-52 -36 -118 -144l-93 -153q-36 -57 -56.5 -88t-58.5 -74.5t-76 -70.5q-57 -41 -125 -64q-68 -21 -131 -21q-28 0 -56 5t-54 23.5t-26 47.5q0 20 13.5 33.5t33.5 13.5q15 0 26 -8.5t11 -22.5q0 -12 -10.5 -18.5t-10.5 -19.5
q0 -21 25 -31.5t49 -10.5q56 0 119 35q60 34 100 83q17 21 34 44t35.5 51t30 45t33.5 51.5t30 47.5q37 57 62.5 92.5t67.5 77.5t87 69q68 39 106 39q13 0 13 -5zM861 542q0 -48 -35.5 -90t-80.5 -66t-92 -36q-10 -3 -35.5 -8.5t-38.5 -9.5q31 -17 43.5 -34.5t12.5 -49.5
q0 -33 -34 -95.5t-34 -92.5q0 -32 27 -32q34 0 72 34q86 76 104 113q11 19 16 19q3 0 3 -4q0 -8 -10 -18q-2 -2 -42 -53q-36 -47 -88.5 -88.5t-97.5 -41.5q-33 0 -53 16.5t-20 48.5q0 38 26 86t52 89t26 63q0 15 -8.5 26.5t-23.5 11.5q-2 0 -5.5 -0.5t-5.5 -0.5q-10 0 -10 6
q0 7 11 7h17q67 0 139 48q96 65 96 157q0 34 -17 58.5t-45 36.5t-57 17t-61 5q-81 0 -164 -26q-61 -19 -118 -53t-100.5 -90.5t-43.5 -118.5q0 -35 21 -56.5t56 -21.5q20 0 44.5 11t40.5 26q13 13 16 14q1 -1 1 -3q0 -5 -13 -18q-18 -18 -29 -27q-22 -19 -55.5 -33.5
t-60.5 -14.5q-40 0 -64 28.5t-24 69.5q0 38 26.5 85.5t58.5 79.5q77 79 198.5 121.5t241.5 42.5q38 0 72.5 -6t69 -20t55 -43t20.5 -69z" />
    <glyph glyph-name="S" unicode="S" horiz-adv-x="619" 
d="M664 577q0 -52 -40 -96.5t-91 -44.5q-6 0 -17 2.5t-11 6.5q0 3 7 3q21 -3 23 -3q15 0 34 15q55 39 55 112q0 39 -27 66t-66 27q-56 0 -95 -47t-39 -104q0 -46 39.5 -137t39.5 -144q0 -79 -52 -138t-124.5 -85.5t-149.5 -26.5q-83 0 -144 47.5t-61 128.5q0 54 23 103
t64 82q36 29 83.5 48.5t89.5 19.5q47 0 75 -24t28 -70q0 -66 -47 -104q-45 -34 -58 -34q-3 0 -5 2q0 3 3 5t7.5 3.5t5.5 2.5q22 9 38.5 43.5t16.5 61.5q0 39 -25 64.5t-64 25.5q-75 0 -126.5 -61.5t-51.5 -137.5q0 -81 52.5 -132.5t133.5 -51.5q83 0 146.5 58.5t63.5 140.5
q0 42 -38 133.5t-38 143.5q0 85 69.5 143.5t155.5 58.5q48 0 82.5 -29.5t34.5 -76.5z" />
    <glyph glyph-name="T" unicode="T" horiz-adv-x="635" 
d="M754 574q-1 -6 -14 -9q-18 -6 -38 -26q-26 -27 -100 -149q-13 -24 -39 -67.5t-33 -54.5q-50 -85 -101 -140.5t-126 -90.5q-103 -47 -211 -47q-21 0 -43 3.5t-46.5 11.5t-40 24.5t-15.5 39.5q0 20 12 34t31 14q15 0 26.5 -10t11.5 -24q0 -3 -10.5 -10.5t-10.5 -20.5
q0 -24 33.5 -37.5t62.5 -13.5q59 0 119 25q19 9 36 20t34 28t28 29t28 36t23.5 33t24.5 37t21 33l39 60q3 5 15 23.5t16 24.5t14.5 22t16 24t16 21.5t18 22.5t18 19.5l20.5 20.5q73 66 120 82q36 13 41 13q2 0 3 -1zM986 644q-23 -19 -73.5 -28.5t-94.5 -9.5q-43 0 -174 24
q-79 17 -154 17q-65 0 -131 -23q-84 -32 -146 -95t-62 -143q0 -51 31.5 -82.5t82.5 -31.5q26 0 72 16q22 8 33 17q17 12 20 12l3 -3q0 -7 -24 -21l-37 -23q-20 -13 -56.5 -22.5t-62.5 -9.5q-53 0 -90 29t-37 81t27 102t70.5 88t92 65.5t97.5 44.5q90 29 180 29q75 0 202 -28
q87 -20 147 -20q53 0 76 16q4 4 8 4l2 -2z" />
    <glyph glyph-name="U" unicode="U" horiz-adv-x="841" 
d="M912 643q-10 -16 -60 -88q-4 -6 -23.5 -32.5t-28.5 -42.5l-182 -297q-38 -64 -38 -102q0 -32 25 -32q8 0 16.5 2t17.5 7.5t16.5 9.5t18 13t16 13.5t16 15.5t13.5 14t13 14l11 11q30 32 33 38l4 5q3 6 6 9t6 3q6 0 6 -5q0 -7 -13 -17q-16 -15 -36 -42q-30 -37 -92 -91
q-57 -49 -107 -49q-54 0 -54 59q0 48 53 152q-27 -29 -82 -94q-14 -17 -56 -52q-85 -69 -148 -69q-68 0 -68 82q0 47 45 123.5t99 144.5t99 142t45 118q0 26 -16 41t-42 15q-98 0 -198 -90q-56 -48 -98.5 -111.5t-42.5 -122.5q0 -76 69 -76q22 0 46.5 9t38.5 23t20 16l2 -2
q-2 -12 -15 -22q-4 -4 -22.5 -21t-24.5 -21t-20.5 -13.5t-28.5 -12t-31 -2.5q-84 0 -84 89q0 74 55.5 152.5t126.5 131.5q117 88 231 88q48 0 78.5 -21t30.5 -67q0 -45 -43 -118.5t-94.5 -139t-94.5 -136.5t-43 -111t39 -40q38 0 90.5 42.5t89.5 86.5q11 13 22 28t25 34
t21 29q76 103 112 161q95 157 131 209q5 -1 14 -1h15q24 0 70 10z" />
    <glyph glyph-name="V" unicode="V" horiz-adv-x="743" 
d="M813 610q0 -10 -2 -22.5t-4 -21.5t-7 -24t-7.5 -22t-10 -24t-9.5 -21l-11 -22t-9 -19q-60 -117 -147 -222.5t-186 -170.5q-83 -51 -132 -51q-84 0 -84 81q0 15 3 30.5t10.5 33.5t13.5 31t18.5 33t18 29t19.5 30t17 25l85 127q89 136 89 194q0 25 -17 38.5t-42 13.5
q-96 0 -202 -100q-50 -48 -89.5 -111.5t-39.5 -119.5q0 -30 17.5 -48.5t46.5 -18.5q28 0 54 14.5t42.5 30.5t18.5 17q2 -2 2 -4q0 -3 -9 -12q-6 -5 -23 -28q-21 -26 -56 -46.5t-65 -20.5q-41 0 -61.5 25t-20.5 66q0 74 50.5 149t118.5 127q52 39 119.5 68t122.5 29
q46 0 74.5 -22t28.5 -67q0 -50 -40 -123.5t-88 -136.5t-88 -132.5t-40 -111.5q0 -24 13.5 -37.5t37.5 -13.5q51 0 119.5 56.5t115.5 115.5q64 77 121.5 180.5t57.5 176.5q0 16 -7 33t-20 19q-1 0 -6 0.5t-8 1t-6 2.5t-3 6q0 21 16 36.5t37 15.5q25 0 39 -18t14 -44z" />
    <glyph glyph-name="W" unicode="W" horiz-adv-x="880" 
d="M986 613q0 -60 -49 -138t-107.5 -138.5t-134 -135.5t-102.5 -107q-36 -43 -54 -80q-7 -10 -9 -10q-7 0 -7 6q0 2 2 8q35 80 51 168l27 135q7 37 58 160l-27 -34q-119 -149 -157 -190q-39 -40 -99 -90l-71 -60q-77 -66 -90 -99q0 -1 -1.5 -6.5t-4 -7.5t-7.5 -2q-8 0 -8 9
q0 19 37 86q5 10 16 30.5t17 30.5q23 39 58 93q85 129 122 244q17 53 17 86q0 40 -20 66.5t-59 26.5q-63 0 -133 -52.5t-116 -127.5t-46 -137q0 -41 19.5 -66t59.5 -25q28 0 64 15.5t53 36.5q17 24 27 25q2 0 2 -3q0 -10 -20 -30q-3 -2 -18 -15t-19 -16t-17.5 -13.5t-20 -14
t-19 -10t-22 -9t-22 -5t-24.5 -2.5q-42 0 -68 27.5t-26 69.5q0 80 57.5 166t144.5 142.5t167 56.5q61 0 97 -34t36 -96q0 -56 -28 -121.5t-58 -108.5t-76 -101l-70 -91q33 23 64 48q126 104 256 279q9 12 27 37.5t30 42t29 37.5t32 36q24 24 28 24q3 0 3 -3q0 -5 -8 -13
q-19 -20 -33 -54.5t-19.5 -57t-13.5 -63.5q-19 -105 -32 -149q-18 -60 -62 -159q6 6 32 32.5t33.5 34.5t30.5 31.5t33 35t29 32.5t31.5 36t28 34.5t28.5 37.5q73 100 73 180q0 13 -6 23t-18 10q-2 0 -6 -0.5t-6 -0.5q-6 0 -6 11q0 18 15 34.5t33 16.5q26 0 39 -19t13 -46z
" />
    <glyph glyph-name="X" unicode="X" horiz-adv-x="751" 
d="M913 637q0 -13 -12 -31.5t-23 -18.5q-6 0 -6 5q0 6 -1 9q-6 33 -43 33q-105 0 -244 -185q-85 -111 -119 -224q-18 -62 -18 -100q0 -32 13 -57t42 -25q20 0 43 12t37 23t38.5 34t29.5 27q32 30 41 49q1 1 4.5 7.5t7 11.5t6.5 5q6 0 6 -5l-1 -2q-2 -7 -13 -21t-25 -30.5
t-17 -19.5q-43 -51 -98 -91t-105 -40q-82 0 -82 111q0 34 4 61q-49 -49 -59 -58q-148 -128 -300 -128q-45 0 -86 21.5t-41 62.5q0 21 16.5 37t37.5 16q38 0 38 -29q0 -8 -13 -17t-13 -24q0 -24 26 -38.5t51 -14.5q62 0 127.5 40.5t116.5 96.5q80 85 150.5 214.5t70.5 223.5
q0 35 -17.5 58t-51.5 23q-25 0 -64 -14.5t-64 -30.5q-58 -39 -102.5 -103t-44.5 -125q0 -39 22.5 -65t61.5 -26q63 0 120 64q0 1 2 2l2 1q1 -1 1 -3q0 -9 -27 -36q-21 -26 -62.5 -47t-73.5 -21q-45 0 -69.5 25.5t-24.5 71.5q0 75 53.5 151.5t133 124t153.5 47.5q60 0 89 -36
t29 -97v-30q0 -10 -2 -30q193 177 303 177q46 0 46 -22z" />
    <glyph glyph-name="Y" unicode="Y" horiz-adv-x="789" 
d="M915 639q-79 -128 -174 -277q-19 -30 -54.5 -87.5t-54.5 -86.5q-122 -186 -172 -248q-71 -88 -165.5 -139.5t-200.5 -51.5q-39 0 -58 4q-30 6 -52.5 25.5t-22.5 48.5q0 23 17 39t40 16q16 0 26 -8.5t10 -23.5q0 -7 -13.5 -13t-13.5 -20q0 -30 27.5 -42.5t61.5 -12.5
q99 0 198 103q16 16 30.5 33.5t30.5 38t27 35t28 39.5t25 37t26 41.5t23.5 38t25 41.5t23.5 39q-73 -80 -121 -124q-88 -82 -167 -82q-69 0 -69 83q0 31 24 78t38.5 67t49.5 67q7 9 29.5 38.5t32 42t28 38.5t29 43t23.5 41t22 46q13 28 13 53q0 26 -16 40t-43 14
q-67 0 -149 -55.5t-138.5 -136.5t-56.5 -148q0 -30 17 -48.5t47 -18.5q26 0 52.5 14.5t43 29t17.5 14.5q3 0 3 -3q0 -4 -4 -9.5t-10 -12.5l-6 -7q-61 -70 -139 -70q-83 0 -83 93q0 54 38.5 116t88.5 112q60 58 141.5 100t153.5 42q48 0 80.5 -23t32.5 -70q0 -37 -28 -90.5
t-68 -107t-80.5 -106.5t-68.5 -101t-28 -78q0 -43 42 -43q34 0 83.5 36.5t81.5 71t62 72.5q118 150 268 401q48 1 96 12z" />
    <glyph glyph-name="Z" unicode="Z" horiz-adv-x="749" 
d="M126 70q-80 37 -134 37q-27 0 -53 -12t-26 -37q0 -22 20 -32.5t45 -10.5q71 0 148 55zM854 642q0 13 -11.5 20t-25.5 7q-33 0 -67 -15t-55 -39q20 -11 64 -11q95 0 95 38zM888 650q0 -6 -2.5 -12t-8.5 -11t-11 -8.5t-14.5 -7.5t-13.5 -6t-13.5 -5.5t-10.5 -3.5
q-54 -18 -160 -20q-65 -68 -127 -153q-118 -163 -160 -211q-52 -58 -125 -117q157 -66 231 -66q46 0 90 41q30 28 58 80.5t28 88.5q0 5 -2.5 15t-2.5 15q0 2 2 4q12 0 18 -22.5t6 -39.5q0 -66 -52 -120t-121 -78q-55 -19 -108 -19q-39 0 -80.5 9t-67.5 19t-75 30
q-109 -49 -190 -49q-36 0 -70 10t-34 38q0 23 21.5 39.5t54 24t59 10.5t47.5 3q41 0 127 -16q52 43 80 73q48 52 137 176q49 67 74 96q44 49 124 124q-15 2 -62 11t-78.5 13t-62.5 4q-55 0 -110 -17t-98 -58t-43 -98q0 -30 14.5 -50t42.5 -20q10 0 21.5 5t13.5 5q5 0 5 -8
q0 -20 -19 -33.5t-40 -13.5q-31 0 -48 25.5t-17 58.5q0 52 47 117q47 64 118.5 105t145.5 41q48 0 224 -44q114 54 180 54q17 0 37.5 -7t20.5 -21z" />
    <glyph glyph-name="bracketleft" unicode="[" horiz-adv-x="354" 
d="M485 637h-64l-410 -600h65l-25 -37h-135l458 667h133z" />
    <glyph glyph-name="backslash" unicode="\" horiz-adv-x="452" 
d="M222 42q0 -42 -43 -42q-8 0 -10.5 3t-2.5 11q0 6 0.5 15t0.5 15q0 64 -19 123q-14 41 -28 71q-34 79 -86 180q-21 42 -42 101t-21 91q0 16 7.5 21.5t23.5 5.5q18 0 18 -11q0 -4 -1.5 -13t-1.5 -13q0 -33 20 -106q3 -13 7.5 -26.5t8.5 -24t10 -25t9.5 -23.5t11.5 -25
l11.5 -23t12.5 -24t12 -22.5t13.5 -24.5t12.5 -23q26 -47 37.5 -69.5t25 -64.5t13.5 -77z" />
    <glyph glyph-name="bracketright" unicode="]" horiz-adv-x="354" 
d="M-13 0h-132l21 30h64l410 599h-65l26 38h134z" />
    <glyph glyph-name="asciicircum" unicode="^" 
d="M407 378l-158 245l-157 -245h-60l182 289h72l182 -289h-61z" />
    <glyph glyph-name="underscore" unicode="_" 
d="M0 -125v51h500v-51h-500z" />
    <glyph glyph-name="grave" unicode="`" 
d="M310 439q0 -4 -4 -4q-5 0 -31 34q-3 4 -11.5 15.5t-13.5 18.5q-23 32 -50 83q-1 2 -10 18h74q0 -63 16 -98l13 -31q4 -17 10 -23q7 -7 7 -13z" />
    <glyph glyph-name="a" unicode="a" horiz-adv-x="424" 
d="M218 290q0 37 -30 37q-43 0 -109.5 -70t-100.5 -127q-23 -40 -23 -66q0 -15 10 -25t25 -10q35 0 88 53q45 47 68 82l32 50l32 49q8 14 8 27zM373 191q0 -5 -19 -28t-44 -50t-28 -31l-15 -15l-18 -18t-17.5 -16.5t-21 -16.5t-20 -12t-22 -10t-21.5 -3q-24 0 -37.5 14.5
t-13.5 39.5q0 15 11 52l-20 -20l-25 -25t-24 -21.5t-29 -21.5t-26.5 -12t-29.5 -6q-33 0 -49 22t-16 57q0 84 100 172q113 98 192 98q55 0 55 -47l28 40h77l-156 -230q-22 -30 -22 -59q0 -24 20 -24q21 0 45 22q30 25 73.5 71.5t56.5 69.5q1 1 2 3l1.5 3t2 2.5t3 2.5t3.5 1
q4 0 4 -4z" />
    <glyph glyph-name="b" unicode="b" horiz-adv-x="373" 
d="M194 284q0 35 -30 35q-55 0 -137.5 -110.5t-82.5 -170.5q0 -14 11 -23.5t26 -9.5q58 0 135.5 109t77.5 170zM260 262q0 -77 -74 -159q-37 -41 -99.5 -76.5t-110.5 -35.5q-39 0 -62 22t-23 61q0 26 19 67.5t39 72.5l216 321q18 27 18 39q0 11 -1 18h77q1 -3 1 -9v-8
q0 -17 -21 -48l-170 -252q70 63 123 63q31 0 49.5 -22t18.5 -54z" />
    <glyph glyph-name="c" unicode="c" horiz-adv-x="294" 
d="M244 190q0 -3 -2.5 -7.5t-6 -9.5t-4.5 -6q-45 -68 -118 -121.5t-143 -53.5q-82 0 -82 88q0 64 62.5 126t135.5 100q58 29 107 29q48 0 48 -27q0 -8 -13 -26.5t-20 -18.5q-5 0 -5 10q-6 43 -41 43q-12 0 -25.5 -6.5t-28.5 -21t-24 -23t-24.5 -27t-16.5 -19.5
q-75 -96 -75 -151q0 -43 49 -43q47 0 86 27t83 74q3 3 15 16t19.5 22.5t12.5 18.5q3 10 8 10q3 0 3 -3z" />
    <glyph glyph-name="d" unicode="d" horiz-adv-x="436" 
d="M217 288q0 39 -32 39q-34 0 -89.5 -51t-97.5 -115t-42 -99q0 -17 9 -28t25 -11q30 0 85 55q35 35 45 48q6 8 47 71l43 65q7 10 7 26zM495 575q0 -15 -22 -48l-259 -384q-45 -66 -45 -99q0 -24 20 -24q21 0 38 13q53 41 120 119q14 15 23 30q10 13 12 13q4 0 4 -4
q0 -8 -38 -52t-56 -62q-25 -25 -41 -39t-44.5 -30.5t-52.5 -16.5q-51 0 -51 47q0 14 6 38t7 29q-11 -12 -35 -36q-73 -81 -121 -81q-34 0 -53.5 19.5t-19.5 53.5q0 72 53.5 134.5t128.5 105.5q69 38 109 38q25 0 37 -10t21 -35l157 232q21 31 23 46q1 8 -1 20h79q1 -3 1 -9
v-8z" />
    <glyph glyph-name="e" unicode="e" horiz-adv-x="286" 
d="M191 310q0 19 -23 19q-8 0 -18.5 -5t-17 -10t-17 -15t-13.5 -12q-66 -61 -105 -120q85 14 138 59q19 14 37.5 39.5t18.5 44.5zM237 191q0 -6 -12 -22t-29.5 -35t-19.5 -22q-51 -57 -96.5 -89t-103.5 -32q-90 0 -90 83q0 57 51 120.5t121.5 104.5t126.5 41q49 0 49 -33
q0 -36 -50 -72t-102.5 -55.5t-90.5 -27.5q-32 -58 -32 -86q0 -46 52 -46q66 0 156 97q4 5 13.5 15t15.5 16.5t13 15.5t11 16q1 1 3 5t4.5 6.5t5.5 2.5q4 0 4 -3z" />
    <glyph glyph-name="f" unicode="f" horiz-adv-x="193" 
d="M480 639q0 -15 -16.5 -32t-32.5 -17q-2 2 -2 3v4q0 3 3 9t3 9q0 12 -8.5 19.5t-20.5 7.5q-48 0 -102 -58q-12 -13 -25 -28.5t-23.5 -28.5t-24 -32.5t-21 -30.5t-22 -34t-20 -31.5t-21 -34t-19.5 -31.5h108l-7 -14h-109q-25 -37 -92.5 -140t-105.5 -159q-3 -4 -24.5 -35
t-28.5 -40l-24.5 -31.5t-32.5 -37.5t-32 -28q-38 -32 -95 -55.5t-102 -23.5h-24q-9 0 -25 2q-24 3 -45 15t-21 33q0 15 13 26.5t28 11.5q24 0 24 -18q0 -6 -7.5 -13.5t-7.5 -14.5q0 -18 21.5 -25.5t42.5 -7.5q54 0 112 47q49 41 110 138q59 94 113 173q41 61 121 183h-75
l7 14h78q44 68 69.5 104.5t71 85t94.5 81.5q86 56 151 56q46 0 46 -21z" />
    <glyph glyph-name="g" unicode="g" horiz-adv-x="382" 
d="M206 291q0 32 -28 32q-46 0 -104 -58q-123 -138 -123 -206q0 -15 8.5 -25t22.5 -10q67 0 153 133q2 3 23.5 35t34.5 57t13 42zM143 48q-7 -10 -29.5 -44.5t-31.5 -47t-30.5 -42.5t-34.5 -42.5t-35.5 -35t-41.5 -32.5t-44 -22t-52 -16.5t-57 -4.5q-32 0 -62 13t-30 42
q0 15 11.5 27t26.5 12q9 0 17 -5.5t8 -14.5q0 -7 -6 -13.5t-6 -14.5q0 -18 21 -27t42 -9q33 0 68 20q17 9 32.5 22.5t30.5 32.5t24 32t25 38t22 33q67 102 82 130q-30 -29 -45 -42t-46.5 -30.5t-58.5 -17.5q-30 0 -45 20t-15 52q0 45 30 96.5t70 86.5q40 34 93 64.5t91 30.5
q25 0 37.5 -10.5t18.5 -35.5l28 40h83z" />
    <glyph glyph-name="h" unicode="h" horiz-adv-x="419" 
d="M363 189q0 -18 -98 -116q-28 -26 -43 -38.5t-43 -26t-55 -13.5q-48 0 -48 54q0 32 36 80.5t71.5 95t35.5 72.5q0 20 -18 20q-19 0 -39 -13q-35 -19 -75.5 -57.5t-65.5 -74.5l-116 -172h-80l363 538q17 27 17 40q0 2 -3 14h82q3 -12 3 -15q0 -12 -20 -43l-195 -287
q36 31 52.5 44.5t52.5 33t63 19.5q51 0 51 -50q0 -16 -9 -36t-18 -32t-27 -34.5t-21 -26.5q-69 -89 -69 -115q0 -21 26 -21q7 0 15.5 3t15 6.5t16 10.5t14.5 11t14 12t11 10q66 58 87 97q8 14 14 14q3 0 3 -4z" />
    <glyph glyph-name="i" unicode="i" horiz-adv-x="207" 
d="M155 192q0 -10 -20 -34.5t-46.5 -51.5t-28.5 -30q-80 -86 -132 -86q-27 0 -45 13.5t-18 39.5q0 34 35 87l101 150q17 22 17 36q0 2 -3 17h85q1 -3 1 -14q0 -14 -20 -40l-116 -172q-26 -41 -26 -64q0 -24 16 -24q39 0 162 132q21 24 24 31q1 1 2.5 5t3.5 6t5 2t3 -3z
M233 577q0 -27 -23 -52t-50 -25q-36 0 -36 38q0 24 26.5 46.5t51.5 22.5q31 0 31 -30z" />
    <glyph glyph-name="j" unicode="j" horiz-adv-x="178" 
d="M111 333q0 -21 -3 -30t-16 -28l-224 -331q-42 -61 -82 -94q-106 -88 -235 -88q-40 0 -75.5 14.5t-35.5 48.5q0 16 11.5 27t27.5 11q27 0 27 -23q0 -6 -9 -13t-9 -17q0 -18 22.5 -27.5t43.5 -9.5q52 0 105.5 35.5t89.5 83.5q40 54 59 82l204 303q1 2 5 7.5t5 8t4 7t3.5 8
t1.5 7.5t1 8.5t-1 9.5h80zM242 574q0 -26 -24.5 -51t-50.5 -25q-33 0 -33 31q0 27 23.5 52t50.5 25q15 0 24.5 -8.5t9.5 -23.5z" />
    <glyph glyph-name="k" unicode="k" horiz-adv-x="403" 
d="M352 191q0 -7 -41.5 -56t-51.5 -59q-76 -84 -134 -84q-25 0 -41.5 13t-16.5 37q0 22 39 75t39 83q0 12 -5.5 14.5t-18.5 2.5q-69 0 -122 -78l-93 -139h-81l368 545q14 18 14 34q0 3 -2 13h77q2 -10 2 -14q0 -20 -14 -39l-220 -326q49 15 93 50q4 3 20 15.5t25 19
t25.5 17.5t28.5 17t26.5 10.5t26.5 4.5q22 0 22 -14q0 -10 -13 -28t-24 -18q-5 0 -11.5 9.5t-21.5 9.5q-6 0 -25 -7q-45 -18 -126 -77q40 8 48 8q68 0 68 -46q0 -20 -35 -72.5t-35 -72.5q0 -19 17 -19q10 0 21.5 5t25 16t24 20t25.5 25.5t22 24t20.5 24t14.5 17.5
q3 3 10.5 13.5t14.5 19.5t10 10h1q4 0 4 -4z" />
    <glyph glyph-name="l" unicode="l" horiz-adv-x="205" 
d="M266 577q0 -15 -15 -39l-284 -420q-29 -46 -29 -70t22 -24q11 0 26 8t24 15t26 22.5t18 16.5q71 71 85 97q7 12 13 12q3 0 3 -2q0 -9 -23.5 -37.5t-38.5 -43.5q-113 -122 -173 -122q-27 0 -42.5 15.5t-15.5 42.5q0 38 37 91l277 411q13 18 13 28q0 7 -4 14h79
q2 -14 2 -15z" />
    <glyph glyph-name="m" unicode="m" horiz-adv-x="614" 
d="M564 189q0 -4 -6.5 -13t-15 -18.5t-10.5 -12.5q-34 -43 -103 -106q-53 -49 -97 -49q-26 0 -45 12t-19 36q0 29 70.5 125.5t70.5 127.5q0 23 -20 23q-30 0 -80.5 -44.5t-72.5 -79.5l-128 -190h-80l160 238l9 12t9.5 13t6.5 13t3 16q0 23 -23 23q-19 0 -38.5 -11t-48 -35
t-31.5 -26q-17 -9 -22 -19l-151 -224h-80l193 285q13 20 13 48h82q0 -1 0.5 -4t0.5 -5q0 -11 -8.5 -26t-23 -34.5t-15.5 -21.5q99 99 168 99q47 0 47 -46q0 -19 -20 -63q96 108 173 108q56 0 56 -50q0 -17 -12 -36q-12 -16 -33 -48.5t-32 -48.5q-8 -13 -24.5 -38t-24.5 -37
q-16 -25 -16 -39q0 -9 6.5 -15t15.5 -6q25 0 55 26q5 5 28 27t40 38.5t34.5 37t23.5 31.5q1 1 2.5 4.5t3.5 5.5t5 2q4 0 4 -5z" />
    <glyph glyph-name="n" unicode="n" horiz-adv-x="415" 
d="M363 189q-28 -37 -31 -40q-37 -52 -100 -103.5t-112 -51.5q-50 0 -50 46q0 29 38 82t75.5 102t37.5 68q0 22 -24 22q-9 0 -19.5 -3t-21.5 -9t-19.5 -11t-20 -15t-17.5 -15t-17.5 -15.5t-13.5 -12.5q-1 -1 -6.5 -5.5t-9.5 -9.5l-5 -4l-144 -214h-81l201 297q15 19 9 36h81
q0 -23 -13 -38l-44 -57q1 1 14 12.5t16 14t16 13.5t18 15t17.5 13t19.5 12.5t18.5 10t20 9t19 4.5t19.5 2q25 0 41.5 -12.5t16.5 -36.5q0 -31 -36.5 -82.5t-73 -98.5t-36.5 -69q0 -19 18 -19q35 0 95.5 58t86.5 98q1 1 3 4.5t4 5.5t4 2q6 0 6 -5z" />
    <glyph glyph-name="o" unicode="o" horiz-adv-x="377" 
d="M220 292q0 35 -32 35q-39 0 -95 -52t-96 -118t-40 -105q0 -41 43 -41q9 0 18 2.5t17 5.5t17.5 10t15.5 11.5t16 14.5l14.5 14.5t14 16.5t12 15.5t12 16t10.5 13.5q73 100 73 161zM265 263q0 -70 -73 -155q-42 -47 -99.5 -85.5t-107.5 -38.5q-42 0 -70 21t-28 61
q0 60 48 125t118 106.5t130 41.5q42 0 62 -17.5t20 -58.5z" />
    <glyph glyph-name="p" unicode="p" horiz-adv-x="396" 
d="M218 280q0 38 -29 38q-34 0 -82 -48q-16 -16 -36 -41q-40 -46 -84 -110q-2 -3 -8 -11.5t-8.5 -12t-7 -11t-6.5 -13t-3.5 -12.5t-1.5 -14q0 -18 12 -28.5t30 -10.5q38 0 92 53t93 118.5t39 102.5zM285 267q0 -45 -29.5 -96.5t-68.5 -87.5q-90 -88 -192 -88q-26 0 -40 7.5
t-29 29.5l-178 -262h-80l355 527q14 23 14 27q0 1 -2 9h82q1 -3 1 -11q0 -5 -39 -67q88 88 143 88q31 0 47 -21.5t16 -54.5z" />
    <glyph glyph-name="q" unicode="q" horiz-adv-x="389" 
d="M211 292q0 35 -26 35q-58 0 -147.5 -103.5t-89.5 -162.5q0 -34 32 -34q51 0 138 110q3 4 19.5 24.5t25.5 33t22 32t19.5 36t6.5 29.5zM-45 -230h-79l210 312q-87 -87 -141 -87q-31 0 -47.5 18.5t-16.5 49.5q0 47 32 98t74 88q36 32 92.5 60.5t96.5 28.5q27 0 39 -11
t12 -37l30 43h80z" />
    <glyph glyph-name="r" unicode="r" horiz-adv-x="254" 
d="M201 193q0 -12 -54.5 -72t-79.5 -82q-47 -43 -86 -43q-26 0 -43 13.5t-17 38.5q0 11 3 22t9.5 23.5t12 22t16.5 23t16.5 20t17.5 20.5t15 17q51 54 91 83q-32 -8 -40 -8q-19 0 -38 16q-42 -47 -76 -96q-9 -9 -10 -9q-4 0 -4 4t7 11q3 3 16 24q7 11 23 33q32 44 56 88
q24 -23 59 -23q19 0 85 17q-74 -81 -147 -191q-32 -45 -32 -73q0 -32 25 -32q9 0 20.5 5.5t25.5 17t21.5 18.5t22.5 23l15 15q45 45 55 65q1 1 2.5 3.5t2.5 4.5t2.5 3.5t3.5 1.5q4 0 4 -4z" />
    <glyph glyph-name="s" unicode="s" horiz-adv-x="257" 
d="M110 343q-9 -55 -9 -158q0 -79 -53 -136t-131 -57h-32q-55 0 -55 25q0 10 11 25.5t20 15.5q4 0 4 -5t-1.5 -13t-1.5 -13q0 -9 9.5 -17t19.5 -8q13 0 31.5 8.5t29.5 18.5q37 33 59 94t22 116q0 41 -4 73q-1 -1 -14 -22.5t-27 -44t-28.5 -41.5t-18.5 -19q-3 0 -3 2
q0 7 8 15q55 80 76 130q45 0 88 11z" />
    <glyph glyph-name="t" unicode="t" horiz-adv-x="218" 
d="M219 319h-111l-134 -197q-2 -2 -9.5 -11.5t-10 -14t-7.5 -13t-7 -15.5t-2 -15q0 -15 8.5 -24.5t22.5 -9.5q29 0 62 33q26 24 62.5 64.5t52.5 63.5q0 1 2.5 5t5 6t5.5 2q4 0 4 -5q0 -6 -25 -36t-36 -41q-2 -3 -17 -19.5t-22.5 -24l-23 -23t-26.5 -23.5t-25.5 -18
t-27.5 -14.5t-25 -4.5q-32 0 -53 16.5t-21 48.5q0 23 34 75l131 194h-57l5 15h64l62 93q19 29 21 48h75v-11q0 -13 -19 -43l-59 -87h109z" />
    <glyph glyph-name="u" unicode="u" horiz-adv-x="399" 
d="M348 187q0 -5 -26 -35.5t-35 -39.5q-1 -1 -17 -19.5t-21.5 -24t-21 -22t-25.5 -23t-24.5 -16.5t-28 -14t-26.5 -4q-26 0 -43 14t-17 39q0 24 22 66q-33 -35 -49.5 -52t-52.5 -41.5t-63 -24.5q-28 0 -45.5 14t-17.5 41q0 10 4 21.5t8 21t13 23.5t13.5 20.5t15 21
t11.5 15.5q12 19 37.5 56.5t38.5 56.5q14 22 14 38q0 3 -1.5 8t-1.5 6h83v-11q0 -22 -17 -48q-13 -19 -39.5 -57.5t-39.5 -58.5q-59 -77 -59 -112q0 -11 7.5 -18t18.5 -7q22 0 79 57q29 25 42 40t36 50l79 117q15 24 15 38q0 2 -2 10h81v-13q0 -11 -24 -49
q-13 -19 -38.5 -57.5t-39.5 -58.5q-2 -3 -14.5 -20t-20.5 -29t-16 -28t-8 -25q0 -31 31 -31q18 0 38 16q22 19 107 114q15 15 24 29q1 1 2.5 4t3.5 4.5t4 1.5q6 0 6 -4z" />
    <glyph glyph-name="v" unicode="v" horiz-adv-x="317" 
d="M245 332q0 -27 -16.5 -64t-29 -56.5t-37.5 -55.5q-48 -65 -77 -92q-27 -23 -43 -35t-44.5 -25.5t-52.5 -13.5q-30 0 -47 19t-17 49q0 36 34 93.5t68 107t34 64.5q0 2 -1 6l-2 4h78q3 -9 3 -11q0 -16 -35 -67t-70.5 -110t-35.5 -93q0 -15 9.5 -23.5t24.5 -8.5
q41 0 93 55.5t86 123t34 106.5q0 8 -4 16.5t-4 9.5q0 3 1 4q3 8 12.5 14t18.5 6q20 0 20 -23z" />
    <glyph glyph-name="w" unicode="w" horiz-adv-x="502" 
d="M425 317q0 -28 -26 -77.5t-50 -81.5q-122 -166 -218 -166q-27 0 -43 14t-16 40q0 22 14 68q-69 -74 -106 -98q-36 -22 -66 -22q-23 0 -34 17t-11 42q0 11 3.5 23t7 21.5t11.5 23t12.5 20.5t14.5 21t13 18l71 105q14 22 14 38q0 2 -2 10h84q1 -2 1 -10q0 -15 -81 -130.5
t-81 -139.5q0 -26 24 -26q26 0 73.5 49t72.5 85l78 115q22 35 22 57h80q2 -8 2 -11q0 -6 -27.5 -49.5t-55 -83.5t-28.5 -41q-39 -55 -39 -91q0 -37 32 -37q28 0 63 30t60 64q25 35 54 88.5t29 79.5q0 7 -2 15t-4 13t-2 6q14 29 37 29q19 0 19 -28z" />
    <glyph glyph-name="x" unicode="x" horiz-adv-x="365" 
d="M318 309q0 -12 -15.5 -31t-27.5 -19q-3 0 -4 1q-9 11 -15 13.5t-22 2.5q-10 0 -23 -5q-28 -11 -56 -33.5t-43 -38.5t-43 -50q0 -7 -0.5 -20t-0.5 -20q0 -83 41 -83q32 0 65 26q29 23 71.5 64.5t54.5 64.5q1 1 2 3l1.5 3t2 2.5t3 2.5t3.5 1q4 0 4 -4q0 -17 -96 -113
q-83 -83 -147 -83q-42 0 -58 26.5t-19 72.5q-70 -96 -137 -96q-30 0 -30 28q0 18 14.5 31.5t32.5 13.5q6 0 9 -4.5t3 -10.5t6 -10.5t19 -4.5q25 0 83 69q7 95 34 198q-6 -11 -26 -40q-2 -3 -17.5 -23.5t-21.5 -32.5q-12 -28 -27 -28q-3 0 -3 3q0 6 20 31q11 13 22.5 30
t25.5 41t20 33h26q23 0 63 16q-36 -108 -43 -170q151 169 213 169q36 0 36 -26z" />
    <glyph glyph-name="y" unicode="y" horiz-adv-x="365" 
d="M300 333v-9q0 -6 -1 -9q-4 -19 -34 -60l-222 -331q-59 -90 -151 -132q-69 -33 -143 -33q-21 0 -41 3.5t-38.5 16.5t-18.5 34q0 16 10.5 26.5t26.5 10.5q25 0 25 -20q0 -3 -6.5 -10.5t-6.5 -16.5q0 -16 18.5 -25.5t36.5 -9.5q32 0 72 19q69 33 151 152l110 163
q-104 -109 -165 -109q-25 0 -40 14t-15 40q0 39 57 126l68 101q23 36 25 43q1 1 1 16h83q0 -18 -25 -57l-78 -116q-55 -83 -55 -109q0 -21 23 -21q31 0 80 44.5t71 79.5l76 113q31 45 26 66h80z" />
    <glyph glyph-name="z" unicode="z" horiz-adv-x="348" 
d="M320 335q0 -2 -2.5 -4.5t-6 -4.5t-4.5 -3q-23 -16 -38 -31q-3 -3 -32 -37q-17 -22 -52 -51q-50 -46 -79 -63.5t-92 -39.5q-90 -30 -138 -78q75 25 105 25q20 0 56.5 -10t59.5 -10q36 0 65 24q25 20 67 64.5t51 63.5q1 1 2 3t1.5 3.5t2 3t3 2.5t3.5 1q4 0 4 -5t-7 -15.5
t-16.5 -21.5t-11.5 -13q-22 -25 -61 -68q-38 -41 -70.5 -60.5t-79.5 -19.5q-37 0 -80 8q-38 8 -68 8q-31 0 -48 -8q-7 -5 -13 -5q-8 0 -8 7q0 4 34 38q50 59 130 115.5t153 84.5q2 0 18 6.5t17 6.5q47 19 66 48q-51 -23 -118 -23q-6 0 -18.5 1t-19.5 1q-96 0 -146 -90
q-8 -8 -9 -8q-4 0 -4 4t6.5 14.5t15 23t9.5 13.5q10 13 44 58q36 48 129 48q27 0 77 -13q5 -1 55 -1q10 0 20 7t15 7q3 0 4 -1q9 0 9 -5z" />
    <glyph glyph-name="braceleft" unicode="{" horiz-adv-x="277" 
d="M242 -169q-75 0 -104 33.5t-29 110.5v162q0 39 -12 60.5t-46 32.5v42q33 9 45.5 30t12.5 59v177q0 69 31.5 100.5t100.5 31.5q4 0 9 -0.5t8 -0.5v-48q-54 -2 -74 -20t-20 -70v-172q0 -44 -12.5 -68.5t-49.5 -41.5q36 -16 49 -42t13 -69v-165q0 -54 19.5 -73t74.5 -21v-48
h-16z" />
    <glyph glyph-name="bar" unicode="|" 
d="M223 -167v834h54v-834h-54z" />
    <glyph glyph-name="braceright" unicode="}" horiz-adv-x="277" 
d="M228 227q-34 -11 -45.5 -31.5t-11.5 -58.5v-162q0 -77 -29 -110.5t-105 -33.5h-16v48q56 2 75.5 20t19.5 74v165q0 43 12.5 68.5t48.5 42.5q-37 18 -49 42t-12 68v172q0 52 -20.5 70t-74.5 20v48h17q69 0 101 -31t32 -100v-177q0 -39 11.5 -60.5t45.5 -32.5v-41z" />
    <glyph glyph-name="asciitilde" unicode="~" horiz-adv-x="667" 
d="M622 429q-72 -118 -166 -118q-46 0 -131.5 43.5t-125.5 43.5q-27 0 -50.5 -14.5t-36.5 -31.5t-30 -44l-37 23q23 39 39.5 61t48 40.5t70.5 18.5q47 0 135.5 -43.5t127.5 -43.5q28 0 51 14t36 29.5t31 43.5z" />
    <glyph glyph-name="exclamdown" unicode="&#xa1;" horiz-adv-x="265" 
d="M153 211q0 -1 -32 -54.5t-36 -58.5q-18 -30 -64 -119t-79 -134q-1 -2 -8 -11.5t-12 -16t-13.5 -16.5t-16 -17t-15.5 -14.5t-15.5 -11t-14.5 -3.5q-27 0 -27 25q0 62 154 226l9 9q23 23 85 96q2 3 14 17.5t13 16.5q8 10 21 29.5t20 28.5q8 11 14 11q3 0 3 -3zM250 316
q0 -24 -21.5 -48.5t-45.5 -24.5q-31 0 -31 31q0 25 22 49t46 24q30 0 30 -31z" />
    <glyph glyph-name="cent" unicode="&#xa2;" horiz-adv-x="453" 
d="M259 324q-35 -14 -79 -52.5t-66 -73.5q-5 -9 -13 -25.5t-11 -21.5q-29 -54 -29 -84q0 -17 8 -30zM359 213q0 -3 -24 -33t-31 -37q-85 -99 -164 -137q-31 -15 -75 -16l-43 -64h-30l46 69q-52 15 -52 80q0 31 20.5 70.5t46.5 70.5q44 55 107 89q48 26 113 38l49 60h30
l-47 -62q33 -14 33 -30q0 -9 -15.5 -28t-23.5 -19q-4 0 -4 8q0 26 -10 41l-196 -291q9 -4 21 -4q25 0 81 31q55 33 131 126q19 22 22 27q1 1 2.5 3.5t2.5 4.5t2.5 4t3.5 2q4 0 4 -3z" />
    <glyph glyph-name="sterling" unicode="&#xa3;" horiz-adv-x="515" 
d="M19 50q-22 13 -58 13q-16 0 -39.5 -10.5t-23.5 -23.5q0 -20 40 -20q47 0 81 41zM592 535q0 -46 -36 -97t-79 -67q-44 -22 -62 -22q-5 0 -5 4q0 5 17 11q14 6 37 24q32 25 60 66.5t28 75.5q0 54 -38 54q-17 0 -34.5 -7t-35.5 -22.5t-33.5 -31t-33.5 -40.5t-30 -43t-29 -47
t-25 -43t-22 -40.5t-17 -31.5h101l-5 -13l-106 -4q-22 -32 -57 -89q-32 -49 -77 -97q105 -31 153 -31q76 0 100 42q1 1 2.5 4t3.5 5t4 2q7 0 7 -5t-10 -19l-10 -14q-22 -30 -61 -48.5t-77 -18.5q-12 0 -23.5 1t-25 4l-22.5 5t-24.5 7.5t-22 7.5t-24 8.5t-21.5 8.5
q-74 -41 -138 -41q-20 0 -42 8t-22 24q0 27 54.5 45t89.5 18q27 0 48 -4q21 22 61 91q23 38 47 89h-88l6 13l93 2q93 167 189 248q86 72 160 72q33 0 54 -16.5t21 -47.5z" />
    <glyph glyph-name="currency" unicode="&#xa4;" horiz-adv-x="623" 
d="M490 341q0 75 -52.5 127.5t-126.5 52.5t-126 -52.5t-52 -126.5t52 -126.5t126 -52.5t126.5 52t52.5 126zM550 74l-93 93q-65 -53 -145 -53q-72 0 -144 51l-92 -91l-32 32l92 91q-54 65 -54 145q0 74 52 142l-92 92l31 32l93 -92q69 54 145 54q78 0 145 -53l92 91l32 -32
l-91 -91q52 -70 52 -144q0 -75 -53 -142l93 -93z" />
    <glyph glyph-name="yen" unicode="&#xa5;" horiz-adv-x="921" 
d="M960 639q-34 -52 -93 -147.5t-81 -130.5q-87 -136 -124 -200h154l-26 -38h-149l-33 -44h153l-22 -39h-155q-11 -15 -34 -45t-35 -46q-35 -44 -59.5 -67.5t-66.5 -50.5q-129 -82 -250 -82q-23 0 -43 3t-42.5 10.5t-35.5 24t-13 40.5q0 23 17.5 39t39.5 16q37 0 37 -32
q0 -7 -13.5 -13.5t-13.5 -19.5q0 -30 27.5 -42.5t61.5 -12.5q102 0 198 103q42 44 84 102t72 105.5t70 113.5l4.5 7.5t4 7t4.5 7.5q-73 -80 -121 -124q-88 -82 -168 -82q-24 0 -35 8t-25 30h-281l25 39h249q-1 3 -1 14q0 14 9 30h-227l21 38h220q15 21 44 67t45 69
q7 10 43 58t61.5 84t49 83t23.5 78q0 26 -16.5 39.5t-43.5 13.5q-68 0 -149.5 -55.5t-137.5 -136.5t-56 -148q0 -31 17 -49t47 -18q26 0 52 14.5t42 29t19 14.5q2 0 2 -3q0 -5 -19 -29q-61 -70 -139 -70q-83 0 -83 92q0 54 38.5 116.5t88.5 112.5q60 58 141.5 100t153.5 42
q49 0 80.5 -23t31.5 -70t-42.5 -119t-93.5 -134t-93.5 -128t-42.5 -102q0 -43 42 -43t102.5 50.5t112.5 114.5t116.5 158.5t96 145.5t67.5 112q48 1 96 12z" />
    <glyph glyph-name="brokenbar" unicode="&#xa6;" 
d="M223 -167v320h54v-320h-54zM223 338v329h54v-329h-54z" />
    <glyph glyph-name="section" unicode="&#xa7;" horiz-adv-x="521" 
d="M367 311q0 16 -2.5 32.5t-9.5 37.5t-10.5 30.5t-15 36t-12.5 29.5q-38 -2 -57 -6q-44 -9 -80.5 -39t-54.5 -71q-22 -46 -22 -73q0 -29 50 -179q3 1 27.5 5t36.5 7q67 17 102 61q48 60 48 129zM636 681q0 -50 -42.5 -96t-92.5 -46q-25 0 -25 11q0 5 11 5q4 0 12 -0.5
t12 -0.5q41 0 63.5 41t22.5 85q0 37 -29 65t-67 28q-57 0 -96 -47.5t-39 -105.5q0 -48 40 -138t40 -139q0 -72 -42 -128.5t-111 -87.5q-41 -18 -134 -32q19 -64 19 -95q0 -81 -73 -138.5t-156 -57.5q-48 0 -82.5 28t-34.5 75q0 54 42 98.5t95 44.5q20 0 27 -10q0 -4 -8 -4
q-4 0 -13 1t-13 1q-17 0 -37.5 -14.5t-31.5 -31.5q-22 -34 -22 -77q0 -44 28 -69t72 -25q60 0 96.5 46t36.5 107q0 47 -39 135t-39 136q0 52 18 88.5t58 72.5q38 35 70 50q15 8 35 14.5t33.5 10t38.5 9t35 7.5q-22 70 -22 106q0 35 13 58t43 51q80 75 172 75q52 0 84 -28
t32 -78z" />
    <glyph glyph-name="dieresis" unicode="&#xa8;" 
d="M222 574q0 -26 -25 -51.5t-51 -25.5q-34 0 -34 33q0 26 25 51.5t51 25.5q15 0 24.5 -9t9.5 -24zM388 574q0 -26 -25 -51.5t-51 -25.5q-34 0 -34 33q0 27 25 52t52 25q15 0 24 -9t9 -24z" />
    <glyph glyph-name="copyright" unicode="&#xa9;" horiz-adv-x="793" 
d="M594 472q0 -52 -55 -103t-107 -51q-20 0 -37.5 10.5t-17.5 29.5q0 31 31.5 56t63.5 25q9 0 9 -4q0 -3 -6 -5q-62 -14 -62 -58q0 -31 41 -31q39 0 73.5 36.5t34.5 76.5q0 34 -14.5 47t-49.5 13q-86 0 -168 -88t-82 -176q0 -86 89 -86q35 0 74.5 16.5t68.5 40.5
q41 36 51 59q1 2 2.5 6t2.5 5.5t3.5 3t6.5 1.5q9 0 9 -6q0 -2 -3.5 -8.5t-9 -14t-6.5 -9.5q-35 -53 -101 -92t-127 -39q-55 0 -87.5 27.5t-32.5 81.5q0 67 55.5 139t133.5 117.5t143 45.5q32 0 53 -17t21 -49zM701 333q0 126 -89 216.5t-215 90.5q-128 0 -216.5 -90
t-88.5 -217q0 -126 89 -216.5t215 -90.5q127 0 216 90t89 217zM739 333q0 -142 -100.5 -242.5t-242.5 -100.5t-242.5 100.5t-100.5 242.5q0 143 100.5 243.5t243.5 100.5q142 0 242 -101t100 -243z" />
    <glyph glyph-name="ordfeminine" unicode="&#xaa;" horiz-adv-x="340" 
d="M64 405v29h250v-29h-250zM263 642q0 15 -11 15q-26 0 -75 -52t-49 -78q0 -15 15 -15q22 0 51.5 32t50.5 63q1 2 7 10t8.5 13.5t2.5 11.5zM357 590q0 -3 -53 -56q-45 -45 -76 -45q-33 0 -33 26q0 1 3 16q-44 -42 -75 -42q-18 0 -29.5 10.5t-11.5 28.5q0 44 60 91.5
t105 47.5q22 0 34 -15l9 12h50l-89 -120q-10 -12 -10 -26q0 -11 7 -11q13 0 46.5 31.5t45.5 49.5q1 1 2.5 3t3.5 3h4q7 0 7 -4z" />
    <glyph glyph-name="guillemotleft" unicode="&#xab;" horiz-adv-x="431" 
d="M178 343q0 -10 -39 -49q-29 -34 -46 -56q-14 -18 -20 -25.5t-12.5 -23.5t-6.5 -31q0 -19 8.5 -55.5t17.5 -49.5q8 -13 8 -19t-5 -6q-2 0 -4 1.5t-4 4.5t-3 4q-4 6 -25 35.5t-34.5 53.5t-13.5 38q0 24 18 44q20 24 83 80.5t74 56.5q4 0 4 -3zM282 343q0 -5 -19 -26.5
t-20 -22.5q-29 -34 -46 -56q-39 -47 -39 -80q0 -21 8.5 -54t18.5 -51q8 -11 8 -19q0 -6 -6 -6q-1 0 -11 10q-73 101 -73 127q0 23 19 44q21 24 83 80.5t73 56.5q4 0 4 -3z" />
    <glyph glyph-name="logicalnot" unicode="&#xac;" 
d="M412 0v216h-379v51h434v-267h-55z" />
    <glyph glyph-name="minus" unicode="&#xad;" 
d="M33 305v51h434v-51h-434z" />
    <glyph glyph-name="registered" unicode="&#xae;" 
d="M455 476q0 -84 -59 -142t-143 -58q-82 0 -141.5 58.5t-59.5 141.5t59 142t142 59q84 0 143 -58.5t59 -142.5zM424 476q0 71 -50.5 120.5t-120.5 49.5t-120.5 -50t-50.5 -120t50.5 -120t120.5 -50t120.5 49.5t50.5 120.5zM382 541q0 -20 -25.5 -34.5t-46.5 -14.5
q13 -8 13 -19q0 -7 -9 -22t-9 -21q0 -7 5 -7q11 0 30.5 19.5t20.5 19.5l2 -2q-1 -5 -13 -17q-25 -29 -49 -29q-22 0 -22 14q0 10 12.5 30t12.5 25q0 7 -7 7h-4q-2 0 -2 3q0 2 3 2h4q21 0 41 13t20 33q0 25 -43 25q-34 0 -71.5 -18t-37.5 -48q0 -13 16 -13q4 0 26 10h2l2 -1
q0 -1 -5 -6q-17 -17 -39 -17q-10 0 -17.5 6t-7.5 17q0 20 23 39q41 38 116 38q20 0 39.5 -7.5t19.5 -24.5zM345 552q-16 0 -34 -23t-34 -50t-47.5 -50t-71.5 -23q-38 0 -38 18q0 12 15 12q12 0 12 -8q0 -2 -3 -4t-3 -5q0 -7 16 -7q23 0 44 16.5t35 37t34 44t39 33.5
q19 12 35 12l1 1l2 -2z" />
    <glyph glyph-name="macron" unicode="&#xaf;" 
d="M374 533q0 -46 -140 -46q-10 0 -31 1.5t-32 1.5h-13q-5 0 -11 -2q-1 0 -2.5 -0.5l-3 -1l-3 -1t-3.5 -0.5q-9 0 -9 7q0 4 5.5 10t13.5 12t9 7q31 20 91 20q13 0 39 -2t40 -2q8 0 21 1.5t21 1.5t8 -7z" />
    <glyph glyph-name="degree" unicode="&#xb0;" horiz-adv-x="418" 
d="M360 547q0 42 -29 70t-71 28q-41 0 -71 -28.5t-30 -69.5q0 -42 29.5 -70.5t71.5 -28.5t71 28.5t29 70.5zM394 547q0 -54 -40 -92.5t-94 -38.5t-94 38.5t-40 92.5t39.5 92t94.5 38t94.5 -38t39.5 -92z" />
    <glyph glyph-name="plusminus" unicode="&#xb1;" 
d="M33 59v51h434v-51h-434zM277 329v-176h-54v176h-190v51h190v177h54v-177h190v-51h-190z" />
    <glyph glyph-name="twosuperior" unicode="&#xb2;" horiz-adv-x="330" 
d="M337 557q0 -54 -55 -99q-52 -46 -172 -75q-3 -1 -20 -5.5t-22 -6t-19 -6t-20.5 -8.5t-16.5 -10.5t-16.5 -14t-12.5 -17.5q20 5 35 5q20 0 57 -14t57 -14q18 0 29 8t16.5 16.5t10.5 8.5q9 0 9 -6t-17 -23q-34 -34 -89 -34q-22 0 -59.5 10.5t-55.5 10.5q-11 0 -17 -1.5
t-8.5 -3t-8 -6.5t-10.5 -8q-13 0 -13 8q0 11 12.5 28.5t23.5 26.5q28 26 80 47t106.5 45t89.5 57q52 52 52 94q0 34 -32 34q-41 0 -79 -34q-17 -14 -31 -36t-14 -41t22 -23q6 0 6 -4q0 -10 -29 -10q-20 0 -35 10.5t-15 29.5q0 46 62 87q52 33 115 33q33 0 58.5 -14t25.5 -45
z" />
    <glyph glyph-name="threesuperior" unicode="&#xb3;" horiz-adv-x="330" 
d="M312 557q0 -33 -36.5 -60.5t-71.5 -34.5q-8 -2 -24 -5.5t-24 -5.5q1 -1 10 -4t10.5 -4t9 -4t10 -4.5t8 -5t7.5 -6.5t6 -7.5t5.5 -9t2.5 -10.5t1 -12q0 -38 -37 -68.5t-79 -42.5q-39 -11 -73 -11q-33 0 -65 11.5t-32 39.5q0 17 11.5 27t29.5 10q27 0 27 -17q0 -7 -7 -12.5
t-7 -13.5q0 -30 38 -30t84 39.5t46 76.5q0 16 -10 29q-15 15 -20 16q-1 0 -6 0.5t-8.5 1t-7.5 1.5t-6.5 3.5t-2.5 6.5q0 6 9 6q41 6 52 11q4 2 11 5t11 4q23 11 40 28q36 38 36 65q0 36 -35 36q-31 0 -62 -27.5t-31 -58.5q0 -4 5.5 -9t5.5 -7q0 -9 -24 -9q-16 0 -27 8
t-11 23q0 33 50 64q47 29 105 29q30 0 53 -16.5t23 -45.5z" />
    <glyph glyph-name="acute" unicode="&#xb4;" 
d="M381 604q-51 -56 -125 -104q-5 -3 -27.5 -17.5t-34.5 -20.5q-53 -25 -57 -28q-7 -6 -14 -6q-5 0 -5 4q0 6 14 10q12 4 50 35q4 4 30.5 26t37 32t25 30t20.5 39h86z" />
    <glyph glyph-name="mu" unicode="&#xb5;" 
d="M392 0v95q-22 -50 -44 -69q-43 -40 -104 -40q-58 0 -99 34q-13 10 -36 44v-231h-55v645h55v-276q0 -71 19 -106q17 -31 48.5 -48t68.5 -17q72 0 109.5 53t37.5 129v265h54v-478h-54z" />
    <glyph glyph-name="paragraph" unicode="&#xb6;" horiz-adv-x="553" 
d="M447 622v-789h-48v789h-112v-789h-48v480q-3 -1 -9 -1h-8q-79 0 -131.5 48.5t-52.5 126.5q0 81 54 130q54 50 163 50h248v-45h-56z" />
    <glyph glyph-name="periodcentered" unicode="&#xb7;" horiz-adv-x="279" 
d="M174 307q0 -25 -22 -49t-46 -24q-30 0 -30 31q0 24 21.5 48.5t45.5 24.5q31 0 31 -31z" />
    <glyph glyph-name="periodcentered" unicode="&#x2219;" horiz-adv-x="279" 
d="M174 307q0 -25 -22 -49t-46 -24q-30 0 -30 31q0 24 21.5 48.5t45.5 24.5q31 0 31 -31z" />
    <glyph glyph-name="cedilla" unicode="&#xb8;" 
d="M279 -56q1 -1 6.5 -6t7 -6.5t5.5 -6t5.5 -7t4 -7t3 -8.5t0.5 -9q0 -34 -35 -59t-70 -25q-18 0 -32.5 9.5t-14.5 26.5q0 13 8.5 21.5t21.5 8.5q18 0 19 -7l-1 -2q-11 -11 -11 -22q0 -20 26 -20q22 0 39 14t17 36q0 32 -40 47l94 84l8 -5z" />
    <glyph glyph-name="onesuperior" unicode="&#xb9;" horiz-adv-x="330" 
d="M310 602q0 -3 -26 -38t-53.5 -71t-29.5 -40q-32 -44 -77 -114q-39 -60 -44 -75h-68q0 15 12 34q30 47 113 139q66 72 101 107q-78 -51 -143 -82q-29 -13 -33 -13q-1 -1 -5 -1q-5 0 -5 4q0 3 5 5q6 2 17 8t15 8q76 39 85 45q83 48 113 78q11 11 18 11q5 0 5 -5z" />
    <glyph glyph-name="ordmasculine" unicode="&#xba;" horiz-adv-x="329" 
d="M57 405v29h250v-29h-250zM318 642q0 16 -16 16q-28 0 -71.5 -51t-47.5 -82q-1 -1 -1 -4q0 -19 20 -19q29 0 72.5 54t43.5 86zM352 628q0 -45 -56.5 -94t-102.5 -49q-23 0 -40 10.5t-17 31.5q0 50 57.5 95t109.5 45q49 0 49 -39z" />
    <glyph glyph-name="guillemotright" unicode="&#xbb;" horiz-adv-x="431" 
d="M167 210q0 -23 -19 -44q-37 -43 -131 -120q-23 -17 -25 -17q-4 0 -4 4q0 3 20 27t41.5 49t23.5 28q39 47 39 80q0 17 -9 52.5t-18 52.5q-8 11 -8 19q0 6 6 6q4 0 10 -8t12 -18t8 -12q3 -5 18.5 -27t25.5 -40.5t10 -31.5zM271 210q0 -24 -18 -44q-31 -38 -131 -120
q-17 -17 -26 -17q-4 0 -4 4q0 3 20 27t41.5 49t23.5 28q39 47 39 80q0 19 -8.5 54.5t-17.5 50.5q-8 11 -8 19q0 6 5 6q4 0 10 -8t12 -18t8 -12q3 -5 18.5 -27t25.5 -40.5t10 -31.5z" />
    <glyph glyph-name="onequarter" unicode="&#xbc;" horiz-adv-x="763" 
d="M299 602q0 -3 -26 -38t-53.5 -71.5t-29.5 -39.5q-32 -44 -77 -114q-39 -60 -44 -75h-68q0 27 55 91q31 40 99 114q11 13 35.5 37t36.5 38q-78 -51 -143 -82q-29 -13 -33 -13q-1 -1 -5 -1q-5 0 -5 4q0 2 37 21q76 39 85 45q7 5 37.5 24t48.5 32t34 29q4 4 12 4q4 0 4 -5z
M683 609q0 -9 -58 -63.5t-85 -76.5q-205 -176 -234 -200l-99 -81q-11 -9 -39 -32.5t-44 -37t-38.5 -34t-41 -39t-34.5 -37.5q-7 -8 -24 -8q-12 0 -12 6q0 10 24 34q49 48 118 104q30 24 123.5 96.5t143.5 115.5q48 40 70 62q14 14 41.5 41t41.5 41q12 12 38.5 34.5
t39.5 34.5q5 5 15 16t16 16q11 12 28 12q1 1 4 1q6 0 6 -5zM692 306q-80 -59 -243 -169q30 6 44 6q22 0 56 -9q24 29 71.5 86t71.5 86zM756 360q0 -4 -5 -9q-12 -14 -26 -34t-19.5 -29t-23 -40t-18.5 -33q-26 -42 -58 -92q3 -1 12 -1q27 0 52 29q4 4 8 4q10 0 10 -5
q0 -4 -16 -20q-33 -30 -84 -35q-47 -67 -55 -95h-67q5 24 29.5 59.5t27.5 41.5q-43 13 -71 13q-16 0 -38.5 -7t-30.5 -7t-8 5q0 3 2 5t5.5 3t4.5 2q56 23 148 99q38 32 118 91t96 59q7 0 7 -4z" />
    <glyph glyph-name="onehalf" unicode="&#xbd;" horiz-adv-x="763" 
d="M302 602l-2 -2q-1 -3 -2 -5q-5 -7 -5 -9q-6 -8 -9 -11l-38 -51q-86 -115 -130 -185q-36 -50 -44 -75h-68v5t1 5q6 24 54 81q26 32 100 114l32.5 32.5t38.5 42.5q-78 -51 -143 -82q-29 -13 -33 -13q-1 -1 -5 -1t-4 4t4 5q70 33 117 61q90 55 120 85q4 4 12 4q4 0 4 -5z
M666 609q0 -9 -59 -64t-85 -76q-205 -176 -234 -200l-99 -81q-15 -13 -43 -36t-50.5 -42.5t-40.5 -37.5l-41 -41q-15 -15 -22 -23q-6 -8 -24 -8q-12 0 -12 6q0 20 142 138q28 23 122.5 96t144.5 116q54 45 71 62q14 14 41.5 41t41.5 41q13 12 38.5 34.5t38.5 34.5q6 5 16 16
t15 16q11 11 28 12q1 1 5 1q6 0 6 -5zM762 293q0 -52 -55 -99q-51 -45 -172 -76q-4 -1 -20.5 -5t-22 -6t-19 -6.5t-20 -8.5t-16.5 -10t-16.5 -13.5t-12.5 -17.5q16 4 35 4q21 0 58 -13.5t56 -13.5q18 0 29 8t16.5 16t11.5 8q8 0 8 -5q0 -6 -17 -23q-35 -35 -89 -35
q-21 0 -58.5 11t-55.5 11q-25 0 -37 -12q-1 -1 -4 -3t-4 -4q-13 0 -13 7q0 12 12.5 29.5t23.5 26.5q39 35 138 70q90 34 138 79q52 52 52 94q0 34 -32 34q-41 0 -79 -34q-17 -14 -31 -36t-14 -41q0 -23 22 -23q6 0 6 -4q0 -10 -29 -10q-20 0 -35 10.5t-15 29.5q0 46 63 87
q52 33 114 33q33 0 58.5 -14t25.5 -45z" />
    <glyph glyph-name="threequarters" unicode="&#xbe;" horiz-adv-x="763" 
d="M312 557q0 -33 -36.5 -60.5t-71.5 -34.5q-8 -2 -24 -5.5t-24 -5.5q1 -1 10 -4t10.5 -4t9 -4t10 -4.5t8 -5t7.5 -6.5t6 -7.5t5.5 -9t2.5 -10.5t1 -12q0 -38 -37 -68.5t-79 -42.5q-39 -11 -73 -11q-33 0 -65 11.5t-32 39.5q0 17 11.5 27t29.5 10q27 0 27 -17q0 -7 -7 -12.5
t-7 -13.5q0 -30 38 -30t84 39.5t46 76.5q0 16 -10 29q-15 15 -20 16q-1 0 -6 0.5t-8.5 1t-7.5 1.5t-6.5 3.5t-2.5 6.5q0 6 9 6q41 6 52 11q4 2 11 5t11 4q23 11 40 28q36 38 36 65q0 36 -35 36q-31 0 -62 -27.5t-31 -58.5q0 -4 5.5 -9t5.5 -7q0 -9 -24 -9q-16 0 -27 8
t-11 23q0 33 50 64q47 29 105 29q30 0 53 -16.5t23 -45.5zM714 609q0 -10 -59.5 -65t-84.5 -75q-151 -134 -233 -200l-174 -144q-80 -67 -122 -117q-7 -8 -24 -8q-12 0 -12 7q0 6 10 18.5t28 29.5t40 36t49.5 41.5t52 42t51.5 40.5t45 34.5l36 27t20 15.5q38 28 77 64
q61 53 70 62q14 14 41.5 41t41.5 41q12 12 38.5 34.5t38.5 34.5q5 5 15 16t16 16q11 12 29 12q1 1 4 1q6 0 6 -5zM703 306q-80 -59 -243 -169q30 6 43 6q23 0 57 -9q24 29 71.5 86t71.5 86zM767 360q0 -4 -5 -9q-16 -18 -29.5 -38.5t-33 -55t-24.5 -42.5q-9 -15 -28.5 -45.5
t-29.5 -46.5q3 -1 12 -1q17 0 37.5 16.5t21.5 16.5q11 0 11 -5q0 -7 -17 -20q-33 -30 -83 -35q-40 -62 -56 -95h-66q5 20 14 35.5t22 33.5t21 32q-43 13 -71 13q-16 0 -38.5 -7t-30.5 -7t-8 5q0 3 2 5t5.5 3t4.5 2q64 26 148 99q38 32 118 91t96 59q7 0 7 -4z" />
    <glyph glyph-name="questiondown" unicode="&#xbf;" horiz-adv-x="490" 
d="M278 185q0 -5 -13 -28q-23 -36 -66 -68t-83 -52t-84 -51t-69 -67q-32 -47 -32 -87q0 -64 76 -64q56 0 117 53.5t61 108.5q0 16 -5.5 22.5t-20.5 10.5q-8 2 -8 7q0 10 15 16t27 6q24 0 36.5 -15.5t12.5 -39.5q0 -43 -36 -84.5t-81 -65.5q-59 -34 -134 -34q-56 0 -93 25
t-37 78q0 126 209 202q91 34 121 53q43 27 58 55q11 26 19 26q10 0 10 -7zM383 316q0 -24 -21.5 -48.5t-45.5 -24.5q-30 0 -30 31q0 24 22 48.5t45 24.5q30 0 30 -31z" />
    <glyph glyph-name="Agrave" unicode="&#xc0;" horiz-adv-x="872" 
d="M922 606q0 10 -8.5 16t-19.5 6q-35 0 -88.5 -36t-112.5 -95t-96 -99.5t-73 -83.5h193l166 223q39 50 39 69zM993 607q0 -31 -58 -113l-263 -360q-49 -68 -76 -134h-93q5 13 12.5 28.5t13 25t18 28t16.5 24t20 27t17 22.5q18 24 53.5 71.5t52.5 71.5h-199q-10 -10 -56 -61
t-68.5 -75t-69.5 -67t-81.5 -64t-80 -39t-87.5 -18q-69 0 -112.5 42t-43.5 111q0 122 106 230q110 110 221 110q50 0 82 -28t32 -77q0 -33 -16 -64q-39 -67 -65 -67l-2 1q0 4 4 9.5t10 12.5t7 9q9 11 15 34t6 39q0 41 -32.5 69t-73.5 28q-94 0 -167.5 -80t-73.5 -174
q0 -62 34.5 -97t96.5 -35q38 0 75.5 12t74 36.5t60.5 44.5t60 53q56 51 107 107h-67l10 16h75l73 72l33 33t37.5 37t33 31.5t38.5 35.5t35 29.5t40 31.5q93 68 159 68q25 0 41 -12t16 -35zM1088 732q0 -4 -4 -4q-5 0 -31 34q-3 4 -11.5 15.5t-13.5 18.5q-23 32 -50 83
q-1 2 -10 18h74q0 -63 16 -98l13 -31q4 -17 10 -23q7 -7 7 -13z" />
    <glyph glyph-name="Aacute" unicode="&#xc1;" horiz-adv-x="872" 
d="M922 606q0 10 -8.5 16t-19.5 6q-35 0 -88.5 -36t-112.5 -95t-96 -99.5t-73 -83.5h193l166 223q39 50 39 69zM993 607q0 -31 -58 -113l-263 -360q-49 -68 -76 -134h-93q5 13 12.5 28.5t13 25t18 28t16.5 24t20 27t17 22.5q18 24 53.5 71.5t52.5 71.5h-199q-10 -10 -56 -61
t-68.5 -75t-69.5 -67t-81.5 -64t-80 -39t-87.5 -18q-69 0 -112.5 42t-43.5 111q0 122 106 230q110 110 221 110q50 0 82 -28t32 -77q0 -33 -16 -64q-39 -67 -65 -67l-2 1q0 4 4 9.5t10 12.5t7 9q9 11 15 34t6 39q0 41 -32.5 69t-73.5 28q-94 0 -167.5 -80t-73.5 -174
q0 -62 34.5 -97t96.5 -35q38 0 75.5 12t74 36.5t60.5 44.5t60 53q56 51 107 107h-67l10 16h75l73 72l33 33t37.5 37t33 31.5t38.5 35.5t35 29.5t40 31.5q93 68 159 68q25 0 41 -12t16 -35zM1183 905q-51 -56 -125 -104q-5 -3 -27.5 -17.5t-34.5 -20.5q-53 -25 -57 -28
q-7 -6 -14 -6q-5 0 -5 4q0 7 14 10q12 4 50 35q4 4 30.5 26t37 32t25 30t20.5 39h86z" />
    <glyph glyph-name="Acircumflex" unicode="&#xc2;" horiz-adv-x="872" 
d="M922 606q0 10 -8.5 16t-19.5 6q-35 0 -88.5 -36t-112.5 -95t-96 -99.5t-73 -83.5h193l166 223q39 50 39 69zM993 607q0 -31 -58 -113l-263 -360q-49 -68 -76 -134h-93q5 13 12.5 28.5t13 25t18 28t16.5 24t20 27t17 22.5q18 24 53.5 71.5t52.5 71.5h-199q-10 -10 -56 -61
t-68.5 -75t-69.5 -67t-81.5 -64t-80 -39t-87.5 -18q-69 0 -112.5 42t-43.5 111q0 122 106 230q110 110 221 110q50 0 82 -28t32 -77q0 -33 -16 -64q-39 -67 -65 -67l-2 1q0 4 4 9.5t10 12.5t7 9q9 11 15 34t6 39q0 41 -32.5 69t-73.5 28q-94 0 -167.5 -80t-73.5 -174
q0 -62 34.5 -97t96.5 -35q38 0 75.5 12t74 36.5t60.5 44.5t60 53q56 51 107 107h-67l10 16h75l73 72l33 33t37.5 37t33 31.5t38.5 35.5t35 29.5t40 31.5q93 68 159 68q25 0 41 -12t16 -35zM1102 876q0 -6 -7 -28t-15 -47t-10 -32q-6 -14 -7 -23q-3 -14 -8 -14q-6 0 -6 8
q0 7 2 20.5t2 17.5t0.5 13t0.5 14q0 24 -8 24q-3 0 -8.5 -2.5t-12.5 -6l-9 -4.5q-13 -6 -38.5 -25.5t-34.5 -25.5q-33 -21 -35 -23q-12 -12 -21 -12q-3 3 -3 4q0 8 19 23q17 14 68 60q4 4 28.5 27.5t38.5 34.5q15 12 30 12q34 0 34 -15z" />
    <glyph glyph-name="Atilde" unicode="&#xc3;" horiz-adv-x="872" 
d="M922 606q0 10 -8.5 16t-19.5 6q-35 0 -88.5 -36t-112.5 -95t-96 -99.5t-73 -83.5h193l166 223q39 50 39 69zM993 607q0 -31 -58 -113l-263 -360q-49 -68 -76 -134h-93q5 13 12.5 28.5t13 25t18 28t16.5 24t20 27t17 22.5q18 24 53.5 71.5t52.5 71.5h-199q-10 -10 -56 -61
t-68.5 -75t-69.5 -67t-81.5 -64t-80 -39t-87.5 -18q-69 0 -112.5 42t-43.5 111q0 122 106 230q110 110 221 110q50 0 82 -28t32 -77q0 -33 -16 -64q-39 -67 -65 -67l-2 1q0 4 4 9.5t10 12.5t7 9q9 11 15 34t6 39q0 41 -32.5 69t-73.5 28q-94 0 -167.5 -80t-73.5 -174
q0 -62 34.5 -97t96.5 -35q38 0 75.5 12t74 36.5t60.5 44.5t60 53q56 51 107 107h-67l10 16h75l73 72l33 33t37.5 37t33 31.5t38.5 35.5t35 29.5t40 31.5q93 68 159 68q25 0 41 -12t16 -35zM1215 823q0 -29 -41 -53q-68 -38 -139 -38q-50 0 -106 17q-42 13 -58 13
q-13 0 -27.5 -7t-24 -13.5t-10.5 -6.5q-8 0 -8 8q0 4 12 13q11 7 22 18q38 30 80 30q23 0 45 -6q8 -2 36.5 -9t41.5 -10t35.5 -6t40.5 -3q27 0 48.5 10.5t21.5 34.5q0 12 -9 22.5t-9 12.5q0 5 10 5q39 0 39 -32z" />
    <glyph glyph-name="Adieresis" unicode="&#xc4;" horiz-adv-x="872" 
d="M922 606q0 10 -8.5 16t-19.5 6q-35 0 -88.5 -36t-112.5 -95t-96 -99.5t-73 -83.5h193l166 223q39 50 39 69zM993 607q0 -31 -58 -113l-263 -360q-49 -68 -76 -134h-93q5 13 12.5 28.5t13 25t18 28t16.5 24t20 27t17 22.5q18 24 53.5 71.5t52.5 71.5h-199q-10 -10 -56 -61
t-68.5 -75t-69.5 -67t-81.5 -64t-80 -39t-87.5 -18q-69 0 -112.5 42t-43.5 111q0 122 106 230q110 110 221 110q50 0 82 -28t32 -77q0 -33 -16 -64q-39 -67 -65 -67l-2 1q0 4 4 9.5t10 12.5t7 9q9 11 15 34t6 39q0 41 -32.5 69t-73.5 28q-94 0 -167.5 -80t-73.5 -174
q0 -62 34.5 -97t96.5 -35q38 0 75.5 12t74 36.5t60.5 44.5t60 53q56 51 107 107h-67l10 16h75l73 72l33 33t37.5 37t33 31.5t38.5 35.5t35 29.5t40 31.5q93 68 159 68q25 0 41 -12t16 -35zM993 812q0 -26 -25 -51.5t-51 -25.5q-34 0 -34 33q0 26 25 51.5t51 25.5
q15 0 24.5 -9t9.5 -24zM1159 812q0 -26 -25 -51.5t-51 -25.5q-34 0 -34 33q0 27 25 52t52 25q15 0 24 -9t9 -24z" />
    <glyph glyph-name="Aring" unicode="&#xc5;" horiz-adv-x="872" 
d="M922 606q0 10 -8.5 16t-19.5 6q-35 0 -88.5 -36t-112.5 -95t-96 -99.5t-73 -83.5h193l166 223q39 50 39 69zM993 607q0 -31 -58 -113l-263 -360q-49 -68 -76 -134h-93q5 13 12.5 28.5t13 25t18 28t16.5 24t20 27t17 22.5q18 24 53.5 71.5t52.5 71.5h-199q-10 -10 -56 -61
t-68.5 -75t-69.5 -67t-81.5 -64t-80 -39t-87.5 -18q-69 0 -112.5 42t-43.5 111q0 122 106 230q110 110 221 110q50 0 82 -28t32 -77q0 -33 -16 -64q-39 -67 -65 -67l-2 1q0 4 4 9.5t10 12.5t7 9q9 11 15 34t6 39q0 41 -32.5 69t-73.5 28q-94 0 -167.5 -80t-73.5 -174
q0 -62 34.5 -97t96.5 -35q38 0 75.5 12t74 36.5t60.5 44.5t60 53q56 51 107 107h-67l10 16h75l73 72l33 33t37.5 37t33 31.5t38.5 35.5t35 29.5t40 31.5q93 68 159 68q25 0 41 -12t16 -35zM1052 800q0 16 -11 28t-28 12q-18 0 -30.5 -11.5t-12.5 -29.5q0 -17 12.5 -28.5
t30.5 -11.5q17 0 28 12t11 29zM1082 799q0 -29 -20.5 -48.5t-48.5 -19.5q-30 0 -50.5 19.5t-20.5 48.5t20.5 49.5t49.5 20.5t49.5 -20.5t20.5 -49.5z" />
    <glyph glyph-name="AE" unicode="&#xc6;" horiz-adv-x="1181" 
d="M938 622q-24 3 -25 3q-16 0 -31 -4q-36 -8 -58 -20t-54 -38q-57 -43 -127 -119q-81 -84 -120 -130h197zM1291 662q0 -2 -4 -5.5t-6 -4.5q-33 -25 -64 -32t-82 -7q-67 0 -122 4q-7 -11 -36 -59t-47 -72l-229 -313q-56 -77 -90 -134q50 6 76 6q29 0 86 -4t86 -4
q180 0 180 108q0 11 -4.5 25t-4.5 18q0 6 5 6q10 0 15 -25.5t5 -42.5q0 -65 -51 -108.5t-116 -43.5q-9 0 -89 11q-11 1 -32 3t-32 4q-98 13 -154 13q-38 0 -90 -5l219 298h-202q-8 -9 -31 -34.5t-36 -39.5q-94 -101 -154 -154q-113 -97 -216 -97q-67 0 -112.5 41t-45.5 107
q0 68 37.5 137.5t92.5 118.5q41 37 93 63t99 26q51 0 83.5 -27.5t32.5 -77.5q0 -43 -25 -79q-37 -51 -53 -51q-3 0 -3 3q0 4 14 18q27 27 27 82q0 44 -30.5 70.5t-76.5 26.5q-92 0 -164.5 -79t-72.5 -173q0 -61 34.5 -97.5t96.5 -36.5q39 0 84 19.5t79.5 42t82.5 65.5
t68.5 64t61.5 64h-70l11 15h76q31 32 142 141q12 11 34 32.5t33 31.5q6 5 62 51q65 53 121 70q67 21 156 21q34 0 100 -4.5t100 -4.5q27 0 48 12q4 0 4 -3zM1159 401q0 -14 -28 -42q-27 -27 -76 -27q-18 0 -55 6.5t-57 6.5q-63 0 -84 -31q-8 -14 -15 -14q-4 0 -4 5
q0 7 12 23q46 65 127 65q21 0 63 -6t63 -6q29 0 41 16q1 1 2.5 3t2.5 3.5t3 1.5q5 0 5 -4z" />
    <glyph glyph-name="Ccedilla" unicode="&#xc7;" horiz-adv-x="571" 
d="M649 577q0 -78 -75 -164q-36 -41 -85.5 -70.5t-96.5 -29.5q-32 0 -56.5 17.5t-24.5 48.5q0 42 32 78.5t74 49.5q30 10 38 10q10 0 10 -5q0 -7 -21 -7q-14 0 -32.5 -11t-29.5 -24q-29 -31 -29 -66q0 -29 23 -44.5t53 -15.5q70 0 128 65.5t58 136.5q0 52 -21 74
q-30 32 -94 32q-96 0 -194 -74.5t-159 -182t-61 -202.5q0 -75 38.5 -115t113.5 -40q42 0 82 12q36 12 83.5 39t76.5 51q21 18 46 49.5t35 52.5q1 1 2.5 6.5t3 9t4.5 6.5t7 3q6 0 6 -7q0 -16 -49 -80q-156 -199 -356 -199l-43 -39q1 -1 6.5 -6t7 -6.5t5.5 -6t5.5 -7t4 -7
t3 -8.5t0.5 -9q0 -35 -34.5 -59.5t-70.5 -24.5q-18 0 -32.5 9.5t-14.5 26.5q0 13 8.5 21t21.5 8q6 0 12 -2q3 0 7 -4q0 -1 -6 -8t-6 -16q0 -20 26 -20q22 0 39 14t17 36q0 15 -12 28t-28 19l70 62q-162 17 -162 185q0 85 51.5 176.5t123.5 160.5t150 114q119 68 208 68
q55 0 90 -37q23 -24 23 -72z" />
    <glyph glyph-name="Egrave" unicode="&#xc8;" horiz-adv-x="676" 
d="M489 401q0 20 -63 20q-18 0 -33 -4q4 -11 8 -15t16 -8q23 -9 41 -9q10 0 20.5 4t10.5 12zM701 620q0 42 -75 42q-52 0 -109.5 -28.5t-93.5 -69.5q-28 -30 -39 -78q24 -2 37 -2q28 0 73 9t92.5 25t81 43t33.5 59zM746 620q0 -35 -45.5 -66t-90.5 -46q-86 -29 -228 -34
q-4 -9 -4 -21q0 -8 9 -24q35 5 65 5q13 0 30.5 -2t37.5 -9.5t20 -20.5q0 -16 -26 -22.5t-48 -6.5q-63 0 -123 35q-72 -20 -112 -55q-44 -35 -74 -82t-30 -97q0 -66 50 -102.5t118 -36.5q42 0 88 11q126 27 234 144q2 2 12.5 15t20 24t11.5 11l2 -2q0 -5 -3 -11t-8 -13
t-9.5 -12.5t-11 -12.5t-7.5 -9q-70 -83 -151 -130q-45 -27 -105.5 -45t-109.5 -18q-90 0 -155.5 44t-65.5 129q0 72 49.5 126.5t123.5 89.5q42 20 123 43q-17 25 -22 61q-67 15 -87 23q-30 11 -52.5 34.5t-22.5 52.5q0 25 14 43.5t37.5 27t46 12t46.5 3.5q17 0 48.5 -5.5
t31.5 -13.5q0 -4 -7 -4t-25.5 6t-33.5 6q-44 0 -77.5 -19t-33.5 -59q0 -41 35 -65t81 -31q6 22 17 45q35 65 126 102t176 37q115 0 115 -55zM765 732q0 -4 -4 -4q-5 0 -31 34q-3 4 -11.5 15.5t-13.5 18.5q-23 32 -50 83q-1 2 -10 18h74q0 -63 16 -98l13 -31q4 -17 10 -23
q7 -7 7 -13z" />
    <glyph glyph-name="Eacute" unicode="&#xc9;" horiz-adv-x="676" 
d="M489 401q0 20 -63 20q-18 0 -33 -4q4 -11 8 -15t16 -8q23 -9 41 -9q10 0 20.5 4t10.5 12zM701 620q0 42 -75 42q-52 0 -109.5 -28.5t-93.5 -69.5q-28 -30 -39 -78q24 -2 37 -2q28 0 73 9t92.5 25t81 43t33.5 59zM746 620q0 -35 -45.5 -66t-90.5 -46q-86 -29 -228 -34
q-4 -9 -4 -21q0 -8 9 -24q35 5 65 5q13 0 30.5 -2t37.5 -9.5t20 -20.5q0 -16 -26 -22.5t-48 -6.5q-63 0 -123 35q-72 -20 -112 -55q-44 -35 -74 -82t-30 -97q0 -66 50 -102.5t118 -36.5q42 0 88 11q126 27 234 144q2 2 12.5 15t20 24t11.5 11l2 -2q0 -5 -3 -11t-8 -13
t-9.5 -12.5t-11 -12.5t-7.5 -9q-70 -83 -151 -130q-45 -27 -105.5 -45t-109.5 -18q-90 0 -155.5 44t-65.5 129q0 72 49.5 126.5t123.5 89.5q42 20 123 43q-17 25 -22 61q-67 15 -87 23q-30 11 -52.5 34.5t-22.5 52.5q0 25 14 43.5t37.5 27t46 12t46.5 3.5q17 0 48.5 -5.5
t31.5 -13.5q0 -4 -7 -4t-25.5 6t-33.5 6q-44 0 -77.5 -19t-33.5 -59q0 -41 35 -65t81 -31q6 22 17 45q35 65 126 102t176 37q115 0 115 -55zM918 905q-51 -56 -125 -104q-5 -3 -27.5 -17.5t-34.5 -20.5q-53 -25 -57 -28q-8 -6 -14 -6q-5 0 -5 4q0 7 14 10q12 4 50 35
q4 4 30.5 26t37 32t25 30t20.5 39h86z" />
    <glyph glyph-name="Ecircumflex" unicode="&#xca;" horiz-adv-x="676" 
d="M489 401q0 20 -63 20q-18 0 -33 -4q4 -11 8 -15t16 -8q23 -9 41 -9q10 0 20.5 4t10.5 12zM701 620q0 42 -75 42q-52 0 -109.5 -28.5t-93.5 -69.5q-28 -30 -39 -78q24 -2 37 -2q28 0 73 9t92.5 25t81 43t33.5 59zM746 620q0 -35 -45.5 -66t-90.5 -46q-86 -29 -228 -34
q-4 -9 -4 -21q0 -8 9 -24q35 5 65 5q13 0 30.5 -2t37.5 -9.5t20 -20.5q0 -16 -26 -22.5t-48 -6.5q-63 0 -123 35q-72 -20 -112 -55q-44 -35 -74 -82t-30 -97q0 -66 50 -102.5t118 -36.5q42 0 88 11q126 27 234 144q2 2 12.5 15t20 24t11.5 11l2 -2q0 -5 -3 -11t-8 -13
t-9.5 -12.5t-11 -12.5t-7.5 -9q-70 -83 -151 -130q-45 -27 -105.5 -45t-109.5 -18q-90 0 -155.5 44t-65.5 129q0 72 49.5 126.5t123.5 89.5q42 20 123 43q-17 25 -22 61q-67 15 -87 23q-30 11 -52.5 34.5t-22.5 52.5q0 25 14 43.5t37.5 27t46 12t46.5 3.5q17 0 48.5 -5.5
t31.5 -13.5q0 -4 -7 -4t-25.5 6t-33.5 6q-44 0 -77.5 -19t-33.5 -59q0 -41 35 -65t81 -31q6 22 17 45q35 65 126 102t176 37q115 0 115 -55zM796 876q0 -6 -7 -28t-15 -47t-10 -32q-6 -14 -7 -23q-3 -14 -8 -14q-6 0 -6 8q0 7 2 20.5t2 17.5t0.5 13t0.5 14q0 24 -8 24
q-3 0 -8.5 -2.5t-12.5 -6l-9 -4.5q-13 -6 -38.5 -25.5t-34.5 -25.5q-33 -21 -35 -23q-12 -12 -21 -12q-3 3 -3 4q0 8 19 23q17 14 68 60q4 4 28.5 27.5t38.5 34.5q15 12 30 12q34 0 34 -15z" />
    <glyph glyph-name="Edieresis" unicode="&#xcb;" horiz-adv-x="676" 
d="M489 401q0 20 -63 20q-18 0 -33 -4q4 -11 8 -15t16 -8q23 -9 41 -9q10 0 20.5 4t10.5 12zM701 620q0 42 -75 42q-52 0 -109.5 -28.5t-93.5 -69.5q-28 -30 -39 -78q24 -2 37 -2q28 0 73 9t92.5 25t81 43t33.5 59zM746 620q0 -35 -45.5 -66t-90.5 -46q-86 -29 -228 -34
q-4 -9 -4 -21q0 -8 9 -24q35 5 65 5q13 0 30.5 -2t37.5 -9.5t20 -20.5q0 -16 -26 -22.5t-48 -6.5q-63 0 -123 35q-72 -20 -112 -55q-44 -35 -74 -82t-30 -97q0 -66 50 -102.5t118 -36.5q42 0 88 11q126 27 234 144q2 2 12.5 15t20 24t11.5 11l2 -2q0 -5 -3 -11t-8 -13
t-9.5 -12.5t-11 -12.5t-7.5 -9q-70 -83 -151 -130q-45 -27 -105.5 -45t-109.5 -18q-90 0 -155.5 44t-65.5 129q0 72 49.5 126.5t123.5 89.5q42 20 123 43q-17 25 -22 61q-67 15 -87 23q-30 11 -52.5 34.5t-22.5 52.5q0 25 14 43.5t37.5 27t46 12t46.5 3.5q17 0 48.5 -5.5
t31.5 -13.5q0 -4 -7 -4t-25.5 6t-33.5 6q-44 0 -77.5 -19t-33.5 -59q0 -41 35 -65t81 -31q6 22 17 45q35 65 126 102t176 37q115 0 115 -55zM660 812q0 -26 -25 -51.5t-51 -25.5q-34 0 -34 33q0 26 25 51.5t51 25.5q15 0 24.5 -9t9.5 -24zM826 812q0 -26 -25 -51.5
t-51 -25.5q-34 0 -34 33q0 27 25 52t52 25q15 0 24 -9t9 -24z" />
    <glyph glyph-name="Igrave" unicode="&#xcc;" horiz-adv-x="609" 
d="M817 662q0 -7 -18 -7q-33 -4 -70 -41q-21 -22 -43 -54q-48 -68 -87 -136q-35 -60 -50.5 -86t-49.5 -76.5t-60 -79.5t-64.5 -63.5t-80.5 -59.5q-117 -69 -241 -69q-22 0 -44.5 3.5t-47 11.5t-40 25t-15.5 41q0 20 15.5 36t35.5 16q14 0 24 -10t10 -24q0 -9 -11 -16
t-11 -21q0 -26 36.5 -38t68.5 -12q38 0 75 13.5t72 42.5t61.5 54t59.5 70t47.5 66t43.5 65l49 73q107 156 171 207q36 29 109 65l-51 3q-30 0 -86 -10q-81 -15 -139.5 -37.5t-119.5 -66.5q-116 -86 -116 -168q0 -30 20 -50.5t50 -20.5q34 0 60 14q2 2 12.5 7.5t13.5 5.5
l2 -1q-3 -8 -26 -21q-59 -33 -107 -33q-44 0 -71.5 23t-27.5 66q0 55 36.5 103t95 81.5t112 55t107.5 35.5q115 26 224 26q9 0 26 -1t27 -1q13 0 13 -6zM829 732q0 -4 -4 -4q-5 0 -31 34q-3 4 -11.5 15.5t-13.5 18.5q-23 32 -50 83q-1 2 -10 18h74q0 -63 16 -98l13 -31
q4 -17 10 -23q7 -7 7 -13z" />
    <glyph glyph-name="Iacute" unicode="&#xcd;" horiz-adv-x="609" 
d="M817 662q0 -7 -18 -7q-33 -4 -70 -41q-21 -22 -43 -54q-48 -68 -87 -136q-35 -60 -50.5 -86t-49.5 -76.5t-60 -79.5t-64.5 -63.5t-80.5 -59.5q-117 -69 -241 -69q-22 0 -44.5 3.5t-47 11.5t-40 25t-15.5 41q0 20 15.5 36t35.5 16q14 0 24 -10t10 -24q0 -9 -11 -16
t-11 -21q0 -26 36.5 -38t68.5 -12q38 0 75 13.5t72 42.5t61.5 54t59.5 70t47.5 66t43.5 65l49 73q107 156 171 207q36 29 109 65l-51 3q-30 0 -86 -10q-81 -15 -139.5 -37.5t-119.5 -66.5q-116 -86 -116 -168q0 -30 20 -50.5t50 -20.5q34 0 60 14q2 2 12.5 7.5t13.5 5.5
l2 -1q-3 -8 -26 -21q-59 -33 -107 -33q-44 0 -71.5 23t-27.5 66q0 55 36.5 103t95 81.5t112 55t107.5 35.5q115 26 224 26q9 0 26 -1t27 -1q13 0 13 -6zM891 905q-51 -56 -125 -104q-5 -3 -27.5 -17.5t-34.5 -20.5q-53 -25 -57 -28q-7 -6 -14 -6q-5 0 -5 4q0 7 14 10
q12 4 50 35q4 4 30.5 26t37 32t25 30t20.5 39h86z" />
    <glyph glyph-name="Icircumflex" unicode="&#xce;" horiz-adv-x="609" 
d="M817 662q0 -7 -18 -7q-33 -4 -70 -41q-21 -22 -43 -54q-48 -68 -87 -136q-35 -60 -50.5 -86t-49.5 -76.5t-60 -79.5t-64.5 -63.5t-80.5 -59.5q-117 -69 -241 -69q-22 0 -44.5 3.5t-47 11.5t-40 25t-15.5 41q0 20 15.5 36t35.5 16q14 0 24 -10t10 -24q0 -9 -11 -16
t-11 -21q0 -26 36.5 -38t68.5 -12q38 0 75 13.5t72 42.5t61.5 54t59.5 70t47.5 66t43.5 65l49 73q107 156 171 207q36 29 109 65l-51 3q-30 0 -86 -10q-81 -15 -139.5 -37.5t-119.5 -66.5q-116 -86 -116 -168q0 -30 20 -50.5t50 -20.5q34 0 60 14q2 2 12.5 7.5t13.5 5.5
l2 -1q-3 -8 -26 -21q-59 -33 -107 -33q-44 0 -71.5 23t-27.5 66q0 55 36.5 103t95 81.5t112 55t107.5 35.5q115 26 224 26q9 0 26 -1t27 -1q13 0 13 -6zM865 876q0 -6 -7 -28t-15 -47t-10 -32q-6 -14 -7 -23q-4 -14 -8 -14q-6 0 -6 8q0 7 2 20.5t2 17.5t0.5 13t0.5 14
q0 24 -8 24q-3 0 -8.5 -2.5t-12.5 -6l-9 -4.5q-13 -6 -38.5 -25.5t-34.5 -25.5q-33 -21 -35 -23q-12 -12 -21 -12q-3 3 -3 4q0 8 19 23q17 14 68 60q4 4 28.5 27.5t38.5 34.5q15 12 30 12q34 0 34 -15z" />
    <glyph glyph-name="Idieresis" unicode="&#xcf;" horiz-adv-x="609" 
d="M817 662q0 -7 -18 -7q-33 -4 -70 -41q-21 -22 -43 -54q-48 -68 -87 -136q-35 -60 -50.5 -86t-49.5 -76.5t-60 -79.5t-64.5 -63.5t-80.5 -59.5q-117 -69 -241 -69q-22 0 -44.5 3.5t-47 11.5t-40 25t-15.5 41q0 20 15.5 36t35.5 16q14 0 24 -10t10 -24q0 -9 -11 -16
t-11 -21q0 -26 36.5 -38t68.5 -12q38 0 75 13.5t72 42.5t61.5 54t59.5 70t47.5 66t43.5 65l49 73q107 156 171 207q36 29 109 65l-51 3q-30 0 -86 -10q-81 -15 -139.5 -37.5t-119.5 -66.5q-116 -86 -116 -168q0 -30 20 -50.5t50 -20.5q34 0 60 14q2 2 12.5 7.5t13.5 5.5
l2 -1q-3 -8 -26 -21q-59 -33 -107 -33q-44 0 -71.5 23t-27.5 66q0 55 36.5 103t95 81.5t112 55t107.5 35.5q115 26 224 26q9 0 26 -1t27 -1q13 0 13 -6zM718 812q0 -26 -24.5 -51.5t-50.5 -25.5q-33 0 -33 33q0 27 23.5 52t50.5 25q15 0 24.5 -9t9.5 -24zM851 812
q0 -27 -23.5 -52t-50.5 -25q-33 0 -33 33q0 27 23.5 52t50.5 25q15 0 24 -9t9 -24z" />
    <glyph glyph-name="Eth" unicode="&#xd0;" horiz-adv-x="941" 
d="M185 51q-94 41 -159 41q-21 0 -43 -10t-22 -29q0 -24 28 -33.5t58 -9.5q29 0 57 6q30 6 42 11t39 24zM879 396q0 -84 -40 -159.5t-104 -127t-144.5 -81.5t-161.5 -30q-77 0 -196 39q-122 -40 -188 -40q-37 0 -80 12t-43 40q0 18 19.5 32t39.5 19q31 8 84 8q47 0 162 -26
q40 33 76 81t76 111.5t62 92.5h-141l9 15h143q108 140 214 171q29 9 39 9t10 -4t-4.5 -5.5t-10.5 -2.5h-6q-19 -3 -60 -44q-27 -29 -88 -122l-2 -2h169l-8 -15h-171q0 -3 -37 -65q-24 -43 -68.5 -101.5t-76.5 -84.5l-63 -51q110 -46 184 -46q100 0 182.5 76.5t122.5 179.5
q30 81 30 158q0 100 -66.5 158t-168.5 58q-139 0 -255 -69q-67 -41 -111 -95q-51 -64 -51 -125q0 -39 22.5 -62t61.5 -23q23 0 57 12t49 27q17 17 23 17q4 0 4 -4q0 -10 -21 -23q-87 -65 -155 -65q-46 0 -77 25.5t-31 71.5q0 50 27.5 98t71.5 85t91 64t94 44q93 35 196 35
q132 0 221 -69t89 -197z" />
    <glyph glyph-name="Ntilde" unicode="&#xd1;" horiz-adv-x="863" 
d="M1120 677q0 -24 -20 -24q-4 0 -13 2.5t-14 2.5q-46 0 -113 -72q-41 -46 -107 -148q-74 -112 -107 -172q-32 -57 -50 -89q-59 -101 -115 -171q-10 -13 -17 -13q-5 0 -5 4q0 5 9 17q35 48 35 184q0 22 -1 65.5t-1 65.5q0 121 20 178q22 63 26 75q-60 -71 -141 -210
q-26 -43 -43 -70.5t-49.5 -75t-58.5 -78.5t-63.5 -69t-71.5 -60t-75 -37.5t-82 -15.5q-72 0 -114.5 41.5t-42.5 113.5q0 95 65 183q45 61 112.5 107t133.5 46q43 0 73.5 -25t30.5 -67q0 -67 -48 -115q-31 -31 -45 -31q-6 0 -6 6q0 5 12 9q11 4 25 27q20 35 20 64
q0 46 -28 72t-74 26q-62 0 -124 -51q-95 -79 -95 -197q0 -67 37 -106.5t103 -39.5q70 0 143 53q46 31 102.5 95t95.5 121q60 91 108 163q6 8 27 39.5t30.5 44.5t28 36.5t35 41t35.5 32.5q23 20 33 20q4 0 4 -3q0 -2 -2 -4.5t-5.5 -4.5t-4.5 -3q-16 -12 -31 -43
q-3 -7 -5.5 -13.5t-4.5 -14t-3.5 -12t-2.5 -13t-1.5 -12t-0.5 -13.5v-12.5v-14.5v-15v-37q0 -11 2 -37q6 -70 6 -105q0 -20 -2 -38.5t-7.5 -40.5t-8.5 -34.5t-11.5 -40t-11.5 -36.5q20 26 37 53q5 7 50 89q19 35 59.5 100.5t47.5 76.5l16 26q17 26 23 35t24.5 36t29.5 40
t29 36t32 35.5t31 26t32 19.5t29 6q15 0 24.5 -8t9.5 -22zM1131 823q0 -29 -41 -53q-68 -38 -139 -38q-52 0 -106 17q-44 13 -59 13q-13 0 -27.5 -7t-23.5 -13.5t-10 -6.5q-8 0 -8 8q0 2 2 4.5t5.5 5t4.5 3.5q11 7 22 18q38 30 80 30q23 0 45 -6q8 -2 36.5 -9t41.5 -10
t35.5 -6t40.5 -3q27 0 48.5 10.5t21.5 34.5q0 12 -9 22.5t-9 12.5q0 5 10 5q39 0 39 -32z" />
    <glyph glyph-name="Ograve" unicode="&#xd2;" horiz-adv-x="683" 
d="M697 562q0 -84 -45 -180.5t-109 -179.5q-178 -227 -367 -227q-81 0 -125 44t-44 125q0 103 66.5 202t163.5 179l18 15t22 18t19 13q21 15 54 32.5t46 15.5q2 0 2 -3q0 -5 -10 -8q-40 -19 -76 -49q-87 -67 -154.5 -178t-67.5 -210q0 -67 40 -103.5t108 -36.5
q100 0 215 109q82 80 138.5 185t56.5 204q0 116 -93 116q-83 0 -156.5 -78t-73.5 -162q0 -42 26 -68t68 -26q30 0 60 14t47.5 28t19.5 14q3 0 3 -3q0 -9 -24.5 -28.5t-36.5 -24.5q-51 -32 -108 -32q-49 0 -76.5 25.5t-27.5 73.5q0 56 43.5 121.5t95.5 105.5q38 32 88 55
t92 23q50 0 76 -35t26 -86zM739 732q0 -4 -4 -4q-5 0 -31 34q-3 4 -11.5 15.5t-13.5 18.5q-23 32 -50 83q-1 2 -10 18h74q0 -63 16 -98l13 -31q4 -17 10 -23q7 -7 7 -13z" />
    <glyph glyph-name="Oacute" unicode="&#xd3;" horiz-adv-x="683" 
d="M697 562q0 -84 -45 -180.5t-109 -179.5q-178 -227 -367 -227q-81 0 -125 44t-44 125q0 103 66.5 202t163.5 179l18 15t22 18t19 13q21 15 54 32.5t46 15.5q2 0 2 -3q0 -5 -10 -8q-40 -19 -76 -49q-87 -67 -154.5 -178t-67.5 -210q0 -67 40 -103.5t108 -36.5
q100 0 215 109q82 80 138.5 185t56.5 204q0 116 -93 116q-83 0 -156.5 -78t-73.5 -162q0 -42 26 -68t68 -26q30 0 60 14t47.5 28t19.5 14q3 0 3 -3q0 -9 -24.5 -28.5t-36.5 -24.5q-51 -32 -108 -32q-49 0 -76.5 25.5t-27.5 73.5q0 56 43.5 121.5t95.5 105.5q38 32 88 55
t92 23q50 0 76 -35t26 -86zM828 905q-51 -56 -125 -104q-5 -3 -27.5 -17.5t-34.5 -20.5q-53 -25 -57 -28q-8 -6 -14 -6q-5 0 -5 4q0 7 14 10q12 4 50 35q4 4 30.5 26t37 32t25 30t20.5 39h86z" />
    <glyph glyph-name="Ocircumflex" unicode="&#xd4;" horiz-adv-x="683" 
d="M697 562q0 -84 -45 -180.5t-109 -179.5q-178 -227 -367 -227q-81 0 -125 44t-44 125q0 103 66.5 202t163.5 179l18 15t22 18t19 13q21 15 54 32.5t46 15.5q2 0 2 -3q0 -5 -10 -8q-40 -19 -76 -49q-87 -67 -154.5 -178t-67.5 -210q0 -67 40 -103.5t108 -36.5
q100 0 215 109q82 80 138.5 185t56.5 204q0 116 -93 116q-83 0 -156.5 -78t-73.5 -162q0 -42 26 -68t68 -26q30 0 60 14t47.5 28t19.5 14q3 0 3 -3q0 -9 -24.5 -28.5t-36.5 -24.5q-51 -32 -108 -32q-49 0 -76.5 25.5t-27.5 73.5q0 56 43.5 121.5t95.5 105.5q38 32 88 55
t92 23q50 0 76 -35t26 -86zM738 876q0 -6 -7 -28t-15 -47t-10 -32q-6 -14 -7 -23q-3 -14 -8 -14q-6 0 -6 8q0 7 2 20.5t2 17.5t0.5 13t0.5 14q0 24 -8 24q-3 0 -8.5 -2.5t-12.5 -6l-9 -4.5q-13 -6 -38.5 -25.5t-34.5 -25.5q-33 -21 -35 -23q-12 -12 -21 -12q-3 3 -3 4
q0 8 19 23q17 14 68 60q4 4 28.5 27.5t38.5 34.5q15 12 30 12q34 0 34 -15z" />
    <glyph glyph-name="Otilde" unicode="&#xd5;" horiz-adv-x="683" 
d="M697 562q0 -84 -45 -180.5t-109 -179.5q-178 -227 -367 -227q-81 0 -125 44t-44 125q0 103 66.5 202t163.5 179l18 15t22 18t19 13q21 15 54 32.5t46 15.5q2 0 2 -3q0 -5 -10 -8q-40 -19 -76 -49q-87 -67 -154.5 -178t-67.5 -210q0 -67 40 -103.5t108 -36.5
q100 0 215 109q82 80 138.5 185t56.5 204q0 116 -93 116q-83 0 -156.5 -78t-73.5 -162q0 -42 26 -68t68 -26q30 0 60 14t47.5 28t19.5 14q3 0 3 -3q0 -9 -24.5 -28.5t-36.5 -24.5q-51 -32 -108 -32q-49 0 -76.5 25.5t-27.5 73.5q0 56 43.5 121.5t95.5 105.5q38 32 88 55
t92 23q50 0 76 -35t26 -86zM815 823q0 -29 -41 -53q-68 -38 -139 -38q-52 0 -106 17q-42 13 -58 13q-13 0 -27.5 -7t-24 -13.5t-10.5 -6.5q-8 0 -8 8q0 4 12 13q11 7 22 18q38 30 80 30q23 0 45 -6q8 -2 36.5 -9t41.5 -10t35.5 -6t41.5 -3q27 0 48 10.5t21 34.5
q0 12 -8.5 22.5t-8.5 12.5q0 5 9 5q39 0 39 -32z" />
    <glyph glyph-name="Odieresis" unicode="&#xd6;" horiz-adv-x="683" 
d="M697 562q0 -84 -45 -180.5t-109 -179.5q-178 -227 -367 -227q-81 0 -125 44t-44 125q0 103 66.5 202t163.5 179l18 15t22 18t19 13q21 15 54 32.5t46 15.5q2 0 2 -3q0 -5 -10 -8q-40 -19 -76 -49q-87 -67 -154.5 -178t-67.5 -210q0 -67 40 -103.5t108 -36.5
q100 0 215 109q82 80 138.5 185t56.5 204q0 116 -93 116q-83 0 -156.5 -78t-73.5 -162q0 -42 26 -68t68 -26q30 0 60 14t47.5 28t19.5 14q3 0 3 -3q0 -9 -24.5 -28.5t-36.5 -24.5q-51 -32 -108 -32q-49 0 -76.5 25.5t-27.5 73.5q0 56 43.5 121.5t95.5 105.5q38 32 88 55
t92 23q50 0 76 -35t26 -86zM596 812q0 -26 -25 -51.5t-51 -25.5q-34 0 -34 33q0 26 25 51.5t51 25.5q15 0 24.5 -9t9.5 -24zM762 812q0 -26 -25 -51.5t-51 -25.5q-34 0 -34 33q0 27 25 52t52 25q15 0 24 -9t9 -24z" />
    <glyph glyph-name="multiply" unicode="&#xd7;" 
d="M406 139l-156 156l-156 -156l-36 36l156 156l-156 155l36 37l156 -156l156 156l36 -37l-156 -155l156 -156z" />
    <glyph glyph-name="Oslash" unicode="&#xd8;" horiz-adv-x="692" 
d="M662 526q0 19 -8 59l-273 -266q33 -11 48 -11q18 0 52 12t48 24q21 21 27 21l2 -2q0 -10 -24 -28.5t-38 -25.5q-4 -2 -38.5 -19t-42.5 -23q-10 -2 -14 -2q-16 0 -57 15l-211 -208q28 -28 49.5 -36t63.5 -8q48 0 102 29q73 39 127 93q44 44 91 115.5t70 130.5
q26 63 26 130zM633 618q-30 27 -60 27q-37 0 -77.5 -16.5t-67.5 -42.5q-28 -27 -51 -60q-24 -34 -35 -61t-11 -62q0 -23 3.5 -34t16.5 -27zM759 684q0 -6 -60 -66q5 -17 5 -27q0 -53 -13 -112q-15 -64 -56 -141t-88 -137q-178 -226 -367 -226q-35 0 -57.5 6.5t-53.5 24.5
q-4 -3 -19.5 -17.5t-29 -25.5t-17.5 -11q-10 0 -17 7.5t-8 17.5q13 15 65 57q-32 54 -32 110q0 103 66.5 201.5t163.5 179.5l18 15t22 18t19 13q74 48 97 48q3 0 5 -2q0 -3 -9 -8.5t-19 -10.5t-11 -6q-83 -45 -171 -166q-99 -133 -99 -260q0 -29 18 -63l201 199
q-19 21 -26 34.5t-7 38.5q0 58 42.5 121.5t96.5 108.5q101 78 183 78q25 0 40 -7t34 -27l50 51q5 5 12 5q22 0 22 -21z" />
    <glyph glyph-name="Ugrave" unicode="&#xd9;" horiz-adv-x="841" 
d="M912 643q-10 -16 -60 -88q-4 -6 -23.5 -32.5t-28.5 -42.5l-182 -297q-38 -64 -38 -102q0 -32 25 -32q8 0 16.5 2t17.5 7.5t16.5 9.5t18 13t16 13.5t16 15.5t13.5 14t13 14l11 11q30 32 33 38l4 5q3 6 6 9t6 3q6 0 6 -5q0 -7 -13 -17q-16 -15 -36 -42q-30 -37 -92 -91
q-57 -49 -107 -49q-54 0 -54 59q0 48 53 152q-27 -29 -82 -94q-14 -17 -56 -52q-85 -69 -148 -69q-68 0 -68 82q0 47 45 123.5t99 144.5t99 142t45 118q0 26 -16 41t-42 15q-98 0 -198 -90q-56 -48 -98.5 -111.5t-42.5 -122.5q0 -76 69 -76q22 0 46.5 9t38.5 23t20 16l2 -2
q-2 -12 -15 -22q-4 -4 -22.5 -21t-24.5 -21t-20.5 -13.5t-28.5 -12t-31 -2.5q-84 0 -84 89q0 74 55.5 152.5t126.5 131.5q117 88 231 88q48 0 78.5 -21t30.5 -67q0 -45 -43 -118.5t-94.5 -139t-94.5 -136.5t-43 -111t39 -40q38 0 90.5 42.5t89.5 86.5q11 13 22 28t25 34
t21 29q76 103 112 161q95 157 131 209q5 -1 14 -1h15q24 0 70 10zM787 732q0 -4 -4 -4q-5 0 -31 34q-3 4 -11.5 15.5t-13.5 18.5q-23 32 -50 83q-1 2 -10 18h74q0 -63 16 -98l13 -31q4 -17 10 -23q7 -7 7 -13z" />
    <glyph glyph-name="Uacute" unicode="&#xda;" horiz-adv-x="841" 
d="M912 643q-10 -16 -60 -88q-4 -6 -23.5 -32.5t-28.5 -42.5l-182 -297q-38 -64 -38 -102q0 -32 25 -32q8 0 16.5 2t17.5 7.5t16.5 9.5t18 13t16 13.5t16 15.5t13.5 14t13 14l11 11q30 32 33 38l4 5q3 6 6 9t6 3q6 0 6 -5q0 -7 -13 -17q-16 -15 -36 -42q-30 -37 -92 -91
q-57 -49 -107 -49q-54 0 -54 59q0 48 53 152q-27 -29 -82 -94q-14 -17 -56 -52q-85 -69 -148 -69q-68 0 -68 82q0 47 45 123.5t99 144.5t99 142t45 118q0 26 -16 41t-42 15q-98 0 -198 -90q-56 -48 -98.5 -111.5t-42.5 -122.5q0 -76 69 -76q22 0 46.5 9t38.5 23t20 16l2 -2
q-2 -12 -15 -22q-4 -4 -22.5 -21t-24.5 -21t-20.5 -13.5t-28.5 -12t-31 -2.5q-84 0 -84 89q0 74 55.5 152.5t126.5 131.5q117 88 231 88q48 0 78.5 -21t30.5 -67q0 -45 -43 -118.5t-94.5 -139t-94.5 -136.5t-43 -111t39 -40q38 0 90.5 42.5t89.5 86.5q11 13 22 28t25 34
t21 29q76 103 112 161q95 157 131 209q5 -1 14 -1h15q24 0 70 10zM901 905q-51 -56 -125 -104q-5 -3 -27.5 -17.5t-34.5 -20.5q-53 -25 -57 -28q-7 -6 -14 -6q-5 0 -5 4q0 7 14 10q12 4 50 35q4 4 30.5 26t37 32t25 30t20.5 39h86z" />
    <glyph glyph-name="Ucircumflex" unicode="&#xdb;" horiz-adv-x="841" 
d="M912 643q-10 -16 -60 -88q-4 -6 -23.5 -32.5t-28.5 -42.5l-182 -297q-38 -64 -38 -102q0 -32 25 -32q8 0 16.5 2t17.5 7.5t16.5 9.5t18 13t16 13.5t16 15.5t13.5 14t13 14l11 11q30 32 33 38l4 5q3 6 6 9t6 3q6 0 6 -5q0 -7 -13 -17q-16 -15 -36 -42q-30 -37 -92 -91
q-57 -49 -107 -49q-54 0 -54 59q0 48 53 152q-27 -29 -82 -94q-14 -17 -56 -52q-85 -69 -148 -69q-68 0 -68 82q0 47 45 123.5t99 144.5t99 142t45 118q0 26 -16 41t-42 15q-98 0 -198 -90q-56 -48 -98.5 -111.5t-42.5 -122.5q0 -76 69 -76q22 0 46.5 9t38.5 23t20 16l2 -2
q-2 -12 -15 -22q-4 -4 -22.5 -21t-24.5 -21t-20.5 -13.5t-28.5 -12t-31 -2.5q-84 0 -84 89q0 74 55.5 152.5t126.5 131.5q117 88 231 88q48 0 78.5 -21t30.5 -67q0 -45 -43 -118.5t-94.5 -139t-94.5 -136.5t-43 -111t39 -40q38 0 90.5 42.5t89.5 86.5q11 13 22 28t25 34
t21 29q76 103 112 161q95 157 131 209q5 -1 14 -1h15q24 0 70 10zM853 876q0 -6 -7 -28t-15 -47t-10 -32q-6 -14 -7 -23q-4 -14 -8 -14q-6 0 -6 8q0 7 2 20.5t2 17.5t0.5 13t0.5 14q0 24 -8 24q-3 0 -8.5 -2.5t-12.5 -6l-9 -4.5q-13 -6 -38.5 -25.5t-34.5 -25.5
q-33 -21 -35 -23q-12 -12 -21 -12q-3 3 -3 4q0 8 19 23q17 14 68 60q4 4 28.5 27.5t38.5 34.5q15 12 30 12q34 0 34 -15z" />
    <glyph glyph-name="Udieresis" unicode="&#xdc;" horiz-adv-x="841" 
d="M912 643q-10 -16 -60 -88q-4 -6 -23.5 -32.5t-28.5 -42.5l-182 -297q-38 -64 -38 -102q0 -32 25 -32q8 0 16.5 2t17.5 7.5t16.5 9.5t18 13t16 13.5t16 15.5t13.5 14t13 14l11 11q30 32 33 38l4 5q3 6 6 9t6 3q6 0 6 -5q0 -7 -13 -17q-16 -15 -36 -42q-30 -37 -92 -91
q-57 -49 -107 -49q-54 0 -54 59q0 48 53 152q-27 -29 -82 -94q-14 -17 -56 -52q-85 -69 -148 -69q-68 0 -68 82q0 47 45 123.5t99 144.5t99 142t45 118q0 26 -16 41t-42 15q-98 0 -198 -90q-56 -48 -98.5 -111.5t-42.5 -122.5q0 -76 69 -76q22 0 46.5 9t38.5 23t20 16l2 -2
q-2 -12 -15 -22q-4 -4 -22.5 -21t-24.5 -21t-20.5 -13.5t-28.5 -12t-31 -2.5q-84 0 -84 89q0 74 55.5 152.5t126.5 131.5q117 88 231 88q48 0 78.5 -21t30.5 -67q0 -45 -43 -118.5t-94.5 -139t-94.5 -136.5t-43 -111t39 -40q38 0 90.5 42.5t89.5 86.5q11 13 22 28t25 34
t21 29q76 103 112 161q95 157 131 209q5 -1 14 -1h15q24 0 70 10zM721 812q0 -26 -25 -51.5t-51 -25.5q-34 0 -34 33q0 26 25 51.5t51 25.5q15 0 24.5 -9t9.5 -24zM887 812q0 -26 -25 -51.5t-51 -25.5q-34 0 -34 33q0 27 25 52t52 25q15 0 24 -9t9 -24z" />
    <glyph glyph-name="Yacute" unicode="&#xdd;" horiz-adv-x="789" 
d="M915 639q-79 -128 -174 -277q-19 -30 -54.5 -87.5t-54.5 -86.5q-122 -186 -172 -248q-71 -88 -165.5 -139.5t-200.5 -51.5q-39 0 -58 4q-30 6 -52.5 25.5t-22.5 48.5q0 23 17 39t40 16q16 0 26 -8.5t10 -23.5q0 -7 -13.5 -13t-13.5 -20q0 -30 27.5 -42.5t61.5 -12.5
q99 0 198 103q16 16 30.5 33.5t30.5 38t27 35t28 39.5t25 37t26 41.5t23.5 38t25 41.5t23.5 39q-73 -80 -121 -124q-88 -82 -167 -82q-69 0 -69 83q0 31 24 78t38.5 67t49.5 67q7 9 29.5 38.5t32 42t28 38.5t29 43t23.5 41t22 46q13 28 13 53q0 26 -16 40t-43 14
q-67 0 -149 -55.5t-138.5 -136.5t-56.5 -148q0 -30 17 -48.5t47 -18.5q26 0 52.5 14.5t43 29t17.5 14.5q3 0 3 -3q0 -4 -4 -9.5t-10 -12.5l-6 -7q-61 -70 -139 -70q-83 0 -83 93q0 54 38.5 116t88.5 112q60 58 141.5 100t153.5 42q48 0 80.5 -23t32.5 -70q0 -37 -28 -90.5
t-68 -107t-80.5 -106.5t-68.5 -101t-28 -78q0 -43 42 -43q34 0 83.5 36.5t81.5 71t62 72.5q118 150 268 401q48 1 96 12zM912 905q-60 -63 -125 -105q-36 -23 -62 -37q-3 -2 -28.5 -13.5t-28.5 -14.5q-7 -7 -14 -7q-5 0 -5 5t14 10q19 7 50 34q5 4 24.5 20t28.5 25t23.5 24
t23 29.5t13.5 29.5h86z" />
    <glyph glyph-name="Thorn" unicode="&#xde;" horiz-adv-x="726" 
d="M758 424q0 -89 -68.5 -146t-159.5 -57h-12q-41 0 -41 15q0 5 5 5q8 0 22 -4.5t22 -4.5q45 0 100 48q28 27 46 66t18 76q0 85 -71 124q-6 -10 -17.5 -31t-17.5 -32q-64 -114 -72 -130q-51 -97 -96.5 -161t-112.5 -115q-60 -45 -135.5 -73.5t-145.5 -28.5q-23 0 -45.5 3
t-47 11t-40 25t-15.5 41t15.5 40.5t39.5 16.5q34 0 34 -27q0 -16 -14 -21.5t-14 -20.5q0 -28 28 -42t58 -14q92 0 184 76q51 43 104 119q61 87 127 204q58 100 126 178q-23 4 -52 4q-30 0 -68 -5q-99 -15 -191 -72q-65 -41 -111 -98t-46 -120q0 -38 22.5 -59.5t59.5 -21.5
q26 0 63 15t55 33q14 14 19 14q3 0 3 -3q0 -6 -14 -20q-6 -6 -18 -15.5t-17 -14.5q-23 -18 -69 -35.5t-75 -17.5q-44 0 -71.5 25t-27.5 69q0 108 135 214q165 127 371 127h24q8 0 24 -2q34 32 77 57t79 25q11 0 11 -5t-6 -5h-9q-18 0 -44 -19q-21 -16 -53 -65
q125 -40 125 -145z" />
    <glyph glyph-name="germandbls" unicode="&#xdf;" horiz-adv-x="439" 
d="M426 557q0 -42 -51 -80q-2 -2 -15 -11t-17 -11.5t-15.5 -11.5t-16 -13.5l-13.5 -13.5t-13 -16t-8.5 -16t-6.5 -19t-2 -20q0 -28 4 -51q7 -63 7 -107q0 -80 -52.5 -136.5t-131.5 -56.5q-24 0 -44 9.5t-20 31.5q0 9 11.5 22t20.5 13q1 0 1 -28q0 -13 7.5 -22.5t21.5 -9.5
q24 0 60 33q22 21 34 56t14 54.5t4 66.5q1 9 1 13q3 53 11 85t35 65q7 8 20 25t21 26q5 5 14.5 15.5t15.5 16.5q43 51 43 84q0 23 -20 23q-22 0 -61 -29q-18 -13 -34 -29t-33 -37.5t-26 -34.5t-27.5 -42t-24.5 -37q-48 -74 -117 -187q-81 -134 -137 -204
q-156 -197 -330 -197q-31 0 -59 13t-28 40q0 16 11.5 28t27.5 12q8 0 18 -5.5t10 -13.5q0 -2 -7.5 -11.5t-7.5 -19.5q0 -17 17 -25t36 -8q119 0 268 239q22 34 63.5 99.5t63.5 98.5q118 190 203 268q43 41 102 74.5t105 33.5q19 0 33 -12t14 -30z" />
    <glyph glyph-name="agrave" unicode="&#xe0;" horiz-adv-x="424" 
d="M218 290q0 37 -30 37q-43 0 -109.5 -70t-100.5 -127q-23 -40 -23 -66q0 -15 10 -25t25 -10q35 0 88 53q45 47 68 82l32 50l32 49q8 14 8 27zM373 191q0 -5 -19 -28t-44 -50t-28 -31l-15 -15l-18 -18t-17.5 -16.5t-21 -16.5t-20 -12t-22 -10t-21.5 -3q-24 0 -37.5 14.5
t-13.5 39.5q0 15 11 52l-20 -20l-25 -25t-24 -21.5t-29 -21.5t-26.5 -12t-29.5 -6q-33 0 -49 22t-16 57q0 84 100 172q113 98 192 98q55 0 55 -47l28 40h77l-156 -230q-22 -30 -22 -59q0 -24 20 -24q21 0 45 22q30 25 73.5 71.5t56.5 69.5q1 1 2 3l1.5 3t2 2.5t3 2.5t3.5 1
q4 0 4 -4zM399 439q0 -4 -4 -4q-5 0 -31 34q-3 4 -11.5 15.5t-13.5 18.5q-23 32 -50 83q-1 2 -10 18h74q0 -63 16 -98l13 -31q4 -17 10 -23q7 -7 7 -13z" />
    <glyph glyph-name="aacute" unicode="&#xe1;" horiz-adv-x="424" 
d="M218 290q0 37 -30 37q-43 0 -109.5 -70t-100.5 -127q-23 -40 -23 -66q0 -15 10 -25t25 -10q35 0 88 53q45 47 68 82l32 50l32 49q8 14 8 27zM373 191q0 -5 -19 -28t-44 -50t-28 -31l-15 -15l-18 -18t-17.5 -16.5t-21 -16.5t-20 -12t-22 -10t-21.5 -3q-24 0 -37.5 14.5
t-13.5 39.5q0 15 11 52l-20 -20l-25 -25t-24 -21.5t-29 -21.5t-26.5 -12t-29.5 -6q-33 0 -49 22t-16 57q0 84 100 172q113 98 192 98q55 0 55 -47l28 40h77l-156 -230q-22 -30 -22 -59q0 -24 20 -24q21 0 45 22q30 25 73.5 71.5t56.5 69.5q1 1 2 3l1.5 3t2 2.5t3 2.5t3.5 1
q4 0 4 -4zM468 604q-51 -56 -125 -104q-5 -3 -27.5 -17.5t-34.5 -20.5q-53 -25 -57 -28q-8 -6 -14 -6q-5 0 -5 4q0 6 14 10q12 4 50 35q4 4 30.5 26t37 32t25 30t20.5 39h86z" />
    <glyph glyph-name="acircumflex" unicode="&#xe2;" horiz-adv-x="424" 
d="M218 290q0 37 -30 37q-43 0 -109.5 -70t-100.5 -127q-23 -40 -23 -66q0 -15 10 -25t25 -10q35 0 88 53q45 47 68 82l32 50l32 49q8 14 8 27zM373 191q0 -5 -19 -28t-44 -50t-28 -31l-15 -15l-18 -18t-17.5 -16.5t-21 -16.5t-20 -12t-22 -10t-21.5 -3q-24 0 -37.5 14.5
t-13.5 39.5q0 15 11 52l-20 -20l-25 -25t-24 -21.5t-29 -21.5t-26.5 -12t-29.5 -6q-33 0 -49 22t-16 57q0 84 100 172q113 98 192 98q55 0 55 -47l28 40h77l-156 -230q-22 -30 -22 -59q0 -24 20 -24q21 0 45 22q30 25 73.5 71.5t56.5 69.5q1 1 2 3l1.5 3t2 2.5t3 2.5t3.5 1
q4 0 4 -4zM430 586q0 -6 -7 -28t-15 -47t-10 -32q-6 -14 -7 -23q-3 -14 -8 -14q-6 0 -6 8q0 7 2 20.5t2 17.5t0.5 13t0.5 14q0 24 -8 24q-3 0 -8.5 -2.5t-12.5 -6l-9 -4.5q-13 -6 -38.5 -25.5t-34.5 -25.5q-33 -21 -35 -23q-12 -12 -21 -12q-3 3 -3 4q0 8 19 23q17 14 68 60
q4 4 28.5 27.5t38.5 34.5q15 12 30 12q34 0 34 -15z" />
    <glyph glyph-name="atilde" unicode="&#xe3;" horiz-adv-x="424" 
d="M218 290q0 37 -30 37q-43 0 -109.5 -70t-100.5 -127q-23 -40 -23 -66q0 -15 10 -25t25 -10q35 0 88 53q45 47 68 82l32 50l32 49q8 14 8 27zM373 191q0 -5 -19 -28t-44 -50t-28 -31l-15 -15l-18 -18t-17.5 -16.5t-21 -16.5t-20 -12t-22 -10t-21.5 -3q-24 0 -37.5 14.5
t-13.5 39.5q0 15 11 52l-20 -20l-25 -25t-24 -21.5t-29 -21.5t-26.5 -12t-29.5 -6q-33 0 -49 22t-16 57q0 84 100 172q113 98 192 98q55 0 55 -47l28 40h77l-156 -230q-22 -30 -22 -59q0 -24 20 -24q21 0 45 22q30 25 73.5 71.5t56.5 69.5q1 1 2 3l1.5 3t2 2.5t3 2.5t3.5 1
q4 0 4 -4zM453 571q0 -32 -40 -56.5t-75 -24.5q-23 0 -58 13.5t-45 13.5q-9 0 -18 -6t-14.5 -12t-6.5 -6q-5 0 -5 7q0 5 7 12q13 15 19 22t18.5 13.5t27.5 6.5q17 0 58.5 -14.5t68.5 -14.5q43 0 43 40q0 10 -5.5 19.5t-5.5 11.5q0 5 7 5q24 0 24 -30z" />
    <glyph glyph-name="adieresis" unicode="&#xe4;" horiz-adv-x="424" 
d="M218 290q0 37 -30 37q-43 0 -109.5 -70t-100.5 -127q-23 -40 -23 -66q0 -15 10 -25t25 -10q35 0 88 53q45 47 68 82l32 50l32 49q8 14 8 27zM373 191q0 -5 -19 -28t-44 -50t-28 -31l-15 -15l-18 -18t-17.5 -16.5t-21 -16.5t-20 -12t-22 -10t-21.5 -3q-24 0 -37.5 14.5
t-13.5 39.5q0 15 11 52l-20 -20l-25 -25t-24 -21.5t-29 -21.5t-26.5 -12t-29.5 -6q-33 0 -49 22t-16 57q0 84 100 172q113 98 192 98q55 0 55 -47l28 40h77l-156 -230q-22 -30 -22 -59q0 -24 20 -24q21 0 45 22q30 25 73.5 71.5t56.5 69.5q1 1 2 3l1.5 3t2 2.5t3 2.5t3.5 1
q4 0 4 -4zM310 574q0 -26 -25 -51.5t-51 -25.5q-34 0 -34 33q0 26 25 51.5t51 25.5q15 0 24.5 -9t9.5 -24zM476 574q0 -26 -25 -51.5t-51 -25.5q-34 0 -34 33q0 27 25 52t52 25q15 0 24 -9t9 -24z" />
    <glyph glyph-name="aring" unicode="&#xe5;" horiz-adv-x="424" 
d="M218 290q0 37 -30 37q-43 0 -109.5 -70t-100.5 -127q-23 -40 -23 -66q0 -15 10 -25t25 -10q35 0 88 53q45 47 68 82l32 50l32 49q8 14 8 27zM373 191q0 -5 -19 -28t-44 -50t-28 -31l-15 -15l-18 -18t-17.5 -16.5t-21 -16.5t-20 -12t-22 -10t-21.5 -3q-24 0 -37.5 14.5
t-13.5 39.5q0 15 11 52l-20 -20l-25 -25t-24 -21.5t-29 -21.5t-26.5 -12t-29.5 -6q-33 0 -49 22t-16 57q0 84 100 172q113 98 192 98q55 0 55 -47l28 40h77l-156 -230q-22 -30 -22 -59q0 -24 20 -24q21 0 45 22q30 25 73.5 71.5t56.5 69.5q1 1 2 3l1.5 3t2 2.5t3 2.5t3.5 1
q4 0 4 -4zM372 555q0 16 -11 28t-28 12q-18 0 -30.5 -11.5t-12.5 -29.5q0 -17 12.5 -28.5t30.5 -11.5q17 0 28 12t11 29zM402 554q0 -29 -20.5 -48.5t-48.5 -19.5q-30 0 -50.5 19.5t-20.5 48.5t20.5 49.5t49.5 20.5t49.5 -20.5t20.5 -49.5z" />
    <glyph glyph-name="ae" unicode="&#xe6;" horiz-adv-x="518" 
d="M210 295q0 29 -28 29q-37 0 -91.5 -51t-93.5 -115.5t-39 -101.5v-5q0 -12 10 -19t22 -7q61 0 171 165q3 5 12.5 18.5t14 21t10.5 20t9 23.5t3 22zM417 311q0 18 -17 18q-47 0 -121 -88q-31 -34 -49 -69q4 1 11 1q8 0 12 1q44 7 104 52.5t60 84.5zM473 199l-7 -9
q-6 -9 -12.5 -17.5t-6.5 -9.5q-10 -15 -28 -33q-36 -39 -64 -65t-73 -50t-86 -24q-50 0 -67.5 27.5t-17.5 80.5q-103 -109 -158 -109q-30 0 -48 19.5t-18 49.5q0 58 48.5 124t117.5 109.5t126 43.5q24 0 34.5 -9.5t15.5 -33.5l25 38h50l-23 -33q6 3 21 10t22 10.5t21 9
t23.5 8t22 4.5t24.5 2q45 0 45 -31t-41 -67t-78 -51q-45 -22 -123 -37q-33 -47 -33 -87q0 -48 47 -48q56 0 117.5 54t109.5 119q3 9 9 9q5 0 5 -4z" />
    <glyph glyph-name="ccedilla" unicode="&#xe7;" horiz-adv-x="294" 
d="M244 190q0 -3 -2.5 -7.5t-6 -9.5t-4.5 -6q-41 -64 -110 -116t-136 -58l-53 -49q1 -1 6.5 -6t7 -6.5t5.5 -6t5.5 -7t4 -7t3 -8.5t0.5 -9q0 -34 -34 -59t-70 -25q-18 0 -32.5 9.5t-14.5 26.5q0 13 8.5 21.5t21.5 8.5q17 0 19 -7q-13 -13 -13 -24q0 -20 26 -20q22 0 39 14
t17 36q0 33 -40 47l80 71q-83 0 -83 87q0 63 63 125.5t135 100.5q58 29 107 29q48 0 48 -27q0 -7 -13.5 -26t-19.5 -19q-5 0 -5 10q-5 43 -41 43q-12 0 -25.5 -6.5t-28.5 -21t-24 -23t-24.5 -27t-16.5 -19.5q-75 -96 -75 -151q0 -43 49 -43q47 0 86 27t83 74q3 3 15 16
t19.5 22.5t12.5 18.5q3 10 8 10q3 0 3 -3z" />
    <glyph glyph-name="egrave" unicode="&#xe8;" horiz-adv-x="286" 
d="M191 310q0 19 -23 19q-8 0 -18.5 -5t-17 -10t-17 -15t-13.5 -12q-66 -61 -105 -120q85 14 138 59q19 14 37.5 39.5t18.5 44.5zM237 191q0 -6 -12 -22t-29.5 -35t-19.5 -22q-51 -57 -96.5 -89t-103.5 -32q-90 0 -90 83q0 57 51 120.5t121.5 104.5t126.5 41q49 0 49 -33
q0 -36 -50 -72t-102.5 -55.5t-90.5 -27.5q-32 -58 -32 -86q0 -46 52 -46q66 0 156 97q4 5 13.5 15t15.5 16.5t13 15.5t11 16q1 1 3 5t4.5 6.5t5.5 2.5q4 0 4 -3zM330 439q0 -4 -4 -4q-5 0 -31 34q-3 4 -11.5 15.5t-13.5 18.5q-23 32 -50 83q-1 2 -10 18h74q0 -63 16 -98
l13 -31q4 -17 10 -23q7 -7 7 -13z" />
    <glyph glyph-name="eacute" unicode="&#xe9;" horiz-adv-x="286" 
d="M191 310q0 19 -23 19q-8 0 -18.5 -5t-17 -10t-17 -15t-13.5 -12q-66 -61 -105 -120q85 14 138 59q19 14 37.5 39.5t18.5 44.5zM237 191q0 -6 -12 -22t-29.5 -35t-19.5 -22q-51 -57 -96.5 -89t-103.5 -32q-90 0 -90 83q0 57 51 120.5t121.5 104.5t126.5 41q49 0 49 -33
q0 -36 -50 -72t-102.5 -55.5t-90.5 -27.5q-32 -58 -32 -86q0 -46 52 -46q66 0 156 97q4 5 13.5 15t15.5 16.5t13 15.5t11 16q1 1 3 5t4.5 6.5t5.5 2.5q4 0 4 -3zM399 604q-51 -56 -125 -104q-5 -3 -27.5 -17.5t-34.5 -20.5q-53 -25 -57 -28q-7 -6 -14 -6q-5 0 -5 4
q0 6 14 10q12 4 50 35q4 4 30.5 26t37 32t25 30t20.5 39h86z" />
    <glyph glyph-name="ecircumflex" unicode="&#xea;" horiz-adv-x="286" 
d="M191 310q0 19 -23 19q-8 0 -18.5 -5t-17 -10t-17 -15t-13.5 -12q-66 -61 -105 -120q85 14 138 59q19 14 37.5 39.5t18.5 44.5zM237 191q0 -6 -12 -22t-29.5 -35t-19.5 -22q-51 -57 -96.5 -89t-103.5 -32q-90 0 -90 83q0 57 51 120.5t121.5 104.5t126.5 41q49 0 49 -33
q0 -36 -50 -72t-102.5 -55.5t-90.5 -27.5q-32 -58 -32 -86q0 -46 52 -46q66 0 156 97q4 5 13.5 15t15.5 16.5t13 15.5t11 16q1 1 3 5t4.5 6.5t5.5 2.5q4 0 4 -3zM360 586q0 -6 -7 -28t-15 -47t-10 -32q-6 -14 -7 -23q-3 -14 -8 -14q-6 0 -6 8q0 7 2 20.5t2 17.5t0.5 13
t0.5 14q0 24 -8 24q-3 0 -8.5 -2.5t-12.5 -6l-9 -4.5q-13 -6 -38.5 -25.5t-34.5 -25.5q-33 -21 -35 -23q-12 -12 -21 -12q-3 3 -3 4q0 8 19 23q17 14 68 60q4 4 28.5 27.5t38.5 34.5q15 12 30 12q34 0 34 -15z" />
    <glyph glyph-name="edieresis" unicode="&#xeb;" horiz-adv-x="286" 
d="M191 310q0 19 -23 19q-8 0 -18.5 -5t-17 -10t-17 -15t-13.5 -12q-66 -61 -105 -120q85 14 138 59q19 14 37.5 39.5t18.5 44.5zM237 191q0 -6 -12 -22t-29.5 -35t-19.5 -22q-51 -57 -96.5 -89t-103.5 -32q-90 0 -90 83q0 57 51 120.5t121.5 104.5t126.5 41q49 0 49 -33
q0 -36 -50 -72t-102.5 -55.5t-90.5 -27.5q-32 -58 -32 -86q0 -46 52 -46q66 0 156 97q4 5 13.5 15t15.5 16.5t13 15.5t11 16q1 1 3 5t4.5 6.5t5.5 2.5q4 0 4 -3zM231 574q0 -26 -25 -51.5t-51 -25.5q-34 0 -34 33q0 26 25 51.5t51 25.5q15 0 24.5 -9t9.5 -24zM397 574
q0 -26 -25 -51.5t-51 -25.5q-34 0 -34 33q0 27 25 52t52 25q15 0 24 -9t9 -24z" />
    <glyph glyph-name="igrave" unicode="&#xec;" horiz-adv-x="207" 
d="M155 192q0 -10 -20 -34.5t-46.5 -51.5t-28.5 -30q-80 -86 -132 -86q-27 0 -45 13.5t-18 39.5q0 34 35 87l101 150q17 22 17 36q0 2 -3 17h85q1 -3 1 -14q0 -14 -20 -40l-116 -172q-26 -41 -26 -64q0 -24 16 -24q39 0 162 132q21 24 24 31q1 1 2.5 5t3.5 6t5 2t3 -3z
M182 439q0 -4 -4 -4q-5 0 -31 34q-3 4 -11.5 15.5t-13.5 18.5q-23 32 -50 83q-1 2 -10 18h74q0 -63 16 -98l13 -31q4 -17 10 -23q7 -7 7 -13z" />
    <glyph glyph-name="iacute" unicode="&#xed;" horiz-adv-x="207" 
d="M155 192q0 -10 -20 -34.5t-46.5 -51.5t-28.5 -30q-80 -86 -132 -86q-27 0 -45 13.5t-18 39.5q0 34 35 87l101 150q17 22 17 36q0 2 -3 17h85q1 -3 1 -14q0 -14 -20 -40l-116 -172q-26 -41 -26 -64q0 -24 16 -24q39 0 162 132q21 24 24 31q1 1 2.5 5t3.5 6t5 2t3 -3z
M305 604q-51 -56 -125 -104q-5 -3 -27.5 -17.5t-34.5 -20.5q-53 -25 -57 -28q-7 -6 -14 -6q-5 0 -5 4q0 6 14 10q12 4 50 35q4 4 30.5 26t37 32t25 30t20.5 39h86z" />
    <glyph glyph-name="icircumflex" unicode="&#xee;" horiz-adv-x="207" 
d="M155 192q0 -10 -20 -34.5t-46.5 -51.5t-28.5 -30q-80 -86 -132 -86q-27 0 -45 13.5t-18 39.5q0 34 35 87l101 150q17 22 17 36q0 2 -3 17h85q1 -3 1 -14q0 -14 -20 -40l-116 -172q-26 -41 -26 -64q0 -24 16 -24q39 0 162 132q21 24 24 31q1 1 2.5 5t3.5 6t5 2t3 -3z
M236 586q0 -6 -7 -28t-15 -47t-10 -32q-6 -14 -7 -23q-3 -14 -8 -14q-6 0 -6 8q0 7 2 20.5t2 17.5t0.5 13t0.5 14q0 24 -8 24q-3 0 -8.5 -2.5t-12.5 -6l-9 -4.5q-13 -6 -38.5 -25.5t-34.5 -25.5q-33 -21 -35 -23q-12 -12 -21 -12q-3 3 -3 4q0 8 19 23q17 14 68 60
q4 4 28.5 27.5t38.5 34.5q15 12 30 12q34 0 34 -15z" />
    <glyph glyph-name="idieresis" unicode="&#xef;" horiz-adv-x="207" 
d="M155 192q0 -10 -20 -34.5t-46.5 -51.5t-28.5 -30q-80 -86 -132 -86q-27 0 -45 13.5t-18 39.5q0 34 35 87l101 150q17 22 17 36q0 2 -3 17h85q1 -3 1 -14q0 -14 -20 -40l-116 -172q-26 -41 -26 -64q0 -24 16 -24q39 0 162 132q21 24 24 31q1 1 2.5 5t3.5 6t5 2t3 -3z
M156 574q0 -26 -21 -51.5t-46 -25.5q-30 0 -30 33q0 25 21 51t46 26q14 0 22 -9t8 -24zM264 574q0 -26 -21 -51.5t-46 -25.5q-30 0 -30 33q0 26 21.5 51.5t46.5 25.5q29 0 29 -33z" />
    <glyph glyph-name="eth" unicode="&#xf0;" horiz-adv-x="425" 
d="M213 292q0 35 -33 35q-39 0 -94.5 -52.5t-95.5 -118.5t-40 -104q0 -41 43 -41q51 0 118 82q38 47 70 103.5t32 95.5zM462 575l-166 -77q8 -40 8 -105q0 -58 -25 -125t-62 -119q-15 -24 -39 -51q-39 -44 -92 -79t-99 -35q-45 0 -74 22.5t-29 66.5q0 76 85 165
q103 103 208 103q23 0 33.5 -3.5t25.5 -17.5q27 45 38 83.5t11 89.5l-190 -89l1 17l187 87q-5 37 -26.5 74.5t-52.5 37.5q-18 0 -24.5 -18.5t-20.5 -18.5q-16 0 -24 13.5t-8 30.5q0 22 16 34.5t39 12.5q41 0 72 -54t39 -104v-4l170 80z" />
    <glyph glyph-name="ntilde" unicode="&#xf1;" horiz-adv-x="415" 
d="M363 189q-28 -37 -31 -40q-37 -52 -100 -103.5t-112 -51.5q-50 0 -50 46q0 29 38 82t75.5 102t37.5 68q0 22 -24 22q-9 0 -19.5 -3t-21.5 -9t-19.5 -11t-20 -15t-17.5 -15t-17.5 -15.5t-13.5 -12.5q-1 -1 -6.5 -5.5t-9.5 -9.5l-5 -4l-144 -214h-81l201 297q15 19 9 36h81
q0 -23 -13 -38l-44 -57q1 1 14 12.5t16 14t16 13.5t18 15t17.5 13t19.5 12.5t18.5 10t20 9t19 4.5t19.5 2q25 0 41.5 -12.5t16.5 -36.5q0 -31 -36.5 -82.5t-73 -98.5t-36.5 -69q0 -19 18 -19q35 0 95.5 58t86.5 98q1 1 3 4.5t4 5.5t4 2q6 0 6 -5zM419 571q0 -32 -40 -56.5
t-75 -24.5q-23 0 -58 13.5t-45 13.5q-9 0 -18 -6t-14.5 -12t-6.5 -6q-5 0 -5 7q0 5 7 12q13 15 19 22t18.5 13.5t27.5 6.5q17 0 58.5 -14.5t68.5 -14.5q43 0 43 40q0 10 -5.5 19.5t-5.5 11.5q0 5 7 5q24 0 24 -30z" />
    <glyph glyph-name="ograve" unicode="&#xf2;" horiz-adv-x="377" 
d="M220 292q0 35 -32 35q-39 0 -95 -52t-96 -118t-40 -105q0 -41 43 -41q9 0 18 2.5t17 5.5t17.5 10t15.5 11.5t16 14.5l14.5 14.5t14 16.5t12 15.5t12 16t10.5 13.5q73 100 73 161zM265 263q0 -70 -73 -155q-42 -47 -99.5 -85.5t-107.5 -38.5q-42 0 -70 21t-28 61
q0 60 48 125t118 106.5t130 41.5q42 0 62 -17.5t20 -58.5zM346 439q0 -4 -4 -4q-5 0 -31 34q-3 4 -11.5 15.5t-13.5 18.5q-23 32 -50 83q-1 2 -10 18h74q0 -63 16 -98l13 -31q4 -17 10 -23q7 -7 7 -13z" />
    <glyph glyph-name="oacute" unicode="&#xf3;" horiz-adv-x="377" 
d="M220 292q0 35 -32 35q-39 0 -95 -52t-96 -118t-40 -105q0 -41 43 -41q9 0 18 2.5t17 5.5t17.5 10t15.5 11.5t16 14.5l14.5 14.5t14 16.5t12 15.5t12 16t10.5 13.5q73 100 73 161zM265 263q0 -70 -73 -155q-42 -47 -99.5 -85.5t-107.5 -38.5q-42 0 -70 21t-28 61
q0 60 48 125t118 106.5t130 41.5q42 0 62 -17.5t20 -58.5zM415 604q-51 -56 -125 -104q-5 -3 -27.5 -17.5t-34.5 -20.5q-53 -25 -57 -28q-7 -6 -14 -6q-5 0 -5 4q0 6 14 10q12 4 50 35q4 4 30.5 26t37 32t25 30t20.5 39h86z" />
    <glyph glyph-name="ocircumflex" unicode="&#xf4;" horiz-adv-x="377" 
d="M220 292q0 35 -32 35q-39 0 -95 -52t-96 -118t-40 -105q0 -41 43 -41q9 0 18 2.5t17 5.5t17.5 10t15.5 11.5t16 14.5l14.5 14.5t14 16.5t12 15.5t12 16t10.5 13.5q73 100 73 161zM265 263q0 -70 -73 -155q-42 -47 -99.5 -85.5t-107.5 -38.5q-42 0 -70 21t-28 61
q0 60 48 125t118 106.5t130 41.5q42 0 62 -17.5t20 -58.5zM377 586q0 -6 -7 -28t-15 -47t-10 -32q-6 -14 -7 -23q-4 -14 -8 -14q-6 0 -6 8q0 7 2 20.5t2 17.5t0.5 13t0.5 14q0 24 -8 24q-3 0 -8.5 -2.5t-12.5 -6l-9 -4.5q-13 -6 -38.5 -25.5t-34.5 -25.5q-33 -21 -35 -23
q-12 -12 -21 -12q-3 3 -3 4q0 8 19 23q17 14 68 60q4 4 28.5 27.5t38.5 34.5q15 12 30 12q34 0 34 -15z" />
    <glyph glyph-name="otilde" unicode="&#xf5;" horiz-adv-x="377" 
d="M220 292q0 35 -32 35q-39 0 -95 -52t-96 -118t-40 -105q0 -41 43 -41q9 0 18 2.5t17 5.5t17.5 10t15.5 11.5t16 14.5l14.5 14.5t14 16.5t12 15.5t12 16t10.5 13.5q73 100 73 161zM265 263q0 -70 -73 -155q-42 -47 -99.5 -85.5t-107.5 -38.5q-42 0 -70 21t-28 61
q0 60 48 125t118 106.5t130 41.5q42 0 62 -17.5t20 -58.5zM404 571q0 -32 -40 -56.5t-75 -24.5q-23 0 -58 13.5t-45 13.5q-9 0 -18 -6t-14.5 -12t-6.5 -6q-5 0 -5 7q0 5 7 12q13 15 19 22t18.5 13.5t27.5 6.5q17 0 58.5 -14.5t68.5 -14.5q43 0 43 40q0 10 -5.5 19.5
t-5.5 11.5q0 5 7 5q24 0 24 -30z" />
    <glyph glyph-name="odieresis" unicode="&#xf6;" horiz-adv-x="377" 
d="M220 292q0 35 -32 35q-39 0 -95 -52t-96 -118t-40 -105q0 -41 43 -41q9 0 18 2.5t17 5.5t17.5 10t15.5 11.5t16 14.5l14.5 14.5t14 16.5t12 15.5t12 16t10.5 13.5q73 100 73 161zM265 263q0 -70 -73 -155q-42 -47 -99.5 -85.5t-107.5 -38.5q-42 0 -70 21t-28 61
q0 60 48 125t118 106.5t130 41.5q42 0 62 -17.5t20 -58.5zM257 574q0 -26 -25 -51.5t-51 -25.5q-34 0 -34 33q0 26 25 51.5t51 25.5q15 0 24.5 -9t9.5 -24zM423 574q0 -26 -25 -51.5t-51 -25.5q-34 0 -34 33q0 27 25 52t52 25q15 0 24 -9t9 -24z" />
    <glyph glyph-name="divide" unicode="&#xf7;" 
d="M291 145q0 -17 -12 -29t-29 -12t-29.5 12t-12.5 29t12.5 29t29.5 12t29 -12t12 -29zM33 305v51h434v-51h-434zM291 517q0 -17 -12 -29.5t-29 -12.5t-29.5 12.5t-12.5 29.5t12.5 29t29.5 12t29 -12t12 -29z" />
    <glyph glyph-name="oslash" unicode="&#xf8;" horiz-adv-x="373" 
d="M-43 33q10 -15 17 -19t25 -4q9 0 17.5 2t17.5 7.5t16 10t17 14t15 14t15 16.5t13 15.5t12.5 16t10.5 13.5q29 37 52 84q18 37 29 75zM211 311q-6 12 -12.5 15t-21.5 3q-27 0 -67 -34.5t-69 -69.5q-33 -44 -63 -95q-15 -24 -25 -66zM272 341q0 -6 -24 -30q12 -29 12 -51
q0 -74 -79 -162t-154 -108q-24 -7 -55 -7q-28 0 -55 14q-26 -26 -32 -26q-12 0 -12 13q0 1 2 7l24 21q-16 38 -16 55q0 57 47.5 122t115 107.5t123.5 42.5q26 0 62 -9q2 1 9 7.5t12.5 10.5t9.5 4q10 0 10 -11z" />
    <glyph glyph-name="ugrave" unicode="&#xf9;" horiz-adv-x="399" 
d="M348 187q0 -5 -26 -35.5t-35 -39.5q-1 -1 -17 -19.5t-21.5 -24t-21 -22t-25.5 -23t-24.5 -16.5t-28 -14t-26.5 -4q-26 0 -43 14t-17 39q0 24 22 66q-33 -35 -49.5 -52t-52.5 -41.5t-63 -24.5q-28 0 -45.5 14t-17.5 41q0 10 4 21.5t8 21t13 23.5t13.5 20.5t15 21
t11.5 15.5q12 19 37.5 56.5t38.5 56.5q14 22 14 38q0 3 -1.5 8t-1.5 6h83v-11q0 -22 -17 -48q-13 -19 -39.5 -57.5t-39.5 -58.5q-59 -77 -59 -112q0 -11 7.5 -18t18.5 -7q22 0 79 57q29 25 42 40t36 50l79 117q15 24 15 38q0 2 -2 10h81v-13q0 -11 -24 -49
q-13 -19 -38.5 -57.5t-39.5 -58.5q-2 -3 -14.5 -20t-20.5 -29t-16 -28t-8 -25q0 -31 31 -31q18 0 38 16q22 19 107 114q15 15 24 29q1 1 2.5 4t3.5 4.5t4 1.5q6 0 6 -4zM240 439q0 -4 -4 -4q-5 0 -31 34q-3 4 -11.5 15.5t-13.5 18.5q-23 32 -50 83q-1 2 -10 18h74
q0 -63 16 -98l13 -31q4 -17 10 -23q7 -7 7 -13z" />
    <glyph glyph-name="uacute" unicode="&#xfa;" horiz-adv-x="399" 
d="M348 187q0 -5 -26 -35.5t-35 -39.5q-1 -1 -17 -19.5t-21.5 -24t-21 -22t-25.5 -23t-24.5 -16.5t-28 -14t-26.5 -4q-26 0 -43 14t-17 39q0 24 22 66q-33 -35 -49.5 -52t-52.5 -41.5t-63 -24.5q-28 0 -45.5 14t-17.5 41q0 10 4 21.5t8 21t13 23.5t13.5 20.5t15 21
t11.5 15.5q12 19 37.5 56.5t38.5 56.5q14 22 14 38q0 3 -1.5 8t-1.5 6h83v-11q0 -22 -17 -48q-13 -19 -39.5 -57.5t-39.5 -58.5q-59 -77 -59 -112q0 -11 7.5 -18t18.5 -7q22 0 79 57q29 25 42 40t36 50l79 117q15 24 15 38q0 2 -2 10h81v-13q0 -11 -24 -49
q-13 -19 -38.5 -57.5t-39.5 -58.5q-2 -3 -14.5 -20t-20.5 -29t-16 -28t-8 -25q0 -31 31 -31q18 0 38 16q22 19 107 114q15 15 24 29q1 1 2.5 4t3.5 4.5t4 1.5q6 0 6 -4zM383 604q-51 -56 -125 -104q-5 -3 -27.5 -17.5t-34.5 -20.5q-53 -25 -57 -28q-8 -6 -14 -6q-5 0 -5 4
q0 6 14 10q12 4 50 35q4 4 30.5 26t37 32t25 30t20.5 39h86z" />
    <glyph glyph-name="ucircumflex" unicode="&#xfb;" horiz-adv-x="399" 
d="M348 187q0 -5 -26 -35.5t-35 -39.5q-1 -1 -17 -19.5t-21.5 -24t-21 -22t-25.5 -23t-24.5 -16.5t-28 -14t-26.5 -4q-26 0 -43 14t-17 39q0 24 22 66q-33 -35 -49.5 -52t-52.5 -41.5t-63 -24.5q-28 0 -45.5 14t-17.5 41q0 10 4 21.5t8 21t13 23.5t13.5 20.5t15 21
t11.5 15.5q12 19 37.5 56.5t38.5 56.5q14 22 14 38q0 3 -1.5 8t-1.5 6h83v-11q0 -22 -17 -48q-13 -19 -39.5 -57.5t-39.5 -58.5q-59 -77 -59 -112q0 -11 7.5 -18t18.5 -7q22 0 79 57q29 25 42 40t36 50l79 117q15 24 15 38q0 2 -2 10h81v-13q0 -11 -24 -49
q-13 -19 -38.5 -57.5t-39.5 -58.5q-2 -3 -14.5 -20t-20.5 -29t-16 -28t-8 -25q0 -31 31 -31q18 0 38 16q22 19 107 114q15 15 24 29q1 1 2.5 4t3.5 4.5t4 1.5q6 0 6 -4zM331 586q0 -6 -7 -28t-15 -47t-10 -32q-6 -14 -7 -23q-4 -14 -8 -14q-6 0 -6 8q0 7 2 20.5t2 17.5
t0.5 13t0.5 14q0 24 -8 24q-3 0 -8.5 -2.5t-12.5 -6l-9 -4.5q-13 -6 -38.5 -25.5t-34.5 -25.5q-33 -21 -35 -23q-12 -12 -21 -12q-3 3 -3 4q0 8 19 23q17 14 68 60q4 4 28.5 27.5t38.5 34.5q15 12 30 12q34 0 34 -15z" />
    <glyph glyph-name="udieresis" unicode="&#xfc;" horiz-adv-x="399" 
d="M348 187q0 -5 -26 -35.5t-35 -39.5q-1 -1 -17 -19.5t-21.5 -24t-21 -22t-25.5 -23t-24.5 -16.5t-28 -14t-26.5 -4q-26 0 -43 14t-17 39q0 24 22 66q-33 -35 -49.5 -52t-52.5 -41.5t-63 -24.5q-28 0 -45.5 14t-17.5 41q0 10 4 21.5t8 21t13 23.5t13.5 20.5t15 21
t11.5 15.5q12 19 37.5 56.5t38.5 56.5q14 22 14 38q0 3 -1.5 8t-1.5 6h83v-11q0 -22 -17 -48q-13 -19 -39.5 -57.5t-39.5 -58.5q-59 -77 -59 -112q0 -11 7.5 -18t18.5 -7q22 0 79 57q29 25 42 40t36 50l79 117q15 24 15 38q0 2 -2 10h81v-13q0 -11 -24 -49
q-13 -19 -38.5 -57.5t-39.5 -58.5q-2 -3 -14.5 -20t-20.5 -29t-16 -28t-8 -25q0 -31 31 -31q18 0 38 16q22 19 107 114q15 15 24 29q1 1 2.5 4t3.5 4.5t4 1.5q6 0 6 -4zM192 574q0 -26 -25 -51.5t-51 -25.5q-34 0 -34 33q0 26 25 51.5t51 25.5q15 0 24.5 -9t9.5 -24z
M358 574q0 -26 -25 -51.5t-51 -25.5q-34 0 -34 33q0 27 25 52t52 25q15 0 24 -9t9 -24z" />
    <glyph glyph-name="yacute" unicode="&#xfd;" horiz-adv-x="365" 
d="M300 333v-9q0 -6 -1 -9q-4 -19 -34 -60l-222 -331q-59 -90 -151 -132q-69 -33 -143 -33q-21 0 -41 3.5t-38.5 16.5t-18.5 34q0 16 10.5 26.5t26.5 10.5q25 0 25 -20q0 -3 -6.5 -10.5t-6.5 -16.5q0 -16 18.5 -25.5t36.5 -9.5q32 0 72 19q69 33 151 152l110 163
q-104 -109 -165 -109q-25 0 -40 14t-15 40q0 39 57 126l68 101q23 36 25 43q1 1 1 16h83q0 -18 -25 -57l-78 -116q-55 -83 -55 -109q0 -21 23 -21q31 0 80 44.5t71 79.5l76 113q31 45 26 66h80zM402 604q-50 -55 -126 -104q-44 -28 -62 -38q-68 -34 -71 -34q-4 0 -4 4
q0 7 13 10q22 8 50 35q3 2 15.5 12l17.5 14t16.5 14t17 16t14.5 15.5t14 17.5t10 18t8 20h87z" />
    <glyph glyph-name="thorn" unicode="&#xfe;" horiz-adv-x="396" 
d="M219 280q0 38 -29 38q-17 0 -43 -16.5t-39 -31.5q-16 -16 -36 -41q-48 -57 -84 -110q-36 -50 -36 -74q0 -18 12 -28.5t30 -10.5q45 0 104 65.5t94 126.5q27 52 27 82zM287 575q0 -13 -15 -37l-192 -282q87 87 143 87q31 0 47 -21.5t16 -54.5q0 -45 -29.5 -96.5
t-68.5 -87.5q-88 -88 -190 -88q-27 0 -43 7.5t-26 29.5l-178 -262h-84l531 780q11 15 11 27q0 2 -0.5 4.5t-1.5 5.5t-1 5h77q4 -12 4 -17z" />
    <glyph glyph-name="ydieresis" unicode="&#xff;" horiz-adv-x="365" 
d="M300 333v-9q0 -6 -1 -9q-4 -19 -34 -60l-222 -331q-59 -90 -151 -132q-69 -33 -143 -33q-21 0 -41 3.5t-38.5 16.5t-18.5 34q0 16 10.5 26.5t26.5 10.5q25 0 25 -20q0 -3 -6.5 -10.5t-6.5 -16.5q0 -16 18.5 -25.5t36.5 -9.5q32 0 72 19q69 33 151 152l110 163
q-104 -109 -165 -109q-25 0 -40 14t-15 40q0 39 57 126l68 101q23 36 25 43q1 1 1 16h83q0 -18 -25 -57l-78 -116q-55 -83 -55 -109q0 -21 23 -21q31 0 80 44.5t71 79.5l76 113q31 45 26 66h80zM212 574q0 -26 -25 -51.5t-51 -25.5q-34 0 -34 33q0 26 25 51.5t51 25.5
q15 0 24.5 -9t9.5 -24zM378 574q0 -26 -25 -51.5t-51 -25.5q-34 0 -34 33q0 27 25 52t52 25q15 0 24 -9t9 -24z" />
    <glyph glyph-name="Abreve" unicode="&#x102;" horiz-adv-x="872" 
d="M922 606q0 10 -8.5 16t-19.5 6q-35 0 -88.5 -36t-112.5 -95t-96 -99.5t-73 -83.5h193l166 223q39 50 39 69zM993 607q0 -31 -58 -113l-263 -360q-49 -68 -76 -134h-93q5 13 12.5 28.5t13 25t18 28t16.5 24t20 27t17 22.5q18 24 53.5 71.5t52.5 71.5h-199q-10 -10 -56 -61
t-68.5 -75t-69.5 -67t-81.5 -64t-80 -39t-87.5 -18q-69 0 -112.5 42t-43.5 111q0 122 106 230q110 110 221 110q50 0 82 -28t32 -77q0 -33 -16 -64q-39 -67 -65 -67l-2 1q0 4 4 9.5t10 12.5t7 9q9 11 15 34t6 39q0 41 -32.5 69t-73.5 28q-94 0 -167.5 -80t-73.5 -174
q0 -62 34.5 -97t96.5 -35q38 0 75.5 12t74 36.5t60.5 44.5t60 53q56 51 107 107h-67l10 16h75l73 72l33 33t37.5 37t33 31.5t38.5 35.5t35 29.5t40 31.5q93 68 159 68q25 0 41 -12t16 -35zM1175 927q0 -42 -50 -93.5t-108 -41.5q-61 10 -61 89q0 59 17 59q3 0 5 -22
t12.5 -45.5t32.5 -25.5q31 -3 59 10t43.5 31t27.5 33t14 15q8 0 8 -9z" />
    <glyph glyph-name="abreve" unicode="&#x103;" horiz-adv-x="424" 
d="M218 290q0 37 -30 37q-43 0 -109.5 -70t-100.5 -127q-23 -40 -23 -66q0 -15 10 -25t25 -10q35 0 88 53q45 47 68 82l32 50l32 49q8 14 8 27zM373 191q0 -5 -19 -28t-44 -50t-28 -31l-15 -15l-18 -18t-17.5 -16.5t-21 -16.5t-20 -12t-22 -10t-21.5 -3q-24 0 -37.5 14.5
t-13.5 39.5q0 15 11 52l-20 -20l-25 -25t-24 -21.5t-29 -21.5t-26.5 -12t-29.5 -6q-33 0 -49 22t-16 57q0 84 100 172q113 98 192 98q55 0 55 -47l28 40h77l-156 -230q-22 -30 -22 -59q0 -24 20 -24q21 0 45 22q30 25 73.5 71.5t56.5 69.5q1 1 2 3l1.5 3t2 2.5t3 2.5t3.5 1
q4 0 4 -4zM409 597q0 -42 -50 -93.5t-108 -41.5q-61 10 -61 89q0 59 17 59q3 0 5 -22t12.5 -45.5t32.5 -25.5q31 -3 59 10t43.5 31t27.5 33t14 15q8 0 8 -9z" />
    <glyph glyph-name="Dcroat" unicode="&#x110;" horiz-adv-x="941" 
d="M623 384q0 -38 -105 -45q-3 -6 -10.5 -18t-10.5 -19q-24 -43 -68.5 -101.5t-76.5 -84.5l-63 -51q110 -46 184 -46q100 0 182.5 76.5t122.5 179.5q30 81 30 158q0 100 -66.5 158t-168.5 58q-139 0 -255 -69q-67 -41 -111 -95q-51 -64 -51 -125q0 -39 22.5 -62t61.5 -23
q23 0 57 12t49 27q17 17 23 17q4 0 4 -4q0 -10 -21 -23q-87 -65 -155 -65q-46 0 -77 25.5t-31 71.5q0 50 27.5 98t71.5 85t91 64t94 44q93 35 196 35q132 0 221 -69t89 -197q0 -84 -40 -159.5t-104 -127t-144.5 -81.5t-161.5 -30q-77 0 -196 39q-122 -40 -188 -40
q-37 0 -80 12t-43 40q0 18 19.5 32t39.5 19q31 8 84 8q47 0 162 -26q28 23 55.5 56.5t45 59.5t45.5 69.5t42 63.5q1 1 3 4.5t3 5.5h-14q-5 0 -11 -2q-1 0 -2.5 -0.5l-3 -1l-3 -1t-3.5 -0.5q-9 0 -9 7q0 4 5.5 10t13.5 12t9 7q19 13 55 18q18 24 46 53q80 84 162 110
q29 9 39 9t10 -4t-4.5 -5.5t-10.5 -2.5h-6q-19 -3 -60 -44q-43 -45 -87 -117q8 -1 26 -1q7 0 21 1.5t21 1.5q8 0 8 -7zM185 51q-94 41 -159 41q-21 0 -43 -10t-22 -29q0 -24 28 -33.5t58 -9.5q29 0 57 6q30 6 42 11t39 24z" />
    <glyph glyph-name="dcroat" unicode="&#x111;" horiz-adv-x="436" 
d="M487 456q0 -9 -22 -31q-25 -20 -75 -20l-176 -262q-45 -66 -45 -99q0 -24 20 -24q21 0 38 13q53 41 120 119q14 15 23 30q10 13 12 13q4 0 4 -4q0 -8 -38 -52t-56 -62q-25 -25 -41 -39t-44.5 -30.5t-52.5 -16.5q-51 0 -51 47q0 14 6 38t7 29q-11 -12 -35 -36
q-73 -81 -121 -81q-34 0 -53.5 19.5t-19.5 53.5q0 72 53.5 134.5t128.5 105.5q69 38 109 38q25 0 37 -10t21 -35l78 115h-16q-9 0 -21 -4t-16 -4q-8 0 -8 8t7 15q12 17 38.5 27t51.5 12l43 63q21 31 23 46q1 8 -1 20h79q1 -3 1 -9v-8q0 -15 -22 -48l-47 -69h13q26 0 33 3
l8 2q7 0 7 -7zM217 288q0 39 -32 39q-34 0 -89.5 -51t-97.5 -115t-42 -99q0 -17 9 -28t25 -11q30 0 85 55q35 35 45 48q6 8 47 71l43 65q7 10 7 26z" />
    <glyph glyph-name="Itilde" unicode="&#x128;" horiz-adv-x="609" 
d="M817 662q0 -7 -18 -7q-33 -4 -70 -41q-21 -22 -43 -54q-48 -68 -87 -136q-35 -60 -50.5 -86t-49.5 -76.5t-60 -79.5t-64.5 -63.5t-80.5 -59.5q-117 -69 -241 -69q-22 0 -44.5 3.5t-47 11.5t-40 25t-15.5 41q0 20 15.5 36t35.5 16q14 0 24 -10t10 -24q0 -9 -11 -16
t-11 -21q0 -26 36.5 -38t68.5 -12q38 0 75 13.5t72 42.5t61.5 54t59.5 70t47.5 66t43.5 65l49 73q107 156 171 207q36 29 109 65l-51 3q-30 0 -86 -10q-81 -15 -139.5 -37.5t-119.5 -66.5q-116 -86 -116 -168q0 -30 20 -50.5t50 -20.5q34 0 60 14q2 2 12.5 7.5t13.5 5.5
l2 -1q-3 -8 -26 -21q-59 -33 -107 -33q-44 0 -71.5 23t-27.5 66q0 55 36.5 103t95 81.5t112 55t107.5 35.5q115 26 224 26q9 0 26 -1t27 -1q13 0 13 -6zM911 901q0 -32 -40 -56.5t-75 -24.5q-23 0 -58 13.5t-45 13.5q-9 0 -18 -6t-14.5 -12t-6.5 -6q-5 0 -5 7q0 5 7 12
q13 15 19 22t18.5 13.5t27.5 6.5q17 0 58.5 -14.5t68.5 -14.5q43 0 43 40q0 10 -5.5 19.5t-5.5 11.5q0 5 7 5q24 0 24 -30z" />
    <glyph glyph-name="itilde" unicode="&#x129;" horiz-adv-x="207" 
d="M155 192q0 -10 -20 -34.5t-46.5 -51.5t-28.5 -30q-80 -86 -132 -86q-27 0 -45 13.5t-18 39.5q0 34 35 87l101 150q17 22 17 36q0 2 -3 17h85q1 -3 1 -14q0 -14 -20 -40l-116 -172q-26 -41 -26 -64q0 -24 16 -24q39 0 162 132q21 24 24 31q1 1 2.5 5t3.5 6t5 2t3 -3z
M247 571q0 -32 -40 -56.5t-75 -24.5q-23 0 -58 13.5t-45 13.5q-9 0 -18 -6t-14.5 -12t-6.5 -6q-5 0 -5 7q0 5 7 12q13 15 19 22t18.5 13.5t27.5 6.5q17 0 58.5 -14.5t68.5 -14.5q43 0 43 40q0 10 -5.5 19.5t-5.5 11.5q0 5 7 5q24 0 24 -30z" />
    <glyph glyph-name="OE" unicode="&#x152;" horiz-adv-x="1046" 
d="M1111 684q-12 -26 -67.5 -37.5t-101.5 -11.5q-17 0 -145 8q-25 -59 -65 -128q-237 -399 -281 -477q25 4 58 4q31 0 93 -4.5t94 -4.5q98 0 142 33q18 14 34.5 37t16.5 42q0 27 -7 40l-3 9q0 7 8 7q9 0 15.5 -25.5t6.5 -39.5q0 -64 -43 -113t-139 -49q-57 0 -169 17
t-168 17q-44 0 -120 -16q-50 -12 -89 -12q-75 0 -121.5 43.5t-46.5 118.5q0 86 47 171.5t118 156.5t155 122q56 32 71 32q5 0 5 -3t-7 -7.5t-17 -9.5l-10 -5q-45 -25 -81 -58q-80 -71 -138.5 -172t-58.5 -195q0 -68 45 -110.5t114 -42.5q56 0 90 25q47 35 86 103l228 390
q26 45 26 78q0 25 -22.5 37t-50.5 12q-37 0 -86 -18t-80 -41q-51 -36 -85 -90.5t-34 -111.5q0 -44 28 -69.5t72 -25.5q36 0 55 15q4 4 8 4q6 0 6 -8q0 -4 -6.5 -8t-14.5 -7.5t-9 -4.5q-43 -20 -87 -20t-72.5 24.5t-28.5 67.5q0 39 17 79q26 57 81 116q69 73 156 102
q64 23 205 23q41 0 123 -8t124 -8h26q60 0 86 7q6 2 9 2t5 -2zM984 427q0 -6 -6 -12l-24 -27q-23 -27 -74 -27q-20 0 -59.5 3.5t-59.5 3.5q-63 0 -81 -42q-1 -1 -2.5 -5.5t-4 -7t-5.5 -2.5t-3 4q0 20 24 50q20 29 47 38.5t69 9.5q19 0 58 -2.5t59 -2.5q35 0 49 15q8 8 10 8
q3 0 3 -4z" />
    <glyph glyph-name="oe" unicode="&#x153;" horiz-adv-x="531" 
d="M216 297q0 38 -34 38q-38 0 -94 -54.5t-96 -121.5t-40 -104q0 -46 44 -46q24 0 50.5 18.5t42.5 36.5t36 44q4 5 6 8q35 42 56 89q29 63 29 92zM437 313q0 19 -21 19q-27 0 -64 -33.5t-62 -67.5q-27 -35 -39 -59q5 1 15 1q5 0 15 2q42 8 99 54.5t57 83.5zM493 202
q0 -3 -17 -24q-4 -4 -10 -13t-9 -13q-40 -56 -111.5 -110t-126.5 -54q-36 0 -53.5 17.5t-30.5 55.5q-91 -72 -168 -72q-37 0 -58 22.5t-21 60.5q0 60 48 124.5t116.5 106t127.5 41.5q40 0 56 -17t20 -57q102 74 175 74q46 0 46 -32q0 -27 -25 -54t-56 -45q-61 -36 -156 -58
q-32 -42 -32 -86q0 -49 47 -49q48 0 102.5 43t92.5 93q19 20 32 42q7 7 8 7q3 0 3 -3z" />
    <glyph glyph-name="Scaron" unicode="&#x160;" horiz-adv-x="619" 
d="M664 577q0 -52 -40 -96.5t-91 -44.5q-6 0 -17 2.5t-11 6.5q0 3 7 3q21 -3 23 -3q15 0 34 15q55 39 55 112q0 39 -27 66t-66 27q-56 0 -95 -47t-39 -104q0 -46 39.5 -137t39.5 -144q0 -79 -52 -138t-124.5 -85.5t-149.5 -26.5q-83 0 -144 47.5t-61 128.5q0 54 23 103
t64 82q36 29 83.5 48.5t89.5 19.5q47 0 75 -24t28 -70q0 -66 -47 -104q-45 -34 -58 -34q-3 0 -5 2q0 3 3 5t7.5 3.5t5.5 2.5q22 9 38.5 43.5t16.5 61.5q0 39 -25 64.5t-64 25.5q-75 0 -126.5 -61.5t-51.5 -137.5q0 -81 52.5 -132.5t133.5 -51.5q83 0 146.5 58.5t63.5 140.5
q0 42 -38 133.5t-38 143.5q0 85 69.5 143.5t155.5 58.5q48 0 82.5 -29.5t34.5 -76.5zM795 892q0 -8 -19 -23q-17 -14 -68 -60q-2 -2 -35.5 -33.5t-45.5 -38.5q-6 -2 -8 -2h-17q-25 0 -25 14q0 2 2 10q3 9 10 37q1 4 8 26.5t12 34.5q6 14 7 23q3 13 8 13t5 -6v-9
q0 -6 -1.5 -15.5t-1.5 -14.5q0 -4 -0.5 -14t-0.5 -14q0 -24 8 -24t28 13t44.5 30.5t30.5 21.5q31 20 35 23q12 12 21 12q3 -3 3 -4z" />
    <glyph glyph-name="scaron" unicode="&#x161;" horiz-adv-x="257" 
d="M110 343q-9 -55 -9 -158q0 -79 -53 -136t-131 -57h-32q-55 0 -55 25q0 10 11 25.5t20 15.5q4 0 4 -5t-1.5 -13t-1.5 -13q0 -9 9.5 -17t19.5 -8q13 0 31.5 8.5t29.5 18.5q37 33 59 94t22 116q0 41 -4 73q-1 -1 -14 -22.5t-27 -44t-28.5 -41.5t-18.5 -19q-3 0 -3 2
q0 7 8 15q55 80 76 130q45 0 88 11zM290 596q0 -8 -19 -23q-17 -14 -68 -60q-2 -2 -35.5 -33.5t-45.5 -38.5q-6 -2 -8 -2h-17q-25 0 -25 14q0 2 2 10q3 9 10 37q1 4 8 26.5t12 34.5q6 14 7 23q3 13 8 13t5 -6v-9q0 -6 -1.5 -15t-1.5 -15q0 -4 -0.5 -14t-0.5 -14q0 -24 8 -24
t28 13t44.5 30.5t30.5 21.5q31 20 35 23q12 12 21 12q3 -3 3 -4z" />
    <glyph glyph-name="Utilde" unicode="&#x168;" horiz-adv-x="841" 
d="M912 643q-10 -16 -60 -88q-4 -6 -23.5 -32.5t-28.5 -42.5l-182 -297q-38 -64 -38 -102q0 -32 25 -32q8 0 16.5 2t17.5 7.5t16.5 9.5t18 13t16 13.5t16 15.5t13.5 14t13 14l11 11q30 32 33 38l4 5q3 6 6 9t6 3q6 0 6 -5q0 -7 -13 -17q-16 -15 -36 -42q-30 -37 -92 -91
q-57 -49 -107 -49q-54 0 -54 59q0 48 53 152q-27 -29 -82 -94q-14 -17 -56 -52q-85 -69 -148 -69q-68 0 -68 82q0 47 45 123.5t99 144.5t99 142t45 118q0 26 -16 41t-42 15q-98 0 -198 -90q-56 -48 -98.5 -111.5t-42.5 -122.5q0 -76 69 -76q22 0 46.5 9t38.5 23t20 16l2 -2
q-2 -12 -15 -22q-4 -4 -22.5 -21t-24.5 -21t-20.5 -13.5t-28.5 -12t-31 -2.5q-84 0 -84 89q0 74 55.5 152.5t126.5 131.5q117 88 231 88q48 0 78.5 -21t30.5 -67q0 -45 -43 -118.5t-94.5 -139t-94.5 -136.5t-43 -111t39 -40q38 0 90.5 42.5t89.5 86.5q11 13 22 28t25 34
t21 29q76 103 112 161q95 157 131 209q5 -1 14 -1h15q24 0 70 10zM891 901q0 -32 -40 -56.5t-75 -24.5q-23 0 -58 13.5t-45 13.5q-9 0 -18 -6t-14.5 -12t-6.5 -6q-5 0 -5 7q0 5 7 12q13 15 19 22t18.5 13.5t27.5 6.5q17 0 58.5 -14.5t68.5 -14.5q43 0 43 40q0 10 -5.5 19.5
t-5.5 11.5q0 5 7 5q24 0 24 -30z" />
    <glyph glyph-name="utilde" unicode="&#x169;" horiz-adv-x="399" 
d="M348 187q0 -5 -26 -35.5t-35 -39.5q-1 -1 -17 -19.5t-21.5 -24t-21 -22t-25.5 -23t-24.5 -16.5t-28 -14t-26.5 -4q-26 0 -43 14t-17 39q0 24 22 66q-33 -35 -49.5 -52t-52.5 -41.5t-63 -24.5q-28 0 -45.5 14t-17.5 41q0 10 4 21.5t8 21t13 23.5t13.5 20.5t15 21
t11.5 15.5q12 19 37.5 56.5t38.5 56.5q14 22 14 38q0 3 -1.5 8t-1.5 6h83v-11q0 -22 -17 -48q-13 -19 -39.5 -57.5t-39.5 -58.5q-59 -77 -59 -112q0 -11 7.5 -18t18.5 -7q22 0 79 57q29 25 42 40t36 50l79 117q15 24 15 38q0 2 -2 10h81v-13q0 -11 -24 -49
q-13 -19 -38.5 -57.5t-39.5 -58.5q-2 -3 -14.5 -20t-20.5 -29t-16 -28t-8 -25q0 -31 31 -31q18 0 38 16q22 19 107 114q15 15 24 29q1 1 2.5 4t3.5 4.5t4 1.5q6 0 6 -4zM355 571q0 -32 -40 -56.5t-75 -24.5q-23 0 -58 13.5t-45 13.5q-9 0 -18 -6t-14.5 -12t-6.5 -6
q-5 0 -5 7q0 5 7 12q13 15 19 22t18.5 13.5t27.5 6.5q17 0 58.5 -14.5t68.5 -14.5q43 0 43 40q0 10 -5.5 19.5t-5.5 11.5q0 5 7 5q24 0 24 -30z" />
    <glyph glyph-name="Ydieresis" unicode="&#x178;" horiz-adv-x="789" 
d="M915 639q-79 -128 -174 -277q-19 -30 -54.5 -87.5t-54.5 -86.5q-122 -186 -172 -248q-71 -88 -165.5 -139.5t-200.5 -51.5q-39 0 -58 4q-30 6 -52.5 25.5t-22.5 48.5q0 23 17 39t40 16q16 0 26 -8.5t10 -23.5q0 -7 -13.5 -13t-13.5 -20q0 -30 27.5 -42.5t61.5 -12.5
q99 0 198 103q16 16 30.5 33.5t30.5 38t27 35t28 39.5t25 37t26 41.5t23.5 38t25 41.5t23.5 39q-73 -80 -121 -124q-88 -82 -167 -82q-69 0 -69 83q0 31 24 78t38.5 67t49.5 67q7 9 29.5 38.5t32 42t28 38.5t29 43t23.5 41t22 46q13 28 13 53q0 26 -16 40t-43 14
q-67 0 -149 -55.5t-138.5 -136.5t-56.5 -148q0 -30 17 -48.5t47 -18.5q26 0 52.5 14.5t43 29t17.5 14.5q3 0 3 -3q0 -4 -4 -9.5t-10 -12.5l-6 -7q-61 -70 -139 -70q-83 0 -83 93q0 54 38.5 116t88.5 112q60 58 141.5 100t153.5 42q48 0 80.5 -23t32.5 -70q0 -37 -28 -90.5
t-68 -107t-80.5 -106.5t-68.5 -101t-28 -78q0 -43 42 -43q34 0 83.5 36.5t81.5 71t62 72.5q118 150 268 401q48 1 96 12zM711 812q0 -26 -25 -51.5t-51 -25.5q-34 0 -34 33q0 26 25 51.5t51 25.5q15 0 24.5 -9t9.5 -24zM877 812q0 -26 -25 -51.5t-51 -25.5q-34 0 -34 33
q0 27 25 52t52 25q15 0 24 -9t9 -24z" />
    <glyph glyph-name="florin" unicode="&#x192;" horiz-adv-x="415" 
d="M564 640q0 -16 -16.5 -32t-31.5 -16q-3 0 -3 2q0 4 3 11t3 11q0 28 -28 28q-25 0 -54 -19t-53.5 -45t-50.5 -62.5t-41.5 -62t-31.5 -53.5h72l-7 -11h-75q-22 -33 -89 -147t-126 -196t-116 -126q-41 -32 -96 -55.5t-100 -23.5q-44 0 -49 1q-22 3 -42.5 16t-20.5 33
q0 15 13 26.5t28 11.5q24 0 24 -18q0 -6 -7.5 -13.5t-7.5 -15.5q0 -17 20.5 -24.5t42.5 -7.5q59 0 113 47q26 22 53 53t57 76.5t45.5 70t49.5 82.5t38 65q58 98 91 145h-79l7 10h79q101 143 195 204q83 56 149 56q42 0 42 -21z" />
    <glyph glyph-name="Ohorn" unicode="&#x1a0;" horiz-adv-x="683" 
d="M697 562q0 -22 -3 -44q43 20 65 69q12 24 12 43q0 2 -2 10h81v-13q0 -23 -21 -53q-46 -68 -139 -77q-27 -136 -147 -295q-178 -227 -367 -227q-81 0 -125 44t-44 125q0 103 66.5 202t163.5 179l18 15t22 18t19 13q21 15 54 32.5t46 15.5q2 0 2 -3q0 -5 -10 -8
q-40 -19 -76 -49q-87 -67 -154.5 -178t-67.5 -210q0 -67 40 -103.5t108 -36.5q100 0 215 109q82 80 138.5 185t56.5 204q0 116 -93 116q-83 0 -156.5 -78t-73.5 -162q0 -42 26 -68t68 -26q30 0 60 14t47.5 28t19.5 14q3 0 3 -3q0 -9 -24.5 -28.5t-36.5 -24.5
q-51 -32 -108 -32q-49 0 -76.5 25.5t-27.5 73.5q0 56 43.5 121.5t95.5 105.5q38 32 88 55t92 23q50 0 76 -35t26 -86z" />
    <glyph glyph-name="ohorn" unicode="&#x1a1;" horiz-adv-x="377" 
d="M265 263q0 -20 -7 -46q21 10 38 30t20 33q12 24 12 43q0 2 -2 10h81v-13q0 -23 -21 -53q-44 -65 -136 -72q-18 -42 -58 -87q-42 -47 -99.5 -85.5t-107.5 -38.5q-42 0 -70 21t-28 61q0 60 48 125t118 106.5t130 41.5q42 0 62 -17.5t20 -58.5zM220 292q0 35 -32 35
q-39 0 -95 -52t-96 -118t-40 -105q0 -41 43 -41q9 0 18 2.5t17 5.5t17.5 10t15.5 11.5t16 14.5l14.5 14.5t14 16.5t12 15.5t12 16t10.5 13.5q73 100 73 161z" />
    <glyph glyph-name="Uhorn" unicode="&#x1af;" horiz-adv-x="841" 
d="M912 643q-10 -16 -60 -88l-30 -42q28 3 58.5 28t40.5 46q12 24 12 43q0 2 -2 10h81v-13q0 -23 -21 -53q-24 -37 -65.5 -56t-66.5 -21t-49 0q-2 -3 -5.5 -8.5t-4.5 -8.5l-182 -297q-38 -64 -38 -102q0 -32 25 -32q8 0 16.5 2t17.5 7.5t16.5 9.5t18 13t16 13.5t16 15.5
t13.5 14t13 14l11 11q30 32 33 38l4 5q3 6 6 9t6 3q6 0 6 -5q0 -7 -13 -17q-16 -15 -36 -42q-30 -37 -92 -91q-57 -49 -107 -49q-54 0 -54 59q0 48 53 152q-27 -29 -82 -94q-14 -17 -56 -52q-85 -69 -148 -69q-68 0 -68 82q0 47 45 123.5t99 144.5t99 142t45 118
q0 26 -16 41t-42 15q-98 0 -198 -90q-56 -48 -98.5 -111.5t-42.5 -122.5q0 -76 69 -76q22 0 46.5 9t38.5 23t20 16l2 -2q-2 -12 -15 -22q-4 -4 -22.5 -21t-24.5 -21t-20.5 -13.5t-28.5 -12t-31 -2.5q-84 0 -84 89q0 74 55.5 152.5t126.5 131.5q117 88 231 88q48 0 78.5 -21
t30.5 -67q0 -45 -43 -118.5t-94.5 -139t-94.5 -136.5t-43 -111t39 -40q38 0 90.5 42.5t89.5 86.5q11 13 22 28t25 34t21 29q76 103 112 161q95 157 131 209q5 -1 14 -1h15q24 0 70 10z" />
    <glyph glyph-name="uhorn" unicode="&#x1b0;" horiz-adv-x="399" 
d="M386 267q-18 -26 -44.5 -43t-53 -22.5t-42 -7t-28.5 -0.5l-27 -39q-2 -3 -14.5 -20t-20.5 -29t-16 -28t-8 -25q0 -31 31 -31q18 0 38 16q22 19 107 114q15 15 24 29q1 1 2.5 4t3.5 4.5t4 1.5q6 0 6 -4q0 -5 -26 -35.5t-35 -39.5q-1 -1 -17 -19.5t-21.5 -24t-21 -22
t-25.5 -23t-24.5 -16.5t-28 -14t-26.5 -4q-26 0 -43 14t-17 39q0 24 22 66q-33 -35 -49.5 -52t-52.5 -41.5t-63 -24.5q-28 0 -45.5 14t-17.5 41q0 10 4 21.5t8 21t13 23.5t13.5 20.5t15 21t11.5 15.5q12 19 37.5 56.5t38.5 56.5q14 22 14 38q0 3 -1.5 8t-1.5 6h83v-11
q0 -22 -17 -48q-13 -19 -39.5 -57.5t-39.5 -58.5q-59 -77 -59 -112q0 -11 7.5 -18t18.5 -7q22 0 79 57q29 25 42 40t36 50l79 117q15 24 15 38q0 2 -2 10h81v-13q0 -11 -24 -49q-5 -7 -19.5 -28.5t-21.5 -32.5q28 0 56 26t32 44q12 24 12 43q0 2 -2 10h81v-13q0 -23 -21 -53
z" />
    <glyph glyph-name="circumflex" unicode="&#x2c6;" 
d="M359 586q0 -6 -7 -28t-15 -47t-10 -32q-6 -14 -7 -23q-4 -14 -8 -14q-6 0 -6 8q0 7 2 20.5t2 17.5t0.5 13t0.5 14q0 24 -8 24q-3 0 -8.5 -2.5t-12.5 -6l-9 -4.5q-13 -6 -38.5 -25.5t-34.5 -25.5q-33 -21 -35 -23q-12 -12 -21 -12q-3 3 -3 4q0 8 19 23q17 14 68 60
q4 4 28.5 27.5t38.5 34.5q15 12 30 12q34 0 34 -15z" />
    <glyph glyph-name="tilde" unicode="&#x2dc;" 
d="M381 571q0 -32 -40 -56.5t-75 -24.5q-23 0 -58 13.5t-45 13.5q-9 0 -18 -6t-14.5 -12t-6.5 -6q-5 0 -5 7q0 5 7 12q13 15 19 22t18.5 13.5t27.5 6.5q17 0 58.5 -14.5t68.5 -14.5q43 0 43 40q0 10 -5.5 19.5t-5.5 11.5q0 5 7 5q24 0 24 -30z" />
    <glyph glyph-name="hookabovecomb" unicode="&#x309;" horiz-adv-x="368" 
d="M298 584q0 -59 -97 -94q-27 -9 -55 -26q-17 -10 -24 -23q-6 -13 -8 -13q-6 -2 -9 3q-3 7 5 18q13 20 62 51.5t61 48.5q11 15 11 29q0 21 -25 21q-18 0 -38.5 -17.5t-20.5 -35.5q0 -9 8 -12q3 0 3 -2q0 -3 -10.5 -7t-16.5 -4q-22 0 -22 25q0 37 54 70q29 16 62 16
q25 0 42.5 -12t17.5 -36z" />
    <glyph glyph-name="dotbelowcomb" unicode="&#x323;" 
d="M305 -95q0 -26 -25 -51.5t-51 -25.5q-34 0 -34 33q0 26 25 51.5t51 25.5q15 0 24.5 -9t9.5 -24z" />
    <glyph glyph-name="uni1EA0" unicode="&#x1ea0;" horiz-adv-x="872" 
d="M922 606q0 10 -8.5 16t-19.5 6q-35 0 -88.5 -36t-112.5 -95t-96 -99.5t-73 -83.5h193l166 223q39 50 39 69zM993 607q0 -31 -58 -113l-263 -360q-49 -68 -76 -134h-93q5 13 12.5 28.5t13 25t18 28t16.5 24t20 27t17 22.5q18 24 53.5 71.5t52.5 71.5h-199q-10 -10 -56 -61
t-68.5 -75t-69.5 -67t-81.5 -64t-80 -39t-87.5 -18q-69 0 -112.5 42t-43.5 111q0 122 106 230q110 110 221 110q50 0 82 -28t32 -77q0 -33 -16 -64q-39 -67 -65 -67l-2 1q0 4 4 9.5t10 12.5t7 9q9 11 15 34t6 39q0 41 -32.5 69t-73.5 28q-94 0 -167.5 -80t-73.5 -174
q0 -62 34.5 -97t96.5 -35q38 0 75.5 12t74 36.5t60.5 44.5t60 53q56 51 107 107h-67l10 16h75l73 72l33 33t37.5 37t33 31.5t38.5 35.5t35 29.5t40 31.5q93 68 159 68q25 0 41 -12t16 -35zM398 -95q0 -26 -25 -51.5t-51 -25.5q-34 0 -34 33q0 26 25 51.5t51 25.5
q15 0 24.5 -9t9.5 -24z" />
    <glyph glyph-name="uni1EA1" unicode="&#x1ea1;" horiz-adv-x="424" 
d="M218 290q0 37 -30 37q-43 0 -109.5 -70t-100.5 -127q-23 -40 -23 -66q0 -15 10 -25t25 -10q35 0 88 53q45 47 68 82l32 50l32 49q8 14 8 27zM373 191q0 -5 -19 -28t-44 -50t-28 -31l-15 -15l-18 -18t-17.5 -16.5t-21 -16.5t-20 -12t-22 -10t-21.5 -3q-24 0 -37.5 14.5
t-13.5 39.5q0 15 11 52l-20 -20l-25 -25t-24 -21.5t-29 -21.5t-26.5 -12t-29.5 -6q-33 0 -49 22t-16 57q0 84 100 172q113 98 192 98q55 0 55 -47l28 40h77l-156 -230q-22 -30 -22 -59q0 -24 20 -24q21 0 45 22q30 25 73.5 71.5t56.5 69.5q1 1 2 3l1.5 3t2 2.5t3 2.5t3.5 1
q4 0 4 -4zM38 -95q0 -26 -25 -51.5t-51 -25.5q-34 0 -34 33q0 26 25 51.5t51 25.5q15 0 24.5 -9t9.5 -24z" />
    <glyph glyph-name="uni1EA2" unicode="&#x1ea2;" horiz-adv-x="872" 
d="M922 606q0 10 -8.5 16t-19.5 6q-35 0 -88.5 -36t-112.5 -95t-96 -99.5t-73 -83.5h193l166 223q39 50 39 69zM993 607q0 -31 -58 -113l-263 -360q-49 -68 -76 -134h-93q5 13 12.5 28.5t13 25t18 28t16.5 24t20 27t17 22.5q18 24 53.5 71.5t52.5 71.5h-199q-10 -10 -56 -61
t-68.5 -75t-69.5 -67t-81.5 -64t-80 -39t-87.5 -18q-69 0 -112.5 42t-43.5 111q0 122 106 230q110 110 221 110q50 0 82 -28t32 -77q0 -33 -16 -64q-39 -67 -65 -67l-2 1q0 4 4 9.5t10 12.5t7 9q9 11 15 34t6 39q0 41 -32.5 69t-73.5 28q-94 0 -167.5 -80t-73.5 -174
q0 -62 34.5 -97t96.5 -35q38 0 75.5 12t74 36.5t60.5 44.5t60 53q56 51 107 107h-67l10 16h75l73 72l33 33t37.5 37t33 31.5t38.5 35.5t35 29.5t40 31.5q93 68 159 68q25 0 41 -12t16 -35zM1153 914q0 -59 -97 -94q-27 -9 -55 -26q-17 -10 -24 -23q-6 -13 -8 -13q-6 -2 -9 3
q-3 7 5 18q13 20 62 51.5t61 48.5q11 15 11 29q0 21 -25 21q-18 0 -38.5 -17.5t-20.5 -35.5q0 -9 8 -12q3 0 3 -2q0 -3 -10.5 -7t-16.5 -4q-22 0 -22 25q0 37 54 70q29 16 62 16q25 0 42.5 -12t17.5 -36z" />
    <glyph glyph-name="uni1EA3" unicode="&#x1ea3;" horiz-adv-x="424" 
d="M218 290q0 37 -30 37q-43 0 -109.5 -70t-100.5 -127q-23 -40 -23 -66q0 -15 10 -25t25 -10q35 0 88 53q45 47 68 82l32 50l32 49q8 14 8 27zM373 191q0 -5 -19 -28t-44 -50t-28 -31l-15 -15l-18 -18t-17.5 -16.5t-21 -16.5t-20 -12t-22 -10t-21.5 -3q-24 0 -37.5 14.5
t-13.5 39.5q0 15 11 52l-20 -20l-25 -25t-24 -21.5t-29 -21.5t-26.5 -12t-29.5 -6q-33 0 -49 22t-16 57q0 84 100 172q113 98 192 98q55 0 55 -47l28 40h77l-156 -230q-22 -30 -22 -59q0 -24 20 -24q21 0 45 22q30 25 73.5 71.5t56.5 69.5q1 1 2 3l1.5 3t2 2.5t3 2.5t3.5 1
q4 0 4 -4zM424 584q0 -59 -97 -94q-27 -9 -55 -26q-17 -10 -24 -23q-6 -13 -8 -13q-6 -2 -9 3q-3 7 5 18q13 20 62 51.5t61 48.5q11 15 11 29q0 21 -25 21q-18 0 -38.5 -17.5t-20.5 -35.5q0 -9 8 -12q3 0 3 -2q0 -3 -10.5 -7t-16.5 -4q-22 0 -22 25q0 37 54 70q29 16 62 16
q25 0 42.5 -12t17.5 -36z" />
    <glyph glyph-name="uni1EA4" unicode="&#x1ea4;" horiz-adv-x="872" 
d="M922 606q0 10 -8.5 16t-19.5 6q-35 0 -88.5 -36t-112.5 -95t-96 -99.5t-73 -83.5h193l166 223q39 50 39 69zM993 607q0 -31 -58 -113l-263 -360q-49 -68 -76 -134h-93q5 13 12.5 28.5t13 25t18 28t16.5 24t20 27t17 22.5q18 24 53.5 71.5t52.5 71.5h-199q-10 -10 -56 -61
t-68.5 -75t-69.5 -67t-81.5 -64t-80 -39t-87.5 -18q-69 0 -112.5 42t-43.5 111q0 122 106 230q110 110 221 110q50 0 82 -28t32 -77q0 -33 -16 -64q-39 -67 -65 -67l-2 1q0 4 4 9.5t10 12.5t7 9q9 11 15 34t6 39q0 41 -32.5 69t-73.5 28q-94 0 -167.5 -80t-73.5 -174
q0 -62 34.5 -97t96.5 -35q38 0 75.5 12t74 36.5t60.5 44.5t60 53q56 51 107 107h-67l10 16h75l73 72l33 33t37.5 37t33 31.5t38.5 35.5t35 29.5t40 31.5q93 68 159 68q25 0 41 -12t16 -35zM1102 876q0 -6 -7 -28t-15 -47t-10 -32q-6 -14 -7 -23q-3 -14 -8 -14q-6 0 -6 8
q0 7 2 20.5t2 17.5t0.5 13t0.5 14q0 24 -8 24q-3 0 -8.5 -2.5t-12.5 -6l-9 -4.5q-13 -6 -38.5 -25.5t-34.5 -25.5q-33 -21 -35 -23q-12 -12 -21 -12q-3 3 -3 4q0 8 19 23q17 14 68 60q4 4 28.5 27.5t38.5 34.5q15 12 30 12q34 0 34 -15zM1393 971q-51 -56 -125 -104
q-5 -3 -27.5 -17.5t-34.5 -20.5q-53 -25 -57 -28q-7 -6 -14 -6q-5 0 -5 4q0 7 14 10q12 4 50 35q4 4 30.5 26t37 32t25 30t20.5 39h86z" />
    <glyph glyph-name="uni1EA5" unicode="&#x1ea5;" horiz-adv-x="424" 
d="M218 290q0 37 -30 37q-43 0 -109.5 -70t-100.5 -127q-23 -40 -23 -66q0 -15 10 -25t25 -10q35 0 88 53q45 47 68 82l32 50l32 49q8 14 8 27zM373 191q0 -5 -19 -28t-44 -50t-28 -31l-15 -15l-18 -18t-17.5 -16.5t-21 -16.5t-20 -12t-22 -10t-21.5 -3q-24 0 -37.5 14.5
t-13.5 39.5q0 15 11 52l-20 -20l-25 -25t-24 -21.5t-29 -21.5t-26.5 -12t-29.5 -6q-33 0 -49 22t-16 57q0 84 100 172q113 98 192 98q55 0 55 -47l28 40h77l-156 -230q-22 -30 -22 -59q0 -24 20 -24q21 0 45 22q30 25 73.5 71.5t56.5 69.5q1 1 2 3l1.5 3t2 2.5t3 2.5t3.5 1
q4 0 4 -4zM430 586q0 -6 -7 -28t-15 -47t-10 -32q-6 -14 -7 -23q-3 -14 -8 -14q-6 0 -6 8q0 7 2 20.5t2 17.5t0.5 13t0.5 14q0 24 -8 24q-3 0 -8.5 -2.5t-12.5 -6l-9 -4.5q-13 -6 -38.5 -25.5t-34.5 -25.5q-33 -21 -35 -23q-12 -12 -21 -12q-3 3 -3 4q0 8 19 23q17 14 68 60
q4 4 28.5 27.5t38.5 34.5q15 12 30 12q34 0 34 -15zM728 680q-51 -56 -125 -104q-5 -3 -27.5 -17.5t-34.5 -20.5q-53 -25 -57 -28q-7 -6 -14 -6q-5 0 -5 4q0 6 14 10q12 4 50 35q4 4 30.5 26t37 32t25 30t20.5 39h86z" />
    <glyph glyph-name="uni1EA6" unicode="&#x1ea6;" horiz-adv-x="872" 
d="M922 606q0 10 -8.5 16t-19.5 6q-35 0 -88.5 -36t-112.5 -95t-96 -99.5t-73 -83.5h193l166 223q39 50 39 69zM993 607q0 -31 -58 -113l-263 -360q-49 -68 -76 -134h-93q5 13 12.5 28.5t13 25t18 28t16.5 24t20 27t17 22.5q18 24 53.5 71.5t52.5 71.5h-199q-10 -10 -56 -61
t-68.5 -75t-69.5 -67t-81.5 -64t-80 -39t-87.5 -18q-69 0 -112.5 42t-43.5 111q0 122 106 230q110 110 221 110q50 0 82 -28t32 -77q0 -33 -16 -64q-39 -67 -65 -67l-2 1q0 4 4 9.5t10 12.5t7 9q9 11 15 34t6 39q0 41 -32.5 69t-73.5 28q-94 0 -167.5 -80t-73.5 -174
q0 -62 34.5 -97t96.5 -35q38 0 75.5 12t74 36.5t60.5 44.5t60 53q56 51 107 107h-67l10 16h75l73 72l33 33t37.5 37t33 31.5t38.5 35.5t35 29.5t40 31.5q93 68 159 68q25 0 41 -12t16 -35zM1102 876q0 -6 -7 -28t-15 -47t-10 -32q-6 -14 -7 -23q-3 -14 -8 -14q-6 0 -6 8
q0 7 2 20.5t2 17.5t0.5 13t0.5 14q0 24 -8 24q-3 0 -8.5 -2.5t-12.5 -6l-9 -4.5q-13 -6 -38.5 -25.5t-34.5 -25.5q-33 -21 -35 -23q-12 -12 -21 -12q-3 3 -3 4q0 8 19 23q17 14 68 60q4 4 28.5 27.5t38.5 34.5q15 12 30 12q34 0 34 -15zM1222 838q0 -4 -4 -4q-5 0 -31 34
q-3 4 -11.5 15.5t-13.5 18.5q-23 32 -50 83q-1 2 -10 18h74q0 -63 16 -98l13 -31q4 -17 10 -23q7 -7 7 -13z" />
    <glyph glyph-name="uni1EA7" unicode="&#x1ea7;" horiz-adv-x="424" 
d="M218 290q0 37 -30 37q-43 0 -109.5 -70t-100.5 -127q-23 -40 -23 -66q0 -15 10 -25t25 -10q35 0 88 53q45 47 68 82l32 50l32 49q8 14 8 27zM373 191q0 -5 -19 -28t-44 -50t-28 -31l-15 -15l-18 -18t-17.5 -16.5t-21 -16.5t-20 -12t-22 -10t-21.5 -3q-24 0 -37.5 14.5
t-13.5 39.5q0 15 11 52l-20 -20l-25 -25t-24 -21.5t-29 -21.5t-26.5 -12t-29.5 -6q-33 0 -49 22t-16 57q0 84 100 172q113 98 192 98q55 0 55 -47l28 40h77l-156 -230q-22 -30 -22 -59q0 -24 20 -24q21 0 45 22q30 25 73.5 71.5t56.5 69.5q1 1 2 3l1.5 3t2 2.5t3 2.5t3.5 1
q4 0 4 -4zM430 586q0 -6 -7 -28t-15 -47t-10 -32q-6 -14 -7 -23q-3 -14 -8 -14q-6 0 -6 8q0 7 2 20.5t2 17.5t0.5 13t0.5 14q0 24 -8 24q-3 0 -8.5 -2.5t-12.5 -6l-9 -4.5q-13 -6 -38.5 -25.5t-34.5 -25.5q-33 -21 -35 -23q-12 -12 -21 -12q-3 3 -3 4q0 8 19 23q17 14 68 60
q4 4 28.5 27.5t38.5 34.5q15 12 30 12q34 0 34 -15zM550 536q0 -4 -4 -4q-5 0 -31 34q-3 4 -11.5 15.5t-13.5 18.5q-23 32 -50 83q-1 2 -10 18h74q0 -63 16 -98l13 -31q4 -17 10 -23q7 -7 7 -13z" />
    <glyph glyph-name="uni1EA8" unicode="&#x1ea8;" horiz-adv-x="872" 
d="M922 606q0 10 -8.5 16t-19.5 6q-35 0 -88.5 -36t-112.5 -95t-96 -99.5t-73 -83.5h193l166 223q39 50 39 69zM993 607q0 -31 -58 -113l-263 -360q-49 -68 -76 -134h-93q5 13 12.5 28.5t13 25t18 28t16.5 24t20 27t17 22.5q18 24 53.5 71.5t52.5 71.5h-199q-10 -10 -56 -61
t-68.5 -75t-69.5 -67t-81.5 -64t-80 -39t-87.5 -18q-69 0 -112.5 42t-43.5 111q0 122 106 230q110 110 221 110q50 0 82 -28t32 -77q0 -33 -16 -64q-39 -67 -65 -67l-2 1q0 4 4 9.5t10 12.5t7 9q9 11 15 34t6 39q0 41 -32.5 69t-73.5 28q-94 0 -167.5 -80t-73.5 -174
q0 -62 34.5 -97t96.5 -35q38 0 75.5 12t74 36.5t60.5 44.5t60 53q56 51 107 107h-67l10 16h75l73 72l33 33t37.5 37t33 31.5t38.5 35.5t35 29.5t40 31.5q93 68 159 68q25 0 41 -12t16 -35zM1102 876q0 -6 -7 -28t-15 -47t-10 -32q-6 -14 -7 -23q-3 -14 -8 -14q-6 0 -6 8
q0 7 2 20.5t2 17.5t0.5 13t0.5 14q0 24 -8 24q-3 0 -8.5 -2.5t-12.5 -6l-9 -4.5q-13 -6 -38.5 -25.5t-34.5 -25.5q-33 -21 -35 -23q-12 -12 -21 -12q-3 3 -3 4q0 8 19 23q17 14 68 60q4 4 28.5 27.5t38.5 34.5q15 12 30 12q34 0 34 -15zM1331 987q0 -59 -97 -94
q-27 -9 -55 -26q-17 -10 -24 -23q-6 -13 -8 -13q-6 -3 -9 3q-3 7 5 18q13 20 62 51.5t61 48.5q11 15 11 29q0 21 -25 21q-18 0 -38.5 -17.5t-20.5 -35.5q0 -9 8 -12q3 0 3 -2q0 -3 -10.5 -7t-16.5 -4q-22 0 -22 25q0 37 54 70q29 16 62 16q25 0 42.5 -12t17.5 -36z" />
    <glyph glyph-name="uni1EA9" unicode="&#x1ea9;" horiz-adv-x="424" 
d="M218 290q0 37 -30 37q-43 0 -109.5 -70t-100.5 -127q-23 -40 -23 -66q0 -15 10 -25t25 -10q35 0 88 53q45 47 68 82l32 50l32 49q8 14 8 27zM373 191q0 -5 -19 -28t-44 -50t-28 -31l-15 -15l-18 -18t-17.5 -16.5t-21 -16.5t-20 -12t-22 -10t-21.5 -3q-24 0 -37.5 14.5
t-13.5 39.5q0 15 11 52l-20 -20l-25 -25t-24 -21.5t-29 -21.5t-26.5 -12t-29.5 -6q-33 0 -49 22t-16 57q0 84 100 172q113 98 192 98q55 0 55 -47l28 40h77l-156 -230q-22 -30 -22 -59q0 -24 20 -24q21 0 45 22q30 25 73.5 71.5t56.5 69.5q1 1 2 3l1.5 3t2 2.5t3 2.5t3.5 1
q4 0 4 -4zM430 586q0 -6 -7 -28t-15 -47t-10 -32q-6 -14 -7 -23q-3 -14 -8 -14q-6 0 -6 8q0 7 2 20.5t2 17.5t0.5 13t0.5 14q0 24 -8 24q-3 0 -8.5 -2.5t-12.5 -6l-9 -4.5q-13 -6 -38.5 -25.5t-34.5 -25.5q-33 -21 -35 -23q-12 -12 -21 -12q-3 3 -3 4q0 8 19 23q17 14 68 60
q4 4 28.5 27.5t38.5 34.5q15 12 30 12q34 0 34 -15zM662 696q0 -59 -97 -94q-27 -9 -55 -26q-17 -10 -24 -23q-6 -13 -8 -13q-6 -2 -9 3q-3 7 5 18q13 20 62 51.5t61 48.5q11 15 11 29q0 21 -25 21q-18 0 -38.5 -17.5t-20.5 -35.5q0 -9 8 -12q3 0 3 -2q0 -3 -10.5 -7
t-16.5 -4q-22 0 -22 25q0 37 54 70q29 16 62 16q25 0 42.5 -12t17.5 -36z" />
    <glyph glyph-name="uni1EAA" unicode="&#x1eaa;" horiz-adv-x="872" 
d="M922 606q0 10 -8.5 16t-19.5 6q-35 0 -88.5 -36t-112.5 -95t-96 -99.5t-73 -83.5h193l166 223q39 50 39 69zM993 607q0 -31 -58 -113l-263 -360q-49 -68 -76 -134h-93q5 13 12.5 28.5t13 25t18 28t16.5 24t20 27t17 22.5q18 24 53.5 71.5t52.5 71.5h-199q-10 -10 -56 -61
t-68.5 -75t-69.5 -67t-81.5 -64t-80 -39t-87.5 -18q-69 0 -112.5 42t-43.5 111q0 122 106 230q110 110 221 110q50 0 82 -28t32 -77q0 -33 -16 -64q-39 -67 -65 -67l-2 1q0 4 4 9.5t10 12.5t7 9q9 11 15 34t6 39q0 41 -32.5 69t-73.5 28q-94 0 -167.5 -80t-73.5 -174
q0 -62 34.5 -97t96.5 -35q38 0 75.5 12t74 36.5t60.5 44.5t60 53q56 51 107 107h-67l10 16h75l73 72l33 33t37.5 37t33 31.5t38.5 35.5t35 29.5t40 31.5q93 68 159 68q25 0 41 -12t16 -35zM1102 876q0 -6 -7 -28t-15 -47t-10 -32q-6 -14 -7 -23q-3 -14 -8 -14q-6 0 -6 8
q0 7 2 20.5t2 17.5t0.5 13t0.5 14q0 24 -8 24q-3 0 -8.5 -2.5t-12.5 -6l-9 -4.5q-13 -6 -38.5 -25.5t-34.5 -25.5q-33 -21 -35 -23q-12 -12 -21 -12q-3 3 -3 4q0 8 19 23q17 14 68 60q4 4 28.5 27.5t38.5 34.5q15 12 30 12q34 0 34 -15zM1237 1011q0 -32 -40 -56.5
t-75 -24.5q-23 0 -58 13.5t-45 13.5q-9 0 -18 -6t-14.5 -12t-6.5 -6q-5 0 -5 7q0 5 7 12q13 15 19 22t18.5 13.5t27.5 6.5q17 0 58.5 -14.5t68.5 -14.5q43 0 43 40q0 10 -5.5 19.5t-5.5 11.5q0 5 7 5q24 0 24 -30z" />
    <glyph glyph-name="uni1EAB" unicode="&#x1eab;" horiz-adv-x="424" 
d="M218 290q0 37 -30 37q-43 0 -109.5 -70t-100.5 -127q-23 -40 -23 -66q0 -15 10 -25t25 -10q35 0 88 53q45 47 68 82l32 50l32 49q8 14 8 27zM373 191q0 -5 -19 -28t-44 -50t-28 -31l-15 -15l-18 -18t-17.5 -16.5t-21 -16.5t-20 -12t-22 -10t-21.5 -3q-24 0 -37.5 14.5
t-13.5 39.5q0 15 11 52l-20 -20l-25 -25t-24 -21.5t-29 -21.5t-26.5 -12t-29.5 -6q-33 0 -49 22t-16 57q0 84 100 172q113 98 192 98q55 0 55 -47l28 40h77l-156 -230q-22 -30 -22 -59q0 -24 20 -24q21 0 45 22q30 25 73.5 71.5t56.5 69.5q1 1 2 3l1.5 3t2 2.5t3 2.5t3.5 1
q4 0 4 -4zM430 586q0 -6 -7 -28t-15 -47t-10 -32q-6 -14 -7 -23q-3 -14 -8 -14q-6 0 -6 8q0 7 2 20.5t2 17.5t0.5 13t0.5 14q0 24 -8 24q-3 0 -8.5 -2.5t-12.5 -6l-9 -4.5q-13 -6 -38.5 -25.5t-34.5 -25.5q-33 -21 -35 -23q-12 -12 -21 -12q-3 3 -3 4q0 8 19 23q17 14 68 60
q4 4 28.5 27.5t38.5 34.5q15 12 30 12q34 0 34 -15zM562 738q0 -32 -40 -56.5t-75 -24.5q-23 0 -58 13.5t-45 13.5q-9 0 -18 -6t-14.5 -12t-6.5 -6q-5 0 -5 7q0 5 7 12q13 15 19 22t18.5 13.5t27.5 6.5q17 0 58.5 -14.5t68.5 -14.5q43 0 43 40q0 10 -5.5 19.5t-5.5 11.5
q0 5 7 5q24 0 24 -30z" />
    <glyph glyph-name="uni1EAC" unicode="&#x1eac;" horiz-adv-x="872" 
d="M398 -95q0 -26 -25 -51.5t-51 -25.5q-34 0 -34 33q0 26 25 51.5t51 25.5q15 0 24.5 -9t9.5 -24zM922 606q0 10 -8.5 16t-19.5 6q-35 0 -88.5 -36t-112.5 -95t-96 -99.5t-73 -83.5h193l166 223q39 50 39 69zM993 607q0 -31 -58 -113l-263 -360q-49 -68 -76 -134h-93
q5 13 12.5 28.5t13 25t18 28t16.5 24t20 27t17 22.5q18 24 53.5 71.5t52.5 71.5h-199q-10 -10 -56 -61t-68.5 -75t-69.5 -67t-81.5 -64t-80 -39t-87.5 -18q-69 0 -112.5 42t-43.5 111q0 122 106 230q110 110 221 110q50 0 82 -28t32 -77q0 -33 -16 -64q-39 -67 -65 -67l-2 1
q0 4 4 9.5t10 12.5t7 9q9 11 15 34t6 39q0 41 -32.5 69t-73.5 28q-94 0 -167.5 -80t-73.5 -174q0 -62 34.5 -97t96.5 -35q38 0 75.5 12t74 36.5t60.5 44.5t60 53q56 51 107 107h-67l10 16h75l73 72l33 33t37.5 37t33 31.5t38.5 35.5t35 29.5t40 31.5q93 68 159 68
q25 0 41 -12t16 -35zM1102 876q0 -6 -7 -28t-15 -47t-10 -32q-6 -14 -7 -23q-3 -14 -8 -14q-6 0 -6 8q0 7 2 20.5t2 17.5t0.5 13t0.5 14q0 24 -8 24q-3 0 -8.5 -2.5t-12.5 -6l-9 -4.5q-13 -6 -38.5 -25.5t-34.5 -25.5q-33 -21 -35 -23q-12 -12 -21 -12q-3 3 -3 4q0 8 19 23
q17 14 68 60q4 4 28.5 27.5t38.5 34.5q15 12 30 12q34 0 34 -15z" />
    <glyph glyph-name="uni1EAD" unicode="&#x1ead;" horiz-adv-x="424" 
d="M38 -95q0 -26 -25 -51.5t-51 -25.5q-34 0 -34 33q0 26 25 51.5t51 25.5q15 0 24.5 -9t9.5 -24zM218 290q0 37 -30 37q-43 0 -109.5 -70t-100.5 -127q-23 -40 -23 -66q0 -15 10 -25t25 -10q35 0 88 53q45 47 68 82l32 50l32 49q8 14 8 27zM373 191q0 -5 -19 -28t-44 -50
t-28 -31l-15 -15l-18 -18t-17.5 -16.5t-21 -16.5t-20 -12t-22 -10t-21.5 -3q-24 0 -37.5 14.5t-13.5 39.5q0 15 11 52l-20 -20l-25 -25t-24 -21.5t-29 -21.5t-26.5 -12t-29.5 -6q-33 0 -49 22t-16 57q0 84 100 172q113 98 192 98q55 0 55 -47l28 40h77l-156 -230
q-22 -30 -22 -59q0 -24 20 -24q21 0 45 22q30 25 73.5 71.5t56.5 69.5q1 1 2 3l1.5 3t2 2.5t3 2.5t3.5 1q4 0 4 -4zM430 586q0 -6 -7 -28t-15 -47t-10 -32q-6 -14 -7 -23q-3 -14 -8 -14q-6 0 -6 8q0 7 2 20.5t2 17.5t0.5 13t0.5 14q0 24 -8 24q-3 0 -8.5 -2.5t-12.5 -6
l-9 -4.5q-13 -6 -38.5 -25.5t-34.5 -25.5q-33 -21 -35 -23q-12 -12 -21 -12q-3 3 -3 4q0 8 19 23q17 14 68 60q4 4 28.5 27.5t38.5 34.5q15 12 30 12q34 0 34 -15z" />
    <glyph glyph-name="uni1EAE" unicode="&#x1eae;" horiz-adv-x="872" 
d="M922 606q0 10 -8.5 16t-19.5 6q-35 0 -88.5 -36t-112.5 -95t-96 -99.5t-73 -83.5h193l166 223q39 50 39 69zM993 607q0 -31 -58 -113l-263 -360q-49 -68 -76 -134h-93q5 13 12.5 28.5t13 25t18 28t16.5 24t20 27t17 22.5q18 24 53.5 71.5t52.5 71.5h-199q-10 -10 -56 -61
t-68.5 -75t-69.5 -67t-81.5 -64t-80 -39t-87.5 -18q-69 0 -112.5 42t-43.5 111q0 122 106 230q110 110 221 110q50 0 82 -28t32 -77q0 -33 -16 -64q-39 -67 -65 -67l-2 1q0 4 4 9.5t10 12.5t7 9q9 11 15 34t6 39q0 41 -32.5 69t-73.5 28q-94 0 -167.5 -80t-73.5 -174
q0 -62 34.5 -97t96.5 -35q38 0 75.5 12t74 36.5t60.5 44.5t60 53q56 51 107 107h-67l10 16h75l73 72l33 33t37.5 37t33 31.5t38.5 35.5t35 29.5t40 31.5q93 68 159 68q25 0 41 -12t16 -35zM1175 927q0 -42 -50 -93.5t-108 -41.5q-61 10 -61 89q0 59 17 59q3 0 5 -22
t12.5 -45.5t32.5 -25.5q31 -3 59 10t43.5 31t27.5 33t14 15q8 0 8 -9zM1305 1113q-51 -56 -125 -104q-5 -3 -27.5 -17.5t-34.5 -20.5q-53 -25 -57 -28q-7 -6 -14 -6q-5 0 -5 4q0 7 14 10q12 4 50 35q4 4 30.5 26t37 32t25 30t20.5 39h86z" />
    <glyph glyph-name="uni1EAF" unicode="&#x1eaf;" horiz-adv-x="424" 
d="M218 290q0 37 -30 37q-43 0 -109.5 -70t-100.5 -127q-23 -40 -23 -66q0 -15 10 -25t25 -10q35 0 88 53q45 47 68 82l32 50l32 49q8 14 8 27zM373 191q0 -5 -19 -28t-44 -50t-28 -31l-15 -15l-18 -18t-17.5 -16.5t-21 -16.5t-20 -12t-22 -10t-21.5 -3q-24 0 -37.5 14.5
t-13.5 39.5q0 15 11 52l-20 -20l-25 -25t-24 -21.5t-29 -21.5t-26.5 -12t-29.5 -6q-33 0 -49 22t-16 57q0 84 100 172q113 98 192 98q55 0 55 -47l28 40h77l-156 -230q-22 -30 -22 -59q0 -24 20 -24q21 0 45 22q30 25 73.5 71.5t56.5 69.5q1 1 2 3l1.5 3t2 2.5t3 2.5t3.5 1
q4 0 4 -4zM409 597q0 -42 -50 -93.5t-108 -41.5q-61 10 -61 89q0 59 17 59q3 0 5 -22t12.5 -45.5t32.5 -25.5q31 -3 59 10t43.5 31t27.5 33t14 15q8 0 8 -9zM522 782q-51 -56 -125 -104q-5 -3 -27.5 -17.5t-34.5 -20.5q-53 -25 -57 -28q-8 -6 -14 -6q-5 0 -5 4q0 6 14 10
q12 4 50 35q4 4 30.5 26t37 32t25 30t20.5 39h86z" />
    <glyph glyph-name="uni1EB0" unicode="&#x1eb0;" horiz-adv-x="872" 
d="M922 606q0 10 -8.5 16t-19.5 6q-35 0 -88.5 -36t-112.5 -95t-96 -99.5t-73 -83.5h193l166 223q39 50 39 69zM993 607q0 -31 -58 -113l-263 -360q-49 -68 -76 -134h-93q5 13 12.5 28.5t13 25t18 28t16.5 24t20 27t17 22.5q18 24 53.5 71.5t52.5 71.5h-199q-10 -10 -56 -61
t-68.5 -75t-69.5 -67t-81.5 -64t-80 -39t-87.5 -18q-69 0 -112.5 42t-43.5 111q0 122 106 230q110 110 221 110q50 0 82 -28t32 -77q0 -33 -16 -64q-39 -67 -65 -67l-2 1q0 4 4 9.5t10 12.5t7 9q9 11 15 34t6 39q0 41 -32.5 69t-73.5 28q-94 0 -167.5 -80t-73.5 -174
q0 -62 34.5 -97t96.5 -35q38 0 75.5 12t74 36.5t60.5 44.5t60 53q56 51 107 107h-67l10 16h75l73 72l33 33t37.5 37t33 31.5t38.5 35.5t35 29.5t40 31.5q93 68 159 68q25 0 41 -12t16 -35zM1175 927q0 -42 -50 -93.5t-108 -41.5q-61 10 -61 89q0 59 17 59q3 0 5 -22
t12.5 -45.5t32.5 -25.5q31 -3 59 10t43.5 31t27.5 33t14 15q8 0 8 -9zM1105 943q0 -4 -4 -4q-5 0 -31 34q-3 4 -11.5 15.5t-13.5 18.5q-23 32 -50 83q-1 2 -10 18h74q0 -63 16 -98l13 -31q4 -17 10 -23q7 -7 7 -13z" />
    <glyph glyph-name="uni1EB1" unicode="&#x1eb1;" horiz-adv-x="424" 
d="M218 290q0 37 -30 37q-43 0 -109.5 -70t-100.5 -127q-23 -40 -23 -66q0 -15 10 -25t25 -10q35 0 88 53q45 47 68 82l32 50l32 49q8 14 8 27zM373 191q0 -5 -19 -28t-44 -50t-28 -31l-15 -15l-18 -18t-17.5 -16.5t-21 -16.5t-20 -12t-22 -10t-21.5 -3q-24 0 -37.5 14.5
t-13.5 39.5q0 15 11 52l-20 -20l-25 -25t-24 -21.5t-29 -21.5t-26.5 -12t-29.5 -6q-33 0 -49 22t-16 57q0 84 100 172q113 98 192 98q55 0 55 -47l28 40h77l-156 -230q-22 -30 -22 -59q0 -24 20 -24q21 0 45 22q30 25 73.5 71.5t56.5 69.5q1 1 2 3l1.5 3t2 2.5t3 2.5t3.5 1
q4 0 4 -4zM409 597q0 -42 -50 -93.5t-108 -41.5q-61 10 -61 89q0 59 17 59q3 0 5 -22t12.5 -45.5t32.5 -25.5q31 -3 59 10t43.5 31t27.5 33t14 15q8 0 8 -9zM345 614q0 -4 -4 -4q-5 0 -31 34q-3 4 -11.5 15.5t-13.5 18.5q-23 32 -50 83q-1 2 -10 18h74q0 -63 16 -98l13 -31
q4 -17 10 -23q7 -7 7 -13z" />
    <glyph glyph-name="uni1EB2" unicode="&#x1eb2;" horiz-adv-x="872" 
d="M922 606q0 10 -8.5 16t-19.5 6q-35 0 -88.5 -36t-112.5 -95t-96 -99.5t-73 -83.5h193l166 223q39 50 39 69zM993 607q0 -31 -58 -113l-263 -360q-49 -68 -76 -134h-93q5 13 12.5 28.5t13 25t18 28t16.5 24t20 27t17 22.5q18 24 53.5 71.5t52.5 71.5h-199q-10 -10 -56 -61
t-68.5 -75t-69.5 -67t-81.5 -64t-80 -39t-87.5 -18q-69 0 -112.5 42t-43.5 111q0 122 106 230q110 110 221 110q50 0 82 -28t32 -77q0 -33 -16 -64q-39 -67 -65 -67l-2 1q0 4 4 9.5t10 12.5t7 9q9 11 15 34t6 39q0 41 -32.5 69t-73.5 28q-94 0 -167.5 -80t-73.5 -174
q0 -62 34.5 -97t96.5 -35q38 0 75.5 12t74 36.5t60.5 44.5t60 53q56 51 107 107h-67l10 16h75l73 72l33 33t37.5 37t33 31.5t38.5 35.5t35 29.5t40 31.5q93 68 159 68q25 0 41 -12t16 -35zM1175 927q0 -42 -50 -93.5t-108 -41.5q-61 10 -61 89q0 59 17 59q3 0 5 -22
t12.5 -45.5t32.5 -25.5q31 -3 59 10t43.5 31t27.5 33t14 15q8 0 8 -9zM1245 1094q0 -59 -97 -94q-27 -9 -55 -26q-17 -10 -24 -23q-6 -13 -8 -13q-6 -2 -9 3q-2 7 5 18q13 20 62 51.5t61 48.5q11 15 11 29q0 21 -25 21q-18 0 -38.5 -17.5t-20.5 -35.5q0 -9 8 -12q3 0 3 -2
q0 -3 -10.5 -7t-16.5 -4q-22 0 -22 25q0 37 54 70q29 16 62 16q25 0 42.5 -12t17.5 -36z" />
    <glyph glyph-name="uni1EB3" unicode="&#x1eb3;" horiz-adv-x="424" 
d="M218 290q0 37 -30 37q-43 0 -109.5 -70t-100.5 -127q-23 -40 -23 -66q0 -15 10 -25t25 -10q35 0 88 53q45 47 68 82l32 50l32 49q8 14 8 27zM373 191q0 -5 -19 -28t-44 -50t-28 -31l-15 -15l-18 -18t-17.5 -16.5t-21 -16.5t-20 -12t-22 -10t-21.5 -3q-24 0 -37.5 14.5
t-13.5 39.5q0 15 11 52l-20 -20l-25 -25t-24 -21.5t-29 -21.5t-26.5 -12t-29.5 -6q-33 0 -49 22t-16 57q0 84 100 172q113 98 192 98q55 0 55 -47l28 40h77l-156 -230q-22 -30 -22 -59q0 -24 20 -24q21 0 45 22q30 25 73.5 71.5t56.5 69.5q1 1 2 3l1.5 3t2 2.5t3 2.5t3.5 1
q4 0 4 -4zM409 597q0 -42 -50 -93.5t-108 -41.5q-61 10 -61 89q0 59 17 59q3 0 5 -22t12.5 -45.5t32.5 -25.5q31 -3 59 10t43.5 31t27.5 33t14 15q8 0 8 -9zM473 766q0 -59 -97 -94q-27 -9 -55 -26q-17 -10 -24 -23q-6 -13 -8 -13q-6 -2 -9 3q-2 7 5 18q13 20 62 51.5
t61 48.5q11 15 11 29q0 21 -25 21q-18 0 -38.5 -17.5t-20.5 -35.5q0 -9 8 -12q3 0 3 -2q0 -3 -10.5 -7t-16.5 -4q-22 0 -22 25q0 37 54 70q29 16 62 16q25 0 42.5 -12t17.5 -36z" />
    <glyph glyph-name="uni1EB4" unicode="&#x1eb4;" horiz-adv-x="872" 
d="M922 606q0 10 -8.5 16t-19.5 6q-35 0 -88.5 -36t-112.5 -95t-96 -99.5t-73 -83.5h193l166 223q39 50 39 69zM993 607q0 -31 -58 -113l-263 -360q-49 -68 -76 -134h-93q5 13 12.5 28.5t13 25t18 28t16.5 24t20 27t17 22.5q18 24 53.5 71.5t52.5 71.5h-199q-10 -10 -56 -61
t-68.5 -75t-69.5 -67t-81.5 -64t-80 -39t-87.5 -18q-69 0 -112.5 42t-43.5 111q0 122 106 230q110 110 221 110q50 0 82 -28t32 -77q0 -33 -16 -64q-39 -67 -65 -67l-2 1q0 4 4 9.5t10 12.5t7 9q9 11 15 34t6 39q0 41 -32.5 69t-73.5 28q-94 0 -167.5 -80t-73.5 -174
q0 -62 34.5 -97t96.5 -35q38 0 75.5 12t74 36.5t60.5 44.5t60 53q56 51 107 107h-67l10 16h75l73 72l33 33t37.5 37t33 31.5t38.5 35.5t35 29.5t40 31.5q93 68 159 68q25 0 41 -12t16 -35zM1175 927q0 -42 -50 -93.5t-108 -41.5q-61 10 -61 89q0 59 17 59q3 0 5 -22
t12.5 -45.5t32.5 -25.5q31 -3 59 10t43.5 31t27.5 33t14 15q8 0 8 -9zM567 901q0 -32 -40 -56.5t-75 -24.5q-23 0 -58 13.5t-45 13.5q-9 0 -18 -6t-14.5 -12t-6.5 -6q-5 0 -5 7q0 5 7 12q13 15 19 22t18.5 13.5t27.5 6.5q17 0 58.5 -14.5t68.5 -14.5q43 0 43 40
q0 10 -5.5 19.5t-5.5 11.5q0 5 7 5q24 0 24 -30z" />
    <glyph glyph-name="uni1EB5" unicode="&#x1eb5;" horiz-adv-x="424" 
d="M218 290q0 37 -30 37q-43 0 -109.5 -70t-100.5 -127q-23 -40 -23 -66q0 -15 10 -25t25 -10q35 0 88 53q45 47 68 82l32 50l32 49q8 14 8 27zM373 191q0 -5 -19 -28t-44 -50t-28 -31l-15 -15l-18 -18t-17.5 -16.5t-21 -16.5t-20 -12t-22 -10t-21.5 -3q-24 0 -37.5 14.5
t-13.5 39.5q0 15 11 52l-20 -20l-25 -25t-24 -21.5t-29 -21.5t-26.5 -12t-29.5 -6q-33 0 -49 22t-16 57q0 84 100 172q113 98 192 98q55 0 55 -47l28 40h77l-156 -230q-22 -30 -22 -59q0 -24 20 -24q21 0 45 22q30 25 73.5 71.5t56.5 69.5q1 1 2 3l1.5 3t2 2.5t3 2.5t3.5 1
q4 0 4 -4zM409 597q0 -42 -50 -93.5t-108 -41.5q-61 10 -61 89q0 59 17 59q3 0 5 -22t12.5 -45.5t32.5 -25.5q31 -3 59 10t43.5 31t27.5 33t14 15q8 0 8 -9zM475 739q0 -32 -40 -56.5t-75 -24.5q-23 0 -58 13.5t-45 13.5q-9 0 -18 -6t-14.5 -12t-6.5 -6q-5 0 -5 7q0 5 7 12
q13 15 19 22t18.5 13.5t27.5 6.5q17 0 58.5 -14.5t68.5 -14.5q43 0 43 40q0 10 -5.5 19.5t-5.5 11.5q0 5 7 5q24 0 24 -30z" />
    <glyph glyph-name="uni1EB6" unicode="&#x1eb6;" horiz-adv-x="872" 
d="M398 -95q0 -26 -25 -51.5t-51 -25.5q-34 0 -34 33q0 26 25 51.5t51 25.5q15 0 24.5 -9t9.5 -24zM922 606q0 10 -8.5 16t-19.5 6q-35 0 -88.5 -36t-112.5 -95t-96 -99.5t-73 -83.5h193l166 223q39 50 39 69zM993 607q0 -31 -58 -113l-263 -360q-49 -68 -76 -134h-93
q5 13 12.5 28.5t13 25t18 28t16.5 24t20 27t17 22.5q18 24 53.5 71.5t52.5 71.5h-199q-10 -10 -56 -61t-68.5 -75t-69.5 -67t-81.5 -64t-80 -39t-87.5 -18q-69 0 -112.5 42t-43.5 111q0 122 106 230q110 110 221 110q50 0 82 -28t32 -77q0 -33 -16 -64q-39 -67 -65 -67l-2 1
q0 4 4 9.5t10 12.5t7 9q9 11 15 34t6 39q0 41 -32.5 69t-73.5 28q-94 0 -167.5 -80t-73.5 -174q0 -62 34.5 -97t96.5 -35q38 0 75.5 12t74 36.5t60.5 44.5t60 53q56 51 107 107h-67l10 16h75l73 72l33 33t37.5 37t33 31.5t38.5 35.5t35 29.5t40 31.5q93 68 159 68
q25 0 41 -12t16 -35zM1175 927q0 -42 -50 -93.5t-108 -41.5q-61 10 -61 89q0 59 17 59q3 0 5 -22t12.5 -45.5t32.5 -25.5q31 -3 59 10t43.5 31t27.5 33t14 15q8 0 8 -9z" />
    <glyph glyph-name="uni1EB7" unicode="&#x1eb7;" horiz-adv-x="424" 
d="M38 -95q0 -26 -25 -51.5t-51 -25.5q-34 0 -34 33q0 26 25 51.5t51 25.5q15 0 24.5 -9t9.5 -24zM218 290q0 37 -30 37q-43 0 -109.5 -70t-100.5 -127q-23 -40 -23 -66q0 -15 10 -25t25 -10q35 0 88 53q45 47 68 82l32 50l32 49q8 14 8 27zM373 191q0 -5 -19 -28t-44 -50
t-28 -31l-15 -15l-18 -18t-17.5 -16.5t-21 -16.5t-20 -12t-22 -10t-21.5 -3q-24 0 -37.5 14.5t-13.5 39.5q0 15 11 52l-20 -20l-25 -25t-24 -21.5t-29 -21.5t-26.5 -12t-29.5 -6q-33 0 -49 22t-16 57q0 84 100 172q113 98 192 98q55 0 55 -47l28 40h77l-156 -230
q-22 -30 -22 -59q0 -24 20 -24q21 0 45 22q30 25 73.5 71.5t56.5 69.5q1 1 2 3l1.5 3t2 2.5t3 2.5t3.5 1q4 0 4 -4zM409 597q0 -42 -50 -93.5t-108 -41.5q-61 10 -61 89q0 59 17 59q3 0 5 -22t12.5 -45.5t32.5 -25.5q31 -3 59 10t43.5 31t27.5 33t14 15q8 0 8 -9z" />
    <glyph glyph-name="uni1EB8" unicode="&#x1eb8;" horiz-adv-x="676" 
d="M489 401q0 20 -63 20q-18 0 -33 -4q4 -11 8 -15t16 -8q23 -9 41 -9q10 0 20.5 4t10.5 12zM701 620q0 42 -75 42q-52 0 -109.5 -28.5t-93.5 -69.5q-28 -30 -39 -78q24 -2 37 -2q28 0 73 9t92.5 25t81 43t33.5 59zM746 620q0 -35 -45.5 -66t-90.5 -46q-86 -29 -228 -34
q-4 -9 -4 -21q0 -8 9 -24q35 5 65 5q13 0 30.5 -2t37.5 -9.5t20 -20.5q0 -16 -26 -22.5t-48 -6.5q-63 0 -123 35q-72 -20 -112 -55q-44 -35 -74 -82t-30 -97q0 -66 50 -102.5t118 -36.5q42 0 88 11q126 27 234 144q2 2 12.5 15t20 24t11.5 11l2 -2q0 -5 -3 -11t-8 -13
t-9.5 -12.5t-11 -12.5t-7.5 -9q-70 -83 -151 -130q-45 -27 -105.5 -45t-109.5 -18q-90 0 -155.5 44t-65.5 129q0 72 49.5 126.5t123.5 89.5q42 20 123 43q-17 25 -22 61q-67 15 -87 23q-30 11 -52.5 34.5t-22.5 52.5q0 25 14 43.5t37.5 27t46 12t46.5 3.5q17 0 48.5 -5.5
t31.5 -13.5q0 -4 -7 -4t-25.5 6t-33.5 6q-44 0 -77.5 -19t-33.5 -59q0 -41 35 -65t81 -31q6 22 17 45q35 65 126 102t176 37q115 0 115 -55zM304 -95q0 -26 -25 -51.5t-51 -25.5q-34 0 -34 33q0 26 25 51.5t51 25.5q15 0 24.5 -9t9.5 -24z" />
    <glyph glyph-name="uni1EB9" unicode="&#x1eb9;" horiz-adv-x="286" 
d="M191 310q0 19 -23 19q-8 0 -18.5 -5t-17 -10t-17 -15t-13.5 -12q-66 -61 -105 -120q85 14 138 59q19 14 37.5 39.5t18.5 44.5zM237 191q0 -6 -12 -22t-29.5 -35t-19.5 -22q-51 -57 -96.5 -89t-103.5 -32q-90 0 -90 83q0 57 51 120.5t121.5 104.5t126.5 41q49 0 49 -33
q0 -36 -50 -72t-102.5 -55.5t-90.5 -27.5q-32 -58 -32 -86q0 -46 52 -46q66 0 156 97q4 5 13.5 15t15.5 16.5t13 15.5t11 16q1 1 3 5t4.5 6.5t5.5 2.5q4 0 4 -3zM14 -95q0 -26 -25 -51.5t-51 -25.5q-34 0 -34 33q0 26 25 51.5t51 25.5q15 0 24.5 -9t9.5 -24z" />
    <glyph glyph-name="uni1EBA" unicode="&#x1eba;" horiz-adv-x="676" 
d="M489 401q0 20 -63 20q-18 0 -33 -4q4 -11 8 -15t16 -8q23 -9 41 -9q10 0 20.5 4t10.5 12zM701 620q0 42 -75 42q-52 0 -109.5 -28.5t-93.5 -69.5q-28 -30 -39 -78q24 -2 37 -2q28 0 73 9t92.5 25t81 43t33.5 59zM746 620q0 -35 -45.5 -66t-90.5 -46q-86 -29 -228 -34
q-4 -9 -4 -21q0 -8 9 -24q35 5 65 5q13 0 30.5 -2t37.5 -9.5t20 -20.5q0 -16 -26 -22.5t-48 -6.5q-63 0 -123 35q-72 -20 -112 -55q-44 -35 -74 -82t-30 -97q0 -66 50 -102.5t118 -36.5q42 0 88 11q126 27 234 144q2 2 12.5 15t20 24t11.5 11l2 -2q0 -5 -3 -11t-8 -13
t-9.5 -12.5t-11 -12.5t-7.5 -9q-70 -83 -151 -130q-45 -27 -105.5 -45t-109.5 -18q-90 0 -155.5 44t-65.5 129q0 72 49.5 126.5t123.5 89.5q42 20 123 43q-17 25 -22 61q-67 15 -87 23q-30 11 -52.5 34.5t-22.5 52.5q0 25 14 43.5t37.5 27t46 12t46.5 3.5q17 0 48.5 -5.5
t31.5 -13.5q0 -4 -7 -4t-25.5 6t-33.5 6q-44 0 -77.5 -19t-33.5 -59q0 -41 35 -65t81 -31q6 22 17 45q35 65 126 102t176 37q115 0 115 -55zM823 914q0 -59 -97 -94q-27 -9 -55 -26q-17 -10 -24 -23q-6 -13 -8 -13q-6 -2 -9 3q-2 7 5 18q13 20 62 51.5t61 48.5q11 15 11 29
q0 21 -25 21q-18 0 -38.5 -17.5t-20.5 -35.5q0 -9 8 -12q3 0 3 -2q0 -3 -10.5 -7t-16.5 -4q-22 0 -22 25q0 37 54 70q29 16 62 16q25 0 42.5 -12t17.5 -36z" />
    <glyph glyph-name="uni1EBB" unicode="&#x1ebb;" horiz-adv-x="286" 
d="M191 310q0 19 -23 19q-8 0 -18.5 -5t-17 -10t-17 -15t-13.5 -12q-66 -61 -105 -120q85 14 138 59q19 14 37.5 39.5t18.5 44.5zM237 191q0 -6 -12 -22t-29.5 -35t-19.5 -22q-51 -57 -96.5 -89t-103.5 -32q-90 0 -90 83q0 57 51 120.5t121.5 104.5t126.5 41q49 0 49 -33
q0 -36 -50 -72t-102.5 -55.5t-90.5 -27.5q-32 -58 -32 -86q0 -46 52 -46q66 0 156 97q4 5 13.5 15t15.5 16.5t13 15.5t11 16q1 1 3 5t4.5 6.5t5.5 2.5q4 0 4 -3zM384 584q0 -59 -97 -94q-27 -9 -55 -26q-17 -10 -24 -23q-6 -13 -8 -13q-6 -2 -9 3q-3 7 5 18q13 20 62 51.5
t61 48.5q11 15 11 29q0 21 -25 21q-18 0 -38.5 -17.5t-20.5 -35.5q0 -9 8 -12q3 0 3 -2q0 -3 -10.5 -7t-16.5 -4q-22 0 -22 25q0 37 54 70q29 16 62 16q25 0 42.5 -12t17.5 -36z" />
    <glyph glyph-name="uni1EBC" unicode="&#x1ebc;" horiz-adv-x="676" 
d="M489 401q0 20 -63 20q-18 0 -33 -4q4 -11 8 -15t16 -8q23 -9 41 -9q10 0 20.5 4t10.5 12zM701 620q0 42 -75 42q-52 0 -109.5 -28.5t-93.5 -69.5q-28 -30 -39 -78q24 -2 37 -2q28 0 73 9t92.5 25t81 43t33.5 59zM746 620q0 -35 -45.5 -66t-90.5 -46q-86 -29 -228 -34
q-4 -9 -4 -21q0 -8 9 -24q35 5 65 5q13 0 30.5 -2t37.5 -9.5t20 -20.5q0 -16 -26 -22.5t-48 -6.5q-63 0 -123 35q-72 -20 -112 -55q-44 -35 -74 -82t-30 -97q0 -66 50 -102.5t118 -36.5q42 0 88 11q126 27 234 144q2 2 12.5 15t20 24t11.5 11l2 -2q0 -5 -3 -11t-8 -13
t-9.5 -12.5t-11 -12.5t-7.5 -9q-70 -83 -151 -130q-45 -27 -105.5 -45t-109.5 -18q-90 0 -155.5 44t-65.5 129q0 72 49.5 126.5t123.5 89.5q42 20 123 43q-17 25 -22 61q-67 15 -87 23q-30 11 -52.5 34.5t-22.5 52.5q0 25 14 43.5t37.5 27t46 12t46.5 3.5q17 0 48.5 -5.5
t31.5 -13.5q0 -4 -7 -4t-25.5 6t-33.5 6q-44 0 -77.5 -19t-33.5 -59q0 -41 35 -65t81 -31q6 22 17 45q35 65 126 102t176 37q115 0 115 -55zM825 901q0 -32 -40 -56.5t-75 -24.5q-23 0 -58 13.5t-45 13.5q-9 0 -18 -6t-14.5 -12t-6.5 -6q-5 0 -5 7q0 5 7 12q13 15 19 22
t18.5 13.5t27.5 6.5q17 0 58.5 -14.5t68.5 -14.5q43 0 43 40q0 10 -5.5 19.5t-5.5 11.5q0 5 7 5q24 0 24 -30z" />
    <glyph glyph-name="uni1EBD" unicode="&#x1ebd;" horiz-adv-x="286" 
d="M191 310q0 19 -23 19q-8 0 -18.5 -5t-17 -10t-17 -15t-13.5 -12q-66 -61 -105 -120q85 14 138 59q19 14 37.5 39.5t18.5 44.5zM237 191q0 -6 -12 -22t-29.5 -35t-19.5 -22q-51 -57 -96.5 -89t-103.5 -32q-90 0 -90 83q0 57 51 120.5t121.5 104.5t126.5 41q49 0 49 -33
q0 -36 -50 -72t-102.5 -55.5t-90.5 -27.5q-32 -58 -32 -86q0 -46 52 -46q66 0 156 97q4 5 13.5 15t15.5 16.5t13 15.5t11 16q1 1 3 5t4.5 6.5t5.5 2.5q4 0 4 -3zM362 571q0 -32 -40 -56.5t-75 -24.5q-23 0 -58 13.5t-45 13.5q-9 0 -18 -6t-14.5 -12t-6.5 -6q-5 0 -5 7
q0 5 7 12q13 15 19 22t18.5 13.5t27.5 6.5q17 0 58.5 -14.5t68.5 -14.5q43 0 43 40q0 10 -5.5 19.5t-5.5 11.5q0 5 7 5q24 0 24 -30z" />
    <glyph glyph-name="uni1EBE" unicode="&#x1ebe;" horiz-adv-x="676" 
d="M489 401q0 20 -63 20q-18 0 -33 -4q4 -11 8 -15t16 -8q23 -9 41 -9q10 0 20.5 4t10.5 12zM701 620q0 42 -75 42q-52 0 -109.5 -28.5t-93.5 -69.5q-28 -30 -39 -78q24 -2 37 -2q28 0 73 9t92.5 25t81 43t33.5 59zM746 620q0 -35 -45.5 -66t-90.5 -46q-86 -29 -228 -34
q-4 -9 -4 -21q0 -8 9 -24q35 5 65 5q13 0 30.5 -2t37.5 -9.5t20 -20.5q0 -16 -26 -22.5t-48 -6.5q-63 0 -123 35q-72 -20 -112 -55q-44 -35 -74 -82t-30 -97q0 -66 50 -102.5t118 -36.5q42 0 88 11q126 27 234 144q2 2 12.5 15t20 24t11.5 11l2 -2q0 -5 -3 -11t-8 -13
t-9.5 -12.5t-11 -12.5t-7.5 -9q-70 -83 -151 -130q-45 -27 -105.5 -45t-109.5 -18q-90 0 -155.5 44t-65.5 129q0 72 49.5 126.5t123.5 89.5q42 20 123 43q-17 25 -22 61q-67 15 -87 23q-30 11 -52.5 34.5t-22.5 52.5q0 25 14 43.5t37.5 27t46 12t46.5 3.5q17 0 48.5 -5.5
t31.5 -13.5q0 -4 -7 -4t-25.5 6t-33.5 6q-44 0 -77.5 -19t-33.5 -59q0 -41 35 -65t81 -31q6 22 17 45q35 65 126 102t176 37q115 0 115 -55zM796 876q0 -6 -7 -28t-15 -47t-10 -32q-6 -14 -7 -23q-3 -14 -8 -14q-6 0 -6 8q0 7 2 20.5t2 17.5t0.5 13t0.5 14q0 24 -8 24
q-3 0 -8.5 -2.5t-12.5 -6l-9 -4.5q-13 -6 -38.5 -25.5t-34.5 -25.5q-33 -21 -35 -23q-12 -12 -21 -12q-3 3 -3 4q0 8 19 23q17 14 68 60q4 4 28.5 27.5t38.5 34.5q15 12 30 12q34 0 34 -15zM1100 971q-51 -56 -125 -104q-5 -3 -27.5 -17.5t-34.5 -20.5q-53 -25 -57 -28
q-8 -6 -14 -6q-5 0 -5 4q0 7 14 10q12 4 50 35q4 4 30.5 26t37 32t25 30t20.5 39h86z" />
    <glyph glyph-name="uni1EBF" unicode="&#x1ebf;" horiz-adv-x="286" 
d="M191 310q0 19 -23 19q-8 0 -18.5 -5t-17 -10t-17 -15t-13.5 -12q-66 -61 -105 -120q85 14 138 59q19 14 37.5 39.5t18.5 44.5zM237 191q0 -6 -12 -22t-29.5 -35t-19.5 -22q-51 -57 -96.5 -89t-103.5 -32q-90 0 -90 83q0 57 51 120.5t121.5 104.5t126.5 41q49 0 49 -33
q0 -36 -50 -72t-102.5 -55.5t-90.5 -27.5q-32 -58 -32 -86q0 -46 52 -46q66 0 156 97q4 5 13.5 15t15.5 16.5t13 15.5t11 16q1 1 3 5t4.5 6.5t5.5 2.5q4 0 4 -3zM360 586q0 -6 -7 -28t-15 -47t-10 -32q-6 -14 -7 -23q-3 -14 -8 -14q-6 0 -6 8q0 7 2 20.5t2 17.5t0.5 13
t0.5 14q0 24 -8 24q-3 0 -8.5 -2.5t-12.5 -6l-9 -4.5q-13 -6 -38.5 -25.5t-34.5 -25.5q-33 -21 -35 -23q-12 -12 -21 -12q-3 3 -3 4q0 8 19 23q17 14 68 60q4 4 28.5 27.5t38.5 34.5q15 12 30 12q34 0 34 -15zM651 680q-51 -56 -125 -104q-5 -3 -27.5 -17.5t-34.5 -20.5
q-53 -25 -57 -28q-7 -6 -14 -6q-5 0 -5 4q0 6 14 10q12 4 50 35q4 4 30.5 26t37 32t25 30t20.5 39h86z" />
    <glyph glyph-name="uni1EC0" unicode="&#x1ec0;" horiz-adv-x="676" 
d="M489 401q0 20 -63 20q-18 0 -33 -4q4 -11 8 -15t16 -8q23 -9 41 -9q10 0 20.5 4t10.5 12zM701 620q0 42 -75 42q-52 0 -109.5 -28.5t-93.5 -69.5q-28 -30 -39 -78q24 -2 37 -2q28 0 73 9t92.5 25t81 43t33.5 59zM746 620q0 -35 -45.5 -66t-90.5 -46q-86 -29 -228 -34
q-4 -9 -4 -21q0 -8 9 -24q35 5 65 5q13 0 30.5 -2t37.5 -9.5t20 -20.5q0 -16 -26 -22.5t-48 -6.5q-63 0 -123 35q-72 -20 -112 -55q-44 -35 -74 -82t-30 -97q0 -66 50 -102.5t118 -36.5q42 0 88 11q126 27 234 144q2 2 12.5 15t20 24t11.5 11l2 -2q0 -5 -3 -11t-8 -13
t-9.5 -12.5t-11 -12.5t-7.5 -9q-70 -83 -151 -130q-45 -27 -105.5 -45t-109.5 -18q-90 0 -155.5 44t-65.5 129q0 72 49.5 126.5t123.5 89.5q42 20 123 43q-17 25 -22 61q-67 15 -87 23q-30 11 -52.5 34.5t-22.5 52.5q0 25 14 43.5t37.5 27t46 12t46.5 3.5q17 0 48.5 -5.5
t31.5 -13.5q0 -4 -7 -4t-25.5 6t-33.5 6q-44 0 -77.5 -19t-33.5 -59q0 -41 35 -65t81 -31q6 22 17 45q35 65 126 102t176 37q115 0 115 -55zM796 876q0 -6 -7 -28t-15 -47t-10 -32q-6 -14 -7 -23q-3 -14 -8 -14q-6 0 -6 8q0 7 2 20.5t2 17.5t0.5 13t0.5 14q0 24 -8 24
q-3 0 -8.5 -2.5t-12.5 -6l-9 -4.5q-13 -6 -38.5 -25.5t-34.5 -25.5q-33 -21 -35 -23q-12 -12 -21 -12q-3 3 -3 4q0 8 19 23q17 14 68 60q4 4 28.5 27.5t38.5 34.5q15 12 30 12q34 0 34 -15zM917 838q0 -4 -4 -4q-5 0 -31 34q-3 4 -11.5 15.5t-13.5 18.5q-23 32 -50 83
q-1 2 -10 18h74q0 -63 16 -98l13 -31q4 -17 10 -23q7 -7 7 -13z" />
    <glyph glyph-name="uni1EC1" unicode="&#x1ec1;" horiz-adv-x="286" 
d="M191 310q0 19 -23 19q-8 0 -18.5 -5t-17 -10t-17 -15t-13.5 -12q-66 -61 -105 -120q85 14 138 59q19 14 37.5 39.5t18.5 44.5zM237 191q0 -6 -12 -22t-29.5 -35t-19.5 -22q-51 -57 -96.5 -89t-103.5 -32q-90 0 -90 83q0 57 51 120.5t121.5 104.5t126.5 41q49 0 49 -33
q0 -36 -50 -72t-102.5 -55.5t-90.5 -27.5q-32 -58 -32 -86q0 -46 52 -46q66 0 156 97q4 5 13.5 15t15.5 16.5t13 15.5t11 16q1 1 3 5t4.5 6.5t5.5 2.5q4 0 4 -3zM360 586q0 -6 -7 -28t-15 -47t-10 -32q-6 -14 -7 -23q-3 -14 -8 -14q-6 0 -6 8q0 7 2 20.5t2 17.5t0.5 13
t0.5 14q0 24 -8 24q-3 0 -8.5 -2.5t-12.5 -6l-9 -4.5q-13 -6 -38.5 -25.5t-34.5 -25.5q-33 -21 -35 -23q-12 -12 -21 -12q-3 3 -3 4q0 8 19 23q17 14 68 60q4 4 28.5 27.5t38.5 34.5q15 12 30 12q34 0 34 -15zM497 536q0 -4 -4 -4q-5 0 -31 34q-3 4 -11.5 15.5t-13.5 18.5
q-23 32 -50 83q-1 2 -10 18h74q0 -63 16 -98l13 -31q4 -17 10 -23q7 -7 7 -13z" />
    <glyph glyph-name="uni1EC2" unicode="&#x1ec2;" horiz-adv-x="676" 
d="M489 401q0 20 -63 20q-18 0 -33 -4q4 -11 8 -15t16 -8q23 -9 41 -9q10 0 20.5 4t10.5 12zM701 620q0 42 -75 42q-52 0 -109.5 -28.5t-93.5 -69.5q-28 -30 -39 -78q24 -2 37 -2q28 0 73 9t92.5 25t81 43t33.5 59zM746 620q0 -35 -45.5 -66t-90.5 -46q-86 -29 -228 -34
q-4 -9 -4 -21q0 -8 9 -24q35 5 65 5q13 0 30.5 -2t37.5 -9.5t20 -20.5q0 -16 -26 -22.5t-48 -6.5q-63 0 -123 35q-72 -20 -112 -55q-44 -35 -74 -82t-30 -97q0 -66 50 -102.5t118 -36.5q42 0 88 11q126 27 234 144q2 2 12.5 15t20 24t11.5 11l2 -2q0 -5 -3 -11t-8 -13
t-9.5 -12.5t-11 -12.5t-7.5 -9q-70 -83 -151 -130q-45 -27 -105.5 -45t-109.5 -18q-90 0 -155.5 44t-65.5 129q0 72 49.5 126.5t123.5 89.5q42 20 123 43q-17 25 -22 61q-67 15 -87 23q-30 11 -52.5 34.5t-22.5 52.5q0 25 14 43.5t37.5 27t46 12t46.5 3.5q17 0 48.5 -5.5
t31.5 -13.5q0 -4 -7 -4t-25.5 6t-33.5 6q-44 0 -77.5 -19t-33.5 -59q0 -41 35 -65t81 -31q6 22 17 45q35 65 126 102t176 37q115 0 115 -55zM796 876q0 -6 -7 -28t-15 -47t-10 -32q-6 -14 -7 -23q-3 -14 -8 -14q-6 0 -6 8q0 7 2 20.5t2 17.5t0.5 13t0.5 14q0 24 -8 24
q-3 0 -8.5 -2.5t-12.5 -6l-9 -4.5q-13 -6 -38.5 -25.5t-34.5 -25.5q-33 -21 -35 -23q-12 -12 -21 -12q-3 3 -3 4q0 8 19 23q17 14 68 60q4 4 28.5 27.5t38.5 34.5q15 12 30 12q34 0 34 -15zM1031 987q0 -59 -97 -94q-27 -9 -55 -26q-17 -10 -24 -23q-6 -13 -8 -13
q-6 -3 -9 3q-3 7 5 18q13 20 62 51.5t61 48.5q11 15 11 29q0 21 -25 21q-18 0 -38.5 -17.5t-20.5 -35.5q0 -9 8 -12q3 0 3 -2q0 -3 -10.5 -7t-16.5 -4q-22 0 -22 25q0 37 54 70q29 16 62 16q25 0 42.5 -12t17.5 -36z" />
    <glyph glyph-name="uni1EC3" unicode="&#x1ec3;" horiz-adv-x="286" 
d="M191 310q0 19 -23 19q-8 0 -18.5 -5t-17 -10t-17 -15t-13.5 -12q-66 -61 -105 -120q85 14 138 59q19 14 37.5 39.5t18.5 44.5zM237 191q0 -6 -12 -22t-29.5 -35t-19.5 -22q-51 -57 -96.5 -89t-103.5 -32q-90 0 -90 83q0 57 51 120.5t121.5 104.5t126.5 41q49 0 49 -33
q0 -36 -50 -72t-102.5 -55.5t-90.5 -27.5q-32 -58 -32 -86q0 -46 52 -46q66 0 156 97q4 5 13.5 15t15.5 16.5t13 15.5t11 16q1 1 3 5t4.5 6.5t5.5 2.5q4 0 4 -3zM360 586q0 -6 -7 -28t-15 -47t-10 -32q-6 -14 -7 -23q-3 -14 -8 -14q-6 0 -6 8q0 7 2 20.5t2 17.5t0.5 13
t0.5 14q0 24 -8 24q-3 0 -8.5 -2.5t-12.5 -6l-9 -4.5q-13 -6 -38.5 -25.5t-34.5 -25.5q-33 -21 -35 -23q-12 -12 -21 -12q-3 3 -3 4q0 8 19 23q17 14 68 60q4 4 28.5 27.5t38.5 34.5q15 12 30 12q34 0 34 -15zM596 696q0 -59 -97 -94q-27 -9 -55 -26q-17 -10 -24 -23
q-6 -13 -8 -13q-6 -2 -9 3q-3 7 5 18q13 20 62 51.5t61 48.5q11 15 11 29q0 21 -25 21q-18 0 -38.5 -17.5t-20.5 -35.5q0 -9 8 -12q3 0 3 -2q0 -3 -10.5 -7t-16.5 -4q-22 0 -22 25q0 37 54 70q29 16 62 16q25 0 42.5 -12t17.5 -36z" />
    <glyph glyph-name="uni1EC4" unicode="&#x1ec4;" horiz-adv-x="676" 
d="M489 401q0 20 -63 20q-18 0 -33 -4q4 -11 8 -15t16 -8q23 -9 41 -9q10 0 20.5 4t10.5 12zM701 620q0 42 -75 42q-52 0 -109.5 -28.5t-93.5 -69.5q-28 -30 -39 -78q24 -2 37 -2q28 0 73 9t92.5 25t81 43t33.5 59zM746 620q0 -35 -45.5 -66t-90.5 -46q-86 -29 -228 -34
q-4 -9 -4 -21q0 -8 9 -24q35 5 65 5q13 0 30.5 -2t37.5 -9.5t20 -20.5q0 -16 -26 -22.5t-48 -6.5q-63 0 -123 35q-72 -20 -112 -55q-44 -35 -74 -82t-30 -97q0 -66 50 -102.5t118 -36.5q42 0 88 11q126 27 234 144q2 2 12.5 15t20 24t11.5 11l2 -2q0 -5 -3 -11t-8 -13
t-9.5 -12.5t-11 -12.5t-7.5 -9q-70 -83 -151 -130q-45 -27 -105.5 -45t-109.5 -18q-90 0 -155.5 44t-65.5 129q0 72 49.5 126.5t123.5 89.5q42 20 123 43q-17 25 -22 61q-67 15 -87 23q-30 11 -52.5 34.5t-22.5 52.5q0 25 14 43.5t37.5 27t46 12t46.5 3.5q17 0 48.5 -5.5
t31.5 -13.5q0 -4 -7 -4t-25.5 6t-33.5 6q-44 0 -77.5 -19t-33.5 -59q0 -41 35 -65t81 -31q6 22 17 45q35 65 126 102t176 37q115 0 115 -55zM796 876q0 -6 -7 -28t-15 -47t-10 -32q-6 -14 -7 -23q-3 -14 -8 -14q-6 0 -6 8q0 7 2 20.5t2 17.5t0.5 13t0.5 14q0 24 -8 24
q-3 0 -8.5 -2.5t-12.5 -6l-9 -4.5q-13 -6 -38.5 -25.5t-34.5 -25.5q-33 -21 -35 -23q-12 -12 -21 -12q-3 3 -3 4q0 8 19 23q17 14 68 60q4 4 28.5 27.5t38.5 34.5q15 12 30 12q34 0 34 -15zM928 1011q0 -32 -40 -56.5t-75 -24.5q-23 0 -58 13.5t-45 13.5q-9 0 -18 -6
t-14.5 -12t-6.5 -6q-5 0 -5 7q0 5 7 12q13 15 19 22t18.5 13.5t27.5 6.5q17 0 58.5 -14.5t68.5 -14.5q43 0 43 40q0 10 -5.5 19.5t-5.5 11.5q0 5 7 5q24 0 24 -30z" />
    <glyph glyph-name="uni1EC5" unicode="&#x1ec5;" horiz-adv-x="286" 
d="M191 310q0 19 -23 19q-8 0 -18.5 -5t-17 -10t-17 -15t-13.5 -12q-66 -61 -105 -120q85 14 138 59q19 14 37.5 39.5t18.5 44.5zM237 191q0 -6 -12 -22t-29.5 -35t-19.5 -22q-51 -57 -96.5 -89t-103.5 -32q-90 0 -90 83q0 57 51 120.5t121.5 104.5t126.5 41q49 0 49 -33
q0 -36 -50 -72t-102.5 -55.5t-90.5 -27.5q-32 -58 -32 -86q0 -46 52 -46q66 0 156 97q4 5 13.5 15t15.5 16.5t13 15.5t11 16q1 1 3 5t4.5 6.5t5.5 2.5q4 0 4 -3zM360 586q0 -6 -7 -28t-15 -47t-10 -32q-6 -14 -7 -23q-3 -14 -8 -14q-6 0 -6 8q0 7 2 20.5t2 17.5t0.5 13
t0.5 14q0 24 -8 24q-3 0 -8.5 -2.5t-12.5 -6l-9 -4.5q-13 -6 -38.5 -25.5t-34.5 -25.5q-33 -21 -35 -23q-12 -12 -21 -12q-3 3 -3 4q0 8 19 23q17 14 68 60q4 4 28.5 27.5t38.5 34.5q15 12 30 12q34 0 34 -15zM492 738q0 -32 -40 -56.5t-75 -24.5q-23 0 -58 13.5t-45 13.5
q-9 0 -18 -6t-14.5 -12t-6.5 -6q-5 0 -5 7q0 5 7 12q13 15 19 22t18.5 13.5t27.5 6.5q17 0 58.5 -14.5t68.5 -14.5q43 0 43 40q0 10 -5.5 19.5t-5.5 11.5q0 5 7 5q24 0 24 -30z" />
    <glyph glyph-name="uni1EC6" unicode="&#x1ec6;" horiz-adv-x="676" 
d="M304 -95q0 -26 -25 -51.5t-51 -25.5q-34 0 -34 33q0 26 25 51.5t51 25.5q15 0 24.5 -9t9.5 -24zM489 401q0 20 -63 20q-18 0 -33 -4q4 -11 8 -15t16 -8q23 -9 41 -9q10 0 20.5 4t10.5 12zM701 620q0 42 -75 42q-52 0 -109.5 -28.5t-93.5 -69.5q-28 -30 -39 -78
q24 -2 37 -2q28 0 73 9t92.5 25t81 43t33.5 59zM746 620q0 -35 -45.5 -66t-90.5 -46q-86 -29 -228 -34q-4 -9 -4 -21q0 -8 9 -24q35 5 65 5q13 0 30.5 -2t37.5 -9.5t20 -20.5q0 -16 -26 -22.5t-48 -6.5q-63 0 -123 35q-72 -20 -112 -55q-44 -35 -74 -82t-30 -97
q0 -66 50 -102.5t118 -36.5q42 0 88 11q126 27 234 144q2 2 12.5 15t20 24t11.5 11l2 -2q0 -5 -3 -11t-8 -13t-9.5 -12.5t-11 -12.5t-7.5 -9q-70 -83 -151 -130q-45 -27 -105.5 -45t-109.5 -18q-90 0 -155.5 44t-65.5 129q0 72 49.5 126.5t123.5 89.5q42 20 123 43
q-17 25 -22 61q-67 15 -87 23q-30 11 -52.5 34.5t-22.5 52.5q0 25 14 43.5t37.5 27t46 12t46.5 3.5q17 0 48.5 -5.5t31.5 -13.5q0 -4 -7 -4t-25.5 6t-33.5 6q-44 0 -77.5 -19t-33.5 -59q0 -41 35 -65t81 -31q6 22 17 45q35 65 126 102t176 37q115 0 115 -55zM796 876
q0 -6 -7 -28t-15 -47t-10 -32q-6 -14 -7 -23q-3 -14 -8 -14q-6 0 -6 8q0 7 2 20.5t2 17.5t0.5 13t0.5 14q0 24 -8 24q-3 0 -8.5 -2.5t-12.5 -6l-9 -4.5q-13 -6 -38.5 -25.5t-34.5 -25.5q-33 -21 -35 -23q-12 -12 -21 -12q-3 3 -3 4q0 8 19 23q17 14 68 60q4 4 28.5 27.5
t38.5 34.5q15 12 30 12q34 0 34 -15z" />
    <glyph glyph-name="uni1EC7" unicode="&#x1ec7;" horiz-adv-x="286" 
d="M14 -95q0 -26 -25 -51.5t-51 -25.5q-34 0 -34 33q0 26 25 51.5t51 25.5q15 0 24.5 -9t9.5 -24zM191 310q0 19 -23 19q-8 0 -18.5 -5t-17 -10t-17 -15t-13.5 -12q-66 -61 -105 -120q85 14 138 59q19 14 37.5 39.5t18.5 44.5zM237 191q0 -6 -12 -22t-29.5 -35t-19.5 -22
q-51 -57 -96.5 -89t-103.5 -32q-90 0 -90 83q0 57 51 120.5t121.5 104.5t126.5 41q49 0 49 -33q0 -36 -50 -72t-102.5 -55.5t-90.5 -27.5q-32 -58 -32 -86q0 -46 52 -46q66 0 156 97q4 5 13.5 15t15.5 16.5t13 15.5t11 16q1 1 3 5t4.5 6.5t5.5 2.5q4 0 4 -3zM360 586
q0 -6 -7 -28t-15 -47t-10 -32q-6 -14 -7 -23q-3 -14 -8 -14q-6 0 -6 8q0 7 2 20.5t2 17.5t0.5 13t0.5 14q0 24 -8 24q-3 0 -8.5 -2.5t-12.5 -6l-9 -4.5q-13 -6 -38.5 -25.5t-34.5 -25.5q-33 -21 -35 -23q-12 -12 -21 -12q-3 3 -3 4q0 8 19 23q17 14 68 60q4 4 28.5 27.5
t38.5 34.5q15 12 30 12q34 0 34 -15z" />
    <glyph glyph-name="uni1EC8" unicode="&#x1ec8;" horiz-adv-x="609" 
d="M817 662q0 -7 -18 -7q-33 -4 -70 -41q-21 -22 -43 -54q-48 -68 -87 -136q-35 -60 -50.5 -86t-49.5 -76.5t-60 -79.5t-64.5 -63.5t-80.5 -59.5q-117 -69 -241 -69q-22 0 -44.5 3.5t-47 11.5t-40 25t-15.5 41q0 20 15.5 36t35.5 16q14 0 24 -10t10 -24q0 -9 -11 -16
t-11 -21q0 -26 36.5 -38t68.5 -12q38 0 75 13.5t72 42.5t61.5 54t59.5 70t47.5 66t43.5 65l49 73q107 156 171 207q36 29 109 65l-51 3q-30 0 -86 -10q-81 -15 -139.5 -37.5t-119.5 -66.5q-116 -86 -116 -168q0 -30 20 -50.5t50 -20.5q34 0 60 14q2 2 12.5 7.5t13.5 5.5
l2 -1q-3 -8 -26 -21q-59 -33 -107 -33q-44 0 -71.5 23t-27.5 66q0 55 36.5 103t95 81.5t112 55t107.5 35.5q115 26 224 26q9 0 26 -1t27 -1q13 0 13 -6zM929 914q0 -59 -97 -94q-27 -9 -55 -26q-17 -10 -24 -23q-6 -13 -8 -13q-6 -2 -9 3q-3 7 5 18q13 20 62 51.5t61 48.5
q11 15 11 29q0 21 -25 21q-18 0 -38.5 -17.5t-20.5 -35.5q0 -9 8 -12q3 0 3 -2q0 -3 -10.5 -7t-16.5 -4q-22 0 -22 25q0 37 54 70q29 16 62 16q25 0 42.5 -12t17.5 -36z" />
    <glyph glyph-name="uni1EC9" unicode="&#x1ec9;" horiz-adv-x="207" 
d="M155 192q0 -10 -20 -34.5t-46.5 -51.5t-28.5 -30q-80 -86 -132 -86q-27 0 -45 13.5t-18 39.5q0 34 35 87l101 150q17 22 17 36q0 2 -3 17h85q1 -3 1 -14q0 -14 -20 -40l-116 -172q-26 -41 -26 -64q0 -24 16 -24q39 0 162 132q21 24 24 31q1 1 2.5 5t3.5 6t5 2t3 -3z
M265 584q0 -59 -97 -94q-27 -9 -55 -26q-17 -10 -24 -23q-6 -13 -8 -13q-6 -2 -9 3q-2 7 5 18q13 20 62 51.5t61 48.5q11 15 11 29q0 21 -25 21q-18 0 -38.5 -17.5t-20.5 -35.5q0 -9 8 -12q3 0 3 -2q0 -3 -10.5 -7t-16.5 -4q-22 0 -22 25q0 37 54 70q29 16 62 16
q25 0 42.5 -12t17.5 -36z" />
    <glyph glyph-name="uni1ECA" unicode="&#x1eca;" horiz-adv-x="609" 
d="M817 662q0 -7 -18 -7q-33 -4 -70 -41q-21 -22 -43 -54q-48 -68 -87 -136q-35 -60 -50.5 -86t-49.5 -76.5t-60 -79.5t-64.5 -63.5t-80.5 -59.5q-117 -69 -241 -69q-22 0 -44.5 3.5t-47 11.5t-40 25t-15.5 41q0 20 15.5 36t35.5 16q14 0 24 -10t10 -24q0 -9 -11 -16
t-11 -21q0 -26 36.5 -38t68.5 -12q38 0 75 13.5t72 42.5t61.5 54t59.5 70t47.5 66t43.5 65l49 73q107 156 171 207q36 29 109 65l-51 3q-30 0 -86 -10q-81 -15 -139.5 -37.5t-119.5 -66.5q-116 -86 -116 -168q0 -30 20 -50.5t50 -20.5q34 0 60 14q2 2 12.5 7.5t13.5 5.5
l2 -1q-3 -8 -26 -21q-59 -33 -107 -33q-44 0 -71.5 23t-27.5 66q0 55 36.5 103t95 81.5t112 55t107.5 35.5q115 26 224 26q9 0 26 -1t27 -1q13 0 13 -6zM295 -95q0 -26 -25 -51.5t-51 -25.5q-34 0 -34 33q0 26 25 51.5t51 25.5q15 0 24.5 -9t9.5 -24z" />
    <glyph glyph-name="uni1ECB" unicode="&#x1ecb;" horiz-adv-x="207" 
d="M155 192q0 -10 -20 -34.5t-46.5 -51.5t-28.5 -30q-80 -86 -132 -86q-27 0 -45 13.5t-18 39.5q0 34 35 87l101 150q17 22 17 36q0 2 -3 17h85q1 -3 1 -14q0 -14 -20 -40l-116 -172q-26 -41 -26 -64q0 -24 16 -24q39 0 162 132q21 24 24 31q1 1 2.5 5t3.5 6t5 2t3 -3z
M233 577q0 -27 -23 -52t-50 -25q-36 0 -36 38q0 24 26.5 46.5t51.5 22.5q31 0 31 -30zM-46 -95q0 -26 -25 -51.5t-51 -25.5q-34 0 -34 33q0 26 25 51.5t51 25.5q15 0 24.5 -9t9.5 -24z" />
    <glyph glyph-name="uni1ECC" unicode="&#x1ecc;" horiz-adv-x="683" 
d="M697 562q0 -84 -45 -180.5t-109 -179.5q-178 -227 -367 -227q-81 0 -125 44t-44 125q0 103 66.5 202t163.5 179l18 15t22 18t19 13q21 15 54 32.5t46 15.5q2 0 2 -3q0 -5 -10 -8q-40 -19 -76 -49q-87 -67 -154.5 -178t-67.5 -210q0 -67 40 -103.5t108 -36.5
q100 0 215 109q82 80 138.5 185t56.5 204q0 116 -93 116q-83 0 -156.5 -78t-73.5 -162q0 -42 26 -68t68 -26q30 0 60 14t47.5 28t19.5 14q3 0 3 -3q0 -9 -24.5 -28.5t-36.5 -24.5q-51 -32 -108 -32q-49 0 -76.5 25.5t-27.5 73.5q0 56 43.5 121.5t95.5 105.5q38 32 88 55
t92 23q50 0 76 -35t26 -86zM218 -95q0 -26 -25 -51.5t-51 -25.5q-34 0 -34 33q0 26 25 51.5t51 25.5q15 0 24.5 -9t9.5 -24z" />
    <glyph glyph-name="uni1ECD" unicode="&#x1ecd;" horiz-adv-x="377" 
d="M220 292q0 35 -32 35q-39 0 -95 -52t-96 -118t-40 -105q0 -41 43 -41q9 0 18 2.5t17 5.5t17.5 10t15.5 11.5t16 14.5l14.5 14.5t14 16.5t12 15.5t12 16t10.5 13.5q73 100 73 161zM265 263q0 -70 -73 -155q-42 -47 -99.5 -85.5t-107.5 -38.5q-42 0 -70 21t-28 61
q0 60 48 125t118 106.5t130 41.5q42 0 62 -17.5t20 -58.5zM-13 -95q0 -26 -25 -51.5t-51 -25.5q-34 0 -34 33q0 26 25 51.5t51 25.5q15 0 24.5 -9t9.5 -24z" />
    <glyph glyph-name="uni1ECE" unicode="&#x1ece;" horiz-adv-x="683" 
d="M697 562q0 -84 -45 -180.5t-109 -179.5q-178 -227 -367 -227q-81 0 -125 44t-44 125q0 103 66.5 202t163.5 179l18 15t22 18t19 13q21 15 54 32.5t46 15.5q2 0 2 -3q0 -5 -10 -8q-40 -19 -76 -49q-87 -67 -154.5 -178t-67.5 -210q0 -67 40 -103.5t108 -36.5
q100 0 215 109q82 80 138.5 185t56.5 204q0 116 -93 116q-83 0 -156.5 -78t-73.5 -162q0 -42 26 -68t68 -26q30 0 60 14t47.5 28t19.5 14q3 0 3 -3q0 -9 -24.5 -28.5t-36.5 -24.5q-51 -32 -108 -32q-49 0 -76.5 25.5t-27.5 73.5q0 56 43.5 121.5t95.5 105.5q38 32 88 55
t92 23q50 0 76 -35t26 -86zM792 914q0 -59 -97 -94q-27 -9 -55 -26q-17 -10 -24 -23q-6 -13 -8 -13q-6 -2 -9 3q-3 7 5 18q13 20 62 51.5t61 48.5q11 15 11 29q0 21 -25 21q-18 0 -38.5 -17.5t-20.5 -35.5q0 -9 8 -12q3 0 3 -2q0 -3 -10.5 -7t-16.5 -4q-22 0 -22 25
q0 37 54 70q29 16 62 16q25 0 42.5 -12t17.5 -36z" />
    <glyph glyph-name="uni1ECF" unicode="&#x1ecf;" horiz-adv-x="377" 
d="M220 292q0 35 -32 35q-39 0 -95 -52t-96 -118t-40 -105q0 -41 43 -41q9 0 18 2.5t17 5.5t17.5 10t15.5 11.5t16 14.5l14.5 14.5t14 16.5t12 15.5t12 16t10.5 13.5q73 100 73 161zM265 263q0 -70 -73 -155q-42 -47 -99.5 -85.5t-107.5 -38.5q-42 0 -70 21t-28 61
q0 60 48 125t118 106.5t130 41.5q42 0 62 -17.5t20 -58.5zM286 584q0 -59 -97 -94q-27 -9 -55 -26q-17 -10 -24 -23q-6 -13 -8 -13q-6 -2 -9 3q-3 7 5 18q13 20 62 51.5t61 48.5q11 15 11 29q0 21 -25 21q-18 0 -38.5 -17.5t-20.5 -35.5q0 -9 8 -12q3 0 3 -2q0 -3 -10.5 -7
t-16.5 -4q-22 0 -22 25q0 37 54 70q29 16 62 16q25 0 42.5 -12t17.5 -36z" />
    <glyph glyph-name="uni1ED0" unicode="&#x1ed0;" horiz-adv-x="683" 
d="M697 562q0 -84 -45 -180.5t-109 -179.5q-178 -227 -367 -227q-81 0 -125 44t-44 125q0 103 66.5 202t163.5 179l18 15t22 18t19 13q21 15 54 32.5t46 15.5q2 0 2 -3q0 -5 -10 -8q-40 -19 -76 -49q-87 -67 -154.5 -178t-67.5 -210q0 -67 40 -103.5t108 -36.5
q100 0 215 109q82 80 138.5 185t56.5 204q0 116 -93 116q-83 0 -156.5 -78t-73.5 -162q0 -42 26 -68t68 -26q30 0 60 14t47.5 28t19.5 14q3 0 3 -3q0 -9 -24.5 -28.5t-36.5 -24.5q-51 -32 -108 -32q-49 0 -76.5 25.5t-27.5 73.5q0 56 43.5 121.5t95.5 105.5q38 32 88 55
t92 23q50 0 76 -35t26 -86zM738 876q0 -6 -7 -28t-15 -47t-10 -32q-6 -14 -7 -23q-3 -14 -8 -14q-6 0 -6 8q0 7 2 20.5t2 17.5t0.5 13t0.5 14q0 24 -8 24q-3 0 -8.5 -2.5t-12.5 -6l-9 -4.5q-13 -6 -38.5 -25.5t-34.5 -25.5q-33 -21 -35 -23q-12 -12 -21 -12q-3 3 -3 4
q0 8 19 23q17 14 68 60q4 4 28.5 27.5t38.5 34.5q15 12 30 12q34 0 34 -15zM1052 971q-51 -56 -125 -104q-5 -3 -27.5 -17.5t-34.5 -20.5q-53 -25 -57 -28q-7 -6 -14 -6q-5 0 -5 4q0 7 14 10q12 4 50 35q4 4 30.5 26t37 32t25 30t20.5 39h86z" />
    <glyph glyph-name="uni1ED1" unicode="&#x1ed1;" horiz-adv-x="377" 
d="M220 292q0 35 -32 35q-39 0 -95 -52t-96 -118t-40 -105q0 -41 43 -41q9 0 18 2.5t17 5.5t17.5 10t15.5 11.5t16 14.5l14.5 14.5t14 16.5t12 15.5t12 16t10.5 13.5q73 100 73 161zM265 263q0 -70 -73 -155q-42 -47 -99.5 -85.5t-107.5 -38.5q-42 0 -70 21t-28 61
q0 60 48 125t118 106.5t130 41.5q42 0 62 -17.5t20 -58.5zM377 586q0 -6 -7 -28t-15 -47t-10 -32q-6 -14 -7 -23q-4 -14 -8 -14q-6 0 -6 8q0 7 2 20.5t2 17.5t0.5 13t0.5 14q0 24 -8 24q-3 0 -8.5 -2.5t-12.5 -6l-9 -4.5q-13 -6 -38.5 -25.5t-34.5 -25.5q-33 -21 -35 -23
q-12 -12 -21 -12q-3 3 -3 4q0 8 19 23q17 14 68 60q4 4 28.5 27.5t38.5 34.5q15 12 30 12q34 0 34 -15zM668 680q-51 -56 -125 -104q-5 -3 -27.5 -17.5t-34.5 -20.5q-53 -25 -57 -28q-7 -6 -14 -6q-5 0 -5 4q0 6 14 10q12 4 50 35q4 4 30.5 26t37 32t25 30t20.5 39h86z" />
    <glyph glyph-name="uni1ED2" unicode="&#x1ed2;" horiz-adv-x="683" 
d="M697 562q0 -84 -45 -180.5t-109 -179.5q-178 -227 -367 -227q-81 0 -125 44t-44 125q0 103 66.5 202t163.5 179l18 15t22 18t19 13q21 15 54 32.5t46 15.5q2 0 2 -3q0 -5 -10 -8q-40 -19 -76 -49q-87 -67 -154.5 -178t-67.5 -210q0 -67 40 -103.5t108 -36.5
q100 0 215 109q82 80 138.5 185t56.5 204q0 116 -93 116q-83 0 -156.5 -78t-73.5 -162q0 -42 26 -68t68 -26q30 0 60 14t47.5 28t19.5 14q3 0 3 -3q0 -9 -24.5 -28.5t-36.5 -24.5q-51 -32 -108 -32q-49 0 -76.5 25.5t-27.5 73.5q0 56 43.5 121.5t95.5 105.5q38 32 88 55
t92 23q50 0 76 -35t26 -86zM738 876q0 -6 -7 -28t-15 -47t-10 -32q-6 -14 -7 -23q-3 -14 -8 -14q-6 0 -6 8q0 7 2 20.5t2 17.5t0.5 13t0.5 14q0 24 -8 24q-3 0 -8.5 -2.5t-12.5 -6l-9 -4.5q-13 -6 -38.5 -25.5t-34.5 -25.5q-33 -21 -35 -23q-12 -12 -21 -12q-3 3 -3 4
q0 8 19 23q17 14 68 60q4 4 28.5 27.5t38.5 34.5q15 12 30 12q34 0 34 -15zM858 838q0 -4 -4 -4q-5 0 -31 34q-3 4 -11.5 15.5t-13.5 18.5q-23 32 -50 83q-1 2 -10 18h74q0 -63 16 -98l13 -31q4 -17 10 -23q7 -7 7 -13z" />
    <glyph glyph-name="uni1ED3" unicode="&#x1ed3;" horiz-adv-x="377" 
d="M220 292q0 35 -32 35q-39 0 -95 -52t-96 -118t-40 -105q0 -41 43 -41q9 0 18 2.5t17 5.5t17.5 10t15.5 11.5t16 14.5l14.5 14.5t14 16.5t12 15.5t12 16t10.5 13.5q73 100 73 161zM265 263q0 -70 -73 -155q-42 -47 -99.5 -85.5t-107.5 -38.5q-42 0 -70 21t-28 61
q0 60 48 125t118 106.5t130 41.5q42 0 62 -17.5t20 -58.5zM377 586q0 -6 -7 -28t-15 -47t-10 -32q-6 -14 -7 -23q-4 -14 -8 -14q-6 0 -6 8q0 7 2 20.5t2 17.5t0.5 13t0.5 14q0 24 -8 24q-3 0 -8.5 -2.5t-12.5 -6l-9 -4.5q-13 -6 -38.5 -25.5t-34.5 -25.5q-33 -21 -35 -23
q-12 -12 -21 -12q-3 3 -3 4q0 8 19 23q17 14 68 60q4 4 28.5 27.5t38.5 34.5q15 12 30 12q34 0 34 -15zM497 536q0 -4 -4 -4q-5 0 -31 34q-3 4 -11.5 15.5t-13.5 18.5q-23 32 -50 83q-1 2 -10 18h74q0 -63 16 -98l13 -31q4 -17 10 -23q7 -7 7 -13z" />
    <glyph glyph-name="uni1ED4" unicode="&#x1ed4;" horiz-adv-x="683" 
d="M697 562q0 -84 -45 -180.5t-109 -179.5q-178 -227 -367 -227q-81 0 -125 44t-44 125q0 103 66.5 202t163.5 179l18 15t22 18t19 13q21 15 54 32.5t46 15.5q2 0 2 -3q0 -5 -10 -8q-40 -19 -76 -49q-87 -67 -154.5 -178t-67.5 -210q0 -67 40 -103.5t108 -36.5
q100 0 215 109q82 80 138.5 185t56.5 204q0 116 -93 116q-83 0 -156.5 -78t-73.5 -162q0 -42 26 -68t68 -26q30 0 60 14t47.5 28t19.5 14q3 0 3 -3q0 -9 -24.5 -28.5t-36.5 -24.5q-51 -32 -108 -32q-49 0 -76.5 25.5t-27.5 73.5q0 56 43.5 121.5t95.5 105.5q38 32 88 55
t92 23q50 0 76 -35t26 -86zM738 876q0 -6 -7 -28t-15 -47t-10 -32q-6 -14 -7 -23q-3 -14 -8 -14q-6 0 -6 8q0 7 2 20.5t2 17.5t0.5 13t0.5 14q0 24 -8 24q-3 0 -8.5 -2.5t-12.5 -6l-9 -4.5q-13 -6 -38.5 -25.5t-34.5 -25.5q-33 -21 -35 -23q-12 -12 -21 -12q-3 3 -3 4
q0 8 19 23q17 14 68 60q4 4 28.5 27.5t38.5 34.5q15 12 30 12q34 0 34 -15zM979 987q0 -59 -97 -94q-27 -9 -55 -26q-17 -10 -24 -23q-6 -13 -8 -13q-6 -3 -9 3q-3 7 5 18q13 20 62 51.5t61 48.5q11 15 11 29q0 21 -25 21q-18 0 -38.5 -17.5t-20.5 -35.5q0 -9 8 -12
q3 0 3 -2q0 -3 -10.5 -7t-16.5 -4q-22 0 -22 25q0 37 54 70q29 16 62 16q25 0 42.5 -12t17.5 -36z" />
    <glyph glyph-name="uni1ED5" unicode="&#x1ed5;" horiz-adv-x="377" 
d="M220 292q0 35 -32 35q-39 0 -95 -52t-96 -118t-40 -105q0 -41 43 -41q9 0 18 2.5t17 5.5t17.5 10t15.5 11.5t16 14.5l14.5 14.5t14 16.5t12 15.5t12 16t10.5 13.5q73 100 73 161zM265 263q0 -70 -73 -155q-42 -47 -99.5 -85.5t-107.5 -38.5q-42 0 -70 21t-28 61
q0 60 48 125t118 106.5t130 41.5q42 0 62 -17.5t20 -58.5zM377 586q0 -6 -7 -28t-15 -47t-10 -32q-6 -14 -7 -23q-4 -14 -8 -14q-6 0 -6 8q0 7 2 20.5t2 17.5t0.5 13t0.5 14q0 24 -8 24q-3 0 -8.5 -2.5t-12.5 -6l-9 -4.5q-13 -6 -38.5 -25.5t-34.5 -25.5q-33 -21 -35 -23
q-12 -12 -21 -12q-3 3 -3 4q0 8 19 23q17 14 68 60q4 4 28.5 27.5t38.5 34.5q15 12 30 12q34 0 34 -15zM612 696q0 -59 -97 -94q-27 -9 -55 -26q-17 -10 -24 -23q-6 -13 -8 -13q-6 -2 -9 3q-3 7 5 18q13 20 62 51.5t61 48.5q11 15 11 29q0 21 -25 21q-18 0 -38.5 -17.5
t-20.5 -35.5q0 -9 8 -12q3 0 3 -2q0 -3 -10.5 -7t-16.5 -4q-22 0 -22 25q0 37 54 70q29 16 62 16q25 0 42.5 -12t17.5 -36z" />
    <glyph glyph-name="uni1ED6" unicode="&#x1ed6;" horiz-adv-x="683" 
d="M697 562q0 -84 -45 -180.5t-109 -179.5q-178 -227 -367 -227q-81 0 -125 44t-44 125q0 103 66.5 202t163.5 179l18 15t22 18t19 13q21 15 54 32.5t46 15.5q2 0 2 -3q0 -5 -10 -8q-40 -19 -76 -49q-87 -67 -154.5 -178t-67.5 -210q0 -67 40 -103.5t108 -36.5
q100 0 215 109q82 80 138.5 185t56.5 204q0 116 -93 116q-83 0 -156.5 -78t-73.5 -162q0 -42 26 -68t68 -26q30 0 60 14t47.5 28t19.5 14q3 0 3 -3q0 -9 -24.5 -28.5t-36.5 -24.5q-51 -32 -108 -32q-49 0 -76.5 25.5t-27.5 73.5q0 56 43.5 121.5t95.5 105.5q38 32 88 55
t92 23q50 0 76 -35t26 -86zM738 876q0 -6 -7 -28t-15 -47t-10 -32q-6 -14 -7 -23q-3 -14 -8 -14q-6 0 -6 8q0 7 2 20.5t2 17.5t0.5 13t0.5 14q0 24 -8 24q-3 0 -8.5 -2.5t-12.5 -6l-9 -4.5q-13 -6 -38.5 -25.5t-34.5 -25.5q-33 -21 -35 -23q-12 -12 -21 -12q-3 3 -3 4
q0 8 19 23q17 14 68 60q4 4 28.5 27.5t38.5 34.5q15 12 30 12q34 0 34 -15zM868 1011q0 -32 -40 -56.5t-75 -24.5q-23 0 -58 13.5t-45 13.5q-9 0 -18 -6t-14.5 -12t-6.5 -6q-5 0 -5 7q0 5 7 12q13 15 19 22t18.5 13.5t27.5 6.5q17 0 58.5 -14.5t68.5 -14.5q43 0 43 40
q0 10 -5.5 19.5t-5.5 11.5q0 5 7 5q24 0 24 -30z" />
    <glyph glyph-name="uni1ED7" unicode="&#x1ed7;" horiz-adv-x="377" 
d="M220 292q0 35 -32 35q-39 0 -95 -52t-96 -118t-40 -105q0 -41 43 -41q9 0 18 2.5t17 5.5t17.5 10t15.5 11.5t16 14.5l14.5 14.5t14 16.5t12 15.5t12 16t10.5 13.5q73 100 73 161zM265 263q0 -70 -73 -155q-42 -47 -99.5 -85.5t-107.5 -38.5q-42 0 -70 21t-28 61
q0 60 48 125t118 106.5t130 41.5q42 0 62 -17.5t20 -58.5zM377 586q0 -6 -7 -28t-15 -47t-10 -32q-6 -14 -7 -23q-4 -14 -8 -14q-6 0 -6 8q0 7 2 20.5t2 17.5t0.5 13t0.5 14q0 24 -8 24q-3 0 -8.5 -2.5t-12.5 -6l-9 -4.5q-13 -6 -38.5 -25.5t-34.5 -25.5q-33 -21 -35 -23
q-12 -12 -21 -12q-3 3 -3 4q0 8 19 23q17 14 68 60q4 4 28.5 27.5t38.5 34.5q15 12 30 12q34 0 34 -15zM508 738q0 -32 -40 -56.5t-75 -24.5q-23 0 -58 13.5t-45 13.5q-9 0 -18 -6t-14.5 -12t-6.5 -6q-5 0 -5 7q0 5 7 12q13 15 19 22t18.5 13.5t27.5 6.5q17 0 58.5 -14.5
t68.5 -14.5q43 0 43 40q0 10 -5.5 19.5t-5.5 11.5q0 5 7 5q24 0 24 -30z" />
    <glyph glyph-name="uni1ED8" unicode="&#x1ed8;" horiz-adv-x="683" 
d="M218 -95q0 -26 -25 -51.5t-51 -25.5q-34 0 -34 33q0 26 25 51.5t51 25.5q15 0 24.5 -9t9.5 -24zM697 562q0 -84 -45 -180.5t-109 -179.5q-178 -227 -367 -227q-81 0 -125 44t-44 125q0 103 66.5 202t163.5 179l18 15t22 18t19 13q21 15 54 32.5t46 15.5q2 0 2 -3
q0 -5 -10 -8q-40 -19 -76 -49q-87 -67 -154.5 -178t-67.5 -210q0 -67 40 -103.5t108 -36.5q100 0 215 109q82 80 138.5 185t56.5 204q0 116 -93 116q-83 0 -156.5 -78t-73.5 -162q0 -42 26 -68t68 -26q30 0 60 14t47.5 28t19.5 14q3 0 3 -3q0 -9 -24.5 -28.5t-36.5 -24.5
q-51 -32 -108 -32q-49 0 -76.5 25.5t-27.5 73.5q0 56 43.5 121.5t95.5 105.5q38 32 88 55t92 23q50 0 76 -35t26 -86zM738 876q0 -6 -7 -28t-15 -47t-10 -32q-6 -14 -7 -23q-3 -14 -8 -14q-6 0 -6 8q0 7 2 20.5t2 17.5t0.5 13t0.5 14q0 24 -8 24q-3 0 -8.5 -2.5t-12.5 -6
l-9 -4.5q-13 -6 -38.5 -25.5t-34.5 -25.5q-33 -21 -35 -23q-12 -12 -21 -12q-3 3 -3 4q0 8 19 23q17 14 68 60q4 4 28.5 27.5t38.5 34.5q15 12 30 12q34 0 34 -15z" />
    <glyph glyph-name="uni1ED9" unicode="&#x1ed9;" horiz-adv-x="377" 
d="M-13 -95q0 -26 -25 -51.5t-51 -25.5q-34 0 -34 33q0 26 25 51.5t51 25.5q15 0 24.5 -9t9.5 -24zM220 292q0 35 -32 35q-39 0 -95 -52t-96 -118t-40 -105q0 -41 43 -41q9 0 18 2.5t17 5.5t17.5 10t15.5 11.5t16 14.5l14.5 14.5t14 16.5t12 15.5t12 16t10.5 13.5
q73 100 73 161zM265 263q0 -70 -73 -155q-42 -47 -99.5 -85.5t-107.5 -38.5q-42 0 -70 21t-28 61q0 60 48 125t118 106.5t130 41.5q42 0 62 -17.5t20 -58.5zM377 586q0 -6 -7 -28t-15 -47t-10 -32q-6 -14 -7 -23q-4 -14 -8 -14q-6 0 -6 8q0 7 2 20.5t2 17.5t0.5 13t0.5 14
q0 24 -8 24q-3 0 -8.5 -2.5t-12.5 -6l-9 -4.5q-13 -6 -38.5 -25.5t-34.5 -25.5q-33 -21 -35 -23q-12 -12 -21 -12q-3 3 -3 4q0 8 19 23q17 14 68 60q4 4 28.5 27.5t38.5 34.5q15 12 30 12q34 0 34 -15z" />
    </font>
</defs>
</svg>
