<?xml version="1.0" standalone="no"?>
<!DOCTYPE svg PUBLIC "-//W3C//DTD SVG 1.1//EN" "http://www.w3.org/Graphics/SVG/1.1/DTD/svg11.dtd" >
<svg xmlns="http://www.w3.org/2000/svg" xmlns:xlink="http://www.w3.org/1999/xlink" version="1.1">
<metadata>
Created by FontForge 20170731 at Mon Jan 21 10:11:29 2013
 By Aleksey,,,
Copyright 2004. Tomoyuki Watanabe (Tea-wat) Bilancio alternate http://www.typography.jp.org
</metadata>
<defs>
<font id="UVFBilancioalternate" horiz-adv-x="806" >
  <font-face 
    font-family="UVF Bilancio"
    font-weight="400"
    font-stretch="normal"
    units-per-em="1000"
    panose-1="0 0 4 0 0 0 0 0 0 0"
    ascent="800"
    descent="-200"
    x-height="561"
    cap-height="800"
    bbox="-77 -204 1138 1138.21"
    underline-thickness="20"
    underline-position="-163"
    unicode-range="U+0020-F002"
  />
<missing-glyph horiz-adv-x="500" 
d="M63 0v800h375v-800h-375zM125 63h250v675h-250v-675z" />
    <glyph glyph-name=".notdef" horiz-adv-x="500" 
d="M63 0v800h375v-800h-375zM125 63h250v675h-250v-675z" />
    <glyph glyph-name=".null" horiz-adv-x="0" 
 />
    <glyph glyph-name="nonmarkingreturn" horiz-adv-x="297" 
 />
    <glyph glyph-name="space" unicode=" " horiz-adv-x="297" 
 />
    <glyph glyph-name="exclam" unicode="!" horiz-adv-x="239" 
d="M55 800q2 18 14 18q9 0 14 -18q-4 -550 -19 -592q-9 0 -10 288q-1 203 1 304zM59 119q25 0 42.5 -18t17.5 -42q0 -25 -18 -42t-42 -17q-23 0 -41 17.5t-18 41.5q0 25 17.5 42.5t41.5 17.5z" />
    <glyph glyph-name="quotedbl" unicode="&#x22;" horiz-adv-x="319" 
d="M169 513h-38v287h38v-287zM34 513h-34v287h34v-287z" />
    <glyph glyph-name="numbersign" unicode="#" horiz-adv-x="540" 
d="M504 460h-151v-162h151v-24h-151v-274h-27v274h-147v-274h-27v274h-152v24h152v162h-152v25h152v315h27v-315h147v315h27v-315h151v-25zM179 298h147v162h-147v-162z" />
    <glyph glyph-name="dollar" unicode="$" horiz-adv-x="473" 
d="M338 266q0 -136 -116 -160v-106h-12v104q-20 -3 -40 -3v-101h-12v102q-70 2 -116 34q-42 28 -42 63q0 20 17 35.5t38 15.5q15 0 29 -9q3 -2 3 -8q0 -21 -12 -21q-2 0 -7.5 5t-13.5 5q-18 0 -23 -21q-6 -27 31 -50.5t96 -25.5v265q-115 45 -117 130q0 52 34 92
q33 37 83 48v140h12v-139q4 1 12 2q11 1 28 0v137h12v-137q32 -3 46 -6.5t62 -21.5q-2 -21 -2 -39q0 -19 2 -58l-23 -2q-5 23 -30 72q-24 22 -55 29v-247q55 -22 88 -62q28 -35 28 -62zM170 638v-231q13 -4 40 -13v245q-13 1 -27 1q-3 -1 -13 -2zM158 411v224
q-37 -10 -61 -37q-28 -32 -28 -75q0 -46 20 -70t69 -42zM222 129q91 20 91 117q0 77 -91 120v-237zM170 124q21 0 40 3v244q-2 1 -40 15v-262z" />
    <glyph glyph-name="percent" unicode="%" horiz-adv-x="752" 
d="M522 309q64 0 109 -45t45 -109q0 -65 -45 -110t-109 -45t-109.5 45t-45.5 110q0 64 45.5 109t109.5 45zM176 3l295 633h23l-294 -633h-24zM155 635q64 0 109 -45t45 -109t-45 -109.5t-109 -45.5t-109.5 45.5t-45.5 109.5t45.5 109t109.5 45zM522 15q57 0 98 41t41 99
q0 57 -41 98t-98 41q-58 0 -99 -41t-41 -98q0 -58 41 -99t99 -41zM155 341q57 0 98 41t41 99q0 57 -41 98t-98 41q-58 0 -99 -41t-41 -98q0 -58 41 -99t99 -41z" />
    <glyph glyph-name="ampersand" unicode="&#x26;" horiz-adv-x="857" 
d="M790 86l4 -27q-2 -1 -49 -36q-33 -25 -51 -23q-134 13 -235 126q-104 -120 -251 -120q-98 0 -153 53.5t-55 140.5q0 157 187 248q-84 114 -84 197q0 66 50.5 110.5t125.5 44.5q70 0 117.5 -42t47.5 -103q0 -58 -55 -114q-61 -61 -169 -99q51 -78 236 -289q28 28 64 94
t36 89q0 39 -80 43q-10 2 -85 3l12 18q96 -5 270 -5l-5 -22q-23 2 -96 6q11 -1 11 -26q0 -36 -22 -74q-45 -78 -89 -139q74 -97 231 -111q5 0 41.5 26.5t45.5 30.5zM125 655q0 -72 83 -195q96 28 158 85q59 54 59 105q0 50 -40 90t-92 41q-81 1 -129 -44q-39 -37 -39 -82z
M213 21q125 -4 229 119q-158 169 -245 295q-182 -91 -181 -227q1 -180 197 -187z" />
    <glyph glyph-name="quotesingle" unicode="'" horiz-adv-x="187" 
d="M34 513h-34v287h34v-287z" />
    <glyph glyph-name="parenleft" unicode="(" horiz-adv-x="348" 
d="M226 -172q23 -19 23 -24q0 -8 -6 -8q-9 0 -40 24q-43 31 -84 79q-136 158 -136 397q0 211 107 361q45 64 100 107q41 33 53 33q6 0 6 -8q0 -5 -23 -23q-222 -179 -222 -471q0 -154 69 -283q57 -107 153 -184z" />
    <glyph glyph-name="parenright" unicode=")" horiz-adv-x="416" 
d="M34 -172q222 179 222 467q0 292 -222 471q-23 18 -23 23q0 8 6 8q12 0 53 -33q55 -43 100 -107q107 -150 107 -361q0 -239 -136 -397q-41 -48 -84 -79q-31 -24 -40 -24q-6 0 -6 8q0 5 23 24z" />
    <glyph glyph-name="asterisk" unicode="*" horiz-adv-x="522" 
d="M219 678v-48l179 -110h-27l-152 91v-103h-37v103l-155 -91h-27l182 110v48l-182 111h27l155 -92v103h37v-103l152 92h27z" />
    <glyph glyph-name="plus" unicode="+" horiz-adv-x="504" 
d="M218 303v203h32v-203h218v-26h-218v-221h-32v221h-214v26h214z" />
    <glyph glyph-name="comma" unicode="," horiz-adv-x="257" 
d="M50 -3q-23 0 -38.5 15.5t-15.5 38.5q0 22 17 38.5t38 16.5q56 -2 56 -68q0 -40 -19.5 -67t-39.5 -27q-7 0 -7 2q0 3 11 4t19 10q12 14 16 49q-15 -12 -37 -12z" />
    <glyph glyph-name="hyphen" unicode="-" horiz-adv-x="328" 
d="M22 257h233l-22 -30h-233z" />
    <glyph glyph-name="hyphen" unicode="&#x2010;" horiz-adv-x="328" 
d="M22 257h233l-22 -30h-233z" />
    <glyph glyph-name="period" unicode="." horiz-adv-x="265" 
d="M57 114q23 0 40 -17t17 -40q0 -24 -17 -40.5t-40 -16.5t-40 17t-17 40t16.5 40t40.5 17z" />
    <glyph glyph-name="slash" unicode="/" horiz-adv-x="337" 
d="M0 0l255 800h33l-255 -800h-33z" />
    <glyph glyph-name="zero" unicode="0" horiz-adv-x="652" 
d="M341 724q104 0 174 -97q73 -100 73 -255q0 -160 -72.5 -266t-182.5 -106q-116 0 -192.5 98.5t-76.5 248.5q0 166 78 271.5t199 105.5zM91 348q0 -162 80 -249q69 -75 169 -75q90 0 157 100.5t67 250.5q0 143 -65 235q-62 89 -154 89q-108 0 -179 -92q-75 -97 -75 -259z
" />
    <glyph glyph-name="one" unicode="1" horiz-adv-x="652" 
d="M342 163q-1 -133 90 -137v-25q-85 2 -212 -1v25q97 6 97 141v31q0 50 1 146q0 365 0 341q-24 -9 -56 -28q-26 -15 -31 -15q-9 0 -9 15q0 14 110 65q11 0 11 -14q0 -418 -1 -544z" />
    <glyph glyph-name="two" unicode="2" horiz-adv-x="652" 
d="M563 35l7 -35q-19 1 -244 1q-224 0 -243 -1l-1 18q0 15 102 118q142 141 192 198q103 118 103 169q0 192 -176 192q-64 0 -111 -37.5t-59 -91.5q-2 -16 -4.5 -30t-14.5 -14t-12 16q0 62 56 120q63 64 153 64q95 0 147.5 -53.5t49.5 -154.5q-2 -80 -187 -282l-198 -202
l301 -3q66 -1 139 8z" />
    <glyph glyph-name="three" unicode="3" horiz-adv-x="652" 
d="M562 201q0 -69 -45.5 -120t-125.5 -71q-36 -9 -78 -9q-60 0 -110 16t-60 36q-15 28 -53 111l27 12q17 -52 49 -106q26 -44 140 -44q94 0 158 39q78 47 77 135q-1 65 -73 128q-51 46 -109 70l-68 -9l5 20q128 10 178 82q21 30 24 70q-3 135 -159 135q-44 0 -79.5 -21
t-51.5 -56q-3 -6 -12 -35q-4 -13 -12 -13q-14 0 -14 12q0 43 46 87q52 50 128 50q81 0 128.5 -40t50.5 -111q2 -58 -50 -110q-46 -47 -90 -53q166 -76 179 -205z" />
    <glyph glyph-name="four" unicode="4" horiz-adv-x="652" 
d="M441 118q0 -28 26 -56q27 -31 61 -31v-30l-198 -1v30q35 1 63 34q25 28 26 55.5t1 88.5h-320q-5 0 -6 11q-2 10 1 14l346 491l1 -492q43 2 74.5 19t27.5 17q13 0 13 -11t-30 -27q-35 -19 -85 -22zM122 233q142 1 298 -1v427z" />
    <glyph glyph-name="five" unicode="5" horiz-adv-x="652" 
d="M283 409q113 0 188 -49q81 -53 81 -145q0 -99 -68 -157t-192 -58q-93 0 -148 48q-45 40 -45 90q0 15 16 15q10 0 13 -12.5t6 -24.5q33 -94 155 -94q101 0 161 41q75 49 75 156q0 85 -83 130q-68 37 -164 37q-53 0 -105 -22l-19 -64l-23 6q24 68 21 185l-15 230h395
q-1 -7 0 -27h-361q-1 -10 -1 -29q0 -27 5 -132q4 -99 3 -141q52 17 105 17z" />
    <glyph glyph-name="six" unicode="6" horiz-adv-x="652" 
d="M340 459q109 0 172.5 -59.5t63.5 -155.5q0 -104 -69.5 -174t-177.5 -70q-253 0 -253 288q0 164 73 294.5t175 135.5q95 4 158 -32q49 -27 49 -49q0 -13 -13 -13q-4 0 -24 18q-23 22 -48 34q-38 18 -90 18q-12 0 -26 -1q-115 -9 -181 -182q-37 -96 -44 -175q35 53 95 87
q65 36 140 36zM334 24q93 2 154.5 63t61.5 155q0 87 -55.5 137.5t-156.5 55.5q-73 3 -157 -58q-77 -56 -77 -93q0 -264 230 -260z" />
    <glyph glyph-name="seven" unicode="7" horiz-adv-x="652" 
d="M235 724q20 0 111.5 -24t151.5 -24q26 0 51 4v-35q-318 -561 -357 -645q-15 5 -31 11q6 9 360 626q-63 8 -192 32q-106 20 -124 20q-36 0 -58 -21t-22 -55q0 -20 13 -37t13 -20q0 -13 -11 -13t-24 20t-13 50q0 47 36 79t96 32z" />
    <glyph glyph-name="eight" unicode="8" horiz-adv-x="652" 
d="M110 532q5 83 65 135q64 57 170 57q90 0 147.5 -45.5t57.5 -117.5q0 -51 -26 -96q-29 -52 -82 -74q82 -35 116.5 -76.5t34.5 -106.5q0 -85 -76 -145q-81 -63 -207 -63q-110 0 -182.5 56.5t-69.5 140.5q6 141 158 186q-55 27 -79 58q-30 37 -27 91zM522 561
q0 62 -50.5 100t-134.5 38q-75 0 -133 -45q-54 -41 -62 -93q-2 -19 -2 -36q0 -123 156 -123h81q73 9 112 62q33 43 33 97zM85 197q-3 -74 62 -123t171 -49q95 0 172 50q74 48 79 108q5 77 -45.5 129.5t-136.5 62.5l-117 -1q-71 -1 -127 -54t-58 -123z" />
    <glyph glyph-name="nine" unicode="9" horiz-adv-x="652" 
d="M312 260q-110 0 -174 60t-64 156q0 105 70 175.5t178 70.5q256 0 256 -290q0 -172 -65 -294q-70 -133 -185 -138q-96 -3 -160 32q-49 27 -49 50q0 13 13 13q4 0 28 -20q29 -23 59 -35q45 -18 102 -15q86 4 149 96q67 98 75 250q0 17 1 40q-40 -61 -94 -101
q-68 -50 -140 -50zM318 697q-94 0 -156 -62t-62 -156q0 -88 55.5 -138.5t157.5 -55.5q73 -3 157 71q77 67 77 107q0 234 -229 234z" />
    <glyph glyph-name="colon" unicode=":" horiz-adv-x="254" 
d="M57 351q23 0 40 -17t17 -40q0 -24 -17 -40.5t-40 -16.5t-40 17t-17 40q0 24 16.5 40.5t40.5 16.5zM57 114q23 0 40 -17t17 -40q0 -24 -17 -40.5t-40 -16.5t-40 17t-17 40t16.5 40t40.5 17z" />
    <glyph glyph-name="semicolon" unicode=";" horiz-adv-x="254" 
d="M55 327q22 0 37.5 -16t15.5 -37q0 -22 -16 -37.5t-37 -15.5t-37 15.5t-16 37.5t15.5 37.5t37.5 15.5zM50 -3q-23 0 -38.5 15.5t-15.5 38.5q0 22 17 38.5t38 16.5q56 -2 56 -68q0 -40 -19.5 -67t-39.5 -27q-7 0 -7 2q0 3 11 4t19 10q12 14 16 49q-15 -12 -37 -12z" />
    <glyph glyph-name="less" unicode="&#x3c;" horiz-adv-x="767" 
d="M14 303v42l674 462l-12 -45l-635 -440l638 -475l8 -45z" />
    <glyph glyph-name="equal" unicode="=" horiz-adv-x="594" 
d="M596 383v-21h-596v21h596zM596 195v-21h-596v21h596z" />
    <glyph glyph-name="greater" unicode="&#x3e;" horiz-adv-x="709" 
d="M676 303l-673 -501l8 45l638 475l-635 440l-12 45l674 -462v-42z" />
    <glyph glyph-name="question" unicode="?" horiz-adv-x="483" 
d="M188 800q83 0 136 -52t53 -135q0 -95 -49 -173q-17 -27 -73 -65q-72 -48 -86 -61q-40 -35 -35 -70q1 -9 13 -26q14 -20 30 -28l-15 -10q-44 28 -49 76q-6 44 33 78q27 18 55 36q25 16 49 31q43 31 67 71q34 56 34 130q-1 93 -52 139q-45 40 -119 35q-51 -4 -93.5 -31
t-53.5 -67q-3 -15 -5.5 -28.5t-13.5 -13.5q-14 0 -14 20q0 52 56.5 98t131.5 46zM158 115q23 0 40 -17t17 -41t-17 -40.5t-40 -16.5t-40.5 17t-17.5 40q0 24 17 41t41 17z" />
    <glyph glyph-name="at" unicode="@" horiz-adv-x="951" 
d="M821 435q0 -106 -64 -203q-71 -108 -171 -114q-48 -3 -93 0l5 52q-55 -37 -120 -37q-93 0 -147.5 56.5t-54.5 149.5q0 18 2 36q10 93 73 154t149 61q82 0 137 -59l3 23l35 19q-5 -25 -26 -223q-20 -189 -21 -197q18 -8 40 -8q48 0 99.5 35.5t78.5 94.5q43 94 43 160
q0 131 -90 210q-94 83 -226 83q-53 0 -123.5 -18.5t-114.5 -43.5q-98 -56 -144 -124q-66 -96 -66 -254q0 -150 117 -248q103 -88 228 -88q57 0 137 22q91 25 190 102l-8 -36q-85 -60 -142 -84q-74 -31 -161 -31q-169 0 -278 96q-113 100 -113 268q0 138 57 242
q61 113 179 169q106 51 230 51q172 0 266 -90.5t94 -225.5zM351 155q10 -1 20 -1q67 0 131 49l32 296q-56 69 -139 69q-75 0 -131 -54.5t-65 -141.5q-2 -17 -2 -33q0 -78 40.5 -127t113.5 -57z" />
    <glyph glyph-name="A" unicode="A" 
d="M582 139q16 -40 50.5 -77t56.5 -37l-2 -25q-69 2 -217 0v29q17 -2 27 0q12 2 28 20q23 26 23 60q0 26 -13 54l-33 103h-333l-91 -214l-14 -38q-6 -13 -15 -13q-15 0 -15 13q0 3 19 48l88 204l-121 -1q-20 0 -20 14q0 13 20 12q3 0 131 -1l213 510zM179 290h313l-133 407z
" />
    <glyph glyph-name="B" unicode="B" horiz-adv-x="630" 
d="M426 474q136 -73 136 -215q0 -118 -84 -186q-86 -71 -238 -71l-222 -2l1 21q39 0 59 56q14 40 14 82q2 51 2 246v271q0 94 -94 99v25q17 -1 46 -1l133 -1q141 0 216.5 -54.5t75.5 -153.5q0 -64 -45 -116zM240 25q140 0 220 64q76 61 76 162q0 142 -127 206q-14 7 -14 14
q0 2 10 14q39 47 39 105q0 86 -65.5 136.5t-183.5 50.5h-68v-752h113z" />
    <glyph glyph-name="C" unicode="C" horiz-adv-x="773" 
d="M729 212q1 1 2 1q5 0 9 -5t2 -9l-18 -38q-19 -35 -49 -64q-52 -50 -107 -72q-64 -25 -161 -25q-173 0 -290 110t-117 278q0 214 170 336q105 75 248 76q210 1 319 -121q-10 -14 -33 -60q-24 -49 -33 -76l-33 9q10 39 10 72q0 65 -35 96q-43 31 -62 39q-45 19 -116 19
q-161 0 -272 -104q-120 -112 -120 -295q0 -170 119 -269q106 -88 257 -88q131 0 220 75q35 30 60 68q15 23 30 47z" />
    <glyph glyph-name="D" unicode="D" horiz-adv-x="778" 
d="M410 766q118 -49 180.5 -142.5t62.5 -216.5q0 -231 -189 -344q-96 -58 -230 -60l-216 -3l1 21q31 2 54 47q19 39 19 71q2 52 2 266v249q-2 41 -21 74q-26 45 -73 47v25q17 -1 46 -1l126 -1q162 0 238 -32zM392 54q110 44 172.5 136.5t62.5 216.5q0 122 -64 211.5
t-184 133.5q-96 29 -258 25v-752q168 -7 271 29z" />
    <glyph glyph-name="E" unicode="E" horiz-adv-x="467" 
d="M344 29q19 0 19 -14q0 -13 -21 -13q-251 0 -323 -2l-1 26q34 3 53 38t19 89q1 48 2 251v234q-2 42 -21 79q-25 49 -71 52l1 31q36 -2 321 -2q19 0 19 -15q0 -13 -21 -13q-7 0 -201 2v-2v-436l209 2q19 0 19 -14t-21 -14q-7 0 -207 2v-280z" />
    <glyph glyph-name="F" unicode="F" horiz-adv-x="438" 
d="M330 535q18 0 18 -15q0 -13 -21 -13q-6 0 -209 2l3 -444q0 -40 66 -45l1 -20q-119 3 -171 2l1 20q33 2 54 35q18 31 19 71q2 111 2 536q0 41 -21 70q-24 35 -72 41v25q2 -3 82 -2q57 0 151 1t90 1q19 0 19 -14t-21 -14q-7 0 -203 2v-242z" />
    <glyph glyph-name="G" unicode="G" horiz-adv-x="801" 
d="M500 332q202 -4 252 -2l-1 -21l-16 -11q-10 -82 -14 -98q-16 -75 -54 -111q-82 -80 -260 -89q-173 -1 -290 109.5t-117 278.5q0 214 170 336q105 75 248 76q210 1 319 -121q-10 -14 -33 -60q-24 -49 -33 -76l-33 9q27 51 27 93q0 35 -18 56q-77 77 -212 77
q-163 0 -275 -99q-122 -110 -122 -291q0 -171 121 -274q110 -93 260 -92q45 1 82 8q90 18 129 64q33 39 33 84q0 43 -28 84q-23 34 -36 36q-21 4 -99 7v27z" />
    <glyph glyph-name="H" unicode="H" horiz-adv-x="556" 
d="M375 789q0 10 16 10q15 0 15 -9v-782q0 -9 -15 -9q-16 0 -16 10q0 3 2 473h-253v-482h-106l1 21q31 2 53 42q19 34 20 66q2 28 2 266q1 240 0 276q-2 38 -21 66q-25 36 -73 38v25q15 -1 124 -1v-293h253z" />
    <glyph glyph-name="I" unicode="I" horiz-adv-x="339" 
d="M218 775q-47 -2 -72 -43q-20 -32 -21 -72q-2 -35 -1 -280q1 -241 2.5 -270t19.5 -55q22 -31 54 -34l1 -20q-74 2 -183 -1l1 21q32 2 53 33q19 26 20 55t2 270q1 245 0 280q-2 40 -21 72q-26 41 -73 44v24h109q106 1 109 1v-25z" />
    <glyph glyph-name="J" unicode="J" horiz-adv-x="375" 
d="M236 800q5 -545 0 -623q-19 -94 -130 -153q-52 -24 -83 -24q-11 0 -23 3q1 90 0 115q41 -69 91 -64q38 8 74 48q42 46 48 109l-7 587q-9 9 16 9q14 0 14 -7z" />
    <glyph glyph-name="K" unicode="K" horiz-adv-x="782" 
d="M694 780q1 -11 -479 -325q443 -430 445 -438q4 -13 -11 -17q-11 -3 -455 441l-69 -45l-1 -389q-56 0 -108 -1l1 20q31 2 54 42q20 34 20 65q2 52 2 276v245q-2 41 -21 75q-26 44 -72 47v24q62 -4 124 -4l1 -370q546 367 555 368q13 1 14 -14z" />
    <glyph glyph-name="L" unicode="L" horiz-adv-x="617" 
d="M531 28q10 0 10 -14t-10 -14q-5 0 -257.5 2t-255.5 2l1 21q31 2 53 48q18 38 20 72q1 28 2 251q1 225 -1 261q-1 40 -21 72q-25 43 -72 46v24h110q107 1 111 1v-24q-47 -3 -72 -46q-20 -32 -21 -73q-2 -35 -1 -261q1 -222 2 -250q2 -32 17 -70q19 -47 45 -50z" />
    <glyph glyph-name="M" unicode="M" horiz-adv-x="782" 
d="M518 800q132 -773 131 -792q-1 -13 -19 -7q-11 4 -130 743q-56 -120 -155 -276q64 -112 64 -115q-2 -13 -17 -12q-7 1 -68 95q-62 -94 -69 -95q-15 -2 -17 11q0 3 67 113q-99 155 -156 276q-119 -737 -130 -741q-14 -5 -19 7q-4 11 130 791l22 2q50 -85 174 -300
q139 229 169 299z" />
    <glyph glyph-name="N" unicode="N" horiz-adv-x="687" 
d="M514 773q0 11 13 11q12 0 12 -9v-772q0 -9 -12 -9q-13 0 -13 10v375l-491 365l2 -744q0 -8 -9 -8q-11 0 -11 11q0 3 -5 797q194 -143 514 -377v350z" />
    <glyph glyph-name="O" unicode="O" horiz-adv-x="912" 
d="M394 800q163 0 278.5 -117t115.5 -283t-115.5 -283t-278.5 -117t-278.5 117t-115.5 283t115.5 283t278.5 117zM394 24q153 0 262 110t109 266t-109 266t-262 110q-154 0 -262.5 -110t-108.5 -266t108.5 -266t262.5 -110z" />
    <glyph glyph-name="P" unicode="P" horiz-adv-x="589" 
d="M498 587q0 -111 -96 -174t-283 -70v-341q-51 -1 -103 -2l1 20q31 3 54 47q19 37 21 70q1 23 2 252q1 238 -0.5 277.5t-21.5 68.5q-25 38 -72 41v24q60 -4 166 -4q169 0 250.5 -50.5t81.5 -158.5zM119 366q175 7 268 71q85 58 85 150q0 186 -307 186q-23 0 -46 -2v-405z
" />
    <glyph glyph-name="Q" unicode="Q" horiz-adv-x="931" 
d="M718 53q7 0 36 15q34 17 44 21v-28q-36 -21 -80 -49q3 0 -122 38q-53 -24 -83 -33q-54 -17 -119 -17q-163 -1 -278.5 116.5t-115.5 283.5t115.5 283t278.5 117t278.5 -117t115.5 -283q0 -90 -44 -180q-41 -86 -107 -143q60 -23 81 -24zM23 400q0 -105 52.5 -192.5
t139.5 -136.5q120 56 171 76l221 -63q68 53 112 138q46 89 46 178q0 156 -109 266t-262 110t-262 -110t-109 -266zM394 24q80 1 175 38q-79 27 -178 56q-12 0 -68 -26q-49 -23 -74 -38q72 -32 145 -30z" />
    <glyph glyph-name="R" unicode="R" horiz-adv-x="824" 
d="M638 50q25 -23 79 -23v-26l-63 -1q-53 35 -147.5 172.5t-127.5 159.5q-14 9 -70 16q-32 4 -64 7q-57 -10 -125 -13v-340l-104 -2l1 20q31 3 54 45q19 36 21 68q1 28 2 258q0 234 -1 271.5t-21 68.5q-25 40 -72 42v25q7 -1 76 1q75 1 78 1q344 0 344 -215
q0 -153 -180 -212q72 -11 104 -39q102 -137 216 -284zM120 365q174 7 267 71q85 58 85 149q0 186 -306 186q-24 0 -47 -2z" />
    <glyph glyph-name="S" unicode="S" horiz-adv-x="566" 
d="M279 419q88 -46 121 -74q48 -41 51 -93q6 -97 -55 -166q-66 -75 -183 -86q-14 -1 -26 -1q-102 0 -161 67q-33 36 -33 74q0 19 7 32q22 39 63 39q21 0 39 -12q6 -4 6 -12q0 -13 -8 -13q-4 0 -8 6q-9 14 -26 14t-34.5 -16.5t-17.5 -33.5q0 -42 60 -84q65 -45 138 -38
q87 8 147 64q64 60 63 147q-2 56 -42 94q-28 27 -106 67l-162 70q-80 42 -84 108q-5 87 52 153t150 75q51 5 89 -10q48 -7 89 -24q-3 -33 -3 -61q0 -27 4 -82l-31 -3q-4 26 -19 99q-8 30 -55 47q-39 15 -72 12q-69 -6 -121.5 -56t-53.5 -111q-2 -83 52 -115q85 -39 170 -77z
" />
    <glyph glyph-name="T" unicode="T" horiz-adv-x="510" 
d="M536 800q10 0 10 -14t-11 -14h-133q-36 0 -74.5 -33t-40.5 -64q-1 -36 0 -284q1 -245 2 -273q1 -31 20 -60q22 -34 53 -37l1 -20q-73 2 -182 -1l2 20q31 3 53 37q18 30 19.5 59t2.5 274q1 249 -0.5 284.5t-42 65.5t-84.5 30l-129 2q-11 0 -11 15q0 13 9 13h536z" />
    <glyph glyph-name="U" unicode="U" horiz-adv-x="703" 
d="M544 786q0 15 13 15t13 -15v-322q0 -236 -50 -344q-55 -120 -185 -120q-128 0 -186 89q-57 86 -56 267l2 301q0 33 -28 73q-31 43 -67 45v25q18 -1 124 0q-7 -31 -6 -434q0 -184 56 -265q51 -74 163 -74q207 0 207 376v383z" />
    <glyph glyph-name="V" unicode="V" horiz-adv-x="704" 
d="M680 799q0 -8 -325 -799h-31q-323 787 -324 796t12 9q6 0 8 -5l319 -763l319 762q3 7 12 6q10 -1 10 -6z" />
    <glyph glyph-name="W" unicode="W" horiz-adv-x="1069" 
d="M1023 799q3 7 13 6q9 -1 9 -6q0 -8 -325 -799h-31q-69 167 -167 408l-167 -408h-31q-323 785 -324 796q-1 9 12 9q6 0 8 -5l319 -763l169 405l-143 354q0 9 12 9q6 0 9 -5l136 -326l136 325q3 7 12 6q10 -1 10 -6t-144 -358l169 -404z" />
    <glyph glyph-name="X" unicode="X" horiz-adv-x="719" 
d="M339 415l258 -415l-37 2q-14 27 -243 391l-294 -393q-4 -3 -13 -2q-10 0 -10 4t304 412q-79 136 -156 260q-23 38 -61 67.5t-71 31.5v24q10 0 100 1q8 -17 211 -360l260 362q4 3 13 2q10 -1 10 -5t-271 -382z" />
    <glyph glyph-name="Y" unicode="Y" horiz-adv-x="521" 
d="M306 125q1 -32 19 -64q22 -38 54 -41l1 -20q-86 2 -176 0l2 20q31 3 53 41q18 32 19 64q0 -3 -2 319q-52 91 -153 265q-37 61 -120 65l-3 26h103q8 -17 187 -328l215 324q4 3 14 2q9 -1 9 -5q0 -5 -101 -161q-94 -145 -124 -188q-3 -202 3 -319z" />
    <glyph glyph-name="Z" unicode="Z" horiz-adv-x="592" 
d="M469 24q22 0 22 -12t-22 -12h-454q-33 0 -33 5q0 -4 18 25l454 744l-266 -1q-9 1 -18 1q-70 0 -131 -64l-8 -41h-24q2 23 2 66t-2 65q53 1 462 0q24 0 24 -12q0 -4 -9 -19l-456 -745h441z" />
    <glyph glyph-name="bracketleft" unicode="[" horiz-adv-x="173" 
d="M52 -162q6 -1 74 -3l-2 -35q-49 1 -124 0l3 1000q71 -4 128 -1l-1 -32l-75 -1q-31 -3 -31 -66l-2 -809q0 -48 30 -53z" />
    <glyph glyph-name="backslash" unicode="\" horiz-adv-x="385" 
d="M246 0l-246 800h32l246 -800h-32z" />
    <glyph glyph-name="bracketright" unicode="]" horiz-adv-x="276" 
d="M74 -162q30 5 30 53l-2 809q0 63 -31 66l-75 1l-1 32q57 -3 128 1l3 -1000h-124l-2 35q68 2 74 3z" />
    <glyph glyph-name="asciicircum" unicode="^" horiz-adv-x="792" 
d="M727 496h-38l-325 284l-327 -284h-37l345 304l39 -1z" />
    <glyph glyph-name="underscore" unicode="_" horiz-adv-x="521" 
d="M558 -90h-558v36h558v-36z" />
    <glyph glyph-name="grave" unicode="`" horiz-adv-x="351" 
d="M274 566h-62l-212 234h62z" />
    <glyph glyph-name="a" unicode="a" horiz-adv-x="601" 
d="M497 30l19 1v-31q-23 2 -48 2q-26 0 -53 -2l-1 64q-73 -62 -169 -62q-114 0 -179.5 72t-65.5 196q0 123 77.5 207t191.5 84q81 0 145 -55l-2 56l36 1l-3 -348q-2 -181 52 -185zM415 104v363q-67 67 -152 67q-100 0 -168.5 -75.5t-68.5 -188.5t57 -178t155 -65
q95 0 177 77z" />
    <glyph glyph-name="b" unicode="b" horiz-adv-x="605" 
d="M293 566q107 0 177 -75t70 -194q0 -128 -73.5 -211.5t-186.5 -83.5q-92 0 -159 55l-1 -57q-54 -2 -110 0v35q30 3 58 43t28 89q0 374 -1 427q-1 39 -30 82q-31 47 -65 47v34q55 7 74 19t36 24q9 4 11 -1.5t2 -16.5l-2 -275q76 59 172 59zM288 30q97 0 161 76t64 191
q0 108 -59.5 176t-154.5 68q-106 0 -179 -76v-362q64 -73 168 -73z" />
    <glyph glyph-name="c" unicode="c" horiz-adv-x="617" 
d="M508 153q2 3 9.5 -3t5.5 -10q-7 -13 -13 -26q-14 -24 -35 -45q-72 -69 -188 -69q-122 0 -204.5 77.5t-82.5 196.5q0 150 120 236q74 53 175 54q150 1 230 -90q-26 -36 -46 -96l-30 11q3 91 -32 123q-46 32 -114 29q-100 -4 -180 -68q-95 -77 -95 -199q0 -105 80 -179
q77 -72 179 -72q100 0 157 49q25 21 43 48q11 17 21 33z" />
    <glyph glyph-name="d" unicode="d" horiz-adv-x="604" 
d="M451 159q0 -49 28 -87q27 -34 57 -37v-35q-57 -2 -113 0l-1 57q-68 -56 -160 -56q-114 0 -188 84t-74 213q0 120 70.5 195.5t177.5 75.5q98 0 174 -60l-1 124q0 47 -25.5 73t-59.5 26v31q18 2 48 16q38 16 51 20q15 4 17 -26q0 -7 -1 -78v-536zM423 103v364
q-74 76 -180 76q-96 0 -156 -68t-60 -177q0 -116 64.5 -192t162.5 -76q105 0 169 73z" />
    <glyph glyph-name="e" unicode="e" horiz-adv-x="613" 
d="M482 158q3 3 10 -3.5t5 -9.5q-6 -13 -13 -26q-13 -24 -35 -45q-77 -74 -188 -74q-120 0 -190.5 76t-70.5 197q0 103 42 174q62 106 207 114q252 15 255 -245q-58 -5 -468 -1q-3 -23 -3 -42q0 -107 64.5 -178.5t163.5 -71.5q95 0 158 54q24 21 43 48q10 17 20 33zM242 530
q-155 -8 -205 -189q89 -2 430 -3q0 203 -225 192z" />
    <glyph glyph-name="f" unicode="f" horiz-adv-x="348" 
d="M212 529q11 0 11 -16q0 -14 -9 -14h-96q0 -315 2 -367q1 -33 20 -67q22 -42 54 -44l1 -21q-88 2 -183 0l1 21q31 2 53 44q19 34 20 67q3 52 3 367h-89q-9 0 -9 15q0 16 10 16h88q0 115 0 113q-4 157 95 157q24 0 42.5 -10.5t18.5 -21.5t-12 -11q-2 0 -18 9.5t-32 9.5
q-30 0 -52 -31.5t-22 -75.5q0 -12 2 -24q7 -24 7 -116h94z" />
    <glyph glyph-name="g" unicode="g" horiz-adv-x="601" 
d="M538 509q7 11 34 51l-305 -1q-113 0 -190 -84t-77 -205q0 -124 65 -195.5t178 -71.5q96 0 169 62q0 -35 1 -64q4 -115 -46 -154q-27 -22 -91 -24q-16 0 -53 10.5t-40 10.5q-11 0 -11 -11q0 -9 38 -21t65 -12q106 0 144 66q23 40 24 126q-2 174 -2 477zM237 28
q-98 0 -154.5 65t-56.5 177q0 113 68 187.5t168 74.5q84 0 151 -67v-360q-82 -77 -176 -77z" />
    <glyph glyph-name="h" unicode="h" horiz-adv-x="566" 
d="M431 5h-30q2 76 -1 422q0 65 -59 93q-36 17 -80 17q-30 0 -68 -13q-46 -15 -73 -41l-1 -483q-53 -2 -109 0v35q34 3 57 29q29 31 29 86q0 395 -1 450q-1 44 -30.5 83.5t-64.5 39.5v34q54 7 70 19t30 24q21 10 21 -18l-1 -272q28 24 77 39q42 13 78 12q81 -1 112 -27
q45 -38 45 -153z" />
    <glyph glyph-name="i" unicode="i" horiz-adv-x="329" 
d="M104 773q20 0 35.5 -15t15.5 -36t-15.5 -36t-35.5 -15q-21 0 -35.5 15.5t-14.5 35.5q0 21 14.5 36t35.5 15zM208 534q-47 -2 -72 -39q-19 -28 -21 -66q-6 -152 2 -314q1 -31 19 -59q22 -32 54 -35l1 -20q-69 2 -173 -1l1 20q32 3 53 36q18 28 20 58q7 162 1 314
q-1 38 -21 67q-25 36 -72 39v24h104q101 1 104 1v-25z" />
    <glyph glyph-name="j" unicode="j" horiz-adv-x="440" 
d="M253 667q-21 0 -36 15.5t-15 37.5q0 21 15 36.5t36 15.5t36.5 -15.5t15.5 -36.5q0 -22 -15.5 -37.5t-36.5 -15.5zM302 549l-18 -173v-334q0 -223 -178 -240q-26 -3 -66 10.5t-40 22.5q0 12 11 12q4 0 42 -10.5t54 -10.5q61 -2 104 51q53 65 51 190l-3 297q-1 86 -60 113
q-27 12 -96 12v34q120 16 178 45q11 5 16 -1.5t5 -17.5z" />
    <glyph glyph-name="k" unicode="k" horiz-adv-x="590" 
d="M165 220q155 -97 314 -201q6 -12 -8 -19q-8 -4 -325 201l-29 -29v-168q-51 -2 -107 0v31q32 2 57 25q29 25 29 65q0 453 -1 509q-1 39 -29 64t-66 25v34q54 7 69 19l30 24q20 10 20 -18l-1 -573q340 350 349 353q13 4 17 -11q2 -7 -319 -331z" />
    <glyph glyph-name="l" unicode="l" horiz-adv-x="254" 
d="M166 38v-38q-76 -3 -152 0l-1 37q62 5 62 131q6 402 3 491q-1 44 -25 57q-16 9 -53 7v33q26 5 49.5 18t45.5 26q7 4 7 -19q-2 -178 0 -384q2 -243 2 -228q0 -70 26 -106q17 -23 36 -25z" />
    <glyph glyph-name="m" unicode="m" horiz-adv-x="869" 
d="M730 1h-34q1 81 -2 428q0 64 -65 91q-38 17 -85 17q-67 0 -125 -41q10 -23 9 -110q-1 -313 4 -385l-31 -1q0 69 1 406q0 133 -139 133q-29 0 -68 -13q-45 -15 -72 -40l-2 -486q-55 -2 -111 0v30q33 3 57 22q29 23 29 61q0 223 -1 295q-3 108 -95 108v33q54 7 72 20
q15 12 31 24q20 10 20 -19v-61q28 24 76 38q42 13 78 13q99 0 132 -49q61 47 148 46q86 0 120 -26q50 -38 50 -153z" />
    <glyph glyph-name="n" unicode="n" horiz-adv-x="593" 
d="M507 32l32 -1v-31q-32 2 -141 0q-1 29 3 404q2 133 -139 133q-29 0 -68 -13q-45 -15 -72 -40l-1 -483q-56 -3 -113 -1v31q34 3 58 20q30 21 30 59q1 251 -1 340q-2 44 -30 57q-17 7 -65 7v33q54 7 70.5 19.5t31.5 24.5q20 10 20 -19v-61q28 24 76 38q42 13 78 13
q75 0 105 -25q46 -39 44 -153q-4 -129 -1 -249q0 -68 32 -91q17 -12 51 -12z" />
    <glyph glyph-name="o" unicode="o" horiz-adv-x="603" 
d="M267 561q111 0 189.5 -82t78.5 -198q0 -117 -78.5 -199t-189.5 -82q-110 0 -188.5 82t-78.5 199q0 116 78.5 198t188.5 82zM267 22q102 0 173.5 75.5t71.5 181.5q0 107 -71.5 182t-173.5 75q-101 0 -172.5 -75t-71.5 -182q0 -106 71.5 -181.5t172.5 -75.5z" />
    <glyph glyph-name="p" unicode="p" horiz-adv-x="585" 
d="M259 570q106 0 175.5 -74.5t69.5 -192.5q0 -126 -73 -209t-185 -83q-69 0 -126 33q0 -93 1.5 -123.5t19.5 -60.5q22 -37 53 -39l1 -20q-71 2 -178 -1l2 20q31 2 52 39q18 30 20 61q1 28 2 238q1 214 -1 249q-1 43 -20 80q-26 51 -72 54v24q2 0 123 2q126 3 136 3zM253 40
q97 0 160.5 74.5t63.5 189.5q0 107 -59 174t-153 67q-81 0 -147 -50q1 12 2 -414q54 -41 133 -41z" />
    <glyph glyph-name="q" unicode="q" horiz-adv-x="655" 
d="M534 536q-34 -2 -57 -23q-29 -27 -29 -75l-2 -482q0 -61 29 -95q24 -28 58 -31v-30q-57 -2 -116 0l2 266q-76 -59 -173 -59q-106 0 -176 75t-70 194q0 127 73.5 210.5t185.5 83.5q92 0 160 -56v53q58 2 115 0v-31zM241 32q105 0 178 76v361q-63 72 -167 72
q-97 0 -161 -75.5t-64 -190.5q0 -107 59.5 -175t154.5 -68z" />
    <glyph glyph-name="r" unicode="r" horiz-adv-x="512" 
d="M263 565q66 0 108 -42t42 -109q-1 -125 -111 -125q-20 0 -20 14q0 17 18 18q84 4 84 91q0 52 -31 86q-33 38 -89 38q-33 0 -71 -26q-41 -28 -72 -74l3 -436h-115l1 37q86 8 86 123q0 172 -1 240q-2 58 -30 79q-20 15 -65 15v33q54 7 70 19.5t31 24.5q10 5 15 -1t5 -18
v-65q63 78 142 78z" />
    <glyph glyph-name="s" unicode="s" horiz-adv-x="469" 
d="M201 295q64 -18 104 -63q32 -37 32 -68q0 -167 -172 -164q-73 1 -121 33q-44 29 -44 64q0 21 17 36t38 15q15 0 28 -8q4 -2 4 -8q0 -22 -12 -22q-2 0 -7.5 5.5t-13.5 5.5q-19 0 -23 -21q-6 -28 33.5 -52.5t101.5 -24.5q146 0 146 121q0 92 -120 132q-73 24 -107 51
q-43 36 -44 91q-1 58 42 99q40 40 98 43q53 4 87 -7q11 -1 61 -21q-2 -21 -2 -39q0 -19 2 -57l-23 -3q-5 23 -30 72q-36 34 -94 32q-42 -2 -75 -32q-38 -33 -38 -84q0 -54 30 -81q26 -23 102 -45z" />
    <glyph glyph-name="t" unicode="t" horiz-adv-x="283" 
d="M121 533h102v-31q-34 1 -102 0l4 -502h-37q3 62 3 500l-91 1q35 12 91 35l1 211q5 40 23 53q11 0 11 -17q0 2 -2 -95q-2 -102 -3 -155z" />
    <glyph glyph-name="u" unicode="u" horiz-adv-x="593" 
d="M437 189q0 -65 27 -110q24 -41 55 -44l3 -35h-106v56q-59 -50 -139 -50q-76 0 -113 29q-54 42 -50 156q2 67 0 177q-6 158 -96 158q-9 0 -18 -1v19q46 14 139 31l-3 -412q-1 -133 139 -133q30 0 68 12q45 15 72 40l1 320q0 108 -92 109v30q17 2 45 16q32 16 48 20
q4 2 7 2q17 0 17 -52q0 -14 -1 -33q-1 -10 -2 -21q-3 -89 -1 -284z" />
    <glyph glyph-name="v" unicode="v" horiz-adv-x="645" 
d="M534 558q0 -4 -118 -260q-124 -271 -135 -298h-31q-125 273 -250 554q-1 7 8 9t12 -5l245 -522l247 523q3 6 13 5q9 0 9 -6z" />
    <glyph glyph-name="w" unicode="w" horiz-adv-x="961" 
d="M827 561q3 7 13 6q9 -1 9 -7q0 -4 -118 -261q-125 -272 -136 -299h-31q-32 42 -77 141q-37 81 -61 153q-15 -65 -68 -166q-43 -81 -76 -128h-31q-125 274 -251 556q-1 7 8 9q9 3 12 -5l247 -528q82 91 148 287q-16 36 -40 97q-9 26 -9 51q0 31 16 54.5t46 23.5
q55 0 55 -71q0 -64 -45 -152q24 -66 47 -119q55 -129 95 -174zM396 422q9 -27 29 -72q37 80 37 116q0 20 -9 36q-10 20 -28 20t-29 -20q-8 -15 -8 -36t8 -44z" />
    <glyph glyph-name="x" unicode="x" horiz-adv-x="619" 
d="M310 279l174 -278h-29q-14 27 -162 258q-176 -235 -199 -259q-5 -3 -14 -2q-10 0 -10 4t210 278q-35 52 -109 170q-22 35 -80 62q-52 25 -91 27v25q2 -1 130 -2q8 -17 168 -260l181 259q4 3 14 2t10 -5t-193 -279z" />
    <glyph glyph-name="y" unicode="y" horiz-adv-x="587" 
d="M433 461q-2 -52 1 -272q3 -210 2 -215q-12 -87 -39 -122q-39 -52 -135 -52q-25 0 -61.5 11.5t-36.5 19.5q0 11 11 11q3 0 38 -10t50 -10q45 -3 78 14q77 39 77 170q0 34 -6 75q-27 -23 -81 -40q-49 -16 -82 -16q-69 0 -100 28q-44 40 -41 149q1 58 -2 162q-3 163 -85 163
q-10 0 -21 -3v18q44 13 132 28l-2 -396q-1 -126 131 -126q28 0 73 16q52 18 78 42l-4 325q-1 80 -93 81v29q28 3 107 25q12 3 12 -16q-1 -44 -1 -89z" />
    <glyph glyph-name="z" unicode="z" horiz-adv-x="556" 
d="M433 24q23 0 23 -12t-23 -12h-397q-33 0 -33 5q0 2 7 10.5t11 15.5l383 510h-219q-39 -2 -68 -15q-70 -29 -78 -102h-37q5 59 -2 144q50 1 424 -1q25 0 25 -12q0 -6 -9 -18l-385 -513h378z" />
    <glyph glyph-name="braceleft" unicode="{" horiz-adv-x="255" 
d="M-20 298q60 19 74 56q11 33 11 76v205q0 63 15 96q20 45 72 60q10 2 76 2q-118 8 -127 -140v-205q0 -41 -7 -68q-5 -20 -21 -43q-22 -32 -48 -38q17 4 42 -23.5t28 -45.5q6 -36 6 -85v-201q0 -52 11 -80q9 -18 24 -31q35 -31 92 -34q-16 0 -43 1.5t-33 1.5q-47 0 -67 39
t-20 133v188q0 82 -31 110q-17 14 -54 26z" />
    <glyph glyph-name="bar" unicode="|" horiz-adv-x="179" 
d="M29 -200h-29v1000h29v-1000z" />
    <glyph glyph-name="braceright" unicode="}" horiz-adv-x="318" 
d="M250 298q-64 -21 -78 -64q-7 -23 -7 -72v-188q0 -94 -20 -133t-66 -39q-7 0 -33.5 -1.5t-43.5 -1.5q85 4 116 65q11 28 11 80v201q0 49 6 85q3 18 28 45.5t42 23.5q-26 6 -48 38q-16 23 -21 43q-7 27 -7 68v205q-9 148 -127 140q67 0 76 -2q53 -15 73 -60q14 -33 14 -96
v-205q0 -81 36 -109q17 -13 49 -23z" />
    <glyph glyph-name="asciitilde" unicode="~" horiz-adv-x="593" 
d="M365 203q-20 0 -89 40t-108 40q-82 0 -166 -77l1 34q78 71 166 71q44 0 112 -40t85 -40q55 0 162 98l-1 -35q-100 -91 -162 -91z" />
    <glyph glyph-name="exclamdown" unicode="&#xa1;" horiz-adv-x="224" 
d="M65 683q-25 0 -42.5 18t-17.5 42q0 25 18 42t42 17q23 0 41 -17.5t18 -41.5q0 -25 -17.5 -42.5t-41.5 -17.5zM69 2q-2 -18 -14 -18q-9 0 -14 18q4 550 19 592q9 0 10 -288q1 -203 -1 -304z" />
    <glyph glyph-name="cent" unicode="&#xa2;" horiz-adv-x="520" 
d="M442 133q2 3 8 -2.5t5 -8.5q-6 -12 -12 -23q-11 -21 -30 -39q-61 -59 -160 -60v-140h-21v141q-100 6 -166 72t-66 165q0 131 104 205q54 39 128 45v172h21v-170h3q131 1 201 -77q-23 -32 -41 -84l-25 9q13 30 13 55t-12 38q-15 16 -53.5 28t-74.5 12q-2 0 -11 -1v-450
q85 1 133 43q22 18 38 42zM24 238q0 -86 62 -148t146 -69v447q-81 -12 -139 -68q-69 -65 -69 -162z" />
    <glyph glyph-name="sterling" unicode="&#xa3;" horiz-adv-x="551" 
d="M413 158q10 0 20 -15q13 -19 13 -44q0 -41 -32 -68.5t-86 -27.5q-36 0 -93.5 17t-112.5 34q-35 -54 -81 -54q-19 0 -31.5 10t-9.5 25q9 46 58 46q12 0 30 -2.5t20 -2.5q4 0 4 1q57 70 57 123q0 19 -5 43h-155l22 62l120 2q-3 13 -33 92q-20 51 -20 85q0 31 12 60
q16 39 63 64q52 28 127 29q79 2 121 -24q21 -12 41 -42l-1 -2q-14 -16 -60 -73q-6 33 -13 67q-16 49 -60 57q-12 2 -31 2q-56 0 -94 -22q-55 -30 -54 -101q0 -26 12 -84q14 -70 18 -108l169 -2l-22 -62h-138q1 -16 1 -31q0 -77 -53 -140q0 -1 76 -21q86 -23 143 -18
q71 6 71 66q0 17 -11.5 31.5t-11.5 16.5q0 11 10 11zM41 19q32 0 58 40q-15 4 -28 4q-21 0 -34.5 -9t-13.5 -20q0 -15 18 -15z" />
    <glyph glyph-name="currency" unicode="&#xa4;" horiz-adv-x="496" 
d="M326 182q0 -51 -23 -96l49 -49l-31 -31l-43 44q-43 -50 -102 -50q-58 0 -102 50l-43 -44l-31 31l49 49q-23 45 -23 96t23 96l-49 50l31 30l43 -43q44 49 102 49q59 0 102 -49l43 43l31 -30l-49 -50q23 -45 23 -96zM176 12q57 0 98 49.5t41 119.5t-41 119.5t-98 49.5
q-58 0 -98.5 -49.5t-40.5 -119.5t40.5 -119.5t98.5 -49.5z" />
    <glyph glyph-name="yen" unicode="&#xa5;" horiz-adv-x="663" 
d="M303 436v-121h261v-23h-261q1 -135 2.5 -167t19.5 -64q22 -38 54 -41l1 -20q-86 2 -176 0l2 20q31 3 53 41q18 32 19 64q1 19 0 167h-251v23h250l-1 121h-249v23h241q-49 85 -145 250q-36 61 -120 65l-3 26h103q8 -17 187 -328l215 324q4 3 14 2t10 -5q0 -13 -216 -334
h251v-23h-261z" />
    <glyph glyph-name="section" unicode="&#xa7;" horiz-adv-x="464" 
d="M269 262q68 -47 68 -98q0 -167 -172 -164q-73 1 -121 33q-44 29 -44 64q0 21 17 36t38 15q15 0 28 -8q4 -2 4 -9q0 -21 -12 -21q-2 0 -7.5 5.5t-13.5 5.5q-19 0 -23 -21q-7 -28 33 -52.5t102 -24.5q146 0 146 121q0 91 -120 131q-73 25 -107 52q-43 35 -44 90
q-1 96 86 124q-84 42 -86 116q-1 59 42 100q40 39 98 43q53 3 87 -8q11 -1 61 -20q-2 -21 -2 -39q0 -19 2 -58l-23 -2q-5 23 -30 71q-36 35 -94 32q-42 -2 -75 -31q-38 -34 -38 -84q0 -55 30 -81q26 -23 101 -45q65 -19 104 -63q33 -38 33 -68q0 -103 -68 -142zM69 421
q0 -54 30 -81q26 -23 101 -45q23 -6 47 -19q65 26 65 108q0 91 -120 131q-19 7 -39 15q-36 -7 -59 -33q-25 -30 -25 -76z" />
    <glyph glyph-name="dieresis" unicode="&#xa8;" horiz-adv-x="227" 
d="M244 710q0 -42 -43 -42q-41 0 -41 42q0 17 12.5 29.5t28.5 12.5q17 0 30 -12.5t13 -29.5zM84 710q0 -42 -43 -42q-41 0 -41 42q0 17 12.5 29.5t28.5 12.5q17 0 30 -12.5t13 -29.5z" />
    <glyph glyph-name="copyright" unicode="&#xa9;" horiz-adv-x="923" 
d="M799 400q0 -166 -116 -280q-121 -120 -284 -120t-281 118t-118 282t119 285q113 115 280 115t283.5 -116.5t116.5 -283.5zM399 761q-150 0 -252 -104q-108 -110 -108 -257t106.5 -253.5t253.5 -106.5t256 108q104 102 104 252t-105 255.5t-255 105.5zM590 283q2 3 8 -2.5
t4 -8.5q-5 -16 -40 -59q-61 -59 -159 -59q-103 0 -172.5 65.5t-69.5 165.5q0 128 101 200q63 45 148 45q127 1 195 -75q-23 -30 -40 -81l-25 9q13 29 13 53t-11 37q-15 15 -52.5 26.5t-72.5 11.5q-83 0 -152 -56q-81 -65 -81 -170q0 -88 68 -151q65 -60 151 -60q85 0 133 41
q21 18 36 41q9 14 18 27z" />
    <glyph glyph-name="ordfeminine" unicode="&#xaa;" horiz-adv-x="441" 
d="M288 544l18 -1v-15q-29 2 -64 0v31q-38 -30 -87 -30q-58 0 -91.5 34.5t-33.5 95.5q0 59 39.5 100t97.5 41q42 0 75 -27l-1 27h29v-234q0 -20 18 -22zM314 478h-291v22h291v-22zM242 581v170q-34 32 -76 32q-49 0 -83 -35.5t-34 -88.5t28 -83.5t77 -30.5q47 0 88 36z" />
    <glyph glyph-name="guillemotleft" unicode="&#xab;" horiz-adv-x="326" 
d="M214 431h29l-92 -137l92 -138h-29l-91 138zM91 431h37l-91 -137l91 -138h-37l-91 138z" />
    <glyph glyph-name="logicalnot" unicode="&#xac;" horiz-adv-x="746" 
d="M593 -3h-41v244h-552v30h593v-274z" />
    <glyph glyph-name="registered" unicode="&#xae;" horiz-adv-x="923" 
d="M799 400q0 -166 -116 -280q-121 -120 -284 -120t-281 118t-118 282t119 285q113 115 280 115t283.5 -116.5t116.5 -283.5zM399 761q-150 0 -252 -104q-108 -110 -108 -257t106.5 -253.5t253.5 -106.5t256 108q105 102 105 252t-105.5 255.5t-255.5 105.5zM604 191
q15 -13 48 -13v-16h-38q-32 21 -88 103t-76 94q-8 6 -41 10q-19 2 -39 4q-34 -6 -74 -7v-203q-31 0 -62 -1l1 12q18 1 32 27q11 21 12 39t1 155q1 139 0 160q-1 23 -13 42q-15 24 -42 25v15q4 -1 45 0q44 1 46 1q205 0 205 -128q0 -91 -107 -126q43 -7 62 -24
q61 -81 128 -169zM296 379q104 4 159 42q50 35 50 89q0 111 -182 111q-14 0 -27 -2v-240z" />
    <glyph glyph-name="macron" unicode="&#xaf;" horiz-adv-x="225" 
d="M241 726v-44h-241v44h241z" />
    <glyph glyph-name="macron" unicode="&#x2c9;" horiz-adv-x="225" 
d="M241 726v-44h-241v44h241z" />
    <glyph glyph-name="degree" unicode="&#xb0;" horiz-adv-x="359" 
d="M109 796q45 0 77 -32t32 -77t-32 -77t-77 -32t-77 32t-32 77t32 77t77 32zM109 588q41 0 70.5 29t29.5 70q0 42 -29.5 71t-70.5 29t-70.5 -29t-29.5 -71q0 -41 29.5 -70t70.5 -29z" />
    <glyph glyph-name="plusminus" unicode="&#xb1;" horiz-adv-x="583" 
d="M218 303v203h32v-203h218v-26h-218v-221h-32v221h-214v26h214zM462 5h-439v27h439v-27z" />
    <glyph glyph-name="acute" unicode="&#xb4;" horiz-adv-x="415" 
d="M100 654h-76l185 146h75z" />
    <glyph glyph-name="mu" unicode="&#xb5;" horiz-adv-x="541" 
d="M370 33q2 1 41 -1v-30q-38 -1 -55 -1q-16 0 -55 1q1 1 3 1l-1 51q-28 -24 -75 -38q-41 -13 -76 -13t-69 14q-38 16 -56 42v-259h-26l-1 751h30q0 -182 -2 -393q0 -130 137 -130q29 0 66 12q45 15 71 39l-1 397q0 19 -10.5 23.5t-72.5 5.5v30q17 2 53 19t47 17
q14 0 15 -47q0 3 0 -56q-1 -60 -4 -271q0 -51 5 -102t10 -53z" />
    <glyph glyph-name="mu" unicode="&#x3bc;" horiz-adv-x="541" 
d="M370 33q2 1 41 -1v-30q-38 -1 -55 -1q-16 0 -55 1q1 1 3 1l-1 51q-28 -24 -75 -38q-41 -13 -76 -13t-69 14q-38 16 -56 42v-259h-26l-1 751h30q0 -182 -2 -393q0 -130 137 -130q29 0 66 12q45 15 71 39l-1 397q0 19 -10.5 23.5t-72.5 5.5v30q17 2 53 19t47 17
q14 0 15 -47q0 3 0 -56q-1 -60 -4 -271q0 -51 5 -102t10 -53z" />
    <glyph glyph-name="paragraph" unicode="&#xb6;" horiz-adv-x="571" 
d="M421 778v-778h-26v778h-117v-778h-27v355q-251 10 -251 226q0 115 80 172q67 47 179 47h244v-22h-82z" />
    <glyph glyph-name="periodcentered" unicode="&#xb7;" horiz-adv-x="187" 
d="M57 334q23 0 40 -17t17 -40q0 -24 -17 -40.5t-40 -16.5t-40 17t-17 40t16.5 40t40.5 17z" />
    <glyph glyph-name="periodcentered" unicode="&#x2219;" horiz-adv-x="187" 
d="M57 334q23 0 40 -17t17 -40q0 -24 -17 -40.5t-40 -16.5t-40 17t-17 40t16.5 40t40.5 17z" />
    <glyph glyph-name="cedilla" unicode="&#xb8;" horiz-adv-x="334" 
d="M238 -1h21v-22q25 2 28 2q32 0 51 -16.5t19 -43.5q0 -32 -23.5 -50.5t-62.5 -18.5q-71 0 -71 29q0 9 12 9q2 0 12.5 -8t39.5 -8q40 0 40 45q0 41 -37 41q-9 0 -29 -2v43z" />
    <glyph glyph-name="ordmasculine" unicode="&#xba;" horiz-adv-x="412" 
d="M146 800q57 0 97 -40t40 -96t-40 -96t-97 -40t-97 40t-40 96t40 96t97 40zM292 475h-292v22h292v-22zM146 547q49 0 83 34t34 83q0 48 -34 82t-83 34q-48 0 -82.5 -34t-34.5 -82q0 -49 34.5 -83t82.5 -34z" />
    <glyph glyph-name="guillemotright" unicode="&#xbb;" horiz-adv-x="286" 
d="M141 431l91 -137l-91 -138h-26l91 138l-91 137h26zM29 431l91 -137l-91 -138h-28l92 138l-92 137h28z" />
    <glyph glyph-name="questiondown" unicode="&#xbf;" horiz-adv-x="423" 
d="M216 689q-23 0 -40 17t-17 41t17 40.5t40 16.5t40.5 -17t17.5 -40q0 -24 -17 -41t-41 -17zM186 4q-83 0 -136 52t-53 135q0 95 49 173q17 27 73 65q72 48 86 61q40 35 35 70q-1 9 -14 27.5t-29 26.5l15 10q44 -28 49 -76q6 -44 -33 -78q-27 -18 -53.5 -35t-50.5 -32
q-43 -31 -67 -71q-34 -56 -34 -130q1 -93 52 -139q45 -40 119 -35q51 4 93.5 31t53.5 67q3 15 5 30q3 12 14 12q14 0 14 -20q0 -52 -55 -97q-58 -47 -133 -47z" />
    <glyph glyph-name="Agrave" unicode="&#xc0;" 
d="M582 139q16 -40 50.5 -77t56.5 -37l-2 -25q-69 2 -217 0v29q17 -2 27 0q12 2 28 20q23 26 23 60q0 26 -13 54l-33 103h-333l-91 -214l-14 -38q-6 -13 -15 -13q-15 0 -15 13q0 3 19 48l88 204l-121 -1q-20 0 -20 14q0 13 20 12q3 0 131 -1l213 510zM179 290h313l-133 407z
M238 994h75l185 -146h-76z" />
    <glyph glyph-name="Aacute" unicode="&#xc1;" 
d="M582 139q16 -40 50.5 -77t56.5 -37l-2 -25q-69 2 -217 0v29q17 -2 27 0q12 2 28 20q23 26 23 60q0 26 -13 54l-33 103h-333l-91 -214l-14 -38q-6 -13 -15 -13q-15 0 -15 13q0 3 19 48l88 204l-121 -1q-20 0 -20 14q0 13 20 12q3 0 131 -1l213 510zM179 290h313l-133 407z
M382 845h-76l185 146h75z" />
    <glyph glyph-name="Acircumflex" unicode="&#xc2;" 
d="M368 1010l146 -160h-27l-125 137l-122 -137h-30l145 160h13zM582 139q16 -40 50.5 -77t56.5 -37l-2 -25q-69 2 -217 0v29q17 -2 27 0q12 2 28 20q23 26 23 60q0 26 -13 54l-33 103h-333l-91 -214l-14 -38q-6 -13 -15 -13q-15 0 -15 13q0 3 19 48l88 204l-121 -1
q-20 0 -20 14q0 13 20 12q3 0 131 -1l213 510zM179 290h313l-133 407z" />
    <glyph glyph-name="Atilde" unicode="&#xc3;" 
d="M582 139q16 -40 50.5 -77t56.5 -37l-2 -25q-69 2 -217 0v29q17 -2 27 0q12 2 28 20q23 26 23 60q0 26 -13 54l-33 103h-333l-91 -214l-14 -38q-6 -13 -15 -13q-15 0 -15 13q0 3 19 48l88 204l-121 -1q-20 0 -20 14q0 13 20 12q3 0 131 -1l213 510zM179 290h313l-133 407z
M418 844q-12 0 -45.5 25t-58.5 25q-24 0 -41.5 -15t-34.5 -30l-25 1q1 28 37 58t62 30q27 0 58 -25t47 -25q59 -1 81 44l25 1q0 -25 -30 -55q-34 -34 -75 -34z" />
    <glyph glyph-name="Adieresis" unicode="&#xc4;" 
d="M490 870q0 -42 -42 -42q-41 0 -41 42q0 17 12 30t29 13t29.5 -13t12.5 -30zM330 870q0 -42 -42 -42q-41 0 -41 42q0 17 12 30t29 13t29.5 -13t12.5 -30zM582 139q16 -40 50.5 -77t56.5 -37l-2 -25q-69 2 -217 0v29q17 -2 27 0q12 2 28 20q23 26 23 60q0 26 -13 54
l-33 103h-333l-91 -214l-14 -38q-6 -13 -15 -13q-15 0 -15 13q0 3 19 48l88 204l-121 -1q-20 0 -20 14q0 13 20 12q3 0 131 -1l213 510zM179 290h313l-133 407z" />
    <glyph glyph-name="Aring" unicode="&#xc5;" 
d="M369 1030q40 0 68 -28.5t28 -68.5t-28 -68t-68 -28t-68 28t-28 68t28 68.5t68 28.5zM582 139q16 -40 50.5 -77t56.5 -37l-2 -25q-69 2 -217 0v29q17 -2 27 0q12 2 28 20q23 26 23 60q0 26 -13 54l-33 103h-333l-91 -214l-14 -38q-6 -13 -15 -13q-15 0 -15 13q0 3 19 48
l88 204l-121 -1q-20 0 -20 14q0 13 20 12q3 0 131 -1l213 510zM369 857q32 0 54.5 22t22.5 54t-22.5 54.5t-54.5 22.5t-54.5 -22.5t-22.5 -54.5t22.5 -54t54.5 -22zM179 290h313l-133 407z" />
    <glyph glyph-name="AE" unicode="&#xc6;" horiz-adv-x="723" 
d="M600 30q19 0 19 -15q0 -13 -21 -13q-251 0 -323 -2l-1 26q69 5 72 127q1 23 7 157l-188 -1l-110 -255q-7 -18 -14 -37q-6 -13 -14 -13q-15 0 -15 13q0 4 18 47l107 245l-117 -1q-20 -1 -20 13q0 12 20 12q3 0 127 -1l218 468q-2 -1 213 -1q19 0 19 -14q0 -13 -21 -13
q-7 0 -201 2v-440l210 3q19 0 19 -15q0 -13 -22 -13q-6 0 -207 2v-281h225zM353 726l-178 -394h178v394z" />
    <glyph glyph-name="Ccedilla" unicode="&#xc7;" horiz-adv-x="811" 
d="M684 96q-51 -50 -106 -72q-63 -25 -157 -26v-21q25 2 29 2q32 0 51.5 -16.5t19.5 -44.5q0 -32 -24 -51t-64 -19q-72 0 -72 29q0 9 12 9q2 0 13 -7.5t40 -7.5q41 0 41 45q0 42 -38 42q-9 0 -29 -2v42q-170 5 -283.5 115t-113.5 276q0 216 171 338q106 77 251 78
q212 1 321 -122q-10 -14 -33.5 -62t-33.5 -76l-33 9q27 52 27 94q0 36 -17 56q-78 78 -214 78q-163 0 -275 -104q-121 -114 -121 -298q0 -172 120 -272q107 -88 260 -88q132 0 221 76q35 30 61 68q15 24 30 47q1 1 3 1q4 0 8 -5t2 -9l-18 -38q-19 -35 -49 -64z" />
    <glyph glyph-name="Egrave" unicode="&#xc8;" horiz-adv-x="467" 
d="M344 29q19 0 19 -14q0 -13 -21 -13q-251 0 -323 -2l-1 26q34 3 53 38t19 89q1 48 2 251v234q-2 42 -21 79q-25 49 -71 52l1 31q36 -2 321 -2q19 0 19 -15q0 -13 -21 -13q-7 0 -201 2v-2v-436l209 2q19 0 19 -14t-21 -14q-7 0 -207 2v-280zM16 999h75l185 -146h-76z" />
    <glyph glyph-name="Eacute" unicode="&#xc9;" horiz-adv-x="467" 
d="M344 29q19 0 19 -14q0 -13 -21 -13q-251 0 -323 -2l-1 26q34 3 53 38t19 89q1 48 2 251v234q-2 42 -21 79q-25 49 -71 52l1 31q36 -2 321 -2q19 0 19 -15q0 -13 -21 -13q-7 0 -201 2v-2v-436l209 2q19 0 19 -14t-21 -14q-7 0 -207 2v-280zM205 845h-76l185 146h75z" />
    <glyph glyph-name="Ecircumflex" unicode="&#xca;" horiz-adv-x="467" 
d="M178 1010l146 -160h-27l-125 137l-122 -137h-30l145 160h13zM344 29q19 0 19 -14q0 -13 -21 -13q-251 0 -323 -2l-1 26q34 3 53 38t19 89q1 48 2 251v234q-2 42 -21 79q-25 49 -71 52l1 31q36 -2 321 -2q19 0 19 -15q0 -13 -21 -13q-7 0 -201 2v-2v-436l209 2
q19 0 19 -14t-21 -14q-7 0 -207 2v-280z" />
    <glyph glyph-name="Edieresis" unicode="&#xcb;" horiz-adv-x="467" 
d="M310 870q0 -42 -42 -42q-41 0 -41 42q0 17 12 30t29 13t29.5 -13t12.5 -30zM150 870q0 -42 -42 -42q-41 0 -41 42q0 17 12 30t29 13t29.5 -13t12.5 -30zM344 29q19 0 19 -14q0 -13 -21 -13q-251 0 -323 -2l-1 26q34 3 53 38t19 89q1 48 2 251v234q-2 42 -21 79
q-25 49 -71 52l1 31q36 -2 321 -2q19 0 19 -15q0 -13 -21 -13q-7 0 -201 2v-2v-436l209 2q19 0 19 -14t-21 -14q-7 0 -207 2v-280z" />
    <glyph glyph-name="Igrave" unicode="&#xcc;" horiz-adv-x="339" 
d="M218 775q-47 -2 -72 -43q-20 -32 -21 -72q-2 -35 -1 -280q1 -241 2.5 -270t19.5 -55q22 -31 54 -34l1 -20q-74 2 -183 -1l1 21q32 2 53 33q19 26 20 55t2 270q1 245 0 280q-2 40 -21 72q-26 41 -73 44v24h109q106 1 109 1v-25zM-77 991h75l185 -146h-76z" />
    <glyph glyph-name="Iacute" unicode="&#xcd;" horiz-adv-x="339" 
d="M218 775q-47 -2 -72 -43q-20 -32 -21 -72q-2 -35 -1 -280q1 -241 2.5 -270t19.5 -55q22 -31 54 -34l1 -20q-74 2 -183 -1l1 21q32 2 53 33q19 26 20 55t2 270q1 245 0 280q-2 40 -21 72q-26 41 -73 44v24h109q106 1 109 1v-25zM136 845h-76l185 146h75z" />
    <glyph glyph-name="Icircumflex" unicode="&#xce;" horiz-adv-x="339" 
d="M108 1010l146 -160h-27l-125 137l-122 -137h-30l145 160h13zM218 775q-47 -2 -72 -43q-20 -32 -21 -72q-2 -35 -1 -280q1 -241 2.5 -270t19.5 -55q22 -31 54 -34l1 -20q-74 2 -183 -1l1 21q32 2 53 33q19 26 20 55t2 270q1 245 0 280q-2 40 -21 72q-26 41 -73 44v24h109
q106 1 109 1v-25z" />
    <glyph glyph-name="Idieresis" unicode="&#xcf;" horiz-adv-x="339" 
d="M230 870q0 -42 -42 -42q-41 0 -41 42q0 17 12 30t29 13t29.5 -13t12.5 -30zM70 870q0 -42 -42 -42q-41 0 -41 42q0 17 12 30t29 13t29.5 -13t12.5 -30zM218 775q-47 -2 -72 -43q-20 -32 -21 -72q-2 -35 -1 -280q1 -241 2.5 -270t19.5 -55q22 -31 54 -34l1 -20
q-74 2 -183 -1l1 21q32 2 53 33q19 26 20 55t2 270q1 245 0 280q-2 40 -21 72q-26 41 -73 44v24h109q106 1 109 1v-25z" />
    <glyph glyph-name="Ntilde" unicode="&#xd1;" horiz-adv-x="687" 
d="M315 824q-12 0 -45.5 25t-58.5 25q-24 0 -41.5 -15t-34.5 -30l-25 1q1 28 37 58t62 30q27 0 58 -25t47 -25q59 -1 81 44l25 1q0 -25 -30 -55q-34 -34 -75 -34zM514 773q0 11 13 11q12 0 12 -9v-772q0 -9 -12 -9q-13 0 -13 10v375l-491 365l2 -744q0 -8 -9 -8
q-11 0 -11 11q0 3 -5 797q194 -143 514 -377v350z" />
    <glyph glyph-name="Ograve" unicode="&#xd2;" horiz-adv-x="912" 
d="M394 800q163 0 278.5 -117t115.5 -283t-115.5 -283t-278.5 -117t-278.5 117t-115.5 283t115.5 283t278.5 117zM394 24q153 0 262 110t109 266t-109 266t-262 110q-154 0 -262.5 -110t-108.5 -266t108.5 -266t262.5 -110zM274 991h75l185 -146h-76z" />
    <glyph glyph-name="Oacute" unicode="&#xd3;" horiz-adv-x="912" 
d="M394 800q163 0 278.5 -117t115.5 -283t-115.5 -283t-278.5 -117t-278.5 117t-115.5 283t115.5 283t278.5 117zM394 24q153 0 262 110t109 266t-109 266t-262 110q-154 0 -262.5 -110t-108.5 -266t108.5 -266t262.5 -110zM423 845h-76l185 146h75z" />
    <glyph glyph-name="Ocircumflex" unicode="&#xd4;" horiz-adv-x="912" 
d="M398 1010l146 -160h-27l-125 137l-122 -137h-30l145 160h13zM394 800q163 0 278.5 -117t115.5 -283t-115.5 -283t-278.5 -117t-278.5 117t-115.5 283t115.5 283t278.5 117zM394 24q153 0 262 110t109 266t-109 266t-262 110q-154 0 -262.5 -110t-108.5 -266t108.5 -266
t262.5 -110z" />
    <glyph glyph-name="Otilde" unicode="&#xd5;" horiz-adv-x="912" 
d="M394 800q163 0 278.5 -117t115.5 -283t-115.5 -283t-278.5 -117t-278.5 117t-115.5 283t115.5 283t278.5 117zM394 24q153 0 262 110t109 266t-109 266t-262 110q-154 0 -262.5 -110t-108.5 -266t108.5 -266t262.5 -110zM448 844q-12 0 -45.5 25t-58.5 25
q-24 0 -41.5 -15t-34.5 -30l-25 1q1 28 37 58t62 30q27 0 58 -25t47 -25q59 -1 81 44l25 1q0 -25 -30 -55q-34 -34 -75 -34z" />
    <glyph glyph-name="Odieresis" unicode="&#xd6;" horiz-adv-x="912" 
d="M510 870q0 -42 -42 -42q-41 0 -41 42q0 17 12 30t29 13t29.5 -13t12.5 -30zM350 870q0 -42 -42 -42q-41 0 -41 42q0 17 12 30t29 13t29.5 -13t12.5 -30zM394 800q163 0 278.5 -117t115.5 -283t-115.5 -283t-278.5 -117t-278.5 117t-115.5 283t115.5 283t278.5 117z
M394 24q153 0 262 110t109 266t-109 266t-262 110q-154 0 -262.5 -110t-108.5 -266t108.5 -266t262.5 -110z" />
    <glyph glyph-name="multiply" unicode="&#xd7;" horiz-adv-x="563" 
d="M408 701q35 -53 35 -129q0 -25 -4 -50q-36 -81 -72 -161q-37 -94 -40 -174q-3 -12 -20 -17l-176 3q-13 17 -16 54q-3 45 -8 58q-6 48 -58 150q-48 95 -48 151q0 46 25 92q55 98 166 122q143 7 216 -99zM324 99q2 -6 -4 -14t-6 -11q0 -5 10 -9q1 -4 1 -7q0 -13 -22 -20
l-169 3q-13 4 -10 24q12 7 3.5 26.5t6.5 27.5q-16 18 -7 30l11 7l179 -3q13 -16 3 -27q-7 -4 -7 -7t6 -9.5t5 -10.5zM242 0q-62 -2 -77 28h118q-6 -16 -41 -28zM107 603l6 62q6 35 28 53q-36 -9 -61.5 -42t-23.5 -69q25 -11 34 -11q10 0 17 7zM83 528.5q11 -3.5 17 -3.5
q8 0 14 4q-8 30 -7 40q-6 -4 -13 -4t-19.5 6.5t-18.5 7.5v-27q3 -2 4 -10t6.5 -9t16.5 -4.5zM290 116v10h-132l3 -14q44 -1 129 4zM259 68v14h-98l-3 -10q19 -4 50 -4q54 0 51 0z" />
    <glyph glyph-name="Oslash" unicode="&#xd8;" horiz-adv-x="900" 
d="M665 687q118 -117 118 -285q0 -164 -114.5 -280.5t-276.5 -116.5q-128 0 -232 77l-69 -82h-69l98 117q-120 117 -120 285q0 165 114.5 281.5t277.5 116.5q128 0 232 -78l58 69h69zM392 28q152 0 260 110t108 264q0 157 -110 267l-475 -569q97 -72 217 -72zM23 402
q0 -157 112 -267l474 569q-97 72 -217 72q-153 0 -261 -109.5t-108 -264.5z" />
    <glyph glyph-name="Ugrave" unicode="&#xd9;" horiz-adv-x="703" 
d="M544 786q0 15 13 15t13 -15v-322q0 -236 -50 -344q-55 -120 -185 -120q-128 0 -186 89q-57 86 -56 267l2 301q0 33 -28 73q-31 43 -67 45v25q18 -1 124 0q-7 -31 -6 -434q0 -184 56 -265q51 -74 163 -74q207 0 207 376v383zM168 991h75l185 -146h-76z" />
    <glyph glyph-name="Uacute" unicode="&#xda;" horiz-adv-x="703" 
d="M544 786q0 15 13 15t13 -15v-322q0 -236 -50 -344q-55 -120 -185 -120q-128 0 -186 89q-57 86 -56 267l2 301q0 33 -28 73q-31 43 -67 45v25q18 -1 124 0q-7 -31 -6 -434q0 -184 56 -265q51 -74 163 -74q207 0 207 376v383zM361 845h-76l185 146h75z" />
    <glyph glyph-name="Ucircumflex" unicode="&#xdb;" horiz-adv-x="703" 
d="M308 1010l146 -160h-27l-125 137l-122 -137h-30l145 160h13zM544 786q0 15 13 15t13 -15v-322q0 -236 -50 -344q-55 -120 -185 -120q-128 0 -186 89q-57 86 -56 267l2 301q0 33 -28 73q-31 43 -67 45v25q18 -1 124 0q-7 -31 -6 -434q0 -184 56 -265q51 -74 163 -74
q207 0 207 376v383z" />
    <glyph glyph-name="Udieresis" unicode="&#xdc;" horiz-adv-x="703" 
d="M450 870q0 -42 -42 -42q-41 0 -41 42q0 17 12 30t29 13t29.5 -13t12.5 -30zM290 870q0 -42 -42 -42q-41 0 -41 42q0 17 12 30t29 13t29.5 -13t12.5 -30zM544 786q0 15 13 15t13 -15v-322q0 -236 -50 -344q-55 -120 -185 -120q-128 0 -186 89q-57 86 -56 267l2 301
q0 33 -28 73q-31 43 -67 45v25q18 -1 124 0q-7 -31 -6 -434q0 -184 56 -265q51 -74 163 -74q207 0 207 376v383z" />
    <glyph glyph-name="Yacute" unicode="&#xdd;" horiz-adv-x="521" 
d="M306 125q1 -32 19 -64q22 -38 54 -41l1 -20q-86 2 -176 0l2 20q31 3 53 41q18 32 19 64q0 -3 -2 319q-52 91 -153 265q-37 61 -120 65l-3 26h103q8 -17 187 -328l215 324q4 3 14 2q9 -1 9 -5q0 -5 -101 -161q-94 -145 -124 -188q-3 -202 3 -319zM255 848h-76l185 146h75z
" />
    <glyph glyph-name="germandbls" unicode="&#xdf;" horiz-adv-x="446" 
d="M248 477q59 -32 86 -79q31 -54 31 -145q0 -44 -7 -101q-16 -67 -51 -107.5t-74 -40.5q-32 0 -51.5 23.5t-19.5 59.5q0 9 10 9q13 0 17 -9q6 -21 12.5 -41t27.5 -19q44 3 77 59q37 65 35 165q-2 78 -23 124q-26 55 -87 85q-14 7 -14 14q0 2 9 14q40 47 40 105q0 81 -8 112
q-15 68 -67 68q-29 0 -50 -22q-45 -50 -43 -190l6 -560q-52 0 -104 -1l1 20q40 3 54 10q19 9 19 33q2 57 2 340v195q0 78 21 136q24 66 65 66h26q104 0 104 -207q0 -65 -44 -116z" />
    <glyph glyph-name="agrave" unicode="&#xe0;" horiz-adv-x="614" 
d="M497 30l19 1v-31q-23 2 -48 2q-26 0 -53 -2l-1 64q-73 -62 -169 -62q-114 0 -179.5 72t-65.5 196q0 123 77.5 207t191.5 84q81 0 145 -55l-2 56l36 1l-3 -348q-2 -181 52 -185zM415 104v363q-67 67 -152 67q-100 0 -168.5 -75.5t-68.5 -188.5t57 -178t155 -65
q95 0 177 77zM125 800h75l185 -146h-76z" />
    <glyph glyph-name="aacute" unicode="&#xe1;" horiz-adv-x="598" 
d="M497 30l19 1v-31q-23 2 -48 2q-26 0 -53 -2l-1 64q-73 -62 -169 -62q-114 0 -179.5 72t-65.5 196q0 123 77.5 207t191.5 84q81 0 145 -55l-2 56l36 1l-3 -348q-2 -181 52 -185zM415 104v363q-67 67 -152 67q-100 0 -168.5 -75.5t-68.5 -188.5t57 -178t155 -65
q95 0 177 77zM261 654h-76l185 146h75z" />
    <glyph glyph-name="acircumflex" unicode="&#xe2;" horiz-adv-x="648" 
d="M268 800l146 -160h-27l-125 137l-122 -137h-30l145 160h13zM497 30l19 1v-31q-23 2 -48 2q-26 0 -53 -2l-1 64q-73 -62 -169 -62q-114 0 -179.5 72t-65.5 196q0 123 77.5 207t191.5 84q81 0 145 -55l-2 56l36 1l-3 -348q-2 -181 52 -185zM415 104v363q-67 67 -152 67
q-100 0 -168.5 -75.5t-68.5 -188.5t57 -178t155 -65q95 0 177 77z" />
    <glyph glyph-name="atilde" unicode="&#xe3;" horiz-adv-x="614" 
d="M497 30l19 1v-31q-23 2 -48 2q-26 0 -53 -2l-1 64q-73 -62 -169 -62q-114 0 -179.5 72t-65.5 196q0 123 77.5 207t191.5 84q81 0 145 -55l-2 56l36 1l-3 -348q-2 -181 52 -185zM415 104v363q-67 67 -152 67q-100 0 -168.5 -75.5t-68.5 -188.5t57 -178t155 -65
q95 0 177 77zM334 704q-12 0 -45.5 25t-58.5 25q-24 0 -41.5 -15t-34.5 -30l-25 1q1 28 37 58t62 30q27 0 58 -25t47 -25q59 -1 81 44l25 1q0 -25 -30 -55q-34 -34 -75 -34z" />
    <glyph glyph-name="adieresis" unicode="&#xe4;" horiz-adv-x="611" 
d="M364 710q0 -42 -43 -42q-41 0 -41 42q0 17 12.5 29.5t28.5 12.5q17 0 30 -12.5t13 -29.5zM204 710q0 -42 -43 -42q-41 0 -41 42q0 17 12.5 29.5t28.5 12.5q17 0 30 -12.5t13 -29.5zM497 30l19 1v-31q-23 2 -48 2q-26 0 -53 -2l-1 64q-73 -62 -169 -62q-114 0 -179.5 72
t-65.5 196q0 123 77.5 207t191.5 84q81 0 145 -55l-2 56l36 1l-3 -348q-2 -181 52 -185zM415 104v363q-67 67 -152 67q-100 0 -168.5 -75.5t-68.5 -188.5t57 -178t155 -65q95 0 177 77z" />
    <glyph glyph-name="aring" unicode="&#xe5;" horiz-adv-x="648" 
d="M246 800q40 0 68.5 -28t28.5 -68t-28.5 -68.5t-68.5 -28.5t-68 28.5t-28 68.5t28 68t68 28zM497 30l19 1v-31q-23 2 -48 2q-26 0 -53 -2l-1 64q-73 -62 -169 -62q-114 0 -179.5 72t-65.5 196q0 123 77.5 207t191.5 84q81 0 145 -55l-2 56l36 1l-3 -348q-2 -181 52 -185z
M246 627q32 0 54.5 22.5t22.5 54.5t-22.5 54t-54.5 22t-54.5 -22t-22.5 -54t22.5 -54.5t54.5 -22.5zM415 104v363q-67 67 -152 67q-100 0 -168.5 -75.5t-68.5 -188.5t57 -178t155 -65q95 0 177 77z" />
    <glyph glyph-name="ae" unicode="&#xe6;" horiz-adv-x="1042" 
d="M912 160q2 3 9 -3t5 -10q-6 -13 -13 -26q-13 -24 -34 -44q-77 -74 -188 -74q-88 0 -150 42.5t-90 116.5l-1 -161q-11 1 -32 -1l-1 65q-74 -61 -170 -61q-115 0 -181 73t-66 198q0 124 78 209t193 85q83 0 147 -56l-2 57h37l-1 -168q56 151 228 160q250 12 253 -245
q-58 -4 -466 0q-2 -23 -2 -42q0 -107 64 -178t162 -71q94 0 157 54q25 21 43 48q10 16 21 32zM673 530q-155 -7 -205 -188q88 -2 429 -3q0 202 -224 191zM419 107v366q-68 69 -153 69q-102 0 -171 -76t-69 -191q0 -114 57.5 -179.5t156.5 -65.5q96 0 179 77z" />
    <glyph glyph-name="ccedilla" unicode="&#xe7;" horiz-adv-x="618" 
d="M505 151q2 3 9 -3t5 -10q-6 -13 -13 -26q-13 -24 -34 -44q-68 -66 -176 -68v-23q25 3 28 3q32 0 51 -17t19 -44q0 -31 -23.5 -50t-63.5 -19q-71 0 -71 29q0 9 13 9q1 0 12 -8t39 -8q41 0 41 45q0 41 -37 41q-9 0 -29 -2v44q-118 3 -196.5 79.5t-78.5 191.5q0 150 119 234
q74 53 174 54q149 1 229 -89q-26 -35 -47 -95l-29 10q15 35 15 63t-13 44q-18 18 -61.5 31.5t-85.5 13.5q-97 0 -179 -67q-95 -76 -95 -199q0 -104 80 -177q77 -72 178 -72q100 0 156 49q25 21 43 48q10 16 21 32z" />
    <glyph glyph-name="egrave" unicode="&#xe8;" horiz-adv-x="560" 
d="M482 158q3 3 10 -3.5t5 -9.5q-6 -13 -13 -26q-13 -24 -35 -45q-77 -74 -188 -74q-120 0 -190.5 76t-70.5 197q0 103 42 174q62 106 207 114q252 15 255 -245q-58 -5 -468 -1q-3 -23 -3 -42q0 -107 64.5 -178.5t163.5 -71.5q95 0 158 54q24 21 43 48q10 17 20 33zM242 530
q-155 -8 -205 -189q89 -2 430 -3q0 203 -225 192zM107 800h75l185 -146h-76z" />
    <glyph glyph-name="eacute" unicode="&#xe9;" horiz-adv-x="609" 
d="M482 158q3 3 10 -3.5t5 -9.5q-6 -13 -13 -26q-13 -24 -35 -45q-77 -74 -188 -74q-120 0 -190.5 76t-70.5 197q0 103 42 174q62 106 207 114q252 15 255 -245q-58 -5 -468 -1q-3 -23 -3 -42q0 -107 64.5 -178.5t163.5 -71.5q95 0 158 54q24 21 43 48q10 17 20 33zM242 530
q-155 -8 -205 -189q89 -2 430 -3q0 203 -225 192zM261 654h-76l185 146h75z" />
    <glyph glyph-name="ecircumflex" unicode="&#xea;" horiz-adv-x="548" 
d="M268 800l146 -160h-27l-125 137l-122 -137h-30l145 160h13zM482 158q3 3 10 -3.5t5 -9.5q-6 -13 -13 -26q-13 -24 -35 -45q-77 -74 -188 -74q-120 0 -190.5 76t-70.5 197q0 103 42 174q62 106 207 114q252 15 255 -245q-58 -5 -468 -1q-3 -23 -3 -42q0 -107 64.5 -178.5
t163.5 -71.5q95 0 158 54q24 21 43 48q10 17 20 33zM242 530q-155 -8 -205 -189q89 -2 430 -3q0 203 -225 192z" />
    <glyph glyph-name="edieresis" unicode="&#xeb;" horiz-adv-x="556" 
d="M364 710q0 -42 -43 -42q-41 0 -41 42q0 17 12.5 29.5t28.5 12.5q17 0 30 -12.5t13 -29.5zM204 710q0 -42 -43 -42q-41 0 -41 42q0 17 12.5 29.5t28.5 12.5q17 0 30 -12.5t13 -29.5zM482 158q3 3 10 -3.5t5 -9.5q-6 -13 -13 -26q-13 -24 -35 -45q-77 -74 -188 -74
q-120 0 -190.5 76t-70.5 197q0 103 42 174q62 106 207 114q252 15 255 -245q-58 -5 -468 -1q-3 -23 -3 -42q0 -107 64.5 -178.5t163.5 -71.5q95 0 158 54q24 21 43 48q10 17 20 33zM242 530q-155 -8 -205 -189q89 -2 430 -3q0 203 -225 192z" />
    <glyph glyph-name="igrave" unicode="&#xec;" horiz-adv-x="329" 
d="M208 534q-47 -2 -72 -39q-19 -28 -21 -66q-6 -152 2 -314q1 -31 19 -59q22 -32 54 -35l1 -20q-69 2 -173 -1l1 20q32 3 53 36q18 28 20 58q7 162 1 314q-1 38 -21 67q-25 36 -72 39v24h104q101 1 104 1v-25zM-21 800h75l185 -146h-76z" />
    <glyph glyph-name="iacute" unicode="&#xed;" horiz-adv-x="326" 
d="M208 534q-47 -2 -72 -39q-19 -28 -21 -66q-6 -152 2 -314q1 -31 19 -59q22 -32 54 -35l1 -20q-69 2 -173 -1l1 20q32 3 53 36q18 28 20 58q7 162 1 314q-1 38 -21 67q-25 36 -72 39v24h104q101 1 104 1v-25zM74 654h-76l185 146h75z" />
    <glyph glyph-name="icircumflex" unicode="&#xee;" horiz-adv-x="328" 
d="M108 800l146 -160h-27l-125 137l-122 -137h-30l145 160h13zM208 534q-47 -2 -72 -39q-19 -28 -21 -66q-6 -152 2 -314q1 -31 19 -59q22 -32 54 -35l1 -20q-69 2 -173 -1l1 20q32 3 53 36q18 28 20 58q7 162 1 314q-1 38 -21 67q-25 36 -72 39v24h104q101 1 104 1v-25z
" />
    <glyph glyph-name="idieresis" unicode="&#xef;" horiz-adv-x="329" 
d="M224 710q0 -42 -43 -42q-41 0 -41 42q0 17 12.5 29.5t28.5 12.5q17 0 30 -12.5t13 -29.5zM64 710q0 -42 -43 -42q-41 0 -41 42q0 17 12.5 29.5t28.5 12.5q17 0 30 -12.5t13 -29.5zM208 534q-47 -2 -72 -39q-19 -28 -21 -66q-6 -152 2 -314q1 -31 19 -59q22 -32 54 -35
l1 -20q-69 2 -173 -1l1 20q32 3 53 36q18 28 20 58q7 162 1 314q-1 38 -21 67q-25 36 -72 39v24h104q101 1 104 1v-25z" />
    <glyph glyph-name="ntilde" unicode="&#xf1;" horiz-adv-x="654" 
d="M315 704q-12 0 -45.5 25t-58.5 25q-24 0 -41.5 -15t-34.5 -30l-25 1q1 28 37 58t62 30q27 0 58 -25t47 -25q59 -1 81 44l25 1q0 -25 -30 -55q-34 -34 -75 -34zM507 32l32 -1v-31q-32 2 -141 0q-1 29 3 404q2 133 -139 133q-29 0 -68 -13q-45 -15 -72 -40l-1 -483
q-56 -3 -113 -1v31q34 3 58 20q30 21 30 59q1 251 -1 340q-2 44 -30 57q-17 7 -65 7v33q54 7 70.5 19.5t31.5 24.5q20 10 20 -19v-61q28 24 76 38q42 13 78 13q75 0 105 -25q46 -39 44 -153q-4 -129 -1 -249q0 -68 32 -91q17 -12 51 -12z" />
    <glyph glyph-name="ograve" unicode="&#xf2;" horiz-adv-x="588" 
d="M267 561q111 0 189.5 -82t78.5 -198q0 -117 -78.5 -199t-189.5 -82q-110 0 -188.5 82t-78.5 199q0 116 78.5 198t188.5 82zM267 22q102 0 173.5 75.5t71.5 181.5q0 107 -71.5 182t-173.5 75q-101 0 -172.5 -75t-71.5 -182q0 -106 71.5 -181.5t172.5 -75.5zM138 800h75
l185 -146h-76z" />
    <glyph glyph-name="oacute" unicode="&#xf3;" horiz-adv-x="592" 
d="M267 561q111 0 189.5 -82t78.5 -198q0 -117 -78.5 -199t-189.5 -82q-110 0 -188.5 82t-78.5 199q0 116 78.5 198t188.5 82zM267 22q102 0 173.5 75.5t71.5 181.5q0 107 -71.5 182t-173.5 75q-101 0 -172.5 -75t-71.5 -182q0 -106 71.5 -181.5t172.5 -75.5zM272 654h-76
l185 146h75z" />
    <glyph glyph-name="ocircumflex" unicode="&#xf4;" horiz-adv-x="591" 
d="M268 800l146 -160h-27l-125 137l-122 -137h-30l145 160h13zM267 561q111 0 189.5 -82t78.5 -198q0 -117 -78.5 -199t-189.5 -82q-110 0 -188.5 82t-78.5 199q0 116 78.5 198t188.5 82zM267 22q102 0 173.5 75.5t71.5 181.5q0 107 -71.5 182t-173.5 75q-101 0 -172.5 -75
t-71.5 -182q0 -106 71.5 -181.5t172.5 -75.5z" />
    <glyph glyph-name="otilde" unicode="&#xf5;" horiz-adv-x="590" 
d="M315 704q-12 0 -45.5 25t-58.5 25q-24 0 -41.5 -15t-34.5 -30l-25 1q1 28 37 58t62 30q27 0 58 -25t47 -25q59 -1 81 44l25 1q0 -25 -30 -55q-34 -34 -75 -34zM267 561q111 0 189.5 -82t78.5 -198q0 -117 -78.5 -199t-189.5 -82q-110 0 -188.5 82t-78.5 199
q0 116 78.5 198t188.5 82zM267 22q102 0 173.5 75.5t71.5 181.5q0 107 -71.5 182t-173.5 75q-101 0 -172.5 -75t-71.5 -182q0 -106 71.5 -181.5t172.5 -75.5z" />
    <glyph glyph-name="odieresis" unicode="&#xf6;" horiz-adv-x="591" 
d="M384 710q0 -42 -43 -42q-41 0 -41 42q0 17 12.5 29.5t28.5 12.5q17 0 30 -12.5t13 -29.5zM224 710q0 -42 -43 -42q-41 0 -41 42q0 17 12.5 29.5t28.5 12.5q17 0 30 -12.5t13 -29.5zM267 561q111 0 189.5 -82t78.5 -198q0 -117 -78.5 -199t-189.5 -82q-110 0 -188.5 82
t-78.5 199q0 116 78.5 198t188.5 82zM267 22q102 0 173.5 75.5t71.5 181.5q0 107 -71.5 182t-173.5 75q-101 0 -172.5 -75t-71.5 -182q0 -106 71.5 -181.5t172.5 -75.5z" />
    <glyph glyph-name="divide" unicode="&#xf7;" horiz-adv-x="586" 
d="M288 535q26 0 44 -18.5t18 -44.5t-18 -44.5t-44 -18.5t-44.5 18.5t-18.5 44.5t18.5 44.5t44.5 18.5zM0 293h587v-33h-587v33zM288 144q26 0 44 -18.5t18 -44.5t-18 -44t-44 -18t-44.5 18t-18.5 44t18.5 44.5t44.5 18.5z" />
    <glyph glyph-name="oslash" unicode="&#xf8;" horiz-adv-x="711" 
d="M632 633l-130 -155q77 -82 77 -196q0 -116 -77.5 -197.5t-187.5 -81.5q-89 0 -160 57l-84 -100h-70l115 138q-67 79 -67 184q0 115 78 196.5t188 81.5q81 0 148 -47l100 120h70zM557 280q0 105 -70 179l-319 -382q65 -52 146 -52q101 0 172 75t71 180zM71 280
q0 -94 58 -165l317 379q-60 42 -132 42q-101 0 -172 -75t-71 -181z" />
    <glyph glyph-name="ugrave" unicode="&#xf9;" horiz-adv-x="673" 
d="M457 189q0 -65 27 -110q24 -41 55 -44l3 -35h-106v56q-59 -50 -139 -50q-76 0 -113 29q-54 42 -50 156q2 67 0 177q-6 158 -96 158q-9 0 -18 -1v19q46 14 139 31l-3 -412q-1 -133 139 -133q30 0 68 12q45 15 72 40l1 320q0 108 -92 109v30q17 2 45 16q32 16 48 20
q4 2 7 2q17 0 17 -52q0 -14 -1 -33q-1 -10 -2 -21q-3 -89 -1 -284zM125 800h75l185 -146h-76z" />
    <glyph glyph-name="uacute" unicode="&#xfa;" horiz-adv-x="643" 
d="M437 189q0 -65 27 -110q24 -41 55 -44l3 -35h-106v56q-59 -50 -139 -50q-76 0 -113 29q-54 42 -50 156q2 67 0 177q-6 158 -96 158q-9 0 -18 -1v19q46 14 139 31l-3 -412q-1 -133 139 -133q30 0 68 12q45 15 72 40l1 320q0 108 -92 109v30q17 2 45 16q32 16 48 20
q4 2 7 2q17 0 17 -52q0 -14 -1 -33q-1 -10 -2 -21q-3 -89 -1 -284zM272 654h-76l185 146h75z" />
    <glyph glyph-name="ucircumflex" unicode="&#xfb;" horiz-adv-x="684" 
d="M298 800l146 -160h-27l-125 137l-122 -137h-30l145 160h13zM467 189q0 -65 27 -110q24 -41 55 -44l3 -35h-106v56q-59 -50 -139 -50q-76 0 -113 29q-54 42 -50 156q2 67 0 177q-6 158 -96 158q-9 0 -18 -1v19q46 14 139 31l-3 -412q-1 -133 139 -133q30 0 68 12
q45 15 72 40l1 320q0 108 -92 109v30q17 2 45 16q32 16 48 20q4 2 7 2q17 0 17 -52q0 -14 -1 -33q-1 -10 -2 -21q-3 -89 -1 -284z" />
    <glyph glyph-name="udieresis" unicode="&#xfc;" horiz-adv-x="653" 
d="M384 710q0 -42 -43 -42q-41 0 -41 42q0 17 12.5 29.5t28.5 12.5q17 0 30 -12.5t13 -29.5zM224 710q0 -42 -43 -42q-41 0 -41 42q0 17 12.5 29.5t28.5 12.5q17 0 30 -12.5t13 -29.5zM437 189q0 -65 27 -110q24 -41 55 -44l3 -35h-106v56q-59 -50 -139 -50q-76 0 -113 29
q-54 42 -50 156q2 67 0 177q-6 158 -96 158q-9 0 -18 -1v19q46 14 139 31l-3 -412q-1 -133 139 -133q30 0 68 12q45 15 72 40l1 320q0 108 -92 109v30q17 2 45 16q32 16 48 20q4 2 7 2q17 0 17 -52q0 -14 -1 -33q-1 -10 -2 -21q-3 -89 -1 -284z" />
    <glyph glyph-name="yacute" unicode="&#xfd;" horiz-adv-x="587" 
d="M433 461q-2 -52 1 -272q3 -210 2 -215q-12 -87 -39 -122q-39 -52 -135 -52q-25 0 -61.5 11.5t-36.5 19.5q0 11 11 11q3 0 38 -10t50 -10q45 -3 78 14q77 39 77 170q0 34 -6 75q-27 -23 -81 -40q-49 -16 -82 -16q-69 0 -100 28q-44 40 -41 149q1 58 -2 162q-3 163 -85 163
q-10 0 -21 -3v18q44 13 132 28l-2 -396q-1 -126 131 -126q28 0 73 16q52 18 78 42l-4 325q-1 80 -93 81v29q28 3 107 25q12 3 12 -16q-1 -44 -1 -89zM268 654h-76l185 146h75z" />
    <glyph glyph-name="ydieresis" unicode="&#xff;" horiz-adv-x="583" 
d="M380 690q0 -42 -42 -42q-41 0 -41 42q0 17 12 30t29 13t29.5 -13t12.5 -30zM220 690q0 -42 -42 -42q-41 0 -41 42q0 17 12 30t29 13t29.5 -13t12.5 -30zM433 461q-2 -52 1 -272q3 -210 2 -215q-12 -87 -39 -122q-39 -52 -135 -52q-25 0 -61.5 11.5t-36.5 19.5q0 11 11 11
q3 0 38 -10t50 -10q45 -3 78 14q77 39 77 170q0 34 -6 75q-27 -23 -81 -40q-49 -16 -82 -16q-69 0 -100 28q-44 40 -41 149q1 58 -2 162q-3 163 -85 163q-10 0 -21 -3v18q44 13 132 28l-2 -396q-1 -126 131 -126q28 0 73 16q52 18 78 42l-4 325q-1 80 -93 81v29q28 3 107 25
q12 3 12 -16q-1 -44 -1 -89z" />
    <glyph glyph-name="Abreve" unicode="&#x102;" 
d="M365 894q88 0 109 110h20q-22 -127 -129 -127q-108 0 -131 127h20q22 -110 111 -110zM582 139q16 -40 50.5 -77t56.5 -37l-2 -25q-69 2 -217 0v29q17 -2 27 0q12 2 28 20q23 26 23 60q0 26 -13 54l-33 103h-333l-91 -214l-14 -38q-6 -13 -15 -13q-15 0 -15 13q0 3 19 48
l88 204l-121 -1q-20 0 -20 14q0 13 20 12q3 0 131 -1l213 510zM179 290h313l-133 407z" />
    <glyph glyph-name="abreve" unicode="&#x103;" horiz-adv-x="601" 
d="M274 657q88 0 109 110h20q-22 -127 -129 -127q-108 0 -131 127h20q22 -110 111 -110zM497 30l19 1v-31q-23 2 -48 2q-26 0 -53 -2l-1 64q-73 -62 -169 -62q-114 0 -179.5 72t-65.5 196q0 123 77.5 207t191.5 84q81 0 145 -55l-2 56l36 1l-3 -348q-2 -181 52 -185z
M415 104v363q-67 67 -152 67q-100 0 -168.5 -75.5t-68.5 -188.5t57 -178t155 -65q95 0 177 77z" />
    <glyph glyph-name="Dcroat" unicode="&#x110;" horiz-adv-x="778" 
d="M40 420h54v234q-2 41 -21 74q-26 45 -73 47v25q17 -1 46 -1l126 -1q162 0 238 -32q118 -49 180.5 -142.5t62.5 -216.5q0 -231 -189 -344q-96 -58 -230 -60l-216 -3l1 21q31 2 54 47q19 39 19 71q2 50 2 251h-125zM392 54q110 44 172.5 136.5t62.5 216.5q0 122 -64 211.5
t-184 133.5q-96 29 -258 25v-357h103l-22 -30h-81v-365q168 -7 271 29z" />
    <glyph glyph-name="dcroat" unicode="&#x111;" horiz-adv-x="604" 
d="M451 159q0 -49 28 -87q27 -34 57 -37v-35q-57 -2 -113 0l-1 57q-68 -56 -160 -56q-114 0 -188 84t-74 213q0 120 70.5 195.5t177.5 75.5q98 0 174 -60l-1 104h-128l71 30h57q-3 40 -26 63q-25 26 -59 26v31q18 2 48 16q38 16 51 20q15 4 17 -26q0 -7 -1 -78v-52h97
l-22 -30h-75v-454zM423 103v364q-74 76 -180 76q-96 0 -156 -68t-60 -177q0 -116 64.5 -192t162.5 -76q105 0 169 73z" />
    <glyph glyph-name="Itilde" unicode="&#x128;" horiz-adv-x="339" 
d="M218 775q-47 -2 -72 -43q-20 -32 -21 -72q-2 -35 -1 -280q1 -241 2.5 -270t19.5 -55q22 -31 54 -34l1 -20q-74 2 -183 -1l1 21q32 2 53 33q19 26 20 55t2 270q1 245 0 280q-2 40 -21 72q-26 41 -73 44v24h109q106 1 109 1v-25zM178 844q-12 0 -45.5 25t-58.5 25
q-24 0 -41.5 -15t-34.5 -30l-25 1q1 28 37 58t62 30q27 0 58 -25t47 -25q59 -1 81 44l25 1q0 -25 -30 -55q-34 -34 -75 -34z" />
    <glyph glyph-name="itilde" unicode="&#x129;" horiz-adv-x="329" 
d="M208 534q-47 -2 -72 -39q-19 -28 -21 -66q-6 -152 2 -314q1 -31 19 -59q22 -32 54 -35l1 -20q-69 2 -173 -1l1 20q32 3 53 36q18 28 20 58q7 162 1 314q-1 38 -21 67q-25 36 -72 39v24h104q101 1 104 1v-25zM149 704q-12 0 -45.5 25t-58.5 25q-24 0 -41.5 -15t-34.5 -30
l-25 1q1 28 37 58t62 30q27 0 58 -25t47 -25q59 -1 81 44l25 1q0 -25 -30 -55q-34 -34 -75 -34z" />
    <glyph glyph-name="dotlessi" unicode="&#x131;" horiz-adv-x="328" 
d="M208 534q-47 -2 -72 -39q-19 -28 -21 -66q-6 -152 2 -314q1 -31 19 -59q22 -32 54 -35l1 -20q-69 2 -173 -1l1 20q32 3 53 36q18 28 20 58q7 162 1 314q-1 38 -21 67q-25 36 -72 39v24h104q101 1 104 1v-25z" />
    <glyph glyph-name="OE" unicode="&#x152;" horiz-adv-x="1092" 
d="M969 31q19 0 19 -15q0 -13 -21 -13q-213 0 -325 -3l-1 27q39 3 53 10q18 9 20 32v111q-53 -80 -137 -127q-87 -48 -187 -48q-161 0 -275.5 116t-114.5 281q0 164 114.5 280t275.5 116q100 0 188 -48q84 -47 137 -129l1 178q-16 1 232 1q19 0 19 -14t-22 -14q-6 0 -202 -2
l-1 -433l212 3q19 0 19 -15q0 -13 -21 -13q-7 0 -210 2l-1 -285zM390 29q104 0 191 54t134 144v348q-47 90 -132 144q-88 55 -193 55q-152 0 -259.5 -109t-107.5 -263q0 -155 107.5 -264t259.5 -109z" />
    <glyph glyph-name="oe" unicode="&#x153;" horiz-adv-x="1138" 
d="M1003 160q3 3 10 -3.5t5 -9.5q-6 -14 -13 -27q-14 -24 -35 -45q-78 -75 -191 -75q-98 0 -164.5 52t-88.5 141q-27 -85 -97.5 -139t-158.5 -54q-112 0 -191 83t-79 201q0 117 79 200t191 83q89 0 160 -55t97 -141q46 186 241 196q254 13 257 -248q-58 -5 -473 -1
q-2 -23 -2 -42q0 -108 65 -180t165 -72q95 0 159 54q25 21 43 49q11 16 21 33zM761 535q-157 -8 -208 -191q90 -2 435 -3q0 205 -227 194zM270 23q97 0 168 69t79 169l-1 15q0 10 1 24q-7 102 -78 172t-169 70q-102 0 -174.5 -76t-72.5 -184q0 -107 72.5 -183t174.5 -76z
" />
    <glyph glyph-name="Utilde" unicode="&#x168;" horiz-adv-x="703" 
d="M544 786q0 15 13 15t13 -15v-322q0 -236 -50 -344q-55 -120 -185 -120q-128 0 -186 89q-57 86 -56 267l2 301q0 33 -28 73q-31 43 -67 45v25q18 -1 124 0q-7 -31 -6 -434q0 -184 56 -265q51 -74 163 -74q207 0 207 376v383zM396 844q-12 0 -45.5 25t-58.5 25
q-24 0 -41.5 -15t-34.5 -30l-25 1q1 28 37 58t62 30q27 0 58 -25t47 -25q59 -1 81 44l25 1q0 -25 -30 -55q-34 -34 -75 -34z" />
    <glyph glyph-name="utilde" unicode="&#x169;" horiz-adv-x="593" 
d="M437 189q0 -65 27 -110q24 -41 55 -44l3 -35h-106v56q-59 -50 -139 -50q-76 0 -113 29q-54 42 -50 156q2 67 0 177q-6 158 -96 158q-9 0 -18 -1v19q46 14 139 31l-3 -412q-1 -133 139 -133q30 0 68 12q45 15 72 40l1 320q0 108 -92 109v30q17 2 45 16q32 16 48 20
q4 2 7 2q17 0 17 -52q0 -14 -1 -33q-1 -10 -2 -21q-3 -89 -1 -284zM346 704q-12 0 -45.5 25t-58.5 25q-24 0 -41.5 -15t-34.5 -30l-25 1q1 28 37 58t62 30q27 0 58 -25t47 -25q59 -1 81 44l25 1q0 -25 -30 -55q-34 -34 -75 -34z" />
    <glyph glyph-name="Ydieresis" unicode="&#x178;" horiz-adv-x="521" 
d="M410 870q0 -42 -42 -42q-41 0 -41 42q0 17 12 30t29 13t29.5 -13t12.5 -30zM250 870q0 -42 -42 -42q-41 0 -41 42q0 17 12 30t29 13t29.5 -13t12.5 -30zM306 125q1 -32 19 -64q22 -38 54 -41l1 -20q-86 2 -176 0l2 20q31 3 53 41q18 32 19 64q0 -3 -2 319
q-52 91 -153 265q-37 61 -120 65l-3 26h103q8 -17 187 -328l215 324q4 3 14 2q9 -1 9 -5q0 -5 -101 -161q-94 -145 -124 -188q-3 -202 3 -319z" />
    <glyph glyph-name="florin" unicode="&#x192;" horiz-adv-x="513" 
d="M351 799q23 -4 38.5 -18t14.5 -25q-2 -12 -12 -10q-3 0 -13 13t-26 16q-8 1 -14 1q-20 0 -28 -26q-8 -22 -20 -109q-5 -46 -20 -186h100v-17h-102q-8 -71 -23 -184q-21 -169 -40 -242q-17 -69 -57.5 -109t-87.5 -40q-21 0 -44 12q-27 14 -25 32q2 12 12 10q10 -10 45 -28
q10 -2 19 -2q38 0 71.5 35.5t48.5 102.5q12 93 26 196q0 4 27 217h-109v17h111q16 128 26 197q15 99 20 115q11 34 43 34q8 0 19 -2z" />
    <glyph glyph-name="Ohorn" unicode="&#x1a0;" horiz-adv-x="912" 
d="M394 800q163 0 278 -117q12 -12 23 -25q27 15 34 42h-23v100h51v-59q-1 -72 -49 -99q80 -104 80 -242q0 -166 -115.5 -283t-278.5 -117t-278.5 117t-115.5 283t115.5 283t278.5 117zM394 24q153 0 262 110t109 266t-109 266t-262 110q-154 0 -262.5 -110t-108.5 -266
t108.5 -266t262.5 -110z" />
    <glyph glyph-name="ohorn" unicode="&#x1a1;" horiz-adv-x="603" 
d="M267 561q111 0 189 -82q9 -10 17 -19q22 14 28 40h-23v75h51v-34q-1 -72 -43 -99q49 -70 49 -161q0 -117 -78.5 -199t-189.5 -82q-110 0 -188.5 82t-78.5 199q0 116 78.5 198t188.5 82zM267 22q102 0 173.5 75.5t71.5 181.5q0 107 -71.5 182t-173.5 75q-101 0 -172.5 -75
t-71.5 -182q0 -106 71.5 -181.5t172.5 -75.5z" />
    <glyph glyph-name="Uhorn" unicode="&#x1af;" horiz-adv-x="705" 
d="M544 786q0 15 13 15t13 -15v-132q37 14 45 46h-23v100h51v-59q-1 -86 -69 -108l-4 -2v-167q0 -236 -50 -344q-55 -120 -185 -120q-128 0 -186 89q-57 86 -56 267l2 301q0 33 -28 73q-31 43 -67 45v25q18 -1 124 0q-7 -31 -6 -434q0 -184 56 -265q51 -74 163 -74
q207 0 207 376v383z" />
    <glyph glyph-name="uhorn" unicode="&#x1b0;" horiz-adv-x="593" 
d="M437 189q0 -65 27 -110q24 -41 55 -44l3 -35h-106v56q-59 -50 -139 -50q-76 0 -113 29q-54 42 -50 156q2 67 0 177q-6 158 -96 158q-9 0 -18 -1v19q46 14 139 31l-3 -412q-1 -133 139 -133q30 0 68 12q45 15 72 40l1 320q0 108 1 168q8 8 19 0q4 -11 0 -120q38 18 46 50
h-23v75h51v-34q-1 -86 -74 -116q-1 -87 1 -236z" />
    <glyph glyph-name="uni01F0" unicode="&#x1f0;" horiz-adv-x="440" 
d="M253 667q-21 0 -36 15.5t-15 37.5q0 21 15 36.5t36 15.5t36.5 -15.5t15.5 -36.5q0 -22 -15.5 -37.5t-36.5 -15.5zM302 549l-18 -173v-334q0 -223 -178 -240q-26 -3 -66 10.5t-40 22.5q0 12 11 12q4 0 42 -10.5t54 -10.5q61 -2 104 51q53 65 51 190l-3 297q-1 86 -60 113
q-27 12 -96 12v34q120 16 178 45q11 5 16 -1.5t5 -17.5zM221 657q88 0 109 110h20q-22 -127 -129 -127q-108 0 -131 127h20q22 -110 111 -110z" />
    <glyph glyph-name="circumflex" unicode="&#x2c6;" horiz-adv-x="400" 
d="M158 800l146 -160h-27l-125 137l-122 -137h-30l145 160h13z" />
    <glyph glyph-name="caron" unicode="&#x2c7;" horiz-adv-x="406" 
d="M131 657q88 0 109 110h20q-22 -127 -129 -127q-108 0 -131 127h20q22 -110 111 -110z" />
    <glyph glyph-name="breve" unicode="&#x2d8;" horiz-adv-x="348" 
d="M136 655q88 0 109 110h20q-22 -127 -129 -127q-108 0 -131 127h20q22 -110 111 -110z" />
    <glyph glyph-name="dotaccent" unicode="&#x2d9;" horiz-adv-x="78" 
d="M84 710q0 -42 -43 -42q-41 0 -41 42q0 17 12.5 29.5t28.5 12.5q17 0 30 -12.5t13 -29.5z" />
    <glyph glyph-name="ring" unicode="&#x2da;" horiz-adv-x="344" 
d="M96 800q40 0 68.5 -28t28.5 -68t-28.5 -68.5t-68.5 -28.5t-68 28.5t-28 68.5t28 68t68 28zM96 627q32 0 54.5 22.5t22.5 54.5t-22.5 54t-54.5 22t-54.5 -22t-22.5 -54t22.5 -54.5t54.5 -22.5z" />
    <glyph glyph-name="ogonek" unicode="&#x2db;" horiz-adv-x="305" 
d="M90 108q-36 0 -36 -41q0 -45 40 -45q28 0 39 8t12 8q13 0 13 -9q0 -29 -71 -29q-39 0 -63 18.5t-24 50.5q0 27 19 43.5t51 16.5q4 0 28 -2q1 -17 -8 -19z" />
    <glyph glyph-name="tilde" unicode="&#x2dc;" horiz-adv-x="459" 
d="M205 704q-12 0 -45.5 25t-58.5 25q-24 0 -41.5 -15t-34.5 -30l-25 1q1 28 37 58t62 30q27 0 58 -25t47 -25q59 -1 81 44l25 1q0 -25 -30 -55q-34 -34 -75 -34z" />
    <glyph glyph-name="hungarumlaut" unicode="&#x2dd;" horiz-adv-x="552" 
d="M213 621h-76l214 179h75zM40 621h-34l214 179h34z" />
    <glyph glyph-name="hookabovecomb" unicode="&#x309;" horiz-adv-x="378" 
d="M140 760q1 -21 -8 -33.5t-20 -21.5t-20 -18t-8 -23l1 -14h-23l-1 13q-1 16 8 27.5t20 22t19.5 21t7.5 25.5q-2 13 -10.5 26t-28.5 12q-14 -1 -22.5 -7t-12.5 -13q-5 -10 -7 -20l-24 -1q4 17 12 31q7 12 19.5 22t34.5 11q30 2 46.5 -15.5t16.5 -44.5z" />
    <glyph glyph-name="dotbelowcomb" unicode="&#x323;" horiz-adv-x="208" 
d="M90 -162q0 -42 -36 -42q-41 0 -41 42q0 17 12 28t28 11q17 0 27 -11t10 -28z" />
    <glyph glyph-name="Delta" unicode="&#x394;" horiz-adv-x="696" 
d="M584 0h-584l315 809zM53 32h470l-210 678z" />
    <glyph glyph-name="Delta" unicode="&#x2206;" horiz-adv-x="696" 
d="M584 0h-584l315 809zM53 32h470l-210 678z" />
    <glyph glyph-name="Omega" unicode="&#x3a9;" horiz-adv-x="867" 
d="M311 0h-311v131h16q9 -39 22.5 -51.5t46.5 -12.5h167l-2 69q-123 37 -176 114.5t-53 169.5q0 78 36 142q27 50 65 81q16 13 55 36q79 47 193 47q115 0 193 -47q40 -23 55 -36q38 -31 66 -81q35 -64 35 -142q0 -92 -53 -169.5t-175 -114.5l-3 -69h167q33 0 46.5 12.5
t23.5 51.5h16v-131h-312l17 160q34 15 68 29q58 31 91 82q45 70 45 177q0 114 -101 185q-84 59 -179 59q-102 0 -179 -55q-100 -72 -100 -209q0 -123 89 -201q38 -33 114 -67z" />
    <glyph glyph-name="Omega" unicode="&#x2126;" horiz-adv-x="867" 
d="M311 0h-311v131h16q9 -39 22.5 -51.5t46.5 -12.5h167l-2 69q-123 37 -176 114.5t-53 169.5q0 78 36 142q27 50 65 81q16 13 55 36q79 47 193 47q115 0 193 -47q40 -23 55 -36q38 -31 66 -81q35 -64 35 -142q0 -92 -53 -169.5t-175 -114.5l-3 -69h167q33 0 46.5 12.5
t23.5 51.5h16v-131h-312l17 160q34 15 68 29q58 31 91 82q45 70 45 177q0 114 -101 185q-84 59 -179 59q-102 0 -179 -55q-100 -72 -100 -209q0 -123 89 -201q38 -33 114 -67z" />
    <glyph glyph-name="pi" unicode="&#x3c0;" horiz-adv-x="713" 
d="M237 388q-11 -133 -27 -212q-11 -50 -23 -100q-16 -77 -73 -77q-19 0 -36 13t-21 30q-2 9 -2 18q0 20 27 56l32 40q19 27 24 56l31 176h-53q-11 -2 -26 -9q-37 -17 -90 -61q7 20 13 41q16 39 44 62q39 31 98 31h417v-64h-141q-11 -111 -11 -182q0 -56 28 -82
q20 -19 44 -19q20 0 38 14t24 37q3 16 5 33h24q-2 -68 -30 -118q-21 -38 -51 -54q-25 -15 -53 -15q-23 0 -40 13q-36 25 -55 82q-11 33 -13 50q-1 18 3 61l19 180h-126z" />
    <glyph glyph-name="uni1EA0" unicode="&#x1ea0;" 
d="M582 139q16 -40 50.5 -77t56.5 -37l-2 -25q-69 2 -217 0v29q17 -2 27 0q12 2 28 20q23 26 23 60q0 26 -13 54l-33 103h-333l-91 -214l-14 -38q-6 -13 -15 -13q-15 0 -15 13q0 3 19 48l88 204l-121 -1q-20 0 -20 14q0 13 20 12q3 0 131 -1l213 510zM179 290h313l-133 407z
M360 -162q0 -42 -36 -42q-41 0 -41 42q0 17 12 28t28 11q17 0 27 -11t10 -28z" />
    <glyph glyph-name="uni1EA1" unicode="&#x1ea1;" horiz-adv-x="601" 
d="M497 30l19 1v-31q-23 2 -48 2q-26 0 -53 -2l-1 64q-73 -62 -169 -62q-114 0 -179.5 72t-65.5 196q0 123 77.5 207t191.5 84q81 0 145 -55l-2 56l36 1l-3 -348q-2 -181 52 -185zM415 104v363q-67 67 -152 67q-100 0 -168.5 -75.5t-68.5 -188.5t57 -178t155 -65
q95 0 177 77zM283 -162q0 -42 -36 -42q-41 0 -41 42q0 17 12 28t28 11q17 0 27 -11t10 -28z" />
    <glyph glyph-name="uni1EA2" unicode="&#x1ea2;" 
d="M582 139q16 -40 50.5 -77t56.5 -37l-2 -25q-69 2 -217 0v29q17 -2 27 0q12 2 28 20q23 26 23 60q0 26 -13 54l-33 103h-333l-91 -214l-14 -38q-6 -13 -15 -13q-15 0 -15 13q0 3 19 48l88 204l-121 -1q-20 0 -20 14q0 13 20 12q3 0 131 -1l213 510zM179 290h313l-133 407z
M444 990q1 -21 -8 -33.5t-20 -21.5t-20 -18t-8 -23l1 -14h-23l-1 13q-1 16 8 27.5t20 22t19.5 21t7.5 25.5q-2 13 -10.5 26t-28.5 12q-14 -1 -22.5 -7t-12.5 -13q-5 -10 -7 -20l-24 -1q4 17 12 31q7 12 19.5 22t34.5 11q30 2 46.5 -15.5t16.5 -44.5z" />
    <glyph glyph-name="uni1EA3" unicode="&#x1ea3;" horiz-adv-x="601" 
d="M497 30l19 1v-31q-23 2 -48 2q-26 0 -53 -2l-1 64q-73 -62 -169 -62q-114 0 -179.5 72t-65.5 196q0 123 77.5 207t191.5 84q81 0 145 -55l-2 56l36 1l-3 -348q-2 -181 52 -185zM415 104v363q-67 67 -152 67q-100 0 -168.5 -75.5t-68.5 -188.5t57 -178t155 -65
q95 0 177 77zM342 760q1 -21 -8 -33.5t-20 -21.5t-20 -18t-8 -23l1 -14h-23l-1 13q-1 16 8 27.5t20 22t19.5 21t7.5 25.5q-2 13 -10.5 26t-28.5 12q-14 -1 -22.5 -7t-12.5 -13q-5 -10 -7 -20l-24 -1q4 17 12 31q7 12 19.5 22t34.5 11q30 2 46.5 -15.5t16.5 -44.5z" />
    <glyph glyph-name="uni1EA4" unicode="&#x1ea4;" 
d="M368 1010l146 -160h-27l-125 137l-122 -137h-30l145 160h13zM582 139q16 -40 50.5 -77t56.5 -37l-2 -25q-69 2 -217 0v29q17 -2 27 0q12 2 28 20q23 26 23 60q0 26 -13 54l-33 103h-333l-91 -214l-14 -38q-6 -13 -15 -13q-15 0 -15 13q0 3 19 48l88 204l-121 -1
q-20 0 -20 14q0 13 20 12q3 0 131 -1l213 510zM179 290h313l-133 407zM516 972h-76l185 146h75z" />
    <glyph glyph-name="uni1EA5" unicode="&#x1ea5;" horiz-adv-x="648" 
d="M268 800l146 -160h-27l-125 137l-122 -137h-30l145 160h13zM497 30l19 1v-31q-23 2 -48 2q-26 0 -53 -2l-1 64q-73 -62 -169 -62q-114 0 -179.5 72t-65.5 196q0 123 77.5 207t191.5 84q81 0 145 -55l-2 56l36 1l-3 -348q-2 -181 52 -185zM415 104v363q-67 67 -152 67
q-100 0 -168.5 -75.5t-68.5 -188.5t57 -178t155 -65q95 0 177 77zM415 734h-76l185 146h75z" />
    <glyph glyph-name="uni1EA6" unicode="&#x1ea6;" 
d="M310 1108h75l185 -146h-76zM368 1010l146 -160h-27l-125 137l-122 -137h-30l145 160h13zM582 139q16 -40 50.5 -77t56.5 -37l-2 -25q-69 2 -217 0v29q17 -2 27 0q12 2 28 20q23 26 23 60q0 26 -13 54l-33 103h-333l-91 -214l-14 -38q-6 -13 -15 -13q-15 0 -15 13
q0 3 19 48l88 204l-121 -1q-20 0 -20 14q0 13 20 12q3 0 131 -1l213 510zM179 290h313l-133 407z" />
    <glyph glyph-name="uni1EA7" unicode="&#x1ea7;" horiz-adv-x="648" 
d="M268 800l146 -160h-27l-125 137l-122 -137h-30l145 160h13zM497 30l19 1v-31q-23 2 -48 2q-26 0 -53 -2l-1 64q-73 -62 -169 -62q-114 0 -179.5 72t-65.5 196q0 123 77.5 207t191.5 84q81 0 145 -55l-2 56l36 1l-3 -348q-2 -181 52 -185zM415 104v363q-67 67 -152 67
q-100 0 -168.5 -75.5t-68.5 -188.5t57 -178t155 -65q95 0 177 77zM419.006 734h75.9961l-184.989 146h-74.9951z" />
    <glyph glyph-name="uni1EA8" unicode="&#x1ea8;" 
d="M368 1010l146 -160h-27l-125 137l-122 -137h-30l145 160h13zM582 139q16 -40 50.5 -77t56.5 -37l-2 -25q-69 2 -217 0v29q17 -2 27 0q12 2 28 20q23 26 23 60q0 26 -13 54l-33 103h-333l-91 -214l-14 -38q-6 -13 -15 -13q-15 0 -15 13q0 3 19 48l88 204l-121 -1
q-20 0 -20 14q0 13 20 12q3 0 131 -1l213 510zM179 290h313l-133 407zM503 1078q1 -21 -8 -33.5t-20 -21.5t-20 -18t-8 -23l1 -14h-23l-1 13q-1 16 8 27.5t20 22t19.5 21t7.5 25.5q-2 13 -10.5 26t-28.5 12q-14 -1 -22.5 -7t-12.5 -13q-5 -10 -7 -20l-24 -1q4 17 12 31
q7 12 19.5 22t34.5 11q30 2 46.5 -15.5t16.5 -44.5z" />
    <glyph glyph-name="uni1EA9" unicode="&#x1ea9;" horiz-adv-x="648" 
d="M268 800l146 -160h-27l-125 137l-122 -137h-30l145 160h13zM497 30l19 1v-31q-23 2 -48 2q-26 0 -53 -2l-1 64q-73 -62 -169 -62q-114 0 -179.5 72t-65.5 196q0 123 77.5 207t191.5 84q81 0 145 -55l-2 56l36 1l-3 -348q-2 -181 52 -185zM415 104v363q-67 67 -152 67
q-100 0 -168.5 -75.5t-68.5 -188.5t57 -178t155 -65q95 0 177 77zM435 856q1 -21 -8 -33.5t-20 -21.5t-20 -18t-8 -23l1 -14h-23l-1 13q-1 16 8 27.5t20 22t19.5 21t7.5 25.5q-2 13 -10.5 26t-28.5 12q-14 -1 -22.5 -7t-12.5 -13q-5 -10 -7 -20l-24 -1q4 17 12 31
q7 12 19.5 22t34.5 11q30 2 46.5 -15.5t16.5 -44.5z" />
    <glyph glyph-name="uni1EAA" unicode="&#x1eaa;" 
d="M368 1010l146 -160h-27l-125 137l-122 -137h-30l145 160h13zM582 139q16 -40 50.5 -77t56.5 -37l-2 -25q-69 2 -217 0v29q17 -2 27 0q12 2 28 20q23 26 23 60q0 26 -13 54l-33 103h-333l-91 -214l-14 -38q-6 -13 -15 -13q-15 0 -15 13q0 3 19 48l88 204l-121 -1
q-20 0 -20 14q0 13 20 12q3 0 131 -1l213 510zM179 290h313l-133 407zM433 1030q-12 0 -45.5 25t-58.5 25q-24 0 -41.5 -15t-34.5 -30l-25 1q1 28 37 58t62 30q27 0 58 -25t47 -25q59 -1 81 44l25 1q0 -25 -30 -55q-34 -34 -75 -34z" />
    <glyph glyph-name="uni1EAB" unicode="&#x1eab;" horiz-adv-x="648" 
d="M268 800l146 -160h-27l-125 137l-122 -137h-30l145 160h13zM497 30l19 1v-31q-23 2 -48 2q-26 0 -53 -2l-1 64q-73 -62 -169 -62q-114 0 -179.5 72t-65.5 196q0 123 77.5 207t191.5 84q81 0 145 -55l-2 56l36 1l-3 -348q-2 -181 52 -185zM415 104v363q-67 67 -152 67
q-100 0 -168.5 -75.5t-68.5 -188.5t57 -178t155 -65q95 0 177 77zM332 800q-12 0 -45.5 25t-58.5 25q-24 0 -41.5 -15t-34.5 -30l-25 1q1 28 37 58t62 30q27 0 58 -25t47 -25q59 -1 81 44l25 1q0 -25 -30 -55q-34 -34 -75 -34z" />
    <glyph glyph-name="uni1EAC" unicode="&#x1eac;" 
d="M582 139q16 -40 50.5 -77t56.5 -37l-2 -25q-69 2 -217 0v29q17 -2 27 0q12 2 28 20q23 26 23 60q0 26 -13 54l-33 103h-333l-91 -214l-14 -38q-6 -13 -15 -13q-15 0 -15 13q0 3 19 48l88 204l-121 -1q-20 0 -20 14q0 13 20 12q3 0 131 -1l213 510zM179 290h313l-133 407z
M360 -162q0 -42 -36 -42q-41 0 -41 42q0 17 12 28t28 11q17 0 27 -11t10 -28zM366 1030l146 -160h-27l-125 137l-122 -137h-30l145 160h13z" />
    <glyph glyph-name="uni1EAD" unicode="&#x1ead;" horiz-adv-x="601" 
d="M497 30l19 1v-31q-23 2 -48 2q-26 0 -53 -2l-1 64q-73 -62 -169 -62q-114 0 -179.5 72t-65.5 196q0 123 77.5 207t191.5 84q81 0 145 -55l-2 56l36 1l-3 -348q-2 -181 52 -185zM415 104v363q-67 67 -152 67q-100 0 -168.5 -75.5t-68.5 -188.5t57 -178t155 -65
q95 0 177 77zM283 -162q0 -42 -36 -42q-41 0 -41 42q0 17 12 28t28 11q17 0 27 -11t10 -28zM285 800l146 -160h-27l-125 137l-122 -137h-30l145 160h13z" />
    <glyph glyph-name="uni1EAE" unicode="&#x1eae;" 
d="M364 885q88 0 109 110h20q-22 -127 -129 -127q-108 0 -131 127h20q22 -110 111 -110zM582 139q16 -40 50.5 -77t56.5 -37l-2 -25q-69 2 -217 0v29q17 -2 27 0q12 2 28 20q23 26 23 60q0 26 -13 54l-33 103h-333l-91 -214l-14 -38q-6 -13 -15 -13q-15 0 -15 13q0 3 19 48
l88 204l-121 -1q-20 0 -20 14q0 13 20 12q3 0 131 -1l213 510zM179 290h313l-133 407zM392 972h-76l185 146h75z" />
    <glyph glyph-name="uni1EAF" unicode="&#x1eaf;" horiz-adv-x="601" 
d="M292 734h-76l185 146h75zM497 30l19 1v-31q-23 2 -48 2q-26 0 -53 -2l-1 64q-73 -62 -169 -62q-114 0 -179.5 72t-65.5 196q0 123 77.5 207t191.5 84q81 0 145 -55l-2 56l36 1l-3 -348q-2 -181 52 -185zM415 104v363q-67 67 -152 67q-100 0 -168.5 -75.5t-68.5 -188.5
t57 -178t155 -65q95 0 177 77zM296 655q88 0 109 110h20q-22 -127 -129 -127q-108 0 -131 127h20q22 -110 111 -110z" />
    <glyph glyph-name="uni1EB0" unicode="&#x1eb0;" 
d="M169 1108h75l185 -146h-76zM364 885q88 0 109 110h20q-22 -127 -129 -127q-108 0 -131 127h20q22 -110 111 -110zM582 139q16 -40 50.5 -77t56.5 -37l-2 -25q-69 2 -217 0v29q17 -2 27 0q12 2 28 20q23 26 23 60q0 26 -13 54l-33 103h-333l-91 -214l-14 -38
q-6 -13 -15 -13q-15 0 -15 13q0 3 19 48l88 204l-121 -1q-20 0 -20 14q0 13 20 12q3 0 131 -1l213 510zM179 290h313l-133 407z" />
    <glyph glyph-name="uni1EB1" unicode="&#x1eb1;" horiz-adv-x="601" 
d="M296 655q88 0 109 110h20q-22 -127 -129 -127q-108 0 -131 127h20q22 -110 111 -110zM497 30l19 1v-31q-23 2 -48 2q-26 0 -53 -2l-1 64q-73 -62 -169 -62q-114 0 -179.5 72t-65.5 196q0 123 77.5 207t191.5 84q81 0 145 -55l-2 56l36 1l-3 -348q-2 -181 52 -185z
M415 104v363q-67 67 -152 67q-100 0 -168.5 -75.5t-68.5 -188.5t57 -178t155 -65q95 0 177 77zM301.006 734h75.9961l-184.989 146h-74.9951z" />
    <glyph glyph-name="uni1EB2" unicode="&#x1eb2;" 
d="M444 1078q1 -21 -8 -33.5t-20 -21.5t-20 -18t-8 -23l1 -14h-23l-1 13q-1 16 8 27.5t20 22t19.5 21t7.5 25.5q-2 13 -10.5 26t-28.5 12q-14 -1 -22.5 -7t-12.5 -13q-5 -10 -7 -20l-24 -1q4 17 12 31q7 12 19.5 22t34.5 11q30 2 46.5 -15.5t16.5 -44.5zM364 885
q88 0 109 110h20q-22 -127 -129 -127q-108 0 -131 127h20q22 -110 111 -110zM582 139q16 -40 50.5 -77t56.5 -37l-2 -25q-69 2 -217 0v29q17 -2 27 0q12 2 28 20q23 26 23 60q0 26 -13 54l-33 103h-333l-91 -214l-14 -38q-6 -13 -15 -13q-15 0 -15 13q0 3 19 48l88 204
l-121 -1q-20 0 -20 14q0 13 20 12q3 0 131 -1l213 510zM179 290h313l-133 407z" />
    <glyph glyph-name="uni1EB3" unicode="&#x1eb3;" horiz-adv-x="601" 
d="M354 856q1 -21 -8 -33.5t-20 -21.5t-20 -18t-8 -23l1 -14h-23l-1 13q-1 16 8 27.5t20 22t19.5 21t7.5 25.5q-2 13 -10.5 26t-28.5 12q-14 -1 -22.5 -7t-12.5 -13q-5 -10 -7 -20l-24 -1q4 17 12 31q7 12 19.5 22t34.5 11q30 2 46.5 -15.5t16.5 -44.5zM296 655
q88 0 109 110h20q-22 -127 -129 -127q-108 0 -131 127h20q22 -110 111 -110zM497 30l19 1v-31q-23 2 -48 2q-26 0 -53 -2l-1 64q-73 -62 -169 -62q-114 0 -179.5 72t-65.5 196q0 123 77.5 207t191.5 84q81 0 145 -55l-2 56l36 1l-3 -348q-2 -181 52 -185zM415 104v363
q-67 67 -152 67q-100 0 -168.5 -75.5t-68.5 -188.5t57 -178t155 -65q95 0 177 77z" />
    <glyph glyph-name="uni1EB4" unicode="&#x1eb4;" 
d="M413 1030q-12 0 -45.5 25t-58.5 25q-24 0 -41.5 -15t-34.5 -30l-25 1q1 28 37 58t62 30q27 0 58 -25t47 -25q59 -1 81 44l25 1q0 -25 -30 -55q-34 -34 -75 -34zM364 885q88 0 109 110h20q-22 -127 -129 -127q-108 0 -131 127h20q22 -110 111 -110zM582 139
q16 -40 50.5 -77t56.5 -37l-2 -25q-69 2 -217 0v29q17 -2 27 0q12 2 28 20q23 26 23 60q0 26 -13 54l-33 103h-333l-91 -214l-14 -38q-6 -13 -15 -13q-15 0 -15 13q0 3 19 48l88 204l-121 -1q-20 0 -20 14q0 13 20 12q3 0 131 -1l213 510zM179 290h313l-133 407z" />
    <glyph glyph-name="uni1EB5" unicode="&#x1eb5;" horiz-adv-x="601" 
d="M346 800q-12 0 -45.5 25t-58.5 25q-24 0 -41.5 -15t-34.5 -30l-25 1q1 28 37 58t62 30q27 0 58 -25t47 -25q59 -1 81 44l25 1q0 -25 -30 -55q-34 -34 -75 -34zM296 655q88 0 109 110h20q-22 -127 -129 -127q-108 0 -131 127h20q22 -110 111 -110zM497 30l19 1v-31
q-23 2 -48 2q-26 0 -53 -2l-1 64q-73 -62 -169 -62q-114 0 -179.5 72t-65.5 196q0 123 77.5 207t191.5 84q81 0 145 -55l-2 56l36 1l-3 -348q-2 -181 52 -185zM415 104v363q-67 67 -152 67q-100 0 -168.5 -75.5t-68.5 -188.5t57 -178t155 -65q95 0 177 77z" />
    <glyph glyph-name="uni1EB6" unicode="&#x1eb6;" 
d="M582 139q16 -40 50.5 -77t56.5 -37l-2 -25q-69 2 -217 0v29q17 -2 27 0q12 2 28 20q23 26 23 60q0 26 -13 54l-33 103h-333l-91 -214l-14 -38q-6 -13 -15 -13q-15 0 -15 13q0 3 19 48l88 204l-121 -1q-20 0 -20 14q0 13 20 12q3 0 131 -1l213 510zM179 290h313l-133 407z
M360 -162q0 -42 -36 -42q-41 0 -41 42q0 17 12 28t28 11q17 0 27 -11t10 -28zM364 885q88 0 109 110h20q-22 -127 -129 -127q-108 0 -131 127h20q22 -110 111 -110z" />
    <glyph glyph-name="uni1EB7" unicode="&#x1eb7;" horiz-adv-x="601" 
d="M497 30l19 1v-31q-23 2 -48 2q-26 0 -53 -2l-1 64q-73 -62 -169 -62q-114 0 -179.5 72t-65.5 196q0 123 77.5 207t191.5 84q81 0 145 -55l-2 56l36 1l-3 -348q-2 -181 52 -185zM415 104v363q-67 67 -152 67q-100 0 -168.5 -75.5t-68.5 -188.5t57 -178t155 -65
q95 0 177 77zM283 -162q0 -42 -36 -42q-41 0 -41 42q0 17 12 28t28 11q17 0 27 -11t10 -28zM296 655q88 0 109 110h20q-22 -127 -129 -127q-108 0 -131 127h20q22 -110 111 -110z" />
    <glyph glyph-name="uni1EB8" unicode="&#x1eb8;" horiz-adv-x="467" 
d="M344 29q19 0 19 -14q0 -13 -21 -13q-251 0 -323 -2l-1 26q34 3 53 38t19 89q1 48 2 251v234q-2 42 -21 79q-25 49 -71 52l1 31q36 -2 321 -2q19 0 19 -15q0 -13 -21 -13q-7 0 -201 2v-2v-436l209 2q19 0 19 -14t-21 -14q-7 0 -207 2v-280zM216 -162q0 -42 -36 -42
q-41 0 -41 42q0 17 12 28t28 11q17 0 27 -11t10 -28z" />
    <glyph glyph-name="uni1EB9" unicode="&#x1eb9;" horiz-adv-x="613" 
d="M482 158q3 3 10 -3.5t5 -9.5q-6 -13 -13 -26q-13 -24 -35 -45q-77 -74 -188 -74q-120 0 -190.5 76t-70.5 197q0 103 42 174q62 106 207 114q252 15 255 -245q-58 -5 -468 -1q-3 -23 -3 -42q0 -107 64.5 -178.5t163.5 -71.5q95 0 158 54q24 21 43 48q10 17 20 33zM242 530
q-155 -8 -205 -189q89 -2 430 -3q0 203 -225 192zM289 -162q0 -42 -36 -42q-41 0 -41 42q0 17 12 28t28 11q17 0 27 -11t10 -28z" />
    <glyph glyph-name="uni1EBA" unicode="&#x1eba;" horiz-adv-x="467" 
d="M344 29q19 0 19 -14q0 -13 -21 -13q-251 0 -323 -2l-1 26q34 3 53 38t19 89q1 48 2 251v234q-2 42 -21 79q-25 49 -71 52l1 31q36 -2 321 -2q19 0 19 -15q0 -13 -21 -13q-7 0 -201 2v-2v-436l209 2q19 0 19 -14t-21 -14q-7 0 -207 2v-280zM275 990q1 -21 -8 -33.5
t-20 -21.5t-20 -18t-8 -23l1 -14h-23l-1 13q-1 16 8 27.5t20 22t19.5 21t7.5 25.5q-2 13 -10.5 26t-28.5 12q-14 -1 -22.5 -7t-12.5 -13q-5 -10 -7 -20l-24 -1q4 17 12 31q7 12 19.5 22t34.5 11q30 2 46.5 -15.5t16.5 -44.5z" />
    <glyph glyph-name="uni1EBB" unicode="&#x1ebb;" horiz-adv-x="613" 
d="M482 158q3 3 10 -3.5t5 -9.5q-6 -13 -13 -26q-13 -24 -35 -45q-77 -74 -188 -74q-120 0 -190.5 76t-70.5 197q0 103 42 174q62 106 207 114q252 15 255 -245q-58 -5 -468 -1q-3 -23 -3 -42q0 -107 64.5 -178.5t163.5 -71.5q95 0 158 54q24 21 43 48q10 17 20 33zM242 530
q-155 -8 -205 -189q89 -2 430 -3q0 203 -225 192zM348 760q1 -21 -8 -33.5t-20 -21.5t-20 -18t-8 -23l1 -14h-23l-1 13q-1 16 8 27.5t20 22t19.5 21t7.5 25.5q-2 13 -10.5 26t-28.5 12q-14 -1 -22.5 -7t-12.5 -13q-5 -10 -7 -20l-24 -1q4 17 12 31q7 12 19.5 22t34.5 11
q30 2 46.5 -15.5t16.5 -44.5z" />
    <glyph glyph-name="uni1EBC" unicode="&#x1ebc;" horiz-adv-x="467" 
d="M344 29q19 0 19 -14q0 -13 -21 -13q-251 0 -323 -2l-1 26q34 3 53 38t19 89q1 48 2 251v234q-2 42 -21 79q-25 49 -71 52l1 31q36 -2 321 -2q19 0 19 -15q0 -13 -21 -13q-7 0 -201 2v-2v-436l209 2q19 0 19 -14t-21 -14q-7 0 -207 2v-280zM228 844q-12 0 -45.5 25
t-58.5 25q-24 0 -41.5 -15t-34.5 -30l-25 1q1 28 37 58t62 30q27 0 58 -25t47 -25q59 -1 81 44l25 1q0 -25 -30 -55q-34 -34 -75 -34z" />
    <glyph glyph-name="uni1EBD" unicode="&#x1ebd;" horiz-adv-x="613" 
d="M482 158q3 3 10 -3.5t5 -9.5q-6 -13 -13 -26q-13 -24 -35 -45q-77 -74 -188 -74q-120 0 -190.5 76t-70.5 197q0 103 42 174q62 106 207 114q252 15 255 -245q-58 -5 -468 -1q-3 -23 -3 -42q0 -107 64.5 -178.5t163.5 -71.5q95 0 158 54q24 21 43 48q10 17 20 33zM242 530
q-155 -8 -205 -189q89 -2 430 -3q0 203 -225 192zM356 704q-12 0 -45.5 25t-58.5 25q-24 0 -41.5 -15t-34.5 -30l-25 1q1 28 37 58t62 30q27 0 58 -25t47 -25q59 -1 81 44l25 1q0 -25 -30 -55q-34 -34 -75 -34z" />
    <glyph glyph-name="uni1EBE" unicode="&#x1ebe;" horiz-adv-x="467" 
d="M320 962h-76l185 146h75zM178 1010l146 -160h-27l-125 137l-122 -137h-30l145 160h13zM344 29q19 0 19 -14q0 -13 -21 -13q-251 0 -323 -2l-1 26q34 3 53 38t19 89q1 48 2 251v234q-2 42 -21 79q-25 49 -71 52l1 31q36 -2 321 -2q19 0 19 -15q0 -13 -21 -13q-7 0 -201 2
v-2v-436l209 2q19 0 19 -14t-21 -14q-7 0 -207 2v-280z" />
    <glyph glyph-name="uni1EBF" unicode="&#x1ebf;" horiz-adv-x="548" 
d="M268 800l146 -160h-27l-125 137l-122 -137h-30l145 160h13zM482 158q3 3 10 -3.5t5 -9.5q-6 -13 -13 -26q-13 -24 -35 -45q-77 -74 -188 -74q-120 0 -190.5 76t-70.5 197q0 103 42 174q62 106 207 114q252 15 255 -245q-58 -5 -468 -1q-3 -23 -3 -42q0 -107 64.5 -178.5
t163.5 -71.5q95 0 158 54q24 21 43 48q10 17 20 33zM242 530q-155 -8 -205 -189q89 -2 430 -3q0 203 -225 192zM415 734h-76l185 146h75z" />
    <glyph glyph-name="uni1EC0" unicode="&#x1ec0;" horiz-adv-x="467" 
d="M113 1108h75l185 -146h-76zM178 1010l146 -160h-27l-125 137l-122 -137h-30l145 160h13zM344 29q19 0 19 -14q0 -13 -21 -13q-251 0 -323 -2l-1 26q34 3 53 38t19 89q1 48 2 251v234q-2 42 -21 79q-25 49 -71 52l1 31q36 -2 321 -2q19 0 19 -15q0 -13 -21 -13
q-7 0 -201 2v-2v-436l209 2q19 0 19 -14t-21 -14q-7 0 -207 2v-280z" />
    <glyph glyph-name="uni1EC1" unicode="&#x1ec1;" horiz-adv-x="548" 
d="M268 800l146 -160h-27l-125 137l-122 -137h-30l145 160h13zM482 158q3 3 10 -3.5t5 -9.5q-6 -13 -13 -26q-13 -24 -35 -45q-77 -74 -188 -74q-120 0 -190.5 76t-70.5 197q0 103 42 174q62 106 207 114q252 15 255 -245q-58 -5 -468 -1q-3 -23 -3 -42q0 -107 64.5 -178.5
t163.5 -71.5q95 0 158 54q24 21 43 48q10 17 20 33zM242 530q-155 -8 -205 -189q89 -2 430 -3q0 203 -225 192zM394.006 734h75.9961l-184.989 146h-74.9951z" />
    <glyph glyph-name="uni1EC2" unicode="&#x1ec2;" horiz-adv-x="467" 
d="M178 1010l146 -160h-27l-125 137l-122 -137h-30l145 160h13zM344 29q19 0 19 -14q0 -13 -21 -13q-251 0 -323 -2l-1 26q34 3 53 38t19 89q1 48 2 251v234q-2 42 -21 79q-25 49 -71 52l1 31q36 -2 321 -2q19 0 19 -15q0 -13 -21 -13q-7 0 -201 2v-2v-436l209 2
q19 0 19 -14t-21 -14q-7 0 -207 2v-280zM328 1078q1 -21 -8 -33.5t-20 -21.5t-20 -18t-8 -23l1 -14h-23l-1 13q-1 16 8 27.5t20 22t19.5 21t7.5 25.5q-2 13 -10.5 26t-28.5 12q-14 -1 -22.5 -7t-12.5 -13q-5 -10 -7 -20l-24 -1q4 17 12 31q7 12 19.5 22t34.5 11
q30 2 46.5 -15.5t16.5 -44.5z" />
    <glyph glyph-name="uni1EC3" unicode="&#x1ec3;" horiz-adv-x="548" 
d="M268 800l146 -160h-27l-125 137l-122 -137h-30l145 160h13zM482 158q3 3 10 -3.5t5 -9.5q-6 -13 -13 -26q-13 -24 -35 -45q-77 -74 -188 -74q-120 0 -190.5 76t-70.5 197q0 103 42 174q62 106 207 114q252 15 255 -245q-58 -5 -468 -1q-3 -23 -3 -42q0 -107 64.5 -178.5
t163.5 -71.5q95 0 158 54q24 21 43 48q10 17 20 33zM242 530q-155 -8 -205 -189q89 -2 430 -3q0 203 -225 192zM436 856q1 -21 -8 -33.5t-20 -21.5t-20 -18t-8 -23l1 -14h-23l-1 13q-1 16 8 27.5t20 22t19.5 21t7.5 25.5q-2 13 -10.5 26t-28.5 12q-14 -1 -22.5 -7t-12.5 -13
q-5 -10 -7 -20l-24 -1q4 17 12 31q7 12 19.5 22t34.5 11q30 2 46.5 -15.5t16.5 -44.5z" />
    <glyph glyph-name="uni1EC4" unicode="&#x1ec4;" horiz-adv-x="467" 
d="M178 1010l146 -160h-27l-125 137l-122 -137h-30l145 160h13zM344 29q19 0 19 -14q0 -13 -21 -13q-251 0 -323 -2l-1 26q34 3 53 38t19 89q1 48 2 251v234q-2 42 -21 79q-25 49 -71 52l1 31q36 -2 321 -2q19 0 19 -15q0 -13 -21 -13q-7 0 -201 2v-2v-436l209 2
q19 0 19 -14t-21 -14q-7 0 -207 2v-280zM233 1030q-12 0 -45.5 25t-58.5 25q-24 0 -41.5 -15t-34.5 -30l-25 1q1 28 37 58t62 30q27 0 58 -25t47 -25q59 -1 81 44l25 1q0 -25 -30 -55q-34 -34 -75 -34z" />
    <glyph glyph-name="uni1EC5" unicode="&#x1ec5;" horiz-adv-x="548" 
d="M268 800l146 -160h-27l-125 137l-122 -137h-30l145 160h13zM482 158q3 3 10 -3.5t5 -9.5q-6 -13 -13 -26q-13 -24 -35 -45q-77 -74 -188 -74q-120 0 -190.5 76t-70.5 197q0 103 42 174q62 106 207 114q252 15 255 -245q-58 -5 -468 -1q-3 -23 -3 -42q0 -107 64.5 -178.5
t163.5 -71.5q95 0 158 54q24 21 43 48q10 17 20 33zM242 530q-155 -8 -205 -189q89 -2 430 -3q0 203 -225 192zM324 800q-12 0 -45.5 25t-58.5 25q-24 0 -41.5 -15t-34.5 -30l-25 1q1 28 37 58t62 30q27 0 58 -25t47 -25q59 -1 81 44l25 1q0 -25 -30 -55q-34 -34 -75 -34z
" />
    <glyph glyph-name="uni1EC6" unicode="&#x1ec6;" horiz-adv-x="467" 
d="M344 29q19 0 19 -14q0 -13 -21 -13q-251 0 -323 -2l-1 26q34 3 53 38t19 89q1 48 2 251v234q-2 42 -21 79q-25 49 -71 52l1 31q36 -2 321 -2q19 0 19 -15q0 -13 -21 -13q-7 0 -201 2v-2v-436l209 2q19 0 19 -14t-21 -14q-7 0 -207 2v-280zM216 -162q0 -42 -36 -42
q-41 0 -41 42q0 17 12 28t28 11q17 0 27 -11t10 -28zM201 1030l146 -160h-27l-125 137l-122 -137h-30l145 160h13z" />
    <glyph glyph-name="uni1EC7" unicode="&#x1ec7;" horiz-adv-x="613" 
d="M482 158q3 3 10 -3.5t5 -9.5q-6 -13 -13 -26q-13 -24 -35 -45q-77 -74 -188 -74q-120 0 -190.5 76t-70.5 197q0 103 42 174q62 106 207 114q252 15 255 -245q-58 -5 -468 -1q-3 -23 -3 -42q0 -107 64.5 -178.5t163.5 -71.5q95 0 158 54q24 21 43 48q10 17 20 33zM242 530
q-155 -8 -205 -189q89 -2 430 -3q0 203 -225 192zM289 -162q0 -42 -36 -42q-41 0 -41 42q0 17 12 28t28 11q17 0 27 -11t10 -28zM271 800l146 -160h-27l-125 137l-122 -137h-30l145 160h13z" />
    <glyph glyph-name="uni1EC8" unicode="&#x1ec8;" horiz-adv-x="339" 
d="M218 775q-47 -2 -72 -43q-20 -32 -21 -72q-2 -35 -1 -280q1 -241 2.5 -270t19.5 -55q22 -31 54 -34l1 -20q-74 2 -183 -1l1 21q32 2 53 33q19 26 20 55t2 270q1 245 0 280q-2 40 -21 72q-26 41 -73 44v24h109q106 1 109 1v-25zM211 990q1 -21 -8 -33.5t-20 -21.5t-20 -18
t-8 -23l1 -14h-23l-1 13q-1 16 8 27.5t20 22t19.5 21t7.5 25.5q-2 13 -10.5 26t-28.5 12q-14 -1 -22.5 -7t-12.5 -13q-5 -10 -7 -20l-24 -1q4 17 12 31q7 12 19.5 22t34.5 11q30 2 46.5 -15.5t16.5 -44.5z" />
    <glyph glyph-name="uni1EC9" unicode="&#x1ec9;" horiz-adv-x="329" 
d="M208 534q-47 -2 -72 -39q-19 -28 -21 -66q-6 -152 2 -314q1 -31 19 -59q22 -32 54 -35l1 -20q-69 2 -173 -1l1 20q32 3 53 36q18 28 20 58q7 162 1 314q-1 38 -21 67q-25 36 -72 39v24h104q101 1 104 1v-25zM180 760q1 -21 -8 -33.5t-20 -21.5t-20 -18t-8 -23l1 -14h-23
l-1 13q-1 16 8 27.5t20 22t19.5 21t7.5 25.5q-2 13 -10.5 26t-28.5 12q-14 -1 -22.5 -7t-12.5 -13q-5 -10 -7 -20l-24 -1q4 17 12 31q7 12 19.5 22t34.5 11q30 2 46.5 -15.5t16.5 -44.5z" />
    <glyph glyph-name="uni1ECA" unicode="&#x1eca;" horiz-adv-x="339" 
d="M218 775q-47 -2 -72 -43q-20 -32 -21 -72q-2 -35 -1 -280q1 -241 2.5 -270t19.5 -55q22 -31 54 -34l1 -20q-74 2 -183 -1l1 21q32 2 53 33q19 26 20 55t2 270q1 245 0 280q-2 40 -21 72q-26 41 -73 44v24h109q106 1 109 1v-25zM152 -162q0 -42 -36 -42q-41 0 -41 42
q0 17 12 28t28 11q17 0 27 -11t10 -28z" />
    <glyph glyph-name="uni1ECB" unicode="&#x1ecb;" horiz-adv-x="329" 
d="M104 773q20 0 35.5 -15t15.5 -36t-15.5 -36t-35.5 -15q-21 0 -35.5 15.5t-14.5 35.5q0 21 14.5 36t35.5 15zM208 534q-47 -2 -72 -39q-19 -28 -21 -66q-6 -152 2 -314q1 -31 19 -59q22 -32 54 -35l1 -20q-69 2 -173 -1l1 20q32 3 53 36q18 28 20 58q7 162 1 314
q-1 38 -21 67q-25 36 -72 39v24h104q101 1 104 1v-25zM147 -162q0 -42 -36 -42q-41 0 -41 42q0 17 12 28t28 11q17 0 27 -11t10 -28z" />
    <glyph glyph-name="uni1ECC" unicode="&#x1ecc;" horiz-adv-x="912" 
d="M394 800q163 0 278.5 -117t115.5 -283t-115.5 -283t-278.5 -117t-278.5 117t-115.5 283t115.5 283t278.5 117zM394 24q153 0 262 110t109 266t-109 266t-262 110q-154 0 -262.5 -110t-108.5 -266t108.5 -266t262.5 -110zM439 -162q0 -42 -36 -42q-41 0 -41 42q0 17 12 28
t28 11q17 0 27 -11t10 -28z" />
    <glyph glyph-name="uni1ECD" unicode="&#x1ecd;" horiz-adv-x="603" 
d="M267 561q111 0 189.5 -82t78.5 -198q0 -117 -78.5 -199t-189.5 -82q-110 0 -188.5 82t-78.5 199q0 116 78.5 198t188.5 82zM267 22q102 0 173.5 75.5t71.5 181.5q0 107 -71.5 182t-173.5 75q-101 0 -172.5 -75t-71.5 -182q0 -106 71.5 -181.5t172.5 -75.5zM284 -162
q0 -42 -36 -42q-41 0 -41 42q0 17 12 28t28 11q17 0 27 -11t10 -28z" />
    <glyph glyph-name="uni1ECE" unicode="&#x1ece;" horiz-adv-x="912" 
d="M394 800q163 0 278.5 -117t115.5 -283t-115.5 -283t-278.5 -117t-278.5 117t-115.5 283t115.5 283t278.5 117zM394 24q153 0 262 110t109 266t-109 266t-262 110q-154 0 -262.5 -110t-108.5 -266t108.5 -266t262.5 -110zM497 990q1 -21 -8 -33.5t-20 -21.5t-20 -18
t-8 -23l1 -14h-23l-1 13q-1 16 8 27.5t20 22t19.5 21t7.5 25.5q-2 13 -10.5 26t-28.5 12q-14 -1 -22.5 -7t-12.5 -13q-5 -10 -7 -20l-24 -1q4 17 12 31q7 12 19.5 22t34.5 11q30 2 46.5 -15.5t16.5 -44.5z" />
    <glyph glyph-name="uni1ECF" unicode="&#x1ecf;" horiz-adv-x="603" 
d="M267 561q111 0 189.5 -82t78.5 -198q0 -117 -78.5 -199t-189.5 -82q-110 0 -188.5 82t-78.5 199q0 116 78.5 198t188.5 82zM267 22q102 0 173.5 75.5t71.5 181.5q0 107 -71.5 182t-173.5 75q-101 0 -172.5 -75t-71.5 -182q0 -106 71.5 -181.5t172.5 -75.5zM343 760
q1 -21 -8 -33.5t-20 -21.5t-20 -18t-8 -23l1 -14h-23l-1 13q-1 16 8 27.5t20 22t19.5 21t7.5 25.5q-2 13 -10.5 26t-28.5 12q-14 -1 -22.5 -7t-12.5 -13q-5 -10 -7 -20l-24 -1q4 17 12 31q7 12 19.5 22t34.5 11q30 2 46.5 -15.5t16.5 -44.5z" />
    <glyph glyph-name="uni1ED0" unicode="&#x1ed0;" horiz-adv-x="912" 
d="M398 1010l146 -160h-27l-125 137l-122 -137h-30l145 160h13zM394 800q163 0 278.5 -117t115.5 -283t-115.5 -283t-278.5 -117t-278.5 117t-115.5 283t115.5 283t278.5 117zM394 24q153 0 262 110t109 266t-109 266t-262 110q-154 0 -262.5 -110t-108.5 -266t108.5 -266
t262.5 -110zM533 972h-76l185 146h75z" />
    <glyph glyph-name="uni1ED1" unicode="&#x1ed1;" horiz-adv-x="591" 
d="M268 800l146 -160h-27l-125 137l-122 -137h-30l145 160h13zM267 561q111 0 189.5 -82t78.5 -198q0 -117 -78.5 -199t-189.5 -82q-110 0 -188.5 82t-78.5 199q0 116 78.5 198t188.5 82zM267 22q102 0 173.5 75.5t71.5 181.5q0 107 -71.5 182t-173.5 75q-101 0 -172.5 -75
t-71.5 -182q0 -106 71.5 -181.5t172.5 -75.5zM422 734h-76l185 146h75z" />
    <glyph glyph-name="uni1ED2" unicode="&#x1ed2;" horiz-adv-x="912" 
d="M338 1108h75l185 -146h-76zM398 1010l146 -160h-27l-125 137l-122 -137h-30l145 160h13zM394 800q163 0 278.5 -117t115.5 -283t-115.5 -283t-278.5 -117t-278.5 117t-115.5 283t115.5 283t278.5 117zM394 24q153 0 262 110t109 266t-109 266t-262 110
q-154 0 -262.5 -110t-108.5 -266t108.5 -266t262.5 -110z" />
    <glyph glyph-name="uni1ED3" unicode="&#x1ed3;" horiz-adv-x="591" 
d="M268 800l146 -160h-27l-125 137l-122 -137h-30l145 160h13zM267 561q111 0 189.5 -82t78.5 -198q0 -117 -78.5 -199t-189.5 -82q-110 0 -188.5 82t-78.5 199q0 116 78.5 198t188.5 82zM267 22q102 0 173.5 75.5t71.5 181.5q0 107 -71.5 182t-173.5 75q-101 0 -172.5 -75
t-71.5 -182q0 -106 71.5 -181.5t172.5 -75.5zM396.006 734h75.9961l-184.989 146h-74.9951z" />
    <glyph glyph-name="uni1ED4" unicode="&#x1ed4;" horiz-adv-x="912" 
d="M398 1010l146 -160h-27l-125 137l-122 -137h-30l145 160h13zM394 800q163 0 278.5 -117t115.5 -283t-115.5 -283t-278.5 -117t-278.5 117t-115.5 283t115.5 283t278.5 117zM394 24q153 0 262 110t109 266t-109 266t-262 110q-154 0 -262.5 -110t-108.5 -266t108.5 -266
t262.5 -110zM561 1078q1 -21 -8 -33.5t-20 -21.5t-20 -18t-8 -23l1 -14h-23l-1 13q-1 16 8 27.5t20 22t19.5 21t7.5 25.5q-2 13 -10.5 26t-28.5 12q-14 -1 -22.5 -7t-12.5 -13q-5 -10 -7 -20l-24 -1q4 17 12 31q7 12 19.5 22t34.5 11q30 2 46.5 -15.5t16.5 -44.5z" />
    <glyph glyph-name="uni1ED5" unicode="&#x1ed5;" horiz-adv-x="591" 
d="M268 800l146 -160h-27l-125 137l-122 -137h-30l145 160h13zM267 561q111 0 189.5 -82t78.5 -198q0 -117 -78.5 -199t-189.5 -82q-110 0 -188.5 82t-78.5 199q0 116 78.5 198t188.5 82zM267 22q102 0 173.5 75.5t71.5 181.5q0 107 -71.5 182t-173.5 75q-101 0 -172.5 -75
t-71.5 -182q0 -106 71.5 -181.5t172.5 -75.5zM434 856q1 -21 -8 -33.5t-20 -21.5t-20 -18t-8 -23l1 -14h-23l-1 13q-1 16 8 27.5t20 22t19.5 21t7.5 25.5q-2 13 -10.5 26t-28.5 12q-14 -1 -22.5 -7t-12.5 -13q-5 -10 -7 -20l-24 -1q4 17 12 31q7 12 19.5 22t34.5 11
q30 2 46.5 -15.5t16.5 -44.5z" />
    <glyph glyph-name="uni1ED6" unicode="&#x1ed6;" horiz-adv-x="912" 
d="M398 1010l146 -160h-27l-125 137l-122 -137h-30l145 160h13zM394 800q163 0 278.5 -117t115.5 -283t-115.5 -283t-278.5 -117t-278.5 117t-115.5 283t115.5 283t278.5 117zM394 24q153 0 262 110t109 266t-109 266t-262 110q-154 0 -262.5 -110t-108.5 -266t108.5 -266
t262.5 -110zM448 1030q-12 0 -45.5 25t-58.5 25q-24 0 -41.5 -15t-34.5 -30l-25 1q1 28 37 58t62 30q27 0 58 -25t47 -25q59 -1 81 44l25 1q0 -25 -30 -55q-34 -34 -75 -34z" />
    <glyph glyph-name="uni1ED7" unicode="&#x1ed7;" horiz-adv-x="591" 
d="M268 800l146 -160h-27l-125 137l-122 -137h-30l145 160h13zM267 561q111 0 189.5 -82t78.5 -198q0 -117 -78.5 -199t-189.5 -82q-110 0 -188.5 82t-78.5 199q0 116 78.5 198t188.5 82zM267 22q102 0 173.5 75.5t71.5 181.5q0 107 -71.5 182t-173.5 75q-101 0 -172.5 -75
t-71.5 -182q0 -106 71.5 -181.5t172.5 -75.5zM345 800q-12 0 -45.5 25t-58.5 25q-24 0 -41.5 -15t-34.5 -30l-25 1q1 28 37 58t62 30q27 0 58 -25t47 -25q59 -1 81 44l25 1q0 -25 -30 -55q-34 -34 -75 -34z" />
    <glyph glyph-name="uni1ED8" unicode="&#x1ed8;" horiz-adv-x="912" 
d="M394 800q163 0 278.5 -117t115.5 -283t-115.5 -283t-278.5 -117t-278.5 117t-115.5 283t115.5 283t278.5 117zM394 24q153 0 262 110t109 266t-109 266t-262 110q-154 0 -262.5 -110t-108.5 -266t108.5 -266t262.5 -110zM433 -162q0 -42 -36 -42q-41 0 -41 42q0 17 12 28
t28 11q17 0 27 -11t10 -28zM399 1030l146 -160h-27l-125 137l-122 -137h-30l145 160h13z" />
    <glyph glyph-name="uni1ED9" unicode="&#x1ed9;" horiz-adv-x="603" 
d="M267 561q111 0 189.5 -82t78.5 -198q0 -117 -78.5 -199t-189.5 -82q-110 0 -188.5 82t-78.5 199q0 116 78.5 198t188.5 82zM267 22q102 0 173.5 75.5t71.5 181.5q0 107 -71.5 182t-173.5 75q-101 0 -172.5 -75t-71.5 -182q0 -106 71.5 -181.5t172.5 -75.5zM284 -162
q0 -42 -36 -42q-41 0 -41 42q0 17 12 28t28 11q17 0 27 -11t10 -28zM261 800l146 -160h-27l-125 137l-122 -137h-30l145 160h13z" />
    <glyph glyph-name="uni1EDA" unicode="&#x1eda;" horiz-adv-x="912" 
d="M394 800q163 0 278 -117q12 -12 23 -25q27 15 34 42h-23v100h51v-59q-1 -72 -49 -99q80 -104 80 -242q0 -166 -115.5 -283t-278.5 -117t-278.5 117t-115.5 283t115.5 283t278.5 117zM394 24q153 0 262 110t109 266t-109 266t-262 110q-154 0 -262.5 -110t-108.5 -266
t108.5 -266t262.5 -110zM445 848h-76l185 146h75z" />
    <glyph glyph-name="uni1EDB" unicode="&#x1edb;" horiz-adv-x="603" 
d="M267 561q111 0 189 -82q9 -10 17 -19q22 14 28 40h-23v75h51v-34q-1 -72 -43 -99q49 -70 49 -161q0 -117 -78.5 -199t-189.5 -82q-110 0 -188.5 82t-78.5 199q0 116 78.5 198t188.5 82zM267 22q102 0 173.5 75.5t71.5 181.5q0 107 -71.5 182t-173.5 75q-101 0 -172.5 -75
t-71.5 -182q0 -106 71.5 -181.5t172.5 -75.5zM297 654h-76l185 146h75z" />
    <glyph glyph-name="uni1EDC" unicode="&#x1edc;" horiz-adv-x="912" 
d="M296 991h75l185 -146h-76zM394 800q163 0 278 -117q12 -12 23 -25q27 15 34 42h-23v100h51v-59q-1 -72 -49 -99q80 -104 80 -242q0 -166 -115.5 -283t-278.5 -117t-278.5 117t-115.5 283t115.5 283t278.5 117zM394 24q153 0 262 110t109 266t-109 266t-262 110
q-154 0 -262.5 -110t-108.5 -266t108.5 -266t262.5 -110z" />
    <glyph glyph-name="uni1EDD" unicode="&#x1edd;" horiz-adv-x="603" 
d="M267 561q111 0 189 -82q9 -10 17 -19q22 14 28 40h-23v75h51v-34q-1 -72 -43 -99q49 -70 49 -161q0 -117 -78.5 -199t-189.5 -82q-110 0 -188.5 82t-78.5 199q0 116 78.5 198t188.5 82zM267 22q102 0 173.5 75.5t71.5 181.5q0 107 -71.5 182t-173.5 75q-101 0 -172.5 -75
t-71.5 -182q0 -106 71.5 -181.5t172.5 -75.5zM370.006 654h75.9961l-184.989 146h-74.9951z" />
    <glyph glyph-name="uni1EDE" unicode="&#x1ede;" horiz-adv-x="912" 
d="M394 800q163 0 278 -117q12 -12 23 -25q27 15 34 42h-23v100h51v-59q-1 -72 -49 -99q80 -104 80 -242q0 -166 -115.5 -283t-278.5 -117t-278.5 117t-115.5 283t115.5 283t278.5 117zM394 24q153 0 262 110t109 266t-109 266t-262 110q-154 0 -262.5 -110t-108.5 -266
t108.5 -266t262.5 -110zM497 990q1 -21 -8 -33.5t-20 -21.5t-20 -18t-8 -23l1 -14h-23l-1 13q-1 16 8 27.5t20 22t19.5 21t7.5 25.5q-2 13 -10.5 26t-28.5 12q-14 -1 -22.5 -7t-12.5 -13q-5 -10 -7 -20l-24 -1q4 17 12 31q7 12 19.5 22t34.5 11q30 2 46.5 -15.5t16.5 -44.5z
" />
    <glyph glyph-name="uni1EDF" unicode="&#x1edf;" horiz-adv-x="603" 
d="M267 561q111 0 189 -82q9 -10 17 -19q22 14 28 40h-23v75h51v-34q-1 -72 -43 -99q49 -70 49 -161q0 -117 -78.5 -199t-189.5 -82q-110 0 -188.5 82t-78.5 199q0 116 78.5 198t188.5 82zM267 22q102 0 173.5 75.5t71.5 181.5q0 107 -71.5 182t-173.5 75q-101 0 -172.5 -75
t-71.5 -182q0 -106 71.5 -181.5t172.5 -75.5zM343 760q1 -21 -8 -33.5t-20 -21.5t-20 -18t-8 -23l1 -14h-23l-1 13q-1 16 8 27.5t20 22t19.5 21t7.5 25.5q-2 13 -10.5 26t-28.5 12q-14 -1 -22.5 -7t-12.5 -13q-5 -10 -7 -20l-24 -1q4 17 12 31q7 12 19.5 22t34.5 11
q30 2 46.5 -15.5t16.5 -44.5z" />
    <glyph glyph-name="uni1EE0" unicode="&#x1ee0;" horiz-adv-x="912" 
d="M394 800q163 0 278 -117q12 -12 23 -25q27 15 34 42h-23v100h51v-59q-1 -72 -49 -99q80 -104 80 -242q0 -166 -115.5 -283t-278.5 -117t-278.5 117t-115.5 283t115.5 283t278.5 117zM394 24q153 0 262 110t109 266t-109 266t-262 110q-154 0 -262.5 -110t-108.5 -266
t108.5 -266t262.5 -110zM472 844q-12 0 -45.5 25t-58.5 25q-24 0 -41.5 -15t-34.5 -30l-25 1q1 28 37 58t62 30q27 0 58 -25t47 -25q59 -1 81 44l25 1q0 -25 -30 -55q-34 -34 -75 -34z" />
    <glyph glyph-name="uni1EE1" unicode="&#x1ee1;" horiz-adv-x="603" 
d="M267 561q111 0 189 -82q9 -10 17 -19q22 14 28 40h-23v75h51v-34q-1 -72 -43 -99q49 -70 49 -161q0 -117 -78.5 -199t-189.5 -82q-110 0 -188.5 82t-78.5 199q0 116 78.5 198t188.5 82zM267 22q102 0 173.5 75.5t71.5 181.5q0 107 -71.5 182t-173.5 75q-101 0 -172.5 -75
t-71.5 -182q0 -106 71.5 -181.5t172.5 -75.5zM351 704q-12 0 -45.5 25t-58.5 25q-24 0 -41.5 -15t-34.5 -30l-25 1q1 28 37 58t62 30q27 0 58 -25t47 -25q59 -1 81 44l25 1q0 -25 -30 -55q-34 -34 -75 -34z" />
    <glyph glyph-name="uni1EE2" unicode="&#x1ee2;" horiz-adv-x="912" 
d="M394 800q163 0 278 -117q12 -12 23 -25q27 15 34 42h-23v100h51v-59q-1 -72 -49 -99q80 -104 80 -242q0 -166 -115.5 -283t-278.5 -117t-278.5 117t-115.5 283t115.5 283t278.5 117zM394 24q153 0 262 110t109 266t-109 266t-262 110q-154 0 -262.5 -110t-108.5 -266
t108.5 -266t262.5 -110zM433 -162q0 -42 -36 -42q-41 0 -41 42q0 17 12 28t28 11q17 0 27 -11t10 -28z" />
    <glyph glyph-name="uni1EE3" unicode="&#x1ee3;" horiz-adv-x="603" 
d="M267 561q111 0 189 -82q9 -10 17 -19q22 14 28 40h-23v75h51v-34q-1 -72 -43 -99q49 -70 49 -161q0 -117 -78.5 -199t-189.5 -82q-110 0 -188.5 82t-78.5 199q0 116 78.5 198t188.5 82zM267 22q102 0 173.5 75.5t71.5 181.5q0 107 -71.5 182t-173.5 75q-101 0 -172.5 -75
t-71.5 -182q0 -106 71.5 -181.5t172.5 -75.5zM311 -162q0 -42 -36 -42q-41 0 -41 42q0 17 12 28t28 11q17 0 27 -11t10 -28z" />
    <glyph glyph-name="uni1EE4" unicode="&#x1ee4;" horiz-adv-x="703" 
d="M544 786q0 15 13 15t13 -15v-322q0 -236 -50 -344q-55 -120 -185 -120q-128 0 -186 89q-57 86 -56 267l2 301q0 33 -28 73q-31 43 -67 45v25q18 -1 124 0q-7 -31 -6 -434q0 -184 56 -265q51 -74 163 -74q207 0 207 376v383zM350 -162q0 -42 -36 -42q-41 0 -41 42
q0 17 12 28t28 11q17 0 27 -11t10 -28z" />
    <glyph glyph-name="uni1EE5" unicode="&#x1ee5;" horiz-adv-x="593" 
d="M437 189q0 -65 27 -110q24 -41 55 -44l3 -35h-106v56q-59 -50 -139 -50q-76 0 -113 29q-54 42 -50 156q2 67 0 177q-6 158 -96 158q-9 0 -18 -1v19q46 14 139 31l-3 -412q-1 -133 139 -133q30 0 68 12q45 15 72 40l1 320q0 108 -92 109v30q17 2 45 16q32 16 48 20
q4 2 7 2q17 0 17 -52q0 -14 -1 -33q-1 -10 -2 -21q-3 -89 -1 -284zM305 -162q0 -42 -36 -42q-41 0 -41 42q0 17 12 28t28 11q17 0 27 -11t10 -28z" />
    <glyph glyph-name="uni1EE6" unicode="&#x1ee6;" horiz-adv-x="703" 
d="M544 786q0 15 13 15t13 -15v-322q0 -236 -50 -344q-55 -120 -185 -120q-128 0 -186 89q-57 86 -56 267l2 301q0 33 -28 73q-31 43 -67 45v25q18 -1 124 0q-7 -31 -6 -434q0 -184 56 -265q51 -74 163 -74q207 0 207 376v383zM393 990q1 -21 -8 -33.5t-20 -21.5t-20 -18
t-8 -23l1 -14h-23l-1 13q-1 16 8 27.5t20 22t19.5 21t7.5 25.5q-2 13 -10.5 26t-28.5 12q-14 -1 -22.5 -7t-12.5 -13q-5 -10 -7 -20l-24 -1q4 17 12 31q7 12 19.5 22t34.5 11q30 2 46.5 -15.5t16.5 -44.5z" />
    <glyph glyph-name="uni1EE7" unicode="&#x1ee7;" horiz-adv-x="593" 
d="M437 189q0 -65 27 -110q24 -41 55 -44l3 -35h-106v56q-59 -50 -139 -50q-76 0 -113 29q-54 42 -50 156q2 67 0 177q-6 158 -96 158q-9 0 -18 -1v19q46 14 139 31l-3 -412q-1 -133 139 -133q30 0 68 12q45 15 72 40l1 320q0 108 -92 109v30q17 2 45 16q32 16 48 20
q4 2 7 2q17 0 17 -52q0 -14 -1 -33q-1 -10 -2 -21q-3 -89 -1 -284zM338 760q1 -21 -8 -33.5t-20 -21.5t-20 -18t-8 -23l1 -14h-23l-1 13q-1 16 8 27.5t20 22t19.5 21t7.5 25.5q-2 13 -10.5 26t-28.5 12q-14 -1 -22.5 -7t-12.5 -13q-5 -10 -7 -20l-24 -1q4 17 12 31
q7 12 19.5 22t34.5 11q30 2 46.5 -15.5t16.5 -44.5z" />
    <glyph glyph-name="uni1EE8" unicode="&#x1ee8;" horiz-adv-x="705" 
d="M544 786q0 15 13 15t13 -15v-132q37 14 45 46h-23v100h51v-59q-1 -86 -69 -108l-4 -2v-167q0 -236 -50 -344q-55 -120 -185 -120q-128 0 -186 89q-57 86 -56 267l2 301q0 33 -28 73q-31 43 -67 45v25q18 -1 124 0q-7 -31 -6 -434q0 -184 56 -265q51 -74 163 -74
q207 0 207 376v383zM334 848h-76l185 146h75z" />
    <glyph glyph-name="uni1EE9" unicode="&#x1ee9;" horiz-adv-x="593" 
d="M437 189q0 -65 27 -110q24 -41 55 -44l3 -35h-106v56q-59 -50 -139 -50q-76 0 -113 29q-54 42 -50 156q2 67 0 177q-6 158 -96 158q-9 0 -18 -1v19q46 14 139 31l-3 -412q-1 -133 139 -133q30 0 68 12q45 15 72 40l1 320q0 108 1 168q8 8 19 0q4 -11 0 -120q38 18 46 50
h-23v75h51v-34q-1 -86 -74 -116q-1 -87 1 -236zM271 654h-76l185 146h75z" />
    <glyph glyph-name="uni1EEA" unicode="&#x1eea;" horiz-adv-x="705" 
d="M215 991h75l185 -146h-76zM544 786q0 15 13 15t13 -15v-132q37 14 45 46h-23v100h51v-59q-1 -86 -69 -108l-4 -2v-167q0 -236 -50 -344q-55 -120 -185 -120q-128 0 -186 89q-57 86 -56 267l2 301q0 33 -28 73q-31 43 -67 45v25q18 -1 124 0q-7 -31 -6 -434
q0 -184 56 -265q51 -74 163 -74q207 0 207 376v383z" />
    <glyph glyph-name="uni1EEB" unicode="&#x1eeb;" horiz-adv-x="593" 
d="M437 189q0 -65 27 -110q24 -41 55 -44l3 -35h-106v56q-59 -50 -139 -50q-76 0 -113 29q-54 42 -50 156q2 67 0 177q-6 158 -96 158q-9 0 -18 -1v19q46 14 139 31l-3 -412q-1 -133 139 -133q30 0 68 12q45 15 72 40l1 320q0 108 1 168q8 8 19 0q4 -11 0 -120q38 18 46 50
h-23v75h51v-34q-1 -86 -74 -116q-1 -87 1 -236zM291.006 654h75.9961l-184.989 146h-74.9951z" />
    <glyph glyph-name="uni1EEC" unicode="&#x1eec;" horiz-adv-x="705" 
d="M544 786q0 15 13 15t13 -15v-132q37 14 45 46h-23v100h51v-59q-1 -86 -69 -108l-4 -2v-167q0 -236 -50 -344q-55 -120 -185 -120q-128 0 -186 89q-57 86 -56 267l2 301q0 33 -28 73q-31 43 -67 45v25q18 -1 124 0q-7 -31 -6 -434q0 -184 56 -265q51 -74 163 -74
q207 0 207 376v383zM394 990q1 -21 -8 -33.5t-20 -21.5t-20 -18t-8 -23l1 -14h-23l-1 13q-1 16 8 27.5t20 22t19.5 21t7.5 25.5q-2 13 -10.5 26t-28.5 12q-14 -1 -22.5 -7t-12.5 -13q-5 -10 -7 -20l-24 -1q4 17 12 31q7 12 19.5 22t34.5 11q30 2 46.5 -15.5t16.5 -44.5z" />
    <glyph glyph-name="uni1EED" unicode="&#x1eed;" horiz-adv-x="593" 
d="M437 189q0 -65 27 -110q24 -41 55 -44l3 -35h-106v56q-59 -50 -139 -50q-76 0 -113 29q-54 42 -50 156q2 67 0 177q-6 158 -96 158q-9 0 -18 -1v19q46 14 139 31l-3 -412q-1 -133 139 -133q30 0 68 12q45 15 72 40l1 320q0 108 1 168q8 8 19 0q4 -11 0 -120q38 18 46 50
h-23v75h51v-34q-1 -86 -74 -116q-1 -87 1 -236zM338 760q1 -21 -8 -33.5t-20 -21.5t-20 -18t-8 -23l1 -14h-23l-1 13q-1 16 8 27.5t20 22t19.5 21t7.5 25.5q-2 13 -10.5 26t-28.5 12q-14 -1 -22.5 -7t-12.5 -13q-5 -10 -7 -20l-24 -1q4 17 12 31q7 12 19.5 22t34.5 11
q30 2 46.5 -15.5t16.5 -44.5z" />
    <glyph glyph-name="uni1EEE" unicode="&#x1eee;" horiz-adv-x="705" 
d="M544 786q0 15 13 15t13 -15v-132q37 14 45 46h-23v100h51v-59q-1 -86 -69 -108l-4 -2v-167q0 -236 -50 -344q-55 -120 -185 -120q-128 0 -186 89q-57 86 -56 267l2 301q0 33 -28 73q-31 43 -67 45v25q18 -1 124 0q-7 -31 -6 -434q0 -184 56 -265q51 -74 163 -74
q207 0 207 376v383zM402 844q-12 0 -45.5 25t-58.5 25q-24 0 -41.5 -15t-34.5 -30l-25 1q1 28 37 58t62 30q27 0 58 -25t47 -25q59 -1 81 44l25 1q0 -25 -30 -55q-34 -34 -75 -34z" />
    <glyph glyph-name="uni1EEF" unicode="&#x1eef;" horiz-adv-x="593" 
d="M437 189q0 -65 27 -110q24 -41 55 -44l3 -35h-106v56q-59 -50 -139 -50q-76 0 -113 29q-54 42 -50 156q2 67 0 177q-6 158 -96 158q-9 0 -18 -1v19q46 14 139 31l-3 -412q-1 -133 139 -133q30 0 68 12q45 15 72 40l1 320q0 108 1 168q8 8 19 0q4 -11 0 -120q38 18 46 50
h-23v75h51v-34q-1 -86 -74 -116q-1 -87 1 -236zM346 704q-12 0 -45.5 25t-58.5 25q-24 0 -41.5 -15t-34.5 -30l-25 1q1 28 37 58t62 30q27 0 58 -25t47 -25q59 -1 81 44l25 1q0 -25 -30 -55q-34 -34 -75 -34z" />
    <glyph glyph-name="uni1EF0" unicode="&#x1ef0;" horiz-adv-x="705" 
d="M544 786q0 15 13 15t13 -15v-132q37 14 45 46h-23v100h51v-59q-1 -86 -69 -108l-4 -2v-167q0 -236 -50 -344q-55 -120 -185 -120q-128 0 -186 89q-57 86 -56 267l2 301q0 33 -28 73q-31 43 -67 45v25q18 -1 124 0q-7 -31 -6 -434q0 -184 56 -265q51 -74 163 -74
q207 0 207 376v383zM344 -162q0 -42 -36 -42q-41 0 -41 42q0 17 12 28t28 11q17 0 27 -11t10 -28z" />
    <glyph glyph-name="uni1EF1" unicode="&#x1ef1;" horiz-adv-x="593" 
d="M437 189q0 -65 27 -110q24 -41 55 -44l3 -35h-106v56q-59 -50 -139 -50q-76 0 -113 29q-54 42 -50 156q2 67 0 177q-6 158 -96 158q-9 0 -18 -1v19q46 14 139 31l-3 -412q-1 -133 139 -133q30 0 68 12q45 15 72 40l1 320q0 108 1 168q8 8 19 0q4 -11 0 -120q38 18 46 50
h-23v75h51v-34q-1 -86 -74 -116q-1 -87 1 -236zM306 -162q0 -42 -36 -42q-41 0 -41 42q0 17 12 28t28 11q17 0 27 -11t10 -28z" />
    <glyph glyph-name="Ygrave" unicode="&#x1ef2;" horiz-adv-x="521" 
d="M129 991h75l185 -146h-76zM306 125q1 -32 19 -64q22 -38 54 -41l1 -20q-86 2 -176 0l2 20q31 3 53 41q18 32 19 64q0 -3 -2 319q-52 91 -153 265q-37 61 -120 65l-3 26h103q8 -17 187 -328l215 324q4 3 14 2q9 -1 9 -5q0 -5 -101 -161q-94 -145 -124 -188q-3 -202 3 -319
z" />
    <glyph glyph-name="ygrave" unicode="&#x1ef3;" horiz-adv-x="587" 
d="M433 461q-2 -52 1 -272q3 -210 2 -215q-12 -87 -39 -122q-39 -52 -135 -52q-25 0 -61.5 11.5t-36.5 19.5q0 11 11 11q3 0 38 -10t50 -10q45 -3 78 14q77 39 77 170q0 34 -6 75q-27 -23 -81 -40q-49 -16 -82 -16q-69 0 -100 28q-44 40 -41 149q1 58 -2 162q-3 163 -85 163
q-10 0 -21 -3v18q44 13 132 28l-2 -396q-1 -126 131 -126q28 0 73 16q52 18 78 42l-4 325q-1 80 -93 81v29q28 3 107 25q12 3 12 -16q-1 -44 -1 -89zM291.006 654h75.9961l-184.989 146h-74.9951z" />
    <glyph glyph-name="uni1EF4" unicode="&#x1ef4;" horiz-adv-x="521" 
d="M306 125q1 -32 19 -64q22 -38 54 -41l1 -20q-86 2 -176 0l2 20q31 3 53 41q18 32 19 64q0 -3 -2 319q-52 91 -153 265q-37 61 -120 65l-3 26h103q8 -17 187 -328l215 324q4 3 14 2q9 -1 9 -5q0 -5 -101 -161q-94 -145 -124 -188q-3 -202 3 -319zM326 -162q0 -42 -36 -42
q-41 0 -41 42q0 17 12 28t28 11q17 0 27 -11t10 -28z" />
    <glyph glyph-name="uni1EF5" unicode="&#x1ef5;" horiz-adv-x="587" 
d="M433 461q-2 -52 1 -272q3 -210 2 -215q-12 -87 -39 -122q-39 -52 -135 -52q-25 0 -61.5 11.5t-36.5 19.5q0 11 11 11q3 0 38 -10t50 -10q45 -3 78 14q77 39 77 170q0 34 -6 75q-27 -23 -81 -40q-49 -16 -82 -16q-69 0 -100 28q-44 40 -41 149q1 58 -2 162q-3 163 -85 163
q-10 0 -21 -3v18q44 13 132 28l-2 -396q-1 -126 131 -126q28 0 73 16q52 18 78 42l-4 325q-1 80 -93 81v29q28 3 107 25q12 3 12 -16q-1 -44 -1 -89zM506 -162q0 -42 -36 -42q-41 0 -41 42q0 17 12 28t28 11q17 0 27 -11t10 -28z" />
    <glyph glyph-name="uni1EF6" unicode="&#x1ef6;" horiz-adv-x="521" 
d="M306 125q1 -32 19 -64q22 -38 54 -41l1 -20q-86 2 -176 0l2 20q31 3 53 41q18 32 19 64q0 -3 -2 319q-52 91 -153 265q-37 61 -120 65l-3 26h103q8 -17 187 -328l215 324q4 3 14 2q9 -1 9 -5q0 -5 -101 -161q-94 -145 -124 -188q-3 -202 3 -319zM302 990q1 -21 -8 -33.5
t-20 -21.5t-20 -18t-8 -23l1 -14h-23l-1 13q-1 16 8 27.5t20 22t19.5 21t7.5 25.5q-2 13 -10.5 26t-28.5 12q-14 -1 -22.5 -7t-12.5 -13q-5 -10 -7 -20l-24 -1q4 17 12 31q7 12 19.5 22t34.5 11q30 2 46.5 -15.5t16.5 -44.5z" />
    <glyph glyph-name="uni1EF7" unicode="&#x1ef7;" horiz-adv-x="587" 
d="M433 461q-2 -52 1 -272q3 -210 2 -215q-12 -87 -39 -122q-39 -52 -135 -52q-25 0 -61.5 11.5t-36.5 19.5q0 11 11 11q3 0 38 -10t50 -10q45 -3 78 14q77 39 77 170q0 34 -6 75q-27 -23 -81 -40q-49 -16 -82 -16q-69 0 -100 28q-44 40 -41 149q1 58 -2 162q-3 163 -85 163
q-10 0 -21 -3v18q44 13 132 28l-2 -396q-1 -126 131 -126q28 0 73 16q52 18 78 42l-4 325q-1 80 -93 81v29q28 3 107 25q12 3 12 -16q-1 -44 -1 -89zM335 760q1 -21 -8 -33.5t-20 -21.5t-20 -18t-8 -23l1 -14h-23l-1 13q-1 16 8 27.5t20 22t19.5 21t7.5 25.5q-2 13 -10.5 26
t-28.5 12q-14 -1 -22.5 -7t-12.5 -13q-5 -10 -7 -20l-24 -1q4 17 12 31q7 12 19.5 22t34.5 11q30 2 46.5 -15.5t16.5 -44.5z" />
    <glyph glyph-name="uni1EF8" unicode="&#x1ef8;" horiz-adv-x="521" 
d="M306 125q1 -32 19 -64q22 -38 54 -41l1 -20q-86 2 -176 0l2 20q31 3 53 41q18 32 19 64q0 -3 -2 319q-52 91 -153 265q-37 61 -120 65l-3 26h103q8 -17 187 -328l215 324q4 3 14 2q9 -1 9 -5q0 -5 -101 -161q-94 -145 -124 -188q-3 -202 3 -319zM342 844q-12 0 -45.5 25
t-58.5 25q-24 0 -41.5 -15t-34.5 -30l-25 1q1 28 37 58t62 30q27 0 58 -25t47 -25q59 -1 81 44l25 1q0 -25 -30 -55q-34 -34 -75 -34z" />
    <glyph glyph-name="uni1EF9" unicode="&#x1ef9;" horiz-adv-x="587" 
d="M433 461q-2 -52 1 -272q3 -210 2 -215q-12 -87 -39 -122q-39 -52 -135 -52q-25 0 -61.5 11.5t-36.5 19.5q0 11 11 11q3 0 38 -10t50 -10q45 -3 78 14q77 39 77 170q0 34 -6 75q-27 -23 -81 -40q-49 -16 -82 -16q-69 0 -100 28q-44 40 -41 149q1 58 -2 162q-3 163 -85 163
q-10 0 -21 -3v18q44 13 132 28l-2 -396q-1 -126 131 -126q28 0 73 16q52 18 78 42l-4 325q-1 80 -93 81v29q28 3 107 25q12 3 12 -16q-1 -44 -1 -89zM343 704q-12 0 -45.5 25t-58.5 25q-24 0 -41.5 -15t-34.5 -30l-25 1q1 28 37 58t62 30q27 0 58 -25t47 -25q59 -1 81 44
l25 1q0 -25 -30 -55q-34 -34 -75 -34z" />
    <glyph glyph-name="endash" unicode="&#x2013;" horiz-adv-x="684" 
d="M48 303h568l-31 -47h-568z" />
    <glyph glyph-name="emdash" unicode="&#x2014;" horiz-adv-x="1042" 
d="M88 303h886l-31 -47h-886z" />
    <glyph glyph-name="quoteleft" unicode="&#x2018;" horiz-adv-x="99" 
d="M52 745q23 0 38.5 -15.5t15.5 -38.5q0 -22 -17 -38.5t-38 -16.5q-56 2 -56 68q0 40 21 68q18 26 38 26q7 0 7 -2q0 -3 -11 -4t-19 -10q-12 -14 -16 -49q15 12 37 12z" />
    <glyph glyph-name="quoteright" unicode="&#x2019;" horiz-adv-x="255" 
d="M50 687q-23 0 -38.5 15.5t-15.5 38.5q0 22 17 38.5t38 16.5q56 -2 56 -68q0 -40 -19.5 -67t-39.5 -27q-7 0 -7 2q0 3 11 4t19 10q12 14 16 49q-15 -12 -37 -12z" />
    <glyph glyph-name="quotesinglbase" unicode="&#x201a;" horiz-adv-x="257" 
d="M50 -3q-23 0 -38.5 15.5t-15.5 38.5q0 22 17 38.5t38 16.5q56 -2 56 -68q0 -40 -19.5 -67t-39.5 -27q-7 0 -7 2q0 3 11 4t19 10q12 14 16 49q-15 -12 -37 -12z" />
    <glyph glyph-name="quotedblleft" unicode="&#x201c;" horiz-adv-x="408" 
d="M220 741q23 0 38.5 -15.5t15.5 -38.5q0 -22 -17 -38.5t-38 -16.5q-56 2 -56 68q0 40 21 68q18 26 38 26q7 0 7 -2q0 -3 -11 -4t-19 -10q-12 -14 -16 -49q15 12 37 12zM63 742q24 0 39 -15t15 -38t-17 -39.5t-37 -15.5q-56 1 -56 67q0 40 20 69q19 26 39 26q6 0 6 -3
t-9 -4q-13 -1 -20 -10q-12 -14 -16 -48q15 11 36 11z" />
    <glyph glyph-name="quotedblright" unicode="&#x201d;" horiz-adv-x="411" 
d="M207 686q-24 0 -39 15t-15 38t17 39.5t37 15.5q56 -1 56 -67q0 -40 -19.5 -67.5t-39.5 -27.5q-6 0 -6 3t9 4q13 1 20 10q12 14 16 48q-15 -11 -36 -11zM50 687q-23 0 -38.5 15.5t-15.5 38.5q0 22 17 38.5t38 16.5q56 -2 56 -68q0 -40 -19.5 -67t-39.5 -27q-7 0 -7 2
q0 3 11 4t19 10q12 14 16 49q-15 -12 -37 -12z" />
    <glyph glyph-name="quotedblbase" unicode="&#x201e;" horiz-adv-x="413" 
d="M207 -4q-24 0 -39 15t-15 38t17 39.5t37 15.5q56 -1 56 -67q0 -40 -19.5 -67.5t-39.5 -27.5q-6 0 -6 3t9 4q13 1 20 10q12 14 16 48q-15 -11 -36 -11zM50 -3q-23 0 -38.5 15.5t-15.5 38.5q0 22 17 38.5t38 16.5q56 -2 56 -68q0 -40 -19.5 -67t-39.5 -27q-7 0 -7 2
q0 3 11 4t19 10q12 14 16 49q-15 -12 -37 -12z" />
    <glyph glyph-name="dagger" unicode="&#x2020;" horiz-adv-x="458" 
d="M414 543v-39h-167l-13 -344l-27 -292l-27 292l-23 344h-157v39h155l-11 257h111l-7 -257h166z" />
    <glyph glyph-name="daggerdbl" unicode="&#x2021;" horiz-adv-x="538" 
d="M414 504h-167l-7 -211h174v-39h-176l-3 -110l-27 -276l-27 276l-6 110h-175v39h173l-11 211h-162v39h160l-14 257h111l-9 -257h166v-39z" />
    <glyph glyph-name="bullet" unicode="&#x2022;" horiz-adv-x="455" 
d="M379 333q0 -69 -48.5 -117.5t-117.5 -48.5t-117.5 48.5t-48.5 117.5t48.5 117.5t117.5 48.5t117.5 -48.5t48.5 -117.5z" />
    <glyph glyph-name="ellipsis" unicode="&#x2026;" horiz-adv-x="940" 
d="M732 114q24 0 40.5 -17t16.5 -40q0 -24 -17 -40.5t-40 -16.5t-40 17t-17 40q0 24 17 40.5t40 16.5zM395 114q23 0 40 -17t17 -40q0 -24 -17 -40.5t-40 -16.5t-40 17t-17 40q0 24 16.5 40.5t40.5 16.5zM57 114q23 0 40 -17t17 -40q0 -24 -17 -40.5t-40 -16.5t-40 17
t-17 40q0 24 17 40.5t40 16.5z" />
    <glyph glyph-name="perthousand" unicode="&#x2030;" horiz-adv-x="1176" 
d="M983 309q64 0 109.5 -45.5t45.5 -109.5t-45.5 -109.5t-109.5 -45.5t-109 45.5t-45 109.5t45 109.5t109 45.5zM620 309q64 0 109 -45t45 -109q0 -65 -45 -110t-109 -45t-109.5 45t-45.5 110q0 64 45.5 109t109.5 45zM176 3l295 633h121l-295 -633h-121zM155 635
q64 0 109 -45t45 -109t-45 -109.5t-109 -45.5t-109.5 45.5t-45.5 109.5t45.5 109t109.5 45zM983 15q58 0 99 40.5t41 98.5t-41 98.5t-99 40.5q-57 0 -98 -40.5t-41 -98.5t41 -98.5t98 -40.5zM620 15q57 0 98 41t41 99q0 57 -41 98t-98 41q-58 0 -99 -41t-41 -98
q0 -58 41 -99t99 -41zM155 341q57 0 98 41t41 99q0 57 -41 98t-98 41q-58 0 -99 -41t-41 -98q0 -58 41 -99t99 -41z" />
    <glyph glyph-name="guilsinglleft" unicode="&#x2039;" horiz-adv-x="205" 
d="M94 431h28l-92 -137l92 -138h-28l-92 138z" />
    <glyph glyph-name="guilsinglright" unicode="&#x203a;" horiz-adv-x="175" 
d="M29 431l91 -137l-91 -138h-28l92 138l-92 137h28z" />
    <glyph glyph-name="fraction" unicode="&#x2044;" horiz-adv-x="659" 
d="M0 0l530 800h45l-530 -800h-45z" />
    <glyph glyph-name="trademark" unicode="&#x2122;" horiz-adv-x="686" 
d="M504 800q59 -343 58 -352q0 -6 -8 -3q-5 2 -58 330q-25 -53 -69 -122q29 -50 28 -52q0 -6 -7 -5q-3 1 -30 42q-28 -42 -31 -42q-7 -1 -7 5q0 1 29 50q-44 69 -69 123q-53 -328 -58 -329q-6 -3 -8 3q-2 4 58 351l9 1q23 -38 78 -133q61 101 75 133h10zM238 800q5 0 5 -6
q-1 -7 -5 -7h-60q-16 0 -33 -14.5t-17.5 -29t-0.5 -125.5q1 -108 1.5 -121t8.5 -26q10 -16 24 -17v-9q-33 1 -81 0l1 9q14 1 23 15t9.5 27t0.5 122q1 110 0 126t-18.5 29.5t-37.5 13.5h-57q-5 0 -5 7q-1 6 4 6h238z" />
    <glyph glyph-name="partialdiff" unicode="&#x2202;" horiz-adv-x="668" 
d="M482 257q4 16 10 38q17 81 17 164q0 115 -32.5 199.5t-88.5 102.5q-41 13 -78 13q-42 0 -84 -17q-36 -16 -39 -15q-13 3 -10 16q4 12 33 26q36 16 86 16q49 0 105 -17q70 -21 107 -113q31 -81 31 -202q0 -122 -31 -240q-60 -228 -236 -228q-40 0 -86 12q-86 23 -136 87
t-50 147q0 34 9 68q20 75 74.5 117.5t131.5 42.5q38 0 80 -11q69 -18 123 -84q42 -53 64 -122zM470 206q10 38 -46 124q-63 93 -134 109q-37 8 -71 8q-148 0 -185 -142q-9 -31 -9 -61q0 -74 44.5 -130.5t118.5 -76.5q43 -11 81 -11q153 0 201 180z" />
    <glyph glyph-name="product" unicode="&#x220f;" horiz-adv-x="918" 
d="M679 117q0 -55 30 -75q23 -16 79 -16v-26h-257v26q55 0 78 16q30 20 30 75v650h-486v-650q0 -55 30 -75q23 -16 79 -16v-26h-262v26q56 0 80 16q29 20 29 75v546q0 111 -107 111v26h783v-26q-106 0 -106 -111v-546z" />
    <glyph glyph-name="summation" unicode="&#x2211;" horiz-adv-x="733" 
d="M695 -134q-11 2 -693 2l384 470l-377 456q84 -2 647 -1q-4 -41 -226 -34h-323l343 -422l-347 -426h418q175 0 174 -45z" />
    <glyph glyph-name="radical" unicode="&#x221a;" horiz-adv-x="740" 
d="M0 373l196 102l218 -494l234 815l30 4l-254 -932l-253 553l-149 -80z" />
    <glyph glyph-name="infinity" unicode="&#x221e;" horiz-adv-x="740" 
d="M492 539q71 0 116.5 -57t45.5 -146q0 -106 -56 -170q-53 -59 -134 -64q-86 -4 -137 82q-50 -88 -137 -83q-81 4 -134 64q-56 64 -56 169q0 89 45.5 146t116.5 57q48 0 91 -23q50 -26 73 -74q1 -2 1 -9q0 10 1 11q23 48 73 74q43 23 91 23zM492 134q52 8 93 61
q44 58 44 133q0 84 -38 133.5t-99 49.5q-54 0 -97 -32q-52 -39 -61 -112v-80q0 -156 122 -156q17 0 36 3zM162 133q19 -3 36 -3q122 0 122 155v80q-9 73 -61 112q-43 33 -97 33q-61 0 -99.5 -50t-38.5 -134q0 -75 45 -133q41 -53 93 -60z" />
    <glyph glyph-name="integral" unicode="&#x222b;" horiz-adv-x="307" 
d="M91 680q0 67 52 104q24 16 46 16t41.5 -15.5t19.5 -37.5q0 -50 -44 -50q-20 0 -38 17q-12 10 -20 10q-20 0 -20 -31q0 -15 5 -72q6 -101 20 -284q5 -56 5 -130q0 -112 -10.5 -213.5t-25.5 -120.5q-25 -33 -65 -33q-26 0 -42 16.5t-16 42.5q0 45 44 45q19 0 33 -12
q15 -16 25 -16q19 0 19 28q0 9 -1 24l-4 33q-8 80 -17 159q-14 131 -13 170z" />
    <glyph glyph-name="approxequal" unicode="&#x2248;" horiz-adv-x="611" 
d="M364 302q-20 0 -88.5 40t-107.5 40q-82 0 -166 -77l-2 43q77 70 166 70q43 0 111 -40t85 -40q55 0 161 98l2 -43q-99 -91 -161 -91zM374 202q-20 0 -88.5 40t-107.5 40q-82 0 -166 -77l-4 43q78 70 166 70q43 0 111 -39.5t85 -39.5q55 0 162 97l3 -43q-99 -91 -161 -91z
" />
    <glyph glyph-name="approxequal" unicode="&#x22f2;" horiz-adv-x="611" 
d="M364 302q-20 0 -88.5 40t-107.5 40q-82 0 -166 -77l-2 43q77 70 166 70q43 0 111 -40t85 -40q55 0 161 98l2 -43q-99 -91 -161 -91zM374 202q-20 0 -88.5 40t-107.5 40q-82 0 -166 -77l-4 43q78 70 166 70q43 0 111 -39.5t85 -39.5q55 0 162 97l3 -43q-99 -91 -161 -91z
" />
    <glyph glyph-name="notequal" unicode="&#x2260;" horiz-adv-x="543" 
d="M513 380h-205l-76 -166h281v-21h-291l-89 -193h-33l89 193h-189v21h199l77 166h-276v22h285l105 226h32l-104 -226h195v-22z" />
    <glyph glyph-name="lessequal" unicode="&#x2264;" horiz-adv-x="640" 
d="M9 294v27l523 215l-9 -29l-483 -200l487 -204l5 -23zM5 8v21h531v-22z" />
    <glyph glyph-name="greaterequal" unicode="&#x2265;" horiz-adv-x="731" 
d="M629 294l-523 -214l5 23l487 204l-483 200l-9 29l523 -215v-27zM633 8l-531 -1v22h531v-21z" />
    <glyph glyph-name="lozenge" unicode="&#x25ca;" horiz-adv-x="576" 
d="M230 1l-230 400l236 398l31 1l235 -399l-230 -401zM251 754l-212 -353l212 -360l215 357z" />
    <glyph glyph-name="apple" unicode="&#xf000;" horiz-adv-x="1010" 
d="M408 668q-107 19 -149 19q-95 0 -163 -53q62 77 150 121q92 45 195 45t195 -45q89 -44 151 -122q-21 -25 -63 -25q-36 0 -150 26q-102 23 -166 34zM815 593q69 -108 69 -236q0 -105 -41.5 -197t-117.5 -153q5 8 9 24q6 23 7 26q4 10 4 21q0 24 -18.5 63t-18.5 50
q0 16 19 21h-38q-18 -17 -18 -33q0 -10 12 -31t12 -37q0 -12 -6 -25q-18 -42 -53 -52q-42 -5 -85 -10l-1 491q79 -15 97 -15q32 0 63 16q25 12 50 25q34 20 55 52zM452 303q0 39 1 116v117l70 -15v-498q-6 0 -20 -1q-13 -1 -21 0q-77 2 -134 28q-16 8 -41 27q53 33 72 48
q44 34 59 64q13 24 14 114zM356 309q3 -38 -14 -94t-39 -89q-7 -9 -24 -27q-22 24 -34 43q-39 62 -39 141q0 110 68 204q24 34 57 64zM178 452q-90 -100 -90 -220q0 -141 94 -232q-84 61 -133 155t-49 202q0 25 3 51v0q7 30 11 42q12 35 33 59q48 56 149 56q41 0 100 -10
q-43 -32 -61 -48q-32 -26 -57 -55zM721 248q32 0 54.5 22.5t22.5 54.5t-22.5 54.5t-54.5 22.5t-54.5 -22.5t-22.5 -54.5t22.5 -54.5t54.5 -22.5z" />
    <glyph glyph-name="fi" unicode="&#xf001;" horiz-adv-x="578" 
d="M360 780q21 0 36.5 -15t15.5 -36q0 -22 -15.5 -37t-36.5 -15q-20 0 -35 15.5t-15 36.5t15 36t35 15zM466 539q-48 -2 -73 -39q-20 -29 -21 -67q-6 -154 2 -317q1 -31 20 -59q21 -33 53 -35l1 -21q-69 2 -174 -1l1 21q32 2 54 35q18 28 20 59q7 163 1 317q-1 38 -21 67
q-25 37 -73 39v25h105q102 1 105 1v-25zM212 529q11 0 11 -16q0 -14 -10 -14h-95q0 -314 2 -367q1 -33 20 -67q22 -42 54 -44l1 -21q-87 2 -183 0l1 21q31 2 53 44q19 34 20 67q3 52 3 367h-89q-9 0 -9 15q0 16 10 16h88q0 115 0 113q-4 157 95 157q24 0 42.5 -10.5
t18.5 -21.5t-12 -11q-2 0 -18 9.5t-32 9.5q-30 0 -52 -31.5t-22 -75.5q0 -12 2 -24q7 -24 7 -116h94z" />
    <glyph glyph-name="fl" unicode="&#xf002;" horiz-adv-x="503" 
d="M416 39l1 -38q-77 -3 -153 0v37q61 5 61 131q6 402 4 491q-1 43 -26 56q-15 9 -52 7v33q25 5 50 19q22 12 44 25q7 4 7 -18q-1 -179 1 -384q2 -243 2 -228q0 -71 26 -106q17 -23 35 -25zM211 525q10 0 10 -16q0 -15 -9 -15h-95q0 -311 2 -363q1 -33 20 -67q22 -41 53 -43
l1 -21q-86 2 -182 0l2 20q31 3 53 44q18 34 20 67q2 51 2 364h-88q-9 0 -9 15t10 15h87q0 115 0 113q-4 155 94 155q24 0 42.5 -10.5t18.5 -20.5q0 -11 -12 -11q-2 0 -18 9.5t-32 9.5q-29 0 -51 -31.5t-22 -74.5q0 -12 2 -24q7 -24 7 -115h94z" />
    <glyph glyph-name="NULL" horiz-adv-x="0" 
 />
    </font>
</defs>
</svg>
