<?xml version="1.0" standalone="no"?>
<!DOCTYPE svg PUBLIC "-//W3C//DTD SVG 1.1//EN" "http://www.w3.org/Graphics/SVG/1.1/DTD/svg11.dtd" >
<svg xmlns="http://www.w3.org/2000/svg" xmlns:xlink="http://www.w3.org/1999/xlink" version="1.1">
<metadata>
Created by FontForge 20170731 at Fri Apr 12 00:07:31 2013
 By Aleksey,,,
Copyright (c) 2012 by Doan BC doanbc1502@gmail.com. All rights reserved.
</metadata>
<defs>
<font id="UVFChopinScript" horiz-adv-x="2202" >
  <font-face 
    font-family="UVF Chopin Script"
    font-weight="400"
    font-stretch="normal"
    units-per-em="2048"
    panose-1="2 0 5 5 9 0 0 2 0 4"
    ascent="1638"
    descent="-410"
    x-height="614"
    cap-height="1389"
    bbox="-1004 -872 3299 2003.12"
    underline-thickness="50"
    underline-position="-150"
    unicode-range="U+000D-FB02"
  />
<missing-glyph horiz-adv-x="522" 
 />
    <glyph glyph-name=".notdef" horiz-adv-x="522" 
 />
    <glyph glyph-name=".null" horiz-adv-x="1024" 
 />
    <glyph glyph-name=".null" horiz-adv-x="1024" 
 />
    <glyph glyph-name="nonmarkingreturn" unicode="&#xd;" horiz-adv-x="1024" 
 />
    <glyph glyph-name="glyph254" unicode=" " horiz-adv-x="270" 
 />
    <glyph glyph-name="exclam" unicode="!" horiz-adv-x="672" 
d="M842 1313q0 -101 -348 -600q-74 -107 -222 -344h-22q35 65 61 125q66 147 299 704q82 195 178 195q54 0 54 -80zM199 102q0 -47 -36 -83.5t-83 -36.5q-84 0 -84 100q0 47 35 85t82 38q86 0 86 -103z" />
    <glyph glyph-name="quotedbl" unicode="&#x22;" horiz-adv-x="446" 
d="M684 1278q0 -111 -104 -225q-54 -60 -95 -60q-18 4 -18 15q0 8 41 30q63 45 63 82q0 21 -14 27q-80 39 -80 100q0 47 34 86t81 39q39 0 65.5 -27.5t26.5 -66.5zM477 1278q0 -111 -104 -225q-54 -60 -94 -60q-19 4 -19 15q0 8 41 30q64 45 64 82q0 21 -15 27
q-80 39 -80 100q0 47 34 86t81 39q39 0 65.5 -27.5t26.5 -66.5z" />
    <glyph glyph-name="numbersign" unicode="#" horiz-adv-x="1014" 
d="M907 848l-69 -123h-207l-127 -227h209l-70 -123h-207l-207 -375h-43l207 375h-246l-204 -375h-43l204 375h-196l67 123h197l125 227h-197l68 123h197l182 332h45l-182 -332h243l183 332h45l-183 -332h209zM586 725h-244l-127 -227h244z" />
    <glyph glyph-name="dollar" unicode="$" horiz-adv-x="758" 
d="M688 872q0 -47 -31.5 -83.5t-78.5 -36.5q-78 0 -78 75q0 35 2 45q41 -22 63 -22q49 0 49 59q0 47 -33.5 75t-80.5 28q-54 0 -90.5 -36t-36.5 -89q0 -70 35 -146l63 -137q33 -72 33 -155q0 -119 -74 -187.5t-192 -68.5q-70 0 -119 12l-107 -199l-32 12l106 203
q-109 78 -109 197q0 78 52.5 137t128.5 59q57 0 98 -35.5t41 -91.5q0 -41 -29.5 -75.5t-70.5 -34.5q-43 0 -91 72q72 10 72 51q0 43 -51 43q-49 0 -80 -48.5t-31 -99.5q0 -67 49.5 -111t118.5 -44q64 0 117 48t53 111q0 29 -32 119l-68 187q-21 57 -21 110q0 107 76 170
q70 59 178 59q33 0 39 -2l68 125l29 -12l-64 -121q55 -16 92 -61t37 -101z" />
    <glyph glyph-name="percent" unicode="%" horiz-adv-x="1032" 
d="M1006 1227q0 -76 -242 -207q-229 -344 -578 -770q-73 -90 -168 -260q-14 -13 -38 -13h-25q-27 0 -51 -57l-25 2q80 244 260 428q54 56 140 152q200 227 403 491l-150 -26q-32 -97 -106 -183q-88 -102 -174 -102q-57 0 -95 43t-38 100q0 123 104 252q109 137 228 137
q98 0 98 -118q0 -43 -10 -95q106 11 180 41q153 220 246 220q41 0 41 -35zM780 428q0 -125 -86 -260q-96 -150 -215 -150q-57 0 -94 46.5t-37 105.5q0 113 105 244q108 139 217 139q110 0 110 -125zM971 1217q0 16 -19 16q-51 0 -159 -160q178 105 178 144zM514 1094
q0 69 -53 69q-27 0 -45.5 -22.5t-18.5 -50.5q0 -78 101 -84q16 53 16 88zM492 973q-62 14 -93 33q-22 20 -47 73q-112 -194 -112 -295q0 -55 51 -55q57 0 125 96q57 82 76 148zM741 406q0 100 -53 100q-74 0 -151 -156q-70 -139 -70 -227q0 -62 43 -62q78 0 158 136
q73 122 73 209z" />
    <glyph glyph-name="ampersand" unicode="&#x26;" horiz-adv-x="1749" 
d="M1776 1122q0 -174 -250 -288l-365 -166q113 -6 182.5 -84t69.5 -193q0 -188 -145 -303q-133 -106 -326 -106q-149 0 -276 67q-144 76 -195 203q-74 -19 -129 -19q-129 0 -223 74q-105 80 -105 205q0 51 23 90q26 47 74 49l-5 -86q-6 -110 65 -193t181 -83q31 0 99 10
q-19 86 -19 150q0 204 124 338.5t329 134.5q-72 96 -72 190q0 154 117 248q108 88 266 88q117 0 207 -53q108 -62 108 -170q0 -68 -51 -119t-119 -51q-96 0 -155 104l33 4q51 -76 124 -76q56 0 96 41t40 97q0 69 -54.5 106t-126.5 37q-129 0 -222 -93t-93 -222
q0 -125 113 -201l6 -23q-49 9 -105 9q-141 0 -237 -129q-90 -119 -90 -265q0 -32 2 -49q63 41 155 78q19 211 412 334q242 76 301 102q199 90 199 215q0 60 -53 131l14 15q76 -74 76 -148zM1196 373q0 55 -41 91t-98 36q-43 0 -127 -33q-10 -37 -10 -72q0 -65 42 -104
t107 -39q51 0 89 35t38 86zM1370 389q0 100 -70.5 169t-171.5 69q-63 0 -106 -31q-33 -25 -76 -86q84 20 117 20q72 0 126 -48t54 -117q0 -68 -53 -107t-123 -39q-96 0 -166 60.5t-72 154.5q-36 -18 -149 -86q16 -127 118.5 -215t231.5 -88q144 0 242 100.5t98 243.5z" />
    <glyph glyph-name="quotesingle" unicode="'" horiz-adv-x="0" 
d="M281 1278q0 -111 -105 -225q-53 -60 -94 -60q-19 4 -19 15q0 8 41 30q64 45 64 82q0 21 -14 27q-80 39 -80 100q0 47 33.5 86t80.5 39q39 0 66 -27.5t27 -66.5z" />
    <glyph glyph-name="parenleft" unicode="(" horiz-adv-x="696" 
d="M1221 1589q0 -30 -103 -100q-164 -111 -246 -186q-174 -160 -294 -365q-207 -350 -207 -729q0 -166 35 -275q38 -120 139 -237q104 -123 104 -131q0 -33 -22 -33q-47 0 -138 98q-258 283 -258 668q0 418 267 741q200 244 452 428q189 138 230 138t41 -17z" />
    <glyph glyph-name="parenright" unicode=")" horiz-adv-x="696" 
d="M655 838q0 -418 -266 -742q-196 -239 -450 -426q-187 -137 -230 -137q-41 0 -41 16q0 31 103 101q161 108 243 186q179 166 295 363q207 348 207 729q0 309 -174 514q-104 123 -104 131q0 33 22 33q47 0 137 -99q258 -282 258 -669z" />
    <glyph glyph-name="asterisk" unicode="*" horiz-adv-x="549" 
d="M797 1057q0 -37 -36 -56.5t-75 -19.5q-20 0 -58 11.5t-59 11.5q-18 0 -20 -21q0 -12 14 -29q60 -63 60 -80q0 -32 -29 -54.5t-64 -22.5q-57 0 -57 55q0 8 14.5 42t14.5 40q0 27 -4 29q-13 0 -83.5 -67t-101.5 -67q-55 0 -55 52q0 55 76 71q129 27 129 54q0 14 -96 28
q-39 15 -39 51q0 72 88 72q33 0 49 -24q37 -95 51 -95q16 6 25 49l22 107q31 45 80 45q59 0 59 -49q0 -27 -71 -92q-64 -45 -64 -60q4 -4 11 -4q24 0 88 45q36 27 75 27q56 0 56 -49z" />
    <glyph glyph-name="plus" unicode="+" horiz-adv-x="688" 
d="M537 565l-31 -30h-189l-141 -252h-143l141 252h-178l29 30h165l142 250h143l-141 -250h203z" />
    <glyph glyph-name="comma" unicode="," horiz-adv-x="500" 
d="M260 111q0 -109 -104 -224q-54 -59 -95 -59q-18 2 -18 14q0 8 41 31q63 45 63 82q0 20 -14 27q-80 36 -80 98q0 47 34 86t81 39q39 0 65.5 -27.5t26.5 -66.5z" />
    <glyph glyph-name="glyph256" unicode="-" horiz-adv-x="549" 
d="M479 389q0 -51 -57 -78q-45 -22 -103 -22q-34 0 -104 11t-104 11q-11 0 -32.5 -7t-29.5 -7q-12 0 -12 12q0 21 51 51q74 43 121 43q27 0 77 -8t76 -8q19 0 70 8l39 6q8 0 8 -12z" />
    <glyph glyph-name="period" unicode="." horiz-adv-x="500" 
d="M166 109q0 -33 -25.5 -58.5t-58.5 -25.5q-59 0 -59 69q0 33 24.5 58.5t56.5 25.5q62 0 62 -69z" />
    <glyph glyph-name="slash" unicode="/" horiz-adv-x="737" 
d="M852 1343q-168 -200 -475 -647q-322 -467 -381 -622q-37 -94 -109 -94q-12 0 -37 -35l-22 -33q-10 0 -10 12q0 72 143 307q297 488 856 1117z" />
    <glyph glyph-name="zero" unicode="0" horiz-adv-x="1069" 
d="M989 1001q0 -213 -121 -456q-114 -234 -280 -383q-197 -176 -393 -176q-113 0 -189 76.5t-76 189.5q0 199 131 440q119 221 281 369q197 178 389 178q117 0 187.5 -61.5t70.5 -176.5zM848 1057q0 160 -109 160q-118 0 -317 -283q-137 -195 -234 -393q-129 -265 -129 -400
q0 -49 40 -89t89 -40q121 0 285 207q127 160 242 399q133 277 133 439z" />
    <glyph glyph-name="one" unicode="1" horiz-adv-x="612" 
d="M653 1087q-30 -47 -178 -262q-205 -299 -280 -458q-58 -121 -117 -281q-47 -127 -62 -137q15 0 0 -2q-16 0 -49 -2t-82 2q-22 -31 -71 -80q41 149 84 252q77 190 307 485q96 123 149 203q-22 0 -202 -170l-48 -23q50 64 246 252q242 232 293 232q10 0 10 -11z" />
    <glyph glyph-name="two" unicode="2" horiz-adv-x="928" 
d="M852 909q0 -166 -162 -295q-104 -84 -309 -165l-281 -113q-61 -25 -174 -113q-92 -71 -92 -98q35 0 105.5 13.5t105.5 13.5q47 0 139 -18.5t140 -18.5q77 0 215 112q2 -6 2 -20q0 -98 -113 -178q-104 -76 -207 -76q-47 0 -139 21.5t-139 21.5q-68 0 -158 -12.5t-90 -24.5
q-10 2 -14 14v7q0 57 206 237q78 68 279 166q190 94 272 172q252 242 252 414q0 73 -56 119.5t-132 46.5q-96 0 -172 -65.5t-76 -160.5q0 -37 22.5 -67.5t59.5 -30.5q18 0 35.5 15.5t17.5 33.5q0 10 -8 32.5t-8 33.5q20 4 30 4q84 0 84 -96q0 -52 -37.5 -84.5t-91.5 -32.5
q-67 0 -107 44t-40 111q0 127 129 220q117 86 248 86q123 0 193.5 -73t70.5 -196z" />
    <glyph glyph-name="three" unicode="3" horiz-adv-x="995" 
d="M1063 1124l-627 -444q109 -10 174.5 -90t65.5 -191q0 -198 -168 -338q-160 -131 -363 -131q-114 0 -190 70t-76 184q0 80 58.5 153t136.5 73q53 0 94 -41t41 -95q0 -49 -32 -82.5t-81 -33.5q-47 0 -73 57q69 18 69 49q0 66 -61 66q-58 0 -92.5 -46t-34.5 -106
q0 -80 55 -125t137 -45q162 0 297 174q123 158 123 297q0 58 -42 90.5t-101 32.5q-37 0 -80 -24l-47 -27q-31 0 -31 14l539 373q-183 51 -250 49q-76 -2 -246 -72q127 209 317 209q54 0 158.5 -24.5t157.5 -24.5q65 0 172 49z" />
    <glyph glyph-name="four" unicode="4" horiz-adv-x="969" 
d="M911 1198q0 -35 -4 -45q-28 -78 -166 -184q-59 -45 -510 -361q-258 -180 -258 -252q0 -32 88 -45q64 -8 111 -6l150 8q188 295 442 576q37 41 53 41q0 -12 -348 -604l264 20q-10 -27 -47 -96q-49 0 -125 4l-112 6l-76 -178q-49 -117 -76 -117q-37 0 -104 21
q-19 -29 -76 -76q12 78 86 207q16 28 88 149l-207 6q-170 4 -170 66q0 49 203 217q334 276 622 598l115 -6z" />
    <glyph glyph-name="five" unicode="5" horiz-adv-x="924" 
d="M981 1196q0 -27 -49 -78q-41 -43 -76 -65q-53 -35 -70 -35q-45 0 -136 8t-136 8q-70 0 -147 -59l-127 -219q94 41 190 41q107 0 180 -97q70 -88 70 -198q0 -232 -174 -390.5t-408 -158.5q-104 0 -180 59q-82 64 -82 166q0 84 55.5 146.5t137.5 62.5q55 0 96 -40t41 -95
q0 -45 -31 -78t-76 -33q-41 0 -63 60q59 10 59 57q0 59 -69 59q-49 0 -86 -45t-37 -96q0 -88 63 -137q56 -43 148 -43q155 0 305 223q137 205 137 352q0 80 -47 134.5t-125 54.5q-53 0 -133 -72q-68 -61 -68 -72q0 -2 2 -2q-4 0 -4 7q6 30 29 69l217 379q27 47 85 78t116 31
q33 0 98.5 -21.5t97.5 -21.5q39 0 115 34l76 35q6 0 6 -8z" />
    <glyph glyph-name="six" unicode="6" horiz-adv-x="985" 
d="M1001 1069q0 -53 -40.5 -92t-94.5 -39q-39 0 -66.5 27.5t-27.5 66.5q0 35 31 43q35 -43 57 -43q62 0 62 80q0 92 -136 92q-213 0 -462 -489q94 59 192 59q100 0 166 -84q61 -76 61 -180q0 -205 -147 -377q-156 -180 -356 -180q-117 0 -199 81t-82 197q0 312 254 646
q266 350 573 350q78 0 142 -39q73 -45 73 -119zM602 596q0 135 -129 135q-201 0 -323 -395q-46 -146 -46 -227q0 -119 115 -119q119 0 256 246q127 227 127 360z" />
    <glyph glyph-name="seven" unicode="7" horiz-adv-x="893" 
d="M963 1210q0 -28 -218 -268l-477 -526q-73 -82 -178 -266q-74 -132 -90 -150l-33 10l-35 10q-67 0 -137 -90v19q4 24 4 28q0 66 170 306q189 266 363 374q194 121 364 275q115 102 152 158q-37 0 -108.5 -15.5t-108.5 -15.5q-35 0 -101.5 8t-101.5 8t-61 -6
q-72 -16 -185 -86q62 121 113 170q72 68 184 68q53 0 158.5 -23.5t159.5 -23.5q30 0 73 20l70 33q23 0 23 -17z" />
    <glyph glyph-name="eight" unicode="8" horiz-adv-x="1065" 
d="M1026 981q0 -129 -133 -215q-98 -66 -250 -96q117 -162 117 -291q0 -182 -146 -297q-133 -109 -319 -109q-141 0 -246 82q-112 88 -112 226q0 270 462 376q-55 109 -55 203q0 158 117 256q110 94 270 94q113 0 199 -57q96 -63 96 -172zM897 1024q0 166 -166 166
q-90 0 -166 -74t-76 -164q0 -67 35 -143q37 -82 92 -111q117 41 193 121q88 92 88 205zM596 330q0 102 -174 295q-137 -11 -233.5 -117.5t-96.5 -243.5q0 -98 51 -176q58 -88 152 -88q125 0 215 104q86 99 86 226z" />
    <glyph glyph-name="nine" unicode="9" horiz-adv-x="1004" 
d="M879 969q0 -201 -134 -445q-122 -227 -288 -370q-201 -174 -402 -174q-84 0 -153 40q-82 48 -82 125q0 48 47 88.5t94 40.5q92 0 92 -79q-4 -15 -28 -66q-35 49 -64 49q-57 0 -57 -69q0 -103 114 -103q144 0 283 172q70 86 184 295q-82 -37 -186 -37q-96 0 -152 84
q-49 74 -49 174q0 215 155 380t368 165q116 0 187 -77t71 -193zM743 1092q0 47 -24.5 86t-69.5 39q-125 0 -274 -246q-142 -232 -142 -369q0 -55 37 -95t92 -40q136 0 263 227q118 213 118 398z" />
    <glyph glyph-name="colon" unicode=":" horiz-adv-x="500" 
d="M389 518q0 -47 -36 -85t-83 -38q-86 0 -86 103q0 47 36 85t83 38q86 0 86 -103zM152 92q0 -47 -36 -84t-83 -37q-84 0 -84 101q0 47 34.5 85t82.5 38q86 0 86 -103z" />
    <glyph glyph-name="semicolon" unicode=";" horiz-adv-x="500" 
d="M369 518q0 -47 -36 -85t-83 -38q-86 0 -86 103q0 47 36 85t83 38q86 0 86 -103zM170 111q0 -109 -104 -224q-54 -59 -93 -59q-18 2 -18 14q0 11 12 17l29 14q61 45 61 82q0 20 -14 27q-78 36 -78 98q0 47 33 86t80 39q39 0 65.5 -27.5t26.5 -66.5z" />
    <glyph glyph-name="less" unicode="&#x3c;" horiz-adv-x="1008" 
d="M938 768v-127l-596 -246l596 -245v-130l-897 355z" />
    <glyph glyph-name="equal" unicode="=" horiz-adv-x="985" 
d="M825 688q0 -14 -28 -35q-105 -78 -226 -78q-53 0 -160.5 11.5t-160.5 11.5q-41 0 -120 -7t-120 -7q-10 0 -10 10q0 45 88 78q109 41 180 41q62 0 183.5 -11.5t183.5 -11.5q29 0 84 8.5t84 8.5q22 0 22 -19zM825 410q0 -15 -28 -35q-105 -78 -226 -78q-53 0 -160.5 11
t-160.5 11q-41 0 -120 -7t-120 -7q-10 0 -10 10q0 45 88 78q109 41 180 41q62 0 183.5 -11t183.5 -11q29 0 84 8t84 8q22 0 22 -18z" />
    <glyph glyph-name="greater" unicode="&#x3e;" horiz-adv-x="1008" 
d="M965 375l-897 -355v130l596 245l-596 246v127z" />
    <glyph glyph-name="question" unicode="?" horiz-adv-x="1069" 
d="M1036 1133q0 -113 -110 -236q-95 -106 -211 -164l-426 -211q-23 -12 -44.5 -40.5t-21.5 -53.5q0 -61 78 -61q27 0 51 8l23 -15q-62 -16 -94 -16q-86 0 -86 84q0 64 59 111q49 39 303 194q61 39 170 139q160 150 160 267q0 88 -64.5 137t-154.5 49q-150 0 -293 -113
q-154 -118 -154 -264q0 -43 27.5 -71.5t70.5 -28.5q50 0 113 37l21 -6q-76 -54 -138 -54q-51 0 -83.5 35t-32.5 86q0 191 176 322q160 123 356 123q117 0 207 -70q98 -74 98 -188zM227 102q0 -47 -35.5 -83.5t-82.5 -36.5q-86 0 -86 100q0 47 35.5 85t82.5 38q86 0 86 -103z
" />
    <glyph glyph-name="at" unicode="@" horiz-adv-x="1415" 
d="M1143 467q-74 -115 -166 -195q-119 -102 -225 -102q-162 0 -162 115q0 24 10 75q-90 -120 -194 -120q-140 0 -140 202q0 179 139.5 311t319.5 132q72 0 104 -49q25 30 43 30q15 0 43.5 -6t42.5 -6q9 0 34.5 26.5t33.5 28.5l-268 -503q-25 -46 -43 -107q0 -78 90 -78
q67 0 176 111q78 80 137 174q117 186 117 340q0 153 -109 237q-98 76 -256 76q-284 0 -512 -198q-219 -189 -292 -472q-29 -108 -29 -196q0 -197 127 -297q117 -92 317 -92q406 0 682 395h41q-76 -129 -182 -219q-256 -219 -557 -219q-213 0 -346 120.5t-133 331.5
q0 90 22 181q74 299 317.5 500.5t548.5 201.5q177 0 285 -84q119 -92 119 -264q0 -170 -135 -381zM799 799q0 49 -43 49q-121 0 -252 -211q-117 -188 -117 -299q0 -68 41 -68q82 0 162 136q209 356 209 393z" />
    <glyph glyph-name="A" unicode="A" 
d="M2517 -29q0 -131 -125 -225q-113 -86 -250 -88q-205 -2 -383 90q-67 35 -186 121q-447 -262 -770 -262q-346 0 -576 205q-241 211 -241 553q0 335 194.5 536t530.5 201q51 0 118 -25v-24q-67 26 -118 26q-320 0 -512.5 -196.5t-192.5 -517.5q0 -334 236 -539
q223 -199 561 -199q313 0 749 258l-73 66q-58 -10 -97 -10q-112 0 -112 63q0 41 51 41q61 0 164 -45q20 0 84.5 58.5t75.5 80.5l90 215q75 181 75 281q-92 -19 -249 -19q-107 -172 -226 -333q-245 -340 -524 -340q-135 0 -223 63q-99 70 -99 201q0 203 177 328
q155 112 366 112h510q47 109 160 258q260 344 594 443q20 0 20 -33q0 -23 -69 -86q-203 -187 -228 -527q398 158 398 500q0 242 -224 391q-196 131 -450 131q-242 0 -455 -141q-239 -158 -239 -389q0 -276 215 -373l-7 -26q-237 98 -237 399q0 242 248 410q221 149 475 149
q266 0 471 -139q231 -158 231 -412q0 -368 -430 -536q-18 -215 -157 -412q-134 -188 -330 -293l61 -57q355 217 434 254q107 49 220 49q106 0 186 -64q88 -67 88 -172zM2163 1264q-47 0 -193 -123q-108 -92 -176 -168q-158 -180 -211 -326q131 0 229 19q37 225 273 497
q72 84 80 99q0 2 -2 2zM2488 -31q0 97 -75 156q-68 53 -168 53q-113 0 -226 -53q-73 -35 -409 -240q237 -198 532 -198q129 0 232 75q114 82 114 207zM1425 -18q-63 30 -94 30q-18 0 -18 -12q0 -29 45 -29q26 0 67 11zM1518 612h-412q-193 0 -346 -104q-174 -117 -174 -301
q0 -236 225 -236q207 0 430 252q82 92 277 389z" />
    <glyph glyph-name="B" unicode="B" horiz-adv-x="2179" 
d="M2671 1114q0 -55 -60 -98q-51 -37 -112 -45l-21 20q53 10 100 41q62 39 62 82q0 92 -146 154q-112 47 -223 47q-114 0 -286 -72q83 -92 100 -115q55 -75 55 -157q0 -115 -76 -199q-53 -59 -176 -131q99 -119 99 -315q108 36 221 137l16 -17q-113 -98 -250 -155
q-63 -164 -205.5 -254t-322.5 -88q-139 2 -139 96q0 131 184 191q127 40 276 40q68 62 68 228q0 61 -12 125q-29 -4 -54 -4q-26 0 -53.5 17t-27.5 42q0 45 65 45q47 0 98 -45q164 154 164 287q0 200 -82 246q-80 -41 -229 -246q-57 -80 -107 -256q-51 -187 -98 -260
q-168 -267 -360 -383q-205 -123 -510 -123q-269 0 -434 151q-175 156 -175 422q0 309 209 527.5t516 218.5q111 0 254 -60q170 99 201 111q141 53 332 53q151 0 266 -41q57 -20 148 -65q178 73 325 73q115 0 244 -55q156 -67 156 -170zM1817 664q-33 38 -64 38
q-24 0 -24 -18q0 -29 40 -29q23 0 48 9zM1288 721q0 297 -289 457q-96 -95 -129 -144q-57 -86 -57 -192q0 -129 72.5 -211t199.5 -82q99 0 172 67q31 72 31 105zM1761 246q-149 0 -262 -35q-168 -51 -168 -166q0 -57 86 -59q119 -2 238 120q22 23 106 140zM1907 1243
q-170 109 -375 109q-158 0 -270 -35q-119 -35 -242 -125q293 -182 293 -471q-2 -12 -10 -72l40 70q23 43 23 74q2 55 -43 137l23 6q26 -51 30 -53q17 -43 17 -88q0 -99 -111 -209q-43 -127 -147.5 -209t-235.5 -82v29q86 0 166 41q125 63 166 188q-94 -31 -146 -31
q-137 0 -219 94q-75 89 -75 228q0 127 77 233q23 31 109 111q-109 59 -232 59q-290 0 -496 -216t-206 -509q0 -254 168 -403q160 -144 418 -144q262 0 512 254q112 115 176 267q29 69 113 270q55 131 165 252q146 160 312 225z" />
    <glyph glyph-name="C" unicode="C" horiz-adv-x="1911" 
d="M2361 -518q0 -47 -45 -111q-8 8 -10 13q31 57 31 98q0 145 -209 233q-166 70 -334 70q-192 0 -393 -82q-90 -37 -369 -152q-198 -81 -368 -81q-302 0 -484 206q-174 197 -174 502q0 387 268.5 650.5t655.5 263.5q114 0 270 -19q107 -12 133 -14q375 209 666 209
q207 0 207 -119q0 -98 -123 -150q-90 -36 -207 -36q-115 0 -393 38q-314 -262 -455 -548q-72 -146 -74 -258q-2 -76 45 -123q-2 10 -2 34q0 191 144 390q170 235 401 235q162 0 162 -188q0 -215 -172 -404q-178 -192 -391 -192q-15 0 -39 4q51 -64 129 -64q194 0 418 285
l16 -18q-217 -295 -434 -295q-115 0 -199 114q-194 97 -194 361q0 241 213 481q131 148 256 219q0 17 -164 27q-131 8 -213 8q-373 0 -637 -259t-264 -632q0 -295 168 -485q176 -201 467 -201q151 0 356 82l379 152q205 81 395 81q191 0 354 -69q213 -90 213 -256z
M2183 1149q0 96 -184 96q-174 0 -473 -223q250 -37 350 -37q307 0 307 164zM1634 557q0 137 -135 137q-170 0 -323 -207q-144 -192 -144 -368q0 -45 23 -107q41 -26 84 -26q170 0 338 217q157 203 157 354z" />
    <glyph glyph-name="D" unicode="D" horiz-adv-x="1745" 
d="M2009 1255l-8 -16q-84 57 -146.5 77.5t-160.5 20.5q-52 0 -209 -24q143 -217 143 -504q0 -289 -190 -563q-211 -303 -486 -301q-157 2 -301 100q-141 -98 -301 -98q-106 0 -176 39q-88 49 -88 145q0 72 64 113q55 37 131 37q96 0 200 -58q41 -22 123 -78q45 29 107 195
q88 238 141 344q223 444 481 592l86 49q-2 18 -69 76q-213 182 -516 182q-342 0 -527 -213q-139 -160 -139 -358q0 -6 2 -21v-20q170 153 322 153q147 0 253 -77q119 -86 119 -228q0 -117 -90 -195.5t-209 -78.5q-211 0 -332 182q-53 80 -79 182q-115 -145 -115 -321
q0 -74 59 -230l-18 -12q-66 137 -66 242q0 127 62 243q22 43 71 113q-2 19 -2 55q0 289 205 455q189 154 484 154q399 0 632 -279q101 33 228 33q215 0 315 -107zM1522 975q0 67 -21 166q-26 127 -59 145q-238 -115 -363 -512q-78 -250 -96 -297q-61 -164 -152 -270
q-24 -29 -145 -131q125 -72 166 -72q287 0 491 354q179 308 179 617zM840 819q0 133 -111 211q-98 70 -237 70q-160 0 -318 -164q37 -164 129 -258q105 -109 262 -109q107 0 191 73t84 177zM571 119q-34 35 -86 65q-114 68 -235 70q-55 0 -92 -34t-37 -89q0 -68 57 -111
q51 -38 123 -38q115 0 270 137z" />
    <glyph glyph-name="E" unicode="E" horiz-adv-x="1993" 
d="M1843 1112q0 -98 -90 -162q-82 -57 -184 -57q-82 0 -211 47q0 -109 39 -166l47 -29q33 -20 33 -38q0 -21 -25 -25q-45 0 -82 47q-41 23 -92 23q-143 0 -242 -119q-90 -111 -90 -258q0 -156 86 -273q94 -129 244 -129q192 0 328.5 130t136.5 321q0 90 -43 149
q-49 68 -137 68q-127 0 -230.5 -98.5t-103.5 -225.5q0 -65 40 -114t103 -49q117 0 172 116q43 90 43 222h25q0 -142 -35 -222q-64 -145 -205 -145q-76 0 -124 57.5t-48 134.5q0 142 110.5 247.5t252.5 105.5q98 0 155 -76q53 -68 53 -170q0 -209 -142 -348t-351 -139
q-227 0 -369 110q-155 121 -155 342q0 205 123.5 325t328.5 120q37 0 56 -3q-41 62 -58 117l-8 27q-8 29 -12 33q-211 36 -381 36q-266 0 -484 -90q-290 -120 -290 -350q0 -51 30 -112l-24 -17q-33 64 -33 127q0 246 297 373q225 96 504 96q121 0 381 -31q65 318 387 318
q108 0 191 -69.5t83 -176.5zM1819 1112q0 74 -55.5 124t-129.5 50q-106 0 -194 -81t-88 -185q0 -27 8 -41q98 -61 209 -61q102 0 170 45q80 53 80 149z" />
    <glyph glyph-name="F" unicode="F" horiz-adv-x="2101" 
d="M2916 1186q0 -72 -92 -129q-80 -51 -158 -51q-135 0 -292 81q-211 109 -275 130q-272 83 -473 83q-321 0 -455 -122q56 -31 132 -152q102 -164 102 -346q0 -227 -141 -414q-154 -200 -375 -200q-123 0 -223 86q-107 88 -107 208q0 64 35 179q14 -17 14 -29
q-26 -74 -26 -150q0 -114 98 -194q92 -78 209 -78q213 0 358 195q135 178 135 397q0 168 -92 319q-63 105 -143 166q-86 -41 -162 -194q-74 -146 -74 -248q0 -119 58 -195q63 -86 178 -86q16 0 49 4v-22q-37 -4 -55 -4q-125 0 -193 92q-59 82 -59 211q0 158 104 313
q82 99 121 148q-141 86 -315 86q-316 0 -520 -232q-197 -223 -197 -542q0 -334 188 -549q199 -226 529 -226q252 0 448 195q84 84 129 174q54 109 262 666l-77 16l10 31l82 -17q33 48 127 154q102 84 209 111q73 18 239 24v-8q-6 -8 -114 -29q-115 -22 -136 -32
q-94 -45 -178 -246l121 -23q43 140 135 140q66 0 66 -70q0 -41 -39 -74t-82 -39q2 -22 2 -61q0 -273 -176 -273q-37 0 -70 33l15 15q34 -15 57 -15q47 0 63 99q4 24 19 206l-123 19q-150 -547 -277 -705q-112 -139 -323 -227q-199 -84 -389 -84q-355 0 -569 220t-214 575
q0 344 219.5 569t563.5 225q159 0 331 -86q238 201 496 201q238 0 412 -98q24 -15 317 -183q170 -98 311 -98q150 0 250 160zM2087 817q0 23 -31 23q-18 0 -38.5 -36t-20.5 -56q0 -7 4 -7q31 0 58.5 22.5t27.5 53.5z" />
    <glyph glyph-name="G" unicode="G" horiz-adv-x="1870" 
d="M2800 -121q-76 -321 -381 -321q-133 0 -275 69q-96 49 -344 201q-217 135 -360 201l-150 -187q-73 -174 -170 -301q-229 -301 -524 -301q-147 0 -243.5 97.5t-96.5 244.5q0 27 2 39q-258 217 -258 590q0 360 226.5 588.5t586.5 228.5q127 0 350 -43q428 313 785 313
q71 0 131 -26q75 -33 75 -96q0 -97 -233 -172q-158 -52 -309 -70q-84 -10 -142 -10q-43 0 -104 8q-225 -170 -371 -443q-88 -165 -92 -352q96 8 174 6q70 -2 213 -30q203 540 295 540q29 0 92 -28l62 86l20 -9q-270 -440 -366 -620l47 -27q155 156 356 156l4 -21
q-108 0 -221 -57q-72 -37 -121 -86q146 -67 594 -340q213 -129 367 -129q145 0 239.5 79t120.5 222h21zM2126 1176q0 38 -47 61q-39 18 -82 18q-232 0 -615 -299q160 0 232 7q119 10 291 65q221 72 221 148zM1421 37l-39 20l-69 -157zM1260 88q-56 14 -183 31
q-78 0 -168 -10q29 -121 125 -121q88 0 226 100zM1137 963q-217 47 -324 47q-350 0 -572.5 -224.5t-222.5 -574.5q0 -207 99 -381q65 -117 145 -184q14 53 51 114q152 252 486 353q-35 127 -35 174q0 192 117 370q65 101 256 306zM1290 76q-174 -111 -254 -111
q-121 0 -229 129q-172 -43 -297 -143q-180 -146 -227 -322q192 -102 362 -102q189 0 391 129q142 90 187 149q30 74 67 271zM1225 -225q-312 -269 -580 -269q-117 0 -244 41q-100 33 -122 56q0 -150 85 -247t232 -97q332 0 559 368q70 113 70 148z" />
    <glyph glyph-name="H" unicode="H" horiz-adv-x="1925" 
d="M2458 1157q0 -135 -238 -266q-178 -98 -408 -158q-176 -403 -280 -508q-182 -182 -285 -215q88 -53 135 -53q107 0 265 149v-24q-138 -143 -265 -143q-63 0 -165 61q-64 -37 -117 -37q-66 0 -66 55q0 58 68 58q39 0 110 -41q101 84 111 94q74 74 152 279q38 100 112 294
l-352 -69l-18 -49q-48 -123 -68 -166q-55 -109 -133 -193q-246 -262 -590 -262q-82 0 -141 37q-52 -121 -52 -262q0 -277 177 -447q151 -145 346 -145q286 0 374 258l21 6q-88 -282 -395 -282q-242 0 -398 188q-147 176 -147 422q0 102 53 272q-100 62 -141 107
q-119 127 -119 321q0 279 223 430q115 78 246 105q0 147 37 217q72 135 209 220t289 85q131 0 231 -57q70 -39 160 -131q104 -107 174 -156q59 12 108 12q115 0 115 -53q0 -55 -74 -55q-51 0 -147 61q-55 -22 -154 -88q-65 -65 -147 -244q-10 -32 -33 -125q156 27 352 68
q54 102 183 254q94 111 252.5 183.5t306.5 72.5q123 0 123 -80zM2439 1157q0 62 -104 62q-146 0 -322 -177q-153 -153 -194 -280q231 53 413 162q207 123 207 233zM1776 1110q0 35 -58 35q-43 0 -108 -19q86 -49 131 -49q35 0 35 33zM1536 1141q-281 256 -588 256
q-121 0 -239 -60q-125 -61 -185 -159q-30 -52 -30 -205q137 0 219 -40t164 -149q120 58 204 129l9 -14q-103 -82 -201 -133q41 -70 41 -174l86 18q100 221 250 359q77 71 100 84q109 61 170 88zM856 772q-68 105 -154 146q-77 36 -208 36q34 -206 219 -206q30 0 143 24z
M1186 16q-60 35 -96 35q-33 0 -33 -35q0 -32 37 -32q16 0 54 11t38 21zM905 557q-239 -92 -373 -203q-92 -75 -126 -141q47 -27 83 -27q310 0 416 371zM905 580q0 98 -37 174q-98 -25 -153 -25q-207 0 -242 225q-450 -127 -450 -516q0 -231 174 -360q24 -15 73 -47
q15 39 45 96q39 74 56 84q-78 53 -78 160q0 231 244 315l4 -12q-228 -88 -228 -303q0 -37 21 -86q24 -60 53 -60q129 178 320 271q63 30 198 84zM1010 586q-15 0 -80 -19q-115 -399 -445 -399q-49 0 -96 31q-35 -39 -61 -97l-37 -79q63 -41 135 -41q176 0 315 124
q123 109 195 287q16 43 74 193z" />
    <glyph glyph-name="I" unicode="I" horiz-adv-x="1616" 
d="M2114 1247q-144 -4 -246 -37q-301 -96 -459 -532q-45 -125 -45 -170q31 0 115 49q75 45 104 74q62 63 117 235l18 -8q0 -20 -32 -98q-44 -101 -89 -150q-96 -104 -241 -133q-92 -274 -269.5 -403t-465.5 -129q-224 0 -390 127q-206 159 -206 458q-19 97 -19 220
q0 264 176 451.5t439 187.5q114 0 206 -46l-4 -18q-102 45 -205 45q-251 0 -422 -183t-171 -437q0 -45 16 -148q37 133 109 227q172 228 485 228q178 0 326 -111q38 119 143 215q211 195 596 195q117 0 242 -25q61 -12 92 -20q67 -19 75 -43q2 -4 5 -21zM2077 1260
q-21 34 -179 61q-110 18 -198 18q-246 0 -432 -92q-224 -108 -287 -319q29 -37 45 -70q49 -96 59 -303q31 -23 101 -55q84 225 114 282q193 377 496 447q90 20 281 31zM1063 590q-6 110 -19 162q-18 77 -69 149q4 -53 18 -164q13 -55 70 -147zM1063 545q-70 90 -92 186
q-17 70 -19 193q-133 114 -317 114q-469 0 -586 -493q150 -416 492 -416q258 0 403 184q53 68 119 232zM1178 475q-27 8 -97 53q-139 -415 -540 -417q-230 -2 -367 165q-47 58 -127 216q19 -244 173.5 -384.5t400.5 -140.5q151 0 333 185q160 161 224 323z" />
    <glyph glyph-name="J" unicode="J" horiz-adv-x="1925" 
d="M2417 1204q0 -37 -25 -37q-16 0 -49 8.5t-49 8.5q-365 0 -547 -348q-43 -80 -317 -697q61 -12 73 -12q209 0 307 352q7 -30 11 -43q-6 -94 -97 -207q-102 -127 -223 -127q-26 0 -84 9q-110 -240 -311 -379q-211 -148 -467 -148q-279 0 -450 175t-171 456q0 180 58 289
q10 18 80 139q43 209 139 352q180 271 508 271q237 0 399 -150q58 45 84 68q248 172 580 172q202 0 350 -56l147 -55q54 -6 54 -41zM2314 1217v16q-8 16 -145 55q-160 45 -303 45q-244 0 -463 -114q-51 -27 -182 -121q55 -62 102 -164l-16 -16q-37 92 -101 161
q-90 -73 -170 -282q80 -82 105 -121q78 -123 78 -277q0 -57 -25 -172q35 -30 51 -30l207 456q84 185 176 293q176 205 447 254q79 14 239 17zM1188 1098q-35 41 -129 86q-129 61 -256 61q-307 0 -484 -264q-65 -98 -131 -311q166 256 506 256q144 0 318 -115q24 57 61 123
q74 133 115 164zM1190 399q0 217 -162 367q-16 -111 -16 -184q0 -170 153 -330q25 78 25 147zM1151 221q-166 170 -166 361q0 67 19 202q-179 117 -310 117q-237 0 -381 -117q-57 -47 -120 -153q0 -269 124 -455q144 -217 398 -217q237 0 389 186q47 58 47 76zM1231 166
q-19 18 -53 37q-170 -269 -463 -269q-254 0 -414 216q-137 184 -137 405q0 23 4 59q-125 -194 -125 -399q0 -262 167 -433t429 -171q197 0 377 199q145 159 215 356z" />
    <glyph glyph-name="K" unicode="K" horiz-adv-x="2154" 
d="M2353 1405q-98 39 -145 39q-209 0 -328 -221q-20 -39 -92 -211q-53 -129 -86 -172q-82 -109 -283 -109q-86 0 -190 19l-10 -37q122 0 213 -47q110 -58 110 -170q0 -43 -4 -134.5t-2 -138.5q2 -59 12 -82q70 -155 172 -155q105 0 187 100q80 94 80 201q0 88 -54.5 136
t-144.5 48v2q0 19 27 19q90 0 145 -57.5t55 -147.5q0 -142 -106.5 -240t-249.5 -98q-113 0 -195 61q-88 66 -94 174l-22 365q-5 49 -43.5 96t-87.5 47q-19 -71 -52 -164q-65 -182 -155 -301q-207 -272 -523 -272q-204 0 -344 129q-145 131 -145 334q0 168 70 297
q77 145 223 200q24 9 117 39q-5 37 -5 56q0 229 170 379q162 145 394 145q125 0 221 -59q20 -13 311 -228q100 37 166 35q72 -2 72 -55q0 -66 -72 -64q-57 2 -182 54q-178 -95 -248 -437q252 8 387 189l221 297q148 196 365 196q69 0 145 -43v-14zM1714 1227q0 30 -53 28
q-51 -2 -135 -26q41 -15 135 -37q53 0 53 35zM834 801q-123 143 -316 143q-37 0 -82 -10q21 -70 85.5 -118t137.5 -48q101 0 175 33zM1468 1235q-96 78 -258.5 137.5t-285.5 59.5q-187 0 -334 -115q-162 -123 -162 -303q0 -17 4 -53q41 8 88 8q199 0 336 -156
q100 61 180 156l15 -17q-60 -63 -80 -82q-56 -49 -101 -75q48 -84 48 -213q0 -207 -154 -324q-123 -94 -264 -94q-92 0 -145.5 63.5t-53.5 157.5q0 98 59.5 180t151.5 121l4 -18q-190 -93 -190 -283q0 -86 45 -141.5t129 -55.5q166 0 279.5 114t113.5 280q0 139 -45 198
q0 -14 -78 -26q-63 -11 -108 -11q-78 0 -153 55.5t-95 129.5q-37 -10 -109 -33q-285 -121 -285 -477q0 -189 142 -316q135 -122 325 -122q234 0 381 286q72 140 166 488q35 129 174 278q131 144 260 203z" />
    <glyph glyph-name="L" unicode="L" horiz-adv-x="2003" 
d="M1864 444q0 -239 -232 -403q-207 -145 -456 -145q-146 0 -289 49q-103 35 -271 121q-102 -60 -153 -80q-86 -35 -166 -35q-109 0 -186 37q-103 47 -103 143q0 76 88 123q72 39 156 39q125 0 338 -113q69 127 107 200t98 292q-129 -49 -203 -49q-184 0 -303 137
q-115 131 -115 317q0 246 174 396q164 141 414 141q115 0 178 -37q-158 16 -178 16q-238 0 -397 -137q-170 -145 -170 -379q0 -174 110 -301q115 -133 287 -133q106 0 211 62q63 266 125 393q26 57 123 184q57 76 135 135q96 74 172 74q162 0 162 -143q0 -199 -166 -371
q-140 -146 -346 -232q-33 -200 -95 -327q-51 -107 -188 -287q279 -96 510 -96q240 0 397 84q199 106 199 325q0 142 -158 258l13 23q178 -104 178 -281zM1493 1348q0 122 -135 122q-160 0 -266 -278q-86 -223 -86 -412q157 60 315 230q172 186 172 338zM555 113
q-227 147 -346 147q-59 0 -113 -35q-61 -39 -61 -94q0 -72 78 -115q63 -34 141 -34q74 0 160 38.5t141 92.5z" />
    <glyph glyph-name="M" unicode="M" horiz-adv-x="2296" 
d="M2990 1348l-2 -23q-481 -35 -723 -352q-88 -115 -254 -463q-139 -291 -139 -420q0 -96 65 -96q56 0 123 94q43 59 58 100q6 0 22 5q-106 -230 -231 -230q-82 0 -127 66q-39 55 -39 141q0 250 434 799q-197 -150 -348 -338q-96 -121 -289 -398q-151 -219 -211 -286
q-10 16 -10 26q31 74 53 142q14 43 14 135q0 334 25 467q23 121 111 307q-119 -127 -248 -408q-109 -235 -191 -409q-55 -117 -221 -191q-145 -65 -293 -65q-227 0 -393 129q-182 139 -182 360q0 215 133 369q139 164 350 164q162 0 277 -96q123 -101 123 -261
q0 -151 -106.5 -269t-256.5 -118q-119 0 -184 82q-62 76 -62 197q0 61 41 178l25 -6q-43 -105 -43 -172q0 -109 58.5 -182.5t164.5 -73.5q156 0 268 154q72 98 72 210q0 150 -117 244q-108 90 -260 90q-201 0 -334 -157q-129 -150 -129 -353q0 -166 138 -303
q163 -164 417 -164q293 0 529 428q225 408 313 543q139 211 264 287q-313 106 -383 106q-184 0 -297 -69q-139 -86 -139 -258q0 -95 51 -162q58 -76 148 -76q61 0 104 43h12q-63 -94 -143 -94q-106 0 -171.5 74.5t-65.5 183.5q0 201 159 297q129 78 342 78q64 0 402 -111
q43 25 80 25q43 0 43 -31q0 -35 -48 -35q-20 0 -40 10q-82 -114 -109 -331q-6 -52 -6 -156v-156q-6 -57 -80 -276q422 612 872 866q185 105 254 129q131 47 330 60z" />
    <glyph glyph-name="N" unicode="N" horiz-adv-x="2132" 
d="M2775 1401q0 -70 -80 -107q-61 -28 -141 -28q-92 0 -191 34q-41 -63 -84 -147l-223 -428q-108 -211 -239 -418l-148 -235q-59 -95 -84 -95q-26 0 -26 23q8 18 38 98q41 107 41 172q0 74 -16 234q-16 151 -14 233q2 123 30 307q-129 -268 -325 -645q-301 -579 -731 -579
q-254 0 -412 133q-170 141 -170 389q0 285 191.5 477.5t476.5 192.5q59 0 137 -11q10 146 102 287.5t223.5 197.5t411.5 56q152 0 471 -98q246 -76 338 -119q152 166 289 166q135 0 135 -90zM2757 1401q0 35 -43 55q-35 17 -74 17q-143 0 -264 -154q123 -31 178 -31
q72 0 127 23q76 30 76 90zM2341 1307q-588 217 -799 217q-176 0 -381 -99q-264 -127 -319 -436q116 -51 178 -129q55 -72 90 -203q283 35 283 289q0 55 -35 148l18 4q37 -101 37 -152q0 -274 -299 -315q0 -387 -307 -559q-127 -72 -254 -72q-145 0 -230 91t-85 239
q0 176 116 315q121 148 295 148q117 0 198 -77t81 -194q0 -67 -45 -155q-21 -5 -23 -5q47 105 47 160q0 103 -77.5 177.5t-180.5 74.5q-164 0 -280 -143q-111 -133 -111 -301q0 -133 82 -223.5t213 -90.5q121 0 246 72q119 68 190 170q107 152 107 375q-129 18 -210 117.5
t-81 230.5q-86 14 -137 14q-283 0 -467.5 -185t-184.5 -468q0 -240 166 -377q154 -129 400 -129q424 0 708 563q94 189 324 645q67 136 307 345q-172 55 -270 55q-148 0 -330 -74q-221 -90 -221 -217q0 -49 65 -90l-4 -19q-82 37 -82 109q0 141 226 236q176 73 346 73
q125 0 315 -63q-123 -101 -166 -158q-69 -94 -69 -211q0 -8 41 -264l40 -256q0 -86 -69 -283q207 326 291 492l227 448q45 90 80 140zM1092 657q-41 136 -78 187q-56 78 -172 125q0 -113 69.5 -201t180.5 -111z" />
    <glyph glyph-name="O" unicode="O" horiz-adv-x="1229" 
d="M1167 975q0 -96 -55 -262q-49 -152 -106 -250q-115 -201 -283 -340q-203 -170 -399 -170q-150 0 -240 113q-84 104 -84 258q0 198 135 432q115 198 287 356q188 172 352 195h86q-131 -66 -207 -127q-82 -68 -164 -183q-337 -471 -337 -829q0 -84 43 -139q47 -64 129 -64
q141 0 301 176q112 123 209 299q221 402 221 645q0 166 -115 166q-160 0 -307 -207q-137 -192 -137 -360q0 -154 129 -154q131 0 233 152q88 129 88 231q0 39 -18 76q-23 45 -58 45q-53 0 -118 -73l-15 14q80 80 133 80q45 0 72 -46t27 -96q0 -145 -99 -270
q-104 -135 -245 -135q-72 0 -112 51t-40 125q0 176 143 375q154 211 324 211q102 0 168 -101q59 -88 59 -194z" />
    <glyph glyph-name="P" unicode="P" horiz-adv-x="2142" 
d="M2578 1290l-4 -12q-153 63 -321 63q-139 0 -287 -69q62 -64 145 -166q52 -90 52 -172q0 -184 -164 -297q-146 -102 -336 -102q-86 0 -145 6q-97 -314 -379 -475q-232 -134 -500 -134q-283 0 -455 148q-184 156 -184 432q0 309 211 528.5t520 219.5q115 0 232 -52
q184 193 510 193q266 0 454 -109q184 66 326 66q176 0 325 -68zM2015 997q0 177 -94 246q-182 -106 -250 -285l-141 -372q29 -2 78 -2q172 0 289.5 120.5t117.5 292.5zM1253 651q0 217 -55 316q-84 149 -229 213q-101 -158 -101 -258q0 -125 78 -212t201 -87q53 0 106 28z
M1878 1272q-143 112 -405 112q-306 0 -492 -186q90 -45 131 -80q166 -141 166 -452q22 22 72 98l6 -31q-23 -35 -78 -96q-156 -481 -573 -481q-216 0 -357 131q-147 133 -147 346q0 74 37 147l20 6q-37 -110 -37 -153q0 -205 141 -334q136 -125 343 -125q270 0 432 219
q82 111 112 232q-49 -21 -102 -21q-135 0 -218 90t-83 228q0 118 104 268q-123 53 -219 53q-297 0 -506 -217t-209 -514q0 -254 153 -399.5t406 -145.5q293 0 529 238q47 47 180 325l141 295q80 125 144 197q133 149 309 250z" />
    <glyph glyph-name="Q" unicode="Q" horiz-adv-x="1360" 
d="M1311 1018q0 -410 -701 -891q221 -78 330 -78q61 0 105.5 40t44.5 101q0 58 -29 86q-6 7 -51 33l4 27q98 -45 98 -146q0 -112 -88 -172q-74 -51 -193 -53q-129 -2 -237 39q-41 21 -127 57q-162 -94 -311 -94q-58 0 -99 27q-49 31 -49 84q0 78 88 121q70 34 156 34
q57 0 135 -20l131 -35q74 66 160 152q184 184 299 344q43 43 110 205q74 176 74 288q0 66 -37 119t-98 68q-27 6 -68 6q-118 0 -296 -154q-109 -92 -216 -223q-63 -78 -178 -260q-55 -88 -55 -199q0 -59 33 -108q37 -58 94 -58q94 0 217 84q113 76 168 164q76 119 76 236
q0 98 -82 98q-53 0 -133 -70q-70 -59 -103 -116q-37 -64 -53 -97q-31 -63 -37 -106q-12 12 -16 35q24 102 131 233q119 144 211 144q100 0 100 -121q0 -125 -71.5 -243t-181 -188.5t-220.5 -78.5q-84 -6 -141.5 66.5t-48.5 156.5q16 156 118 340q74 133 134 192
q133 134 159 154q189 145 369 145q151 0 263 -108.5t112 -259.5zM424 92q-197 72 -287 72q-39 0 -70.5 -24.5t-31.5 -61.5q0 -41 39 -68.5t82 -27.5q133 0 268 110z" />
    <glyph glyph-name="R" unicode="R" horiz-adv-x="2333" 
d="M2523 1356q-123 55 -276 55q-180 0 -316 -76q34 -28 74 -64.5t88 -84.5q55 -79 55 -170q0 -185 -163 -293q-129 -85 -332 -113q42 -42 67 -70.5t35 -45.5q35 -61 35 -150v-188q0 -77 48 -126q48 -50 124 -50q79 0 135 52q57 52 57 130q0 79 -73 203l16 12
q82 -115 82 -215q0 -103 -82 -160q-72 -51 -178 -51q-120 0 -211 65q-100 72 -100 189q0 23 2 56.5t6 79.5t6 79.5t2 56.5q0 80 -90 139q-29 -64 -60.5 -133.5t-64.5 -146.5q-78 -182 -340 -291q-225 -94 -451 -94q-272 0 -442 155q-176 161 -176 431q0 304 209 525
q208 220 512 220q104 0 221 -37q175 207 549 207q238 0 399 -98q39 27 166 55q96 21 191 21q136 0 280 -62zM1858 1335q-134 101 -367 101q-356 0 -530 -199q88 -52 133 -90q180 -155 180 -385q0 -38 -6 -66q68 53 78 115l10 -29q-16 -70 -92 -114q-45 -231 -199 -379
q-164 -162 -389 -162q-355 0 -502 362q7 -6 25 -6q147 -338 477 -338q221 0 373 152q139 136 190 362q-69 -32 -158 -32q-250 0 -250 329q0 161 95 271q-118 41 -205 41q-291 0 -498 -220q-207 -219 -207 -511q0 -269 170 -416q160 -141 432 -141q412 0 576 374
q28 65 83 193t140 323q123 285 441 465zM1999 1047q0 192 -109 270q-145 -84 -252 -338q-53 -128 -96 -330q17 -2 29 -3t20 -1q170 0 289 117t119 285zM1239 684q10 39 10 86q0 295 -305 444q-90 -140 -90 -258q0 -305 227 -305q80 0 158 33zM170 500l2 -6t2 -5q-4 3 -4 11z
" />
    <glyph glyph-name="S" unicode="S" horiz-adv-x="1454" 
d="M1425 1262q0 -88 -122 -236q-111 -133 -127 -133q49 -309 49 -420q0 -217 -148.5 -355t-367.5 -138q-197 0 -327 128t-130 322q0 184 141 358q-37 48 -59 127q-105 -53 -180 -155q-127 -170 -127 -408q0 -278 185 -466.5t464 -188.5q233 0 448 178v-16
q-190 -185 -448 -185q-285 0 -478.5 197t-193.5 481q0 252 139 428q62 78 187 160q0 223 213 377q192 139 424 139q204 0 288 -108q27 24 97 24q73 -12 73 -110zM1249 1315q-80 -101 -80 -207q39 4 68 57q27 47 27 90q0 33 -15 60zM1370 1278q0 70 -53 70q-10 0 -27.5 -10.5
t-21.5 -10.5q20 -33 20 -76q0 -53 -34.5 -105t-84.5 -65l5 -153q196 182 196 350zM1237 1339q-88 101 -270 101q-195 0 -385 -125q-224 -148 -230 -369q215 156 774 156q0 63 29 133q33 80 82 104zM1124 1081q-186 -4 -393 -24q-164 -17 -274 -74q-35 -18 -103 -57
q23 -80 58 -121q123 98 270 98q86 0 141 -29q47 -24 113 -94q72 31 178 105zM911 768q-88 117 -229 117q-158 0 -256 -99q72 -84 250 -84q115 0 235 66zM1112 756v98q-53 -37 -164 -96q41 -78 41 -174q0 -101 -88 -173.5t-192 -72.5q-64 0 -110 41t-46 102q0 58 37 100
t92 42q47 0 92 -76q-115 -10 -115 -74q0 -86 93 -86q88 0 148.5 69.5t60.5 159.5q0 64 -33 129q-135 -63 -252 -63q-195 0 -270 88q-136 -168 -134 -340q2 -115 78 -233q103 -160 279 -160q219 0 362 262q121 221 121 457z" />
    <glyph glyph-name="T" unicode="T" horiz-adv-x="2028" 
d="M2900 1235q-4 -4 -13.5 -14.5t-13.5 -14.5q-96 -20 -172 -20q-139 0 -465.5 126t-476.5 126q-194 0 -342 -37q60 -72 125 -205q96 -197 96 -348q0 -121 -65 -221q-12 -19 -84 -97q-68 -278 -293 -473l-16 13q110 116 149 174q82 118 121 260q-37 -12 -92 -12
q-160 0 -254 126q-86 115 -86 279q0 139 104 295q-161 49 -207 49q-307 0 -501.5 -200.5t-194.5 -510.5q0 -294 201 -495t495 -201q220 0 398 133t248 342l190 580q57 174 225 266q119 66 357 86l-4 -22q-363 -48 -412 -279q-39 -180 -105 -442q-79 -318 -322 -500
t-575 -182q-311 0 -512.5 201.5t-201.5 512.5q0 322 197.5 529t516.5 207q70 0 220 -49q139 182 217 217q-197 221 -512 221q-242 0 -434 -137q-179 -127 -291 -353q-84 -168 -92 -286l-19 2q14 264 219 503q248 291 617 291q336 0 544 -229q209 96 375 96q191 0 361 -86
l309 -158q168 -86 305 -86q57 0 166 23zM1610 848q0 156 -107 356q-78 148 -117 187q-122 -72 -219 -189q174 -92 252 -218t78 -320q0 -27 -4 -93q117 109 117 277zM1458 539q8 57 8 123q0 354 -311 518q-37 -41 -74 -132.5t-37 -144.5q0 -151 80 -262q88 -125 234 -125
q45 0 100 23z" />
    <glyph glyph-name="U" unicode="U" horiz-adv-x="1772" 
d="M3160 850q0 -116 -139 -192q-78 -43 -170 -43q-414 0 -813 424q-334 -269 -502 -553q-227 -383 -227 -471q0 -33 30 -33q115 0 228 141v-37q-107 -141 -258 -141q-121 0 -121 201q-166 -201 -291 -201q-74 0 -123 74q-45 65 -45 143q0 137 105 285q38 53 196 272
q105 144 105 221q0 162 -109 248q-98 80 -264 80q-326 0 -543 -199q-190 -174 -190 -378q0 -134 93 -225t226 -91q193 0 334 80l6 -12q-131 -86 -340 -86q-143 0 -240.5 95t-97.5 239q0 211 193 391q219 205 559 205q219 0 346 -123t127 -342q0 -90 -55 -187
q-27 -49 -113 -159q-49 -62 -147.5 -190t-98.5 -224q0 -94 76 -94q145 0 287 225q37 59 145 237q238 385 660 658q-279 199 -443 199h-110v12h94q166 0 276 -41q97 -37 240 -146q209 82 301 105q104 27 270 27q205 0 361 -93q182 -108 182 -301zM3140 850q0 183 -179 287
q-147 86 -344 86q-237 0 -534 -145q454 -443 768 -443q100 0 188 58q101 63 101 157z" />
    <glyph glyph-name="V" unicode="V" horiz-adv-x="1223" 
d="M2429 907q0 -215 -139 -381q-146 -178 -357 -178q-159 0 -264.5 103.5t-105.5 263.5q0 227 200 332q52 26 70 26v-14q-250 -86 -250 -344q0 -152 99.5 -248t250.5 -96q203 0 344 170q133 159 133 366q0 189 -139 295q-125 96 -319 96q-211 0 -410 -145
q-143 -104 -219 -229q-121 -199 -223 -346q-219 -314 -520 -627q-21 0 -37 6l86 197q26 61 33 297q2 79 4 307q24 162 57 262q53 164 151 225q-270 113 -423 113q-164 0 -272.5 -96.5t-108.5 -257.5q0 -84 59 -162q29 -31 72 -82q-88 22 -142.5 94t-54.5 164q0 174 141 270
q123 86 306 86q118 0 286 -57l156 -53q63 53 111 53q32 0 32 -29q0 -53 -96 -53q-14 0 -39 4q-86 -63 -86 -207q0 -78 24.5 -229.5t24.5 -229.5q0 -167 -221 -516q291 295 653 879q107 172 193 250q184 168 461 168q202 0 340.5 -123t138.5 -324zM1010 1282q0 12 -21 12
q-33 0 -71 -39q20 -4 30 -4q62 0 62 31z" />
    <glyph glyph-name="W" unicode="W" horiz-adv-x="1837" 
d="M3072 891q0 -213 -131 -375q-139 -174 -348 -174q-170 0 -289 106.5t-119 274.5q0 248 285 358l6 -18q-266 -113 -266 -340q0 -162 109.5 -259t273.5 -97q188 0 323 172q129 159 129 352q0 188 -116.5 298.5t-307.5 110.5q-266 0 -450 -149q-133 -109 -324 -397
q-108 -166 -346 -465q-264 -334 -315 -334q-19 0 -19 12q0 17 66 156q45 96 53 278q2 45 2 433q-119 -197 -295 -437q-82 -110 -262 -297q-143 -147 -174 -147q-22 0 -22 22q92 164 106 252q29 174 29 557q0 129 86 283q26 47 139 184q-242 123 -416 123q-180 0 -291 -92
q-120 -98 -120 -274q0 -74 34 -125q27 -39 95 -90v-13q-191 74 -191 246q0 182 152 279q129 81 321 81q121 0 283 -61q145 -55 145 -59q54 49 88 49q49 0 49 -27q0 -53 -129 -53q-98 -100 -98 -156q0 -84 24.5 -252t24.5 -252q0 -143 -239 -528q63 62 164 162
q120 123 198 225q185 242 400 658q32 63 135 153q-80 -137 -80 -246q0 -71 22.5 -211.5t22.5 -212.5q0 -116 -70 -262q-35 -71 -137 -239q426 483 666 903q88 156 271 264.5t359 108.5q211 0 349 -123q145 -127 145 -336zM1018 1284q0 16 -23 14q-34 -2 -61 -38q84 0 84 24z
" />
    <glyph glyph-name="X" unicode="X" horiz-adv-x="1503" 
d="M1946 1327q-33 -6 -88 -24q-136 -46 -250 -181q-54 -61 -377 -454q0 -90 -43 -263.5t-43 -263.5q0 -176 106 -176q52 0 115 31q4 -6 6 -19q-63 -30 -121 -30q-217 0 -250 243q-10 76 -22 195q-217 -215 -311 -287q-213 -161 -381 -161q-121 0 -201 73.5t-80 192.5
q0 174 129 321q119 138 291 195q111 360 530 541q-47 45 -104 45q-104 0 -190 -56q-64 -41 -185 -168l-10 13q113 125 180 168q94 59 207 59q68 0 125 -51q65 0 84 -2q160 -45 205 -385q329 340 522 417q96 39 137 39zM989 1137q0 55 -20 104q-181 -70 -320 -203
q-149 -143 -203 -315q37 4 56 4q137 0 196 -102q123 92 203 225q88 145 88 287zM680 612q-51 95 -182 95q-19 0 -56 -5q-4 -20 -4 -32q0 -111 99 -111q59 0 143 53zM1073 1049q0 110 -82 194q17 -55 17 -104q0 -154 -84 -301.5t-215 -231.5q10 -26 10 -55
q0 -141 -136.5 -285.5t-277.5 -144.5q-49 0 -88 39t-39 88q0 104 115 213l12 -8q-108 -125 -108 -205q0 -47 30.5 -78t77.5 -31q129 0 259 142.5t130 273.5q0 14 -4 39q-80 -55 -153 -55q-52 0 -84.5 35.5t-32.5 87.5q0 14 4 34q-168 -57 -279 -186q-120 -139 -120 -307
q0 -107 79 -174q74 -64 183 -64q149 0 348 199q65 65 399 469z" />
    <glyph glyph-name="Y" unicode="Y" horiz-adv-x="2148" 
d="M3299 -195q0 -288 -193.5 -468.5t-484.5 -180.5q-501 0 -1038 508q-262 -518 -770 -518q-242 0 -426 113q-217 133 -217 360q0 229 215 365q184 116 428 116q315 0 596 -241q29 -25 158 -144q24 37 43 78q35 82 98 412q-88 -107 -127 -144q-90 -86 -164 -86
q-94 0 -143 86q-39 68 -39 170q0 152 82 279l153 240q82 127 82 237q0 135 -86 220t-221 85q-155 0 -336 -84q2 -14 2 -43q0 -149 -84 -288l-16 4q25 47 66 155q14 60 14 164q-236 -139 -375 -186q-78 -27 -170 -27q-127 0 -227 68q-115 75 -115 196q0 275 479 275
q172 0 273.5 -67.5t150.5 -227.5l146 53q84 23 192 23q180 0 300 -120t120 -300q0 -107 -55 -225q-31 -68 -121 -203q-84 -127 -117 -203q-20 -70 -20 -137q0 -121 86 -121q92 0 196 160q54 82 125 241q84 189 144 285q413 670 897 670q387 0 387 -275q-21 13 -23 13
q-33 245 -328 245q-303 0 -612 -395q-221 -283 -377 -663q-47 -115 -211 -504q-24 -58 -43 -90q125 -138 312 -263q364 -243 716 -243q281 0 467.5 174t186.5 452q0 207 -135.5 354.5t-339.5 147.5q-140 0 -234 -71q-104 -80 -104 -216q0 -231 280 -268q0 -22 -20 -22
q-127 0 -208 82t-81 208q0 146 113 236q104 84 254 84q221 0 360 -154.5t139 -380.5zM887 1223q-76 290 -404 290q-465 0 -465 -262q0 -114 111 -184q96 -61 217 -61q164 0 541 217zM1554 -305q-176 172 -280 242q-215 143 -461 143q-238 0 -405 -109q-199 -129 -199 -352
q0 -180 223 -289q180 -88 381 -88q320 0 551 207q115 102 190 246z" />
    <glyph glyph-name="Z" unicode="Z" horiz-adv-x="1384" 
d="M1448 1022q0 -244 -274 -520q-164 -166 -476 -383q142 -53 148 -248l141 -33l-2 -18l-137 26q-35 -237 -243 -414t-447 -177q-117 0 -197 40q-102 52 -102 158q0 189 247 322q213 114 418 114q33 0 98.5 2.5t98.5 2.5q20 55 20 83q0 35 -20 74q-23 47 -53 47
q-244 -125 -314 -125q-80 0 -80 56q0 110 344 114q269 269 375 406q250 321 250 547q0 104 -59.5 170.5t-161.5 66.5q-125 0 -262 -86q147 -82 147 -237q0 -215 -131 -435q-149 -249 -350 -249q-104 0 -171 73.5t-67 180.5q0 268 383 563q91 69 134 94q-25 4 -41 4
q-269 0 -463 -217q-117 -131 -178 -311q-7 4 -15 8q80 223 240 369q102 92 196 122q152 50 228 50q22 0 55 -7q184 101 338 99q152 -2 262 -90q121 -95 121 -242zM889 1010q0 161 -156 225q-526 -350 -526 -655q0 -97 61.5 -166.5t157.5 -69.5q190 0 336 246
q127 215 127 420zM569 106q-8 5 -57 3q-59 -3 -96 -11q-105 -22 -105 -71q0 -29 39 -29q56 0 219 108zM713 -131q-95 4 -158 4q-279 0 -492 -147q-190 -134 -190 -273q0 -98 109 -98q227 0 448 145q238 156 283 369z" />
    <glyph glyph-name="bracketleft" unicode="[" horiz-adv-x="614" 
d="M1438 1905l-25 -45h-225l-1153 -2061h225l-24 -45h-404l1200 2151h406z" />
    <glyph glyph-name="backslash" unicode="\" horiz-adv-x="485" 
d="M532 446q-161 -284 -503 -479l-13 23q334 209 500 471z" />
    <glyph glyph-name="bracketright" unicode="]" horiz-adv-x="614" 
d="M1231 1905l-1202 -2151h-404l25 45h225l1151 2061h-225l24 45h406z" />
    <glyph glyph-name="asciicircum" unicode="^" horiz-adv-x="543" 
d="M612 1010l-233 77l-234 -77v82l234 75l233 -75v-82z" />
    <glyph glyph-name="underscore" unicode="_" horiz-adv-x="1024" 
d="M1030 -254h-1048v102h1048v-102z" />
    <glyph glyph-name="grave" unicode="`" horiz-adv-x="0" 
d="M-221 719h-43l-168 131q-53 51 -53 68q0 67 41 61t77 -57z" />
    <glyph glyph-name="a" unicode="a" horiz-adv-x="872" 
d="M961 446q-390 -475 -539 -475q-100 0 -156 119q-88 -119 -194 -119q-138 0 -138 201q0 180 138.5 311t318.5 131q72 0 105 -49q24 31 43 31q14 0 42.5 -6t43.5 -6q8 0 33.5 26.5t33.5 28.5l-268 -504q-35 -65 -35 -94q0 -41 45 -41q68 0 268 199q152 149 242 262z
M465 528q0 50 -43 50q-121 0 -252 -211q-117 -189 -117 -299q0 -68 41 -68q82 0 162 135q209 357 209 393z" />
    <glyph glyph-name="b" unicode="b" horiz-adv-x="817" 
d="M864 446q-143 -192 -381 -196q-59 -103 -180 -187q-129 -92 -237 -92q-66 0 -103 47q-33 41 -33 109q0 158 103 383q80 174 188 324q342 469 520 469q29 0 46.5 -28t17.5 -58q0 -187 -234 -410q-180 -172 -295 -217q-2 -2 -143 -273q-102 -194 -102 -256q0 -61 65 -63
q54 -2 144 106q73 89 110 166q-74 41 -74 156q0 66 25 119q33 69 90 69q154 0 154 -153q0 -113 -49 -187q215 7 352 187zM719 1196q2 64 -23 64q-39 0 -145 -156q-78 -115 -123 -195q-63 -112 -139 -284q170 88 311 311q117 184 119 260zM418 508q0 74 -39 74t-60 -62
q-14 -43 -14 -94q0 -88 57 -131q56 129 56 213z" />
    <glyph glyph-name="c" unicode="c" horiz-adv-x="797" 
d="M842 446q-146 -202 -320 -325q-211 -150 -424 -150q-204 0 -204 183q0 200 130 330t330 130q49 0 86 -29.5t37 -76.5t-38 -84t-85 -37q-73 0 -73 53q0 43 20 70q33 -27 59 -27q19 0 41.5 24.5t22.5 43.5q0 43 -70 43q-92 0 -223 -209q-125 -199 -125 -313q0 -76 92 -76
q201 0 412 149q178 125 315 316z" />
    <glyph glyph-name="d" unicode="d" horiz-adv-x="885" 
d="M1202 1217q0 -150 -231 -394q-211 -223 -377 -301q-232 -428 -232 -473q0 -51 44 -51q61 0 192 125q92 88 317 338l17 -15q-246 -276 -332 -358q-129 -123 -203 -123q-69 0 -108 37q-29 29 -56 102q-71 -86 -94 -104q-35 -29 -92 -29q-67 0 -110 62q-39 55 -39 125
q0 200 139 328t342 128q49 0 104 -55q142 242 285 426q236 303 375 303q59 0 59 -71zM1116 1202q0 45 -37 45q-75 0 -450 -661q153 94 305 266q182 207 182 350zM440 532q0 21 -20.5 38.5t-40.5 17.5q-94 0 -236 -213q-133 -201 -133 -307q0 -70 45 -70q56 0 107 65
q12 17 108 154q170 244 170 315z" />
    <glyph glyph-name="e" unicode="e" horiz-adv-x="657" 
d="M676 446q-74 -122 -240 -276q-215 -199 -364 -199q-78 0 -128 52.5t-50 130.5q0 196 174 338q151 122 292 122q48 0 82.5 -32.5t34.5 -79.5q0 -129 -186 -215q-141 -66 -238 -66q-37 -80 -37 -143q0 -76 56 -76q135 0 344 184q166 146 243 275zM375 541q0 47 -43 47
q-99 0 -258 -318q82 0 191.5 95.5t109.5 175.5z" />
    <glyph glyph-name="f" unicode="f" horiz-adv-x="485" 
d="M760 1159q0 -160 -185 -360q-155 -170 -325 -258h112l-20 -37h-145l-279 -549q-141 -279 -248 -416q-194 -250 -385 -250q-84 0 -143.5 51.5t-59.5 133.5t57.5 148.5t137.5 66.5q41 0 70.5 -32t29.5 -73q0 -43 -34.5 -69.5t-77.5 -26.5q-37 0 -68 53q64 8 64 33
q0 53 -43 53q-41 0 -76 -67q-31 -58 -31 -105q0 -63 58 -104q51 -39 116 -39q117 0 232 164q67 96 223 428q190 407 297 600h-121l21 37h122q140 237 275 411q219 283 346 283q29 0 54.5 -23.5t25.5 -52.5zM680 1143q0 59 -35 59q-49 0 -217 -276q-139 -230 -209 -385
q236 174 363 362q98 146 98 240z" />
    <glyph glyph-name="g" unicode="g" horiz-adv-x="711" 
d="M756 446q-162 -290 -531 -524q-61 -170 -94 -244q-147 -331 -332 -331q-71 0 -126.5 42t-55.5 111q0 125 184 250q131 88 291 146l62 159q-72 -84 -123 -84q-146 0 -146 199q0 168 133.5 306t300.5 138q48 0 80 -36q29 18 43 18q27 0 54 -8l24 -10q2 0 35 28.5t39 32.5
q-72 -107 -197 -328q-63 -114 -164 -352q334 215 506 502zM367 545q0 39 -37 39q-92 0 -213 -219q-113 -203 -113 -310q0 -51 37 -51q70 0 203 244q123 225 123 297zM82 -137q-123 -37 -264 -135q-170 -119 -170 -222q0 -79 86 -79q104 0 217 170q84 127 131 266z" />
    <glyph glyph-name="h" unicode="h" horiz-adv-x="700" 
d="M799 1245q0 -190 -258 -440q-185 -178 -334 -254q-21 -47 -41 -90q164 153 264 153q84 0 84 -86q0 -65 -133 -268l-135 -207q0 -37 28 -37q62 0 218 166q40 43 239 279l17 -15q-211 -262 -263 -315q-153 -160 -245 -160q-113 0 -113 97q0 41 132 252.5t132 218.5
q0 20 -16 20q-70 0 -160 -96q-74 -80 -113 -156q-22 -45 -88 -176q-73 -143 -106 -143q-12 0 -38 7t-36 7q-12 0 -33 -16q-24 -25 -45 -37l217 409q142 267 328 537q285 412 424 412q74 0 74 -62zM707 1214q0 52 -21 52q-53 0 -184 -205q-78 -119 -271 -455q211 137 353 332
q123 168 123 276z" />
    <glyph glyph-name="i" unicode="i" horiz-adv-x="483" 
d="M528 446q-401 -475 -538 -475q-127 0 -127 121q0 86 76 236q2 4 127 225q24 43 55 43q12 0 36.5 -9t32.5 -9q9 0 38.5 29.5t39.5 31.5l-260 -496q-18 -34 -18 -77q0 -54 47 -54t248 203q139 141 227 246zM326 793q0 -33 -21.5 -62t-54.5 -29q-60 0 -60 62q0 33 24 56.5
t56 23.5q56 0 56 -51z" />
    <glyph glyph-name="j" unicode="j" horiz-adv-x="406" 
d="M385 846q0 -45 -31.5 -80t-77.5 -35q-75 0 -75 78q0 43 34.5 78t77.5 35q72 0 72 -76zM453 446q-394 -436 -562 -546q-75 -193 -141 -342q-100 -232 -289 -232q-71 0 -125 39q-59 43 -59 111q0 129 176 254q146 102 295 137q121 346 301 659q41 72 76 72q8 0 31.5 -9
t33.5 -9q11 0 40.5 28.5t37.5 30.5l-370 -709q141 107 538 531zM-266 -174q-117 -10 -266 -119q-164 -119 -164 -225q0 -76 86 -76q108 0 233 199q78 123 111 221z" />
    <glyph glyph-name="k" unicode="k" horiz-adv-x="694" 
d="M842 1239q0 -148 -232 -387q-205 -214 -354 -281q-6 -9 -22.5 -33.5t-43.5 -66.5q170 143 269 143q82 0 82 -79q0 -112 -215 -228q36 -56 36 -80q0 -27 -43 -106t-43 -86q0 -17 23 -17q73 0 426 443l16 -15q-91 -115 -148 -185.5t-83 -98.5q-176 -191 -266 -191t-90 78
q0 29 39 115q40 84 40 106q0 19 -61 19h-76q-18 -27 -123 -230q-36 -71 -77 -71q-12 0 -33 7q-20 7 -32 7q3 -1 -79 -55q76 136 252 477q85 164 318 473q304 406 436 406q28 0 56 -19q28 -18 28 -45zM743 1223q0 43 -22 43q-55 0 -238 -285q-169 -264 -200 -360
q134 76 286 264q173 212 174 338zM406 502q0 39 -44 39q-50 0 -141 -86q-81 -78 -110 -136q102 0 135 13q59 20 104 63q56 51 56 107z" />
    <glyph glyph-name="l" unicode="l" horiz-adv-x="479" 
d="M805 1278q-2 -119 -143 -332q-177 -264 -451 -424l-98 -215q-64 -139 -64 -246q0 -49 43 -49q96 0 242 181q106 131 176 268l16 -15q-110 -202 -194 -299q-148 -170 -295 -176q-62 -2 -94 56q-27 47 -27 114q0 166 172 467q115 201 291 426q248 318 362 318
q27 0 45.5 -23.5t18.5 -50.5zM717 1266q0 43 -29 43q-57 0 -235 -320q-146 -260 -199 -399q172 100 328 356q135 221 135 320z" />
    <glyph glyph-name="m" unicode="m" horiz-adv-x="1092" 
d="M1137 446l-250 -278q-99 -111 -135 -141q-66 -56 -131 -56q-54 0 -88.5 37t-34.5 90q0 25 122.5 219.5t122.5 210.5q0 35 -36 35q-52 0 -240 -227q-96 -180 -172 -318q-16 -28 -55 -28q-13 0 -35.5 8t-32.5 8q-14 0 -74 -59q305 563 305 588q0 28 -22 28q-51 0 -234 -188
q-55 -58 -147 -238q-76 -147 -100 -147q-15 0 -43.5 8t-42.5 8q-15 0 -74 -59l285 536q41 78 49 86q14 27 41 27q14 0 39.5 -6t40.5 -6q8 0 41 26l32 29l-104 -197q170 172 291 172q92 0 92 -141q94 88 129 111q47 30 115 30q38 0 66 -30.5t28 -69.5q0 -14 -35 -72
l-199 -321q-30 -49 -30 -68q0 -49 41 -49q49 0 210 180l248 277z" />
    <glyph glyph-name="n" unicode="n" horiz-adv-x="791" 
d="M836 446q-115 -131 -316 -354q-110 -123 -207 -123q-112 0 -118 123q-2 55 43 125l170 260q28 43 28 62q0 18 -30 18q-80 0 -205 -143q-88 -103 -152 -211q-20 -35 -78 -144q-37 -69 -67 -69q-13 0 -39.5 8t-36.5 8q-16 0 -76 -59l314 600q26 49 61 49q12 0 36.5 -8
t35.5 -8q2 0 34.5 27.5t40.5 31.5l-104 -197q197 172 307 172q94 0 94 -94q0 -49 -39 -110l-190 -297q-37 -58 -37 -70q0 -37 43 -37q60 0 170 123l301 332z" />
    <glyph glyph-name="o" unicode="o" horiz-adv-x="756" 
d="M803 446q-70 -86 -252 -188q-31 -12 -92 -31q-66 -108 -172 -178q-117 -78 -234 -78q-69 0 -114 62q-41 55 -41 127q0 184 139 319t323 135q76 0 121 -57t45 -135q0 -51 -18 -94q-8 -19 -31 -70q17 2 62 23q110 51 247 180zM403 539q0 51 -49 51q-94 0 -221 -215
q-119 -203 -119 -309q0 -68 39 -68q107 0 254 246q6 8 31 47q45 96 57 145q8 33 8 103z" />
    <glyph glyph-name="p" unicode="p" horiz-adv-x="762" 
d="M809 446q-104 -180 -240 -319q-184 -190 -331 -190q-52 0 -93 47q-77 -54 -145 -54q-70 0 -88 93q-94 -175 -229 -498q-91 -217 -129 -217q-41 0 -103 26l-86 -75q156 268 365 673q157 306 331 619q25 45 60 45q12 0 35.5 -8t33.5 -8q9 0 38.5 28.5t39.5 30.5l-35 -64
q39 39 103 39q61 0 98 -52t37 -116q0 -225 -301 -446q33 -39 68 -39q137 0 319 191q129 135 236 309zM348 528q0 43 -41 43q-88 0 -219 -217q-80 -131 -125 -241q14 6 51 6q29 0 101 -53q73 90 145 221q88 162 88 241zM92 43q-51 49 -96 49q-53 0 -53 -24q0 -27 15 -54.5
t40 -27.5q29 0 49 14q6 6 14 12z" />
    <glyph glyph-name="q" unicode="q" horiz-adv-x="760" 
d="M805 446q-236 -378 -541 -456q72 -123 72 -219q0 -140 -88 -297q-98 -176 -230 -176q-133 0 -133 178q0 108 119 301q29 45 184 270q-96 -76 -163 -76q-125 0 -125 213q0 170 139 300t311 130q41 0 86 -36q19 18 49 18q13 0 36.5 -7t33.5 -7q8 0 37 26.5t39 30.5
l-361 -623q140 47 234 119q133 103 284 326zM403 541q0 30 -36 30q-86 0 -217 -202q-125 -193 -125 -297q0 -56 53 -56q45 0 90 62q100 137 215 377q20 43 20 86zM305 -229q0 69 -65 200q-121 -202 -140 -239q-59 -123 -59 -262q0 -86 70 -86q73 0 139 159q55 135 55 228z
" />
    <glyph glyph-name="r" unicode="r" horiz-adv-x="602" 
d="M649 446q-129 -202 -227 -303q-166 -172 -324 -172q-106 0 -108 150q0 39 85 192.5t85 163.5q0 15 -8 15l-51.5 -32t-77.5 -32q-50 0 -50 78q0 47 36 101.5t81 54.5q49 0 49 -48q0 -57 -71 -141q168 141 215 141q30 0 50.5 -23.5t20.5 -55.5q0 -27 -43 -101l-161 -276
q-39 -66 -39 -84q0 -56 53 -56q162 0 469 443zM109 612q0 19 -19 19q-33 0 -58.5 -44t-25.5 -81q0 -35 23 -35q80 102 80 141z" />
    <glyph glyph-name="s" unicode="s" horiz-adv-x="508" 
d="M553 446q-129 -217 -246 -296q-80 -54 -198 -72q-95 -111 -228 -111q-162 0 -162 144q0 47 27 80.5t72 33.5q32 0 76 -37q55 -47 69 -53q33 25 54.5 80t21.5 100q0 35 -19.5 99.5t-19.5 99.5q0 68 23 123q28 74 86 74q51 0 51 -37q0 -45 -64 -158q62 -141 62 -223
q0 -127 -37 -187q123 27 192 80q103 78 224 275zM135 670q0 22 -24 22q-17 0 -28 -32.5t-11 -53.5q0 -43 12 -65q51 71 51 129zM-57 115q-13 4 -54 38.5t-57 34.5q-37 0 -37 -41q0 -45 66 -57q67 0 82 25z" />
    <glyph glyph-name="t" unicode="t" horiz-adv-x="483" 
d="M528 446q-135 -204 -231 -305q-164 -170 -320 -170q-49 0 -78.5 41t-29.5 92q0 54 43 142l160 325h-150l33 31l135 2q39 66 143 240q15 24 74 121h158l-207 -363h154l-13 -31h-153l-213 -372q-45 -78 -45 -109q0 -22 16 -50t37 -28q59 0 152 72q73 57 122 121
q66 84 197 256z" />
    <glyph glyph-name="u" unicode="u" horiz-adv-x="852" 
d="M897 446q-326 -475 -567 -475q-105 0 -121 170q-90 -104 -125 -131q-51 -39 -125 -39q-104 0 -104 101q0 92 67 217l152 278q16 29 55 29q10 0 32.5 -7t35.5 -7q10 0 37.5 27.5t35.5 29.5l-243 -459q-35 -65 -35 -114q0 -54 51 -54q37 0 131 119q78 98 109 154l159 284
q15 27 47 27q13 0 38.5 -7t35.5 -7q8 0 35 27.5t39 29.5l-260 -489q-33 -62 -33 -91q0 -41 53 -41q90 0 267 183q124 129 217 260z" />
    <glyph glyph-name="v" unicode="v" horiz-adv-x="772" 
d="M817 446q-180 -174 -368 -184q-37 -92 -166 -184q-150 -107 -303 -107q-46 0 -79.5 35t-33.5 80q0 102 59 213l146 268q16 29 45 29q14 0 39.5 -8t36.5 -8q2 0 32.5 26.5t38.5 30.5l-244 -467q-28 -55 -28 -92q0 -78 63 -78q129 0 267 289q-66 78 -66 149q0 70 39 127
q45 66 111 66q51 0 86 -56q30 -47 30 -102q0 -106 -57 -184q139 0 336 172zM424 492q0 92 -49 92q-41 0 -70 -56q-24 -47 -24 -92q0 -53 57 -123q86 148 86 179z" />
    <glyph glyph-name="w" unicode="w" horiz-adv-x="1130" 
d="M1178 446q-84 -151 -355 -202q-69 -107 -198 -187q-138 -86 -258 -86q-82 0 -121 72q-8 14 -8 39q0 37 12 76q-78 -88 -125 -125q-78 -62 -160 -62q-51 0 -82 43q-26 37 -26 90q0 62 47 150l162 301q22 41 51 41q14 0 39.5 -7t40.5 -7q8 0 34.5 27.5t38.5 29.5l-258 -487
q-26 -52 -26 -86q0 -54 30 -54q70 0 160 103q68 75 115 164l155 288q17 29 46 29q12 0 37.5 -7t37.5 -7q11 0 39.5 27.5t36.5 29.5l-244 -461q-39 -74 -39 -112q0 -66 58 -66q133 0 276 276q-67 66 -67 160q0 76 41 131q45 64 116 64q50 0 86 -58q33 -49 33 -102
q0 -102 -63 -197q78 11 180 66q117 61 141 121zM780 545q0 43 -39 43q-43 0 -67 -58q-19 -43 -19 -94q0 -90 50 -131q75 115 75 240z" />
    <glyph glyph-name="x" unicode="x" horiz-adv-x="797" 
d="M842 446q-371 -475 -623 -475q-113 0 -184 201q-172 -201 -258 -201q-74 0 -74 70q0 35 49 74q53 -60 90 -60q41 0 111 74q39 41 72 92q0 49 -8.5 149.5t-8.5 149.5q0 88 47 88h72q8 0 20.5 32t18.5 34l4 -268q119 104 176 143q96 65 158 65q80 0 80 -55q0 -27 -33 -80
q-64 49 -109 49q-65 0 -172 -73q-92 -66 -100 -88q0 -344 113 -344q104 0 290 165q150 134 252 273z" />
    <glyph glyph-name="y" unicode="y" horiz-adv-x="784" 
d="M829 446q-45 -45 -270 -258l-149 -141q-56 -51 -185 -125l-116 -229q-154 -303 -351 -303q-69 0 -117.5 44t-48.5 113q0 121 158 217q105 64 330 136l86 172q-133 -101 -201 -101q-108 0 -108 138q0 61 34 127l166 311q27 49 58 49q14 0 40.5 -8t39.5 -8q8 0 35.5 28.5
t37.5 30.5l-250 -467q-32 -61 -32 -100q0 -58 28 -58q29 0 92 37q82 47 117 111l215 385q27 49 58 49q12 0 37.5 -8t35.5 -8q9 0 37.5 28.5t38.5 30.5l-135 -260q-104 -201 -266 -426q94 55 157 117q39 39 142 137l270 254zM74 -121q-240 -86 -316 -131q-149 -88 -149 -199
q0 -86 86 -86q94 0 221 170q59 80 158 246z" />
    <glyph glyph-name="z" unicode="z" horiz-adv-x="639" 
d="M686 446q-250 -385 -563 -534q10 -45 10 -133q0 -205 -148.5 -344.5t-355.5 -139.5q-166 0 -166 154q0 156 211 291q156 100 349 154q0 81 -13 112q-71 -26 -112 -26q-74 0 -74 49q0 24 27.5 39.5t54.5 15.5q65 0 131 -37q67 55 124.5 175t57.5 208q0 72 -74 72
q-59 0 -145 -121v35q100 198 238 198q59 0 98 -44t39 -105q0 -152 -129 -297q-105 -117 -191 -143q47 -54 56 -93q280 136 559 529zM-2 27q-49 36 -92 39q-56 2 -56 -37q0 -29 48 -31q30 -2 100 29zM23 -131q-148 -37 -314 -172q-192 -156 -192 -295q0 -37 29.5 -61.5
t68.5 -24.5q131 0 274 213q134 199 134 340z" />
    <glyph glyph-name="hyphen" unicode="~" horiz-adv-x="549" 
d="M479 389q0 -51 -57 -78q-45 -22 -103 -22q-34 0 -104 11t-104 11q-11 0 -32.5 -7t-29.5 -7q-12 0 -12 12q0 21 51 51q74 43 121 43q27 0 77 -8t76 -8q19 0 70 8l39 6q8 0 8 -12z" />
    <glyph glyph-name="space" unicode="&#xa0;" horiz-adv-x="522" 
 />
    <glyph glyph-name="dieresis" unicode="&#xa8;" horiz-adv-x="0" 
 />
    <glyph glyph-name="copyright" unicode="&#xa9;" horiz-adv-x="0" 
 />
    <glyph glyph-name="registered" unicode="&#xae;" horiz-adv-x="0" 
 />
    <glyph glyph-name="macron" unicode="&#xaf;" horiz-adv-x="1024" 
d="M209 1245v94h606v-94h-606z" />
    <glyph glyph-name="acute" unicode="&#xb4;" horiz-adv-x="0" 
d="M-240 922q37 51 78 57t41 -61q0 -17 -53 -68l-168 -131h-43z" />
    <glyph glyph-name="periodcentered" unicode="&#xb7;" horiz-adv-x="541" 
d="M195 465v151h151v-151h-151z" />
    <glyph glyph-name="cedilla" unicode="&#xb8;" horiz-adv-x="1024" 
d="M500 -451h-129l147 308h113z" />
    <glyph glyph-name="questiondown" unicode="&#xbf;" horiz-adv-x="1069" 
d="M23 240q0 113 110 235q47 54 99 94.5t112 69.5l426 211q12 6 24 17t21.5 24.5t15 27t5.5 25.5q0 62 -78 62q-14 0 -26.5 -2t-24.5 -7l-23 15q31 8 54 12t40 4q37 0 61.5 -23.5t24.5 -60.5q0 -65 -59 -110q-23 -17 -98 -66t-205 -129q-32 -20 -74 -54t-96 -85
q-160 -151 -160 -267q0 -41 16 -75t45 -58.5t69.5 -38.5t88.5 -14q141 0 289 115q158 125 158 262q0 43 -28.5 71.5t-70.5 28.5q-48 0 -112 -37l-21 7q38 26 72 39.5t65 13.5q25 0 46 -9t37 -24.5t25 -38t9 -49.5q0 -184 -178 -320q-163 -124 -354 -124q-59 0 -110.5 17
t-96.5 52q-98 73 -98 189zM831 1270q0 24 10.5 45.5t27 38.5t38 27t43.5 10q86 0 86 -101q0 -24 -10 -46t-26.5 -39t-38 -27.5t-43.5 -10.5q-87 0 -87 103z" />
    <glyph glyph-name="Agrave" unicode="&#xc0;" 
d="M2517 -29q0 -131 -125 -225q-113 -86 -250 -88q-205 -2 -383 90q-67 35 -186 121q-447 -262 -770 -262q-346 0 -576 205q-241 211 -241 553q0 335 194.5 536t530.5 201q51 0 118 -25v-24q-67 26 -118 26q-320 0 -512.5 -196.5t-192.5 -517.5q0 -334 236 -539
q223 -199 561 -199q313 0 749 258l-73 66q-58 -10 -97 -10q-112 0 -112 63q0 41 51 41q61 0 164 -45q20 0 84.5 58.5t75.5 80.5l90 215q75 181 75 281q-92 -19 -249 -19q-107 -172 -226 -333q-245 -340 -524 -340q-135 0 -223 63q-99 70 -99 201q0 203 177 328
q155 112 366 112h510q47 109 160 258q260 344 594 443q20 0 20 -33q0 -23 -69 -86q-203 -187 -228 -527q398 158 398 500q0 242 -224 391q-196 131 -450 131q-242 0 -455 -141q-239 -158 -239 -389q0 -276 215 -373l-7 -26q-237 98 -237 399q0 242 248 410q221 149 475 149
q266 0 471 -139q231 -158 231 -412q0 -368 -430 -536q-18 -215 -157 -412q-134 -188 -330 -293l61 -57q355 217 434 254q107 49 220 49q106 0 186 -64q88 -67 88 -172zM2163 1264q-47 0 -193 -123q-108 -92 -176 -168q-158 -180 -211 -326q131 0 229 19q37 225 273 497
q72 84 80 99q0 2 -2 2zM2488 -31q0 97 -75 156q-68 53 -168 53q-113 0 -226 -53q-73 -35 -409 -240q237 -198 532 -198q129 0 232 75q114 82 114 207zM1425 -18q-63 30 -94 30q-18 0 -18 -12q0 -29 45 -29q26 0 67 11zM1518 612h-412q-193 0 -346 -104q-174 -117 -174 -301
q0 -236 225 -236q207 0 430 252q82 92 277 389zM2509 1464h-43l-168 131q-53 52 -53 68q0 68 41 61q41 -6 78 -57z" />
    <glyph glyph-name="Aacute" unicode="&#xc1;" 
d="M2391 1702q37 51 78 57t41 -61q0 -17 -53 -68l-137 -107q125 -136 125 -321q0 -368 -430 -536q-18 -216 -157 -412q-134 -188 -330 -293l61 -57q179 109 286.5 172t147.5 82q105 49 220 49q107 0 186 -64q88 -67 88 -172q0 -130 -125 -225q-114 -87 -250 -88
q-205 -1 -383 90q-34 17 -80 47.5t-106 73.5q-446 -262 -770 -262q-347 0 -576 205q-241 211 -241 553q0 334 194 536q195 201 531 201q52 0 118 -25v-24q-69 26 -118 26q-319 0 -513 -197q-192 -197 -192 -517q0 -333 236 -539q223 -199 561 -199q312 0 749 258l-73 66
q-56 -10 -97 -10q-112 0 -112 63q0 41 51 41q60 0 164 -45q20 0 84 58q66 60 76 81l90 215q75 181 75 281q-89 -19 -249 -19q-54 -87 -110 -169.5t-116 -163.5q-244 -340 -524 -340q-135 0 -223 63q-99 70 -99 201q0 203 177 328q154 112 366 112h510q23 55 63 119t97 139
q260 344 594 443q20 0 20 -33q0 -23 -69 -86q-203 -188 -228 -527q398 158 398 500q0 177 -120 303l-8 -6h-43l24 34q-33 30 -77 60q-197 131 -450 131q-242 0 -455 -141q-239 -158 -239 -389q0 -275 215 -373l-7 -26q-237 97 -237 399q0 242 248 410q221 149 475 149
q266 0 471 -139q20 -14 38 -28t35 -29zM1106 612q-192 0 -346 -104q-174 -117 -174 -301q0 -236 225 -236q206 0 430 252q42 46 110.5 143t166.5 246h-412zM2488 -31q0 97 -75 156q-68 53 -168 53q-112 0 -226 -53q-37 -17 -138.5 -77t-270.5 -163q237 -198 532 -198
q128 0 232 75q114 82 114 207zM2163 1264q-48 0 -193 -123q-110 -93 -176 -168q-159 -182 -211 -326q66 0 123 4.5t106 14.5q38 226 273 497q73 85 80 99q0 2 -2 2zM1425 -18q-63 30 -94 30q-18 0 -18 -12q0 -29 45 -29q25 0 67 11z" />
    <glyph glyph-name="Acircumflex" unicode="&#xc2;" 
d="M2363 1471q82 -120 82 -269q0 -368 -430 -536q-18 -216 -157 -412q-134 -188 -330 -293l61 -57q179 109 286.5 172t147.5 82q105 49 220 49q107 0 186 -64q88 -67 88 -172q0 -130 -125 -225q-114 -87 -250 -88q-205 -1 -383 90q-34 17 -80 47.5t-106 73.5
q-446 -262 -770 -262q-347 0 -576 205q-241 211 -241 553q0 334 194 536q195 201 531 201q52 0 118 -25v-24q-69 26 -118 26q-319 0 -513 -197q-192 -197 -192 -517q0 -333 236 -539q223 -199 561 -199q312 0 749 258l-73 66q-56 -10 -97 -10q-112 0 -112 63q0 41 51 41
q60 0 164 -45q20 0 84 58q66 60 76 81l90 215q75 181 75 281q-89 -19 -249 -19q-54 -87 -110 -169.5t-116 -163.5q-244 -340 -524 -340q-135 0 -223 63q-99 70 -99 201q0 203 177 328q154 112 366 112h510q23 55 63 119t97 139q260 344 594 443q20 0 20 -33q0 -23 -69 -86
q-203 -188 -228 -527q398 158 398 500q0 144 -82 258l-164 -63h-78l198 116q-43 42 -98 80q-197 131 -450 131q-242 0 -455 -141q-239 -158 -239 -389q0 -275 215 -373l-7 -26q-237 97 -237 399q0 242 248 410q221 149 475 149q266 0 471 -139q57 -39 102 -86l213 125
l21 -256h-39l-49 112zM1106 612q-192 0 -346 -104q-174 -117 -174 -301q0 -236 225 -236q206 0 430 252q42 46 110.5 143t166.5 246h-412zM2488 -31q0 97 -75 156q-68 53 -168 53q-112 0 -226 -53q-37 -17 -138.5 -77t-270.5 -163q237 -198 532 -198q128 0 232 75
q114 82 114 207zM2163 1264q-48 0 -193 -123q-110 -93 -176 -168q-159 -182 -211 -326q66 0 123 4.5t106 14.5q38 226 273 497q73 85 80 99q0 2 -2 2zM1425 -18q-63 30 -94 30q-18 0 -18 -12q0 -29 45 -29q25 0 67 11z" />
    <glyph glyph-name="Atilde" unicode="&#xc3;" 
d="M2106 1466q16 88 110 111q-13 10 -23 16q-197 131 -450 131q-242 0 -455 -141q-239 -158 -239 -389q0 -275 215 -373l-7 -26q-237 97 -237 399q0 242 248 410q221 149 475 149q266 0 471 -139q11 -8 21 -15t20 -15q8 1 16 1h16q47 0 143 -29q93 -28 143 -28q52 0 74 43
l16 4q0 -82 -106 -115q-41 -12 -84 -12q-40 0 -88 14l-20 6q80 -118 80 -266q0 -368 -430 -536q-18 -216 -157 -412q-134 -188 -330 -293l61 -57q179 109 286.5 172t147.5 82q105 49 220 49q107 0 186 -64q88 -67 88 -172q0 -130 -125 -225q-114 -87 -250 -88
q-205 -1 -383 90q-34 17 -80 47.5t-106 73.5q-446 -262 -770 -262q-347 0 -576 205q-241 211 -241 553q0 334 194 536q195 201 531 201q52 0 118 -25v-24q-69 26 -118 26q-319 0 -513 -197q-192 -197 -192 -517q0 -333 236 -539q223 -199 561 -199q312 0 749 258l-73 66
q-56 -10 -97 -10q-112 0 -112 63q0 41 51 41q60 0 164 -45q20 0 84 58q66 60 76 81l90 215q75 181 75 281q-89 -19 -249 -19q-54 -87 -110 -169.5t-116 -163.5q-244 -340 -524 -340q-135 0 -223 63q-99 70 -99 201q0 203 177 328q154 112 366 112h510q23 55 63 119t97 139
q260 344 594 443q20 0 20 -33q0 -23 -69 -86q-203 -188 -228 -527q398 158 398 500q0 160 -99 280l-27 9q-48 14 -88 14q-56 0 -78 -39h-19zM1106 612q-192 0 -346 -104q-174 -117 -174 -301q0 -236 225 -236q206 0 430 252q42 46 110.5 143t166.5 246h-412zM2488 -31
q0 97 -75 156q-68 53 -168 53q-112 0 -226 -53q-37 -17 -138.5 -77t-270.5 -163q237 -198 532 -198q128 0 232 75q114 82 114 207zM2163 1264q-48 0 -193 -123q-110 -93 -176 -168q-159 -182 -211 -326q66 0 123 4.5t106 14.5q38 226 273 497q73 85 80 99q0 2 -2 2z
M1425 -18q-63 30 -94 30q-18 0 -18 -12q0 -29 45 -29q25 0 67 11z" />
    <glyph glyph-name="Adieresis" unicode="&#xc4;" 
d="M2517 -29q0 -131 -125 -225q-113 -86 -250 -88q-205 -2 -383 90q-67 35 -186 121q-447 -262 -770 -262q-346 0 -576 205q-241 211 -241 553q0 335 194.5 536t530.5 201q51 0 118 -25v-24q-67 26 -118 26q-320 0 -512.5 -196.5t-192.5 -517.5q0 -334 236 -539
q223 -199 561 -199q313 0 749 258l-73 66q-58 -10 -97 -10q-112 0 -112 63q0 41 51 41q61 0 164 -45q20 0 84.5 58.5t75.5 80.5l90 215q75 181 75 281q-92 -19 -249 -19q-107 -172 -226 -333q-245 -340 -524 -340q-135 0 -223 63q-99 70 -99 201q0 203 177 328
q155 112 366 112h510q47 109 160 258q260 344 594 443q20 0 20 -33q0 -23 -69 -86q-203 -187 -228 -527q398 158 398 500q0 242 -224 391q-196 131 -450 131q-242 0 -455 -141q-239 -158 -239 -389q0 -276 215 -373l-7 -26q-237 98 -237 399q0 242 248 410q221 149 475 149
q266 0 471 -139q231 -158 231 -412q0 -368 -430 -536q-18 -215 -157 -412q-134 -188 -330 -293l61 -57q355 217 434 254q107 49 220 49q106 0 186 -64q88 -67 88 -172zM2163 1264q-47 0 -193 -123q-108 -92 -176 -168q-158 -180 -211 -326q131 0 229 19q37 225 273 497
q72 84 80 99q0 2 -2 2zM2488 -31q0 97 -75 156q-68 53 -168 53q-113 0 -226 -53q-73 -35 -409 -240q237 -198 532 -198q129 0 232 75q114 82 114 207zM1425 -18q-63 30 -94 30q-18 0 -18 -12q0 -29 45 -29q26 0 67 11zM1518 612h-412q-193 0 -346 -104q-174 -117 -174 -301
q0 -236 225 -236q207 0 430 252q82 92 277 389z" />
    <glyph glyph-name="Aring" unicode="&#xc5;" 
 />
    <glyph glyph-name="Ccedilla" unicode="&#xc7;" horiz-adv-x="0" 
 />
    <glyph glyph-name="Egrave" unicode="&#xc8;" horiz-adv-x="1993" 
d="M1843 1112q0 -98 -90 -162q-82 -57 -184 -57q-82 0 -211 47q0 -109 39 -166l47 -29q33 -20 33 -38q0 -21 -25 -25q-45 0 -82 47q-41 23 -92 23q-143 0 -242 -119q-90 -111 -90 -258q0 -156 86 -273q94 -129 244 -129q192 0 328.5 130t136.5 321q0 90 -43 149
q-49 68 -137 68q-127 0 -230.5 -98.5t-103.5 -225.5q0 -65 40 -114t103 -49q117 0 172 116q43 90 43 222h25q0 -142 -35 -222q-64 -145 -205 -145q-76 0 -124 57.5t-48 134.5q0 142 110.5 247.5t252.5 105.5q98 0 155 -76q53 -68 53 -170q0 -209 -142 -348t-351 -139
q-227 0 -369 110q-155 121 -155 342q0 205 123.5 325t328.5 120q37 0 56 -3q-41 62 -58 117l-8 27q-8 29 -12 33q-211 36 -381 36q-266 0 -484 -90q-290 -120 -290 -350q0 -51 30 -112l-24 -17q-33 64 -33 127q0 246 297 373q225 96 504 96q121 0 381 -31q65 318 387 318
q108 0 191 -69.5t83 -176.5zM1819 1112q0 74 -55.5 124t-129.5 50q-106 0 -194 -81t-88 -185q0 -27 8 -41q98 -61 209 -61q102 0 170 45q80 53 80 149zM1904 1464h-43l-168 131q-53 52 -53 68q0 68 41 61q41 -6 78 -57z" />
    <glyph glyph-name="Eacute" unicode="&#xc9;" horiz-adv-x="1993" 
d="M1843 1112q0 -98 -90 -162q-82 -57 -184 -57q-82 0 -211 47q0 -109 39 -166l47 -29q33 -20 33 -38q0 -21 -25 -25q-45 0 -82 47q-41 23 -92 23q-143 0 -242 -119q-90 -111 -90 -258q0 -156 86 -273q94 -129 244 -129q192 0 328.5 130t136.5 321q0 90 -43 149
q-49 68 -137 68q-127 0 -230.5 -98.5t-103.5 -225.5q0 -65 40 -114t103 -49q117 0 172 116q43 90 43 222h25q0 -142 -35 -222q-64 -145 -205 -145q-76 0 -124 57.5t-48 134.5q0 142 110.5 247.5t252.5 105.5q98 0 155 -76q53 -68 53 -170q0 -209 -142 -348t-351 -139
q-227 0 -369 110q-155 121 -155 342q0 205 123.5 325t328.5 120q37 0 56 -3q-41 62 -58 117l-8 27q-8 29 -12 33q-211 36 -381 36q-266 0 -484 -90q-290 -120 -290 -350q0 -51 30 -112l-24 -17q-33 64 -33 127q0 246 297 373q225 96 504 96q121 0 381 -31q65 318 387 318
q108 0 191 -69.5t83 -176.5zM1819 1112q0 74 -55.5 124t-129.5 50q-106 0 -194 -81t-88 -185q0 -27 8 -41q98 -61 209 -61q102 0 170 45q80 53 80 149zM1895 1702q37 51 78 57t41 -61q0 -17 -53 -68l-168 -131h-43z" />
    <glyph glyph-name="Ecircumflex" unicode="&#xca;" horiz-adv-x="1993" 
d="M1843 1112q0 -98 -90 -162q-82 -57 -184 -57q-82 0 -211 47q0 -109 39 -166l47 -29q33 -20 33 -38q0 -21 -25 -25q-45 0 -82 47q-41 23 -92 23q-143 0 -242 -119q-90 -111 -90 -258q0 -156 86 -273q94 -129 244 -129q192 0 328.5 130t136.5 321q0 90 -43 149
q-49 68 -137 68q-127 0 -230.5 -98.5t-103.5 -225.5q0 -65 40 -114t103 -49q117 0 172 116q43 90 43 222h25q0 -142 -35 -222q-64 -145 -205 -145q-76 0 -124 57.5t-48 134.5q0 142 110.5 247.5t252.5 105.5q98 0 155 -76q53 -68 53 -170q0 -209 -142 -348t-351 -139
q-227 0 -369 110q-155 121 -155 342q0 205 123.5 325t328.5 120q37 0 56 -3q-41 62 -58 117l-8 27q-8 29 -12 33q-211 36 -381 36q-266 0 -484 -90q-290 -120 -290 -350q0 -51 30 -112l-24 -17q-33 64 -33 127q0 246 297 373q225 96 504 96q121 0 381 -31q65 318 387 318
q108 0 191 -69.5t83 -176.5zM1819 1112q0 74 -55.5 124t-129.5 50q-106 0 -194 -81t-88 -185q0 -27 8 -41q98 -61 209 -61q102 0 170 45q80 53 80 149zM1772 1509l-291 -112h-78l436 256l21 -256h-39z" />
    <glyph glyph-name="Edieresis" unicode="&#xcb;" horiz-adv-x="1993" 
 />
    <glyph glyph-name="Igrave" unicode="&#xcc;" horiz-adv-x="1616" 
d="M2114 1247q-144 -4 -246 -37q-301 -96 -459 -532q-45 -125 -45 -170q31 0 115 49q75 45 104 74q62 63 117 235l18 -8q0 -20 -32 -98q-44 -101 -89 -150q-96 -104 -241 -133q-92 -274 -269.5 -403t-465.5 -129q-224 0 -390 127q-206 159 -206 458q-19 97 -19 220
q0 264 176 451.5t439 187.5q114 0 206 -46l-4 -18q-102 45 -205 45q-251 0 -422 -183t-171 -437q0 -45 16 -148q37 133 109 227q172 228 485 228q178 0 326 -111q38 119 143 215q211 195 596 195q117 0 242 -25q61 -12 92 -20q67 -19 75 -43q2 -4 5 -21zM2077 1260
q-21 34 -179 61q-110 18 -198 18q-246 0 -432 -92q-224 -108 -287 -319q29 -37 45 -70q49 -96 59 -303q31 -23 101 -55q84 225 114 282q193 377 496 447q90 20 281 31zM1063 590q-6 110 -19 162q-18 77 -69 149q4 -53 18 -164q13 -55 70 -147zM1063 545q-70 90 -92 186
q-17 70 -19 193q-133 114 -317 114q-469 0 -586 -493q150 -416 492 -416q258 0 403 184q53 68 119 232zM1178 475q-27 8 -97 53q-139 -415 -540 -417q-230 -2 -367 165q-47 58 -127 216q19 -244 173.5 -384.5t400.5 -140.5q151 0 333 185q160 161 224 323zM2119 1464h-43
l-168 131q-53 52 -53 68q0 68 41 61q41 -6 78 -57z" />
    <glyph glyph-name="Iacute" unicode="&#xcd;" horiz-adv-x="1616" 
d="M2114 1247q-144 -4 -246 -37q-301 -96 -459 -532q-45 -125 -45 -170q31 0 115 49q75 45 104 74q62 63 117 235l18 -8q0 -20 -32 -98q-44 -101 -89 -150q-96 -104 -241 -133q-92 -274 -269.5 -403t-465.5 -129q-224 0 -390 127q-206 159 -206 458q-19 97 -19 220
q0 264 176 451.5t439 187.5q114 0 206 -46l-4 -18q-102 45 -205 45q-251 0 -422 -183t-171 -437q0 -45 16 -148q37 133 109 227q172 228 485 228q178 0 326 -111q38 119 143 215q211 195 596 195q117 0 242 -25q61 -12 92 -20q67 -19 75 -43q2 -4 5 -21zM2077 1260
q-21 34 -179 61q-110 18 -198 18q-246 0 -432 -92q-224 -108 -287 -319q29 -37 45 -70q49 -96 59 -303q31 -23 101 -55q84 225 114 282q193 377 496 447q90 20 281 31zM1063 590q-6 110 -19 162q-18 77 -69 149q4 -53 18 -164q13 -55 70 -147zM1063 545q-70 90 -92 186
q-17 70 -19 193q-133 114 -317 114q-469 0 -586 -493q150 -416 492 -416q258 0 403 184q53 68 119 232zM1178 475q-27 8 -97 53q-139 -415 -540 -417q-230 -2 -367 165q-47 58 -127 216q19 -244 173.5 -384.5t400.5 -140.5q151 0 333 185q160 161 224 323zM2166 1702
q37 51 78 57t41 -61q0 -17 -53 -68l-168 -131h-43z" />
    <glyph glyph-name="Eth" unicode="&#xd0;" horiz-adv-x="1745" 
d="M2001 1239q-143 98 -307 98q-52 0 -209 -24q143 -218 143 -504q0 -289 -190 -563q-211 -303 -486 -301q-155 1 -301 100q-142 -98 -301 -98q-106 0 -176 39q-88 49 -88 145q0 73 64 113q55 37 131 37q97 0 200 -58q40 -23 123 -78q46 29 107 195q39 106 70.5 184.5
t57.5 132.5h-32q-13 -16 -33 -34q-90 -78 -209 -78q-210 0 -332 182q-26 40 -46 85.5t-33 96.5q-115 -145 -115 -321q0 -73 59 -230l-18 -12q-66 136 -66 242q0 127 62 243q11 22 28.5 50t42.5 63q-1 10 -1.5 23.5t-0.5 31.5q0 289 205 455q188 154 484 154q399 0 632 -279
q100 33 228 33q214 0 315 -107zM864 819q0 -65 -27 -117h24q219 429 472 574l86 49q-1 17 -69 76q-214 182 -516 182q-343 0 -527 -213q-139 -160 -139 -358q0 -3 0.5 -8t1.5 -13v-20q169 153 322 153q146 0 253 -77q119 -86 119 -228zM1288 702l-20 -45h-226
q-23 -73 -37.5 -118t-21.5 -62q-31 -82 -68.5 -149t-83.5 -121q-12 -14 -48 -47t-97 -84q124 -72 166 -72q287 0 491 354q179 308 179 617q0 67 -21 166q-25 127 -59 145q-239 -116 -363 -512q-10 -32 -18.5 -60t-16.5 -53l19 41h225zM807 702q33 52 33 117q0 133 -111 211
q-97 70 -237 70q-160 0 -318 -164q37 -164 129 -258q105 -109 262 -109q108 0 191 73q4 4 8 7.5t8 7.5h-231l20 45h246zM571 119q-17 17 -38.5 33.5t-47.5 31.5q-116 69 -235 70q-27 0 -51 -9t-41 -25t-27 -39t-10 -50q0 -68 57 -111q52 -38 123 -38q115 0 270 137z" />
    <glyph glyph-name="Ograve" unicode="&#xd2;" horiz-adv-x="1229" 
d="M1167 975q0 -96 -55 -262q-49 -152 -106 -250q-115 -201 -283 -340q-203 -170 -399 -170q-150 0 -240 113q-84 104 -84 258q0 198 135 432q115 198 287 356q188 172 352 195h86q-131 -66 -207 -127q-82 -68 -164 -183q-337 -471 -337 -829q0 -84 43 -139q47 -64 129 -64
q141 0 301 176q112 123 209 299q221 402 221 645q0 166 -115 166q-160 0 -307 -207q-137 -192 -137 -360q0 -154 129 -154q131 0 233 152q88 129 88 231q0 39 -18 76q-23 45 -58 45q-53 0 -118 -73l-15 14q80 80 133 80q45 0 72 -46t27 -96q0 -145 -99 -270
q-104 -135 -245 -135q-72 0 -112 51t-40 125q0 176 143 375q154 211 324 211q102 0 168 -101q59 -88 59 -194zM1148 1464h-43l-168 131q-53 52 -53 68q0 68 41 61q41 -6 78 -57z" />
    <glyph glyph-name="Oacute" unicode="&#xd3;" horiz-adv-x="1229" 
d="M1167 975q0 -96 -55 -262q-49 -152 -106 -250q-115 -201 -283 -340q-203 -170 -399 -170q-150 0 -240 113q-84 104 -84 258q0 198 135 432q115 198 287 356q188 172 352 195h86q-131 -66 -207 -127q-82 -68 -164 -183q-337 -471 -337 -829q0 -84 43 -139q47 -64 129 -64
q141 0 301 176q112 123 209 299q221 402 221 645q0 166 -115 166q-160 0 -307 -207q-137 -192 -137 -360q0 -154 129 -154q131 0 233 152q88 129 88 231q0 39 -18 76q-23 45 -58 45q-53 0 -118 -73l-15 14q80 80 133 80q45 0 72 -46t27 -96q0 -145 -99 -270
q-104 -135 -245 -135q-72 0 -112 51t-40 125q0 176 143 375q154 211 324 211q102 0 168 -101q59 -88 59 -194zM1210 1702q37 51 78 57t41 -61q0 -17 -53 -68l-168 -131h-43z" />
    <glyph glyph-name="Ocircumflex" unicode="&#xd4;" horiz-adv-x="1229" 
d="M1167 975q0 -96 -55 -262q-49 -152 -106 -250q-115 -201 -283 -340q-203 -170 -399 -170q-150 0 -240 113q-84 104 -84 258q0 198 135 432q115 198 287 356q188 172 352 195h86q-131 -66 -207 -127q-82 -68 -164 -183q-337 -471 -337 -829q0 -84 43 -139q47 -64 129 -64
q141 0 301 176q112 123 209 299q221 402 221 645q0 166 -115 166q-160 0 -307 -207q-137 -192 -137 -360q0 -154 129 -154q131 0 233 152q88 129 88 231q0 39 -18 76q-23 45 -58 45q-53 0 -118 -73l-15 14q80 80 133 80q45 0 72 -46t27 -96q0 -145 -99 -270
q-104 -135 -245 -135q-72 0 -112 51t-40 125q0 176 143 375q154 211 324 211q102 0 168 -101q59 -88 59 -194zM1094 1509l-291 -112h-78l436 256l21 -256h-39z" />
    <glyph glyph-name="Otilde" unicode="&#xd5;" horiz-adv-x="1229" 
d="M1167 975q0 -96 -55 -262q-49 -152 -106 -250q-115 -201 -283 -340q-203 -170 -399 -170q-150 0 -240 113q-84 104 -84 258q0 198 135 432q115 198 287 356q188 172 352 195h86q-131 -66 -207 -127q-82 -68 -164 -183q-337 -471 -337 -829q0 -84 43 -139q47 -64 129 -64
q141 0 301 176q112 123 209 299q221 402 221 645q0 166 -115 166q-160 0 -307 -207q-137 -192 -137 -360q0 -154 129 -154q131 0 233 152q88 129 88 231q0 39 -18 76q-23 45 -58 45q-53 0 -118 -73l-15 14q80 80 133 80q45 0 72 -46t27 -96q0 -145 -99 -270
q-104 -135 -245 -135q-72 0 -112 51t-40 125q0 176 143 375q154 211 324 211q102 0 168 -101q59 -88 59 -194zM743 1466q23 119 181 119q49 0 143 -28.5t143 -28.5q52 0 74 43l16 4q0 -82 -106 -115q-41 -12 -84 -12q-41 0 -88 14l-94 29q-47 14 -88 14q-56 0 -78 -39h-19z
" />
    <glyph glyph-name="Odieresis" unicode="&#xd6;" horiz-adv-x="1229" 
 />
    <glyph glyph-name="Ugrave" unicode="&#xd9;" horiz-adv-x="1772" 
d="M3160 866q0 -116 -139 -192q-78 -43 -170 -43q-414 0 -813 424q-334 -269 -502 -553q-227 -383 -227 -471q0 -33 30 -33q115 0 228 141v-37q-107 -141 -258 -141q-121 0 -121 201q-166 -201 -291 -201q-74 0 -123 74q-45 65 -45 143q0 137 105 285q38 53 196 272
q105 144 105 221q0 162 -109 248q-98 80 -264 80q-326 0 -543 -199q-190 -174 -190 -378q0 -134 93 -225t226 -91q193 0 334 80l6 -12q-131 -86 -340 -86q-143 0 -240.5 95t-97.5 239q0 211 193 391q219 205 559 205q219 0 346 -123t127 -342q0 -90 -55 -187
q-27 -49 -113 -159q-49 -62 -147.5 -190t-98.5 -224q0 -94 76 -94q145 0 287 225q37 59 145 237q238 385 660 658q-279 199 -443 199h-110v12h94q166 0 276 -41q97 -37 240 -146q209 82 301 105q104 27 270 27q205 0 361 -93q182 -108 182 -301zM3140 866q0 183 -179 287
q-147 86 -344 86q-237 0 -534 -145q454 -443 768 -443q100 0 188 58q101 63 101 157zM1904 1464h-43l-168 131q-53 52 -53 68q0 68 41 61q41 -6 78 -57z" />
    <glyph glyph-name="Uacute" unicode="&#xda;" horiz-adv-x="1772" 
d="M3160 866q0 -116 -139 -192q-78 -43 -170 -43q-414 0 -813 424q-334 -269 -502 -553q-227 -383 -227 -471q0 -33 30 -33q115 0 228 141v-37q-107 -141 -258 -141q-121 0 -121 201q-166 -201 -291 -201q-74 0 -123 74q-45 65 -45 143q0 137 105 285q38 53 196 272
q105 144 105 221q0 162 -109 248q-98 80 -264 80q-326 0 -543 -199q-190 -174 -190 -378q0 -134 93 -225t226 -91q193 0 334 80l6 -12q-131 -86 -340 -86q-143 0 -240.5 95t-97.5 239q0 211 193 391q219 205 559 205q219 0 346 -123t127 -342q0 -90 -55 -187
q-27 -49 -113 -159q-49 -62 -147.5 -190t-98.5 -224q0 -94 76 -94q145 0 287 225q37 59 145 237q238 385 660 658q-279 199 -443 199h-110v12h94q166 0 276 -41q97 -37 240 -146q209 82 301 105q104 27 270 27q205 0 361 -93q182 -108 182 -301zM3140 866q0 183 -179 287
q-147 86 -344 86q-237 0 -534 -145q454 -443 768 -443q100 0 188 58q101 63 101 157zM1895 1702q37 51 78 57t41 -61q0 -17 -53 -68l-168 -131h-43z" />
    <glyph glyph-name="Ucircumflex" unicode="&#xdb;" horiz-adv-x="1772" 
 />
    <glyph glyph-name="Udieresis" unicode="&#xdc;" horiz-adv-x="1772" 
 />
    <glyph glyph-name="Yacute" unicode="&#xdd;" horiz-adv-x="2148" 
d="M3299 -195q0 -288 -193.5 -468.5t-484.5 -180.5q-501 0 -1038 508q-262 -518 -770 -518q-242 0 -426 113q-217 133 -217 360q0 229 215 365q184 116 428 116q315 0 596 -241q29 -25 158 -144q24 37 43 78q35 82 98 412q-88 -107 -127 -144q-90 -86 -164 -86
q-94 0 -143 86q-39 68 -39 170q0 152 82 279l153 240q82 127 82 237q0 135 -86 220t-221 85q-155 0 -336 -84q2 -14 2 -43q0 -149 -84 -288l-16 4q25 47 66 155q14 60 14 164q-236 -139 -375 -186q-78 -27 -170 -27q-127 0 -227 68q-115 75 -115 196q0 275 479 275
q172 0 273.5 -67.5t150.5 -227.5l146 53q84 23 192 23q180 0 300 -120t120 -300q0 -107 -55 -225q-31 -68 -121 -203q-84 -127 -117 -203q-20 -70 -20 -137q0 -121 86 -121q92 0 196 160q54 82 125 241q84 189 144 285q413 670 897 670q387 0 387 -275q-21 13 -23 13
q-33 245 -328 245q-303 0 -612 -395q-221 -283 -377 -663q-47 -115 -211 -504q-24 -58 -43 -90q125 -138 312 -263q364 -243 716 -243q281 0 467.5 174t186.5 452q0 207 -135.5 354.5t-339.5 147.5q-140 0 -234 -71q-104 -80 -104 -216q0 -231 280 -268q0 -22 -20 -22
q-127 0 -208 82t-81 208q0 146 113 236q104 84 254 84q221 0 360 -154.5t139 -380.5zM887 1223q-76 290 -404 290q-465 0 -465 -262q0 -114 111 -184q96 -61 217 -61q164 0 541 217zM1554 -305q-176 172 -280 242q-215 143 -461 143q-238 0 -405 -109q-199 -129 -199 -352
q0 -180 223 -289q180 -88 381 -88q320 0 551 207q115 102 190 246zM2166 1702q37 51 78 57t41 -61q0 -17 -53 -68l-168 -131h-43z" />
    <glyph glyph-name="agrave" unicode="&#xe0;" horiz-adv-x="872" 
d="M961 446q-390 -475 -539 -475q-100 0 -156 119q-88 -119 -194 -119q-138 0 -138 201q0 180 138.5 311t318.5 131q72 0 105 -49q24 31 43 31q14 0 42.5 -6t43.5 -6q8 0 33.5 26.5t33.5 28.5l-268 -504q-35 -65 -35 -94q0 -41 45 -41q68 0 268 199q152 149 242 262z
M465 528q0 50 -43 50q-121 0 -252 -211q-117 -189 -117 -299q0 -68 41 -68q82 0 162 135q209 357 209 393zM543 719h-43l-168 131q-53 51 -53 68q0 67 40 61q41 -6 78 -57z" />
    <glyph glyph-name="aacute" unicode="&#xe1;" horiz-adv-x="872" 
d="M961 446q-390 -475 -539 -475q-100 0 -156 119q-88 -119 -194 -119q-138 0 -138 201q0 180 138.5 311t318.5 131q72 0 105 -49q24 31 43 31q14 0 42.5 -6t43.5 -6q8 0 33.5 26.5t33.5 28.5l-268 -504q-35 -65 -35 -94q0 -41 45 -41q68 0 268 199q152 149 242 262z
M465 528q0 50 -43 50q-121 0 -252 -211q-117 -189 -117 -299q0 -68 41 -68q82 0 162 135q209 357 209 393zM625 922q37 51 77 57q41 6 41 -61q0 -17 -53 -68l-168 -131h-43z" />
    <glyph glyph-name="acircumflex" unicode="&#xe2;" horiz-adv-x="872" 
d="M961 446q-390 -475 -539 -475q-100 0 -156 119q-88 -119 -194 -119q-138 0 -138 201q0 180 138.5 311t318.5 131q72 0 105 -49q24 31 43 31q14 0 42.5 -6t43.5 -6q8 0 33.5 26.5t33.5 28.5l-268 -504q-35 -65 -35 -94q0 -41 45 -41q68 0 268 199q152 149 242 262z
M465 528q0 50 -43 50q-121 0 -252 -211q-117 -189 -117 -299q0 -68 41 -68q82 0 162 135q209 357 209 393zM625 797l-291 -113h-78l436 256l21 -256h-39z" />
    <glyph glyph-name="atilde" unicode="&#xe3;" horiz-adv-x="872" 
d="M961 446q-390 -475 -539 -475q-100 0 -156 119q-88 -119 -194 -119q-138 0 -138 201q0 180 138.5 311t318.5 131q72 0 105 -49q24 31 43 31q14 0 42.5 -6t43.5 -6q8 0 33.5 26.5t33.5 28.5l-268 -504q-35 -65 -35 -94q0 -41 45 -41q68 0 268 199q152 149 242 262z
M465 528q0 50 -43 50q-121 0 -252 -211q-117 -189 -117 -299q0 -68 41 -68q82 0 162 135q209 357 209 393zM250 776q22 119 180 119q49 0 143.5 -28.5t143.5 -28.5q51 0 74 43l16 4q0 -82 -107 -115q-41 -12 -84 -12q-41 0 -88 14l-94 29q-47 14 -88 14q-55 0 -78 -39h-18z
" />
    <glyph glyph-name="adieresis" unicode="&#xe4;" horiz-adv-x="872" 
 />
    <glyph glyph-name="ae" unicode="&#xe6;" horiz-adv-x="1059" 
d="M516 270q107 45 219 144q70 75 70 127q0 47 -43 47q-98 0 -258 -318h12zM334 86q-141 -115 -281 -115q-69 0 -114 62q-41 55 -41 127q0 184 139 319t323 135q111 0 152 -110q143 110 279 110q47 0 81.5 -32.5t34.5 -79.5q0 -129 -186 -215q-141 -66 -238 -66
q-37 -80 -37 -143q0 -76 56 -76q135 0 344 184q166 146 244 275l16 -15q-74 -122 -240 -276q-215 -199 -364 -199q-127 0 -168 115zM403 539q0 51 -49 51q-94 0 -221 -215q-119 -203 -119 -309q0 -68 39 -68q107 0 254 246q-112 37 -112 100q0 66 63 66q43 0 43 -43
q0 -35 -55 -41q14 -52 78 -62q79 170 79 275z" />
    <glyph glyph-name="ccedilla" unicode="&#xe7;" horiz-adv-x="0" 
 />
    <glyph glyph-name="egrave" unicode="&#xe8;" horiz-adv-x="657" 
d="M676 446q-74 -122 -240 -276q-215 -199 -364 -199q-78 0 -128 52.5t-50 130.5q0 196 174 338q151 122 292 122q48 0 82.5 -32.5t34.5 -79.5q0 -129 -186 -215q-141 -66 -238 -66q-37 -80 -37 -143q0 -76 56 -76q135 0 344 184q166 146 243 275zM375 541q0 47 -43 47
q-99 0 -258 -318q82 0 191.5 95.5t109.5 175.5zM541 719h-43l-168 131q-54 51 -54 68q0 67 41 61t78 -57z" />
    <glyph glyph-name="eacute" unicode="&#xe9;" horiz-adv-x="657" 
d="M676 446q-74 -122 -240 -276q-215 -199 -364 -199q-78 0 -128 52.5t-50 130.5q0 196 174 338q151 122 292 122q48 0 82.5 -32.5t34.5 -79.5q0 -129 -186 -215q-141 -66 -238 -66q-37 -80 -37 -143q0 -76 56 -76q135 0 344 184q166 146 243 275zM375 541q0 47 -43 47
q-99 0 -258 -318q82 0 191.5 95.5t109.5 175.5zM484 922q37 51 78 57t41 -61q0 -17 -53 -68l-168 -131h-43z" />
    <glyph glyph-name="ecircumflex" unicode="&#xea;" horiz-adv-x="657" 
d="M676 446q-74 -122 -240 -276q-215 -199 -364 -199q-78 0 -128 52.5t-50 130.5q0 196 174 338q151 122 292 122q48 0 82.5 -32.5t34.5 -79.5q0 -129 -186 -215q-141 -66 -238 -66q-37 -80 -37 -143q0 -76 56 -76q135 0 344 184q166 146 243 275zM375 541q0 47 -43 47
q-99 0 -258 -318q82 0 191.5 95.5t109.5 175.5zM557 797l-291 -113h-78l437 256l20 -256h-39z" />
    <glyph glyph-name="edieresis" unicode="&#xeb;" horiz-adv-x="657" 
 />
    <glyph glyph-name="igrave" unicode="&#xec;" horiz-adv-x="483" 
d="M528 446q-401 -475 -538 -475q-127 0 -127 121q0 86 76 236q2 4 127 225q24 43 55 43q12 0 36.5 -9t32.5 -9q9 0 38.5 29.5t39.5 31.5l-260 -496q-18 -34 -18 -77q0 -54 47 -54t248 203q139 141 227 246zM324 711h-43l-166 131q-56 43 -56 67q0 68 43 62q41 -6 78 -58z
" />
    <glyph glyph-name="iacute" unicode="&#xed;" horiz-adv-x="483" 
d="M528 446q-401 -475 -538 -475q-127 0 -127 121q0 86 76 236q2 4 127 225q24 43 55 43q12 0 36.5 -9t32.5 -9q9 0 38.5 29.5t39.5 31.5l-260 -496q-18 -34 -18 -77q0 -54 47 -54t248 203q139 141 227 246zM322 913q36 52 77 58t41 -62q0 -16 -53 -67l-168 -131h-43z" />
    <glyph glyph-name="ograve" unicode="&#xf2;" horiz-adv-x="756" 
d="M803 446q-70 -86 -252 -188q-31 -12 -92 -31q-66 -108 -172 -178q-117 -78 -234 -78q-69 0 -114 62q-41 55 -41 127q0 184 139 319t323 135q76 0 121 -57t45 -135q0 -51 -18 -94q-8 -19 -31 -70q17 2 62 23q110 51 247 180zM403 539q0 51 -49 51q-94 0 -221 -215
q-119 -203 -119 -309q0 -68 39 -68q107 0 254 246q6 8 31 47q45 96 57 145q8 33 8 103zM549 719h-43l-168 131q-53 51 -53 68q0 67 41 61t77 -57z" />
    <glyph glyph-name="oacute" unicode="&#xf3;" horiz-adv-x="756" 
d="M803 446q-70 -86 -252 -188q-31 -12 -92 -31q-66 -108 -172 -178q-117 -78 -234 -78q-69 0 -114 62q-41 55 -41 127q0 184 139 319t323 135q76 0 121 -57t45 -135q0 -51 -18 -94q-8 -19 -31 -70q17 2 62 23q110 51 247 180zM403 539q0 51 -49 51q-94 0 -221 -215
q-119 -203 -119 -309q0 -68 39 -68q107 0 254 246q6 8 31 47q45 96 57 145q8 33 8 103zM471 922q37 51 78 57t41 -61q0 -17 -53 -68l-168 -131h-43z" />
    <glyph glyph-name="ocircumflex" unicode="&#xf4;" horiz-adv-x="756" 
d="M803 446q-70 -86 -252 -188q-31 -12 -92 -31q-66 -108 -172 -178q-117 -78 -234 -78q-69 0 -114 62q-41 55 -41 127q0 184 139 319t323 135q76 0 121 -57t45 -135q0 -51 -18 -94q-8 -19 -31 -70q17 2 62 23q110 51 247 180zM403 539q0 51 -49 51q-94 0 -221 -215
q-119 -203 -119 -309q0 -68 39 -68q107 0 254 246q6 8 31 47q45 96 57 145q8 33 8 103zM514 797l-291 -113h-78l437 256l20 -256h-39z" />
    <glyph glyph-name="otilde" unicode="&#xf5;" horiz-adv-x="756" 
d="M803 446q-70 -86 -252 -188q-31 -12 -92 -31q-66 -108 -172 -178q-117 -78 -234 -78q-69 0 -114 62q-41 55 -41 127q0 184 139 319t323 135q76 0 121 -57t45 -135q0 -51 -18 -94q-8 -19 -31 -70q17 2 62 23q110 51 247 180zM403 539q0 51 -49 51q-94 0 -221 -215
q-119 -203 -119 -309q0 -68 39 -68q107 0 254 246q6 8 31 47q45 96 57 145q8 33 8 103zM197 776q22 119 180 119q49 0 143 -28.5t144 -28.5q51 0 73 43l17 4q0 -82 -107 -115q-41 -12 -84 -12q-41 0 -88 14l-94 29q-47 14 -88 14q-55 0 -78 -39h-18z" />
    <glyph glyph-name="odieresis" unicode="&#xf6;" horiz-adv-x="756" 
 />
    <glyph glyph-name="ugrave" unicode="&#xf9;" horiz-adv-x="852" 
d="M897 446q-326 -475 -567 -475q-105 0 -121 170q-90 -104 -125 -131q-51 -39 -125 -39q-104 0 -104 101q0 92 67 217l152 278q16 29 55 29q10 0 32.5 -7t35.5 -7q10 0 37.5 27.5t35.5 29.5l-243 -459q-35 -65 -35 -114q0 -54 51 -54q37 0 131 119q78 98 109 154l159 284
q15 27 47 27q13 0 38.5 -7t35.5 -7q8 0 35 27.5t39 29.5l-260 -489q-33 -62 -33 -91q0 -41 53 -41q90 0 267 183q124 129 217 260zM512 719h-43l-168 131q-53 51 -53 68q0 67 41 61t78 -57z" />
    <glyph glyph-name="uacute" unicode="&#xfa;" horiz-adv-x="852" 
d="M897 446q-326 -475 -567 -475q-105 0 -121 170q-90 -104 -125 -131q-51 -39 -125 -39q-104 0 -104 101q0 92 67 217l152 278q16 29 55 29q10 0 32.5 -7t35.5 -7q10 0 37.5 27.5t35.5 29.5l-243 -459q-35 -65 -35 -114q0 -54 51 -54q37 0 131 119q78 98 109 154l159 284
q15 27 47 27q13 0 38.5 -7t35.5 -7q8 0 35 27.5t39 29.5l-260 -489q-33 -62 -33 -91q0 -41 53 -41q90 0 267 183q124 129 217 260zM539 922q36 51 77 57t41 -61q0 -17 -53 -68l-168 -131h-43z" />
    <glyph glyph-name="ucircumflex" unicode="&#xfb;" horiz-adv-x="852" 
 />
    <glyph glyph-name="yacute" unicode="&#xfd;" horiz-adv-x="742" 
d="M829 446q-45 -45 -270 -258l-149 -141q-56 -51 -185 -125l-116 -229q-154 -303 -351 -303q-69 0 -117.5 44t-48.5 113q0 121 158 217q105 64 330 136l86 172q-133 -101 -201 -101q-108 0 -108 138q0 61 34 127l166 311q27 49 58 49q14 0 40.5 -8t39.5 -8q8 0 35.5 28.5
t37.5 30.5l-250 -467q-32 -61 -32 -100q0 -58 28 -58q29 0 92 37q82 47 117 111l215 385q27 49 58 49q12 0 37.5 -8t35.5 -8q9 0 37.5 28.5t38.5 30.5l-135 -260q-104 -201 -266 -426q94 55 157 117q39 39 142 137l270 254zM74 -121q-240 -86 -316 -131q-149 -88 -149 -199
q0 -86 86 -86q94 0 221 170q59 80 158 246zM550 913q36 52 77 58t41 -62q0 -16 -53 -67l-168 -131h-43z" />
    <glyph glyph-name="ydieresis" unicode="&#xff;" horiz-adv-x="784" 
 />
    <glyph glyph-name="Abreve" unicode="&#x102;" 
d="M2739 1710q-117 -209 -349 -209q-47 0 -77 30q132 -138 132 -329q0 -368 -430 -536q-18 -216 -157 -412q-134 -188 -330 -293l61 -57q179 109 286.5 172t147.5 82q105 49 220 49q107 0 186 -64q88 -67 88 -172q0 -130 -125 -225q-114 -87 -250 -88q-205 -1 -383 90
q-34 17 -80 47.5t-106 73.5q-446 -262 -770 -262q-347 0 -576 205q-241 211 -241 553q0 334 194 536q195 201 531 201q52 0 118 -25v-24q-69 26 -118 26q-319 0 -513 -197q-192 -197 -192 -517q0 -333 236 -539q223 -199 561 -199q312 0 749 258l-73 66q-56 -10 -97 -10
q-112 0 -112 63q0 41 51 41q60 0 164 -45q20 0 84 58q66 60 76 81l90 215q75 181 75 281q-89 -19 -249 -19q-54 -87 -110 -169.5t-116 -163.5q-244 -340 -524 -340q-135 0 -223 63q-99 70 -99 201q0 203 177 328q154 112 366 112h510q23 55 63 119t97 139q260 344 594 443
q20 0 20 -33q0 -23 -69 -86q-203 -188 -228 -527q398 158 398 500q0 242 -224 391q-197 131 -450 131q-242 0 -455 -141q-239 -158 -239 -389q0 -275 215 -373l-7 -26q-237 97 -237 399q0 242 248 410q221 149 475 149q266 0 471 -139q51 -35 93 -77q-2 3 -5 6t-5 7
q-36 49 -36 107v25q0 23 4 28h56v-43q0 -22 45 -44q45 -21 71 -21l23 -4q66 0 132 30q67 31 95 82h52zM1106 612q-192 0 -346 -104q-174 -117 -174 -301q0 -236 225 -236q206 0 430 252q42 46 110.5 143t166.5 246h-412zM2488 -31q0 97 -75 156q-68 53 -168 53
q-112 0 -226 -53q-37 -17 -138.5 -77t-270.5 -163q237 -198 532 -198q128 0 232 75q114 82 114 207zM2163 1264q-48 0 -193 -123q-110 -93 -176 -168q-159 -182 -211 -326q66 0 123 4.5t106 14.5q38 226 273 497q73 85 80 99q0 2 -2 2zM1425 -18q-63 30 -94 30
q-18 0 -18 -12q0 -29 45 -29q25 0 67 11z" />
    <glyph glyph-name="abreve" unicode="&#x103;" horiz-adv-x="872" 
d="M961 446q-390 -475 -539 -475q-100 0 -156 119q-88 -119 -194 -119q-138 0 -138 201q0 180 138.5 311t318.5 131q72 0 105 -49q24 31 43 31q14 0 42.5 -6t43.5 -6q8 0 33.5 26.5t33.5 28.5l-268 -504q-35 -65 -35 -94q0 -41 45 -41q68 0 268 199q152 149 242 262z
M465 528q0 50 -43 50q-121 0 -252 -211q-117 -189 -117 -299q0 -68 41 -68q82 0 162 135q209 357 209 393zM784 899h52q-117 -209 -349 -209q-57 0 -93 49t-36 107v24q0 23 4 29h56v-43q0 -22 45 -43.5t72 -21.5l22 -5q66 0 132.5 31t94.5 82z" />
    <glyph glyph-name="Dcroat" unicode="&#x110;" horiz-adv-x="1745" 
d="M2001 1239q-85 58 -147 77q-62 21 -160 21q-52 0 -209 -24q143 -218 143 -504q0 -289 -190 -563q-211 -303 -486 -301q-155 1 -301 100q-142 -98 -301 -98q-106 0 -176 39q-88 49 -88 145q0 73 64 113q55 37 131 37q97 0 200 -58q40 -23 123 -78q46 29 107 195
q76 203 126 313h-33q-14 -17 -30 -30q-90 -78 -209 -78q-210 0 -332 182q-26 40 -46 85.5t-33 96.5q-115 -145 -115 -321q0 -73 59 -230l-18 -12q-66 136 -66 242q0 127 62 243q11 22 28.5 50t42.5 63q-1 10 -1.5 23.5t-0.5 31.5q0 289 205 455q188 154 484 154
q399 0 632 -279q100 33 228 33q214 0 315 -107zM864 819q0 -49 -17 -94h26q214 408 460 551l86 49q-1 17 -69 76q-214 182 -516 182q-343 0 -527 -213q-139 -160 -139 -358q0 -3 0.5 -8t1.5 -13v-20q169 153 322 153q146 0 253 -77q119 -86 119 -228zM1522 975q0 67 -21 166
q-25 127 -59 145q-239 -116 -363 -512q-5 -13 -8 -25.5t-7 -23.5h169l-18 -72h-174q-23 -72 -37.5 -115.5t-20.5 -60.5q-31 -82 -68.5 -149t-83.5 -121q-12 -14 -48 -47t-97 -84q124 -72 166 -72q287 0 491 354q179 308 179 617zM587 725h233q20 45 20 94q0 133 -111 211
q-97 70 -237 70q-160 0 -318 -164q37 -164 129 -258q105 -109 262 -109q108 0 191 73q3 2 6 5l6 6h-199zM571 119q-17 17 -38.5 33.5t-47.5 31.5q-116 69 -235 70q-27 0 -51 -9t-41 -25t-27 -39t-10 -50q0 -68 57 -111q52 -38 123 -38q115 0 270 137z" />
    <glyph glyph-name="dcroat" unicode="&#x111;" horiz-adv-x="885" 
d="M682 870q21 29 42.5 58t43.5 57q235 303 375 303q59 0 59 -71q0 -135 -188 -347h123l-51 -67h-134q-201 -208 -358 -281q-232 -427 -232 -473q0 -51 44 -51q61 0 192 125q90 86 317 338l17 -15q-124 -139 -206.5 -227.5t-125.5 -130.5q-129 -123 -203 -123q-71 0 -108 37
q-28 28 -56 102q-71 -87 -94 -104q-40 -29 -92 -29q-66 0 -110 62q-39 55 -39 125q0 198 143 329q136 127 338 127q49 0 104 -55q75 129 152 244h-205l51 67h201zM440 532q0 23 -19.5 39.5t-41.5 16.5q-97 0 -236 -211q-133 -200 -133 -309q0 -70 45 -70q60 0 107 65
l108 154q170 241 170 315zM1116 1227q-1 4 -20 4q-60 0 -252 -293q-11 -17 -22.5 -34t-22.5 -34h150q167 196 167 332v25zM629 586q66 40 130.5 94t129.5 123h-131q-67 -103 -129 -217z" />
    <glyph glyph-name="Itilde" unicode="&#x128;" horiz-adv-x="1616" 
d="M2114 1247q-144 -4 -246 -37q-301 -96 -459 -532q-45 -125 -45 -170q31 0 115 49q75 45 104 74q62 63 117 235l18 -8q0 -20 -32 -98q-44 -101 -89 -150q-96 -104 -241 -133q-92 -274 -269.5 -403t-465.5 -129q-224 0 -390 127q-206 159 -206 458q-19 97 -19 220
q0 264 176 451.5t439 187.5q114 0 206 -46l-4 -18q-102 45 -205 45q-251 0 -422 -183t-171 -437q0 -45 16 -148q37 133 109 227q172 228 485 228q178 0 326 -111q38 119 143 215q211 195 596 195q117 0 242 -25q61 -12 92 -20q67 -19 75 -43q2 -4 5 -21zM2077 1260
q-21 34 -179 61q-110 18 -198 18q-246 0 -432 -92q-224 -108 -287 -319q29 -37 45 -70q49 -96 59 -303q31 -23 101 -55q84 225 114 282q193 377 496 447q90 20 281 31zM1063 590q-6 110 -19 162q-18 77 -69 149q4 -53 18 -164q13 -55 70 -147zM1063 545q-70 90 -92 186
q-17 70 -19 193q-133 114 -317 114q-469 0 -586 -493q150 -416 492 -416q258 0 403 184q53 68 119 232zM1178 475q-27 8 -97 53q-139 -415 -540 -417q-230 -2 -367 165q-47 58 -127 216q19 -244 173.5 -384.5t400.5 -140.5q151 0 333 185q160 161 224 323zM1722 1468
q23 119 181 119q49 0 143 -28.5t143 -28.5q52 0 74 43l16 4q0 -82 -106 -115q-41 -12 -84 -12q-41 0 -88 14l-94 29q-47 14 -88 14q-56 0 -78 -39h-19z" />
    <glyph glyph-name="itilde" unicode="&#x129;" horiz-adv-x="483" 
d="M528 446q-401 -475 -538 -475q-127 0 -127 121q0 96 76 234q55 98 127 227q24 43 55 43q12 0 36.5 -9t32.5 -9q7 0 38.5 29.5t39.5 31.5l-260 -496q-18 -34 -18 -77q0 -54 47 -54t248 203q159 160 227 246zM-35 758q21 121 178 121q50 0 144 -29t143 -29q53 0 74 43l16 4
q0 -82 -106 -114q-41 -13 -84 -13q-39 0 -86 15l-97 28q-41 13 -86 13q-57 0 -77 -39h-19z" />
    <glyph glyph-name="IJ" unicode="&#x132;" horiz-adv-x="1616" 
d="M2945 1204q0 -37 -25 -37q-14 0 -49 8q-33 9 -49 9q-366 0 -547 -348q-22 -40 -100.5 -213.5t-216.5 -483.5q61 -12 73 -12q210 0 307 352q4 -15 6.5 -25.5t4.5 -17.5q-6 -95 -97 -207q-102 -127 -223 -127q-26 0 -84 9q-109 -239 -311 -379q-211 -148 -467 -148
q-279 0 -450 175q-80 83 -123 187q-104 4 -194.5 35t-168.5 91q-206 159 -206 458q-19 95 -19 220q0 263 176 451t439 188q115 0 206 -46l-4 -18q-102 45 -205 45q-251 0 -422 -183t-171 -437q0 -23 4 -59.5t12 -88.5q37 133 109 227q172 228 485 228q105 0 203 -40
q154 215 411 244q184 95 451 95q59 0 119 -6t123 -19q31 -6 53.5 -11t38.5 -9q5 -2 10.5 -3.5t10.5 -3.5q155 52 339 52q200 0 350 -56l147 -55q54 -6 54 -41zM49 545q150 -416 492 -416h9q-2 21 -3 42t-1 44q0 180 58 289q5 9 25 43.5t55 95.5q44 211 139 352q1 2 2 3t2 3
q-86 37 -192 37q-469 0 -586 -493zM2842 1233q-7 16 -145 55q-161 45 -303 45q-157 0 -301 -46q12 -8 16 -19q1 -2 2 -7.5t3 -13.5q-44 -2 -83.5 -5.5t-75.5 -10.5l-24 -12q-26 -14 -71 -43.5t-111 -77.5q55 -61 102 -164l-16 -16q-19 46 -44 86t-57 75q-91 -74 -170 -282
q23 -25 42 -45.5t33 -37.5q31 61 61 152l18 -8q0 -19 -32 -98q-8 -18 -15.5 -34t-15.5 -31q4 -5 7.5 -9.5t6.5 -9.5q78 -123 78 -277q0 -59 -25 -172q34 -30 51 -30l207 456q84 184 176 293q174 204 447 254q40 7 99 11t140 6v16zM1759 166q-20 18 -53 37
q-170 -269 -463 -269q-149 0 -268 76q-148 -64 -349 -65q41 -90 112 -163q166 -171 429 -171q197 0 377 199q144 157 215 356zM1679 221q-149 150 -164 319q-35 -23 -74.5 -39t-84.5 -24q-91 -274 -270 -403q-40 -30 -86 -52q105 -63 243 -63q237 0 389 186q47 59 47 76z
M1368 899q115 178 261 263q-10 5 -20.5 10.5t-21.5 11.5q-128 61 -256 61q-20 0 -38.5 -1t-36.5 -3q-214 -108 -275 -313q7 -9 13 -17.5t11 -16.5q99 32 217 32q69 0 146 -27zM1063 545q-69 88 -92 186q-6 24 -10.5 54t-6.5 67q-32 -14 -59.5 -31t-53.5 -37
q-57 -47 -120 -153q0 -248 105 -426q65 41 118 108q53 68 119 232zM1300 782q13 25 26 48t27 46q-73 25 -131 25q-114 0 -205 -27q2 -4 4.5 -8t4.5 -8q48 -94 59 -303q16 -11 41 -25t60 -30q84 225 114 282zM220 107q72 -66 163 -100t203 -39q-12 34 -20.5 69.5t-13.5 73.5
h-11q-230 -2 -367 165q-23 29 -55 83t-72 133q20 -245 173 -385zM1796 1229q24 5 55 9.5t69 9.5q25 13 50 23.5t51 20.5q-23 8 -53.5 15t-69.5 14q-110 18 -198 18q-218 0 -391 -73h22q183 0 323 -90q34 18 69 31t73 22zM575 130q127 6 226 60q-109 167 -109 365q0 11 1 26
t3 33q-125 -194 -125 -399q0 -22 1 -43.5t3 -41.5zM1178 475q-25 7 -97 53q-80 -237 -244 -340q2 -4 8 -12q26 -39 57 -73q25 22 52 49q159 159 224 323zM1718 399q0 149 -79 269q-11 -17 -21 -32t-21 -26q-14 -14 -27.5 -27t-28.5 -24q9 -156 152 -307q25 76 25 147z
M621 -33q120 0 262 119q-14 14 -27.5 30.5t-26.5 33.5l-18 24q-51 -27 -109 -43t-124 -19q5 -39 14.5 -75t23.5 -70h5zM1479 557q9 5 17.5 10.5t16.5 10.5v4q0 34 4.5 84t14.5 118q-17 11 -32 20.5t-31 17.5q-16 -33 -31 -69.5t-29 -74.5q-45 -125 -45 -170q32 0 115 49z
M952 924q-48 40 -99 65q-2 -2 -3 -4t-3 -4q-65 -98 -131 -311q91 142 237 205q0 12 -0.5 24t-0.5 25zM1104 1161q21 19 43.5 36.5t46.5 32.5q-197 -43 -330 -225q25 -12 49 -27t48 -32q38 119 143 215zM1716 1098l-10 10t-11 10q-122 -95 -213 -271q14 -8 28.5 -17t29.5 -19
q12 29 27 59.5t34 63.5q37 67 66 107.5t49 56.5zM1063 590q-6 112 -19 162q-8 29 -19.5 58t-28.5 58l-18 -6q3 -25 6.5 -56t8.5 -69q14 -57 70 -147zM1583 631q22 23 42 58q-15 20 -32 39t-37 38q-8 -51 -11.5 -93t-4.5 -77q29 21 43 35zM1835 1198q-32 -13 -62.5 -29.5
t-59.5 -37.5q5 -4 8.5 -7.5t8.5 -7.5q29 23 50 40t34 28q5 4 10.5 7t10.5 7zM2077 1260q-4 7 -17 15q-13 -5 -25.5 -9.5t-25.5 -9.5q16 1 33 1.5t35 2.5zM975 901q0 -4 0.5 -8t0.5 -9q6 2 8 3q-2 4 -4.5 7t-4.5 7z" />
    <glyph glyph-name="ij" unicode="&#x133;" horiz-adv-x="483" 
d="M904 446q-395 -437 -562 -546q-75 -194 -141 -342q-100 -232 -289 -232q-71 0 -125 39q-59 44 -59 111q0 129 176 254q146 102 295 137q68 196 157 384q-261 -280 -366 -280q-127 0 -127 121q0 87 76 236q1 2 32.5 58t94.5 167q24 43 55 43q12 0 36 -9q25 -9 33 -9
q9 0 38 29q31 31 40 32l-260 -496q-18 -35 -18 -77q0 -54 47 -54t248 203q29 30 56.5 58t52.5 55q25 51 51 100t55 98q40 72 76 72q8 0 31 -9q24 -9 34 -9q12 0 40 28q31 30 38 31l-370 -709q139 105 538 531zM185 -174q-119 -11 -266 -119q-164 -119 -164 -225
q0 -76 86 -76q109 0 233 199q78 122 111 221zM836 846q0 -45 -32 -80t-77 -35q-75 0 -75 78q0 44 34 78q35 35 78 35q72 0 72 -76zM326 793q0 -17 -5.5 -33t-16 -29t-24.5 -21t-30 -8q-60 0 -60 62q0 16 6.5 31t17.5 25.5t25.5 17t30.5 6.5q56 0 56 -51z" />
    <glyph glyph-name="Utilde" unicode="&#x168;" horiz-adv-x="1772" 
d="M3160 850q0 -116 -139 -192q-78 -43 -170 -43q-414 0 -813 424q-334 -269 -502 -553q-227 -383 -227 -471q0 -33 30 -33q115 0 228 141v-37q-107 -141 -258 -141q-121 0 -121 201q-166 -201 -291 -201q-74 0 -123 74q-45 65 -45 143q0 137 105 285q38 53 196 272
q105 144 105 221q0 162 -109 248q-98 80 -264 80q-326 0 -543 -199q-190 -174 -190 -378q0 -134 93 -225t226 -91q193 0 334 80l6 -12q-131 -86 -340 -86q-143 0 -240.5 95t-97.5 239q0 211 193 391q219 205 559 205q219 0 346 -123t127 -342q0 -90 -55 -187
q-27 -49 -113 -159q-49 -62 -147.5 -190t-98.5 -224q0 -94 76 -94q145 0 287 225q37 59 145 237q238 385 660 658q-279 199 -443 199h-110v12h94q166 0 276 -41q97 -37 240 -146q209 82 301 105q104 27 270 27q205 0 361 -93q182 -108 182 -301zM3140 850q0 183 -179 287
q-147 86 -344 86q-237 0 -534 -145q454 -443 768 -443q100 0 188 58q101 63 101 157zM1463 1466q23 119 181 119q49 0 143 -28.5t143 -28.5q52 0 74 43l16 4q0 -82 -106 -115q-41 -12 -84 -12q-41 0 -88 14l-94 29q-47 14 -88 14q-56 0 -78 -39h-19z" />
    <glyph glyph-name="utilde" unicode="&#x169;" horiz-adv-x="852" 
d="M192 776q23 119 180 119q49 0 143.5 -28.5t143.5 -28.5q51 0 74 43l16 4q0 -82 -106 -115q-41 -12 -84 -12q-41 0 -88 14l-95 29q-47 14 -88 14q-55 0 -77 -39h-19zM897 446q-326 -475 -567 -475q-105 0 -121 170q-90 -104 -125 -131q-51 -39 -125 -39q-104 0 -104 101
q0 92 67 217l152 278q16 29 55 29q10 0 32.5 -7t35.5 -7q10 0 37.5 27.5t35.5 29.5l-243 -459q-35 -65 -35 -114q0 -54 51 -54q37 0 131 119q78 98 109 154l159 284q15 27 47 27q13 0 38.5 -7t35.5 -7q8 0 35 27.5t39 29.5l-260 -489q-33 -62 -33 -91q0 -41 53 -41
q90 0 267 183q124 129 217 260z" />
    <glyph glyph-name="Ydieresis" unicode="&#x178;" horiz-adv-x="2148" 
 />
    <glyph glyph-name="Ohorn" unicode="&#x1a0;" horiz-adv-x="1229" 
d="M1167 975q0 -96 -55 -262q-25 -76 -51 -138.5t-55 -111.5q-115 -201 -283 -340q-203 -170 -399 -170q-150 0 -240 113q-84 103 -84 258q0 198 135 432q58 100 129 188.5t158 167.5q187 172 352 195h86q-132 -67 -207 -127q-42 -34 -82 -79.5t-82 -103.5
q-337 -470 -337 -829q0 -84 43 -139q46 -64 129 -64q140 0 301 176q57 62 108.5 136.5t100.5 162.5q221 403 221 645q0 166 -115 166q-160 0 -307 -207q-137 -193 -137 -360q0 -154 129 -154q131 0 233 152q88 128 88 231q0 38 -18 76q-23 45 -58 45q-54 0 -118 -73l-15 14
q80 80 133 80q45 0 72 -46q27 -47 27 -96q0 -146 -99 -270q-104 -135 -245 -135q-72 0 -112 51q-40 50 -40 125q0 175 143 375q154 211 324 211q102 0 168 -101q5 -7 8.5 -14t7.5 -14q34 6 70 32q39 28 39 60q0 8 -12 14q-53 11 -53 68q0 61 73 61q74 0 74 -71
q0 -74 -56 -127q-52 -49 -122 -61q30 -68 30 -142z" />
    <glyph glyph-name="ohorn" unicode="&#x1a1;" horiz-adv-x="756" 
d="M803 446q-71 -86 -252 -188q-29 -11 -92 -31q-66 -106 -172 -178q-117 -78 -234 -78q-69 0 -114 62q-41 56 -41 127q0 184 139 319t323 135q80 0 123 -55q2 -4 5 -7t5 -7q27 5 57 26q32 23 32 47q0 6 -11 11q-17 5 -24 14q-19 19 -19 41q0 49 60 49q59 0 59 -57
q0 -60 -44 -102q-41 -40 -99 -49q22 -44 22 -103q0 -62 -49 -164q16 1 62 23q111 52 247 180zM403 539q0 51 -49 51q-96 0 -221 -215q-119 -203 -119 -309q0 -68 39 -68q107 0 254 246l10 10v2q45 91 65.5 160.5t20.5 122.5z" />
    <glyph glyph-name="Uhorn" unicode="&#x1af;" horiz-adv-x="1772" 
d="M1806 1274q49 -19 108.5 -55t131.5 -91q17 4 40.5 13.5t41.5 23.5q39 28 39 60q0 8 -13 14q-53 11 -53 68q0 31 21.5 47t52.5 14q34 -3 54 -19.5t20 -52.5q0 -61 -39 -107l2 1q45 16 78.5 26.5t56.5 16.5q103 27 270 27q205 0 361 -93q182 -108 182 -301
q0 -116 -139 -192q-77 -43 -170 -43q-414 0 -813 424q-168 -135 -292.5 -272.5t-209.5 -280.5q-227 -383 -227 -471q0 -33 30 -33q115 0 228 141v-37q-107 -141 -258 -141q-121 0 -121 201q-167 -201 -291 -201q-73 0 -123 74q-45 64 -45 143q0 136 105 285q19 26 68 94
t128 178q105 144 105 221q0 163 -109 248q-98 80 -264 80q-326 0 -543 -199q-190 -174 -190 -378q0 -134 93 -225q92 -91 226 -91q192 0 334 80l6 -12q-131 -86 -340 -86q-143 0 -241 95q-97 94 -97 239q0 211 193 391q218 205 559 205q218 0 346 -123q127 -123 127 -342
q0 -90 -55 -187q-14 -25 -42 -64.5t-71 -94.5q-25 -31 -61.5 -78.5t-86.5 -111.5q-98 -128 -98 -224q0 -94 76 -94q144 0 287 225q19 29 55 88t90 149q238 385 660 658q-278 199 -443 199h-110v12h94q165 0 276 -41zM3140 866q0 183 -179 287q-148 86 -344 86
q-238 0 -534 -145q455 -443 768 -443q100 0 188 58q101 63 101 157z" />
    <glyph glyph-name="uhorn" unicode="&#x1b0;" horiz-adv-x="852" 
d="M601 573q74 9 74 41q0 4 -17 13q-17 10 -18 12q-16 16 -16 39q0 51 57 51q59 0 59 -57q0 -105 -153 -123l-210 -399q-33 -62 -33 -91q0 -41 53 -41q90 0 267 183q63 65 116.5 129.5t100.5 130.5l16 -15q-118 -171 -231 -284q-194 -191 -336 -191q-104 0 -121 170
q-90 -104 -125 -131q-51 -39 -125 -39q-104 0 -104 101q0 93 67 217l152 278q17 29 55 29q5 0 14 -2t18.5 -5t19.5 -5t16 -2q8 0 37 27q30 28 36 30l-243 -459q-35 -65 -35 -114q0 -54 51 -54q36 0 131 119q76 95 109 154l159 284q15 27 47 27q15 0 37 -7q24 -7 37 -7
q5 0 16.5 -0.5t20.5 -8.5h1v0z" />
    <glyph glyph-name="uni01E3" unicode="&#x1e3;" horiz-adv-x="1815" 
d="M516 270q107 45 219 144q70 75 70 127q0 47 -43 47q-98 0 -258 -318h12zM334 86q-141 -115 -281 -115q-69 0 -114 62q-41 55 -41 127q0 184 139 319t323 135q111 0 152 -110q143 110 279 110q47 0 81.5 -32.5t34.5 -79.5q0 -129 -186 -215q-141 -66 -238 -66
q-37 -80 -37 -143q0 -76 56 -76q135 0 344 184q166 146 244 275l16 -15q-74 -122 -240 -276q-215 -199 -364 -199q-127 0 -168 115zM403 539q0 51 -49 51q-94 0 -221 -215q-119 -203 -119 -309q0 -68 39 -68q107 0 254 246q-112 37 -112 100q0 66 63 66q43 0 43 -43
q0 -35 -55 -41q14 -52 78 -62q79 170 79 275zM791 1245v94h606v-94h-606z" />
    <glyph glyph-name="aeacute" unicode="&#x1fd;" horiz-adv-x="1815" 
d="M516 270q107 45 219 144q70 75 70 127q0 47 -43 47q-98 0 -258 -318h12zM334 86q-141 -115 -281 -115q-69 0 -114 62q-41 55 -41 127q0 184 139 319t323 135q111 0 152 -110q143 110 279 110q47 0 81.5 -32.5t34.5 -79.5q0 -129 -186 -215q-141 -66 -238 -66
q-37 -80 -37 -143q0 -76 56 -76q135 0 344 184q166 146 244 275l16 -15q-74 -122 -240 -276q-215 -199 -364 -199q-127 0 -168 115zM403 539q0 51 -49 51q-94 0 -221 -215q-119 -203 -119 -309q0 -68 39 -68q107 0 254 246q-112 37 -112 100q0 66 63 66q43 0 43 -43
q0 -35 -55 -41q14 -52 78 -62q79 170 79 275zM342 922q37 51 78 57t41 -61q0 -17 -53 -68l-168 -131h-43z" />
    <glyph glyph-name="hookabovecombHOA" unicode="&#x2bc;" horiz-adv-x="0" 
d="M262 1507q-14 -58 -74 -47l-6 2q-49 10 -49 51q0 5 0.5 9.5t1.5 9.5v6q8 23 29 41l45 43q21 19 22 37q9 46 -63 72q-22 -1 -47 -17q0 -8 -2 -8l16 -4l12 -2q15 -1 27 -17q6 -12 6 -26q-17 -38 -57 -33h-4q-53 8 -49 57l2 5q10 46 75 57q28 4 60 0l14 -4q133 -39 125 -117
l-2 -2q-12 -41 -72 -57l-59 -17q-57 -16 -61 -43q0 -8 20 -20q3 -3 21 -4l14 -2q30 -4 41 34l14 7v-11v0z" />
    <glyph glyph-name="circumflex" unicode="&#x2c6;" horiz-adv-x="0" 
d="M-72 1509l-290 -112h-78l436 256l20 -256h-39z" />
    <glyph glyph-name="breve" unicode="&#x2d8;" horiz-adv-x="2048" 
d="M408 1595h51q-117 -209 -348 -209q-58 0 -93.5 49.5t-35.5 106.5v25q0 22 4 28h55v-43q0 -22 45 -43.5t72 -21.5l22 -4q66 0 132.5 30.5t95.5 81.5zM-868 -182q0 -33 -21.5 -61.5t-54.5 -28.5q-60 0 -60 61q0 33 24 56.5t56 23.5q56 0 56 -51z" />
    <glyph glyph-name="dotaccent" unicode="&#x2d9;" horiz-adv-x="0" 
 />
    <glyph glyph-name="ogonek" unicode="&#x2db;" horiz-adv-x="1024" 
d="M524 -451l-131 308h113l147 -308h-129z" />
    <glyph glyph-name="tilde" unicode="&#x2dc;" horiz-adv-x="0" 
d="M-637 776q23 119 180 119q49 0 143.5 -28.5t143.5 -28.5q51 0 74 43l16 4q0 -82 -106 -115q-41 -12 -84 -12q-41 0 -88 14l-95 29q-47 14 -88 14q-55 0 -77 -39h-19z" />
    <glyph glyph-name="hungarumlaut" unicode="&#x2dd;" horiz-adv-x="1024" 
d="M684 1208h-117l199 301h137zM385 1208h-119l199 301h137z" />
    <glyph glyph-name="gravecomb" unicode="&#x300;" horiz-adv-x="0" 
d="M340 1464h-43l-168 131q-53 52 -53 68q0 68 41 61q41 -6 78 -57z" />
    <glyph glyph-name="acutecomb" unicode="&#x301;" horiz-adv-x="0" 
d="M346 1702q37 51 78 57t41 -61q0 -17 -53 -68l-168 -131h-43z" />
    <glyph glyph-name="tildecomb" unicode="&#x303;" horiz-adv-x="0" 
d="M-70 1466q23 119 181 119q49 0 143 -28.5t143 -28.5q52 0 74 43l16 4q0 -82 -106 -115q-41 -12 -84 -12q-41 0 -88 14l-94 29q-47 14 -88 14q-56 0 -78 -39h-19z" />
    <glyph glyph-name="hookabovecomb" unicode="&#x309;" horiz-adv-x="587" 
d="M398 1379q23 -20 24.5 -44.5t-9.5 -47.5t-31.5 -42t-42.5 -29l-119 -54q-5 -3 -12 -11q-6 -8 -6 -14v-4q2 13 18 13q8 0 13.5 -4.5t5.5 -11.5t-5.5 -11t-13.5 -4h-3q-22 0 -22 22q0 17 16 30q30 23 60.5 42.5t59.5 45.5q9 9 19 21t15.5 26t3 28t-17.5 26q-16 13 -41 11.5
t-48.5 -13t-41 -32t-18.5 -45.5q7 17 30 17q14 0 23 -7.5t9 -18.5t-9 -18.5t-23 -7.5q-17 0 -27.5 9.5t-10.5 23.5q0 49 40 88q15 15 36 25t44 13t45 -2t39 -20z" />
    <glyph glyph-name="dotbelowcomb" unicode="&#x323;" horiz-adv-x="927" 
d="M578 -147q0 -17 -5.5 -33t-16 -29t-24.5 -21t-30 -8q-59 0 -59 62q0 33 23.5 56.5t55.5 23.5q56 0 56 -51z" />
    <glyph glyph-name="uni1EA0" unicode="&#x1ea0;" 
d="M2517 -29q0 -130 -125 -225q-114 -87 -250 -88q-205 -1 -383 90q-34 17 -80 47.5t-106 73.5q-446 -262 -770 -262q-347 0 -576 205q-241 211 -241 553q0 334 194 536q195 201 531 201q52 0 118 -25v-24q-69 26 -118 26q-319 0 -513 -197q-192 -197 -192 -517
q0 -333 236 -539q223 -199 561 -199q312 0 749 258l-73 66q-56 -10 -97 -10q-112 0 -112 63q0 41 51 41q60 0 164 -45q20 0 84 58q66 60 76 81l90 215q75 181 75 281q-89 -19 -249 -19q-54 -87 -110 -169.5t-116 -163.5q-244 -340 -524 -340q-135 0 -223 63q-99 70 -99 201
q0 203 177 328q154 112 366 112h510q23 55 63 119t97 139q260 344 594 443q20 0 20 -33q0 -23 -69 -86q-203 -188 -228 -527q398 158 398 500q0 242 -224 391q-197 131 -450 131q-242 0 -455 -141q-239 -158 -239 -389q0 -275 215 -373l-7 -26q-237 97 -237 399
q0 242 248 410q221 149 475 149q266 0 471 -139q231 -158 231 -412q0 -368 -430 -536q-18 -216 -157 -412q-134 -188 -330 -293l61 -57q179 109 286.5 172t147.5 82q105 49 220 49q107 0 186 -64q88 -67 88 -172zM2163 1264q-48 0 -193 -123q-110 -93 -176 -168
q-159 -182 -211 -326q66 0 123 4.5t106 14.5q38 226 273 497q73 85 80 99q0 2 -2 2zM2488 -31q0 97 -75 156q-68 53 -168 53q-112 0 -226 -53q-37 -17 -138.5 -77t-270.5 -163q237 -198 532 -198q128 0 232 75q114 82 114 207zM1425 -18q-63 30 -94 30q-18 0 -18 -12
q0 -29 45 -29q25 0 67 11zM1106 612q-192 0 -346 -104q-174 -117 -174 -301q0 -236 225 -236q206 0 430 252q42 46 110.5 143t166.5 246h-412zM1195 -182q0 -17 -5.5 -33t-16 -28.5t-24.5 -20.5t-30 -8q-60 0 -60 61q0 16 6.5 31t17.5 25.5t25.5 17t30.5 6.5q56 0 56 -51z
" />
    <glyph glyph-name="uni1EA1" unicode="&#x1ea1;" horiz-adv-x="872" 
d="M961 446q-390 -475 -539 -475q-100 0 -156 119q-88 -119 -194 -119q-138 0 -138 201q0 180 138.5 311t318.5 131q72 0 105 -49q24 31 43 31q14 0 42.5 -6t43.5 -6q8 0 33.5 26.5t33.5 28.5l-268 -504q-35 -65 -35 -94q0 -41 45 -41q68 0 268 199q152 149 242 262z
M465 528q0 50 -43 50q-121 0 -252 -211q-117 -189 -117 -299q0 -68 41 -68q82 0 162 135q209 357 209 393zM220 -127q0 -33 -21.5 -61.5t-54.5 -28.5q-59 0 -59 61q0 33 23.5 56.5t55.5 23.5q56 0 56 -51z" />
    <glyph glyph-name="uni1EA2" unicode="&#x1ea2;" 
d="M2517 -29q0 -130 -125 -225q-114 -87 -250 -88q-205 -1 -383 90q-34 17 -80 47.5t-106 73.5q-446 -262 -770 -262q-347 0 -576 205q-241 211 -241 553q0 334 194 536q195 201 531 201q52 0 118 -25v-24q-69 26 -118 26q-319 0 -513 -197q-192 -197 -192 -517
q0 -333 236 -539q223 -199 561 -199q312 0 749 258l-73 66q-56 -10 -97 -10q-112 0 -112 63q0 41 51 41q60 0 164 -45q20 0 84 58q66 60 76 81l90 215q75 181 75 281q-89 -19 -249 -19q-54 -87 -110 -169.5t-116 -163.5q-244 -340 -524 -340q-135 0 -223 63q-99 70 -99 201
q0 203 177 328q154 112 366 112h510q23 55 63 119t97 139q260 344 594 443q20 0 20 -33q0 -23 -69 -86q-203 -188 -228 -527q398 158 398 500q0 242 -224 391q-197 131 -450 131q-242 0 -455 -141q-239 -158 -239 -389q0 -275 215 -373l-7 -26q-237 97 -237 399
q0 242 248 410q221 149 475 149q266 0 471 -139q231 -158 231 -412q0 -368 -430 -536q-18 -216 -157 -412q-134 -188 -330 -293l61 -57q179 109 286.5 172t147.5 82q105 49 220 49q107 0 186 -64q88 -67 88 -172zM2163 1264q-48 0 -193 -123q-110 -93 -176 -168
q-159 -182 -211 -326q66 0 123 4.5t106 14.5q38 226 273 497q73 85 80 99q0 2 -2 2zM2488 -31q0 97 -75 156q-68 53 -168 53q-112 0 -226 -53q-37 -17 -138.5 -77t-270.5 -163q237 -198 532 -198q128 0 232 75q114 82 114 207zM1425 -18q-63 30 -94 30q-18 0 -18 -12
q0 -29 45 -29q25 0 67 11zM1106 612q-192 0 -346 -104q-174 -117 -174 -301q0 -236 225 -236q206 0 430 252q42 46 110.5 143t166.5 246h-412zM2647 1632q23 -20 24.5 -44.5t-9.5 -47.5t-31.5 -42t-42.5 -29l-119 -54q-5 -3 -12 -11q-6 -8 -6 -14v-4q2 13 18 13
q8 0 13.5 -4.5t5.5 -11.5t-5.5 -11t-13.5 -4h-3q-22 0 -22 22q0 17 16 30q30 23 60.5 42.5t59.5 45.5q9 9 19 21t15.5 26t3 28t-17.5 26q-16 13 -41 11.5t-48.5 -13t-41 -32t-18.5 -45.5q7 17 30 17q14 0 23 -7.5t9 -18.5t-9 -18.5t-23 -7.5q-17 0 -27.5 9.5t-10.5 23.5
q0 49 40 88q15 15 36 25t44 13t45 -2t39 -20z" />
    <glyph glyph-name="uni1EA3" unicode="&#x1ea3;" horiz-adv-x="872" 
d="M961 446q-390 -475 -539 -475q-100 0 -156 119q-89 -119 -194 -119q-138 0 -138 201q0 180 138 311q140 131 319 131q72 0 105 -49q24 31 43 31q13 0 42 -6q28 -6 44 -6q7 0 33 26q26 27 34 29l-268 -504q-35 -65 -35 -94q0 -41 45 -41q69 0 268 199q76 75 136.5 140
t105.5 122zM465 528q0 50 -43 50q-122 0 -252 -211q-117 -189 -117 -299q0 -68 41 -68q82 0 162 135q209 358 209 393zM650 971q23 -20 24.5 -44.5t-9.5 -47.5t-31.5 -42t-42.5 -29l-119 -54q-5 -3 -12 -11q-6 -8 -6 -14v-4q2 13 18 13q8 0 13.5 -4.5t5.5 -11.5t-5.5 -11
t-13.5 -4h-3q-22 0 -22 22q0 17 16 30q30 23 60.5 42.5t59.5 45.5q9 9 19 21t15.5 26t3 28t-17.5 26q-16 13 -41 11.5t-48.5 -13t-41 -32t-18.5 -45.5q7 17 30 17q14 0 23 -7.5t9 -18.5t-9 -18.5t-23 -7.5q-17 0 -27.5 9.5t-10.5 23.5q0 49 40 88q15 15 36 25t44 13t45 -2
t39 -20z" />
    <glyph glyph-name="uni1EA4" unicode="&#x1ea4;" 
d="M2363 1471q82 -120 82 -269q0 -368 -430 -536q-18 -216 -157 -412q-134 -188 -330 -293l61 -57q179 109 286.5 172t147.5 82q105 49 220 49q107 0 186 -64q88 -67 88 -172q0 -130 -125 -225q-114 -87 -250 -88q-205 -1 -383 90q-34 17 -80 47.5t-106 73.5
q-446 -262 -770 -262q-347 0 -576 205q-241 211 -241 553q0 334 194 536q195 201 531 201q52 0 118 -25v-24q-69 26 -118 26q-319 0 -513 -197q-192 -197 -192 -517q0 -333 236 -539q223 -199 561 -199q312 0 749 258l-73 66q-56 -10 -97 -10q-112 0 -112 63q0 41 51 41
q60 0 164 -45q20 0 84 58q66 60 76 81l90 215q75 181 75 281q-89 -19 -249 -19q-54 -87 -110 -169.5t-116 -163.5q-244 -340 -524 -340q-135 0 -223 63q-99 70 -99 201q0 203 177 328q154 112 366 112h510q23 55 63 119t97 139q260 344 594 443q20 0 20 -33q0 -23 -69 -86
q-203 -188 -228 -527q398 158 398 500q0 144 -82 258l-164 -63h-78l198 116q-43 42 -98 80q-197 131 -450 131q-242 0 -455 -141q-239 -158 -239 -389q0 -275 215 -373l-7 -26q-237 97 -237 399q0 242 248 410q221 149 475 149q266 0 471 -139q57 -39 102 -86l213 125
l21 -256h-39l-49 112zM1106 612q-192 0 -346 -104q-174 -117 -174 -301q0 -236 225 -236q206 0 430 252q42 46 110.5 143t166.5 246h-412zM2488 -31q0 97 -75 156q-68 53 -168 53q-112 0 -226 -53q-37 -17 -138.5 -77t-270.5 -163q237 -198 532 -198q128 0 232 75
q114 82 114 207zM2163 1264q-48 0 -193 -123q-110 -93 -176 -168q-159 -182 -211 -326q66 0 123 4.5t106 14.5q38 226 273 497q73 85 80 99q0 2 -2 2zM2770 1757q36 50 77 58q41 6 41 -62q0 -16 -53 -67l-168 -132h-43zM1425 -18q-63 30 -94 30q-18 0 -18 -12q0 -29 45 -29
q25 0 67 11z" />
    <glyph glyph-name="uni1EA5" unicode="&#x1ea5;" horiz-adv-x="872" 
d="M961 446q-390 -475 -539 -475q-100 0 -156 119q-88 -119 -194 -119q-138 0 -138 201q0 180 138.5 311t318.5 131q72 0 105 -49q24 31 43 31q14 0 42.5 -6t43.5 -6q8 0 33.5 26.5t33.5 28.5l-268 -504q-35 -65 -35 -94q0 -41 45 -41q68 0 268 199q152 149 242 262z
M465 528q0 50 -43 50q-121 0 -252 -211q-117 -189 -117 -299q0 -68 41 -68q82 0 162 135q209 357 209 393zM625 797l-291 -113h-77l436 256l20 -256h-39zM889 1008q37 51 78 57t41 -61q0 -17 -53 -68l-168 -131h-43z" />
    <glyph glyph-name="uni1EA6" unicode="&#x1ea6;" 
d="M2363 1471q82 -120 82 -269q0 -368 -430 -536q-18 -216 -157 -412q-134 -188 -330 -293l61 -57q179 109 286.5 172t147.5 82q105 49 220 49q107 0 186 -64q88 -67 88 -172q0 -130 -125 -225q-114 -87 -250 -88q-205 -1 -383 90q-34 17 -80 47.5t-106 73.5
q-446 -262 -770 -262q-347 0 -576 205q-241 211 -241 553q0 334 194 536q195 201 531 201q52 0 118 -25v-24q-69 26 -118 26q-319 0 -513 -197q-192 -197 -192 -517q0 -333 236 -539q223 -199 561 -199q312 0 749 258l-73 66q-56 -10 -97 -10q-112 0 -112 63q0 41 51 41
q60 0 164 -45q20 0 84 58q66 60 76 81l90 215q75 181 75 281q-89 -19 -249 -19q-54 -87 -110 -169.5t-116 -163.5q-244 -340 -524 -340q-135 0 -223 63q-99 70 -99 201q0 203 177 328q154 112 366 112h510q23 55 63 119t97 139q260 344 594 443q20 0 20 -33q0 -23 -69 -86
q-203 -188 -228 -527q398 158 398 500q0 144 -82 258l-164 -63h-78l198 116q-43 42 -98 80q-197 131 -450 131q-242 0 -455 -141q-239 -158 -239 -389q0 -275 215 -373l-7 -26q-237 97 -237 399q0 242 248 410q221 149 475 149q266 0 471 -139q57 -39 102 -86l213 125
l21 -256h-39l-49 112zM1106 612q-192 0 -346 -104q-174 -117 -174 -301q0 -236 225 -236q206 0 430 252q42 46 110.5 143t166.5 246h-412zM2488 -31q0 97 -75 156q-68 53 -168 53q-112 0 -226 -53q-37 -17 -138.5 -77t-270.5 -163q237 -198 532 -198q128 0 232 75
q114 82 114 207zM2163 1264q-48 0 -193 -123q-110 -93 -176 -168q-159 -182 -211 -326q66 0 123 4.5t106 14.5q38 226 273 497q73 85 80 99q0 2 -2 2zM2662 1591l-168 131q-53 53 -53 68q0 68 41 62q41 -8 78 -58l145 -203h-43zM1425 -18q-63 30 -94 30q-18 0 -18 -12
q0 -29 45 -29q25 0 67 11z" />
    <glyph glyph-name="uni1EA7" unicode="&#x1ea7;" horiz-adv-x="872" 
d="M960 446q-389 -475 -538 -475q-101 0 -156 119q-88 -119 -195 -119q-137 0 -137 201q0 180 138.5 311t318.5 131q71 0 104 -49q25 31 43 31q15 0 43.5 -6t42.5 -6q6 0 33 26.5t35 28.5l-268 -504q-35 -65 -35 -94q0 -41 45 -41q67 0 268 199q131 131 242 262zM465 528
q0 50 -43 50q-121 0 -252 -211q-117 -189 -117 -299q0 -68 41 -68q82 0 162 135q209 357 209 393zM625 795l-290 -112h-78l436 256l20 -256h-39zM869 877h-43l-168 131q-53 52 -53 68q0 68 41 62q41 -7 78 -58z" />
    <glyph glyph-name="uni1EA8" unicode="&#x1ea8;" 
d="M2363 1471q82 -120 82 -269q0 -368 -430 -536q-18 -216 -157 -412q-134 -188 -330 -293l61 -57q179 109 286.5 172t147.5 82q105 49 220 49q107 0 186 -64q88 -67 88 -172q0 -130 -125 -225q-114 -87 -250 -88q-205 -1 -383 90q-34 17 -80 47.5t-106 73.5
q-446 -262 -770 -262q-347 0 -576 205q-241 211 -241 553q0 334 194 536q195 201 531 201q52 0 118 -25v-24q-69 26 -118 26q-319 0 -513 -197q-192 -197 -192 -517q0 -333 236 -539q223 -199 561 -199q312 0 749 258l-73 66q-56 -10 -97 -10q-112 0 -112 63q0 41 51 41
q60 0 164 -45q20 0 84 58q66 60 76 81l90 215q75 181 75 281q-89 -19 -249 -19q-54 -87 -110 -169.5t-116 -163.5q-244 -340 -524 -340q-135 0 -223 63q-99 70 -99 201q0 203 177 328q154 112 366 112h510q23 55 63 119t97 139q260 344 594 443q20 0 20 -33q0 -23 -69 -86
q-203 -188 -228 -527q398 158 398 500q0 144 -82 258l-164 -63h-78l198 116q-43 42 -98 80q-197 131 -450 131q-242 0 -455 -141q-239 -158 -239 -389q0 -275 215 -373l-7 -26q-237 97 -237 399q0 242 248 410q221 149 475 149q266 0 471 -139q57 -39 102 -86l213 125
l21 -256h-39l-49 112zM1106 612q-192 0 -346 -104q-174 -117 -174 -301q0 -236 225 -236q206 0 430 252q42 46 110.5 143t166.5 246h-412zM2488 -31q0 97 -75 156q-68 53 -168 53q-112 0 -226 -53q-37 -17 -138.5 -77t-270.5 -163q237 -198 532 -198q128 0 232 75
q114 82 114 207zM2163 1264q-48 0 -193 -123q-110 -93 -176 -168q-159 -182 -211 -326q66 0 123 4.5t106 14.5q38 226 273 497q73 85 80 99q0 2 -2 2zM2837 1870q23 -20 24.5 -44.5t-9.5 -47.5t-31.5 -42t-42.5 -29l-119 -54q-5 -3 -12 -11q-6 -8 -6 -14v-4q2 13 18 13
q8 0 13.5 -4.5t5.5 -11.5t-5.5 -11t-13.5 -4h-3q-22 0 -22 22q0 17 16 30q30 23 60.5 42.5t59.5 45.5q9 9 19 21t15.5 26t3 28t-17.5 26q-16 13 -41 11.5t-48.5 -13t-41 -32t-18.5 -45.5q7 17 30 17q14 0 23 -7.5t9 -18.5t-9 -18.5t-23 -7.5q-17 0 -27.5 9.5t-10.5 23.5
q0 49 40 88q15 15 36 25t44 13t45 -2t39 -20zM1425 -18q-63 30 -94 30q-18 0 -18 -12q0 -29 45 -29q25 0 67 11z" />
    <glyph glyph-name="uni1EA9" unicode="&#x1ea9;" horiz-adv-x="872" 
d="M961 446q-390 -475 -539 -475q-100 0 -156 119q-89 -119 -194 -119q-138 0 -138 201q0 180 138 311q140 131 319 131q72 0 105 -49q24 31 43 31q13 0 42 -6q28 -6 44 -6q7 0 33 26q26 27 34 29l-268 -504q-35 -65 -35 -94q0 -41 45 -41q69 0 268 199q76 75 136.5 140
t105.5 122zM465 528q0 50 -43 50q-122 0 -252 -211q-117 -189 -117 -299q0 -68 41 -68q82 0 162 135q209 358 209 393zM335 684h-77l436 256l20 -256h-39l-49 113zM980 1101q23 -20 24.5 -44.5t-9.5 -47.5t-31.5 -42t-42.5 -29l-119 -54q-5 -3 -12 -11q-6 -8 -6 -14v-4
q2 13 18 13q8 0 13.5 -4.5t5.5 -11.5t-5.5 -11t-13.5 -4h-3q-22 0 -22 22q0 17 16 30q30 23 60.5 42.5t59.5 45.5q9 9 19 21t15.5 26t3 28t-17.5 26q-16 13 -41 11.5t-48.5 -13t-41 -32t-18.5 -45.5q7 17 30 17q14 0 23 -7.5t9 -18.5t-9 -18.5t-23 -7.5q-17 0 -27.5 9.5
t-10.5 23.5q0 49 40 88q15 15 36 25t44 13t45 -2t39 -20z" />
    <glyph glyph-name="uni1EAA" unicode="&#x1eaa;" 
d="M2363 1471q82 -120 82 -269q0 -368 -430 -536q-18 -216 -157 -412q-134 -188 -330 -293l61 -57q179 109 286.5 172t147.5 82q105 49 220 49q107 0 186 -64q88 -67 88 -172q0 -130 -125 -225q-114 -87 -250 -88q-205 -1 -383 90q-34 17 -80 47.5t-106 73.5
q-446 -262 -770 -262q-347 0 -576 205q-241 211 -241 553q0 334 194 536q195 201 531 201q52 0 118 -25v-24q-69 26 -118 26q-319 0 -513 -197q-192 -197 -192 -517q0 -333 236 -539q223 -199 561 -199q312 0 749 258l-73 66q-56 -10 -97 -10q-112 0 -112 63q0 41 51 41
q60 0 164 -45q20 0 84 58q66 60 76 81l90 215q75 181 75 281q-89 -19 -249 -19q-54 -87 -110 -169.5t-116 -163.5q-244 -340 -524 -340q-135 0 -223 63q-99 70 -99 201q0 203 177 328q154 112 366 112h510q23 55 63 119t97 139q260 344 594 443q20 0 20 -33q0 -23 -69 -86
q-203 -188 -228 -527q398 158 398 500q0 144 -82 258l-164 -63h-78l198 116q-43 42 -98 80q-197 131 -450 131q-242 0 -455 -141q-239 -158 -239 -389q0 -275 215 -373l-7 -26q-237 97 -237 399q0 242 248 410q221 149 475 149q266 0 471 -139q57 -39 102 -86l213 125
l21 -256h-39l-49 112zM1106 612q-192 0 -346 -104q-174 -117 -174 -301q0 -236 225 -236q206 0 430 252q42 46 110.5 143t166.5 246h-412zM2488 -31q0 97 -75 156q-68 53 -168 53q-112 0 -226 -53q-37 -17 -138.5 -77t-270.5 -163q237 -198 532 -198q128 0 232 75
q114 82 114 207zM2163 1264q-48 0 -193 -123q-110 -93 -176 -168q-159 -182 -211 -326q66 0 123 4.5t106 14.5q38 226 273 497q73 85 80 99q0 2 -2 2zM2370 1679q19 90 158 90q45 0 126 -22q82 -21 126 -21q45 0 65 33l15 2q0 -58 -95 -84q-36 -10 -73 -10q-39 0 -78 10
l-82 21q-50 12 -78 12q-54 0 -67 -31h-17zM1425 -18q-63 30 -94 30q-18 0 -18 -12q0 -29 45 -29q25 0 67 11z" />
    <glyph glyph-name="uni1EAB" unicode="&#x1eab;" horiz-adv-x="872" 
d="M961 446q-390 -475 -539 -475q-100 0 -156 119q-88 -119 -194 -119q-138 0 -138 201q0 180 138.5 311t318.5 131q72 0 105 -49q24 31 43 31q14 0 42.5 -6t43.5 -6q8 0 33.5 26.5t33.5 28.5l-268 -504q-35 -65 -35 -94q0 -41 45 -41q68 0 268 199q152 149 242 262z
M465 528q0 50 -43 50q-121 0 -252 -211q-117 -189 -117 -299q0 -68 41 -68q82 0 162 135q209 357 209 393zM487 997q18 90 158 90q43 0 126 -21.5t126 -21.5q45 0 65 33l14 2q0 -59 -94 -84q-39 -10 -73 -10q-37 0 -78 10l-82 21q-49 12 -78 12q-53 0 -68 -31h-16zM624 797
l-291 -113h-77l436 256l20 -256h-39z" />
    <glyph glyph-name="uni1EAC" unicode="&#x1eac;" 
d="M2363 1471q82 -120 82 -269q0 -368 -430 -536q-18 -216 -157 -412q-134 -188 -330 -293l61 -57q179 109 286.5 172t147.5 82q105 49 220 49q107 0 186 -64q88 -67 88 -172q0 -130 -125 -225q-114 -87 -250 -88q-205 -1 -383 90q-34 17 -80 47.5t-106 73.5
q-446 -262 -770 -262q-347 0 -576 205q-241 211 -241 553q0 334 194 536q195 201 531 201q52 0 118 -25v-24q-69 26 -118 26q-319 0 -513 -197q-192 -197 -192 -517q0 -333 236 -539q223 -199 561 -199q312 0 749 258l-73 66q-56 -10 -97 -10q-112 0 -112 63q0 41 51 41
q60 0 164 -45q20 0 84 58q66 60 76 81l90 215q75 181 75 281q-89 -19 -249 -19q-54 -87 -110 -169.5t-116 -163.5q-244 -340 -524 -340q-135 0 -223 63q-99 70 -99 201q0 203 177 328q154 112 366 112h510q23 55 63 119t97 139q260 344 594 443q20 0 20 -33q0 -23 -69 -86
q-203 -188 -228 -527q398 158 398 500q0 144 -82 258l-164 -63h-78l198 116q-43 42 -98 80q-197 131 -450 131q-242 0 -455 -141q-239 -158 -239 -389q0 -275 215 -373l-7 -26q-237 97 -237 399q0 242 248 410q221 149 475 149q266 0 471 -139q57 -39 102 -86l213 125
l21 -256h-39l-49 112zM1106 612q-192 0 -346 -104q-174 -117 -174 -301q0 -236 225 -236q206 0 430 252q42 46 110.5 143t166.5 246h-412zM2488 -31q0 97 -75 156q-68 53 -168 53q-112 0 -226 -53q-37 -17 -138.5 -77t-270.5 -163q237 -198 532 -198q128 0 232 75
q114 82 114 207zM2163 1264q-48 0 -193 -123q-110 -93 -176 -168q-159 -182 -211 -326q66 0 123 4.5t106 14.5q38 226 273 497q73 85 80 99q0 2 -2 2zM1195 -182q0 -17 -5.5 -33t-16 -28.5t-24.5 -20.5t-30 -8q-60 0 -60 61q0 16 6.5 31t17.5 25.5t25.5 17t30.5 6.5
q56 0 56 -51zM1425 -18q-63 30 -94 30q-18 0 -18 -12q0 -29 45 -29q25 0 67 11z" />
    <glyph glyph-name="uni1EAD" unicode="&#x1ead;" horiz-adv-x="872" 
d="M961 446q-390 -475 -539 -475q-100 0 -156 119q-88 -119 -194 -119q-138 0 -138 201q0 180 138.5 311t318.5 131q72 0 105 -49q24 31 43 31q14 0 42.5 -6t43.5 -6q8 0 33.5 26.5t33.5 28.5l-268 -504q-35 -65 -35 -94q0 -41 45 -41q68 0 268 199q152 149 242 262z
M465 528q0 50 -43 50q-121 0 -252 -211q-117 -189 -117 -299q0 -68 41 -68q82 0 162 135q209 357 209 393zM625 797l-291 -113h-77l436 256l20 -256h-39zM199 -127q0 -33 -21.5 -61.5t-54.5 -28.5q-59 0 -59 61q0 33 23.5 56.5t56.5 23.5q55 0 55 -51z" />
    <glyph glyph-name="uni1EAE" unicode="&#x1eae;" 
d="M2612 1901q36 52 77 58t41 -62q0 -16 -53 -67l-168 -131h-43zM2739 1710q-117 -209 -349 -209q-47 0 -77 30q132 -138 132 -329q0 -368 -430 -536q-18 -216 -157 -412q-134 -188 -330 -293l61 -57q179 109 286.5 172t147.5 82q105 49 220 49q107 0 186 -64
q88 -67 88 -172q0 -130 -125 -225q-114 -87 -250 -88q-205 -1 -383 90q-34 17 -80 47.5t-106 73.5q-446 -262 -770 -262q-347 0 -576 205q-241 211 -241 553q0 334 194 536q195 201 531 201q52 0 118 -25v-24q-69 26 -118 26q-319 0 -513 -197q-192 -197 -192 -517
q0 -333 236 -539q223 -199 561 -199q312 0 749 258l-73 66q-56 -10 -97 -10q-112 0 -112 63q0 41 51 41q60 0 164 -45q20 0 84 58q66 60 76 81l90 215q75 181 75 281q-89 -19 -249 -19q-54 -87 -110 -169.5t-116 -163.5q-244 -340 -524 -340q-135 0 -223 63q-99 70 -99 201
q0 203 177 328q154 112 366 112h510q23 55 63 119t97 139q260 344 594 443q20 0 20 -33q0 -23 -69 -86q-203 -188 -228 -527q398 158 398 500q0 242 -224 391q-197 131 -450 131q-242 0 -455 -141q-239 -158 -239 -389q0 -275 215 -373l-7 -26q-237 97 -237 399
q0 242 248 410q221 149 475 149q266 0 471 -139q51 -35 93 -77q-2 3 -5 6t-5 7q-36 49 -36 107v25q0 23 4 28h56v-43q0 -22 45 -44q45 -21 71 -21l23 -4q66 0 132 30q67 31 95 82h52zM1106 612q-192 0 -346 -104q-174 -117 -174 -301q0 -236 225 -236q206 0 430 252
q42 46 110.5 143t166.5 246h-412zM2488 -31q0 97 -75 156q-68 53 -168 53q-112 0 -226 -53q-37 -17 -138.5 -77t-270.5 -163q237 -198 532 -198q128 0 232 75q114 82 114 207zM2163 1264q-48 0 -193 -123q-110 -93 -176 -168q-159 -182 -211 -326q66 0 123 4.5t106 14.5
q38 226 273 497q73 85 80 99q0 2 -2 2zM1425 -18q-63 30 -94 30q-18 0 -18 -12q0 -29 45 -29q25 0 67 11z" />
    <glyph glyph-name="uni1EAF" unicode="&#x1eaf;" horiz-adv-x="872" 
d="M961 446q-390 -475 -539 -475q-100 0 -156 119q-88 -119 -194 -119q-138 0 -138 201q0 180 138.5 311t318.5 131q72 0 105 -49q24 31 43 31q14 0 42.5 -6t43.5 -6q8 0 33.5 26.5t33.5 28.5l-268 -504q-35 -65 -35 -94q0 -41 45 -41q68 0 268 199q152 149 242 262z
M465 528q0 50 -43 50q-121 0 -252 -211q-117 -189 -117 -299q0 -68 41 -68q82 0 162 135q209 357 209 393zM784 899h52q-117 -209 -349 -209q-57 0 -93 49t-36 107v24q0 23 4 29h56v-43q0 -22 45 -43.5t72 -21.5l22 -5q66 0 132.5 31t94.5 82zM737 1083q37 52 78 58
q43 6 43 -62q0 -24 -55 -67l-166 -131h-43z" />
    <glyph glyph-name="uni1EB0" unicode="&#x1eb0;" 
d="M2506 1692l-168 131q-53 51 -53 68q0 67 41 61q40 -6 78 -57l145 -203h-43zM2739 1710q-117 -209 -349 -209q-47 0 -77 30q132 -138 132 -329q0 -368 -430 -536q-18 -216 -157 -412q-134 -188 -330 -293l61 -57q179 109 286.5 172t147.5 82q105 49 220 49q107 0 186 -64
q88 -67 88 -172q0 -130 -125 -225q-114 -87 -250 -88q-205 -1 -383 90q-34 17 -80 47.5t-106 73.5q-446 -262 -770 -262q-347 0 -576 205q-241 211 -241 553q0 334 194 536q195 201 531 201q52 0 118 -25v-24q-69 26 -118 26q-319 0 -513 -197q-192 -197 -192 -517
q0 -333 236 -539q223 -199 561 -199q312 0 749 258l-73 66q-56 -10 -97 -10q-112 0 -112 63q0 41 51 41q60 0 164 -45q20 0 84 58q66 60 76 81l90 215q75 181 75 281q-89 -19 -249 -19q-54 -87 -110 -169.5t-116 -163.5q-244 -340 -524 -340q-135 0 -223 63q-99 70 -99 201
q0 203 177 328q154 112 366 112h510q23 55 63 119t97 139q260 344 594 443q20 0 20 -33q0 -23 -69 -86q-203 -188 -228 -527q398 158 398 500q0 242 -224 391q-197 131 -450 131q-242 0 -455 -141q-239 -158 -239 -389q0 -275 215 -373l-7 -26q-237 97 -237 399
q0 242 248 410q221 149 475 149q266 0 471 -139q51 -35 93 -77q-2 3 -5 6t-5 7q-36 49 -36 107v25q0 23 4 28h56v-43q0 -22 45 -44q45 -21 71 -21l23 -4q66 0 132 30q67 31 95 82h52zM1106 612q-192 0 -346 -104q-174 -117 -174 -301q0 -236 225 -236q206 0 430 252
q42 46 110.5 143t166.5 246h-412zM2488 -31q0 97 -75 156q-68 53 -168 53q-112 0 -226 -53q-37 -17 -138.5 -77t-270.5 -163q237 -198 532 -198q128 0 232 75q114 82 114 207zM2163 1264q-48 0 -193 -123q-110 -93 -176 -168q-159 -182 -211 -326q66 0 123 4.5t106 14.5
q38 226 273 497q73 85 80 99q0 2 -2 2zM1425 -18q-63 30 -94 30q-18 0 -18 -12q0 -29 45 -29q25 0 67 11z" />
    <glyph glyph-name="uni1EB1" unicode="&#x1eb1;" horiz-adv-x="872" 
d="M961 446q-390 -475 -539 -475q-100 0 -156 119q-88 -119 -194 -119q-138 0 -138 201q0 180 138.5 311t318.5 131q72 0 105 -49q24 31 43 31q14 0 42.5 -6t43.5 -6q8 0 33.5 26.5t33.5 28.5l-268 -504q-35 -65 -35 -94q0 -41 45 -41q68 0 268 199q152 149 242 262z
M465 528q0 50 -43 50q-121 0 -252 -211q-117 -189 -117 -299q0 -68 41 -68q82 0 162 135q209 357 209 393zM784 899h52q-117 -209 -349 -209q-57 0 -93 49t-36 107v24q0 23 4 29h56v-43q0 -22 45 -43.5t72 -21.5l22 -5q66 0 132.5 31t94.5 82zM669 881h-43l-166 131
q-55 43 -55 67q0 68 43 62q41 -6 78 -58z" />
    <glyph glyph-name="uni1EB2" unicode="&#x1eb2;" 
d="M2684 1980q23 -20 24.5 -44.5t-9.5 -47.5t-31.5 -42t-42.5 -29l-119 -54q-5 -3 -12 -11q-6 -8 -6 -14v-4q2 13 18 13q8 0 13.5 -4.5t5.5 -11.5t-5.5 -11t-13.5 -4h-3q-22 0 -22 22q0 17 16 30q30 23 60.5 42.5t59.5 45.5q9 9 19 21t15.5 26t3 28t-17.5 26
q-16 13 -41 11.5t-48.5 -13t-41 -32t-18.5 -45.5q7 17 30 17q14 0 23 -7.5t9 -18.5t-9 -18.5t-23 -7.5q-17 0 -27.5 9.5t-10.5 23.5q0 49 40 88q15 15 36 25t44 13t45 -2t39 -20zM2739 1710q-117 -209 -349 -209q-47 0 -77 30q132 -138 132 -329q0 -368 -430 -536
q-18 -216 -157 -412q-134 -188 -330 -293l61 -57q179 109 286.5 172t147.5 82q105 49 220 49q107 0 186 -64q88 -67 88 -172q0 -130 -125 -225q-114 -87 -250 -88q-205 -1 -383 90q-34 17 -80 47.5t-106 73.5q-446 -262 -770 -262q-347 0 -576 205q-241 211 -241 553
q0 334 194 536q195 201 531 201q52 0 118 -25v-24q-69 26 -118 26q-319 0 -513 -197q-192 -197 -192 -517q0 -333 236 -539q223 -199 561 -199q312 0 749 258l-73 66q-56 -10 -97 -10q-112 0 -112 63q0 41 51 41q60 0 164 -45q20 0 84 58q66 60 76 81l90 215q75 181 75 281
q-89 -19 -249 -19q-54 -87 -110 -169.5t-116 -163.5q-244 -340 -524 -340q-135 0 -223 63q-99 70 -99 201q0 203 177 328q154 112 366 112h510q23 55 63 119t97 139q260 344 594 443q20 0 20 -33q0 -23 -69 -86q-203 -188 -228 -527q398 158 398 500q0 242 -224 391
q-197 131 -450 131q-242 0 -455 -141q-239 -158 -239 -389q0 -275 215 -373l-7 -26q-237 97 -237 399q0 242 248 410q221 149 475 149q266 0 471 -139q51 -35 93 -77q-2 3 -5 6t-5 7q-36 49 -36 107v25q0 23 4 28h56v-43q0 -22 45 -44q45 -21 71 -21l23 -4q66 0 132 30
q67 31 95 82h52zM1106 612q-192 0 -346 -104q-174 -117 -174 -301q0 -236 225 -236q206 0 430 252q42 46 110.5 143t166.5 246h-412zM2488 -31q0 97 -75 156q-68 53 -168 53q-112 0 -226 -53q-37 -17 -138.5 -77t-270.5 -163q237 -198 532 -198q128 0 232 75q114 82 114 207
zM2163 1264q-48 0 -193 -123q-110 -93 -176 -168q-159 -182 -211 -326q66 0 123 4.5t106 14.5q38 226 273 497q73 85 80 99q0 2 -2 2zM1425 -18q-63 30 -94 30q-18 0 -18 -12q0 -29 45 -29q25 0 67 11z" />
    <glyph glyph-name="uni1EB3" unicode="&#x1eb3;" horiz-adv-x="872" 
d="M961 446q-390 -475 -539 -475q-100 0 -156 119q-89 -119 -194 -119q-138 0 -138 201q0 180 138 311q140 131 319 131q72 0 105 -49q24 31 43 31q13 0 42 -6q28 -6 44 -6q7 0 33 26q26 27 34 29l-268 -504q-35 -65 -35 -94q0 -41 45 -41q69 0 268 199q76 75 136.5 140
t105.5 122zM465 528q0 50 -43 50q-122 0 -252 -211q-117 -189 -117 -299q0 -68 41 -68q82 0 162 135q209 358 209 393zM836 899q-117 -209 -349 -209q-57 0 -93 49t-36 107v24q0 24 4 29h56v-43q0 -22 45 -44q45 -21 72 -21l22 -5q67 0 132 31q67 31 95 82h52zM779 1134
q23 -20 24.5 -44.5t-9.5 -47.5t-31.5 -42t-42.5 -29l-119 -54q-5 -3 -12 -11q-6 -8 -6 -14v-4q2 13 18 13q8 0 13.5 -4.5t5.5 -11.5t-5.5 -11t-13.5 -4h-3q-22 0 -22 22q0 17 16 30q30 23 60.5 42.5t59.5 45.5q9 9 19 21t15.5 26t3 28t-17.5 26q-16 13 -41 11.5t-48.5 -13
t-41 -32t-18.5 -45.5q7 17 30 17q14 0 23 -7.5t9 -18.5t-9 -18.5t-23 -7.5q-17 0 -27.5 9.5t-10.5 23.5q0 49 40 88q15 15 36 25t44 13t45 -2t39 -20z" />
    <glyph glyph-name="uni1EB4" unicode="&#x1eb4;" 
d="M2279 1833q20 119 178 119q47 0 143 -29q93 -28 144 -28q50 0 73 45l17 2q0 -82 -107 -115q-41 -12 -84 -12q-40 0 -88 14l-94 29q-48 14 -88 14q-59 0 -78 -39h-16zM2739 1710q-117 -209 -349 -209q-47 0 -77 30q132 -138 132 -329q0 -368 -430 -536q-18 -216 -157 -412
q-134 -188 -330 -293l61 -57q179 109 286.5 172t147.5 82q105 49 220 49q107 0 186 -64q88 -67 88 -172q0 -130 -125 -225q-114 -87 -250 -88q-205 -1 -383 90q-34 17 -80 47.5t-106 73.5q-446 -262 -770 -262q-347 0 -576 205q-241 211 -241 553q0 334 194 536
q195 201 531 201q52 0 118 -25v-24q-69 26 -118 26q-319 0 -513 -197q-192 -197 -192 -517q0 -333 236 -539q223 -199 561 -199q312 0 749 258l-73 66q-56 -10 -97 -10q-112 0 -112 63q0 41 51 41q60 0 164 -45q20 0 84 58q66 60 76 81l90 215q75 181 75 281
q-89 -19 -249 -19q-54 -87 -110 -169.5t-116 -163.5q-244 -340 -524 -340q-135 0 -223 63q-99 70 -99 201q0 203 177 328q154 112 366 112h510q23 55 63 119t97 139q260 344 594 443q20 0 20 -33q0 -23 -69 -86q-203 -188 -228 -527q398 158 398 500q0 242 -224 391
q-197 131 -450 131q-242 0 -455 -141q-239 -158 -239 -389q0 -275 215 -373l-7 -26q-237 97 -237 399q0 242 248 410q221 149 475 149q266 0 471 -139q51 -35 93 -77q-2 3 -5 6t-5 7q-36 49 -36 107v25q0 23 4 28h56v-43q0 -22 45 -44q45 -21 71 -21l23 -4q66 0 132 30
q67 31 95 82h52zM1106 612q-192 0 -346 -104q-174 -117 -174 -301q0 -236 225 -236q206 0 430 252q42 46 110.5 143t166.5 246h-412zM2488 -31q0 97 -75 156q-68 53 -168 53q-112 0 -226 -53q-37 -17 -138.5 -77t-270.5 -163q237 -198 532 -198q128 0 232 75q114 82 114 207
zM2163 1264q-48 0 -193 -123q-110 -93 -176 -168q-159 -182 -211 -326q66 0 123 4.5t106 14.5q38 226 273 497q73 85 80 99q0 2 -2 2zM1425 -18q-63 30 -94 30q-18 0 -18 -12q0 -29 45 -29q25 0 67 11z" />
    <glyph glyph-name="uni1EB5" unicode="&#x1eb5;" horiz-adv-x="872" 
d="M961 446q-390 -475 -539 -475q-100 0 -156 119q-88 -119 -194 -119q-138 0 -138 201q0 180 138.5 311t318.5 131q72 0 105 -49q24 31 43 31q14 0 42.5 -6t43.5 -6q8 0 33.5 26.5t33.5 28.5l-268 -504q-35 -65 -35 -94q0 -41 45 -41q68 0 268 199q152 149 242 262z
M465 528q0 50 -43 50q-121 0 -252 -211q-117 -189 -117 -299q0 -68 41 -68q82 0 162 135q209 357 209 393zM786 901h51q-117 -209 -348 -209q-57 0 -93 49.5t-36 106.5v24q0 23 4 29h55v-43q0 -22 45.5 -43.5t71.5 -21.5l23 -5q65 0 131.5 31t95.5 82zM479 975
q20 119 178 119q49 0 143.5 -29t143.5 -29q51 0 73 45l17 2q0 -82 -107 -114q-41 -13 -84 -13q-41 0 -88 15l-94 28q-47 15 -88 15q-59 0 -78 -39h-16z" />
    <glyph glyph-name="uni1EB6" unicode="&#x1eb6;" 
d="M1195 -182q0 -17 -5.5 -33t-16 -28.5t-24.5 -20.5t-30 -8q-60 0 -60 61q0 16 6.5 31t17.5 25.5t25.5 17t30.5 6.5q56 0 56 -51zM2739 1710q-117 -209 -349 -209q-47 0 -77 30q132 -138 132 -329q0 -368 -430 -536q-18 -216 -157 -412q-134 -188 -330 -293l61 -57
q179 109 286.5 172t147.5 82q105 49 220 49q107 0 186 -64q88 -67 88 -172q0 -130 -125 -225q-114 -87 -250 -88q-205 -1 -383 90q-34 17 -80 47.5t-106 73.5q-446 -262 -770 -262q-347 0 -576 205q-241 211 -241 553q0 334 194 536q195 201 531 201q52 0 118 -25v-24
q-69 26 -118 26q-319 0 -513 -197q-192 -197 -192 -517q0 -333 236 -539q223 -199 561 -199q312 0 749 258l-73 66q-56 -10 -97 -10q-112 0 -112 63q0 41 51 41q60 0 164 -45q20 0 84 58q66 60 76 81l90 215q75 181 75 281q-89 -19 -249 -19q-54 -87 -110 -169.5
t-116 -163.5q-244 -340 -524 -340q-135 0 -223 63q-99 70 -99 201q0 203 177 328q154 112 366 112h510q23 55 63 119t97 139q260 344 594 443q20 0 20 -33q0 -23 -69 -86q-203 -188 -228 -527q398 158 398 500q0 242 -224 391q-197 131 -450 131q-242 0 -455 -141
q-239 -158 -239 -389q0 -275 215 -373l-7 -26q-237 97 -237 399q0 242 248 410q221 149 475 149q266 0 471 -139q51 -35 93 -77q-2 3 -5 6t-5 7q-36 49 -36 107v25q0 23 4 28h56v-43q0 -22 45 -44q45 -21 71 -21l23 -4q66 0 132 30q67 31 95 82h52zM1106 612
q-192 0 -346 -104q-174 -117 -174 -301q0 -236 225 -236q206 0 430 252q42 46 110.5 143t166.5 246h-412zM2488 -31q0 97 -75 156q-68 53 -168 53q-112 0 -226 -53q-37 -17 -138.5 -77t-270.5 -163q237 -198 532 -198q128 0 232 75q114 82 114 207zM2163 1264
q-48 0 -193 -123q-110 -93 -176 -168q-159 -182 -211 -326q66 0 123 4.5t106 14.5q38 226 273 497q73 85 80 99q0 2 -2 2zM1425 -18q-63 30 -94 30q-18 0 -18 -12q0 -29 45 -29q25 0 67 11z" />
    <glyph glyph-name="uni1EB7" unicode="&#x1eb7;" horiz-adv-x="872" 
d="M961 446q-390 -475 -539 -475q-100 0 -156 119q-88 -119 -194 -119q-138 0 -138 201q0 180 138.5 311t318.5 131q72 0 105 -49q24 31 43 31q14 0 42.5 -6t43.5 -6q8 0 33.5 26.5t33.5 28.5l-268 -504q-35 -65 -35 -94q0 -41 45 -41q68 0 268 199q152 149 242 262z
M465 528q0 50 -43 50q-121 0 -252 -211q-117 -189 -117 -299q0 -68 41 -68q82 0 162 135q209 357 209 393zM784 899h52q-117 -209 -349 -209q-57 0 -93 49t-36 107v24q0 23 4 29h56v-43q0 -22 45 -43.5t72 -21.5l22 -5q66 0 132.5 31t94.5 82zM220 -127q0 -33 -21.5 -61.5
t-54.5 -28.5q-59 0 -59 61q0 33 23.5 56.5t55.5 23.5q56 0 56 -51z" />
    <glyph glyph-name="uni1EB8" unicode="&#x1eb8;" horiz-adv-x="1993" 
d="M1843 1112q0 -98 -90 -162q-83 -57 -184 -57q-81 0 -211 47q0 -109 39 -166q5 -3 12 -7q6 -4 14.5 -9.5t20.5 -12.5q33 -20 33 -38q0 -21 -25 -25q-44 0 -82 47q-41 23 -92 23q-143 0 -242 -119q-90 -111 -90 -258q0 -155 86 -273q94 -129 244 -129q192 0 328 130
q137 131 137 321q0 91 -43 149q-50 68 -137 68q-128 0 -231 -99q-103 -97 -103 -225q0 -65 40 -114t103 -49q116 0 172 116q43 89 43 222h25q0 -141 -35 -222q-64 -145 -205 -145q-76 0 -124 57q-48 58 -48 135q0 142 110 247q110 106 253 106q98 0 155 -76q53 -68 53 -170
q0 -209 -142 -348t-351 -139q-226 0 -369 110q-155 122 -155 342q0 205 123 325q124 120 329 120q36 0 56 -3q-20 31 -35 60t-23 57l-8 27q-8 28 -12 33q-212 36 -381 36q-267 0 -484 -90q-290 -120 -290 -350q0 -51 30 -112l-24 -17q-33 64 -33 127q0 245 297 373
q225 96 504 96q61 0 155.5 -7.5t225.5 -23.5q64 318 387 318q109 0 191 -70q83 -69 83 -176zM1819 1112q0 74 -56 124t-129 50q-106 0 -194 -81t-88 -185q0 -27 8 -41q97 -61 209 -61q102 0 170 45q80 53 80 149zM1247 -177q0 -17 -5.5 -33t-16 -28.5t-24.5 -20.5t-30 -8
q-60 0 -60 61q0 16 6.5 31t17.5 25.5t25.5 17t30.5 6.5q56 0 56 -51z" />
    <glyph glyph-name="uni1EB9" unicode="&#x1eb9;" horiz-adv-x="657" 
d="M676 446q-74 -122 -240 -276q-215 -199 -364 -199q-78 0 -128 52.5t-50 130.5q0 196 174 338q151 122 292 122q48 0 82.5 -32.5t34.5 -79.5q0 -129 -186 -215q-141 -66 -238 -66q-37 -80 -37 -143q0 -76 56 -76q135 0 344 184q166 146 243 275zM375 541q0 47 -43 47
q-99 0 -258 -318q82 0 191.5 95.5t109.5 175.5zM131 -127q0 -33 -21.5 -61.5t-54.5 -28.5q-59 0 -59 61q0 33 23.5 56.5t56.5 23.5q55 0 55 -51z" />
    <glyph glyph-name="uni1EBA" unicode="&#x1eba;" horiz-adv-x="1993" 
d="M1843 1112q0 -98 -90 -162q-83 -57 -184 -57q-81 0 -211 47q0 -109 39 -166q5 -3 12 -7q6 -4 14.5 -9.5t20.5 -12.5q33 -20 33 -38q0 -21 -25 -25q-44 0 -82 47q-41 23 -92 23q-143 0 -242 -119q-90 -111 -90 -258q0 -155 86 -273q94 -129 244 -129q192 0 328 130
q137 131 137 321q0 91 -43 149q-50 68 -137 68q-128 0 -231 -99q-103 -97 -103 -225q0 -65 40 -114t103 -49q116 0 172 116q43 89 43 222h25q0 -141 -35 -222q-64 -145 -205 -145q-76 0 -124 57q-48 58 -48 135q0 142 110 247q110 106 253 106q98 0 155 -76q53 -68 53 -170
q0 -209 -142 -348t-351 -139q-226 0 -369 110q-155 122 -155 342q0 205 123 325q124 120 329 120q36 0 56 -3q-20 31 -35 60t-23 57l-8 27q-8 28 -12 33q-212 36 -381 36q-267 0 -484 -90q-290 -120 -290 -350q0 -51 30 -112l-24 -17q-33 64 -33 127q0 245 297 373
q225 96 504 96q61 0 155.5 -7.5t225.5 -23.5q64 318 387 318q109 0 191 -70q83 -69 83 -176zM1819 1112q0 74 -56 124t-129 50q-106 0 -194 -81t-88 -185q0 -27 8 -41q97 -61 209 -61q102 0 170 45q80 53 80 149zM1915 1710q23 -20 24.5 -44.5t-9.5 -47.5t-31.5 -42
t-42.5 -29l-119 -54q-5 -3 -12 -11q-6 -8 -6 -14v-4q2 13 18 13q8 0 13.5 -4.5t5.5 -11.5t-5.5 -11t-13.5 -4h-3q-22 0 -22 22q0 17 16 30q30 23 60.5 42.5t59.5 45.5q9 9 19 21t15.5 26t3 28t-17.5 26q-16 13 -41 11.5t-48.5 -13t-41 -32t-18.5 -45.5q7 17 30 17
q14 0 23 -7.5t9 -18.5t-9 -18.5t-23 -7.5q-17 0 -27.5 9.5t-10.5 23.5q0 49 40 88q15 15 36 25t44 13t45 -2t39 -20z" />
    <glyph glyph-name="uni1EBB" unicode="&#x1ebb;" horiz-adv-x="657" 
d="M676 446q-74 -122 -240 -276q-214 -199 -364 -199q-79 0 -128 52q-50 53 -50 131q0 195 174 338q152 122 292 122q47 0 82 -33q35 -32 35 -79q0 -130 -186 -215q-141 -66 -238 -66q-37 -78 -37 -143q0 -76 56 -76q136 0 344 184q166 145 243 275zM375 541q0 47 -43 47
q-99 0 -258 -318q81 0 191 95q110 96 110 176zM577 971q23 -20 24.5 -44.5t-9.5 -47.5t-31.5 -42t-42.5 -29l-119 -54q-5 -3 -12 -11q-6 -8 -6 -14v-4q2 13 18 13q8 0 13.5 -4.5t5.5 -11.5t-5.5 -11t-13.5 -4h-3q-22 0 -22 22q0 17 16 30q30 23 60.5 42.5t59.5 45.5
q9 9 19 21t15.5 26t3 28t-17.5 26q-16 13 -41 11.5t-48.5 -13t-41 -32t-18.5 -45.5q7 17 30 17q14 0 23 -7.5t9 -18.5t-9 -18.5t-23 -7.5q-17 0 -27.5 9.5t-10.5 23.5q0 49 40 88q15 15 36 25t44 13t45 -2t39 -20z" />
    <glyph glyph-name="uni1EBC" unicode="&#x1ebc;" horiz-adv-x="1993" 
d="M1843 1112q0 -98 -90 -162q-82 -57 -184 -57q-82 0 -211 47q0 -109 39 -166l47 -29q33 -20 33 -38q0 -21 -25 -25q-45 0 -82 47q-41 23 -92 23q-143 0 -242 -119q-90 -111 -90 -258q0 -156 86 -273q94 -129 244 -129q192 0 328.5 130t136.5 321q0 90 -43 149
q-49 68 -137 68q-127 0 -230.5 -98.5t-103.5 -225.5q0 -65 40 -114t103 -49q117 0 172 116q43 90 43 222h25q0 -142 -35 -222q-64 -145 -205 -145q-76 0 -124 57.5t-48 134.5q0 142 110.5 247.5t252.5 105.5q98 0 155 -76q53 -68 53 -170q0 -209 -142 -348t-351 -139
q-227 0 -369 110q-155 121 -155 342q0 205 123.5 325t328.5 120q37 0 56 -3q-41 62 -58 117l-8 27q-8 29 -12 33q-211 36 -381 36q-266 0 -484 -90q-290 -120 -290 -350q0 -51 30 -112l-24 -17q-33 64 -33 127q0 246 297 373q225 96 504 96q121 0 381 -31q65 318 387 318
q108 0 191 -69.5t83 -176.5zM1819 1112q0 74 -55.5 124t-129.5 50q-106 0 -194 -81t-88 -185q0 -27 8 -41q98 -61 209 -61q102 0 170 45q80 53 80 149zM1463 1466q23 119 181 119q49 0 143 -28.5t143 -28.5q52 0 74 43l16 4q0 -82 -106 -115q-41 -12 -84 -12q-41 0 -88 14
l-94 29q-47 14 -88 14q-56 0 -78 -39h-19z" />
    <glyph glyph-name="uni1EBD" unicode="&#x1ebd;" horiz-adv-x="657" 
d="M202 776q23 119 180 119q49 0 143.5 -28.5t143.5 -28.5q51 0 74 43l16 4q0 -82 -106 -115q-41 -12 -84 -12q-41 0 -88 14l-95 29q-47 14 -88 14q-55 0 -77 -39h-19zM676 446q-74 -122 -240 -276q-215 -199 -364 -199q-78 0 -128 52.5t-50 130.5q0 196 174 338
q151 122 292 122q48 0 82.5 -32.5t34.5 -79.5q0 -129 -186 -215q-141 -66 -238 -66q-37 -80 -37 -143q0 -76 56 -76q135 0 344 184q166 146 243 275zM375 541q0 47 -43 47q-99 0 -258 -318q82 0 191.5 95.5t109.5 175.5z" />
    <glyph glyph-name="uni1EBE" unicode="&#x1ebe;" horiz-adv-x="1993" 
d="M1843 1112q0 -98 -90 -162q-82 -57 -184 -57q-82 0 -211 47q0 -109 39 -166l47 -29q33 -20 33 -38q0 -21 -25 -25q-45 0 -82 47q-41 23 -92 23q-143 0 -242 -119q-90 -111 -90 -258q0 -156 86 -273q94 -129 244 -129q192 0 328.5 130t136.5 321q0 90 -43 149
q-49 68 -137 68q-127 0 -230.5 -98.5t-103.5 -225.5q0 -65 40 -114t103 -49q117 0 172 116q43 90 43 222h25q0 -142 -35 -222q-64 -145 -205 -145q-76 0 -124 57.5t-48 134.5q0 142 110.5 247.5t252.5 105.5q98 0 155 -76q53 -68 53 -170q0 -209 -142 -348t-351 -139
q-227 0 -369 110q-155 121 -155 342q0 205 123.5 325t328.5 120q37 0 56 -3q-41 62 -58 117l-8 27q-8 29 -12 33q-211 36 -381 36q-266 0 -484 -90q-290 -120 -290 -350q0 -51 30 -112l-24 -17q-33 64 -33 127q0 246 297 373q225 96 504 96q121 0 381 -31q65 318 387 318
q108 0 191 -69.5t83 -176.5zM1819 1112q0 74 -55.5 124t-129.5 50q-106 0 -194 -81t-88 -185q0 -27 8 -41q98 -61 209 -61q102 0 170 45q80 53 80 149zM1772 1509l-291 -112h-78l436 256l21 -256h-39zM2080 1757q36 51 77 58q41 6 41 -62q0 -16 -53 -67l-168 -132h-43z" />
    <glyph glyph-name="uni1EBF" unicode="&#x1ebf;" horiz-adv-x="657" 
d="M676 446q-74 -122 -240 -276q-215 -199 -364 -199q-78 0 -128 52.5t-50 130.5q0 196 174 338q151 122 292 122q48 0 82.5 -32.5t34.5 -79.5q0 -129 -186 -215q-141 -66 -238 -66q-37 -80 -37 -143q0 -76 56 -76q135 0 344 184q166 146 243 275zM375 541q0 47 -43 47
q-99 0 -258 -318q82 0 191.5 95.5t109.5 175.5zM557 797l-291 -113h-77l436 256l20 -256h-39zM821 1008q37 51 78 57t41 -61q0 -17 -53 -68l-168 -131h-43z" />
    <glyph glyph-name="uni1EC0" unicode="&#x1ec0;" horiz-adv-x="1993" 
d="M1843 1112q0 -98 -90 -162q-82 -57 -184 -57q-82 0 -211 47q0 -109 39 -166l47 -29q33 -20 33 -38q0 -21 -25 -25q-45 0 -82 47q-41 23 -92 23q-143 0 -242 -119q-90 -111 -90 -258q0 -156 86 -273q94 -129 244 -129q192 0 328.5 130t136.5 321q0 90 -43 149
q-49 68 -137 68q-127 0 -230.5 -98.5t-103.5 -225.5q0 -65 40 -114t103 -49q117 0 172 116q43 90 43 222h25q0 -142 -35 -222q-64 -145 -205 -145q-76 0 -124 57.5t-48 134.5q0 142 110.5 247.5t252.5 105.5q98 0 155 -76q53 -68 53 -170q0 -209 -142 -348t-351 -139
q-227 0 -369 110q-155 121 -155 342q0 205 123.5 325t328.5 120q37 0 56 -3q-41 62 -58 117l-8 27q-8 29 -12 33q-211 36 -381 36q-266 0 -484 -90q-290 -120 -290 -350q0 -51 30 -112l-24 -17q-33 64 -33 127q0 246 297 373q225 96 504 96q121 0 381 -31q65 318 387 318
q108 0 191 -69.5t83 -176.5zM1819 1112q0 74 -55.5 124t-129.5 50q-106 0 -194 -81t-88 -185q0 -27 8 -41q98 -61 209 -61q102 0 170 45q80 53 80 149zM1772 1509l-291 -112h-78l436 256l21 -256h-39zM2015 1591h-43l-168 131q-53 52 -53 68q0 68 41 62q41 -7 78 -58z" />
    <glyph glyph-name="uni1EC1" unicode="&#x1ec1;" horiz-adv-x="657" 
d="M676 446q-74 -122 -240 -276q-215 -199 -364 -199q-78 0 -128 52.5t-50 130.5q0 196 174 338q151 122 292 122q48 0 82.5 -32.5t34.5 -79.5q0 -129 -186 -215q-141 -66 -238 -66q-37 -80 -37 -143q0 -76 56 -76q135 0 344 184q166 146 243 275zM375 541q0 47 -43 47
q-99 0 -258 -318q82 0 191.5 95.5t109.5 175.5zM552 796l-290 -112h-78l436 256l20 -256h-39zM796 878h-43l-168 131q-53 52 -53 68q0 68 41 62q41 -7 78 -58z" />
    <glyph glyph-name="uni1EC2" unicode="&#x1ec2;" horiz-adv-x="1993" 
d="M1843 1112q0 -98 -90 -162q-83 -57 -184 -57q-81 0 -211 47q0 -109 39 -166q5 -3 12 -7q6 -4 14.5 -9.5t20.5 -12.5q33 -20 33 -38q0 -21 -25 -25q-44 0 -82 47q-41 23 -92 23q-143 0 -242 -119q-90 -111 -90 -258q0 -155 86 -273q94 -129 244 -129q192 0 328 130
q137 131 137 321q0 91 -43 149q-50 68 -137 68q-128 0 -231 -99q-103 -97 -103 -225q0 -65 40 -114t103 -49q116 0 172 116q43 89 43 222h25q0 -141 -35 -222q-64 -145 -205 -145q-76 0 -124 57q-48 58 -48 135q0 142 110 247q110 106 253 106q98 0 155 -76q53 -68 53 -170
q0 -209 -142 -348t-351 -139q-226 0 -369 110q-155 122 -155 342q0 205 123 325q124 120 329 120q36 0 56 -3q-20 31 -35 60t-23 57l-8 27q-8 28 -12 33q-212 36 -381 36q-267 0 -484 -90q-290 -120 -290 -350q0 -51 30 -112l-24 -17q-33 64 -33 127q0 245 297 373
q225 96 504 96q61 0 155.5 -7.5t225.5 -23.5q64 318 387 318q109 0 191 -70q83 -69 83 -176zM1819 1112q0 74 -56 124t-129 50q-106 0 -194 -81t-88 -185q0 -27 8 -41q97 -61 209 -61q102 0 170 45q80 53 80 149zM1481 1397h-78l436 256l21 -256h-39l-49 112zM2142 1860
q23 -20 24.5 -44.5t-9.5 -47.5t-31.5 -42t-42.5 -29l-119 -54q-5 -3 -12 -11q-6 -8 -6 -14v-4q2 13 18 13q8 0 13.5 -4.5t5.5 -11.5t-5.5 -11t-13.5 -4h-3q-22 0 -22 22q0 17 16 30q30 23 60.5 42.5t59.5 45.5q9 9 19 21t15.5 26t3 28t-17.5 26q-16 13 -41 11.5t-48.5 -13
t-41 -32t-18.5 -45.5q7 17 30 17q14 0 23 -7.5t9 -18.5t-9 -18.5t-23 -7.5q-17 0 -27.5 9.5t-10.5 23.5q0 49 40 88q15 15 36 25t44 13t45 -2t39 -20z" />
    <glyph glyph-name="uni1EC3" unicode="&#x1ec3;" horiz-adv-x="657" 
d="M676 446q-74 -122 -240 -276q-214 -199 -364 -199q-79 0 -128 52q-50 53 -50 131q0 195 174 338q152 122 292 122q47 0 82 -33q35 -32 35 -79q0 -130 -186 -215q-141 -66 -238 -66q-37 -78 -37 -143q0 -76 56 -76q136 0 344 184q166 145 243 275zM375 541q0 47 -43 47
q-99 0 -258 -318q81 0 191 95q110 96 110 176zM267 684h-77l436 256l20 -256h-39l-49 113zM926 1109q23 -20 24.5 -44.5t-9.5 -47.5t-31.5 -42t-42.5 -29l-119 -54q-5 -3 -12 -11q-6 -8 -6 -14v-4q2 13 18 13q8 0 13.5 -4.5t5.5 -11.5t-5.5 -11t-13.5 -4h-3q-22 0 -22 22
q0 17 16 30q30 23 60.5 42.5t59.5 45.5q9 9 19 21t15.5 26t3 28t-17.5 26q-16 13 -41 11.5t-48.5 -13t-41 -32t-18.5 -45.5q7 17 30 17q14 0 23 -7.5t9 -18.5t-9 -18.5t-23 -7.5q-17 0 -27.5 9.5t-10.5 23.5q0 49 40 88q15 15 36 25t44 13t45 -2t39 -20z" />
    <glyph glyph-name="uni1EC4" unicode="&#x1ec4;" horiz-adv-x="1993" 
d="M1843 1112q0 -98 -90 -162q-82 -57 -184 -57q-82 0 -211 47q0 -109 39 -166l47 -29q33 -20 33 -38q0 -21 -25 -25q-45 0 -82 47q-41 23 -92 23q-143 0 -242 -119q-90 -111 -90 -258q0 -156 86 -273q94 -129 244 -129q192 0 328.5 130t136.5 321q0 90 -43 149
q-49 68 -137 68q-127 0 -230.5 -98.5t-103.5 -225.5q0 -65 40 -114t103 -49q117 0 172 116q43 90 43 222h25q0 -142 -35 -222q-64 -145 -205 -145q-76 0 -124 57.5t-48 134.5q0 142 110.5 247.5t252.5 105.5q98 0 155 -76q53 -68 53 -170q0 -209 -142 -348t-351 -139
q-227 0 -369 110q-155 121 -155 342q0 205 123.5 325t328.5 120q37 0 56 -3q-41 62 -58 117l-8 27q-8 29 -12 33q-211 36 -381 36q-266 0 -484 -90q-290 -120 -290 -350q0 -51 30 -112l-24 -17q-33 64 -33 127q0 246 297 373q225 96 504 96q121 0 381 -31q65 318 387 318
q108 0 191 -69.5t83 -176.5zM1819 1112q0 74 -55.5 124t-129.5 50q-106 0 -194 -81t-88 -185q0 -27 8 -41q98 -61 209 -61q102 0 170 45q80 53 80 149zM1772 1509l-291 -112h-78l436 256l21 -256h-39zM1680 1679q19 90 158 90q43 0 126 -21.5t126 -21.5q45 0 65 33l15 2
q0 -59 -95 -84q-38 -10 -73 -10q-37 0 -78 10l-82 21q-49 12 -78 12q-53 0 -67 -31h-17z" />
    <glyph glyph-name="uni1EC5" unicode="&#x1ec5;" horiz-adv-x="657" 
d="M676 446q-74 -122 -240 -276q-215 -199 -364 -199q-78 0 -128 52.5t-50 130.5q0 196 174 338q151 122 292 122q48 0 82.5 -32.5t34.5 -79.5q0 -129 -186 -215q-141 -66 -238 -66q-37 -80 -37 -143q0 -76 56 -76q135 0 344 184q166 146 243 275zM375 541q0 47 -43 47
q-99 0 -258 -318q82 0 191.5 95.5t109.5 175.5zM420 997q18 90 158 90q43 0 126 -21.5t126 -21.5q45 0 65 33l14 2q0 -59 -94 -84q-39 -10 -73 -10q-37 0 -78 10l-82 21q-49 12 -78 12q-53 0 -68 -31h-16zM557 797l-291 -113h-77l436 256l20 -256h-39z" />
    <glyph glyph-name="uni1EC6" unicode="&#x1ec6;" horiz-adv-x="1993" 
d="M1843 1112q0 -98 -90 -162q-83 -57 -184 -57q-81 0 -211 47q0 -109 39 -166q5 -3 12 -7q6 -4 14.5 -9.5t20.5 -12.5q33 -20 33 -38q0 -21 -25 -25q-44 0 -82 47q-41 23 -92 23q-143 0 -242 -119q-90 -111 -90 -258q0 -155 86 -273q94 -129 244 -129q192 0 328 130
q137 131 137 321q0 91 -43 149q-50 68 -137 68q-128 0 -231 -99q-103 -97 -103 -225q0 -65 40 -114t103 -49q116 0 172 116q43 89 43 222h25q0 -141 -35 -222q-64 -145 -205 -145q-76 0 -124 57q-48 58 -48 135q0 142 110 247q110 106 253 106q98 0 155 -76q53 -68 53 -170
q0 -209 -142 -348t-351 -139q-226 0 -369 110q-155 122 -155 342q0 205 123 325q124 120 329 120q36 0 56 -3q-20 31 -35 60t-23 57l-8 27q-8 28 -12 33q-212 36 -381 36q-267 0 -484 -90q-290 -120 -290 -350q0 -51 30 -112l-24 -17q-33 64 -33 127q0 245 297 373
q225 96 504 96q61 0 155.5 -7.5t225.5 -23.5q64 318 387 318q109 0 191 -70q83 -69 83 -176zM1819 1112q0 74 -56 124t-129 50q-106 0 -194 -81t-88 -185q0 -27 8 -41q97 -61 209 -61q102 0 170 45q80 53 80 149zM1481 1397h-78l436 256l21 -256h-39l-49 112zM1247 -177
q0 -17 -5.5 -33t-16 -28.5t-24.5 -20.5t-30 -8q-60 0 -60 61q0 16 6.5 31t17.5 25.5t25.5 17t30.5 6.5q56 0 56 -51z" />
    <glyph glyph-name="uni1EC7" unicode="&#x1ec7;" horiz-adv-x="657" 
d="M676 446q-74 -122 -240 -276q-215 -199 -364 -199q-78 0 -128 52.5t-50 130.5q0 196 174 338q151 122 292 122q48 0 82.5 -32.5t34.5 -79.5q0 -129 -186 -215q-141 -66 -238 -66q-37 -80 -37 -143q0 -76 56 -76q135 0 344 184q166 146 243 275zM375 541q0 47 -43 47
q-99 0 -258 -318q82 0 191.5 95.5t109.5 175.5zM557 797l-291 -113h-77l436 256l20 -256h-39zM131 -127q0 -33 -21.5 -61.5t-54.5 -28.5q-59 0 -59 61q0 33 23.5 56.5t56.5 23.5q55 0 55 -51z" />
    <glyph glyph-name="uni1EC8" unicode="&#x1ec8;" horiz-adv-x="1616" 
d="M2114 1247q-146 -5 -246 -37q-302 -96 -459 -532q-45 -125 -45 -170q32 0 115 49q75 45 104 74q62 63 117 235l18 -8q0 -19 -32 -98q-43 -99 -89 -150q-97 -105 -241 -133q-91 -274 -270 -403q-177 -129 -465 -129q-224 0 -390 127q-206 159 -206 458q-19 95 -19 220
q0 263 176 451t439 188q115 0 206 -46l-4 -18q-102 45 -205 45q-251 0 -422 -183t-171 -437q0 -23 4 -59.5t12 -88.5q37 133 109 227q172 228 485 228q177 0 326 -111q38 119 143 215q211 195 596 195q59 0 119 -6t123 -19q31 -6 53.5 -11t38.5 -9q68 -20 75 -43
q1 -2 2 -7.5t3 -13.5zM2077 1260q-21 34 -179 61q-110 18 -198 18q-245 0 -432 -92q-224 -108 -287 -319q29 -38 45 -70q48 -94 59 -303q16 -11 41 -25t60 -30q84 225 114 282q194 377 496 447q45 10 115 18t166 13zM1063 590q-6 112 -19 162q-18 77 -69 149q5 -54 18 -164
q14 -57 70 -147zM1063 545q-69 88 -92 186q-8 35 -13 83t-6 110q-134 114 -317 114q-469 0 -586 -493q150 -416 492 -416q258 0 403 184q53 68 119 232zM1178 475q-25 7 -97 53q-140 -416 -540 -417q-230 -2 -367 165q-23 29 -55 83t-72 133q20 -245 173 -385
q155 -140 401 -140q151 0 333 185q159 159 224 323zM2092 1691q23 -20 24.5 -44.5t-9.5 -47.5t-31.5 -42t-42.5 -29l-119 -54q-5 -3 -12 -11q-6 -8 -6 -14v-4q2 13 18 13q8 0 13.5 -4.5t5.5 -11.5t-5.5 -11t-13.5 -4h-3q-22 0 -22 22q0 17 16 30q30 23 60.5 42.5t59.5 45.5
q9 9 19 21t15.5 26t3 28t-17.5 26q-16 13 -41 11.5t-48.5 -13t-41 -32t-18.5 -45.5q7 17 30 17q14 0 23 -7.5t9 -18.5t-9 -18.5t-23 -7.5q-17 0 -27.5 9.5t-10.5 23.5q0 49 40 88q15 15 36 25t44 13t45 -2t39 -20z" />
    <glyph glyph-name="uni1EC9" unicode="&#x1ec9;" horiz-adv-x="483" 
d="M528 446q-400 -475 -538 -475q-127 0 -127 121q0 97 76 234q28 49 59.5 105.5t67.5 121.5q24 43 55 43q12 0 36 -9q25 -9 33 -9q6 0 38 29q32 30 40 32l-260 -496q-18 -35 -18 -77q0 -54 47 -54t248 203q80 81 136.5 142t90.5 104zM373 942q23 -20 24.5 -44.5t-9.5 -47.5
t-31.5 -42t-42.5 -29l-119 -54q-5 -3 -12 -11q-6 -8 -6 -14v-4q2 13 18 13q8 0 13.5 -4.5t5.5 -11.5t-5.5 -11t-13.5 -4h-3q-22 0 -22 22q0 17 16 30q30 23 60.5 42.5t59.5 45.5q9 9 19 21t15.5 26t3 28t-17.5 26q-16 13 -41 11.5t-48.5 -13t-41 -32t-18.5 -45.5q7 17 30 17
q14 0 23 -7.5t9 -18.5t-9 -18.5t-23 -7.5q-17 0 -27.5 9.5t-10.5 23.5q0 49 40 88q15 15 36 25t44 13t45 -2t39 -20z" />
    <glyph glyph-name="uni1ECA" unicode="&#x1eca;" horiz-adv-x="1616" 
d="M2114 1247q-146 -5 -246 -37q-302 -96 -459 -532q-45 -125 -45 -170q32 0 115 49q75 45 104 74q62 63 117 235l18 -8q0 -19 -32 -98q-43 -99 -89 -150q-97 -105 -241 -133q-91 -274 -270 -403q-177 -129 -465 -129q-224 0 -390 127q-206 159 -206 458q-19 95 -19 220
q0 263 176 451t439 188q115 0 206 -46l-4 -18q-102 45 -205 45q-251 0 -422 -183t-171 -437q0 -23 4 -59.5t12 -88.5q37 133 109 227q172 228 485 228q177 0 326 -111q38 119 143 215q211 195 596 195q59 0 119 -6t123 -19q31 -6 53.5 -11t38.5 -9q68 -20 75 -43
q1 -2 2 -7.5t3 -13.5zM2077 1260q-21 34 -179 61q-110 18 -198 18q-245 0 -432 -92q-224 -108 -287 -319q29 -38 45 -70q48 -94 59 -303q16 -11 41 -25t60 -30q84 225 114 282q194 377 496 447q45 10 115 18t166 13zM1063 590q-6 112 -19 162q-18 77 -69 149q5 -54 18 -164
q14 -57 70 -147zM1063 545q-69 88 -92 186q-8 35 -13 83t-6 110q-134 114 -317 114q-469 0 -586 -493q150 -416 492 -416q258 0 403 184q53 68 119 232zM1178 475q-25 7 -97 53q-140 -416 -540 -417q-230 -2 -367 165q-23 29 -55 83t-72 133q20 -245 173 -385
q155 -140 401 -140q151 0 333 185q159 159 224 323zM920 -177q0 -17 -5.5 -33t-16 -28.5t-24.5 -20.5t-30 -8q-60 0 -60 61q0 16 6.5 31t17.5 25.5t25.5 17t30.5 6.5q56 0 56 -51z" />
    <glyph glyph-name="uni1ECB" unicode="&#x1ecb;" horiz-adv-x="483" 
d="M326 793q0 -33 -21.5 -62t-54.5 -29q-60 0 -60 62q0 33 24 56.5t56 23.5q56 0 56 -51zM528 446q-401 -475 -538 -475q-127 0 -127 121q0 96 76 234q55 98 127 227q24 43 55 43q12 0 36.5 -9t32.5 -9q7 0 38.5 29.5t39.5 31.5l-260 -496q-18 -34 -18 -77q0 -54 47 -54
t248 203q159 160 227 246zM-70 -150q0 -32 -21.5 -61t-53.5 -29q-60 0 -60 62q0 33 23.5 56.5t56.5 23.5q55 0 55 -52z" />
    <glyph glyph-name="uni1ECC" unicode="&#x1ecc;" horiz-adv-x="1229" 
d="M1151 975q0 -97 -55 -262q-25 -76 -51 -138.5t-55 -111.5q-115 -201 -283 -340q-203 -170 -399 -170q-150 0 -240 113q-84 103 -84 258q0 198 135 432q58 100 129 188.5t158 167.5q187 172 352 195h86q-132 -67 -207 -127q-42 -34 -82 -79.5t-82 -103.5
q-337 -470 -337 -829q0 -84 43 -139q46 -64 129 -64q140 0 301 176q57 62 108.5 136.5t100.5 162.5q221 403 221 645q0 166 -115 166q-160 0 -307 -207q-137 -193 -137 -360q0 -154 129 -154q131 0 233 152q88 128 88 231q0 38 -18 76q-23 45 -58 45q-54 0 -118 -73l-15 14
q80 80 133 80q45 0 72 -46q27 -47 27 -96q0 -146 -99 -270q-104 -135 -245 -135q-72 0 -112 51q-40 50 -40 125q0 175 143 375q154 211 324 211q102 0 168 -101q59 -89 59 -194zM341 -177q0 -17 -5.5 -33t-16 -28.5t-24.5 -20.5t-30 -8q-60 0 -60 61q0 16 6.5 31t17.5 25.5
t25.5 17t30.5 6.5q56 0 56 -51z" />
    <glyph glyph-name="uni1ECD" unicode="&#x1ecd;" horiz-adv-x="756" 
d="M803 446q-70 -86 -252 -188q-31 -12 -92 -31q-66 -108 -172 -178q-117 -78 -234 -78q-69 0 -114 62q-41 55 -41 127q0 184 139 319t323 135q76 0 121 -57t45 -135q0 -51 -18 -94q-8 -19 -31 -70q17 2 62 23q110 51 247 180zM403 539q0 51 -49 51q-94 0 -221 -215
q-119 -203 -119 -309q0 -68 39 -68q107 0 254 246q6 8 31 47q45 96 57 145q8 33 8 103zM88 -127q0 -33 -21.5 -61.5t-54.5 -28.5q-59 0 -59 61q0 33 23.5 56.5t56.5 23.5q55 0 55 -51z" />
    <glyph glyph-name="uni1ECE" unicode="&#x1ece;" horiz-adv-x="1229" 
d="M1167 975q0 -97 -55 -262q-25 -76 -51 -138.5t-55 -111.5q-115 -201 -283 -340q-203 -170 -399 -170q-150 0 -240 113q-84 103 -84 258q0 198 135 432q58 100 129 188.5t158 167.5q187 172 352 195h86q-132 -67 -207 -127q-42 -34 -82 -79.5t-82 -103.5
q-337 -470 -337 -829q0 -84 43 -139q46 -64 129 -64q140 0 301 176q57 62 108.5 136.5t100.5 162.5q221 403 221 645q0 166 -115 166q-160 0 -307 -207q-137 -193 -137 -360q0 -154 129 -154q131 0 233 152q88 128 88 231q0 38 -18 76q-23 45 -58 45q-54 0 -118 -73l-15 14
q80 80 133 80q45 0 72 -46q27 -47 27 -96q0 -146 -99 -270q-104 -135 -245 -135q-72 0 -112 51q-40 50 -40 125q0 175 143 375q154 211 324 211q102 0 168 -101q59 -89 59 -194zM1174 1664q23 -20 24.5 -44.5t-9.5 -47.5t-31.5 -42t-42.5 -29l-119 -54q-5 -3 -12 -11
q-6 -8 -6 -14v-4q2 13 18 13q8 0 13.5 -4.5t5.5 -11.5t-5.5 -11t-13.5 -4h-3q-22 0 -22 22q0 17 16 30q30 23 60.5 42.5t59.5 45.5q9 9 19 21t15.5 26t3 28t-17.5 26q-16 13 -41 11.5t-48.5 -13t-41 -32t-18.5 -45.5q7 17 30 17q14 0 23 -7.5t9 -18.5t-9 -18.5t-23 -7.5
q-17 0 -27.5 9.5t-10.5 23.5q0 49 40 88q15 15 36 25t44 13t45 -2t39 -20z" />
    <glyph glyph-name="uni1ECF" unicode="&#x1ecf;" horiz-adv-x="756" 
d="M803 446q-71 -86 -252 -188q-29 -11 -92 -31q-66 -108 -172 -178q-117 -78 -234 -78q-69 0 -114 62q-41 56 -41 127q0 184 139 319t323 135q76 0 121 -57t45 -135q0 -51 -18 -94q-4 -10 -12 -27t-19 -43q16 1 62 23q111 52 247 180zM403 539q0 51 -49 51q-93 0 -221 -215
q-119 -203 -119 -309q0 -68 39 -68q107 0 254 246q3 4 10.5 15.5t20.5 31.5q45 97 57 145q8 35 8 103zM581 971q23 -20 24.5 -44.5t-9.5 -47.5t-31.5 -42t-42.5 -29l-119 -54q-5 -3 -12 -11q-6 -8 -6 -14v-4q2 13 18 13q8 0 13.5 -4.5t5.5 -11.5t-5.5 -11t-13.5 -4h-3
q-22 0 -22 22q0 17 16 30q30 23 60.5 42.5t59.5 45.5q9 9 19 21t15.5 26t3 28t-17.5 26q-16 13 -41 11.5t-48.5 -13t-41 -32t-18.5 -45.5q7 17 30 17q14 0 23 -7.5t9 -18.5t-9 -18.5t-23 -7.5q-17 0 -27.5 9.5t-10.5 23.5q0 49 40 88q15 15 36 25t44 13t45 -2t39 -20z" />
    <glyph glyph-name="uni1ED0" unicode="&#x1ed0;" horiz-adv-x="1229" 
d="M1167 975q0 -96 -55 -262q-49 -152 -106 -250q-115 -201 -283 -340q-203 -170 -399 -170q-150 0 -240 113q-84 104 -84 258q0 198 135 432q115 198 287 356q188 172 352 195h86q-131 -66 -207 -127q-82 -68 -164 -183q-337 -471 -337 -829q0 -84 43 -139q47 -64 129 -64
q141 0 301 176q112 123 209 299q221 402 221 645q0 166 -115 166q-160 0 -307 -207q-137 -192 -137 -360q0 -154 129 -154q131 0 233 152q88 129 88 231q0 39 -18 76q-23 45 -58 45q-53 0 -118 -73l-15 14q80 80 133 80q45 0 72 -46t27 -96q0 -145 -99 -270
q-104 -135 -245 -135q-72 0 -112 51t-40 125q0 176 143 375q154 211 324 211q102 0 168 -101q59 -88 59 -194zM1094 1509l-291 -112h-78l436 256l21 -256h-39zM1402 1757q36 51 77 58q41 6 41 -62q0 -16 -53 -67l-168 -132h-43z" />
    <glyph glyph-name="uni1ED1" unicode="&#x1ed1;" horiz-adv-x="756" 
d="M803 446q-70 -86 -252 -188q-31 -12 -92 -31q-66 -108 -172 -178q-117 -78 -234 -78q-69 0 -114 62q-41 55 -41 127q0 184 139 319t323 135q76 0 121 -57t45 -135q0 -51 -18 -94q-8 -19 -31 -70q17 2 62 23q110 51 247 180zM403 539q0 51 -49 51q-94 0 -221 -215
q-119 -203 -119 -309q0 -68 39 -68q107 0 254 246q6 8 31 47q45 96 57 145q8 33 8 103zM514 797l-291 -113h-77l436 256l20 -256h-39zM778 1008q37 51 78 57t41 -61q0 -17 -53 -68l-168 -131h-43z" />
    <glyph glyph-name="uni1ED2" unicode="&#x1ed2;" horiz-adv-x="1229" 
d="M1167 975q0 -96 -55 -262q-49 -152 -106 -250q-115 -201 -283 -340q-203 -170 -399 -170q-150 0 -240 113q-84 104 -84 258q0 198 135 432q115 198 287 356q188 172 352 195h86q-131 -66 -207 -127q-82 -68 -164 -183q-337 -471 -337 -829q0 -84 43 -139q47 -64 129 -64
q141 0 301 176q112 123 209 299q221 402 221 645q0 166 -115 166q-160 0 -307 -207q-137 -192 -137 -360q0 -154 129 -154q131 0 233 152q88 129 88 231q0 39 -18 76q-23 45 -58 45q-53 0 -118 -73l-15 14q80 80 133 80q45 0 72 -46t27 -96q0 -145 -99 -270
q-104 -135 -245 -135q-72 0 -112 51t-40 125q0 176 143 375q154 211 324 211q102 0 168 -101q59 -88 59 -194zM1094 1509l-291 -112h-78l436 256l21 -256h-39zM1337 1591h-43l-168 131q-53 52 -53 68q0 68 41 62q41 -7 78 -58z" />
    <glyph glyph-name="uni1ED3" unicode="&#x1ed3;" horiz-adv-x="756" 
d="M814 446q-70 -86 -252 -188q-31 -12 -92 -31q-66 -108 -172 -178q-117 -78 -234 -78q-69 0 -114 62q-41 55 -41 127q0 184 139 319t323 135q76 0 121 -57t45 -135q0 -51 -18 -94q-8 -19 -31 -70q17 2 62 23q110 51 247 180zM414 539q0 51 -49 51q-94 0 -221 -215
q-119 -203 -119 -309q0 -68 39 -68q107 0 254 246q6 8 31 47q45 96 57 145q8 33 8 103zM514 796l-290 -112h-78l436 256l20 -256h-39zM758 878h-43l-168 131q-53 52 -53 68q0 68 41 62q41 -7 78 -58z" />
    <glyph glyph-name="uni1ED4" unicode="&#x1ed4;" horiz-adv-x="1229" 
d="M1167 975q0 -97 -55 -262q-25 -76 -51 -138.5t-55 -111.5q-115 -201 -283 -340q-203 -170 -399 -170q-150 0 -240 113q-84 103 -84 258q0 198 135 432q58 100 129 188.5t158 167.5q187 172 352 195h86q-132 -67 -207 -127q-42 -34 -82 -79.5t-82 -103.5
q-337 -470 -337 -829q0 -84 43 -139q46 -64 129 -64q140 0 301 176q57 62 108.5 136.5t100.5 162.5q221 403 221 645q0 166 -115 166q-160 0 -307 -207q-137 -193 -137 -360q0 -154 129 -154q131 0 233 152q88 128 88 231q0 38 -18 76q-23 45 -58 45q-54 0 -118 -73l-15 14
q80 80 133 80q45 0 72 -46q27 -47 27 -96q0 -146 -99 -270q-104 -135 -245 -135q-72 0 -112 51q-40 50 -40 125q0 175 143 375q154 211 324 211q102 0 168 -101q59 -89 59 -194zM803 1397h-78l436 256l21 -256h-39l-49 112zM1500 1837q23 -20 24.5 -44.5t-9.5 -47.5
t-31.5 -42t-42.5 -29l-119 -54q-5 -3 -12 -11q-6 -8 -6 -14v-4q2 13 18 13q8 0 13.5 -4.5t5.5 -11.5t-5.5 -11t-13.5 -4h-3q-22 0 -22 22q0 17 16 30q30 23 60.5 42.5t59.5 45.5q9 9 19 21t15.5 26t3 28t-17.5 26q-16 13 -41 11.5t-48.5 -13t-41 -32t-18.5 -45.5q7 17 30 17
q14 0 23 -7.5t9 -18.5t-9 -18.5t-23 -7.5q-17 0 -27.5 9.5t-10.5 23.5q0 49 40 88q15 15 36 25t44 13t45 -2t39 -20z" />
    <glyph glyph-name="uni1ED5" unicode="&#x1ed5;" horiz-adv-x="756" 
d="M803 446q-71 -86 -252 -188q-29 -11 -92 -31q-66 -108 -172 -178q-117 -78 -234 -78q-69 0 -114 62q-41 56 -41 127q0 184 139 319t323 135q76 0 121 -57t45 -135q0 -51 -18 -94q-4 -10 -12 -27t-19 -43q16 1 62 23q111 52 247 180zM403 539q0 51 -49 51q-93 0 -221 -215
q-119 -203 -119 -309q0 -68 39 -68q107 0 254 246q3 4 10.5 15.5t20.5 31.5q45 97 57 145q8 35 8 103zM225 684h-77l436 256l20 -256h-39l-49 113zM857 1137q23 -20 24.5 -44.5t-9.5 -47.5t-31.5 -42t-42.5 -29l-119 -54q-5 -3 -12 -11q-6 -8 -6 -14v-4q2 13 18 13
q8 0 13.5 -4.5t5.5 -11.5t-5.5 -11t-13.5 -4h-3q-22 0 -22 22q0 17 16 30q30 23 60.5 42.5t59.5 45.5q9 9 19 21t15.5 26t3 28t-17.5 26q-16 13 -41 11.5t-48.5 -13t-41 -32t-18.5 -45.5q7 17 30 17q14 0 23 -7.5t9 -18.5t-9 -18.5t-23 -7.5q-17 0 -27.5 9.5t-10.5 23.5
q0 49 40 88q15 15 36 25t44 13t45 -2t39 -20z" />
    <glyph glyph-name="uni1ED6" unicode="&#x1ed6;" horiz-adv-x="1229" 
d="M1167 975q0 -96 -55 -262q-49 -152 -106 -250q-115 -201 -283 -340q-203 -170 -399 -170q-150 0 -240 113q-84 104 -84 258q0 198 135 432q115 198 287 356q188 172 352 195h86q-131 -66 -207 -127q-82 -68 -164 -183q-337 -471 -337 -829q0 -84 43 -139q47 -64 129 -64
q141 0 301 176q112 123 209 299q221 402 221 645q0 166 -115 166q-160 0 -307 -207q-137 -192 -137 -360q0 -154 129 -154q131 0 233 152q88 129 88 231q0 39 -18 76q-23 45 -58 45q-53 0 -118 -73l-15 14q80 80 133 80q45 0 72 -46t27 -96q0 -145 -99 -270
q-104 -135 -245 -135q-72 0 -112 51t-40 125q0 176 143 375q154 211 324 211q102 0 168 -101q59 -88 59 -194zM1094 1509l-291 -112h-78l436 256l21 -256h-39zM1001 1679q19 90 158 90q43 0 126 -21.5t126 -21.5q45 0 65 33l15 2q0 -59 -95 -84q-38 -10 -73 -10
q-37 0 -78 10l-82 21q-49 12 -78 12q-53 0 -67 -31h-17z" />
    <glyph glyph-name="uni1ED7" unicode="&#x1ed7;" horiz-adv-x="756" 
d="M803 446q-70 -86 -252 -188q-31 -12 -92 -31q-66 -108 -172 -178q-117 -78 -234 -78q-69 0 -114 62q-41 55 -41 127q0 184 139 319t323 135q76 0 121 -57t45 -135q0 -51 -18 -94q-8 -19 -31 -70q17 2 62 23q110 51 247 180zM403 539q0 51 -49 51q-94 0 -221 -215
q-119 -203 -119 -309q0 -68 39 -68q107 0 254 246q6 8 31 47q45 96 57 145q8 33 8 103zM377 997q18 90 158 90q43 0 126 -21.5t126 -21.5q45 0 65 33l14 2q0 -59 -94 -84q-39 -10 -73 -10q-37 0 -78 10l-82 21q-49 12 -78 12q-53 0 -68 -31h-16zM514 797l-291 -113h-77
l436 256l20 -256h-39z" />
    <glyph glyph-name="uni1ED8" unicode="&#x1ed8;" horiz-adv-x="1229" 
d="M1167 975q0 -97 -55 -262q-25 -76 -51 -138.5t-55 -111.5q-115 -201 -283 -340q-203 -170 -399 -170q-150 0 -240 113q-84 103 -84 258q0 198 135 432q58 100 129 188.5t158 167.5q187 172 352 195h86q-132 -67 -207 -127q-42 -34 -82 -79.5t-82 -103.5
q-337 -470 -337 -829q0 -84 43 -139q46 -64 129 -64q140 0 301 176q57 62 108.5 136.5t100.5 162.5q221 403 221 645q0 166 -115 166q-160 0 -307 -207q-137 -193 -137 -360q0 -154 129 -154q131 0 233 152q88 128 88 231q0 38 -18 76q-23 45 -58 45q-54 0 -118 -73l-15 14
q80 80 133 80q45 0 72 -46q27 -47 27 -96q0 -146 -99 -270q-104 -135 -245 -135q-72 0 -112 51q-40 50 -40 125q0 175 143 375q154 211 324 211q102 0 168 -101q59 -89 59 -194zM803 1397h-78l436 256l21 -256h-39l-49 112zM341 -177q0 -17 -5.5 -33t-16 -28.5t-24.5 -20.5
t-30 -8q-60 0 -60 61q0 16 6.5 31t17.5 25.5t25.5 17t30.5 6.5q56 0 56 -51z" />
    <glyph glyph-name="uni1ED9" unicode="&#x1ed9;" horiz-adv-x="756" 
d="M803 446q-70 -86 -252 -188q-31 -12 -92 -31q-66 -108 -172 -178q-117 -78 -234 -78q-69 0 -114 62q-41 55 -41 127q0 184 139 319t323 135q76 0 121 -57t45 -135q0 -51 -18 -94q-8 -19 -31 -70q17 2 62 23q110 51 247 180zM403 539q0 51 -49 51q-94 0 -221 -215
q-119 -203 -119 -309q0 -68 39 -68q107 0 254 246q6 8 31 47q45 96 57 145q8 33 8 103zM514 797l-291 -113h-77l436 256l20 -256h-39zM88 -127q0 -33 -21.5 -61.5t-54.5 -28.5q-59 0 -59 61q0 33 23.5 56.5t56.5 23.5q55 0 55 -51z" />
    <glyph glyph-name="uni1EDA" unicode="&#x1eda;" horiz-adv-x="1229" 
d="M1130 1141q37 5 74 32q39 28 39 60q0 8 -12 14q-53 11 -53 68q0 61 73 61q74 0 74 -71q0 -74 -56 -127q-54 -51 -130 -62q-2 2 -6 8q17 -35 25.5 -72t8.5 -77q0 -96 -55 -262q-25 -76 -51 -138.5t-55 -111.5q-115 -201 -283 -340q-203 -170 -399 -170q-150 0 -240 113
q-84 103 -84 258q0 198 135 432q58 100 129 188.5t158 167.5q187 172 352 195h86q-132 -67 -207 -127q-42 -34 -82 -79.5t-82 -103.5q-337 -470 -337 -829q0 -84 43 -139q46 -64 129 -64q140 0 301 176q57 62 108.5 136.5t100.5 162.5q221 403 221 645q0 166 -115 166
q-160 0 -307 -207q-137 -193 -137 -360q0 -154 129 -154q131 0 233 152q88 128 88 231q0 38 -18 76q-23 45 -58 45q-54 0 -118 -73l-15 14q80 80 133 80q45 0 72 -46q27 -47 27 -96q0 -146 -99 -270q-104 -135 -245 -135q-72 0 -112 51q-40 50 -40 125q0 175 143 375
q154 211 324 211q102 0 168 -101q6 -10 12 -19.5t11 -20.5q-3 7 -3 16q2 0 2 -4zM1210 1702q37 51 78 57t41 -61q0 -17 -53 -68l-168 -131h-43z" />
    <glyph glyph-name="uni1EDB" unicode="&#x1edb;" horiz-adv-x="756" 
d="M496 545q13 2 27.5 8.5t30.5 17.5q32 23 32 47q0 6 -11 11q-17 5 -24 14q-19 19 -19 41q0 49 60 49q59 0 59 -57q0 -60 -44 -102q-42 -41 -103 -50q22 -43 22 -102q0 -62 -49 -164q16 1 62 23q111 52 247 180l17 -15q-71 -86 -252 -188q-29 -11 -92 -31
q-66 -106 -172 -178q-117 -78 -234 -78q-69 0 -114 62q-41 56 -41 127q0 184 139 319t323 135q80 0 123 -55q6 -7 11 -16v4q2 0 2 -2zM403 539q0 51 -49 51q-96 0 -221 -215q-119 -203 -119 -309q0 -68 39 -68q107 0 254 246l10 10v2l7 8q79 168 79 275zM545 922
q37 51 78 57t41 -61q0 -17 -53 -68l-168 -131h-43z" />
    <glyph glyph-name="uni1EDC" unicode="&#x1edc;" horiz-adv-x="1229" 
d="M1130 1141q37 5 74 32q39 28 39 60q0 8 -12 14q-53 11 -53 68q0 61 73 61q74 0 74 -71q0 -74 -56 -127q-54 -51 -130 -62q-2 2 -6 8q17 -35 25.5 -72t8.5 -77q0 -96 -55 -262q-25 -76 -51 -138.5t-55 -111.5q-115 -201 -283 -340q-203 -170 -399 -170q-150 0 -240 113
q-84 103 -84 258q0 198 135 432q58 100 129 188.5t158 167.5q187 172 352 195h86q-132 -67 -207 -127q-42 -34 -82 -79.5t-82 -103.5q-337 -470 -337 -829q0 -84 43 -139q46 -64 129 -64q140 0 301 176q57 62 108.5 136.5t100.5 162.5q221 403 221 645q0 166 -115 166
q-160 0 -307 -207q-137 -193 -137 -360q0 -154 129 -154q131 0 233 152q88 128 88 231q0 38 -18 76q-23 45 -58 45q-54 0 -118 -73l-15 14q80 80 133 80q45 0 72 -46q27 -47 27 -96q0 -146 -99 -270q-104 -135 -245 -135q-72 0 -112 51q-40 50 -40 125q0 175 143 375
q154 211 324 211q102 0 168 -101q6 -10 12 -19.5t11 -20.5q-3 7 -3 16q2 0 2 -4zM927 1464l-168 131q-53 53 -53 68q0 69 41 61q40 -6 78 -57l145 -203h-43z" />
    <glyph glyph-name="uni1EDD" unicode="&#x1edd;" horiz-adv-x="756" 
d="M496 545q13 2 27.5 8.5t30.5 17.5q32 23 32 47q0 6 -11 11q-17 5 -24 14q-19 19 -19 41q0 49 60 49q59 0 59 -57q0 -60 -44 -102q-42 -41 -103 -50q22 -43 22 -102q0 -62 -49 -164q16 1 62 23q111 52 247 180l17 -15q-71 -86 -252 -188q-29 -11 -92 -31
q-66 -106 -172 -178q-117 -78 -234 -78q-69 0 -114 62q-41 56 -41 127q0 184 139 319t323 135q80 0 123 -55q6 -7 11 -16v4q2 0 2 -2zM403 539q0 51 -49 51q-96 0 -221 -215q-119 -203 -119 -309q0 -68 39 -68q107 0 254 246l10 10v2l7 8q79 168 79 275zM440 719l-168 131
q-53 51 -53 68q0 67 41 61t77 -57l146 -203h-43z" />
    <glyph glyph-name="uni1EDE" unicode="&#x1ede;" horiz-adv-x="1229" 
d="M1130 1141q37 5 74 32q39 28 39 60q0 8 -12 14q-53 11 -53 68q0 61 73 61q74 0 74 -71q0 -74 -56 -127q-54 -51 -130 -62q-2 2 -6 8q17 -35 25.5 -72t8.5 -77q0 -96 -55 -262q-25 -76 -51 -138.5t-55 -111.5q-115 -201 -283 -340q-203 -170 -399 -170q-150 0 -240 113
q-84 103 -84 258q0 198 135 432q58 100 129 188.5t158 167.5q187 172 352 195h86q-132 -67 -207 -127q-42 -34 -82 -79.5t-82 -103.5q-337 -470 -337 -829q0 -84 43 -139q46 -64 129 -64q140 0 301 176q57 62 108.5 136.5t100.5 162.5q221 403 221 645q0 166 -115 166
q-160 0 -307 -207q-137 -193 -137 -360q0 -154 129 -154q131 0 233 152q88 128 88 231q0 38 -18 76q-23 45 -58 45q-54 0 -118 -73l-15 14q80 80 133 80q45 0 72 -46q27 -47 27 -96q0 -146 -99 -270q-104 -135 -245 -135q-72 0 -112 51q-40 50 -40 125q0 175 143 375
q154 211 324 211q102 0 168 -101q6 -10 12 -19.5t11 -20.5q-3 7 -3 16q2 0 2 -4zM1174 1664q23 -20 24.5 -44.5t-9.5 -47.5t-31.5 -42t-42.5 -29l-119 -54q-5 -3 -12 -11q-6 -8 -6 -14v-4q2 13 18 13q8 0 13.5 -4.5t5.5 -11.5t-5.5 -11t-13.5 -4h-3q-22 0 -22 22q0 17 16 30
q30 23 60.5 42.5t59.5 45.5q9 9 19 21t15.5 26t3 28t-17.5 26q-16 13 -41 11.5t-48.5 -13t-41 -32t-18.5 -45.5q7 17 30 17q14 0 23 -7.5t9 -18.5t-9 -18.5t-23 -7.5q-17 0 -27.5 9.5t-10.5 23.5q0 49 40 88q15 15 36 25t44 13t45 -2t39 -20z" />
    <glyph glyph-name="uni1EDF" unicode="&#x1edf;" horiz-adv-x="756" 
d="M803 446q-71 -86 -252 -188q-29 -11 -92 -31q-66 -106 -172 -178q-117 -78 -234 -78q-69 0 -114 62q-41 56 -41 127q0 184 139 319t323 135q80 0 123 -55q2 -4 5 -7t5 -7q27 5 57 26q32 23 32 47q0 6 -11 11q-17 5 -24 14q-19 19 -19 41q0 49 60 49q59 0 59 -57
q0 -60 -44 -102q-41 -40 -99 -49q22 -44 22 -103q0 -62 -49 -164q16 1 62 23q111 52 247 180zM403 539q0 51 -49 51q-96 0 -221 -215q-119 -203 -119 -309q0 -68 39 -68q107 0 254 246l10 10v2l7 8q79 168 79 275zM581 971q23 -20 24.5 -44.5t-9.5 -47.5t-31.5 -42
t-42.5 -29l-119 -54q-5 -3 -12 -11q-6 -8 -6 -14v-4q2 13 18 13q8 0 13.5 -4.5t5.5 -11.5t-5.5 -11t-13.5 -4h-3q-22 0 -22 22q0 17 16 30q30 23 60.5 42.5t59.5 45.5q9 9 19 21t15.5 26t3 28t-17.5 26q-16 13 -41 11.5t-48.5 -13t-41 -32t-18.5 -45.5q7 17 30 17
q14 0 23 -7.5t9 -18.5t-9 -18.5t-23 -7.5q-17 0 -27.5 9.5t-10.5 23.5q0 49 40 88q15 15 36 25t44 13t45 -2t39 -20z" />
    <glyph glyph-name="uni1EE0" unicode="&#x1ee0;" horiz-adv-x="1229" 
d="M1130 1141q37 5 74 32q39 28 39 60q0 8 -12 14q-53 11 -53 68q0 61 73 61q74 0 74 -71q0 -74 -56 -127q-54 -51 -130 -62q-2 2 -6 8q17 -35 25.5 -72t8.5 -77q0 -96 -55 -262q-25 -76 -51 -138.5t-55 -111.5q-115 -201 -283 -340q-203 -170 -399 -170q-150 0 -240 113
q-84 103 -84 258q0 198 135 432q58 100 129 188.5t158 167.5q187 172 352 195h86q-132 -67 -207 -127q-42 -34 -82 -79.5t-82 -103.5q-337 -470 -337 -829q0 -84 43 -139q46 -64 129 -64q140 0 301 176q57 62 108.5 136.5t100.5 162.5q221 403 221 645q0 166 -115 166
q-160 0 -307 -207q-137 -193 -137 -360q0 -154 129 -154q131 0 233 152q88 128 88 231q0 38 -18 76q-23 45 -58 45q-54 0 -118 -73l-15 14q80 80 133 80q45 0 72 -46q27 -47 27 -96q0 -146 -99 -270q-104 -135 -245 -135q-72 0 -112 51q-40 50 -40 125q0 175 143 375
q154 211 324 211q102 0 168 -101q6 -10 12 -19.5t11 -20.5q-3 7 -3 16q2 0 2 -4zM743 1466q23 119 181 119q47 0 143 -29q93 -28 143 -28q52 0 74 43l16 4q0 -82 -106 -115q-41 -12 -84 -12q-40 0 -88 14l-94 29q-48 14 -88 14q-56 0 -78 -39h-19z" />
    <glyph glyph-name="uni1EE1" unicode="&#x1ee1;" horiz-adv-x="756" 
d="M803 446q-70 -86 -252 -188q-31 -12 -92 -31q-66 -106 -172 -178q-117 -78 -234 -78q-69 0 -114 62q-41 55 -41 127q0 184 139 319t323 135q80 0 123 -55l10 -14q25 4 57 26.5t32 46.5q0 7 -11 11q-16 4 -24 14q-19 19 -19 41q0 49 60 49q59 0 59 -57q0 -60 -44 -102
q-42 -40 -99 -49q22 -45 22 -103q0 -60 -49 -164q17 2 62 23q110 51 247 180zM403 539q0 51 -49 51q-96 0 -221 -215q-119 -203 -119 -309q0 -68 39 -68q107 0 254 246l10 10v2l7 8q79 170 79 275zM197 776q22 119 180 119q49 0 143 -28.5t144 -28.5q51 0 73 43l17 4
q0 -82 -107 -115q-41 -12 -84 -12q-41 0 -88 14l-94 29q-47 14 -88 14q-55 0 -78 -39h-18z" />
    <glyph glyph-name="uni1EE2" unicode="&#x1ee2;" horiz-adv-x="1229" 
d="M1130 1141q37 5 74 32q39 28 39 60q0 8 -12 14q-53 11 -53 68q0 61 73 61q74 0 74 -71q0 -74 -56 -127q-54 -51 -130 -62q-2 2 -6 8q17 -35 25.5 -72t8.5 -77q0 -96 -55 -262q-25 -76 -51 -138.5t-55 -111.5q-115 -201 -283 -340q-203 -170 -399 -170q-150 0 -240 113
q-84 103 -84 258q0 198 135 432q58 100 129 188.5t158 167.5q187 172 352 195h86q-132 -67 -207 -127q-42 -34 -82 -79.5t-82 -103.5q-337 -470 -337 -829q0 -84 43 -139q46 -64 129 -64q140 0 301 176q57 62 108.5 136.5t100.5 162.5q221 403 221 645q0 166 -115 166
q-160 0 -307 -207q-137 -193 -137 -360q0 -154 129 -154q131 0 233 152q88 128 88 231q0 38 -18 76q-23 45 -58 45q-54 0 -118 -73l-15 14q80 80 133 80q45 0 72 -46q27 -47 27 -96q0 -146 -99 -270q-104 -135 -245 -135q-72 0 -112 51q-40 50 -40 125q0 175 143 375
q154 211 324 211q102 0 168 -101q6 -10 12 -19.5t11 -20.5q-3 7 -3 16q2 0 2 -4zM341 -177q0 -17 -5.5 -33t-16 -28.5t-24.5 -20.5t-30 -8q-60 0 -60 61q0 16 6.5 31t17.5 25.5t25.5 17t30.5 6.5q56 0 56 -51z" />
    <glyph glyph-name="uni1EE3" unicode="&#x1ee3;" horiz-adv-x="756" 
d="M803 446q-70 -86 -252 -188q-31 -12 -92 -31q-66 -106 -172 -178q-117 -78 -234 -78q-69 0 -114 62q-41 55 -41 127q0 184 139 319t323 135q80 0 123 -55l10 -14q25 4 57 26.5t32 46.5q0 7 -11 11q-16 4 -24 14q-19 19 -19 41q0 49 60 49q59 0 59 -57q0 -60 -44 -102
q-42 -40 -99 -49q22 -45 22 -103q0 -60 -49 -164q17 2 62 23q110 51 247 180zM403 539q0 51 -49 51q-96 0 -221 -215q-119 -203 -119 -309q0 -68 39 -68q107 0 254 246l10 10v2l7 8q79 170 79 275zM88 -127q0 -33 -21.5 -61.5t-54.5 -28.5q-59 0 -59 61q0 33 23.5 56.5
t56.5 23.5q55 0 55 -51z" />
    <glyph glyph-name="uni1EE4" unicode="&#x1ee4;" horiz-adv-x="1772" 
d="M3160 850q0 -116 -139 -192q-77 -43 -170 -43q-414 0 -813 424q-168 -135 -292.5 -272.5t-209.5 -280.5q-227 -383 -227 -471q0 -33 30 -33q115 0 228 141v-37q-107 -141 -258 -141q-121 0 -121 201q-167 -201 -291 -201q-73 0 -123 74q-45 64 -45 143q0 136 105 285
q19 26 68 94t128 178q105 144 105 221q0 163 -109 248q-98 80 -264 80q-326 0 -543 -199q-190 -174 -190 -378q0 -134 93 -225q92 -91 226 -91q192 0 334 80l6 -12q-131 -86 -340 -86q-143 0 -241 95q-97 94 -97 239q0 211 193 391q218 205 559 205q218 0 346 -123
q127 -123 127 -342q0 -90 -55 -187q-14 -25 -42 -64.5t-71 -94.5q-25 -31 -61.5 -78.5t-86.5 -111.5q-98 -128 -98 -224q0 -94 76 -94q144 0 287 225q19 29 55 88t90 149q238 385 660 658q-278 199 -443 199h-110v12h94q165 0 276 -41q49 -19 108.5 -55t131.5 -91
q207 82 301 105q103 27 270 27q205 0 361 -93q182 -108 182 -301zM3140 850q0 183 -179 287q-148 86 -344 86q-238 0 -534 -145q455 -443 768 -443q100 0 188 58q101 63 101 157zM990 -177q0 -17 -5.5 -33t-16 -28.5t-24.5 -20.5t-30 -8q-60 0 -60 61q0 16 6.5 31t17.5 25.5
t25.5 17t30.5 6.5q56 0 56 -51z" />
    <glyph glyph-name="uni1EE5" unicode="&#x1ee5;" horiz-adv-x="852" 
d="M897 446q-326 -475 -567 -475q-105 0 -121 170q-90 -104 -125 -131q-51 -39 -125 -39q-104 0 -104 101q0 92 67 217l152 278q16 29 55 29q10 0 32.5 -7t35.5 -7q10 0 37.5 27.5t35.5 29.5l-243 -459q-35 -65 -35 -114q0 -54 51 -54q37 0 131 119q78 98 109 154l159 284
q15 27 47 27q13 0 38.5 -7t35.5 -7q8 0 35 27.5t39 29.5l-260 -489q-33 -62 -33 -91q0 -41 53 -41q90 0 267 183q124 129 217 260zM131 -127q0 -33 -21.5 -61.5t-54.5 -28.5q-59 0 -59 61q0 33 23.5 56.5t56.5 23.5q55 0 55 -51z" />
    <glyph glyph-name="uni1EE6" unicode="&#x1ee6;" horiz-adv-x="1772" 
d="M3160 850q0 -116 -139 -192q-77 -43 -170 -43q-414 0 -813 424q-168 -135 -292.5 -272.5t-209.5 -280.5q-227 -383 -227 -471q0 -33 30 -33q115 0 228 141v-37q-107 -141 -258 -141q-121 0 -121 201q-167 -201 -291 -201q-73 0 -123 74q-45 64 -45 143q0 136 105 285
q19 26 68 94t128 178q105 144 105 221q0 163 -109 248q-98 80 -264 80q-326 0 -543 -199q-190 -174 -190 -378q0 -134 93 -225q92 -91 226 -91q192 0 334 80l6 -12q-131 -86 -340 -86q-143 0 -241 95q-97 94 -97 239q0 211 193 391q218 205 559 205q218 0 346 -123
q127 -123 127 -342q0 -90 -55 -187q-14 -25 -42 -64.5t-71 -94.5q-25 -31 -61.5 -78.5t-86.5 -111.5q-98 -128 -98 -224q0 -94 76 -94q144 0 287 225q19 29 55 88t90 149q238 385 660 658q-278 199 -443 199h-110v12h94q165 0 276 -41q49 -19 108.5 -55t131.5 -91
q207 82 301 105q103 27 270 27q205 0 361 -93q182 -108 182 -301zM3140 850q0 183 -179 287q-148 86 -344 86q-238 0 -534 -145q455 -443 768 -443q100 0 188 58q101 63 101 157zM1832 1645q23 -20 24.5 -44.5t-9.5 -47.5t-31.5 -42t-42.5 -29l-119 -54q-5 -3 -12 -11
q-6 -8 -6 -14v-4q2 13 18 13q8 0 13.5 -4.5t5.5 -11.5t-5.5 -11t-13.5 -4h-3q-22 0 -22 22q0 17 16 30q30 23 60.5 42.5t59.5 45.5q9 9 19 21t15.5 26t3 28t-17.5 26q-16 13 -41 11.5t-48.5 -13t-41 -32t-18.5 -45.5q7 17 30 17q14 0 23 -7.5t9 -18.5t-9 -18.5t-23 -7.5
q-17 0 -27.5 9.5t-10.5 23.5q0 49 40 88q15 15 36 25t44 13t45 -2t39 -20z" />
    <glyph glyph-name="uni1EE7" unicode="&#x1ee7;" horiz-adv-x="852" 
d="M897 446q-325 -475 -567 -475q-104 0 -121 170q-90 -104 -125 -131q-51 -39 -125 -39q-104 0 -104 101q0 93 67 217l152 278q17 29 55 29q5 0 14 -2t18.5 -5t19.5 -5t16 -2q10 0 37 27q28 28 36 30l-243 -459q-35 -65 -35 -114q0 -54 51 -54q36 0 131 119q39 49 66 87.5
t43 66.5l159 284q15 27 47 27q14 0 38 -7t36 -7q8 0 35 27q27 28 39 30l-260 -489q-33 -62 -33 -91q0 -41 53 -41q90 0 267 183q63 65 116.5 129.5t100.5 130.5zM581 971q23 -20 24.5 -44.5t-9.5 -47.5t-31.5 -42t-42.5 -29l-119 -54q-5 -3 -12 -11q-6 -8 -6 -14v-4
q2 13 18 13q8 0 13.5 -4.5t5.5 -11.5t-5.5 -11t-13.5 -4h-3q-22 0 -22 22q0 17 16 30q30 23 60.5 42.5t59.5 45.5q9 9 19 21t15.5 26t3 28t-17.5 26q-16 13 -41 11.5t-48.5 -13t-41 -32t-18.5 -45.5q7 17 30 17q14 0 23 -7.5t9 -18.5t-9 -18.5t-23 -7.5q-17 0 -27.5 9.5
t-10.5 23.5q0 49 40 88q15 15 36 25t44 13t45 -2t39 -20z" />
    <glyph glyph-name="uni1EE8" unicode="&#x1ee8;" horiz-adv-x="1772" 
d="M1895 1702q37 51 78 57t41 -61q0 -17 -53 -68l-168 -131h-43zM1806 1274q49 -19 108.5 -55t131.5 -91q17 4 40.5 13.5t41.5 23.5q39 28 39 60q0 8 -13 14q-53 11 -53 68q0 31 21.5 47t52.5 14q34 -3 54 -19.5t20 -52.5q0 -61 -39 -107l2 1q45 16 78.5 26.5t56.5 16.5
q103 27 270 27q205 0 361 -93q182 -108 182 -301q0 -116 -139 -192q-77 -43 -170 -43q-414 0 -813 424q-168 -135 -292.5 -272.5t-209.5 -280.5q-227 -383 -227 -471q0 -33 30 -33q115 0 228 141v-37q-107 -141 -258 -141q-121 0 -121 201q-167 -201 -291 -201
q-73 0 -123 74q-45 64 -45 143q0 136 105 285q19 26 68 94t128 178q105 144 105 221q0 163 -109 248q-98 80 -264 80q-326 0 -543 -199q-190 -174 -190 -378q0 -134 93 -225q92 -91 226 -91q192 0 334 80l6 -12q-131 -86 -340 -86q-143 0 -241 95q-97 94 -97 239
q0 211 193 391q218 205 559 205q218 0 346 -123q127 -123 127 -342q0 -90 -55 -187q-14 -25 -42 -64.5t-71 -94.5q-25 -31 -61.5 -78.5t-86.5 -111.5q-98 -128 -98 -224q0 -94 76 -94q144 0 287 225q19 29 55 88t90 149q238 385 660 658q-278 199 -443 199h-110v12h94
q165 0 276 -41zM3140 866q0 183 -179 287q-148 86 -344 86q-238 0 -534 -145q455 -443 768 -443q100 0 188 58q101 63 101 157z" />
    <glyph glyph-name="uni1EE9" unicode="&#x1ee9;" horiz-adv-x="852" 
d="M601 573q74 9 74 41q0 4 -16.5 13.5t-18.5 11.5q-16 16 -16 39q0 51 57 51q59 0 59 -57q0 -105 -153 -123l-210 -399q-33 -62 -33 -91q0 -41 53 -41q90 0 267 183q124 129 217 260l16 -15q-117 -170 -231 -284q-193 -191 -336 -191q-105 0 -121 170q-90 -104 -125 -131
q-51 -39 -125 -39q-104 0 -104 101q0 92 67 217l152 278q16 29 55 29q10 0 32.5 -7t35.5 -7q8 0 37.5 27.5t35.5 29.5l-243 -459q-35 -65 -35 -114q0 -54 51 -54q37 0 131 119q76 96 109 154l159 284q15 27 47 27q13 0 37.5 -7t36.5 -7q2 0 0 2l2 2q6 0 39 -6l-4 -7h1z
M577 922q37 51 78 57t41 -61q0 -17 -53 -68l-168 -131h-43z" />
    <glyph glyph-name="uni1EEA" unicode="&#x1eea;" horiz-adv-x="1772" 
d="M1861 1464l-168 131q-53 53 -53 68q0 69 41 61q40 -6 78 -57l145 -203h-43zM1806 1274q49 -19 108.5 -55t131.5 -91q17 4 40.5 13.5t41.5 23.5q39 28 39 60q0 8 -13 14q-53 11 -53 68q0 31 21.5 47t52.5 14q34 -3 54 -19.5t20 -52.5q0 -61 -39 -107l2 1q45 16 78.5 26.5
t56.5 16.5q103 27 270 27q205 0 361 -93q182 -108 182 -301q0 -116 -139 -192q-77 -43 -170 -43q-414 0 -813 424q-168 -135 -292.5 -272.5t-209.5 -280.5q-227 -383 -227 -471q0 -33 30 -33q115 0 228 141v-37q-107 -141 -258 -141q-121 0 -121 201q-167 -201 -291 -201
q-73 0 -123 74q-45 64 -45 143q0 136 105 285q19 26 68 94t128 178q105 144 105 221q0 163 -109 248q-98 80 -264 80q-326 0 -543 -199q-190 -174 -190 -378q0 -134 93 -225q92 -91 226 -91q192 0 334 80l6 -12q-131 -86 -340 -86q-143 0 -241 95q-97 94 -97 239
q0 211 193 391q218 205 559 205q218 0 346 -123q127 -123 127 -342q0 -90 -55 -187q-14 -25 -42 -64.5t-71 -94.5q-25 -31 -61.5 -78.5t-86.5 -111.5q-98 -128 -98 -224q0 -94 76 -94q144 0 287 225q19 29 55 88t90 149q238 385 660 658q-278 199 -443 199h-110v12h94
q165 0 276 -41zM3140 866q0 183 -179 287q-148 86 -344 86q-238 0 -534 -145q455 -443 768 -443q100 0 188 58q101 63 101 157z" />
    <glyph glyph-name="uni1EEB" unicode="&#x1eeb;" horiz-adv-x="852" 
d="M587 719h-43l-168 131q-53 51 -53 68q0 67 41 61t77 -57zM601 573q74 9 74 41q0 4 -16.5 13.5t-18.5 11.5q-16 16 -16 39q0 51 57 51q59 0 59 -57q0 -105 -153 -123l-210 -399q-33 -62 -33 -91q0 -41 53 -41q90 0 267 183q124 129 217 260l16 -15q-117 -170 -231 -284
q-193 -191 -336 -191q-105 0 -121 170q-90 -104 -125 -131q-51 -39 -125 -39q-104 0 -104 101q0 92 67 217l152 278q16 29 55 29q10 0 32.5 -7t35.5 -7q8 0 37.5 27.5t35.5 29.5l-243 -459q-35 -65 -35 -114q0 -54 51 -54q37 0 131 119q76 96 109 154l159 284q15 27 47 27
q13 0 37.5 -7t36.5 -7q2 0 0 2l2 2q6 0 39 -6l-4 -7h1z" />
    <glyph glyph-name="uni1EEC" unicode="&#x1eec;" horiz-adv-x="1772" 
d="M1806 1274q49 -19 108.5 -55t131.5 -91q17 4 40.5 13.5t41.5 23.5q39 28 39 60q0 8 -13 14q-53 11 -53 68q0 31 21.5 47t52.5 14q34 -3 54 -19.5t20 -52.5q0 -61 -39 -107l2 1q45 16 78.5 26.5t56.5 16.5q103 27 270 27q205 0 361 -93q182 -108 182 -301
q0 -116 -139 -192q-77 -43 -170 -43q-414 0 -813 424q-168 -135 -292.5 -272.5t-209.5 -280.5q-227 -383 -227 -471q0 -33 30 -33q115 0 228 141v-37q-107 -141 -258 -141q-121 0 -121 201q-167 -201 -291 -201q-73 0 -123 74q-45 64 -45 143q0 136 105 285q19 26 68 94
t128 178q105 144 105 221q0 163 -109 248q-98 80 -264 80q-326 0 -543 -199q-190 -174 -190 -378q0 -134 93 -225q92 -91 226 -91q192 0 334 80l6 -12q-131 -86 -340 -86q-143 0 -241 95q-97 94 -97 239q0 211 193 391q218 205 559 205q218 0 346 -123q127 -123 127 -342
q0 -90 -55 -187q-14 -25 -42 -64.5t-71 -94.5q-25 -31 -61.5 -78.5t-86.5 -111.5q-98 -128 -98 -224q0 -94 76 -94q144 0 287 225q19 29 55 88t90 149q238 385 660 658q-278 199 -443 199h-110v12h94q165 0 276 -41zM3140 866q0 183 -179 287q-148 86 -344 86
q-238 0 -534 -145q455 -443 768 -443q100 0 188 58q101 63 101 157zM1832 1645q23 -20 24.5 -44.5t-9.5 -47.5t-31.5 -42t-42.5 -29l-119 -54q-5 -3 -12 -11q-6 -8 -6 -14v-4q2 13 18 13q8 0 13.5 -4.5t5.5 -11.5t-5.5 -11t-13.5 -4h-3q-22 0 -22 22q0 17 16 30
q30 23 60.5 42.5t59.5 45.5q9 9 19 21t15.5 26t3 28t-17.5 26q-16 13 -41 11.5t-48.5 -13t-41 -32t-18.5 -45.5q7 17 30 17q14 0 23 -7.5t9 -18.5t-9 -18.5t-23 -7.5q-17 0 -27.5 9.5t-10.5 23.5q0 49 40 88q15 15 36 25t44 13t45 -2t39 -20z" />
    <glyph glyph-name="uni1EED" unicode="&#x1eed;" horiz-adv-x="852" 
d="M601 573q74 9 74 41q0 4 -17 13q-17 10 -18 12q-16 16 -16 39q0 51 57 51q59 0 59 -57q0 -105 -153 -123l-210 -399q-33 -62 -33 -91q0 -41 53 -41q90 0 267 183q63 65 116.5 129.5t100.5 130.5l16 -15q-118 -171 -231 -284q-194 -191 -336 -191q-104 0 -121 170
q-90 -104 -125 -131q-51 -39 -125 -39q-104 0 -104 101q0 93 67 217l152 278q17 29 55 29q5 0 14 -2t18.5 -5t19.5 -5t16 -2q8 0 37 27q30 28 36 30l-243 -459q-35 -65 -35 -114q0 -54 51 -54q36 0 131 119q76 95 109 154l159 284q15 27 47 27q15 0 37 -7q24 -7 37 -7
q2 0 0 2l2 2q6 0 39 -6l-4 -7h1zM581 971q23 -20 24.5 -44.5t-9.5 -47.5t-31.5 -42t-42.5 -29l-119 -54q-5 -3 -12 -11q-6 -8 -6 -14v-4q2 13 18 13q8 0 13.5 -4.5t5.5 -11.5t-5.5 -11t-13.5 -4h-3q-22 0 -22 22q0 17 16 30q30 23 60.5 42.5t59.5 45.5q9 9 19 21t15.5 26
t3 28t-17.5 26q-16 13 -41 11.5t-48.5 -13t-41 -32t-18.5 -45.5q7 17 30 17q14 0 23 -7.5t9 -18.5t-9 -18.5t-23 -7.5q-17 0 -27.5 9.5t-10.5 23.5q0 49 40 88q15 15 36 25t44 13t45 -2t39 -20z" />
    <glyph glyph-name="uni1EEE" unicode="&#x1eee;" horiz-adv-x="1772" 
d="M1463 1466q23 119 181 119q47 0 143 -29q93 -28 143 -28q52 0 74 43l16 4q0 -82 -106 -115q-41 -12 -84 -12q-40 0 -88 14l-94 29q-48 14 -88 14q-56 0 -78 -39h-19zM1806 1274q49 -19 108.5 -55t131.5 -91q17 4 40.5 13.5t41.5 23.5q39 28 39 60q0 8 -13 14
q-53 11 -53 68q0 31 21.5 47t52.5 14q34 -3 54 -19.5t20 -52.5q0 -61 -39 -107l2 1q45 16 78.5 26.5t56.5 16.5q103 27 270 27q205 0 361 -93q182 -108 182 -301q0 -116 -139 -192q-77 -43 -170 -43q-414 0 -813 424q-168 -135 -292.5 -272.5t-209.5 -280.5
q-227 -383 -227 -471q0 -33 30 -33q115 0 228 141v-37q-107 -141 -258 -141q-121 0 -121 201q-167 -201 -291 -201q-73 0 -123 74q-45 64 -45 143q0 136 105 285q19 26 68 94t128 178q105 144 105 221q0 163 -109 248q-98 80 -264 80q-326 0 -543 -199q-190 -174 -190 -378
q0 -134 93 -225q92 -91 226 -91q192 0 334 80l6 -12q-131 -86 -340 -86q-143 0 -241 95q-97 94 -97 239q0 211 193 391q218 205 559 205q218 0 346 -123q127 -123 127 -342q0 -90 -55 -187q-14 -25 -42 -64.5t-71 -94.5q-25 -31 -61.5 -78.5t-86.5 -111.5q-98 -128 -98 -224
q0 -94 76 -94q144 0 287 225q19 29 55 88t90 149q238 385 660 658q-278 199 -443 199h-110v12h94q165 0 276 -41zM3140 866q0 183 -179 287q-148 86 -344 86q-238 0 -534 -145q455 -443 768 -443q100 0 188 58q101 63 101 157z" />
    <glyph glyph-name="uni1EEF" unicode="&#x1eef;" horiz-adv-x="852" 
d="M279 776q23 119 180 119q49 0 143.5 -28.5t143.5 -28.5q51 0 74 43l16 4q0 -82 -106 -115q-41 -12 -84 -12q-41 0 -88 14l-95 29q-47 14 -88 14q-55 0 -77 -39h-19zM601 573q74 9 74 41q0 4 -16.5 13.5t-18.5 11.5q-16 16 -16 39q0 51 57 51q59 0 59 -57
q0 -105 -153 -123l-210 -399q-33 -62 -33 -91q0 -41 53 -41q90 0 267 183q124 129 217 260l16 -15q-117 -170 -231 -284q-193 -191 -336 -191q-105 0 -121 170q-90 -104 -125 -131q-51 -39 -125 -39q-104 0 -104 101q0 92 67 217l152 278q16 29 55 29q10 0 32.5 -7t35.5 -7
q8 0 37.5 27.5t35.5 29.5l-243 -459q-35 -65 -35 -114q0 -54 51 -54q37 0 131 119q76 96 109 154l159 284q15 27 47 27q13 0 37.5 -7t36.5 -7q2 0 0 2l2 2q6 0 39 -6l-4 -7h1z" />
    <glyph glyph-name="uni1EF0" unicode="&#x1ef0;" horiz-adv-x="1772" 
d="M1806 1274q49 -19 108.5 -55t131.5 -91q17 4 40.5 13.5t41.5 23.5q39 28 39 60q0 8 -13 14q-53 11 -53 68q0 31 21.5 47t52.5 14q34 -3 54 -19.5t20 -52.5q0 -61 -39 -107l2 1q45 16 78.5 26.5t56.5 16.5q103 27 270 27q205 0 361 -93q182 -108 182 -301
q0 -116 -139 -192q-77 -43 -170 -43q-414 0 -813 424q-168 -135 -292.5 -272.5t-209.5 -280.5q-227 -383 -227 -471q0 -33 30 -33q115 0 228 141v-37q-107 -141 -258 -141q-121 0 -121 201q-167 -201 -291 -201q-73 0 -123 74q-45 64 -45 143q0 136 105 285q19 26 68 94
t128 178q105 144 105 221q0 163 -109 248q-98 80 -264 80q-326 0 -543 -199q-190 -174 -190 -378q0 -134 93 -225q92 -91 226 -91q192 0 334 80l6 -12q-131 -86 -340 -86q-143 0 -241 95q-97 94 -97 239q0 211 193 391q218 205 559 205q218 0 346 -123q127 -123 127 -342
q0 -90 -55 -187q-14 -25 -42 -64.5t-71 -94.5q-25 -31 -61.5 -78.5t-86.5 -111.5q-98 -128 -98 -224q0 -94 76 -94q144 0 287 225q19 29 55 88t90 149q238 385 660 658q-278 199 -443 199h-110v12h94q165 0 276 -41zM3140 866q0 183 -179 287q-148 86 -344 86
q-238 0 -534 -145q455 -443 768 -443q100 0 188 58q101 63 101 157zM990 -177q0 -17 -5.5 -33t-16 -28.5t-24.5 -20.5t-30 -8q-60 0 -60 61q0 16 6.5 31t17.5 25.5t25.5 17t30.5 6.5q56 0 56 -51z" />
    <glyph glyph-name="uni1EF1" unicode="&#x1ef1;" horiz-adv-x="852" 
d="M683 573q74 9 74 41q0 4 -16.5 13.5t-18.5 11.5q-16 16 -16 39q0 51 57 51q59 0 59 -57q0 -105 -153 -123l-210 -399q-33 -62 -33 -91q0 -41 53 -41q90 0 267 183q124 129 217 260l16 -15q-117 -170 -231 -284q-193 -191 -336 -191q-105 0 -121 170q-90 -104 -125 -131
q-51 -39 -125 -39q-104 0 -104 101q0 92 67 217l152 278q16 29 55 29q10 0 32.5 -7t35.5 -7q8 0 37.5 27.5t35.5 29.5l-243 -459q-35 -65 -35 -114q0 -54 51 -54q37 0 131 119q76 96 109 154l159 284q15 27 47 27q13 0 37.5 -7t36.5 -7q2 0 0 2l2 2q6 0 39 -6l-4 -7h1z
M131 -127q0 -33 -21.5 -61.5t-54.5 -28.5q-59 0 -59 61q0 33 23.5 56.5t56.5 23.5q55 0 55 -51z" />
    <glyph glyph-name="Ygrave" unicode="&#x1ef2;" horiz-adv-x="2148" 
d="M3299 -195q0 -288 -193.5 -468.5t-484.5 -180.5q-501 0 -1038 508q-262 -518 -770 -518q-242 0 -426 113q-217 133 -217 360q0 229 215 365q184 116 428 116q315 0 596 -241q29 -25 158 -144q24 37 43 78q35 82 98 412q-88 -107 -127 -144q-90 -86 -164 -86
q-94 0 -143 86q-39 68 -39 170q0 152 82 279l153 240q82 127 82 237q0 135 -86 220t-221 85q-155 0 -336 -84q2 -14 2 -43q0 -149 -84 -288l-16 4q25 47 66 155q14 60 14 164q-236 -139 -375 -186q-78 -27 -170 -27q-127 0 -227 68q-115 75 -115 196q0 275 479 275
q172 0 273.5 -67.5t150.5 -227.5l146 53q84 23 192 23q180 0 300 -120t120 -300q0 -107 -55 -225q-31 -68 -121 -203q-84 -127 -117 -203q-20 -70 -20 -137q0 -121 86 -121q92 0 196 160q54 82 125 241q84 189 144 285q413 670 897 670q387 0 387 -275q-21 13 -23 13
q-33 245 -328 245q-303 0 -612 -395q-221 -283 -377 -663q-47 -115 -211 -504q-24 -58 -43 -90q125 -138 312 -263q364 -243 716 -243q281 0 467.5 174t186.5 452q0 207 -135.5 354.5t-339.5 147.5q-140 0 -234 -71q-104 -80 -104 -216q0 -231 280 -268q0 -22 -20 -22
q-127 0 -208 82t-81 208q0 146 113 236q104 84 254 84q221 0 360 -154.5t139 -380.5zM887 1223q-76 290 -404 290q-465 0 -465 -262q0 -114 111 -184q96 -61 217 -61q164 0 541 217zM1554 -305q-176 172 -280 242q-215 143 -461 143q-238 0 -405 -109q-199 -129 -199 -352
q0 -180 223 -289q180 -88 381 -88q320 0 551 207q115 102 190 246zM2178 1464h-43l-168 131q-53 52 -53 68q0 68 41 61q41 -6 78 -57z" />
    <glyph glyph-name="ygrave" unicode="&#x1ef3;" horiz-adv-x="784" 
d="M829 446q-45 -45 -270 -258l-149 -141q-56 -51 -185 -125l-116 -229q-154 -303 -351 -303q-69 0 -117.5 44t-48.5 113q0 121 158 217q105 64 330 136l86 172q-133 -101 -201 -101q-108 0 -108 138q0 61 34 127l166 311q27 49 58 49q14 0 40.5 -8t39.5 -8q8 0 35.5 28.5
t37.5 30.5l-250 -467q-32 -61 -32 -100q0 -58 28 -58q29 0 92 37q82 47 117 111l215 385q27 49 58 49q12 0 37.5 -8t35.5 -8q9 0 37.5 28.5t38.5 30.5l-135 -260q-104 -201 -266 -426q94 55 157 117q39 39 142 137l270 254zM74 -121q-240 -86 -316 -131q-149 -88 -149 -199
q0 -86 86 -86q94 0 221 170q59 80 158 246zM553 719h-43l-168 131q-53 51 -53 68q0 67 41 61t77 -57z" />
    <glyph glyph-name="uni1EF4" unicode="&#x1ef4;" horiz-adv-x="2148" 
d="M3299 -195q0 -288 -194 -468q-193 -181 -484 -181q-502 0 -1038 508q-263 -518 -770 -518q-241 0 -426 113q-217 133 -217 360q0 228 215 365q185 116 428 116q316 0 596 -241q14 -13 53.5 -48.5t104.5 -95.5q12 19 22.5 38.5t20.5 39.5q17 42 41.5 144t56.5 268
q-45 -54 -76 -89.5t-51 -54.5q-91 -86 -164 -86q-93 0 -143 86q-39 67 -39 170q0 152 82 279l153 240q82 127 82 237q0 134 -86 220q-85 85 -221 85q-155 0 -336 -84q1 -7 1.5 -18t0.5 -25q0 -149 -84 -288l-16 4q25 45 66 155q14 62 14 164q-236 -140 -375 -186
q-78 -27 -170 -27q-126 0 -227 68q-115 75 -115 196q0 275 479 275q172 0 273 -68q102 -67 151 -227l146 53q86 23 192 23q180 0 300 -120t120 -300q0 -108 -55 -225q-16 -34 -46 -84.5t-75 -118.5q-85 -129 -117 -203q-20 -72 -20 -137q0 -121 86 -121q93 0 196 160
q27 42 58.5 101.5t66.5 139.5q84 189 144 285q412 670 897 670q387 0 387 -275q-20 13 -23 13q-33 245 -328 245q-303 0 -612 -395q-222 -285 -377 -663q-23 -58 -76 -183.5t-135 -320.5q-12 -29 -22.5 -51.5t-20.5 -38.5q126 -139 312 -263q364 -243 716 -243
q281 0 467 174q187 174 187 452q0 208 -136 354q-135 148 -339 148q-139 0 -234 -71q-104 -80 -104 -216q0 -231 280 -268q0 -22 -20 -22q-127 0 -208 82t-81 208q0 146 113 236q103 84 254 84q220 0 360 -155q139 -154 139 -380zM887 1223q-77 290 -404 290
q-465 0 -465 -262q0 -114 111 -184q95 -61 217 -61q165 0 541 217zM1554 -305q-88 87 -158 147t-122 95q-215 143 -461 143q-239 0 -405 -109q-199 -129 -199 -352q0 -180 223 -289q179 -88 381 -88q320 0 551 207q115 101 190 246zM1308 -281q0 -17 -5.5 -33t-16 -28.5
t-24.5 -20.5t-30 -8q-60 0 -60 61q0 16 6.5 31t17.5 25.5t25.5 17t30.5 6.5q56 0 56 -51z" />
    <glyph glyph-name="uni1EF5" unicode="&#x1ef5;" horiz-adv-x="784" 
d="M829 446q-47 -47 -270 -258l-149 -141q-60 -57 -185 -125q-55 -110 -114 -223q-164 -309 -353 -309q-69 0 -117.5 44t-48.5 113q0 121 158 217q100 62 330 136l86 172q-133 -101 -201 -101q-108 0 -108 138q0 61 34 127l166 311q27 49 58 49q14 0 40.5 -8t39.5 -8
q6 0 35.5 28.5t37.5 30.5l-250 -467q-32 -61 -32 -100q0 -58 28 -58q29 0 92 37q82 47 117 111l215 385q27 49 58 49q12 0 37.5 -8t35.5 -8q6 0 37 28.5t39 30.5l-135 -260q-107 -205 -266 -426q80 47 157 119q39 37 142 135l270 254zM74 -121q-238 -86 -316 -131
q-149 -88 -149 -199q0 -86 86 -86q94 0 221 170q57 76 158 246zM432 -127q0 -33 -21.5 -61.5t-54.5 -28.5q-59 0 -59 61q0 33 23.5 56.5t56.5 23.5q55 0 55 -51z" />
    <glyph glyph-name="uni1EF6" unicode="&#x1ef6;" horiz-adv-x="2148" 
d="M3299 -195q0 -288 -194 -468q-193 -181 -484 -181q-502 0 -1038 508q-263 -518 -770 -518q-241 0 -426 113q-217 133 -217 360q0 228 215 365q185 116 428 116q316 0 596 -241q14 -13 53.5 -48.5t104.5 -95.5q12 19 22.5 38.5t20.5 39.5q17 42 41.5 144t56.5 268
q-45 -54 -76 -89.5t-51 -54.5q-91 -86 -164 -86q-93 0 -143 86q-39 67 -39 170q0 152 82 279l153 240q82 127 82 237q0 134 -86 220q-85 85 -221 85q-155 0 -336 -84q1 -7 1.5 -18t0.5 -25q0 -149 -84 -288l-16 4q25 45 66 155q14 62 14 164q-236 -140 -375 -186
q-78 -27 -170 -27q-126 0 -227 68q-115 75 -115 196q0 275 479 275q172 0 273 -68q102 -67 151 -227l146 53q86 23 192 23q180 0 300 -120t120 -300q0 -108 -55 -225q-16 -34 -46 -84.5t-75 -118.5q-85 -129 -117 -203q-20 -72 -20 -137q0 -121 86 -121q93 0 196 160
q27 42 58.5 101.5t66.5 139.5q84 189 144 285q412 670 897 670q387 0 387 -275q-20 13 -23 13q-33 245 -328 245q-303 0 -612 -395q-222 -285 -377 -663q-23 -58 -76 -183.5t-135 -320.5q-12 -29 -22.5 -51.5t-20.5 -38.5q126 -139 312 -263q364 -243 716 -243
q281 0 467 174q187 174 187 452q0 208 -136 354q-135 148 -339 148q-139 0 -234 -71q-104 -80 -104 -216q0 -231 280 -268q0 -22 -20 -22q-127 0 -208 82t-81 208q0 146 113 236q103 84 254 84q220 0 360 -155q139 -154 139 -380zM887 1223q-77 290 -404 290
q-465 0 -465 -262q0 -114 111 -184q95 -61 217 -61q165 0 541 217zM1554 -305q-88 87 -158 147t-122 95q-215 143 -461 143q-239 0 -405 -109q-199 -129 -199 -352q0 -180 223 -289q179 -88 381 -88q320 0 551 207q115 101 190 246zM2278 1645q23 -20 24.5 -44.5t-9.5 -47.5
t-31.5 -42t-42.5 -29l-119 -54q-5 -3 -12 -11q-6 -8 -6 -14v-4q2 13 18 13q8 0 13.5 -4.5t5.5 -11.5t-5.5 -11t-13.5 -4h-3q-22 0 -22 22q0 17 16 30q30 23 60.5 42.5t59.5 45.5q9 9 19 21t15.5 26t3 28t-17.5 26q-16 13 -41 11.5t-48.5 -13t-41 -32t-18.5 -45.5q7 17 30 17
q14 0 23 -7.5t9 -18.5t-9 -18.5t-23 -7.5q-17 0 -27.5 9.5t-10.5 23.5q0 49 40 88q15 15 36 25t44 13t45 -2t39 -20z" />
    <glyph glyph-name="uni1EF7" unicode="&#x1ef7;" horiz-adv-x="784" 
d="M829 446q-45 -45 -270 -258l-149 -141q-56 -52 -185 -125l-116 -229q-155 -303 -351 -303q-68 0 -117 44q-49 43 -49 113q0 121 158 217q103 63 330 136l86 172q-134 -101 -201 -101q-108 0 -108 138q0 62 34 127l166 311q27 49 58 49q13 0 40 -8q29 -8 40 -8q8 0 35 28
q30 30 38 31l-250 -467q-32 -62 -32 -100q0 -58 28 -58q30 0 92 37q82 46 117 111l215 385q27 49 58 49q10 0 37 -8t36 -8t37 28q30 30 39 31l-135 -260q-102 -199 -266 -426q93 55 157 117q20 20 55 54t87 83l270 254zM74 -121q-121 -43 -199.5 -75.5t-116.5 -55.5
q-149 -89 -149 -199q0 -86 86 -86q93 0 221 170q29 40 68.5 101t89.5 145zM598 946q23 -20 24.5 -44.5t-9.5 -47.5t-31.5 -42t-42.5 -29l-119 -54q-5 -3 -12 -11q-6 -8 -6 -14v-4q2 13 18 13q8 0 13.5 -4.5t5.5 -11.5t-5.5 -11t-13.5 -4h-3q-22 0 -22 22q0 17 16 30
q30 23 60.5 42.5t59.5 45.5q9 9 19 21t15.5 26t3 28t-17.5 26q-16 13 -41 11.5t-48.5 -13t-41 -32t-18.5 -45.5q7 17 30 17q14 0 23 -7.5t9 -18.5t-9 -18.5t-23 -7.5q-17 0 -27.5 9.5t-10.5 23.5q0 49 40 88q15 15 36 25t44 13t45 -2t39 -20z" />
    <glyph glyph-name="uni1EF8" unicode="&#x1ef8;" horiz-adv-x="2148" 
d="M3299 -195q0 -288 -193.5 -468.5t-484.5 -180.5q-501 0 -1038 508q-262 -518 -770 -518q-242 0 -426 113q-217 133 -217 360q0 229 215 365q184 116 428 116q315 0 596 -241q29 -25 158 -144q24 37 43 78q35 82 98 412q-88 -107 -127 -144q-90 -86 -164 -86
q-94 0 -143 86q-39 68 -39 170q0 152 82 279l153 240q82 127 82 237q0 135 -86 220t-221 85q-155 0 -336 -84q2 -14 2 -43q0 -149 -84 -288l-16 4q25 47 66 155q14 60 14 164q-236 -139 -375 -186q-78 -27 -170 -27q-127 0 -227 68q-115 75 -115 196q0 275 479 275
q172 0 273.5 -67.5t150.5 -227.5l146 53q84 23 192 23q180 0 300 -120t120 -300q0 -107 -55 -225q-31 -68 -121 -203q-84 -127 -117 -203q-20 -70 -20 -137q0 -121 86 -121q92 0 196 160q54 82 125 241q84 189 144 285q413 670 897 670q387 0 387 -275q-21 13 -23 13
q-33 245 -328 245q-303 0 -612 -395q-221 -283 -377 -663q-47 -115 -211 -504q-24 -58 -43 -90q125 -138 312 -263q364 -243 716 -243q281 0 467.5 174t186.5 452q0 207 -135.5 354.5t-339.5 147.5q-140 0 -234 -71q-104 -80 -104 -216q0 -231 280 -268q0 -22 -20 -22
q-127 0 -208 82t-81 208q0 146 113 236q104 84 254 84q221 0 360 -154.5t139 -380.5zM887 1223q-76 290 -404 290q-465 0 -465 -262q0 -114 111 -184q96 -61 217 -61q164 0 541 217zM1554 -305q-176 172 -280 242q-215 143 -461 143q-238 0 -405 -109q-199 -129 -199 -352
q0 -180 223 -289q180 -88 381 -88q320 0 551 207q115 102 190 246zM1900 1466q23 119 181 119q49 0 143 -28.5t143 -28.5q52 0 74 43l16 4q0 -82 -106 -115q-41 -12 -84 -12q-41 0 -88 14l-94 29q-47 14 -88 14q-56 0 -78 -39h-19z" />
    <glyph glyph-name="uni1EF9" unicode="&#x1ef9;" horiz-adv-x="784" 
d="M829 446q-45 -45 -270 -258l-149 -141q-56 -51 -185 -125l-116 -229q-154 -303 -351 -303q-69 0 -117.5 44t-48.5 113q0 121 158 217q105 64 330 136l86 172q-133 -101 -201 -101q-108 0 -108 138q0 61 34 127l166 311q27 49 58 49q14 0 40.5 -8t39.5 -8q8 0 35.5 28.5
t37.5 30.5l-250 -467q-32 -61 -32 -100q0 -58 28 -58q29 0 92 37q82 47 117 111l215 385q27 49 58 49q12 0 37.5 -8t35.5 -8q9 0 37.5 28.5t38.5 30.5l-135 -260q-104 -201 -266 -426q94 55 157 117q39 39 142 137l270 254zM74 -121q-240 -86 -316 -131q-149 -88 -149 -199
q0 -86 86 -86q94 0 221 170q59 80 158 246zM221 776q23 119 180 119q49 0 143.5 -28.5t143.5 -28.5q51 0 74 43l16 4q0 -82 -106 -115q-41 -12 -84 -12q-41 0 -88 14l-95 29q-47 14 -88 14q-55 0 -77 -39h-19z" />
    <glyph glyph-name="endash" unicode="&#x2013;" horiz-adv-x="0" 
 />
    <glyph glyph-name="emdash" unicode="&#x2014;" horiz-adv-x="0" 
 />
    <glyph glyph-name="quoteleft" unicode="&#x2018;" horiz-adv-x="358" 
d="M352 1237q0 82 99 115q28 10 67 10q150 0 150 -125q0 -90 -78 -172q-68 -70 -160 -111l-33 -6q-14 0 -14 13q0 14 33 30q43 19 88 58q55 45 59 81l-6 9q-57 -19 -76 -19q-129 0 -129 117z" />
    <glyph glyph-name="quoteright" unicode="&#x2019;" horiz-adv-x="453" 
d="M684 1362q16 0 16 -12q0 -11 -22 -19q-160 -94 -160 -149q0 -8 8 -8l31 8q31 8 45 8q51 0 88 -28.5t37 -80.5q0 -88 -104 -125q-29 -10 -62 -10q-63 0 -106 35t-43 94q0 129 168 240q71 47 104 47z" />
    <glyph glyph-name="quotesinglbase" unicode="&#x201a;" horiz-adv-x="532" 
d="M195 -143v286h143v-143z" />
    <glyph glyph-name="quotedblleft" unicode="&#x201c;" horiz-adv-x="483" 
d="M819 1135q0 -84 -96 -115q-31 -10 -70 -10q-149 0 -149 125q0 88 80 172q65 69 157 108l33 6q14 0 14 -10q0 -14 -32 -33q-43 -18 -88 -55q-56 -45 -60 -82l6 -8q60 16 78 16q127 0 127 -114zM1178 1137q0 -58 -52.5 -92.5t-111.5 -34.5q-150 0 -150 125q0 90 78 172
q64 67 160 108l35 6q10 0 12 -8q0 -18 -35 -31q-45 -20 -88 -55q-49 -43 -57 -84l6 -8q49 18 74 18q129 0 129 -116z" />
    <glyph glyph-name="quotedblright" unicode="&#x201d;" horiz-adv-x="483" 
d="M844 1331q6 84 104 109q31 8 70 6q147 -10 139 -137q-6 -88 -90 -164q-70 -66 -166 -98l-33 -5q-14 0 -14 11q2 16 35 30q45 15 92 50q57 43 66 79l-7 7q-59 -13 -77 -11q-127 9 -119 123zM487 1354q5 57 62 92q49 29 110 24q148 -10 140 -135q-6 -90 -90 -166
q-70 -63 -166 -98l-35 -4q-12 0 -12 10q2 17 36 29q48 14 91 49q53 39 65 80l-8 6q-49 -12 -74 -10q-127 8 -119 123z" />
    <glyph glyph-name="quotedblbase" unicode="&#x201e;" horiz-adv-x="852" 
d="M514 -143v286h143v-143zM195 -143v286h143v-143z" />
    <glyph glyph-name="daggerdbl" unicode="&#x2021;" horiz-adv-x="1257" 
d="M678 -41v-430h-105v430h-409v92h409v885h-409v92h409v430h105v-430h416v-92h-416v-885h416v-92h-416z" />
    <glyph glyph-name="ellipsis" unicode="&#x2026;" horiz-adv-x="1229" 
d="M1110 102q0 -47 -36 -83.5t-83 -36.5q-86 0 -86 100q0 47 36 85t83 38q86 0 86 -103zM700 102q0 -47 -35.5 -83.5t-82.5 -36.5q-86 0 -86 100q0 47 35.5 85t82.5 38q86 0 86 -103zM291 102q0 -47 -36 -83.5t-83 -36.5q-86 0 -86 100q0 47 36 85t83 38q86 0 86 -103z" />
    </font>
</defs>
</svg>
