<?xml version="1.0" standalone="no"?>
<!DOCTYPE svg PUBLIC "-//W3C//DTD SVG 1.1//EN" "http://www.w3.org/Graphics/SVG/1.1/DTD/svg11.dtd" >
<svg xmlns="http://www.w3.org/2000/svg" xmlns:xlink="http://www.w3.org/1999/xlink" version="1.1">
<metadata>
Created by FontForge 20170731 at Sun Jan 13 12:48:07 2013
 By Aleksey,,,
Copyright (c) 2008 Canada Type. All rights reserved.
</metadata>
<defs>
<font id="UVFChikita" horiz-adv-x="944" >
  <font-face 
    font-family="UVF Chikita"
    font-weight="400"
    font-stretch="normal"
    units-per-em="1000"
    panose-1="2 0 5 5 0 0 0 2 0 2"
    ascent="800"
    descent="-200"
    x-height="368"
    cap-height="816"
    bbox="-155 -337 2122 1177"
    underline-thickness="33"
    underline-position="-99"
    unicode-range="U+0020-1EDDE"
  />
<missing-glyph horiz-adv-x="320" 
 />
    <glyph glyph-name=".notdef" horiz-adv-x="320" 
 />
    <glyph glyph-name=".null" horiz-adv-x="0" 
 />
    <glyph glyph-name="nonmarkingreturn" horiz-adv-x="320" 
 />
    <glyph glyph-name="space" unicode=" " horiz-adv-x="320" 
 />
    <glyph glyph-name="exclam" unicode="!" horiz-adv-x="247" 
d="M227 728q6 -4 6 -7q0 -5 -6 -9q-23 -20 -36.5 -45t-21.5 -60.5t-12 -83.5t-8 -113q-2 -29 -3 -54.5t-1 -47.5q0 -51 2.5 -78.5t2.5 -33.5q0 -8 -3.5 -12t-14.5 -4q-8 0 -16.5 36t-15.5 92t-11.5 122.5t-4.5 128.5q0 101 17 145.5t60 44.5q14 0 33.5 -5t32.5 -16zM72 54
q0 27 19.5 46.5t46.5 19.5q28 0 47.5 -19.5t19.5 -46.5q0 -28 -19.5 -47.5t-47.5 -19.5q-27 0 -46.5 19.5t-19.5 47.5z" />
    <glyph glyph-name="quotedbl" unicode="&#x22;" horiz-adv-x="272" 
d="M59 510l-19 288h69l-17 -288h-33zM181 510l-19 288h70l-17 -288h-34z" />
    <glyph glyph-name="numbersign" unicode="#" horiz-adv-x="1067" 
d="M184 157q0 69 -0.5 116t-1.5 89t-1.5 88t-0.5 112q0 71 -22.5 104.5t-60.5 33.5q-28 0 -54.5 -12.5t-47.5 -33.5q-3 -2 -6 -2t-3 3q0 4 7 16q18 28 35.5 45t34.5 26.5t33 12.5t32 3q21 0 44 -6.5t42 -25.5t31.5 -54t12.5 -91v-25.5v-37t0.5 -37t0.5 -26.5q6 32 16 67.5
t24 71t33.5 67.5t45 57t58 39.5t73.5 14.5q40 0 68.5 -15t46.5 -41.5t26 -63.5t8 -82q0 -55 -8.5 -123.5t-18.5 -137t-18.5 -130.5t-8.5 -103q0 -33 2.5 -60.5t11 -50t25.5 -41t47 -33.5q5 -3 16.5 -5t11.5 -8t-14 -6t-24 2q-14 4 -40 18.5t-51 47.5t-43.5 88.5t-18.5 140.5
q0 49 6.5 98.5t14 99t14 99t6.5 100.5q0 38 -4.5 70t-15.5 55.5t-29.5 37t-46.5 13.5q-30 0 -56.5 -17t-49 -46t-41 -67t-31 -79.5t-19.5 -85t-7 -82.5q0 -26 0.5 -52t0.5 -53q0 -24 -3.5 -56t-9.5 -65.5t-14.5 -65.5t-19.5 -57q-4 -8 -11.5 -23.5t-16.5 -31t-17.5 -27
t-14.5 -11.5q-4 0 -4 5t3.5 12t6.5 16q9 30 12.5 84t3.5 117zM922 487q-14 0 -24 -5q-2 -1 -7 -1q-2 0 -3 -1q-8 0 -8 11q0 9 13.5 15t32.5 6q22 0 42.5 -10t35.5 -27.5t24 -41.5t9 -51q0 -31 -9 -59t-28 -49t-49 -33.5t-71 -12.5q-69 0 -112.5 35.5t-43.5 102.5
q0 33 12.5 61.5t31.5 50t41.5 33.5t42.5 12q6 0 11 -1.5t5 -9.5q0 -3 -5 -5t-11 -4q-17 -9 -30.5 -24t-22.5 -33.5t-13.5 -38.5t-4.5 -37q0 -54 26 -86t73 -32q25 0 44 11t31.5 28t18.5 38.5t6 42.5q0 39 -7.5 61.5t-17 34.5t-19.5 15.5t-14 3.5zM775 101q-10 0 -14.5 4.5
t-4.5 9.5t4.5 10t14.5 5h214q10 0 14.5 -5t4.5 -10t-4.5 -9.5t-14.5 -4.5h-214z" />
    <glyph glyph-name="dollar" unicode="$" horiz-adv-x="556" 
d="M304 12q0 -6 -5 -9t-10 -3t-10 3t-5 9v56q-37 0 -75 9t-69 27t-50.5 45.5t-19.5 65.5q0 17 6.5 34.5t20.5 32t35 23.5t51 9q6 0 16.5 -1.5t10.5 -8.5q0 -6 -11.5 -7t-25 -6.5t-24.5 -20.5t-11 -49q0 -29 12.5 -52.5t33 -40.5t46.5 -27.5t54 -12.5v307q-29 11 -55 22
t-47 22q-26 13 -48 28t-38 33.5t-25 42t-9 53.5q0 51 20.5 86t52.5 57.5t71.5 33.5t77.5 14v61q0 6 4.5 9t10.5 3q5 0 10 -3t5 -9v-60q37 0 74.5 -8.5t68.5 -26.5t50.5 -45.5t19.5 -65.5q0 -17 -6.5 -34.5t-20 -31.5t-35 -23t-51.5 -9q-6 0 -16.5 1t-10.5 8q0 6 11 6
t24.5 5.5t25 21t11.5 51.5q0 28 -12.5 51.5t-32.5 41t-46.5 28t-53.5 12.5v-294q28 -11 54.5 -21t47.5 -22q25 -14 47 -30t38.5 -36t25.5 -46.5t9 -60.5q0 -51 -20.5 -85.5t-53 -57t-72 -33.5t-76.5 -14v-58zM448 210q0 32 -12 57.5t-32 46t-46 36.5t-54 30v-294q30 1 56 9
t45.5 23t31 37.5t11.5 54.5zM130 647q0 -32 12 -56t31.5 -42.5t45.5 -33.5t55 -27v282q-30 -1 -56.5 -8.5t-46 -22.5t-30.5 -38t-11 -54z" />
    <glyph glyph-name="percent" unicode="%" horiz-adv-x="714" 
d="M199 -28q-2 -7 -11 -7q-5 0 -11.5 4t-6.5 11q0 2 2 4l362 832q2 6 11 6q5 0 11.5 -4t6.5 -10q0 -3 -1 -4zM229 728q-7 0 -13 -1t-11 -3q-2 0 -6 -2q-2 -1 -3 -1q-9 0 -9 11q0 9 14 15.5t33 6.5q22 0 42 -10t35 -28t24 -42t9 -51q0 -31 -9 -59t-28 -49t-48.5 -33.5
t-70.5 -12.5q-34 0 -63 9.5t-50 27t-32.5 43.5t-11.5 59t12.5 61.5t32 49.5t42 33t42.5 12q6 0 11 -1t5 -8q0 -5 -5 -6.5t-11 -4.5q-17 -9 -30 -24t-22 -33t-13.5 -38t-4.5 -38q0 -54 25.5 -86t72.5 -32q25 0 44 11t32 28t19 38.5t6 42.5q0 39 -7.5 61.5t-18 34.5
t-20.5 15.5t-14 3.5zM572 253q-14 0 -24 -5q-2 0 -3 -0.5t-3 -0.5q-2 -1 -3 -1q-9 0 -9 11q0 9 14 15t33 6q22 0 42.5 -10t35.5 -27.5t24 -41.5t9 -51q0 -31 -9 -59t-28 -49t-48.5 -33.5t-70.5 -12.5q-69 0 -113.5 36t-44.5 103q0 33 12.5 61.5t32 49.5t42 33t42.5 12
q6 0 11.5 -1t5.5 -8q0 -5 -5.5 -7t-11.5 -4q-17 -9 -30 -24t-22 -33t-13.5 -38t-4.5 -38q0 -54 25.5 -86t73.5 -32q25 0 44 11t31.5 28t18.5 38.5t6 42.5q0 39 -7.5 61.5t-18 34.5t-20.5 15.5t-14 3.5z" />
    <glyph glyph-name="ampersand" unicode="&#x26;" horiz-adv-x="700" 
d="M596 0q-69 0 -144 71q-117 -71 -225 -71q-42 0 -77 10t-60 28t-38.5 43.5t-13.5 56.5q0 49 43 104t133 117q-70 107 -70 185q0 38 17.5 70t48 55.5t71 36.5t85.5 13q63 0 101.5 -27t38.5 -66q0 -88 -207 -230q54 -78 107.5 -143.5t107.5 -119.5q43 38 63.5 75t20.5 72
q0 32 -19 50.5t-51 18.5q-23 0 -37.5 -9t-21.5 -9q-5 0 -5 7q0 6 7 15.5t19.5 19t29.5 16t36 6.5q45 0 69.5 -21.5t24.5 -56.5q0 -86 -124 -196q18 -18 35.5 -34.5t33.5 -29t30.5 -20.5t28.5 -9q22 0 22 -10q0 -5 -18 -11.5t-62 -6.5zM442 80q-57 59 -113 124t-106 140
q-101 -62 -101 -141q0 -33 16 -63t42.5 -53.5t60.5 -37.5t70 -14q25 0 58.5 11t72.5 34zM292 407q70 47 106 91t36 90q0 54 -31 82t-83 28q-21 0 -41 -8.5t-35.5 -23.5t-25.5 -35t-10 -43q0 -32 19.5 -78.5t64.5 -102.5z" />
    <glyph glyph-name="quotesingle" unicode="'" horiz-adv-x="150" 
d="M59 510l-19 288h69l-17 -288h-33z" />
    <glyph glyph-name="parenleft" unicode="(" horiz-adv-x="269" 
d="M332 846q-100 -83 -147 -216t-47 -323q0 -188 46.5 -321t147.5 -218v-16q-128 93 -193 232.5t-65 322.5q0 180 65 320t193 233v-14v0z" />
    <glyph glyph-name="parenright" unicode=")" horiz-adv-x="296" 
d="M-36 -242q100 83 147 216t47 322q0 187 -47 320t-147 218v18q128 -94 193.5 -233.5t65.5 -322.5q0 -180 -66 -319.5t-193 -233.5v15v0z" />
    <glyph glyph-name="asterisk" unicode="*" horiz-adv-x="359" 
d="M173 594q-21 -10 -35 -24t-24.5 -27t-20 -22t-23.5 -9q-13 0 -21.5 9t-8.5 21q0 17 10.5 24t28 11.5t40.5 9.5t48 19q-30 20 -51.5 23t-32.5 5q-42 6 -42 36q0 12 8.5 21t21.5 9q12 0 21.5 -8.5t20.5 -21t25 -27t35 -25.5v10q0 18 -4 33t-8.5 27t-8 22.5t-3.5 19.5
q0 14 9 24t22 10t22 -10t9 -24q0 -9 -4 -19.5t-8.5 -22.5t-8 -27t-3.5 -33v-10q21 10 34.5 24t24 27t20.5 22t24 9q13 0 21 -9t8 -21q0 -17 -10.5 -24t-28 -11.5t-40 -9.5t-47.5 -19q30 -20 51.5 -23t32.5 -5q42 -6 42 -36q0 -12 -8.5 -21t-21.5 -9q-12 0 -21.5 8.5
t-20.5 21t-25 27t-35 26.5v-9q0 -19 3.5 -34t8 -27.5t8.5 -23t4 -19.5q0 -14 -8.5 -24t-22.5 -10t-22.5 10t-8.5 24q0 9 3.5 19.5t8 22.5t8.5 27t4 33v10v0z" />
    <glyph glyph-name="plus" unicode="+" horiz-adv-x="468" 
d="M220 191h-161q-9 0 -14 4.5t-5 9.5t5 10t14 5h161v160q0 9 4.5 14.5t9.5 5.5t9.5 -5.5t4.5 -14.5v-160h161q9 0 14 -5t5 -10t-5 -9.5t-14 -4.5h-161v-161q0 -9 -4.5 -14t-9.5 -5t-9.5 5t-4.5 14v161z" />
    <glyph glyph-name="comma" unicode="," horiz-adv-x="302" 
d="M112 -80q16 1 32 8t29 18.5t21.5 26t8.5 31.5q0 5 -0.5 9.5t-2.5 9.5q-8 -18 -25 -28.5t-35 -10.5q-21 0 -40.5 18.5t-19.5 49.5q0 10 4.5 22t12.5 22t20.5 16.5t28.5 6.5q20 0 34.5 -8t23.5 -21.5t13.5 -31t4.5 -36.5q0 -29 -11.5 -49.5t-28 -34t-35 -20.5t-31.5 -7z
" />
    <glyph glyph-name="hyphen" unicode="-" horiz-adv-x="332" 
d="M59 191q-9 0 -14 4.5t-5 9.5t5 10t14 5h213q11 0 15.5 -5t4.5 -10t-4.5 -9.5t-15.5 -4.5h-213z" />
    <glyph glyph-name="period" unicode="." horiz-adv-x="293" 
d="M80 54q0 27 19 46.5t47 19.5q29 0 47.5 -19.5t18.5 -46.5q0 -28 -18.5 -47.5t-47.5 -19.5q-28 0 -47 19.5t-19 47.5z" />
    <glyph glyph-name="slash" unicode="/" horiz-adv-x="416" 
d="M41 -28q-4 -7 -11 -7q-5 0 -11.5 4t-6.5 11q0 2 1 4l363 832q2 6 10 6q6 0 12 -4t6 -10q0 -3 -1 -4l-362 -832v0z" />
    <glyph glyph-name="zero" unicode="0" horiz-adv-x="784" 
d="M690 444q0 97 -21 170.5t-55.5 123t-79.5 74t-94 24.5q-54 0 -107 -28t-95.5 -80t-68.5 -125.5t-26 -164.5q0 -86 15 -166.5t47.5 -142t83.5 -98.5t123 -37q67 0 119 39t87.5 102.5t53.5 144.5t18 164zM32 373q0 115 33.5 205.5t88 153t124 95.5t141.5 33
q65 0 125.5 -28.5t107.5 -84t75.5 -138t28.5 -190.5q0 -85 -25 -165t-72 -142.5t-115 -100t-155 -37.5q-75 0 -140.5 26.5t-113.5 77.5t-75.5 125.5t-27.5 169.5z" />
    <glyph glyph-name="one" unicode="1" horiz-adv-x="270" 
d="M172 690v-67.5t0.5 -88.5t0.5 -99t0.5 -99t0.5 -90v-70q0 -39 -7 -78t-18 -70.5t-25.5 -51t-29.5 -19.5q-8 0 -8 5q0 8 1.5 19.5t4 30.5t4 47.5t1.5 70.5v58t-0.5 76.5t-0.5 86.5t-0.5 87.5t-0.5 79.5v63q0 54 11.5 104t27 88t30.5 60.5t22 22.5t7 -5q0 -2 -4.5 -10.5
t-10.5 -35.5q-5 -22 -5.5 -52.5t-0.5 -62.5z" />
    <glyph glyph-name="two" unicode="2" horiz-adv-x="600" 
d="M556 577q0 -68 -24.5 -138t-64.5 -136t-90 -125t-102 -105q30 -9 58 -22t54.5 -25.5t51.5 -21t48 -8.5q18 0 33 3t26.5 7t19 7t9.5 3q9 0 9 -8q0 -12 -12 -21.5t-32.5 -16.5t-47 -10.5t-55.5 -3.5q-26 0 -52.5 8.5t-52.5 21t-52 26.5t-50 25q-47 -36 -88.5 -56.5
t-70.5 -20.5q-26 0 -39.5 11t-13.5 28q0 13 11 28.5t34 28t57.5 21t82.5 8.5h18t17 -2q42 42 82 100t71.5 127.5t51 150t19.5 167.5q0 57 -14 98t-36.5 68t-51.5 40t-59 13t-58 -12t-50.5 -35.5t-36 -57.5t-13.5 -77q0 -34 18 -61.5t49 -39.5q13 -5 25 -7t12 -7
q0 -8 -10.5 -9.5t-16.5 -1.5q-42 0 -70 14t-45 34.5t-24 43.5t-7 40q0 46 18.5 82t49.5 61t71.5 38t85.5 13q48 0 94.5 -16.5t82.5 -51.5t58 -89.5t22 -130.5zM71 -18q25 0 59 17.5t72 49.5q-22 7 -42 7q-30 0 -52.5 -5.5t-37.5 -14t-22.5 -18t-7.5 -17.5q0 -19 31 -19z" />
    <glyph glyph-name="three" unicode="3" horiz-adv-x="596" 
d="M143 152q-42 0 -64.5 -22t-22.5 -53q0 -20 10 -40.5t32 -37t55 -27t80 -10.5q40 0 80.5 13t72 42.5t51.5 78t20 119.5q0 36 -9.5 71t-27.5 65t-42.5 54t-54.5 38q-32 -11 -62 -16.5t-53 -5.5q-24 0 -37.5 5t-13.5 14q0 12 11.5 19t28 11t35 5t33.5 1q32 0 65 -6
q35 29 51.5 69.5t16.5 85.5q0 60 -14.5 101t-38.5 66.5t-54.5 37t-61.5 11.5q-29 0 -56 -8.5t-48 -24t-33.5 -36.5t-12.5 -46q0 -12 2.5 -19t5 -12t5 -9t2.5 -9q0 -9 -9 -9q-8 0 -13 6.5t-8 16t-4.5 20t-1.5 17.5q0 31 18 56.5t48 43.5t68.5 27.5t79.5 9.5q44 0 87 -12
t77 -37.5t55 -66t21 -97.5q0 -35 -12 -63.5t-32 -52.5t-46.5 -42.5t-54.5 -32.5q36 -12 67.5 -32.5t55.5 -48t38 -62.5t14 -77q0 -80 -27 -136t-70.5 -91.5t-97.5 -51.5t-107 -16q-52 0 -90 12t-63 31.5t-37.5 43t-12.5 46.5q0 35 28 61.5t80 26.5q8 0 24 -1.5t32 -5
t28 -9.5t12 -15q0 -4 -2.5 -4.5t-4.5 -0.5q-8 0 -10 1q-21 12 -39.5 16t-41.5 4zM209 431q52 0 92 20q-26 9 -53 9q-8 0 -19.5 -1.5t-22.5 -3.5t-19 -5.5t-8 -6.5q0 -5 8 -8.5t22 -3.5z" />
    <glyph glyph-name="four" unicode="4" horiz-adv-x="724" 
d="M336 -49q-4 -1 -7.5 -2t-5.5 -1q-13 0 -13 8q0 2 2.5 4.5t10.5 4.5q23 9 42.5 29.5t34.5 48.5t24.5 62t11.5 69q-35 9 -66.5 20.5t-60 23.5t-55 22t-51.5 16q-27 -42 -60.5 -67t-72.5 -25q-26 0 -40 11t-14 28q0 12 9.5 26.5t30 27t51.5 21.5t74 11q7 28 10.5 60
t4.5 63.5t1.5 61t1.5 53.5q3 46 18 98.5t42 102t65.5 90.5t89.5 64q2 2 7 2q7 0 7 -7q0 -6 -7 -12q-39 -21 -65.5 -54.5t-42.5 -75t-23 -89t-7 -95.5q0 -66 -16 -135.5t-45 -126.5q60 -4 111 -20t104 -33q0 19 0.5 42t1 44.5t1 39t0.5 26.5q0 91 16.5 153.5t38.5 101
t44.5 55t35.5 16.5q5 0 5 -2q0 -4 -9 -11t-17 -18q-17 -21 -24 -73.5t-10 -120t-5.5 -140t-11.5 -132.5q29 -7 60.5 -12t66.5 -5q18 0 33 3t26.5 7t19 7t9.5 3q9 0 9 -8q0 -12 -19.5 -21.5t-46.5 -16.5t-56.5 -10.5t-48.5 -3.5q-35 0 -63 3q-20 -91 -60 -142.5t-97 -69.5z
M68 186q41 0 65 20.5t39 53.5h-15q-29 0 -51.5 -5.5t-37.5 -14t-23 -18t-8 -17.5q0 -19 31 -19z" />
    <glyph glyph-name="five" unicode="5" horiz-adv-x="755" 
d="M224 601q0 27 -2 49.5t-6 41.5q-36 1 -63 11t-44.5 23.5t-26 28.5t-8.5 27q0 24 18.5 35.5t46.5 11.5q18 0 37.5 -5t39 -15t38 -25t32.5 -35q23 12 47.5 25.5t54 25t65.5 19t81 7.5q20 0 49.5 -4t56.5 -11t46.5 -17t19.5 -22q0 -6 -10 -6q-2 0 -9.5 3t-19 6t-26.5 6
t-33 3q-56 0 -99 -8t-79 -20t-66 -25t-58 -23q5 -14 7.5 -29.5t2.5 -31.5q0 -53 -19 -97t-46 -76q29 11 66.5 18.5t77.5 7.5q67 0 127.5 -21t105.5 -60t71.5 -94.5t26.5 -124.5q0 -56 -21.5 -101.5t-65.5 -78.5t-110.5 -51t-156.5 -18q-73 0 -135.5 14.5t-108.5 40.5t-72 62
t-26 80q0 36 15 63.5t41 45.5t60.5 27.5t73.5 9.5q42 0 73 -11t51 -28.5t30 -38.5t10 -42q0 -32 -22 -56t-67 -24q-11 0 -17.5 3.5t-6.5 8.5q0 3 4.5 6t13.5 3q26 0 38.5 19t12.5 44q0 16 -5.5 32.5t-17.5 30t-30 22t-43 8.5q-28 0 -51 -11t-39 -29.5t-24.5 -42.5t-8.5 -49
q0 -41 18 -72t50.5 -51.5t77.5 -31t99 -10.5q62 0 109.5 22.5t79.5 58.5t48.5 81.5t16.5 92.5q0 54 -14 101t-42.5 81t-71 53.5t-100.5 19.5q-61 0 -110 -19t-83 -38q-7 -5 -11.5 -8t-8.5 -3q-6 0 -6 5t8 13q9 10 17 27.5t13.5 40t9 48t3.5 51.5zM186 721h12t11 1
q-14 48 -37 67t-42 19q-15 0 -24.5 -8t-9.5 -20q0 -7 6 -17t17 -19.5t28 -16t39 -6.5z" />
    <glyph glyph-name="six" unicode="6" horiz-adv-x="679" 
d="M559 745q-27 36 -62 53.5t-76 17.5q-48 0 -97 -26t-89.5 -79t-67 -134t-29.5 -191q16 41 43.5 72t61.5 52t73 31.5t79 10.5q57 0 101.5 -25.5t75 -67t46.5 -94t16 -107.5q0 -54 -16 -106t-48.5 -92.5t-82 -65t-117.5 -24.5q-85 0 -146.5 33.5t-101 90.5t-58 132
t-18.5 158q0 124 29.5 213t77 146t106 84t117.5 27q60 0 112 -25t87 -75q4 -5 5 -9t1 -7q0 -5 -5 -5q-8 0 -17 12zM368 522q-35 0 -70 -10.5t-66 -31.5t-55.5 -51.5t-38.5 -69.5q0 -75 14 -142.5t42.5 -118.5t72.5 -81t103 -30q46 0 81.5 23.5t59.5 62t36 87t12 99.5
q0 49 -11.5 96.5t-35 84.5t-59.5 59.5t-85 22.5z" />
    <glyph glyph-name="seven" unicode="7" horiz-adv-x="522" 
d="M206 418q21 80 54.5 159t74.5 139q-31 9 -60 23t-60 27.5t-65.5 23.5t-76.5 10q-36 0 -60.5 -9.5t-28.5 -9.5q-9 0 -9 7q0 12 19.5 22t47 17t57 10.5t49.5 3.5q35 0 63.5 -10t53 -24t48 -29t48.5 -26q31 38 63 61t64 23q27 0 40.5 -10.5t13.5 -27.5q0 -12 -9 -27.5
t-27 -29t-45.5 -23t-65.5 -9.5h-22q-28 -54 -49 -128.5t-34 -165.5h30q27 0 44 7.5t27 16t14.5 16t6.5 7.5q6 0 6 -7q0 -6 -6 -15t-18 -18t-30 -15.5t-41 -6.5h-35q-8 -57 -12 -116t-4 -122q0 -26 3.5 -52t9.5 -48.5t14 -40.5t17 -27q8 -7 8 -12q0 -3 -2 -4.5t-4 -1.5
q-4 0 -8.5 3t-11.5 8q-21 14 -42 33t-37.5 48.5t-27 70.5t-10.5 100q0 74 21 161h-33q-26 0 -43.5 -6.5t-29 -14.5t-17 -14.5t-8.5 -6.5t-6 1t-3 6t8 14t22 17.5t33.5 15t43.5 6.5h37zM490 815q-27 0 -52 -19t-48 -54q10 -3 20 -4t21 -1q22 0 39 6.5t28 15.5t17 19t6 18
q0 19 -31 19z" />
    <glyph glyph-name="eight" unicode="8" horiz-adv-x="649" 
d="M560 133q0 -56 -24.5 -93t-61.5 -59t-81 -31t-83 -9q-37 0 -75.5 8.5t-69.5 26.5t-50.5 46t-19.5 66q0 27 12 52t33 49t48.5 47.5t59.5 46.5q-44 19 -85.5 40.5t-74 49.5t-52.5 64.5t-20 86.5q0 62 28 123t79.5 109.5t124 78.5t161.5 30q11 0 32.5 -2.5t46.5 -10t51 -21
t47 -35t34.5 -52t13.5 -71.5q0 -47 -24.5 -91t-63.5 -86t-88 -82.5t-97 -79.5q39 -16 74.5 -33.5t63.5 -41t44.5 -54t16.5 -72.5zM94 586q0 -53 21 -90.5t54.5 -65t76.5 -47.5t88 -39q42 31 82 65t71.5 72.5t50.5 82.5t19 96q0 31 -13 63t-37.5 57.5t-60.5 41.5t-81 16
q-60 0 -110 -21.5t-86 -57t-55.5 -81t-19.5 -92.5zM482 83q0 36 -16.5 63t-44 49t-63.5 39.5t-75 34.5q-51 -45 -85.5 -89t-34.5 -88q0 -30 14 -54.5t36.5 -42.5t51.5 -27.5t58 -9.5q33 0 61.5 7t50.5 22t34.5 39t12.5 57z" />
    <glyph glyph-name="nine" unicode="9" horiz-adv-x="679" 
d="M120 80q27 -37 62 -54.5t76 -17.5q47 0 96 26t89.5 79t67 134t29.5 191q-16 -41 -43.5 -72t-61.5 -52t-73 -31.5t-78 -10.5q-57 0 -101.5 25.5t-75 67t-46 94t-15.5 107.5t15.5 106.5t48 92t82.5 65t118 24.5q85 0 146 -34t100.5 -91t58.5 -132t19 -157
q0 -124 -29.5 -213t-77 -146t-106.5 -84t-117 -27q-60 0 -112.5 25.5t-87.5 75.5q-6 10 -6 15q0 6 5 6q8 0 17 -12zM311 304q35 0 70 10.5t65.5 30.5t55.5 50t39 69q0 75 -14.5 143t-43 119.5t-71.5 81.5t-102 30q-47 0 -82.5 -23.5t-59.5 -62t-36 -87.5t-12 -100
q0 -50 11.5 -96.5t35 -83.5t59.5 -59t85 -22z" />
    <glyph glyph-name="colon" unicode=":" horiz-adv-x="293" 
d="M80 54q0 27 19 46.5t47 19.5q29 0 47.5 -19.5t18.5 -46.5q0 -28 -18.5 -47.5t-47.5 -19.5q-28 0 -47 19.5t-19 47.5zM80 294q0 27 19 46.5t47 19.5q29 0 47.5 -19.5t18.5 -46.5q0 -28 -18.5 -47.5t-47.5 -19.5q-28 0 -47 19.5t-19 47.5z" />
    <glyph glyph-name="semicolon" unicode=";" horiz-adv-x="302" 
d="M80 294q0 27 19 46.5t47 19.5q29 0 47.5 -19.5t18.5 -46.5q0 -28 -18.5 -47.5t-47.5 -19.5q-28 0 -47 19.5t-19 47.5zM112 -80q16 1 32 8t29 18.5t21.5 26t8.5 31.5q0 5 -0.5 9.5t-2.5 9.5q-8 -18 -25 -28.5t-35 -10.5q-21 0 -40.5 18.5t-19.5 49.5q0 10 4.5 22t12.5 22
t20.5 16.5t28.5 6.5q20 0 34.5 -8t23.5 -21.5t13.5 -31t4.5 -36.5q0 -29 -11.5 -49.5t-28 -34t-35 -20.5t-31.5 -7z" />
    <glyph glyph-name="less" unicode="&#x3c;" horiz-adv-x="454" 
d="M47 258q64 27 126 64q53 32 110 77t100 104q2 2 2.5 3.5t2.5 1.5l1 -1q1 -1 1.5 -2t1.5 -2q6 -8 14 -24t8 -34q0 -19 -12 -35q-11 -14 -36 -31t-56 -35t-65 -35t-62.5 -30.5t-48 -22t-22.5 -9.5q3 -1 22.5 -8t48.5 -18.5t62.5 -26.5t65 -31t56 -31.5t35.5 -28.5
q12 -17 12 -37q0 -21 -7.5 -39t-14.5 -27q-2 -4 -6 -4l-4 4q-47 49 -100.5 88.5t-101.5 68.5t-83.5 47.5t-47.5 25.5q-9 7 -9 17q0 8 7 11z" />
    <glyph glyph-name="equal" unicode="=" horiz-adv-x="468" 
d="M59 112q-9 0 -14 4.5t-5 9.5t5 9.5t14 4.5h350q9 0 14 -4.5t5 -9.5t-5 -9.5t-14 -4.5h-350zM59 265q-9 0 -14 4.5t-5 10.5q0 5 5 9.5t14 4.5h350q9 0 14 -4.5t5 -9.5q0 -6 -5 -10.5t-14 -4.5h-350z" />
    <glyph glyph-name="greater" unicode="&#x3e;" horiz-adv-x="454" 
d="M407 258q7 -3 7 -11q0 -5 -3 -9.5t-7 -7.5q-12 -7 -47.5 -25.5t-83 -47.5t-101 -68.5t-100.5 -88.5q-4 -4 -5 -4q-3 0 -6 4q-6 9 -13.5 27t-7.5 39q0 9 2.5 19t9.5 18q11 13 35.5 28.5t56 31.5t65 31t62.5 26.5t48.5 18.5t22.5 8q-3 1 -22.5 9.5t-48 22t-62.5 30.5
t-65 35t-56 35t-36 31q-12 15 -12 35q0 18 8 34t13 24l5 5q2 0 2.5 -1.5t2.5 -3.5q21 -29 46.5 -55t53 -49t56 -42t54.5 -35q62 -37 126 -64z" />
    <glyph glyph-name="question" unicode="?" horiz-adv-x="493" 
d="M103 599q0 -28 6.5 -44t14.5 -24.5t14.5 -12.5t6.5 -8q0 -6 -15 -10t-29 -4q-20 0 -36 8t-27 21t-17.5 30t-6.5 35q0 34 18 60.5t47.5 44.5t68 27.5t79.5 9.5q45 0 90 -11.5t80 -35t57 -58.5t22 -81q0 -38 -19.5 -71.5t-48.5 -64t-62.5 -57.5t-62.5 -49.5t-48.5 -42
t-19.5 -34.5q0 -18 6 -32.5t6 -16.5q0 -4 -5 -4t-11.5 9t-12.5 22t-10 28t-4 26q0 17 14 35t35.5 38.5t46.5 44t46.5 52t35.5 63t14 76.5q0 27 -11.5 53.5t-32 47t-48 33t-58.5 12.5q-29 0 -51.5 -10t-38.5 -26t-24.5 -37t-8.5 -42zM150 54q0 27 19.5 46.5t47.5 19.5
q27 0 46.5 -19.5t19.5 -46.5q0 -28 -19.5 -47.5t-46.5 -19.5q-28 0 -47.5 19.5t-19.5 47.5z" />
    <glyph glyph-name="at" unicode="@" horiz-adv-x="1020" 
d="M972 275q0 -61 -21.5 -113t-54.5 -89.5t-73.5 -59t-78.5 -21.5q-32 0 -57.5 15t-42.5 49q-46 -36 -89.5 -49t-74.5 -13q-92 0 -142.5 50.5t-50.5 134.5q0 30 15.5 65.5t45.5 65.5t72.5 50t96.5 20q35 0 73 -11t69 -43q11 30 23 49.5t22 19.5t10 -10q0 -3 -5.5 -14
t-11.5 -33.5t-11.5 -58.5t-5.5 -91q0 -35 8.5 -63.5t21.5 -49t29 -32t31 -11.5q16 0 36 15.5t38 46.5t30 76t12 105q0 66 -23.5 127.5t-69 109t-113.5 76t-158 28.5q-93 0 -163.5 -35t-118 -92.5t-71.5 -132t-24 -153.5t24 -153t71.5 -131.5t118 -92t163.5 -34.5
q82 0 139 21t94 48.5t57 55t29 41.5q16 22 36 22q11 0 17.5 -5t6.5 -13q0 -2 -9 -17.5t-27.5 -37.5t-48.5 -46.5t-72 -45.5t-97.5 -35t-124.5 -14q-121 0 -210 33t-147.5 91t-87.5 138t-29 175q0 93 29 173.5t87.5 139.5t147.5 92.5t210 33.5q114 0 199 -28.5t140.5 -78
t83 -116.5t27.5 -144zM623 167q0 29 8 67t21 74q-31 33 -64 43t-61 10q-49 0 -80.5 -19t-50 -46.5t-25.5 -58.5t-7 -55q0 -84 37 -124t92 -40q27 0 61.5 11t80.5 49q-5 18 -8.5 40t-3.5 49z" />
    <glyph glyph-name="A" unicode="A" horiz-adv-x="940" 
d="M889 505q0 -80 1.5 -153.5t1.5 -158.5q0 -39 -6.5 -78.5t-18 -71t-26 -51.5t-29.5 -20q-7 0 -7 5q0 9 1.5 21t4 31t4 47t1.5 69v34.5t-1 31.5q-33 -81 -79.5 -130.5t-99 -77t-106.5 -37t-102 -9.5q-39 0 -83.5 10t-87.5 30.5t-82.5 52t-69 73.5t-47.5 95.5t-18 118.5
q0 102 39.5 185.5t104 143t146.5 92.5t167 33q63 0 112 -14.5t85.5 -38t62 -53.5t41.5 -60.5t23 -58.5t7 -48v-2q9 34 20 62.5t21.5 49t20 32t15.5 11.5q7 0 7 -5q0 -2 -5 -10.5t-11 -35.5q-5 -21 -6 -51t-1 -64zM812 397q0 14 1 27.5t3 27.5q-12 -32 -33.5 -58t-49 -44
t-58.5 -27.5t-61 -9.5q-23 0 -49.5 8t-49.5 24.5t-38.5 42t-15.5 60.5q0 26 9.5 50.5t27 43t42 29.5t54.5 11q2 0 4 -3t2 -5q0 -5 -13.5 -10.5t-29 -18.5t-29 -37t-13.5 -66q0 -54 32.5 -80t78.5 -26q27 0 55.5 8t52 28t39 55.5t15.5 89.5q0 55 -24 102t-63 81t-89.5 53
t-103.5 19q-52 0 -99 -18.5t-86.5 -50.5t-71.5 -73.5t-54.5 -87.5t-34.5 -93.5t-12 -90.5q0 -87 24.5 -157t65.5 -119t95.5 -75.5t114.5 -26.5q46 0 101 16t106.5 51.5t94 93t62.5 141.5q-2 26 -2 53.5v61.5z" />
    <glyph glyph-name="B" unicode="B" horiz-adv-x="1019" 
d="M594 366q0 14 31.5 24t78.5 10q12 0 24.5 -1t25.5 -3q42 30 67 77.5t25 103.5q0 55 -24.5 98.5t-65 73.5t-94.5 46t-112 16q-73 0 -146 -26t-131.5 -82t-95.5 -143.5t-37 -210.5q0 -70 11 -134t33 -113t56 -78t80 -29q55 0 87 19.5t48.5 53t20.5 78.5t4 95q0 19 -0.5 39
t-0.5 40q0 100 22 170t51 114t57 64t39 20q8 0 8 -5q0 -4 -2 -6q-32 -36 -49 -78t-25 -86.5t-9.5 -91t-2.5 -91.5q-2 -114 -28 -183.5t-63.5 -107t-81.5 -50t-83 -12.5q-38 0 -87 20t-92.5 64t-73.5 113.5t-30 169.5q0 85 21.5 154t59.5 122.5t88.5 92.5t109 64.5t121 37.5
t124.5 12q76 0 145.5 -17t122.5 -49.5t84.5 -79t31.5 -105.5q0 -36 -10.5 -65.5t-28 -53t-40.5 -41.5t-48 -31q34 -9 66.5 -24t58 -38.5t40.5 -56t15 -75.5q0 -53 -22 -94.5t-59.5 -70t-86 -43t-102.5 -14.5q-27 0 -53 7.5t-46 23.5t-32 39.5t-12 55.5q0 7 3 20t13 13
q8 0 8 -9q0 -8 -1 -12t-1 -13q0 -17 6 -35t21 -33t39.5 -24.5t60.5 -9.5q34 0 60.5 18t44.5 46.5t27.5 63.5t9.5 68q0 38 -8 67t-22 51t-32.5 37t-38.5 24q-41 -14 -77 -19.5t-55 -5.5q-13 0 -27 5.5t-14 18.5zM638 359q49 0 90 21q-12 4 -24.5 5t-24.5 1q-28 0 -47 -6
t-19 -14q0 -5 8 -6t17 -1z" />
    <glyph glyph-name="C" unicode="C" horiz-adv-x="844" 
d="M820 176q1 6 8 6q11 0 11 -12q0 -3 -1.5 -7t-3.5 -7q-35 -65 -79 -104t-92.5 -60t-98.5 -28t-97 -7q-43 0 -92.5 9.5t-98 29t-93 51t-78.5 75.5t-54.5 101.5t-20.5 129.5q0 122 42.5 210t110.5 144.5t153 83.5t169 27q70 0 135 -17.5t114.5 -50.5t79 -81t29.5 -110
q0 -46 -18 -92t-54 -82.5t-90 -59.5t-126 -23q-32 0 -65 6t-60 20.5t-44 38.5t-17 59q0 27 13.5 52.5t36 46t52 32.5t62.5 12q8 0 11.5 -3t3.5 -6q0 -5 -16 -8.5t-35 -14t-35 -34t-16 -69.5q0 -26 11 -46.5t28.5 -34.5t40 -22t46.5 -8q26 0 56 12.5t56 38.5t43 65.5t17 93.5
q0 66 -21.5 116t-57.5 83.5t-83 50t-99 16.5q-67 0 -135 -27.5t-123 -83t-89.5 -138.5t-34.5 -194q0 -86 30.5 -155.5t79.5 -118.5t111 -75.5t125 -26.5q51 0 103 8.5t98.5 30.5t86 60t65.5 97z" />
    <glyph glyph-name="D" unicode="D" horiz-adv-x="1020" 
d="M316 -38q0 5 6.5 10t15.5 20t18 44.5t15 83.5h-1q-63 0 -124.5 18t-110.5 57t-79.5 99t-30.5 144q0 67 32 133t90.5 117.5t141.5 83.5t184 32q138 0 236 -37t161 -96.5t92.5 -134.5t29.5 -150q0 -50 -15.5 -101t-42 -98.5t-62.5 -89t-77.5 -72t-86.5 -48.5t-90 -18
q-27 0 -50.5 6.5t-45 14t-41.5 14t-41 6.5q-30 0 -50 -7t-33.5 -15t-21 -15t-13.5 -7t-6 6zM659 316q0 -39 -17.5 -71t-48 -56.5t-71 -40.5t-86.5 -23q-11 -41 -25 -73t-28 -46q14 5 37.5 11.5t49.5 6.5q35 0 57.5 -4t40 -8.5t33.5 -8.5t37 -4q46 0 90.5 18t80 60.5t57 112
t21.5 172.5q0 84 -18.5 148.5t-49.5 111.5t-71.5 78t-84.5 49.5t-88.5 26.5t-83.5 8q-71 0 -139.5 -19.5t-121.5 -63.5t-85.5 -114.5t-32.5 -172.5q0 -67 23 -117t59.5 -84.5t83 -53t94.5 -21.5q1 20 2.5 44t1.5 52q0 108 19 184t44.5 125t51 71.5t37.5 22.5q11 0 11 -7
q0 -4 -9 -11.5t-14 -12.5q-20 -22 -30.5 -57.5t-15.5 -77.5t-6 -87.5t-1 -87.5q0 -30 -6 -72t-17 -84q33 6 61.5 19.5t50 34.5t34 49.5t12.5 64.5q0 34 -14 55.5t-30.5 34t-30.5 17.5t-14 6q0 4 7 5.5t18 1.5q16 0 37.5 -5t41 -18t33 -34.5t13.5 -54.5z" />
    <glyph glyph-name="E" unicode="E" horiz-adv-x="672" 
d="M180 606q0 -54 32.5 -89t80.5 -53q17 4 33.5 6t33.5 2q9 0 25 -1t32 -4t27.5 -8.5t11.5 -14.5q0 -7 -7.5 -11t-18 -5.5t-22 -2t-20.5 -0.5q-22 0 -49.5 2.5t-56.5 8.5q-33 -17 -60.5 -44t-47 -60t-30.5 -69t-11 -70q0 -54 20.5 -94.5t52 -67.5t69.5 -40.5t73 -13.5
q39 0 75.5 10.5t65.5 31.5t46.5 52t17.5 72q0 25 -8.5 49t-24.5 42.5t-38.5 29.5t-50.5 11q-25 0 -43 -8.5t-30 -22t-17.5 -30.5t-5.5 -33q0 -24 12.5 -43t37.5 -19q18 0 18 -10q0 -4 -6 -8t-18 -4q-45 0 -67 24.5t-22 56.5q0 21 10 42.5t30 38.5t51.5 28t73.5 11
q39 0 73 -9.5t60 -27.5t41 -45.5t15 -63.5q0 -43 -25.5 -79.5t-67.5 -62.5t-96.5 -41t-112.5 -15q-75 0 -133 18t-98 51t-61 79t-21 102q0 41 17.5 78.5t46.5 69t67 56t79 40.5q-32 9 -61 23.5t-51 34.5t-35.5 46t-13.5 59q0 29 17 65t51.5 67.5t88 52.5t127.5 21
q37 0 72.5 -10t63 -28t44.5 -44t17 -58q0 -24 -11.5 -47.5t-32.5 -42.5t-50 -31t-63 -12q-9 0 -21 0.5t-22 3t-17 6t-7 9.5q0 9 9 9q5 0 15 -4.5t24 -4.5q26 0 43 12.5t27.5 31t15 40.5t4.5 41q0 26 -10.5 45.5t-27.5 33t-39 20t-44 6.5q-48 0 -81 -15.5t-53 -41.5t-29 -60
t-9 -70zM362 455q-17 0 -32 -3q20 -5 40.5 -7.5t39.5 -2.5q6 0 11 0.5t5 2.5q0 1 -6 3t-15.5 3.5t-21 2.5t-21.5 1z" />
    <glyph glyph-name="F" unicode="F" horiz-adv-x="678" 
d="M344 234q11 -2 13.5 -4.5t2.5 -5.5q0 -6 -13 -6q-48 0 -104.5 17t-105 50.5t-80.5 82.5t-32 113q0 60 27.5 121.5t77 111.5t119 81.5t153.5 31.5q62 0 129 -10t129.5 -22.5t117.5 -22.5t93 -10q34 0 58.5 4.5t43.5 14t35 25t32 38.5q2 3 6.5 9.5t9.5 6.5q2 0 4 -0.5
t2 -3.5q0 -2 -3 -14t-13.5 -28.5t-30 -35.5t-52 -34.5t-80.5 -26t-115 -10.5q-43 0 -99.5 9t-117 19.5t-120.5 19.5t-111 9q-41 0 -80.5 -15t-70.5 -44.5t-50 -72.5t-19 -100q0 -60 21 -110.5t55.5 -89.5t78.5 -64.5t89 -33.5zM455 368q2 87 21 146.5t43 96t48.5 52.5
t36.5 16q6 0 6 -2q0 -5 -9 -12t-17 -17q-12 -14 -18.5 -42.5t-10.5 -66t-5.5 -82.5t-3.5 -91q8 -1 16.5 -0.5t17.5 0.5q24 0 40.5 7.5t27 16t16 16t7.5 7.5q6 0 6 -9q0 -5 -6 -13.5t-18 -17t-30 -15.5t-41 -8q-11 -1 -20 -1h-17q-2 -51 -5 -100.5t-11 -90.5
q-20 -106 -60.5 -164.5t-102.5 -77.5q-10 -2 -14 -2q-12 0 -12 6t13 10q49 18 72 65.5t23 122.5q0 10 1 42.5t2.5 70.5t2.5 72t1 47h-27q-26 0 -43.5 -6.5t-29 -14.5t-17 -14.5t-8.5 -6.5t-5.5 1t-2.5 7q0 5 7.5 14t21.5 17.5t33.5 14.5t43.5 6h27z" />
    <glyph glyph-name="G" unicode="G" horiz-adv-x="919" 
d="M912 265q-22 -29 -33 -64.5t-16 -75.5t-7 -82.5t-6 -84.5q24 -2 48.5 -9.5t45 -21t33.5 -34t13 -50.5q0 -31 -13 -51t-29 -31.5t-29.5 -16t-14.5 -4.5q-3 0 -6.5 0.5t-3.5 5.5t9.5 9t20.5 13.5t20.5 28t9.5 51.5q0 10 -3.5 24.5t-14.5 29.5t-32 26.5t-56 15.5
q-2 -13 -3.5 -25.5t-3.5 -25.5q-6 -32 -26 -69t-49 -69t-65 -53t-73 -21q-51 0 -74.5 22t-23.5 56q0 27 16 58.5t46.5 59t75 48.5t101.5 29q3 41 8 86.5t14 73.5q-27 -39 -63 -71t-79 -55t-91.5 -36t-100.5 -13q-102 0 -180.5 28t-132 79t-81 122.5t-27.5 159.5
q0 98 42.5 180t113 141t161.5 91.5t189 32.5q31 0 70.5 -5.5t80.5 -18t80 -31.5t70 -46.5t49.5 -63.5t18.5 -81q0 -37 -17.5 -77t-51 -73t-84 -54t-116.5 -21q-47 0 -80 9.5t-53.5 25t-30 36t-9.5 42.5q0 25 11 50t29.5 44.5t43.5 32t53 12.5q9 0 15.5 -2.5t6.5 -9.5
q0 -4 -14.5 -8t-31.5 -14.5t-31.5 -31t-14.5 -57.5q0 -32 11.5 -52.5t29 -33t38 -17.5t37.5 -5q39 0 69.5 15t51.5 40.5t32 58t11 68.5q0 51 -20 95.5t-58.5 77t-94.5 51.5t-128 19q-69 0 -123 -19.5t-94.5 -52.5t-69 -75.5t-46.5 -87.5t-26 -90t-8 -82q0 -73 16 -129.5
t42.5 -98.5t59.5 -70.5t67 -46.5t66 -25.5t56 -7.5q49 0 98 9.5t94.5 34t87 66.5t76.5 108q8 15 20 32.5t25 32.5t26.5 24.5t24.5 9.5q7 0 7 -8q0 -1 -2 -7zM767 -92q0 7 0.5 15.5t1.5 18.5q-52 -8 -92.5 -28t-68.5 -46.5t-42.5 -55.5t-14.5 -53q0 -26 17 -43t52 -17
q42 0 69.5 20.5t44 51.5t24 67.5t9.5 69.5z" />
    <glyph glyph-name="H" unicode="H" horiz-adv-x="1081" 
d="M617 354q-2 -32 -3 -65.5t-1 -68.5q-1 -31 -7 -70t-18.5 -79.5t-30.5 -79t-42 -68.5t-54 -48.5t-66 -18.5q-39 0 -71.5 19.5t-56 52.5t-37 75t-13.5 87q0 47 16 93.5t52 85t93.5 65t139.5 34.5q0 54 3.5 108.5t13.5 107t28 102.5t47 95q-8 -3 -22 -8.5t-30.5 -11
t-35 -9.5t-34.5 -4q-25 0 -51 4t-54 9t-57.5 9t-60.5 4q-39 0 -72 -18.5t-57 -48t-37.5 -66t-13.5 -72.5q0 -29 10 -59.5t31 -55t52.5 -40.5t74.5 -16q63 0 104 34.5t44 103.5l1.5 13.5t9.5 4.5q7 0 7 -12q0 -47 -17.5 -83t-46 -60.5t-63.5 -37t-71 -12.5q-45 0 -81.5 15.5
t-62 42t-39 62.5t-13.5 77q0 15 6.5 40t20 53.5t36 57.5t54.5 52.5t74.5 38.5t97.5 15q30 0 57.5 -3.5t52.5 -7t49.5 -7t48.5 -3.5q35 0 65 13.5t53 30t38.5 30.5t21.5 14q4 0 4 -7q0 -14 -14.5 -25t-29.5 -26q-3 -3 -8 -17t-10 -32.5t-9 -40t-5 -40.5q-5 -79 -7 -156
t-4 -155q32 -1 63.5 -3t62.5 -4q1 54 12 112.5t32 114t53 105.5t74.5 88t96 60t118.5 22q34 0 64.5 -13.5t53.5 -36.5t36.5 -54t13.5 -67q0 -58 -31.5 -120.5t-87.5 -114.5t-135 -86t-173 -34h-55q0 -28 3 -65.5t11 -78t21.5 -80t35.5 -70.5t53 -50.5t74 -19.5
q30 0 50.5 7.5t34 17t20.5 17t9 7.5q9 0 9 -7q0 -5 -8.5 -15t-25.5 -20.5t-42.5 -18.5t-59.5 -8q-43 0 -78.5 18t-64 48.5t-49.5 70.5t-35.5 83t-22 86.5t-7.5 81.5q-34 3 -65.5 5.5t-60.5 4.5zM1115 846q-52 0 -94.5 -24t-75.5 -63.5t-57 -90.5t-40 -105t-24 -107.5
t-9 -97.5q17 -2 34 -2h35q69 0 135 24.5t118.5 68.5t84.5 106t32 137q0 76 -36 115t-103 39zM518 352q-80 -8 -134 -32.5t-87.5 -59.5t-48 -77t-14.5 -85t12.5 -83t33 -71t47 -49.5t55.5 -18.5q46 0 73.5 30t42 77.5t18.5 105t4 111.5q0 8 -0.5 17t-0.5 25t-0.5 42t-0.5 68z
" />
    <glyph glyph-name="I" unicode="I" horiz-adv-x="594" 
d="M448 731q-24 0 -44.5 7.5t-41.5 16.5t-44 16.5t-53 7.5q-52 0 -89.5 -16t-61.5 -43t-35 -63.5t-11 -76.5q0 -29 10 -61.5t31 -60.5t52.5 -46t74.5 -18q31 0 57 9.5t45 26t29.5 38.5t12.5 47q0 9 1 14t9 5t8 -12q0 -35 -15 -65t-40.5 -52t-58 -34.5t-68.5 -12.5
q-45 0 -82 17t-63.5 45.5t-40.5 66t-14 78.5q0 15 4 38t14 48.5t28 51.5t46.5 46.5t68.5 33.5t95 13q37 0 68 -6t58 -13.5t51 -13.5t48 -6q19 0 36 4t37 17l26 26t20 12q6 0 6 -7q0 -14 -14.5 -24.5t-30.5 -24.5q-3 -4 -6 -16t-5 -25.5t-3.5 -25.5t-2.5 -16l-12 -366
q-3 -107 -28.5 -182.5t-61 -123t-74 -69t-67.5 -21.5q-13 0 -13 12q0 2 1 6.5t5 4.5q51 0 82 26t48 75.5t23 122t6 166.5q0 57 2 114.5t10 112t23 103.5t42 90q-15 -6 -40.5 -11.5t-57.5 -5.5z" />
    <glyph glyph-name="J" unicode="J" horiz-adv-x="686" 
d="M604 -107q0 2 12.5 7.5t28 17.5t28 32.5t12.5 53.5q0 26 -12 43.5t-31.5 28.5t-44.5 16t-52 5q-1 -32 -7.5 -70.5t-19 -78t-30.5 -77t-42 -66.5t-53.5 -46.5t-64.5 -17.5q-45 0 -72 27t-27 81q0 32 15 69.5t44.5 73t73 65t100.5 45.5q0 12 0.5 23t0.5 20q1 52 3 109
t6 115t11.5 113.5t19 104t27.5 87.5t38 64q-13 -5 -32.5 -15.5t-54.5 -10.5q-30 0 -52 9t-44 19.5t-49 19.5t-68 9q-48 0 -85 -17.5t-62 -46t-37.5 -64t-12.5 -71.5q0 -46 14.5 -79.5t38.5 -56t54 -33.5t60 -11q26 0 51 8t44.5 24t31 39.5t11.5 53.5q0 14 10 14q11 0 11 -14
q0 -38 -15.5 -67t-40.5 -49t-57.5 -30t-66.5 -10q-36 0 -70.5 11.5t-62 34.5t-44 59t-16.5 84q0 43 16.5 86.5t48 78.5t77 56.5t104.5 21.5t95.5 -8.5t61 -18t42.5 -18t41 -8.5q22 0 42.5 12t36.5 26q4 4 9 10.5t10.5 12.5t10.5 10.5t9 4.5q7 0 7 -6q0 -11 -9.5 -22
t-20.5 -24q-13 -23 -22.5 -73.5t-16 -114.5t-10.5 -134.5t-6 -135t-3 -115.5t-1 -75q5 0 10.5 0.5t11.5 0.5q24 0 49.5 -5.5t46.5 -19t34.5 -35t13.5 -54.5q0 -25 -10 -46.5t-25 -37t-32 -24.5t-32 -9q-4 0 -6.5 3.5t-2.5 5.5zM314 -239q46 0 74 33.5t44 82.5t22 105.5
t8 102.5q-41 -12 -79 -34t-67 -53t-46.5 -69t-17.5 -81q0 -15 3 -30.5t10.5 -28t19.5 -20.5t29 -8z" />
    <glyph glyph-name="K" unicode="K" horiz-adv-x="952" 
d="M589 732q-38 -17 -68.5 -24.5t-56.5 -7.5q-40 0 -68.5 9.5t-52.5 21.5t-47.5 21.5t-51.5 9.5q-42 0 -74 -16.5t-53 -42.5t-32 -60t-11 -68q0 -33 10 -64t29.5 -55.5t49.5 -39t71 -14.5q31 0 57 9.5t44.5 26t29 38.5t12.5 47l1.5 13.5t9.5 4.5q7 0 7 -12q0 -35 -15 -65
t-40.5 -51.5t-58.5 -34t-69 -12.5q-48 0 -84 16t-60 43t-36.5 61.5t-12.5 71.5q0 41 15.5 81t47.5 72t80 51.5t113 19.5q36 0 70 -6.5t64.5 -15t58 -15t50.5 -6.5q20 0 47 5t47 18q14 14 26.5 26t20.5 12q5 0 5 -7q0 -14 -14.5 -25t-30.5 -25q-3 -4 -5.5 -15.5t-5 -25
t-3.5 -25.5t-1 -16l-12 -366q-2 -5 -2 -9.5v-9.5q45 28 79 71t61 94t50.5 107.5t49.5 111t56 103.5t70.5 86.5t93.5 60t125 22.5q5 0 16 -0.5t22.5 -2.5t20 -5.5t8.5 -10.5q0 -1 -1 -5t-6 -4t-22 4.5t-45 4.5q-76 0 -125.5 -38.5t-86.5 -99.5t-67 -135.5t-66.5 -147.5
t-86.5 -135.5t-125 -98.5q41 -21 71.5 -51t55.5 -63t47.5 -65t47 -58t53.5 -42t67 -16q17 0 31 6t28 6q9 0 9 -7q0 -10 -12.5 -16.5t-29 -10t-33 -4.5t-23.5 -1q-50 0 -86.5 15.5t-64.5 41t-50 57t-43 64.5t-43 64t-49 54q-10 -89 -37 -152.5t-60.5 -104t-68.5 -59
t-62 -18.5q-13 0 -13 12q0 4 1 8t5 4q44 0 73.5 20t47.5 58.5t26.5 95.5t10.5 131q-19 -4 -39.5 -5.5t-42.5 -1.5q-30 0 -45 8.5t-15 19.5q0 16 23.5 30t69.5 14q14 0 26.5 -1.5t24.5 -2.5v24q0 56 2 113.5t9.5 112t23 104t42.5 90.5zM438 236q20 0 38 2t35 6q0 7 0.5 13.5
t0.5 12.5q-23 6 -48 6q-34 0 -53 -8t-19 -17q0 -5 11 -10t35 -5z" />
    <glyph glyph-name="L" unicode="L" horiz-adv-x="668" 
d="M631 -28q13 0 30.5 3t21.5 3q2 0 4 -1t2 -3q0 -4 -11 -10q-32 -12 -67 -16t-69 -4q-56 0 -103.5 12t-89.5 28.5t-79.5 32t-73.5 23.5q-26 -38 -59.5 -65t-71.5 -27q-26 0 -40 11t-14 28q0 12 9.5 26.5t30 27t51.5 21.5t73 11q10 35 13.5 76t3.5 85q0 40 1.5 74t3.5 65.5
t5.5 63t7.5 66.5q4 38 15.5 80.5t30 83.5t45 79t62 66.5t79 45.5t97.5 17q37 0 80.5 -9.5t80.5 -31t62 -56.5t25 -86q0 -41 -18 -79t-48 -67t-69.5 -46.5t-83.5 -17.5q-23 0 -45 7.5t-39 21t-28 31.5t-11 40t8.5 40t21.5 31t28.5 20t28.5 7q3 0 8 -0.5t5 -3.5t-7.5 -9.5
t-16 -17t-16 -26t-7.5 -36.5q0 -19 7 -35.5t19 -28.5t27 -18.5t30 -6.5q30 0 55.5 13.5t44 38t28.5 59.5t10 79q0 32 -13.5 62.5t-37.5 54.5t-55.5 38.5t-67.5 14.5q-75 0 -123.5 -29t-77 -77t-39.5 -108.5t-11 -123.5q-3 -36 -6 -75.5t-6.5 -81t-8.5 -83t-11 -80.5
q-5 -27 -17 -61t-30 -66q57 -3 116 -19t113.5 -34t102.5 -33t84 -15zM64 -30q38 0 62 20t38 54h-12q-29 0 -51.5 -5.5t-37.5 -14t-23 -18t-8 -17.5q0 -19 32 -19z" />
    <glyph glyph-name="M" unicode="M" horiz-adv-x="962" 
d="M259 426q9 49 25.5 108.5t42 112t61 88t81.5 35.5q33 0 55 -25.5t34.5 -69.5t17.5 -102.5t5 -124.5q0 -15 -0.5 -29.5t-0.5 -28.5q8 35 17.5 77t22.5 84.5t30.5 82t40.5 70.5t53 49.5t68 18.5q30 0 51 -14.5t34.5 -41.5t19.5 -64t6 -82q0 -36 -3 -81.5t-7.5 -95
t-10 -99.5t-10 -96.5t-7.5 -86t-3 -67.5q0 -45 11 -79.5t29.5 -57.5t42.5 -34.5t49 -12.5q17 -2 23 -4t6 -6t-5.5 -8t-23.5 -4q-26 0 -63.5 15.5t-72 54.5t-58.5 106.5t-24 171.5q0 54 4.5 104t9.5 96.5t9.5 91t4.5 88.5q0 72 -17.5 114t-51.5 42q-24 0 -46 -27t-41 -69.5
t-34.5 -95t-27.5 -103.5t-20 -96t-11 -71q-11 -100 -17 -178.5t-8 -137.5q0 -6 -13 -8.5t-28 -2.5q-17 0 -32 2.5t-15 10.5q4 16 8 61.5t7.5 107.5t5.5 135t2 144q0 61 -2.5 116t-10 96.5t-20 66t-33.5 24.5q-26 0 -47 -22.5t-37.5 -58t-29 -80t-20.5 -88t-12 -82t-4 -62.5
q0 -103 -12.5 -173t-34.5 -120q-4 -8 -11.5 -23.5t-16.5 -31t-17.5 -27t-14.5 -11.5q-4 0 -4 5t3.5 12t6.5 16q9 31 12.5 85t3.5 116q0 69 -0.5 116t-1.5 89t-1.5 88t-0.5 112q0 72 -22.5 105t-60.5 33q-28 0 -54.5 -12.5t-47.5 -33.5q-3 -2 -6 -2t-3 3q0 4 7 16
q18 28 35.5 45t34.5 26.5t33 13t32 3.5q21 0 44 -6.5t42 -26t31.5 -54.5t12.5 -91v-29.5v-45.5t0.5 -45t0.5 -30z" />
    <glyph glyph-name="N" unicode="N" horiz-adv-x="688" 
d="M184 157q0 69 -0.5 116t-1.5 89t-1.5 88t-0.5 112q0 71 -22.5 104.5t-60.5 33.5q-28 0 -54.5 -12.5t-47.5 -33.5q-3 -2 -6 -2t-3 3q0 4 7 16q18 28 35.5 45t34.5 26.5t33 12.5t32 3q21 0 44 -6.5t42 -25.5t31.5 -54t12.5 -91v-25.5v-37t0.5 -37t0.5 -26.5q6 32 16 67.5
t24 71t33.5 67.5t45 57t58 39.5t73.5 14.5q40 0 68.5 -15t46.5 -41.5t26 -63.5t8 -82q0 -55 -8.5 -123.5t-18.5 -137t-18.5 -130.5t-8.5 -103q0 -33 2.5 -60.5t11 -50t25.5 -41t47 -33.5q5 -3 16.5 -5t11.5 -8t-14 -6t-24 2q-14 4 -40 18.5t-51 47.5t-43.5 88.5t-18.5 140.5
q0 49 6.5 98.5t14 99t14 99t6.5 100.5q0 38 -4.5 70t-15.5 55.5t-29.5 37t-46.5 13.5q-30 0 -56.5 -17t-49 -46t-41 -67t-31 -79.5t-19.5 -85t-7 -82.5q0 -26 0.5 -52t0.5 -53q0 -24 -3.5 -56t-9.5 -65.5t-14.5 -65.5t-19.5 -57q-4 -8 -11.5 -23.5t-16.5 -31t-17.5 -27
t-14.5 -11.5q-4 0 -4 5t3.5 12t6.5 16q9 30 12.5 84t3.5 117z" />
    <glyph glyph-name="O" unicode="O" 
d="M469 -50q-90 0 -170.5 24t-141.5 72t-96.5 119.5t-35.5 166.5q0 99 36 185.5t96 150t138 100.5t162 37q76 0 130.5 -15t91.5 -38t59 -51.5t33.5 -56t15 -50.5t3.5 -35q0 -55 -21 -97t-54 -70t-74 -42t-81 -14q-32 0 -60.5 8.5t-50.5 26t-35 43.5t-13 61q0 27 9.5 52.5
t27 45.5t42 32.5t54.5 12.5q2 0 4 -3t2 -5q0 -5 -11.5 -9.5t-25 -16.5t-24.5 -36.5t-11 -69.5q0 -27 10 -48.5t27 -36.5t38.5 -23t44.5 -8q27 0 53 11.5t46.5 36t33.5 63t13 92.5q0 55 -24 96.5t-63 69.5t-89.5 41.5t-103.5 13.5t-96 -19t-78 -50.5t-60.5 -72t-42.5 -83.5
t-25.5 -85.5t-8.5 -77.5q0 -87 22 -164.5t66 -136t109.5 -93t151.5 -34.5q82 0 148.5 36.5t113.5 97t72 139t25 161.5q0 40 -1.5 67.5t-5.5 50.5t-11.5 45.5t-20.5 52.5q-3 7 -11 19t-8 20q0 5 3 5q7 0 16.5 -7.5t18.5 -17.5t16 -20t9 -14q34 -54 47.5 -113.5t13.5 -113.5
q0 -85 -32 -162.5t-90.5 -136.5t-141 -94t-184.5 -35z" />
    <glyph glyph-name="P" unicode="P" horiz-adv-x="760" 
d="M307 188q-56 4 -107.5 29t-90.5 65t-62 93.5t-23 116.5q0 39 12.5 81.5t36.5 84t59.5 78.5t82 65.5t103 45t122.5 16.5q37 0 80 -5t86 -17t83 -33t70.5 -52t49 -74t18.5 -100q0 -51 -21 -98.5t-57 -83.5t-83.5 -58t-101.5 -22q-40 0 -68.5 12t-46.5 31t-26 42.5t-8 46.5
q0 38 21 65.5t57 27.5q4 0 7 -2t3 -4q0 -7 -15 -7q-11 0 -20.5 -7t-17.5 -18t-12.5 -25.5t-4.5 -30.5q0 -19 6.5 -37.5t22 -33.5t41.5 -24.5t65 -9.5q33 0 63.5 16.5t53.5 45t37 67t14 82.5q0 79 -30.5 134t-76 89t-97 49t-93.5 15q-95 0 -157 -35.5t-98 -89t-50.5 -116.5
t-14.5 -118q0 -70 17 -120t44 -84t60.5 -52t66.5 -24q-1 67 -1.5 130t-0.5 135q0 82 16.5 139.5t38.5 93.5t43 52.5t30 16.5q7 0 7 -5q0 -9 -8 -15t-17 -25t-17 -58.5t-8 -114.5q0 -69 -3 -139.5t-3 -148.5q0 -15 -1 -29t-3 -28q24 5 44 14t34 17.5t22.5 15t10.5 6.5
t4.5 -1.5t2.5 -9.5q0 -2 -9.5 -9.5t-26 -16.5t-38.5 -17.5t-46 -14.5q-9 -59 -31.5 -109t-51 -86t-61 -56.5t-62.5 -20.5q-10 0 -10 7q0 8 12 8q17 0 40 12.5t43.5 39.5t35 68.5t14.5 100.5v31z" />
    <glyph glyph-name="Q" unicode="Q" horiz-adv-x="978" 
d="M469 -31q-90 0 -170.5 22t-141.5 67t-96.5 114t-35.5 164q0 99 35 185t95.5 150t142 101t175.5 37q76 0 132 -15t94.5 -38t62.5 -52t37.5 -56t18 -50t4.5 -35q0 -56 -18.5 -98t-48.5 -69.5t-68.5 -41.5t-78.5 -14q-32 0 -60.5 8.5t-50.5 25.5t-35 43.5t-13 61.5
q0 27 9.5 52.5t27 45.5t42 32.5t54.5 12.5q2 0 4 -3t2 -6q0 -5 -11.5 -9.5t-25 -16.5t-24.5 -36.5t-11 -69.5q0 -27 10 -48t27 -36t38.5 -23t44.5 -8q27 0 50.5 11.5t41.5 36t28.5 63t10.5 92.5q0 55 -26.5 96t-69 68.5t-96 41t-106.5 13.5q-58 0 -105 -19t-83 -51.5
t-62 -76t-43 -91.5t-25 -98.5t-8 -97.5q0 -174 88 -269.5t261 -95.5q74 0 143 29q-29 20 -54.5 39.5t-52.5 35t-57 25t-69 9.5q-23 0 -38 -5.5t-24.5 -12t-15 -12t-8.5 -5.5q-6 0 -6 3q0 10 12 22.5t33 23.5t48 18.5t57 7.5q37 0 70.5 -9t64 -24t59.5 -34t58 -39
q39 29 70.5 67.5t54 83t34.5 94t12 101.5q0 40 -1.5 68t-5.5 51t-11.5 45t-20.5 52q-3 7 -11.5 19t-8.5 19q0 5 4 5q7 0 16.5 -7.5t18.5 -17.5t16 -19.5t9 -13.5q33 -54 47 -113.5t14 -112.5t-14.5 -103t-42 -93.5t-66 -80.5t-86.5 -65q52 -36 107 -64.5t120 -28.5
q11 0 11 -6q0 -3 -5 -5.5t-12 -4t-14 -2t-10 -0.5q-50 0 -91 6t-75 16t-61.5 23t-50.5 27q-44 -15 -91 -23.5t-99 -8.5z" />
    <glyph glyph-name="R" unicode="R" horiz-adv-x="890" 
d="M960 -35q-81 0 -141 17.5t-105.5 46.5t-79 67t-60.5 78.5t-50 80.5t-48 74h-21q-18 0 -35.5 1.5t-34.5 5.5q0 -37 -1 -72t-4 -65q27 5 52.5 14t47.5 25q2 1 5 2t7 1q6 0 6 -5t-7 -12q-29 -18 -57.5 -26.5t-55.5 -13.5q-7 -56 -24.5 -100.5t-43.5 -75.5t-59.5 -47.5
t-71.5 -16.5q-4 0 -16.5 1t-12.5 6q0 6 6 6q80 0 112 49t32 138v14.5t1 22.5q-54 4 -104 26t-88 58.5t-61 87t-23 113.5q0 41 11 85.5t34.5 87t59 81.5t85 68t112.5 46t142 17q85 0 147 -25.5t102.5 -64t60 -83.5t19.5 -83q0 -61 -22.5 -106t-59.5 -76.5t-84.5 -50.5
t-97.5 -27q51 -52 97.5 -113.5t95.5 -115t105 -89t127 -35.5q14 0 14 -7q0 -10 -13 -10zM446 731q-18 -16 -29.5 -46.5t-17.5 -70.5t-8 -87t-3 -96q32 -8 57 -24q20 -12 38.5 -26.5t36.5 -31.5q63 12 100.5 41t57 64.5t25.5 72t6 65.5q0 45 -17.5 88.5t-50.5 77t-80 54.5
t-106 21q-73 0 -133.5 -29.5t-104 -80.5t-67.5 -120.5t-24 -148.5q0 -41 8 -84t28 -79t53.5 -61t85.5 -32l6 164q-25 13 -39.5 27.5t-14.5 26.5q0 11 16 16.5t39 7.5q6 109 28.5 173.5t60.5 100.5q9 9 20.5 17.5t22.5 15.5t20 11t13 4q2 0 4 -2.5t2 -4.5q0 -5 -12.5 -11
t-20.5 -13zM386 352q17 -5 30 -7.5t21 -2.5h14t13 1q-16 22 -35 39t-43 28v-58zM307 380v25t1 23q-9 -1 -22.5 -4t-13.5 -14q0 -7 10 -14.5t25 -15.5z" />
    <glyph glyph-name="S" unicode="S" horiz-adv-x="594" 
d="M313 -59q-37 0 -75 8.5t-69.5 26.5t-51.5 46t-20 66q0 17 7 39.5t24 42.5t44.5 34t69.5 14q7 0 17.5 -1.5t10.5 -8.5q0 -5 -12 -7.5t-25 -7.5q-30 -11 -48 -39t-18 -62q0 -30 14 -54.5t36.5 -42.5t51 -27.5t57.5 -9.5q33 0 62 7t51 22t34.5 39t12.5 57q0 40 -20 69
t-53 52t-75 42t-85.5 38t-85.5 40t-75 49t-53 64.5t-20 86.5q0 62 28 123t79.5 109.5t124.5 78.5t162 30q11 0 32 -2.5t46 -10t50.5 -21t47 -35t35 -52t13.5 -71.5q0 -38 -17.5 -72t-45.5 -59.5t-64.5 -40.5t-73.5 -15q-17 0 -38.5 6t-40 18t-31 30.5t-12.5 43.5q0 21 8 39
t20 31.5t27 21t29 7.5t14 -5q0 -4 -8.5 -10t-13.5 -12q-11 -12 -14 -25t-3 -26q0 -17 8.5 -34t21 -30.5t28.5 -22t31 -8.5q25 0 43.5 12.5t30.5 33.5t18 48t6 56q0 31 -13 63t-37.5 57.5t-60 41.5t-81.5 16q-60 0 -110 -21.5t-85.5 -57t-55.5 -81t-20 -92.5q0 -52 20 -89
t53 -64t74.5 -47t85.5 -38t85.5 -36.5t74.5 -42.5t53 -57t20 -79q0 -56 -24.5 -93t-62 -59t-81 -31t-82.5 -9z" />
    <glyph glyph-name="T" unicode="T" horiz-adv-x="642" 
d="M344 234q11 -2 13.5 -4.5t2.5 -5.5q0 -6 -13 -6q-48 0 -104.5 17t-105 50.5t-80.5 82.5t-32 113q0 60 27.5 121.5t77 111.5t119 81.5t153.5 31.5q62 0 129 -10t129.5 -22.5t117.5 -22.5t93 -10q34 0 58.5 4.5t43.5 14t35 25t32 38.5q2 3 6.5 9.5t9.5 6.5q2 0 4 -0.5
t2 -3.5q0 -2 -3 -14t-13.5 -28.5t-30 -35.5t-52 -34.5t-80.5 -26t-115 -10.5q-43 0 -99.5 9t-117 19.5t-120.5 19.5t-111 9q-41 0 -80.5 -15t-70.5 -44.5t-50 -72.5t-19 -100q0 -60 21 -110.5t55.5 -89.5t78.5 -64.5t89 -33.5zM366 -84q-10 -2 -14 -2q-12 0 -12 6t13 10
q49 18 72 65.5t23 122.5q0 7 0.5 24.5t1.5 41t1.5 49.5t1.5 50t1.5 42.5t0.5 26.5q0 92 18.5 154.5t43 101t49.5 55t38 16.5q6 0 6 -2q0 -5 -9 -12t-17 -17q-12 -15 -19 -46t-10.5 -72t-5.5 -89.5t-4 -98t-5.5 -97.5t-10.5 -87q-20 -106 -60.5 -164.5t-102.5 -77.5z" />
    <glyph glyph-name="U" unicode="U" horiz-adv-x="1064" 
d="M392 312q0 -54 20.5 -108.5t55.5 -98t81.5 -70.5t99.5 -27q44 0 84.5 8.5t76.5 35.5t68 77t60 134q-2 79 -8.5 159.5t-6.5 152.5q0 49 12 97.5t28.5 87t33.5 62t27 23.5q7 0 7 -6v-4q-16 -41 -19 -76.5t-3 -66.5q0 -45 3.5 -95.5t8 -103t8.5 -105t4 -102.5
q0 -64 -15.5 -123t-37 -104.5t-44 -73t-35.5 -27.5q-5 0 -5 4q0 2 1.5 4t2.5 4q23 49 31.5 111t8.5 131q-30 -83 -73.5 -132.5t-87.5 -75.5t-82 -33.5t-57 -7.5q-93 0 -160 26.5t-110 72t-64.5 105.5t-22.5 126q-56 2 -104 16t-82.5 41t-54 67.5t-19.5 96.5q0 50 21.5 102
t59 94t88 68.5t107.5 26.5q39 0 69 -5.5t57.5 -12t54.5 -12t59 -5.5q6 0 13 1t14 1q6 3 15.5 9t19 12.5t17.5 11t10 4.5q5 -1 7 -4t2 -5q0 -7 -16.5 -18t-44.5 -20q-36 -40 -67.5 -88t-56.5 -102t-40 -113.5t-18 -122.5q34 15 53.5 38t31 45t16.5 37.5t9 15.5q8 0 8 -5
q0 -15 -7.5 -36t-22.5 -42.5t-37.5 -42t-52.5 -33.5v-1zM89 538q0 -51 16 -90.5t43 -67.5t62 -43.5t74 -18.5q2 33 14.5 83.5t42.5 110t81 122.5t129 121q-18 -7 -41.5 -9.5t-40.5 -2.5q-25 0 -49.5 4t-49.5 9.5t-51.5 9.5t-55.5 4q-48 0 -81 -19t-53.5 -51.5t-30 -74.5
t-9.5 -87z" />
    <glyph glyph-name="V" unicode="V" horiz-adv-x="779" 
d="M1249 841q0 -36 -17 -65.5t-38.5 -50.5t-40.5 -33t-23 -12q-9 0 -9 11q0 4 16.5 13.5t37 26t37 41t16.5 58.5q0 39 -15.5 65.5t-40 42.5t-55.5 23t-62 7q-66 0 -114.5 -30.5t-83 -80.5t-57 -114t-36.5 -131t-22 -131.5t-12 -115.5q-5 -54 -17 -109t-30 -105t-42 -92.5
t-52 -70.5q-20 -21 -32 -32.5t-22 -11.5q-2 0 -2.5 1t-0.5 6q0 2 3.5 8t5.5 11q3 9 4 28.5t2 41.5t1 42v30q0 28 -2.5 74.5t-5.5 99t-5.5 104.5t-2.5 91q0 13 2.5 47t11 77.5t24 90t42.5 83.5q-20 -8 -60.5 -17.5t-87.5 -9.5q-42 0 -71.5 5.5t-54.5 12.5t-50 12.5t-59 5.5
q-36 0 -63 -15t-45.5 -39.5t-27.5 -56.5t-9 -66q0 -38 11 -75.5t33.5 -67t56 -48t78.5 -18.5q22 0 44 10t38.5 26t27 37t10.5 42q0 9 -3.5 14t-3.5 13q0 12 9 12t13 -9t4 -21q0 -72 -51.5 -113.5t-140.5 -41.5q-46 0 -80.5 17.5t-58 45.5t-35 62.5t-11.5 69.5q0 25 5.5 54
t19 58t35.5 56t54.5 47.5t76.5 33t102 12.5q22 0 48.5 -6.5t55 -14t57.5 -14t57 -6.5q27 0 53 8.5t52 22.5q2 0 10.5 6t12.5 6q3 0 5.5 -3t2.5 -4q0 -8 -5.5 -10t-7.5 -6q-27 -36 -35 -92.5t-8 -120.5q0 -52 3 -94t6.5 -81t6.5 -77.5t3 -82.5q0 -54 -5.5 -110.5
t-25.5 -116.5q17 27 34 64.5t31 82.5t24.5 96.5t15.5 105.5q11 137 38 251.5t72.5 197t110.5 128.5t151 46q75 0 121.5 -41.5t46.5 -120.5z" />
    <glyph glyph-name="W" unicode="W" horiz-adv-x="992" 
d="M721 614q0 17 1 34t4 32q-19 -56 -27.5 -116.5t-14 -122t-10.5 -122t-17.5 -117t-36 -107t-64.5 -91.5q-21 -21 -32.5 -33t-21.5 -12q-4 0 -4 7q0 3 4 9.5t6 11.5q3 9 4 28t2 41t1 42v30q0 28 -2.5 74.5t-6 98.5t-6 104.5t-2.5 92.5q0 12 2.5 42.5t11 69.5t24.5 82t42 80
q-20 -8 -60.5 -18t-86.5 -10q-42 0 -69 5.5t-49.5 12.5t-45 12.5t-56.5 5.5q-36 0 -62 -12.5t-42.5 -34.5t-24.5 -51.5t-8 -63.5q0 -49 16.5 -86t42.5 -62t57 -38t61 -13q43 0 74 26.5t31 80.5q0 8 -3 13t-3 12q0 13 10 13q8 0 12.5 -8.5t4.5 -21.5q0 -40 -13.5 -69.5
t-36.5 -49t-53 -29.5t-62 -10q-35 0 -70 12.5t-63 37.5t-45.5 62t-17.5 87q0 37 13.5 79.5t46.5 79t89.5 60.5t142.5 24q22 0 44.5 -6t46.5 -13.5t50 -13.5t54 -6q27 0 53 8.5t51 22.5q5 3 12 7.5t11 4.5t6 -3.5t2 -4.5q0 -8 -5 -10t-8 -6q-27 -36 -35 -80.5t-8 -109.5
q0 -52 3 -94t6.5 -80.5t6.5 -76.5t3 -82q0 -54 -5 -111t-26 -117q32 38 48.5 93.5t25 121t14.5 136.5t15.5 139t28 129.5t53.5 107.5q6 10 13.5 19t15 15.5t13 10t7.5 3.5q5 0 6.5 -3.5t1.5 -4.5q0 -5 -4 -11t-9 -18t-9 -32.5t-4 -55.5q0 -56 11.5 -116t25.5 -122t25.5 -126
t11.5 -128q0 -42 -6 -85t-22 -89q17 27 34 64.5t31 82.5t24.5 96.5t15.5 105.5q11 137 35.5 247.5t67 188.5t105 120.5t149.5 42.5q75 0 121.5 -41.5t46.5 -120.5q0 -36 -17.5 -65.5t-39 -50.5t-40.5 -33t-22 -12q-10 0 -10 11q0 4 17 13.5t37 26t37 41t17 58.5
q0 39 -15.5 65.5t-40.5 42.5t-55.5 23t-61.5 7q-66 0 -113.5 -29t-80.5 -76t-53.5 -108t-33 -125.5t-19 -127t-10.5 -113.5q-5 -54 -17 -109t-30 -105t-42 -92.5t-52 -70.5q-20 -21 -32 -32.5t-22 -11.5q-2 0 -2.5 1t-0.5 6q0 2 3.5 8t5.5 11q5 18 10 48t5 62q0 52 -10 118
t-21.5 137.5t-21.5 143.5t-10 135z" />
    <glyph glyph-name="X" unicode="X" horiz-adv-x="1114" 
d="M480 402q10 0 23.5 -1t28.5 -3v5q0 94 -19 161.5t-50.5 110.5t-73 63t-87.5 20q-48 0 -83.5 -11t-61 -28t-42 -36t-27 -36t-16 -28t-8.5 -11q-8 0 -8 9q0 7 8.5 23.5t24.5 36.5t39.5 41t53 38.5t65 28.5t76.5 11q17 0 51.5 -5.5t74.5 -26t78 -60.5t61 -110
q31 63 65 105.5t73.5 68t85 36.5t99.5 11q41 0 80.5 -10.5t71 -34t50.5 -60.5t19 -90q0 -60 -31 -107.5t-82 -80.5t-117.5 -50.5t-137.5 -17.5q-38 0 -74.5 4t-73.5 9v-21q0 -61 19.5 -124t54.5 -114.5t82.5 -84t104.5 -32.5q45 0 78 12t56.5 30t39 39.5t25 39.5t14 30
t6.5 12q7 0 8 -4t1 -8q0 -11 -14.5 -40.5t-44 -61.5t-75 -56.5t-107.5 -24.5q-61 0 -110.5 18.5t-87 52t-63 79.5t-37.5 101q-17 -55 -49 -102t-75.5 -81.5t-96.5 -54t-112 -19.5q-54 0 -92 12.5t-62 33.5t-35.5 47.5t-11.5 53.5q0 26 9.5 50.5t26.5 43.5t42 30.5t57 11.5
q24 0 43.5 -7.5t32.5 -18.5t20 -25.5t7 -27.5q0 -4 -1 -9.5t-6 -5.5t-7 5q-8 32 -27.5 45t-44.5 13q-21 0 -40 -11t-33.5 -28.5t-22.5 -40t-8 -44.5q0 -21 8 -40.5t25 -34.5t44.5 -24t66.5 -9q68 0 124 31t96 85.5t63 128t25 157.5q-14 2 -27 2.5t-26 0.5q-55 0 -90 -7
t-57 -18t-34.5 -24t-22.5 -26q-8 -9 -15 -9q-2 0 -2 2t1 5t5 8q10 14 24 28.5t38 26.5t60.5 20t93.5 8zM947 793q-72 0 -131 -37t-101.5 -95.5t-68 -130t-30.5 -140.5q38 -5 76.5 -8.5t69.5 -3.5q73 0 132 20t100.5 57t63.5 89.5t22 116.5q0 60 -36.5 96t-96.5 36z" />
    <glyph glyph-name="Y" unicode="Y" horiz-adv-x="778" 
d="M630 444q0 51 9 102.5t23.5 97t32 82.5t35.5 58q14 16 32 30.5t29 14.5q7 0 7 -3q0 -2 -5.5 -12t-10.5 -21q-16 -34 -33.5 -177t-17.5 -396q-1 -57 -7 -118t-18 -121q47 -11 79.5 -39t32.5 -72q0 -39 -18.5 -62.5t-36.5 -23.5q-8 0 -8 8q0 4 5.5 8t12 10.5t12 18.5
t5.5 33q0 39 -25.5 63t-63.5 35q-13 -56 -33.5 -106.5t-49 -88.5t-65.5 -60.5t-84 -22.5q-38 0 -59.5 28t-21.5 67q0 48 19 85t50.5 63t71.5 41t81 20q6 70 12 164q-54 -81 -128 -127t-172 -46q-57 0 -108 22t-89.5 63.5t-60.5 101.5t-22 137q0 74 16.5 142.5t45.5 131
t68.5 120t85.5 110.5q-41 -15 -61 -18t-35 -3q-43 0 -74.5 13t-52 34.5t-30.5 48.5t-10 55q0 27 9 52.5t26 46t42 32.5t58 12q21 0 42 -6.5t38 -19t27.5 -30t10.5 -39.5q0 -18 -7 -18q-1 0 -1 1q-1 0 -1 2q0 19 -8.5 34.5t-21.5 26t-30 16t-33 5.5q-22 0 -41 -12t-33 -31.5
t-22 -44t-8 -49.5q0 -22 7 -42.5t23 -36.5t41 -25.5t61 -9.5q10 0 26 2t33 7.5t33 14t28 21.5l43 45q4 4 9 4q8 0 8 -6q0 -2 -3.5 -6t-8.5 -9t-9.5 -10t-7.5 -8q-47 -55 -80 -120.5t-54 -137.5t-30.5 -148.5t-9.5 -152.5q0 -61 15.5 -112t46.5 -88t77 -58t107 -21
q22 0 49.5 8t56.5 26.5t59.5 48t60.5 73.5q2 61 3.5 129t3.5 143zM475 -294q57 0 87 67t45 195q-36 -4 -70.5 -17t-62 -36t-44 -56t-16.5 -76q0 -35 16 -56t45 -21z" />
    <glyph glyph-name="Z" unicode="Z" horiz-adv-x="926" 
d="M281 388q23 0 60 -8q60 63 121 117.5t113.5 104t92.5 94.5t58 89q-29 -26 -79 -35.5t-100 -9.5q-45 0 -79.5 14t-67.5 30.5t-69 30.5t-83 14q-42 0 -73 -16t-52 -42t-31 -59t-10 -68q0 -33 9.5 -65t28 -56.5t45.5 -40t62 -15.5q21 0 40 7.5t34.5 20.5t26.5 28.5t16 32.5
q7 26 14 26q8 0 8 -19t-14.5 -43.5t-39.5 -46t-57.5 -36.5t-68.5 -15q-41 0 -71.5 14t-50.5 38t-30.5 55.5t-10.5 66.5q0 46 17.5 94t53 86t87.5 62.5t121 24.5q44 0 79 -14t68 -31.5t67 -31.5t76 -14q18 0 39 1t41.5 6t39 14.5t31.5 26.5q4 5 10 16t11 11q3 0 6.5 -1
t3.5 -5q0 -5 -3 -15.5t-7 -21.5t-8 -20.5t-5 -13.5q-23 -58 -55 -112.5t-71 -106t-82 -99.5t-88 -93q16 -4 30 -5.5t25 -1.5q34 0 56 8t36.5 17.5t22 17.5t11.5 8q6 0 6 -8q0 -6 -8 -16t-25 -19.5t-43 -17t-61 -7.5q-34 0 -67 6q-48 -48 -94.5 -91.5t-86.5 -84t-71.5 -77.5
t-49.5 -70q43 37 82.5 50.5t88.5 13.5q52 0 98 -16t92 -34.5t95 -34.5t106 -16q21 0 46 9t46 27.5t35.5 47t14.5 66.5q0 36 -12 64.5t-32.5 48t-48.5 30t-59 10.5q-54 0 -84 -38q-24 -27 -30.5 -41t-15.5 -14q-3 0 -4.5 3.5t-1.5 8.5q0 10 12 30t35.5 40t58.5 35t81 15
q45 0 75.5 -14.5t49 -37t26.5 -50t8 -53.5q0 -45 -21.5 -85.5t-56.5 -70.5t-80 -48t-93 -18q-83 0 -142 14.5t-104 32.5t-81 32.5t-75 14.5q-18 0 -49.5 -9.5t-63.5 -34.5q-14 -10 -20.5 -20t-13.5 -10q-1 0 -3.5 2t-2.5 7q0 1 6 19.5t17.5 47t28 64t37.5 70.5
q32 53 68 99.5t76 89.5q-13 2 -23.5 4t-20.5 2q-26 0 -47.5 -6.5t-37 -15t-25.5 -15t-13 -6.5q-2 0 -5 1t-3 6t11.5 14t30 17.5t42 15t47.5 6.5z" />
    <glyph glyph-name="bracketleft" unicode="[" horiz-adv-x="238" 
d="M157 115q0 -33 0.5 -63t5.5 -52q7 -27 11.5 -35.5t4.5 -10.5q0 -4 -7 -4q-8 0 -23 22.5t-30.5 60t-27 87.5t-11.5 104v357q0 54 11.5 104t27 88t30.5 60.5t23 22.5q7 0 7 -5q0 -2 -4.5 -10.5t-11.5 -35.5q-5 -22 -5.5 -52.5t-0.5 -62.5v-575z" />
    <glyph glyph-name="backslash" unicode="\" horiz-adv-x="416" 
d="M13 804q-1 1 -1 4q0 6 6.5 10t11.5 4q8 0 10 -6l363 -832q1 -2 1 -4q0 -7 -6 -11t-12 -4q-8 0 -10 7z" />
    <glyph glyph-name="bracketright" unicode="]" horiz-adv-x="238" 
d="M80 690q0 32 -0.5 62.5t-5.5 52.5q-6 27 -10.5 35.5t-4.5 10.5q0 5 7 5t22 -22.5t30.5 -60.5t27 -88t11.5 -104v-357q0 -54 -11.5 -104t-27 -87.5t-30.5 -60t-22 -22.5t-7 4q0 2 4.5 10.5t10.5 35.5q5 22 5.5 52t0.5 63v575z" />
    <glyph glyph-name="asciicircum" unicode="^" horiz-adv-x="592" 
d="M289 714q4 7 11 7q11 0 17 -8q7 -12 25.5 -47.5t48 -83.5t69 -101.5t87.5 -100.5q4 -3 4 -4q0 -4 -4 -6q-9 -7 -27 -14.5t-39 -7.5q-9 0 -19 3t-18 9q-13 11 -28.5 35.5t-31.5 55.5t-31 65t-26.5 62.5t-19 48t-7.5 22.5q-1 -3 -9.5 -22.5t-22 -47.5t-30.5 -62t-35 -65
t-35 -56t-31 -36q-17 -12 -35 -12t-34 7.5t-24 14.5q-4 3 -4 4q0 2 4 4q29 21 55 46.5t49 53t42 56t35 54.5q37 62 64 126z" />
    <glyph glyph-name="underscore" unicode="_" horiz-adv-x="484" 
d="M19 -14q-10 0 -14.5 4.5t-4.5 9.5t4.5 9.5t14.5 4.5h445q11 0 15.5 -4.5t4.5 -9.5t-4.5 -9.5t-15.5 -4.5h-445z" />
    <glyph glyph-name="grave" unicode="`" horiz-adv-x="258" 
d="M103 583q23 -42 55 -80t60 -64l-12 -13q-35 10 -77.5 36t-88.5 68q5 9 13 17.5t17 16t18 13t15 6.5z" />
    <glyph glyph-name="a" unicode="a" horiz-adv-x="548" 
d="M474 -18q-26 0 -48.5 16.5t-37.5 48.5q-47 -36 -91 -50t-75 -14q-46 0 -82 13.5t-61 38t-38 58.5t-13 75q0 31 15.5 66.5t45.5 66t73 50.5t97 20q34 0 72.5 -11.5t68.5 -43.5q11 29 23.5 49t22.5 20q3 0 6 -3.5t3 -5.5q0 -4 -5.5 -15t-11.5 -33.5t-11.5 -58.5t-5.5 -90
q0 -35 8.5 -64t22 -49.5t29.5 -32t31 -11.5q26 0 38.5 15.5t26.5 45.5q2 2 5 5.5t8 3.5q6 0 6 -9q0 -5 -6.5 -21t-21 -34t-38 -32t-56.5 -14zM234 8q14 0 29.5 2.5t33 9t38 18t43.5 30.5q-6 18 -9.5 40.5t-3.5 48.5q0 28 8 67t21 74q-31 33 -64 42.5t-61 9.5
q-49 0 -80.5 -19t-50 -46.5t-25.5 -58t-7 -54.5q0 -85 37 -124.5t91 -39.5z" />
    <glyph glyph-name="b" unicode="b" horiz-adv-x="510" 
d="M71 143v67t-0.5 86.5t-1 96.5t-1 97.5t-0.5 88v69.5q0 39 6 74.5t16.5 63t25.5 43.5t32 16q7 0 7 -5q0 -2 -5.5 -9.5t-9.5 -27.5q-3 -22 -5 -56t-2 -68q0 -23 0.5 -64t1.5 -91t2 -104.5t2 -105.5q43 32 83.5 44.5t69.5 12.5q46 0 82 -13.5t61 -38t38 -58.5t13 -75
q0 -31 -15.5 -66.5t-45.5 -66t-73.5 -50.5t-98.5 -20q-32 0 -70.5 11.5t-68.5 41.5q-17 -30 -35 -44.5t-27 -14.5q-8 0 -8 5q0 2 6 10.5t11 35.5q5 21 7.5 52t2.5 63zM280 346q-27 0 -61 -11t-80 -46q1 -42 1 -76v-57q0 -61 -19 -102q31 -32 63.5 -41t59.5 -9q49 0 81 19
t50 46.5t25 58t7 53.5q0 85 -36.5 125t-90.5 40z" />
    <glyph glyph-name="c" unicode="c" horiz-adv-x="392" 
d="M340 179q-15 -15 -24 -15t-9 12q0 10 6 20q8 12 9.5 26t1.5 26q0 17 -7 33.5t-19.5 29.5t-29.5 21t-36 8q-37 0 -63 -16t-42 -41.5t-23.5 -58.5t-7.5 -67q0 -32 7.5 -61t24.5 -51t44 -35.5t67 -13.5q31 0 60.5 12.5t50.5 28.5q26 19 37 35.5t16 16.5q7 0 7 -6t-14 -23.5
t-39 -36t-59 -33t-74 -14.5q-44 0 -80.5 11t-63 32.5t-41 53t-14.5 71.5q0 33 13.5 71t39.5 70t62.5 53.5t83.5 21.5q72 0 110.5 -28.5t38.5 -73.5q0 -23 -9.5 -43.5t-23.5 -35.5z" />
    <glyph glyph-name="d" unicode="d" horiz-adv-x="498" 
d="M443 143q0 -32 2 -63t7 -52q6 -27 11.5 -35.5t5.5 -10.5q0 -5 -7 -5q-11 0 -32 18.5t-38 56.5q-46 -39 -92 -54t-78 -15q-46 0 -82 13.5t-61 38t-38 58.5t-13 75q0 31 15.5 66.5t45.5 66t73 50.5t98 20q27 0 58 -7.5t58 -26.5q1 49 1.5 100.5t1 97.5t1 84t0.5 60
q0 34 -1.5 68t-5.5 56q-4 20 -9 27.5t-5 9.5q0 5 7 5q17 0 31.5 -16t25 -43.5t16.5 -63t6 -74.5v-69.5t-0.5 -88t-0.5 -97.5t-0.5 -96.5t-0.5 -86.5v-67zM373 156q0 26 0.5 67.5t2.5 92.5q-27 21 -55 27.5t-51 6.5q-50 0 -81.5 -19t-49.5 -46.5t-25 -58t-7 -54.5
q0 -85 36.5 -124.5t90.5 -39.5q28 0 65 12t86 53q-5 18 -8.5 38.5t-3.5 44.5z" />
    <glyph glyph-name="e" unicode="e" horiz-adv-x="389" 
d="M160 128q-20 0 -38.5 2.5t-36.5 8.5q4 -25 15 -49t29 -43t42 -30.5t53 -11.5q45 0 82 21t72 57q9 10 14 17t8 7t4.5 -4t1.5 -8t-2 -7.5t-4 -4.5q-33 -40 -77 -70t-108 -30q-38 0 -72.5 9t-60.5 28t-41.5 49t-15.5 71q0 40 15 80t43 72t67 52.5t86 20.5q19 0 42 -4.5
t42.5 -15t33 -28.5t13.5 -45q0 -31 -17.5 -57t-46.5 -45.5t-66.5 -30.5t-76.5 -11zM215 346q-32 0 -56 -17.5t-40.5 -44.5t-25 -60t-8.5 -64v-5q16 -7 32 -9.5t33 -2.5q29 0 56 8t47.5 23t33 36.5t12.5 48.5q0 37 -23 62t-61 25z" />
    <glyph glyph-name="f" unicode="f" horiz-adv-x="304" 
d="M61 238q11 0 21.5 -1t21.5 -3q-12 62 -20 122t-8 117q0 100 12.5 176t33 132t46 93.5t50.5 60.5t47 32.5t37 9.5q28 0 44.5 -13t25 -32t11 -39t2.5 -33q0 -65 -19.5 -133.5t-51.5 -133t-72.5 -120t-83.5 -95.5q7 -45 15 -83.5t15 -76.5q14 -2 26.5 -3t24.5 -1q24 0 40 7
t26.5 16t15.5 16t7 7q6 0 6 -7q0 -5 -6 -14.5t-18 -18.5t-30 -15.5t-41 -6.5q-13 0 -24 0.5t-22 1.5q7 -29 12.5 -59t10.5 -59q26 12 50 19t44 7q5 0 9 -1.5t4 -6.5q0 -3 -3 -6.5t-9 -3.5q-22 0 -45 -7t-48 -18q5 -31 7.5 -62.5t2.5 -66.5q0 -71 -16.5 -119.5t-40 -78.5
t-50 -43t-45.5 -13q-18 0 -31 8.5t-22 22t-13.5 30t-4.5 33.5q0 43 11.5 81t31 71t44.5 60.5t53 48.5q-9 44 -18.5 88.5t-18.5 89.5q-12 2 -24 3.5t-23 1.5q-23 0 -36 -5.5t-20 -11.5t-10.5 -11.5t-7.5 -5.5q-3 0 -6 1t-3 6q0 6 6 13.5t17.5 14.5t26.5 12t33 5zM138 647
q0 -75 4.5 -136t12.5 -115q48 45 87 107t66 127t41.5 127t14.5 108q0 9 -2.5 24t-9 30t-18 26t-30.5 11q-38 0 -69 -31.5t-52.5 -78t-33 -100.5t-11.5 -99zM169 -160q0 41 -6 85.5t-15 92.5q-51 -44 -87 -104.5t-36 -128.5q0 -16 3 -32t10 -28.5t17 -20.5t25 -8
q22 0 38.5 15t27.5 37t17 47t6 45z" />
    <glyph glyph-name="g" unicode="g" horiz-adv-x="464" 
d="M520 -138q2 11 5.5 22.5t3.5 23.5q0 10 -4 20t-15 18t-29.5 12.5t-47.5 4.5h-14q-4 -53 -13 -101.5t-26 -85.5t-43.5 -59t-64.5 -22q-35 0 -52 22t-17 54q0 25 10 54t30 56t48.5 49.5t66.5 34.5v7q0 17 -1 33t-1 33q-38 -35 -77.5 -52t-66.5 -17q-92 0 -142.5 51
t-50.5 134q0 31 16 66.5t46 65.5t73 50t97 20q32 0 69.5 -11t67.5 -40q10 32 23 53t29 21q8 0 8 -5q0 -6 -6 -15.5t-11 -30.5q-7 -21 -8.5 -44t-1.5 -55q0 -29 0.5 -69t0.5 -96q0 -22 -0.5 -43.5t-1.5 -42.5q5 2 10 2h10q31 0 51.5 -6.5t32.5 -16.5t17 -23t5 -25
q0 -21 -8 -36.5t-14 -15.5q-4 0 -4 5zM226 -11q24 0 59.5 18t69.5 57q-1 8 -0.5 15t0.5 15q0 9 1.5 29.5t5 47t9 56.5t12.5 57q-31 33 -63.5 42.5t-59.5 9.5q-50 0 -81.5 -19t-49.5 -46.5t-25 -58.5t-7 -55q0 -88 36.5 -128t92.5 -40zM359 -82q0 9 -0.5 17t-0.5 16
q-33 -12 -58 -32t-42 -44t-25.5 -49.5t-8.5 -47.5q0 -27 13.5 -44.5t40.5 -17.5t43 20.5t24.5 51t11 66t2.5 64.5z" />
    <glyph glyph-name="h" unicode="h" horiz-adv-x="486" 
d="M266 570q-30 -69 -67 -113.5t-73 -70.5q2 -44 3.5 -85t1.5 -66q0 -19 -0.5 -41.5t-3.5 -48.5q11 34 23.5 74.5t33.5 76t53.5 59.5t84.5 24q30 0 48.5 -12t28.5 -30t13.5 -39t3.5 -39q0 -23 -4 -48t-9 -50.5t-9 -51.5t-4 -50q0 -6 1.5 -15.5t6 -19t12.5 -16.5t21 -7
q23 0 40 15.5t28 34t17 34t7 15.5q6 0 6 -8q0 -16 -9.5 -36t-24.5 -38t-34.5 -30t-39.5 -12q-24 0 -42 8t-29 22t-16.5 32t-5.5 38q0 28 3 51t7 44t7 42.5t3 46.5q0 45 -13.5 69t-39.5 24q-29 0 -51.5 -17.5t-40 -44.5t-30.5 -60t-22.5 -64t-15.5 -57t-9 -38
q-9 -34 -18.5 -52.5t-19 -27.5t-19.5 -10.5t-20 -1.5q-5 0 -6 4t-1 8q0 2 2.5 12l4.5 18q7 28 9 63.5t2 77.5q0 44 -1 90t-1 94q0 51 4.5 109.5t14.5 116.5t26 111t38.5 94t52.5 65.5t68 24.5q15 0 25.5 -9t17 -23.5t10 -32t3.5 -34.5q0 -58 -16 -107.5t-36 -91.5zM121 520
q0 -18 1.5 -49t2.5 -67q26 22 54 57t56 86q14 26 26 57t20.5 61.5t13.5 57.5t5 46q0 13 -2 27.5t-7.5 26.5t-14 20t-20.5 8q-24 0 -48 -23.5t-43.5 -66.5t-31.5 -104.5t-12 -136.5z" />
    <glyph glyph-name="i" unicode="i" horiz-adv-x="229" 
d="M66 88q0 25 6.5 54.5t15 58t15 53.5t6.5 42q0 20 -10 33t-27 13q-14 0 -24.5 -7t-18.5 -16t-13.5 -16t-8.5 -7q-7 0 -7 5q0 4 7 14.5t20 21.5t30.5 19.5t37.5 8.5q13 0 26 -4t23.5 -12t17 -20t6.5 -28q0 -30 -6.5 -61t-15 -61t-15 -57.5t-6.5 -50.5q0 -11 2.5 -24t8 -24
t15 -19t23.5 -8q16 0 29.5 9t23.5 20t16.5 20t9.5 9q5 0 5 -7q0 -2 -7 -13.5t-19.5 -24.5t-31.5 -23.5t-43 -10.5q-2 0 -16.5 2t-31 12.5t-30 33.5t-13.5 65zM77 562q0 23 15.5 38.5t38.5 15.5q22 0 37.5 -15.5t15.5 -38.5t-15.5 -38.5t-37.5 -15.5q-23 0 -38.5 15.5
t-15.5 38.5z" />
    <glyph glyph-name="j" unicode="j" horiz-adv-x="160" 
d="M191 -164q21 24 21 48q0 34 -29.5 54.5t-73.5 25.5q-2 -45 -6 -74t-6 -38q-8 -29 -21 -59t-33 -55.5t-46.5 -41.5t-61.5 -16t-62.5 24.5t-27.5 71.5q0 46 17.5 81.5t46 60.5t65 40t73.5 20q0 25 -1.5 49.5t-1.5 50.5q0 63 8 112.5t21 84.5t29.5 53.5t34.5 18.5q7 0 7 -5
t-4.5 -13t-12.5 -33q-3 -10 -5.5 -24.5t-4 -38t-2.5 -58.5t-1 -86q0 -30 -0.5 -57.5t-1.5 -51.5q25 -3 47 -10.5t38.5 -20t26 -29.5t9.5 -39q0 -12 -4.5 -22.5t-10.5 -18.5t-13 -13t-11 -5q-7 0 -7 8q0 2 4 6zM36 -175q3 25 5 43t3.5 32.5t2 27.5t0.5 29v6q-33 -5 -65 -18.5
t-57.5 -36.5t-41 -55.5t-15.5 -75.5q0 -37 16.5 -57t48.5 -20q21 0 39 11t31 28.5t21.5 40t11.5 45.5zM61 546q0 22 15.5 37.5t37.5 15.5q23 0 38.5 -15.5t15.5 -37.5q0 -23 -15.5 -38.5t-38.5 -15.5q-22 0 -37.5 15.5t-15.5 38.5z" />
    <glyph glyph-name="k" unicode="k" horiz-adv-x="391" 
d="M42 347q0 51 5 109t15 114.5t26.5 108.5t39 92t52.5 63.5t68 23.5q15 0 26 -9t17.5 -22.5t9.5 -31t3 -33.5q0 -58 -17.5 -111t-35.5 -95q-32 -71 -69 -115.5t-74 -70.5q1 -40 1 -76.5v-58.5v-80q15 41 34.5 84.5t44 79t56 58.5t72.5 23q18 0 35 -12t17 -44q0 -36 -19 -68
t-48 -58.5t-63.5 -46.5t-65.5 -33q44 -10 78.5 -35t63.5 -65q14 -19 31 -40.5t36.5 -40t41.5 -30.5t47 -12q13 0 25 4t21 9t15.5 9t9.5 4q10 0 10 -9q0 -5 -7.5 -11t-17 -10.5t-19.5 -8t-16 -4.5q-13 -2 -26 -3.5t-26 -1.5q-51 0 -94.5 28t-78.5 68q-12 14 -26.5 37
t-31.5 45.5t-36.5 38.5t-41.5 16q-6 0 -10.5 -6t-7 -14.5t-4 -18t-2.5 -16.5q-6 -33 -14 -51t-16 -26.5t-15.5 -10t-11.5 -1.5q-7 0 -7 12q0 5 2.5 15.5t2.5 37.5q0 24 -1.5 53.5t-1.5 62.5q0 41 -1 90.5t-1 93.5zM106 520v-55.5t1 -76.5q27 21 55.5 56t57.5 88q14 26 26 58
t21 64t14.5 60.5t5.5 47.5q0 13 -2 27.5t-7.5 25.5t-13.5 18.5t-20 7.5q-24 0 -48.5 -22t-44.5 -63t-32.5 -101t-12.5 -135zM131 151q0 -5 5 -5q26 0 55.5 14t54.5 38t41.5 55t16.5 65q0 17 -10 31.5t-24 14.5q-17 0 -33.5 -14t-32 -36t-29 -48t-23.5 -49.5t-15.5 -41.5
t-5.5 -24z" />
    <glyph glyph-name="l" unicode="l" horiz-adv-x="245" 
d="M274 556q-36 -80 -78.5 -128.5t-82.5 -75.5q0 -78 2 -143.5t12 -113t31 -74.5t59 -27q15 0 27 6.5t21.5 16t15.5 21t9 21.5q2 6 9 6q8 0 8 -12q0 -2 -5.5 -14.5t-17.5 -27.5t-31.5 -27t-47.5 -12q-46 0 -75.5 26.5t-47 73.5t-24 112.5t-6.5 143.5q0 41 6 96t18.5 113
t30.5 115t42 101.5t54 72t66 27.5q15 0 25.5 -9.5t17 -23.5t10 -31.5t3.5 -33.5q0 -58 -16 -107.5t-35 -91.5zM263 836q-25 0 -45.5 -24.5t-37 -63.5t-29 -89.5t-21 -101.5t-13 -99.5t-4.5 -84.5q29 23 62.5 62.5t66.5 102.5q14 26 26 55.5t20.5 59t13.5 56t5 45.5
q0 13 -2 27.5t-7.5 26.5t-14 20t-20.5 8z" />
    <glyph glyph-name="m" unicode="m" horiz-adv-x="755" 
d="M-8 269q0 1 2 5q31 52 65.5 70t72.5 18q27 0 47 -12.5t33.5 -34t20 -50.5t6.5 -63q7 29 20 57.5t30 50.5t37 35.5t41 13.5q27 0 44.5 -12.5t28.5 -32.5t15.5 -45.5t4.5 -51.5q0 -7 -1 -13.5t-2 -12.5q26 85 57 128t87 43q30 0 47.5 -13.5t27.5 -33t13 -41.5t3 -40
q0 -23 -3 -45t-6.5 -44t-6.5 -44t-3 -46q0 -17 11 -32t37 -15q10 0 19.5 8t17 17.5t12 17.5t6.5 8q9 0 9 -10q0 -4 -2 -8t-4 -9q-19 -25 -36 -35t-46 -10q-43 0 -68 27t-25 65q0 28 2 49.5t4 40.5t4 38.5t2 44.5q0 13 -2 27t-6.5 25.5t-13 19t-20.5 7.5q-19 0 -34.5 -14.5
t-28.5 -38t-23 -51.5t-17.5 -55.5t-13 -50.5t-8.5 -36q-3 -12 -8.5 -28t-12 -30.5t-15 -24.5t-18.5 -10q-5 0 -6 4t-1 8q0 2 2.5 12.5t4.5 18.5q4 29 4.5 61t0.5 68q0 28 -3.5 55t-11 48t-20 34t-30.5 13q-20 0 -36 -21.5t-28.5 -56t-22.5 -78t-19 -87.5q-2 -13 -7 -29
t-12 -30.5t-16 -24.5t-19 -10q-5 0 -6 4t-1 8q0 3 3 13.5t4 17.5q5 30 5.5 62t0.5 68q0 27 -4 60t-13.5 61t-27 47t-44.5 19q-20 0 -35.5 -12t-27 -26.5t-19.5 -26.5t-11 -12q-7 0 -7 9z" />
    <glyph glyph-name="n" unicode="n" horiz-adv-x="486" 
d="M430 -35q-38 0 -62.5 27t-24.5 66q0 28 2.5 51t5.5 44.5t5.5 43t2.5 47.5q0 13 -1.5 25.5t-6 23t-12 17t-20.5 6.5q-19 0 -34.5 -15.5t-28.5 -39.5t-23.5 -53.5t-18.5 -58t-14 -52t-9 -36.5q-3 -12 -8.5 -28t-12 -30.5t-15 -24.5t-18.5 -10q-5 0 -6 4t-1 8q0 2 3 12.5
t4 18.5q5 29 5.5 61t0.5 68q0 28 -2.5 59.5t-10 58.5t-22 44.5t-38.5 17.5q-14 0 -25.5 -8t-20.5 -17t-15 -17t-9 -8q-2 0 -4.5 2t-2.5 8l2 4q26 33 51 46.5t63 13.5q27 0 46 -10t31 -27.5t17.5 -40.5t5.5 -49q0 -7 -0.5 -13.5t-0.5 -12.5q10 27 21 55t27.5 50.5t40 36.5
t57.5 14q30 0 46 -12.5t23.5 -30.5t9 -39t1.5 -38q0 -24 -4 -49t-9.5 -51t-10 -52t-4.5 -50q0 -5 1.5 -12.5t6 -14t13 -11t21.5 -4.5q10 0 20 7t18.5 16t14 16t7.5 7q7 0 7 -9q0 -3 -2 -8.5t-5 -7.5q-17 -20 -33.5 -29.5t-44.5 -9.5z" />
    <glyph glyph-name="o" unicode="o" horiz-adv-x="463" 
d="M270 347q-20 0 -29 -5t-15 -5q-4 0 -4 5q0 9 16.5 15.5t38.5 6.5q36 0 65.5 -13.5t51 -36.5t33.5 -54t12 -67q0 -41 -12 -78t-37 -65t-64.5 -44.5t-93.5 -16.5q-45 0 -83 12t-66 35t-43.5 57.5t-15.5 78.5q0 43 18 80.5t45.5 65.5t59 44t58.5 16q5 0 10 -0.5t5 -4.5
q0 -5 -14.5 -7t-30.5 -11q-22 -13 -38.5 -34.5t-27 -46t-16 -50.5t-5.5 -48q0 -78 38 -124t106 -46q36 0 63.5 15.5t46 40.5t27.5 56t9 63q0 56 -11.5 89t-28 50t-35.5 22t-33 5z" />
    <glyph glyph-name="p" unicode="p" horiz-adv-x="476" 
d="M59 224q0 34 -4 68t-8 56q-8 27 -12.5 34t-4.5 9q0 7 7 7q17 0 34 -27.5t29 -83.5q18 30 40.5 48.5t44 29t41 14.5t32.5 4q92 0 143 -48.5t51 -131.5q0 -31 -13 -67t-38.5 -67t-64.5 -52t-90 -21q-32 0 -66.5 9t-63.5 35q-2 -49 -4.5 -91t-2.5 -95q0 -34 2.5 -68t4.5 -56
q4 -21 9.5 -28t5.5 -9q0 -5 -7 -5q-17 0 -31.5 16t-25 43t-17 63t-6.5 75q0 86 7.5 172.5t7.5 166.5zM116 64q27 -30 57.5 -39t62.5 -9q43 0 72 18.5t46 45.5t24 57t7 54q0 44 -13.5 75.5t-34 52t-45 30.5t-46.5 10q-14 0 -33 -4.5t-38.5 -16t-38.5 -30t-32 -46.5
q12 -66 12 -158v-40z" />
    <glyph glyph-name="q" unicode="q" horiz-adv-x="482" 
d="M443 214q0 -81 1 -162t1 -167q0 -39 -6 -75t-17 -63t-25.5 -43t-30.5 -16q-7 0 -7 5q0 2 4.5 9t9.5 28q4 22 5.5 56t1.5 68q0 28 -1 52.5t-2 48t-2.5 47.5t-1.5 51q-19 -21 -39.5 -35t-40.5 -21.5t-38 -10.5t-31 -3q-46 0 -82 13.5t-61 38t-38 58.5t-13 75
q0 31 14.5 66.5t42 66t68 50.5t91.5 20q38 0 80.5 -19.5t73.5 -64.5q14 42 30.5 67t30.5 25q7 0 7 -5q0 -2 -5 -10t-11 -35q-5 -22 -7 -52t-2 -63zM373 104q0 45 5 86t16 75q-31 48 -65.5 66.5t-72.5 18.5q-44 0 -72.5 -19t-45 -46.5t-23.5 -58t-7 -54.5q0 -44 10 -76
t27 -52.5t40.5 -30t50.5 -9.5q13 0 29.5 3t34.5 11.5t36.5 24t36.5 40.5v21z" />
    <glyph glyph-name="r" unicode="r" horiz-adv-x="443" 
d="M113 -20q-9 0 -9 7q0 6 4.5 15.5t7.5 27.5q2 9 4 25.5t4 35.5t3 39t1 37q0 20 -1 50t-7 57.5t-18.5 47.5t-35.5 20q-16 0 -26.5 -7.5t-17.5 -16.5t-12 -16.5t-9 -7.5q-2 0 -4 1.5t-2 5.5t8 17t22 26.5t34 24t43 10.5q28 0 45.5 -10t27 -26.5t12.5 -37.5t3 -43v-25.5
t-2 -24.5q13 33 30.5 71.5t41.5 71.5t55.5 54.5t72.5 21.5q30 0 49 -19t19 -44q0 -39 -19 -70t-46 -53t-57 -34t-53 -12q-8 0 -15 2t-7 7q0 10 9 10q3 0 6 -0.5t6 -0.5q28 0 50.5 12t38.5 30.5t24.5 40t8.5 41.5t-11 34.5t-35 14.5q-30 0 -53.5 -17.5t-41.5 -45.5t-31.5 -63
t-23.5 -70.5t-18 -68t-14 -54.5q-4 -11 -10 -26.5t-14 -30t-17.5 -24.5t-19.5 -10z" />
    <glyph glyph-name="s" unicode="s" horiz-adv-x="314" 
d="M78 306q0 -26 15.5 -42.5t39.5 -28.5t51 -23t51 -26t39.5 -36t15.5 -53q0 -31 -14.5 -51.5t-36.5 -33t-47.5 -17.5t-47.5 -5q-20 0 -41.5 3.5t-39 12.5t-28.5 23.5t-11 35.5q0 20 15.5 38.5t49.5 18.5q5 0 12 -1t7 -8q0 -5 -6 -6t-13 -4t-13 -10.5t-6 -24.5q0 -30 25 -45
t56 -15q17 0 33 3.5t29 11t20.5 19.5t7.5 29q0 27 -16 43.5t-39.5 29t-51 23t-51 24.5t-39.5 34.5t-16 52.5q0 31 13.5 51.5t34 33t45 17.5t46.5 5q21 0 42 -3.5t38.5 -12t28.5 -23t11 -35.5q0 -20 -15 -39t-50 -19q-5 0 -12 1t-7 9q0 6 6 6.5t13 2.5t13 9t6 27
q0 31 -25.5 45.5t-55.5 14.5q-35 0 -58.5 -14.5t-23.5 -47.5z" />
    <glyph glyph-name="t" unicode="t" horiz-adv-x="260" 
d="M38 454h16.5t16.5 -2q0 31 -0.5 51t-1 32.5t-1 19.5t-0.5 14q0 8 3.5 12t8.5 8q22 17 36 31t20 14q4 0 4 -18t-2.5 -59t-4.5 -112q29 -5 57 -9.5t60 -4.5q39 0 61.5 5.5t34 12t16 12t8.5 5.5t4 -8q0 -5 -5 -13t-19 -15t-39.5 -12t-66.5 -5q-35 0 -60.5 4t-50.5 9v-65
q0 -51 -2 -96t-4 -80t-4 -58.5t-2 -30.5q0 -45 19 -61.5t48 -16.5q22 0 39.5 10.5t31 22.5t22.5 22.5t13 10.5q10 0 10 -10q0 -2 -9.5 -14.5t-26.5 -26.5t-41 -25.5t-53 -11.5q-21 0 -41 6.5t-36 19.5t-26 33t-10 47q0 40 5 100t5 153v81q-8 0 -16.5 0.5t-16.5 0.5
q-26 0 -40 -4.5t-20.5 -9.5t-9 -9.5t-5.5 -4.5q-7 0 -7 7q0 6 4 12.5t13.5 12t25 9.5t39.5 4z" />
    <glyph glyph-name="u" unicode="u" horiz-adv-x="494" 
d="M244 17q32 0 61.5 21.5t50.5 63.5q-6 27 -6 62q0 33 7 69.5t17.5 68t23 52t23.5 20.5q5 0 5 -6q0 -7 -5 -30q-5 -19 -7 -35t-3.5 -32t-1.5 -34v-41q0 -36 3.5 -67.5t12.5 -55t24 -37t38 -13.5q26 0 43.5 19t22.5 41q2 5 6 5q3 0 6 -2.5t3 -7.5t-5.5 -17.5t-18 -26.5
t-32 -24.5t-46.5 -10.5q-38 0 -65 19.5t-40 61.5q-25 -45 -54.5 -64.5t-65.5 -19.5q-60 0 -93.5 32t-33.5 92q0 35 6 76t6 81q0 9 -2.5 19.5t-8.5 19.5t-16 15t-25 6q-16 0 -28.5 -9t-22 -19.5t-15.5 -19.5t-9 -9q-6 0 -6 7q0 3 9 16t25.5 27.5t38.5 26t49 11.5
q41 0 62 -22.5t21 -61.5q0 -50 -9.5 -94.5t-9.5 -75.5q0 -55 19.5 -76t45.5 -21z" />
    <glyph glyph-name="v" unicode="v" horiz-adv-x="400" 
d="M-28 272q0 10 11 27t29 33.5t41.5 28.5t49.5 12q18 0 32 -8.5t23.5 -22t15 -29.5t5.5 -32q0 -17 -2.5 -39.5t-5 -47.5t-5 -51t-2.5 -49q0 -11 3 -22.5t8.5 -21t13.5 -16t19 -6.5q37 0 64 26.5t45 68t26.5 91.5t8.5 98q0 33 -7.5 58.5t-18.5 42.5q-4 8 -4 13q0 7 4 7
q7 0 17 -13q10 -17 17.5 -44t7.5 -64q0 -63 -12 -120t-35 -100.5t-57 -69.5t-78 -26q-35 0 -57.5 26t-22.5 76q0 43 5 87.5t5 90.5q0 24 -11 41t-37 17q-14 0 -27.5 -8.5t-24.5 -18.5q-8 -7 -13.5 -15t-9.5 -14.5t-6.5 -11t-4.5 -4.5q-10 0 -10 10z" />
    <glyph glyph-name="w" unicode="w" horiz-adv-x="547" 
d="M467 386q-7 8 -7 14t6 6q5 0 10 -6q7 -8 16 -24t16.5 -37.5t12.5 -46.5t5 -52q0 -45 -9 -89t-27 -78.5t-44.5 -55.5t-60.5 -21q-26 0 -44.5 9t-32 24t-21.5 35.5t-12 43.5q-8 -18 -18.5 -37.5t-24 -35.5t-30.5 -26.5t-38 -10.5q-25 0 -42 8.5t-27 22.5t-14.5 32.5
t-4.5 38.5q0 52 10.5 101t10.5 93q0 29 -14 38.5t-29 9.5q-20 0 -33.5 -8.5t-22 -19t-14 -19t-9.5 -8.5q-6 0 -6 5q0 3 6.5 15t20.5 25t34.5 23t49.5 10q38 0 60 -27t22 -73q0 -37 -10 -80.5t-10 -89.5q0 -11 2 -22.5t7 -21.5t13.5 -16.5t20.5 -6.5t23 8.5t21.5 23.5
t20.5 34.5t20 41.5v33q0 38 5.5 72.5t13.5 56.5q2 7 7.5 18t13 22t16 19t16.5 8q4 0 4 -9q0 -7 -10.5 -48t-10.5 -116q0 -30 4.5 -60.5t13.5 -55t22 -40.5t30 -16q25 0 46 20t36 51.5t23.5 71t8.5 77.5q0 25 -4.5 48t-11 42.5t-13.5 34t-13 21.5z" />
    <glyph glyph-name="x" unicode="x" horiz-adv-x="569" 
d="M228 197h15.5t15.5 -1q0 42 -8.5 70t-24.5 45t-38 24t-50 7q-25 0 -45 -11.5t-35 -25.5t-24.5 -25.5t-13.5 -11.5q-7 0 -7 7q0 2 11.5 16.5t33.5 31.5t53.5 31t72.5 14q47 0 81.5 -28t45.5 -84q20 48 58.5 82.5t94.5 34.5q51 0 73.5 -17.5t22.5 -32.5q0 -17 -8.5 -31.5
t-16.5 -14.5q-5 0 -5 7q0 4 1.5 9.5t1.5 8.5q0 12 -8 21.5t-19 16t-23.5 10t-22.5 3.5q-38 0 -62 -15.5t-38 -40t-19.5 -53.5t-6.5 -56q14 -1 26 -1.5t25 -0.5q22 0 36 4.5t22.5 9.5t12.5 9.5t6 4.5q6 0 6 -9q0 -3 -6.5 -9t-17 -11t-23.5 -9t-27 -4h-31.5t-28.5 1v-1
q0 -38 13 -67t31.5 -48.5t39.5 -29.5t37 -10q25 0 41 7t26.5 15t17 15t11.5 7q7 0 7 -6q0 -3 -7.5 -12.5t-22.5 -20t-36.5 -18.5t-49.5 -8q-49 0 -89.5 32t-54.5 91q-11 -26 -27 -49.5t-37 -41.5t-46.5 -28.5t-54.5 -10.5q-23 0 -42.5 7t-33.5 17t-22.5 20t-8.5 15
q0 10 11 10q4 0 9.5 -8t15 -18t26 -18t43.5 -8q28 0 50.5 15t39 39t26 55t11.5 64q-9 1 -18.5 1.5t-19.5 0.5q-26 0 -46 -7.5t-33.5 -16.5t-22 -16.5t-11.5 -7.5q-7 0 -7 7q0 4 10 13t27 19t40.5 17.5t50.5 7.5z" />
    <glyph glyph-name="y" unicode="y" horiz-adv-x="431" 
d="M498 -133q0 47 -32 69t-78 22h-8q-5 -45 -10.5 -76t-7.5 -39q-8 -29 -22.5 -61t-35.5 -58t-48.5 -43.5t-62.5 -17.5q-25 0 -47 20.5t-22 54.5q0 46 17 83.5t44.5 66t62.5 48t72 29.5q-1 23 -1.5 45.5t-0.5 45.5q-24 -21 -56 -41t-69 -20q-30 0 -48.5 10.5t-29 27.5
t-14 38.5t-3.5 44.5q0 18 4 37.5t9 40.5t9 42t4 41q0 9 -2 19.5t-7 19.5t-14.5 15t-24.5 6q-16 0 -29 -10.5t-22.5 -23t-16 -23t-9.5 -10.5q-7 0 -7 7q0 3 9.5 18t26.5 31t39.5 29t48.5 13q36 0 55.5 -18.5t19.5 -56.5q0 -31 -5 -58.5t-11.5 -54t-12 -53t-5.5 -56.5
q0 -9 2.5 -19t8.5 -18t16.5 -13t26.5 -5q32 0 58 19.5t49 40.5v2q0 10 1.5 35.5t5.5 57t11 66t17 62.5t24 46.5t33 18.5q8 0 8 -5q0 -7 -6.5 -16t-10.5 -31t-6.5 -42.5t-4 -46t-2 -57.5t-0.5 -77q0 -32 -1.5 -60.5t-3.5 -54.5h2q54 0 91.5 -26t37.5 -81q0 -20 -7.5 -35.5
t-16.5 -26t-18 -16.5t-12 -6q-8 0 -8 7q0 4 4 6q12 8 27 26.5t15 44.5zM301 -208q11 48 14.5 87t4.5 69q-33 -9 -64 -27t-55.5 -43.5t-39.5 -58.5t-15 -72q0 -31 14.5 -47t37.5 -16q19 0 36 10.5t31 26.5t23.5 35t12.5 36z" />
    <glyph glyph-name="z" unicode="z" horiz-adv-x="514" 
d="M148 106q0 5 16.5 13.5t33.5 8.5q8 0 16.5 -1t17.5 -3q18 25 37.5 52.5t42.5 54t50 51t60 42.5q-17 -6 -33 -9.5t-30 -3.5q-29 0 -53.5 8t-47.5 17.5t-46 17.5t-48 8q-30 0 -54 -9.5t-41 -26t-26 -37.5t-9 -43q0 -50 29.5 -72t75.5 -22q18 0 31 5.5t21 11.5t12.5 11.5
t6.5 5.5q4 0 5.5 -4t1.5 -7q0 -4 -7.5 -11t-19.5 -13.5t-27.5 -11.5t-31.5 -5q-21 0 -42 6.5t-37 19t-26 31.5t-10 43q0 31 12 60t34.5 51.5t55.5 36t74 13.5q29 0 54 -7.5t50.5 -17t53.5 -17t64 -7.5q10 0 21 3.5t22.5 7.5t22.5 7.5t20 3.5q8 0 10 -1t2 -3
q0 -6 -13.5 -13.5t-23.5 -10.5q-29 -12 -51 -37t-42 -56.5t-41.5 -67t-50.5 -67.5q15 -3 30 -3t25.5 2.5t17.5 6t11.5 6t8.5 2.5q7 0 7 -7q0 -8 -11 -13q-32 -14 -61 -14q-12 0 -22 1.5t-20 3.5q-23 -23 -52 -41.5t-67 -30.5q26 0 54.5 -4.5t58 -10.5t58 -10.5t54.5 -4.5
q20 0 46 5t44 19q7 5 13 16.5t8 13.5q5 5 10 5t9.5 -6t4.5 -12q0 -14 -12.5 -27t-32.5 -23t-45.5 -16.5t-52.5 -6.5q-32 0 -62.5 7.5t-60.5 16t-59.5 16t-58.5 7.5q-10 0 -17 -3t-16 -3q-12 0 -12 7q0 4 5.5 8t16.5 4q30 0 56.5 24t53.5 62l-8 2t-8 1q-13 0 -20.5 -2t-12 -5
l-7.5 -5t-7 -2q-9 0 -9 8z" />
    <glyph glyph-name="braceleft" unicode="{" horiz-adv-x="514" 
d="M475 340q-28 -11 -48.5 -34.5t-40 -53t-39 -63t-46 -65t-61 -57.5t-83.5 -42q26 0 54.5 -4.5t58 -10.5t58 -10.5t54.5 -4.5q20 0 46 5t44 19q7 5 13 16.5t8 13.5q5 5 10 5t9.5 -6t4.5 -12q0 -14 -12.5 -27t-32.5 -23t-45.5 -16.5t-52.5 -6.5q-32 0 -62.5 7.5t-60.5 16
t-59.5 16t-58.5 7.5q-10 0 -17 -3t-16 -3q-12 0 -12 7q0 4 5.5 8t16.5 4q24 0 45 16t42.5 42t44 59t49 66t58.5 64t73 54q-17 -6 -33 -9.5t-30 -3.5q-29 0 -53.5 8t-47.5 17.5t-46 17.5t-48 8q-30 0 -54 -9.5t-41 -26t-26 -37.5t-9 -43q0 -50 29.5 -72t75.5 -22q18 0 31 5.5
t21 11.5t12.5 11.5t6.5 5.5q4 0 5.5 -4t1.5 -7q0 -4 -7.5 -11t-19.5 -13.5t-27.5 -11.5t-31.5 -5q-21 0 -42 6.5t-37 19t-26 31.5t-10 43q0 31 12 60t34.5 51.5t55.5 36t74 13.5q29 0 54 -7.5t50.5 -17t53.5 -17t64 -7.5q10 0 21 3.5t22.5 7.5t22.5 7.5t20 3.5q8 0 10 -1
t2 -3q0 -6 -13.5 -13.5t-23.5 -10.5z" />
    <glyph glyph-name="bar" unicode="|" horiz-adv-x="109" 
d="M40 769q0 10 4.5 14.5t9.5 4.5t9.5 -4.5t4.5 -14.5v-1077q0 -11 -4.5 -15.5t-9.5 -4.5t-9.5 4.5t-4.5 15.5v1077z" />
    <glyph glyph-name="braceright" unicode="}" horiz-adv-x="514" 
d="M475 340q-28 -12 -50.5 -34t-44 -51t-43.5 -61t-48.5 -63t-58.5 -59t-73 -47q26 0 54.5 -5t58 -10.5t58 -10.5t54.5 -5q20 0 46 5.5t44 18.5q7 5 13 16t8 15q5 5 10 5t9.5 -6t4.5 -13q0 -14 -12.5 -26.5t-32.5 -23t-45.5 -16.5t-52.5 -6q-32 0 -62.5 7t-60.5 15.5
t-59.5 15.5t-58.5 7q-10 0 -17 -2t-16 -2q-12 0 -12 7q0 4 8 9t19 5q24 0 48.5 17.5t49.5 45.5t50.5 62.5t51.5 67.5t53 61t54 44q-17 -5 -33 -8.5t-30 -3.5q-29 0 -53.5 8t-47.5 17t-46 17t-48 8q-30 0 -54 -9.5t-41 -25.5t-26 -37t-9 -43q0 -51 29.5 -72.5t75.5 -21.5
q18 0 31 5.5t21 11.5t12.5 11.5t6.5 5.5q4 0 5.5 -4t1.5 -8t-7.5 -11t-19.5 -13.5t-27.5 -11.5t-31.5 -5q-21 0 -42 6.5t-37 19.5t-26 32t-10 43q0 31 12 60t34.5 51.5t55.5 36t74 13.5q29 0 54 -8t50.5 -17.5t53.5 -17.5t64 -8q10 0 21 3.5t22.5 8t22.5 8.5t20 4q8 0 10 -1
t2 -3q0 -6 -13.5 -13.5t-23.5 -10.5z" />
    <glyph glyph-name="asciitilde" unicode="~" horiz-adv-x="755" 
d="M181 -8q-8 5 -8 12q0 6 6 6q4 0 8.5 -3t11.5 -8q32 -21 82 -39t111 -18q58 0 100.5 19t71 50t42.5 71t14 82q0 47 -16.5 93t-48.5 82t-79.5 58.5t-109.5 22.5q-54 0 -99 -10.5t-77.5 -31.5t-50.5 -52t-18 -72q0 -25 8.5 -49t24.5 -42.5t39 -29.5t51 -11q25 0 43 8.5
t30 22t17.5 30.5t5.5 33q0 24 -12.5 43t-38.5 19q-18 0 -18 10q0 5 6.5 8.5t17.5 3.5q45 0 67 -24t22 -56q0 -21 -10 -42.5t-30 -38.5t-51 -28t-73 -11q-39 0 -73.5 9.5t-60.5 27.5t-41 45.5t-15 63.5q0 43 26 79t72 62.5t108.5 41t135.5 14.5q90 0 156.5 -18t110.5 -51
t65.5 -79t21.5 -102q0 -57 -26.5 -105.5t-71.5 -84.5t-105.5 -56.5t-127.5 -20.5q-23 0 -48 2t-52.5 9t-56 20t-57.5 35z" />
    <glyph glyph-name="uni00A0" unicode="&#xa0;" horiz-adv-x="320" 
 />
    <glyph glyph-name="exclamdown" unicode="&#xa1;" horiz-adv-x="200" 
d="M174 378q0 -27 -19.5 -46.5t-47.5 -19.5q-27 0 -46.5 19.5t-19.5 46.5q0 28 19.5 47.5t46.5 19.5q28 0 47.5 -19.5t19.5 -47.5zM18 -296q-5 4 -5 7q0 5 5 9q23 19 36.5 44.5t21.5 61t12 83.5t9 113q2 29 2.5 54.5t0.5 47.5q0 51 -2.5 78.5t-2.5 33.5q0 16 19 16
q5 0 11 -16.5t11.5 -45t10 -66.5t8 -80t5.5 -86t2 -85q0 -101 -17 -145.5t-60 -44.5q-14 0 -34 5t-33 16z" />
    <glyph glyph-name="cent" unicode="&#xa2;" horiz-adv-x="416" 
d="M239 92q0 -12 -16 -12q-5 0 -10 3t-5 9v150q-81 5 -132 48t-51 120q0 31 12.5 67t35.5 67.5t57 54t78 26.5v143q0 6 4.5 9t10.5 3q5 0 10.5 -3t5.5 -9v-143q65 -2 99.5 -29.5t34.5 -71.5q0 -23 -9.5 -43t-23.5 -36q-16 -14 -24 -14q-9 0 -9 12q0 4 1 9t5 10
q8 13 9.5 26.5t1.5 26.5q0 16 -6.5 31.5t-18 28t-27 20.5t-33.5 10v-342q31 0 60.5 12t50.5 29q26 19 37 35t16 16q7 0 7 -6t-13 -22t-36 -34t-54 -33t-68 -18v-150zM96 424q0 -29 6 -55.5t19.5 -48t34.5 -36t52 -19.5v339q-30 -6 -51.5 -23t-35 -42t-19.5 -54.5t-6 -60.5z
" />
    <glyph glyph-name="sterling" unicode="&#xa3;" horiz-adv-x="598" 
d="M326 316q-8 -66 -25 -121t-43 -100q25 -8 52 -22t55 -27t57 -22.5t58 -9.5q18 0 33 3t26.5 6t19 6t9.5 3q9 0 9 -6q0 -12 -19.5 -22t-46.5 -17t-56.5 -11t-48.5 -4q-23 0 -46 8.5t-45.5 21t-44 26.5t-41.5 25q-29 -35 -66.5 -55t-82.5 -20q-27 0 -40.5 11t-13.5 27
q0 14 11 29.5t34 28t58 21t83 8.5q2 0 5 -0.5t5 -0.5q17 45 21 100t5 114h-178q-11 0 -15.5 4.5t-4.5 9.5t4.5 9.5t15.5 4.5h178v34t2 34v15h-180q-11 0 -15.5 4.5t-4.5 10.5q0 5 4.5 9.5t15.5 4.5h182q5 66 21.5 126.5t43.5 110.5t63.5 88t83.5 59q2 1 8 1q7 0 7 -6
q0 -5 -7 -12q-39 -20 -65.5 -53t-42.5 -79t-23 -104.5t-7 -130.5h165q10 0 14.5 -4.5t4.5 -9.5q0 -6 -4.5 -10.5t-14.5 -4.5h-165q-2 -22 -2.5 -42.5t-2.5 -40.5h170q10 0 14.5 -4.5t4.5 -9.5t-4.5 -9.5t-14.5 -4.5h-173zM79 -1q48 0 77.5 18t48.5 48q-20 9 -37 9
q-29 0 -51.5 -5.5t-37.5 -14t-23 -18t-8 -18.5q0 -19 31 -19z" />
    <glyph glyph-name="currency" unicode="&#xa4;" horiz-adv-x="889" 
d="M168 316q7 -78 39.5 -140.5t80.5 -106t106.5 -66.5t117.5 -23q51 0 103 8.5t99 30.5t86 60t65 97q1 6 9 6q10 0 10 -12q0 -6 -4 -14q-35 -65 -79 -104t-93 -60t-99 -28t-97 -7q-62 0 -134.5 19t-137 62t-110 111.5t-53.5 166.5h-58q-10 0 -14.5 4.5t-4.5 9.5t4.5 9.5
t14.5 4.5h57v9q0 19 0.5 37.5t2.5 36.5h-44q-9 0 -14 4.5t-5 10.5q0 5 5 9.5t14 4.5h49q18 95 64.5 163.5t111 112.5t140.5 65t151 21q70 0 134.5 -17.5t114 -50.5t79 -81t29.5 -110q0 -36 -10.5 -71.5t-31.5 -67.5t-52.5 -57t-73.5 -40q-27 -9 -39 -9t-12 6t19 16.5
t41.5 33.5t41.5 61.5t19 101.5q0 66 -21.5 116t-57.5 83.5t-83.5 50t-99.5 16.5q-59 0 -119 -21.5t-111.5 -64t-90 -107t-53.5 -150.5h419q10 0 14.5 -4.5t4.5 -9.5q0 -6 -4.5 -10.5t-14.5 -4.5h-423q-2 -17 -2.5 -35t-0.5 -36v-12h410q9 0 14 -4.5t5 -9.5t-5 -9.5t-14 -4.5
h-409z" />
    <glyph glyph-name="yen" unicode="&#xa5;" horiz-adv-x="1007" 
d="M563 336q-1 -12 -1 -22.5v-21.5v-39h351q10 0 14.5 -4.5t4.5 -9.5t-4.5 -10t-14.5 -5h-351v-212q0 -32 -9 -45t-21 -13q-9 0 -19 6t-18 14.5t-13.5 18.5t-5.5 18v27.5v54t0.5 66.5t1.5 65h-381q-10 0 -14.5 5t-4.5 10t4.5 9.5t14.5 4.5h382v37q0 12 -0.5 23t-0.5 23h-381
q-10 0 -14.5 4.5t-4.5 9.5q0 6 4.5 10.5t14.5 4.5h379q-6 102 -26.5 171t-51 111t-69.5 60.5t-81 18.5q-48 0 -83.5 -11t-61 -28t-42 -36t-27 -36t-15.5 -28t-8 -11q-7 0 -7 8q0 7 8.5 23.5t24.5 36.5t39 41t52.5 38.5t64.5 28.5t76 11q12 0 32 -2.5t44 -11.5t51 -27
t52.5 -49.5t47.5 -78t38 -113.5q28 99 61.5 158.5t74 91t87.5 41.5t101 10q36 0 72 -7t65 -27q11 -8 11 -15t-11 -7q-3 0 -9.5 5.5t-19 11.5t-30.5 11.5t-43 5.5q-67 0 -122.5 -36.5t-97.5 -93.5t-68.5 -127t-36.5 -138h345q10 0 14.5 -4.5t4.5 -10.5q0 -5 -4.5 -9.5
t-14.5 -4.5h-350z" />
    <glyph glyph-name="section" unicode="&#xa7;" horiz-adv-x="628" 
d="M52 397q0 57 25.5 94t64.5 60q-26 32 -26 86q0 56 24.5 93t62 59t81 31t82.5 9q37 0 75 -8.5t69.5 -26.5t51.5 -45.5t20 -65.5q0 -17 -6.5 -35t-20.5 -32.5t-35 -23.5t-51 -9q-7 0 -18 1.5t-11 9.5q0 5 11 5t24.5 5.5t25 21t11.5 51.5q0 30 -14 54.5t-36.5 42.5t-51 27.5
t-57.5 9.5q-33 0 -62 -7t-51 -21.5t-34.5 -38t-12.5 -56.5q0 -52 30 -84.5t73.5 -55t90.5 -39t82 -35.5q26 -14 48 -30.5t38 -36.5t25 -46t9 -60q0 -57 -24 -93.5t-62 -58.5q11 -18 17 -40t6 -48q0 -56 -24.5 -93t-62 -59t-81.5 -31t-83 -9q-37 0 -75.5 8.5t-69.5 26.5
t-50.5 46t-19.5 66q0 17 6.5 34.5t20.5 31.5t35 23t51 9q6 0 16.5 -1t10.5 -9q0 -5 -11.5 -7t-25 -9t-24.5 -22t-11 -46q0 -30 14 -54.5t37 -42.5t51.5 -27.5t58.5 -9.5q33 0 61.5 7t50.5 22t34.5 39t12.5 57q0 51 -30 86.5t-73 61t-90.5 44t-82.5 36.5q-26 13 -48 27.5
t-38 33.5t-25 42.5t-9 54.5zM406 234q23 -14 43 -28.5t37 -32.5q26 29 26 78q0 51 -30 86.5t-73 61t-90.5 44t-83.5 36.5q-47 22 -75 50q-30 -29 -30 -81q0 -35 14 -60.5t37 -45t52 -34t60 -26.5t60.5 -23.5t52.5 -24.5z" />
    <glyph glyph-name="dieresis" unicode="&#xa8;" horiz-adv-x="308" 
d="M40 469q0 20 12.5 33t32.5 13q18 0 30.5 -13t12.5 -33q0 -18 -12.5 -30.5t-30.5 -12.5q-20 0 -32.5 12.5t-12.5 30.5zM179 469q0 20 13.5 33t31.5 13t31.5 -13t13.5 -33q0 -18 -13.5 -30.5t-31.5 -12.5t-31.5 12.5t-13.5 30.5z" />
    <glyph glyph-name="copyright" unicode="&#xa9;" horiz-adv-x="889" 
d="M445 803q80 0 153 -32t128.5 -87t88.5 -129t33 -158q0 -80 -31.5 -153t-86.5 -129t-128.5 -89t-157.5 -33q-80 0 -153.5 31.5t-129 86t-88.5 128.5t-33 158q0 81 31.5 154.5t86.5 129.5t129 89t158 33zM445 775q-75 0 -142.5 -29.5t-119 -81t-82 -120.5t-30.5 -147
q0 -74 28.5 -142.5t79 -120.5t118.5 -83t147 -31q74 0 142 29.5t119.5 80.5t82 120t30.5 147q0 74 -28.5 142.5t-79 121t-118.5 83.5t-147 31zM652 299q0 2 4 2q8 0 8 -11q0 -3 -1 -6.5t-2 -6.5q-21 -38 -47.5 -61t-56 -35.5t-59.5 -16.5t-58 -4q-38 0 -83.5 12.5
t-84.5 40.5t-65.5 72.5t-26.5 109.5q0 73 25.5 125.5t66 86.5t91 50t101.5 16q42 0 81 -10.5t69 -30t48 -48t18 -64.5q0 -28 -11 -55.5t-32.5 -49.5t-54.5 -35.5t-77 -13.5q-19 0 -38.5 3.5t-35.5 12.5t-26 23t-10 35q0 15 8 30t21.5 27t31 19.5t37.5 7.5q7 0 7 -4
q0 -3 -9.5 -5.5t-20.5 -9t-20.5 -20t-9.5 -40.5q0 -12 6.5 -23t17.5 -19.5t24 -13t27 -4.5q17 0 34.5 7.5t32 22.5t23.5 37t9 51q0 37 -12 65t-33 47t-48.5 29t-58.5 10q-37 0 -76 -15t-71 -46.5t-52.5 -80t-20.5 -114.5q0 -52 18 -92.5t46.5 -68t63.5 -42t70 -14.5
q31 0 62 5t59 18.5t51.5 36t39.5 58.5z" />
    <glyph glyph-name="ordfeminine" unicode="&#xaa;" horiz-adv-x="482" 
d="M230 -12q-44 0 -80.5 11t-63 32.5t-41 53t-14.5 71.5q0 33 13.5 71t39 70t62.5 53.5t84 21.5q72 0 110.5 -28.5t38.5 -73.5q0 -25 -10.5 -46t-27 -36.5t-38.5 -24t-44 -8.5q-11 0 -17.5 3.5t-6.5 8.5q0 4 4 6.5t15 2.5q26 0 41 8.5t23 21t10 27.5t2 27q0 17 -7 33.5
t-20 29.5t-30 21t-37 8q-36 0 -61.5 -16t-41.5 -41.5t-23.5 -58.5t-7.5 -67q0 -32 7.5 -61t24 -51t43.5 -35.5t67 -13.5q30 0 60.5 12.5t51.5 28.5q20 17 29 27q-8 43 -8 93q0 24 6.5 60t18 69.5t26.5 57t33 23.5q7 0 7 -5q0 -2 -4 -10t-12 -35q-8 -30 -11 -71t-3 -86
q0 -38 2 -72t4 -51q3 -22 8 -36t5 -18q0 -5 -7 -5q-22 0 -37 18.5t-23 49.5q-12 -12 -28.5 -24.5t-37 -22.5t-44.5 -16.5t-50 -6.5z" />
    <glyph glyph-name="guillemotleft" unicode="&#xab;" horiz-adv-x="355" 
d="M100 181q38 -47 58.5 -74.5t20.5 -40.5q0 -5 -5 -5q-8 0 -24 18t-50 47q-27 23 -43.5 36t-16.5 22q0 7 16.5 20.5t43.5 36.5q34 29 50 46t24 17q5 0 5 -5q0 -11 -20.5 -40t-58.5 -78zM236 181q38 -47 59 -74.5t21 -40.5q0 -5 -5 -5q-8 0 -25 18t-50 47q-27 23 -43.5 36
t-16.5 22q0 7 16.5 20.5t43.5 36.5q33 29 50 46t22 17q8 0 8 -5q0 -11 -21 -40t-59 -78z" />
    <glyph glyph-name="logicalnot" unicode="&#xac;" horiz-adv-x="440" 
d="M400 78q0 -9 -5 -14t-10 -5t-9.5 5t-4.5 14v113h-312q-9 0 -14 4.5t-5 9.5t5 10t14 5h326q5 0 10 -4.5t5 -15.5v-122z" />
    <glyph glyph-name="uni00AD" unicode="&#xad;" horiz-adv-x="332" 
d="M59 191q-9 0 -14 4.5t-5 9.5t5 10t14 5h213q11 0 15.5 -5t4.5 -10t-4.5 -9.5t-15.5 -4.5h-213z" />
    <glyph glyph-name="registered" unicode="&#xae;" horiz-adv-x="889" 
d="M785 104q-17 0 -31.5 1.5t-28.5 3.5q-55 -54 -127 -85t-154 -31q-80 0 -153.5 31.5t-129 86t-88.5 128.5t-33 158q0 81 31.5 154.5t86.5 129.5t129 89t158 33q80 0 153 -32t128.5 -87t88.5 -129t33 -158q0 -78 -29.5 -148.5t-80.5 -126.5l22 -4t24 -2q9 0 9 -6
q0 -2 -3 -4t-5 -2zM407 226q-6 -29 -17 -53.5t-27 -43t-36.5 -29t-44.5 -10.5q-3 0 -11 0.5t-8 5.5q0 4 5 4q51 0 71 31.5t20 88.5v24q-34 3 -66 16.5t-56.5 37t-39.5 56t-15 73.5q0 40 16.5 83.5t51 80t89 60t130.5 23.5q54 0 94 -16.5t66 -41t38.5 -53t12.5 -53.5
q0 -39 -14.5 -68t-38.5 -49.5t-54.5 -32.5t-62.5 -17q26 -26 49.5 -56t47 -59t48.5 -54t54 -40q51 51 80 118t29 145q0 74 -28.5 142.5t-79 121t-118.5 83.5t-147 31q-75 0 -142.5 -29.5t-119 -81t-82 -120.5t-30.5 -147q0 -74 28.5 -142.5t79 -120.5t118.5 -83t147 -31
q69 0 132.5 25.5t114.5 70.5q-48 14 -81 41t-57 58.5t-43 64.5t-38 60h-12q-26 0 -45 3q-1 -23 -1 -45t-2 -42q17 2 33 8.5t30 15.5q2 2 9 2q3 0 3 -2q0 -4 -5 -8q-39 -23 -73 -26zM454 598q-12 -11 -19 -30.5t-11 -45.5t-5.5 -56.5t-2.5 -61.5q9 -2 19.5 -5.5t18.5 -8.5
q24 -16 46 -37q41 7 65.5 25.5t37 41.5t16.5 46.5t4 41.5q0 29 -11 57t-32 50t-51.5 35.5t-68.5 13.5q-47 0 -86 -19t-67 -52t-43.5 -78t-15.5 -96q0 -26 5 -53.5t17.5 -50.5t34.5 -39t55 -20q0 13 1 28t1.5 29.5t1 27t0.5 19.5q-34 17 -34 35q0 7 9.5 10.5t25.5 4.5
q2 71 17.5 112.5t38.5 64.5q13 11 29 21t22 10q2 0 2 -5q0 -2 -7.5 -6t-12.5 -9zM415 354q10 -4 19 -5t14 -1h18q-11 14 -23 25t-28 18v-37zM364 402q-6 0 -14 -2t-8 -9q0 -5 6.5 -9.5t15.5 -9.5v30z" />
    <glyph glyph-name="macron" unicode="&#xaf;" horiz-adv-x="364" 
d="M59 451q-9 0 -14 4.5t-5 10.5q0 5 5 9.5t14 4.5h246q10 0 14.5 -4.5t4.5 -9.5q0 -6 -4.5 -10.5t-14.5 -4.5h-246z" />
    <glyph glyph-name="degree" unicode="&#xb0;" horiz-adv-x="239" 
d="M146 647q-11 0 -15 -3q-2 -1 -5 -1q-1 0 -2 -1q-5 0 -5 7q0 5 9 10t22 5q14 0 27 -7t23 -18.5t16 -27.5t6 -34q0 -42 -24.5 -71.5t-78.5 -29.5q-45 0 -74 23.5t-29 68.5q0 21 8.5 40t21 33t27.5 22t28 8q4 0 7.5 -1t3.5 -6q0 -3 -3.5 -4.5t-7.5 -3.5q-11 -5 -20 -15
t-15 -22t-9 -24.5t-3 -24.5q0 -36 17 -57t48 -21q16 0 29 7t21 18.5t12.5 25.5t4.5 28q0 26 -5 41t-11.5 23t-13.5 10t-10 2z" />
    <glyph glyph-name="plusminus" unicode="&#xb1;" horiz-adv-x="468" 
d="M220 223h-161q-9 0 -14 4.5t-5 10.5q0 5 5 9.5t14 4.5h161v96q0 10 4.5 14.5t9.5 4.5t9.5 -4.5t4.5 -14.5v-96h161q9 0 14 -4.5t5 -9.5q0 -6 -5 -10.5t-14 -4.5h-161v-97q0 -9 -4.5 -14t-9.5 -5t-9.5 5t-4.5 14v97zM59 40q-9 0 -14 4.5t-5 9.5t5 9.5t14 4.5h350
q9 0 14 -4.5t5 -9.5t-5 -9.5t-14 -4.5h-350z" />
    <glyph glyph-name="acute" unicode="&#xb4;" horiz-adv-x="259" 
d="M155 583q6 -1 15 -6.5t18 -13t17.5 -16t14.5 -17.5q-95 -84 -168 -104l-12 13q29 26 61 64t54 80z" />
    <glyph glyph-name="mu" unicode="&#x3bc;" horiz-adv-x="838" 
d="M514 -23h6.5t7.5 1q-28 35 -50 81.5t-22 102.5q0 38 15.5 67t40.5 48.5t57.5 29.5t65.5 10t64.5 -10t56 -30.5t39.5 -51.5t15 -73q0 -36 -18 -67.5t-49 -56.5t-72.5 -42.5t-87.5 -25.5q16 -15 35 -30t40 -32q69 18 132.5 32t111.5 14t70.5 -21t22.5 -47q0 -20 -9.5 -34
t-25 -22.5t-37 -12.5t-45.5 -4q-30 0 -62 5t-61.5 13.5t-54 19t-39.5 21.5q-36 -7 -71 -16t-71.5 -17.5t-74.5 -14t-78 -5.5q-74 0 -134.5 18.5t-104 50t-67.5 72.5t-24 87q0 57 41 118t129 115q23 60 78 106t120 72q-32 9 -60.5 23.5t-51 34.5t-35.5 46t-13 59
q0 29 16.5 65t51.5 67.5t88.5 52.5t127.5 21q37 0 72 -10t63 -28t45 -44t17 -58q0 -24 -11.5 -47.5t-32.5 -42.5t-50 -31t-63 -12q-10 0 -21.5 0.5t-22 3t-17.5 6t-7 9.5q0 9 10 9q5 0 14.5 -4.5t23.5 -4.5q26 0 43.5 12.5t28 31t14.5 40.5t4 41q0 26 -10.5 45.5t-27.5 33
t-39 20t-44 6.5q-48 0 -80.5 -15.5t-52.5 -41.5t-29 -60t-9 -70q0 -54 32.5 -89t79.5 -53q37 8 68 8q9 0 25 -1t32 -4t27.5 -8.5t11.5 -14.5q0 -7 -7.5 -11t-18 -5.5t-22.5 -2t-21 -0.5q-22 0 -49 2.5t-56 8.5q-33 -17 -60.5 -44t-47 -60t-30.5 -69t-11 -70
q0 -54 20.5 -94.5t52 -67.5t69.5 -40.5t73 -13.5zM194 204q0 20 5 42q-69 -47 -100 -99.5t-31 -102.5q0 -43 20.5 -81.5t57.5 -67t88.5 -45.5t114.5 -17q25 0 58.5 5t70 13.5t74 18t70.5 18.5q-11 8 -32 25.5t-44 42.5q-9 0 -18.5 -1t-19.5 -1q-75 0 -133.5 18t-98.5 51
t-61 79t-21 102zM500 166q0 -62 16 -105t47 -79q31 6 59.5 19t50 33.5t34 47.5t12.5 61q0 35 -10.5 61.5t-27 44.5t-37.5 27.5t-43 9.5q-40 0 -70.5 -30t-30.5 -90zM901 -92q-37 0 -89 -11t-112 -25q12 -8 33.5 -16t48.5 -15.5t55.5 -12t54.5 -4.5q32 0 53 8.5t21 31.5
q0 17 -17 30.5t-48 13.5zM528 455q-19 0 -32 -3q20 -5 40.5 -7.5t39.5 -2.5q5 0 10.5 0.5t5.5 2.5q0 1 -6.5 3t-16 3.5t-20.5 2.5t-21 1z" />
    <glyph glyph-name="mu" unicode="&#xb5;" horiz-adv-x="838" 
d="M514 -23h6.5t7.5 1q-28 35 -50 81.5t-22 102.5q0 38 15.5 67t40.5 48.5t57.5 29.5t65.5 10t64.5 -10t56 -30.5t39.5 -51.5t15 -73q0 -36 -18 -67.5t-49 -56.5t-72.5 -42.5t-87.5 -25.5q16 -15 35 -30t40 -32q69 18 132.5 32t111.5 14t70.5 -21t22.5 -47q0 -20 -9.5 -34
t-25 -22.5t-37 -12.5t-45.5 -4q-30 0 -62 5t-61.5 13.5t-54 19t-39.5 21.5q-36 -7 -71 -16t-71.5 -17.5t-74.5 -14t-78 -5.5q-74 0 -134.5 18.5t-104 50t-67.5 72.5t-24 87q0 57 41 118t129 115q23 60 78 106t120 72q-32 9 -60.5 23.5t-51 34.5t-35.5 46t-13 59
q0 29 16.5 65t51.5 67.5t88.5 52.5t127.5 21q37 0 72 -10t63 -28t45 -44t17 -58q0 -24 -11.5 -47.5t-32.5 -42.5t-50 -31t-63 -12q-10 0 -21.5 0.5t-22 3t-17.5 6t-7 9.5q0 9 10 9q5 0 14.5 -4.5t23.5 -4.5q26 0 43.5 12.5t28 31t14.5 40.5t4 41q0 26 -10.5 45.5t-27.5 33
t-39 20t-44 6.5q-48 0 -80.5 -15.5t-52.5 -41.5t-29 -60t-9 -70q0 -54 32.5 -89t79.5 -53q37 8 68 8q9 0 25 -1t32 -4t27.5 -8.5t11.5 -14.5q0 -7 -7.5 -11t-18 -5.5t-22.5 -2t-21 -0.5q-22 0 -49 2.5t-56 8.5q-33 -17 -60.5 -44t-47 -60t-30.5 -69t-11 -70
q0 -54 20.5 -94.5t52 -67.5t69.5 -40.5t73 -13.5zM194 204q0 20 5 42q-69 -47 -100 -99.5t-31 -102.5q0 -43 20.5 -81.5t57.5 -67t88.5 -45.5t114.5 -17q25 0 58.5 5t70 13.5t74 18t70.5 18.5q-11 8 -32 25.5t-44 42.5q-9 0 -18.5 -1t-19.5 -1q-75 0 -133.5 18t-98.5 51
t-61 79t-21 102zM500 166q0 -62 16 -105t47 -79q31 6 59.5 19t50 33.5t34 47.5t12.5 61q0 35 -10.5 61.5t-27 44.5t-37.5 27.5t-43 9.5q-40 0 -70.5 -30t-30.5 -90zM901 -92q-37 0 -89 -11t-112 -25q12 -8 33.5 -16t48.5 -15.5t55.5 -12t54.5 -4.5q32 0 53 8.5t21 31.5
q0 17 -17 30.5t-48 13.5zM528 455q-19 0 -32 -3q20 -5 40.5 -7.5t39.5 -2.5q5 0 10.5 0.5t5.5 2.5q0 1 -6.5 3t-16 3.5t-20.5 2.5t-21 1z" />
    <glyph glyph-name="paragraph" unicode="&#xb6;" horiz-adv-x="665" 
d="M260 -142q-6 -2 -10 -2q-11 0 -11 6t11 11q80 35 80 186v31t2 56q-6 -1 -12 -1h-13q-45 0 -94.5 16t-90.5 45.5t-67.5 71.5t-26.5 93q0 61 24.5 117t68 98.5t102.5 68t129 25.5q53 0 110 -8.5t110.5 -19t100.5 -19t79 -8.5q29 0 50 4t37.5 12t29.5 21.5t27 32.5q2 4 6 9
t9 5q1 0 3 -0.5t2 -4.5q0 -2 -3 -12t-11.5 -24t-25.5 -30t-45 -29.5t-69 -22.5t-98 -9q-18 0 -39.5 2.5t-44.5 4.5q-8 -24 -12 -61t-6.5 -81.5t-4 -93.5t-4.5 -97q13 15 21.5 30t13.5 26t8 18t5 7q7 0 7 -9q0 -1 -2.5 -10t-8.5 -22.5t-17 -30.5t-29 -34q-2 -17 -3.5 -33
t-3.5 -31q-17 -104 -52 -162.5t-88 -77.5q-6 -2 -10 -2q-11 0 -11 7q0 2 2 4.5t9 4.5q80 35 80 186v21.5t1 32.5q-30 -12 -69 -21q-2 -16 -3 -29.5t-3 -27.5q-17 -104 -52 -162t-88 -78zM92 428q0 -57 22 -103.5t56.5 -80.5t77 -53.5t84.5 -21.5l2 46t1.5 43t0.5 35v21
q0 63 8 111.5t20 85t27 61.5t29 40q-37 6 -72 11t-66 5q-36 0 -70 -13t-60.5 -38.5t-43 -63t-16.5 -85.5zM546 590q-24 4 -49 8.5t-51 9.5q-13 -19 -19 -66.5t-9 -109t-5 -130t-6 -128.5q40 8 69 20q1 18 1.5 36t1 34.5t1 29.5t0.5 20q0 106 20 173t46 103z" />
    <glyph glyph-name="periodcentered" unicode="&#xb7;" horiz-adv-x="212" 
d="M40 294q0 27 19.5 46.5t47.5 19.5q27 0 46.5 -19.5t19.5 -46.5q0 -28 -19.5 -47.5t-46.5 -19.5q-28 0 -47.5 19.5t-19.5 47.5z" />
    <glyph glyph-name="cedilla" unicode="&#xb8;" horiz-adv-x="305" 
d="M137 20l27 -14l-16 -47q21 -5 42.5 -22.5t21.5 -48.5q0 -34 -22.5 -58t-50.5 -45q-5 -2 -7 -3.5t-5 -1.5q-6 0 -6 5q0 7 10 15q16 14 22.5 30t6.5 36q0 26 -19.5 40.5t-38.5 19.5z" />
    <glyph glyph-name="ordmasculine" unicode="&#xba;" horiz-adv-x="463" 
d="M220 373q0 -5 -14.5 -7t-30.5 -11q-22 -13 -38.5 -34.5t-27 -46t-16 -50.5t-5.5 -48q0 -78 38 -124t106 -46q36 0 63.5 15.5t46 40.5t27.5 56t9 63q0 44 -7.5 73t-18.5 48q-18 -23 -41.5 -33.5t-45.5 -10.5q-25 0 -43.5 13.5t-18.5 36.5q0 16 8.5 27t20.5 17.5t24.5 9
t20.5 2.5q36 0 65.5 -13.5t51 -36.5t33.5 -54t12 -67q0 -41 -12 -78t-37 -65t-64.5 -44.5t-93.5 -16.5q-45 0 -83 12t-66 35t-43.5 57.5t-15.5 78.5q0 43 18 80.5t45.5 65.5t59 44t58.5 16q5 0 10 -0.5t5 -4.5zM268 270q18 0 38.5 9.5t37.5 31.5q-18 23 -38.5 29.5
t-35.5 6.5q-28 0 -39 -13t-11 -27q0 -17 13.5 -27t34.5 -10z" />
    <glyph glyph-name="guillemotright" unicode="&#xbb;" horiz-adv-x="355" 
d="M256 184q-38 47 -59 74.5t-21 40.5q0 5 5 5q8 0 24 -18t51 -47q27 -23 43.5 -36t16.5 -22q0 -7 -16.5 -20.5t-43.5 -36.5q-35 -29 -51 -46t-24 -17q-5 0 -5 5q0 11 21 40t59 78zM119 184q-38 47 -58.5 74.5t-20.5 40.5q0 5 4 5q8 0 25.5 -18t49.5 -47q27 -23 43.5 -36
t16.5 -22q0 -7 -16.5 -20.5t-43.5 -36.5q-32 -29 -49.5 -46t-22.5 -17q-7 0 -7 5q0 11 20.5 40t58.5 78z" />
    <glyph glyph-name="questiondown" unicode="&#xbf;" horiz-adv-x="347" 
d="M361 -172q0 28 -6.5 44t-14 24.5t-14 12.5t-6.5 8q0 7 15.5 11t28.5 4q19 0 35 -8t27 -21t17.5 -30.5t6.5 -35.5q0 -34 -18 -60.5t-47 -44.5t-67.5 -27.5t-78.5 -9.5q-46 0 -91 12t-80 35t-57 58t-22 81q0 37 19.5 71t48.5 64.5t63 57.5t63 49.5t48.5 42t19.5 34.5
q0 18 -6.5 32.5t-6.5 17.5t6 3q5 0 11.5 -9t12.5 -22t10 -28t4 -26q0 -17 -14 -35t-35.5 -38t-46.5 -43.5t-46.5 -52t-35.5 -63t-14 -76.5q0 -28 11.5 -54.5t31.5 -47t47 -33t59 -12.5q29 0 51.5 10t38.5 26t24 37t8 42zM314 373q0 -27 -19.5 -46.5t-46.5 -19.5
q-28 0 -47.5 19.5t-19.5 46.5q0 28 19.5 47.5t47.5 19.5q27 0 46.5 -19.5t19.5 -47.5z" />
    <glyph glyph-name="Agrave" unicode="&#xc0;" horiz-adv-x="940" 
d="M889 505q0 -80 1.5 -153.5t1.5 -158.5q0 -39 -6.5 -78.5t-18 -71t-26 -51.5t-29.5 -20q-7 0 -7 5q0 9 1.5 21t4 31t4 47t1.5 69v34.5t-1 31.5q-33 -81 -79.5 -130.5t-99 -77t-106.5 -37t-102 -9.5q-39 0 -83.5 10t-87.5 30.5t-82.5 52t-69 73.5t-47.5 95.5t-18 118.5
q0 102 39.5 185.5t104 143t146.5 92.5t167 33q63 0 112 -14.5t85.5 -38t62 -53.5t41.5 -60.5t23 -58.5t7 -48v-2q9 34 20 62.5t21.5 49t20 32t15.5 11.5q7 0 7 -5q0 -2 -5 -10.5t-11 -35.5q-5 -21 -6 -51t-1 -64zM812 397q0 14 1 27.5t3 27.5q-12 -32 -33.5 -58t-49 -44
t-58.5 -27.5t-61 -9.5q-23 0 -49.5 8t-49.5 24.5t-38.5 42t-15.5 60.5q0 26 9.5 50.5t27 43t42 29.5t54.5 11q2 0 4 -3t2 -5q0 -5 -13.5 -10.5t-29 -18.5t-29 -37t-13.5 -66q0 -54 32.5 -80t78.5 -26q27 0 55.5 8t52 28t39 55.5t15.5 89.5q0 55 -24 102t-63 81t-89.5 53
t-103.5 19q-52 0 -99 -18.5t-86.5 -50.5t-71.5 -73.5t-54.5 -87.5t-34.5 -93.5t-12 -90.5q0 -87 24.5 -157t65.5 -119t95.5 -75.5t114.5 -26.5q46 0 101 16t106.5 51.5t94 93t62.5 141.5q-2 26 -2 53.5v61.5zM445 1004q23 -42 55 -80t60 -64l-12 -13q-35 10 -77.5 36
t-88.5 69q5 8 13 17t17 16.5t18 12.5t15 6z" />
    <glyph glyph-name="Aacute" unicode="&#xc1;" horiz-adv-x="940" 
d="M889 505q0 -80 1.5 -153.5t1.5 -158.5q0 -39 -6.5 -78.5t-18 -71t-26 -51.5t-29.5 -20q-7 0 -7 5q0 9 1.5 21t4 31t4 47t1.5 69v34.5t-1 31.5q-33 -81 -79.5 -130.5t-99 -77t-106.5 -37t-102 -9.5q-39 0 -83.5 10t-87.5 30.5t-82.5 52t-69 73.5t-47.5 95.5t-18 118.5
q0 102 39.5 185.5t104 143t146.5 92.5t167 33q63 0 112 -14.5t85.5 -38t62 -53.5t41.5 -60.5t23 -58.5t7 -48v-2q9 34 20 62.5t21.5 49t20 32t15.5 11.5q7 0 7 -5q0 -2 -5 -10.5t-11 -35.5q-5 -21 -6 -51t-1 -64zM812 397q0 14 1 27.5t3 27.5q-12 -32 -33.5 -58t-49 -44
t-58.5 -27.5t-61 -9.5q-23 0 -49.5 8t-49.5 24.5t-38.5 42t-15.5 60.5q0 26 9.5 50.5t27 43t42 29.5t54.5 11q2 0 4 -3t2 -5q0 -5 -13.5 -10.5t-29 -18.5t-29 -37t-13.5 -66q0 -54 32.5 -80t78.5 -26q27 0 55.5 8t52 28t39 55.5t15.5 89.5q0 55 -24 102t-63 81t-89.5 53
t-103.5 19q-52 0 -99 -18.5t-86.5 -50.5t-71.5 -73.5t-54.5 -87.5t-34.5 -93.5t-12 -90.5q0 -87 24.5 -157t65.5 -119t95.5 -75.5t114.5 -26.5q46 0 101 16t106.5 51.5t94 93t62.5 141.5q-2 26 -2 53.5v61.5zM564 1004q6 -1 15 -6t18 -12.5t17.5 -16.5t13.5 -17
q-47 -43 -89.5 -69t-77.5 -36l-12 13q28 26 60 64t55 80z" />
    <glyph glyph-name="Acircumflex" unicode="&#xc2;" horiz-adv-x="940" 
d="M889 505q0 -80 1.5 -153.5t1.5 -158.5q0 -39 -6.5 -78.5t-18 -71t-26 -51.5t-29.5 -20q-7 0 -7 5q0 9 1.5 21t4 31t4 47t1.5 69v34.5t-1 31.5q-33 -81 -79.5 -130.5t-99 -77t-106.5 -37t-102 -9.5q-39 0 -83.5 10t-87.5 30.5t-82.5 52t-69 73.5t-47.5 95.5t-18 118.5
q0 102 39.5 185.5t104 143t146.5 92.5t167 33q63 0 112 -14.5t85.5 -38t62 -53.5t41.5 -60.5t23 -58.5t7 -48v-2q9 34 20 62.5t21.5 49t20 32t15.5 11.5q7 0 7 -5q0 -2 -5 -10.5t-11 -35.5q-5 -21 -6 -51t-1 -64zM812 397q0 14 1 27.5t3 27.5q-12 -32 -33.5 -58t-49 -44
t-58.5 -27.5t-61 -9.5q-23 0 -49.5 8t-49.5 24.5t-38.5 42t-15.5 60.5q0 26 9.5 50.5t27 43t42 29.5t54.5 11q2 0 4 -3t2 -5q0 -5 -13.5 -10.5t-29 -18.5t-29 -37t-13.5 -66q0 -54 32.5 -80t78.5 -26q27 0 55.5 8t52 28t39 55.5t15.5 89.5q0 55 -24 102t-63 81t-89.5 53
t-103.5 19q-52 0 -99 -18.5t-86.5 -50.5t-71.5 -73.5t-54.5 -87.5t-34.5 -93.5t-12 -90.5q0 -87 24.5 -157t65.5 -119t95.5 -75.5t114.5 -26.5q46 0 101 16t106.5 51.5t94 93t62.5 141.5q-2 26 -2 53.5v61.5zM542 1019q4 -21 13.5 -45.5t22 -47.5t26 -42t24.5 -28h-39
q-5 3 -17 16t-25.5 29t-26 32.5t-18.5 27.5q-10 -12 -26.5 -29t-33 -32.5t-31 -28t-21.5 -15.5h-41q13 9 31 27.5t36 41.5t35 47.5t29 46.5h62z" />
    <glyph glyph-name="Atilde" unicode="&#xc3;" horiz-adv-x="940" 
d="M889 505q0 -80 1.5 -153.5t1.5 -158.5q0 -39 -6.5 -78.5t-18 -71t-26 -51.5t-29.5 -20q-7 0 -7 5q0 9 1.5 21t4 31t4 47t1.5 69v34.5t-1 31.5q-33 -81 -79.5 -130.5t-99 -77t-106.5 -37t-102 -9.5q-39 0 -83.5 10t-87.5 30.5t-82.5 52t-69 73.5t-47.5 95.5t-18 118.5
q0 102 39.5 185.5t104 143t146.5 92.5t167 33q63 0 112 -14.5t85.5 -38t62 -53.5t41.5 -60.5t23 -58.5t7 -48v-2q9 34 20 62.5t21.5 49t20 32t15.5 11.5q7 0 7 -5q0 -2 -5 -10.5t-11 -35.5q-5 -21 -6 -51t-1 -64zM812 397q0 14 1 27.5t3 27.5q-12 -32 -33.5 -58t-49 -44
t-58.5 -27.5t-61 -9.5q-23 0 -49.5 8t-49.5 24.5t-38.5 42t-15.5 60.5q0 26 9.5 50.5t27 43t42 29.5t54.5 11q2 0 4 -3t2 -5q0 -5 -13.5 -10.5t-29 -18.5t-29 -37t-13.5 -66q0 -54 32.5 -80t78.5 -26q27 0 55.5 8t52 28t39 55.5t15.5 89.5q0 55 -24 102t-63 81t-89.5 53
t-103.5 19q-52 0 -99 -18.5t-86.5 -50.5t-71.5 -73.5t-54.5 -87.5t-34.5 -93.5t-12 -90.5q0 -87 24.5 -157t65.5 -119t95.5 -75.5t114.5 -26.5q46 0 101 16t106.5 51.5t94 93t62.5 141.5q-2 26 -2 53.5v61.5zM643 924q-6 -11 -15.5 -23t-21 -22.5t-24.5 -17.5t-25 -7
q-17 0 -34.5 9t-34 19.5t-31 19.5t-26.5 9q-14 0 -35.5 -4.5t-41.5 -17.5l-10 7q6 11 16 23.5t22 23.5t25.5 18t25.5 7q15 0 32 -8.5t33.5 -19t32 -19t26.5 -8.5q14 0 35 2.5t44 16.5z" />
    <glyph glyph-name="Adieresis" unicode="&#xc4;" horiz-adv-x="940" 
d="M889 505q0 -80 1.5 -153.5t1.5 -158.5q0 -39 -6.5 -78.5t-18 -71t-26 -51.5t-29.5 -20q-7 0 -7 5q0 9 1.5 21t4 31t4 47t1.5 69v34.5t-1 31.5q-33 -81 -79.5 -130.5t-99 -77t-106.5 -37t-102 -9.5q-39 0 -83.5 10t-87.5 30.5t-82.5 52t-69 73.5t-47.5 95.5t-18 118.5
q0 102 39.5 185.5t104 143t146.5 92.5t167 33q63 0 112 -14.5t85.5 -38t62 -53.5t41.5 -60.5t23 -58.5t7 -48v-2q9 34 20 62.5t21.5 49t20 32t15.5 11.5q7 0 7 -5q0 -2 -5 -10.5t-11 -35.5q-5 -21 -6 -51t-1 -64zM812 397q0 14 1 27.5t3 27.5q-12 -32 -33.5 -58t-49 -44
t-58.5 -27.5t-61 -9.5q-23 0 -49.5 8t-49.5 24.5t-38.5 42t-15.5 60.5q0 26 9.5 50.5t27 43t42 29.5t54.5 11q2 0 4 -3t2 -5q0 -5 -13.5 -10.5t-29 -18.5t-29 -37t-13.5 -66q0 -54 32.5 -80t78.5 -26q27 0 55.5 8t52 28t39 55.5t15.5 89.5q0 55 -24 102t-63 81t-89.5 53
t-103.5 19q-52 0 -99 -18.5t-86.5 -50.5t-71.5 -73.5t-54.5 -87.5t-34.5 -93.5t-12 -90.5q0 -87 24.5 -157t65.5 -119t95.5 -75.5t114.5 -26.5q46 0 101 16t106.5 51.5t94 93t62.5 141.5q-2 26 -2 53.5v61.5zM500 905q0 19 14 31.5t32 12.5t31 -12.5t13 -31.5t-13 -32
t-31 -13t-32 13t-14 32zM361 905q0 19 13 31.5t33 12.5q18 0 30.5 -12.5t12.5 -31.5t-12.5 -32t-30.5 -13q-20 0 -33 13t-13 32z" />
    <glyph glyph-name="Aring" unicode="&#xc5;" horiz-adv-x="940" 
d="M889 505q0 -80 1.5 -153.5t1.5 -158.5q0 -39 -6.5 -78.5t-18 -71t-26 -51.5t-29.5 -20q-7 0 -7 5q0 9 1.5 21t4 31t4 47t1.5 69v34.5t-1 31.5q-33 -81 -79.5 -130.5t-99 -77t-106.5 -37t-102 -9.5q-39 0 -83.5 10t-87.5 30.5t-82.5 52t-69 73.5t-47.5 95.5t-18 118.5
q0 102 39.5 185.5t104 143t146.5 92.5t167 33q63 0 112 -14.5t85.5 -38t62 -53.5t41.5 -60.5t23 -58.5t7 -48v-2q9 34 20 62.5t21.5 49t20 32t15.5 11.5q7 0 7 -5q0 -2 -5 -10.5t-11 -35.5q-5 -21 -6 -51t-1 -64zM812 397q0 14 1 27.5t3 27.5q-12 -32 -33.5 -58t-49 -44
t-58.5 -27.5t-61 -9.5q-23 0 -49.5 8t-49.5 24.5t-38.5 42t-15.5 60.5q0 26 9.5 50.5t27 43t42 29.5t54.5 11q2 0 4 -3t2 -5q0 -5 -13.5 -10.5t-29 -18.5t-29 -37t-13.5 -66q0 -54 32.5 -80t78.5 -26q27 0 55.5 8t52 28t39 55.5t15.5 89.5q0 55 -24 102t-63 81t-89.5 53
t-103.5 19q-52 0 -99 -18.5t-86.5 -50.5t-71.5 -73.5t-54.5 -87.5t-34.5 -93.5t-12 -90.5q0 -87 24.5 -157t65.5 -119t95.5 -75.5t114.5 -26.5q46 0 101 16t106.5 51.5t94 93t62.5 141.5q-2 26 -2 53.5v61.5zM402 928q0 41 28 68.5t68 27.5q41 0 68.5 -27.5t27.5 -68.5
q0 -40 -27.5 -68t-68.5 -28q-40 0 -68 28t-28 68zM443 928q0 -24 16 -40t39 -16t39 16t16 40q0 23 -16 39t-39 16t-39 -16t-16 -39z" />
    <glyph glyph-name="AE" unicode="&#xc6;" horiz-adv-x="1474" 
d="M982 606q0 -54 32.5 -89t79.5 -53q37 8 68 8q9 0 25 -1t32 -4t27.5 -8.5t11.5 -14.5q0 -7 -7.5 -11t-18 -5.5t-22.5 -2t-21 -0.5q-22 0 -49 2.5t-56 8.5q-33 -17 -60.5 -44t-47 -60t-30.5 -69t-11 -70q0 -54 20.5 -94.5t52 -67.5t69.5 -40.5t73 -13.5q39 0 75.5 10.5
t65.5 31.5t46.5 52t17.5 72q0 25 -8.5 49t-24.5 42.5t-39 29.5t-51 11q-25 0 -43 -8.5t-30 -22t-17.5 -30.5t-5.5 -33q0 -24 12.5 -43t38.5 -19q18 0 18 -10q0 -4 -6.5 -8t-17.5 -4q-45 0 -67 24.5t-22 56.5q0 21 10 42.5t30 38.5t51 28t73 11q39 0 73.5 -9.5t60.5 -27.5
t41 -45.5t15 -63.5q0 -43 -25.5 -79.5t-67.5 -62.5t-96.5 -41t-112.5 -15q-97 0 -164.5 29t-105.5 81q-12 -40 -28.5 -66t-33.5 -26q-7 0 -7 5q0 9 1.5 21t4 31t4 47t1.5 69v34.5t-1 31.5q-33 -81 -79.5 -130.5t-99 -77t-106.5 -37t-102 -9.5q-39 0 -83.5 10t-87.5 30.5
t-82.5 52t-69 73.5t-47.5 95.5t-18 118.5q0 102 39.5 185.5t104 143t146.5 92.5t167 33q63 0 112 -14.5t85.5 -38t62 -53.5t41.5 -60.5t23 -59t7 -49.5q13 58 31.5 112.5t54.5 96.5t95.5 67t154.5 25q37 0 72 -10t63 -28t45 -44t17 -58q0 -24 -11.5 -47.5t-32.5 -42.5
t-50 -31t-63 -12q-10 0 -21.5 0.5t-22 3t-17.5 6t-7 9.5q0 9 10 9q5 0 14.5 -4.5t23.5 -4.5q26 0 43.5 12.5t28 31t14.5 40.5t4 41q0 26 -10.5 45.5t-27.5 33t-39 20t-44 6.5q-48 0 -80.5 -15.5t-52.5 -41.5t-29 -60t-9 -70zM814 282q-2 21 -2 41.5v42.5t0.5 43.5t3.5 42.5
q-12 -32 -33.5 -58t-49 -44t-58.5 -27.5t-61 -9.5q-23 0 -49.5 8t-49.5 24.5t-38.5 42t-15.5 60.5q0 26 9.5 50.5t27 43t42 29.5t54.5 11q2 0 4 -3t2 -5q0 -5 -13.5 -10.5t-29 -18.5t-29 -37t-13.5 -66q0 -54 32.5 -80t78.5 -26q27 0 55.5 8t52 28t39 55.5t15.5 89.5
q0 55 -24 102t-63 81t-89.5 53t-103.5 19q-52 0 -99 -18.5t-86.5 -50.5t-71.5 -73.5t-54.5 -87.5t-34.5 -93.5t-12 -90.5q0 -87 24.5 -157t65.5 -119t95.5 -75.5t114.5 -26.5q46 0 101 16t106.5 51.5t94 93t62.5 141.5zM890 347q30 33 69 58.5t81 42.5q-48 14 -90.5 41
t-60.5 69zM1164 455q-19 0 -32 -3q20 -5 40.5 -7.5t39.5 -2.5q5 0 10.5 0.5t5.5 2.5q0 1 -6.5 3t-16 3.5t-20.5 2.5t-21 1z" />
    <glyph glyph-name="Ccedilla" unicode="&#xc7;" horiz-adv-x="844" 
d="M432 -42q-65 5 -135.5 29.5t-130 72t-98 120t-38.5 173.5q0 122 42.5 210t110.5 144.5t153 83.5t169 27q70 0 135 -17.5t114.5 -50.5t79 -81t29.5 -110q0 -46 -18 -92t-54 -82.5t-90 -59.5t-126 -23q-32 0 -65 6t-60 20.5t-44 38.5t-17 59q0 27 13.5 52.5t36 46t52 32.5
t62.5 12q8 0 11.5 -3t3.5 -6q0 -5 -16 -8.5t-35 -14t-35 -34t-16 -69.5q0 -26 11 -46.5t28.5 -34.5t40 -22t46.5 -8q26 0 56 12.5t56 38.5t43 65.5t17 93.5q0 66 -21.5 116t-57.5 83.5t-83 50t-99 16.5q-67 0 -135 -27.5t-123 -83t-89.5 -138.5t-34.5 -194
q0 -86 30.5 -155.5t79.5 -118.5t111 -75.5t125 -26.5q51 0 103 8.5t98.5 30.5t86 60t65.5 97q1 6 8 6q11 0 11 -12q0 -3 -1.5 -7t-3.5 -7q-35 -65 -79 -104t-92.5 -60t-99.5 -28t-99 -7l-14 -40q11 -3 22.5 -8.5t21 -14t15.5 -20t6 -26.5q0 -35 -22.5 -59.5t-50.5 -44.5
q-9 -6 -12 -6q-6 0 -6 5q0 7 9 15q17 14 23 31t6 35q0 27 -19 41.5t-39 18.5z" />
    <glyph glyph-name="Egrave" unicode="&#xc8;" horiz-adv-x="672" 
d="M180 606q0 -54 32.5 -89t80.5 -53q17 4 33.5 6t33.5 2q9 0 25 -1t32 -4t27.5 -8.5t11.5 -14.5q0 -7 -7.5 -11t-18 -5.5t-22 -2t-20.5 -0.5q-22 0 -49.5 2.5t-56.5 8.5q-33 -17 -60.5 -44t-47 -60t-30.5 -69t-11 -70q0 -54 20.5 -94.5t52 -67.5t69.5 -40.5t73 -13.5
q39 0 75.5 10.5t65.5 31.5t46.5 52t17.5 72q0 25 -8.5 49t-24.5 42.5t-38.5 29.5t-50.5 11q-25 0 -43 -8.5t-30 -22t-17.5 -30.5t-5.5 -33q0 -24 12.5 -43t37.5 -19q18 0 18 -10q0 -4 -6 -8t-18 -4q-45 0 -67 24.5t-22 56.5q0 21 10 42.5t30 38.5t51.5 28t73.5 11
q39 0 73 -9.5t60 -27.5t41 -45.5t15 -63.5q0 -43 -25.5 -79.5t-67.5 -62.5t-96.5 -41t-112.5 -15q-75 0 -133 18t-98 51t-61 79t-21 102q0 41 17.5 78.5t46.5 69t67 56t79 40.5q-32 9 -61 23.5t-51 34.5t-35.5 46t-13.5 59q0 29 17 65t51.5 67.5t88 52.5t127.5 21
q37 0 72.5 -10t63 -28t44.5 -44t17 -58q0 -24 -11.5 -47.5t-32.5 -42.5t-50 -31t-63 -12q-9 0 -21 0.5t-22 3t-17 6t-7 9.5q0 9 9 9q5 0 15 -4.5t24 -4.5q26 0 43 12.5t27.5 31t15 40.5t4.5 41q0 26 -10.5 45.5t-27.5 33t-39 20t-44 6.5q-48 0 -81 -15.5t-53 -41.5t-29 -60
t-9 -70zM286 1024q23 -44 55 -81.5t60 -62.5l-12 -15q-35 11 -78 36.5t-89 69.5q10 16 30.5 32.5t33.5 20.5zM362 455q-17 0 -32 -3q20 -5 40.5 -7.5t39.5 -2.5q6 0 11 0.5t5 2.5q0 1 -6 3t-15.5 3.5t-21 2.5t-21.5 1z" />
    <glyph glyph-name="Eacute" unicode="&#xc9;" horiz-adv-x="672" 
d="M180 606q0 -54 32.5 -89t80.5 -53q17 4 33.5 6t33.5 2q9 0 25 -1t32 -4t27.5 -8.5t11.5 -14.5q0 -7 -7.5 -11t-18 -5.5t-22 -2t-20.5 -0.5q-22 0 -49.5 2.5t-56.5 8.5q-33 -17 -60.5 -44t-47 -60t-30.5 -69t-11 -70q0 -54 20.5 -94.5t52 -67.5t69.5 -40.5t73 -13.5
q39 0 75.5 10.5t65.5 31.5t46.5 52t17.5 72q0 25 -8.5 49t-24.5 42.5t-38.5 29.5t-50.5 11q-25 0 -43 -8.5t-30 -22t-17.5 -30.5t-5.5 -33q0 -24 12.5 -43t37.5 -19q18 0 18 -10q0 -4 -6 -8t-18 -4q-45 0 -67 24.5t-22 56.5q0 21 10 42.5t30 38.5t51.5 28t73.5 11
q39 0 73 -9.5t60 -27.5t41 -45.5t15 -63.5q0 -43 -25.5 -79.5t-67.5 -62.5t-96.5 -41t-112.5 -15q-75 0 -133 18t-98 51t-61 79t-21 102q0 41 17.5 78.5t46.5 69t67 56t79 40.5q-32 9 -61 23.5t-51 34.5t-35.5 46t-13.5 59q0 29 17 65t51.5 67.5t88 52.5t127.5 21
q37 0 72.5 -10t63 -28t44.5 -44t17 -58q0 -24 -11.5 -47.5t-32.5 -42.5t-50 -31t-63 -12q-9 0 -21 0.5t-22 3t-17 6t-7 9.5q0 9 9 9q5 0 15 -4.5t24 -4.5q26 0 43 12.5t27.5 31t15 40.5t4.5 41q0 26 -10.5 45.5t-27.5 33t-39 20t-44 6.5q-48 0 -81 -15.5t-53 -41.5t-29 -60
t-9 -70zM404 1018q13 -3 33.5 -19.5t31.5 -33.5q-47 -43 -89.5 -68.5t-78.5 -36.5l-12 14q29 25 61.5 63t53.5 81zM362 455q-17 0 -32 -3q20 -5 40.5 -7.5t39.5 -2.5q6 0 11 0.5t5 2.5q0 1 -6 3t-15.5 3.5t-21 2.5t-21.5 1z" />
    <glyph glyph-name="Ecircumflex" unicode="&#xca;" horiz-adv-x="672" 
d="M180 606q0 -54 32.5 -89t80.5 -53q17 4 33.5 6t33.5 2q9 0 25 -1t32 -4t27.5 -8.5t11.5 -14.5q0 -7 -7.5 -11t-18 -5.5t-22 -2t-20.5 -0.5q-22 0 -49.5 2.5t-56.5 8.5q-33 -17 -60.5 -44t-47 -60t-30.5 -69t-11 -70q0 -54 20.5 -94.5t52 -67.5t69.5 -40.5t73 -13.5
q39 0 75.5 10.5t65.5 31.5t46.5 52t17.5 72q0 25 -8.5 49t-24.5 42.5t-38.5 29.5t-50.5 11q-25 0 -43 -8.5t-30 -22t-17.5 -30.5t-5.5 -33q0 -24 12.5 -43t37.5 -19q18 0 18 -10q0 -4 -6 -8t-18 -4q-45 0 -67 24.5t-22 56.5q0 21 10 42.5t30 38.5t51.5 28t73.5 11
q39 0 73 -9.5t60 -27.5t41 -45.5t15 -63.5q0 -43 -25.5 -79.5t-67.5 -62.5t-96.5 -41t-112.5 -15q-75 0 -133 18t-98 51t-61 79t-21 102q0 41 17.5 78.5t46.5 69t67 56t79 40.5q-32 9 -61 23.5t-51 34.5t-35.5 46t-13.5 59q0 29 17 65t51.5 67.5t88 52.5t127.5 21
q37 0 72.5 -10t63 -28t44.5 -44t17 -58q0 -24 -11.5 -47.5t-32.5 -42.5t-50 -31t-63 -12q-9 0 -21 0.5t-22 3t-17 6t-7 9.5q0 9 9 9q5 0 15 -4.5t24 -4.5q26 0 43 12.5t27.5 31t15 40.5t4.5 41q0 26 -10.5 45.5t-27.5 33t-39 20t-44 6.5q-48 0 -81 -15.5t-53 -41.5t-29 -60
t-9 -70zM380 1025q4 -21 13.5 -45.5t21.5 -47.5t25 -41.5t24 -27.5h-37q-6 3 -18 15.5t-25.5 28.5t-25.5 32.5t-18 27.5q-10 -12 -26.5 -28.5t-33 -32.5t-31 -28t-21.5 -15h-41q13 9 30.5 27.5t35.5 41t35 47t30 46.5h62zM362 455q-17 0 -32 -3q20 -5 40.5 -7.5t39.5 -2.5
q6 0 11 0.5t5 2.5q0 1 -6 3t-15.5 3.5t-21 2.5t-21.5 1z" />
    <glyph glyph-name="Edieresis" unicode="&#xcb;" horiz-adv-x="672" 
d="M180 606q0 -54 32.5 -89t80.5 -53q17 4 33.5 6t33.5 2q9 0 25 -1t32 -4t27.5 -8.5t11.5 -14.5q0 -7 -7.5 -11t-18 -5.5t-22 -2t-20.5 -0.5q-22 0 -49.5 2.5t-56.5 8.5q-33 -17 -60.5 -44t-47 -60t-30.5 -69t-11 -70q0 -54 20.5 -94.5t52 -67.5t69.5 -40.5t73 -13.5
q39 0 75.5 10.5t65.5 31.5t46.5 52t17.5 72q0 25 -8.5 49t-24.5 42.5t-38.5 29.5t-50.5 11q-25 0 -43 -8.5t-30 -22t-17.5 -30.5t-5.5 -33q0 -24 12.5 -43t37.5 -19q18 0 18 -10q0 -4 -6 -8t-18 -4q-45 0 -67 24.5t-22 56.5q0 21 10 42.5t30 38.5t51.5 28t73.5 11
q39 0 73 -9.5t60 -27.5t41 -45.5t15 -63.5q0 -43 -25.5 -79.5t-67.5 -62.5t-96.5 -41t-112.5 -15q-75 0 -133 18t-98 51t-61 79t-21 102q0 41 17.5 78.5t46.5 69t67 56t79 40.5q-32 9 -61 23.5t-51 34.5t-35.5 46t-13.5 59q0 29 17 65t51.5 67.5t88 52.5t127.5 21
q37 0 72.5 -10t63 -28t44.5 -44t17 -58q0 -24 -11.5 -47.5t-32.5 -42.5t-50 -31t-63 -12q-9 0 -21 0.5t-22 3t-17 6t-7 9.5q0 9 9 9q5 0 15 -4.5t24 -4.5q26 0 43 12.5t27.5 31t15 40.5t4.5 41q0 26 -10.5 45.5t-27.5 33t-39 20t-44 6.5q-48 0 -81 -15.5t-53 -41.5t-29 -60
t-9 -70zM364 928q0 20 13 32.5t32 12.5q18 0 30.5 -12.5t12.5 -32.5q0 -18 -12.5 -31t-30.5 -13q-19 0 -32 13t-13 31zM224 928q0 20 13 32.5t32 12.5t31.5 -12.5t12.5 -32.5q0 -18 -12.5 -31t-31.5 -13t-32 13t-13 31zM362 455q-17 0 -32 -3q20 -5 40.5 -7.5t39.5 -2.5
q6 0 11 0.5t5 2.5q0 1 -6 3t-15.5 3.5t-21 2.5t-21.5 1z" />
    <glyph glyph-name="Igrave" unicode="&#xcc;" horiz-adv-x="594" 
d="M448 731q-24 0 -44.5 7.5t-41.5 16.5t-44 16.5t-53 7.5q-52 0 -89.5 -16t-61.5 -43t-35 -63.5t-11 -76.5q0 -29 10 -61.5t31 -60.5t52.5 -46t74.5 -18q31 0 57 9.5t45 26t29.5 38.5t12.5 47q0 9 1 14t9 5t8 -12q0 -35 -15 -65t-40.5 -52t-58 -34.5t-68.5 -12.5
q-45 0 -82 17t-63.5 45.5t-40.5 66t-14 78.5q0 15 4 38t14 48.5t28 51.5t46.5 46.5t68.5 33.5t95 13q37 0 68 -6t58 -13.5t51 -13.5t48 -6q19 0 36 4t37 17l26 26t20 12q6 0 6 -7q0 -14 -14.5 -24.5t-30.5 -24.5q-3 -4 -6 -16t-5 -25.5t-3.5 -25.5t-2.5 -16l-12 -366
q-3 -107 -28.5 -182.5t-61 -123t-74 -69t-67.5 -21.5q-13 0 -13 12q0 2 1 6.5t5 4.5q51 0 82 26t48 75.5t23 122t6 166.5q0 57 2 114.5t10 112t23 103.5t42 90q-15 -6 -40.5 -11.5t-57.5 -5.5zM444 1018q23 -43 55 -81t60 -63l-12 -14q-35 11 -77.5 36.5t-89.5 68.5
q11 17 31 33.5t33 19.5z" />
    <glyph glyph-name="Iacute" unicode="&#xcd;" horiz-adv-x="594" 
d="M448 731q-24 0 -44.5 7.5t-41.5 16.5t-44 16.5t-53 7.5q-52 0 -89.5 -16t-61.5 -43t-35 -63.5t-11 -76.5q0 -29 10 -61.5t31 -60.5t52.5 -46t74.5 -18q31 0 57 9.5t45 26t29.5 38.5t12.5 47q0 9 1 14t9 5t8 -12q0 -35 -15 -65t-40.5 -52t-58 -34.5t-68.5 -12.5
q-45 0 -82 17t-63.5 45.5t-40.5 66t-14 78.5q0 15 4 38t14 48.5t28 51.5t46.5 46.5t68.5 33.5t95 13q37 0 68 -6t58 -13.5t51 -13.5t48 -6q19 0 36 4t37 17l26 26t20 12q6 0 6 -7q0 -14 -14.5 -24.5t-30.5 -24.5q-3 -4 -6 -16t-5 -25.5t-3.5 -25.5t-2.5 -16l-12 -366
q-3 -107 -28.5 -182.5t-61 -123t-74 -69t-67.5 -21.5q-13 0 -13 12q0 2 1 6.5t5 4.5q51 0 82 26t48 75.5t23 122t6 166.5q0 57 2 114.5t10 112t23 103.5t42 90q-15 -6 -40.5 -11.5t-57.5 -5.5zM536 1016q6 -1 15 -6t18.5 -12.5t18 -16.5t13.5 -17q-47 -43 -89.5 -69
t-78.5 -36l-12 13q29 26 61.5 64t53.5 80z" />
    <glyph glyph-name="Icircumflex" unicode="&#xce;" horiz-adv-x="594" 
d="M448 731q-24 0 -44.5 7.5t-41.5 16.5t-44 16.5t-53 7.5q-52 0 -89.5 -16t-61.5 -43t-35 -63.5t-11 -76.5q0 -29 10 -61.5t31 -60.5t52.5 -46t74.5 -18q31 0 57 9.5t45 26t29.5 38.5t12.5 47q0 9 1 14t9 5t8 -12q0 -35 -15 -65t-40.5 -52t-58 -34.5t-68.5 -12.5
q-45 0 -82 17t-63.5 45.5t-40.5 66t-14 78.5q0 15 4 38t14 48.5t28 51.5t46.5 46.5t68.5 33.5t95 13q37 0 68 -6t58 -13.5t51 -13.5t48 -6q19 0 36 4t37 17l26 26t20 12q6 0 6 -7q0 -14 -14.5 -24.5t-30.5 -24.5q-3 -4 -6 -16t-5 -25.5t-3.5 -25.5t-2.5 -16l-12 -366
q-3 -107 -28.5 -182.5t-61 -123t-74 -69t-67.5 -21.5q-13 0 -13 12q0 2 1 6.5t5 4.5q51 0 82 26t48 75.5t23 122t6 166.5q0 57 2 114.5t10 112t23 103.5t42 90q-15 -6 -40.5 -11.5t-57.5 -5.5zM510 1032q4 -21 13.5 -45.5t21.5 -47.5t25 -41.5t24 -27.5h-37q-6 4 -18 16.5
t-25.5 28t-26 32t-18.5 27.5q-10 -12 -26 -28.5t-32.5 -32t-31 -27.5t-21.5 -16h-41q13 9 30.5 27.5t35.5 41t35 47t30 46.5h62z" />
    <glyph glyph-name="Idieresis" unicode="&#xcf;" horiz-adv-x="594" 
d="M448 731q-24 0 -44.5 7.5t-41.5 16.5t-44 16.5t-53 7.5q-52 0 -89.5 -16t-61.5 -43t-35 -63.5t-11 -76.5q0 -29 10 -61.5t31 -60.5t52.5 -46t74.5 -18q31 0 57 9.5t45 26t29.5 38.5t12.5 47q0 9 1 14t9 5t8 -12q0 -35 -15 -65t-40.5 -52t-58 -34.5t-68.5 -12.5
q-45 0 -82 17t-63.5 45.5t-40.5 66t-14 78.5q0 15 4 38t14 48.5t28 51.5t46.5 46.5t68.5 33.5t95 13q37 0 68 -6t58 -13.5t51 -13.5t48 -6q19 0 36 4t37 17l26 26t20 12q6 0 6 -7q0 -14 -14.5 -24.5t-30.5 -24.5q-3 -4 -6 -16t-5 -25.5t-3.5 -25.5t-2.5 -16l-12 -366
q-3 -107 -28.5 -182.5t-61 -123t-74 -69t-67.5 -21.5q-13 0 -13 12q0 2 1 6.5t5 4.5q51 0 82 26t48 75.5t23 122t6 166.5q0 57 2 114.5t10 112t23 103.5t42 90q-15 -6 -40.5 -11.5t-57.5 -5.5zM368 923q0 19 13 31.5t32 12.5t31.5 -12.5t12.5 -31.5t-12.5 -32t-31.5 -13
t-32 13t-13 32zM508 923q0 19 13 31.5t32 12.5q18 0 30.5 -12.5t12.5 -31.5t-12.5 -32t-30.5 -13q-19 0 -32 13t-13 32z" />
    <glyph glyph-name="Eth" unicode="&#xd0;" horiz-adv-x="1020" 
d="M316 -38q0 5 6.5 10t15.5 20t18 44.5t15 83.5h-1q-63 0 -124.5 18t-110.5 57t-79.5 99t-30.5 144q0 67 32 133t90.5 117.5t141.5 83.5t184 32q138 0 236 -37t161 -96.5t92.5 -134.5t29.5 -150q0 -50 -15.5 -101t-42 -98.5t-62.5 -89t-77.5 -72t-86.5 -48.5t-90 -18
q-27 0 -50.5 6.5t-45 14t-41.5 14t-41 6.5q-30 0 -50 -7t-33.5 -15t-21 -15t-13.5 -7t-6 6zM462 281q-1 -30 -7 -66.5t-15 -74.5q33 6 61.5 19.5t50 34.5t34 49.5t12.5 64.5q0 34 -14 55.5t-30.5 34t-30.5 17.5t-14 6q0 4 7 5.5t18 1.5q16 0 37.5 -5t41 -18t33 -34.5
t13.5 -54.5q0 -39 -17.5 -71t-48 -56.5t-71 -40.5t-86.5 -23q-11 -41 -25 -73t-28 -46q14 5 37.5 11.5t49.5 6.5q35 0 57.5 -4t40 -8.5t33.5 -8.5t37 -4q46 0 90.5 18t80 60.5t57 112t21.5 172.5q0 84 -18.5 148.5t-49.5 111.5t-71.5 78t-84.5 49.5t-88.5 26.5t-83.5 8
q-71 0 -139.5 -19.5t-121.5 -63.5t-85.5 -114.5t-32.5 -172.5q0 -67 23 -117t59.5 -84.5t83 -53t94.5 -21.5q1 20 2.5 44t1.5 52v47h-60q-11 0 -15.5 4.5t-4.5 9.5t4.5 10t15.5 5h62q7 87 27 148.5t43.5 101.5t46 58.5t33.5 18.5t11 -7q0 -4 -9 -11.5t-14 -12.5
q-20 -21 -30.5 -54.5t-15.5 -73.5t-6 -84t-1 -84h66q9 0 14 -5t5 -10t-5 -9.5t-14 -4.5h-67z" />
    <glyph glyph-name="Ntilde" unicode="&#xd1;" horiz-adv-x="688" 
d="M184 157q0 69 -0.5 116t-1.5 89t-1.5 88t-0.5 112q0 71 -22.5 104.5t-60.5 33.5q-28 0 -54.5 -12.5t-47.5 -33.5q-3 -2 -6 -2t-3 3q0 4 7 16q18 28 35.5 45t34.5 26.5t33 12.5t32 3q21 0 44 -6.5t42 -25.5t31.5 -54t12.5 -91v-25.5v-37t0.5 -37t0.5 -26.5q6 32 16 67.5
t24 71t33.5 67.5t45 57t58 39.5t73.5 14.5q40 0 68.5 -15t46.5 -41.5t26 -63.5t8 -82q0 -55 -8.5 -123.5t-18.5 -137t-18.5 -130.5t-8.5 -103q0 -33 2.5 -60.5t11 -50t25.5 -41t47 -33.5q5 -3 16.5 -5t11.5 -8t-14 -6t-24 2q-14 4 -40 18.5t-51 47.5t-43.5 88.5t-18.5 140.5
q0 49 6.5 98.5t14 99t14 99t6.5 100.5q0 38 -4.5 70t-15.5 55.5t-29.5 37t-46.5 13.5q-30 0 -56.5 -17t-49 -46t-41 -67t-31 -79.5t-19.5 -85t-7 -82.5q0 -26 0.5 -52t0.5 -53q0 -24 -3.5 -56t-9.5 -65.5t-14.5 -65.5t-19.5 -57q-4 -8 -11.5 -23.5t-16.5 -31t-17.5 -27
t-14.5 -11.5q-4 0 -4 5t3.5 12t6.5 16q9 30 12.5 84t3.5 117zM590 916q-6 -11 -15.5 -23t-21 -22.5t-24.5 -17.5t-25 -7q-17 0 -34 9t-33.5 20t-31.5 20t-27 9q-14 0 -35.5 -5t-41.5 -17l-9 6q6 11 15.5 23.5t21.5 23.5t25.5 18.5t25.5 7.5q15 0 32 -8.5t33.5 -19t32 -19
t26.5 -8.5q14 0 35 2t44 16z" />
    <glyph glyph-name="Ograve" unicode="&#xd2;" 
d="M469 -50q-90 0 -170.5 24t-141.5 72t-96.5 119.5t-35.5 166.5q0 99 36 185.5t96 150t138 100.5t162 37q76 0 130.5 -15t91.5 -38t59 -51.5t33.5 -56t15 -50.5t3.5 -35q0 -55 -21 -97t-54 -70t-74 -42t-81 -14q-32 0 -60.5 8.5t-50.5 26t-35 43.5t-13 61q0 27 9.5 52.5
t27 45.5t42 32.5t54.5 12.5q2 0 4 -3t2 -5q0 -5 -11.5 -9.5t-25 -16.5t-24.5 -36.5t-11 -69.5q0 -27 10 -48.5t27 -36.5t38.5 -23t44.5 -8q27 0 53 11.5t46.5 36t33.5 63t13 92.5q0 55 -24 96.5t-63 69.5t-89.5 41.5t-103.5 13.5t-96 -19t-78 -50.5t-60.5 -72t-42.5 -83.5
t-25.5 -85.5t-8.5 -77.5q0 -87 22 -164.5t66 -136t109.5 -93t151.5 -34.5q82 0 148.5 36.5t113.5 97t72 139t25 161.5q0 40 -1.5 67.5t-5.5 50.5t-11.5 45.5t-20.5 52.5q-3 7 -11 19t-8 20q0 5 3 5q7 0 16.5 -7.5t18.5 -17.5t16 -20t9 -14q34 -54 47.5 -113.5t13.5 -113.5
q0 -85 -32 -162.5t-90.5 -136.5t-141 -94t-184.5 -35zM436 1019q23 -44 55 -81.5t60 -62.5l-12 -15q-35 11 -78 36.5t-89 69.5q10 17 30.5 33t33.5 20z" />
    <glyph glyph-name="Oacute" unicode="&#xd3;" 
d="M469 -50q-90 0 -170.5 24t-141.5 72t-96.5 119.5t-35.5 166.5q0 99 36 185.5t96 150t138 100.5t162 37q76 0 130.5 -15t91.5 -38t59 -51.5t33.5 -56t15 -50.5t3.5 -35q0 -55 -21 -97t-54 -70t-74 -42t-81 -14q-32 0 -60.5 8.5t-50.5 26t-35 43.5t-13 61q0 27 9.5 52.5
t27 45.5t42 32.5t54.5 12.5q2 0 4 -3t2 -5q0 -5 -11.5 -9.5t-25 -16.5t-24.5 -36.5t-11 -69.5q0 -27 10 -48.5t27 -36.5t38.5 -23t44.5 -8q27 0 53 11.5t46.5 36t33.5 63t13 92.5q0 55 -24 96.5t-63 69.5t-89.5 41.5t-103.5 13.5t-96 -19t-78 -50.5t-60.5 -72t-42.5 -83.5
t-25.5 -85.5t-8.5 -77.5q0 -87 22 -164.5t66 -136t109.5 -93t151.5 -34.5q82 0 148.5 36.5t113.5 97t72 139t25 161.5q0 40 -1.5 67.5t-5.5 50.5t-11.5 45.5t-20.5 52.5q-3 7 -11 19t-8 20q0 5 3 5q7 0 16.5 -7.5t18.5 -17.5t16 -20t9 -14q34 -54 47.5 -113.5t13.5 -113.5
q0 -85 -32 -162.5t-90.5 -136.5t-141 -94t-184.5 -35zM564 1019q13 -4 33 -20t31 -33q-47 -44 -89.5 -69.5t-77.5 -36.5l-12 15q28 25 60 62.5t55 81.5z" />
    <glyph glyph-name="Ocircumflex" unicode="&#xd4;" 
d="M469 -50q-90 0 -170.5 24t-141.5 72t-96.5 119.5t-35.5 166.5q0 99 36 185.5t96 150t138 100.5t162 37q76 0 130.5 -15t91.5 -38t59 -51.5t33.5 -56t15 -50.5t3.5 -35q0 -55 -21 -97t-54 -70t-74 -42t-81 -14q-32 0 -60.5 8.5t-50.5 26t-35 43.5t-13 61q0 27 9.5 52.5
t27 45.5t42 32.5t54.5 12.5q2 0 4 -3t2 -5q0 -5 -11.5 -9.5t-25 -16.5t-24.5 -36.5t-11 -69.5q0 -27 10 -48.5t27 -36.5t38.5 -23t44.5 -8q27 0 53 11.5t46.5 36t33.5 63t13 92.5q0 55 -24 96.5t-63 69.5t-89.5 41.5t-103.5 13.5t-96 -19t-78 -50.5t-60.5 -72t-42.5 -83.5
t-25.5 -85.5t-8.5 -77.5q0 -87 22 -164.5t66 -136t109.5 -93t151.5 -34.5q82 0 148.5 36.5t113.5 97t72 139t25 161.5q0 40 -1.5 67.5t-5.5 50.5t-11.5 45.5t-20.5 52.5q-3 7 -11 19t-8 20q0 5 3 5q7 0 16.5 -7.5t18.5 -17.5t16 -20t9 -14q34 -54 47.5 -113.5t13.5 -113.5
q0 -85 -32 -162.5t-90.5 -136.5t-141 -94t-184.5 -35zM535 1028q4 -21 13.5 -45.5t21.5 -47.5t25.5 -41.5t24.5 -27.5h-38q-5 4 -17 16.5t-25.5 28.5t-26.5 32.5t-19 27.5q-10 -13 -26 -29.5t-32.5 -32t-31 -27.5t-21.5 -16h-41q13 10 31 28.5t36 41t35 47t29 45.5h62z" />
    <glyph glyph-name="Otilde" unicode="&#xd5;" 
d="M469 -50q-90 0 -170.5 24t-141.5 72t-96.5 119.5t-35.5 166.5q0 99 36 185.5t96 150t138 100.5t162 37q76 0 130.5 -15t91.5 -38t59 -51.5t33.5 -56t15 -50.5t3.5 -35q0 -55 -21 -97t-54 -70t-74 -42t-81 -14q-32 0 -60.5 8.5t-50.5 26t-35 43.5t-13 61q0 27 9.5 52.5
t27 45.5t42 32.5t54.5 12.5q2 0 4 -3t2 -5q0 -5 -11.5 -9.5t-25 -16.5t-24.5 -36.5t-11 -69.5q0 -27 10 -48.5t27 -36.5t38.5 -23t44.5 -8q27 0 53 11.5t46.5 36t33.5 63t13 92.5q0 55 -24 96.5t-63 69.5t-89.5 41.5t-103.5 13.5t-96 -19t-78 -50.5t-60.5 -72t-42.5 -83.5
t-25.5 -85.5t-8.5 -77.5q0 -87 22 -164.5t66 -136t109.5 -93t151.5 -34.5q82 0 148.5 36.5t113.5 97t72 139t25 161.5q0 40 -1.5 67.5t-5.5 50.5t-11.5 45.5t-20.5 52.5q-3 7 -11 19t-8 20q0 5 3 5q7 0 16.5 -7.5t18.5 -17.5t16 -20t9 -14q34 -54 47.5 -113.5t13.5 -113.5
q0 -85 -32 -162.5t-90.5 -136.5t-141 -94t-184.5 -35zM664 916q-6 -11 -16 -23t-21.5 -22.5t-24.5 -17.5t-25 -7q-17 0 -34.5 9t-34 20t-31.5 20t-27 9q-14 0 -35.5 -5t-41.5 -17l-8 6q6 11 15.5 23.5t21.5 23.5t25 18.5t25 7.5q15 0 32 -8.5t33.5 -19t32 -19t27.5 -8.5
q14 0 35 2t44 16z" />
    <glyph glyph-name="Odieresis" unicode="&#xd6;" 
d="M469 -50q-90 0 -170.5 24t-141.5 72t-96.5 119.5t-35.5 166.5q0 99 36 185.5t96 150t138 100.5t162 37q76 0 130.5 -15t91.5 -38t59 -51.5t33.5 -56t15 -50.5t3.5 -35q0 -55 -21 -97t-54 -70t-74 -42t-81 -14q-32 0 -60.5 8.5t-50.5 26t-35 43.5t-13 61q0 27 9.5 52.5
t27 45.5t42 32.5t54.5 12.5q2 0 4 -3t2 -5q0 -5 -11.5 -9.5t-25 -16.5t-24.5 -36.5t-11 -69.5q0 -27 10 -48.5t27 -36.5t38.5 -23t44.5 -8q27 0 53 11.5t46.5 36t33.5 63t13 92.5q0 55 -24 96.5t-63 69.5t-89.5 41.5t-103.5 13.5t-96 -19t-78 -50.5t-60.5 -72t-42.5 -83.5
t-25.5 -85.5t-8.5 -77.5q0 -87 22 -164.5t66 -136t109.5 -93t151.5 -34.5q82 0 148.5 36.5t113.5 97t72 139t25 161.5q0 40 -1.5 67.5t-5.5 50.5t-11.5 45.5t-20.5 52.5q-3 7 -11 19t-8 20q0 5 3 5q7 0 16.5 -7.5t18.5 -17.5t16 -20t9 -14q34 -54 47.5 -113.5t13.5 -113.5
q0 -85 -32 -162.5t-90.5 -136.5t-141 -94t-184.5 -35zM376 919q0 19 12.5 32t32.5 13q18 0 30.5 -13t12.5 -32t-12.5 -31.5t-30.5 -12.5q-20 0 -32.5 12.5t-12.5 31.5zM515 919q0 19 13.5 32t31.5 13t31.5 -13t13.5 -32t-13.5 -31.5t-31.5 -12.5t-31.5 12.5t-13.5 31.5z" />
    <glyph glyph-name="multiply" unicode="&#xd7;" horiz-adv-x="362" 
d="M161 205l-113 113q-7 7 -7 14q0 14 13 14q8 0 14 -6l113 -114l113 114q7 6 14 6q14 0 14 -14q0 -7 -6 -14l-114 -113l114 -113q3 -5 5 -8t2 -7q0 -13 -13 -13q-8 0 -15 7l-114 114l-113 -114q-8 -7 -15 -7q-13 0 -13 13q0 7 7 15z" />
    <glyph glyph-name="Oslash" unicode="&#xd8;" 
d="M265 -128q-3 -8 -12 -8q-5 0 -11 5t-6 10v5l48 94q-57 19 -104.5 51t-82 76t-53.5 101t-19 126q0 99 36 185.5t96 150t138 100.5t162 37q77 0 131 -14.5t92 -38.5l51 100q2 6 11 6q5 0 11.5 -4t6.5 -10q0 -3 -2 -4l-54 -106q28 -23 45 -49t26 -50t12 -44.5t3 -31.5
q0 -55 -21 -97t-54 -70t-74 -42t-81 -14q-14 0 -28 1t-27 5l-171 -335q68 -37 158 -37q82 0 148.5 36.5t113.5 97t72 139t25 161.5q0 40 -1.5 67.5t-5.5 50.5t-11.5 45.5t-20.5 52.5q-3 7 -11 19t-8 20q0 5 3 5q7 0 16.5 -7.5t18.5 -17.5t16 -20t9 -14q34 -54 47.5 -113.5
t13.5 -113.5q0 -85 -32 -162.5t-90.5 -136.5t-141 -94t-184.5 -35q-41 0 -80 4.5t-75 15.5zM143 398q0 -59 10.5 -114.5t31 -104.5t51.5 -88.5t72 -67.5l168 331q-33 15 -54 45t-21 76q0 27 9.5 52.5t27 45.5t42 32.5t54.5 12.5q2 0 4 -3t2 -5q0 -5 -11.5 -9.5t-25 -16.5
t-24.5 -36.5t-11 -69.5q0 -25 8.5 -44.5t22.5 -35.5l165 321q-41 33 -96 50t-114 17q-53 0 -96 -19t-78 -50.5t-60.5 -72t-42.5 -83.5t-25.5 -85.5t-8.5 -77.5zM734 565q0 41 -13 74t-36 58l-162 -317q28 -18 65 -18q27 0 53 11.5t46.5 36t33.5 63t13 92.5z" />
    <glyph glyph-name="Ugrave" unicode="&#xd9;" horiz-adv-x="1064" 
d="M392 312q0 -54 20.5 -108.5t55.5 -98t81.5 -70.5t99.5 -27q44 0 84.5 8.5t76.5 35.5t68 77t60 134q-2 79 -8.5 159.5t-6.5 152.5q0 49 12 97.5t28.5 87t33.5 62t27 23.5q7 0 7 -6v-4q-16 -41 -19 -76.5t-3 -66.5q0 -45 3.5 -95.5t8 -103t8.5 -105t4 -102.5
q0 -64 -15.5 -123t-37 -104.5t-44 -73t-35.5 -27.5q-5 0 -5 4q0 2 1.5 4t2.5 4q23 49 31.5 111t8.5 131q-30 -83 -73.5 -132.5t-87.5 -75.5t-82 -33.5t-57 -7.5q-93 0 -160 26.5t-110 72t-64.5 105.5t-22.5 126q-56 2 -104 16t-82.5 41t-54 67.5t-19.5 96.5q0 50 21.5 102
t59 94t88 68.5t107.5 26.5q39 0 69 -5.5t57.5 -12t54.5 -12t59 -5.5q6 0 13 1t14 1q6 3 15.5 9t19 12.5t17.5 11t10 4.5q5 -1 7 -4t2 -5q0 -7 -16.5 -18t-44.5 -20q-36 -40 -67.5 -88t-56.5 -102t-40 -113.5t-18 -122.5q34 15 53.5 38t31 45t16.5 37.5t9 15.5q8 0 8 -5
q0 -15 -7.5 -36t-22.5 -42.5t-37.5 -42t-52.5 -33.5v-1zM89 538q0 -51 16 -90.5t43 -67.5t62 -43.5t74 -18.5q2 33 14.5 83.5t42.5 110t81 122.5t129 121q-18 -7 -41.5 -9.5t-40.5 -2.5q-25 0 -49.5 4t-49.5 9.5t-51.5 9.5t-55.5 4q-48 0 -81 -19t-53.5 -51.5t-30 -74.5
t-9.5 -87zM726 1007q23 -43 55 -81t60 -63l-12 -13q-35 10 -77.5 36t-89.5 68q11 17 31 33.5t33 19.5z" />
    <glyph glyph-name="Uacute" unicode="&#xda;" horiz-adv-x="1064" 
d="M392 312q0 -54 20.5 -108.5t55.5 -98t81.5 -70.5t99.5 -27q44 0 84.5 8.5t76.5 35.5t68 77t60 134q-2 79 -8.5 159.5t-6.5 152.5q0 49 12 97.5t28.5 87t33.5 62t27 23.5q7 0 7 -6v-4q-16 -41 -19 -76.5t-3 -66.5q0 -45 3.5 -95.5t8 -103t8.5 -105t4 -102.5
q0 -64 -15.5 -123t-37 -104.5t-44 -73t-35.5 -27.5q-5 0 -5 4q0 2 1.5 4t2.5 4q23 49 31.5 111t8.5 131q-30 -83 -73.5 -132.5t-87.5 -75.5t-82 -33.5t-57 -7.5q-93 0 -160 26.5t-110 72t-64.5 105.5t-22.5 126q-56 2 -104 16t-82.5 41t-54 67.5t-19.5 96.5q0 50 21.5 102
t59 94t88 68.5t107.5 26.5q39 0 69 -5.5t57.5 -12t54.5 -12t59 -5.5q6 0 13 1t14 1q6 3 15.5 9t19 12.5t17.5 11t10 4.5q5 -1 7 -4t2 -5q0 -7 -16.5 -18t-44.5 -20q-36 -40 -67.5 -88t-56.5 -102t-40 -113.5t-18 -122.5q34 15 53.5 38t31 45t16.5 37.5t9 15.5q8 0 8 -5
q0 -15 -7.5 -36t-22.5 -42.5t-37.5 -42t-52.5 -33.5v-1zM89 538q0 -51 16 -90.5t43 -67.5t62 -43.5t74 -18.5q2 33 14.5 83.5t42.5 110t81 122.5t129 121q-18 -7 -41.5 -9.5t-40.5 -2.5q-25 0 -49.5 4t-49.5 9.5t-51.5 9.5t-55.5 4q-48 0 -81 -19t-53.5 -51.5t-30 -74.5
t-9.5 -87zM832 997q6 -1 15 -6.5t18 -13t17.5 -16t13.5 -17.5q-47 -42 -89.5 -68t-78.5 -36l-12 13q29 26 61.5 64t54.5 80z" />
    <glyph glyph-name="Ucircumflex" unicode="&#xdb;" horiz-adv-x="1064" 
d="M392 312q0 -54 20.5 -108.5t55.5 -98t81.5 -70.5t99.5 -27q44 0 84.5 8.5t76.5 35.5t68 77t60 134q-2 79 -8.5 159.5t-6.5 152.5q0 49 12 97.5t28.5 87t33.5 62t27 23.5q7 0 7 -6v-4q-16 -41 -19 -76.5t-3 -66.5q0 -45 3.5 -95.5t8 -103t8.5 -105t4 -102.5
q0 -64 -15.5 -123t-37 -104.5t-44 -73t-35.5 -27.5q-5 0 -5 4q0 2 1.5 4t2.5 4q23 49 31.5 111t8.5 131q-30 -83 -73.5 -132.5t-87.5 -75.5t-82 -33.5t-57 -7.5q-93 0 -160 26.5t-110 72t-64.5 105.5t-22.5 126q-56 2 -104 16t-82.5 41t-54 67.5t-19.5 96.5q0 50 21.5 102
t59 94t88 68.5t107.5 26.5q39 0 69 -5.5t57.5 -12t54.5 -12t59 -5.5q6 0 13 1t14 1q6 3 15.5 9t19 12.5t17.5 11t10 4.5q5 -1 7 -4t2 -5q0 -7 -16.5 -18t-44.5 -20q-36 -40 -67.5 -88t-56.5 -102t-40 -113.5t-18 -122.5q34 15 53.5 38t31 45t16.5 37.5t9 15.5q8 0 8 -5
q0 -15 -7.5 -36t-22.5 -42.5t-37.5 -42t-52.5 -33.5v-1zM89 538q0 -51 16 -90.5t43 -67.5t62 -43.5t74 -18.5q2 33 14.5 83.5t42.5 110t81 122.5t129 121q-18 -7 -41.5 -9.5t-40.5 -2.5q-25 0 -49.5 4t-49.5 9.5t-51.5 9.5t-55.5 4q-48 0 -81 -19t-53.5 -51.5t-30 -74.5
t-9.5 -87zM829 1050q4 -21 13.5 -45.5t21.5 -47.5t25 -42t24 -28h-37q-6 3 -18 16t-25.5 29t-26 32.5t-18.5 27.5q-10 -12 -26 -29t-32.5 -32.5t-31 -28t-21.5 -15.5h-41q13 9 30.5 27.5t35.5 41.5t35 47.5t30 46.5h62z" />
    <glyph glyph-name="Udieresis" unicode="&#xdc;" horiz-adv-x="1064" 
d="M392 312q0 -54 20.5 -108.5t55.5 -98t81.5 -70.5t99.5 -27q44 0 84.5 8.5t76.5 35.5t68 77t60 134q-2 79 -8.5 159.5t-6.5 152.5q0 49 12 97.5t28.5 87t33.5 62t27 23.5q7 0 7 -6v-4q-16 -41 -19 -76.5t-3 -66.5q0 -45 3.5 -95.5t8 -103t8.5 -105t4 -102.5
q0 -64 -15.5 -123t-37 -104.5t-44 -73t-35.5 -27.5q-5 0 -5 4q0 2 1.5 4t2.5 4q23 49 31.5 111t8.5 131q-30 -83 -73.5 -132.5t-87.5 -75.5t-82 -33.5t-57 -7.5q-93 0 -160 26.5t-110 72t-64.5 105.5t-22.5 126q-56 2 -104 16t-82.5 41t-54 67.5t-19.5 96.5q0 50 21.5 102
t59 94t88 68.5t107.5 26.5q39 0 69 -5.5t57.5 -12t54.5 -12t59 -5.5q6 0 13 1t14 1q6 3 15.5 9t19 12.5t17.5 11t10 4.5q5 -1 7 -4t2 -5q0 -7 -16.5 -18t-44.5 -20q-36 -40 -67.5 -88t-56.5 -102t-40 -113.5t-18 -122.5q34 15 53.5 38t31 45t16.5 37.5t9 15.5q8 0 8 -5
q0 -15 -7.5 -36t-22.5 -42.5t-37.5 -42t-52.5 -33.5v-1zM89 538q0 -51 16 -90.5t43 -67.5t62 -43.5t74 -18.5q2 33 14.5 83.5t42.5 110t81 122.5t129 121q-18 -7 -41.5 -9.5t-40.5 -2.5q-25 0 -49.5 4t-49.5 9.5t-51.5 9.5t-55.5 4q-48 0 -81 -19t-53.5 -51.5t-30 -74.5
t-9.5 -87zM808 911q0 19 13 31.5t32 12.5q18 0 30.5 -12.5t12.5 -31.5t-12.5 -32t-30.5 -13q-19 0 -32 13t-13 32zM668 911q0 19 13 31.5t32 12.5t31.5 -12.5t12.5 -31.5t-12.5 -32t-31.5 -13t-32 13t-13 32z" />
    <glyph glyph-name="Yacute" unicode="&#xdd;" horiz-adv-x="778" 
d="M630 444q0 51 9 102.5t23.5 97t32 82.5t35.5 58q14 16 32 30.5t29 14.5q7 0 7 -3q0 -2 -5.5 -12t-10.5 -21t-11 -41t-11.5 -74t-11 -98t-9 -114t-6 -123t-2.5 -123q-1 -57 -7 -118t-18 -121q47 -11 79.5 -39t32.5 -72q0 -39 -18.5 -62.5t-36.5 -23.5q-8 0 -8 8q0 4 5.5 8
t12 10.5t12 18.5t5.5 33q0 39 -25.5 63t-63.5 35q-13 -56 -33.5 -106.5t-49 -88.5t-65.5 -60.5t-84 -22.5q-38 0 -59.5 28t-21.5 67q0 48 19 85t50.5 63t71.5 41t81 20q6 70 12 164q-54 -81 -128 -127t-172 -46q-57 0 -108 22t-89.5 63.5t-60.5 101.5t-22 137
q0 74 16.5 142.5t45.5 131t68.5 120t85.5 110.5q-41 -15 -61 -18t-35 -3q-43 0 -74.5 13t-52 34.5t-30.5 48.5t-10 55q0 27 9 52.5t26 46t42 32.5t58 12q21 0 42 -6.5t38 -19t27.5 -30t10.5 -39.5q0 -18 -7 -18q-1 0 -1 1q-1 0 -1 2q0 19 -8.5 34.5t-21.5 26t-30 16t-33 5.5
q-22 0 -41 -12t-33 -31.5t-22 -44t-8 -49.5q0 -22 7 -42.5t23 -36.5t41 -25.5t61 -9.5q10 0 26 2t33 7.5t33 14t28 21.5l43 45q4 4 9 4q8 0 8 -6q0 -2 -3.5 -6t-8.5 -9t-9.5 -10t-7.5 -8q-47 -55 -80 -120.5t-54 -137.5t-30.5 -148.5t-9.5 -152.5q0 -61 15.5 -112t46.5 -88
t77 -58t107 -21q22 0 49.5 8t56.5 26.5t59.5 48t60.5 73.5q2 61 3.5 129t3.5 143zM475 -294q57 0 87 67t45 195q-36 -4 -70.5 -17t-62 -36t-44 -56t-16.5 -76q0 -35 16 -56t45 -21zM598 1049q6 -2 15 -7t18 -12.5t17 -16t13 -17.5q-46 -42 -89 -68t-78 -36l-12 13
q29 25 61 63t55 81z" />
    <glyph glyph-name="Thorn" unicode="&#xde;" horiz-adv-x="846" 
d="M334 95q34 0 62 9t48 19.5t32.5 19.5t14.5 9t4.5 -1t2.5 -8q0 -3 -14.5 -13.5t-37.5 -22t-53 -20t-61 -8.5h-15q-32 -50 -70.5 -78.5t-74.5 -28.5q-10 0 -10 8q0 2 3.5 5t8.5 3q23 0 54.5 22.5t53.5 72.5q-52 9 -99 35t-82 65.5t-56 90t-21 109.5q0 48 19 101t55.5 102
t90 88t122.5 60q8 58 25 99.5t36 67.5t36 38.5t25 12.5q7 0 7 -5q0 -6 -3.5 -10t-9 -11t-12 -18t-12 -31t-9.5 -51t-4 -76q13 2 25.5 3t24.5 1q37 0 80 -5t86 -17t83 -32.5t70.5 -52t49 -74t18.5 -99.5q0 -51 -21 -98.5t-57 -84t-83.5 -58t-101.5 -21.5q-40 0 -68.5 12
t-46.5 31t-26 42.5t-8 46.5q0 36 21 64t57 28q10 0 10 -6t-15 -6q-11 0 -20.5 -7t-17.5 -18t-12.5 -26t-4.5 -31q0 -19 6.5 -38t22 -34t41.5 -24.5t65 -9.5q33 0 63.5 16.5t53.5 45t37 67.5t14 83q0 79 -30.5 134t-76 89.5t-97 49.5t-93.5 15q-14 0 -25.5 -1t-23.5 -3
q0 -35 -1 -90t-2 -114t-2 -115.5t-1 -94.5q0 -65 -16 -121.5t-42 -101.5h8zM307 209q0 40 -0.5 98t-0.5 120t-0.5 121t-0.5 101q0 17 0.5 32.5t1.5 30.5q-54 -23 -90.5 -61.5t-58 -85t-30.5 -96t-9 -93.5q0 -65 15 -113t39.5 -82t55 -53.5t60.5 -27.5q8 23 13 50t5 59z" />
    <glyph glyph-name="germandbls" unicode="&#xdf;" horiz-adv-x="629" 
d="M78 306q0 -26 15.5 -42.5t39.5 -28.5t51 -23t51 -26t39.5 -36t15.5 -53q0 -31 -14.5 -51.5t-36.5 -33t-47.5 -17.5t-47.5 -5q-20 0 -41.5 3.5t-39 12.5t-28.5 23.5t-11 35.5q0 20 15.5 38.5t49.5 18.5q5 0 12 -1t7 -8q0 -5 -6 -6t-13 -4t-13 -10.5t-6 -24.5q0 -30 25 -45
t56 -15q17 0 33 3.5t29 11t20.5 19.5t7.5 29q0 27 -16 43.5t-39.5 29t-51 23t-51 24.5t-39.5 34.5t-16 52.5q0 31 13.5 51.5t34 33t45 17.5t46.5 5q21 0 42 -3.5t38.5 -12t28.5 -23t11 -35.5q0 -20 -15 -39t-50 -19q-5 0 -12 1t-7 9q0 6 6 6.5t13 2.5t13 9t6 27
q0 31 -25.5 45.5t-55.5 14.5q-35 0 -58.5 -14.5t-23.5 -47.5zM392 306q0 -26 16 -42.5t39.5 -28.5t51 -23t51 -26t39.5 -36t16 -53q0 -31 -15 -51.5t-37 -33t-47.5 -17.5t-47.5 -5q-20 0 -41.5 3.5t-39 12.5t-28.5 23.5t-11 35.5q0 20 16 38.5t49 18.5q5 0 12 -1t7 -8
q0 -5 -6 -6t-13 -4t-13 -10.5t-6 -24.5q0 -30 25.5 -45t56.5 -15q16 0 32.5 3.5t29 11t20.5 19.5t8 29q0 27 -16 43.5t-39.5 29t-51.5 23t-51.5 24.5t-39.5 34.5t-16 52.5q0 31 13.5 51.5t34.5 33t45.5 17.5t45.5 5t42 -3.5t38.5 -12t28.5 -23t11 -35.5q0 -20 -15 -39
t-50 -19q-5 0 -12 1t-7 9q0 6 6 6.5t13.5 2.5t13.5 9t6 27q0 31 -25.5 45.5t-56.5 14.5q-35 0 -58.5 -14.5t-23.5 -47.5z" />
    <glyph glyph-name="agrave" unicode="&#xe0;" horiz-adv-x="548" 
d="M474 -18q-26 0 -48.5 16.5t-37.5 48.5q-47 -36 -91 -50t-75 -14q-46 0 -82 13.5t-61 38t-38 58.5t-13 75q0 31 15.5 66.5t45.5 66t73 50.5t97 20q34 0 72.5 -11.5t68.5 -43.5q11 29 23.5 49t22.5 20q3 0 6 -3.5t3 -5.5q0 -4 -5.5 -15t-11.5 -33.5t-11.5 -58.5t-5.5 -90
q0 -35 8.5 -64t22 -49.5t29.5 -32t31 -11.5q26 0 38.5 15.5t26.5 45.5q2 2 5 5.5t8 3.5q6 0 6 -9q0 -5 -6.5 -21t-21 -34t-38 -32t-56.5 -14zM234 8q14 0 29.5 2.5t33 9t38 18t43.5 30.5q-6 18 -9.5 40.5t-3.5 48.5q0 28 8 67t21 74q-31 33 -64 42.5t-61 9.5
q-49 0 -80.5 -19t-50 -46.5t-25.5 -58t-7 -54.5q0 -85 37 -124.5t91 -39.5zM214 583q23 -42 55 -80t60 -64l-12 -13q-35 10 -78 36t-89 68q5 9 13 17.5t17.5 16t18.5 13t15 6.5z" />
    <glyph glyph-name="aacute" unicode="&#xe1;" horiz-adv-x="548" 
d="M474 -18q-26 0 -48.5 16.5t-37.5 48.5q-47 -36 -91 -50t-75 -14q-46 0 -82 13.5t-61 38t-38 58.5t-13 75q0 31 15.5 66.5t45.5 66t73 50.5t97 20q34 0 72.5 -11.5t68.5 -43.5q11 29 23.5 49t22.5 20q3 0 6 -3.5t3 -5.5q0 -4 -5.5 -15t-11.5 -33.5t-11.5 -58.5t-5.5 -90
q0 -35 8.5 -64t22 -49.5t29.5 -32t31 -11.5q26 0 38.5 15.5t26.5 45.5q2 2 5 5.5t8 3.5q6 0 6 -9q0 -5 -6.5 -21t-21 -34t-38 -32t-56.5 -14zM234 8q14 0 29.5 2.5t33 9t38 18t43.5 30.5q-6 18 -9.5 40.5t-3.5 48.5q0 28 8 67t21 74q-31 33 -64 42.5t-61 9.5
q-49 0 -80.5 -19t-50 -46.5t-25.5 -58t-7 -54.5q0 -85 37 -124.5t91 -39.5zM322 583q6 -1 15 -6.5t18 -13t17 -16t13 -17.5q-46 -42 -89 -68t-78 -36l-12 13q29 26 61 64t55 80z" />
    <glyph glyph-name="acircumflex" unicode="&#xe2;" horiz-adv-x="548" 
d="M474 -18q-26 0 -48.5 16.5t-37.5 48.5q-47 -36 -91 -50t-75 -14q-46 0 -82 13.5t-61 38t-38 58.5t-13 75q0 31 15.5 66.5t45.5 66t73 50.5t97 20q34 0 72.5 -11.5t68.5 -43.5q11 29 23.5 49t22.5 20q3 0 6 -3.5t3 -5.5q0 -4 -5.5 -15t-11.5 -33.5t-11.5 -58.5t-5.5 -90
q0 -35 8.5 -64t22 -49.5t29.5 -32t31 -11.5q26 0 38.5 15.5t26.5 45.5q2 2 5 5.5t8 3.5q6 0 6 -9q0 -5 -6.5 -21t-21 -34t-38 -32t-56.5 -14zM234 8q14 0 29.5 2.5t33 9t38 18t43.5 30.5q-6 18 -9.5 40.5t-3.5 48.5q0 28 8 67t21 74q-31 33 -64 42.5t-61 9.5
q-49 0 -80.5 -19t-50 -46.5t-25.5 -58t-7 -54.5q0 -85 37 -124.5t91 -39.5zM310 592q3 -21 12.5 -46t22 -48t26 -42t24.5 -28h-39q-5 4 -17 16.5t-25.5 29t-26 33t-18.5 27.5q-10 -13 -26.5 -29.5t-33 -32.5t-31 -28t-21.5 -16h-41q13 10 31 28.5t36 41.5t35 47.5t29 46.5
h63z" />
    <glyph glyph-name="atilde" unicode="&#xe3;" horiz-adv-x="548" 
d="M474 -18q-26 0 -48.5 16.5t-37.5 48.5q-47 -36 -91 -50t-75 -14q-46 0 -82 13.5t-61 38t-38 58.5t-13 75q0 31 15.5 66.5t45.5 66t73 50.5t97 20q34 0 72.5 -11.5t68.5 -43.5q11 29 23.5 49t22.5 20q3 0 6 -3.5t3 -5.5q0 -4 -5.5 -15t-11.5 -33.5t-11.5 -58.5t-5.5 -90
q0 -35 8.5 -64t22 -49.5t29.5 -32t31 -11.5q26 0 38.5 15.5t26.5 45.5q2 2 5 5.5t8 3.5q6 0 6 -9q0 -5 -6.5 -21t-21 -34t-38 -32t-56.5 -14zM234 8q14 0 29.5 2.5t33 9t38 18t43.5 30.5q-6 18 -9.5 40.5t-3.5 48.5q0 28 8 67t21 74q-31 33 -64 42.5t-61 9.5
q-49 0 -80.5 -19t-50 -46.5t-25.5 -58t-7 -54.5q0 -85 37 -124.5t91 -39.5zM413 496q-6 -11 -15.5 -23t-21.5 -22.5t-25 -17.5t-25 -7q-17 0 -34 8.5t-33.5 19t-31.5 19.5t-27 9q-14 0 -35 -5t-41 -16l-10 6q6 11 16 23.5t22 23.5t25 18.5t26 7.5q14 0 31 -8.5t33.5 -19
t32 -19t26.5 -8.5q15 0 36 2t44 16z" />
    <glyph glyph-name="adieresis" unicode="&#xe4;" horiz-adv-x="548" 
d="M474 -18q-26 0 -48.5 16.5t-37.5 48.5q-47 -36 -91 -50t-75 -14q-46 0 -82 13.5t-61 38t-38 58.5t-13 75q0 31 15.5 66.5t45.5 66t73 50.5t97 20q34 0 72.5 -11.5t68.5 -43.5q11 29 23.5 49t22.5 20q3 0 6 -3.5t3 -5.5q0 -4 -5.5 -15t-11.5 -33.5t-11.5 -58.5t-5.5 -90
q0 -35 8.5 -64t22 -49.5t29.5 -32t31 -11.5q26 0 38.5 15.5t26.5 45.5q2 2 5 5.5t8 3.5q6 0 6 -9q0 -5 -6.5 -21t-21 -34t-38 -32t-56.5 -14zM234 8q14 0 29.5 2.5t33 9t38 18t43.5 30.5q-6 18 -9.5 40.5t-3.5 48.5q0 28 8 67t21 74q-31 33 -64 42.5t-61 9.5
q-49 0 -80.5 -19t-50 -46.5t-25.5 -58t-7 -54.5q0 -85 37 -124.5t91 -39.5zM281 469q0 20 13 33t32 13q18 0 31.5 -13t13.5 -33q0 -18 -13.5 -30.5t-31.5 -12.5q-19 0 -32 12.5t-13 30.5zM142 469q0 20 12.5 33t31.5 13t31.5 -13t12.5 -33q0 -18 -12.5 -30.5t-31.5 -12.5
t-31.5 12.5t-12.5 30.5z" />
    <glyph glyph-name="aring" unicode="&#xe5;" horiz-adv-x="548" 
d="M474 -18q-26 0 -48.5 16.5t-37.5 48.5q-47 -36 -91 -50t-75 -14q-46 0 -82 13.5t-61 38t-38 58.5t-13 75q0 31 15.5 66.5t45.5 66t73 50.5t97 20q34 0 72.5 -11.5t68.5 -43.5q11 29 23.5 49t22.5 20q3 0 6 -3.5t3 -5.5q0 -4 -5.5 -15t-11.5 -33.5t-11.5 -58.5t-5.5 -90
q0 -35 8.5 -64t22 -49.5t29.5 -32t31 -11.5q26 0 38.5 15.5t26.5 45.5q2 2 5 5.5t8 3.5q6 0 6 -9q0 -5 -6.5 -21t-21 -34t-38 -32t-56.5 -14zM234 8q14 0 29.5 2.5t33 9t38 18t43.5 30.5q-6 18 -9.5 40.5t-3.5 48.5q0 28 8 67t21 74q-31 33 -64 42.5t-61 9.5
q-49 0 -80.5 -19t-50 -46.5t-25.5 -58t-7 -54.5q0 -85 37 -124.5t91 -39.5zM160 520q0 41 28 68.5t68 27.5q41 0 68.5 -27.5t27.5 -68.5q0 -40 -27.5 -68t-68.5 -28q-40 0 -68 28t-28 68zM200 520q0 -24 16 -40t40 -16q23 0 39 16t16 40q0 23 -16 39t-39 16q-24 0 -40 -16
t-16 -39z" />
    <glyph glyph-name="ae" unicode="&#xe6;" horiz-adv-x="740" 
d="M468 374q0 -3 -3 -10.5t-6.5 -17.5t-7.5 -21t-5 -21q27 27 63.5 44t79.5 17q19 0 42 -4.5t42.5 -15t32.5 -28.5t13 -45q0 -31 -17.5 -57t-46.5 -45.5t-66.5 -30.5t-76.5 -11q-20 0 -38 2.5t-36 8.5q3 -25 14 -49t29 -43t42 -30.5t54 -11.5q45 0 81.5 21t71.5 57
q9 10 14 17t8 7t4 -4t1 -8q0 -10 -5 -12q-32 -40 -76 -70t-108 -30q-60 0 -108 21.5t-70 69.5q-21 -28 -43.5 -46t-44.5 -28t-42.5 -13.5t-35.5 -3.5q-46 0 -82 13.5t-61 38t-38 58.5t-13 75q0 31 14.5 66.5t42 66t68 50.5t91.5 20q38 0 79 -18.5t73 -63.5q12 36 28 63
t35 27q7 0 7 -5zM236 4q14 0 32 3.5t37.5 13t39.5 28t38 48.5q-7 27 -7 61q0 29 4.5 57.5t11.5 52.5q-30 46 -64.5 64t-71.5 18q-44 0 -72.5 -19t-45 -46.5t-23.5 -58t-7 -54.5q0 -44 10 -76t27 -52.5t40.5 -30t50.5 -9.5zM568 346q-36 0 -60.5 -19t-40 -47.5t-22.5 -62
t-8 -62.5q15 -7 32 -9.5t34 -2.5q28 0 54.5 8t47 23t33 36.5t12.5 48.5q0 37 -22 62t-60 25z" />
    <glyph glyph-name="ccedilla" unicode="&#xe7;" horiz-adv-x="392" 
d="M340 179q-15 -15 -24 -15t-9 12q0 10 6 20q8 12 9.5 26t1.5 26q0 17 -7 33.5t-19.5 29.5t-29.5 21t-36 8q-37 0 -63 -16t-42 -41.5t-23.5 -58.5t-7.5 -67q0 -32 7.5 -61t24.5 -51t44 -35.5t67 -13.5q31 0 60.5 12.5t50.5 28.5q26 19 37 35.5t16 16.5q7 0 7 -6t-14 -23.5
t-39 -36t-59 -33t-74 -14.5h-9t-7 1l-9 -24q16 -4 30.5 -15t14.5 -33q0 -23 -15.5 -39t-35.5 -30q-3 -5 -7 -5q-5 0 -5 3t7 10q11 10 15.5 21.5t4.5 24.5q0 18 -13 28t-26 12l17 48q-73 9 -117 51.5t-44 114.5q0 33 13.5 71t39.5 70t62.5 53.5t83.5 21.5q72 0 110.5 -28.5
t38.5 -73.5q0 -23 -9.5 -43.5t-23.5 -35.5z" />
    <glyph glyph-name="egrave" unicode="&#xe8;" horiz-adv-x="389" 
d="M160 128q-20 0 -38.5 2.5t-36.5 8.5q4 -25 15 -49t29 -43t42 -30.5t53 -11.5q45 0 82 21t72 57q9 10 14 17t8 7t4.5 -4t1.5 -8t-2 -7.5t-4 -4.5q-33 -40 -77 -70t-108 -30q-38 0 -72.5 9t-60.5 28t-41.5 49t-15.5 71q0 40 15 80t43 72t67 52.5t86 20.5q19 0 42 -4.5
t42.5 -15t33 -28.5t13.5 -45q0 -31 -17.5 -57t-46.5 -45.5t-66.5 -30.5t-76.5 -11zM215 346q-32 0 -56 -17.5t-40.5 -44.5t-25 -60t-8.5 -64v-5q16 -7 32 -9.5t33 -2.5q29 0 56 8t47.5 23t33 36.5t12.5 48.5q0 37 -23 62t-61 25zM160 583q23 -42 55.5 -80t59.5 -64l-12 -13
q-35 10 -78 36t-88 68q4 9 12.5 17.5t17.5 16t18 13t15 6.5z" />
    <glyph glyph-name="eacute" unicode="&#xe9;" horiz-adv-x="389" 
d="M160 128q-20 0 -38.5 2.5t-36.5 8.5q4 -25 15 -49t29 -43t42 -30.5t53 -11.5q45 0 82 21t72 57q9 10 14 17t8 7t4.5 -4t1.5 -8t-2 -7.5t-4 -4.5q-33 -40 -77 -70t-108 -30q-38 0 -72.5 9t-60.5 28t-41.5 49t-15.5 71q0 40 15 80t43 72t67 52.5t86 20.5q19 0 42 -4.5
t42.5 -15t33 -28.5t13.5 -45q0 -31 -17.5 -57t-46.5 -45.5t-66.5 -30.5t-76.5 -11zM215 346q-32 0 -56 -17.5t-40.5 -44.5t-25 -60t-8.5 -64v-5q16 -7 32 -9.5t33 -2.5q29 0 56 8t47.5 23t33 36.5t12.5 48.5q0 37 -23 62t-61 25zM260 583q6 -1 15 -6.5t18.5 -13t17.5 -16
t13 -17.5q-46 -42 -89 -68t-78 -36l-12 13q28 26 60 64t55 80z" />
    <glyph glyph-name="ecircumflex" unicode="&#xea;" horiz-adv-x="389" 
d="M160 128q-20 0 -38.5 2.5t-36.5 8.5q4 -25 15 -49t29 -43t42 -30.5t53 -11.5q45 0 82 21t72 57q9 10 14 17t8 7t4.5 -4t1.5 -8t-2 -7.5t-4 -4.5q-33 -40 -77 -70t-108 -30q-38 0 -72.5 9t-60.5 28t-41.5 49t-15.5 71q0 40 15 80t43 72t67 52.5t86 20.5q19 0 42 -4.5
t42.5 -15t33 -28.5t13.5 -45q0 -31 -17.5 -57t-46.5 -45.5t-66.5 -30.5t-76.5 -11zM215 346q-32 0 -56 -17.5t-40.5 -44.5t-25 -60t-8.5 -64v-5q16 -7 32 -9.5t33 -2.5q29 0 56 8t47.5 23t33 36.5t12.5 48.5q0 37 -23 62t-61 25zM265 592q4 -21 13.5 -46t21.5 -48t25 -42
t24 -28h-37q-6 4 -18 16.5t-25.5 29t-26 33t-18.5 27.5q-10 -13 -26 -29.5t-32.5 -32.5t-31 -28t-21.5 -16h-41q13 10 30.5 28.5t35.5 41.5t35 47.5t30 46.5h62z" />
    <glyph glyph-name="edieresis" unicode="&#xeb;" horiz-adv-x="389" 
d="M160 128q-20 0 -38.5 2.5t-36.5 8.5q4 -25 15 -49t29 -43t42 -30.5t53 -11.5q45 0 82 21t72 57q9 10 14 17t8 7t4.5 -4t1.5 -8t-2 -7.5t-4 -4.5q-33 -40 -77 -70t-108 -30q-38 0 -72.5 9t-60.5 28t-41.5 49t-15.5 71q0 40 15 80t43 72t67 52.5t86 20.5q19 0 42 -4.5
t42.5 -15t33 -28.5t13.5 -45q0 -31 -17.5 -57t-46.5 -45.5t-66.5 -30.5t-76.5 -11zM215 346q-32 0 -56 -17.5t-40.5 -44.5t-25 -60t-8.5 -64v-5q16 -7 32 -9.5t33 -2.5q29 0 56 8t47.5 23t33 36.5t12.5 48.5q0 37 -23 62t-61 25zM247 469q0 20 13.5 33t32.5 13q18 0 31 -13
t13 -33q0 -18 -13 -30.5t-31 -12.5q-19 0 -32.5 12.5t-13.5 30.5zM108 469q0 20 12.5 33t31.5 13q20 0 32.5 -13t12.5 -33q0 -18 -12.5 -30.5t-32.5 -12.5q-19 0 -31.5 12.5t-12.5 30.5z" />
    <glyph glyph-name="igrave" unicode="&#xec;" horiz-adv-x="229" 
d="M66 88q0 25 6.5 54.5t15 58t15 53.5t6.5 42q0 20 -10 33t-27 13q-14 0 -24.5 -7t-18.5 -16t-13.5 -16t-8.5 -7q-7 0 -7 5q0 4 7 14.5t20 21.5t30.5 19.5t37.5 8.5q13 0 26 -4t23.5 -12t17 -20t6.5 -28q0 -30 -6.5 -61t-15 -61t-15 -57.5t-6.5 -50.5q0 -11 2.5 -24t8 -24
t15 -19t23.5 -8q16 0 29.5 9t23.5 20t16.5 20t9.5 9q5 0 5 -7q0 -2 -7 -13.5t-19.5 -24.5t-31.5 -23.5t-43 -10.5q-2 0 -16.5 2t-31 12.5t-30 33.5t-13.5 65zM59 583q23 -42 55 -80t60 -64l-12 -13q-35 10 -78 36t-89 68q5 9 13 17.5t17.5 16t18.5 13t15 6.5z" />
    <glyph glyph-name="iacute" unicode="&#xed;" horiz-adv-x="229" 
d="M66 88q0 25 6.5 54.5t15 58t15 53.5t6.5 42q0 20 -10 33t-27 13q-14 0 -24.5 -7t-18.5 -16t-13.5 -16t-8.5 -7q-7 0 -7 5q0 4 7 14.5t20 21.5t30.5 19.5t37.5 8.5q13 0 26 -4t23.5 -12t17 -20t6.5 -28q0 -30 -6.5 -61t-15 -61t-15 -57.5t-6.5 -50.5q0 -11 2.5 -24t8 -24
t15 -19t23.5 -8q16 0 29.5 9t23.5 20t16.5 20t9.5 9q5 0 5 -7q0 -2 -7 -13.5t-19.5 -24.5t-31.5 -23.5t-43 -10.5q-2 0 -16.5 2t-31 12.5t-30 33.5t-13.5 65zM166 583q6 -1 15 -6.5t18 -13t17 -16t13 -17.5q-46 -42 -89 -68t-78 -36l-12 13q29 26 61 64t55 80z" />
    <glyph glyph-name="icircumflex" unicode="&#xee;" horiz-adv-x="229" 
d="M66 88q0 25 6.5 54.5t15 58t15 53.5t6.5 42q0 20 -10 33t-27 13q-14 0 -24.5 -7t-18.5 -16t-13.5 -16t-8.5 -7q-7 0 -7 5q0 4 7 14.5t20 21.5t30.5 19.5t37.5 8.5q13 0 26 -4t23.5 -12t17 -20t6.5 -28q0 -30 -6.5 -61t-15 -61t-15 -57.5t-6.5 -50.5q0 -11 2.5 -24t8 -24
t15 -19t23.5 -8q16 0 29.5 9t23.5 20t16.5 20t9.5 9q5 0 5 -7q0 -2 -7 -13.5t-19.5 -24.5t-31.5 -23.5t-43 -10.5q-2 0 -16.5 2t-31 12.5t-30 33.5t-13.5 65zM162 592q4 -21 13.5 -46t21.5 -48t25.5 -42t24.5 -28h-37q-6 4 -18.5 16.5t-26 29t-26 33t-18.5 27.5
q-10 -13 -26 -29.5t-32.5 -32.5t-31 -28t-20.5 -16h-41q13 10 30.5 28.5t35.5 41.5t35 47.5t29 46.5h62z" />
    <glyph glyph-name="idieresis" unicode="&#xef;" horiz-adv-x="229" 
d="M66 88q0 25 6.5 54.5t15 58t15 53.5t6.5 42q0 20 -10 33t-27 13q-14 0 -24.5 -7t-18.5 -16t-13.5 -16t-8.5 -7q-7 0 -7 5q0 4 7 14.5t20 21.5t30.5 19.5t37.5 8.5q13 0 26 -4t23.5 -12t17 -20t6.5 -28q0 -30 -6.5 -61t-15 -61t-15 -57.5t-6.5 -50.5q0 -11 2.5 -24t8 -24
t15 -19t23.5 -8q16 0 29.5 9t23.5 20t16.5 20t9.5 9q5 0 5 -7q0 -2 -7 -13.5t-19.5 -24.5t-31.5 -23.5t-43 -10.5q-2 0 -16.5 2t-31 12.5t-30 33.5t-13.5 65zM-1 469q0 20 12.5 33t32.5 13q18 0 31 -13t13 -33q0 -18 -13 -30.5t-31 -12.5q-20 0 -32.5 12.5t-12.5 30.5z
M138 469q0 20 14 33t32 13t31 -13t13 -33q0 -18 -13 -30.5t-31 -12.5t-32 12.5t-14 30.5z" />
    <glyph glyph-name="eth" unicode="&#xf0;" horiz-adv-x="522" 
d="M210 683q0 -11 -8 -11q-14 0 -14 32q0 13 2.5 37t12 48t28 41.5t50.5 17.5q48 0 86.5 -39t65.5 -102l58 38q2 2 4.5 3t4.5 1q10 0 10 -10q0 -5 -7 -11l-63 -40q26 -67 40 -145.5t14 -150.5q0 -35 -7 -79.5t-21.5 -90.5t-37.5 -90t-55 -78t-73.5 -55t-93.5 -21
q-47 0 -81 13t-56 35t-33 50.5t-11 60.5q0 39 16.5 79.5t47 72.5t75 52.5t101.5 20.5q19 0 40.5 -4t39 -10t29 -11.5t11.5 -8.5q0 -9 -7 -9q-4 0 -12 4.5t-21.5 9.5t-32 9.5t-42.5 4.5q-43 0 -76.5 -18.5t-56 -47.5t-34 -65.5t-11.5 -72.5q0 -29 7.5 -55t23 -46t39 -31.5
t54.5 -11.5q57 0 97.5 37.5t67 96t39 129.5t12.5 139q0 14 -2.5 41.5t-7 62t-11.5 73t-17 76.5l-64 -43q-5 -4 -10 -4q-3 0 -6 3t-3 8q0 2 1.5 5t5.5 5l70 48q-9 30 -20.5 57.5t-25 48.5t-29.5 33t-35 12q-26 0 -39.5 -15.5t-20.5 -35.5t-8 -41t-1 -31q0 -5 0.5 -9.5
t0.5 -11.5z" />
    <glyph glyph-name="ntilde" unicode="&#xf1;" horiz-adv-x="486" 
d="M430 -35q-38 0 -62.5 27t-24.5 66q0 28 2.5 51t5.5 44.5t5.5 43t2.5 47.5q0 13 -1.5 25.5t-6 23t-12 17t-20.5 6.5q-19 0 -34.5 -15.5t-28.5 -39.5t-23.5 -53.5t-18.5 -58t-14 -52t-9 -36.5q-3 -12 -8.5 -28t-12 -30.5t-15 -24.5t-18.5 -10q-5 0 -6 4t-1 8q0 2 3 12.5
t4 18.5q5 29 5.5 61t0.5 68q0 28 -2.5 59.5t-10 58.5t-22 44.5t-38.5 17.5q-14 0 -25.5 -8t-20.5 -17t-15 -17t-9 -8q-2 0 -4.5 2t-2.5 8l2 4q26 33 51 46.5t63 13.5q27 0 46 -10t31 -27.5t17.5 -40.5t5.5 -49q0 -7 -0.5 -13.5t-0.5 -12.5q10 27 21 55t27.5 50.5t40 36.5
t57.5 14q30 0 46 -12.5t23.5 -30.5t9 -39t1.5 -38q0 -24 -4 -49t-9.5 -51t-10 -52t-4.5 -50q0 -5 1.5 -12.5t6 -14t13 -11t21.5 -4.5q10 0 20 7t18.5 16t14 16t7.5 7q7 0 7 -9q0 -3 -2 -8.5t-5 -7.5q-17 -20 -33.5 -29.5t-44.5 -9.5zM410 496q-6 -11 -15.5 -23t-21 -22.5
t-24.5 -17.5t-25 -7q-17 0 -34 8.5t-33.5 19t-31.5 19.5t-27 9q-14 0 -35.5 -5t-41.5 -16l-9 6q6 11 15.5 23.5t21.5 23.5t25.5 18.5t25.5 7.5q15 0 32 -8.5t33.5 -19t32 -19t26.5 -8.5q14 0 35 2t44 16z" />
    <glyph glyph-name="ograve" unicode="&#xf2;" horiz-adv-x="463" 
d="M193 583q23 -42 55.5 -80t59.5 -64l-12 -13q-34 10 -77 36t-88 68q4 9 12 17.5t17 16t18 13t15 6.5zM270 347q-20 0 -29 -5t-15 -5q-4 0 -4 5q0 9 16.5 15.5t38.5 6.5q36 0 65.5 -13.5t51 -36.5t33.5 -54t12 -67q0 -41 -12 -78t-37 -65t-64.5 -44.5t-93.5 -16.5
q-45 0 -83 12t-66 35t-43.5 57.5t-15.5 78.5q0 43 18 80.5t45.5 65.5t59 44t58.5 16q5 0 10 -0.5t5 -4.5q0 -5 -14.5 -7t-30.5 -11q-22 -13 -38.5 -34.5t-27 -46t-16 -50.5t-5.5 -48q0 -78 38 -124t106 -46q36 0 63.5 15.5t46 40.5t27.5 56t9 63q0 56 -11.5 89t-28 50
t-35.5 22t-33 5z" />
    <glyph glyph-name="oacute" unicode="&#xf3;" horiz-adv-x="463" 
d="M313 583q6 -1 15 -6.5t18.5 -13t17.5 -16t13 -17.5q-46 -42 -89 -68t-78 -36l-12 13q28 26 60 64t55 80zM270 347q-20 0 -29 -5t-15 -5q-4 0 -4 5q0 9 16.5 15.5t38.5 6.5q36 0 65.5 -13.5t51 -36.5t33.5 -54t12 -67q0 -41 -12 -78t-37 -65t-64.5 -44.5t-93.5 -16.5
q-45 0 -83 12t-66 35t-43.5 57.5t-15.5 78.5q0 43 18 80.5t45.5 65.5t59 44t58.5 16q5 0 10 -0.5t5 -4.5q0 -5 -14.5 -7t-30.5 -11q-22 -13 -38.5 -34.5t-27 -46t-16 -50.5t-5.5 -48q0 -78 38 -124t106 -46q36 0 63.5 15.5t46 40.5t27.5 56t9 63q0 56 -11.5 89t-28 50
t-35.5 22t-33 5z" />
    <glyph glyph-name="ocircumflex" unicode="&#xf4;" horiz-adv-x="463" 
d="M290 592q4 -21 13.5 -46t22 -48t26 -42t24.5 -28h-39q-5 4 -17 16.5t-25.5 29t-26 33t-18.5 27.5q-10 -13 -26.5 -29.5t-33 -32.5t-31 -28t-21.5 -16h-41q13 10 31 28.5t36 41.5t35 47.5t29 46.5h62zM270 347q-20 0 -29 -5t-15 -5q-4 0 -4 5q0 9 16.5 15.5t38.5 6.5
q36 0 65.5 -13.5t51 -36.5t33.5 -54t12 -67q0 -41 -12 -78t-37 -65t-64.5 -44.5t-93.5 -16.5q-45 0 -83 12t-66 35t-43.5 57.5t-15.5 78.5q0 43 18 80.5t45.5 65.5t59 44t58.5 16q5 0 10 -0.5t5 -4.5q0 -5 -14.5 -7t-30.5 -11q-22 -13 -38.5 -34.5t-27 -46t-16 -50.5
t-5.5 -48q0 -78 38 -124t106 -46q36 0 63.5 15.5t46 40.5t27.5 56t9 63q0 56 -11.5 89t-28 50t-35.5 22t-33 5z" />
    <glyph glyph-name="otilde" unicode="&#xf5;" horiz-adv-x="463" 
d="M390 496q-6 -11 -16 -23t-21.5 -22.5t-24 -17.5t-24.5 -7q-17 0 -35 8.5t-34.5 19t-31.5 19.5t-27 9q-14 0 -35 -5t-41 -16l-9 6q6 11 15.5 23.5t21.5 23.5t25 18.5t26 7.5q14 0 31 -8.5t34 -19t32.5 -19t27.5 -8.5q14 0 35 2t44 16zM270 347q-20 0 -29 -5t-15 -5
q-4 0 -4 5q0 9 16.5 15.5t38.5 6.5q36 0 65.5 -13.5t51 -36.5t33.5 -54t12 -67q0 -41 -12 -78t-37 -65t-64.5 -44.5t-93.5 -16.5q-45 0 -83 12t-66 35t-43.5 57.5t-15.5 78.5q0 43 18 80.5t45.5 65.5t59 44t58.5 16q5 0 10 -0.5t5 -4.5q0 -5 -14.5 -7t-30.5 -11
q-22 -13 -38.5 -34.5t-27 -46t-16 -50.5t-5.5 -48q0 -78 38 -124t106 -46q36 0 63.5 15.5t46 40.5t27.5 56t9 63q0 56 -11.5 89t-28 50t-35.5 22t-33 5z" />
    <glyph glyph-name="odieresis" unicode="&#xf6;" horiz-adv-x="463" 
d="M128 469q0 20 13 33t33 13q18 0 30.5 -13t12.5 -33q0 -18 -12.5 -30.5t-30.5 -12.5q-20 0 -33 12.5t-13 30.5zM268 469q0 20 13.5 33t31.5 13t31.5 -13t13.5 -33q0 -18 -13.5 -30.5t-31.5 -12.5t-31.5 12.5t-13.5 30.5zM270 347q-20 0 -29 -5t-15 -5q-4 0 -4 5
q0 9 16.5 15.5t38.5 6.5q36 0 65.5 -13.5t51 -36.5t33.5 -54t12 -67q0 -41 -12 -78t-37 -65t-64.5 -44.5t-93.5 -16.5q-45 0 -83 12t-66 35t-43.5 57.5t-15.5 78.5q0 43 18 80.5t45.5 65.5t59 44t58.5 16q5 0 10 -0.5t5 -4.5q0 -5 -14.5 -7t-30.5 -11q-22 -13 -38.5 -34.5
t-27 -46t-16 -50.5t-5.5 -48q0 -78 38 -124t106 -46q36 0 63.5 15.5t46 40.5t27.5 56t9 63q0 56 -11.5 89t-28 50t-35.5 22t-33 5z" />
    <glyph glyph-name="divide" unicode="&#xf7;" horiz-adv-x="468" 
d="M167 85q0 28 19.5 47.5t47.5 19.5q27 0 46.5 -19.5t19.5 -47.5q0 -27 -19.5 -46.5t-46.5 -19.5q-28 0 -47.5 19.5t-19.5 46.5zM167 325q0 28 19.5 47.5t47.5 19.5q27 0 46.5 -19.5t19.5 -47.5q0 -27 -19.5 -46.5t-46.5 -19.5q-28 0 -47.5 19.5t-19.5 46.5zM59 191
q-9 0 -14 4.5t-5 9.5t5 10t14 5h350q9 0 14 -5t5 -10t-5 -9.5t-14 -4.5h-350z" />
    <glyph glyph-name="oslash" unicode="&#xf8;" horiz-adv-x="463" 
d="M138 -66q-3 -7 -12 -7q-5 0 -11 4.5t-6 9.5v5l27 60q-52 20 -82 61.5t-30 104.5q0 43 18 80.5t45.5 65.5t59 44t58.5 16q5 0 10 -0.5t5 -4.5q0 -5 -14.5 -7t-30.5 -11q-22 -13 -38.5 -34.5t-27 -46t-16 -50.5t-5.5 -48q0 -48 15 -85t43 -59l138 314q-3 0 -6.5 0.5
t-7.5 0.5q-20 0 -29 -5t-15 -5q-4 0 -4 5q0 9 16.5 15.5t38.5 6.5h15l31 69q1 7 9 7q6 0 12 -4.5t6 -9.5q0 -2 -1 -5l-27 -63q53 -15 85 -60t32 -105q0 -41 -12 -78t-37 -65t-64.5 -44.5t-93.5 -16.5q-18 0 -34.5 2t-33.5 5zM378 181q0 38 -5.5 65t-14.5 45.5t-21 29.5
t-24 16l-139 -320q27 -11 58 -11q36 0 63.5 15.5t46 40.5t27.5 56t9 63z" />
    <glyph glyph-name="ugrave" unicode="&#xf9;" horiz-adv-x="494" 
d="M244 17q32 0 61.5 21.5t50.5 63.5q-6 27 -6 62q0 33 7 69.5t17.5 68t23 52t23.5 20.5q5 0 5 -6q0 -7 -5 -30q-5 -19 -7 -35t-3.5 -32t-1.5 -34v-41q0 -36 3.5 -67.5t12.5 -55t24 -37t38 -13.5q26 0 43.5 19t22.5 41q2 5 6 5q3 0 6 -2.5t3 -7.5t-5.5 -17.5t-18 -26.5
t-32 -24.5t-46.5 -10.5q-38 0 -65 19.5t-40 61.5q-25 -45 -54.5 -64.5t-65.5 -19.5q-60 0 -93.5 32t-33.5 92q0 35 6 76t6 81q0 9 -2.5 19.5t-8.5 19.5t-16 15t-25 6q-16 0 -28.5 -9t-22 -19.5t-15.5 -19.5t-9 -9q-6 0 -6 7q0 3 9 16t25.5 27.5t38.5 26t49 11.5
q41 0 62 -22.5t21 -61.5q0 -50 -9.5 -94.5t-9.5 -75.5q0 -55 19.5 -76t45.5 -21zM197 583q23 -42 55 -80t60 -64l-12 -13q-35 10 -78 36t-89 68q5 9 13 17.5t17.5 16t18.5 13t15 6.5z" />
    <glyph glyph-name="uacute" unicode="&#xfa;" horiz-adv-x="494" 
d="M244 17q32 0 61.5 21.5t50.5 63.5q-6 27 -6 62q0 33 7 69.5t17.5 68t23 52t23.5 20.5q5 0 5 -6q0 -7 -5 -30q-5 -19 -7 -35t-3.5 -32t-1.5 -34v-41q0 -36 3.5 -67.5t12.5 -55t24 -37t38 -13.5q26 0 43.5 19t22.5 41q2 5 6 5q3 0 6 -2.5t3 -7.5t-5.5 -17.5t-18 -26.5
t-32 -24.5t-46.5 -10.5q-38 0 -65 19.5t-40 61.5q-25 -45 -54.5 -64.5t-65.5 -19.5q-60 0 -93.5 32t-33.5 92q0 35 6 76t6 81q0 9 -2.5 19.5t-8.5 19.5t-16 15t-25 6q-16 0 -28.5 -9t-22 -19.5t-15.5 -19.5t-9 -9q-6 0 -6 7q0 3 9 16t25.5 27.5t38.5 26t49 11.5
q41 0 62 -22.5t21 -61.5q0 -50 -9.5 -94.5t-9.5 -75.5q0 -55 19.5 -76t45.5 -21zM353 583q6 -1 15 -6.5t18 -13t17 -16t13 -17.5q-46 -42 -88.5 -68t-77.5 -36l-12 13q28 26 60 64t55 80z" />
    <glyph glyph-name="ucircumflex" unicode="&#xfb;" horiz-adv-x="494" 
d="M244 17q32 0 61.5 21.5t50.5 63.5q-6 27 -6 62q0 33 7 69.5t17.5 68t23 52t23.5 20.5q5 0 5 -6q0 -7 -5 -30q-5 -19 -7 -35t-3.5 -32t-1.5 -34v-41q0 -36 3.5 -67.5t12.5 -55t24 -37t38 -13.5q26 0 43.5 19t22.5 41q2 5 6 5q3 0 6 -2.5t3 -7.5t-5.5 -17.5t-18 -26.5
t-32 -24.5t-46.5 -10.5q-38 0 -65 19.5t-40 61.5q-25 -45 -54.5 -64.5t-65.5 -19.5q-60 0 -93.5 32t-33.5 92q0 35 6 76t6 81q0 9 -2.5 19.5t-8.5 19.5t-16 15t-25 6q-16 0 -28.5 -9t-22 -19.5t-15.5 -19.5t-9 -9q-6 0 -6 7q0 3 9 16t25.5 27.5t38.5 26t49 11.5
q41 0 62 -22.5t21 -61.5q0 -50 -9.5 -94.5t-9.5 -75.5q0 -55 19.5 -76t45.5 -21zM325 592q4 -21 13.5 -46t21.5 -48t25 -42t24 -28h-37q-6 4 -18 16.5t-25.5 29t-26 33t-18.5 27.5q-10 -13 -26 -29.5t-32.5 -32.5t-31 -28t-21.5 -16h-41q13 10 30.5 28.5t35.5 41.5t35 47.5
t30 46.5h62z" />
    <glyph glyph-name="udieresis" unicode="&#xfc;" horiz-adv-x="494" 
d="M244 17q32 0 61.5 21.5t50.5 63.5q-6 27 -6 62q0 33 7 69.5t17.5 68t23 52t23.5 20.5q5 0 5 -6q0 -7 -5 -30q-5 -19 -7 -35t-3.5 -32t-1.5 -34v-41q0 -36 3.5 -67.5t12.5 -55t24 -37t38 -13.5q26 0 43.5 19t22.5 41q2 5 6 5q3 0 6 -2.5t3 -7.5t-5.5 -17.5t-18 -26.5
t-32 -24.5t-46.5 -10.5q-38 0 -65 19.5t-40 61.5q-25 -45 -54.5 -64.5t-65.5 -19.5q-60 0 -93.5 32t-33.5 92q0 35 6 76t6 81q0 9 -2.5 19.5t-8.5 19.5t-16 15t-25 6q-16 0 -28.5 -9t-22 -19.5t-15.5 -19.5t-9 -9q-6 0 -6 7q0 3 9 16t25.5 27.5t38.5 26t49 11.5
q41 0 62 -22.5t21 -61.5q0 -50 -9.5 -94.5t-9.5 -75.5q0 -55 19.5 -76t45.5 -21zM300 469q0 20 13 33t33 13q18 0 31 -13t13 -33q0 -18 -13 -30.5t-31 -12.5q-20 0 -33 12.5t-13 30.5zM161 469q0 20 12.5 33t31.5 13t32 -13t13 -33q0 -18 -13 -30.5t-32 -12.5t-31.5 12.5
t-12.5 30.5z" />
    <glyph glyph-name="yacute" unicode="&#xfd;" horiz-adv-x="431" 
d="M498 -133q0 47 -32 69t-78 22h-8q-5 -45 -10.5 -76t-7.5 -39q-8 -29 -22.5 -61t-35.5 -58t-48.5 -43.5t-62.5 -17.5q-25 0 -47 20.5t-22 54.5q0 46 17 83.5t44.5 66t62.5 48t72 29.5q-1 23 -1.5 45.5t-0.5 45.5q-24 -21 -56 -41t-69 -20q-30 0 -48.5 10.5t-29 27.5
t-14 38.5t-3.5 44.5q0 18 4 37.5t9 40.5t9 42t4 41q0 9 -2 19.5t-7 19.5t-14.5 15t-24.5 6q-16 0 -29 -10.5t-22.5 -23t-16 -23t-9.5 -10.5q-7 0 -7 7q0 3 9.5 18t26.5 31t39.5 29t48.5 13q36 0 55.5 -18.5t19.5 -56.5q0 -31 -5 -58.5t-11.5 -54t-12 -53t-5.5 -56.5
q0 -9 2.5 -19t8.5 -18t16.5 -13t26.5 -5q32 0 58 19.5t49 40.5v2q0 10 1.5 35.5t5.5 57t11 66t17 62.5t24 46.5t33 18.5q8 0 8 -5q0 -7 -6.5 -16t-10.5 -31t-6.5 -42.5t-4 -46t-2 -57.5t-0.5 -77q0 -32 -1.5 -60.5t-3.5 -54.5h2q54 0 91.5 -26t37.5 -81q0 -20 -7.5 -35.5
t-16.5 -26t-18 -16.5t-12 -6q-8 0 -8 7q0 4 4 6q12 8 27 26.5t15 44.5zM301 -208q11 48 14.5 87t4.5 69q-33 -9 -64 -27t-55.5 -43.5t-39.5 -58.5t-15 -72q0 -31 14.5 -47t37.5 -16q19 0 36 10.5t31 26.5t23.5 35t12.5 36zM349 576q13 -3 33.5 -19.5t31.5 -33.5
q-47 -42 -89.5 -68t-78.5 -36l-12 13q29 26 61 64t54 80z" />
    <glyph glyph-name="thorn" unicode="&#xfe;" horiz-adv-x="476" 
d="M104 680q0 -19 0.5 -57t2 -88t2.5 -109.5t3 -120.5q18 24 38.5 39.5t40.5 24t37.5 11.5t29.5 3q92 0 142.5 -48.5t50.5 -131.5q0 -31 -13 -67t-38.5 -67t-64.5 -52t-90 -21q-32 0 -66 9t-63 35q2 -51 2.5 -93t0.5 -62q0 -39 -6 -75t-17 -63t-25.5 -43t-30.5 -16
q-8 0 -8 5q0 2 5 9t10 28q4 22 5.5 56t1.5 68q0 23 -0.5 77t-1.5 124t-1.5 148t-1.5 148.5t-1.5 126.5t-0.5 82q0 73 7.5 128t18.5 92t25 55.5t28 18.5q8 0 8 -7q0 -2 -5 -9t-11 -34q-5 -22 -9.5 -56t-4.5 -68zM112 277q2 -59 2.5 -110.5t1.5 -102.5q27 -29 57 -38.5
t62 -9.5q43 0 71.5 18.5t46 45.5t24.5 57t7 54q0 44 -13.5 75.5t-34.5 52t-45 30.5t-45 10q-14 0 -31 -4t-35.5 -13t-36 -25t-31.5 -40z" />
    <glyph glyph-name="ydieresis" unicode="&#xff;" horiz-adv-x="431" 
d="M498 -133q0 47 -32 69t-78 22h-8q-5 -45 -10.5 -76t-7.5 -39q-8 -29 -22.5 -61t-35.5 -58t-48.5 -43.5t-62.5 -17.5q-25 0 -47 20.5t-22 54.5q0 46 17 83.5t44.5 66t62.5 48t72 29.5q-1 23 -1.5 45.5t-0.5 45.5q-24 -21 -56 -41t-69 -20q-30 0 -48.5 10.5t-29 27.5
t-14 38.5t-3.5 44.5q0 18 4 37.5t9 40.5t9 42t4 41q0 9 -2 19.5t-7 19.5t-14.5 15t-24.5 6q-16 0 -29 -10.5t-22.5 -23t-16 -23t-9.5 -10.5q-7 0 -7 7q0 3 9.5 18t26.5 31t39.5 29t48.5 13q36 0 55.5 -18.5t19.5 -56.5q0 -31 -5 -58.5t-11.5 -54t-12 -53t-5.5 -56.5
q0 -9 2.5 -19t8.5 -18t16.5 -13t26.5 -5q32 0 58 19.5t49 40.5v2q0 10 1.5 35.5t5.5 57t11 66t17 62.5t24 46.5t33 18.5q8 0 8 -5q0 -7 -6.5 -16t-10.5 -31t-6.5 -42.5t-4 -46t-2 -57.5t-0.5 -77q0 -32 -1.5 -60.5t-3.5 -54.5h2q54 0 91.5 -26t37.5 -81q0 -20 -7.5 -35.5
t-16.5 -26t-18 -16.5t-12 -6q-8 0 -8 7q0 4 4 6q12 8 27 26.5t15 44.5zM301 -208q11 48 14.5 87t4.5 69q-33 -9 -64 -27t-55.5 -43.5t-39.5 -58.5t-15 -72q0 -31 14.5 -47t37.5 -16q19 0 36 10.5t31 26.5t23.5 35t12.5 36zM296 469q0 20 13.5 33t32.5 13q18 0 30.5 -13
t12.5 -33q0 -18 -12.5 -30.5t-30.5 -12.5q-19 0 -32.5 12.5t-13.5 30.5zM157 469q0 20 12.5 33t32.5 13q19 0 31.5 -13t12.5 -33q0 -18 -12.5 -30.5t-31.5 -12.5q-20 0 -32.5 12.5t-12.5 30.5z" />
    <glyph glyph-name="Amacron" unicode="&#x100;" horiz-adv-x="940" 
d="M889 505q0 -80 1.5 -153.5t1.5 -158.5q0 -39 -6.5 -78.5t-18 -71t-26 -51.5t-29.5 -20q-7 0 -7 5q0 9 1.5 21t4 31t4 47t1.5 69v34.5t-1 31.5q-33 -81 -79.5 -130.5t-99 -77t-106.5 -37t-102 -9.5q-39 0 -83.5 10t-87.5 30.5t-82.5 52t-69 73.5t-47.5 95.5t-18 118.5
q0 102 39.5 185.5t104 143t146.5 92.5t167 33q63 0 112 -14.5t85.5 -38t62 -53.5t41.5 -60.5t23 -58.5t7 -48v-2q9 34 20 62.5t21.5 49t20 32t15.5 11.5q7 0 7 -5q0 -2 -5 -10.5t-11 -35.5q-5 -21 -6 -51t-1 -64zM812 397q0 14 1 27.5t3 27.5q-12 -32 -33.5 -58t-49 -44
t-58.5 -27.5t-61 -9.5q-23 0 -49.5 8t-49.5 24.5t-38.5 42t-15.5 60.5q0 26 9.5 50.5t27 43t42 29.5t54.5 11q2 0 4 -3t2 -5q0 -5 -13.5 -10.5t-29 -18.5t-29 -37t-13.5 -66q0 -54 32.5 -80t78.5 -26q27 0 55.5 8t52 28t39 55.5t15.5 89.5q0 55 -24 102t-63 81t-89.5 53
t-103.5 19q-52 0 -99 -18.5t-86.5 -50.5t-71.5 -73.5t-54.5 -87.5t-34.5 -93.5t-12 -90.5q0 -87 24.5 -157t65.5 -119t95.5 -75.5t114.5 -26.5q46 0 101 16t106.5 51.5t94 93t62.5 141.5q-2 26 -2 53.5v61.5zM380 880q-10 0 -14.5 4.5t-4.5 9.5t4.5 9.5t14.5 4.5h245
q10 0 14.5 -4.5t4.5 -9.5t-4.5 -9.5t-14.5 -4.5h-245z" />
    <glyph glyph-name="amacron" unicode="&#x101;" horiz-adv-x="548" 
d="M474 -18q-26 0 -48.5 16.5t-37.5 48.5q-47 -36 -91 -50t-75 -14q-46 0 -82 13.5t-61 38t-38 58.5t-13 75q0 31 15.5 66.5t45.5 66t73 50.5t97 20q34 0 72.5 -11.5t68.5 -43.5q11 29 23.5 49t22.5 20q3 0 6 -3.5t3 -5.5q0 -4 -5.5 -15t-11.5 -33.5t-11.5 -58.5t-5.5 -90
q0 -35 8.5 -64t22 -49.5t29.5 -32t31 -11.5q26 0 38.5 15.5t26.5 45.5q2 2 5 5.5t8 3.5q6 0 6 -9q0 -5 -6.5 -21t-21 -34t-38 -32t-56.5 -14zM234 8q14 0 29.5 2.5t33 9t38 18t43.5 30.5q-6 18 -9.5 40.5t-3.5 48.5q0 28 8 67t21 74q-31 33 -64 42.5t-61 9.5
q-49 0 -80.5 -19t-50 -46.5t-25.5 -58t-7 -54.5q0 -85 37 -124.5t91 -39.5zM136 451q-9 0 -14.5 4.5t-5.5 10.5q0 5 5.5 9.5t14.5 4.5h246q10 0 14.5 -4.5t4.5 -9.5q0 -6 -4.5 -10.5t-14.5 -4.5h-246z" />
    <glyph glyph-name="Abreve" unicode="&#x102;" horiz-adv-x="940" 
d="M889 505q0 -80 1.5 -153.5t1.5 -158.5q0 -39 -6.5 -78.5t-18 -71t-26 -51.5t-29.5 -20q-7 0 -7 5q0 9 1.5 21t4 31t4 47t1.5 69v34.5t-1 31.5q-33 -81 -79.5 -130.5t-99 -77t-106.5 -37t-102 -9.5q-39 0 -83.5 10t-87.5 30.5t-82.5 52t-69 73.5t-47.5 95.5t-18 118.5
q0 102 39.5 185.5t104 143t146.5 92.5t167 33q63 0 112 -14.5t85.5 -38t62 -53.5t41.5 -60.5t23 -58.5t7 -48v-2q9 34 20 62.5t21.5 49t20 32t15.5 11.5q7 0 7 -5q0 -2 -5 -10.5t-11 -35.5q-5 -21 -6 -51t-1 -64zM812 397q0 14 1 27.5t3 27.5q-12 -32 -33.5 -58t-49 -44
t-58.5 -27.5t-61 -9.5q-23 0 -49.5 8t-49.5 24.5t-38.5 42t-15.5 60.5q0 26 9.5 50.5t27 43t42 29.5t54.5 11q2 0 4 -3t2 -5q0 -5 -13.5 -10.5t-29 -18.5t-29 -37t-13.5 -66q0 -54 32.5 -80t78.5 -26q27 0 55.5 8t52 28t39 55.5t15.5 89.5q0 55 -24 102t-63 81t-89.5 53
t-103.5 19q-52 0 -99 -18.5t-86.5 -50.5t-71.5 -73.5t-54.5 -87.5t-34.5 -93.5t-12 -90.5q0 -87 24.5 -157t65.5 -119t95.5 -75.5t114.5 -26.5q46 0 101 16t106.5 51.5t94 93t62.5 141.5q-2 26 -2 53.5v61.5zM484 849q-47 6 -72.5 42.5t-21.5 89.5l38 -4q-4 -28 13.5 -51.5
t45.5 -26.5t51.5 15t27.5 46l34 -4q-6 -51 -40.5 -81.5t-75.5 -25.5z" />
    <glyph glyph-name="abreve" unicode="&#x103;" horiz-adv-x="548" 
d="M474 -18q-26 0 -48.5 16.5t-37.5 48.5q-47 -36 -91 -50t-75 -14q-46 0 -82 13.5t-61 38t-38 58.5t-13 75q0 31 15.5 66.5t45.5 66t73 50.5t97 20q34 0 72.5 -11.5t68.5 -43.5q11 29 23.5 49t22.5 20q3 0 6 -3.5t3 -5.5q0 -4 -5.5 -15t-11.5 -33.5t-11.5 -58.5t-5.5 -90
q0 -35 8.5 -64t22 -49.5t29.5 -32t31 -11.5q26 0 38.5 15.5t26.5 45.5q2 2 5 5.5t8 3.5q6 0 6 -9q0 -5 -6.5 -21t-21 -34t-38 -32t-56.5 -14zM234 8q14 0 29.5 2.5t33 9t38 18t43.5 30.5q-6 18 -9.5 40.5t-3.5 48.5q0 28 8 67t21 74q-31 33 -64 42.5t-61 9.5
q-49 0 -80.5 -19t-50 -46.5t-25.5 -58t-7 -54.5q0 -85 37 -124.5t91 -39.5zM281 409q-47 6 -72.5 42.5t-21.5 89.5l38 -4q-4 -28 13.5 -51.5t45.5 -26.5t51.5 15t27.5 46l34 -4q-6 -51 -40.5 -81.5t-75.5 -25.5z" />
    <glyph glyph-name="Aogonek" unicode="&#x104;" horiz-adv-x="940" 
d="M889 505q0 -80 1.5 -153.5t1.5 -158.5q0 -20 -4 -50t-12 -61.5t-20.5 -60t-29.5 -44.5q-38 -34 -53.5 -65.5t-15.5 -51.5q0 -35 34 -35q49 0 81 51l8 -4q-18 -35 -52 -52.5t-66 -17.5q-26 0 -43 12t-17 38t23.5 61t79.5 71q0 9 2 21t4 30.5t3.5 45t1.5 64.5v34.5t-1 31.5
q-33 -81 -79.5 -130.5t-99 -77t-106.5 -37t-102 -9.5q-39 0 -83.5 10t-87.5 30.5t-82.5 52t-69 73.5t-47.5 95.5t-18 118.5q0 102 39.5 185.5t104 143t146.5 92.5t167 33q63 0 112 -14.5t85.5 -38t62 -53.5t41.5 -60.5t23 -59t7 -49.5q9 34 20 62.5t21.5 49t20 32t15.5 11.5
q7 0 7 -5q0 -2 -5 -10.5t-11 -35.5q-5 -21 -6 -51t-1 -64zM812 397q0 14 1 27.5t3 27.5q-12 -32 -33.5 -58t-49 -44t-58.5 -27.5t-61 -9.5q-23 0 -49.5 8t-49.5 24.5t-38.5 42t-15.5 60.5q0 26 9.5 50.5t27 43t42 29.5t54.5 11q2 0 4 -3t2 -5q0 -5 -13.5 -10.5t-29 -18.5
t-29 -37t-13.5 -66q0 -54 32.5 -80t78.5 -26q27 0 55.5 8t52 28t39 55.5t15.5 89.5q0 55 -24 102t-63 81t-89.5 53t-103.5 19q-52 0 -99 -18.5t-86.5 -50.5t-71.5 -73.5t-54.5 -87.5t-34.5 -93.5t-12 -90.5q0 -87 24.5 -157t65.5 -119t95.5 -75.5t114.5 -26.5q46 0 101 16
t106.5 51.5t94 93t62.5 141.5q-2 26 -2 53.5v61.5z" />
    <glyph glyph-name="aogonek" unicode="&#x105;" horiz-adv-x="548" 
d="M474 -18q-26 0 -48.5 16.5t-37.5 48.5q-47 -36 -91 -50t-75 -14q-46 0 -82 13.5t-61 38t-38 58.5t-13 75q0 31 15.5 66.5t45.5 66t73 50.5t97 20q34 0 72.5 -11.5t68.5 -43.5q11 29 23.5 49t22.5 20q3 0 6 -3.5t3 -5.5q0 -4 -5.5 -15t-11.5 -33.5t-11.5 -58.5t-5.5 -90
q0 -35 8.5 -64t22 -49.5t29.5 -32t31 -11.5q26 0 38.5 15.5t26.5 45.5q2 2 5 5.5t8 3.5q6 0 6 -9q0 -3 -3 -11.5t-9 -19.5t-15.5 -23.5t-22.5 -22.5q-39 -37 -56.5 -69t-17.5 -55q0 -34 33 -34q50 0 82 51l7 -3q-18 -35 -52 -53t-66 -18q-25 0 -42.5 12t-17.5 39q0 22 16 50
t54 57q-4 0 -6 -0.5t-6 -0.5zM234 8q14 0 29.5 2.5t33 9t38 18t43.5 30.5q-6 18 -9.5 40.5t-3.5 48.5q0 28 8 67t21 74q-31 33 -64 42.5t-61 9.5q-49 0 -80.5 -19t-50 -46.5t-25.5 -58t-7 -54.5q0 -85 37 -124.5t91 -39.5z" />
    <glyph glyph-name="Cacute" unicode="&#x106;" horiz-adv-x="844" 
d="M820 176q1 6 8 6q11 0 11 -12q0 -3 -1.5 -7t-3.5 -7q-35 -65 -79 -104t-92.5 -60t-98.5 -28t-97 -7q-43 0 -92.5 9.5t-98 29t-93 51t-78.5 75.5t-54.5 101.5t-20.5 129.5q0 122 42.5 210t110.5 144.5t153 83.5t169 27q70 0 135 -17.5t114.5 -50.5t79 -81t29.5 -110
q0 -46 -18 -92t-54 -82.5t-90 -59.5t-126 -23q-32 0 -65 6t-60 20.5t-44 38.5t-17 59q0 27 13.5 52.5t36 46t52 32.5t62.5 12q8 0 11.5 -3t3.5 -6q0 -5 -16 -8.5t-35 -14t-35 -34t-16 -69.5q0 -26 11 -46.5t28.5 -34.5t40 -22t46.5 -8q26 0 56 12.5t56 38.5t43 65.5t17 93.5
q0 66 -21.5 116t-57.5 83.5t-83 50t-99 16.5q-67 0 -135 -27.5t-123 -83t-89.5 -138.5t-34.5 -194q0 -86 30.5 -155.5t79.5 -118.5t111 -75.5t125 -26.5q51 0 103 8.5t98.5 30.5t86 60t65.5 97zM577 1028q6 -2 15 -7t18.5 -12.5t17.5 -16t13 -16.5q-46 -44 -89 -69.5
t-78 -36.5l-12 14q28 26 60 63.5t55 80.5z" />
    <glyph glyph-name="cacute" unicode="&#x107;" horiz-adv-x="392" 
d="M284 583q6 -1 15 -6.5t18.5 -13t18 -16t13.5 -17.5q-47 -42 -89.5 -68t-78.5 -36l-12 13q29 26 61.5 64t53.5 80zM340 179q-15 -15 -24 -15t-9 12q0 10 6 20q8 12 9.5 26t1.5 26q0 17 -7 33.5t-19.5 29.5t-29.5 21t-36 8q-37 0 -63 -16t-42 -41.5t-23.5 -58.5t-7.5 -67
q0 -32 7.5 -61t24.5 -51t44 -35.5t67 -13.5q31 0 60.5 12.5t50.5 28.5q26 19 37 35.5t16 16.5q7 0 7 -6t-14 -23.5t-39 -36t-59 -33t-74 -14.5q-44 0 -80.5 11t-63 32.5t-41 53t-14.5 71.5q0 33 13.5 71t39.5 70t62.5 53.5t83.5 21.5q72 0 110.5 -28.5t38.5 -73.5
q0 -23 -9.5 -43.5t-23.5 -35.5z" />
    <glyph glyph-name="Ccircumflex" unicode="&#x108;" horiz-adv-x="844" 
d="M820 176q1 6 8 6q11 0 11 -12q0 -3 -1.5 -7t-3.5 -7q-35 -65 -79 -104t-92.5 -60t-98.5 -28t-97 -7q-43 0 -92.5 9.5t-98 29t-93 51t-78.5 75.5t-54.5 101.5t-20.5 129.5q0 122 42.5 210t110.5 144.5t153 83.5t169 27q70 0 135 -17.5t114.5 -50.5t79 -81t29.5 -110
q0 -46 -18 -92t-54 -82.5t-90 -59.5t-126 -23q-32 0 -65 6t-60 20.5t-44 38.5t-17 59q0 27 13.5 52.5t36 46t52 32.5t62.5 12q8 0 11.5 -3t3.5 -6q0 -5 -16 -8.5t-35 -14t-35 -34t-16 -69.5q0 -26 11 -46.5t28.5 -34.5t40 -22t46.5 -8q26 0 56 12.5t56 38.5t43 65.5t17 93.5
q0 66 -21.5 116t-57.5 83.5t-83 50t-99 16.5q-67 0 -135 -27.5t-123 -83t-89.5 -138.5t-34.5 -194q0 -86 30.5 -155.5t79.5 -118.5t111 -75.5t125 -26.5q51 0 103 8.5t98.5 30.5t86 60t65.5 97zM541 1042q4 -21 13.5 -45.5t21.5 -47.5t25.5 -41.5t24.5 -27.5h-37
q-6 3 -18 15.5t-25.5 28.5t-26.5 32.5t-19 27.5q-10 -13 -26 -29.5t-32.5 -32t-31 -27.5t-20.5 -15h-41q13 9 30.5 27.5t35.5 41t35 47t29 46.5h62z" />
    <glyph glyph-name="ccircumflex" unicode="&#x109;" horiz-adv-x="392" 
d="M266 586q4 -21 13.5 -45.5t22 -47.5t26 -41.5t24.5 -27.5h-39q-5 3 -17 15.5t-25.5 28.5t-26 32.5t-18.5 27.5q-10 -13 -26.5 -29.5t-33 -32t-31 -27.5t-21.5 -15h-41q13 9 31 27.5t36 41t35 47t29 46.5h62zM340 179q-15 -15 -24 -15t-9 12q0 10 6 20q8 12 9.5 26t1.5 26
q0 17 -7 33.5t-19.5 29.5t-29.5 21t-36 8q-37 0 -63 -16t-42 -41.5t-23.5 -58.5t-7.5 -67q0 -32 7.5 -61t24.5 -51t44 -35.5t67 -13.5q31 0 60.5 12.5t50.5 28.5q26 19 37 35.5t16 16.5q7 0 7 -6t-14 -23.5t-39 -36t-59 -33t-74 -14.5q-44 0 -80.5 11t-63 32.5t-41 53
t-14.5 71.5q0 33 13.5 71t39.5 70t62.5 53.5t83.5 21.5q72 0 110.5 -28.5t38.5 -73.5q0 -23 -9.5 -43.5t-23.5 -35.5z" />
    <glyph glyph-name="Cdotaccent" unicode="&#x10a;" horiz-adv-x="844" 
d="M820 176q1 6 8 6q11 0 11 -12q0 -3 -1.5 -7t-3.5 -7q-35 -65 -79 -104t-92.5 -60t-98.5 -28t-97 -7q-43 0 -92.5 9.5t-98 29t-93 51t-78.5 75.5t-54.5 101.5t-20.5 129.5q0 122 42.5 210t110.5 144.5t153 83.5t169 27q70 0 135 -17.5t114.5 -50.5t79 -81t29.5 -110
q0 -46 -18 -92t-54 -82.5t-90 -59.5t-126 -23q-32 0 -65 6t-60 20.5t-44 38.5t-17 59q0 27 13.5 52.5t36 46t52 32.5t62.5 12q8 0 11.5 -3t3.5 -6q0 -5 -16 -8.5t-35 -14t-35 -34t-16 -69.5q0 -26 11 -46.5t28.5 -34.5t40 -22t46.5 -8q26 0 56 12.5t56 38.5t43 65.5t17 93.5
q0 66 -21.5 116t-57.5 83.5t-83 50t-99 16.5q-67 0 -135 -27.5t-123 -83t-89.5 -138.5t-34.5 -194q0 -86 30.5 -155.5t79.5 -118.5t111 -75.5t125 -26.5q51 0 103 8.5t98.5 30.5t86 60t65.5 97zM440 944q0 27 19 46.5t47 19.5q29 0 47.5 -19.5t18.5 -46.5q0 -28 -18.5 -47.5
t-47.5 -19.5q-28 0 -47 19.5t-19 47.5z" />
    <glyph glyph-name="cdotaccent" unicode="&#x10b;" horiz-adv-x="392" 
d="M154 491q0 28 19.5 47.5t46.5 19.5q28 0 47.5 -19.5t19.5 -47.5q0 -27 -19.5 -46.5t-47.5 -19.5q-27 0 -46.5 19.5t-19.5 46.5zM340 179q-15 -15 -24 -15t-9 12q0 10 6 20q8 12 9.5 26t1.5 26q0 17 -7 33.5t-19.5 29.5t-29.5 21t-36 8q-37 0 -63 -16t-42 -41.5
t-23.5 -58.5t-7.5 -67q0 -32 7.5 -61t24.5 -51t44 -35.5t67 -13.5q31 0 60.5 12.5t50.5 28.5q26 19 37 35.5t16 16.5q7 0 7 -6t-14 -23.5t-39 -36t-59 -33t-74 -14.5q-44 0 -80.5 11t-63 32.5t-41 53t-14.5 71.5q0 33 13.5 71t39.5 70t62.5 53.5t83.5 21.5q72 0 110.5 -28.5
t38.5 -73.5q0 -23 -9.5 -43.5t-23.5 -35.5z" />
    <glyph glyph-name="Ccaron" unicode="&#x10c;" horiz-adv-x="844" 
d="M820 176q1 6 8 6q11 0 11 -12q0 -3 -1.5 -7t-3.5 -7q-35 -65 -79 -104t-92.5 -60t-98.5 -28t-97 -7q-43 0 -92.5 9.5t-98 29t-93 51t-78.5 75.5t-54.5 101.5t-20.5 129.5q0 122 42.5 210t110.5 144.5t153 83.5t169 27q70 0 135 -17.5t114.5 -50.5t79 -81t29.5 -110
q0 -46 -18 -92t-54 -82.5t-90 -59.5t-126 -23q-32 0 -65 6t-60 20.5t-44 38.5t-17 59q0 27 13.5 52.5t36 46t52 32.5t62.5 12q8 0 11.5 -3t3.5 -6q0 -5 -16 -8.5t-35 -14t-35 -34t-16 -69.5q0 -26 11 -46.5t28.5 -34.5t40 -22t46.5 -8q26 0 56 12.5t56 38.5t43 65.5t17 93.5
q0 66 -21.5 116t-57.5 83.5t-83 50t-99 16.5q-67 0 -135 -27.5t-123 -83t-89.5 -138.5t-34.5 -194q0 -86 30.5 -155.5t79.5 -118.5t111 -75.5t125 -26.5q51 0 103 8.5t98.5 30.5t86 60t65.5 97zM455 870q-4 21 -13.5 46.5t-23.5 50t-30.5 44.5t-33.5 29h38q12 -3 27.5 -17
t30.5 -31t27.5 -35t18.5 -29q10 12 26 30t34.5 35t36 30.5t30.5 16.5h41q-20 -9 -40.5 -28.5t-40 -43.5t-36.5 -50t-30 -48h-62z" />
    <glyph glyph-name="ccaron" unicode="&#x10d;" horiz-adv-x="392" 
d="M179 426q-4 21 -13.5 46.5t-23.5 50t-30.5 44.5t-33.5 29h37q12 -3 27.5 -17t30.5 -31.5t28 -35.5t19 -28q10 12 26 30t34.5 35t36 30.5t30.5 16.5h41q-20 -9 -41 -29t-40.5 -44t-36.5 -49.5t-29 -47.5h-62zM340 179q-15 -15 -24 -15t-9 12q0 10 6 20q8 12 9.5 26t1.5 26
q0 17 -7 33.5t-19.5 29.5t-29.5 21t-36 8q-37 0 -63 -16t-42 -41.5t-23.5 -58.5t-7.5 -67q0 -32 7.5 -61t24.5 -51t44 -35.5t67 -13.5q31 0 60.5 12.5t50.5 28.5q26 19 37 35.5t16 16.5q7 0 7 -6t-14 -23.5t-39 -36t-59 -33t-74 -14.5q-44 0 -80.5 11t-63 32.5t-41 53
t-14.5 71.5q0 33 13.5 71t39.5 70t62.5 53.5t83.5 21.5q72 0 110.5 -28.5t38.5 -73.5q0 -23 -9.5 -43.5t-23.5 -35.5z" />
    <glyph glyph-name="Dcaron" unicode="&#x10e;" horiz-adv-x="1020" 
d="M316 -38q0 5 6.5 10t15.5 20t18 44.5t15 83.5h-1q-63 0 -124.5 18t-110.5 57t-79.5 99t-30.5 144q0 67 32 133t90.5 117.5t141.5 83.5t184 32q138 0 236 -37t161 -96.5t92.5 -134.5t29.5 -150q0 -50 -15.5 -101t-42 -98.5t-62.5 -89t-77.5 -72t-86.5 -48.5t-90 -18
q-27 0 -50.5 6.5t-45 14t-41.5 14t-41 6.5q-30 0 -50 -7t-33.5 -15t-21 -15t-13.5 -7t-6 6zM659 316q0 -39 -17.5 -71t-48 -56.5t-71 -40.5t-86.5 -23q-11 -41 -25 -73t-28 -46q14 5 37.5 11.5t49.5 6.5q35 0 57.5 -4t40 -8.5t33.5 -8.5t37 -4q46 0 90.5 18t80 60.5t57 112
t21.5 172.5q0 84 -18.5 148.5t-49.5 111.5t-71.5 78t-84.5 49.5t-88.5 26.5t-83.5 8q-71 0 -139.5 -19.5t-121.5 -63.5t-85.5 -114.5t-32.5 -172.5q0 -67 23 -117t59.5 -84.5t83 -53t94.5 -21.5q1 20 2.5 44t1.5 52q0 108 19 184t44.5 125t51 71.5t37.5 22.5q11 0 11 -7
q0 -4 -9 -11.5t-14 -12.5q-20 -22 -30.5 -57.5t-15.5 -77.5t-6 -87.5t-1 -87.5q0 -30 -6 -72t-17 -84q33 6 61.5 19.5t50 34.5t34 49.5t12.5 64.5q0 34 -14 55.5t-30.5 34t-30.5 17.5t-14 6q0 4 7 5.5t18 1.5q16 0 37.5 -5t41 -18t33 -34.5t13.5 -54.5zM508 881
q-4 21 -14 46.5t-23.5 50t-30 44.5t-33.5 29h38q12 -3 27 -17t30 -31.5t27.5 -35.5t18.5 -29q10 13 26.5 31t35 35t36 30.5t30.5 16.5h40q-19 -9 -39.5 -29t-40 -44t-36.5 -50t-30 -47h-62z" />
    <glyph glyph-name="dcaron" unicode="&#x10f;" horiz-adv-x="593" 
d="M443 143q0 -32 2 -63t7 -52q6 -27 11.5 -35.5t5.5 -10.5q0 -5 -7 -5q-11 0 -32 18.5t-38 56.5q-46 -39 -92 -54t-78 -15q-46 0 -82 13.5t-61 38t-38 58.5t-13 75q0 31 15.5 66.5t45.5 66t73 50.5t98 20q27 0 58 -7.5t58 -26.5q1 49 1.5 100.5t1 97.5t1 84t0.5 60
q0 34 -1.5 68t-5.5 56q-4 20 -9 27.5t-5 9.5q0 5 7 5q17 0 31.5 -16t25 -43.5t16.5 -63t6 -74.5v-69.5t-0.5 -88t-0.5 -97.5t-0.5 -96.5t-0.5 -86.5v-67zM373 156q0 26 0.5 67.5t2.5 92.5q-27 21 -55 27.5t-51 6.5q-50 0 -81.5 -19t-49.5 -46.5t-25 -58t-7 -54.5
q0 -85 36.5 -124.5t90.5 -39.5q28 0 65 12t86 53q-5 18 -8.5 38.5t-3.5 44.5zM553 560q16 2 32 9t29 18.5t21.5 25.5t8.5 31v9.5t-2 10.5q-8 -18 -25 -28.5t-35 -10.5q-22 0 -41 18.5t-19 48.5q0 11 4.5 23t12.5 22t20.5 16.5t28.5 6.5q40 0 58 -29.5t18 -68.5
q0 -28 -11.5 -48.5t-28 -34t-35 -20.5t-31.5 -7z" />
    <glyph glyph-name="Dcroat" unicode="&#x110;" horiz-adv-x="1020" 
d="M316 -38q0 5 6.5 10t15.5 20t18 44.5t15 83.5h-1q-63 0 -124.5 18t-110.5 57t-79.5 99t-30.5 144q0 67 32 133t90.5 117.5t141.5 83.5t184 32q138 0 236 -37t161 -96.5t92.5 -134.5t29.5 -150q0 -50 -15.5 -101t-42 -98.5t-62.5 -89t-77.5 -72t-86.5 -48.5t-90 -18
q-27 0 -50.5 6.5t-45 14t-41.5 14t-41 6.5q-30 0 -50 -7t-33.5 -15t-21 -15t-13.5 -7t-6 6zM462 281q-1 -30 -7 -66.5t-15 -74.5q33 6 61.5 19.5t50 34.5t34 49.5t12.5 64.5q0 34 -14 55.5t-30.5 34t-30.5 17.5t-14 6q0 4 7 5.5t18 1.5q16 0 37.5 -5t41 -18t33 -34.5
t13.5 -54.5q0 -39 -17.5 -71t-48 -56.5t-71 -40.5t-86.5 -23q-11 -41 -25 -73t-28 -46q14 5 37.5 11.5t49.5 6.5q35 0 57.5 -4t40 -8.5t33.5 -8.5t37 -4q46 0 90.5 18t80 60.5t57 112t21.5 172.5q0 84 -18.5 148.5t-49.5 111.5t-71.5 78t-84.5 49.5t-88.5 26.5t-83.5 8
q-71 0 -139.5 -19.5t-121.5 -63.5t-85.5 -114.5t-32.5 -172.5q0 -67 23 -117t59.5 -84.5t83 -53t94.5 -21.5q1 20 2.5 44t1.5 52v47h-60q-11 0 -15.5 4.5t-4.5 9.5t4.5 10t15.5 5h62q7 87 27 148.5t43.5 101.5t46 58.5t33.5 18.5t11 -7q0 -4 -9 -11.5t-14 -12.5
q-20 -21 -30.5 -54.5t-15.5 -73.5t-6 -84t-1 -84h66q9 0 14 -5t5 -10t-5 -9.5t-14 -4.5h-67z" />
    <glyph glyph-name="dcroat" unicode="&#x111;" horiz-adv-x="498" 
d="M445 628v-72t-0.5 -86.5t-0.5 -92.5t-0.5 -90.5t-0.5 -81v-62.5q0 -32 2 -63t7 -52q7 -27 12 -35.5t5 -10.5q0 -5 -7 -5q-11 0 -32 18.5t-38 56.5q-46 -39 -92 -54t-78 -15q-46 0 -82 13.5t-61 38t-38 58.5t-13 75q0 31 15.5 66.5t45.5 66t73 50.5t98 20q27 0 58 -7.5
t58 -26.5q1 78 2 156.5t2 134.5h-153q-10 0 -14.5 4.5t-4.5 9.5t4.5 9.5t14.5 4.5h153v23q0 34 -1 68t-6 56q-4 20 -9 27.5t-5 9.5q0 5 7 5q16 0 30 -15.5t24.5 -41.5t17 -60t7.5 -72h51q10 0 14.5 -4.5t4.5 -9.5t-4.5 -9.5t-14.5 -4.5h-51zM373 156q0 26 0.5 67.5t2.5 92.5
q-27 21 -55 27.5t-51 6.5q-50 0 -81.5 -19t-49.5 -46.5t-25 -58t-7 -54.5q0 -85 36.5 -124.5t90.5 -39.5q28 0 65 12t86 53q-5 18 -8.5 38.5t-3.5 44.5z" />
    <glyph glyph-name="Emacron" unicode="&#x112;" horiz-adv-x="672" 
d="M180 606q0 -54 32.5 -89t80.5 -53q17 4 33.5 6t33.5 2q9 0 25 -1t32 -4t27.5 -8.5t11.5 -14.5q0 -7 -7.5 -11t-18 -5.5t-22 -2t-20.5 -0.5q-22 0 -49.5 2.5t-56.5 8.5q-33 -17 -60.5 -44t-47 -60t-30.5 -69t-11 -70q0 -54 20.5 -94.5t52 -67.5t69.5 -40.5t73 -13.5
q39 0 75.5 10.5t65.5 31.5t46.5 52t17.5 72q0 25 -8.5 49t-24.5 42.5t-38.5 29.5t-50.5 11q-25 0 -43 -8.5t-30 -22t-17.5 -30.5t-5.5 -33q0 -24 12.5 -43t37.5 -19q18 0 18 -10q0 -4 -6 -8t-18 -4q-45 0 -67 24.5t-22 56.5q0 21 10 42.5t30 38.5t51.5 28t73.5 11
q39 0 73 -9.5t60 -27.5t41 -45.5t15 -63.5q0 -43 -25.5 -79.5t-67.5 -62.5t-96.5 -41t-112.5 -15q-75 0 -133 18t-98 51t-61 79t-21 102q0 41 17.5 78.5t46.5 69t67 56t79 40.5q-32 9 -61 23.5t-51 34.5t-35.5 46t-13.5 59q0 29 17 65t51.5 67.5t88 52.5t127.5 21
q37 0 72.5 -10t63 -28t44.5 -44t17 -58q0 -24 -11.5 -47.5t-32.5 -42.5t-50 -31t-63 -12q-9 0 -21 0.5t-22 3t-17 6t-7 9.5q0 9 9 9q5 0 15 -4.5t24 -4.5q26 0 43 12.5t27.5 31t15 40.5t4.5 41q0 26 -10.5 45.5t-27.5 33t-39 20t-44 6.5q-48 0 -81 -15.5t-53 -41.5t-29 -60
t-9 -70zM221 906q-10 0 -14.5 4.5t-4.5 9.5q0 6 4.5 10.5t14.5 4.5h246q9 0 14 -4.5t5 -10.5q0 -5 -5 -9.5t-14 -4.5h-246zM362 455q-17 0 -32 -3q20 -5 40.5 -7.5t39.5 -2.5q6 0 11 0.5t5 2.5q0 1 -6 3t-15.5 3.5t-21 2.5t-21.5 1z" />
    <glyph glyph-name="emacron" unicode="&#x113;" horiz-adv-x="389" 
d="M160 128q-20 0 -38.5 2.5t-36.5 8.5q4 -25 15 -49t29 -43t42 -30.5t53 -11.5q45 0 82 21t72 57q9 10 14 17t8 7t4.5 -4t1.5 -8t-2 -7.5t-4 -4.5q-33 -40 -77 -70t-108 -30q-38 0 -72.5 9t-60.5 28t-41.5 49t-15.5 71q0 40 15 80t43 72t67 52.5t86 20.5q19 0 42 -4.5
t42.5 -15t33 -28.5t13.5 -45q0 -31 -17.5 -57t-46.5 -45.5t-66.5 -30.5t-76.5 -11zM215 346q-32 0 -56 -17.5t-40.5 -44.5t-25 -60t-8.5 -64v-5q16 -7 32 -9.5t33 -2.5q29 0 56 8t47.5 23t33 36.5t12.5 48.5q0 37 -23 62t-61 25zM88 451q-11 0 -15.5 4.5t-4.5 10.5
q0 5 4.5 9.5t15.5 4.5h244q11 0 15.5 -4.5t4.5 -9.5q0 -6 -4.5 -10.5t-15.5 -4.5h-244z" />
    <glyph glyph-name="Ebreve" unicode="&#x114;" horiz-adv-x="672" 
d="M180 606q0 -54 32.5 -89t80.5 -53q17 4 33.5 6t33.5 2q9 0 25 -1t32 -4t27.5 -8.5t11.5 -14.5q0 -7 -7.5 -11t-18 -5.5t-22 -2t-20.5 -0.5q-22 0 -49.5 2.5t-56.5 8.5q-33 -17 -60.5 -44t-47 -60t-30.5 -69t-11 -70q0 -54 20.5 -94.5t52 -67.5t69.5 -40.5t73 -13.5
q39 0 75.5 10.5t65.5 31.5t46.5 52t17.5 72q0 25 -8.5 49t-24.5 42.5t-38.5 29.5t-50.5 11q-25 0 -43 -8.5t-30 -22t-17.5 -30.5t-5.5 -33q0 -24 12.5 -43t37.5 -19q18 0 18 -10q0 -4 -6 -8t-18 -4q-45 0 -67 24.5t-22 56.5q0 21 10 42.5t30 38.5t51.5 28t73.5 11
q39 0 73 -9.5t60 -27.5t41 -45.5t15 -63.5q0 -43 -25.5 -79.5t-67.5 -62.5t-96.5 -41t-112.5 -15q-75 0 -133 18t-98 51t-61 79t-21 102q0 41 17.5 78.5t46.5 69t67 56t79 40.5q-32 9 -61 23.5t-51 34.5t-35.5 46t-13.5 59q0 29 17 65t51.5 67.5t88 52.5t127.5 21
q37 0 72.5 -10t63 -28t44.5 -44t17 -58q0 -24 -11.5 -47.5t-32.5 -42.5t-50 -31t-63 -12q-9 0 -21 0.5t-22 3t-17 6t-7 9.5q0 9 9 9q5 0 15 -4.5t24 -4.5q26 0 43 12.5t27.5 31t15 40.5t4.5 41q0 26 -10.5 45.5t-27.5 33t-39 20t-44 6.5q-48 0 -81 -15.5t-53 -41.5t-29 -60
t-9 -70zM348 872q-32 0 -54 24.5t-22 62.5h27q0 -20 14 -35.5t34 -15.5t34.5 15t14.5 36h25q0 -37 -21.5 -62t-51.5 -25zM362 455q-17 0 -32 -3q20 -5 40.5 -7.5t39.5 -2.5q6 0 11 0.5t5 2.5q0 1 -6 3t-15.5 3.5t-21 2.5t-21.5 1z" />
    <glyph glyph-name="ebreve" unicode="&#x115;" horiz-adv-x="389" 
d="M160 128q-20 0 -38.5 2.5t-36.5 8.5q4 -25 15 -49t29 -43t42 -30.5t53 -11.5q45 0 82 21t72 57q9 10 14 17t8 7t4.5 -4t1.5 -8t-2 -7.5t-4 -4.5q-33 -40 -77 -70t-108 -30q-38 0 -72.5 9t-60.5 28t-41.5 49t-15.5 71q0 40 15 80t43 72t67 52.5t86 20.5q19 0 42 -4.5
t42.5 -15t33 -28.5t13.5 -45q0 -31 -17.5 -57t-46.5 -45.5t-66.5 -30.5t-76.5 -11zM215 346q-32 0 -56 -17.5t-40.5 -44.5t-25 -60t-8.5 -64v-5q16 -7 32 -9.5t33 -2.5q29 0 56 8t47.5 23t33 36.5t12.5 48.5q0 37 -23 62t-61 25zM210 428q-32 0 -53 24.5t-23 62.5h28
q0 -20 14 -35.5t34 -15.5t34 15t14 36h26q0 -37 -22 -62t-52 -25z" />
    <glyph glyph-name="Edotaccent" unicode="&#x116;" horiz-adv-x="672" 
d="M180 606q0 -54 32.5 -89t80.5 -53q17 4 33.5 6t33.5 2q9 0 25 -1t32 -4t27.5 -8.5t11.5 -14.5q0 -7 -7.5 -11t-18 -5.5t-22 -2t-20.5 -0.5q-22 0 -49.5 2.5t-56.5 8.5q-33 -17 -60.5 -44t-47 -60t-30.5 -69t-11 -70q0 -54 20.5 -94.5t52 -67.5t69.5 -40.5t73 -13.5
q39 0 75.5 10.5t65.5 31.5t46.5 52t17.5 72q0 25 -8.5 49t-24.5 42.5t-38.5 29.5t-50.5 11q-25 0 -43 -8.5t-30 -22t-17.5 -30.5t-5.5 -33q0 -24 12.5 -43t37.5 -19q18 0 18 -10q0 -4 -6 -8t-18 -4q-45 0 -67 24.5t-22 56.5q0 21 10 42.5t30 38.5t51.5 28t73.5 11
q39 0 73 -9.5t60 -27.5t41 -45.5t15 -63.5q0 -43 -25.5 -79.5t-67.5 -62.5t-96.5 -41t-112.5 -15q-75 0 -133 18t-98 51t-61 79t-21 102q0 41 17.5 78.5t46.5 69t67 56t79 40.5q-32 9 -61 23.5t-51 34.5t-35.5 46t-13.5 59q0 29 17 65t51.5 67.5t88 52.5t127.5 21
q37 0 72.5 -10t63 -28t44.5 -44t17 -58q0 -24 -11.5 -47.5t-32.5 -42.5t-50 -31t-63 -12q-9 0 -21 0.5t-22 3t-17 6t-7 9.5q0 9 9 9q5 0 15 -4.5t24 -4.5q26 0 43 12.5t27.5 31t15 40.5t4.5 41q0 26 -10.5 45.5t-27.5 33t-39 20t-44 6.5q-48 0 -81 -15.5t-53 -41.5t-29 -60
t-9 -70zM270 940q0 28 19 47.5t47 19.5t47 -19.5t19 -47.5q0 -27 -19 -46.5t-47 -19.5t-47 19.5t-19 46.5zM362 455q-17 0 -32 -3q20 -5 40.5 -7.5t39.5 -2.5q6 0 11 0.5t5 2.5q0 1 -6 3t-15.5 3.5t-21 2.5t-21.5 1z" />
    <glyph glyph-name="edotaccent" unicode="&#x117;" horiz-adv-x="389" 
d="M160 128q-20 0 -38.5 2.5t-36.5 8.5q4 -25 15 -49t29 -43t42 -30.5t53 -11.5q45 0 82 21t72 57q9 10 14 17t8 7t4.5 -4t1.5 -8t-2 -7.5t-4 -4.5q-33 -40 -77 -70t-108 -30q-38 0 -72.5 9t-60.5 28t-41.5 49t-15.5 71q0 40 15 80t43 72t67 52.5t86 20.5q19 0 42 -4.5
t42.5 -15t33 -28.5t13.5 -45q0 -31 -17.5 -57t-46.5 -45.5t-66.5 -30.5t-76.5 -11zM215 346q-32 0 -56 -17.5t-40.5 -44.5t-25 -60t-8.5 -64v-5q16 -7 32 -9.5t33 -2.5q29 0 56 8t47.5 23t33 36.5t12.5 48.5q0 37 -23 62t-61 25zM145 491q0 28 19.5 47.5t47.5 19.5
q27 0 46.5 -19.5t19.5 -47.5q0 -27 -19.5 -46.5t-46.5 -19.5q-28 0 -47.5 19.5t-19.5 46.5z" />
    <glyph glyph-name="Eogonek" unicode="&#x118;" horiz-adv-x="672" 
d="M180 606q0 -54 32.5 -89t80.5 -53q17 4 33.5 6t33.5 2q9 0 25 -1t32 -4t27.5 -8.5t11.5 -14.5q0 -7 -7.5 -11t-18 -5.5t-22 -2t-20.5 -0.5q-22 0 -49.5 2.5t-56.5 8.5q-33 -17 -60.5 -44t-47 -60t-30.5 -69t-11 -70q0 -54 20.5 -94.5t52 -67.5t69.5 -40.5t73 -13.5
q39 0 75.5 10.5t65.5 31.5t46.5 52t17.5 72q0 25 -8.5 49t-24.5 42.5t-38.5 29.5t-50.5 11q-25 0 -43 -8.5t-30 -22t-17.5 -30.5t-5.5 -33q0 -24 12.5 -43t37.5 -19q18 0 18 -10q0 -4 -6 -8t-18 -4q-45 0 -67 24.5t-22 56.5q0 21 10 42.5t30 38.5t51.5 28t73.5 11
q39 0 73 -9.5t60 -27.5t41 -45.5t15 -63.5q0 -35 -16.5 -65t-45 -54t-66.5 -41.5t-82 -26.5q-34 -36 -50 -66t-16 -50q0 -35 34 -35q49 0 82 52l7 -4q-18 -35 -52 -53t-66 -18q-25 0 -42.5 12.5t-17.5 39.5q0 23 18 53t61 62q-12 -2 -24.5 -3t-25.5 -1q-75 0 -133 18t-98 51
t-61 79t-21 102q0 41 17.5 78.5t46.5 69t67 56t79 40.5q-32 9 -61 23.5t-51 34.5t-35.5 46t-13.5 59q0 29 17 65t51.5 67.5t88 52.5t127.5 21q37 0 72.5 -10t63 -28t44.5 -44t17 -58q0 -24 -11.5 -47.5t-32.5 -42.5t-50 -31t-63 -12q-9 0 -21 0.5t-22 3t-17 6t-7 9.5
q0 9 9 9q5 0 15 -4.5t24 -4.5q26 0 43 12.5t27.5 31t15 40.5t4.5 41q0 26 -10.5 45.5t-27.5 33t-39 20t-44 6.5q-48 0 -81 -15.5t-53 -41.5t-29 -60t-9 -70zM362 455q-17 0 -32 -3q20 -5 40.5 -7.5t39.5 -2.5q6 0 11 0.5t5 2.5q0 1 -6 3t-15.5 3.5t-21 2.5t-21.5 1z" />
    <glyph glyph-name="eogonek" unicode="&#x119;" horiz-adv-x="389" 
d="M160 128q-20 0 -38.5 2.5t-36.5 8.5q4 -25 15 -49t29 -43t42 -30.5t53 -11.5q45 0 82 21t72 57q9 10 14 17t8 7t4.5 -4t1.5 -8t-2 -7.5t-4 -4.5q-15 -19 -32.5 -35t-36.5 -31q-46 -36 -65 -72t-19 -59q0 -35 35 -35q26 0 45.5 13t36.5 39l6 -5q-18 -35 -52 -52.5
t-65 -17.5q-25 0 -43 12.5t-18 38.5q0 23 16.5 51t56.5 59q-11 -2 -23.5 -4t-26.5 -2q-38 0 -72.5 9t-60.5 28t-41.5 49t-15.5 71q0 40 15 80t43 72t67 52.5t86 20.5q19 0 42 -4.5t42.5 -15t33 -28.5t13.5 -45q0 -31 -17.5 -57t-46.5 -45.5t-66.5 -30.5t-76.5 -11zM215 346
q-32 0 -56 -17.5t-40.5 -44.5t-25 -60t-8.5 -64v-5q16 -7 32 -9.5t33 -2.5q29 0 56 8t47.5 23t33 36.5t12.5 48.5q0 37 -23 62t-61 25z" />
    <glyph glyph-name="Ecaron" unicode="&#x11a;" horiz-adv-x="672" 
d="M180 606q0 -54 32.5 -89t80.5 -53q17 4 33.5 6t33.5 2q9 0 25 -1t32 -4t27.5 -8.5t11.5 -14.5q0 -7 -7.5 -11t-18 -5.5t-22 -2t-20.5 -0.5q-22 0 -49.5 2.5t-56.5 8.5q-33 -17 -60.5 -44t-47 -60t-30.5 -69t-11 -70q0 -54 20.5 -94.5t52 -67.5t69.5 -40.5t73 -13.5
q39 0 75.5 10.5t65.5 31.5t46.5 52t17.5 72q0 25 -8.5 49t-24.5 42.5t-38.5 29.5t-50.5 11q-25 0 -43 -8.5t-30 -22t-17.5 -30.5t-5.5 -33q0 -24 12.5 -43t37.5 -19q18 0 18 -10q0 -4 -6 -8t-18 -4q-45 0 -67 24.5t-22 56.5q0 21 10 42.5t30 38.5t51.5 28t73.5 11
q39 0 73 -9.5t60 -27.5t41 -45.5t15 -63.5q0 -43 -25.5 -79.5t-67.5 -62.5t-96.5 -41t-112.5 -15q-75 0 -133 18t-98 51t-61 79t-21 102q0 41 17.5 78.5t46.5 69t67 56t79 40.5q-32 9 -61 23.5t-51 34.5t-35.5 46t-13.5 59q0 29 17 65t51.5 67.5t88 52.5t127.5 21
q37 0 72.5 -10t63 -28t44.5 -44t17 -58q0 -24 -11.5 -47.5t-32.5 -42.5t-50 -31t-63 -12q-9 0 -21 0.5t-22 3t-17 6t-7 9.5q0 9 9 9q5 0 15 -4.5t24 -4.5q26 0 43 12.5t27.5 31t15 40.5t4.5 41q0 26 -10.5 45.5t-27.5 33t-39 20t-44 6.5q-48 0 -81 -15.5t-53 -41.5t-29 -60
t-9 -70zM302 871q-3 21 -13 46.5t-23.5 50.5t-30 45t-33.5 29h37q12 -4 27 -18t30 -31t28 -35t19 -29q10 12 26.5 30t34.5 35t36 30.5t30 17.5h41q-19 -10 -40 -29.5t-40.5 -44t-36.5 -50t-29 -47.5h-63zM362 455q-17 0 -32 -3q20 -5 40.5 -7.5t39.5 -2.5q6 0 11 0.5t5 2.5
q0 1 -6 3t-15.5 3.5t-21 2.5t-21.5 1z" />
    <glyph glyph-name="ecaron" unicode="&#x11b;" horiz-adv-x="389" 
d="M160 128q-20 0 -38.5 2.5t-36.5 8.5q4 -25 15 -49t29 -43t42 -30.5t53 -11.5q45 0 82 21t72 57q9 10 14 17t8 7t4.5 -4t1.5 -8t-2 -7.5t-4 -4.5q-33 -40 -77 -70t-108 -30q-38 0 -72.5 9t-60.5 28t-41.5 49t-15.5 71q0 40 15 80t43 72t67 52.5t86 20.5q19 0 42 -4.5
t42.5 -15t33 -28.5t13.5 -45q0 -31 -17.5 -57t-46.5 -45.5t-66.5 -30.5t-76.5 -11zM215 346q-32 0 -56 -17.5t-40.5 -44.5t-25 -60t-8.5 -64v-5q16 -7 32 -9.5t33 -2.5q29 0 56 8t47.5 23t33 36.5t12.5 48.5q0 37 -23 62t-61 25zM172 426q-4 21 -14 46.5t-23.5 50t-30 44.5
t-33.5 29h37q12 -3 27.5 -17t30.5 -31.5t27.5 -35.5t18.5 -28q10 12 26.5 30t35 35t36 30.5t30.5 16.5h40q-20 -9 -40.5 -29t-40 -44t-36.5 -49.5t-29 -47.5h-62z" />
    <glyph glyph-name="Gcircumflex" unicode="&#x11c;" horiz-adv-x="919" 
d="M912 265q-22 -29 -33 -64.5t-16 -75.5t-7 -82.5t-6 -84.5q24 -2 48.5 -9.5t45 -21t33.5 -34t13 -50.5q0 -31 -13 -51t-29 -31.5t-29.5 -16t-14.5 -4.5q-3 0 -6.5 0.5t-3.5 5.5t9.5 9t20.5 13.5t20.5 28t9.5 51.5q0 10 -3.5 24.5t-14.5 29.5t-32 26.5t-56 15.5
q-2 -13 -3.5 -25.5t-3.5 -25.5q-6 -32 -26 -69t-49 -69t-65 -53t-73 -21q-51 0 -74.5 22t-23.5 56q0 27 16 58.5t46.5 59t75 48.5t101.5 29q3 41 8 86.5t14 73.5q-27 -39 -63 -71t-79 -55t-91.5 -36t-100.5 -13q-102 0 -180.5 28t-132 79t-81 122.5t-27.5 159.5
q0 98 42.5 180t113 141t161.5 91.5t189 32.5q31 0 70.5 -5.5t80.5 -18t80 -31.5t70 -46.5t49.5 -63.5t18.5 -81q0 -37 -17.5 -77t-51 -73t-84 -54t-116.5 -21q-47 0 -80 9.5t-53.5 25t-30 36t-9.5 42.5q0 25 11 50t29.5 44.5t43.5 32t53 12.5q9 0 15.5 -2.5t6.5 -9.5
q0 -4 -14.5 -8t-31.5 -14.5t-31.5 -31t-14.5 -57.5q0 -32 11.5 -52.5t29 -33t38 -17.5t37.5 -5q39 0 69.5 15t51.5 40.5t32 58t11 68.5q0 51 -20 95.5t-58.5 77t-94.5 51.5t-128 19q-69 0 -123 -19.5t-94.5 -52.5t-69 -75.5t-46.5 -87.5t-26 -90t-8 -82q0 -73 16 -129.5
t42.5 -98.5t59.5 -70.5t67 -46.5t66 -25.5t56 -7.5q49 0 98 9.5t94.5 34t87 66.5t76.5 108q8 15 20 32.5t25 32.5t26.5 24.5t24.5 9.5q7 0 7 -8q0 -1 -2 -7zM767 -92q0 7 0.5 15.5t1.5 18.5q-52 -8 -92.5 -28t-68.5 -46.5t-42.5 -55.5t-14.5 -53q0 -26 17 -43t52 -17
q42 0 69.5 20.5t44 51.5t24 67.5t9.5 69.5zM565 1006q4 -21 13.5 -45.5t21.5 -47.5t25.5 -41.5t24.5 -27.5h-37q-6 3 -18 15.5t-25.5 28.5t-26.5 32.5t-19 27.5q-10 -13 -26 -29.5t-32.5 -32t-31 -27.5t-20.5 -15h-41q13 9 30.5 27.5t35.5 41t35 47t29 46.5h62z" />
    <glyph glyph-name="gcircumflex" unicode="&#x11d;" horiz-adv-x="464" 
d="M520 -138q2 11 5.5 22.5t3.5 23.5q0 10 -4 20t-15 18t-29.5 12.5t-47.5 4.5h-14q-4 -53 -13 -101.5t-26 -85.5t-43.5 -59t-64.5 -22q-35 0 -52 22t-17 54q0 25 10 54t30 56t48.5 49.5t66.5 34.5v7q0 17 -1 33t-1 33q-38 -35 -77.5 -52t-66.5 -17q-92 0 -142.5 51
t-50.5 134q0 31 16 66.5t46 65.5t73 50t97 20q32 0 69.5 -11t67.5 -40q10 32 23 53t29 21q8 0 8 -5q0 -6 -6 -15.5t-11 -30.5q-7 -21 -8.5 -44t-1.5 -55q0 -29 0.5 -69t0.5 -96q0 -22 -0.5 -43.5t-1.5 -42.5q5 2 10 2h10q31 0 51.5 -6.5t32.5 -16.5t17 -23t5 -25
q0 -21 -8 -36.5t-14 -15.5q-4 0 -4 5zM226 -11q24 0 59.5 18t69.5 57q-1 8 -0.5 15t0.5 15q0 9 1.5 29.5t5 47t9 56.5t12.5 57q-31 33 -63.5 42.5t-59.5 9.5q-50 0 -81.5 -19t-49.5 -46.5t-25 -58.5t-7 -55q0 -88 36.5 -128t92.5 -40zM359 -82q0 9 -0.5 17t-0.5 16
q-33 -12 -58 -32t-42 -44t-25.5 -49.5t-8.5 -47.5q0 -27 13.5 -44.5t40.5 -17.5t43 20.5t24.5 51t11 66t2.5 64.5zM308 589q4 -21 13.5 -45.5t21.5 -47.5t25 -41.5t24 -27.5h-37q-6 4 -18 16.5t-25.5 28.5t-25.5 32.5t-18 27.5q-10 -13 -26.5 -29.5t-33 -32t-31 -27.5
t-21.5 -16h-41q13 9 30.5 27.5t35.5 41.5t35 47.5t30 45.5h62z" />
    <glyph glyph-name="Gbreve" unicode="&#x11e;" horiz-adv-x="919" 
d="M912 265q-22 -29 -33 -64.5t-16 -75.5t-7 -82.5t-6 -84.5q24 -2 48.5 -9.5t45 -21t33.5 -34t13 -50.5q0 -31 -13 -51t-29 -31.5t-29.5 -16t-14.5 -4.5q-3 0 -6.5 0.5t-3.5 5.5t9.5 9t20.5 13.5t20.5 28t9.5 51.5q0 10 -3.5 24.5t-14.5 29.5t-32 26.5t-56 15.5
q-2 -13 -3.5 -25.5t-3.5 -25.5q-6 -32 -26 -69t-49 -69t-65 -53t-73 -21q-51 0 -74.5 22t-23.5 56q0 27 16 58.5t46.5 59t75 48.5t101.5 29q3 41 8 86.5t14 73.5q-27 -39 -63 -71t-79 -55t-91.5 -36t-100.5 -13q-102 0 -180.5 28t-132 79t-81 122.5t-27.5 159.5
q0 98 42.5 180t113 141t161.5 91.5t189 32.5q31 0 70.5 -5.5t80.5 -18t80 -31.5t70 -46.5t49.5 -63.5t18.5 -81q0 -37 -17.5 -77t-51 -73t-84 -54t-116.5 -21q-47 0 -80 9.5t-53.5 25t-30 36t-9.5 42.5q0 25 11 50t29.5 44.5t43.5 32t53 12.5q9 0 15.5 -2.5t6.5 -9.5
q0 -4 -14.5 -8t-31.5 -14.5t-31.5 -31t-14.5 -57.5q0 -32 11.5 -52.5t29 -33t38 -17.5t37.5 -5q39 0 69.5 15t51.5 40.5t32 58t11 68.5q0 51 -20 95.5t-58.5 77t-94.5 51.5t-128 19q-69 0 -123 -19.5t-94.5 -52.5t-69 -75.5t-46.5 -87.5t-26 -90t-8 -82q0 -73 16 -129.5
t42.5 -98.5t59.5 -70.5t67 -46.5t66 -25.5t56 -7.5q49 0 98 9.5t94.5 34t87 66.5t76.5 108q8 15 20 32.5t25 32.5t26.5 24.5t24.5 9.5q7 0 7 -8q0 -1 -2 -7zM767 -92q0 7 0.5 15.5t1.5 18.5q-52 -8 -92.5 -28t-68.5 -46.5t-42.5 -55.5t-14.5 -53q0 -26 17 -43t52 -17
q42 0 69.5 20.5t44 51.5t24 67.5t9.5 69.5zM515 829q-32 0 -53.5 24.5t-22.5 62.5h28q0 -20 14 -35.5t34 -15.5t34 15t14 36h26q0 -19 -6 -35t-16.5 -27.5t-23.5 -18t-28 -6.5z" />
    <glyph glyph-name="gbreve" unicode="&#x11f;" horiz-adv-x="464" 
d="M520 -138q2 11 5.5 22.5t3.5 23.5q0 10 -4 20t-15 18t-29.5 12.5t-47.5 4.5h-14q-4 -53 -13 -101.5t-26 -85.5t-43.5 -59t-64.5 -22q-35 0 -52 22t-17 54q0 25 10 54t30 56t48.5 49.5t66.5 34.5v7q0 17 -1 33t-1 33q-38 -35 -77.5 -52t-66.5 -17q-92 0 -142.5 51
t-50.5 134q0 31 16 66.5t46 65.5t73 50t97 20q32 0 69.5 -11t67.5 -40q10 32 23 53t29 21q8 0 8 -5q0 -6 -6 -15.5t-11 -30.5q-7 -21 -8.5 -44t-1.5 -55q0 -29 0.5 -69t0.5 -96q0 -22 -0.5 -43.5t-1.5 -42.5q5 2 10 2h10q31 0 51.5 -6.5t32.5 -16.5t17 -23t5 -25
q0 -21 -8 -36.5t-14 -15.5q-4 0 -4 5zM226 -11q24 0 59.5 18t69.5 57q-1 8 -0.5 15t0.5 15q0 9 1.5 29.5t5 47t9 56.5t12.5 57q-31 33 -63.5 42.5t-59.5 9.5q-50 0 -81.5 -19t-49.5 -46.5t-25 -58.5t-7 -55q0 -88 36.5 -128t92.5 -40zM359 -82q0 9 -0.5 17t-0.5 16
q-33 -12 -58 -32t-42 -44t-25.5 -49.5t-8.5 -47.5q0 -27 13.5 -44.5t40.5 -17.5t43 20.5t24.5 51t11 66t2.5 64.5zM248 426q-32 0 -53 24t-22 62h27q0 -20 14 -35t34 -15t34 15t14 35h27q0 -37 -22.5 -61.5t-52.5 -24.5z" />
    <glyph glyph-name="Gdotaccent" unicode="&#x120;" horiz-adv-x="919" 
d="M912 265q-22 -29 -33 -64.5t-16 -75.5t-7 -82.5t-6 -84.5q24 -2 48.5 -9.5t45 -21t33.5 -34t13 -50.5q0 -31 -13 -51t-29 -31.5t-29.5 -16t-14.5 -4.5q-3 0 -6.5 0.5t-3.5 5.5t9.5 9t20.5 13.5t20.5 28t9.5 51.5q0 10 -3.5 24.5t-14.5 29.5t-32 26.5t-56 15.5
q-2 -13 -3.5 -25.5t-3.5 -25.5q-6 -32 -26 -69t-49 -69t-65 -53t-73 -21q-51 0 -74.5 22t-23.5 56q0 27 16 58.5t46.5 59t75 48.5t101.5 29q3 41 8 86.5t14 73.5q-27 -39 -63 -71t-79 -55t-91.5 -36t-100.5 -13q-102 0 -180.5 28t-132 79t-81 122.5t-27.5 159.5
q0 98 42.5 180t113 141t161.5 91.5t189 32.5q31 0 70.5 -5.5t80.5 -18t80 -31.5t70 -46.5t49.5 -63.5t18.5 -81q0 -37 -17.5 -77t-51 -73t-84 -54t-116.5 -21q-47 0 -80 9.5t-53.5 25t-30 36t-9.5 42.5q0 25 11 50t29.5 44.5t43.5 32t53 12.5q9 0 15.5 -2.5t6.5 -9.5
q0 -4 -14.5 -8t-31.5 -14.5t-31.5 -31t-14.5 -57.5q0 -32 11.5 -52.5t29 -33t38 -17.5t37.5 -5q39 0 69.5 15t51.5 40.5t32 58t11 68.5q0 51 -20 95.5t-58.5 77t-94.5 51.5t-128 19q-69 0 -123 -19.5t-94.5 -52.5t-69 -75.5t-46.5 -87.5t-26 -90t-8 -82q0 -73 16 -129.5
t42.5 -98.5t59.5 -70.5t67 -46.5t66 -25.5t56 -7.5q49 0 98 9.5t94.5 34t87 66.5t76.5 108q8 15 20 32.5t25 32.5t26.5 24.5t24.5 9.5q7 0 7 -8q0 -1 -2 -7zM767 -92q0 7 0.5 15.5t1.5 18.5q-52 -8 -92.5 -28t-68.5 -46.5t-42.5 -55.5t-14.5 -53q0 -26 17 -43t52 -17
q42 0 69.5 20.5t44 51.5t24 67.5t9.5 69.5zM455 901q0 28 19 47.5t47 19.5t47 -19.5t19 -47.5q0 -27 -19 -46.5t-47 -19.5t-47 19.5t-19 46.5z" />
    <glyph glyph-name="gdotaccent" unicode="&#x121;" horiz-adv-x="464" 
d="M520 -138q2 11 5.5 22.5t3.5 23.5q0 10 -4 20t-15 18t-29.5 12.5t-47.5 4.5h-14q-4 -53 -13 -101.5t-26 -85.5t-43.5 -59t-64.5 -22q-35 0 -52 22t-17 54q0 25 10 54t30 56t48.5 49.5t66.5 34.5v7q0 17 -1 33t-1 33q-38 -35 -77.5 -52t-66.5 -17q-92 0 -142.5 51
t-50.5 134q0 31 16 66.5t46 65.5t73 50t97 20q32 0 69.5 -11t67.5 -40q10 32 23 53t29 21q8 0 8 -5q0 -6 -6 -15.5t-11 -30.5q-7 -21 -8.5 -44t-1.5 -55q0 -29 0.5 -69t0.5 -96q0 -22 -0.5 -43.5t-1.5 -42.5q5 2 10 2h10q31 0 51.5 -6.5t32.5 -16.5t17 -23t5 -25
q0 -21 -8 -36.5t-14 -15.5q-4 0 -4 5zM226 -11q24 0 59.5 18t69.5 57q-1 8 -0.5 15t0.5 15q0 9 1.5 29.5t5 47t9 56.5t12.5 57q-31 33 -63.5 42.5t-59.5 9.5q-50 0 -81.5 -19t-49.5 -46.5t-25 -58.5t-7 -55q0 -88 36.5 -128t92.5 -40zM359 -82q0 9 -0.5 17t-0.5 16
q-33 -12 -58 -32t-42 -44t-25.5 -49.5t-8.5 -47.5q0 -27 13.5 -44.5t40.5 -17.5t43 20.5t24.5 51t11 66t2.5 64.5zM188 491q0 27 19 46.5t47 19.5q29 0 47.5 -19.5t18.5 -46.5q0 -28 -18.5 -47.5t-47.5 -19.5q-28 0 -47 19.5t-19 47.5z" />
    <glyph glyph-name="Gcommaaccent" unicode="&#x122;" horiz-adv-x="919" 
d="M912 265q-22 -29 -33 -64.5t-16 -75.5t-7 -82.5t-6 -84.5q24 -2 48.5 -9.5t45 -21t33.5 -34t13 -50.5q0 -31 -13 -51t-29 -31.5t-29.5 -16t-14.5 -4.5q-3 0 -6.5 0.5t-3.5 5.5t9.5 9t20.5 13.5t20.5 28t9.5 51.5q0 10 -3.5 24.5t-14.5 29.5t-32 26.5t-56 15.5
q-2 -13 -3.5 -25.5t-3.5 -25.5q-6 -32 -26 -69t-49 -69t-65 -53t-73 -21q-51 0 -74.5 22t-23.5 56q0 27 16 58.5t46.5 59t75 48.5t101.5 29q3 41 8 86.5t14 73.5q-27 -39 -63 -71t-79 -55t-91.5 -36t-100.5 -13q-102 0 -180.5 28t-132 79t-81 122.5t-27.5 159.5
q0 98 42.5 180t113 141t161.5 91.5t189 32.5q31 0 70.5 -5.5t80.5 -18t80 -31.5t70 -46.5t49.5 -63.5t18.5 -81q0 -37 -17.5 -77t-51 -73t-84 -54t-116.5 -21q-47 0 -80 9.5t-53.5 25t-30 36t-9.5 42.5q0 25 11 50t29.5 44.5t43.5 32t53 12.5q9 0 15.5 -2.5t6.5 -9.5
q0 -4 -14.5 -8t-31.5 -14.5t-31.5 -31t-14.5 -57.5q0 -32 11.5 -52.5t29 -33t38 -17.5t37.5 -5q39 0 69.5 15t51.5 40.5t32 58t11 68.5q0 51 -20 95.5t-58.5 77t-94.5 51.5t-128 19q-69 0 -123 -19.5t-94.5 -52.5t-69 -75.5t-46.5 -87.5t-26 -90t-8 -82q0 -73 16 -129.5
t42.5 -98.5t59.5 -70.5t67 -46.5t66 -25.5t56 -7.5q49 0 98 9.5t94.5 34t87 66.5t76.5 108q8 15 20 32.5t25 32.5t26.5 24.5t24.5 9.5q7 0 7 -8q0 -1 -2 -7zM767 -92q0 7 0.5 15.5t1.5 18.5q-52 -8 -92.5 -28t-68.5 -46.5t-42.5 -55.5t-14.5 -53q0 -26 17 -43t52 -17
q42 0 69.5 20.5t44 51.5t24 67.5t9.5 69.5zM356 -272q13 1 26.5 6.5t24.5 14.5t18 21t7 26q0 5 -0.5 8.5t-1.5 7.5q-7 -15 -21 -23.5t-29 -8.5q-19 0 -34.5 15.5t-15.5 40.5q0 19 14 37.5t41 18.5q34 0 48.5 -24t14.5 -56q0 -24 -9.5 -41t-23.5 -28t-29 -16.5t-27 -6.5z" />
    <glyph glyph-name="gcommaaccent" unicode="&#x123;" horiz-adv-x="464" 
d="M520 -138q2 11 5.5 22.5t3.5 23.5q0 10 -4 20t-15 18t-29.5 12.5t-47.5 4.5h-14q-4 -53 -13 -101.5t-26 -85.5t-43.5 -59t-64.5 -22q-35 0 -52 22t-17 54q0 25 10 54t30 56t48.5 49.5t66.5 34.5v7q0 17 -1 33t-1 33q-38 -35 -77.5 -52t-66.5 -17q-92 0 -142.5 51
t-50.5 134q0 31 16 66.5t46 65.5t73 50t97 20q32 0 69.5 -11t67.5 -40q10 32 23 53t29 21q8 0 8 -5q0 -6 -6 -15.5t-11 -30.5q-7 -21 -8.5 -44t-1.5 -55q0 -29 0.5 -69t0.5 -96q0 -22 -0.5 -43.5t-1.5 -42.5q5 2 10 2h10q31 0 51.5 -6.5t32.5 -16.5t17 -23t5 -25
q0 -21 -8 -36.5t-14 -15.5q-4 0 -4 5zM226 -11q24 0 59.5 18t69.5 57q-1 8 -0.5 15t0.5 15q0 9 1.5 29.5t5 47t9 56.5t12.5 57q-31 33 -63.5 42.5t-59.5 9.5q-50 0 -81.5 -19t-49.5 -46.5t-25 -58.5t-7 -55q0 -88 36.5 -128t92.5 -40zM359 -82q0 9 -0.5 17t-0.5 16
q-33 -12 -58 -32t-42 -44t-25.5 -49.5t-8.5 -47.5q0 -27 13.5 -44.5t40.5 -17.5t43 20.5t24.5 51t11 66t2.5 64.5zM271 637q-16 -1 -32 -8t-29 -18t-21.5 -25.5t-8.5 -31.5q0 -11 4 -19q7 18 23.5 27.5t34.5 9.5q23 0 42.5 -18t19.5 -48q0 -11 -4.5 -23t-13 -22t-21.5 -16
t-29 -6q-20 0 -34 8t-23 21.5t-13.5 31t-4.5 36.5q0 28 11.5 48.5t28.5 34t35 20.5t32 8z" />
    <glyph glyph-name="Hcircumflex" unicode="&#x124;" horiz-adv-x="1081" 
d="M617 354q-2 -32 -3 -65.5t-1 -68.5q-1 -31 -7 -70t-18.5 -79.5t-30.5 -79t-42 -68.5t-54 -48.5t-66 -18.5q-39 0 -71.5 19.5t-56 52.5t-37 75t-13.5 87q0 47 16 93.5t52 85t93.5 65t139.5 34.5q0 54 3.5 108.5t13.5 107t28 102.5t47 95q-8 -3 -22 -8.5t-30.5 -11
t-35 -9.5t-34.5 -4q-25 0 -51 4t-54 9t-57.5 9t-60.5 4q-39 0 -72 -18.5t-57 -48t-37.5 -66t-13.5 -72.5q0 -29 10 -59.5t31 -55t52.5 -40.5t74.5 -16q63 0 104 34.5t44 103.5l1.5 13.5t9.5 4.5q7 0 7 -12q0 -47 -17.5 -83t-46 -60.5t-63.5 -37t-71 -12.5q-45 0 -81.5 15.5
t-62 42t-39 62.5t-13.5 77q0 15 6.5 40t20 53.5t36 57.5t54.5 52.5t74.5 38.5t97.5 15q30 0 57.5 -3.5t52.5 -7t49.5 -7t48.5 -3.5q35 0 65 13.5t53 30t38.5 30.5t21.5 14q4 0 4 -7q0 -14 -14.5 -25t-29.5 -26q-3 -3 -8 -17t-10 -32.5t-9 -40t-5 -40.5q-5 -79 -7 -156
t-4 -155q32 -1 63.5 -3t62.5 -4q1 54 12 112.5t32 114t53 105.5t74.5 88t96 60t118.5 22q34 0 64.5 -13.5t53.5 -36.5t36.5 -54t13.5 -67q0 -58 -31.5 -120.5t-87.5 -114.5t-135 -86t-173 -34h-55q0 -28 3 -65.5t11 -78t21.5 -80t35.5 -70.5t53 -50.5t74 -19.5
q30 0 50.5 7.5t34 17t20.5 17t9 7.5q9 0 9 -7q0 -5 -8.5 -15t-25.5 -20.5t-42.5 -18.5t-59.5 -8q-43 0 -78.5 18t-64 48.5t-49.5 70.5t-35.5 83t-22 86.5t-7.5 81.5q-34 3 -65.5 5.5t-60.5 4.5zM1115 846q-52 0 -94.5 -24t-75.5 -63.5t-57 -90.5t-40 -105t-24 -107.5
t-9 -97.5q17 -2 34 -2h35q69 0 135 24.5t118.5 68.5t84.5 106t32 137q0 76 -36 115t-103 39zM518 352q-80 -8 -134 -32.5t-87.5 -59.5t-48 -77t-14.5 -85t12.5 -83t33 -71t47 -49.5t55.5 -18.5q46 0 73.5 30t42 77.5t18.5 105t4 111.5q0 8 -0.5 17t-0.5 25t-0.5 42t-0.5 68z
M833 1087q3 -21 12.5 -45.5t22 -47.5t26 -41.5t24.5 -27.5h-38q-6 4 -18 16.5t-25.5 28.5t-26 32.5t-18.5 27.5q-10 -13 -26 -29.5t-33 -32t-31.5 -27.5t-21.5 -16h-40q13 9 30.5 27.5t35.5 41t35 47.5t29 46h63z" />
    <glyph glyph-name="hcircumflex" unicode="&#x125;" horiz-adv-x="508" 
d="M266 570q-30 -69 -67 -113.5t-73 -71.5q2 -43 3.5 -84t1.5 -66q0 -19 -0.5 -41.5t-3.5 -48.5q11 34 23.5 74.5t33.5 76t53.5 59.5t84.5 24q30 0 48.5 -12t28.5 -30t13.5 -39t3.5 -39q0 -23 -4 -48t-9 -50.5t-9 -51.5t-4 -50q0 -6 1.5 -15.5t6 -19t12.5 -16.5t21 -7
q23 0 40 15.5t28 34t17 34t7 15.5q6 0 6 -8q0 -16 -9.5 -36t-24.5 -38t-34.5 -30t-39.5 -12q-24 0 -42 8t-29 22t-16.5 32t-5.5 38q0 28 3 51t7 44t7 42.5t3 46.5q0 45 -13.5 69t-39.5 24q-29 0 -51.5 -17.5t-40 -44.5t-30.5 -60t-22.5 -64t-15.5 -57t-9 -38
q-9 -34 -18.5 -52.5t-19 -27.5t-19.5 -10.5t-20 -1.5q-5 0 -6 4t-1 8q0 2 2.5 12l4.5 18q7 28 9 63.5t2 77.5q0 44 -1 90t-1 94q0 51 4.5 109.5t14.5 116.5t26 111t38.5 94t52.5 65.5t68 24.5q15 0 25.5 -9t17 -23.5t10 -32t3.5 -34.5q0 -58 -16 -107.5t-36 -91.5zM121 520
q0 -18 1.5 -49t2.5 -67q26 22 54 56.5t56 86.5q14 26 26 57t20.5 61.5t13.5 57.5t5 46q0 13 -2 27.5t-7.5 26.5t-14 20t-20.5 8q-24 0 -48 -23.5t-43.5 -66.5t-31.5 -104.5t-12 -136.5zM281 1075q3 -21 12.5 -45.5t22 -47.5t26 -41.5t24.5 -27.5h-38q-6 4 -18 16.5
t-25.5 28.5t-26 32.5t-18.5 27.5q-10 -13 -26 -29.5t-33 -32t-31.5 -27.5t-21.5 -16h-40q13 9 30.5 27.5t35.5 41t35 47.5t29 46h63z" />
    <glyph glyph-name="Hbar" unicode="&#x126;" horiz-adv-x="1081" 
d="M617 354q-2 -32 -3 -65.5t-1 -68.5q-1 -31 -7 -70t-18.5 -79.5t-30.5 -79t-42 -68.5t-54 -48.5t-66 -18.5q-39 0 -71.5 19.5t-56 52.5t-37 75t-13.5 87q0 47 16 93.5t52 85t93.5 65t139.5 34.5q0 59 4 117t17 116h-149q-10 0 -14.5 4.5t-4.5 10.5q0 5 4.5 9.5t14.5 4.5
h155q20 80 65 151q-8 -3 -22 -8.5t-30.5 -11t-35 -9.5t-34.5 -4q-25 0 -51 4t-54 9t-57.5 9t-60.5 4q-39 0 -72 -18.5t-57 -48t-37.5 -66t-13.5 -72.5q0 -29 10 -59.5t31 -55t52.5 -40.5t74.5 -16q63 0 104 34.5t44 103.5l1.5 13.5t9.5 4.5q7 0 7 -12q0 -47 -17.5 -83
t-46 -60.5t-63.5 -37t-71 -12.5q-45 0 -81.5 15.5t-62 42t-39 62.5t-13.5 77q0 15 6.5 40t20 53.5t36 57.5t54.5 52.5t74.5 38.5t97.5 15q30 0 57.5 -3.5t52.5 -7t49.5 -7t48.5 -3.5q35 0 65 13.5t53 30t38.5 30.5t21.5 14q4 0 4 -7q0 -14 -14.5 -25t-29.5 -26q-3 -3 -8 -17
t-10 -32.5t-9 -40t-5 -40.5q-3 -27 -3 -52h178q22 49 54 92t72.5 75t90.5 50.5t109 18.5q34 0 64.5 -13.5t53.5 -36.5t36.5 -54t13.5 -67q0 -58 -31.5 -120.5t-87.5 -114.5t-135 -86t-173 -34h-55q0 -28 3 -65.5t11 -78t21.5 -80t35.5 -70.5t53 -50.5t74 -19.5
q30 0 50.5 7.5t34 17t20.5 17t9 7.5q9 0 9 -7q0 -5 -8.5 -15t-25.5 -20.5t-42.5 -18.5t-59.5 -8q-43 0 -78.5 18t-64 48.5t-49.5 70.5t-35.5 83t-22 86.5t-7.5 81.5q-34 3 -65.5 5.5t-60.5 4.5zM1115 846q-44 0 -81 -17t-67.5 -46.5t-54.5 -69t-42 -83.5h94q9 0 14 -4.5
t5 -9.5q0 -6 -5 -10.5t-14 -4.5h-105q-22 -63 -32.5 -127t-11.5 -116q17 -2 34 -2h35q69 0 135 24.5t118.5 68.5t84.5 106t32 137q0 76 -36 115t-103 39zM518 352q-80 -8 -134 -32.5t-87.5 -59.5t-48 -77t-14.5 -85t12.5 -83t33 -71t47 -49.5t55.5 -18.5q46 0 73.5 30
t42 77.5t18.5 105t4 111.5q0 8 -0.5 17t-0.5 25t-0.5 42t-0.5 68zM743 364q1 57 13 117.5t35 119.5h-167q-3 -58 -4 -115t-3 -115q32 -1 63.5 -3t62.5 -4z" />
    <glyph glyph-name="hbar" unicode="&#x127;" horiz-adv-x="508" 
d="M293 635q-7 -17 -13.5 -33.5t-13.5 -31.5q-30 -69 -67 -113.5t-73 -70.5q2 -44 3.5 -85t1.5 -66q0 -19 -0.5 -41.5t-3.5 -48.5q11 34 23.5 74.5t33.5 76t53.5 59.5t84.5 24q30 0 48.5 -12t28.5 -30t13.5 -39t3.5 -39q0 -23 -4 -48t-9 -50.5t-9 -51.5t-4 -50
q0 -6 1.5 -15.5t6 -19t12.5 -16.5t21 -7q23 0 40 15.5t28 34t17 34t7 15.5q6 0 6 -8q0 -16 -9.5 -36t-24.5 -38t-34.5 -30t-39.5 -12q-24 0 -42 8t-29 22t-16.5 32t-5.5 38q0 28 3 51t7 44t7 42.5t3 46.5q0 45 -13.5 69t-39.5 24q-29 0 -51.5 -17.5t-40 -44.5t-30.5 -60
t-22.5 -64t-15.5 -57t-9 -38q-9 -34 -18.5 -52.5t-19 -27.5t-19.5 -10.5t-20 -1.5q-5 0 -6 4t-1 8q0 2 2.5 12l4.5 18q7 28 9 63.5t2 77.5q0 44 -1 90t-1 94q0 65 7.5 141t24.5 147h-70q-10 0 -14.5 4.5t-4.5 9.5t4.5 10t14.5 5h77q12 43 27.5 80.5t36 65t46 43t55.5 15.5
q15 0 25.5 -9t17 -23.5t10 -32t3.5 -34.5q0 -28 -4.5 -54t-12.5 -51h93q10 0 14.5 -5t4.5 -10t-4.5 -9.5t-14.5 -4.5h-101zM256 851q-35 0 -68.5 -49.5t-51.5 -137.5h145q9 30 14 57.5t5 47.5q0 13 -2 27.5t-7.5 26.5t-14 20t-20.5 8zM121 520q0 -18 1.5 -49t2.5 -67
q26 22 54 56.5t56 86.5q10 20 19.5 42.5t17.5 45.5h-142q-9 -53 -9 -115z" />
    <glyph glyph-name="Itilde" unicode="&#x128;" horiz-adv-x="594" 
d="M448 731q-24 0 -44.5 7.5t-41.5 16.5t-44 16.5t-53 7.5q-52 0 -89.5 -16t-61.5 -43t-35 -63.5t-11 -76.5q0 -29 10 -61.5t31 -60.5t52.5 -46t74.5 -18q31 0 57 9.5t45 26t29.5 38.5t12.5 47q0 9 1 14t9 5t8 -12q0 -35 -15 -65t-40.5 -52t-58 -34.5t-68.5 -12.5
q-45 0 -82 17t-63.5 45.5t-40.5 66t-14 78.5q0 15 4 38t14 48.5t28 51.5t46.5 46.5t68.5 33.5t95 13q37 0 68 -6t58 -13.5t51 -13.5t48 -6q19 0 36 4t37 17l26 26t20 12q6 0 6 -7q0 -14 -14.5 -24.5t-30.5 -24.5q-3 -4 -6 -16t-5 -25.5t-3.5 -25.5t-2.5 -16l-12 -366
q-3 -107 -28.5 -182.5t-61 -123t-74 -69t-67.5 -21.5q-13 0 -13 12q0 2 1 6.5t5 4.5q51 0 82 26t48 75.5t23 122t6 166.5q0 57 2 114.5t10 112t23 103.5t42 90q-15 -6 -40.5 -11.5t-57.5 -5.5zM623 937q-6 -11 -16 -23t-21.5 -22.5t-24.5 -17t-25 -6.5q-17 0 -34.5 8.5
t-34 19t-31.5 19.5t-27 9q-14 0 -35.5 -5t-41.5 -17l-8 6q6 11 15.5 24t21.5 24t25 18.5t26 7.5q14 0 31 -9t33.5 -19.5t32 -19t27.5 -8.5q15 0 36 2t44 16z" />
    <glyph glyph-name="itilde" unicode="&#x129;" horiz-adv-x="229" 
d="M66 88q0 25 6.5 54.5t15 58t15 53.5t6.5 42q0 20 -10 33t-27 13q-14 0 -24.5 -7t-18.5 -16t-13.5 -16t-8.5 -7q-7 0 -7 5q0 4 7 14.5t20 21.5t30.5 19.5t37.5 8.5q13 0 26 -4t23.5 -12t17 -20t6.5 -28q0 -30 -6.5 -61t-15 -61t-15 -57.5t-6.5 -50.5q0 -11 2.5 -24t8 -24
t15 -19t23.5 -8q16 0 29.5 9t23.5 20t16.5 20t9.5 9q5 0 5 -7q0 -2 -7 -13.5t-19.5 -24.5t-31.5 -23.5t-43 -10.5q-2 0 -16.5 2t-31 12.5t-30 33.5t-13.5 65zM264 496q-6 -11 -15.5 -23t-21.5 -22.5t-24.5 -17.5t-24.5 -7q-17 0 -34.5 8.5t-34 19t-31 19.5t-26.5 9
q-15 0 -36 -5t-41 -16l-10 6q6 11 16 23.5t22 23.5t25 18.5t26 7.5q14 0 31 -8.5t34 -19t32.5 -19t26.5 -8.5q14 0 35 2t44 16z" />
    <glyph glyph-name="Imacron" unicode="&#x12a;" horiz-adv-x="594" 
d="M448 731q-24 0 -44.5 7.5t-41.5 16.5t-44 16.5t-53 7.5q-52 0 -89.5 -16t-61.5 -43t-35 -63.5t-11 -76.5q0 -29 10 -61.5t31 -60.5t52.5 -46t74.5 -18q31 0 57 9.5t45 26t29.5 38.5t12.5 47q0 9 1 14t9 5t8 -12q0 -35 -15 -65t-40.5 -52t-58 -34.5t-68.5 -12.5
q-45 0 -82 17t-63.5 45.5t-40.5 66t-14 78.5q0 15 4 38t14 48.5t28 51.5t46.5 46.5t68.5 33.5t95 13q37 0 68 -6t58 -13.5t51 -13.5t48 -6q19 0 36 4t37 17l26 26t20 12q6 0 6 -7q0 -14 -14.5 -24.5t-30.5 -24.5q-3 -4 -6 -16t-5 -25.5t-3.5 -25.5t-2.5 -16l-12 -366
q-3 -107 -28.5 -182.5t-61 -123t-74 -69t-67.5 -21.5q-13 0 -13 12q0 2 1 6.5t5 4.5q51 0 82 26t48 75.5t23 122t6 166.5q0 57 2 114.5t10 112t23 103.5t42 90q-15 -6 -40.5 -11.5t-57.5 -5.5zM364 889q-11 0 -15.5 4.5t-4.5 10.5q0 5 4.5 9.5t15.5 4.5h244q11 0 15.5 -4.5
t4.5 -9.5q0 -6 -4.5 -10.5t-15.5 -4.5h-244z" />
    <glyph glyph-name="imacron" unicode="&#x12b;" horiz-adv-x="229" 
d="M66 88q0 25 6.5 54.5t15 58t15 53.5t6.5 42q0 20 -10 33t-27 13q-14 0 -24.5 -7t-18.5 -16t-13.5 -16t-8.5 -7q-7 0 -7 5q0 4 7 14.5t20 21.5t30.5 19.5t37.5 8.5q13 0 26 -4t23.5 -12t17 -20t6.5 -28q0 -30 -6.5 -61t-15 -61t-15 -57.5t-6.5 -50.5q0 -11 2.5 -24t8 -24
t15 -19t23.5 -8q16 0 29.5 9t23.5 20t16.5 20t9.5 9q5 0 5 -7q0 -2 -7 -13.5t-19.5 -24.5t-31.5 -23.5t-43 -10.5q-2 0 -16.5 2t-31 12.5t-30 33.5t-13.5 65zM-7 451q-10 0 -14.5 4.5t-4.5 10.5q0 5 4.5 9.5t14.5 4.5h246q9 0 14 -4.5t5 -9.5q0 -6 -5 -10.5t-14 -4.5h-246z
" />
    <glyph glyph-name="Ibreve" unicode="&#x12c;" horiz-adv-x="594" 
d="M448 731q-24 0 -44.5 7.5t-41.5 16.5t-44 16.5t-53 7.5q-52 0 -89.5 -16t-61.5 -43t-35 -63.5t-11 -76.5q0 -29 10 -61.5t31 -60.5t52.5 -46t74.5 -18q31 0 57 9.5t45 26t29.5 38.5t12.5 47q0 9 1 14t9 5t8 -12q0 -35 -15 -65t-40.5 -52t-58 -34.5t-68.5 -12.5
q-45 0 -82 17t-63.5 45.5t-40.5 66t-14 78.5q0 15 4 38t14 48.5t28 51.5t46.5 46.5t68.5 33.5t95 13q37 0 68 -6t58 -13.5t51 -13.5t48 -6q19 0 36 4t37 17l26 26t20 12q6 0 6 -7q0 -14 -14.5 -24.5t-30.5 -24.5q-3 -4 -6 -16t-5 -25.5t-3.5 -25.5t-2.5 -16l-12 -366
q-3 -107 -28.5 -182.5t-61 -123t-74 -69t-67.5 -21.5q-13 0 -13 12q0 2 1 6.5t5 4.5q51 0 82 26t48 75.5t23 122t6 166.5q0 57 2 114.5t10 112t23 103.5t42 90q-15 -6 -40.5 -11.5t-57.5 -5.5zM317 856q-32 0 -54 24t-22 62h27q0 -20 14 -35t34 -15t34.5 14.5t14.5 35.5h25
q0 -37 -22 -61.5t-51 -24.5z" />
    <glyph glyph-name="ibreve" unicode="&#x12d;" horiz-adv-x="229" 
d="M66 88q0 25 6.5 54.5t15 58t15 53.5t6.5 42q0 20 -10 33t-27 13q-14 0 -24.5 -7t-18.5 -16t-13.5 -16t-8.5 -7q-7 0 -7 5q0 4 7 14.5t20 21.5t30.5 19.5t37.5 8.5q13 0 26 -4t23.5 -12t17 -20t6.5 -28q0 -30 -6.5 -61t-15 -61t-15 -57.5t-6.5 -50.5q0 -11 2.5 -24t8 -24
t15 -19t23.5 -8q16 0 29.5 9t23.5 20t16.5 20t9.5 9q5 0 5 -7q0 -2 -7 -13.5t-19.5 -24.5t-31.5 -23.5t-43 -10.5q-2 0 -16.5 2t-31 12.5t-30 33.5t-13.5 65zM119 426q-32 0 -53.5 24t-22.5 62h28q0 -20 14 -35t34 -15t34 15t14 35h26q0 -18 -6 -34t-16.5 -27.5t-23.5 -18
t-28 -6.5z" />
    <glyph glyph-name="Iogonek" unicode="&#x12e;" horiz-adv-x="594" 
d="M448 731q-24 0 -44.5 7.5t-41.5 16.5t-44 16.5t-53 7.5q-52 0 -89.5 -16t-61.5 -43t-35 -63.5t-11 -76.5q0 -29 10 -61.5t31 -60.5t52.5 -46t74.5 -18q31 0 57 9.5t45 26t29.5 38.5t12.5 47q0 9 1 14t9 5t8 -12q0 -35 -15 -65t-40.5 -52t-58 -34.5t-68.5 -12.5
q-45 0 -82 17t-63.5 45.5t-40.5 66t-14 78.5q0 15 4 38t14 48.5t28 51.5t46.5 46.5t68.5 33.5t95 13q37 0 68 -6t58 -13.5t51 -13.5t48 -6q19 0 36 4t37 17l26 26t20 12q6 0 6 -7q0 -14 -14.5 -24.5t-30.5 -24.5q-3 -4 -6 -16t-5 -25.5t-3.5 -25.5t-2.5 -16l-12 -366
q-2 -73 -16 -130.5t-34.5 -101.5t-45 -75.5t-48.5 -52.5q-38 -33 -52.5 -64.5t-14.5 -53.5q0 -33 34 -33q50 0 81 50l8 -4q-18 -35 -52 -52.5t-66 -17.5q-26 0 -43 12.5t-17 38.5q0 18 11 40.5t37 47.5h-13q-13 0 -13 12q0 2 1 6.5t5 4.5q51 0 82 26t48 75.5t23 122t6 166.5
q0 57 2 114.5t10 112t23 103.5t42 90q-15 -6 -40.5 -11.5t-57.5 -5.5z" />
    <glyph glyph-name="iogonek" unicode="&#x12f;" horiz-adv-x="229" 
d="M66 88q0 25 6.5 54.5t15 58t15 53.5t6.5 42q0 20 -10 33t-27 13q-14 0 -24.5 -7t-18.5 -16t-13.5 -16t-8.5 -7q-7 0 -7 5q0 4 7 14.5t20 21.5t30.5 19.5t37.5 8.5q13 0 26 -4t23.5 -12t17 -20t6.5 -28q0 -30 -6.5 -61t-15 -61t-15 -57.5t-6.5 -50.5q0 -11 2.5 -24t8 -24
t15 -19t23.5 -8q16 0 29.5 9t23.5 20t16.5 20t9.5 9q5 0 5 -7q0 -3 -13 -22t-37 -35q-39 -37 -57 -69t-18 -54q0 -35 34 -35q50 0 81 52l8 -5q-18 -35 -52 -52.5t-66 -17.5q-26 0 -43 12.5t-17 38.5q0 23 18 53t61 62q-2 0 -16.5 2t-31 12.5t-30 33.5t-13.5 65zM77 562
q0 23 15.5 38.5t38.5 15.5q22 0 37.5 -15.5t15.5 -38.5t-15.5 -38.5t-37.5 -15.5q-23 0 -38.5 15.5t-15.5 38.5z" />
    <glyph glyph-name="Idotaccent" unicode="&#x130;" horiz-adv-x="594" 
d="M448 731q-24 0 -44.5 7.5t-41.5 16.5t-44 16.5t-53 7.5q-52 0 -89.5 -16t-61.5 -43t-35 -63.5t-11 -76.5q0 -29 10 -61.5t31 -60.5t52.5 -46t74.5 -18q31 0 57 9.5t45 26t29.5 38.5t12.5 47q0 9 1 14t9 5t8 -12q0 -35 -15 -65t-40.5 -52t-58 -34.5t-68.5 -12.5
q-45 0 -82 17t-63.5 45.5t-40.5 66t-14 78.5q0 15 4 38t14 48.5t28 51.5t46.5 46.5t68.5 33.5t95 13q37 0 68 -6t58 -13.5t51 -13.5t48 -6q19 0 36 4t37 17l26 26t20 12q6 0 6 -7q0 -14 -14.5 -24.5t-30.5 -24.5q-3 -4 -6 -16t-5 -25.5t-3.5 -25.5t-2.5 -16l-12 -366
q-3 -107 -28.5 -182.5t-61 -123t-74 -69t-67.5 -21.5q-13 0 -13 12q0 2 1 6.5t5 4.5q51 0 82 26t48 75.5t23 122t6 166.5q0 57 2 114.5t10 112t23 103.5t42 90q-15 -6 -40.5 -11.5t-57.5 -5.5zM396 943q0 28 19.5 47t46.5 19q28 0 47.5 -19t19.5 -47t-19.5 -47t-47.5 -19
q-27 0 -46.5 19t-19.5 47z" />
    <glyph glyph-name="dotlessi" unicode="&#x131;" horiz-adv-x="229" 
d="M66 88q0 25 6.5 54.5t15 58t15 53.5t6.5 42q0 20 -10 33t-27 13q-14 0 -24.5 -7t-18.5 -16t-13.5 -16t-8.5 -7q-7 0 -7 5q0 4 7 14.5t20 21.5t30.5 19.5t37.5 8.5q13 0 26 -4t23.5 -12t17 -20t6.5 -28q0 -30 -6.5 -61t-15 -61t-15 -57.5t-6.5 -50.5q0 -11 2.5 -24t8 -24
t15 -19t23.5 -8q16 0 29.5 9t23.5 20t16.5 20t9.5 9q5 0 5 -7q0 -2 -7 -13.5t-19.5 -24.5t-31.5 -23.5t-43 -10.5q-2 0 -16.5 2t-31 12.5t-30 33.5t-13.5 65z" />
    <glyph glyph-name="IJ" unicode="&#x132;" horiz-adv-x="1280" 
d="M1196 -107q0 2 13 7.5t28.5 17.5t28.5 32.5t13 53.5q0 26 -12 43.5t-31.5 28.5t-44.5 16t-52 5q-1 -32 -8 -70.5t-19.5 -78t-30.5 -77t-42 -66.5t-54 -46.5t-65 -17.5q-43 0 -70.5 27t-27.5 81q0 32 15.5 69.5t45 73t73 65t100.5 45.5q0 12 0.5 23t0.5 20q1 52 3 109
t6 115t11.5 113.5t19 104t27.5 87.5t38 64q-14 -5 -33 -15.5t-54 -10.5q-30 0 -52 9t-44 19.5t-49.5 19.5t-69.5 9q-48 0 -84 -17.5t-61 -46t-37.5 -64t-12.5 -71.5q0 -46 14.5 -79.5t38 -56t53.5 -33.5t61 -11q26 0 50.5 8t43.5 24t30.5 39.5t11.5 53.5q0 7 3.5 10.5
t8.5 3.5q4 0 7.5 -3.5t3.5 -10.5q0 -38 -15.5 -67t-41 -49t-58 -30t-66.5 -10q-36 0 -70.5 11.5t-61.5 34.5t-43.5 59t-16.5 84q0 43 16.5 86.5t47.5 78.5t76.5 56.5t104.5 21.5t95.5 -8.5t61 -18t42.5 -18t41 -8.5t43.5 12t35.5 26q4 4 9.5 10.5t10.5 12.5t10 10.5t8 4.5
q8 0 8 -6q0 -11 -9 -22t-20 -24q-13 -23 -22.5 -73.5t-16 -114.5t-10.5 -134.5t-6.5 -135t-3.5 -115.5t-1 -75q5 0 10.5 0.5t12.5 0.5q24 0 49 -5.5t45.5 -19t34 -35t13.5 -54.5q0 -25 -10 -46.5t-25 -37t-32 -24.5t-31 -9q-4 0 -7 3.5t-3 5.5zM448 731q-24 0 -44.5 7.5
t-41.5 16.5t-44 16.5t-53 7.5q-52 0 -89.5 -16t-61.5 -43t-35 -63.5t-11 -76.5q0 -29 10 -61.5t31 -60.5t52.5 -46t74.5 -18q31 0 57 9.5t45 26t29.5 38.5t12.5 47q0 9 1 14t9 5t8 -12q0 -35 -15 -65t-40.5 -52t-58 -34.5t-68.5 -12.5q-45 0 -82 17t-63.5 45.5t-40.5 66
t-14 78.5q0 15 4 38t14 48.5t28 51.5t46.5 46.5t68.5 33.5t95 13q37 0 68 -6t58 -13.5t51 -13.5t48 -6q19 0 36 4t37 17l26 26t20 12q6 0 6 -7q0 -14 -14.5 -24.5t-30.5 -24.5q-3 -4 -6 -16t-5 -25.5t-3.5 -25.5t-2.5 -16l-12 -366q-3 -107 -28.5 -182.5t-61 -123t-74 -69
t-67.5 -21.5q-13 0 -13 12q0 2 1 6.5t5 4.5q51 0 82 26t48 75.5t23 122t6 166.5q0 57 2 114.5t10 112t23 103.5t42 90q-15 -6 -40.5 -11.5t-57.5 -5.5zM908 -239q45 0 73 33.5t44 82.5t22 105.5t8 102.5q-42 -12 -79.5 -34t-66.5 -53t-46 -69t-17 -81q0 -15 3 -30.5t10 -28
t19 -20.5t30 -8z" />
    </font>
</defs>
</svg>
