<?xml version="1.0" standalone="no"?>
<!DOCTYPE svg PUBLIC "-//W3C//DTD SVG 1.1//EN" "http://www.w3.org/Graphics/SVG/1.1/DTD/svg11.dtd" >
<svg xmlns="http://www.w3.org/2000/svg" xmlns:xlink="http://www.w3.org/1999/xlink" version="1.1">
<metadata>
Created by FontForge 20170731 at Thu Aug 15 02:35:27 2013
 By Aleksey,,,
Copyright (c) 2013 by THType melodylife195@gmail.com. All rights reserved.
</metadata>
<defs>
<font id="UVFSneakerScript" horiz-adv-x="629" >
  <font-face 
    font-family="UVF Sneaker Script"
    font-weight="400"
    font-stretch="normal"
    units-per-em="2048"
    panose-1="2 11 5 0 4 0 0 2 0 4"
    ascent="1638"
    descent="-410"
    x-height="670"
    cap-height="1583"
    bbox="-7267.38 -632.316 2334.88 2358"
    underline-thickness="50"
    underline-position="-150"
    unicode-range="U+0020-FB02"
  />
<missing-glyph horiz-adv-x="1229" 
d="M307 0q-43 0 -72.5 29.5t-29.5 72.5v1229q0 44 29.5 73.5t72.5 29.5h615q43 0 72.5 -29.5t29.5 -73.5v-1229q0 -43 -29.5 -72.5t-72.5 -29.5h-615zM338 162q0 -13 8 -21t21 -8h495q13 0 21 8t8 21v1110q0 12 -8 20t-21 8h-495q-13 0 -21 -8t-8 -20v-1110z" />
    <glyph glyph-name=".notdef" horiz-adv-x="1229" 
d="M307 0q-43 0 -72.5 29.5t-29.5 72.5v1229q0 44 29.5 73.5t72.5 29.5h615q43 0 72.5 -29.5t29.5 -73.5v-1229q0 -43 -29.5 -72.5t-72.5 -29.5h-615zM338 162q0 -13 8 -21t21 -8h495q13 0 21 8t8 21v1110q0 12 -8 20t-21 8h-495q-13 0 -21 -8t-8 -20v-1110z" />
    <glyph glyph-name=".null" horiz-adv-x="0" 
 />
    <glyph glyph-name="nonmarkingreturn" horiz-adv-x="0" 
 />
    <glyph glyph-name="glyph347" unicode=" " horiz-adv-x="522" 
 />
    <glyph glyph-name="exclam" unicode="!" horiz-adv-x="547" 
d="M154 102q0 31 12.5 57.5t34 46t49 30t57.5 10.5q28 0 52 -10t41.5 -26.5t27.5 -39t10 -47.5q0 -29 -12.5 -55t-33 -45.5t-48 -31t-57.5 -11.5q-29 0 -53 9.5t-42 26t-28 38.5t-10 48zM522 817q36 127 69.5 213.5t66.5 138.5t67.5 74.5t73.5 22.5q45 0 65.5 -25t20.5 -65
q0 -56 -19 -105t-51 -100t-74 -107.5t-89 -126.5t-95 -157t-92 -199q-14 -35 -38 -46.5t-45 -4t-31 30.5t5 57q50 119 97.5 212t91 165t80.5 126t65 95t46.5 71t23.5 54q2 9 -1.5 15t-9.5 7.5t-12.5 -2t-9.5 -12.5q-12 -33 -36 -69.5t-53 -77.5t-60 -87t-56 -98z" />
    <glyph glyph-name="quotedbl" unicode="&#x22;" 
d="M410 834q-18 -26 -42 -30.5t-42.5 7t-25 34.5t10.5 52l217 367q13 23 32 32t37.5 8t34.5 -10.5t25 -25.5t8 -37t-16 -43zM680 834q-18 -26 -41.5 -30.5t-42 7t-25 34.5t10.5 52l217 367q20 34 50 39t53.5 -9.5t32 -43t-14.5 -62.5z" />
    <glyph glyph-name="numbersign" unicode="#" horiz-adv-x="1145" 
d="M555 758q40 2 77.5 0t76.5 -2l-351 -717q-13 -25 -31 -38.5t-36.5 -16t-35.5 4t-27 21t-11.5 35t10.5 45.5zM803 948q-40 2 -78.5 3t-73.5 1l123 252q20 41 50 53.5t54 3.5t34.5 -37t-9.5 -69zM979 522q-37 -2 -77 -2t-77 2l324 690q19 41 48.5 53t53.5 2.5t35.5 -37
t-6.5 -65.5zM735 328q40 -2 78.5 -2h73.5l-137 -291q-17 -36 -46 -46.5t-53 -1t-35.5 36t7.5 64.5zM1038 360q-27 -4 -79.5 -4t-119 1.5t-141.5 4t-147 5.5l65 131q64 -2 127.5 -4t118.5 -2.5t97.5 0.5t66.5 4q13 1 26.5 -1t24.5 -9t18 -19.5t9 -30.5q3 -34 -18.5 -53
t-47.5 -23zM242 502q23 3 63.5 4.5t91.5 -0.5l-65 -135q-25 -2 -44.5 -2t-33.5 -2q-13 -2 -26.5 0t-24.5 9t-18.5 19.5t-8.5 30.5q-2 17 3.5 30.5t15 23t22 15t25.5 7.5zM446 920q29 4 87 4t130.5 -2t153.5 -5t156 -6l-64 -133q-68 2 -137.5 5t-130 4.5t-108.5 1t-74 -4.5
q-13 -2 -26.5 0.5t-24.5 9.5t-18.5 19.5t-8.5 30.5q-3 34 18 53t47 23zM1243 778q-17 -3 -46 -3.5t-67 -0.5l64 135q11 0 20 1t17 3q13 2 26.5 0t24.5 -9t18 -19.5t9 -30.5q1 -17 -4 -30.5t-14.5 -23t-22 -15.5t-25.5 -7z" />
    <glyph glyph-name="dollar" unicode="$" horiz-adv-x="983" 
d="M932 895q22 22 36 47.5t18.5 52t0.5 51.5t-18 46q15 35 30 67.5t27 63.5q50 -38 71 -95.5t18 -118t-27 -116.5t-64 -90q-29 -26 -56.5 -24t-43.5 19.5t-16.5 44.5t24.5 52zM299 367q-25 -25 -34 -54t-4 -58.5t24 -56t51 -46.5q-14 -32 -28.5 -62.5t-26.5 -58.5
q-65 37 -99.5 95t-42.5 120.5t9.5 120t58.5 92.5q29 25 56.5 23t43.5 -19.5t16.5 -44.5t-24.5 -51zM467 -12q15 29 30.5 61.5t30.5 67.5q55 7 99.5 32t76 62t49 83t17.5 97q0 52 -21 93t-52 77.5t-67.5 72.5t-67.5 78t-52 93.5t-21 118.5q0 57 21.5 117t65 110.5t110 84.5
t156.5 38l-60 -137q-31 -10 -59.5 -28t-50.5 -44t-35.5 -60t-13.5 -75q0 -55 20.5 -96t50.5 -76.5t66 -69.5t66 -76.5t50.5 -97.5t20.5 -131q0 -78 -31 -149.5t-87.5 -126t-135.5 -87t-174 -32.5h-2zM223 -158q25 52 64.5 136t88 188t103.5 223t111 242q20 -21 34.5 -36
t25.5 -26.5t19 -20.5t15 -18q-57 -125 -111.5 -242t-100 -215t-80 -170.5t-52.5 -107.5q-17 -35 -43.5 -44.5t-48 0.5t-31.5 34.5t6 56.5zM1069 1407q-24 -60 -56.5 -136.5t-71.5 -165t-82.5 -185.5t-88.5 -197q-28 28 -50.5 53.5t-37.5 52.5q42 93 80.5 181t72.5 167.5
t63.5 148.5t53.5 124q15 34 40 43t46.5 0.5t32.5 -32t-2 -54.5z" />
    <glyph glyph-name="percent" unicode="%" horiz-adv-x="1536" 
d="M446 27q-27 -27 -54 -26t-43.5 18.5t-17.5 44.5t25 53q82 77 174.5 167.5t189.5 187.5t196 197t193.5 196t182 184.5t162.5 162.5q31 31 59.5 31t44.5 -18t15 -47.5t-29 -55.5q-82 -77 -174 -168t-189.5 -188t-196 -197t-193.5 -196t-182.5 -184t-162.5 -162zM739 975
q0 43 -8 80.5t-31 68.5q-16 22 -9.5 46t24.5 37.5t42.5 10.5t45.5 -34q28 -42 40.5 -95t12.5 -110q0 -67 -15 -135t-42 -131t-65 -118t-84.5 -95.5t-100 -64t-111.5 -23.5q-46 0 -82.5 16.5t-61.5 46t-38.5 71t-13.5 91.5q0 71 19.5 146.5t54.5 147t84 135t107.5 111
t125 75.5t137.5 28q29 0 56 -9t44.5 -25t21 -38.5t-14.5 -50.5q-9 -11 -23 -14q-6 17 -11.5 31.5t-15.5 25.5q-27 34 -59 41.5t-58 -5.5t-41 -41.5t-7 -64.5q-44 -18 -83.5 -50t-73 -72t-60 -86.5t-45 -94t-28.5 -94t-10 -86.5q0 -52 20 -83.5t67 -31.5q33 0 67.5 17.5
t67 49t60.5 73.5t49.5 91.5t33.5 103.5t12 108zM1468 530q0 44 -7.5 81.5t-30.5 68.5q-17 22 -10.5 45.5t24.5 37t42.5 10.5t45.5 -34q28 -42 40.5 -94.5t12.5 -109.5q0 -67 -15 -135.5t-42 -131.5t-65 -118t-84.5 -95.5t-100 -64t-111.5 -23.5q-46 0 -82.5 16.5t-61.5 46.5
t-38.5 71.5t-13.5 91.5q0 71 19.5 146t54.5 146.5t84 135.5t107.5 111.5t125 75.5t137.5 28q29 0 56 -9t44.5 -25t21 -39t-14.5 -50q-10 -12 -23 -15q-6 17 -11.5 32t-15.5 26q-27 34 -59 41t-58 -5.5t-41 -41t-7 -64.5q-44 -18 -83.5 -50t-72.5 -72.5t-59.5 -87t-45 -94
t-28.5 -93.5t-10 -86q0 -53 19.5 -84t66.5 -31q50 0 101.5 38.5t93.5 101t68.5 142t26.5 160.5z" />
    <glyph glyph-name="ampersand" unicode="&#x26;" horiz-adv-x="1270" 
d="M475 813q0 116 26.5 207.5t69.5 159t98 110.5t112 64t112 19t98 -25.5t69.5 -68.5t26.5 -110q0 -84 -39 -151t-101.5 -122.5t-141.5 -104.5t-160 -97q-5 31 -6.5 64t-1.5 78q65 39 124 76.5t103.5 76t70.5 78.5t26 84q0 49 -26.5 74t-65.5 24.5t-85.5 -27t-85.5 -80
t-65.5 -134.5t-26.5 -191q0 -66 11 -137.5t32 -141.5t53 -136t74 -121q-18 -28 -42 -51t-50 -40q-53 69 -92 146t-65 156.5t-39 161t-13 159.5zM1018 416q-23 -93 -71 -173.5t-115 -140t-149.5 -93.5t-174.5 -34q-90 0 -157 25t-111 67.5t-66.5 98.5t-24 117.5t17.5 125
t56.5 121.5t94.5 106t131 79q3 -34 7.5 -68t12.5 -69q-61 -32 -103 -80t-63.5 -101t-20.5 -106.5t26 -96.5t75 -69.5t127 -26.5q69 0 131.5 29t112.5 77t84.5 110t46.5 128q26 -11 59.5 -17t73.5 -9zM1204 88q36 4 55 -13.5t20.5 -40.5t-16 -43.5t-53.5 -23.5
q-114 -11 -210 15t-175 75q26 22 50.5 45.5t46.5 49.5q58 -39 128.5 -56t153.5 -8zM893 618q43 -27 98.5 -33t112.5 1t110 23.5t91 35.5q36 18 61 7t35.5 -34.5t4.5 -51.5t-32 -44q-16 -10 -42 -21t-59.5 -20.5t-73 -17.5t-83.5 -12q-97 -9 -162 5.5t-103.5 41t-52.5 60.5
t-9 64.5t27.5 52.5t57.5 25q50 5 86.5 -18.5t53.5 -67.5q-13 1 -29 5.5t-31 9.5t-26.5 10.5t-14.5 7.5q-9 6 -16 4.5t-10.5 -7.5t-2.5 -13.5t9 -12.5z" />
    <glyph glyph-name="quotesingle" unicode="'" horiz-adv-x="358" 
d="M410 834q-18 -26 -42 -30.5t-42.5 7t-25 34.5t10.5 52l217 367q13 23 32 32t37.5 8t34.5 -10.5t25 -25.5t8 -37t-16 -43z" />
    <glyph glyph-name="parenleft" unicode="(" horiz-adv-x="655" 
d="M489 -184q12 -23 10 -42.5t-12 -33t-26.5 -21t-33.5 -6t-33.5 12t-26.5 32.5q-67 142 -82.5 294.5t14.5 304.5t102.5 297t182 272.5t253 231.5t314.5 173q36 15 60.5 4t33.5 -32.5t0.5 -46t-39.5 -37.5q-148 -61 -276 -153.5t-228.5 -206t-169.5 -243t-99.5 -265
t-18 -272t74.5 -263.5z" />
    <glyph glyph-name="parenright" unicode=")" horiz-adv-x="696" 
d="M600 1225q-17 34 -5.5 60t35 36t51 2t42.5 -41q67 -142 82.5 -294.5t-14.5 -304t-103 -297t-182.5 -273t-252.5 -231.5t-314 -173q-36 -15 -61 -4t-34 32.5t-0.5 46.5t39.5 38q148 61 276 153.5t228.5 206t169.5 243t99.5 265t18 271.5t-74.5 264z" />
    <glyph glyph-name="asterisk" unicode="*" horiz-adv-x="817" 
d="M618 1081q1 7 -3 11.5t-10 5.5t-11 -2t-6 -11l-6 -63q-56 -50 -98 -76t-73.5 -33.5t-52.5 1.5t-34 30t-7.5 47t36 53.5t89.5 55t154 51.5q7 1 9.5 7t1.5 11.5t-5.5 9t-11.5 1.5l-64 -15q-68 39 -106.5 71.5t-54.5 59.5t-12.5 49.5t18.5 40.5q15 19 40 22.5t60 -17t80 -67
t100 -126.5q5 -6 11 -7t11 2t7 8.5t-2 12.5l-33 50q15 75 34 121.5t40 70.5t43.5 28.5t44.5 -5.5q23 -10 35 -32.5t4.5 -60.5t-38.5 -94.5t-95 -134.5q-5 -5 -4.5 -10.5t4.5 -9t9.5 -4t10.5 5.5l43 43q72 7 122.5 2t81.5 -18t44 -32.5t10 -43.5q-3 -23 -21 -40.5t-57 -22
t-103 9t-159 53.5q-6 2 -11 -0.5t-7.5 -7.5t-1.5 -10.5t8 -8.5l51 -25q28 -70 40 -120.5t11 -84.5t-13.5 -52.5t-33.5 -22.5q-27 -6 -51.5 7t-41.5 50t-25 102t-1 164z" />
    <glyph glyph-name="plus" unicode="+" horiz-adv-x="983" 
d="M514 223q-10 -22 -25.5 -33.5t-33 -14.5t-33 2.5t-25.5 18.5t-11 32t11 44q20 40 46 93.5t55 114t59.5 124.5t61 125l58.5 117t52 100q14 25 31 37.5t34 14t31.5 -6t22.5 -21.5t8 -33.5t-12 -41.5q-25 -44 -54 -100t-59.5 -117.5t-61.5 -125t-59.5 -123.5t-53 -113
t-42.5 -93zM274 666q19 2 49 3t66.5 1t78 -0.5t85.5 -1.5l-64 -133q-66 2 -118.5 0.5t-83.5 -5.5q-13 -2 -26.5 0.5t-24.5 9.5t-18.5 19.5t-8.5 30.5q-3 34 18 53.5t47 22.5zM963 530q-20 -3 -48.5 -4.5t-63.5 -1.5t-75.5 1t-83.5 3l66 134q63 -2 112 -1.5t80 5.5
q13 1 26.5 -1t24.5 -9t18 -19.5t9 -30.5q3 -34 -18 -53t-47 -23z" />
    <glyph glyph-name="comma" unicode="," horiz-adv-x="547" 
d="M279 102q4 -16 0.5 -33.5t-11.5 -32.5t-19 -27t-22 -17q-34 12 -53.5 42t-19.5 68q0 31 12.5 57.5t34 46t49 30t57.5 10.5q33 0 58.5 -13t42.5 -34.5t24.5 -50.5t3.5 -60q-8 -60 -36 -108t-67 -83t-84 -56t-85 -27q-30 -5 -46.5 8.5t-19.5 33t8.5 38.5t38.5 24
q30 6 61.5 22.5t56.5 42t38 58t6 70.5q-2 8 -7.5 11.5t-11 2t-9 -7.5t-0.5 -15z" />
    <glyph glyph-name="hyphen" unicode="-" horiz-adv-x="674" 
d="M555 258q-46 -6 -83 -4.5t-71.5 4.5t-71.5 4.5t-83 -4.5q-13 -2 -26.5 0.5t-24.5 9t-18.5 19t-8.5 30.5q-3 34 18 53.5t47 22.5q46 6 83 4.5t72 -4.5t72 -4.5t83 4.5q13 1 26 -1t24 -8.5t18.5 -19t9.5 -30.5q1 -17 -4 -30.5t-14.5 -23t-22 -15.5t-25.5 -7z" />
    <glyph glyph-name="period" unicode="." horiz-adv-x="547" 
d="M154 102q0 31 12.5 57.5t34 46t49 30t57.5 10.5q28 0 52 -10t41.5 -26.5t27.5 -39t10 -47.5q0 -29 -12.5 -55t-33 -45.5t-48 -31t-57.5 -11.5q-29 0 -53 9.5t-42 26t-28 38.5t-10 48z" />
    <glyph glyph-name="slash" unicode="/" horiz-adv-x="743" 
d="M262 -63q-26 -30 -54 -32t-46 13t-21 41t21 53q51 57 116 133t138.5 162t151 178.5t153.5 183t146.5 174.5t129.5 154q27 32 54.5 35.5t45.5 -11.5t21 -42t-20 -55q-62 -77 -133.5 -163.5t-147 -176t-152 -179t-149 -173.5t-137.5 -159.5t-117 -135.5z" />
    <glyph glyph-name="zero" unicode="0" horiz-adv-x="969" 
d="M950 827q0 70 -13.5 134t-53.5 118q-21 28 -15.5 54t25 39.5t47 9t49.5 -36.5q45 -63 64.5 -143t19.5 -168q0 -102 -22.5 -206.5t-64 -200.5t-99.5 -180t-128 -146.5t-150.5 -98t-166.5 -35.5q-65 0 -116.5 23.5t-87 66.5t-54 102t-18.5 130q0 110 29.5 225.5t82.5 225
t127.5 206t163.5 169t190.5 115t209.5 42.5q34 0 60 -6t52 -17q31 -12 41.5 -37.5t3.5 -49t-30.5 -37t-59.5 -1.5q-5 11 -10.5 20.5t-11.5 18.5q-19 28 -48.5 39.5t-58 6.5t-49.5 -27t-22 -60q-80 -24 -151.5 -74t-131.5 -117.5t-108.5 -147t-82 -162t-51.5 -163.5t-18 -151
q0 -97 39.5 -155t128.5 -58q56 0 114 29.5t112 80.5t102 121.5t84 151.5t56.5 170.5t20.5 179.5z" />
    <glyph glyph-name="one" unicode="1" horiz-adv-x="750" 
d="M768 1100q-5 -13 -20 -45.5t-35 -77.5q-38 -39 -87 -78t-104 -75t-112.5 -68.5t-112.5 -57.5q-32 -15 -55.5 -4t-32.5 32.5t0 47.5t43 41q39 18 105 56t146 93.5t167 126.5t168 154q16 22 37 33.5t42.5 12.5t40 -7t29 -25.5t10 -43t-17.5 -58.5q-44 -84 -93 -186
t-99.5 -209.5t-100 -215.5t-94.5 -204.5t-82.5 -176.5t-63.5 -132q-19 -36 -48.5 -46.5t-53.5 -1t-35.5 35.5t6.5 63q23 47 60 119.5t81 160.5t92 186t93.5 194t86 185.5t69.5 160.5q3 8 -0.5 13t-9 6.5t-11.5 -0.5t-8 -9z" />
    <glyph glyph-name="two" unicode="2" horiz-adv-x="985" 
d="M154 113q10 0 28 -4t39 -11t42.5 -16t37.5 -19q-22 -11 -46 -13.5t-52 -2.5q-50 0 -82.5 16t-49 40t-17 51.5t14.5 51.5t45.5 40t75.5 16q40 0 80 -14t79 -34.5t77.5 -44.5t76 -44.5t74 -34.5t72.5 -14q51 0 89 27.5t81 70.5q22 22 45.5 20.5t38.5 -17.5t17 -40.5
t-17 -48.5q-26 -33 -57.5 -58t-64.5 -41.5t-66.5 -25t-63.5 -8.5q-57 0 -104.5 14t-88.5 35t-78 45t-73 45t-73 35t-78 14q-9 0 -14 -4.5t-5 -10.5t4 -10.5t13 -4.5zM1135 901q-13 -94 -53 -176.5t-97.5 -153t-127.5 -129t-143 -105.5t-143.5 -82.5t-128.5 -59.5
q-38 23 -76.5 44t-78.5 35q84 29 167 67.5t160 84.5t144 99.5t119.5 114t86.5 127t44 138.5q9 61 -4 109t-41 81t-67.5 50.5t-83.5 19.5t-89.5 -13t-85 -47.5t-70 -83t-45.5 -120.5q-7 -33 -29 -48t-45 -12t-39 23t-10 56q16 97 59 168.5t101.5 118.5t127.5 68.5t137 19.5
t130 -28t106.5 -75.5t66 -122.5t8.5 -168z" />
    <glyph glyph-name="three" unicode="3" horiz-adv-x="965" 
d="M956 432q0 -74 -28.5 -155.5t-88.5 -150.5t-154 -114t-224 -45q-91 0 -155.5 29t-105.5 74.5t-60.5 102.5t-19 112.5t18.5 104t51 77.5q29 25 56.5 23t43.5 -19.5t16.5 -44.5t-23.5 -51q-20 -19 -28.5 -47.5t-6 -60t16.5 -62.5t40.5 -55.5t65.5 -40t92 -15.5
q98 0 167.5 34.5t113.5 86.5t64.5 112.5t20.5 112.5q0 42 -11.5 80.5t-35 68.5t-58.5 48t-83 18q-9 0 -13 -4.5t-4 -10.5t4 -10.5t13 -4.5q37 0 71.5 -18t53.5 -50q-22 -3 -39.5 -4.5t-42.5 -1.5q-37 0 -64 9t-44.5 23t-26 32.5t-8.5 37.5q0 20 9 39.5t26 35t41.5 25
t56.5 9.5q69 0 121.5 -27.5t88.5 -73t54 -105.5t18 -124zM473 985q7 71 39.5 127.5t81 96.5t108 62.5t120.5 25.5t119 -14t102.5 -55t72 -99t27.5 -146q0 -41 -10.5 -89.5t-34 -97.5t-62 -93.5t-94.5 -77.5q-14 28 -31.5 52t-40.5 44q39 23 67 52t45.5 61.5t25.5 68t8 70.5
q0 74 -29.5 121t-74 68t-97 18t-99.5 -28.5t-81.5 -71.5t-42.5 -111q-3 -29 -23 -42.5t-42.5 -12t-39.5 19t-14 51.5z" />
    <glyph glyph-name="four" unicode="4" horiz-adv-x="1001" 
d="M1059 1219q16 35 44.5 45.5t53 1.5t36.5 -35t-5 -62q-140 -289 -274.5 -576.5t-266.5 -576.5q-16 -35 -44.5 -44.5t-52.5 0t-36 36t6 64.5q140 289 274 573.5t265 573.5zM1026 354q-54 -29 -107 -40t-104 -9l62 129q43 6 92 31q31 17 54.5 7.5t33.5 -30.5t3.5 -47
t-34.5 -41zM930 1153q-114 -223 -217.5 -367t-192.5 -227q-7 1 -21 8l-31 15.5t-34.5 16.5t-30.5 13q96 81 199.5 226.5t208.5 357.5q20 40 47 50t48 -0.5t30 -36t-6 -56.5zM260 616q47 0 96.5 -18.5t101 -43.5t104.5 -50.5t108 -40.5l-56 -117q-70 21 -124 50t-100 54.5
t-88 41.5t-87 12q-9 -1 -13.5 -6t-4 -11t5 -10.5t12.5 -3.5q37 3 70.5 -7t52.5 -24q-28 -11 -54 -14.5t-61 -3.5q-38 0 -63 14t-36.5 35.5t-9.5 46.5t18.5 46.5t48 35.5t79.5 14z" />
    <glyph glyph-name="five" unicode="5" horiz-adv-x="961" 
d="M748 1073q11 -12 21.5 -19t23.5 -14q-17 -58 -47 -109t-56 -93q-32 11 -66 13t-71 -3q27 42 52 84.5t46.5 88.5t38.5 96t27 108q5 33 27 46t46 9.5t42 -23.5t16 -53q43 -35 83 -44.5t72 -3t55.5 23t33.5 32.5q18 28 42.5 31.5t43.5 -9t27 -36t-7 -49.5q-32 -54 -85 -84.5
t-114 -37t-122 11t-109 59.5q-5 4 -11 3.5t-10 -5t-4.5 -11t5.5 -12.5zM956 432q0 -74 -28.5 -155.5t-88.5 -150.5t-154 -114t-224 -45q-91 0 -155.5 29t-105.5 74.5t-60.5 102.5t-19 112.5t18.5 104t51 77.5q29 25 56.5 23t43.5 -19.5t16.5 -44.5t-23.5 -51
q-20 -19 -28.5 -47.5t-6 -60t16.5 -62.5t40.5 -55.5t65.5 -40t92 -15.5q98 0 167.5 34.5t113.5 86.5t64.5 112.5t20.5 112.5q0 64 -31 121t-81 93.5t-114 46t-130 -20.5q-8 -4 -10.5 -10.5t-0.5 -12t7.5 -8.5t13.5 0q15 6 27.5 10.5t24 7t24 3.5t27.5 0q-42 -42 -84 -57
t-74.5 -9t-50.5 29.5t-12 58.5q4 23 20.5 46t45 41t67 29t86.5 11q91 0 160.5 -31.5t116.5 -84.5t71 -123t24 -148z" />
    <glyph glyph-name="six" unicode="6" horiz-adv-x="948" 
d="M975 1157q-79 1 -152.5 -26t-139.5 -74.5t-123 -110t-103 -131.5q-36 -17 -64 -39.5t-46 -47t-27 -48t-7 -41.5q2 -20 8 -35.5t17 -28.5q-20 -57 -31.5 -110.5t-13.5 -99.5q-2 -81 20.5 -136t61 -86.5t87.5 -41.5t101.5 -0.5t103.5 37.5t92.5 71t68.5 100.5t32 126.5
q5 81 -26 146t-87.5 100.5t-133 32.5t-162.5 -58q-8 -5 -8.5 -11.5t3.5 -11.5t10.5 -7t12.5 2q13 10 24 18t22 13t23 9t27 7q-30 -51 -67 -76t-70.5 -27.5t-57 15.5t-26.5 53q-2 24 16 55.5t55 60t92 47t126 17.5q91 -2 160.5 -35t115 -87t65.5 -124.5t13 -148.5
q-9 -100 -49.5 -180.5t-100.5 -138t-133.5 -92t-149 -43t-146.5 10.5t-125.5 66.5t-86.5 126t-30 189.5q2 98 34 205t87.5 210.5t132 196.5t167.5 163t193.5 110t210.5 38q34 -2 60.5 -6.5t52.5 -15.5q24 -10 36 -26t13.5 -33.5t-6 -33.5t-21.5 -26.5t-34 -12.5t-43 9
q-14 6 -33 10t-41 4z" />
    <glyph glyph-name="seven" unicode="7" horiz-adv-x="827" 
d="M502 1278q0 -37 31 -61.5t78.5 -39.5t105 -22.5t110.5 -10t94.5 -3t57.5 -0.5q46 33 82.5 30.5t54 -25t11 -56.5t-45.5 -64q-133 -127 -241 -261t-197.5 -266.5t-164 -259.5t-138.5 -239q-18 -32 -47 -40.5t-52.5 1t-33.5 35.5t8 63q30 59 72.5 132.5t96 156t115.5 171.5
t130.5 178.5t141.5 177.5t149 169q5 6 4.5 13t-5 10.5t-11 3t-13.5 -7.5l-22.5 -22.5t-22.5 -24.5q-25 0 -70 2.5t-96.5 10.5t-105 23.5t-97 42t-71 65t-27.5 93.5q0 47 28.5 80t73.5 33q26 0 47 -12t34 -31t18 -43.5t0 -48.5q-19 2 -34.5 15.5t-17.5 33.5q-1 9 -5.5 13
t-10 4t-10 -5t-4.5 -14zM346 1012q20 24 36.5 48t29.5 50q23 -23 52.5 -40.5t63.5 -31.5q-17 -31 -36.5 -57.5t-42.5 -52.5q-26 -29 -54.5 -30.5t-47 14.5t-22 43.5t20.5 56.5z" />
    <glyph glyph-name="eight" unicode="8" horiz-adv-x="952" 
d="M119 283q0 87 32 162t88 136t131.5 107.5t163 77t182.5 44t189 9.5q34 -2 52 -22t18 -44t-17.5 -43.5t-52.5 -19.5q-57 0 -128 -7.5t-144 -26t-142.5 -49t-124 -76.5t-87.5 -108t-33 -144q0 -32 13 -65.5t39 -60.5t66.5 -44t96.5 -17q98 0 167.5 34.5t113.5 86.5
t64.5 112.5t20.5 112.5q0 36 -9.5 66t-26 55t-38.5 45t-48 37q48 9 87 12.5t76 3.5q38 -32 62 -90t24 -137q0 -49 -12.5 -102.5t-38.5 -105.5t-66 -98.5t-95 -81.5t-125.5 -56t-157.5 -21q-91 0 -155.5 29t-105.5 74.5t-60 102t-19 112.5zM627 954q0 -38 14 -67t37 -53
q-76 -14 -141 -37q-19 29 -29 66t-10 85q0 83 32 148t84.5 110t119 68.5t134.5 23.5q60 0 106.5 -18t79 -48.5t50.5 -70t20.5 -83t-10.5 -88t-43 -83.5q-24 -32 -51 -35.5t-46 10.5t-24 41t17 56q27 37 29.5 73t-14 64.5t-49.5 46t-77 17.5q-39 0 -79.5 -14.5t-74 -43
t-54.5 -71t-21 -97.5z" />
    <glyph glyph-name="nine" unicode="9" horiz-adv-x="948" 
d="M287 98q90 -2 175 35t160.5 99t138.5 143.5t108.5 170t71.5 178t28 167.5q2 81 -20.5 135.5t-60.5 86.5t-87.5 41.5t-102 0t-103.5 -37t-92.5 -71t-69 -101t-32.5 -126.5q-5 -81 26 -146t88 -100t133.5 -32.5t162.5 57.5q7 5 7.5 11.5t-3 12t-10 7.5t-12.5 -2
q-26 -22 -46 -31.5t-51 -15.5q22 39 49 63t53.5 34t50.5 7t40 -18q-38 -104 -103 -199q-32 -16 -70.5 -25.5t-86.5 -7.5q-92 2 -161 35t-114.5 87.5t-66 125t-13.5 147.5q9 100 49.5 180.5t101 138t134 92t149 43t146.5 -10t125.5 -66.5t86.5 -126t30 -189q-2 -98 -34 -205
t-88 -210.5t-132.5 -197t-167.5 -163.5t-193.5 -110.5t-210.5 -37.5q-34 2 -60 7t-52 16q-37 15 -46 42.5t2 50.5t37.5 34.5t61.5 -4.5q14 -7 33 -11t41 -4z" />
    <glyph glyph-name="colon" unicode=":" horiz-adv-x="547" 
d="M154 102q0 31 12.5 57.5t34 46t49 30t57.5 10.5q28 0 52 -10t41.5 -26.5t27.5 -39t10 -47.5q0 -29 -12.5 -55t-33 -45.5t-48 -31t-57.5 -11.5q-29 0 -53 9.5t-42 26t-28 38.5t-10 48zM350 532q0 31 13 57.5t34 46t49 30t58 10.5q28 0 52 -9.5t41.5 -26.5t27.5 -39.5
t10 -47.5q0 -29 -12.5 -55t-33.5 -45.5t-48.5 -31t-57.5 -11.5q-28 0 -52.5 9.5t-42.5 26t-28 38.5t-10 48z" />
    <glyph glyph-name="semicolon" unicode=";" horiz-adv-x="547" 
d="M350 532q0 31 13 57.5t34 46t49 30t58 10.5q28 0 52 -9.5t41.5 -26.5t27.5 -39.5t10 -47.5q0 -29 -12.5 -55t-33.5 -45.5t-48.5 -31t-57.5 -11.5q-28 0 -52.5 9.5t-42.5 26t-28 38.5t-10 48zM279 102q4 -16 0.5 -33.5t-11.5 -32.5t-19 -27t-22 -17q-34 12 -53.5 42
t-19.5 68q0 31 12.5 57.5t34 46t49 30t57.5 10.5q33 0 58.5 -13t42.5 -34.5t24.5 -50.5t3.5 -60q-8 -60 -36 -108t-67 -83t-84 -56t-85 -27q-30 -5 -46.5 8.5t-19.5 33t8.5 38.5t38.5 24q30 6 61.5 22.5t56.5 42t38 58t6 70.5q-2 8 -7.5 11.5t-11 2t-9 -7.5t-0.5 -15z" />
    <glyph glyph-name="less" unicode="&#x3c;" horiz-adv-x="983" 
d="M416 606q43 -60 82.5 -111.5t73 -92.5t60 -71t42.5 -48q24 -26 21 -54t-22 -44.5t-47.5 -16t-56.5 30.5q-17 17 -43 48t-58 71t-69 86t-75 92q-16 19 -25.5 43t-7.5 48.5t17.5 47t49.5 37.5q68 40 137 82.5t131.5 81.5t115.5 71.5t89 53.5t61.5 14t36.5 -27t4 -46
t-36 -44q-34 -20 -81.5 -49t-103.5 -64.5t-118 -75t-125 -79.5q-9 11 -16.5 21.5t-10.5 15.5q-5 6 -11 6t-11 -3.5t-7 -10t3 -13.5z" />
    <glyph glyph-name="equal" unicode="=" horiz-adv-x="983" 
d="M1032 698q-31 -4 -81.5 -4.5t-111 1t-126 4t-126 3.5t-111 0.5t-81.5 -4.5q-13 -2 -26 0.5t-24 9.5t-18.5 19.5t-9.5 30.5q-3 34 18.5 53t47.5 23q31 4 81.5 4.5t111 -1t126 -4t126 -3.5t111 -0.5t81.5 4.5q13 1 26.5 -1t24.5 -9t18 -19.5t9 -30.5q1 -17 -4 -30.5
t-14.5 -23t-22 -15.5t-25.5 -7zM881 367q-31 -4 -81.5 -4.5t-111 0.5t-126 3.5t-126 4t-111 1t-81.5 -4.5q-13 -2 -26.5 0t-24.5 9t-18.5 19.5t-8.5 30.5q-3 34 18 53.5t47 22.5q31 4 81.5 4.5t111 -1t126 -4t126 -3.5t111 -0.5t81.5 4.5q13 1 26.5 -1t24.5 -9t18 -19t9 -31
q3 -34 -18 -53t-47 -22z" />
    <glyph glyph-name="greater" unicode="&#x3e;" horiz-adv-x="983" 
d="M750 614q-8 -5 -22.5 -12.5t-27.5 -15.5q-75 102 -133 167t-86 99q-24 26 -21 54t22 44.5t47.5 16t56.5 -30.5q17 -17 43 -48t58 -71t69 -86t75 -92q18 -13 27.5 -34.5t8.5 -45.5t-13.5 -47t-38.5 -39q-74 -45 -146.5 -90t-137 -84.5t-118 -71.5t-89.5 -53t-61.5 -14
t-36.5 27t-4 45.5t36 43.5q128 76 253.5 154.5t252.5 157.5q7 4 8 10.5t-2 11t-8.5 6.5t-11.5 -2z" />
    <glyph glyph-name="question" unicode="?" horiz-adv-x="682" 
d="M154 102q0 31 12.5 57.5t34 46t49 30t57.5 10.5q28 0 52 -10t41.5 -26.5t27.5 -39t10 -47.5q0 -29 -12.5 -55t-33 -45.5t-48 -31t-57.5 -11.5q-29 0 -53 9.5t-42 26t-28 38.5t-10 48zM444 397q13 57 45 85t66 40q-9 -36 -22 -71t-32.5 -63t-47 -45.5t-64.5 -18.5
q-27 0 -46.5 14.5t-30 37.5t-10.5 52t13 59q23 52 56.5 86.5t74 58.5t84.5 41t87.5 33.5t83.5 36t72 49t53.5 72t27.5 105.5q4 48 -12.5 83.5t-46.5 59t-68.5 35.5t-77.5 12q-43 0 -85.5 -15t-76 -44t-54.5 -72t-21 -100q0 -31 -21.5 -48.5t-47.5 -18t-47.5 16.5t-21.5 56
q0 87 35 155t91.5 114.5t127 70.5t142.5 24q61 0 123 -23t109.5 -68t73 -112t13.5 -155q-10 -77 -38 -130t-67.5 -90t-87 -61t-96.5 -43t-97 -36.5t-87 -40.5t-66.5 -55t-37.5 -81q-2 -9 2.5 -14t10.5 -5.5t11.5 2.5t7.5 11z" />
    <glyph glyph-name="at" unicode="@" horiz-adv-x="1307" 
d="M0 215q61 61 123 111q-2 -16 -2 -30v-30q0 -25 1.5 -47.5t6.5 -44.5l-45 -43q-16 -15 -40.5 -17t-43.5 17t-17 44t17 40zM567 131q-41 0 -72.5 19t-52 49.5t-28.5 68.5t-2 76q5 3 11.5 6t12.5 8q31 17 61 30t58 24q-7 -23 -10 -49t0 -48.5t13 -37.5t30 -15
q42 0 83.5 25.5t80.5 66t74.5 91t66 100.5t55 94.5t41.5 73.5q23 37 49 46t49 3q20 -5 32.5 -17t17 -27.5t2.5 -33.5t-11 -33q-38 -72 -74 -130.5l-64 -104t-45 -79t-17 -54.5q0 -25 20 -25q39 0 77 18.5t72 50t63 74.5t50 91.5t33 100t12 101.5q0 77 -21 132.5t-58 91
t-87 52.5t-108 17q-70 0 -149.5 -24.5t-158 -70t-150.5 -110t-127 -144.5t-87.5 -173t-32.5 -195q0 -81 30.5 -142.5t82.5 -102.5t121.5 -61.5t146.5 -20.5q81 0 169.5 19t174 54t164.5 85.5t142 113.5q15 16 40 17.5t44 -17.5q18 -19 16.5 -43.5t-16.5 -40.5
q-75 -75 -164 -132t-184.5 -96t-193.5 -59t-190 -20q-104 0 -196.5 29t-161.5 85t-109 138.5t-40 189.5q0 111 36 217t98 200.5t144.5 173.5t176.5 136t193.5 89t194.5 32q81 0 151 -24t122 -74.5t82 -128t30 -185.5q0 -66 -15.5 -134.5t-44.5 -132t-70.5 -119t-92.5 -96.5
t-111.5 -65t-127.5 -24q-29 0 -53.5 8.5t-42.5 26t-27 44t-7 62.5q1 9 -3 14t-9.5 5t-11 -4t-6.5 -13q-3 -18 -1 -35.5t5 -29.5q-43 -35 -90.5 -56.5t-104.5 -21.5zM778 713q-18 -22 -49 -38t-67 -29t-74 -25t-70 -25q32 46 71.5 85.5t82.5 69t87.5 46t86.5 16.5
q34 0 58 -20.5t24 -63.5q0 -65 -31 -108t-82 -73.5t-116.5 -53.5t-134.5 -47t-136 -54.5t-121 -75.5q3 44 12.5 83t24.5 77q39 28 84.5 49t92.5 38.5t92 32.5t83 30t66 31t41 36q4 7 3 13t-5.5 9.5t-10.5 3t-12 -6.5z" />
    <glyph glyph-name="A" unicode="A" horiz-adv-x="1337" 
d="M285 319q0 -78 23.5 -131.5t65.5 -83t99 -35t123.5 11t140 55.5t148.5 100q-2 -19 -3 -37t-1 -33q0 -23 2 -44.5t8 -47.5q-91 -61 -181.5 -98t-173.5 -46.5t-155 7.5t-125 63.5t-83 122.5t-30 184q0 105 28.5 216t79 220t120 214t151.5 198.5t173.5 172t186 135t189 88.5
t182.5 32q73 0 125 -18.5t85 -51t48 -75.5t15 -92q0 -48 -13 -99t-37 -101t-58.5 -96t-78.5 -83q-30 -26 -58.5 -23t-45 22t-15.5 48t31 55q28 24 54 55t46 65.5t32 69t12 66.5q0 25 -8.5 47t-27 38t-48.5 25t-72 9q-66 0 -142.5 -27t-156 -75t-159 -115.5t-152.5 -148
t-135.5 -172.5t-109 -189.5t-73 -198.5t-26.5 -199zM913 166q0 72 21 153t55.5 161.5t79.5 154t93 129.5t95 89.5t86 33.5q36 0 55 -23.5t19 -68.5q0 -39 -14.5 -85.5t-39.5 -97t-57.5 -102t-68.5 -100t-73 -93t-70 -79.5q7 56 33 124t62 134.5t77.5 123.5t79.5 91q7 7 8 14
t-3 12t-11 5.5t-15 -5.5q-43 -38 -91.5 -102.5t-89 -142.5t-67 -161.5t-26.5 -158.5q0 -45 14 -67t37.5 -25.5t53.5 7.5t61.5 31t62.5 45.5t57 51.5q16 16 41 17.5t43 -17.5q19 -19 17.5 -43.5t-17.5 -40.5q-57 -57 -117 -96t-116.5 -58.5t-106.5 -18.5t-87.5 24t-59 68.5
t-21.5 115.5z" />
    <glyph glyph-name="B" unicode="B" horiz-adv-x="1444" 
d="M606 1423q-3 27 6 47t25 31.5t36 14.5t38.5 -3.5t32.5 -23t18 -43.5q9 -57 9.5 -114t-5.5 -122q-48 -48 -93.5 -99.5t-88.5 -106.5q21 111 27 216.5t-5 202.5zM874 -27q33 32 71.5 54.5t79.5 38t84.5 27t86.5 22.5q-29 -51 -73 -93.5t-93.5 -73t-99.5 -48t-92 -17.5
q-36 0 -63 12t-42.5 32.5t-19 46.5t5.5 55q15 48 60 84.5t124 69t193 64t268 68.5q34 9 54.5 -6.5t26 -38.5t-7 -46.5t-44.5 -30.5q-118 -29 -205 -50t-150.5 -42t-108 -46t-77.5 -61q-6 -7 -6 -14t4 -10.5t10.5 -3.5t13.5 7zM918 625q69 -20 100 -84q-89 -1 -138 22.5
t-65.5 56.5t-4 67.5t46 55t84.5 20t112 -37.5q47 -29 81 -74t55.5 -99t31 -115.5t8.5 -123.5q-37 -9 -70.5 -18t-64.5 -19q5 62 -4.5 125.5t-32 117t-56.5 90.5t-77 46q-9 1 -14 -2.5t-6 -9t2 -11t12 -7.5zM307 84q34 103 82.5 210.5t103 208t110 187t102.5 146.5
q-25 -106 -56.5 -212.5t-68.5 -204.5t-78.5 -182t-86 -145t-91 -95t-93.5 -30q-46 3 -67 32.5t-21 76.5q0 34 17.5 95t50.5 140.5t80.5 173t107 193t129.5 199.5t149 192.5t165.5 172.5t178 139.5t187 93.5t193.5 34q101 0 169.5 -33.5t107.5 -90t49.5 -130.5t-6 -154.5
t-58 -162t-106.5 -153.5t-152 -128.5t-193 -87.5q-23 57 -59 105q81 23 148.5 65t120 95t89 114t55.5 120.5t19 114.5t-20.5 97t-63 67t-108.5 25q-88 0 -177.5 -37t-176.5 -101t-170 -150t-159.5 -185.5t-144 -206.5t-123.5 -212.5t-99 -204t-69 -181.5q-3 -9 0.5 -15
t10 -7.5t13 1t9.5 11.5z" />
    <glyph glyph-name="C" unicode="C" horiz-adv-x="1104" 
d="M1178 1583q73 0 124.5 -18.5t84.5 -51t48 -75.5t15 -92q0 -48 -13 -99t-37 -101t-58.5 -96t-77.5 -83q-30 -26 -59 -23t-45.5 22t-15 48t31.5 55q27 24 53 55t46 65.5t32 69t12 66.5q0 25 -8.5 47t-27 38t-48.5 25t-72 9q-89 0 -188 -43.5t-197 -118.5t-187 -176.5
t-157 -217.5t-108.5 -240.5t-40.5 -246.5q0 -107 28 -182t75.5 -122t110.5 -69t134 -22q61 0 125.5 15.5t126 43.5t118 66.5t101.5 83.5q15 16 40 17.5t44 -17.5q18 -19 16.5 -43.5t-16.5 -40.5q-124 -124 -268 -190t-306 -66q-95 0 -180 29.5t-150 92t-103 159.5t-38 233
q0 134 44 275t120 273.5t177.5 250t216.5 205.5t237.5 139t239.5 51z" />
    <glyph glyph-name="D" unicode="D" horiz-adv-x="1516" 
d="M825 1411q-79 0 -144 -25.5t-113 -68.5t-77.5 -100t-38 -121t6 -131t55.5 -129q27 -41 20.5 -72.5t-30 -45.5t-55 -8t-54.5 40q-54 78 -74 167.5t-10 178.5t48.5 170.5t103 144t153.5 100t199 37.5q165 0 294 -54t222 -144.5t150 -209t79 -247.5t9 -261t-60.5 -248.5
t-129.5 -210t-197.5 -146t-264.5 -56t-331 59.5q32 20 64 43t61 51q140 -39 252.5 -27.5t198.5 60.5t145 129t91 177.5t37.5 205.5t-15.5 213t-69 200.5t-122.5 168.5t-175.5 116t-228 43zM305 -16q-56 0 -92 20.5t-53 51.5t-15.5 67t20.5 67t54 51.5t86 20.5q31 0 57 -3
t49 -8t45.5 -12t47.5 -16q-15 -14 -38 -28t-49.5 -25t-55 -18t-54.5 -7q-8 0 -12.5 -5t-4.5 -11t4.5 -11t12.5 -5q69 0 134 33t127.5 89t122.5 130.5t118.5 158.5t116.5 172t115.5 171.5t115.5 157t117 128.5q22 -32 41 -66t35 -71q-59 -45 -113 -113.5t-108 -149.5
t-108.5 -169.5t-113 -174t-123 -162.5t-138 -135.5t-158 -93t-183.5 -34.5zM1468 1305q23 13 42.5 10.5t34.5 -14.5t23.5 -31t9.5 -38t-7 -36.5t-27 -26.5q-6 -3 -16.5 -8.5t-18.5 -11.5q-17 35 -36.5 67.5t-42.5 63.5z" />
    <glyph glyph-name="E" unicode="E" horiz-adv-x="1106" 
d="M1176 1454q-62 0 -117 -20.5t-100.5 -55.5t-80 -81.5t-54 -98t-22 -105t14.5 -102.5q-37 -2 -71 -7.5t-66 -14.5q-16 64 -10.5 134t31.5 138t70.5 130t107 108.5t141 74t172.5 27.5q72 0 124 -28t83 -73t41.5 -102t0.5 -115.5t-41 -112.5t-83 -93q-29 -23 -55.5 -18
t-41 23.5t-12.5 45.5t29 49q25 20 43 50t27 63t7 65.5t-17 59t-45 43t-76 16.5zM905 731q-78 25 -131 72q23 5 51 8t56.5 3t56 -2.5t51.5 -8.5q9 -2 14.5 1t7.5 8.5t-1.5 12t-12.5 9.5q-23 8 -51 11t-57 3q-121 0 -221.5 -36.5t-177 -95.5t-127.5 -135t-73 -155t-14 -155
t49.5 -135t118 -95.5t191.5 -36.5q61 0 124.5 15t124.5 43t117.5 66.5t104.5 86.5q15 16 40 17.5t44 -17.5q18 -19 16.5 -43.5t-16.5 -40.5q-56 -56 -119.5 -103t-134.5 -81.5t-151 -54t-169 -19.5q-140 0 -237 47t-153.5 124t-73.5 175t5 201t81 201t154 175t225 124
t294 47q75 0 122.5 -23.5t69 -57t18 -70t-29 -62.5t-73 -35.5t-113.5 12.5z" />
    <glyph glyph-name="F" unicode="F" horiz-adv-x="1448" 
d="M451 -125q-87 0 -149.5 31t-100.5 83t-51 119.5t0 141t52 147t104 137.5t157.5 113t212.5 73t268 18t324 -52q-22 -25 -40.5 -53.5t-33.5 -59.5q-173 42 -310 40t-241 -34t-176 -87t-114 -118.5t-55 -129t0.5 -118.5t53.5 -86.5t103 -33.5q97 0 175.5 46t144.5 124
t122 182t107 220q37 -5 75 -11.5t76 -15.5q-38 -88 -79.5 -172.5t-89.5 -159.5t-104 -138t-121.5 -109t-142.5 -71.5t-167 -25.5zM936 1501q65 -3 126 -14t117.5 -24.5t109.5 -27t102 -20.5q-48 -54 -86 -117q-48 9 -98 21t-98.5 23t-96 18.5t-90.5 7.5q-98 0 -180 -30
t-135 -87t-71 -138.5t13 -184.5q12 -41 -3 -68t-41 -36t-53.5 3.5t-39.5 51.5q-27 83 -24 163t30 150.5t76.5 129.5t117 100.5t149.5 62.5t175 16zM1743 1432q-69 -12 -119.5 -39.5t-91 -70t-74 -101t-67.5 -132t-72 -164t-88 -196.5q-40 9 -77.5 16.5t-72.5 12.5
q41 85 80 177.5t81 181.5t90 169t107 141t132 96.5t166 35.5q69 0 104 -28.5t35 -72.5q0 -32 -20 -65.5t-63 -62t-109.5 -46.5t-159.5 -18q45 63 104.5 94.5t118.5 42.5q8 1 11.5 6.5t3 11t-5.5 9t-13 2.5zM1466 756q54 0 79.5 -28t25.5 -69q0 -26 -10.5 -52t-33.5 -46.5
t-59 -33.5t-86 -13q16 29 41.5 54.5t51.5 39.5q7 4 8.5 9.5t-1 10t-8 6.5t-12.5 -1q-40 -18 -69 -50.5t-49.5 -74t-32 -88.5t-15.5 -94q-4 -42 -27.5 -60.5t-49.5 -16t-46 23.5t-16 59q7 74 31.5 149.5t64 136.5t93.5 99.5t120 38.5z" />
    <glyph glyph-name="G" unicode="G" horiz-adv-x="1233" 
d="M1317 131q-26 -26 -58 -54t-67.5 -56t-71.5 -54.5t-69 -48.5q26 51 48 104t48 109q25 22 47 44.5t39 39.5t41 18t43 -18q18 -19 16.5 -43.5t-16.5 -40.5zM1159 1444q-80 0 -174.5 -39.5t-190.5 -108.5t-186 -163t-160.5 -203.5t-114 -230t-46.5 -242.5q-2 -96 21 -159
t64 -100t96.5 -52t117.5 -15q67 0 139.5 24.5t141 73.5t128.5 121.5t103 167.5q18 40 44.5 50t49.5 5q21 -4 33.5 -15.5t17.5 -27t4 -33t-8 -32.5q-38 -91 -63.5 -156t-43.5 -113t-31.5 -84.5t-27.5 -70.5q-42 -100 -84.5 -173.5t-84 -124.5t-81 -83t-75 -49.5t-66 -24
t-53.5 -6.5q-59 0 -93 30.5t-34 86.5q0 39 19.5 68t52 52.5t73.5 43.5t84.5 40.5t85.5 44t76 54.5q-48 -99 -116.5 -173t-153.5 -103q-10 -4 -13.5 -11t-2 -13.5t8 -10t15.5 -0.5q56 19 102 53t83 78.5t67 97t54 108t43 112t36 108.5q2 7 -1.5 12.5t-9 7t-11.5 -1t-9 -10.5
q-8 -23 -15 -44q-6 -18 -12.5 -38t-11.5 -33q-41 -35 -88 -61.5t-96 -45.5t-97.5 -28.5t-93.5 -9.5q-89 0 -167.5 25t-136.5 79t-91 139.5t-31 206.5q3 134 50 270.5t124.5 263.5t180 237t216 192t231.5 129t227 47q73 0 124.5 -18.5t84.5 -51t48 -75.5t15 -92
q0 -48 -13 -99t-37 -101t-58.5 -96t-77.5 -83q-30 -26 -59 -23t-45.5 22t-15.5 48t31 55q28 24 54 55t46 65.5t32 69t12 66.5q0 25 -8.5 47t-27 38t-48.5 25t-72 9z" />
    <glyph glyph-name="H" unicode="H" horiz-adv-x="1550" 
d="M1751 1108q6 7 5.5 15t-5 12t-11.5 3t-14 -10q-110 -144 -187 -280.5t-125 -254.5t-69.5 -213t-21.5 -157q0 -44 11 -68t29 -32t41.5 -3t48.5 19t50 34t47 42q16 16 41 17.5t43 -17.5q19 -19 17.5 -43.5t-17.5 -40.5q-45 -45 -83 -73t-72 -43t-66.5 -20t-66.5 -5
q-39 0 -69.5 14.5t-51.5 41t-32 62.5t-11 80q0 61 17.5 141.5t48 170.5t71.5 184t88 183t98 167.5t101 137.5t96.5 93.5t85.5 34.5q37 0 60.5 -23.5t23.5 -68.5q0 -40 -17 -84t-44.5 -88t-63.5 -86t-74.5 -79t-76.5 -66.5t-70 -48.5q27 53 53 97.5t52.5 86t55.5 82.5t64 86z
M406 571q85 47 168 77t164.5 49.5t161 32t156 24t150.5 24.5t144 35l-68 -143q-106 -23 -212 -38t-211.5 -37t-210 -58t-206.5 -101q-51 -33 -84 -73.5t-48.5 -82t-14.5 -81t16.5 -70.5t45 -49.5t71.5 -18.5q70 0 134 35t123 101t113 161t105 215q38 8 76 13.5t76 11.5
q-59 -149 -126.5 -273t-146 -213t-170 -138.5t-198.5 -49.5q-83 0 -142 33.5t-91.5 88.5t-36.5 124.5t23 141.5t86 139.5t153 119.5zM1200 1192q-11 -99 -32 -199.5t-50 -197.5q-35 -5 -71.5 -10t-71.5 -11q31 99 54.5 207.5t35.5 220.5q10 94 -10 152t-58 83.5t-87 21
t-97 -34t-88 -82t-59 -123.5q-8 -32 -32.5 -45t-48.5 -8.5t-39.5 27.5t-4.5 64q20 77 61 137.5t94.5 101.5t114.5 62.5t120.5 21t113 -23.5t91.5 -70.5t56.5 -120.5t7.5 -173z" />
    <glyph glyph-name="I" unicode="I" horiz-adv-x="1223" 
d="M1448 1403q0 -84 -15 -189.5t-45 -222t-75.5 -237t-106.5 -234.5q-32 14 -64 25t-63 22q54 94 96 197.5t72 208.5t47 208t21 197q1 15 -4.5 24.5t-15 10t-22 -9.5t-24.5 -33q-31 -57 -51.5 -123.5t-32.5 -136.5t-17 -141.5t-5 -139.5q0 -39 -20.5 -60t-45 -21.5t-45 20.5
t-20.5 66q0 164 25.5 301.5t69 237t100.5 155t120 55.5q66 0 93.5 -46.5t27.5 -133.5zM969 397q32 -8 66.5 -17t68.5 -22q-60 -84 -131 -155t-152.5 -123t-174.5 -81.5t-197 -29.5q-82 0 -141.5 21.5t-98.5 58.5t-57.5 85.5t-18.5 101.5q0 69 36.5 133.5t105 114.5t167.5 80
t224 30q73 0 142 -5t138 -18.5t140 -37t149 -60.5q33 -15 41.5 -42t-1.5 -49.5t-34.5 -33.5t-58.5 6q-65 33 -134 54t-136 33.5t-129.5 17t-114.5 4.5q-89 0 -161.5 -17t-124 -46.5t-80 -69.5t-28.5 -86q0 -62 42.5 -101t136.5 -39q76 0 146.5 22t135.5 61.5t123.5 93
t110.5 116.5z" />
    <glyph glyph-name="J" unicode="J" horiz-adv-x="1339" 
d="M467 -145q112 0 228 68.5t225 195.5q65 -2 109 0.5t75 5.5q-72 -93 -149.5 -169.5t-159.5 -130.5t-167.5 -84t-172.5 -30q-79 0 -139 21t-99.5 57t-58.5 84.5t-17 103.5q3 59 25 106.5t57 83.5t81.5 62.5t97.5 43.5t104.5 25t103.5 9q58 0 110.5 -3.5t102.5 -8t99.5 -8
t102.5 -3t110.5 7.5t124.5 23q34 9 54.5 -6t25.5 -38t-7.5 -46.5t-44.5 -31.5q-76 -20 -140 -29.5t-120.5 -12t-107 0t-99.5 6.5l-98 8t-102 4q-60 0 -119 -11.5t-106 -34.5t-77 -58t-32 -82q-3 -59 40 -94t140 -35zM1550 1374q0 -126 -21 -258.5t-59.5 -264.5t-93.5 -260
t-123 -245q-54 -14 -98 -20.5t-86 -8.5q75 117 139 249.5t110.5 270.5t72.5 275.5t26 265.5q0 15 -5.5 24.5t-15 10t-21 -9.5t-23.5 -33q-31 -56 -53 -131.5t-36.5 -159t-21 -168.5t-6.5 -159q0 -37 -20 -56.5t-44.5 -20.5t-45 17t-21.5 56q-2 94 6.5 192.5t27 191t46 175
t63 144t79 97t93.5 35.5q65 0 98 -50t33 -159z" />
    <glyph glyph-name="K" unicode="K" horiz-adv-x="1612" 
d="M1219 522q32 20 65 14t50.5 -30.5t11.5 -63.5t-52 -86q-52 -52 -75 -109.5t-19.5 -105t33 -77.5t82 -28t127.5 43t170 136q15 16 40 17.5t44 -17.5q18 -19 16.5 -43.5t-16.5 -40.5q-59 -59 -113 -101t-104.5 -68.5t-97 -39t-91.5 -12.5q-63 0 -109 23.5t-73.5 62
t-37.5 88.5t-1 103.5t37 107t76 98.5q12 12 16.5 22.5t1 15t-15.5 1t-33 -19.5q-34 -26 -62 -21t-42 25t-10 47.5t36 48.5q92 61 170 136.5t145 158.5t124.5 168.5t109 165t98.5 150t92.5 122.5t91.5 82.5t95 30.5q22 0 41.5 -8t33 -22.5t20.5 -36t5 -48.5q-4 -47 -30 -101
t-67 -110t-93.5 -111t-107.5 -105t-109.5 -92.5t-100.5 -72.5q30 38 62.5 86.5t66 100l67 103t65.5 96.5t62.5 80t57.5 54q8 6 9.5 12.5t-1.5 11.5t-10 6t-16 -5q-41 -28 -86 -85.5t-94 -131t-102 -156.5t-111 -162t-120 -148t-128 -114q-29 8 -57.5 3.5t-51.5 -21.5
q-7 -5 -8 -11.5t2 -11t9 -6.5t12 2zM1069 637q-61 -169 -133 -302t-155 -225.5t-178 -141t-202 -48.5q-78 0 -133.5 32t-86.5 84t-35.5 119t18.5 137t75 137.5t136 121.5q81 52 165.5 89t171.5 65t175.5 49.5t178 43t178 46t175.5 57.5q-29 -40 -66 -87t-83 -87
q-98 -34 -194 -56t-194 -48.5t-201.5 -66t-217.5 -107.5q-56 -34 -92.5 -76t-56 -84.5t-21.5 -83.5t11 -72.5t40 -50.5t68 -19q148 0 270 134t236 401q38 11 75.5 20.5t75.5 18.5zM666 1219q-8 -32 -32.5 -45t-48.5 -8.5t-39.5 27.5t-4.5 64q20 77 61.5 137.5t95 101.5
t114.5 62.5t120.5 21t112.5 -23.5t91 -70.5t56.5 -120.5t7.5 -173q-9 -85 -26.5 -173t-40.5 -173q-35 -9 -69 -17t-77 -20q26 91 46.5 190.5t31.5 202.5q10 94 -11 152t-59.5 83.5t-88.5 21.5t-97.5 -33.5t-86.5 -82.5t-56 -124z" />
    <glyph glyph-name="L" unicode="L" horiz-adv-x="1145" 
d="M1602 1346q0 -48 -13 -99t-37 -101t-58.5 -96t-78.5 -83q-30 -26 -59 -23t-45.5 22t-15 48t31.5 55q28 24 53.5 55t45.5 65.5t32 69t12 66.5q0 25 -6.5 50t-24 42.5t-47.5 25.5t-77 1q-67 -11 -118.5 -59t-92.5 -121.5t-74.5 -167t-65.5 -195.5t-65.5 -207.5t-74 -203.5
t-91 -182t-117.5 -144q-20 15 -50.5 39.5t-59.5 46.5q64 51 111.5 132.5t86.5 180.5t72 208.5t68 218t74.5 209t90.5 180.5t117.5 133t155.5 67q64 10 122.5 1t102 -37.5t69.5 -77.5t26 -119zM823 -84q-67 0 -123 19t-103.5 47.5t-88.5 62t-78 63t-72 49t-71 21.5
q-10 1 -16 -4t-6.5 -11t4 -11.5t14.5 -6.5q18 -2 38.5 -9.5t40.5 -19.5t39 -27t35 -30q-26 -6 -52.5 -8t-57.5 -2q-61 0 -101.5 18t-60.5 45t-20.5 59t18 59t55 45t90.5 18q49 0 91.5 -18.5t82.5 -46.5t79.5 -61t81.5 -61t89 -46.5t103 -18.5q31 0 65.5 9t73 29.5t81.5 54
t91 81.5q15 16 40 17.5t44 -17.5q18 -19 16.5 -43.5t-16.5 -40.5q-61 -61 -116 -102t-105.5 -66t-96.5 -36t-88 -11z" />
    <glyph glyph-name="M" unicode="M" horiz-adv-x="1671" 
d="M592 1567q88 0 148 -33.5t95 -92.5t47 -139t5 -172q-78 -52 -154 -122q19 90 23.5 169t-10.5 138t-51.5 93t-98.5 34q-33 0 -67.5 -13t-66.5 -36.5t-59.5 -56t-46.5 -72.5q-15 -33 -42 -42t-49 1t-32.5 36t7.5 64q27 58 66 103t85.5 76.5t98 48t102.5 16.5zM879 43
q37 85 82.5 171t97 169.5t108.5 161.5t119 147q-32 -102 -78 -209.5t-97.5 -206t-106 -180t-103.5 -131.5q-35 -35 -73.5 -45.5t-67.5 3.5t-41 53t6 102q31 104 88.5 218t132.5 223.5t162.5 208t177.5 173t178 118.5t164 44q81 0 123.5 -45.5t42.5 -130.5q0 -71 -28 -138.5
t-70.5 -132t-92.5 -126t-93.5 -119t-75 -111.5t-35.5 -104q-3 -35 17.5 -51.5t49.5 -16.5q35 0 88.5 32t116.5 95q16 16 41 17.5t43 -17.5q19 -19 17.5 -43.5t-17.5 -40.5q-89 -89 -163 -130.5t-152 -41.5q-35 0 -68.5 11t-59.5 34t-41.5 58.5t-15.5 84.5q0 66 29.5 132.5
t73.5 131.5t95 127t95 119.5t73.5 109t29.5 95.5q0 32 -15 49t-41 17q-51 0 -106 -27t-111.5 -73.5t-112.5 -108.5t-108.5 -132t-100.5 -144t-88 -144.5t-71 -134t-49 -111.5q-3 -8 0 -13.5t8.5 -7t12 0.5t10.5 10zM338 84q18 61 48.5 128t69 137t84 140t94.5 136t100 126.5
t100 110.5q-35 -106 -82 -216t-100 -213.5t-110 -194.5t-113 -159t-108 -107.5t-94 -39.5q-37 0 -60.5 23t-23.5 68q0 47 27 122t74 166.5t112 192.5t140.5 199.5t158.5 188t167.5 157.5t167.5 108.5t157 40.5q56 0 94 -16t60.5 -45.5t30.5 -70.5t5 -91q-37 -26 -74.5 -57
t-72.5 -66q2 15 6.5 37t7 46t1.5 47.5t-8.5 42.5t-23.5 30.5t-43 11.5q-54 0 -115.5 -31t-126.5 -84.5t-130 -124t-126 -149.5t-115 -162t-97 -161t-72.5 -146t-40.5 -117q-2 -8 2 -13.5t9.5 -7t11.5 1.5t8 11z" />
    <glyph glyph-name="N" unicode="N" horiz-adv-x="1229" 
d="M584 1442q-33 0 -67.5 -13t-67 -36.5t-60 -56t-45.5 -72.5q-15 -33 -42 -42t-49.5 1t-33 36t7.5 64q27 58 66 103t85.5 76.5t98 48t103.5 16.5q94 0 156 -35.5t96 -97.5t43.5 -145.5t-1.5 -180.5q-38 -26 -77 -55.5t-76 -61.5q21 93 26 175t-9.5 143.5t-52 97
t-101.5 35.5zM301 92q-2 -8 1.5 -13.5t9.5 -7t12 1.5t8 11q25 85 75.5 184.5t116.5 199t142 192.5t153 165q-39 -106 -85 -212.5t-96 -204t-103 -181.5t-105.5 -146.5t-104 -98t-98.5 -35.5q-37 0 -60.5 22.5t-23.5 67.5q0 42 25.5 114.5t71.5 162t110 190t141.5 199
t165.5 188.5t182 159t192 109.5t194 40.5q56 0 92.5 -15.5t58.5 -42.5t30.5 -64t8.5 -81q0 -68 -34 -141.5t-85 -149.5t-110.5 -151.5t-110.5 -146.5t-85 -135t-34 -117q0 -35 19.5 -51.5t48.5 -16.5q35 0 88.5 32t116.5 95q15 16 40 17.5t44 -17.5q18 -19 16.5 -43.5
t-16.5 -40.5q-45 -45 -85 -77.5t-78.5 -53.5t-76 -31t-76.5 -10q-35 0 -68.5 11t-59 34t-41 58.5t-15.5 84.5q0 71 34.5 146t87 151t113 150.5t113 144.5t87 133.5t34.5 116.5q0 38 -16.5 59t-57.5 21q-83 0 -175.5 -48t-185.5 -128t-181 -182t-161 -211t-126.5 -215
t-77.5 -193z" />
    <glyph glyph-name="O" unicode="O" horiz-adv-x="1444" 
d="M639 -98q-94 0 -183 27.5t-158.5 91.5t-112 167.5t-42.5 255.5q0 133 39.5 269t110 262.5t167.5 237t210.5 192.5t240 129t256.5 47q56 0 112 -9.5t112 -29.5q31 -12 41 -37.5t1 -49t-34 -37t-64 -1.5q-81 25 -166 25q-114 0 -224 -44t-208 -118.5t-181 -173.5t-143 -209
t-94 -225t-34 -221q0 -114 31.5 -194t82.5 -131t116 -74t132 -23q45 0 92.5 9.5t93 27t88.5 43t80 57.5q41 -12 84 -18.5t86 -8.5q-57 -54 -120.5 -98t-131 -75t-138 -47.5t-142.5 -16.5zM1393 193q-98 -24 -198 -23t-191 28t-166.5 80t-123.5 133t-63.5 187t13.5 242
q19 91 66.5 168t111 134t138 91.5t148 42t141 -14.5t117 -79.5t75.5 -152.5t18 -232q-3 -44 -15.5 -103.5t-33.5 -122.5t-49.5 -125t-63.5 -110q-26 -5 -51.5 -6.5t-48.5 -1.5h-30t-28 2q50 64 84 128.5t56 125t33 115.5t14 102q6 97 -11 163.5t-49.5 106.5t-76 55t-92 9
t-98 -31.5t-92 -66t-75.5 -94.5t-49 -118q-26 -104 -16 -187.5t46.5 -146.5t95 -105.5t129 -64.5t149.5 -23.5t157 17.5q34 9 54.5 -6.5t26 -38.5t-7 -46.5t-44.5 -30.5z" />
    <glyph glyph-name="P" unicode="P" horiz-adv-x="1401" 
d="M621 1409q-5 32 4 55.5t25 38t36.5 18t39.5 -4t33.5 -28t18.5 -54.5q12 -94 0 -217q-48 -48 -93 -100t-87 -107q20 111 27.5 213t-4.5 186zM940 440q-63 0 -102.5 17t-58 43t-17.5 56t19 56t51.5 43t80.5 17q59 0 128 -24t136.5 -56.5t129 -66t106.5 -52.5
q22 -10 33.5 -25t13 -31.5t-5 -32t-20 -25.5t-32.5 -12.5t-42 7.5q-65 28 -123 59.5t-114 58.5t-111 45t-113 18q-9 0 -14 -5t-5 -10.5t4 -10.5t13 -5q48 0 100.5 -13t89.5 -34q-16 -4 -36 -7t-40.5 -5.5t-39 -3.5t-31.5 -1zM1602 1174q0 42 -10 78t-33 63t-60.5 42
t-93.5 15q-89 0 -179 -37t-177.5 -102t-171 -152.5t-159.5 -188t-144 -209t-124 -216t-98.5 -209t-68.5 -186.5q-3 -10 0.5 -16t9.5 -7.5t12.5 1.5t9.5 11q25 77 64 172t89.5 196t112 203.5t130.5 194.5q-21 -96 -51 -198.5t-66 -200.5t-77.5 -185.5t-86 -154t-90.5 -105
t-92 -38.5q-50 0 -77.5 31t-27.5 77q0 32 17.5 93t49.5 141t79 175t106 196t129 203.5t149 197t166.5 176.5t181 143t192 96t200.5 35q86 0 149 -25t104.5 -67.5t62 -100.5t20.5 -124q0 -95 -32 -189t-87.5 -179t-131 -156t-163.5 -121q-29 17 -61.5 33.5t-69.5 33.5
q89 42 162.5 104.5t126 137t81 156.5t28.5 162z" />
    <glyph glyph-name="Q" unicode="Q" horiz-adv-x="1294" 
d="M1432 1034q0 114 -31.5 194t-83 130.5t-116.5 74t-132 23.5q-113 0 -209 -39t-173.5 -103t-134.5 -146t-92 -167.5t-46.5 -167.5t2.5 -146t55 -103t111 -39q41 0 84.5 15t84.5 41.5t76.5 63t61.5 80.5q13 21 29.5 31t33 10t31 -8.5t23 -22.5t8 -33t-12.5 -40
q-36 -65 -85 -116t-105.5 -86t-117 -53.5t-118.5 -18.5q-86 0 -146.5 33t-97.5 89.5t-51 131.5t-6 159.5t37.5 174t78.5 174t117.5 159.5t155 131.5t190.5 89.5t224 33q94 0 183 -28t158.5 -91.5t112 -167.5t42.5 -256q0 -99 -27.5 -197.5t-78 -191.5t-122.5 -177.5
t-161 -155.5t-192.5 -126.5t-217.5 -89.5q-35 23 -68.5 47t-64.5 50q89 19 182 60t181 100.5t166 134.5t136 161.5t92 182.5t34 196zM258 178q-8 0 -12.5 -5t-4.5 -10.5t4.5 -10.5t12.5 -5q39 0 74.5 -9t67 -22.5t57.5 -30.5t47 -32q-47 -2 -96.5 0.5t-94.5 7.5
q-60 6 -98.5 28t-55.5 51t-14 60.5t25.5 56.5t63 39t98.5 7q68 -8 125 -32.5t107.5 -57t96 -68t91 -65t92 -49t98.5 -19.5q33 0 67.5 7t75.5 28.5t92 61.5t117 106q16 16 41 17.5t43 -17.5q19 -19 17.5 -43.5t-17.5 -40.5q-77 -77 -140 -124.5t-117 -74t-100.5 -36
t-90.5 -9.5q-70 0 -128 21.5t-110 54t-100.5 70t-100 70t-108.5 54t-125 21.5z" />
    <glyph glyph-name="R" unicode="R" horiz-adv-x="1370" 
d="M887 600q8 -5 16.5 -12.5t13.5 -19t6.5 -27t-3.5 -35.5q-28 6 -51 17.5t-35 25.5q-30 32 -38.5 66t0 63t31.5 49.5t54.5 25.5t69.5 -9.5t77 -55.5q37 -38 49 -81.5t8.5 -90.5t-17.5 -96t-30 -97t-28.5 -94.5t-12.5 -87.5q0 -67 33 -89t86 -8.5t119.5 58.5t134.5 113
q16 16 41 17.5t43 -17.5q19 -19 17.5 -43.5t-17.5 -40.5q-119 -119 -222 -170t-183 -51q-46 0 -83 15.5t-62.5 43t-39.5 65.5t-14 83q0 51 14 104t31.5 104t34.5 98.5t22.5 87t-5.5 69.5t-48 47q-7 3 -12.5 0.5t-7.5 -7.5t-0.5 -10.5t8.5 -9.5zM606 1423q-3 27 6 47t25 31.5
t36 14.5t38.5 -3.5t32.5 -23t18 -43.5q9 -57 9.5 -114t-5.5 -122q-48 -48 -93.5 -99.5t-88.5 -106.5q21 111 27 216.5t-5 202.5zM1393 1372q-88 0 -177.5 -37t-176.5 -101t-170 -150t-159.5 -185.5t-144 -206.5t-123.5 -212.5t-99 -204t-69 -181.5q-3 -9 0.5 -15t10 -7.5
t13 1t9.5 11.5q34 103 82.5 210.5t103 208t110 187t102.5 146.5q-25 -106 -56.5 -212.5t-68.5 -204.5t-78.5 -182t-86 -145t-91 -95t-93.5 -30q-46 3 -67 32.5t-21 76.5q0 34 17.5 95t50.5 140.5t80.5 173t107 193t129.5 199.5t149 192.5t165.5 172.5t178 139.5t187 93.5
t193.5 34q108 0 179.5 -38t109.5 -101.5t44 -145.5t-17.5 -170t-75 -175.5t-128 -162t-177 -129.5t-222.5 -77q5 31 0.5 64t-16.5 61q88 17 162.5 58t133.5 96t101.5 119.5t66 129.5t26.5 125t-17 106.5t-64 74.5t-114 28z" />
    <glyph glyph-name="S" unicode="S" horiz-adv-x="856" 
d="M287 -27q33 32 71 54.5t79.5 38t84.5 27t86 22.5q-29 -51 -73 -93.5t-93.5 -73t-99.5 -48t-92 -17.5q-36 0 -62.5 12t-42.5 32.5t-19.5 46.5t5.5 55q15 48 60.5 84.5t124 69t193 64t267.5 68.5q34 9 54.5 -6.5t26 -38.5t-7 -46.5t-44.5 -30.5q-117 -29 -204 -50t-151 -42
t-108.5 -46t-77.5 -61q-6 -7 -6 -14t4 -10.5t11 -3.5t14 7zM1010 1444q-49 0 -103 -15t-107 -43t-102.5 -66.5t-89.5 -85t-68 -100t-38 -110.5q-11 -64 -6 -125t20 -120.5t36 -117t41.5 -115t36.5 -114.5t21 -115q-35 -9 -68.5 -18t-62.5 -18q-5 56 -22 114.5t-38 119.5
t-43.5 123.5t-39 126.5t-23 129t3.5 130q12 80 47.5 153t86.5 135t115 112t134 85.5t142 54.5t141 19q73 0 124.5 -18.5t84.5 -51t48 -75.5t15 -92q0 -48 -12.5 -99t-36.5 -101t-58.5 -96t-78.5 -83q-30 -26 -59 -23t-45.5 22t-15 48t31.5 55q28 24 53.5 55t45.5 65.5t32 69
t12 66.5q0 51 -35.5 85t-119.5 34z" />
    <glyph glyph-name="T" unicode="T" horiz-adv-x="1184" 
d="M598 928q8 -27 3.5 -48.5t-17 -35.5t-30.5 -20t-35.5 -2.5t-33.5 17.5t-24 40q-27 83 -24 163t30 150.5t76.5 129.5t117 100.5t149.5 62.5t175 16q65 -3 126 -14t117.5 -24.5t109.5 -27t102 -20.5q-48 -54 -86 -117q-48 9 -98 21t-98.5 23t-96 18.5t-90.5 7.5
q-98 0 -179.5 -30t-134.5 -87t-71 -138.5t12 -184.5zM834 569q-32 3 -58 4.5t-57 1.5q-96 0 -172 -21.5t-131 -57t-88.5 -80.5t-46 -92.5t-3.5 -92.5t39.5 -80.5t83 -57t127.5 -21.5q95 0 171.5 41.5t140 113t117 166.5t102 202t94 220.5t94.5 220.5t103 202t119 166.5
t143 113t174 41.5q69 0 104 -28.5t35 -72.5q0 -32 -20 -65.5t-63 -62t-109.5 -46.5t-159.5 -18q45 63 101 99t116 36q10 0 15 5t5 10.5t-4.5 10.5t-13.5 5q-75 3 -135.5 -37t-112 -111t-96.5 -166t-89.5 -203t-91 -222t-99.5 -222t-116 -204.5t-141 -169t-174 -114.5
t-215 -42q-107 0 -184.5 33t-124.5 87t-65 122.5t-6 140.5t52.5 140.5t110.5 122.5t168 87t225 33q42 0 76 -1.5t74 -5.5q37 -2 53 -24.5t13.5 -47t-23 -44t-57.5 -15.5z" />
    <glyph glyph-name="U" unicode="U" horiz-adv-x="1159" 
d="M399 68q84 0 168.5 44.5t165.5 116.5q-5 -37 -6.5 -75t6.5 -76q-88 -65 -179 -104.5t-187 -39.5q-47 0 -88 14t-71 42.5t-47.5 72.5t-17.5 103q0 67 27 128.5t71.5 121t101.5 117.5t116.5 118.5t116.5 124.5t101.5 135t71.5 150t27 170q0 77 -23 124.5t-59 68.5t-81 18.5
t-89 -24.5t-82 -61.5t-61 -92.5q-9 -19 -24 -29t-31.5 -12t-32 4t-26 18.5t-12.5 32t9 45.5q35 83 96.5 138t133 81t146 21t134.5 -42t98.5 -107t38.5 -175q0 -97 -27 -183.5t-71 -164t-100.5 -147t-115.5 -133t-115.5 -121.5t-100.5 -112.5t-71 -106.5t-27 -103
q0 -45 26.5 -72.5t89.5 -27.5zM1243 973q-34 -31 -73 -85t-78 -122.5t-74.5 -147t-62.5 -157t-43.5 -153.5t-16.5 -136q0 -51 11.5 -67.5t33.5 -16.5q17 0 39 6t49.5 20t60 38.5t70.5 62.5q16 16 41 17.5t43 -17.5q19 -19 17.5 -43.5t-17.5 -40.5q-49 -49 -94.5 -82t-87 -53
t-78.5 -28.5t-68 -8.5q-71 0 -114 48.5t-43 139.5q0 66 17.5 147t46.5 168.5t68 176t81 169.5t85.5 149t82.5 114q43 51 83 69t69 6.5t42.5 -51.5t1.5 -104q-7 -39 -27.5 -94t-50.5 -118.5t-68 -132t-79.5 -134.5t-84.5 -126t-83 -107q12 80 44.5 176t77.5 189.5t97.5 174.5
t102.5 131q6 6 6 13t-3.5 11t-10 4.5t-13.5 -5.5z" />
    <glyph glyph-name="V" unicode="V" horiz-adv-x="1104" 
d="M1063 354q-57 28 -93 74t-54 102.5t-20.5 119t7.5 123.5t30.5 116.5t48 97.5t60 67t66.5 25q35 0 56.5 -16t33 -41.5t15.5 -59t4 -67.5q0 -38 -8.5 -84.5t-23.5 -96t-36 -98.5t-47 -92q-31 18 -42 63t-6.5 102t22 118t44.5 111q4 7 1.5 13t-7 9t-10.5 1t-10 -9
q-29 -57 -49.5 -125.5t-23 -134t19 -119t75.5 -80.5q32 -16 39.5 -42t-3 -48t-34.5 -33t-55 4zM399 68q66 0 135.5 30.5t137.5 82.5t130.5 120t115.5 143q17 -27 38.5 -51.5t49.5 -44.5q-64 -91 -139.5 -167t-156 -131t-162.5 -85.5t-159 -30.5q-55 0 -100.5 14.5t-77.5 44
t-50 74t-18 103.5q0 67 26 128.5t68.5 120.5t97 117t111 118t111 123.5t97 134t68.5 149.5t26 170q0 77 -23 124.5t-59.5 68.5t-81 18.5t-88.5 -24.5t-82.5 -61.5t-61.5 -92.5q-13 -29 -39 -37.5t-48.5 0t-33.5 33.5t5 63q35 83 96.5 138t133 81t146 21t134.5 -42t98.5 -107
t38.5 -175q0 -97 -26 -183.5t-68 -163.5t-96 -146t-110 -132t-110 -120.5t-96 -111.5t-68 -105.5t-26 -102.5q0 -21 6.5 -40.5t20.5 -34t36 -23t53 -8.5z" />
    <glyph glyph-name="W" unicode="W" horiz-adv-x="1501" 
d="M748 1231q0 77 -23 124.5t-59.5 68.5t-81 18.5t-88.5 -24.5t-82.5 -61.5t-61.5 -92.5q-13 -29 -39 -37.5t-48.5 0t-33.5 33.5t5 63q35 83 96.5 138t133 81t146 21t134.5 -42t98.5 -107t38.5 -175q0 -97 -26 -183.5t-68 -163.5t-96 -146t-110 -132t-110 -120.5t-96 -111.5
t-68 -105.5t-26 -102.5q0 -21 6.5 -40.5t20.5 -34t36 -23t53 -8.5q60 0 116.5 18.5t109.5 52.5q9 -69 37 -123q-66 -37 -134 -59.5t-139 -22.5q-55 0 -100.5 14.5t-77.5 44t-50 74t-18 103.5q0 67 26 128.5t68.5 120.5t97 117t111 118t111 123.5t97 134t68.5 149.5t26 170z
M1460 354q-57 27 -96 71.5t-62 99t-31.5 115.5t-4.5 120.5t19.5 114t39.5 96t56 66t69 24.5q35 0 56.5 -16t33 -41.5t15.5 -59t4 -67.5q0 -39 -5 -83t-13 -90.5t-18.5 -93.5t-21.5 -92q-35 25 -54.5 69t-24 96.5t5.5 109t34 106.5q4 8 2 14t-7 8.5t-11 1t-10 -9.5
q-29 -57 -41 -122.5t-3.5 -127t38 -112.5t83.5 -78q32 -16 39.5 -42t-3 -48t-34.5 -33t-55 4zM825 145q-14 28 -15 71.5t13 92.5q57 73 97.5 143.5t72.5 147.5q18 43 21.5 71t-6 35.5t-30.5 -9t-52 -62.5q-43 -64 -75 -132.5t-50.5 -133.5t-23 -123t8.5 -101t43.5 -68.5
t81.5 -25.5q61 0 119 30t110.5 82t97 122t79.5 151q20 -29 45 -53t57 -43q-41 -86 -94.5 -162.5t-118 -133.5t-139.5 -90.5t-158 -33.5q-79 0 -130.5 27t-81 74t-38.5 109t-2.5 132.5t27.5 144t51 144t68 132.5t78.5 109t82.5 74t80 27q29 0 49.5 -11t33 -30t18.5 -45.5
t6 -56.5q0 -69 -25.5 -146t-69.5 -156.5t-103.5 -156.5t-127.5 -146z" />
    <glyph glyph-name="X" unicode="X" horiz-adv-x="1405" 
d="M143 162q0 96 38.5 170t103.5 130t151.5 96.5t182 69.5t195 48t190.5 33q-19 -35 -34.5 -72t-29.5 -72q-65 -9 -139 -24.5t-146.5 -38.5t-139 -53.5t-117.5 -70t-81 -89t-30 -109.5q0 -29 9 -55t27.5 -45.5t46 -31t64.5 -11.5q76 0 141 33.5t122 92t109 139t103 175.5
q-21 -71 -34.5 -142.5t-10.5 -158.5q-37 -54 -85.5 -103t-105 -86t-118.5 -59t-125 -22q-71 0 -124.5 20.5t-89.5 56t-54.5 82t-18.5 97.5zM1253 754q34 15 69 35t68 43.5t62.5 50t52.5 55.5q15 18 21 34.5t0.5 25.5t-23 6.5t-49.5 -23.5q-91 -58 -167.5 -141t-132 -181.5
t-87 -208.5t-31.5 -221q0 -65 18 -101t47.5 -49t68 -6t79.5 27.5t81.5 50.5t74.5 64q15 16 40 17.5t44 -17.5q18 -19 16.5 -43.5t-16.5 -40.5q-55 -54 -120 -95t-131 -62.5t-128 -22t-109.5 25.5t-76.5 82t-29 146q0 89 23 187t63 195t95 187.5t119 165.5t134 129t141 78
q69 23 116 14.5t72.5 -38t27.5 -74.5t-19 -95q-24 -57 -76 -111.5t-120 -100t-148.5 -81t-161.5 -55.5q8 18 19 37.5t23 39.5t25 38t25 33zM666 1219q-8 -32 -32.5 -45t-48.5 -8.5t-39.5 27.5t-4.5 64q27 103 89 175.5t139.5 109.5t160 37t151 -42t112.5 -128.5t44 -220.5
q0 -42 -4 -85.5t-10 -88.5q-57 -57 -107.5 -126t-93.5 -147q37 113 58.5 225t21.5 218q0 95 -27.5 154t-70.5 87t-95 26t-100.5 -29.5t-87 -79.5t-55.5 -123z" />
    <glyph glyph-name="Y" unicode="Y" horiz-adv-x="1104" 
d="M1188 131q-23 -22 -55 -50t-68 -56.5t-73 -56.5t-70 -50q26 51 48 104t48 109q25 22 47.5 45.5t38.5 38.5q17 17 41 18t43 -18q18 -19 16.5 -43.5t-16.5 -40.5zM502 -311q77 26 134.5 79.5t101 122.5t75 146t55.5 151q27 81 46 175t37.5 190t41.5 188.5t58 169.5
q22 51 49.5 80t55 40t52.5 4.5t42.5 -27t25 -53.5t0.5 -76q-7 -39 -23.5 -88t-40.5 -103.5t-56 -113t-71 -117.5q12 73 24.5 136t26.5 113.5t30 87t34 56.5q6 6 6 12.5t-4 10.5t-10.5 4t-13.5 -7q-28 -28 -47 -78t-33.5 -116t-28 -144t-30.5 -160.5t-39.5 -167t-55.5 -163.5
q-42 -100 -84.5 -173.5t-84 -124.5t-81 -83t-75 -49.5t-66 -24t-53.5 -6.5q-59 0 -93 30.5t-34 86.5q0 39 20 68t52.5 52.5t74.5 43.5t85.5 40.5t86 44t76.5 54.5q-24 -49 -54.5 -93t-65.5 -80t-73.5 -62.5t-78.5 -40.5q-11 -4 -15 -11t-2.5 -13.5t8 -10t15.5 -0.5z
M911 1239q0 -97 -27 -183t-71 -162.5t-100.5 -145t-115.5 -131t-115.5 -119t-100.5 -110.5t-71 -105.5t-27 -102.5q0 -45 26.5 -72.5t89.5 -27.5q69 0 135.5 25.5t129 68t120.5 98.5t109 117q-16 -59 -31.5 -119.5t-27.5 -103.5q-107 -108 -224.5 -163.5t-242.5 -55.5
q-47 0 -88 14t-71 42.5t-47.5 72t-17.5 102.5q0 67 27 128.5t71.5 119.5t101.5 115.5t116.5 116.5t116.5 122t101.5 133t71.5 148.5t27 169.5q0 77 -23 124.5t-59 68.5t-81 18.5t-89 -24.5t-82 -61.5t-61 -92.5q-9 -19 -24 -29t-31.5 -12t-32 4t-26 18.5t-12.5 32t9 45.5
q35 83 96.5 138t133 81t146 21t134.5 -42t98.5 -107t38.5 -175z" />
    <glyph glyph-name="Z" unicode="Z" horiz-adv-x="1073" 
d="M266 -291q57 0 109.5 21t97.5 57.5t82.5 85.5t63.5 104t40.5 113t14.5 113q0 46 -10 86t-30 70t-50.5 48.5t-71.5 22.5q-10 1 -15 -3.5t-5 -10.5t4.5 -11t13.5 -6q46 -5 73.5 -29.5t43.5 -64.5h-47q-51 0 -89 11.5t-62.5 30.5t-37 43t-12.5 48q0 22 9.5 42t28.5 36
t47 25.5t66 9.5q76 0 129 -31t86.5 -80.5t48.5 -113t15 -127.5q0 -74 -21 -149t-59 -144t-90.5 -129t-115 -104t-133.5 -69.5t-146 -25.5q-36 0 -64.5 11t-48 29t-29.5 42t-10 51q0 53 38 98t122 82q33 15 72 27.5t82 23t89.5 20.5t94.5 22q-20 -41 -47 -79.5t-70 -76.5
q-34 -9 -66 -17.5t-60.5 -17.5t-51 -18.5t-37.5 -18.5q-26 -15 -23.5 -31t31.5 -16zM1190 1059q0 78 -22 150t-70 127t-124 87.5t-183 32.5q-63 0 -126.5 -17.5t-121.5 -49t-109 -75t-88 -96t-58.5 -112.5t-21.5 -123q0 -43 14 -70.5t37.5 -43t54 -19t63 2.5t64 20.5
t58.5 35.5q34 27 63 22.5t44 -25.5t11.5 -50.5t-32.5 -52.5q-48 -38 -105 -60t-114.5 -26t-110.5 10t-94 46.5t-65.5 83.5t-24.5 122q0 82 27 159.5t75 145t113 123.5t141 96t159 62t167 22q95 0 171 -20.5t134.5 -57t100.5 -86t69 -106.5t40 -119.5t13 -124.5
q0 -120 -36.5 -233.5t-104 -210t-163.5 -171t-214 -116.5q-9 32 -21.5 61.5t-29.5 55.5q100 35 178.5 99.5t132 145.5t81.5 173t28 182zM1073 215q16 16 41 17.5t43 -17.5q19 -19 17.5 -43.5t-17.5 -40.5q-85 -85 -187.5 -139.5t-205.5 -89.5q20 37 34 75t23 78
q69 28 132.5 66t119.5 94z" />
    <glyph glyph-name="bracketleft" unicode="[" horiz-adv-x="655" 
d="M233 -39q47 5 99 1.5t110 4.5q13 1 26.5 -1t24.5 -8.5t18 -19t9 -30.5q3 -34 -18 -53.5t-47 -22.5q-46 -6 -76 -4.5t-57.5 4.5t-60.5 4.5t-85 -4.5q-22 -2 -37 10t-21 29.5t-2.5 38t17.5 35.5q27 54 63 130.5t78.5 167t89.5 192t95 205.5t95.5 207.5t90.5 198t81 176
t67 142.5q18 43 52.5 56.5t84.5 0.5q43 -2 91 -1.5t114 10.5q13 1 26 -1t24 -9t18 -19.5t9 -30.5q4 -34 -17.5 -53.5t-47.5 -22.5q-40 -5 -67.5 -6t-50.5 0t-45.5 2t-53.5 0l14 35q3 8 0.5 14t-8 8t-12 -0.5t-11.5 -11.5q-42 -89 -93.5 -200t-107 -232t-113 -246.5
t-112.5 -245t-105 -226.5t-89 -191q-17 0 -31 -0.5t-33 -3.5q-7 -1 -10 -6t-3 -10t4.5 -9.5t12.5 -3.5z" />
    <glyph glyph-name="backslash" unicode="\" horiz-adv-x="743" 
d="M444 -29q-7 -38 -30 -54t-46 -13t-39.5 23.5t-9.5 56.5q23 113 45 227.5t44 235t46 250t52 272.5q7 37 29.5 51t45.5 9.5t39 -25.5t9 -54q-30 -144 -54 -269.5t-46 -242.5t-42.5 -231t-42.5 -236z" />
    <glyph glyph-name="bracketright" unicode="]" horiz-adv-x="655" 
d="M745 1292q-32 0 -62.5 -0.5t-66.5 -5.5q-13 -2 -26 0.5t-24 9.5t-18.5 19t-8.5 31q-3 34 18 53t47 22q31 4 54 4.5t42 -0.5t37 -3.5t39 -4t46.5 -1t60.5 4.5q22 1 36.5 -10.5t20.5 -29t3 -37.5t-17 -35q-35 -69 -84 -174t-106.5 -229t-119.5 -259.5t-121.5 -265.5
t-113 -247t-94.5 -204q-2 -25 -13.5 -45t-32.5 -33.5t-49.5 -19t-62.5 -0.5q-43 6 -91 3.5t-114 -11.5q-13 -2 -26.5 0.5t-24.5 9t-18.5 19t-8.5 30.5q-2 17 3.5 30.5t15 23t22 15t25.5 7.5q72 9 152.5 8t158.5 -10q9 -1 14.5 4t6.5 11t-2 11.5t-11 6.5q-12 2 -26 3t-25 3
q43 91 95 200.5t107.5 228t113.5 241.5t113 241.5t105 228t91 201.5q3 8 0 14.5t-8 9t-12 0.5t-11 -11z" />
    <glyph glyph-name="asciicircum" unicode="^" horiz-adv-x="983" 
d="M662 764q3 -8 8 -19l10 -22q-61 -53 -120 -105t-111 -97.5t-94 -82.5t-68 -61q-19 -19 -38.5 -23.5t-35 0.5t-27 17.5t-15 28.5t2 34t23.5 33q32 27 83.5 71.5t113 98.5t129.5 114t134 117q16 27 38 38.5t43.5 11t39 -11t25.5 -27.5q51 -122 95 -227.5t89 -209.5
q14 -32 2 -56.5t-35 -35t-49 -4t-41 38.5q-11 23 -29 65.5t-41 96t-49.5 114t-52.5 119.5q-3 7 -9.5 8.5t-12 -1t-8.5 -9t0 -14.5z" />
    <glyph glyph-name="underscore" unicode="_" horiz-adv-x="983" 
d="M776 -135q-31 -4 -84.5 -4.5t-118 0.5t-135.5 3.5t-135.5 4t-118 1t-84.5 -4.5q-13 -2 -26 0.5t-24 9t-18.5 19t-8.5 30.5q-4 34 17.5 53.5t47.5 22.5q31 4 84.5 4.5t118 -1t135.5 -3.5t135.5 -3.5t118 -1t84.5 4.5q13 1 26.5 -1t24.5 -8.5t18 -19t9 -30.5
q1 -17 -4 -30.5t-14.5 -23t-22 -15.5t-25.5 -7z" />
    <glyph glyph-name="grave" unicode="`" horiz-adv-x="506" 
d="M342 911q-20 31 -12.5 57.5t28.5 39.5t48 7t47 -40l88 -158q15 -29 7.5 -51t-26.5 -32t-42.5 -4.5t-39.5 32.5z" />
    <glyph glyph-name="a" unicode="a" horiz-adv-x="799" 
d="M84 131q-16 -15 -40.5 -17t-43.5 17t-17 44t17 40q20 20 38 37t36 33.5t37 32t41 32.5q-22 -45 -35 -93t-11 -103zM510 563q-29 -15 -62 -41t-65 -63.5t-60 -86.5t-47 -110q-5 -15 -9.5 -39t-3 -46.5t12 -39t37.5 -16.5q42 0 83.5 25.5t80.5 66t74.5 91t66 100.5t55 94
t42.5 73q23 38 49 47t49 3q20 -5 32 -17t17 -28t3 -33.5t-11 -32.5q-38 -72 -74.5 -130.5t-64.5 -104.5t-45 -79t-17 -55q0 -12 6.5 -17t14.5 -5q7 0 15.5 3t22 13t34.5 29t53 51q15 16 40 17.5t44 -17.5q18 -19 16.5 -43.5t-16.5 -40.5q-38 -38 -69 -64.5t-60 -43.5
t-58 -25t-63 -8q-57 0 -90.5 34.5t-28.5 106.5q1 9 -3.5 14t-10 5.5t-11 -4t-6.5 -13.5q-3 -18 -1 -35.5t5 -29.5q-43 -36 -90 -57t-104 -21q-31 0 -59 11t-49.5 33t-34.5 56t-13 80q0 56 19 114.5t51 114.5t75 105.5t91 87t99 59t99 21.5q34 0 56 -20.5t16 -63.5
q-6 -45 -36.5 -78t-75.5 -64t-100 -65t-109 -80q16 40 39 76t49.5 65.5t55.5 51.5t56 36q11 6 13.5 13.5t-0.5 13.5t-10 8t-15 -2z" />
    <glyph glyph-name="b" unicode="b" horiz-adv-x="760" 
d="M649 195q-17 0 -27 17t-10 48q0 59 24.5 117.5t59.5 107.5q6 8 4.5 14.5t-6 10t-11.5 2.5t-13 -8q-20 -24 -36.5 -56.5t-28.5 -66.5t-18.5 -66t-6.5 -55q0 -46 19 -71t50 -25q26 0 54.5 11.5t56.5 39.5q15 16 40 17.5t44 -17.5q18 -19 16.5 -43.5t-16.5 -40.5
q-19 -19 -43.5 -35t-51.5 -28t-56.5 -18.5t-57.5 -6.5q-45 0 -79 14.5t-56.5 41.5t-33.5 64.5t-11 82.5q0 78 25.5 154.5t65.5 138t88.5 99.5t94.5 38q38 0 62 -27.5t24 -77.5q0 -45 -12.5 -93.5t-34.5 -97t-52.5 -95.5t-66.5 -90zM84 131q-16 -15 -40.5 -17t-43.5 17
t-17 44t17 40q13 13 30 31.5t36.5 40.5t40 47t40.5 51q-12 -57 -18.5 -110t-3.5 -103zM156 182q-3 62 9 139t35.5 161.5t56.5 171t71.5 168t81 153t84.5 124.5t81.5 84t73.5 31q48 0 66.5 -29.5t15.5 -88.5q-1 -36 -19 -88t-47 -113t-68 -128.5t-82.5 -136.5t-90 -136
t-90.5 -127q24 90 57.5 176.5t73 169.5t84 163t92.5 158q5 9 4 16t-6 10t-12.5 1t-14.5 -12q-29 -42 -64 -102.5t-72 -132.5t-71.5 -151t-61.5 -157t-43.5 -152t-16.5 -135q0 -33 5 -52.5t13.5 -29.5t19 -13t21.5 -3q36 0 90 45q15 -65 60 -107q-57 -43 -99 -56t-69 -13
q-81 0 -122 49.5t-46 142.5z" />
    <glyph glyph-name="c" unicode="c" 
d="M365 98q66 0 132.5 26t131.5 91q15 16 40 17.5t44 -17.5q18 -19 16.5 -43.5t-16.5 -40.5q-81 -80 -170.5 -115.5t-177.5 -35.5q-112 0 -170 48.5t-58 141.5q0 26 2.5 45.5t7.5 38.5q3 10 -0.5 16t-9 7.5t-11.5 -2.5t-9 -13q-6 -22 -9.5 -52.5t-3.5 -57.5l-20 -21
q-16 -15 -40.5 -17t-43.5 17t-17 44t17 40q36 36 78.5 82t86.5 93.5t88.5 92.5t84.5 80q56 48 116 78.5t117 30.5q59 0 89 -33t24 -96q-3 -37 -16.5 -68t-42.5 -65q-24 -27 -49.5 -29t-42.5 11.5t-19.5 38.5t18.5 52q25 31 26 46.5t-13 15.5q-33 0 -69 -19t-69.5 -50.5
t-62.5 -72t-49.5 -82t-29.5 -82t-2.5 -72t31 -50.5t71.5 -19z" />
    <glyph glyph-name="d" unicode="d" horiz-adv-x="938" 
d="M606 182q-3 62 9 139t36 161.5t57 171t71.5 168t81 153t84.5 124.5t81.5 84t73.5 31q48 0 66.5 -29.5t15.5 -88.5q-2 -36 -19.5 -88t-46.5 -113t-68 -128.5t-82.5 -136.5t-90 -136t-91.5 -127q25 90 58 176.5t73 169.5t84.5 163t92.5 158q5 9 4 16t-6 10t-12 1.5
t-13 -10.5q-29 -42 -65 -103.5t-73 -133.5t-72 -150.5t-62 -157t-43.5 -152.5t-16.5 -135q0 -33 5.5 -52.5t14 -29.5t19 -13t21.5 -3q50 0 145 94q15 16 40 17.5t44 -17.5t17 -43.5t-17 -40.5q-45 -45 -82.5 -72.5t-68 -42.5t-55 -20.5t-42.5 -5.5q-80 0 -121.5 49.5
t-46.5 142.5zM84 131q-16 -15 -40.5 -17t-43.5 17t-17 44t17 40q21 21 39 38t36 33t36.5 31.5t40.5 32.5q-22 -45 -34 -93t-12 -103zM522 530q11 6 13.5 13.5t-0.5 13.5t-10 8t-15 -2q-29 -15 -62 -41t-65 -63.5t-60 -86.5t-47 -110q-5 -15 -9.5 -39t-3 -46.5t12 -39
t37.5 -16.5q37 0 73.5 21t71.5 54.5t68 75t64 82.5q-9 -48 -13 -94.5t-2 -103.5q-30 -34 -62 -64t-68 -52.5t-76 -36t-84 -13.5q-28 0 -54.5 11t-47.5 33t-33.5 56t-12.5 80q0 56 19 114.5t51 114.5t75 105.5t91 87t99 59t99 21.5q34 0 56 -20.5t16 -63.5q-6 -45 -36.5 -78
t-75.5 -64t-100 -65t-109 -80q16 40 39 76t49.5 65.5t55.5 51.5t56 36z" />
    <glyph glyph-name="e" unicode="e" 
d="M365 98q66 0 132.5 26t131.5 91q15 16 40 17.5t44 -17.5q18 -19 16.5 -43.5t-16.5 -40.5q-81 -80 -170.5 -115.5t-177.5 -35.5q-112 0 -170 48.5t-58 141.5q0 26 2.5 45.5t7.5 38.5q3 10 -0.5 16t-9 7.5t-11.5 -2.5t-9 -13q-6 -22 -9.5 -52.5t-3.5 -57.5l-20 -21
q-16 -15 -40.5 -17t-43.5 17t-17 44t17 40q36 36 78.5 82t86.5 93.5t88.5 92.5t84.5 80q56 48 116 78.5t117 30.5q59 0 89 -33t24 -96q-5 -53 -35.5 -104.5t-81.5 -92t-119.5 -66.5t-148.5 -28q8 29 22 58t31 55q41 4 75.5 21.5t61 39.5t43.5 45t23 39q6 17 -2.5 26.5
t-28.5 6.5q-33 -6 -67.5 -28t-66 -54.5t-58 -72t-44.5 -79.5t-25.5 -78t0.5 -67.5t32.5 -47.5t69.5 -18z" />
    <glyph glyph-name="f" unicode="f" horiz-adv-x="522" 
d="M0 215q19 19 44.5 45t55.5 58t64 68.5t69 76.5q-29 -72 -57 -143t-51 -148l-41 -41q-16 -15 -40.5 -17t-43.5 17t-17 44t17 40zM606 131q-44 -44 -94.5 -68.5t-97 -34t-85 -7t-57.5 11.5q10 31 19.5 62.5t21.5 60.5q20 -6 47 -6t55.5 7t56.5 21.5t50 36.5q16 16 41 17.5
t43 -17.5q19 -19 17.5 -43.5t-17.5 -40.5zM154 -420q-47 0 -76 35t-29 106q0 91 43.5 248t132.5 389q44 115 87.5 223.5t86 203.5t84.5 174t83 135.5t81.5 88t81.5 31.5q42 0 59 -29.5t17 -88.5q0 -62 -34 -139.5t-88 -161.5t-121 -170.5t-132 -167.5q23 59 56 134.5
t70.5 154.5t77 154.5t75.5 133.5q5 9 4 16t-6 10t-12 1.5t-13 -10.5q-29 -42 -65 -108t-75.5 -147.5t-80 -174.5t-79.5 -189.5t-73.5 -192.5t-62 -183.5t-46 -163t-24.5 -130.5q-3 -34 11 -35.5t26 21.5q7 14 18 39t22.5 57.5t22 71t17.5 80.5q29 -6 63.5 -5.5t65.5 9.5
q-15 -87 -40.5 -163.5t-59 -133.5t-76 -90t-92.5 -33zM375 322q12 -8 22.5 -22t18 -31.5t11.5 -36t5 -35.5q-26 -13 -55 -16t-53 3q6 18 12.5 37t13.5 38t13 35t12 28z" />
    <glyph glyph-name="g" unicode="g" horiz-adv-x="788" 
d="M84 131q-16 -15 -40.5 -17t-43.5 17t-17 44t17 40q21 21 39 38t36 33t36.5 31.5t40.5 32.5q-22 -45 -34 -91t-12 -89v-16zM872 131q-22 -22 -54 -50t-68 -56.5t-73.5 -56.5t-70.5 -50q26 51 48 104t48 109q25 22 48 45.5t38 38.5q17 17 41.5 18t42.5 -18
q19 -19 17.5 -43.5t-17.5 -40.5zM510 563q-29 -15 -62 -41t-65 -63.5t-60 -86.5t-47 -110q-5 -15 -9.5 -39t-3 -46.5t12 -39t37.5 -16.5q42 0 83.5 25.5t80.5 66t74.5 91t66 100.5t55 94t42.5 73q23 38 49 47t49 3q20 -5 32 -17t17 -28t3 -33.5t-11 -32.5
q-60 -113 -115.5 -228t-109.5 -243q-42 -100 -84.5 -173t-84 -124t-81 -83t-75 -49.5t-66 -23.5t-54.5 -6q-59 0 -93 30.5t-34 86.5q0 39 20 68t52.5 52.5t74.5 43.5t86 40.5t86.5 44t76.5 54.5q-48 -99 -120.5 -173.5t-156.5 -105.5q-9 -3 -12 -9.5t-1 -12.5t8 -9.5
t15 -0.5q43 15 91 47.5t95.5 87t90.5 132.5t76 185q2 8 -1 13.5t-8.5 7.5t-11.5 -0.5t-10 -11.5q-11 -28 -18 -49.5t-19 -49.5q-38 -29 -82.5 -45t-95.5 -16q-31 0 -59 11t-49.5 33t-34.5 56t-13 80q0 56 19 114.5t51 114.5t75 105.5t91 87t99 59t99 21.5q34 0 58 -20.5
t24 -63.5q0 -36 -14.5 -62.5t-39 -48.5t-57.5 -40.5t-70 -38.5t-75.5 -43t-74.5 -54q16 40 39 76t49.5 65.5t55.5 51.5t56 36q11 6 13.5 13.5t-0.5 13.5t-10 8t-15 -2z" />
    <glyph glyph-name="h" unicode="h" horiz-adv-x="762" 
d="M0 215q57 57 124.5 143t139.5 183q-27 -81 -45 -136t-31.5 -93t-22.5 -64t-18 -49q-14 -17 -29 -33t-34 -35q-16 -15 -40.5 -17t-43.5 17t-17 44t17 40zM453 135q0 40 17.5 83.5t42.5 85t51 78t44 62.5q11 16 13 28.5t-3.5 17.5t-17 1.5t-27.5 -18.5q-27 -27 -67.5 -74
t-84.5 -104t-85 -120t-68 -122q-6 -20 -17.5 -32.5t-25 -19t-28.5 -7.5t-27 4q-28 11 -34 36t3 50q46 124 92.5 261.5t94 270t97 250t101.5 201.5q34 54 72.5 86.5t75.5 45t68.5 6.5t51.5 -28t25 -59.5t-12 -87.5q-19 -55 -55 -108.5t-80.5 -106.5t-93 -107t-93.5 -110
q28 67 57 131t56.5 121t53 104t46.5 80q6 9 4.5 16t-6.5 10t-12 1t-14 -12q-43 -66 -78.5 -134.5t-65.5 -138t-55 -138t-47 -132.5q-19 -17 -38 -41t-36 -49q-5 -7 -3.5 -13.5t6 -10t10.5 -3t12 7.5q37 52 80 102.5t87.5 89.5t89 63t85.5 24q34 0 60 -20t26 -58
q0 -39 -15.5 -81t-39 -84.5t-51 -83.5t-51 -78.5t-39 -69t-15.5 -54.5q0 -15 9.5 -22.5t25.5 -7.5q20 0 57 27.5t80 70.5q15 16 40 17.5t44 -17.5q18 -19 16.5 -43.5t-16.5 -40.5q-35 -35 -66 -61.5t-62 -44t-63.5 -26.5t-70.5 -9q-57 0 -94 37t-37 108z" />
    <glyph glyph-name="i" unicode="i" horiz-adv-x="455" 
d="M350 950q2 28 15 52t34 42t48 28.5t57 10.5q29 0 54 -10.5t43 -28.5t27 -42t7 -52q-2 -27 -15 -51.5t-34 -42.5t-47.5 -28.5t-55.5 -10.5q-30 0 -55.5 10.5t-43.5 28.5t-27 42.5t-7 51.5zM309 618q10 20 22 32t24 18t24.5 7t23.5 -1q42 -8 50 -47t-17 -95
q-29 -63 -52.5 -122.5t-40 -111.5t-25.5 -92.5t-9 -64.5q0 -12 6.5 -18t14.5 -6q18 0 49.5 27.5t75.5 70.5q15 16 40 17.5t44 -17.5q18 -19 16.5 -43.5t-16.5 -40.5q-36 -35 -66.5 -61.5t-59 -44t-56.5 -26.5t-58 -9q-60 0 -95.5 37t-35.5 114q0 41 13.5 79.5t29.5 80.5
q3 9 0.5 15t-8 8t-12 -1t-11.5 -12q-11 -23 -21 -53.5t-18 -62.5q-5 -8 -22.5 -27.5t-34.5 -36.5q-16 -15 -40.5 -17t-43.5 17t-17 44t17 40q45 45 90.5 96.5t86.5 104.5t75.5 104.5t56.5 97.5z" />
    <glyph glyph-name="j" unicode="j" horiz-adv-x="399" 
d="M350 950q2 28 15 52t34 42t48 28.5t57 10.5q29 0 54 -10.5t43 -28.5t27 -42t7 -52q-2 -27 -15 -51.5t-34 -42.5t-47.5 -28.5t-55.5 -10.5q-30 0 -55.5 10.5t-43.5 28.5t-27 42.5t-7 51.5zM483 131q-22 -22 -54 -50t-68 -56.5t-73.5 -56.5t-70.5 -50q26 51 48 104t48 109
q25 22 48 45.5t38 38.5q17 17 41.5 18t42.5 -18q19 -19 17.5 -43.5t-17.5 -40.5zM434 528q-11 -23 -23 -55.5t-33 -87.5t-54 -138.5t-84 -207.5q-41 -100 -84 -173t-84.5 -124t-81 -83t-75 -49.5t-66.5 -23.5t-54 -6q-59 0 -93 30.5t-34 86.5q0 39 20 68t52.5 52.5
t74.5 43.5t85.5 40.5t86 44t76.5 54.5q-48 -99 -119.5 -173t-152.5 -103q-11 -4 -14.5 -11t-2 -13.5t7.5 -10t15 -0.5q34 11 70.5 33.5t73 57t72 82.5t67.5 111q18 36 32 71.5t29 75t31.5 84t38.5 97.5q3 9 0.5 15t-8 8t-11.5 -1t-10 -12q-2 -6 -8 -20.5t-14 -33.5
t-17 -40.5t-16 -42.5l-43 -43q-16 -15 -40.5 -17t-43.5 17t-17 44t17 40q45 45 90.5 96.5t86.5 104.5t75.5 104.5t56.5 97.5q10 20 22 32t24 18t24.5 7t23.5 -1q42 -8 49.5 -47.5t-18.5 -98.5z" />
    <glyph glyph-name="k" unicode="k" horiz-adv-x="762" 
d="M0 215q57 57 124.5 143t139.5 183q-27 -81 -45 -136t-31.5 -93t-22.5 -64t-18 -49q-14 -17 -29 -33t-34 -35q-16 -15 -40.5 -17t-43.5 17t-17 44t17 40zM696 1034q6 9 4.5 16t-6.5 10t-12 1t-14 -12q-82 -125 -137.5 -255t-98.5 -255q-26 -31 -48.5 -66.5t-35.5 -58.5
q-4 -7 -2 -13t7 -8.5t11 -1.5t11 8q28 43 62.5 91.5t76.5 90t92 68.5t109 27q29 0 49.5 -10.5t33 -28t17.5 -40t4 -46.5q-3 -46 -25 -83t-53.5 -67.5t-67.5 -57t-66.5 -53t-51 -55t-20.5 -63.5q0 -32 19 -46.5t44 -14.5q37 0 75 26.5t89 77.5q15 16 40 17.5t44 -17.5
q18 -19 16.5 -43.5t-16.5 -40.5q-35 -35 -66 -61.5t-62 -44t-63.5 -26.5t-70.5 -9q-48 0 -81 14t-53.5 37.5t-30 54t-9.5 62.5q0 46 17 85.5t43 74t57.5 62.5t61 50.5t53.5 39t34 26.5q12 12 14.5 22t-2.5 15.5t-16 6.5t-25 -5q-24 -10 -55 -36t-66 -63.5t-71.5 -84
t-71 -96.5t-64.5 -102t-51 -100q-6 -20 -17.5 -32.5t-25 -19t-28.5 -7.5t-27 4q-28 11 -34 36t3 50q46 124 92.5 261.5t94 270t97 250t101.5 201.5q34 54 72.5 86.5t75.5 45t68.5 6.5t51.5 -28t25 -59.5t-12 -87.5q-19 -55 -55 -108.5t-80.5 -106.5t-93 -107t-93.5 -110
q28 67 57 131t56.5 121t53 104t46.5 80z" />
    <glyph glyph-name="l" unicode="l" horiz-adv-x="487" 
d="M156 182q-3 62 9 139t35.5 161.5t56.5 171t71.5 168t81 153t84.5 124.5t81.5 84t73.5 31q48 0 66.5 -29.5t15.5 -88.5q-1 -36 -19 -88t-47 -113t-68 -128.5t-82.5 -136.5t-90 -136t-90.5 -127q24 90 57.5 176.5t73 169.5t84 163t92.5 158q5 9 4 16t-6 10t-12.5 1
t-14.5 -12q-29 -42 -64 -102.5t-72 -132.5t-71.5 -151t-61.5 -157t-43.5 -152t-16.5 -135q0 -33 5 -52.5t13.5 -29.5t19 -13t21.5 -3q51 0 145 94q16 16 41 17.5t43 -17.5q19 -19 17.5 -43.5t-17.5 -40.5q-44 -45 -81.5 -72.5t-68 -42.5t-55 -20.5t-42.5 -5.5
q-81 0 -122 49.5t-46 142.5zM84 131q-16 -15 -40.5 -17t-43.5 17t-17 44t17 40q13 13 30 31.5t36.5 40.5t40 47t40.5 51q-12 -57 -18.5 -110t-3.5 -103z" />
    <glyph glyph-name="m" unicode="m" horiz-adv-x="1012" 
d="M743 584q-15 -14 -31 -32.5t-28 -35.5q-6 -8 -5.5 -14t4.5 -9.5t11 -2.5t13 8q21 24 48.5 55t59.5 58.5t70 46t80 18.5q34 0 60 -20t26 -58q0 -39 -15.5 -81t-39 -84.5t-51 -83.5t-51 -78.5t-39 -69t-15.5 -54.5q0 -15 9.5 -22.5t24.5 -7.5q20 0 57 27.5t81 70.5
q15 16 40 17.5t44 -17.5q18 -19 16.5 -43.5t-16.5 -40.5q-36 -35 -67 -61.5t-61.5 -44t-63 -26.5t-70.5 -9q-57 0 -94.5 37t-37.5 108q0 39 17 82t41.5 84t51 77t44.5 62q12 17 14 30.5t-3 19.5t-17 2.5t-29 -21.5q-18 -18 -41 -44t-49 -58.5t-53 -69.5t-53 -76
q-29 -55 -53.5 -99.5t-53.5 -94.5q-15 -26 -40 -34t-50 3q-26 12 -34 36.5t3 49.5q16 34 43.5 86t67.5 117q29 46 52 91t40 77q10 19 11 33.5t-5.5 20t-19.5 0.5t-31 -24q-40 -44 -114.5 -147.5t-178.5 -284.5q-6 -20 -17.5 -32.5t-25 -19t-28.5 -7.5t-27 4q-28 11 -34 36
t3 50q6 18 12.5 34t15.5 38.5l22 55t32 81.5q3 8 0 14t-9 8t-13 -1t-11 -13q-6 -15 -17 -45t-24 -61q-9 -11 -21.5 -26t-35.5 -38q-16 -15 -40.5 -17t-43.5 17t-17 44t17 40q46 47 91 98.5t85.5 104t73.5 103t55 95.5q19 40 45.5 51t52.5 7q31 -6 45.5 -33t-4.5 -72
q-12 -17 -27 -39t-29.5 -43t-26 -37.5t-15.5 -23.5q-5 -9 -4 -16t6 -10t12 -1t13 11q36 53 72 101t72 85t70.5 58.5t67.5 21.5q38 0 62 -23t26 -69z" />
    <glyph glyph-name="n" unicode="n" horiz-adv-x="756" 
d="M215 293q3 8 0 14t-9 8t-13 -1t-11 -13q-6 -15 -17 -45t-24 -61q-9 -11 -21.5 -26t-35.5 -38q-16 -15 -40.5 -17t-43.5 17t-17 44t17 40q46 47 91 98.5t85.5 104t73.5 103t55 95.5q19 40 45.5 51t52.5 7q15 -3 28 -12.5t19 -26t4.5 -39.5t-14.5 -53q-13 -15 -27 -32
t-27 -33.5t-23.5 -29.5t-14.5 -20q-5 -8 -4 -15t6 -10.5t12 -2.5t13 10q35 48 76.5 95.5t85 85.5t87.5 61.5t85 23.5q34 0 60 -20t26 -58q0 -39 -15.5 -81t-39 -84.5t-51 -83.5t-51 -78.5t-39 -69t-15.5 -54.5q0 -15 9.5 -22.5t24.5 -7.5q20 0 57 27.5t81 70.5
q15 16 40 17.5t44 -17.5q18 -19 16.5 -43.5t-16.5 -40.5q-36 -35 -67 -61.5t-61.5 -44t-63 -26.5t-70.5 -9q-57 0 -94.5 37t-37.5 108q0 40 18 83.5t42.5 85t51 78t44.5 62.5q11 16 13 28.5t-3.5 17.5t-17 1.5t-27.5 -18.5q-27 -27 -67.5 -74t-84.5 -104t-85 -120t-68 -122
q-6 -20 -17.5 -32.5t-25 -19t-28.5 -7.5t-27 4q-28 11 -34 36t3 50q6 18 13 33.5t16 38t22 54.5t31 83z" />
    <glyph glyph-name="o" unicode="o" horiz-adv-x="819" 
d="M819 215q16 16 41 17.5t43 -17.5q19 -19 17.5 -43.5t-17.5 -40.5q-54 -54 -122.5 -83.5t-133.5 -29.5q-37 0 -69.5 10.5t-57 33t-39 56.5t-14.5 81q0 55 20 113.5t53.5 107t78.5 79.5t96 31q42 0 63 -29.5t21 -74.5q0 -59 -32 -127.5t-95 -124.5q-17 0 -31 7t-14 30
t7 46.5t19.5 45t29.5 40.5t36 32q7 5 8.5 12.5t-2.5 12.5t-12 6t-19 -7q-17 -13 -34.5 -32t-31.5 -43.5t-23 -54t-9 -62.5q0 -34 18.5 -49t44.5 -15q20 0 42.5 6.5t44.5 16.5t41 23t32 26zM84 131q-16 -15 -40.5 -17t-43.5 17t-17 44t17 40q34 34 64 61.5t65 55.5
q-11 -32 -17 -65.5t-6 -65.5q0 -13 0.5 -23.5t2.5 -21.5zM367 106q14 0 35.5 5.5t41.5 17.5q10 -34 28.5 -59.5t43.5 -42.5q-37 -22 -80 -33.5t-82 -11.5q-56 0 -97 16.5t-67.5 45.5t-39.5 69t-13 88q0 53 16.5 108t45.5 107t69.5 98.5t89 81t102.5 54.5t111 20
q63 0 102 -31t54 -78h-12q-31 0 -59 -10t-54 -27q-6 11 -17.5 16t-25.5 5q-48 0 -98 -32t-91 -81.5t-67.5 -109.5t-26.5 -117q0 -47 23 -73t68 -26z" />
    <glyph glyph-name="p" unicode="p" horiz-adv-x="778" 
d="M469 135q0 40 18 83.5t42.5 85t51 78t44.5 62.5q10 16 12 28.5t-3 17.5t-16.5 1.5t-27.5 -18.5q-29 -26 -71.5 -75.5t-90.5 -112.5q17 62 31 120t28 115q24 26 53.5 54t61.5 50.5t65 37t64 14.5q34 0 60 -20t26 -58q0 -39 -15.5 -81t-39 -84.5t-51 -83.5t-51 -78.5
t-39 -69t-15.5 -54.5q0 -15 10 -22.5t25 -7.5q20 0 57 27.5t80 70.5q16 16 41 17.5t43 -17.5q19 -19 17.5 -43.5t-17.5 -40.5q-35 -35 -66 -61.5t-62 -44t-63.5 -26.5t-70.5 -9q-57 0 -94 37t-37 108zM295 393q2 10 -2 16t-10 7t-12.5 -3.5t-8.5 -15.5q-4 -16 -6.5 -27.5
t-4.5 -21t-4.5 -19.5t-6.5 -24q-68 -86 -156 -174q-16 -15 -40.5 -17t-43.5 17t-17 44t17 40q56 56 107 111.5t94 108.5t76.5 103t56.5 95q18 40 45 53t53 8q15 -3 25.5 -11.5t16 -20t6.5 -24t-1 -24.5q-24 -102 -53 -218.5t-63.5 -231.5t-73 -220.5t-82 -186.5t-91 -129
t-98.5 -48q-45 0 -66.5 29.5t-21.5 83.5q0 34 19 85.5t55.5 116.5t89.5 142.5t121 165.5q-24 -82 -49 -150t-50.5 -125t-51.5 -104.5t-54 -89.5q-6 -10 -4.5 -17.5t7 -10.5t13 -1t13.5 12q27 42 57.5 96.5t63 133t66.5 187t69 259.5z" />
    <glyph glyph-name="q" unicode="q" horiz-adv-x="799" 
d="M84 131q-16 -15 -40.5 -17t-43.5 17t-17 44t17 40q20 20 38 37t36 33.5t37 32t41 32.5q-22 -45 -34 -91t-12 -89v-16zM522 530q11 6 13.5 13.5t-0.5 13.5t-10 8t-15 -2q-29 -15 -62 -41t-65 -63.5t-60 -86.5t-47 -110q-5 -15 -9.5 -39t-3 -46.5t12 -39t37.5 -16.5
q42 0 83.5 25.5t80.5 66t74.5 91t66 100.5t55 94t42.5 73q23 38 49 47t49 3q20 -5 31.5 -17t16 -27.5t2.5 -33t-9 -33.5q-25 -59 -57.5 -109.5t-68 -98.5t-72 -94.5t-68.5 -96.5q-33 -51 -62 -106t-51.5 -107t-37.5 -96t-21 -74q-2 -11 1.5 -17.5t9.5 -8t12.5 2.5t9.5 14
q27 106 75 208t113 198q19 2 40.5 10t43 20t41.5 27.5t37 32.5q15 16 40 17.5t44 -17.5q18 -19 16.5 -43.5t-16.5 -40.5q-28 -28 -62 -52t-71 -41.5t-75 -27.5t-73 -10q-8 0 -12.5 -5t-5 -10.5t3.5 -10.5t12 -5h18q-20 -112 -46 -187t-55.5 -120t-61.5 -63.5t-64 -18.5
q-46 0 -74 35t-28 106q0 45 13.5 90t34.5 88.5t46 84.5t49 79q4 6 2.5 12t-5.5 9.5t-10 3t-11 -7.5q-13 -16 -26.5 -36.5t-29.5 -45.5q-12 -5 -28.5 -6.5t-30.5 -1.5q-31 0 -59 11t-49.5 33t-34.5 56t-13 80q0 56 19 114.5t51 114.5t75 105.5t91 87t99 59t99 21.5
q34 0 56 -20.5t16 -63.5q-6 -45 -36.5 -78t-75.5 -64t-100 -65t-109 -80q16 40 39 76t49.5 65.5t55.5 51.5t56 36z" />
    <glyph glyph-name="r" unicode="r" horiz-adv-x="530" 
d="M0 215q28 28 58 61.5t57.5 68t52.5 70t43 68.5q19 -15 50.5 -27t55.5 -18q-21 -40 -47.5 -80.5t-57 -80.5t-63.5 -77t-65 -69q-16 -15 -40.5 -17t-43.5 17t-17 44t17 40zM379 631v-13.5t-2 -13.5q-41 7 -56.5 16.5t-19.5 20.5q-3 9 -9.5 11t-12 0t-9 -8.5t-0.5 -14.5
q9 -23 33 -35t54.5 -19.5t64 -14.5t62.5 -20.5t49 -37.5t24 -64q4 -38 -8 -69.5t-32 -58t-44 -49t-45.5 -43t-36 -39.5t-14.5 -38q0 -15 6.5 -19.5t22.5 -4.5q7 0 20 7.5t29 21t35 31t40 38.5q16 16 41 17.5t43 -17.5q19 -19 17.5 -43.5t-17.5 -40.5q-35 -35 -65.5 -61.5
t-59 -44t-56.5 -26.5t-58 -9t-56.5 8t-46 25t-30.5 43t-11 63q0 38 15 70.5t37.5 60.5t48 52t47 44.5t34 38t9.5 33.5q-3 12 -23.5 19t-50 15t-63 19t-62 31t-47 51.5t-18.5 79.5q0 25 9.5 45.5t24.5 35t34.5 22.5t39.5 8q113 0 113 -123z" />
    <glyph glyph-name="s" unicode="s" horiz-adv-x="500" 
d="M0 215q23 23 49 52.5t52.5 61.5t51.5 64t46 60q11 -31 26.5 -60t26.5 -61q-19 -27 -41 -55t-44 -54t-43.5 -50t-39.5 -42q-16 -15 -40.5 -17t-43.5 17t-17 44t17 40zM471 629q0 -35 -19 -77t-51 -87q-32 60 -38.5 102t6.5 64q4 8 2.5 14.5t-7 9t-12 1t-10.5 -8.5
q-12 -18 -13.5 -41.5t4.5 -51.5t18.5 -58t29.5 -60q13 -22 25.5 -49t21.5 -56t13 -60t1 -62q-12 -16 -33.5 -28.5t-39.5 -20.5q-7 -3 -9 -9t0 -11.5t7.5 -8.5t13.5 0q31 11 59.5 32t59.5 52q15 16 40 17.5t44 -17.5q18 -19 16.5 -43.5t-16.5 -40.5q-76 -75 -158 -114.5
t-184 -39.5q-54 0 -77.5 21t-23.5 53q0 21 9 36.5t23.5 25.5t32 14.5t34.5 3.5q15 -2 27.5 -1t22.5 10t15.5 28.5t5.5 54.5q0 45 -17.5 89.5t-38.5 90t-38.5 92.5t-17.5 97q0 30 9.5 60.5t28.5 55.5t48 40.5t69 15.5q57 0 87 -34.5t30 -100.5z" />
    <glyph glyph-name="t" unicode="t" horiz-adv-x="514" 
d="M584 545q-46 -6 -92.5 -4.5t-93 4.5t-93 4.5t-92.5 -4.5q-13 -2 -26.5 0.5t-24.5 9t-18.5 19t-8.5 30.5q-2 17 3.5 30.5t15 23t22 15t25.5 7.5q46 6 92.5 4.5t93 -4.5t92.5 -4.5t92 4.5q13 1 26.5 -1t24.5 -8.5t18 -19t9 -30.5q3 -35 -18 -54t-47 -22zM635 981
q1 -26 -6.5 -59t-21 -69t-31.5 -73.5t-37 -72.5q-54 -2 -103 1t-84 5l131 276q19 40 45.5 50t49.5 5q27 -5 41 -22.5t16 -40.5zM0 215q66 68 132.5 147t117.5 156q38 3 84 -0.5t86 -5.5q-55 -108 -78 -182.5t-24.5 -121t13.5 -67t38 -20.5q24 0 60.5 23t84.5 71
q16 16 40.5 17.5t43.5 -17.5t17 -43.5t-17 -40.5q-45 -45 -80 -73t-64 -43t-54 -20t-50 -5q-64 0 -101.5 29t-55 74t-17.5 99t12 105q3 9 0 15t-8 7.5t-10.5 -2t-9.5 -12.5q-8 -18 -12.5 -47t-2.5 -63q-14 -17 -30 -32.5t-31 -31.5q-16 -15 -40.5 -17t-43.5 17t-17 44t17 40
z" />
    <glyph glyph-name="u" unicode="u" horiz-adv-x="795" 
d="M621 -10q-36 0 -60 14t-38 38t-18 55t1 65q1 8 -3 13t-9.5 5.5t-11.5 -3t-7 -11.5q-5 -25 -4 -47t6 -45q-48 -42 -98 -63t-107 -21q-24 0 -48.5 7t-43.5 22.5t-31 40.5t-12 61q0 46 17.5 92t40.5 92q4 8 2 14t-7 8.5t-11.5 0.5t-10.5 -11q-14 -24 -30.5 -65t-28.5 -96
l-25 -25q-16 -15 -40.5 -17t-43.5 17t-17 44t17 40q45 45 92.5 96.5t91.5 104.5t80.5 104.5t59.5 97.5q10 20 21.5 32t23.5 18t24.5 7t24.5 -1q21 -4 33.5 -15.5t18 -27.5t4 -33.5t-8.5 -32.5q-36 -74 -70.5 -139t-61.5 -118.5t-43 -94.5t-14 -68q0 -14 7 -21t18 -7
q13 0 34 8.5t48.5 30t61.5 59.5t73 98q9 29 22 67t30 78.5t37 79.5t43 69.5t48 49.5t52 19q39 0 57 -21.5t20.5 -57t-8 -80t-30.5 -90t-46.5 -88t-54.5 -73.5q34 164 86 277q4 7 1.5 13t-7 8t-10.5 0t-10 -9q-20 -41 -39.5 -96.5t-34.5 -113t-24 -110t-9 -88.5
q0 -18 6.5 -24t16.5 -6q31 0 131 98q15 16 40 17.5t44 -17.5q18 -19 16.5 -43.5t-16.5 -40.5q-44 -44 -78.5 -71.5t-64.5 -43t-57.5 -21t-57.5 -5.5z" />
    <glyph glyph-name="v" unicode="v" horiz-adv-x="762" 
d="M651 195q-17 0 -27 17t-10 48q0 59 24.5 117.5t59.5 107.5q6 8 4.5 14.5t-6 10t-11.5 2.5t-13 -8q-19 -24 -35.5 -56.5t-28.5 -66.5t-19 -66t-7 -55q0 -46 19 -71t50 -25q26 0 54.5 11.5t56.5 39.5q15 16 40 17.5t44 -17.5q18 -19 16.5 -43.5t-16.5 -40.5
q-19 -19 -43.5 -35t-51.5 -28t-56.5 -18.5t-57.5 -6.5q-45 0 -79 14.5t-56.5 41.5t-33.5 64.5t-11 82.5q0 78 25.5 154.5t65.5 138t88.5 99.5t94.5 38q38 0 62 -27.5t24 -77.5q0 -45 -12.5 -93.5t-34.5 -97t-52.5 -95.5t-66.5 -90zM137 121q0 46 17.5 92t40.5 92q4 8 2 14
t-7 8.5t-11.5 0.5t-10.5 -11q-14 -24 -30.5 -65t-28.5 -96l-25 -25q-16 -15 -40.5 -17t-43.5 17t-17 44t17 40q45 45 92.5 96.5t91.5 104.5t80.5 104.5t59.5 97.5q10 20 21.5 32t23.5 18t24.5 7t24.5 -1q21 -4 33.5 -15.5t18 -27.5t4 -33.5t-8.5 -32.5q-36 -74 -70.5 -139
t-61.5 -118.5t-43 -94.5t-14 -68q0 -14 7 -21t18 -7q31 0 65 12t68 37q15 -65 60 -107q-110 -69 -222 -69q-24 0 -48.5 7t-43.5 22.5t-31 40.5t-12 61z" />
    <glyph glyph-name="w" unicode="w" horiz-adv-x="1061" 
d="M84 131q-16 -15 -40.5 -17t-43.5 17t-17 44t17 40q45 45 92.5 96.5t91.5 104.5t80.5 104.5t59.5 97.5q10 20 21.5 32t23.5 18t24.5 7t24.5 -1q21 -4 33.5 -15.5t18 -27.5t4 -33.5t-8.5 -32.5q-36 -74 -70.5 -139t-61.5 -118.5t-43 -94.5t-14 -68q0 -14 7 -21t18 -7
q20 0 44 12.5t50 34.5q0 -37 5.5 -66t15.5 -51q-37 -28 -74.5 -42.5t-69.5 -14.5q-24 0 -48.5 7t-43.5 22.5t-31 40.5t-12 61q0 46 17.5 92t40.5 92q4 8 2 14t-7 8.5t-11.5 0.5t-10.5 -11q-14 -24 -30.5 -65t-28.5 -96zM950 195q-17 0 -27 17t-10 48q0 59 24.5 117.5
t59.5 107.5q6 8 4.5 14.5t-6 10t-11.5 2.5t-13 -8q-19 -24 -35.5 -56.5t-28.5 -66.5t-19 -66t-7 -55q0 -46 19 -71t50 -25q26 0 54.5 11.5t56.5 39.5q15 16 40 17.5t44 -17.5q18 -19 16.5 -43.5t-16.5 -40.5q-19 -19 -43.5 -35t-51.5 -28t-56.5 -18.5t-57.5 -6.5
q-45 0 -79 14.5t-56.5 41.5t-33.5 64.5t-11 82.5q0 78 25.5 154.5t65.5 138t88.5 99.5t94.5 38q38 0 62 -27.5t24 -77.5q0 -45 -12.5 -93.5t-34.5 -97t-52.5 -95.5t-66.5 -90zM655 516q-21 -34 -40.5 -74.5t-34 -84t-23 -88.5t-8.5 -87q0 -41 18.5 -58t46 -17t59.5 15.5
t60 41.5q15 -63 60 -105q-110 -69 -222 -69q-27 0 -53.5 8t-46.5 28t-32.5 53.5t-12.5 84.5q0 50 12 106.5t32.5 111.5t47 105t55.5 88.5t58.5 61t56.5 22.5q37 0 51.5 -21t14.5 -46q0 -39 -13 -85.5t-36 -96t-54 -100t-67 -97.5q6 78 30.5 149t67.5 142q4 7 2.5 13.5t-6 9
t-11 0.5t-12.5 -11z" />
    <glyph glyph-name="x" unicode="x" horiz-adv-x="856" 
d="M514 655q50 0 80.5 -27t38.5 -67q-37 -38 -70 -84t-59 -94q17 65 10.5 94t-25.5 29q-24 0 -50.5 -19t-70 -62.5t-111 -115.5t-173.5 -178q-16 -15 -40.5 -17t-43.5 17t-17 44t17 40q83 83 143.5 148.5t105.5 114t78 82.5t62.5 55t58.5 30.5t66 9.5zM307 68q9 16 24 32
t32 30t35 25t34 17q-2 -37 1 -62.5t9 -43.5q-24 -23 -55 -40t-63 -26t-63 -9.5t-55 9t-39 30.5t-15 54q0 46 26.5 86t73 74.5t108.5 64.5t134 56q-23 -47 -36.5 -82.5t-21.5 -75.5q-18 -6 -40 -18t-43.5 -27.5t-40.5 -35t-31 -40.5q-6 -9 -4 -16t7.5 -9.5t12 -1t10.5 8.5z
M776 492q-52 -41 -85 -86t-52 -86.5t-26 -76.5t-7 -55q0 -32 11.5 -51.5t37.5 -19.5q48 0 99 23.5t102 74.5q16 16 40.5 17.5t43.5 -17.5t17.5 -43.5t-17.5 -40.5q-29 -29 -62 -55t-71 -45t-81.5 -30t-94.5 -11q-75 0 -114 29t-50.5 77t1 109t42 125t72.5 125t91.5 109
t99 77t95.5 29q44 0 63 -23.5t19 -58.5q0 -49 -23.5 -92t-63 -79.5t-92 -67.5t-109.5 -56q17 45 52 89.5t83 82.5q7 5 7.5 12t-3.5 12.5t-10.5 7t-14.5 -4.5z" />
    <glyph glyph-name="y" unicode="y" horiz-adv-x="739" 
d="M823 131q-22 -22 -54 -50t-68 -56.5t-73.5 -56.5t-70.5 -50q26 51 48 104t48 109q25 22 48 45.5t38 38.5q17 17 41.5 18t42.5 -18q19 -19 17.5 -43.5t-17.5 -40.5zM137 121q0 46 17.5 92t40.5 92q4 8 2 14t-7 8.5t-11.5 0.5t-10.5 -11q-14 -24 -30.5 -65t-28.5 -96
l-25 -25q-16 -15 -40.5 -17t-43.5 17t-17 44t17 40q45 45 93 96.5t92 104.5t80 104.5t59 97.5q10 20 21.5 32t23.5 18t24.5 7t24.5 -1q21 -4 33.5 -15.5t18 -27.5t4 -33.5t-8.5 -32.5q-36 -74 -70.5 -139t-61.5 -118.5t-43 -94.5t-14 -68q0 -14 7 -21t18 -7q13 0 34 8.5
t48.5 30t61.5 59.5t73 98q9 29 22 67t30 78.5t37 79.5t43 69.5t48 49.5t52 19q39 0 57 -21.5t20.5 -57t-8.5 -80t-31.5 -90.5t-47.5 -89.5t-56 -75.5q20 84 42.5 153t47.5 128q4 7 1.5 13t-7 8t-10.5 0t-10 -9q-30 -60 -50 -124t-37.5 -130t-35.5 -132t-45 -130
q-64 -150 -128 -240t-123 -139t-109 -64.5t-85 -15.5q-59 0 -93 30.5t-34 86.5q0 39 20 68t52.5 52.5t74.5 43.5t85.5 40.5t86 44t76.5 54.5q-48 -99 -119.5 -173t-152.5 -103q-11 -4 -14.5 -11t-2 -13.5t7.5 -10t15 -0.5q43 15 91 47.5t95 87t90 132.5t76 185q3 8 -0.5 13
t-9 6.5t-11.5 -1t-9 -9.5q-11 -28 -18 -49.5t-19 -49.5q-34 -32 -71 -46.5t-79 -14.5q-24 0 -48.5 7t-43.5 22.5t-31 40.5t-12 61z" />
    <glyph glyph-name="z" unicode="z" horiz-adv-x="705" 
d="M788 131q-86 -85 -181 -146.5t-185 -103.5q6 29 10 62.5t6 68.5q85 50 154 105.5t113 97.5q15 16 40 17.5t43 -17.5q19 -19 17.5 -43.5t-17.5 -40.5zM37 -276q-11 -3 -15 -9.5t-2.5 -13t8 -10.5t15.5 -2q47 12 87.5 38t70.5 60.5t50 75t26.5 81.5t-1 80.5t-30.5 71.5
q-11 15 -12.5 35.5t6.5 39.5t26.5 32.5t48.5 13.5q73 0 125.5 22.5t86 56.5t48.5 73.5t13 73.5t-21 56.5t-53 22.5q-31 0 -56.5 -10.5t-51 -31.5t-54 -53t-66 -75.5t-86.5 -98.5t-116 -122q-16 -15 -40.5 -17t-43.5 17t-17 44t17 40q64 64 114 122.5t92.5 109t80 92t77 70.5
t84 45t99.5 16q48 0 83.5 -22t58 -58t30.5 -83t1 -97.5t-29.5 -101t-62.5 -93.5t-97.5 -74.5t-133.5 -44.5q3 -17 7 -33.5t4 -39.5q0 -84 -19.5 -150t-50.5 -115t-71 -83t-80.5 -55t-79 -30.5t-66.5 -9.5q-59 0 -93 30.5t-34 86.5q0 36 17 62.5t45 47t63.5 37t72 32.5t72 32
t62.5 37q-9 -40 -29.5 -76.5t-48.5 -66t-61.5 -50t-69.5 -28.5z" />
    <glyph glyph-name="braceleft" unicode="{" horiz-adv-x="901" 
d="M469 541q20 0 42 -3t41 -11t33 -21t19 -33q-18 -4 -42.5 -6.5t-50 -2t-51 5.5t-45 16.5t-32 30.5t-12.5 48q0 20 9 39.5t28 35t46.5 25t65.5 9.5q48 0 91.5 -16t76.5 -44.5t52.5 -68.5t19.5 -88q0 -63 -28.5 -111.5t-71.5 -88.5t-93.5 -76t-93.5 -74.5t-71.5 -84.5
t-28.5 -106q0 -26 14 -48t37 -22q32 0 47.5 -18.5t15 -40.5t-16.5 -40.5t-46 -18.5q-42 0 -74 15t-54.5 41t-34 60.5t-11.5 73.5q0 71 29 126t72.5 99.5t94 81t94 72.5t72.5 73.5t29 82.5q0 29 -13 51t-36 37t-54.5 22.5t-68.5 7.5q-9 0 -14 -4.5t-5 -10.5t5 -10.5t14 -4.5z
M868 903q0 -48 1 -97.5t-5.5 -97.5t-26 -92t-61.5 -81q-9 29 -25.5 53.5t-37.5 44.5q24 30 32.5 67t9 77t-3 81.5t-3.5 81.5q0 101 29 174.5t77 121t110.5 70.5t129.5 23q35 0 52.5 -20t17.5 -43.5t-17.5 -43.5t-52.5 -20q-46 0 -87 -19t-72 -56.5t-49 -93.5t-18 -130z" />
    <glyph glyph-name="bar" unicode="|" horiz-adv-x="983" 
d="M385 -55q-15 -33 -41 -40.5t-47 3t-31 35.5t6 57q34 69 81.5 168.5t102 216.5t112.5 244t114.5 250t107.5 234.5t91 197.5q16 35 42 46.5t48 3.5t32 -32.5t-6 -60.5q-42 -94 -94.5 -208.5t-109.5 -238t-115.5 -249t-112.5 -241.5t-100.5 -215.5t-79.5 -170.5z" />
    <glyph glyph-name="braceright" unicode="}" horiz-adv-x="942" 
d="M803 485q-27 13 -58.5 17.5t-64 -1t-65 -22t-60.5 -45.5q-31 -32 -42.5 -70.5t-13 -80t2.5 -84t4 -82.5q0 -102 -29 -175.5t-77 -121t-110.5 -70t-129.5 -22.5q-35 0 -53 20t-18 43.5t18 43.5t53 20q46 0 87 19t71.5 56.5t48.5 93.5t18 130q0 48 -1 97t6 97t26.5 92
t60.5 82q35 32 79 52t89 28.5t88 5.5t76 -17t53.5 -39t20.5 -60q0 -20 -9 -39.5t-28 -35t-47 -25t-66 -9.5q-42 0 -78 8.5t-67 30.5q42 40 96.5 49t103.5 -14q7 -3 13 -0.5t9 7.5t1.5 11t-8.5 10zM1004 1139q0 -68 -26.5 -121t-67 -96.5t-89 -79.5t-92 -70t-75.5 -69
t-40 -76q-67 -17 -120 -54v27q0 63 28.5 111.5t71.5 88.5t93.5 76t93.5 74.5t71.5 84.5t28.5 106q0 26 -14.5 47.5t-37.5 21.5q-32 0 -47.5 18.5t-14.5 41t16.5 41t45.5 18.5q42 0 74.5 -15t55 -41t34 -60.5t11.5 -73.5z" />
    <glyph glyph-name="asciitilde" unicode="~" horiz-adv-x="983" 
d="M823 606q28 0 52.5 10t46.5 33q9 10 20.5 17t24.5 9.5t26.5 -2t26.5 -16.5q12 -12 17 -26t3.5 -27.5t-7.5 -26.5t-15 -22q-43 -45 -91 -62.5t-93 -17.5q-67 0 -123 19t-104.5 42.5t-92.5 42.5t-88 19q-28 0 -52.5 -10t-45.5 -33q-9 -10 -21 -17t-25 -9.5t-26.5 2
t-26.5 16.5q-24 25 -20 54.5t22 47.5q44 45 93 62.5t94 17.5q67 0 122 -19t103.5 -42.5t92 -42.5t87.5 -19z" />
    <glyph glyph-name="exclamdown" unicode="&#xa1;" horiz-adv-x="547" 
d="M823 961q0 -32 -12.5 -58t-34 -45.5t-49 -30t-57.5 -10.5q-28 0 -52 9.5t-41.5 26.5t-27.5 39t-10 48q0 29 12.5 55t33 45.5t48 31t57.5 11.5q28 0 52.5 -9.5t42.5 -26t28 -38.5t10 -48zM455 246q-36 -128 -69.5 -214t-66.5 -138t-67.5 -74.5t-73.5 -22.5q-45 0 -65.5 25
t-20.5 65q0 55 19 104.5t51 100.5t74 107.5t89 126.5t95 157t92 199q14 35 38 46.5t44.5 4t30.5 -30.5t-4 -57q-75 -178 -144.5 -300t-124.5 -204t-91 -132.5t-44 -86.5q-2 -9 1.5 -15t9.5 -7.5t12.5 2t9.5 12.5q12 33 36 69.5t53 77t59.5 86.5t56.5 99z" />
    <glyph glyph-name="cent" unicode="&#xa2;" horiz-adv-x="860" 
d="M473 223q-84 0 -137.5 27t-80 72.5t-28 105t17.5 123.5t56.5 129t89 121.5t115.5 100t135 65.5l-38 -82t-38 -84q-46 -33 -85.5 -80t-67 -98t-42 -101.5t-10.5 -90t28.5 -64.5t74.5 -25q66 0 128.5 26t127.5 91q15 15 40 16.5t44 -16.5q18 -19 16.5 -44t-16.5 -40
q-81 -81 -165 -116.5t-165 -35.5zM768 754q12 17 15.5 33t-1.5 30l66 148q41 -23 58.5 -65.5t13.5 -86.5q-4 -37 -17.5 -68t-42.5 -65q-14 -17 -38 -21.5t-44 11.5q-20 17 -22 42t12 42zM891 1141q-35 -80 -76.5 -173t-85.5 -191.5t-89 -198t-87 -191.5q-15 -5 -33 -9.5
t-37.5 -5.5t-37.5 2.5t-33 14.5q45 98 93.5 203.5t96 209t91.5 201t79 179.5q16 37 42 48t48 2t33 -33.5t-4 -57.5zM367 -14q-15 -35 -40.5 -44.5t-48 -1t-34 32.5t3.5 56l86 186q55 -22 129 -22z" />
    <glyph glyph-name="sterling" unicode="&#xa3;" horiz-adv-x="1053" 
d="M893 416q-46 -6 -103.5 -4.5t-117 4.5t-116.5 4.5t-103 -4.5q-13 -2 -26.5 0.5t-24.5 9t-18.5 19t-8.5 30.5q-3 34 18 53.5t47 22.5q46 6 103.5 4.5t117 -4.5t117 -4.5t103.5 4.5q13 1 26 -1t24 -8.5t18 -19t9 -30.5q4 -35 -17.5 -54t-47.5 -22zM1169 827
q-29 -25 -56 -23t-43 19.5t-16.5 44.5t23.5 52q28 27 42 62t14 69q0 24 -7.5 46.5t-22 39.5t-36.5 27t-51 10q-55 0 -92 -24t-61.5 -66t-39 -99t-25 -123.5t-19 -139t-21.5 -144.5q-34 0 -69.5 2t-70.5 4q14 80 24 164t24.5 163.5t37.5 150t64 123t104 83t158 30.5
q62 0 106 -20.5t72 -54t41 -77t13 -89.5q0 -33 -6.5 -66t-18.5 -63t-29 -56t-39 -45zM711 383q-25 -69 -61.5 -127.5t-90.5 -103.5q-29 17 -57 36.5t-56 40.5q42 29 70 70t49 90q37 0 74.5 -2t71.5 -4zM166 135q24 4 46 0t44 -14.5t44 -26.5t46 -35q-29 -6 -61.5 -8
t-67.5 -2q-47 0 -81 10.5t-56.5 28t-33.5 39.5t-11 45q0 22 10.5 43.5t31.5 39t51.5 28t70.5 10.5q54 0 99 -16.5t85.5 -41.5t78.5 -53.5t79 -53.5t86 -41.5t100 -16.5q31 0 58 6.5t52.5 20t52 35.5t58.5 54q16 16 41 17.5t43 -17.5q19 -18 17.5 -43t-17.5 -41
q-45 -45 -84.5 -75t-76.5 -48.5t-74.5 -26t-79.5 -7.5q-71 0 -128.5 18.5t-105.5 45.5t-88.5 58t-78.5 55.5t-75.5 38t-78.5 5.5q-9 -2 -12.5 -7.5t-3 -11t5.5 -10t14 -2.5z" />
    <glyph glyph-name="currency" unicode="&#xa4;" horiz-adv-x="1174" 
d="M662 236q-57 0 -106 15.5t-87 41.5l104 84q20 -9 42 -14t47 -5q67 0 130.5 28t113 75t80 109.5t30.5 131.5v15.5t-2 15.5l104 86q9 -28 15 -57t6 -60q0 -93 -41 -177.5t-108 -148.5t-152.5 -102t-175.5 -38zM358 446q-12 46 -12 97q0 59 17.5 116.5t49.5 109.5t76 96.5
t97 77t113 51t124 18.5q50 0 93.5 -12t78.5 -33l-106 -88q-16 5 -32.5 7.5t-33.5 2.5q-71 0 -135 -29.5t-112.5 -79t-77.5 -113.5t-29 -132zM846 637l-74 104l447 369q32 27 60 24.5t43 -21.5t13 -46.5t-30 -50.5zM610 610l74 -104l-444 -356q-22 -17 -42 -21.5t-36 1
t-26.5 18t-12.5 29t5 34t26 33.5zM565 723q22 29 50.5 54t60.5 42l229 -315q-49 -55 -119 -86zM362 1018q-20 30 -12.5 59t28.5 45.5t50 13t53 -37.5l90 -129q-32 -20 -59.5 -43t-52.5 -49zM895 268q32 19 62.5 40.5t56.5 47.5l90 -120q19 -26 11 -52.5t-29.5 -43t-50 -16
t-50.5 29.5z" />
    <glyph glyph-name="yen" unicode="&#xa5;" horiz-adv-x="1061" 
d="M428 94q52 63 98 143t82.5 167.5t64 178.5t43 176t18 160t-9.5 131t-40 88.5t-74 32.5q-32 0 -63.5 -12.5t-57 -36.5t-43.5 -59t-24 -80q-4 -29 -24 -42.5t-42 -12t-39 19t-14 51.5q4 52 29.5 104.5t67 95t97.5 69t121 26.5q82 0 133.5 -38t78 -102.5t30.5 -151
t-9 -183.5t-40 -199.5t-64 -199.5t-80 -183.5t-88 -151t-88.5 -102.5t-80.5 -38q-34 0 -54 16.5t-27 43t-1.5 60.5t21.5 69.5t41 70t59 61.5h59q-22 -38 -50.5 -77t-54.5 -76q-5 -7 -4 -13.5t5.5 -10t11 -3t12.5 7.5zM1325 1118q-48 -21 -105.5 -57t-119 -89t-124 -124
t-118.5 -162q29 128 35 242q28 39 76 86.5t102.5 92.5t111 81.5t101.5 54.5q32 12 55 -0.5t31.5 -35t-1.5 -48.5t-44 -41zM305 428q22 3 53.5 4t68 0.5t77 -2t82.5 -2.5q-13 -34 -28 -67t-34 -64h-37q-52 2 -95.5 0.5t-74.5 -4.5q-13 -2 -26 0.5t-24 9t-18.5 19t-8.5 30.5
q-3 34 18 53.5t47 22.5zM428 662q38 4 100.5 3.5t133.5 -1.5q-8 -35 -17.5 -67.5t-23.5 -66.5q-56 2 -103 0.5t-78 -4.5q-26 -3 -50 10t-28 50q-3 34 18.5 53t47.5 23zM1014 526q-35 -5 -88 -5.5t-113 1.5q21 67 39 135q45 -2 83.5 -1t65.5 6q13 1 26.5 -1t24.5 -9t18 -19.5
t9 -30.5q3 -34 -18 -53.5t-47 -22.5zM891 293q-31 -5 -74 -5.5t-96 1.5q15 32 30 65.5t27 67.5q60 0 101 6q13 1 26 -1t24 -8.5t18 -19t9 -30.5q4 -34 -17.5 -53.5t-47.5 -22.5z" />
    <glyph glyph-name="brokenbar" unicode="&#xa6;" horiz-adv-x="983" 
d="M522 524q16 35 42.5 46.5t49 3.5t32.5 -32.5t-7 -60.5q-65 -139 -131.5 -277.5t-122.5 -258.5q-15 -33 -41 -40.5t-47 3t-31 35.5t6 57q62 122 123.5 254.5t126.5 269.5zM637 774q62 122 126.5 260.5t129.5 276.5q16 35 42.5 46.5t49 3.5t32.5 -32.5t-7 -60.5
q-32 -69 -66.5 -141t-68 -142t-64.5 -135.5t-57 -122.5q-17 -36 -43.5 -45.5t-48 0.5t-31.5 35t6 57z" />
    <glyph glyph-name="section" unicode="&#xa7;" horiz-adv-x="1229" 
d="M1053 760q-14 31 -30 60t-32 57l72 57q63 50 97.5 99.5t48 95.5t8 85.5t-23 69t-45 46t-58.5 16.5q-37 0 -77 -14t-73 -41.5t-54.5 -68.5t-21.5 -94q0 -55 15 -100.5t38 -87t49.5 -84t49.5 -91t38 -108t15 -135.5q0 -85 -31 -151q-18 -36 -45.5 -45t-49.5 2t-30.5 38
t11.5 62q12 22 15 48.5t3 53.5q0 52 -15.5 97t-39 88.5t-51 87.5t-51 92.5t-39 104t-15.5 122.5q0 58 21.5 120.5t66.5 113.5t113.5 84t163.5 33q69 0 123.5 -29t88 -78t43.5 -113.5t-8.5 -136.5t-68 -146.5t-135.5 -142.5zM745 532q-32 54 -57 111l143 109q17 -29 33 -57.5
t27 -57.5zM524 528q14 -31 30 -59.5t32 -56.5l-72 -58q-62 -49 -97 -99t-48.5 -95.5t-8.5 -85t23 -69t45.5 -46t58.5 -16.5q37 0 77 14t73 41.5t54.5 68t21.5 93.5q0 55 -15 100.5t-38 87t-49.5 84t-49.5 91t-38 108t-15 135.5q0 84 31 152q18 36 45.5 44.5t49.5 -2.5
t30.5 -38t-11.5 -62q-12 -22 -15 -48t-3 -54q0 -52 15.5 -97t39 -88.5t51 -87.5t51 -92.5t39 -104t15.5 -122.5q0 -39 -9.5 -80t-29 -80t-49.5 -73.5t-70.5 -60.5t-92 -41t-114.5 -15q-69 0 -123.5 29t-88 77.5t-43.5 113.5t8.5 136.5t68 146t135.5 142.5z" />
    <glyph glyph-name="dieresis" unicode="&#xa8;" horiz-adv-x="725" 
d="M262 885q2 24 14 45.5t30 37t41.5 24.5t49.5 9q25 0 47 -9t38 -24.5t24 -37t6 -45.5q-2 -25 -13 -46.5t-28.5 -37t-41 -24.5t-48.5 -9q-27 0 -50 9t-39 24.5t-24 37t-6 46.5zM580 885q2 24 13.5 45.5t30 37t42 24.5t49.5 9q25 0 47.5 -9t38.5 -24.5t24.5 -37t5.5 -45.5
q-2 -25 -13.5 -46.5t-29.5 -37t-41.5 -24.5t-48.5 -9q-26 0 -48.5 9t-38.5 24.5t-24.5 37t-6.5 46.5z" />
    <glyph glyph-name="copyright" unicode="&#xa9;" horiz-adv-x="1321" 
d="M174 539q0 116 43.5 218t119 177.5t177 119.5t217.5 44q77 0 148.5 -20t133.5 -56.5t113 -87.5t87.5 -113t56.5 -133.5t20 -148.5q0 -116 -44 -217.5t-119.5 -177t-177.5 -119t-218 -43.5t-217.5 43.5t-177 119t-119 177t-43.5 217.5zM276 539q0 -95 35.5 -177.5
t97.5 -144.5t144.5 -97.5t177.5 -35.5q94 0 177.5 35.5t145.5 97.5t98 144.5t36 177.5q0 94 -36 177.5t-98 145t-145.5 97.5t-177.5 36q-95 0 -177.5 -36t-144.5 -97.5t-97.5 -145t-35.5 -177.5zM430 539q0 78 29 137t74 98.5t100 59.5t108 20q81 0 141 -30t91 -83
q12 -21 5.5 -40t-22 -29.5t-35 -8.5t-34.5 23q-49 70 -152 70q-36 0 -71 -14.5t-63 -42t-45 -68t-17 -92.5q0 -53 15.5 -93t42.5 -68t62.5 -42t75.5 -14q45 0 86 18t66 53q15 22 34.5 23.5t35 -9t22 -29.5t-5.5 -40q-31 -53 -91 -84t-141 -31q-53 0 -108 20t-100 59.5
t-74 99t-29 137.5z" />
    <glyph glyph-name="ordfeminine" unicode="&#xaa;" horiz-adv-x="717" 
d="M545 815q-6 -26 0 -61q-32 -25 -67.5 -38.5t-76.5 -13.5q-25 0 -48.5 9.5t-41.5 28t-28.5 46.5t-10.5 66q0 45 17.5 92.5t47 92.5t68 85t81 70t85.5 47.5t82 17.5q31 0 45.5 -17t13 -38t-16.5 -38t-42 -17q-46 0 -93 -29.5t-84.5 -72.5t-61 -92.5t-23.5 -88.5
q0 -20 7 -34.5t26 -14.5q42 0 82.5 32t79 83.5t75.5 115.5l74 128q19 33 46 39.5t48 -5t30 -36.5t-9 -56q-38 -67 -67.5 -116t-49 -83.5t-29.5 -56t-10 -33.5q0 -14 15 -14t38.5 21t57.5 55q20 20 40.5 18t33.5 -16t14.5 -35t-16.5 -39q-54 -54 -101.5 -84.5t-101.5 -30.5
q-22 0 -41.5 7t-33 21.5t-20 35t-1.5 47.5q1 8 -3 12.5t-10 5.5t-12 -3t-8 -13z" />
    <glyph glyph-name="guillemotleft" unicode="&#xab;" horiz-adv-x="1106" 
d="M516 129q24 -26 20 -54.5t-23 -46t-47.5 -16.5t-53.5 33q-15 18 -33.5 41.5t-39.5 49t-42.5 52t-42.5 52.5q-16 19 -25.5 43t-7 48.5t18 47t49.5 37.5q67 40 120.5 73.5t97.5 61t81.5 50.5t73.5 44q35 21 60.5 14t36.5 -27t4 -45.5t-36 -43.5q-34 -20 -65.5 -40t-69 -44
t-84 -54.5t-109.5 -70.5q-9 11 -16 21.5t-10 15.5q-5 6 -11.5 6t-11.5 -3.5t-7 -10t3 -13.5q43 -60 69 -95.5t43 -57.5t29.5 -36t28.5 -32zM885 129q16 -17 19 -36.5t-3 -36t-19.5 -28.5t-30 -15t-35.5 3.5t-36 28.5q-15 18 -33.5 41.5t-39 49t-42 52t-42.5 52.5
q-16 19 -25.5 43t-7.5 48.5t17.5 47t49.5 37.5q68 40 121 73.5t97 61t81.5 50.5t73.5 44q35 21 61 14t36.5 -27t4 -45.5t-35.5 -43.5q-34 -20 -65.5 -40t-69 -44t-84 -54.5t-109.5 -70.5q-9 11 -16.5 21.5t-10.5 15.5q-5 6 -11 6t-11 -3.5t-7 -10t3 -13.5q43 -60 68.5 -95.5
t43 -57.5t30 -36t28.5 -32z" />
    <glyph glyph-name="logicalnot" unicode="&#xac;" horiz-adv-x="983" 
d="M817 524q-44 1 -94 2t-101 2.5t-101.5 3t-94.5 2t-80 0t-59 -3.5q-13 -2 -26.5 0.5t-24.5 9.5t-18.5 19.5t-8.5 30.5q-3 34 18 53.5t47 22.5q28 4 76 4.5t106 -0.5t122.5 -3t126.5 -3.5t116.5 -1.5t93.5 2q34 8 59.5 0.5t37.5 -26.5t8.5 -47t-25.5 -59q-21 -44 -41.5 -87
t-39.5 -83t-35.5 -75.5t-28.5 -63.5q-16 -36 -42.5 -44.5t-48.5 1.5t-32 35t6 57q25 48 58.5 119.5t82.5 177.5q4 8 2 13.5t-7.5 8t-12 0t-10.5 -10.5z" />
    <glyph glyph-name="registered" unicode="&#xae;" horiz-adv-x="1321" 
d="M174 539q0 116 43.5 218t119 177.5t177 119.5t217.5 44q77 0 148.5 -20t133.5 -56.5t113 -87.5t87.5 -113t56.5 -133.5t20 -148.5q0 -116 -44 -217.5t-119.5 -177t-177.5 -119t-218 -43.5t-217.5 43.5t-177 119t-119 177t-43.5 217.5zM276 539q0 -95 35.5 -177.5
t97.5 -144.5t144.5 -97.5t177.5 -35.5q94 0 177.5 35.5t145.5 97.5t98 144.5t36 177.5q0 94 -36 177.5t-98 145t-145.5 97.5t-177.5 36q-95 0 -177.5 -36t-144.5 -97.5t-97.5 -145t-35.5 -177.5zM504 834h332q33 0 61.5 -12.5t50 -33.5t33.5 -50t12 -62q0 -31 -11 -58
t-29.5 -48t-44 -34.5t-54.5 -17.5l121 -201q14 -24 7 -43.5t-23.5 -29.5t-37.5 -6.5t-36 26.5l-150 254h-125v-231q0 -27 -16.5 -40.5t-36.5 -13.5t-36.5 13.5t-16.5 40.5v547zM610 737v-123h226q23 0 39 17t16 45t-16 44.5t-39 16.5h-226z" />
    <glyph glyph-name="macron" unicode="&#xaf;" horiz-adv-x="610" 
d="M649 815q-43 -6 -80.5 -4.5t-74 4.5t-74 4.5t-80.5 -4.5q-12 -2 -24 0.5t-22 9t-17.5 18t-8.5 29.5q-3 29 17 48t45 22q43 5 80 3.5t73.5 -4.5t74 -4t81.5 5q12 1 24 -1t22 -8.5t17 -18t9 -29.5q1 -15 -4 -27.5t-14 -21.5t-20.5 -14.5t-23.5 -6.5z" />
    <glyph glyph-name="degree" unicode="&#xb0;" horiz-adv-x="573" 
d="M297 1016q7 49 31.5 92t61 75.5t82.5 51t95 18.5t89.5 -18.5t68 -51t40 -75.5t5.5 -92q-8 -49 -33 -92t-62.5 -75t-83.5 -50.5t-95 -18.5t-89.5 18.5t-67.5 50.5t-38.5 75t-3.5 92zM496 883q31 0 59.5 12t51.5 32t38.5 47.5t20.5 59.5q4 25 -2 46t-19 37t-33 25t-45 9
q-31 0 -59.5 -12t-51.5 -32.5t-38.5 -48.5t-20.5 -59q-4 -24 2 -45.5t19 -37t33 -24.5t45 -9z" />
    <glyph glyph-name="plusminus" unicode="&#xb1;" horiz-adv-x="983" 
d="M811 184q-31 -4 -84.5 -4.5t-118 1t-135.5 4t-135.5 3.5t-118 0.5t-84.5 -4.5q-13 -2 -26.5 0.5t-24.5 9.5t-18.5 19.5t-8.5 30.5q-2 17 3.5 30t15 22.5t22 15t25.5 7.5q31 4 84.5 4.5t118 -0.5t135.5 -3.5t135.5 -4t118 -1t84.5 4.5q26 4 50 -9t28 -50q1 -17 -4 -30.5
t-14.5 -23t-22 -15.5t-25.5 -7zM295 682q19 2 48.5 3t66 1t78 -0.5t85.5 -1.5l-63 -133q-66 2 -119 0.5t-84 -4.5q-13 -2 -26.5 0.5t-24.5 9t-18.5 19t-8.5 30.5q-2 17 3.5 30.5t15 23t22 15t25.5 7.5zM983 547q-19 -3 -47.5 -4.5t-64 -1.5t-75.5 1t-83 3l65 133
q63 -2 112.5 -1.5t80.5 5.5q13 1 26 -1t24 -8.5t18.5 -19t9.5 -30.5q1 -17 -4 -30.5t-14.5 -23t-22 -15.5t-25.5 -7zM864 911q-30 -54 -66.5 -125t-74 -147t-73.5 -152t-66 -141q-34 2 -67.5 3t-67.5 1q32 66 71 148t79.5 166t79.5 162t71 137q21 37 49 47.5t49 0.5
t28.5 -37t-12.5 -63z" />
    <glyph glyph-name="twosuperior" unicode="&#xb2;" horiz-adv-x="782" 
d="M938 1049q-12 -85 -54 -154.5t-100 -124.5t-124 -96.5t-125 -69.5q-12 8 -29 19t-35.5 21.5t-36.5 19t-33 12.5q80 30 152 71t128 89.5t92 103.5t44 113q5 34 -2 61t-22.5 46t-37.5 28.5t-46 9.5t-49 -9.5t-46.5 -28t-38.5 -47t-24 -66.5q-6 -32 -27.5 -45t-43.5 -10
t-37.5 22t-10.5 51q11 61 40 108t68 79.5t84.5 49.5t90.5 17q48 0 92 -17.5t76.5 -51.5t48 -84.5t6.5 -116.5zM612 430q-55 0 -96 20t-76 44.5t-68 44.5t-71 20q-10 0 -15 -5t-5.5 -10.5t4.5 -10.5t14 -5q26 0 45 -9t35 -23q-19 -5 -29.5 -6t-21.5 -1q-29 0 -51 7.5t-36 20
t-21 28.5t-7 33q0 16 7 31.5t20.5 27.5t34 19.5t47.5 7.5q45 0 84 -20.5t79 -43.5q32 -20 64.5 -34.5t60.5 -14.5t53 14t50 37q21 21 44.5 19.5t39 -17t18 -39.5t-17.5 -47q-39 -43 -86.5 -65.5t-98.5 -22.5z" />
    <glyph glyph-name="threesuperior" unicode="&#xb3;" horiz-adv-x="766" 
d="M594 979q54 0 91.5 -20.5t60 -53t32.5 -73t10 -80.5q0 -53 -20.5 -109t-60 -101.5t-98.5 -74.5t-136 -29q-64 0 -110 19t-75 50t-43 69t-13.5 77t13.5 74t38 59q22 22 45 21.5t37 -15.5t15.5 -39t-18.5 -48q-18 -21 -19.5 -47.5t13 -49.5t46 -39t79.5 -16q51 0 87.5 19.5
t60.5 49.5t35.5 66t11.5 70q0 20 -4 42t-15.5 40.5t-32 30.5t-53.5 12q-9 0 -13.5 -5t-4.5 -10.5t4 -10.5t12 -5q23 0 42 -11t24 -30h-35q-27 0 -47.5 7t-34 18.5t-20 25.5t-6.5 29q0 16 7 32t20 28.5t32 20t43 7.5zM911 1116q0 -32 -8 -64t-23 -63t-36.5 -58.5t-48.5 -49.5
q-11 24 -26.5 46.5t-37.5 39.5q32 31 49 69.5t17 75.5q0 35 -15.5 58t-39 33.5t-51.5 9t-53 -14t-43 -36.5t-22 -58q-3 -29 -21.5 -41.5t-39 -10t-36 19t-11.5 46.5q8 65 44.5 109.5t86 68t105 25t102.5 -20t77.5 -67.5t30.5 -117z" />
    <glyph glyph-name="acute" unicode="&#xb4;" horiz-adv-x="506" 
d="M373 743q-25 -19 -49 -15.5t-37.5 19t-13 39.5t25.5 45l188 164q20 18 39 21.5t34.5 -2.5t26 -19.5t13.5 -30t-4 -34t-25 -31.5z" />
    <glyph glyph-name="uni00B5" unicode="&#xb5;" horiz-adv-x="1139" 
d="M836 0v117q-111 -129 -291 -129q-82 0 -147 23.5t-113 68.5v-551h-105v1458h105v-612q0 -144 69.5 -219.5t202.5 -75.5t206 77t73 218v612h104v-987h-104z" />
    <glyph glyph-name="paragraph" unicode="&#xb6;" horiz-adv-x="1229" 
d="M645 430q-74 -131 -132 -233t-107 -183q-22 -35 -15 -60t28 -34t49.5 1.5t49.5 47.5q36 61 83 142t98.5 171t105.5 183.5t103.5 180.5t92 162.5t72.5 129.5q27 50 49 99.5t33.5 95.5t11.5 85.5t-16 69t-51 46t-92 16.5q-82 0 -158.5 -33t-142 -87t-116 -122.5t-80 -140.5
t-35.5 -140.5t18.5 -122.5t82 -87t154.5 -33q29 0 57 2.5t56 7.5l-78 -135q-12 -2 -23.5 -2h-23.5q-105 0 -178 28.5t-118.5 77.5t-64 114t-14 138.5t30 150.5t69 150.5t103.5 138.5t133 114t156.5 77.5t175.5 28.5q80 0 136.5 -22.5t91 -61t49 -90.5t11 -111t-24.5 -122
t-56 -124q-49 -85 -104.5 -182.5t-112.5 -197t-112.5 -197t-103 -181.5t-85 -150t-58.5 -104q-37 -67 -88 -101t-103 -40.5t-98 11.5t-72.5 55.5t-27.5 92t37 120.5l223 389q60 -23 131 -29zM924 938q-42 -81 -86.5 -162t-89.5 -162q-48 0 -79.5 6t-56.5 15
q50 87 100.5 175.5t96.5 178.5q19 37 46 46t48 -1.5t30 -36.5t-9 -59zM1272 680q-123 -105 -262 -164l112 197q19 12 37 26t37 31q26 24 50.5 20.5t38 -21t12.5 -43t-25 -46.5z" />
    <glyph glyph-name="periodcentered" unicode="&#xb7;" horiz-adv-x="983" 
d="M481 621q0 31 13 57.5t34 45.5t49 29.5t58 10.5q28 0 52 -9.5t41.5 -26.5t27.5 -39.5t10 -47.5q0 -29 -12.5 -55t-33.5 -45.5t-48.5 -31t-57.5 -11.5q-28 0 -52.5 9.5t-42.5 26t-28 39t-10 48.5z" />
    <glyph glyph-name="cedilla" unicode="&#xb8;" horiz-adv-x="539" 
d="M434 -213q0 -45 -18.5 -77t-49 -52t-68.5 -29t-76.5 -8t-74.5 10.5t-61 26.5q-18 13 -19 33t9 36t28.5 23.5t40.5 -4.5q19 -10 48 -16t55.5 -4.5t45.5 13t19 36.5q0 24 -18 30.5t-37 4.5q-18 -15 -38 -15t-34.5 11.5t-19 31t9.5 43.5l80 129q16 26 39 30t40.5 -7
t24 -34.5t-9.5 -51.5l-12 -23q-12 3 -30.5 2.5t-35.5 -6.5q-8 -2 -10.5 -8t-1 -12t6.5 -9.5t14 -1.5q24 8 50.5 5.5t49.5 -15.5t38 -36t15 -56z" />
    <glyph glyph-name="onesuperior" unicode="&#xb9;" horiz-adv-x="614" 
d="M362 518q61 133 131 267.5t142 285.5q4 8 1 14t-9 8t-13.5 -0.5t-11.5 -11.5q-9 -15 -21 -41t-24 -49q-43 -32 -89.5 -60.5t-88.5 -49.5q-30 -15 -52.5 -5.5t-32 30t-2 45.5t37.5 40q23 12 64 37t91 60t104.5 78.5t104.5 93.5q20 29 49 35.5t52 -5.5t32 -39.5t-10 -66.5
q-84 -174 -168 -350t-170 -363q-11 -23 -27 -35t-33 -15t-33 3t-25 19t-10 32t11 43z" />
    <glyph glyph-name="ordmasculine" unicode="&#xba;" horiz-adv-x="717" 
d="M457 698q-45 0 -78.5 12.5t-55.5 35t-33.5 53.5t-13.5 67q-2 43 10 88.5t35.5 89t56.5 82.5t72.5 68t84.5 46t92 17q54 0 90.5 -28t48.5 -76q-29 12 -61.5 3t-55.5 -26q-3 10 -12.5 14.5t-20.5 4.5q-25 0 -51.5 -12t-51.5 -33t-47 -48.5t-38.5 -58t-25.5 -63t-7 -62.5
q2 -31 19.5 -48t48.5 -17q48 0 94 22q18 -53 61 -81q-40 -25 -81.5 -37.5t-79.5 -12.5zM709 997q-26 -27 -31 -59.5t6 -56t38 -30.5t66 17q23 14 43 6t28.5 -25.5t2 -39t-36.5 -35.5q-57 -27 -104.5 -26.5t-80.5 22.5t-49.5 63t-12.5 95q2 43 16.5 79.5t36.5 63t48 41
t52 14.5t41.5 -14t22.5 -36.5t6 -49.5t-7 -53.5t-16.5 -49t-23.5 -34.5q-26 -3 -35 7t-8.5 25.5t7.5 32t15 25.5q4 5 3.5 11.5t-4.5 10.5t-10 4t-13 -8z" />
    <glyph glyph-name="guillemotright" unicode="&#xbb;" horiz-adv-x="1147" 
d="M987 377q8 4 9 10.5t-2 11t-9 6.5t-12 -2q-8 -5 -22.5 -12.5t-26.5 -15.5q-29 42 -63 84t-66 78q-24 26 -20.5 54.5t23 45.5t47.5 16.5t54 -32.5q15 -19 33.5 -42t39 -48.5t42.5 -52.5t43 -52q16 -19 25.5 -43t7 -48.5t-18 -47t-49.5 -37.5q-68 -41 -121 -74t-97 -61
t-81.5 -51t-73.5 -44q-35 -21 -60.5 -14t-36.5 27t-4 46t36 44q68 40 172 106t231 148zM618 377q8 4 9 10.5t-2 11t-9 6.5t-12 -2q-8 -5 -22.5 -12.5t-26.5 -15.5q-29 42 -63 84t-66 78q-16 17 -19 36t3 35.5t19 28.5t30 15.5t35.5 -3.5t35.5 -28q15 -19 33.5 -42
t39.5 -48.5t42.5 -52.5t42.5 -52q16 -19 25.5 -43t7 -48.5t-18 -47t-49.5 -37.5q-68 -41 -121 -74t-96.5 -61t-81 -51t-73.5 -44t-61.5 -14t-36.5 27t-4 46t36 44q68 40 172.5 106t230.5 148z" />
    <glyph glyph-name="onequarter" unicode="&#xbc;" horiz-adv-x="1581" 
d="M1485 764q15 32 39.5 42t44.5 2t29.5 -30.5t-5.5 -54.5q-85 -178 -167 -356.5t-162 -352.5q-15 -33 -40 -42t-45.5 -1t-30.5 31t5 55q82 178 166.5 353.5t165.5 353.5zM1491 209q-29 -17 -58.5 -24t-60.5 -9l58 125l10 6q27 16 48.5 9t31.5 -25.5t4.5 -42t-33.5 -39.5z
M1415 764q-56 -146 -109.5 -245t-109.5 -159q-25 11 -48 25t-52 27q55 52 105.5 149t107.5 238q11 28 33 37t42 3t31 -26t0 -49zM1192 213q-41 15 -72 32t-56.5 31.5t-48 23.5t-46.5 9q-9 0 -13 -4.5t-4 -10.5t4 -10.5t13 -4.5q20 0 36 -7t31 -16q-15 -5 -30 -5.5t-29 -0.5
q-45 0 -65.5 23t-20.5 49q0 30 27.5 55.5t82.5 25.5q28 0 58 -11t60 -26t60.5 -30t59.5 -23zM401 27q-27 -27 -54 -26t-43.5 18.5t-17.5 44.5t25 53q82 77 174.5 167.5t189.5 187.5t196 197t193.5 196t182 184.5t162.5 162.5q31 31 59.5 31t44.5 -18t15 -47.5t-29 -55.5
q-82 -77 -174.5 -168t-189.5 -188t-196 -197t-193.5 -196t-182 -184t-162.5 -162zM362 518q61 133 131 267.5t142 285.5q4 8 1 14t-9 8t-13.5 -0.5t-11.5 -11.5q-9 -15 -21 -41t-24 -49q-43 -32 -89.5 -60.5t-88.5 -49.5q-30 -15 -52.5 -5.5t-32 30t-2 45.5t37.5 40
q23 12 64 37t91 60t104.5 78.5t104.5 93.5q20 29 49 35.5t52 -5.5t32 -39.5t-10 -66.5q-84 -174 -168 -350t-170 -363q-11 -23 -27 -35t-33 -15t-33 3t-25 19t-10 32t11 43z" />
    <glyph glyph-name="onehalf" unicode="&#xbd;" horiz-adv-x="1640" 
d="M401 27q-27 -27 -54 -26t-43.5 18.5t-17.5 44.5t25 53q82 77 174.5 167.5t189.5 187.5t196 197t193.5 196t182 184.5t162.5 162.5q31 31 59.5 31t44.5 -18t15 -47.5t-29 -55.5q-82 -77 -174.5 -168t-189.5 -188t-196 -197t-193.5 -196t-182 -184t-162.5 -162zM362 518
q61 133 131 267.5t142 285.5q4 8 1 14t-9 8t-13.5 -0.5t-11.5 -11.5q-9 -15 -21 -41t-24 -49q-43 -32 -89.5 -60.5t-88.5 -49.5q-30 -15 -52.5 -5.5t-32 30t-2 45.5t37.5 40q23 12 64 37t91 60t104.5 78.5t104.5 93.5q20 29 49 35.5t52 -5.5t32 -39.5t-10 -66.5
q-84 -174 -168 -350t-170 -363q-11 -23 -27 -35t-33 -15t-33 3t-25 19t-10 32t11 43zM1661 565q-12 -84 -54 -153.5t-100 -124.5t-124.5 -96.5t-125.5 -69.5q-12 7 -29 18t-35 21.5t-36 19.5t-33 13q80 30 152 70.5t128 89.5t92 104t44 112q5 35 -2 62t-22.5 46t-37.5 28.5
t-46 9.5t-49 -9.5t-46.5 -28t-38.5 -47t-24 -67.5q-6 -32 -27.5 -45t-43.5 -9.5t-37.5 22.5t-10.5 51q11 60 40 107.5t68 80t84.5 49.5t90.5 17q48 0 92 -17.5t76.5 -52t48 -85t6.5 -116.5zM1335 -53q-55 0 -96 20t-76 44.5t-68 44.5t-71 20q-10 0 -15 -5t-5.5 -10.5
t4.5 -10.5t14 -5q26 0 45 -9.5t35 -23.5q-19 -5 -29.5 -5.5t-21.5 -0.5q-29 0 -51 7.5t-36 19.5t-21 28t-7 33q0 16 7 31.5t20.5 27.5t33.5 19.5t47 7.5q45 0 84.5 -20t79.5 -43q32 -20 64.5 -34.5t60.5 -14.5t53 14t50 37q21 21 44.5 19.5t39 -17t18 -39.5t-17.5 -47
q-39 -44 -86.5 -66t-98.5 -22z" />
    <glyph glyph-name="threequarters" unicode="&#xbe;" horiz-adv-x="1636" 
d="M1540 764q15 32 39.5 42t45 2t30 -30.5t-5.5 -54.5q-85 -178 -167.5 -356.5t-162.5 -352.5q-15 -33 -40 -42t-45.5 -1t-30.5 31t5 55q82 178 167 353.5t165 353.5zM1546 209q-29 -17 -58.5 -24t-60.5 -9l58 125l10 6q27 16 48.5 9t31.5 -25.5t4.5 -42t-33.5 -39.5z
M1470 764q-55 -146 -109 -245t-110 -159q-24 11 -47.5 25t-52.5 27q56 52 106 149t107 238q12 28 34 37t41.5 3t30.5 -26t0 -49zM1057 403q28 0 58 -11t60 -26l60 -30t59 -23l-47 -100q-41 15 -71.5 32t-56 31.5t-48 23.5t-47.5 9q-9 0 -13 -4.5t-4 -10.5t4 -10.5t13 -4.5
q20 0 36 -7t32 -16q-16 -5 -31 -5.5t-29 -0.5q-45 0 -65.5 23t-20.5 49q0 30 27.5 55.5t83.5 25.5zM457 27q-27 -27 -54.5 -26t-44 18.5t-17 44.5t25.5 53q82 77 174 167.5t189 187.5t196 197t193.5 196t182 184.5t162.5 162.5q31 31 59.5 31t44.5 -18t15 -47.5t-29 -55.5
q-82 -77 -174 -168t-189 -188t-196 -197t-193.5 -196t-182 -184t-162.5 -162zM594 979q54 0 91.5 -20.5t60 -53t32.5 -73t10 -80.5q0 -53 -20.5 -109t-60 -101.5t-98.5 -74.5t-136 -29q-64 0 -110 19t-75 50t-43 69t-13.5 77t13.5 74t38 59q22 22 45 21.5t37 -15.5t15.5 -39
t-18.5 -48q-18 -21 -19.5 -47.5t13 -49.5t46 -39t79.5 -16q51 0 87.5 19.5t60.5 49.5t35.5 66t11.5 70q0 20 -4 42t-15.5 40.5t-32 30.5t-53.5 12q-9 0 -13.5 -5t-4.5 -10.5t4 -10.5t12 -5q23 0 42 -11t24 -30h-35q-27 0 -47.5 7t-34 18.5t-20 25.5t-6.5 29q0 16 7 32
t20 28.5t32 20t43 7.5zM911 1116q0 -32 -8 -64t-23 -63t-36.5 -58.5t-48.5 -49.5q-11 24 -26.5 46.5t-37.5 39.5q32 31 49 69.5t17 75.5q0 35 -15.5 58t-39 33.5t-51.5 9t-53 -14t-43 -36.5t-22 -58q-3 -29 -21.5 -41.5t-39 -10t-36 19t-11.5 46.5q8 65 44.5 109.5t86 68
t105 25t102.5 -20t77.5 -67.5t30.5 -117z" />
    <glyph glyph-name="questiondown" unicode="&#xbf;" horiz-adv-x="948" 
d="M993 961q0 -32 -12.5 -58t-34 -45.5t-49 -30t-57.5 -10.5q-28 0 -52 9.5t-41.5 26.5t-27.5 39t-10 48q0 29 12.5 55t33 45.5t48 31t57.5 11.5q28 0 52.5 -9.5t42.5 -26t28 -38.5t10 -48zM702 666q-6 -29 -17.5 -49.5t-26.5 -35.5t-32 -24.5t-34 -15.5q8 36 21 71t32.5 63
t47 45.5t65.5 18.5q27 0 46.5 -14.5t30 -37.5t10 -52.5t-13.5 -59.5q-23 -52 -56.5 -86.5t-73.5 -58.5t-84 -40.5t-87.5 -33t-83.5 -36t-72 -49t-53.5 -72t-27.5 -105.5q-5 -48 12 -83.5t47 -59t68.5 -35.5t77.5 -12q43 0 85 15t76 44t55 72t21 100q0 31 21.5 48t47 18
t47 -16.5t21.5 -55.5q0 -87 -35 -155t-91 -114.5t-126.5 -71t-142.5 -24.5q-62 0 -123.5 23t-109 68.5t-73 112.5t-13.5 155q10 76 38 129t67.5 90t87 61.5t96.5 43.5t97 36.5t87 40.5t66.5 55t37.5 80q1 9 -3 14.5t-10 6t-12 -3t-8 -10.5z" />
    <glyph glyph-name="Agrave" unicode="&#xc0;" horiz-adv-x="1337" 
d="M285 319q0 -78 23.5 -131.5t65.5 -83t99 -35t123.5 11t140 55.5t148.5 100q-2 -19 -3 -37t-1 -33q0 -23 2 -44.5t8 -47.5q-91 -61 -181.5 -98t-173.5 -46.5t-155 7.5t-125 63.5t-83 122.5t-30 184q0 105 28.5 216t79 220t120 214t151.5 198.5t173.5 172t186 135t189 88.5
t182.5 32q73 0 125 -18.5t85 -51t48 -75.5t15 -92q0 -48 -13 -99t-37 -101t-58.5 -96t-78.5 -83q-30 -26 -58.5 -23t-45 22t-15.5 48t31 55q28 24 54 55t46 65.5t32 69t12 66.5q0 25 -8.5 47t-27 38t-48.5 25t-72 9q-66 0 -142.5 -27t-156 -75t-159 -115.5t-152.5 -148
t-135.5 -172.5t-109 -189.5t-73 -198.5t-26.5 -199zM913 166q0 72 21 153t55.5 161.5t79.5 154t93 129.5t95 89.5t86 33.5q36 0 55 -23.5t19 -68.5q0 -39 -14.5 -85.5t-39.5 -97t-57.5 -102t-68.5 -100t-73 -93t-70 -79.5q7 56 33 124t62 134.5t77.5 123.5t79.5 91q7 7 8 14
t-3 12t-11 5.5t-15 -5.5q-43 -38 -91.5 -102.5t-89 -142.5t-67 -161.5t-26.5 -158.5q0 -45 14 -67t37.5 -25.5t53.5 7.5t61.5 31t62.5 45.5t57 51.5q16 16 41 17.5t43 -17.5q19 -19 17.5 -43.5t-17.5 -40.5q-57 -57 -117 -96t-116.5 -58.5t-106.5 -18.5t-87.5 24t-59 68.5
t-21.5 115.5zM1112 1825q-13 20 -13.5 39.5t7.5 34t22.5 23.5t31 9t33.5 -10t30 -33l88 -157q15 -29 7.5 -51t-26.5 -32t-42.5 -5t-39.5 32z" />
    <glyph glyph-name="Aacute" unicode="&#xc1;" horiz-adv-x="1337" 
d="M285 319q0 -78 23.5 -131.5t65.5 -83t99 -35t123.5 11t140 55.5t148.5 100q-2 -19 -3 -37t-1 -33q0 -23 2 -44.5t8 -47.5q-91 -61 -181.5 -98t-173.5 -46.5t-155 7.5t-125 63.5t-83 122.5t-30 184q0 105 28.5 216t79 220t120 214t151.5 198.5t173.5 172t186 135t189 88.5
t182.5 32q73 0 125 -18.5t85 -51t48 -75.5t15 -92q0 -48 -13 -99t-37 -101t-58.5 -96t-78.5 -83q-30 -26 -58.5 -23t-45 22t-15.5 48t31 55q28 24 54 55t46 65.5t32 69t12 66.5q0 25 -8.5 47t-27 38t-48.5 25t-72 9q-66 0 -142.5 -27t-156 -75t-159 -115.5t-152.5 -148
t-135.5 -172.5t-109 -189.5t-73 -198.5t-26.5 -199zM913 166q0 72 21 153t55.5 161.5t79.5 154t93 129.5t95 89.5t86 33.5q36 0 55 -23.5t19 -68.5q0 -39 -14.5 -85.5t-39.5 -97t-57.5 -102t-68.5 -100t-73 -93t-70 -79.5q7 56 33 124t62 134.5t77.5 123.5t79.5 91q7 7 8 14
t-3 12t-11 5.5t-15 -5.5q-43 -38 -91.5 -102.5t-89 -142.5t-67 -161.5t-26.5 -158.5q0 -45 14 -67t37.5 -25.5t53.5 7.5t61.5 31t62.5 45.5t57 51.5q16 16 41 17.5t43 -17.5q19 -19 17.5 -43.5t-17.5 -40.5q-57 -57 -117 -96t-116.5 -58.5t-106.5 -18.5t-87.5 24t-59 68.5
t-21.5 115.5zM1249 1657q-24 -19 -48 -15.5t-37.5 19t-13 39.5t25.5 45l188 164q20 17 39 20.5t34.5 -2.5t26 -19t13.5 -29.5t-4 -34.5t-25 -32z" />
    <glyph glyph-name="Acircumflex" unicode="&#xc2;" horiz-adv-x="1337" 
d="M285 319q0 -78 23.5 -131.5t65.5 -83t99 -35t123.5 11t140 55.5t148.5 100q-2 -19 -3 -37t-1 -33q0 -23 2 -44.5t8 -47.5q-91 -61 -181.5 -98t-173.5 -46.5t-155 7.5t-125 63.5t-83 122.5t-30 184q0 105 28.5 216t79 220t120 214t151.5 198.5t173.5 172t186 135t189 88.5
t182.5 32q73 0 125 -18.5t85 -51t48 -75.5t15 -92q0 -48 -13 -99t-37 -101t-58.5 -96t-78.5 -83q-30 -26 -58.5 -23t-45 22t-15.5 48t31 55q28 24 54 55t46 65.5t32 69t12 66.5q0 25 -8.5 47t-27 38t-48.5 25t-72 9q-66 0 -142.5 -27t-156 -75t-159 -115.5t-152.5 -148
t-135.5 -172.5t-109 -189.5t-73 -198.5t-26.5 -199zM913 166q0 72 21 153t55.5 161.5t79.5 154t93 129.5t95 89.5t86 33.5q36 0 55 -23.5t19 -68.5q0 -39 -14.5 -85.5t-39.5 -97t-57.5 -102t-68.5 -100t-73 -93t-70 -79.5q7 56 33 124t62 134.5t77.5 123.5t79.5 91q7 7 8 14
t-3 12t-11 5.5t-15 -5.5q-43 -38 -91.5 -102.5t-89 -142.5t-67 -161.5t-26.5 -158.5q0 -45 14 -67t37.5 -25.5t53.5 7.5t61.5 31t62.5 45.5t57 51.5q16 16 41 17.5t43 -17.5q19 -19 17.5 -43.5t-17.5 -40.5q-57 -57 -117 -96t-116.5 -58.5t-106.5 -18.5t-87.5 24t-59 68.5
t-21.5 115.5zM1300 1823q-5 8 -12 9.5t-12 -1.5t-7.5 -9.5t1.5 -13.5l20 -34l-160 -111q-26 -18 -49.5 -12.5t-36 23t-10 41.5t28.5 44l217 162q23 17 41.5 20.5t33.5 -1t26 -15t18 -22.5l84 -162q15 -29 6.5 -51t-28 -32t-43.5 -4.5t-40 32.5z" />
    <glyph glyph-name="Atilde" unicode="&#xc3;" horiz-adv-x="1337" 
d="M285 319q0 -78 23.5 -131.5t65.5 -83t99 -35t123.5 11t140 55.5t148.5 100q-2 -19 -3 -37t-1 -33q0 -23 2 -44.5t8 -47.5q-91 -61 -181.5 -98t-173.5 -46.5t-155 7.5t-125 63.5t-83 122.5t-30 184q0 105 28.5 216t79 220t120 214t151.5 198.5t173.5 172t186 135t189 88.5
t182.5 32q73 0 125 -18.5t85 -51t48 -75.5t15 -92q0 -48 -13 -99t-37 -101t-58.5 -96t-78.5 -83q-30 -26 -58.5 -23t-45 22t-15.5 48t31 55q28 24 54 55t46 65.5t32 69t12 66.5q0 25 -8.5 47t-27 38t-48.5 25t-72 9q-66 0 -142.5 -27t-156 -75t-159 -115.5t-152.5 -148
t-135.5 -172.5t-109 -189.5t-73 -198.5t-26.5 -199zM913 166q0 72 21 153t55.5 161.5t79.5 154t93 129.5t95 89.5t86 33.5q36 0 55 -23.5t19 -68.5q0 -39 -14.5 -85.5t-39.5 -97t-57.5 -102t-68.5 -100t-73 -93t-70 -79.5q7 56 33 124t62 134.5t77.5 123.5t79.5 91q7 7 8 14
t-3 12t-11 5.5t-15 -5.5q-43 -38 -91.5 -102.5t-89 -142.5t-67 -161.5t-26.5 -158.5q0 -45 14 -67t37.5 -25.5t53.5 7.5t61.5 31t62.5 45.5t57 51.5q16 16 41 17.5t43 -17.5q19 -19 17.5 -43.5t-17.5 -40.5q-57 -57 -117 -96t-116.5 -58.5t-106.5 -18.5t-87.5 24t-59 68.5
t-21.5 115.5zM1151 1729q-17 -17 -42 -17t-48 23q-19 21 -12.5 47t24.5 43q31 29 60 44t63 15q26 0 48 -7.5t41 -17t36 -17t35 -7.5q11 0 23 4t26 16q17 17 42 17t48 -25q9 -10 12 -22t0.5 -24t-9 -23.5t-15.5 -20.5q-31 -28 -60 -42.5t-63 -14.5q-28 0 -50.5 7.5t-41.5 17
t-36 17t-34 7.5q-11 0 -23 -4t-24 -16z" />
    <glyph glyph-name="Adieresis" unicode="&#xc4;" horiz-adv-x="1337" 
d="M285 319q0 -78 23.5 -131.5t65.5 -83t99 -35t123.5 11t140 55.5t148.5 100q-2 -19 -3 -37t-1 -33q0 -23 2 -44.5t8 -47.5q-91 -61 -181.5 -98t-173.5 -46.5t-155 7.5t-125 63.5t-83 122.5t-30 184q0 105 28.5 216t79 220t120 214t151.5 198.5t173.5 172t186 135t189 88.5
t182.5 32q73 0 125 -18.5t85 -51t48 -75.5t15 -92q0 -48 -13 -99t-37 -101t-58.5 -96t-78.5 -83q-30 -26 -58.5 -23t-45 22t-15.5 48t31 55q28 24 54 55t46 65.5t32 69t12 66.5q0 25 -8.5 47t-27 38t-48.5 25t-72 9q-66 0 -142.5 -27t-156 -75t-159 -115.5t-152.5 -148
t-135.5 -172.5t-109 -189.5t-73 -198.5t-26.5 -199zM913 166q0 72 21 153t55.5 161.5t79.5 154t93 129.5t95 89.5t86 33.5q36 0 55 -23.5t19 -68.5q0 -39 -14.5 -85.5t-39.5 -97t-57.5 -102t-68.5 -100t-73 -93t-70 -79.5q7 56 33 124t62 134.5t77.5 123.5t79.5 91q7 7 8 14
t-3 12t-11 5.5t-15 -5.5q-43 -38 -91.5 -102.5t-89 -142.5t-67 -161.5t-26.5 -158.5q0 -45 14 -67t37.5 -25.5t53.5 7.5t61.5 31t62.5 45.5t57 51.5q16 16 41 17.5t43 -17.5q19 -19 17.5 -43.5t-17.5 -40.5q-57 -57 -117 -96t-116.5 -58.5t-106.5 -18.5t-87.5 24t-59 68.5
t-21.5 115.5zM993 1798q2 25 14 46t30 37t41.5 25t49.5 9q25 0 47 -9t38 -25t24 -37t6 -46q-2 -24 -13 -45.5t-28.5 -37.5t-41 -25t-48.5 -9q-27 0 -50 9t-39 25t-24 37.5t-6 45.5zM1311 1798q2 25 13.5 46t30 37t42 25t49.5 9q25 0 47.5 -9t38.5 -25t24.5 -37t6.5 -46
q-3 -24 -14.5 -45.5t-29.5 -37.5t-41 -25t-48 -9q-26 0 -48.5 9t-38.5 25t-25 37.5t-7 45.5z" />
    <glyph glyph-name="Aring" unicode="&#xc5;" horiz-adv-x="1337" 
d="M285 319q0 -78 23.5 -131.5t65.5 -83t99 -35t123.5 11t140 55.5t148.5 100q-2 -19 -3 -37t-1 -33q0 -23 2 -44.5t8 -47.5q-91 -61 -181.5 -98t-173.5 -46.5t-155 7.5t-125 63.5t-83 122.5t-30 184q0 105 28.5 216t79 220t120 214t151.5 198.5t173.5 172t186 135t189 88.5
t182.5 32q73 0 125 -18.5t85 -51t48 -75.5t15 -92q0 -48 -13 -99t-37 -101t-58.5 -96t-78.5 -83q-30 -26 -58.5 -23t-45 22t-15.5 48t31 55q28 24 54 55t46 65.5t32 69t12 66.5q0 25 -8.5 47t-27 38t-48.5 25t-72 9q-66 0 -142.5 -27t-156 -75t-159 -115.5t-152.5 -148
t-135.5 -172.5t-109 -189.5t-73 -198.5t-26.5 -199zM913 166q0 72 21 153t55.5 161.5t79.5 154t93 129.5t95 89.5t86 33.5q36 0 55 -23.5t19 -68.5q0 -39 -14.5 -85.5t-39.5 -97t-57.5 -102t-68.5 -100t-73 -93t-70 -79.5q7 56 33 124t62 134.5t77.5 123.5t79.5 91q7 7 8 14
t-3 12t-11 5.5t-15 -5.5q-43 -38 -91.5 -102.5t-89 -142.5t-67 -161.5t-26.5 -158.5q0 -45 14 -67t37.5 -25.5t53.5 7.5t61.5 31t62.5 45.5t57 51.5q16 16 41 17.5t43 -17.5q19 -19 17.5 -43.5t-17.5 -40.5q-57 -57 -117 -96t-116.5 -58.5t-106.5 -18.5t-87.5 24t-59 68.5
t-21.5 115.5zM1112 1774q0 34 14.5 68t40 61t60.5 44t76 17q31 0 57.5 -10.5t45.5 -29.5t29.5 -44.5t10.5 -56.5q0 -39 -16 -73.5t-43 -60t-62 -40.5t-72 -15q-32 0 -57.5 10.5t-44.5 29t-29 44t-10 56.5zM1221 1790q0 -49 49 -49q13 0 26 5.5t23 15.5t16 23t6 27
q0 20 -13.5 34t-35.5 14q-15 0 -27.5 -6.5t-22.5 -17t-15.5 -22.5t-5.5 -24z" />
    <glyph glyph-name="AE" unicode="&#xc6;" horiz-adv-x="1962" 
d="M1239 1421q-66 0 -142.5 -27t-156 -75t-159 -115.5t-152.5 -148t-135.5 -172.5t-109 -189.5t-73 -198t-26.5 -198.5q0 -85 28 -141t77 -83.5t115.5 -27t142.5 28t158.5 80.5t164.5 131q2 -41 9 -79t19 -73q-97 -83 -198 -137.5t-196 -77t-179 -12.5t-147 55t-99.5 125.5
t-36.5 198.5q0 105 28.5 216t79 220t120 214t151.5 198.5t173.5 172t186 135t189 88.5t182.5 32q73 0 125 -19t85 -51t48 -75.5t15 -92.5q0 -48 -13 -99t-37 -101t-58.5 -96t-78.5 -83q-30 -25 -58.5 -22t-45 22t-15.5 48t31 55q28 24 54 55t46 65t32 69t12 67
q0 25 -8.5 46.5t-27 37.5t-48.5 25t-72 9zM1761 731q-78 25 -131 72q23 5 51 8.5t56.5 3.5t56 -2.5t51.5 -9.5q8 -2 14 1t8 8.5t-0.5 12t-11.5 9.5q-23 8 -52 11t-58 3q-113 0 -206 -31t-167 -82q9 -23 0.5 -66t-31.5 -96q-31 -69 -75 -137t-107 -139q0 74 15.5 142
t60.5 128q5 7 4 14.5t-5.5 11.5t-11.5 3.5t-14 -8.5q-24 -30 -39.5 -64.5t-24.5 -71t-12.5 -74t-3.5 -73.5q0 -62 22 -116.5t66.5 -95.5t113 -65t161.5 -24q61 0 126 15.5t126.5 43t117.5 66.5t101 86q15 16 40 17.5t44 -17.5t17 -43.5t-17 -40.5q-56 -61 -124.5 -109
t-143 -81t-152.5 -50.5t-153 -17.5q-140 0 -237.5 47t-154 124t-73 175t5 201t80.5 201t154 175t225 124t294 47q75 0 122.5 -23.5t69 -57t18.5 -70t-29 -62.5t-73 -35.5t-114 12.5zM2032 1454q-61 0 -116.5 -20.5t-101 -55.5t-80 -81.5t-54 -98t-22 -105t14.5 -102.5
q-37 -2 -71 -7.5t-66 -14.5q-16 64 -10 134t31.5 138t70 130t107 108.5t141 74t172.5 27.5q72 0 124 -28t83 -73t41.5 -102t0.5 -115.5t-41 -112.5t-83 -93q-29 -23 -55.5 -18t-41 23.5t-12.5 45.5t29 49q25 20 43 50t27 63t7 65.5t-17 59t-45 43t-76 16.5z" />
    <glyph glyph-name="Ccedilla" unicode="&#xc7;" horiz-adv-x="1104" 
d="M1178 1583q73 0 124.5 -18.5t84.5 -51t48 -75.5t15 -92q0 -48 -13 -99t-37 -101t-58.5 -96t-77.5 -83q-30 -26 -59 -23t-45.5 22t-15 48t31.5 55q27 24 53 55t46 65.5t32 69t12 66.5q0 25 -8.5 47t-27 38t-48.5 25t-72 9q-89 0 -188 -43.5t-197 -118.5t-187 -176.5
t-157 -217.5t-108.5 -240.5t-40.5 -246.5q0 -107 28 -182t75.5 -122t110.5 -69t134 -22q61 0 125.5 15.5t126 43.5t118 66.5t101.5 83.5q15 16 40 17.5t44 -17.5q18 -19 16.5 -43.5t-16.5 -40.5q-105 -105 -225 -169t-254 -81q-27 -3 -48 -7.5t-38 -12t-31.5 -20
t-28.5 -31.5q-12 5 -31 4t-36 -9q-8 -2 -11 -8t-1.5 -12t6.5 -9.5t14 -0.5q24 7 50.5 4t49.5 -16t38 -36.5t15 -56.5q0 -46 -18.5 -77.5t-48.5 -51.5t-68 -29t-77 -8t-74.5 10.5t-61.5 26.5q-18 13 -19 33t9 36.5t28.5 23.5t41.5 -5q19 -10 47.5 -15.5t55.5 -3.5t46 13.5
t19 36.5q0 23 -18.5 29t-37.5 4q-18 -15 -36.5 -15.5t-32 10t-18.5 30.5t5 46q13 35 32 60.5t39 42.5t40.5 25t36.5 8q8 0 12.5 5.5t4.5 11.5t-4.5 11.5t-14.5 5.5q-49 0 -88 -36q-68 21 -125.5 60t-99.5 99t-65.5 142.5t-23.5 189.5q0 134 44 275t120 273.5t177.5 250
t216.5 205.5t237.5 139t239.5 51z" />
    <glyph glyph-name="Egrave" unicode="&#xc8;" horiz-adv-x="1106" 
d="M1176 1454q-62 0 -117 -20.5t-100.5 -55.5t-80 -81.5t-54 -98t-22 -105t14.5 -102.5q-37 -2 -71 -7.5t-66 -14.5q-16 64 -10.5 134t31.5 138t70.5 130t107 108.5t141 74t172.5 27.5q72 0 124 -28t83 -73t41.5 -102t0.5 -115.5t-41 -112.5t-83 -93q-29 -23 -55.5 -18
t-41 23.5t-12.5 45.5t29 49q25 20 43 50t27 63t7 65.5t-17 59t-45 43t-76 16.5zM905 731q-78 25 -131 72q23 5 51 8t56.5 3t56 -2.5t51.5 -8.5q9 -2 14.5 1t7.5 8.5t-1.5 12t-12.5 9.5q-23 8 -51 11t-57 3q-121 0 -221.5 -36.5t-177 -95.5t-127.5 -135t-73 -155t-14 -155
t49.5 -135t118 -95.5t191.5 -36.5q61 0 124.5 15t124.5 43t117.5 66.5t104.5 86.5q15 16 40 17.5t44 -17.5q18 -19 16.5 -43.5t-16.5 -40.5q-56 -56 -119.5 -103t-134.5 -81.5t-151 -54t-169 -19.5q-140 0 -237 47t-153.5 124t-73.5 175t5 201t81 201t154 175t225 124
t294 47q75 0 122.5 -23.5t69 -57t18 -70t-29 -62.5t-73 -35.5t-113.5 12.5zM1044 1825q-13 20 -13.5 39.5t7.5 34t22.5 23.5t31.5 9t33.5 -10t29.5 -33l88 -157q15 -29 7.5 -51t-26 -32t-42 -5t-39.5 32z" />
    <glyph glyph-name="Eacute" unicode="&#xc9;" horiz-adv-x="1106" 
d="M1176 1454q-62 0 -117 -20.5t-100.5 -55.5t-80 -81.5t-54 -98t-22 -105t14.5 -102.5q-37 -2 -71 -7.5t-66 -14.5q-16 64 -10.5 134t31.5 138t70.5 130t107 108.5t141 74t172.5 27.5q72 0 124 -28t83 -73t41.5 -102t0.5 -115.5t-41 -112.5t-83 -93q-29 -23 -55.5 -18
t-41 23.5t-12.5 45.5t29 49q25 20 43 50t27 63t7 65.5t-17 59t-45 43t-76 16.5zM905 731q-78 25 -131 72q23 5 51 8t56.5 3t56 -2.5t51.5 -8.5q9 -2 14.5 1t7.5 8.5t-1.5 12t-12.5 9.5q-23 8 -51 11t-57 3q-121 0 -221.5 -36.5t-177 -95.5t-127.5 -135t-73 -155t-14 -155
t49.5 -135t118 -95.5t191.5 -36.5q61 0 124.5 15t124.5 43t117.5 66.5t104.5 86.5q15 16 40 17.5t44 -17.5q18 -19 16.5 -43.5t-16.5 -40.5q-56 -56 -119.5 -103t-134.5 -81.5t-151 -54t-169 -19.5q-140 0 -237 47t-153.5 124t-73.5 175t5 201t81 201t154 175t225 124
t294 47q75 0 122.5 -23.5t69 -57t18 -70t-29 -62.5t-73 -35.5t-113.5 12.5zM1200 1657q-24 -19 -48 -15.5t-38 19t-13 39.5t25 45l189 164q20 17 39 20.5t34.5 -2.5t26 -19t13.5 -29.5t-4 -34.5t-25 -32z" />
    <glyph glyph-name="Ecircumflex" unicode="&#xca;" horiz-adv-x="1106" 
d="M1176 1454q-62 0 -117 -20.5t-100.5 -55.5t-80 -81.5t-54 -98t-22 -105t14.5 -102.5q-37 -2 -71 -7.5t-66 -14.5q-16 64 -10.5 134t31.5 138t70.5 130t107 108.5t141 74t172.5 27.5q72 0 124 -28t83 -73t41.5 -102t0.5 -115.5t-41 -112.5t-83 -93q-29 -23 -55.5 -18
t-41 23.5t-12.5 45.5t29 49q25 20 43 50t27 63t7 65.5t-17 59t-45 43t-76 16.5zM905 731q-78 25 -131 72q23 5 51 8t56.5 3t56 -2.5t51.5 -8.5q9 -2 14.5 1t7.5 8.5t-1.5 12t-12.5 9.5q-23 8 -51 11t-57 3q-121 0 -221.5 -36.5t-177 -95.5t-127.5 -135t-73 -155t-14 -155
t49.5 -135t118 -95.5t191.5 -36.5q61 0 124.5 15t124.5 43t117.5 66.5t104.5 86.5q15 16 40 17.5t44 -17.5q18 -19 16.5 -43.5t-16.5 -40.5q-56 -56 -119.5 -103t-134.5 -81.5t-151 -54t-169 -19.5q-140 0 -237 47t-153.5 124t-73.5 175t5 201t81 201t154 175t225 124
t294 47q75 0 122.5 -23.5t69 -57t18 -70t-29 -62.5t-73 -35.5t-113.5 12.5zM1243 1823q-5 8 -12 9.5t-12.5 -1.5t-8 -9.5t1.5 -13.5l21 -34l-160 -111q-26 -18 -49.5 -12.5t-36 23t-10 41.5t28.5 44l217 162q23 17 41.5 20.5t33.5 -1t25.5 -15t17.5 -22.5l84 -162
q15 -29 6.5 -51t-27.5 -32t-43 -4.5t-40 32.5z" />
    <glyph glyph-name="Edieresis" unicode="&#xcb;" horiz-adv-x="1106" 
d="M1176 1454q-62 0 -117 -20.5t-100.5 -55.5t-80 -81.5t-54 -98t-22 -105t14.5 -102.5q-37 -2 -71 -7.5t-66 -14.5q-16 64 -10.5 134t31.5 138t70.5 130t107 108.5t141 74t172.5 27.5q72 0 124 -28t83 -73t41.5 -102t0.5 -115.5t-41 -112.5t-83 -93q-29 -23 -55.5 -18
t-41 23.5t-12.5 45.5t29 49q25 20 43 50t27 63t7 65.5t-17 59t-45 43t-76 16.5zM905 731q-78 25 -131 72q23 5 51 8t56.5 3t56 -2.5t51.5 -8.5q9 -2 14.5 1t7.5 8.5t-1.5 12t-12.5 9.5q-23 8 -51 11t-57 3q-121 0 -221.5 -36.5t-177 -95.5t-127.5 -135t-73 -155t-14 -155
t49.5 -135t118 -95.5t191.5 -36.5q61 0 124.5 15t124.5 43t117.5 66.5t104.5 86.5q15 16 40 17.5t44 -17.5q18 -19 16.5 -43.5t-16.5 -40.5q-56 -56 -119.5 -103t-134.5 -81.5t-151 -54t-169 -19.5q-140 0 -237 47t-153.5 124t-73.5 175t5 201t81 201t154 175t225 124
t294 47q75 0 122.5 -23.5t69 -57t18 -70t-29 -62.5t-73 -35.5t-113.5 12.5zM952 1798q2 25 14 46t30 37t41.5 25t49.5 9q25 0 47 -9t38 -25t24 -37t6 -46q-2 -24 -13 -45.5t-28.5 -37.5t-41 -25t-48.5 -9q-27 0 -50 9t-39 25t-24 37.5t-6 45.5zM1270 1798q2 25 13.5 46
t30 37t42 25t49.5 9q25 0 47.5 -9t38.5 -25t24.5 -37t6.5 -46q-2 -24 -14 -45.5t-30 -37.5t-41 -25t-48 -9q-26 0 -48.5 9t-38.5 25t-25 37.5t-7 45.5z" />
    <glyph glyph-name="Igrave" unicode="&#xcc;" horiz-adv-x="1223" 
d="M1174 1825q-20 31 -12.5 57.5t28.5 39t48 6.5t46 -40l88 -157q15 -29 7.5 -51t-26 -32t-42 -5t-39.5 32zM1448 1403q0 -84 -15 -189.5t-45 -222t-75.5 -237t-106.5 -234.5q-32 14 -64 25t-63 22q54 94 96 197.5t72 208.5t47 208t21 197q1 15 -4.5 24.5t-15 10t-22 -9.5
t-24.5 -33q-31 -57 -51.5 -123.5t-32.5 -136.5t-17 -141.5t-5 -139.5q0 -39 -20.5 -60t-45 -21.5t-45 20.5t-20.5 66q0 164 25.5 301.5t69 237t100.5 155t120 55.5q66 0 93.5 -46.5t27.5 -133.5zM969 397q32 -8 66.5 -17t68.5 -22q-60 -84 -131 -155t-152.5 -123
t-174.5 -81.5t-197 -29.5q-82 0 -141.5 21.5t-98.5 58.5t-57.5 85.5t-18.5 101.5q0 69 36.5 133.5t105 114.5t167.5 80t224 30q73 0 142 -5t138 -18.5t140 -37t149 -60.5q33 -15 41.5 -42t-1.5 -49.5t-34.5 -33.5t-58.5 6q-65 33 -134 54t-136 33.5t-129.5 17t-114.5 4.5
q-89 0 -161.5 -17t-124 -46.5t-80 -69.5t-28.5 -86q0 -62 42.5 -101t136.5 -39q76 0 146.5 22t135.5 61.5t123.5 93t110.5 116.5z" />
    <glyph glyph-name="Iacute" unicode="&#xcd;" horiz-adv-x="1223" 
d="M1288 1657q-24 -19 -48 -15.5t-38 19t-13 39.5t25 45l189 164q20 17 39 20.5t34.5 -2.5t26 -19t13.5 -29.5t-4 -34.5t-25 -32zM1448 1403q0 -84 -15 -189.5t-45 -222t-75.5 -237t-106.5 -234.5q-32 14 -64 25t-63 22q54 94 96 197.5t72 208.5t47 208t21 197
q1 15 -4.5 24.5t-15 10t-22 -9.5t-24.5 -33q-31 -57 -51.5 -123.5t-32.5 -136.5t-17 -141.5t-5 -139.5q0 -39 -20.5 -60t-45 -21.5t-45 20.5t-20.5 66q0 164 25.5 301.5t69 237t100.5 155t120 55.5q66 0 93.5 -46.5t27.5 -133.5zM969 397q32 -8 66.5 -17t68.5 -22
q-60 -84 -131 -155t-152.5 -123t-174.5 -81.5t-197 -29.5q-82 0 -141.5 21.5t-98.5 58.5t-57.5 85.5t-18.5 101.5q0 69 36.5 133.5t105 114.5t167.5 80t224 30q73 0 142 -5t138 -18.5t140 -37t149 -60.5q33 -15 41.5 -42t-1.5 -49.5t-34.5 -33.5t-58.5 6q-65 33 -134 54
t-136 33.5t-129.5 17t-114.5 4.5q-89 0 -161.5 -17t-124 -46.5t-80 -69.5t-28.5 -86q0 -62 42.5 -101t136.5 -39q76 0 146.5 22t135.5 61.5t123.5 93t110.5 116.5z" />
    <glyph glyph-name="Icircumflex" unicode="&#xce;" horiz-adv-x="1223" 
d="M1348 1823q-6 8 -13 9.5t-12 -1.5t-7.5 -9.5t1.5 -13.5l20 -34l-159 -111q-26 -18 -50 -12.5t-36.5 23t-10 41.5t28.5 44l217 162q23 17 42 20.5t33.5 -1t25.5 -15t18 -22.5l84 -162q15 -29 6.5 -51t-28 -32t-43.5 -4.5t-40 32.5zM1448 1403q0 -84 -15 -189.5t-45 -222
t-75.5 -237t-106.5 -234.5q-32 14 -64 25t-63 22q54 94 96 197.5t72 208.5t47 208t21 197q1 15 -4.5 24.5t-15 10t-22 -9.5t-24.5 -33q-31 -57 -51.5 -123.5t-32.5 -136.5t-17 -141.5t-5 -139.5q0 -39 -20.5 -60t-45 -21.5t-45 20.5t-20.5 66q0 164 25.5 301.5t69 237
t100.5 155t120 55.5q66 0 93.5 -46.5t27.5 -133.5zM969 397q32 -8 66.5 -17t68.5 -22q-60 -84 -131 -155t-152.5 -123t-174.5 -81.5t-197 -29.5q-82 0 -141.5 21.5t-98.5 58.5t-57.5 85.5t-18.5 101.5q0 69 36.5 133.5t105 114.5t167.5 80t224 30q73 0 142 -5t138 -18.5
t140 -37t149 -60.5q33 -15 41.5 -42t-1.5 -49.5t-34.5 -33.5t-58.5 6q-65 33 -134 54t-136 33.5t-129.5 17t-114.5 4.5q-89 0 -161.5 -17t-124 -46.5t-80 -69.5t-28.5 -86q0 -62 42.5 -101t136.5 -39q76 0 146.5 22t135.5 61.5t123.5 93t110.5 116.5z" />
    <glyph glyph-name="Idieresis" unicode="&#xcf;" horiz-adv-x="1223" 
d="M1055 1798q2 25 13.5 46t30 37t42 25t49.5 9q25 0 47 -9t38 -25t24 -37t6 -46q-2 -24 -13 -45.5t-29 -37.5t-41 -25t-48 -9q-27 0 -50 9t-39 25t-24 37.5t-6 45.5zM1372 1798q2 25 14 46t30 37t41.5 25t49.5 9q25 0 47.5 -9t38.5 -25t24.5 -37t6.5 -46
q-2 -24 -13.5 -45.5t-29.5 -37.5t-41.5 -25t-48.5 -9q-26 0 -48.5 9t-38.5 25t-25 37.5t-7 45.5zM1448 1403q0 -84 -15 -189.5t-45 -222t-75.5 -237t-106.5 -234.5q-32 14 -64 25t-63 22q54 94 96 197.5t72 208.5t47 208t21 197q1 15 -4.5 24.5t-15 10t-22 -9.5t-24.5 -33
q-31 -57 -51.5 -123.5t-32.5 -136.5t-17 -141.5t-5 -139.5q0 -39 -20.5 -60t-45 -21.5t-45 20.5t-20.5 66q0 164 25.5 301.5t69 237t100.5 155t120 55.5q66 0 93.5 -46.5t27.5 -133.5zM969 397q32 -8 66.5 -17t68.5 -22q-60 -84 -131 -155t-152.5 -123t-174.5 -81.5
t-197 -29.5q-82 0 -141.5 21.5t-98.5 58.5t-57.5 85.5t-18.5 101.5q0 69 36.5 133.5t105 114.5t167.5 80t224 30q73 0 142 -5t138 -18.5t140 -37t149 -60.5q33 -15 41.5 -42t-1.5 -49.5t-34.5 -33.5t-58.5 6q-65 33 -134 54t-136 33.5t-129.5 17t-114.5 4.5
q-89 0 -161.5 -17t-124 -46.5t-80 -69.5t-28.5 -86q0 -62 42.5 -101t136.5 -39q76 0 146.5 22t135.5 61.5t123.5 93t110.5 116.5z" />
    <glyph glyph-name="Eth" unicode="&#xd0;" horiz-adv-x="1516" 
d="M825 1411q-79 0 -144 -25.5t-113 -68.5t-77.5 -100t-38 -121t6 -131t55.5 -129q27 -41 20.5 -72.5t-30 -45.5t-55 -8t-54.5 40q-54 78 -74 167.5t-10 178.5t48.5 170.5t103 144t153.5 100t199 37.5q165 0 294 -54t222 -144.5t150 -209t79 -247.5t9 -261t-60.5 -248.5
t-129.5 -210t-197.5 -146t-264.5 -56t-331 59.5q32 20 64 43t61 51q140 -39 252.5 -27.5t198.5 60.5t145 129t91 177.5t37.5 205.5t-15.5 213t-69 200.5t-122.5 168.5t-175.5 116t-228 43zM1468 1305q23 13 42.5 10.5t34.5 -14.5t23.5 -31t9.5 -38t-7 -36.5t-27 -26.5
q-6 -3 -16.5 -8.5t-18.5 -11.5q-17 35 -36.5 67.5t-42.5 63.5zM1178 496q-31 -4 -77 -4.5t-99.5 0.5t-111.5 3.5t-111.5 4t-99.5 1t-77 -4.5q-13 -2 -26.5 0.5t-24.5 9t-18.5 19t-8.5 30.5q-2 17 3.5 30.5t15 23t22 15t25.5 7.5q31 4 77 4.5t99.5 -1t111 -4t111 -3.5
t99.5 -0.5t77 4.5q13 1 26.5 -1t24.5 -9t18 -19t9 -31q3 -34 -18 -53t-47 -22zM305 -16q-56 0 -92 20.5t-53 51.5t-15.5 67t20.5 67t54 51.5t86 20.5q31 0 57 -3t49 -8t45.5 -12t47.5 -16q-15 -14 -38 -28t-49.5 -25t-55 -18t-54.5 -7q-8 0 -12.5 -5t-4.5 -11t4.5 -11
t12.5 -5q62 0 122 27.5t117.5 75t112.5 111.5t109 138q51 0 92.5 -2t81.5 -2q-62 -94 -129 -180t-144.5 -152t-167.5 -105.5t-196 -39.5zM1274 1153q22 -32 41 -66t35 -71q-76 -59 -144 -153t-137 -204q-38 0 -80 0.5t-86 2.5q46 70 92 139t92 132.5t92.5 119.5t94.5 100z
" />
    <glyph glyph-name="Ntilde" unicode="&#xd1;" horiz-adv-x="1229" 
d="M1081 1401q-17 -17 -42 -17t-48 23q-18 22 -12 47.5t25 42.5q30 29 59 44t63 15q26 0 48 -7.5t41 -17t36 -17t35 -7.5q11 0 23 4t26 17q17 17 42 16.5t48 -24.5q9 -10 12 -22.5t0.5 -24.5t-9 -23.5t-15.5 -19.5q-31 -28 -60 -43t-63 -15q-27 0 -49.5 7.5t-41.5 17
t-36.5 17t-34.5 7.5q-11 0 -22.5 -4t-24.5 -16zM584 1442q-33 0 -67.5 -13t-67 -36.5t-60 -56t-45.5 -72.5q-15 -33 -42 -42t-49.5 1t-33 36t7.5 64q27 58 66 103t85.5 76.5t98 48t103.5 16.5q94 0 156 -35.5t96 -97.5t43.5 -145.5t-1.5 -180.5q-38 -26 -77 -55.5t-76 -61.5
q21 93 26 175t-9.5 143.5t-52 97t-101.5 35.5zM301 92q-2 -8 1.5 -13.5t9.5 -7t12 1.5t8 11q25 85 75.5 184.5t116.5 199t142 192.5t153 165q-39 -106 -85 -212.5t-96 -204t-103 -181.5t-105.5 -146.5t-104 -98t-98.5 -35.5q-37 0 -60.5 22.5t-23.5 67.5q0 42 25.5 114.5
t71.5 162t110 190t141.5 199t165.5 188.5t182 159t192 109.5t194 40.5q56 0 92.5 -15.5t58.5 -42.5t30.5 -64t8.5 -81q0 -68 -34 -141.5t-85 -149.5t-110.5 -151.5t-110.5 -146.5t-85 -135t-34 -117q0 -35 19.5 -51.5t48.5 -16.5q35 0 88.5 32t116.5 95q15 16 40 17.5
t44 -17.5q18 -19 16.5 -43.5t-16.5 -40.5q-45 -45 -85 -77.5t-78.5 -53.5t-76 -31t-76.5 -10q-35 0 -68.5 11t-59 34t-41 58.5t-15.5 84.5q0 71 34.5 146t87 151t113 150.5t113 144.5t87 133.5t34.5 116.5q0 38 -16.5 59t-57.5 21q-83 0 -175.5 -48t-185.5 -128t-181 -182
t-161 -211t-126.5 -215t-77.5 -193z" />
    <glyph glyph-name="Ograve" unicode="&#xd2;" horiz-adv-x="1444" 
d="M639 -98q-94 0 -183 27.5t-158.5 91.5t-112 167.5t-42.5 255.5q0 133 39.5 269t110 262.5t167.5 237t210.5 192.5t240 129t256.5 47q56 0 112 -9.5t112 -29.5q31 -12 41 -37.5t1 -49t-34 -37t-64 -1.5q-81 25 -166 25q-114 0 -224 -44t-208 -118.5t-181 -173.5t-143 -209
t-94 -225t-34 -221q0 -114 31.5 -194t82.5 -131t116 -74t132 -23q45 0 92.5 9.5t93 27t88.5 43t80 57.5q41 -12 84 -18.5t86 -8.5q-57 -54 -120.5 -98t-131 -75t-138 -47.5t-142.5 -16.5zM1393 193q-98 -24 -198 -23t-191 28t-166.5 80t-123.5 133t-63.5 187t13.5 242
q19 91 66.5 168t111 134t138 91.5t148 42t141 -14.5t117 -79.5t75.5 -152.5t18 -232q-3 -44 -15.5 -103.5t-33.5 -122.5t-49.5 -125t-63.5 -110q-26 -5 -51.5 -6.5t-48.5 -1.5h-30t-28 2q50 64 84 128.5t56 125t33 115.5t14 102q6 97 -11 163.5t-49.5 106.5t-76 55t-92 9
t-98 -31.5t-92 -66t-75.5 -94.5t-49 -118q-26 -104 -16 -187.5t46.5 -146.5t95 -105.5t129 -64.5t149.5 -23.5t157 17.5q34 9 54.5 -6.5t26 -38.5t-7 -46.5t-44.5 -30.5zM1028 1825q-13 20 -13.5 39.5t7.5 34t22.5 23.5t31 9t33.5 -10t30 -33l88 -157q15 -29 7.5 -51
t-26.5 -32t-42.5 -5t-39.5 32z" />
    <glyph glyph-name="Oacute" unicode="&#xd3;" horiz-adv-x="1444" 
d="M639 -98q-94 0 -183 27.5t-158.5 91.5t-112 167.5t-42.5 255.5q0 133 39.5 269t110 262.5t167.5 237t210.5 192.5t240 129t256.5 47q56 0 112 -9.5t112 -29.5q31 -12 41 -37.5t1 -49t-34 -37t-64 -1.5q-81 25 -166 25q-114 0 -224 -44t-208 -118.5t-181 -173.5t-143 -209
t-94 -225t-34 -221q0 -114 31.5 -194t82.5 -131t116 -74t132 -23q45 0 92.5 9.5t93 27t88.5 43t80 57.5q41 -12 84 -18.5t86 -8.5q-57 -54 -120.5 -98t-131 -75t-138 -47.5t-142.5 -16.5zM1393 193q-98 -24 -198 -23t-191 28t-166.5 80t-123.5 133t-63.5 187t13.5 242
q19 91 66.5 168t111 134t138 91.5t148 42t141 -14.5t117 -79.5t75.5 -152.5t18 -232q-3 -44 -15.5 -103.5t-33.5 -122.5t-49.5 -125t-63.5 -110q-26 -5 -51.5 -6.5t-48.5 -1.5h-30t-28 2q50 64 84 128.5t56 125t33 115.5t14 102q6 97 -11 163.5t-49.5 106.5t-76 55t-92 9
t-98 -31.5t-92 -66t-75.5 -94.5t-49 -118q-26 -104 -16 -187.5t46.5 -146.5t95 -105.5t129 -64.5t149.5 -23.5t157 17.5q34 9 54.5 -6.5t26 -38.5t-7 -46.5t-44.5 -30.5zM1210 1657q-24 -19 -48 -15.5t-37.5 19t-13 39.5t25.5 45l188 164q20 17 39 20.5t34.5 -2.5t26 -19
t13.5 -29.5t-4 -34.5t-25 -32z" />
    <glyph glyph-name="Ocircumflex" unicode="&#xd4;" horiz-adv-x="1444" 
d="M639 -98q-94 0 -183 27.5t-158.5 91.5t-112 167.5t-42.5 255.5q0 133 39.5 269t110 262.5t167.5 237t210.5 192.5t240 129t256.5 47q56 0 112 -9.5t112 -29.5q31 -12 41 -37.5t1 -49t-34 -37t-64 -1.5q-81 25 -166 25q-114 0 -224 -44t-208 -118.5t-181 -173.5t-143 -209
t-94 -225t-34 -221q0 -114 31.5 -194t82.5 -131t116 -74t132 -23q45 0 92.5 9.5t93 27t88.5 43t80 57.5q41 -12 84 -18.5t86 -8.5q-57 -54 -120.5 -98t-131 -75t-138 -47.5t-142.5 -16.5zM1393 193q-98 -24 -198 -23t-191 28t-166.5 80t-123.5 133t-63.5 187t13.5 242
q19 91 66.5 168t111 134t138 91.5t148 42t141 -14.5t117 -79.5t75.5 -152.5t18 -232q-3 -44 -15.5 -103.5t-33.5 -122.5t-49.5 -125t-63.5 -110q-26 -5 -51.5 -6.5t-48.5 -1.5h-30t-28 2q50 64 84 128.5t56 125t33 115.5t14 102q6 97 -11 163.5t-49.5 106.5t-76 55t-92 9
t-98 -31.5t-92 -66t-75.5 -94.5t-49 -118q-26 -104 -16 -187.5t46.5 -146.5t95 -105.5t129 -64.5t149.5 -23.5t157 17.5q34 9 54.5 -6.5t26 -38.5t-7 -46.5t-44.5 -30.5zM1219 1823q-6 8 -13 9.5t-12 -1.5t-7.5 -9.5t1.5 -13.5l20 -34l-159 -111q-26 -18 -50 -12.5t-36.5 23
t-10 41.5t28.5 44l217 162q23 17 42 20.5t33.5 -1t25.5 -15t18 -22.5l84 -162q15 -29 6.5 -51t-28 -32t-43.5 -4.5t-40 32.5z" />
    <glyph glyph-name="Otilde" unicode="&#xd5;" horiz-adv-x="1444" 
d="M639 -98q-94 0 -183 27.5t-158.5 91.5t-112 167.5t-42.5 255.5q0 133 39.5 269t110 262.5t167.5 237t210.5 192.5t240 129t256.5 47q56 0 112 -9.5t112 -29.5q31 -12 41 -37.5t1 -49t-34 -37t-64 -1.5q-81 25 -166 25q-114 0 -224 -44t-208 -118.5t-181 -173.5t-143 -209
t-94 -225t-34 -221q0 -114 31.5 -194t82.5 -131t116 -74t132 -23q45 0 92.5 9.5t93 27t88.5 43t80 57.5q41 -12 84 -18.5t86 -8.5q-57 -54 -120.5 -98t-131 -75t-138 -47.5t-142.5 -16.5zM1393 193q-98 -24 -198 -23t-191 28t-166.5 80t-123.5 133t-63.5 187t13.5 242
q19 91 66.5 168t111 134t138 91.5t148 42t141 -14.5t117 -79.5t75.5 -152.5t18 -232q-3 -44 -15.5 -103.5t-33.5 -122.5t-49.5 -125t-63.5 -110q-26 -5 -51.5 -6.5t-48.5 -1.5h-30t-28 2q50 64 84 128.5t56 125t33 115.5t14 102q6 97 -11 163.5t-49.5 106.5t-76 55t-92 9
t-98 -31.5t-92 -66t-75.5 -94.5t-49 -118q-26 -104 -16 -187.5t46.5 -146.5t95 -105.5t129 -64.5t149.5 -23.5t157 17.5q34 9 54.5 -6.5t26 -38.5t-7 -46.5t-44.5 -30.5zM1085 1729q-17 -17 -42 -17t-48 23q-18 21 -12 47t25 43q31 29 59.5 44t62.5 15q26 0 48 -7.5t41 -17
t36 -17t35 -7.5q11 0 23 4t26 16q17 17 42.5 17t48.5 -25q9 -10 11.5 -22t0.5 -24t-9 -23.5t-16 -20.5q-31 -28 -60 -42.5t-63 -14.5q-27 0 -49.5 7.5t-41.5 17t-36 17t-34 7.5q-11 0 -23 -4t-25 -16z" />
    <glyph glyph-name="Odieresis" unicode="&#xd6;" horiz-adv-x="1444" 
d="M639 -98q-94 0 -183 27.5t-158.5 91.5t-112 167.5t-42.5 255.5q0 133 39.5 269t110 262.5t167.5 237t210.5 192.5t240 129t256.5 47q56 0 112 -9.5t112 -29.5q31 -12 41 -37.5t1 -49t-34 -37t-64 -1.5q-81 25 -166 25q-114 0 -224 -44t-208 -118.5t-181 -173.5t-143 -209
t-94 -225t-34 -221q0 -114 31.5 -194t82.5 -131t116 -74t132 -23q45 0 92.5 9.5t93 27t88.5 43t80 57.5q41 -12 84 -18.5t86 -8.5q-57 -54 -120.5 -98t-131 -75t-138 -47.5t-142.5 -16.5zM1393 193q-98 -24 -198 -23t-191 28t-166.5 80t-123.5 133t-63.5 187t13.5 242
q19 91 66.5 168t111 134t138 91.5t148 42t141 -14.5t117 -79.5t75.5 -152.5t18 -232q-3 -44 -15.5 -103.5t-33.5 -122.5t-49.5 -125t-63.5 -110q-26 -5 -51.5 -6.5t-48.5 -1.5h-30t-28 2q50 64 84 128.5t56 125t33 115.5t14 102q6 97 -11 163.5t-49.5 106.5t-76 55t-92 9
t-98 -31.5t-92 -66t-75.5 -94.5t-49 -118q-26 -104 -16 -187.5t46.5 -146.5t95 -105.5t129 -64.5t149.5 -23.5t157 17.5q34 9 54.5 -6.5t26 -38.5t-7 -46.5t-44.5 -30.5zM940 1798q2 25 14 46t30 37t41.5 25t49.5 9q25 0 47 -9t38 -25t24 -37t6 -46q-2 -24 -13 -45.5
t-29 -37.5t-41 -25t-48 -9q-27 0 -50 9t-39 25t-24 37.5t-6 45.5zM1257 1798q3 25 14.5 46t30 37t42 25t49.5 9q25 0 47.5 -9t38.5 -25t24.5 -37t5.5 -46q-2 -24 -13.5 -45.5t-29.5 -37.5t-41.5 -25t-48.5 -9q-26 0 -48.5 9t-38.5 25t-25 37.5t-7 45.5z" />
    <glyph glyph-name="multiply" unicode="&#xd7;" horiz-adv-x="983" 
d="M717 207q-16 27 -39.5 80t-51 119t-56.5 138.5t-56.5 138.5t-51.5 119.5t-40 80.5q-5 10 -7.5 22.5t-0.5 25t9.5 25t22.5 21.5q15 8 30 8.5t28 -5t23.5 -15t17.5 -21.5q15 -27 38 -79.5t50 -118.5t56 -138t56.5 -137.5t51 -118.5t39.5 -80q14 -21 11 -48t-34 -46
q-15 -8 -29.5 -8.5t-27 4t-22.5 13.5t-17 20zM287 219q-19 -18 -38.5 -23t-35 0t-27 17.5t-15 28.5t2 34t23.5 33q24 20 58 50t76 66.5t89.5 78t97.5 84.5q13 -29 24.5 -59.5t22.5 -59.5q-45 -39 -86.5 -76t-77.5 -69.5t-65 -59.5t-49 -45zM1014 852q-24 -19 -56 -45.5
t-69.5 -58.5t-79.5 -68t-86 -74q-5 11 -11 26t-13 31.5t-13.5 32.5t-11.5 29q78 68 146.5 125.5t119.5 99.5q29 24 56 21.5t41.5 -20.5t11 -45.5t-34.5 -53.5z" />
    <glyph glyph-name="Oslash" unicode="&#xd8;" horiz-adv-x="1444" 
d="M1587 1133q-57 -50 -138 -118.5t-177.5 -149t-203 -169t-214.5 -176.5q-31 61 -37 133l684 570q32 27 60 25t43 -19.5t13 -44.5t-30 -51zM1393 193q-98 -24 -198 -23t-191 28t-166.5 80t-123.5 133t-63.5 187t13.5 242q19 92 67 169.5t112.5 134.5t140 91.5t149.5 41
t141.5 -18t116.5 -84.5l-113 -95q-33 36 -77 49t-91.5 5.5t-96 -33t-90 -66t-73.5 -94t-47 -115.5q-26 -104 -16 -187.5t46.5 -146.5t95 -105.5t129 -64.5t149.5 -23.5t157 17.5q34 9 54.5 -6.5t26 -38.5t-7 -46.5t-44.5 -30.5zM1479 797q-3 -44 -15.5 -103.5t-33.5 -122.5
t-49.5 -125t-63.5 -110q-26 -5 -51.5 -6.5t-48.5 -1.5h-30t-28 2q50 64 84 128.5t56 125t33 115.5t14 102q3 45 0 86q32 28 63.5 53.5t58.5 50.5q17 -85 11 -194zM180 -31q-31 -24 -58.5 -21t-42.5 21.5t-13.5 45t30.5 48.5q37 29 93.5 74.5t126.5 103t151 124.5t168 139
q11 -32 23.5 -62.5t29.5 -56.5q-81 -67 -157 -129.5t-141.5 -116.5t-119 -97.5t-90.5 -72.5zM285 451q0 -100 24 -175l-121 -98q-21 54 -33 120t-12 146q0 133 39.5 269t110 262.5t167.5 237t210.5 192.5t240 129t256.5 47q56 0 112 -9.5t112 -29.5q31 -12 41 -37.5t1 -49
t-34 -37t-64 -1.5q-81 25 -166 25q-114 0 -224 -44t-208 -118.5t-181 -173.5t-143 -209t-94 -225t-34 -221zM639 -98q-96 0 -184.5 28t-159.5 93q26 20 54.5 43.5t60.5 48.5q49 -45 110.5 -65.5t126.5 -20.5q45 0 92.5 9.5t93 27t88.5 43t80 57.5q41 -12 84 -18.5t86 -8.5
q-57 -54 -120.5 -98t-131 -75t-138 -47.5t-142.5 -16.5z" />
    <glyph glyph-name="Ugrave" unicode="&#xd9;" horiz-adv-x="1159" 
d="M399 68q84 0 168.5 44.5t165.5 116.5q-5 -37 -6.5 -75t6.5 -76q-88 -65 -179 -104.5t-187 -39.5q-47 0 -88 14t-71 42.5t-47.5 72.5t-17.5 103q0 67 27 128.5t71.5 121t101.5 117.5t116.5 118.5t116.5 124.5t101.5 135t71.5 150t27 170q0 77 -23 124.5t-59 68.5t-81 18.5
t-89 -24.5t-82 -61.5t-61 -92.5q-9 -19 -24 -29t-31.5 -12t-32 4t-26 18.5t-12.5 32t9 45.5q35 83 96.5 138t133 81t146 21t134.5 -42t98.5 -107t38.5 -175q0 -97 -27 -183.5t-71 -164t-100.5 -147t-115.5 -133t-115.5 -121.5t-100.5 -112.5t-71 -106.5t-27 -103
q0 -45 26.5 -72.5t89.5 -27.5zM1243 973q-34 -31 -73 -85t-78 -122.5t-74.5 -147t-62.5 -157t-43.5 -153.5t-16.5 -136q0 -51 11.5 -67.5t33.5 -16.5q17 0 39 6t49.5 20t60 38.5t70.5 62.5q16 16 41 17.5t43 -17.5q19 -19 17.5 -43.5t-17.5 -40.5q-49 -49 -94.5 -82t-87 -53
t-78.5 -28.5t-68 -8.5q-71 0 -114 48.5t-43 139.5q0 66 17.5 147t46.5 168.5t68 176t81 169.5t85.5 149t82.5 114q43 51 83 69t69 6.5t42.5 -51.5t1.5 -104q-7 -39 -27.5 -94t-50.5 -118.5t-68 -132t-79.5 -134.5t-84.5 -126t-83 -107q12 80 44.5 176t77.5 189.5t97.5 174.5
t102.5 131q6 6 6 13t-3.5 11t-10 4.5t-13.5 -5.5zM948 1606q-13 20 -13.5 39.5t7.5 34t22.5 23.5t31.5 9t33.5 -10t29.5 -33l88 -158q15 -28 7.5 -50.5t-26 -32.5t-42 -4.5t-39.5 32.5z" />
    <glyph glyph-name="Uacute" unicode="&#xda;" horiz-adv-x="1159" 
d="M399 68q84 0 168.5 44.5t165.5 116.5q-5 -37 -6.5 -75t6.5 -76q-88 -65 -179 -104.5t-187 -39.5q-47 0 -88 14t-71 42.5t-47.5 72.5t-17.5 103q0 67 27 128.5t71.5 121t101.5 117.5t116.5 118.5t116.5 124.5t101.5 135t71.5 150t27 170q0 77 -23 124.5t-59 68.5t-81 18.5
t-89 -24.5t-82 -61.5t-61 -92.5q-9 -19 -24 -29t-31.5 -12t-32 4t-26 18.5t-12.5 32t9 45.5q35 83 96.5 138t133 81t146 21t134.5 -42t98.5 -107t38.5 -175q0 -97 -27 -183.5t-71 -164t-100.5 -147t-115.5 -133t-115.5 -121.5t-100.5 -112.5t-71 -106.5t-27 -103
q0 -45 26.5 -72.5t89.5 -27.5zM1243 973q-34 -31 -73 -85t-78 -122.5t-74.5 -147t-62.5 -157t-43.5 -153.5t-16.5 -136q0 -51 11.5 -67.5t33.5 -16.5q17 0 39 6t49.5 20t60 38.5t70.5 62.5q16 16 41 17.5t43 -17.5q19 -19 17.5 -43.5t-17.5 -40.5q-49 -49 -94.5 -82t-87 -53
t-78.5 -28.5t-68 -8.5q-71 0 -114 48.5t-43 139.5q0 66 17.5 147t46.5 168.5t68 176t81 169.5t85.5 149t82.5 114q43 51 83 69t69 6.5t42.5 -51.5t1.5 -104q-7 -39 -27.5 -94t-50.5 -118.5t-68 -132t-79.5 -134.5t-84.5 -126t-83 -107q12 80 44.5 176t77.5 189.5t97.5 174.5
t102.5 131q6 6 6 13t-3.5 11t-10 4.5t-13.5 -5.5zM1126 1438q-24 -20 -48 -16.5t-37.5 19.5t-13 39.5t25.5 45.5l188 164q20 17 39 20.5t34.5 -2.5t26 -19t13.5 -29.5t-4 -34.5t-25 -32z" />
    <glyph glyph-name="Ucircumflex" unicode="&#xdb;" horiz-adv-x="1159" 
d="M399 68q84 0 168.5 44.5t165.5 116.5q-5 -37 -6.5 -75t6.5 -76q-88 -65 -179 -104.5t-187 -39.5q-47 0 -88 14t-71 42.5t-47.5 72.5t-17.5 103q0 67 27 128.5t71.5 121t101.5 117.5t116.5 118.5t116.5 124.5t101.5 135t71.5 150t27 170q0 77 -23 124.5t-59 68.5t-81 18.5
t-89 -24.5t-82 -61.5t-61 -92.5q-9 -19 -24 -29t-31.5 -12t-32 4t-26 18.5t-12.5 32t9 45.5q35 83 96.5 138t133 81t146 21t134.5 -42t98.5 -107t38.5 -175q0 -97 -27 -183.5t-71 -164t-100.5 -147t-115.5 -133t-115.5 -121.5t-100.5 -112.5t-71 -106.5t-27 -103
q0 -45 26.5 -72.5t89.5 -27.5zM1243 973q-34 -31 -73 -85t-78 -122.5t-74.5 -147t-62.5 -157t-43.5 -153.5t-16.5 -136q0 -51 11.5 -67.5t33.5 -16.5q17 0 39 6t49.5 20t60 38.5t70.5 62.5q16 16 41 17.5t43 -17.5q19 -19 17.5 -43.5t-17.5 -40.5q-49 -49 -94.5 -82t-87 -53
t-78.5 -28.5t-68 -8.5q-71 0 -114 48.5t-43 139.5q0 66 17.5 147t46.5 168.5t68 176t81 169.5t85.5 149t82.5 114q43 51 83 69t69 6.5t42.5 -51.5t1.5 -104q-7 -39 -27.5 -94t-50.5 -118.5t-68 -132t-79.5 -134.5t-84.5 -126t-83 -107q12 80 44.5 176t77.5 189.5t97.5 174.5
t102.5 131q6 6 6 13t-3.5 11t-10 4.5t-13.5 -5.5zM1159 1657q-5 8 -12 9.5t-12.5 -1.5t-8 -9.5t1.5 -13.5l21 -34l-160 -111q-26 -18 -49.5 -12.5t-36 23t-10 41.5t28.5 44l217 162q23 17 41.5 20.5t33.5 -1t25.5 -15t17.5 -22.5l84 -162q15 -29 6.5 -51t-27.5 -32t-43 -4.5
t-40 32.5z" />
    <glyph glyph-name="Udieresis" unicode="&#xdc;" horiz-adv-x="1159" 
d="M399 68q84 0 168.5 44.5t165.5 116.5q-5 -37 -6.5 -75t6.5 -76q-88 -65 -179 -104.5t-187 -39.5q-47 0 -88 14t-71 42.5t-47.5 72.5t-17.5 103q0 67 27 128.5t71.5 121t101.5 117.5t116.5 118.5t116.5 124.5t101.5 135t71.5 150t27 170q0 77 -23 124.5t-59 68.5t-81 18.5
t-89 -24.5t-82 -61.5t-61 -92.5q-9 -19 -24 -29t-31.5 -12t-32 4t-26 18.5t-12.5 32t9 45.5q35 83 96.5 138t133 81t146 21t134.5 -42t98.5 -107t38.5 -175q0 -97 -27 -183.5t-71 -164t-100.5 -147t-115.5 -133t-115.5 -121.5t-100.5 -112.5t-71 -106.5t-27 -103
q0 -45 26.5 -72.5t89.5 -27.5zM1243 973q-34 -31 -73 -85t-78 -122.5t-74.5 -147t-62.5 -157t-43.5 -153.5t-16.5 -136q0 -51 11.5 -67.5t33.5 -16.5q17 0 39 6t49.5 20t60 38.5t70.5 62.5q16 16 41 17.5t43 -17.5q19 -19 17.5 -43.5t-17.5 -40.5q-49 -49 -94.5 -82t-87 -53
t-78.5 -28.5t-68 -8.5q-71 0 -114 48.5t-43 139.5q0 66 17.5 147t46.5 168.5t68 176t81 169.5t85.5 149t82.5 114q43 51 83 69t69 6.5t42.5 -51.5t1.5 -104q-7 -39 -27.5 -94t-50.5 -118.5t-68 -132t-79.5 -134.5t-84.5 -126t-83 -107q12 80 44.5 176t77.5 189.5t97.5 174.5
t102.5 131q6 6 6 13t-3.5 11t-10 4.5t-13.5 -5.5zM846 1608q2 24 13.5 45.5t30 37t42 24.5t49.5 9q25 0 47 -9t38 -24.5t24 -37t6 -45.5q-2 -25 -13 -46.5t-29 -37t-41 -24.5t-48 -9q-27 0 -50 9t-39 24.5t-24 37t-6 46.5zM1163 1608q2 24 14 45.5t30 37t41.5 24.5t49.5 9
q25 0 47.5 -9t38.5 -24.5t24.5 -37t6.5 -45.5q-2 -25 -13.5 -46.5t-29.5 -37t-41.5 -24.5t-48.5 -9q-26 0 -48.5 9t-38.5 24.5t-25 37t-7 46.5z" />
    <glyph glyph-name="Yacute" unicode="&#xdd;" horiz-adv-x="1104" 
d="M1188 131q-23 -22 -55 -50t-68 -56.5t-73 -56.5t-70 -50q26 51 48 104t48 109q25 22 47.5 45.5t38.5 38.5q17 17 41 18t43 -18q18 -19 16.5 -43.5t-16.5 -40.5zM502 -311q77 26 134.5 79.5t101 122.5t75 146t55.5 151q27 81 46 175t37.5 190t41.5 188.5t58 169.5
q22 51 49.5 80t55 40t52.5 4.5t42.5 -27t25 -53.5t0.5 -76q-7 -39 -23.5 -88t-40.5 -103.5t-56 -113t-71 -117.5q12 73 24.5 136t26.5 113.5t30 87t34 56.5q6 6 6 12.5t-4 10.5t-10.5 4t-13.5 -7q-28 -28 -47 -78t-33.5 -116t-28 -144t-30.5 -160.5t-39.5 -167t-55.5 -163.5
q-42 -100 -84.5 -173.5t-84 -124.5t-81 -83t-75 -49.5t-66 -24t-53.5 -6.5q-59 0 -93 30.5t-34 86.5q0 39 20 68t52.5 52.5t74.5 43.5t85.5 40.5t86 44t76.5 54.5q-24 -49 -54.5 -93t-65.5 -80t-73.5 -62.5t-78.5 -40.5q-11 -4 -15 -11t-2.5 -13.5t8 -10t15.5 -0.5z
M911 1239q0 -97 -27 -183t-71 -162.5t-100.5 -145t-115.5 -131t-115.5 -119t-100.5 -110.5t-71 -105.5t-27 -102.5q0 -45 26.5 -72.5t89.5 -27.5q69 0 135.5 25.5t129 68t120.5 98.5t109 117q-16 -59 -31.5 -119.5t-27.5 -103.5q-107 -108 -224.5 -163.5t-242.5 -55.5
q-47 0 -88 14t-71 42.5t-47.5 72t-17.5 102.5q0 67 27 128.5t71.5 119.5t101.5 115.5t116.5 116.5t116.5 122t101.5 133t71.5 148.5t27 169.5q0 77 -23 124.5t-59 68.5t-81 18.5t-89 -24.5t-82 -61.5t-61 -92.5q-9 -19 -24 -29t-31.5 -12t-32 4t-26 18.5t-12.5 32t9 45.5
q35 83 96.5 138t133 81t146 21t134.5 -42t98.5 -107t38.5 -175zM1085 1479q-24 -20 -48 -16.5t-37.5 19.5t-13 39.5t25.5 45.5l188 164q20 17 39 20.5t34.5 -2.5t26 -19t13.5 -29.5t-4 -34.5t-25 -32z" />
    <glyph glyph-name="Thorn" unicode="&#xde;" horiz-adv-x="1329" 
d="M657 1587q-3 27 7 48t26 33.5t36.5 16t39 -4.5t32.5 -28.5t19 -54.5q4 -38 4 -92t-4 -112t-11.5 -114t-17.5 -99q-51 -45 -99.5 -96t-94.5 -105q19 58 33.5 137.5t23 163.5t10.5 164.5t-4 142.5zM868 440q-63 0 -102.5 17t-58 43t-17 56t19.5 56t51.5 43t80.5 17
q59 0 127.5 -24t136.5 -56.5t129.5 -66t105.5 -52.5q23 -10 34 -25t13 -31.5t-5 -32t-20.5 -25.5t-32.5 -12.5t-42 7.5q-65 28 -123 59.5t-114 58.5t-111 45t-113 18q-9 0 -13.5 -5t-4.5 -10.5t4 -10.5t12 -5q24 0 50 -3.5t51 -9.5t48.5 -15t41.5 -19q-16 -4 -36.5 -7
t-40.5 -5.5t-39 -3.5t-32 -1zM1305 1253q-82 0 -165 -34.5t-163.5 -94t-157.5 -140t-147 -172.5t-131.5 -191t-111.5 -196t-87.5 -187.5t-58.5 -165.5q-3 -10 0.5 -16t9.5 -7.5t12.5 1.5t9.5 11q32 96 75 194.5t93.5 193.5t106 183.5t112.5 164.5q-30 -109 -65 -214.5
t-73.5 -200t-78.5 -174.5t-80.5 -138.5t-80 -91.5t-76.5 -33q-50 0 -77.5 31t-27.5 77q0 54 26.5 140.5t74.5 190.5t115.5 219t150 227t177.5 213.5t197.5 179t211 123t217.5 45.5q86 0 149 -25t104.5 -68t62 -101t20.5 -124q0 -88 -28 -167.5t-79 -147t-121.5 -122
t-154.5 -93.5q-10 4 -26 12t-34.5 18t-38 20t-37.5 19q85 35 154 80.5t117 101t74 121t26 140.5q0 42 -9.5 78t-32.5 63t-60.5 42t-93.5 15z" />
    <glyph glyph-name="germandbls" unicode="&#xdf;" horiz-adv-x="788" 
d="M299 686q9 32 33.5 48.5t46.5 13.5q-31 -90 -57.5 -181t-55.5 -188q-32 -68 -75.5 -126.5t-106.5 -121.5q-16 -15 -40.5 -17t-43.5 17t-17 44t17 40q42 42 85 92.5t82.5 110t73.5 126.5t58 142zM698 1061q-12 -27 -34 -55.5t-48 -60t-53 -67t-48.5 -76t-35.5 -87
t-14 -99.5v-34t2 -35q-19 -57 -33 -103.5t-28 -93.5q-27 -90 -55 -182.5t-58 -178t-61.5 -160t-65.5 -130t-71 -87.5t-77 -32q-45 0 -66.5 29.5t-21.5 83.5q0 34 19 85.5t55.5 116.5t89.5 142.5t121 165.5q-24 -82 -49 -150t-50.5 -125t-51.5 -104.5t-54 -89.5
q-6 -10 -4.5 -17.5t6.5 -11t12.5 -2t12.5 9.5q22 35 46 73.5t49 89t51 117.5t53 159q20 73 40 146.5t42.5 150t47.5 157.5t54 168q32 93 67.5 174.5t77.5 147.5q29 45 65 72t71.5 36.5t67 2t52 -30t25.5 -59.5t-12 -87q-14 -40 -36 -71.5t-46.5 -60.5t-49.5 -58t-45 -62.5
t-32.5 -74t-12.5 -93.5q0 -55 18.5 -99.5t40 -89.5t38.5 -96t14 -118q-12 -16 -29.5 -27.5t-36.5 -19.5q-6 -2 -7.5 -8t0.5 -11.5t7 -9t13 -0.5q29 12 61.5 35.5t56.5 48.5q16 16 41 17.5t43 -17.5q19 -19 17.5 -43.5t-17.5 -40.5q-75 -75 -157.5 -114.5t-184.5 -39.5
q-54 0 -77 21t-23 53q0 21 9 36.5t23 25.5t31.5 14.5t34.5 3.5q15 -2 28 -1t22.5 10t15.5 28.5t6 54.5q0 51 -16.5 96t-36 91.5t-35.5 97.5t-16 113q0 48 13.5 90.5t35 80.5t47.5 72t51.5 65.5t47.5 61t34 58.5q4 9 1.5 15t-7.5 8t-11 -0.5t-10 -10.5z" />
    <glyph glyph-name="agrave" unicode="&#xe0;" horiz-adv-x="799" 
d="M84 131q-16 -15 -40.5 -17t-43.5 17t-17 44t17 40q20 20 38 37t36 33.5t37 32t41 32.5q-22 -45 -35 -93t-11 -103zM510 563q-29 -15 -62 -41t-65 -63.5t-60 -86.5t-47 -110q-5 -15 -9.5 -39t-3 -46.5t12 -39t37.5 -16.5q42 0 83.5 25.5t80.5 66t74.5 91t66 100.5t55 94
t42.5 73q23 38 49 47t49 3q20 -5 32 -17t17 -28t3 -33.5t-11 -32.5q-38 -72 -74.5 -130.5t-64.5 -104.5t-45 -79t-17 -55q0 -12 6.5 -17t14.5 -5q7 0 15.5 3t22 13t34.5 29t53 51q15 16 40 17.5t44 -17.5q18 -19 16.5 -43.5t-16.5 -40.5q-38 -38 -69 -64.5t-60 -43.5
t-58 -25t-63 -8q-57 0 -90.5 34.5t-28.5 106.5q1 9 -3.5 14t-10 5.5t-11 -4t-6.5 -13.5q-3 -18 -1 -35.5t5 -29.5q-43 -36 -90 -57t-104 -21q-31 0 -59 11t-49.5 33t-34.5 56t-13 80q0 56 19 114.5t51 114.5t75 105.5t91 87t99 59t99 21.5q34 0 56 -20.5t16 -63.5
q-6 -45 -36.5 -78t-75.5 -64t-100 -65t-109 -80q16 40 39 76t49.5 65.5t55.5 51.5t56 36q11 6 13.5 13.5t-0.5 13.5t-10 8t-15 -2zM510 911q-20 31 -12.5 57.5t28.5 39.5t48 7t47 -40l88 -158q15 -29 7.5 -51t-26.5 -32t-42.5 -4.5t-39.5 32.5z" />
    <glyph glyph-name="aacute" unicode="&#xe1;" horiz-adv-x="799" 
d="M84 131q-16 -15 -40.5 -17t-43.5 17t-17 44t17 40q20 20 38 37t36 33.5t37 32t41 32.5q-22 -45 -35 -93t-11 -103zM510 563q-29 -15 -62 -41t-65 -63.5t-60 -86.5t-47 -110q-5 -15 -9.5 -39t-3 -46.5t12 -39t37.5 -16.5q42 0 83.5 25.5t80.5 66t74.5 91t66 100.5t55 94
t42.5 73q23 38 49 47t49 3q20 -5 32 -17t17 -28t3 -33.5t-11 -32.5q-38 -72 -74.5 -130.5t-64.5 -104.5t-45 -79t-17 -55q0 -12 6.5 -17t14.5 -5q7 0 15.5 3t22 13t34.5 29t53 51q15 16 40 17.5t44 -17.5q18 -19 16.5 -43.5t-16.5 -40.5q-38 -38 -69 -64.5t-60 -43.5
t-58 -25t-63 -8q-57 0 -90.5 34.5t-28.5 106.5q1 9 -3.5 14t-10 5.5t-11 -4t-6.5 -13.5q-3 -18 -1 -35.5t5 -29.5q-43 -36 -90 -57t-104 -21q-31 0 -59 11t-49.5 33t-34.5 56t-13 80q0 56 19 114.5t51 114.5t75 105.5t91 87t99 59t99 21.5q34 0 56 -20.5t16 -63.5
q-6 -45 -36.5 -78t-75.5 -64t-100 -65t-109 -80q16 40 39 76t49.5 65.5t55.5 51.5t56 36q11 6 13.5 13.5t-0.5 13.5t-10 8t-15 -2zM655 743q-24 -19 -48 -15.5t-37.5 19t-13 39.5t25.5 45l188 164q20 18 39 21.5t34.5 -2.5t26 -19.5t13.5 -30t-4 -34t-25 -31.5z" />
    <glyph glyph-name="acircumflex" unicode="&#xe2;" horiz-adv-x="799" 
d="M84 131q-16 -15 -40.5 -17t-43.5 17t-17 44t17 40q20 20 38 37t36 33.5t37 32t41 32.5q-22 -45 -35 -93t-11 -103zM510 563q-29 -15 -62 -41t-65 -63.5t-60 -86.5t-47 -110q-5 -15 -9.5 -39t-3 -46.5t12 -39t37.5 -16.5q42 0 83.5 25.5t80.5 66t74.5 91t66 100.5t55 94
t42.5 73q23 38 49 47t49 3q20 -5 32 -17t17 -28t3 -33.5t-11 -32.5q-38 -72 -74.5 -130.5t-64.5 -104.5t-45 -79t-17 -55q0 -12 6.5 -17t14.5 -5q7 0 15.5 3t22 13t34.5 29t53 51q15 16 40 17.5t44 -17.5q18 -19 16.5 -43.5t-16.5 -40.5q-38 -38 -69 -64.5t-60 -43.5
t-58 -25t-63 -8q-57 0 -90.5 34.5t-28.5 106.5q1 9 -3.5 14t-10 5.5t-11 -4t-6.5 -13.5q-3 -18 -1 -35.5t5 -29.5q-43 -36 -90 -57t-104 -21q-31 0 -59 11t-49.5 33t-34.5 56t-13 80q0 56 19 114.5t51 114.5t75 105.5t91 87t99 59t99 21.5q34 0 56 -20.5t16 -63.5
q-6 -45 -36.5 -78t-75.5 -64t-100 -65t-109 -80q16 40 39 76t49.5 65.5t55.5 51.5t56 36q11 6 13.5 13.5t-0.5 13.5t-10 8t-15 -2zM670 909q-6 9 -13 10t-12 -2t-7.5 -9t1.5 -13l20 -35l-159 -110q-26 -18 -50 -12.5t-36.5 23t-10 41.5t28.5 44l217 162q23 17 42 20.5t34 -1
t25.5 -15.5t17.5 -23l84 -162q15 -28 6.5 -50.5t-27.5 -32.5t-43 -4.5t-40 32.5z" />
    <glyph glyph-name="atilde" unicode="&#xe3;" horiz-adv-x="799" 
d="M84 131q-16 -15 -40.5 -17t-43.5 17t-17 44t17 40q20 20 38 37t36 33.5t37 32t41 32.5q-22 -45 -35 -93t-11 -103zM510 563q-29 -15 -62 -41t-65 -63.5t-60 -86.5t-47 -110q-5 -15 -9.5 -39t-3 -46.5t12 -39t37.5 -16.5q42 0 83.5 25.5t80.5 66t74.5 91t66 100.5t55 94
t42.5 73q23 38 49 47t49 3q20 -5 32 -17t17 -28t3 -33.5t-11 -32.5q-38 -72 -74.5 -130.5t-64.5 -104.5t-45 -79t-17 -55q0 -12 6.5 -17t14.5 -5q7 0 15.5 3t22 13t34.5 29t53 51q15 16 40 17.5t44 -17.5q18 -19 16.5 -43.5t-16.5 -40.5q-38 -38 -69 -64.5t-60 -43.5
t-58 -25t-63 -8q-57 0 -90.5 34.5t-28.5 106.5q1 9 -3.5 14t-10 5.5t-11 -4t-6.5 -13.5q-3 -18 -1 -35.5t5 -29.5q-43 -36 -90 -57t-104 -21q-31 0 -59 11t-49.5 33t-34.5 56t-13 80q0 56 19 114.5t51 114.5t75 105.5t91 87t99 59t99 21.5q34 0 56 -20.5t16 -63.5
q-6 -45 -36.5 -78t-75.5 -64t-100 -65t-109 -80q16 40 39 76t49.5 65.5t55.5 51.5t56 36q11 6 13.5 13.5t-0.5 13.5t-10 8t-15 -2zM526 815q-17 -17 -42 -17t-48 23q-18 22 -12 47.5t25 42.5q30 29 59 44.5t63 15.5q26 0 48 -7.5t41 -17t36 -17t35 -7.5q11 0 23 4t26 16
q17 17 42 17t48 -25q9 -10 12 -22.5t0.5 -24.5t-9 -23.5t-15.5 -19.5q-31 -28 -60 -43t-63 -15q-27 0 -49.5 8t-42 17t-36.5 17t-34 8q-11 0 -22.5 -4.5t-24.5 -16.5z" />
    <glyph glyph-name="adieresis" unicode="&#xe4;" horiz-adv-x="799" 
d="M84 131q-16 -15 -40.5 -17t-43.5 17t-17 44t17 40q20 20 38 37t36 33.5t37 32t41 32.5q-22 -45 -35 -93t-11 -103zM510 563q-29 -15 -62 -41t-65 -63.5t-60 -86.5t-47 -110q-5 -15 -9.5 -39t-3 -46.5t12 -39t37.5 -16.5q42 0 83.5 25.5t80.5 66t74.5 91t66 100.5t55 94
t42.5 73q23 38 49 47t49 3q20 -5 32 -17t17 -28t3 -33.5t-11 -32.5q-38 -72 -74.5 -130.5t-64.5 -104.5t-45 -79t-17 -55q0 -12 6.5 -17t14.5 -5q7 0 15.5 3t22 13t34.5 29t53 51q15 16 40 17.5t44 -17.5q18 -19 16.5 -43.5t-16.5 -40.5q-38 -38 -69 -64.5t-60 -43.5
t-58 -25t-63 -8q-57 0 -90.5 34.5t-28.5 106.5q1 9 -3.5 14t-10 5.5t-11 -4t-6.5 -13.5q-3 -18 -1 -35.5t5 -29.5q-43 -36 -90 -57t-104 -21q-31 0 -59 11t-49.5 33t-34.5 56t-13 80q0 56 19 114.5t51 114.5t75 105.5t91 87t99 59t99 21.5q34 0 56 -20.5t16 -63.5
q-6 -45 -36.5 -78t-75.5 -64t-100 -65t-109 -80q16 40 39 76t49.5 65.5t55.5 51.5t56 36q11 6 13.5 13.5t-0.5 13.5t-10 8t-15 -2zM375 885q2 24 13.5 45.5t30 37t42 24.5t49.5 9q25 0 47 -9t38 -24.5t24 -37t6 -45.5q-2 -25 -13 -46.5t-29 -37t-41 -24.5t-48 -9
q-27 0 -50 9t-39 24.5t-24 37t-6 46.5zM692 885q2 24 14 45.5t30 37t41.5 24.5t49.5 9q25 0 47.5 -9t38.5 -24.5t24.5 -37t6.5 -45.5q-2 -25 -13.5 -46.5t-29.5 -37t-41.5 -24.5t-48.5 -9q-26 0 -48.5 9t-38.5 24.5t-25 37t-7 46.5z" />
    <glyph glyph-name="aring" unicode="&#xe5;" horiz-adv-x="799" 
d="M84 131q-16 -15 -40.5 -17t-43.5 17t-17 44t17 40q20 20 38 37t36 33.5t37 32t41 32.5q-22 -45 -35 -93t-11 -103zM510 563q-29 -15 -62 -41t-65 -63.5t-60 -86.5t-47 -110q-5 -15 -9.5 -39t-3 -46.5t12 -39t37.5 -16.5q42 0 83.5 25.5t80.5 66t74.5 91t66 100.5t55 94
t42.5 73q23 38 49 47t49 3q20 -5 32 -17t17 -28t3 -33.5t-11 -32.5q-38 -72 -74.5 -130.5t-64.5 -104.5t-45 -79t-17 -55q0 -12 6.5 -17t14.5 -5q7 0 15.5 3t22 13t34.5 29t53 51q15 16 40 17.5t44 -17.5q18 -19 16.5 -43.5t-16.5 -40.5q-38 -38 -69 -64.5t-60 -43.5
t-58 -25t-63 -8q-57 0 -90.5 34.5t-28.5 106.5q1 9 -3.5 14t-10 5.5t-11 -4t-6.5 -13.5q-3 -18 -1 -35.5t5 -29.5q-43 -36 -90 -57t-104 -21q-31 0 -59 11t-49.5 33t-34.5 56t-13 80q0 56 19 114.5t51 114.5t75 105.5t91 87t99 59t99 21.5q34 0 56 -20.5t16 -63.5
q-6 -45 -36.5 -78t-75.5 -64t-100 -65t-109 -80q16 40 39 76t49.5 65.5t55.5 51.5t56 36q11 6 13.5 13.5t-0.5 13.5t-10 8t-15 -2zM492 860q0 34 14.5 68t40 61.5t60 44.5t75.5 17q31 0 57.5 -10.5t45.5 -29.5t29.5 -45t10.5 -57q0 -39 -16 -73.5t-43 -60t-61.5 -40
t-71.5 -14.5q-32 0 -57.5 10t-44.5 28.5t-29 44t-10 56.5zM600 877q0 -23 13 -36.5t36 -13.5q13 0 26 6t23 15.5t16.5 22.5t6.5 28q0 20 -14 33.5t-35 13.5q-15 0 -28 -6.5t-22.5 -16.5t-15.5 -22.5t-6 -23.5z" />
    <glyph glyph-name="ae" unicode="&#xe6;" horiz-adv-x="1030" 
d="M84 131q-16 -15 -40.5 -17t-43.5 17t-17 44t17 40q20 20 38 37t36 33.5t37 32t41 32.5q-22 -45 -34 -91t-12 -89v-16zM313 121q27 0 54 10.5t53 29.5t50.5 44.5t47.5 54.5q-5 -23 -7.5 -45.5t-2.5 -44.5t2.5 -40.5t7.5 -35.5q-49 -48 -105.5 -76t-119.5 -28q-31 0 -59 11
t-49.5 33t-34.5 56t-13 80q0 56 19 114.5t51 114.5t75 105.5t91 87t99 59t99 21.5q34 0 56 -20.5t16 -63.5q-6 -45 -36.5 -78t-75.5 -64t-100 -65t-109 -80q16 40 39 76t49.5 65.5t55.5 51.5t56 36q11 6 13.5 13.5t-0.5 13.5t-10 8t-15 -2q-29 -15 -62 -41t-65 -63.5
t-60 -86.5t-47 -110q-5 -15 -9.5 -39t-3 -46.5t12 -39t37.5 -16.5zM766 98q66 0 132.5 26t131.5 91q16 16 41 17.5t43 -17.5q19 -19 17.5 -43.5t-17.5 -40.5q-80 -80 -170 -115.5t-178 -35.5q-116 0 -171.5 48.5t-55.5 141.5q0 56 18.5 114.5t51 114.5t75 105.5t91 87
t99.5 59t99 21.5q59 0 89 -33t23 -96q-5 -53 -35.5 -104.5t-81.5 -92t-119.5 -66.5t-148.5 -28q8 29 22.5 58t31.5 55q40 4 74.5 21.5t61 39.5t43.5 45t23 39q7 17 -1.5 26.5t-28.5 6.5q-33 -6 -67.5 -28t-66 -54.5t-58.5 -72t-45 -79.5t-25 -78t0.5 -67.5t32 -47.5
t69.5 -18z" />
    <glyph glyph-name="ccedilla" unicode="&#xe7;" 
d="M365 98q66 0 132.5 26t131.5 91q15 16 40 17.5t44 -17.5q18 -19 16.5 -43.5t-16.5 -40.5q-60 -60 -128 -91t-136 -52q-35 -11 -58 -23t-43 -35q-12 5 -31 4.5t-36 -8.5q-8 -2 -11 -8t-1.5 -11.5t6.5 -8.5t14 0q24 7 50.5 4t49.5 -16t38 -36.5t15 -56.5q0 -45 -18.5 -77
t-48.5 -52t-68 -29t-77 -8t-74.5 10.5t-61.5 26.5q-18 13 -19 33t9 36.5t28.5 23.5t41.5 -5q19 -10 47.5 -15.5t55.5 -3.5t46 13.5t19 36.5q0 23 -18.5 29t-37.5 4q-18 -15 -37 -15.5t-32.5 10.5t-18.5 31t6 45q15 36 33.5 61t38 41t38.5 23.5t34 7.5q8 0 12 5t4 10.5
t-4.5 10.5t-13.5 5q-20 0 -46 -9.5t-55 -35.5q-42 23 -65 64t-23 100q0 26 2.5 45.5t7.5 38.5q3 10 -0.5 16t-9 7.5t-11.5 -2.5t-9 -13q-6 -22 -9.5 -52.5t-3.5 -57.5l-20 -21q-16 -15 -40.5 -17t-43.5 17t-17 44t17 40q36 36 78.5 82t86.5 93.5t88.5 92.5t84.5 80
q56 48 116 78.5t117 30.5q59 0 89 -33t24 -96q-3 -37 -16.5 -68t-42.5 -65q-24 -27 -49.5 -29t-42.5 11.5t-19.5 38.5t18.5 52q25 31 26 46.5t-13 15.5q-33 0 -69 -19t-69.5 -50.5t-62.5 -72t-49.5 -82t-29.5 -82t-2.5 -72t31 -50.5t71.5 -19z" />
    <glyph glyph-name="egrave" unicode="&#xe8;" 
d="M365 98q66 0 132.5 26t131.5 91q15 16 40 17.5t44 -17.5q18 -19 16.5 -43.5t-16.5 -40.5q-81 -80 -170.5 -115.5t-177.5 -35.5q-112 0 -170 48.5t-58 141.5q0 26 2.5 45.5t7.5 38.5q3 10 -0.5 16t-9 7.5t-11.5 -2.5t-9 -13q-6 -22 -9.5 -52.5t-3.5 -57.5l-20 -21
q-16 -15 -40.5 -17t-43.5 17t-17 44t17 40q36 36 78.5 82t86.5 93.5t88.5 92.5t84.5 80q56 48 116 78.5t117 30.5q59 0 89 -33t24 -96q-5 -53 -35.5 -104.5t-81.5 -92t-119.5 -66.5t-148.5 -28q8 29 22 58t31 55q41 4 75.5 21.5t61 39.5t43.5 45t23 39q6 17 -2.5 26.5
t-28.5 6.5q-33 -6 -67.5 -28t-66 -54.5t-58 -72t-44.5 -79.5t-25.5 -78t0.5 -67.5t32.5 -47.5t69.5 -18zM403 911q-13 20 -13.5 39.5t7.5 34t22.5 23.5t31.5 9.5t33.5 -9.5t29.5 -33l88 -158q15 -29 7.5 -51t-26 -32t-42 -4.5t-39.5 32.5z" />
    <glyph glyph-name="eacute" unicode="&#xe9;" 
d="M365 98q66 0 132.5 26t131.5 91q15 16 40 17.5t44 -17.5q18 -19 16.5 -43.5t-16.5 -40.5q-81 -80 -170.5 -115.5t-177.5 -35.5q-112 0 -170 48.5t-58 141.5q0 26 2.5 45.5t7.5 38.5q3 10 -0.5 16t-9 7.5t-11.5 -2.5t-9 -13q-6 -22 -9.5 -52.5t-3.5 -57.5l-20 -21
q-16 -15 -40.5 -17t-43.5 17t-17 44t17 40q36 36 78.5 82t86.5 93.5t88.5 92.5t84.5 80q56 48 116 78.5t117 30.5q59 0 89 -33t24 -96q-5 -53 -35.5 -104.5t-81.5 -92t-119.5 -66.5t-148.5 -28q8 29 22 58t31 55q41 4 75.5 21.5t61 39.5t43.5 45t23 39q6 17 -2.5 26.5
t-28.5 6.5q-33 -6 -67.5 -28t-66 -54.5t-58 -72t-44.5 -79.5t-25.5 -78t0.5 -67.5t32.5 -47.5t69.5 -18zM532 743q-24 -19 -48 -15.5t-37.5 19t-13 39.5t25.5 45l188 164q20 18 39 21.5t34.5 -2.5t26 -19.5t13.5 -30t-4 -34t-25 -31.5z" />
    <glyph glyph-name="ecircumflex" unicode="&#xea;" 
d="M365 98q66 0 132.5 26t131.5 91q15 16 40 17.5t44 -17.5q18 -19 16.5 -43.5t-16.5 -40.5q-81 -80 -170.5 -115.5t-177.5 -35.5q-112 0 -170 48.5t-58 141.5q0 26 2.5 45.5t7.5 38.5q3 10 -0.5 16t-9 7.5t-11.5 -2.5t-9 -13q-6 -22 -9.5 -52.5t-3.5 -57.5l-20 -21
q-16 -15 -40.5 -17t-43.5 17t-17 44t17 40q36 36 78.5 82t86.5 93.5t88.5 92.5t84.5 80q56 48 116 78.5t117 30.5q59 0 89 -33t24 -96q-5 -53 -35.5 -104.5t-81.5 -92t-119.5 -66.5t-148.5 -28q8 29 22 58t31 55q41 4 75.5 21.5t61 39.5t43.5 45t23 39q6 17 -2.5 26.5
t-28.5 6.5q-33 -6 -67.5 -28t-66 -54.5t-58 -72t-44.5 -79.5t-25.5 -78t0.5 -67.5t32.5 -47.5t69.5 -18zM575 909q-5 9 -12 10t-12 -2t-7.5 -9t1.5 -13l20 -35l-159 -110q-26 -18 -50 -12.5t-36.5 23t-10 41.5t28.5 44l217 162q23 17 41.5 20.5t33.5 -1t26 -15.5t18 -23
l84 -162q15 -28 6.5 -50.5t-28 -32.5t-43.5 -4.5t-40 32.5z" />
    <glyph glyph-name="edieresis" unicode="&#xeb;" 
d="M365 98q66 0 132.5 26t131.5 91q15 16 40 17.5t44 -17.5q18 -19 16.5 -43.5t-16.5 -40.5q-81 -80 -170.5 -115.5t-177.5 -35.5q-112 0 -170 48.5t-58 141.5q0 26 2.5 45.5t7.5 38.5q3 10 -0.5 16t-9 7.5t-11.5 -2.5t-9 -13q-6 -22 -9.5 -52.5t-3.5 -57.5l-20 -21
q-16 -15 -40.5 -17t-43.5 17t-17 44t17 40q36 36 78.5 82t86.5 93.5t88.5 92.5t84.5 80q56 48 116 78.5t117 30.5q59 0 89 -33t24 -96q-5 -53 -35.5 -104.5t-81.5 -92t-119.5 -66.5t-148.5 -28q8 29 22 58t31 55q41 4 75.5 21.5t61 39.5t43.5 45t23 39q6 17 -2.5 26.5
t-28.5 6.5q-33 -6 -67.5 -28t-66 -54.5t-58 -72t-44.5 -79.5t-25.5 -78t0.5 -67.5t32.5 -47.5t69.5 -18zM289 885q2 24 13.5 45.5t30 37t42 24.5t49.5 9q25 0 47 -9t38 -24.5t24 -37t6 -45.5q-2 -25 -13 -46.5t-29 -37t-41 -24.5t-48 -9q-27 0 -50 9t-39 24.5t-24 37
t-6 46.5zM606 885q2 24 14 45.5t30 37t41.5 24.5t49.5 9q25 0 47.5 -9t38.5 -24.5t24.5 -37t6.5 -45.5q-2 -25 -13.5 -46.5t-29.5 -37t-41.5 -24.5t-48.5 -9q-26 0 -48.5 9t-38.5 24.5t-25 37t-7 46.5z" />
    <glyph glyph-name="igrave" unicode="&#xec;" horiz-adv-x="455" 
d="M309 618q10 20 22 32t24 18t24.5 7t23.5 -1q42 -8 50 -47t-17 -95q-29 -63 -52.5 -122.5t-40 -111.5t-25.5 -92.5t-9 -64.5q0 -12 6.5 -18t14.5 -6q18 0 49.5 27.5t75.5 70.5q15 16 40 17.5t44 -17.5q18 -19 16.5 -43.5t-16.5 -40.5q-36 -35 -66.5 -61.5t-59 -44
t-56.5 -26.5t-58 -9q-60 0 -95.5 37t-35.5 114q0 41 13.5 79.5t29.5 80.5q3 9 0.5 15t-8 8t-12 -1t-11.5 -12q-11 -23 -21 -53.5t-18 -62.5q-5 -8 -22.5 -27.5t-34.5 -36.5q-16 -15 -40.5 -17t-43.5 17t-17 44t17 40q45 45 90.5 96.5t86.5 104.5t75.5 104.5t56.5 97.5z
M297 911q-20 31 -12.5 57.5t28.5 39.5t48 7t47 -40l88 -158q15 -29 7.5 -51t-26.5 -32t-42.5 -4.5t-39.5 32.5z" />
    <glyph glyph-name="iacute" unicode="&#xed;" horiz-adv-x="455" 
d="M309 618q10 20 22 32t24 18t24.5 7t23.5 -1q42 -8 50 -47t-17 -95q-29 -63 -52.5 -122.5t-40 -111.5t-25.5 -92.5t-9 -64.5q0 -12 6.5 -18t14.5 -6q18 0 49.5 27.5t75.5 70.5q15 16 40 17.5t44 -17.5q18 -19 16.5 -43.5t-16.5 -40.5q-36 -35 -66.5 -61.5t-59 -44
t-56.5 -26.5t-58 -9q-60 0 -95.5 37t-35.5 114q0 41 13.5 79.5t29.5 80.5q3 9 0.5 15t-8 8t-12 -1t-11.5 -12q-11 -23 -21 -53.5t-18 -62.5q-5 -8 -22.5 -27.5t-34.5 -36.5q-16 -15 -40.5 -17t-43.5 17t-17 44t17 40q45 45 90.5 96.5t86.5 104.5t75.5 104.5t56.5 97.5z
M430 743q-24 -19 -48 -15.5t-38 19t-13 39.5t25 45l189 164q30 26 57 22.5t42 -23t13.5 -47t-28.5 -48.5z" />
    <glyph glyph-name="icircumflex" unicode="&#xee;" horiz-adv-x="455" 
d="M309 618q10 20 22 32t24 18t24.5 7t23.5 -1q42 -8 50 -47t-17 -95q-29 -63 -52.5 -122.5t-40 -111.5t-25.5 -92.5t-9 -64.5q0 -12 6.5 -18t14.5 -6q18 0 49.5 27.5t75.5 70.5q15 16 40 17.5t44 -17.5q18 -19 16.5 -43.5t-16.5 -40.5q-36 -35 -66.5 -61.5t-59 -44
t-56.5 -26.5t-58 -9q-60 0 -95.5 37t-35.5 114q0 41 13.5 79.5t29.5 80.5q3 9 0.5 15t-8 8t-12 -1t-11.5 -12q-11 -23 -21 -53.5t-18 -62.5q-5 -8 -22.5 -27.5t-34.5 -36.5q-16 -15 -40.5 -17t-43.5 17t-17 44t17 40q45 45 90.5 96.5t86.5 104.5t75.5 104.5t56.5 97.5z
M453 909q-6 9 -13 10t-12 -2t-7.5 -9t1.5 -13l20 -35l-159 -110q-26 -18 -50 -12.5t-36.5 23t-10 41.5t28.5 44l217 162q23 17 42 20.5t33.5 -1t25.5 -15.5t18 -23l84 -162q15 -28 6.5 -50.5t-28 -32.5t-43.5 -4.5t-40 32.5z" />
    <glyph glyph-name="idieresis" unicode="&#xef;" horiz-adv-x="455" 
d="M309 618q10 20 22 32t24 18t24.5 7t23.5 -1q42 -8 50 -47t-17 -95q-29 -63 -52.5 -122.5t-40 -111.5t-25.5 -92.5t-9 -64.5q0 -12 6.5 -18t14.5 -6q18 0 49.5 27.5t75.5 70.5q15 16 40 17.5t44 -17.5q18 -19 16.5 -43.5t-16.5 -40.5q-36 -35 -66.5 -61.5t-59 -44
t-56.5 -26.5t-58 -9q-60 0 -95.5 37t-35.5 114q0 41 13.5 79.5t29.5 80.5q3 9 0.5 15t-8 8t-12 -1t-11.5 -12q-11 -23 -21 -53.5t-18 -62.5q-5 -8 -22.5 -27.5t-34.5 -36.5q-16 -15 -40.5 -17t-43.5 17t-17 44t17 40q45 45 90.5 96.5t86.5 104.5t75.5 104.5t56.5 97.5z
M162 885q2 24 13.5 45.5t30 37t42 24.5t49.5 9q25 0 47 -9t38 -24.5t24 -37t6 -45.5q-2 -25 -13 -46.5t-29 -37t-41 -24.5t-48 -9q-27 0 -50 9t-39 24.5t-24 37t-6 46.5zM479 885q2 24 14 45.5t30 37t41.5 24.5t49.5 9q25 0 47.5 -9t38.5 -24.5t24.5 -37t6.5 -45.5
q-2 -25 -13.5 -46.5t-29.5 -37t-41.5 -24.5t-48.5 -9q-26 0 -48.5 9t-38.5 24.5t-25 37t-7 46.5z" />
    <glyph glyph-name="eth" unicode="&#xf0;" horiz-adv-x="788" 
d="M1040 981q-40 -23 -97.5 -50.5t-120 -54t-123 -49t-105.5 -34.5q-26 -8 -51.5 2.5t-34.5 48.5q-6 31 12.5 53.5t44.5 28.5q44 11 98.5 31t111 44t109.5 50.5t93 50.5q12 6 25 9t25.5 0.5t24.5 -10.5t21 -24q16 -31 3 -56.5t-36 -39.5zM137 170q0 56 19 114.5t51 114.5
t75 105.5t91 87t99 59t99 21.5q34 0 56 -20.5t16 -63.5q-6 -45 -36.5 -78t-75.5 -64t-100 -65t-109 -80q16 40 39 76t49.5 65.5t55.5 51.5t56 36q11 6 13.5 13.5t-0.5 13.5t-10 8t-15 -2q-29 -15 -62 -41t-65 -63.5t-60 -86.5t-47 -110q-8 -24 -9.5 -49.5t6 -45.5t25.5 -33
t50 -13q43 0 90 26.5t93.5 74.5t90 114t78.5 145t59 167t32 181l141 62q-8 -108 -32 -216.5t-63 -209t-92 -187t-118 -151t-141.5 -101t-161.5 -36.5q-40 0 -74.5 11t-59.5 33t-39 56t-14 80zM913 1182q5 -17 9.5 -35t7.5 -37q-29 -15 -62.5 -31.5t-68.5 -31.5q-3 24 -8 45
t-11 38q-11 27 -7.5 49.5t15.5 38t29.5 22.5t36 3.5t34.5 -18.5t25 -43zM84 131q-16 -15 -40.5 -17t-43.5 17t-17 44t17 40q20 20 38 37t36 33.5t37 32t41 32.5q-22 -45 -34 -91t-12 -89v-16z" />
    <glyph glyph-name="ntilde" unicode="&#xf1;" horiz-adv-x="756" 
d="M215 293q3 8 0 14t-9 8t-13 -1t-11 -13q-6 -15 -17 -45t-24 -61q-9 -11 -21.5 -26t-35.5 -38q-16 -15 -40.5 -17t-43.5 17t-17 44t17 40q46 47 91 98.5t85.5 104t73.5 103t55 95.5q19 40 45.5 51t52.5 7q15 -3 28 -12.5t19 -26t4.5 -39.5t-14.5 -53q-13 -15 -27 -32
t-27 -33.5t-23.5 -29.5t-14.5 -20q-5 -8 -4 -15t6 -10.5t12 -2.5t13 10q35 48 76.5 95.5t85 85.5t87.5 61.5t85 23.5q34 0 60 -20t26 -58q0 -39 -15.5 -81t-39 -84.5t-51 -83.5t-51 -78.5t-39 -69t-15.5 -54.5q0 -15 9.5 -22.5t24.5 -7.5q20 0 57 27.5t81 70.5
q15 16 40 17.5t44 -17.5q18 -19 16.5 -43.5t-16.5 -40.5q-36 -35 -67 -61.5t-61.5 -44t-63 -26.5t-70.5 -9q-57 0 -94.5 37t-37.5 108q0 40 18 83.5t42.5 85t51 78t44.5 62.5q11 16 13 28.5t-3.5 17.5t-17 1.5t-27.5 -18.5q-27 -27 -67.5 -74t-84.5 -104t-85 -120t-68 -122
q-6 -20 -17.5 -32.5t-25 -19t-28.5 -7.5t-27 4q-28 11 -34 36t3 50q6 18 13 33.5t16 38t22 54.5t31 83zM459 815q-17 -17 -42 -17t-48 23q-19 22 -13 47.5t25 42.5q31 29 60 44.5t63 15.5q26 0 47.5 -7.5t40.5 -17t36.5 -17t35.5 -7.5q11 0 23 4t26 16q17 17 42 17t48 -25
q9 -10 11.5 -22.5t0.5 -24.5t-8.5 -23.5t-15.5 -19.5q-31 -28 -60 -43t-63 -15q-28 0 -50.5 8t-41.5 17t-36 17t-34 8q-11 0 -23 -4.5t-24 -16.5z" />
    <glyph glyph-name="ograve" unicode="&#xf2;" horiz-adv-x="819" 
d="M819 215q16 16 41 17.5t43 -17.5q19 -19 17.5 -43.5t-17.5 -40.5q-54 -54 -122.5 -83.5t-133.5 -29.5q-37 0 -69.5 10.5t-57 33t-39 56.5t-14.5 81q0 55 20 113.5t53.5 107t78.5 79.5t96 31q42 0 63 -29.5t21 -74.5q0 -59 -32 -127.5t-95 -124.5q-17 0 -31 7t-14 30
t7 46.5t19.5 45t29.5 40.5t36 32q7 5 8.5 12.5t-2.5 12.5t-12 6t-19 -7q-17 -13 -34.5 -32t-31.5 -43.5t-23 -54t-9 -62.5q0 -34 18.5 -49t44.5 -15q20 0 42.5 6.5t44.5 16.5t41 23t32 26zM84 131q-16 -15 -40.5 -17t-43.5 17t-17 44t17 40q34 34 64 61.5t65 55.5
q-11 -32 -17 -65.5t-6 -65.5q0 -13 0.5 -23.5t2.5 -21.5zM367 106q14 0 35.5 5.5t41.5 17.5q10 -34 28.5 -59.5t43.5 -42.5q-37 -22 -80 -33.5t-82 -11.5q-56 0 -97 16.5t-67.5 45.5t-39.5 69t-13 88q0 53 16.5 108t45.5 107t69.5 98.5t89 81t102.5 54.5t111 20
q63 0 102 -31t54 -78h-12q-31 0 -59 -10t-54 -27q-6 11 -17.5 16t-25.5 5q-48 0 -98 -32t-91 -81.5t-67.5 -109.5t-26.5 -117q0 -47 23 -73t68 -26zM465 911q-20 31 -12.5 57.5t28.5 39.5t48 7t46 -40l89 -158q15 -29 7.5 -51t-26.5 -32t-42.5 -4.5t-39.5 32.5z" />
    <glyph glyph-name="oacute" unicode="&#xf3;" horiz-adv-x="819" 
d="M819 215q16 16 41 17.5t43 -17.5q19 -19 17.5 -43.5t-17.5 -40.5q-54 -54 -122.5 -83.5t-133.5 -29.5q-37 0 -69.5 10.5t-57 33t-39 56.5t-14.5 81q0 55 20 113.5t53.5 107t78.5 79.5t96 31q42 0 63 -29.5t21 -74.5q0 -59 -32 -127.5t-95 -124.5q-17 0 -31 7t-14 30
t7 46.5t19.5 45t29.5 40.5t36 32q7 5 8.5 12.5t-2.5 12.5t-12 6t-19 -7q-17 -13 -34.5 -32t-31.5 -43.5t-23 -54t-9 -62.5q0 -34 18.5 -49t44.5 -15q20 0 42.5 6.5t44.5 16.5t41 23t32 26zM84 131q-16 -15 -40.5 -17t-43.5 17t-17 44t17 40q34 34 64 61.5t65 55.5
q-11 -32 -17 -65.5t-6 -65.5q0 -13 0.5 -23.5t2.5 -21.5zM367 106q14 0 35.5 5.5t41.5 17.5q10 -34 28.5 -59.5t43.5 -42.5q-37 -22 -80 -33.5t-82 -11.5q-56 0 -97 16.5t-67.5 45.5t-39.5 69t-13 88q0 53 16.5 108t45.5 107t69.5 98.5t89 81t102.5 54.5t111 20
q63 0 102 -31t54 -78h-12q-31 0 -59 -10t-54 -27q-6 11 -17.5 16t-25.5 5q-48 0 -98 -32t-91 -81.5t-67.5 -109.5t-26.5 -117q0 -47 23 -73t68 -26zM573 743q-24 -19 -48 -15.5t-37.5 19t-13 39.5t25.5 45l188 164q20 18 39 21.5t34.5 -2.5t26 -19.5t13.5 -30t-4 -34
t-25 -31.5z" />
    <glyph glyph-name="ocircumflex" unicode="&#xf4;" horiz-adv-x="819" 
d="M819 215q16 16 41 17.5t43 -17.5q19 -19 17.5 -43.5t-17.5 -40.5q-54 -54 -122.5 -83.5t-133.5 -29.5q-37 0 -69.5 10.5t-57 33t-39 56.5t-14.5 81q0 55 20 113.5t53.5 107t78.5 79.5t96 31q42 0 63 -29.5t21 -74.5q0 -59 -32 -127.5t-95 -124.5q-17 0 -31 7t-14 30
t7 46.5t19.5 45t29.5 40.5t36 32q7 5 8.5 12.5t-2.5 12.5t-12 6t-19 -7q-17 -13 -34.5 -32t-31.5 -43.5t-23 -54t-9 -62.5q0 -34 18.5 -49t44.5 -15q20 0 42.5 6.5t44.5 16.5t41 23t32 26zM84 131q-16 -15 -40.5 -17t-43.5 17t-17 44t17 40q34 34 64 61.5t65 55.5
q-11 -32 -17 -65.5t-6 -65.5q0 -13 0.5 -23.5t2.5 -21.5zM367 106q14 0 35.5 5.5t41.5 17.5q10 -34 28.5 -59.5t43.5 -42.5q-37 -22 -80 -33.5t-82 -11.5q-56 0 -97 16.5t-67.5 45.5t-39.5 69t-13 88q0 53 16.5 108t45.5 107t69.5 98.5t89 81t102.5 54.5t111 20
q63 0 102 -31t54 -78h-12q-31 0 -59 -10t-54 -27q-6 11 -17.5 16t-25.5 5q-48 0 -98 -32t-91 -81.5t-67.5 -109.5t-26.5 -117q0 -47 23 -73t68 -26zM614 909q-5 9 -12 10t-12.5 -2t-7.5 -9t2 -13l20 -35l-160 -110q-26 -18 -49.5 -12.5t-36 23t-10 41.5t28.5 44l217 162
q23 17 41.5 20.5t33.5 -1t26 -15.5t18 -23l84 -162q15 -28 6.5 -50.5t-28 -32.5t-43.5 -4.5t-40 32.5z" />
    <glyph glyph-name="otilde" unicode="&#xf5;" horiz-adv-x="819" 
d="M819 215q16 16 41 17.5t43 -17.5q19 -19 17.5 -43.5t-17.5 -40.5q-54 -54 -122.5 -83.5t-133.5 -29.5q-37 0 -69.5 10.5t-57 33t-39 56.5t-14.5 81q0 55 20 113.5t53.5 107t78.5 79.5t96 31q42 0 63 -29.5t21 -74.5q0 -59 -32 -127.5t-95 -124.5q-17 0 -31 7t-14 30
t7 46.5t19.5 45t29.5 40.5t36 32q7 5 8.5 12.5t-2.5 12.5t-12 6t-19 -7q-17 -13 -34.5 -32t-31.5 -43.5t-23 -54t-9 -62.5q0 -34 18.5 -49t44.5 -15q20 0 42.5 6.5t44.5 16.5t41 23t32 26zM84 131q-16 -15 -40.5 -17t-43.5 17t-17 44t17 40q34 34 64 61.5t65 55.5
q-11 -32 -17 -65.5t-6 -65.5q0 -13 0.5 -23.5t2.5 -21.5zM367 106q14 0 35.5 5.5t41.5 17.5q10 -34 28.5 -59.5t43.5 -42.5q-37 -22 -80 -33.5t-82 -11.5q-56 0 -97 16.5t-67.5 45.5t-39.5 69t-13 88q0 53 16.5 108t45.5 107t69.5 98.5t89 81t102.5 54.5t111 20
q63 0 102 -31t54 -78h-12q-31 0 -59 -10t-54 -27q-6 11 -17.5 16t-25.5 5q-48 0 -98 -32t-91 -81.5t-67.5 -109.5t-26.5 -117q0 -47 23 -73t68 -26zM481 815q-17 -17 -42 -17t-48 23q-18 22 -12 47.5t24 42.5q31 29 60 44.5t63 15.5q26 0 48 -7.5t41 -17t36 -17t35 -7.5
q11 0 23 4t26 16q17 17 42 17t48 -25q9 -10 12 -22.5t0.5 -24.5t-9 -23.5t-15.5 -19.5q-31 -28 -60 -43t-63 -15q-28 0 -50.5 8t-41.5 17t-36 17t-34 8q-11 0 -22.5 -4.5t-24.5 -16.5z" />
    <glyph glyph-name="odieresis" unicode="&#xf6;" horiz-adv-x="819" 
d="M819 215q16 16 41 17.5t43 -17.5q19 -19 17.5 -43.5t-17.5 -40.5q-54 -54 -122.5 -83.5t-133.5 -29.5q-37 0 -69.5 10.5t-57 33t-39 56.5t-14.5 81q0 55 20 113.5t53.5 107t78.5 79.5t96 31q42 0 63 -29.5t21 -74.5q0 -59 -32 -127.5t-95 -124.5q-17 0 -31 7t-14 30
t7 46.5t19.5 45t29.5 40.5t36 32q7 5 8.5 12.5t-2.5 12.5t-12 6t-19 -7q-17 -13 -34.5 -32t-31.5 -43.5t-23 -54t-9 -62.5q0 -34 18.5 -49t44.5 -15q20 0 42.5 6.5t44.5 16.5t41 23t32 26zM84 131q-16 -15 -40.5 -17t-43.5 17t-17 44t17 40q34 34 64 61.5t65 55.5
q-11 -32 -17 -65.5t-6 -65.5q0 -13 0.5 -23.5t2.5 -21.5zM367 106q14 0 35.5 5.5t41.5 17.5q10 -34 28.5 -59.5t43.5 -42.5q-37 -22 -80 -33.5t-82 -11.5q-56 0 -97 16.5t-67.5 45.5t-39.5 69t-13 88q0 53 16.5 108t45.5 107t69.5 98.5t89 81t102.5 54.5t111 20
q63 0 102 -31t54 -78h-12q-31 0 -59 -10t-54 -27q-6 11 -17.5 16t-25.5 5q-48 0 -98 -32t-91 -81.5t-67.5 -109.5t-26.5 -117q0 -47 23 -73t68 -26zM326 885q2 24 13.5 45.5t30 37t42 24.5t49.5 9q25 0 47 -9t37.5 -24.5t24 -37t5.5 -45.5q-2 -25 -13 -46.5t-28.5 -37
t-41 -24.5t-48.5 -9q-27 0 -49.5 9t-38.5 24.5t-24.5 37t-5.5 46.5zM643 885q2 24 14 45.5t30 37t41.5 24.5t49.5 9q25 0 47.5 -9t38.5 -24.5t24.5 -37t6.5 -45.5q-2 -25 -14 -46.5t-30 -37t-41 -24.5t-48 -9q-26 0 -48.5 9t-38.5 24.5t-25 37t-7 46.5z" />
    <glyph glyph-name="divide" unicode="&#xf7;" horiz-adv-x="983" 
d="M963 530q-31 -4 -84.5 -4.5t-118 1t-135.5 4t-135.5 3.5t-118 0.5t-84.5 -4.5q-13 -2 -26.5 0.5t-24.5 9.5t-18.5 19.5t-8.5 30.5q-3 34 18 53.5t47 22.5q31 4 84.5 4.5t118 -1t135.5 -4t135.5 -3.5t118 -0.5t84.5 4.5q13 1 26.5 -1t24.5 -9t18 -19.5t9 -30.5
q3 -34 -18 -53t-47 -23zM401 274q0 24 10 44.5t26.5 35t37.5 23t43 8.5q21 0 39.5 -7.5t32 -20.5t21 -30t7.5 -36q0 -23 -9 -43t-25 -35t-36.5 -24t-43.5 -9q-44 0 -73.5 27t-29.5 67zM639 893q0 24 10 44t26 35t37 23.5t44 8.5q21 0 39.5 -7.5t32 -20.5t21 -30.5t7.5 -36.5
q0 -22 -9.5 -42t-25 -35t-36.5 -24t-44 -9q-43 0 -72.5 27t-29.5 67z" />
    <glyph glyph-name="oslash" unicode="&#xf8;" horiz-adv-x="819" 
d="M819 215q16 16 41 17.5t43 -17.5q19 -19 17.5 -43.5t-17.5 -40.5q-54 -54 -122.5 -83.5t-133.5 -29.5q-37 0 -69.5 10.5t-57 33t-39 56.5t-14.5 81q0 55 20 113.5t53.5 107t78.5 79.5t96 31q42 0 63 -29.5t21 -74.5q0 -59 -32 -127.5t-95 -124.5q-17 0 -31 7t-14 30
t7 46.5t19.5 45t29.5 40.5t36 32q7 5 8.5 12.5t-2.5 12.5t-12 6t-19 -7q-17 -13 -34.5 -32t-31.5 -43.5t-23 -54t-9 -62.5q0 -34 18.5 -49t44.5 -15q20 0 42.5 6.5t44.5 16.5t41 23t32 26zM84 131q-16 -15 -40.5 -17t-43.5 17t-17 44t17 40q34 34 64 61.5t65 55.5
q-11 -32 -17 -65.5t-6 -65.5q0 -13 0.5 -23.5t2.5 -21.5zM367 106q14 0 35.5 5.5t41.5 17.5q10 -34 28.5 -59.5t43.5 -42.5q-37 -22 -80 -33.5t-82 -11.5q-56 0 -97 16.5t-67.5 45.5t-39.5 69t-13 88q0 53 16.5 108t45.5 107t69.5 98.5t89 81t102.5 54.5t111 20
q63 0 102 -31t54 -78h-12q-31 0 -59 -10t-54 -27q-6 11 -17.5 16t-25.5 5q-48 0 -98 -32t-91 -81.5t-67.5 -109.5t-26.5 -117q0 -47 23 -73t68 -26zM838 670q-22 -28 -41 -51t-39 -48q-13 31 -33.5 58t-46.5 43l59 71q27 32 54.5 35.5t45.5 -11.5t21 -42t-20 -55zM201 -78
q-26 -30 -54 -32t-46.5 13t-21.5 41.5t21 53.5l43 49q17 -26 41 -45.5t56 -32.5z" />
    <glyph glyph-name="ugrave" unicode="&#xf9;" horiz-adv-x="795" 
d="M621 -10q-36 0 -60 14t-38 38t-18 55t1 65q1 8 -3 13t-9.5 5.5t-11.5 -3t-7 -11.5q-5 -25 -4 -47t6 -45q-48 -42 -98 -63t-107 -21q-24 0 -48.5 7t-43.5 22.5t-31 40.5t-12 61q0 46 17.5 92t40.5 92q4 8 2 14t-7 8.5t-11.5 0.5t-10.5 -11q-14 -24 -30.5 -65t-28.5 -96
l-25 -25q-16 -15 -40.5 -17t-43.5 17t-17 44t17 40q45 45 92.5 96.5t91.5 104.5t80.5 104.5t59.5 97.5q10 20 21.5 32t23.5 18t24.5 7t24.5 -1q21 -4 33.5 -15.5t18 -27.5t4 -33.5t-8.5 -32.5q-36 -74 -70.5 -139t-61.5 -118.5t-43 -94.5t-14 -68q0 -14 7 -21t18 -7
q13 0 34 8.5t48.5 30t61.5 59.5t73 98q9 29 22 67t30 78.5t37 79.5t43 69.5t48 49.5t52 19q39 0 57 -21.5t20.5 -57t-8 -80t-30.5 -90t-46.5 -88t-54.5 -73.5q34 164 86 277q4 7 1.5 13t-7 8t-10.5 0t-10 -9q-20 -41 -39.5 -96.5t-34.5 -113t-24 -110t-9 -88.5
q0 -18 6.5 -24t16.5 -6q31 0 131 98q15 16 40 17.5t44 -17.5q18 -19 16.5 -43.5t-16.5 -40.5q-44 -44 -78.5 -71.5t-64.5 -43t-57.5 -21t-57.5 -5.5zM438 911q-13 20 -13.5 39.5t7.5 34t22.5 23.5t31.5 9.5t33.5 -9.5t29.5 -33l88 -158q15 -29 7.5 -51t-26 -32t-42 -4.5
t-39.5 32.5z" />
    <glyph glyph-name="uacute" unicode="&#xfa;" horiz-adv-x="795" 
d="M621 -10q-36 0 -60 14t-38 38t-18 55t1 65q1 8 -3 13t-9.5 5.5t-11.5 -3t-7 -11.5q-5 -25 -4 -47t6 -45q-48 -42 -98 -63t-107 -21q-24 0 -48.5 7t-43.5 22.5t-31 40.5t-12 61q0 46 17.5 92t40.5 92q4 8 2 14t-7 8.5t-11.5 0.5t-10.5 -11q-14 -24 -30.5 -65t-28.5 -96
l-25 -25q-16 -15 -40.5 -17t-43.5 17t-17 44t17 40q45 45 92.5 96.5t91.5 104.5t80.5 104.5t59.5 97.5q10 20 21.5 32t23.5 18t24.5 7t24.5 -1q21 -4 33.5 -15.5t18 -27.5t4 -33.5t-8.5 -32.5q-36 -74 -70.5 -139t-61.5 -118.5t-43 -94.5t-14 -68q0 -14 7 -21t18 -7
q13 0 34 8.5t48.5 30t61.5 59.5t73 98q9 29 22 67t30 78.5t37 79.5t43 69.5t48 49.5t52 19q39 0 57 -21.5t20.5 -57t-8 -80t-30.5 -90t-46.5 -88t-54.5 -73.5q34 164 86 277q4 7 1.5 13t-7 8t-10.5 0t-10 -9q-20 -41 -39.5 -96.5t-34.5 -113t-24 -110t-9 -88.5
q0 -18 6.5 -24t16.5 -6q31 0 131 98q15 16 40 17.5t44 -17.5q18 -19 16.5 -43.5t-16.5 -40.5q-44 -44 -78.5 -71.5t-64.5 -43t-57.5 -21t-57.5 -5.5zM612 743q-24 -19 -48 -15.5t-37.5 19t-13 39.5t25.5 45l188 164q20 18 39 21.5t34.5 -2.5t26 -19.5t13.5 -30t-4 -34
t-25 -31.5z" />
    <glyph glyph-name="ucircumflex" unicode="&#xfb;" horiz-adv-x="795" 
d="M621 -10q-36 0 -60 14t-38 38t-18 55t1 65q1 8 -3 13t-9.5 5.5t-11.5 -3t-7 -11.5q-5 -25 -4 -47t6 -45q-48 -42 -98 -63t-107 -21q-24 0 -48.5 7t-43.5 22.5t-31 40.5t-12 61q0 46 17.5 92t40.5 92q4 8 2 14t-7 8.5t-11.5 0.5t-10.5 -11q-14 -24 -30.5 -65t-28.5 -96
l-25 -25q-16 -15 -40.5 -17t-43.5 17t-17 44t17 40q45 45 92.5 96.5t91.5 104.5t80.5 104.5t59.5 97.5q10 20 21.5 32t23.5 18t24.5 7t24.5 -1q21 -4 33.5 -15.5t18 -27.5t4 -33.5t-8.5 -32.5q-36 -74 -70.5 -139t-61.5 -118.5t-43 -94.5t-14 -68q0 -14 7 -21t18 -7
q13 0 34 8.5t48.5 30t61.5 59.5t73 98q9 29 22 67t30 78.5t37 79.5t43 69.5t48 49.5t52 19q39 0 57 -21.5t20.5 -57t-8 -80t-30.5 -90t-46.5 -88t-54.5 -73.5q34 164 86 277q4 7 1.5 13t-7 8t-10.5 0t-10 -9q-20 -41 -39.5 -96.5t-34.5 -113t-24 -110t-9 -88.5
q0 -18 6.5 -24t16.5 -6q31 0 131 98q15 16 40 17.5t44 -17.5q18 -19 16.5 -43.5t-16.5 -40.5q-44 -44 -78.5 -71.5t-64.5 -43t-57.5 -21t-57.5 -5.5zM631 909q-6 9 -13 10t-12 -2t-7.5 -9t1.5 -13l21 -35l-160 -110q-26 -18 -49.5 -12.5t-36.5 23t-10.5 41.5t28.5 44
l217 162q23 17 42 20.5t34 -1t25.5 -15.5t17.5 -23l84 -162q15 -28 6.5 -50.5t-27.5 -32.5t-43 -4.5t-40 32.5z" />
    <glyph glyph-name="udieresis" unicode="&#xfc;" horiz-adv-x="795" 
d="M621 -10q-36 0 -60 14t-38 38t-18 55t1 65q1 8 -3 13t-9.5 5.5t-11.5 -3t-7 -11.5q-5 -25 -4 -47t6 -45q-48 -42 -98 -63t-107 -21q-24 0 -48.5 7t-43.5 22.5t-31 40.5t-12 61q0 46 17.5 92t40.5 92q4 8 2 14t-7 8.5t-11.5 0.5t-10.5 -11q-14 -24 -30.5 -65t-28.5 -96
l-25 -25q-16 -15 -40.5 -17t-43.5 17t-17 44t17 40q45 45 92.5 96.5t91.5 104.5t80.5 104.5t59.5 97.5q10 20 21.5 32t23.5 18t24.5 7t24.5 -1q21 -4 33.5 -15.5t18 -27.5t4 -33.5t-8.5 -32.5q-36 -74 -70.5 -139t-61.5 -118.5t-43 -94.5t-14 -68q0 -14 7 -21t18 -7
q13 0 34 8.5t48.5 30t61.5 59.5t73 98q9 29 22 67t30 78.5t37 79.5t43 69.5t48 49.5t52 19q39 0 57 -21.5t20.5 -57t-8 -80t-30.5 -90t-46.5 -88t-54.5 -73.5q34 164 86 277q4 7 1.5 13t-7 8t-10.5 0t-10 -9q-20 -41 -39.5 -96.5t-34.5 -113t-24 -110t-9 -88.5
q0 -18 6.5 -24t16.5 -6q31 0 131 98q15 16 40 17.5t44 -17.5q18 -19 16.5 -43.5t-16.5 -40.5q-44 -44 -78.5 -71.5t-64.5 -43t-57.5 -21t-57.5 -5.5zM342 885q2 24 14 45.5t30 37t41.5 24.5t49.5 9q25 0 47 -9t38 -24.5t24 -37t6 -45.5q-2 -25 -13 -46.5t-29 -37t-41 -24.5
t-48 -9q-27 0 -50 9t-39 24.5t-24 37t-6 46.5zM659 885q3 24 14.5 45.5t30 37t42 24.5t49.5 9q25 0 47.5 -9t38.5 -24.5t24.5 -37t5.5 -45.5q-2 -25 -13.5 -46.5t-29.5 -37t-41.5 -24.5t-48.5 -9q-26 0 -48.5 9t-38.5 24.5t-25 37t-7 46.5z" />
    <glyph glyph-name="yacute" unicode="&#xfd;" horiz-adv-x="739" 
d="M823 131q-22 -22 -54 -50t-68 -56.5t-73.5 -56.5t-70.5 -50q26 51 48 104t48 109q25 22 48 45.5t38 38.5q17 17 41.5 18t42.5 -18q19 -19 17.5 -43.5t-17.5 -40.5zM137 121q0 46 17.5 92t40.5 92q4 8 2 14t-7 8.5t-11.5 0.5t-10.5 -11q-14 -24 -30.5 -65t-28.5 -96
l-25 -25q-16 -15 -40.5 -17t-43.5 17t-17 44t17 40q45 45 92.5 96.5t91.5 104.5t80.5 104.5t59.5 97.5q10 20 21.5 32t23.5 18t24.5 7t24.5 -1q21 -4 33.5 -15.5t18 -27.5t4 -33.5t-8.5 -32.5q-36 -74 -70.5 -139t-61.5 -118.5t-43 -94.5t-14 -68q0 -14 7 -21t18 -7
q13 0 34 8.5t48.5 30t61.5 59.5t73 98q9 29 22 67t30 78.5t37 79.5t43 69.5t48 49.5t52 19q39 0 57 -21.5t20.5 -57t-8.5 -80t-31.5 -90.5t-47.5 -89.5t-56 -75.5q20 84 42.5 153t47.5 128q4 7 1.5 13t-7 8t-10.5 0t-10 -9q-30 -60 -50 -124t-37.5 -130t-35.5 -132t-45 -130
q-64 -150 -128 -240t-123 -139t-109 -64.5t-85 -15.5q-59 0 -93 30.5t-34 86.5q0 39 20 68t52.5 52.5t74.5 43.5t85.5 40.5t86 44t76.5 54.5q-48 -99 -119.5 -173t-152.5 -103q-11 -4 -14.5 -11t-2 -13.5t7.5 -10t15 -0.5q43 15 91 47.5t95 87t90 132.5t76 185q3 8 -0.5 13
t-9 6.5t-11.5 -1t-9 -9.5q-11 -28 -18 -49.5t-19 -49.5q-34 -32 -71 -46.5t-79 -14.5q-24 0 -48.5 7t-43.5 22.5t-31 40.5t-12 61zM612 743q-24 -19 -48 -15.5t-37.5 19t-13 39.5t25.5 45l188 164q20 18 39 21.5t34.5 -2.5t26 -19.5t13.5 -30t-4 -34t-25 -31.5z" />
    <glyph glyph-name="thorn" unicode="&#xfe;" horiz-adv-x="791" 
d="M84 131q-16 -15 -40.5 -17t-43.5 17t-17 44t17 40q35 35 75 80.5t82.5 97.5t88 109t92.5 116l-4 -14q-22 -72 -43 -143t-39 -139q-15 -18 -37 -44t-45.5 -53.5t-46.5 -52.5t-39 -41zM512 598q28 67 57 131t56.5 121t53 104t46.5 80q5 9 4 16t-6 10t-12.5 1t-14.5 -12
q-43 -66 -78 -134.5t-65 -138t-55 -138t-47 -132.5q-19 -17 -38 -41t-36 -49q-5 -7 -3.5 -13.5t6 -10t10.5 -3t11 7.5q38 52 81 102.5t87.5 89.5t88.5 63t85 24q34 0 60 -20t26 -58q0 -39 -15.5 -81t-39 -84.5t-51 -83.5t-51 -78.5t-39 -69t-15.5 -54.5q0 -15 10 -22.5
t25 -7.5q20 0 57 27.5t81 70.5q15 16 40 17.5t43 -17.5q19 -19 17.5 -43.5t-17.5 -40.5q-35 -35 -66 -61.5t-61.5 -44t-63 -26.5t-71.5 -9q-57 0 -94 37t-37 108q0 32 12.5 66.5t31 69t40.5 66.5t40.5 59.5t31 49t12.5 33.5q0 6 -3 10.5t-9 4.5q-12 0 -42.5 -29t-70.5 -75.5
t-84 -105t-82 -118.5q-33 -114 -71 -219.5t-81 -187t-90 -130.5t-98 -49q-45 0 -66.5 29.5t-21.5 83.5q0 34 19 85.5t55.5 116.5t89.5 142.5t121 165.5q-22 -85 -46.5 -153t-51 -124.5t-53.5 -103t-54 -88.5q-6 -10 -4.5 -17.5t7 -10.5t13 -1t13.5 12q22 36 46.5 77t49.5 93
t50.5 117t50.5 148q20 69 42.5 151t48 169t53.5 175t59.5 170t66.5 153t73.5 123.5t81 82.5t89.5 30q42 0 69 -26.5t27 -77.5q0 -66 -34.5 -127t-85.5 -121.5t-109 -123t-105 -132.5z" />
    <glyph glyph-name="ydieresis" unicode="&#xff;" horiz-adv-x="739" 
d="M823 131q-22 -22 -54 -50t-68 -56.5t-73.5 -56.5t-70.5 -50q26 51 48 104t48 109q25 22 48 45.5t38 38.5q17 17 41.5 18t42.5 -18q19 -19 17.5 -43.5t-17.5 -40.5zM137 121q0 46 17.5 92t40.5 92q4 8 2 14t-7 8.5t-11.5 0.5t-10.5 -11q-14 -24 -30.5 -65t-28.5 -96
l-25 -25q-16 -15 -40.5 -17t-43.5 17t-17 44t17 40q45 45 92.5 96.5t91.5 104.5t80.5 104.5t59.5 97.5q10 20 21.5 32t23.5 18t24.5 7t24.5 -1q21 -4 33.5 -15.5t18 -27.5t4 -33.5t-8.5 -32.5q-36 -74 -70.5 -139t-61.5 -118.5t-43 -94.5t-14 -68q0 -14 7 -21t18 -7
q13 0 34 8.5t48.5 30t61.5 59.5t73 98q9 29 22 67t30 78.5t37 79.5t43 69.5t48 49.5t52 19q39 0 57 -21.5t20.5 -57t-8.5 -80t-31.5 -90.5t-47.5 -89.5t-56 -75.5q20 84 42.5 153t47.5 128q4 7 1.5 13t-7 8t-10.5 0t-10 -9q-30 -60 -50 -124t-37.5 -130t-35.5 -132t-45 -130
q-64 -150 -128 -240t-123 -139t-109 -64.5t-85 -15.5q-59 0 -93 30.5t-34 86.5q0 39 20 68t52.5 52.5t74.5 43.5t85.5 40.5t86 44t76.5 54.5q-48 -99 -119.5 -173t-152.5 -103q-11 -4 -14.5 -11t-2 -13.5t7.5 -10t15 -0.5q43 15 91 47.5t95 87t90 132.5t76 185q3 8 -0.5 13
t-9 6.5t-11.5 -1t-9 -9.5q-11 -28 -18 -49.5t-19 -49.5q-34 -32 -71 -46.5t-79 -14.5q-24 0 -48.5 7t-43.5 22.5t-31 40.5t-12 61zM342 885q2 24 14 45.5t30 37t41.5 24.5t49.5 9q25 0 47 -9t38 -24.5t24 -37t6 -45.5q-2 -25 -13 -46.5t-29 -37t-41 -24.5t-48 -9
q-27 0 -50 9t-39 24.5t-24 37t-6 46.5zM659 885q3 24 14.5 45.5t30 37t42 24.5t49.5 9q25 0 47.5 -9t38.5 -24.5t24.5 -37t5.5 -45.5q-2 -25 -13.5 -46.5t-29.5 -37t-41.5 -24.5t-48.5 -9q-26 0 -48.5 9t-38.5 24.5t-25 37t-7 46.5z" />
    <glyph glyph-name="Amacron" unicode="&#x100;" horiz-adv-x="1337" 
d="M285 319q0 -78 23.5 -131.5t65.5 -83t99 -35t123.5 11t140 55.5t148.5 100q-2 -19 -3 -37t-1 -33q0 -23 2 -44.5t8 -47.5q-91 -61 -181.5 -98t-173.5 -46.5t-155 7.5t-125 63.5t-83 122.5t-30 184q0 105 28.5 216t79 220t120 214t151.5 198.5t173.5 172t186 135t189 88.5
t182.5 32q73 0 125 -18.5t85 -51t48 -75.5t15 -92q0 -48 -13 -99t-37 -101t-58.5 -96t-78.5 -83q-30 -26 -58.5 -23t-45 22t-15.5 48t31 55q28 24 54 55t46 65.5t32 69t12 66.5q0 25 -8.5 47t-27 38t-48.5 25t-72 9q-66 0 -142.5 -27t-156 -75t-159 -115.5t-152.5 -148
t-135.5 -172.5t-109 -189.5t-73 -198.5t-26.5 -199zM913 166q0 72 21 153t55.5 161.5t79.5 154t93 129.5t95 89.5t86 33.5q36 0 55 -23.5t19 -68.5q0 -39 -14.5 -85.5t-39.5 -97t-57.5 -102t-68.5 -100t-73 -93t-70 -79.5q7 56 33 124t62 134.5t77.5 123.5t79.5 91q7 7 8 14
t-3 12t-11 5.5t-15 -5.5q-43 -38 -91.5 -102.5t-89 -142.5t-67 -161.5t-26.5 -158.5q0 -45 14 -67t37.5 -25.5t53.5 7.5t61.5 31t62.5 45.5t57 51.5q16 16 41 17.5t43 -17.5q19 -19 17.5 -43.5t-17.5 -40.5q-57 -57 -117 -96t-116.5 -58.5t-106.5 -18.5t-87.5 24t-59 68.5
t-21.5 115.5zM1436 1729q-43 -6 -80.5 -4.5t-74.5 4.5t-74.5 4.5t-80.5 -4.5q-23 -4 -45.5 9t-25.5 48q-3 29 16.5 47.5t44.5 21.5q43 6 80.5 4.5t73.5 -4.5t73.5 -4.5t81.5 4.5q12 2 24 0t22 -9t17 -18.5t9 -29.5q1 -15 -4 -27.5t-14 -21t-20.5 -14t-22.5 -6.5z" />
    <glyph glyph-name="amacron" unicode="&#x101;" horiz-adv-x="799" 
d="M84 131q-16 -15 -40.5 -17t-43.5 17t-17 44t17 40q20 20 38 37t36 33.5t37 32t41 32.5q-22 -45 -35 -93t-11 -103zM510 563q-29 -15 -62 -41t-65 -63.5t-60 -86.5t-47 -110q-5 -15 -9.5 -39t-3 -46.5t12 -39t37.5 -16.5q42 0 83.5 25.5t80.5 66t74.5 91t66 100.5t55 94
t42.5 73q23 38 49 47t49 3q20 -5 32 -17t17 -28t3 -33.5t-11 -32.5q-38 -72 -74.5 -130.5t-64.5 -104.5t-45 -79t-17 -55q0 -12 6.5 -17t14.5 -5q7 0 15.5 3t22 13t34.5 29t53 51q15 16 40 17.5t44 -17.5q18 -19 16.5 -43.5t-16.5 -40.5q-38 -38 -69 -64.5t-60 -43.5
t-58 -25t-63 -8q-57 0 -90.5 34.5t-28.5 106.5q1 9 -3.5 14t-10 5.5t-11 -4t-6.5 -13.5q-3 -18 -1 -35.5t5 -29.5q-43 -36 -90 -57t-104 -21q-31 0 -59 11t-49.5 33t-34.5 56t-13 80q0 56 19 114.5t51 114.5t75 105.5t91 87t99 59t99 21.5q34 0 56 -20.5t16 -63.5
q-6 -45 -36.5 -78t-75.5 -64t-100 -65t-109 -80q16 40 39 76t49.5 65.5t55.5 51.5t56 36q11 6 13.5 13.5t-0.5 13.5t-10 8t-15 -2zM813 815q-43 -6 -80.5 -4.5t-74 4.5t-74 4.5t-80.5 -4.5q-12 -2 -24 0.5t-22 9t-17.5 18t-8.5 29.5q-3 29 17 48t45 22q43 5 80 3.5
t73.5 -4.5t74 -4t81.5 5q12 1 24 -1t22 -8.5t16.5 -18t8.5 -29.5q2 -15 -3 -27.5t-14 -21.5t-20.5 -14.5t-23.5 -6.5z" />
    <glyph glyph-name="Abreve" unicode="&#x102;" horiz-adv-x="1337" 
d="M285 319q0 -78 23.5 -131.5t65.5 -83t99 -35t123.5 11t140 55.5t148.5 100q-2 -19 -3 -37t-1 -33q0 -23 2 -44.5t8 -47.5q-91 -61 -181.5 -98t-173.5 -46.5t-155 7.5t-125 63.5t-83 122.5t-30 184q0 105 28.5 216t79 220t120 214t151.5 198.5t173.5 172t186 135t189 88.5
t182.5 32q73 0 125 -18.5t85 -51t48 -75.5t15 -92q0 -48 -13 -99t-37 -101t-58.5 -96t-78.5 -83q-30 -26 -58.5 -23t-45 22t-15.5 48t31 55q28 24 54 55t46 65.5t32 69t12 66.5q0 25 -8.5 47t-27 38t-48.5 25t-72 9q-66 0 -142.5 -27t-156 -75t-159 -115.5t-152.5 -148
t-135.5 -172.5t-109 -189.5t-73 -198.5t-26.5 -199zM913 166q0 72 21 153t55.5 161.5t79.5 154t93 129.5t95 89.5t86 33.5q36 0 55 -23.5t19 -68.5q0 -39 -14.5 -85.5t-39.5 -97t-57.5 -102t-68.5 -100t-73 -93t-70 -79.5q7 56 33 124t62 134.5t77.5 123.5t79.5 91q7 7 8 14
t-3 12t-11 5.5t-15 -5.5q-43 -38 -91.5 -102.5t-89 -142.5t-67 -161.5t-26.5 -158.5q0 -45 14 -67t37.5 -25.5t53.5 7.5t61.5 31t62.5 45.5t57 51.5q16 16 41 17.5t43 -17.5q19 -19 17.5 -43.5t-17.5 -40.5q-57 -57 -117 -96t-116.5 -58.5t-106.5 -18.5t-87.5 24t-59 68.5
t-21.5 115.5zM1137 1896q18 25 41.5 29.5t40.5 -5.5t24 -31t-8 -46q-16 -27 -14.5 -47t14 -31t32 -12.5t39.5 8.5t36 32.5t22 59.5q5 34 26 50t43 14.5t38.5 -19t13.5 -49.5q-4 -47 -22.5 -83.5t-48.5 -62t-70 -39t-87 -13.5q-52 0 -89 22t-54.5 57.5t-13 79t36.5 86.5z" />
    <glyph glyph-name="abreve" unicode="&#x103;" horiz-adv-x="799" 
d="M84 131q-16 -15 -40.5 -17t-43.5 17t-17 44t17 40q20 20 38 37t36 33.5t37 32t41 32.5q-22 -45 -35 -93t-11 -103zM510 563q-29 -15 -62 -41t-65 -63.5t-60 -86.5t-47 -110q-5 -15 -9.5 -39t-3 -46.5t12 -39t37.5 -16.5q42 0 83.5 25.5t80.5 66t74.5 91t66 100.5t55 94
t42.5 73q23 38 49 47t49 3q20 -5 32 -17t17 -28t3 -33.5t-11 -32.5q-38 -72 -74.5 -130.5t-64.5 -104.5t-45 -79t-17 -55q0 -12 6.5 -17t14.5 -5q7 0 15.5 3t22 13t34.5 29t53 51q15 16 40 17.5t44 -17.5q18 -19 16.5 -43.5t-16.5 -40.5q-38 -38 -69 -64.5t-60 -43.5
t-58 -25t-63 -8q-57 0 -90.5 34.5t-28.5 106.5q1 9 -3.5 14t-10 5.5t-11 -4t-6.5 -13.5q-3 -18 -1 -35.5t5 -29.5q-43 -36 -90 -57t-104 -21q-31 0 -59 11t-49.5 33t-34.5 56t-13 80q0 56 19 114.5t51 114.5t75 105.5t91 87t99 59t99 21.5q34 0 56 -20.5t16 -63.5
q-6 -45 -36.5 -78t-75.5 -64t-100 -65t-109 -80q16 40 39 76t49.5 65.5t55.5 51.5t56 36q11 6 13.5 13.5t-0.5 13.5t-10 8t-15 -2zM498 983q18 25 41.5 29.5t40.5 -6t24 -31.5t-8 -45q-16 -27 -14.5 -47t14 -31.5t32 -12.5t39.5 9t36 32.5t22 59.5q5 34 26 49.5t43 14.5
t38.5 -18.5t13.5 -49.5q-4 -47 -22.5 -84t-48.5 -62.5t-70 -39t-87 -13.5q-52 0 -89 22.5t-54.5 57.5t-13 79t36.5 87z" />
    <glyph glyph-name="Aogonek" unicode="&#x104;" horiz-adv-x="1337" 
d="M285 319q0 -78 23.5 -131.5t65.5 -83t99 -35t123.5 11t140 55.5t148.5 100q-2 -19 -3 -37t-1 -33q0 -23 2 -44.5t8 -47.5q-91 -61 -181.5 -98t-173.5 -46.5t-155 7.5t-125 63.5t-83 122.5t-30 184q0 105 28.5 216t79 220t120 214t151.5 198.5t173.5 172t186 135t189 88.5
t182.5 32q73 0 125 -18.5t85 -51t48 -75.5t15 -92q0 -48 -13 -99t-37 -101t-58.5 -96t-78.5 -83q-30 -26 -58.5 -23t-45 22t-15.5 48t31 55q28 24 54 55t46 65.5t32 69t12 66.5q0 25 -8.5 47t-27 38t-48.5 25t-72 9q-66 0 -142.5 -27t-156 -75t-159 -115.5t-152.5 -148
t-135.5 -172.5t-109 -189.5t-73 -198.5t-26.5 -199zM1053 12q9 0 13.5 5.5t4.5 12t-4.5 12t-13.5 5.5q-20 0 -44.5 -9t-47.5 -26q-25 28 -36.5 64.5t-11.5 89.5q0 72 21 153t55.5 161.5t79.5 154t93 129.5t95 89.5t86 33.5q36 0 55 -23.5t19 -68.5q0 -39 -14.5 -85.5
t-39.5 -97t-57.5 -102t-68.5 -100t-73 -93t-70 -79.5q7 56 33 124t62 134.5t77.5 123.5t79.5 91q7 7 8 14t-3 12t-11 5.5t-15 -5.5q-43 -38 -91.5 -102.5t-89 -142.5t-67 -161.5t-26.5 -158.5q0 -45 14 -67t37.5 -25.5t53.5 7.5t61.5 31t62.5 45.5t57 51.5q16 16 41 17.5
t43 -17.5q19 -19 17.5 -43.5t-17.5 -40.5q-36 -36 -73.5 -61.5t-74 -45t-71 -35.5t-63.5 -32q-26 -14 -57.5 -28.5t-59.5 -34.5t-47 -47t-19 -66q0 -26 13 -38t31.5 -13t40 8t38.5 26q18 18 39.5 16t35.5 -16.5t15 -38.5t-22 -49q-24 -26 -55.5 -41t-65.5 -19t-67.5 3.5
t-60 27.5t-42.5 51.5t-16 76.5q0 40 15.5 74t37 61t44.5 46t38 28q12 8 35 18t43 10z" />
    <glyph glyph-name="aogonek" unicode="&#x105;" horiz-adv-x="799" 
d="M84 131q-16 -15 -40.5 -17t-43.5 17t-17 44t17 40q20 20 38 37t36 33.5t37 32t41 32.5q-22 -45 -35 -93t-11 -103zM532 43q-9 17 -15 36.5t-3 51.5q1 9 -3.5 14t-10 5.5t-11 -4t-6.5 -13.5q-3 -18 -1 -35.5t5 -29.5q-43 -36 -90 -57t-104 -21q-31 0 -59 11t-49.5 33
t-34.5 56t-13 80q0 56 19 114.5t51 114.5t75 105.5t91 87t99 59t99 21.5q34 0 56 -20.5t16 -63.5q-6 -45 -36.5 -78t-75.5 -64t-100 -65t-109 -80q16 40 39 76t49.5 65.5t55.5 51.5t56 36q11 6 13.5 13.5t-0.5 13.5t-10 8t-15 -2q-29 -15 -62 -41t-65 -63.5t-60 -86.5
t-47 -110q-5 -15 -9.5 -39t-3 -46.5t12 -39t37.5 -16.5q42 0 83.5 25.5t80.5 66t74.5 91t66 100.5t55 94t42.5 73q23 38 49 47t49 3q20 -5 32 -17t17 -28t3 -33.5t-11 -32.5q-38 -72 -74.5 -130.5t-64.5 -104.5t-45 -79t-17 -55q0 -12 6.5 -17t14.5 -5q7 0 15.5 3t22 13
t34.5 29t53 51q15 16 40 17.5t44 -17.5q18 -19 16.5 -43.5t-16.5 -40.5q-53 -53 -107.5 -90.5t-111.5 -69.5q-27 -15 -49.5 -30.5t-39 -33.5t-25.5 -38.5t-9 -46.5t12.5 -38t31.5 -13t40.5 8t38.5 26q18 18 39.5 16t35.5 -16.5t14.5 -38.5t-22.5 -49q-23 -26 -55 -41
t-66 -19t-67.5 3.5t-60 27.5t-42.5 51.5t-16 76.5q0 40 14 72.5t33.5 57.5t40.5 42t35 26q18 13 34.5 20.5t36.5 10.5q10 1 14 7t3 12.5t-7 10.5t-16 3q-20 -3 -39 -10.5t-41 -24.5z" />
    <glyph glyph-name="Cacute" unicode="&#x106;" horiz-adv-x="1104" 
d="M1178 1583q73 0 124.5 -18.5t84.5 -51t48 -75.5t15 -92q0 -48 -13 -99t-37 -101t-58.5 -96t-77.5 -83q-30 -26 -59 -23t-45.5 22t-15 48t31.5 55q27 24 53 55t46 65.5t32 69t12 66.5q0 25 -8.5 47t-27 38t-48.5 25t-72 9q-89 0 -188 -43.5t-197 -118.5t-187 -176.5
t-157 -217.5t-108.5 -240.5t-40.5 -246.5q0 -107 28 -182t75.5 -122t110.5 -69t134 -22q61 0 125.5 15.5t126 43.5t118 66.5t101.5 83.5q15 16 40 17.5t44 -17.5q18 -19 16.5 -43.5t-16.5 -40.5q-124 -124 -268 -190t-306 -66q-95 0 -180 29.5t-150 92t-103 159.5t-38 233
q0 134 44 275t120 273.5t177.5 250t216.5 205.5t237.5 139t239.5 51zM1145 1657q-25 -19 -48.5 -15.5t-37.5 19t-13 39.5t25 45l189 164q30 26 57 22t42 -23t13.5 -46.5t-29.5 -49.5z" />
    <glyph glyph-name="cacute" unicode="&#x107;" 
d="M365 98q66 0 132.5 26t131.5 91q15 16 40 17.5t44 -17.5q18 -19 16.5 -43.5t-16.5 -40.5q-81 -80 -170.5 -115.5t-177.5 -35.5q-112 0 -170 48.5t-58 141.5q0 26 2.5 45.5t7.5 38.5q3 10 -0.5 16t-9 7.5t-11.5 -2.5t-9 -13q-6 -22 -9.5 -52.5t-3.5 -57.5l-20 -21
q-16 -15 -40.5 -17t-43.5 17t-17 44t17 40q36 36 78.5 82t86.5 93.5t88.5 92.5t84.5 80q56 48 116 78.5t117 30.5q59 0 89 -33t24 -96q-3 -37 -16.5 -68t-42.5 -65q-24 -27 -49.5 -29t-42.5 11.5t-19.5 38.5t18.5 52q25 31 26 46.5t-13 15.5q-33 0 -69 -19t-69.5 -50.5
t-62.5 -72t-49.5 -82t-29.5 -82t-2.5 -72t31 -50.5t71.5 -19zM532 743q-24 -19 -48 -15.5t-37.5 19t-13 39.5t25.5 45l188 164q20 18 39 21.5t34.5 -2.5t26 -19.5t13.5 -30t-4 -34t-25 -31.5z" />
    <glyph glyph-name="Ccircumflex" unicode="&#x108;" horiz-adv-x="1104" 
d="M1178 1583q73 0 124.5 -18.5t84.5 -51t48 -75.5t15 -92q0 -48 -13 -99t-37 -101t-58.5 -96t-77.5 -83q-30 -26 -59 -23t-45.5 22t-15 48t31.5 55q27 24 53 55t46 65.5t32 69t12 66.5q0 25 -8.5 47t-27 38t-48.5 25t-72 9q-89 0 -188 -43.5t-197 -118.5t-187 -176.5
t-157 -217.5t-108.5 -240.5t-40.5 -246.5q0 -107 28 -182t75.5 -122t110.5 -69t134 -22q61 0 125.5 15.5t126 43.5t118 66.5t101.5 83.5q15 16 40 17.5t44 -17.5q18 -19 16.5 -43.5t-16.5 -40.5q-124 -124 -268 -190t-306 -66q-95 0 -180 29.5t-150 92t-103 159.5t-38 233
q0 134 44 275t120 273.5t177.5 250t216.5 205.5t237.5 139t239.5 51zM1202 1823q-5 8 -12 9.5t-12.5 -1.5t-8 -9.5t1.5 -13.5l21 -34l-160 -111q-26 -18 -49.5 -12.5t-36 23t-10 41.5t28.5 44l217 162q23 17 41.5 20.5t33.5 -1t25.5 -15t17.5 -22.5l84 -162q15 -29 6.5 -51
t-27.5 -32t-43 -4.5t-40 32.5z" />
    <glyph glyph-name="ccircumflex" unicode="&#x109;" 
d="M365 98q66 0 132.5 26t131.5 91q15 16 40 17.5t44 -17.5q18 -19 16.5 -43.5t-16.5 -40.5q-81 -80 -170.5 -115.5t-177.5 -35.5q-112 0 -170 48.5t-58 141.5q0 26 2.5 45.5t7.5 38.5q3 10 -0.5 16t-9 7.5t-11.5 -2.5t-9 -13q-6 -22 -9.5 -52.5t-3.5 -57.5l-20 -21
q-16 -15 -40.5 -17t-43.5 17t-17 44t17 40q36 36 78.5 82t86.5 93.5t88.5 92.5t84.5 80q56 48 116 78.5t117 30.5q59 0 89 -33t24 -96q-3 -37 -16.5 -68t-42.5 -65q-24 -27 -49.5 -29t-42.5 11.5t-19.5 38.5t18.5 52q25 31 26 46.5t-13 15.5q-33 0 -69 -19t-69.5 -50.5
t-62.5 -72t-49.5 -82t-29.5 -82t-2.5 -72t31 -50.5t71.5 -19zM575 909q-5 9 -12 10t-12 -2t-7.5 -9t1.5 -13l20 -35l-159 -110q-26 -18 -50 -12.5t-36.5 23t-10 41.5t28.5 44l217 162q23 17 41.5 20.5t33.5 -1t26 -15.5t18 -23l84 -162q15 -28 6.5 -50.5t-28 -32.5
t-43.5 -4.5t-40 32.5z" />
    <glyph glyph-name="Cdotaccent" unicode="&#x10a;" horiz-adv-x="1104" 
d="M1178 1583q73 0 124.5 -18.5t84.5 -51t48 -75.5t15 -92q0 -48 -13 -99t-37 -101t-58.5 -96t-77.5 -83q-30 -26 -59 -23t-45.5 22t-15 48t31.5 55q27 24 53 55t46 65.5t32 69t12 66.5q0 25 -8.5 47t-27 38t-48.5 25t-72 9q-89 0 -188 -43.5t-197 -118.5t-187 -176.5
t-157 -217.5t-108.5 -240.5t-40.5 -246.5q0 -107 28 -182t75.5 -122t110.5 -69t134 -22q61 0 125.5 15.5t126 43.5t118 66.5t101.5 83.5q15 16 40 17.5t44 -17.5q18 -19 16.5 -43.5t-16.5 -40.5q-124 -124 -268 -190t-306 -66q-95 0 -180 29.5t-150 92t-103 159.5t-38 233
q0 134 44 275t120 273.5t177.5 250t216.5 205.5t237.5 139t239.5 51zM1061 1798q2 25 13.5 46t30 37t42 25t49.5 9q25 0 47.5 -9t38 -25t24 -37t7.5 -46q-2 -24 -14 -45.5t-30 -37.5t-41 -25t-48 -9q-26 0 -49 9t-39 25t-24.5 37.5t-6.5 45.5z" />
    <glyph glyph-name="cdotaccent" unicode="&#x10b;" 
d="M365 98q66 0 132.5 26t131.5 91q15 16 40 17.5t44 -17.5q18 -19 16.5 -43.5t-16.5 -40.5q-81 -80 -170.5 -115.5t-177.5 -35.5q-112 0 -170 48.5t-58 141.5q0 26 2.5 45.5t7.5 38.5q3 10 -0.5 16t-9 7.5t-11.5 -2.5t-9 -13q-6 -22 -9.5 -52.5t-3.5 -57.5l-20 -21
q-16 -15 -40.5 -17t-43.5 17t-17 44t17 40q36 36 78.5 82t86.5 93.5t88.5 92.5t84.5 80q56 48 116 78.5t117 30.5q59 0 89 -33t24 -96q-3 -37 -16.5 -68t-42.5 -65q-24 -27 -49.5 -29t-42.5 11.5t-19.5 38.5t18.5 52q25 31 26 46.5t-13 15.5q-33 0 -69 -19t-69.5 -50.5
t-62.5 -72t-49.5 -82t-29.5 -82t-2.5 -72t31 -50.5t71.5 -19zM449 885q2 24 13.5 45.5t30 37t42 24.5t49.5 9q25 0 47 -9t38 -24.5t24.5 -37t6.5 -45.5q-2 -25 -13.5 -46.5t-29.5 -37t-41.5 -24.5t-48.5 -9q-26 0 -48.5 9t-39 24.5t-25 37t-5.5 46.5z" />
    <glyph glyph-name="Ccaron" unicode="&#x10c;" horiz-adv-x="1104" 
d="M1178 1583q73 0 124.5 -18.5t84.5 -51t48 -75.5t15 -92q0 -48 -13 -99t-37 -101t-58.5 -96t-77.5 -83q-30 -26 -59 -23t-45.5 22t-15 48t31.5 55q27 24 53 55t46 65.5t32 69t12 66.5q0 25 -8.5 47t-27 38t-48.5 25t-72 9q-89 0 -188 -43.5t-197 -118.5t-187 -176.5
t-157 -217.5t-108.5 -240.5t-40.5 -246.5q0 -107 28 -182t75.5 -122t110.5 -69t134 -22q61 0 125.5 15.5t126 43.5t118 66.5t101.5 83.5q15 16 40 17.5t44 -17.5q18 -19 16.5 -43.5t-16.5 -40.5q-124 -124 -268 -190t-306 -66q-95 0 -180 29.5t-150 92t-103 159.5t-38 233
q0 134 44 275t120 273.5t177.5 250t216.5 205.5t237.5 139t239.5 51zM1153 1829l-33 -25q-8 -5 -8.5 -11.5t2.5 -11.5t9.5 -6.5t13.5 3.5l219 153q25 19 48.5 14t36.5 -22t10.5 -41.5t-28.5 -44.5l-215 -160q-17 -12 -34 -19t-32.5 -6.5t-29.5 10.5t-25 32l-83 161
q-15 28 -6.5 50t27.5 32t43 4.5t40 -32.5z" />
    <glyph glyph-name="ccaron" unicode="&#x10d;" 
d="M365 98q66 0 132.5 26t131.5 91q15 16 40 17.5t44 -17.5q18 -19 16.5 -43.5t-16.5 -40.5q-81 -80 -170.5 -115.5t-177.5 -35.5q-112 0 -170 48.5t-58 141.5q0 26 2.5 45.5t7.5 38.5q3 10 -0.5 16t-9 7.5t-11.5 -2.5t-9 -13q-6 -22 -9.5 -52.5t-3.5 -57.5l-20 -21
q-16 -15 -40.5 -17t-43.5 17t-17 44t17 40q36 36 78.5 82t86.5 93.5t88.5 92.5t84.5 80q56 48 116 78.5t117 30.5q59 0 89 -33t24 -96q-3 -37 -16.5 -68t-42.5 -65q-24 -27 -49.5 -29t-42.5 11.5t-19.5 38.5t18.5 52q25 31 26 46.5t-13 15.5q-33 0 -69 -19t-69.5 -50.5
t-62.5 -72t-49.5 -82t-29.5 -82t-2.5 -72t31 -50.5t71.5 -19zM520 915l-33 -24q-8 -5 -8.5 -11.5t2.5 -11.5t9.5 -7t13.5 3l219 154q25 19 49 14t36.5 -22t10.5 -41.5t-28 -44.5l-216 -160q-17 -12 -34 -19.5t-32.5 -6.5t-29.5 11t-24 31l-84 162q-15 28 -6.5 50t27.5 32
t43 4.5t40 -33.5z" />
    <glyph glyph-name="Dcaron" unicode="&#x10e;" horiz-adv-x="1516" 
d="M825 1411q-79 0 -144 -25.5t-113 -68.5t-77.5 -100t-38 -121t6 -131t55.5 -129q27 -41 20.5 -72.5t-30 -45.5t-55 -8t-54.5 40q-54 78 -74 167.5t-10 178.5t48.5 170.5t103 144t153.5 100t199 37.5q165 0 294 -54t222 -144.5t150 -209t79 -247.5t9 -261t-60.5 -248.5
t-129.5 -210t-197.5 -146t-264.5 -56t-331 59.5q32 20 64 43t61 51q140 -39 252.5 -27.5t198.5 60.5t145 129t91 177.5t37.5 205.5t-15.5 213t-69 200.5t-122.5 168.5t-175.5 116t-228 43zM305 -16q-56 0 -92 20.5t-53 51.5t-15.5 67t20.5 67t54 51.5t86 20.5q31 0 57 -3
t49 -8t45.5 -12t47.5 -16q-15 -14 -38 -28t-49.5 -25t-55 -18t-54.5 -7q-8 0 -12.5 -5t-4.5 -11t4.5 -11t12.5 -5q69 0 134 33t127.5 89t122.5 130.5t118.5 158.5t116.5 172t115.5 171.5t115.5 157t117 128.5q22 -32 41 -66t35 -71q-59 -45 -113 -113.5t-108 -149.5
t-108.5 -169.5t-113 -174t-123 -162.5t-138 -135.5t-158 -93t-183.5 -34.5zM1468 1305q23 13 42.5 10.5t34.5 -14.5t23.5 -31t9.5 -38t-7 -36.5t-27 -26.5q-6 -3 -16.5 -8.5t-18.5 -11.5q-17 35 -36.5 67.5t-42.5 63.5zM1214 1737l-32 -25q-8 -5 -9 -11.5t2.5 -11.5
t9.5 -6.5t13 3.5l219 153q25 19 49 14t36.5 -22t10.5 -41.5t-28 -44.5l-215 -160q-17 -12 -34 -19t-32.5 -6.5t-29.5 10.5t-25 32l-84 161q-15 28 -6.5 50t27.5 32t43 4.5t40 -32.5z" />
    <glyph glyph-name="dcaron" unicode="&#x10f;" horiz-adv-x="1192" 
d="M606 182q-3 62 9 139t36 161.5t57 171t71.5 168t81 153t84.5 124.5t81.5 84t73.5 31q48 0 66.5 -29.5t15.5 -88.5q-2 -36 -19.5 -88t-46.5 -113t-68 -128.5t-82.5 -136.5t-90 -136t-91.5 -127q25 90 58 176.5t73 169.5t84.5 163t92.5 158q5 9 4 16t-6 10t-12 1.5
t-13 -10.5q-29 -42 -65 -103.5t-73 -133.5t-72 -150.5t-62 -157t-43.5 -152.5t-16.5 -135q0 -33 5.5 -52.5t14 -29.5t19 -13t21.5 -3q50 0 145 94q15 16 40 17.5t44 -17.5t17 -43.5t-17 -40.5q-45 -45 -82.5 -72.5t-68 -42.5t-55 -20.5t-42.5 -5.5q-80 0 -121.5 49.5
t-46.5 142.5zM84 131q-16 -15 -40.5 -17t-43.5 17t-17 44t17 40q21 21 39 38t36 33t36.5 31.5t40.5 32.5q-22 -45 -34 -93t-12 -103zM522 530q11 6 13.5 13.5t-0.5 13.5t-10 8t-15 -2q-29 -15 -62 -41t-65 -63.5t-60 -86.5t-47 -110q-5 -15 -9.5 -39t-3 -46.5t12 -39
t37.5 -16.5q37 0 73.5 21t71.5 54.5t68 75t64 82.5q-9 -48 -13 -94.5t-2 -103.5q-30 -34 -62 -64t-68 -52.5t-76 -36t-84 -13.5q-28 0 -54.5 11t-47.5 33t-33.5 56t-12.5 80q0 56 19 114.5t51 114.5t75 105.5t91 87t99 59t99 21.5q34 0 56 -20.5t16 -63.5q-6 -45 -36.5 -78
t-75.5 -64t-100 -65t-109 -80q16 40 39 76t49.5 65.5t55.5 51.5t56 36zM1360 1010q4 -16 0.5 -33.5t-11.5 -33t-19 -27.5t-21 -17q-34 12 -54 42t-20 69q0 31 13 57.5t34 45.5t49 29.5t58 10.5q33 0 58.5 -13t42.5 -34.5t24.5 -50.5t3.5 -60q-8 -60 -36.5 -108t-67.5 -83
t-83.5 -56t-85.5 -27q-30 -5 -46.5 9t-19.5 33.5t9 38t39 23.5q30 6 61.5 23t56 42.5t38 57.5t6.5 70q-2 8 -7.5 11.5t-11 2t-9 -7t-1.5 -14.5z" />
    <glyph glyph-name="Dcroat" unicode="&#x110;" horiz-adv-x="1516" 
d="M825 1411q-79 0 -144 -25.5t-113 -68.5t-77.5 -100t-38 -121t6 -131t55.5 -129q27 -41 20.5 -72.5t-30 -45.5t-55 -8t-54.5 40q-54 78 -74 167.5t-10 178.5t48.5 170.5t103 144t153.5 100t199 37.5q165 0 294 -54t222 -144.5t150 -209t79 -247.5t9 -261t-60.5 -248.5
t-129.5 -210t-197.5 -146t-264.5 -56t-331 59.5q32 20 64 43t61 51q140 -39 252.5 -27.5t198.5 60.5t145 129t91 177.5t37.5 205.5t-15.5 213t-69 200.5t-122.5 168.5t-175.5 116t-228 43zM1468 1305q23 13 42.5 10.5t34.5 -14.5t23.5 -31t9.5 -38t-7 -36.5t-27 -26.5
q-6 -3 -16.5 -8.5t-18.5 -11.5q-17 35 -36.5 67.5t-42.5 63.5zM1178 496q-31 -4 -77 -4.5t-99.5 0.5t-111.5 3.5t-111.5 4t-99.5 1t-77 -4.5q-13 -2 -26.5 0.5t-24.5 9t-18.5 19t-8.5 30.5q-2 17 3.5 30.5t15 23t22 15t25.5 7.5q31 4 77 4.5t99.5 -1t111 -4t111 -3.5
t99.5 -0.5t77 4.5q13 1 26.5 -1t24.5 -9t18 -19t9 -31q3 -34 -18 -53t-47 -22zM305 -16q-56 0 -92 20.5t-53 51.5t-15.5 67t20.5 67t54 51.5t86 20.5q31 0 57 -3t49 -8t45.5 -12t47.5 -16q-15 -14 -38 -28t-49.5 -25t-55 -18t-54.5 -7q-8 0 -12.5 -5t-4.5 -11t4.5 -11
t12.5 -5q62 0 122 27.5t117.5 75t112.5 111.5t109 138q51 0 92.5 -2t81.5 -2q-62 -94 -129 -180t-144.5 -152t-167.5 -105.5t-196 -39.5zM1274 1153q22 -32 41 -66t35 -71q-76 -59 -144 -153t-137 -204q-38 0 -80 0.5t-86 2.5q46 70 92 139t92 132.5t92.5 119.5t94.5 100z
" />
    <glyph glyph-name="dcroat" unicode="&#x111;" horiz-adv-x="938" 
d="M84 131q-16 -15 -40.5 -17t-43.5 17t-17 44t17 40q21 21 39 38t36 33t36.5 31.5t40.5 32.5q-22 -45 -34 -93t-12 -103zM522 530q11 6 13.5 13.5t-0.5 13.5t-10 8t-15 -2q-29 -15 -62 -41t-65 -63.5t-60 -86.5t-47 -110q-5 -15 -9.5 -39t-3 -46.5t12 -39t37.5 -16.5
q37 0 73.5 21t71.5 54.5t68 75t64 82.5q-9 -48 -13 -94.5t-2 -103.5q-30 -34 -62 -64t-68 -52.5t-76 -36t-84 -13.5q-28 0 -54.5 11t-47.5 33t-33.5 56t-12.5 80q0 56 19 114.5t51 114.5t75 105.5t91 87t99 59t99 21.5q34 0 56 -20.5t16 -63.5q-6 -45 -36.5 -78t-75.5 -64
t-100 -65t-109 -80q16 40 39 76t49.5 65.5t55.5 51.5t56 36zM784 367q28 102 65.5 198t84.5 189h106q-57 -99 -124 -200t-132 -187zM637 924q34 5 74 4.5t88 -2.5q-17 -31 -33 -64.5t-33 -68.5q-25 0 -45 -1.5t-39 -3.5q-13 -2 -26.5 0.5t-24.5 9.5t-18.5 19.5t-8.5 30.5
q-2 17 3.5 30.5t15 23t22 15t25.5 7.5zM1112 788q-35 -5 -75.5 -5.5t-88.5 1.5q19 38 37 73.5t37 60.5q22 0 40.5 1.5t37.5 4.5q13 1 26.5 -1t24.5 -9t18 -19.5t9 -30.5q3 -34 -18.5 -53t-47.5 -23zM606 182q-3 62 9 139t36 161.5t57 171t71.5 168t81 153t84.5 124.5
t81.5 84t73.5 31q48 0 66.5 -29.5t15.5 -88.5q-2 -28 -13 -64t-28 -80q-11 2 -22.5 3t-22.5 -1q-14 -3 -28 -3.5t-28 -0.5l52 84q5 9 4 16t-6 10t-12 1.5t-13 -10.5q-29 -42 -65 -103.5t-73 -133.5t-72 -150.5t-62 -157t-43.5 -152.5t-16.5 -135q0 -33 5.5 -52.5t14 -29.5
t19 -13t21.5 -3q50 0 145 94q15 16 40 17.5t44 -17.5t17 -43.5t-17 -40.5q-45 -45 -82.5 -72.5t-68 -42.5t-55 -20.5t-42.5 -5.5q-80 0 -121.5 49.5t-46.5 142.5z" />
    <glyph glyph-name="Emacron" unicode="&#x112;" horiz-adv-x="1106" 
d="M1176 1454q-62 0 -117 -20.5t-100.5 -55.5t-80 -81.5t-54 -98t-22 -105t14.5 -102.5q-37 -2 -71 -7.5t-66 -14.5q-16 64 -10.5 134t31.5 138t70.5 130t107 108.5t141 74t172.5 27.5q72 0 124 -28t83 -73t41.5 -102t0.5 -115.5t-41 -112.5t-83 -93q-29 -23 -55.5 -18
t-41 23.5t-12.5 45.5t29 49q25 20 43 50t27 63t7 65.5t-17 59t-45 43t-76 16.5zM905 731q-78 25 -131 72q23 5 51 8t56.5 3t56 -2.5t51.5 -8.5q9 -2 14.5 1t7.5 8.5t-1.5 12t-12.5 9.5q-23 8 -51 11t-57 3q-121 0 -221.5 -36.5t-177 -95.5t-127.5 -135t-73 -155t-14 -155
t49.5 -135t118 -95.5t191.5 -36.5q61 0 124.5 15t124.5 43t117.5 66.5t104.5 86.5q15 16 40 17.5t44 -17.5q18 -19 16.5 -43.5t-16.5 -40.5q-56 -56 -119.5 -103t-134.5 -81.5t-151 -54t-169 -19.5q-140 0 -237 47t-153.5 124t-73.5 175t5 201t81 201t154 175t225 124
t294 47q75 0 122.5 -23.5t69 -57t18 -70t-29 -62.5t-73 -35.5t-113.5 12.5zM1382 1729q-43 -6 -80.5 -4.5t-74 4.5t-74 4.5t-80.5 -4.5q-23 -4 -45.5 9t-26.5 48q-3 29 17 47.5t45 21.5q43 6 80.5 4.5t73.5 -4.5t73.5 -4.5t81.5 4.5q12 2 24 0t22 -9t17 -18.5t9 -29.5
q1 -15 -4 -27.5t-14 -21t-20.5 -14t-23.5 -6.5z" />
    <glyph glyph-name="emacron" unicode="&#x113;" 
d="M365 98q66 0 132.5 26t131.5 91q15 16 40 17.5t44 -17.5q18 -19 16.5 -43.5t-16.5 -40.5q-81 -80 -170.5 -115.5t-177.5 -35.5q-112 0 -170 48.5t-58 141.5q0 26 2.5 45.5t7.5 38.5q3 10 -0.5 16t-9 7.5t-11.5 -2.5t-9 -13q-6 -22 -9.5 -52.5t-3.5 -57.5l-20 -21
q-16 -15 -40.5 -17t-43.5 17t-17 44t17 40q36 36 78.5 82t86.5 93.5t88.5 92.5t84.5 80q56 48 116 78.5t117 30.5q59 0 89 -33t24 -96q-5 -53 -35.5 -104.5t-81.5 -92t-119.5 -66.5t-148.5 -28q8 29 22 58t31 55q41 4 75.5 21.5t61 39.5t43.5 45t23 39q6 17 -2.5 26.5
t-28.5 6.5q-33 -6 -67.5 -28t-66 -54.5t-58 -72t-44.5 -79.5t-25.5 -78t0.5 -67.5t32.5 -47.5t69.5 -18zM719 815q-43 -6 -80.5 -4.5t-74 4.5t-74 4.5t-80.5 -4.5q-12 -2 -24 0.5t-22 9t-17.5 18t-8.5 29.5q-3 29 17 48t44 22q43 5 80.5 3.5t74 -4.5t74 -4t81.5 5
q23 3 45.5 -9.5t25.5 -47.5q1 -15 -3.5 -27.5t-13.5 -21.5t-20.5 -14.5t-23.5 -6.5z" />
    </font>
</defs>
</svg>
