<?xml version="1.0" standalone="no"?>
<!DOCTYPE svg PUBLIC "-//W3C//DTD SVG 1.1//EN" "http://www.w3.org/Graphics/SVG/1.1/DTD/svg11.dtd" >
<svg xmlns="http://www.w3.org/2000/svg" xmlns:xlink="http://www.w3.org/1999/xlink" version="1.1">
<metadata>
Created by FontForge 20170731 at Tue Feb 12 00:19:58 2013
 By Aleksey,,,
Copyright (c) 2011 by Anna Giedrys (http://ancymonic.com), with Reserved Font Names "Signika".
</metadata>
<defs>
<font id="UVFSignikaNegative-Light" horiz-adv-x="503" >
  <font-face 
    font-family="UVF Signika Negative"
    font-weight="300"
    font-stretch="normal"
    units-per-em="1000"
    panose-1="2 1 0 3 2 6 0 0 0 4"
    ascent="800"
    descent="-200"
    x-height="490"
    cap-height="686"
    bbox="-130 -244 935 1081"
    underline-thickness="50"
    underline-position="-200"
    unicode-range="U+000D-20AC"
  />
<missing-glyph horiz-adv-x="186" 
 />
    <glyph glyph-name=".notdef" horiz-adv-x="186" 
 />
    <glyph glyph-name="uni0000" horiz-adv-x="0" 
 />
    <glyph glyph-name="uni0000" horiz-adv-x="0" 
 />
    <glyph glyph-name="nonmarkingreturn" unicode="&#xd;" horiz-adv-x="186" 
 />
    <glyph glyph-name="uni001E" horiz-adv-x="0" 
 />
    <glyph glyph-name="space" unicode=" " horiz-adv-x="220" 
 />
    <glyph glyph-name="exclam" unicode="!" horiz-adv-x="274" 
d="M104 668q27 21 73 21l5 -5l-18 -499q-11 -4 -27.5 -4t-27.5 4zM182 80q7 -11 7 -39q0 -27 -7 -38q-9 -5 -20.5 -7.5t-24.5 -2.5t-24.5 2.5t-20.5 7.5q-7 11 -7 38q0 28 7 39q9 5 20.5 7.5t24.5 2.5t24.5 -2.5t20.5 -7.5z" />
    <glyph glyph-name="quotedbl" unicode="&#x22;" horiz-adv-x="348" 
d="M211 733q18 10 41.5 10t39.5 -10q3 -11 4.5 -18t1.5 -14t-1 -15t-3 -20q-7 -32 -12.5 -69t-10.5 -79q-19 -8 -39 0q-3 32 -7.5 61t-9.5 56t-7.5 43.5t-2.5 21.5q0 12 6 33zM56 733q18 10 41.5 10t39.5 -10q6 -21 6 -32.5t-5 -34.5q-6 -32 -11.5 -69t-10.5 -79
q-17 -7 -39 0q-3 32 -7.5 61t-9.5 56t-7.5 43.5t-2.5 21.5q0 12 6 33z" />
    <glyph glyph-name="numbersign" unicode="#" horiz-adv-x="597" 
d="M437 631q32 11 65 0l-35 -156h101q12 -31 0 -61h-115l-41 -183h112q4 -12 4 -31t-4 -30h-125l-35 -156q-11 -5 -32.5 -5t-32.5 5l35 156h-130l-35 -156q-11 -5 -32.5 -5t-32.5 5l35 156h-108q-5 11 -5 30t5 31h121l41 183h-118q-11 30 0 61h132l35 156q31 10 65 0
l-35 -156h130zM217 231h130l41 183h-130z" />
    <glyph glyph-name="dollar" unicode="$" horiz-adv-x="493" 
d="M40 101q1 33 31 56q94 -57 183 -57q51 0 85.5 22t34.5 58q0 37 -25 63.5t-67 41.5l-103 37q-116 44 -116 135q0 55 38 95.5t105 50.5v84q11 3 31 3t32 -3v-82q77 -5 155 -42q0 -33 -26 -56q-39 19 -75 28t-66.5 10t-55 -5t-39.5 -17q-30 -23 -30 -56q0 -34 19 -51t64 -32
l101 -36q57 -20 92.5 -59.5t35.5 -91.5q0 -69 -46 -112t-133 -45v-78q-33 -5 -63 0v81q-95 12 -162 58z" />
    <glyph glyph-name="percent" unicode="%" horiz-adv-x="852" 
d="M755 342q47 -47 47 -156q0 -108 -47 -158q-40 -40 -102 -40q-61 0 -101 40q-47 50 -47 158q0 109 47 156q37 40 101 40q65 0 102 -40zM653 332q-84 0 -84 -147t84 -147q85 0 85 147t-85 147zM97 655q37 40 101 40q65 0 101 -40q47 -49 47 -157q0 -109 -44 -153t-104 -44
q-61 0 -105 44q-43 43 -43 153q0 108 47 157zM199 351q83 0 83 147t-83 147q-85 0 -85 -147t85 -147zM580 683q12 5 33 5q23 0 35 -5l-376 -683q-5 -3 -14.5 -4t-19.5 -1t-19.5 1t-14.5 4z" />
    <glyph glyph-name="ampersand" unicode="&#x26;" horiz-adv-x="600" 
d="M482 0q-14 -3 -34 -3t-33 3l-6 39q-77 -51 -166 -51q-88 0 -137 52t-49 140q0 66 39 117q39 53 94 69q-45 16 -75 58.5t-30 94.5q0 74 54 125q55 51 149 51t165 -27q0 -36 -19 -58q-127 42 -200 16t-74 -111q0 -54 34.5 -87t104.5 -33h178q62 0 88 12q10 -10 10 -34
q0 -23 -17 -31q-18 -8 -46 -8h-37l1 -63v-125zM407 270v36.5t1 27.5h-117q-81 0 -120 -48q-39 -47 -39 -107t33 -96q33 -35 83 -35q51 0 92 15q43 16 67 37v170z" />
    <glyph glyph-name="quotesingle" unicode="'" horiz-adv-x="190" 
d="M51 733q18 10 41.5 10t39.5 -10q3 -11 4.5 -18t1.5 -14t-1 -15t-3 -20q-7 -32 -12.5 -69t-10.5 -79q-19 -8 -39 0q-3 32 -7.5 61t-9.5 56t-7.5 43.5t-2.5 21.5q0 12 6 33z" />
    <glyph glyph-name="parenleft" unicode="(" horiz-adv-x="303" 
d="M290 -128q-13 -31 -43 -40q-83 83 -133 221q-49 137 -49 273q0 137 49 272q50 139 133 222q30 -9 43 -40q-148 -184 -148 -454t148 -454z" />
    <glyph glyph-name="parenright" unicode=")" horiz-adv-x="303" 
d="M13 780q14 32 43 40q83 -83 133 -222q49 -135 49 -272q0 -136 -49 -273q-50 -138 -133 -221q-29 8 -43 40q148 184 148 454t-148 454z" />
    <glyph glyph-name="asterisk" unicode="*" horiz-adv-x="494" 
d="M50 565v10t6 24q6 19 16 29l47 -14q26 -8 107 -51q-14 67 -14 112v6l1 50q13 6 33.5 6t33.5 -6l1 -50v-25q0 -11 -3.5 -34t-10.5 -59q64 39 108 51l48 13q9 -9 15 -28.5t5 -34.5l-46 -16q-33 -11 -118 -23q57 -51 82 -88l27 -41q-7 -12 -23 -23.5t-31 -14.5l-29 39
q-11 15 -26 41t-32 63q-34 -76 -58 -104l-30 -39q-14 3 -30.5 14.5t-24.5 24.5l28 40q25 36 82 87q-74 7 -117 24l-47 17v0z" />
    <glyph glyph-name="plus" unicode="+" horiz-adv-x="530" 
d="M231 357v149q13 3 34.5 3t33.5 -3v-149v-9q0 -5 -0.5 -11.5t-0.5 -15.5l36 1h137q3 -14 3 -33t-3 -32h-137l-36 1l1 -35v-149q-12 -3 -33.5 -3t-34.5 3v149l1 35l-36 -1h-137q-3 13 -3 32t3 33h137l36 -1z" />
    <glyph glyph-name="comma" unicode="," horiz-adv-x="251" 
d="M178 88q10 -17 10 -68q0 -49 -33 -97q-30 -48 -94 -71q-9 4 -15 15.5t-5 22.5q35 17 55.5 43.5t20.5 57.5q-26 4 -38 13q-8 14 -8 43q0 30 8 41q19 10 53 10q33 0 46 -10z" />
    <glyph glyph-name="hyphen" unicode="-" horiz-adv-x="332" 
d="M53 232q-3 13 -3 32.5t3 32.5h226q3 -13 3 -32t-3 -33h-226z" />
    <glyph glyph-name="period" unicode="." horiz-adv-x="247" 
d="M74 3q-8 14 -8 43q0 31 8 42q17 10 50 10t49 -10q8 -11 8 -42q0 -29 -8 -43q-13 -10 -48 -10q-34 0 -51 10z" />
    <glyph glyph-name="slash" unicode="/" horiz-adv-x="403" 
d="M328 757q32 -1 61 -23l-317 -839q-30 0 -61 23z" />
    <glyph glyph-name="zero" unicode="0" horiz-adv-x="530" 
d="M131 607q51 53 133 53t135 -53q21 -23 35.5 -49.5t23 -60.5t12.5 -76.5t4 -96.5t-3.5 -96.5t-12.5 -76.5t-23.5 -61t-35.5 -49q-53 -53 -134 -53t-134 53q-21 22 -35.5 49t-23.5 61t-12.5 76.5t-3.5 96.5q0 107 16 173t59 110zM142 481q-5 -29 -8 -67.5t-3 -89.5t3 -89.5
t8 -67.5q12 -57 42 -90q30 -32 81 -32t81 32q31 34 41 90q12 57 12 157t-12 157q-10 57 -41 89q-30 33 -81 33t-81 -33q-30 -31 -42 -89z" />
    <glyph glyph-name="one" unicode="1" horiz-adv-x="530" 
d="M258 121v292q0 7 0.5 22t1.5 39q1 25 1.5 41t0.5 24q-58 -76 -153 -119q-23 15 -30 43q34 21 63.5 44.5t53 47.5t40 48t25.5 45q13 4 31.5 4t33.5 -4v-527l-1 -63l53 1h78q6 -29 0 -59h-348q-6 30 0 59h98l53 -1z" />
    <glyph glyph-name="two" unicode="2" horiz-adv-x="530" 
d="M466 63v-15t-1 -12q-5 -36 -49 -36h-318q-34 28 -34 46q0 87 133 199l90 77q47 40 69 77t22 88t-33 83q-32 32 -80 32q-47 0 -84 -27q-36 -26 -59 -73q-37 4 -50 28q26 55 76.5 92.5t126.5 37.5t126 -50t50 -127q0 -76 -41 -129q-20 -27 -38 -45q-8 -8 -20.5 -18.5
t-28.5 -24.5l-81 -69q-100 -88 -108 -139q28 2 57 3.5t60 1.5h215v0z" />
    <glyph glyph-name="three" unicode="3" horiz-adv-x="530" 
d="M302 430q-16 -19 -42 -38q4 1 16 1q80 0 134 -48q54 -47 54 -146q0 -100 -67 -155q-67 -56 -151 -56q-116 0 -190 61q7 29 33 49q54 -40 108.5 -48.5t98 7t70 53t24.5 90.5q0 72 -33.5 107t-87.5 35q-53 0 -85 -20q-24 12 -32 38l147 162q40 43 68 68l-3 3
q-16 -4 -47.5 -5.5t-79.5 -1.5h-156q-3 12 -3 27t6 35h341q17 -32 17 -49t-16 -34z" />
    <glyph glyph-name="four" unicode="4" horiz-adv-x="530" 
d="M373 114v-114q-13 -3 -34 -3t-33 3v114l1 41l-40 -1h-200q-17 26 -17 39q0 14 22 62l174 398q4 1 7.5 1.5t8.5 0.5q31 0 50 -13l-148 -336q-16 -35 -27 -58t-16 -34l2 -3q19 1 44.5 1.5t58.5 0.5h81l-1 41v109q0 23 11 36t30 13h23l3 -3v-156l-1 -40l39 1h71
q2 -11 2 -29.5t-5 -30.5h-68l-39 1z" />
    <glyph glyph-name="five" unicode="5" horiz-adv-x="530" 
d="M431 648q5 -17 5 -28q0 -34 -33 -34h-179h-35t-24 1v-67l-4 -85q-1 -13 -2 -22t-2 -14q55 30 112 30q88 0 142 -54.5t54 -160.5q0 -105 -64 -166q-63 -60 -161 -60t-171 60q3 29 31 48q54 -38 106.5 -47t94 7.5t66.5 57.5t24 103q0 42 -11 71.5t-30.5 48t-46 26.5
t-58.5 8q-64 0 -123 -52q-20 2 -33 22l13 301l6 6h323v0z" />
    <glyph glyph-name="six" unicode="6" horiz-adv-x="530" 
d="M276 -12q-107 0 -160 83q-35 54 -44.5 120.5t-9.5 141.5t16 135.5t47 103t77.5 65.5t106.5 23q83 0 133 -30q-5 -35 -29 -51q-51 23 -102 23q-88 0 -131 -67q-44 -68 -45 -173q66 69 154 69q89 0 138 -55q50 -56 50 -157q0 -103 -57 -167q-55 -64 -144 -64zM277 369
q-36 0 -75.5 -20.5t-66.5 -54.5v-17q0 -23 3 -47.5t8 -52.5q11 -53 38 -89q36 -43 93 -43t92 44q34 43 34 121q0 159 -126 159z" />
    <glyph glyph-name="seven" unicode="7" horiz-adv-x="530" 
d="M462 648q14 -26 14 -42.5t-13 -36.5l-30 -45q-86 -130 -132 -238q-45 -110 -60 -257l-3 -29q-12 -4 -38 -4t-35 4l4 37q26 239 177 467l10 15q13 20 25.5 37t25.5 33l-3 3q-29 -6 -162 -6h-169q-3 12 -3 27t6 35h386z" />
    <glyph glyph-name="eight" unicode="8" horiz-adv-x="530" 
d="M56 162q0 58 34.5 105.5t88.5 72.5q-104 50 -104 152q0 74 54 121q56 47 136 47q82 0 135 -45q54 -45 54 -117q0 -51 -27 -90t-72 -62q54 -27 85.5 -71.5t31.5 -107.5q0 -81 -61 -130t-152 -49q-45 0 -82.5 12t-64.5 34.5t-41.5 54.5t-14.5 73zM239 319
q-52 -21 -81.5 -62.5t-29.5 -95.5q0 -27 10 -49t28 -37.5t42.5 -24t53.5 -8.5q28 0 53.5 9t44 25.5t29.5 40t11 53.5t-11.5 53.5t-31.5 41.5t-47.5 30.5t-59.5 20.5zM295 367q42 20 65 53.5t23 79.5t-35 76t-84 30q-50 0 -84 -31t-34 -81q0 -92 137 -125z" />
    <glyph glyph-name="nine" unicode="9" horiz-adv-x="530" 
d="M254 660q107 0 160 -83q35 -54 44.5 -120.5t9.5 -141.5t-16 -135.5t-47 -103t-77.5 -65.5t-106.5 -23q-84 0 -133 30q5 35 29 51q51 -23 102 -23q87 0 131 66q43 67 45 174q-68 -69 -155 -69q-89 0 -138 55t-49 157q0 101 56 166q57 65 145 65zM253 279q36 0 75.5 20.5
t66.5 53.5v18q0 44 -12 100q-5 28 -14.5 50t-22.5 39q-36 43 -94 43q-56 0 -91 -44q-34 -43 -34 -121q0 -159 126 -159z" />
    <glyph glyph-name="colon" unicode=":" horiz-adv-x="251" 
d="M76 3q-8 14 -8 43q0 31 8 42q17 10 50 10t49 -10q8 -11 8 -42q0 -29 -8 -43q-13 -10 -48 -10q-34 0 -51 10zM76 346q-8 14 -8 43q0 31 8 42q17 10 50 10t49 -10q8 -11 8 -42q0 -29 -8 -43q-13 -10 -48 -10q-34 0 -51 10z" />
    <glyph glyph-name="semicolon" unicode=";" horiz-adv-x="255" 
d="M176 88q10 -17 10 -68q0 -49 -33 -97q-30 -48 -94 -71q-9 4 -15 15.5t-5 22.5q35 17 55.5 43.5t20.5 57.5q-26 4 -38 13q-8 14 -8 43q0 30 8 41q19 10 53 10q33 0 46 -10zM78 346q-8 14 -8 43q0 31 8 42q17 10 50 10t49 -10q8 -11 8 -42q0 -29 -8 -43q-13 -10 -48 -10
q-34 0 -51 10z" />
    <glyph glyph-name="less" unicode="&#x3c;" horiz-adv-x="530" 
d="M434 525q29 -21 33 -55l-274 -145l-65 -33v-6l65 -33l274 -145q-4 -34 -33 -55l-379 206q-11 35 0 59z" />
    <glyph glyph-name="equal" unicode="=" horiz-adv-x="530" 
d="M59 175q-3 13 -3 31.5t3 33.5h412q3 -15 3 -33.5t-3 -31.5h-412zM59 343q-3 14 -3 32t3 33h412q3 -15 3 -33.5t-3 -31.5h-412z" />
    <glyph glyph-name="greater" unicode="&#x3e;" horiz-adv-x="530" 
d="M96 54q-29 21 -33 55l274 145l65 33v6l-65 33l-274 145q4 34 33 55l379 -207q11 -35 0 -59z" />
    <glyph glyph-name="question" unicode="?" horiz-adv-x="379" 
d="M17 648q89 46 173 46t131 -44q48 -44 48 -119q0 -115 -130 -191l-64 -37l-7 -118q-11 -4 -27 -4t-27 4l-4 149l6 8l45 24q134 72 134 159q0 36 -17.5 62t-50 36.5t-79.5 4t-105 -34.5q-23 23 -26 55zM187 80q7 -11 7 -39q0 -27 -7 -38q-9 -5 -20.5 -7.5t-24.5 -2.5
t-24.5 2.5t-20.5 7.5q-7 11 -7 38q0 28 7 39q9 5 20.5 7.5t24.5 2.5t24.5 -2.5t20.5 -7.5z" />
    <glyph glyph-name="at" unicode="@" horiz-adv-x="928" 
d="M640 153q0 -45 12.5 -64t39.5 -19q24 0 46 13.5t38.5 40.5t26 68t9.5 97q0 148 -91 239q-90 92 -244 92q-155 0 -252 -112q-98 -113 -98 -279q0 -165 86 -259q85 -94 226 -94q122 0 208 36q20 -17 20 -50q-115 -41 -230 -41q-168 0 -274 109q-105 108 -105 298t118 317
t301 127q182 0 292 -107q111 -107 111 -279q0 -125 -57 -198t-138 -73q-80 0 -104 66q-62 -71 -139 -71q-76 0 -119 58q-42 58 -42 161q0 102 53 176q52 73 144 73q90 0 163 -65zM450 68q16 0 33.5 6.5t34 17.5t31 25.5t24.5 31.5v237q-35 39 -95 39t-94 -57
q-34 -56 -34 -135q0 -78 24.5 -121.5t75.5 -43.5z" />
    <glyph glyph-name="A" unicode="A" horiz-adv-x="593" 
d="M360 180h-134l-71 1l-60 -182q-13 -3 -30.5 -3t-35.5 5l-2 3l229 679q8 1 19 2t22.5 1t22 -1t16.5 -2l230 -679q-16 -10 -37.5 -10t-30.5 7q-8 7 -16 29l-50 151zM234 243h118h7t19 -1h34l-66 199q-16 48 -28.5 88.5t-22.5 75.5h-5q-17 -62 -33 -114l-82 -249z" />
    <glyph glyph-name="B" unicode="B" horiz-adv-x="599" 
d="M106 0l-6 6v671l6 6l193 3q208 0 208 -180q0 -49 -26.5 -88t-71.5 -55q54 -14 92 -62q39 -48 39 -113q0 -75 -49 -130q-54 -61 -181 -61zM317 57q118 0 143 91q6 21 6 45q0 52 -37 93q-38 42 -122 42h-136v-272zM171 390h127q77 0 105 34q30 34 30 84q0 118 -132 118h-79
t-51 1v-237z" />
    <glyph glyph-name="C" unicode="C" horiz-adv-x="600" 
d="M479 477q0 58 -39 108q-38 50 -124 50q-87 0 -135 -75.5t-48 -216.5t49 -217t139 -76q89 0 181 80q29 -18 39 -46q-42 -43 -103 -69.5t-139 -26.5q-77 0 -135 51q-106 93 -106 299q0 175 74 266q75 91 183 91q109 0 171 -58q64 -57 64 -129q0 -42 -39 -42q-12 0 -32 5v6z
" />
    <glyph glyph-name="D" unicode="D" horiz-adv-x="635" 
d="M473 47q-27 -24 -77 -38q-46 -13 -82 -13q-17 0 -68.5 1t-139.5 3l-6 6v671l6 6q87 3 200 3q21 0 44 -3.5t45.5 -10t42.5 -16t35 -21.5q60 -51 81 -122.5t21 -172.5q0 -100 -21 -171t-81 -122zM305 56q38 0 67 9.5t50.5 27t35.5 41t22 51.5q13 40 17 75.5t4 80.5t-4 81
t-17 75q-12 40 -33 67q-20 27 -56.5 44.5t-85.5 17.5l-134 1v-570z" />
    <glyph glyph-name="E" unicode="E" horiz-adv-x="562" 
d="M168 60q17 1 32 1.5t29 0.5h276q0 -10 -0.5 -17.5t-1.5 -12.5q-5 -32 -45 -32h-317q-19 0 -30 12.5t-11 34.5v630l6 6h384q2 -11 2 -29t-5 -32h-319v-15v-19.5t1 -26.5v-186l59 1h211q6 -30 0 -60h-211h-33.5t-25.5 1v-222z" />
    <glyph glyph-name="F" unicode="F" horiz-adv-x="513" 
d="M229 377h205q6 -31 0 -61h-205h-33t-25 1v-317q-15 -3 -36 -3t-35 3v677l6 6h376q5 -17 5 -29q0 -33 -44 -33h-161q-42 0 -70 0.5t-42 1.5l1 -144v-103z" />
    <glyph glyph-name="G" unicode="G" horiz-adv-x="636" 
d="M508 340q31 0 43.5 -11t12.5 -38v-259q-108 -44 -235 -44q-75 0 -129.5 30t-84.5 82q-57 99 -57 237q0 94 24 165.5t66 111.5q81 81 193 81q61 0 121.5 -20t100.5 -55q-8 -35 -38 -55q-83 66 -190 66q-88 0 -145 -70q-57 -71 -57 -225q0 -285 209 -285q87 0 153 24v141
v37t1 23h-113q-33 0 -33 34q0 12 6 30h152z" />
    <glyph glyph-name="H" unicode="H" horiz-adv-x="667" 
d="M496 457v226q12 3 34 3t36 -3v-683q-14 -3 -36 -3t-34 3v249l1 74l-61 -1h-205l-61 1l1 -74v-249q-15 -3 -36 -3t-35 3v683q13 3 34.5 3t36.5 -3v-226v-19q0 -9 -0.5 -23t-0.5 -32l61 1h205l61 -1z" />
    <glyph glyph-name="I" unicode="I" horiz-adv-x="279" 
d="M104 683q13 3 34.5 3t36.5 -3v-683q-15 -3 -36 -3t-35 3v683z" />
    <glyph glyph-name="J" unicode="J" horiz-adv-x="433" 
d="M40 85q55 -34 119 -34q65 0 91 39q27 40 27 135v458q13 3 34.5 3t35.5 -3v-443q0 -59 -6.5 -99t-24.5 -77q-38 -74 -155 -74q-83 0 -151 41q7 31 30 54z" />
    <glyph glyph-name="K" unicode="K" horiz-adv-x="580" 
d="M557 20q-16 -25 -44 -25q-27 0 -37 10q-5 5 -10 14.5t-10 22.5l-66 166q-25 63 -55 88t-75 25q-23 0 -45 -0.5t-44 -1.5v-319q-15 -3 -36 -3t-35 3v683q13 3 34.5 3t36.5 -3v-302l76 2q19 0 34 24l150 242q9 15 16.5 23t16.5 11t22 2t34 -2l6 -8l-172 -275
q-11 -17 -28 -34q24 -3 42 -12t33 -24.5t27.5 -38.5t25.5 -54l63 -159q17 -41 40 -58z" />
    <glyph glyph-name="L" unicode="L" horiz-adv-x="505" 
d="M473 63q0 -11 -0.5 -18.5t-1.5 -12.5q-6 -32 -45 -32h-284q-18 0 -30 12.5t-12 35.5v632l6 6h29q22 0 29 -10.5t7 -35.5v-580q45 3 86 3h216z" />
    <glyph glyph-name="M" unicode="M" horiz-adv-x="790" 
d="M140 683q9 1 21 2t25.5 1t25.5 -1t21 -2l119 -359q17 -49 27 -84.5t14 -58.5h5q4 23 14 58.5t27 84.5l119 359q19 3 46 3t47 -3l53 -682q-17 -5 -34.5 -5t-34.5 3l-29 424q-2 21 -4 67.5t-4 118.5h-5l-163 -502q-16 -3 -35.5 -3t-34.5 3l-163 502h-5q-1 -13 -1.5 -36
t-2.5 -58q-1 -34 -2 -57t-2 -35l-29 -424q-17 -3 -36 -3t-32 5z" />
    <glyph glyph-name="N" unicode="N" horiz-adv-x="670" 
d="M569 681v-681q-18 -3 -44.5 -3t-42.5 3l-250 461q-15 28 -32 61.5t-37 75.5h-3q6 -180 6 -210v-388q-20 -3 -34 -3t-32 3v683q18 3 43.5 3t43.5 -3l249 -461q2 -5 20 -39t50 -100v-1h3q-2 60 -3.5 115.5t-1.5 107.5v335q0 25 7 35.5t29 10.5h23z" />
    <glyph glyph-name="O" unicode="O" horiz-adv-x="652" 
d="M141 444q-8 -48 -8 -102t8 -102q9 -48 29.5 -93.5t59.5 -72.5q41 -26 96 -26t95 26q40 27 60 72.5t28 93.5q9 48 9 101.5t-9 101.5q-4 24 -11 48t-17.5 45.5t-25 40t-34.5 31.5q-39 27 -95 27t-96 -27q-39 -26 -59.5 -71t-29.5 -93zM58 342q0 45 6.5 87.5t19.5 80.5
t33 70.5t47 56.5q64 58 162 58q99 0 161 -58q27 -24 47 -56.5t33 -70.5t19.5 -80.5t6.5 -87.5q0 -202 -106 -296q-62 -58 -161 -58q-98 0 -162 58q-106 94 -106 296z" />
    <glyph glyph-name="P" unicode="P" horiz-adv-x="553" 
d="M295 686q49 0 89.5 -14t69 -41t44 -67t15.5 -91q0 -102 -59.5 -157.5t-158.5 -55.5h-124v-260q-15 -3 -36 -3t-35 3v677l6 6zM171 319q21 1 51.5 1h70.5q81 0 113 45q32 47 32 109q0 63 -32 107q-32 45 -115 45h-71.5t-48.5 1v-308z" />
    <glyph glyph-name="Q" unicode="Q" horiz-adv-x="639" 
d="M341 -11q-3 -1 -15 -1q-105 0 -167 56q-101 90 -101 297q0 208 101 298q62 56 160 56q99 0 161 -56q101 -90 101 -296t-99 -295q-33 -26 -57 -35l22 -15q81 -60 127 -62q-2 -19 -11.5 -32t-24.5 -18.5t-34 -1.5t-40 18zM319 635q-186 0 -186 -292t186 -292q187 0 187 292
t-187 292z" />
    <glyph glyph-name="R" unicode="R" horiz-adv-x="591" 
d="M306 686q103 0 159 -52t56 -145q0 -69 -34.5 -116.5t-97.5 -65.5q41 -14 67 -80l53 -138q23 -56 42 -71q-14 -24 -49 -24q-20 0 -30.5 11t-20.5 36l-60 156q-18 47 -41.5 70.5t-70.5 23.5h-108v-291q-15 -3 -36 -3t-35 3v677l6 6zM171 351q43 1 76.5 1.5t58.5 0.5
q39 0 65.5 10.5t43.5 29t24.5 43.5t7.5 54q0 57 -32 97q-32 39 -120 39h-74.5t-49.5 1v-276z" />
    <glyph glyph-name="S" unicode="S" horiz-adv-x="555" 
d="M40 63q3 35 34 57q99 -69 200 -69q72 0 115 30t43 84q0 81 -110 129l-117 51q-133 58 -133 166q0 78 58 130q58 54 155 54q96 0 197 -48q2 -35 -28 -59q-67 34 -124 42t-98.5 -4t-65 -41t-23.5 -68q0 -66 100 -109l113 -49q149 -65 149 -179q0 -87 -59.5 -139.5
t-181.5 -52.5q-121 0 -224 75z" />
    <glyph glyph-name="T" unicode="T" horiz-adv-x="481" 
d="M276 623v-623q-15 -3 -35.5 -3t-35.5 3v623l-53 -1h-130q-6 28 0 61h436q5 -17 5 -29q0 -32 -43 -32h-90z" />
    <glyph glyph-name="U" unicode="U" horiz-adv-x="666" 
d="M573 232q0 -60 -17.5 -105.5t-49 -76t-76 -46.5t-98.5 -16t-98.5 16t-76 47t-48.5 76.5t-17 104.5v448l6 6h29q22 0 29 -10.5t7 -35.5v-407q0 -91 44.5 -138.5t125.5 -47.5t125.5 47.5t44.5 138.5v450q14 3 35.5 3t34.5 -3v-451z" />
    <glyph glyph-name="V" unicode="V" horiz-adv-x="553" 
d="M465 683q12 3 29.5 3t33.5 -4l3 -6l-205 -677q-23 -2 -40 -3.5t-29 1.5t-20 11t-13 25l-196 644q24 12 44 12q30 0 40 -34l121 -411q5 -17 17 -58.5t31 -107.5q2 -8 8 -8z" />
    <glyph glyph-name="W" unicode="W" horiz-adv-x="815" 
d="M40 680q19 9 42 9q29 0 36 -37l76 -393q16 -85 24.5 -131t9.5 -53q3 -15 4 -16t6 -1l126 610q10 1 23.5 2t26.5 1t24.5 -1t18.5 -2l116 -600q1 -10 8 -10q13 76 39 201l91 424q12 3 32.5 3t33.5 -4l4 -5l-150 -676q-12 -2 -28.5 -3.5t-36.5 -1.5q-39 0 -47 38l-106 559
h-6q-17 -90 -30 -153.5t-21 -102.5l-72 -337q-12 -2 -28.5 -3t-36.5 -1q-41 0 -48 40z" />
    <glyph glyph-name="X" unicode="X" horiz-adv-x="568" 
d="M453 683q5 2 13.5 3t18.5 1t19 -2t15 -5l3 -6l-194 -311l216 -352q-23 -17 -48 -17t-44 30l-172 279l-185 -303q-5 -2 -14 -3t-19 -1t-19.5 2t-15.5 5l-3 6l220 352l-191 311q23 17 48.5 17t44.5 -30l146 -239l161 263v0z" />
    <glyph glyph-name="Y" unicode="Y" horiz-adv-x="477" 
d="M246 302q4 14 14 42t27 70l107 269q13 4 30.5 4t35.5 -5l3 -6l-188 -453v-223q-15 -3 -36 -3t-35 3v226l-188 449q26 15 49 15t37 -35l100 -241q9 -20 19 -48.5t21 -63.5h4v0z" />
    <glyph glyph-name="Z" unicode="Z" horiz-adv-x="551" 
d="M338 513q3 5 22.5 32.5t54.5 78.5l-3 3q-16 -4 -55 -5.5t-102 -1.5h-173q-3 12 -3 28t6 35h393q10 -34 10 -50q0 -14 -12 -33l-269 -422q-2 -4 -22 -33t-57 -83l3 -3q26 2 51.5 3.5t49.5 1.5h136q88 0 121 16q7 -20 7 -38q0 -42 -53 -42h-378q-11 33 -11 50t11 35z" />
    <glyph glyph-name="bracketleft" unicode="[" horiz-adv-x="310" 
d="M106 -140l-6 6v935l6 6l172 -7q2 -8 2 -22.5t-6 -30.5l-103 -3v-821l103 -2q6 -18 6 -32t-2 -22z" />
    <glyph glyph-name="backslash" unicode="\" horiz-adv-x="403" 
d="M14 734q31 23 61 23l317 -839q-29 -22 -61 -23z" />
    <glyph glyph-name="bracketright" unicode="]" horiz-adv-x="310" 
d="M32 -133q-2 8 -2 22t6 32l103 2v821l-103 3q-6 16 -6 30.5t2 22.5l172 7l6 -6v-935l-6 -6z" />
    <glyph glyph-name="asciicircum" unicode="^" horiz-adv-x="530" 
d="M476 306q-5 -2 -14 -3t-19 -1t-20.5 1t-17.5 3l-105 214q-11 22 -19 39t-13 30h-6q-5 -13 -13 -30t-19 -39l-105 -214q-8 -2 -18 -3t-20 -1t-19 1t-14 3l174 342q38 8 74 0z" />
    <glyph glyph-name="underscore" unicode="_" horiz-adv-x="506" 
d="M0 -140q-3 9 -3 27t3 30h506q3 -12 3 -30t-3 -27h-506z" />
    <glyph glyph-name="grave" unicode="`" horiz-adv-x="398" 
d="M265 565q-12 -23 -32 -29l-162 129q8 17 24 32t35 21z" />
    <glyph glyph-name="a" unicode="a" 
d="M445 28q-10 -25 -32 -35q-47 19 -58 72q-77 -77 -159 -77q-69 0 -106 43q-38 44 -38 102q0 81 49.5 120.5t137.5 39.5q29 0 57.5 -2.5t55.5 -7.5v53q0 105 -93 105q-71 0 -164 -42q-10 8 -17.5 24t-7.5 30q106 47 194 47q153 0 153 -166v-206q0 -73 28 -100zM352 232
q-28 4 -56 6t-56 2q-56 0 -87 -27t-31 -71q0 -45 21 -70q16 -19 42.5 -23.5t55.5 4t58.5 29t52.5 51.5v99z" />
    <glyph glyph-name="b" unicode="b" horiz-adv-x="523" 
d="M90 729l6 6h25q22 0 29 -11t7 -36v-254q64 64 144 64q81 0 125 -68t44 -187q0 -121 -61 -185q-62 -65 -146 -65q-83 0 -173 32v704zM157 65q45 -19 106 -19q59 0 99 52t40 150q0 96 -32 143t-73 47q-42 0 -79 -21q-34 -19 -61 -53v-299z" />
    <glyph glyph-name="c" unicode="c" horiz-adv-x="469" 
d="M359 320v21t-8 39q-7 25 -32.5 46t-67.5 21q-57 0 -91.5 -54t-34.5 -151q0 -96 34 -145t92.5 -49.5t133.5 56.5q28 -18 34 -44q-77 -72 -174 -72t-145 74q-47 74 -47 190t58 183t142 67q45 0 80.5 -15t54.5 -37q37 -46 37 -90q0 -43 -37 -43q-13 0 -29 3z" />
    <glyph glyph-name="d" unicode="d" horiz-adv-x="524" 
d="M366 729l6 6h24q22 0 29 -11t7 -36v-550q0 -83 28 -110q-11 -25 -32 -35q-45 18 -57 68q-61 -73 -147 -73q-85 0 -129 68q-43 67 -43 189q0 120 56 187q57 66 124 66q68 0 134 -42v273zM232 48q36 0 72.5 21.5t61.5 58.5v264q-47 35 -91 43.5t-78 -10.5t-55 -65t-21 -120
q0 -97 31.5 -144.5t79.5 -47.5z" />
    <glyph glyph-name="e" unicode="e" 
d="M126 224q4 -175 132 -175q70 0 146 43q21 -18 26 -48q-80 -56 -181 -56q-72 0 -116.5 37t-62.5 92q-17 57 -17 129q0 113 53 184q54 72 146 72q93 0 142 -61q50 -61 50 -153q0 -16 -1 -32t-3 -32h-314zM374 278v14q0 69 -30 113t-90 44t-92.5 -46.5t-35.5 -124.5h248z
" />
    <glyph glyph-name="f" unicode="f" horiz-adv-x="317" 
d="M109 439l-86 -1q-3 14 -3 26t3 27l83 -2q-4 47 -5.5 73t-1.5 33q0 31 9.5 57.5t27.5 46t43 30t56 10.5q63 0 116 -21q0 -27 -17 -47q-54 16 -91.5 16t-58.5 -25q-21 -24 -21 -68t8 -105l148 2q3 -15 3 -27t-3 -26l-143 1v-439q-15 -3 -33.5 -3t-33.5 3v439z" />
    <glyph glyph-name="g" unicode="g" horiz-adv-x="523" 
d="M379 448q15 35 50 49q21 -10 32 -35q-28 -28 -28 -110v-318q0 -137 -45 -192q-50 -62 -142 -62q-94 0 -172 34q1 31 20 54q67 -32 123 -32q59 0 86 13q30 14 43 37q23 44 23 114v60q-66 -68 -148 -68t-125 67q-44 68 -44 189t56 188q57 66 133 66t138 -54zM369 391
q-60 51 -118 51.5t-94 -50.5q-36 -50 -36 -147q0 -98 30 -146q32 -47 75 -47q44 0 81 22t62 56v261z" />
    <glyph glyph-name="h" unicode="h" horiz-adv-x="544" 
d="M460 92q0 -57 10 -83q-15 -15 -43 -15q-35 0 -35 45v281q0 63 -16 89.5t-58 26.5q-21 0 -43.5 -6t-43.5 -16.5t-40 -25t-34 -32.5v-356q-13 -3 -33 -3t-34 3v729l6 6h25q22 0 29 -11t7 -36v-263q33 33 80 53t95 20q67 0 97.5 -43t30.5 -112v-251z" />
    <glyph glyph-name="i" unicode="i" horiz-adv-x="253" 
d="M165 0q-13 -3 -34 -3t-34 3v390q0 28 -9 38t-32 10h-9q-6 23 0 51q14 2 26 3t22 1h8q29 0 45.5 -18t16.5 -50v-425zM74 588q-7 14 -7 36.5t7 34.5q13 10 42 10q31 0 42 -10q7 -12 7 -34.5t-7 -36.5q-10 -10 -41 -10q-30 0 -43 10z" />
    <glyph glyph-name="j" unicode="j" horiz-adv-x="260" 
d="M172 12q0 -105 -9 -136q-18 -66 -105 -95q-16 16 -22 43q40 22 54 48t14 76v442q0 28 -9 38t-32 10h-18q-6 23 0 51q14 2 29 3t30 1h8q28 0 44 -18.5t16 -49.5v-413zM81 588q-7 14 -7 36.5t7 34.5q13 10 42 10q31 0 42 -10q7 -12 7 -34.5t-7 -36.5q-10 -10 -41 -10
q-30 0 -43 10z" />
    <glyph glyph-name="k" unicode="k" horiz-adv-x="487" 
d="M416 88q26 -60 48 -73q-15 -21 -41 -21q-27 0 -37 12q-9 11 -22 39l-48 105q-20 45 -40 60t-52 15q-33 0 -67 -3v-222q-13 -3 -33 -3t-34 3v729l6 6h25q22 0 29 -11t7 -36v-409l46 3q14 0 21 13l111 163q13 19 23.5 27t30.5 8h19t15 -1l6 -8l-131 -189q-13 -18 -22 -25
q35 -7 57.5 -28t42.5 -64z" />
    <glyph glyph-name="l" unicode="l" horiz-adv-x="280" 
d="M235 53q6 -15 6 -31t-1 -20q-28 -6 -55 -6.5t-49 7t-35 25t-13 47.5v654l6 6h25q22 0 29 -11t7 -36v-593q0 -42 37 -42h43z" />
    <glyph glyph-name="m" unicode="m" horiz-adv-x="790" 
d="M364 321q0 63 -15.5 89.5t-51.5 26.5t-73.5 -22t-65.5 -59v-356q-14 -3 -34 -3t-34 3v486l6 7h26q22 0 29 -11t7 -36v-20q63 73 146 73q82 0 114 -77q80 77 162 77q62 0 93.5 -43.5t31.5 -110.5v-253q0 -55 11 -83q-17 -15 -43 -15q-35 0 -35 45v283q0 63 -15.5 89
t-51.5 26t-73.5 -21t-66.5 -60v-356q-13 -3 -34 -3t-33 3v321v0z" />
    <glyph glyph-name="n" unicode="n" horiz-adv-x="545" 
d="M461 92q0 -60 10 -83q-15 -15 -43 -15q-35 0 -35 45v282q0 63 -16 89.5t-58 26.5q-21 0 -43.5 -6t-43.5 -16.5t-40 -25t-34 -32.5v-357q-14 -3 -34 -3t-34 3v487l6 6h26q22 0 29 -11t7 -36v-20q33 33 80 53t95 20q67 0 97.5 -43t30.5 -112v-252z" />
    <glyph glyph-name="o" unicode="o" horiz-adv-x="519" 
d="M396 41q-53 -53 -137 -53q-83 0 -136 53q-70 70 -70 204t70 204q53 53 136 53q84 0 137 -53q70 -70 70 -204t-70 -204zM260 42q49 0 80 31q55 55 55 172q0 85 -33 144q-32 60 -103 60q-70 0 -103 -60q-32 -59 -32 -145q0 -85 32 -144q33 -58 104 -58z" />
    <glyph glyph-name="p" unicode="p" horiz-adv-x="525" 
d="M157 -168q0 -25 -7 -36t-29 -11h-25l-6 6v696l6 6h25q22 0 29 -11t7 -36v-14q61 70 144 70t127 -69q44 -68 44 -189q0 -119 -56 -186q-56 -66 -125 -66q-70 0 -134 43v-203zM157 99q67 -48 121 -48t90 51q36 49 36 147t-32 145q-32 48 -74 48q-41 0 -79 -23t-62 -60v-260
z" />
    <glyph glyph-name="q" unicode="q" horiz-adv-x="523" 
d="M367 56q-64 -64 -146 -64t-125 67q-44 68 -44 189t56 188q57 66 133 66q77 0 138 -52q15 33 50 47q21 -10 32 -35q-28 -28 -28 -110v-561l-6 -6h-24q-22 0 -29 11t-7 36v224zM231 52q77 0 136 75v266q-43 37 -87 46t-80 -9.5t-58.5 -65t-20.5 -119.5q0 -99 31 -146
t79 -47z" />
    <glyph glyph-name="r" unicode="r" horiz-adv-x="349" 
d="M64 459q9 26 30 38q54 -21 68 -89q44 89 134 89q22 0 45 -4q0 -42 -16 -65q-5 1 -13.5 1h-19.5q-84 0 -125 -95v-334q-13 -3 -34 -3t-33 3v357q0 64 -36 102z" />
    <glyph glyph-name="s" unicode="s" horiz-adv-x="434" 
d="M38 38q1 28 28 50q61 -34 107.5 -42t78 1t48 30t18.5 46q0 54 -75 83l-57 22q-128 50 -128 138q0 31 12.5 56t35 43t54 27.5t68.5 9.5q73 0 145 -32q0 -33 -21 -54q-50 24 -92 28.5t-71.5 -4t-45.5 -26.5t-14 -40q0 -29 18 -46t60 -34l59 -23q122 -48 122 -143
q0 -66 -50.5 -103t-135.5 -37q-84 0 -164 50z" />
    <glyph glyph-name="t" unicode="t" horiz-adv-x="334" 
d="M301 491q3 -15 3 -27t-3 -26l-127 1v-345q0 -41 39 -41h77q6 -15 6 -31t-1 -20q-47 -6 -94 -6q-45 0 -70 20q-24 21 -24 59v364l-69 -1q-6 24 0 53l69 -1v108q0 25 7.5 36t29.5 11h24l6 -6v-150l127 2v0z" />
    <glyph glyph-name="u" unicode="u" horiz-adv-x="546" 
d="M84 397q0 61 -10 84q15 15 43 15q35 0 35 -45v-282q0 -63 15.5 -89.5t57.5 -26.5t87 22.5t75 56.5v358q13 3 34 3t33 -3v-352q0 -82 28 -110q-10 -25 -32 -35q-49 19 -59 74q-34 -34 -82.5 -55t-96.5 -21q-67 0 -97.5 43t-30.5 112v251z" />
    <glyph glyph-name="v" unicode="v" horiz-adv-x="439" 
d="M365 491q11 3 27 3t34 -5l2 -3q-78 -245 -165 -486q-19 -5 -44.5 -5t-35.5 8q-8 7 -19 39l-152 443q24 12 46 12t30 -25l81 -242q20 -60 32.5 -100t17.5 -62q2 -8 9 -8z" />
    <glyph glyph-name="w" unicode="w" horiz-adv-x="700" 
d="M34 486q12 6 23.5 9t22 2t18 -7.5t10.5 -19.5l54 -238q4 -17 9 -41.5t12 -56.5q7 -31 11 -49.5t5 -23.5q3 -10 9 -10l103 439q15 3 43 3q27 0 41 -3l97 -430q1 -9 8 -9l104 440q12 3 32 3t33 -5l2 -3l-125 -487q-10 -2 -23 -2.5t-25.5 -0.5t-23.5 2t-17 7q-13 9 -19 37
l-36 159l-18 89q-10 45 -17 77.5t-12 54.5h-4l-51 -221l-49 -201q-19 -4 -59 -4q-39 0 -49 46z" />
    <glyph glyph-name="x" unicode="x" horiz-adv-x="446" 
d="M335 490q10 4 30.5 4t32.5 -6l3 -6l-141 -222l163 -250q-28 -17 -47.5 -17t-34.5 21l-123 189l-128 -204q-10 -4 -31 -4t-33 7l-3 6l160 249l-146 224q26 17 46.5 17t35.5 -21l107 -165l109 178v0z" />
    <glyph glyph-name="y" unicode="y" horiz-adv-x="448" 
d="M294 17q-37 -129 -81 -182t-127 -53q-42 0 -78 13v5q0 25 16 44q24 -10 63 -10q27 0 47 9t35.5 27.5t28 47.5t24.5 68l3 10q-25 2 -37.5 11.5t-21.5 36.5l-142 441q27 12 40 12q26 0 37 -33l81 -255q14 -47 26 -86t22 -71q1 -7 10 -7l124 446q15 3 33 3t33 -5l2 -3z" />
    <glyph glyph-name="z" unicode="z" horiz-adv-x="444" 
d="M247 338q27 35 46.5 59.5t31.5 38.5l-3 3q-19 -2 -53 -3.5t-85 -1.5h-124q-2 8 -2 24t4 32h325q12 -32 12 -44t-12 -28l-189 -259q-23 -31 -42.5 -56.5t-36.5 -45.5l3 -3q52 3 101 3h56q86 0 118 12q6 -15 6 -34q0 -35 -53 -35h-296q-12 33 -12 44q0 12 12 29z" />
    <glyph glyph-name="braceleft" unicode="{" horiz-adv-x="312" 
d="M41 348q35 15 57.5 46t22.5 77v176q0 66 35.5 105t93.5 49l41 7q14 -15 14 -29.5t-2 -22.5l-43 -13q-69 -21 -69 -97v-173q0 -46 -21.5 -86.5t-57.5 -58.5v-8q36 -18 57.5 -58.5t21.5 -86.5v-174q0 -76 69 -98l43 -12q2 -8 2 -22.5t-14 -29.5l-41 7q-58 10 -93.5 49
t-35.5 105v177q0 45 -22.5 77t-57.5 46q-4 8 -4 24t4 24z" />
    <glyph glyph-name="bar" unicode="|" horiz-adv-x="246" 
d="M90 775q14 3 32 3t33 -3v-915q-15 -3 -33 -3t-32 3v915z" />
    <glyph glyph-name="braceright" unicode="}" horiz-adv-x="312" 
d="M271 348q4 -8 4 -24t-4 -24q-35 -14 -57.5 -46t-22.5 -77v-177q0 -66 -35 -105t-95 -49l-40 -7q-14 15 -14 29.5t2 22.5l43 12q68 23 68 98v174q0 46 22 86.5t58 58.5v8q-36 18 -58 58.5t-22 86.5v173q0 76 -68 97l-43 13q-2 8 -2 22.5t14 29.5l40 -7q60 -10 95 -49
t35 -105v-176q0 -46 22.5 -77t57.5 -46z" />
    <glyph glyph-name="asciitilde" unicode="~" horiz-adv-x="555" 
d="M334 302q15 -6 31 -10t31 -2.5t30 9.5t29 26l14 19q12 -1 24.5 -8.5t16.5 -17.5l-9 -17q-41 -78 -123 -78q-34 0 -82 20l-75 34q-15 6 -31 10t-31 2.5t-30 -9.5t-29 -26l-15 -19q-12 1 -24 8.5t-16 18.5l9 17q41 77 122 77q37 0 82 -20z" />
    <glyph glyph-name="exclamdown" unicode="&#xa1;" horiz-adv-x="274" 
d="M171 -178q-29 -21 -74 -21l-5 5l18 499q11 4 27.5 4t27.5 -4zM182 410q-9 -5 -20.5 -7.5t-24.5 -2.5t-24.5 2.5t-20.5 7.5q-7 10 -7 37q0 29 7 40q9 5 20.5 7.5t24.5 2.5t24.5 -2.5t20.5 -7.5q7 -11 7 -40q0 -27 -7 -37z" />
    <glyph glyph-name="cent" unicode="&#xa2;" horiz-adv-x="472" 
d="M219 70q-84 11 -125 83q-41 74 -41 178q0 53 13 96.5t35.5 75.5t53.5 52t67 26v99q9 3 30 3t33 -3v-98q69 -9 104 -53q36 -44 36 -87t-36 -43q-14 0 -30 3q1 5 1 13q0 43 -25 77q-24 36 -83 36q-58 0 -91.5 -52.5t-33.5 -151.5q0 -97 33.5 -146t96.5 -49q65 0 126 58
q27 -11 38 -40q-54 -64 -139 -76v-101q-16 -2 -33.5 -2t-29.5 2v100z" />
    <glyph glyph-name="sterling" unicode="&#xa3;" horiz-adv-x="523" 
d="M389 332q6 -28 0 -57h-91q-30 1 -52.5 1h-37.5q1 -8 1.5 -14t0.5 -10q0 -88 -74 -191l3 -3q54 2 82.5 3t31.5 1h225q0 -10 -0.5 -17.5t-1.5 -12.5q-5 -32 -45 -32h-360q-11 33 -11 51t11 34l19 28q51 75 51 141q0 3 -0.5 8.5t-1.5 13.5q-13 -1 -31.5 -1h-43.5q-6 26 0 57
h35.5t26.5 -1q-2 6 -5.5 16t-8 21t-8.5 21.5t-7 18.5q-15 43 -15 78q0 68 48 121t147 53t180 -69q-1 -15 -12 -31t-25 -20q-71 59 -146 59q-52 0 -86 -30t-34 -84q0 -43 19 -93q10 -26 15.5 -41t7.5 -20z" />
    <glyph glyph-name="currency" unicode="&#xa4;" horiz-adv-x="565" 
d="M38 537q15 25 42 42l76 -73q55 40 125 40q69 0 125 -39l78 73q28 -15 41 -42l-72 -78q19 -29 29 -61t10 -64.5t-9.5 -64.5t-28.5 -59l72 -77q-14 -27 -41 -41l-77 71q-56 -39 -126 -39q-71 0 -126 39l-76 -71q-28 14 -42 41l72 77q-38 55 -38 124t39 125zM282 492
q-61 0 -100 -46q-38 -47 -38 -111q0 -63 38 -110q39 -46 100 -46t100 46t39 110q0 63 -39 110t-100 47z" />
    <glyph glyph-name="yen" unicode="&#xa5;" horiz-adv-x="494" 
d="M281 186v-186q-15 -3 -35 -3t-34 3v186h-154q-6 24 0 53h150l-39 89h-111q-6 26 0 54h87l-115 261q24 14 47.5 14t37.5 -31l93 -225q7 -13 16.5 -39t23.5 -64h5q14 43 23.5 68.5t14.5 34.5l104 250q17 5 34 5t32 -4l3 -5l-117 -265h88q6 -28 0 -54h-111l-39 -89h150
q6 -29 0 -53h-154z" />
    <glyph glyph-name="brokenbar" unicode="&#xa6;" horiz-adv-x="240" 
d="M87 247q14 3 32 3t33 -3v-387q-15 -3 -33.5 -3t-31.5 3v387zM87 775q14 3 32 3t33 -3v-387q-15 -3 -33.5 -3t-31.5 3v387z" />
    <glyph glyph-name="section" unicode="&#xa7;" horiz-adv-x="476" 
d="M330 151q71 -47 71 -113q0 -65 -50 -103q-49 -37 -124 -37q-42 0 -86 11.5t-72 30.5q0 14 8.5 29.5t18.5 22.5q34 -19 66 -28t59 -10t48 4.5t35 16.5q27 19 27 55q0 48 -78 80l-59 23q-75 28 -117 63.5t-42 89.5t31 93t80 62q-71 45 -71 112t48 105q49 37 123 37
q75 0 144 -34q0 -35 -21 -54q-53 24 -94.5 29.5t-70 -2.5t-43.5 -27t-15 -44q0 -49 78 -79l59 -23q75 -30 116.5 -65.5t41.5 -89.5t-31 -92.5t-80 -62.5zM203 413q-2 0 -2 1q-94 -42 -94 -113q0 -35 29 -57t80 -42l57 -22q0 -1 1 -1q96 43 96 113q0 35 -29 57t-81 42z" />
    <glyph glyph-name="dieresis" unicode="&#xa8;" horiz-adv-x="398" 
d="M249 572q-7 16 -7 33.5t7 31.5q7 4 17.5 6.5t21 2.5t20.5 -2.5t16 -6.5q7 -14 7 -32.5t-7 -32.5q-11 -9 -37 -9q-25 0 -38 9zM74 572q-7 16 -7 33.5t7 31.5q6 4 16 6.5t20.5 2.5t21 -2.5t17.5 -6.5q7 -14 7 -32.5t-7 -32.5q-14 -9 -39 -9q-26 0 -36 9z" />
    <glyph glyph-name="copyright" unicode="&#xa9;" horiz-adv-x="811" 
d="M149 85q-103 103 -103 256t103 256q104 104 256 104t256 -104t104 -256t-104 -256q-103 -103 -256 -103t-256 103zM196 557q-84 -89 -84 -216q0 -128 84 -216q84 -89 209 -89t209 89q85 88 85 216t-85 216q-84 90 -209 90t-209 -90zM495 399q0 17 -5 33.5t-15.5 29.5
t-27.5 21t-41 8q-48 0 -77 -39t-29 -111q0 -70 29.5 -109t84.5 -39q56 0 106 46q21 -8 33 -36q-27 -28 -68 -45.5t-83 -17.5q-39 0 -70.5 14.5t-54 41t-34.5 64t-12 84.5q0 95 52 147q53 53 125 53q73 0 110 -40q39 -39 39 -79t-33 -40q-14 0 -29 5v9z" />
    <glyph glyph-name="ordfeminine" unicode="&#xaa;" horiz-adv-x="402" 
d="M351 340q-2 -8 -11 -17t-19 -13q-36 13 -45 50q-59 -53 -118 -53t-89 33q-29 34 -29 77q0 63 38.5 92.5t107.5 29.5q20 0 41.5 -1.5t44.5 -3.5v31q0 76 -66 76q-64 0 -131 -30q-22 18 -22 48q82 36 154 36q122 0 122 -127v-152q0 -55 22 -76zM272 487q-57 6 -91 6
t-56 -19q-11 -9 -16 -22t-5.5 -27t3 -27t11.5 -22q12 -14 30.5 -17.5t40 2.5t43.5 19.5t40 34.5v72z" />
    <glyph glyph-name="guillemotleft" unicode="&#xab;" horiz-adv-x="519" 
d="M324 256l155 -173q-12 -27 -40 -39l-195 186q-11 25 0 50l189 182q28 -12 40 -39zM124 256l155 -173q-12 -27 -40 -39l-195 186q-11 25 0 50l189 182q28 -12 40 -39z" />
    <glyph glyph-name="logicalnot" unicode="&#xac;" horiz-adv-x="530" 
d="M365 263h-311q-3 13 -3 32t3 33h409l6 -6v-213q-13 -3 -33.5 -3t-35.5 3v120l1 35z" />
    <glyph glyph-name="uni00AD" unicode="&#xad;" horiz-adv-x="332" 
d="M53 232q-3 13 -3 32.5t3 32.5h226q3 -13 3 -32t-3 -33h-226z" />
    <glyph glyph-name="registered" unicode="&#xae;" horiz-adv-x="587" 
d="M293 235q-108 0 -181 73t-73 180t74 181t180 74q107 0 181 -75q74 -74 74 -180t-74 -180q-73 -73 -181 -73zM151 633q-57 -60 -57 -145t57 -145q59 -59 142 -59q85 0 142 59q58 59 58 145q0 87 -58 146q-57 60 -142 60q-84 0 -142 -61zM391 546q0 -54 -51 -70
q13 -6 33 -41l16 -29q10 -20 21 -27q-11 -19 -32 -19t-36 30l-26 49q-12 21 -33 21h-32v-95q-12 -4 -25 -4l-26 4v247l3 3q60 2 100.5 2t63.5 -20q24 -20 24 -51zM251 501h43q46 0 46 38q0 16 -11 27.5t-31 11.5h-47v-77z" />
    <glyph glyph-name="macron" unicode="&#xaf;" horiz-adv-x="398" 
d="M67 578q-3 14 -3 32t3 31h264q3 -13 3 -31t-3 -32h-264z" />
    <glyph glyph-name="degree" unicode="&#xb0;" horiz-adv-x="311" 
d="M155 395q-57 0 -96 39q-39 40 -39 98q0 59 39 98q39 40 96 40q58 0 97 -40q39 -41 39 -98q0 -58 -39 -98q-39 -39 -97 -39zM155 617q-34 0 -55 -24.5t-21 -61.5q0 -36 21 -59.5t55 -23.5q35 0 55.5 23.5t20.5 59.5q0 37 -20.5 61.5t-55.5 24.5z" />
    <glyph glyph-name="plusminus" unicode="&#xb1;" horiz-adv-x="530" 
d="M230 398v131q15 3 35.5 3t34.5 -3v-131v-9q0 -5 -0.5 -11.5t-0.5 -14.5l35 1h127q3 -15 3 -33.5t-3 -31.5h-127l-35 1l1 -36v-131q-14 -3 -34.5 -3t-35.5 3v131l1 36l-35 -1h-127q-3 14 -3 32t3 33h127l35 -1zM69 0q-6 30 0 65h392q6 -35 0 -65h-392z" />
    <glyph glyph-name="twosuperior" unicode="&#xb2;" horiz-adv-x="420" 
d="M343 409v-16.5t-1 -11.5q-4 -28 -32 -28h-223q-21 21 -21 37q0 54 83 122l61 50q32 25 44.5 43.5t12.5 45.5q0 28 -18.5 46.5t-47.5 18.5q-53 0 -81 -63q-32 5 -47 24q16 40 50 66.5t86 26.5q53 0 88 -35t35 -81t-20 -75q-19 -28 -62 -63l-56 -45q-48 -38 -59 -66
q16 2 32.5 3t33.5 1h142v0z" />
    <glyph glyph-name="threesuperior" unicode="&#xb3;" horiz-adv-x="420" 
d="M247 637q-7 -8 -15 -15t-16 -12h9q51 0 84 -34t33 -97t-46 -97q-44 -34 -114 -34q-68 0 -122 39q4 28 24 46q39 -25 74.5 -31t62.5 2.5t42.5 29t15.5 47.5q2 31 -11.5 51t-34 28.5t-43.5 6.5t-40 -13q-20 9 -23 34l88 94q17 20 34 31l-2 2q-19 -4 -78 -4h-91q-3 13 -3 27
t4 25h235q10 -20 10 -32.5t-10 -22.5z" />
    <glyph glyph-name="acute" unicode="&#xb4;" horiz-adv-x="398" 
d="M272 718q19 -6 35 -21t24 -32l-162 -129q-23 6 -32 29z" />
    <glyph glyph-name="paragraph" unicode="&#xb6;" horiz-adv-x="618" 
d="M294 261h-23q-50 0 -90 14t-69 41.5t-44.5 67.5t-15.5 91q0 103 60 157.5t159 54.5q35 0 88 -3l6 -6v-612q0 -64 -8 -103.5t-33 -67.5q-42 -48 -116 -48q-73 0 -128 23q0 31 21 57q47 -22 98 -22q50 0 73 32q22 31 22 121v203zM433 677l6 6h145q10 -32 0 -63h-49h-18.5
t-12.5 1v-755q-15 -3 -36.5 -3t-34.5 3v811z" />
    <glyph glyph-name="periodcentered" unicode="&#xb7;" horiz-adv-x="288" 
d="M98 239q-8 14 -8 43q0 31 8 42q16 10 46 10q31 0 47 -10q7 -11 7 -42q0 -30 -7 -43q-13 -10 -46 -10q-31 0 -47 10z" />
    <glyph glyph-name="cedilla" unicode="&#xb8;" horiz-adv-x="398" 
d="M152 -72q10 38 26 72h55q-14 -30 -18 -40q38 -3 63 -26t25 -61q0 -40 -31 -65q-32 -26 -77 -26q-46 0 -74 18q1 20 18 43q23 -14 50 -14t40 13t13 32q0 16 -8 25.5t-19.5 14t-24.5 4t-23 -4.5q-12 4 -15 15z" />
    <glyph glyph-name="onesuperior" unicode="&#xb9;" horiz-adv-x="420" 
d="M201 406v209q0 7 0.5 24.5t0.5 26.5q-37 -48 -100 -74q-22 10 -25 40q90 51 126 131q26 8 57 0v-357l47 1h36q6 -25 0 -52h-246q-6 29 0 52h58z" />
    <glyph glyph-name="ordmasculine" unicode="&#xba;" horiz-adv-x="384" 
d="M298 656q54 -59 54 -156q0 -98 -54 -155q-44 -38 -106 -38t-106 38q-54 57 -54 155q0 97 54 156q42 39 106 39t106 -39zM192 645q-25 0 -43 -11t-30 -30.5t-17.5 -46t-5.5 -57.5q0 -61 23 -101.5t73 -40.5t73 40.5t23 101.5q0 31 -5.5 57.5t-17.5 46t-30 30.5t-43 11z
" />
    <glyph glyph-name="guillemotright" unicode="&#xbb;" horiz-adv-x="519" 
d="M196 250l-156 173q12 27 40 39l195 -186q11 -25 0 -50l-189 -182q-28 12 -40 39zM396 250l-156 173q12 27 40 39l195 -186q11 -25 0 -50l-189 -182q-28 12 -40 39z" />
    <glyph glyph-name="onequarter" unicode="&#xbc;" horiz-adv-x="873" 
d="M167 326v209q0 7 0.5 24.5t0.5 26.5q-37 -48 -100 -74q-22 10 -25 40q90 51 126 131q26 8 57 0v-357l47 1h36q6 -24 0 -52h-246q-6 29 0 52h58zM627 683q6 3 15 4t19.5 1t19.5 -1t15 -4l-376 -683q-6 -3 -15 -4t-19.5 -1t-19.5 1t-15 4zM699 83h-160q-13 19 -13 36t15 43
l119 250q3 1 12 1q32 0 45 -16l-93 -198q-9 -20 -17 -35t-15 -26l1 -2q10 1 23.5 1h30.5h52v75q0 19 10.5 30.5t25.5 11.5h22l1 -2v-115h67q2 -14 2 -29.5t-4 -24.5h-65v-83q-9 -4 -28.5 -4t-30.5 4v83z" />
    <glyph glyph-name="onehalf" unicode="&#xbd;" horiz-adv-x="873" 
d="M611 683q6 3 15 4t19.5 1t19.5 -1t15 -4l-376 -683q-6 -3 -15 -4t-19.5 -1t-19.5 1t-15 4zM167 326v209q0 7 0.5 24.5t0.5 26.5q-37 -48 -100 -74q-22 10 -25 40q90 51 126 131q26 8 57 0v-357l47 1h36q6 -24 0 -52h-246q-6 29 0 52h58zM821 53v-16.5t-1 -11.5
q-4 -28 -32 -28h-223q-21 21 -21 37q0 54 83 122l61 50q32 25 44.5 43.5t12.5 45.5q0 28 -18.5 46.5t-47.5 18.5q-53 0 -81 -63q-32 5 -47 24q16 40 50 66.5t86 26.5q53 0 88 -35t35 -81t-20 -75q-19 -28 -62 -63l-56 -45q-48 -38 -59 -66q16 2 32.5 3t33.5 1h142z" />
    <glyph glyph-name="threequarters" unicode="&#xbe;" horiz-adv-x="873" 
d="M622 683q12 5 34 5q23 0 35 -5l-376 -683q-6 -3 -15 -4t-19.5 -1t-19.5 1t-15 4zM243 559q-7 -8 -15 -15t-16 -12h9q51 0 84 -34t33 -97t-46 -97q-44 -34 -114 -34q-68 0 -122 39q4 28 24 46q39 -25 74.5 -31t62.5 2.5t42.5 29t15.5 47.5q2 31 -11.5 51t-34 28.5
t-43.5 6.5t-40 -13q-20 9 -23 34l88 94q17 20 34 31l-2 2q-19 -4 -78 -4h-91q-3 13 -3 27t4 25h235q10 -20 10 -32.5t-10 -22.5zM706 83h-160q-13 19 -13 36t15 43l119 250q3 1 12 1q32 0 45 -16l-93 -198q-9 -20 -17 -35t-15 -26l1 -2q10 1 23.5 1h30.5h52v75
q0 19 10.5 30.5t25.5 11.5h22l1 -2v-115h67q2 -14 2 -29.5t-4 -24.5h-65v-83q-9 -4 -28.5 -4t-30.5 4v83z" />
    <glyph glyph-name="questiondown" unicode="&#xbf;" horiz-adv-x="379" 
d="M362 -158q-89 -46 -174 -46q-82 0 -131 44q-47 44 -47 119q0 115 130 191l64 37l7 118q11 4 27 4t27 -4l4 -149l-6 -9l-45 -24q-66 -35 -99.5 -72.5t-33.5 -85.5q0 -49 30 -77q30 -29 86.5 -29t134.5 38q23 -23 26 -55zM192 410q-7 10 -7 37q0 29 7 40q9 5 20.5 7.5
t24.5 2.5t24.5 -2.5t20.5 -7.5q7 -11 7 -40q0 -27 -7 -37q-9 -5 -20.5 -7.5t-24.5 -2.5t-24.5 2.5t-20.5 7.5z" />
    <glyph glyph-name="Agrave" unicode="&#xc0;" horiz-adv-x="593" 
d="M360 180h-134l-71 1l-60 -182q-13 -3 -30.5 -3t-35.5 5l-2 3l229 679q8 1 19 2t22.5 1t22 -1t16.5 -2l230 -679q-16 -10 -37.5 -10t-30.5 7q-8 7 -16 29l-50 151zM234 243h118h7t19 -1h34l-66 199q-16 48 -28.5 88.5t-22.5 75.5h-5q-17 -62 -33 -114l-82 -249zM397 768
q-8 -29 -22 -39l-203 86q9 47 37 63z" />
    <glyph glyph-name="Aacute" unicode="&#xc1;" horiz-adv-x="593" 
d="M360 180h-134l-71 1l-60 -182q-13 -3 -30.5 -3t-35.5 5l-2 3l229 679q8 1 19 2t22.5 1t22 -1t16.5 -2l230 -679q-16 -10 -37.5 -10t-30.5 7q-8 7 -16 29l-50 151zM234 243h118h7t19 -1h34l-66 199q-16 48 -28.5 88.5t-22.5 75.5h-5q-17 -62 -33 -114l-82 -249zM400 878
q28 -16 37 -63l-203 -86q-17 12 -22 39z" />
    <glyph glyph-name="Acircumflex" unicode="&#xc2;" horiz-adv-x="593" 
d="M360 180h-134l-71 1l-60 -182q-13 -3 -30.5 -3t-35.5 5l-2 3l229 679q8 1 19 2t22.5 1t22 -1t16.5 -2l230 -679q-16 -10 -37.5 -10t-30.5 7q-8 7 -16 29l-50 151zM234 243h118h7t19 -1h34l-66 199q-16 48 -28.5 88.5t-22.5 75.5h-5q-17 -62 -33 -114l-82 -249zM297 813
l-112 -80q-25 9 -32 34l111 106q31 6 66 0l110 -102q-8 -26 -34 -33z" />
    <glyph glyph-name="Atilde" unicode="&#xc3;" horiz-adv-x="593" 
d="M360 180h-134l-71 1l-60 -182q-13 -3 -30.5 -3t-35.5 5l-2 3l229 679q8 1 19 2t22.5 1t22 -1t16.5 -2l230 -679q-16 -10 -37.5 -10t-30.5 7q-8 7 -16 29l-50 151zM234 243h118h7t19 -1h34l-66 199q-16 48 -28.5 88.5t-22.5 75.5h-5q-17 -62 -33 -114l-82 -249zM253 784
q-20 9 -37.5 9t-38.5 -25l-13 -16q-26 1 -34 22l8 20q9 23 24.5 37t35 20t40.5 3.5t41 -12.5l62 -29q18 -9 36.5 -9t39.5 25l13 16q25 -1 34 -22l-8 -19q-26 -63 -88 -63q-23 0 -53 14z" />
    <glyph glyph-name="Adieresis" unicode="&#xc4;" horiz-adv-x="593" 
d="M360 180h-134l-71 1l-60 -182q-13 -3 -30.5 -3t-35.5 5l-2 3l229 679q8 1 19 2t22.5 1t22 -1t16.5 -2l230 -679q-16 -10 -37.5 -10t-30.5 7q-8 7 -16 29l-50 151zM234 243h118h7t19 -1h34l-66 199q-16 48 -28.5 88.5t-22.5 75.5h-5q-17 -62 -33 -114l-82 -249zM355 815
q13 8 38.5 8t41.5 -8q6 -20 6 -35.5t-6 -34.5q-14 -8 -41 -8q-28 0 -39 8q-13 35 0 70zM159 815q16 8 41.5 8t38.5 -8q13 -35 0 -70q-11 -8 -39 -8q-27 0 -41 8q-11 35 0 70z" />
    <glyph glyph-name="Aring" unicode="&#xc5;" horiz-adv-x="593" 
d="M360 180h-134l-71 1l-60 -182q-13 -3 -30.5 -3t-35.5 5l-2 3l228 675q-30 12 -48 38.5t-18 63.5q0 38 31 68t76 30t77 -30q31 -30 31 -68t-18.5 -64.5t-48.5 -37.5l229 -675q-16 -10 -37.5 -10t-30.5 7q-8 7 -16 29l-50 151zM234 243h118h7t19 -1h34l-66 199
q-16 48 -28.5 88.5t-22.5 75.5h-5q-17 -62 -33 -114l-82 -249zM260 817q-14 -16 -14 -41t14 -41q15 -16 37 -16t36 16q15 16 15 41t-15 41q-14 16 -36 16t-37 -16z" />
    <glyph glyph-name="AE" unicode="&#xc6;" horiz-adv-x="870" 
d="M341 180h-90l-62 1l-94 -182q-15 -3 -34 -3t-37 5l-2 3l350 671q18 8 42 8h384q1 -11 1 -30.5t-4 -30.5h-319l1 -61v-186l59 1h211q6 -30 0 -60h-211h-33.5t-25.5 1v-222l-1 -35q17 1 32 1.5t29 0.5h276q0 -10 -0.5 -17.5t-1.5 -12.5q-6 -32 -45 -32h-318q-18 0 -29 12.5
t-11 34.5v134zM408 242v364l-1 -1h-5q-2 -5 -15 -33t-38 -81l-129 -249l48 1h74z" />
    <glyph glyph-name="Ccedilla" unicode="&#xc7;" horiz-adv-x="600" 
d="M267 -72q10 36 21 61q-80 6 -132 57q-98 95 -98 281t74 277q75 91 183 91q109 0 171 -58q64 -57 64 -129q0 -42 -39 -42q-12 0 -32 5v6q0 58 -39 108q-38 50 -124 50q-87 0 -135 -75.5t-48 -216.5t49 -217t139 -76q89 0 181 80q29 -18 39 -46q-82 -84 -198 -94
q-5 -9 -8 -16.5t-5 -13.5q38 -3 63 -26t25 -61q0 -40 -31 -65q-32 -26 -77 -26q-46 0 -74 18q1 20 18 43q19 -11 38 -13t34 3t23.5 15.5t6.5 25.5q0 16 -8 25.5t-19 14t-24 4t-23 -4.5q-12 4 -15 15z" />
    <glyph glyph-name="Egrave" unicode="&#xc8;" horiz-adv-x="562" 
d="M168 60q17 1 32 1.5t29 0.5h276q0 -10 -0.5 -17.5t-1.5 -12.5q-5 -32 -45 -32h-317q-19 0 -30 12.5t-11 34.5v630l6 6h384q2 -11 2 -29t-5 -32h-319v-15v-19.5t1 -26.5v-186l59 1h211q6 -30 0 -60h-211h-33.5t-25.5 1v-222zM399 768q-8 -29 -22 -39l-203 86q9 47 37 63z
" />
    <glyph glyph-name="Eacute" unicode="&#xc9;" horiz-adv-x="562" 
d="M168 60q17 1 32 1.5t29 0.5h276q0 -10 -0.5 -17.5t-1.5 -12.5q-5 -32 -45 -32h-317q-19 0 -30 12.5t-11 34.5v630l6 6h384q2 -11 2 -29t-5 -32h-319v-15v-19.5t1 -26.5v-186l59 1h211q6 -30 0 -60h-211h-33.5t-25.5 1v-222zM402 878q28 -16 37 -63l-203 -86
q-17 12 -22 39z" />
    <glyph glyph-name="Ecircumflex" unicode="&#xca;" horiz-adv-x="562" 
d="M168 60q17 1 32 1.5t29 0.5h276q0 -10 -0.5 -17.5t-1.5 -12.5q-5 -32 -45 -32h-317q-19 0 -30 12.5t-11 34.5v630l6 6h384q2 -11 2 -29t-5 -32h-319v-15v-19.5t1 -26.5v-186l59 1h211q6 -30 0 -60h-211h-33.5t-25.5 1v-222zM299 813l-112 -80q-25 9 -32 34l111 106
q31 6 66 0l110 -102q-8 -26 -34 -33z" />
    <glyph glyph-name="Edieresis" unicode="&#xcb;" horiz-adv-x="562" 
d="M168 60q17 1 32 1.5t29 0.5h276q0 -10 -0.5 -17.5t-1.5 -12.5q-5 -32 -45 -32h-317q-19 0 -30 12.5t-11 34.5v630l6 6h384q2 -11 2 -29t-5 -32h-319v-15v-19.5t1 -26.5v-186l59 1h211q6 -30 0 -60h-211h-33.5t-25.5 1v-222zM357 815q13 8 38.5 8t41.5 -8q6 -20 6 -35.5
t-6 -34.5q-14 -8 -41 -8q-28 0 -39 8q-13 35 0 70zM161 815q16 8 41.5 8t38.5 -8q13 -35 0 -70q-11 -8 -39 -8q-27 0 -41 8q-11 35 0 70z" />
    <glyph glyph-name="Igrave" unicode="&#xcc;" horiz-adv-x="279" 
d="M104 683q13 3 34.5 3t36.5 -3v-683q-15 -3 -36 -3t-35 3v683zM240 768q-8 -29 -22 -39l-203 86q9 47 37 63z" />
    <glyph glyph-name="Iacute" unicode="&#xcd;" horiz-adv-x="279" 
d="M104 683q13 3 34.5 3t36.5 -3v-683q-15 -3 -36 -3t-35 3v683zM243 878q28 -16 37 -63l-203 -86q-17 12 -22 39z" />
    <glyph glyph-name="Icircumflex" unicode="&#xce;" horiz-adv-x="279" 
d="M104 683q13 3 34.5 3t36.5 -3v-683q-15 -3 -36 -3t-35 3v683zM140 813l-112 -80q-25 9 -32 34l111 106q31 6 66 0l110 -102q-8 -26 -34 -33z" />
    <glyph glyph-name="Idieresis" unicode="&#xcf;" horiz-adv-x="279" 
d="M104 683q13 3 34.5 3t36.5 -3v-683q-15 -3 -36 -3t-35 3v683zM198 815q13 8 38.5 8t41.5 -8q6 -20 6 -35.5t-6 -34.5q-14 -8 -41 -8q-28 0 -39 8q-13 35 0 70zM2 815q16 8 41.5 8t38.5 -8q13 -35 0 -70q-11 -8 -39 -8q-27 0 -41 8q-11 35 0 70z" />
    <glyph glyph-name="Eth" unicode="&#xd0;" horiz-adv-x="652" 
d="M489 47q-27 -24 -77 -38q-46 -13 -82 -13q-17 0 -68.5 1t-139.5 3l-6 6v310h-83q-3 12 -3 29t3 31h83v301l6 6q87 3 200 3q21 0 44 -3.5t45.5 -10t42.5 -16t35 -21.5q60 -51 81 -122.5t21 -171.5t-21 -171.5t-81 -122.5zM187 627v-251h173q3 -14 3 -31t-3 -29h-173v-259
l134 -1q196 0 196 286q0 152 -53 222q-21 27 -57.5 44.5t-85.5 17.5z" />
    <glyph glyph-name="Ntilde" unicode="&#xd1;" horiz-adv-x="670" 
d="M569 681v-681q-18 -3 -44.5 -3t-42.5 3l-250 461q-15 28 -32 61.5t-37 75.5h-3q6 -180 6 -210v-388q-20 -3 -34 -3t-32 3v683q18 3 43.5 3t43.5 -3l249 -461q2 -5 20 -39t50 -100v-1h3q-2 60 -3.5 115.5t-1.5 107.5v335q0 25 7 35.5t29 10.5h23zM293 784q-20 9 -37.5 9
t-38.5 -25l-13 -16q-26 1 -34 22l8 20q9 23 24.5 37t35 20t40.5 3.5t41 -12.5l62 -29q18 -9 36.5 -9t39.5 25l13 16q25 -1 34 -22l-8 -19q-26 -63 -88 -63q-23 0 -53 14z" />
    <glyph glyph-name="Ograve" unicode="&#xd2;" horiz-adv-x="652" 
d="M141 444q-8 -48 -8 -102t8 -102q9 -48 29.5 -93.5t59.5 -72.5q41 -26 96 -26t95 26q40 27 60 72.5t28 93.5q9 48 9 101.5t-9 101.5q-4 24 -11 48t-17.5 45.5t-25 40t-34.5 31.5q-39 27 -95 27t-96 -27q-39 -26 -59.5 -71t-29.5 -93zM58 342q0 45 6.5 87.5t19.5 80.5
t33 70.5t47 56.5q64 58 162 58q99 0 161 -58q27 -24 47 -56.5t33 -70.5t19.5 -80.5t6.5 -87.5q0 -202 -106 -296q-62 -58 -161 -58q-98 0 -162 58q-106 94 -106 296zM426 768q-8 -29 -22 -39l-203 86q9 47 37 63z" />
    <glyph glyph-name="Oacute" unicode="&#xd3;" horiz-adv-x="652" 
d="M141 444q-8 -48 -8 -102t8 -102q9 -48 29.5 -93.5t59.5 -72.5q41 -26 96 -26t95 26q40 27 60 72.5t28 93.5q9 48 9 101.5t-9 101.5q-4 24 -11 48t-17.5 45.5t-25 40t-34.5 31.5q-39 27 -95 27t-96 -27q-39 -26 -59.5 -71t-29.5 -93zM58 342q0 45 6.5 87.5t19.5 80.5
t33 70.5t47 56.5q64 58 162 58q99 0 161 -58q27 -24 47 -56.5t33 -70.5t19.5 -80.5t6.5 -87.5q0 -202 -106 -296q-62 -58 -161 -58q-98 0 -162 58q-106 94 -106 296zM429 878q28 -16 37 -63l-203 -86q-17 12 -22 39z" />
    <glyph glyph-name="Ocircumflex" unicode="&#xd4;" horiz-adv-x="652" 
d="M141 444q-8 -48 -8 -102t8 -102q9 -48 29.5 -93.5t59.5 -72.5q41 -26 96 -26t95 26q40 27 60 72.5t28 93.5q9 48 9 101.5t-9 101.5q-4 24 -11 48t-17.5 45.5t-25 40t-34.5 31.5q-39 27 -95 27t-96 -27q-39 -26 -59.5 -71t-29.5 -93zM58 342q0 45 6.5 87.5t19.5 80.5
t33 70.5t47 56.5q64 58 162 58q99 0 161 -58q27 -24 47 -56.5t33 -70.5t19.5 -80.5t6.5 -87.5q0 -202 -106 -296q-62 -58 -161 -58q-98 0 -162 58q-106 94 -106 296zM326 813l-112 -80q-25 9 -32 34l111 106q31 6 66 0l110 -102q-8 -26 -34 -33z" />
    <glyph glyph-name="Otilde" unicode="&#xd5;" horiz-adv-x="652" 
d="M141 444q-8 -48 -8 -102t8 -102q9 -48 29.5 -93.5t59.5 -72.5q41 -26 96 -26t95 26q40 27 60 72.5t28 93.5q9 48 9 101.5t-9 101.5q-4 24 -11 48t-17.5 45.5t-25 40t-34.5 31.5q-39 27 -95 27t-96 -27q-39 -26 -59.5 -71t-29.5 -93zM58 342q0 45 6.5 87.5t19.5 80.5
t33 70.5t47 56.5q64 58 162 58q99 0 161 -58q27 -24 47 -56.5t33 -70.5t19.5 -80.5t6.5 -87.5q0 -202 -106 -296q-62 -58 -161 -58q-98 0 -162 58q-106 94 -106 296zM285 789q-18 9 -35.5 9t-36.5 -26l-13 -16q-26 2 -34 23l8 20q28 61 86 61q23 0 50 -13l60 -30
q16 -9 34 -9t39 26l12 16q24 -1 35 -22l-9 -20q-27 -62 -85 -62q-24 0 -51 13z" />
    <glyph glyph-name="Odieresis" unicode="&#xd6;" horiz-adv-x="652" 
d="M141 444q-8 -48 -8 -102t8 -102q9 -48 29.5 -93.5t59.5 -72.5q41 -26 96 -26t95 26q40 27 60 72.5t28 93.5q9 48 9 101.5t-9 101.5q-4 24 -11 48t-17.5 45.5t-25 40t-34.5 31.5q-39 27 -95 27t-96 -27q-39 -26 -59.5 -71t-29.5 -93zM58 342q0 45 6.5 87.5t19.5 80.5
t33 70.5t47 56.5q64 58 162 58q99 0 161 -58q27 -24 47 -56.5t33 -70.5t19.5 -80.5t6.5 -87.5q0 -202 -106 -296q-62 -58 -161 -58q-98 0 -162 58q-106 94 -106 296zM384 815q13 8 38.5 8t41.5 -8q6 -20 6 -35.5t-6 -34.5q-14 -8 -41 -8q-28 0 -39 8q-13 35 0 70zM188 815
q16 8 41.5 8t38.5 -8q13 -35 0 -70q-11 -8 -39 -8q-27 0 -41 8q-11 35 0 70z" />
    <glyph glyph-name="multiply" unicode="&#xd7;" horiz-adv-x="530" 
d="M129 106q-15 6 -28.5 19.5t-19.5 28.5l139 136q-8 8 -14 13t-9 9l-116 114q17 38 48 47l114 -115q2 -3 8 -9l14 -14l136 138q33 -11 48 -47l-139 -136l14 -14t9 -8l116 -114q-15 -35 -48 -48l-136 138z" />
    <glyph glyph-name="Oslash" unicode="&#xd8;" horiz-adv-x="652" 
d="M58 342q0 45 6.5 87.5t19.5 80.5t33 70.5t47 56.5q64 58 152 58t143 -37l37 64q33 -5 51 -27l-42 -76q88 -95 88 -287t-106 -286q-64 -58 -154 -58q-89 0 -141 36l-36 -63q-13 1 -28.5 9t-23.5 18l42 75q-88 97 -88 279zM429 602q-42 33 -101 33q-58 0 -98 -27
q-39 -25 -60 -71q-37 -81 -37 -207t48 -202zM518 342q0 133 -48 213l-247 -475q43 -32 95 -32t87 18q35 19 56 47.5t34 68.5q23 72 23 160z" />
    <glyph glyph-name="Ugrave" unicode="&#xd9;" horiz-adv-x="666" 
d="M573 232q0 -60 -17.5 -105.5t-49 -76t-76 -46.5t-98.5 -16t-98.5 16t-76 47t-48.5 76.5t-17 104.5v448l6 6h29q22 0 29 -10.5t7 -35.5v-407q0 -91 44.5 -138.5t125.5 -47.5t125.5 47.5t44.5 138.5v450q14 3 35.5 3t34.5 -3v-451zM433 768q-8 -29 -22 -39l-203 86
q9 47 37 63z" />
    <glyph glyph-name="Uacute" unicode="&#xda;" horiz-adv-x="666" 
d="M573 232q0 -60 -17.5 -105.5t-49 -76t-76 -46.5t-98.5 -16t-98.5 16t-76 47t-48.5 76.5t-17 104.5v448l6 6h29q22 0 29 -10.5t7 -35.5v-407q0 -91 44.5 -138.5t125.5 -47.5t125.5 47.5t44.5 138.5v450q14 3 35.5 3t34.5 -3v-451zM436 878q28 -16 37 -63l-203 -86
q-17 12 -22 39z" />
    <glyph glyph-name="Ucircumflex" unicode="&#xdb;" horiz-adv-x="666" 
d="M573 232q0 -60 -17.5 -105.5t-49 -76t-76 -46.5t-98.5 -16t-98.5 16t-76 47t-48.5 76.5t-17 104.5v448l6 6h29q22 0 29 -10.5t7 -35.5v-407q0 -91 44.5 -138.5t125.5 -47.5t125.5 47.5t44.5 138.5v450q14 3 35.5 3t34.5 -3v-451zM333 813l-112 -80q-25 9 -32 34l111 106
q31 6 66 0l110 -102q-8 -26 -34 -33z" />
    <glyph glyph-name="Udieresis" unicode="&#xdc;" horiz-adv-x="666" 
d="M573 232q0 -60 -17.5 -105.5t-49 -76t-76 -46.5t-98.5 -16t-98.5 16t-76 47t-48.5 76.5t-17 104.5v448l6 6h29q22 0 29 -10.5t7 -35.5v-407q0 -91 44.5 -138.5t125.5 -47.5t125.5 47.5t44.5 138.5v450q14 3 35.5 3t34.5 -3v-451zM391 815q13 8 38.5 8t41.5 -8
q6 -20 6 -35.5t-6 -34.5q-14 -8 -41 -8q-28 0 -39 8q-13 35 0 70zM195 815q16 8 41.5 8t38.5 -8q13 -35 0 -70q-11 -8 -39 -8q-27 0 -41 8q-11 35 0 70z" />
    <glyph glyph-name="Yacute" unicode="&#xdd;" horiz-adv-x="477" 
d="M246 302q4 14 14 42t27 70l107 269q13 4 30.5 4t35.5 -5l3 -6l-188 -453v-223q-15 -3 -36 -3t-35 3v226l-188 449q26 15 49 15t37 -35l100 -241q9 -20 19 -48.5t21 -63.5h4zM346 878q28 -16 37 -63l-203 -86q-17 12 -22 39z" />
    <glyph glyph-name="Thorn" unicode="&#xde;" horiz-adv-x="557" 
d="M100 683q13 3 34.5 3t36.5 -3v-108q117 3 122 3q49 0 89.5 -14t69 -41t44 -67t15.5 -91q0 -102 -59.5 -158t-158.5 -56h-122v-151q-15 -3 -36 -3t-35 3v683zM171 210q21 1 52 1h73q81 0 112 52q28 46 28 105t-32 105q-32 45 -111 45h-70t-52 1v-309z" />
    <glyph glyph-name="germandbls" unicode="&#xdf;" horiz-adv-x="607" 
d="M111 411l-86 -1q-6 29 0 60l86 -2v43q0 44 15 78.5t42 58.5t64.5 37t82.5 13q46 0 83 -13.5t63.5 -39t40.5 -61t14 -79.5q0 -33 -14 -78h-2l2 -1q-48 -12 -71 -35.5t-23 -50.5q0 -26 47 -67l37 -30q76 -61 76 -121q0 -59 -47 -97q-46 -37 -119 -37q-71 0 -127 29
q1 31 28 51q45 -24 91 -24t73 20q13 10 20.5 24.5t6.5 31.5t-12 35.5t-35 38.5l-40 34q-69 57 -69 110q0 38 28 70t76 49q6 21 6 42q0 64 -34 105t-101 41t-100 -37.5t-33 -104.5v-503q-15 -3 -34.5 -3t-34.5 3v411z" />
    <glyph glyph-name="agrave" unicode="&#xe0;" 
d="M445 28q-10 -25 -32 -35q-47 19 -58 72q-77 -77 -159 -77q-69 0 -106 43q-38 44 -38 102q0 81 49.5 120.5t137.5 39.5q29 0 57.5 -2.5t55.5 -7.5v53q0 105 -93 105q-71 0 -164 -42q-10 8 -17.5 24t-7.5 30q106 47 194 47q153 0 153 -166v-206q0 -73 28 -100zM352 232
q-28 4 -56 6t-56 2q-56 0 -87 -27t-31 -71q0 -45 21 -70q16 -19 42.5 -23.5t55.5 4t58.5 29t52.5 51.5v99zM311 565q-12 -23 -32 -29l-162 129q8 17 24 32t35 21z" />
    <glyph glyph-name="aacute" unicode="&#xe1;" 
d="M445 28q-10 -25 -32 -35q-47 19 -58 72q-77 -77 -159 -77q-69 0 -106 43q-38 44 -38 102q0 81 49.5 120.5t137.5 39.5q29 0 57.5 -2.5t55.5 -7.5v53q0 105 -93 105q-71 0 -164 -42q-10 8 -17.5 24t-7.5 30q106 47 194 47q153 0 153 -166v-206q0 -73 28 -100zM352 232
q-28 4 -56 6t-56 2q-56 0 -87 -27t-31 -71q0 -45 21 -70q16 -19 42.5 -23.5t55.5 4t58.5 29t52.5 51.5v99zM314 718q19 -6 35 -21t24 -32l-162 -129q-23 6 -32 29z" />
    <glyph glyph-name="acircumflex" unicode="&#xe2;" 
d="M445 28q-10 -25 -32 -35q-47 19 -58 72q-77 -77 -159 -77q-69 0 -106 43q-38 44 -38 102q0 81 49.5 120.5t137.5 39.5q29 0 57.5 -2.5t55.5 -7.5v53q0 105 -93 105q-71 0 -164 -42q-10 8 -17.5 24t-7.5 30q106 47 194 47q153 0 153 -166v-206q0 -73 28 -100zM352 232
q-28 4 -56 6t-56 2q-56 0 -87 -27t-31 -71q0 -45 21 -70q16 -19 42.5 -23.5t55.5 4t58.5 29t52.5 51.5v99zM241 637l-102 -99q-23 11 -34 32l107 132q24 7 60 1l102 -127q-14 -26 -38 -33z" />
    <glyph glyph-name="atilde" unicode="&#xe3;" 
d="M445 28q-10 -25 -32 -35q-47 19 -58 72q-77 -77 -159 -77q-69 0 -106 43q-38 44 -38 102q0 81 49.5 120.5t137.5 39.5q29 0 57.5 -2.5t55.5 -7.5v53q0 105 -93 105q-71 0 -164 -42q-10 8 -17.5 24t-7.5 30q106 47 194 47q153 0 153 -166v-206q0 -73 28 -100zM352 232
q-28 4 -56 6t-56 2q-56 0 -87 -27t-31 -71q0 -45 21 -70q16 -19 42.5 -23.5t55.5 4t58.5 29t52.5 51.5v99zM197 601q-20 9 -38 9t-38 -26l-13 -16q-28 1 -36 23l9 20q21 46 61 57.5t81 -8.5l62 -30q18 -9 36.5 -9t39.5 26l13 16q25 -1 36 -22l-9 -20q-28 -64 -89 -64
q-23 0 -53 14z" />
    <glyph glyph-name="adieresis" unicode="&#xe4;" 
d="M445 28q-10 -25 -32 -35q-47 19 -58 72q-77 -77 -159 -77q-69 0 -106 43q-38 44 -38 102q0 81 49.5 120.5t137.5 39.5q29 0 57.5 -2.5t55.5 -7.5v53q0 105 -93 105q-71 0 -164 -42q-10 8 -17.5 24t-7.5 30q106 47 194 47q153 0 153 -166v-206q0 -73 28 -100zM352 232
q-28 4 -56 6t-56 2q-56 0 -87 -27t-31 -71q0 -45 21 -70q16 -19 42.5 -23.5t55.5 4t58.5 29t52.5 51.5v99zM291 572q-7 16 -7 33.5t7 31.5q7 4 17.5 6.5t21 2.5t20.5 -2.5t16 -6.5q7 -14 7 -32.5t-7 -32.5q-11 -9 -37 -9q-25 0 -38 9zM116 572q-7 16 -7 33.5t7 31.5
q6 4 16 6.5t20.5 2.5t21 -2.5t17.5 -6.5q7 -14 7 -32.5t-7 -32.5q-14 -9 -39 -9q-26 0 -36 9z" />
    <glyph glyph-name="aring" unicode="&#xe5;" 
d="M445 28q-10 -25 -32 -35q-47 19 -58 72q-77 -77 -159 -77q-69 0 -106 43q-38 44 -38 102q0 81 49.5 120.5t137.5 39.5q29 0 57.5 -2.5t55.5 -7.5v53q0 105 -93 105q-71 0 -164 -42q-10 8 -17.5 24t-7.5 30q106 47 194 47q153 0 153 -166v-206q0 -73 28 -100zM352 232
q-28 4 -56 6t-56 2q-56 0 -87 -27t-31 -71q0 -45 21 -70q16 -19 42.5 -23.5t55.5 4t58.5 29t52.5 51.5v99zM164 566q-15 15 -22.5 34t-7.5 39t7.5 39t22.5 34q31 31 77 31t76 -31q15 -15 23 -34t8 -39t-8 -39t-23 -34q-30 -30 -76 -30t-77 30zM204 680q-14 -16 -14 -41
t14 -41q15 -16 37 -16t36 16q15 16 15 41t-15 41q-14 17 -36 17t-37 -17z" />
    <glyph glyph-name="ae" unicode="&#xe6;" horiz-adv-x="799" 
d="M421 224q4 -175 132 -175q69 0 146 44q21 -19 26 -49q-82 -56 -181 -56q-114 0 -161 95q-33 -40 -82 -67.5t-112 -27.5t-100 43t-37 103q0 81 49.5 120t137.5 39q28 0 56 -3t57 -8v54q0 105 -93 105q-71 0 -164 -42q-10 8 -17.5 24t-7.5 30q106 47 199 47q95 0 131 -76
q54 78 146 78q94 0 143 -61q50 -61 50 -153q0 -16 -1 -32t-3 -32h-314zM363 139q-9 33 -12 90q-29 5 -56.5 8t-55.5 3q-55 0 -86 -27q-31 -25 -31 -70t21 -70q16 -19 44 -24t59 3.5t62 30.5t55 56zM668 278v12q0 70 -29 114.5t-89 44.5t-92.5 -46t-36.5 -125h247z" />
    <glyph glyph-name="ccedilla" unicode="&#xe7;" horiz-adv-x="469" 
d="M200 -72q9 33 21 62q-59 7 -97 46q-71 71 -71 201q0 131 58 198t142 67q45 0 80.5 -15t54.5 -37q37 -46 37 -90q0 -43 -37 -43q-13 0 -29 3v21t-8 39q-7 25 -32.5 46t-67.5 21q-57 0 -91.5 -54t-34.5 -151q0 -96 34 -145t92.5 -49.5t133.5 56.5q28 -18 34 -44
q-64 -59 -143 -70q-4 -7 -7.5 -14.5t-5.5 -15.5q38 -3 63 -26t25 -61q0 -40 -31 -65q-32 -26 -77 -26q-46 0 -74 18q1 20 18 43q19 -11 38 -13t34 3t23.5 15.5t6.5 25.5q0 16 -8 25.5t-19 14t-24 4t-23 -4.5q-12 4 -15 15z" />
    <glyph glyph-name="egrave" unicode="&#xe8;" 
d="M126 224q4 -175 132 -175q70 0 146 43q21 -18 26 -48q-80 -56 -181 -56q-72 0 -116.5 37t-62.5 92q-17 57 -17 129q0 113 53 184q54 72 146 72q93 0 142 -61q50 -61 50 -153q0 -16 -1 -32t-3 -32h-314zM374 278v14q0 69 -30 113t-90 44t-92.5 -46.5t-35.5 -124.5h248z
M325 565q-12 -23 -32 -29l-162 129q8 17 24 32t35 21z" />
    <glyph glyph-name="eacute" unicode="&#xe9;" 
d="M126 224q4 -175 132 -175q70 0 146 43q21 -18 26 -48q-80 -56 -181 -56q-72 0 -116.5 37t-62.5 92q-17 57 -17 129q0 113 53 184q54 72 146 72q93 0 142 -61q50 -61 50 -153q0 -16 -1 -32t-3 -32h-314zM374 278v14q0 69 -30 113t-90 44t-92.5 -46.5t-35.5 -124.5h248z
M328 718q19 -6 35 -21t24 -32l-162 -129q-23 6 -32 29z" />
    <glyph glyph-name="ecircumflex" unicode="&#xea;" 
d="M126 224q4 -175 132 -175q70 0 146 43q21 -18 26 -48q-80 -56 -181 -56q-72 0 -116.5 37t-62.5 92q-17 57 -17 129q0 113 53 184q54 72 146 72q93 0 142 -61q50 -61 50 -153q0 -16 -1 -32t-3 -32h-314zM374 278v14q0 69 -30 113t-90 44t-92.5 -46.5t-35.5 -124.5h248z
M255 637l-102 -99q-23 11 -34 32l107 132q24 7 60 1l102 -127q-14 -26 -38 -33z" />
    <glyph glyph-name="edieresis" unicode="&#xeb;" 
d="M126 224q4 -175 132 -175q70 0 146 43q21 -18 26 -48q-80 -56 -181 -56q-72 0 -116.5 37t-62.5 92q-17 57 -17 129q0 113 53 184q54 72 146 72q93 0 142 -61q50 -61 50 -153q0 -16 -1 -32t-3 -32h-314zM374 278v14q0 69 -30 113t-90 44t-92.5 -46.5t-35.5 -124.5h248z
M305 572q-7 16 -7 33.5t7 31.5q7 4 17.5 6.5t21 2.5t20.5 -2.5t16 -6.5q7 -14 7 -32.5t-7 -32.5q-11 -9 -37 -9q-25 0 -38 9zM130 572q-7 16 -7 33.5t7 31.5q6 4 16 6.5t20.5 2.5t21 -2.5t17.5 -6.5q7 -14 7 -32.5t-7 -32.5q-14 -9 -39 -9q-26 0 -36 9z" />
    <glyph glyph-name="igrave" unicode="&#xec;" horiz-adv-x="253" 
d="M165 0q-13 -3 -34 -3t-34 3v390q0 28 -9 38t-32 10h-9q-6 23 0 51q14 2 26 3t22 1h8q29 0 45.5 -18t16.5 -50v-425zM184 565q-12 -23 -32 -29l-162 129q8 17 24 32t35 21z" />
    <glyph glyph-name="iacute" unicode="&#xed;" horiz-adv-x="253" 
d="M165 0q-13 -3 -34 -3t-34 3v390q0 28 -9 38t-32 10h-9q-6 23 0 51q14 2 26 3t22 1h8q29 0 45.5 -18t16.5 -50v-425zM187 718q19 -6 35 -21t24 -32l-162 -129q-23 6 -32 29z" />
    <glyph glyph-name="icircumflex" unicode="&#xee;" horiz-adv-x="253" 
d="M165 0q-13 -3 -34 -3t-34 3v390q0 28 -9 38t-32 10h-9q-6 23 0 51q14 2 26 3t22 1h8q29 0 45.5 -18t16.5 -50v-425zM114 637l-102 -99q-23 11 -34 32l107 132q24 7 60 1l102 -127q-14 -26 -38 -33z" />
    <glyph glyph-name="idieresis" unicode="&#xef;" horiz-adv-x="253" 
d="M165 0q-13 -3 -34 -3t-34 3v390q0 28 -9 38t-32 10h-9q-6 23 0 51q14 2 26 3t22 1h8q29 0 45.5 -18t16.5 -50v-425zM164 572q-7 16 -7 33.5t7 31.5q7 4 17.5 6.5t21 2.5t20.5 -2.5t16 -6.5q7 -14 7 -32.5t-7 -32.5q-11 -9 -37 -9q-25 0 -38 9zM-11 572q-7 16 -7 33.5
t7 31.5q6 4 16 6.5t20.5 2.5t21 -2.5t17.5 -6.5q7 -14 7 -32.5t-7 -32.5q-14 -9 -39 -9q-26 0 -36 9z" />
    <glyph glyph-name="eth" unicode="&#xf0;" horiz-adv-x="516" 
d="M226 639q-23 19 -46 33.5t-47 25.5q8 35 28 46q64 -28 115 -70l89 61q9 -6 19 -19.5t11 -23.5l-79 -54q148 -152 148 -396q0 -131 -70 -201q-53 -53 -137 -53q-83 0 -136 53q-70 70 -70 196q0 127 70 197q53 53 136 53q49 0 96 -25q-24 73 -88 140l-106 -73
q-9 6 -18.5 19.5t-10.5 23.5zM374 393q-51 39 -120 39t-100 -54q-32 -55 -32 -138t32 -141q33 -57 104 -57q48 0 79.5 30.5t43.5 73.5t12 109t-19 138z" />
    <glyph glyph-name="ntilde" unicode="&#xf1;" horiz-adv-x="545" 
d="M461 92q0 -60 10 -83q-15 -15 -43 -15q-35 0 -35 45v282q0 63 -16 89.5t-58 26.5q-21 0 -43.5 -6t-43.5 -16.5t-40 -25t-34 -32.5v-357q-14 -3 -34 -3t-34 3v487l6 6h26q22 0 29 -11t7 -36v-20q33 33 80 53t95 20q67 0 97.5 -43t30.5 -112v-252zM233 601q-20 9 -38 9
t-38 -26l-13 -16q-28 1 -36 23l9 20q21 46 61 57.5t81 -8.5l62 -30q18 -9 36.5 -9t39.5 26l13 16q25 -1 36 -22l-9 -20q-28 -64 -89 -64q-23 0 -53 14z" />
    <glyph glyph-name="ograve" unicode="&#xf2;" horiz-adv-x="519" 
d="M396 41q-53 -53 -137 -53q-83 0 -136 53q-70 70 -70 204t70 204q53 53 136 53q84 0 137 -53q70 -70 70 -204t-70 -204zM260 42q49 0 80 31q55 55 55 172q0 85 -33 144q-32 60 -103 60q-70 0 -103 -60q-32 -59 -32 -145q0 -85 32 -144q33 -58 104 -58zM329 565
q-12 -23 -32 -29l-162 129q8 17 24 32t35 21z" />
    <glyph glyph-name="oacute" unicode="&#xf3;" horiz-adv-x="519" 
d="M396 41q-53 -53 -137 -53q-83 0 -136 53q-70 70 -70 204t70 204q53 53 136 53q84 0 137 -53q70 -70 70 -204t-70 -204zM260 42q49 0 80 31q55 55 55 172q0 85 -33 144q-32 60 -103 60q-70 0 -103 -60q-32 -59 -32 -145q0 -85 32 -144q33 -58 104 -58zM332 718
q19 -6 35 -21t24 -32l-162 -129q-23 6 -32 29z" />
    <glyph glyph-name="ocircumflex" unicode="&#xf4;" horiz-adv-x="519" 
d="M396 41q-53 -53 -137 -53q-83 0 -136 53q-70 70 -70 204t70 204q53 53 136 53q84 0 137 -53q70 -70 70 -204t-70 -204zM260 42q49 0 80 31q55 55 55 172q0 85 -33 144q-32 60 -103 60q-70 0 -103 -60q-32 -59 -32 -145q0 -85 32 -144q33 -58 104 -58zM259 637l-102 -99
q-23 11 -34 32l107 132q24 7 60 1l102 -127q-14 -26 -38 -33z" />
    <glyph glyph-name="otilde" unicode="&#xf5;" horiz-adv-x="519" 
d="M396 41q-53 -53 -137 -53q-83 0 -136 53q-70 70 -70 204t70 204q53 53 136 53q84 0 137 -53q70 -70 70 -204t-70 -204zM260 42q49 0 80 31q55 55 55 172q0 85 -33 144q-32 60 -103 60q-70 0 -103 -60q-32 -59 -32 -145q0 -85 32 -144q33 -58 104 -58zM215 601
q-20 9 -38 9t-38 -26l-13 -16q-28 1 -36 23l9 20q21 46 61 57.5t81 -8.5l62 -30q18 -9 36.5 -9t39.5 26l13 16q25 -1 36 -22l-9 -20q-28 -64 -89 -64q-23 0 -53 14z" />
    <glyph glyph-name="odieresis" unicode="&#xf6;" horiz-adv-x="519" 
d="M396 41q-53 -53 -137 -53q-83 0 -136 53q-70 70 -70 204t70 204q53 53 136 53q84 0 137 -53q70 -70 70 -204t-70 -204zM260 42q49 0 80 31q55 55 55 172q0 85 -33 144q-32 60 -103 60q-70 0 -103 -60q-32 -59 -32 -145q0 -85 32 -144q33 -58 104 -58zM309 572
q-7 16 -7 33.5t7 31.5q7 4 17.5 6.5t21 2.5t20.5 -2.5t16 -6.5q7 -14 7 -32.5t-7 -32.5q-11 -9 -37 -9q-25 0 -38 9zM134 572q-7 16 -7 33.5t7 31.5q6 4 16 6.5t20.5 2.5t21 -2.5t17.5 -6.5q7 -14 7 -32.5t-7 -32.5q-14 -9 -39 -9q-26 0 -36 9z" />
    <glyph glyph-name="divide" unicode="&#xf7;" horiz-adv-x="530" 
d="M222 503q13 9 44 9q30 0 42 -9q7 -14 7 -36t-7 -36q-11 -10 -42 -10q-30 0 -44 10q-7 14 -7 36t7 36zM222 147q14 10 44 10q29 0 42 -10q7 -14 7 -36t-7 -36q-11 -10 -42 -10q-30 0 -44 10q-7 14 -7 36t7 36zM59 258q-3 14 -3 33t3 32h412q3 -13 3 -32t-3 -33h-412z" />
    <glyph glyph-name="oslash" unicode="&#xf8;" horiz-adv-x="519" 
d="M397 447q69 -71 69 -203q0 -133 -70 -203q-53 -53 -137 -53q-53 0 -96 22l-36 -63q-12 1 -27 9t-21 18l40 70q-66 70 -66 202q0 133 70 203q53 53 136 53q52 0 93 -21l37 63q12 -1 27 -9t21 -18zM191 60q29 -19 69 -19q71 0 104 59q34 59 34 146t-33 143zM121 245
q0 -86 31 -141l173 328q-29 18 -72 18t-75 -32q-57 -54 -57 -173z" />
    <glyph glyph-name="ugrave" unicode="&#xf9;" horiz-adv-x="546" 
d="M84 397q0 61 -10 84q15 15 43 15q35 0 35 -45v-282q0 -63 15.5 -89.5t57.5 -26.5t87 22.5t75 56.5v358q13 3 34 3t33 -3v-352q0 -82 28 -110q-10 -25 -32 -35q-49 19 -59 74q-34 -34 -82.5 -55t-96.5 -21q-67 0 -97.5 43t-30.5 112v251zM339 565q-12 -23 -32 -29
l-162 129q8 17 24 32t35 21z" />
    <glyph glyph-name="uacute" unicode="&#xfa;" horiz-adv-x="546" 
d="M84 397q0 61 -10 84q15 15 43 15q35 0 35 -45v-282q0 -63 15.5 -89.5t57.5 -26.5t87 22.5t75 56.5v358q13 3 34 3t33 -3v-352q0 -82 28 -110q-10 -25 -32 -35q-49 19 -59 74q-34 -34 -82.5 -55t-96.5 -21q-67 0 -97.5 43t-30.5 112v251zM342 718q19 -6 35 -21t24 -32
l-162 -129q-23 6 -32 29z" />
    <glyph glyph-name="ucircumflex" unicode="&#xfb;" horiz-adv-x="546" 
d="M84 397q0 61 -10 84q15 15 43 15q35 0 35 -45v-282q0 -63 15.5 -89.5t57.5 -26.5t87 22.5t75 56.5v358q13 3 34 3t33 -3v-352q0 -82 28 -110q-10 -25 -32 -35q-49 19 -59 74q-34 -34 -82.5 -55t-96.5 -21q-67 0 -97.5 43t-30.5 112v251zM269 637l-102 -99q-23 11 -34 32
l107 132q24 7 60 1l102 -127q-14 -26 -38 -33z" />
    <glyph glyph-name="udieresis" unicode="&#xfc;" horiz-adv-x="546" 
d="M84 397q0 61 -10 84q15 15 43 15q35 0 35 -45v-282q0 -63 15.5 -89.5t57.5 -26.5t87 22.5t75 56.5v358q13 3 34 3t33 -3v-352q0 -82 28 -110q-10 -25 -32 -35q-49 19 -59 74q-34 -34 -82.5 -55t-96.5 -21q-67 0 -97.5 43t-30.5 112v251zM319 572q-7 16 -7 33.5t7 31.5
q7 4 17.5 6.5t21 2.5t20.5 -2.5t16 -6.5q7 -14 7 -32.5t-7 -32.5q-11 -9 -37 -9q-25 0 -38 9zM144 572q-7 16 -7 33.5t7 31.5q6 4 16 6.5t20.5 2.5t21 -2.5t17.5 -6.5q7 -14 7 -32.5t-7 -32.5q-14 -9 -39 -9q-26 0 -36 9z" />
    <glyph glyph-name="yacute" unicode="&#xfd;" horiz-adv-x="448" 
d="M294 17q-37 -129 -81 -182t-127 -53q-42 0 -78 13v5q0 25 16 44q24 -10 63 -10q27 0 47 9t35.5 27.5t28 47.5t24.5 68l3 10q-25 2 -37.5 11.5t-21.5 36.5l-142 441q27 12 40 12q26 0 37 -33l81 -255q14 -47 26 -86t22 -71q1 -7 10 -7l124 446q15 3 33 3t33 -5l2 -3z
M297 718q19 -6 35 -21t24 -32l-162 -129q-23 6 -32 29z" />
    <glyph glyph-name="thorn" unicode="&#xfe;" horiz-adv-x="524" 
d="M156 -168q0 -25 -7 -36t-29 -11h-24l-6 6v938l6 6h24q22 0 29 -11t7 -36v-260q61 70 145 70q83 0 127 -68t44 -187q0 -120 -57 -186q-56 -65 -126 -65q-69 0 -133 43v-203zM292 438q-36 0 -74 -22.5t-62 -60.5v-257q48 -34 92.5 -42.5t79 9.5t55 63.5t20.5 119.5
q0 97 -31.5 143.5t-79.5 46.5z" />
    <glyph glyph-name="ydieresis" unicode="&#xff;" horiz-adv-x="448" 
d="M294 17q-37 -129 -81 -182t-127 -53q-42 0 -78 13v5q0 25 16 44q24 -10 63 -10q27 0 47 9t35.5 27.5t28 47.5t24.5 68l3 10q-25 2 -37.5 11.5t-21.5 36.5l-142 441q27 12 40 12q26 0 37 -33l81 -255q14 -47 26 -86t22 -71q1 -7 10 -7l124 446q15 3 33 3t33 -5l2 -3z
M274 572q-7 16 -7 33.5t7 31.5q7 4 17.5 6.5t21 2.5t20.5 -2.5t16 -6.5q7 -14 7 -32.5t-7 -32.5q-11 -9 -37 -9q-25 0 -38 9zM99 572q-7 16 -7 33.5t7 31.5q6 4 16 6.5t20.5 2.5t21 -2.5t17.5 -6.5q7 -14 7 -32.5t-7 -32.5q-14 -9 -39 -9q-26 0 -36 9z" />
    <glyph glyph-name="Abreve" unicode="&#x102;" horiz-adv-x="593" 
d="M360 180h-134l-71 1l-60 -182q-13 -3 -30.5 -3t-35.5 5l-2 3l229 679q8 1 19 2t22.5 1t22 -1t16.5 -2l230 -679q-16 -10 -37.5 -10t-30.5 7q-8 7 -16 29l-50 151zM234 243h118h7t19 -1h34l-66 199q-16 48 -28.5 88.5t-22.5 75.5h-5q-17 -62 -33 -114l-82 -249zM153 868
q-3 5 9.5 10t25.5 9q4 2 10.5 -6.5t16 -20.5t21 -24t24.5 -16q24 -8 45 -7t35 5q16 4 29 16.5t23 24.5t16.5 20.5t11.5 5.5q13 -5 20.5 -8t11.5 -15q-1 -17 -11.5 -33t-25 -28.5t-28.5 -21.5t-23 -12q-8 -3 -21.5 -6t-30.5 -3.5t-35 1.5t-33 8q-17 7 -32.5 19t-27.5 25.5
t-20 28.5t-11 28z" />
    <glyph glyph-name="abreve" unicode="&#x103;" 
d="M445 28q-10 -25 -32 -35q-47 19 -58 72q-77 -77 -159 -77q-69 0 -106 43q-38 44 -38 102q0 81 49.5 120.5t137.5 39.5q29 0 57.5 -2.5t55.5 -7.5v53q0 105 -93 105q-71 0 -164 -42q-10 8 -17.5 24t-7.5 30q106 47 194 47q153 0 153 -166v-206q0 -73 28 -100zM352 232
q-28 4 -56 6t-56 2q-56 0 -87 -27t-31 -71q0 -45 21 -70q16 -19 42.5 -23.5t55.5 4t58.5 29t52.5 51.5v99zM108 672q-3 5 9.5 10t25.5 9q4 2 10.5 -6.5t16 -20.5t21 -24t24.5 -16q24 -8 45 -7t35 5q16 4 29 16.5t23 24.5t16.5 20.5t11.5 5.5q13 -5 20.5 -8t11.5 -15
q-1 -17 -11.5 -33t-25 -28.5t-28.5 -21.5t-23 -12q-8 -3 -21.5 -6t-30.5 -3.5t-35 1.5t-33 8q-17 7 -32.5 19t-27.5 25.5t-20 28.5t-11 28z" />
    <glyph glyph-name="Aogonek" unicode="&#x104;" horiz-adv-x="593" 
d="M155 181l-60 -182q-13 -3 -30.5 -3t-35.5 5l-2 3l229 679q8 1 19 2t22.5 1t22 -1t16.5 -2l229 -678l1 -1q-1 -1 -2 -1q-88 -60 -88 -117q0 -18 9 -30.5t24.5 -18t37 -2.5t46.5 17q18 -14 18 -37q-40 -32 -90 -32q-51 0 -79 24t-28 66q0 73 79 133q-8 12 -11 24l-50 151
l-72 -1h-134zM234 243h118h7t19 -1h34l-66 199q-16 48 -28.5 88.5t-22.5 75.5h-5q-17 -62 -33 -114l-82 -249z" />
    <glyph glyph-name="aogonek" unicode="&#x105;" horiz-adv-x="534" 
d="M458 -148q17 -14 17 -37q-40 -32 -90 -32q-51 0 -79 24t-28 66q0 79 99 148q-14 15 -21 45q-78 -78 -160 -78q-69 0 -106 43q-38 44 -38 102q0 81 49.5 120.5t137.5 39.5q29 0 57.5 -2.5t55.5 -7.5v53q0 105 -93 105q-71 0 -164 -42q-10 8 -17.5 24t-7.5 30
q106 47 194 47q153 0 153 -166v-206q0 -67 33 -97q-7 -17 -36 -40q-74 -56 -74 -105q0 -36 32.5 -49t85.5 15zM352 232q-28 4 -56 6t-56 2q-56 0 -87 -27t-31 -71q0 -45 21 -70q16 -19 42.5 -23.5t55.5 4t58.5 29t52.5 51.5v99z" />
    <glyph glyph-name="Cacute" unicode="&#x106;" horiz-adv-x="600" 
d="M479 477q0 58 -39 108q-38 50 -124 50q-87 0 -135 -75.5t-48 -216.5t49 -217t139 -76q89 0 181 80q29 -18 39 -46q-42 -43 -103 -69.5t-139 -26.5q-77 0 -135 51q-106 93 -106 299q0 175 74 266q75 91 183 91q109 0 171 -58q64 -57 64 -129q0 -42 -39 -42q-12 0 -32 5v6z
M421 879q28 -16 37 -63l-203 -86q-17 12 -22 39z" />
    <glyph glyph-name="cacute" unicode="&#x107;" horiz-adv-x="469" 
d="M359 320v21t-8 39q-7 25 -32.5 46t-67.5 21q-57 0 -91.5 -54t-34.5 -151q0 -96 34 -145t92.5 -49.5t133.5 56.5q28 -18 34 -44q-77 -72 -174 -72t-145 74q-47 74 -47 190t58 183t142 67q45 0 80.5 -15t54.5 -37q37 -46 37 -90q0 -43 -37 -43q-13 0 -29 3zM324 718
q19 -6 35 -21t24 -32l-162 -129q-23 6 -32 29z" />
    <glyph glyph-name="Ccaron" unicode="&#x10c;" horiz-adv-x="600" 
d="M479 477q0 58 -39 108q-38 50 -124 50q-87 0 -135 -75.5t-48 -216.5t49 -217t139 -76q89 0 181 80q29 -18 39 -46q-42 -43 -103 -69.5t-139 -26.5q-77 0 -135 51q-106 93 -106 299q0 175 74 266q75 91 183 91q109 0 171 -58q64 -57 64 -129q0 -42 -39 -42q-12 0 -32 5v6z
M318 800l112 80q24 -9 32 -33l-110 -107q-41 -5 -66 0l-111 103q9 25 34 32z" />
    <glyph glyph-name="ccaron" unicode="&#x10d;" horiz-adv-x="469" 
d="M359 320v21t-8 39q-7 25 -32.5 46t-67.5 21q-57 0 -91.5 -54t-34.5 -151q0 -96 34 -145t92.5 -49.5t133.5 56.5q28 -18 34 -44q-77 -72 -174 -72t-145 74q-47 74 -47 190t58 183t142 67q45 0 80.5 -15t54.5 -37q37 -46 37 -90q0 -43 -37 -43q-13 0 -29 3zM253 616l102 99
q20 -7 34 -32l-107 -132q-24 -7 -60 -1l-101 127q10 25 37 33z" />
    <glyph glyph-name="Dcaron" unicode="&#x10e;" horiz-adv-x="635" 
d="M473 47q-27 -24 -77 -38q-46 -13 -82 -13q-17 0 -68.5 1t-139.5 3l-6 6v671l6 6q87 3 200 3q21 0 44 -3.5t45.5 -10t42.5 -16t35 -21.5q60 -51 81 -122.5t21 -172.5q0 -100 -21 -171t-81 -122zM305 56q38 0 67 9.5t50.5 27t35.5 41t22 51.5q13 40 17 75.5t4 80.5t-4 81
t-17 75q-12 40 -33 67q-20 27 -56.5 44.5t-85.5 17.5l-134 1v-570zM301 799l112 80q24 -9 32 -33l-110 -107q-41 -6 -66 0l-111 103q9 25 34 32z" />
    <glyph glyph-name="dcaron" unicode="&#x10f;" horiz-adv-x="551" 
d="M366 729l6 6h24q22 0 29 -11t7 -36v-550q0 -83 28 -110q-11 -25 -32 -35q-45 18 -57 68q-61 -73 -147 -73q-85 0 -129 68q-43 67 -43 189q0 120 56 187q57 66 124 66q68 0 134 -42v273zM232 48q36 0 72.5 21.5t61.5 58.5v264q-47 35 -91 43.5t-78 -10.5t-55 -65t-21 -120
q0 -97 31.5 -144.5t79.5 -47.5zM508 766q12 2 32.5 2t40.5 -12l-42 -193q-10 -4 -21 -4t-23 7z" />
    <glyph glyph-name="Dcroat" unicode="&#x110;" horiz-adv-x="635" 
d="M473 47q-27 -24 -77 -38q-46 -13 -82 -13q-17 0 -68.5 1t-139.5 3l-6 6v318h-61q-3 13 -3 32.5t3 32.5h61v288l6 6q87 3 200 3q21 0 44 -3.5t45.5 -10t42.5 -16t35 -21.5q60 -51 81 -122.5t21 -172.5q0 -100 -21 -171t-81 -122zM305 56q38 0 67 9.5t50.5 27t35.5 41
t22 51.5q13 40 17 75.5t4 80.5t-4 81t-17 75q-12 40 -33 67q-20 27 -56.5 44.5t-85.5 17.5l-134 1v-238h94q3 -13 3 -32t-3 -33h-94v-267z" />
    <glyph glyph-name="dcroat" unicode="&#x111;" horiz-adv-x="524" 
d="M432 567v-429q0 -83 28 -110q-11 -25 -32 -35q-45 18 -57 68q-61 -73 -147 -73q-85 0 -129 68q-43 67 -43 189q0 120 56 187q57 66 124 66q68 0 134 -42v111h-103q-3 13 -3 32.5t3 32.5h103v97l6 6h24q22 0 29 -11t7 -36v-56h57q3 -13 3 -32t-3 -33h-57zM232 48
q36 0 72.5 21.5t61.5 58.5v264q-47 35 -91 43.5t-78 -10.5t-55 -65t-21 -120q0 -97 31.5 -144.5t79.5 -47.5z" />
    <glyph glyph-name="Eogonek" unicode="&#x118;" horiz-adv-x="568" 
d="M168 60q17 1 32 1.5t29 0.5h276q0 -10 -0.5 -17.5t-1.5 -12.5q-3 -21 -23 -29l-2 -1q-45 -19 -73 -51.5t-28 -60.5t14 -42q15 -14 42 -14t61 18q18 -14 18 -37q-40 -32 -91 -32t-79 24t-28 66q0 74 78 127h-251q-19 0 -30 12.5t-11 34.5v630l6 6h384q2 -11 2 -29t-5 -32
h-319l1 -61v-186l59 1h211q6 -30 0 -60h-211h-33.5t-25.5 1v-222z" />
    <glyph glyph-name="eogonek" unicode="&#x119;" 
d="M126 224q4 -175 132 -175q70 0 146 43q21 -18 26 -48q-36 -24 -78 -39q-72 -60 -72 -119q0 -18 9 -30.5t24.5 -18t37 -2.5t47.5 17q17 -14 17 -37q-38 -32 -89 -32q-52 0 -80 24t-28 66q0 61 59 117q-9 -1 -16 -1.5t-12 -0.5q-72 0 -116.5 37t-62.5 92q-17 57 -17 129
q0 113 53 184q54 72 146 72q93 0 142 -61q50 -61 50 -153q0 -16 -1 -32t-3 -32h-314zM374 278v14q0 69 -30 113t-90 44t-92.5 -46.5t-35.5 -124.5h248z" />
    <glyph glyph-name="Ecaron" unicode="&#x11a;" horiz-adv-x="562" 
d="M168 60q17 1 32 1.5t29 0.5h276q0 -10 -0.5 -17.5t-1.5 -12.5q-5 -32 -45 -32h-317q-19 0 -30 12.5t-11 34.5v630l6 6h384q2 -11 2 -29t-5 -32h-319v-15v-19.5t1 -26.5v-186l59 1h211q6 -30 0 -60h-211h-33.5t-25.5 1v-222zM299 799l112 80q24 -9 32 -33l-110 -107
q-41 -6 -66 0l-111 103q9 25 34 32z" />
    <glyph glyph-name="ecaron" unicode="&#x11b;" 
d="M126 224q4 -175 132 -175q70 0 146 43q21 -18 26 -48q-80 -56 -181 -56q-72 0 -116.5 37t-62.5 92q-17 57 -17 129q0 113 53 184q54 72 146 72q93 0 142 -61q50 -61 50 -153q0 -16 -1 -32t-3 -32h-314zM374 278v14q0 69 -30 113t-90 44t-92.5 -46.5t-35.5 -124.5h248z
M257 616l102 99q20 -7 34 -32l-107 -132q-24 -7 -60 -1l-101 127q10 25 37 33z" />
    <glyph glyph-name="Hbar" unicode="&#x126;" horiz-adv-x="677" 
d="M176 249v-249q-15 -3 -36.5 -3t-34.5 3v498h-75q-6 30 0 61h75v124q14 3 35 3t36 -3v-124h325v124q12 3 34.5 3t35.5 -3v-124h75q6 -31 0 -61h-75v-498q-13 -3 -35.5 -3t-34.5 3v249l1 74l-61 -1h-205l-61 1zM236 385h205l61 -1l-1 73v41h-325v-41l-1 -73z" />
    <glyph glyph-name="hbar" unicode="&#x127;" horiz-adv-x="547" 
d="M160 627l170 2q1 -10 1.5 -16.5t0.5 -11.5t-0.5 -11t-1.5 -15l-170 2v-152q33 33 80 53t95 20q67 0 97.5 -43t30.5 -112v-251q0 -57 10 -83q-15 -15 -43 -15q-35 0 -35 45v281q0 63 -16 89.5t-58 26.5q-21 0 -43.5 -6t-43.5 -16.5t-40 -25t-34 -32.5v-356q-14 -3 -34 -3
t-33 3v576l-67 -1q-6 25 0 54l67 -1v101l6 6h25q22 0 29 -11t7 -36v-61z" />
    <glyph glyph-name="Itilde" unicode="&#x128;" horiz-adv-x="279" 
d="M104 683q13 3 34.5 3t36.5 -3v-683q-15 -3 -36 -3t-35 3v683zM96 784q-20 9 -37.5 9t-38.5 -25l-13 -16q-26 1 -34 22l8 20q9 23 24.5 37t35 20t40.5 3.5t41 -12.5l62 -29q18 -9 36.5 -9t39.5 25l13 16q25 -1 34 -22l-8 -19q-26 -63 -88 -63q-23 0 -53 14z" />
    <glyph glyph-name="itilde" unicode="&#x129;" horiz-adv-x="253" 
d="M165 0q-13 -3 -34 -3t-34 3v390q0 28 -9 38t-32 10h-9q-6 23 0 51q14 2 26 3t22 1h8q29 0 45.5 -18t16.5 -50v-425zM70 601q-20 9 -38 9t-38 -26l-13 -16q-28 1 -36 23l9 20q21 46 61 57.5t81 -8.5l62 -30q18 -9 36.5 -9t39.5 26l13 16q25 -1 36 -22l-9 -20
q-28 -64 -89 -64q-23 0 -53 14z" />
    <glyph glyph-name="dotlessi" unicode="&#x131;" horiz-adv-x="253" 
d="M165 0q-13 -3 -34 -3t-34 3v390q0 28 -9 38t-32 10h-9q-6 23 0 51q14 2 26 3t22 1h8q29 0 45.5 -18t16.5 -50v-425z" />
    <glyph glyph-name="IJ" unicode="&#x132;" horiz-adv-x="713" 
d="M104 683q13 3 34.5 3t36.5 -3v-683q-15 -3 -36 -3t-35 3v683zM320 85q55 -34 119 -34q65 0 91 39q27 40 27 135v458q14 3 35.5 3t34.5 -3v-443q0 -59 -6.5 -99t-24.5 -77q-38 -74 -155 -74q-83 0 -151 41q7 31 30 54z" />
    <glyph glyph-name="ij" unicode="&#x133;" horiz-adv-x="514" 
d="M165 0q-13 -3 -34 -3t-34 3v390q0 28 -9 38t-32 10h-9q-6 23 0 51q14 2 26 3t22 1h8q29 0 45.5 -18t16.5 -50v-425zM74 588q-7 14 -7 36.5t7 34.5q13 10 42 10q31 0 42 -10q7 -12 7 -34.5t-7 -36.5q-10 -10 -41 -10q-30 0 -43 10zM425 12q0 -105 -9 -136
q-18 -66 -105 -95q-16 16 -22 43q40 22 54 48t14 76v442q0 28 -9 38t-32 10h-18q-6 23 0 51q14 2 29 3t30 1h8q28 0 44 -18.5t16 -49.5v-413zM334 588q-7 14 -7 36.5t7 34.5q13 10 42 10q31 0 42 -10q7 -12 7 -34.5t-7 -36.5q-10 -10 -41 -10q-30 0 -43 10z" />
    <glyph glyph-name="Jcircumflex" unicode="&#x134;" horiz-adv-x="433" 
d="M40 85q55 -34 119 -34q65 0 91 39q27 40 27 135v458q13 3 34.5 3t35.5 -3v-443q0 -59 -6.5 -99t-24.5 -77q-38 -74 -155 -74q-83 0 -151 41q7 31 30 54zM313 813l-112 -80q-25 9 -32 34l111 106q31 6 66 0l110 -102q-8 -26 -34 -33z" />
    <glyph glyph-name="jcircumflex" unicode="&#x135;" horiz-adv-x="260" 
d="M172 12q0 -105 -9 -136q-18 -66 -105 -95q-16 16 -22 43q40 22 54 48t14 76v442q0 28 -9 38t-32 10h-18q-6 23 0 51q14 2 29 3t30 1h8q28 0 44 -18.5t16 -49.5v-413zM121 637l-102 -99q-23 11 -34 32l107 132q24 7 60 1l102 -127q-14 -26 -38 -33z" />
    <glyph glyph-name="Kcommaaccent" unicode="&#x136;" horiz-adv-x="580" 
d="M557 20q-16 -25 -44 -25q-27 0 -37 10q-5 5 -10 14.5t-10 22.5l-66 166q-25 63 -55 88t-75 25q-23 0 -45 -0.5t-44 -1.5v-319q-15 -3 -36 -3t-35 3v683q13 3 34.5 3t36.5 -3v-302l76 2q19 0 34 24l150 242q9 15 16.5 23t16.5 11t22 2t34 -2l6 -8l-172 -275
q-11 -17 -28 -34q24 -3 42 -12t33 -24.5t27.5 -38.5t25.5 -54l63 -159q17 -41 40 -58zM347 -58q7 -20 7 -45q0 -45 -28 -81.5t-76 -59.5q-18 6 -24 31q55 39 55 93q0 27 -13 52q23 15 43 15t36 -5z" />
    <glyph glyph-name="kcommaaccent" unicode="&#x137;" horiz-adv-x="487" 
d="M416 88q26 -60 48 -73q-15 -21 -41 -21q-27 0 -37 12q-9 11 -22 39l-48 105q-20 45 -40 60t-52 15q-33 0 -67 -3v-222q-13 -3 -33 -3t-34 3v729l6 6h25q22 0 29 -11t7 -36v-409l46 3q14 0 21 13l111 163q13 19 23.5 27t30.5 8h19t15 -1l6 -8l-131 -189q-13 -18 -22 -25
q35 -7 57.5 -28t42.5 -64zM309 -58q7 -20 7 -45q0 -45 -28 -81.5t-76 -59.5q-18 6 -24 31q55 39 55 93q0 27 -13 52q23 15 43 15t36 -5z" />
    <glyph glyph-name="kgreenlandic" unicode="&#x138;" horiz-adv-x="487" 
d="M416 88q26 -60 48 -73q-15 -21 -41 -21q-27 0 -37 12q-9 11 -22 39l-48 105q-20 45 -40 60t-52 15q-33 0 -67 -3v-222q-13 -3 -33 -3t-34 3v487l6 6h25q22 0 29 -11t7 -36v-167l46 3q14 0 21 13l111 163q13 19 23.5 27t30.5 8h19t15 -1l6 -8l-131 -189q-13 -18 -22 -25
q35 -7 57.5 -28t42.5 -64z" />
    <glyph glyph-name="Ldot" unicode="&#x13f;" horiz-adv-x="505" 
d="M473 63q0 -11 -0.5 -18.5t-1.5 -12.5q-6 -32 -45 -32h-284q-18 0 -30 12.5t-12 35.5v632l6 6h29q22 0 29 -10.5t7 -35.5v-580q45 3 86 3h216zM343 309q-7 11 -7 39q0 29 7 40q18 9 43.5 9t39.5 -9q7 -11 7 -40q0 -28 -7 -39q-11 -10 -40 -10q-27 0 -43 10z" />
    <glyph glyph-name="ldot" unicode="&#x140;" horiz-adv-x="315" 
d="M235 53q6 -15 6 -31t-1 -20q-28 -6 -55 -6.5t-49 7t-35 25t-13 47.5v654l6 6h25q22 0 29 -11t7 -36v-593q0 -42 37 -42h43zM235 309q-7 11 -7 39q0 29 7 40q18 9 43.5 9t39.5 -9q7 -11 7 -40q0 -28 -7 -39q-11 -10 -40 -10q-27 0 -43 10z" />
    <glyph glyph-name="Lslash" unicode="&#x141;" horiz-adv-x="509" 
d="M175 381l190 62l5 -3q7 -28 1 -57l-196 -63v-260q45 3 86 3h215q0 -11 -0.5 -18.5t-1.5 -12.5q-5 -32 -45 -32h-284q-17 0 -29 12.5t-12 35.5v252l-68 -23l-5 3q-6 28 -1 57l74 23v320l6 6h29q22 0 29 -10.5t7 -35.5v-259z" />
    <glyph glyph-name="lslash" unicode="&#x142;" horiz-adv-x="308" 
d="M259 53q6 -15 6 -31t-1 -20q-28 -6 -55 -6.5t-49 7t-35 25t-13 47.5v259l-71 -39l-5 3q-7 28 -1 55l77 42v334l6 6h25q22 0 29 -11t7 -36v-256l82 46l5 -3q7 -29 1 -55l-88 -49v-276q0 -42 37 -42h43z" />
    <glyph glyph-name="Nacute" unicode="&#x143;" horiz-adv-x="670" 
d="M569 681v-681q-18 -3 -44.5 -3t-42.5 3l-250 461q-15 28 -32 61.5t-37 75.5h-3q6 -180 6 -210v-388q-20 -3 -34 -3t-32 3v683q18 3 43.5 3t43.5 -3l249 -461q2 -5 20 -39t50 -100v-1h3q-2 60 -3.5 115.5t-1.5 107.5v335q0 25 7 35.5t29 10.5h23zM440 878q28 -16 37 -63
l-203 -86q-17 12 -22 39z" />
    <glyph glyph-name="nacute" unicode="&#x144;" horiz-adv-x="545" 
d="M461 92q0 -60 10 -83q-15 -15 -43 -15q-35 0 -35 45v282q0 63 -16 89.5t-58 26.5q-21 0 -43.5 -6t-43.5 -16.5t-40 -25t-34 -32.5v-357q-14 -3 -34 -3t-34 3v487l6 6h26q22 0 29 -11t7 -36v-20q33 33 80 53t95 20q67 0 97.5 -43t30.5 -112v-252zM350 718q19 -6 35 -21
t24 -32l-162 -129q-23 6 -32 29z" />
    <glyph glyph-name="Ncaron" unicode="&#x147;" horiz-adv-x="670" 
d="M569 681v-681q-18 -3 -44.5 -3t-42.5 3l-250 461q-15 28 -32 61.5t-37 75.5h-3q6 -180 6 -210v-388q-20 -3 -34 -3t-32 3v683q18 3 43.5 3t43.5 -3l249 -461q2 -5 20 -39t50 -100v-1h3q-2 60 -3.5 115.5t-1.5 107.5v335q0 25 7 35.5t29 10.5h23zM337 799l112 80
q24 -9 32 -33l-110 -107q-41 -6 -66 0l-111 103q9 25 34 32z" />
    <glyph glyph-name="ncaron" unicode="&#x148;" horiz-adv-x="545" 
d="M461 92q0 -60 10 -83q-15 -15 -43 -15q-35 0 -35 45v282q0 63 -16 89.5t-58 26.5q-21 0 -43.5 -6t-43.5 -16.5t-40 -25t-34 -32.5v-357q-14 -3 -34 -3t-34 3v487l6 6h26q22 0 29 -11t7 -36v-20q33 33 80 53t95 20q67 0 97.5 -43t30.5 -112v-252zM279 616l102 99
q20 -7 34 -32l-107 -132q-24 -7 -60 -1l-101 127q10 25 37 33z" />
    <glyph glyph-name="OE" unicode="&#x152;" horiz-adv-x="882" 
d="M488 60q17 1 32 1.5t29 0.5h277q0 -10 -0.5 -17.5t-1.5 -12.5q-6 -32 -45 -32h-335q-99 -12 -117 -12q-99 0 -163 58q-106 94 -106 296q0 45 6.5 87.5t19.5 80.5t33 70.5t47 56.5q64 58 163 58q15 0 117 -12h366q2 -11 2 -29t-5 -32h-319v-15v-19.5t1 -26.5v-186l59 1
h211q6 -30 0 -60h-211h-33.5t-25.5 1v-222zM421 625q-58 10 -104 10t-86 -27q-39 -25 -61 -71q-20 -45 -28.5 -93t-8.5 -102q1 -38 5 -76.5t15 -74t29.5 -65.5t47.5 -52q20 -13 43.5 -19t48.5 -7t50 2t49 8v567z" />
    <glyph glyph-name="oe" unicode="&#x153;" horiz-adv-x="848" 
d="M471 224q4 -175 131 -175q71 0 147 43q20 -19 25 -48q-80 -56 -181 -56q-119 0 -163 104q-48 -104 -171 -104q-83 0 -136 53q-70 70 -70 204t70 204q53 53 136 53q127 0 173 -109q49 109 165 109q92 0 141 -61q50 -61 50 -153q0 -16 -1 -32t-3 -32h-313zM260 42
q49 0 80 31q55 55 55 172q0 85 -33 144q-32 60 -103 60q-70 0 -103 -60q-32 -59 -32 -144t32 -144q33 -59 104 -59zM717 278v12q0 72 -29 115.5t-89 43.5t-92 -46t-36 -125h246z" />
    <glyph glyph-name="Racute" unicode="&#x154;" horiz-adv-x="591" 
d="M306 686q103 0 159 -52t56 -145q0 -69 -34.5 -116.5t-97.5 -65.5q41 -14 67 -80l53 -138q23 -56 42 -71q-14 -24 -49 -24q-20 0 -30.5 11t-20.5 36l-60 156q-18 47 -41.5 70.5t-70.5 23.5h-108v-291q-15 -3 -36 -3t-35 3v677l6 6zM171 351q43 1 76.5 1.5t58.5 0.5
q39 0 65.5 10.5t43.5 29t24.5 43.5t7.5 54q0 57 -32 97q-32 39 -120 39h-74.5t-49.5 1v-276zM398 878q28 -16 37 -63l-203 -86q-17 12 -22 39z" />
    <glyph glyph-name="racute" unicode="&#x155;" horiz-adv-x="349" 
d="M64 459q9 26 30 38q54 -21 68 -89q44 89 134 89q22 0 45 -4q0 -42 -16 -65q-5 1 -13.5 1h-19.5q-84 0 -125 -95v-334q-13 -3 -34 -3t-33 3v357q0 64 -36 102zM270 718q19 -6 35 -21t24 -32l-162 -129q-23 6 -32 29z" />
    <glyph glyph-name="Rcommaaccent" unicode="&#x156;" horiz-adv-x="591" 
d="M306 686q103 0 159 -52t56 -145q0 -69 -34.5 -116.5t-97.5 -65.5q41 -14 67 -80l53 -138q23 -56 42 -71q-14 -24 -49 -24q-20 0 -30.5 11t-20.5 36l-60 156q-18 47 -41.5 70.5t-70.5 23.5h-108v-291q-15 -3 -36 -3t-35 3v677l6 6zM171 351q43 1 76.5 1.5t58.5 0.5
q39 0 65.5 10.5t43.5 29t24.5 43.5t7.5 54q0 57 -32 97q-32 39 -120 39h-74.5t-49.5 1v-276zM347 -58q7 -20 7 -45q0 -45 -28 -81.5t-76 -59.5q-18 6 -24 31q55 39 55 93q0 27 -13 52q23 15 43 15t36 -5z" />
    <glyph glyph-name="rcommaaccent" unicode="&#x157;" horiz-adv-x="349" 
d="M64 459q9 26 30 38q54 -21 68 -89q44 89 134 89q22 0 45 -4q0 -42 -16 -65q-5 1 -13.5 1h-19.5q-84 0 -125 -95v-334q-13 -3 -34 -3t-33 3v357q0 64 -36 102zM178 -58q7 -20 7 -45q0 -45 -28 -81.5t-76 -59.5q-18 6 -24 31q55 39 55 93q0 27 -13 52q23 15 43 15t36 -5z
" />
    <glyph glyph-name="Rcaron" unicode="&#x158;" horiz-adv-x="591" 
d="M306 686q103 0 159 -52t56 -145q0 -69 -34.5 -116.5t-97.5 -65.5q41 -14 67 -80l53 -138q23 -56 42 -71q-14 -24 -49 -24q-20 0 -30.5 11t-20.5 36l-60 156q-18 47 -41.5 70.5t-70.5 23.5h-108v-291q-15 -3 -36 -3t-35 3v677l6 6zM171 351q43 1 76.5 1.5t58.5 0.5
q39 0 65.5 10.5t43.5 29t24.5 43.5t7.5 54q0 57 -32 97q-32 39 -120 39h-74.5t-49.5 1v-276zM295 799l112 80q24 -9 32 -33l-110 -107q-41 -6 -66 0l-111 103q9 25 34 32z" />
    <glyph glyph-name="rcaron" unicode="&#x159;" horiz-adv-x="349" 
d="M64 459q9 26 30 38q54 -21 68 -89q44 89 134 89q22 0 45 -4q0 -42 -16 -65q-5 1 -13.5 1h-19.5q-84 0 -125 -95v-334q-13 -3 -34 -3t-33 3v357q0 64 -36 102zM199 616l102 99q20 -7 34 -32l-107 -132q-24 -7 -60 -1l-101 127q10 25 37 33z" />
    <glyph glyph-name="Sacute" unicode="&#x15a;" horiz-adv-x="555" 
d="M40 63q3 35 34 57q99 -69 200 -69q72 0 115 30t43 84q0 81 -110 129l-117 51q-133 58 -133 166q0 78 58 130q58 54 155 54q96 0 197 -48q2 -35 -28 -59q-67 34 -124 42t-98.5 -4t-65 -41t-23.5 -68q0 -66 100 -109l113 -49q149 -65 149 -179q0 -87 -59.5 -139.5
t-181.5 -52.5q-121 0 -224 75zM391 878q28 -16 37 -63l-203 -86q-17 12 -22 39z" />
    <glyph glyph-name="sacute" unicode="&#x15b;" horiz-adv-x="434" 
d="M38 38q1 28 28 50q61 -34 107.5 -42t78 1t48 30t18.5 46q0 54 -75 83l-57 22q-128 50 -128 138q0 31 12.5 56t35 43t54 27.5t68.5 9.5q73 0 145 -32q0 -33 -21 -54q-50 24 -92 28.5t-71.5 -4t-45.5 -26.5t-14 -40q0 -29 18 -46t60 -34l59 -23q122 -48 122 -143
q0 -66 -50.5 -103t-135.5 -37q-84 0 -164 50zM291 718q19 -6 35 -21t24 -32l-162 -129q-23 6 -32 29z" />
    <glyph glyph-name="Scaron" unicode="&#x160;" horiz-adv-x="555" 
d="M40 63q3 35 34 57q99 -69 200 -69q72 0 115 30t43 84q0 81 -110 129l-117 51q-133 58 -133 166q0 78 58 130q58 54 155 54q96 0 197 -48q2 -35 -28 -59q-67 34 -124 42t-98.5 -4t-65 -41t-23.5 -68q0 -66 100 -109l113 -49q149 -65 149 -179q0 -87 -59.5 -139.5
t-181.5 -52.5q-121 0 -224 75zM288 799l112 80q24 -9 32 -33l-110 -107q-41 -6 -66 0l-111 103q9 25 34 32z" />
    <glyph glyph-name="scaron" unicode="&#x161;" horiz-adv-x="434" 
d="M38 38q1 28 28 50q61 -34 107.5 -42t78 1t48 30t18.5 46q0 54 -75 83l-57 22q-128 50 -128 138q0 31 12.5 56t35 43t54 27.5t68.5 9.5q73 0 145 -32q0 -33 -21 -54q-50 24 -92 28.5t-71.5 -4t-45.5 -26.5t-14 -40q0 -29 18 -46t60 -34l59 -23q122 -48 122 -143
q0 -66 -50.5 -103t-135.5 -37q-84 0 -164 50zM220 616l102 99q20 -7 34 -32l-107 -132q-24 -7 -60 -1l-101 127q10 25 37 33z" />
    <glyph glyph-name="Tcaron" unicode="&#x164;" horiz-adv-x="481" 
d="M276 623v-623q-15 -3 -35.5 -3t-35.5 3v623l-53 -1h-130q-6 28 0 61h436q5 -17 5 -29q0 -32 -43 -32h-90zM240 799l112 80q24 -9 32 -33l-110 -107q-41 -6 -66 0l-111 103q9 25 34 32z" />
    <glyph glyph-name="tcaron" unicode="&#x165;" horiz-adv-x="334" 
d="M301 491q3 -15 3 -27t-3 -26l-127 1v-345q0 -41 39 -41h77q6 -15 6 -31t-1 -20q-47 -6 -94 -6q-45 0 -70 20q-24 21 -24 59v364l-69 -1q-6 24 0 53l69 -1v108q0 25 7.5 36t29.5 11h24l6 -6v-150zM252 766q12 2 32.5 2t40.5 -12l-42 -193q-10 -4 -21 -4t-23 7z" />
    <glyph glyph-name="Utilde" unicode="&#x168;" horiz-adv-x="666" 
d="M573 232q0 -60 -17.5 -105.5t-49 -76t-76 -46.5t-98.5 -16t-98.5 16t-76 47t-48.5 76.5t-17 104.5v448l6 6h29q22 0 29 -10.5t7 -35.5v-407q0 -91 44.5 -138.5t125.5 -47.5t125.5 47.5t44.5 138.5v450q14 3 35.5 3t34.5 -3v-451zM285.576 788.622
q-19.1709 9.06934 -36.4248 9.06934t-36.4258 -26.2002l-12.4609 -16.123q-26.8398 1.00781 -34.5078 23.1768l8.62695 20.1543q20.1299 46.3535 58.4717 57.9414q38.3428 11.5889 77.6436 -8.56445l59.4307 -30.2314q17.2539 -9.06934 34.9873 -9.06934t37.8623 26.2002
l12.4619 16.123q23.9639 -1.00781 34.5078 -22.1689l-8.62695 -20.1543q-26.8398 -64.4922 -85.3115 -64.4922q-22.0469 0 -50.8037 14.1084z" />
    <glyph glyph-name="utilde" unicode="&#x169;" horiz-adv-x="546" 
d="M84 397q0 61 -10 84q15 15 43 15q35 0 35 -45v-282q0 -63 15.5 -89.5t57.5 -26.5t87 22.5t75 56.5v358q13 3 34 3t33 -3v-352q0 -82 28 -110q-10 -25 -32 -35q-49 19 -59 74q-34 -34 -82.5 -55t-96.5 -21q-67 0 -97.5 43t-30.5 112v251zM229 601q-20 9 -38 9t-38 -26
l-13 -16q-28 1 -36 23l9 20q21 46 61 57.5t81 -8.5l62 -30q18 -9 36.5 -9t39.5 26l13 16q25 -1 36 -22l-9 -20q-28 -64 -89 -64q-23 0 -53 14z" />
    <glyph glyph-name="Uring" unicode="&#x16e;" horiz-adv-x="666" 
d="M573 232q0 -60 -17.5 -105.5t-49 -76t-76 -46.5t-98.5 -16t-98.5 16t-76 47t-48.5 76.5t-17 104.5v448l6 6h29q22 0 29 -10.5t7 -35.5v-407q0 -91 44.5 -138.5t125.5 -47.5t125.5 47.5t44.5 138.5v450q14 3 35.5 3t34.5 -3v-451zM256 702q-15 15 -22.5 34.5t-7.5 39.5
t7.5 39t22.5 34q31 30 77 30t76 -30q15 -15 23 -34t8 -39t-8 -39.5t-23 -34.5q-30 -30 -76 -30t-77 30zM296 817q-14 -16 -14 -41t14 -41q15 -16 37 -16t36 16q15 16 15 41t-15 41q-14 16 -36 16t-37 -16z" />
    <glyph glyph-name="uring" unicode="&#x16f;" horiz-adv-x="546" 
d="M84 397q0 61 -10 84q15 15 43 15q35 0 35 -45v-282q0 -63 15.5 -89.5t57.5 -26.5t87 22.5t75 56.5v358q13 3 34 3t33 -3v-352q0 -82 28 -110q-10 -25 -32 -35q-49 19 -59 74q-34 -34 -82.5 -55t-96.5 -21q-67 0 -97.5 43t-30.5 112v251zM192 566q-15 15 -22.5 34t-7.5 39
t7.5 39t22.5 34q31 31 77 31t76 -31q15 -15 23 -34t8 -39t-8 -39t-23 -34q-30 -30 -76 -30t-77 30zM232 680q-14 -16 -14 -41t14 -41q15 -16 37 -16t36 16q15 16 15 41t-15 41q-14 17 -36 17t-37 -17z" />
    <glyph glyph-name="Ydieresis" unicode="&#x178;" horiz-adv-x="477" 
d="M246 302q4 14 14 42t27 70l107 269q13 4 30.5 4t35.5 -5l3 -6l-188 -453v-223q-15 -3 -36 -3t-35 3v226l-188 449q26 15 49 15t37 -35l100 -241q9 -20 19 -48.5t21 -63.5h4zM301 815q13 8 38.5 8t41.5 -8q6 -20 6 -35.5t-6 -34.5q-14 -8 -41 -8q-28 0 -39 8q-13 35 0 70z
M105 815q16 8 41.5 8t38.5 -8q13 -35 0 -70q-11 -8 -39 -8q-27 0 -41 8q-11 35 0 70z" />
    <glyph glyph-name="Zacute" unicode="&#x179;" horiz-adv-x="551" 
d="M338 513q3 5 22.5 32.5t54.5 78.5l-3 3q-16 -4 -55 -5.5t-102 -1.5h-173q-3 12 -3 28t6 35h393q10 -34 10 -50q0 -14 -12 -33l-269 -422q-2 -4 -22 -33t-57 -83l3 -3q26 2 51.5 3.5t49.5 1.5h136q88 0 121 16q7 -20 7 -38q0 -42 -53 -42h-378q-11 33 -11 50t11 35z
M384 878q28 -16 37 -63l-203 -86q-17 12 -22 39z" />
    <glyph glyph-name="zacute" unicode="&#x17a;" horiz-adv-x="444" 
d="M247 338q27 35 46.5 59.5t31.5 38.5l-3 3q-19 -2 -53 -3.5t-85 -1.5h-124q-2 8 -2 24t4 32h325q12 -32 12 -44t-12 -28l-189 -259q-23 -31 -42.5 -56.5t-36.5 -45.5l3 -3q52 3 101 3h56q86 0 118 12q6 -15 6 -34q0 -35 -53 -35h-296q-12 33 -12 44q0 12 12 29zM297 718
q19 -6 35 -21t24 -32l-162 -129q-23 6 -32 29z" />
    <glyph glyph-name="Zdotaccent" unicode="&#x17b;" horiz-adv-x="551" 
d="M338 513q3 5 22.5 32.5t54.5 78.5l-3 3q-16 -4 -55 -5.5t-102 -1.5h-173q-3 12 -3 28t6 35h393q10 -34 10 -50q0 -14 -12 -33l-269 -422q-2 -4 -22 -33t-57 -83l3 -3q26 2 51.5 3.5t49.5 1.5h136q88 0 121 16q7 -20 7 -38q0 -42 -53 -42h-378q-11 33 -11 50t11 35z
M239 754q-7 14 -7 35.5t7 35.5q13 10 42 10q31 0 42 -10q7 -14 7 -35.5t-7 -35.5q-10 -10 -41 -10q-30 0 -43 10z" />
    <glyph glyph-name="zdotaccent" unicode="&#x17c;" horiz-adv-x="444" 
d="M247 338q27 35 46.5 59.5t31.5 38.5l-3 3q-19 -2 -53 -3.5t-85 -1.5h-124q-2 8 -2 24t4 32h325q12 -32 12 -44t-12 -28l-189 -259q-23 -31 -42.5 -56.5t-36.5 -45.5l3 -3q52 3 101 3h56q86 0 118 12q6 -15 6 -34q0 -35 -53 -35h-296q-12 33 -12 44q0 12 12 29zM182 588
q-7 14 -7 36.5t7 34.5q13 10 42 10q31 0 42 -10q7 -12 7 -34.5t-7 -36.5q-10 -10 -41 -10q-30 0 -43 10z" />
    <glyph glyph-name="Zcaron" unicode="&#x17d;" horiz-adv-x="551" 
d="M338 513q3 5 22.5 32.5t54.5 78.5l-3 3q-16 -4 -55 -5.5t-102 -1.5h-173q-3 12 -3 28t6 35h393q10 -34 10 -50q0 -14 -12 -33l-269 -422q-2 -4 -22 -33t-57 -83l3 -3q26 2 51.5 3.5t49.5 1.5h136q88 0 121 16q7 -20 7 -38q0 -42 -53 -42h-378q-11 33 -11 50t11 35z
M281 799l112 80q24 -9 32 -33l-110 -107q-41 -6 -66 0l-111 103q9 25 34 32z" />
    <glyph glyph-name="zcaron" unicode="&#x17e;" horiz-adv-x="444" 
d="M247 338q27 35 46.5 59.5t31.5 38.5l-3 3q-19 -2 -53 -3.5t-85 -1.5h-124q-2 8 -2 24t4 32h325q12 -32 12 -44t-12 -28l-189 -259q-23 -31 -42.5 -56.5t-36.5 -45.5l3 -3q52 3 101 3h56q86 0 118 12q6 -15 6 -34q0 -35 -53 -35h-296q-12 33 -12 44q0 12 12 29zM226 616
l102 99q20 -7 34 -32l-107 -132q-24 -7 -60 -1l-101 127q10 25 37 33z" />
    <glyph glyph-name="Ohorn" unicode="&#x1a0;" horiz-adv-x="652" 
d="M58 342q0 45 6.5 87.5t19.5 80.5t33 70.5t47 56.5q64 58 162 58q99 0 161 -58q19 -17 34 -37.5t27 -44.5q12 5 18.5 13t10 16.5t4 14.5l0.5 6v78q1 3 10.5 5t21 2t21.5 -1.5t13 -5.5v-97q-1 -16 -9.5 -27.5t-21 -19.5t-27 -12.5t-26.5 -7.5q30 -80 30 -177
q0 -202 -106 -296q-62 -58 -161 -58q-98 0 -162 58q-106 94 -106 296zM141 444q-8 -48 -8 -102t8 -102q9 -48 29.5 -93.5t59.5 -72.5q41 -26 96 -26t95 26q40 27 60 72.5t28 93.5q9 48 9 101.5t-9 101.5q-4 24 -11 48t-17.5 45.5t-25 40t-34.5 31.5q-39 27 -95 27t-96 -27
q-39 -26 -59.5 -71t-29.5 -93z" />
    <glyph glyph-name="ohorn" unicode="&#x1a1;" horiz-adv-x="519" 
d="M396 41q-53 -53 -137 -53q-83 0 -136 53q-70 70 -70 204t70 204q53 53 136 53q84 0 137 -53q27 -27 44 -64q17 8 19.5 17t1.5 10v78q1 3 10.5 5t21 2t21.5 -1.5t13 -5.5v-97q-1 -14 -8 -23.5t-17.5 -15.5t-22.5 -9t-24 -4q11 -46 11 -96q0 -134 -70 -204zM260 42
q49 0 80 31q55 55 55 172q0 85 -33 144q-32 60 -103 60q-70 0 -103 -60q-32 -59 -32 -145q0 -85 32 -144q33 -58 104 -58z" />
    <glyph glyph-name="Uhorn" unicode="&#x1af;" horiz-adv-x="666" 
d="M573 555q12 4 19 12.5t10.5 16.5t4 14.5l0.5 6.5v78q1 3 10.5 5t21 2t21.5 -1.5t13 -5.5v-97q-1 -18 -12.5 -31t-27.5 -21t-32.5 -12.5t-27.5 -5.5v-286q0 -60 -17.5 -105.5t-49 -76t-76 -46.5t-98.5 -16t-98.5 16t-76 47t-48.5 76.5t-17 104.5v448l6 6h29q22 0 29 -10.5
t7 -35.5v-407q0 -91 44.5 -138.5t125.5 -47.5t125.5 47.5t44.5 138.5v450q14 3 35.5 3t34.5 -3v-126z" />
    <glyph glyph-name="uhorn" unicode="&#x1b0;" horiz-adv-x="546" 
d="M554 393q-1 -19 -13 -30t-28 -16t-32.5 -6t-26.5 0v-203q0 -82 28 -110q-10 -25 -32 -35q-49 19 -59 74q-34 -34 -82.5 -55t-96.5 -21q-67 0 -97.5 43t-30.5 112v251q0 61 -10 84q15 15 43 15q35 0 35 -45v-282q0 -63 15.5 -89.5t57.5 -26.5t87 22.5t75 56.5v358
q13 3 34 3t33 -3v-110q13 3 20 8t10.5 10.5t3.5 9.5v4v78q1 3 10.5 5t21 2t21.5 -1.5t13 -5.5v-97z" />
    <glyph glyph-name="dotlessj" unicode="&#x237;" horiz-adv-x="260" 
d="M172 12q0 -105 -9 -136q-18 -66 -105 -95q-16 16 -22 43q40 22 54 48t14 76v442q0 28 -9 38t-32 10h-18q-6 23 0 51q14 2 29 3t30 1h8q28 0 44 -18.5t16 -49.5v-413z" />
    <glyph glyph-name="circumflex" unicode="&#x2c6;" horiz-adv-x="398" 
d="M199 637l-102 -99q-23 11 -34 32l107 132q24 7 60 1l102 -127q-14 -26 -38 -33z" />
    <glyph glyph-name="caron" unicode="&#x2c7;" horiz-adv-x="398" 
d="M201 616l102 99q20 -7 34 -32l-107 -132q-24 -7 -60 -1l-101 127q10 25 37 33z" />
    <glyph glyph-name="breve" unicode="&#x2d8;" horiz-adv-x="446" 
d="M88 672q-3 5 9.5 10t25.5 9q4 2 10.5 -6.5t16 -20.5t21 -24t24.5 -16q24 -8 45 -7t35 5q16 4 29 16.5t23 24.5t16.5 20.5t11.5 5.5q13 -5 20.5 -8t11.5 -15q-1 -17 -11.5 -33t-25 -28.5t-28.5 -21.5t-23 -12q-8 -3 -21.5 -6t-30.5 -3.5t-35 1.5t-33 8q-17 7 -32.5 19
t-27.5 25.5t-20 28.5t-11 28z" />
    <glyph glyph-name="dotaccent" unicode="&#x2d9;" horiz-adv-x="398" 
d="M157 588q-7 14 -7 36.5t7 34.5q13 10 42 10q31 0 42 -10q7 -12 7 -34.5t-7 -36.5q-10 -10 -41 -10q-30 0 -43 10z" />
    <glyph glyph-name="ring" unicode="&#x2da;" horiz-adv-x="398" 
d="M122 566q-15 15 -22.5 34t-7.5 39t7.5 39t22.5 34q31 31 77 31t76 -31q15 -15 23 -34t8 -39t-8 -39t-23 -34q-30 -30 -76 -30t-77 30zM162 680q-14 -16 -14 -41t14 -41q15 -16 37 -16t36 16q15 16 15 41t-15 41q-14 17 -36 17t-37 -17z" />
    <glyph glyph-name="tilde" unicode="&#x2dc;" horiz-adv-x="398" 
d="M155 601q-20 9 -38 9t-38 -26l-13 -16q-28 1 -36 23l9 20q21 46 61 57.5t81 -8.5l62 -30q18 -9 36.5 -9t39.5 26l13 16q25 -1 36 -22l-9 -20q-28 -64 -89 -64q-23 0 -53 14z" />
    <glyph glyph-name="hookabovecomb" unicode="&#x309;" horiz-adv-x="477" 
d="M219 573q-1 -1 -2 0q-1 0 -3 4q-5 13 2 27.5t17.5 28.5t21.5 27t14 22q8 26 -2 40t-30 13q-31 -2 -34 -39q0 -6 -4 -6h-39q-1 -1 -2 0q-3 0 -4 6q-2 5 0.5 18t12 26.5t26.5 24.5t45 11q25 0 42 -8t27 -20t14 -25.5t4 -23.5q0 -22 -11.5 -38t-24.5 -29.5t-23 -25t-7 -24.5
q2 -8 -1 -8.5t-4 -0.5h-35z" />
    <glyph glyph-name="dotbelowcomb" unicode="&#x323;" horiz-adv-x="398" 
d="M148 -133q-7 14 -7 36.5t7 34.5q13 10 42 10q31 0 42 -10q7 -12 7 -34.5t-7 -36.5q-10 -10 -41 -10q-30 0 -43 10z" />
    <glyph glyph-name="mu" unicode="&#x3bc;" horiz-adv-x="555" 
d="M464 138q0 -83 28 -110q-11 -25 -33 -35q-46 18 -58 70q-58 -73 -142 -73q-66 0 -104 41v-204q0 -45 -33 -45q-28 0 -42 14q11 28 11 83v611q12 3 32.5 3t33.5 -3v-326q1 -54 31.5 -83t78.5 -29q75 0 129 77v361q14 3 34 3t34 -3v-352z" />
    <glyph glyph-name="germandbls.cap" unicode="&#x1e9e;" horiz-adv-x="607" 
d="M111 411l-86 -1q-6 29 0 60l86 -2v43q0 44 15 78.5t42 58.5t64.5 37t82.5 13q46 0 83 -13.5t63.5 -39t40.5 -61t14 -79.5q0 -33 -14 -78h-2l2 -1q-48 -12 -71 -35.5t-23 -50.5q0 -26 47 -67l37 -30q76 -61 76 -121q0 -59 -47 -97q-46 -37 -119 -37q-71 0 -127 29
q1 31 28 51q45 -24 91 -24t73 20q13 10 20.5 24.5t6.5 31.5t-12 35.5t-35 38.5l-40 34q-69 57 -69 110q0 38 28 70t76 49q6 21 6 42q0 64 -34 105t-101 41t-100 -37.5t-33 -104.5v-503q-15 -3 -34.5 -3t-34.5 3v411z" />
    <glyph glyph-name="uni1EA0" unicode="&#x1ea0;" horiz-adv-x="593" 
d="M360 180h-134l-71 1l-60 -182q-13 -3 -30.5 -3t-35.5 5l-2 3l229 679q8 1 19 2t22.5 1t22 -1t16.5 -2l230 -679q-16 -10 -37.5 -10t-30.5 7q-8 7 -16 29l-50 151zM234 243h118h7t19 -1h34l-66 199q-16 48 -28.5 88.5t-22.5 75.5h-5q-17 -62 -33 -114l-82 -249zM248 -133
q-7 14 -7 36.5t7 34.5q13 10 42 10q31 0 42 -10q7 -12 7 -34.5t-7 -36.5q-10 -10 -41 -10q-30 0 -43 10z" />
    <glyph glyph-name="uni1EA1" unicode="&#x1ea1;" 
d="M445 28q-10 -25 -32 -35q-47 19 -58 72q-77 -77 -159 -77q-69 0 -106 43q-38 44 -38 102q0 81 49.5 120.5t137.5 39.5q29 0 57.5 -2.5t55.5 -7.5v53q0 105 -93 105q-71 0 -164 -42q-10 8 -17.5 24t-7.5 30q106 47 194 47q153 0 153 -166v-206q0 -73 28 -100zM352 232
q-28 4 -56 6t-56 2q-56 0 -87 -27t-31 -71q0 -45 21 -70q16 -19 42.5 -23.5t55.5 4t58.5 29t52.5 51.5v99zM200 -133q-7 14 -7 36.5t7 34.5q13 10 42 10q31 0 42 -10q7 -12 7 -34.5t-7 -36.5q-10 -10 -41 -10q-30 0 -43 10z" />
    <glyph glyph-name="uni1EA2" unicode="&#x1ea2;" horiz-adv-x="593" 
d="M360 180h-134l-71 1l-60 -182q-13 -3 -30.5 -3t-35.5 5l-2 3l229 679q8 1 19 2t22.5 1t22 -1t16.5 -2l230 -679q-16 -10 -37.5 -10t-30.5 7q-8 7 -16 29l-50 151zM234 243h118h7t19 -1h34l-66 199q-16 48 -28.5 88.5t-22.5 75.5h-5q-17 -62 -33 -114l-82 -249zM278 743
q-1 -1 -2 0q-1 0 -3 4q-5 13 2 27.5t17.5 28.5t21.5 27t14 22q8 26 -2 40t-30 13q-31 -2 -34 -39q0 -6 -4 -6h-39q-1 -1 -2 0q-3 0 -4 6q-2 5 0.5 18t12 26.5t26.5 24.5t45 11q25 0 42 -8t27 -20t14 -25.5t4 -23.5q0 -22 -11.5 -38t-24.5 -29.5t-23 -25t-7 -24.5
q2 -8 -1 -8.5t-4 -0.5h-35z" />
    <glyph glyph-name="uni1EA3" unicode="&#x1ea3;" 
d="M445 28q-10 -25 -32 -35q-47 19 -58 72q-77 -77 -159 -77q-69 0 -106 43q-38 44 -38 102q0 81 49.5 120.5t137.5 39.5q29 0 57.5 -2.5t55.5 -7.5v53q0 105 -93 105q-71 0 -164 -42q-10 8 -17.5 24t-7.5 30q106 47 194 47q153 0 153 -166v-206q0 -73 28 -100zM352 232
q-28 4 -56 6t-56 2q-56 0 -87 -27t-31 -71q0 -45 21 -70q16 -19 42.5 -23.5t55.5 4t58.5 29t52.5 51.5v99zM233 567q-1 -1 -2 0q-1 0 -3 4q-5 13 2 27.5t17.5 28.5t21.5 27t14 22q8 26 -2 40t-30 13q-31 -2 -34 -39q0 -6 -4 -6h-39q-1 -1 -2 0q-3 0 -4 6q-2 5 0.5 18
t12 26.5t26.5 24.5t45 11q25 0 42 -8t27 -20t14 -25.5t4 -23.5q0 -22 -11.5 -38t-24.5 -29.5t-23 -25t-7 -24.5q2 -8 -1 -8.5t-4 -0.5h-35z" />
    <glyph glyph-name="uni1EA4" unicode="&#x1ea4;" horiz-adv-x="593" 
d="M360 180h-134l-71 1l-60 -182q-13 -3 -30.5 -3t-35.5 5l-2 3l229 679q8 1 19 2t22.5 1t22 -1t16.5 -2l230 -679q-16 -10 -37.5 -10t-30.5 7q-8 7 -16 29l-50 151zM234 243h118h7t19 -1h34l-66 199q-16 48 -28.5 88.5t-22.5 75.5h-5q-17 -62 -33 -114l-82 -249zM297 813
l-112 -80q-25 9 -32 34l111 106q31 6 66 0l110 -102q-8 -26 -34 -33zM534 1022q19 -6 35 -21t24 -32l-162 -129q-23 6 -32 29z" />
    <glyph glyph-name="uni1EA5" unicode="&#x1ea5;" 
d="M445 28q-10 -25 -32 -35q-47 19 -58 72q-77 -77 -159 -77q-69 0 -106 43q-38 44 -38 102q0 81 49.5 120.5t137.5 39.5q29 0 57.5 -2.5t55.5 -7.5v53q0 105 -93 105q-71 0 -164 -42q-10 8 -17.5 24t-7.5 30q106 47 194 47q153 0 153 -166v-206q0 -73 28 -100zM352 232
q-28 4 -56 6t-56 2q-56 0 -87 -27t-31 -71q0 -45 21 -70q16 -19 42.5 -23.5t55.5 4t58.5 29t52.5 51.5v99zM241 637l-102 -99q-23 11 -34 32l107 132q24 7 60 1l102 -127q-14 -26 -38 -33zM452 865q19 -6 35 -21t24 -32l-162 -129q-23 6 -32 29z" />
    <glyph glyph-name="uni1EA6" unicode="&#x1ea6;" horiz-adv-x="593" 
d="M360 180h-134l-71 1l-60 -182q-13 -3 -30.5 -3t-35.5 5l-2 3l229 679q8 1 19 2t22.5 1t22 -1t16.5 -2l230 -679q-16 -10 -37.5 -10t-30.5 7q-8 7 -16 29l-50 151zM234 243h118h7t19 -1h34l-66 199q-16 48 -28.5 88.5t-22.5 75.5h-5q-17 -62 -33 -114l-82 -249zM297 813
l-112 -80q-25 9 -32 34l111 106q31 6 66 0l110 -102q-8 -26 -34 -33zM476 879q-12 -23 -32 -29l-162 129q8 17 24 32t35 21z" />
    <glyph glyph-name="uni1EA7" unicode="&#x1ea7;" 
d="M445 28q-10 -25 -32 -35q-47 19 -58 72q-77 -77 -159 -77q-69 0 -106 43q-38 44 -38 102q0 81 49.5 120.5t137.5 39.5q29 0 57.5 -2.5t55.5 -7.5v53q0 105 -93 105q-71 0 -164 -42q-10 8 -17.5 24t-7.5 30q106 47 194 47q153 0 153 -166v-206q0 -73 28 -100zM352 232
q-28 4 -56 6t-56 2q-56 0 -87 -27t-31 -71q0 -45 21 -70q16 -19 42.5 -23.5t55.5 4t58.5 29t52.5 51.5v99zM241 637l-102 -99q-23 11 -34 32l107 132q24 7 60 1l102 -127q-14 -26 -38 -33zM396 712q-12 -23 -32 -29l-162 129q8 17 24 32t35 21z" />
    <glyph glyph-name="uni1EA8" unicode="&#x1ea8;" horiz-adv-x="593" 
d="M360 180h-134l-71 1l-60 -182q-13 -3 -30.5 -3t-35.5 5l-2 3l229 679q8 1 19 2t22.5 1t22 -1t16.5 -2l230 -679q-16 -10 -37.5 -10t-30.5 7q-8 7 -16 29l-50 151zM234 243h118h7t19 -1h34l-66 199q-16 48 -28.5 88.5t-22.5 75.5h-5q-17 -62 -33 -114l-82 -249zM297 813
l-112 -80q-25 9 -32 34l111 106q31 6 66 0l110 -102q-8 -26 -34 -33zM400 851q-1 -1 -2 0q-1 0 -3 4q-5 13 2 27.5t17.5 28.5t21.5 27t14 22q8 26 -2 40t-30 13q-31 -2 -34 -39q0 -6 -4 -6h-39q-1 -1 -2 0q-3 0 -4 6q-2 5 0.5 18t12 26.5t26.5 24.5t45 11q25 0 42 -8t27 -20
t14 -25.5t4 -23.5q0 -22 -11.5 -38t-24.5 -29.5t-23 -25t-7 -24.5q2 -8 -1 -8.5t-4 -0.5h-35z" />
    <glyph glyph-name="uni1EA9" unicode="&#x1ea9;" 
d="M445 28q-10 -25 -32 -35q-47 19 -58 72q-77 -77 -159 -77q-69 0 -106 43q-38 44 -38 102q0 81 49.5 120.5t137.5 39.5q29 0 57.5 -2.5t55.5 -7.5v53q0 105 -93 105q-71 0 -164 -42q-10 8 -17.5 24t-7.5 30q106 47 194 47q153 0 153 -166v-206q0 -73 28 -100zM352 232
q-28 4 -56 6t-56 2q-56 0 -87 -27t-31 -71q0 -45 21 -70q16 -19 42.5 -23.5t55.5 4t58.5 29t52.5 51.5v99zM241 637l-102 -99q-23 11 -34 32l107 132q24 7 60 1l102 -127q-14 -26 -38 -33zM342 683q-1 -1 -2 0q-1 0 -3 4q-5 13 2 27.5t17.5 28.5t21.5 27t14 22q8 26 -2 40
t-30 13q-31 -2 -34 -39q0 -6 -4 -6h-39q-1 -1 -2 0q-3 0 -4 6q-2 5 0.5 18t12 26.5t26.5 24.5t45 11q25 0 42 -8t27 -20t14 -25.5t4 -23.5q0 -22 -11.5 -38t-24.5 -29.5t-23 -25t-7 -24.5q2 -8 -1 -8.5t-4 -0.5h-35z" />
    <glyph glyph-name="uni1EAA" unicode="&#x1eaa;" horiz-adv-x="593" 
d="M360 180h-134l-71 1l-60 -182q-13 -3 -30.5 -3t-35.5 5l-2 3l229 679q8 1 19 2t22.5 1t22 -1t16.5 -2l230 -679q-16 -10 -37.5 -10t-30.5 7q-8 7 -16 29l-50 151zM234 243h118h7t19 -1h34l-66 199q-16 48 -28.5 88.5t-22.5 75.5h-5q-17 -62 -33 -114l-82 -249zM297 813
l-112 -80q-25 9 -32 34l111 106q31 6 66 0l110 -102q-8 -26 -34 -33zM252 972q-20 9 -38 9t-38 -26l-13 -16q-28 1 -36 23l9 20q21 46 61 57.5t81 -8.5l62 -30q18 -9 36.5 -9t39.5 26l13 16q25 -1 36 -22l-9 -20q-28 -64 -89 -64q-23 0 -53 14z" />
    <glyph glyph-name="uni1EAB" unicode="&#x1eab;" 
d="M445 28q-10 -25 -32 -35q-47 19 -58 72q-77 -77 -159 -77q-69 0 -106 43q-38 44 -38 102q0 81 49.5 120.5t137.5 39.5q29 0 57.5 -2.5t55.5 -7.5v53q0 105 -93 105q-71 0 -164 -42q-10 8 -17.5 24t-7.5 30q106 47 194 47q153 0 153 -166v-206q0 -73 28 -100zM352 232
q-28 4 -56 6t-56 2q-56 0 -87 -27t-31 -71q0 -45 21 -70q16 -19 42.5 -23.5t55.5 4t58.5 29t52.5 51.5v99zM241 637l-102 -99q-23 11 -34 32l107 132q24 7 60 1l102 -127q-14 -26 -38 -33zM198 798q-20 9 -38 9t-38 -26l-13 -16q-28 1 -36 23l9 20q21 46 61 57.5t81 -8.5
l62 -30q18 -9 36.5 -9t39.5 26l13 16q25 -1 36 -22l-9 -20q-28 -64 -89 -64q-23 0 -53 14z" />
    <glyph glyph-name="uni1EAC" unicode="&#x1eac;" horiz-adv-x="593" 
d="M360 180h-134l-71 1l-60 -182q-13 -3 -30.5 -3t-35.5 5l-2 3l229 679q8 1 19 2t22.5 1t22 -1t16.5 -2l230 -679q-16 -10 -37.5 -10t-30.5 7q-8 7 -16 29l-50 151zM234 243h118h7t19 -1h34l-66 199q-16 48 -28.5 88.5t-22.5 75.5h-5q-17 -62 -33 -114l-82 -249zM248 -133
q-7 14 -7 36.5t7 34.5q13 10 42 10q31 0 42 -10q7 -12 7 -34.5t-7 -36.5q-10 -10 -41 -10q-30 0 -43 10zM298 833l-102 -99q-23 11 -34 32l107 132q24 7 60 1l102 -127q-14 -26 -38 -33z" />
    <glyph glyph-name="uni1EAD" unicode="&#x1ead;" 
d="M445 28q-10 -25 -32 -35q-47 19 -58 72q-77 -77 -159 -77q-69 0 -106 43q-38 44 -38 102q0 81 49.5 120.5t137.5 39.5q29 0 57.5 -2.5t55.5 -7.5v53q0 105 -93 105q-71 0 -164 -42q-10 8 -17.5 24t-7.5 30q106 47 194 47q153 0 153 -166v-206q0 -73 28 -100zM352 232
q-28 4 -56 6t-56 2q-56 0 -87 -27t-31 -71q0 -45 21 -70q16 -19 42.5 -23.5t55.5 4t58.5 29t52.5 51.5v99zM200 -133q-7 14 -7 36.5t7 34.5q13 10 42 10q31 0 42 -10q7 -12 7 -34.5t-7 -36.5q-10 -10 -41 -10q-30 0 -43 10zM253 637l-102 -99q-23 11 -34 32l107 132
q24 7 60 1l102 -127q-14 -26 -38 -33z" />
    <glyph glyph-name="uni1EAE" unicode="&#x1eae;" horiz-adv-x="593" 
d="M360 180h-134l-71 1l-60 -182q-13 -3 -30.5 -3t-35.5 5l-2 3l229 679q8 1 19 2t22.5 1t22 -1t16.5 -2l230 -679q-16 -10 -37.5 -10t-30.5 7q-8 7 -16 29l-50 151zM234 243h118h7t19 -1h34l-66 199q-16 48 -28.5 88.5t-22.5 75.5h-5q-17 -62 -33 -114l-82 -249zM153 868
q-3 5 9.5 10t25.5 9q4 2 10.5 -6.5t16 -20.5t21 -24t24.5 -16q24 -8 45 -7t35 5q16 4 29 16.5t23 24.5t16.5 20.5t11.5 5.5q13 -5 20.5 -8t11.5 -15q-1 -17 -11.5 -33t-25 -28.5t-28.5 -21.5t-23 -12q-8 -3 -21.5 -6t-30.5 -3.5t-35 1.5t-33 8q-17 7 -32.5 19t-27.5 25.5
t-20 28.5t-11 28zM411 1056q19 -6 35 -21t24 -32l-162 -129q-23 6 -32 29z" />
    <glyph glyph-name="uni1EAF" unicode="&#x1eaf;" 
d="M445 28q-10 -25 -32 -35q-47 19 -58 72q-77 -77 -159 -77q-69 0 -106 43q-38 44 -38 102q0 81 49.5 120.5t137.5 39.5q29 0 57.5 -2.5t55.5 -7.5v53q0 105 -93 105q-71 0 -164 -42q-10 8 -17.5 24t-7.5 30q106 47 194 47q153 0 153 -166v-206q0 -73 28 -100zM352 232
q-28 4 -56 6t-56 2q-56 0 -87 -27t-31 -71q0 -45 21 -70q16 -19 42.5 -23.5t55.5 4t58.5 29t52.5 51.5v99zM108 672q-3 5 9.5 10t25.5 9q4 2 10.5 -6.5t16 -20.5t21 -24t24.5 -16q24 -8 45 -7t35 5q16 4 29 16.5t23 24.5t16.5 20.5t11.5 5.5q13 -5 20.5 -8t11.5 -15
q-1 -17 -11.5 -33t-25 -28.5t-28.5 -21.5t-23 -12q-8 -3 -21.5 -6t-30.5 -3.5t-35 1.5t-33 8q-17 7 -32.5 19t-27.5 25.5t-20 28.5t-11 28zM365 865q19 -6 35 -21t24 -32l-162 -129q-23 6 -32 29z" />
    <glyph glyph-name="uni1EB0" unicode="&#x1eb0;" horiz-adv-x="593" 
d="M360 180h-134l-71 1l-60 -182q-13 -3 -30.5 -3t-35.5 5l-2 3l229 679q8 1 19 2t22.5 1t22 -1t16.5 -2l230 -679q-16 -10 -37.5 -10t-30.5 7q-8 7 -16 29l-50 151zM234 243h118h7t19 -1h34l-66 199q-16 48 -28.5 88.5t-22.5 75.5h-5q-17 -62 -33 -114l-82 -249zM153 868
q-3 5 9.5 10t25.5 9q4 2 10.5 -6.5t16 -20.5t21 -24t24.5 -16q24 -8 45 -7t35 5q16 4 29 16.5t23 24.5t16.5 20.5t11.5 5.5q13 -5 20.5 -8t11.5 -15q-1 -17 -11.5 -33t-25 -28.5t-28.5 -21.5t-23 -12q-8 -3 -21.5 -6t-30.5 -3.5t-35 1.5t-33 8q-17 7 -32.5 19t-27.5 25.5
t-20 28.5t-11 28zM368 912q-12 -23 -32 -29l-162 129q8 17 24 32t35 21z" />
    <glyph glyph-name="uni1EB1" unicode="&#x1eb1;" 
d="M445 28q-10 -25 -32 -35q-47 19 -58 72q-77 -77 -159 -77q-69 0 -106 43q-38 44 -38 102q0 81 49.5 120.5t137.5 39.5q29 0 57.5 -2.5t55.5 -7.5v53q0 105 -93 105q-71 0 -164 -42q-10 8 -17.5 24t-7.5 30q106 47 194 47q153 0 153 -166v-206q0 -73 28 -100zM352 232
q-28 4 -56 6t-56 2q-56 0 -87 -27t-31 -71q0 -45 21 -70q16 -19 42.5 -23.5t55.5 4t58.5 29t52.5 51.5v99zM108 672q-3 5 9.5 10t25.5 9q4 2 10.5 -6.5t16 -20.5t21 -24t24.5 -16q24 -8 45 -7t35 5q16 4 29 16.5t23 24.5t16.5 20.5t11.5 5.5q13 -5 20.5 -8t11.5 -15
q-1 -17 -11.5 -33t-25 -28.5t-28.5 -21.5t-23 -12q-8 -3 -21.5 -6t-30.5 -3.5t-35 1.5t-33 8q-17 7 -32.5 19t-27.5 25.5t-20 28.5t-11 28zM309 712q-12 -23 -32 -29l-162 129q8 17 24 32t35 21z" />
    <glyph glyph-name="uni1EB2" unicode="&#x1eb2;" horiz-adv-x="593" 
d="M360 180h-134l-71 1l-60 -182q-13 -3 -30.5 -3t-35.5 5l-2 3l229 679q8 1 19 2t22.5 1t22 -1t16.5 -2l230 -679q-16 -10 -37.5 -10t-30.5 7q-8 7 -16 29l-50 151zM234 243h118h7t19 -1h34l-66 199q-16 48 -28.5 88.5t-22.5 75.5h-5q-17 -62 -33 -114l-82 -249zM153 868
q-3 5 9.5 10t25.5 9q4 2 10.5 -6.5t16 -20.5t21 -24t24.5 -16q24 -8 45 -7t35 5q16 4 29 16.5t23 24.5t16.5 20.5t11.5 5.5q13 -5 20.5 -8t11.5 -15q-1 -17 -11.5 -33t-25 -28.5t-28.5 -21.5t-23 -12q-8 -3 -21.5 -6t-30.5 -3.5t-35 1.5t-33 8q-17 7 -32.5 19t-27.5 25.5
t-20 28.5t-11 28zM295 878q-1 -1 -2 0q-1 0 -3 4q-5 13 2 27.5t17.5 28.5t21.5 27t14 22q8 26 -2 40t-30 13q-31 -2 -34 -39q0 -6 -4 -6h-39q-1 -1 -2 0q-3 0 -4 6q-2 5 0.5 18t12 26.5t26.5 24.5t45 11q25 0 42 -8t27 -20t14 -25.5t4 -23.5q0 -22 -11.5 -38t-24.5 -29.5
t-23 -25t-7 -24.5q2 -8 -1 -8.5t-4 -0.5h-35z" />
    <glyph glyph-name="uni1EB3" unicode="&#x1eb3;" 
d="M445 28q-10 -25 -32 -35q-47 19 -58 72q-77 -77 -159 -77q-69 0 -106 43q-38 44 -38 102q0 81 49.5 120.5t137.5 39.5q29 0 57.5 -2.5t55.5 -7.5v53q0 105 -93 105q-71 0 -164 -42q-10 8 -17.5 24t-7.5 30q106 47 194 47q153 0 153 -166v-206q0 -73 28 -100zM352 232
q-28 4 -56 6t-56 2q-56 0 -87 -27t-31 -71q0 -45 21 -70q16 -19 42.5 -23.5t55.5 4t58.5 29t52.5 51.5v99zM108 672q-3 5 9.5 10t25.5 9q4 2 10.5 -6.5t16 -20.5t21 -24t24.5 -16q24 -8 45 -7t35 5q16 4 29 16.5t23 24.5t16.5 20.5t11.5 5.5q13 -5 20.5 -8t11.5 -15
q-1 -17 -11.5 -33t-25 -28.5t-28.5 -21.5t-23 -12q-8 -3 -21.5 -6t-30.5 -3.5t-35 1.5t-33 8q-17 7 -32.5 19t-27.5 25.5t-20 28.5t-11 28zM251 685q-1 -1 -2 0q-1 0 -3 4q-5 13 2 27.5t17.5 28.5t21.5 27t14 22q8 26 -2 40t-30 13q-31 -2 -34 -39q0 -6 -4 -6h-39
q-1 -1 -2 0q-3 0 -4 6q-2 5 0.5 18t12 26.5t26.5 24.5t45 11q25 0 42 -8t27 -20t14 -25.5t4 -23.5q0 -22 -11.5 -38t-24.5 -29.5t-23 -25t-7 -24.5q2 -8 -1 -8.5t-4 -0.5h-35z" />
    <glyph glyph-name="uni1EB4" unicode="&#x1eb4;" horiz-adv-x="593" 
d="M360 180h-134l-71 1l-60 -182q-13 -3 -30.5 -3t-35.5 5l-2 3l229 679q8 1 19 2t22.5 1t22 -1t16.5 -2l230 -679q-16 -10 -37.5 -10t-30.5 7q-8 7 -16 29l-50 151zM234 243h118h7t19 -1h34l-66 199q-16 48 -28.5 88.5t-22.5 75.5h-5q-17 -62 -33 -114l-82 -249zM153 868
q-3 5 9.5 10t25.5 9q4 2 10.5 -6.5t16 -20.5t21 -24t24.5 -16q24 -8 45 -7t35 5q16 4 29 16.5t23 24.5t16.5 20.5t11.5 5.5q13 -5 20.5 -8t11.5 -15q-1 -17 -11.5 -33t-25 -28.5t-28.5 -21.5t-23 -12q-8 -3 -21.5 -6t-30.5 -3.5t-35 1.5t-33 8q-17 7 -32.5 19t-27.5 25.5
t-20 28.5t-11 28zM308 985q-20 9 -38 9t-38 -26l-13 -16q-28 1 -36 23l9 20q21 46 61 57.5t81 -8.5l62 -30q18 -9 36.5 -9t39.5 26l13 16q25 -1 36 -22l-9 -20q-28 -64 -89 -64q-23 0 -53 14z" />
    <glyph glyph-name="uni1EB5" unicode="&#x1eb5;" 
d="M445 28q-10 -25 -32 -35q-47 19 -58 72q-77 -77 -159 -77q-69 0 -106 43q-38 44 -38 102q0 81 49.5 120.5t137.5 39.5q29 0 57.5 -2.5t55.5 -7.5v53q0 105 -93 105q-71 0 -164 -42q-10 8 -17.5 24t-7.5 30q106 47 194 47q153 0 153 -166v-206q0 -73 28 -100zM352 232
q-28 4 -56 6t-56 2q-56 0 -87 -27t-31 -71q0 -45 21 -70q16 -19 42.5 -23.5t55.5 4t58.5 29t52.5 51.5v99zM108 672q-3 5 9.5 10t25.5 9q4 2 10.5 -6.5t16 -20.5t21 -24t24.5 -16q24 -8 45 -7t35 5q16 4 29 16.5t23 24.5t16.5 20.5t11.5 5.5q13 -5 20.5 -8t11.5 -15
q-1 -17 -11.5 -33t-25 -28.5t-28.5 -21.5t-23 -12q-8 -3 -21.5 -6t-30.5 -3.5t-35 1.5t-33 8q-17 7 -32.5 19t-27.5 25.5t-20 28.5t-11 28zM323 760q-20 9 -38 9t-38 -26l-13 -16q-28 1 -36 23l9 20q21 46 61 57.5t81 -8.5l62 -30q18 -9 36.5 -9t39.5 26l13 16q25 -1 36 -22
l-9 -20q-28 -64 -89 -64q-23 0 -53 14z" />
    <glyph glyph-name="uni1EB6" unicode="&#x1eb6;" horiz-adv-x="593" 
d="M360 180h-134l-71 1l-60 -182q-13 -3 -30.5 -3t-35.5 5l-2 3l229 679q8 1 19 2t22.5 1t22 -1t16.5 -2l230 -679q-16 -10 -37.5 -10t-30.5 7q-8 7 -16 29l-50 151zM234 243h118h7t19 -1h34l-66 199q-16 48 -28.5 88.5t-22.5 75.5h-5q-17 -62 -33 -114l-82 -249zM248 -133
q-7 14 -7 36.5t7 34.5q13 10 42 10q31 0 42 -10q7 -12 7 -34.5t-7 -36.5q-10 -10 -41 -10q-30 0 -43 10zM149 868q-3 5 9.5 10t25.5 9q4 2 10.5 -6.5t16 -20.5t21 -24t24.5 -16q24 -8 45 -7t35 5q16 4 29 16.5t23 24.5t16.5 20.5t11.5 5.5q13 -5 20.5 -8t11.5 -15
q-1 -17 -11.5 -33t-25 -28.5t-28.5 -21.5t-23 -12q-8 -3 -21.5 -6t-30.5 -3.5t-35 1.5t-33 8q-17 7 -32.5 19t-27.5 25.5t-20 28.5t-11 28z" />
    <glyph glyph-name="uni1EB7" unicode="&#x1eb7;" 
d="M445 28q-10 -25 -32 -35q-47 19 -58 72q-77 -77 -159 -77q-69 0 -106 43q-38 44 -38 102q0 81 49.5 120.5t137.5 39.5q29 0 57.5 -2.5t55.5 -7.5v53q0 105 -93 105q-71 0 -164 -42q-10 8 -17.5 24t-7.5 30q106 47 194 47q153 0 153 -166v-206q0 -73 28 -100zM352 232
q-28 4 -56 6t-56 2q-56 0 -87 -27t-31 -71q0 -45 21 -70q16 -19 42.5 -23.5t55.5 4t58.5 29t52.5 51.5v99zM200 -133q-7 14 -7 36.5t7 34.5q13 10 42 10q31 0 42 -10q7 -12 7 -34.5t-7 -36.5q-10 -10 -41 -10q-30 0 -43 10zM104 672q-3 5 9.5 10t25.5 9q4 2 10.5 -6.5
t16 -20.5t21 -24t24.5 -16q24 -8 45 -7t35 5q16 4 29 16.5t23 24.5t16.5 20.5t11.5 5.5q13 -5 20.5 -8t11.5 -15q-1 -17 -11.5 -33t-25 -28.5t-28.5 -21.5t-23 -12q-8 -3 -21.5 -6t-30.5 -3.5t-35 1.5t-33 8q-17 7 -32.5 19t-27.5 25.5t-20 28.5t-11 28z" />
    <glyph glyph-name="uni1EB8" unicode="&#x1eb8;" horiz-adv-x="562" 
d="M168 60q17 1 32 1.5t29 0.5h276q0 -10 -0.5 -17.5t-1.5 -12.5q-5 -32 -45 -32h-317q-19 0 -30 12.5t-11 34.5v630l6 6h384q2 -11 2 -29t-5 -32h-319v-15v-19.5t1 -26.5v-186l59 1h211q6 -30 0 -60h-211h-33.5t-25.5 1v-222zM239 -133q-7 14 -7 36.5t7 34.5q13 10 42 10
q31 0 42 -10q7 -12 7 -34.5t-7 -36.5q-10 -10 -41 -10q-30 0 -43 10z" />
    <glyph glyph-name="uni1EB9" unicode="&#x1eb9;" 
d="M126 224q4 -175 132 -175q70 0 146 43q21 -18 26 -48q-80 -56 -181 -56q-72 0 -116.5 37t-62.5 92q-17 57 -17 129q0 113 53 184q54 72 146 72q93 0 142 -61q50 -61 50 -153q0 -16 -1 -32t-3 -32h-314zM374 278v14q0 69 -30 113t-90 44t-92.5 -46.5t-35.5 -124.5h248z
M209 -133q-7 14 -7 36.5t7 34.5q13 10 42 10q31 0 42 -10q7 -12 7 -34.5t-7 -36.5q-10 -10 -41 -10q-30 0 -43 10z" />
    <glyph glyph-name="uni1EBA" unicode="&#x1eba;" horiz-adv-x="562" 
d="M168 60q17 1 32 1.5t29 0.5h276q0 -10 -0.5 -17.5t-1.5 -12.5q-5 -32 -45 -32h-317q-19 0 -30 12.5t-11 34.5v630l6 6h384q2 -11 2 -29t-5 -32h-319v-15v-19.5t1 -26.5v-186l59 1h211q6 -30 0 -60h-211h-33.5t-25.5 1v-222zM278 743q-1 -1 -2 0q-1 0 -3 4q-5 13 2 27.5
t17.5 28.5t21.5 27t14 22q8 26 -2 40t-30 13q-31 -2 -34 -39q0 -6 -4 -6h-39q-1 -1 -2 0q-3 0 -4 6q-2 5 0.5 18t12 26.5t26.5 24.5t45 11q25 0 42 -8t27 -20t14 -25.5t4 -23.5q0 -22 -11.5 -38t-24.5 -29.5t-23 -25t-7 -24.5q2 -8 -1 -8.5t-4 -0.5h-35z" />
    <glyph glyph-name="uni1EBB" unicode="&#x1ebb;" 
d="M126 224q4 -175 132 -175q70 0 146 43q21 -18 26 -48q-80 -56 -181 -56q-72 0 -116.5 37t-62.5 92q-17 57 -17 129q0 113 53 184q54 72 146 72q93 0 142 -61q50 -61 50 -153q0 -16 -1 -32t-3 -32h-314zM374 278v14q0 69 -30 113t-90 44t-92.5 -46.5t-35.5 -124.5h248z
M233 557q-1 -1 -2 0q-1 0 -3 4q-5 13 2 27.5t17.5 28.5t21.5 27t14 22q8 26 -2 40t-30 13q-31 -2 -34 -39q0 -6 -4 -6h-39q-1 -1 -2 0q-3 0 -4 6q-2 5 0.5 18t12 26.5t26.5 24.5t45 11q25 0 42 -8t27 -20t14 -25.5t4 -23.5q0 -22 -11.5 -38t-24.5 -29.5t-23 -25t-7 -24.5
q2 -8 -1 -8.5t-4 -0.5h-35z" />
    <glyph glyph-name="uni1EBC" unicode="&#x1ebc;" horiz-adv-x="562" 
d="M168 60q17 1 32 1.5t29 0.5h276q0 -10 -0.5 -17.5t-1.5 -12.5q-5 -32 -45 -32h-317q-19 0 -30 12.5t-11 34.5v630l6 6h384q2 -11 2 -29t-5 -32h-319v-15v-19.5t1 -26.5v-186l59 1h211q6 -30 0 -60h-211h-33.5t-25.5 1v-222zM251 783q-20 9 -38 9t-38 -26l-13 -16
q-28 1 -36 23l9 20q21 46 61 57.5t81 -8.5l62 -30q18 -9 36.5 -9t39.5 26l13 16q25 -1 36 -22l-9 -20q-28 -64 -89 -64q-23 0 -53 14z" />
    <glyph glyph-name="uni1EBD" unicode="&#x1ebd;" 
d="M126 224q4 -175 132 -175q70 0 146 43q21 -18 26 -48q-80 -56 -181 -56q-72 0 -116.5 37t-62.5 92q-17 57 -17 129q0 113 53 184q54 72 146 72q93 0 142 -61q50 -61 50 -153q0 -16 -1 -32t-3 -32h-314zM374 278v14q0 69 -30 113t-90 44t-92.5 -46.5t-35.5 -124.5h248z
M207 601q-20 9 -38 9t-38 -26l-13 -16q-28 1 -36 23l9 20q21 46 61 57.5t81 -8.5l62 -30q18 -9 36.5 -9t39.5 26l13 16q25 -1 36 -22l-9 -20q-28 -64 -89 -64q-23 0 -53 14z" />
    <glyph glyph-name="uni1EBE" unicode="&#x1ebe;" horiz-adv-x="562" 
d="M168 60q17 1 32 1.5t29 0.5h276q0 -10 -0.5 -17.5t-1.5 -12.5q-5 -32 -45 -32h-317q-19 0 -30 12.5t-11 34.5v630l6 6h384q2 -11 2 -29t-5 -32h-319v-15v-19.5t1 -26.5v-186l59 1h211q6 -30 0 -60h-211h-33.5t-25.5 1v-222zM299 813l-112 -80q-25 9 -32 34l111 106
q31 6 66 0l110 -102q-8 -26 -34 -33zM539 1022q19 -6 35 -21t24 -32l-162 -129q-23 6 -32 29z" />
    <glyph glyph-name="uni1EBF" unicode="&#x1ebf;" 
d="M126 224q4 -175 132 -175q70 0 146 43q21 -18 26 -48q-80 -56 -181 -56q-72 0 -116.5 37t-62.5 92q-17 57 -17 129q0 113 53 184q54 72 146 72q93 0 142 -61q50 -61 50 -153q0 -16 -1 -32t-3 -32h-314zM374 278v14q0 69 -30 113t-90 44t-92.5 -46.5t-35.5 -124.5h248z
M255 637l-102 -99q-23 11 -34 32l107 132q24 7 60 1l102 -127q-14 -26 -38 -33zM479 865q19 -6 35 -21t24 -32l-162 -129q-23 6 -32 29z" />
    <glyph glyph-name="uni1EC0" unicode="&#x1ec0;" horiz-adv-x="562" 
d="M168 60q17 1 32 1.5t29 0.5h276q0 -10 -0.5 -17.5t-1.5 -12.5q-5 -32 -45 -32h-317q-19 0 -30 12.5t-11 34.5v630l6 6h384q2 -11 2 -29t-5 -32h-319v-15v-19.5t1 -26.5v-186l59 1h211q6 -30 0 -60h-211h-33.5t-25.5 1v-222zM299 813l-112 -80q-25 9 -32 34l111 106
q31 6 66 0l110 -102q-8 -26 -34 -33zM490 879q-12 -23 -32 -29l-162 129q8 17 24 32t35 21z" />
    <glyph glyph-name="uni1EC1" unicode="&#x1ec1;" 
d="M126 224q4 -175 132 -175q70 0 146 43q21 -18 26 -48q-80 -56 -181 -56q-72 0 -116.5 37t-62.5 92q-17 57 -17 129q0 113 53 184q54 72 146 72q93 0 142 -61q50 -61 50 -153q0 -16 -1 -32t-3 -32h-314zM374 278v14q0 69 -30 113t-90 44t-92.5 -46.5t-35.5 -124.5h248z
M255 637l-102 -99q-23 11 -34 32l107 132q24 7 60 1l102 -127q-14 -26 -38 -33zM424 712q-12 -23 -32 -29l-162 129q8 17 24 32t35 21z" />
    <glyph glyph-name="uni1EC2" unicode="&#x1ec2;" horiz-adv-x="562" 
d="M168 60q17 1 32 1.5t29 0.5h276q0 -10 -0.5 -17.5t-1.5 -12.5q-5 -32 -45 -32h-317q-19 0 -30 12.5t-11 34.5v630l6 6h384q2 -11 2 -29t-5 -32h-319v-15v-19.5t1 -26.5v-186l59 1h211q6 -30 0 -60h-211h-33.5t-25.5 1v-222zM299 813l-112 -80q-25 9 -32 34l111 106
q31 6 66 0l110 -102q-8 -26 -34 -33zM438 840q-1 -1 -2 0q-1 0 -3 4q-5 13 2 27.5t17.5 28.5t21.5 27t14 22q8 26 -2 40t-30 13q-31 -2 -34 -39q0 -6 -4 -6h-39q-1 -1 -2 0q-3 0 -4 6q-2 5 0.5 18t12 26.5t26.5 24.5t45 11q25 0 42 -8t27 -20t14 -25.5t4 -23.5
q0 -22 -11.5 -38t-24.5 -29.5t-23 -25t-7 -24.5q2 -8 -1 -8.5t-4 -0.5h-35z" />
    <glyph glyph-name="uni1EC3" unicode="&#x1ec3;" 
d="M126 224q4 -175 132 -175q70 0 146 43q21 -18 26 -48q-80 -56 -181 -56q-72 0 -116.5 37t-62.5 92q-17 57 -17 129q0 113 53 184q54 72 146 72q93 0 142 -61q50 -61 50 -153q0 -16 -1 -32t-3 -32h-314zM374 278v14q0 69 -30 113t-90 44t-92.5 -46.5t-35.5 -124.5h248z
M255 637l-102 -99q-23 11 -34 32l107 132q24 7 60 1l102 -127q-14 -26 -38 -33zM377 680q-1 -1 -2 0q-1 0 -3 4q-5 13 2 27.5t17.5 28.5t21.5 27t14 22q8 26 -2 40t-30 13q-31 -2 -34 -39q0 -6 -4 -6h-39q-1 -1 -2 0q-3 0 -4 6q-2 5 0.5 18t12 26.5t26.5 24.5t45 11
q25 0 42 -8t27 -20t14 -25.5t4 -23.5q0 -22 -11.5 -38t-24.5 -29.5t-23 -25t-7 -24.5q2 -8 -1 -8.5t-4 -0.5h-35z" />
    <glyph glyph-name="uni1EC4" unicode="&#x1ec4;" horiz-adv-x="562" 
d="M168 60q17 1 32 1.5t29 0.5h276q0 -10 -0.5 -17.5t-1.5 -12.5q-5 -32 -45 -32h-317q-19 0 -30 12.5t-11 34.5v630l6 6h384q2 -11 2 -29t-5 -32h-319v-15v-19.5t1 -26.5v-186l59 1h211q6 -30 0 -60h-211h-33.5t-25.5 1v-222zM299 813l-112 -80q-25 9 -32 34l111 106
q31 6 66 0l110 -102q-8 -26 -34 -33zM257 960q-20 9 -38 9t-38 -26l-13 -16q-28 1 -36 23l9 20q21 46 61 57.5t81 -8.5l62 -30q18 -9 36.5 -9t39.5 26l13 16q25 -1 36 -22l-9 -20q-28 -64 -89 -64q-23 0 -53 14z" />
    <glyph glyph-name="uni1EC5" unicode="&#x1ec5;" 
d="M126 224q4 -175 132 -175q70 0 146 43q21 -18 26 -48q-80 -56 -181 -56q-72 0 -116.5 37t-62.5 92q-17 57 -17 129q0 113 53 184q54 72 146 72q93 0 142 -61q50 -61 50 -153q0 -16 -1 -32t-3 -32h-314zM374 278v14q0 69 -30 113t-90 44t-92.5 -46.5t-35.5 -124.5h248z
M255 637l-102 -99q-23 11 -34 32l107 132q24 7 60 1l102 -127q-14 -26 -38 -33zM216 795q-20 9 -38 9t-38 -26l-13 -16q-28 1 -36 23l9 20q21 46 61 57.5t81 -8.5l62 -30q18 -9 36.5 -9t39.5 26l13 16q25 -1 36 -22l-9 -20q-28 -64 -89 -64q-23 0 -53 14z" />
    <glyph glyph-name="uni1EC6" unicode="&#x1ec6;" horiz-adv-x="562" 
d="M168 60q17 1 32 1.5t29 0.5h276q0 -10 -0.5 -17.5t-1.5 -12.5q-5 -32 -45 -32h-317q-19 0 -30 12.5t-11 34.5v630l6 6h384q2 -11 2 -29t-5 -32h-319v-15v-19.5t1 -26.5v-186l59 1h211q6 -30 0 -60h-211h-33.5t-25.5 1v-222zM239 -133q-7 14 -7 36.5t7 34.5q13 10 42 10
q31 0 42 -10q7 -12 7 -34.5t-7 -36.5q-10 -10 -41 -10q-30 0 -43 10zM282 833l-102 -99q-23 11 -34 32l107 132q24 7 60 1l102 -127q-14 -26 -38 -33z" />
    <glyph glyph-name="uni1EC7" unicode="&#x1ec7;" 
d="M126 224q4 -175 132 -175q70 0 146 43q21 -18 26 -48q-80 -56 -181 -56q-72 0 -116.5 37t-62.5 92q-17 57 -17 129q0 113 53 184q54 72 146 72q93 0 142 -61q50 -61 50 -153q0 -16 -1 -32t-3 -32h-314zM374 278v14q0 69 -30 113t-90 44t-92.5 -46.5t-35.5 -124.5h248z
M209 -133q-7 14 -7 36.5t7 34.5q13 10 42 10q31 0 42 -10q7 -12 7 -34.5t-7 -36.5q-10 -10 -41 -10q-30 0 -43 10zM253 637l-102 -99q-23 11 -34 32l107 132q24 7 60 1l102 -127q-14 -26 -38 -33z" />
    <glyph glyph-name="uni1EC8" unicode="&#x1ec8;" horiz-adv-x="279" 
d="M104 683q13 3 34.5 3t36.5 -3v-683q-15 -3 -36 -3t-35 3v683zM123 743q-1 -1 -2 0q-1 0 -3 4q-5 13 2 27.5t17.5 28.5t21.5 27t14 22q8 26 -2 40t-30 13q-31 -2 -34 -39q0 -6 -4 -6h-39q-1 -1 -2 0q-3 0 -4 6q-2 5 0.5 18t12 26.5t26.5 24.5t45 11q25 0 42 -8t27 -20
t14 -25.5t4 -23.5q0 -22 -11.5 -38t-24.5 -29.5t-23 -25t-7 -24.5q2 -8 -1 -8.5t-4 -0.5h-35z" />
    <glyph glyph-name="uni1EC9" unicode="&#x1ec9;" horiz-adv-x="253" 
d="M165 425q0 32 -16.5 50t-45.5 18h-8q-10 0 -22 -1t-26 -3q-6 -28 0 -51h9q23 0 32 -10t9 -38v-390q13 -3 34 -3t34 3v425zM95 573q-1 -1 -2 0q-1 0 -3 4q-5 13 2 27.5t17.5 28.5t21.5 27t14 22q8 26 -2 40t-30 13q-31 -2 -34 -39q0 -6 -4 -6h-39q-1 -1 -2 0q-3 0 -4 6
q-2 5 0.5 18t12 26.5t26.5 24.5t45 11q25 0 42 -8t27 -20t14 -25.5t4 -23.5q0 -22 -11.5 -38t-24.5 -29.5t-23 -25t-7 -24.5q2 -8 -1 -8.5t-4 -0.5h-35z" />
    <glyph glyph-name="uni1ECA" unicode="&#x1eca;" horiz-adv-x="279" 
d="M104 683q13 3 34.5 3t36.5 -3v-683q-15 -3 -36 -3t-35 3v683zM99 -133q-7 14 -7 36.5t7 34.5q13 10 42 10q31 0 42 -10q7 -12 7 -34.5t-7 -36.5q-10 -10 -41 -10q-30 0 -43 10z" />
    <glyph glyph-name="uni1ECB" unicode="&#x1ecb;" horiz-adv-x="253" 
d="M165 0q-13 -3 -34 -3t-34 3v390q0 28 -9 38t-32 10h-9q-6 23 0 51q14 2 26 3t22 1h8q29 0 45.5 -18t16.5 -50v-425zM74 588q-7 14 -7 36.5t7 34.5q13 10 42 10q31 0 42 -10q7 -12 7 -34.5t-7 -36.5q-10 -10 -41 -10q-30 0 -43 10zM86 -133q-7 14 -7 36.5t7 34.5
q13 10 42 10q31 0 42 -10q7 -12 7 -34.5t-7 -36.5q-10 -10 -41 -10q-30 0 -43 10z" />
    <glyph glyph-name="uni1ECC" unicode="&#x1ecc;" horiz-adv-x="652" 
d="M141 444q-8 -48 -8 -102t8 -102q9 -48 29.5 -93.5t59.5 -72.5q41 -26 96 -26t95 26q40 27 60 72.5t28 93.5q9 48 9 101.5t-9 101.5q-4 24 -11 48t-17.5 45.5t-25 40t-34.5 31.5q-39 27 -95 27t-96 -27q-39 -26 -59.5 -71t-29.5 -93zM58 342q0 45 6.5 87.5t19.5 80.5
t33 70.5t47 56.5q64 58 162 58q99 0 161 -58q27 -24 47 -56.5t33 -70.5t19.5 -80.5t6.5 -87.5q0 -202 -106 -296q-62 -58 -161 -58q-98 0 -162 58q-106 94 -106 296zM284 -133q-7 14 -7 36.5t7 34.5q13 10 42 10q31 0 42 -10q7 -12 7 -34.5t-7 -36.5q-10 -10 -41 -10
q-30 0 -43 10z" />
    <glyph glyph-name="uni1ECD" unicode="&#x1ecd;" horiz-adv-x="519" 
d="M396 41q-53 -53 -137 -53q-83 0 -136 53q-70 70 -70 204t70 204q53 53 136 53q84 0 137 -53q70 -70 70 -204t-70 -204zM260 42q49 0 80 31q55 55 55 172q0 85 -33 144q-32 60 -103 60q-70 0 -103 -60q-32 -59 -32 -145q0 -85 32 -144q33 -58 104 -58zM217 -133
q-7 14 -7 36.5t7 34.5q13 10 42 10q31 0 42 -10q7 -12 7 -34.5t-7 -36.5q-10 -10 -41 -10q-30 0 -43 10z" />
    <glyph glyph-name="uni1ECE" unicode="&#x1ece;" horiz-adv-x="652" 
d="M141 444q-8 -48 -8 -102t8 -102q9 -48 29.5 -93.5t59.5 -72.5q41 -26 96 -26t95 26q40 27 60 72.5t28 93.5q9 48 9 101.5t-9 101.5q-4 24 -11 48t-17.5 45.5t-25 40t-34.5 31.5q-39 27 -95 27t-96 -27q-39 -26 -59.5 -71t-29.5 -93zM58 342q0 45 6.5 87.5t19.5 80.5
t33 70.5t47 56.5q64 58 162 58q99 0 161 -58q27 -24 47 -56.5t33 -70.5t19.5 -80.5t6.5 -87.5q0 -202 -106 -296q-62 -58 -161 -58q-98 0 -162 58q-106 94 -106 296zM305 743q-1 -1 -2 0q-1 0 -3 4q-5 13 2 27.5t17.5 28.5t21.5 27t14 22q8 26 -2 40t-30 13q-31 -2 -34 -39
q0 -6 -4 -6h-39q-1 -1 -2 0q-3 0 -4 6q-2 5 0.5 18t12 26.5t26.5 24.5t45 11q25 0 42 -8t27 -20t14 -25.5t4 -23.5q0 -22 -11.5 -38t-24.5 -29.5t-23 -25t-7 -24.5q2 -8 -1 -8.5t-4 -0.5h-35z" />
    <glyph glyph-name="uni1ECF" unicode="&#x1ecf;" horiz-adv-x="519" 
d="M396 41q-53 -53 -137 -53q-83 0 -136 53q-70 70 -70 204t70 204q53 53 136 53q84 0 137 -53q70 -70 70 -204t-70 -204zM260 42q49 0 80 31q55 55 55 172q0 85 -33 144q-32 60 -103 60q-70 0 -103 -60q-32 -59 -32 -145q0 -85 32 -144q33 -58 104 -58zM241 567q-1 -1 -2 0
q-1 0 -3 4q-5 13 2 27.5t17.5 28.5t21.5 27t14 22q8 26 -2 40t-30 13q-31 -2 -34 -39q0 -6 -4 -6h-39q-1 -1 -2 0q-3 0 -4 6q-2 5 0.5 18t12 26.5t26.5 24.5t45 11q25 0 42 -8t27 -20t14 -25.5t4 -23.5q0 -22 -11.5 -38t-24.5 -29.5t-23 -25t-7 -24.5q2 -8 -1 -8.5t-4 -0.5
h-35z" />
    <glyph glyph-name="uni1ED0" unicode="&#x1ed0;" horiz-adv-x="652" 
d="M141 444q-8 -48 -8 -102t8 -102q9 -48 29.5 -93.5t59.5 -72.5q41 -26 96 -26t95 26q40 27 60 72.5t28 93.5q9 48 9 101.5t-9 101.5q-4 24 -11 48t-17.5 45.5t-25 40t-34.5 31.5q-39 27 -95 27t-96 -27q-39 -26 -59.5 -71t-29.5 -93zM58 342q0 45 6.5 87.5t19.5 80.5
t33 70.5t47 56.5q64 58 162 58q99 0 161 -58q27 -24 47 -56.5t33 -70.5t19.5 -80.5t6.5 -87.5q0 -202 -106 -296q-62 -58 -161 -58q-98 0 -162 58q-106 94 -106 296zM326 813l-112 -80q-25 9 -32 34l111 106q31 6 66 0l110 -102q-8 -26 -34 -33zM564 1022q19 -6 35 -21
t24 -32l-162 -129q-23 6 -32 29z" />
    <glyph glyph-name="uni1ED1" unicode="&#x1ed1;" horiz-adv-x="519" 
d="M396 41q-53 -53 -137 -53q-83 0 -136 53q-70 70 -70 204t70 204q53 53 136 53q84 0 137 -53q70 -70 70 -204t-70 -204zM260 42q49 0 80 31q55 55 55 172q0 85 -33 144q-32 60 -103 60q-70 0 -103 -60q-32 -59 -32 -145q0 -85 32 -144q33 -58 104 -58zM259 637l-102 -99
q-23 11 -34 32l107 132q24 7 60 1l102 -127q-14 -26 -38 -33zM481 865q19 -6 35 -21t24 -32l-162 -129q-23 6 -32 29z" />
    <glyph glyph-name="uni1ED2" unicode="&#x1ed2;" horiz-adv-x="652" 
d="M141 444q-8 -48 -8 -102t8 -102q9 -48 29.5 -93.5t59.5 -72.5q41 -26 96 -26t95 26q40 27 60 72.5t28 93.5q9 48 9 101.5t-9 101.5q-4 24 -11 48t-17.5 45.5t-25 40t-34.5 31.5q-39 27 -95 27t-96 -27q-39 -26 -59.5 -71t-29.5 -93zM58 342q0 45 6.5 87.5t19.5 80.5
t33 70.5t47 56.5q64 58 162 58q99 0 161 -58q27 -24 47 -56.5t33 -70.5t19.5 -80.5t6.5 -87.5q0 -202 -106 -296q-62 -58 -161 -58q-98 0 -162 58q-106 94 -106 296zM326 813l-112 -80q-25 9 -32 34l111 106q31 6 66 0l110 -102q-8 -26 -34 -33zM515 879q-12 -23 -32 -29
l-162 129q8 17 24 32t35 21z" />
    <glyph glyph-name="uni1ED3" unicode="&#x1ed3;" horiz-adv-x="519" 
d="M396 41q-53 -53 -137 -53q-83 0 -136 53q-70 70 -70 204t70 204q53 53 136 53q84 0 137 -53q70 -70 70 -204t-70 -204zM260 42q49 0 80 31q55 55 55 172q0 85 -33 144q-32 60 -103 60q-70 0 -103 -60q-32 -59 -32 -145q0 -85 32 -144q33 -58 104 -58zM259 637l-102 -99
q-23 11 -34 32l107 132q24 7 60 1l102 -127q-14 -26 -38 -33zM452 712q-12 -23 -32 -29l-162 129q8 17 24 32t35 21z" />
    <glyph glyph-name="uni1ED4" unicode="&#x1ed4;" horiz-adv-x="652" 
d="M141 444q-8 -48 -8 -102t8 -102q9 -48 29.5 -93.5t59.5 -72.5q41 -26 96 -26t95 26q40 27 60 72.5t28 93.5q9 48 9 101.5t-9 101.5q-4 24 -11 48t-17.5 45.5t-25 40t-34.5 31.5q-39 27 -95 27t-96 -27q-39 -26 -59.5 -71t-29.5 -93zM58 342q0 45 6.5 87.5t19.5 80.5
t33 70.5t47 56.5q64 58 162 58q99 0 161 -58q27 -24 47 -56.5t33 -70.5t19.5 -80.5t6.5 -87.5q0 -202 -106 -296q-62 -58 -161 -58q-98 0 -162 58q-106 94 -106 296zM326 813l-112 -80q-25 9 -32 34l111 106q31 6 66 0l110 -102q-8 -26 -34 -33zM455 840q-1 -1 -2 0
q-1 0 -3 4q-5 13 2 27.5t17.5 28.5t21.5 27t14 22q8 26 -2 40t-30 13q-31 -2 -34 -39q0 -6 -4 -6h-39q-1 -1 -2 0q-3 0 -4 6q-2 5 0.5 18t12 26.5t26.5 24.5t45 11q25 0 42 -8t27 -20t14 -25.5t4 -23.5q0 -22 -11.5 -38t-24.5 -29.5t-23 -25t-7 -24.5q2 -8 -1 -8.5t-4 -0.5
h-35z" />
    <glyph glyph-name="uni1ED5" unicode="&#x1ed5;" horiz-adv-x="519" 
d="M396 41q-53 -53 -137 -53q-83 0 -136 53q-70 70 -70 204t70 204q53 53 136 53q84 0 137 -53q70 -70 70 -204t-70 -204zM260 42q49 0 80 31q55 55 55 172q0 85 -33 144q-32 60 -103 60q-70 0 -103 -60q-32 -59 -32 -145q0 -85 32 -144q33 -58 104 -58zM259 637l-102 -99
q-23 11 -34 32l107 132q24 7 60 1l102 -127q-14 -26 -38 -33zM366 683q-1 -1 -2 0q-1 0 -3 4q-5 13 2 27.5t17.5 28.5t21.5 27t14 22q8 26 -2 40t-30 13q-31 -2 -34 -39q0 -6 -4 -6h-39q-1 -1 -2 0q-3 0 -4 6q-2 5 0.5 18t12 26.5t26.5 24.5t45 11q25 0 42 -8t27 -20
t14 -25.5t4 -23.5q0 -22 -11.5 -38t-24.5 -29.5t-23 -25t-7 -24.5q2 -8 -1 -8.5t-4 -0.5h-35z" />
    <glyph glyph-name="uni1ED6" unicode="&#x1ed6;" horiz-adv-x="652" 
d="M141 444q-8 -48 -8 -102t8 -102q9 -48 29.5 -93.5t59.5 -72.5q41 -26 96 -26t95 26q40 27 60 72.5t28 93.5q9 48 9 101.5t-9 101.5q-4 24 -11 48t-17.5 45.5t-25 40t-34.5 31.5q-39 27 -95 27t-96 -27q-39 -26 -59.5 -71t-29.5 -93zM58 342q0 45 6.5 87.5t19.5 80.5
t33 70.5t47 56.5q64 58 162 58q99 0 161 -58q27 -24 47 -56.5t33 -70.5t19.5 -80.5t6.5 -87.5q0 -202 -106 -296q-62 -58 -161 -58q-98 0 -162 58q-106 94 -106 296zM326 813l-112 -80q-25 9 -32 34l111 106q31 6 66 0l110 -102q-8 -26 -34 -33zM282 949q-20 9 -38 9
t-38 -26l-13 -16q-28 1 -36 23l9 20q21 46 61 57.5t81 -8.5l62 -30q18 -9 36.5 -9t39.5 26l13 16q25 -1 36 -22l-9 -20q-28 -64 -89 -64q-23 0 -53 14z" />
    <glyph glyph-name="uni1ED7" unicode="&#x1ed7;" horiz-adv-x="519" 
d="M396 41q-53 -53 -137 -53q-83 0 -136 53q-70 70 -70 204t70 204q53 53 136 53q84 0 137 -53q70 -70 70 -204t-70 -204zM260 42q49 0 80 31q55 55 55 172q0 85 -33 144q-32 60 -103 60q-70 0 -103 -60q-32 -59 -32 -145q0 -85 32 -144q33 -58 104 -58zM259 637l-102 -99
q-23 11 -34 32l107 132q24 7 60 1l102 -127q-14 -26 -38 -33zM215 785q-20 9 -38 9t-38 -26l-13 -16q-28 1 -36 23l9 20q21 46 61 57.5t81 -8.5l62 -30q18 -9 36.5 -9t39.5 26l13 16q25 -1 36 -22l-9 -20q-28 -64 -89 -64q-23 0 -53 14z" />
    <glyph glyph-name="uni1ED8" unicode="&#x1ed8;" horiz-adv-x="652" 
d="M141 444q-8 -48 -8 -102t8 -102q9 -48 29.5 -93.5t59.5 -72.5q41 -26 96 -26t95 26q40 27 60 72.5t28 93.5q9 48 9 101.5t-9 101.5q-4 24 -11 48t-17.5 45.5t-25 40t-34.5 31.5q-39 27 -95 27t-96 -27q-39 -26 -59.5 -71t-29.5 -93zM58 342q0 45 6.5 87.5t19.5 80.5
t33 70.5t47 56.5q64 58 162 58q99 0 161 -58q27 -24 47 -56.5t33 -70.5t19.5 -80.5t6.5 -87.5q0 -202 -106 -296q-62 -58 -161 -58q-98 0 -162 58q-106 94 -106 296zM284 -133q-7 14 -7 36.5t7 34.5q13 10 42 10q31 0 42 -10q7 -12 7 -34.5t-7 -36.5q-10 -10 -41 -10
q-30 0 -43 10zM327 833l-102 -99q-23 11 -34 32l107 132q24 7 60 1l102 -127q-14 -26 -38 -33z" />
    <glyph glyph-name="uni1ED9" unicode="&#x1ed9;" horiz-adv-x="519" 
d="M396 41q-53 -53 -137 -53q-83 0 -136 53q-70 70 -70 204t70 204q53 53 136 53q84 0 137 -53q70 -70 70 -204t-70 -204zM260 42q49 0 80 31q55 55 55 172q0 85 -33 144q-32 60 -103 60q-70 0 -103 -60q-32 -59 -32 -145q0 -85 32 -144q33 -58 104 -58zM217 -133
q-7 14 -7 36.5t7 34.5q13 10 42 10q31 0 42 -10q7 -12 7 -34.5t-7 -36.5q-10 -10 -41 -10q-30 0 -43 10zM261 637l-102 -99q-23 11 -34 32l107 132q24 7 60 1l102 -127q-14 -26 -38 -33z" />
    <glyph glyph-name="uni1EDA" unicode="&#x1eda;" horiz-adv-x="652" 
d="M58 342q0 45 6.5 87.5t19.5 80.5t33 70.5t47 56.5q64 58 162 58q99 0 161 -58q19 -17 34 -37.5t27 -44.5q12 5 18.5 13t10 16.5t4 14.5l0.5 6v78q1 3 10.5 5t21 2t21.5 -1.5t13 -5.5v-97q-1 -16 -9.5 -27.5t-21 -19.5t-27 -12.5t-26.5 -7.5q30 -80 30 -177
q0 -202 -106 -296q-62 -58 -161 -58q-98 0 -162 58q-106 94 -106 296zM141 444q-8 -48 -8 -102t8 -102q9 -48 29.5 -93.5t59.5 -72.5q41 -26 96 -26t95 26q40 27 60 72.5t28 93.5q9 48 9 101.5t-9 101.5q-4 24 -11 48t-17.5 45.5t-25 40t-34.5 31.5q-39 27 -95 27t-96 -27
q-39 -26 -59.5 -71t-29.5 -93zM407 914q19 -6 35 -21t24 -32l-162 -129q-23 6 -32 29z" />
    <glyph glyph-name="uni1EDB" unicode="&#x1edb;" horiz-adv-x="519" 
d="M396 41q-53 -53 -137 -53q-83 0 -136 53q-70 70 -70 204t70 204q53 53 136 53q84 0 137 -53q27 -27 44 -64q17 8 19.5 17t1.5 10v78q1 3 10.5 5t21 2t21.5 -1.5t13 -5.5v-97q-1 -14 -8 -23.5t-17.5 -15.5t-22.5 -9t-24 -4q11 -46 11 -96q0 -134 -70 -204zM260 42
q49 0 80 31q55 55 55 172q0 85 -33 144q-32 60 -103 60q-70 0 -103 -60q-32 -59 -32 -145q0 -85 32 -144q33 -58 104 -58zM321 718q19 -6 35 -21t24 -32l-162 -129q-23 6 -32 29z" />
    <glyph glyph-name="uni1EDC" unicode="&#x1edc;" horiz-adv-x="652" 
d="M58 342q0 45 6.5 87.5t19.5 80.5t33 70.5t47 56.5q64 58 162 58q99 0 161 -58q19 -17 34 -37.5t27 -44.5q12 5 18.5 13t10 16.5t4 14.5l0.5 6v78q1 3 10.5 5t21 2t21.5 -1.5t13 -5.5v-97q-1 -16 -9.5 -27.5t-21 -19.5t-27 -12.5t-26.5 -7.5q30 -80 30 -177
q0 -202 -106 -296q-62 -58 -161 -58q-98 0 -162 58q-106 94 -106 296zM141 444q-8 -48 -8 -102t8 -102q9 -48 29.5 -93.5t59.5 -72.5q41 -26 96 -26t95 26q40 27 60 72.5t28 93.5q9 48 9 101.5t-9 101.5q-4 24 -11 48t-17.5 45.5t-25 40t-34.5 31.5q-39 27 -95 27t-96 -27
q-39 -26 -59.5 -71t-29.5 -93zM385 761q-12 -23 -32 -29l-162 129q8 17 24 32t35 21z" />
    <glyph glyph-name="uni1EDD" unicode="&#x1edd;" horiz-adv-x="519" 
d="M396 41q-53 -53 -137 -53q-83 0 -136 53q-70 70 -70 204t70 204q53 53 136 53q84 0 137 -53q27 -27 44 -64q17 8 19.5 17t1.5 10v78q1 3 10.5 5t21 2t21.5 -1.5t13 -5.5v-97q-1 -14 -8 -23.5t-17.5 -15.5t-22.5 -9t-24 -4q11 -46 11 -96q0 -134 -70 -204zM260 42
q49 0 80 31q55 55 55 172q0 85 -33 144q-32 60 -103 60q-70 0 -103 -60q-32 -59 -32 -145q0 -85 32 -144q33 -58 104 -58zM343 565q-12 -23 -32 -29l-162 129q8 17 24 32t35 21z" />
    <glyph glyph-name="uni1EDE" unicode="&#x1ede;" horiz-adv-x="652" 
d="M58 342q0 45 6.5 87.5t19.5 80.5t33 70.5t47 56.5q64 58 162 58q99 0 161 -58q19 -17 34 -37.5t27 -44.5q12 5 18.5 13t10 16.5t4 14.5l0.5 6v78q1 3 10.5 5t21 2t21.5 -1.5t13 -5.5v-97q-1 -16 -9.5 -27.5t-21 -19.5t-27 -12.5t-26.5 -7.5q30 -80 30 -177
q0 -202 -106 -296q-62 -58 -161 -58q-98 0 -162 58q-106 94 -106 296zM141 444q-8 -48 -8 -102t8 -102q9 -48 29.5 -93.5t59.5 -72.5q41 -26 96 -26t95 26q40 27 60 72.5t28 93.5q9 48 9 101.5t-9 101.5q-4 24 -11 48t-17.5 45.5t-25 40t-34.5 31.5q-39 27 -95 27t-96 -27
q-39 -26 -59.5 -71t-29.5 -93zM305 743q-1 -1 -2 0q-1 0 -3 4q-5 13 2 27.5t17.5 28.5t21.5 27t14 22q8 26 -2 40t-30 13q-31 -2 -34 -39q0 -6 -4 -6h-39q-1 -1 -2 0q-3 0 -4 6q-2 5 0.5 18t12 26.5t26.5 24.5t45 11q25 0 42 -8t27 -20t14 -25.5t4 -23.5q0 -22 -11.5 -38
t-24.5 -29.5t-23 -25t-7 -24.5q2 -8 -1 -8.5t-4 -0.5h-35z" />
    <glyph glyph-name="uni1EDF" unicode="&#x1edf;" horiz-adv-x="519" 
d="M396 41q-53 -53 -137 -53q-83 0 -136 53q-70 70 -70 204t70 204q53 53 136 53q84 0 137 -53q27 -27 44 -64q17 8 19.5 17t1.5 10v78q1 3 10.5 5t21 2t21.5 -1.5t13 -5.5v-97q-1 -14 -8 -23.5t-17.5 -15.5t-22.5 -9t-24 -4q11 -46 11 -96q0 -134 -70 -204zM260 42
q49 0 80 31q55 55 55 172q0 85 -33 144q-32 60 -103 60q-70 0 -103 -60q-32 -59 -32 -145q0 -85 32 -144q33 -58 104 -58zM241 573q-1 -1 -2 0q-1 0 -3 4q-5 13 2 27.5t17.5 28.5t21.5 27t14 22q8 26 -2 40t-30 13q-31 -2 -34 -39q0 -6 -4 -6h-39q-1 -1 -2 0q-3 0 -4 6
q-2 5 0.5 18t12 26.5t26.5 24.5t45 11q25 0 42 -8t27 -20t14 -25.5t4 -23.5q0 -22 -11.5 -38t-24.5 -29.5t-23 -25t-7 -24.5q2 -8 -1 -8.5t-4 -0.5h-35z" />
    <glyph glyph-name="uni1EE0" unicode="&#x1ee0;" horiz-adv-x="652" 
d="M58 342q0 45 6.5 87.5t19.5 80.5t33 70.5t47 56.5q64 58 162 58q99 0 161 -58q19 -17 34 -37.5t27 -44.5q12 5 18.5 13t10 16.5t4 14.5l0.5 6v78q1 3 10.5 5t21 2t21.5 -1.5t13 -5.5v-97q-1 -16 -9.5 -27.5t-21 -19.5t-27 -12.5t-26.5 -7.5q30 -80 30 -177
q0 -202 -106 -296q-62 -58 -161 -58q-98 0 -162 58q-106 94 -106 296zM141 444q-8 -48 -8 -102t8 -102q9 -48 29.5 -93.5t59.5 -72.5q41 -26 96 -26t95 26q40 27 60 72.5t28 93.5q9 48 9 101.5t-9 101.5q-4 24 -11 48t-17.5 45.5t-25 40t-34.5 31.5q-39 27 -95 27t-96 -27
q-39 -26 -59.5 -71t-29.5 -93zM285.576 788.756q-19.1709 8.86133 -36.4248 8.86133t-36.4258 -25.5996l-12.4609 -15.7539q-26.8398 0.984375 -34.5078 22.6465l8.62695 19.6924q20.1299 45.292 58.4717 56.6152q38.3428 11.3232 77.6436 -8.36914l59.4307 -29.5381
q17.2539 -8.8623 34.9873 -8.8623t37.8623 25.6006l12.4619 15.7539q23.9639 -0.984375 34.5078 -21.6621l-8.62695 -19.6924q-26.8398 -63.0156 -85.3115 -63.0156q-22.0469 0 -50.8037 13.7852z" />
    <glyph glyph-name="uni1EE1" unicode="&#x1ee1;" horiz-adv-x="519" 
d="M396 41q-53 -53 -137 -53q-83 0 -136 53q-70 70 -70 204t70 204q53 53 136 53q84 0 137 -53q27 -27 44 -64q17 8 19.5 17t1.5 10v78q1 3 10.5 5t21 2t21.5 -1.5t13 -5.5v-97q-1 -14 -8 -23.5t-17.5 -15.5t-22.5 -9t-24 -4q11 -46 11 -96q0 -134 -70 -204zM260 42
q49 0 80 31q55 55 55 172q0 85 -33 144q-32 60 -103 60q-70 0 -103 -60q-32 -59 -32 -145q0 -85 32 -144q33 -58 104 -58zM215 601q-20 9 -38 9t-38 -26l-13 -16q-28 1 -36 23l9 20q21 46 61 57.5t81 -8.5l62 -30q18 -9 36.5 -9t39.5 26l13 16q25 -1 36 -22l-9 -20
q-28 -64 -89 -64q-23 0 -53 14z" />
    <glyph glyph-name="uni1EE2" unicode="&#x1ee2;" horiz-adv-x="652" 
d="M58 342q0 45 6.5 87.5t19.5 80.5t33 70.5t47 56.5q64 58 162 58q99 0 161 -58q19 -17 34 -37.5t27 -44.5q12 5 18.5 13t10 16.5t4 14.5l0.5 6v78q1 3 10.5 5t21 2t21.5 -1.5t13 -5.5v-97q-1 -16 -9.5 -27.5t-21 -19.5t-27 -12.5t-26.5 -7.5q30 -80 30 -177
q0 -202 -106 -296q-62 -58 -161 -58q-98 0 -162 58q-106 94 -106 296zM141 444q-8 -48 -8 -102t8 -102q9 -48 29.5 -93.5t59.5 -72.5q41 -26 96 -26t95 26q40 27 60 72.5t28 93.5q9 48 9 101.5t-9 101.5q-4 24 -11 48t-17.5 45.5t-25 40t-34.5 31.5q-39 27 -95 27t-96 -27
q-39 -26 -59.5 -71t-29.5 -93zM284 -133q-7 14 -7 36.5t7 34.5q13 10 42 10q31 0 42 -10q7 -12 7 -34.5t-7 -36.5q-10 -10 -41 -10q-30 0 -43 10z" />
    <glyph glyph-name="uni1EE3" unicode="&#x1ee3;" horiz-adv-x="519" 
d="M396 41q-53 -53 -137 -53q-83 0 -136 53q-70 70 -70 204t70 204q53 53 136 53q84 0 137 -53q27 -27 44 -64q17 8 19.5 17t1.5 10v78q1 3 10.5 5t21 2t21.5 -1.5t13 -5.5v-97q-1 -14 -8 -23.5t-17.5 -15.5t-22.5 -9t-24 -4q11 -46 11 -96q0 -134 -70 -204zM260 42
q49 0 80 31q55 55 55 172q0 85 -33 144q-32 60 -103 60q-70 0 -103 -60q-32 -59 -32 -145q0 -85 32 -144q33 -58 104 -58zM217 -133q-7 14 -7 36.5t7 34.5q13 10 42 10q31 0 42 -10q7 -12 7 -34.5t-7 -36.5q-10 -10 -41 -10q-30 0 -43 10z" />
    <glyph glyph-name="uni1EE4" unicode="&#x1ee4;" horiz-adv-x="666" 
d="M573 232q0 -60 -17.5 -105.5t-49 -76t-76 -46.5t-98.5 -16t-98.5 16t-76 47t-48.5 76.5t-17 104.5v448l6 6h29q22 0 29 -10.5t7 -35.5v-407q0 -91 44.5 -138.5t125.5 -47.5t125.5 47.5t44.5 138.5v450q14 3 35.5 3t34.5 -3v-451zM291 -133q-7 14 -7 36.5t7 34.5
q13 10 42 10q31 0 42 -10q7 -12 7 -34.5t-7 -36.5q-10 -10 -41 -10q-30 0 -43 10z" />
    <glyph glyph-name="uni1EE5" unicode="&#x1ee5;" horiz-adv-x="546" 
d="M84 397q0 61 -10 84q15 15 43 15q35 0 35 -45v-282q0 -63 15.5 -89.5t57.5 -26.5t87 22.5t75 56.5v358q13 3 34 3t33 -3v-352q0 -82 28 -110q-10 -25 -32 -35q-49 19 -59 74q-34 -34 -82.5 -55t-96.5 -21q-67 0 -97.5 43t-30.5 112v251zM231 -133q-7 14 -7 36.5t7 34.5
q13 10 42 10q31 0 42 -10q7 -12 7 -34.5t-7 -36.5q-10 -10 -41 -10q-30 0 -43 10z" />
    <glyph glyph-name="uni1EE6" unicode="&#x1ee6;" horiz-adv-x="666" 
d="M573 232q0 -60 -17.5 -105.5t-49 -76t-76 -46.5t-98.5 -16t-98.5 16t-76 47t-48.5 76.5t-17 104.5v448l6 6h29q22 0 29 -10.5t7 -35.5v-407q0 -91 44.5 -138.5t125.5 -47.5t125.5 47.5t44.5 138.5v450q14 3 35.5 3t34.5 -3v-451zM315 743q-1 -1 -2 0q-1 0 -3 4
q-5 13 2 27.5t17.5 28.5t21.5 27t14 22q8 26 -2 40t-30 13q-31 -2 -34 -39q0 -6 -4 -6h-39q-1 -1 -2 0q-3 0 -4 6q-2 5 0.5 18t12 26.5t26.5 24.5t45 11q25 0 42 -8t27 -20t14 -25.5t4 -23.5q0 -22 -11.5 -38t-24.5 -29.5t-23 -25t-7 -24.5q2 -8 -1 -8.5t-4 -0.5h-35z" />
    <glyph glyph-name="uni1EE7" unicode="&#x1ee7;" horiz-adv-x="546" 
d="M84 397q0 61 -10 84q15 15 43 15q35 0 35 -45v-282q0 -63 15.5 -89.5t57.5 -26.5t87 22.5t75 56.5v358q13 3 34 3t33 -3v-352q0 -82 28 -110q-10 -25 -32 -35q-49 19 -59 74q-34 -34 -82.5 -55t-96.5 -21q-67 0 -97.5 43t-30.5 112v251zM255 573q-1 -1 -2 0q-1 0 -3 4
q-5 13 2 27.5t17.5 28.5t21.5 27t14 22q8 26 -2 40t-30 13q-31 -2 -34 -39q0 -6 -4 -6h-39q-1 -1 -2 0q-3 0 -4 6q-2 5 0.5 18t12 26.5t26.5 24.5t45 11q25 0 42 -8t27 -20t14 -25.5t4 -23.5q0 -22 -11.5 -38t-24.5 -29.5t-23 -25t-7 -24.5q2 -8 -1 -8.5t-4 -0.5h-35z" />
    <glyph glyph-name="uni1EE8" unicode="&#x1ee8;" horiz-adv-x="666" 
d="M573 555q12 4 19 12.5t10.5 16.5t4 14.5l0.5 6.5v78q1 3 10.5 5t21 2t21.5 -1.5t13 -5.5v-97q-1 -18 -12.5 -31t-27.5 -21t-32.5 -12.5t-27.5 -5.5v-286q0 -60 -17.5 -105.5t-49 -76t-76 -46.5t-98.5 -16t-98.5 16t-76 47t-48.5 76.5t-17 104.5v448l6 6h29q22 0 29 -10.5
t7 -35.5v-407q0 -91 44.5 -138.5t125.5 -47.5t125.5 47.5t44.5 138.5v450q14 3 35.5 3t34.5 -3v-126zM371 914q19 -6 35 -21t24 -32l-162 -129q-23 6 -32 29z" />
    <glyph glyph-name="uni1EE9" unicode="&#x1ee9;" horiz-adv-x="546" 
d="M554 393q-1 -19 -13 -30t-28 -16t-32.5 -6t-26.5 0v-203q0 -82 28 -110q-10 -25 -32 -35q-49 19 -59 74q-34 -34 -82.5 -55t-96.5 -21q-67 0 -97.5 43t-30.5 112v251q0 61 -10 84q15 15 43 15q35 0 35 -45v-282q0 -63 15.5 -89.5t57.5 -26.5t87 22.5t75 56.5v358
q13 3 34 3t33 -3v-110q13 3 20 8t10.5 10.5t3.5 9.5v4v78q1 3 10.5 5t21 2t21.5 -1.5t13 -5.5v-97zM311 718q19 -6 35 -21t24 -32l-162 -129q-23 6 -32 29z" />
    <glyph glyph-name="uni1EEA" unicode="&#x1eea;" horiz-adv-x="666" 
d="M573 555q12 4 19 12.5t10.5 16.5t4 14.5l0.5 6.5v78q1 3 10.5 5t21 2t21.5 -1.5t13 -5.5v-97q-1 -18 -12.5 -31t-27.5 -21t-32.5 -12.5t-27.5 -5.5v-286q0 -60 -17.5 -105.5t-49 -76t-76 -46.5t-98.5 -16t-98.5 16t-76 47t-48.5 76.5t-17 104.5v448l6 6h29q22 0 29 -10.5
t7 -35.5v-407q0 -91 44.5 -138.5t125.5 -47.5t125.5 47.5t44.5 138.5v450q14 3 35.5 3t34.5 -3v-126zM430 761q-12 -23 -32 -29l-162 129q8 17 24 32t35 21z" />
    <glyph glyph-name="uni1EEB" unicode="&#x1eeb;" horiz-adv-x="546" 
d="M554 393q-1 -19 -13 -30t-28 -16t-32.5 -6t-26.5 0v-203q0 -82 28 -110q-10 -25 -32 -35q-49 19 -59 74q-34 -34 -82.5 -55t-96.5 -21q-67 0 -97.5 43t-30.5 112v251q0 61 -10 84q15 15 43 15q35 0 35 -45v-282q0 -63 15.5 -89.5t57.5 -26.5t87 22.5t75 56.5v358
q13 3 34 3t33 -3v-110q13 3 20 8t10.5 10.5t3.5 9.5v4v78q1 3 10.5 5t21 2t21.5 -1.5t13 -5.5v-97zM370 565q-12 -23 -32 -29l-162 129q8 17 24 32t35 21z" />
    <glyph glyph-name="uni1EEC" unicode="&#x1eec;" horiz-adv-x="666" 
d="M573 555q12 4 19 12.5t10.5 16.5t4 14.5l0.5 6.5v78q1 3 10.5 5t21 2t21.5 -1.5t13 -5.5v-97q-1 -18 -12.5 -31t-27.5 -21t-32.5 -12.5t-27.5 -5.5v-286q0 -60 -17.5 -105.5t-49 -76t-76 -46.5t-98.5 -16t-98.5 16t-76 47t-48.5 76.5t-17 104.5v448l6 6h29q22 0 29 -10.5
t7 -35.5v-407q0 -91 44.5 -138.5t125.5 -47.5t125.5 47.5t44.5 138.5v450q14 3 35.5 3t34.5 -3v-126zM315 743q-1 -1 -2 0q-1 0 -3 4q-5 13 2 27.5t17.5 28.5t21.5 27t14 22q8 26 -2 40t-30 13q-31 -2 -34 -39q0 -6 -4 -6h-39q-1 -1 -2 0q-3 0 -4 6q-2 5 0.5 18t12 26.5
t26.5 24.5t45 11q25 0 42 -8t27 -20t14 -25.5t4 -23.5q0 -22 -11.5 -38t-24.5 -29.5t-23 -25t-7 -24.5q2 -8 -1 -8.5t-4 -0.5h-35z" />
    <glyph glyph-name="uni1EED" unicode="&#x1eed;" horiz-adv-x="546" 
d="M554 393q-1 -19 -13 -30t-28 -16t-32.5 -6t-26.5 0v-203q0 -82 28 -110q-10 -25 -32 -35q-49 19 -59 74q-34 -34 -82.5 -55t-96.5 -21q-67 0 -97.5 43t-30.5 112v251q0 61 -10 84q15 15 43 15q35 0 35 -45v-282q0 -63 15.5 -89.5t57.5 -26.5t87 22.5t75 56.5v358
q13 3 34 3t33 -3v-110q13 3 20 8t10.5 10.5t3.5 9.5v4v78q1 3 10.5 5t21 2t21.5 -1.5t13 -5.5v-97zM255 573q-1 -1 -2 0q-1 0 -3 4q-5 13 2 27.5t17.5 28.5t21.5 27t14 22q8 26 -2 40t-30 13q-31 -2 -34 -39q0 -6 -4 -6h-39q-1 -1 -2 0q-3 0 -4 6q-2 5 0.5 18t12 26.5
t26.5 24.5t45 11q25 0 42 -8t27 -20t14 -25.5t4 -23.5q0 -22 -11.5 -38t-24.5 -29.5t-23 -25t-7 -24.5q2 -8 -1 -8.5t-4 -0.5h-35z" />
    <glyph glyph-name="uni1EEE" unicode="&#x1eee;" horiz-adv-x="666" 
d="M573 555q12 4 19 12.5t10.5 16.5t4 14.5l0.5 6.5v78q1 3 10.5 5t21 2t21.5 -1.5t13 -5.5v-97q-1 -18 -12.5 -31t-27.5 -21t-32.5 -12.5t-27.5 -5.5v-286q0 -60 -17.5 -105.5t-49 -76t-76 -46.5t-98.5 -16t-98.5 16t-76 47t-48.5 76.5t-17 104.5v448l6 6h29q22 0 29 -10.5
t7 -35.5v-407q0 -91 44.5 -138.5t125.5 -47.5t125.5 47.5t44.5 138.5v450q14 3 35.5 3t34.5 -3v-126zM285.576 788.622q-19.1709 9.06934 -36.4248 9.06934t-36.4258 -26.2002l-12.4609 -16.123q-26.8398 1.00781 -34.5078 23.1768l8.62695 20.1543
q20.1299 46.3535 58.4717 57.9414q38.3428 11.5889 77.6436 -8.56445l59.4307 -30.2314q17.2539 -9.06934 34.9873 -9.06934t37.8623 26.2002l12.4619 16.123q23.9639 -1.00781 34.5078 -22.1689l-8.62695 -20.1543q-26.8398 -64.4922 -85.3115 -64.4922
q-22.0469 0 -50.8037 14.1084z" />
    <glyph glyph-name="uni1EEF" unicode="&#x1eef;" horiz-adv-x="546" 
d="M554 393q-1 -19 -13 -30t-28 -16t-32.5 -6t-26.5 0v-203q0 -82 28 -110q-10 -25 -32 -35q-49 19 -59 74q-34 -34 -82.5 -55t-96.5 -21q-67 0 -97.5 43t-30.5 112v251q0 61 -10 84q15 15 43 15q35 0 35 -45v-282q0 -63 15.5 -89.5t57.5 -26.5t87 22.5t75 56.5v358
q13 3 34 3t33 -3v-110q13 3 20 8t10.5 10.5t3.5 9.5v4v78q1 3 10.5 5t21 2t21.5 -1.5t13 -5.5v-97zM229 601q-20 9 -38 9t-38 -26l-13 -16q-28 1 -36 23l9 20q21 46 61 57.5t81 -8.5l62 -30q18 -9 36.5 -9t39.5 26l13 16q25 -1 36 -22l-9 -20q-28 -64 -89 -64q-23 0 -53 14z
" />
    <glyph glyph-name="uni1EF0" unicode="&#x1ef0;" horiz-adv-x="666" 
d="M573 555q12 4 19 12.5t10.5 16.5t4 14.5l0.5 6.5v78q1 3 10.5 5t21 2t21.5 -1.5t13 -5.5v-97q-1 -18 -12.5 -31t-27.5 -21t-32.5 -12.5t-27.5 -5.5v-286q0 -60 -17.5 -105.5t-49 -76t-76 -46.5t-98.5 -16t-98.5 16t-76 47t-48.5 76.5t-17 104.5v448l6 6h29q22 0 29 -10.5
t7 -35.5v-407q0 -91 44.5 -138.5t125.5 -47.5t125.5 47.5t44.5 138.5v450q14 3 35.5 3t34.5 -3v-126zM291 -133q-7 14 -7 36.5t7 34.5q13 10 42 10q31 0 42 -10q7 -12 7 -34.5t-7 -36.5q-10 -10 -41 -10q-30 0 -43 10z" />
    <glyph glyph-name="uni1EF1" unicode="&#x1ef1;" horiz-adv-x="546" 
d="M554 393q-1 -19 -13 -30t-28 -16t-32.5 -6t-26.5 0v-203q0 -82 28 -110q-10 -25 -32 -35q-49 19 -59 74q-34 -34 -82.5 -55t-96.5 -21q-67 0 -97.5 43t-30.5 112v251q0 61 -10 84q15 15 43 15q35 0 35 -45v-282q0 -63 15.5 -89.5t57.5 -26.5t87 22.5t75 56.5v358
q13 3 34 3t33 -3v-110q13 3 20 8t10.5 10.5t3.5 9.5v4v78q1 3 10.5 5t21 2t21.5 -1.5t13 -5.5v-97zM231 -133q-7 14 -7 36.5t7 34.5q13 10 42 10q31 0 42 -10q7 -12 7 -34.5t-7 -36.5q-10 -10 -41 -10q-30 0 -43 10z" />
    <glyph glyph-name="Ygrave" unicode="&#x1ef2;" horiz-adv-x="477" 
d="M246 302q4 14 14 42t27 70l107 269q13 4 30.5 4t35.5 -5l3 -6l-188 -453v-223q-15 -3 -36 -3t-35 3v226l-188 449q26 15 49 15t37 -35l100 -241q9 -20 19 -48.5t21 -63.5h4v0zM335 761q-12 -23 -32 -29l-162 129q8 17 24 32t35 21z" />
    <glyph glyph-name="ygrave" unicode="&#x1ef3;" horiz-adv-x="448" 
d="M294 17q-37 -129 -81 -182t-127 -53q-42 0 -78 13v5q0 25 16 44q24 -10 63 -10q27 0 47 9t35.5 27.5t28 47.5t24.5 68l3 10q-25 2 -37.5 11.5t-21.5 36.5l-142 441q27 12 40 12q26 0 37 -33l81 -255q14 -47 26 -86t22 -71q1 -7 10 -7l124 446q15 3 33 3t33 -5l2 -3z
M321 565q-12 -23 -32 -29l-162 129q8 17 24 32t35 21z" />
    <glyph glyph-name="uni1EF4" unicode="&#x1ef4;" horiz-adv-x="477" 
d="M246 302q4 14 14 42t27 70l107 269q13 4 30.5 4t35.5 -5l3 -6l-188 -453v-223q-15 -3 -36 -3t-35 3v226l-188 449q26 15 49 15t37 -35l100 -241q9 -20 19 -48.5t21 -63.5h4v0zM196 -133q-7 14 -7 36.5t7 34.5q13 10 42 10q31 0 42 -10q7 -12 7 -34.5t-7 -36.5
q-10 -10 -41 -10q-30 0 -43 10z" />
    <glyph glyph-name="uni1EF5" unicode="&#x1ef5;" horiz-adv-x="448" 
d="M294 17q-37 -129 -81 -182t-127 -53q-42 0 -78 13v5q0 25 16 44q24 -10 63 -10q27 0 47 9t35.5 27.5t28 47.5t24.5 68l3 10q-25 2 -37.5 11.5t-21.5 36.5l-142 441q27 12 40 12q26 0 37 -33l81 -255q14 -47 26 -86t22 -71q1 -7 10 -7l124 446q15 3 33 3t33 -5l2 -3z
M273 -193q-7 14 -7 36.5t7 34.5q13 10 42 10q31 0 42 -10q7 -12 7 -34.5t-7 -36.5q-10 -10 -41 -10q-30 0 -43 10z" />
    <glyph glyph-name="uni1EF6" unicode="&#x1ef6;" horiz-adv-x="477" 
d="M246 302q4 14 14 42t27 70l107 269q13 4 30.5 4t35.5 -5l3 -6l-188 -453v-223q-15 -3 -36 -3t-35 3v226l-188 449q26 15 49 15t37 -35l100 -241q9 -20 19 -48.5t21 -63.5h4v0zM234 743q-1 -1 -2 0q-1 0 -3 4q-5 13 2 27.5t17.5 28.5t21.5 27t14 22q8 26 -2 40t-30 13
q-31 -2 -34 -39q0 -6 -4 -6h-39q-1 -1 -2 0q-3 0 -4 6q-2 5 0.5 18t12 26.5t26.5 24.5t45 11q25 0 42 -8t27 -20t14 -25.5t4 -23.5q0 -22 -11.5 -38t-24.5 -29.5t-23 -25t-7 -24.5q2 -8 -1 -8.5t-4 -0.5h-35z" />
    <glyph glyph-name="uni1EF7" unicode="&#x1ef7;" horiz-adv-x="448" 
d="M294 17q-37 -129 -81 -182t-127 -53q-42 0 -78 13v5q0 25 16 44q24 -10 63 -10q27 0 47 9t35.5 27.5t28 47.5t24.5 68l3 10q-25 2 -37.5 11.5t-21.5 36.5l-142 441q27 12 40 12q26 0 37 -33l81 -255q14 -47 26 -86t22 -71q1 -7 10 -7l124 446q15 3 33 3t33 -5l2 -3z
M207 573q-1 -1 -2 0q-1 0 -3 4q-5 13 2 27.5t17.5 28.5t21.5 27t14 22q8 26 -2 40t-30 13q-31 -2 -34 -39q0 -6 -4 -6h-39q-1 -1 -2 0q-3 0 -4 6q-2 5 0.5 18t12 26.5t26.5 24.5t45 11q25 0 42 -8t27 -20t14 -25.5t4 -23.5q0 -22 -11.5 -38t-24.5 -29.5t-23 -25t-7 -24.5
q2 -8 -1 -8.5t-4 -0.5h-35z" />
    <glyph glyph-name="uni1EF8" unicode="&#x1ef8;" horiz-adv-x="477" 
d="M246 302q4 14 14 42t27 70l107 269q13 4 30.5 4t35.5 -5l3 -6l-188 -453v-223q-15 -3 -36 -3t-35 3v226l-188 449q26 15 49 15t37 -35l100 -241q9 -20 19 -48.5t21 -63.5h4v0zM201.576 788.622q-19.1709 9.06934 -36.4248 9.06934t-36.4258 -26.2002l-12.4609 -16.123
q-26.8398 1.00781 -34.5078 23.1768l8.62695 20.1543q20.1299 46.3535 58.4717 57.9414q38.3428 11.5889 77.6436 -8.56445l59.4307 -30.2314q17.2539 -9.06934 34.9873 -9.06934t37.8623 26.2002l12.4619 16.123q23.9639 -1.00781 34.5078 -22.1689l-8.62695 -20.1543
q-26.8398 -64.4922 -85.3115 -64.4922q-22.0469 0 -50.8037 14.1084z" />
    <glyph glyph-name="uni1EF9" unicode="&#x1ef9;" horiz-adv-x="448" 
d="M294 17q-37 -129 -81 -182t-127 -53q-42 0 -78 13v5q0 25 16 44q24 -10 63 -10q27 0 47 9t35.5 27.5t28 47.5t24.5 68l3 10q-25 2 -37.5 11.5t-21.5 36.5l-142 441q27 12 40 12q26 0 37 -33l81 -255q14 -47 26 -86t22 -71q1 -7 10 -7l124 446q15 3 33 3t33 -5l2 -3z
M180 601q-20 9 -38 9t-38 -26l-13 -16q-28 1 -36 23l9 20q21 46 61 57.5t81 -8.5l62 -30q18 -9 36.5 -9t39.5 26l13 16q25 -1 36 -22l-9 -20q-28 -64 -89 -64q-23 0 -53 14z" />
    <glyph glyph-name="endash" unicode="&#x2013;" horiz-adv-x="514" 
d="M67 233q-3 13 -3 30t3 32h380q3 -15 3 -32t-3 -30h-380z" />
    <glyph glyph-name="emdash" unicode="&#x2014;" horiz-adv-x="788" 
d="M83 233q-3 13 -3 30t3 32h621q3 -15 3 -32t-3 -30h-621z" />
    <glyph glyph-name="quoteleft" unicode="&#x2018;" horiz-adv-x="201" 
d="M55 527q-10 19 -10 58q0 111 107 158q10 -5 16.5 -15.5t5.5 -20.5q-59 -33 -60 -85q30 -3 40 -10q8 -14 8 -44t-8 -41q-18 -9 -53 -9q-34 0 -46 9z" />
    <glyph glyph-name="quoteright" unicode="&#x2019;" horiz-adv-x="201" 
d="M146 731q10 -17 10 -57q0 -112 -107 -159q-10 4 -16.5 15t-5.5 22q59 33 60 85q-30 3 -40 10q-8 14 -8 43q0 30 8 41q19 10 53 10q33 0 46 -10z" />
    <glyph glyph-name="quotesinglbase" unicode="&#x201a;" horiz-adv-x="202" 
d="M154 85q10 -17 10 -57q0 -111 -107 -158q-10 4 -16.5 14.5t-5.5 21.5q59 33 60 85q-30 3 -40 10q-8 14 -8 43q0 30 8 41q19 10 53 10q33 0 46 -10z" />
    <glyph glyph-name="quotedblleft" unicode="&#x201c;" horiz-adv-x="368" 
d="M55 527q-10 19 -10 58q0 111 107 158q10 -5 16.5 -15.5t5.5 -20.5q-59 -33 -60 -85q30 -3 40 -10q8 -14 8 -44t-8 -41q-18 -9 -53 -9q-34 0 -46 9zM222 527q-10 19 -10 58q0 111 107 158q10 -5 16.5 -15.5t5.5 -20.5q-59 -33 -60 -85q30 -3 40 -10q8 -14 8 -44t-8 -41
q-18 -9 -53 -9q-34 0 -46 9z" />
    <glyph glyph-name="quotedblright" unicode="&#x201d;" horiz-adv-x="368" 
d="M146 731q10 -17 10 -57q0 -112 -107 -159q-10 4 -16.5 15t-5.5 22q59 33 60 85q-30 3 -40 10q-8 14 -8 43q0 30 8 41q19 10 53 10q33 0 46 -10zM313 731q10 -17 10 -57q0 -112 -107 -159q-10 4 -16.5 15t-5.5 22q59 33 60 85q-30 3 -40 10q-8 14 -8 43q0 30 8 41
q19 10 53 10q33 0 46 -10z" />
    <glyph glyph-name="quotedblbase" unicode="&#x201e;" horiz-adv-x="369" 
d="M154 85q10 -17 10 -57q0 -111 -107 -158q-10 4 -16.5 14.5t-5.5 21.5q59 33 60 85q-30 3 -40 10q-8 14 -8 43q0 30 8 41q19 10 53 10q33 0 46 -10zM321 85q10 -17 10 -57q0 -111 -107 -158q-10 4 -16.5 14.5t-5.5 21.5q59 33 60 85q-30 3 -40 10q-8 14 -8 43q0 30 8 41
q19 10 53 10q33 0 46 -10z" />
    <glyph glyph-name="bullet" unicode="&#x2022;" horiz-adv-x="437" 
d="M134 195q-14 26 -14 78q0 53 14 76q30 18 85 18q20 0 47 -6q26 -4 37 -12q13 -20 13 -76q0 -55 -13 -78q-5 -3 -14.5 -6.5t-21.5 -6t-25 -4t-23 -1.5q-55 0 -85 18z" />
    <glyph glyph-name="guilsinglleft" unicode="&#x2039;" horiz-adv-x="320" 
d="M124 256l155 -173q-12 -27 -40 -39l-195 186q-11 25 0 50l189 182q28 -12 40 -39z" />
    <glyph glyph-name="guilsinglright" unicode="&#x203a;" horiz-adv-x="320" 
d="M196 250l-156 173q12 27 40 39l195 -186q11 -25 0 -50l-189 -182q-28 12 -40 39z" />
    <glyph glyph-name="fraction" unicode="&#x2044;" horiz-adv-x="184" 
d="M246 683q12 5 34 5q23 0 35 -5l-376 -683q-6 -3 -15 -4t-19.5 -1t-19.5 1t-15 4z" />
    <glyph glyph-name="foursuperior" unicode="&#x2074;" horiz-adv-x="420" 
d="M231 438h-160q-13 19 -13 36t15 43l119 250q3 1 12 1q32 0 45 -16l-93 -198q-9 -20 -17 -35t-15 -26l1 -2q10 1 23.5 1h30.5h52v75q0 19 10.5 30.5t25.5 11.5h22l1 -2v-115h67q2 -14 2 -29.5t-4 -24.5h-65v-83q-9 -4 -28.5 -4t-30.5 4v83z" />
    <glyph glyph-name="Euro" unicode="&#x20ac;" horiz-adv-x="569" 
d="M499 537q-81 60 -156 60q-136 0 -160 -178h233q6 -27 0 -53h-238q-1 -7 -1 -18v-26v-26t1 -18h238q6 -29 0 -54h-232q26 -173 159 -173q75 0 156 60q27 -17 38 -47q-91 -76 -202 -76q-192 0 -225 236h-76q-6 25 0 54h71q-1 8 -1 19v25v26t1 18h-71q-6 28 0 53h76
q31 241 225 241q108 0 202 -76q-11 -30 -38 -47z" />
    <glyph glyph-name="CR.001" horiz-adv-x="333" 
 />
    <glyph glyph-name="nonbreakingspace" horiz-adv-x="220" 
 />
    <glyph glyph-name="commaaccent" horiz-adv-x="398" 
d="M243 -58q7 -20 7 -45q0 -45 -28 -81.5t-76 -59.5q-18 6 -24 31q55 39 55 93q0 27 -13 52q23 15 43 15t36 -5z" />
    <glyph glyph-name="grave.cap" horiz-adv-x="398" 
d="M299 768q-8 -29 -22 -39l-203 86q9 47 37 63z" />
    <glyph glyph-name="acute.cap" horiz-adv-x="398" 
d="M302 878q28 -16 37 -63l-203 -86q-17 12 -22 39z" />
    <glyph glyph-name="circumflex.cap" horiz-adv-x="398" 
d="M199 813l-112 -80q-25 9 -32 34l111 106q31 6 66 0l110 -102q-8 -26 -34 -33z" />
    <glyph glyph-name="dieresis.cap" horiz-adv-x="398" 
d="M257 815q13 8 38.5 8t41.5 -8q6 -20 6 -35.5t-6 -34.5q-14 -8 -41 -8q-28 0 -39 8q-13 35 0 70zM61 815q16 8 41.5 8t38.5 -8q13 -35 0 -70q-11 -8 -39 -8q-27 0 -41 8q-11 35 0 70z" />
    <glyph glyph-name="caron.cap" horiz-adv-x="398" 
d="M199 799l112 80q24 -9 32 -33l-110 -107q-41 -6 -66 0l-111 103q9 25 34 32z" />
    <glyph glyph-name="ring.cap" horiz-adv-x="398" 
d="M122 702q-15 15 -22.5 34.5t-7.5 39.5t7.5 39t22.5 34q31 30 77 30t76 -30q15 -15 23 -34t8 -39t-8 -39.5t-23 -34.5q-30 -30 -76 -30t-77 30zM162 817q-14 -16 -14 -41t14 -41q15 -16 37 -16t36 16q15 16 15 41t-15 41q-14 16 -36 16t-37 -16z" />
    <glyph glyph-name="tilde.cap" horiz-adv-x="398" 
d="M155 784q-20 9 -37.5 9t-38.5 -25l-13 -16q-26 1 -34 22l8 20q9 23 24.5 37t35 20t40.5 3.5t41 -12.5l62 -29q18 -9 36.5 -9t39.5 25l13 16q25 -1 34 -22l-8 -19q-26 -63 -88 -63q-23 0 -53 14z" />
    <glyph glyph-name="dotaccent.cap" horiz-adv-x="398" 
d="M157 754q-7 14 -7 35.5t7 35.5q13 10 42 10q31 0 42 -10q7 -14 7 -35.5t-7 -35.5q-10 -10 -41 -10q-30 0 -43 10z" />
    <glyph glyph-name="caron.alt" horiz-adv-x="397" 
d="M220 766q12 2 32.5 2t40.5 -12l-42 -193q-10 -4 -21 -4t-23 7z" />
    <glyph glyph-name="commaaccent.cap" horiz-adv-x="398" 
d="M243 -58q7 -20 7 -45q0 -45 -28 -81.5t-76 -59.5q-18 6 -24 31q55 39 55 93q0 27 -13 52q23 15 43 15t36 -5z" />
    <glyph glyph-name="a.smcp" horiz-adv-x="523" 
d="M320 138h-117l-68 1l-51 -140q-14 -3 -32 -3t-31 5l-2 3l202 538q12 4 41 4q28 0 39 -4l203 -539q-16 -9 -37 -9t-30 7q-9 9 -16 30l-40 108zM212 198h99h6.5t15.5 -1h27l-50 136q-14 39 -26.5 75t-23.5 70h-4q-10 -33 -19 -61.5t-18 -51.5l-62 -168z" />
    <glyph glyph-name="b.smcp" horiz-adv-x="538" 
d="M97 0l-5 5v532l5 5l170 3q189 0 189 -142q0 -39 -23.5 -69.5t-63.5 -43.5q24 -6 45.5 -19t37.5 -31t25 -41t9 -48q0 -33 -12.5 -61.5t-38 -49t-64.5 -32t-93 -11.5zM283 54q37 0 62 8t40.5 22t22 32t6.5 38t-8 38.5t-25 33t-43.5 23t-63.5 8.5h-112v-204zM162 316h104
q119 0 119 86t-117 86h-63.5t-42.5 1v-173z" />
    <glyph glyph-name="c.smcp" horiz-adv-x="530" 
d="M423 352q-2 61 -34 102q-32 42 -109 42q-76 0 -118 -57t-42 -166q0 -108 43 -166t121 -58t163 64q29 -19 37 -46q-83 -79 -211 -79q-79 0 -131 42q-96 75 -96 240q0 142 67 212q67 72 169 72q101 0 154 -51q54 -51 54 -114q0 -42 -37 -42q-10 0 -30 5z" />
    <glyph glyph-name="d.smcp" horiz-adv-x="568" 
d="M272 -3q-63 0 -175 3l-5 5v532l5 5q114 3 164 3q113 0 166 -41q53 -40 73 -98q19 -54 19 -136q0 -80 -18.5 -136t-72.5 -97q-52 -40 -156 -40zM270 54q176 0 176 216q0 217 -176 217l-108 1v-435z" />
    <glyph glyph-name="e.smcp" horiz-adv-x="500" 
d="M160 59q7 1 21 1h34h237q0 -10 -0.5 -16.5t-1.5 -11.5q-6 -32 -44 -32h-273q-19 0 -30 12t-11 32v493l5 5h340q2 -10 2 -27t-4 -32h-275l1 -50v-129l53 1h177q1 -5 1.5 -12.5t0.5 -16.5t-0.5 -17t-1.5 -13h-230v-153z" />
    <glyph glyph-name="f.smcp" horiz-adv-x="455" 
d="M212 303h175q6 -29 0 -58h-175h-28.5t-21.5 1v-246q-15 -3 -35.5 -3t-34.5 3v538l5 4h333q8 -23 3 -41.5t-38 -18.5h-136h-60.5t-37.5 1l1 -104v-77z" />
    <glyph glyph-name="g.smcp" horiz-adv-x="548" 
d="M295 276q63 1 100.5 1.5t57.5 -3t26 -13t8 -28.5v-209q-102 -36 -205 -36q-64 0 -111.5 24t-72.5 66q-50 80 -50 191q0 76 21 133t57 89q70 63 176 63q105 0 184 -59q-9 -34 -37 -52q-68 50 -160 50q-36 0 -67 -13t-53 -40.5t-34.5 -70t-12.5 -101.5q0 -221 173 -221
q63 0 123 18v102q0 16 0.5 28.5t1.5 20.5h-97q-33 0 -33 33q0 12 5 27z" />
    <glyph glyph-name="h.smcp" horiz-adv-x="604" 
d="M442 370v172q12 3 33 3t36 -3v-542q-15 -3 -36 -3t-33 3v193l1 60l-55 -1h-173l-54 1l1 -60v-193q-15 -3 -35.5 -3t-34.5 3v542q14 3 34.5 3t35.5 -3v-172l-1 -59l54 1h173l55 -1z" />
    <glyph glyph-name="i.smcp" horiz-adv-x="262" 
d="M96 542q14 3 34.5 3t35.5 -3v-542q-15 -3 -35.5 -3t-34.5 3v542z" />
    <glyph glyph-name="j.smcp" horiz-adv-x="379" 
d="M30 77q50 -29 103 -29q54 0 76 31t22 103v360q15 3 36 3t34 -3v-362q0 -97 -40 -143.5t-118 -46.5q-77 0 -139 35q3 30 26 52z" />
    <glyph glyph-name="k.smcp" horiz-adv-x="527" 
d="M162 248v-248q-15 -3 -35.5 -3t-34.5 3v542q14 3 34.5 3t35.5 -3v-235l62 3q20 2 33 20l123 182q9 14 16.5 21t16.5 9.5t22 1.5t34 -2l6 -7l-147 -212q-12 -17 -26 -29q37 -5 61.5 -27.5t44.5 -64.5l58 -123q20 -42 38 -58q-9 -13 -19.5 -19t-21 -7t-19 2t-13.5 8
q-8 9 -22 36l-66 134q-21 43 -43.5 59t-61.5 16h-5z" />
    <glyph glyph-name="l.smcp" horiz-adv-x="456" 
d="M428 61v-17t-1 -12q-6 -32 -45 -32h-249q-18 0 -29.5 12t-11.5 33v495l5 5h29q21 0 28.5 -10t7.5 -34v-444q17 2 36.5 3t41.5 1h188z" />
    <glyph glyph-name="m.smcp" horiz-adv-x="715" 
d="M128 542q18 5 48 5t47 -5l96 -277q17 -48 26.5 -76t11.5 -37h4q1 5 4 18t10 33q7 21 12.5 36.5t9.5 25.5l95 277q17 5 46 5q31 0 49 -5l50 -541q-18 -5 -35.5 -5t-34.5 3l-27 328q-4 42 -5.5 76t-1.5 62h-5l-137 -385q-15 -3 -34 -3t-34 3l-136 385h-5q0 -28 -1.5 -62
t-5.5 -76l-27 -328q-16 -3 -35.5 -3t-34.5 5z" />
    <glyph glyph-name="n.smcp" horiz-adv-x="608" 
d="M516 540v-540q-18 -3 -41 -3t-40 3l-215 349q-23 38 -38 63.5t-23 39.5h-4q2 -40 3.5 -82.5t1.5 -87.5v-282q-20 -3 -35 -3t-33 3v542q18 3 42 3t40 -3l216 -351q7 -11 22.5 -37.5t38.5 -68.5l5 1q-4 45 -6 88t-2 85v241q0 25 7.5 35t29.5 10h26z" />
    <glyph glyph-name="o.smcp" horiz-adv-x="579" 
d="M127 349q-6 -38 -7 -78t6.5 -78.5t26.5 -71.5t53 -56q18 -10 39.5 -15t43.5 -5t43.5 5t39.5 15q35 21 53 56t25 72q8 37 8 78t-8 78q-7 37 -25 72t-53 55q-18 10 -39.5 15.5t-43.5 5.5t-43.5 -5.5t-39.5 -15.5q-35 -20 -53 -55t-26 -72zM148 31q-40 31 -63.5 76t-32.5 95
t-4.5 102.5t22.5 100.5q12 33 31.5 60t46.5 47t62 31t79 11q87 0 140 -42q40 -31 64 -76.5t33 -96.5t4.5 -103.5t-22.5 -98.5q-12 -32 -31.5 -59t-47 -47t-62.5 -31.5t-78 -11.5q-86 0 -141 43z" />
    <glyph glyph-name="p.smcp" horiz-adv-x="493" 
d="M267 545q45 0 81.5 -11t62.5 -32.5t40 -53.5t14 -74q0 -84 -53.5 -127t-144.5 -43h-105v-204q-15 -3 -35.5 -3t-34.5 3v537l5 5zM162 260q18 1 44 1h60q68 0 97 33q29 35 29 81q0 24 -6.5 44.5t-21.5 35.5t-39 24t-60 9h-60.5t-42.5 1v-229z" />
    <glyph glyph-name="q.smcp" horiz-adv-x="579" 
d="M532 271q0 -130 -70 -209q-26 -29 -60 -45l14 -8q75 -49 116 -51q0 -18 -9.5 -31t-25 -18t-34.5 -1.5t-37 17.5l-100 68q-20 -5 -37 -5q-66 0 -112 25t-75 65.5t-42.5 90.5t-13.5 101q0 71 24.5 135.5t77.5 106.5q54 42 141 42t140 -42q54 -42 78.5 -106.5t24.5 -134.5z
M127 349q-6 -38 -7 -78t6.5 -78.5t26.5 -71.5t53 -56q18 -10 39.5 -15t43.5 -5t43.5 5t39.5 15q35 21 53 56t25 72q8 37 8 78t-8 78q-7 37 -25 72t-53 55q-18 10 -39.5 15.5t-43.5 5.5t-43.5 -5.5t-39.5 -15.5q-35 -20 -53 -55t-26 -72z" />
    <glyph glyph-name="r.smcp" horiz-adv-x="531" 
d="M473 387q0 -51 -33 -90t-85 -52q40 -16 61 -65l45 -100q23 -49 37 -63q-15 -22 -40 -22t-35 10q-9 9 -20 34l-52 118q-15 35 -36.5 52.5t-63.5 17.5h-89v-227q-15 -3 -35.5 -3t-34.5 3v537l5 5q96 3 185 3t140 -42t51 -116zM162 283q42 1 70 1.5t44 0.5q49 -2 78 17
t39.5 47t4.5 58t-26 51q-29 30 -103 30h-63.5t-43.5 1v-206z" />
    <glyph glyph-name="s.smcp" horiz-adv-x="486" 
d="M34 47q1 34 31 54q97 -55 182 -55q54 0 91 25q38 26 38 66q0 64 -93 96l-112 37q-122 41 -122 132q0 65 49 108q52 44 142 44q92 0 182 -40q0 -33 -25 -55q-81 35 -156 35q-58 0 -88.5 -23.5t-30.5 -57.5q0 -33 19 -49t66 -33l108 -37q134 -47 134 -145q0 -71 -53 -115
q-55 -46 -161 -46t-201 59z" />
    <glyph glyph-name="t.smcp" horiz-adv-x="422" 
d="M248 425v-425q-15 -3 -35 -3t-35 3v425l1 59l-50 -1h-113q-6 29 0 59h391q3 -11 4.5 -22t-1.5 -19.5t-12 -14t-26 -3.5h-75l-50 1z" />
    <glyph glyph-name="u.smcp" horiz-adv-x="600" 
d="M516 187q0 -97 -58 -148t-158 -51q-99 0 -158 51.5t-59 147.5v353l5 5h28q22 0 29.5 -10.5t7.5 -34.5v-313q0 -69 37.5 -105.5t109.5 -36.5t109.5 36.5t37.5 105.5v355q13 3 34 3t35 -3v-355z" />
    <glyph glyph-name="v.smcp" horiz-adv-x="490" 
d="M412 542q13 4 31.5 4t29.5 -5l3 -5l-184 -537q-44 -5 -67 -1.5t-33 32.5l-172 508q21 10 47 10q25 0 35 -34l102 -307q16 -48 27 -82t17 -54q1 -7 7 -7z" />
    <glyph glyph-name="w.smcp" horiz-adv-x="731" 
d="M36 538q21 10 43 10q26 0 34 -35l63 -295l31 -153q1 -9 7 -9l111 479q9 1 22 2t26 1t24.5 -1t17.5 -2l101 -470q1 -9 7 -9q9 47 18 87t17 75l76 324q14 3 33.5 3t32.5 -4l4 -4l-134 -536q-25 -5 -60 -5q-37 0 -45 35l-51 232q-14 67 -24.5 117.5t-17.5 85.5h-5
q-11 -53 -22 -103.5t-23 -99.5l-64 -263q-12 -2 -27.5 -3t-34.5 -1q-38 0 -45 37z" />
    <glyph glyph-name="x.smcp" horiz-adv-x="495" 
d="M390 542q12 4 32.5 4t32.5 -6l3 -5l-168 -246l190 -277q-20 -18 -46.5 -18t-44.5 28l-146 213l-158 -235q-12 -4 -32 -4t-34 7l-3 5l191 281l-165 243q23 16 47.5 16t43.5 -29l121 -177l136 200v0z" />
    <glyph glyph-name="y.smcp" horiz-adv-x="423" 
d="M347 542q15 4 32 4t32 -5l3 -5l-166 -369v-167q-15 -3 -36 -3t-34 3v171l-166 366q25 12 48 12t36 -31l80 -183q13 -29 23 -54.5t17 -45.5h4q25 71 39 103z" />
    <glyph glyph-name="z.smcp" horiz-adv-x="487" 
d="M293 398q8 11 25.5 32.5t45.5 54.5l-3 2q-14 -2 -49 -3.5t-92 -1.5h-151q-3 12 -3 26t6 34h354q11 -39 11 -49t-11 -27l-234 -318q-6 -8 -16 -20.5t-24 -29.5t-21.5 -27t-9.5 -12l2 -3q23 2 47 3.5t47 1.5h112q76 0 108 13q7 -20 7 -35q0 -39 -52 -39h-336
q-10 33 -10 47.5t11 31.5z" />
    <glyph glyph-name="ampersand.smcp" horiz-adv-x="533" 
d="M436 -4q-12 -4 -33 -4t-34 3l-5 33q-65 -40 -146 -40q-80 0 -123 42q-44 44 -44 104q0 61 34 102t85 54q-42 12 -68 45.5t-26 76.5q0 30 12.5 56t36 45t57.5 30t76 11q84 0 150 -23v-6q0 -31 -19 -50q-112 32 -175 14.5t-63 -81.5q0 -89 120 -89h162q51 0 71 10
q10 -16 10 -33q0 -38 -57 -38h-28q1 -10 1 -23.5v-30.5v-93zM361 258h-98q-36 0 -61.5 -9t-42.5 -25t-25 -36.5t-8 -44.5q0 -46 27.5 -72t78.5 -26q77 0 129 40v173z" />
    <glyph glyph-name="zero.smcp" horiz-adv-x="482" 
d="M52 271q0 88 14 146t53 93q47 44 121 44q75 0 123 -45q67 -63 67 -238q0 -174 -67 -237q-49 -46 -122 -46t-122 46q-67 63 -67 237zM170 72q25 -28 71 -28q47 0 72 28q44 44 44 199q0 156 -44 200q-25 28 -72 28q-46 0 -71 -28q-44 -44 -44 -200q0 -155 44 -199z" />
    <glyph glyph-name="one.smcp" horiz-adv-x="482" 
d="M229 56v330q0 8 0.5 21.5t1.5 31.5q-45 -54 -131 -89q-24 11 -28 42q127 71 161 150q9 3 30.5 3t33.5 -3v-486l49 1h69q2 -18 2 -27.5t-2 -29.5h-322q-6 31 0 57h88z" />
    <glyph glyph-name="two.smcp" horiz-adv-x="482" 
d="M423 62v-16.5t-1 -11.5q-4 -34 -48 -34h-284q-11 7 -21.5 20t-10.5 23q0 18 9 38.5t25 42t37.5 43.5t46.5 42l82 64q78 61 78 125q0 42 -28 69.5t-71 27.5q-72 0 -121 -84q-38 4 -51 27q23 48 68.5 82t114.5 34q68 0 115 -45q46 -43 46 -105q0 -61 -30 -101
q-15 -20 -36 -40.5t-48 -42.5l-72 -56q-83 -65 -92 -107q24 2 50 3.5t55 1.5h187v0z" />
    <glyph glyph-name="three.smcp" horiz-adv-x="482" 
d="M292 370q-8 -8 -18.5 -17.5t-23.5 -20.5q5 1 19 1q60 0 106 -44q46 -43 46 -123t-61 -129q-59 -49 -137 -49q-102 0 -172 52q7 30 32 48q48 -33 96 -39.5t86 6.5t61.5 42.5t21.5 70.5q0 55 -30 85t-75 30q-46 0 -75 -16q-24 13 -31 37q1 0 1 0.5t1 0.5l135 134
q16 16 29 27.5t23 19.5l-3 3q-32 -6 -112 -6h-139q-4 12 -4 26.5t6 32.5h309q16 -32 16 -47.5t-15 -30.5z" />
    <glyph glyph-name="four.smcp" horiz-adv-x="482" 
d="M342 86v-86q-15 -3 -33.5 -3t-32.5 3v86l1 40l-38 -1h-175q-17 26 -17 38q0 15 19 54l157 330q4 1 14 1q31 0 51 -14l-127 -261q-35 -71 -45 -90l2 -2q49 3 95 3h64l-1 41v74q0 23 12 36t30 13h21l3 -3v-121l-1 -40l37 1h61q2 -11 2 -29t-5 -31h-58l-37 1z" />
    <glyph glyph-name="five.smcp" horiz-adv-x="482" 
d="M62 39q6 29 31 45q59 -38 121 -38q64 0 99 34q37 34 37 97q0 32 -9.5 55.5t-26 39.5t-38 23.5t-45.5 7.5q-49 0 -117 -43q-18 5 -33 20l12 257l6 5h294q4 -12 4 -28q0 -31 -35 -31h-206v-23l-4 -81q0 -17 -3 -47q54 26 101 26q37 0 69 -12.5t55 -35.5t36 -57t13 -77
q0 -86 -58 -137q-59 -51 -148 -51t-155 51z" />
    <glyph glyph-name="six.smcp" horiz-adv-x="482" 
d="M248 -12q-191 0 -191 293q0 127 57.5 200t166.5 73q77 0 121 -26q-4 -27 -27 -47q-42 16 -92 16q-150 0 -154 -202q57 54 136 54q80 0 123 -46q45 -45 45 -128t-52 -135q-51 -52 -133 -52zM252 292q-64 0 -123 -58v-6q0 -104 42 -153q32 -32 81 -32q51 0 79 34
q30 34 30 92q0 123 -109 123z" />
    <glyph glyph-name="seven.smcp" horiz-adv-x="482" 
d="M421 542q14 -26 14 -41.5t-13 -34.5l-47 -67q-70 -99 -107 -186q-38 -87 -45 -198l-1 -15q-6 -2 -16 -3t-20 -1t-19 1t-15 3l1 12q5 60 18 113.5t35 103.5q43 100 124 209l12 16l14 17.5t11 12.5l-3 2q-32 -6 -147 -6h-152q-3 10 -3 27t6 35h353z" />
    <glyph glyph-name="eight.smcp" horiz-adv-x="482" 
d="M51 129q0 24 8.5 46.5t24.5 43t37 36.5t47 26q-101 47 -101 130q0 65 49 104t125 39q37 0 69 -10t54.5 -27.5t35.5 -42.5t13 -55q0 -45 -24.5 -78t-66.5 -51q109 -57 109 -149q0 -71 -56 -112t-139 -41q-42 0 -76 9.5t-58 28t-37.5 44.5t-13.5 59zM358 138q0 74 -123 118
q-54 -15 -83.5 -48.5t-29.5 -76.5t32 -67q33 -24 85 -24q53 0 86 24q33 25 33 74zM165 362q25 -19 96 -47q38 16 59.5 43t21.5 63t-28 58.5t-73 22.5t-74.5 -24t-29.5 -60q0 -37 28 -56z" />
    <glyph glyph-name="nine.smcp" horiz-adv-x="482" 
d="M244 554q191 0 191 -293q0 -127 -57.5 -200t-166.5 -73q-79 0 -120 26q5 29 26 47q42 -16 92 -16q150 0 154 202q-59 -54 -137 -54t-123 45q-44 47 -44 128q0 82 51 135q53 53 134 53zM240 250q61 0 123 56v8q0 103 -42 153q-30 32 -80 32t-80 -35t-30 -91
q0 -123 109 -123z" />
    <glyph glyph-name="currency.smcp" horiz-adv-x="456" 
d="M24 431q13 24 41 40l62 -59q22 15 48.5 22t53 7t52 -7t46.5 -21l64 59q25 -13 40 -40l-59 -64q30 -45 30 -100t-30 -100l59 -63q-10 -23 -40 -40l-63 59q-41 -29 -99 -29q-59 0 -102 28l-62 -57q-25 11 -41 39l59 63q-30 45 -30 100t30 100zM151 354q-27 -35 -27 -86
q0 -52 27 -86q28 -34 76 -34t77 35t29 85t-29 85q-29 36 -77 36q-47 0 -76 -35z" />
    <glyph glyph-name="dollar.smcp" horiz-adv-x="433" 
d="M36 80q1 15 9 31.5t19 23.5q79 -44 158 -44q97 0 97 62q0 51 -75 77l-87 31q-104 41 -104 119q0 49 33.5 83.5t93.5 44.5v67q11 3 29.5 3t27.5 -3v-65q35 -2 68.5 -10.5t67.5 -24.5q0 -39 -26 -57q-56 26 -97.5 31.5t-69.5 -1.5t-42 -23.5t-14 -35.5q0 -27 16.5 -40.5
t54.5 -27.5l75 -27q120 -41 120 -134q0 -57 -41.5 -91t-113.5 -38v-62q-29 -5 -58 0v64q-82 9 -141 47z" />
    <glyph glyph-name="cent.smcp" horiz-adv-x="423" 
d="M193 52q-37 6 -64.5 25t-45.5 48.5t-26.5 68t-8.5 83.5t11 81.5t31 64t47 45t59 23.5v81q10 3 29 3t31 -3v-80q30 -4 53.5 -15.5t39 -27.5t23.5 -35t8 -39q0 -40 -37 -40q-12 0 -28 4v10q0 17 -5 33.5t-15.5 29t-27.5 20.5t-41 8q-49 0 -77.5 -45t-28.5 -124t28.5 -121
t82.5 -42q55 0 110 43q25 -11 36 -39q-51 -51 -123 -60v-80q-12 -3 -31 -3t-30 3v80z" />
    <glyph glyph-name="sterling.smcp" horiz-adv-x="465" 
d="M349 287q6 -25 0 -54h-79q-26 1 -45.5 1h-32.5q1 -7 1.5 -12t0.5 -7q0 -68 -65 -156l3 -2q78 3 105 3h186l1 -19q0 -6 -1 -9q-6 -32 -46 -32h-311q-10 34 -10 49.5t10 30.5l16 24q44 68 44 113q0 2 -0.5 6.5t-1.5 10.5q-11 -1 -27 -1h-38q-6 25 0 54q8 0 24.5 -0.5
t25.5 -0.5q-35 70 -35 124t43 99t134 45t159 -57q0 -14 -11 -28.5t-25 -18.5q-62 45 -131 45q-42 0 -70.5 -23.5t-28.5 -65.5q0 -19 4.5 -37.5t10 -34t11 -28.5t8.5 -20z" />
    <glyph glyph-name="Euro.smcp" horiz-adv-x="504" 
d="M439 451q-67 43 -133 43q-111 0 -135 -135h196q6 -25 0 -53h-202q-1 -5 -1 -14v-21v-19.5t1 -13.5h202q6 -27 0 -53h-197q24 -137 136 -137q66 0 133 43q27 -16 35 -44q-77 -59 -176 -59q-169 0 -199 197h-67q-6 26 0 53h62q0 6 -0.5 15t-0.5 18.5t0.5 19t0.5 15.5h-62
q-6 28 0 53h67q30 195 199 195q99 0 176 -58q-8 -29 -35 -45z" />
    <glyph glyph-name="yen.smcp" horiz-adv-x="442" 
d="M253 149v-149q-13 -3 -33 -3t-33 3v149h-138q-6 27 0 52h134l-33 69h-101q-6 28 0 52h77l-100 213q27 14 47 14t34 -29l80 -177q8 -17 16.5 -39t18.5 -50h4q7 22 15.5 44t18.5 45l89 200q17 5 32.5 5t31.5 -4l3 -5l-102 -217h77q3 -15 3 -26.5t-3 -25.5h-102l-32 -69h134
q6 -26 0 -52h-138z" />
    <glyph glyph-name="ae.smcp" horiz-adv-x="768" 
d="M304 138h-81l-58 1l-81 -140q-15 -3 -34.5 -3t-32.5 5l-2 4l312 530q14 7 41 7h338q2 -10 2 -27.5t-5 -31.5h-274l1 -50v-129l53 1h176q3 -9 3 -29t-3 -30h-229v-153l-1 -34q7 1 21 1h34h237q0 -10 -0.5 -16.5t-1.5 -11.5q-6 -32 -44 -32h-274q-18 0 -29 12t-11 32v95z
M361 196v286h-5q-31 -60 -51 -97.5t-30 -54.5l-77 -134l42 1h64z" />
    <glyph glyph-name="agrave.smcp" horiz-adv-x="523" 
d="M320 138h-117l-68 1l-51 -140q-14 -3 -32 -3t-31 5l-2 3l202 538q12 4 41 4q28 0 39 -4l203 -539q-16 -9 -37 -9t-30 7q-9 9 -16 30l-40 108zM212 198h99h6.5t15.5 -1h27l-50 136q-14 39 -26.5 75t-23.5 70h-4q-10 -33 -19 -61.5t-18 -51.5l-62 -168zM332 617
q-12 -23 -32 -29l-162 129q8 17 24 32t35 21z" />
    <glyph glyph-name="aacute.smcp" horiz-adv-x="523" 
d="M320 138h-117l-68 1l-51 -140q-14 -3 -32 -3t-31 5l-2 3l202 538q12 4 41 4q28 0 39 -4l203 -539q-16 -9 -37 -9t-30 7q-9 9 -16 30l-40 108zM212 198h99h6.5t15.5 -1h27l-50 136q-14 39 -26.5 75t-23.5 70h-4q-10 -33 -19 -61.5t-18 -51.5l-62 -168zM334 770
q19 -6 35 -21t24 -32l-162 -129q-23 6 -32 29z" />
    <glyph glyph-name="acircumflex.smcp" horiz-adv-x="523" 
d="M320 138h-117l-68 1l-51 -140q-14 -3 -32 -3t-31 5l-2 3l202 538q12 4 41 4q28 0 39 -4l203 -539q-16 -9 -37 -9t-30 7q-9 9 -16 30l-40 108zM212 198h99h6.5t15.5 -1h27l-50 136q-14 39 -26.5 75t-23.5 70h-4q-10 -33 -19 -61.5t-18 -51.5l-62 -168zM261 689l-102 -99
q-23 11 -34 32l107 132q24 7 60 1l102 -127q-14 -26 -38 -33z" />
    <glyph glyph-name="atilde.smcp" horiz-adv-x="523" 
d="M320 138h-117l-68 1l-51 -140q-14 -3 -32 -3t-31 5l-2 3l202 538q12 4 41 4q28 0 39 -4l203 -539q-16 -9 -37 -9t-30 7q-9 9 -16 30l-40 108zM212 198h99h6.5t15.5 -1h27l-50 136q-14 39 -26.5 75t-23.5 70h-4q-10 -33 -19 -61.5t-18 -51.5l-62 -168zM217 653
q-20 9 -38 9t-38 -26l-13 -16q-28 1 -36 23l9 20q21 46 61 57.5t81 -8.5l62 -30q18 -9 36.5 -9t39.5 26l13 16q25 -1 36 -22l-9 -20q-28 -64 -89 -64q-23 0 -53 14z" />
    <glyph glyph-name="adieresis.smcp" horiz-adv-x="523" 
d="M320 138h-117l-68 1l-51 -140q-14 -3 -32 -3t-31 5l-2 3l202 538q12 4 41 4q28 0 39 -4l203 -539q-16 -9 -37 -9t-30 7q-9 9 -16 30l-40 108zM212 198h99h6.5t15.5 -1h27l-50 136q-14 39 -26.5 75t-23.5 70h-4q-10 -33 -19 -61.5t-18 -51.5l-62 -168zM311 624
q-7 16 -7 33.5t7 31.5q7 4 17.5 6.5t21 2.5t20.5 -2.5t16 -6.5q7 -14 7 -32.5t-7 -32.5q-11 -9 -37 -9q-25 0 -38 9zM136 624q-7 16 -7 33.5t7 31.5q6 4 16 6.5t20.5 2.5t21 -2.5t17.5 -6.5q7 -14 7 -32.5t-7 -32.5q-14 -9 -39 -9q-26 0 -36 9z" />
    <glyph glyph-name="aring.smcp" horiz-adv-x="523" 
d="M320 138h-117l-68 1l-51 -140q-14 -3 -32 -3t-31 5l-2 3l202 538q12 4 41 4q28 0 39 -4l203 -539q-16 -9 -37 -9t-30 7q-9 9 -16 30l-40 108zM212 198h99h6.5t15.5 -1h27l-50 136q-14 39 -26.5 75t-23.5 70h-4q-10 -33 -19 -61.5t-18 -51.5l-62 -168zM184 618
q-15 15 -22.5 34t-7.5 39t7.5 39t22.5 34q31 31 77 31t76 -31q15 -15 23 -34t8 -39t-8 -39t-23 -34q-30 -30 -76 -30t-77 30zM224 732q-14 -16 -14 -41t14 -41q15 -16 37 -16t36 16q15 16 15 41t-15 41q-14 17 -36 17t-37 -17z" />
    <glyph glyph-name="ccedilla.smcp" horiz-adv-x="530" 
d="M232 -72q10 36 21 61q-105 7 -156 87q-51 79 -51 194q0 142 67 212q67 72 169 72q101 0 154 -51q54 -51 54 -114q0 -42 -37 -42q-10 0 -30 5q-2 61 -34 102q-32 42 -109 42q-76 0 -118 -57t-42 -166q0 -108 43 -166t121 -58t163 64q29 -19 37 -46q-71 -65 -176 -77
q-4 -7 -7 -14.5t-6 -15.5q38 -3 62.5 -26t24.5 -62t-31 -64q-31 -26 -76 -26q-46 0 -74 18q1 20 18 43q19 -11 38 -13t34 3t23.5 15.5t6.5 25.5q0 16 -8 25.5t-19 14t-24 4t-23 -4.5q-12 4 -15 15z" />
    <glyph glyph-name="egrave.smcp" horiz-adv-x="500" 
d="M160 59q7 1 21 1h34h237q0 -10 -0.5 -16.5t-1.5 -11.5q-6 -32 -44 -32h-273q-19 0 -30 12t-11 32v493l5 5h340q2 -10 2 -27t-4 -32h-275l1 -50v-129l53 1h177q1 -5 1.5 -12.5t0.5 -16.5t-0.5 -17t-1.5 -13h-230v-153zM340 617q-12 -23 -32 -29l-162 129q8 17 24 32t35 21
z" />
    <glyph glyph-name="eacute.smcp" horiz-adv-x="500" 
d="M160 59q7 1 21 1h34h237q0 -10 -0.5 -16.5t-1.5 -11.5q-6 -32 -44 -32h-273q-19 0 -30 12t-11 32v493l5 5h340q2 -10 2 -27t-4 -32h-275l1 -50v-129l53 1h177q1 -5 1.5 -12.5t0.5 -16.5t-0.5 -17t-1.5 -13h-230v-153zM343 770q19 -6 35 -21t24 -32l-162 -129
q-23 6 -32 29z" />
    <glyph glyph-name="ecircumflex.smcp" horiz-adv-x="500" 
d="M160 59q7 1 21 1h34h237q0 -10 -0.5 -16.5t-1.5 -11.5q-6 -32 -44 -32h-273q-19 0 -30 12t-11 32v493l5 5h340q2 -10 2 -27t-4 -32h-275l1 -50v-129l53 1h177q1 -5 1.5 -12.5t0.5 -16.5t-0.5 -17t-1.5 -13h-230v-153zM270 689l-102 -99q-23 11 -34 32l107 132q24 7 60 1
l102 -127q-14 -26 -38 -33z" />
    <glyph glyph-name="edieresis.smcp" horiz-adv-x="500" 
d="M160 59q7 1 21 1h34h237q0 -10 -0.5 -16.5t-1.5 -11.5q-6 -32 -44 -32h-273q-19 0 -30 12t-11 32v493l5 5h340q2 -10 2 -27t-4 -32h-275l1 -50v-129l53 1h177q1 -5 1.5 -12.5t0.5 -16.5t-0.5 -17t-1.5 -13h-230v-153zM320 624q-7 16 -7 33.5t7 31.5q7 4 17.5 6.5t21 2.5
t20.5 -2.5t16 -6.5q7 -14 7 -32.5t-7 -32.5q-11 -9 -37 -9q-25 0 -38 9zM145 624q-7 16 -7 33.5t7 31.5q6 4 16 6.5t20.5 2.5t21 -2.5t17.5 -6.5q7 -14 7 -32.5t-7 -32.5q-14 -9 -39 -9q-26 0 -36 9z" />
    <glyph glyph-name="hbar.smcp" horiz-adv-x="612" 
d="M166 194v-194q-15 -3 -35.5 -3t-34.5 3v391h-64q-6 27 0 58h64v93q14 3 34.5 3t35.5 -3v-93h280v93q12 3 33 3t36 -3v-93h64q6 -31 0 -58h-64v-391q-15 -3 -36 -3t-33 3v194l1 60l-55 -1h-173l-54 1zM219 313h173l55 -1l-1 58v21h-280v-21l-1 -58z" />
    <glyph glyph-name="igrave.smcp" horiz-adv-x="262" 
d="M96 542q14 3 34.5 3t35.5 -3v-542q-15 -3 -35.5 -3t-34.5 3v542zM201 617q-12 -23 -32 -29l-162 129q8 17 24 32t35 21z" />
    <glyph glyph-name="iacute.smcp" horiz-adv-x="262" 
d="M96 542q14 3 34.5 3t35.5 -3v-542q-15 -3 -35.5 -3t-34.5 3v542zM204 770q19 -6 35 -21t24 -32l-162 -129q-23 6 -32 29z" />
    <glyph glyph-name="icircumflex.smcp" horiz-adv-x="262" 
d="M96 542q14 3 34.5 3t35.5 -3v-542q-15 -3 -35.5 -3t-34.5 3v542zM131 689l-102 -99q-23 11 -34 32l107 132q24 7 60 1l102 -127q-14 -26 -38 -33z" />
    <glyph glyph-name="itilde.smcp" horiz-adv-x="262" 
d="M96 542q14 3 34.5 3t35.5 -3v-542q-15 -3 -35.5 -3t-34.5 3v542zM87 653q-20 9 -38 9t-38 -26l-13 -16q-28 1 -36 23l9 20q21 46 61 57.5t81 -8.5l62 -30q18 -9 36.5 -9t39.5 26l13 16q25 -1 36 -22l-9 -20q-28 -64 -89 -64q-23 0 -53 14z" />
    <glyph glyph-name="idieresis.smcp" horiz-adv-x="262" 
d="M96 542q14 3 34.5 3t35.5 -3v-542q-15 -3 -35.5 -3t-34.5 3v542zM181 624q-7 16 -7 33.5t7 31.5q7 4 17.5 6.5t21 2.5t20.5 -2.5t16 -6.5q7 -14 7 -32.5t-7 -32.5q-11 -9 -37 -9q-25 0 -38 9zM6 624q-7 16 -7 33.5t7 31.5q6 4 16 6.5t20.5 2.5t21 -2.5t17.5 -6.5
q7 -14 7 -32.5t-7 -32.5q-14 -9 -39 -9q-26 0 -36 9z" />
    <glyph glyph-name="ij.smcp" horiz-adv-x="641" 
d="M96 542q14 3 34.5 3t35.5 -3v-542q-15 -3 -35.5 -3t-34.5 3v542zM292 77q50 -29 103 -29q54 0 76 31t22 103v360q15 3 36 3t34 -3v-362q0 -97 -40 -143.5t-118 -46.5q-77 0 -139 35q3 30 26 52z" />
    <glyph glyph-name="jcircumflex.smcp" horiz-adv-x="379" 
d="M30 77q50 -29 103 -29q54 0 76 31t22 103v360q15 3 36 3t34 -3v-362q0 -97 -40 -143.5t-118 -46.5q-77 0 -139 35q3 30 26 52zM266 689l-102 -99q-23 11 -34 32l107 132q24 7 60 1l102 -127q-14 -26 -38 -33z" />
    <glyph glyph-name="kcommaaccent.smcp" horiz-adv-x="520" 
d="M162 248v-248q-15 -3 -35.5 -3t-34.5 3v542q14 3 34.5 3t35.5 -3v-235l62 3q20 2 33 20l123 182q9 14 16.5 21t16.5 9.5t22 1.5t34 -2l6 -7l-147 -212q-12 -17 -26 -29q37 -5 61.5 -27.5t44.5 -64.5l58 -123q20 -42 38 -58q-9 -13 -19.5 -19t-21 -7t-19 2t-13.5 8
q-8 9 -22 36l-66 134q-21 43 -43.5 59t-61.5 16h-5zM314 -58q7 -20 7 -45q0 -45 -28 -81.5t-76 -59.5q-18 6 -24 31q55 39 55 93q0 27 -13 52q23 15 43 15t36 -5z" />
    <glyph glyph-name="kgreenlandic.smcp" horiz-adv-x="527" 
d="M162 248v-248q-14 -3 -35 -3t-35 3v539l6 6h28q22 0 29 -11t7 -36v-191l62 3q20 2 33 20l123 182q9 14 16.5 21t16.5 9.5t22 1.5t34 -2l6 -7l-147 -212q-12 -17 -26 -29q37 -5 61.5 -27.5t44.5 -64.5l58 -123q20 -42 38 -58q-9 -13 -19.5 -19t-21 -7t-19 2t-13.5 8
q-8 9 -22 36l-66 134q-21 43 -43.5 59t-61.5 16h-5z" />
    <glyph glyph-name="ldot.smcp" horiz-adv-x="455" 
d="M428 61v-17t-1 -12q-6 -32 -45 -32h-249q-18 0 -29.5 12t-11.5 33v495l5 5h29q21 0 28.5 -10t7.5 -34v-444q17 2 36.5 3t41.5 1h188zM302 262q-7 11 -7 39q0 29 7 40q18 9 43.5 9t39.5 -9q7 -11 7 -40q0 -28 -7 -39q-11 -10 -40 -10q-27 0 -43 10z" />
    <glyph glyph-name="lslash.smcp" horiz-adv-x="461" 
d="M168 311l168 50l5 -2q7 -25 1 -54l-174 -51v-196q39 3 77 3h189q0 -10 -0.5 -17t-1.5 -12q-6 -32 -44 -32h-250q-17 0 -28.5 12t-11.5 33v189l-57 -16l-5 3q-7 25 -1 54l63 18v247l5 5h29q21 0 28.5 -10t7.5 -34v-190z" />
    <glyph glyph-name="nacute.smcp" horiz-adv-x="608" 
d="M516 540v-540q-18 -3 -41 -3t-40 3l-215 349q-23 38 -38 63.5t-23 39.5h-4q2 -40 3.5 -82.5t1.5 -87.5v-282q-20 -3 -35 -3t-33 3v542q18 3 42 3t40 -3l216 -351q7 -11 22.5 -37.5t38.5 -68.5l5 1q-4 45 -6 88t-2 85v241q0 25 7.5 35t29.5 10h26zM379 770q19 -6 35 -21
t24 -32l-162 -129q-23 6 -32 29z" />
    <glyph glyph-name="ntilde.smcp" horiz-adv-x="608" 
d="M516 540v-540q-18 -3 -41 -3t-40 3l-215 349q-23 38 -38 63.5t-23 39.5h-4q2 -40 3.5 -82.5t1.5 -87.5v-282q-20 -3 -35 -3t-33 3v542q18 3 42 3t40 -3l216 -351q7 -11 22.5 -37.5t38.5 -68.5l5 1q-4 45 -6 88t-2 85v241q0 25 7.5 35t29.5 10h26zM262 653q-20 9 -38 9
t-38 -26l-13 -16q-28 1 -36 23l9 20q21 46 61 57.5t81 -8.5l62 -30q18 -9 36.5 -9t39.5 26l13 16q25 -1 36 -22l-9 -20q-28 -64 -89 -64q-23 0 -53 14z" />
    <glyph glyph-name="oe.smcp" horiz-adv-x="782" 
d="M442 59q7 1 21 1h34h238q0 -10 -0.5 -16.5t-1.5 -11.5q-6 -32 -44 -32h-299q-77 -12 -99 -12q-88 0 -149 47q-96 76 -96 236q0 159 96 236q61 47 149 47q19 0 102 -12h327q2 -10 2 -27.5t-5 -31.5h-275l1 -51v-128l53 1h177q3 -9 3 -29t-3 -30h-230v-139zM375 485
q-54 12 -94 12t-75 -21q-34 -19 -53 -55q-17 -35 -24.5 -71.5t-7.5 -78.5q1 -30 4.5 -59.5t12.5 -56.5t25.5 -50t42.5 -40q36 -20 80 -20t89 12v428z" />
    <glyph glyph-name="ograve.smcp" horiz-adv-x="579" 
d="M127 349q-6 -38 -7 -78t6.5 -78.5t26.5 -71.5t53 -56q18 -10 39.5 -15t43.5 -5t43.5 5t39.5 15q35 21 53 56t25 72q8 37 8 78t-8 78q-7 37 -25 72t-53 55q-18 10 -39.5 15.5t-43.5 5.5t-43.5 -5.5t-39.5 -15.5q-35 -20 -53 -55t-26 -72zM148 31q-40 31 -63.5 76t-32.5 95
t-4.5 102.5t22.5 100.5q12 33 31.5 60t46.5 47t62 31t79 11q87 0 140 -42q40 -31 64 -76.5t33 -96.5t4.5 -103.5t-22.5 -98.5q-12 -32 -31.5 -59t-47 -47t-62.5 -31.5t-78 -11.5q-86 0 -141 43zM359 617q-12 -23 -32 -29l-162 129q8 17 24 32t35 21z" />
    <glyph glyph-name="oacute.smcp" horiz-adv-x="579" 
d="M127 349q-6 -38 -7 -78t6.5 -78.5t26.5 -71.5t53 -56q18 -10 39.5 -15t43.5 -5t43.5 5t39.5 15q35 21 53 56t25 72q8 37 8 78t-8 78q-7 37 -25 72t-53 55q-18 10 -39.5 15.5t-43.5 5.5t-43.5 -5.5t-39.5 -15.5q-35 -20 -53 -55t-26 -72zM148 31q-40 31 -63.5 76t-32.5 95
t-4.5 102.5t22.5 100.5q12 33 31.5 60t46.5 47t62 31t79 11q87 0 140 -42q40 -31 64 -76.5t33 -96.5t4.5 -103.5t-22.5 -98.5q-12 -32 -31.5 -59t-47 -47t-62.5 -31.5t-78 -11.5q-86 0 -141 43zM362 770q19 -6 35 -21t24 -32l-162 -129q-23 6 -32 29z" />
    <glyph glyph-name="ocircumflex.smcp" horiz-adv-x="579" 
d="M127 349q-6 -38 -7 -78t6.5 -78.5t26.5 -71.5t53 -56q18 -10 39.5 -15t43.5 -5t43.5 5t39.5 15q35 21 53 56t25 72q8 37 8 78t-8 78q-7 37 -25 72t-53 55q-18 10 -39.5 15.5t-43.5 5.5t-43.5 -5.5t-39.5 -15.5q-35 -20 -53 -55t-26 -72zM148 31q-40 31 -63.5 76t-32.5 95
t-4.5 102.5t22.5 100.5q12 33 31.5 60t46.5 47t62 31t79 11q87 0 140 -42q40 -31 64 -76.5t33 -96.5t4.5 -103.5t-22.5 -98.5q-12 -32 -31.5 -59t-47 -47t-62.5 -31.5t-78 -11.5q-86 0 -141 43zM289 689l-102 -99q-23 11 -34 32l107 132q24 7 60 1l102 -127q-14 -26 -38 -33
z" />
    <glyph glyph-name="otilde.smcp" horiz-adv-x="579" 
d="M127 349q-6 -38 -7 -78t6.5 -78.5t26.5 -71.5t53 -56q18 -10 39.5 -15t43.5 -5t43.5 5t39.5 15q35 21 53 56t25 72q8 37 8 78t-8 78q-7 37 -25 72t-53 55q-18 10 -39.5 15.5t-43.5 5.5t-43.5 -5.5t-39.5 -15.5q-35 -20 -53 -55t-26 -72zM148 31q-40 31 -63.5 76t-32.5 95
t-4.5 102.5t22.5 100.5q12 33 31.5 60t46.5 47t62 31t79 11q87 0 140 -42q40 -31 64 -76.5t33 -96.5t4.5 -103.5t-22.5 -98.5q-12 -32 -31.5 -59t-47 -47t-62.5 -31.5t-78 -11.5q-86 0 -141 43zM245 653q-20 9 -38 9t-38 -26l-13 -16q-28 1 -36 23l9 20q21 46 61 57.5
t81 -8.5l62 -30q18 -9 36.5 -9t39.5 26l13 16q25 -1 36 -22l-9 -20q-28 -64 -89 -64q-23 0 -53 14z" />
    <glyph glyph-name="odieresis.smcp" horiz-adv-x="579" 
d="M127 349q-6 -38 -7 -78t6.5 -78.5t26.5 -71.5t53 -56q18 -10 39.5 -15t43.5 -5t43.5 5t39.5 15q35 21 53 56t25 72q8 37 8 78t-8 78q-7 37 -25 72t-53 55q-18 10 -39.5 15.5t-43.5 5.5t-43.5 -5.5t-39.5 -15.5q-35 -20 -53 -55t-26 -72zM148 31q-40 31 -63.5 76t-32.5 95
t-4.5 102.5t22.5 100.5q12 33 31.5 60t46.5 47t62 31t79 11q87 0 140 -42q40 -31 64 -76.5t33 -96.5t4.5 -103.5t-22.5 -98.5q-12 -32 -31.5 -59t-47 -47t-62.5 -31.5t-78 -11.5q-86 0 -141 43zM339 624q-7 16 -7 33.5t7 31.5q7 4 17.5 6.5t21 2.5t20.5 -2.5t16 -6.5
q7 -14 7 -32.5t-7 -32.5q-11 -9 -37 -9q-25 0 -38 9zM164 624q-7 16 -7 33.5t7 31.5q6 4 16 6.5t20.5 2.5t21 -2.5t17.5 -6.5q7 -14 7 -32.5t-7 -32.5q-14 -9 -39 -9q-26 0 -36 9z" />
    <glyph glyph-name="oslash.smcp" horiz-adv-x="579" 
d="M46 271q0 70 24.5 134.5t77.5 106.5q54 42 138 42q83 0 139 -39l42 57q13 -2 27.5 -12.5t18.5 -20.5l-45 -65q64 -79 64 -203q0 -72 -24 -134.5t-79 -105.5q-53 -43 -138 -43q-83 0 -138 39l-42 -59q-13 3 -27.5 13.5t-19.5 20.5l46 65q-64 77 -64 204zM390 465
q-40 34 -95 34q-56 0 -90 -21q-35 -21 -53 -56q-34 -65 -34 -153q0 -87 32 -146zM187 76q40 -33 96 -33q55 0 90 21t53 56q34 65 34 152t-32 146z" />
    <glyph glyph-name="racute.smcp" horiz-adv-x="531" 
d="M473 387q0 -51 -33 -90t-85 -52q40 -16 61 -65l45 -100q23 -49 37 -63q-15 -22 -40 -22t-35 10q-9 9 -20 34l-52 118q-15 35 -36.5 52.5t-63.5 17.5h-89v-227q-15 -3 -35.5 -3t-34.5 3v537l5 5q96 3 185 3t140 -42t51 -116zM162 283q42 1 70 1.5t44 0.5q49 -2 78 17
t39.5 47t4.5 58t-26 51q-29 30 -103 30h-63.5t-43.5 1v-206zM339 770q19 -6 35 -21t24 -32l-162 -129q-23 6 -32 29z" />
    <glyph glyph-name="rcaron.smcp" horiz-adv-x="531" 
d="M473 387q0 -51 -33 -90t-85 -52q40 -16 61 -65l45 -100q23 -49 37 -63q-15 -22 -40 -22t-35 10q-9 9 -20 34l-52 118q-15 35 -36.5 52.5t-63.5 17.5h-89v-227q-15 -3 -35.5 -3t-34.5 3v537l5 5q96 3 185 3t140 -42t51 -116zM162 283q42 1 70 1.5t44 0.5q49 -2 78 17
t39.5 47t4.5 58t-26 51q-29 30 -103 30h-63.5t-43.5 1v-206zM268 668l102 99q20 -7 34 -32l-107 -132q-24 -7 -60 -1l-101 127q10 25 37 33z" />
    <glyph glyph-name="rcommaaccent.smcp" horiz-adv-x="531" 
d="M473 387q0 -51 -33 -90t-85 -52q40 -16 61 -65l45 -100q23 -49 37 -63q-15 -22 -40 -22t-35 10q-9 9 -20 34l-52 118q-15 35 -36.5 52.5t-63.5 17.5h-89v-227q-15 -3 -35.5 -3t-34.5 3v537l5 5q96 3 185 3t140 -42t51 -116zM162 283q42 1 70 1.5t44 0.5q49 -2 78 17
t39.5 47t4.5 58t-26 51q-29 30 -103 30h-63.5t-43.5 1v-206zM314 -58q7 -20 7 -45q0 -45 -28 -81.5t-76 -59.5q-18 6 -24 31q55 39 55 93q0 27 -13 52q23 15 43 15t36 -5z" />
    <glyph glyph-name="germandbls.smcp" horiz-adv-x="971" 
d="M34 47q1 34 31 54q97 -55 182 -55q54 0 91 25q38 26 38 66q0 64 -93 96l-112 37q-122 41 -122 132q0 65 49 108q52 44 142 44q92 0 182 -40q0 -33 -25 -55q-81 35 -156 35q-58 0 -88.5 -23.5t-30.5 -57.5q0 -33 19 -49t66 -33l108 -37q134 -47 134 -145q0 -71 -53 -115
q-55 -46 -161 -46t-201 59zM520 47q1 34 31 54q97 -55 182 -55q54 0 91 25q38 26 38 66q0 64 -93 96l-112 37q-122 41 -122 132q0 65 49 108q52 44 142 44q92 0 182 -40q0 -33 -25 -55q-81 35 -156 35q-58 0 -88.5 -23.5t-30.5 -57.5q0 -33 19 -49t66 -33l108 -37
q134 -47 134 -145q0 -71 -53 -115q-55 -46 -161 -46t-201 59z" />
    <glyph glyph-name="germandbls.cap_smcp" horiz-adv-x="546" 
d="M93 269l-77 -1q-3 13 -3 29.5t3 29.5l77 -1v61q0 42 14 73t39.5 52t60.5 31.5t77 10.5q86 0 136 -46q52 -45 52 -116q0 -35 -9 -60q-26 -6 -47.5 -17.5t-30.5 -26.5t-2 -33t36 -38l33 -23q63 -44 63 -94q0 -51 -40 -81q-40 -29 -103 -29t-115 23q1 31 24 51
q43 -20 81 -20t58 13q21 14 21 39.5t-37 51.5l-36 25q-61 42 -61 90q0 35 26.5 63.5t68.5 43.5q1 6 1.5 10.5t0.5 7.5q0 48 -31 80.5t-88 32.5q-122 0 -122 -124v-377q-17 -3 -36 -3t-34 3v269z" />
    <glyph glyph-name="ugrave.smcp" horiz-adv-x="600" 
d="M516 187q0 -97 -58 -148t-158 -51q-99 0 -158 51.5t-59 147.5v353l5 5h28q22 0 29.5 -10.5t7.5 -34.5v-313q0 -69 37.5 -105.5t109.5 -36.5t109.5 36.5t37.5 105.5v355q13 3 34 3t35 -3v-355zM368 617q-12 -23 -32 -29l-162 129q8 17 24 32t35 21z" />
    <glyph glyph-name="uacute.smcp" horiz-adv-x="600" 
d="M516 187q0 -97 -58 -148t-158 -51q-99 0 -158 51.5t-59 147.5v353l5 5h28q22 0 29.5 -10.5t7.5 -34.5v-313q0 -69 37.5 -105.5t109.5 -36.5t109.5 36.5t37.5 105.5v355q13 3 34 3t35 -3v-355zM371 770q19 -6 35 -21t24 -32l-162 -129q-23 6 -32 29z" />
    <glyph glyph-name="ucircumflex.smcp" horiz-adv-x="600" 
d="M516 187q0 -97 -58 -148t-158 -51q-99 0 -158 51.5t-59 147.5v353l5 5h28q22 0 29.5 -10.5t7.5 -34.5v-313q0 -69 37.5 -105.5t109.5 -36.5t109.5 36.5t37.5 105.5v355q13 3 34 3t35 -3v-355zM298 689l-102 -99q-23 11 -34 32l107 132q24 7 60 1l102 -127
q-14 -26 -38 -33z" />
    <glyph glyph-name="udieresis.smcp" horiz-adv-x="600" 
d="M516 187q0 -97 -58 -148t-158 -51q-99 0 -158 51.5t-59 147.5v353l5 5h28q22 0 29.5 -10.5t7.5 -34.5v-313q0 -69 37.5 -105.5t109.5 -36.5t109.5 36.5t37.5 105.5v355q13 3 34 3t35 -3v-355zM348 624q-7 16 -7 33.5t7 31.5q7 4 17.5 6.5t21 2.5t20.5 -2.5t16 -6.5
q7 -14 7 -32.5t-7 -32.5q-11 -9 -37 -9q-25 0 -38 9zM173 624q-7 16 -7 33.5t7 31.5q6 4 16 6.5t20.5 2.5t21 -2.5t17.5 -6.5q7 -14 7 -32.5t-7 -32.5q-14 -9 -39 -9q-26 0 -36 9z" />
    <glyph glyph-name="yacute.smcp" horiz-adv-x="423" 
d="M347 542q15 4 32 4t32 -5l3 -5l-166 -369v-167q-15 -3 -36 -3t-34 3v171l-166 366q25 12 48 12t36 -31l80 -183q13 -29 23 -54.5t17 -45.5h4q25 71 39 103zM289 770q19 -6 35 -21t24 -32l-162 -129q-23 6 -32 29z" />
    <glyph glyph-name="ydieresis.smcp" horiz-adv-x="423" 
d="M347 542q15 4 32 4t32 -5l3 -5l-166 -369v-167q-15 -3 -36 -3t-34 3v171l-166 366q25 12 48 12t36 -31l80 -183q13 -29 23 -54.5t17 -45.5h4q25 71 39 103zM266 624q-7 16 -7 33.5t7 31.5q7 4 17.5 6.5t21 2.5t20.5 -2.5t16 -6.5q7 -14 7 -32.5t-7 -32.5q-11 -9 -37 -9
q-25 0 -38 9zM91 624q-7 16 -7 33.5t7 31.5q6 4 16 6.5t20.5 2.5t21 -2.5t17.5 -6.5q7 -14 7 -32.5t-7 -32.5q-14 -9 -39 -9q-26 0 -36 9z" />
    <glyph glyph-name="eth.smcp" horiz-adv-x="573" 
d="M276 -3q-62 0 -174 3l-5 5v236h-63q-3 13 -3 30.5t3 30.5h63v235l5 5q114 3 164 3q113 0 166 -41q53 -40 73 -98q19 -54 19 -136q0 -80 -18.5 -136t-72.5 -97q-52 -40 -157 -40zM275 54q107 0 145 71q30 58 30 145q0 154 -84 198q-37 19 -91 19h-27h-34t-47 1v-186h145
q3 -14 3 -31t-3 -30h-145v-188z" />
    <glyph glyph-name="thorn.smcp" horiz-adv-x="499" 
d="M267 453q45 0 81.5 -11.5t62.5 -33t40 -53.5t14 -73q0 -82 -53.5 -126.5t-144.5 -44.5h-105v-111q-15 -3 -35.5 -3t-34.5 3v542q14 3 34.5 3t35.5 -3v-90zM162 396v-229q17 1 43 1h61q70 0 98 34t28 80q0 24 -6.5 44.5t-21.5 36t-38.5 24.5t-57.5 9h-106z" />
    <glyph glyph-name="aogonek.smcp" horiz-adv-x="523" 
d="M135 139l-51 -140q-14 -3 -32 -3t-31 5l-2 3l202 538q12 4 41 4q28 0 39 -4l202 -538l1 -1q-90 -62 -90 -117q0 -18 9 -30.5t24.5 -18t37 -2.5t46.5 17q18 -14 18 -37q-40 -32 -90 -32q-51 0 -79 24t-28 66q0 74 80 134q-3 3 -11 24l-40 108l-61 -1h-117zM212 198h99h6.5
t15.5 -1h27l-50 136q-14 39 -26.5 75t-23.5 70h-4q-10 -33 -19 -61.5t-18 -51.5l-62 -168z" />
    <glyph glyph-name="cacute.smcp" horiz-adv-x="530" 
d="M423 352q-2 61 -34 102q-32 42 -109 42q-76 0 -118 -57t-42 -166q0 -108 43 -166t121 -58t163 64q29 -19 37 -46q-83 -79 -211 -79q-79 0 -131 42q-96 75 -96 240q0 142 67 212q67 72 169 72q101 0 154 -51q54 -51 54 -114q0 -42 -37 -42q-10 0 -30 5zM357 770
q19 -6 35 -21t24 -32l-162 -129q-23 6 -32 29z" />
    <glyph glyph-name="ccaron.smcp" horiz-adv-x="530" 
d="M423 352q-2 61 -34 102q-32 42 -109 42q-76 0 -118 -57t-42 -166q0 -108 43 -166t121 -58t163 64q29 -19 37 -46q-83 -79 -211 -79q-79 0 -131 42q-96 75 -96 240q0 142 67 212q67 72 169 72q101 0 154 -51q54 -51 54 -114q0 -42 -37 -42q-10 0 -30 5zM286 668l102 99
q20 -7 34 -32l-107 -132q-24 -7 -60 -1l-101 127q10 25 37 33z" />
    <glyph glyph-name="dcaron.smcp" horiz-adv-x="568" 
d="M272 -3q-63 0 -175 3l-5 5v532l5 5q114 3 164 3q113 0 166 -41q53 -40 73 -98q19 -54 19 -136q0 -80 -18.5 -136t-72.5 -97q-52 -40 -156 -40zM270 54q176 0 176 216q0 217 -176 217l-108 1v-435zM271 668l102 99q20 -7 34 -32l-107 -132q-24 -7 -60 -1l-101 127
q10 25 37 33z" />
    <glyph glyph-name="ecaron.smcp" horiz-adv-x="500" 
d="M160 59q7 1 21 1h34h237q0 -10 -0.5 -16.5t-1.5 -11.5q-6 -32 -44 -32h-273q-19 0 -30 12t-11 32v493l5 5h340q2 -10 2 -27t-4 -32h-275l1 -50v-129l53 1h177q1 -5 1.5 -12.5t0.5 -16.5t-0.5 -17t-1.5 -13h-230v-153zM272 668l102 99q20 -7 34 -32l-107 -132
q-24 -7 -60 -1l-101 127q10 25 37 33z" />
    <glyph glyph-name="eogonek.smcp" horiz-adv-x="500" 
d="M160 59q7 1 21 1h34h237q0 -10 -0.5 -16.5t-1.5 -11.5q-4 -21 -24 -29l-2 -1q-45 -19 -73.5 -51.5t-28.5 -60.5t14 -42q15 -14 42.5 -14t61.5 18q18 -14 18 -37q-40 -32 -91 -32t-79 24t-28 66q0 74 78 127h-205q-19 0 -30 12t-11 32v493l5 5h340q2 -10 2 -27t-4 -32
h-275l1 -50v-129l53 1h177q1 -5 1.5 -12.5t0.5 -16.5t-0.5 -17t-1.5 -13h-230v-153z" />
    <glyph glyph-name="ncaron.smcp" horiz-adv-x="608" 
d="M516 540v-540q-18 -3 -41 -3t-40 3l-215 349q-23 38 -38 63.5t-23 39.5h-4q2 -40 3.5 -82.5t1.5 -87.5v-282q-20 -3 -35 -3t-33 3v542q18 3 42 3t40 -3l216 -351q7 -11 22.5 -37.5t38.5 -68.5l5 1q-4 45 -6 88t-2 85v241q0 25 7.5 35t29.5 10h26zM308 668l102 99
q20 -7 34 -32l-107 -132q-24 -7 -60 -1l-101 127q10 25 37 33z" />
    <glyph glyph-name="sacute.smcp" horiz-adv-x="486" 
d="M34 47q1 34 31 54q97 -55 182 -55q54 0 91 25q38 26 38 66q0 64 -93 96l-112 37q-122 41 -122 132q0 65 49 108q52 44 142 44q92 0 182 -40q0 -33 -25 -55q-81 35 -156 35q-58 0 -88.5 -23.5t-30.5 -57.5q0 -33 19 -49t66 -33l108 -37q134 -47 134 -145q0 -71 -53 -115
q-55 -46 -161 -46t-201 59zM311 770q19 -6 35 -21t24 -32l-162 -129q-23 6 -32 29z" />
    <glyph glyph-name="scaron.smcp" horiz-adv-x="486" 
d="M34 47q1 34 31 54q97 -55 182 -55q54 0 91 25q38 26 38 66q0 64 -93 96l-112 37q-122 41 -122 132q0 65 49 108q52 44 142 44q92 0 182 -40q0 -33 -25 -55q-81 35 -156 35q-58 0 -88.5 -23.5t-30.5 -57.5q0 -33 19 -49t66 -33l108 -37q134 -47 134 -145q0 -71 -53 -115
q-55 -46 -161 -46t-201 59zM240 668l102 99q20 -7 34 -32l-107 -132q-24 -7 -60 -1l-101 127q10 25 37 33z" />
    <glyph glyph-name="tcaron.smcp" horiz-adv-x="422" 
d="M248 425v-425q-15 -3 -35 -3t-35 3v425l1 59l-50 -1h-113q-6 29 0 59h391q3 -11 4.5 -22t-1.5 -19.5t-12 -14t-26 -3.5h-75l-50 1zM216 668l102 99q20 -7 34 -32l-107 -132q-24 -7 -60 -1l-101 127q10 25 37 33z" />
    <glyph glyph-name="uring.smcp" horiz-adv-x="600" 
d="M516 187q0 -97 -58 -148t-158 -51q-99 0 -158 51.5t-59 147.5v353l5 5h28q22 0 29.5 -10.5t7.5 -34.5v-313q0 -69 37.5 -105.5t109.5 -36.5t109.5 36.5t37.5 105.5v355q13 3 34 3t35 -3v-355zM221 618q-15 15 -22.5 34t-7.5 39t7.5 39t22.5 34q31 31 77 31t76 -31
q15 -15 23 -34t8 -39t-8 -39t-23 -34q-30 -30 -76 -30t-77 30zM261 732q-14 -16 -14 -41t14 -41q15 -16 37 -16t36 16q15 16 15 41t-15 41q-14 17 -36 17t-37 -17z" />
    <glyph glyph-name="zacute.smcp" horiz-adv-x="487" 
d="M293 398q8 11 25.5 32.5t45.5 54.5l-3 2q-14 -2 -49 -3.5t-92 -1.5h-151q-3 12 -3 26t6 34h354q11 -39 11 -49t-11 -27l-234 -318q-6 -8 -16 -20.5t-24 -29.5t-21.5 -27t-9.5 -12l2 -3q23 2 47 3.5t47 1.5h112q76 0 108 13q7 -20 7 -35q0 -39 -52 -39h-336
q-10 33 -10 47.5t11 31.5zM325 770q19 -6 35 -21t24 -32l-162 -129q-23 6 -32 29z" />
    <glyph glyph-name="zdotaccent.smcp" horiz-adv-x="487" 
d="M293 398q8 11 25.5 32.5t45.5 54.5l-3 2q-14 -2 -49 -3.5t-92 -1.5h-151q-3 12 -3 26t6 34h354q11 -39 11 -49t-11 -27l-234 -318q-6 -8 -16 -20.5t-24 -29.5t-21.5 -27t-9.5 -12l2 -3q23 2 47 3.5t47 1.5h112q76 0 108 13q7 -20 7 -35q0 -39 -52 -39h-336
q-10 33 -10 47.5t11 31.5zM210 640q-7 14 -7 36.5t7 34.5q13 10 42 10q31 0 42 -10q7 -12 7 -34.5t-7 -36.5q-10 -10 -41 -10q-30 0 -43 10z" />
    <glyph glyph-name="zcaron.smcp" horiz-adv-x="487" 
d="M293 398q8 11 25.5 32.5t45.5 54.5l-3 2q-14 -2 -49 -3.5t-92 -1.5h-151q-3 12 -3 26t6 34h354q11 -39 11 -49t-11 -27l-234 -318q-6 -8 -16 -20.5t-24 -29.5t-21.5 -27t-9.5 -12l2 -3q23 2 47 3.5t47 1.5h112q76 0 108 13q7 -20 7 -35q0 -39 -52 -39h-336
q-10 33 -10 47.5t11 31.5zM254 668l102 99q20 -7 34 -32l-107 -132q-24 -7 -60 -1l-101 127q10 25 37 33z" />
    <glyph glyph-name="1eb0" horiz-adv-x="0" 
 />
    </font>
</defs>
</svg>
