<?xml version="1.0" standalone="no"?>
<!DOCTYPE svg PUBLIC "-//W3C//DTD SVG 1.1//EN" "http://www.w3.org/Graphics/SVG/1.1/DTD/svg11.dtd" >
<svg xmlns="http://www.w3.org/2000/svg" xmlns:xlink="http://www.w3.org/1999/xlink" version="1.1">
<metadata>
Created by FontForge 20170731 at Tue May 14 07:14:03 2013
 By Aleksey,,,
Copyright (c) 1999, 2006 Nick Curtis. All Rights Reserved. Distributed under non-exclusive license by 1001 Free Fonts.
</metadata>
<defs>
<font id="UVFSouciSans" horiz-adv-x="468" >
  <font-face 
    font-family="UVF Souci Sans"
    font-weight="400"
    font-stretch="normal"
    units-per-em="1000"
    panose-1="2 8 5 6 2 2 1 2 2 3"
    ascent="753"
    descent="-247"
    x-height="392"
    cap-height="705"
    bbox="-145 -250 1229 1015"
    underline-thickness="20"
    underline-position="-153"
    unicode-range="U+0020-2212"
  />
<missing-glyph horiz-adv-x="225" 
 />
    <glyph glyph-name=".notdef" horiz-adv-x="225" 
 />
    <glyph glyph-name=".null" horiz-adv-x="0" 
 />
    <glyph glyph-name="nonmarkingreturn" horiz-adv-x="333" 
 />
    <glyph glyph-name="space" unicode=" " horiz-adv-x="225" 
 />
    <glyph glyph-name="exclam" unicode="!" horiz-adv-x="200" 
d="M168 66q0 -28 -19.5 -48t-48.5 -20q-26 0 -47 19.5t-21 48.5t21 48.5t47 19.5q29 0 48.5 -20t19.5 -48zM121 176q0 -11 -6 -17t-14 -6t-14.5 6t-6.5 17v504q0 11 6 17t14 6t14.5 -6t6.5 -17v-504z" />
    <glyph glyph-name="quotedbl" unicode="&#x22;" horiz-adv-x="356" 
d="M166 652q0 -18 -4 -39.5t-12 -42.5t-22 -38.5t-33 -28.5q-6 -3 -11 -3q-9 0 -14.5 6.5t-5.5 14.5q0 6 5.5 12.5t12 14.5t13 17.5t9.5 22.5q-36 0 -54 19.5t-18 48.5q0 26 16.5 47t49.5 21q28 0 48 -22.5t20 -49.5zM324 652q0 -18 -4.5 -39t-13.5 -41.5t-22 -38.5t-31 -30
q-4 -3 -11 -3q-9 0 -14.5 6.5t-5.5 14.5q0 6 4.5 12.5t11 14t13 17.5t11.5 23q-36 0 -54 19.5t-18 48.5q0 26 16.5 47t49.5 21q28 0 48 -22.5t20 -49.5z" />
    <glyph glyph-name="numbersign" unicode="#" horiz-adv-x="525" 
d="M288 318h-77l-44 -296q-2 -11 -8 -15.5t-13 -4.5q-8 0 -14.5 6t-6.5 17l43 293h-118q-9 2 -13.5 8t-4.5 13q0 16 18 21h125l14 98h-139q-9 2 -13.5 8t-4.5 13q0 16 18 21h146l29 196q6 17 21 17q7 0 13 -5t8 -15l-29 -193h78l29 196q6 17 21 17q7 0 13 -5t8 -15l-29 -193
h113q11 -1 16.5 -7t5.5 -14t-5.5 -14t-16.5 -7h-119l-15 -98h134q11 -1 16.5 -7t5.5 -14t-5.5 -14t-16.5 -7h-140l-44 -296q-2 -11 -8 -15.5t-13 -4.5q-8 0 -14.5 6t-6.5 17zM217 360h78l14 98h-77z" />
    <glyph glyph-name="dollar" unicode="$" horiz-adv-x="324" 
d="M183 217q11 3 23 9t21.5 14.5t16 20t6.5 26.5q0 13 -6 23t-16 18t-21.5 13.5t-23.5 8.5v-133zM142 520q-23 -5 -39.5 -22.5t-16.5 -40.5t16 -36.5t40 -20.5v120zM292 287q0 -22 -9 -40.5t-24 -33t-35 -25t-41 -14.5v-154q0 -11 -6 -17t-14 -6t-14.5 6t-6.5 17v152
q-29 3 -57 17.5t-47 36.5q-6 7 -6 15t6.5 14t14.5 6q10 0 17 -8q13 -15 32.5 -25.5t39.5 -13.5v144q-18 3 -35.5 11t-31 20.5t-22 29.5t-8.5 38q0 41 28 69.5t69 35.5v120q0 11 6 17t14 6t14.5 -6t6.5 -17v-120q48 -5 84 -33q9 -8 9 -17q0 -8 -6 -14.5t-14 -6.5t-15 6
q-27 20 -58 24v-129q20 -5 39.5 -13.5t35 -21.5t25 -30.5t9.5 -39.5z" />
    <glyph glyph-name="percent" unicode="%" horiz-adv-x="659" 
d="M504 703q9 10 19 10q8 0 14 -5.5t6 -14.5q0 -6 -4 -13q-97 -169 -200 -336.5t-200 -336.5q-8 -7 -18 -7q-8 0 -14 5.5t-6 15.5q0 3 2 9q98 169 201 336.5t200 336.5zM32 523q0 42 10 77.5t28 61.5t43 40.5t56 14.5q32 0 57 -17.5t42.5 -45t26.5 -61.5t9 -67t-9.5 -67
t-27 -61.5t-42 -45t-55.5 -17.5q-30 0 -55.5 14.5t-44 40t-28.5 60t-10 73.5zM74 526q0 -29 7 -55.5t19 -47t28.5 -33t35.5 -12.5q23 0 41.5 13.5t31 35t19 48t6.5 51.5q0 22 -6 48.5t-17.5 48.5t-29 37t-40.5 15q-24 0 -42 -13.5t-29.5 -35t-17.5 -48t-6 -52.5zM355 185
q0 42 10 77.5t28 61.5t43 40.5t56 14.5q32 0 57 -17.5t42.5 -45t26.5 -61.5t9 -67t-9.5 -67t-27 -61.5t-42 -45t-55.5 -17.5q-30 0 -55.5 14.5t-44 40t-28.5 60t-10 73.5zM397 188q0 -29 7 -55.5t19 -47t28.5 -33t35.5 -12.5q23 0 41.5 13.5t31 35t19 48t6.5 51.5
q0 22 -6 48.5t-17.5 48.5t-29 37t-40.5 15q-24 0 -42 -13.5t-29.5 -35t-17.5 -48t-6 -52.5z" />
    <glyph glyph-name="ampersand" unicode="&#x26;" horiz-adv-x="572" 
d="M540 202q0 -53 -22 -92.5t-58 -65t-82 -38t-93 -12.5q-42 0 -87 12t-82 37t-60.5 63t-23.5 90q0 36 14 67t37 55.5t53 42.5t62 28q-21 17 -33 41.5t-12 52.5q0 30 10.5 53t28 38.5t40 23t45.5 7.5t45.5 -7.5t40 -22.5t28 -38t10.5 -54q0 -11 -6.5 -16.5t-14.5 -5.5
t-14.5 5.5t-6.5 16.5q0 41 -25.5 61t-56.5 20t-56.5 -20t-25.5 -61q0 -36 26 -59t61 -23q8 0 11.5 -6.5t3.5 -14.5t-3.5 -14.5t-11.5 -6.5q-34 0 -71 -11t-67.5 -31.5t-50 -51t-19.5 -69.5q0 -42 19.5 -72.5t50.5 -50t68.5 -29t73.5 -9.5q37 0 75 10t69 30t50 51.5t19 75.5
q0 41 -19 66t-46 36q-21 9 -44 9q-35 0 -61 -21t-26 -63q0 -15 6 -27t15.5 -20.5t21 -12.5t23.5 -4q20 0 35 12t15 36q0 6 -5 15.5t-13 9.5q-11 0 -17 6.5t-6 14.5t6 14.5t17 6.5q26 0 43 -21.5t17 -45.5q0 -44 -28 -66.5t-64 -22.5q-21 0 -40.5 8t-34.5 22t-24 33.5
t-9 42.5q0 32 15.5 61t44.5 46q37 21 73 42.5t72 43.5q10 6 17.5 16.5t7.5 23.5q0 20 -15 36.5t-35 16.5q-11 0 -17 6t-6 14t6 14.5t17 6.5q19 0 35.5 -8t29 -21t19.5 -30t7 -35q0 -22 -10 -38t-25.5 -29t-34.5 -24t-37 -21q53 -12 84 -52.5t31 -96.5z" />
    <glyph glyph-name="quotesingle" unicode="'" horiz-adv-x="198" 
d="M166 652q0 -18 -4 -38.5t-12.5 -40.5t-22 -38.5t-32.5 -31.5q-4 -3 -11 -3q-9 0 -14.5 6.5t-5.5 14.5q0 6 5.5 12.5t12 14.5t13 17.5t9.5 22.5q-36 0 -54 19.5t-18 48.5q0 26 16.5 47t49.5 21q28 0 48 -22.5t20 -49.5z" />
    <glyph glyph-name="parenleft" unicode="(" horiz-adv-x="288" 
d="M256 -48q0 -16 -6.5 -18.5t-14.5 -2.5q-45 0 -83 34t-66 96q-25 56 -39.5 131t-14.5 165q0 89 14 164t40 132q27 61 65.5 95t83.5 34q8 0 14.5 -2.5t6.5 -18.5q0 -15 -6.5 -17.5t-14.5 -2.5q-32 0 -60 -27.5t-51 -77.5q-23 -52 -36.5 -123t-13.5 -156t13.5 -156
t36.5 -123q23 -50 51 -77.5t60 -27.5q8 0 14.5 -2.5t6.5 -18.5z" />
    <glyph glyph-name="parenright" unicode=")" horiz-adv-x="288" 
d="M256 357q0 -90 -14.5 -165t-39.5 -131q-28 -62 -66 -96t-83 -34q-8 0 -14.5 2.5t-6.5 18.5t6.5 18.5t14.5 2.5q32 0 60 27.5t51 77.5q23 52 36.5 123t13.5 156t-13.5 156t-36.5 123q-23 50 -51 77.5t-60 27.5q-8 0 -14.5 2.5t-6.5 17.5q0 16 6.5 18.5t14.5 2.5
q45 0 83.5 -34t65.5 -95q26 -57 40 -132t14 -164z" />
    <glyph glyph-name="asterisk" unicode="*" horiz-adv-x="256" 
d="M224 631q0 -14 -10 -24.5t-25 -10.5q-14 0 -19.5 3.5t-10 10t-10 16t-18.5 20.5q4 -13 9.5 -20.5t10.5 -12.5t8.5 -11t3.5 -16q0 -14 -10 -24.5t-25 -10.5t-25 10.5t-10 24.5q0 10 3.5 16t8 11.5t10 12t10.5 18.5q-13 -8 -18.5 -17t-9.5 -16.5t-9.5 -12.5t-19.5 -5
t-25 10t-11 28q0 14 10.5 24t25.5 10q5 0 9.5 -2t9.5 -5t12.5 -5t18.5 -2h5q-11 7 -23 9.5t-22 6t-16.5 10.5t-6.5 24q0 13 8.5 24t24.5 11q14 0 26 -10.5t12 -23.5q0 -5 -1.5 -11t-1.5 -13q0 -10 4 -23q4 12 4 24q0 8 -1 13.5t-1 11.5q0 14 10.5 23t24.5 9q15 0 25 -11.5
t10 -24.5q0 -15 -5.5 -21.5t-15 -10t-21.5 -6.5t-25 -10h5q12 0 19.5 2t12.5 5t9 5t10 2q16 0 26 -12t10 -23z" />
    <glyph glyph-name="plus" unicode="+" horiz-adv-x="481" 
d="M261 340v-165q0 -11 -6.5 -17t-14.5 -6t-14.5 6t-6.5 17v165h-164q-11 0 -17 6.5t-6 14.5t6 14.5t17 6.5h164v164q0 11 6.5 17t14.5 6t14.5 -6t6.5 -17v-164h165q11 0 17 -6.5t6 -14.5t-6 -14.5t-17 -6.5h-165z" />
    <glyph glyph-name="comma" unicode="," horiz-adv-x="198" 
d="M166 62q0 -18 -4 -39.5t-12 -42.5t-22 -38.5t-33 -28.5q-6 -3 -11 -3q-9 0 -14.5 6.5t-5.5 14.5q0 6 5.5 12.5t12 14.5t13 17.5t9.5 22.5q-36 0 -54 19.5t-18 48.5q0 26 16.5 47t49.5 21q28 0 48 -22.5t20 -49.5z" />
    <glyph glyph-name="hyphen" unicode="-" horiz-adv-x="221" 
d="M166 342q11 0 17 -6.5t6 -14.5t-6 -14.5t-17 -6.5h-111q-11 0 -17 6.5t-6 14.5t6 14.5t17 6.5h111v0z" />
    <glyph glyph-name="period" unicode="." horiz-adv-x="200" 
d="M168 68q0 -27 -19.5 -47.5t-48.5 -20.5q-14 0 -26 5.5t-22 14.5q-20 20 -20 48q0 27 19.5 47.5t48.5 20.5q27 0 47.5 -19.5t20.5 -48.5z" />
    <glyph glyph-name="slash" unicode="/" horiz-adv-x="416" 
d="M72 11q-7 -13 -20 -13q-8 0 -14 5.5t-6 15.5q0 6 1 9l312 675q9 10 19 10q8 0 14 -5.5t6 -16.5v-5z" />
    <glyph glyph-name="zero" unicode="0" horiz-adv-x="598" 
d="M525 308q0 49 -14.5 98.5t-43 89t-71 64.5t-97.5 25t-97.5 -25t-71 -64.5t-43 -89t-14.5 -98.5t14.5 -98t43 -88.5t71 -64.5t97.5 -25t97 25t70.5 64.5t43.5 88.5t15 98zM566 308q0 -58 -18 -114.5t-52 -101.5t-83.5 -73t-113.5 -28t-113.5 28t-83.5 73t-52 101.5
t-18 114.5t17.5 115t51.5 102t84 73t114 28t113.5 -28t83.5 -73t52 -102t18 -115z" />
    <glyph glyph-name="one" unicode="1" horiz-adv-x="189" 
d="M157 23q0 -11 -6.5 -17t-14.5 -6t-14.5 6t-6.5 17v519l-47 -40q-8 -6 -15 -6q-8 0 -14.5 6.5t-6.5 14.5q0 9 9 17l82 69q7 5 13 5q8 0 14.5 -6t6.5 -15v-564v0z" />
    <glyph glyph-name="two" unicode="2" horiz-adv-x="476" 
d="M444 404q0 -54 -19 -104.5t-61 -87.5l-194 -170h211q11 0 17 -6.5t6 -14.5t-6 -14.5t-17 -6.5h-266q-9 0 -14.5 6.5t-5.5 14.5q0 9 7 15l234 207q35 31 50.5 73.5t15.5 87.5q0 35 -14 65.5t-37 53t-54.5 35t-65.5 12.5q-33 0 -62 -8.5t-50.5 -26t-33.5 -43.5t-12 -61
q0 -22 8 -42t21.5 -35t32.5 -24t42 -9q20 0 38.5 5t33 15.5t23 26t8.5 37.5q0 11 6.5 17t14.5 6t14.5 -6t6.5 -17q0 -30 -11.5 -53.5t-31 -39.5t-44.5 -24.5t-52 -8.5q-32 0 -60 12t-48 33.5t-31.5 50t-11.5 61.5q0 41 16 73.5t43.5 55t63.5 34.5t76 12q43 0 81.5 -16
t67.5 -43.5t46.5 -65.5t17.5 -82z" />
    <glyph glyph-name="three" unicode="3" horiz-adv-x="499" 
d="M347 353q-40 26 -92 26q-6 0 -14.5 -2t-16.5 -5.5t-14 -9.5t-6 -14q0 -14 18 -23t33 -9q28 0 51.5 10t40.5 27zM467 207q0 -44 -17 -83t-46 -68.5t-69 -47t-86 -17.5q-43 0 -83 15t-72 47q-29 29 -45.5 67.5t-16.5 85.5q0 11 6 16.5t14 5.5t14.5 -5.5t6.5 -16.5
q0 -37 13.5 -69t37.5 -55t56 -36.5t69 -13.5q35 0 67 13t56 36.5t38.5 55t14.5 69.5q0 33 -11.5 64t-34.5 56q-22 -23 -54.5 -37.5t-66.5 -14.5q-15 0 -31.5 4.5t-31 14t-23.5 23t-9 31.5t9 31.5t23 23t31 14.5t34 5q30 0 59 -10t52 -24q15 28 15 63q0 28 -10.5 52.5t-29 43
t-43.5 29t-54 10.5q-52 0 -92 -34q-8 -6 -15 -6q-8 0 -14 6t-6 14q0 10 8 17q25 22 56 33t63 11q36 0 68.5 -13.5t56.5 -37t38.5 -56t14.5 -70.5q0 -49 -23 -89q32 -31 47.5 -71t15.5 -82z" />
    <glyph glyph-name="four" unicode="4" horiz-adv-x="498" 
d="M343 545l-250 -350h250v350zM385 153v-130q0 -11 -6.5 -17t-14.5 -6t-14.5 6t-6.5 17v130h-291q-9 0 -14.5 7t-5.5 15q0 6 3 11l312 436q6 8 16 8q8 0 15 -5.5t7 -14.5v-415h58q11 0 17 -6.5t6 -14.5t-6 -14.5t-17 -6.5h-58z" />
    <glyph glyph-name="five" unicode="5" horiz-adv-x="499" 
d="M467 206q0 -46 -17 -85t-46.5 -68t-69 -45.5t-85.5 -16.5q-45 0 -85 16.5t-69 45.5t-46 68t-17 85q0 11 6.5 16.5t14.5 5.5t14.5 -5.5t6.5 -16.5q0 -37 13.5 -69t37 -55t55.5 -36.5t69 -13.5t69 13t56 36.5t37.5 55t13.5 69.5q0 36 -12.5 68t-35 55t-54 36.5t-68.5 13.5
h-124q-8 0 -14 6.5t-6 14.5q0 4 1 6l67 206q2 5 8 9.5t11 4.5h204q11 0 16.5 -6t5.5 -14t-5.5 -14.5t-16.5 -6.5h-189l-53 -164h95q45 0 84 -17t67.5 -46t44.5 -68t16 -84z" />
    <glyph glyph-name="six" unicode="6" horiz-adv-x="536" 
d="M427 125q18 26 26.5 54.5t8.5 57.5q0 39 -15 74t-41.5 62t-61.5 43t-75 16q-39 0 -74.5 -15.5t-62.5 -42t-43 -62.5t-16 -76q0 -39 15.5 -74t41.5 -61.5t61.5 -42.5t75.5 -16q47 0 89 21t71 62zM267 473q47 0 90 -18.5t75.5 -50.5t52 -75.5t19.5 -92.5q0 -47 -19 -90
t-51 -75.5t-75 -51.5t-92 -19q-47 0 -89.5 18.5t-75 50.5t-51.5 75t-19 93q0 35 10 69.5t32 65.5l164 236q7 10 18 10q8 0 14.5 -6t6.5 -14q0 -6 -5 -14l-88 -126q40 15 83 15z" />
    <glyph glyph-name="seven" unicode="7" horiz-adv-x="506" 
d="M71 11q-7 -10 -18 -10q-8 0 -14.5 6t-6.5 14q0 6 5 14l376 540h-357q-11 0 -17 6.5t-6 14.5t6 14.5t17 6.5h397q9 0 15 -6.5t6 -14.5q0 -7 -4 -12z" />
    <glyph glyph-name="eight" unicode="8" horiz-adv-x="536" 
d="M268 42q39 0 74.5 15t62 41.5t42.5 61.5t16 76q0 53 -26.5 100t-77.5 73q-18 -20 -41.5 -29.5t-48.5 -9.5t-48.5 9.5t-42.5 29.5q-51 -27 -77.5 -74t-26.5 -99q0 -39 15.5 -74t41.5 -61.5t61.5 -42.5t75.5 -16zM315 426q-25 5 -46 5q-12 0 -24 -1t-23 -4q21 -15 46 -15
q26 0 47 15zM344 461q3 8 5 16t2 16q0 16 -6.5 31t-17.5 26t-26 18t-32 7q-16 0 -31 -6t-26 -17t-18 -26t-7 -33q0 -17 6 -32q36 12 75 12q38 0 76 -12zM382 444q63 -34 92.5 -89.5t29.5 -115.5q0 -48 -18 -91t-50 -76t-75 -52.5t-94 -19.5q-50 0 -93 19.5t-74.5 52.5
t-49.5 76t-18 90q0 63 32.5 117t90.5 89q-10 24 -10 49t10 48t27.5 39.5t40 26.5t47.5 10q24 0 46.5 -10t39 -26.5t26.5 -39.5t10 -48q0 -26 -10 -49z" />
    <glyph glyph-name="nine" unicode="9" horiz-adv-x="537" 
d="M269 187q39 0 74 15t62 41.5t43 61.5t16 76q0 39 -15 74.5t-41.5 62.5t-62 43t-75.5 16q-39 0 -74.5 -15.5t-62.5 -42t-43 -62.5t-16 -76q0 -39 15.5 -74t41.5 -62t61.5 -42.5t76.5 -15.5zM298 11q-8 -11 -18 -11q-8 0 -14.5 6t-6.5 15q0 5 5 13l88 127q-42 -15 -83 -15
q-47 0 -90 18.5t-75.5 50t-52 74.5t-19.5 93q0 42 14.5 81t40 69.5t61.5 52t79 29.5q11 2 21.5 3t21.5 1q47 0 89.5 -18.5t75 -50.5t51.5 -75.5t19 -92.5q0 -35 -10.5 -69t-31.5 -65z" />
    <glyph glyph-name="colon" unicode=":" horiz-adv-x="200" 
d="M168 248q0 -28 -19.5 -48t-48.5 -20q-26 0 -47 19.5t-21 48.5t21 48.5t47 19.5q29 0 48.5 -20t19.5 -48zM168 68q0 -28 -19.5 -48t-48.5 -20q-26 0 -47 19.5t-21 48.5t21 48.5t47 19.5q29 0 48.5 -20t19.5 -48z" />
    <glyph glyph-name="semicolon" unicode=";" horiz-adv-x="206" 
d="M174 248q0 -28 -19.5 -48t-48.5 -20q-26 0 -47 19.5t-21 48.5t21 48.5t47 19.5q29 0 48.5 -20t19.5 -48zM166 62q0 -18 -4 -39.5t-12 -42.5t-22 -38.5t-33 -28.5q-6 -3 -11 -3q-9 0 -14.5 6.5t-5.5 14.5q0 6 5.5 12.5t12 14.5t13 17.5t9.5 22.5q-36 0 -54 19.5t-18 48.5
q0 26 16.5 47t49.5 21q28 0 48 -22.5t20 -49.5z" />
    <glyph glyph-name="less" unicode="&#x3c;" horiz-adv-x="614" 
d="M566 199q15 -5 15 -21q0 -8 -5.5 -15.5t-15.5 -7.5q-3 0 -9 2l-506 186q-7 2 -10 8t-3 13q0 6 3 12t10 8l506 184q6 2 9 2q10 0 16 -7t6 -15q0 -14 -16 -20l-450 -165l450 -164v0z" />
    <glyph glyph-name="equal" unicode="=" horiz-adv-x="481" 
d="M55 410q-11 0 -17 6.5t-6 14.5t6 14.5t17 6.5h371q11 0 17 -6.5t6 -14.5t-6 -14.5t-17 -6.5h-371zM55 270q-11 0 -17 6.5t-6 14.5t6 14.5t17 6.5h371q11 0 17 -6.5t6 -14.5t-6 -14.5t-17 -6.5h-371z" />
    <glyph glyph-name="greater" unicode="&#x3e;" horiz-adv-x="614" 
d="M498 363l-450 165q-16 6 -16 20q0 8 6 15t16 7q3 0 9 -2l506 -184q7 -2 10 -8t3 -12q0 -7 -3 -13t-10 -8l-506 -186q-6 -2 -9 -2q-10 0 -15.5 7.5t-5.5 15.5q0 16 15 21z" />
    <glyph glyph-name="question" unicode="?" horiz-adv-x="456" 
d="M248 68q0 -28 -19.5 -48t-48.5 -20q-26 0 -47 19.5t-21 48.5t21 48.5t47 19.5q28 0 48 -20t20 -48zM412 459q-22 -56 -73 -92q-23 -17 -48.5 -34.5t-46.5 -37.5t-35 -42.5t-14 -48.5q0 -9 2.5 -18t2.5 -17q0 -10 -6.5 -15t-14.5 -5t-13 5.5t-8 14t-4 18t-1 17.5
q0 34 15 61.5t38.5 51t52 44t56.5 40.5q33 23 50 56t17 68q0 24 -10 48.5t-29.5 44t-47 32t-63.5 12.5q-53 0 -96 -32t-63 -85q-3 -8 -8.5 -11.5t-11.5 -3.5q-8 0 -14.5 5.5t-6.5 14.5q0 3 2 9q12 33 32 59.5t46 45.5t56.5 29.5t62.5 10.5q41 0 76.5 -15t61.5 -40
t40.5 -57.5t14.5 -68.5q0 -33 -12 -64z" />
    <glyph glyph-name="at" unicode="@" horiz-adv-x="772" 
d="M740 348q0 -28 -7.5 -59t-23 -57t-40.5 -43t-60 -17q-26 0 -49.5 12.5t-38.5 38.5q-23 -29 -56.5 -43.5t-69.5 -14.5q-27 0 -53 8.5t-47 26.5q-22 19 -32.5 42.5t-10.5 48.5q0 24 9.5 46t26.5 38.5t39 26.5t48 10q32 0 60 -15t47 -41q5 -8 5 -14q0 -8 -6 -14t-14 -6
q-11 0 -18 10q-14 20 -34 29t-40 9q-32 0 -56.5 -20t-24.5 -58q0 -21 9 -37t24 -26.5t33.5 -16t37.5 -5.5q17 0 36 5.5t35 16.5t26.5 26t10.5 35v112q0 28 -11 49.5t-29 36t-41.5 21.5t-47.5 7t-47 -7t-41.5 -21.5t-29.5 -36t-11 -49.5q0 -11 -6 -16.5t-14 -5.5t-14.5 5.5
t-6.5 16.5q0 37 14.5 66.5t38.5 49t54.5 30t63.5 10.5q32 0 62.5 -10.5t54 -31t38 -49.5t14.5 -65v-115q0 -32 18.5 -53t44.5 -21q24 0 41 13.5t27.5 33.5t15 43.5t4.5 44.5q0 64 -24.5 121t-67 99.5t-99.5 67.5t-121 25q-65 0 -121.5 -24.5t-99 -67t-67 -99t-24.5 -120.5
q0 -65 24.5 -121.5t67 -99t99 -67t121.5 -24.5q63 0 119.5 23.5t100.5 67.5q7 7 16 7q8 0 14.5 -6t6.5 -14q0 -9 -7 -16q-51 -50 -115.5 -77t-134.5 -27q-73 0 -137.5 28t-112.5 76t-76 112.5t-28 137.5t28 137t76 112t112.5 76t137.5 28t137 -28t112 -76.5t76.5 -113
t28.5 -137.5z" />
    <glyph glyph-name="A" unicode="A" horiz-adv-x="650" 
d="M342 624l-136 -317h254zM616 23q2 -6 2 -9q0 -10 -6.5 -15.5t-14.5 -5.5q-14 0 -20 15l-102 257h-286l-116 -258q-6 -14 -20 -14q-8 0 -14.5 6t-6.5 15q0 6 2 10l281 643q9 22 28 22q8 0 15 -5.5t12 -17.5z" />
    <glyph glyph-name="B" unicode="B" horiz-adv-x="497" 
d="M465 205q0 -45 -17 -85t-47 -70t-70 -47t-85 -17q-36 0 -72 4.5t-68 21.5q-13 7 -13 19q0 8 6 14.5t15 6.5q5 0 11 -3q28 -14 59 -17.5t62 -3.5q37 0 69 14t56 38t38 56t14 69q0 75 -40 120.5t-115 54.5q-30 4 -47 23t-17 42q0 28 25 52q16 15 23 35.5t7 41.5
q0 19 -8 35.5t-21 29t-30.5 19.5t-35.5 7q-17 0 -33 -3t-28.5 -11t-20 -21t-7.5 -32v-576q0 -11 -6.5 -17t-14.5 -6t-14.5 6t-7.5 17v576q0 28 11 49t29 34t42 19.5t50 6.5q27 0 52 -10.5t43.5 -28.5t30 -42t11.5 -52q0 -30 -11 -58.5t-34 -49.5q-11 -11 -11 -21
q0 -8 7.5 -14.5t20.5 -8.5q91 -11 141.5 -68.5t50.5 -148.5z" />
    <glyph glyph-name="C" unicode="C" horiz-adv-x="757" 
d="M720 154q-53 -75 -134 -119t-174 -44q-89 0 -158 28.5t-118 79.5q-51 53 -77.5 126t-26.5 161q0 70 28 131.5t75 106.5t109.5 71t131.5 26q75 0 133.5 -19.5t100.5 -55.5q42 -38 64.5 -90t22.5 -118q0 -48 -18.5 -90.5t-50 -75t-74 -51.5t-90.5 -19q-44 0 -84.5 12.5
t-71.5 37t-49.5 60.5t-18.5 84q0 24 9.5 48.5t26.5 44t39.5 32t48.5 12.5q11 0 17 -6t6 -14t-6 -14.5t-17 -6.5q-17 0 -32.5 -9t-26.5 -23t-17.5 -31t-6.5 -33q0 -39 15.5 -68t41 -47.5t58.5 -28t68 -9.5q39 0 74 15.5t61 42.5t41 62.5t15 74.5q0 113 -72 176
q-74 65 -207 65q-60 0 -115 -22.5t-97 -62t-66.5 -93t-24.5 -115.5q0 -79 23.5 -145t69.5 -114q43 -45 104.5 -69.5t141.5 -24.5q83 0 154.5 39t119.5 106q7 10 18 10q8 0 14.5 -6t6.5 -15q0 -5 -5 -13z" />
    <glyph glyph-name="D" unicode="D" horiz-adv-x="701" 
d="M669 350q0 -74 -28.5 -139.5t-77.5 -114.5t-114.5 -77t-139.5 -28q-57 0 -110.5 17.5t-98.5 49.5q-10 7 -10 18q0 8 6 14.5t15 6.5q5 0 13 -5q41 -29 88 -44.5t97 -15.5q66 0 123.5 25t101 68.5t68.5 101t25 123.5t-25 123.5t-68.5 99.5t-101.5 66.5t-123 24.5
q-27 0 -67.5 -2t-78 -13t-64 -33.5t-26.5 -62.5v-528q0 -11 -6 -16.5t-14 -5.5t-14.5 5.5t-6.5 16.5v528q0 53 29 83.5t71.5 46t90.5 19.5t86 4q74 0 139.5 -27.5t114.5 -75.5t77.5 -113t28.5 -140z" />
    <glyph glyph-name="E" unicode="E" horiz-adv-x="413" 
d="M91 0q-24 0 -41.5 17t-17.5 41v587q0 24 17.5 41t41.5 17h179q11 0 17 -6.5t6 -14.5t-6 -14.5t-17 -6.5h-179q-7 0 -12 -4.5t-5 -11.5v-328h236q11 0 17 -6.5t6 -14.5t-6 -14.5t-17 -6.5h-236v-217q0 -7 5 -11.5t12 -4.5h268q11 0 16.5 -6.5t5.5 -14.5t-5.5 -14.5
t-16.5 -6.5h-268z" />
    <glyph glyph-name="F" unicode="F" horiz-adv-x="366" 
d="M90 661q-16 0 -16 -16v-328h185q11 0 16.5 -6.5t5.5 -14.5t-5.5 -14.5t-16.5 -6.5h-185v-254q0 -11 -6.5 -17t-14.5 -6t-14.5 6t-6.5 17v624q0 24 17 41t41 17h222q11 0 16.5 -6.5t5.5 -14.5t-5.5 -14.5t-16.5 -6.5h-222z" />
    <glyph glyph-name="G" unicode="G" horiz-adv-x="746" 
d="M713 121q0 -3 -2.5 -8.5t-4.5 -7.5q-58 -53 -130.5 -79t-149.5 -26q-75 0 -147 25.5t-130 76.5q-54 48 -85.5 112t-31.5 138q0 73 31.5 137t85.5 112q58 51 130 76.5t147 25.5q76 0 149 -26t131 -79q8 -7 8 -17q0 -8 -6 -14t-15 -6t-15 6q-52 48 -118 71.5t-135 23.5
q-68 0 -132.5 -23t-116.5 -69q-48 -42 -75 -98.5t-27 -119.5q0 -64 27 -120.5t75 -98.5q52 -46 116.5 -69t132.5 -23q67 0 131 22t115 67v260q0 7 -4.5 12t-11.5 5h-221q-11 0 -17 6.5t-6 14.5t6 14.5t17 6.5h221q24 0 41 -17.5t17 -41.5v-269v0z" />
    <glyph glyph-name="H" unicode="H" horiz-adv-x="544" 
d="M512 21q0 -11 -6.5 -17t-14.5 -6t-14.5 6t-6.5 17v387h-396v-387q0 -11 -6.5 -17t-14.5 -6t-14.5 6t-6.5 17v661q0 11 6.5 17t14.5 6t14.5 -6t6.5 -17v-233h396v233q0 11 6.5 17t14.5 6t14.5 -6t6.5 -17v-661v0z" />
    <glyph glyph-name="I" unicode="I" horiz-adv-x="106" 
d="M74 21q0 -11 -6.5 -17t-14.5 -6t-14.5 6t-6.5 17v661q0 11 6.5 17t14.5 6t14.5 -6t6.5 -17v-661v0z" />
    <glyph glyph-name="J" unicode="J" horiz-adv-x="106" 
d="M74 32q0 -48 -26.5 -88t-70.5 -58q-8 -2 -10 -2q-9 0 -15 7t-6 15q0 13 14 19q33 14 52.5 43t19.5 64v650q0 11 6.5 17t14.5 6t14.5 -6t6.5 -17v-650v0z" />
    <glyph glyph-name="K" unicode="K" horiz-adv-x="576" 
d="M527 2q-12 -3 -25 -3q-21 0 -41 8t-34 24q-51 54 -100 108t-100 107q-15 17 -21 37l-127 -158q-2 -2 -3 -3.5t-3 -2.5v-98q0 -11 -6 -17t-14 -6t-14.5 6t-6.5 17v661q0 11 6 17t14 6t14.5 -6t6.5 -17v-498l411 511q7 9 17 9q8 0 14.5 -6t6.5 -14t-6 -15l-274 -341v-8
q0 -13 3 -23.5t13 -21.5l199 -215q18 -19 44 -19q6 0 16 2q2 1 6 1q10 0 15.5 -7t5.5 -15q0 -6 -4 -12t-13 -8z" />
    <glyph glyph-name="L" unicode="L" horiz-adv-x="366" 
d="M90 0q-24 0 -41 17t-17 41v624q0 11 6.5 17t14.5 6t14.5 -6t6.5 -17v-624q0 -16 16 -16h222q11 0 16.5 -6.5t5.5 -14.5t-5.5 -14.5t-16.5 -6.5h-222z" />
    <glyph glyph-name="M" unicode="M" horiz-adv-x="659" 
d="M627 20q0 -11 -6.5 -17t-14.5 -6t-14.5 6t-6.5 17v594l-228 -560q-3 -8 -10 -14t-17 -6t-17 6t-10 14l-230 561v-595q0 -11 -6 -17t-14 -6t-14.5 6t-6.5 17v657q0 12 8.5 20t19.5 8q2 0 10 -2q8 -1 11.5 -7.5t8.5 -10.5l240 -588l239 588q4 10 12.5 14.5t17.5 4.5
q11 0 19.5 -6.5t8.5 -20.5v-657v0z" />
    <glyph glyph-name="N" unicode="N" horiz-adv-x="474" 
d="M442 30q0 -14 -8.5 -21t-19.5 -7q-9 0 -17.5 4.5t-13.5 14.5l-310 603v-612q0 -11 -6 -17t-14 -6t-14.5 6t-6.5 17v661q0 14 9.5 22t20.5 8q16 0 25 -16q79 -153 157 -304.5t156 -305.5v605q0 11 6.5 17t14.5 6t14.5 -6t6.5 -17v-652v0z" />
    <glyph glyph-name="O" unicode="O" horiz-adv-x="833" 
d="M759 353q0 71 -28.5 128.5t-76 98t-109.5 62.5t-129 22q-66 0 -128 -22t-110 -62.5t-76.5 -98t-28.5 -128.5t28.5 -128.5t76.5 -98t110 -62.5t128 -22t128 22t110 62.5t76.5 98t28.5 128.5zM801 353q0 -76 -31.5 -140.5t-84.5 -112t-123 -74t-146 -26.5q-72 0 -141 25.5
t-123 72t-87 111.5t-33 145q0 76 31.5 140.5t84.5 111.5t122.5 73.5t145.5 26.5q72 0 141.5 -25.5t123.5 -71.5t87 -111.5t33 -144.5z" />
    <glyph glyph-name="P" unicode="P" horiz-adv-x="400" 
d="M368 514q0 -38 -15 -72.5t-41 -60.5t-60 -41t-73 -15q-30 0 -61 11q-8 3 -11.5 8.5t-3.5 11.5q0 8 5.5 14.5t14.5 6.5q3 0 9 -2q11 -5 23 -6.5t24 -1.5q29 0 55.5 11.5t47 31t33 46.5t12.5 58q0 30 -11.5 57t-31.5 47t-47 31.5t-58 11.5h-41q-27 0 -46 -19t-19 -45v-576
q0 -11 -6 -17t-14 -6t-14.5 6t-6.5 17v576q0 22 8.5 41t23 33.5t33.5 23t41 8.5h41q39 0 73.5 -15t60 -40.5t40.5 -60t15 -73.5z" />
    <glyph glyph-name="Q" unicode="Q" horiz-adv-x="857" 
d="M588 80q-33 6 -67 6q-61 0 -114 -17q-17 -5 -34 -10.5t-34 -10.5q40 -8 77 -8q90 0 172 40zM759 353q0 66 -27.5 123t-74.5 98.5t-109.5 65.5t-131.5 24q-62 0 -123.5 -21.5t-110 -62t-79 -98t-30.5 -129.5q0 -71 33 -136.5t97 -110.5q18 -13 36.5 -18t38.5 -5
q29 0 58.5 9t58.5 18q55 18 125 18q62 0 119 -16q60 45 90 108.5t30 132.5zM823 -51q2 -6 2 -9q0 -9 -6.5 -14.5t-14.5 -5.5q-6 0 -11.5 3.5t-8.5 11.5q-17 48 -54 80.5t-85 49.5q-51 -34 -109.5 -50.5t-118.5 -16.5q-73 0 -142 25.5t-123 72t-87 111.5t-33 145
q0 76 31.5 140.5t84 112t122 74.5t146.5 27q73 0 142 -25.5t123 -72t87 -111.5t33 -145q0 -72 -29 -139t-88 -118q47 -21 83 -56.5t56 -89.5z" />
    <glyph glyph-name="R" unicode="R" horiz-adv-x="494" 
d="M443 0q-5 -1 -15 -1q-26 0 -50 12t-40 34q-49 66 -97 132l-96 132q-8 11 -17.5 19t-21.5 12q-16 6 -16 20q0 8 5.5 14.5t14.5 6.5q5 0 8 -1q15 -3 28.5 -8t32.5 -5q28 0 55 11.5t47 31t32.5 46.5t12.5 58q0 30 -11.5 57t-31.5 47t-47 31.5t-57 11.5h-41q-27 0 -46 -19
t-19 -45v-576q0 -11 -6 -17t-14 -6t-14.5 6t-6.5 17v576q0 22 8.5 41t22.5 33.5t33.5 23t41.5 8.5h41q39 0 73.5 -15t60 -40.5t40.5 -60t15 -73.5q0 -38 -14.5 -71.5t-39.5 -59.5t-58.5 -41.5t-71.5 -16.5q3 -4 18 -24.5t36 -49t44.5 -60.5t43 -59t32.5 -44.5l13 -17.5
q21 -30 58 -30q2 0 4.5 0.5t7.5 0.5q11 0 16 -6.5t5 -14.5q0 -7 -4.5 -12.5t-14.5 -7.5z" />
    <glyph glyph-name="S" unicode="S" horiz-adv-x="463" 
d="M431 200q0 -44 -18 -80.5t-48 -63t-69 -41.5t-81 -15q-26 0 -51 7.5t-48.5 20.5t-43.5 31t-35 38q-5 6 -5 14t6.5 14t14.5 6q11 0 17 -9q24 -33 63.5 -56.5t81.5 -23.5q33 0 64.5 11.5t56 32.5t39 50t14.5 64q0 25 -9 48t-24.5 41.5t-36 32.5t-43.5 22q-36 12 -71.5 24.5
t-68.5 29.5q-40 21 -65 56.5t-25 82.5q0 35 14.5 65t39.5 52.5t57.5 35.5t67.5 13q32 0 62.5 -10.5t56.5 -31.5q9 -8 9 -17q0 -8 -6.5 -15t-14.5 -7q-7 0 -14 6q-20 17 -44 25t-49 8t-49.5 -9t-44 -25.5t-31.5 -39t-12 -50.5q0 -33 18.5 -59t49.5 -43q32 -17 65.5 -29
t67.5 -23q29 -10 55 -28t45.5 -41.5t30.5 -52.5t11 -61z" />
    <glyph glyph-name="T" unicode="T" horiz-adv-x="492" 
d="M273 661v-641q0 -11 -6.5 -16.5t-14.5 -5.5t-14.5 6t-6.5 17v640h-176q-11 0 -17 6.5t-6 14.5t6 14.5t17 6.5h382q11 0 17 -6.5t6 -14.5t-6 -14.5t-17 -6.5h-164z" />
    <glyph glyph-name="U" unicode="U" horiz-adv-x="521" 
d="M477 39q12 -7 12 -19q0 -8 -5.5 -14t-14.5 -6q-6 0 -12 3q-17 9 -27 25.5t-10 36.5v23q-32 -44 -78 -66t-96 -22q-41 0 -80 15.5t-71 47.5q-29 29 -46 68t-17 84v467q0 11 6 17t14 6t14.5 -6t6.5 -17v-467q0 -36 14 -67.5t37.5 -55t55 -37t67.5 -13.5t67.5 13.5t55 37
t37 54.5t13.5 67v468q0 11 6.5 16t14.5 5t14.5 -5t6.5 -16v-617q0 -18 15 -26z" />
    <glyph glyph-name="V" unicode="V" horiz-adv-x="600" 
d="M320 5q-2 -7 -7.5 -10t-11.5 -3q-16 0 -20 13l-247 674q-2 6 -2 9q0 9 6.5 14.5t14.5 5.5q6 0 11.5 -3.5t8.5 -11.5l227 -621l227 621q3 8 8.5 11.5t11.5 3.5q8 0 14.5 -5.5t6.5 -14.5q0 -3 -2 -9z" />
    <glyph glyph-name="W" unicode="W" horiz-adv-x="911" 
d="M669 6q-4 -13 -20 -13q-6 0 -11.5 3t-7.5 10l-175 605l-174 -605q-5 -14 -20 -14q-6 0 -12 3.5t-8 10.5l-208 674q-1 3 -1 8q0 9 6 14.5t14 5.5q6 0 12 -4t8 -12l188 -608l175 608q4 13 20 13t20 -13l175 -608l188 608q2 8 8 12t12 4q8 0 14.5 -5.5t6.5 -14.5q0 -5 -1 -8
z" />
    <glyph glyph-name="X" unicode="X" horiz-adv-x="614" 
d="M560 0q-29 0 -56.5 13.5t-44.5 41.5l-166 280q-49 -81 -97 -162.5t-98 -162.5q-7 -11 -19 -11q-8 0 -14.5 5.5t-6.5 14.5q0 7 4 12l207 344l-149 252q-20 34 -66 34q-11 0 -16.5 6.5t-5.5 14.5t5.5 14.5t16.5 6.5q29 0 56.5 -13.5t44.5 -41.5l138 -232q42 69 83 138.5
t83 138.5q7 11 19 11q8 0 14.5 -5.5t6.5 -14.5q0 -7 -4 -12l-178 -297q45 -75 88.5 -149.5t88.5 -149.5q20 -34 66 -34q11 0 16.5 -6.5t5.5 -14.5t-5.5 -14.5t-16.5 -6.5z" />
    <glyph glyph-name="Y" unicode="Y" horiz-adv-x="531" 
d="M286 290v-269q0 -11 -6 -17t-14 -6t-14.5 6t-6.5 17v269l-210 382q-3 6 -3 12q0 9 6 14.5t14 5.5q12 0 19 -12l194 -354l195 354q7 12 19 12q8 0 14 -5.5t6 -14.5q0 -6 -3 -12z" />
    <glyph glyph-name="Z" unicode="Z" horiz-adv-x="487" 
d="M74 42h317q11 0 16.5 -6.5t5.5 -14.5t-5.5 -14.5t-16.5 -6.5h-321q-14 0 -26 10t-12 27q0 16 10 31l369 593h-300q-11 0 -16.5 6.5t-5.5 14.5t5.5 14.5t16.5 6.5h308q18 0 27 -11t9 -26q0 -14 -7 -25z" />
    <glyph glyph-name="bracketleft" unicode="[" horiz-adv-x="218" 
d="M164 -78q11 -1 16.5 -7t5.5 -14t-5.5 -14t-16.5 -7h-113q-19 4 -19 24v778q0 20 19 24h113q11 -1 16.5 -7t5.5 -14t-5.5 -14t-16.5 -7h-90v-742h90v0z" />
    <glyph glyph-name="backslash" unicode="\" horiz-adv-x="416" 
d="M32 686v5q0 11 6 16.5t14 5.5q10 0 19 -10l312 -675q1 -3 1 -9q0 -10 -6 -15.5t-14 -5.5q-13 0 -20 13z" />
    <glyph glyph-name="bracketright" unicode="]" horiz-adv-x="218" 
d="M54 -78h90v742h-90q-11 1 -16.5 7t-5.5 14t5.5 14t16.5 7h113q19 -4 19 -24v-778q0 -20 -19 -24h-113q-11 1 -16.5 7t-5.5 14t5.5 14t16.5 7z" />
    <glyph glyph-name="asciicircum" unicode="^" horiz-adv-x="833" 
 />
    <glyph glyph-name="underscore" unicode="_" horiz-adv-x="500" 
d="M0 -50v42h500v-42h-500z" />
    <glyph glyph-name="grave" unicode="`" horiz-adv-x="281" 
d="M232 466q9 -2 13 -8t4 -13q0 -8 -5.5 -14.5t-15.5 -6.5q-4 0 -6 1l-173 42q-9 2 -13 8t-4 12q0 8 5.5 14.5t15.5 6.5q4 0 6 -1l173 -41v0z" />
    <glyph glyph-name="a" unicode="a" horiz-adv-x="405" 
d="M373 23q0 -11 -6.5 -17t-14.5 -6t-14.5 6t-6.5 17v18q-22 -20 -50.5 -30.5t-58.5 -10.5q-26 0 -52 8.5t-46.5 25t-33 40t-12.5 53.5q0 24 9.5 46t26.5 38.5t39 26t48 9.5q32 0 60 -15t47 -41q5 -8 5 -13q0 -9 -6.5 -15t-14.5 -6q-11 0 -18 10q-13 18 -32 28t-40 10
q-16 0 -31 -5.5t-26.5 -16t-18.5 -24.5t-7 -32q0 -20 9 -36t23.5 -27t33 -17t37.5 -6q18 0 37.5 6t35.5 17.5t26 28.5t10 38v106q0 28 -11 49.5t-29 36t-41.5 21.5t-47.5 7t-47 -7.5t-41 -22t-29 -35.5t-11 -49q0 -11 -6.5 -16.5t-14.5 -5.5t-14.5 5.5t-6.5 16.5
q0 37 14.5 66.5t38.5 49t54.5 30t63.5 10.5q32 0 62.5 -10.5t54.5 -31t38.5 -49.5t14.5 -65v-214v0z" />
    <glyph glyph-name="b" unicode="b" 
d="M436 196q0 -38 -14.5 -73.5t-39.5 -62.5t-60 -43.5t-75 -16.5q-52 0 -99 29q-11 7 -11 18q0 8 6 14.5t14 6.5t13 -4q35 -22 76 -22q30 0 57 12t47.5 33t32 49t11.5 60q0 30 -11 57.5t-31 49t-47 34.5t-59 13q-31 0 -57.5 -12.5t-46.5 -34t-31.5 -50t-11.5 -59.5v-169
q0 -11 -6.5 -17t-14.5 -6t-14.5 6t-6.5 17v550q0 14 -13 21q-12 7 -12 19q0 8 5.5 14.5t14.5 6.5q6 0 12 -3q16 -9 25.5 -24.5t9.5 -33.5v-257q28 37 67 55t81 18q39 0 73 -15.5t60 -42t41 -62t15 -75.5z" />
    <glyph glyph-name="c" unicode="c" horiz-adv-x="445" 
d="M413 235q0 -31 -10.5 -58t-30 -47.5t-46.5 -32.5t-60 -12q-23 0 -45 8t-39 23t-27.5 36t-10.5 47q0 21 8.5 40.5t27.5 34.5q6 5 14 5q9 0 15 -6.5t6 -14.5q0 -10 -9 -17q-21 -17 -21 -43q0 -31 24 -51.5t56 -20.5q22 0 41.5 8t34 22.5t22.5 34.5t8 44t-11 45t-29 36.5
t-41 24.5t-46 9q-33 0 -64 -10t-54.5 -29.5t-37.5 -48.5t-14 -66q0 -38 14 -67t37.5 -49t53.5 -30.5t62 -10.5t63.5 11t57.5 34q6 6 15 6q8 0 14 -6t6 -14q0 -9 -8 -16q-31 -29 -70.5 -43t-81.5 -14q-39 0 -75.5 12.5t-65.5 37t-46.5 62t-17.5 87.5q0 43 17 79t45.5 62
t67 40.5t82.5 14.5q32 0 62.5 -12t54 -33.5t38 -50t14.5 -61.5z" />
    <glyph glyph-name="d" unicode="d" horiz-adv-x="507" 
d="M386 186q0 33 -12 61.5t-33 50t-49.5 34t-61.5 12.5q-32 0 -60.5 -12t-49.5 -33t-33.5 -49t-12.5 -60t12.5 -60t33.5 -49t49.5 -33t60.5 -12q31 0 59 11.5t49.5 31.5t34.5 47.5t13 59.5zM452 0q-30 0 -47.5 20.5t-18.5 49.5q-29 -38 -70.5 -57t-86.5 -19q-39 0 -74.5 15
t-62.5 41.5t-43.5 62t-16.5 76.5q0 39 15.5 75t42.5 63t63 43t77 16q45 0 86 -19t70 -57v273q0 28 20 46q7 7 16 7q8 0 14 -6t6 -14q0 -9 -7 -16q-7 -9 -7 -17v-517q0 -10 7 -17t17 -7q11 0 17 -6.5t6 -14.5t-6 -14.5t-17 -6.5z" />
    <glyph glyph-name="e" unicode="e" horiz-adv-x="474" 
d="M441 158q-8 -36 -27 -65t-46 -49.5t-60.5 -32t-68.5 -11.5q-41 0 -78.5 15t-66 41t-45.5 62t-17 78t17 78t45.5 62t66 41t78.5 15q34 0 64.5 -8t53 -21.5t36 -31t13.5 -36.5q0 -15 -10.5 -25t-26.5 -10h-202q-11 0 -17 6t-6 14t6 14.5t17 6.5h191q-17 25 -51 37t-68 12
q-32 0 -62 -11.5t-53 -32t-36.5 -49t-13.5 -61.5t13.5 -61.5t36.5 -49t53 -32t62 -11.5q28 0 54 9t48 25t37.5 39t21.5 51q2 10 8 14t13 4q8 0 14.5 -5t6.5 -15q0 -2 -0.5 -3.5t-0.5 -2.5z" />
    <glyph glyph-name="f" unicode="f" horiz-adv-x="204" 
d="M412 651q4 -5 4 -12q0 -9 -6.5 -15t-14.5 -6q-12 0 -19 12q-20 35 -56.5 53t-75.5 18q-32 0 -59.5 -11t-47.5 -31t-32 -48t-12 -61v-262h67q11 0 17 -6.5t6 -14.5t-6 -14.5t-17 -6.5h-67v-225q0 -23 -10 -43t-30 -32q-5 -4 -13 -4t-14 6.5t-6 14.5q0 11 11 18t15.5 17.5
t4.5 22.5v225h-4q-11 0 -17 6.5t-6 14.5t6 14.5t17 6.5h4v262q0 39 14 74.5t39.5 61.5t61 41.5t77.5 15.5q51 0 97 -23.5t72 -68.5z" />
    <glyph glyph-name="g" unicode="g" horiz-adv-x="488" 
d="M454 361q-10 -21 -10 -46v-318q0 -32 -11.5 -60t-32.5 -49t-49 -33t-61 -12q-12 0 -24.5 1.5t-23.5 5.5q-9 2 -13 8t-4 13q0 8 5.5 14t14.5 6q5 0 8 -1q9 -3 18 -4t18 -1q47 0 80 30.5t33 81.5v250q-23 47 -67.5 75t-98.5 28q-32 0 -61.5 -11t-52 -31t-35.5 -48.5
t-13 -63.5q0 -33 13.5 -61.5t36 -49t52.5 -32t62 -11.5q28 0 57 8.5t51 27.5q7 6 15 6t14.5 -6.5t6.5 -14.5q0 -10 -9 -17q-27 -23 -63.5 -34.5t-71.5 -11.5q-41 0 -78 15t-65.5 41t-45.5 62t-17 78t15.5 77.5t43 62t65 41.5t80.5 15q94 0 166 -72q1 15 4 29.5t10 28.5
q6 14 19 14q8 0 14.5 -6t6.5 -15q0 -6 -2 -10z" />
    <glyph glyph-name="h" unicode="h" horiz-adv-x="439" 
d="M407 22q0 -11 -6.5 -17t-14.5 -6t-14.5 6t-6.5 17v195q0 30 -10 54t-28 41.5t-42.5 27t-52.5 9.5q-29 0 -53.5 -9.5t-42.5 -26.5t-28 -41t-10 -54v-197q0 -11 -6 -16t-14 -5t-14.5 5t-6.5 16v554q0 14 -13 21q-12 7 -12 19q0 8 5.5 14.5t14.5 6.5q6 0 12 -3
q16 -9 25 -24.5t9 -33.5v-241q26 29 60.5 42.5t72.5 13.5q35 0 67 -12.5t56 -35.5t38.5 -54.5t14.5 -70.5v-195v0z" />
    <glyph glyph-name="i" unicode="i" horiz-adv-x="130" 
d="M86 39q12 -7 12 -19q0 -8 -5.5 -14t-14.5 -6q-6 0 -12 3q-16 8 -25 23.5t-9 33.5v311q0 11 6.5 17t14.5 6t14.5 -6t6.5 -17v-311q0 -15 12 -21zM74 499q0 -11 -6.5 -17t-14.5 -6t-14.5 6t-6.5 17v116q0 11 6.5 16.5t14.5 5.5t14.5 -5.5t6.5 -16.5v-116z" />
    <glyph glyph-name="j" unicode="j" horiz-adv-x="111" 
d="M74 -3q0 -32 -11.5 -60t-32.5 -49t-49 -33t-61 -12q-12 0 -24.5 1.5t-23.5 5.5q-9 2 -13 8t-4 13q0 8 5.5 14t14.5 6q5 0 8 -1q9 -3 18 -4t18 -1q47 0 80 30.5t33 81.5v374q0 11 6.5 17t14.5 6t14.5 -6t6.5 -17v-374zM79 499q0 -11 -6 -17t-14 -6t-14.5 6t-6.5 17v116
q0 11 6 16.5t14 5.5t14.5 -5.5t6.5 -16.5v-116z" />
    <glyph glyph-name="k" unicode="k" horiz-adv-x="467" 
d="M430 46q-17 -23 -42 -34.5t-52 -11.5q-37 0 -68 22t-43 59q-2 8 -2 11q0 25 28 33q38 12 60 43.5t22 67.5q0 23 -9.5 43.5t-25 36.5t-37 25t-45.5 9q-21 0 -42 -8.5t-37.5 -23t-27 -34.5t-10.5 -43v-220q0 -8 -2.5 -14.5t-18.5 -6.5t-18.5 6.5t-2.5 14.5v554q0 14 -13 21
q-12 7 -12 19q0 8 5.5 14.5t14.5 6.5q6 0 12 -3q16 -9 25.5 -24.5t9.5 -33.5v-234q23 26 54 38.5t63 12.5q31 0 60 -12t51 -33.5t35 -50t13 -61.5q0 -47 -28 -89.5t-79 -59.5q9 -22 28.5 -33.5t40.5 -11.5q17 0 33 7.5t27 22.5q6 9 17 9q8 0 14.5 -5.5t6.5 -14.5
q0 -8 -5 -14z" />
    <glyph glyph-name="l" unicode="l" horiz-adv-x="130" 
d="M98 22q0 -11 -6.5 -17t-14.5 -6t-14.5 6t-6.5 17v553q0 14 -12 21t-12 20q0 8 5.5 14t13.5 6q6 0 12 -3q16 -9 25.5 -24.5t9.5 -33.5v-553v0z" />
    <glyph glyph-name="m" unicode="m" horiz-adv-x="692" 
d="M660 22q0 -11 -6 -17t-14 -6t-14.5 6t-6.5 17v208q0 25 -9 47t-25 38t-38 25t-48 9q-24 0 -46 -8.5t-38.5 -24.5t-26 -37.5t-9.5 -48.5v-208q0 -11 -6.5 -17t-14.5 -6t-14.5 6t-6.5 17v208q0 25 -9 46.5t-25 38t-38 26t-48 9.5q-23 0 -44.5 -8t-38 -22.5t-26.5 -35.5
t-10 -48v-214q0 -11 -6.5 -17t-14.5 -6t-14.5 6t-6.5 17v310q0 14 -12 21t-12 19q0 8 5.5 14t13.5 6q6 0 12 -3q29 -15 34 -48q24 25 55.5 37.5t65.5 12.5q42 0 80 -19.5t60 -57.5q22 38 60 57.5t80 19.5q33 0 62 -12t51.5 -33t35.5 -50.5t13 -65.5v-208v0z" />
    <glyph glyph-name="n" unicode="n" horiz-adv-x="439" 
d="M407 22q0 -11 -6.5 -17t-14.5 -6t-14.5 6t-6.5 17v195q0 27 -10 51.5t-27.5 42.5t-42 28.5t-53.5 10.5q-26 0 -50 -9t-43 -25.5t-30 -40t-11 -52.5v-202q0 -11 -6.5 -16t-14.5 -5t-14.5 5t-6.5 16q0 78 0.5 155.5t0.5 155.5q0 14 -13 21q-12 7 -12 19q0 8 5.5 14t14.5 6
q6 0 12 -3q32 -18 34 -55q26 29 60.5 42.5t72.5 13.5q35 0 67 -12.5t56 -35.5t38.5 -54.5t14.5 -70.5v-195v0z" />
    <glyph glyph-name="o" unicode="o" 
d="M395 196q0 33 -13 61t-35 48.5t-51.5 32.5t-61.5 12t-61 -12t-51 -32.5t-35 -48.5t-13 -61t13 -61t35 -48.5t51 -32.5t61 -12t61.5 11.5t51.5 32.5t35 49t13 61zM436 196q0 -41 -16 -77t-44 -62.5t-64.5 -41.5t-77.5 -15t-77.5 15t-64 41.5t-44 62.5t-16.5 77t16 77
t44 62.5t64.5 41.5t77.5 15q40 0 77 -15t64.5 -41.5t44 -62.5t16.5 -77z" />
    <glyph glyph-name="p" unicode="p" horiz-adv-x="451" 
d="M419 194q0 -36 -13.5 -71.5t-37.5 -63t-57 -44.5t-73 -17q-51 0 -94 28q-10 7 -10 18q0 8 5.5 14t14.5 6q6 0 13 -4q31 -21 69 -21q30 0 56 13t44.5 34.5t29.5 49.5t11 58q0 28 -10 56t-28.5 49.5t-44.5 35t-57 13.5q-26 0 -52 -10.5t-46 -33.5q-19 -21 -30 -49t-11 -60
v-420q0 -11 -6.5 -16.5t-14.5 -5.5t-14.5 5.5t-6.5 16.5v555q0 14 -12 21t-12 19q0 8 5.5 14t13.5 6q6 0 12 -3q16 -8 25.5 -23.5t9.5 -33.5v-11q26 35 63 53t77 18q38 0 71 -16.5t57.5 -43.5t38.5 -62.5t14 -73.5z" />
    <glyph glyph-name="q" unicode="q" horiz-adv-x="451" 
d="M407 351q-12 -6 -12 -21v-555q0 -11 -6.5 -16.5t-14.5 -5.5t-14.5 5.5t-6.5 16.5v428q0 28 -11 54t-29.5 46t-44 32.5t-54.5 12.5q-31 0 -57 -13t-44.5 -34.5t-28.5 -49.5t-10 -57t10 -56.5t29 -49t44.5 -35t57.5 -13.5q18 0 35.5 4.5t33.5 15.5q7 4 13 4q9 0 15 -6
t6 -14q0 -11 -11 -18q-22 -14 -46 -21t-48 -7q-35 0 -68.5 14.5t-59.5 43.5t-39.5 64.5t-13.5 73.5q0 36 13.5 71.5t37.5 63t57.5 44.5t73.5 17q42 0 78 -19t61 -52v11q0 18 9 33.5t25 23.5q6 3 12 3q9 0 14.5 -6.5t5.5 -14.5q0 -11 -12 -18z" />
    <glyph glyph-name="r" unicode="r" horiz-adv-x="325" 
d="M293 298q0 -19 -8 -35t-21 -27t-29.5 -17.5t-33.5 -6.5t-32.5 6.5t-28.5 20.5q-7 7 -7 16q0 8 6.5 14t14.5 6q10 0 17 -8q13 -14 31 -14q19 0 34.5 13t15.5 34q0 50 -51 50q-26 0 -45 -17.5t-32 -42.5t-19 -53t-6 -50v-165q0 -11 -6.5 -17t-14.5 -6t-14.5 6t-6.5 17v310
q0 14 -13 21q-12 7 -12 19q0 8 5.5 14t14.5 6q6 0 12 -3q17 -10 25.5 -25.5t9.5 -34.5q20 29 46.5 46t55.5 17q41 0 66 -26t26 -68z" />
    <glyph glyph-name="s" unicode="s" horiz-adv-x="324" 
d="M200 216q49 -15 71 -44t22 -61q0 -21 -9.5 -41.5t-27.5 -36.5t-44 -26t-59 -10q-32 0 -63.5 15t-51.5 39q-6 7 -6 15t6.5 14.5t14.5 6.5q9 0 17 -9q14 -17 37 -28t46 -11q45 0 71.5 22.5t26.5 50.5q0 19 -15 36.5t-48 27.5q-19 5 -38.5 8t-38.5 10q-32 12 -49 37t-17 54
q0 22 9 41.5t24.5 34t36.5 23t44 8.5q31 0 57 -7t51 -27q9 -6 9 -17q0 -8 -6 -14.5t-15 -6.5q-8 0 -14 5q-19 14 -38.5 19.5t-43.5 5.5q-13 0 -26 -4.5t-23.5 -13t-17 -20.5t-6.5 -27q0 -22 12 -33.5t29.5 -18t37 -9.5t35.5 -8z" />
    <glyph glyph-name="t" unicode="t" horiz-adv-x="321" 
d="M285 48q-14 -24 -38 -36t-50 -12q-21 0 -39 7.5t-31.5 21t-21 32t-7.5 39.5v146h-44q-11 0 -16.5 6t-5.5 14t5.5 14.5t16.5 6.5h44v179q0 11 6.5 17t14.5 6t14.5 -6t6.5 -17v-179h65q11 0 17 -6t6 -14t-6 -14.5t-17 -6.5h-65v-146q0 -24 16 -41.5t42 -17.5q15 0 29 6.5
t22 20.5q7 12 19 12q8 0 14.5 -6t6.5 -14q0 -4 -4 -12z" />
    <glyph glyph-name="u" unicode="u" horiz-adv-x="406" 
d="M362 39q12 -7 12 -19q0 -8 -5.5 -14t-13.5 -6q-6 0 -12 3q-26 14 -30 41q-22 -22 -50.5 -32.5t-59.5 -10.5q-28 0 -55 9.5t-48 28t-34 46.5t-13 65v188q0 10 -9 15q-12 7 -12 19q0 8 5.5 14t14.5 6q6 0 12 -3q14 -8 22.5 -21.5t8.5 -29.5v-188q0 -27 9.5 -47.5t24.5 -34
t34.5 -20t39.5 -6.5q21 0 40.5 6.5t34.5 20t24.5 34t9.5 47.5v221q0 11 6.5 17t14.5 6t14.5 -6t6.5 -17v-317q0 -10 8 -15z" />
    <glyph glyph-name="v" unicode="v" horiz-adv-x="387" 
d="M213 4q-5 -12 -19 -12q-16 0 -20 12l-140 360q-2 6 -2 9q0 9 6.5 14.5t14.5 5.5q14 0 20 -14l121 -310l120 310q6 14 20 14q8 0 14.5 -5.5t6.5 -14.5q0 -3 -2 -9z" />
    <glyph glyph-name="w" unicode="w" horiz-adv-x="665" 
d="M621 39q12 -7 12 -19q0 -8 -5.5 -14t-14.5 -6q-6 0 -12 3q-26 14 -30 41q-22 -22 -50.5 -32.5t-58.5 -10.5q-38 0 -73.5 17t-55.5 52q-21 -35 -56.5 -52.5t-73.5 -17.5q-30 0 -57 11t-48 31t-33 47.5t-12 60.5v188q0 10 -9 15q-12 7 -12 19q0 8 5.5 14t14.5 6q6 0 12 -3
q14 -8 22.5 -21.5t8.5 -29.5v-188q0 -49 31 -78.5t77 -29.5q47 0 78 29.5t31 78.5v221q0 11 6 17t14 6t14.5 -6t6.5 -17v-221q0 -48 30.5 -78t78.5 -30q20 0 39.5 6.5t34.5 19.5t24.5 32.5t9.5 45.5v225q0 11 6.5 17t14.5 6t14.5 -6t6.5 -17v-317q0 -11 9 -15z" />
    <glyph glyph-name="x" unicode="x" horiz-adv-x="433" 
d="M379 0q-20 0 -38.5 8t-31.5 25q-26 35 -51 70l-50 70l-120 -164q-7 -10 -18 -10q-8 0 -14.5 6t-6.5 14t5 14l128 176l-91 126q-5 8 -15.5 11.5t-21.5 3.5t-16.5 6.5t-5.5 14.5t5.5 14t16.5 7q20 0 39 -8t32 -25l83 -115l101 139q7 10 18 10q8 0 14.5 -6t6.5 -14
q0 -6 -5 -14l-110 -151q28 -38 55 -75.5t54 -75.5q6 -8 16 -11.5t21 -3.5t16.5 -6.5t5.5 -14.5t-5.5 -14t-16.5 -7z" />
    <glyph glyph-name="y" unicode="y" horiz-adv-x="386" 
d="M354 -3q0 -32 -12 -60t-32.5 -49t-49 -33t-61.5 -12q-12 0 -24.5 1.5t-23.5 5.5q-8 2 -12 8t-4 12q0 8 5.5 14.5t14.5 6.5q5 0 8 -1q9 -3 18 -4t18 -1q50 0 81 33.5t32 89.5v35q-22 -21 -50.5 -31.5t-58.5 -10.5q-28 0 -55 9.5t-48 28t-34 46.5t-13 65v188q0 10 -9 15
q-12 7 -12 19q0 8 5.5 14t14.5 6q6 0 12 -3q14 -8 22.5 -21.5t8.5 -29.5v-188q0 -27 9.5 -47.5t24.5 -34t34.5 -20t39.5 -6.5q21 0 40.5 6.5t34.5 20t24.5 34t9.5 47.5v221q0 11 6.5 17t14.5 6t14.5 -6t6.5 -17v-374v0z" />
    <glyph glyph-name="z" unicode="z" horiz-adv-x="404" 
d="M369 57q-14 -26 -39.5 -41.5t-55.5 -15.5h-221q-9 0 -15 7t-6 15q0 7 4 12l257 316h-197q-14 0 -20 -12q-7 -12 -18 -12q-8 0 -14.5 5.5t-6.5 14.5q0 6 3 12q8 16 23.5 25t32.5 9h241q9 0 15 -6.5t6 -14.5q0 -6 -5 -13l-257 -316h178q40 0 59 34q7 12 19 12q8 0 14 -5.5
t6 -13.5q0 -6 -3 -12z" />
    <glyph glyph-name="braceleft" unicode="{" horiz-adv-x="211" 
d="M157 715q11 -1 16.5 -7t5.5 -14q0 -14 -15 -20q-48 -13 -67 -38t-19 -60q0 -26 7.5 -50.5t16.5 -49t16.5 -48t7.5 -47.5q0 -20 -8 -44.5t-28 -41.5q36 -34 36 -85q0 -19 -7.5 -43t-16.5 -49.5t-16.5 -51.5t-7.5 -50q0 -34 18 -60.5t68 -37.5q15 -8 15 -21
q0 -8 -5.5 -13.5t-16.5 -6.5q-25 5 -47 16.5t-39 29t-27 42t-10 55.5q0 38 17.5 84t32.5 94q1 4 1 13q0 20 -10.5 38.5t-30.5 27.5q-12 7 -12 19q0 11 12 19q23 9 32 26t9 38q0 26 -8 50t-17 48t-17 48t-8 51q0 51 31 88.5t91 50.5z" />
    <glyph glyph-name="braceright" unicode="}" horiz-adv-x="211" 
d="M54 715q60 -13 91 -50.5t31 -88.5q0 -27 -8 -51t-17 -48t-17 -48t-8 -50q0 -21 9 -38t32 -26q12 -8 12 -19q0 -12 -12 -19q-20 -9 -30.5 -27.5t-10.5 -38.5q0 -9 1 -13q15 -48 32.5 -94t17.5 -84q0 -31 -10 -55.5t-27 -42t-39 -29t-47 -16.5q-11 1 -16.5 6.5t-5.5 13.5
q0 13 15 21q50 11 68 37.5t18 60.5q0 24 -7.5 50t-16.5 51.5t-16.5 49.5t-7.5 43q0 51 36 85q-20 17 -28 41.5t-8 44.5q0 24 7.5 47.5t16.5 48t16.5 49t7.5 50.5q0 35 -19 60t-67 38q-15 6 -15 20q0 8 5.5 14t16.5 7z" />
    <glyph glyph-name="nonbreakingspace" unicode="&#xa0;" horiz-adv-x="225" 
 />
    <glyph glyph-name="exclamdown" unicode="&#xa1;" horiz-adv-x="200" 
d="M32 438q0 28 19.5 48t48.5 20q26 0 47 -19.5t21 -48.5t-21 -48.5t-47 -19.5q-29 0 -48.5 20t-19.5 48zM79 328q0 11 6 17t14 6t14.5 -6t6.5 -17v-504q0 -11 -6 -17t-14 -6t-14.5 6t-6.5 17v504z" />
    <glyph glyph-name="cent" unicode="&#xa2;" horiz-adv-x="445" 
d="M202 518q-57 -11 -92.5 -50.5t-35.5 -99.5q0 -28 10 -53t27 -45t40.5 -33.5t50.5 -19.5v301zM413 406q0 -11 -6.5 -16.5t-14.5 -5.5t-14.5 5.5t-6.5 16.5q0 25 -11.5 46t-29.5 36.5t-41 24.5t-46 9v-309q32 1 63 11t56 32q7 6 15 6t14 -6t6 -14q0 -10 -8 -17
q-29 -26 -67.5 -39t-78.5 -14v-152q0 -11 -6 -17t-14 -6t-14.5 6t-6.5 17v155q-35 6 -66 23t-54 42.5t-36.5 58t-13.5 69.5q0 38 12.5 71t35 58t53.5 41t69 22v122q0 11 6 17t14 6t14.5 -6t6.5 -17v-118q32 0 62.5 -12t54.5 -33.5t38.5 -50.5t14.5 -62z" />
    <glyph glyph-name="sterling" unicode="&#xa3;" horiz-adv-x="366" 
d="M334 446q0 -25 -21 -25q-8 0 -14 5t-7 16q-4 46 -36 78t-80 32q-18 0 -35.5 -6t-32 -17.5t-23.5 -28.5t-9 -39q0 -30 14 -51.5t33 -43.5h86q11 0 16.5 -6.5t5.5 -14.5t-5.5 -14.5t-16.5 -6.5h-53q14 -22 23 -41t9 -43q0 -17 -4.5 -33t-15.5 -30q10 -2 21.5 -5.5
t25.5 -3.5q23 0 45 9.5t30 31.5q3 8 8.5 11.5t11.5 3.5q8 0 14.5 -5.5t6.5 -14.5q0 -3 -2 -9q-13 -35 -45.5 -51.5t-68.5 -16.5q-23 0 -42.5 7.5t-38.5 7.5q-11 0 -21.5 -6t-23.5 -6q-10 0 -15 6.5t-5 14.5q0 7 4 13t14 8q25 5 42 23.5t17 44.5q0 24 -13.5 45t-28.5 39h-50
q-11 0 -16.5 6.5t-5.5 14.5t5.5 14.5t16.5 6.5h15q-34 42 -34 94q0 32 12.5 57t33 42t45.5 26t50 9q32 0 60 -12t49 -32t33.5 -47t15.5 -57z" />
    <glyph glyph-name="currency" unicode="&#xa4;" horiz-adv-x="489" 
d="M457 175q0 -11 -6.5 -17t-14.5 -6t-14.5 6t-6.5 17v31q-25 -17 -54 -25.5t-59 -8.5q-33 0 -63.5 9.5t-56 27.5t-44.5 43.5t-29 56.5h-55q-11 0 -16.5 6.5t-5.5 14.5t5.5 14.5t16.5 6.5h46q-1 4 -1 8v8q0 5 0.5 8.5t0.5 8.5h-46q-11 0 -16.5 6.5t-5.5 14.5t5.5 14.5
t16.5 6.5h55q10 31 29 56.5t44.5 43.5t56 28t63.5 10q62 0 113 -34v30q0 11 6.5 17t14.5 6t14.5 -6t6.5 -17v-75q0 -9 -7 -14.5t-15 -5.5t-14 6q-23 25 -54 38t-65 13q-48 0 -89 -25.5t-60 -70.5h240q11 0 17 -6.5t6 -14.5t-6 -14.5t-17 -6.5h-251q-1 -4 -1 -8v-8
q0 -5 0.5 -8.5t0.5 -8.5h214q11 0 16.5 -6.5t5.5 -14.5t-5.5 -14.5t-16.5 -6.5h-203q19 -44 60 -70t89 -26q34 0 65 13.5t54 37.5q6 6 14 6t15 -5.5t7 -14.5v-75v0z" />
    <glyph glyph-name="yen" unicode="&#xa5;" horiz-adv-x="383" 
d="M265 426h63q11 0 17 -6.5t6 -14.5t-6 -14.5t-17 -6.5h-86l-18 -33h104q11 0 17 -6.5t6 -14.5t-6 -14.5t-17 -6.5h-115v-129q0 -11 -6.5 -17t-14.5 -6t-14.5 6t-6.5 17v129h-116q-11 0 -17 6.5t-6 14.5t6 14.5t17 6.5h105l-19 33h-86q-11 0 -17 6.5t-6 14.5t6 14.5t17 6.5
h63l-65 119q-3 6 -3 12q0 9 6 14.5t14 5.5q12 0 19 -12l103 -186l102 186q7 12 19 12q8 0 14.5 -5.5t6.5 -14.5q0 -6 -3 -12z" />
    <glyph glyph-name="brokenbar" unicode="&#xa6;" horiz-adv-x="833" 
 />
    <glyph glyph-name="section" unicode="&#xa7;" horiz-adv-x="1261" 
d="M1229 671v-280h-82v197h-48v83h130zM949 325q-8 0 -8 -9q0 -8 8 -8h165v-40h-165q-8 0 -8 -8q0 -9 8 -9h165v-40h-165q-20 0 -33.5 14.5t-13.5 34.5q0 16 9 28q-9 12 -9 28q0 20 13.5 34t33.5 14h165v-39h-165zM360 308v-40h-174v-57h-39v105q0 20 14 34t34 14h165v-39
h-165q-9 0 -9 -9v-8h174zM397 364h224v-53q0 -23 -15.5 -40.5t-38.5 -19.5l36 -40h-53l-37 40h-57v39h105q8 0 14.5 6t6.5 15v13h-145v-113h-40v153zM703 325q-9 0 -9 -9q0 -8 9 -8h165v-40h-165q-9 0 -9 -8q0 -9 9 -9h165v-40h-165q-20 0 -34 14.5t-14 34.5q0 16 9 28
q-9 12 -9 28q0 20 14 34t34 14h165v-39h-165zM986 185v-39h-112v-74h47v-40h-87v114h-69v39h221zM1153 72q20 0 31 17h-171v19q0 32 22.5 54.5t53.5 22.5h140v-39h-140q-20 0 -30 -17h170v-21q0 -31 -22 -53.5t-54 -22.5h-140v40h140zM245 129v-40h-173v-57h-40v105
q0 20 14 34t34 14h165v-39h-165q-8 0 -8 -9v-8h173zM732 32h-59q-7 26 -19.5 46.5t-35.5 38.5q-27 21 -63 27v-112h-39v153h22q28 0 54.5 -10t49.5 -27q32 -24 50 -59v96h40v-153zM480 185v-71q0 -34 -24 -58t-58 -24h-130v71q0 34 24 58t59 24h129zM351 145
q-18 0 -30.5 -12.5t-12.5 -29.5v-31h90q17 0 29.5 12.5t12.5 29.5v31h-89zM162 671v-280h-83v197h-47v83h130zM1042 671v-130q0 -31 -12 -58t-32 -47.5t-47.5 -32.5t-58.5 -12h-233v129q0 31 12 58.5t32 48t47.5 32.5t59.5 12h232zM810 588q-29 0 -49 -19.5t-20 -48.5v-47
h151q28 0 48 20t20 48v47h-150zM602 671v-130q0 -31 -12 -58t-32 -47.5t-47.5 -32.5t-58.5 -12h-233v129q0 31 12 58.5t32.5 48t48 32.5t58.5 12h232zM370 588q-29 0 -49 -19.5t-20 -48.5v-47h151q28 0 48 20t20 48v47h-150z" />
    <glyph glyph-name="dieresis" unicode="&#xa8;" horiz-adv-x="220" 
d="M100 458q0 -14 -10 -24t-24 -10t-24 10t-10 24t10 24t24 10t24 -10t10 -24zM188 458q0 -14 -10 -24t-24 -10t-24 10t-10 24t10 24t24 10t24 -10t10 -24z" />
    <glyph glyph-name="copyright" unicode="&#xa9;" horiz-adv-x="749" 
d="M32 351q0 71 27 133.5t73.5 109t108.5 73.5t133 27t133.5 -27t109 -73.5t73.5 -109t27 -133.5t-27 -133t-73.5 -108.5t-109 -73.5t-133.5 -27t-133 27t-108.5 73.5t-73.5 108.5t-27 133zM68 351q0 -63 24 -119t65.5 -97.5t97.5 -65.5t119 -24t119 24t98 65.5t66 97.5
t24 119t-24 119t-66 98t-98 66t-119 24t-119 -24t-97.5 -66t-65.5 -98t-24 -119zM605 210q-38 -52 -94.5 -83t-120.5 -31q-57 0 -105.5 20t-84 56t-55.5 86.5t-20 112.5q0 49 19.5 92t52.5 74.5t76.5 49.5t91.5 18q44 0 85 -12t72 -36.5t49.5 -62t18.5 -87.5q0 -34 -13 -64
t-35.5 -52.5t-52 -36t-63.5 -13.5q-31 0 -59.5 8.5t-50.5 26t-35 43t-13 59.5q0 17 7 34.5t19 31.5t28.5 23t34.5 9q9 0 14.5 -5.5t5.5 -12.5t-5.5 -12.5t-14.5 -5.5q-11 0 -21 -6t-17 -15t-11 -20t-4 -21q0 -26 10 -45t27 -31.5t39 -18.5t46 -6q26 0 49 10.5t40.5 28.5
t27.5 41.5t10 49.5q0 39 -15 69.5t-40.5 50.5t-60 30.5t-72.5 10.5q-41 0 -77.5 -15t-65 -41.5t-45 -62.5t-16.5 -78q0 -51 15 -94.5t44.5 -75.5t72 -50t97.5 -18q57 0 104.5 26.5t80.5 70.5q7 9 16 9q6 0 12 -5t6 -13q0 -6 -4 -11z" />
    <glyph glyph-name="ordfeminine" unicode="&#xaa;" horiz-adv-x="246" 
d="M214 511q0 -9 -5.5 -14t-11.5 -5q-7 0 -11.5 3t-4.5 12q-7 -7 -18.5 -10.5t-25.5 -3.5q-31 0 -56.5 19.5t-25.5 52.5q0 25 17.5 45t50.5 20q12 0 31 -8t27 -20v17q0 26 -17.5 38.5t-39.5 12.5q-23 0 -41 -12.5t-18 -38.5q0 -9 -5 -13.5t-11 -4.5q-7 0 -12 4.5t-5 13.5
q0 20 8 35.5t20.5 26.5t29 16.5t34.5 5.5q17 0 33.5 -5.5t29 -16t20 -26.5t7.5 -36v-108zM134 527q17 0 32 11t15 28v13q-6 -6 -13 -6q-5 0 -9.5 3.5t-9.5 8t-11.5 8.5t-14.5 4q-17 0 -26.5 -10t-9.5 -23q0 -17 15 -27t32 -10zM198 470q11 0 17 -6.5t6 -14.5t-6 -14.5
t-17 -6.5h-143q-11 0 -17 6.5t-6 14.5t6 14.5t17 6.5h143z" />
    <glyph glyph-name="guillemotleft" unicode="&#xab;" horiz-adv-x="366" 
d="M325 248q9 -8 9 -17q0 -8 -6 -14t-14 -6q-10 0 -16 6l-149 129q-7 6 -7 16t7 16l149 130q7 6 15 6t14.5 -6.5t6.5 -14.5q0 -10 -9 -17l-131 -114zM215 248q9 -8 9 -17q0 -8 -6 -14t-14 -6q-10 0 -16 6l-149 129q-7 6 -7 16t7 16l149 130q7 6 15 6t14.5 -6.5t6.5 -14.5
q0 -10 -9 -17l-131 -114z" />
    <glyph glyph-name="logicalnot" unicode="&#xac;" horiz-adv-x="481" 
d="M449 235q0 -11 -6.5 -17t-14.5 -6t-14.5 6t-6.5 17v105h-352q-11 0 -17 6.5t-6 14.5t6 14.5t17 6.5h371q11 0 17 -6.5t6 -14.5v-126z" />
    <glyph glyph-name="registered" unicode="&#xae;" horiz-adv-x="493" 
d="M354 355q0 -15 -20 -15q-12 0 -22.5 6t-18.5 16q-31 43 -49.5 67t-28.5 35t-14 14t-6 5v-128q0 -8 -4.5 -11.5t-10.5 -3.5q-5 0 -9.5 3.5t-4.5 11.5v236q0 20 14.5 34.5t34.5 14.5h17q35 0 59.5 -24.5t24.5 -58.5q0 -30 -21 -54t-51 -28q25 -37 41 -57.5t26 -31t16 -13.5
t12 -3q8 0 11.5 -4.5t3.5 -10.5zM195 505q4 4 9 4q7 0 13.5 -3t14.5 -3q21 0 37.5 15.5t16.5 38.5t-15.5 38.5t-38.5 15.5h-17q-8 0 -14 -6t-6 -14v-86zM32 488q0 45 16.5 84t45.5 68.5t68 46.5t84 17q44 0 83 -17t68.5 -46.5t46.5 -68.5t17 -84q0 -44 -17 -83t-46.5 -68
t-68.5 -46t-83 -17q-45 0 -84 17t-68 46t-45.5 68t-16.5 83zM59 488q0 -39 14.5 -73t40 -59.5t59.5 -40t73 -14.5t73 14.5t59.5 40t40.5 59.5t15 73t-15 73t-40.5 59.5t-59.5 40.5t-73 15t-73 -15t-59.5 -40.5t-40 -59.5t-14.5 -73z" />
    <glyph glyph-name="macron" unicode="&#xaf;" horiz-adv-x="221" 
d="M166 466q11 0 17 -6.5t6 -14.5t-6 -14.5t-17 -6.5h-111q-11 0 -17 6.5t-6 14.5t6 14.5t17 6.5h111v0z" />
    <glyph glyph-name="degree" unicode="&#xb0;" horiz-adv-x="276" 
d="M32 611q2 25 11.5 44t24.5 32t33.5 19t37.5 6q20 0 39 -6.5t33.5 -19.5t23.5 -32.5t9 -45.5t-9 -45.5t-23.5 -32.5t-33.5 -19.5t-39 -6.5q-19 0 -37.5 6t-33.5 19t-24.5 31.5t-11.5 44.5v6zM74 608q2 -32 22 -48t43 -16q24 0 43.5 16t19.5 48t-19.5 47.5t-43.5 15.5
q-23 0 -43 -15.5t-22 -47.5z" />
    <glyph glyph-name="plusminus" unicode="&#xb1;" horiz-adv-x="481" 
d="M261 340v-165q0 -11 -6.5 -17t-14.5 -6t-14.5 6t-6.5 17v165h-164q-11 0 -17 6.5t-6 14.5t6 14.5t17 6.5h164v164q0 11 6.5 17t14.5 6t14.5 -6t6.5 -17v-164h165q11 0 17 -6.5t6 -14.5t-6 -14.5t-17 -6.5h-165zM55 2q-11 0 -17 6.5t-6 14.5t6 14.5t17 6.5h371
q11 0 17 -6.5t6 -14.5t-6 -14.5t-17 -6.5h-371z" />
    <glyph glyph-name="twosuperior" unicode="&#xb2;" horiz-adv-x="265" 
d="M233 605q0 -26 -9.5 -50.5t-29.5 -42.5l-70 -62h73q9 0 14 -5.5t5 -12.5q0 -6 -5 -11.5t-14 -5.5h-119q-8 0 -12.5 5.5t-4.5 11.5q0 8 5 13l106 93q14 12 20 29.5t6 37.5q0 28 -20 47t-48 19q-26 0 -44.5 -13t-18.5 -41q0 -17 11 -29.5t28 -12.5q14 0 26 7t12 23
q0 8 5 13t12 5q5 0 11.5 -5t6.5 -13q0 -32 -22 -48.5t-49 -16.5q-32 0 -54 22.5t-22 56.5q0 41 29.5 63.5t68.5 22.5q21 0 39.5 -7.5t32.5 -21t22.5 -32t8.5 -39.5z" />
    <glyph glyph-name="threesuperior" unicode="&#xb3;" horiz-adv-x="276" 
d="M244 511q0 -21 -8.5 -40.5t-22.5 -33.5t-33.5 -22.5t-41.5 -8.5q-21 0 -41 7.5t-35 22.5q-14 14 -22 32.5t-8 41.5q0 8 5.5 13.5t11.5 5.5q7 0 12.5 -5t5.5 -14q0 -29 20.5 -49.5t50.5 -20.5q29 0 50 20.5t21 49.5q0 25 -13 42q-11 -8 -25 -13.5t-29 -5.5q-16 0 -33.5 10
t-17.5 30t16.5 31t35.5 11q12 0 23.5 -3.5t22.5 -8.5q3 9 3 17q0 22 -15.5 37.5t-38.5 15.5q-14 0 -27 -9t-21 -9q-7 0 -12 5t-5 12q0 8 5 13q25 22 60 22q18 0 34 -6.5t28 -18t19 -27.5t7 -35q0 -22 -8 -39q14 -14 20 -32t6 -38zM141 568q15 0 26 7q-13 5 -26 5
q-4 0 -9.5 -1.5t-5.5 -4.5q0 -2 5 -4t10 -2z" />
    <glyph glyph-name="acute" unicode="&#xb4;" horiz-adv-x="281" 
d="M59 424q-2 -1 -6 -1q-10 0 -15.5 6.5t-5.5 14.5q0 7 4 13t13 8l173 41q2 1 6 1q10 0 15.5 -6.5t5.5 -14.5q0 -6 -4 -12t-13 -8z" />
    <glyph glyph-name="mu" unicode="&#xb5;" horiz-adv-x="406" 
d="M107 -104q12 -7 12 -19q0 -8 -5.5 -14t-14.5 -6q-6 0 -12 3q-16 8 -25 23.5t-9 33.5v421q0 10 -9 15q-12 7 -12 19q0 8 5.5 14t14.5 6q6 0 12 -3q14 -8 22.5 -21.5t8.5 -29.5v-188q0 -27 9.5 -47.5t24.5 -34t34.5 -20t39.5 -6.5q21 0 40.5 6.5t34.5 20t24.5 34t9.5 47.5
v221q0 11 6.5 17t14.5 6t14.5 -6t6.5 -17v-317q0 -10 8 -15q12 -7 12 -19q0 -8 -5.5 -14t-13.5 -6q-6 0 -12 3q-26 14 -30 41q-22 -22 -50.5 -32.5t-59.5 -10.5q-30 0 -58.5 10.5t-49.5 30.5v-125q0 -15 12 -21z" />
    <glyph glyph-name="mu" unicode="&#x3bc;" horiz-adv-x="406" 
d="M107 -104q12 -7 12 -19q0 -8 -5.5 -14t-14.5 -6q-6 0 -12 3q-16 8 -25 23.5t-9 33.5v421q0 10 -9 15q-12 7 -12 19q0 8 5.5 14t14.5 6q6 0 12 -3q14 -8 22.5 -21.5t8.5 -29.5v-188q0 -27 9.5 -47.5t24.5 -34t34.5 -20t39.5 -6.5q21 0 40.5 6.5t34.5 20t24.5 34t9.5 47.5
v221q0 11 6.5 17t14.5 6t14.5 -6t6.5 -17v-317q0 -10 8 -15q12 -7 12 -19q0 -8 -5.5 -14t-13.5 -6q-6 0 -12 3q-26 14 -30 41q-22 -22 -50.5 -32.5t-59.5 -10.5q-30 0 -58.5 10.5t-49.5 30.5v-125q0 -15 12 -21z" />
    <glyph glyph-name="paragraph" unicode="&#xb6;" horiz-adv-x="701" 
d="M568 -169q0 -11 -6.5 -16.5t-14.5 -5.5t-14 5.5t-6 16.5v186q-66 -26 -135 -26q-74 0 -139.5 28t-114.5 77t-77.5 114.5t-28.5 139.5q0 75 28.5 140t77.5 113t114.5 75.5t139.5 27.5q38 0 86 -4t90.5 -19.5t71.5 -46t29 -83.5v-722q0 -11 -6.5 -16.5t-14.5 -5.5t-14 5.5
t-6 16.5v722q0 32 -17 52t-43 32v-806z" />
    <glyph glyph-name="periodcentered" unicode="&#xb7;" horiz-adv-x="200" 
d="M168 338q0 -28 -19.5 -48t-48.5 -20q-26 0 -47 19.5t-21 48.5t21 48.5t47 19.5q29 0 48.5 -20t19.5 -48z" />
    <glyph glyph-name="cedilla" unicode="&#xb8;" horiz-adv-x="199" 
d="M167 -98q0 -28 -21 -50t-52 -22q-15 0 -30.5 7t-26.5 21q-5 6 -5 14q0 9 6.5 15t14.5 6q9 0 17 -9q10 -12 25 -12q11 0 20.5 8t9.5 23q0 13 -9.5 21.5t-21.5 8.5q-11 0 -18 -6q-5 -3 -10 -3q-8 0 -15.5 6.5t-7.5 14.5q0 4 3 9l45 74q7 11 18 11q8 0 14.5 -6t6.5 -14
t-4 -13l-20 -32q27 -5 44 -25t17 -47z" />
    <glyph glyph-name="onesuperior" unicode="&#xb9;" horiz-adv-x="136" 
d="M104 436q0 -10 -5 -14t-12 -4t-12 4t-5 14v215l-10 -8q-2 -2 -5 -2.5t-5 -0.5q-7 0 -12.5 5.5t-5.5 12.5q0 8 1 9l45 37q2 1 4.5 2t4.5 1q7 0 12 -5t5 -13v-253v0z" />
    <glyph glyph-name="ordmasculine" unicode="&#xba;" horiz-adv-x="278" 
d="M210 599q0 29 -21 48t-50 19q-28 0 -49 -19t-21 -48t21 -48t49 -19q29 0 50 19t21 48zM250 599q0 -23 -9 -42.5t-24 -34t-35.5 -23t-42.5 -8.5t-42 8.5t-35.5 23t-24.5 34t-9 42.5q0 22 9 42t24.5 34.5t35.5 23t42 8.5t42 -8.5t35.5 -23t24.5 -34.5t9 -42zM228 470
q11 0 17 -6.5t6 -14.5t-6 -14.5t-17 -6.5h-173q-11 0 -17 6.5t-6 14.5t6 14.5t17 6.5h173z" />
    <glyph glyph-name="guillemotright" unicode="&#xbb;" horiz-adv-x="366" 
d="M68 217q-6 -6 -16 -6q-8 0 -14 6t-6 14q0 9 9 17l131 114l-131 114q-9 7 -9 17q0 8 6.5 14.5t14.5 6.5q7 0 15 -6l149 -130q7 -6 7 -16t-7 -16zM178 217q-6 -6 -16 -6q-8 0 -14 6t-6 14q0 9 9 17l131 114l-131 114q-9 7 -9 17q0 8 6.5 14.5t14.5 6.5q7 0 15 -6l149 -130
q7 -6 7 -16t-7 -16z" />
    <glyph glyph-name="onequarter" unicode="&#xbc;" horiz-adv-x="575" 
d="M127 305q0 -11 -6.5 -16t-13.5 -5q-8 0 -14.5 5t-6.5 16v329l-17 -14q-12 -9 -17 -9q-8 0 -14.5 6t-6.5 14q0 9 8 17l50 42q11 8 18 8t13.5 -6t6.5 -14v-373zM73 11q-4 -8 -10 -10t-11 -2q-6 0 -13.5 5t-7.5 16q0 1 2.5 4.5t15.5 23t41.5 60.5t80.5 116t132.5 190.5
t197.5 283.5q6 10 17 10q8 0 14 -6.5t6 -19.5zM444 345l-145 -203h145v203zM486 100v-79q0 -11 -6 -16.5t-15 -5.5q-7 0 -14 5.5t-7 16.5v79h-185q-9 0 -14 6.5t-5 14.5q0 7 3 12l208 291q4 4 14 4q8 0 14.5 -5t6.5 -14v-267h31q11 0 17 -6.5t6 -14.5t-6 -14.5t-17 -6.5h-31
z" />
    <glyph glyph-name="onehalf" unicode="&#xbd;" horiz-adv-x="660" 
d="M624 274q0 -37 -14 -72.5t-41 -59.5l-115 -101h122q11 0 16 -6t5 -14t-5 -14.5t-16 -6.5h-177q-8 0 -13.5 6.5t-5.5 14.5t7 14l153 137q22 19 32.5 46t10.5 56q0 22 -8.5 40.5t-23.5 32t-34.5 21.5t-40.5 8q-42 0 -69.5 -20.5t-27.5 -63.5q0 -26 17.5 -46t44.5 -20
q23 0 42 11t19 37q0 11 6.5 16.5t14.5 5.5q7 0 13.5 -5.5t6.5 -16.5q0 -22 -8 -38.5t-21.5 -28t-31.5 -17.5t-37 -6q-23 0 -42.5 8.5t-34 23.5t-22.5 35t-8 44q0 28 11 50.5t30 38.5t44 24.5t53 8.5q30 0 56.5 -11t47 -30t32.5 -45.5t12 -56.5zM129 305q0 -11 -6.5 -16
t-14.5 -5t-14.5 5t-6.5 16v329l-17 -14q-11 -9 -16 -9q-9 0 -15.5 6t-6.5 14q0 9 8 17l50 42q11 8 18 8q8 0 14.5 -6t6.5 -14v-373zM74 11q-4 -8 -9.5 -10t-10.5 -2q-7 0 -15 5t-8 16l2.5 4t12.5 19t31 45.5t59 84.5l366 525q7 10 18 10q8 0 13.5 -6.5t5.5 -19.5z" />
    <glyph glyph-name="threequarters" unicode="&#xbe;" horiz-adv-x="687" 
d="M597 100v-79q0 -11 -6 -16.5t-15 -5.5q-7 0 -14 5.5t-7 16.5v79h-185q-9 0 -14.5 6.5t-5.5 14.5t4 12l208 291q4 4 14 4q8 0 14.5 -5t6.5 -14v-267h31q11 0 17 -6.5t6 -14.5t-6 -14.5t-17 -6.5h-31zM333 420q0 -31 -11.5 -58t-32 -47.5t-48 -32.5t-59.5 -12
q-30 0 -57.5 10t-50.5 33q-20 20 -31.5 46.5t-11.5 59.5q0 9 6.5 15t14.5 6t14.5 -5t6.5 -16q0 -23 8.5 -43t23 -34.5t34.5 -23t43 -8.5q22 0 41.5 8.5t34.5 23t24 34.5t9 43q0 38 -23 69q-17 -14 -37.5 -22.5t-42.5 -8.5q-11 0 -23.5 3.5t-23 10t-17 16.5t-6.5 24t6.5 24.5
t16.5 17.5t23 10.5t25 3.5q18 0 36.5 -5t34.5 -13q6 15 6 30q0 34 -24.5 58.5t-59.5 24.5q-15 0 -30 -6t-26 -15q-4 -2 -7.5 -4t-7.5 -2q-8 0 -14 6.5t-6 14.5q0 9 7 16q18 15 39.5 22.5t44.5 7.5q25 0 47.5 -9.5t39.5 -26t27 -39t10 -48.5q0 -16 -4 -30.5t-9 -27.5
q20 -21 30 -46.5t10 -54.5zM184 11q-4 -8 -11.5 -10t-12.5 -2q-7 0 -13.5 5t-6.5 16l2.5 4t13 19t31.5 45.5t59 84.5l365 525q7 10 18 10q8 0 14 -6.5t6 -19.5zM555 345l-146 -203h146v203zM186 498q14 0 26.5 4.5t21.5 11.5q-23 12 -48 12q-6 0 -16.5 -3t-10.5 -11
q0 -6 9.5 -10t17.5 -4z" />
    <glyph glyph-name="questiondown" unicode="&#xbf;" horiz-adv-x="456" 
d="M208 436q0 28 19.5 48t48.5 20q26 0 47 -19.5t21 -48.5t-21 -48.5t-47 -19.5q-29 0 -48.5 19.5t-19.5 48.5zM44 45q22 55 73 92q22 15 47 31.5t46.5 36t36 43t14.5 52.5q0 8 -2.5 17.5t-2.5 17.5q0 10 6.5 15t14.5 5t13 -5.5t8 -14t4 -18t1 -17.5q0 -35 -15 -62.5
t-38.5 -51t-52 -44t-56.5 -39.5q-33 -23 -50 -56t-17 -68q0 -24 10 -48.5t29.5 -44t47 -32t63.5 -12.5q53 0 96 32t63 85q3 8 8.5 11.5t11.5 3.5q8 0 14.5 -5.5t6.5 -14.5q0 -3 -2 -9q-12 -33 -32 -59.5t-46 -45.5t-56.5 -29.5t-62.5 -10.5q-41 0 -76.5 15t-61.5 40
t-40.5 57.5t-14.5 68.5q0 32 12 64z" />
    <glyph glyph-name="Agrave" unicode="&#xc0;" horiz-adv-x="650" 
d="M342 624l-136 -317h254zM616 23q2 -6 2 -9q0 -10 -6.5 -15.5t-14.5 -5.5q-14 0 -20 15l-102 257h-286l-116 -258q-6 -14 -20 -14q-8 0 -14.5 6t-6.5 15q0 6 2 10l281 643q9 22 28 22q8 0 15 -5.5t12 -17.5zM421 784q9 -2 13 -8t4 -13q0 -8 -5.5 -14.5t-15.5 -6.5
q-4 0 -6 1l-173 42q-9 2 -13 8t-4 12q0 8 5.5 14.5t15.5 6.5q4 0 6 -1z" />
    <glyph glyph-name="Aacute" unicode="&#xc1;" horiz-adv-x="650" 
d="M342 624l-136 -317h254zM616 23q2 -6 2 -9q0 -10 -6.5 -15.5t-14.5 -5.5q-14 0 -20 15l-102 257h-286l-116 -258q-6 -14 -20 -14q-8 0 -14.5 6t-6.5 15q0 6 2 10l281 643q9 22 28 22q8 0 15 -5.5t12 -17.5zM271 744q-2 -1 -6 -1q-10 0 -15.5 6.5t-5.5 14.5q0 7 4 13t13 8
l173 41q2 1 6 1q10 0 15.5 -6.5t5.5 -14.5q0 -6 -4 -12t-13 -8z" />
    <glyph glyph-name="Acircumflex" unicode="&#xc2;" horiz-adv-x="650" 
d="M342 624l-136 -317h254zM616 23q2 -6 2 -9q0 -10 -6.5 -15.5t-14.5 -5.5q-14 0 -20 15l-102 257h-286l-116 -258q-6 -14 -20 -14q-8 0 -14.5 6t-6.5 15q0 6 2 10l281 643q9 22 28 22q8 0 15 -5.5t12 -17.5zM438 763q13 -7 13 -19q0 -8 -6 -14.5t-15 -6.5q-5 0 -11 3
l-72 37l-73 -37q-6 -3 -11 -3q-9 0 -15 6.5t-6 14.5q0 12 13 19l82 42q4 2 10 2q5 0 9 -2z" />
    <glyph glyph-name="Atilde" unicode="&#xc3;" horiz-adv-x="650" 
d="M342 624l-136 -317h254zM616 23q2 -6 2 -9q0 -10 -6.5 -15.5t-14.5 -5.5q-14 0 -20 15l-102 257h-286l-116 -258q-6 -14 -20 -14q-8 0 -14.5 6t-6.5 15q0 6 2 10l281 643q9 22 28 22q8 0 15 -5.5t12 -17.5zM457 761q-21 -23 -53 -23q-15 0 -27.5 5.5t-25 12t-24 12
t-26.5 5.5q-11 0 -17 -4.5t-11 -10.5t-9 -11t-11 -5q-8 0 -14.5 5t-6.5 13q0 10 6.5 19.5t16 16t22 10.5t24.5 4q16 0 30 -6t27 -12.5l24 -12t23 -5.5q6 0 11 2.5t9.5 6t8 6t8.5 2.5q8 0 14.5 -5t6.5 -12q0 -8 -6 -13z" />
    <glyph glyph-name="Adieresis" unicode="&#xc4;" horiz-adv-x="650" 
d="M342 624l-136 -317h254zM616 23q2 -6 2 -9q0 -10 -6.5 -15.5t-14.5 -5.5q-14 0 -20 15l-102 257h-286l-116 -258q-6 -14 -20 -14q-8 0 -14.5 6t-6.5 15q0 6 2 10l281 643q9 22 28 22q8 0 15 -5.5t12 -17.5zM330 750q0 -14 -10 -24t-24 -10t-24 10t-10 24t10 24t24 10
t24 -10t10 -24zM418 750q0 -14 -10 -24t-24 -10t-24 10t-10 24t10 24t24 10t24 -10t10 -24z" />
    <glyph glyph-name="Aring" unicode="&#xc5;" horiz-adv-x="650" 
d="M342 624l-136 -317h254zM616 23q2 -6 2 -9q0 -10 -6.5 -15.5t-14.5 -5.5q-14 0 -20 15l-102 257h-286l-116 -258q-6 -14 -20 -14q-8 0 -14.5 6t-6.5 15q0 6 2 10l281 643q9 22 28 22q8 0 15 -5.5t12 -17.5zM361 717q0 8 -6.5 14.5t-14.5 6.5q-9 0 -15 -6.5t-6 -14.5
q0 -9 6 -15t15 -6q8 0 14.5 6t6.5 15zM402 717q0 -26 -18 -44.5t-44 -18.5t-44.5 18.5t-18.5 44.5t18.5 44t44.5 18t44 -18t18 -44z" />
    <glyph glyph-name="AE" unicode="&#xc6;" horiz-adv-x="852" 
d="M266 317h205v328q0 5 1 8zM530 0q-25 0 -42 17t-17 41v217h-231l-168 -274q-8 -12 -19 -12q-8 0 -14.5 6t-6.5 15q0 7 4 12l155 253h-40q-11 0 -16.5 6.5t-5.5 14.5t5.5 14.5t16.5 6.5h66l231 376q2 3 7.5 6.5t9.5 3.5h244q11 0 16.5 -6.5t5.5 -14.5t-5.5 -14.5
t-16.5 -6.5h-179q-17 0 -17 -16v-328h236q11 0 17 -6.5t6 -14.5t-6 -14.5t-17 -6.5h-236v-217q0 -16 17 -16h267q11 0 17 -6.5t6 -14.5t-6 -14.5t-17 -6.5h-267z" />
    <glyph glyph-name="Ccedilla" unicode="&#xc7;" horiz-adv-x="757" 
d="M720 154q-53 -75 -134 -119t-174 -44q-89 0 -158 28.5t-118 79.5q-51 53 -77.5 126t-26.5 161q0 70 28 131.5t75 106.5t109.5 71t131.5 26q75 0 133.5 -19.5t100.5 -55.5q42 -38 64.5 -90t22.5 -118q0 -48 -18.5 -90.5t-50 -75t-74 -51.5t-90.5 -19q-44 0 -84.5 12.5
t-71.5 37t-49.5 60.5t-18.5 84q0 24 9.5 48.5t26.5 44t39.5 32t48.5 12.5q11 0 17 -6t6 -14t-6 -14.5t-17 -6.5q-17 0 -32.5 -9t-26.5 -23t-17.5 -31t-6.5 -33q0 -39 15.5 -68t41 -47.5t58.5 -28t68 -9.5q39 0 74 15.5t61 42.5t41 62.5t15 74.5q0 113 -72 176
q-74 65 -207 65q-60 0 -115 -22.5t-97 -62t-66.5 -93t-24.5 -115.5q0 -79 23.5 -145t69.5 -114q43 -45 104.5 -69.5t141.5 -24.5q83 0 154.5 39t119.5 106q7 10 18 10q8 0 14.5 -6t6.5 -15q0 -5 -5 -13zM371 -111q0 -28 -21 -50t-52 -22q-15 0 -30.5 7t-26.5 21q-5 6 -5 14
q0 9 6.5 15t14.5 6q9 0 17 -9q10 -12 25 -12q11 0 20.5 8t9.5 23q0 13 -9.5 21.5t-21.5 8.5q-11 0 -18 -6q-5 -3 -10 -3q-8 0 -15.5 6.5t-7.5 14.5q0 4 3 9l45 74q7 11 18 11q8 0 14.5 -6t6.5 -14t-4 -13l-20 -32q27 -5 44 -25t17 -47z" />
    <glyph glyph-name="Egrave" unicode="&#xc8;" horiz-adv-x="413" 
d="M91 0q-24 0 -41.5 17t-17.5 41v587q0 24 17.5 41t41.5 17h179q11 0 17 -6.5t6 -14.5t-6 -14.5t-17 -6.5h-179q-7 0 -12 -4.5t-5 -11.5v-328h236q11 0 17 -6.5t6 -14.5t-6 -14.5t-17 -6.5h-236v-217q0 -7 5 -11.5t12 -4.5h268q11 0 16.5 -6.5t5.5 -14.5t-5.5 -14.5
t-16.5 -6.5h-268zM299 785q9 -2 13 -8t4 -13q0 -8 -5.5 -14.5t-15.5 -6.5q-4 0 -6 1l-173 42q-9 2 -13 8t-4 12q0 8 5.5 14.5t15.5 6.5q4 0 6 -1z" />
    <glyph glyph-name="Eacute" unicode="&#xc9;" horiz-adv-x="413" 
d="M91 0q-24 0 -41.5 17t-17.5 41v587q0 24 17.5 41t41.5 17h179q11 0 17 -6.5t6 -14.5t-6 -14.5t-17 -6.5h-179q-7 0 -12 -4.5t-5 -11.5v-328h236q11 0 17 -6.5t6 -14.5t-6 -14.5t-17 -6.5h-236v-217q0 -7 5 -11.5t12 -4.5h268q11 0 16.5 -6.5t5.5 -14.5t-5.5 -14.5
t-16.5 -6.5h-268zM127 744q-2 -1 -6 -1q-10 0 -15.5 6.5t-5.5 14.5q0 7 4 13t13 8l173 41q2 1 6 1q10 0 15.5 -6.5t5.5 -14.5q0 -6 -4 -12t-13 -8z" />
    <glyph glyph-name="Ecircumflex" unicode="&#xca;" horiz-adv-x="413" 
d="M91 0q-24 0 -41.5 17t-17.5 41v587q0 24 17.5 41t41.5 17h179q11 0 17 -6.5t6 -14.5t-6 -14.5t-17 -6.5h-179q-7 0 -12 -4.5t-5 -11.5v-328h236q11 0 17 -6.5t6 -14.5t-6 -14.5t-17 -6.5h-236v-217q0 -7 5 -11.5t12 -4.5h268q11 0 16.5 -6.5t5.5 -14.5t-5.5 -14.5
t-16.5 -6.5h-268zM273 764q13 -7 13 -19q0 -8 -6 -14.5t-15 -6.5q-5 0 -11 3l-72 37l-73 -37q-6 -3 -11 -3q-9 0 -15 6.5t-6 14.5q0 12 13 19l82 42q4 2 10 2q5 0 9 -2z" />
    <glyph glyph-name="Edieresis" unicode="&#xcb;" horiz-adv-x="413" 
d="M91 0q-24 0 -41.5 17t-17.5 41v587q0 24 17.5 41t41.5 17h179q11 0 17 -6.5t6 -14.5t-6 -14.5t-17 -6.5h-179q-7 0 -12 -4.5t-5 -11.5v-328h236q11 0 17 -6.5t6 -14.5t-6 -14.5t-17 -6.5h-236v-217q0 -7 5 -11.5t12 -4.5h268q11 0 16.5 -6.5t5.5 -14.5t-5.5 -14.5
t-16.5 -6.5h-268zM196 768q0 -14 -10 -24t-24 -10t-24 10t-10 24t10 24t24 10t24 -10t10 -24zM284 768q0 -14 -10 -24t-24 -10t-24 10t-10 24t10 24t24 10t24 -10t10 -24z" />
    <glyph glyph-name="Igrave" unicode="&#xcc;" horiz-adv-x="106" 
d="M74 21q0 -11 -6.5 -17t-14.5 -6t-14.5 6t-6.5 17v661q0 11 6.5 17t14.5 6t14.5 -6t6.5 -17v-661zM133 784q9 -2 13 -8t4 -13q0 -8 -5.5 -14.5t-15.5 -6.5q-4 0 -6 1l-173 42q-9 2 -13 8t-4 12q0 8 5.5 14.5t15.5 6.5q4 0 6 -1z" />
    <glyph glyph-name="Iacute" unicode="&#xcd;" horiz-adv-x="106" 
d="M74 21q0 -11 -6.5 -17t-14.5 -6t-14.5 6t-6.5 17v661q0 11 6.5 17t14.5 6t14.5 -6t6.5 -17v-661zM-14 744q-2 -1 -6 -1q-10 0 -15.5 6.5t-5.5 14.5q0 7 4 13t13 8l173 41q2 1 6 1q10 0 15.5 -6.5t5.5 -14.5q0 -6 -4 -12t-13 -8z" />
    <glyph glyph-name="Icircumflex" unicode="&#xce;" horiz-adv-x="106" 
d="M74 21q0 -11 -6.5 -17t-14.5 -6t-14.5 6t-6.5 17v661q0 11 6.5 17t14.5 6t14.5 -6t6.5 -17v-661v0zM147 764q13 -7 13 -19q0 -8 -6 -14.5t-15 -6.5q-5 0 -11 3l-72 37l-73 -37q-6 -3 -11 -3q-9 0 -15 6.5t-6 14.5q0 12 13 19l82 42q4 2 10 2q5 0 9 -2l82 -42v0z" />
    <glyph glyph-name="Idieresis" unicode="&#xcf;" horiz-adv-x="106" 
d="M74 21q0 -11 -6.5 -17t-14.5 -6t-14.5 6t-6.5 17v661q0 11 6.5 17t14.5 6t14.5 -6t6.5 -17v-661v0zM45 768q0 -14 -10 -24t-24 -10t-24 10t-10 24t10 24t24 10t24 -10t10 -24zM133 768q0 -14 -10 -24t-24 -10t-24 10t-10 24t10 24t24 10t24 -10t10 -24z" />
    <glyph glyph-name="Eth" unicode="&#xd0;" horiz-adv-x="795" 
d="M763 350q0 -74 -28.5 -139.5t-77 -114.5t-114 -77t-139.5 -28q-57 0 -110.5 17.5t-99.5 49.5q-10 7 -10 17q0 9 6 15.5t15 6.5q6 0 14 -5q40 -29 87 -44.5t98 -15.5q66 0 123.5 25t101 68.5t68.5 101t25 123.5t-25 123.5t-68.5 99.5t-101.5 66.5t-123 24.5q-28 0 -68 -2
t-77.5 -13t-64 -33.5t-26.5 -62.5v-181h82q11 0 17 -6t6 -14t-6 -14.5t-17 -6.5h-82v-307q0 -11 -6 -16.5t-14 -5.5t-14.5 5.5t-6.5 16.5v307h-72q-11 0 -17 6t-6 14t6 14.5t17 6.5h72v181q0 53 29 83.5t71 46t90 19.5t87 4q73 0 138.5 -27.5t114.5 -75.5t77.5 -113
t28.5 -140z" />
    <glyph glyph-name="Ntilde" unicode="&#xd1;" horiz-adv-x="474" 
d="M442 30q0 -14 -8.5 -21t-19.5 -7q-9 0 -17.5 4.5t-13.5 14.5l-310 603v-612q0 -11 -6 -17t-14 -6t-14.5 6t-6.5 17v661q0 14 9.5 22t20.5 8q16 0 25 -16q79 -153 157 -304.5t156 -305.5v605q0 11 6.5 17t14.5 6t14.5 -6t6.5 -17v-652v0zM361 736q-21 -26 -55 -26
q-15 0 -28.5 6t-26 13.5t-25 14t-27.5 6.5q-11 0 -17 -5.5t-11 -12t-10 -12t-12 -5.5q-8 0 -14.5 5.5t-6.5 14.5q0 12 6.5 22.5t17 18t23 12t24.5 4.5q16 0 31 -6.5t28 -14t25 -14t24 -6.5q6 0 11 3t9.5 7t9 7t9.5 3q8 0 14.5 -6t6.5 -14t-6 -15z" />
    <glyph glyph-name="Ograve" unicode="&#xd2;" horiz-adv-x="833" 
d="M759 353q0 71 -28.5 128.5t-76 98t-109.5 62.5t-129 22q-66 0 -128 -22t-110 -62.5t-76.5 -98t-28.5 -128.5t28.5 -128.5t76.5 -98t110 -62.5t128 -22t128 22t110 62.5t76.5 98t28.5 128.5zM801 353q0 -76 -31.5 -140.5t-84.5 -112t-123 -74t-146 -26.5q-72 0 -141 25.5
t-123 72t-87 111.5t-33 145q0 76 31.5 140.5t84.5 111.5t122.5 73.5t145.5 26.5q72 0 141.5 -25.5t123.5 -71.5t87 -111.5t33 -144.5zM512 785q9 -2 13 -8t4 -13q0 -8 -5.5 -14.5t-15.5 -6.5q-4 0 -6 1l-173 42q-9 2 -13 8t-4 12q0 8 5.5 14.5t15.5 6.5q4 0 6 -1z" />
    <glyph glyph-name="Oacute" unicode="&#xd3;" horiz-adv-x="833" 
d="M759 353q0 71 -28.5 128.5t-76 98t-109.5 62.5t-129 22q-66 0 -128 -22t-110 -62.5t-76.5 -98t-28.5 -128.5t28.5 -128.5t76.5 -98t110 -62.5t128 -22t128 22t110 62.5t76.5 98t28.5 128.5zM801 353q0 -76 -31.5 -140.5t-84.5 -112t-123 -74t-146 -26.5q-72 0 -141 25.5
t-123 72t-87 111.5t-33 145q0 76 31.5 140.5t84.5 111.5t122.5 73.5t145.5 26.5q72 0 141.5 -25.5t123.5 -71.5t87 -111.5t33 -144.5zM365 742q-2 -1 -6 -1q-11 0 -17 7t-6 16q0 8 4.5 14.5t14.5 8.5l189 45q2 1 6 1q11 0 17 -7t6 -16q0 -7 -4.5 -13.5t-14.5 -8.5z" />
    <glyph glyph-name="Ocircumflex" unicode="&#xd4;" horiz-adv-x="833" 
d="M759 353q0 71 -28.5 128.5t-76 98t-109.5 62.5t-129 22q-66 0 -128 -22t-110 -62.5t-76.5 -98t-28.5 -128.5t28.5 -128.5t76.5 -98t110 -62.5t128 -22t128 22t110 62.5t76.5 98t28.5 128.5zM801 353q0 -76 -31.5 -140.5t-84.5 -112t-123 -74t-146 -26.5q-72 0 -141 25.5
t-123 72t-87 111.5t-33 145q0 76 31.5 140.5t84.5 111.5t122.5 73.5t145.5 26.5q72 0 141.5 -25.5t123.5 -71.5t87 -111.5t33 -144.5zM528 772q16 -8 16 -23q0 -9 -7.5 -17t-18.5 -8q-7 0 -14 4l-90 44l-92 -44q-7 -4 -12 -4q-13 0 -20.5 8t-7.5 17q0 15 16 23l103 50
q5 3 13 3q6 0 11 -3z" />
    <glyph glyph-name="Otilde" unicode="&#xd5;" horiz-adv-x="833" 
d="M759 353q0 71 -28.5 128.5t-76 98t-109.5 62.5t-129 22q-66 0 -128 -22t-110 -62.5t-76.5 -98t-28.5 -128.5t28.5 -128.5t76.5 -98t110 -62.5t128 -22t128 22t110 62.5t76.5 98t28.5 128.5zM801 353q0 -76 -31.5 -140.5t-84.5 -112t-123 -74t-146 -26.5q-72 0 -141 25.5
t-123 72t-87 111.5t-33 145q0 76 31.5 140.5t84.5 111.5t122.5 73.5t145.5 26.5q72 0 141.5 -25.5t123.5 -71.5t87 -111.5t33 -144.5zM540 765q-21 -22 -55 -22q-15 0 -28.5 5t-26 11.5t-25 12.5t-27.5 6q-11 0 -17 -5t-11 -10.5t-10 -10.5t-12 -5q-8 0 -14.5 5t-6.5 13
q0 10 6.5 19t17 15.5t23 10.5t24.5 4q16 0 31 -5.5t28 -12l25 -12.5t24 -6q6 0 11 3t9.5 6.5t9 6t9.5 2.5q8 0 14.5 -5.5t6.5 -12.5q0 -6 -6 -13z" />
    <glyph glyph-name="Odieresis" unicode="&#xd6;" horiz-adv-x="833" 
d="M759 353q0 71 -28.5 128.5t-76 98t-109.5 62.5t-129 22q-66 0 -128 -22t-110 -62.5t-76.5 -98t-28.5 -128.5t28.5 -128.5t76.5 -98t110 -62.5t128 -22t128 22t110 62.5t76.5 98t28.5 128.5zM801 353q0 -76 -31.5 -140.5t-84.5 -112t-123 -74t-146 -26.5q-72 0 -141 25.5
t-123 72t-87 111.5t-33 145q0 76 31.5 140.5t84.5 111.5t122.5 73.5t145.5 26.5q72 0 141.5 -25.5t123.5 -71.5t87 -111.5t33 -144.5zM406 768q0 -14 -10 -24t-24 -10t-24 10t-10 24t10 24t24 10t24 -10t10 -24zM494 768q0 -14 -10 -24t-24 -10t-24 10t-10 24t10 24t24 10
t24 -10t10 -24z" />
    <glyph glyph-name="multiply" unicode="&#xd7;" horiz-adv-x="371" 
d="M185 332l-116 -117q-8 -8 -17 -8q-8 0 -14 6t-6 15q0 10 7 17l117 116l-116 116q-8 7 -8 17q0 8 6 14t15 6q10 0 17 -7l115 -116l116 116q7 7 17 7q8 0 14.5 -5.5t6.5 -14.5t-8 -17l-116 -116l117 -116q7 -8 7 -17q0 -8 -6 -14.5t-14 -6.5q-10 0 -17 8z" />
    <glyph glyph-name="Oslash" unicode="&#xd8;" horiz-adv-x="833" 
d="M631 597q-45 32 -100 49.5t-115 17.5q-66 0 -128 -22t-110 -62.5t-76.5 -98t-28.5 -128.5q0 -68 25.5 -123t70.5 -95zM759 353q0 68 -25.5 122.5t-69.5 95.5l-463 -463q46 -32 101 -49t114 -17q66 0 128 22t110 62.5t76.5 98t28.5 128.5zM694 601q54 -51 80.5 -115.5
t26.5 -132.5q0 -69 -27.5 -134.5t-83.5 -116.5q-57 -51 -128 -76.5t-146 -25.5q-66 0 -129 19.5t-116 58.5l-70 -70q-7 -7 -16 -7q-8 0 -14 6.5t-6 14.5q0 9 7 16l67 67q-54 51 -80.5 115t-26.5 133t27.5 134.5t83.5 116.5q53 48 122.5 75t150.5 27q70 0 132.5 -20.5
t112.5 -58.5l70 70q7 7 16 7q8 0 14.5 -6t6.5 -14q0 -9 -7 -16z" />
    <glyph glyph-name="Ugrave" unicode="&#xd9;" horiz-adv-x="521" 
d="M477 39q12 -7 12 -19q0 -8 -5.5 -14t-14.5 -6q-6 0 -12 3q-17 9 -27 25.5t-10 36.5v23q-32 -44 -78 -66t-96 -22q-41 0 -80 15.5t-71 47.5q-29 29 -46 68t-17 84v467q0 11 6 17t14 6t14.5 -6t6.5 -17v-467q0 -36 14 -67.5t37.5 -55t55 -37t67.5 -13.5t67.5 13.5t55 37
t37 54.5t13.5 67v468q0 11 6.5 16t14.5 5t14.5 -5t6.5 -16v-617q0 -18 15 -26zM353 787q9 -2 13 -8t4 -13q0 -8 -5.5 -14.5t-15.5 -6.5q-4 0 -6 1l-173 42q-9 2 -13 8t-4 12q0 8 5.5 14.5t15.5 6.5q4 0 6 -1z" />
    <glyph glyph-name="Uacute" unicode="&#xda;" horiz-adv-x="521" 
d="M477 39q12 -7 12 -19q0 -8 -5.5 -14t-14.5 -6q-6 0 -12 3q-17 9 -27 25.5t-10 36.5v23q-32 -44 -78 -66t-96 -22q-41 0 -80 15.5t-71 47.5q-29 29 -46 68t-17 84v467q0 11 6 17t14 6t14.5 -6t6.5 -17v-467q0 -36 14 -67.5t37.5 -55t55 -37t67.5 -13.5t67.5 13.5t55 37
t37 54.5t13.5 67v468q0 11 6.5 16t14.5 5t14.5 -5t6.5 -16v-617q0 -18 15 -26zM186 744q-2 -1 -6 -1q-10 0 -15.5 6.5t-5.5 14.5q0 7 4 13t13 8l173 41q2 1 6 1q10 0 15.5 -6.5t5.5 -14.5q0 -6 -4 -12t-13 -8z" />
    <glyph glyph-name="Ucircumflex" unicode="&#xdb;" horiz-adv-x="521" 
d="M477 39q12 -7 12 -19q0 -8 -5.5 -14t-14.5 -6q-6 0 -12 3q-17 9 -27 25.5t-10 36.5v23q-32 -44 -78 -66t-96 -22q-41 0 -80 15.5t-71 47.5q-29 29 -46 68t-17 84v467q0 11 6 17t14 6t14.5 -6t6.5 -17v-467q0 -36 14 -67.5t37.5 -55t55 -37t67.5 -13.5t67.5 13.5t55 37
t37 54.5t13.5 67v468q0 11 6.5 16t14.5 5t14.5 -5t6.5 -16v-617q0 -18 15 -26zM352 764q13 -7 13 -19q0 -8 -6 -14.5t-15 -6.5q-5 0 -11 3l-72 37l-73 -37q-6 -3 -11 -3q-9 0 -15 6.5t-6 14.5q0 12 13 19l82 42q4 2 10 2q5 0 9 -2l82 -42v0z" />
    <glyph glyph-name="Udieresis" unicode="&#xdc;" horiz-adv-x="521" 
d="M477 39q12 -7 12 -19q0 -8 -5.5 -14t-14.5 -6q-6 0 -12 3q-17 9 -27 25.5t-10 36.5v23q-32 -44 -78 -66t-96 -22q-41 0 -80 15.5t-71 47.5q-29 29 -46 68t-17 84v467q0 11 6 17t14 6t14.5 -6t6.5 -17v-467q0 -36 14 -67.5t37.5 -55t55 -37t67.5 -13.5t67.5 13.5t55 37
t37 54.5t13.5 67v468q0 11 6.5 16t14.5 5t14.5 -5t6.5 -16v-617q0 -18 15 -26zM250 768q0 -14 -10 -24t-24 -10t-24 10t-10 24t10 24t24 10t24 -10t10 -24zM338 768q0 -14 -10 -24t-24 -10t-24 10t-10 24t10 24t24 10t24 -10t10 -24z" />
    <glyph glyph-name="Yacute" unicode="&#xdd;" horiz-adv-x="531" 
d="M286 290v-269q0 -11 -6 -17t-14 -6t-14.5 6t-6.5 17v269l-210 382q-3 6 -3 12q0 9 6 14.5t14 5.5q12 0 19 -12l194 -354l195 354q7 12 19 12q8 0 14 -5.5t6 -14.5q0 -6 -3 -12zM197 746q-2 -1 -6 -1q-10 0 -15.5 6.5t-5.5 14.5q0 7 4 13t13 8l173 41q2 1 6 1
q10 0 15.5 -6.5t5.5 -14.5q0 -6 -4 -12t-13 -8z" />
    <glyph glyph-name="Thorn" unicode="&#xde;" horiz-adv-x="472" 
d="M440 395q0 -39 -15 -73t-41 -60t-60 -41t-73 -15q-16 0 -31 2.5t-30 8.5q-8 3 -11.5 8.5t-3.5 11.5q0 8 5.5 14.5t14.5 6.5q3 0 9 -2q11 -5 23 -6.5t24 -1.5q29 0 55.5 11.5t47 31t33 46.5t12.5 58q0 30 -11.5 57t-32 47t-47.5 31.5t-57 11.5h-90v-521q0 -8 -2.5 -14.5
t-18.5 -6.5t-18.5 6.5t-2.5 14.5v576q0 26 -19 45t-45 19q-11 0 -17 6.5t-6 14.5t6 14.5t17 6.5q22 0 41 -8.5t33.5 -23t23 -33.5t8.5 -41v-13h90q39 0 73.5 -15t60 -40.5t40.5 -60t15 -73.5z" />
    <glyph glyph-name="germandbls" unicode="&#xdf;" horiz-adv-x="442" 
d="M410 115q0 -24 -9.5 -45t-26.5 -36.5t-39.5 -24.5t-47.5 -9q-36 0 -70.5 15t-56.5 44q-5 6 -5 14t6 14.5t14 6.5q11 0 18 -10q16 -20 42 -31.5t53 -11.5q31 0 56 19.5t25 54.5q0 23 -14 40.5t-35.5 31.5t-46 26.5t-46 26.5t-35.5 30t-14 38q0 9 2.5 19t9.5 22
q12 22 30 42t34 41t27.5 44t11.5 51q0 22 -6 46.5t-18 44.5t-29 33.5t-39 13.5q-36 0 -60 -23.5t-39 -57.5t-21.5 -72.5t-6.5 -68.5v-446q0 -11 -6.5 -16.5t-14.5 -5.5t-14.5 5.5t-6.5 16.5v446q0 37 8.5 82.5t28.5 86t52.5 68t80.5 27.5q30 0 54.5 -16t42 -41.5t27 -58
t9.5 -64.5q0 -34 -11.5 -59.5t-28.5 -48t-36 -44t-33 -46.5q-4 -7 -4 -15q0 -14 14 -26.5t35 -25t45 -27t45 -32t35 -39t14 -49.5z" />
    <glyph glyph-name="agrave" unicode="&#xe0;" horiz-adv-x="405" 
d="M373 23q0 -11 -6.5 -17t-14.5 -6t-14.5 6t-6.5 17v18q-22 -20 -50.5 -30.5t-58.5 -10.5q-26 0 -52 8.5t-46.5 25t-33 40t-12.5 53.5q0 24 9.5 46t26.5 38.5t39 26t48 9.5q32 0 60 -15t47 -41q5 -8 5 -13q0 -9 -6.5 -15t-14.5 -6q-11 0 -18 10q-13 18 -32 28t-40 10
q-16 0 -31 -5.5t-26.5 -16t-18.5 -24.5t-7 -32q0 -20 9 -36t23.5 -27t33 -17t37.5 -6q18 0 37.5 6t35.5 17.5t26 28.5t10 38v106q0 28 -11 49.5t-29 36t-41.5 21.5t-47.5 7t-47 -7.5t-41 -22t-29 -35.5t-11 -49q0 -11 -6.5 -16.5t-14.5 -5.5t-14.5 5.5t-6.5 16.5
q0 37 14.5 66.5t38.5 49t54.5 30t63.5 10.5q32 0 62.5 -10.5t54.5 -31t38.5 -49.5t14.5 -65v-214zM307 522q9 -2 13 -8t4 -13q0 -8 -5.5 -14.5t-15.5 -6.5q-4 0 -6 1l-173 42q-9 2 -13 8t-4 12q0 8 5.5 14.5t15.5 6.5q4 0 6 -1z" />
    <glyph glyph-name="aacute" unicode="&#xe1;" horiz-adv-x="405" 
d="M373 23q0 -11 -6.5 -17t-14.5 -6t-14.5 6t-6.5 17v18q-22 -20 -50.5 -30.5t-58.5 -10.5q-26 0 -52 8.5t-46.5 25t-33 40t-12.5 53.5q0 24 9.5 46t26.5 38.5t39 26t48 9.5q32 0 60 -15t47 -41q5 -8 5 -13q0 -9 -6.5 -15t-14.5 -6q-11 0 -18 10q-13 18 -32 28t-40 10
q-16 0 -31 -5.5t-26.5 -16t-18.5 -24.5t-7 -32q0 -20 9 -36t23.5 -27t33 -17t37.5 -6q18 0 37.5 6t35.5 17.5t26 28.5t10 38v106q0 28 -11 49.5t-29 36t-41.5 21.5t-47.5 7t-47 -7.5t-41 -22t-29 -35.5t-11 -49q0 -11 -6.5 -16.5t-14.5 -5.5t-14.5 5.5t-6.5 16.5
q0 37 14.5 66.5t38.5 49t54.5 30t63.5 10.5q32 0 62.5 -10.5t54.5 -31t38.5 -49.5t14.5 -65v-214zM134 483q-2 -1 -6 -1q-10 0 -15.5 6.5t-5.5 14.5q0 7 4 13t13 8l173 41q2 1 6 1q10 0 15.5 -6.5t5.5 -14.5q0 -6 -4 -12t-13 -8z" />
    <glyph glyph-name="acircumflex" unicode="&#xe2;" horiz-adv-x="405" 
d="M373 23q0 -11 -6.5 -17t-14.5 -6t-14.5 6t-6.5 17v18q-22 -20 -50.5 -30.5t-58.5 -10.5q-26 0 -52 8.5t-46.5 25t-33 40t-12.5 53.5q0 24 9.5 46t26.5 38.5t39 26t48 9.5q32 0 60 -15t47 -41q5 -8 5 -13q0 -9 -6.5 -15t-14.5 -6q-11 0 -18 10q-13 18 -32 28t-40 10
q-16 0 -31 -5.5t-26.5 -16t-18.5 -24.5t-7 -32q0 -20 9 -36t23.5 -27t33 -17t37.5 -6q18 0 37.5 6t35.5 17.5t26 28.5t10 38v106q0 28 -11 49.5t-29 36t-41.5 21.5t-47.5 7t-47 -7.5t-41 -22t-29 -35.5t-11 -49q0 -11 -6.5 -16.5t-14.5 -5.5t-14.5 5.5t-6.5 16.5
q0 37 14.5 66.5t38.5 49t54.5 30t63.5 10.5q32 0 62.5 -10.5t54.5 -31t38.5 -49.5t14.5 -65v-214zM295 461q13 -7 13 -19q0 -8 -6 -14.5t-15 -6.5q-5 0 -11 3l-72 37l-73 -37q-6 -3 -11 -3q-9 0 -15 6.5t-6 14.5q0 12 13 19l82 42q4 2 10 2q5 0 9 -2z" />
    <glyph glyph-name="atilde" unicode="&#xe3;" horiz-adv-x="405" 
d="M373 23q0 -11 -6.5 -17t-14.5 -6t-14.5 6t-6.5 17v18q-22 -20 -50.5 -30.5t-58.5 -10.5q-26 0 -52 8.5t-46.5 25t-33 40t-12.5 53.5q0 24 9.5 46t26.5 38.5t39 26t48 9.5q32 0 60 -15t47 -41q5 -8 5 -13q0 -9 -6.5 -15t-14.5 -6q-11 0 -18 10q-13 18 -32 28t-40 10
q-16 0 -31 -5.5t-26.5 -16t-18.5 -24.5t-7 -32q0 -20 9 -36t23.5 -27t33 -17t37.5 -6q18 0 37.5 6t35.5 17.5t26 28.5t10 38v106q0 28 -11 49.5t-29 36t-41.5 21.5t-47.5 7t-47 -7.5t-41 -22t-29 -35.5t-11 -49q0 -11 -6.5 -16.5t-14.5 -5.5t-14.5 5.5t-6.5 16.5
q0 37 14.5 66.5t38.5 49t54.5 30t63.5 10.5q32 0 62.5 -10.5t54.5 -31t38.5 -49.5t14.5 -65v-214zM324 502q-21 -22 -55 -22q-15 0 -28.5 5t-26.5 11.5t-25.5 12t-27.5 5.5q-11 0 -17 -4.5t-11 -10t-10 -10.5t-12 -5q-8 0 -14.5 5t-6.5 12q0 11 6.5 20t17 15t23 10t24.5 4
q16 0 31 -5.5t28.5 -12t25.5 -12t24 -5.5q6 0 11 2.5t9.5 6t9 6t9.5 2.5q8 0 14.5 -5t6.5 -12t-6 -13z" />
    <glyph glyph-name="adieresis" unicode="&#xe4;" horiz-adv-x="405" 
d="M373 23q0 -11 -6.5 -17t-14.5 -6t-14.5 6t-6.5 17v18q-22 -20 -50.5 -30.5t-58.5 -10.5q-26 0 -52 8.5t-46.5 25t-33 40t-12.5 53.5q0 24 9.5 46t26.5 38.5t39 26t48 9.5q32 0 60 -15t47 -41q5 -8 5 -13q0 -9 -6.5 -15t-14.5 -6q-11 0 -18 10q-13 18 -32 28t-40 10
q-16 0 -31 -5.5t-26.5 -16t-18.5 -24.5t-7 -32q0 -20 9 -36t23.5 -27t33 -17t37.5 -6q18 0 37.5 6t35.5 17.5t26 28.5t10 38v106q0 28 -11 49.5t-29 36t-41.5 21.5t-47.5 7t-47 -7.5t-41 -22t-29 -35.5t-11 -49q0 -11 -6.5 -16.5t-14.5 -5.5t-14.5 5.5t-6.5 16.5
q0 37 14.5 66.5t38.5 49t54.5 30t63.5 10.5q32 0 62.5 -10.5t54.5 -31t38.5 -49.5t14.5 -65v-214v0zM192 458q0 -14 -10 -24t-24 -10t-24 10t-10 24t10 24t24 10t24 -10t10 -24zM280 458q0 -14 -10 -24t-24 -10t-24 10t-10 24t10 24t24 10t24 -10t10 -24z" />
    <glyph glyph-name="aring" unicode="&#xe5;" horiz-adv-x="405" 
d="M373 23q0 -11 -6.5 -17t-14.5 -6t-14.5 6t-6.5 17v18q-22 -20 -50.5 -30.5t-58.5 -10.5q-26 0 -52 8.5t-46.5 25t-33 40t-12.5 53.5q0 24 9.5 46t26.5 38.5t39 26t48 9.5q32 0 60 -15t47 -41q5 -8 5 -13q0 -9 -6.5 -15t-14.5 -6q-11 0 -18 10q-13 18 -32 28t-40 10
q-16 0 -31 -5.5t-26.5 -16t-18.5 -24.5t-7 -32q0 -20 9 -36t23.5 -27t33 -17t37.5 -6q18 0 37.5 6t35.5 17.5t26 28.5t10 38v106q0 28 -11 49.5t-29 36t-41.5 21.5t-47.5 7t-47 -7.5t-41 -22t-29 -35.5t-11 -49q0 -11 -6.5 -16.5t-14.5 -5.5t-14.5 5.5t-6.5 16.5
q0 37 14.5 66.5t38.5 49t54.5 30t63.5 10.5q32 0 62.5 -10.5t54.5 -31t38.5 -49.5t14.5 -65v-214v0zM225 473q0 8 -6.5 14.5t-14.5 6.5q-9 0 -15 -6.5t-6 -14.5q0 -9 6 -15t15 -6q8 0 14.5 6t6.5 15zM266 473q0 -26 -18 -44.5t-44 -18.5t-44.5 18.5t-18.5 44.5t18.5 44
t44.5 18t44 -18t18 -44z" />
    <glyph glyph-name="ae" unicode="&#xe6;" horiz-adv-x="773" 
d="M740 158q-8 -36 -27 -65t-46 -49.5t-60.5 -32t-68.5 -11.5q-52 0 -98 23.5t-75 65.5q-17 -43 -57.5 -65.5t-85.5 -22.5q-27 0 -52.5 9t-46 25.5t-33 40t-12.5 53.5q0 24 10 45.5t26.5 37.5t39 25.5t47.5 9.5q31 0 59.5 -14t47.5 -41q5 -8 5 -14q0 -8 -6.5 -14t-14.5 -6
q-11 0 -18 10q-13 18 -32 28t-40 10q-31 0 -56.5 -21.5t-25.5 -56.5q0 -20 9 -35.5t23 -26.5t32.5 -17t37.5 -6q22 0 42.5 6.5t36.5 20.5q14 12 22.5 28t8.5 34v106q0 28 -11 49.5t-29 36t-41.5 21.5t-47.5 7q-23 0 -45.5 -7.5t-41.5 -21.5t-30.5 -35.5t-11.5 -49.5
q0 -11 -6.5 -17t-14.5 -6t-14.5 6t-6.5 17q0 37 14.5 66.5t38.5 49t54.5 30t63.5 10.5q49 0 92.5 -24t66.5 -72q29 45 76 69.5t100 24.5q42 0 80.5 -16.5t69.5 -44.5q8 -7 13 -16t5 -20q0 -15 -11 -25t-27 -10h-202q-11 0 -16.5 6t-5.5 14t5.5 14.5t16.5 6.5h192
q-26 23 -56 36t-64 13q-32 0 -62 -11.5t-53 -32t-36.5 -49t-13.5 -61.5t13.5 -61.5t36.5 -49t53 -32t62 -11.5q28 0 54.5 9t48 25t37 39t21.5 51q2 10 8 14t13 4q8 0 14.5 -5t6.5 -15q0 -2 -0.5 -3.5t-0.5 -2.5z" />
    <glyph glyph-name="ccedilla" unicode="&#xe7;" horiz-adv-x="445" 
d="M413 235q0 -31 -10.5 -58t-30 -47.5t-46.5 -32.5t-60 -12q-23 0 -45 8t-39 23t-27.5 36t-10.5 47q0 21 8.5 40.5t27.5 34.5q6 5 14 5q9 0 15 -6.5t6 -14.5q0 -10 -9 -17q-21 -17 -21 -43q0 -31 24 -51.5t56 -20.5q22 0 41.5 8t34 22.5t22.5 34.5t8 44t-11 45t-29 36.5
t-41 24.5t-46 9q-33 0 -64 -10t-54.5 -29.5t-37.5 -48.5t-14 -66q0 -38 14 -67t37.5 -49t53.5 -30.5t62 -10.5t63.5 11t57.5 34q6 6 15 6q8 0 14 -6t6 -14q0 -9 -8 -16q-31 -29 -70.5 -43t-81.5 -14q-39 0 -75.5 12.5t-65.5 37t-46.5 62t-17.5 87.5q0 43 17 79t45.5 62
t67 40.5t82.5 14.5q32 0 62.5 -12t54 -33.5t38 -50t14.5 -61.5zM240 -97q0 -28 -21 -50t-52 -22q-15 0 -30.5 7t-26.5 21q-5 6 -5 14q0 9 6.5 15t14.5 6q9 0 17 -9q10 -12 25 -12q11 0 20.5 8t9.5 23q0 13 -9.5 21.5t-21.5 8.5q-11 0 -18 -6q-5 -3 -10 -3q-8 0 -15.5 6.5
t-7.5 14.5q0 4 3 9l45 74q7 11 18 11q8 0 14.5 -6t6.5 -14t-4 -13l-20 -32q27 -5 44 -25t17 -47z" />
    <glyph glyph-name="egrave" unicode="&#xe8;" horiz-adv-x="474" 
d="M441 158q-8 -36 -27 -65t-46 -49.5t-60.5 -32t-68.5 -11.5q-41 0 -78.5 15t-66 41t-45.5 62t-17 78t17 78t45.5 62t66 41t78.5 15q34 0 64.5 -8t53 -21.5t36 -31t13.5 -36.5q0 -15 -10.5 -25t-26.5 -10h-202q-11 0 -17 6t-6 14t6 14.5t17 6.5h191q-17 25 -51 37t-68 12
q-32 0 -62 -11.5t-53 -32t-36.5 -49t-13.5 -61.5t13.5 -61.5t36.5 -49t53 -32t62 -11.5q28 0 54 9t48 25t37.5 39t21.5 51q2 10 8 14t13 4q8 0 14.5 -5t6.5 -15q0 -2 -0.5 -3.5t-0.5 -2.5zM333 521q9 -2 13 -8t4 -13q0 -8 -5.5 -14.5t-15.5 -6.5q-4 0 -6 1l-173 42
q-9 2 -13 8t-4 12q0 8 5.5 14.5t15.5 6.5q4 0 6 -1z" />
    <glyph glyph-name="eacute" unicode="&#xe9;" horiz-adv-x="474" 
d="M441 158q-8 -36 -27 -65t-46 -49.5t-60.5 -32t-68.5 -11.5q-41 0 -78.5 15t-66 41t-45.5 62t-17 78t17 78t45.5 62t66 41t78.5 15q34 0 64.5 -8t53 -21.5t36 -31t13.5 -36.5q0 -15 -10.5 -25t-26.5 -10h-202q-11 0 -17 6t-6 14t6 14.5t17 6.5h191q-17 25 -51 37t-68 12
q-32 0 -62 -11.5t-53 -32t-36.5 -49t-13.5 -61.5t13.5 -61.5t36.5 -49t53 -32t62 -11.5q28 0 54 9t48 25t37.5 39t21.5 51q2 10 8 14t13 4q8 0 14.5 -5t6.5 -15q0 -2 -0.5 -3.5t-0.5 -2.5zM159 481q-2 -1 -6 -1q-10 0 -15.5 6.5t-5.5 14.5q0 7 4 13t13 8l173 41q2 1 6 1
q10 0 15.5 -6.5t5.5 -14.5q0 -6 -4 -12t-13 -8z" />
    <glyph glyph-name="ecircumflex" unicode="&#xea;" horiz-adv-x="474" 
d="M441 158q-8 -36 -27 -65t-46 -49.5t-60.5 -32t-68.5 -11.5q-41 0 -78.5 15t-66 41t-45.5 62t-17 78t17 78t45.5 62t66 41t78.5 15q34 0 64.5 -8t53 -21.5t36 -31t13.5 -36.5q0 -15 -10.5 -25t-26.5 -10h-202q-11 0 -17 6t-6 14t6 14.5t17 6.5h191q-17 25 -51 37t-68 12
q-32 0 -62 -11.5t-53 -32t-36.5 -49t-13.5 -61.5t13.5 -61.5t36.5 -49t53 -32t62 -11.5q28 0 54 9t48 25t37.5 39t21.5 51q2 10 8 14t13 4q8 0 14.5 -5t6.5 -15q0 -2 -0.5 -3.5t-0.5 -2.5zM332 463q13 -7 13 -19q0 -8 -6 -14.5t-15 -6.5q-5 0 -11 3l-72 37l-73 -37
q-6 -3 -11 -3q-9 0 -15 6.5t-6 14.5q0 12 13 19l82 42q4 2 10 2q5 0 9 -2z" />
    <glyph glyph-name="edieresis" unicode="&#xeb;" horiz-adv-x="474" 
d="M441 158q-8 -36 -27 -65t-46 -49.5t-60.5 -32t-68.5 -11.5q-41 0 -78.5 15t-66 41t-45.5 62t-17 78t17 78t45.5 62t66 41t78.5 15q34 0 64.5 -8t53 -21.5t36 -31t13.5 -36.5q0 -15 -10.5 -25t-26.5 -10h-202q-11 0 -17 6t-6 14t6 14.5t17 6.5h191q-17 25 -51 37t-68 12
q-32 0 -62 -11.5t-53 -32t-36.5 -49t-13.5 -61.5t13.5 -61.5t36.5 -49t53 -32t62 -11.5q28 0 54 9t48 25t37.5 39t21.5 51q2 10 8 14t13 4q8 0 14.5 -5t6.5 -15q0 -2 -0.5 -3.5t-0.5 -2.5zM227 458q0 -14 -10 -24t-24 -10t-24 10t-10 24t10 24t24 10t24 -10t10 -24zM315 458
q0 -14 -10 -24t-24 -10t-24 10t-10 24t10 24t24 10t24 -10t10 -24z" />
    <glyph glyph-name="igrave" unicode="&#xec;" horiz-adv-x="130" 
d="M86 39q12 -7 12 -19q0 -8 -5.5 -14t-14.5 -6q-6 0 -12 3q-16 8 -25 23.5t-9 33.5v311q0 11 6.5 17t14.5 6t14.5 -6t6.5 -17v-311q0 -15 12 -21zM160 521q9 -2 13 -8t4 -13q0 -8 -5.5 -14.5t-15.5 -6.5q-4 0 -6 1l-173 42q-9 2 -13 8t-4 12q0 8 5.5 14.5t15.5 6.5
q4 0 6 -1z" />
    <glyph glyph-name="iacute" unicode="&#xed;" horiz-adv-x="130" 
d="M86 39q12 -7 12 -19q0 -8 -5.5 -14t-14.5 -6q-6 0 -12 3q-16 8 -25 23.5t-9 33.5v311q0 11 6.5 17t14.5 6t14.5 -6t6.5 -17v-311q0 -15 12 -21zM13 482q-2 -1 -6 -1q-10 0 -15.5 6.5t-5.5 14.5q0 7 4 13t13 8l173 41q2 1 6 1q10 0 15.5 -6.5t5.5 -14.5q0 -6 -4 -12
t-13 -8z" />
    <glyph glyph-name="icircumflex" unicode="&#xee;" horiz-adv-x="130" 
d="M86 39q12 -7 12 -19q0 -8 -5.5 -14t-14.5 -6q-6 0 -12 3q-16 8 -25 23.5t-9 33.5v311q0 11 6.5 17t14.5 6t14.5 -6t6.5 -17v-311q0 -15 12 -21zM159 454q13 -7 13 -19q0 -8 -6 -14.5t-15 -6.5q-5 0 -11 3l-72 37l-73 -37q-6 -3 -11 -3q-9 0 -15 6.5t-6 14.5q0 12 13 19
l82 42q4 2 10 2q5 0 9 -2l82 -42v0z" />
    <glyph glyph-name="idieresis" unicode="&#xef;" horiz-adv-x="130" 
d="M86 39q12 -7 12 -19q0 -8 -5.5 -14t-14.5 -6q-6 0 -12 3q-16 8 -25 23.5t-9 33.5v311q0 11 6.5 17t14.5 6t14.5 -6t6.5 -17v-311q0 -15 12 -21zM57 458q0 -14 -10 -24t-24 -10t-24 10t-10 24t10 24t24 10t24 -10t10 -24zM145 458q0 -14 -10 -24t-24 -10t-24 10t-10 24
t10 24t24 10t24 -10t10 -24z" />
    <glyph glyph-name="eth" unicode="&#xf0;" horiz-adv-x="460" 
d="M386 196q0 32 -12.5 60t-33.5 49t-49.5 33t-60.5 12t-60.5 -12t-50 -33t-34 -49t-12.5 -60t12.5 -60t34 -49t50 -33t60.5 -12t60.5 12t49.5 33t33.5 49t12.5 60zM428 196q0 -41 -16 -76.5t-43 -62t-63 -42t-76 -15.5q-41 0 -77 15.5t-63 42t-42.5 62t-15.5 76.5
q0 40 15.5 76t42.5 62.5t63 42t77 15.5q46 0 87 -20.5t69 -55.5v185q0 32 -11 61.5t-36 52.5l-100 -100q-7 -7 -16 -7q-8 0 -14 6t-6 14q0 9 7 16l92 93q-32 15 -68 15q-15 0 -30 -3q-2 0 -3 -0.5t-2 -0.5q-10 0 -15.5 6.5t-5.5 14.5q0 7 4.5 12.5t14.5 7.5t19.5 3t19.5 1
q53 0 97 -25l45 45q7 7 16 7q8 0 14.5 -6t6.5 -14q0 -9 -7 -16l-40 -40q31 -28 45.5 -65t14.5 -78v-305z" />
    <glyph glyph-name="ntilde" unicode="&#xf1;" horiz-adv-x="439" 
d="M407 22q0 -11 -6.5 -17t-14.5 -6t-14.5 6t-6.5 17v195q0 27 -10 51.5t-27.5 42.5t-42 28.5t-53.5 10.5q-26 0 -50 -9t-43 -25.5t-30 -40t-11 -52.5v-202q0 -11 -6.5 -16t-14.5 -5t-14.5 5t-6.5 16q0 78 0.5 155.5t0.5 155.5q0 14 -13 21q-12 7 -12 19q0 8 5.5 14t14.5 6
q6 0 12 -3q32 -18 34 -55q26 29 60.5 42.5t72.5 13.5q35 0 67 -12.5t56 -35.5t38.5 -54.5t14.5 -70.5v-195v0zM333 450q-21 -26 -55 -26q-15 0 -28.5 6t-26 13.5t-25 14t-27.5 6.5q-11 0 -17 -5.5t-11 -12t-10 -12t-12 -5.5q-8 0 -14.5 5.5t-6.5 14.5q0 12 6.5 22.5t17 18
t23 12t24.5 4.5q16 0 31 -6.5t28 -14t25 -14t24 -6.5q6 0 11 3t9.5 7t9 7t9.5 3q8 0 14.5 -6t6.5 -14t-6 -15z" />
    <glyph glyph-name="ograve" unicode="&#xf2;" 
d="M395 196q0 33 -13 61t-35 48.5t-51.5 32.5t-61.5 12t-61 -12t-51 -32.5t-35 -48.5t-13 -61t13 -61t35 -48.5t51 -32.5t61 -12t61.5 11.5t51.5 32.5t35 49t13 61zM436 196q0 -41 -16 -77t-44 -62.5t-64.5 -41.5t-77.5 -15t-77.5 15t-64 41.5t-44 62.5t-16.5 77t16 77
t44 62.5t64.5 41.5t77.5 15q40 0 77 -15t64.5 -41.5t44 -62.5t16.5 -77zM323 513q9 -2 13 -8t4 -13q0 -8 -5.5 -14.5t-15.5 -6.5q-4 0 -6 1l-173 42q-9 2 -13 8t-4 12q0 8 5.5 14.5t15.5 6.5q4 0 6 -1z" />
    <glyph glyph-name="oacute" unicode="&#xf3;" 
d="M395 196q0 33 -13 61t-35 48.5t-51.5 32.5t-61.5 12t-61 -12t-51 -32.5t-35 -48.5t-13 -61t13 -61t35 -48.5t51 -32.5t61 -12t61.5 11.5t51.5 32.5t35 49t13 61zM436 196q0 -41 -16 -77t-44 -62.5t-64.5 -41.5t-77.5 -15t-77.5 15t-64 41.5t-44 62.5t-16.5 77t16 77
t44 62.5t64.5 41.5t77.5 15q40 0 77 -15t64.5 -41.5t44 -62.5t16.5 -77zM161 479q-2 -1 -6 -1q-10 0 -15.5 6.5t-5.5 14.5q0 7 4 13t13 8l173 41q2 1 6 1q10 0 15.5 -6.5t5.5 -14.5q0 -6 -4 -12t-13 -8z" />
    <glyph glyph-name="ocircumflex" unicode="&#xf4;" 
d="M395 196q0 33 -13 61t-35 48.5t-51.5 32.5t-61.5 12t-61 -12t-51 -32.5t-35 -48.5t-13 -61t13 -61t35 -48.5t51 -32.5t61 -12t61.5 11.5t51.5 32.5t35 49t13 61zM436 196q0 -41 -16 -77t-44 -62.5t-64.5 -41.5t-77.5 -15t-77.5 15t-64 41.5t-44 62.5t-16.5 77t16 77
t44 62.5t64.5 41.5t77.5 15q40 0 77 -15t64.5 -41.5t44 -62.5t16.5 -77zM325 463q13 -7 13 -19q0 -8 -6 -14.5t-15 -6.5q-5 0 -11 3l-72 37l-73 -37q-6 -3 -11 -3q-9 0 -15 6.5t-6 14.5q0 12 13 19l82 42q4 2 10 2q5 0 9 -2z" />
    <glyph glyph-name="otilde" unicode="&#xf5;" 
d="M395 196q0 33 -13 61t-35 48.5t-51.5 32.5t-61.5 12t-61 -12t-51 -32.5t-35 -48.5t-13 -61t13 -61t35 -48.5t51 -32.5t61 -12t61.5 11.5t51.5 32.5t35 49t13 61zM436 196q0 -41 -16 -77t-44 -62.5t-64.5 -41.5t-77.5 -15t-77.5 15t-64 41.5t-44 62.5t-16.5 77t16 77
t44 62.5t64.5 41.5t77.5 15q40 0 77 -15t64.5 -41.5t44 -62.5t16.5 -77zM354 501q-21 -23 -56 -23q-15 0 -29 5.5t-26.5 12t-25.5 12t-28 5.5q-11 0 -17 -5t-11 -10.5t-10.5 -10.5t-12.5 -5q-8 0 -14.5 5t-6.5 13q0 10 6.5 19.5t17.5 16t23.5 10.5t24.5 4q16 0 31.5 -6
t28.5 -12.5t25.5 -12t24.5 -5.5q6 0 11 2.5t9.5 6t9.5 6t10 2.5q8 0 14.5 -5t6.5 -12t-6 -13z" />
    <glyph glyph-name="odieresis" unicode="&#xf6;" 
d="M395 196q0 33 -13 61t-35 48.5t-51.5 32.5t-61.5 12t-61 -12t-51 -32.5t-35 -48.5t-13 -61t13 -61t35 -48.5t51 -32.5t61 -12t61.5 11.5t51.5 32.5t35 49t13 61zM436 196q0 -41 -16 -77t-44 -62.5t-64.5 -41.5t-77.5 -15t-77.5 15t-64 41.5t-44 62.5t-16.5 77t16 77
t44 62.5t64.5 41.5t77.5 15q40 0 77 -15t64.5 -41.5t44 -62.5t16.5 -77zM224 458q0 -14 -10 -24t-24 -10t-24 10t-10 24t10 24t24 10t24 -10t10 -24zM312 458q0 -14 -10 -24t-24 -10t-24 10t-10 24t10 24t24 10t24 -10t10 -24z" />
    <glyph glyph-name="divide" unicode="&#xf7;" horiz-adv-x="481" 
d="M285 454q0 -18 -13 -31.5t-32 -13.5q-17 0 -30.5 12.5t-13.5 32.5q0 19 13.5 31.5t30.5 12.5q19 0 32 -13t13 -31zM285 266q0 -18 -13 -31t-32 -13q-17 0 -30.5 12.5t-13.5 31.5q0 20 13.5 32.5t30.5 12.5q19 0 32 -13.5t13 -31.5zM55 340q-11 0 -17 6.5t-6 14.5t6 14.5
t17 6.5h371q11 0 17 -6.5t6 -14.5t-6 -14.5t-17 -6.5h-371z" />
    <glyph glyph-name="oslash" unicode="&#xf8;" 
d="M329 320q-20 14 -44.5 22t-50.5 8q-32 0 -61 -12t-51 -32.5t-35 -48.5t-13 -61q0 -28 9 -52t26 -44zM395 196q0 28 -9.5 52t-25.5 44l-221 -220q20 -14 44.5 -22t50.5 -8q32 0 61.5 11.5t51.5 32.5t35 49t13 61zM436 196q0 -41 -16 -77t-44 -62.5t-64.5 -41.5t-77.5 -15
q-35 0 -66.5 11t-57.5 31l-39 -39q-7 -7 -16 -7q-8 0 -14 6.5t-6 14.5q0 9 7 16l37 37q-22 26 -34.5 58t-12.5 68q0 41 16 77t44 62.5t64.5 41.5t77.5 15q35 0 67 -11t58 -31l38 39q7 7 16 7q8 0 14.5 -6.5t6.5 -14.5q0 -9 -7 -16l-38 -38q22 -25 34.5 -57t12.5 -68z" />
    <glyph glyph-name="ugrave" unicode="&#xf9;" horiz-adv-x="406" 
d="M362 39q12 -7 12 -19q0 -8 -5.5 -14t-13.5 -6q-6 0 -12 3q-26 14 -30 41q-22 -22 -50.5 -32.5t-59.5 -10.5q-28 0 -55 9.5t-48 28t-34 46.5t-13 65v188q0 10 -9 15q-12 7 -12 19q0 8 5.5 14t14.5 6q6 0 12 -3q14 -8 22.5 -21.5t8.5 -29.5v-188q0 -27 9.5 -47.5t24.5 -34
t34.5 -20t39.5 -6.5q21 0 40.5 6.5t34.5 20t24.5 34t9.5 47.5v221q0 11 6.5 17t14.5 6t14.5 -6t6.5 -17v-317q0 -10 8 -15zM296 519q9 -2 13 -8t4 -13q0 -8 -5.5 -14.5t-15.5 -6.5q-4 0 -6 1l-173 42q-9 2 -13 8t-4 12q0 8 5.5 14.5t15.5 6.5q4 0 6 -1z" />
    <glyph glyph-name="uacute" unicode="&#xfa;" horiz-adv-x="406" 
d="M362 39q12 -7 12 -19q0 -8 -5.5 -14t-13.5 -6q-6 0 -12 3q-26 14 -30 41q-22 -22 -50.5 -32.5t-59.5 -10.5q-28 0 -55 9.5t-48 28t-34 46.5t-13 65v188q0 10 -9 15q-12 7 -12 19q0 8 5.5 14t14.5 6q6 0 12 -3q14 -8 22.5 -21.5t8.5 -29.5v-188q0 -27 9.5 -47.5t24.5 -34
t34.5 -20t39.5 -6.5q21 0 40.5 6.5t34.5 20t24.5 34t9.5 47.5v221q0 11 6.5 17t14.5 6t14.5 -6t6.5 -17v-317q0 -10 8 -15zM148 483q-2 -1 -6 -1q-10 0 -15.5 6.5t-5.5 14.5q0 7 4 13t13 8l173 41q2 1 6 1q10 0 15.5 -6.5t5.5 -14.5q0 -6 -4 -12t-13 -8z" />
    <glyph glyph-name="ucircumflex" unicode="&#xfb;" horiz-adv-x="406" 
d="M362 39q12 -7 12 -19q0 -8 -5.5 -14t-13.5 -6q-6 0 -12 3q-26 14 -30 41q-22 -22 -50.5 -32.5t-59.5 -10.5q-28 0 -55 9.5t-48 28t-34 46.5t-13 65v188q0 10 -9 15q-12 7 -12 19q0 8 5.5 14t14.5 6q6 0 12 -3q14 -8 22.5 -21.5t8.5 -29.5v-188q0 -27 9.5 -47.5t24.5 -34
t34.5 -20t39.5 -6.5q21 0 40.5 6.5t34.5 20t24.5 34t9.5 47.5v221q0 11 6.5 17t14.5 6t14.5 -6t6.5 -17v-317q0 -10 8 -15zM294 454q13 -7 13 -19q0 -8 -6 -14.5t-15 -6.5q-5 0 -11 3l-72 37l-73 -37q-6 -3 -11 -3q-9 0 -15 6.5t-6 14.5q0 12 13 19l82 42q4 2 10 2q5 0 9 -2
l82 -42v0z" />
    <glyph glyph-name="udieresis" unicode="&#xfc;" horiz-adv-x="406" 
d="M362 39q12 -7 12 -19q0 -8 -5.5 -14t-13.5 -6q-6 0 -12 3q-26 14 -30 41q-22 -22 -50.5 -32.5t-59.5 -10.5q-28 0 -55 9.5t-48 28t-34 46.5t-13 65v188q0 10 -9 15q-12 7 -12 19q0 8 5.5 14t14.5 6q6 0 12 -3q14 -8 22.5 -21.5t8.5 -29.5v-188q0 -27 9.5 -47.5t24.5 -34
t34.5 -20t39.5 -6.5q21 0 40.5 6.5t34.5 20t24.5 34t9.5 47.5v221q0 11 6.5 17t14.5 6t14.5 -6t6.5 -17v-317q0 -10 8 -15zM193 458q0 -14 -10 -24t-24 -10t-24 10t-10 24t10 24t24 10t24 -10t10 -24zM281 458q0 -14 -10 -24t-24 -10t-24 10t-10 24t10 24t24 10t24 -10
t10 -24z" />
    <glyph glyph-name="yacute" unicode="&#xfd;" horiz-adv-x="386" 
d="M354 -3q0 -32 -12 -60t-32.5 -49t-49 -33t-61.5 -12q-12 0 -24.5 1.5t-23.5 5.5q-8 2 -12 8t-4 12q0 8 5.5 14.5t14.5 6.5q5 0 8 -1q9 -3 18 -4t18 -1q50 0 81 33.5t32 89.5v35q-22 -21 -50.5 -31.5t-58.5 -10.5q-28 0 -55 9.5t-48 28t-34 46.5t-13 65v188q0 10 -9 15
q-12 7 -12 19q0 8 5.5 14t14.5 6q6 0 12 -3q14 -8 22.5 -21.5t8.5 -29.5v-188q0 -27 9.5 -47.5t24.5 -34t34.5 -20t39.5 -6.5q21 0 40.5 6.5t34.5 20t24.5 34t9.5 47.5v221q0 11 6.5 17t14.5 6t14.5 -6t6.5 -17v-374zM144 481q-2 -1 -6 -1q-10 0 -15.5 6.5t-5.5 14.5
q0 7 4 13t13 8l173 41q2 1 6 1q10 0 15.5 -6.5t5.5 -14.5q0 -6 -4 -12t-13 -8z" />
    <glyph glyph-name="thorn" unicode="&#xfe;" horiz-adv-x="451" 
d="M419 192q0 -37 -13.5 -72t-38 -62.5t-58 -44.5t-73.5 -17q-23 0 -46.5 6.5t-45.5 20.5q-10 7 -10 18q0 8 5.5 14.5t14.5 6.5q8 0 13 -4q33 -21 69 -21q30 0 56 13t44.5 34.5t29.5 49.5t11 58q0 28 -10.5 56t-29 49.5t-44.5 35t-57 13.5q-26 0 -51.5 -11t-45.5 -33
q-19 -21 -30 -49.5t-11 -60.5v-419q0 -11 -6.5 -17t-14.5 -6t-14.5 6t-6.5 17v834q0 7 -3 12q-2 3 -4.5 5t-4.5 4q-12 7 -12 19q0 8 5.5 14.5t14.5 6.5q5 0 11 -3q15 -8 26 -24q4 -8 6.5 -16.5t2.5 -17.5v-290q26 35 63 53t77 18q38 0 71 -16.5t57.5 -43.5t38.5 -62.5
t14 -73.5z" />
    <glyph glyph-name="ydieresis" unicode="&#xff;" horiz-adv-x="386" 
d="M354 -3q0 -32 -12 -60t-32.5 -49t-49 -33t-61.5 -12q-12 0 -24.5 1.5t-23.5 5.5q-8 2 -12 8t-4 12q0 8 5.5 14.5t14.5 6.5q5 0 8 -1q9 -3 18 -4t18 -1q50 0 81 33.5t32 89.5v35q-22 -21 -50.5 -31.5t-58.5 -10.5q-28 0 -55 9.5t-48 28t-34 46.5t-13 65v188q0 10 -9 15
q-12 7 -12 19q0 8 5.5 14t14.5 6q6 0 12 -3q14 -8 22.5 -21.5t8.5 -29.5v-188q0 -27 9.5 -47.5t24.5 -34t34.5 -20t39.5 -6.5q21 0 40.5 6.5t34.5 20t24.5 34t9.5 47.5v221q0 11 6.5 17t14.5 6t14.5 -6t6.5 -17v-374v0zM183 458q0 -14 -10 -24t-24 -10t-24 10t-10 24t10 24
t24 10t24 -10t10 -24zM271 458q0 -14 -10 -24t-24 -10t-24 10t-10 24t10 24t24 10t24 -10t10 -24z" />
    <glyph glyph-name="Abreve" unicode="&#x102;" horiz-adv-x="650" 
d="M342 624l-136 -317h254zM616 23q2 -6 2 -9q0 -10 -6.5 -15.5t-14.5 -5.5q-14 0 -20 15l-102 257h-286l-116 -258q-6 -14 -20 -14q-8 0 -14.5 6t-6.5 15q0 6 2 10l281 643q9 22 28 22q8 0 15 -5.5t12 -17.5z" />
    <glyph glyph-name="abreve" unicode="&#x103;" horiz-adv-x="405" 
d="M373 23q0 -11 -6.5 -17t-14.5 -6t-14.5 6t-6.5 17v18q-22 -20 -50.5 -30.5t-58.5 -10.5q-26 0 -52 8.5t-46.5 25t-33 40t-12.5 53.5q0 24 9.5 46t26.5 38.5t39 26t48 9.5q32 0 60 -15t47 -41q5 -8 5 -13q0 -9 -6.5 -15t-14.5 -6q-11 0 -18 10q-13 18 -32 28t-40 10
q-16 0 -31 -5.5t-26.5 -16t-18.5 -24.5t-7 -32q0 -20 9 -36t23.5 -27t33 -17t37.5 -6q18 0 37.5 6t35.5 17.5t26 28.5t10 38v106q0 28 -11 49.5t-29 36t-41.5 21.5t-47.5 7t-47 -7.5t-41 -22t-29 -35.5t-11 -49q0 -11 -6.5 -16.5t-14.5 -5.5t-14.5 5.5t-6.5 16.5
q0 37 14.5 66.5t38.5 49t54.5 30t63.5 10.5q32 0 62.5 -10.5t54.5 -31t38.5 -49.5t14.5 -65v-214zM164 492q1 -4 6.5 -12t13.5 -16t14.5 -10.5t22.5 -3.5q13 0 24.5 3t21.5 13t12 14l6 12h31q-7 -15 -15 -27t-21 -24t-31 -16t-32 -4q-19 0 -33 6.5t-22.5 17t-15 22.5
t-12.5 25h30z" />
    <glyph glyph-name="Aogonek" unicode="&#x104;" horiz-adv-x="650" 
d="M342 624l-136 -317h254zM616 23q2 -6 2 -9q0 -10 -6.5 -15.5t-14.5 -5.5q-14 0 -20 15l-102 257h-286l-116 -258q-6 -14 -20 -14q-8 0 -14.5 6t-6.5 15q0 6 2 10l281 643q9 22 28 22q8 0 15 -5.5t12 -17.5z" />
    <glyph glyph-name="aogonek" unicode="&#x105;" horiz-adv-x="405" 
d="M373 23q0 -11 -6.5 -17t-14.5 -6t-14.5 6t-6.5 17v18q-22 -20 -50.5 -30.5t-58.5 -10.5q-26 0 -52 8.5t-46.5 25t-33 40t-12.5 53.5q0 24 9.5 46t26.5 38.5t39 26t48 9.5q32 0 60 -15t47 -41q5 -8 5 -13q0 -9 -6.5 -15t-14.5 -6q-11 0 -18 10q-13 18 -32 28t-40 10
q-16 0 -31 -5.5t-26.5 -16t-18.5 -24.5t-7 -32q0 -20 9 -36t23.5 -27t33 -17t37.5 -6q18 0 37.5 6t35.5 17.5t26 28.5t10 38v106q0 28 -11 49.5t-29 36t-41.5 21.5t-47.5 7t-47 -7.5t-41 -22t-29 -35.5t-11 -49q0 -11 -6.5 -16.5t-14.5 -5.5t-14.5 5.5t-6.5 16.5
q0 37 14.5 66.5t38.5 49t54.5 30t63.5 10.5q32 0 62.5 -10.5t54.5 -31t38.5 -49.5t14.5 -65v-214z" />
    <glyph glyph-name="Cacute" unicode="&#x106;" horiz-adv-x="757" 
d="M720 154q-53 -75 -134 -119t-174 -44q-89 0 -158 28.5t-118 79.5q-51 53 -77.5 126t-26.5 161q0 70 28 131.5t75 106.5t109.5 71t131.5 26q75 0 133.5 -19.5t100.5 -55.5q42 -38 64.5 -90t22.5 -118q0 -48 -18.5 -90.5t-50 -75t-74 -51.5t-90.5 -19q-44 0 -84.5 12.5
t-71.5 37t-49.5 60.5t-18.5 84q0 24 9.5 48.5t26.5 44t39.5 32t48.5 12.5q11 0 17 -6t6 -14t-6 -14.5t-17 -6.5q-17 0 -32.5 -9t-26.5 -23t-17.5 -31t-6.5 -33q0 -39 15.5 -68t41 -47.5t58.5 -28t68 -9.5q39 0 74 15.5t61 42.5t41 62.5t15 74.5q0 113 -72 176
q-74 65 -207 65q-60 0 -115 -22.5t-97 -62t-66.5 -93t-24.5 -115.5q0 -79 23.5 -145t69.5 -114q43 -45 104.5 -69.5t141.5 -24.5q83 0 154.5 39t119.5 106q7 10 18 10q8 0 14.5 -6t6.5 -15q0 -5 -5 -13zM297 734q-2 -1 -6 -1q-10 0 -15.5 6.5t-5.5 14.5q0 7 4 13t13 8
l173 41q2 1 6 1q10 0 15.5 -6.5t5.5 -14.5q0 -6 -4 -12t-13 -8z" />
    <glyph glyph-name="cacute" unicode="&#x107;" horiz-adv-x="445" 
d="M413 235q0 -31 -10.5 -58t-30 -47.5t-46.5 -32.5t-60 -12q-23 0 -45 8t-39 23t-27.5 36t-10.5 47q0 21 8.5 40.5t27.5 34.5q6 5 14 5q9 0 15 -6.5t6 -14.5q0 -10 -9 -17q-21 -17 -21 -43q0 -31 24 -51.5t56 -20.5q22 0 41.5 8t34 22.5t22.5 34.5t8 44t-11 45t-29 36.5
t-41 24.5t-46 9q-33 0 -64 -10t-54.5 -29.5t-37.5 -48.5t-14 -66q0 -38 14 -67t37.5 -49t53.5 -30.5t62 -10.5t63.5 11t57.5 34q6 6 15 6q8 0 14 -6t6 -14q0 -9 -8 -16q-31 -29 -70.5 -43t-81.5 -14q-39 0 -75.5 12.5t-65.5 37t-46.5 62t-17.5 87.5q0 43 17 79t45.5 62
t67 40.5t82.5 14.5q32 0 62.5 -12t54 -33.5t38 -50t14.5 -61.5zM148 481q-2 -1 -6 -1q-10 0 -15.5 6.5t-5.5 14.5q0 7 4 13t13 8l173 41q2 1 6 1q10 0 15.5 -6.5t5.5 -14.5q0 -6 -4 -12t-13 -8z" />
    <glyph glyph-name="Ccaron" unicode="&#x10c;" horiz-adv-x="757" 
d="M720 154q-53 -75 -134 -119t-174 -44q-89 0 -158 28.5t-118 79.5q-51 53 -77.5 126t-26.5 161q0 70 28 131.5t75 106.5t109.5 71t131.5 26q75 0 133.5 -19.5t100.5 -55.5q42 -38 64.5 -90t22.5 -118q0 -48 -18.5 -90.5t-50 -75t-74 -51.5t-90.5 -19q-44 0 -84.5 12.5
t-71.5 37t-49.5 60.5t-18.5 84q0 24 9.5 48.5t26.5 44t39.5 32t48.5 12.5q11 0 17 -6t6 -14t-6 -14.5t-17 -6.5q-17 0 -32.5 -9t-26.5 -23t-17.5 -31t-6.5 -33q0 -39 15.5 -68t41 -47.5t58.5 -28t68 -9.5q39 0 74 15.5t61 42.5t41 62.5t15 74.5q0 113 -72 176
q-74 65 -207 65q-60 0 -115 -22.5t-97 -62t-66.5 -93t-24.5 -115.5q0 -79 23.5 -145t69.5 -114q43 -45 104.5 -69.5t141.5 -24.5q83 0 154.5 39t119.5 106q7 10 18 10q8 0 14.5 -6t6.5 -15q0 -5 -5 -13zM388 736q-4 -2 -9 -2q-6 0 -10 2l-82 42q-13 7 -13 19q0 8 6 14.5
t15 6.5q5 0 11 -3l73 -37l72 37q6 3 11 3q9 0 15 -6.5t6 -14.5q0 -12 -13 -19z" />
    <glyph glyph-name="ccaron" unicode="&#x10d;" horiz-adv-x="445" 
d="M413 235q0 -31 -10.5 -58t-30 -47.5t-46.5 -32.5t-60 -12q-23 0 -45 8t-39 23t-27.5 36t-10.5 47q0 21 8.5 40.5t27.5 34.5q6 5 14 5q9 0 15 -6.5t6 -14.5q0 -10 -9 -17q-21 -17 -21 -43q0 -31 24 -51.5t56 -20.5q22 0 41.5 8t34 22.5t22.5 34.5t8 44t-11 45t-29 36.5
t-41 24.5t-46 9q-33 0 -64 -10t-54.5 -29.5t-37.5 -48.5t-14 -66q0 -38 14 -67t37.5 -49t53.5 -30.5t62 -10.5t63.5 11t57.5 34q6 6 15 6q8 0 14 -6t6 -14q0 -9 -8 -16q-31 -29 -70.5 -43t-81.5 -14q-39 0 -75.5 12.5t-65.5 37t-46.5 62t-17.5 87.5q0 43 17 79t45.5 62
t67 40.5t82.5 14.5q32 0 62.5 -12t54 -33.5t38 -50t14.5 -61.5zM232 426q-4 -2 -9 -2q-6 0 -10 2l-82 42q-13 7 -13 19q0 8 6 14.5t15 6.5q5 0 11 -3l73 -37l72 37q6 3 11 3q9 0 15 -6.5t6 -14.5q0 -12 -13 -19z" />
    <glyph glyph-name="Dcaron" unicode="&#x10e;" horiz-adv-x="701" 
d="M669 350q0 -74 -28.5 -139.5t-77.5 -114.5t-114.5 -77t-139.5 -28q-57 0 -110.5 17.5t-98.5 49.5q-10 7 -10 18q0 8 6 14.5t15 6.5q5 0 13 -5q41 -29 88 -44.5t97 -15.5q66 0 123.5 25t101 68.5t68.5 101t25 123.5t-25 123.5t-68.5 99.5t-101.5 66.5t-123 24.5
q-27 0 -67.5 -2t-78 -13t-64 -33.5t-26.5 -62.5v-528q0 -11 -6 -16.5t-14 -5.5t-14.5 5.5t-6.5 16.5v528q0 53 29 83.5t71.5 46t90.5 19.5t86 4q74 0 139.5 -27.5t114.5 -75.5t77.5 -113t28.5 -140zM360 736q-4 -2 -9 -2q-6 0 -10 2l-82 42q-13 7 -13 19q0 8 6 14.5t15 6.5
q5 0 11 -3l73 -37l72 37q6 3 11 3q9 0 15 -6.5t6 -14.5q0 -12 -13 -19z" />
    <glyph glyph-name="dcaron" unicode="&#x10f;" horiz-adv-x="707" 
d="M386 186q0 33 -12 61.5t-33 50t-49.5 34t-61.5 12.5q-32 0 -60.5 -12t-49.5 -33t-33.5 -49t-12.5 -60t12.5 -60t33.5 -49t49.5 -33t60.5 -12q31 0 59 11.5t49.5 31.5t34.5 47.5t13 59.5zM452 0q-30 0 -47.5 20.5t-18.5 49.5q-29 -38 -70.5 -57t-86.5 -19q-39 0 -74.5 15
t-62.5 41.5t-43.5 62t-16.5 76.5q0 39 15.5 75t42.5 63t63 43t77 16q45 0 86 -19t70 -57v273q0 28 20 46q7 7 16 7q8 0 14 -6t6 -14q0 -9 -7 -16q-7 -9 -7 -17v-517q0 -10 7 -17t17 -7q11 0 17 -6.5t6 -14.5t-6 -14.5t-17 -6.5zM605 705q37 0 53.5 -25.5t16.5 -60.5
q0 -25 -8.5 -50.5t-21.5 -46.5t-29 -34.5t-31 -13.5q-9 0 -14.5 6.5t-5.5 14.5q0 9 13 19q10 7 19 24t9 31q-32 0 -49.5 21t-17.5 47t16.5 47t49.5 21z" />
    <glyph glyph-name="Dcroat" unicode="&#x110;" horiz-adv-x="701" 
d="M669 350q0 -74 -28.5 -139.5t-77.5 -114.5t-114.5 -77t-139.5 -28q-57 0 -110.5 17.5t-98.5 49.5q-10 7 -10 18q0 8 6 14.5t15 6.5q5 0 13 -5q42 -29 88 -44.5t97 -15.5q66 0 123.5 25t101 68.5t68.5 101t25 123.5t-25 123.5t-68.5 99.5t-101.5 66.5t-123 24.5
q-27 0 -67.5 -2t-78 -13t-64 -33.5t-26.5 -62.5l-2 -84q-1 -32 -0.5 -57.5t2.5 -25.5q1 -3 29 -4t68 -1h83.5h74.5q16 -5 17 -18.5t-17 -21.5q-32 0 -74.5 1.5t-81.5 2.5t-66.5 1t-29.5 -2l-2 -3l-1 -316q0 -11 -6 -16.5t-14 -5.5t-14.5 5.5t-6.5 16.5q-1 40 -1.5 93.5
t-1 102.5t-1 84t-1.5 38q-7 3 -23 3t-36 -1t-41.5 -2.5t-39.5 -1.5q-16 7 -15 20.5t15 19.5q18 0 41 0.5t44.5 1t37 2t18.5 4.5q1 1 2 19t1.5 43t0.5 53v49q0 53 29 83.5t71.5 46t90.5 19.5t86 4q74 0 139.5 -27.5t114.5 -75.5t77.5 -113t28.5 -140z" />
    <glyph glyph-name="dcroat" unicode="&#x111;" horiz-adv-x="507" 
d="M386 186q0 33 -12 61.5t-33 50t-49.5 34t-61.5 12.5q-32 0 -60.5 -12t-49.5 -33t-33.5 -49t-12.5 -60t12.5 -60t33.5 -49t49.5 -33t60.5 -12q31 0 59 11.5t49.5 31.5t34.5 47.5t13 59.5zM452 0q-30 0 -47.5 20.5t-18.5 49.5q-29 -38 -70.5 -57t-86.5 -19q-39 0 -74.5 15
t-62.5 41.5t-43.5 62t-16.5 76.5q0 39 15.5 75t42.5 63t63 43t77 16q45 0 86 -19t70 -57v273q0 28 20 46q7 7 16 7q8 0 14 -6t6 -14q0 -9 -7 -16q-7 -9 -7 -17v-517q0 -10 7 -17t17 -7q11 0 17 -6.5t6 -14.5t-6 -14.5t-17 -6.5zM453 480q13 0 20.5 -6t7.5 -14q0 -7 -7.5 -13
t-20.5 -6h-137q-13 0 -20.5 6t-7.5 13q0 8 7.5 14t20.5 6h137z" />
    <glyph glyph-name="Eogonek" unicode="&#x118;" horiz-adv-x="413" 
d="M91 0q-24 0 -41.5 17t-17.5 41v587q0 24 17.5 41t41.5 17h179q11 0 17 -6.5t6 -14.5t-6 -14.5t-17 -6.5h-179q-7 0 -12 -4.5t-5 -11.5v-328h236q11 0 17 -6.5t6 -14.5t-6 -14.5t-17 -6.5h-236v-217q0 -7 5 -11.5t12 -4.5h268q11 0 16.5 -6.5t5.5 -14.5t-5.5 -14.5
t-16.5 -6.5h-268z" />
    <glyph glyph-name="eogonek" unicode="&#x119;" horiz-adv-x="474" 
d="M441 158q-8 -36 -27 -65t-46 -49.5t-60.5 -32t-68.5 -11.5q-41 0 -78.5 15t-66 41t-45.5 62t-17 78t17 78t45.5 62t66 41t78.5 15q34 0 64.5 -8t53 -21.5t36 -31t13.5 -36.5q0 -15 -10.5 -25t-26.5 -10h-202q-11 0 -17 6t-6 14t6 14.5t17 6.5h191q-17 25 -51 37t-68 12
q-32 0 -62 -11.5t-53 -32t-36.5 -49t-13.5 -61.5t13.5 -61.5t36.5 -49t53 -32t62 -11.5q28 0 54 9t48 25t37.5 39t21.5 51q2 10 8 14t13 4q8 0 14.5 -5t6.5 -15q0 -2 -0.5 -3.5t-0.5 -2.5z" />
    <glyph glyph-name="Ecaron" unicode="&#x11a;" horiz-adv-x="413" 
d="M91 0q-24 0 -41.5 17t-17.5 41v587q0 24 17.5 41t41.5 17h179q11 0 17 -6.5t6 -14.5t-6 -14.5t-17 -6.5h-179q-7 0 -12 -4.5t-5 -11.5v-328h236q11 0 17 -6.5t6 -14.5t-6 -14.5t-17 -6.5h-236v-217q0 -7 5 -11.5t12 -4.5h268q11 0 16.5 -6.5t5.5 -14.5t-5.5 -14.5
t-16.5 -6.5h-268zM216 736q-4 -2 -9 -2q-6 0 -10 2l-82 42q-13 7 -13 19q0 8 6 14.5t15 6.5q5 0 11 -3l73 -37l72 37q6 3 11 3q9 0 15 -6.5t6 -14.5q0 -12 -13 -19z" />
    <glyph glyph-name="ecaron" unicode="&#x11b;" horiz-adv-x="474" 
d="M441 158q-8 -36 -27 -65t-46 -49.5t-60.5 -32t-68.5 -11.5q-41 0 -78.5 15t-66 41t-45.5 62t-17 78t17 78t45.5 62t66 41t78.5 15q34 0 64.5 -8t53 -21.5t36 -31t13.5 -36.5q0 -15 -10.5 -25t-26.5 -10h-202q-11 0 -17 6t-6 14t6 14.5t17 6.5h191q-17 25 -51 37t-68 12
q-32 0 -62 -11.5t-53 -32t-36.5 -49t-13.5 -61.5t13.5 -61.5t36.5 -49t53 -32t62 -11.5q28 0 54 9t48 25t37.5 39t21.5 51q2 10 8 14t13 4q8 0 14.5 -5t6.5 -15q0 -2 -0.5 -3.5t-0.5 -2.5zM246 426q-4 -2 -9 -2q-6 0 -10 2l-82 42q-13 7 -13 19q0 8 6 14.5t15 6.5q5 0 11 -3
l73 -37l72 37q6 3 11 3q9 0 15 -6.5t6 -14.5q0 -12 -13 -19z" />
    <glyph glyph-name="Itilde" unicode="&#x128;" horiz-adv-x="106" 
d="M74 21q0 -11 -6.5 -17t-14.5 -6t-14.5 6t-6.5 17v661q0 11 6.5 17t14.5 6t14.5 -6t6.5 -17v-661zM172 766q-21 -23 -56 -23q-15 0 -28.5 5.5t-26 12t-25 12t-27.5 5.5q-11 0 -17.5 -4.5t-11.5 -10.5t-10 -11t-12 -5q-8 0 -14.5 5t-6.5 13q0 11 6.5 20t17 15.5t23 10.5
t25.5 4q16 0 31 -5.5t28 -12.5t25 -12.5t25 -5.5q6 0 11 2.5t9.5 6t9 6.5t9.5 3q8 0 14.5 -5.5t6.5 -12.5t-6 -13z" />
    <glyph glyph-name="itilde" unicode="&#x129;" horiz-adv-x="130" 
d="M86 39q12 -7 12 -19q0 -8 -5.5 -14t-14.5 -6q-6 0 -12 3q-16 8 -25 23.5t-9 33.5v311q0 11 6.5 17t14.5 6t14.5 -6t6.5 -17v-311q0 -15 12 -21zM171 502q-20 -22 -52 -22q-15 0 -28 5t-25 11t-24 11.5t-26 5.5q-11 0 -16.5 -4.5t-10.5 -10t-9.5 -10t-11.5 -4.5
q-8 0 -14 4.5t-6 12.5q0 10 6 18.5t16.5 15t22.5 10t23 3.5q15 0 29.5 -5.5t27 -11.5t24 -11.5t23.5 -5.5q5 0 10 2.5t9 6t8.5 6t9.5 2.5q8 0 14 -5t6 -12t-6 -12z" />
    <glyph glyph-name="dotlessi" unicode="&#x131;" horiz-adv-x="130" 
d="M86 39q12 -7 12 -19q0 -8 -5.5 -14t-14.5 -6q-6 0 -12 3q-16 8 -25 23.5t-9 33.5v311q0 11 6.5 17t14.5 6t14.5 -6t6.5 -17v-311q0 -15 12 -21z" />
    <glyph glyph-name="Lacute" unicode="&#x139;" horiz-adv-x="366" 
d="M90 0q-24 0 -41 17t-17 41v624q0 11 6.5 17t14.5 6t14.5 -6t6.5 -17v-624q0 -16 16 -16h222q11 0 16.5 -6.5t5.5 -14.5t-5.5 -14.5t-16.5 -6.5h-222zM101 734q-2 -1 -6 -1q-10 0 -15.5 6.5t-5.5 14.5q0 7 4 13t13 8l173 41q2 1 6 1q10 0 15.5 -6.5t5.5 -14.5q0 -6 -4 -12
t-13 -8z" />
    <glyph glyph-name="lacute" unicode="&#x13a;" horiz-adv-x="130" 
d="M98 22q0 -11 -6.5 -17t-14.5 -6t-14.5 6t-6.5 17v553q0 14 -12 21t-12 20q0 8 5.5 14t13.5 6q6 0 12 -3q16 -9 25.5 -24.5t9.5 -33.5v-553v0zM-15 424q-2 -1 -6 -1q-10 0 -15.5 6.5t-5.5 14.5q0 7 4 13t13 8l173 41q2 1 6 1q10 0 15.5 -6.5t5.5 -14.5q0 -6 -4 -12t-13 -8
z" />
    <glyph glyph-name="Lcaron" unicode="&#x13d;" horiz-adv-x="366" 
d="M90 0q-24 0 -41 17t-17 41v624q0 11 6.5 17t14.5 6t14.5 -6t6.5 -17v-624q0 -16 16 -16h222q11 0 16.5 -6.5t5.5 -14.5t-5.5 -14.5t-16.5 -6.5h-222zM181 1015q37 0 53.5 -25.5t16.5 -60.5q0 -25 -8.5 -50.5t-21.5 -46.5t-29 -34.5t-31 -13.5q-9 0 -14.5 6.5t-5.5 14.5
q0 9 13 19q10 7 19 24t9 31q-32 0 -49.5 21t-17.5 47t16.5 47t49.5 21z" />
    <glyph glyph-name="lcaron" unicode="&#x13e;" horiz-adv-x="330" 
d="M98 22q0 -11 -6.5 -17t-14.5 -6t-14.5 6t-6.5 17v553q0 14 -12 21t-12 20q0 8 5.5 14t13.5 6q6 0 12 -3q16 -9 25.5 -24.5t9.5 -33.5v-553zM228 705q37 0 53.5 -25.5t16.5 -60.5q0 -25 -8.5 -50.5t-21.5 -46.5t-29 -34.5t-31 -13.5q-9 0 -14.5 6.5t-5.5 14.5q0 9 13 19
q10 7 19 24t9 31q-32 0 -49.5 21t-17.5 47t16.5 47t49.5 21z" />
    <glyph glyph-name="Lslash" unicode="&#x141;" horiz-adv-x="366" 
d="M90 0q-24 0 -41 17t-17 41v624q0 11 6.5 17t14.5 6t14.5 -6t6.5 -17v-624q0 -16 16 -16h222q11 0 16.5 -6.5t5.5 -14.5t-5.5 -14.5t-16.5 -6.5h-222zM-1 340q-11 0 -17 6.5t-6 14.5t6 14.5t17 6.5h371q11 0 17 -6.5t6 -14.5t-6 -14.5t-17 -6.5h-371z" />
    <glyph glyph-name="lslash" unicode="&#x142;" horiz-adv-x="130" 
d="M98 22q0 -11 -6.5 -17t-14.5 -6t-14.5 6t-6.5 17v553q0 14 -12 21t-12 20q0 8 5.5 14t13.5 6q6 0 12 -3q16 -9 25.5 -24.5t9.5 -33.5v-553v0zM-119 340q-11 0 -17 6.5t-6 14.5t6 14.5t17 6.5h371q11 0 17 -6.5t6 -14.5t-6 -14.5t-17 -6.5h-371z" />
    <glyph glyph-name="Nacute" unicode="&#x143;" horiz-adv-x="474" 
d="M442 30q0 -14 -8.5 -21t-19.5 -7q-9 0 -17.5 4.5t-13.5 14.5l-310 603v-612q0 -11 -6 -17t-14 -6t-14.5 6t-6.5 17v661q0 14 9.5 22t20.5 8q16 0 25 -16q79 -153 157 -304.5t156 -305.5v605q0 11 6.5 17t14.5 6t14.5 -6t6.5 -17v-652v0zM155 734q-2 -1 -6 -1
q-10 0 -15.5 6.5t-5.5 14.5q0 7 4 13t13 8l173 41q2 1 6 1q10 0 15.5 -6.5t5.5 -14.5q0 -6 -4 -12t-13 -8z" />
    <glyph glyph-name="nacute" unicode="&#x144;" horiz-adv-x="439" 
d="M407 22q0 -11 -6.5 -17t-14.5 -6t-14.5 6t-6.5 17v195q0 27 -10 51.5t-27.5 42.5t-42 28.5t-53.5 10.5q-26 0 -50 -9t-43 -25.5t-30 -40t-11 -52.5v-202q0 -11 -6.5 -16t-14.5 -5t-14.5 5t-6.5 16q0 78 0.5 155.5t0.5 155.5q0 14 -13 21q-12 7 -12 19q0 8 5.5 14t14.5 6
q6 0 12 -3q32 -18 34 -55q26 29 60.5 42.5t72.5 13.5q35 0 67 -12.5t56 -35.5t38.5 -54.5t14.5 -70.5v-195v0zM138 424q-2 -1 -6 -1q-10 0 -15.5 6.5t-5.5 14.5q0 7 4 13t13 8l173 41q2 1 6 1q10 0 15.5 -6.5t5.5 -14.5q0 -6 -4 -12t-13 -8z" />
    <glyph glyph-name="Ncaron" unicode="&#x147;" horiz-adv-x="474" 
d="M442 30q0 -14 -8.5 -21t-19.5 -7q-9 0 -17.5 4.5t-13.5 14.5l-310 603v-612q0 -11 -6 -17t-14 -6t-14.5 6t-6.5 17v661q0 14 9.5 22t20.5 8q16 0 25 -16q79 -153 157 -304.5t156 -305.5v605q0 11 6.5 17t14.5 6t14.5 -6t6.5 -17v-652v0zM246 736q-4 -2 -9 -2q-6 0 -10 2
l-82 42q-13 7 -13 19q0 8 6 14.5t15 6.5q5 0 11 -3l73 -37l72 37q6 3 11 3q9 0 15 -6.5t6 -14.5q0 -12 -13 -19z" />
    <glyph glyph-name="ncaron" unicode="&#x148;" horiz-adv-x="439" 
d="M407 22q0 -11 -6.5 -17t-14.5 -6t-14.5 6t-6.5 17v195q0 27 -10 51.5t-27.5 42.5t-42 28.5t-53.5 10.5q-26 0 -50 -9t-43 -25.5t-30 -40t-11 -52.5v-202q0 -11 -6.5 -16t-14.5 -5t-14.5 5t-6.5 16q0 78 0.5 155.5t0.5 155.5q0 14 -13 21q-12 7 -12 19q0 8 5.5 14t14.5 6
q6 0 12 -3q32 -18 34 -55q26 29 60.5 42.5t72.5 13.5q35 0 67 -12.5t56 -35.5t38.5 -54.5t14.5 -70.5v-195v0zM229 426q-4 -2 -9 -2q-6 0 -10 2l-82 42q-13 7 -13 19q0 8 6 14.5t15 6.5q5 0 11 -3l73 -37l72 37q6 3 11 3q9 0 15 -6.5t6 -14.5q0 -12 -13 -19z" />
    <glyph glyph-name="Ohungarumlaut" unicode="&#x150;" horiz-adv-x="833" 
d="M759 353q0 71 -28.5 128.5t-76 98t-109.5 62.5t-129 22q-66 0 -128 -22t-110 -62.5t-76.5 -98t-28.5 -128.5t28.5 -128.5t76.5 -98t110 -62.5t128 -22t128 22t110 62.5t76.5 98t28.5 128.5zM801 353q0 -76 -31.5 -140.5t-84.5 -112t-123 -74t-146 -26.5q-72 0 -141 25.5
t-123 72t-87 111.5t-33 145q0 76 31.5 140.5t84.5 111.5t122.5 73.5t145.5 26.5q72 0 141.5 -25.5t123.5 -71.5t87 -111.5t33 -144.5z" />
    <glyph glyph-name="ohungarumlaut" unicode="&#x151;" 
d="M395 196q0 33 -13 61t-35 48.5t-51.5 32.5t-61.5 12t-61 -12t-51 -32.5t-35 -48.5t-13 -61t13 -61t35 -48.5t51 -32.5t61 -12t61.5 11.5t51.5 32.5t35 49t13 61zM436 196q0 -41 -16 -77t-44 -62.5t-64.5 -41.5t-77.5 -15t-77.5 15t-64 41.5t-44 62.5t-16.5 77t16 77
t44 62.5t64.5 41.5t77.5 15q40 0 77 -15t64.5 -41.5t44 -62.5t16.5 -77zM13 424q-2 -1 -6 -1q-10 0 -15.5 6.5t-5.5 14.5q0 7 4 13t13 8l173 41q2 1 6 1q10 0 15.5 -6.5t5.5 -14.5q0 -6 -4 -12t-13 -8zM294 424q-2 -1 -6 -1q-10 0 -15.5 6.5t-5.5 14.5q0 7 4 13t13 8l173 41
q2 1 6 1q10 0 15.5 -6.5t5.5 -14.5q0 -6 -4 -12t-13 -8z" />
    <glyph glyph-name="OE" unicode="&#x152;" horiz-adv-x="904" 
d="M523 592q-38 32 -82 48.5t-90 16.5q-61 0 -112 -25.5t-87.5 -68t-57 -98t-20.5 -115.5q0 -56 19 -111t54.5 -98.5t87 -71t116.5 -27.5q46 0 90 16t82 49v485zM582 0q-23 0 -40 15.5t-19 38.5q-39 -27 -83 -40.5t-89 -13.5q-67 0 -125.5 28t-101.5 76t-67.5 111.5
t-24.5 134.5q0 65 22.5 127.5t64.5 111.5t100.5 79t130.5 30q45 0 89.5 -13.5t83.5 -40.5q2 25 17.5 42t41.5 17h179q11 0 16.5 -6.5t5.5 -14.5t-5.5 -14.5t-16.5 -6.5h-179q-17 0 -17 -16v-328h236q11 0 17 -6.5t6 -14.5t-6 -14.5t-17 -6.5h-236v-217q0 -16 17 -16h267
q11 0 17 -6.5t6 -14.5t-6 -14.5t-17 -6.5h-267z" />
    <glyph glyph-name="oe" unicode="&#x153;" horiz-adv-x="756" 
d="M349 89q-34 49 -34 107t34 107q-24 23 -54 35t-62 12q-31 0 -60 -11.5t-51 -32.5t-35 -49t-13 -61q0 -32 13 -60t34.5 -49t50.5 -33.5t62 -12.5q32 0 62 12t53 36zM376 124q18 33 18 72q0 38 -18 71q-19 -35 -19 -71q0 -38 19 -72zM723 158q-8 -34 -26.5 -63t-45.5 -50
t-60.5 -33t-69.5 -12q-39 0 -76.5 14t-68.5 43q-29 -29 -66 -43t-75 -14q-40 0 -77.5 14t-66.5 43q-30 29 -44.5 65t-14.5 74q0 40 16 75.5t43.5 62.5t64 42.5t78.5 15.5q39 0 76.5 -14.5t65.5 -42.5q29 28 66.5 42.5t78.5 14.5q42 0 80.5 -16.5t69.5 -44.5q8 -7 13 -16
t5 -20q0 -15 -10.5 -25t-26.5 -10h-202q-11 0 -17 6t-6 14t6 14.5t17 6.5h191q-26 21 -55 35t-65 14q-32 0 -63 -12t-55 -35q33 -50 33 -108t-33 -106q24 -23 55 -35t63 -12q27 0 53.5 8.5t48.5 25t38 39t22 51.5q2 10 8 14t13 4q8 0 14 -5t6 -15q0 -2 -0.5 -3.5t-0.5 -2.5z
" />
    <glyph glyph-name="Racute" unicode="&#x154;" horiz-adv-x="494" 
d="M443 0q-5 -1 -15 -1q-26 0 -50 12t-40 34q-49 66 -97 132l-96 132q-8 11 -17.5 19t-21.5 12q-16 6 -16 20q0 8 5.5 14.5t14.5 6.5q5 0 8 -1q15 -3 28.5 -8t32.5 -5q28 0 55 11.5t47 31t32.5 46.5t12.5 58q0 30 -11.5 57t-31.5 47t-47 31.5t-57 11.5h-41q-27 0 -46 -19
t-19 -45v-576q0 -11 -6 -17t-14 -6t-14.5 6t-6.5 17v576q0 22 8.5 41t22.5 33.5t33.5 23t41.5 8.5h41q39 0 73.5 -15t60 -40.5t40.5 -60t15 -73.5q0 -38 -14.5 -71.5t-39.5 -59.5t-58.5 -41.5t-71.5 -16.5q3 -4 18 -24.5t36 -49t44.5 -60.5t43 -59t32.5 -44.5l13 -17.5
q21 -30 58 -30q2 0 4.5 0.5t7.5 0.5q11 0 16 -6.5t5 -14.5q0 -7 -4.5 -12.5t-14.5 -7.5zM165 734q-2 -1 -6 -1q-10 0 -15.5 6.5t-5.5 14.5q0 7 4 13t13 8l173 41q2 1 6 1q10 0 15.5 -6.5t5.5 -14.5q0 -6 -4 -12t-13 -8z" />
    <glyph glyph-name="racute" unicode="&#x155;" horiz-adv-x="325" 
d="M293 298q0 -19 -8 -35t-21 -27t-29.5 -17.5t-33.5 -6.5t-32.5 6.5t-28.5 20.5q-7 7 -7 16q0 8 6.5 14t14.5 6q10 0 17 -8q13 -14 31 -14q19 0 34.5 13t15.5 34q0 50 -51 50q-26 0 -45 -17.5t-32 -42.5t-19 -53t-6 -50v-165q0 -11 -6.5 -17t-14.5 -6t-14.5 6t-6.5 17v310
q0 14 -13 21q-12 7 -12 19q0 8 5.5 14t14.5 6q6 0 12 -3q17 -10 25.5 -25.5t9.5 -34.5q20 29 46.5 46t55.5 17q41 0 66 -26t26 -68zM81 424q-2 -1 -6 -1q-10 0 -15.5 6.5t-5.5 14.5q0 7 4 13t13 8l173 41q2 1 6 1q10 0 15.5 -6.5t5.5 -14.5q0 -6 -4 -12t-13 -8z" />
    <glyph glyph-name="Rcaron" unicode="&#x158;" horiz-adv-x="494" 
d="M443 0q-5 -1 -15 -1q-26 0 -50 12t-40 34q-49 66 -97 132l-96 132q-8 11 -17.5 19t-21.5 12q-16 6 -16 20q0 8 5.5 14.5t14.5 6.5q5 0 8 -1q15 -3 28.5 -8t32.5 -5q28 0 55 11.5t47 31t32.5 46.5t12.5 58q0 30 -11.5 57t-31.5 47t-47 31.5t-57 11.5h-41q-27 0 -46 -19
t-19 -45v-576q0 -11 -6 -17t-14 -6t-14.5 6t-6.5 17v576q0 22 8.5 41t22.5 33.5t33.5 23t41.5 8.5h41q39 0 73.5 -15t60 -40.5t40.5 -60t15 -73.5q0 -38 -14.5 -71.5t-39.5 -59.5t-58.5 -41.5t-71.5 -16.5q3 -4 18 -24.5t36 -49t44.5 -60.5t43 -59t32.5 -44.5l13 -17.5
q21 -30 58 -30q2 0 4.5 0.5t7.5 0.5q11 0 16 -6.5t5 -14.5q0 -7 -4.5 -12.5t-14.5 -7.5zM256 736q-4 -2 -9 -2q-6 0 -10 2l-82 42q-13 7 -13 19q0 8 6 14.5t15 6.5q5 0 11 -3l73 -37l72 37q6 3 11 3q9 0 15 -6.5t6 -14.5q0 -12 -13 -19z" />
    <glyph glyph-name="rcaron" unicode="&#x159;" horiz-adv-x="325" 
d="M293 298q0 -19 -8 -35t-21 -27t-29.5 -17.5t-33.5 -6.5t-32.5 6.5t-28.5 20.5q-7 7 -7 16q0 8 6.5 14t14.5 6q10 0 17 -8q13 -14 31 -14q19 0 34.5 13t15.5 34q0 50 -51 50q-26 0 -45 -17.5t-32 -42.5t-19 -53t-6 -50v-165q0 -11 -6.5 -17t-14.5 -6t-14.5 6t-6.5 17v310
q0 14 -13 21q-12 7 -12 19q0 8 5.5 14t14.5 6q6 0 12 -3q17 -10 25.5 -25.5t9.5 -34.5q20 29 46.5 46t55.5 17q41 0 66 -26t26 -68zM172 426q-4 -2 -9 -2q-6 0 -10 2l-82 42q-13 7 -13 19q0 8 6 14.5t15 6.5q5 0 11 -3l73 -37l72 37q6 3 11 3q9 0 15 -6.5t6 -14.5
q0 -12 -13 -19z" />
    <glyph glyph-name="Sacute" unicode="&#x15a;" horiz-adv-x="463" 
d="M431 200q0 -44 -18 -80.5t-48 -63t-69 -41.5t-81 -15q-26 0 -51 7.5t-48.5 20.5t-43.5 31t-35 38q-5 6 -5 14t6.5 14t14.5 6q11 0 17 -9q24 -33 63.5 -56.5t81.5 -23.5q33 0 64.5 11.5t56 32.5t39 50t14.5 64q0 25 -9 48t-24.5 41.5t-36 32.5t-43.5 22q-36 12 -71.5 24.5
t-68.5 29.5q-40 21 -65 56.5t-25 82.5q0 35 14.5 65t39.5 52.5t57.5 35.5t67.5 13q32 0 62.5 -10.5t56.5 -31.5q9 -8 9 -17q0 -8 -6.5 -15t-14.5 -7q-7 0 -14 6q-20 17 -44 25t-49 8t-49.5 -9t-44 -25.5t-31.5 -39t-12 -50.5q0 -33 18.5 -59t49.5 -43q32 -17 65.5 -29
t67.5 -23q29 -10 55 -28t45.5 -41.5t30.5 -52.5t11 -61zM150 734q-2 -1 -6 -1q-10 0 -15.5 6.5t-5.5 14.5q0 7 4 13t13 8l173 41q2 1 6 1q10 0 15.5 -6.5t5.5 -14.5q0 -6 -4 -12t-13 -8z" />
    <glyph glyph-name="sacute" unicode="&#x15b;" horiz-adv-x="324" 
d="M200 216q49 -15 71 -44t22 -61q0 -21 -9.5 -41.5t-27.5 -36.5t-44 -26t-59 -10q-32 0 -63.5 15t-51.5 39q-6 7 -6 15t6.5 14.5t14.5 6.5q9 0 17 -9q14 -17 37 -28t46 -11q45 0 71.5 22.5t26.5 50.5q0 19 -15 36.5t-48 27.5q-19 5 -38.5 8t-38.5 10q-32 12 -49 37t-17 54
q0 22 9 41.5t24.5 34t36.5 23t44 8.5q31 0 57 -7t51 -27q9 -6 9 -17q0 -8 -6 -14.5t-15 -6.5q-8 0 -14 5q-19 14 -38.5 19.5t-43.5 5.5q-13 0 -26 -4.5t-23.5 -13t-17 -20.5t-6.5 -27q0 -22 12 -33.5t29.5 -18t37 -9.5t35.5 -8zM80 424q-2 -1 -6 -1q-10 0 -15.5 6.5
t-5.5 14.5q0 7 4 13t13 8l173 41q2 1 6 1q10 0 15.5 -6.5t5.5 -14.5q0 -6 -4 -12t-13 -8z" />
    <glyph glyph-name="Scedilla" unicode="&#x15e;" horiz-adv-x="463" 
d="M431 200q0 -44 -18 -80.5t-48 -63t-69 -41.5t-81 -15q-26 0 -51 7.5t-48.5 20.5t-43.5 31t-35 38q-5 6 -5 14t6.5 14t14.5 6q11 0 17 -9q24 -33 63.5 -56.5t81.5 -23.5q33 0 64.5 11.5t56 32.5t39 50t14.5 64q0 25 -9 48t-24.5 41.5t-36 32.5t-43.5 22q-36 12 -71.5 24.5
t-68.5 29.5q-40 21 -65 56.5t-25 82.5q0 35 14.5 65t39.5 52.5t57.5 35.5t67.5 13q32 0 62.5 -10.5t56.5 -31.5q9 -8 9 -17q0 -8 -6.5 -15t-14.5 -7q-7 0 -14 6q-20 17 -44 25t-49 8t-49.5 -9t-44 -25.5t-31.5 -39t-12 -50.5q0 -33 18.5 -59t49.5 -43q32 -17 65.5 -29
t67.5 -23q29 -10 55 -28t45.5 -41.5t30.5 -52.5t11 -61zM299 -98q0 -28 -21 -50t-52 -22q-15 0 -30.5 7t-26.5 21q-5 6 -5 14q0 9 6.5 15t14.5 6q9 0 17 -9q10 -12 25 -12q11 0 20.5 8t9.5 23q0 13 -9.5 21.5t-21.5 8.5q-11 0 -18 -6q-5 -3 -10 -3q-8 0 -15.5 6.5t-7.5 14.5
q0 4 3 9l45 74q7 11 18 11q8 0 14.5 -6t6.5 -14t-4 -13l-20 -32q27 -5 44 -25t17 -47z" />
    <glyph glyph-name="scedilla" unicode="&#x15f;" horiz-adv-x="324" 
d="M200 216q49 -15 71 -44t22 -61q0 -21 -9.5 -41.5t-27.5 -36.5t-44 -26t-59 -10q-32 0 -63.5 15t-51.5 39q-6 7 -6 15t6.5 14.5t14.5 6.5q9 0 17 -9q14 -17 37 -28t46 -11q45 0 71.5 22.5t26.5 50.5q0 19 -15 36.5t-48 27.5q-19 5 -38.5 8t-38.5 10q-32 12 -49 37t-17 54
q0 22 9 41.5t24.5 34t36.5 23t44 8.5q31 0 57 -7t51 -27q9 -6 9 -17q0 -8 -6 -14.5t-15 -6.5q-8 0 -14 5q-19 14 -38.5 19.5t-43.5 5.5q-13 0 -26 -4.5t-23.5 -13t-17 -20.5t-6.5 -27q0 -22 12 -33.5t29.5 -18t37 -9.5t35.5 -8zM229 -98q0 -28 -21 -50t-52 -22
q-15 0 -30.5 7t-26.5 21q-5 6 -5 14q0 9 6.5 15t14.5 6q9 0 17 -9q10 -12 25 -12q11 0 20.5 8t9.5 23q0 13 -9.5 21.5t-21.5 8.5q-11 0 -18 -6q-5 -3 -10 -3q-8 0 -15.5 6.5t-7.5 14.5q0 4 3 9l45 74q7 11 18 11q8 0 14.5 -6t6.5 -14t-4 -13l-20 -32q27 -5 44 -25t17 -47z
" />
    <glyph glyph-name="Scaron" unicode="&#x160;" horiz-adv-x="463" 
d="M431 200q0 -44 -18 -80.5t-48 -63t-69 -41.5t-81 -15q-26 0 -51 7.5t-48.5 20.5t-43.5 31t-35 38q-5 6 -5 14t6.5 14t14.5 6q11 0 17 -9q24 -33 63.5 -56.5t81.5 -23.5q33 0 64.5 11.5t56 32.5t39 50t14.5 64q0 25 -9 48t-24.5 41.5t-36 32.5t-43.5 22q-36 12 -71.5 24.5
t-68.5 29.5q-40 21 -65 56.5t-25 82.5q0 35 14.5 65t39.5 52.5t57.5 35.5t67.5 13q32 0 62.5 -10.5t56.5 -31.5q9 -8 9 -17q0 -8 -6.5 -15t-14.5 -7q-7 0 -14 6q-20 17 -44 25t-49 8t-49.5 -9t-44 -25.5t-31.5 -39t-12 -50.5q0 -33 18.5 -59t49.5 -43q32 -17 65.5 -29
t67.5 -23q29 -10 55 -28t45.5 -41.5t30.5 -52.5t11 -61zM241 736q-4 -2 -9 -2q-6 0 -10 2l-82 42q-13 7 -13 19q0 8 6 14.5t15 6.5q5 0 11 -3l73 -37l72 37q6 3 11 3q9 0 15 -6.5t6 -14.5q0 -12 -13 -19z" />
    <glyph glyph-name="scaron" unicode="&#x161;" horiz-adv-x="324" 
d="M200 216q49 -15 71 -44t22 -61q0 -21 -9.5 -41.5t-27.5 -36.5t-44 -26t-59 -10q-32 0 -63.5 15t-51.5 39q-6 7 -6 15t6.5 14.5t14.5 6.5q9 0 17 -9q14 -17 37 -28t46 -11q45 0 71.5 22.5t26.5 50.5q0 19 -15 36.5t-48 27.5q-19 5 -38.5 8t-38.5 10q-32 12 -49 37t-17 54
q0 22 9 41.5t24.5 34t36.5 23t44 8.5q31 0 57 -7t51 -27q9 -6 9 -17q0 -8 -6 -14.5t-15 -6.5q-8 0 -14 5q-19 14 -38.5 19.5t-43.5 5.5q-13 0 -26 -4.5t-23.5 -13t-17 -20.5t-6.5 -27q0 -22 12 -33.5t29.5 -18t37 -9.5t35.5 -8zM171 426q-4 -2 -9 -2q-6 0 -10 2l-82 42
q-13 7 -13 19q0 8 6 14.5t15 6.5q5 0 11 -3l73 -37l72 37q6 3 11 3q9 0 15 -6.5t6 -14.5q0 -12 -13 -19z" />
    <glyph glyph-name="Tcaron" unicode="&#x164;" horiz-adv-x="492" 
d="M273 661v-641q0 -11 -6.5 -16.5t-14.5 -5.5t-14.5 6t-6.5 17v640h-176q-11 0 -17 6.5t-6 14.5t6 14.5t17 6.5h382q11 0 17 -6.5t6 -14.5t-6 -14.5t-17 -6.5h-164zM255 736q-4 -2 -9 -2q-6 0 -10 2l-82 42q-13 7 -13 19q0 8 6 14.5t15 6.5q5 0 11 -3l73 -37l72 37
q6 3 11 3q9 0 15 -6.5t6 -14.5q0 -12 -13 -19z" />
    <glyph glyph-name="tcaron" unicode="&#x165;" horiz-adv-x="521" 
d="M285 48q-14 -24 -38 -36t-50 -12q-21 0 -39 7.5t-31.5 21t-21 32t-7.5 39.5v146h-44q-11 0 -16.5 6t-5.5 14t5.5 14.5t16.5 6.5h44v179q0 11 6.5 17t14.5 6t14.5 -6t6.5 -17v-179h65q11 0 17 -6t6 -14t-6 -14.5t-17 -6.5h-65v-146q0 -24 16 -41.5t42 -17.5q15 0 29 6.5
t22 20.5q7 12 19 12q8 0 14.5 -6t6.5 -14q0 -4 -4 -12zM419 705q37 0 53.5 -25.5t16.5 -60.5q0 -25 -8.5 -50.5t-21.5 -46.5t-29 -34.5t-31 -13.5q-9 0 -14.5 6.5t-5.5 14.5q0 9 13 19q10 7 19 24t9 31q-32 0 -49.5 21t-17.5 47t16.5 47t49.5 21z" />
    <glyph glyph-name="Utilde" unicode="&#x168;" horiz-adv-x="521" 
d="M477 39q12 -7 12 -19q0 -8 -5.5 -14t-14.5 -6q-6 0 -12 3q-17 9 -27 25.5t-10 36.5v23q-32 -44 -78 -66t-96 -22q-41 0 -80 15.5t-71 47.5q-29 29 -46 68t-17 84v467q0 11 6 17t14 6t14.5 -6t6.5 -17v-467q0 -36 14 -67.5t37.5 -55t55 -37t67.5 -13.5t67.5 13.5t55 37
t37 54.5t13.5 67v468q0 11 6.5 16t14.5 5t14.5 -5t6.5 -16v-617q0 -18 15 -26zM373 768q-20 -23 -54 -23q-14 0 -27.5 5t-25.5 11.5t-24.5 12.5t-26.5 6q-11 0 -17 -5t-11 -10.5t-10 -10.5t-11 -5q-8 0 -14.5 5t-6.5 13q0 10 6.5 19t16.5 15.5t22.5 10.5t24.5 4
q15 0 30 -5.5t27.5 -12t24.5 -12.5t23 -6q6 0 11 3t9.5 6.5t9 6t8.5 2.5q8 0 14.5 -5.5t6.5 -12.5q0 -6 -6 -12z" />
    <glyph glyph-name="utilde" unicode="&#x169;" horiz-adv-x="406" 
d="M362 39q12 -7 12 -19q0 -8 -5.5 -14t-13.5 -6q-6 0 -12 3q-26 14 -30 41q-22 -22 -50.5 -32.5t-59.5 -10.5q-28 0 -55 9.5t-48 28t-34 46.5t-13 65v188q0 10 -9 15q-12 7 -12 19q0 8 5.5 14t14.5 6q6 0 12 -3q14 -8 22.5 -21.5t8.5 -29.5v-188q0 -27 9.5 -47.5t24.5 -34
t34.5 -20t39.5 -6.5q21 0 40.5 6.5t34.5 20t24.5 34t9.5 47.5v221q0 11 6.5 17t14.5 6t14.5 -6t6.5 -17v-317q0 -10 8 -15zM317 503q-20 -23 -53 -23q-14 0 -27 5.5t-25 12t-24 12.5t-27 6q-10 0 -16 -5t-10.5 -11t-9.5 -11t-12 -5t-13.5 5t-6.5 13q0 11 6.5 20.5t16.5 16
t22 10.5t23 4q16 0 30.5 -5.5t27 -12.5t24 -12.5t22.5 -5.5q6 0 11 2.5t9 6t8.5 6t9.5 2.5q7 0 13.5 -5t6.5 -12q0 -8 -6 -14z" />
    <glyph glyph-name="Uring" unicode="&#x16e;" horiz-adv-x="521" 
d="M477 39q12 -7 12 -19q0 -8 -5.5 -14t-14.5 -6q-6 0 -12 3q-17 9 -27 25.5t-10 36.5v23q-32 -44 -78 -66t-96 -22q-41 0 -80 15.5t-71 47.5q-29 29 -46 68t-17 84v467q0 11 6 17t14 6t14.5 -6t6.5 -17v-467q0 -36 14 -67.5t37.5 -55t55 -37t67.5 -13.5t67.5 13.5t55 37
t37 54.5t13.5 67v468q0 11 6.5 16t14.5 5t14.5 -5t6.5 -16v-617q0 -18 15 -26zM282 797q0 8 -6.5 14.5t-14.5 6.5q-9 0 -15 -6.5t-6 -14.5q0 -9 6 -15t15 -6q8 0 14.5 6t6.5 15zM323 797q0 -26 -18 -44.5t-44 -18.5t-44.5 18.5t-18.5 44.5t18.5 44t44.5 18t44 -18t18 -44z
" />
    <glyph glyph-name="uring" unicode="&#x16f;" horiz-adv-x="406" 
d="M362 39q12 -7 12 -19q0 -8 -5.5 -14t-13.5 -6q-6 0 -12 3q-26 14 -30 41q-22 -22 -50.5 -32.5t-59.5 -10.5q-28 0 -55 9.5t-48 28t-34 46.5t-13 65v188q0 10 -9 15q-12 7 -12 19q0 8 5.5 14t14.5 6q6 0 12 -3q14 -8 22.5 -21.5t8.5 -29.5v-188q0 -27 9.5 -47.5t24.5 -34
t34.5 -20t39.5 -6.5q21 0 40.5 6.5t34.5 20t24.5 34t9.5 47.5v221q0 11 6.5 17t14.5 6t14.5 -6t6.5 -17v-317q0 -10 8 -15zM224 487q0 8 -6.5 14.5t-14.5 6.5q-9 0 -15 -6.5t-6 -14.5q0 -9 6 -15t15 -6q8 0 14.5 6t6.5 15zM265 487q0 -26 -18 -44.5t-44 -18.5t-44.5 18.5
t-18.5 44.5t18.5 44t44.5 18t44 -18t18 -44z" />
    <glyph glyph-name="Uhungarumlaut" unicode="&#x170;" horiz-adv-x="521" 
d="M477 39q12 -7 12 -19q0 -8 -5.5 -14t-14.5 -6q-6 0 -12 3q-17 9 -27 25.5t-10 36.5v23q-32 -44 -78 -66t-96 -22q-41 0 -80 15.5t-71 47.5q-29 29 -46 68t-17 84v467q0 11 6 17t14 6t14.5 -6t6.5 -17v-467q0 -36 14 -67.5t37.5 -55t55 -37t67.5 -13.5t67.5 13.5t55 37
t37 54.5t13.5 67v468q0 11 6.5 16t14.5 5t14.5 -5t6.5 -16v-617q0 -18 15 -26z" />
    <glyph glyph-name="uhungarumlaut" unicode="&#x171;" horiz-adv-x="406" 
d="M362 39q12 -7 12 -19q0 -8 -5.5 -14t-13.5 -6q-6 0 -12 3q-26 14 -30 41q-22 -22 -50.5 -32.5t-59.5 -10.5q-28 0 -55 9.5t-48 28t-34 46.5t-13 65v188q0 10 -9 15q-12 7 -12 19q0 8 5.5 14t14.5 6q6 0 12 -3q14 -8 22.5 -21.5t8.5 -29.5v-188q0 -27 9.5 -47.5t24.5 -34
t34.5 -20t39.5 -6.5q21 0 40.5 6.5t34.5 20t24.5 34t9.5 47.5v221q0 11 6.5 17t14.5 6t14.5 -6t6.5 -17v-317q0 -10 8 -15z" />
    <glyph glyph-name="Ydieresis" unicode="&#x178;" horiz-adv-x="531" 
d="M286 290v-269q0 -11 -6 -17t-14 -6t-14.5 6t-6.5 17v269l-210 382q-3 6 -3 12q0 9 6 14.5t14 5.5q12 0 19 -12l194 -354l195 354q7 12 19 12q8 0 14 -5.5t6 -14.5q0 -6 -3 -12zM255 700q0 -14 -10 -24t-24 -10t-24 10t-10 24t10 24t24 10t24 -10t10 -24zM343 700
q0 -14 -10 -24t-24 -10t-24 10t-10 24t10 24t24 10t24 -10t10 -24z" />
    <glyph glyph-name="Zacute" unicode="&#x179;" horiz-adv-x="487" 
d="M74 42h317q11 0 16.5 -6.5t5.5 -14.5t-5.5 -14.5t-16.5 -6.5h-321q-14 0 -26 10t-12 27q0 16 10 31l369 593h-300q-11 0 -16.5 6.5t-5.5 14.5t5.5 14.5t16.5 6.5h308q18 0 27 -11t9 -26q0 -14 -7 -25zM162 734q-2 -1 -6 -1q-10 0 -15.5 6.5t-5.5 14.5q0 7 4 13t13 8
l173 41q2 1 6 1q10 0 15.5 -6.5t5.5 -14.5q0 -6 -4 -12t-13 -8z" />
    <glyph glyph-name="zacute" unicode="&#x17a;" horiz-adv-x="404" 
d="M369 57q-14 -26 -39.5 -41.5t-55.5 -15.5h-221q-9 0 -15 7t-6 15q0 7 4 12l257 316h-197q-14 0 -20 -12q-7 -12 -18 -12q-8 0 -14.5 5.5t-6.5 14.5q0 6 3 12q8 16 23.5 25t32.5 9h241q9 0 15 -6.5t6 -14.5q0 -6 -5 -13l-257 -316h178q40 0 59 34q7 12 19 12q8 0 14 -5.5
t6 -13.5q0 -6 -3 -12zM120 424q-2 -1 -6 -1q-10 0 -15.5 6.5t-5.5 14.5q0 7 4 13t13 8l173 41q2 1 6 1q10 0 15.5 -6.5t5.5 -14.5q0 -6 -4 -12t-13 -8z" />
    <glyph glyph-name="zdotaccent" unicode="&#x17c;" horiz-adv-x="404" 
d="M369 57q-14 -26 -39.5 -41.5t-55.5 -15.5h-221q-9 0 -15 7t-6 15q0 7 4 12l257 316h-197q-14 0 -20 -12q-7 -12 -18 -12q-8 0 -14.5 5.5t-6.5 14.5q0 6 3 12q8 16 23.5 25t32.5 9h241q9 0 15 -6.5t6 -14.5q0 -6 -5 -13l-257 -316h178q40 0 59 34q7 12 19 12q8 0 14 -5.5
t6 -13.5q0 -6 -3 -12z" />
    <glyph glyph-name="Zcaron" unicode="&#x17d;" horiz-adv-x="487" 
d="M74 42h317q11 0 16.5 -6.5t5.5 -14.5t-5.5 -14.5t-16.5 -6.5h-321q-14 0 -26 10t-12 27q0 16 10 31l369 593h-300q-11 0 -16.5 6.5t-5.5 14.5t5.5 14.5t16.5 6.5h308q18 0 27 -11t9 -26q0 -14 -7 -25zM287 736q-4 -2 -9 -2q-6 0 -10 2l-82 42q-13 7 -13 19q0 8 6 14.5
t15 6.5q5 0 11 -3l73 -37l72 37q6 3 11 3q9 0 15 -6.5t6 -14.5q0 -12 -13 -19z" />
    <glyph glyph-name="zcaron" unicode="&#x17e;" horiz-adv-x="404" 
d="M369 57q-14 -26 -39.5 -41.5t-55.5 -15.5h-221q-9 0 -15 7t-6 15q0 7 4 12l257 316h-197q-14 0 -20 -12q-7 -12 -18 -12q-8 0 -14.5 5.5t-6.5 14.5q0 6 3 12q8 16 23.5 25t32.5 9h241q9 0 15 -6.5t6 -14.5q0 -6 -5 -13l-257 -316h178q40 0 59 34q7 12 19 12q8 0 14 -5.5
t6 -13.5q0 -6 -3 -12zM211 426q-4 -2 -9 -2q-6 0 -10 2l-82 42q-13 7 -13 19q0 8 6 14.5t15 6.5q5 0 11 -3l73 -37l72 37q6 3 11 3q9 0 15 -6.5t6 -14.5q0 -12 -13 -19z" />
    <glyph glyph-name="florin" unicode="&#x192;" horiz-adv-x="819" 
d="M464 401q0 -9 -1 -14q4 1 7.5 1.5t8.5 0.5q20 0 41 -9t23 -31q10 5 24 7.5t27 2.5q31 0 55.5 -15.5t24.5 -47.5q0 -8 -3 -15t-6 -13q-5 -5 -10 -5q-10 0 -10 9q0 2 3 7q7 9 7 17q0 19 -15 30.5t-37 11.5q-23 0 -41.5 -6t-31.5 -15.5t-19.5 -20t-6.5 -19.5q0 -10 6.5 -20
t32.5 -10q8 0 16 3t16 3q11 0 11 -11q-2 -16 -10.5 -30t-22.5 -24q-13 -10 -29 -16t-36 -6q-22 0 -43 8t-35 25q-14 -17 -35.5 -25t-42.5 -8q-20 0 -36.5 6t-30.5 16q-27 21 -32 54q0 5 3 8t6 3t4 -1q8 -2 15 -3.5t15 -1.5q27 0 34 10t7 20q0 9 -7 19.5t-20.5 19.5t-32 15.5
t-42.5 6.5q-21 0 -35.5 -11.5t-14.5 -30.5q0 -10 7 -17q0 -2 0.5 -3.5t0.5 -3.5q0 -9 -10 -9q-3 0 -8 5q-9 12 -9 28q0 32 24 47.5t56 15.5q12 0 26 -2.5t24 -7.5q3 22 23.5 31t39.5 9q5 0 8.5 -0.5t8.5 -1.5q-1 5 -1 9v9q0 11 1 22.5t3 19.5q7 17 12 17t12 -17l4 -24
l-19 -22h20q0 -14 -3 -26q17 -11 17 -30q0 -16 -9 -24.5t-20 -13.5t-19.5 -10.5t-8.5 -13.5q0 -9 6.5 -15t16 -10t21 -5.5t21.5 -1.5q9 0 20.5 1.5t21 5.5t16 10t6.5 15q0 7 -8 13t-20 11q-11 5 -20 13t-9 25q0 19 18 30q-3 12 -3 30q0 24 5 42q3 17 11 17q7 0 12 -17l3 -25
l-17 -21h18zM481 377q-23 0 -37 -11q-14 -9 -14 -21q0 -13 14 -21q13 -10 37 -10q23 0 36 10q14 8 14 21q0 12 -14 21q-14 11 -36 11zM339 377q-23 0 -37 -11q-6 -5 -10 -10t-4 -11q0 -12 14 -21q13 -10 37 -10t37 10q14 9 14 21q0 6 -4 11t-10 10q-14 11 -37 11zM476 251
q-14 -11 -32.5 -15t-33.5 -4t-34 4t-32 15q-31 -23 -68 -23q-5 0 -10 0.5t-10 1.5q9 -23 30.5 -33.5t45.5 -10.5q20 0 39.5 9t30.5 27q2 4 8 4q4 0 8 -4q11 -18 30.5 -27t39.5 -9q23 0 45 10.5t30 33.5q-5 -1 -9.5 -1.5t-10.5 -0.5q-38 0 -67 23zM336 521
q-51 -11 -84.5 -35.5t-33.5 -69.5q0 -8 1 -14.5t1 -14.5q0 -10 -10 -10q-7 0 -8 8q-3 16 -3 31q0 33 12.5 63t35.5 54q-18 10 -32 27.5t-19 40.5q0 9 10 9q7 0 9 -8q8 -32 35 -48.5t58 -16.5q28 0 53.5 14.5t35.5 43.5q1 7 9 7t9 -7q9 -29 35 -43.5t55 -14.5q15 0 29.5 4
t27.5 12.5t22 20.5t13 28q2 8 9 8q3 0 6 -2.5t3 -9.5q-5 -20 -16.5 -35.5t-28.5 -26.5q23 -24 36.5 -54.5t13.5 -65.5q0 -8 -0.5 -15.5t-1.5 -15.5q-3 -8 -10 -8q-10 0 -10 12q1 7 2 13.5t1 13.5q0 48 -29 71.5t-73 31.5q-28 4 -53.5 15t-39.5 36q-11 -20 -30 -32t-40 -17z
M701 96q-23 -26 -56 -40.5t-69 -14.5q-18 -11 -38.5 -15.5t-43.5 -4.5h-11q-34 -17 -73 -17q-40 0 -74 17h-11q-22 0 -43 4.5t-40 15.5q-35 0 -68 14.5t-57 40.5q-34 24 -59.5 59t-25.5 79q0 34 15 62t38 51q-25 45 -25 94q0 54 28 101t76 82t111 55t135 20t134.5 -19.5
t110.5 -54.5t76 -82.5t28 -101.5q0 -25 -6.5 -48.5t-17.5 -45.5q23 -23 37.5 -51t14.5 -62q0 -44 -25.5 -79t-60.5 -59zM609 64q45 10 78 43.5t33 82.5q0 42 -25 73q-3 3 -3 6q0 5 3 8t6 3q5 0 10 -5q28 -37 28 -85q0 -11 -2 -21t-4 -21q15 18 25 39.5t10 46.5q0 31 -15 57
t-37 46q-3 3 -3 8q0 3 1 4q25 45 25 92q0 50 -25.5 93t-69.5 75q-45 33 -105 52.5t-129 19.5t-129 -19.5t-105 -51.5q-45 -33 -70.5 -76t-25.5 -93q0 -47 25 -92q1 0 1 -4q0 -5 -3 -8q-22 -20 -37 -46t-15 -57q0 -25 10 -46.5t26 -39.5q-7 20 -7 42q0 23 7.5 45t21.5 40
q3 5 8 5q9 0 9 -11q0 -4 -1 -6q-25 -31 -25 -73q0 -49 32.5 -82.5t77.5 -43.5q-21 20 -34.5 46.5t-13.5 58.5q0 50 33 88q3 4 8 4q9 0 9 -9q0 -4 -3 -7q-27 -35 -27 -76q0 -26 10 -47.5t26.5 -38.5t38.5 -28t46 -14q-25 20 -40.5 48.5t-15.5 63.5q0 5 3 7.5t6 2.5
q10 0 10 -10q0 -29 12 -53t32.5 -41t46.5 -26.5t53 -9.5t52.5 9.5t45.5 26.5t32 41t12 53q0 10 11 10q3 0 6 -2.5t3 -7.5q0 -35 -15 -63.5t-40 -48.5q24 3 45.5 14t38 28t26.5 38.5t10 47.5q0 42 -28 76q-1 2 -1 7q0 9 9 9q4 0 7 -4q16 -18 24 -41t8 -47q0 -32 -13 -58.5
t-34 -46.5z" />
    <glyph glyph-name="Ohorn" unicode="&#x1a0;" horiz-adv-x="833" 
d="M759 353q0 71 -28.5 128.5t-76 98t-109.5 62.5t-129 22q-66 0 -128 -22t-110 -62.5t-76.5 -98t-28.5 -128.5t28.5 -128.5t76.5 -98t110 -62.5t128 -22t128 22t110 62.5t76.5 98t28.5 128.5zM801 353q0 -76 -31.5 -140.5t-84.5 -112t-123 -74t-146 -26.5q-72 0 -141 25.5
t-123 72t-87 111.5t-33 145q0 76 31.5 140.5t84.5 111.5t122.5 73.5t145.5 26.5q72 0 111.5 -13.5t47.5 -19.5q60 -25 71 -37q7 -6 29 3t60 30q19 13 24 31t1 31.5t-16 17.5t-27 -12q10 -11 8.5 -22.5t-17.5 -15.5q-11 -2 -18.5 1.5t-11 9t-5 12.5t-0.5 13q5 29 38 42
q29 11 50 3q19 -5 34.5 -20t17.5 -37q2 -23 -10.5 -41t-32 -33t-41.5 -27.5t-38 -22.5q48 -45 79 -106t31 -140z" />
    <glyph glyph-name="ohorn" unicode="&#x1a1;" 
d="M436 196q0 -41 -16 -77t-44 -62.5t-64.5 -41.5t-77.5 -15t-77.5 15t-64 41.5t-44 62.5t-16.5 77t16 77t44 62.5t64.5 41.5t77.5 15q40 0 77 -15t60 -36q2 -3 5 -6l5 -5q7 1 16.5 4t21.5 6q13 3 18.5 12.5t4.5 18.5t-7 13.5t-17 -2.5q4 -8 2 -15t-13 -7q-13 2 -15.5 10.5
t0.5 16.5q7 15 28 18q18 3 29 -4q11 -6 18 -17t5 -23q-4 -21 -26 -34.5t-48 -18.5q24 -32 31 -57.5t7 -54.5zM395 196q0 33 -13 61t-35 48.5t-51.5 32.5t-61.5 12t-61 -12t-51 -32.5t-35 -48.5t-13 -61t13 -61t35 -48.5t51 -32.5t61 -12t61.5 11.5t51.5 32.5t35 49t13 61z
" />
    <glyph glyph-name="Uhorn" unicode="&#x1af;" horiz-adv-x="521" 
d="M462 638q11 4 26.5 12t35.5 19q19 13 24 31t1 31.5t-16 17.5t-27 -12q10 -11 8.5 -22.5t-17.5 -15.5q-11 -2 -18.5 1.5t-11 9t-5 12.5t-0.5 13q5 29 38 42q29 11 50 3q19 -5 34.5 -20t17.5 -37q1 -22 -11.5 -42t-33.5 -37t-46.5 -29.5t-48.5 -18.5v-531q0 -19 15 -26
q12 -8 12 -19q0 -8 -5.5 -14t-14.5 -6q-6 0 -12 3q-37 19 -37 62v23q-32 -45 -77.5 -66.5t-96.5 -21.5q-42 0 -80.5 15.5t-70.5 47.5q-29 29 -46 68t-17 84v467q0 11 6 17t14 6t14.5 -6t6.5 -17v-467q0 -36 14 -67.5t37.5 -55t55 -37t67.5 -13.5t67.5 13.5t55 37t37 54.5
t13.5 67v468q0 11 6.5 16t14.5 5t14.5 -5t6.5 -16v-44z" />
    <glyph glyph-name="uhorn" unicode="&#x1b0;" horiz-adv-x="406" 
d="M362 39q12 -8 12 -19q0 -8 -5.5 -14t-13.5 -6q-6 0 -12 3q-25 13 -30 41q-22 -22 -50.5 -32.5t-59.5 -10.5q-28 0 -55 9.5t-48 28t-34 46.5t-13 65v188q0 10 -9 15q-12 7 -12 19q0 8 5.5 14t14.5 6q6 0 12 -3q14 -8 22.5 -21.5t8.5 -29.5v-188q0 -27 9.5 -47.5t24.5 -34
t34.5 -20t39.5 -6.5q21 0 40.5 6.5t34.5 20t24.5 34t9.5 47.5v221q0 11 6.5 17t14.5 6t14.5 -6t6.5 -17v-25q8 0 17.5 3t21.5 6q13 5 18.5 15t4.5 18.5t-7 12.5t-17 -3q4 -8 2 -15t-13 -7q-13 2 -15.5 10.5t0.5 16.5q7 15 28 18q18 3 29 -4q11 -6 18 -17t5 -23t-11.5 -22
t-23 -17t-28.5 -11t-29 -5v-268q0 -10 8 -15z" />
    <glyph glyph-name="circumflex" unicode="&#x2c6;" horiz-adv-x="273" 
d="M228 454q13 -7 13 -19q0 -8 -6 -14.5t-15 -6.5q-5 0 -11 3l-72 37l-73 -37q-6 -3 -11 -3q-9 0 -15 6.5t-6 14.5q0 12 13 19l82 42q4 2 10 2q5 0 9 -2l82 -42v0z" />
    <glyph glyph-name="caron" unicode="&#x2c7;" horiz-adv-x="273" 
d="M146 426q-4 -2 -9 -2q-6 0 -10 2l-82 42q-13 7 -13 19q0 8 6 14.5t15 6.5q5 0 11 -3l73 -37l72 37q6 3 11 3q9 0 15 -6.5t6 -14.5q0 -12 -13 -19z" />
    <glyph glyph-name="breve" unicode="&#x2d8;" horiz-adv-x="833" 
 />
    <glyph glyph-name="dotaccent" unicode="&#x2d9;" horiz-adv-x="833" 
 />
    <glyph glyph-name="ring" unicode="&#x2da;" horiz-adv-x="189" 
d="M116 487q0 8 -6.5 14.5t-14.5 6.5q-9 0 -15 -6.5t-6 -14.5q0 -9 6 -15t15 -6q8 0 14.5 6t6.5 15zM157 487q0 -26 -18 -44.5t-44 -18.5t-44.5 18.5t-18.5 44.5t18.5 44t44.5 18t44 -18t18 -44z" />
    <glyph glyph-name="tilde" unicode="&#x2dc;" horiz-adv-x="303" 
d="M265 450q-21 -26 -55 -26q-15 0 -28.5 6t-26 13.5t-25 14t-27.5 6.5q-11 0 -17 -5.5t-11 -12t-10 -12t-12 -5.5q-8 0 -14.5 5.5t-6.5 14.5q0 12 6.5 22.5t17 18t23 12t24.5 4.5q16 0 31 -6.5t28 -14t25 -14t24 -6.5q6 0 11 3t9.5 7t9 7t9.5 3q8 0 14.5 -6t6.5 -14t-6 -15
z" />
    <glyph glyph-name="hungarumlaut" unicode="&#x2dd;" horiz-adv-x="562" 
d="M59 424q-2 -1 -6 -1q-10 0 -15.5 6.5t-5.5 14.5q0 7 4 13t13 8l173 41q2 1 6 1q10 0 15.5 -6.5t5.5 -14.5q0 -6 -4 -12t-13 -8zM340 424q-2 -1 -6 -1q-10 0 -15.5 6.5t-5.5 14.5q0 7 4 13t13 8l173 41q2 1 6 1q10 0 15.5 -6.5t5.5 -14.5q0 -6 -4 -12t-13 -8z" />
    <glyph glyph-name="uni10B0" unicode="&#x10b0;" horiz-adv-x="406" 
d="M362 39q12 -7 12 -19q0 -8 -5.5 -14t-13.5 -6q-6 0 -12 3q-26 14 -30 41q-22 -22 -50.5 -32.5t-59.5 -10.5q-28 0 -55 9.5t-48 28t-34 46.5t-13 65v188q0 10 -9 15q-12 7 -12 19q0 8 5.5 14t14.5 6q6 0 12 -3q14 -8 22.5 -21.5t8.5 -29.5v-188q0 -27 9.5 -47.5t24.5 -34
t34.5 -20t39.5 -6.5q21 0 40.5 6.5t34.5 20t24.5 34t9.5 47.5v221q0 11 6.5 17t14.5 6t14.5 -6t6.5 -17v-35l13 3l9 2l9 3l13 5l7 5l3 7l4 15l2 7l-1 7l-6 9h-7h-5l-5 -3l-3 -3l-3 -4v-4l3 -7l-2 -4l-8 -2l-4 4l-2 5v10l2 7l3 4l4 5l6 7l4 4l11 3h15l11 -7l9 -14l2 -12v-13
l-3 -10l-3 -9l-4 -9l-8 -8l-10 -8l-9 -5l-14 -5l-33 -10v-257q0 -10 8 -15z" />
    <glyph glyph-name="uni1EA0" unicode="&#x1ea0;" horiz-adv-x="650" 
d="M342 624l-136 -317h254zM616 23q2 -6 2 -9q0 -10 -6.5 -15.5t-14.5 -5.5q-14 0 -20 15l-102 257h-286l-116 -258q-6 -14 -20 -14q-8 0 -14.5 6t-6.5 15q0 6 2 10l281 643q9 22 28 22q8 0 15 -5.5t12 -17.5zM315 -141q0 -11 8 -18.5t19 -7.5t19 7.5t8 18.5q0 10 -8 17.5
t-19 7.5t-19 -7.5t-8 -17.5z" />
    <glyph glyph-name="uni1EA1" unicode="&#x1ea1;" horiz-adv-x="405" 
d="M373 23q0 -11 -6.5 -17t-14.5 -6t-14.5 6t-6.5 17v18q-22 -20 -50.5 -30.5t-58.5 -10.5q-26 0 -52 8.5t-46.5 25t-33 40t-12.5 53.5q0 24 9.5 46t26.5 38.5t39 26t48 9.5q32 0 60 -15t47 -41q5 -8 5 -13q0 -9 -6.5 -15t-14.5 -6q-11 0 -18 10q-13 18 -32 28t-40 10
q-16 0 -31 -5.5t-26.5 -16t-18.5 -24.5t-7 -32q0 -20 9 -36t23.5 -27t33 -17t37.5 -6q18 0 37.5 6t35.5 17.5t26 28.5t10 38v106q0 28 -11 49.5t-29 36t-41.5 21.5t-47.5 7t-47 -7.5t-41 -22t-29 -35.5t-11 -49q0 -11 -6.5 -16.5t-14.5 -5.5t-14.5 5.5t-6.5 16.5
q0 37 14.5 66.5t38.5 49t54.5 30t63.5 10.5q32 0 62.5 -10.5t54.5 -31t38.5 -49.5t14.5 -65v-214zM200 -131q0 -10 8 -17t19 -7t19 7t8 17t-8 16.5t-19 6.5t-19 -6.5t-8 -16.5z" />
    <glyph glyph-name="uni1EA2" unicode="&#x1ea2;" horiz-adv-x="650" 
d="M342 624l-136 -317h254zM616 23q2 -6 2 -9q0 -10 -6.5 -15.5t-14.5 -5.5q-14 0 -20 15l-102 257h-286l-116 -258q-6 -14 -20 -14q-8 0 -14.5 6t-6.5 15q0 6 2 10l281 643q9 22 28 22q8 0 15 -5.5t12 -17.5zM322 814q-4 1 -4 9.5t2 16.5t4 15.5t4 10.5q3 5 7 10t8 9
q10 9 23.5 13t26 1.5t23.5 -10.5t18 -22q4 -8 5 -18t-1 -22t-6.5 -20.5t-13.5 -14.5q-9 -7 -18 -11.5t-17 -12.5q-3 -4 -6 -8.5t-7 -9t-8.5 -7t-8.5 -1.5q-6 2 -6 7.5t2.5 13.5t7 14.5t8.5 9.5q8 7 17 13t15.5 12t9 15t-1.5 23q-2 3 -5 8t-7 9q-2 1 -8 2.5t-10 0.5
q-10 0 -15.5 -5.5t-8 -12.5t-3 -15t-1 -14.5t-4 -10t-11.5 -2.5l-4.5 1.5t-5.5 2.5z" />
    <glyph glyph-name="uni1EA3" unicode="&#x1ea3;" horiz-adv-x="405" 
d="M373 23q0 -11 -6.5 -17t-14.5 -6t-14.5 6t-6.5 17v18q-22 -20 -50.5 -30.5t-58.5 -10.5q-26 0 -52 8.5t-46.5 25t-33 40t-12.5 53.5q0 24 9.5 46t26.5 38.5t39 26t48 9.5q32 0 60 -15t47 -41q5 -8 5 -13q0 -9 -6.5 -15t-14.5 -6q-11 0 -18 10q-13 18 -32 28t-40 10
q-32 0 -57.5 -21.5t-25.5 -56.5q0 -20 9 -36t23.5 -27t33 -17t37.5 -6q18 0 37.5 6t35.5 17.5t26 28.5t10 38v106q0 28 -11 49.5t-29 36t-41.5 21.5t-47.5 7t-47 -7.5t-41 -22t-29 -35.5t-11 -49q0 -11 -6.5 -16.5t-14.5 -5.5t-14.5 5.5t-6.5 16.5q0 37 14.5 66.5t38.5 49
t54.5 30t63.5 10.5q32 0 62.5 -10.5t54.5 -31t38.5 -49.5t14.5 -65v-214zM185 528q-4 1 -4 8.5t1.5 15.5t4 15.5t4.5 9.5q5 10 13 18q10 9 22.5 12t24.5 1t22 -9.5t16 -20.5q8 -16 4.5 -37.5t-18.5 -32.5q-8 -7 -16.5 -11t-16.5 -11q-5 -7 -12.5 -17t-15.5 -8q-6 1 -6 7
t2.5 13t6.5 13.5t8 8.5q8 7 16 12.5t14 11t8.5 13.5t-0.5 22q-3 3 -5.5 7.5t-5.5 8.5q-3 1 -8.5 2.5t-8.5 0.5q-15 0 -19.5 -9.5t-6 -20.5t-3.5 -19.5t-12 -6.5q-2 0 -4 1z" />
    <glyph glyph-name="uni1EA4" unicode="&#x1ea4;" horiz-adv-x="650" 
d="M342 624l-136 -317h254zM616 23q2 -6 2 -9q0 -10 -6.5 -15.5t-14.5 -5.5q-14 0 -20 15l-102 257h-286l-116 -258q-6 -14 -20 -14q-8 0 -14.5 6t-6.5 15q0 6 2 10l281 643q9 22 28 22q8 0 15 -5.5t12 -17.5zM443 761q13 -7 13 -19q0 -8 -6 -14.5t-15 -6.5q-5 0 -11 3
l-72 37l-73 -37q-6 -3 -11 -3q-9 0 -15 6.5t-6 14.5q0 12 13 19l82 42q4 2 10 2q5 0 9 -2zM289 855q-2 -1 -6 -1q-10 0 -15.5 6.5t-5.5 14.5q0 7 4 13t13 8l173 41q2 1 6 1q10 0 15.5 -6.5t5.5 -14.5q0 -6 -4 -12t-13 -8z" />
    <glyph glyph-name="uni1EA5" unicode="&#x1ea5;" horiz-adv-x="405" 
d="M373 23q0 -11 -6.5 -17t-14.5 -6t-14.5 6t-6.5 17v18q-22 -20 -50.5 -30.5t-58.5 -10.5q-26 0 -52 8.5t-46.5 25t-33 40t-12.5 53.5q0 24 9.5 46t26.5 38.5t39 26t48 9.5q32 0 60 -15t47 -41q5 -8 5 -13q0 -9 -6.5 -15t-14.5 -6q-11 0 -18 10q-13 18 -32 28t-40 10
q-16 0 -31 -5.5t-26.5 -16t-18.5 -24.5t-7 -32q0 -20 9 -36t23.5 -27t33 -17t37.5 -6q18 0 37.5 6t35.5 17.5t26 28.5t10 38v106q0 28 -11 49.5t-29 36t-41.5 21.5t-47.5 7t-47 -7.5t-41 -22t-29 -35.5t-11 -49q0 -11 -6.5 -16.5t-14.5 -5.5t-14.5 5.5t-6.5 16.5
q0 37 14.5 66.5t38.5 49t54.5 30t63.5 10.5q32 0 62.5 -10.5t54.5 -31t38.5 -49.5t14.5 -65v-214zM296 463q13 -7 13 -19q0 -8 -6 -14.5t-15 -6.5q-5 0 -11 3l-72 37l-73 -37q-6 -3 -11 -3q-9 0 -15 6.5t-6 14.5q0 12 13 19l82 42q4 2 10 2q5 0 9 -2zM171 547q-2 -1 -6 -1
q-10 0 -15.5 6.5t-5.5 14.5q0 7 4 13t13 8l173 41q2 1 6 1q10 0 15.5 -6.5t5.5 -14.5q0 -6 -4 -12t-13 -8z" />
    <glyph glyph-name="uni1EA6" unicode="&#x1ea6;" horiz-adv-x="650" 
d="M342 624l-136 -317h254zM616 23q2 -6 2 -9q0 -10 -6.5 -15.5t-14.5 -5.5q-14 0 -20 15l-102 257h-286l-116 -258q-6 -14 -20 -14q-8 0 -14.5 6t-6.5 15q0 6 2 10l281 643q9 22 28 22q8 0 15 -5.5t12 -17.5zM436 766q13 -7 13 -19q0 -8 -6 -14.5t-15 -6.5q-5 0 -11 3
l-72 37l-73 -37q-6 -3 -11 -3q-9 0 -15 6.5t-6 14.5q0 12 13 19l82 42q4 2 10 2q5 0 9 -2zM429 893q9 -2 13 -8t4 -13q0 -8 -5.5 -14.5t-15.5 -6.5q-4 0 -6 1l-173 42q-9 2 -13 8t-4 12q0 8 5.5 14.5t15.5 6.5q4 0 6 -1z" />
    <glyph glyph-name="uni1EA7" unicode="&#x1ea7;" horiz-adv-x="405" 
d="M373 23q0 -11 -6.5 -17t-14.5 -6t-14.5 6t-6.5 17v18q-22 -20 -50.5 -30.5t-58.5 -10.5q-26 0 -52 8.5t-46.5 25t-33 40t-12.5 53.5q0 24 9.5 46t26.5 38.5t39 26t48 9.5q32 0 60 -15t47 -41q5 -8 5 -13q0 -9 -6.5 -15t-14.5 -6q-11 0 -18 10q-13 18 -32 28t-40 10
q-16 0 -31 -5.5t-26.5 -16t-18.5 -24.5t-7 -32q0 -20 9 -36t23.5 -27t33 -17t37.5 -6q18 0 37.5 6t35.5 17.5t26 28.5t10 38v106q0 28 -11 49.5t-29 36t-41.5 21.5t-47.5 7t-47 -7.5t-41 -22t-29 -35.5t-11 -49q0 -11 -6.5 -16.5t-14.5 -5.5t-14.5 5.5t-6.5 16.5
q0 37 14.5 66.5t38.5 49t54.5 30t63.5 10.5q32 0 62.5 -10.5t54.5 -31t38.5 -49.5t14.5 -65v-214zM294 463q13 -7 13 -19q0 -8 -6 -14.5t-15 -6.5q-5 0 -11 3l-72 37l-73 -37q-6 -3 -11 -3q-9 0 -15 6.5t-6 14.5q0 12 13 19l82 42q4 2 10 2q5 0 9 -2zM305 588q9 -2 13 -8
t4 -13q0 -8 -5.5 -14.5t-15.5 -6.5q-4 0 -6 1l-173 42q-9 2 -13 8t-4 12q0 8 5.5 14.5t15.5 6.5q4 0 6 -1z" />
    <glyph glyph-name="uni1EA8" unicode="&#x1ea8;" horiz-adv-x="650" 
d="M206 307h254l-118 317zM616 23q2 -8 2 -9q0 -10 -6.5 -15.5t-14.5 -5.5q-14 0 -20 15l-102 257h-286l-116 -258q-6 -14 -20 -14q-8 0 -14.5 6t-6.5 15q0 4 2 10l281 643q9 22 28 22q17 0 27 -23zM431 754q13 -7 13 -19q0 -8 -6 -14.5t-15 -6.5q-5 0 -11 3l-72 37l-73 -37
q-6 -3 -11 -3q-9 0 -15 6.5t-6 14.5q0 12 13 19l82 42q6 2 10 2q3 0 9 -2zM353 874q-4 1 -4 8t1.5 15.5t4 16t4.5 9.5q2 4 6 9t7 9q20 17 46 12.5t39 -30.5q6 -15 3.5 -37t-18.5 -32q-9 -7 -17 -11.5t-16 -11.5q-5 -6 -12 -16t-16 -8q-4 2 -4.5 7.5t2 12.5t6 13t8.5 8
q7 7 15 12.5t14 11.5t8.5 14t-0.5 21q-2 3 -4.5 8t-6.5 8q-2 1 -8 2.5t-9 0.5q-15 0 -19 -9.5t-5 -20.5t-3 -19.5t-13 -5.5h-5q-4 0 -4 3z" />
    <glyph glyph-name="uni1EA9" unicode="&#x1ea9;" horiz-adv-x="405" 
d="M373 23q0 -11 -6.5 -17t-14.5 -6t-14.5 6t-6.5 17v18q-22 -20 -50.5 -30.5t-58.5 -10.5q-26 0 -52 8.5t-46.5 25t-33 40t-12.5 53.5q0 24 9.5 46t26.5 38.5t39 26t48 9.5q32 0 60 -15t47 -41q5 -8 5 -13q0 -9 -6.5 -15t-14.5 -6q-11 0 -18 10q-13 18 -32 28t-40 10
q-32 0 -57.5 -21.5t-25.5 -56.5q0 -20 9 -36t23.5 -27t33 -17t37.5 -6q18 0 37.5 6t35.5 17.5t26 28.5t10 38v106q0 28 -11 49.5t-29 36t-41.5 21.5t-47.5 7t-47 -7.5t-41 -22t-29 -35.5t-11 -49q0 -11 -6.5 -16.5t-14.5 -5.5t-14.5 5.5t-6.5 16.5q0 37 14.5 66.5t38.5 49
t54.5 30t63.5 10.5q32 0 62.5 -10.5t54.5 -31t38.5 -49.5t14.5 -65v-214zM303 461q13 -7 13 -19q0 -8 -6 -14.5t-15 -6.5q-5 0 -11 3l-72 37l-73 -37q-6 -3 -11 -3q-9 0 -15 6.5t-6 14.5q0 12 13 19l82 42q6 2 10 2q3 0 9 -2zM227 574q-4 1 -4 8.5t1.5 15.5t4 15.5t4.5 9.5
q5 10 13 18q10 9 22.5 12t24.5 1t22 -9.5t16 -20.5q8 -16 4.5 -37.5t-18.5 -32.5q-8 -7 -16.5 -11t-16.5 -11q-5 -7 -12.5 -17t-15.5 -8q-6 1 -6 7t2.5 13t6.5 13.5t8 8.5q8 7 16 12.5t14 11t8.5 13.5t-0.5 22q-3 3 -5.5 7.5t-5.5 8.5q-3 1 -8.5 2.5t-8.5 0.5
q-15 0 -19.5 -9.5t-6 -20.5t-3.5 -19.5t-12 -6.5q-2 0 -4 1z" />
    <glyph glyph-name="uni1EAA" unicode="&#x1eaa;" horiz-adv-x="651" 
d="M342 624l-136 -317h254zM616 23q2 -6 2 -9q0 -10 -6.5 -15.5t-14.5 -5.5q-14 0 -20 15l-102 257h-286l-116 -258q-6 -14 -20 -14q-8 0 -14.5 6t-6.5 15q0 6 2 10l281 643q9 22 28 22q8 0 15 -5.5t12 -17.5zM434 763q13 -7 13 -19q0 -8 -6 -14.5t-15 -6.5q-5 0 -11 3
l-72 37l-73 -37q-6 -3 -11 -3q-9 0 -15 6.5t-6 14.5q0 12 13 19l82 42q4 2 10 2q5 0 9 -2zM461 871q-21 -22 -54 -22q-15 0 -28.5 5t-25.5 11.5t-24.5 12t-27.5 5.5q-11 0 -17 -4.5t-10.5 -10t-9.5 -10.5t-12 -5q-8 0 -14.5 5t-6.5 12q0 11 6.5 20t17 15t22.5 10t24 4
q16 0 31 -5.5t27.5 -12t24.5 -12t24 -5.5q6 0 11 2.5t9 6t8.5 6t9.5 2.5q8 0 14.5 -5t6.5 -12t-6 -13z" />
    <glyph glyph-name="uni1EAB" unicode="&#x1eab;" horiz-adv-x="405" 
d="M373 23q0 -11 -6.5 -17t-14.5 -6t-14.5 6t-6.5 17v18q-22 -20 -50.5 -30.5t-58.5 -10.5q-26 0 -52 8.5t-46.5 25t-33 40t-12.5 53.5q0 24 9.5 46t26.5 38.5t39 26t48 9.5q32 0 60 -15t47 -41q5 -8 5 -13q0 -9 -6.5 -15t-14.5 -6q-11 0 -18 10q-13 18 -32 28t-40 10
q-16 0 -31 -5.5t-26.5 -16t-18.5 -24.5t-7 -32q0 -20 9 -36t23.5 -27t33 -17t37.5 -6q18 0 37.5 6t35.5 17.5t26 28.5t10 38v106q0 28 -11 49.5t-29 36t-41.5 21.5t-47.5 7t-47 -7.5t-41 -22t-29 -35.5t-11 -49q0 -11 -6.5 -16.5t-14.5 -5.5t-14.5 5.5t-6.5 16.5
q0 37 14.5 66.5t38.5 49t54.5 30t63.5 10.5q32 0 62.5 -10.5t54.5 -31t38.5 -49.5t14.5 -65v-214zM298 463q13 -7 13 -19q0 -8 -6 -14.5t-15 -6.5q-5 0 -11 3l-72 37l-73 -37q-6 -3 -11 -3q-9 0 -15 6.5t-6 14.5q0 12 13 19l82 42q4 2 10 2q5 0 9 -2zM334 564
q-21 -23 -54 -23q-15 0 -28.5 5.5t-26 12t-25 12.5t-27.5 6q-11 0 -16.5 -5t-10.5 -11t-10 -10.5t-12 -4.5q-8 0 -14.5 4.5t-6.5 13.5q0 10 6.5 19.5t17 16.5t23 11t23.5 4q16 0 31 -6t28 -12.5l25 -12.5t24 -6q5 0 10 2.5t9.5 6.5t9 6.5t9.5 2.5q8 0 14.5 -5.5t6.5 -12.5
t-6 -14z" />
    <glyph glyph-name="uni1EAC" unicode="&#x1eac;" horiz-adv-x="650" 
d="M342 624l-136 -317h254zM616 23q2 -6 2 -9q0 -10 -6.5 -15.5t-14.5 -5.5q-14 0 -20 15l-102 257h-286l-116 -258q-6 -14 -20 -14q-8 0 -14.5 6t-6.5 15q0 6 2 10l281 643q9 22 28 22q8 0 15 -5.5t12 -17.5zM313 -139q0 -11 8 -18.5t19 -7.5t19 7.5t8 18.5q0 10 -8 17.5
t-19 7.5t-19 -7.5t-8 -17.5zM431 763q13 -7 13 -19q0 -8 -6 -14.5t-15 -6.5q-5 0 -11 3l-72 37l-73 -37q-6 -3 -11 -3q-9 0 -15 6.5t-6 14.5q0 12 13 19l82 42q4 2 10 2q5 0 9 -2z" />
    <glyph glyph-name="uni1EAD" unicode="&#x1ead;" horiz-adv-x="405" 
d="M373 23q0 -11 -6.5 -17t-14.5 -6t-14.5 6t-6.5 17v18q-22 -20 -50.5 -30.5t-58.5 -10.5q-26 0 -52 8.5t-46.5 25t-33 40t-12.5 53.5q0 24 9.5 46t26.5 38.5t39 26t48 9.5q32 0 60 -15t47 -41q5 -8 5 -13q0 -9 -6.5 -15t-14.5 -6q-11 0 -18 10q-13 18 -32 28t-40 10
q-16 0 -31 -5.5t-26.5 -16t-18.5 -24.5t-7 -32q0 -20 9 -36t23.5 -27t33 -17t37.5 -6q18 0 37.5 6t35.5 17.5t26 28.5t10 38v106q0 28 -11 49.5t-29 36t-41.5 21.5t-47.5 7t-47 -7.5t-41 -22t-29 -35.5t-11 -49q0 -11 -6.5 -16.5t-14.5 -5.5t-14.5 5.5t-6.5 16.5
q0 37 14.5 66.5t38.5 49t54.5 30t63.5 10.5q32 0 62.5 -10.5t54.5 -31t38.5 -49.5t14.5 -65v-214zM201 -130q0 -10 8 -17t19 -7t19 7t8 17t-8 16.5t-19 6.5t-19 -6.5t-8 -16.5zM315 461q13 -7 13 -19q0 -8 -6 -14.5t-15 -6.5q-5 0 -11 3l-72 37l-73 -37q-6 -3 -11 -3
q-9 0 -15 6.5t-6 14.5q0 12 13 19l82 42q4 2 10 2q5 0 9 -2z" />
    <glyph glyph-name="uni1EAE" unicode="&#x1eae;" horiz-adv-x="649" 
d="M342 624l-136 -317h254zM616 23q2 -6 2 -9q0 -10 -6.5 -15.5t-14.5 -5.5q-14 0 -20 15l-102 257h-286l-116 -258q-6 -14 -20 -14q-8 0 -14.5 6t-6.5 15q0 6 2 10l281 643q9 22 28 22q8 0 15 -5.5t12 -17.5zM276 807q2 -5 8.5 -14.5t16 -19t17 -12.5t26.5 -4q15 0 29 3.5
t25.5 15.5t14 17t7.5 14h36q-8 -18 -17.5 -32t-25 -28.5t-36.5 -19t-38 -4.5q-22 0 -38.5 7.5t-27 20t-18 27t-14.5 29.5h35zM275 853q-2 -1 -6 -1q-10 0 -15.5 6.5t-5.5 14.5q0 7 4 13t13 8l173 41q2 1 6 1q10 0 15.5 -6.5t5.5 -14.5q0 -6 -4 -12t-13 -8z" />
    <glyph glyph-name="uni1EAF" unicode="&#x1eaf;" horiz-adv-x="405" 
d="M373 23q0 -11 -6.5 -17t-14.5 -6t-14.5 6t-6.5 17v18q-22 -20 -50.5 -30.5t-58.5 -10.5q-26 0 -52 8.5t-46.5 25t-33 40t-12.5 53.5q0 24 9.5 46t26.5 38.5t39 26t48 9.5q32 0 60 -15t47 -41q5 -8 5 -13q0 -9 -6.5 -15t-14.5 -6q-11 0 -18 10q-13 18 -32 28t-40 10
q-16 0 -31 -5.5t-26.5 -16t-18.5 -24.5t-7 -32q0 -20 9 -36t23.5 -27t33 -17t37.5 -6q18 0 37.5 6t35.5 17.5t26 28.5t10 38v106q0 28 -11 49.5t-29 36t-41.5 21.5t-47.5 7t-47 -7.5t-41 -22t-29 -35.5t-11 -49q0 -11 -6.5 -16.5t-14.5 -5.5t-14.5 5.5t-6.5 16.5
q0 37 14.5 66.5t38.5 49t54.5 30t63.5 10.5q32 0 62.5 -10.5t54.5 -31t38.5 -49.5t14.5 -65v-214zM146 498q1 -4 6.5 -12t13.5 -16t14.5 -10.5t22.5 -3.5q13 0 24.5 3t21.5 13t12 14l6 12h31q-7 -15 -15 -27t-21 -24t-31 -16t-32 -4q-19 0 -33 6.5t-22.5 17t-15 22.5
t-12.5 25h30zM161 545q-2 -1 -6 -1q-10 0 -15.5 6.5t-5.5 14.5q0 7 4 13t13 8l173 41q2 1 6 1q10 0 15.5 -6.5t5.5 -14.5q0 -6 -4 -12t-13 -8z" />
    <glyph glyph-name="uni1EB0" unicode="&#x1eb0;" horiz-adv-x="650" 
d="M342 624l-136 -317h254zM616 23q2 -6 2 -9q0 -10 -6.5 -15.5t-14.5 -5.5q-14 0 -20 15l-102 257h-286l-116 -258q-6 -14 -20 -14q-8 0 -14.5 6t-6.5 15q0 6 2 10l281 643q9 22 28 22q8 0 15 -5.5t12 -17.5zM276 807q2 -5 8.5 -14.5t16 -19t17 -12.5t26.5 -4q15 0 29 3.5
t25.5 15.5t14 17t7.5 14h36q-8 -18 -17.5 -32t-25 -28.5t-36.5 -19t-38 -4.5q-22 0 -38.5 7.5t-27 20t-18 27t-14.5 29.5h35zM429 895q9 -2 13 -8t4 -13q0 -8 -5.5 -14.5t-15.5 -6.5q-4 0 -6 1l-173 42q-9 2 -13 8t-4 12q0 8 5.5 14.5t15.5 6.5q4 0 6 -1z" />
    <glyph glyph-name="uni1EB1" unicode="&#x1eb1;" horiz-adv-x="405" 
d="M373 23q0 -11 -6.5 -17t-14.5 -6t-14.5 6t-6.5 17v18q-22 -20 -50.5 -30.5t-58.5 -10.5q-26 0 -52 8.5t-46.5 25t-33 40t-12.5 53.5q0 24 9.5 46t26.5 38.5t39 26t48 9.5q32 0 60 -15t47 -41q5 -8 5 -13q0 -9 -6.5 -15t-14.5 -6q-11 0 -18 10q-13 18 -32 28t-40 10
q-16 0 -31 -5.5t-26.5 -16t-18.5 -24.5t-7 -32q0 -20 9 -36t23.5 -27t33 -17t37.5 -6q18 0 37.5 6t35.5 17.5t26 28.5t10 38v106q0 28 -11 49.5t-29 36t-41.5 21.5t-47.5 7t-47 -7.5t-41 -22t-29 -35.5t-11 -49q0 -11 -6.5 -16.5t-14.5 -5.5t-14.5 5.5t-6.5 16.5
q0 37 14.5 66.5t38.5 49t54.5 30t63.5 10.5q32 0 62.5 -10.5t54.5 -31t38.5 -49.5t14.5 -65v-214zM164 492q1 -4 6.5 -12t13.5 -16t14.5 -10.5t22.5 -3.5q13 0 24.5 3t21.5 13t12 14l6 12h31q-7 -15 -15 -27t-21 -24t-31 -16t-32 -4q-19 0 -33 6.5t-22.5 17t-15 22.5
t-12.5 25h30zM321 585q9 -2 13 -8t4 -13q0 -8 -5.5 -14.5t-15.5 -6.5q-4 0 -6 1l-173 42q-9 2 -13 8t-4 12q0 8 5.5 14.5t15.5 6.5q4 0 6 -1z" />
    <glyph glyph-name="uni1EB2" unicode="&#x1eb2;" horiz-adv-x="649" 
d="M342 624l-136 -317h254zM616 23q2 -6 2 -9q0 -10 -6.5 -15.5t-14.5 -5.5q-14 0 -20 15l-102 257h-286l-116 -258q-6 -14 -20 -14q-8 0 -14.5 6t-6.5 15q0 6 2 10l281 643q9 22 28 22q8 0 15 -5.5t12 -17.5zM276 807q2 -5 8.5 -14.5t16 -19t17 -12.5t26.5 -4q15 0 29 3.5
t25.5 15.5t14 17t7.5 14h36q-8 -18 -17.5 -32t-25 -28.5t-36.5 -19t-38 -4.5q-22 0 -38.5 7.5t-27 20t-18 27t-14.5 29.5h35zM306 891q-4 1 -4 8.5t2 15.5t3.5 15t4.5 10q2 4 6 9t7 9q9 8 22 11.5t24.5 1t21.5 -9.5t17 -21q3 -7 4.5 -16.5t-0.5 -20.5t-6.5 -19t-12.5 -13
q-9 -7 -17 -11.5t-16 -11.5l-5 -7.5t-6.5 -9t-8 -6.5t-8.5 -1q-5 2 -5 7t2 12.5t6.5 13.5t8.5 8q7 7 15.5 12.5t14.5 11.5t8 14.5t-1 20.5q-2 3 -4.5 8t-6.5 8q-2 1 -8 2.5t-9 0.5q-9 0 -14 -5t-7.5 -11.5t-3 -13.5t-1 -13.5t-3.5 -10t-11 -1.5l-4.5 0.5t-4.5 2.5z" />
    <glyph glyph-name="uni1EB3" unicode="&#x1eb3;" horiz-adv-x="399" 
d="M373 23q0 -11 -6.5 -17t-14.5 -6t-14.5 6t-6.5 17v18q-22 -20 -50.5 -30.5t-58.5 -10.5q-26 0 -52 8.5t-46.5 25t-33 40t-12.5 53.5q0 24 9.5 46t26.5 38.5t39 26t48 9.5q32 0 60 -15t47 -41q5 -8 5 -13q0 -9 -6.5 -15t-14.5 -6q-11 0 -18 10q-13 18 -32 28t-40 10
q-32 0 -57.5 -21.5t-25.5 -56.5q0 -20 9 -36t23.5 -27t33 -17t37.5 -6q18 0 37.5 6t35.5 17.5t26 28.5t10 38v106q0 28 -11 49.5t-29 36t-41.5 21.5t-47.5 7t-47 -7.5t-41 -22t-29 -35.5t-11 -49q0 -11 -6.5 -16.5t-14.5 -5.5t-14.5 5.5t-6.5 16.5q0 37 14.5 66.5t38.5 49
t54.5 30t63.5 10.5q32 0 62.5 -10.5t54.5 -31t38.5 -49.5t14.5 -65v-214zM164 492q2 -10 20 -28q8 -8 14.5 -10.5t22.5 -3.5q13 0 24.5 3t21.5 13t12 14l6 12h31q-7 -15 -15 -27t-21 -24t-31 -16t-32 -4q-20 0 -33 6.5t-22.5 16.5t-15.5 23t-12 25h30zM194 568q-4 1 -4 8.5
t1.5 15.5t4 15.5t4.5 9.5q5 10 13 18q10 9 22.5 12t24.5 1t22 -9.5t16 -20.5q8 -16 4.5 -37.5t-18.5 -32.5q-8 -7 -16.5 -11t-16.5 -11q-5 -7 -12.5 -17t-15.5 -8q-6 1 -6 7t2.5 13t6.5 13.5t8 8.5q8 7 16 12.5t14 11t8.5 13.5t-0.5 22q-3 3 -5.5 7.5t-5.5 8.5
q-3 1 -8.5 2.5t-8.5 0.5q-15 0 -19.5 -9.5t-6 -20.5t-3.5 -19.5t-12 -6.5q-2 0 -4 1z" />
    <glyph glyph-name="uni1EB4" unicode="&#x1eb4;" horiz-adv-x="650" 
d="M342 624l-136 -317h254zM616 23q2 -6 2 -9q0 -10 -6.5 -15.5t-14.5 -5.5q-14 0 -20 15l-102 257h-286l-116 -258q-6 -14 -20 -14q-8 0 -14.5 6t-6.5 15q0 6 2 10l281 643q9 22 28 22q8 0 15 -5.5t12 -17.5zM470 879q-21 -23 -55 -23q-15 0 -28.5 5t-26 11.5t-25 12.5
t-27.5 6q-11 0 -17 -5t-11 -10.5t-10 -10.5t-12 -5q-8 0 -14.5 5t-6.5 13q0 10 6.5 19t17 15.5t23 10.5t24.5 4q16 0 31 -5.5t28 -12l25 -12.5t24 -6q6 0 11 3t9.5 6.5t9 6t9.5 2.5q8 0 14.5 -5.5t6.5 -12.5q0 -6 -6 -12zM276 807q2 -5 8.5 -14.5t16 -19t17 -12.5t26.5 -4
q15 0 29 3.5t25.5 15.5t14 17t7.5 14h36q-8 -18 -17.5 -32t-25 -28.5t-36.5 -19t-38 -4.5q-22 0 -38.5 7.5t-27 20t-18 27t-14.5 29.5h35z" />
    <glyph glyph-name="uni1EB5" unicode="&#x1eb5;" horiz-adv-x="406" 
d="M373 23q0 -11 -6.5 -17t-14.5 -6t-14.5 6t-6.5 17v18q-22 -20 -50.5 -30.5t-58.5 -10.5q-26 0 -52 8.5t-46.5 25t-33 40t-12.5 53.5q0 24 9.5 46t26.5 38.5t39 26t48 9.5q32 0 60 -15t47 -41q5 -8 5 -13q0 -9 -6.5 -15t-14.5 -6q-11 0 -18 10q-13 18 -32 28t-40 10
q-16 0 -31 -5.5t-26.5 -16t-18.5 -24.5t-7 -32q0 -20 9 -36t23.5 -27t33 -17t37.5 -6q18 0 37.5 6t35.5 17.5t26 28.5t10 38v106q0 28 -11 49.5t-29 36t-41.5 21.5t-47.5 7t-47 -7.5t-41 -22t-29 -35.5t-11 -49q0 -11 -6.5 -16.5t-14.5 -5.5t-14.5 5.5t-6.5 16.5
q0 37 14.5 66.5t38.5 49t54.5 30t63.5 10.5q32 0 62.5 -10.5t54.5 -31t38.5 -49.5t14.5 -65v-214zM313 565q-20 -21 -52 -21q-15 0 -28 5t-25 11t-24 11t-26 5q-11 0 -16.5 -4.5t-10.5 -9.5l-9.5 -9.5t-11.5 -4.5q-8 0 -14 4.5t-6 11.5q0 9 6 17.5t16.5 14.5t22.5 9.5
t23 3.5q15 0 29.5 -5.5t27 -11.5t24 -10.5t23.5 -4.5q5 0 10 2t9 5t8.5 5.5t9.5 2.5q8 0 14 -4.5t6 -10.5q0 -7 -6 -12zM146 498q1 -4 6.5 -12t13.5 -16t14.5 -10.5t22.5 -3.5q13 0 24.5 3t21.5 13t12 14l6 12h31q-7 -15 -15 -27t-21 -24t-31 -16t-32 -4q-19 0 -33 6.5
t-22.5 17t-15 22.5t-12.5 25h30z" />
    <glyph glyph-name="uni1EB6" unicode="&#x1eb6;" horiz-adv-x="650" 
d="M342 624l-136 -317h254zM616 23q2 -6 2 -9q0 -10 -6.5 -15.5t-14.5 -5.5q-14 0 -20 15l-102 257h-286l-116 -258q-6 -14 -20 -14q-8 0 -14.5 6t-6.5 15q0 6 2 10l281 643q9 22 28 22q8 0 15 -5.5t12 -17.5zM317 -139q0 -11 8 -18.5t19 -7.5t19 7.5t8 18.5q0 10 -8 17.5
t-19 7.5t-19 -7.5t-8 -17.5zM274 808q2 -5 8.5 -14.5t16 -19t17 -12.5t26.5 -4q15 0 29 3.5t25.5 15.5t14 17t7.5 14h36q-8 -18 -17.5 -32t-25 -28.5t-36.5 -19t-38 -4.5q-22 0 -38.5 7.5t-27 20t-18 27t-14.5 29.5h35z" />
    <glyph glyph-name="uni1EB7" unicode="&#x1eb7;" horiz-adv-x="405" 
d="M373 23q0 -11 -6.5 -17t-14.5 -6t-14.5 6t-6.5 17v18q-22 -20 -50.5 -30.5t-58.5 -10.5q-26 0 -52 8.5t-46.5 25t-33 40t-12.5 53.5q0 24 9.5 46t26.5 38.5t39 26t48 9.5q32 0 60 -15t47 -41q5 -8 5 -13q0 -9 -6.5 -15t-14.5 -6q-11 0 -18 10q-13 18 -32 28t-40 10
q-16 0 -31 -5.5t-26.5 -16t-18.5 -24.5t-7 -32q0 -20 9 -36t23.5 -27t33 -17t37.5 -6q18 0 37.5 6t35.5 17.5t26 28.5t10 38v106q0 28 -11 49.5t-29 36t-41.5 21.5t-47.5 7t-47 -7.5t-41 -22t-29 -35.5t-11 -49q0 -11 -6.5 -16.5t-14.5 -5.5t-14.5 5.5t-6.5 16.5
q0 37 14.5 66.5t38.5 49t54.5 30t63.5 10.5q32 0 62.5 -10.5t54.5 -31t38.5 -49.5t14.5 -65v-214zM204 -131q0 -10 8 -17t19 -7t19 7t8 17t-8 16.5t-19 6.5t-19 -6.5t-8 -16.5zM144 500q1 -4 6.5 -12t13.5 -16t14.5 -10.5t22.5 -3.5q13 0 24.5 3t21.5 13t12 14l6 12h31
q-7 -15 -15 -27t-21 -24t-31 -16t-32 -4q-19 0 -33 6.5t-22.5 17t-15 22.5t-12.5 25h30z" />
    <glyph glyph-name="uni1EB8" unicode="&#x1eb8;" horiz-adv-x="413" 
d="M91 0q-24 0 -41.5 17t-17.5 41v587q0 24 17.5 41t41.5 17h179q11 0 17 -6.5t6 -14.5t-6 -14.5t-17 -6.5h-179q-7 0 -12 -4.5t-5 -11.5v-328h236q11 0 17 -6.5t6 -14.5t-6 -14.5t-17 -6.5h-236v-217q0 -7 5 -11.5t12 -4.5h268q11 0 16.5 -6.5t5.5 -14.5t-5.5 -14.5
t-16.5 -6.5h-268zM187 -140q0 -11 8 -18.5t19 -7.5t19 7.5t8 18.5q0 10 -8 17.5t-19 7.5t-19 -7.5t-8 -17.5z" />
    <glyph glyph-name="uni1EB9" unicode="&#x1eb9;" horiz-adv-x="474" 
d="M441 158q-8 -36 -27 -65t-46 -49.5t-60.5 -32t-68.5 -11.5q-41 0 -78.5 15t-66 41t-45.5 62t-17 78t17 78t45.5 62t66 41t78.5 15q34 0 64.5 -8t53 -21.5t36 -31t13.5 -36.5q0 -15 -10.5 -25t-26.5 -10h-202q-11 0 -17 6t-6 14t6 14.5t17 6.5h191q-17 25 -51 37t-68 12
q-32 0 -62 -11.5t-53 -32t-36.5 -49t-13.5 -61.5t13.5 -61.5t36.5 -49t53 -32t62 -11.5q28 0 54 9t48 25t37.5 39t21.5 51q2 10 8 14t13 4q8 0 14.5 -5t6.5 -15q0 -2 -0.5 -3.5t-0.5 -2.5zM204 -130q0 -10 8 -17t19 -7t19 7t8 17t-8 16.5t-19 6.5t-19 -6.5t-8 -16.5z" />
    <glyph glyph-name="uni1EBA" unicode="&#x1eba;" horiz-adv-x="413" 
d="M91 0q-24 0 -41.5 17t-17.5 41v587q0 24 17.5 41t41.5 17h179q11 0 17 -6.5t6 -14.5t-6 -14.5t-17 -6.5h-179q-7 0 -12 -4.5t-5 -11.5v-328h236q11 0 17 -6.5t6 -14.5t-6 -14.5t-17 -6.5h-236v-217q0 -7 5 -11.5t12 -4.5h268q11 0 16.5 -6.5t5.5 -14.5t-5.5 -14.5
t-16.5 -6.5h-268zM156 810q-4 1 -4 8.5t2 15.5t3.5 15t4.5 10q2 4 6 9t7 9q9 8 22 11.5t24.5 1t21.5 -9.5t17 -21q3 -7 4.5 -16.5t-0.5 -20.5t-6.5 -19t-12.5 -13q-9 -7 -17 -11.5t-16 -11.5l-5 -7.5t-6.5 -9t-8 -6.5t-8.5 -1q-5 2 -5 7t2 12.5t6.5 13.5t8.5 8
q7 7 15.5 12.5t14.5 11.5t8 14.5t-1 20.5q-2 3 -4.5 8t-6.5 8q-2 1 -8 2.5t-9 0.5q-9 0 -14 -5t-7.5 -11.5t-3 -13.5t-1 -13.5t-3.5 -10t-11 -1.5l-4.5 0.5t-4.5 2.5z" />
    <glyph glyph-name="uni1EBB" unicode="&#x1ebb;" horiz-adv-x="474" 
d="M441 158q-8 -36 -27 -65t-46 -49.5t-60 -32t-69 -11.5q-41 0 -78.5 15t-66 41t-45.5 62t-17 78t17 78t45.5 62t66 41t78.5 15q34 0 64.5 -8t53 -21.5t36 -31t13.5 -36.5q0 -15 -10.5 -25t-26.5 -10h-202q-11 0 -17 6t-6 14t6 14.5t17 6.5h191q-17 25 -51 37t-68 12
q-32 0 -62 -11.5t-53 -32t-36.5 -49t-13.5 -61.5t13.5 -61.5t36.5 -49t53 -32t62 -11.5q28 0 54 9t48 25t37.5 39t21.5 51q2 10 8 14t13 4q8 0 14.5 -5t6.5 -15q0 -2 -0.5 -3.5t-0.5 -2.5zM227 528q-4 1 -4 8.5t1.5 15.5t4 15.5t4.5 9.5q5 10 13 18q10 9 22.5 12t24.5 1
t22 -9.5t16 -20.5q8 -16 4.5 -37.5t-18.5 -32.5q-8 -7 -16.5 -11t-16.5 -11q-5 -7 -12.5 -17t-15.5 -8q-6 1 -6 7t2.5 13t6.5 13.5t8 8.5q8 7 16 12.5t14 11t8.5 13.5t-0.5 22q-3 3 -5.5 7.5t-5.5 8.5q-3 1 -8.5 2.5t-8.5 0.5q-15 0 -19.5 -9.5t-6 -20.5t-3.5 -19.5
t-12 -6.5q-2 0 -4 1z" />
    <glyph glyph-name="uni1EBC" unicode="&#x1ebc;" horiz-adv-x="413" 
d="M91 0q-24 0 -41.5 17t-17.5 41v587q0 24 17.5 41t41.5 17h179q11 0 17 -6.5t6 -14.5t-6 -14.5t-17 -6.5h-179q-7 0 -12 -4.5t-5 -11.5v-328h236q11 0 17 -6.5t6 -14.5t-6 -14.5t-17 -6.5h-236v-217q0 -7 5 -11.5t12 -4.5h268q11 0 16.5 -6.5t5.5 -14.5t-5.5 -14.5
t-16.5 -6.5h-268zM328 759q-20 -23 -53 -23q-14 0 -27 5.5t-25 12t-24 12t-27 5.5q-10 0 -16 -4.5t-10.5 -10.5t-9.5 -11t-12 -5t-13.5 5t-6.5 13q0 11 6.5 20t16.5 15.5t22 10.5t23 4q16 0 30.5 -5.5t27 -12.5t24 -12.5t22.5 -5.5q6 0 11 2.5t9 6t8.5 6.5t9.5 3
q8 0 14 -5.5t6 -12.5t-6 -13z" />
    <glyph glyph-name="uni1EBD" unicode="&#x1ebd;" horiz-adv-x="474" 
d="M441 158q-8 -36 -27 -65t-46 -49.5t-60.5 -32t-68.5 -11.5q-41 0 -78.5 15t-66 41t-45.5 62t-17 78t17 78t45.5 62t66 41t78.5 15q34 0 64.5 -8t53 -21.5t36 -31t13.5 -36.5q0 -15 -10.5 -25t-26.5 -10h-202q-11 0 -17 6t-6 14t6 14.5t17 6.5h191q-17 25 -51 37t-68 12
q-32 0 -62 -11.5t-53 -32t-36.5 -49t-13.5 -61.5t13.5 -61.5t36.5 -49t53 -32t62 -11.5q28 0 54 9t48 25t37.5 39t21.5 51q2 10 8 14t13 4q8 0 14.5 -5t6.5 -15q0 -2 -0.5 -3.5t-0.5 -2.5zM346 504q-20 -22 -53 -22q-15 0 -28 5t-25.5 11.5t-24.5 12.5t-27 6q-11 0 -16.5 -5
t-10.5 -10.5t-10 -10.5t-12 -5t-13.5 5t-6.5 13q0 10 6.5 19t16.5 15.5t22.5 10.5t23.5 4q16 0 30.5 -5.5t27 -12t24.5 -12.5t23 -6q6 0 11 3t9.5 6.5t9 6t9.5 2.5q7 0 13.5 -5.5t6.5 -12.5q0 -6 -6 -13z" />
    <glyph glyph-name="uni1EBE" unicode="&#x1ebe;" horiz-adv-x="413" 
d="M142 855q-2 -1 -6 -1q-10 0 -15.5 6.5t-5.5 14.5q0 7 4 13t13 8l173 41q2 1 6 1q10 0 15.5 -6.5t5.5 -14.5q0 -6 -4 -12t-13 -8zM298 764q13 -7 13 -19q0 -8 -6 -14.5t-15 -6.5q-5 0 -11 3l-72 37l-73 -37q-6 -3 -11 -3q-9 0 -15 6.5t-6 14.5q0 12 13 19l82 42q4 2 10 2
q5 0 9 -2zM91 0q-24 0 -41.5 17t-17.5 41v587q0 24 17.5 41t41.5 17h179q11 0 17 -6.5t6 -14.5t-6 -14.5t-17 -6.5h-179q-7 0 -12 -4.5t-5 -11.5v-328h236q11 0 17 -6.5t6 -14.5t-6 -14.5t-17 -6.5h-236v-217q0 -7 5 -11.5t12 -4.5h268q11 0 16.5 -6.5t5.5 -14.5t-5.5 -14.5
t-16.5 -6.5h-268z" />
    <glyph glyph-name="uni1EBF" unicode="&#x1ebf;" horiz-adv-x="474" 
d="M441 158q-8 -36 -27 -65t-46 -49.5t-60.5 -32t-68.5 -11.5q-41 0 -78.5 15t-66 41t-45.5 62t-17 78t17 78t45.5 62t66 41t78.5 15q34 0 64.5 -8t53 -21.5t36 -31t13.5 -36.5q0 -15 -10.5 -25t-26.5 -10h-202q-11 0 -17 6t-6 14t6 14.5t17 6.5h191q-17 25 -51 37t-68 12
q-32 0 -62 -11.5t-53 -32t-36.5 -49t-13.5 -61.5t13.5 -61.5t36.5 -49t53 -32t62 -11.5q28 0 54 9t48 25t37.5 39t21.5 51q2 10 8 14t13 4q8 0 14.5 -5t6.5 -15q0 -2 -0.5 -3.5t-0.5 -2.5zM330 461q13 -7 13 -19q0 -8 -6 -14.5t-15 -6.5q-5 0 -11 3l-72 37l-73 -37
q-6 -3 -11 -3q-9 0 -15 6.5t-6 14.5q0 12 13 19l82 42q4 2 10 2q5 0 9 -2zM185 545q-2 -1 -6 -1q-10 0 -15.5 6.5t-5.5 14.5q0 7 4 13t13 8l173 41q2 1 6 1q10 0 15.5 -6.5t5.5 -14.5q0 -6 -4 -12t-13 -8z" />
    <glyph glyph-name="uni1EC0" unicode="&#x1ec0;" horiz-adv-x="413" 
d="M91 0q-24 0 -41.5 17t-17.5 41v587q0 24 17.5 41t41.5 17h179q11 0 17 -6.5t6 -14.5t-6 -14.5t-17 -6.5h-179q-7 0 -12 -4.5t-5 -11.5v-328h236q11 0 17 -6.5t6 -14.5t-6 -14.5t-17 -6.5h-236v-217q0 -7 5 -11.5t12 -4.5h268q11 0 16.5 -6.5t5.5 -14.5t-5.5 -14.5
t-16.5 -6.5h-268zM298 764q13 -7 13 -19q0 -8 -6 -14.5t-15 -6.5q-5 0 -11 3l-72 37l-73 -37q-6 -3 -11 -3q-9 0 -15 6.5t-6 14.5q0 12 13 19l82 42q4 2 10 2q5 0 9 -2zM293 894q9 -2 13 -8t4 -13q0 -8 -5.5 -14.5t-15.5 -6.5q-4 0 -6 1l-173 42q-9 2 -13 8t-4 12
q0 8 5.5 14.5t15.5 6.5q4 0 6 -1z" />
    <glyph glyph-name="uni1EC1" unicode="&#x1ec1;" horiz-adv-x="474" 
d="M441 158q-8 -36 -27 -65t-46 -49.5t-60.5 -32t-68.5 -11.5q-41 0 -78.5 15t-66 41t-45.5 62t-17 78t17 78t45.5 62t66 41t78.5 15q34 0 64.5 -8t53 -21.5t36 -31t13.5 -36.5q0 -15 -10.5 -25t-26.5 -10h-202q-11 0 -17 6t-6 14t6 14.5t17 6.5h191q-17 25 -51 37t-68 12
q-32 0 -62 -11.5t-53 -32t-36.5 -49t-13.5 -61.5t13.5 -61.5t36.5 -49t53 -32t62 -11.5q28 0 54 9t48 25t37.5 39t21.5 51q2 10 8 14t13 4q8 0 14.5 -5t6.5 -15q0 -2 -0.5 -3.5t-0.5 -2.5zM328 454q13 -7 13 -19q0 -8 -6 -14.5t-15 -6.5q-5 0 -11 3l-72 37l-73 -37
q-6 -3 -11 -3q-9 0 -15 6.5t-6 14.5q0 12 13 19l82 42q4 2 10 2q5 0 9 -2zM340 581q9 -2 13 -8t4 -13q0 -8 -5.5 -14.5t-15.5 -6.5q-4 0 -6 1l-173 42q-9 2 -13 8t-4 12q0 8 5.5 14.5t15.5 6.5q4 0 6 -1z" />
    <glyph glyph-name="uni1EC2" unicode="&#x1ec2;" horiz-adv-x="413" 
d="M91 0q-24 0 -41.5 17t-17.5 41v587q0 24 17.5 41t41.5 17h179q11 0 17 -6.5t6 -14.5t-6 -14.5t-17 -6.5h-179q-7 0 -12 -4.5t-5 -11.5v-328h236q11 0 17 -6.5t6 -14.5t-6 -14.5t-17 -6.5h-236v-217q0 -7 5 -11.5t12 -4.5h268q11 0 16.5 -6.5t5.5 -14.5t-5.5 -14.5
t-16.5 -6.5h-268zM298 764q13 -7 13 -19q0 -8 -6 -14.5t-15 -6.5q-5 0 -11 3l-72 37l-73 -37q-6 -3 -11 -3q-9 0 -15 6.5t-6 14.5q0 12 13 19l82 42q6 2 10 2q3 0 9 -2zM233 874q-4 1 -4 8t1.5 15.5t4 16t4.5 9.5q2 4 6 9t7 9q20 17 46 12.5t39 -30.5q6 -15 3.5 -37
t-18.5 -32q-9 -7 -17 -11.5t-16 -11.5q-5 -6 -12 -16t-16 -8q-4 2 -4.5 7.5t2 12.5t6 13t8.5 8q7 7 15 12.5t14 11.5t8.5 14t-0.5 21q-2 3 -4.5 8t-6.5 8q-2 1 -8 2.5t-9 0.5q-15 0 -19 -9.5t-5 -20.5t-3 -19.5t-13 -5.5h-5q-4 0 -4 3z" />
    <glyph glyph-name="uni1EC3" unicode="&#x1ec3;" horiz-adv-x="474" 
d="M441 158q-8 -36 -27 -65t-46 -49.5t-60 -32t-69 -11.5q-41 0 -78.5 15t-66 41t-45.5 62t-17 78t17 78t45.5 62t66 41t78.5 15q34 0 64.5 -8t53 -21.5t36 -31t13.5 -36.5q0 -15 -10.5 -25t-26.5 -10h-202q-11 0 -17 6t-6 14t6 14.5t17 6.5h191q-17 25 -51 37t-68 12
q-32 0 -62 -11.5t-53 -32t-36.5 -49t-13.5 -61.5t13.5 -61.5t36.5 -49t53 -32t62 -11.5q28 0 54 9t48 25t37.5 39t21.5 51q2 10 8 14t13 4q8 0 14.5 -5t6.5 -15q0 -2 -0.5 -3.5t-0.5 -2.5zM328 454q13 -7 13 -19q0 -8 -6 -14.5t-15 -6.5q-5 0 -11 3l-72 37l-73 -37
q-6 -3 -11 -3q-9 0 -15 6.5t-6 14.5q0 12 13 19l82 42q6 2 10 2q3 0 9 -2zM267 560q-4 1 -4 8.5t1.5 15.5t4 15.5t4.5 9.5q5 10 13 18q10 9 22.5 12t24.5 1t22 -9.5t16 -20.5q8 -16 4.5 -37.5t-18.5 -32.5q-8 -7 -16.5 -11t-16.5 -11q-5 -7 -12.5 -17t-15.5 -8q-6 1 -6 7
t2.5 13t6.5 13.5t8 8.5q8 7 16 12.5t14 11t8.5 13.5t-0.5 22q-3 3 -5.5 7.5t-5.5 8.5q-3 1 -8.5 2.5t-8.5 0.5q-15 0 -19.5 -9.5t-6 -20.5t-3.5 -19.5t-12 -6.5q-2 0 -4 1z" />
    <glyph glyph-name="uni1EC4" unicode="&#x1ec4;" horiz-adv-x="413" 
d="M91 0q-24 0 -41.5 17t-17.5 41v587q0 24 17.5 41t41.5 17h179q11 0 17 -6.5t6 -14.5t-6 -14.5t-17 -6.5h-179q-7 0 -12 -4.5t-5 -11.5v-328h236q11 0 17 -6.5t6 -14.5t-6 -14.5t-17 -6.5h-236v-217q0 -7 5 -11.5t12 -4.5h268q11 0 16.5 -6.5t5.5 -14.5t-5.5 -14.5
t-16.5 -6.5h-268zM298 764q13 -7 13 -19q0 -8 -6 -14.5t-15 -6.5q-5 0 -11 3l-72 37l-73 -37q-6 -3 -11 -3q-9 0 -15 6.5t-6 14.5q0 12 13 19l82 42q4 2 10 2q5 0 9 -2zM320 869q-20 -21 -53 -21q-15 0 -28 5t-25 11t-24.5 11.5t-26.5 5.5q-11 0 -16.5 -4.5t-10.5 -10
t-10 -10t-12 -4.5t-13.5 4.5t-6.5 11.5q0 10 6.5 18.5t16.5 15t22 10t24 3.5q15 0 30 -5.5t27.5 -11.5t24 -11.5t23.5 -5.5q6 0 10.5 2.5t9 6t9 6t9.5 2.5q7 0 13.5 -5t6.5 -12q0 -6 -6 -12z" />
    <glyph glyph-name="uni1EC5" unicode="&#x1ec5;" horiz-adv-x="474" 
d="M441 158q-8 -36 -27 -65t-46 -49.5t-60.5 -32t-68.5 -11.5q-41 0 -78.5 15t-66 41t-45.5 62t-17 78t17 78t45.5 62t66 41t78.5 15q34 0 64.5 -8t53 -21.5t36 -31t13.5 -36.5q0 -15 -10.5 -25t-26.5 -10h-202q-11 0 -17 6t-6 14t6 14.5t17 6.5h191q-17 25 -51 37t-68 12
q-32 0 -62 -11.5t-53 -32t-36.5 -49t-13.5 -61.5t13.5 -61.5t36.5 -49t53 -32t62 -11.5q28 0 54 9t48 25t37.5 39t21.5 51q2 10 8 14t13 4q8 0 14.5 -5t6.5 -15q0 -2 -0.5 -3.5t-0.5 -2.5zM328 454q13 -7 13 -19q0 -8 -6 -14.5t-15 -6.5q-5 0 -11 3l-72 37l-73 -37
q-6 -3 -11 -3q-9 0 -15 6.5t-6 14.5q0 12 13 19l82 42q4 2 10 2q5 0 9 -2zM359 564q-21 -23 -56 -23q-15 0 -28.5 5.5t-26 12t-25 12t-27.5 5.5q-11 0 -17.5 -5t-11.5 -10.5t-10 -10.5t-12 -5q-8 0 -14.5 5t-6.5 13q0 10 6.5 19.5t17 16t23 10.5t25.5 4q16 0 31 -5.5
t28 -12.5t25 -12.5t25 -5.5q6 0 11 2.5t9.5 6t9 6.5t9.5 3q8 0 14.5 -5.5t6.5 -12.5t-6 -13z" />
    <glyph glyph-name="uni1EC6" unicode="&#x1ec6;" horiz-adv-x="413" 
d="M91 0q-24 0 -41.5 17t-17.5 41v587q0 24 17.5 41t41.5 17h179q11 0 17 -6.5t6 -14.5t-6 -14.5t-17 -6.5h-179q-7 0 -12 -4.5t-5 -11.5v-328h236q11 0 17 -6.5t6 -14.5t-6 -14.5t-17 -6.5h-236v-217q0 -7 5 -11.5t12 -4.5h268q11 0 16.5 -6.5t5.5 -14.5t-5.5 -14.5
t-16.5 -6.5h-268zM187 -140q0 -11 8 -18.5t19 -7.5t19 7.5t8 18.5q0 10 -8 17.5t-19 7.5t-19 -7.5t-8 -17.5zM298 764q13 -7 13 -19q0 -8 -6 -14.5t-15 -6.5q-5 0 -11 3l-72 37l-73 -37q-6 -3 -11 -3q-9 0 -15 6.5t-6 14.5q0 12 13 19l82 42q4 2 10 2q5 0 9 -2z" />
    <glyph glyph-name="uni1EC7" unicode="&#x1ec7;" horiz-adv-x="474" 
d="M441 158q-8 -36 -27 -65t-46 -49.5t-60.5 -32t-68.5 -11.5q-41 0 -78.5 15t-66 41t-45.5 62t-17 78t17 78t45.5 62t66 41t78.5 15q34 0 64.5 -8t53 -21.5t36 -31t13.5 -36.5q0 -15 -10.5 -25t-26.5 -10h-202q-11 0 -17 6t-6 14t6 14.5t17 6.5h191q-17 25 -51 37t-68 12
q-32 0 -62 -11.5t-53 -32t-36.5 -49t-13.5 -61.5t13.5 -61.5t36.5 -49t53 -32t62 -11.5q28 0 54 9t48 25t37.5 39t21.5 51q2 10 8 14t13 4q8 0 14.5 -5t6.5 -15q0 -2 -0.5 -3.5t-0.5 -2.5zM204 -130q0 -10 8 -17t19 -7t19 7t8 17t-8 16.5t-19 6.5t-19 -6.5t-8 -16.5z
M328 454q13 -7 13 -19q0 -8 -6 -14.5t-15 -6.5q-5 0 -11 3l-72 37l-73 -37q-6 -3 -11 -3q-9 0 -15 6.5t-6 14.5q0 12 13 19l82 42q4 2 10 2q5 0 9 -2z" />
    <glyph glyph-name="uni1EC8" unicode="&#x1ec8;" horiz-adv-x="106" 
d="M74 21q0 -11 -6.5 -17t-14.5 -6t-14.5 6t-6.5 17v661q0 11 6.5 17t14.5 6t14.5 -6t6.5 -17v-661zM20 815q-4 1 -4 9.5t2 16.5t4 15.5t4 10.5q3 5 7 10t8 9q10 9 23.5 13t26 1.5t23.5 -10.5t18 -22q4 -8 5 -18t-1 -22t-6.5 -20.5t-13.5 -14.5q-9 -7 -18 -11.5t-17 -12.5
q-3 -4 -6 -8.5t-7 -9t-8.5 -7t-8.5 -1.5q-6 2 -6 7.5t2.5 13.5t7 14.5t8.5 9.5q8 7 17 13t15.5 12t9 15t-1.5 23q-2 3 -5 8t-7 9q-2 1 -8 2.5t-10 0.5q-10 0 -15.5 -5.5t-8 -12.5t-3 -15t-1 -14.5t-4 -10t-11.5 -2.5l-4.5 1.5t-5.5 2.5z" />
    <glyph glyph-name="uni1EC9" unicode="&#x1ec9;" horiz-adv-x="130" 
d="M86 39q12 -8 12 -19q0 -8 -5.5 -14t-14.5 -6q-6 0 -12 3q-16 8 -25 23.5t-9 33.5v311q0 11 6.5 17t14.5 6t14.5 -6t6.5 -17v-311q0 -15 12 -21zM16 536q-4 1 -4 8.5t1.5 15.5t4 15.5t4.5 9.5q5 10 13 18q10 9 22.5 12t24.5 1t22 -9.5t16 -20.5q8 -16 4.5 -37.5
t-18.5 -32.5q-8 -7 -16.5 -11t-16.5 -11q-5 -7 -12.5 -17t-15.5 -8q-6 1 -6 7t2.5 13t6.5 13.5t8 8.5q8 7 16 12.5t14 11t8.5 13.5t-0.5 22q-3 3 -5.5 7.5t-5.5 8.5q-3 1 -8.5 2.5t-8.5 0.5q-15 0 -19.5 -9.5t-6 -20.5t-3.5 -19.5t-12 -6.5q-2 0 -4 1z" />
    <glyph glyph-name="uni1ECA" unicode="&#x1eca;" horiz-adv-x="106" 
d="M74 21q0 -11 -6.5 -17t-14.5 -6t-14.5 6t-6.5 17v661q0 11 6.5 17t14.5 6t14.5 -6t6.5 -17v-661zM27 -142q0 -11 8 -18.5t19 -7.5t19 7.5t8 18.5q0 10 -8 17.5t-19 7.5t-19 -7.5t-8 -17.5z" />
    <glyph glyph-name="uni1ECB" unicode="&#x1ecb;" horiz-adv-x="130" 
d="M86 39q12 -7 12 -19q0 -8 -5.5 -14t-14.5 -6q-6 0 -12 3q-16 8 -25 23.5t-9 33.5v311q0 11 6.5 17t14.5 6t14.5 -6t6.5 -17v-311q0 -15 12 -21zM74 499q0 -11 -6.5 -17t-14.5 -6t-14.5 6t-6.5 17v116q0 11 6.5 16.5t14.5 5.5t14.5 -5.5t6.5 -16.5v-116zM42 -129
q0 -10 8 -17t19 -7t19 7t8 17t-8 16.5t-19 6.5t-19 -6.5t-8 -16.5z" />
    <glyph glyph-name="uni1ECC" unicode="&#x1ecc;" horiz-adv-x="836" 
d="M759 353q0 71 -28.5 128.5t-76 98t-109.5 62.5t-129 22q-66 0 -128 -22t-110 -62.5t-76.5 -98t-28.5 -128.5t28.5 -128.5t76.5 -98t110 -62.5t128 -22t128 22t110 62.5t76.5 98t28.5 128.5zM801 353q0 -76 -31.5 -140.5t-84.5 -112t-123 -74t-146 -26.5q-72 0 -141 25.5
t-123 72t-87 111.5t-33 145q0 76 31.5 140.5t84.5 111.5t122.5 73.5t145.5 26.5q72 0 141.5 -25.5t123.5 -71.5t87 -111.5t33 -144.5zM398 -141q0 -11 8 -18.5t19 -7.5t19 7.5t8 18.5q0 10 -8 17.5t-19 7.5t-19 -7.5t-8 -17.5z" />
    <glyph glyph-name="uni1ECD" unicode="&#x1ecd;" 
d="M395 196q0 33 -13 61t-35 48.5t-51.5 32.5t-61.5 12t-61 -12t-51 -32.5t-35 -48.5t-13 -61t13 -61t35 -48.5t51 -32.5t61 -12t61.5 11.5t51.5 32.5t35 49t13 61zM436 196q0 -41 -16 -77t-44 -62.5t-64.5 -41.5t-77.5 -15t-77.5 15t-64 41.5t-44 62.5t-16.5 77t16 77
t44 62.5t64.5 41.5t77.5 15q40 0 77 -15t64.5 -41.5t44 -62.5t16.5 -77zM205 -131q0 -10 8 -17t19 -7t19 7t8 17t-8 16.5t-19 6.5t-19 -6.5t-8 -16.5z" />
    <glyph glyph-name="uni1ECE" unicode="&#x1ece;" horiz-adv-x="833" 
d="M759 353q0 71 -28.5 128.5t-76 98t-109.5 62.5t-129 22q-66 0 -128 -22t-110 -62.5t-76.5 -98t-28.5 -128.5t28.5 -128.5t76.5 -98t110 -62.5t128 -22t128 22t110 62.5t76.5 98t28.5 128.5zM801 353q0 -76 -31.5 -140.5t-84.5 -112t-123 -74t-146 -26.5q-72 0 -141 25.5
t-123 72t-87 111.5t-33 145q0 76 31.5 140.5t84.5 111.5t122.5 73.5t145.5 26.5q72 0 141.5 -25.5t123.5 -71.5t87 -111.5t33 -144.5zM397 818q-4 1 -4 9.5t2 16.5t4 15.5t4 10.5q3 5 7 10t8 9q10 9 23.5 13t26 1.5t23.5 -10.5t18 -22q4 -8 5 -18t-1 -22t-6.5 -20.5
t-13.5 -14.5q-9 -7 -18 -11.5t-17 -12.5q-3 -4 -6 -8.5t-7 -9t-8.5 -7t-8.5 -1.5q-6 2 -6 7.5t2.5 13.5t7 14.5t8.5 9.5q8 7 17 13t15.5 12t9 15t-1.5 23q-2 3 -5 8t-7 9q-2 1 -8 2.5t-10 0.5q-10 0 -15.5 -5.5t-8 -12.5t-3 -15t-1 -14.5t-4 -10t-11.5 -2.5l-4.5 1.5
t-5.5 2.5z" />
    <glyph glyph-name="uni1ECF" unicode="&#x1ecf;" 
d="M395 196q0 33 -13 61t-35 48.5t-51.5 32.5t-61.5 12t-61 -12t-51 -32.5t-35 -48.5t-13 -61t13 -61t35 -48.5t51 -32.5t61 -12t61.5 11.5t51.5 32.5t35 49t13 61zM436 196q0 -41 -16 -77t-44 -62.5t-64.5 -41.5t-77.5 -15t-77.5 15t-64 41.5t-44 62.5t-16.5 77t16 77
t44 62.5t64.5 41.5t77.5 15q40 0 77 -15t64.5 -41.5t44 -62.5t16.5 -77zM209 528q-4 1 -4 8.5t1.5 15.5t4 15.5t4.5 9.5q5 10 13 18q10 9 22.5 12t24.5 1t22 -9.5t16 -20.5q8 -16 4.5 -37.5t-18.5 -32.5q-8 -7 -16.5 -11t-16.5 -11q-5 -7 -12.5 -17t-15.5 -8q-6 1 -6 7
t2.5 13t6.5 13.5t8 8.5q8 7 16 12.5t14 11t8.5 13.5t-0.5 22q-3 3 -5.5 7.5t-5.5 8.5q-3 1 -8.5 2.5t-8.5 0.5q-15 0 -19.5 -9.5t-6 -20.5t-3.5 -19.5t-12 -6.5q-2 0 -4 1z" />
    <glyph glyph-name="uni1ED0" unicode="&#x1ed0;" horiz-adv-x="833" 
d="M759 353q0 71 -28.5 128.5t-76 98t-109.5 62.5t-129 22q-66 0 -128 -22t-110 -62.5t-76.5 -98t-28.5 -128.5t28.5 -128.5t76.5 -98t110 -62.5t128 -22t128 22t110 62.5t76.5 98t28.5 128.5zM801 353q0 -76 -31.5 -140.5t-84.5 -112t-123 -74t-146 -26.5q-72 0 -141 25.5
t-123 72t-87 111.5t-33 145q0 76 31.5 140.5t84.5 111.5t122.5 73.5t145.5 26.5q72 0 141.5 -25.5t123.5 -71.5t87 -111.5t33 -144.5zM540 766q15 -8 15 -21q0 -8 -7 -15t-18 -7q-6 0 -13 3l-84 40l-86 -40q-7 -3 -13 -3q-11 0 -18 7t-7 15q0 13 15 21l97 45q5 2 12 2
q5 0 10 -2zM395 852q-2 -1 -6 -1q-10 0 -15.5 6.5t-5.5 14.5q0 7 4 13t13 8l173 41q2 1 6 1q10 0 15.5 -6.5t5.5 -14.5q0 -6 -4 -12t-13 -8z" />
    <glyph glyph-name="uni1ED1" unicode="&#x1ed1;" 
d="M395 196q0 33 -13 61t-35 48.5t-51.5 32.5t-61.5 12t-61 -12t-51 -32.5t-35 -48.5t-13 -61t13 -61t35 -48.5t51 -32.5t61 -12t61.5 11.5t51.5 32.5t35 49t13 61zM436 196q0 -41 -16 -77t-44 -62.5t-64.5 -41.5t-77.5 -15t-77.5 15t-64 41.5t-44 62.5t-16.5 77t16 77
t44 62.5t64.5 41.5t77.5 15q40 0 77 -15t64.5 -41.5t44 -62.5t16.5 -77zM325 454q13 -7 13 -19q0 -8 -6 -14.5t-15 -6.5q-5 0 -11 3l-72 37l-73 -37q-6 -3 -11 -3q-9 0 -15 6.5t-6 14.5q0 12 13 19l82 42q4 2 10 2q5 0 9 -2zM186 537q-2 -1 -6 -1q-10 0 -15.5 6.5t-5.5 14.5
q0 7 4 13t13 8l173 41q2 1 6 1q10 0 15.5 -6.5t5.5 -14.5q0 -6 -4 -12t-13 -8z" />
    <glyph glyph-name="uni1ED2" unicode="&#x1ed2;" horiz-adv-x="833" 
d="M759 353q0 71 -28.5 128.5t-76 98t-109.5 62.5t-129 22q-66 0 -128 -22t-110 -62.5t-76.5 -98t-28.5 -128.5t28.5 -128.5t76.5 -98t110 -62.5t128 -22t128 22t110 62.5t76.5 98t28.5 128.5zM801 353q0 -76 -31.5 -140.5t-84.5 -112t-123 -74t-146 -26.5q-72 0 -141 25.5
t-123 72t-87 111.5t-33 145q0 76 31.5 140.5t84.5 111.5t122.5 73.5t145.5 26.5q72 0 141.5 -25.5t123.5 -71.5t87 -111.5t33 -144.5zM539 769q16 -7 16 -19q0 -9 -7 -15.5t-18 -6.5q-6 0 -13 3l-87 38l-88 -38q-7 -3 -13 -3q-11 0 -18 6.5t-7 15.5q0 12 16 19l98 44
q5 2 12 2q6 0 11 -2zM496 893q9 -2 13 -8t4 -13q0 -8 -5.5 -14.5t-15.5 -6.5q-4 0 -6 1l-173 42q-9 2 -13 8t-4 12q0 8 5.5 14.5t15.5 6.5q4 0 6 -1z" />
    <glyph glyph-name="uni1ED3" unicode="&#x1ed3;" 
d="M395 196q0 33 -13 61t-35 48.5t-51.5 32.5t-61.5 12t-61 -12t-51 -32.5t-35 -48.5t-13 -61t13 -61t35 -48.5t51 -32.5t61 -12t61.5 11.5t51.5 32.5t35 49t13 61zM436 196q0 -41 -16 -77t-44 -62.5t-64.5 -41.5t-77.5 -15t-77.5 15t-64 41.5t-44 62.5t-16.5 77t16 77
t44 62.5t64.5 41.5t77.5 15q40 0 77 -15t64.5 -41.5t44 -62.5t16.5 -77zM325 454q13 -7 13 -19q0 -8 -6 -14.5t-15 -6.5q-5 0 -11 3l-72 37l-73 -37q-6 -3 -11 -3q-9 0 -15 6.5t-6 14.5q0 12 13 19l82 42q4 2 10 2q5 0 9 -2zM333 578q9 -2 13 -8t4 -13q0 -8 -5.5 -14.5
t-15.5 -6.5q-4 0 -6 1l-173 42q-9 2 -13 8t-4 12q0 8 5.5 14.5t15.5 6.5q4 0 6 -1z" />
    <glyph glyph-name="uni1ED4" unicode="&#x1ed4;" horiz-adv-x="834" 
d="M759 353q0 71 -28.5 128.5t-76 98t-109.5 62.5t-129 22q-66 0 -128 -22t-110 -62.5t-76.5 -98t-28.5 -128.5t28.5 -128.5t76.5 -98t110 -62.5t128 -22t128 22t110 62.5t76.5 98t28.5 128.5zM801 353q0 -76 -31.5 -140.5t-84.5 -112t-123 -74t-146 -26.5q-72 0 -141 25.5
t-123 72t-87 111.5t-33 145q0 76 31.5 140.5t84.5 111.5t122.5 73.5t145.5 26.5q72 0 141.5 -25.5t123.5 -71.5t87 -111.5t33 -144.5zM527 761q15 -8 15 -19q0 -9 -7 -15.5t-17 -6.5q-6 0 -13 3l-83 38l-84 -38q-8 -3 -13 -3q-10 0 -17 6.5t-7 15.5q0 11 15 19l95 44
q6 2 11 2q4 0 10 -2zM455 874q-4 1 -4 8t1.5 15.5t4 16t4.5 9.5q2 4 6 9t7 9q20 17 46 12.5t39 -30.5q6 -15 3.5 -37t-18.5 -32q-9 -7 -17 -11.5t-16 -11.5q-5 -6 -12 -16t-16 -8q-4 2 -4.5 7.5t2 12.5t6 13t8.5 8q7 7 15 12.5t14 11.5t8.5 14t-0.5 21q-2 3 -4.5 8t-6.5 8
q-2 1 -8 2.5t-9 0.5q-15 0 -19 -9.5t-5 -20.5t-3 -19.5t-13 -5.5h-5q-4 0 -4 3z" />
    <glyph glyph-name="uni1ED5" unicode="&#x1ed5;" 
d="M395 196q0 33 -13 61t-35 48.5t-51.5 32.5t-61.5 12t-61 -12t-51 -32.5t-35 -48.5t-13 -61t13 -61t35 -48.5t51 -32.5t61 -12t61.5 11.5t51.5 32.5t35 49t13 61zM436 196q0 -41 -16 -77t-44 -62.5t-64.5 -41.5t-77.5 -15t-77.5 15t-64 41.5t-44 62.5t-16.5 77t16 77
t44 62.5t64.5 41.5t77.5 15q40 0 77 -15t64.5 -41.5t44 -62.5t16.5 -77zM325 454q13 -7 13 -19q0 -8 -6 -14.5t-15 -6.5q-5 0 -11 3l-72 37l-73 -37q-6 -3 -11 -3q-9 0 -15 6.5t-6 14.5q0 12 13 19l82 42q6 2 10 2q3 0 9 -2zM266 561q-4 1 -4 8.5t1.5 15.5t4 15.5t4.5 9.5
q5 10 13 18q10 9 22.5 12t24.5 1t22 -9.5t16 -20.5q8 -16 4.5 -37.5t-18.5 -32.5q-8 -7 -16.5 -11t-16.5 -11q-5 -7 -12.5 -17t-15.5 -8q-6 1 -6 7t2.5 13t6.5 13.5t8 8.5q8 7 16 12.5t14 11t8.5 13.5t-0.5 22q-3 3 -5.5 7.5t-5.5 8.5q-3 1 -8.5 2.5t-8.5 0.5
q-15 0 -19.5 -9.5t-6 -20.5t-3.5 -19.5t-12 -6.5q-2 0 -4 1z" />
    <glyph glyph-name="uni1ED6" unicode="&#x1ed6;" horiz-adv-x="834" 
d="M759 353q0 71 -28.5 128.5t-76 98t-109.5 62.5t-129 22q-66 0 -128 -22t-110 -62.5t-76.5 -98t-28.5 -128.5t28.5 -128.5t76.5 -98t110 -62.5t128 -22t128 22t110 62.5t76.5 98t28.5 128.5zM801 353q0 -76 -31.5 -140.5t-84.5 -112t-123 -74t-146 -26.5q-72 0 -141 25.5
t-123 72t-87 111.5t-33 145q0 76 31.5 140.5t84.5 111.5t122.5 73.5t145.5 26.5q72 0 141.5 -25.5t123.5 -71.5t87 -111.5t33 -144.5zM521 767q15 -8 15 -21q0 -8 -7 -15t-17 -7q-6 0 -13 3l-82 40l-83 -40q-7 -3 -13 -3q-10 0 -17 7t-7 15q0 13 15 21l94 45q4 2 11 2
q6 0 10 -2zM540 874q-21 -22 -55 -22q-15 0 -28.5 5t-26 11.5t-25 12.5t-27.5 6q-11 0 -17 -5t-11 -10.5t-10 -10.5t-12 -5q-8 0 -14.5 5t-6.5 13q0 10 6.5 19t17 15.5t23 10.5t24.5 4q16 0 31 -5.5t28 -12l25 -12.5t24 -6q6 0 11 3t9.5 6.5t9 6t9.5 2.5q8 0 14.5 -5.5
t6.5 -12.5q0 -6 -6 -13z" />
    <glyph glyph-name="uni1ED7" unicode="&#x1ed7;" 
d="M395 196q0 33 -13 61t-35 48.5t-51.5 32.5t-61.5 12t-61 -12t-51 -32.5t-35 -48.5t-13 -61t13 -61t35 -48.5t51 -32.5t61 -12t61.5 11.5t51.5 32.5t35 49t13 61zM436 196q0 -41 -16 -77t-44 -62.5t-64.5 -41.5t-77.5 -15t-77.5 15t-64 41.5t-44 62.5t-16.5 77t16 77
t44 62.5t64.5 41.5t77.5 15q40 0 77 -15t64.5 -41.5t44 -62.5t16.5 -77zM325 454q13 -7 13 -19q0 -8 -6 -14.5t-15 -6.5q-5 0 -11 3l-72 37l-73 -37q-6 -3 -11 -3q-9 0 -15 6.5t-6 14.5q0 12 13 19l82 42q4 2 10 2q5 0 9 -2zM356 558q-21 -22 -54 -22q-15 0 -28.5 5
t-26 11.5t-25 12t-27.5 5.5q-11 0 -16.5 -5t-10.5 -10.5t-10 -10t-12 -4.5q-8 0 -14.5 4.5t-6.5 12.5q0 10 6.5 19t17 15t23 10t23.5 4q16 0 31 -5.5t28 -12t25 -12t24 -5.5q5 0 10 3t9.5 6t9 5.5t9.5 2.5q8 0 14.5 -5t6.5 -12q0 -6 -6 -12z" />
    <glyph glyph-name="uni1ED8" unicode="&#x1ed8;" horiz-adv-x="836" 
d="M759 353q0 71 -28.5 128.5t-76 98t-109.5 62.5t-129 22q-66 0 -128 -22t-110 -62.5t-76.5 -98t-28.5 -128.5t28.5 -128.5t76.5 -98t110 -62.5t128 -22t128 22t110 62.5t76.5 98t28.5 128.5zM801 353q0 -76 -31.5 -140.5t-84.5 -112t-123 -74t-146 -26.5q-72 0 -141 25.5
t-123 72t-87 111.5t-33 145q0 76 31.5 140.5t84.5 111.5t122.5 73.5t145.5 26.5q72 0 141.5 -25.5t123.5 -71.5t87 -111.5t33 -144.5zM398 -141q0 -11 8 -18.5t19 -7.5t19 7.5t8 18.5q0 10 -8 17.5t-19 7.5t-19 -7.5t-8 -17.5zM540 770q16 -8 16 -22q0 -9 -7.5 -16.5
t-18.5 -7.5q-6 0 -13 3l-87 43l-89 -43q-7 -3 -13 -3q-11 0 -18.5 7.5t-7.5 16.5q0 14 16 22l99 49q5 2 13 2q6 0 11 -2z" />
    <glyph glyph-name="uni1ED9" unicode="&#x1ed9;" 
d="M395 196q0 33 -13 61t-35 48.5t-51.5 32.5t-61.5 12t-61 -12t-51 -32.5t-35 -48.5t-13 -61t13 -61t35 -48.5t51 -32.5t61 -12t61.5 11.5t51.5 32.5t35 49t13 61zM436 196q0 -41 -16 -77t-44 -62.5t-64.5 -41.5t-77.5 -15t-77.5 15t-64 41.5t-44 62.5t-16.5 77t16 77
t44 62.5t64.5 41.5t77.5 15q40 0 77 -15t64.5 -41.5t44 -62.5t16.5 -77zM205 -131q0 -10 8 -17t19 -7t19 7t8 17t-8 16.5t-19 6.5t-19 -6.5t-8 -16.5zM325 454q13 -7 13 -19q0 -8 -6 -14.5t-15 -6.5q-5 0 -11 3l-72 37l-73 -37q-6 -3 -11 -3q-9 0 -15 6.5t-6 14.5
q0 12 13 19l82 42q4 2 10 2q5 0 9 -2z" />
    <glyph glyph-name="uni1EDA" unicode="&#x1eda;" horiz-adv-x="834" 
d="M365 742q-1 -1 -6 -1q-11 0 -17 7t-6 16q0 19 19 23l189 45q1 1 6 1q11 0 17 -7t6 -16q0 -7 -4.5 -13.5t-14.5 -8.5zM759 353q0 71 -28.5 128.5t-76 98t-109.5 62.5t-129 22q-66 0 -128 -22t-110 -62.5t-76.5 -98t-28.5 -128.5t28.5 -128.5t76.5 -98t110 -62.5t128 -22
t128 22t110 62.5t76.5 98t28.5 128.5zM801 353q0 -76 -31.5 -140.5t-84.5 -112t-123 -74t-146 -26.5q-72 0 -141 25.5t-123 72t-87 111.5t-33 145q0 76 31.5 140.5t84.5 111.5t122.5 73.5t145.5 26.5q72 0 111.5 -13.5t47.5 -19.5q60 -25 71 -37q7 -6 29 3t60 30
q19 13 24 31t1 31.5t-16 17.5t-27 -12q10 -11 8.5 -22.5t-17.5 -15.5q-11 -2 -18.5 1.5t-11 9t-5 12.5t-0.5 13q5 29 38 42q29 11 50 3q19 -5 34.5 -20t17.5 -37q2 -23 -10.5 -41t-32 -33t-41.5 -27.5t-38 -22.5q48 -45 79 -106t31 -140z" />
    <glyph glyph-name="uni1EDB" unicode="&#x1edb;" 
d="M436 196q0 -41 -16 -77t-44 -62.5t-64.5 -41.5t-77.5 -15t-77.5 15t-64 41.5t-44 62.5t-16.5 77t16 77t44 62.5t64.5 41.5t77.5 15q40 0 77 -15t60 -36q2 -3 5 -6l5 -5q7 1 16.5 4t21.5 6q13 3 18.5 12.5t4.5 18.5t-7 13.5t-17 -2.5q4 -8 2 -15t-13 -7q-13 2 -15.5 10.5
t0.5 16.5q7 15 28 18q18 3 29 -4q11 -6 18 -17t5 -23q-4 -21 -26 -34.5t-48 -18.5q24 -32 31 -57.5t7 -54.5zM395 196q0 33 -13 61t-35 48.5t-51.5 32.5t-61.5 12t-61 -12t-51 -32.5t-35 -48.5t-13 -61t13 -61t35 -48.5t51 -32.5t61 -12t61.5 11.5t51.5 32.5t35 49t13 61z
M161 479q-1 -1 -6 -1q-10 0 -15.5 6.5t-5.5 14.5q0 7 4 13t13 8l173 41q1 1 6 1q10 0 15.5 -6.5t5.5 -14.5q0 -6 -4 -12t-13 -8z" />
    <glyph glyph-name="uni1EDC" unicode="&#x1edc;" horiz-adv-x="834" 
d="M512 785q9 -2 13 -8t4 -13q0 -8 -5.5 -14.5t-15.5 -6.5q-5 0 -6 1l-173 42q-9 2 -13 8t-4 12q0 8 5.5 14.5t15.5 6.5q5 0 6 -1zM759 353q0 71 -28.5 128.5t-76 98t-109.5 62.5t-129 22q-66 0 -128 -22t-110 -62.5t-76.5 -98t-28.5 -128.5t28.5 -128.5t76.5 -98t110 -62.5
t128 -22t128 22t110 62.5t76.5 98t28.5 128.5zM801 353q0 -76 -31.5 -140.5t-84.5 -112t-123 -74t-146 -26.5q-72 0 -141 25.5t-123 72t-87 111.5t-33 145q0 76 31.5 140.5t84.5 111.5t122.5 73.5t145.5 26.5q72 0 111.5 -13.5t47.5 -19.5q60 -25 71 -37q7 -6 29 3t60 30
q19 13 24 31t1 31.5t-16 17.5t-27 -12q10 -11 8.5 -22.5t-17.5 -15.5q-11 -2 -18.5 1.5t-11 9t-5 12.5t-0.5 13q5 29 38 42q29 11 50 3q19 -5 34.5 -20t17.5 -37q2 -23 -10.5 -41t-32 -33t-41.5 -27.5t-38 -22.5q48 -45 79 -106t31 -140z" />
    <glyph glyph-name="uni1EDD" unicode="&#x1edd;" 
d="M436 196q0 -41 -16 -77t-44 -62.5t-64.5 -41.5t-77.5 -15t-77.5 15t-64 41.5t-44 62.5t-16.5 77t16 77t44 62.5t64.5 41.5t77.5 15q40 0 77 -15t60 -36q2 -3 5 -6l5 -5q7 1 16.5 4t21.5 6q13 3 18.5 12.5t4.5 18.5t-7 13.5t-17 -2.5q4 -8 2 -15t-13 -7q-13 2 -15.5 10.5
t0.5 16.5q7 15 28 18q18 3 29 -4q11 -6 18 -17t5 -23q-4 -21 -26 -34.5t-48 -18.5q24 -32 31 -57.5t7 -54.5zM395 196q0 33 -13 61t-35 48.5t-51.5 32.5t-61.5 12t-61 -12t-51 -32.5t-35 -48.5t-13 -61t13 -61t35 -48.5t51 -32.5t61 -12t61.5 11.5t51.5 32.5t35 49t13 61z
M323 513q9 -2 13 -8t4 -13q0 -8 -5.5 -14.5t-15.5 -6.5q-5 0 -6 1l-173 42q-9 2 -13 8t-4 12q0 8 5.5 14.5t15.5 6.5q5 0 6 -1z" />
    <glyph glyph-name="uni1EDE" unicode="&#x1ede;" horiz-adv-x="834" 
d="M397 818q-4 1 -4 9t2 17t4.5 16.5t3.5 9.5q3 5 7 10t8 9q10 10 23 13.5t26 1t24 -10.5t18 -22q4 -8 5 -18.5t-1 -21t-7 -20t-13 -15.5q-9 -7 -18 -11.5t-17 -12.5q-5 -7 -13 -17.5t-17 -8.5q-5 2 -5.5 8t2 13.5t7 14t8.5 9.5q8 7 17 13t15.5 12.5t9 15t-1.5 22.5
q-2 3 -5 8t-7 9q-2 1 -8 2.5t-10 0.5q-17 0 -21 -10t-5 -21.5t-3 -21t-14 -7.5q-3 1 -5 2zM759 353q0 71 -28.5 128.5t-76 98t-109.5 62.5t-129 22q-66 0 -128 -22t-110 -62.5t-76.5 -98t-28.5 -128.5t28.5 -128.5t76.5 -98t110 -62.5t128 -22t128 22t110 62.5t76.5 98
t28.5 128.5zM801 353q0 -76 -31.5 -140.5t-84.5 -112t-123 -74t-146 -26.5q-72 0 -141 25.5t-123 72t-87 111.5t-33 145q0 76 31.5 140.5t84.5 111.5t122.5 73.5t145.5 26.5q72 0 111.5 -13.5t47.5 -19.5q60 -25 71 -37q7 -6 29 3t60 30q19 13 24 31t1 31.5t-16 17.5
t-27 -12q10 -11 8.5 -22.5t-17.5 -15.5q-11 -2 -18.5 1.5t-11 9t-5 12.5t-0.5 13q5 29 38 42q29 11 50 3q19 -5 34.5 -20t17.5 -37q2 -23 -10.5 -41t-32 -33t-41.5 -27.5t-38 -22.5q48 -45 79 -106t31 -140z" />
    <glyph glyph-name="uni1EDF" unicode="&#x1edf;" 
d="M436 196q0 -41 -16 -77t-44 -62.5t-64.5 -41.5t-77.5 -15t-77.5 15t-64 41.5t-44 62.5t-16.5 77t16 77t44 62.5t64.5 41.5t77.5 15q40 0 77 -15t60 -36q2 -3 5 -6l5 -5q7 1 16.5 4t21.5 6q13 3 18.5 12.5t4.5 18.5t-7 13.5t-17 -2.5q4 -8 2 -15t-13 -7q-13 2 -15.5 10.5
t0.5 16.5q7 15 28 18q18 3 29 -4q11 -6 18 -17t5 -23q-4 -21 -26 -34.5t-48 -18.5q24 -32 31 -57.5t7 -54.5zM395 196q0 33 -13 61t-35 48.5t-51.5 32.5t-61.5 12t-61 -12t-51 -32.5t-35 -48.5t-13 -61t13 -61t35 -48.5t51 -32.5t61 -12t61.5 11.5t51.5 32.5t35 49t13 61z
M209 528q-4 1 -4 8.5t1.5 15.5t4 15.5t4.5 9.5q5 10 13 18q10 9 22.5 12t24.5 1t22 -9.5t16 -20.5q8 -16 4.5 -37.5t-18.5 -32.5q-8 -7 -16.5 -11t-16.5 -11q-5 -7 -12.5 -17t-15.5 -8q-6 1 -6 7t2.5 13t6.5 13.5t8 8.5q8 7 16 12.5t14 11t8.5 13.5t-0.5 22q-3 3 -5.5 7.5
t-5.5 8.5q-3 1 -8.5 2.5t-8.5 0.5q-15 0 -19.5 -9.5t-6 -20.5t-3.5 -19.5t-12 -6.5q-2 0 -4 1z" />
    <glyph glyph-name="uni1EE0" unicode="&#x1ee0;" horiz-adv-x="834" 
d="M540 765q-21 -22 -55 -22q-15 0 -28.5 5.5t-26 12t-25 12t-27.5 5.5q-11 0 -17 -5t-11 -10.5t-10 -10.5t-12 -5q-8 0 -14.5 5t-6.5 13q0 10 6.5 19t17 15.5t23 10.5t24.5 4q16 0 31 -5.5t28 -12.5t25 -12.5t24 -5.5t20.5 9t18.5 9q8 0 14.5 -5.5t6.5 -12.5q0 -6 -6 -13z
M759 353q0 71 -28.5 128.5t-76 98t-109.5 62.5t-129 22q-66 0 -128 -22t-110 -62.5t-76.5 -98t-28.5 -128.5t28.5 -128.5t76.5 -98t110 -62.5t128 -22t128 22t110 62.5t76.5 98t28.5 128.5zM801 353q0 -76 -31.5 -140.5t-84.5 -112t-123 -74t-146 -26.5q-72 0 -141 25.5
t-123 72t-87 111.5t-33 145q0 76 31.5 140.5t84.5 111.5t122.5 73.5t145.5 26.5q72 0 111.5 -13.5t47.5 -19.5q60 -25 71 -37q7 -6 29 3t60 30q19 13 24 31t1 31.5t-16 17.5t-27 -12q10 -11 8.5 -22.5t-17.5 -15.5q-11 -2 -18.5 1.5t-11 9t-5 12.5t-0.5 13q5 29 38 42
q29 11 50 3q19 -5 34.5 -20t17.5 -37q2 -23 -10.5 -41t-32 -33t-41.5 -27.5t-38 -22.5q48 -45 79 -106t31 -140z" />
    <glyph glyph-name="uni1EE1" unicode="&#x1ee1;" 
d="M436 196q0 -41 -16 -77t-44 -62.5t-64.5 -41.5t-77.5 -15t-77.5 15t-64 41.5t-44 62.5t-16.5 77t16 77t44 62.5t64.5 41.5t77.5 15q40 0 77 -15t60 -36q2 -3 5 -6l5 -5q7 1 16.5 4t21.5 6q13 3 18.5 12.5t4.5 18.5t-7 13.5t-17 -2.5q4 -8 2 -15t-13 -7q-13 2 -15.5 10.5
t0.5 16.5q7 15 28 18q18 3 29 -4q11 -6 18 -17t5 -23q-4 -21 -26 -34.5t-48 -18.5q24 -32 31 -57.5t7 -54.5zM395 196q0 33 -13 61t-35 48.5t-51.5 32.5t-61.5 12t-61 -12t-51 -32.5t-35 -48.5t-13 -61t13 -61t35 -48.5t51 -32.5t61 -12t61.5 11.5t51.5 32.5t35 49t13 61z
M354 501q-21 -23 -56 -23q-16 0 -29.5 5.5t-26 12t-25.5 12t-28 5.5q-11 0 -17 -5t-11.5 -10.5l-10.5 -10.5t-12 -5q-8 0 -14.5 5t-6.5 13q0 10 6.5 19.5t17 16t23.5 10.5t25 4q17 0 31.5 -5.5t28 -12.5t26 -12.5t24.5 -5.5t20.5 8.5t19.5 8.5q8 0 14.5 -5t6.5 -12t-6 -13z
" />
    <glyph glyph-name="uni1EE2" unicode="&#x1ee2;" horiz-adv-x="833" 
d="M398 -142q0 10 8 17.5t19 7.5t19 -7.5t8 -17.5q0 -11 -8 -18.5t-19 -7.5t-19 7.5t-8 18.5zM759 353q0 71 -28.5 128.5t-76 98t-109.5 62.5t-129 22q-66 0 -128 -22t-110 -62.5t-76.5 -98t-28.5 -128.5t28.5 -128.5t76.5 -98t110 -62.5t128 -22t128 22t110 62.5t76.5 98
t28.5 128.5zM801 353q0 -76 -31.5 -140.5t-84.5 -112t-123 -74t-146 -26.5q-72 0 -141 25.5t-123 72t-87 111.5t-33 145q0 76 31.5 140.5t84.5 111.5t122.5 73.5t145.5 26.5q72 0 111.5 -13.5t47.5 -19.5q60 -25 71 -37q7 -6 29 3t60 30q19 13 24 31t1 31.5t-16 17.5
t-27 -12q10 -11 8.5 -22.5t-17.5 -15.5q-11 -2 -18.5 1.5t-11 9t-5 12.5t-0.5 13q5 29 38 42q29 11 50 3q19 -5 34.5 -20t17.5 -37q2 -23 -10.5 -41t-32 -33t-41.5 -27.5t-38 -22.5q48 -45 79 -106t31 -140z" />
    <glyph glyph-name="uni1EE3" unicode="&#x1ee3;" 
d="M207 -131q0 10 8 16.5t19 6.5t19 -6.5t8 -16.5t-8 -17t-19 -7t-19 7t-8 17zM436 196q0 -41 -16 -77t-44 -62.5t-64.5 -41.5t-77.5 -15t-77.5 15t-64 41.5t-44 62.5t-16.5 77t16 77t44 62.5t64.5 41.5t77.5 15q40 0 77 -15t60 -36q2 -3 5 -6l5 -5q7 1 16.5 4t21.5 6
q13 3 18.5 12.5t4.5 18.5t-7 13.5t-17 -2.5q4 -8 2 -15t-13 -7q-13 2 -15.5 10.5t0.5 16.5q7 15 28 18q18 3 29 -4q11 -6 18 -17t5 -23q-4 -21 -26 -34.5t-48 -18.5q24 -32 31 -57.5t7 -54.5zM395 196q0 33 -13 61t-35 48.5t-51.5 32.5t-61.5 12t-61 -12t-51 -32.5
t-35 -48.5t-13 -61t13 -61t35 -48.5t51 -32.5t61 -12t61.5 11.5t51.5 32.5t35 49t13 61z" />
    <glyph glyph-name="uni1EE4" unicode="&#x1ee4;" horiz-adv-x="521" 
d="M477 39q12 -7 12 -19q0 -8 -5.5 -14t-14.5 -6q-6 0 -12 3q-17 9 -27 25.5t-10 36.5v23q-32 -44 -78 -66t-96 -22q-41 0 -80 15.5t-71 47.5q-29 29 -46 68t-17 84v467q0 11 6 17t14 6t14.5 -6t6.5 -17v-467q0 -36 14 -67.5t37.5 -55t55 -37t67.5 -13.5t67.5 13.5t55 37
t37 54.5t13.5 67v468q0 11 6.5 16t14.5 5t14.5 -5t6.5 -16v-617q0 -18 15 -26zM232 -137q0 -11 8 -18.5t19 -7.5t19 7.5t8 18.5q0 10 -8 17.5t-19 7.5t-19 -7.5t-8 -17.5z" />
    <glyph glyph-name="uni1EE5" unicode="&#x1ee5;" horiz-adv-x="406" 
d="M362 39q12 -7 12 -19q0 -8 -5.5 -14t-13.5 -6q-6 0 -12 3q-26 14 -30 41q-22 -22 -50.5 -32.5t-59.5 -10.5q-28 0 -55 9.5t-48 28t-34 46.5t-13 65v188q0 10 -9 15q-12 7 -12 19q0 8 5.5 14t14.5 6q6 0 12 -3q14 -8 22.5 -21.5t8.5 -29.5v-188q0 -27 9.5 -47.5t24.5 -34
t34.5 -20t39.5 -6.5q21 0 40.5 6.5t34.5 20t24.5 34t9.5 47.5v221q0 11 6.5 17t14.5 6t14.5 -6t6.5 -17v-317q0 -10 8 -15zM209 -132q0 -10 8 -17t19 -7t19 7t8 17t-8 16.5t-19 6.5t-19 -6.5t-8 -16.5z" />
    <glyph glyph-name="uni1EE6" unicode="&#x1ee6;" horiz-adv-x="521" 
d="M477 39q12 -7 12 -19q0 -8 -5.5 -14t-14.5 -6q-6 0 -12 3q-17 9 -27 25.5t-10 36.5v23q-32 -44 -78 -66t-96 -22q-41 0 -80 15.5t-71 47.5q-29 29 -46 68t-17 84v467q0 11 6 17t14 6t14.5 -6t6.5 -17v-467q0 -36 14 -67.5t37.5 -55t55 -37t67.5 -13.5t67.5 13.5t55 37
t37 54.5t13.5 67v468q0 11 6.5 16t14.5 5t14.5 -5t6.5 -16v-617q0 -18 15 -26zM237 813q-4 1 -4 9.5t2 16.5t4 15.5t4 10.5q3 5 7 10t8 9q10 9 23.5 13t26 1.5t23.5 -10.5t18 -22q4 -8 5 -18t-1 -22t-6.5 -20.5t-13.5 -14.5q-9 -7 -18 -11.5t-17 -12.5q-3 -4 -6 -8.5t-7 -9
t-8.5 -7t-8.5 -1.5q-6 2 -6 7.5t2.5 13.5t7 14.5t8.5 9.5q8 7 17 13t15.5 12t9 15t-1.5 23q-2 3 -5 8t-7 9q-2 1 -8 2.5t-10 0.5q-10 0 -15.5 -5.5t-8 -12.5t-3 -15t-1 -14.5t-4 -10t-11.5 -2.5l-4.5 1.5t-5.5 2.5z" />
    <glyph glyph-name="uni1EE7" unicode="&#x1ee7;" horiz-adv-x="406" 
d="M362 39q12 -8 12 -19q0 -8 -5.5 -14t-13.5 -6q-6 0 -12 3q-25 13 -30 41q-22 -22 -50.5 -32.5t-59.5 -10.5q-28 0 -55 9.5t-48 28t-34 46.5t-13 65v188q0 10 -9 15q-12 7 -12 19q0 8 5.5 14t14.5 6q6 0 12 -3q14 -8 22.5 -21.5t8.5 -29.5v-188q0 -27 9.5 -47.5t24.5 -34
t34.5 -20t39.5 -6.5q21 0 40.5 6.5t34.5 20t24.5 34t9.5 47.5v221q0 11 6.5 17t14.5 6t14.5 -6t6.5 -17v-317q0 -10 8 -15zM172 536q-4 1 -4 8.5t1.5 15.5t4 15.5t4.5 9.5q5 10 13 18q10 9 22.5 12t24.5 1t22 -9.5t16 -20.5q8 -16 4.5 -37.5t-18.5 -32.5q-8 -7 -16.5 -11
t-16.5 -11q-5 -7 -12.5 -17t-15.5 -8q-6 1 -6 7t2.5 13t6.5 13.5t8 8.5q8 7 16 12.5t14 11t8.5 13.5t-0.5 22q-3 3 -5.5 7.5t-5.5 8.5q-3 1 -8.5 2.5t-8.5 0.5q-15 0 -19.5 -9.5t-6 -20.5t-3.5 -19.5t-12 -6.5q-2 0 -4 1z" />
    <glyph glyph-name="uni1EE8" unicode="&#x1ee8;" horiz-adv-x="608" 
d="M186 744q-1 -1 -6 -1q-10 0 -15.5 6.5t-5.5 14.5q0 7 4 13t13 8l173 41q1 1 6 1q10 0 15.5 -6.5t5.5 -14.5q0 -6 -4 -12t-13 -8zM462 638q11 4 26.5 12t35.5 19q19 13 24 31t1 31.5t-16 17.5t-27 -12q10 -11 8.5 -22.5t-17.5 -15.5q-11 -2 -18.5 1.5t-11 9t-5 12.5
t-0.5 13q5 29 38 42q29 11 50 3q19 -5 34.5 -20t17.5 -37q1 -22 -11.5 -42t-33.5 -37t-46.5 -29.5t-48.5 -18.5v-531q0 -19 15 -26q12 -8 12 -19q0 -8 -5.5 -14t-14.5 -6q-6 0 -12 3q-37 19 -37 62v23q-32 -45 -77.5 -66.5t-96.5 -21.5q-42 0 -80.5 15.5t-70.5 47.5
q-29 29 -46 68t-17 84v467q0 11 6 17t14 6t14.5 -6t6.5 -17v-467q0 -36 14 -67.5t37.5 -55t55 -37t67.5 -13.5t67.5 13.5t55 37t37 54.5t13.5 67v468q0 11 6.5 16t14.5 5t14.5 -5t6.5 -16v-44z" />
    <glyph glyph-name="uni1EE9" unicode="&#x1ee9;" horiz-adv-x="406" 
d="M157 532q-1 -1 -6 -1q-10 0 -15.5 6.5t-5.5 14.5q0 7 4 13t13 8l173 41q1 1 6 1q10 0 15.5 -6.5t5.5 -14.5q0 -6 -4 -12t-13 -8zM362 39q12 -8 12 -19q0 -8 -5.5 -14t-13.5 -6q-6 0 -12 3q-25 13 -30 41q-22 -22 -50.5 -32.5t-59.5 -10.5q-28 0 -55 9.5t-48 28t-34 46.5
t-13 65v188q0 10 -9 15q-12 7 -12 19q0 8 5.5 14t14.5 6q6 0 12 -3q14 -8 22.5 -21.5t8.5 -29.5v-188q0 -27 9.5 -47.5t24.5 -34t34.5 -20t39.5 -6.5q21 0 40.5 6.5t34.5 20t24.5 34t9.5 47.5v221q0 11 6.5 17t14.5 6t14.5 -6t6.5 -17v-25q8 0 17.5 3t21.5 6q13 5 18.5 15
t4.5 18.5t-7 12.5t-17 -3q4 -8 2 -15t-13 -7q-13 2 -15.5 10.5t0.5 16.5q7 15 28 18q18 3 29 -4q11 -6 18 -17t5 -23t-11.5 -22t-23 -17t-28.5 -11t-29 -5v-268q0 -10 8 -15z" />
    <glyph glyph-name="uni1EEA" unicode="&#x1eea;" horiz-adv-x="608" 
d="M353 787q9 -2 13 -8t4 -13q0 -8 -5.5 -14.5t-15.5 -6.5q-5 0 -6 1l-173 42q-9 2 -13 8t-4 12q0 8 5.5 14.5t15.5 6.5q5 0 6 -1zM462 638q11 4 26.5 12t35.5 19q19 13 24 31t1 31.5t-16 17.5t-27 -12q10 -11 8.5 -22.5t-17.5 -15.5q-11 -2 -18.5 1.5t-11 9t-5 12.5
t-0.5 13q5 29 38 42q29 11 50 3q19 -5 34.5 -20t17.5 -37q1 -22 -11.5 -42t-33.5 -37t-46.5 -29.5t-48.5 -18.5v-531q0 -19 15 -26q12 -8 12 -19q0 -8 -5.5 -14t-14.5 -6q-6 0 -12 3q-37 19 -37 62v23q-32 -45 -77.5 -66.5t-96.5 -21.5q-42 0 -80.5 15.5t-70.5 47.5
q-29 29 -46 68t-17 84v467q0 11 6 17t14 6t14.5 -6t6.5 -17v-467q0 -36 14 -67.5t37.5 -55t55 -37t67.5 -13.5t67.5 13.5t55 37t37 54.5t13.5 67v468q0 11 6.5 16t14.5 5t14.5 -5t6.5 -16v-44z" />
    <glyph glyph-name="uni1EEB" unicode="&#x1eeb;" horiz-adv-x="406" 
d="M321 585q9 -2 13 -8t4 -13q0 -8 -5.5 -14.5t-15.5 -6.5q-5 0 -6 1l-173 42q-9 2 -13 8t-4 12q0 8 5.5 14.5t15.5 6.5q5 0 6 -1zM362 39q12 -8 12 -19q0 -8 -5.5 -14t-13.5 -6q-6 0 -12 3q-25 13 -30 41q-22 -22 -50.5 -32.5t-59.5 -10.5q-28 0 -55 9.5t-48 28t-34 46.5
t-13 65v188q0 10 -9 15q-12 7 -12 19q0 8 5.5 14t14.5 6q6 0 12 -3q14 -8 22.5 -21.5t8.5 -29.5v-188q0 -27 9.5 -47.5t24.5 -34t34.5 -20t39.5 -6.5q21 0 40.5 6.5t34.5 20t24.5 34t9.5 47.5v221q0 11 6.5 17t14.5 6t14.5 -6t6.5 -17v-25q8 0 17.5 3t21.5 6q13 5 18.5 15
t4.5 18.5t-7 12.5t-17 -3q4 -8 2 -15t-13 -7q-13 2 -15.5 10.5t0.5 16.5q7 15 28 18q18 3 29 -4q11 -6 18 -17t5 -23t-11.5 -22t-23 -17t-28.5 -11t-29 -5v-268q0 -10 8 -15z" />
    <glyph glyph-name="uni1EEC" unicode="&#x1eec;" horiz-adv-x="521" 
d="M237 813q-4 1 -4 9t2 17t4.5 16.5t3.5 9.5q3 5 7 10t8 9q10 10 23 13.5t26 1t24 -10.5t18 -22q4 -8 5 -18.5t-1 -21t-7 -20t-13 -15.5q-9 -7 -18 -11.5t-17 -12.5q-5 -7 -13 -17.5t-17 -8.5q-5 2 -5.5 8t2 13.5t7 14t8.5 9.5q8 7 17 13t15.5 12.5t9 15t-1.5 22.5
q-2 3 -5 8t-7 9q-2 1 -8 2.5t-10 0.5q-17 0 -21 -10t-5 -21.5t-3 -21t-14 -7.5q-3 1 -5 2zM462 638q11 4 26.5 12t35.5 19q19 13 24 31t1 31.5t-16 17.5t-27 -12q10 -11 8.5 -22.5t-17.5 -15.5q-11 -2 -18.5 1.5t-11 9t-5 12.5t-0.5 13q5 29 38 42q29 11 50 3
q19 -5 34.5 -20t17.5 -37q1 -22 -11.5 -42t-33.5 -37t-46.5 -29.5t-48.5 -18.5v-531q0 -19 15 -26q12 -8 12 -19q0 -8 -5.5 -14t-14.5 -6q-6 0 -12 3q-37 19 -37 62v23q-32 -45 -77.5 -66.5t-96.5 -21.5q-42 0 -80.5 15.5t-70.5 47.5q-29 29 -46 68t-17 84v467q0 11 6 17
t14 6t14.5 -6t6.5 -17v-467q0 -36 14 -67.5t37.5 -55t55 -37t67.5 -13.5t67.5 13.5t55 37t37 54.5t13.5 67v468q0 11 6.5 16t14.5 5t14.5 -5t6.5 -16v-44z" />
    <glyph glyph-name="uni1EED" unicode="&#x1eed;" horiz-adv-x="406" 
d="M362 39q12 -8 12 -19q0 -8 -5.5 -14t-13.5 -6q-6 0 -12 3q-25 13 -30 41q-22 -22 -50.5 -32.5t-59.5 -10.5q-28 0 -55 9.5t-48 28t-34 46.5t-13 65v188q0 10 -9 15q-12 7 -12 19q0 8 5.5 14t14.5 6q6 0 12 -3q14 -8 22.5 -21.5t8.5 -29.5v-188q0 -27 9.5 -47.5t24.5 -34
t34.5 -20t39.5 -6.5q21 0 40.5 6.5t34.5 20t24.5 34t9.5 47.5v221q0 11 6.5 17t14.5 6t14.5 -6t6.5 -17v-25q8 0 17.5 3t21.5 6q13 5 18.5 15t4.5 18.5t-7 12.5t-17 -3q4 -8 2 -15t-13 -7q-13 2 -15.5 10.5t0.5 16.5q7 15 28 18q18 3 29 -4q11 -6 18 -17t5 -23t-11.5 -22
t-23 -17t-28.5 -11t-29 -5v-268q0 -10 8 -15zM172 536q-4 1 -4 8.5t1.5 15.5t4 15.5t4.5 9.5q5 10 13 18q10 9 22.5 12t24.5 1t22 -9.5t16 -20.5q8 -16 4.5 -37.5t-18.5 -32.5q-8 -7 -16.5 -11t-16.5 -11q-5 -7 -12.5 -17t-15.5 -8q-6 1 -6 7t2.5 13t6.5 13.5t8 8.5
q8 7 16 12.5t14 11t8.5 13.5t-0.5 22q-3 3 -5.5 7.5t-5.5 8.5q-3 1 -8.5 2.5t-8.5 0.5q-15 0 -19.5 -9.5t-6 -20.5t-3.5 -19.5t-12 -6.5q-2 0 -4 1z" />
    <glyph glyph-name="uni1EEE" unicode="&#x1eee;" horiz-adv-x="521" 
d="M373 768q-20 -23 -54 -23q-15 0 -27.5 5.5t-25 12t-25 12t-26.5 5.5q-11 0 -17 -5t-11 -10.5t-9.5 -10.5t-11.5 -5q-8 0 -14.5 5t-6.5 13q0 10 6.5 19t16.5 15.5t22.5 10.5t24.5 4q16 0 30 -5.5t27 -12.5t25 -12.5t23 -5.5q12 0 21 9t17 9t14.5 -5.5t6.5 -12.5
q0 -6 -6 -12zM462 638q11 4 26.5 12t35.5 19q19 13 24 31t1 31.5t-16 17.5t-27 -12q10 -11 8.5 -22.5t-17.5 -15.5q-11 -2 -18.5 1.5t-11 9t-5 12.5t-0.5 13q5 29 38 42q29 11 50 3q19 -5 34.5 -20t17.5 -37q1 -22 -11.5 -42t-33.5 -37t-46.5 -29.5t-48.5 -18.5v-531
q0 -19 15 -26q12 -8 12 -19q0 -8 -5.5 -14t-14.5 -6q-6 0 -12 3q-37 19 -37 62v23q-32 -45 -77.5 -66.5t-96.5 -21.5q-42 0 -80.5 15.5t-70.5 47.5q-29 29 -46 68t-17 84v467q0 11 6 17t14 6t14.5 -6t6.5 -17v-467q0 -36 14 -67.5t37.5 -55t55 -37t67.5 -13.5t67.5 13.5
t55 37t37 54.5t13.5 67v468q0 11 6.5 16t14.5 5t14.5 -5t6.5 -16v-44z" />
    <glyph glyph-name="uni1EEF" unicode="&#x1eef;" horiz-adv-x="407" 
d="M317 503q-20 -23 -53 -23q-15 0 -27.5 5.5t-24.5 12.5t-24.5 12.5t-26.5 5.5q-10 0 -16 -5t-10.5 -11t-9.5 -11t-12 -5t-13.5 5t-6.5 13q0 11 6.5 20.5t16.5 16t22 10.5t23 4q16 0 30.5 -5.5t27 -12.5t24 -12.5t22.5 -5.5q13 0 20 8.5t18 8.5q7 0 13.5 -5t6.5 -12
q0 -8 -6 -14zM362 39q12 -8 12 -19q0 -8 -5.5 -14t-13.5 -6q-6 0 -12 3q-25 13 -30 41q-22 -22 -50.5 -32.5t-59.5 -10.5q-28 0 -55 9.5t-48 28t-34 46.5t-13 65v188q0 10 -9 15q-12 7 -12 19q0 8 5.5 14t14.5 6q6 0 12 -3q14 -8 22.5 -21.5t8.5 -29.5v-188q0 -27 9.5 -47.5
t24.5 -34t34.5 -20t39.5 -6.5q21 0 40.5 6.5t34.5 20t24.5 34t9.5 47.5v221q0 11 6.5 17t14.5 6t14.5 -6t6.5 -17v-25q8 0 17.5 3t21.5 6q13 5 18.5 15t4.5 18.5t-7 12.5t-17 -3q4 -8 2 -15t-13 -7q-13 2 -15.5 10.5t0.5 16.5q7 15 28 18q18 3 29 -4q11 -6 18 -17t5 -23
t-11.5 -22t-23 -17t-28.5 -11t-29 -5v-268q0 -10 8 -15z" />
    <glyph glyph-name="uni1EF0" unicode="&#x1ef0;" horiz-adv-x="521" 
d="M232 -137q0 10 8 17.5t19 7.5t19 -7.5t8 -17.5q0 -11 -8 -18.5t-19 -7.5t-19 7.5t-8 18.5zM462 638q11 4 26.5 12t35.5 19q19 13 24 31t1 31.5t-16 17.5t-27 -12q10 -11 8.5 -22.5t-17.5 -15.5q-11 -2 -18.5 1.5t-11 9t-5 12.5t-0.5 13q5 29 38 42q29 11 50 3
q19 -5 34.5 -20t17.5 -37q1 -22 -11.5 -42t-33.5 -37t-46.5 -29.5t-48.5 -18.5v-531q0 -19 15 -26q12 -8 12 -19q0 -8 -5.5 -14t-14.5 -6q-6 0 -12 3q-37 19 -37 62v23q-32 -45 -77.5 -66.5t-96.5 -21.5q-42 0 -80.5 15.5t-70.5 47.5q-29 29 -46 68t-17 84v467q0 11 6 17
t14 6t14.5 -6t6.5 -17v-467q0 -36 14 -67.5t37.5 -55t55 -37t67.5 -13.5t67.5 13.5t55 37t37 54.5t13.5 67v468q0 11 6.5 16t14.5 5t14.5 -5t6.5 -16v-44z" />
    <glyph glyph-name="uni1EF1" unicode="&#x1ef1;" horiz-adv-x="407" 
d="M211 -132q0 10 8 16.5t19 6.5t19 -6.5t8 -16.5t-8 -17t-19 -7t-19 7t-8 17zM362 39q12 -8 12 -19q0 -8 -5.5 -14t-13.5 -6q-6 0 -12 3q-25 13 -30 41q-22 -22 -50.5 -32.5t-59.5 -10.5q-28 0 -55 9.5t-48 28t-34 46.5t-13 65v188q0 10 -9 15q-12 7 -12 19q0 8 5.5 14
t14.5 6q6 0 12 -3q14 -8 22.5 -21.5t8.5 -29.5v-188q0 -27 9.5 -47.5t24.5 -34t34.5 -20t39.5 -6.5q21 0 40.5 6.5t34.5 20t24.5 34t9.5 47.5v221q0 11 6.5 17t14.5 6t14.5 -6t6.5 -17v-25q8 0 17.5 3t21.5 6q13 5 18.5 15t4.5 18.5t-7 12.5t-17 -3q4 -8 2 -15t-13 -7
q-13 2 -15.5 10.5t0.5 16.5q7 15 28 18q18 3 29 -4q11 -6 18 -17t5 -23t-11.5 -22t-23 -17t-28.5 -11t-29 -5v-268q0 -10 8 -15z" />
    <glyph glyph-name="Ygrave" unicode="&#x1ef2;" horiz-adv-x="531" 
d="M286 290v-269q0 -11 -6 -17t-14 -6t-14.5 6t-6.5 17v269l-210 382q-3 6 -3 12q0 9 6 14.5t14 5.5q12 0 19 -12l194 -354l195 354q7 12 19 12q8 0 14 -5.5t6 -14.5q0 -6 -3 -12zM363 785q9 -2 13 -8t4 -13q0 -8 -5.5 -14.5t-15.5 -6.5q-4 0 -6 1l-173 42q-9 2 -13 8t-4 12
q0 8 5.5 14.5t15.5 6.5q4 0 6 -1z" />
    <glyph glyph-name="ygrave" unicode="&#x1ef3;" horiz-adv-x="386" 
d="M354 -3q0 -32 -12 -60t-32.5 -49t-49 -33t-61.5 -12q-12 0 -24.5 1.5t-23.5 5.5q-8 2 -12 8t-4 12q0 8 5.5 14.5t14.5 6.5q5 0 8 -1q9 -3 18 -4t18 -1q50 0 81 33.5t32 89.5v35q-22 -21 -50.5 -31.5t-58.5 -10.5q-28 0 -55 9.5t-48 28t-34 46.5t-13 65v188q0 10 -9 15
q-12 7 -12 19q0 8 5.5 14t14.5 6q6 0 12 -3q14 -8 22.5 -21.5t8.5 -29.5v-188q0 -27 9.5 -47.5t24.5 -34t34.5 -20t39.5 -6.5q21 0 40.5 6.5t34.5 20t24.5 34t9.5 47.5v221q0 11 6.5 17t14.5 6t14.5 -6t6.5 -17v-374zM246 523q9 -2 13 -8t4 -13q0 -8 -5.5 -14.5t-15.5 -6.5
q-4 0 -6 1l-173 42q-9 2 -13 8t-4 12q0 8 5.5 14.5t15.5 6.5q4 0 6 -1z" />
    <glyph glyph-name="uni1EF4" unicode="&#x1ef4;" horiz-adv-x="531" 
d="M286 290v-269q0 -11 -6 -17t-14 -6t-14.5 6t-6.5 17v269l-210 382q-3 6 -3 12q0 9 6 14.5t14 5.5q12 0 19 -12l194 -354l195 354q7 12 19 12q8 0 14 -5.5t6 -14.5q0 -6 -3 -12zM232 -137q0 -11 8 -18.5t19 -7.5t19 7.5t8 18.5q0 10 -8 17.5t-19 7.5t-19 -7.5t-8 -17.5z
" />
    <glyph glyph-name="uni1EF5" unicode="&#x1ef5;" horiz-adv-x="386" 
d="M354 -3q0 -32 -12 -60t-32.5 -49t-49 -33t-61.5 -12q-12 0 -24.5 1.5t-23.5 5.5q-8 2 -12 8t-4 12q0 8 5.5 14.5t14.5 6.5q5 0 8 -1q9 -3 18 -4t18 -1q50 0 81 33.5t32 89.5v35q-22 -21 -50.5 -31.5t-58.5 -10.5q-28 0 -55 9.5t-48 28t-34 46.5t-13 65v188q0 10 -9 15
q-12 7 -12 19q0 8 5.5 14t14.5 6q6 0 12 -3q14 -8 22.5 -21.5t8.5 -29.5v-188q0 -27 9.5 -47.5t24.5 -34t34.5 -20t39.5 -6.5q21 0 40.5 6.5t34.5 20t24.5 34t9.5 47.5v221q0 11 6.5 17t14.5 6t14.5 -6t6.5 -17v-374zM65 -134q0 -10 8 -17t19 -7t19 7t8 17t-8 16.5t-19 6.5
t-19 -6.5t-8 -16.5z" />
    <glyph glyph-name="uni1EF6" unicode="&#x1ef6;" horiz-adv-x="531" 
d="M286 290v-269q0 -11 -6 -17t-14 -6t-14.5 6t-6.5 17v269l-210 382q-3 6 -3 12q0 9 6 14.5t14 5.5q12 0 19 -12l194 -354l195 354q7 12 19 12q8 0 14 -5.5t6 -14.5q0 -6 -3 -12zM244 811q-4 1 -4 9.5t2 16.5t4 15.5t4 10.5q3 5 7 10t8 9q10 9 23.5 13t26 1.5t23.5 -10.5
t18 -22q4 -8 5 -18t-1 -22t-6.5 -20.5t-13.5 -14.5q-9 -7 -18 -11.5t-17 -12.5q-3 -4 -6 -8.5t-7 -9t-8.5 -7t-8.5 -1.5q-6 2 -6 7.5t2.5 13.5t7 14.5t8.5 9.5q8 7 17 13t15.5 12t9 15t-1.5 23q-2 3 -5 8t-7 9q-2 1 -8 2.5t-10 0.5q-10 0 -15.5 -5.5t-8 -12.5t-3 -15
t-1 -14.5t-4 -10t-11.5 -2.5l-4.5 1.5t-5.5 2.5z" />
    <glyph glyph-name="uni1EF7" unicode="&#x1ef7;" horiz-adv-x="386" 
d="M354 -3q0 -32 -12 -60t-32.5 -49t-49 -33t-61.5 -12q-12 0 -24.5 1.5t-23.5 5.5q-8 2 -12 8t-4 12q0 8 5.5 14.5t14.5 6.5q6 0 8 -1q9 -3 18 -4t18 -1q51 0 81.5 33t31.5 90v35q-22 -21 -50.5 -31.5t-58.5 -10.5q-28 0 -55 9.5t-48 28t-34 46.5t-13 65v188q0 10 -9 15
q-12 7 -12 19q0 8 5.5 14t14.5 6q6 0 12 -3q14 -8 22.5 -21.5t8.5 -29.5v-188q0 -27 9.5 -47.5t24.5 -34t34.5 -20t39.5 -6.5q21 0 40.5 6.5t34.5 20t24.5 34t9.5 47.5v221q0 11 6.5 17t14.5 6t14.5 -6t6.5 -17v-374zM172 536q-4 1 -4 8.5t1.5 15.5t4 15.5t4.5 9.5
q5 10 13 18q10 9 22.5 12t24.5 1t22 -9.5t16 -20.5q8 -16 4.5 -37.5t-18.5 -32.5q-8 -7 -16.5 -11t-16.5 -11q-5 -7 -12.5 -17t-15.5 -8q-6 1 -6 7t2.5 13t6.5 13.5t8 8.5q8 7 16 12.5t14 11t8.5 13.5t-0.5 22q-3 3 -5.5 7.5t-5.5 8.5q-3 1 -8.5 2.5t-8.5 0.5
q-15 0 -19.5 -9.5t-6 -20.5t-3.5 -19.5t-12 -6.5q-2 0 -4 1z" />
    <glyph glyph-name="uni1EF8" unicode="&#x1ef8;" horiz-adv-x="531" 
d="M286 290v-269q0 -11 -6 -17t-14 -6t-14.5 6t-6.5 17v269l-210 382q-3 6 -3 12q0 9 6 14.5t14 5.5q12 0 19 -12l194 -354l195 354q7 12 19 12q8 0 14 -5.5t6 -14.5q0 -6 -3 -12zM387 769q-21 -26 -55 -26q-15 0 -28.5 6t-26 13.5t-25 14t-27.5 6.5q-11 0 -17 -5.5t-11 -12
t-10 -12t-12 -5.5q-8 0 -14.5 5.5t-6.5 14.5q0 12 6.5 22.5t17 18t23 12t24.5 4.5q16 0 31 -6.5t28 -14t25 -14t24 -6.5q6 0 11 3t9.5 7t9 7t9.5 3q8 0 14.5 -6t6.5 -14t-6 -15z" />
    <glyph glyph-name="uni1EF9" unicode="&#x1ef9;" horiz-adv-x="386" 
d="M354 -3q0 -32 -12 -60t-32.5 -49t-49 -33t-61.5 -12q-12 0 -24.5 1.5t-23.5 5.5q-8 2 -12 8t-4 12q0 8 5.5 14.5t14.5 6.5q5 0 8 -1q9 -3 18 -4t18 -1q50 0 81 33.5t32 89.5v35q-22 -21 -50.5 -31.5t-58.5 -10.5q-28 0 -55 9.5t-48 28t-34 46.5t-13 65v188q0 10 -9 15
q-12 7 -12 19q0 8 5.5 14t14.5 6q6 0 12 -3q14 -8 22.5 -21.5t8.5 -29.5v-188q0 -27 9.5 -47.5t24.5 -34t34.5 -20t39.5 -6.5q21 0 40.5 6.5t34.5 20t24.5 34t9.5 47.5v221q0 11 6.5 17t14.5 6t14.5 -6t6.5 -17v-374zM308 508q-21 -26 -55 -26q-15 0 -28.5 6t-26 13.5
t-25 14t-27.5 6.5q-11 0 -17 -5.5t-11 -12t-10 -12t-12 -5.5q-8 0 -14.5 5.5t-6.5 14.5q0 12 6.5 22.5t17 18t23 12t24.5 4.5q16 0 31 -6.5t28 -14t25 -14t24 -6.5q6 0 11 3t9.5 7t9 7t9.5 3q8 0 14.5 -6t6.5 -14t-6 -15z" />
    <glyph glyph-name="endash" unicode="&#x2013;" horiz-adv-x="481" 
d="M55 340q-11 0 -17 6.5t-6 14.5t6 14.5t17 6.5h371q11 0 17 -6.5t6 -14.5t-6 -14.5t-17 -6.5h-371z" />
    <glyph glyph-name="emdash" unicode="&#x2014;" horiz-adv-x="871" 
d="M55 340q-11 0 -17 6.5t-6 14.5t6 14.5t17 6.5h761q11 0 17 -6.5t6 -14.5t-6 -14.5t-17 -6.5h-761z" />
    <glyph glyph-name="quoteleft" unicode="&#x2018;" horiz-adv-x="200" 
d="M102 474q-37 0 -53.5 25.5t-16.5 60.5q0 25 8.5 50.5t21.5 46.5t29 34.5t31 13.5q9 0 14.5 -6.5t5.5 -14.5q0 -9 -13 -19q-10 -7 -19 -24t-9 -31q32 0 49.5 -21t17.5 -47t-16.5 -47t-49.5 -21z" />
    <glyph glyph-name="quoteright" unicode="&#x2019;" horiz-adv-x="200" 
d="M98 705q37 0 53.5 -25.5t16.5 -60.5q0 -25 -8.5 -50.5t-21.5 -46.5t-29 -34.5t-31 -13.5q-9 0 -14.5 6.5t-5.5 14.5q0 9 13 19q10 7 19 24t9 31q-32 0 -49.5 21t-17.5 47t16.5 47t49.5 21z" />
    <glyph glyph-name="quotesinglbase" unicode="&#x201a;" horiz-adv-x="199" 
d="M98 136q37 0 53 -25.5t16 -60.5q0 -25 -7 -50.5t-19 -46.5t-28.5 -34.5t-34.5 -13.5q-9 0 -14.5 6.5t-5.5 14.5q0 9 13 19q10 7 19 24t9 31q-32 0 -49.5 21t-17.5 47t16.5 47t49.5 21z" />
    <glyph glyph-name="quotedblleft" unicode="&#x201c;" horiz-adv-x="352" 
d="M102 474q-37 0 -53.5 25.5t-16.5 60.5q0 25 8.5 50.5t21.5 46.5t29 34.5t31 13.5q9 0 14.5 -6.5t5.5 -14.5q0 -9 -13 -19q-10 -7 -19 -24t-9 -31q32 0 49.5 -21t17.5 -47t-16.5 -47t-49.5 -21zM254 474q-37 0 -53.5 25.5t-16.5 60.5q0 25 8.5 50.5t21.5 46.5t29 34.5
t31 13.5q9 0 14.5 -6.5t5.5 -14.5q0 -9 -13 -19q-10 -7 -19 -24t-9 -31q32 0 49.5 -21t17.5 -47t-16.5 -47t-49.5 -21z" />
    <glyph glyph-name="quotedblright" unicode="&#x201d;" horiz-adv-x="352" 
d="M250 705q37 0 53.5 -25.5t16.5 -60.5q0 -25 -8.5 -50.5t-21.5 -46.5t-29 -34.5t-31 -13.5q-9 0 -14.5 6.5t-5.5 14.5q0 9 13 19q10 7 19 24t9 31q-32 0 -49.5 21t-17.5 47t16.5 47t49.5 21zM98 705q37 0 53.5 -25.5t16.5 -60.5q0 -25 -8.5 -50.5t-21.5 -46.5t-29 -34.5
t-31 -13.5q-9 0 -14.5 6.5t-5.5 14.5q0 9 13 19q10 7 19 24t9 31q-32 0 -49.5 21t-17.5 47t16.5 47t49.5 21z" />
    <glyph glyph-name="quotedblbase" unicode="&#x201e;" horiz-adv-x="349" 
d="M98 136q37 0 53 -25.5t16 -60.5q0 -25 -7 -50.5t-19 -46.5t-28.5 -34.5t-34.5 -13.5q-9 0 -14.5 6.5t-5.5 14.5q0 9 13 19q10 7 19 24t9 31q-32 0 -49.5 21t-17.5 47t16.5 47t49.5 21zM248 136q37 0 53 -25.5t16 -60.5q0 -25 -7 -50.5t-19 -46.5t-28.5 -34.5t-34.5 -13.5
q-9 0 -14.5 6.5t-5.5 14.5q0 9 13 19q10 7 19 24t9 31q-32 0 -49.5 21t-17.5 47t16.5 47t49.5 21z" />
    <glyph glyph-name="dagger" unicode="&#x2020;" horiz-adv-x="600" 
d="M385 -14q-50 -9 -85 -46q-34 37 -85 46q32 98 50 206t19 208q-47 -5 -88.5 -24t-73.5 -50q-29 62 -90 90q61 28 90 90q32 -31 73 -50t88 -24q-3 53 -24.5 99.5t-55.5 83.5q32 14 57 39.5t40 57.5q15 -32 40.5 -57.5t57.5 -39.5q-35 -37 -56 -83.5t-25 -99.5q47 5 88 24
t74 50q14 -30 36.5 -53t52.5 -37q-30 -14 -52.5 -37t-36.5 -53q-33 31 -74 50t-89 24q2 -100 19.5 -208t49.5 -206z" />
    <glyph glyph-name="daggerdbl" unicode="&#x2021;" horiz-adv-x="575" 
d="M369 317q-15 -13 -26.5 -23.5t-19 -22.5t-12.5 -26.5t-8 -33.5q45 4 84.5 22t70.5 47q13 -28 35 -49.5t50 -35.5q-28 -12 -50 -34t-35 -50q-31 29 -70.5 47t-84.5 23q4 -51 24.5 -94.5t53.5 -78.5q-63 -28 -94 -91q-14 31 -38 54t-54 37q33 35 53 78.5t24 94.5
q-45 -5 -84 -23t-70 -47q-14 28 -35.5 50t-50.5 34q58 27 86 85q31 -29 70 -47t84 -22q-3 19 -8 33.5t-12.5 26.5t-18.5 22.5t-26 23.5q15 13 26 23.5t18.5 22.5t12.5 26t8 34q-45 -4 -84 -22t-70 -47q-28 58 -86 85q29 12 50.5 34t35.5 50q31 -29 70 -47t84 -23
q-4 51 -24 94.5t-53 78.5q30 14 54 37t38 54q31 -63 94 -91q-33 -35 -53.5 -78.5t-24.5 -94.5q45 5 84.5 23t70.5 47q13 -28 35 -50t50 -34q-28 -14 -50 -35.5t-35 -49.5q-31 29 -70.5 47t-84.5 22q3 -20 8 -34t12.5 -26t19 -22.5t26.5 -23.5z" />
    <glyph glyph-name="bullet" unicode="&#x2022;" horiz-adv-x="336" 
d="M304 366q0 -58 -40 -96q-18 -18 -42.5 -29t-53.5 -11q-27 0 -51.5 10.5t-44.5 29.5q-18 18 -29 42.5t-11 53.5t11 53.5t29 42.5q20 19 44.5 29.5t51.5 10.5q29 0 53.5 -11t42.5 -29q40 -38 40 -96z" />
    </font>
</defs>
</svg>
