<?xml version="1.0" standalone="no"?>
<!DOCTYPE svg PUBLIC "-//W3C//DTD SVG 1.1//EN" "http://www.w3.org/Graphics/SVG/1.1/DTD/svg11.dtd" >
<svg xmlns="http://www.w3.org/2000/svg" xmlns:xlink="http://www.w3.org/1999/xlink" version="1.1">
<metadata>
Created by FontForge 20170731 at Sat Jun 15 11:37:08 2013
 By Aleksey,,,
Copyright (c) 2003 by Hoang Design melodylife195@gmail.com. All rights reserved.
</metadata>
<defs>
<font id="UVFTypoSlabserif-Light" horiz-adv-x="483" >
  <font-face 
    font-family="UVF TypoSlabserif"
    font-weight="300"
    font-stretch="normal"
    units-per-em="1000"
    panose-1="2 0 4 3 5 0 0 2 0 4"
    ascent="800"
    descent="-200"
    x-height="562"
    cap-height="713"
    bbox="-151 -225 978 1082"
    underline-thickness="50"
    underline-position="-175"
    unicode-range="U+0005-E010"
  />
<missing-glyph horiz-adv-x="499" 
d="M512 -170h-205v46h205v-46z" />
    <glyph glyph-name=".notdef" horiz-adv-x="499" 
d="M512 -170h-205v46h205v-46z" />
    <glyph glyph-name=".null" horiz-adv-x="0" 
 />
    <glyph glyph-name="nonmarkingreturn" horiz-adv-x="333" 
 />
    <glyph glyph-name="breve" horiz-adv-x="262" 
d="M251 696q-8 -63 -39.5 -88.5t-80.5 -25.5q-48 0 -79.5 25.5t-39.5 88.5h40q9 -42 28.5 -55.5t50.5 -13.5q32 0 51.5 14t28.5 55h40z" />
    <glyph glyph-name="dotaccent" horiz-adv-x="262" 
d="M179 601h-77v76h77v-76z" />
    <glyph glyph-name="ring" horiz-adv-x="262" 
d="M218 644q0 -36 -25.5 -61.5t-61.5 -25.5t-62 25.5t-26 61.5t26 61.5t62 25.5t61.5 -25.5t25.5 -61.5zM182 644q0 22 -15 36.5t-36 14.5q-22 0 -37 -14.5t-15 -36.5t15 -36.5t37 -14.5q21 0 36 14.5t15 36.5z" />
    <glyph glyph-name="hungarumlaut" unicode="&#xa;" horiz-adv-x="262" 
d="M337 708l-112 -138h-57l92 138h77zM177 708l-112 -138h-57l92 138h77z" />
    <glyph glyph-name="ogonek" horiz-adv-x="262" 
d="M206 -176l-69 -6q-40 -4 -62.5 14.5t-22.5 55.5q0 17 9.5 34.5t23 34t28 30t25.5 22.5h62q-12 -10 -27.5 -23.5t-30 -29.5t-24 -32.5t-9.5 -32.5q0 -20 14.5 -28.5t35.5 -8.5l41 7z" />
    <glyph glyph-name="caron" horiz-adv-x="262" 
d="M260 708l-97 -138h-64l-97 138h60l69 -100l69 100h60z" />
    <glyph glyph-name="dotlessi" unicode="&#xd;" horiz-adv-x="245" 
d="M225 0h-210v46h78v470h-78v46h136v-516h74v-46z" />
    <glyph glyph-name="fraction" horiz-adv-x="155" 
d="M306 731l-417 -753l-40 4l418 753z" />
    <glyph glyph-name="fi" 
d="M471 0h-191v46h70v470h-198v-470h75v-46h-207v46h74v470h-80v46h80v16q0 72 36.5 108t105.5 36q51 0 77.5 -18t37.5 -40q13 -26 14 -58h-52q0 28 -18.5 49t-54.5 21q-42 0 -65 -25t-23 -82v-7h256v-516h63v-46z" />
    <glyph glyph-name="fl" 
d="M470 0h-190v46h68v610q-6 2 -13.5 5t-17.5 6q-26 9 -58 9q-60 0 -83.5 -25.5t-23.5 -82.5v-6h92v-46h-92v-470h76v-46h-208v46h74v470h-81v46h81v6q0 82 38.5 118t116.5 36q20 0 38.5 -1.5t35.5 -3.5q23 -3 24 -4l59 -20v-647h64v-46z" />
    <glyph glyph-name="Lslash" horiz-adv-x="523" 
d="M489 0h-471v47h90v259l-91 -69v48l91 69v312h-91v47h257v-47h-107v-267l159 120v-48l-159 -120v-304h269v168h53v-215z" />
    <glyph glyph-name="lslash" horiz-adv-x="231" 
d="M227 454l-76 -62v-346h72v-46h-208v46h78v299l-78 -63v45l78 63v277h-78v46h136v-276l76 62v-45z" />
    <glyph glyph-name="Zcaron" horiz-adv-x="553" 
d="M403 896l-97 -138h-64l-97 138h60l69 -100l69 100h60zM511 0h-480v57l416 609h-348v-155h-52v202h459v-56l-417 -610h370v162h52v-209z" />
    <glyph glyph-name="zcaron" horiz-adv-x="438" 
d="M349 708l-97 -138h-64l-97 138h60l69 -100l69 100h60zM396 0h-354v52l290 464h-235v-92h-51v138h346v-51l-291 -465h244v104h51v-150z" />
    <glyph glyph-name="space" unicode=" " horiz-adv-x="333" 
 />
    <glyph glyph-name="exclam" unicode="!" horiz-adv-x="303" 
d="M192 713l-11 -547h-47l-10 547h68zM199 1h-77v76h77v-76z" />
    <glyph glyph-name="quotedbl" unicode="&#x22;" horiz-adv-x="431" 
d="M322 711l-3 -97l-7 -118h-44l-7 119l-3 96q0 7 9 10.5t23 3.5t23 -3.5t9 -10.5zM172 711l-3 -97l-7 -118h-44l-7 119l-3 96q0 7 9 10.5t23 3.5t23 -3.5t9 -10.5z" />
    <glyph glyph-name="numbersign" unicode="#" horiz-adv-x="547" 
d="M528 431h-128l-20 -143h123v-49h-130l-32 -239h-50l32 239h-135l-32 -239h-50l32 239h-118v49h125l20 143h-120v49h126l32 234h50l-32 -234h135l32 234h50l-32 -234h122v-49zM350 431h-135l-20 -143h135z" />
    <glyph glyph-name="dollar" unicode="$" horiz-adv-x="494" 
d="M459 161q0 -81 -48.5 -125.5t-133.5 -44.5h-8v-95h-41v98q-22 2 -40.5 6t-35.5 11q-52 21 -80 64v-76h-35v226l53 -1v-32q0 -35 13.5 -63.5t36.5 -49.5q32 -29 88 -39v298l-24 5q-85 18 -125 54.5t-40 103.5v52q0 75 46.5 118.5t127.5 43.5h15v97h41v-101q33 -5 58 -15
q26 -10 47.5 -24t37.5 -34v68h35v-222l-53 1v32q0 37 -14 65t-38 48q-29 24 -73 34v-280l16 -3q51 -10 84.5 -24.5t53.5 -34.5t28 -46t8 -59v-56zM228 389v280h-5q-57 0 -89.5 -32t-32.5 -86v-45q0 -51 38 -78q36 -25 89 -39zM397 165v42q0 55 -34 83q-14 11 -37.5 22
t-56.5 21v-296h1q60 0 93.5 34t33.5 94z" />
    <glyph glyph-name="percent" unicode="%" horiz-adv-x="770" 
d="M700 150q0 -78 -28 -118.5t-86 -40.5h-24q-57 0 -86 41.5t-29 117.5v78q0 76 29 118t86 42h24q57 0 85.5 -42t28.5 -118v-78zM576 712l-343 -725l-42 5l344 725h18l19 -5h4zM322 478q0 -78 -28.5 -119t-86.5 -41h-24q-57 0 -85.5 42t-28.5 118v78q0 76 29 118t86 42h24
q57 0 85.5 -42t28.5 -118v-78zM656 151v74q0 60 -17.5 92.5t-55.5 32.5h-18q-37 0 -55.5 -32.5t-18.5 -90.5v-74q0 -60 18 -92t57 -32h18q72 0 72 122zM278 479v74q0 60 -17.5 92.5t-56.5 32.5h-18q-37 0 -55 -32.5t-18 -90.5v-74q0 -60 18 -92.5t57 -32.5h18
q37 0 54.5 31.5t17.5 91.5z" />
    <glyph glyph-name="ampersand" unicode="&#x26;" horiz-adv-x="697" 
d="M667 1l-113 -1l-99 115q-4 -5 -7.5 -9.5t-7.5 -9.5q-43 -57 -89 -81t-101 -24q-45 0 -82.5 19t-64.5 48.5t-42.5 65.5t-15.5 69q0 64 38 108q32 37 128 97l-19 22q-20 23 -35 41t-24.5 36t-14.5 38.5t-5 49.5q0 67 40.5 100.5t115.5 33.5q67 0 109.5 -32t42.5 -101
q0 -82 -33 -116q-14 -16 -39 -35t-60 -42l165 -191q9 14 16.5 27.5t13.5 24.5q13 26 24.5 48.5t22.5 51.5h-55v39h168v-42h-65q-12 -32 -26 -64t-30 -64l-16 -30t-18 -30l106 -122h72v-40zM366 585q0 45 -25.5 66t-70.5 21q-43 0 -70 -20.5t-27 -68.5q0 -20 3.5 -35.5
t11 -30t19 -29t26.5 -31.5l25 -29q58 38 80 63q28 31 28 94zM422 153l-180 209q-38 -26 -64.5 -46.5t-40.5 -36.5q-30 -35 -30 -85q0 -27 13 -54.5t33.5 -49.5t45.5 -35.5t49 -13.5q52 0 91.5 25.5t75.5 76.5q4 6 7 10z" />
    <glyph glyph-name="quotesingle" unicode="'" horiz-adv-x="258" 
d="M161 711l-3 -97l-7 -118h-44l-7 119l-3 96q0 7 9 10.5t23 3.5t23 -3.5t9 -10.5z" />
    <glyph glyph-name="parenleft" unicode="(" horiz-adv-x="270" 
d="M253 -149l-35 -18q-27 29 -53.5 71.5t-47 99t-33 127t-12.5 156.5q0 85 12.5 156t33.5 127.5t47 99.5t53 72l35 -18q-24 -28 -47 -70t-41 -97t-28.5 -122.5t-10.5 -147.5t10.5 -147.5t28.5 -122t41 -96.5t47 -70z" />
    <glyph glyph-name="parenright" unicode=")" horiz-adv-x="270" 
d="M198 287q0 -86 -12.5 -156.5t-32.5 -127t-46.5 -99t-54.5 -71.5l-35 18q25 28 48 69.5t40.5 96.5t28 122.5t10.5 147.5q0 79 -10.5 147t-28 123t-40.5 97t-48 70l35 18q28 -29 54.5 -71.5t46.5 -99.5t32.5 -128t12.5 -156z" />
    <glyph glyph-name="asterisk" unicode="*" horiz-adv-x="374" 
d="M339 492l-25 -45l-110 73l8 -131h-50l8 131l-110 -73l-25 45l117 58l-117 58l25 45l110 -73l-8 131h50l-8 -131l110 73l25 -45l-117 -58z" />
    <glyph glyph-name="plus" unicode="+" horiz-adv-x="619" 
d="M573 237h-235v-237h-56v237h-236v56h236v234h56v-234h235v-56z" />
    <glyph glyph-name="comma" unicode="," horiz-adv-x="232" 
d="M157 2l-1 -1l-56 -138h-47l50 139h-19v74q19 0 37 0.5t36 0.5v-75z" />
    <glyph glyph-name="hyphen" unicode="-" horiz-adv-x="354" 
d="M300 327h-245v48h245v-48z" />
    <glyph glyph-name="period" unicode="." horiz-adv-x="232" 
d="M120 -12h-76v76h76v-76z" />
    <glyph glyph-name="slash" unicode="/" horiz-adv-x="364" 
d="M349 712l-280 -722l-52 5l280 722z" />
    <glyph glyph-name="zero" unicode="0" horiz-adv-x="500" 
d="M457 296q0 -143 -47 -224t-142 -81h-38q-95 0 -141 81t-46 224v115q0 143 46.5 224t141.5 81h38q95 0 141.5 -81t46.5 -224v-115zM396 296v115q0 124 -31.5 191.5t-101.5 67.5h-28q-69 0 -100 -67.5t-31 -191.5v-115q0 -124 31 -191.5t101 -67.5h28q69 0 100.5 67.5
t31.5 191.5z" />
    <glyph glyph-name="one" unicode="1" horiz-adv-x="500" 
d="M403 0h-249v46h97v600q-15 -19 -30.5 -33.5t-31.5 -27t-33 -24.5t-36 -27l-15 38q76 60 148 136h56v-662h94v-46z" />
    <glyph glyph-name="two" unicode="2" horiz-adv-x="500" 
d="M454 0h-407v91q30 48 62.5 87.5t75.5 81.5q40 38 75.5 73t62.5 67t42.5 60.5t15.5 54.5v34q0 55 -29.5 86t-81.5 31h-32q-57 0 -90 -37.5t-33 -103.5v-23h-57v22q0 91 48 141.5t133 50.5h32q81 0 125.5 -43.5t44.5 -121.5v-48q0 -20 -11 -44t-30.5 -50t-45 -53.5
t-54.5 -55.5q-60 -59 -110.5 -112t-89.5 -116v-21h298v114h56v-165z" />
    <glyph glyph-name="three" unicode="3" horiz-adv-x="500" 
d="M445 170q0 -85 -46.5 -132t-127.5 -47h-44q-85 0 -130.5 47.5t-45.5 138.5v17h61v-16q0 -63 31.5 -100t85.5 -37h38q54 0 85.5 34.5t31.5 94.5v44q0 63 -36.5 92.5t-106.5 29.5h-33v48q36 9 67.5 28t54.5 43.5t36.5 52t13.5 53.5q0 45 -36.5 75t-93.5 30q-58 0 -95.5 -31
t-37.5 -82v-39h-59v55q0 33 14.5 60.5t40 46.5t60 29.5t75.5 10.5q42 0 77 -10.5t60.5 -29t39.5 -44t14 -55.5v-20q0 -24 -12 -52t-32.5 -54t-48.5 -48t-59 -34q27 -3 55 -12t51 -27t37.5 -47.5t14.5 -72.5v-40z" />
    <glyph glyph-name="four" unicode="4" horiz-adv-x="500" 
d="M470 199h-88v-153h64v-46h-200v46h78v153h-300v65l283 443h75v-462h88v-46zM324 245v402l-253 -402h253z" />
    <glyph glyph-name="five" unicode="5" horiz-adv-x="500" 
d="M456 204q0 -109 -49.5 -161t-155.5 -52q-193 0 -193 179v15h57v-15q0 -63 36 -96t103 -33q145 0 145 158v48q0 70 -32 109t-93 39q-110 0 -165 -81h-39l10 393h354l-1 -52h-297l-10 -270q26 30 66.5 45.5t85.5 15.5q88 0 133 -49.5t45 -146.5v-46z" />
    <glyph glyph-name="six" unicode="6" horiz-adv-x="500" 
d="M455 192q0 -94 -48.5 -147.5t-133.5 -53.5h-42q-87 0 -134.5 62t-47.5 204v126q0 157 55 245t170 88q85 0 130 -38.5t45 -126.5v-16h-57v11q0 63 -28 94t-91 30q-91 -2 -129.5 -81.5t-38.5 -227.5v-27q23 53 49 69q46 30 107 30q94 0 144 -49t50 -140v-52zM398 190v46
q0 72 -37 111.5t-106 39.5q-71 0 -113 -50q-21 -25 -31 -57.5t-10 -67.5q0 -34 9.5 -67t29.5 -60q34 -48 97 -48h34q60 0 93.5 41.5t33.5 111.5z" />
    <glyph glyph-name="seven" unicode="7" horiz-adv-x="500" 
d="M458 654q-41 -93 -75 -172.5t-65.5 -156t-61.5 -155.5t-63 -170h-63q36 96 67 176t62.5 156.5t65 154.5t74.5 169h-301v-132h-55v183h415v-53z" />
    <glyph glyph-name="eight" unicode="8" horiz-adv-x="500" 
d="M449 173q0 -85 -46.5 -133.5t-127.5 -48.5h-48q-82 0 -128.5 46.5t-46.5 131.5v38q0 69 34.5 110.5t97.5 51.5q-67 16 -95 59t-28 94v30q0 78 46.5 121t127.5 43h34q82 0 129 -43.5t47 -118.5v-30q0 -58 -30.5 -99t-96.5 -56q63 -11 97 -54t34 -104v-38zM388 521v28
q0 57 -31.5 89t-86.5 32h-36q-54 0 -85 -32.5t-31 -89.5v-28q0 -58 33 -93t88 -35h26q57 0 90 34.5t33 94.5zM392 174v38q0 63 -33.5 98.5t-90.5 35.5h-30q-60 0 -94.5 -36t-34.5 -99v-38q0 -66 31.5 -101t91.5 -35h38q58 0 90 35.5t32 101.5z" />
    <glyph glyph-name="nine" unicode="9" horiz-adv-x="500" 
d="M455 324q0 -157 -55 -245t-170 -88q-85 0 -130 38.5t-45 126.5v16h57v-11q0 -63 28 -94t91 -30q91 2 129.5 81.5t38.5 227.5v27q-23 -53 -49 -69q-47 -30 -107 -30q-94 0 -144 49t-50 140v52q0 94 48.5 147.5t133.5 53.5h42q87 0 134.5 -62t47.5 -204v-126zM364 622
q-35 48 -97 48h-34q-60 0 -93.5 -41.5t-33.5 -111.5v-46q0 -72 37 -111.5t106 -39.5q71 0 113 50q21 25 31 57.5t10 66.5q0 72 -39 128z" />
    <glyph glyph-name="colon" unicode=":" horiz-adv-x="244" 
d="M159 401h-77v76h77v-76zM159 1h-77v76h77v-76z" />
    <glyph glyph-name="semicolon" unicode=";" horiz-adv-x="244" 
d="M168 25l-57 -162h-47l49 138h-31v76h86v-52zM159 401h-77v76h77v-76z" />
    <glyph glyph-name="less" unicode="&#x3c;" horiz-adv-x="619" 
d="M585 -26l-552 261v56l552 261v-57l-490 -232l490 -232v-57z" />
    <glyph glyph-name="equal" unicode="=" horiz-adv-x="619" 
d="M586 330h-552v56h552v-56zM586 140h-552v56h552v-56z" />
    <glyph glyph-name="greater" unicode="&#x3e;" horiz-adv-x="619" 
d="M585 235l-552 -261v57l490 232l-490 232v57l552 -261v-56z" />
    <glyph glyph-name="question" unicode="?" 
d="M427 510q0 -63 -25 -100t-70 -64q-48 -29 -70 -54.5t-22 -59.5v-67h-60v85q0 39 24.5 66.5t73.5 54.5q16 12 32 26.5t28.5 31.5t20 38.5t7.5 48.5v50q0 51 -32 80t-93 29q-121 0 -121 -116v-21h-60v29q0 72 43 113.5t141 41.5q97 0 140 -40.5t43 -107.5v-64zM249 -1h-77
v76h77v-76z" />
    <glyph glyph-name="at" unicode="@" horiz-adv-x="827" 
d="M785 338q0 -60 -20.5 -113t-53.5 -93t-74.5 -63.5t-83.5 -23.5q-20 0 -40.5 16.5t-29.5 62.5q-9 -13 -22.5 -26.5t-30 -25t-36 -18.5t-41.5 -7q-29 0 -54.5 10.5t-45 31.5t-30.5 52t-11 72q0 48 18 97t49.5 89t75.5 65t97 25q30 0 59 -20t42 -66l19 66h59l-91 -317
q-2 -7 -2.5 -12.5t-0.5 -10.5q0 -16 7 -23q12 -13 31 -13q25 0 53 20t52 53.5t39.5 78.5t15.5 96q0 53 -23 101t-63.5 85t-96 58.5t-119.5 21.5q-69 0 -131 -26.5t-108.5 -72t-74 -108t-27.5 -134.5q0 -73 28 -134.5t75 -106t107.5 -69.5t125.5 -25q-1 0 0.5 -7.5t3 -16
t3 -15.5t1.5 -6q-87 0 -160 31t-125 84t-81 123t-29 148q0 75 30.5 143.5t83 121t123.5 84t152 31.5q78 0 143 -25.5t112 -68.5t73.5 -100t26.5 -120zM528 333q0 51 -20.5 82t-60.5 31q-38 0 -70 -22.5t-56 -58t-37.5 -80t-13.5 -87.5q0 -27 7.5 -47t20 -33t28.5 -19t33 -6
q41 0 72.5 27t53 64.5t32.5 78.5t11 70z" />
    <glyph glyph-name="A" unicode="A" horiz-adv-x="724" 
d="M694 0h-219v47h92l-68 208h-275l-69 -208h92v-47h-218v47h63l229 666h84l225 -666h64v-47zM484 302l-122 367l-123 -367h245z" />
    <glyph glyph-name="B" unicode="B" horiz-adv-x="569" 
d="M539 171q0 -38 -13 -69.5t-37 -54t-57 -35t-72 -12.5h-335v47h91v619h-91v47h325q88 0 131 -33t43 -112v-38q0 -63 -30 -103.5t-96 -46.5q36 -2 62.5 -15.5t44 -35t26 -49.5t8.5 -59v-50zM461 523v36q0 55 -28.5 81t-79.5 26h-178v-266h162q60 0 92 31.5t32 91.5z
M477 179v40q0 63 -34 98.5t-100 35.5h-168v-306h158q70 0 107 33t37 99z" />
    <glyph glyph-name="C" unicode="C" horiz-adv-x="614" 
d="M571 172q-24 -91 -93 -136t-169 -45q-60 0 -108 21t-81.5 60t-51 94.5t-17.5 124.5v133q0 69 17.5 124t51 94t81.5 59.5t110 20.5q81 0 137.5 -25.5t83.5 -67.5v84h35v-230h-52v33q-18 78 -73.5 116.5t-127.5 38.5q-97 0 -148.5 -65.5t-51.5 -183.5v-129
q0 -118 51 -184.5t148 -66.5q75 0 126 35.5t71 110.5v33h61v-49z" />
    <glyph glyph-name="D" unicode="D" horiz-adv-x="639" 
d="M587 294q0 -294 -290 -294h-279v47h90v619h-90v47h292q134 0 205.5 -75.5t71.5 -215.5v-128zM524 294v132q0 112 -57.5 176t-163.5 64h-137v-619h127q112 0 171.5 64.5t59.5 182.5z" />
    <glyph glyph-name="E" unicode="E" horiz-adv-x="557" 
d="M527 0h-503v47h90v619h-90v47h499v-201h-52v154h-298v-277l187 -1v85h45v-221h-45v89h-187v-294h301v162h53v-209z" />
    <glyph glyph-name="F" unicode="F" horiz-adv-x="523" 
d="M501 508h-52v158h-281v-288l182 -1l1 86h45v-218h-45v84l-183 1v-283h107v-47h-256v47h90v619h-90v47h482v-205z" />
    <glyph glyph-name="G" unicode="G" horiz-adv-x="645" 
d="M615 312h-59v-312h-39v88q-35 -48 -97.5 -72.5t-134.5 -24.5q-60 0 -107 21t-80 60t-50.5 94.5t-17.5 124.5v131q0 142 67.5 221t193.5 79q79 0 137.5 -24t88.5 -66v81h35v-230h-54v39q-18 72 -73 110.5t-136 38.5q-93 0 -144.5 -66.5t-51.5 -180.5v-135
q0 -114 52 -180.5t146 -66.5q85 0 140 42t67 117v112h-124v46h241v-47z" />
    <glyph glyph-name="H" unicode="H" horiz-adv-x="695" 
d="M665 0h-238v47h90v290l-341 -1v-289h90v-47h-238v47h89v619h-89v47h238v-47h-90v-279h341v279h-90v47h238v-47h-89v-619h89v-47z" />
    <glyph glyph-name="I" unicode="I" horiz-adv-x="277" 
d="M258 0h-238v47h90v619h-90v47h238v-47h-90v-619h90v-47z" />
    <glyph glyph-name="J" unicode="J" horiz-adv-x="401" 
d="M391 666h-71v-509q0 -166 -155 -166q-69 0 -108 36t-39 105v27l43 17v-26q0 -108 103 -108q51 0 74 30.5t23 93.5v500h-90v47h220v-47z" />
    <glyph glyph-name="K" unicode="K" horiz-adv-x="586" 
d="M574 0h-204v47h71l-233 278l-41 41v-319h90v-47h-238v47h90v619h-90v47h238v-47h-90v-292q8 10 42.5 46.5t95.5 99.5t96 99.5t43 46.5h-82v47h204v-47h-54q-28 -36 -68.5 -80t-94.5 -98l-110 -110l280 -331h55v-47z" />
    <glyph glyph-name="L" unicode="L" horiz-adv-x="527" 
d="M497 0h-472v47h90v619h-90v47h256v-47h-107v-619h270v168h53v-215z" />
    <glyph glyph-name="M" unicode="M" horiz-adv-x="855" 
d="M825 0h-231v47h83v619l-224 -616h-51l-224 616v-619h84v-47h-232v47h91v619h-92v47h189l210 -581l211 581h186v-47h-91v-619h91v-47z" />
    <glyph glyph-name="N" unicode="N" horiz-adv-x="706" 
d="M676 666h-81v-666h-78l-343 653v-606h92v-47h-238v47h90v619h-90v47h177q42 -83 83.5 -162.5t83.5 -157.5t83.5 -157.5t83.5 -162.5v593h-91v47h228v-47z" />
    <glyph glyph-name="O" unicode="O" horiz-adv-x="625" 
d="M595 294q0 -71 -17.5 -127t-51 -95t-82 -60t-110.5 -21h-44q-62 0 -110 21t-81.5 60t-51 95t-17.5 127v125q0 70 17.5 126.5t51 95.5t81.5 60t110 21h44q62 0 110.5 -21t82 -60t51 -95.5t17.5 -126.5v-125zM532 296v121q0 121 -51 189.5t-151 68.5h-36
q-100 0 -150.5 -68.5t-50.5 -189.5v-121q0 -121 50.5 -189.5t150.5 -68.5h36q100 0 151 68.5t51 189.5z" />
    <glyph glyph-name="P" unicode="P" horiz-adv-x="529" 
d="M510 491q0 -45 -21.5 -78t-57 -55.5t-81 -33.5t-93.5 -11h-90v-266h105v-47h-253v47h90v619h-90v47h301q190 0 190 -175v-47zM448 493v41q0 69 -34.5 100.5t-109.5 31.5h-137v-306h79q36 0 72 8.5t65 25t47 41.5t18 58z" />
    <glyph glyph-name="Q" unicode="Q" horiz-adv-x="666" 
d="M616 294q0 -121 -50 -198t-144 -98h56l93 -138h-58l-108 135q-12 -2 -24.5 -3t-25.5 -1h-44q-62 0 -110 21t-81.5 60t-51 95t-17.5 127v125q0 70 17.5 126.5t51 95.5t81.5 60t110 21h44q62 0 110.5 -21t82 -60t51 -95.5t17.5 -126.5v-125zM553 296v121q0 121 -51 189.5
t-151 68.5h-36q-100 0 -150.5 -68.5t-50.5 -189.5v-121q0 -121 50.5 -189.5t150.5 -68.5h36q100 0 151 68.5t51 189.5z" />
    <glyph glyph-name="R" unicode="R" horiz-adv-x="627" 
d="M597 0h-119q-2 4 -2.5 5.5t-2 5.5t-3.5 14.5t-6 33.5t-11 61t-18 98q-6 29 -14.5 50.5t-22.5 35.5t-35.5 21t-53.5 7h-134v-285h90v-47h-239v47h90v619h-90v47h313q45 0 78.5 -7t55 -23.5t32.5 -45t11 -71.5v-44q0 -32 -9 -61t-25.5 -52.5t-40 -38.5t-53.5 -18
q50 -6 72 -38t30 -75l37 -192h70v-47zM453 523v38q0 32 -8 52.5t-25 32t-42.5 16t-59.5 4.5h-143v-287h147q32 0 56.5 11t41 30.5t25 46t8.5 56.5z" />
    <glyph glyph-name="S" unicode="S" horiz-adv-x="481" 
d="M450 162q0 -81 -47 -126t-129 -45q-75 0 -127.5 19t-84.5 65v-76h-35v227l54 -1v-32q0 -73 49.5 -114t131.5 -41q60 0 93 33.5t33 94.5v42q0 39 -15.5 63t-40.5 37.5t-57 21t-66 14t-66 15t-57 26t-40.5 46.5t-15.5 75v52q0 76 46.5 120t127.5 44q63 0 115 -18.5
t85 -57.5v67h35v-224l-53 1v33q0 73 -47 112.5t-125 39.5q-57 0 -89.5 -32.5t-32.5 -87.5v-44q0 -48 26.5 -71t66.5 -34t86 -18t86 -23.5t66.5 -49.5t26.5 -97v-56z" />
    <glyph glyph-name="T" unicode="T" horiz-adv-x="505" 
d="M475 493h-52v169h-179v-615h110v-47h-279v47h110v615h-180v-169h-52v220h522v-220z" />
    <glyph glyph-name="U" unicode="U" horiz-adv-x="671" 
d="M641 666h-72v-453q0 -106 -54.5 -164t-157.5 -58h-44q-211 0 -211 223v452h-73v47h228v-47h-96v-453q0 -85 40 -130t116 -45h34q159 0 159 176v452h-97v47h228v-47z" />
    <glyph glyph-name="V" unicode="V" horiz-adv-x="705" 
d="M675 666h-64l-222 -666h-74l-222 666h-64v47h224v-47h-96l195 -606l197 606h-99v47h225v-47z" />
    <glyph glyph-name="W" unicode="W" horiz-adv-x="874" 
d="M871 666h-59l-143 -666h-80l-153 656l-154 -656h-81l-142 666h-59v47h217v-47h-99l124 -605l151 652h85l151 -652l125 605h-96v47h213v-47z" />
    <glyph glyph-name="X" unicode="X" horiz-adv-x="639" 
d="M627 0h-232v47h97l-180 275l-181 -275h98v-47h-228v47h67l213 323l-194 296h-71v47h225v-47h-85l161 -247l163 247h-85v47h218v-47h-71l-193 -295l211 -324h67v-47z" />
    <glyph glyph-name="Y" unicode="Y" horiz-adv-x="598" 
d="M597 666h-61l-206 -357v-262h101v-47h-261v47h101v260l-208 359h-61v47h222v-47h-95l171 -301l173 301h-89v47h213v-47z" />
    <glyph glyph-name="Z" unicode="Z" horiz-adv-x="553" 
d="M511 0h-480v57l416 609h-348v-155h-52v202h459v-56l-417 -610h370v162h52v-209z" />
    <glyph glyph-name="bracketleft" unicode="[" horiz-adv-x="264" 
d="M221 -167h-113q-11 0 -14 3t-3 13v877q0 10 3 13t14 3h113v-44h-72q-3 0 -4 -1v-819q1 -1 4 -1h72v-44z" />
    <glyph glyph-name="backslash" unicode="\" horiz-adv-x="364" 
d="M349 -5l-51 -5l-281 727l51 5z" />
    <glyph glyph-name="bracketright" unicode="]" horiz-adv-x="264" 
d="M175 -151q0 -10 -3.5 -13t-13.5 -3h-113v44h72l4 5v811l-4 5h-72v44h113q10 0 13.5 -3t3.5 -13v-877z" />
    <glyph glyph-name="asciicircum" unicode="^" horiz-adv-x="636" 
d="M525 351h-61l-147 292l-147 -292h-61l184 362h48z" />
    <glyph glyph-name="underscore" unicode="_" horiz-adv-x="500" 
d="M502 -225h-505v50h505v-50z" />
    <glyph glyph-name="grave" unicode="`" horiz-adv-x="262" 
d="M201 570h-58l-111 138h76z" />
    <glyph glyph-name="a" unicode="a" 
d="M469 0h-121l1 77q-31 -48 -74 -67.5t-103 -19.5q-66 0 -99 40t-33 107v34q0 76 41 114.5t132 38.5h132v71q0 70 -25 100.5t-77 30.5h-28q-103 0 -103 -96v-12h-56v18q0 66 40.5 101t115.5 35h38q76 0 114 -42t38 -123v-361h67v-46zM345 199v75q-15 1 -33 2q-15 1 -35 2
t-43 1q-75 0 -106 -29.5t-31 -87.5v-20q0 -45 23 -75.5t69 -30.5q36 0 63 12.5t46 34.5t30.5 51.5t16.5 64.5z" />
    <glyph glyph-name="b" unicode="b" horiz-adv-x="523" 
d="M483 240q0 -115 -44 -182.5t-128 -67.5q-63 0 -110.5 19.5t-80.5 61.5v-71h-89v30h49v637h-66v46h124v-218q29 40 76 58.5t96 18.5q85 0 129 -67.5t44 -182.5v-82zM426 247v68q0 97 -34.5 154t-98.5 57q-36 0 -65.5 -13.5t-50 -38t-32 -58.5t-11.5 -76v-104
q0 -97 43.5 -148.5t115.5 -51.5q64 0 98.5 57t34.5 154z" />
    <glyph glyph-name="c" unicode="c" horiz-adv-x="465" 
d="M431 175q-5 -88 -43 -136.5t-93 -48.5h-58q-44 0 -78.5 17.5t-58 50t-36 78.5t-12.5 103v84q0 118 47.5 183.5t138.5 65.5q60 0 97 -19.5t64 -50.5v60h31v-173h-47v19q-11 57 -44.5 87.5t-96.5 30.5q-32 0 -56.5 -15t-42 -42t-26.5 -65.5t-9 -85.5v-72q0 -47 9.5 -85.5
t26.5 -66.5t42 -43t57 -15h38q22 0 39.5 12.5t29.5 32t19.5 44.5t10.5 50h51z" />
    <glyph glyph-name="d" unicode="d" horiz-adv-x="523" 
d="M507 0h-124v66q-57 -76 -171 -76q-84 0 -127.5 67t-43.5 184v78q0 117 45 185t129 68q48 0 94 -18.5t74 -57.5v171h-78v46h136v-667h66v-46zM387 233v108q0 42 -11.5 76t-32.5 58.5t-50.5 37.5t-65.5 13q-31 0 -55 -15t-40.5 -42.5t-25 -66t-8.5 -86.5v-70
q0 -48 8.5 -86.5t25 -66t40.5 -42.5t56 -15q36 0 65.5 14t50 39.5t32 62t11.5 81.5z" />
    <glyph glyph-name="e" unicode="e" horiz-adv-x="477" 
d="M442 267h-344v-25q0 -97 33.5 -151.5t99.5 -54.5h36q53 0 82 38t34 94v9h51v-13q-10 -85 -53.5 -129.5t-106.5 -44.5h-46q-94 0 -140 64t-46 185v78q0 121 45 188t136 67h40q88 0 133.5 -67t45.5 -185v-53zM385 312v31q0 88 -33 135.5t-96 47.5h-30q-30 0 -54 -14.5
t-40.5 -41.5t-25 -64.5t-8.5 -83.5v-10h287z" />
    <glyph glyph-name="f" unicode="f" horiz-adv-x="264" 
d="M281 672h-12l-38 4q-39 0 -58.5 -20.5t-19.5 -72.5v-21h92v-46h-92v-470h81v-46h-213v46h74v470h-74v46h74v22q0 70 31.5 106t92.5 32l62 -4v-46z" />
    <glyph glyph-name="g" unicode="g" horiz-adv-x="523" 
d="M509 516h-70v-522q0 -93 -41 -133.5t-132 -40.5h-44q-75 0 -114.5 29t-43.5 84q10 15 20 15q3 1 14 1h23q4 -43 29.5 -63t80.5 -20h32q63 0 91 31t28 103v86q-26 -45 -71 -65.5t-100 -20.5q-40 0 -71.5 17.5t-53.5 49t-33.5 76.5t-11.5 101v82q0 56 11.5 101.5t33 77.5
t53 49.5t71.5 17.5q54 0 100 -20.5t72 -62.5v73h127v-46zM382 276v14q0 51 -8.5 94t-23.5 74.5t-36 49.5t-46 18h-44q-29 0 -52 -15t-39.5 -42t-25.5 -64.5t-9 -82.5v-74q0 -45 9.5 -82t26.5 -63.5t40.5 -41.5t52.5 -15h42q24 0 44.5 17t36 47.5t24 72.5t8.5 93z" />
    <glyph glyph-name="h" unicode="h" horiz-adv-x="529" 
d="M513 0h-205v46h77v337q0 69 -22.5 106t-71.5 37q-32 0 -58 -11.5t-45 -32t-29.5 -49t-10.5 -62.5v-325h75v-46h-205v46h73v621h-75v46h132v-212q26 40 67.5 55.5t89.5 15.5q69 0 103 -45t34 -130v-351h71v-46z" />
    <glyph glyph-name="i" unicode="i" horiz-adv-x="245" 
d="M225 0h-210v46h78v470h-78v46h136v-516h74v-46zM157 720v-49q0 -14 -14 -14h-45q-13 0 -13 14v48q0 9 3 12t10 3h45q14 0 14 -14z" />
    <glyph glyph-name="j" unicode="j" horiz-adv-x="225" 
d="M149 -71q0 -58 -24.5 -84t-86.5 -26l-40 5v46h9l30 -5q30 1 42 17t12 63v571h-79v46h137v-633zM154 720v-49q0 -14 -14 -14h-45q-13 0 -13 14v48q0 9 3 12t10 3h45q14 0 14 -14z" />
    <glyph glyph-name="k" unicode="k" 
d="M479 0h-176v46h62l-148 247l-66 -82v-165h56v-46h-188v46h74v621h-74v46h132v-436l198 239h-67v46h184v-46h-59l-144 -184l165 -286h51v-46z" />
    <glyph glyph-name="l" unicode="l" horiz-adv-x="231" 
d="M223 0h-208v46h78v621h-78v46h136v-667h72v-46z" />
    <glyph glyph-name="m" unicode="m" horiz-adv-x="799" 
d="M784 0h-204v46h77v350q0 60 -22.5 95t-62.5 35q-64 0 -101.5 -39.5t-37.5 -108.5v-332h69v-46h-205v46h78v350q0 60 -20 95t-57 35q-66 0 -106.5 -41.5t-40.5 -110.5v-328h73v-46h-206v46h75v470h-78v46h136v-61q24 36 63 53.5t84 17.5q51 0 80 -20.5t40 -55.5
q18 35 58 55.5t100 20.5q69 0 104 -45t35 -130v-351h69v-46z" />
    <glyph glyph-name="n" unicode="n" horiz-adv-x="529" 
d="M514 0h-207v46h78v337q0 69 -22.5 106t-70.5 37q-32 0 -58 -11.5t-44.5 -32t-29 -49t-10.5 -62.5v-325h72v-46h-206v46h77v470h-78v46h135v-61q26 40 67 55.5t89 15.5q69 0 102.5 -45t33.5 -130v-351h72v-46z" />
    <glyph glyph-name="o" unicode="o" horiz-adv-x="496" 
d="M457 243q0 -117 -48 -185t-135 -68h-50q-87 0 -134.5 68t-47.5 185v76q0 117 47.5 185t134.5 68h50q88 0 135.5 -68t47.5 -185v-76zM400 248v66q0 97 -35 154.5t-101 57.5h-30q-66 0 -100.5 -57.5t-34.5 -154.5v-66q0 -97 34.5 -154.5t100.5 -57.5h30q66 0 101 57.5
t35 154.5z" />
    <glyph glyph-name="p" unicode="p" horiz-adv-x="529" 
d="M480 240q0 -115 -44.5 -182.5t-129.5 -67.5q-51 0 -94 18t-71 60v-192h75v-46h-205v46h72v640h-72v46h130v-71q30 42 73 61.5t95 19.5q84 0 127.5 -67.5t43.5 -182.5v-82zM423 245v72q0 97 -33.5 153t-96.5 56q-72 0 -114 -52t-42 -149v-104q0 -84 42 -134.5t114 -50.5
q63 0 96.5 56t33.5 153z" />
    <glyph glyph-name="q" unicode="q" horiz-adv-x="499" 
d="M457 243q0 -103 -36 -167.5t-105 -80.5h35l93 -138h-58l-107 133h-55q-87 0 -134.5 68t-47.5 185v76q0 117 47.5 185t134.5 68h50q88 0 135.5 -68t47.5 -185v-76zM400 248v66q0 97 -35 154.5t-101 57.5h-30q-66 0 -100.5 -57.5t-34.5 -154.5v-66q0 -97 34.5 -154.5
t100.5 -57.5h30q66 0 101 57.5t35 154.5z" />
    <glyph glyph-name="r" unicode="r" horiz-adv-x="333" 
d="M317 571q-1 -8 -1 -16v-29v-15q-29 0 -58 -4.5t-53 -17t-39 -34.5t-15 -56v-353h87v-46h-220v46h75v470h-75v46h132v-72q10 22 29.5 37.5t43.5 25t48.5 14t45.5 4.5z" />
    <glyph glyph-name="s" unicode="s" horiz-adv-x="425" 
d="M386 141q0 -75 -41 -113t-119 -38q-51 0 -92 14t-67 49v-60h-30v173h40l7 -19q2 -54 42 -82.5t99 -28.5q48 0 76 26.5t28 80.5v16q0 45 -21 64.5t-53 27.5t-69 10.5t-69 12.5t-53 35t-21 78v34q0 72 39.5 111.5t103.5 39.5q55 0 97 -14.5t65 -42.5v47h30v-163h-46v41
q0 36 -35.5 61t-98.5 25q-49 0 -74 -29.5t-25 -74.5v-24q0 -31 12.5 -48t32.5 -25.5t46 -11.5t52.5 -6t52.5 -8.5t46 -20t32.5 -40t12.5 -67.5v-30z" />
    <glyph glyph-name="t" unicode="t" horiz-adv-x="298" 
d="M280 87q0 -46 -26.5 -71.5t-71.5 -25.5q-49 0 -71 26t-22 80v420h-82v46h82v122l54 4h4v-126h118v-46h-118v-413q0 -67 48 -67q25 0 35 17t10 62l40 -4v-24z" />
    <glyph glyph-name="u" unicode="u" horiz-adv-x="529" 
d="M513 0h-131v68q-25 -39 -66.5 -58.5t-93.5 -19.5q-69 0 -102 46t-33 134v346h-70v46h127v-384q0 -72 22.5 -107t74.5 -35q30 0 55.5 12t44.5 32.5t29.5 49t10.5 61.5v325h-74v46h131v-516h75v-46z" />
    <glyph glyph-name="v" unicode="v" 
d="M474 516h-48l-154 -518h-63l-152 518h-48v46h175v-46h-69l128 -452l126 452h-70v46h175v-46z" />
    <glyph glyph-name="w" unicode="w" horiz-adv-x="754" 
d="M742 516h-48l-133 -518h-67l-117 497l-117 -497h-68l-132 518h-48v46h179v-46h-74l111 -446l116 485l19 7h48l116 -493l111 447h-69v46h173v-46z" />
    <glyph glyph-name="x" unicode="x" horiz-adv-x="484" 
d="M471 0h-158v44h51l-122 203l-122 -199l51 -2v-46h-158v46h46l149 243l-137 227h-46v46h158v-42h-52l111 -189l111 187l-46 2v42h159v-46h-53l-137 -225l149 -245h46v-46z" />
    <glyph glyph-name="y" unicode="y" 
d="M475 516h-41l-200 -620l-12 -30v-46h-125v46h70q2 6 4 11t4 10.5t5 11.5l37 115l-159 502h-49v46h178v-46h-71l130 -426l132 426h-71v46h168v-46z" />
    <glyph glyph-name="z" unicode="z" horiz-adv-x="438" 
d="M396 0h-354v52l290 464h-235v-92h-51v138h346v-51l-291 -465h244v104h51v-150z" />
    <glyph glyph-name="braceleft" unicode="{" horiz-adv-x="299" 
d="M268 -167h-30q-32 0 -54 10.5t-36 28t-20 40.5t-6 49v172q0 58 -18.5 94.5t-53.5 39.5v41q35 3 53.5 39.5t18.5 94.5v172q0 25 6 48.5t20 41t36 28t54 10.5h30v-41h-34q-25 -3 -41.5 -26.5t-16.5 -80.5v-150q0 -71 -21 -106.5t-56 -50.5q35 -14 56 -49.5t21 -106.5v-150
q0 -57 16.5 -80.5t41.5 -26.5h34v-41z" />
    <glyph glyph-name="bar" unicode="|" horiz-adv-x="224" 
d="M140 -80h-56v814h56v-814z" />
    <glyph glyph-name="braceright" unicode="}" horiz-adv-x="299" 
d="M249 267q-35 -3 -53.5 -39.5t-18.5 -94.5v-172q0 -26 -6.5 -49t-20.5 -40.5t-36.5 -28t-53.5 -10.5h-30v41h34q25 3 42 26.5t17 80.5v150q0 71 21 106.5t56 49.5q-35 15 -56 50.5t-21 106.5v150q0 57 -17 80.5t-42 26.5h-34v41h30q31 0 53.5 -10.5t36.5 -28t20.5 -41
t6.5 -48.5v-172q0 -58 18.5 -94.5t53.5 -39.5v-41z" />
    <glyph glyph-name="asciitilde" unicode="~" horiz-adv-x="636" 
d="M550 286q-20 -34 -49.5 -58.5t-74.5 -24.5q-49 0 -116 34t-102 34q-27 0 -47 -17.5t-39 -51.5l-35 40q19 34 49 58.5t75 24.5q47 0 114 -34t103 -34q27 0 46 17.5t40 51.5z" />
    <glyph glyph-name="exclamdown" unicode="&#xa1;" horiz-adv-x="303" 
d="M190 518h-74v75h74v-75zM180 -121h-68l11 547h47z" />
    <glyph glyph-name="cent" unicode="&#xa2;" horiz-adv-x="465" 
d="M431 175q-5 -88 -43 -136.5t-93 -48.5h-24v-94h-40v94q-85 3 -131 67q-48 68 -48 182v84q0 116 48 182q46 64 131 67v94h40v-96q39 -5 63 -18q37 -19 65 -50v60h31v-173h-47v19q-5 29 -16.5 50t-28.5 37q-24 21 -67 29v-488h10q22 0 39.5 12.5t29.5 32t19.5 44.5t10.5 50
h51zM231 37v488q-56 -5 -88 -56q-35 -59 -35 -151v-72q0 -94 36 -152q31 -51 87 -57z" />
    <glyph glyph-name="sterling" unicode="&#xa3;" horiz-adv-x="494" 
d="M458 -1h-16q-14 0 -36 0.5t-35 0.5h-346v46h78v316h-78v47h78v132q0 82 38 128t123 46q75 0 124.5 -32t60.5 -86l-1 -50h-47v34q-5 40 -43 64t-95 24q-51 0 -77 -31t-26 -106v-123h145v-47h-146v-316h229q7 0 10 1l4 2v123h56v-173z" />
    <glyph glyph-name="currency" unicode="&#xa4;" horiz-adv-x="614" 
d="M601 172q-24 -91 -93 -136t-169 -45q-57 0 -102.5 18.5t-78.5 53t-52.5 84t-23.5 111.5h-68v43h67v100h-67v43h67q3 64 22 115.5t52 87.5t80 55.5t106 19.5q81 0 137.5 -25.5t83.5 -67.5v84h35v-230h-52v33q-18 78 -73.5 116.5t-127.5 38.5q-93 0 -144 -59.5t-56 -167.5
h422v-43h-422v-100h422v-43h-421q8 -102 59 -159t139 -57q75 0 126 35.5t71 110.5v33h61v-49z" />
    <glyph glyph-name="currency" unicode="&#x20ac;" horiz-adv-x="614" 
d="M601 172q-24 -91 -93 -136t-169 -45q-57 0 -102.5 18.5t-78.5 53t-52.5 84t-23.5 111.5h-68v43h67v100h-67v43h67q3 64 22 115.5t52 87.5t80 55.5t106 19.5q81 0 137.5 -25.5t83.5 -67.5v84h35v-230h-52v33q-18 78 -73.5 116.5t-127.5 38.5q-93 0 -144 -59.5t-56 -167.5
h422v-43h-422v-100h422v-43h-421q8 -102 59 -159t139 -57q75 0 126 35.5t71 110.5v33h61v-49z" />
    <glyph glyph-name="yen" unicode="&#xa5;" horiz-adv-x="517" 
d="M513 659h-55l-138 -281h119v-47h-143l-10 -21v-61h154v-47h-154v-155h85v-47h-224v47h85v155h-158v47h158v56l-13 26h-144v47h121l-139 281h-53v47h190v-47h-81l146 -297l145 297h-75v47h184v-47z" />
    <glyph glyph-name="brokenbar" unicode="&#xa6;" horiz-adv-x="224" 
d="M140 410h-56v324h56v-324zM140 -80h-56v324h56v-324z" />
    <glyph glyph-name="section" unicode="&#xa7;" horiz-adv-x="500" 
d="M438 296q0 -68 -23.5 -99.5t-70.5 -42.5q37 -12 61.5 -42t24.5 -84q0 -84 -45 -116.5t-133 -32.5q-52 0 -86.5 10.5t-54.5 30t-28.5 47t-8.5 62.5v24h54v-17q0 -24 6 -44t20.5 -33.5t39 -21t61.5 -7.5q27 0 49.5 3.5t38 14t24 29.5t8.5 49q0 45 -24 70.5t-76 36.5
l-100 22q-35 7 -57 18t-34 28t-16.5 42.5t-4.5 61.5q0 68 23.5 99.5t70.5 42.5q-37 12 -61.5 42t-24.5 84q0 84 44.5 116.5t133.5 32.5q52 0 86.5 -10.5t54.5 -30t28.5 -47.5t8.5 -62v-24h-54v17q0 24 -6 44t-20.5 33.5t-39.5 21t-62 7.5q-27 0 -49 -4t-37.5 -14.5t-24 -29
t-8.5 -48.5q0 -45 24 -70.5t75 -36.5l101 -22q35 -8 57 -18.5t34 -27.5t16.5 -42t4.5 -62zM381 290q0 24 -2.5 40t-9.5 26.5t-19.5 17.5t-32.5 13l-124 36q-37 -8 -55 -32.5t-18 -78.5q0 -24 2.5 -40t9.5 -27t19.5 -18t32.5 -13l124 -36q37 8 55 33t18 79z" />
    <glyph glyph-name="dieresis" unicode="&#xa8;" horiz-adv-x="262" 
d="M253 632q0 -15 -10.5 -25t-25.5 -10t-25.5 10t-10.5 25t10.5 25t25.5 10t25.5 -10t10.5 -25zM81 632q0 -15 -10.5 -25t-25.5 -10t-25.5 10t-10.5 25t10.5 25t25.5 10t25.5 -10t10.5 -25z" />
    <glyph glyph-name="copyright" unicode="&#xa9;" horiz-adv-x="809" 
d="M773 359q0 -76 -29 -143t-78.5 -116.5t-116.5 -78.5t-143 -29t-143 29t-116.5 78.5t-78.5 116.5t-29 142q0 76 29 143t78.5 116.5t116.5 78.5t143 29t143 -29t116.5 -78.5t78.5 -116.5t29 -142zM725 358q0 67 -25 126t-68.5 102.5t-101.5 68.5t-124 25t-124 -25.5
t-101.5 -69t-68.5 -102t-25 -124.5q0 -68 25 -126.5t68.5 -102t101.5 -68.5t124 -25t124 25.5t101.5 69t68.5 102t25 124.5zM534 255q-14 -51 -51.5 -75.5t-92.5 -24.5q-67 0 -104.5 44.5t-37.5 120.5v74q0 76 37 120t106 44q45 0 76 -14.5t46 -37.5v47h19v-127h-29v18
q-9 43 -40 64t-70 21q-54 0 -82 -36t-28 -100v-71q0 -66 27.5 -102t81.5 -36q42 0 69.5 19t38.5 61v18h34v-27z" />
    <glyph glyph-name="ordfeminine" unicode="&#xaa;" horiz-adv-x="310" 
d="M309 412h-81l1 47q-21 -29 -50 -41t-69 -12q-43 0 -65.5 24t-22.5 66v20q0 48 28 71t88 23h88v43q0 43 -16.5 61.5t-51.5 18.5h-19q-33 0 -49.5 -14.5t-19.5 -44.5v-7h-37v11q0 40 26.5 61.5t77.5 21.5h26q101 0 101 -101v-220h45v-28zM226 533v50q-11 -1 -22 -1h-52
q-51 0 -71.5 -18t-20.5 -53v-12q0 -28 15.5 -46.5t46.5 -18.5q48 0 73 28.5t31 70.5z" />
    <glyph glyph-name="guillemotleft" unicode="&#xab;" horiz-adv-x="413" 
d="M342 454l-87 -194l86 -194l-46 -8l-91 202l92 202zM200 454l-87 -194l86 -194l-46 -8l-91 202l92 202z" />
    <glyph glyph-name="logicalnot" unicode="&#xac;" horiz-adv-x="619" 
d="M586 78h-56v227h-496v56h552v-283z" />
    <glyph glyph-name="registered" unicode="&#xae;" horiz-adv-x="809" 
d="M772 359q0 -76 -29 -143t-78.5 -116.5t-116.5 -78.5t-143 -29t-143 29t-116.5 78.5t-78.5 116.5t-29 142q0 76 29 143t78.5 116.5t116.5 78.5t143 29t143 -29t116.5 -78.5t78.5 -116.5t29 -142zM724 358q0 67 -25 126t-68.5 102.5t-101.5 68.5t-124 25t-124 -25.5
t-101.5 -69t-68.5 -102t-25 -124.5q0 -68 25 -126.5t68.5 -102t101.5 -68.5t124 -25t124 25.5t101.5 69t68.5 102t25 124.5zM572 160h-69v9l-21 111q-6 32 -20 47.5t-49 15.5h-74v-157h50v-26h-132v26h50v341h-50v26h173q51 0 72 -23.5t21 -60.5v-19q0 -13 -4.5 -29
t-12.5 -30.5t-20.5 -25t-28.5 -11.5q27 -3 39 -21t17 -41l20 -106h39v-26zM496 451v16q0 27 -20 43.5t-58 16.5h-79v-158h81q18 0 32 8t23.5 20t15 26.5t5.5 27.5z" />
    <glyph glyph-name="macron" unicode="&#xaf;" horiz-adv-x="262" 
d="M264 609h-268v46h268v-46z" />
    <glyph glyph-name="degree" unicode="&#xb0;" horiz-adv-x="387" 
d="M337 589q0 -30 -11.5 -56.5t-31 -46t-45.5 -30.5t-56 -11t-56.5 11t-46 30.5t-30.5 46t-11 56.5t11 56t30.5 45.5t46 31t56.5 11.5t56 -11.5t45.5 -31t31 -45.5t11.5 -56zM290 589q0 42 -27.5 69.5t-69.5 27.5t-69.5 -27.5t-27.5 -69.5t27.5 -69.5t69.5 -27.5t69.5 27.5
t27.5 69.5z" />
    <glyph glyph-name="plusminus" unicode="&#xb1;" horiz-adv-x="619" 
d="M575 301h-237v-202h-56v202h-236v56h236v202h56v-202h237v-56zM575 0h-529v56h529v-56z" />
    <glyph glyph-name="twosuperior" unicode="&#xb2;" horiz-adv-x="322" 
d="M294 278h-269v56q20 29 41 53t50 50q26 23 49.5 44.5t41 41t28 37t10.5 32.5v21q0 33 -19 52t-54 19h-21q-38 0 -59.5 -23t-21.5 -63v-14h-38v14q0 54 32.5 85.5t87.5 31.5h21q54 0 83 -26.5t29 -74.5v-29q0 -17 -13 -37t-33.5 -42t-46 -45t-50.5 -46q-24 -22 -44 -44.5
t-38 -48.5v-13h197v70h37v-101z" />
    <glyph glyph-name="threesuperior" unicode="&#xb3;" horiz-adv-x="322" 
d="M288 382q0 -51 -30.5 -80t-84.5 -29h-29q-57 0 -86.5 29t-29.5 84v10h40v-9q0 -39 21 -61.5t56 -22.5h25q36 0 56.5 21t20.5 58v27q0 74 -94 74h-22v29q24 6 45 17.5t36 26.5t24 31.5t9 32.5q0 28 -24 46t-62 18t-61.5 -19t-26.5 -50v-23h-39v33q0 42 36 66t90 24t90 -24
t36 -61v-12q0 -15 -8 -32t-21.5 -33t-32 -29.5t-39.5 -20.5q18 -2 36.5 -7t33.5 -16t25 -29t10 -45v-24z" />
    <glyph glyph-name="acute" unicode="&#xb4;" horiz-adv-x="262" 
d="M230 708l-111 -138h-57l92 138h76z" />
    <glyph glyph-name="mu" unicode="&#xb5;" horiz-adv-x="529" 
d="M513 0h-132v68q-25 -39 -67 -58.5t-96 -19.5q-26 0 -45 11t-28 24v-195h-58v686h-70v46h128v-384q0 -72 22 -107t74 -35q30 0 55 12t44 32.5t29.5 49t10.5 61.5v325h-74v46h132v-516h75v-46z" />
    <glyph glyph-name="paragraph" unicode="&#xb6;" horiz-adv-x="619" 
d="M503 667h-9v-783h-51v782h-130v-782h-51v472q-41 2 -74.5 15t-57 35.5t-36.5 53t-13 68.5q0 85 53.5 134.5t144.5 49.5h224v-45z" />
    <glyph glyph-name="periodcentered" unicode="&#xb7;" horiz-adv-x="232" 
d="M159 331h-77v76h77v-76z" />
    <glyph glyph-name="periodcentered" unicode="&#x2219;" horiz-adv-x="232" 
d="M159 331h-77v76h77v-76z" />
    <glyph glyph-name="cedilla" unicode="&#xb8;" horiz-adv-x="262" 
d="M208 -115q0 -30 -20 -49.5t-51 -19.5q-33 0 -62 5.5t-39 11.5l12 33q4 -2 24.5 -9t46.5 -7q15 0 24.5 10t9.5 25t-11.5 24.5t-28.5 9.5l-30 -4l-11 14l37 78h41l-27 -54h14q34 0 52.5 -18t18.5 -50z" />
    <glyph glyph-name="onesuperior" unicode="&#xb9;" horiz-adv-x="322" 
d="M259 278h-164v28h64v366q-21 -23 -46.5 -44.5t-50.5 -39.5v39q25 18 49 39t49 44h37v-404h62v-28z" />
    <glyph glyph-name="ordmasculine" unicode="&#xba;" horiz-adv-x="300" 
d="M291 560q0 -72 -32 -113t-90 -41h-34q-58 0 -90 41t-32 113v47q0 72 32 113t90 41h34q60 0 91 -41t31 -113v-47zM253 563v41q0 60 -24 94.5t-67 34.5h-20q-45 0 -68 -34.5t-23 -94.5v-41q0 -60 23 -94.5t68 -34.5h20q43 0 67 34.5t24 94.5z" />
    <glyph glyph-name="guillemotright" unicode="&#xbb;" horiz-adv-x="413" 
d="M349 260l-92 -202l-46 8l87 194l-88 194l46 8zM207 260l-92 -202l-46 8l87 194l-88 194l46 8z" />
    <glyph glyph-name="onequarter" unicode="&#xbc;" horiz-adv-x="750" 
d="M703 121h-58v-93h43v-28h-133v28h52v93h-198v40l187 270h49v-282h58v-28zM601 731l-417 -753l-40 4l418 753zM253 278h-164v28h64v366q-21 -23 -46.5 -44.5t-50.5 -39.5v39q25 18 49 39t49 44h37v-404h62v-28zM607 149v246l-167 -246h167z" />
    <glyph glyph-name="onehalf" unicode="&#xbd;" horiz-adv-x="750" 
d="M728 0h-269v56q20 29 41 53t50 50q26 23 49.5 44.5t41 41t28 37t10.5 32.5v21q0 33 -19 52t-54 19h-21q-38 0 -59.5 -23t-21.5 -63v-14h-38v14q0 54 32.5 85.5t87.5 31.5h21q54 0 83 -26.5t29 -74.5v-29q0 -17 -13 -37t-33.5 -42t-46 -45t-50.5 -46q-24 -22 -44 -44.5
t-38 -48.5v-13h197v70h37v-101zM596 731l-417 -753l-40 4l418 753zM253 278h-164v28h64v366q-21 -23 -46.5 -44.5t-50.5 -39.5v39q25 18 49 39t49 44h37v-404h62v-28z" />
    <glyph glyph-name="threequarters" unicode="&#xbe;" horiz-adv-x="750" 
d="M725 121h-58v-93h43v-28h-133v28h52v93h-198v40l187 270h49v-282h58v-28zM629 731l-417 -753l-40 4l418 753zM283 382q0 -51 -30.5 -80t-84.5 -29h-29q-57 0 -86.5 29t-29.5 84v10h40v-9q0 -39 21 -61.5t56 -22.5h25q36 0 56.5 21t20.5 58v27q0 74 -94 74h-22v29
q24 6 45 17.5t36 26.5t24 31.5t9 32.5q0 28 -24 46t-62 18t-61.5 -19t-26.5 -50v-23h-39v33q0 42 36 66t90 24t90 -24t36 -61v-12q0 -15 -8 -32t-21.5 -33t-32 -29.5t-39.5 -20.5q18 -2 36.5 -7t33.5 -16t25 -29t10 -45v-24zM629 149v246l-167 -246h167z" />
    <glyph glyph-name="questiondown" unicode="&#xbf;" 
d="M310 518h-74v75h74v-75zM421 26q0 -72 -42.5 -113.5t-141.5 -41.5q-97 0 -140 40.5t-43 107.5v64q0 63 25.5 100t70.5 64q48 29 70 54.5t22 59.5v67h60v-85q0 -39 -24 -66.5t-75 -54.5q-17 -12 -32.5 -26t-28 -31.5t-20 -39t-7.5 -48.5v-50q0 -51 32.5 -80t93.5 -29
q58 0 89 29.5t31 86.5v21h60v-29z" />
    <glyph glyph-name="Agrave" unicode="&#xc0;" horiz-adv-x="724" 
d="M429 758h-58l-111 138h76zM694 0h-219v47h92l-68 208h-275l-69 -208h92v-47h-218v47h63l229 666h84l225 -666h64v-47zM484 302l-122 367l-123 -367h245z" />
    <glyph glyph-name="Aacute" unicode="&#xc1;" horiz-adv-x="724" 
d="M468 896l-111 -138h-57l92 138h76zM694 0h-219v47h92l-68 208h-275l-69 -208h92v-47h-218v47h63l229 666h84l225 -666h64v-47zM484 302l-122 367l-123 -367h245z" />
    <glyph glyph-name="Acircumflex" unicode="&#xc2;" horiz-adv-x="683" 
d="M472 758h-60l-69 100l-69 -100h-60l97 138h64zM673 0h-219v47h92l-68 208h-275l-69 -208h92v-47h-218v47h63l229 666h84l225 -666h64v-47zM463 302l-122 367l-123 -367h245z" />
    <glyph glyph-name="Atilde" unicode="&#xc3;" horiz-adv-x="724" 
d="M508 870q-8 -92 -76 -92q-27 0 -70 21q-43 22 -64 22q-32 0 -38 -41h-39q6 92 76 92q27 0 70 -22q43 -21 64 -21q32 0 37 41h40zM694 0h-219v47h92l-68 208h-275l-69 -208h92v-47h-218v47h63l229 666h84l225 -666h64v-47zM484 302l-122 367l-123 -367h245z" />
    <glyph glyph-name="Adieresis" unicode="&#xc4;" horiz-adv-x="701" 
d="M478 820q0 -15 -10.5 -25t-25.5 -10t-25.5 10t-10.5 25t10.5 25t25.5 10t25.5 -10t10.5 -25zM306 820q0 -15 -10.5 -25t-25.5 -10t-25.5 10t-10.5 25t10.5 25t25.5 10t25.5 -10t10.5 -25zM686 0h-219v47h92l-68 208h-275l-69 -208h92v-47h-218v47h63l229 666h84l225 -666
h64v-47zM476 302l-122 367l-123 -367h245z" />
    <glyph glyph-name="Aring" unicode="&#xc5;" horiz-adv-x="683" 
d="M428 817q0 -36 -25.5 -61.5t-61.5 -25.5t-62 25.5t-26 61.5t26 61.5t62 25.5t61.5 -25.5t25.5 -61.5zM673 0h-219v47h92l-68 208h-275l-69 -208h92v-47h-218v47h63l229 666h84l225 -666h64v-47zM392 817q0 22 -15 36.5t-36 14.5q-22 0 -37 -14.5t-15 -36.5t15 -36.5
t37 -14.5q21 0 36 14.5t15 36.5zM463 302l-122 367l-123 -367h245z" />
    <glyph glyph-name="AE" unicode="&#xc6;" horiz-adv-x="901" 
d="M853 0h-461v47h98l-22 208h-252l-100 -208h92v-47h-200v47h50l325 667l466 -1v-201h-52v154h-314l30 -277l173 -1v85h45v-221h-45v89h-168l31 -294h251v162h53v-209zM464 302l-40 367h-7l-181 -367h228z" />
    <glyph glyph-name="Ccedilla" unicode="&#xc7;" horiz-adv-x="614" 
d="M571 172q-22 -81 -79.5 -126t-142.5 -53l-20 -40h14q34 0 52.5 -18t18.5 -50q0 -30 -20 -49.5t-51 -19.5q-33 0 -62 5.5t-39 11.5l12 33q4 -2 24.5 -9t46.5 -7q15 0 24.5 10t9.5 25t-11.5 24.5t-28.5 9.5l-30 -4l-11 14l29 62q-60 0 -107.5 21.5t-80.5 60.5t-50.5 94.5
t-17.5 123.5v133q0 69 17.5 124t51 94t81.5 59.5t110 20.5q81 0 137.5 -25.5t83.5 -67.5v84h35v-230h-52v33q-18 78 -73.5 116.5t-127.5 38.5q-97 0 -148.5 -65.5t-51.5 -183.5v-129q0 -118 51 -184.5t148 -66.5q75 0 126 35.5t71 110.5v33h61v-49z" />
    <glyph glyph-name="Egrave" unicode="&#xc8;" horiz-adv-x="557" 
d="M356 758h-58l-111 138h76zM527 0h-503v47h90v619h-90v47h499v-201h-52v154h-298v-277l187 -1v85h45v-221h-45v89h-187v-294h301v162h53v-209z" />
    <glyph glyph-name="Eacute" unicode="&#xc9;" horiz-adv-x="557" 
d="M395 896l-111 -138h-57l92 138h76zM527 0h-503v47h90v619h-90v47h499v-201h-52v154h-298v-277l187 -1v85h45v-221h-45v89h-187v-294h301v162h53v-209z" />
    <glyph glyph-name="Ecircumflex" unicode="&#xca;" horiz-adv-x="575" 
d="M415 758h-60l-69 100l-69 -100h-60l97 138h64zM522 0h-503v47h90v619h-90v47h499v-201h-52v154h-298v-277l187 -1v85h45v-221h-45v89h-187v-294h301v162h53v-209z" />
    <glyph glyph-name="Edieresis" unicode="&#xcb;" horiz-adv-x="575" 
d="M408 820q0 -15 -10.5 -25t-25.5 -10t-25.5 10t-10.5 25t10.5 25t25.5 10t25.5 -10t10.5 -25zM236 820q0 -15 -10.5 -25t-25.5 -10t-25.5 10t-10.5 25t10.5 25t25.5 10t25.5 -10t10.5 -25zM522 0h-503v47h90v619h-90v47h499v-201h-52v154h-298v-277l187 -1v85h45v-221h-45
v89h-187v-294h301v162h53v-209z" />
    <glyph glyph-name="Igrave" unicode="&#xcc;" horiz-adv-x="277" 
d="M208 758h-58l-111 138h76zM258 0h-238v47h90v619h-90v47h238v-47h-90v-619h90v-47z" />
    <glyph glyph-name="Iacute" unicode="&#xcd;" horiz-adv-x="277" 
d="M247 896l-111 -138h-57l92 138h76zM258 0h-238v47h90v619h-90v47h238v-47h-90v-619h90v-47z" />
    <glyph glyph-name="Icircumflex" unicode="&#xce;" horiz-adv-x="277" 
d="M272 758h-60l-69 100l-69 -100h-60l97 138h64zM258 0h-238v47h90v619h-90v47h238v-47h-90v-619h90v-47z" />
    <glyph glyph-name="Idieresis" unicode="&#xcf;" horiz-adv-x="277" 
d="M265 820q0 -15 -10.5 -25t-25.5 -10t-25.5 10t-10.5 25t10.5 25t25.5 10t25.5 -10t10.5 -25zM93 820q0 -15 -10.5 -25t-25.5 -10t-25.5 10t-10.5 25t10.5 25t25.5 10t25.5 -10t10.5 -25zM258 0h-238v47h90v619h-90v47h238v-47h-90v-619h90v-47z" />
    <glyph glyph-name="Eth" unicode="&#xd0;" horiz-adv-x="639" 
d="M587 294q0 -294 -290 -294h-279v47h90v315h-89v44h89v262l-90 -1v46h292q134 0 205.5 -75.5t71.5 -215.5v-128zM524 294v132q0 112 -57.5 176t-163.5 64h-136v-260h172v-44h-172v-315h126q112 0 171.5 64.5t59.5 182.5z" />
    <glyph glyph-name="Ntilde" unicode="&#xd1;" horiz-adv-x="677" 
d="M486 870q-8 -92 -76 -92q-27 0 -70 21q-43 22 -64 22q-32 0 -38 -41h-39q6 92 76 92q27 0 70 -22q43 -21 64 -21q32 0 37 41h40zM667 666h-81v-666h-78l-343 653v-606h92v-47h-238v47h90v619h-90v47h177q42 -83 83.5 -162.5t83.5 -157.5t83.5 -157.5t83.5 -162.5v593h-91
v47h228v-47z" />
    <glyph glyph-name="Ograve" unicode="&#xd2;" horiz-adv-x="625" 
d="M387 758h-58l-111 138h76zM595 294q0 -71 -17.5 -127t-51 -95t-82 -60t-110.5 -21h-44q-62 0 -110 21t-81.5 60t-51 95t-17.5 127v125q0 70 17.5 126.5t51 95.5t81.5 60t110 21h44q62 0 110.5 -21t82 -60t51 -95.5t17.5 -126.5v-125zM532 296v121q0 121 -51 189.5
t-151 68.5h-36q-100 0 -150.5 -68.5t-50.5 -189.5v-121q0 -121 50.5 -189.5t150.5 -68.5h36q100 0 151 68.5t51 189.5z" />
    <glyph glyph-name="Oacute" unicode="&#xd3;" horiz-adv-x="625" 
d="M426 896l-111 -138h-57l92 138h76zM595 294q0 -71 -17.5 -127t-51 -95t-82 -60t-110.5 -21h-44q-62 0 -110 21t-81.5 60t-51 95t-17.5 127v125q0 70 17.5 126.5t51 95.5t81.5 60t110 21h44q62 0 110.5 -21t82 -60t51 -95.5t17.5 -126.5v-125zM532 296v121
q0 121 -51 189.5t-151 68.5h-36q-100 0 -150.5 -68.5t-50.5 -189.5v-121q0 -121 50.5 -189.5t150.5 -68.5h36q100 0 151 68.5t51 189.5z" />
    <glyph glyph-name="Ocircumflex" unicode="&#xd4;" horiz-adv-x="666" 
d="M472 758h-60l-69 100l-69 -100h-60l97 138h64zM616 294q0 -71 -17.5 -127t-51 -95t-82 -60t-110.5 -21h-44q-62 0 -110 21t-81.5 60t-51 95t-17.5 127v125q0 70 17.5 126.5t51 95.5t81.5 60t110 21h44q62 0 110.5 -21t82 -60t51 -95.5t17.5 -126.5v-125zM553 296v121
q0 121 -51 189.5t-151 68.5h-36q-100 0 -150.5 -68.5t-50.5 -189.5v-121q0 -121 50.5 -189.5t150.5 -68.5h36q100 0 151 68.5t51 189.5z" />
    <glyph glyph-name="Otilde" unicode="&#xd5;" horiz-adv-x="625" 
d="M466 870q-8 -92 -76 -92q-27 0 -70 21q-43 22 -64 22q-32 0 -38 -41h-39q6 92 76 92q27 0 70 -22q43 -21 64 -21q32 0 37 41h40zM595 294q0 -71 -17.5 -127t-51 -95t-82 -60t-110.5 -21h-44q-62 0 -110 21t-81.5 60t-51 95t-17.5 127v125q0 70 17.5 126.5t51 95.5
t81.5 60t110 21h44q62 0 110.5 -21t82 -60t51 -95.5t17.5 -126.5v-125zM532 296v121q0 121 -51 189.5t-151 68.5h-36q-100 0 -150.5 -68.5t-50.5 -189.5v-121q0 -121 50.5 -189.5t150.5 -68.5h36q100 0 151 68.5t51 189.5z" />
    <glyph glyph-name="Odieresis" unicode="&#xd6;" horiz-adv-x="666" 
d="M465 820q0 -15 -10.5 -25t-25.5 -10t-25.5 10t-10.5 25t10.5 25t25.5 10t25.5 -10t10.5 -25zM293 820q0 -15 -10.5 -25t-25.5 -10t-25.5 10t-10.5 25t10.5 25t25.5 10t25.5 -10t10.5 -25zM616 294q0 -71 -17.5 -127t-51 -95t-82 -60t-110.5 -21h-44q-62 0 -110 21
t-81.5 60t-51 95t-17.5 127v125q0 70 17.5 126.5t51 95.5t81.5 60t110 21h44q62 0 110.5 -21t82 -60t51 -95.5t17.5 -126.5v-125zM553 296v121q0 121 -51 189.5t-151 68.5h-36q-100 0 -150.5 -68.5t-50.5 -189.5v-121q0 -121 50.5 -189.5t150.5 -68.5h36q100 0 151 68.5
t51 189.5z" />
    <glyph glyph-name="multiply" unicode="&#xd7;" horiz-adv-x="619" 
d="M544 65l-37 -37l-198 198l-198 -198l-37 37l198 198l-198 198l37 37l198 -198l198 198l37 -37l-198 -198z" />
    <glyph glyph-name="Oslash" unicode="&#xd8;" horiz-adv-x="666" 
d="M623 709l-64 -83q57 -77 57 -207v-125q0 -71 -17.5 -127t-51 -95t-82 -60t-110.5 -21h-44q-118 0 -184 72l-60 -79l-26 21l65 84q-55 73 -55 205v125q0 70 17.5 126.5t51 95.5t81.5 60t110 21h44q118 0 182 -70l60 78zM501 605v1q-51 69 -150 69h-36q-100 0 -150.5 -68.5
t-50.5 -189.5v-121q0 -101 31 -156zM553 296v121q0 102 -33 158l-357 -466q1 -1 1 -2l1 -1q53 -68 150 -68h36q100 0 151 68.5t51 189.5z" />
    <glyph glyph-name="Ugrave" unicode="&#xd9;" horiz-adv-x="631" 
d="M386 758h-58l-111 138h76zM622 666h-72v-453q0 -106 -54.5 -164t-157.5 -58h-44q-211 0 -211 223v452h-73v47h228v-47h-96v-453q0 -85 40 -130t116 -45h34q159 0 159 176v452h-97v47h228v-47z" />
    <glyph glyph-name="Uacute" unicode="&#xda;" horiz-adv-x="631" 
d="M425 896l-111 -138h-57l92 138h76zM622 666h-72v-453q0 -106 -54.5 -164t-157.5 -58h-44q-211 0 -211 223v452h-73v47h228v-47h-96v-453q0 -85 40 -130t116 -45h34q159 0 159 176v452h-97v47h228v-47z" />
    <glyph glyph-name="Ucircumflex" unicode="&#xdb;" horiz-adv-x="631" 
d="M450 758h-60l-69 100l-69 -100h-60l97 138h64zM622 666h-72v-453q0 -106 -54.5 -164t-157.5 -58h-44q-211 0 -211 223v452h-73v47h228v-47h-96v-453q0 -85 40 -130t116 -45h34q159 0 159 176v452h-97v47h228v-47z" />
    <glyph glyph-name="Udieresis" unicode="&#xdc;" horiz-adv-x="631" 
d="M443 820q0 -15 -10.5 -25t-25.5 -10t-25.5 10t-10.5 25t10.5 25t25.5 10t25.5 -10t10.5 -25zM271 820q0 -15 -10.5 -25t-25.5 -10t-25.5 10t-10.5 25t10.5 25t25.5 10t25.5 -10t10.5 -25zM622 666h-72v-453q0 -106 -54.5 -164t-157.5 -58h-44q-211 0 -211 223v452h-73v47
h228v-47h-96v-453q0 -85 40 -130t116 -45h34q159 0 159 176v452h-97v47h228v-47z" />
    <glyph glyph-name="Yacute" unicode="&#xdd;" horiz-adv-x="598" 
d="M406 896l-111 -138h-57l92 138h76zM597 666h-61l-206 -357v-262h101v-47h-261v47h101v260l-208 359h-61v47h222v-47h-95l171 -301l173 301h-89v47h213v-47z" />
    <glyph glyph-name="Thorn" unicode="&#xde;" horiz-adv-x="529" 
d="M513 354q0 -178 -194 -178h-151v-129h106v-47h-255v47h90v619h-91v47h255v-47h-105v-90h149q196 0 196 -175v-47zM451 356v41q0 69 -35 101t-110 32h-138v-307h140q143 0 143 133z" />
    <glyph glyph-name="germandbls" unicode="&#xdf;" 
d="M445 165q0 -72 -37.5 -118.5t-113.5 -46.5h-52v46h39q55 0 81 35.5t26 92.5v50q0 133 -133 133h-14v49h12q57 0 87 30t30 87v42q0 61 -31.5 86t-82.5 25q-26 0 -48 -7t-37.5 -23.5t-24.5 -44.5t-9 -70v-484h34v-47h-154v46h63v489q0 102 46 144.5t128 42.5
q173 0 173 -156v-50q0 -57 -28 -92t-88 -42q69 -8 101.5 -48.5t32.5 -112.5v-56z" />
    <glyph glyph-name="agrave" unicode="&#xe0;" 
d="M308 620h-58l-111 138h76zM469 0h-121l1 77q-31 -48 -74 -67.5t-103 -19.5q-66 0 -99 40t-33 107v34q0 76 41 114.5t132 38.5h132v71q0 70 -25 100.5t-77 30.5h-28q-103 0 -103 -96v-12h-56v18q0 66 40.5 101t115.5 35h38q76 0 114 -42t38 -123v-361h67v-46zM345 199v65
q-20 7 -43 11t-68 4q-75 0 -106 -29.5t-31 -87.5v-20q0 -45 23 -75.5t69 -30.5q36 0 63 12.5t46 34.5t30.5 51.5t16.5 64.5z" />
    <glyph glyph-name="aacute" unicode="&#xe1;" 
d="M346 758l-111 -138h-57l92 138h76zM469 0h-121l1 77q-31 -48 -74 -67.5t-103 -19.5q-66 0 -99 40t-33 107v34q0 76 41 114.5t132 38.5h132v71q0 70 -25 100.5t-77 30.5h-28q-103 0 -103 -96v-12h-56v18q0 66 40.5 101t115.5 35h38q76 0 114 -42t38 -123v-361h67v-46z
M345 199v65q-20 7 -43 11t-68 4q-75 0 -106 -29.5t-31 -87.5v-20q0 -45 23 -75.5t69 -30.5q36 0 63 12.5t46 34.5t30.5 51.5t16.5 64.5z" />
    <glyph glyph-name="acircumflex" unicode="&#xe2;" 
d="M371 620h-60l-69 100l-69 -100h-60l97 138h64zM469 0h-121l1 77q-31 -48 -74 -67.5t-103 -19.5q-66 0 -99 40t-33 107v34q0 76 41 114.5t132 38.5h132v71q0 70 -25 100.5t-77 30.5h-28q-103 0 -103 -96v-12h-56v18q0 66 40.5 101t115.5 35h38q76 0 114 -42t38 -123v-361
h67v-46zM345 199v65q-20 7 -43 11t-68 4q-75 0 -106 -29.5t-31 -87.5v-20q0 -45 23 -75.5t69 -30.5q36 0 63 12.5t46 34.5t30.5 51.5t16.5 64.5z" />
    <glyph glyph-name="atilde" unicode="&#xe3;" 
d="M386 682q-8 -92 -76 -92q-27 0 -70 21q-43 22 -64 22q-32 0 -38 -41h-39q6 92 76 92q27 0 70 -22q43 -21 64 -21q32 0 37 41h40zM469 0h-121l1 77q-31 -48 -74 -67.5t-103 -19.5q-66 0 -99 40t-33 107v34q0 76 41 114.5t132 38.5h132v71q0 70 -25 100.5t-77 30.5h-28
q-103 0 -103 -96v-12h-56v18q0 66 40.5 101t115.5 35h38q76 0 114 -42t38 -123v-361h67v-46zM345 199v65q-20 7 -43 11t-68 4q-75 0 -106 -29.5t-31 -87.5v-20q0 -45 23 -75.5t69 -30.5q36 0 63 12.5t46 34.5t30.5 51.5t16.5 64.5z" />
    <glyph glyph-name="adieresis" unicode="&#xe4;" 
d="M364 632q0 -15 -10.5 -25t-25.5 -10t-25.5 10t-10.5 25t10.5 25t25.5 10t25.5 -10t10.5 -25zM192 632q0 -15 -10.5 -25t-25.5 -10t-25.5 10t-10.5 25t10.5 25t25.5 10t25.5 -10t10.5 -25zM469 0h-121l1 77q-31 -48 -74 -67.5t-103 -19.5q-66 0 -99 40t-33 107v34
q0 76 41 114.5t132 38.5h132v71q0 70 -25 100.5t-77 30.5h-28q-103 0 -103 -96v-12h-56v18q0 66 40.5 101t115.5 35h38q76 0 114 -42t38 -123v-361h67v-46zM345 199v65q-20 7 -43 11t-68 4q-75 0 -106 -29.5t-31 -87.5v-20q0 -45 23 -75.5t69 -30.5q36 0 63 12.5t46 34.5
t30.5 51.5t16.5 64.5z" />
    <glyph glyph-name="aring" unicode="&#xe5;" 
d="M469 0h-121l1 77q-31 -48 -74 -67.5t-103 -19.5q-66 0 -99 40t-33 107v34q0 76 41 114.5t132 38.5h132v71q0 70 -25 100.5t-77 30.5h-28q-103 0 -103 -96v-12h-56v18q0 61 35 95.5t101 39.5q-18 12 -29 31t-11 42q0 36 26 61.5t62 25.5t61.5 -25.5t25.5 -61.5
q0 -24 -11.5 -43.5t-30.5 -31.5q117 -18 117 -162v-361h67v-46zM291 644q0 22 -15 36.5t-36 14.5q-22 0 -37 -14.5t-15 -36.5t15 -36.5t37 -14.5q21 0 36 14.5t15 36.5zM345 199v65q-20 7 -43 11t-68 4q-75 0 -106 -29.5t-31 -87.5v-20q0 -45 23 -75.5t69 -30.5
q36 0 63 12.5t46 34.5t30.5 51.5t16.5 64.5z" />
    <glyph glyph-name="ae" unicode="&#xe6;" horiz-adv-x="720" 
d="M678 320l-3 -53h-293v-25q0 -97 26.5 -151.5t80.5 -54.5h36q22 0 39.5 10t29.5 28t18.5 42t6.5 52v9h51v-13q0 -42 -11 -74.5t-29.5 -54.5t-43 -33.5t-51.5 -11.5h-46q-49 0 -86 26.5t-52 86.5q-16 -60 -57 -86.5t-116 -26.5q-69 0 -103.5 40t-34.5 107v34q0 76 39.5 117
t124.5 36l126 -7l-1 78q-1 70 -23 100.5t-71 30.5h-28q-45 0 -70 -23.5t-25 -72.5v-12h-56v18q0 66 38.5 101t110.5 35h38q100 0 124 -90q14 42 44 66t82 24h40q75 0 113.5 -67t31.5 -185zM621 343q0 88 -25.5 135.5t-79.5 47.5h-30q-51 0 -77.5 -55t-26.5 -149v-10h235z
M330 267q-14 3 -31 6q-14 2 -33 4t-40 2q-70 0 -99.5 -29.5t-29.5 -87.5v-20q0 -45 21 -75.5t64 -30.5q34 0 59.5 12.5t43.5 34.5t28.5 51.5t15.5 64.5z" />
    <glyph glyph-name="ccedilla" unicode="&#xe7;" horiz-adv-x="465" 
d="M431 175q-5 -88 -43 -136.5t-93 -48.5h-25l-19 -37h14q34 0 52.5 -18t18.5 -50q0 -30 -20 -49.5t-51 -19.5q-33 0 -62 5.5t-39 11.5l12 33q4 -2 24.5 -9t46.5 -7q15 0 24.5 10t9.5 25t-11.5 24.5t-28.5 9.5l-30 -4l-11 14l29 61q-85 3 -131 70t-46 179v84
q0 118 47.5 183.5t138.5 65.5q60 0 97 -19.5t64 -50.5v60h31v-173h-47v19q-11 57 -44.5 87.5t-96.5 30.5q-32 0 -56.5 -15t-42 -42t-26.5 -65.5t-9 -85.5v-72q0 -47 9.5 -85.5t26.5 -66.5t42 -43t57 -15h38q22 0 39.5 12.5t29.5 32t19.5 44.5t10.5 50h51z" />
    <glyph glyph-name="egrave" unicode="&#xe8;" horiz-adv-x="477" 
d="M317 610h-58l-111 138h76zM442 267h-344v-25q0 -97 33.5 -151.5t99.5 -54.5h36q53 0 82 38t34 94v9h51v-13q-10 -85 -53.5 -129.5t-106.5 -44.5h-46q-94 0 -140 64t-46 185v78q0 121 45 188t136 67h40q88 0 133.5 -67t45.5 -185v-53zM385 312v31q0 88 -33 135.5t-96 47.5
h-30q-30 0 -54 -14.5t-40.5 -41.5t-25 -64.5t-8.5 -83.5v-10h287z" />
    <glyph glyph-name="eacute" unicode="&#xe9;" horiz-adv-x="477" 
d="M356 748l-111 -138h-57l92 138h76zM442 267h-344v-25q0 -97 33.5 -151.5t99.5 -54.5h36q53 0 82 38t34 94v9h51v-13q-10 -85 -53.5 -129.5t-106.5 -44.5h-46q-94 0 -140 64t-46 185v78q0 121 45 188t136 67h40q88 0 133.5 -67t45.5 -185v-53zM385 312v31q0 88 -33 135.5
t-96 47.5h-30q-30 0 -54 -14.5t-40.5 -41.5t-25 -64.5t-8.5 -83.5v-10h287z" />
    <glyph glyph-name="ecircumflex" unicode="&#xea;" horiz-adv-x="477" 
d="M381 610h-60l-69 100l-69 -100h-60l97 138h64zM442 267h-344v-25q0 -97 33.5 -151.5t99.5 -54.5h36q53 0 82 38t34 94v9h51v-13q-10 -85 -53.5 -129.5t-106.5 -44.5h-46q-94 0 -140 64t-46 185v78q0 121 45 188t136 67h40q88 0 133.5 -67t45.5 -185v-53zM385 312v31
q0 88 -33 135.5t-96 47.5h-30q-30 0 -54 -14.5t-40.5 -41.5t-25 -64.5t-8.5 -83.5v-10h287z" />
    <glyph glyph-name="edieresis" unicode="&#xeb;" horiz-adv-x="477" 
d="M374 632q0 -15 -10.5 -25t-25.5 -10t-25.5 10t-10.5 25t10.5 25t25.5 10t25.5 -10t10.5 -25zM202 632q0 -15 -10.5 -25t-25.5 -10t-25.5 10t-10.5 25t10.5 25t25.5 10t25.5 -10t10.5 -25zM442 267h-344v-25q0 -97 33.5 -151.5t99.5 -54.5h36q53 0 82 38t34 94v9h51v-13
q-10 -85 -53.5 -129.5t-106.5 -44.5h-46q-94 0 -140 64t-46 185v78q0 121 45 188t136 67h40q88 0 133.5 -67t45.5 -185v-53zM385 312v31q0 88 -33 135.5t-96 47.5h-30q-30 0 -54 -14.5t-40.5 -41.5t-25 -64.5t-8.5 -83.5v-10h287z" />
    <glyph glyph-name="igrave" unicode="&#xec;" horiz-adv-x="245" 
d="M177 610h-58l-111 138h76zM225 0h-210v46h78v470h-78v46h136v-516h74v-46z" />
    <glyph glyph-name="iacute" unicode="&#xed;" horiz-adv-x="245" 
d="M216 748l-111 -138h-57l92 138h76zM225 0h-210v46h78v470h-78v46h136v-516h74v-46z" />
    <glyph glyph-name="icircumflex" unicode="&#xee;" horiz-adv-x="245" 
d="M241 610h-60l-69 100l-69 -100h-60l97 138h64zM225 0h-210v46h78v470h-78v46h136v-516h74v-46z" />
    <glyph glyph-name="idieresis" unicode="&#xef;" horiz-adv-x="245" 
d="M234 632q0 -15 -10.5 -25t-25.5 -10t-25.5 10t-10.5 25t10.5 25t25.5 10t25.5 -10t10.5 -25zM62 632q0 -15 -10.5 -25t-25.5 -10t-25.5 10t-10.5 25t10.5 25t25.5 10t25.5 -10t10.5 -25zM225 0h-210v46h78v470h-78v46h136v-516h74v-46z" />
    <glyph glyph-name="eth" unicode="&#xf0;" horiz-adv-x="496" 
d="M456 236q0 -56 -12 -101.5t-35.5 -78t-56.5 -50t-75 -17.5h-54q-42 0 -75.5 17t-57 48.5t-36.5 74.5t-13 96v84q0 54 12.5 98.5t35.5 76t56.5 49t75.5 17.5q40 0 78 -10t66 -40q-25 66 -100 118h-1l-138 -62l-27 32l124 57q-60 32 -135 50l29 27q89 -42 127 -68l115 53
l31 -32l-105 -48q32 -25 55 -45t37 -36q79 -88 79 -228v-82zM399 234v66q0 92 -34 148t-99 56h-34q-64 0 -99 -55.5t-35 -145.5v-72q0 -88 36 -142t100 -54h30q64 0 99.5 54t35.5 145z" />
    <glyph glyph-name="ntilde" unicode="&#xf1;" horiz-adv-x="529" 
d="M423 682q-8 -92 -76 -92q-27 0 -70 21q-43 22 -64 22q-32 0 -38 -41h-39q6 92 76 92q27 0 70 -22q43 -21 64 -21q32 0 37 41h40zM514 0h-207v46h78v337q0 69 -22.5 106t-70.5 37q-32 0 -58 -11.5t-44.5 -32t-29 -49t-10.5 -62.5v-325h72v-46h-206v46h77v470h-78v46h135
v-61q26 40 67 55.5t89 15.5q69 0 102.5 -45t33.5 -130v-351h72v-46z" />
    <glyph glyph-name="ograve" unicode="&#xf2;" horiz-adv-x="496" 
d="M318 610h-58l-111 138h76zM457 243q0 -117 -48 -185t-135 -68h-50q-87 0 -134.5 68t-47.5 185v76q0 117 47.5 185t134.5 68h50q88 0 135.5 -68t47.5 -185v-76zM400 248v66q0 97 -35 154.5t-101 57.5h-30q-66 0 -100.5 -57.5t-34.5 -154.5v-66q0 -97 34.5 -154.5
t100.5 -57.5h30q66 0 101 57.5t35 154.5z" />
    <glyph glyph-name="oacute" unicode="&#xf3;" horiz-adv-x="496" 
d="M357 748l-111 -138h-57l92 138h76zM457 243q0 -117 -48 -185t-135 -68h-50q-87 0 -134.5 68t-47.5 185v76q0 117 47.5 185t134.5 68h50q88 0 135.5 -68t47.5 -185v-76zM400 248v66q0 97 -35 154.5t-101 57.5h-30q-66 0 -100.5 -57.5t-34.5 -154.5v-66q0 -97 34.5 -154.5
t100.5 -57.5h30q66 0 101 57.5t35 154.5z" />
    <glyph glyph-name="ocircumflex" unicode="&#xf4;" horiz-adv-x="496" 
d="M382 610h-60l-69 100l-69 -100h-60l97 138h64zM457 243q0 -117 -48 -185t-135 -68h-50q-87 0 -134.5 68t-47.5 185v76q0 117 47.5 185t134.5 68h50q88 0 135.5 -68t47.5 -185v-76zM400 248v66q0 97 -35 154.5t-101 57.5h-30q-66 0 -100.5 -57.5t-34.5 -154.5v-66
q0 -97 34.5 -154.5t100.5 -57.5h30q66 0 101 57.5t35 154.5z" />
    <glyph glyph-name="otilde" unicode="&#xf5;" horiz-adv-x="496" 
d="M397 682q-8 -92 -76 -92q-27 0 -70 21q-43 22 -64 22q-32 0 -38 -41h-39q6 92 76 92q27 0 70 -22q43 -21 64 -21q32 0 37 41h40zM457 243q0 -117 -48 -185t-135 -68h-50q-87 0 -134.5 68t-47.5 185v76q0 117 47.5 185t134.5 68h50q88 0 135.5 -68t47.5 -185v-76zM400 248
v66q0 97 -35 154.5t-101 57.5h-30q-66 0 -100.5 -57.5t-34.5 -154.5v-66q0 -97 34.5 -154.5t100.5 -57.5h30q66 0 101 57.5t35 154.5z" />
    <glyph glyph-name="odieresis" unicode="&#xf6;" horiz-adv-x="496" 
d="M375 632q0 -15 -10.5 -25t-25.5 -10t-25.5 10t-10.5 25t10.5 25t25.5 10t25.5 -10t10.5 -25zM203 632q0 -15 -10.5 -25t-25.5 -10t-25.5 10t-10.5 25t10.5 25t25.5 10t25.5 -10t10.5 -25zM457 243q0 -117 -48 -185t-135 -68h-50q-87 0 -134.5 68t-47.5 185v76
q0 117 47.5 185t134.5 68h50q88 0 135.5 -68t47.5 -185v-76zM400 248v66q0 97 -35 154.5t-101 57.5h-30q-66 0 -100.5 -57.5t-34.5 -154.5v-66q0 -97 34.5 -154.5t100.5 -57.5h30q66 0 101 57.5t35 154.5z" />
    <glyph glyph-name="divide" unicode="&#xf7;" horiz-adv-x="619" 
d="M350 418h-74v75h74v-75zM586 235h-552v56h552v-56zM350 -2h-74v75h74v-75z" />
    <glyph glyph-name="oslash" unicode="&#xf8;" horiz-adv-x="496" 
d="M469 559l-52 -72q36 -62 36 -168v-76q0 -117 -47 -185t-133 -68h-50q-83 0 -126 57l-46 -64l-25 21l52 72q-36 61 -36 167v76q0 117 47 185t134 68h50q80 0 124 -56l47 65zM361 467v1q-34 58 -98 58h-30q-66 0 -100 -57.5t-34 -154.5v-66q0 -74 18 -119zM396 248v66
q0 75 -18 119l-246 -338q1 -1 1 -2q34 -57 100 -57h30q64 0 98.5 57.5t34.5 154.5z" />
    <glyph glyph-name="ugrave" unicode="&#xf9;" horiz-adv-x="529" 
d="M329 600h-58l-111 138h76zM513 0h-131v68q-25 -39 -66.5 -58.5t-93.5 -19.5q-69 0 -102 46t-33 134v346h-70v46h127v-384q0 -72 22.5 -107t74.5 -35q30 0 55.5 12t44.5 32.5t29.5 49t10.5 61.5v325h-74v46h131v-516h75v-46z" />
    <glyph glyph-name="uacute" unicode="&#xfa;" horiz-adv-x="529" 
d="M368 738l-111 -138h-57l92 138h76zM513 0h-131v68q-25 -39 -66.5 -58.5t-93.5 -19.5q-69 0 -102 46t-33 134v346h-70v46h127v-384q0 -72 22.5 -107t74.5 -35q30 0 55.5 12t44.5 32.5t29.5 49t10.5 61.5v325h-74v46h131v-516h75v-46z" />
    <glyph glyph-name="ucircumflex" unicode="&#xfb;" horiz-adv-x="529" 
d="M393 600h-60l-69 100l-69 -100h-60l97 138h64zM513 0h-131v68q-25 -39 -66.5 -58.5t-93.5 -19.5q-69 0 -102 46t-33 134v346h-70v46h127v-384q0 -72 22.5 -107t74.5 -35q30 0 55.5 12t44.5 32.5t29.5 49t10.5 61.5v325h-74v46h131v-516h75v-46z" />
    <glyph glyph-name="udieresis" unicode="&#xfc;" horiz-adv-x="529" 
d="M386 632q0 -15 -10.5 -25t-25.5 -10t-25.5 10t-10.5 25t10.5 25t25.5 10t25.5 -10t10.5 -25zM214 632q0 -15 -10.5 -25t-25.5 -10t-25.5 10t-10.5 25t10.5 25t25.5 10t25.5 -10t10.5 -25zM513 0h-131v68q-25 -39 -66.5 -58.5t-93.5 -19.5q-69 0 -102 46t-33 134v346h-70
v46h127v-384q0 -72 22.5 -107t74.5 -35q30 0 55.5 12t44.5 32.5t29.5 49t10.5 61.5v325h-74v46h131v-516h75v-46z" />
    <glyph glyph-name="yacute" unicode="&#xfd;" 
d="M475 516h-41l-200 -620l-12 -30v-46h-125v46h70q2 6 4 11t4 10.5t5 11.5l37 115l-159 502h-49v46h178v-46h-71l130 -426l132 426h-71v46h168v-46zM372 738l-111 -138h-57l92 138h76z" />
    <glyph glyph-name="thorn" unicode="&#xfe;" horiz-adv-x="523" 
d="M483 240q0 -115 -46 -182.5t-131 -67.5q-51 0 -95.5 18t-72.5 60v-192h75v-46h-205v46h72v791h-78v46h136v-222q30 42 73.5 61.5t97.5 19.5q85 0 129.5 -67.5t44.5 -182.5v-82zM426 245v72q0 97 -34.5 153t-98.5 56q-72 0 -115.5 -52t-43.5 -149v-104q0 -42 11.5 -76
t32 -58t50 -37.5t65.5 -13.5q63 0 98 56t35 153z" />
    <glyph glyph-name="ydieresis" unicode="&#xff;" 
d="M368 632q0 -15 -10.5 -25t-25.5 -10t-25.5 10t-10.5 25t10.5 25t25.5 10t25.5 -10t10.5 -25zM196 632q0 -15 -10.5 -25t-25.5 -10t-25.5 10t-10.5 25t10.5 25t25.5 10t25.5 -10t10.5 -25zM475 516h-41l-200 -620l-12 -30v-46h-125v46h70q2 6 4 11t4 10.5t5 11.5l37 115
l-159 502h-49v46h178v-46h-71l130 -426l132 426h-71v46h168v-46z" />
    <glyph glyph-name="Abreve" unicode="&#x102;" horiz-adv-x="724" 
d="M694 0h-219v47h92l-68 208h-275l-69 -208h92v-47h-218v47h63l229 666h84l225 -666h64v-47zM484 302l-122 367l-123 -367h245zM482 872q-8 -63 -39.5 -88.5t-80.5 -25.5q-48 0 -79.5 25.5t-39.5 88.5h40q9 -42 28.5 -55.5t50.5 -13.5q32 0 51.5 14t28.5 55h40z" />
    <glyph glyph-name="abreve" unicode="&#x103;" 
d="M469 0h-121l1 77q-31 -48 -74 -67.5t-103 -19.5q-66 0 -99 40t-33 107v34q0 76 41 114.5t132 38.5h132v71q0 70 -25 100.5t-77 30.5h-28q-103 0 -103 -96v-12h-56v18q0 66 40.5 101t115.5 35h38q76 0 114 -42t38 -123v-361h67v-46zM345 199v75q-15 1 -33 2q-15 1 -35 2
t-43 1q-75 0 -106 -29.5t-31 -87.5v-20q0 -45 23 -75.5t69 -30.5q36 0 63 12.5t46 34.5t30.5 51.5t16.5 64.5zM348 734q-8 -63 -39.5 -88.5t-80.5 -25.5q-48 0 -79.5 25.5t-39.5 88.5h40q9 -42 28.5 -55.5t50.5 -13.5q32 0 51.5 14t28.5 55h40z" />
    <glyph glyph-name="Dcroat" unicode="&#x110;" horiz-adv-x="639" 
d="M587 294q0 -294 -290 -294h-279v47h90v277h-86v48h86v294h-90v47h292q134 0 205.5 -75.5t71.5 -215.5v-128zM524 294v132q0 112 -57.5 176t-163.5 64h-137v-294h101v-48h-101v-277h127q112 0 171.5 64.5t59.5 182.5z" />
    <glyph glyph-name="dcroat" unicode="&#x111;" horiz-adv-x="523" 
d="M498 590h-57v-544h66v-46h-124v66q-57 -76 -171 -76q-84 0 -127.5 67t-43.5 184v78q0 117 45 185t129 68q48 0 94 -18.5t74 -57.5v94h-130v48h130v29h-78v46h136v-75h57v-48zM387 233v108q0 42 -11.5 76t-32.5 58.5t-50.5 37.5t-65.5 13q-31 0 -55 -15t-40.5 -42.5
t-25 -66t-8.5 -86.5v-70q0 -48 8.5 -86.5t25 -66t40.5 -42.5t56 -15q36 0 65.5 14t50 39.5t32 62t11.5 81.5z" />
    <glyph glyph-name="Itilde" unicode="&#x128;" horiz-adv-x="277" 
d="M258 0h-238v47h90v619h-90v47h238v-47h-90v-619h90v-47zM282 870q-8 -92 -76 -92q-27 0 -70 21q-43 22 -64 22q-32 0 -38 -41h-39q6 92 76 92q27 0 70 -22q43 -21 64 -21q32 0 37 41h40z" />
    <glyph glyph-name="itilde" unicode="&#x129;" horiz-adv-x="245" 
d="M225 0h-210v46h78v470h-78v46h136v-516h74v-46zM246 682q-8 -92 -76 -92q-27 0 -70 21q-43 22 -64 22q-32 0 -38 -41h-39q6 92 76 92q27 0 70 -22q43 -21 64 -21q32 0 37 41h40z" />
    <glyph glyph-name="OE" unicode="&#x152;" horiz-adv-x="901" 
d="M851 0h-391q-29 -4 -69 -6.5t-86 -2.5q-60 0 -107 20.5t-80 59t-50.5 93.5t-17.5 124v135q0 149 68 224t206 75q42 0 78 -2.5t63 -6.5h382v-201h-52v154h-281v-277l170 -1v85h45v-221h-45v89h-170v-294h284v162h53v-209zM460 64v583q0 13 -26.5 20.5t-65.5 7.5h-44
q-109 0 -160 -63.5t-51 -190.5v-130q0 -118 50.5 -185.5t144.5 -67.5h46q43 0 74.5 7.5t31.5 18.5z" />
    <glyph glyph-name="oe" unicode="&#x153;" horiz-adv-x="760" 
d="M723 320l-6 -53h-297v-25q0 -97 27 -151.5t84 -54.5h36q22 0 40 10t31 28t19.5 42t6.5 52v9h51v-13q0 -42 -11 -74.5t-29 -54.5t-42 -33.5t-50 -11.5h-46q-57 0 -93.5 30.5t-50.5 81.5q-13 -49 -47.5 -80.5t-91.5 -31.5h-50q-80 0 -121 68t-41 185v76q0 117 43 185
t125 68h50q30 0 53 -10t39 -26t26 -37t15 -43q16 57 52 86.5t87 29.5h40q76 0 113.5 -67t37.5 -185zM666 343q0 88 -27 135.5t-81 47.5h-30q-52 0 -80 -55t-28 -149v-10h243zM368 248v66q0 97 -30.5 154.5t-88.5 57.5h-30q-60 0 -90 -57.5t-30 -154.5v-66q0 -97 30 -154.5
t90 -57.5h30q58 0 88.5 57.5t30.5 154.5z" />
    <glyph glyph-name="Scaron" unicode="&#x160;" horiz-adv-x="514" 
d="M387 896l-97 -138h-64l-97 138h60l69 -100l69 100h60zM471 162q0 -81 -47 -126t-129 -45q-75 0 -127.5 19t-84.5 65v-76h-35v227l54 -1v-32q0 -73 49.5 -114t131.5 -41q60 0 93 33.5t33 94.5v42q0 39 -15.5 63t-40.5 37.5t-57 21t-66 14t-66 15t-57 26t-40.5 46.5
t-15.5 75v52q0 76 46.5 120t127.5 44q63 0 115 -18.5t85 -57.5v67h35v-224l-53 1v33q0 73 -47 112.5t-125 39.5q-57 0 -89.5 -32.5t-32.5 -87.5v-44q0 -48 26.5 -71t66.5 -34t86 -18t86 -23.5t66.5 -49.5t26.5 -97v-56z" />
    <glyph glyph-name="scaron" unicode="&#x161;" horiz-adv-x="425" 
d="M386 141q0 -75 -41 -113t-119 -38q-51 0 -92 14t-67 49v-60h-30v173h40l7 -19q2 -54 42 -82.5t99 -28.5q48 0 76 26.5t28 80.5v16q0 45 -21 64.5t-53 27.5t-69 10.5t-69 12.5t-53 35t-21 78v34q0 70 37.5 109.5t98.5 41.5l-96 136h60l69 -100l69 100h60l-97 -138h-19
q42 -5 73 -18.5t50 -36.5v47h30v-163h-46v41q0 36 -35.5 61t-98.5 25q-49 0 -74 -29.5t-25 -74.5v-24q0 -31 12.5 -48t32.5 -25.5t46 -11.5t52.5 -6t52.5 -8.5t46 -20t32.5 -40t12.5 -67.5v-30z" />
    <glyph glyph-name="Utilde" unicode="&#x168;" horiz-adv-x="671" 
d="M641 666h-72v-453q0 -106 -54.5 -164t-157.5 -58h-44q-211 0 -211 223v452h-73v47h228v-47h-96v-453q0 -85 40 -130t116 -45h34q159 0 159 176v452h-97v47h228v-47zM479 870q-8 -92 -76 -92q-27 0 -70 21q-43 22 -64 22q-32 0 -38 -41h-39q6 92 76 92q27 0 70 -22
q43 -21 64 -21q32 0 37 41h40z" />
    <glyph glyph-name="utilde" unicode="&#x169;" horiz-adv-x="529" 
d="M513 0h-131v68q-25 -39 -66.5 -58.5t-93.5 -19.5q-69 0 -102 46t-33 134v346h-70v46h127v-384q0 -72 22.5 -107t74.5 -35q30 0 55.5 12t44.5 32.5t29.5 49t10.5 61.5v325h-74v46h131v-516h75v-46zM393 682q-8 -92 -76 -92q-27 0 -70 21q-43 22 -64 22q-32 0 -38 -41h-39
q6 92 76 92q27 0 70 -22q43 -21 64 -21q32 0 37 41h40z" />
    <glyph glyph-name="Ydieresis" unicode="&#x178;" horiz-adv-x="598" 
d="M424 820q0 -15 -10.5 -25t-25.5 -10t-25.5 10t-10.5 25t10.5 25t25.5 10t25.5 -10t10.5 -25zM252 820q0 -15 -10.5 -25t-25.5 -10t-25.5 10t-10.5 25t10.5 25t25.5 10t25.5 -10t10.5 -25zM597 666h-61l-206 -357v-262h101v-47h-261v47h101v260l-208 359h-61v47h222v-47
h-95l171 -301l173 301h-89v47h213v-47z" />
    <glyph glyph-name="florin" unicode="&#x192;" horiz-adv-x="471" 
d="M404 714l-8 -49h-31q-35 0 -58 -21t-31 -82l-11 -84h93l-7 -46h-95l-67 -430q-8 -47 -20 -76t-29 -44.5t-41 -20.5t-56 -5h-20l10 51h8q18 0 32.5 3t26 13.5t20 29t13.5 50.5l66 429h-82l7 46h82l22 131q15 57 45 83t81 24z" />
    <glyph glyph-name="Ohorn" unicode="&#x1a0;" horiz-adv-x="688" 
d="M595 294q0 -71 -17.5 -127t-51 -95t-82 -60t-110.5 -21h-44q-62 0 -110 21t-81.5 60t-51 95t-17.5 127v125q0 70 17.5 126.5t51 95.5t81.5 60t110 21h44q103 0 168 -56.5t85 -158.5q19 8 29 22t15 27q5 15 6 31v15h-30v111h79v-106q0 -37 -9.5 -62.5t-24 -41.5t-31 -24.5
t-29.5 -12.5q3 -23 3 -47v-125zM532 296v121q0 121 -51 189.5t-151 68.5h-36q-100 0 -150.5 -68.5t-50.5 -189.5v-121q0 -121 50.5 -189.5t150.5 -68.5h36q100 0 151 68.5t51 189.5z" />
    <glyph glyph-name="ohorn" unicode="&#x1a1;" horiz-adv-x="575" 
d="M457 243q0 -117 -48 -185t-135 -68h-50q-87 0 -134.5 68t-47.5 185v76q0 117 47.5 185t134.5 68h50q79 0 125.5 -55t55.5 -152q15 8 23.5 20t12.5 23q4 13 6 28v32h-25v94h79v-106q0 -35 -10 -58.5t-24 -39.5t-30.5 -25t-29.5 -13v-77zM400 248v66q0 97 -35 154.5
t-101 57.5h-30q-66 0 -100.5 -57.5t-34.5 -154.5v-66q0 -97 34.5 -154.5t100.5 -57.5h30q66 0 101 57.5t35 154.5z" />
    <glyph glyph-name="Uhorn" unicode="&#x1af;" horiz-adv-x="689" 
d="M569 213q0 -106 -54.5 -164t-157.5 -58h-44q-211 0 -211 223v452h-73v47h228v-47h-96v-453q0 -85 40 -130t116 -45h34q159 0 159 176v452h-97v47h156v-212q26 6 40 20.5t20 28.5q7 17 8 37v15h-30v111h79v-106q0 -48 -16 -76.5t-36 -43.5t-39.5 -20t-25.5 -6v-248z" />
    <glyph glyph-name="uhorn" unicode="&#x1b0;" horiz-adv-x="565" 
d="M513 0h-131v68q-25 -39 -66.5 -58.5t-93.5 -19.5q-69 0 -102 46t-33 134v346h-70v46h127v-384q0 -72 22.5 -107t74.5 -35q30 0 55.5 12t44.5 32.5t29.5 49t10.5 61.5v325h-74v46h131v-203q22 5 34.5 17t17.5 26q6 16 7 34v32h-25v94h79v-106q0 -42 -14 -68.5t-33 -42
t-38 -22t-28 -8.5v-269h75v-46z" />
    <glyph glyph-name="circumflex" unicode="&#x2c6;" horiz-adv-x="262" 
d="M260 570h-60l-69 100l-69 -100h-60l97 138h64z" />
    <glyph glyph-name="tilde" unicode="&#x2dc;" horiz-adv-x="262" 
d="M275 682q-8 -92 -76 -92q-27 0 -70 21q-43 22 -64 22q-32 0 -38 -41h-39q6 92 76 92q27 0 70 -22q43 -21 64 -21q32 0 37 41h40z" />
    <glyph glyph-name="hookabovecomb" unicode="&#x309;" horiz-adv-x="99" 
d="M102 765q-12 -1 -22 -7q-8 -5 -16 -15.5t-10 -30.5h-42q-1 27 9 49q8 19 26.5 34.5t55.5 15.5q40 0 62.5 -22t22.5 -57q0 -26 -11 -45t-24 -33t-24 -24.5t-12 -19.5h-45q0 22 11 37t24 27t24 24t11 30q0 15 -9 26t-31 11z" />
    <glyph glyph-name="dotbelowcomb" unicode="&#x323;" horiz-adv-x="262" 
d="M179 -143h-77v76h77v-76z" />
    <glyph glyph-name="uni1EA0" unicode="&#x1ea0;" horiz-adv-x="724" 
d="M694 0h-219v47h92l-68 208h-275l-69 -208h92v-47h-218v47h63l229 666h84l225 -666h64v-47zM484 302l-122 367l-123 -367h245zM400 -143h-77v76h77v-76z" />
    <glyph glyph-name="uni1EA1" unicode="&#x1ea1;" 
d="M469 0h-121l1 77q-31 -48 -74 -67.5t-103 -19.5q-66 0 -99 40t-33 107v34q0 76 41 114.5t132 38.5h132v71q0 70 -25 100.5t-77 30.5h-28q-103 0 -103 -96v-12h-56v18q0 66 40.5 101t115.5 35h38q76 0 114 -42t38 -123v-361h67v-46zM345 199v75q-15 1 -33 2q-15 1 -35 2
t-43 1q-75 0 -106 -29.5t-31 -87.5v-20q0 -45 23 -75.5t69 -30.5q36 0 63 12.5t46 34.5t30.5 51.5t16.5 64.5zM280 -143h-77v76h77v-76z" />
    <glyph glyph-name="uni1EA2" unicode="&#x1ea2;" horiz-adv-x="724" 
d="M694 0h-219v47h92l-68 208h-275l-69 -208h92v-47h-218v47h63l229 666h84l225 -666h64v-47zM484 302l-122 367l-123 -367h245zM370 916q-12 -1 -22 -7q-8 -5 -16 -15.5t-10 -30.5h-42q-1 27 9 49q8 19 26.5 34.5t55.5 15.5q40 0 62.5 -22t22.5 -57q0 -26 -11 -45t-24 -33
t-24 -24.5t-12 -19.5h-45q0 22 11 37t24 27t24 24t11 30q0 15 -9 26t-31 11z" />
    <glyph glyph-name="uni1EA3" unicode="&#x1ea3;" 
d="M469 0h-121l1 77q-31 -48 -74 -67.5t-103 -19.5q-66 0 -99 40t-33 107v34q0 76 41 114.5t132 38.5h132v71q0 70 -25 100.5t-77 30.5h-28q-103 0 -103 -96v-12h-56v18q0 66 40.5 101t115.5 35h38q76 0 114 -42t38 -123v-361h67v-46zM345 199v75q-15 1 -33 2q-15 1 -35 2
t-43 1q-75 0 -106 -29.5t-31 -87.5v-20q0 -45 23 -75.5t69 -30.5q36 0 63 12.5t46 34.5t30.5 51.5t16.5 64.5zM235 765q-12 -1 -22 -7q-8 -5 -16 -15.5t-10 -30.5h-42q-1 27 9 49q8 19 26.5 34.5t55.5 15.5q40 0 62.5 -22t22.5 -57q0 -26 -11 -45t-24 -33t-24 -24.5
t-12 -19.5h-45q0 22 11 37t24 27t24 24t11 30q0 15 -9 26t-31 11z" />
    <glyph glyph-name="uni1EA4" unicode="&#x1ea4;" horiz-adv-x="724" 
d="M493 758h-60l-69 100l-69 -100h-60l97 138h64zM694 0h-219v47h92l-68 208h-275l-69 -208h92v-47h-218v47h63l229 666h84l225 -666h64v-47zM484 302l-122 367l-123 -367h245zM630 969l-111 -138h-57l92 138h76z" />
    <glyph glyph-name="uni1EA5" unicode="&#x1ea5;" 
d="M371 620h-60l-69 100l-69 -100h-60l97 138h64zM469 0h-121l1 77q-31 -48 -74 -67.5t-103 -19.5q-66 0 -99 40t-33 107v34q0 76 41 114.5t132 38.5h132v71q0 70 -25 100.5t-77 30.5h-28q-103 0 -103 -96v-12h-56v18q0 66 40.5 101t115.5 35h38q76 0 114 -42t38 -123v-361
h67v-46zM345 199v65q-20 7 -43 11t-68 4q-75 0 -106 -29.5t-31 -87.5v-20q0 -45 23 -75.5t69 -30.5q36 0 63 12.5t46 34.5t30.5 51.5t16.5 64.5zM508 838l-111 -138h-57l92 138h76z" />
    <glyph glyph-name="uni1EA6" unicode="&#x1ea6;" horiz-adv-x="724" 
d="M493 758h-60l-69 100l-69 -100h-60l97 138h64zM694 0h-219v47h92l-68 208h-275l-69 -208h92v-47h-218v47h63l229 666h84l225 -666h64v-47zM484 302l-122 367l-123 -367h245zM533 858h-58l-111 138h76z" />
    <glyph glyph-name="uni1EA7" unicode="&#x1ea7;" 
d="M371 620h-60l-69 100l-69 -100h-60l97 138h64zM469 0h-121l1 77q-31 -48 -74 -67.5t-103 -19.5q-66 0 -99 40t-33 107v34q0 76 41 114.5t132 38.5h132v71q0 70 -25 100.5t-77 30.5h-28q-103 0 -103 -96v-12h-56v18q0 66 40.5 101t115.5 35h38q76 0 114 -42t38 -123v-361
h67v-46zM345 199v65q-20 7 -43 11t-68 4q-75 0 -106 -29.5t-31 -87.5v-20q0 -45 23 -75.5t69 -30.5q36 0 63 12.5t46 34.5t30.5 51.5t16.5 64.5zM411 720h-58l-111 138h76z" />
    <glyph glyph-name="uni1EA8" unicode="&#x1ea8;" horiz-adv-x="724" 
d="M493 758h-60l-69 100l-69 -100h-60l97 138h64zM694 0h-219v47h92l-68 208h-275l-69 -208h92v-47h-218v47h63l229 666h84l225 -666h64v-47zM484 302l-122 367l-123 -367h245zM492 1004q-12 -1 -22 -7q-8 -5 -16 -15.5t-10 -30.5h-42q-1 27 9 49q8 19 26.5 34.5t55.5 15.5
q40 0 62.5 -22t22.5 -57q0 -26 -11 -45t-24 -33t-24 -24.5t-12 -19.5h-45q0 22 11 37t24 27t24 24t11 30q0 15 -9 26t-31 11z" />
    <glyph glyph-name="uni1EA9" unicode="&#x1ea9;" 
d="M371 620h-60l-69 100l-69 -100h-60l97 138h64zM469 0h-121l1 77q-31 -48 -74 -67.5t-103 -19.5q-66 0 -99 40t-33 107v34q0 76 41 114.5t132 38.5h132v71q0 70 -25 100.5t-77 30.5h-28q-103 0 -103 -96v-12h-56v18q0 66 40.5 101t115.5 35h38q76 0 114 -42t38 -123v-361
h67v-46zM345 199v65q-20 7 -43 11t-68 4q-75 0 -106 -29.5t-31 -87.5v-20q0 -45 23 -75.5t69 -30.5q36 0 63 12.5t46 34.5t30.5 51.5t16.5 64.5zM370 868q-12 -1 -22 -7q-8 -5 -16 -15.5t-10 -30.5h-42q-1 27 9 49q8 19 26.5 34.5t55.5 15.5q40 0 62.5 -22t22.5 -57
q0 -26 -11 -45t-24 -33t-24 -24.5t-12 -19.5h-45q0 22 11 37t24 27t24 24t11 30q0 15 -9 26t-31 11z" />
    <glyph glyph-name="uni1EAA" unicode="&#x1eaa;" horiz-adv-x="724" 
d="M493 758h-60l-69 100l-69 -100h-60l97 138h64zM694 0h-219v47h92l-68 208h-275l-69 -208h92v-47h-218v47h63l229 666h84l225 -666h64v-47zM484 302l-122 367l-123 -367h245zM510 1009q-8 -92 -76 -92q-27 0 -70 21q-43 22 -64 22q-32 0 -38 -41h-39q6 92 76 92
q27 0 70 -22q43 -21 64 -21q32 0 37 41h40z" />
    <glyph glyph-name="uni1EAB" unicode="&#x1eab;" 
d="M371 620h-60l-69 100l-69 -100h-60l97 138h64zM469 0h-121l1 77q-31 -48 -74 -67.5t-103 -19.5q-66 0 -99 40t-33 107v34q0 76 41 114.5t132 38.5h132v71q0 70 -25 100.5t-77 30.5h-28q-103 0 -103 -96v-12h-56v18q0 66 40.5 101t115.5 35h38q76 0 114 -42t38 -123v-361
h67v-46zM345 199v65q-20 7 -43 11t-68 4q-75 0 -106 -29.5t-31 -87.5v-20q0 -45 23 -75.5t69 -30.5q36 0 63 12.5t46 34.5t30.5 51.5t16.5 64.5zM387 872q-8 -92 -76 -92q-27 0 -70 21q-43 22 -64 22q-32 0 -38 -41h-39q6 92 76 92q27 0 70 -22q43 -21 64 -21q32 0 37 41h40
z" />
    <glyph glyph-name="uni1EAC" unicode="&#x1eac;" horiz-adv-x="724" 
d="M421 -143h-77v76h77v-76zM493 758h-60l-69 100l-69 -100h-60l97 138h64zM694 0h-219v47h92l-68 208h-275l-69 -208h92v-47h-218v47h63l229 666h84l225 -666h64v-47zM484 302l-122 367l-123 -367h245z" />
    <glyph glyph-name="uni1EAD" unicode="&#x1ead;" 
d="M280 -143h-77v76h77v-76zM371 620h-60l-69 100l-69 -100h-60l97 138h64zM469 0h-121l1 77q-31 -48 -74 -67.5t-103 -19.5q-66 0 -99 40t-33 107v34q0 76 41 114.5t132 38.5h132v71q0 70 -25 100.5t-77 30.5h-28q-103 0 -103 -96v-12h-56v18q0 66 40.5 101t115.5 35h38
q76 0 114 -42t38 -123v-361h67v-46zM345 199v65q-20 7 -43 11t-68 4q-75 0 -106 -29.5t-31 -87.5v-20q0 -45 23 -75.5t69 -30.5q36 0 63 12.5t46 34.5t30.5 51.5t16.5 64.5z" />
    <glyph glyph-name="uni1EAE" unicode="&#x1eae;" horiz-adv-x="724" 
d="M694 0h-219v47h92l-68 208h-275l-69 -208h92v-47h-218v47h63l229 666h84l225 -666h64v-47zM484 302l-122 367l-123 -367h245zM482 872q-8 -63 -39.5 -88.5t-80.5 -25.5q-48 0 -79.5 25.5t-39.5 88.5h40q9 -42 28.5 -55.5t50.5 -13.5q32 0 51.5 14t28.5 55h40zM495 1021
l-111 -138h-57l92 138h76z" />
    <glyph glyph-name="uni1EAF" unicode="&#x1eaf;" 
d="M469 0h-121l1 77q-31 -48 -74 -67.5t-103 -19.5q-66 0 -99 40t-33 107v34q0 76 41 114.5t132 38.5h132v71q0 70 -25 100.5t-77 30.5h-28q-103 0 -103 -96v-12h-56v18q0 66 40.5 101t115.5 35h38q76 0 114 -42t38 -123v-361h67v-46zM345 199v75q-15 1 -33 2q-15 1 -35 2
t-43 1q-75 0 -106 -29.5t-31 -87.5v-20q0 -45 23 -75.5t69 -30.5q36 0 63 12.5t46 34.5t30.5 51.5t16.5 64.5zM348 734q-8 -63 -39.5 -88.5t-80.5 -25.5q-48 0 -79.5 25.5t-39.5 88.5h40q9 -42 28.5 -55.5t50.5 -13.5q32 0 51.5 14t28.5 55h40zM359 883l-111 -138h-57
l92 138h76z" />
    <glyph glyph-name="uni1EB0" unicode="&#x1eb0;" horiz-adv-x="724" 
d="M694 0h-219v47h92l-68 208h-275l-69 -208h92v-47h-218v47h63l229 666h84l225 -666h64v-47zM484 302l-122 367l-123 -367h245zM482 872q-8 -63 -39.5 -88.5t-80.5 -25.5q-48 0 -79.5 25.5t-39.5 88.5h40q9 -42 28.5 -55.5t50.5 -13.5q32 0 51.5 14t28.5 55h40zM415 883
h-58l-111 138h76z" />
    <glyph glyph-name="uni1EB1" unicode="&#x1eb1;" 
d="M469 0h-121l1 77q-31 -48 -74 -67.5t-103 -19.5q-66 0 -99 40t-33 107v34q0 76 41 114.5t132 38.5h132v71q0 70 -25 100.5t-77 30.5h-28q-103 0 -103 -96v-12h-56v18q0 66 40.5 101t115.5 35h38q76 0 114 -42t38 -123v-361h67v-46zM345 199v75q-15 1 -33 2q-15 1 -35 2
t-43 1q-75 0 -106 -29.5t-31 -87.5v-20q0 -45 23 -75.5t69 -30.5q36 0 63 12.5t46 34.5t30.5 51.5t16.5 64.5zM348 734q-8 -63 -39.5 -88.5t-80.5 -25.5q-48 0 -79.5 25.5t-39.5 88.5h40q9 -42 28.5 -55.5t50.5 -13.5q32 0 51.5 14t28.5 55h40zM273 745h-58l-111 138h76z
" />
    <glyph glyph-name="uni1EB2" unicode="&#x1eb2;" horiz-adv-x="724" 
d="M694 0h-219v47h92l-68 208h-275l-69 -208h92v-47h-218v47h63l229 666h84l225 -666h64v-47zM484 302l-122 367l-123 -367h245zM482 872q-8 -63 -39.5 -88.5t-80.5 -25.5q-48 0 -79.5 25.5t-39.5 88.5h40q9 -42 28.5 -55.5t50.5 -13.5q32 0 51.5 14t28.5 55h40zM378 1036
q-12 -1 -22 -7q-8 -5 -16 -15.5t-10 -30.5h-42q-1 27 9 49q8 19 26.5 34.5t55.5 15.5q40 0 62.5 -22t22.5 -57q0 -26 -11 -45t-24 -33t-24 -24.5t-12 -19.5h-45q0 22 11 37t24 27t24 24t11 30q0 15 -9 26t-31 11z" />
    <glyph glyph-name="uni1EB3" unicode="&#x1eb3;" 
d="M469 0h-121l1 77q-31 -48 -74 -67.5t-103 -19.5q-66 0 -99 40t-33 107v34q0 76 41 114.5t132 38.5h132v71q0 70 -25 100.5t-77 30.5h-28q-103 0 -103 -96v-12h-56v18q0 66 40.5 101t115.5 35h38q76 0 114 -42t38 -123v-361h67v-46zM345 199v75q-15 1 -33 2q-15 1 -35 2
t-43 1q-75 0 -106 -29.5t-31 -87.5v-20q0 -45 23 -75.5t69 -30.5q36 0 63 12.5t46 34.5t30.5 51.5t16.5 64.5zM348 734q-8 -63 -39.5 -88.5t-80.5 -25.5q-48 0 -79.5 25.5t-39.5 88.5h40q9 -42 28.5 -55.5t50.5 -13.5q32 0 51.5 14t28.5 55h40zM236 892q-12 -1 -22 -7
q-8 -5 -16 -15.5t-10 -30.5h-42q-1 27 9 49q8 19 26.5 34.5t55.5 15.5q40 0 62.5 -22t22.5 -57q0 -26 -11 -45t-24 -33t-24 -24.5t-12 -19.5h-45q0 22 11 37t24 27t24 24t11 30q0 15 -9 26t-31 11z" />
    <glyph glyph-name="uni1EB4" unicode="&#x1eb4;" horiz-adv-x="724" 
d="M694 0h-219v47h92l-68 208h-275l-69 -208h92v-47h-218v47h63l229 666h84l225 -666h64v-47zM484 302l-122 367l-123 -367h245zM482 872q-8 -63 -39.5 -88.5t-80.5 -25.5q-48 0 -79.5 25.5t-39.5 88.5h40q9 -42 28.5 -55.5t50.5 -13.5q32 0 51.5 14t28.5 55h40zM505 992
q-8 -92 -76 -92q-27 0 -70 21q-43 22 -64 22q-32 0 -38 -41h-39q6 92 76 92q27 0 70 -22q43 -21 64 -21q32 0 37 41h40z" />
    <glyph glyph-name="uni1EB5" unicode="&#x1eb5;" 
d="M469 0h-121l1 77q-31 -48 -74 -67.5t-103 -19.5q-66 0 -99 40t-33 107v34q0 76 41 114.5t132 38.5h132v71q0 70 -25 100.5t-77 30.5h-28q-103 0 -103 -96v-12h-56v18q0 66 40.5 101t115.5 35h38q76 0 114 -42t38 -123v-361h67v-46zM345 199v75q-15 1 -33 2q-15 1 -35 2
t-43 1q-75 0 -106 -29.5t-31 -87.5v-20q0 -45 23 -75.5t69 -30.5q36 0 63 12.5t46 34.5t30.5 51.5t16.5 64.5zM348 734q-8 -63 -39.5 -88.5t-80.5 -25.5q-48 0 -79.5 25.5t-39.5 88.5h40q9 -42 28.5 -55.5t50.5 -13.5q32 0 51.5 14t28.5 55h40zM374 854q-8 -92 -76 -92
q-27 0 -70 21q-43 22 -64 22q-32 0 -38 -41h-39q6 92 76 92q27 0 70 -22q43 -21 64 -21q32 0 37 41h40z" />
    <glyph glyph-name="uni1EB6" unicode="&#x1eb6;" horiz-adv-x="724" 
d="M400 -143h-77v76h77v-76zM694 0h-219v47h92l-68 208h-275l-69 -208h92v-47h-218v47h63l229 666h84l225 -666h64v-47zM484 302l-122 367l-123 -367h245zM482 872q-8 -63 -39.5 -88.5t-80.5 -25.5q-48 0 -79.5 25.5t-39.5 88.5h40q9 -42 28.5 -55.5t50.5 -13.5
q32 0 51.5 14t28.5 55h40z" />
    <glyph glyph-name="uni1EB7" unicode="&#x1eb7;" 
d="M280 -143h-77v76h77v-76zM469 0h-121l1 77q-31 -48 -74 -67.5t-103 -19.5q-66 0 -99 40t-33 107v34q0 76 41 114.5t132 38.5h132v71q0 70 -25 100.5t-77 30.5h-28q-103 0 -103 -96v-12h-56v18q0 66 40.5 101t115.5 35h38q76 0 114 -42t38 -123v-361h67v-46zM345 199v75
q-15 1 -33 2q-15 1 -35 2t-43 1q-75 0 -106 -29.5t-31 -87.5v-20q0 -45 23 -75.5t69 -30.5q36 0 63 12.5t46 34.5t30.5 51.5t16.5 64.5zM348 734q-8 -63 -39.5 -88.5t-80.5 -25.5q-48 0 -79.5 25.5t-39.5 88.5h40q9 -42 28.5 -55.5t50.5 -13.5q32 0 51.5 14t28.5 55h40z" />
    <glyph glyph-name="uni1EB8" unicode="&#x1eb8;" horiz-adv-x="557" 
d="M527 0h-503v47h90v619h-90v47h499v-201h-52v154h-298v-277l187 -1v85h45v-221h-45v89h-187v-294h301v162h53v-209zM317 -143h-77v76h77v-76z" />
    <glyph glyph-name="uni1EB9" unicode="&#x1eb9;" horiz-adv-x="477" 
d="M442 267h-344v-25q0 -97 33.5 -151.5t99.5 -54.5h36q53 0 82 38t34 94v9h51v-13q-10 -85 -53.5 -129.5t-106.5 -44.5h-46q-94 0 -140 64t-46 185v78q0 121 45 188t136 67h40q88 0 133.5 -67t45.5 -185v-53zM385 312v31q0 88 -33 135.5t-96 47.5h-30q-30 0 -54 -14.5
t-40.5 -41.5t-25 -64.5t-8.5 -83.5v-10h287zM277 -143h-77v76h77v-76z" />
    <glyph glyph-name="uni1EBA" unicode="&#x1eba;" horiz-adv-x="557" 
d="M527 0h-503v47h90v619h-90v47h499v-201h-52v154h-298v-277l187 -1v85h45v-221h-45v89h-187v-294h301v162h53v-209zM286 916q-12 -1 -22 -7q-8 -5 -16 -15.5t-10 -30.5h-42q-1 27 9 49q8 19 26.5 34.5t55.5 15.5q40 0 62.5 -22t22.5 -57q0 -26 -11 -45t-24 -33t-24 -24.5
t-12 -19.5h-45q0 22 11 37t24 27t24 24t11 30q0 15 -9 26t-31 11z" />
    <glyph glyph-name="uni1EBB" unicode="&#x1ebb;" horiz-adv-x="477" 
d="M442 267h-344v-25q0 -97 33.5 -151.5t99.5 -54.5h36q53 0 82 38t34 94v9h51v-13q-10 -85 -53.5 -129.5t-106.5 -44.5h-46q-94 0 -140 64t-46 185v78q0 121 45 188t136 67h40q88 0 133.5 -67t45.5 -185v-53zM385 312v31q0 88 -33 135.5t-96 47.5h-30q-30 0 -54 -14.5
t-40.5 -41.5t-25 -64.5t-8.5 -83.5v-10h287zM246 765q-12 -1 -22 -7q-8 -5 -16 -15.5t-10 -30.5h-42q-1 27 9 49q8 19 26.5 34.5t55.5 15.5q40 0 62.5 -22t22.5 -57q0 -26 -11 -45t-24 -33t-24 -24.5t-12 -19.5h-45q0 22 11 37t24 27t24 24t11 30q0 15 -9 26t-31 11z" />
    <glyph glyph-name="uni1EBC" unicode="&#x1ebc;" horiz-adv-x="557" 
d="M527 0h-503v47h90v619h-90v47h499v-201h-52v154h-298v-277l187 -1v85h45v-221h-45v89h-187v-294h301v162h53v-209zM431 870q-8 -92 -76 -92q-27 0 -70 21q-43 22 -64 22q-32 0 -38 -41h-39q6 92 76 92q27 0 70 -22q43 -21 64 -21q32 0 37 41h40z" />
    <glyph glyph-name="uni1EBD" unicode="&#x1ebd;" horiz-adv-x="477" 
d="M442 267h-344v-25q0 -97 33.5 -151.5t99.5 -54.5h36q53 0 82 38t34 94v9h51v-13q-10 -85 -53.5 -129.5t-106.5 -44.5h-46q-94 0 -140 64t-46 185v78q0 121 45 188t136 67h40q88 0 133.5 -67t45.5 -185v-53zM385 312v31q0 88 -33 135.5t-96 47.5h-30q-30 0 -54 -14.5
t-40.5 -41.5t-25 -64.5t-8.5 -83.5v-10h287zM382 682q-8 -92 -76 -92q-27 0 -70 21q-43 22 -64 22q-32 0 -38 -41h-39q6 92 76 92q27 0 70 -22q43 -21 64 -21q32 0 37 41h40z" />
    <glyph glyph-name="uni1EBE" unicode="&#x1ebe;" horiz-adv-x="557" 
d="M420 758h-60l-69 100l-69 -100h-60l97 138h64zM527 0h-503v47h90v619h-90v47h499v-201h-52v154h-298v-277l187 -1v85h45v-221h-45v89h-187v-294h301v162h53v-209zM556 976l-111 -138h-57l92 138h76z" />
    <glyph glyph-name="uni1EBF" unicode="&#x1ebf;" horiz-adv-x="477" 
d="M381 610h-60l-69 100l-69 -100h-60l97 138h64zM442 267h-344v-25q0 -97 33.5 -151.5t99.5 -54.5h36q53 0 82 38t34 94v9h51v-13q-10 -85 -53.5 -129.5t-106.5 -44.5h-46q-94 0 -140 64t-46 185v78q0 121 45 188t136 67h40q88 0 133.5 -67t45.5 -185v-53zM385 312v31
q0 88 -33 135.5t-96 47.5h-30q-30 0 -54 -14.5t-40.5 -41.5t-25 -64.5t-8.5 -83.5v-10h287zM519 838l-111 -138h-57l92 138h76z" />
    <glyph glyph-name="uni1EC0" unicode="&#x1ec0;" horiz-adv-x="557" 
d="M420 758h-60l-69 100l-69 -100h-60l97 138h64zM527 0h-503v47h90v619h-90v47h499v-201h-52v154h-298v-277l187 -1v85h45v-221h-45v89h-187v-294h301v162h53v-209zM460 858h-58l-111 138h76z" />
    <glyph glyph-name="uni1EC1" unicode="&#x1ec1;" horiz-adv-x="477" 
d="M381 610h-60l-69 100l-69 -100h-60l97 138h64zM442 267h-344v-25q0 -97 33.5 -151.5t99.5 -54.5h36q53 0 82 38t34 94v9h51v-13q-10 -85 -53.5 -129.5t-106.5 -44.5h-46q-94 0 -140 64t-46 185v78q0 121 45 188t136 67h40q88 0 133.5 -67t45.5 -185v-53zM385 312v31
q0 88 -33 135.5t-96 47.5h-30q-30 0 -54 -14.5t-40.5 -41.5t-25 -64.5t-8.5 -83.5v-10h287zM421 710h-58l-111 138h76z" />
    <glyph glyph-name="uni1EC2" unicode="&#x1ec2;" horiz-adv-x="557" 
d="M420 758h-60l-69 100l-69 -100h-60l97 138h64zM527 0h-503v47h90v619h-90v47h499v-201h-52v154h-298v-277l187 -1v85h45v-221h-45v89h-187v-294h301v162h53v-209zM419 1003q-12 -1 -22 -7q-8 -5 -16 -15.5t-10 -30.5h-42q-1 27 9 49q8 19 26.5 34.5t55.5 15.5
q40 0 62.5 -22t22.5 -57q0 -26 -11 -45t-24 -33t-24 -24.5t-12 -19.5h-45q0 22 11 37t24 27t24 24t11 30q0 15 -9 26t-31 11z" />
    <glyph glyph-name="uni1EC3" unicode="&#x1ec3;" horiz-adv-x="477" 
d="M381 610h-60l-69 100l-69 -100h-60l97 138h64zM442 267h-344v-25q0 -97 33.5 -151.5t99.5 -54.5h36q53 0 82 38t34 94v9h51v-13q-10 -85 -53.5 -129.5t-106.5 -44.5h-46q-94 0 -140 64t-46 185v78q0 121 45 188t136 67h40q88 0 133.5 -67t45.5 -185v-53zM385 312v31
q0 88 -33 135.5t-96 47.5h-30q-30 0 -54 -14.5t-40.5 -41.5t-25 -64.5t-8.5 -83.5v-10h287zM380 855q-12 -1 -22 -7q-8 -5 -16 -15.5t-10 -30.5h-42q-1 27 9 49q8 19 26.5 34.5t55.5 15.5q40 0 62.5 -22t22.5 -57q0 -26 -11 -45t-24 -33t-24 -24.5t-12 -19.5h-45q0 22 11 37
t24 27t24 24t11 30q0 15 -9 26t-31 11z" />
    <glyph glyph-name="uni1EC4" unicode="&#x1ec4;" horiz-adv-x="591" 
d="M431 758h-60l-69 100l-69 -100h-60l97 138h64zM538 0h-503v47h90v619h-90v47h499v-201h-52v154h-298v-277l187 -1v85h45v-221h-45v89h-187v-294h301v162h53v-209zM447 1009q-8 -92 -76 -92q-27 0 -70 21q-43 22 -64 22q-32 0 -38 -41h-39q6 92 76 92q27 0 70 -22
q43 -21 64 -21q32 0 37 41h40z" />
    <glyph glyph-name="uni1EC5" unicode="&#x1ec5;" horiz-adv-x="477" 
d="M381 610h-60l-69 100l-69 -100h-60l97 138h64zM442 267h-344v-25q0 -97 33.5 -151.5t99.5 -54.5h36q53 0 82 38t34 94v9h51v-13q-10 -85 -53.5 -129.5t-106.5 -44.5h-46q-94 0 -140 64t-46 185v78q0 121 45 188t136 67h40q88 0 133.5 -67t45.5 -185v-53zM385 312v31
q0 88 -33 135.5t-96 47.5h-30q-30 0 -54 -14.5t-40.5 -41.5t-25 -64.5t-8.5 -83.5v-10h287zM398 863q-8 -92 -76 -92q-27 0 -70 21q-43 22 -64 22q-32 0 -38 -41h-39q6 92 76 92q27 0 70 -22q43 -21 64 -21q32 0 37 41h40z" />
    <glyph glyph-name="uni1EC6" unicode="&#x1ec6;" horiz-adv-x="557" 
d="M322 -143h-77v76h77v-76zM420 758h-60l-69 100l-69 -100h-60l97 138h64zM527 0h-503v47h90v619h-90v47h499v-201h-52v154h-298v-277l187 -1v85h45v-221h-45v89h-187v-294h301v162h53v-209z" />
    <glyph glyph-name="uni1EC7" unicode="&#x1ec7;" horiz-adv-x="477" 
d="M277 -143h-77v76h77v-76zM381 610h-60l-69 100l-69 -100h-60l97 138h64zM442 267h-344v-25q0 -97 33.5 -151.5t99.5 -54.5h36q53 0 82 38t34 94v9h51v-13q-10 -85 -53.5 -129.5t-106.5 -44.5h-46q-94 0 -140 64t-46 185v78q0 121 45 188t136 67h40q88 0 133.5 -67
t45.5 -185v-53zM385 312v31q0 88 -33 135.5t-96 47.5h-30q-30 0 -54 -14.5t-40.5 -41.5t-25 -64.5t-8.5 -83.5v-10h287z" />
    <glyph glyph-name="uni1EC8" unicode="&#x1ec8;" horiz-adv-x="277" 
d="M258 0h-238v47h90v619h-90v47h238v-47h-90v-619h90v-47zM146 916q-12 -1 -22 -7q-8 -5 -16 -15.5t-10 -30.5h-42q-1 27 9 49q8 19 26.5 34.5t55.5 15.5q40 0 62.5 -22t22.5 -57q0 -26 -11 -45t-24 -33t-24 -24.5t-12 -19.5h-45q0 22 11 37t24 27t24 24t11 30q0 15 -9 26
t-31 11z" />
    <glyph glyph-name="uni1EC9" unicode="&#x1ec9;" horiz-adv-x="245" 
d="M225 0h-210v46h78v470h-78v46h136v-516h74v-46zM109 765q-12 -1 -22 -7q-8 -5 -16 -15.5t-10 -30.5h-42q-1 27 9 49q8 19 26.5 34.5t55.5 15.5q40 0 62.5 -22t22.5 -57q0 -26 -11 -45t-24 -33t-24 -24.5t-12 -19.5h-45q0 22 11 37t24 27t24 24t11 30q0 15 -9 26t-31 11z
" />
    <glyph glyph-name="uni1ECA" unicode="&#x1eca;" horiz-adv-x="277" 
d="M258 0h-238v47h90v619h-90v47h238v-47h-90v-619h90v-47zM178 -143h-77v76h77v-76z" />
    <glyph glyph-name="uni1ECB" unicode="&#x1ecb;" horiz-adv-x="245" 
d="M225 0h-210v46h78v470h-78v46h136v-516h74v-46zM157 720v-49q0 -14 -14 -14h-45q-13 0 -13 14v48q0 9 3 12t10 3h45q14 0 14 -14zM162 -143h-77v76h77v-76z" />
    <glyph glyph-name="uni1ECC" unicode="&#x1ecc;" horiz-adv-x="625" 
d="M595 294q0 -71 -17.5 -127t-51 -95t-82 -60t-110.5 -21h-44q-62 0 -110 21t-81.5 60t-51 95t-17.5 127v125q0 70 17.5 126.5t51 95.5t81.5 60t110 21h44q62 0 110.5 -21t82 -60t51 -95.5t17.5 -126.5v-125zM532 296v121q0 121 -51 189.5t-151 68.5h-36
q-100 0 -150.5 -68.5t-50.5 -189.5v-121q0 -121 50.5 -189.5t150.5 -68.5h36q100 0 151 68.5t51 189.5zM356 -143h-77v76h77v-76z" />
    <glyph glyph-name="uni1ECD" unicode="&#x1ecd;" horiz-adv-x="496" 
d="M457 243q0 -117 -48 -185t-135 -68h-50q-87 0 -134.5 68t-47.5 185v76q0 117 47.5 185t134.5 68h50q88 0 135.5 -68t47.5 -185v-76zM400 248v66q0 97 -35 154.5t-101 57.5h-30q-66 0 -100.5 -57.5t-34.5 -154.5v-66q0 -97 34.5 -154.5t100.5 -57.5h30q66 0 101 57.5
t35 154.5zM286 -143h-77v76h77v-76z" />
    <glyph glyph-name="uni1ECE" unicode="&#x1ece;" horiz-adv-x="625" 
d="M595 294q0 -71 -17.5 -127t-51 -95t-82 -60t-110.5 -21h-44q-62 0 -110 21t-81.5 60t-51 95t-17.5 127v125q0 70 17.5 126.5t51 95.5t81.5 60t110 21h44q62 0 110.5 -21t82 -60t51 -95.5t17.5 -126.5v-125zM532 296v121q0 121 -51 189.5t-151 68.5h-36
q-100 0 -150.5 -68.5t-50.5 -189.5v-121q0 -121 50.5 -189.5t150.5 -68.5h36q100 0 151 68.5t51 189.5zM320 916q-12 -1 -22 -7q-8 -5 -16 -15.5t-10 -30.5h-42q-1 27 9 49q8 19 26.5 34.5t55.5 15.5q40 0 62.5 -22t22.5 -57q0 -26 -11 -45t-24 -33t-24 -24.5t-12 -19.5h-45
q0 22 11 37t24 27t24 24t11 30q0 15 -9 26t-31 11z" />
    <glyph glyph-name="uni1ECF" unicode="&#x1ecf;" horiz-adv-x="496" 
d="M457 243q0 -117 -48 -185t-135 -68h-50q-87 0 -134.5 68t-47.5 185v76q0 117 47.5 185t134.5 68h50q88 0 135.5 -68t47.5 -185v-76zM400 248v66q0 97 -35 154.5t-101 57.5h-30q-66 0 -100.5 -57.5t-34.5 -154.5v-66q0 -97 34.5 -154.5t100.5 -57.5h30q66 0 101 57.5
t35 154.5zM256 765q-12 -1 -22 -7q-8 -5 -16 -15.5t-10 -30.5h-42q-1 27 9 49q8 19 26.5 34.5t55.5 15.5q40 0 62.5 -22t22.5 -57q0 -26 -11 -45t-24 -33t-24 -24.5t-12 -19.5h-45q0 22 11 37t24 27t24 24t11 30q0 15 -9 26t-31 11z" />
    <glyph glyph-name="uni1ED0" unicode="&#x1ed0;" horiz-adv-x="625" 
d="M452 758h-60l-69 100l-69 -100h-60l97 138h64zM596 294q0 -71 -17.5 -127t-51 -95t-82 -60t-110.5 -21h-44q-62 0 -110 21t-81.5 60t-51 95t-17.5 127v125q0 70 17.5 126.5t51 95.5t81.5 60t110 21h44q62 0 110.5 -21t82 -60t51 -95.5t17.5 -126.5v-125zM533 296v121
q0 121 -51 189.5t-151 68.5h-36q-100 0 -150.5 -68.5t-50.5 -189.5v-121q0 -121 50.5 -189.5t150.5 -68.5h36q100 0 151 68.5t51 189.5zM587 973l-111 -138h-57l92 138h76z" />
    <glyph glyph-name="uni1ED1" unicode="&#x1ed1;" horiz-adv-x="496" 
d="M382 610h-60l-69 100l-69 -100h-60l97 138h64zM457 243q0 -117 -48 -185t-135 -68h-50q-87 0 -134.5 68t-47.5 185v76q0 117 47.5 185t134.5 68h50q88 0 135.5 -68t47.5 -185v-76zM400 248v66q0 97 -35 154.5t-101 57.5h-30q-66 0 -100.5 -57.5t-34.5 -154.5v-66
q0 -97 34.5 -154.5t100.5 -57.5h30q66 0 101 57.5t35 154.5zM520 838l-111 -138h-57l92 138h76z" />
    <glyph glyph-name="uni1ED2" unicode="&#x1ed2;" horiz-adv-x="625" 
d="M452 758h-60l-69 100l-69 -100h-60l97 138h64zM596 294q0 -71 -17.5 -127t-51 -95t-82 -60t-110.5 -21h-44q-62 0 -110 21t-81.5 60t-51 95t-17.5 127v125q0 70 17.5 126.5t51 95.5t81.5 60t110 21h44q62 0 110.5 -21t82 -60t51 -95.5t17.5 -126.5v-125zM533 296v121
q0 121 -51 189.5t-151 68.5h-36q-100 0 -150.5 -68.5t-50.5 -189.5v-121q0 -121 50.5 -189.5t150.5 -68.5h36q100 0 151 68.5t51 189.5zM491 858h-58l-111 138h76z" />
    <glyph glyph-name="uni1ED3" unicode="&#x1ed3;" horiz-adv-x="496" 
d="M382 610h-60l-69 100l-69 -100h-60l97 138h64zM457 243q0 -117 -48 -185t-135 -68h-50q-87 0 -134.5 68t-47.5 185v76q0 117 47.5 185t134.5 68h50q88 0 135.5 -68t47.5 -185v-76zM400 248v66q0 97 -35 154.5t-101 57.5h-30q-66 0 -100.5 -57.5t-34.5 -154.5v-66
q0 -97 34.5 -154.5t100.5 -57.5h30q66 0 101 57.5t35 154.5zM422 710h-58l-111 138h76z" />
    <glyph glyph-name="uni1ED4" unicode="&#x1ed4;" horiz-adv-x="625" 
d="M452 758h-60l-69 100l-69 -100h-60l97 138h64zM596 294q0 -71 -17.5 -127t-51 -95t-82 -60t-110.5 -21h-44q-62 0 -110 21t-81.5 60t-51 95t-17.5 127v125q0 70 17.5 126.5t51 95.5t81.5 60t110 21h44q62 0 110.5 -21t82 -60t51 -95.5t17.5 -126.5v-125zM533 296v121
q0 121 -51 189.5t-151 68.5h-36q-100 0 -150.5 -68.5t-50.5 -189.5v-121q0 -121 50.5 -189.5t150.5 -68.5h36q100 0 151 68.5t51 189.5zM450 1003q-12 -1 -22 -7q-8 -5 -16 -15.5t-10 -30.5h-42q-1 27 9 49q8 19 26.5 34.5t55.5 15.5q40 0 62.5 -22t22.5 -57q0 -26 -11 -45
t-24 -33t-24 -24.5t-12 -19.5h-45q0 22 11 37t24 27t24 24t11 30q0 15 -9 26t-31 11z" />
    <glyph glyph-name="uni1ED5" unicode="&#x1ed5;" horiz-adv-x="496" 
d="M382 610h-60l-69 100l-69 -100h-60l97 138h64zM457 243q0 -117 -48 -185t-135 -68h-50q-87 0 -134.5 68t-47.5 185v76q0 117 47.5 185t134.5 68h50q88 0 135.5 -68t47.5 -185v-76zM400 248v66q0 97 -35 154.5t-101 57.5h-30q-66 0 -100.5 -57.5t-34.5 -154.5v-66
q0 -97 34.5 -154.5t100.5 -57.5h30q66 0 101 57.5t35 154.5zM381 855q-12 -1 -22 -7q-8 -5 -16 -15.5t-10 -30.5h-42q-1 27 9 49q8 19 26.5 34.5t55.5 15.5q40 0 62.5 -22t22.5 -57q0 -26 -11 -45t-24 -33t-24 -24.5t-12 -19.5h-45q0 22 11 37t24 27t24 24t11 30q0 15 -9 26
t-31 11z" />
    <glyph glyph-name="uni1ED6" unicode="&#x1ed6;" horiz-adv-x="625" 
d="M452 758h-60l-69 100l-69 -100h-60l97 138h64zM596 294q0 -71 -17.5 -127t-51 -95t-82 -60t-110.5 -21h-44q-62 0 -110 21t-81.5 60t-51 95t-17.5 127v125q0 70 17.5 126.5t51 95.5t81.5 60t110 21h44q62 0 110.5 -21t82 -60t51 -95.5t17.5 -126.5v-125zM533 296v121
q0 121 -51 189.5t-151 68.5h-36q-100 0 -150.5 -68.5t-50.5 -189.5v-121q0 -121 50.5 -189.5t150.5 -68.5h36q100 0 151 68.5t51 189.5zM469 1009q-8 -92 -76 -92q-27 0 -70 21q-43 22 -64 22q-32 0 -38 -41h-39q6 92 76 92q27 0 70 -22q43 -21 64 -21q32 0 37 41h40z" />
    <glyph glyph-name="uni1ED7" unicode="&#x1ed7;" horiz-adv-x="496" 
d="M382 610h-60l-69 100l-69 -100h-60l97 138h64zM457 243q0 -117 -48 -185t-135 -68h-50q-87 0 -134.5 68t-47.5 185v76q0 117 47.5 185t134.5 68h50q88 0 135.5 -68t47.5 -185v-76zM400 248v66q0 97 -35 154.5t-101 57.5h-30q-66 0 -100.5 -57.5t-34.5 -154.5v-66
q0 -97 34.5 -154.5t100.5 -57.5h30q66 0 101 57.5t35 154.5zM399 867q-8 -92 -76 -92q-27 0 -70 21q-43 22 -64 22q-32 0 -38 -41h-39q6 92 76 92q27 0 70 -22q43 -21 64 -21q32 0 37 41h40z" />
    <glyph glyph-name="uni1ED8" unicode="&#x1ed8;" horiz-adv-x="625" 
d="M452 758h-60l-69 100l-69 -100h-60l97 138h64zM596 294q0 -71 -17.5 -127t-51 -95t-82 -60t-110.5 -21h-44q-62 0 -110 21t-81.5 60t-51 95t-17.5 127v125q0 70 17.5 126.5t51 95.5t81.5 60t110 21h44q62 0 110.5 -21t82 -60t51 -95.5t17.5 -126.5v-125zM533 296v121
q0 121 -51 189.5t-151 68.5h-36q-100 0 -150.5 -68.5t-50.5 -189.5v-121q0 -121 50.5 -189.5t150.5 -68.5h36q100 0 151 68.5t51 189.5zM356 -143h-77v76h77v-76z" />
    <glyph glyph-name="uni1ED9" unicode="&#x1ed9;" horiz-adv-x="496" 
d="M286 -143h-77v76h77v-76zM382 610h-60l-69 100l-69 -100h-60l97 138h64zM457 243q0 -117 -48 -185t-135 -68h-50q-87 0 -134.5 68t-47.5 185v76q0 117 47.5 185t134.5 68h50q88 0 135.5 -68t47.5 -185v-76zM400 248v66q0 97 -35 154.5t-101 57.5h-30q-66 0 -100.5 -57.5
t-34.5 -154.5v-66q0 -97 34.5 -154.5t100.5 -57.5h30q66 0 101 57.5t35 154.5z" />
    <glyph glyph-name="uni1EDA" unicode="&#x1eda;" horiz-adv-x="688" 
d="M595 294q0 -71 -17.5 -127t-51 -95t-82 -60t-110.5 -21h-44q-62 0 -110 21t-81.5 60t-51 95t-17.5 127v125q0 70 17.5 126.5t51 95.5t81.5 60t110 21h44q103 0 168 -56.5t85 -158.5q19 8 29 22t15 27q5 15 6 31v15h-30v111h79v-106q0 -37 -9.5 -62.5t-24 -41.5t-31 -24.5
t-29.5 -12.5q3 -23 3 -47v-125zM532 296v121q0 121 -51 189.5t-151 68.5h-36q-100 0 -150.5 -68.5t-50.5 -189.5v-121q0 -121 50.5 -189.5t150.5 -68.5h36q100 0 151 68.5t51 189.5zM447 896l-111 -138h-57l92 138h76z" />
    <glyph glyph-name="uni1EDB" unicode="&#x1edb;" horiz-adv-x="575" 
d="M457 243q0 -117 -48 -185t-135 -68h-50q-87 0 -134.5 68t-47.5 185v76q0 117 47.5 185t134.5 68h50q79 0 125.5 -55t55.5 -152q15 8 23.5 20t12.5 23q4 13 6 28v32h-25v94h79v-106q0 -35 -10 -58.5t-24 -39.5t-30.5 -25t-29.5 -13v-77zM400 248v66q0 97 -35 154.5
t-101 57.5h-30q-66 0 -100.5 -57.5t-34.5 -154.5v-66q0 -97 34.5 -154.5t100.5 -57.5h30q66 0 101 57.5t35 154.5zM357 748l-111 -138h-57l92 138h76z" />
    <glyph glyph-name="uni1EDC" unicode="&#x1edc;" horiz-adv-x="688" 
d="M595 294q0 -71 -17.5 -127t-51 -95t-82 -60t-110.5 -21h-44q-62 0 -110 21t-81.5 60t-51 95t-17.5 127v125q0 70 17.5 126.5t51 95.5t81.5 60t110 21h44q103 0 168 -56.5t85 -158.5q19 8 29 22t15 27q5 15 6 31v15h-30v111h79v-106q0 -37 -9.5 -62.5t-24 -41.5t-31 -24.5
t-29.5 -12.5q3 -23 3 -47v-125zM532 296v121q0 121 -51 189.5t-151 68.5h-36q-100 0 -150.5 -68.5t-50.5 -189.5v-121q0 -121 50.5 -189.5t150.5 -68.5h36q100 0 151 68.5t51 189.5zM408 758h-58l-111 138h76z" />
    <glyph glyph-name="uni1EDD" unicode="&#x1edd;" horiz-adv-x="575" 
d="M457 243q0 -117 -48 -185t-135 -68h-50q-87 0 -134.5 68t-47.5 185v76q0 117 47.5 185t134.5 68h50q79 0 125.5 -55t55.5 -152q15 8 23.5 20t12.5 23q4 13 6 28v32h-25v94h79v-106q0 -35 -10 -58.5t-24 -39.5t-30.5 -25t-29.5 -13v-77zM400 248v66q0 97 -35 154.5
t-101 57.5h-30q-66 0 -100.5 -57.5t-34.5 -154.5v-66q0 -97 34.5 -154.5t100.5 -57.5h30q66 0 101 57.5t35 154.5zM318 610h-58l-111 138h76z" />
    <glyph glyph-name="uni1EDE" unicode="&#x1ede;" horiz-adv-x="688" 
d="M595 294q0 -71 -17.5 -127t-51 -95t-82 -60t-110.5 -21h-44q-62 0 -110 21t-81.5 60t-51 95t-17.5 127v125q0 70 17.5 126.5t51 95.5t81.5 60t110 21h44q103 0 168 -56.5t85 -158.5q19 8 29 22t15 27q5 15 6 31v15h-30v111h79v-106q0 -37 -9.5 -62.5t-24 -41.5t-31 -24.5
t-29.5 -12.5q3 -23 3 -47v-125zM532 296v121q0 121 -51 189.5t-151 68.5h-36q-100 0 -150.5 -68.5t-50.5 -189.5v-121q0 -121 50.5 -189.5t150.5 -68.5h36q100 0 151 68.5t51 189.5zM352 916q-12 -1 -22 -7q-8 -5 -16 -15.5t-10 -30.5h-42q-1 27 9 49q8 19 26.5 34.5
t55.5 15.5q40 0 62.5 -22t22.5 -57q0 -26 -11 -45t-24 -33t-24 -24.5t-12 -19.5h-45q0 22 11 37t24 27t24 24t11 30q0 15 -9 26t-31 11z" />
    <glyph glyph-name="uni1EDF" unicode="&#x1edf;" horiz-adv-x="575" 
d="M457 243q0 -117 -48 -185t-135 -68h-50q-87 0 -134.5 68t-47.5 185v76q0 117 47.5 185t134.5 68h50q79 0 125.5 -55t55.5 -152q15 8 23.5 20t12.5 23q4 13 6 28v32h-25v94h79v-106q0 -35 -10 -58.5t-24 -39.5t-30.5 -25t-29.5 -13v-77zM400 248v66q0 97 -35 154.5
t-101 57.5h-30q-66 0 -100.5 -57.5t-34.5 -154.5v-66q0 -97 34.5 -154.5t100.5 -57.5h30q66 0 101 57.5t35 154.5zM256 765q-12 -1 -22 -7q-8 -5 -16 -15.5t-10 -30.5h-42q-1 27 9 49q8 19 26.5 34.5t55.5 15.5q40 0 62.5 -22t22.5 -57q0 -26 -11 -45t-24 -33t-24 -24.5
t-12 -19.5h-45q0 22 11 37t24 27t24 24t11 30q0 15 -9 26t-31 11z" />
    <glyph glyph-name="uni1EE0" unicode="&#x1ee0;" horiz-adv-x="688" 
d="M595 294q0 -71 -17.5 -127t-51 -95t-82 -60t-110.5 -21h-44q-62 0 -110 21t-81.5 60t-51 95t-17.5 127v125q0 70 17.5 126.5t51 95.5t81.5 60t110 21h44q103 0 168 -56.5t85 -158.5q19 8 29 22t15 27q5 15 6 31v15h-30v111h79v-106q0 -37 -9.5 -62.5t-24 -41.5t-31 -24.5
t-29.5 -12.5q3 -23 3 -47v-125zM532 296v121q0 121 -51 189.5t-151 68.5h-36q-100 0 -150.5 -68.5t-50.5 -189.5v-121q0 -121 50.5 -189.5t150.5 -68.5h36q100 0 151 68.5t51 189.5zM466 870q-8 -92 -76 -92q-27 0 -70 21q-43 22 -64 22q-32 0 -38 -41h-39q6 92 76 92
q27 0 70 -22q43 -21 64 -21q32 0 37 41h40z" />
    <glyph glyph-name="uni1EE1" unicode="&#x1ee1;" horiz-adv-x="575" 
d="M457 243q0 -117 -48 -185t-135 -68h-50q-87 0 -134.5 68t-47.5 185v76q0 117 47.5 185t134.5 68h50q79 0 125.5 -55t55.5 -152q15 8 23.5 20t12.5 23q4 13 6 28v32h-25v94h79v-106q0 -35 -10 -58.5t-24 -39.5t-30.5 -25t-29.5 -13v-77zM400 248v66q0 97 -35 154.5
t-101 57.5h-30q-66 0 -100.5 -57.5t-34.5 -154.5v-66q0 -97 34.5 -154.5t100.5 -57.5h30q66 0 101 57.5t35 154.5zM397 682q-8 -92 -76 -92q-27 0 -70 21q-43 22 -64 22q-32 0 -38 -41h-39q6 92 76 92q27 0 70 -22q43 -21 64 -21q32 0 37 41h40z" />
    <glyph glyph-name="uni1EE2" unicode="&#x1ee2;" horiz-adv-x="688" 
d="M595 294q0 -71 -17.5 -127t-51 -95t-82 -60t-110.5 -21h-44q-62 0 -110 21t-81.5 60t-51 95t-17.5 127v125q0 70 17.5 126.5t51 95.5t81.5 60t110 21h44q103 0 168 -56.5t85 -158.5q19 8 29 22t15 27q5 15 6 31v15h-30v111h79v-106q0 -37 -9.5 -62.5t-24 -41.5t-31 -24.5
t-29.5 -12.5q3 -23 3 -47v-125zM532 296v121q0 121 -51 189.5t-151 68.5h-36q-100 0 -150.5 -68.5t-50.5 -189.5v-121q0 -121 50.5 -189.5t150.5 -68.5h36q100 0 151 68.5t51 189.5zM382 -143h-77v76h77v-76z" />
    <glyph glyph-name="uni1EE3" unicode="&#x1ee3;" horiz-adv-x="575" 
d="M457 243q0 -117 -48 -185t-135 -68h-50q-87 0 -134.5 68t-47.5 185v76q0 117 47.5 185t134.5 68h50q79 0 125.5 -55t55.5 -152q15 8 23.5 20t12.5 23q4 13 6 28v32h-25v94h79v-106q0 -35 -10 -58.5t-24 -39.5t-30.5 -25t-29.5 -13v-77zM400 248v66q0 97 -35 154.5
t-101 57.5h-30q-66 0 -100.5 -57.5t-34.5 -154.5v-66q0 -97 34.5 -154.5t100.5 -57.5h30q66 0 101 57.5t35 154.5zM286 -143h-77v76h77v-76z" />
    <glyph glyph-name="uni1EE4" unicode="&#x1ee4;" horiz-adv-x="671" 
d="M641 666h-72v-453q0 -106 -54.5 -164t-157.5 -58h-44q-211 0 -211 223v452h-73v47h228v-47h-96v-453q0 -85 40 -130t116 -45h34q159 0 159 176v452h-97v47h228v-47zM374 -143h-77v76h77v-76z" />
    <glyph glyph-name="uni1EE5" unicode="&#x1ee5;" horiz-adv-x="529" 
d="M513 0h-131v68q-25 -39 -66.5 -58.5t-93.5 -19.5q-69 0 -102 46t-33 134v346h-70v46h127v-384q0 -72 22.5 -107t74.5 -35q30 0 55.5 12t44.5 32.5t29.5 49t10.5 61.5v325h-74v46h131v-516h75v-46zM303 -143h-77v76h77v-76z" />
    <glyph glyph-name="uni1EE6" unicode="&#x1ee6;" horiz-adv-x="671" 
d="M641 666h-72v-453q0 -106 -54.5 -164t-157.5 -58h-44q-211 0 -211 223v452h-73v47h228v-47h-96v-453q0 -85 40 -130t116 -45h34q159 0 159 176v452h-97v47h228v-47zM343 916q-12 -1 -22 -7q-8 -5 -16 -15.5t-10 -30.5h-42q-1 27 9 49q8 19 26.5 34.5t55.5 15.5
q40 0 62.5 -22t22.5 -57q0 -26 -11 -45t-24 -33t-24 -24.5t-12 -19.5h-45q0 22 11 37t24 27t24 24t11 30q0 15 -9 26t-31 11z" />
    <glyph glyph-name="uni1EE7" unicode="&#x1ee7;" horiz-adv-x="529" 
d="M513 0h-131v68q-25 -39 -66.5 -58.5t-93.5 -19.5q-69 0 -102 46t-33 134v346h-70v46h127v-384q0 -72 22.5 -107t74.5 -35q30 0 55.5 12t44.5 32.5t29.5 49t10.5 61.5v325h-74v46h131v-516h75v-46zM272 765q-12 -1 -22 -7q-8 -5 -16 -15.5t-10 -30.5h-42q-1 27 9 49
q8 19 26.5 34.5t55.5 15.5q40 0 62.5 -22t22.5 -57q0 -26 -11 -45t-24 -33t-24 -24.5t-12 -19.5h-45q0 22 11 37t24 27t24 24t11 30q0 15 -9 26t-31 11z" />
    <glyph glyph-name="uni1EE8" unicode="&#x1ee8;" horiz-adv-x="689" 
d="M569 213q0 -106 -54.5 -164t-157.5 -58h-44q-211 0 -211 223v452h-73v47h228v-47h-96v-453q0 -85 40 -130t116 -45h34q159 0 159 176v452h-97v47h156v-212q26 6 40 20.5t20 28.5q7 17 8 37v15h-30v111h79v-106q0 -48 -16 -76.5t-36 -43.5t-39.5 -20t-25.5 -6v-248z
M425 896l-111 -138h-57l92 138h76z" />
    <glyph glyph-name="uni1EE9" unicode="&#x1ee9;" horiz-adv-x="565" 
d="M513 0h-131v68q-25 -39 -66.5 -58.5t-93.5 -19.5q-69 0 -102 46t-33 134v346h-70v46h127v-384q0 -72 22.5 -107t74.5 -35q30 0 55.5 12t44.5 32.5t29.5 49t10.5 61.5v325h-74v46h131v-203q22 5 34.5 17t17.5 26q6 16 7 34v32h-25v94h79v-106q0 -42 -14 -68.5t-33 -42
t-38 -22t-28 -8.5v-269h75v-46zM368 738l-111 -138h-57l92 138h76z" />
    <glyph glyph-name="uni1EEA" unicode="&#x1eea;" horiz-adv-x="689" 
d="M569 213q0 -106 -54.5 -164t-157.5 -58h-44q-211 0 -211 223v452h-73v47h228v-47h-96v-453q0 -85 40 -130t116 -45h34q159 0 159 176v452h-97v47h156v-212q26 6 40 20.5t20 28.5q7 17 8 37v15h-30v111h79v-106q0 -48 -16 -76.5t-36 -43.5t-39.5 -20t-25.5 -6v-248z
M386 758h-58l-111 138h76z" />
    <glyph glyph-name="uni1EEB" unicode="&#x1eeb;" horiz-adv-x="565" 
d="M513 0h-131v68q-25 -39 -66.5 -58.5t-93.5 -19.5q-69 0 -102 46t-33 134v346h-70v46h127v-384q0 -72 22.5 -107t74.5 -35q30 0 55.5 12t44.5 32.5t29.5 49t10.5 61.5v325h-74v46h131v-203q22 5 34.5 17t17.5 26q6 16 7 34v32h-25v94h79v-106q0 -42 -14 -68.5t-33 -42
t-38 -22t-28 -8.5v-269h75v-46zM329 600h-58l-111 138h76z" />
    <glyph glyph-name="uni1EEC" unicode="&#x1eec;" horiz-adv-x="689" 
d="M569 213q0 -106 -54.5 -164t-157.5 -58h-44q-211 0 -211 223v452h-73v47h228v-47h-96v-453q0 -85 40 -130t116 -45h34q159 0 159 176v452h-97v47h156v-212q26 6 40 20.5t20 28.5q7 17 8 37v15h-30v111h79v-106q0 -48 -16 -76.5t-36 -43.5t-39.5 -20t-25.5 -6v-248z
M343 916q-12 -1 -22 -7q-8 -5 -16 -15.5t-10 -30.5h-42q-1 27 9 49q8 19 26.5 34.5t55.5 15.5q40 0 62.5 -22t22.5 -57q0 -26 -11 -45t-24 -33t-24 -24.5t-12 -19.5h-45q0 22 11 37t24 27t24 24t11 30q0 15 -9 26t-31 11z" />
    <glyph glyph-name="uni1EED" unicode="&#x1eed;" horiz-adv-x="565" 
d="M513 0h-131v68q-25 -39 -66.5 -58.5t-93.5 -19.5q-69 0 -102 46t-33 134v346h-70v46h127v-384q0 -72 22.5 -107t74.5 -35q30 0 55.5 12t44.5 32.5t29.5 49t10.5 61.5v325h-74v46h131v-203q22 5 34.5 17t17.5 26q6 16 7 34v32h-25v94h79v-106q0 -42 -14 -68.5t-33 -42
t-38 -22t-28 -8.5v-269h75v-46zM272 765q-12 -1 -22 -7q-8 -5 -16 -15.5t-10 -30.5h-42q-1 27 9 49q8 19 26.5 34.5t55.5 15.5q40 0 62.5 -22t22.5 -57q0 -26 -11 -45t-24 -33t-24 -24.5t-12 -19.5h-45q0 22 11 37t24 27t24 24t11 30q0 15 -9 26t-31 11z" />
    <glyph glyph-name="uni1EEE" unicode="&#x1eee;" horiz-adv-x="689" 
d="M569 213q0 -106 -54.5 -164t-157.5 -58h-44q-211 0 -211 223v452h-73v47h228v-47h-96v-453q0 -85 40 -130t116 -45h34q159 0 159 176v452h-97v47h156v-212q26 6 40 20.5t20 28.5q7 17 8 37v15h-30v111h79v-106q0 -48 -16 -76.5t-36 -43.5t-39.5 -20t-25.5 -6v-248z
M479 870q-8 -92 -76 -92q-27 0 -70 21q-43 22 -64 22q-32 0 -38 -41h-39q6 92 76 92q27 0 70 -22q43 -21 64 -21q32 0 37 41h40z" />
    <glyph glyph-name="uni1EEF" unicode="&#x1eef;" horiz-adv-x="565" 
d="M513 0h-131v68q-25 -39 -66.5 -58.5t-93.5 -19.5q-69 0 -102 46t-33 134v346h-70v46h127v-384q0 -72 22.5 -107t74.5 -35q30 0 55.5 12t44.5 32.5t29.5 49t10.5 61.5v325h-74v46h131v-203q22 5 34.5 17t17.5 26q6 16 7 34v32h-25v94h79v-106q0 -42 -14 -68.5t-33 -42
t-38 -22t-28 -8.5v-269h75v-46zM393 682q-8 -92 -76 -92q-27 0 -70 21q-43 22 -64 22q-32 0 -38 -41h-39q6 92 76 92q27 0 70 -22q43 -21 64 -21q32 0 37 41h40z" />
    <glyph glyph-name="uni1EF0" unicode="&#x1ef0;" horiz-adv-x="689" 
d="M569 213q0 -106 -54.5 -164t-157.5 -58h-44q-211 0 -211 223v452h-73v47h228v-47h-96v-453q0 -85 40 -130t116 -45h34q159 0 159 176v452h-97v47h156v-212q26 6 40 20.5t20 28.5q7 17 8 37v15h-30v111h79v-106q0 -48 -16 -76.5t-36 -43.5t-39.5 -20t-25.5 -6v-248z
M383 -143h-77v76h77v-76z" />
    <glyph glyph-name="uni1EF1" unicode="&#x1ef1;" horiz-adv-x="565" 
d="M513 0h-131v68q-25 -39 -66.5 -58.5t-93.5 -19.5q-69 0 -102 46t-33 134v346h-70v46h127v-384q0 -72 22.5 -107t74.5 -35q30 0 55.5 12t44.5 32.5t29.5 49t10.5 61.5v325h-74v46h131v-203q22 5 34.5 17t17.5 26q6 16 7 34v32h-25v94h79v-106q0 -42 -14 -68.5t-33 -42
t-38 -22t-28 -8.5v-269h75v-46zM303 -143h-77v76h77v-76z" />
    <glyph glyph-name="Ygrave" unicode="&#x1ef2;" horiz-adv-x="598" 
d="M597 666h-61l-206 -357v-262h101v-47h-261v47h101v260l-208 359h-61v47h222v-47h-95l171 -301l173 301h-89v47h213v-47zM378 758h-58l-111 138h76z" />
    <glyph glyph-name="ygrave" unicode="&#x1ef3;" 
d="M475 516h-41l-200 -620l-12 -30v-46h-125v46h70q2 6 4 11t4 10.5t5 11.5l37 115l-159 502h-49v46h178v-46h-71l130 -426l132 426h-71v46h168v-46zM326 570h-58l-111 138h76z" />
    <glyph glyph-name="uni1EF4" unicode="&#x1ef4;" horiz-adv-x="598" 
d="M597 666h-61l-206 -357v-262h101v-47h-261v47h101v260l-208 359h-61v47h222v-47h-95l171 -301l173 301h-89v47h213v-47zM337 -143h-77v76h77v-76z" />
    <glyph glyph-name="uni1EF5" unicode="&#x1ef5;" 
d="M475 516h-41l-200 -620l-12 -30v-46h-125v46h70q2 6 4 11t4 10.5t5 11.5l37 115l-159 502h-49v46h178v-46h-71l130 -426l132 426h-71v46h168v-46zM349 -143h-77v76h77v-76z" />
    <glyph glyph-name="uni1EF6" unicode="&#x1ef6;" horiz-adv-x="598" 
d="M597 666h-61l-206 -357v-262h101v-47h-261v47h101v260l-208 359h-61v47h222v-47h-95l171 -301l173 301h-89v47h213v-47zM307 916q-12 -1 -22 -7q-8 -5 -16 -15.5t-10 -30.5h-42q-1 27 9 49q8 19 26.5 34.5t55.5 15.5q40 0 62.5 -22t22.5 -57q0 -26 -11 -45t-24 -33
t-24 -24.5t-12 -19.5h-45q0 22 11 37t24 27t24 24t11 30q0 15 -9 26t-31 11z" />
    <glyph glyph-name="uni1EF7" unicode="&#x1ef7;" 
d="M475 516h-41l-200 -620l-12 -30v-46h-125v46h70q2 6 4 11t4 10.5t5 11.5l37 115l-159 502h-49v46h178v-46h-71l130 -426l132 426h-71v46h168v-46zM265 765q-12 -1 -22 -7q-8 -5 -16 -15.5t-10 -30.5h-42q-1 27 9 49q8 19 26.5 34.5t55.5 15.5q40 0 62.5 -22t22.5 -57
q0 -26 -11 -45t-24 -33t-24 -24.5t-12 -19.5h-45q0 22 11 37t24 27t24 24t11 30q0 15 -9 26t-31 11z" />
    <glyph glyph-name="uni1EF8" unicode="&#x1ef8;" horiz-adv-x="598" 
d="M597 666h-61l-206 -357v-262h101v-47h-261v47h101v260l-208 359h-61v47h222v-47h-95l171 -301l173 301h-89v47h213v-47zM479 870q-8 -92 -76 -92q-27 0 -70 21q-43 22 -64 22q-32 0 -38 -41h-39q6 92 76 92q27 0 70 -22q43 -21 64 -21q32 0 37 41h40z" />
    <glyph glyph-name="uni1EF9" unicode="&#x1ef9;" 
d="M475 516h-41l-200 -620l-12 -30v-46h-125v46h70q2 6 4 11t4 10.5t5 11.5l37 115l-159 502h-49v46h178v-46h-71l130 -426l132 426h-71v46h168v-46zM385 682q-8 -92 -76 -92q-27 0 -70 21q-43 22 -64 22q-32 0 -38 -41h-39q6 92 76 92q27 0 70 -22q43 -21 64 -21
q32 0 37 41h40z" />
    <glyph glyph-name="endash" unicode="&#x2013;" horiz-adv-x="500" 
d="M493 245h-486v45h486v-45z" />
    <glyph glyph-name="emdash" unicode="&#x2014;" horiz-adv-x="883" 
d="M876 245h-869v45h869v-45z" />
    <glyph glyph-name="quoteleft" unicode="&#x2018;" horiz-adv-x="253" 
d="M176 713l-57 -162h21v-26q0 -27 -4 -27q-2 1 -37 1h-27v52l58 162h46z" />
    <glyph glyph-name="quoteright" unicode="&#x2019;" horiz-adv-x="253" 
d="M176 661l-58 -162h-46l58 162h-22v28q0 24 4 24h64v-52z" />
    <glyph glyph-name="quotesinglbase" unicode="&#x201a;" horiz-adv-x="232" 
d="M157 2l-1 -1l-56 -138h-47l50 139h-19v74q19 0 37 0.5t36 0.5v-75z" />
    <glyph glyph-name="quotedblleft" unicode="&#x201c;" horiz-adv-x="401" 
d="M328 713l-57 -162h21v-26q0 -27 -4 -27q-2 1 -37 1h-27v52l58 162h46zM175 713l-57 -162h21v-26q0 -27 -4 -27q-2 1 -37 1h-27v52l58 162h46z" />
    <glyph glyph-name="quotedblright" unicode="&#x201d;" horiz-adv-x="401" 
d="M328 661l-58 -162h-46l58 162h-22v28q0 24 4 24h64v-52zM175 661l-58 -162h-46l58 162h-22v28q0 24 4 24h64v-52z" />
    <glyph glyph-name="quotedblbase" unicode="&#x201e;" horiz-adv-x="401" 
d="M337 2l-1 -1l-56 -138h-47l50 139h-19v74q19 0 37 0.5t36 0.5v-75zM157 2l-1 -1l-56 -138h-47l50 139h-19v74q19 0 37 0.5t36 0.5v-75z" />
    <glyph glyph-name="dagger" unicode="&#x2020;" horiz-adv-x="500" 
d="M449 442h-171v-494h-58v494h-172v49h172v222h58v-222h171v-49z" />
    <glyph glyph-name="daggerdbl" unicode="&#x2021;" horiz-adv-x="500" 
d="M451 144h-171v-196h-58v196h-172v49h172v290h-172v49h172v181h58v-181h171v-49h-171v-290h171v-49z" />
    <glyph glyph-name="bullet" unicode="&#x2022;" horiz-adv-x="401" 
d="M329 360q0 -26 -9.5 -48t-26 -38.5t-39 -26t-47.5 -9.5q-26 0 -48.5 9.5t-39 26t-26 38.5t-9.5 48q0 25 9.5 47.5t26 39t38.5 26t48 9.5t48.5 -9.5t39 -26t26 -39t9.5 -47.5z" />
    <glyph glyph-name="ellipsis" unicode="&#x2026;" horiz-adv-x="1000" 
d="M870 -2h-74v75h74v-75zM540 -2h-74v75h74v-75zM210 -2h-74v75h74v-75z" />
    <glyph glyph-name="perthousand" unicode="&#x2030;" horiz-adv-x="1018" 
d="M978 147q0 -76 -28 -116t-86 -40h-24q-57 0 -85 40.5t-28 115.5v78q0 75 28.5 115.5t85.5 40.5h24q57 0 85 -40.5t28 -115.5v-78zM663 147q0 -76 -28 -116t-86 -40h-24q-57 0 -85 40.5t-28 115.5v78q0 75 28.5 115.5t85.5 40.5h24q57 0 85 -40.5t28 -115.5v-78zM544 712
l-345 -725l-42 5l346 725h18l19 -5h4zM289 482q0 -76 -28 -116.5t-85 -40.5h-24q-57 0 -85 41t-28 116v78q0 75 28 115.5t85 40.5h24q57 0 85 -40.5t28 -115.5v-78zM934 148v74q0 58 -17.5 89.5t-55.5 31.5h-18q-36 0 -54 -31t-18 -88v-74q0 -58 18 -89.5t56 -31.5h18
q37 0 54 30.5t17 88.5zM619 148v74q0 58 -17.5 89.5t-55.5 31.5h-18q-36 0 -54 -31t-18 -88v-74q0 -58 18 -89.5t56 -31.5h18q37 0 54 30.5t17 88.5zM245 483v74q0 58 -17 89.5t-55 31.5h-18q-36 0 -54 -31t-18 -88v-74q0 -60 17.5 -91t55.5 -31h18q37 0 54 31t17 89z" />
    <glyph glyph-name="guilsinglleft" unicode="&#x2039;" horiz-adv-x="258" 
d="M195 454l-87 -194l86 -194l-46 -8l-91 202l92 202z" />
    <glyph glyph-name="guilsinglright" unicode="&#x203a;" horiz-adv-x="258" 
d="M202 260l-92 -202l-46 8l87 194l-88 194l46 8z" />
    <glyph glyph-name="trademark" unicode="&#x2122;" horiz-adv-x="929" 
d="M839 320h-127v26h46v341l-124 -339h-28l-123 339v-341h46v-26h-127v26h50v341h-51v26h104l116 -320l116 320h102v-26h-50v-341h50v-26zM332 592h-29v93h-98v-339h60v-26h-153v26h60v339h-99v-93h-29v121h288v-121z" />
    <glyph glyph-name="minus" unicode="&#xe000;" horiz-adv-x="619" 
d="M586 235h-552v56h552v-56z" />
    <glyph glyph-name="notequal" unicode="&#xe001;" horiz-adv-x="619" 
d="M586 140h-301l-50 -116h-56l50 116h-195v56h219l57 134h-276v56h300l50 116h56l-50 -116h196v-56h-220l-57 -134h277v-56z" />
    <glyph glyph-name="infinity" unicode="&#xe002;" horiz-adv-x="713" 
d="M689 264q0 -30 -12 -56t-32 -44.5t-45.5 -29t-52.5 -10.5q-17 0 -35 3.5t-40.5 14.5t-50.5 31.5t-64 55.5q-36 -35 -64 -55.5t-50.5 -31.5t-41 -14.5t-34.5 -3.5q-27 0 -52.5 10.5t-45.5 29t-32 44.5t-12 56t12 56t32 44.5t45.5 29t52.5 10.5q21 0 40 -4t40 -15t47.5 -32
t62.5 -54q36 33 62.5 54t47.5 32t40 15t40 4q27 0 52.5 -10.5t45.5 -29t32 -44.5t12 -56zM638 264q0 16 -6.5 32t-18 28.5t-28.5 20.5t-38 8q-45 0 -82 -26.5t-70 -62.5q33 -36 70 -62.5t82 -26.5q42 0 66.5 23.5t24.5 65.5zM319 264q-33 36 -70 62.5t-82 26.5q-21 0 -38 -8
t-28.5 -20.5t-18 -28.5t-6.5 -32q0 -42 24.5 -65.5t66.5 -23.5q45 0 82 26.5t70 62.5z" />
    <glyph glyph-name="lessequal" unicode="&#xe003;" horiz-adv-x="619" 
d="M585 0h-552v47h508l-508 240v56l552 261v-57l-490 -232l490 -232v-83z" />
    <glyph glyph-name="greaterequal" unicode="&#xe004;" horiz-adv-x="619" 
d="M585 0h-552v83l490 232l-490 232v57l552 -261v-56l-508 -240h508v-47z" />
    <glyph glyph-name="partialdiff" unicode="&#xe005;" horiz-adv-x="494" 
d="M462 393q0 -74 -15.5 -148t-46.5 -133t-77.5 -96t-107.5 -37q-33 0 -67 13t-61 37.5t-44 61.5t-17 85q0 46 15.5 87.5t42.5 72t63 48.5t77 18q21 0 39 -3.5t35.5 -12t36 -21.5t39.5 -31q6 30 8.5 58.5t2.5 52.5q0 57 -11 103.5t-32.5 80.5t-52.5 52.5t-71 18.5
q-35 0 -61.5 -10t-52.5 -23l-39 50q24 11 56.5 21.5t74.5 10.5q55 0 103.5 -26t84.5 -73t57 -112.5t21 -144.5zM366 299q-17 25 -42.5 44.5t-65.5 19.5q-27 0 -53 -15t-47 -43t-33.5 -68t-12.5 -89q0 -29 5 -54t16 -44t28 -30t41 -11q66 0 106 70t58 220z" />
    <glyph glyph-name="summation" unicode="&#xe006;" horiz-adv-x="713" 
d="M695 116q-8 -33 -14.5 -61t-12 -54.5t-9.5 -53t-7 -55.5q-18 3 -38.5 7t-38.5 4h-503l-58 -3l349 398l-347 454l104 -7h497l6 -159h-20q-7 27 -15.5 48.5t-24.5 36t-42.5 22t-70.5 7.5h-263l273 -358l-294 -339h371q28 0 47.5 4.5t34.5 16.5t27 34t26 58h23z" />
    <glyph glyph-name="product" unicode="&#xe007;" horiz-adv-x="823" 
d="M803 -101h-306v23q29 0 47.5 5t29.5 14.5t15 25t4 36.5v693h-358v-693q0 -21 4 -36t15 -24.5t29.5 -14.5t48.5 -6v-23h-307v23q30 0 49 5t29.5 14.5t14.5 25t4 36.5v626q0 52 -24.5 75.5t-70.5 23.5v23h773v-23q-46 0 -70 -23.5t-24 -75.5v-626q0 -21 4 -36.5t15 -25
t29.5 -14.5t48.5 -5v-23z" />
    <glyph glyph-name="pi" unicode="&#xe008;" horiz-adv-x="549" 
d="M530 151q-1 -39 -11 -69.5t-26 -52.5t-37 -33.5t-45 -11.5q-40 0 -68 43.5t-28 124.5q0 24 1.5 49t4 54.5t6 65t8.5 80.5h-113l-46 -351q-6 -27 -21 -48t-44 -21q-22 0 -38 16.5t-16 37.5q0 15 7 27.5t18 23.5q21 23 34 43.5t16 42.5l29 229h-47q-25 0 -46 -13.5
t-41 -49.5h-17q9 30 21.5 57.5t29 47.5t38.5 32t50 12h373v-86h-126q-3 -26 -5.5 -58.5t-4 -65.5t-2 -62.5t-0.5 -48.5q0 -24 6 -41t16 -28t21 -16t22 -5q24 0 41.5 20t17.5 55h22z" />
    <glyph glyph-name="integral" unicode="&#xe009;" horiz-adv-x="274" 
d="M291 860q0 -15 -13.5 -29.5t-37.5 -14.5q-18 0 -28 12q-11 12 -23 12q-10 0 -14 -7t-4 -15q0 -17 2.5 -56.5t7.5 -100.5t8 -126.5t3 -135.5q0 -132 -5.5 -227.5t-20 -157.5t-40 -91.5t-64.5 -29.5q-9 0 -19.5 4.5t-19.5 12t-15 18.5t-6 25q0 18 14 31t30 13q17 0 31 -17
q13 -16 23 -16q11 0 18.5 25t7.5 85q0 16 -1 35t-2 60t-2 114.5t-1 199.5q0 106 3.5 187t14.5 136t31.5 82.5t55.5 27.5q23 0 44.5 -14t21.5 -42z" />
    <glyph glyph-name="Omega" unicode="&#xe00a;" horiz-adv-x="768" 
d="M736 0h-295l16 152q28 9 54 28t45.5 50t31 73.5t11.5 98.5q0 126 -57 190t-157 64q-97 0 -155.5 -63.5t-58.5 -190.5q0 -56 11 -98.5t30 -73.5t45 -50t56 -28l16 -152h-295v162h15q8 -37 20.5 -49t45.5 -12h158l-2 28q-99 24 -158 94.5t-59 175.5q0 67 26.5 121t71.5 91
t105 57t128 20q67 0 127 -19.5t105.5 -56.5t72 -90.5t26.5 -122.5q0 -45 -14.5 -88.5t-42 -80t-68 -63t-92.5 -38.5l-2 -28h158q18 0 28.5 3t17.5 9.5t11 18.5t9 30h15v-162z" />
    <glyph glyph-name="radical" unicode="&#xe00b;" horiz-adv-x="549" 
d="M515 912l-150 -950l-243 502l-96 -47l-16 33l146 72l197 -403l127 798z" />
    <glyph glyph-name="approxequal" unicode="&#xe00c;" horiz-adv-x="619" 
d="M553 387q-21 -38 -60 -58.5t-77 -20.5q-31 0 -116 27q-83 28 -110 28q-29 0 -49.5 -13t-45.5 -47l-44 28q32 43 67 61t75 18q30 0 116 -26q87 -26 104 -26q28 0 53.5 14t42.5 40zM553 197q-21 -38 -60 -58.5t-77 -20.5q-31 0 -116 27q-83 28 -110 28q-29 0 -49.5 -13
t-45.5 -47l-44 28q32 43 67 61t75 18q30 0 116 -26q87 -26 104 -26q28 0 53.5 14t42.5 40z" />
    <glyph glyph-name="nonbreakingspace" unicode="&#xe00d;" horiz-adv-x="500" 
 />
    <glyph glyph-name="lozenge" unicode="&#xe00e;" horiz-adv-x="494" 
d="M466 377l-194 -377h-60l-194 377l194 368h60zM406 377l-164 314l-164 -314l164 -323z" />
    <glyph glyph-name="apple" unicode="&#xe00f;" 
d="M465 455h-118v26h44v204q0 35 -13 55.5t-36 20.5q-38 0 -59.5 -23t-21.5 -63v-194h40v-26h-119v26h45v204q0 35 -11.5 55.5t-33.5 20.5q-38 0 -61.5 -24t-23.5 -64v-192h52v-26h-130v26h44v274h-46v27h80v-35q14 20 36.5 30.5t48.5 10.5q30 0 46.5 -12t23.5 -32
q11 20 34 32t58 12q42 0 61.5 -26.5t19.5 -75.5v-205h40v-26zM479 -120h-176v46h62l-148 247l-66 -77v-170h56v-46h-188v46h74v471h-74v43h132v-283l198 239h-67v46h184v-46h-59l-144 -184l165 -286h51v-46z" />
    <glyph glyph-name="Dhacek" unicode="&#xe010;" horiz-adv-x="547" 
d="M513 153l-38 -38l-57 57q-63 -51 -146 -51q-86 0 -146 51l-57 -57l-38 38l57 57q-51 63 -51 146q0 86 51 146l-57 57l38 38l57 -57q63 51 146 51q86 0 146 -51l57 57l38 -38l-57 -57q51 -63 51 -146q0 -86 -51 -146zM455 356q0 38 -14.5 71.5t-39 58t-58 39t-71.5 14.5
t-71.5 -14.5t-58 -39t-39 -58t-14.5 -71.5t14.5 -71.5t39 -58t58 -39t71.5 -14.5t71.5 14.5t58 39t39 58t14.5 71.5z" />
    </font>
</defs>
</svg>
