<?xml version="1.0" standalone="no"?>
<!DOCTYPE svg PUBLIC "-//W3C//DTD SVG 1.1//EN" "http://www.w3.org/Graphics/SVG/1.1/DTD/svg11.dtd" >
<svg xmlns="http://www.w3.org/2000/svg" xmlns:xlink="http://www.w3.org/1999/xlink" version="1.1">
<metadata>
Created by FontForge 20170731 at Thu Apr 18 08:49:00 2013
 By Aleksey,,,
Copyright (c) 2008 - 2011 Linotype GmbH, www.linotype.com. All rights reserved. This font software may not be reproduced, modified, disclosed or transferred without the express written approval of Linotype GmbH. Waza is a trademark of Linotype GmbH and may be registered in certain jurisdictions. This typeface is original artwork of Franciszek Otto. The design may be protected in certain jurisdictions.
</metadata>
<defs>
<font id="UVFWazaLTPro" horiz-adv-x="387" >
  <font-face 
    font-family="UVF Waza LT Pro"
    font-weight="400"
    font-stretch="normal"
    units-per-em="1000"
    panose-1="3 3 3 2 4 8 5 9 2 2"
    ascent="662"
    descent="-338"
    x-height="332"
    cap-height="904"
    bbox="-1009 -1479 2996 1342"
    underline-thickness="50"
    underline-position="25"
    unicode-range="U+0020-FB04"
  />
<missing-glyph horiz-adv-x="512" 
d="M222 184h56v-67h-56v67zM223 251q0 56 13 81q7 13 18 27.5t28 31.5q32 30 41 47.5t9 35.5q0 36 -22.5 60.5t-53.5 24.5t-53.5 -22t-28.5 -73l-50 8q7 72 44 104.5t91 32.5t89 -35.5t35 -95.5q0 -32 -12.5 -58.5t-50.5 -61.5q-37 -33 -43 -52q-6 -20 -6 -72h-46zM462 50
v617h-412v-617h412zM0 718h512v-718h-512v718z" />
    <glyph glyph-name=".notdef" horiz-adv-x="512" 
d="M222 184h56v-67h-56v67zM223 251q0 56 13 81q7 13 18 27.5t28 31.5q32 30 41 47.5t9 35.5q0 36 -22.5 60.5t-53.5 24.5t-53.5 -22t-28.5 -73l-50 8q7 72 44 104.5t91 32.5t89 -35.5t35 -95.5q0 -32 -12.5 -58.5t-50.5 -61.5q-37 -33 -43 -52q-6 -20 -6 -72h-46zM462 50
v617h-412v-617h412zM0 718h512v-718h-512v718z" />
    <glyph glyph-name=".null" horiz-adv-x="500" 
 />
    <glyph glyph-name="nonmarkingreturn" horiz-adv-x="0" 
 />
    <glyph glyph-name="space" unicode=" " horiz-adv-x="254" 
 />
    <glyph glyph-name="exclam" unicode="!" horiz-adv-x="304" 
d="M533 702q19 16 37 16q15 0 22 -7.5t7 -18.5q0 -10 -8 -24l-384 -487l-17 10zM112 0q-7 6 -11.5 15t-4.5 21q0 14 10.5 24.5t25.5 10.5q13 0 23.5 -9.5t10.5 -25.5q0 -17 -12 -28.5t-28 -18.5l-17 -7l-6 9z" />
    <glyph glyph-name="quotedbl" unicode="&#x22;" horiz-adv-x="205" 
d="M233 576l87 159q13 24 27.5 38t34.5 14q13 0 21.5 -7.5t8.5 -19.5q0 -23 -15.5 -37.5t-42.5 -35.5q-35 -26 -56.5 -54.5t-46.5 -67.5zM344 576l86 159q14 24 28 38t34 14q14 0 22.5 -7.5t8.5 -19.5q0 -23 -15.5 -37.5t-43.5 -35.5q-34 -26 -56.5 -54.5t-45.5 -67.5z" />
    <glyph glyph-name="numbersign" unicode="#" horiz-adv-x="504" 
d="M163 236l66 145h-119l2 34h133l88 194h44l-89 -194h132l88 194h44l-89 -194h116l-2 -34h-129l-66 -145h128l-2 -34h-142l-91 -202h-44l92 202h-132l-91 -202h-44l92 202h-107l2 34h120zM207 236h131l66 145h-131z" />
    <glyph glyph-name="dollar" unicode="$" horiz-adv-x="578" 
d="M595 591q20 -5 40.5 -17t34.5 -31l24 40h25l-100 -168h-24l28 50q8 42 -5 66t-38 35l-128 -228q18 -14 37.5 -27.5t33.5 -31t21 -41.5t1 -58q-9 -51 -38 -88.5t-70 -63t-90 -38t-98 -12.5l-87 -156l-24 1l87 156q-35 3 -67.5 14.5t-55.5 31.5l-28 -52h-25l135 247l25 -1
l-72 -130q9 -36 37 -56.5t66 -27.5l158 281q-15 12 -30 26t-25.5 31.5t-15.5 38.5t0 48q6 34 26 64.5t49.5 53.5t67 36t79.5 13q13 0 23 -2l79 141l25 -1zM478 160q3 19 -1 34.5t-13 29t-22 25.5t-27 23l-154 -271q8 -1 15.5 -1h12.5q27 0 57 9t57 28.5t47.5 50t27.5 72.5z
M394 464q-8 -42 5.5 -67.5t35.5 -44.5l124 220q-5 1 -10.5 1.5t-11.5 0.5q-22 0 -45.5 -8t-44 -22t-35 -34.5t-18.5 -45.5z" />
    <glyph glyph-name="percent" unicode="%" horiz-adv-x="517" 
d="M278 511q-27 -26 -39 -55.5t-12 -67.5q0 -34 11.5 -54.5t35.5 -20.5q25 0 45 13.5t34 35.5t22.5 49.5t9.5 56.5h-9q-34 0 -57.5 15.5t-23.5 38.5q0 17 14.5 30t46.5 13q37 0 59.5 -24t23.5 -55q27 2 66.5 12.5t81.5 27t82.5 37.5t70.5 44q7 0 12 -3.5t5 -9.5q0 -1 -2 -7
q-85 -64 -162 -131.5t-150.5 -147t-144.5 -176t-143 -217.5q-28 0 -28 20q119 185 260.5 341t313.5 287q-27 -17 -62 -32.5t-71.5 -27.5t-70.5 -20.5t-59 -11.5q-4 -38 -22 -70.5t-43.5 -56t-56 -37t-58.5 -13.5q-36 0 -59.5 22t-23.5 59q0 45 26.5 82t68.5 63zM385 482
q0 10 -3 21t-9 20.5t-15 16t-21 6.5q-13 0 -19 -6.5t-6 -16.5q0 -16 18 -28.5t46 -12.5h9zM587 256q37 0 56 -23.5t19 -61.5q0 -36 -17 -70.5t-44 -61t-61 -43t-68 -16.5q-36 0 -57 20.5t-21 52.5q0 37 18 73.5t46 65.5t62.5 46.5t66.5 17.5zM564 233q-22 0 -43 -15.5
t-37.5 -40t-26.5 -53.5t-10 -56q0 -67 46 -67q21 0 41.5 13.5t37 36t26.5 51.5t10 61q0 30 -9.5 50t-34.5 20z" />
    <glyph glyph-name="ampersand" unicode="&#x26;" horiz-adv-x="1140" 
d="M847 858q-44 0 -78.5 -15t-57.5 -41.5t-35 -62t-12 -75.5q0 -16 1.5 -35t9.5 -34h35q49 0 93.5 -8t79 -23t55 -37t20.5 -49q0 -17 -21 -31.5t-70 -14.5q-44 0 -81 11t-66.5 30.5t-51 45.5t-34.5 55q-110 -13 -190.5 -55.5t-133 -102.5t-77.5 -133t-25 -147
q0 -75 25 -149.5t75 -133.5t126.5 -95.5t178.5 -36.5q100 0 177 30t129.5 80.5t80 115.5t27.5 134q0 49 -16 94.5t-45 80t-70.5 55t-93.5 20.5q-42 0 -78 -14t-62 -38t-41 -57.5t-15 -72.5q0 -36 11.5 -65.5t32.5 -49.5t49.5 -31t63.5 -11q32 0 58.5 13t44.5 33q9 12 11 35
q3 23 20 23q8 0 12 -6.5t4 -14.5q0 -15 -12.5 -33t-33.5 -33.5t-48.5 -26t-57.5 -10.5q-37 0 -69.5 12.5t-57 35t-38.5 55t-14 73.5q0 43 16 83.5t45.5 72t71.5 50t94 18.5q39 0 70 -9t55.5 -23t45.5 -30.5t41 -32.5q17 -13 34.5 -25.5t38 -22.5t44 -16t52.5 -6
q39 0 72.5 13t58 37t39 58t14.5 75q0 33 -11 62.5t-30.5 51.5t-47.5 34.5t-62 12.5q-48 0 -84 -22t-53 -60q-7 -13 -4 -37q5 -23 -12 -27q-9 -3 -15.5 4t-6.5 18q0 21 11.5 45.5t34 46.5t55 36.5t74.5 14.5q37 0 69 -13.5t55.5 -37.5t37 -57t13.5 -72q0 -47 -15.5 -87.5
t-44 -71.5t-68 -48.5t-86.5 -17.5q-23 0 -43 2.5t-38.5 8t-38 15t-41.5 23.5q13 -24 19.5 -62t6.5 -70q0 -70 -28.5 -138.5t-84 -123t-137.5 -88t-189 -33.5q-115 0 -201.5 36t-144.5 97t-87 139.5t-29 164.5q0 80 30 157.5t89.5 140.5t149.5 106t210 53q-12 33 -12 66
q0 46 16 85.5t46 69t73 46t96 16.5q37 0 67.5 -12t52.5 -32.5t34 -47.5t12 -57q0 -35 -11 -59.5t-28.5 -40.5t-38.5 -23.5t-42 -7.5q-36 0 -65 21t-29 64q0 16 6.5 29.5t17 23.5t23.5 16t27 6q24 0 38.5 -12t14.5 -26t-14 -14q-8 0 -12 5.5t-7 12.5q-3 6 -8.5 11.5
t-13.5 5.5q-17 0 -35.5 -14.5t-18.5 -44.5q0 -31 21.5 -49t53.5 -18q25 0 44 9.5t32 25.5t19 36t6 41q0 31 -12.5 56t-33 42t-46.5 26t-53 9zM680 576q12 -26 30 -48.5t42 -39.5t53 -27t64 -10q40 0 53 10t13 18q0 27 -24 45.5t-58.5 30t-73 16.5t-66.5 5h-33z" />
    <glyph glyph-name="quotesingle" unicode="'" horiz-adv-x="205" 
d="M344 576l86 159q14 24 28 38t34 14q14 0 22.5 -7.5t8.5 -19.5q0 -23 -15.5 -37.5t-43.5 -35.5q-34 -26 -56.5 -54.5t-45.5 -67.5z" />
    <glyph glyph-name="parenleft" unicode="(" horiz-adv-x="385" 
d="M638 714q-111 -37 -200.5 -104.5t-152.5 -152t-97 -180.5t-34 -191q0 -44 6 -80t20.5 -65t38.5 -51.5t60 -40.5l-10 -17q-41 16 -72 43.5t-53 63.5t-33 78.5t-11 86.5q0 98 37.5 194t106.5 179.5t168 149.5t222 104z" />
    <glyph glyph-name="parenright" unicode=")" horiz-adv-x="385" 
d="M-98 -150q111 37 200.5 104t152.5 152t97 181t34 191q0 44 -6 80t-20.5 65t-38.5 51.5t-60 40.5l10 17q81 -35 125 -108t44 -164q0 -98 -37.5 -194t-106.5 -180t-168 -150t-222 -103z" />
    <glyph glyph-name="asterisk" unicode="*" horiz-adv-x="371" 
d="M538 590q12 -9 20.5 -21t8.5 -29t-11 -27t-27 -10q-18 0 -28 14t-12 38q-2 20 -8 37.5t-20 31.5l-8 -81q-2 -18 -14 -36.5t-34 -18.5q-15 0 -25.5 9.5t-10.5 26.5q0 24 29 45q16 11 29 25.5t19 33.5l-76 -33q-8 -3 -17.5 -5.5t-18.5 -2.5q-18 0 -30.5 11.5t-12.5 28.5
t12.5 27t27.5 10q9 0 16.5 -2t16.5 -7q18 -9 36 -13t38 1l-66 49q-11 8 -20.5 21t-9.5 28q0 17 11 27.5t28 10.5q18 0 29 -15t11 -37q0 -42 28 -71l10 81q2 20 14.5 38.5t35.5 18.5q17 0 25.5 -11t8.5 -25q0 -12 -7.5 -24t-21.5 -21q-17 -11 -29.5 -25.5t-18.5 -33.5l72 33
q18 8 36 8q21 0 32 -10.5t11 -26.5q0 -19 -13 -29t-27 -10t-32 8q-37 19 -74 12z" />
    <glyph glyph-name="plus" unicode="+" horiz-adv-x="705" 
d="M442 242v-190h-33v190h-187v29h187v186h33v-186h185v-29h-185z" />
    <glyph glyph-name="comma" unicode="," horiz-adv-x="222" 
d="M4 -116q20 7 39 18.5t35 25.5t26.5 30.5t13.5 33.5q-16 0 -25.5 11t-9.5 28q0 15 9.5 27t26.5 12q14 0 23 -11t9 -28q0 -31 -13 -56.5t-34 -45.5t-46.5 -34.5t-49.5 -23.5z" />
    <glyph glyph-name="hyphen" unicode="-" horiz-adv-x="374" 
d="M83 171h213v-26h-213v26z" />
    <glyph glyph-name="period" unicode="." horiz-adv-x="222" 
d="M93 0q-7 6 -11.5 15t-4.5 21q0 14 10.5 24.5t25.5 10.5q13 0 23.5 -9.5t10.5 -25.5q0 -17 -12 -28.5t-28 -18.5l-17 -7l-6 9z" />
    <glyph glyph-name="slash" unicode="/" horiz-adv-x="642" 
d="M618 783l16 -14l-603 -790l-18 13z" />
    <glyph glyph-name="zero" unicode="0" horiz-adv-x="667" 
d="M554 687q36 0 63 -12.5t45 -34.5t27.5 -52.5t9.5 -65.5q0 -68 -21 -134t-57 -125.5t-84 -110t-102 -87.5t-111.5 -58t-111.5 -21q-33 0 -60.5 12t-47.5 33.5t-31.5 52t-11.5 67.5q0 70 20 137t54.5 126.5t81.5 109.5t102 86t115 56.5t120 20.5zM540 664
q-44 4 -92.5 -16.5t-94.5 -59t-88 -90.5t-74 -111t-50.5 -121.5t-18.5 -121.5q0 -57 21 -92.5t69 -39.5q39 -3 85 15.5t92.5 54t90.5 85t77.5 108t54 123.5t20.5 132q0 57 -22 93.5t-70 40.5z" />
    <glyph glyph-name="one" unicode="1" horiz-adv-x="500" 
d="M40 20h132l334 591q-66 -63 -150.5 -110t-202.5 -72l-4 22q67 13 123.5 35t104.5 51.5t89.5 65.5t79.5 77h64l-373 -660h168l-5 -20h-366z" />
    <glyph glyph-name="two" unicode="2" horiz-adv-x="618" 
d="M518 665q-30 0 -62.5 -14t-60 -40t-45 -62.5t-17.5 -81.5q0 -27 16 -49.5t55 -22.5q14 0 31.5 5.5t33.5 16t26.5 26t10.5 35.5q0 11 -4.5 20t-4.5 18q0 11 6 17t15 6q10 0 15.5 -9t5.5 -20q0 -29 -13 -54t-34.5 -43t-49 -28t-55.5 -10q-27 0 -47.5 9t-34 24t-20.5 34
t-7 39q0 47 23 85t59.5 65t81.5 41.5t90 14.5q85 0 126 -35t41 -92q0 -90 -52.5 -151.5t-149.5 -99.5q-45 -19 -98.5 -38.5t-105.5 -42t-98.5 -49t-77.5 -59.5q14 2 25 3t22 1q48 0 82 -13t64 -28.5t59.5 -28.5t68.5 -13q51 0 87 23t63 58l10 -7q-42 -60 -87 -91t-87 -31
q-50 0 -84 12.5t-64 28t-62.5 28t-79.5 12.5q-38 0 -64 -17t-48 -53l-19 8q36 60 79 102.5t93 74t107.5 56t122.5 49.5q50 18 92.5 40t73 53t47.5 72t17 97q0 46 -26 77.5t-91 31.5z" />
    <glyph glyph-name="three" unicode="3" horiz-adv-x="609" 
d="M494 552q-13 -42 -46 -67.5t-78 -25.5q-18 0 -34 4.5t-28.5 13.5t-20 21.5t-7.5 28.5q0 37 19 67t50 50.5t69 31.5t77 11q133 0 133 -95q0 -39 -22.5 -74.5t-57.5 -63.5t-78.5 -46.5t-85.5 -22.5q72 0 109 -34.5t37 -86.5q0 -49 -26.5 -98.5t-73 -89t-109.5 -64.5
t-136 -25q-30 0 -58 6t-50.5 16.5t-36 25t-13.5 31.5q0 12 6 19.5t18 7.5q14 0 20 -10t9 -22q11 -35 42 -46q14 -6 32 -8.5t35 -2.5q64 0 114.5 21t84.5 55t52 76.5t18 84.5q0 45 -28.5 77t-92.5 32q-16 0 -33 -2.5t-37 -8.5l34 53q61 1 108.5 18.5t80.5 44.5t50.5 61
t17.5 69q0 38 -24 59t-58 21q-31 0 -58 -10.5t-47.5 -29t-32.5 -44.5t-12 -56q0 -21 13.5 -33.5t37.5 -12.5q35 0 60 20.5t38 55.5l19 -3v0z" />
    <glyph glyph-name="four" unicode="4" horiz-adv-x="596" 
d="M451 236h134l-7 -19h-137l-111 -197h136l-4 -20h-337l6 20h134l110 197h-284l-14 39q68 32 137.5 76.5t134 99t119.5 117t94 131.5h91q-120 -162 -253.5 -271.5t-272.5 -172.5h257l105 184h65z" />
    <glyph glyph-name="five" unicode="5" horiz-adv-x="547" 
d="M272 605q14 23 21 47t4 46q57 -12 109 -24t103 -12q28 0 54.5 2.5t49.5 12t41.5 28t31.5 51.5l21 -6q-18 -50 -42 -79.5t-52 -44.5t-59.5 -19.5t-64.5 -4.5q-21 0 -44.5 2t-47.5 5t-46 7.5t-40 9.5l-140 -231q35 29 78 44.5t77 15.5q76 0 118 -38t42 -98
q0 -72 -35 -131.5t-90 -102t-123 -66.5t-134 -24q-49 0 -79.5 20t-30.5 50q0 33 28 33q13 0 22 -12.5t18 -35.5q8 -19 28 -25.5t50 -6.5q59 0 108 25.5t84.5 65.5t55 89.5t19.5 98.5t-28.5 81.5t-91.5 32.5q-27 0 -62.5 -12.5t-67.5 -38.5l-18 23z" />
    <glyph glyph-name="six" unicode="6" horiz-adv-x="580" 
d="M527 672q-42 0 -88 -22.5t-91 -62t-86 -92.5t-72 -114.5t-49.5 -128.5t-18.5 -134q0 -58 23.5 -85.5t62.5 -27.5q45 0 85.5 28.5t71 72t48.5 96t18 100.5q0 28 -15 51t-43 23q-78 0 -148 -89l-13 12q15 19 34 38t41.5 34t48.5 24t55 9q55 0 81 -28.5t26 -73.5
q0 -54 -22 -110.5t-62.5 -103t-96.5 -76.5t-124 -30q-29 0 -54 9t-43.5 27t-29.5 44.5t-11 61.5q0 72 20.5 142t55.5 132.5t82 115.5t100 91.5t109 60t109 21.5q27 0 53 -5.5t47 -16t34 -25.5t13 -34q0 -10 -4.5 -17t-15.5 -7q-8 0 -14 6.5t-10 16.5q-14 37 -37 52t-70 15z
" />
    <glyph glyph-name="seven" unicode="7" horiz-adv-x="479" 
d="M206 376h96q39 45 72 79t59 60h-14q-23 0 -39.5 13t-16.5 44q0 21 2.5 38t2.5 28q0 17 -13 17q-17 0 -44 -25t-52 -73l-14 7q12 21 28 44.5t35.5 43t42 32t48.5 12.5q19 0 26.5 -9.5t7.5 -31.5q0 -15 -3.5 -36.5t-3.5 -37.5q0 -22 6 -30t14 -8q14 0 24 9q19 21 43 45.5
t48.5 45.5t48.5 35t43 14q23 0 23 -20q0 -17 -19.5 -36.5t-49.5 -39t-65 -37t-66 -30.5l-31.5 -31.5t-31.5 -33.5t-33.5 -39.5t-36.5 -48.5h99l-8 -19h-106q-24 -34 -51 -75.5t-55 -88.5t-55 -97.5t-51 -102.5q-8 -6 -19 -10t-20 -4q-28 0 -28 25q0 12 7 23
q60 102 118 181.5t112 148.5h-86z" />
    <glyph glyph-name="eight" unicode="8" horiz-adv-x="584" 
d="M439 380q9 -11 20.5 -24.5t22 -30t17.5 -37t7 -46.5q0 -57 -29.5 -106t-76 -84.5t-103 -55.5t-110.5 -20q-57 0 -95 27.5t-38 84.5q0 52 25.5 93.5t67 75t95 60t109.5 49.5q-18 23 -29.5 47.5t-11.5 53.5q0 41 19.5 80.5t52.5 70.5t77.5 50t94.5 19q42 0 68.5 -22
t26.5 -59q0 -40 -16 -73.5t-44 -61.5t-66.5 -50.5t-83.5 -40.5zM368 350q-59 -23 -104.5 -48t-76 -55.5t-46.5 -67t-16 -82.5q0 -48 30 -70.5t81 -22.5q28 0 63 13t66.5 39.5t53 65.5t21.5 91q0 24 -7.5 45t-19 38t-24 30.5t-21.5 23.5zM424 395q88 34 123.5 81t35.5 110
q0 34 -20.5 54.5t-49.5 20.5q-32 0 -58 -14.5t-44 -37.5t-28 -52.5t-10 -59.5q0 -32 16 -57t35 -45z" />
    <glyph glyph-name="nine" unicode="9" horiz-adv-x="565" 
d="M137 -3q42 0 89 23t93.5 63t89 94t74.5 117t51.5 130.5t19.5 135.5q0 54 -23 79t-61 25q-44 0 -85 -28.5t-73 -72t-51.5 -95.5t-19.5 -100q0 -29 12 -52t41 -23q34 0 76 22t77 67l13 -12q-16 -19 -35.5 -37.5t-42.5 -33.5t-49 -24t-55 -9q-57 0 -80.5 27t-23.5 75
q0 54 23.5 110.5t65.5 103t99 76t123 29.5q57 0 96.5 -35.5t39.5 -101.5q0 -73 -21.5 -143t-58 -133.5t-85 -117t-103 -92t-111 -60.5t-108.5 -22q-27 0 -53 5.5t-46.5 16t-32.5 25t-12 33.5q0 8 4 15.5t16 7.5q8 0 12.5 -6.5t8.5 -14.5q14 -36 37 -51.5t69 -15.5z" />
    <glyph glyph-name="colon" unicode=":" horiz-adv-x="228" 
d="M93 0q-7 6 -11.5 15t-4.5 21q0 14 10.5 24.5t25.5 10.5q13 0 23.5 -9.5t10.5 -25.5q0 -17 -12 -28.5t-28 -18.5l-17 -7l-6 9zM222 225q-7 6 -11.5 15t-4.5 21q0 14 10.5 24.5t25.5 10.5q13 0 23.5 -9.5t10.5 -25.5q0 -17 -12 -28.5t-28 -18.5l-17 -7l-6 9z" />
    <glyph glyph-name="semicolon" unicode=";" horiz-adv-x="228" 
d="M1 -116q20 7 39 18.5t35 25.5t26.5 30.5t13.5 33.5q-16 0 -25.5 11t-9.5 28q0 15 9.5 27t26.5 12q14 0 23 -11t9 -28q0 -31 -13 -56.5t-34 -45.5t-46.5 -34.5t-49.5 -23.5zM222 225q-7 6 -11.5 15t-4.5 21q0 14 10.5 24.5t25.5 10.5q13 0 23.5 -9.5t10.5 -25.5
q0 -17 -12 -28.5t-28 -18.5l-17 -7l-6 9z" />
    <glyph glyph-name="less" unicode="&#x3c;" horiz-adv-x="680" 
d="M570 441l10 -24l-334 -159l337 -160l-13 -26l-367 172v25z" />
    <glyph glyph-name="equal" unicode="=" horiz-adv-x="705" 
d="M212 297v29h405v-29h-405zM212 188v29h405v-29h-405z" />
    <glyph glyph-name="greater" unicode="&#x3e;" horiz-adv-x="680" 
d="M235 71l-12 25l336 159l-337 160l13 25l367 -172v-25z" />
    <glyph glyph-name="question" unicode="?" horiz-adv-x="377" 
d="M172 172l26 69q19 51 56.5 88.5t101.5 72.5q33 18 60.5 35.5t48 37t32 41t11.5 47.5q0 76 -88 76q-70 0 -115 -47q-9 -10 -13 -25t-6 -30q-2 -17 -9 -28.5t-24 -11.5q-11 0 -18.5 8t-7.5 21q0 24 21 48t52.5 43t68 31t68.5 12q65 0 102 -20.5t37 -73.5q0 -30 -12 -55.5
t-33.5 -48t-50.5 -41.5t-62 -35q-158 -77 -193 -146l-37 -74zM119 0q-7 6 -11.5 15t-4.5 21q0 14 10.5 24.5t25.5 10.5q13 0 23.5 -9.5t10.5 -25.5q0 -17 -12 -28.5t-28 -18.5l-17 -7l-6 9z" />
    <glyph glyph-name="at" unicode="@" horiz-adv-x="778" 
d="M770 73q-36 -59 -86.5 -108.5t-109 -85.5t-122.5 -56t-128 -20q-61 0 -112.5 19t-88.5 52.5t-58 80t-21 102.5q0 65 22 126t60 115t88.5 99.5t108.5 78t120 50.5t122 18q219 0 219 -181q0 -37 -15 -80t-42 -86t-63 -83t-78.5 -70.5t-88.5 -48.5t-92 -18q-26 0 -37.5 15.5
t-11.5 36.5q0 18 11 48q-14 -15 -29.5 -29t-31 -24.5t-30.5 -17t-28 -6.5q-55 0 -55 56q0 49 30.5 98t76.5 88.5t100 64.5t102 25q12 0 23 -3l15 23q20 0 32.5 -5.5t12.5 -19.5l-127 -187q-5 -8 -13 -20.5t-16 -26.5t-13.5 -28.5t-5.5 -26.5q0 -13 7 -21t24 -8q38 0 75.5 16
t72 42.5t64 62t51.5 74t34.5 78t12.5 75.5t-11 66.5t-34.5 53.5t-61 36t-89.5 13q-55 0 -111.5 -17t-108.5 -48t-98 -73t-80 -92.5t-53.5 -106.5t-19.5 -114q0 -56 17.5 -100t50 -75t79 -47t104.5 -16q64 0 126 18t117 50.5t100.5 77t78.5 98.5zM515 313q-8 3 -18 3
q-35 0 -78 -24t-80 -61t-62 -80t-25 -82q0 -30 25 -30q23 0 50.5 20.5t55.5 53.5z" />
    <glyph glyph-name="A" unicode="A" horiz-adv-x="1797" 
d="M2108 783q45 14 89.5 21.5t95.5 7.5q58 0 108 -14t86.5 -41t57 -66t20.5 -90q0 -36 -12 -72t-37 -64.5t-62.5 -46t-89.5 -17.5q-31 0 -60.5 10t-52 29t-36.5 46t-14 62q0 30 17 63t55 50q-36 29 -78.5 53t-82.5 42q-34 -11 -67 -29.5t-65 -36.5l-270 -473
q61 -6 113.5 -31t90 -66.5t59 -99t21.5 -129.5q0 -83 -32 -155.5t-90.5 -126t-141 -84.5t-182.5 -31q-112 0 -200 31.5t-153 87.5t-107 133t-61 168q-88 -40 -183 -63t-206 -23q-110 0 -209 35t-175 102.5t-120.5 167.5t-44.5 230q0 110 39.5 198t107.5 149t158 93.5
t192 32.5q91 0 163.5 -28.5t122.5 -78t76.5 -115t26.5 -139.5q0 -71 -26.5 -132t-72 -106t-107.5 -70.5t-132 -25.5q-53 0 -97 16t-75.5 45t-49.5 69.5t-18 90.5q0 34 13 65.5t36.5 55.5t57.5 38.5t76 14.5q33 0 60 -11.5t45.5 -32t29 -48.5t10.5 -60q0 -20 -8 -31.5
t-21 -11.5q-19 0 -19 25q0 8 2.5 15.5t5.5 15.5t6 16.5t3 17.5q-11 38 -41.5 63.5t-72.5 25.5q-36 0 -66.5 -12.5t-52 -34t-33.5 -51t-12 -62.5q0 -45 16 -82t45.5 -63.5t70.5 -41t92 -14.5q55 0 111.5 21.5t101.5 62t73.5 99t28.5 132.5q0 66 -22.5 128t-68.5 110
t-116 77.5t-164 29.5q-105 0 -192.5 -33.5t-150 -93.5t-97.5 -144t-35 -185q0 -123 41 -217.5t112.5 -158t168.5 -96.5t209 -34q106 -1 200 23t181 66q-12 69 -12 144q0 116 31.5 217t86.5 184.5t130 149.5t161 111t180 68.5t188 23.5q88 0 167.5 -14.5t154.5 -46.5z
M1791 -110q19 0 19 -24q0 -18 -16.5 -40.5t-44 -43t-64.5 -34.5t-78 -14q-50 0 -91.5 16t-71 46t-45.5 73.5t-16 97.5q0 49 19 93t53.5 77.5t82.5 54.5t107 25l48 83h-162q-58 -56 -116 -109.5t-117.5 -102t-122.5 -90.5t-130 -75q19 -92 61.5 -167.5t106 -129.5t148 -83.5
t187.5 -29.5q91 0 168.5 28.5t134.5 79t89.5 120t32.5 150.5q0 68 -20.5 123t-57.5 94.5t-87 62.5t-109 27l-99 -174h134v-24h-287v24h85l101 173q-52 -7 -94.5 -27.5t-73 -51t-47 -69.5t-16.5 -82q0 -100 56 -157t152 -57q78 0 131 55q8 9 13.5 22t8.5 26q3 14 9.5 24
t18.5 10zM2082 770q-60 26 -136.5 40.5t-158.5 14.5q-99 0 -193 -25t-178.5 -71t-155.5 -112t-122 -147.5t-80 -177.5t-29 -202q0 -35 3 -69t8 -66q98 50 186.5 118.5t172 145.5t164.5 157t164 154t170.5 136.5t184.5 103.5zM2293 668q20 5 34 5q33 0 49.5 -13t16.5 -27
q0 -8 -7.5 -16t-26.5 -8q-18 0 -37 13.5t-36 27.5q-20 -9 -32.5 -21.5t-20 -27t-10.5 -28.5t-3 -25q0 -29 11.5 -53t31.5 -41t45.5 -26.5t54.5 -9.5q43 0 77 14.5t57 39.5t35 58.5t12 71.5q0 46 -20.5 81.5t-54.5 60t-79 37t-93 12.5q-38 0 -81.5 -6.5t-77.5 -19.5
q35 -19 77.5 -44.5t77.5 -54.5zM1707 323l177 303q-87 -63 -167.5 -141t-162.5 -162h153zM2305 656q11 -9 26 -20.5t29 -11.5q16 0 16 10q0 11 -14.5 17.5t-33.5 7.5q-13 0 -23 -3z" />
    <glyph glyph-name="B" unicode="B" horiz-adv-x="1646" 
d="M1759 836q64 0 115.5 -17t87 -47.5t54.5 -73t19 -92.5q0 -48 -16.5 -89t-46.5 -71t-72.5 -47t-94.5 -17q-41 0 -73 13t-54.5 35.5t-34.5 51.5t-12 61q0 31 11.5 57.5t32 46t47.5 30.5t58 11q55 0 87 -31t32 -76q0 -16 -6.5 -27t-19.5 -11q-19 0 -19 19q0 6 2.5 12.5
t4.5 11.5t4 11.5t2 14.5q0 24 -25.5 42t-60.5 18q-30 0 -54 -10t-41.5 -27.5t-27 -40.5t-9.5 -50q0 -28 10 -54t30 -46.5t49.5 -33t68.5 -12.5q43 0 81.5 14t67.5 41t45.5 65t16.5 86q0 43 -15.5 82t-46 68.5t-77.5 47t-110 17.5q-71 0 -144 -26t-139 -61q28 -28 43 -63
t15 -80t-20 -82.5t-54 -66t-79 -48t-95 -28.5q69 -11 124 -43.5t94 -78.5t60 -101t21 -112q-1 -114 -48 -207.5t-125.5 -160t-182.5 -102.5t-220 -36q-90 0 -170 29t-139.5 82t-94.5 128.5t-35 168.5q0 27 3 53q-56 -10 -122 -10q-90 0 -169.5 28.5t-138.5 81t-93.5 127.5
t-34.5 168q0 85 32.5 154.5t85.5 119t121 76.5t139 27q72 0 137.5 -26t114.5 -74q46 42 97.5 75t111.5 55.5t130.5 34t156.5 11.5q91 0 168 -17.5t131 -53.5q72 35 148 55t161 20zM884 -139q19 -25 52.5 -39t71.5 -14q46 0 84.5 16t66.5 44.5t43 67.5t15 85q0 61 -19 106
t-50.5 75.5t-71.5 48t-81 24.5q-36 -45 -77.5 -89.5t-89.5 -83t-103.5 -67.5t-118.5 -44q-2 -14 -3.5 -29t-1.5 -31q0 -98 37 -170.5t96 -121t133 -72.5t148 -24q98 0 190.5 32.5t164.5 93.5t116 149.5t45 199.5q1 56 -12.5 109.5t-45 98t-84 77.5t-129.5 48
q-32 -9 -55.5 -12.5t-46.5 -3.5q-20 0 -31 9t-11 20q0 25 48 25q27 0 46 -2.5t43 -7.5q39 3 83.5 15.5t82 37t62 62.5t24.5 91q0 33 -13 67t-42 60q-64 -40 -126 -91t-118.5 -106.5t-107 -113t-91.5 -109.5q44 -8 85.5 -27.5t74 -52t52 -78.5t19.5 -106q0 -54 -17.5 -98
t-49 -75.5t-74.5 -48.5t-93 -17q-43 0 -75.5 13t-55 32.5t-34 42t-11.5 42.5q0 13 5 21.5t16 8.5q14 0 18 -10.5t5 -25.5q1 -14 3 -28t9 -24zM588 9q15 65 48.5 118.5t81 91.5t106 58.5t123.5 20.5q47 59 99.5 121.5t111 121.5t122.5 111t134 91q-45 29 -117 47.5t-157 18.5
q-81 0 -148.5 -10.5t-124.5 -31.5t-105.5 -52t-91.5 -72q82 -94 82 -221q0 -21 -5 -43t-16.5 -39.5t-29 -29t-41.5 -11.5q-27 0 -46 12t-30.5 31.5t-16.5 44t-5 48.5q0 64 21.5 112.5t58.5 93.5q-42 45 -105 71.5t-135 26.5q-65 0 -128.5 -24t-114.5 -70.5t-82.5 -113.5
t-31.5 -152q0 -92 34.5 -163t91.5 -120t131.5 -74.5t154.5 -25.5q33 0 66 3t65 10zM732 418q0 61 -18 109.5t-58 98.5q-40 -48 -57.5 -95t-17.5 -92q0 -63 23 -92.5t57 -29.5q32 0 51.5 26.5t19.5 74.5zM932 280q-62 -2 -116 -24t-96 -58.5t-70 -83.5t-39 -99q53 15 97 43
t82.5 64t73 76.5t68.5 81.5z" />
    <glyph glyph-name="C" unicode="C" horiz-adv-x="827" 
d="M739 101q0 34 -12.5 64t-34 52t-51.5 35t-64 13q-31 0 -60.5 -12t-53 -31t-37.5 -42.5t-14 -46.5q0 -15 5.5 -25.5t11.5 -19t11.5 -16t5.5 -17.5q0 -20 -20 -20q-9 0 -16.5 6.5t-12.5 17t-8 22.5t-3 24q0 36 16 68t42.5 56t61 38t71.5 14q42 0 75.5 -15.5t57.5 -40.5
t36.5 -57t12.5 -65q0 -54 -23 -108.5t-67 -98t-109 -71t-150 -27.5q-76 0 -135 25.5t-99.5 70t-61.5 103.5t-21 127q-1 74 22 144.5t62 134.5t90 120t106 101v16q0 62 24 114t64 89.5t91 58.5t104 21q85 0 141 -34t84 -89q75 -11 119.5 -51t44.5 -112q0 -65 -30 -118.5
t-80 -91.5t-115.5 -59t-135.5 -21q-57 0 -107.5 15.5t-90 44t-67 70t-39.5 93.5q-46 -42 -88 -93t-73.5 -109t-50 -120.5t-18.5 -126.5q0 -55 15.5 -108t48.5 -95t84 -67.5t122 -25.5q85 0 145.5 27t99 68t56.5 89.5t18 91.5zM871 774q-11 2 -25 2.5t-23 0.5
q-53 0 -107.5 -14.5t-109 -40t-107 -60t-101.5 -75.5q8 -47 31.5 -88t60.5 -71.5t86 -48t108 -17.5q70 0 132 20.5t108 57t73 87t27 110.5q0 48 -32.5 86t-98.5 48q8 -21 11 -42t3 -41q0 -50 -14.5 -90.5t-41 -69t-63 -44.5t-79.5 -16q-29 0 -53 9t-40.5 24.5t-25.5 36.5
t-9 45q0 51 26.5 84.5t68.5 43.5q24 5 25 -10q0 -12 -20.5 -20.5t-43.5 -14.5q-23 -16 -32 -38.5t-8 -43.5q2 -49 34 -75t80 -26q36 0 68.5 13t57 39t38.5 64.5t14 89.5q0 23 -5 44t-13 41zM858 802q-26 48 -78 76.5t-125 28.5q-45 0 -91 -17.5t-83.5 -51t-62 -83.5
t-25.5 -114q49 36 101.5 65.5t107.5 51.5t111 34t112 12q5 0 16.5 -0.5t16.5 -1.5z" />
    <glyph glyph-name="D" unicode="D" horiz-adv-x="1345" 
d="M1311 718q35 -51 52 -114.5t17 -124.5q0 -79 -22.5 -157t-65.5 -147.5t-105.5 -129t-143.5 -103t-179 -68t-211 -24.5q-106 0 -203.5 19t-199.5 53q-11 -1 -24 -1.5t-24 -0.5q-17 0 -40.5 1.5t-45.5 5.5t-38 10.5t-17 17.5q0 17 13.5 24t33.5 7q25 0 59 -10t66 -27
q43 10 87 32t87.5 52t86 67t83.5 76q-44 16 -84.5 45t-72 71t-50.5 97t-19 123q0 91 39 169.5t106.5 136t158.5 90t195 32.5q153 0 266.5 -56t182.5 -150q17 2 34.5 3t36.5 1q17 0 50.5 -3.5t68.5 -14.5q33 -11 58 -27.5t25 -42.5q0 -18 -19 -18q-16 0 -26 10.5t-19 24.5
t-21.5 25.5t-32.5 17.5q-48 13 -103 12q-8 0 -19 -1t-21 -3zM1325 472q0 60 -18.5 122t-51.5 114q-41 -9 -75 -25t-64.5 -36.5t-58.5 -44.5t-56 -49q23 -49 23 -107q0 -63 -25 -116.5t-70 -93t-106.5 -61.5t-133.5 -22q-13 0 -25 1.5t-25 3.5q-42 -41 -86 -78t-89 -67
t-91 -51.5t-92 -31.5q55 -14 103 -24t92.5 -17t86.5 -10t84 -3q143 -1 267 45t215.5 126.5t143.5 190t52 234.5zM960 580q-20 27 -50.5 43.5t-68.5 16.5q-17 0 -36 -4.5t-32 -13.5q-10 -7 -16 -18t-10 -22t-10.5 -18.5t-15.5 -7.5q-18 0 -18 17q0 19 11.5 34.5t31 26.5
t44 17.5t51.5 6.5q42 0 77 -17t59 -47q57 48 120.5 81.5t144.5 50.5q-30 39 -70 74.5t-89 62t-107.5 42t-126.5 15.5q-108 0 -196 -33.5t-150.5 -90t-96.5 -129.5t-34 -152q0 -65 18 -118t48.5 -93.5t70 -68.5t83.5 -42q48 51 96 102.5t90 96.5q45 48 90.5 97t91.5 91z
M657 177q13 -4 34 -4q70 0 128 21.5t98.5 58.5t63 87t22.5 107q0 23 -4.5 47.5t-15.5 43.5q-63 -60 -119.5 -129.5t-110.5 -129.5q-21 -24 -47 -51.5t-49 -50.5z" />
    <glyph glyph-name="E" unicode="E" horiz-adv-x="1188" 
d="M1033 613q0 -43 28 -67t73 -24q34 0 60 13t42.5 34.5t25 48.5t8.5 56q0 43 -16.5 76.5t-43.5 56t-61 34.5t-70 12q-60 0 -107 -20.5t-80 -56t-50 -83t-17 -102.5q0 -21 3.5 -50t13.5 -49q11 1 18 1h16q65 0 126.5 -9.5t109.5 -28.5t77 -47.5t29 -67.5q0 -11 -6 -22
t-19.5 -20t-35.5 -14.5t-55 -5.5q-59 0 -109 15t-90 41t-69 61t-47 75q-143 -11 -256.5 -64t-193 -136t-121.5 -189t-42 -223t34.5 -212.5t100.5 -163t161 -104t215 -36.5q99 0 185.5 33.5t150.5 90t100.5 129.5t36.5 151q0 69 -21.5 126t-61 97.5t-94.5 62.5t-122 22
q-57 0 -107.5 -17.5t-87.5 -49t-58.5 -75.5t-21.5 -97q0 -50 15 -89t42.5 -66.5t65.5 -42t85 -14.5q43 0 79 17t60 45q14 17 17 47q2 14 7 23t18 9q20 0 20 -24q0 -18 -16.5 -41.5t-44.5 -44.5t-65 -35.5t-78 -14.5q-48 0 -89 15.5t-71.5 44.5t-48 72t-17.5 97
q0 55 22 102.5t61.5 82.5t93.5 55.5t119 20.5q68 0 127 -22.5t102.5 -64.5t68.5 -103t25 -137q0 -83 -38.5 -161t-106 -138t-159.5 -96.5t-199 -36.5q-129 0 -232.5 37.5t-176.5 107t-112 169.5t-39 226q0 136 52 247.5t141.5 193.5t210 131.5t257.5 61.5q-8 22 -12.5 49
t-4.5 47q0 61 22 113.5t63 90.5t99 60t130 22q47 0 86 -16t67.5 -43t44 -62t15.5 -74q0 -44 -14 -76t-36.5 -53t-50 -31t-55.5 -10q-22 0 -43 6t-38 19.5t-27.5 33.5t-10.5 49q0 21 8 39t20.5 30.5t29.5 19.5t35 7q33 0 52 -13.5t19 -31.5q0 -19 -18 -19q-11 0 -16 7t-10 17
q-4 8 -11.5 15.5t-18.5 7.5q-12 0 -24.5 -5t-23 -15t-17.5 -25t-7 -35zM893 474h-9t-13 -0.5t-13 -0.5h-9q15 -35 39.5 -65.5t57 -53.5t72.5 -36.5t86 -13.5q27 0 44.5 4t27.5 9.5t14 12t4 12.5q0 37 -32.5 62.5t-79 41t-98.5 22t-91 6.5z" />
    <glyph glyph-name="F" unicode="F" horiz-adv-x="1152" 
d="M2182 743q0 48 8 64t19 16t14.5 -7t3.5 -20q0 -27 -14 -50t-37 -40.5t-52 -27t-58 -9.5q-39 0 -74 13.5t-61.5 38.5t-42 60.5t-15.5 80.5q0 51 20 94t55 74.5t82 49t101 17.5q68 0 118 -25t83 -64t49 -86t16 -91q0 -73 -26.5 -138t-76 -113.5t-122 -77t-163.5 -28.5
q-83 0 -152.5 14t-138 42.5t-141.5 71t-161 99.5q-52 -33 -102 -74t-96.5 -86.5t-89 -92.5t-79.5 -92h185l-4 -19h-196q-14 -17 -27.5 -34t-25.5 -33q-62 -80 -124 -151.5t-133 -126.5t-154 -87t-185 -32q-92 0 -168.5 32t-132.5 89t-87 136t-31 172q0 108 36.5 189
t95.5 135t133.5 81.5t150.5 27.5q57 0 110 -14.5t98 -41.5q24 52 56.5 102t78 88.5t106.5 62t141 23.5q66 0 128 -17.5t119.5 -45.5t110.5 -62.5t101 -67.5q35 17 68 29.5t66.5 20t69.5 11t78 3.5q65 0 89.5 -7t24.5 -15t-14 -15.5t-37 -7.5q-51 0 -64 27q-35 0 -65 -5
t-58.5 -14.5t-57 -23.5t-61.5 -31q73 -51 142.5 -93t137 -72t134 -46t133.5 -16q80 0 146 23.5t113 66t73 101.5t26 130q0 45 -15.5 89.5t-46 80t-76.5 57.5t-106 22q-54 0 -98 -17.5t-74.5 -47t-47 -68t-16.5 -79.5t13.5 -73.5t36.5 -55t54.5 -34.5t66.5 -12q40 0 71 16.5
t45 36.5zM826 356h146q42 52 88.5 104t97 101t105.5 92.5t114 78.5q-46 33 -95 68t-100.5 63.5t-104.5 47t-108 18.5q-76 0 -133.5 -21.5t-100.5 -57.5t-74 -83.5t-53 -99.5q26 -20 49 -46t40.5 -57t27.5 -67t10 -75q0 -25 -6 -49.5t-18 -44t-30 -31.5t-42 -12
q-26 0 -45 14.5t-31 36.5t-18 48.5t-6 50.5q0 48 9.5 108.5t34.5 117.5q-43 28 -93.5 42.5t-110.5 14.5q-41 0 -86 -10.5t-88.5 -32.5t-83 -55.5t-69 -79.5t-47 -105.5t-17.5 -132.5q0 -98 33.5 -173t88.5 -126t125.5 -77.5t145.5 -26.5q97 0 169.5 31t133.5 84t116.5 124
t118.5 151q9 12 18.5 24t19.5 24h-136zM600 652q-22 -60 -31 -110t-9 -104q0 -26 5.5 -50t15.5 -43t25 -30.5t34 -11.5q18 0 32 10t23 26.5t13.5 36.5t4.5 41q0 81 -29.5 136.5t-83.5 98.5z" />
    <glyph glyph-name="G" unicode="G" horiz-adv-x="1449" 
d="M1322 509q48 0 97 14t88 40.5t63.5 63t24.5 81.5q0 31 -14 57t-41 45.5t-67.5 30.5t-94.5 11q-68 0 -142.5 -22t-146 -61.5t-136.5 -95t-115 -122.5t-81 -143t-35 -157q-3 -56 9 -105.5t39.5 -86.5t70 -59t101.5 -22q37 0 67.5 5.5t58.5 16t54.5 25t55.5 33.5
q28 76 60 135.5t64.5 100t64.5 61.5t61 21q49 0 49 -55q0 -20 -19.5 -50.5t-52 -65t-75 -70.5t-87.5 -66q-53 -144 -129.5 -266.5t-178 -211t-228.5 -138.5t-281 -50q-72 0 -140.5 23t-122.5 67t-86.5 107t-32.5 143q0 74 25.5 133t68.5 99.5t100.5 62t122.5 21.5
q52 0 97 -17.5t79 -48.5t53.5 -73.5t19.5 -92.5q0 -26 -8 -55t-23 -54.5t-36 -42t-47 -16.5q-10 0 -18.5 5.5t-8.5 16.5q0 17 14 24t31 13q42 15 57.5 41t15.5 76q0 40 -17.5 77.5t-48 66t-72.5 45.5t-90 17q-57 0 -110 -19t-93.5 -56.5t-64.5 -93.5t-24 -129q0 -78 32 -137
t83 -98.5t115 -59.5t128 -20q139 0 251.5 41.5t203 119t161.5 188.5t127 249q-26 -17 -52 -31.5t-55.5 -25.5t-63 -17.5t-72.5 -6.5q-53 0 -100.5 16t-83.5 50.5t-57.5 90t-21.5 133.5q0 87 31.5 167.5t84.5 151t124 128.5t150.5 99.5t162 64.5t160.5 23q49 0 93.5 -10
t78 -30.5t53 -51.5t18.5 -73q-1 -50 -29 -89.5t-70.5 -67.5t-94 -43t-99.5 -15q-61 0 -97 22.5t-36 51.5q0 11 5.5 18.5t19.5 7.5q12 0 23.5 -14t19.5 -31q8 -20 25.5 -27.5t36.5 -7.5zM1253 101q25 17 59.5 44t66 57t53.5 60.5t22 56.5q0 24 -21 24q-17 0 -40 -19
t-47.5 -52t-49 -77t-43.5 -94z" />
    <glyph glyph-name="H" unicode="H" horiz-adv-x="1326" 
d="M2293 601q0 -16 -22 -16q-9 0 -16 3.5t-13.5 7.5t-13.5 7.5t-17 3.5q-28 0 -53 -9t-43.5 -25t-29.5 -38t-11 -48q0 -29 12 -53.5t33.5 -41.5t50.5 -26.5t64 -9.5q62 0 110.5 18.5t81.5 49t50.5 70t17.5 82.5q0 46 -20.5 89t-64.5 75.5t-113.5 52t-167.5 19.5
q-152 0 -271.5 -34t-217.5 -99.5t-180 -160t-158 -214.5l-180 -282h127l-6 -22h-291l6 22h93l177 270h-287q-65 -82 -123 -145.5t-112 -106.5t-106.5 -65.5t-107.5 -22.5q-30 0 -59 9t-52 25.5t-37.5 40t-14.5 53.5q0 20 9 38t30 18q12 0 18.5 -7.5t6.5 -19.5
q0 -10 -3.5 -18t-6.5 -16t-5.5 -15t-2.5 -16q0 -19 12 -32.5t29 -23.5t37 -15t37 -5q63 0 114.5 32t103.5 88.5t108.5 134.5t128.5 170q62 79 118 143.5t111.5 115.5t113 88.5t122.5 61.5q-15 1 -29 2t-30 1q-165 0 -329.5 -39.5t-315.5 -114.5t-281 -183.5t-226 -247.5
t-151 -305.5t-55 -357.5q0 -174 37 -317t103 -256t156 -196t195.5 -138t223 -82t237.5 -27q130 0 242.5 29.5t206 82t166.5 124.5t123 158t76.5 182.5t26.5 197.5q-1 102 -26 186t-67.5 151t-99.5 116.5t-122.5 82.5t-136.5 49.5t-141 16.5q-119 0 -219 -38t-172 -105.5
t-112.5 -160t-40.5 -200.5q0 -75 26 -143t75.5 -120t121 -83t161.5 -31q63 0 119.5 23t100 63t69 93t25.5 113q0 42 -12.5 78.5t-35.5 62.5t-57 41t-77 15q-35 0 -64.5 -16t-45.5 -42q14 -9 20.5 -26t6.5 -29q0 -24 -10 -38.5t-27 -14.5q-18 0 -28 18t-10 38q0 26 13.5 49.5
t35.5 41t50.5 27.5t58.5 10q46 0 84 -17t64 -46.5t40.5 -68.5t14.5 -83q0 -63 -27.5 -119t-74.5 -98.5t-109 -67t-130 -24.5q-93 0 -167 33t-125.5 88t-79 126t-27.5 147q0 117 44 213t121 164.5t181 106t224 37.5q67 0 138.5 -16t139.5 -48.5t128 -83t105 -119t71.5 -156.5
t26.5 -196q0 -102 -26 -200.5t-76.5 -186.5t-124.5 -163t-170 -129t-213 -84.5t-254 -30.5q-128 0 -249.5 28.5t-229.5 86t-198.5 144t-156 201.5t-102 259.5t-36.5 317.5q0 189 55 357t152 309.5t230 254.5t289.5 191.5t330.5 120.5t353 42q28 0 59 -1.5t61.5 -4.5t59.5 -7
t53 -9q8 -8 8 -18q0 -11 -7.5 -18.5t-19.5 -9.5q-41 10 -71 18t-68 12q-49 -16 -97 -47t-99 -78t-106 -111t-119 -146q-20 -26 -38.5 -50.5t-36.5 -47.5h281q97 150 190.5 249.5t197.5 159t225.5 83.5t274.5 24q107 0 180.5 -22t119 -58t65.5 -81.5t20 -91.5q0 -53 -22 -96
t-59.5 -74.5t-88 -48.5t-108.5 -17q-40 0 -72.5 10.5t-56 29.5t-36 45.5t-12.5 58.5q0 35 14.5 61.5t39.5 44t57.5 26.5t67.5 9q29 0 42.5 -7.5t13.5 -18.5z" />
    <glyph glyph-name="I" unicode="I" horiz-adv-x="1175" 
d="M455 292q-35 -8 -62 -33t-27 -70q0 -54 35 -82.5t90 -28.5q40 0 73.5 13t58 38.5t38.5 62.5t14 84q0 36 -14.5 71.5t-42 63.5t-68.5 45.5t-93 17.5t-102 -18t-89 -51.5t-63 -82.5t-24 -112q0 -65 21.5 -118.5t61 -91.5t96 -59.5t126.5 -21.5q84 0 152 24t124.5 65
t102.5 94t86 112q-66 2 -120 27t-92.5 67t-59 97t-20.5 118q0 90 42 161t119 119.5t185.5 74.5t240.5 26q51 0 110.5 -3t120 -9t118.5 -14t106 -18q9 -12 9 -22q0 -20 -25 -25q-24 5 -46 14.5t-44 13.5q-69 -5 -123.5 -30.5t-99 -65.5t-81.5 -91.5t-71 -108.5
q11 -20 17.5 -45t6.5 -54q0 -44 -17 -82t-46 -67t-68.5 -49t-85.5 -29q-48 -71 -101.5 -130.5t-118.5 -103.5t-144.5 -68.5t-178.5 -24.5q-74 0 -134 24t-102.5 66t-65.5 99.5t-23 124.5q0 56 21 107.5t60.5 90.5t95 62.5t124.5 23.5q66 0 111.5 -22t73.5 -54.5t40.5 -70.5
t12.5 -69q0 -45 -14 -84t-40.5 -67.5t-64.5 -45t-86 -16.5q-30 0 -56.5 9t-46 25.5t-30.5 40t-11 52.5q0 27 11.5 49.5t31 39t45.5 25.5t55 9q38 0 49.5 -9.5t11.5 -18.5q0 -8 -9.5 -14t-25.5 -6t-31.5 6t-29.5 23zM1542 857q-29 4 -67 8.5t-80.5 8.5t-87.5 6.5t-89 2.5
q-112 0 -210.5 -22t-172.5 -66.5t-117 -113t-43 -161.5q0 -57 20 -109.5t56.5 -92t87.5 -63.5t114 -24h7q25 39 51.5 83.5t52.5 89.5t51.5 89t49.5 82q-21 19 -46 30.5t-67 11.5q-30 0 -57.5 -12t-44.5 -35q0 -33 -11 -58.5t-29 -25.5q-19 0 -19 27t15 49.5t38 39t51 25.5
t54 9q36 0 69 -10.5t59 -31.5q30 45 69 87.5t85.5 78.5t100 61.5t110.5 35.5zM1205 525q-19 -35 -40 -72.5t-42.5 -75t-43 -72.5t-40.5 -65q40 9 73.5 28.5t58 46t38.5 58t14 64.5q0 26 -3.5 45t-14.5 43z" />
    <glyph glyph-name="J" unicode="J" horiz-adv-x="1398" 
d="M1826 788q-70 -6 -128.5 -28.5t-108 -57t-91.5 -78.5t-78 -92q25 -23 39.5 -58t14.5 -80q0 -50 -21 -92t-57.5 -72.5t-85 -48t-103.5 -19.5q-38 -73 -78.5 -144.5t-87.5 -136.5t-101.5 -120.5t-120.5 -96.5t-144.5 -63.5t-172.5 -21.5q-90 0 -170 29t-139.5 82
t-94.5 128.5t-35 168.5q0 94 36 166t96 120q-85 114 -85 253q0 85 33.5 166.5t102 146t171.5 104t243 39.5q66 0 128.5 -13.5t118 -39.5t102 -65t81.5 -90q75 38 171.5 58t214.5 20q51 0 110.5 -3t120 -9t118.5 -14t106 -18q9 -12 9 -22q0 -9 -7 -11.5t-18 -4.5zM1137 166
q-57 9 -102.5 36.5t-77 68t-48.5 92t-17 108.5q0 99 48.5 172t132.5 122q-33 51 -79.5 89t-100.5 63t-113.5 37.5t-118.5 12.5q-132 0 -231.5 -37t-166 -97.5t-100 -139t-33.5 -161.5q0 -66 19.5 -129t61.5 -117q49 35 105.5 51.5t113.5 16.5q52 0 103.5 -17t92.5 -51.5
t67 -87t26 -123.5q0 -54 -18 -98t-48.5 -76t-72 -49.5t-89.5 -17.5q-39 0 -69.5 12.5t-52.5 33.5t-33.5 49t-11.5 60q0 45 27 80.5t74 47.5q-131 41 -218 141q-53 -42 -88.5 -109t-35.5 -162q0 -96 37 -168.5t96 -121t133 -73t149 -24.5q70 0 135 21t123.5 57t109 84
t91.5 103q51 69 94.5 144.5t85.5 156.5zM449 109q-42 -9 -66.5 -32t-33.5 -51.5t-3.5 -59t24 -56t49.5 -42t72 -16.5q46 0 84.5 16.5t66 46t42.5 69t15 84.5q0 66 -22 116t-59.5 83.5t-86 51t-101.5 17.5q-60 0 -113.5 -17.5t-95.5 -47.5q24 -27 49 -48.5t53 -39.5t60.5 -32
t72.5 -26q25 0 45.5 -3t20.5 -17q0 -5 -4.5 -7.5t-9.5 -2.5q-12 0 -26 3.5t-33 10.5zM1147 183q24 45 49.5 92.5t52.5 94t55.5 91t58.5 83.5q-17 13 -38 17.5t-41 4.5q-15 0 -31.5 -4t-32.5 -11t-29 -16.5t-21 -20.5q0 -12 -1.5 -26t-5.5 -26t-10 -19.5t-15 -7.5
q-18 0 -18 26q0 14 7.5 33.5t21.5 34.5q-5 66 -21 120.5t-45 99.5q-172 -97 -172 -277q0 -57 16 -106.5t46.5 -87.5t74 -63t99.5 -32zM1771 803q-61 10 -139.5 20.5t-169.5 10.5q-97 0 -190.5 -16.5t-171.5 -58.5q30 -51 45.5 -104t20.5 -113q24 20 55 31t60 11q53 0 96 -22
q34 42 76 81t91.5 71.5t106.5 55.5t120 33zM1408 518q-43 -63 -81.5 -132.5t-71.5 -132.5l-38 -71q57 3 101.5 22.5t75 49.5t46.5 66.5t16 73.5q0 33 -11 65.5t-37 58.5z" />
    <glyph glyph-name="K" unicode="K" horiz-adv-x="1685" 
d="M1184 365q-18 -4 -38 -6t-43 -2q-11 0 -25 1t-26 5.5t-20.5 13.5t-8.5 24q0 13 14.5 21.5t40.5 8.5q35 0 69 -10t64 -21q76 35 138.5 83.5t119 100.5t110.5 102.5t113 91t126.5 65.5t151.5 25q40 0 72.5 -10t59 -27t46 -39.5t33.5 -47.5q51 25 109 39.5t116 14.5
q136 0 245 -40.5t185.5 -112.5t118 -172t41.5 -219q0 -92 -24.5 -177t-69 -158t-106.5 -132.5t-136.5 -102t-160.5 -65.5t-177 -23q-122 0 -215.5 22.5t-168.5 63t-137.5 96.5t-123.5 123.5t-127 143.5t-147 156q-58 57 -115.5 102t-103.5 62zM1246 383q51 -26 99 -62.5
t96 -79.5q74 -67 135.5 -140t120.5 -142.5t120 -132.5t134 -110t163 -75t207 -28q94 0 180 23.5t159 65.5t132 101.5t101 131t64.5 153.5t22.5 170q-1 110 -39.5 206t-111.5 167t-180 112t-246 41q-57 0 -112 -15t-103 -39q11 -24 17.5 -53.5t6.5 -50.5q0 -51 -18.5 -96
t-50.5 -78.5t-75.5 -53t-93.5 -19.5q-37 0 -69 11.5t-56 32t-37.5 49t-13.5 63.5q0 33 11.5 58.5t30 42.5t42.5 26t50 9q28 0 55 -14.5t39 -36.5q22 30 56.5 60.5t80.5 54.5q-29 48 -77.5 79t-117.5 31q-75 0 -134.5 -25.5t-112.5 -67t-103 -92.5t-105.5 -102.5t-120 -97.5
t-146.5 -77zM1019 418q-4 -8 -13.5 -26t-19.5 -37.5t-19 -37t-13 -25.5q-43 -81 -92.5 -157t-114.5 -135.5t-149.5 -95t-198.5 -35.5q-74 0 -134 24t-102.5 66t-65.5 99.5t-23 124.5q0 56 19.5 107.5t57 90.5t92.5 62.5t126 23.5q66 0 111.5 -21.5t73 -53t40 -69t12.5 -68.5
q0 -45 -14.5 -84.5t-40.5 -69t-62.5 -46.5t-80.5 -17q-30 0 -55.5 9t-44.5 25.5t-29.5 40t-10.5 52.5q0 27 11 49.5t29.5 39t44 25.5t54.5 9q38 0 55.5 -10t17.5 -25q0 -19 -19 -19q-11 0 -19.5 4.5t-17.5 10.5t-20.5 11t-25.5 5q-17 0 -33.5 -7t-29.5 -20t-21 -31t-8 -39
q0 -26 9.5 -47t26 -36t38.5 -23t48 -8q41 0 74 15.5t56.5 43t36 64.5t12.5 81q0 37 -14.5 72t-42 61.5t-68.5 42.5t-94 16t-102 -17t-86.5 -50t-60.5 -82.5t-23 -113.5q0 -63 21.5 -116.5t61 -92.5t96 -61t126.5 -22q100 0 173.5 34.5t129.5 91.5t100 129.5t84 149.5
q4 7 14 25.5t21 39.5t20.5 39.5t13.5 25.5q31 56 68.5 112t82.5 104t98 85t116 55q-57 24 -122 48t-132.5 42.5t-133.5 30.5t-124 12q-72 0 -137 -16.5t-115 -52t-79.5 -90t-29.5 -130.5q0 -51 18 -93.5t50.5 -73.5t77 -48.5t98.5 -17.5q46 0 84 13.5t64.5 37.5t41 57
t14.5 72q0 29 -10.5 55t-30 45t-46 30t-58.5 11q-19 0 -38.5 -6.5t-32.5 -19.5q-8 -8 -12 -19t-6 -22t-6 -18t-13 -7q-19 0 -19 18q0 21 12 38t30.5 29t41 18.5t44.5 6.5q35 0 65 -12.5t51.5 -34t33.5 -50t12 -61.5q0 -44 -17 -80.5t-47 -62.5t-71 -40t-89 -14
q-58 0 -106 19.5t-82.5 53t-54 79t-19.5 96.5q0 75 28 132t78 96t120.5 59t154.5 20q65 0 138 -10.5t148.5 -29t152 -45.5t148.5 -60q5 -7 7.5 -15t0.5 -14q-3 -16 -23 -14q-8 4 -17 10.5t-18 11.5q-58 -14 -104.5 -48t-85.5 -81t-72.5 -104.5t-65.5 -118.5zM2014 606
q-9 20 -31 35t-51 15q-24 0 -45.5 -8.5t-37.5 -24t-25.5 -38t-9.5 -50.5q0 -31 12 -56.5t33 -44t50.5 -29t65.5 -10.5q46 0 85.5 18t69 49.5t46.5 73t17 88.5q0 24 -5.5 49.5t-16.5 48.5q-37 -20 -71 -48t-64 -70q3 -7 4.5 -12.5t1.5 -15.5q0 -13 -6 -20t-13 -7
q-8 0 -13 5.5t-6 19.5q0 16 10 32zM1155 385q-20 11 -41.5 16t-32.5 5q-16 0 -21 -3t-5 -6q0 -8 19 -12t42 -4q24 0 39 4z" />
    <glyph glyph-name="L" unicode="L" horiz-adv-x="1187" 
d="M1151 -293q29 0 57 11q11 5 18 15t12 22t13 21t19 9q8 0 14 -4.5t6 -12.5q0 -18 -14.5 -32t-35.5 -23.5t-45.5 -15t-45.5 -5.5q-37 0 -73.5 14.5t-66 42t-47.5 68t-18 92.5t17.5 102t55 89.5t96 64t139.5 24.5q64 0 118.5 -24.5t94 -65.5t61.5 -95t22 -113
q0 -115 -43.5 -200.5t-112 -142.5t-153 -85t-166.5 -28q-101 0 -180 21.5t-141 57t-110 81.5t-86.5 96t-70.5 100.5t-62.5 94t-62 76.5t-69.5 49q-18 -10 -44.5 -14.5t-44.5 -4.5q-10 0 -22 2t-22 7.5t-17 14t-7 20.5q0 13 14.5 21.5t40.5 8.5t48.5 -5t45.5 -16
q62 28 113.5 78.5t98.5 114t91.5 135t92.5 141.5t101.5 134.5t118.5 113.5t143.5 78.5t176.5 29.5q84 0 145 -23.5t100.5 -63.5t58 -92.5t18.5 -110.5q0 -66 -26 -123t-71 -99.5t-105 -67t-129 -24.5q-57 0 -105 16t-83 44.5t-54.5 69t-19.5 90.5q0 47 16.5 83.5t43.5 61
t62.5 37t74.5 12.5q25 0 52.5 -9t50 -24.5t37 -36t14.5 -43.5q0 -28 -20 -28q-18 0 -18 32q0 27 -12 42q-17 23 -47 37t-60 14q-36 0 -68.5 -12t-56.5 -35t-38 -56t-14 -75q0 -44 17 -81t49 -64t77.5 -42.5t102.5 -15.5q67 0 123.5 23.5t97.5 64t63.5 95.5t22.5 118
q0 51 -18 98t-55.5 83.5t-94.5 58t-134 21.5q-83 0 -147.5 -25.5t-118.5 -69.5t-99.5 -102.5t-89.5 -124.5t-89 -135.5t-97.5 -135.5t-116 -124.5t-143.5 -102.5q57 -32 106.5 -85.5t99 -115t103 -125t119.5 -114.5t149 -83.5t191 -32.5q77 0 155.5 24.5t142 75.5t104.5 130
t42 189q0 63 -23 115t-61.5 89.5t-88 58.5t-102.5 21q-69 0 -123 -20.5t-90.5 -56t-55.5 -84t-19 -104.5q0 -48 15.5 -85t41.5 -62.5t60 -39t70 -13.5z" />
    <glyph glyph-name="M" unicode="M" horiz-adv-x="1458" 
d="M1490 21q-15 -15 -38.5 -34t-51 -35.5t-59 -27.5t-62.5 -11q-38 0 -60 21.5t-22 63.5q0 78 36 169.5t99 185.5t148.5 186t184.5 171q-113 -27 -202 -87.5t-164.5 -143t-142.5 -181.5t-136 -202q-5 -29 -13 -67.5t-15 -70.5q-2 -12 -11 -20t-28 -8q-14 0 -24 12
q25 146 48.5 259.5t54.5 203t75 159.5t109 130q-61 -32 -113 -66t-99.5 -73.5t-92 -85t-90.5 -100.5q-77 -93 -142.5 -175.5t-130.5 -144t-136 -97.5t-159 -36q-26 0 -49.5 8t-41.5 21.5t-28.5 31t-10.5 36.5q0 25 8 37t19 12q8 0 13 -6t5 -21q0 -11 -2.5 -21.5t-2.5 -22.5
q0 -14 8 -24.5t21 -17.5t29 -11t33 -4q59 0 112 23t101.5 61t93.5 87.5t87.5 103t83.5 106.5t82 99q146 161 299 249t314 120q-146 42 -262.5 74t-214.5 53t-184 32t-171 11q-113 0 -215.5 -23.5t-180 -72.5t-123.5 -125t-46 -182q0 -65 19.5 -121t57 -97.5t92 -65.5
t123.5 -24q52 0 103 18t90.5 51.5t64 80.5t24.5 104q0 44 -12 81.5t-35.5 65t-58.5 43t-80 15.5q-43 0 -80 -16.5t-63 -49.5q-11 -14 -15.5 -31.5t-4.5 -31.5t-6 -22.5t-15 -8.5q-8 0 -14 6t-6 19q0 28 18 55.5t47.5 48.5t66 34t73.5 13q48 0 85.5 -17t63.5 -47t39.5 -70
t13.5 -86q0 -60 -24.5 -110.5t-66 -87t-96.5 -57t-116 -20.5q-71 0 -128 24.5t-97.5 68t-62 103t-21.5 128.5q0 112 48 192.5t129 132.5t186.5 76t221.5 24q86 0 176.5 -11t195 -33t227.5 -56t274 -80q19 3 46.5 6t43.5 3q46 0 61 -7.5t15 -21.5q0 -10 -17.5 -18.5
t-50.5 -8.5q-19 0 -44 7t-59 18q-32 -3 -66 -10.5t-79 -23.5q-75 -57 -122.5 -117t-77.5 -128t-48.5 -147t-36.5 -174q51 76 97.5 142t93 123t96 104.5t108.5 86.5t129 69t158 52q75 55 154 100.5t163.5 78.5t174.5 51t186 18q67 0 123.5 -13.5t97 -40t63 -66.5t22.5 -94
q0 -50 -21 -92.5t-58.5 -74t-90 -49.5t-116.5 -18q-44 0 -81.5 10.5t-65.5 30.5t-43.5 50t-15.5 69q0 31 13.5 57t37.5 44.5t58 28.5t75 10q27 0 44 -5.5t26.5 -13t13 -15t3.5 -11.5q0 -19 -15 -19q-11 0 -17.5 8t-12.5 16q-7 9 -16.5 17t-25.5 8q-40 0 -71 -10.5
t-52.5 -27.5t-32.5 -39.5t-11 -47.5q0 -66 49 -105.5t140 -39.5q54 0 102.5 14.5t85.5 42.5t58.5 68.5t21.5 93.5q0 47 -20.5 83.5t-58.5 61.5t-91.5 38t-118.5 13q-118 0 -229.5 -29t-213.5 -79.5t-193 -118.5t-168 -145.5t-139 -160t-105 -163t-66 -154.5t-23 -134
q0 -26 11.5 -41t31.5 -15q28 0 53.5 9t48 23t43 31t38.5 33zM1500 777q19 -5 36 -8.5t31 -3.5q10 0 21 2.5t11 6.5q0 3 -11 6t-30 3q-14 0 -27 -1.5t-31 -4.5z" />
    <glyph glyph-name="N" unicode="N" horiz-adv-x="1660" 
d="M1294 879q8 11 16 16t21 5q27 0 49 -31t39 -80t30 -111t21.5 -124t12.5 -118.5t4 -94.5q0 -65 -6 -131q100 174 217 318t256.5 247.5t303.5 161t356 57.5q75 0 137 -16.5t105.5 -46.5t67.5 -71t24 -90q0 -50 -20 -92.5t-57 -74.5t-88.5 -50t-115.5 -18q-43 0 -81 11
t-66 32t-44.5 52.5t-16.5 72.5q0 34 14 61.5t38 46.5t55 29.5t65 10.5q27 0 46 -6.5t31 -15.5t17 -18.5t5 -14.5q0 -19 -21 -19q-11 0 -19 8.5t-15 20.5t-18 20.5t-29 8.5q-32 0 -59.5 -10t-47.5 -28t-31 -42t-11 -52q0 -32 12.5 -59.5t36.5 -48t59 -32.5t80 -12
q58 0 106.5 16.5t83 46t53.5 69.5t19 88q0 47 -26 84.5t-69.5 64t-100.5 40.5t-118 14q-145 0 -267.5 -33t-228.5 -91.5t-196 -139t-169 -175.5t-149 -201.5t-135 -216.5q-14 -83 -36 -159q-4 -12 -11 -22.5t-28 -10.5q-9 0 -15 5t-11 12q35 109 49 208.5t14 190.5
q0 88 -12 175t-33 162q-13 -100 -45.5 -206t-83.5 -207t-120 -191t-155 -158t-189 -107.5t-222 -39.5q-99 0 -187.5 31.5t-155 93t-105.5 152t-39 208.5q0 98 36.5 178t98.5 136.5t145 87.5t175 31q83 0 149 -26t112 -71.5t70.5 -107t24.5 -131.5q0 -65 -24 -120
t-65.5 -95.5t-98 -63t-122.5 -22.5q-48 0 -88.5 15t-70 42t-46.5 64t-17 82q0 31 11.5 60.5t33.5 52t53.5 36t71.5 13.5q31 0 56.5 -11.5t43.5 -31.5t28 -46.5t10 -55.5q0 -18 -8 -30.5t-20 -12.5q-21 0 -21 23q0 8 2.5 15.5t4.5 15.5q3 8 5 16.5t2 18.5q0 11 -7.5 25.5
t-21 27t-32.5 21.5t-42 9q-34 0 -62 -11.5t-47.5 -31t-30.5 -47t-11 -58.5q0 -42 15.5 -76t42.5 -58.5t64 -37.5t80 -13q53 0 104.5 19t92.5 55.5t66 90t25 122.5q0 58 -19 114.5t-60 101.5t-104.5 72.5t-151.5 27.5q-92 0 -170.5 -30.5t-136 -85t-90.5 -131t-33 -168.5
q0 -112 37.5 -197.5t101.5 -144t148 -88.5t177 -30q107 0 204 39.5t180 109t152 164t120 203.5t83.5 227.5t43.5 236.5q-27 71 -61 105z" />
    <glyph glyph-name="O" unicode="O" horiz-adv-x="1297" 
d="M1320 541q0 -96 -35 -192q36 -20 67.5 -51.5t55.5 -71.5t37.5 -86.5t13.5 -95.5q0 -125 -42.5 -218t-112 -155.5t-158 -93.5t-181.5 -31q-94 0 -169 28.5t-129.5 78.5t-87 118t-41.5 147l-4 33q-69 34 -103.5 98.5t-34.5 149.5q0 84 28.5 168.5t78.5 162.5t118.5 145.5
t148 117t167.5 78t178 28.5q76 0 135.5 -21.5t100 -57.5t62 -84t21.5 -101q0 -30 -4.5 -51t-11.5 -33.5t-15.5 -18t-16.5 -5.5q-17 0 -17 18q0 9 7 18t15 19t15 22t7 28q0 57 -22 103.5t-61 79.5t-94 51t-121 18q-95 0 -181 -33.5t-160.5 -89t-134.5 -128t-103 -150
t-66 -154.5t-23 -142q0 -63 22.5 -116.5t64.5 -85.5q0 85 22.5 174t63 173t96 158.5t121.5 130t140.5 87.5t152.5 32q46 0 81.5 -14.5t59.5 -40.5t36.5 -62.5t12.5 -81.5zM591 -69q8 -71 35.5 -137t74.5 -117t113 -82t152 -31q80 0 163.5 27t152 85t112 149t43.5 219
q0 91 -43 166.5t-115 120.5q-35 -84 -91.5 -158.5t-133.5 -130.5t-173.5 -88.5t-210.5 -32.5q-18 0 -40.5 2.5t-38.5 7.5zM588 -45q17 -8 38.5 -12t38.5 -4q111 0 202.5 35t163 93.5t123 133.5t81.5 155q-30 14 -64.5 22.5t-83.5 8.5q-36 0 -77.5 -8t-71.5 -29
q-8 -6 -13 -17t-7 -23q-2 -11 -7 -20t-17 -9q-8 0 -14.5 6.5t-6.5 15.5q0 24 21 42.5t53 31.5t70 19.5t71 6.5q39 0 80.5 -8t73.5 -23q15 45 25 86t10 83q0 52 -11 87t-31 56.5t-48 30.5t-62 9q-64 0 -128.5 -32.5t-124.5 -87t-111.5 -127.5t-90 -153.5t-60.5 -164
t-22 -160.5v-44z" />
    <glyph glyph-name="P" unicode="P" horiz-adv-x="1048" 
d="M571 580q25 0 48.5 -9.5t42 -27.5t29.5 -43.5t11 -57.5q0 -43 -17 -80.5t-48 -66t-75 -45t-98 -16.5q-48 0 -89 18.5t-71.5 51t-48 77.5t-17.5 98q0 89 36.5 163t103.5 127t160.5 82.5t206.5 29.5q128 0 222 -40.5t151 -106.5q17 4 32.5 6.5t32.5 2.5q25 0 48 -5
t41 -13.5t29 -19.5t11 -22q0 -9 -5.5 -15.5t-20.5 -6.5q-8 0 -15 5t-12 10q-5 6 -10 14t-13 14q-9 8 -23.5 12.5t-28.5 4.5t-26.5 -1t-23.5 -5q26 -35 40.5 -78t14.5 -85q0 -75 -25 -127t-63.5 -84t-86 -46.5t-92.5 -14.5q-42 0 -78.5 17.5t-59.5 47.5l15 14
q18 -28 51 -40.5t68 -12.5q31 0 68 12t69 39.5t53.5 73t21.5 112.5q0 39 -11.5 78.5t-35.5 75.5q-29 -13 -55 -33.5t-50 -44t-45 -48.5t-40 -47q-42 -47 -80.5 -109t-78.5 -127t-84.5 -127t-98.5 -110q-34 -29 -74.5 -54t-82.5 -40q81 -36 149 -50t131 -14q51 0 97 11.5
t91 36.5l8 -10q-45 -32 -100.5 -54t-124.5 -22q-67 0 -132.5 26.5t-143.5 66.5q-12 -2 -32 -4.5t-31 -2.5q-29 0 -49.5 10t-19.5 25q2 11 15.5 14.5t27.5 3.5q20 0 43.5 -6.5t40.5 -12.5q27 12 48.5 24.5t41 28t38 34.5t39.5 43q48 54 89.5 117.5t83 129t87 128.5t101.5 116
q38 37 82 69t92 52q-24 30 -57.5 56.5t-75 46.5t-89.5 31.5t-100 11.5q-113 0 -203 -29t-152.5 -79t-96 -118t-33.5 -146q0 -54 15.5 -98t44 -75.5t67 -48.5t85.5 -17q49 0 88 15t66.5 41t42 60t14.5 73q0 33 -11 56t-28 37.5t-36.5 21t-35.5 6.5q-18 0 -37 -6.5t-34.5 -20
t-25 -33t-9.5 -44.5q0 -11 6 -19.5t15 -15.5q11 -8 17.5 -15.5t6.5 -15.5q0 -19 -17 -19t-33 21.5t-16 61.5q0 29 11.5 52t29.5 39t40.5 24.5t45.5 8.5z" />
    <glyph glyph-name="Q" unicode="Q" horiz-adv-x="1444" 
d="M776 -116q124 28 238 81t201.5 127t139.5 168.5t52 206.5q0 88 -26.5 165t-78.5 134.5t-129 91t-177 33.5q-90 0 -169 -30t-137.5 -82.5t-92.5 -122.5t-34 -151q0 -79 25.5 -141.5t66.5 -106.5t92 -67.5t103 -23.5q69 0 125 20.5t95.5 55.5t61 82.5t21.5 101.5
q0 38 -12.5 72.5t-35.5 61t-56.5 42t-75.5 15.5q-9 0 -24 -2.5t-28 -8.5t-21.5 -14.5t-8.5 -20.5q0 -47 -24 -47q-22 0 -22 28q0 18 10.5 33t28.5 26.5t41 17.5t49 6q41 0 77 -15t62.5 -42t42 -65.5t15.5 -85.5q0 -60 -24.5 -111t-67 -88.5t-101 -58.5t-127.5 -21
q-56 0 -116 19.5t-110.5 62t-83 109.5t-32.5 162q0 90 38 165t103.5 129t154.5 84.5t191 30.5q113 0 201 -31.5t148.5 -89t92 -139t31.5 -180.5q0 -116 -52 -214.5t-143 -176t-214.5 -132t-265.5 -82.5q36 -39 70.5 -78t69.5 -74q88 -87 161 -159.5t140.5 -130.5t135 -101.5
t144 -72.5t167.5 -43.5t206 -14.5q19 0 39.5 9.5t32.5 23.5q11 11 21 20.5t23 9.5q10 0 16 -4.5t6 -16.5q0 -22 -35.5 -41t-104.5 -19q-130 0 -237.5 19.5t-198.5 54t-167.5 82t-143.5 103t-127.5 117.5t-118.5 125q-37 40 -75.5 85.5t-80.5 93.5q-48 -8 -96 -12t-96 -4
q-89 0 -177.5 12t-159.5 41t-115 77.5t-44 120.5q0 28 11.5 53.5t34 45t54 31t72.5 11.5q81 0 156 -30t144 -78.5t132.5 -110.5t122.5 -126zM721 -128q-54 60 -113 120.5t-122 109t-130.5 78.5t-137.5 30q-35 0 -62.5 -10.5t-47 -27t-29.5 -38.5t-10 -44q0 -66 41.5 -111
t109 -72.5t152.5 -39t171 -11.5q42 0 88.5 3.5t89.5 12.5z" />
    <glyph glyph-name="R" unicode="R" horiz-adv-x="1449" 
d="M1666 819q72 0 127.5 -21.5t92.5 -59.5q60 38 133 60.5t151 22.5q136 0 245 -40.5t185.5 -112.5t118 -172t41.5 -219q0 -92 -24.5 -177t-69 -158t-106.5 -132.5t-136.5 -102t-160.5 -65.5t-177 -23q-147 0 -271 37.5t-228 117t-190.5 203t-159.5 296.5q-8 -3 -19 -4
t-19 -1q-28 0 -47 13.5t-19 33.5q0 15 14.5 27t37.5 12q26 0 47.5 -16t36.5 -38q32 12 59 34.5t46.5 52.5t30.5 65.5t11 73.5q0 49 -13.5 94t-46.5 83q-66 -49 -123.5 -127.5t-121.5 -175.5q-59 -90 -119 -172t-134 -144.5t-170 -99.5t-226 -37q-63 0 -123 21t-107 62
t-76 102t-29 141q0 61 21.5 112.5t59 89.5t88 60.5t107.5 25.5q48 57 118 90.5t145 33.5q35 0 59 -7q60 85 156.5 128.5t217.5 43.5q88 0 161 -26.5t124 -74.5q58 32 126 51t156 19zM1687 669q60 0 93 -35q20 30 43 53t50 43q-29 32 -81 53.5t-127 21.5q-73 0 -139 -19
t-126 -55q73 -83 73 -205q0 -40 -15.5 -77.5t-42 -70t-62 -57t-75.5 -37.5q38 -67 80.5 -141t93 -146t112 -137t138.5 -114.5t171 -78.5t210 -29q90 0 174 22.5t157 63.5t133.5 99.5t103.5 130.5t67 155.5t24 175.5q-1 110 -39.5 205.5t-112 165.5t-180 110t-243.5 40
q-78 0 -147 -21.5t-124 -56.5q23 -28 34.5 -63.5t11.5 -70.5q0 -48 -15.5 -89.5t-45.5 -72t-73 -48.5t-98 -18q-41 0 -72.5 13t-54 35.5t-34 51.5t-11.5 61q0 31 13 57t34 45t48 29.5t54 10.5zM1339 720q-48 54 -114.5 83t-138.5 29q-112 0 -201.5 -42.5t-143.5 -117.5
q34 -12 59.5 -32.5t42.5 -45.5t25.5 -53t8.5 -55q0 -45 -16 -84t-43.5 -67.5t-64 -45t-78.5 -16.5q-27 0 -42 7q-16 -43 -51 -74t-87 -31q-36 0 -66 15.5t-51.5 42.5t-34 63t-12.5 77q0 43 15 86t45 83q-51 -5 -95.5 -26t-77.5 -56t-52.5 -83.5t-19.5 -108.5
q0 -66 24.5 -121t67.5 -94.5t101.5 -61t126.5 -21.5q76 0 139.5 18t117 49t98.5 73t85 90t76 100l72 104q31 45 62.5 88.5t66 84t73 77t83.5 66.5zM1771 621q-8 12 -28 23.5t-55 11.5q-27 0 -51.5 -10t-43 -27t-29 -40.5t-10.5 -51.5t10 -54t29.5 -46.5t48.5 -33t68 -12.5
q46 0 85.5 14t68.5 41t45 65.5t16 88.5q0 14 -2.5 31t-7.5 34.5t-13 34t-19 29.5q-53 -38 -94 -99q10 -15 14 -30t4 -26q0 -16 -8 -26.5t-22 -10.5q-12 0 -20 8.5t-8 23.5q0 25 22 62zM412 544q-32 -39 -48 -82t-16 -88t13 -79.5t34 -58t47 -35t53 -11.5q45 0 75 25.5
t47 70.5q-48 17 -68.5 50.5t-20.5 73.5q0 22 8.5 47.5t23.5 40.5q-29 24 -66.5 35t-73.5 11h-8zM858 479q0 28 -7 55t-22 50.5t-38.5 42.5t-57.5 31q-20 -30 -31.5 -60t-18.5 -61q19 -8 31.5 -22t12.5 -28q0 -28 -24 -28q-16 0 -26.5 16t-10.5 51q-10 2 -18 2q-35 0 -64 -26
q32 -33 48 -68.5t16 -84.5q0 -8 -2 -26t-7 -29q16 -6 37 -6q41 0 74.5 16.5t57.5 43t37 61t13 70.5zM670 669q-66 0 -130.5 -25.5t-112.5 -82.5q45 0 82.5 -14t63.5 -35q17 15 37.5 23t38.5 8h9.5t9.5 -1q7 31 19.5 62.5t29.5 58.5q-12 4 -23.5 5t-23.5 1zM630 352
q0 37 -15 73t-44 62q-14 -14 -20 -34.5t-6 -42.5q0 -45 21 -70t56 -41q5 11 6.5 28t1.5 25zM1230 290q-8 20 -20 34.5t-27 14.5q-14 0 -22.5 -6.5t-8.5 -15.5q0 -14 12.5 -23t32.5 -9q8 0 16 1t17 4zM680 523q0 -21 6 -35.5t17 -14.5q10 0 10 13q0 8 -9.5 20t-23.5 17z
M1780 606q-9 -17 -12.5 -28t-3.5 -19q0 -18 13 -18q8 0 11 7t3 16q0 21 -11 42z" />
    <glyph glyph-name="S" unicode="S" horiz-adv-x="1087" 
d="M418 -8q-29 0 -52 9t-38.5 22t-23.5 28.5t-8 29.5q0 7 3.5 14.5t14.5 7.5q10 0 14.5 -8t7 -19t5 -22.5t8.5 -17.5q14 -14 31.5 -20t38.5 -6q38 0 72.5 12t66.5 52q-8 -3 -19.5 -4.5t-17.5 -1.5q-27 0 -52 8.5t-44 25t-30.5 40.5t-11.5 56q0 27 10 49.5t26.5 38.5t38.5 25
t46 9q54 0 86.5 -31t32.5 -91q0 -21 -7.5 -48.5t-18.5 -46.5q31 11 55.5 31.5t41.5 46t26.5 54.5t9.5 56q0 47 -16.5 89.5t-48.5 74.5t-79 51t-107 19q-65 0 -124.5 -24t-104.5 -69.5t-72 -110.5t-27 -147q0 -69 24.5 -128t70 -102t110.5 -67t145 -24q89 0 166 35
t133.5 93.5t89 133.5t32.5 156q0 42 -6.5 81t-14.5 75.5t-14.5 71.5t-6.5 70q0 61 19 115.5t56.5 96t94 65.5t130.5 24q49 0 89 -16t68 -43t43 -62t15 -74q0 -44 -14 -76t-36.5 -53t-51 -31.5t-57.5 -10.5q-21 0 -42 6t-37.5 19t-27 33t-10.5 47q0 43 29.5 70.5t77.5 27.5
q33 0 50 -13.5t17 -28.5q0 -16 -17 -16q-8 0 -14.5 6t-11.5 14t-13.5 14t-19.5 6q-33 0 -56.5 -21t-23.5 -58q0 -38 27 -64t73 -26q31 0 56 11.5t43 32t28 48.5t10 61q0 38 -14.5 70t-39.5 55.5t-59 36.5t-73 13q-60 0 -106.5 -20.5t-79 -56t-49 -83t-16.5 -102.5
q0 -40 7 -73t15 -67.5t15 -73t7 -89.5q0 -104 -42 -189t-109.5 -146t-152.5 -94.5t-172 -33.5t-157 26t-119.5 73t-76 111.5t-26.5 142.5q0 94 32 163.5t83 115.5t114 68.5t125 22.5q64 0 114.5 -20t85 -54t52.5 -80t18 -97q0 -39 -14 -73.5t-36.5 -61.5t-52.5 -46.5
t-61 -28.5q-28 -42 -69.5 -66t-98.5 -24zM572 95q14 22 22.5 49.5t8.5 53.5q0 43 -24.5 73.5t-72.5 30.5q-43 0 -72 -28t-29 -76q0 -52 34.5 -81.5t88.5 -29.5q20 0 44 8z" />
    <glyph glyph-name="T" unicode="T" horiz-adv-x="1092" 
d="M1481 820q-42 -9 -81 -39.5t-77 -75.5q55 -47 106.5 -100.5t107.5 -98.5t119 -75t141 -30q74 0 137.5 21t110 60.5t73 95.5t26.5 126q0 42 -16 83.5t-47 74.5t-77 53.5t-107 20.5q-54 0 -98 -16t-75.5 -44t-49 -66.5t-17.5 -82.5q0 -38 12.5 -70.5t35.5 -55.5t55 -36
t70 -13t67.5 12.5t48.5 39.5q8 11 8.5 25.5t0.5 28.5q0 12 5 19.5t13 7.5q18 0 18 -27q0 -26 -14 -48.5t-37 -39t-52 -26.5t-58 -10q-39 0 -74 13.5t-61.5 38.5t-42 60.5t-15.5 80.5q0 49 20.5 90.5t55.5 72t82.5 48t101.5 17.5q70 0 120.5 -23.5t83.5 -59.5t48.5 -80.5
t15.5 -86.5q0 -67 -25 -125.5t-72 -102.5t-115.5 -69.5t-156.5 -25.5q-93 0 -165 26.5t-131.5 67t-111.5 89t-104 92.5q-52 -69 -105 -155t-113 -174q-57 -85 -121.5 -165t-139.5 -142.5t-162.5 -100.5t-191.5 -38q-63 0 -124 22.5t-109 65t-78 105t-30 142.5
q0 63 21.5 114.5t59 89t88 59t107.5 24.5q29 35 66.5 60.5t79.5 41.5q-9 33 -9 66q-1 55 18.5 106t59.5 89.5t99.5 61.5t139.5 23q68 0 129.5 -20t118 -52t109 -72.5t102.5 -82.5q27 25 54 46.5t55.5 37t60.5 24.5t69 9q14 0 24 -4.5t10 -15.5q0 -9 -8 -13t-18 -4
q-14 0 -29 7q-8 3 -16.5 5.5t-19.5 2.5zM548 612q26 9 52 12.5t49 3.5q54 0 94.5 -17t67 -44t39.5 -61.5t13 -68.5q0 -47 -19 -86.5t-50.5 -68t-72 -44.5t-82.5 -16q-6 0 -12 0.5t-12 1.5q-8 -19 -21.5 -38t-30.5 -34t-38.5 -24t-45.5 -9q-41 0 -72 15.5t-51.5 42t-31 62.5
t-10.5 77q0 43 15 90t40 81q-53 -6 -97 -27.5t-76 -57t-50 -84t-18 -107.5q0 -66 24.5 -121t68 -95.5t102.5 -63t128 -22.5q98 0 179.5 42t151 110t130.5 153.5t118 171.5q54 82 111.5 157t114.5 138q-48 42 -96.5 86.5t-99.5 80.5t-106 59.5t-116 23.5q-80 0 -136.5 -22
t-93 -58t-53.5 -82.5t-17 -95.5q0 -15 2.5 -31t7.5 -30zM552 598q15 -38 34.5 -65.5t44.5 -50.5q27 -5 41.5 -19t14.5 -28q0 -11 -13 -11q-16 0 -44 34q-6 5 -14.5 6t-15.5 1q-23 0 -40 -13q32 -30 50 -69t18 -93q0 -11 -3 -27t-6 -27q4 -1 10 -1.5t9 -0.5q45 0 83 17
t65.5 44.5t43 63t15.5 71.5q0 40 -13.5 74t-39 58.5t-62.5 38t-83 13.5q-21 0 -48 -3.5t-47 -12.5zM395 492q-63 -77 -63 -175q0 -48 12.5 -83t33 -57.5t47 -33t55.5 -10.5q42 0 74 28t46 65q-27 4 -49.5 15.5t-38 28t-24 37t-8.5 42.5q0 29 13.5 57t36.5 46
q-26 20 -61.5 30t-67.5 10h-6zM604 238q3 12 5 26.5t2 25.5q0 43 -15 84t-52 68q-24 -17 -35.5 -42t-11.5 -49q0 -38 26 -71t81 -42zM610 483q-23 21 -41 50.5t-32 58.5q-38 -14 -71 -36t-59 -50q37 -1 76 -13t63 -30q13 8 30 14t34 6z" />
    <glyph glyph-name="U" unicode="U" horiz-adv-x="1349" 
d="M1286 543q-51 43 -80.5 106.5t-29.5 148.5q0 25 5.5 49.5t17.5 44t30 31.5t42 12q30 0 50.5 -15t33 -38.5t18 -51.5t5.5 -55q0 -52 -11 -116.5t-33 -127.5q54 -46 142 -73.5t187 -27.5q73 0 143.5 15.5t126 50.5t89.5 90t34 135q0 44 -14.5 79.5t-39.5 60.5t-57.5 38.5
t-68.5 13.5q-16 0 -33.5 -5t-31.5 -16q-8 -7 -13.5 -17t-10 -19.5t-10 -16.5t-13.5 -7q-16 0 -16 19q0 18 10.5 32.5t28.5 25t41 16t49 5.5q41 0 77 -15t62.5 -42t42 -65.5t15.5 -85.5q0 -84 -35.5 -142.5t-93 -95t-131.5 -53.5t-150 -17q-103 0 -188.5 25.5t-148.5 71.5
q-23 -54 -51 -103.5t-60 -101.5q-19 -31 -38 -65t-34 -69t-24.5 -70.5t-9.5 -68.5q0 -38 18.5 -54t44.5 -16q28 0 56 9.5t53.5 23.5t47.5 31.5t39 33.5l10 -12q-15 -15 -39.5 -34t-54.5 -36t-62.5 -28.5t-62.5 -11.5q-20 0 -40 5.5t-35.5 17.5t-25 31t-9.5 46q0 26 5 56
t14 60q-42 -48 -81.5 -89t-78.5 -71t-78.5 -46.5t-81.5 -16.5q-35 0 -60.5 10.5t-42.5 28.5t-25.5 41.5t-8.5 50.5q0 56 35 109l178 273q33 53 50 111t15.5 114.5t-22.5 108t-64.5 90.5t-110.5 62t-160 23q-106 0 -192.5 -30.5t-148 -83.5t-95 -124t-33.5 -152
q0 -88 31 -151.5t78.5 -105t104.5 -61t109 -19.5q67 0 123 20.5t96 56t62.5 83.5t22.5 102q0 38 -13 72.5t-36.5 61t-57 42t-74.5 15.5q-16 0 -35.5 -4t-32.5 -12q-14 -8 -17 -20.5t-3 -16.5q-1 -9 -5 -17t-15 -8q-8 0 -13 6t-5 14q0 18 10.5 32t28 24t40.5 15t48 5
q41 0 77.5 -15t63.5 -42.5t42.5 -66t15.5 -84.5q0 -60 -24.5 -111t-68 -88.5t-102 -58.5t-127.5 -21q-55 0 -115 20t-110.5 63t-83.5 110t-33 160q0 90 38 165t103.5 129t154.5 84.5t191 30.5q98 0 173.5 -24t127.5 -65t81.5 -94.5t36.5 -113.5t-8 -122t-52 -119l-174 -263
q-46 -70 -46 -128q0 -42 24.5 -64.5t62.5 -22.5q46 0 95 28t100 77t102 115.5t101 143.5q34 52 66.5 104t62.5 118zM1270 917q-32 0 -52.5 -33t-20.5 -87q0 -81 26 -136.5t71 -97.5q20 52 30.5 109.5t10.5 108.5q0 22 -4 46.5t-12 44t-20.5 32.5t-28.5 13z" />
    <glyph glyph-name="V" unicode="V" horiz-adv-x="1281" 
d="M320 429q0 -14 6.5 -24.5t15 -19.5t15 -17t6.5 -16q0 -20 -20 -20q-10 0 -18.5 6.5t-15 17.5t-10 24t-3.5 27q0 36 14.5 66.5t39.5 53t59 35.5t73 13q42 0 76.5 -16.5t58.5 -44.5t37 -65t13 -77q0 -50 -18 -100t-55.5 -90t-96 -65t-138.5 -25q-60 0 -112.5 23t-92 63
t-62 93.5t-22.5 115.5q0 121 58 215t188.5 158.5t341.5 98t517 33.5q18 -5 18 -20q0 -6 -4.5 -12t-13.5 -10q-38 1 -69.5 2t-66.5 3q-78 -58 -130 -149t-77 -212q-42 -201 -117 -325t-171 -190q133 35 253 78.5t222.5 93.5t185 104.5t141.5 111.5q-42 10 -79.5 30.5
t-65.5 50.5t-44 70t-16 89q0 35 11 68.5t31.5 60t50 44t65.5 20.5q34 66 96 98.5t146 32.5q54 0 100 -18t79.5 -50t52 -76.5t18.5 -97.5q0 -75 -26.5 -136t-76 -104.5t-119.5 -67.5t-158 -24q-22 0 -44 3q-70 -71 -177 -139t-249 -130.5t-317 -119.5t-380 -106
q-17 0 -25.5 7t-8.5 16q0 13 13 20q40 19 103 32t135 23q36 18 69.5 44.5t64 66.5t57.5 95.5t49 131.5q25 86 52 165.5t61.5 150t80.5 131t110 108.5q-110 -5 -220.5 -14t-212.5 -28t-189.5 -50.5t-152.5 -82t-102 -122.5t-37 -171q0 -60 22 -111t59.5 -88.5t86.5 -58.5
t104 -21q58 0 110 18t91 52t61.5 82.5t22.5 109.5q0 38 -12.5 72t-34.5 59.5t-52.5 40.5t-66.5 15q-32 0 -61 -10t-51.5 -27.5t-36 -41t-13.5 -50.5zM1319 800q39 -1 71 -16t55 -40t36 -58t13 -70q0 -57 -29 -120t-86 -120q5 -1 11.5 -1.5t13.5 -0.5q93 0 162 24t115 66.5
t69 100t23 124.5q0 45 -16 85.5t-46 72t-73.5 50t-98.5 18.5q-72 0 -130 -27.5t-90 -87.5zM1354 544q-16 0 -29.5 14.5t-23 36.5t-15 48.5t-5.5 50.5t2.5 45.5t9.5 41.5q-63 -11 -98 -57.5t-35 -115.5q0 -50 17 -88.5t45 -67t64 -46t74 -25.5q60 60 87 117.5t27 117.5
q0 36 -13 66.5t-35 53t-51 35t-62 12.5q-8 -22 -11.5 -41.5t-1.5 -43.5q1 -16 3 -34t10 -34q6 -11 16 -20t20 -16t17 -14.5t7 -15.5q0 -20 -19 -20z" />
    <glyph glyph-name="W" unicode="W" horiz-adv-x="1492" 
d="M1506 793q33 63 92.5 102t143.5 39q56 0 104 -19t83 -52.5t55 -79.5t20 -99q0 -84 -31.5 -148t-82.5 -107.5t-115 -65.5t-129 -22q-11 0 -25 1t-26 3q-56 -68 -145 -134.5t-197.5 -128t-231 -117t-245.5 -102.5q-41 -23 -73.5 -35t-76.5 -12q-14 0 -23.5 7.5t-9.5 18.5
q0 25 48.5 37t127.5 12q24 21 51.5 57t53 76t46.5 78t32 63q-59 -41 -119 -76.5t-118.5 -65.5t-114 -54t-103.5 -40q-20 -12 -43 -20.5t-46.5 -14.5t-45.5 -8.5t-39 -2.5q-14 0 -24 7.5t-10 18.5q0 12 16 22.5t43.5 18t63.5 11.5t76 4q26 10 56 28.5t58 41.5t52.5 49
t40.5 52q33 54 52 109t31 110t20.5 108.5t20.5 103.5q10 43 27.5 86.5t43.5 81.5t61.5 69.5t82.5 51.5q-179 -1 -316.5 -21t-239.5 -53.5t-171 -78.5t-111.5 -97t-60.5 -108t-18 -111q0 -62 21 -113t57.5 -87t86.5 -56t109 -20q62 0 116 19.5t93.5 55.5t62 87.5t22.5 115.5
q0 39 -12 73.5t-35.5 61t-57.5 41.5t-78 15q-31 0 -58 -10t-48 -26.5t-35 -38.5t-18 -46q0 -10 4.5 -18t9.5 -15.5t9.5 -15t4.5 -16.5q0 -18 -17 -18q-14 0 -24.5 15.5t-10.5 44.5q0 31 14 60.5t38.5 52.5t58 37.5t72.5 14.5q47 0 85 -15.5t65 -43.5t41.5 -65.5t14.5 -81.5
q0 -61 -21 -116t-61 -96.5t-98 -66t-132 -24.5q-69 0 -124.5 22.5t-94.5 61.5t-60 92.5t-21 115.5q0 66 23 129.5t75 120t136 104t205.5 82t284 53.5t372.5 19q18 -5 18 -20q0 -6 -4.5 -12t-13.5 -10q-30 0 -58.5 3.5t-56.5 2.5q-52 -26 -87.5 -61t-59.5 -74
q-21 -34 -33 -71t-19.5 -77t-13 -82t-13.5 -85q-10 -51 -31 -108.5t-55.5 -114.5t-82.5 -110.5t-112 -96.5q42 18 91.5 42.5t101 53t103 60.5t96.5 65q20 60 31.5 118.5t21.5 112.5q10 58 25.5 108.5t38.5 87.5t55 58.5t76 21.5q24 0 41.5 -9t29 -24t17 -34t5.5 -38
q0 -53 -22 -102.5t-60.5 -98t-91.5 -96.5t-115 -97q-12 -27 -32.5 -65.5t-48 -81.5t-60.5 -86t-70 -78q120 47 234.5 101t214 112t180 119.5t133.5 123.5q-42 10 -81 31.5t-69 53.5t-48 75t-18 96q0 35 11 67.5t31 58t49.5 42t65.5 19.5zM1637 359q67 0 129.5 21.5
t110.5 62.5t77 101t29 138q0 45 -16 87t-47 74.5t-76 52.5t-103 20q-66 0 -122.5 -30t-91.5 -93q37 -5 67.5 -21.5t51.5 -41.5t32.5 -57t11.5 -69q0 -66 -23.5 -129t-60.5 -114zM1497 775q-24 -2 -47 -14.5t-41 -34t-29 -52t-11 -67.5q0 -50 17 -91t46.5 -71.5t68 -50
t81.5 -26.5q38 48 60.5 108.5t22.5 127.5q0 39 -11.5 69.5t-31 51.5t-46.5 33.5t-58 15.5q-20 -42 -20 -93q0 -10 1.5 -23.5t5.5 -25.5q3 -9 11 -16.5t17 -15t15.5 -15.5t6.5 -17q0 -16 -15 -16t-27 9.5t-20 26t-12.5 38.5t-4.5 46t5 51.5t16 51.5zM1279 600q0 15 -3 30.5
t-10.5 28t-20.5 20.5t-32 8q-33 0 -55 -20t-37 -55t-25.5 -81.5t-20.5 -99.5q-8 -43 -19 -89t-28 -97q121 96 186 181t65 174z" />
    <glyph glyph-name="X" unicode="X" horiz-adv-x="1405" 
d="M1972 -108q19 0 19 -27q0 -18 -16 -40.5t-43.5 -42.5t-64 -34t-77.5 -14q-48 0 -90 16.5t-73.5 47t-49.5 74t-18 97.5q0 52 22 99t61 82t93 55.5t118 20.5q68 0 127.5 -23.5t103.5 -67t69 -105.5t25 -138q0 -83 -33.5 -155.5t-93 -125.5t-140 -83.5t-174.5 -30.5
q-110 0 -200 36t-159 101.5t-118 157.5t-77 204l-79 315q-80 -104 -157.5 -199t-158 -167.5t-167 -116t-184.5 -43.5q-78 0 -135 21.5t-94.5 56.5t-56 79.5t-18.5 91.5q0 57 23 106.5t62.5 86t92.5 57t112 20.5q42 0 75.5 -11.5t56.5 -32t35 -47.5t12 -57q0 -35 -15 -64.5
t-41 -50.5t-60 -33t-73 -12q-26 0 -46 10.5t-20 23.5q0 12 8 15.5t18 3.5q8 0 17 -5.5t16 -10.5q8 -6 16.5 -10t18.5 -4q31 0 57 12t45 31t29 43.5t10 50.5q0 25 -10.5 48.5t-30.5 42t-50 30t-70 11.5q-63 0 -113 -22t-85 -57.5t-53.5 -81t-18.5 -91.5q0 -51 20 -94
t57.5 -73.5t89.5 -48t117 -17.5q87 0 161.5 35t150 103.5t159 170t189.5 235.5l-33 140q-21 87 -51 167.5t-76 142t-111.5 98t-158.5 36.5q-75 0 -133.5 -24t-99 -64.5t-61.5 -94.5t-21 -114q0 -45 15.5 -87t45.5 -74.5t74 -52.5t101 -20q53 0 95 16.5t71.5 44t45 64.5
t15.5 78q0 42 -13 75.5t-35 56.5t-51.5 35.5t-62.5 12.5q-36 0 -66 -10.5t-51 -29t-32.5 -43.5t-11.5 -55q0 -46 25 -74t67 -28q19 0 35 8q18 9 26 28q5 9 9.5 15t11.5 6q15 0 15 -15q0 -20 -26.5 -39t-70.5 -19q-51 0 -80 32t-29 86q0 33 13.5 60.5t37.5 48t56.5 32
t71.5 11.5q31 0 63 -11.5t58 -35.5t42 -60t16 -85q0 -48 -18.5 -88.5t-51 -70t-77.5 -46t-99 -16.5q-60 0 -107 21t-79.5 56t-49.5 79.5t-17 91.5q0 64 23.5 122t67 101.5t105.5 69t139 25.5q103 0 177.5 -33.5t128 -94.5t90 -147.5t62.5 -191.5l18 -74l39 50
q86 109 160.5 193t147 140.5t146.5 85.5t159 29q31 0 63.5 -7.5t58.5 -20.5t42.5 -30.5t16.5 -36.5q0 -23 -20 -23q-14 0 -22 9.5t-13 21.5t-12 24t-17 18q-24 16 -49.5 22t-58.5 6q-58 0 -120.5 -24.5t-131.5 -76.5t-146 -133.5t-164 -194.5l-71 -93l89 -359
q25 -105 69 -194.5t106.5 -155t143 -102.5t178.5 -37q90 0 167 28t133.5 77.5t88.5 117.5t32 148q0 68 -22.5 126t-63 101t-96.5 67t-123 24q-58 0 -108 -17.5t-87 -49t-58 -75.5t-21 -96q0 -48 15 -88.5t42.5 -69t66.5 -44.5t86 -16q45 0 80 16t61 44q9 10 12 21.5t5 24.5
q2 14 8 23.5t17 9.5z" />
    <glyph glyph-name="Y" unicode="Y" horiz-adv-x="1572" 
d="M625 666q1 -11 -2.5 -23.5t-10.5 -23.5t-16 -18.5t-18 -7.5q-23 0 -23 27q0 18 11 32.5t29.5 24.5t42 15.5t48.5 5.5q41 0 77 -15t62.5 -42t42 -65.5t15.5 -85.5q0 -60 -24.5 -111t-67 -88.5t-101 -58.5t-127.5 -21q-56 0 -116 19.5t-110.5 62t-83 109.5t-32.5 162
q0 90 38 165t103.5 129t154.5 84.5t191 30.5q98 0 173.5 -24t127.5 -65t81.5 -94.5t36.5 -113.5t-8 -122t-52 -119l-168 -263q-23 -35 -38 -71t-15 -64q0 -35 22.5 -60t60.5 -25q52 0 110.5 43.5t116.5 116t112.5 165.5t98.5 192.5t74 197t39 178.5q12 14 26 19.5t26 5.5
q32 0 45 -25t13 -60q0 -100 -15.5 -220.5t-50 -250t-89.5 -262t-133 -256t-181 -231t-233.5 -187.5t-291 -126t-353.5 -46q-126 0 -229 32.5t-176.5 89t-113.5 133t-40 164.5q0 78 27 138t72 100.5t104 61.5t124 21q61 0 110.5 -23.5t83.5 -62t52.5 -86.5t18.5 -96
q0 -46 -17 -75.5t-48 -29.5q-14 0 -21.5 10t-7.5 24q0 27 20 49.5t46 39.5q0 38 -16 79t-46.5 75t-75 56t-100.5 22q-61 0 -115.5 -19.5t-96 -58t-65.5 -95t-24 -130.5q0 -83 37.5 -155.5t107.5 -125.5t169 -83.5t222 -30.5q178 0 328 44.5t273 122.5t221.5 182.5t174 224.5
t129 249t87.5 256t49.5 245.5t14.5 216.5q0 21 -8 26t-16 5q-10 -70 -40 -162t-74.5 -189t-100 -191t-116 -167.5t-123.5 -118.5t-122 -45q-35 0 -60.5 10t-42.5 27t-25 40t-8 50t12.5 58.5t29.5 57.5l172 273q33 53 50 111t15.5 115t-22.5 108.5t-64.5 91t-110.5 62.5
t-160 23q-97 0 -182 -29t-148.5 -81t-100 -124t-36.5 -158q0 -85 28.5 -148t74 -105t103 -63t115.5 -21q71 0 127.5 21.5t95.5 57.5t60 83.5t21 99.5q0 41 -13 76.5t-37 61.5t-57.5 41t-73.5 15q-31 0 -60 -17z" />
    <glyph glyph-name="Z" unicode="Z" horiz-adv-x="1218" 
d="M1268 -242q10 0 14.5 -6t4.5 -14q0 -21 -15 -39t-39.5 -31.5t-54.5 -21t-60 -7.5q-46 0 -93 18.5t-84.5 54t-61.5 87.5t-24 120t23.5 134.5t72.5 119t124 85t179 32.5q85 0 156 -33.5t122 -89t79 -127.5t28 -149q0 -100 -25 -177.5t-67 -135t-98 -97t-117 -64t-124.5 -35
t-121.5 -10.5q-135 0 -232 36t-167 92.5t-120 124t-92 131t-82 114t-90 71.5q-7 -2 -19.5 -4t-26 -4t-27 -3t-22.5 -1q-10 0 -22 2t-22 7.5t-17 14t-7 20.5q0 13 14.5 21.5t40.5 8.5q62 0 113 -24q69 24 143 71t151.5 107t157.5 128.5t161 134t162.5 124t161.5 99.5
q-81 35 -161.5 81.5t-157.5 88.5t-148 71t-132 29q-69 0 -129.5 -18.5t-106 -56.5t-71.5 -95.5t-26 -134.5q0 -56 19.5 -105.5t56 -87t89 -59.5t117.5 -22q50 0 93.5 16.5t75.5 44.5t50.5 66t18.5 81q0 34 -12 63t-33 49.5t-50 32t-63 11.5q-20 0 -43.5 -7.5t-37.5 -21.5
q-8 -8 -11 -21.5t-5 -26.5q-2 -15 -8.5 -21t-14.5 -6q-9 0 -14.5 6t-5.5 15q0 24 13 42.5t33.5 31.5t45.5 20t49 7q39 0 71 -13.5t55.5 -37t36.5 -55t13 -67.5q0 -48 -21 -89.5t-56.5 -72t-82.5 -47.5t-99 -17q-70 0 -125.5 24.5t-94.5 65t-59.5 93t-20.5 108.5
q0 76 25.5 136.5t72.5 102.5t113.5 64t148.5 22q75 0 157 -28.5t166.5 -69.5t167.5 -86t160 -79q48 20 94.5 31.5t94.5 11.5q63 0 94.5 -20.5t31.5 -47.5q0 -12 -8.5 -23.5t-23.5 -21t-36.5 -15.5t-46.5 -6q-52 0 -104 12t-106 32q-73 -38 -148 -95.5t-151.5 -123.5
t-156 -134.5t-162.5 -129.5t-169.5 -109t-177.5 -72q55 -34 103 -89.5t97 -118t102 -126.5t119 -115t148 -83.5t188 -32.5q54 0 114 9.5t118.5 32t112 59.5t94.5 92t66 130t26 174q1 84 -29.5 154.5t-81.5 121.5t-117 79.5t-135 28.5q-90 0 -161 -27.5t-119.5 -75.5
t-74 -113t-25.5 -140q0 -58 20 -106t53.5 -82.5t78 -53.5t93.5 -19q35 0 67.5 12.5t44.5 44.5q6 17 14 30t23 13zM1507 684q-76 0 -157 -34q46 -21 86 -35.5t79 -14.5q43 0 61.5 16t18.5 29q0 17 -21 28t-67 11z" />
    <glyph glyph-name="bracketleft" unicode="[" horiz-adv-x="343" 
d="M483 758h159l-4 -20h-101l-534 -946h95l-4 -20h-166z" />
    <glyph glyph-name="backslash" unicode="\" horiz-adv-x="354" 
d="M276 -52l-22 -1l-81 864l21 4z" />
    <glyph glyph-name="bracketright" unicode="]" horiz-adv-x="343" 
d="M45 -228h-159l4 20h101l534 946h-95l3 20h167z" />
    <glyph glyph-name="asciicircum" unicode="^" horiz-adv-x="563" 
d="M544 320h-36l-154 324l-155 -324h-35l176 368h28z" />
    <glyph glyph-name="underscore" unicode="_" horiz-adv-x="388" 
d="M1 -37h353l-5 -26h-353z" />
    <glyph glyph-name="grave" unicode="`" horiz-adv-x="216" 
d="M371 428q8 -5 8 -12q0 -5 -3.5 -7.5t-7.5 -2.5q-1 0 -9 2q-63 23 -116.5 54t-107.5 65q-12 8 -19 16.5t-7 21.5q0 11 7.5 19t21.5 8q6 0 14 -2t11 -6q29 -36 54.5 -60.5t50 -41.5t49.5 -29.5t54 -24.5z" />
    <glyph glyph-name="a" unicode="a" 
d="M365 352q20 0 32.5 -5.5t12.5 -19.5l-127 -187q-5 -8 -13 -20.5t-16 -26.5t-13.5 -28.5t-5.5 -26.5q0 -13 7 -21t24 -8q32 0 69.5 18.5t75.5 50.5l10 -13q-21 -16 -44.5 -32t-47.5 -28.5t-49 -20t-50 -7.5q-26 0 -37.5 15.5t-11.5 36.5q0 18 11 48q-14 -15 -29.5 -29
t-31 -24.5t-30.5 -17t-28 -6.5q-55 0 -55 56q0 49 30.5 98t76.5 88.5t100 64.5t102 25q12 0 23 -3zM340 313q-8 3 -18 3q-35 0 -78 -24t-80 -61t-62 -80t-25 -82q0 -30 25 -30q23 0 50.5 20.5t55.5 53.5z" />
    <glyph glyph-name="b" unicode="b" horiz-adv-x="352" 
d="M913 526q0 -54 44.5 -87t116.5 -33q54 0 101.5 16.5t83 46t56 71.5t20.5 93q0 42 -18.5 81t-61 69t-112 48.5t-170.5 18.5q-93 0 -176.5 -23t-156.5 -62.5t-136.5 -92.5t-117.5 -114t-98.5 -126t-79.5 -128l-14 -24q32 24 66 38t67 14q23 0 35 -12.5t12 -34.5
q0 -30 -15.5 -64.5t-41 -69t-58.5 -66t-68.5 -56t-71 -39t-65.5 -14.5q-35 0 -47.5 10t-12.5 28q0 16 15 42l153 262q62 107 139.5 206.5t176 176.5t221 123t275.5 46q105 0 178 -20t118 -53t65 -75t20 -87q0 -55 -22 -100t-60.5 -77t-90 -49.5t-110.5 -17.5q-39 0 -72.5 10
t-57.5 27.5t-38 40.5t-14 50q0 35 15.5 62.5t42 46t61 28.5t73.5 10q26 0 43 -8.5t17 -21.5q0 -16 -18 -16q-7 0 -14.5 4t-15.5 9t-18 9t-22 4q-34 0 -60 -10.5t-44 -27.5t-27.5 -38.5t-9.5 -43.5zM281 300q-18 0 -38 -10t-39.5 -27.5t-38 -42t-34.5 -52.5l-79 -137
q12 -26 40 -26t66.5 22.5t73 58.5t58.5 81.5t24 92.5q0 17 -9 28.5t-24 11.5z" />
    <glyph glyph-name="c" unicode="c" horiz-adv-x="306" 
d="M270 308q-26 -7 -58 -31t-60.5 -57.5t-47.5 -73.5t-19 -79q0 -67 62 -67q48 0 95.5 22.5t86.5 54.5l10 -12q-55 -46 -115 -70.5t-124 -24.5q-38 0 -58 23.5t-20 68.5q0 27 14 57.5t37 60.5t53 57.5t62 48.5t64 33.5t60 12.5t41 -10.5t13 -25.5q0 -17 -12.5 -27.5
t-32.5 -10.5q-22 0 -36.5 15t-14.5 35z" />
    <glyph glyph-name="d" unicode="d" 
d="M1027 850q-119 0 -203.5 -29t-150.5 -85.5t-121.5 -138t-115.5 -186.5l-155 -271q-5 -8 -12.5 -21t-15 -28t-13 -30t-5.5 -27q0 -13 7 -19t24 -6q32 0 69.5 18.5t75.5 50.5l10 -13q-21 -16 -44.5 -32t-47.5 -28.5t-49 -20t-50 -7.5q-49 0 -49 44q0 11 3 27.5t9 30.5
q-28 -32 -60 -55.5t-60 -23.5q-55 0 -55 56q0 48 28.5 97t72 88.5t95 64t98.5 24.5q13 0 25 -3l33 61q59 109 121 198t138.5 152t173.5 97.5t226 34.5q105 0 178 -20t118 -53t65 -75t20 -87q0 -55 -22 -100t-60 -77t-89.5 -49.5t-110.5 -17.5q-39 0 -72.5 10t-58 27.5
t-38.5 40.5t-14 50q0 35 15.5 62.5t42 46t61 28.5t73.5 10q29 0 46 -9t17 -18q0 -16 -23 -16q-15 0 -32 11q-8 5 -17 8.5t-19 3.5q-34 0 -60 -10.5t-44 -27.5t-27.5 -38.5t-9.5 -43.5q0 -54 44.5 -87t116.5 -33q54 0 101.5 16.5t83 46t56 71.5t20.5 93q0 42 -19 81t-61.5 69
t-112 48.5t-170.5 18.5zM327 312q-36 0 -80.5 -24t-82.5 -60.5t-64 -79t-26 -79.5q0 -17 7.5 -23.5t18.5 -6.5q24 0 51.5 22.5t62.5 61.5z" />
    <glyph glyph-name="e" unicode="e" horiz-adv-x="306" 
d="M119 175q-15 -26 -24.5 -53.5t-9.5 -54.5q0 -67 62 -67q48 0 95.5 22.5t86.5 54.5l10 -12q-55 -46 -115 -70.5t-124 -24.5q-38 0 -58 23.5t-20 68.5q0 30 13 62t35 62t50 56.5t58.5 46.5t61 31.5t56.5 11.5q41 0 41 -36q0 -15 -16 -32.5t-45 -34.5t-69 -31.5t-88 -22.5z
M257 300q-10 0 -25.5 -8t-32.5 -22.5t-35 -34t-33 -41.5q30 6 56 16t46 21.5t31.5 24t11.5 23.5q0 9 -4 15t-15 6z" />
    <glyph glyph-name="f" unicode="f" horiz-adv-x="221" 
d="M-671 -528q87 0 171.5 27.5t167 90.5t162 165t157.5 252l145 276h-38v17h47l65 123q66 123 132.5 208.5t137 138.5t146.5 77t161 24q34 0 66 -7.5t57 -19.5t40 -28.5t15 -34.5q0 -23 -21 -23q-11 0 -18.5 9t-14.5 20t-14.5 21.5t-18.5 18.5q-38 29 -105 29
q-57 0 -119.5 -21.5t-128 -72.5t-132 -135.5t-132.5 -210.5l-61 -116h106v-17h-115l-167 -317q-62 -117 -133.5 -212.5t-155.5 -162.5t-183 -103.5t-216 -36.5q-77 0 -133.5 20t-93.5 53t-55 75.5t-18 87.5q0 55 22 100t60 77t90 49.5t111 17.5q39 0 72.5 -10t57.5 -27.5
t38 -40.5t14 -50q0 -35 -15.5 -62.5t-42 -46t-61 -28.5t-73.5 -10q-26 0 -42.5 8t-16.5 19q0 17 19 17q7 0 14.5 -4t16 -8.5t17.5 -8t20 -3.5q34 0 60 10.5t44 27.5t27.5 38.5t9.5 43.5q0 54 -44.5 87t-116.5 33q-54 0 -101.5 -16.5t-83 -46t-56 -71.5t-20.5 -93
q0 -42 16.5 -81t50.5 -69t86 -48.5t124 -18.5z" />
    <glyph glyph-name="g" unicode="g" horiz-adv-x="337" 
d="M-423 -528q76 0 141.5 21t126.5 68.5t120 124.5t122 189l102 182q-24 -23 -58 -40t-62 -17q-51 0 -51 56q0 49 28.5 98.5t72 89t96.5 64t102 24.5q5 0 10 -0.5t10 -1.5l14 22q10 3 19 3q26 0 26 -28l-259 -460q-54 -97 -109.5 -174t-121.5 -130.5t-146 -82t-183 -28.5
q-77 0 -134 20t-94.5 53t-56 75t-18.5 87q0 55 22 100t60 77t90 49.5t111 17.5q39 0 72.5 -10t57.5 -27.5t38 -40.5t14 -50q0 -35 -15.5 -62.5t-42 -46t-61 -28.5t-73.5 -10q-26 0 -44.5 9t-18.5 22q0 10 6 13t14 3q9 0 17.5 -4t16.5 -9t17 -9.5t20 -4.5q34 0 60 10.5
t44 27.5t27.5 38.5t9.5 43.5q0 54 -44.5 87t-116.5 33q-54 0 -101.5 -16.5t-83 -46t-56 -71.5t-20.5 -93q0 -42 17.5 -81t52.5 -69t88 -48.5t125 -18.5zM327 315q-24 0 -51.5 -12t-55.5 -31.5t-54.5 -44.5t-47 -52.5t-32.5 -54.5t-12 -50q0 -33 28 -33q24 0 55.5 19.5
t63.5 58.5z" />
    <glyph glyph-name="h" unicode="h" horiz-adv-x="379" 
d="M920 850q-93 0 -173 -23.5t-148.5 -64.5t-126.5 -95.5t-107 -117t-90 -129t-76 -131.5q21 21 46 32t45 11q55 0 55 -54q0 -17 -7 -35.5t-17 -33.5l-39 -57q-5 -8 -14.5 -22t-18.5 -30.5t-16 -33t-7 -28.5q0 -13 7 -21t24 -8q32 0 69.5 18.5t75.5 50.5l10 -13
q-21 -16 -44.5 -32t-47.5 -28.5t-49 -20t-50 -7.5q-26 0 -37.5 15.5t-11.5 36.5q0 23 17.5 58.5t41.5 72.5l45 68q7 10 14 25.5t7 25.5q0 13 -6.5 20t-23.5 7q-19 0 -37 -11.5t-34 -29t-29.5 -37.5t-22.5 -36l-118 -206q-15 -5 -24 -5q-24 0 -24 21l184 316
q62 107 131 206.5t157.5 176.5t203 123t267.5 46q105 0 178 -20t118 -53t65 -75t20 -87q0 -55 -22 -100t-60.5 -77t-90 -49.5t-110.5 -17.5q-39 0 -72.5 10t-57.5 27.5t-38 40.5t-14 50q0 35 15.5 62.5t42 46t61 28.5t73.5 10q23 0 43 -8t20 -21q0 -16 -20 -16q-8 0 -15.5 4
t-16 8.5t-18 8.5t-21.5 4q-34 0 -60 -10.5t-44 -27.5t-27.5 -38.5t-9.5 -43.5q0 -54 44.5 -87t116.5 -33q54 0 101.5 16.5t83 46t56 71.5t20.5 93q0 42 -18.5 81t-61 69t-112 48.5t-170.5 18.5z" />
    <glyph glyph-name="i" unicode="i" horiz-adv-x="216" 
d="M112 140q-5 -8 -13 -20.5t-16 -26.5t-13.5 -28.5t-5.5 -26.5q0 -13 7 -21t24 -8q32 0 73 18.5t79 50.5l10 -13q-21 -16 -45.5 -32t-50 -28.5t-51.5 -20t-51 -7.5q-26 0 -37.5 15.5t-11.5 36.5q0 23 14 52t37 67l107 182q5 1 8.5 1.5t7.5 0.5q29 0 29 -26zM241 470
q-7 6 -11.5 15t-4.5 21q0 14 10.5 24.5t25.5 10.5q13 0 23.5 -9.5t10.5 -25.5q0 -17 -12 -28.5t-28 -18.5l-17 -7l-6 9z" />
    <glyph glyph-name="j" unicode="j" horiz-adv-x="180" 
d="M-663 -528q87 0 166.5 28t157 91.5t154.5 165.5t158 250l190 345q20 3 32.5 -2t12.5 -23l-202 -361q-65 -116 -133 -210.5t-147.5 -162t-173.5 -104.5t-211 -37q-77 0 -133 20t-92.5 53t-54 75t-17.5 87q0 55 22 100t60 77t90 49.5t111 17.5q39 0 72.5 -10t57.5 -27.5
t38 -40.5t14 -50q0 -35 -15.5 -62.5t-42 -46t-61 -28.5t-73.5 -10q-26 0 -40.5 8.5t-14.5 19.5q0 17 22 17q16 0 31 -12q6 -5 13.5 -9t16.5 -4q34 0 60 10.5t44 27.5t27.5 38.5t9.5 43.5q0 54 -44.5 87t-116.5 33q-54 0 -101.5 -16.5t-83 -46t-56 -71.5t-20.5 -93
q0 -42 16 -81t49 -69t84.5 -48.5t123.5 -18.5zM264 470q-7 6 -11.5 15t-4.5 21q0 14 10.5 24.5t25.5 10.5q13 0 23.5 -9.5t10.5 -25.5q0 -17 -12 -28.5t-28 -18.5l-17 -7l-6 9z" />
    <glyph glyph-name="k" unicode="k" horiz-adv-x="374" 
d="M914 900q-93 0 -167.5 -19t-135.5 -53.5t-110 -82.5t-92 -105.5t-82 -123.5t-79 -136l-111 -195l15 8q31 30 59.5 55t58 44t61 29.5t69.5 10.5q30 0 49 -11t19 -31q0 -17 -12 -27t-31 -10q-17 0 -31 10.5t-14 30.5q0 8 3 16q-29 0 -56.5 -10t-54.5 -27.5t-54 -40.5
t-53 -49q28 0 50.5 -17.5t41 -47t35 -67.5t32.5 -79t38 -79.5t53 -68.5t71.5 -48.5t92.5 -18.5q35 0 72 9.5t72 30.5q70 42 114 143l15 -3q-22 -51 -50 -87.5t-67 -62.5q-42 -28 -87 -42.5t-90 -14.5q-58 0 -102 18.5t-77 48.5t-56.5 69t-39.5 80q-16 42 -30 82.5t-29 72
t-32.5 51t-39.5 19.5q-13 0 -25 -6l-101 -179q-15 -5 -24 -5q-24 0 -24 21l223 391q64 112 127 208.5t142.5 167t185.5 111t256 40.5q108 0 182.5 -24.5t120.5 -64.5t66.5 -91t20.5 -105q0 -55 -22 -100t-60.5 -77t-90 -49.5t-110.5 -17.5q-39 0 -72.5 10t-57.5 27.5
t-38 40.5t-14 50q0 35 15.5 62.5t42 46t61 28.5t73.5 10q26 0 44.5 -8t18.5 -19q0 -5 -3.5 -10t-14.5 -5q-8 0 -15.5 3t-14.5 7q-9 5 -20 8.5t-23 3.5q-34 0 -60 -10.5t-44 -27.5t-27.5 -38.5t-9.5 -43.5q0 -54 44.5 -87t116.5 -33q54 0 101.5 16.5t83 46t56 71.5t20.5 93
q0 46 -16 93.5t-57.5 86t-113 63t-181.5 24.5z" />
    <glyph glyph-name="l" unicode="l" horiz-adv-x="216" 
d="M250 65q-21 -16 -44.5 -32t-47.5 -28.5t-49 -20t-50 -7.5q-26 0 -37.5 15.5t-11.5 36.5q0 23 14.5 52t36.5 67l151 265q61 107 130.5 199.5t153.5 161t187 107.5t232 39q105 0 179.5 -28t121 -70t68 -92t21.5 -95q0 -55 -19 -100t-53.5 -77t-83.5 -49.5t-108 -17.5
q-39 0 -71 10t-55.5 27.5t-36 40.5t-12.5 50q0 35 14.5 62.5t39.5 46t58.5 28.5t72.5 10q24 0 43.5 -7.5t19.5 -20.5q0 -15 -16 -15q-11 0 -19.5 3t-16.5 8t-17 8.5t-22 3.5q-34 0 -59.5 -11t-43 -28.5t-26 -39t-8.5 -43.5q0 -52 42.5 -85t114.5 -33q54 0 98.5 16.5t76.5 46
t49.5 71.5t17.5 93q0 42 -20 88.5t-64.5 86.5t-115.5 66t-172 26q-119 0 -216.5 -43.5t-178 -114.5t-146 -162.5t-119.5 -188.5l-141 -251q-6 -11 -14.5 -24t-16 -26t-12.5 -26.5t-5 -25.5q0 -13 7 -21t24 -8q32 0 69.5 18.5t75.5 50.5z" />
    <glyph glyph-name="m" unicode="m" horiz-adv-x="604" 
d="M124 324q12 17 36 17q28 0 40 -19t12 -42v-16q26 35 60 51.5t65 16.5q26 0 41.5 -17.5t17.5 -41.5q22 29 54.5 44t61.5 15q27 0 42.5 -18t15.5 -44q0 -17 -7 -31.5t-17 -29.5l-39 -57q-5 -8 -14.5 -22t-18.5 -30.5t-16 -33t-7 -28.5q0 -13 7 -21t24 -8q32 0 70 18.5
t76 50.5l10 -13q-21 -16 -44.5 -32t-48 -28.5t-49.5 -20t-50 -7.5q-26 0 -37.5 15.5t-11.5 36.5q0 23 17.5 58.5t41.5 72.5l45 68q7 10 11.5 20t4.5 20q0 15 -7.5 26.5t-23.5 11.5q-23 0 -41.5 -13t-33 -31t-25 -37.5l-17.5 -32.5l-118 -206q-15 -5 -24 -5q-24 0 -24 21
l112 195q11 21 19 41t7 34t-8.5 24t-21.5 10q-23 0 -41.5 -13t-33 -31t-25 -37.5l-17.5 -32.5l-118 -206q-15 -5 -24 -5q-24 0 -24 21l112 195q8 17 13.5 33t5.5 36q0 22 -9.5 36t-25.5 22z" />
    <glyph glyph-name="n" unicode="n" horiz-adv-x="414" 
d="M109 324q12 17 36 17q28 0 39.5 -18t11.5 -44v-17q24 35 57.5 52.5t68.5 17.5q27 0 42.5 -18t15.5 -44q0 -17 -7 -31.5t-17 -29.5l-39 -57q-5 -8 -14.5 -22t-18.5 -30.5t-16 -33t-7 -28.5q0 -13 7 -21t24 -8q32 0 70 18.5t76 50.5l10 -13q-21 -16 -44.5 -32t-48 -28.5
t-49.5 -20t-50 -7.5q-26 0 -37.5 15.5t-11.5 36.5q0 23 17.5 58.5t41.5 72.5l45 68q7 10 11.5 20t4.5 20q0 15 -7.5 26.5t-23.5 11.5q-21 0 -38.5 -11.5t-31.5 -29t-26 -37.5t-21 -36l-118 -206q-15 -5 -24 -5q-24 0 -24 21l112 195q9 17 14 33t5 36q0 22 -9 35.5t-26 22.5z
" />
    <glyph glyph-name="o" unicode="o" horiz-adv-x="339" 
d="M318 332q25 0 38 -12.5t13 -34.5q0 -24 -13 -57t-41 -71q-26 -38 -57 -70.5t-64.5 -57t-67.5 -38.5t-66 -14q-26 0 -39 13.5t-13 36.5q0 25 12.5 58.5t40.5 71.5q27 37 58 69t64.5 55.5t67.5 37t67 13.5zM267 296q-38 0 -80.5 -39t-77.5 -100q-40 -70 -40 -112
q0 -31 34 -31q43 0 86.5 40t78.5 103q18 31 26 56t8 43q0 40 -35 40z" />
    <glyph glyph-name="p" unicode="p" horiz-adv-x="410" 
d="M-288 -408h67l317 542q9 16 20 36t20 42t15 46t6 48q0 22 -9.5 35t-25.5 23q12 17 36 17q28 0 40.5 -20t12.5 -41q0 -22 -6 -49.5t-21 -61.5q17 24 39.5 46.5t48 39.5t53 27t54.5 10q23 0 39 -12t16 -38q0 -30 -15 -64.5t-40.5 -68.5t-58.5 -65t-68.5 -55t-71 -38.5
t-65.5 -14.5q-16 0 -26 5.5t-15 13.5l-237 -403h95l-5 -17h-220zM101 42q8 -23 21.5 -29t26.5 -6q36 0 76 25t73.5 62.5t55 82t21.5 83.5q0 14 -8.5 25t-26.5 11q-27 0 -55 -17.5t-54 -44.5t-49.5 -60.5t-41.5 -64.5z" />
    <glyph glyph-name="q" unicode="q" 
d="M370 360q13 7 26 7q8 0 15 -5.5t7 -18.5l-441 -751h97l-7 -17h-225l7 17h70l282 481q-14 -12 -30 -25t-32.5 -23.5t-34 -17.5t-33.5 -7q-54 0 -53 56q0 49 30.5 98t76.5 88.5t100 64.5t101 25q14 0 26 -3zM107 36q24 0 57 23.5t65 62.5v-2l115 196q-35 2 -79 -20t-84 -57
t-69 -78t-35 -83q-5 -41 30 -42z" />
    <glyph glyph-name="r" unicode="r" horiz-adv-x="289" 
d="M66 -14q-15 -5 -24 -5q-25 0 -25 21l75 132q19 33 33 65t14 67q0 22 -9.5 35t-25.5 23q12 17 36 17q28 0 40 -19t12 -42q0 -21 -2.5 -34t-9.5 -35q12 18 28 35.5t35.5 31.5t41 22.5t44.5 8.5q22 0 35 -11t13 -27q0 -17 -12 -28.5t-32 -11.5q-17 0 -29.5 11.5t-12.5 34.5
q-46 -13 -83 -59t-72 -109l-70 -123v0z" />
    <glyph glyph-name="s" unicode="s" horiz-adv-x="298" 
d="M295 304q-8 9 -23 9t-25.5 -17.5t-17.5 -40.5q-8 -26 -10.5 -57t-5.5 -62t-9.5 -59.5t-21.5 -48.5q-19 -25 -48 -38t-72 -13q-45 0 -69 22.5t-24 47.5q0 17 9.5 31t29.5 14q17 0 26 -12t9 -26q0 -8 -5 -19.5t-13 -18.5q15 -22 44 -22q15 0 31 8.5t32 34.5
q13 21 18.5 54.5t9.5 69.5t11 69.5t23 54.5q17 23 43.5 35t54.5 12q32 0 53.5 -16t21.5 -44q0 -17 -8 -25.5t-21 -8.5q-22 0 -32.5 20t-10.5 46z" />
    <glyph glyph-name="t" unicode="t" horiz-adv-x="225" 
d="M97 300h56l114 198q20 3 32.5 -2t12.5 -23l-100 -173h96v-17h-108l-83 -143q-5 -8 -13 -21t-15.5 -28t-13 -30t-5.5 -27q0 -13 6.5 -19t23.5 -6q32 0 74.5 18.5t80.5 50.5l10 -13q-21 -17 -46 -32.5t-51 -28t-52.5 -20t-51.5 -7.5q-26 0 -37 14.5t-11 35.5q0 23 14 53
t36 68l76 135h-45v17z" />
    <glyph glyph-name="u" unicode="u" horiz-adv-x="404" 
d="M344 327q15 5 24 5q24 0 24 -21l-88 -159q-8 -15 -17.5 -30t-17.5 -30t-13 -28.5t-5 -25.5q0 -13 7 -21t24 -8q32 0 70 18.5t76 50.5l10 -13q-21 -16 -44 -32t-47 -28.5t-49 -20t-50 -7.5q-26 0 -38.5 15.5t-12.5 36.5q0 15 7 30q-26 -32 -57 -57t-63 -25t-47 15.5
t-15 41.5q0 33 18 66t40 66q20 31 36.5 60.5t16.5 57.5q0 22 -9.5 35t-38.5 18q12 17 36 17q29 0 47 -18.5t18 -46.5q0 -32 -17 -66.5t-37 -66.5q-21 -33 -38.5 -63.5t-17.5 -54.5q0 -15 7.5 -21.5t19.5 -6.5q19 0 40.5 15.5t42 38.5t39 50.5t31.5 51.5l88 161v0z" />
    <glyph glyph-name="v" unicode="v" horiz-adv-x="361" 
d="M336 268q-20 0 -33 9.5t-13 29.5q0 17 13 29.5t35 12.5t33.5 -19t10.5 -42q-2 -43 -29 -97t-69.5 -101.5t-94 -80t-102.5 -32.5q-42 0 -42 49q0 23 12 56t27 67.5t28 67t14 54.5t-12 34.5t-33 18.5q14 17 37 17q29 0 47.5 -18.5t16.5 -46.5q-2 -32 -14.5 -66t-27.5 -66.5
t-27.5 -61.5t-13.5 -50q-1 -28 20 -28q27 0 64.5 22.5t71.5 59.5t57.5 84.5t23.5 97.5z" />
    <glyph glyph-name="w" unicode="w" horiz-adv-x="533" 
d="M515 268q-20 0 -33.5 11t-13.5 31q0 17 11.5 28t31.5 11q19 0 28.5 -13.5t9.5 -36.5q0 -51 -25 -107.5t-66 -104.5t-94 -79t-109 -31q-46 0 -65 24q-23 -11 -47.5 -17.5t-49.5 -6.5q-35 0 -56 15.5t-21 49.5q0 29 21.5 63t47.5 68t47.5 66t21.5 58q0 22 -13.5 34.5
t-33.5 18.5q12 17 36 17q29 0 47 -18.5t18 -46.5q0 -33 -21.5 -69.5t-47.5 -71.5t-47.5 -66.5t-21.5 -53.5q0 -26 12 -34t31 -8q33 0 69 16q-2 5 -3.5 14t-1.5 14q0 21 9.5 51t24.5 62t35 64.5t41 57.5t41.5 41t37.5 16q30 0 30 -45q0 -29 -12.5 -65t-34.5 -72t-51.5 -69
t-63.5 -57q3 -14 15 -21.5t26 -7.5q41 0 84 24.5t77.5 63t56.5 86.5t22 96zM231 43q45 35 75 87.5t30 125.5q0 7 -3 14.5t-9 7.5q-15 0 -31.5 -23t-30 -57.5t-22.5 -76t-9 -78.5z" />
    <glyph glyph-name="x" unicode="x" horiz-adv-x="482" 
d="M130 264q33 31 70 49.5t76 18.5q23 0 39 -12t16 -38q0 -14 -3 -27q42 34 85.5 55.5t80.5 21.5q20 0 31 -11.5t11 -26.5q0 -17 -11 -29t-29 -12q-9 0 -13 7t-6 16t-7 16.5t-18 7.5q-26 -7 -58 -29.5t-60 -55t-47.5 -71t-19.5 -77.5q0 -67 62 -67q48 0 95.5 22.5t86.5 54.5
l10 -12q-55 -46 -115 -70.5t-124 -24.5q-38 0 -56 21.5t-18 59.5q-24 -31 -60 -53t-74 -22q-16 0 -31 6t-27 17t-19 26.5t-7 33.5q0 14 6.5 20t14.5 6q12 0 22 -10q0 -21 5.5 -35t13 -22t16 -11.5t14.5 -3.5q34 0 68 25t61 63t44 83t17 86q0 14 -8.5 25t-26.5 11
q-24 0 -47.5 -12.5t-46.5 -33.5z" />
    <glyph glyph-name="y" unicode="y" horiz-adv-x="396" 
d="M164 -133q-70 -106 -133.5 -184t-128 -129.5t-133.5 -76.5t-149 -25q-77 0 -133.5 20t-93.5 53t-55 75t-18 87q0 55 22 100t60 77t90 49.5t111 17.5q39 0 72.5 -10t57.5 -27.5t38 -40.5t14 -50q0 -35 -15.5 -62.5t-42 -46t-61 -28.5t-73.5 -10q-26 0 -43 9t-17 22
q0 16 20 16q8 0 15 -4.5t15 -9.5t17 -9t21 -4q34 0 60 10.5t44 27.5t27.5 38.5t9.5 43.5q0 54 -44.5 87t-116.5 33q-54 0 -101.5 -16.5t-83 -46t-56 -71.5t-20.5 -93q0 -42 16.5 -81t50.5 -69t86 -48.5t124 -18.5q60 0 114 17t110 59t116 112t132 177l210 312
q-29 -31 -60 -61.5t-61 -55t-58 -40t-52 -15.5q-23 0 -39 13t-16 45q0 27 24 63.5t53.5 74.5t53.5 73.5t24 61.5q0 22 -13.5 34.5t-33.5 18.5q12 17 36 17q29 0 47 -18.5t18 -46.5q0 -20 -11.5 -44t-29 -49.5t-37.5 -51t-37.5 -49t-29 -44t-11.5 -34.5q0 -29 28 -29
q26 0 63 25t76 63.5t76 84.5t63 87l51 80q9 3 17 3q11 0 19.5 -7t8.5 -21z" />
    <glyph glyph-name="z" unicode="z" horiz-adv-x="389" 
d="M1607 -176q4 13 17 13q16 0 20.5 -12.5t4.5 -29.5q0 -98 -42 -185t-119 -152t-186.5 -102.5t-245.5 -37.5q-99 0 -186.5 24.5t-164.5 68t-145 102t-128 127t-114.5 143t-104.5 149.5q-17 25 -37.5 51.5t-41.5 40.5q-26 -23 -55.5 -39.5t-56.5 -16.5q-23 0 -39 10.5
t-16 33.5q0 18 11 32.5t27.5 25t36.5 16t37 5.5q20 0 40 -6t37 -16l140 124h-12q-23 0 -37.5 13.5t-14.5 45.5q0 35 -5.5 47.5t-15.5 12.5q-11 0 -28.5 -18.5t-37.5 -63.5l-14 4q7 19 19.5 40.5t29 39.5t35 30t37.5 12q24 0 27.5 -21t3.5 -64q0 -19 1.5 -30t3.5 -16.5
t5.5 -7t7.5 -1.5q8 0 12.5 2t11.5 6q18 19 39.5 41t43 40.5t41 31t34.5 12.5q21 0 21 -24q0 -14 -16 -29t-39.5 -29.5t-51 -28t-50.5 -25.5l-174 -157q20 -15 37 -35.5t33 -43.5q48 -69 100.5 -143.5t110.5 -146t123.5 -135t140 -112t159 -76.5t181.5 -28q107 0 190 21.5
t146 57t106.5 81t71 95t39.5 98t12 89.5q0 16 -3.5 25.5t-12.5 20.5zM24 -14q21 0 43 14t48 36q-11 8 -26 13t-27 5q-32 0 -50.5 -13.5t-18.5 -29.5q0 -11 5.5 -18t25.5 -7z" />
    <glyph glyph-name="braceleft" unicode="{" horiz-adv-x="373" 
d="M681 714h-51q-46 0 -77.5 -25t-51.5 -60l-150 -266q-25 -45 -65 -71.5t-110 -26.5q28 -10 41 -32.5t13 -51.5q0 -16 -5 -34t-17 -39l-97 -172q-17 -29 -26 -52.5t-9 -50.5q0 -22 11.5 -31.5t28.5 -9.5h43l-5 -20h-59q-34 0 -54 18.5t-20 53.5q0 44 37 109l97 172
q8 15 15.5 33.5t7.5 38.5q0 8 -2.5 18.5t-9 20t-17.5 16t-28 6.5h-19l17 33h18q42 0 69.5 8.5t45.5 22.5t29.5 32t22.5 37l144 255q28 49 76 68.5t108 19.5h53z" />
    <glyph glyph-name="bar" unicode="|" horiz-adv-x="500" 
d="M327 720h31v-925h-31v925z" />
    <glyph glyph-name="braceright" unicode="}" horiz-adv-x="373" 
d="M-141 -208h45q46 0 80 25t54 60l158 282q25 45 65 71.5t110 26.5q-28 10 -41 32.5t-13 51.5q0 16 5 34t17 39l89 156q17 29 27 53.5t10 45.5q0 22 -9 33.5t-33 11.5h-43l4 20h60q34 0 54 -18.5t20 -53.5q0 -44 -37 -109l-89 -156q-8 -15 -15.5 -33.5t-7.5 -38.5
q0 -8 2.5 -18.5t9 -20t17.5 -16t28 -6.5h19l-17 -33h-18q-41 0 -68.5 -8.5t-46 -22.5t-30.5 -32t-22 -37l-152 -271q-28 -49 -76 -68.5t-108 -19.5h-53z" />
    <glyph glyph-name="asciitilde" unicode="~" horiz-adv-x="584" 
d="M114 235q17 40 49.5 63.5t74.5 23.5q29 0 52 -14t44.5 -31t43.5 -31t48 -14q35 0 58 24t40 57l24 -11q-18 -45 -50 -71t-83 -26q-27 0 -49.5 13.5t-44 30t-43.5 30.5t-46 14q-32 0 -55.5 -19t-39.5 -50z" />
    <glyph glyph-name="uni00A0" unicode="&#xa0;" horiz-adv-x="254" 
 />
    <glyph glyph-name="exclamdown" unicode="&#xa1;" horiz-adv-x="304" 
d="M20 -266q-19 -16 -37 -16q-15 0 -22 7.5t-7 18.5q0 10 8 24l384 487l17 -10zM441 436q7 -6 11.5 -15t4.5 -21q0 -14 -10.5 -24.5t-25.5 -10.5q-13 0 -23.5 9.5t-10.5 25.5q0 17 12 28.5t28 18.5l17 7l6 -9z" />
    <glyph glyph-name="cent" unicode="&#xa2;" horiz-adv-x="433" 
d="M169 -30h-12q-38 0 -58 23.5t-20 68.5q0 27 14 57.5t37 60.5t53 57.5t62 48.5t64 33.5t60 12.5h5l57 101l13 -4l-56 -99q18 -4 26.5 -13t8.5 -21q0 -17 -12.5 -27.5t-32.5 -10.5q-17 0 -27 7l-149 -265h2q48 0 95.5 22.5t86.5 54.5l10 -12q-99 -83 -210 -93l-63 -112
l-12 8zM327 308q-26 -7 -58 -31t-60.5 -57.5t-47.5 -73.5t-19 -79q0 -57 45 -66l154 272q-14 14 -14 35z" />
    <glyph glyph-name="sterling" unicode="&#xa3;" horiz-adv-x="861" 
d="M348 288h106q6 17 10 31.5t9 33.5q18 64 38.5 110.5t50.5 76t72 43.5t104 14q43 0 81 -15.5t66 -38.5l24 41h25l-98 -168h-24l38 65q-6 39 -37.5 66.5t-77.5 27.5q-35 0 -60 -9.5t-45.5 -31t-37 -56.5t-33.5 -86q-8 -26 -18 -51.5t-21 -52.5h128v-17h-136
q-23 -51 -50.5 -97.5t-58 -84.5t-64 -66t-67.5 -41q1 0 1 -0.5t1 -0.5q39 -16 74.5 -30.5t74.5 -26t85.5 -18.5t107.5 -7q40 0 73.5 12t59.5 33t44.5 49t29.5 60q4 6 10 6q7 0 7 -7q-8 -34 -24.5 -70t-43 -65t-64.5 -48t-89 -19q-54 0 -97 7.5t-85 23t-88 38.5t-106 54
q-11 -1 -24 -2t-24 -1q-23 0 -47.5 1.5t-45.5 6t-34.5 11.5t-13.5 18q0 17 13.5 23.5t33.5 6.5q23 0 57.5 -10t91.5 -35q34 14 63.5 42t54 65.5t44.5 81.5t36 90h-100v17z" />
    <glyph glyph-name="currency" unicode="&#xa4;" horiz-adv-x="705" 
d="M124 328q0 42 14.5 77.5t40.5 63.5l-66 67l23 23l67 -68q27 21 59.5 33t69.5 12q38 0 72.5 -13t61.5 -36l72 72l23 -23l-72 -72q24 -28 37.5 -62.5t13.5 -73.5q0 -37 -12 -70t-33 -59l65 -65l-24 -23l-64 64q-28 -26 -63 -40.5t-77 -14.5q-39 0 -73.5 13.5t-62.5 36.5
l-58 -59l-24 23l59 59q-23 28 -36 62t-13 73zM158 328q0 -36 13.5 -67.5t37.5 -55.5t55.5 -37.5t67.5 -13.5t67.5 13.5t55.5 37.5t37.5 55.5t13.5 67.5t-13.5 67.5t-37.5 55.5t-55.5 37.5t-67.5 13.5t-67.5 -13.5t-55.5 -37.5t-37.5 -55.5t-13.5 -67.5z" />
    <glyph glyph-name="yen" unicode="&#xa5;" horiz-adv-x="625" 
d="M206 271h179l-6 318h-59l3 18h215l-3 -18h-102l5 -293l294 293h-84l3 18h190l-3 -18h-72l-322 -318h159l-6 -24h-167l-34 -61h175l-6 -22h-182l-82 -146h101l-6 -18h-248l4 18h90l83 146h-158l5 22h165l35 61h-172z" />
    <glyph glyph-name="brokenbar" unicode="&#xa6;" horiz-adv-x="500" 
d="M327 164h31v-369h-31v369zM327 722h31v-369h-31v369z" />
    <glyph glyph-name="section" unicode="&#xa7;" horiz-adv-x="573" 
d="M339 486q6 34 24 63.5t45 51t62 34t74 12.5q28 0 50.5 -9.5t38 -25t23.5 -35.5t7 -41q-1 -11 -5 -23t-10.5 -21.5t-15.5 -15.5t-20 -6q-10 0 -16.5 6.5t-4.5 17.5q0 8 5 14.5t11.5 13t12.5 14t7 19.5q1 11 -3.5 24.5t-15 25t-27.5 19t-41 7.5q-31 0 -58.5 -9.5
t-48.5 -28.5t-33 -46.5t-12 -64.5q0 -30 12 -54t30.5 -44.5t40 -39t40 -37.5t30.5 -40t12 -46q0 -69 -41.5 -113t-107.5 -76q-10 -32 -30 -59.5t-47.5 -47t-61.5 -30.5t-73 -11q-30 0 -56 10t-44.5 27t-29 41t-10.5 51q0 19 6 39t16.5 35.5t24.5 25.5t29 10q11 0 17 -6.5
t6 -13.5q0 -17 -14.5 -24t-28.5 -13q-14 -7 -24 -22t-10 -43q0 -23 10.5 -41.5t27 -31.5t38 -20t43.5 -7q30 0 59.5 10t53 31t37.5 54t14 80q0 27 -11.5 49.5t-29 42t-38 37.5t-38 36.5t-29 39t-11.5 44.5q0 61 36.5 98t102.5 63zM409 56q39 20 66.5 52t27.5 85
q0 23 -12.5 42.5t-31 38t-40 37t-40 39.5t-31 46t-12.5 56v11q-37 -15 -59.5 -41t-22.5 -69q0 -24 12 -43t29.5 -37t38.5 -36t38.5 -38.5t29.5 -45.5t12 -57q0 -11 -1.5 -20.5t-3.5 -19.5z" />
    <glyph glyph-name="dieresis" unicode="&#xa8;" horiz-adv-x="216" 
d="M274 470q-7 6 -11.5 15t-4.5 21q0 14 10.5 24.5t25.5 10.5q13 0 23.5 -9.5t10.5 -25.5q0 -17 -12 -28.5t-28 -18.5l-17 -7l-6 9zM417 470q-7 6 -11.5 15t-4.5 21q0 14 10.5 24.5t25.5 10.5q13 0 23.5 -9.5t10.5 -25.5q0 -17 -12 -28.5t-28 -18.5l-17 -7l-6 9z" />
    <glyph glyph-name="copyright" unicode="&#xa9;" horiz-adv-x="775" 
d="M37 336q0 73 27.5 136.5t75 110.5t111.5 74t137 27t137 -27t112 -74t75.5 -110.5t27.5 -136.5t-27.5 -136t-75.5 -110t-112 -74t-137 -27t-137 27t-111.5 74t-75 110t-27.5 136zM64 336q0 -68 25.5 -127t69.5 -103t103 -69.5t126 -25.5t126 25.5t103.5 69.5t70 103
t25.5 127q0 67 -25.5 126t-70 103t-103.5 69.5t-126 25.5t-126 -25.5t-103 -69.5t-69.5 -103t-25.5 -126zM503 450q0 45 -29 72t-77 27q-34 0 -61.5 -17.5t-47.5 -47t-31 -68.5t-11 -82q0 -30 7.5 -65t23.5 -65.5t41 -51t61 -20.5q54 0 92.5 25.5t55.5 61.5l16 -11
q-8 -17 -23.5 -34t-36.5 -30t-47.5 -21t-56.5 -8q-45 0 -79.5 20.5t-57.5 53t-34.5 73t-11.5 79.5q0 48 16 88.5t44 70.5t65 47t79 17q31 0 55.5 -8.5t46.5 -22.5v26h17v-109h-16z" />
    <glyph glyph-name="ordfeminine" unicode="&#xaa;" 
d="M317 609q17 0 27.5 -4.5t10.5 -17.5l-109 -161q-4 -7 -11 -17.5t-13.5 -22.5t-11.5 -24.5t-5 -22.5q0 -11 6 -18t21 -7q28 0 59.5 15.5t64.5 43.5l9 -11q-37 -28 -79 -52t-85 -24q-23 0 -33 13.5t-10 31.5q0 8 2.5 18.5t7.5 22.5q-24 -26 -52 -46t-51 -20t-35 11t-12 37
q0 42 26 84.5t66 76.5t86.5 55.5t87.5 21.5q11 0 20 -3zM295 575q-6 3 -15 3q-30 0 -67 -21t-69 -52.5t-53.5 -69t-21.5 -70.5q0 -26 21 -26q20 0 44 17.5t48 46.5z" />
    <glyph glyph-name="guillemotleft" unicode="&#xab;" horiz-adv-x="518" 
d="M81 269q60 18 117.5 49.5t111.5 91.5l17 -15q-22 -23 -43.5 -41.5t-45 -34.5t-50.5 -30t-60 -29q46 -26 77.5 -63t50.5 -99q0 -20 -10.5 -29.5t-21.5 -9.5t-20 9q-14 66 -52 107.5t-79 57.5zM239 269q60 18 117.5 49.5t111.5 91.5l17 -15q-22 -23 -43.5 -41.5t-45 -34.5
t-50.5 -30t-60 -29q46 -26 77.5 -63t50.5 -99q0 -20 -10.5 -29.5t-21.5 -9.5t-20 9q-14 66 -52 107.5t-79 57.5z" />
    <glyph glyph-name="logicalnot" unicode="&#xac;" horiz-adv-x="705" 
d="M627 69h-29v173h-376v29h405v-202z" />
    <glyph glyph-name="uni00AD" unicode="&#xad;" horiz-adv-x="374" 
d="M83 171h213v-26h-213v26z" />
    <glyph glyph-name="registered" unicode="&#xae;" horiz-adv-x="775" 
d="M37 336q0 73 27.5 136.5t75 110.5t111.5 74t137 27t137 -27t112 -74t75.5 -110.5t27.5 -136.5t-27.5 -136t-75.5 -110t-112 -74t-137 -27t-137 27t-111.5 74t-75 110t-27.5 136zM64 336q0 -68 25.5 -127t69.5 -103t103 -69.5t126 -25.5t126 25.5t103.5 69.5t70 103
t25.5 127q0 67 -25.5 126t-70 103t-103.5 69.5t-126 25.5t-126 -25.5t-103 -69.5t-69.5 -103t-25.5 -126zM356 361q24 0 44.5 8.5t36.5 22.5t25 32t9 36q0 42 -24.5 67.5t-60.5 25.5h-69v-408h62v-15h-168v15h66v408h-66v15h177q66 0 97 -26.5t31 -74.5q0 -36 -28 -69
t-95 -48l168 -204h48v-15h-153v15h53l-177 215h24z" />
    <glyph glyph-name="macron" unicode="&#xaf;" horiz-adv-x="374" 
d="M93 541h213v-26h-213v26z" />
    <glyph glyph-name="degree" unicode="&#xb0;" horiz-adv-x="304" 
d="M240 580q0 40 28 68t68 28t68 -28t28 -68t-28 -68t-68 -28t-68 28t-28 68zM266 580q0 -29 20.5 -49.5t49.5 -20.5t49.5 20.5t20.5 49.5t-20.5 49.5t-49.5 20.5t-49.5 -20.5t-20.5 -49.5z" />
    <glyph glyph-name="plusminus" unicode="&#xb1;" horiz-adv-x="593" 
d="M372 242v-180h-33v180h-187v29h187v186h33v-186h185v-29h-185zM559 29v-29h-407v29h407z" />
    <glyph glyph-name="twosuperior" unicode="&#xb2;" horiz-adv-x="364" 
d="M245 646q-19 0 -36 -7t-30 -18.5t-20.5 -27.5t-7.5 -34q0 -17 13 -30.5t33 -13.5q21 0 38.5 14t22.5 42l15 -4q-5 -30 -27 -49t-54 -19q-27 0 -44 17t-17 41q0 23 10 43t27.5 34.5t41.5 22.5t52 8q51 0 81 -20t30 -62q0 -41 -33.5 -70.5t-78.5 -48.5q-23 -10 -47 -19
t-46.5 -19.5t-42 -22.5t-32.5 -28q27 0 51.5 -8.5t47 -18t44 -18t41.5 -8.5q16 0 31 5t27 24l10 -5q-17 -32 -40.5 -52t-46.5 -20q-22 0 -43.5 8.5t-44 18t-45.5 18t-48 8.5q-20 0 -31.5 -6.5t-20.5 -26.5l-13 5q30 64 77 101t114 63q51 20 80 47.5t29 75.5q0 28 -18.5 44
t-48.5 16z" />
    <glyph glyph-name="threesuperior" unicode="&#xb3;" horiz-adv-x="354" 
d="M264 575q-11 -23 -29 -29.5t-34 -6.5q-17 0 -31.5 13t-14.5 33q0 21 9.5 37t25 26t36 15t42.5 5q51 0 84 -20t33 -58q0 -39 -32 -63t-90 -29l-2 -7q41 -1 65.5 -24.5t24.5 -55.5q0 -54 -54 -86t-147 -32q-27 0 -54 6t-47 17t-31.5 25t-11.5 29q0 12 5 20.5t17 8.5
q14 0 20 -11t9 -23q8 -32 31 -44q12 -7 29 -9t40 -2q60 0 89.5 28t29.5 64q0 8 -3.5 17.5t-12 17.5t-21.5 13.5t-32 5.5q-14 0 -23.5 -1.5t-26.5 -6.5l-5 2l12 54q50 0 80 6.5t47 17.5t22.5 26t5.5 31q0 29 -20 45.5t-46 16.5q-27 0 -51 -15t-24 -45q0 -13 8.5 -21t20.5 -8
q17 0 25 6t15 19z" />
    <glyph glyph-name="acute" unicode="&#xb4;" horiz-adv-x="216" 
d="M117 428q28 12 53 24.5t50 30t50.5 41.5t54.5 60q3 4 11 6t14 2q14 0 21.5 -8t7.5 -19q0 -13 -7 -21.5t-19 -16.5q-54 -34 -107.5 -65t-116.5 -54q-8 -2 -9 -2q-4 0 -7.5 2.5t-3.5 7.5q0 7 8 12z" />
    <glyph glyph-name="mu" unicode="&#xb5;" horiz-adv-x="397" 
d="M337 327q15 5 24 5q24 0 24 -21l-88 -159q-8 -15 -17.5 -30t-17.5 -30t-13 -28.5t-5 -25.5q0 -13 7 -21t24 -8q32 0 70 18.5t76 50.5l10 -13q-21 -16 -44 -32t-47 -28.5t-49 -20t-50 -7.5q-26 0 -38.5 15.5t-12.5 36.5q0 15 7 30q-26 -32 -57.5 -57t-64.5 -25
q-18 0 -28.5 8t-10.5 20l-78 -142q-15 -5 -24 -5q-24 0 -24 21l163 287q18 32 35.5 61t17.5 57q0 22 -9.5 35t-38.5 18q12 17 36 17q29 0 47 -18.5t18 -46.5q0 -32 -17 -66.5t-37 -66.5q-21 -33 -38.5 -63.5t-17.5 -54.5q0 -15 7.5 -21.5t19.5 -6.5q19 0 40.5 15.5t42 38.5
t39 50.5t31.5 51.5l88 161v0z" />
    <glyph glyph-name="paragraph" unicode="&#xb6;" horiz-adv-x="401" 
d="M761 663h-102q-27 -31 -49.5 -61.5t-43.5 -63t-42 -69t-46 -80.5l-337 -597h-25l340 601q19 34 40 70t43 71t45.5 67.5t47.5 61.5h-81l-491 -871h-65l327 576q-31 -21 -62.5 -32.5t-60.5 -11.5q-26 0 -39 13.5t-13 36.5q0 25 12.5 58.5t40.5 71.5q17 24 43 54.5t62 57.5
t82 45.5t104 18.5h160q45 45 94.5 80t107 59.5t123.5 37.5t144 13q105 0 178 -20.5t118 -54t65 -75.5t20 -85q0 -55 -22 -100t-60 -77t-89.5 -49.5t-110.5 -17.5q-39 0 -72.5 10t-58 27.5t-38.5 40.5t-14 50q0 35 15.5 62.5t42 46t61 28.5t73.5 10q29 0 46 -9t17 -18
q0 -16 -23 -16q-15 0 -32 11q-8 5 -17 8.5t-19 3.5q-34 0 -60.5 -11t-45 -28.5t-28 -39t-9.5 -43.5q0 -27 12.5 -48.5t34 -37t51.5 -24t65 -8.5q54 0 101.5 16.5t83 46t56 71.5t20.5 93q0 42 -19 81.5t-61.5 71t-112 50.5t-170.5 19q-73 0 -135 -12t-116 -34.5t-100.5 -55
t-88.5 -73.5h87zM487 663q-43 0 -69.5 -19t-45.5 -52l-84 -149q-12 -21 -12 -38q0 -19 19 -19q18 0 38.5 19t32.5 41z" />
    <glyph glyph-name="periodcentered" unicode="&#xb7;" horiz-adv-x="222" 
d="M132 184q-7 6 -11.5 15t-4.5 21q0 14 10.5 24.5t25.5 10.5q13 0 23.5 -9.5t10.5 -25.5q0 -17 -12 -28.5t-28 -18.5l-17 -7l-6 9z" />
    <glyph glyph-name="cedilla" unicode="&#xb8;" 
d="M242 -17q-17 -8 -32 -18.5t-15 -24.5q0 -9 12 -17.5t27 -19t27 -23.5t12 -31q0 -23 -15 -43.5t-38 -36.5t-52 -25.5t-56 -9.5q-29 0 -48 10l6 14q24 -8 43 -8q22 0 42 7t35.5 19.5t24.5 29t9 36.5q0 13 -11.5 22t-25 18t-24.5 20.5t-11 28.5t14.5 30t34.5 22h41z" />
    <glyph glyph-name="onesuperior" unicode="&#xb9;" horiz-adv-x="319" 
d="M11 321h104l169 295q-45 -32 -95.5 -56t-110.5 -41l-5 21q66 14 132 51.5t118 89.5h66l-207 -360h116l-5 -21h-288z" />
    <glyph glyph-name="ordmasculine" unicode="&#xba;" horiz-adv-x="300" 
d="M275 598q44 0 44 -40q0 -21 -11 -49.5t-35 -60.5q-23 -33 -49.5 -61.5t-55 -49.5t-58 -33t-57.5 -12q-45 0 -45 43q0 22 11 51t35 62q23 32 50 59.5t55.5 47.5t57.5 31.5t58 11.5zM231 568q-33 0 -69.5 -33.5t-66.5 -86.5q-34 -61 -34 -97q0 -26 29 -26q37 0 74.5 34.5
t67.5 88.5q16 26 23 47.5t7 37.5q0 35 -31 35z" />
    <glyph glyph-name="guillemotright" unicode="&#xbb;" horiz-adv-x="518" 
d="M477 199q-60 -18 -117.5 -49.5t-111.5 -91.5l-17 15q22 23 43.5 41.5t45 34t50.5 30t60 29.5q-47 26 -78 63t-50 99q0 20 10.5 29.5t21.5 9.5t20 -9q14 -66 52 -107.5t79 -57.5zM319 199q-60 -18 -117.5 -49.5t-111.5 -91.5l-17 15q22 23 43.5 41.5t45 34t50.5 30
t60 29.5q-47 26 -78 63t-50 99q0 20 10.5 29.5t21.5 9.5t20 -9q14 -66 52 -107.5t79 -57.5z" />
    <glyph glyph-name="onequarter" unicode="&#xbc;" horiz-adv-x="719" 
d="M609 130h110l-7 -19h-113l-51 -92h136l-4 -20h-337l6 20h134l51 92h-191l-14 37q38 9 77.5 28.5t74 47t61 62t38.5 72.5h91q-46 -56 -81.5 -92.5t-67.5 -61.5t-66 -41.5t-77 -32.5h164l82 142h65zM704 783l16 -14l-603 -790l-18 13zM11 321h104l169 295
q-45 -32 -95.5 -56t-110.5 -41l-5 21q66 14 132 51.5t118 89.5h66l-207 -360h116l-5 -21h-288z" />
    <glyph glyph-name="onehalf" unicode="&#xbd;" horiz-adv-x="720" 
d="M704 783l16 -14l-603 -790l-18 13zM572 339q-19 0 -36 -7t-30 -18.5t-20.5 -27.5t-7.5 -34q0 -17 13 -30.5t33 -13.5q21 0 38.5 14t22.5 42l15 -4q-5 -30 -27 -49t-54 -19q-27 0 -44 17t-17 41q0 23 10 43t27.5 34.5t41.5 22.5t52 8q51 0 81 -20t30 -62
q0 -41 -33.5 -70.5t-78.5 -48.5q-23 -10 -47 -19t-46.5 -19.5t-42 -22.5t-32.5 -28q27 0 51.5 -8.5t47 -18t44 -18t41.5 -8.5q16 0 31 5t27 24l10 -5q-17 -32 -40.5 -52t-46.5 -20q-22 0 -43.5 8.5t-44 18t-45.5 18t-48 8.5q-20 0 -31.5 -6.5t-20.5 -26.5l-13 5
q30 64 77 101t114 63q51 20 80 47.5t29 75.5q0 28 -18.5 44t-48.5 16zM11 321h104l169 295q-45 -32 -95.5 -56t-110.5 -41l-5 21q66 14 132 51.5t118 89.5h66l-207 -360h116l-5 -21h-288z" />
    <glyph glyph-name="threequarters" unicode="&#xbe;" horiz-adv-x="720" 
d="M727 783l16 -14l-603 -790l-18 13zM609 130h110l-7 -19h-113l-51 -92h136l-4 -20h-337l6 20h134l51 92h-191l-14 37q38 9 77.5 28.5t74 47t61 62t38.5 72.5h91q-46 -56 -81.5 -92.5t-67.5 -61.5t-66 -41.5t-77 -32.5h164l82 142h65zM264 575q-11 -23 -29 -29.5t-34 -6.5
q-17 0 -31.5 13t-14.5 33q0 21 9.5 37t25 26t36 15t42.5 5q51 0 84 -20t33 -58q0 -39 -32 -63t-90 -29l-2 -7q41 -1 65.5 -24.5t24.5 -55.5q0 -54 -54 -86t-147 -32q-27 0 -54 6t-47 17t-31.5 25t-11.5 29q0 12 5 20.5t17 8.5q14 0 20 -11t9 -23q8 -32 31 -44q12 -7 29 -9
t40 -2q60 0 89.5 28t29.5 64q0 8 -3.5 17.5t-12 17.5t-21.5 13.5t-32 5.5q-15 0 -25.5 -2t-30.5 -8l13 58q50 0 80 6.5t47 17.5t22.5 26t5.5 31q0 29 -20 45.5t-46 16.5q-27 0 -51 -15t-24 -45q0 -13 8.5 -21t20.5 -8q17 0 25 6t15 19z" />
    <glyph glyph-name="questiondown" unicode="&#xbf;" horiz-adv-x="377" 
d="M389 264l-26 -69q-19 -51 -56.5 -88.5t-101.5 -72.5q-33 -18 -60.5 -35.5t-48 -37t-32 -41t-11.5 -47.5q0 -76 88 -76q70 0 115 47q9 10 13 25t6 30q2 17 9 28.5t24 11.5q11 0 18.5 -8t7.5 -21q0 -24 -21 -48t-52.5 -43t-68.5 -31t-68 -12q-65 0 -102 20.5t-37 73.5
q0 30 12 55.5t33.5 48t50.5 41.5t62 35q158 77 193 146l37 74zM442 436q7 -6 11.5 -15t4.5 -21q0 -14 -10.5 -24.5t-25.5 -10.5q-13 0 -23.5 9.5t-10.5 25.5q0 17 12 28.5t28 18.5l17 7l6 -9z" />
    <glyph glyph-name="Agrave" unicode="&#xc0;" horiz-adv-x="1797" 
d="M2108 783q45 14 89.5 21.5t95.5 7.5q58 0 108 -14t86.5 -41t57 -66t20.5 -90q0 -36 -12 -72t-37 -64.5t-62.5 -46t-89.5 -17.5q-31 0 -60.5 10t-52 29t-36.5 46t-14 62q0 30 17 63t55 50q-36 29 -78.5 53t-82.5 42q-34 -11 -67 -29.5t-65 -36.5l-270 -473
q61 -6 113.5 -31t90 -66.5t59 -99t21.5 -129.5q0 -83 -32 -155.5t-90.5 -126t-141 -84.5t-182.5 -31q-112 0 -200 31.5t-153 87.5t-107 133t-61 168q-88 -40 -183 -63t-206 -23q-110 0 -209 35t-175 102.5t-120.5 167.5t-44.5 230q0 110 39.5 198t107.5 149t158 93.5
t192 32.5q91 0 163.5 -28.5t122.5 -78t76.5 -115t26.5 -139.5q0 -71 -26.5 -132t-72 -106t-107.5 -70.5t-132 -25.5q-53 0 -97 16t-75.5 45t-49.5 69.5t-18 90.5q0 34 13 65.5t36.5 55.5t57.5 38.5t76 14.5q33 0 60 -11.5t45.5 -32t29 -48.5t10.5 -60q0 -20 -8 -31.5
t-21 -11.5q-19 0 -19 25q0 8 2.5 15.5t5.5 15.5t6 16.5t3 17.5q-11 38 -41.5 63.5t-72.5 25.5q-36 0 -66.5 -12.5t-52 -34t-33.5 -51t-12 -62.5q0 -45 16 -82t45.5 -63.5t70.5 -41t92 -14.5q55 0 111.5 21.5t101.5 62t73.5 99t28.5 132.5q0 66 -22.5 128t-68.5 110
t-116 77.5t-164 29.5q-105 0 -192.5 -33.5t-150 -93.5t-97.5 -144t-35 -185q0 -123 41 -217.5t112.5 -158t168.5 -96.5t209 -34q106 -1 200 23t181 66q-12 69 -12 144q0 116 31.5 217t86.5 184.5t130 149.5t161 111t180 68.5t188 23.5q88 0 167.5 -14.5t154.5 -46.5z
M1791 -110q19 0 19 -24q0 -18 -16.5 -40.5t-44 -43t-64.5 -34.5t-78 -14q-50 0 -91.5 16t-71 46t-45.5 73.5t-16 97.5q0 49 19 93t53.5 77.5t82.5 54.5t107 25l48 83h-162q-58 -56 -116 -109.5t-117.5 -102t-122.5 -90.5t-130 -75q19 -92 61.5 -167.5t106 -129.5t148 -83.5
t187.5 -29.5q91 0 168.5 28.5t134.5 79t89.5 120t32.5 150.5q0 68 -20.5 123t-57.5 94.5t-87 62.5t-109 27l-99 -174h134v-24h-287v24h85l101 173q-52 -7 -94.5 -27.5t-73 -51t-47 -69.5t-16.5 -82q0 -100 56 -157t152 -57q78 0 131 55q8 9 13.5 22t8.5 26q3 14 9.5 24
t18.5 10zM2082 770q-60 26 -136.5 40.5t-158.5 14.5q-99 0 -193 -25t-178.5 -71t-155.5 -112t-122 -147.5t-80 -177.5t-29 -202q0 -35 3 -69t8 -66q98 50 186.5 118.5t172 145.5t164.5 157t164 154t170.5 136.5t184.5 103.5zM2293 668q20 5 34 5q33 0 49.5 -13t16.5 -27
q0 -8 -7.5 -16t-26.5 -8q-18 0 -37 13.5t-36 27.5q-20 -9 -32.5 -21.5t-20 -27t-10.5 -28.5t-3 -25q0 -29 11.5 -53t31.5 -41t45.5 -26.5t54.5 -9.5q43 0 77 14.5t57 39.5t35 58.5t12 71.5q0 46 -20.5 81.5t-54.5 60t-79 37t-93 12.5q-38 0 -81.5 -6.5t-77.5 -19.5
q35 -19 77.5 -44.5t77.5 -54.5zM1707 323l177 303q-87 -63 -167.5 -141t-162.5 -162h153zM2305 656q11 -9 26 -20.5t29 -11.5q16 0 16 10q0 11 -14.5 17.5t-33.5 7.5q-13 0 -23 -3zM2187 892q8 -5 8 -12q0 -5 -3.5 -7.5t-7.5 -2.5q-1 0 -9 2q-63 23 -116.5 54t-107.5 65
q-12 8 -19 16.5t-7 21.5q0 11 7.5 19t21.5 8q6 0 14 -2t11 -6q29 -36 54.5 -60.5t50 -41.5t49.5 -29.5t54 -24.5z" />
    <glyph glyph-name="Aacute" unicode="&#xc1;" horiz-adv-x="1797" 
d="M2108 783q45 14 89.5 21.5t95.5 7.5q58 0 108 -14t86.5 -41t57 -66t20.5 -90q0 -36 -12 -72t-37 -64.5t-62.5 -46t-89.5 -17.5q-31 0 -60.5 10t-52 29t-36.5 46t-14 62q0 30 17 63t55 50q-36 29 -78.5 53t-82.5 42q-34 -11 -67 -29.5t-65 -36.5l-270 -473
q61 -6 113.5 -31t90 -66.5t59 -99t21.5 -129.5q0 -83 -32 -155.5t-90.5 -126t-141 -84.5t-182.5 -31q-112 0 -200 31.5t-153 87.5t-107 133t-61 168q-88 -40 -183 -63t-206 -23q-110 0 -209 35t-175 102.5t-120.5 167.5t-44.5 230q0 110 39.5 198t107.5 149t158 93.5
t192 32.5q91 0 163.5 -28.5t122.5 -78t76.5 -115t26.5 -139.5q0 -71 -26.5 -132t-72 -106t-107.5 -70.5t-132 -25.5q-53 0 -97 16t-75.5 45t-49.5 69.5t-18 90.5q0 34 13 65.5t36.5 55.5t57.5 38.5t76 14.5q33 0 60 -11.5t45.5 -32t29 -48.5t10.5 -60q0 -20 -8 -31.5
t-21 -11.5q-19 0 -19 25q0 8 2.5 15.5t5.5 15.5t6 16.5t3 17.5q-11 38 -41.5 63.5t-72.5 25.5q-36 0 -66.5 -12.5t-52 -34t-33.5 -51t-12 -62.5q0 -45 16 -82t45.5 -63.5t70.5 -41t92 -14.5q55 0 111.5 21.5t101.5 62t73.5 99t28.5 132.5q0 66 -22.5 128t-68.5 110
t-116 77.5t-164 29.5q-105 0 -192.5 -33.5t-150 -93.5t-97.5 -144t-35 -185q0 -123 41 -217.5t112.5 -158t168.5 -96.5t209 -34q106 -1 200 23t181 66q-12 69 -12 144q0 116 31.5 217t86.5 184.5t130 149.5t161 111t180 68.5t188 23.5q88 0 167.5 -14.5t154.5 -46.5z
M1791 -110q19 0 19 -24q0 -18 -16.5 -40.5t-44 -43t-64.5 -34.5t-78 -14q-50 0 -91.5 16t-71 46t-45.5 73.5t-16 97.5q0 49 19 93t53.5 77.5t82.5 54.5t107 25l48 83h-162q-58 -56 -116 -109.5t-117.5 -102t-122.5 -90.5t-130 -75q19 -92 61.5 -167.5t106 -129.5t148 -83.5
t187.5 -29.5q91 0 168.5 28.5t134.5 79t89.5 120t32.5 150.5q0 68 -20.5 123t-57.5 94.5t-87 62.5t-109 27l-99 -174h134v-24h-287v24h85l101 173q-52 -7 -94.5 -27.5t-73 -51t-47 -69.5t-16.5 -82q0 -100 56 -157t152 -57q78 0 131 55q8 9 13.5 22t8.5 26q3 14 9.5 24
t18.5 10zM2082 770q-60 26 -136.5 40.5t-158.5 14.5q-99 0 -193 -25t-178.5 -71t-155.5 -112t-122 -147.5t-80 -177.5t-29 -202q0 -35 3 -69t8 -66q98 50 186.5 118.5t172 145.5t164.5 157t164 154t170.5 136.5t184.5 103.5zM2293 668q20 5 34 5q33 0 49.5 -13t16.5 -27
q0 -8 -7.5 -16t-26.5 -8q-18 0 -37 13.5t-36 27.5q-20 -9 -32.5 -21.5t-20 -27t-10.5 -28.5t-3 -25q0 -29 11.5 -53t31.5 -41t45.5 -26.5t54.5 -9.5q43 0 77 14.5t57 39.5t35 58.5t12 71.5q0 46 -20.5 81.5t-54.5 60t-79 37t-93 12.5q-38 0 -81.5 -6.5t-77.5 -19.5
q35 -19 77.5 -44.5t77.5 -54.5zM1707 323l177 303q-87 -63 -167.5 -141t-162.5 -162h153zM2305 656q11 -9 26 -20.5t29 -11.5q16 0 16 10q0 11 -14.5 17.5t-33.5 7.5q-13 0 -23 -3zM1977 909q28 12 53 24.5t50 30t50.5 41.5t54.5 60q3 4 11 6t14 2q14 0 21.5 -8t7.5 -19
q0 -13 -7 -21.5t-19 -16.5q-54 -34 -107.5 -65t-116.5 -54q-8 -2 -9 -2q-4 0 -7.5 2.5t-3.5 7.5q0 7 8 12z" />
    <glyph glyph-name="Acircumflex" unicode="&#xc2;" horiz-adv-x="1797" 
d="M2108 783q45 14 89.5 21.5t95.5 7.5q58 0 108 -14t86.5 -41t57 -66t20.5 -90q0 -36 -12 -72t-37 -64.5t-62.5 -46t-89.5 -17.5q-31 0 -60.5 10t-52 29t-36.5 46t-14 62q0 30 17 63t55 50q-36 29 -78.5 53t-82.5 42q-34 -11 -67 -29.5t-65 -36.5l-270 -473
q61 -6 113.5 -31t90 -66.5t59 -99t21.5 -129.5q0 -83 -32 -155.5t-90.5 -126t-141 -84.5t-182.5 -31q-112 0 -200 31.5t-153 87.5t-107 133t-61 168q-88 -40 -183 -63t-206 -23q-110 0 -209 35t-175 102.5t-120.5 167.5t-44.5 230q0 110 39.5 198t107.5 149t158 93.5
t192 32.5q91 0 163.5 -28.5t122.5 -78t76.5 -115t26.5 -139.5q0 -71 -26.5 -132t-72 -106t-107.5 -70.5t-132 -25.5q-53 0 -97 16t-75.5 45t-49.5 69.5t-18 90.5q0 34 13 65.5t36.5 55.5t57.5 38.5t76 14.5q33 0 60 -11.5t45.5 -32t29 -48.5t10.5 -60q0 -20 -8 -31.5
t-21 -11.5q-19 0 -19 25q0 8 2.5 15.5t5.5 15.5t6 16.5t3 17.5q-11 38 -41.5 63.5t-72.5 25.5q-36 0 -66.5 -12.5t-52 -34t-33.5 -51t-12 -62.5q0 -45 16 -82t45.5 -63.5t70.5 -41t92 -14.5q55 0 111.5 21.5t101.5 62t73.5 99t28.5 132.5q0 66 -22.5 128t-68.5 110
t-116 77.5t-164 29.5q-105 0 -192.5 -33.5t-150 -93.5t-97.5 -144t-35 -185q0 -123 41 -217.5t112.5 -158t168.5 -96.5t209 -34q106 -1 200 23t181 66q-12 69 -12 144q0 116 31.5 217t86.5 184.5t130 149.5t161 111t180 68.5t188 23.5q88 0 167.5 -14.5t154.5 -46.5z
M1791 -110q19 0 19 -24q0 -18 -16.5 -40.5t-44 -43t-64.5 -34.5t-78 -14q-50 0 -91.5 16t-71 46t-45.5 73.5t-16 97.5q0 49 19 93t53.5 77.5t82.5 54.5t107 25l48 83h-162q-58 -56 -116 -109.5t-117.5 -102t-122.5 -90.5t-130 -75q19 -92 61.5 -167.5t106 -129.5t148 -83.5
t187.5 -29.5q91 0 168.5 28.5t134.5 79t89.5 120t32.5 150.5q0 68 -20.5 123t-57.5 94.5t-87 62.5t-109 27l-99 -174h134v-24h-287v24h85l101 173q-52 -7 -94.5 -27.5t-73 -51t-47 -69.5t-16.5 -82q0 -100 56 -157t152 -57q78 0 131 55q8 9 13.5 22t8.5 26q3 14 9.5 24
t18.5 10zM2082 770q-60 26 -136.5 40.5t-158.5 14.5q-99 0 -193 -25t-178.5 -71t-155.5 -112t-122 -147.5t-80 -177.5t-29 -202q0 -35 3 -69t8 -66q98 50 186.5 118.5t172 145.5t164.5 157t164 154t170.5 136.5t184.5 103.5zM2293 668q20 5 34 5q33 0 49.5 -13t16.5 -27
q0 -8 -7.5 -16t-26.5 -8q-18 0 -37 13.5t-36 27.5q-20 -9 -32.5 -21.5t-20 -27t-10.5 -28.5t-3 -25q0 -29 11.5 -53t31.5 -41t45.5 -26.5t54.5 -9.5q43 0 77 14.5t57 39.5t35 58.5t12 71.5q0 46 -20.5 81.5t-54.5 60t-79 37t-93 12.5q-38 0 -81.5 -6.5t-77.5 -19.5
q35 -19 77.5 -44.5t77.5 -54.5zM1707 323l177 303q-87 -63 -167.5 -141t-162.5 -162h153zM2305 656q11 -9 26 -20.5t29 -11.5q16 0 16 10q0 11 -14.5 17.5t-33.5 7.5q-13 0 -23 -3zM2161 1107q-3 -22 0.5 -51.5t13.5 -56t27.5 -45t43.5 -18.5q2 -8 2 -10q0 -14 -12 -24
t-29 -10q-30 0 -48.5 19t-28.5 46t-13 57.5t-3 53.5q-51 -57 -106.5 -96.5t-116.5 -64.5l-4 20q72 28 127.5 72.5t106.5 107.5h40z" />
    <glyph glyph-name="Atilde" unicode="&#xc3;" horiz-adv-x="1801" 
d="M2108 783q45 14 89.5 21.5t95.5 7.5q58 0 108 -14t86.5 -41t57 -66t20.5 -90q0 -36 -12 -72t-37 -64.5t-62.5 -46t-89.5 -17.5q-31 0 -60.5 10t-52 29t-36.5 46t-14 62q0 30 17 63t55 50q-36 29 -78.5 53t-82.5 42q-34 -11 -67 -29.5t-65 -36.5l-270 -473
q61 -6 113.5 -31t90 -66.5t59 -99t21.5 -129.5q0 -83 -32 -155.5t-90.5 -126t-141 -84.5t-182.5 -31q-112 0 -200 31.5t-153 87.5t-107 133t-61 168q-88 -40 -183 -63t-206 -23q-110 0 -209 35t-175 102.5t-120.5 167.5t-44.5 230q0 110 39.5 198t107.5 149t158 93.5
t192 32.5q91 0 163.5 -28.5t122.5 -78t76.5 -115t26.5 -139.5q0 -71 -26.5 -132t-72 -106t-107.5 -70.5t-132 -25.5q-53 0 -97 16t-75.5 45t-49.5 69.5t-18 90.5q0 34 13 65.5t36.5 55.5t57.5 38.5t76 14.5q33 0 60 -11.5t45.5 -32t29 -48.5t10.5 -60q0 -20 -8 -31.5
t-21 -11.5q-19 0 -19 25q0 8 2.5 15.5t5.5 15.5t6 16.5t3 17.5q-11 38 -41.5 63.5t-72.5 25.5q-36 0 -66.5 -12.5t-52 -34t-33.5 -51t-12 -62.5q0 -45 16 -82t45.5 -63.5t70.5 -41t92 -14.5q55 0 111.5 21.5t101.5 62t73.5 99t28.5 132.5q0 66 -22.5 128t-68.5 110
t-116 77.5t-164 29.5q-105 0 -192.5 -33.5t-150 -93.5t-97.5 -144t-35 -185q0 -123 41 -217.5t112.5 -158t168.5 -96.5t209 -34q106 -1 200 23t181 66q-12 69 -12 144q0 116 31.5 217t86.5 184.5t130 149.5t161 111t180 68.5t188 23.5q88 0 167.5 -14.5t154.5 -46.5z
M1791 -110q19 0 19 -24q0 -18 -16.5 -40.5t-44 -43t-64.5 -34.5t-78 -14q-50 0 -91.5 16t-71 46t-45.5 73.5t-16 97.5q0 49 19 93t53.5 77.5t82.5 54.5t107 25l48 83h-162q-58 -56 -116 -109.5t-117.5 -102t-122.5 -90.5t-130 -75q19 -92 61.5 -167.5t106 -129.5t148 -83.5
t187.5 -29.5q91 0 168.5 28.5t134.5 79t89.5 120t32.5 150.5q0 68 -20.5 123t-57.5 94.5t-87 62.5t-109 27l-99 -174h134v-24h-287v24h85l101 173q-52 -7 -94.5 -27.5t-73 -51t-47 -69.5t-16.5 -82q0 -100 56 -157t152 -57q78 0 131 55q8 9 13.5 22t8.5 26q3 14 9.5 24
t18.5 10zM2082 770q-60 26 -136.5 40.5t-158.5 14.5q-99 0 -193 -25t-178.5 -71t-155.5 -112t-122 -147.5t-80 -177.5t-29 -202q0 -35 3 -69t8 -66q98 50 186.5 118.5t172 145.5t164.5 157t164 154t170.5 136.5t184.5 103.5zM2293 668q20 5 34 5q33 0 49.5 -13t16.5 -27
q0 -8 -7.5 -16t-26.5 -8q-18 0 -37 13.5t-36 27.5q-20 -9 -32.5 -21.5t-20 -27t-10.5 -28.5t-3 -25q0 -29 11.5 -53t31.5 -41t45.5 -26.5t54.5 -9.5q43 0 77 14.5t57 39.5t35 58.5t12 71.5q0 46 -20.5 81.5t-54.5 60t-79 37t-93 12.5q-38 0 -81.5 -6.5t-77.5 -19.5
q35 -19 77.5 -44.5t77.5 -54.5zM1707 323l177 303q-87 -63 -167.5 -141t-162.5 -162h153zM2305 656q11 -9 26 -20.5t29 -11.5q16 0 16 10q0 11 -14.5 17.5t-33.5 7.5q-13 0 -23 -3zM1950 952q13 29 39 46.5t56 17.5q18 0 35 -8.5t33.5 -18.5t33.5 -18.5t36 -8.5
q26 0 41 11.5t27 36.5l18 -9q-14 -32 -39 -51.5t-58 -19.5q-18 0 -35.5 8.5t-34.5 19t-33.5 19t-32.5 8.5q-22 0 -40 -9t-29 -32z" />
    <glyph glyph-name="Adieresis" unicode="&#xc4;" horiz-adv-x="1801" 
d="M2108 783q45 14 89.5 21.5t95.5 7.5q58 0 108 -14t86.5 -41t57 -66t20.5 -90q0 -36 -12 -72t-37 -64.5t-62.5 -46t-89.5 -17.5q-31 0 -60.5 10t-52 29t-36.5 46t-14 62q0 30 17 63t55 50q-36 29 -78.5 53t-82.5 42q-34 -11 -67 -29.5t-65 -36.5l-270 -473
q61 -6 113.5 -31t90 -66.5t59 -99t21.5 -129.5q0 -83 -32 -155.5t-90.5 -126t-141 -84.5t-182.5 -31q-112 0 -200 31.5t-153 87.5t-107 133t-61 168q-88 -40 -183 -63t-206 -23q-110 0 -209 35t-175 102.5t-120.5 167.5t-44.5 230q0 110 39.5 198t107.5 149t158 93.5
t192 32.5q91 0 163.5 -28.5t122.5 -78t76.5 -115t26.5 -139.5q0 -71 -26.5 -132t-72 -106t-107.5 -70.5t-132 -25.5q-53 0 -97 16t-75.5 45t-49.5 69.5t-18 90.5q0 34 13 65.5t36.5 55.5t57.5 38.5t76 14.5q33 0 60 -11.5t45.5 -32t29 -48.5t10.5 -60q0 -20 -8 -31.5
t-21 -11.5q-19 0 -19 25q0 8 2.5 15.5t5.5 15.5t6 16.5t3 17.5q-11 38 -41.5 63.5t-72.5 25.5q-36 0 -66.5 -12.5t-52 -34t-33.5 -51t-12 -62.5q0 -45 16 -82t45.5 -63.5t70.5 -41t92 -14.5q55 0 111.5 21.5t101.5 62t73.5 99t28.5 132.5q0 66 -22.5 128t-68.5 110
t-116 77.5t-164 29.5q-105 0 -192.5 -33.5t-150 -93.5t-97.5 -144t-35 -185q0 -123 41 -217.5t112.5 -158t168.5 -96.5t209 -34q106 -1 200 23t181 66q-12 69 -12 144q0 116 31.5 217t86.5 184.5t130 149.5t161 111t180 68.5t188 23.5q88 0 167.5 -14.5t154.5 -46.5z
M1791 -110q19 0 19 -24q0 -18 -16.5 -40.5t-44 -43t-64.5 -34.5t-78 -14q-50 0 -91.5 16t-71 46t-45.5 73.5t-16 97.5q0 49 19 93t53.5 77.5t82.5 54.5t107 25l48 83h-162q-58 -56 -116 -109.5t-117.5 -102t-122.5 -90.5t-130 -75q19 -92 61.5 -167.5t106 -129.5t148 -83.5
t187.5 -29.5q91 0 168.5 28.5t134.5 79t89.5 120t32.5 150.5q0 68 -20.5 123t-57.5 94.5t-87 62.5t-109 27l-99 -174h134v-24h-287v24h85l101 173q-52 -7 -94.5 -27.5t-73 -51t-47 -69.5t-16.5 -82q0 -100 56 -157t152 -57q78 0 131 55q8 9 13.5 22t8.5 26q3 14 9.5 24
t18.5 10zM2082 770q-60 26 -136.5 40.5t-158.5 14.5q-99 0 -193 -25t-178.5 -71t-155.5 -112t-122 -147.5t-80 -177.5t-29 -202q0 -35 3 -69t8 -66q98 50 186.5 118.5t172 145.5t164.5 157t164 154t170.5 136.5t184.5 103.5zM2293 668q20 5 34 5q33 0 49.5 -13t16.5 -27
q0 -8 -7.5 -16t-26.5 -8q-18 0 -37 13.5t-36 27.5q-20 -9 -32.5 -21.5t-20 -27t-10.5 -28.5t-3 -25q0 -29 11.5 -53t31.5 -41t45.5 -26.5t54.5 -9.5q43 0 77 14.5t57 39.5t35 58.5t12 71.5q0 46 -20.5 81.5t-54.5 60t-79 37t-93 12.5q-38 0 -81.5 -6.5t-77.5 -19.5
q35 -19 77.5 -44.5t77.5 -54.5zM1707 323l177 303q-87 -63 -167.5 -141t-162.5 -162h153zM2305 656q11 -9 26 -20.5t29 -11.5q16 0 16 10q0 11 -14.5 17.5t-33.5 7.5q-13 0 -23 -3zM1967 935q-7 6 -11.5 15t-4.5 21q0 14 10.5 24.5t25.5 10.5q13 0 23.5 -9.5t10.5 -25.5
q0 -17 -12 -28.5t-28 -18.5l-17 -7l-6 9zM2110 935q-7 6 -11.5 15t-4.5 21q0 14 10.5 24.5t25.5 10.5q13 0 23.5 -9.5t10.5 -25.5q0 -17 -12 -28.5t-28 -18.5l-17 -7l-6 9z" />
    <glyph glyph-name="Aring" unicode="&#xc5;" horiz-adv-x="1797" 
d="M2108 783q45 14 89.5 21.5t95.5 7.5q58 0 108 -14t86.5 -41t57 -66t20.5 -90q0 -36 -12 -72t-37 -64.5t-62.5 -46t-89.5 -17.5q-31 0 -60.5 10t-52 29t-36.5 46t-14 62q0 30 17 63t55 50q-36 29 -78.5 53t-82.5 42q-34 -11 -67 -29.5t-65 -36.5l-270 -473
q61 -6 113.5 -31t90 -66.5t59 -99t21.5 -129.5q0 -83 -32 -155.5t-90.5 -126t-141 -84.5t-182.5 -31q-112 0 -200 31.5t-153 87.5t-107 133t-61 168q-88 -40 -183 -63t-206 -23q-110 0 -209 35t-175 102.5t-120.5 167.5t-44.5 230q0 110 39.5 198t107.5 149t158 93.5
t192 32.5q91 0 163.5 -28.5t122.5 -78t76.5 -115t26.5 -139.5q0 -71 -26.5 -132t-72 -106t-107.5 -70.5t-132 -25.5q-53 0 -97 16t-75.5 45t-49.5 69.5t-18 90.5q0 34 13 65.5t36.5 55.5t57.5 38.5t76 14.5q33 0 60 -11.5t45.5 -32t29 -48.5t10.5 -60q0 -20 -8 -31.5
t-21 -11.5q-19 0 -19 25q0 8 2.5 15.5t5.5 15.5t6 16.5t3 17.5q-11 38 -41.5 63.5t-72.5 25.5q-36 0 -66.5 -12.5t-52 -34t-33.5 -51t-12 -62.5q0 -45 16 -82t45.5 -63.5t70.5 -41t92 -14.5q55 0 111.5 21.5t101.5 62t73.5 99t28.5 132.5q0 66 -22.5 128t-68.5 110
t-116 77.5t-164 29.5q-105 0 -192.5 -33.5t-150 -93.5t-97.5 -144t-35 -185q0 -123 41 -217.5t112.5 -158t168.5 -96.5t209 -34q106 -1 200 23t181 66q-12 69 -12 144q0 116 31.5 217t86.5 184.5t130 149.5t161 111t180 68.5t188 23.5q88 0 167.5 -14.5t154.5 -46.5z
M1791 -110q19 0 19 -24q0 -18 -16.5 -40.5t-44 -43t-64.5 -34.5t-78 -14q-50 0 -91.5 16t-71 46t-45.5 73.5t-16 97.5q0 49 19 93t53.5 77.5t82.5 54.5t107 25l48 83h-162q-58 -56 -116 -109.5t-117.5 -102t-122.5 -90.5t-130 -75q19 -92 61.5 -167.5t106 -129.5t148 -83.5
t187.5 -29.5q91 0 168.5 28.5t134.5 79t89.5 120t32.5 150.5q0 68 -20.5 123t-57.5 94.5t-87 62.5t-109 27l-99 -174h134v-24h-287v24h85l101 173q-52 -7 -94.5 -27.5t-73 -51t-47 -69.5t-16.5 -82q0 -100 56 -157t152 -57q78 0 131 55q8 9 13.5 22t8.5 26q3 14 9.5 24
t18.5 10zM2082 770q-60 26 -136.5 40.5t-158.5 14.5q-99 0 -193 -25t-178.5 -71t-155.5 -112t-122 -147.5t-80 -177.5t-29 -202q0 -35 3 -69t8 -66q98 50 186.5 118.5t172 145.5t164.5 157t164 154t170.5 136.5t184.5 103.5zM2293 668q20 5 34 5q33 0 49.5 -13t16.5 -27
q0 -8 -7.5 -16t-26.5 -8q-18 0 -37 13.5t-36 27.5q-20 -9 -32.5 -21.5t-20 -27t-10.5 -28.5t-3 -25q0 -29 11.5 -53t31.5 -41t45.5 -26.5t54.5 -9.5q43 0 77 14.5t57 39.5t35 58.5t12 71.5q0 46 -20.5 81.5t-54.5 60t-79 37t-93 12.5q-38 0 -81.5 -6.5t-77.5 -19.5
q35 -19 77.5 -44.5t77.5 -54.5zM1707 323l177 303q-87 -63 -167.5 -141t-162.5 -162h153zM2305 656q11 -9 26 -20.5t29 -11.5q16 0 16 10q0 11 -14.5 17.5t-33.5 7.5q-13 0 -23 -3zM2140 1077q26 0 36.5 -15.5t10.5 -39.5q0 -20 -10.5 -39.5t-28 -34.5t-40 -24.5t-46.5 -9.5
q-26 0 -38.5 13.5t-12.5 33.5q0 22 11.5 43t30.5 37t41.5 26t45.5 10zM2118 1055q-12 0 -24 -7t-21.5 -18.5t-15.5 -27t-6 -31.5t7 -26t21 -10q24 0 45.5 24t21.5 60q0 15 -7 25.5t-21 10.5z" />
    <glyph glyph-name="AE" unicode="&#xc6;" horiz-adv-x="2007" 
d="M2108 783q45 14 89.5 21.5t95.5 7.5q58 0 108 -14t86.5 -41t57 -66t20.5 -90q0 -36 -12 -72t-37 -64.5t-62.5 -46t-89.5 -17.5q-31 0 -60.5 10t-52 29t-36.5 46t-14 62q0 30 17 63t55 50q-36 29 -78.5 53t-82.5 42q-34 -11 -67 -29.5t-65 -36.5l-6 -10h267l-113 -197h-28
l59 103q7 11 7 27q0 17 -9.5 32t-35.5 15h-155l-153 -270h62q21 0 37.5 2t31.5 9.5t28.5 22t27.5 39.5l13 22h28l-142 -248h-28l34 59q3 6 6 14t3 16q0 17 -10.5 30.5t-36.5 13.5h-65l-91 -153q70 -7 126.5 -38t94.5 -83q7 8 14 17.5t14 21.5l47 84h28l-84 -152
q20 -37 31.5 -80.5t11.5 -95.5q0 -83 -32 -155.5t-90.5 -126t-141 -84.5t-182.5 -31q-112 0 -200 31.5t-153 87.5t-107 133t-61 168q-88 -40 -183 -63t-206 -23q-110 0 -209 35t-175 102.5t-120.5 167.5t-44.5 230q0 110 39.5 198t107.5 149t158 93.5t192 32.5
q91 0 163.5 -28.5t122.5 -78t76.5 -115t26.5 -139.5q0 -71 -26.5 -132t-72 -106t-107.5 -70.5t-132 -25.5q-53 0 -97 16t-75.5 45t-49.5 69.5t-18 90.5q0 34 13 65.5t36.5 55.5t57.5 38.5t76 14.5q33 0 60 -11.5t45.5 -32t29 -48.5t10.5 -60q0 -20 -8 -31.5t-21 -11.5
q-19 0 -19 25q0 8 2.5 15.5t5.5 15.5t6 16.5t3 17.5q-11 38 -41.5 63.5t-72.5 25.5q-36 0 -66.5 -12.5t-52 -34t-33.5 -51t-12 -62.5q0 -45 16 -82t45.5 -63.5t70.5 -41t92 -14.5q55 0 111.5 21.5t101.5 62t73.5 99t28.5 132.5q0 66 -22.5 128t-68.5 110t-116 77.5
t-164 29.5q-105 0 -192.5 -33.5t-150 -93.5t-97.5 -144t-35 -185q0 -123 41 -217.5t112.5 -158t168.5 -96.5t209 -34q106 -1 200 23t181 66q-12 69 -12 144q0 116 31.5 217t86.5 184.5t130 149.5t161 111t180 68.5t188 23.5q88 0 167.5 -14.5t154.5 -46.5zM1791 -110
q19 0 19 -24q0 -18 -16.5 -40.5t-44 -43t-64.5 -34.5t-78 -14q-50 0 -91.5 16t-71 46t-45.5 73.5t-16 97.5q0 49 19 93t53.5 77.5t82.5 54.5t106 25l49 83h-162q-58 -56 -116 -109.5t-117.5 -102t-122.5 -90.5t-130 -75q19 -92 61.5 -167.5t106 -129.5t148 -83.5
t187.5 -29.5q91 0 168.5 28.5t134.5 79t89.5 120t32.5 150.5q0 89 -35 154l-25 -45h-489l5 20h101l103 177q-52 -7 -94.5 -27.5t-73 -51t-47 -69.5t-16.5 -82q0 -100 56 -157t152 -57q78 0 131 55q8 9 13.5 22t8.5 26q3 14 9.5 24t18.5 10zM2082 770q-60 26 -136.5 40.5
t-158.5 14.5q-99 0 -193 -25t-178.5 -71t-155.5 -112t-122 -147.5t-80 -177.5t-29 -202q0 -35 3 -69t8 -66q98 50 186.5 118.5t172 145.5t164.5 157t164 154t170.5 136.5t184.5 103.5zM2293 668q20 5 34 5q33 0 49.5 -13t16.5 -27q0 -8 -7.5 -16t-26.5 -8q-18 0 -37 13.5
t-36 27.5q-20 -9 -32.5 -21.5t-20 -27t-10.5 -28.5t-3 -25q0 -29 11.5 -53t31.5 -41t45.5 -26.5t54.5 -9.5q43 0 77 14.5t57 39.5t35 58.5t12 71.5q0 46 -20.5 81.5t-54.5 60t-79 37t-93 12.5q-38 0 -81.5 -6.5t-77.5 -19.5q35 -19 77.5 -44.5t77.5 -54.5zM1724 20
q61 0 109 12.5t85 47.5q-37 52 -93 82.5t-125 35.5l-31 -53l-71 -125h126zM1706 323l175 300q-85 -63 -165.5 -140.5t-161.5 -159.5h152zM2305 656q11 -9 26 -20.5t29 -11.5q16 0 16 10q0 11 -14.5 17.5t-33.5 7.5q-13 0 -23 -3z" />
    <glyph glyph-name="Ccedilla" unicode="&#xc7;" horiz-adv-x="827" 
d="M739 101q0 34 -12.5 64t-34 52t-51.5 35t-64 13q-31 0 -60.5 -12t-53 -31t-37.5 -42.5t-14 -46.5q0 -15 5.5 -25.5t11.5 -19t11.5 -16t5.5 -17.5q0 -20 -20 -20q-9 0 -16.5 6.5t-12.5 17t-8 22.5t-3 24q0 36 16 68t42.5 56t61 38t71.5 14q42 0 75.5 -15.5t57.5 -40.5
t36.5 -57t12.5 -65q0 -54 -23 -108.5t-67 -98t-109 -71t-150 -27.5h-2q-14 -7 -26 -16.5t-12 -22.5q0 -9 12 -17.5t27 -19t27 -23.5t12 -31q0 -23 -15 -43.5t-38 -36.5t-52 -25.5t-56 -9.5q-29 0 -48 10l6 14q24 -8 43 -8q22 0 42 7t35.5 19.5t24.5 29t9 36.5q0 13 -11.5 22
t-25 18t-24.5 20.5t-11 28.5q0 16 13 28.5t31 21.5q-67 6 -119 34t-87 71.5t-53.5 99.5t-18.5 119q-1 74 22 144.5t62 134.5t90 120t106 101v16q0 62 24 114t64 89.5t91 58.5t104 21q85 0 141 -34t84 -89q75 -11 119.5 -51t44.5 -112q0 -65 -30 -118.5t-80 -91.5t-115.5 -59
t-135.5 -21q-57 0 -107.5 15.5t-90 44t-67 70t-39.5 93.5q-46 -42 -88 -93t-73.5 -109t-50 -120.5t-18.5 -126.5q0 -55 15.5 -108t48.5 -95t84 -67.5t122 -25.5q85 0 145.5 27t99 68t56.5 89.5t18 91.5zM871 774q-11 2 -25 2.5t-23 0.5q-53 0 -107.5 -14.5t-109 -40
t-107 -60t-101.5 -75.5q8 -47 31.5 -88t60.5 -71.5t86 -48t108 -17.5q70 0 132 20.5t108 57t73 87t27 110.5q0 48 -32.5 86t-98.5 48q8 -21 11 -42t3 -41q0 -50 -14.5 -90.5t-41 -69t-63 -44.5t-79.5 -16q-29 0 -53 9t-40.5 24.5t-25.5 36.5t-9 45q0 51 26.5 84.5t68.5 43.5
q24 5 25 -10q0 -12 -20.5 -20.5t-43.5 -14.5q-23 -16 -32 -38.5t-8 -43.5q2 -49 34 -75t80 -26q36 0 68.5 13t57 39t38.5 64.5t14 89.5q0 23 -5 44t-13 41zM858 802q-26 48 -78 76.5t-125 28.5q-45 0 -91 -17.5t-83.5 -51t-62 -83.5t-25.5 -114q49 36 101.5 65.5t107.5 51.5
t111 34t112 12q5 0 16.5 -0.5t16.5 -1.5z" />
    <glyph glyph-name="Egrave" unicode="&#xc8;" horiz-adv-x="1188" 
d="M1033 613q0 -43 28 -67t73 -24q34 0 60 13t42.5 34.5t25 48.5t8.5 56q0 43 -16.5 76.5t-43.5 56t-61 34.5t-70 12q-60 0 -107 -20.5t-80 -56t-50 -83t-17 -102.5q0 -21 3.5 -50t13.5 -49q11 1 18 1h16q65 0 126.5 -9.5t109.5 -28.5t77 -47.5t29 -67.5q0 -11 -6 -22
t-19.5 -20t-35.5 -14.5t-55 -5.5q-59 0 -109 15t-90 41t-69 61t-47 75q-143 -11 -256.5 -64t-193 -136t-121.5 -189t-42 -223t34.5 -212.5t100.5 -163t161 -104t215 -36.5q99 0 185.5 33.5t150.5 90t100.5 129.5t36.5 151q0 69 -21.5 126t-61 97.5t-94.5 62.5t-122 22
q-57 0 -107.5 -17.5t-87.5 -49t-58.5 -75.5t-21.5 -97q0 -50 15 -89t42.5 -66.5t65.5 -42t85 -14.5q43 0 79 17t60 45q14 17 17 47q2 14 7 23t18 9q20 0 20 -24q0 -18 -16.5 -41.5t-44.5 -44.5t-65 -35.5t-78 -14.5q-48 0 -89 15.5t-71.5 44.5t-48 72t-17.5 97
q0 55 22 102.5t61.5 82.5t93.5 55.5t119 20.5q68 0 127 -22.5t102.5 -64.5t68.5 -103t25 -137q0 -83 -38.5 -161t-106 -138t-159.5 -96.5t-199 -36.5q-129 0 -232.5 37.5t-176.5 107t-112 169.5t-39 226q0 136 52 247.5t141.5 193.5t210 131.5t257.5 61.5q-8 22 -12.5 49
t-4.5 47q0 61 22 113.5t63 90.5t99 60t130 22q47 0 86 -16t67.5 -43t44 -62t15.5 -74q0 -44 -14 -76t-36.5 -53t-50 -31t-55.5 -10q-22 0 -43 6t-38 19.5t-27.5 33.5t-10.5 49q0 21 8 39t20.5 30.5t29.5 19.5t35 7q33 0 52 -13.5t19 -31.5q0 -19 -18 -19q-11 0 -16 7t-10 17
q-4 8 -11.5 15.5t-18.5 7.5q-12 0 -24.5 -5t-23 -15t-17.5 -25t-7 -35zM893 474h-9t-13 -0.5t-13 -0.5h-9q15 -35 39.5 -65.5t57 -53.5t72.5 -36.5t86 -13.5q27 0 44.5 4t27.5 9.5t14 12t4 12.5q0 37 -32.5 62.5t-79 41t-98.5 22t-91 6.5zM1283 947q8 -5 8 -12
q0 -5 -3.5 -7.5t-7.5 -2.5q-1 0 -9 2q-63 23 -116.5 54t-107.5 65q-12 8 -19 16.5t-7 21.5q0 11 7.5 19t21.5 8q6 0 14 -2t11 -6q29 -36 54.5 -60.5t50 -41.5t49.5 -29.5t54 -24.5z" />
    <glyph glyph-name="Eacute" unicode="&#xc9;" horiz-adv-x="1188" 
d="M1033 613q0 -43 28 -67t73 -24q34 0 60 13t42.5 34.5t25 48.5t8.5 56q0 43 -16.5 76.5t-43.5 56t-61 34.5t-70 12q-60 0 -107 -20.5t-80 -56t-50 -83t-17 -102.5q0 -21 3.5 -50t13.5 -49q11 1 18 1h16q65 0 126.5 -9.5t109.5 -28.5t77 -47.5t29 -67.5q0 -11 -6 -22
t-19.5 -20t-35.5 -14.5t-55 -5.5q-59 0 -109 15t-90 41t-69 61t-47 75q-143 -11 -256.5 -64t-193 -136t-121.5 -189t-42 -223t34.5 -212.5t100.5 -163t161 -104t215 -36.5q99 0 185.5 33.5t150.5 90t100.5 129.5t36.5 151q0 69 -21.5 126t-61 97.5t-94.5 62.5t-122 22
q-57 0 -107.5 -17.5t-87.5 -49t-58.5 -75.5t-21.5 -97q0 -50 15 -89t42.5 -66.5t65.5 -42t85 -14.5q43 0 79 17t60 45q14 17 17 47q2 14 7 23t18 9q20 0 20 -24q0 -18 -16.5 -41.5t-44.5 -44.5t-65 -35.5t-78 -14.5q-48 0 -89 15.5t-71.5 44.5t-48 72t-17.5 97
q0 55 22 102.5t61.5 82.5t93.5 55.5t119 20.5q68 0 127 -22.5t102.5 -64.5t68.5 -103t25 -137q0 -83 -38.5 -161t-106 -138t-159.5 -96.5t-199 -36.5q-129 0 -232.5 37.5t-176.5 107t-112 169.5t-39 226q0 136 52 247.5t141.5 193.5t210 131.5t257.5 61.5q-8 22 -12.5 49
t-4.5 47q0 61 22 113.5t63 90.5t99 60t130 22q47 0 86 -16t67.5 -43t44 -62t15.5 -74q0 -44 -14 -76t-36.5 -53t-50 -31t-55.5 -10q-22 0 -43 6t-38 19.5t-27.5 33.5t-10.5 49q0 21 8 39t20.5 30.5t29.5 19.5t35 7q33 0 52 -13.5t19 -31.5q0 -19 -18 -19q-11 0 -16 7t-10 17
q-4 8 -11.5 15.5t-18.5 7.5q-12 0 -24.5 -5t-23 -15t-17.5 -25t-7 -35zM893 474h-9t-13 -0.5t-13 -0.5h-9q15 -35 39.5 -65.5t57 -53.5t72.5 -36.5t86 -13.5q27 0 44.5 4t27.5 9.5t14 12t4 12.5q0 37 -32.5 62.5t-79 41t-98.5 22t-91 6.5zM1164 959q28 12 53 24.5t50 30
t50.5 41.5t54.5 60q3 4 11 6t14 2q14 0 21.5 -8t7.5 -19q0 -13 -7 -21.5t-19 -16.5q-54 -34 -107.5 -65t-116.5 -54q-8 -2 -9 -2q-4 0 -7.5 2.5t-3.5 7.5q0 7 8 12z" />
    <glyph glyph-name="Ecircumflex" unicode="&#xca;" horiz-adv-x="1188" 
d="M1033 613q0 -43 28 -67t73 -24q34 0 60 13t42.5 34.5t25 48.5t8.5 56q0 43 -16.5 76.5t-43.5 56t-61 34.5t-70 12q-60 0 -107 -20.5t-80 -56t-50 -83t-17 -102.5q0 -21 3.5 -50t13.5 -49q11 1 18 1h16q65 0 126.5 -9.5t109.5 -28.5t77 -47.5t29 -67.5q0 -11 -6 -22
t-19.5 -20t-35.5 -14.5t-55 -5.5q-59 0 -109 15t-90 41t-69 61t-47 75q-143 -11 -256.5 -64t-193 -136t-121.5 -189t-42 -223t34.5 -212.5t100.5 -163t161 -104t215 -36.5q99 0 185.5 33.5t150.5 90t100.5 129.5t36.5 151q0 69 -21.5 126t-61 97.5t-94.5 62.5t-122 22
q-57 0 -107.5 -17.5t-87.5 -49t-58.5 -75.5t-21.5 -97q0 -50 15 -89t42.5 -66.5t65.5 -42t85 -14.5q43 0 79 17t60 45q14 17 17 47q2 14 7 23t18 9q20 0 20 -24q0 -18 -16.5 -41.5t-44.5 -44.5t-65 -35.5t-78 -14.5q-48 0 -89 15.5t-71.5 44.5t-48 72t-17.5 97
q0 55 22 102.5t61.5 82.5t93.5 55.5t119 20.5q68 0 127 -22.5t102.5 -64.5t68.5 -103t25 -137q0 -83 -38.5 -161t-106 -138t-159.5 -96.5t-199 -36.5q-129 0 -232.5 37.5t-176.5 107t-112 169.5t-39 226q0 136 52 247.5t141.5 193.5t210 131.5t257.5 61.5q-8 22 -12.5 49
t-4.5 47q0 61 22 113.5t63 90.5t99 60t130 22q47 0 86 -16t67.5 -43t44 -62t15.5 -74q0 -44 -14 -76t-36.5 -53t-50 -31t-55.5 -10q-22 0 -43 6t-38 19.5t-27.5 33.5t-10.5 49q0 21 8 39t20.5 30.5t29.5 19.5t35 7q33 0 52 -13.5t19 -31.5q0 -19 -18 -19q-11 0 -16 7t-10 17
q-4 8 -11.5 15.5t-18.5 7.5q-12 0 -24.5 -5t-23 -15t-17.5 -25t-7 -35zM893 474h-9t-13 -0.5t-13 -0.5h-9q15 -35 39.5 -65.5t57 -53.5t72.5 -36.5t86 -13.5q27 0 44.5 4t27.5 9.5t14 12t4 12.5q0 37 -32.5 62.5t-79 41t-98.5 22t-91 6.5zM1277 1150q-3 -22 0.5 -51.5
t13.5 -56t27.5 -45t43.5 -18.5q2 -8 2 -10q0 -14 -12 -24t-29 -10q-30 0 -48.5 19t-28.5 46t-13 57.5t-3 53.5q-51 -57 -106.5 -96.5t-116.5 -64.5l-4 20q72 28 127.5 72.5t106.5 107.5h40z" />
    <glyph glyph-name="Edieresis" unicode="&#xcb;" horiz-adv-x="1102" 
d="M947 613q0 -43 28 -67t73 -24q34 0 60 13t42.5 34.5t25 48.5t8.5 56q0 43 -16.5 76.5t-43.5 56t-61 34.5t-70 12q-60 0 -107 -20.5t-80 -56t-50 -83t-17 -102.5q0 -21 3.5 -50t13.5 -49q11 1 18 1h16q65 0 126.5 -9.5t109.5 -28.5t77 -47.5t29 -67.5q0 -11 -6 -22
t-19.5 -20t-35.5 -14.5t-55 -5.5q-59 0 -109 15t-90 41t-69 61t-47 75q-143 -11 -256.5 -64t-193 -136t-121.5 -189t-42 -223t34.5 -212.5t100.5 -163t161 -104t215 -36.5q99 0 185.5 33.5t150.5 90t100.5 129.5t36.5 151q0 69 -21.5 126t-61 97.5t-94.5 62.5t-122 22
q-57 0 -107.5 -17.5t-87.5 -49t-58.5 -75.5t-21.5 -97q0 -50 15 -89t42.5 -66.5t65.5 -42t85 -14.5q43 0 79 17t60 45q14 17 17 47q2 14 7 23t18 9q20 0 20 -24q0 -18 -16.5 -41.5t-44.5 -44.5t-65 -35.5t-78 -14.5q-48 0 -89 15.5t-71.5 44.5t-48 72t-17.5 97
q0 55 22 102.5t61.5 82.5t93.5 55.5t119 20.5q68 0 127 -22.5t102.5 -64.5t68.5 -103t25 -137q0 -83 -38.5 -161t-106 -138t-159.5 -96.5t-199 -36.5q-129 0 -232.5 37.5t-176.5 107t-112 169.5t-39 226q0 136 52 247.5t141.5 193.5t210 131.5t257.5 61.5q-8 22 -12.5 49
t-4.5 47q0 61 22 113.5t63 90.5t99 60t130 22q47 0 86 -16t67.5 -43t44 -62t15.5 -74q0 -44 -14 -76t-36.5 -53t-50 -31t-55.5 -10q-22 0 -43 6t-38 19.5t-27.5 33.5t-10.5 49q0 21 8 39t20.5 30.5t29.5 19.5t35 7q33 0 52 -13.5t19 -31.5q0 -19 -18 -19q-11 0 -16 7t-10 17
q-4 8 -11.5 15.5t-18.5 7.5q-12 0 -24.5 -5t-23 -15t-17.5 -25t-7 -35zM807 474h-9t-13 -0.5t-13 -0.5h-9q15 -35 39.5 -65.5t57 -53.5t72.5 -36.5t86 -13.5q27 0 44.5 4t27.5 9.5t14 12t4 12.5q0 37 -32.5 62.5t-79 41t-98.5 22t-91 6.5zM1001 949q-7 6 -11.5 15t-4.5 21
q0 14 10.5 24.5t25.5 10.5q13 0 23.5 -9.5t10.5 -25.5q0 -17 -12 -28.5t-28 -18.5l-17 -7l-6 9zM1144 949q-7 6 -11.5 15t-4.5 21q0 14 10.5 24.5t25.5 10.5q13 0 23.5 -9.5t10.5 -25.5q0 -17 -12 -28.5t-28 -18.5l-17 -7l-6 9z" />
    <glyph glyph-name="Igrave" unicode="&#xcc;" horiz-adv-x="1175" 
d="M455 292q-35 -8 -62 -33t-27 -70q0 -54 35 -82.5t90 -28.5q40 0 73.5 13t58 38.5t38.5 62.5t14 84q0 36 -14.5 71.5t-42 63.5t-68.5 45.5t-93 17.5t-102 -18t-89 -51.5t-63 -82.5t-24 -112q0 -65 21.5 -118.5t61 -91.5t96 -59.5t126.5 -21.5q84 0 152 24t124.5 65
t102.5 94t86 112q-66 2 -120 27t-92.5 67t-59 97t-20.5 118q0 90 42 161t119 119.5t185.5 74.5t240.5 26q51 0 110.5 -3t120 -9t118.5 -14t106 -18q9 -12 9 -22q0 -20 -25 -25q-24 5 -46 14.5t-44 13.5q-69 -5 -123.5 -30.5t-99 -65.5t-81.5 -91.5t-71 -108.5
q11 -20 17.5 -45t6.5 -54q0 -44 -17 -82t-46 -67t-68.5 -49t-85.5 -29q-48 -71 -101.5 -130.5t-118.5 -103.5t-144.5 -68.5t-178.5 -24.5q-74 0 -134 24t-102.5 66t-65.5 99.5t-23 124.5q0 56 21 107.5t60.5 90.5t95 62.5t124.5 23.5q66 0 111.5 -22t73.5 -54.5t40.5 -70.5
t12.5 -69q0 -45 -14 -84t-40.5 -67.5t-64.5 -45t-86 -16.5q-30 0 -56.5 9t-46 25.5t-30.5 40t-11 52.5q0 27 11.5 49.5t31 39t45.5 25.5t55 9q38 0 49.5 -9.5t11.5 -18.5q0 -8 -9.5 -14t-25.5 -6t-31.5 6t-29.5 23zM1542 857q-29 4 -67 8.5t-80.5 8.5t-87.5 6.5t-89 2.5
q-112 0 -210.5 -22t-172.5 -66.5t-117 -113t-43 -161.5q0 -57 20 -109.5t56.5 -92t87.5 -63.5t114 -24h7q25 39 51.5 83.5t52.5 89.5t51.5 89t49.5 82q-21 19 -46 30.5t-67 11.5q-30 0 -57.5 -12t-44.5 -35q0 -33 -11 -58.5t-29 -25.5q-19 0 -19 27t15 49.5t38 39t51 25.5
t54 9q36 0 69 -10.5t59 -31.5q30 45 69 87.5t85.5 78.5t100 61.5t110.5 35.5zM1205 525q-19 -35 -40 -72.5t-42.5 -75t-43 -72.5t-40.5 -65q40 9 73.5 28.5t58 46t38.5 58t14 64.5q0 26 -3.5 45t-14.5 43zM1527 983q8 -5 8 -12q0 -5 -3.5 -7.5t-7.5 -2.5q-1 0 -9 2
q-63 23 -116.5 54t-107.5 65q-12 8 -19 16.5t-7 21.5q0 11 7.5 19t21.5 8q6 0 14 -2t11 -6q29 -36 54.5 -60.5t50 -41.5t49.5 -29.5t54 -24.5z" />
    <glyph glyph-name="Iacute" unicode="&#xcd;" horiz-adv-x="1175" 
d="M455 292q-35 -8 -62 -33t-27 -70q0 -54 35 -82.5t90 -28.5q40 0 73.5 13t58 38.5t38.5 62.5t14 84q0 36 -14.5 71.5t-42 63.5t-68.5 45.5t-93 17.5t-102 -18t-89 -51.5t-63 -82.5t-24 -112q0 -65 21.5 -118.5t61 -91.5t96 -59.5t126.5 -21.5q84 0 152 24t124.5 65
t102.5 94t86 112q-66 2 -120 27t-92.5 67t-59 97t-20.5 118q0 90 42 161t119 119.5t185.5 74.5t240.5 26q51 0 110.5 -3t120 -9t118.5 -14t106 -18q9 -12 9 -22q0 -20 -25 -25q-24 5 -46 14.5t-44 13.5q-69 -5 -123.5 -30.5t-99 -65.5t-81.5 -91.5t-71 -108.5
q11 -20 17.5 -45t6.5 -54q0 -44 -17 -82t-46 -67t-68.5 -49t-85.5 -29q-48 -71 -101.5 -130.5t-118.5 -103.5t-144.5 -68.5t-178.5 -24.5q-74 0 -134 24t-102.5 66t-65.5 99.5t-23 124.5q0 56 21 107.5t60.5 90.5t95 62.5t124.5 23.5q66 0 111.5 -22t73.5 -54.5t40.5 -70.5
t12.5 -69q0 -45 -14 -84t-40.5 -67.5t-64.5 -45t-86 -16.5q-30 0 -56.5 9t-46 25.5t-30.5 40t-11 52.5q0 27 11.5 49.5t31 39t45.5 25.5t55 9q38 0 49.5 -9.5t11.5 -18.5q0 -8 -9.5 -14t-25.5 -6t-31.5 6t-29.5 23zM1542 857q-29 4 -67 8.5t-80.5 8.5t-87.5 6.5t-89 2.5
q-112 0 -210.5 -22t-172.5 -66.5t-117 -113t-43 -161.5q0 -57 20 -109.5t56.5 -92t87.5 -63.5t114 -24h7q25 39 51.5 83.5t52.5 89.5t51.5 89t49.5 82q-21 19 -46 30.5t-67 11.5q-30 0 -57.5 -12t-44.5 -35q0 -33 -11 -58.5t-29 -25.5q-19 0 -19 27t15 49.5t38 39t51 25.5
t54 9q36 0 69 -10.5t59 -31.5q30 45 69 87.5t85.5 78.5t100 61.5t110.5 35.5zM1205 525q-19 -35 -40 -72.5t-42.5 -75t-43 -72.5t-40.5 -65q40 9 73.5 28.5t58 46t38.5 58t14 64.5q0 26 -3.5 45t-14.5 43zM1313 996q28 12 53 24.5t50 30t50.5 41.5t54.5 60q3 4 11 6t14 2
q14 0 21.5 -8t7.5 -19q0 -13 -7 -21.5t-19 -16.5q-54 -34 -107.5 -65t-116.5 -54q-8 -2 -9 -2q-4 0 -7.5 2.5t-3.5 7.5q0 7 8 12z" />
    <glyph glyph-name="Icircumflex" unicode="&#xce;" horiz-adv-x="1175" 
d="M455 292q-35 -8 -62 -33t-27 -70q0 -54 35 -82.5t90 -28.5q40 0 73.5 13t58 38.5t38.5 62.5t14 84q0 36 -14.5 71.5t-42 63.5t-68.5 45.5t-93 17.5t-102 -18t-89 -51.5t-63 -82.5t-24 -112q0 -65 21.5 -118.5t61 -91.5t96 -59.5t126.5 -21.5q84 0 152 24t124.5 65
t102.5 94t86 112q-66 2 -120 27t-92.5 67t-59 97t-20.5 118q0 90 42 161t119 119.5t185.5 74.5t240.5 26q51 0 110.5 -3t120 -9t118.5 -14t106 -18q9 -12 9 -22q0 -20 -25 -25q-24 5 -46 14.5t-44 13.5q-69 -5 -123.5 -30.5t-99 -65.5t-81.5 -91.5t-71 -108.5
q11 -20 17.5 -45t6.5 -54q0 -44 -17 -82t-46 -67t-68.5 -49t-85.5 -29q-48 -71 -101.5 -130.5t-118.5 -103.5t-144.5 -68.5t-178.5 -24.5q-74 0 -134 24t-102.5 66t-65.5 99.5t-23 124.5q0 56 21 107.5t60.5 90.5t95 62.5t124.5 23.5q66 0 111.5 -22t73.5 -54.5t40.5 -70.5
t12.5 -69q0 -45 -14 -84t-40.5 -67.5t-64.5 -45t-86 -16.5q-30 0 -56.5 9t-46 25.5t-30.5 40t-11 52.5q0 27 11.5 49.5t31 39t45.5 25.5t55 9q38 0 49.5 -9.5t11.5 -18.5q0 -8 -9.5 -14t-25.5 -6t-31.5 6t-29.5 23zM1542 857q-29 4 -67 8.5t-80.5 8.5t-87.5 6.5t-89 2.5
q-112 0 -210.5 -22t-172.5 -66.5t-117 -113t-43 -161.5q0 -57 20 -109.5t56.5 -92t87.5 -63.5t114 -24h7q25 39 51.5 83.5t52.5 89.5t51.5 89t49.5 82q-21 19 -46 30.5t-67 11.5q-30 0 -57.5 -12t-44.5 -35q0 -33 -11 -58.5t-29 -25.5q-19 0 -19 27t15 49.5t38 39t51 25.5
t54 9q36 0 69 -10.5t59 -31.5q30 45 69 87.5t85.5 78.5t100 61.5t110.5 35.5zM1205 525q-19 -35 -40 -72.5t-42.5 -75t-43 -72.5t-40.5 -65q40 9 73.5 28.5t58 46t38.5 58t14 64.5q0 26 -3.5 45t-14.5 43zM1431 1168q-3 -22 0.5 -51.5t13.5 -56t27.5 -45t43.5 -18.5
q2 -8 2 -10q0 -14 -12 -24t-29 -10q-30 0 -48.5 19t-28.5 46t-13 57.5t-3 53.5q-51 -57 -106.5 -96.5t-116.5 -64.5l-4 20q72 28 127.5 72.5t106.5 107.5h40z" />
    <glyph glyph-name="Idieresis" unicode="&#xcf;" horiz-adv-x="1175" 
d="M455 292q-35 -8 -62 -33t-27 -70q0 -54 35 -82.5t90 -28.5q40 0 73.5 13t58 38.5t38.5 62.5t14 84q0 36 -14.5 71.5t-42 63.5t-68.5 45.5t-93 17.5t-102 -18t-89 -51.5t-63 -82.5t-24 -112q0 -65 21.5 -118.5t61 -91.5t96 -59.5t126.5 -21.5q84 0 152 24t124.5 65
t102.5 94t86 112q-66 2 -120 27t-92.5 67t-59 97t-20.5 118q0 90 42 161t119 119.5t185.5 74.5t240.5 26q51 0 110.5 -3t120 -9t118.5 -14t106 -18q9 -12 9 -22q0 -20 -25 -25q-24 5 -46 14.5t-44 13.5q-69 -5 -123.5 -30.5t-99 -65.5t-81.5 -91.5t-71 -108.5
q11 -20 17.5 -45t6.5 -54q0 -44 -17 -82t-46 -67t-68.5 -49t-85.5 -29q-48 -71 -101.5 -130.5t-118.5 -103.5t-144.5 -68.5t-178.5 -24.5q-74 0 -134 24t-102.5 66t-65.5 99.5t-23 124.5q0 56 21 107.5t60.5 90.5t95 62.5t124.5 23.5q66 0 111.5 -22t73.5 -54.5t40.5 -70.5
t12.5 -69q0 -45 -14 -84t-40.5 -67.5t-64.5 -45t-86 -16.5q-30 0 -56.5 9t-46 25.5t-30.5 40t-11 52.5q0 27 11.5 49.5t31 39t45.5 25.5t55 9q38 0 49.5 -9.5t11.5 -18.5q0 -8 -9.5 -14t-25.5 -6t-31.5 6t-29.5 23zM1542 857q-29 4 -67 8.5t-80.5 8.5t-87.5 6.5t-89 2.5
q-112 0 -210.5 -22t-172.5 -66.5t-117 -113t-43 -161.5q0 -57 20 -109.5t56.5 -92t87.5 -63.5t114 -24h7q25 39 51.5 83.5t52.5 89.5t51.5 89t49.5 82q-21 19 -46 30.5t-67 11.5q-30 0 -57.5 -12t-44.5 -35q0 -33 -11 -58.5t-29 -25.5q-19 0 -19 27t15 49.5t38 39t51 25.5
t54 9q36 0 69 -10.5t59 -31.5q30 45 69 87.5t85.5 78.5t100 61.5t110.5 35.5zM1205 525q-19 -35 -40 -72.5t-42.5 -75t-43 -72.5t-40.5 -65q40 9 73.5 28.5t58 46t38.5 58t14 64.5q0 26 -3.5 45t-14.5 43zM1289 985q-7 6 -11.5 15t-4.5 21q0 14 10.5 24.5t25.5 10.5
q13 0 23.5 -9.5t10.5 -25.5q0 -17 -12 -28.5t-28 -18.5l-17 -7l-6 9zM1432 985q-7 6 -11.5 15t-4.5 21q0 14 10.5 24.5t25.5 10.5q13 0 23.5 -9.5t10.5 -25.5q0 -17 -12 -28.5t-28 -18.5l-17 -7l-6 9z" />
    <glyph glyph-name="Eth" unicode="&#xd0;" horiz-adv-x="1345" 
d="M1311 718q35 -51 52 -114.5t17 -124.5q0 -79 -22.5 -157t-65.5 -147.5t-105.5 -129t-143.5 -103t-179 -68t-211 -24.5q-106 0 -203.5 19t-199.5 53q-11 -1 -24 -1.5t-24 -0.5q-17 0 -40.5 1.5t-45.5 5.5t-38 10.5t-17 17.5q0 17 13.5 24t33.5 7q25 0 59 -10t66 -27
q43 10 87 32t87.5 52t86 67t83.5 76q-44 16 -84.5 45t-72 71t-50.5 97t-19 123q0 91 39 169.5t106.5 136t158.5 90t195 32.5q153 0 266.5 -56t182.5 -150q17 2 34.5 3t36.5 1q17 0 50.5 -3.5t68.5 -14.5q33 -11 58 -27.5t25 -42.5q0 -18 -19 -18q-16 0 -26 10.5t-19 24.5
t-21.5 25.5t-32.5 17.5q-48 13 -103 12q-8 0 -19 -1t-21 -3zM520 382h248q2 2 5 4.5t5 5.5q45 48 90.5 97t91.5 91q-20 27 -50.5 43.5t-68.5 16.5q-17 0 -36 -4.5t-32 -13.5q-10 -7 -16 -18t-10 -22t-10.5 -18.5t-15.5 -7.5q-18 0 -18 17q0 19 11.5 34.5t31 26.5t44 17.5
t51.5 6.5q42 0 77 -17t59 -47q57 48 120.5 81.5t144.5 50.5q-30 39 -70 74.5t-89 62t-107.5 42t-126.5 15.5q-108 0 -196 -33.5t-150.5 -90t-96.5 -129.5t-34 -152q0 -65 18 -118t48.5 -93.5t70 -68.5t83.5 -42q42 42 83 87t78 85h-233v17zM1325 472q0 60 -18.5 122
t-51.5 114q-41 -9 -75 -25t-64.5 -36.5t-58.5 -44.5t-56 -49q23 -49 23 -107q0 -63 -25 -116.5t-70 -93t-106.5 -61.5t-133.5 -22q-13 0 -25 1.5t-25 3.5q-42 -41 -86 -78t-89 -67t-91 -51.5t-92 -31.5q55 -14 103 -24t92.5 -17t86.5 -10t84 -3q143 -1 267 45t215.5 126.5
t143.5 190t52 234.5zM657 177q13 -4 34 -4q70 0 128 21.5t98.5 58.5t63 87t22.5 107q0 23 -4.5 47.5t-15.5 43.5q-38 -36 -73.5 -76t-69.5 -80h132v-17h-146q-19 -23 -37.5 -44.5t-35.5 -41.5q-21 -24 -47 -51.5t-49 -50.5z" />
    <glyph glyph-name="Ntilde" unicode="&#xd1;" horiz-adv-x="1660" 
d="M1294 879q8 11 16 16t21 5q27 0 49 -31t39 -80t30 -111t21.5 -124t12.5 -118.5t4 -94.5q0 -65 -6 -131q100 174 217 318t256.5 247.5t303.5 161t356 57.5q75 0 137 -16.5t105.5 -46.5t67.5 -71t24 -90q0 -50 -20 -92.5t-57 -74.5t-88.5 -50t-115.5 -18q-43 0 -81 11
t-66 32t-44.5 52.5t-16.5 72.5q0 34 14 61.5t38 46.5t55 29.5t65 10.5q27 0 46 -6.5t31 -15.5t17 -18.5t5 -14.5q0 -19 -21 -19q-11 0 -19 8.5t-15 20.5t-18 20.5t-29 8.5q-32 0 -59.5 -10t-47.5 -28t-31 -42t-11 -52q0 -32 12.5 -59.5t36.5 -48t59 -32.5t80 -12
q58 0 106.5 16.5t83 46t53.5 69.5t19 88q0 47 -26 84.5t-69.5 64t-100.5 40.5t-118 14q-145 0 -267.5 -33t-228.5 -91.5t-196 -139t-169 -175.5t-149 -201.5t-135 -216.5q-14 -83 -36 -159q-4 -12 -11 -22.5t-28 -10.5q-9 0 -15 5t-11 12q35 109 49 208.5t14 190.5
q0 88 -12 175t-33 162q-13 -100 -45.5 -206t-83.5 -207t-120 -191t-155 -158t-189 -107.5t-222 -39.5q-99 0 -187.5 31.5t-155 93t-105.5 152t-39 208.5q0 98 36.5 178t98.5 136.5t145 87.5t175 31q83 0 149 -26t112 -71.5t70.5 -107t24.5 -131.5q0 -65 -24 -120
t-65.5 -95.5t-98 -63t-122.5 -22.5q-48 0 -88.5 15t-70 42t-46.5 64t-17 82q0 31 11.5 60.5t33.5 52t53.5 36t71.5 13.5q31 0 56.5 -11.5t43.5 -31.5t28 -46.5t10 -55.5q0 -18 -8 -30.5t-20 -12.5q-21 0 -21 23q0 8 2.5 15.5t4.5 15.5q3 8 5 16.5t2 18.5q0 11 -7.5 25.5
t-21 27t-32.5 21.5t-42 9q-34 0 -62 -11.5t-47.5 -31t-30.5 -47t-11 -58.5q0 -42 15.5 -76t42.5 -58.5t64 -37.5t80 -13q53 0 104.5 19t92.5 55.5t66 90t25 122.5q0 58 -19 114.5t-60 101.5t-104.5 72.5t-151.5 27.5q-92 0 -170.5 -30.5t-136 -85t-90.5 -131t-33 -168.5
q0 -112 37.5 -197.5t101.5 -144t148 -88.5t177 -30q107 0 204 39.5t180 109t152 164t120 203.5t83.5 227.5t43.5 236.5q-27 71 -61 105zM1550 843q13 29 39 46.5t56 17.5q18 0 35 -8.5t33.5 -18.5t33.5 -18.5t36 -8.5q26 0 41 11.5t27 36.5l18 -9q-14 -32 -39 -51.5
t-58 -19.5q-18 0 -35.5 8.5t-34.5 19t-33.5 19t-32.5 8.5q-22 0 -40 -9t-29 -32z" />
    <glyph glyph-name="Ograve" unicode="&#xd2;" horiz-adv-x="1297" 
d="M1320 541q0 -96 -35 -192q36 -20 67.5 -51.5t55.5 -71.5t37.5 -86.5t13.5 -95.5q0 -125 -42.5 -218t-112 -155.5t-158 -93.5t-181.5 -31q-94 0 -169 28.5t-129.5 78.5t-87 118t-41.5 147l-4 33q-69 34 -103.5 98.5t-34.5 149.5q0 84 28.5 168.5t78.5 162.5t118.5 145.5
t148 117t167.5 78t178 28.5q76 0 135.5 -21.5t100 -57.5t62 -84t21.5 -101q0 -30 -4.5 -51t-11.5 -33.5t-15.5 -18t-16.5 -5.5q-17 0 -17 18q0 9 7 18t15 19t15 22t7 28q0 57 -22 103.5t-61 79.5t-94 51t-121 18q-95 0 -181 -33.5t-160.5 -89t-134.5 -128t-103 -150
t-66 -154.5t-23 -142q0 -63 22.5 -116.5t64.5 -85.5q0 85 22.5 174t63 173t96 158.5t121.5 130t140.5 87.5t152.5 32q46 0 81.5 -14.5t59.5 -40.5t36.5 -62.5t12.5 -81.5zM591 -69q8 -71 35.5 -137t74.5 -117t113 -82t152 -31q80 0 163.5 27t152 85t112 149t43.5 219
q0 91 -43 166.5t-115 120.5q-35 -84 -91.5 -158.5t-133.5 -130.5t-173.5 -88.5t-210.5 -32.5q-18 0 -40.5 2.5t-38.5 7.5zM588 -45q17 -8 38.5 -12t38.5 -4q111 0 202.5 35t163 93.5t123 133.5t81.5 155q-30 14 -64.5 22.5t-83.5 8.5q-36 0 -77.5 -8t-71.5 -29
q-8 -6 -13 -17t-7 -23q-2 -11 -7 -20t-17 -9q-8 0 -14.5 6.5t-6.5 15.5q0 24 21 42.5t53 31.5t70 19.5t71 6.5q39 0 80.5 -8t73.5 -23q15 45 25 86t10 83q0 52 -11 87t-31 56.5t-48 30.5t-62 9q-64 0 -128.5 -32.5t-124.5 -87t-111.5 -127.5t-90 -153.5t-60.5 -164
t-22 -160.5v-44zM1342 970q8 -5 8 -12q0 -5 -3.5 -7.5t-7.5 -2.5q-1 0 -9 2q-63 23 -116.5 54t-107.5 65q-12 8 -19 16.5t-7 21.5q0 11 7.5 19t21.5 8q6 0 14 -2t11 -6q29 -36 54.5 -60.5t50 -41.5t49.5 -29.5t54 -24.5z" />
    <glyph glyph-name="Oacute" unicode="&#xd3;" horiz-adv-x="1297" 
d="M1320 541q0 -96 -35 -192q36 -20 67.5 -51.5t55.5 -71.5t37.5 -86.5t13.5 -95.5q0 -125 -42.5 -218t-112 -155.5t-158 -93.5t-181.5 -31q-94 0 -169 28.5t-129.5 78.5t-87 118t-41.5 147l-4 33q-69 34 -103.5 98.5t-34.5 149.5q0 84 28.5 168.5t78.5 162.5t118.5 145.5
t148 117t167.5 78t178 28.5q76 0 135.5 -21.5t100 -57.5t62 -84t21.5 -101q0 -30 -4.5 -51t-11.5 -33.5t-15.5 -18t-16.5 -5.5q-17 0 -17 18q0 9 7 18t15 19t15 22t7 28q0 57 -22 103.5t-61 79.5t-94 51t-121 18q-95 0 -181 -33.5t-160.5 -89t-134.5 -128t-103 -150
t-66 -154.5t-23 -142q0 -63 22.5 -116.5t64.5 -85.5q0 85 22.5 174t63 173t96 158.5t121.5 130t140.5 87.5t152.5 32q46 0 81.5 -14.5t59.5 -40.5t36.5 -62.5t12.5 -81.5zM591 -69q8 -71 35.5 -137t74.5 -117t113 -82t152 -31q80 0 163.5 27t152 85t112 149t43.5 219
q0 91 -43 166.5t-115 120.5q-35 -84 -91.5 -158.5t-133.5 -130.5t-173.5 -88.5t-210.5 -32.5q-18 0 -40.5 2.5t-38.5 7.5zM588 -45q17 -8 38.5 -12t38.5 -4q111 0 202.5 35t163 93.5t123 133.5t81.5 155q-30 14 -64.5 22.5t-83.5 8.5q-36 0 -77.5 -8t-71.5 -29
q-8 -6 -13 -17t-7 -23q-2 -11 -7 -20t-17 -9q-8 0 -14.5 6.5t-6.5 15.5q0 24 21 42.5t53 31.5t70 19.5t71 6.5q39 0 80.5 -8t73.5 -23q15 45 25 86t10 83q0 52 -11 87t-31 56.5t-48 30.5t-62 9q-64 0 -128.5 -32.5t-124.5 -87t-111.5 -127.5t-90 -153.5t-60.5 -164
t-22 -160.5v-44zM1119 957q28 12 53 24.5t50 30t50.5 41.5t54.5 60q3 4 11 6t14 2q14 0 21.5 -8t7.5 -19q0 -13 -7 -21.5t-19 -16.5q-54 -34 -107.5 -65t-116.5 -54q-8 -2 -9 -2q-4 0 -7.5 2.5t-3.5 7.5q0 7 8 12z" />
    <glyph glyph-name="Ocircumflex" unicode="&#xd4;" horiz-adv-x="1297" 
d="M1320 541q0 -96 -35 -192q36 -20 67.5 -51.5t55.5 -71.5t37.5 -86.5t13.5 -95.5q0 -125 -42.5 -218t-112 -155.5t-158 -93.5t-181.5 -31q-94 0 -169 28.5t-129.5 78.5t-87 118t-41.5 147l-4 33q-69 34 -103.5 98.5t-34.5 149.5q0 84 28.5 168.5t78.5 162.5t118.5 145.5
t148 117t167.5 78t178 28.5q76 0 135.5 -21.5t100 -57.5t62 -84t21.5 -101q0 -30 -4.5 -51t-11.5 -33.5t-15.5 -18t-16.5 -5.5q-17 0 -17 18q0 9 7 18t15 19t15 22t7 28q0 57 -22 103.5t-61 79.5t-94 51t-121 18q-95 0 -181 -33.5t-160.5 -89t-134.5 -128t-103 -150
t-66 -154.5t-23 -142q0 -63 22.5 -116.5t64.5 -85.5q0 85 22.5 174t63 173t96 158.5t121.5 130t140.5 87.5t152.5 32q46 0 81.5 -14.5t59.5 -40.5t36.5 -62.5t12.5 -81.5zM591 -69q8 -71 35.5 -137t74.5 -117t113 -82t152 -31q80 0 163.5 27t152 85t112 149t43.5 219
q0 91 -43 166.5t-115 120.5q-35 -84 -91.5 -158.5t-133.5 -130.5t-173.5 -88.5t-210.5 -32.5q-18 0 -40.5 2.5t-38.5 7.5zM588 -45q17 -8 38.5 -12t38.5 -4q111 0 202.5 35t163 93.5t123 133.5t81.5 155q-30 14 -64.5 22.5t-83.5 8.5q-36 0 -77.5 -8t-71.5 -29
q-8 -6 -13 -17t-7 -23q-2 -11 -7 -20t-17 -9q-8 0 -14.5 6.5t-6.5 15.5q0 24 21 42.5t53 31.5t70 19.5t71 6.5q39 0 80.5 -8t73.5 -23q15 45 25 86t10 83q0 52 -11 87t-31 56.5t-48 30.5t-62 9q-64 0 -128.5 -32.5t-124.5 -87t-111.5 -127.5t-90 -153.5t-60.5 -164
t-22 -160.5v-44zM1306 1141q-3 -22 0.5 -51.5t13.5 -56t27.5 -45t43.5 -18.5q2 -8 2 -10q0 -14 -12 -24t-29 -10q-30 0 -48.5 19t-28.5 46t-13 57.5t-3 53.5q-51 -57 -106.5 -96.5t-116.5 -64.5l-4 20q72 28 127.5 72.5t106.5 107.5h40z" />
    <glyph glyph-name="Otilde" unicode="&#xd5;" horiz-adv-x="1297" 
d="M1097 1006q13 29 39 46.5t56 17.5q18 0 35 -8.5t33.5 -18.5t33.5 -18.5t36 -8.5q26 0 41 11.5t27 36.5l18 -9q-14 -32 -39 -51.5t-58 -19.5q-18 0 -35.5 8.5t-34.5 19t-33.5 19t-32.5 8.5q-22 0 -40 -9t-29 -32zM1320 541q0 -96 -35 -192q36 -20 67.5 -51.5t55.5 -71.5
t37.5 -86.5t13.5 -95.5q0 -125 -42.5 -218t-112 -155.5t-158 -93.5t-181.5 -31q-94 0 -169 28.5t-129.5 78.5t-87 118t-41.5 147l-4 33q-69 34 -103.5 98.5t-34.5 149.5q0 84 28.5 168.5t78.5 162.5t118.5 145.5t148 117t167.5 78t178 28.5q76 0 135.5 -21.5t100 -57.5
t62 -84t21.5 -101q0 -30 -4.5 -51t-11.5 -33.5t-15.5 -18t-16.5 -5.5q-17 0 -17 18q0 9 7 18t15 19t15 22t7 28q0 57 -22 103.5t-61 79.5t-94 51t-121 18q-95 0 -181 -33.5t-160.5 -89t-134.5 -128t-103 -150t-66 -154.5t-23 -142q0 -63 22.5 -116.5t64.5 -85.5
q0 85 22.5 174t63 173t96 158.5t121.5 130t140.5 87.5t152.5 32q46 0 81.5 -14.5t59.5 -40.5t36.5 -62.5t12.5 -81.5zM591 -69q8 -71 35.5 -137t74.5 -117t113 -82t152 -31q80 0 163.5 27t152 85t112 149t43.5 219q0 91 -43 166.5t-115 120.5q-35 -84 -91.5 -158.5
t-133.5 -130.5t-173.5 -88.5t-210.5 -32.5q-18 0 -40.5 2.5t-38.5 7.5zM588 -45q17 -8 38.5 -12t38.5 -4q111 0 202.5 35t163 93.5t123 133.5t81.5 155q-30 14 -64.5 22.5t-83.5 8.5q-36 0 -77.5 -8t-71.5 -29q-8 -6 -13 -17t-7 -23q-2 -11 -7 -20t-17 -9q-8 0 -14.5 6.5
t-6.5 15.5q0 24 21 42.5t53 31.5t70 19.5t71 6.5q39 0 80.5 -8t73.5 -23q15 45 25 86t10 83q0 52 -11 87t-31 56.5t-48 30.5t-62 9q-64 0 -128.5 -32.5t-124.5 -87t-111.5 -127.5t-90 -153.5t-60.5 -164t-22 -160.5v-44z" />
    <glyph glyph-name="Odieresis" unicode="&#xd6;" horiz-adv-x="1297" 
d="M1320 541q0 -96 -35 -192q36 -20 67.5 -51.5t55.5 -71.5t37.5 -86.5t13.5 -95.5q0 -125 -42.5 -218t-112 -155.5t-158 -93.5t-181.5 -31q-94 0 -169 28.5t-129.5 78.5t-87 118t-41.5 147l-4 33q-69 34 -103.5 98.5t-34.5 149.5q0 84 28.5 168.5t78.5 162.5t118.5 145.5
t148 117t167.5 78t178 28.5q76 0 135.5 -21.5t100 -57.5t62 -84t21.5 -101q0 -30 -4.5 -51t-11.5 -33.5t-15.5 -18t-16.5 -5.5q-17 0 -17 18q0 9 7 18t15 19t15 22t7 28q0 57 -22 103.5t-61 79.5t-94 51t-121 18q-95 0 -181 -33.5t-160.5 -89t-134.5 -128t-103 -150
t-66 -154.5t-23 -142q0 -63 22.5 -116.5t64.5 -85.5q0 85 22.5 174t63 173t96 158.5t121.5 130t140.5 87.5t152.5 32q46 0 81.5 -14.5t59.5 -40.5t36.5 -62.5t12.5 -81.5zM591 -69q8 -71 35.5 -137t74.5 -117t113 -82t152 -31q80 0 163.5 27t152 85t112 149t43.5 219
q0 91 -43 166.5t-115 120.5q-35 -84 -91.5 -158.5t-133.5 -130.5t-173.5 -88.5t-210.5 -32.5q-18 0 -40.5 2.5t-38.5 7.5zM588 -45q17 -8 38.5 -12t38.5 -4q111 0 202.5 35t163 93.5t123 133.5t81.5 155q-30 14 -64.5 22.5t-83.5 8.5q-36 0 -77.5 -8t-71.5 -29
q-8 -6 -13 -17t-7 -23q-2 -11 -7 -20t-17 -9q-8 0 -14.5 6.5t-6.5 15.5q0 24 21 42.5t53 31.5t70 19.5t71 6.5q39 0 80.5 -8t73.5 -23q15 45 25 86t10 83q0 52 -11 87t-31 56.5t-48 30.5t-62 9q-64 0 -128.5 -32.5t-124.5 -87t-111.5 -127.5t-90 -153.5t-60.5 -164
t-22 -160.5v-44zM1144 977q-7 6 -11.5 15t-4.5 21q0 14 10.5 24.5t25.5 10.5q13 0 23.5 -9.5t10.5 -25.5q0 -17 -12 -28.5t-28 -18.5l-17 -7l-6 9zM1287 977q-7 6 -11.5 15t-4.5 21q0 14 10.5 24.5t25.5 10.5q13 0 23.5 -9.5t10.5 -25.5q0 -17 -12 -28.5t-28 -18.5l-17 -7
l-6 9z" />
    <glyph glyph-name="multiply" unicode="&#xd7;" horiz-adv-x="705" 
d="M428 233l-134 -135l-23 24l134 134l-132 132l20 21l132 -132l132 131l23 -23l-131 -132l131 -131l-21 -20z" />
    <glyph glyph-name="Oslash" unicode="&#xd8;" horiz-adv-x="1297" 
d="M569 -200q-11 28 -19 57.5t-12 60.5l-4 33q-69 34 -103.5 98.5t-34.5 149.5q0 84 28.5 168.5t78.5 162.5t118.5 145.5t148 117t167.5 78t178 28.5q63 0 115 -15t91 -41l123 171l18 -13l-123 -171q48 -37 71.5 -87.5t23.5 -107.5q0 -30 -4.5 -51t-11.5 -33.5t-15.5 -18
t-16.5 -5.5q-17 0 -17 18q0 9 7 18t15 19t15 22t7 28q0 57 -21.5 103.5t-63.5 79.5l-80 -111q72 -54 72 -163q0 -96 -35 -192q36 -20 67.5 -51.5t55.5 -71.5t37.5 -86.5t13.5 -95.5q0 -125 -42.5 -218t-112 -155.5t-158 -93.5t-181.5 -31q-71 0 -131 17t-108.5 47t-85 72.5
t-60.5 93.5l-111 -154l-18 14zM1279 331q-34 -83 -89.5 -156.5t-130.5 -129t-169.5 -88.5t-205.5 -35l-69 -97q19 -54 50.5 -101.5t75 -83t100 -56t125.5 -20.5q80 0 163.5 27t152 85t112 149t43.5 219q0 91 -43 166.5t-115 120.5zM588 -45q17 -8 38.5 -12t38.5 -4h4
l316 438q-32 -8 -59 -20t-42 -27q-9 -9 -11.5 -20.5t-4.5 -26.5q-2 -14 -8.5 -26t-22.5 -12q-22 0 -22 25q0 22 15 42.5t40.5 37.5t59 30t71.5 19l216 300q-37 25 -92 25q-64 0 -128.5 -32.5t-124.5 -87t-111.5 -127.5t-90 -153.5t-60.5 -164t-22 -160.5v-44zM1130 740
q56 0 100 -23l81 112q-38 26 -87 40.5t-109 14.5q-95 0 -181 -33.5t-160.5 -89t-134.5 -128t-103 -150t-66 -154.5t-23 -142q0 -63 22.5 -116.5t64.5 -85.5q0 85 22.5 174t63 173t96 158.5t121.5 130t140.5 87.5t152.5 32zM1064 387q-11 0 -23 -1t-24 -3l-319 -443
q103 6 189.5 43t154 94.5t116 129.5t77.5 149q-30 14 -69 22.5t-102 8.5zM1277 541q0 54 -11.5 88t-31.5 56l-203 -282q8 1 16.5 1.5t16.5 0.5q51 0 98.5 -9t79.5 -24q15 45 25 86t10 83zM591 -69q5 -42 15 -79l50 69q-17 1 -34.5 3.5t-30.5 6.5z" />
    <glyph glyph-name="Ugrave" unicode="&#xd9;" horiz-adv-x="1349" 
d="M1286 543q-51 42 -80 105.5t-30 145.5q-42 20 -81.5 43.5t-77.5 48.5q-12 8 -19 16.5t-7 21.5q0 11 7.5 19t21.5 8q6 0 14 -2t11 -6q37 -46 68.5 -73t63.5 -46q3 22 10 42t18.5 35.5t28 24.5t37.5 9q30 0 50.5 -15t33 -38.5t18 -51.5t5.5 -55q0 -52 -11 -116.5
t-33 -127.5q54 -46 142 -73.5t187 -27.5q73 0 143.5 15.5t126 50.5t89.5 90t34 135q0 44 -14.5 79.5t-39.5 60.5t-57.5 38.5t-68.5 13.5q-16 0 -33.5 -5t-31.5 -16q-8 -7 -13.5 -17t-10 -19.5t-10 -16.5t-13.5 -7q-16 0 -16 19q0 18 10.5 32.5t28.5 25t41 16t49 5.5
q41 0 77 -15t62.5 -42t42 -65.5t15.5 -85.5q0 -84 -35.5 -142.5t-93 -95t-131.5 -53.5t-150 -17q-103 0 -188.5 25.5t-148.5 71.5q-23 -54 -51 -103.5t-60 -101.5q-19 -31 -38 -65t-34 -69t-24.5 -70.5t-9.5 -68.5q0 -38 18.5 -54t44.5 -16q28 0 56 9.5t53.5 23.5t47.5 31.5
t39 33.5l10 -12q-15 -15 -39.5 -34t-54.5 -36t-62.5 -28.5t-62.5 -11.5q-20 0 -40 5.5t-35.5 17.5t-25 31t-9.5 46q0 26 5 56t14 60q-42 -48 -81.5 -89t-78.5 -71t-78.5 -46.5t-81.5 -16.5q-35 0 -60.5 10.5t-42.5 28.5t-25.5 41.5t-8.5 50.5q0 56 35 109l178 273
q33 53 50 111t15.5 114.5t-22.5 108t-64.5 90.5t-110.5 62t-160 23q-106 0 -192.5 -30.5t-148 -83.5t-95 -124t-33.5 -152q0 -88 31 -151.5t78.5 -105t104.5 -61t109 -19.5q67 0 123 20.5t96 56t62.5 83.5t22.5 102q0 38 -13 72.5t-36.5 61t-57 42t-74.5 15.5
q-16 0 -35.5 -4t-32.5 -12q-14 -8 -17 -20.5t-3 -16.5q-1 -9 -5 -17t-15 -8q-8 0 -13 6t-5 14q0 18 10.5 32t28 24t40.5 15t48 5q41 0 77.5 -15t63.5 -42.5t42.5 -66t15.5 -84.5q0 -60 -24.5 -111t-68 -88.5t-102 -58.5t-127.5 -21q-55 0 -115 20t-110.5 63t-83.5 110
t-33 160q0 90 38 165t103.5 129t154.5 84.5t191 30.5q98 0 173.5 -24t127.5 -65t81.5 -94.5t36.5 -113.5t-8 -122t-52 -119l-174 -263q-46 -70 -46 -128q0 -42 24.5 -64.5t62.5 -22.5q46 0 95 28t100 77t102 115.5t101 143.5q34 52 66.5 104t62.5 118zM1253 787q8 -5 8 -12
q0 -5 -3.5 -7.5t-7.5 -2.5q-1 0 -9 2l-22 8t-22 9q2 -75 28.5 -128t68.5 -93q20 52 30.5 109.5t10.5 108.5q0 22 -4 46.5t-12 44t-20.5 32.5t-28.5 13q-29 0 -49 -28t-24 -76q14 -7 27.5 -13.5t28.5 -12.5z" />
    <glyph glyph-name="Uacute" unicode="&#xda;" horiz-adv-x="1349" 
d="M1286 543q-51 43 -80.5 106.5t-29.5 148.5q0 25 5.5 49.5t17.5 44t30 31.5t42 12q30 0 50.5 -15t33 -38.5t18 -51.5t5.5 -55q0 -52 -11 -116.5t-33 -127.5q54 -46 142 -73.5t187 -27.5q73 0 143.5 15.5t126 50.5t89.5 90t34 135q0 44 -14.5 79.5t-39.5 60.5t-57.5 38.5
t-68.5 13.5q-16 0 -33.5 -5t-31.5 -16q-8 -7 -13.5 -17t-10 -19.5t-10 -16.5t-13.5 -7q-16 0 -16 19q0 18 10.5 32.5t28.5 25t41 16t49 5.5q41 0 77 -15t62.5 -42t42 -65.5t15.5 -85.5q0 -84 -35.5 -142.5t-93 -95t-131.5 -53.5t-150 -17q-103 0 -188.5 25.5t-148.5 71.5
q-23 -54 -51 -103.5t-60 -101.5q-19 -31 -38 -65t-34 -69t-24.5 -70.5t-9.5 -68.5q0 -38 18.5 -54t44.5 -16q28 0 56 9.5t53.5 23.5t47.5 31.5t39 33.5l10 -12q-15 -15 -39.5 -34t-54.5 -36t-62.5 -28.5t-62.5 -11.5q-20 0 -40 5.5t-35.5 17.5t-25 31t-9.5 46q0 26 5 56
t14 60q-42 -48 -81.5 -89t-78.5 -71t-78.5 -46.5t-81.5 -16.5q-35 0 -60.5 10.5t-42.5 28.5t-25.5 41.5t-8.5 50.5q0 56 35 109l178 273q33 53 50 111t15.5 114.5t-22.5 108t-64.5 90.5t-110.5 62t-160 23q-106 0 -192.5 -30.5t-148 -83.5t-95 -124t-33.5 -152
q0 -88 31 -151.5t78.5 -105t104.5 -61t109 -19.5q67 0 123 20.5t96 56t62.5 83.5t22.5 102q0 38 -13 72.5t-36.5 61t-57 42t-74.5 15.5q-16 0 -35.5 -4t-32.5 -12q-14 -8 -17 -20.5t-3 -16.5q-1 -9 -5 -17t-15 -8q-8 0 -13 6t-5 14q0 18 10.5 32t28 24t40.5 15t48 5
q41 0 77.5 -15t63.5 -42.5t42.5 -66t15.5 -84.5q0 -60 -24.5 -111t-68 -88.5t-102 -58.5t-127.5 -21q-55 0 -115 20t-110.5 63t-83.5 110t-33 160q0 90 38 165t103.5 129t154.5 84.5t191 30.5q98 0 173.5 -24t127.5 -65t81.5 -94.5t36.5 -113.5t-8 -122t-52 -119l-174 -263
q-46 -70 -46 -128q0 -42 24.5 -64.5t62.5 -22.5q46 0 95 28t100 77t102 115.5t101 143.5q34 52 66.5 104t62.5 118zM1270 917q-32 0 -52.5 -33t-20.5 -87q0 -81 26 -136.5t71 -97.5q20 52 30.5 109.5t10.5 108.5q0 22 -4 46.5t-12 44t-20.5 32.5t-28.5 13zM1039 922
q28 12 53 24.5t50 30t50.5 41.5t54.5 60q3 4 11 6t14 2q14 0 21.5 -8t7.5 -19q0 -13 -7 -21.5t-19 -16.5q-54 -34 -107.5 -65t-116.5 -54q-8 -2 -9 -2q-4 0 -7.5 2.5t-3.5 7.5q0 7 8 12z" />
    <glyph glyph-name="Ucircumflex" unicode="&#xdb;" horiz-adv-x="1349" 
d="M1286 543q-51 43 -80.5 106.5t-29.5 148.5q0 25 5.5 49.5t17.5 44t30 31.5t42 12q30 0 50.5 -15t33 -38.5t18 -51.5t5.5 -55q0 -52 -11 -116.5t-33 -127.5q54 -46 142 -73.5t187 -27.5q73 0 143.5 15.5t126 50.5t89.5 90t34 135q0 44 -14.5 79.5t-39.5 60.5t-57.5 38.5
t-68.5 13.5q-16 0 -33.5 -5t-31.5 -16q-8 -7 -13.5 -17t-10 -19.5t-10 -16.5t-13.5 -7q-16 0 -16 19q0 18 10.5 32.5t28.5 25t41 16t49 5.5q41 0 77 -15t62.5 -42t42 -65.5t15.5 -85.5q0 -84 -35.5 -142.5t-93 -95t-131.5 -53.5t-150 -17q-103 0 -188.5 25.5t-148.5 71.5
q-23 -54 -51 -103.5t-60 -101.5q-19 -31 -38 -65t-34 -69t-24.5 -70.5t-9.5 -68.5q0 -38 18.5 -54t44.5 -16q28 0 56 9.5t53.5 23.5t47.5 31.5t39 33.5l10 -12q-15 -15 -39.5 -34t-54.5 -36t-62.5 -28.5t-62.5 -11.5q-20 0 -40 5.5t-35.5 17.5t-25 31t-9.5 46q0 26 5 56
t14 60q-42 -48 -81.5 -89t-78.5 -71t-78.5 -46.5t-81.5 -16.5q-35 0 -60.5 10.5t-42.5 28.5t-25.5 41.5t-8.5 50.5q0 56 35 109l178 273q33 53 50 111t15.5 114.5t-22.5 108t-64.5 90.5t-110.5 62t-160 23q-106 0 -192.5 -30.5t-148 -83.5t-95 -124t-33.5 -152
q0 -88 31 -151.5t78.5 -105t104.5 -61t109 -19.5q67 0 123 20.5t96 56t62.5 83.5t22.5 102q0 38 -13 72.5t-36.5 61t-57 42t-74.5 15.5q-16 0 -35.5 -4t-32.5 -12q-14 -8 -17 -20.5t-3 -16.5q-1 -9 -5 -17t-15 -8q-8 0 -13 6t-5 14q0 18 10.5 32t28 24t40.5 15t48 5
q41 0 77.5 -15t63.5 -42.5t42.5 -66t15.5 -84.5q0 -60 -24.5 -111t-68 -88.5t-102 -58.5t-127.5 -21q-55 0 -115 20t-110.5 63t-83.5 110t-33 160q0 90 38 165t103.5 129t154.5 84.5t191 30.5q98 0 173.5 -24t127.5 -65t81.5 -94.5t36.5 -113.5t-8 -122t-52 -119l-174 -263
q-46 -70 -46 -128q0 -42 24.5 -64.5t62.5 -22.5q46 0 95 28t100 77t102 115.5t101 143.5q34 52 66.5 104t62.5 118zM1270 917q-32 0 -52.5 -33t-20.5 -87q0 -81 26 -136.5t71 -97.5q20 52 30.5 109.5t10.5 108.5q0 22 -4 46.5t-12 44t-20.5 32.5t-28.5 13zM1369 1180
q-3 -22 0.5 -51.5t13.5 -56t27.5 -45t43.5 -18.5q2 -8 2 -10q0 -14 -12 -24t-29 -10q-30 0 -48.5 19t-28.5 46t-13 57.5t-3 53.5q-51 -57 -106.5 -96.5t-116.5 -64.5l-4 20q72 28 127.5 72.5t106.5 107.5h40z" />
    <glyph glyph-name="Udieresis" unicode="&#xdc;" horiz-adv-x="1349" 
d="M1286 543q-51 43 -80.5 106.5t-29.5 148.5q0 25 5.5 49.5t17.5 44t30 31.5t42 12q30 0 50.5 -15t33 -38.5t18 -51.5t5.5 -55q0 -52 -11 -116.5t-33 -127.5q54 -46 142 -73.5t187 -27.5q73 0 143.5 15.5t126 50.5t89.5 90t34 135q0 44 -14.5 79.5t-39.5 60.5t-57.5 38.5
t-68.5 13.5q-16 0 -33.5 -5t-31.5 -16q-8 -7 -13.5 -17t-10 -19.5t-10 -16.5t-13.5 -7q-16 0 -16 19q0 18 10.5 32.5t28.5 25t41 16t49 5.5q41 0 77 -15t62.5 -42t42 -65.5t15.5 -85.5q0 -84 -35.5 -142.5t-93 -95t-131.5 -53.5t-150 -17q-103 0 -188.5 25.5t-148.5 71.5
q-23 -54 -51 -103.5t-60 -101.5q-19 -31 -38 -65t-34 -69t-24.5 -70.5t-9.5 -68.5q0 -38 18.5 -54t44.5 -16q28 0 56 9.5t53.5 23.5t47.5 31.5t39 33.5l10 -12q-15 -15 -39.5 -34t-54.5 -36t-62.5 -28.5t-62.5 -11.5q-20 0 -40 5.5t-35.5 17.5t-25 31t-9.5 46q0 26 5 56
t14 60q-42 -48 -81.5 -89t-78.5 -71t-78.5 -46.5t-81.5 -16.5q-35 0 -60.5 10.5t-42.5 28.5t-25.5 41.5t-8.5 50.5q0 56 35 109l178 273q33 53 50 111t15.5 114.5t-22.5 108t-64.5 90.5t-110.5 62t-160 23q-106 0 -192.5 -30.5t-148 -83.5t-95 -124t-33.5 -152
q0 -88 31 -151.5t78.5 -105t104.5 -61t109 -19.5q67 0 123 20.5t96 56t62.5 83.5t22.5 102q0 38 -13 72.5t-36.5 61t-57 42t-74.5 15.5q-16 0 -35.5 -4t-32.5 -12q-14 -8 -17 -20.5t-3 -16.5q-1 -9 -5 -17t-15 -8q-8 0 -13 6t-5 14q0 18 10.5 32t28 24t40.5 15t48 5
q41 0 77.5 -15t63.5 -42.5t42.5 -66t15.5 -84.5q0 -60 -24.5 -111t-68 -88.5t-102 -58.5t-127.5 -21q-55 0 -115 20t-110.5 63t-83.5 110t-33 160q0 90 38 165t103.5 129t154.5 84.5t191 30.5q98 0 173.5 -24t127.5 -65t81.5 -94.5t36.5 -113.5t-8 -122t-52 -119l-174 -263
q-46 -70 -46 -128q0 -42 24.5 -64.5t62.5 -22.5q46 0 95 28t100 77t102 115.5t101 143.5q34 52 66.5 104t62.5 118zM1270 917q-32 0 -52.5 -33t-20.5 -87q0 -81 26 -136.5t71 -97.5q20 52 30.5 109.5t10.5 108.5q0 22 -4 46.5t-12 44t-20.5 32.5t-28.5 13zM1095 764
q-7 6 -11.5 15t-4.5 21q0 14 10.5 24.5t25.5 10.5q13 0 23.5 -9.5t10.5 -25.5q0 -17 -12 -28.5t-28 -18.5l-17 -7l-6 9zM1238 764q-7 6 -11.5 15t-4.5 21q0 14 10.5 24.5t25.5 10.5q13 0 23.5 -9.5t10.5 -25.5q0 -17 -12 -28.5t-28 -18.5l-17 -7l-6 9z" />
    <glyph glyph-name="Yacute" unicode="&#xdd;" horiz-adv-x="1572" 
d="M625 666q1 -11 -2.5 -23.5t-10.5 -23.5t-16 -18.5t-18 -7.5q-23 0 -23 27q0 18 11 32.5t29.5 24.5t42 15.5t48.5 5.5q41 0 77 -15t62.5 -42t42 -65.5t15.5 -85.5q0 -60 -24.5 -111t-67 -88.5t-101 -58.5t-127.5 -21q-56 0 -116 19.5t-110.5 62t-83 109.5t-32.5 162
q0 90 38 165t103.5 129t154.5 84.5t191 30.5q98 0 173.5 -24t127.5 -65t81.5 -94.5t36.5 -113.5t-8 -122t-52 -119l-168 -263q-23 -35 -38 -71t-15 -64q0 -35 22.5 -60t60.5 -25q52 0 110.5 43.5t116.5 116t112.5 165.5t98.5 192.5t74 197t39 178.5q12 14 26 19.5t26 5.5
q32 0 45 -25t13 -60q0 -100 -15.5 -220.5t-50 -250t-89.5 -262t-133 -256t-181 -231t-233.5 -187.5t-291 -126t-353.5 -46q-126 0 -229 32.5t-176.5 89t-113.5 133t-40 164.5q0 78 27 138t72 100.5t104 61.5t124 21q61 0 110.5 -23.5t83.5 -62t52.5 -86.5t18.5 -96
q0 -46 -17 -75.5t-48 -29.5q-14 0 -21.5 10t-7.5 24q0 27 20 49.5t46 39.5q0 38 -16 79t-46.5 75t-75 56t-100.5 22q-61 0 -115.5 -19.5t-96 -58t-65.5 -95t-24 -130.5q0 -83 37.5 -155.5t107.5 -125.5t169 -83.5t222 -30.5q178 0 328 44.5t273 122.5t221.5 182.5t174 224.5
t129 249t87.5 256t49.5 245.5t14.5 216.5q0 21 -8 26t-16 5q-10 -70 -40 -162t-74.5 -189t-100 -191t-116 -167.5t-123.5 -118.5t-122 -45q-35 0 -60.5 10t-42.5 27t-25 40t-8 50t12.5 58.5t29.5 57.5l172 273q33 53 50 111t15.5 115t-22.5 108.5t-64.5 91t-110.5 62.5
t-160 23q-97 0 -182 -29t-148.5 -81t-100 -124t-36.5 -158q0 -85 28.5 -148t74 -105t103 -63t115.5 -21q71 0 127.5 21.5t95.5 57.5t60 83.5t21 99.5q0 41 -13 76.5t-37 61.5t-57.5 41t-73.5 15q-31 0 -60 -17zM1233 864q28 12 53 24.5t50 30t50.5 41.5t54.5 60q3 4 11 6
t14 2q14 0 21.5 -8t7.5 -19q0 -13 -7 -21.5t-19 -16.5q-54 -34 -107.5 -65t-116.5 -54q-8 -2 -9 -2q-4 0 -7.5 2.5t-3.5 7.5q0 7 8 12z" />
    <glyph glyph-name="Thorn" unicode="&#xde;" horiz-adv-x="583" 
d="M464 506l-274 -486h151l-9 -20h-313l5 20h101l362 640h-106l5 20h308l-4 -20h-139l-76 -134h38q49 0 84 -11t57 -30t32.5 -44.5t10.5 -53.5q0 -52 -26.5 -98t-68.5 -81t-93 -55.5t-100 -20.5q-29 0 -54 7t-48 24l12 14q34 -22 76 -22q41 0 83 18.5t76.5 50t56 74.5
t21.5 92q0 23 -9.5 44t-27.5 37t-44 25.5t-59 9.5h-28z" />
    <glyph glyph-name="germandbls" unicode="&#xdf;" horiz-adv-x="371" 
d="M168 6q12 -16 44 -16q14 0 27 8t22.5 20.5t15.5 29t6 33.5q0 35 -8 77t-8 84q0 77 26 129.5t69.5 87.5t98.5 55t114 33q68 15 127 28t102 32.5t67.5 48.5t24.5 76q0 58 -36.5 89.5t-105.5 31.5q-58 0 -118 -21t-122.5 -71.5t-126.5 -134.5t-130 -210l-237 -450
q-62 -117 -128 -214.5t-144 -167.5t-171.5 -109t-210.5 -39q-65 0 -117.5 17.5t-89.5 49t-57 75t-20 96.5q0 55 23 101t63 80t93 53t112 19q38 0 71 -10t57.5 -27.5t38.5 -40.5t14 -50q0 -35 -16.5 -62.5t-43.5 -46.5t-62.5 -29t-74.5 -10q-26 0 -45.5 9t-19.5 22
q0 12 11.5 18t28.5 6q20 0 34.5 -10.5t17.5 -24.5q28 0 54.5 9t47.5 25t33.5 39t12.5 50q0 26 -12 47.5t-33 37.5t-50.5 24.5t-64.5 8.5q-57 0 -106 -18t-85 -49.5t-57 -74.5t-21 -94q0 -52 19.5 -93t54.5 -69.5t82 -44t103 -15.5q87 0 166.5 30.5t155.5 96.5t150.5 171
t152.5 255l219 416q63 120 126 204.5t129.5 138.5t138.5 79t153 25q33 0 64 -8.5t55.5 -25.5t39.5 -43t15 -61q0 -52 -31 -84.5t-81 -53.5t-112.5 -34.5t-124.5 -27.5q-51 -11 -98 -30t-83.5 -51.5t-58 -81.5t-21.5 -120q0 -39 9 -80.5t9 -79.5q0 -57 -35.5 -85.5
t-92.5 -28.5q-23 0 -41 6.5t-31 16.5t-20 23t-7 25q0 17 9.5 29.5t29.5 12.5q17 0 27 -13.5t10 -27.5q0 -12 -4 -24t-12 -17z" />
    <glyph glyph-name="agrave" unicode="&#xe0;" 
d="M365 352q20 0 32.5 -5.5t12.5 -19.5l-127 -187q-5 -8 -13 -20.5t-16 -26.5t-13.5 -28.5t-5.5 -26.5q0 -13 7 -21t24 -8q32 0 69.5 18.5t75.5 50.5l10 -13q-21 -16 -44.5 -32t-47.5 -28.5t-49 -20t-50 -7.5q-26 0 -37.5 15.5t-11.5 36.5q0 18 11 48q-14 -15 -29.5 -29
t-31 -24.5t-30.5 -17t-28 -6.5q-55 0 -55 56q0 49 30.5 98t76.5 88.5t100 64.5t102 25q12 0 23 -3zM340 313q-8 3 -18 3q-35 0 -78 -24t-80 -61t-62 -80t-25 -82q0 -30 25 -30q23 0 50.5 20.5t55.5 53.5zM479 428q8 -5 8 -12q0 -5 -3.5 -7.5t-7.5 -2.5q-1 0 -9 2
q-63 23 -116.5 54t-107.5 65q-12 8 -19 16.5t-7 21.5q0 11 7.5 19t21.5 8q6 0 14 -2t11 -6q29 -36 54.5 -60.5t50 -41.5t49.5 -29.5t54 -24.5z" />
    <glyph glyph-name="aacute" unicode="&#xe1;" 
d="M365 352q20 0 32.5 -5.5t12.5 -19.5l-127 -187q-5 -8 -13 -20.5t-16 -26.5t-13.5 -28.5t-5.5 -26.5q0 -13 7 -21t24 -8q32 0 69.5 18.5t75.5 50.5l10 -13q-21 -16 -44.5 -32t-47.5 -28.5t-49 -20t-50 -7.5q-26 0 -37.5 15.5t-11.5 36.5q0 18 11 48q-14 -15 -29.5 -29
t-31 -24.5t-30.5 -17t-28 -6.5q-55 0 -55 56q0 49 30.5 98t76.5 88.5t100 64.5t102 25q12 0 23 -3zM340 313q-8 3 -18 3q-35 0 -78 -24t-80 -61t-62 -80t-25 -82q0 -30 25 -30q23 0 50.5 20.5t55.5 53.5zM306 428q28 12 53 24.5t50 30t50.5 41.5t54.5 60q3 4 11 6t14 2
q14 0 21.5 -8t7.5 -19q0 -13 -7 -21.5t-19 -16.5q-54 -34 -107.5 -65t-116.5 -54q-8 -2 -9 -2q-4 0 -7.5 2.5t-3.5 7.5q0 7 8 12z" />
    <glyph glyph-name="acircumflex" unicode="&#xe2;" 
d="M365 352q20 0 32.5 -5.5t12.5 -19.5l-127 -187q-5 -8 -13 -20.5t-16 -26.5t-13.5 -28.5t-5.5 -26.5q0 -13 7 -21t24 -8q32 0 69.5 18.5t75.5 50.5l10 -13q-21 -16 -44.5 -32t-47.5 -28.5t-49 -20t-50 -7.5q-26 0 -37.5 15.5t-11.5 36.5q0 18 11 48q-14 -15 -29.5 -29
t-31 -24.5t-30.5 -17t-28 -6.5q-55 0 -55 56q0 49 30.5 98t76.5 88.5t100 64.5t102 25q12 0 23 -3zM340 313q-8 3 -18 3q-35 0 -78 -24t-80 -61t-62 -80t-25 -82q0 -30 25 -30q23 0 50.5 20.5t55.5 53.5zM480 619q-3 -22 0.5 -51.5t13.5 -56t27.5 -45t43.5 -18.5q2 -8 2 -10
q0 -14 -12 -24t-29 -10q-30 0 -48.5 19t-28.5 46t-13 57.5t-3 53.5q-51 -57 -106.5 -96.5t-116.5 -64.5l-4 20q72 28 127.5 72.5t106.5 107.5h40z" />
    <glyph glyph-name="atilde" unicode="&#xe3;" 
d="M365 352q20 0 32.5 -5.5t12.5 -19.5l-127 -187q-5 -8 -13 -20.5t-16 -26.5t-13.5 -28.5t-5.5 -26.5q0 -13 7 -21t24 -8q32 0 69.5 18.5t75.5 50.5l10 -13q-21 -16 -44.5 -32t-47.5 -28.5t-49 -20t-50 -7.5q-26 0 -37.5 15.5t-11.5 36.5q0 18 11 48q-14 -15 -29.5 -29
t-31 -24.5t-30.5 -17t-28 -6.5q-55 0 -55 56q0 49 30.5 98t76.5 88.5t100 64.5t102 25q12 0 23 -3zM340 313q-8 3 -18 3q-35 0 -78 -24t-80 -61t-62 -80t-25 -82q0 -30 25 -30q23 0 50.5 20.5t55.5 53.5zM210 481q13 29 39 46.5t56 17.5q18 0 35 -8.5t33.5 -18.5t33.5 -18.5
t36 -8.5q26 0 41 11.5t27 36.5l18 -9q-14 -32 -39 -51.5t-58 -19.5q-18 0 -35.5 8.5t-34.5 19t-33.5 19t-32.5 8.5q-22 0 -40 -9t-29 -32z" />
    <glyph glyph-name="adieresis" unicode="&#xe4;" 
d="M365 352q20 0 32.5 -5.5t12.5 -19.5l-127 -187q-5 -8 -13 -20.5t-16 -26.5t-13.5 -28.5t-5.5 -26.5q0 -13 7 -21t24 -8q32 0 69.5 18.5t75.5 50.5l10 -13q-21 -16 -44.5 -32t-47.5 -28.5t-49 -20t-50 -7.5q-26 0 -37.5 15.5t-11.5 36.5q0 18 11 48q-14 -15 -29.5 -29
t-31 -24.5t-30.5 -17t-28 -6.5q-55 0 -55 56q0 49 30.5 98t76.5 88.5t100 64.5t102 25q12 0 23 -3zM340 313q-8 3 -18 3q-35 0 -78 -24t-80 -61t-62 -80t-25 -82q0 -30 25 -30q23 0 50.5 20.5t55.5 53.5zM329 472q-7 6 -11.5 15t-4.5 21q0 14 10.5 24.5t25.5 10.5
q13 0 23.5 -9.5t10.5 -25.5q0 -17 -12 -28.5t-28 -18.5l-17 -7l-6 9zM472 472q-7 6 -11.5 15t-4.5 21q0 14 10.5 24.5t25.5 10.5q13 0 23.5 -9.5t10.5 -25.5q0 -17 -12 -28.5t-28 -18.5l-17 -7l-6 9z" />
    <glyph glyph-name="aring" unicode="&#xe5;" 
d="M365 352q20 0 32.5 -5.5t12.5 -19.5l-127 -187q-5 -8 -13 -20.5t-16 -26.5t-13.5 -28.5t-5.5 -26.5q0 -13 7 -21t24 -8q32 0 69.5 18.5t75.5 50.5l10 -13q-21 -16 -44.5 -32t-47.5 -28.5t-49 -20t-50 -7.5q-26 0 -37.5 15.5t-11.5 36.5q0 18 11 48q-14 -15 -29.5 -29
t-31 -24.5t-30.5 -17t-28 -6.5q-55 0 -55 56q0 49 30.5 98t76.5 88.5t100 64.5t102 25q12 0 23 -3zM340 313q-8 3 -18 3q-35 0 -78 -24t-80 -61t-62 -80t-25 -82q0 -30 25 -30q23 0 50.5 20.5t55.5 53.5zM469 622q26 0 36.5 -15.5t10.5 -39.5q0 -20 -10.5 -39.5t-28 -34.5
t-40 -24.5t-46.5 -9.5q-26 0 -38.5 13.5t-12.5 33.5q0 22 11.5 43t30.5 37t41.5 26t45.5 10zM447 600q-12 0 -24 -7t-21.5 -18.5t-15.5 -27t-6 -31.5t7 -26t21 -10q24 0 45.5 24t21.5 60q0 15 -7 25.5t-21 10.5z" />
    <glyph glyph-name="ae" unicode="&#xe6;" horiz-adv-x="493" 
d="M251 177q19 37 24 61.5t0 39t-18 20.5t-30 6q-48 0 -95.5 -22.5t-86.5 -54.5l-10 12q55 45 115.5 70t117.5 25q29 0 48.5 -18t19.5 -49q38 33 78 49t69 16q24 0 32.5 -9t8.5 -27q0 -15 -16 -32.5t-45 -34.5t-69 -31.5t-88 -22.5q-15 -26 -24.5 -53.5t-9.5 -54.5
q0 -67 62 -67q48 0 95.5 22.5t86.5 54.5l10 -12q-55 -46 -115 -70.5t-124 -24.5q-38 0 -58 23.5t-20 68.5v12t2 12q-14 -15 -32 -32.5t-38 -32t-41 -24.5t-41 -10q-19 0 -33.5 11t-14.5 35q0 29 17.5 54t45.5 42q27 17 67 30t88 13v-14q-42 0 -77 -15t-52 -30
q-16 -14 -23.5 -30t-7.5 -30t7.5 -20.5t18.5 -6.5q12 0 27.5 7.5t31.5 20t30.5 28t25.5 31.5l31 45zM444 300q-10 0 -25.5 -8t-32.5 -22.5t-35 -34t-33 -41.5q30 6 56 16t46 21.5t31.5 24t11.5 23.5q0 9 -4 15t-15 6z" />
    <glyph glyph-name="ccedilla" unicode="&#xe7;" horiz-adv-x="306" 
d="M270 308q-26 -7 -58 -31t-60.5 -57.5t-47.5 -73.5t-19 -79q0 -67 62 -67q48 0 95.5 22.5t86.5 54.5l10 -12q-96 -81 -205 -93q-25 -13 -25 -32q0 -9 12 -17.5t27 -19t27 -23.5t12 -31q0 -23 -15 -43.5t-38 -36.5t-52 -25.5t-56 -9.5q-29 0 -48 10l6 14q24 -8 43 -8
q22 0 42 7t35.5 19.5t24.5 29t9 36.5q0 13 -11.5 22t-25 18t-24.5 20.5t-11 28.5q0 22 26 40q-70 5 -70 91q0 27 14 57.5t37 60.5t53 57.5t62 48.5t64 33.5t60 12.5t41 -10.5t13 -25.5q0 -17 -12.5 -27.5t-32.5 -10.5q-22 0 -36.5 15t-14.5 35z" />
    <glyph glyph-name="egrave" unicode="&#xe8;" horiz-adv-x="306" 
d="M119 175q-15 -26 -24.5 -53.5t-9.5 -54.5q0 -67 62 -67q48 0 95.5 22.5t86.5 54.5l10 -12q-55 -46 -115 -70.5t-124 -24.5q-38 0 -58 23.5t-20 68.5q0 30 13 62t35 62t50 56.5t58.5 46.5t61 31.5t56.5 11.5q41 0 41 -36q0 -15 -16 -32.5t-45 -34.5t-69 -31.5t-88 -22.5z
M257 300q-10 0 -25.5 -8t-32.5 -22.5t-35 -34t-33 -41.5q30 6 56 16t46 21.5t31.5 24t11.5 23.5q0 9 -4 15t-15 6zM431 428q8 -5 8 -12q0 -5 -3.5 -7.5t-7.5 -2.5q-1 0 -9 2q-63 23 -116.5 54t-107.5 65q-12 8 -19 16.5t-7 21.5q0 11 7.5 19t21.5 8q6 0 14 -2t11 -6
q29 -36 54.5 -60.5t50 -41.5t49.5 -29.5t54 -24.5z" />
    <glyph glyph-name="eacute" unicode="&#xe9;" horiz-adv-x="306" 
d="M119 175q-15 -26 -24.5 -53.5t-9.5 -54.5q0 -67 62 -67q48 0 95.5 22.5t86.5 54.5l10 -12q-55 -46 -115 -70.5t-124 -24.5q-38 0 -58 23.5t-20 68.5q0 30 13 62t35 62t50 56.5t58.5 46.5t61 31.5t56.5 11.5q41 0 41 -36q0 -15 -16 -32.5t-45 -34.5t-69 -31.5t-88 -22.5z
M257 300q-10 0 -25.5 -8t-32.5 -22.5t-35 -34t-33 -41.5q30 6 56 16t46 21.5t31.5 24t11.5 23.5q0 9 -4 15t-15 6zM232 428q28 12 53 24.5t50 30t50.5 41.5t54.5 60q3 4 11 6t14 2q14 0 21.5 -8t7.5 -19q0 -13 -7 -21.5t-19 -16.5q-54 -34 -107.5 -65t-116.5 -54
q-8 -2 -9 -2q-4 0 -7.5 2.5t-3.5 7.5q0 7 8 12z" />
    <glyph glyph-name="ecircumflex" unicode="&#xea;" horiz-adv-x="306" 
d="M119 175q-15 -26 -24.5 -53.5t-9.5 -54.5q0 -67 62 -67q48 0 95.5 22.5t86.5 54.5l10 -12q-55 -46 -115 -70.5t-124 -24.5q-38 0 -58 23.5t-20 68.5q0 30 13 62t35 62t50 56.5t58.5 46.5t61 31.5t56.5 11.5q41 0 41 -36q0 -15 -16 -32.5t-45 -34.5t-69 -31.5t-88 -22.5z
M257 300q-10 0 -25.5 -8t-32.5 -22.5t-35 -34t-33 -41.5q30 6 56 16t46 21.5t31.5 24t11.5 23.5q0 9 -4 15t-15 6zM442 619q-3 -22 0.5 -51.5t13.5 -56t27.5 -45t43.5 -18.5q2 -8 2 -10q0 -14 -12 -24t-29 -10q-30 0 -48.5 19t-28.5 46t-13 57.5t-3 53.5
q-51 -57 -106.5 -96.5t-116.5 -64.5l-4 20q72 28 127.5 72.5t106.5 107.5h40z" />
    <glyph glyph-name="edieresis" unicode="&#xeb;" horiz-adv-x="306" 
d="M119 175q-15 -26 -24.5 -53.5t-9.5 -54.5q0 -67 62 -67q48 0 95.5 22.5t86.5 54.5l10 -12q-55 -46 -115 -70.5t-124 -24.5q-38 0 -58 23.5t-20 68.5q0 30 13 62t35 62t50 56.5t58.5 46.5t61 31.5t56.5 11.5q41 0 41 -36q0 -15 -16 -32.5t-45 -34.5t-69 -31.5t-88 -22.5z
M257 300q-10 0 -25.5 -8t-32.5 -22.5t-35 -34t-33 -41.5q30 6 56 16t46 21.5t31.5 24t11.5 23.5q0 9 -4 15t-15 6zM220 416q-7 6 -11.5 15t-4.5 21q0 14 10.5 24.5t25.5 10.5q13 0 23.5 -9.5t10.5 -25.5q0 -17 -12 -28.5t-28 -18.5l-17 -7l-6 9zM363 416q-7 6 -11.5 15
t-4.5 21q0 14 10.5 24.5t25.5 10.5q13 0 23.5 -9.5t10.5 -25.5q0 -17 -12 -28.5t-28 -18.5l-17 -7l-6 9z" />
    <glyph glyph-name="igrave" unicode="&#xec;" horiz-adv-x="216" 
d="M112 140q-5 -8 -13 -20.5t-16 -26.5t-13.5 -28.5t-5.5 -26.5q0 -13 7 -21t24 -8q32 0 73 18.5t79 50.5l10 -13q-21 -16 -45.5 -32t-50 -28.5t-51.5 -20t-51 -7.5q-26 0 -37.5 15.5t-11.5 36.5q0 23 14 52t37 67l107 182q5 1 8.5 1.5t7.5 0.5q29 0 29 -26zM376 428
q8 -5 8 -12q0 -5 -3.5 -7.5t-7.5 -2.5q-1 0 -9 2q-63 23 -116.5 54t-107.5 65q-12 8 -19 16.5t-7 21.5q0 11 7.5 19t21.5 8q6 0 14 -2t11 -6q29 -36 54.5 -60.5t50 -41.5t49.5 -29.5t54 -24.5z" />
    <glyph glyph-name="iacute" unicode="&#xed;" horiz-adv-x="216" 
d="M112 140q-5 -8 -13 -20.5t-16 -26.5t-13.5 -28.5t-5.5 -26.5q0 -13 7 -21t24 -8q32 0 73 18.5t79 50.5l10 -13q-21 -16 -45.5 -32t-50 -28.5t-51.5 -20t-51 -7.5q-26 0 -37.5 15.5t-11.5 36.5q0 23 14 52t37 67l107 182q5 1 8.5 1.5t7.5 0.5q29 0 29 -26zM159 428
q28 12 53 24.5t50 30t50.5 41.5t54.5 60q3 4 11 6t14 2q14 0 21.5 -8t7.5 -19q0 -13 -7 -21.5t-19 -16.5q-54 -34 -107.5 -65t-116.5 -54q-8 -2 -9 -2q-4 0 -7.5 2.5t-3.5 7.5q0 7 8 12z" />
    <glyph glyph-name="icircumflex" unicode="&#xee;" horiz-adv-x="216" 
d="M112 140q-5 -8 -13 -20.5t-16 -26.5t-13.5 -28.5t-5.5 -26.5q0 -13 7 -21t24 -8q32 0 73 18.5t79 50.5l10 -13q-21 -16 -45.5 -32t-50 -28.5t-51.5 -20t-51 -7.5q-26 0 -37.5 15.5t-11.5 36.5q0 23 14 52t37 67l107 182q5 1 8.5 1.5t7.5 0.5q29 0 29 -26zM364 619
q-3 -22 0.5 -51.5t13.5 -56t27.5 -45t43.5 -18.5q2 -8 2 -10q0 -14 -12 -24t-29 -10q-30 0 -48.5 19t-28.5 46t-13 57.5t-3 53.5q-51 -57 -106.5 -96.5t-116.5 -64.5l-4 20q72 28 127.5 72.5t106.5 107.5h40z" />
    <glyph glyph-name="idieresis" unicode="&#xef;" horiz-adv-x="216" 
d="M112 140q-5 -8 -13 -20.5t-16 -26.5t-13.5 -28.5t-5.5 -26.5q0 -13 7 -21t24 -8q32 0 73 18.5t79 50.5l10 -13q-21 -16 -45.5 -32t-50 -28.5t-51.5 -20t-51 -7.5q-26 0 -37.5 15.5t-11.5 36.5q0 23 14 52t37 67l107 182q5 1 8.5 1.5t7.5 0.5q29 0 29 -26zM168 465
q-7 6 -11.5 15t-4.5 21q0 14 10.5 24.5t25.5 10.5q13 0 23.5 -9.5t10.5 -25.5q0 -17 -12 -28.5t-28 -18.5l-17 -7l-6 9zM311 465q-7 6 -11.5 15t-4.5 21q0 14 10.5 24.5t25.5 10.5q13 0 23.5 -9.5t10.5 -25.5q0 -17 -12 -28.5t-28 -18.5l-17 -7l-6 9z" />
    <glyph glyph-name="eth" unicode="&#xf0;" 
d="M192 700l145 87q-47 87 -125.5 139.5t-183.5 52.5q-90 0 -163 -29t-124 -77t-79 -111.5t-28 -132.5q0 -58 18 -107.5t49.5 -86t75.5 -57t97 -20.5q46 0 85 15t67.5 42t45 64t16.5 81q0 42 -12 77t-33.5 59.5t-52 38.5t-67.5 14q-34 0 -62 -14t-48 -38q-8 -8 -10 -18.5
t-4 -21.5q-2 -12 -6.5 -20.5t-12.5 -8.5q-15 0 -15 24q0 15 12.5 35t34 38t50 30.5t60.5 12.5q40 0 73.5 -14t58.5 -40.5t39 -65t14 -86.5q0 -47 -17 -87.5t-48 -70.5t-73.5 -47t-94.5 -17q-54 0 -101 20t-82 57.5t-55.5 91t-20.5 119.5q0 72 29 139.5t83 119.5t130 83.5
t171 31.5q64 0 118 -14t97.5 -39.5t77.5 -60.5t58 -76l136 82l10 -14l-138 -83q28 -52 41.5 -109t13.5 -117q0 -55 -13.5 -119t-38.5 -127.5t-59.5 -122t-76.5 -103.5t-89.5 -72t-98.5 -27q-48 0 -48 56q0 48 28.5 97t72 88.5t95 64t98.5 24.5q13 0 25 -3q51 124 51 243
q0 57 -11.5 107t-32.5 95l-143 -86zM332 312q-24 0 -53 -12t-57.5 -32t-55.5 -46t-48 -54t-33.5 -56.5t-12.5 -53.5q0 -17 8.5 -25t19.5 -8q24 0 48 16.5t47.5 42.5t44.5 58t39 64t31.5 60t21.5 46z" />
    <glyph glyph-name="ntilde" unicode="&#xf1;" horiz-adv-x="414" 
d="M109 324q12 17 36 17q28 0 39.5 -18t11.5 -44v-17q24 35 57.5 52.5t68.5 17.5q27 0 42.5 -18t15.5 -44q0 -17 -7 -31.5t-17 -29.5l-39 -57q-5 -8 -14.5 -22t-18.5 -30.5t-16 -33t-7 -28.5q0 -13 7 -21t24 -8q32 0 70 18.5t76 50.5l10 -13q-21 -16 -44.5 -32t-48 -28.5
t-49.5 -20t-50 -7.5q-26 0 -37.5 15.5t-11.5 36.5q0 23 17.5 58.5t41.5 72.5l45 68q7 10 11.5 20t4.5 20q0 15 -7.5 26.5t-23.5 11.5q-21 0 -38.5 -11.5t-31.5 -29t-26 -37.5t-21 -36l-118 -206q-15 -5 -24 -5q-24 0 -24 21l112 195q9 17 14 33t5 36q0 22 -9 35.5t-26 22.5z
M210 481q13 29 39 46.5t56 17.5q18 0 35 -8.5t33.5 -18.5t33.5 -18.5t36 -8.5q26 0 41 11.5t27 36.5l18 -9q-14 -32 -39 -51.5t-58 -19.5q-18 0 -35.5 8.5t-34.5 19t-33.5 19t-32.5 8.5q-22 0 -40 -9t-29 -32z" />
    <glyph glyph-name="ograve" unicode="&#xf2;" horiz-adv-x="339" 
d="M318 332q25 0 38 -12.5t13 -34.5q0 -24 -13 -57t-41 -71q-26 -38 -57 -70.5t-64.5 -57t-67.5 -38.5t-66 -14q-26 0 -39 13.5t-13 36.5q0 25 12.5 58.5t40.5 71.5q27 37 58 69t64.5 55.5t67.5 37t67 13.5zM267 296q-38 0 -80.5 -39t-77.5 -100q-40 -70 -40 -112
q0 -31 34 -31q43 0 86.5 40t78.5 103q18 31 26 56t8 43q0 40 -35 40zM494 428q8 -5 8 -12q0 -5 -3.5 -7.5t-7.5 -2.5q-1 0 -9 2q-63 23 -116.5 54t-107.5 65q-12 8 -19 16.5t-7 21.5q0 11 7.5 19t21.5 8q6 0 14 -2t11 -6q29 -36 54.5 -60.5t50 -41.5t49.5 -29.5t54 -24.5z
" />
    <glyph glyph-name="oacute" unicode="&#xf3;" horiz-adv-x="339" 
d="M318 332q25 0 38 -12.5t13 -34.5q0 -24 -13 -57t-41 -71q-26 -38 -57 -70.5t-64.5 -57t-67.5 -38.5t-66 -14q-26 0 -39 13.5t-13 36.5q0 25 12.5 58.5t40.5 71.5q27 37 58 69t64.5 55.5t67.5 37t67 13.5zM267 296q-38 0 -80.5 -39t-77.5 -100q-40 -70 -40 -112
q0 -31 34 -31q43 0 86.5 40t78.5 103q18 31 26 56t8 43q0 40 -35 40zM239 428q28 12 53 24.5t50 30t50.5 41.5t54.5 60q3 4 11 6t14 2q14 0 21.5 -8t7.5 -19q0 -13 -7 -21.5t-19 -16.5q-54 -34 -107.5 -65t-116.5 -54q-8 -2 -9 -2q-4 0 -7.5 2.5t-3.5 7.5q0 7 8 12z" />
    <glyph glyph-name="ocircumflex" unicode="&#xf4;" horiz-adv-x="339" 
d="M318 332q25 0 38 -12.5t13 -34.5q0 -24 -13 -57t-41 -71q-26 -38 -57 -70.5t-64.5 -57t-67.5 -38.5t-66 -14q-26 0 -39 13.5t-13 36.5q0 25 12.5 58.5t40.5 71.5q27 37 58 69t64.5 55.5t67.5 37t67 13.5zM267 296q-38 0 -80.5 -39t-77.5 -100q-40 -70 -40 -112
q0 -31 34 -31q43 0 86.5 40t78.5 103q18 31 26 56t8 43q0 40 -35 40zM477 619q-3 -22 0.5 -51.5t13.5 -56t27.5 -45t43.5 -18.5q2 -8 2 -10q0 -14 -12 -24t-29 -10q-30 0 -48.5 19t-28.5 46t-13 57.5t-3 53.5q-51 -57 -106.5 -96.5t-116.5 -64.5l-4 20q72 28 127.5 72.5
t106.5 107.5h40z" />
    <glyph glyph-name="otilde" unicode="&#xf5;" horiz-adv-x="339" 
d="M318 332q25 0 38 -12.5t13 -34.5q0 -24 -13 -57t-41 -71q-26 -38 -57 -70.5t-64.5 -57t-67.5 -38.5t-66 -14q-26 0 -39 13.5t-13 36.5q0 25 12.5 58.5t40.5 71.5q27 37 58 69t64.5 55.5t67.5 37t67 13.5zM267 296q-38 0 -80.5 -39t-77.5 -100q-40 -70 -40 -112
q0 -31 34 -31q43 0 86.5 40t78.5 103q18 31 26 56t8 43q0 40 -35 40zM210 481q13 29 39 46.5t56 17.5q18 0 35 -8.5t33.5 -18.5t33.5 -18.5t36 -8.5q26 0 41 11.5t27 36.5l18 -9q-14 -32 -39 -51.5t-58 -19.5q-18 0 -35.5 8.5t-34.5 19t-33.5 19t-32.5 8.5q-22 0 -40 -9
t-29 -32z" />
    <glyph glyph-name="odieresis" unicode="&#xf6;" horiz-adv-x="339" 
d="M318 332q25 0 38 -12.5t13 -34.5q0 -24 -13 -57t-41 -71q-26 -38 -57 -70.5t-64.5 -57t-67.5 -38.5t-66 -14q-26 0 -39 13.5t-13 36.5q0 25 12.5 58.5t40.5 71.5q27 37 58 69t64.5 55.5t67.5 37t67 13.5zM267 296q-38 0 -80.5 -39t-77.5 -100q-40 -70 -40 -112
q0 -31 34 -31q43 0 86.5 40t78.5 103q18 31 26 56t8 43q0 40 -35 40zM264 415q-7 6 -11.5 15t-4.5 21q0 14 10.5 24.5t25.5 10.5q13 0 23.5 -9.5t10.5 -25.5q0 -17 -12 -28.5t-28 -18.5l-17 -7l-6 9zM407 415q-7 6 -11.5 15t-4.5 21q0 14 10.5 24.5t25.5 10.5
q13 0 23.5 -9.5t10.5 -25.5q0 -17 -12 -28.5t-28 -18.5l-17 -7l-6 9z" />
    <glyph glyph-name="divide" unicode="&#xf7;" horiz-adv-x="705" 
d="M222 242v29h405v-29h-405zM409 68q-7 6 -11.5 15t-4.5 21q0 14 10.5 24.5t25.5 10.5q13 0 23.5 -9.5t10.5 -25.5q0 -17 -12 -28.5t-28 -18.5l-17 -7l-6 9zM409 386q-7 6 -11.5 15t-4.5 21q0 14 10.5 24.5t25.5 10.5q13 0 23.5 -9.5t10.5 -25.5q0 -17 -12 -28.5t-28 -18.5
l-17 -7l-6 9z" />
    <glyph glyph-name="oslash" unicode="&#xf8;" horiz-adv-x="339" 
d="M324 332l67 81l10 -9l-61 -75q29 -11 29 -44q0 -24 -13 -57t-41 -71q-26 -38 -57 -70.5t-64.5 -57t-67.5 -38.5t-66 -14h-7l-67 -81l-12 8l63 77q-29 11 -29 46q0 25 12.5 58.5t40.5 71.5q27 37 58 69t64.5 55.5t67.5 37t67 13.5h6zM267 296q-38 0 -80.5 -39t-77.5 -100
q-40 -70 -40 -112q0 -12 5 -20l215 264q-7 7 -22 7zM103 14q43 0 86.5 40t78.5 103q18 31 26 56t8 43q0 12 -4 21l-213 -260q7 -3 18 -3z" />
    <glyph glyph-name="ugrave" unicode="&#xf9;" horiz-adv-x="404" 
d="M344 327q15 5 24 5q24 0 24 -21l-88 -159q-8 -15 -17.5 -30t-17.5 -30t-13 -28.5t-5 -25.5q0 -13 7 -21t24 -8q32 0 70 18.5t76 50.5l10 -13q-21 -16 -44 -32t-47 -28.5t-49 -20t-50 -7.5q-26 0 -38.5 15.5t-12.5 36.5q0 15 7 30q-26 -32 -57 -57t-63 -25t-47 15.5
t-15 41.5q0 33 18 66t40 66q20 31 36.5 60.5t16.5 57.5q0 22 -9.5 35t-38.5 18q12 17 36 17q29 0 47 -18.5t18 -46.5q0 -32 -17 -66.5t-37 -66.5q-21 -33 -38.5 -63.5t-17.5 -54.5q0 -15 7.5 -21.5t19.5 -6.5q19 0 40.5 15.5t42 38.5t39 50.5t31.5 51.5zM431 428q8 -5 8 -12
q0 -5 -3.5 -7.5t-7.5 -2.5q-1 0 -9 2q-63 23 -116.5 54t-107.5 65q-12 8 -19 16.5t-7 21.5q0 11 7.5 19t21.5 8q6 0 14 -2t11 -6q29 -36 54.5 -60.5t50 -41.5t49.5 -29.5t54 -24.5z" />
    <glyph glyph-name="uacute" unicode="&#xfa;" horiz-adv-x="404" 
d="M344 327q15 5 24 5q24 0 24 -21l-88 -159q-8 -15 -17.5 -30t-17.5 -30t-13 -28.5t-5 -25.5q0 -13 7 -21t24 -8q32 0 70 18.5t76 50.5l10 -13q-21 -16 -44 -32t-47 -28.5t-49 -20t-50 -7.5q-26 0 -38.5 15.5t-12.5 36.5q0 15 7 30q-26 -32 -57 -57t-63 -25t-47 15.5
t-15 41.5q0 33 18 66t40 66q20 31 36.5 60.5t16.5 57.5q0 22 -9.5 35t-38.5 18q12 17 36 17q29 0 47 -18.5t18 -46.5q0 -32 -17 -66.5t-37 -66.5q-21 -33 -38.5 -63.5t-17.5 -54.5q0 -15 7.5 -21.5t19.5 -6.5q19 0 40.5 15.5t42 38.5t39 50.5t31.5 51.5zM269 428
q28 12 53 24.5t50 30t50.5 41.5t54.5 60q3 4 11 6t14 2q14 0 21.5 -8t7.5 -19q0 -13 -7 -21.5t-19 -16.5q-54 -34 -107.5 -65t-116.5 -54q-8 -2 -9 -2q-4 0 -7.5 2.5t-3.5 7.5q0 7 8 12z" />
    <glyph glyph-name="ucircumflex" unicode="&#xfb;" horiz-adv-x="404" 
d="M344 327q15 5 24 5q24 0 24 -21l-88 -159q-8 -15 -17.5 -30t-17.5 -30t-13 -28.5t-5 -25.5q0 -13 7 -21t24 -8q32 0 70 18.5t76 50.5l10 -13q-21 -16 -44 -32t-47 -28.5t-49 -20t-50 -7.5q-26 0 -38.5 15.5t-12.5 36.5q0 15 7 30q-26 -32 -57 -57t-63 -25t-47 15.5
t-15 41.5q0 33 18 66t40 66q20 31 36.5 60.5t16.5 57.5q0 22 -9.5 35t-38.5 18q12 17 36 17q29 0 47 -18.5t18 -46.5q0 -32 -17 -66.5t-37 -66.5q-21 -33 -38.5 -63.5t-17.5 -54.5q0 -15 7.5 -21.5t19.5 -6.5q19 0 40.5 15.5t42 38.5t39 50.5t31.5 51.5zM397 619
q-3 -22 0.5 -51.5t13.5 -56t27.5 -45t43.5 -18.5q2 -8 2 -10q0 -14 -12 -24t-29 -10q-30 0 -48.5 19t-28.5 46t-13 57.5t-3 53.5q-51 -57 -106.5 -96.5t-116.5 -64.5l-4 20q72 28 127.5 72.5t106.5 107.5h40z" />
    <glyph glyph-name="udieresis" unicode="&#xfc;" horiz-adv-x="403" 
d="M343 327q15 5 24 5q24 0 24 -21l-88 -159q-8 -15 -17.5 -30t-17.5 -30t-13 -28.5t-5 -25.5q0 -13 7 -21t24 -8q32 0 70 18.5t76 50.5l10 -13q-21 -16 -44 -32t-47 -28.5t-49 -20t-50 -7.5q-26 0 -38.5 15.5t-12.5 36.5q0 15 7 30q-26 -32 -57 -57t-63 -25t-47 15.5
t-15 41.5q0 33 18 66t40 66q20 31 36.5 60.5t16.5 57.5q0 22 -9.5 35t-38.5 18q12 17 36 17q29 0 47 -18.5t18 -46.5q0 -32 -17 -66.5t-37 -66.5q-21 -33 -38.5 -63.5t-17.5 -54.5q0 -15 7.5 -21.5t19.5 -6.5q19 0 40.5 15.5t42 38.5t39 50.5t31.5 51.5zM237 415
q-7 6 -11.5 15t-4.5 21q0 14 10.5 24.5t25.5 10.5q13 0 23.5 -9.5t10.5 -25.5q0 -17 -12 -28.5t-28 -18.5l-17 -7l-6 9zM380 415q-7 6 -11.5 15t-4.5 21q0 14 10.5 24.5t25.5 10.5q13 0 23.5 -9.5t10.5 -25.5q0 -17 -12 -28.5t-28 -18.5l-17 -7l-6 9z" />
    <glyph glyph-name="yacute" unicode="&#xfd;" horiz-adv-x="396" 
d="M468 327l-304 -460q-70 -106 -133.5 -184t-128 -129.5t-133.5 -76.5t-149 -25q-77 0 -133.5 20t-93.5 53t-55 75t-18 87q0 55 22 100t60 77t90 49.5t111 17.5q39 0 72.5 -10t57.5 -27.5t38 -40.5t14 -50q0 -35 -15.5 -62.5t-42 -46t-61 -28.5t-73.5 -10q-26 0 -43 9
t-17 22q0 16 20 16q8 0 15 -4.5t15 -9.5t17 -9t21 -4q34 0 60 10.5t44 27.5t27.5 38.5t9.5 43.5q0 54 -44.5 87t-116.5 33q-54 0 -101.5 -16.5t-83 -46t-56 -71.5t-20.5 -93q0 -42 16.5 -81t50.5 -69t86 -48.5t124 -18.5q60 0 114 17t110 59t116 112t132 177l210 312
q-29 -31 -60 -61.5t-61 -55t-58 -40t-52 -15.5q-23 0 -39 13t-16 45q0 27 24 63.5t53.5 74.5t53.5 73.5t24 61.5q0 22 -13.5 34.5t-33.5 18.5q12 17 36 17q29 0 47 -18.5t18 -46.5q0 -20 -11.5 -44t-29 -49.5t-37.5 -51t-37.5 -49t-29 -43.5t-11.5 -35q0 -29 28 -29
q26 0 63 25t76 63.5t76 84.5t63 87l51 80q9 3 17 3q11 0 19.5 -7t8.5 -21zM290 428q28 12 53 24.5t50 30t50.5 41.5t54.5 60q3 4 11 6t14 2q14 0 21.5 -8t7.5 -19q0 -13 -7 -21.5t-19 -16.5q-54 -34 -107.5 -65t-116.5 -54q-8 -2 -9 -2q-4 0 -7.5 2.5t-3.5 7.5q0 7 8 12z
" />
    <glyph glyph-name="thorn" unicode="&#xfe;" horiz-adv-x="410" 
d="M-221 -408l611 1076q20 0 30 -4.5t10 -21.5l-228 -407q17 18 38.5 35.5t45 31t47.5 22t46 8.5q23 0 39 -12t16 -38q0 -30 -15 -64.5t-40.5 -68.5t-58.5 -65t-68.5 -55t-71 -38.5t-65.5 -14.5q-16 0 -30 6.5t-19 14.5l-229 -405h95l-5 -17h-220l5 17h67zM92 40
q8 -21 26 -27t31 -6q36 0 76 25t73.5 62.5t55 82t21.5 83.5q0 14 -8.5 25t-26.5 11q-28 0 -58 -17t-58 -44t-52.5 -60t-41.5 -65z" />
    <glyph glyph-name="ydieresis" unicode="&#xff;" horiz-adv-x="396" 
d="M468 327l-304 -460q-70 -106 -133.5 -184t-128 -129.5t-133.5 -76.5t-149 -25q-77 0 -133.5 20t-93.5 53t-55 75t-18 87q0 55 22 100t60 77t90 49.5t111 17.5q39 0 72.5 -10t57.5 -27.5t38 -40.5t14 -50q0 -35 -15.5 -62.5t-42 -46t-61 -28.5t-73.5 -10q-26 0 -43 9
t-17 22q0 16 20 16q8 0 15 -4.5t15 -9.5t17 -9t21 -4q34 0 60 10.5t44 27.5t27.5 38.5t9.5 43.5q0 54 -44.5 87t-116.5 33q-54 0 -101.5 -16.5t-83 -46t-56 -71.5t-20.5 -93q0 -42 16.5 -81t50.5 -69t86 -48.5t124 -18.5q60 0 114 17t110 59t116 112t132 177l210 312
q-29 -31 -60 -61.5t-61 -55t-58 -40t-52 -15.5q-23 0 -39 13t-16 45q0 27 24 63.5t53.5 74.5t53.5 73.5t24 61.5q0 22 -13.5 34.5t-33.5 18.5q12 17 36 17q29 0 47 -18.5t18 -46.5q0 -20 -11.5 -44t-29 -49.5t-37.5 -51t-37.5 -49t-29 -43.5t-11.5 -35q0 -29 28 -29
q26 0 63 25t76 63.5t76 84.5t63 87l51 80q9 3 17 3q11 0 19.5 -7t8.5 -21zM296 470q-7 6 -11.5 15t-4.5 21q0 14 10.5 24.5t25.5 10.5q13 0 23.5 -9.5t10.5 -25.5q0 -17 -12 -28.5t-28 -18.5l-17 -7l-6 9zM439 470q-7 6 -11.5 15t-4.5 21q0 14 10.5 24.5t25.5 10.5
q13 0 23.5 -9.5t10.5 -25.5q0 -17 -12 -28.5t-28 -18.5l-17 -7l-6 9z" />
    <glyph glyph-name="Amacron" unicode="&#x100;" horiz-adv-x="1797" 
d="M2108 783q45 14 89.5 21.5t95.5 7.5q58 0 108 -14t86.5 -41t57 -66t20.5 -90q0 -36 -12 -72t-37 -64.5t-62.5 -46t-89.5 -17.5q-31 0 -60.5 10t-52 29t-36.5 46t-14 62q0 30 17 63t55 50q-36 29 -78.5 53t-82.5 42q-34 -11 -67 -29.5t-65 -36.5l-270 -473
q61 -6 113.5 -31t90 -66.5t59 -99t21.5 -129.5q0 -83 -32 -155.5t-90.5 -126t-141 -84.5t-182.5 -31q-112 0 -200 31.5t-153 87.5t-107 133t-61 168q-88 -40 -183 -63t-206 -23q-110 0 -209 35t-175 102.5t-120.5 167.5t-44.5 230q0 110 39.5 198t107.5 149t158 93.5
t192 32.5q91 0 163.5 -28.5t122.5 -78t76.5 -115t26.5 -139.5q0 -71 -26.5 -132t-72 -106t-107.5 -70.5t-132 -25.5q-53 0 -97 16t-75.5 45t-49.5 69.5t-18 90.5q0 34 13 65.5t36.5 55.5t57.5 38.5t76 14.5q33 0 60 -11.5t45.5 -32t29 -48.5t10.5 -60q0 -20 -8 -31.5
t-21 -11.5q-19 0 -19 25q0 8 2.5 15.5t5.5 15.5t6 16.5t3 17.5q-11 38 -41.5 63.5t-72.5 25.5q-36 0 -66.5 -12.5t-52 -34t-33.5 -51t-12 -62.5q0 -45 16 -82t45.5 -63.5t70.5 -41t92 -14.5q55 0 111.5 21.5t101.5 62t73.5 99t28.5 132.5q0 66 -22.5 128t-68.5 110
t-116 77.5t-164 29.5q-105 0 -192.5 -33.5t-150 -93.5t-97.5 -144t-35 -185q0 -123 41 -217.5t112.5 -158t168.5 -96.5t209 -34q106 -1 200 23t181 66q-12 69 -12 144q0 116 31.5 217t86.5 184.5t130 149.5t161 111t180 68.5t188 23.5q88 0 167.5 -14.5t154.5 -46.5z
M1791 -110q19 0 19 -24q0 -18 -16.5 -40.5t-44 -43t-64.5 -34.5t-78 -14q-50 0 -91.5 16t-71 46t-45.5 73.5t-16 97.5q0 49 19 93t53.5 77.5t82.5 54.5t107 25l48 83h-162q-58 -56 -116 -109.5t-117.5 -102t-122.5 -90.5t-130 -75q19 -92 61.5 -167.5t106 -129.5t148 -83.5
t187.5 -29.5q91 0 168.5 28.5t134.5 79t89.5 120t32.5 150.5q0 68 -20.5 123t-57.5 94.5t-87 62.5t-109 27l-99 -174h134v-24h-287v24h85l101 173q-52 -7 -94.5 -27.5t-73 -51t-47 -69.5t-16.5 -82q0 -100 56 -157t152 -57q78 0 131 55q8 9 13.5 22t8.5 26q3 14 9.5 24
t18.5 10zM2082 770q-60 26 -136.5 40.5t-158.5 14.5q-99 0 -193 -25t-178.5 -71t-155.5 -112t-122 -147.5t-80 -177.5t-29 -202q0 -35 3 -69t8 -66q98 50 186.5 118.5t172 145.5t164.5 157t164 154t170.5 136.5t184.5 103.5zM2293 668q20 5 34 5q33 0 49.5 -13t16.5 -27
q0 -8 -7.5 -16t-26.5 -8q-18 0 -37 13.5t-36 27.5q-20 -9 -32.5 -21.5t-20 -27t-10.5 -28.5t-3 -25q0 -29 11.5 -53t31.5 -41t45.5 -26.5t54.5 -9.5q43 0 77 14.5t57 39.5t35 58.5t12 71.5q0 46 -20.5 81.5t-54.5 60t-79 37t-93 12.5q-38 0 -81.5 -6.5t-77.5 -19.5
q35 -19 77.5 -44.5t77.5 -54.5zM1707 323l177 303q-87 -63 -167.5 -141t-162.5 -162h153zM2305 656q11 -9 26 -20.5t29 -11.5q16 0 16 10q0 11 -14.5 17.5t-33.5 7.5q-13 0 -23 -3zM1960 981h213v-26h-213v26z" />
    <glyph glyph-name="amacron" unicode="&#x101;" 
d="M365 352q20 0 32.5 -5.5t12.5 -19.5l-127 -187q-5 -8 -13 -20.5t-16 -26.5t-13.5 -28.5t-5.5 -26.5q0 -13 7 -21t24 -8q32 0 69.5 18.5t75.5 50.5l10 -13q-21 -16 -44.5 -32t-47.5 -28.5t-49 -20t-50 -7.5q-26 0 -37.5 15.5t-11.5 36.5q0 18 11 48q-14 -15 -29.5 -29
t-31 -24.5t-30.5 -17t-28 -6.5q-55 0 -55 56q0 49 30.5 98t76.5 88.5t100 64.5t102 25q12 0 23 -3zM340 313q-8 3 -18 3q-35 0 -78 -24t-80 -61t-62 -80t-25 -82q0 -30 25 -30q23 0 50.5 20.5t55.5 53.5zM306 467h213v-26h-213v26z" />
    <glyph glyph-name="Abreve" unicode="&#x102;" horiz-adv-x="1797" 
d="M2108 783q45 14 89.5 21.5t95.5 7.5q58 0 108 -14t86.5 -41t57 -66t20.5 -90q0 -36 -12 -72t-37 -64.5t-62.5 -46t-89.5 -17.5q-31 0 -60.5 10t-52 29t-36.5 46t-14 62q0 30 17 63t55 50q-36 29 -78.5 53t-82.5 42q-34 -11 -67 -29.5t-65 -36.5l-270 -473
q61 -6 113.5 -31t90 -66.5t59 -99t21.5 -129.5q0 -83 -32 -155.5t-90.5 -126t-141 -84.5t-182.5 -31q-112 0 -200 31.5t-153 87.5t-107 133t-61 168q-88 -40 -183 -63t-206 -23q-110 0 -209 35t-175 102.5t-120.5 167.5t-44.5 230q0 110 39.5 198t107.5 149t158 93.5
t192 32.5q91 0 163.5 -28.5t122.5 -78t76.5 -115t26.5 -139.5q0 -71 -26.5 -132t-72 -106t-107.5 -70.5t-132 -25.5q-53 0 -97 16t-75.5 45t-49.5 69.5t-18 90.5q0 34 13 65.5t36.5 55.5t57.5 38.5t76 14.5q33 0 60 -11.5t45.5 -32t29 -48.5t10.5 -60q0 -20 -8 -31.5
t-21 -11.5q-19 0 -19 25q0 8 2.5 15.5t5.5 15.5t6 16.5t3 17.5q-11 38 -41.5 63.5t-72.5 25.5q-36 0 -66.5 -12.5t-52 -34t-33.5 -51t-12 -62.5q0 -45 16 -82t45.5 -63.5t70.5 -41t92 -14.5q55 0 111.5 21.5t101.5 62t73.5 99t28.5 132.5q0 66 -22.5 128t-68.5 110
t-116 77.5t-164 29.5q-105 0 -192.5 -33.5t-150 -93.5t-97.5 -144t-35 -185q0 -123 41 -217.5t112.5 -158t168.5 -96.5t209 -34q106 -1 200 23t181 66q-12 69 -12 144q0 116 31.5 217t86.5 184.5t130 149.5t161 111t180 68.5t188 23.5q88 0 167.5 -14.5t154.5 -46.5z
M1791 -110q19 0 19 -24q0 -18 -16.5 -40.5t-44 -43t-64.5 -34.5t-78 -14q-50 0 -91.5 16t-71 46t-45.5 73.5t-16 97.5q0 49 19 93t53.5 77.5t82.5 54.5t107 25l48 83h-162q-58 -56 -116 -109.5t-117.5 -102t-122.5 -90.5t-130 -75q19 -92 61.5 -167.5t106 -129.5t148 -83.5
t187.5 -29.5q91 0 168.5 28.5t134.5 79t89.5 120t32.5 150.5q0 68 -20.5 123t-57.5 94.5t-87 62.5t-109 27l-99 -174h134v-24h-287v24h85l101 173q-52 -7 -94.5 -27.5t-73 -51t-47 -69.5t-16.5 -82q0 -100 56 -157t152 -57q78 0 131 55q8 9 13.5 22t8.5 26q3 14 9.5 24
t18.5 10zM2082 770q-60 26 -136.5 40.5t-158.5 14.5q-99 0 -193 -25t-178.5 -71t-155.5 -112t-122 -147.5t-80 -177.5t-29 -202q0 -35 3 -69t8 -66q98 50 186.5 118.5t172 145.5t164.5 157t164 154t170.5 136.5t184.5 103.5zM2293 668q20 5 34 5q33 0 49.5 -13t16.5 -27
q0 -8 -7.5 -16t-26.5 -8q-18 0 -37 13.5t-36 27.5q-20 -9 -32.5 -21.5t-20 -27t-10.5 -28.5t-3 -25q0 -29 11.5 -53t31.5 -41t45.5 -26.5t54.5 -9.5q43 0 77 14.5t57 39.5t35 58.5t12 71.5q0 46 -20.5 81.5t-54.5 60t-79 37t-93 12.5q-38 0 -81.5 -6.5t-77.5 -19.5
q35 -19 77.5 -44.5t77.5 -54.5zM1707 323l177 303q-87 -63 -167.5 -141t-162.5 -162h153zM2305 656q11 -9 26 -20.5t29 -11.5q16 0 16 10q0 11 -14.5 17.5t-33.5 7.5q-13 0 -23 -3zM2265 1059q-26 -36 -54.5 -66.5t-59 -52.5t-63.5 -34.5t-69 -12.5q-27 0 -40.5 15.5
t-13.5 40.5q0 26 9.5 54.5t32.5 56.5q19 16 40.5 11.5t28.5 -16.5q-29 -25 -42 -48.5t-13 -41.5q0 -17 10 -27.5t28 -10.5q47 0 89.5 37t87.5 96q6 8 15 8t14 -9z" />
    <glyph glyph-name="abreve" unicode="&#x103;" 
d="M365 352q20 0 32.5 -5.5t12.5 -19.5l-127 -187q-5 -8 -13 -20.5t-16 -26.5t-13.5 -28.5t-5.5 -26.5q0 -13 7 -21t24 -8q32 0 69.5 18.5t75.5 50.5l10 -13q-21 -16 -44.5 -32t-47.5 -28.5t-49 -20t-50 -7.5q-26 0 -37.5 15.5t-11.5 36.5q0 18 11 48q-14 -15 -29.5 -29
t-31 -24.5t-30.5 -17t-28 -6.5q-55 0 -55 56q0 49 30.5 98t76.5 88.5t100 64.5t102 25q12 0 23 -3zM340 313q-8 3 -18 3q-35 0 -78 -24t-80 -61t-62 -80t-25 -82q0 -30 25 -30q23 0 50.5 20.5t55.5 53.5zM566 579q-26 -36 -54.5 -66.5t-59 -52.5t-63.5 -34.5t-69 -12.5
q-27 0 -40.5 15.5t-13.5 40.5q0 26 9.5 54.5t32.5 56.5q19 16 40.5 11.5t28.5 -16.5q-29 -25 -42 -48.5t-13 -41.5q0 -17 10 -27.5t28 -10.5q47 0 89.5 37t87.5 96q6 8 15 8t14 -9z" />
    <glyph glyph-name="Aogonek" unicode="&#x104;" horiz-adv-x="1797" 
d="M2108 783q45 14 89.5 21.5t95.5 7.5q58 0 108 -14t86.5 -41t57 -66t20.5 -90q0 -36 -12 -72t-37 -64.5t-62.5 -46t-89.5 -17.5q-31 0 -60.5 10t-52 29t-36.5 46t-14 62q0 30 17 63t55 50q-36 29 -78.5 53t-82.5 42q-34 -11 -67 -29.5t-65 -36.5l-270 -473
q61 -6 113.5 -31t90 -66.5t59 -99t21.5 -129.5q0 -83 -32 -155.5t-90.5 -126t-141 -84.5t-182.5 -31q-112 0 -200 31.5t-153 87.5t-107 133t-61 168q-88 -40 -183 -63t-206 -23q-110 0 -209 35t-175 102.5t-120.5 167.5t-44.5 230q0 110 39.5 198t107.5 149t158 93.5
t192 32.5q91 0 163.5 -28.5t122.5 -78t76.5 -115t26.5 -139.5q0 -71 -26.5 -132t-72 -106t-107.5 -70.5t-132 -25.5q-53 0 -97 16t-75.5 45t-49.5 69.5t-18 90.5q0 34 13 65.5t36.5 55.5t57.5 38.5t76 14.5q33 0 60 -11.5t45.5 -32t29 -48.5t10.5 -60q0 -20 -8 -31.5
t-21 -11.5q-19 0 -19 25q0 8 2.5 15.5t5.5 15.5t6 16.5t3 17.5q-11 38 -41.5 63.5t-72.5 25.5q-36 0 -66.5 -12.5t-52 -34t-33.5 -51t-12 -62.5q0 -45 16 -82t45.5 -63.5t70.5 -41t92 -14.5q55 0 111.5 21.5t101.5 62t73.5 99t28.5 132.5q0 66 -22.5 128t-68.5 110
t-116 77.5t-164 29.5q-105 0 -192.5 -33.5t-150 -93.5t-97.5 -144t-35 -185q0 -123 41 -217.5t112.5 -158t168.5 -96.5t209 -34q106 -1 200 23t181 66q-12 69 -12 144q0 116 31.5 217t86.5 184.5t130 149.5t161 111t180 68.5t188 23.5q88 0 167.5 -14.5t154.5 -46.5z
M1791 -110q19 0 19 -24q0 -18 -16.5 -40.5t-44 -43t-64.5 -34.5t-78 -14q-87 0 -146 47q-8 -30 -8 -57q0 -29 9 -55t27.5 -45.5t46.5 -31.5t66 -12q60 0 113.5 30.5t95.5 91.5l15 -8q-40 -64 -103.5 -99.5t-130.5 -35.5q-40 0 -74 11t-58.5 32t-38.5 51t-14 68q0 51 22 94
q-23 29 -35.5 65t-12.5 84q0 49 19.5 93.5t54.5 78.5t83.5 55.5t106.5 25.5l48 83h-162q-58 -56 -116 -109.5t-117.5 -102t-122.5 -90.5t-130 -75q19 -92 61.5 -167.5t106 -129.5t148 -83.5t187.5 -29.5q91 0 168.5 28.5t134.5 79t89.5 120t32.5 150.5q0 68 -20.5 123
t-57.5 94.5t-87 62.5t-109 27l-99 -174h134v-24h-50q-24 -9 -55 -26.5t-62 -43t-58 -58t-42 -71.5q55 -48 143 -48q78 0 131 55q8 9 13.5 22t8.5 26q3 14 9.5 24t18.5 10zM2082 770q-60 26 -136.5 40.5t-158.5 14.5q-99 0 -193 -25t-178.5 -71t-155.5 -112t-122 -147.5
t-80 -177.5t-29 -202q0 -35 3 -69t8 -66q98 50 186.5 118.5t172 145.5t164.5 157t164 154t170.5 136.5t184.5 103.5zM2293 668q20 5 34 5q33 0 49.5 -13t16.5 -27q0 -8 -7.5 -16t-26.5 -8q-18 0 -37 13.5t-36 27.5q-20 -9 -32.5 -21.5t-20 -27t-10.5 -28.5t-3 -25
q0 -29 11.5 -53t31.5 -41t45.5 -26.5t54.5 -9.5q43 0 77 14.5t57 39.5t35 58.5t12 71.5q0 46 -20.5 81.5t-54.5 60t-79 37t-93 12.5q-38 0 -81.5 -6.5t-77.5 -19.5q35 -19 77.5 -44.5t77.5 -54.5zM1400 -36q0 -40 10.5 -72.5t28.5 -58.5q19 31 46 58t56.5 48t58.5 36.5
t52 24.5h-205v24h85l101 173q-52 -7 -95 -28t-73.5 -52t-47.5 -70.5t-17 -82.5zM1707 323l177 303q-87 -63 -167.5 -141t-162.5 -162h153zM2305 656q11 -9 26 -20.5t29 -11.5q16 0 16 10q0 11 -14.5 17.5t-33.5 7.5q-13 0 -23 -3z" />
    <glyph glyph-name="aogonek" unicode="&#x105;" 
d="M365 352q20 3 32.5 -2t12.5 -23l-127 -187q-5 -8 -13 -20.5t-16 -26.5t-13.5 -28.5t-5.5 -26.5q0 -13 7 -21t24 -8q32 0 69.5 18.5t75.5 50.5l10 -13q-40 -31 -86.5 -57.5t-94.5 -29.5q-64 -46 -64 -95q0 -17 11.5 -25.5t27.5 -8.5t35.5 4t40 11.5t40.5 18.5t37 25
l10 -14q-18 -14 -42 -28t-49.5 -24.5t-51 -17t-47.5 -6.5q-25 0 -45 11t-20 37q0 15 8 31t21 31t29 28t33 23q-17 5 -25 18.5t-8 31.5q0 11 3 23q-26 -21 -54 -36.5t-57 -15.5q-55 0 -55 58q0 34 16 69t42.5 66.5t61 59t71.5 46t74 27.5t68 4zM193 81q6 14 17 32t22 35
l109 167q-22 -1 -50.5 -12.5t-58 -30t-58 -43t-50.5 -52t-35.5 -56t-13.5 -54.5q0 -32 30 -32q39 0 88 46z" />
    <glyph glyph-name="Cacute" unicode="&#x106;" horiz-adv-x="827" 
d="M739 101q0 34 -12.5 64t-34 52t-51.5 35t-64 13q-31 0 -60.5 -12t-53 -31t-37.5 -42.5t-14 -46.5q0 -15 5.5 -25.5t11.5 -19t11.5 -16t5.5 -17.5q0 -20 -20 -20q-9 0 -16.5 6.5t-12.5 17t-8 22.5t-3 24q0 36 16 68t42.5 56t61 38t71.5 14q42 0 75.5 -15.5t57.5 -40.5
t36.5 -57t12.5 -65q0 -54 -23 -108.5t-67 -98t-109 -71t-150 -27.5q-76 0 -135 25.5t-99.5 70t-61.5 103.5t-21 127q-1 74 22 144.5t62 134.5t90 120t106 101v16q0 62 24 114t64 89.5t91 58.5t104 21q85 0 141 -34t84 -89q75 -11 119.5 -51t44.5 -112q0 -65 -30 -118.5
t-80 -91.5t-115.5 -59t-135.5 -21q-57 0 -107.5 15.5t-90 44t-67 70t-39.5 93.5q-46 -42 -88 -93t-73.5 -109t-50 -120.5t-18.5 -126.5q0 -55 15.5 -108t48.5 -95t84 -67.5t122 -25.5q85 0 145.5 27t99 68t56.5 89.5t18 91.5zM871 774q-11 2 -25 2.5t-23 0.5
q-53 0 -107.5 -14.5t-109 -40t-107 -60t-101.5 -75.5q8 -47 31.5 -88t60.5 -71.5t86 -48t108 -17.5q70 0 132 20.5t108 57t73 87t27 110.5q0 48 -32.5 86t-98.5 48q8 -21 11 -42t3 -41q0 -50 -14.5 -90.5t-41 -69t-63 -44.5t-79.5 -16q-29 0 -53 9t-40.5 24.5t-25.5 36.5
t-9 45q0 51 26.5 84.5t68.5 43.5q24 5 25 -10q0 -12 -20.5 -20.5t-43.5 -14.5q-23 -16 -32 -38.5t-8 -43.5q2 -49 34 -75t80 -26q36 0 68.5 13t57 39t38.5 64.5t14 89.5q0 23 -5 44t-13 41zM858 802q-26 48 -78 76.5t-125 28.5q-45 0 -91 -17.5t-83.5 -51t-62 -83.5
t-25.5 -114q49 36 101.5 65.5t107.5 51.5t111 34t112 12q5 0 16.5 -0.5t16.5 -1.5zM899 883q28 12 53 24.5t50 30t50.5 41.5t54.5 60q3 4 11 6t14 2q14 0 21.5 -8t7.5 -19q0 -13 -7 -21.5t-19 -16.5q-54 -34 -107.5 -65t-116.5 -54q-8 -2 -9 -2q-4 0 -7.5 2.5t-3.5 7.5
q0 7 8 12z" />
    <glyph glyph-name="cacute" unicode="&#x107;" horiz-adv-x="306" 
d="M270 308q-26 -7 -58 -31t-60.5 -57.5t-47.5 -73.5t-19 -79q0 -67 62 -67q48 0 95.5 22.5t86.5 54.5l10 -12q-55 -46 -115 -70.5t-124 -24.5q-38 0 -58 23.5t-20 68.5q0 27 14 57.5t37 60.5t53 57.5t62 48.5t64 33.5t60 12.5t41 -10.5t13 -25.5q0 -17 -12.5 -27.5
t-32.5 -10.5q-22 0 -36.5 15t-14.5 35zM248 420q28 12 53 24.5t50 30t50.5 41.5t54.5 60q3 4 11 6t14 2q14 0 21.5 -8t7.5 -19q0 -13 -7 -21.5t-19 -16.5q-54 -34 -107.5 -65t-116.5 -54q-8 -2 -9 -2q-4 0 -7.5 2.5t-3.5 7.5q0 7 8 12z" />
    <glyph glyph-name="Ccircumflex" unicode="&#x108;" horiz-adv-x="827" 
d="M961 1065q-3 -22 0.5 -51.5t13.5 -56t27.5 -45t43.5 -18.5q2 -8 2 -10q0 -14 -12 -24t-29 -10q-30 0 -48.5 19t-28.5 46t-13 57.5t-3 53.5q-28 -31 -66 -63t-79 -61q38 -16 66.5 -42t45.5 -60q75 -11 119.5 -51t44.5 -112q0 -65 -30 -118.5t-80 -91.5t-115.5 -59
t-135.5 -21q-57 0 -107.5 15.5t-90 44t-67 70t-39.5 93.5q-46 -42 -88 -93t-73.5 -109t-50 -120.5t-18.5 -126.5q0 -55 15.5 -108t48.5 -95t84 -67.5t122 -25.5q85 0 145.5 27t99 68t56.5 89.5t18 91.5q0 34 -12.5 64t-34 52t-51.5 35t-64 13q-31 0 -60.5 -12t-53 -31
t-37.5 -42.5t-14 -46.5q0 -15 5.5 -25.5t11.5 -19t11.5 -16t5.5 -17.5q0 -20 -20 -20q-9 0 -16.5 6.5t-12.5 17t-8 22.5t-3 24q0 36 16 68t42.5 56t61 38t71.5 14q42 0 75.5 -15.5t57.5 -40.5t36.5 -57t12.5 -65q0 -54 -23 -108.5t-67 -98t-109 -71t-150 -27.5
q-76 0 -135 25.5t-99.5 70t-61.5 103.5t-21 127q-1 74 22 144.5t62 134.5t90 120t106 101v16q0 62 24 114t64 89.5t91 58.5t104 21q26 0 48.5 -3.5t42.5 -9.5q50 33 96 74t78 81h40zM871 774q-11 2 -25 2.5t-23 0.5q-53 0 -107.5 -14.5t-109 -40t-107 -60t-101.5 -75.5
q8 -47 31.5 -88t60.5 -71.5t86 -48t108 -17.5q70 0 132 20.5t108 57t73 87t27 110.5q0 48 -32.5 86t-98.5 48q8 -21 11 -42t3 -41q0 -50 -14.5 -90.5t-41 -69t-63 -44.5t-79.5 -16q-29 0 -53 9t-40.5 24.5t-25.5 36.5t-9 45q0 51 26.5 84.5t68.5 43.5q24 5 25 -10
q0 -12 -20.5 -20.5t-43.5 -14.5q-23 -16 -32 -38.5t-8 -43.5q2 -49 34 -75t80 -26q36 0 68.5 13t57 39t38.5 64.5t14 89.5q0 23 -5 44t-13 41zM858 802q-34 62 -106 89q-31 -20 -60 -36t-53 -26l-4 20q46 17 94 49q-33 9 -74 9q-45 0 -91 -17.5t-83.5 -51t-62 -83.5
t-25.5 -114q49 36 101.5 65.5t107.5 51.5t111 34t112 12q5 0 16.5 -0.5t16.5 -1.5z" />
    <glyph glyph-name="ccircumflex" unicode="&#x109;" horiz-adv-x="306" 
d="M270 308q-26 -7 -58 -31t-60.5 -57.5t-47.5 -73.5t-19 -79q0 -67 62 -67q48 0 95.5 22.5t86.5 54.5l10 -12q-55 -46 -115 -70.5t-124 -24.5q-38 0 -58 23.5t-20 68.5q0 27 14 57.5t37 60.5t53 57.5t62 48.5t64 33.5t60 12.5t41 -10.5t13 -25.5q0 -17 -12.5 -27.5
t-32.5 -10.5q-22 0 -36.5 15t-14.5 35zM427 619q-3 -22 0.5 -51.5t13.5 -56t27.5 -45t43.5 -18.5q2 -8 2 -10q0 -14 -12 -24t-29 -10q-30 0 -48.5 19t-28.5 46t-13 57.5t-3 53.5q-51 -57 -106.5 -96.5t-116.5 -64.5l-4 20q72 28 127.5 72.5t106.5 107.5h40z" />
    <glyph glyph-name="Cdotaccent" unicode="&#x10a;" horiz-adv-x="827" 
d="M739 101q0 34 -12.5 64t-34 52t-51.5 35t-64 13q-31 0 -60.5 -12t-53 -31t-37.5 -42.5t-14 -46.5q0 -15 5.5 -25.5t11.5 -19t11.5 -16t5.5 -17.5q0 -20 -20 -20q-9 0 -16.5 6.5t-12.5 17t-8 22.5t-3 24q0 36 16 68t42.5 56t61 38t71.5 14q42 0 75.5 -15.5t57.5 -40.5
t36.5 -57t12.5 -65q0 -54 -23 -108.5t-67 -98t-109 -71t-150 -27.5q-76 0 -135 25.5t-99.5 70t-61.5 103.5t-21 127q-1 74 22 144.5t62 134.5t90 120t106 101v16q0 62 24 114t64 89.5t91 58.5t104 21q85 0 141 -34t84 -89q75 -11 119.5 -51t44.5 -112q0 -65 -30 -118.5
t-80 -91.5t-115.5 -59t-135.5 -21q-57 0 -107.5 15.5t-90 44t-67 70t-39.5 93.5q-46 -42 -88 -93t-73.5 -109t-50 -120.5t-18.5 -126.5q0 -55 15.5 -108t48.5 -95t84 -67.5t122 -25.5q85 0 145.5 27t99 68t56.5 89.5t18 91.5zM871 774q-11 2 -25 2.5t-23 0.5
q-53 0 -107.5 -14.5t-109 -40t-107 -60t-101.5 -75.5q8 -47 31.5 -88t60.5 -71.5t86 -48t108 -17.5q70 0 132 20.5t108 57t73 87t27 110.5q0 48 -32.5 86t-98.5 48q8 -21 11 -42t3 -41q0 -50 -14.5 -90.5t-41 -69t-63 -44.5t-79.5 -16q-29 0 -53 9t-40.5 24.5t-25.5 36.5
t-9 45q0 51 26.5 84.5t68.5 43.5q24 5 25 -10q0 -12 -20.5 -20.5t-43.5 -14.5q-23 -16 -32 -38.5t-8 -43.5q2 -49 34 -75t80 -26q36 0 68.5 13t57 39t38.5 64.5t14 89.5q0 23 -5 44t-13 41zM858 802q-26 48 -78 76.5t-125 28.5q-45 0 -91 -17.5t-83.5 -51t-62 -83.5
t-25.5 -114q49 36 101.5 65.5t107.5 51.5t111 34t112 12q5 0 16.5 -0.5t16.5 -1.5zM901 935q-7 6 -11.5 15t-4.5 21q0 14 10.5 24.5t25.5 10.5q13 0 23.5 -9.5t10.5 -25.5q0 -17 -12 -28.5t-28 -18.5l-17 -7l-6 9z" />
    <glyph glyph-name="cdotaccent" unicode="&#x10b;" horiz-adv-x="306" 
d="M270 308q-26 -7 -58 -31t-60.5 -57.5t-47.5 -73.5t-19 -79q0 -67 62 -67q48 0 95.5 22.5t86.5 54.5l10 -12q-55 -46 -115 -70.5t-124 -24.5q-38 0 -58 23.5t-20 68.5q0 27 14 57.5t37 60.5t53 57.5t62 48.5t64 33.5t60 12.5t41 -10.5t13 -25.5q0 -17 -12.5 -27.5
t-32.5 -10.5q-22 0 -36.5 15t-14.5 35zM343 435q-7 6 -11.5 15t-4.5 21q0 14 10.5 24.5t25.5 10.5q13 0 23.5 -9.5t10.5 -25.5q0 -17 -12 -28.5t-28 -18.5l-17 -7l-6 9z" />
    <glyph glyph-name="Ccaron" unicode="&#x10c;" horiz-adv-x="827" 
d="M739 101q0 34 -12.5 64t-34 52t-51.5 35t-64 13q-31 0 -60.5 -12t-53 -31t-37.5 -42.5t-14 -46.5q0 -15 5.5 -25.5t11.5 -19t11.5 -16t5.5 -17.5q0 -20 -20 -20q-9 0 -16.5 6.5t-12.5 17t-8 22.5t-3 24q0 36 16 68t42.5 56t61 38t71.5 14q42 0 75.5 -15.5t57.5 -40.5
t36.5 -57t12.5 -65q0 -54 -23 -108.5t-67 -98t-109 -71t-150 -27.5q-76 0 -135 25.5t-99.5 70t-61.5 103.5t-21 127q-1 74 22 144.5t62 134.5t90 120t106 101v16q0 62 24 114t64 89.5t91 58.5t104 21q85 0 141 -34t84 -89q75 -11 119.5 -51t44.5 -112q0 -65 -30 -118.5
t-80 -91.5t-115.5 -59t-135.5 -21q-57 0 -107.5 15.5t-90 44t-67 70t-39.5 93.5q-46 -42 -88 -93t-73.5 -109t-50 -120.5t-18.5 -126.5q0 -55 15.5 -108t48.5 -95t84 -67.5t122 -25.5q85 0 145.5 27t99 68t56.5 89.5t18 91.5zM871 774q-11 2 -25 2.5t-23 0.5
q-53 0 -107.5 -14.5t-109 -40t-107 -60t-101.5 -75.5q8 -47 31.5 -88t60.5 -71.5t86 -48t108 -17.5q70 0 132 20.5t108 57t73 87t27 110.5q0 48 -32.5 86t-98.5 48q8 -21 11 -42t3 -41q0 -50 -14.5 -90.5t-41 -69t-63 -44.5t-79.5 -16q-29 0 -53 9t-40.5 24.5t-25.5 36.5
t-9 45q0 51 26.5 84.5t68.5 43.5q24 5 25 -10q0 -12 -20.5 -20.5t-43.5 -14.5q-23 -16 -32 -38.5t-8 -43.5q2 -49 34 -75t80 -26q36 0 68.5 13t57 39t38.5 64.5t14 89.5q0 23 -5 44t-13 41zM858 802q-26 48 -78 76.5t-125 28.5q-45 0 -91 -17.5t-83.5 -51t-62 -83.5
t-25.5 -114q49 36 101.5 65.5t107.5 51.5t111 34t112 12q5 0 16.5 -0.5t16.5 -1.5zM911 861q3 22 -0.5 51.5t-13.5 56t-28 45t-43 18.5q-2 8 -2 10q0 14 12 24t29 10q30 0 48.5 -19t28.5 -46t13 -57.5t3 -53.5q51 57 106.5 96.5t116.5 64.5q10 0 10 -10q0 -7 -6 -10
q-70 -31 -126.5 -74t-107.5 -106h-40z" />
    <glyph glyph-name="ccaron" unicode="&#x10d;" horiz-adv-x="306" 
d="M270 308q-26 -7 -58 -31t-60.5 -57.5t-47.5 -73.5t-19 -79q0 -67 62 -67q48 0 95.5 22.5t86.5 54.5l10 -12q-55 -46 -115 -70.5t-124 -24.5q-38 0 -58 23.5t-20 68.5q0 27 14 57.5t37 60.5t53 57.5t62 48.5t64 33.5t60 12.5t41 -10.5t13 -25.5q0 -17 -12.5 -27.5
t-32.5 -10.5q-22 0 -36.5 15t-14.5 35zM300 405q3 22 -0.5 51.5t-13.5 56t-28 45t-43 18.5q-2 8 -2 10q0 14 12 24t29 10q30 0 48.5 -19t28.5 -46t13 -57.5t3 -53.5q51 57 106.5 96.5t116.5 64.5q10 0 10 -10q0 -7 -6 -10q-70 -31 -126.5 -74t-107.5 -106h-40z" />
    <glyph glyph-name="Dcaron" unicode="&#x10e;" horiz-adv-x="1345" 
d="M1311 718q35 -51 52 -114.5t17 -124.5q0 -79 -22.5 -157t-65.5 -147.5t-105.5 -129t-143.5 -103t-179 -68t-211 -24.5q-106 0 -203.5 19t-199.5 53q-11 -1 -24 -1.5t-24 -0.5q-17 0 -40.5 1.5t-45.5 5.5t-38 10.5t-17 17.5q0 17 13.5 24t33.5 7q25 0 59 -10t66 -27
q43 10 87 32t87.5 52t86 67t83.5 76q-44 16 -84.5 45t-72 71t-50.5 97t-19 123q0 91 39 169.5t106.5 136t158.5 90t195 32.5q153 0 266.5 -56t182.5 -150q17 2 34.5 3t36.5 1q17 0 50.5 -3.5t68.5 -14.5q33 -11 58 -27.5t25 -42.5q0 -18 -19 -18q-16 0 -26 10.5t-19 24.5
t-21.5 25.5t-32.5 17.5q-48 13 -103 12q-8 0 -19 -1t-21 -3zM1325 472q0 60 -18.5 122t-51.5 114q-41 -9 -75 -25t-64.5 -36.5t-58.5 -44.5t-56 -49q23 -49 23 -107q0 -63 -25 -116.5t-70 -93t-106.5 -61.5t-133.5 -22q-13 0 -25 1.5t-25 3.5q-42 -41 -86 -78t-89 -67
t-91 -51.5t-92 -31.5q55 -14 103 -24t92.5 -17t86.5 -10t84 -3q143 -1 267 45t215.5 126.5t143.5 190t52 234.5zM960 580q-20 27 -50.5 43.5t-68.5 16.5q-17 0 -36 -4.5t-32 -13.5q-10 -7 -16 -18t-10 -22t-10.5 -18.5t-15.5 -7.5q-18 0 -18 17q0 19 11.5 34.5t31 26.5
t44 17.5t51.5 6.5q42 0 77 -17t59 -47q57 48 120.5 81.5t144.5 50.5q-30 39 -70 74.5t-89 62t-107.5 42t-126.5 15.5q-108 0 -196 -33.5t-150.5 -90t-96.5 -129.5t-34 -152q0 -65 18 -118t48.5 -93.5t70 -68.5t83.5 -42q48 51 96 102.5t90 96.5q45 48 90.5 97t91.5 91z
M657 177q13 -4 34 -4q70 0 128 21.5t98.5 58.5t63 87t22.5 107q0 23 -4.5 47.5t-15.5 43.5q-63 -60 -119.5 -129.5t-110.5 -129.5q-21 -24 -47 -51.5t-49 -50.5zM1095 995q3 22 -0.5 51.5t-13.5 56t-28 45t-43 18.5q-2 8 -2 10q0 14 12 24t29 10q30 0 48.5 -19t28.5 -46
t13 -57.5t3 -53.5q51 57 106.5 96.5t116.5 64.5q10 0 10 -10q0 -7 -6 -10q-70 -31 -126.5 -74t-107.5 -106h-40z" />
    <glyph glyph-name="dcaron" unicode="&#x10f;" horiz-adv-x="436" 
d="M515 668q20 0 30 -4.5t10 -21.5l-271 -502q-5 -9 -12.5 -22t-14 -27.5t-11.5 -29t-5 -25.5q0 -13 6 -20t23 -7q32 0 67.5 18.5t73.5 50.5l10 -13q-21 -16 -43.5 -32t-46 -28.5t-48 -20t-49.5 -7.5q-49 0 -49 42q0 13 5.5 31t14.5 38q-14 -16 -31 -31.5t-35 -28t-35 -20.5
t-31 -8q-55 0 -55 56q0 49 28 98t70.5 88.5t93.5 64t98 24.5q6 0 12 -0.5t11 -1.5zM322 313q-24 0 -52 -11t-55.5 -30t-53 -43.5t-45 -51.5t-31 -55t-11.5 -53q0 -17 7.5 -23.5t18.5 -6.5q24 0 53 23.5t64 62.5zM548 488q20 7 39 18.5t35 25.5t26.5 30.5t13.5 33.5
q-16 0 -25.5 11t-9.5 28q0 15 9.5 27t26.5 12q14 0 23 -11t9 -28q0 -31 -13 -56.5t-34 -45.5t-46.5 -34.5t-49.5 -23.5z" />
    <glyph glyph-name="Dcroat" unicode="&#x110;" horiz-adv-x="1345" 
d="M1311 718q35 -51 52 -114.5t17 -124.5q0 -79 -22.5 -157t-65.5 -147.5t-105.5 -129t-143.5 -103t-179 -68t-211 -24.5q-106 0 -203.5 19t-199.5 53q-11 -1 -24 -1.5t-24 -0.5q-17 0 -40.5 1.5t-45.5 5.5t-38 10.5t-17 17.5q0 17 13.5 24t33.5 7q25 0 59 -10t66 -27
q43 10 87 32t87.5 52t86 67t83.5 76q-44 16 -84.5 45t-72 71t-50.5 97t-19 123q0 91 39 169.5t106.5 136t158.5 90t195 32.5q153 0 266.5 -56t182.5 -150q17 2 34.5 3t36.5 1q17 0 50.5 -3.5t68.5 -14.5q33 -11 58 -27.5t25 -42.5q0 -18 -19 -18q-16 0 -26 10.5t-19 24.5
t-21.5 25.5t-32.5 17.5q-48 13 -103 12q-8 0 -19 -1t-21 -3zM520 382h248q2 2 5 4.5t5 5.5q45 48 90.5 97t91.5 91q-20 27 -50.5 43.5t-68.5 16.5q-17 0 -36 -4.5t-32 -13.5q-10 -7 -16 -18t-10 -22t-10.5 -18.5t-15.5 -7.5q-18 0 -18 17q0 19 11.5 34.5t31 26.5t44 17.5
t51.5 6.5q42 0 77 -17t59 -47q57 48 120.5 81.5t144.5 50.5q-30 39 -70 74.5t-89 62t-107.5 42t-126.5 15.5q-108 0 -196 -33.5t-150.5 -90t-96.5 -129.5t-34 -152q0 -65 18 -118t48.5 -93.5t70 -68.5t83.5 -42q42 42 83 87t78 85h-233v17zM1325 472q0 60 -18.5 122
t-51.5 114q-41 -9 -75 -25t-64.5 -36.5t-58.5 -44.5t-56 -49q23 -49 23 -107q0 -63 -25 -116.5t-70 -93t-106.5 -61.5t-133.5 -22q-13 0 -25 1.5t-25 3.5q-42 -41 -86 -78t-89 -67t-91 -51.5t-92 -31.5q55 -14 103 -24t92.5 -17t86.5 -10t84 -3q143 -1 267 45t215.5 126.5
t143.5 190t52 234.5zM657 177q13 -4 34 -4q70 0 128 21.5t98.5 58.5t63 87t22.5 107q0 23 -4.5 47.5t-15.5 43.5q-38 -36 -73.5 -76t-69.5 -80h132v-17h-146q-19 -23 -37.5 -44.5t-35.5 -41.5q-21 -24 -47 -51.5t-49 -50.5z" />
    <glyph glyph-name="dcroat" unicode="&#x111;" 
d="M326 477h96q57 90 123.5 162.5t146.5 123.5t175.5 79t210.5 28q105 0 178 -20t118 -53t65 -75t20 -87q0 -55 -22 -100t-60 -77t-89.5 -49.5t-110.5 -17.5q-39 0 -72.5 10t-58 27.5t-38.5 40.5t-14 50q0 35 15.5 62.5t42 46t61 28.5t73.5 10q29 0 46 -9t17 -18
q0 -16 -23 -16q-15 0 -32 11q-8 5 -17 8.5t-19 3.5q-34 0 -60 -10.5t-44 -27.5t-27.5 -38.5t-9.5 -43.5q0 -54 44.5 -87t116.5 -33q54 0 101.5 16.5t83 46t56 71.5t20.5 93q0 42 -19 81t-61.5 69t-112 48.5t-170.5 18.5q-109 0 -196 -24.5t-158.5 -72t-131.5 -117
t-115 -159.5h135v-17h-145q-3 -4 -6.5 -9t-10 -16.5t-18.5 -32t-31.5 -55t-48 -85t-69.5 -122.5q-5 -8 -12.5 -21t-15 -28t-13 -30t-5.5 -27q0 -13 7 -19t24 -6q32 0 69.5 18.5t75.5 50.5l10 -13q-21 -16 -44.5 -32t-47.5 -28.5t-49 -20t-50 -7.5q-49 0 -49 44q0 11 3 27.5
t9 30.5q-28 -32 -60 -55.5t-60 -23.5q-55 0 -55 56q0 49 29 98t73 88.5t96 64t99 24.5q12 0 23 -3q17 32 28.5 53t19.5 35.5t14 24.5t12 19h-86v17zM327 312q-36 0 -80.5 -24t-82.5 -60.5t-64 -79t-26 -79.5q0 -17 7.5 -23.5t18.5 -6.5q24 0 51.5 22.5t62.5 61.5z" />
    </font>
</defs>
</svg>
